track,note,velocity,time
0,36,120,224
0,36,127,0
0,36,120,0
0,35,127,0
0,48,127,0
0,35,0,1
0,48,0,13
0,36,0,4
0,36,0,12
0,36,0,11
0,36,127,7
0,36,0,20
0,48,126,28
0,60,115,0
0,48,120,0
0,35,85,0
0,35,0,1
0,48,0,19
0,48,0,1
0,60,0,6
0,36,127,21
0,60,127,0
0,48,117,0
0,36,0,20
0,48,0,4
0,60,0,9
0,51,115,15
0,35,96,0
0,35,0,1
0,51,0,28
0,48,127,19
0,63,127,0
0,48,0,17
0,63,0,9
0,36,124,22
0,48,113,0
0,35,106,0
0,35,0,1
0,36,0,17
0,48,0,14
0,48,127,16
0,60,125,0
0,48,0,19
0,60,0,9
0,44,125,20
0,44,117,0
0,35,104,0
0,35,0,1
0,44,0,17
0,44,0,0
0,56,103,30
0,56,0,28
0,44,127,20
0,56,127,0
0,35,108,0
0,35,0,1
0,44,0,11
0,56,0,18
0,44,127,18
0,60,127,0
0,44,0,16
0,60,0,15
0,43,117,17
0,43,119,0
0,35,112,0
0,35,0,1
0,43,0,17
0,43,0,0
0,43,126,30
0,43,116,0
0,43,0,22
0,43,0,1
0,46,127,25
0,55,127,0
0,35,106,0
0,35,0,1
0,46,0,12
0,55,0,8
0,46,127,27
0,60,127,0
0,46,0,16
0,60,0,13
0,36,127,19
0,36,127,0
0,36,127,0
0,35,127,0
0,48,127,0
0,35,0,1
0,48,0,14
0,36,0,2
0,36,0,6
0,36,0,2
0,36,123,23
0,36,0,18
0,48,125,30
0,60,127,0
0,48,114,0
0,35,112,0
0,35,0,1
0,48,0,20
0,60,0,0
0,48,0,4
0,36,127,23
0,60,127,0
0,48,113,0
0,36,0,22
0,60,0,8
0,48,0,1
0,51,105,17
0,35,114,0
0,35,0,1
0,51,0,26
0,48,127,21
0,63,127,0
0,48,0,21
0,63,0,6
0,36,127,21
0,48,114,0
0,35,120,0
0,35,0,1
0,36,0,20
0,48,0,12
0,48,127,15
0,60,125,0
0,48,0,20
0,60,0,18
0,44,127,10
0,44,119,0
0,35,127,0
0,35,0,1
0,44,0,16
0,44,0,6
0,56,104,25
0,56,0,29
0,44,127,19
0,56,127,0
0,35,114,0
0,35,0,1
0,44,0,15
0,56,0,16
0,44,127,16
0,60,127,0
0,44,0,17
0,60,0,15
0,43,123,16
0,43,111,0
0,35,110,0
0,35,0,1
0,43,0,16
0,43,0,1
0,43,123,30
0,43,123,0
0,43,0,22
0,43,0,5
0,46,127,21
0,55,127,0
0,35,118,0
0,35,0,1
0,46,0,13
0,55,0,21
0,46,127,13
0,60,127,0
0,46,0,18
0,60,0,16
0,36,120,14
0,36,127,0
0,36,120,0
0,35,127,0
0,48,127,0
0,35,0,1
0,48,0,14
0,36,0,3
0,36,0,12
0,36,0,11
0,36,127,7
0,36,0,20
0,48,126,28
0,60,115,0
0,48,120,0
0,35,110,0
0,35,0,1
0,75,113,0
0,48,0,18
0,48,0,1
0,60,0,6
0,36,127,21
0,60,127,0
0,48,117,0
0,75,0,11
0,36,0,9
0,48,0,4
0,60,0,9
0,51,115,15
0,35,110,0
0,35,0,1
0,75,113,0
0,51,0,28
0,48,127,19
0,63,127,0
0,48,0,17
0,75,0,2
0,63,0,7
0,72,104,21
0,36,124,1
0,48,113,0
0,35,116,0
0,35,0,1
0,36,0,17
0,48,0,14
0,72,0,7
0,75,102,8
0,48,127,1
0,60,125,0
0,48,0,19
0,60,0,9
0,44,125,20
0,44,117,0
0,35,121,0
0,35,0,1
0,44,0,17
0,44,0,0
0,75,0,6
0,75,97,23
0,56,103,1
0,56,0,28
0,44,127,20
0,56,127,0
0,35,104,0
0,35,0,1
0,44,0,11
0,56,0,18
0,75,0,0
0,44,127,18
0,60,127,0
0,75,101,1
0,44,0,15
0,60,0,15
0,43,117,17
0,43,119,0
0,35,110,0
0,35,0,1
0,74,91,0
0,75,0,1
0,43,0,16
0,43,0,0
0,43,126,30
0,43,116,0
0,43,0,22
0,43,0,1
0,74,0,13
0,46,127,12
0,55,127,0
0,35,110,0
0,35,0,1
0,46,0,12
0,55,0,8
0,46,127,27
0,60,127,0
0,46,0,16
0,60,0,13
0,75,113,18
0,36,127,1
0,36,127,0
0,36,127,0
0,35,127,0
0,48,127,0
0,35,0,1
0,48,0,13
0,36,0,3
0,36,0,6
0,36,0,2
0,75,0,6
0,75,97,16
0,36,123,1
0,36,0,18
0,75,0,18
0,72,98,11
0,48,125,1
0,60,127,0
0,48,114,0
0,35,108,0
0,35,0,1
0,60,0,20
0,48,0,0
0,48,0,4
0,72,0,16
0,36,127,7
0,60,127,0
0,48,113,0
0,75,107,1
0,36,0,21
0,60,0,8
0,48,0,1
0,51,105,17
0,35,111,0
0,35,0,1
0,51,0,26
0,48,127,21
0,63,127,0
0,75,0,1
0,48,0,20
0,63,0,6
0,72,91,20
0,36,127,1
0,48,114,0
0,35,112,0
0,35,0,1
0,36,0,20
0,48,0,12
0,48,127,15
0,60,125,0
0,72,0,15
0,48,0,5
0,60,0,18
0,75,110,9
0,44,127,1
0,44,119,0
0,35,127,0
0,35,0,1
0,44,0,16
0,44,0,6
0,75,0,15
0,77,102,9
0,56,104,1
0,56,0,29
0,44,127,19
0,56,127,0
0,35,116,0
0,35,0,1
0,44,0,15
0,56,0,16
0,44,127,16
0,60,127,0
0,77,0,14
0,44,0,3
0,60,0,15
0,75,101,14
0,43,123,2
0,43,111,0
0,35,116,0
0,35,0,1
0,43,0,16
0,43,0,1
0,75,0,24
0,74,86,5
0,43,123,1
0,43,123,0
0,43,0,22
0,43,0,5
0,46,127,21
0,55,127,0
0,35,126,0
0,35,0,1
0,46,0,13
0,74,0,4
0,55,0,17
0,46,127,13
0,60,127,0
0,72,91,1
0,46,0,17
0,72,0,11
0,60,0,5
0,75,104,13
0,36,120,1
0,36,127,0
0,36,120,0
0,35,127,0
0,48,127,0
0,35,0,1
0,48,0,15
0,36,0,2
0,36,0,12
0,75,0,5
0,36,0,6
0,36,127,7
0,75,89,1
0,36,0,19
0,75,0,15
0,72,87,12
0,48,126,1
0,60,115,0
0,48,120,0
0,35,124,0
0,35,0,1
0,48,0,19
0,48,0,1
0,60,0,6
0,72,0,17
0,36,127,4
0,60,127,0
0,48,117,0
0,75,101,1
0,36,0,19
0,48,0,4
0,60,0,9
0,51,115,15
0,35,126,0
0,35,0,1
0,51,0,28
0,75,0,17
0,48,127,2
0,63,127,0
0,48,0,17
0,63,0,9
0,36,124,22
0,48,113,0
0,35,121,0
0,35,0,1
0,75,110,0
0,36,0,17
0,48,0,14
0,75,0,10
0,48,127,6
0,60,125,0
0,72,91,0
0,48,0,19
0,72,0,9
0,60,0,0
0,44,125,20
0,44,117,0
0,35,121,0
0,35,0,1
0,75,99,0
0,44,0,17
0,44,0,0
0,75,0,12
0,77,104,17
0,56,103,1
0,56,0,28
0,44,127,20
0,56,127,0
0,35,112,0
0,35,0,1
0,44,0,11
0,56,0,18
0,44,127,18
0,60,127,0
0,44,0,16
0,77,0,8
0,60,0,7
0,75,101,16
0,43,117,1
0,43,119,0
0,35,116,0
0,35,0,1
0,43,0,17
0,43,0,0
0,75,0,21
0,74,87,8
0,43,126,1
0,43,116,0
0,43,0,22
0,43,0,1
0,46,127,25
0,55,127,0
0,35,127,0
0,35,0,1
0,46,0,12
0,55,0,8
0,74,0,10
0,46,127,17
0,60,127,0
0,46,0,16
0,60,0,13
0,36,127,19
0,36,127,0
0,36,127,0
0,75,104,0
0,35,127,0
0,48,127,0
0,35,0,1
0,36,0,16
0,48,0,2
0,36,0,4
0,36,0,2
0,36,123,23
0,36,0,18
0,75,0,5
0,72,86,24
0,48,125,1
0,60,127,0
0,48,114,0
0,35,123,0
0,35,0,1
0,60,0,20
0,48,0,0
0,48,0,4
0,72,0,21
0,75,99,1
0,36,127,1
0,60,127,0
0,48,113,0
0,36,0,22
0,60,0,8
0,48,0,1
0,51,105,17
0,35,125,0
0,35,0,1
0,51,0,26
0,75,0,6
0,48,127,15
0,63,127,0
0,72,95,1
0,48,0,20
0,63,0,6
0,36,127,21
0,48,114,0
0,35,124,0
0,35,0,1
0,36,0,20
0,48,0,12
0,72,0,15
0,48,127,0
0,60,125,0
0,48,0,20
0,60,0,18
0,75,116,9
0,44,127,1
0,44,119,0
0,35,127,0
0,35,0,1
0,44,0,16
0,44,0,6
0,75,0,10
0,75,90,14
0,56,104,1
0,56,0,29
0,75,0,4
0,77,98,14
0,44,127,1
0,56,127,0
0,35,127,0
0,35,0,1
0,44,0,15
0,56,0,16
0,77,0,12
0,44,127,4
0,60,127,0
0,75,102,1
0,44,0,16
0,60,0,15
0,43,123,16
0,43,111,0
0,35,127,0
0,35,0,1
0,43,0,16
0,43,0,1
0,75,0,30
0,43,123,0
0,43,123,0
0,74,108,1
0,43,0,21
0,43,0,5
0,46,127,21
0,55,127,0
0,35,127,0
0,35,0,1
0,46,0,13
0,55,0,21
0,46,127,13
0,60,127,0
0,74,0,10
0,46,0,8
0,60,0,16
0,36,120,14
0,36,127,0
0,36,120,0
0,35,127,0
0,48,127,0
0,35,0,1
0,75,104,0
0,67,78,0
0,48,0,13
0,36,0,3
0,36,0,12
0,75,0,5
0,36,0,6
0,67,0,7
0,36,127,0
0,75,89,1
0,67,65,0
0,36,0,19
0,75,0,18
0,67,0,9
0,63,69,0
0,48,126,1
0,60,115,0
0,48,120,0
0,35,117,0
0,35,0,1
0,72,100,0
0,48,0,19
0,48,0,1
0,60,0,6
0,36,127,21
0,60,127,0
0,48,117,0
0,72,0,10
0,36,0,10
0,48,0,4
0,60,0,9
0,51,115,15
0,75,113,0
0,35,119,0
0,35,0,1
0,63,0,0
0,67,80,0
0,51,0,28
0,48,127,19
0,63,127,0
0,48,0,17
0,75,0,5
0,63,0,4
0,67,0,21
0,72,91,0
0,63,63,0
0,36,124,1
0,48,113,0
0,35,120,0
0,35,0,1
0,36,0,17
0,48,0,14
0,72,0,8
0,48,127,8
0,60,125,0
0,63,0,1
0,75,99,0
0,67,82,0
0,48,0,18
0,60,0,9
0,44,125,20
0,44,117,0
0,35,121,0
0,35,0,1
0,44,0,17
0,44,0,0
0,75,0,14
0,67,0,16
0,56,103,0
0,65,72,0
0,72,94,1
0,56,0,27
0,44,127,20
0,56,127,0
0,35,114,0
0,35,0,1
0,44,0,11
0,56,0,18
0,44,127,18
0,60,127,0
0,44,0,16
0,60,0,15
0,43,117,17
0,43,119,0
0,35,117,0
0,35,0,1
0,72,0,4
0,43,0,13
0,43,0,0
0,43,126,30
0,43,116,0
0,43,0,22
0,43,0,1
0,65,0,25
0,46,127,0
0,55,127,0
0,35,119,0
0,35,0,1
0,46,0,12
0,55,0,8
0,46,127,27
0,60,127,0
0,46,0,16
0,60,0,13
0,67,78,18
0,36,127,1
0,36,127,0
0,36,127,0
0,75,116,0
0,35,127,0
0,48,127,0
0,35,0,1
0,48,0,13
0,36,0,3
0,36,0,6
0,36,0,2
0,75,0,6
0,67,0,15
0,75,94,1
0,67,68,0
0,36,123,1
0,36,0,18
0,75,0,13
0,67,0,16
0,72,98,0
0,63,61,0
0,48,125,1
0,60,127,0
0,48,114,0
0,35,126,0
0,35,0,1
0,48,0,20
0,60,0,0
0,48,0,4
0,36,127,23
0,60,127,0
0,48,113,0
0,72,0,16
0,36,0,6
0,60,0,8
0,48,0,1
0,63,0,17
0,51,105,0
0,67,70,0
0,35,126,0
0,35,0,1
0,75,116,0
0,75,0,26
0,51,0,0
0,67,0,20
0,48,127,1
0,63,127,0
0,67,76,0
0,75,91,1
0,48,0,20
0,63,0,6
0,75,0,4
0,67,0,16
0,72,96,0
0,63,55,0
0,36,127,1
0,48,114,0
0,35,124,0
0,35,0,1
0,36,0,20
0,48,0,12
0,72,0,4
0,63,0,10
0,67,76,0
0,48,127,1
0,60,125,0
0,75,99,0
0,48,0,20
0,60,0,18
0,44,127,10
0,44,119,0
0,35,127,0
0,35,0,1
0,44,0,16
0,75,0,4
0,44,0,2
0,67,0,25
0,56,104,0
0,68,80,0
0,77,100,1
0,56,0,28
0,44,127,19
0,56,127,0
0,35,116,0
0,35,0,1
0,44,0,15
0,56,0,16
0,44,127,16
0,60,127,0
0,44,0,17
0,77,0,5
0,60,0,10
0,68,0,15
0,75,99,0
0,67,72,0
0,43,123,1
0,43,111,0
0,35,116,0
0,35,0,1
0,43,0,16
0,43,0,1
0,75,0,28
0,74,87,1
0,67,0,1
0,43,123,0
0,43,123,0
0,65,74,0
0,43,0,22
0,43,0,5
0,46,127,21
0,55,127,0
0,35,126,0
0,35,0,1
0,46,0,13
0,55,0,21
0,46,127,13
0,60,127,0
0,74,0,3
0,46,0,15
0,60,0,16
0,36,120,14
0,36,127,0
0,36,120,0
0,35,127,0
0,48,127,0
0,35,0,1
0,65,0,0
0,75,116,0
0,67,80,0
0,48,0,15
0,36,0,2
0,36,0,12
0,75,0,2
0,36,0,9
0,75,93,6
0,67,0,1
0,36,127,0
0,67,65,1
0,36,0,19
0,75,0,18
0,67,0,9
0,72,97,0
0,63,63,0
0,48,126,1
0,60,115,0
0,48,120,0
0,35,124,0
0,35,0,1
0,48,0,19
0,48,0,1
0,60,0,6
0,36,127,21
0,60,127,0
0,48,117,0
0,72,0,19
0,36,0,1
0,48,0,4
0,60,0,9
0,51,115,15
0,35,126,0
0,35,0,1
0,63,0,0
0,75,113,0
0,67,68,0
0,51,0,28
0,75,0,7
0,67,0,10
0,67,65,1
0,48,127,1
0,63,127,0
0,75,94,1
0,48,0,16
0,63,0,9
0,75,0,8
0,67,0,12
0,63,55,0
0,72,97,1
0,36,124,1
0,48,113,0
0,35,121,0
0,35,0,1
0,36,0,17
0,48,0,14
0,72,0,9
0,63,0,7
0,48,127,0
0,60,125,0
0,67,76,0
0,75,101,1
0,48,0,18
0,60,0,9
0,44,125,20
0,44,117,0
0,35,127,0
0,35,0,1
0,44,0,17
0,44,0,0
0,75,0,21
0,67,0,8
0,65,72,0
0,56,103,1
0,72,108,2
0,56,0,26
0,44,127,20
0,56,127,0
0,35,115,0
0,35,0,1
0,44,0,11
0,56,0,18
0,44,127,18
0,60,127,0
0,44,0,16
0,60,0,15
0,72,0,17
0,43,117,0
0,43,119,0
0,35,117,0
0,35,0,1
0,43,0,17
0,43,0,0
0,43,126,30
0,43,116,0
0,43,0,22
0,43,0,1
0,46,127,25
0,55,127,0
0,35,117,0
0,35,0,1
0,65,0,1
0,46,0,11
0,55,0,8
0,46,127,27
0,60,127,0
0,46,0,16
0,60,0,13
0,75,110,18
0,67,80,0
0,36,127,1
0,36,127,0
0,36,127,0
0,35,127,0
0,48,127,0
0,35,0,1
0,36,0,16
0,48,0,2
0,36,0,4
0,36,0,2
0,75,0,6
0,67,0,15
0,75,84,1
0,67,62,0
0,36,123,1
0,36,0,18
0,75,0,15
0,67,0,14
0,63,61,0
0,48,125,1
0,60,127,0
0,48,114,0
0,72,97,0
0,35,116,0
0,35,0,1
0,48,0,20
0,60,0,0
0,48,0,4
0,36,127,23
0,60,127,0
0,48,113,0
0,72,0,13
0,36,0,9
0,60,0,8
0,48,0,1
0,51,105,17
0,35,117,0
0,35,0,1
0,63,0,0
0,75,110,0
0,67,80,0
0,51,0,26
0,48,127,21
0,63,127,0
0,75,0,17
0,48,0,4
0,63,0,6
0,67,0,20
0,72,86,0
0,63,65,0
0,36,127,1
0,48,114,0
0,35,116,0
0,35,0,1
0,36,0,20
0,48,0,12
0,72,0,4
0,63,0,10
0,75,99,0
0,67,80,0
0,48,127,1
0,60,125,0
0,48,0,20
0,60,0,18
0,44,127,10
0,44,119,0
0,35,127,0
0,35,0,1
0,44,0,16
0,44,0,6
0,75,0,17
0,67,0,8
0,56,104,0
0,68,77,0
0,77,106,1
0,56,0,28
0,44,127,19
0,56,127,0
0,35,117,0
0,35,0,1
0,44,0,15
0,56,0,16
0,44,127,16
0,60,127,0
0,44,0,17
0,77,0,3
0,60,0,12
0,75,104,14
