track,note,velocity,time
1,66,66,2672
1,54,60,0
1,57,61,8
1,69,66,0
1,66,60,12
1,54,60,0
1,57,61,0
1,69,62,4
1,62,61,8
1,71,67,0
1,66,60,12
1,69,62,24
1,64,60,0
1,60,67,8
1,62,62,0
1,71,62,0
1,66,64,4
1,60,63,16
1,64,54,4
1,69,62,0
1,62,61,16
1,66,60,0
1,71,59,0
1,60,64,16
1,69,62,0
1,64,53,4
1,71,56,4
1,62,64,0
1,66,57,8
1,60,63,4
1,64,55,8
1,69,60,0
1,67,66,8
1,62,64,0
1,71,66,0
1,64,68,3072
1,62,63,20
1,64,64,8
1,72,67,36
1,64,67,0
1,67,60,4
1,69,62,0
1,62,63,4
1,66,62,0
1,71,57,12
1,66,51,0
1,62,59,0
1,64,58,12
1,60,64,4
1,67,59,0
1,60,60,4
1,64,65,0
1,67,63,0
1,72,66,748
1,71,65,24
1,62,62,4
1,69,64,0
1,66,64,12
1,62,67,0
1,71,67,0
1,66,61,4
1,71,66,0
1,67,67,4
1,64,71,0
1,66,63,296
1,62,67,0
1,71,64,0
1,69,66,0
1,64,60,4
1,60,64,4
1,71,64,16
1,62,66,4
1,66,59,0
1,69,66,0
1,64,57,8
1,60,61,4
1,71,62,12
1,62,62,0
1,66,59,0
1,64,55,12
1,69,64,0
1,60,63,4
1,71,66,12
1,62,56,4
1,66,61,0
1,69,62,4
1,60,64,4
1,64,53,0
1,55,65,512
1,59,68,308
1,62,69,452
1,67,67,380
1,62,59,180
1,67,63,4
1,62,62,12
1,67,60,204
1,67,67,24
1,62,60,200
1,67,67,68
1,62,64,4
1,67,67,204
1,55,68,356
1,59,67,380
1,66,65,380
1,64,67,192
1,67,67,192
1,64,64,176
1,67,67,88
1,64,66,92
1,67,65,140
1,67,65,60
1,64,63,200
1,67,66,4
1,64,65,80
1,67,68,28
1,55,65,336
1,59,60,316
1,62,66,388
1,67,64,80
1,62,63,176
1,67,64,68
1,62,62,28
1,67,65,176
1,67,66,44
1,62,59,196
1,67,69,4
1,62,64,0
1,67,68,192
1,55,67,364
1,59,63,384
1,66,65,380
1,64,62,200
1,67,68,172
1,64,64,12
1,67,65,92
1,64,62,24
1,67,65,180
1,67,66,28
1,64,61,200
1,67,66,76
1,64,63,64
1,67,66,180
1,72,64,40
1,67,62,0
1,64,68,0
1,66,61,0
1,62,62,12
1,69,66,0
1,66,60,0
1,71,59,0
1,62,61,12
1,60,47,16
1,64,62,0
1,67,63,0
1,72,62,2304
1,71,60,384
1,62,59,0
1,66,59,4
1,69,65,4
1,71,62,0
1,66,54,0
1,62,68,4
1,64,66,4
1,71,64,0
1,67,62,0
1,55,60,0
1,64,73,0
1,59,64,0
1,60,67,0
1,64,70,64
1,59,68,0
1,67,68,0
1,67,61,12
1,60,67,4
1,64,67,0
1,59,66,20
1,64,64,0
1,67,64,0
1,60,67,20
1,64,65,4
1,67,64,0
1,64,64,16
1,67,65,0
1,60,70,0
1,69,64,0
1,66,68,4
1,62,66,0
1,66,63,16
1,59,67,0
1,62,65,0
1,64,67,20
1,60,67,4
1,59,68,0
1,66,60,356
1,62,66,0
1,71,57,0
1,69,60,12
1,60,67,0
1,64,60,4
1,62,64,16
1,71,61,4
1,66,62,0
1,60,63,4
1,69,62,0
1,64,57,4
1,67,64,16
1,62,57,0
1,71,62,0
1,62,60,40
1,62,60,20
1,62,63,36
1,62,65,20
1,67,60,28
1,71,59,0
1,62,61,16
1,62,60,12
1,62,63,20
1,71,72,128
1,67,67,172
1,66,62,52
1,64,65,48
1,64,65,4
1,71,67,176
1,67,63,168
1,66,62,36
1,64,64,16
1,64,60,24
1,71,65,180
1,67,63,96
1,66,60,44
1,64,66,16
1,64,61,8
1,71,67,256
1,67,66,184
1,66,58,48
1,64,65,16
1,64,66,16
1,67,65,12
1,71,67,4
1,62,62,380
1,62,57,16
1,62,61,4
1,62,63,12
1,71,58,12
1,67,65,0
1,62,58,32
1,62,62,20
1,62,63,16
1,71,68,156
1,67,65,180
1,66,61,52
1,64,64,8
1,64,58,4
1,71,58,188
1,67,64,140
1,66,61,44
1,64,62,32
1,64,63,20
1,71,62,188
1,67,64,156
1,66,62,40
1,64,63,40
1,64,62,4
1,71,62,188
1,67,65,164
1,66,63,56
1,64,64,28
1,64,62,20
1,67,65,0
1,71,64,0
1,62,59,384
1,62,61,16
1,62,64,12
1,62,64,28
1,67,61,32
1,71,64,4
1,62,58,16
1,62,61,16
1,62,58,16
1,71,69,8
1,67,62,172
1,66,62,56
1,64,64,64
1,64,64,8
1,71,66,192
1,67,65,120
1,66,61,48
1,64,64,52
1,64,64,8
1,71,68,188
1,67,65,148
1,66,63,60
1,64,65,24
1,64,65,20
1,71,68,188
1,67,64,160
1,66,61,64
1,64,66,8
1,64,62,4
1,67,68,32
1,71,68,4
1,62,58,380
1,62,61,4
1,62,61,12
1,62,67,12
1,67,59,16
1,71,62,0
1,62,58,12
1,62,60,16
1,62,65,12
1,71,70,44
1,67,62,144
1,66,61,28
1,64,66,32
1,64,64,20
1,71,66,188
1,67,64,148
1,66,61,52
1,64,64,20
1,64,56,20
1,71,63,188
1,67,63,168
1,66,63,68
1,64,64,16
1,64,64,20
1,71,72,188
1,67,66,152
1,66,63,60
1,64,63,12
1,64,64,20
1,71,67,188
1,67,65,4
1,62,59,368
1,62,61,16
1,62,59,12
1,62,63,12
1,67,61,4
1,71,63,4
1,62,57,12
1,62,62,16
1,62,62,4
1,71,64,4
1,67,64,176
1,66,61,32
1,64,59,88
1,64,64,4
1,71,68,180
1,67,65,176
1,66,59,72
1,64,66,56
1,64,65,16
1,71,63,188
1,67,65,168
1,66,60,56
1,64,64,60
1,64,63,16
1,71,65,188
1,67,64,168
1,66,60,80
1,64,65,44
1,64,63,12
1,67,66,12
1,71,65,0
1,62,59,384
1,62,61,4
1,62,62,16
1,62,64,4
1,71,64,16
1,67,63,4
1,62,59,28
1,62,60,20
1,62,62,12
1,71,68,4
1,67,66,188
1,66,64,52
1,64,66,60
1,64,64,16
1,71,60,180
1,67,63,176
1,66,61,76
1,64,64,64
1,64,67,16
1,71,58,176
1,67,63,184
1,66,59,40
1,64,64,44
1,64,61,16
1,71,61,196
1,67,64,152
1,66,60,96
1,64,65,44
1,64,64,12
1,67,66,192
1,71,66,0
1,62,58,380
1,62,59,12
1,62,59,16
1,62,59,20
1,62,60,16
1,62,63,32
1,62,64,12
1,71,65,212
1,67,63,172
1,66,59,24
1,64,64,68
1,64,66,16
1,71,62,192
1,67,64,164
1,66,61,64
1,64,65,68
1,64,62,20
1,71,64,188
1,67,64,0
1,66,59,44
1,64,64,12
1,64,63,20
1,71,61,36
1,67,64,52
1,66,62,24
1,64,66,4
1,64,63,4
1,67,65,24
1,71,67,0
1,62,60,48
1,62,59,16
1,62,62,16
1,62,64,16
1,67,62,4
1,71,64,0
1,62,61,20
1,62,63,4
1,62,64,16
1,71,64,8
1,67,64,0
1,66,61,24
1,64,65,0
1,64,66,12
1,71,64,28
1,67,65,40
1,66,61,24
1,64,64,32
1,64,60,4
1,71,62,12
1,67,60,28
1,66,61,4
1,64,65,24
1,64,64,0
1,71,61,4
1,67,65,16
1,66,60,48
1,64,66,24
1,64,67,12
1,67,63,60
1,71,60,0
1,62,56,4
2,35,105,2652
2,30,87,60
2,33,101,60
2,30,84,48
2,33,103,56
2,30,92,32
2,33,98,288
2,35,102,84
2,33,95,44
2,30,92,72
2,33,96,92
2,35,102,84
2,33,99,76
2,38,98,88
2,40,102,72
2,33,99,116
2,33,96,104
2,33,98,92
2,31,97,100
2,33,103,108
2,31,101,68
2,31,100,260
2,33,99,128
2,33,96,104
2,33,98,100
2,31,97,88
2,33,103,112
2,31,102,84
2,28,91,96
2,35,107,208
2,30,89,64
2,33,102,76
2,30,87,76
2,35,103,108
2,30,94,64
2,30,90,292
2,35,104,108
2,30,85,40
2,33,102,64
2,30,97,60
2,38,105,124
2,35,99,72
2,33,98,96
2,35,106,64
2,33,103,104
2,31,96,60
2,28,98,104
2,31,99,84
2,33,105,108
2,31,102,68
2,31,103,296
2,33,107,112
2,31,97,84
2,28,97,104
2,31,97,96
2,33,107,116
2,31,101,96
2,28,105,108
2,35,103,268
2,30,95,100
2,33,101,72
2,30,92,96
2,35,102,84
2,30,89,96
2,33,100,80
2,30,91,100
2,35,100,100
2,30,91,92
2,33,100,80
2,30,100,84
2,38,102,104
2,35,98,88
2,33,95,112
2,35,102,72
2,33,98,128
2,31,93,72
2,28,93,120
2,31,96,88
2,33,102,120
2,31,94,84
2,28,92,112
2,31,96,116
2,33,101,108
2,31,97,84
2,28,93,112
2,31,95,104
2,33,101,104
2,31,98,92
2,28,97,116
2,31,103,100
2,35,102,128
2,33,94,104
2,30,92,108
2,33,99,80
2,35,101,120
2,33,94,92
2,30,91,108
2,33,97,68
2,35,98,108
2,33,93,100
2,30,93,100
2,33,97,52
2,38,108,76
2,35,97,76
2,33,95,92
2,35,102,80
2,33,98,100
2,31,95,64
2,28,92,100
2,31,97,100
2,33,100,120
2,31,98,100
2,28,92,96
2,31,96,96
2,33,99,112
2,31,94,92
2,28,92,104
2,31,96,104
2,33,98,116
2,31,95,92
2,28,94,100
2,31,98,84
2,35,100,116
2,30,87,104
2,33,90,76
2,30,90,108
2,35,98,88
2,30,88,104
2,33,96,60
2,30,89,108
2,35,100,96
2,30,87,104
2,33,97,64
2,30,93,108
2,35,98,80
2,30,90,100
2,33,96,84
2,30,98,96
2,33,96,108
2,31,97,84
2,28,90,104
2,31,94,92
2,33,97,104
2,31,93,104
2,28,91,100
2,31,93,100
2,33,97,116
2,31,96,96
2,28,94,88
2,31,97,96
2,33,97,120
2,31,95,116
2,28,92,96
2,31,100,80
2,35,103,88
2,38,98,108
2,35,98,84
2,33,99,88
2,35,97,112
2,30,92,76
2,33,98,92
2,30,95,96
2,35,98,108
2,30,89,116
2,33,98,80
2,30,91,96
2,38,101,88
2,35,96,104
2,33,92,112
2,30,97,112
2,33,102,108
2,31,91,104
2,28,91,120
2,31,92,104
2,33,99,108
2,31,90,80
2,28,89,108
2,31,90,120
2,33,102,104
2,31,92,88
2,28,91,124
2,31,94,84
2,33,101,120
2,31,95,100
2,28,95,108
2,31,101,88
2,31,104,124
2,31,97,100
2,31,96,108
2,31,92,100
2,31,93,96
2,31,94,104
2,31,94,104
2,31,92,108
2,31,96,116
2,31,94,116
2,31,95,116
2,31,94,116
2,31,96,120
2,31,97,108
2,35,100,88
2,38,97,196
2,40,97,76
2,40,94,88
2,40,98,92
2,40,96,88
2,40,99,92
2,40,100,104
2,35,100,88
2,38,104,52
2,40,104,100
2,35,100,100
2,38,102,12
2,35,106,8
2,40,100,116
2,38,98,96
2,35,94,8
2,33,100,188
2,31,98,72
2,31,92,120
2,31,95,124
2,31,94,100
2,31,96,112
2,31,88,104
2,31,95,120
2,31,92,108
2,31,96,108
2,31,82,120
2,31,95,124
2,31,90,112
2,33,95,96
2,33,95,120
2,35,102,108
2,38,101,12
2,40,97,116
2,40,96,132
2,40,97,124
2,40,95,112
2,40,96,112
2,40,98,120
2,38,102,108
2,35,91,24
2,40,105,108
2,35,101,84
2,38,102,28
2,35,97,0
2,40,106,116
2,38,105,104
2,35,95,16
2,38,104,16
2,36,102,72
2,36,97,100
2,36,98,96
2,36,98,96
2,36,104,104
2,35,102,76
2,33,101,184
2,36,107,4
2,38,106,64
2,38,108,104
2,38,106,92
2,35,106,60
2,33,105,80
2,31,105,88
2,30,103,72
2,33,109,56
2,35,95,64
2,35,94,76
2,35,96,72
2,35,97,72
2,35,99,76
2,33,100,64
2,30,97,52
2,33,101,48
2,36,101,40
2,36,95,104
2,36,98,104
2,36,97,84
2,36,100,84
2,33,101,72
2,31,98,80
2,33,100,64
2,36,103,88
2,36,98,92
2,36,99,92
2,36,98,88
2,36,101,84
2,33,102,76
2,31,99,80
2,36,107,72
2,38,97,48
2,38,97,84
2,38,99,88
2,38,99,76
2,38,98,76
2,35,102,60
2,33,95,28
2,38,101,56
2,35,101,32
2,35,98,76
2,35,100,76
2,30,92,44
2,33,102,52
2,33,98,68
2,35,102,20
2,36,107,260
2,35,103,200
2,30,95,100
2,33,101,72
2,30,92,96
2,35,102,84
2,30,89,96
2,33,100,80
2,30,91,100
2,35,100,100
2,30,91,92
2,33,100,80
2,30,100,84
2,38,102,104
2,35,98,88
2,33,95,112
2,35,102,72
2,33,98,128
2,31,93,72
2,28,93,120
2,31,96,88
2,33,102,120
2,31,94,84
2,28,92,112
2,31,96,116
2,33,101,108
2,31,97,84
2,28,93,112
2,31,95,104
2,33,101,104
2,31,98,92
2,28,97,116
2,31,103,100
2,35,102,128
2,33,94,104
2,30,92,108
2,33,99,80
2,35,101,120
2,33,94,92
2,30,91,108
2,33,97,68
2,35,98,108
2,33,93,100
2,30,93,100
2,33,97,52
2,38,108,76
2,35,97,76
2,33,95,92
2,35,102,80
2,33,98,100
2,31,95,64
2,28,92,100
2,31,97,100
2,33,100,120
2,31,98,100
2,28,92,96
2,31,96,96
2,33,99,112
2,31,94,92
2,28,92,104
2,31,96,104
2,33,98,116
2,31,95,92
2,28,94,100
2,31,98,84
2,35,100,116
2,30,87,104
2,33,90,76
2,30,90,108
2,35,98,88
2,30,88,104
2,33,96,60
2,30,89,108
2,35,100,96
2,30,87,104
2,33,97,64
2,30,93,108
2,35,98,80
2,30,90,100
2,33,96,84
2,30,98,96
2,33,96,108
2,31,97,84
2,28,90,104
2,31,94,92
2,33,97,104
2,31,93,104
2,28,91,100
2,31,93,100
2,33,97,116
2,31,96,96
2,28,94,88
2,31,97,96
2,33,97,120
2,31,95,116
2,28,92,96
2,31,100,80
2,35,103,88
2,38,98,108
2,35,98,84
2,33,99,88
2,35,97,112
2,30,92,76
2,33,98,92
2,30,95,96
2,35,98,108
2,30,89,116
2,33,98,80
2,30,91,96
2,38,101,88
2,35,96,104
2,33,92,112
2,30,97,112
2,33,102,108
2,31,91,104
2,28,91,120
2,31,92,104
2,33,99,108
2,31,90,80
2,28,89,108
2,31,90,120
2,33,102,104
2,31,92,88
2,28,91,124
2,31,94,84
2,33,101,120
2,31,95,100
2,28,95,108
2,31,101,88
2,31,104,124
2,31,94,116
2,31,93,108
2,31,94,104
2,31,95,108
2,31,90,92
2,31,95,104
2,31,90,100
2,31,92,108
2,31,91,100
2,31,92,100
2,31,90,104
2,35,100,112
2,35,97,108
2,35,100,104
2,38,100,80
2,40,98,92
2,40,93,104
2,40,94,92
2,40,94,88
2,40,96,100
2,40,94,96
2,40,98,100
2,40,102,84
2,35,98,24
2,40,99,16
2,40,102,120
2,40,100,28
2,38,100,92
2,35,104,184
2,38,101,112
2,38,102,112
2,38,92,12
2,35,100,4
2,33,102,192
2,31,106,104
2,31,96,100
2,31,96,112
2,31,91,100
2,31,97,104
2,31,91,104
2,31,96,112
2,31,88,104
2,31,96,104
2,31,88,108
2,31,94,112
2,31,95,100
2,33,97,92
2,35,97,96
2,35,99,100
2,36,98,8
2,38,107,100
2,40,101,104
2,40,95,116
2,40,97,104
2,40,95,120
2,40,96,112
2,40,100,96
2,38,98,36
2,35,102,4
2,40,102,108
2,40,102,100
2,38,97,16
2,35,96,0
2,38,98,8
2,38,102,108
2,35,95,20
2,38,102,20
2,36,102,56
2,36,98,120
2,36,102,116
2,33,91,20
2,36,98,64
2,36,98,104
2,33,98,36
2,36,101,200
2,38,109,112
2,33,102,92
2,31,101,96
2,30,95,52
2,33,98,44
2,31,100,88
2,30,98,64
2,30,98,64
2,31,98,184
2,33,100,188
2,35,102,100
2,35,89,76
2,35,92,80
2,35,92,72
2,35,94,80
2,35,91,64
2,35,96,72
2,35,97,60
2,36,104,56
2,36,101,120
2,36,102,104
2,36,102,120
2,33,96,24
2,36,101,96
2,36,103,120
2,33,105,100
2,36,100,40
2,33,102,16
2,36,107,36
2,36,102,116
2,36,98,108
2,36,102,104
2,33,98,12
2,36,98,92
2,36,100,100
