track,note,velocity,time
1,59,84,347
1,43,70,0
1,59,0,58
1,57,71,2
1,57,0,58
1,43,0,0
1,50,67,2
1,43,49,60
1,43,0,3
1,40,70,2
1,50,0,33
1,55,76,2
1,55,0,58
1,52,68,2
1,52,0,58
1,40,0,0
1,62,83,2
1,47,58,0
1,62,0,45
1,54,56,2
1,57,82,60
1,64,95,60
1,64,0,58
1,57,0,0
1,54,0,0
1,54,44,62
1,54,0,58
1,47,0,0
1,57,95,2
1,57,0,58
1,47,73,2
1,47,0,58
1,59,73,2
1,43,41,0
1,59,0,28
1,57,67,2
1,57,0,58
1,43,0,0
1,50,85,2
1,43,76,60
1,43,0,8
1,40,70,2
1,50,0,35
1,55,82,2
1,55,0,58
1,52,84,2
1,57,46,56
1,52,0,2
1,40,0,0
1,59,77,3
1,47,70,2
1,62,85,2
1,66,66,10
1,59,0,196
1,66,0,3
1,57,0,2
1,62,0,1
1,47,0,2
1,59,78,4
1,43,62,0
1,59,0,27
1,57,65,2
1,57,0,58
1,43,0,0
1,50,77,2
1,43,63,60
1,43,0,21
1,40,85,2
1,50,0,48
1,55,75,2
1,55,0,58
1,52,76,2
1,52,0,58
1,40,0,0
1,47,58,2
1,62,74,0
1,62,0,47
1,54,53,2
1,57,80,60
1,64,90,60
1,64,0,58
1,57,0,0
1,54,0,0
1,54,19,62
1,54,0,58
1,47,0,0
1,57,80,2
1,57,0,58
1,47,56,2
1,47,0,10
1,59,67,2
1,43,65,0
1,59,0,37
1,57,61,2
1,57,0,58
1,43,0,0
1,50,87,2
1,43,80,60
1,43,0,17
1,40,90,2
1,50,0,40
1,55,89,2
1,55,0,58
1,52,80,2
1,52,0,58
1,40,0,0
1,47,61,2
1,62,95,0
1,62,0,55
1,54,69,2
1,57,92,60
1,64,92,60
1,64,0,58
1,57,0,0
1,54,0,0
1,54,33,62
1,54,0,58
1,47,0,0
1,57,98,2
1,57,0,58
1,47,62,2
1,47,0,13
1,59,76,2
1,43,80,0
1,59,0,35
1,57,55,2
1,57,0,58
1,43,0,0
1,50,77,2
1,43,76,60
1,43,0,23
1,40,75,2
1,50,0,43
1,55,79,2
1,55,0,58
1,52,72,2
1,52,0,58
1,40,0,0
1,62,86,2
1,47,68,0
1,62,0,50
1,54,69,2
1,57,82,60
1,64,83,60
1,57,0,58
1,54,0,0
1,64,0,60
1,54,52,2
1,54,0,58
1,47,0,0
1,57,98,2
1,57,0,58
1,47,72,2
1,47,0,5
1,43,72,2
1,59,71,0
1,59,0,30
1,57,59,2
1,57,0,58
1,43,0,0
1,50,84,2
1,43,67,60
1,43,0,31
1,40,84,2
1,50,0,48
1,55,84,2
1,55,0,58
1,52,82,2
1,52,0,58
1,40,0,0
1,62,83,2
1,47,62,0
1,62,0,48
1,54,65,2
1,57,93,60
1,54,0,58
1,64,98,2
1,64,0,58
1,57,0,0
1,47,0,0
1,54,57,62
1,54,0,58
1,57,89,2
1,47,69,0
1,57,0,58
1,47,0,3
1,52,80,2
1,67,75,0
1,64,75,32
1,64,0,58
1,52,0,0
1,59,66,2
1,52,71,60
1,52,0,18
1,67,0,0
1,66,56,2
1,51,62,0
1,59,0,40
1,63,61,2
1,63,0,58
1,66,0,0
1,59,72,2
1,51,0,58
1,67,84,2
1,52,70,0
1,59,0,45
1,64,77,2
1,64,0,58
1,67,0,0
1,59,62,2
1,59,0,58
1,52,0,0
1,67,90,2
1,49,59,0
1,64,75,48
1,64,0,58
1,49,0,0
1,67,0,0
1,59,73,2
1,59,0,58
1,52,82,32
1,45,70,0
1,57,91,3
1,60,76,12
1,57,0,2
1,52,0,11
1,52,73,21
1,57,86,59
1,60,0,6
1,60,77,51
1,52,0,22
1,52,76,31
1,57,0,10
1,57,80,55
1,60,0,22
1,45,0,33
1,60,74,8
1,57,0,20
1,52,0,7
1,60,0,6
1,45,72,26
1,45,0,26
1,57,21,17
1,54,22,2
1,60,92,3
1,50,63,5
1,64,80,5
1,60,0,150
1,57,0,2
1,54,0,6
1,64,0,9
1,50,0,7
1,48,84,15
1,64,89,2
1,55,76,43
1,60,83,60
1,48,0,6
1,48,86,54
1,60,0,2
1,64,0,5
1,47,76,22
1,48,0,2
1,62,82,0
1,55,0,6
1,55,77,38
1,62,0,8
1,59,86,48
1,55,0,9
1,59,0,4
1,60,91,44
1,47,0,8
1,45,60,1
1,52,92,48
1,57,64,64
1,60,0,27
1,60,95,34
1,57,0,11
1,52,0,7
1,60,0,43
1,52,81,1
1,52,0,10
1,45,0,42
1,50,93,5
1,52,65,28
1,50,0,2
1,45,78,20
1,55,98,0
1,52,0,3
1,50,89,48
1,55,0,3
1,50,0,8
1,60,69,10
1,64,84,2
1,48,77,0
1,45,0,4
1,55,57,43
1,60,0,1
1,60,81,65
1,48,0,8
1,60,0,40
1,55,0,4
1,48,76,2
1,64,0,5
1,55,71,26
1,59,71,9
1,48,0,5
1,47,65,3
1,62,71,3
1,55,0,13
1,59,0,36
1,55,71,3
1,62,0,6
1,59,69,47
1,59,0,10
1,55,0,2
1,52,79,28
1,57,79,12
1,60,88,4
1,47,0,1
1,45,42,2
1,52,0,21
1,52,77,21
1,57,0,15
1,57,79,45
1,60,0,20
1,60,89,47
1,52,0,22
1,57,0,32
1,60,0,1
1,52,74,3
1,52,0,10
1,45,0,46
1,50,86,5
1,52,68,26
1,50,0,8
1,55,86,17
1,45,86,1
1,52,0,3
1,50,83,46
1,55,0,1
1,50,0,7
1,55,82,39
1,60,71,3
1,48,62,2
1,45,0,8
1,64,71,0
1,55,0,7
1,60,0,30
1,55,78,1
1,60,84,66
1,48,0,8
1,55,0,46
1,60,0,1
1,48,93,0
1,64,0,3
1,55,73,28
1,59,71,2
1,48,0,7
1,47,67,4
1,62,74,7
1,55,0,15
1,59,0,34
1,62,0,5
1,55,63,2
1,59,79,54
1,55,0,11
1,59,0,3
1,52,89,26
1,57,72,11
1,47,0,4
1,45,70,2
1,60,75,0
1,52,0,24
1,52,79,24
1,57,0,9
1,57,86,48
1,60,0,26
1,60,88,34
1,57,0,12
1,52,0,6
1,60,0,37
1,52,89,1
1,52,0,8
1,50,91,51
1,45,0,4
1,52,81,24
1,50,0,13
1,45,95,17
1,55,92,2
1,52,0,4
1,55,0,45
1,50,84,1
1,50,0,11
1,59,77,37
1,54,51,5
1,45,0,3
1,64,48,0
1,42,72,3
1,54,0,1
1,54,68,33
1,59,0,2
1,59,87,59
1,64,0,22
1,42,0,3
1,42,85,39
1,54,0,29
1,54,62,1
1,47,70,2
1,42,0,7
1,63,64,1
1,54,0,11
1,54,71,31
1,59,0,9
1,63,0,20
1,59,88,29
1,63,90,60
1,59,0,11
1,54,0,1
1,52,95,9
1,47,0,3
1,63,0,13
1,55,63,40
1,59,86,25
1,55,0,12
1,50,96,17
1,52,0,4
1,59,0,36
1,55,72,4
1,59,75,26
1,50,0,10
1,55,0,2
1,49,90,4
1,59,0,6
1,55,82,4
1,49,0,45
1,59,75,15
1,55,0,3
1,59,0,10
1,64,97,54
1,64,0,6
1,52,61,497
1,57,72,14
1,45,69,18
1,60,90,1
1,52,0,8
1,57,0,1
1,57,73,34
1,60,0,50
1,52,95,4
1,57,0,4
1,52,0,7
1,45,0,16
1,57,30,25
1,54,40,4
1,50,64,1
1,60,73,1
1,64,84,7
1,60,0,71
1,57,0,5
1,54,0,8
1,64,0,1
1,50,0,10
1,59,86,5
1,43,79,0
1,59,0,27
1,57,74,2
1,57,0,58
1,43,0,0
1,50,80,2
1,43,71,60
1,43,0,18
1,40,63,2
1,50,0,42
1,55,82,2
1,55,0,58
1,52,82,2
1,52,0,58
1,40,0,0
1,62,77,2
1,47,67,0
1,62,0,46
1,54,67,2
1,57,99,60
1,64,90,60
1,64,0,58
1,57,0,0
1,54,0,0
1,54,56,62
1,54,0,58
1,47,0,0
1,57,98,2
1,57,0,58
1,47,49,2
1,47,0,8
1,59,77,2
1,43,63,0
1,59,0,33
1,57,69,2
1,57,0,58
1,43,0,0
1,50,81,2
1,43,56,60
1,43,0,22
1,40,73,2
1,50,0,43
1,55,87,2
1,55,0,58
1,52,83,2
1,52,0,58
1,40,0,0
1,47,75,2
1,62,95,0
1,62,0,51
1,54,55,2
1,57,94,60
1,64,97,60
1,64,0,58
1,57,0,0
1,54,0,0
1,54,39,62
1,54,0,58
1,47,0,0
1,57,90,2
1,57,0,58
1,47,65,2
1,47,0,8
1,59,82,2
1,43,21,0
1,59,0,33
1,57,70,2
1,57,0,58
1,43,0,0
1,50,86,2
1,43,75,60
1,43,0,28
1,40,73,2
1,50,0,48
1,55,86,2
1,55,0,58
1,52,69,2
1,52,0,58
1,40,0,0
1,62,75,2
1,47,59,0
1,62,0,50
1,54,57,2
1,57,95,60
1,64,100,60
1,64,0,58
1,57,0,0
1,54,0,0
1,54,57,62
1,54,0,58
1,47,0,0
1,57,86,2
1,57,0,58
1,47,78,2
1,47,0,18
1,43,77,2
1,59,80,0
1,59,0,38
1,57,67,2
1,57,0,58
1,43,0,0
1,50,88,2
1,43,79,60
1,43,0,22
1,40,86,2
1,50,0,47
1,55,75,2
1,55,0,58
1,52,85,2
1,52,0,58
1,40,0,0
1,47,72,2
1,62,92,0
1,62,0,55
1,54,72,2
1,57,79,60
1,64,94,60
1,64,0,58
1,47,0,0
1,54,0,0
1,57,0,0
1,54,59,62
1,54,0,58
1,57,95,2
1,47,74,0
1,57,0,58
1,47,0,2
1,52,72,2
1,67,79,0
1,64,82,25
1,64,0,58
1,52,0,0
1,59,76,2
1,67,0,58
1,52,75,2
1,52,0,20
1,59,0,0
1,51,66,2
1,66,67,0
1,66,0,43
1,63,69,2
1,63,0,58
1,59,70,2
1,59,0,58
1,51,0,0
1,67,87,2
1,52,73,0
1,59,2,57
1,64,82,55
1,64,0,58
1,59,0,0
1,67,0,0
1,59,75,2
1,59,0,5
1,52,0,0
1,67,90,2
1,49,79,0
1,64,83,55
1,64,0,58
1,49,0,0
1,67,0,0
1,59,67,2
1,59,0,58
1,52,79,18
1,57,87,22
1,45,51,2
1,60,78,9
1,57,0,12
1,52,0,2
1,52,73,25
1,57,74,61
1,60,0,10
1,60,79,46
1,57,0,7
1,52,0,14
1,52,87,40
1,60,0,65
1,57,67,2
1,60,73,58
1,57,0,8
1,45,0,4
1,52,0,1
1,60,0,20
1,45,67,26
1,45,0,22
1,57,39,21
1,54,27,0
1,60,77,5
1,50,39,1
1,64,79,4
1,60,0,97
1,57,0,5
1,54,0,1
1,64,0,6
1,50,0,6
1,55,53,784
1,60,84,12
1,48,77,5
1,64,92,1
1,55,0,22
1,60,0,28
1,55,76,5
1,60,84,62
1,48,0,11
1,64,0,33
1,55,0,12
1,60,0,0
1,48,81,2
1,55,70,30
1,48,0,4
1,59,73,1
1,47,65,8
1,62,77,7
1,55,0,1
1,59,0,36
1,62,0,8
1,55,65,0
1,59,80,53
1,59,0,13
1,55,0,0
1,52,79,31
1,57,74,11
1,45,68,3
1,47,0,2
1,60,77,8
1,52,0,24
1,52,89,25
1,57,0,11
1,57,86,44
1,60,0,16
1,60,85,45
1,52,0,13
1,57,0,1
1,60,0,41
1,50,97,69
1,45,0,2
1,52,76,19
1,50,0,11
1,55,82,19
1,52,0,1
1,45,69,0
1,50,93,46
1,55,0,4
1,50,0,4
1,55,80,36
1,48,70,3
1,60,61,1
1,45,0,5
1,64,81,9
1,55,0,5
1,60,0,38
1,55,74,1
1,60,82,61
1,48,0,5
1,60,0,43
1,55,0,1
1,48,77,5
1,64,0,4
1,55,62,27
1,48,0,9
1,59,72,1
1,47,79,8
1,62,84,7
1,55,0,14
1,59,0,35
1,55,64,5
1,62,0,1
1,59,73,52
1,59,0,13
1,55,0,0
1,52,88,32
1,57,67,13
1,60,84,6
1,47,0,2
1,45,36,1
1,52,0,23
1,52,87,25
1,57,0,16
1,57,86,43
1,60,0,24
1,60,82,38
1,52,0,17
1,57,0,35
1,60,0,1
1,52,76,3
1,52,0,8
1,50,80,51
1,45,0,9
1,52,79,17
1,50,0,2
1,55,98,19
1,52,0,5
1,45,91,0
1,55,0,41
1,50,93,2
1,50,0,8
1,55,83,36
1,60,70,5
1,48,70,3
1,45,0,1
1,64,58,11
1,55,0,3
1,55,78,37
1,60,0,8
1,60,81,54
1,48,0,2
1,60,0,47
1,64,0,1
1,55,0,4
1,48,76,0
1,55,69,29
1,59,76,5
1,48,0,1
1,47,73,9
1,62,80,9
1,55,0,7
1,59,0,31
1,55,72,5
1,62,0,2
1,59,84,54
1,55,0,9
1,59,0,4
1,52,79,30
1,57,70,12
1,47,0,5
1,60,74,3
1,45,65,3
1,52,0,26
1,52,88,31
1,57,0,12
1,57,73,46
1,60,0,10
1,60,70,50
1,52,0,15
1,57,0,0
1,60,0,37
1,52,84,4
1,52,0,6
1,45,0,44
1,50,82,10
1,52,77,21
1,50,0,12
1,45,76,25
1,55,82,1
1,52,0,1
1,55,0,49
1,50,83,6
1,50,0,28
1,45,0,10
1,42,38,5
1,59,80,0
1,64,58,2
1,54,76,33
1,59,0,5
1,64,0,21
1,59,82,36
1,42,0,22
1,42,74,36
1,54,0,8
1,59,0,7
1,54,72,18
1,59,63,10
1,47,49,3
1,42,0,8
1,63,55,7
1,54,0,13
1,63,0,32
1,54,62,6
1,59,0,14
1,59,77,46
1,63,49,61
1,54,0,9
1,59,0,3
1,63,0,16
1,52,88,0
1,47,0,6
1,55,92,44
1,59,79,25
1,55,0,5
1,52,0,24
1,50,89,1
1,59,0,45
1,55,82,3
1,59,82,30
1,55,0,9
1,50,0,0
1,49,65,24
1,55,82,35
1,59,0,2
1,49,0,32
1,55,0,12
1,59,89,15
1,59,0,26
1,64,102,32
1,64,0,13
1,52,38,500
1,57,88,13
1,45,79,10
1,60,88,3
1,57,0,7
1,52,0,1
1,57,79,30
1,60,0,48
1,52,89,3
1,57,0,5
1,52,0,8
1,45,0,3
1,57,68,38
1,54,48,2
1,50,61,4
1,60,73,5
1,64,90,2
1,60,0,58
1,57,0,1
1,50,0,1
1,54,0,1
1,64,0,7
1,59,89,5
1,43,79,0
1,59,0,28
1,57,73,2
1,57,0,58
1,43,0,0
1,50,83,2
1,43,70,60
1,43,0,28
1,40,86,2
1,50,0,46
1,55,82,2
1,55,0,58
1,52,83,2
1,52,0,58
1,40,0,0
1,62,89,2
1,47,31,0
1,62,0,46
1,54,83,2
1,57,100,60
1,64,81,60
1,64,0,58
1,57,0,0
1,54,0,0
1,54,56,62
1,54,0,58
1,47,0,0
1,57,97,2
1,57,0,58
1,47,79,2
1,47,0,12
1,59,81,2
1,43,72,0
1,59,0,33
1,57,63,2
1,57,0,58
1,43,0,0
1,50,80,2
1,43,76,60
1,43,0,26
1,40,89,2
1,50,0,47
1,55,84,2
1,55,0,58
1,52,81,2
1,52,0,58
1,40,0,0
1,62,90,2
1,47,65,0
1,62,0,48
1,54,68,2
1,57,80,60
1,54,0,58
1,64,95,2
1,64,0,58
1,57,0,0
1,47,0,0
1,54,62,62
1,54,0,58
1,57,101,2
1,47,82,0
1,47,0,58
1,57,0,0
1,67,82,13
1,52,75,0
1,64,83,39
1,64,0,58
1,52,0,0
1,67,0,0
1,59,85,2
1,52,91,60
1,52,0,23
1,59,0,0
1,66,54,2
1,51,69,0
1,63,62,50
1,63,0,58
1,66,0,0
1,59,72,2
1,51,0,3
1,67,88,2
1,52,76,0
1,59,0,55
1,64,70,2
1,64,0,58
1,67,0,0
1,59,65,2
1,59,0,58
1,52,0,0
1,67,77,2
1,49,62,0
1,49,0,53
1,64,78,2
1,64,0,58
1,67,0,0
1,59,62,2
1,59,0,58
1,52,73,20
1,57,71,17
1,45,55,5
1,60,77,9
1,57,0,11
1,52,0,8
1,52,69,30
1,60,0,48
1,57,87,10
1,60,83,63
1,57,0,15
1,52,0,12
1,52,70,32
1,57,80,61
1,60,0,11
1,60,77,50
1,52,0,10
1,57,0,4
1,60,0,34
1,45,0,1
1,57,13,54
1,54,39,5
