track,note,velocity,time
1,50,54,384
1,57,48,192
1,62,59,192
1,64,50,192
1,69,76,384
1,74,87,192
1,73,86,36
1,43,61,26
1,69,78,0
1,73,85,0
1,55,51,104
1,62,63,58
1,71,82,0
1,55,42,100
1,62,76,6
1,69,66,0
1,55,42,46
1,71,76,192
1,55,51,14
1,50,65,150
1,69,42,0
1,57,58,2
1,62,85,192
1,64,87,192
1,69,101,2
1,74,93,0
1,73,93,18
1,43,43,26
1,69,67,0
1,73,62,0
1,55,49,2
1,62,64,0
1,74,76,112
1,73,73,48
1,43,71,16
1,62,77,0
1,69,58,0
1,71,65,48
1,38,54,104
1,45,66,0
1,50,57,0
1,52,64,0
1,54,35,0
1,54,86,2
1,38,40,74
1,57,39,384
1,62,38,192
1,57,5,16
1,61,38,0
1,43,57,68
1,50,41,0
1,57,45,0
1,61,51,0
1,55,55,8
1,59,45,0
1,57,59,30
1,50,39,156
1,55,42,0
1,59,35,0
1,38,42,216
1,57,33,0
1,52,2,58
1,45,49,8
1,50,50,192
1,52,54,192
1,50,34,44
1,57,92,192
1,62,95,4
1,57,83,34
1,61,100,0
1,43,82,4
1,50,93,0
1,57,86,0
1,61,82,0
1,59,81,12
1,43,55,52
1,57,79,20
1,55,54,8
1,59,53,0
1,43,64,78
1,38,56,98
1,52,52,0
1,54,42,0
1,57,40,0
1,45,52,34
1,50,65,8
1,52,70,192
1,57,68,118
1,62,81,140
1,61,58,192
1,43,57,66
1,50,57,0
1,57,60,0
1,61,53,0
1,50,55,8
1,55,53,108
1,59,54,0
1,50,42,46
1,55,41,2
1,57,45,0
1,50,41,6
1,55,42,10
1,59,42,48
1,50,51,20
1,38,68,80
1,57,52,0
1,45,63,30
1,50,74,192
1,52,58,192
1,54,5,36
1,57,70,0
1,50,42,192
1,62,76,0
1,57,45,10
1,61,53,0
1,43,64,56
1,50,47,0
1,57,63,0
1,61,65,0
1,50,6,70
1,57,42,34
1,62,68,192
1,43,70,38
1,50,55,0
1,55,64,0
1,59,67,0
1,42,77,24
1,57,53,0
1,40,71,30
1,55,57,0
1,47,53,82
1,52,70,32
1,54,54,192
1,52,66,192
1,55,63,0
1,59,82,96
1,55,70,0
1,59,64,0
1,64,80,0
1,62,79,84
1,45,78,40
1,52,65,0
1,57,71,0
1,62,78,0
1,61,84,40
1,52,65,92
1,59,73,0
1,52,60,38
1,61,67,0
1,43,80,192
1,42,74,14
1,40,78,0
1,55,49,0
1,59,30,0
1,47,45,104
1,52,64,24
1,54,55,192
1,55,66,106
1,59,65,0
1,64,79,30
1,62,54,28
1,45,64,62
1,52,70,0
1,57,70,0
1,62,78,0
1,52,65,34
1,57,57,22
1,61,64,0
1,52,65,62
1,57,73,24
1,59,77,0
1,52,56,116
1,57,75,44
1,61,80,0
1,52,55,88
1,50,32,120
1,57,75,0
1,62,78,0
1,69,75,0
1,54,45,86
1,57,41,142
1,38,44,192
1,57,67,80
1,62,70,0
1,50,83,192
1,64,83,0
1,66,82,32
1,31,80,70
1,43,81,0
1,55,78,0
1,59,73,0
1,62,81,0
1,66,78,0
1,43,74,48
1,55,73,48
1,59,80,0
1,62,81,0
1,43,59,82
1,55,80,120
1,59,78,0
1,62,69,0
1,43,59,98
1,33,77,62
1,45,86,0
1,53,55,0
1,55,55,0
1,59,76,0
1,45,78,40
1,38,51,98
1,57,50,0
1,45,64,80
1,50,78,192
1,52,66,192
1,52,82,62
1,54,67,0
1,57,79,0
1,62,78,0
1,64,75,62
1,66,83,26
1,31,84,118
1,43,86,0
1,55,78,0
1,59,83,0
1,62,80,0
1,66,71,0
1,69,75,0
1,43,68,70
1,55,58,50
1,43,59,0
1,71,50,0
1,55,40,0
1,67,50,0
1,43,67,0
1,59,78,0
1,30,71,70
1,42,78,0
1,54,76,0
1,57,60,0
1,62,76,0
1,64,67,14
1,42,70,0
1,66,70,0
1,40,87,0
1,52,66,0
1,55,78,0
1,59,65,0
1,64,72,0
1,47,41,8
1,52,49,112
1,54,44,192
1,40,60,26
1,55,74,0
1,59,75,0
1,47,64,180
1,64,65,0
1,52,70,178
1,62,70,0
1,45,84,0
1,52,81,0
1,57,74,0
1,62,76,0
1,61,70,118
1,57,38,192
1,59,54,88
1,52,58,22
1,57,56,92
1,61,62,0
1,43,83,192
1,55,58,0
1,42,78,24
1,40,89,18
1,55,72,0
1,59,81,0
1,47,69,136
1,52,66,192
1,54,86,192
1,55,68,42
1,59,71,0
1,52,79,192
1,64,78,0
1,62,53,24
1,33,86,36
1,45,86,0
1,52,78,0
1,57,70,0
1,62,76,0
1,45,74,66
1,52,54,52
1,61,54,0
1,45,57,78
1,52,54,20
1,59,51,0
1,45,81,112
1,52,70,60
1,57,58,0
1,61,77,0
1,45,66,4
1,31,70,136
1,43,73,0
1,55,59,0
1,59,66,0
1,62,63,0
1,43,59,100
1,55,32,0
1,43,55,66
1,55,54,0
1,57,45,62
1,59,65,6
1,62,76,192
1,43,60,54
1,50,79,96
1,55,55,0
1,57,53,0
1,62,83,0
1,67,76,0
1,59,54,246
1,38,76,508
1,45,80,0
1,50,81,0
1,52,86,0
1,54,79,192
1,38,83,20
1,52,42,126
1,57,42,0
1,62,58,192
1,61,45,10
1,31,78,46
1,43,75,0
1,50,66,0
1,57,56,0
1,61,64,0
1,55,52,66
1,59,60,0
1,55,55,4
1,57,62,0
1,43,52,46
1,50,42,22
1,59,46,0
1,43,45,80
1,38,68,6
1,52,54,0
1,57,50,0
1,45,58,2
1,50,58,192
1,52,55,190
1,45,45,74
1,69,85,192
1,74,87,26
1,73,92,36
1,43,80,38
1,62,81,0
1,73,86,0
1,50,53,116
1,55,45,88
1,71,84,0
1,50,41,156
1,69,76,16
1,50,54,166
1,45,83,30
1,57,86,0
1,59,83,0
1,62,87,0
1,61,69,122
1,64,71,0
1,38,81,8
1,57,65,0
1,62,69,0
1,66,65,0
1,45,47,124
1,50,64,120
1,52,62,192
1,50,45,60
1,52,58,58
1,57,59,0
1,38,63,84
1,62,68,0
1,61,63,22
1,43,72,84
1,50,56,0
1,57,75,0
1,61,65,0
1,55,66,150
1,59,64,0
1,50,46,166
1,57,56,14
1,50,45,160
1,55,54,128
1,59,62,0
1,50,55,32
1,38,65,28
1,52,41,0
1,54,54,0
1,57,50,0
1,45,53,58
1,50,62,12
1,52,67,192
1,38,55,12
1,69,78,174
1,45,71,18
1,69,45,0
1,74,74,0
1,73,45,38
1,43,68,16
1,50,57,0
1,55,50,0
1,62,77,0
1,73,74,0
1,55,50,88
1,62,54,70
1,74,51,0
1,43,75,60
1,62,73,0
1,71,74,0
1,55,51,54
1,42,70,4
1,54,71,0
1,62,70,0
1,69,67,0
1,54,42,76
1,67,73,32
1,66,66,48
1,40,58,0
1,59,54,0
1,67,76,0
1,47,44,180
1,52,75,156
1,54,51,58
1,55,60,20
1,59,45,192
1,55,51,36
1,64,73,0
1,62,55,26
1,45,64,40
1,52,68,0
1,57,65,0
1,62,75,0
1,61,67,384
1,59,66,364
1,43,70,8
1,61,73,0
1,42,74,12
1,40,87,4
1,55,58,0
1,59,45,0
1,47,69,184
1,52,86,192
1,54,55,144
1,55,55,42
1,59,60,0
1,64,77,192
1,62,45,82
1,45,74,0
1,52,67,0
1,57,74,0
1,62,81,0
1,52,54,22
1,57,70,4
1,61,71,0
1,52,55,4
1,59,75,54
1,52,54,62
1,61,100,2
1,52,64,38
1,38,81,148
1,50,83,0
1,57,84,0
1,62,89,0
1,66,78,0
1,69,82,0
1,50,59,66
1,57,63,8
1,50,55,16
1,62,59,0
1,38,17,58
1,50,71,38
1,57,83,0
1,62,87,0
1,66,80,0
1,57,82,24
1,62,87,0
1,64,87,0
1,67,86,0
1,57,85,40
1,62,92,0
1,66,86,0
1,69,86,0
1,31,96,42
1,43,101,0
1,59,90,0
1,62,101,0
1,66,96,0
1,69,94,0
1,43,78,40
1,55,83,132
1,59,89,0
1,62,84,0
1,66,78,0
1,43,59,66
1,55,72,138
1,59,66,0
1,62,74,0
1,66,72,0
1,43,63,6
1,33,80,116
1,45,64,0
1,57,73,0
1,62,78,0
1,64,76,0
1,67,75,0
1,45,70,68
1,38,78,22
1,57,62,0
1,62,72,0
1,66,54,0
1,45,42,140
1,50,59,86
1,52,77,192
1,54,72,52
1,57,79,144
1,62,78,0
1,66,72,0
1,45,69,32
1,57,62,0
1,62,54,0
1,64,70,0
1,67,80,0
1,57,80,18
1,62,80,0
1,66,68,0
1,69,82,0
1,31,76,36
1,43,68,0
1,57,78,0
1,62,79,0
1,66,69,0
1,69,81,0
1,43,55,84
1,62,66,60
1,67,73,0
1,71,54,0
1,43,39,0
1,43,55,152
1,55,90,0
1,59,60,0
1,62,66,0
1,67,70,0
1,55,51,72
1,42,70,2
1,54,87,0
1,59,77,0
1,62,79,0
1,66,73,0
1,54,64,2
1,40,71,124
1,47,55,0
1,52,78,0
1,55,55,0
1,59,49,0
1,64,45,0
1,67,44,0
1,52,80,8
1,54,82,112
1,55,76,42
1,47,68,114
1,55,66,88
1,59,70,0
1,62,73,0
1,52,54,30
1,55,59,0
1,59,62,0
1,64,53,0
1,67,79,0
1,66,88,30
1,33,77,40
1,45,68,0
1,66,80,0
1,57,71,0
1,64,75,0
1,45,59,104
1,57,78,118
1,62,79,0
1,45,75,78
1,57,65,76
1,61,66,0
1,64,64,0
1,43,81,34
1,42,87,24
1,40,81,14
1,55,57,0
1,59,5,0
1,47,59,2
1,52,78,192
1,54,66,40
1,55,78,192
1,59,77,178
1,62,78,0
1,52,68,36
1,55,78,0
1,59,74,0
1,62,80,0
1,67,83,0
1,62,55,0
1,66,80,0
1,33,83,12
1,45,100,0
1,57,86,0
1,62,86,0
1,66,80,0
1,45,75,64
1,57,70,78
1,61,81,0
1,64,70,0
1,45,74,74
1,57,74,26
1,59,83,0
1,62,80,0
1,45,70,88
1,57,68,36
1,61,76,0
1,64,80,0
1,45,78,18
1,31,88,34
1,43,97,0
1,55,90,0
1,59,86,0
1,62,87,0
1,67,87,0
1,43,76,64
1,55,76,86
1,57,55,44
1,43,80,192
1,59,68,0
1,50,64,164
1,62,52,0
1,55,68,178
1,57,66,0
1,50,57,168
1,59,66,0
1,38,87,4
1,50,90,0
1,57,86,0
1,62,87,0
1,66,78,0
1,69,83,0
1,45,51,26
1,50,42,76
1,57,44,0
1,45,42,192
1,38,66,86
1,69,78,76
1,74,87,0
1,62,67,22
1,76,97,0
1,78,104,32
1,71,97,130
1,74,76,0
1,78,100,0
1,71,93,38
1,74,102,0
1,55,46,192
1,67,90,84
1,71,98,0
1,74,100,0
1,55,53,78
1,62,90,36
1,67,94,0
1,71,102,0
1,55,78,94
1,38,86,22
1,50,100,0
1,62,98,0
1,66,101,0
1,69,104,0
1,50,76,62
1,50,71,40
1,57,87,92
1,62,68,38
1,38,100,8
1,57,84,0
1,66,98,0
1,69,93,0
1,50,78,10
1,57,86,96
1,62,51,84
1,37,100,20
1,49,98,0
1,57,86,0
1,61,80,0
1,64,88,0
1,69,81,0
1,49,86,12
1,57,93,14
1,61,56,86
1,35,90,24
1,47,105,0
1,59,95,0
1,62,98,0
1,66,88,0
1,47,84,70
1,54,76,0
1,59,81,0
1,62,86,0
1,47,83,14
1,54,89,0
1,59,88,0
1,61,85,0
1,47,71,54
1,54,86,36
1,59,86,0
1,62,89,0
1,47,77,88
1,34,85,72
1,46,97,0
1,54,98,0
1,61,86,0
1,66,79,0
1,64,81,208
1,34,79,0
1,54,58,0
1,61,78,0
1,64,75,0
1,66,54,0
1,46,49,114
1,54,78,58
1,61,65,0
1,64,81,0
1,66,70,0
1,46,75,52
1,33,87,0
1,45,86,0
1,57,77,0
1,59,84,0
1,62,83,0
1,66,68,0
1,45,82,76
1,57,65,0
1,59,73,0
1,62,78,0
1,33,82,28
1,45,72,0
1,57,58,0
1,59,58,0
1,62,56,0
1,64,59,0
1,45,64,94
1,57,71,28
1,59,79,0
1,62,79,0
1,66,78,0
1,45,71,24
1,32,85,134
1,44,86,0
1,56,87,0
1,62,87,0
1,64,76,0
1,59,79,34
1,32,78,98
1,44,64,0
1,32,83,82
1,44,80,0
1,44,75,6
1,56,78,80
1,62,79,0
1,31,78,186
1,43,97,0
1,55,70,0
1,59,76,0
1,64,74,0
1,62,76,50
1,43,70,8
1,43,83,58
1,55,67,30
1,59,67,0
1,62,70,0
1,43,74,66
1,30,80,144
1,42,92,0
1,54,78,0
1,57,76,0
1,62,76,0
1,30,77,98
1,42,69,0
1,30,78,28
1,42,66,0
1,54,79,56
1,57,77,0
1,62,78,0
1,42,84,42
1,29,86,20
1,41,92,0
1,53,78,0
1,56,81,0
1,59,78,0
1,62,77,0
1,29,54,92
1,41,42,0
1,29,75,84
1,41,79,0
1,53,54,30
1,41,70,68
1,28,78,130
1,40,80,0
1,59,75,0
1,62,79,0
1,40,57,68
1,52,78,50
1,62,42,0
1,40,57,106
1,55,83,28
1,59,63,0
1,40,50,94
1,55,72,82
1,62,78,0
1,40,58,22
1,33,67,122
1,45,81,0
1,57,64,0
1,61,74,0
1,45,53,62
1,59,62,8
1,62,56,0
1,45,54,102
1,57,59,98
1,61,63,0
1,64,73,0
1,45,54,114
1,57,59,174
1,67,64,0
1,69,5,0
1,45,65,0
1,38,78,12
1,57,54,0
1,66,56,0
1,69,55,0
1,50,63,2
1,57,65,44
1,62,64,192
1,62,47,112
1,69,59,0
1,50,79,192
1,64,80,0
1,66,100,20
1,43,81,16
1,59,75,0
1,62,83,0
1,66,72,0
1,50,62,142
1,55,59,54
1,59,81,0
1,62,82,0
1,50,55,172
1,59,70,98
1,62,75,0
1,50,51,180
1,45,79,18
1,55,82,0
1,59,78,0
1,38,79,56
1,52,68,0
1,57,55,0
1,45,69,26
1,50,81,192
1,52,68,192
1,54,72,192
1,54,68,8
1,57,80,0
1,62,85,2
1,45,68,58
1,64,96,0
1,66,83,12
1,43,45,122
1,50,80,0
1,55,79,0
1,59,60,0
1,62,80,0
1,66,50,0
1,69,81,0
1,55,71,84
1,59,5,112
1,66,39,0
1,55,42,110
1,59,44,0
1,62,73,0
1,71,77,0
1,43,55,28
1,59,55,0
1,62,55,0
1,67,63,0
1,50,41,192
1,42,66,0
1,54,65,0
1,59,56,0
1,66,49,0
1,40,71,218
1,47,67,0
1,52,68,0
1,55,64,0
1,59,64,0
1,64,62,0
1,67,57,0
1,55,31,30
1,40,88,192
1,47,57,0
1,52,59,192
1,62,49,17
1,47,54,82
1,64,53,2
1,66,57,12
1,45,80,0
1,52,76,0
1,57,79,0
1,64,75,0
1,67,77,0
1,57,53,88
1,62,66,14
1,66,55,0
1,57,41,120
1,64,57,24
1,52,42,46
1,62,42,90
1,43,79,192
1,42,56,18
1,40,80,32
1,55,57,0
1,59,39,0
1,47,52,104
1,52,79,72
1,54,64,22
1,55,52,192
1,62,68,188
1,59,75,0
1,55,59,0
1,59,79,0
1,64,81,0
1,67,62,0
1,69,67,0
1,45,78,0
1,71,66,0
1,52,66,34
1,57,42,96
1,64,68,0
1,67,57,0
1,66,50,28
1,64,64,32
1,52,44,254
1,62,69,0
1,61,55,20
1,43,78,222
1,50,67,0
1,57,66,0
1,62,70,0
1,55,59,30
1,57,42,192
1,59,56,34
1,43,36,98
1,50,42,0
1,55,78,192
1,61,64,76
1,57,74,0
1,59,64,0
1,38,67,0
1,45,64,0
1,54,65,0
1,57,64,0
1,52,55,164
1,54,45,138
1,52,38,106
1,57,56,122
1,62,96,192
1,74,87,0
1,64,93,82
1,76,89,0
1,66,98,0
1,78,103,0
1,43,76,104
1,59,84,6
1,66,76,24
1,78,86,0
1,62,100,148
1,74,86,0
1,45,78,172
1,57,80,0
1,62,95,0
1,74,93,0
1,71,89,308
1,59,94,2
1,38,81,24
1,50,82,4
1,57,81,42
1,64,72,2
1,66,68,24
1,69,79,24
2,31,79,576
2,33,72,1152
2,38,70,358
2,31,80,2
2,30,83,1152
2,28,87,0
2,33,88,1536
2,28,83,136
