track,note,velocity,time
1,57,104,40968
1,57,102,23
1,62,97,20
1,59,90,26
1,64,97,5
1,61,87,4
1,66,101,6
1,62,97,200
1,67,95,24
1,64,95,18
1,69,94,13
1,66,110,74
1,57,94,2284
1,57,87,27
1,62,90,6
1,59,95,10
1,64,80,17
1,61,84,20
1,66,95,4
1,62,78,16
1,67,90,6
1,64,91,180
1,66,93,12
1,62,94,22
1,66,80,1683
1,67,86,31
1,67,98,37
1,66,91,23
1,64,94,19
1,66,99,15
1,62,97,11
1,62,85,28
1,62,88,24
1,62,80,21
1,64,87,19
1,64,91,14
1,64,91,27
1,67,90,174
1,67,68,23
1,66,85,7
1,64,92,12
1,66,71,24
1,62,94,15
1,62,94,16
1,62,94,19
1,62,91,26
1,62,83,15
1,64,66,35
1,64,80,25
1,57,91,712
1,57,71,36
1,62,97,2
1,59,94,0
1,64,90,11
1,61,91,4
1,66,95,0
1,62,91,10
1,67,97,10
1,64,91,27
1,66,100,344
1,62,86,12
1,57,100,1793
1,57,88,77
1,62,97,30
1,59,100,40
1,64,87,49
1,61,97,120
1,66,91,339
1,62,94,52
1,67,98,36
1,64,102,34
1,69,92,8
1,66,100,102
1,62,91,205
1,57,97,1045
1,57,82,18
1,62,90,43
1,59,92,23
1,64,95,4
1,61,94,16
1,66,88,15
1,62,77,8
1,67,90,15
1,64,86,11
1,66,88,11
1,62,80,50
1,59,80,110
1,64,112,1202
1,66,77,47
1,67,110,27
1,66,87,15
1,64,87,25
1,66,92,22
1,62,98,30
1,62,87,29
1,62,83,49
1,64,94,72
1,64,94,66
1,64,95,81
1,67,91,196
1,67,88,36
1,66,77,28
1,64,80,15
1,66,85,9
1,62,97,24
1,62,94,34
1,62,90,29
1,62,86,75
1,64,76,51
1,66,67,627
1,64,81,76
1,62,81,68
1,64,94,180
1,57,91,404
1,57,71,36
1,62,97,2
1,59,94,0
1,64,90,11
1,61,91,4
1,66,95,0
1,62,91,10
1,67,97,10
1,64,91,27
1,66,99,344
1,62,98,23
1,66,92,824
1,64,80,3
1,62,98,121
1,70,110,255
1,70,97,136
1,70,97,92
1,70,97,152
1,72,97,172
1,72,90,104
1,72,88,19
1,72,85,228
1,71,71,50
1,71,85,102
1,71,90,112
1,70,93,204
1,70,107,164
1,70,95,178
1,70,97,183
1,72,100,264
1,72,102,117
1,72,92,121
1,72,86,123
1,71,96,19
1,71,91,29
1,71,94,48
1,70,97,464
1,70,97,168
1,70,95,163
1,70,93,192
1,70,89,134
1,70,101,76
1,70,91,207
1,70,89,60
1,70,101,141
1,69,94,42
1,67,88,112
1,69,90,23
1,69,91,115
1,69,80,131
1,71,97,125
1,69,81,24
1,67,78,86
1,69,85,21
1,66,113,39
1,66,91,103
1,67,95,85
1,69,95,454
1,69,90,78
1,71,70,3
1,69,68,90
1,67,67,124
1,64,88,240
1,64,83,76
1,66,84,193
1,64,86,53
1,69,67,136
1,68,93,108
1,64,73,96
1,64,70,67
1,61,67,24
1,61,61,133
1,59,70,29
1,57,83,27
1,64,87,46
1,64,80,2273
1,64,78,36
1,66,60,101
1,64,77,46
1,69,71,68
1,68,85,77
1,64,77,60
1,61,88,71
1,62,74,34
1,61,89,39
1,57,102,513
1,64,115,483
1,69,126,477
1,69,80,31076
1,69,68,49
1,69,87,62
1,71,97,79
1,71,83,35
1,71,79,49
1,69,74,101
1,69,79,52
1,68,91,110
1,68,87,137
1,66,81,23
1,66,72,92
1,71,70,312
1,71,77,26
1,71,75,22
1,71,66,19
1,71,75,19
1,69,86,2
1,69,69,30
1,69,75,23
1,68,89,257
1,68,74,41
1,66,73,12
1,71,79,195
1,71,80,35
1,71,78,24
1,71,77,24
1,71,68,15
1,71,67,30
1,69,68,8
1,69,80,12
1,69,61,3
1,69,61,8
1,68,84,13
1,68,78,43
1,66,77,227
1,66,77,24
1,69,75,3
1,68,89,120
1,66,80,117
1,59,98,486
1,59,73,60
1,64,80,234
1,61,89,17
1,66,91,250
1,63,83,6
1,68,87,370
1,64,78,8
1,69,83,137
1,66,74,9
1,68,71,28
1,71,92,9
1,59,82,43958
1,59,80,135
1,64,84,127
1,61,94,124
1,66,73,134
1,63,91,36
1,68,87,241
1,64,79,128
1,69,64,40
1,66,108,92
1,71,93,190
1,68,102,118
1,59,68,2648
1,59,79,144
1,64,81,61
1,61,82,118
1,66,84,20
1,63,87,37
1,68,84,69
1,64,86,36
1,69,84,18
1,66,77,30
1,68,95,38
1,64,88,31
1,68,96,1928
1,69,79,13
1,69,94,18
1,68,91,14
1,66,82,18
1,66,72,35
1,68,72,17
1,64,76,24
1,64,80,96
1,64,75,86
1,66,80,121
1,66,73,48
1,66,67,75
1,69,64,470
1,69,81,62
1,68,91,127
1,66,86,28
1,68,91,2
1,64,83,21
1,64,80,166
1,64,79,86
1,66,83,11
1,66,72,242
1,66,83,108
1,68,67,112
1,66,91,122
1,59,83,578
1,59,84,147
1,64,80,39
1,61,70,68
1,66,72,36
1,63,72,61
1,68,85,20
1,64,87,36
1,69,81,25
1,66,93,142
1,68,79,9
1,64,95,26
1,71,92,5720
1,71,91,151
1,71,95,153
1,71,94,148
1,71,92,152
1,73,104,146
1,69,95,35
1,69,104,139
1,68,80,966
1,68,99,166
1,68,97,152
1,68,88,158
1,66,92,33
1,64,94,151
1,64,89,99
1,64,75,150
1,64,91,93
1,68,97,60
1,71,92,818
1,71,94,143
1,71,92,68
1,71,93,68
1,71,92,108
1,73,95,37
1,69,91,176
1,69,91,70
1,69,93,79
1,71,93,50
1,68,99,947
1,68,93,99
1,66,107,18
1,64,104,137
1,64,102,74
1,64,84,169
1,64,88,45
1,68,104,36
1,66,99,97
1,64,106,28
1,69,95,156
1,69,84,61
1,69,97,67
1,68,107,131
1,66,104,44
1,68,101,53
1,68,93,116
1,68,81,75
1,68,91,66
1,68,87,143
1,68,82,70
1,69,91,60
1,68,87,104
1,66,104,75
1,68,85,501
1,69,73,37
1,69,69,38
1,68,81,53
1,66,60,51
1,68,84,8
1,68,72,114
1,68,79,51
1,73,79,151
1,68,85,220
1,66,73,35
1,66,81,56
1,71,92,741
1,71,91,139
1,71,80,131
1,71,81,133
1,71,77,114
1,71,76,55
1,71,65,163
1,71,84,115
1,71,76,71
1,71,78,46
1,71,76,252
1,71,98,168
1,69,100,1920
1,69,70,31
1,69,88,67
1,71,88,69
1,71,77,56
1,71,81,63
1,69,86,97
1,69,78,54
1,68,85,54
1,68,67,131
1,66,60,36
1,66,61,164
1,71,79,394
1,71,75,61
1,71,91,74
1,71,81,55
1,71,73,60
1,71,84,64
1,69,80,129
1,69,76,53
1,69,68,45
1,68,73,143
1,68,80,74
1,66,63,52
1,66,64,42
1,71,65,597
1,71,88,46
1,71,80,84
1,71,69,68
1,71,73,58
1,69,74,157
1,69,63,63
1,71,78,43
1,71,72,72
1,71,88,121
1,59,100,405
1,59,90,77
1,64,74,96
1,61,101,83
1,66,83,23
1,63,87,119
1,68,82,52
1,64,80,1
1,69,80,127
1,66,84,132
1,68,91,71
1,71,104,80
1,66,88,20854
1,66,83,91
1,68,84,178
1,66,86,61
1,71,88,124
1,70,87,5
1,66,73,81
1,66,70,82
1,63,67,20
1,63,61,122
1,61,70,29
1,59,83,38
1,66,87,51
1,66,88,816
1,66,83,88
1,68,84,181
1,66,86,61
1,71,88,128
1,70,87,120
1,66,73,84
1,66,70,82
1,63,67,24
1,63,61,118
1,61,70,29
1,59,84,35
1,59,87,118
1,66,88,824
1,66,83,91
1,68,84,178
1,66,86,61
1,71,88,128
1,70,87,123
1,66,73,81
1,66,70,82
1,63,67,20
1,63,61,122
1,61,70,29
1,59,83,38
1,66,87,51
1,66,88,816
1,66,83,88
1,68,84,181
1,66,86,61
1,71,88,128
1,70,87,116
1,66,95,92
1,63,94,93
1,63,91,125
1,66,91,25
1,63,92,31
1,63,87,59
1,59,93,46
2,26,101,24795
2,26,97,27
2,26,100,21
2,26,103,29
2,26,108,264
2,26,109,24
2,26,101,1943
2,26,97,27
2,26,100,21
2,26,103,29
2,26,108,264
2,26,109,24
2,26,101,1943
2,26,97,27
2,26,100,21
2,26,103,29
2,26,108,264
2,26,109,24
2,26,101,1943
2,26,97,27
2,26,100,21
2,26,103,29
2,26,108,264
2,26,109,24
2,26,101,1943
2,26,97,27
2,26,100,21
2,26,103,29
2,26,108,264
2,26,109,24
2,26,101,1943
2,26,97,27
2,26,100,21
2,26,103,29
2,26,108,264
2,26,109,24
2,26,101,1943
2,26,97,27
2,26,100,21
2,26,103,29
2,26,108,264
2,26,109,24
2,26,101,1943
2,26,97,27
2,26,100,21
2,26,103,29
2,26,108,264
2,26,109,24
2,26,101,1943
2,26,97,27
2,26,100,21
2,26,103,29
2,26,108,264
2,26,109,24
2,26,101,1943
2,26,97,27
2,26,100,21
2,26,103,29
2,26,108,264
2,26,109,24
2,26,101,1943
2,26,97,27
2,26,100,21
2,26,103,29
2,26,108,264
2,26,109,24
2,26,101,1943
2,26,97,27
2,26,100,21
2,26,103,29
2,26,108,264
2,26,109,24
2,26,101,1943
2,26,97,27
2,26,100,21
2,26,103,29
2,26,108,264
2,26,109,24
2,26,101,1943
2,26,97,27
2,26,100,21
2,26,103,29
2,26,108,264
2,26,109,24
2,26,101,1943
2,26,97,27
2,26,100,21
2,26,103,29
2,26,108,264
2,26,109,24
2,26,101,1943
2,26,97,27
2,26,100,21
2,26,103,29
2,26,108,264
2,26,109,24
2,26,101,1943
2,26,97,27
2,26,100,21
2,26,103,29
2,26,108,264
2,26,109,24
2,26,101,1943
2,26,97,27
2,26,100,21
2,26,103,29
2,26,108,264
2,26,109,24
2,26,101,1943
2,26,97,27
2,26,100,21
2,26,103,29
2,26,108,264
2,26,109,24
2,26,101,1943
2,26,97,27
2,26,100,21
2,26,103,29
2,26,108,264
2,26,109,24
2,26,101,1943
2,26,97,27
2,26,100,21
2,26,103,29
2,26,108,264
2,26,109,24
2,26,101,1943
2,26,97,27
2,26,100,21
2,26,103,29
2,26,108,264
2,26,109,24
2,34,94,449
2,34,97,65
2,43,85,27
2,34,70,5
2,41,88,237
2,34,85,4
2,46,87,3
2,48,85,11
2,48,102,109
2,55,80,11
2,52,90,1
2,45,84,2
2,45,87,57
2,44,70,3
2,45,86,8
2,40,85,6
2,34,95,36
2,34,97,50
2,43,85,27
2,34,70,223
2,41,88,9
2,34,85,239
2,46,87,13
2,48,84,6
2,50,97,48
2,48,80,7
2,45,86,0
2,40,87,11
2,40,75,50
2,35,80,23
2,34,95,23
2,34,97,50
2,43,85,27
2,34,70,223
2,41,88,9
2,34,85,239
2,46,87,13
2,43,85,9
2,38,92,15
2,50,84,1
2,34,95,30
2,46,84,3
2,36,86,32
2,48,77,5
2,38,97,36
2,50,80,9
2,31,80,78
2,33,87,118
2,33,81,31
2,35,71,3
2,38,68,118
2,38,79,70
2,35,83,58
2,33,84,64
2,30,81,118
2,26,80,4
2,38,86,57
2,30,101,69
2,31,97,20
2,32,87,12
2,33,81,10
2,33,102,25
2,33,98,18
2,45,80,40
2,33,85,0
2,33,91,74
2,45,80,3
2,35,119,31088
2,33,125,12
2,35,100,17
2,37,74,12
2,30,87,472
2,30,86,32
2,33,102,11
2,35,98,7
2,37,93,9
2,30,95,467
2,30,82,19
2,33,95,8
2,35,83,18
2,37,81,963
2,30,90,0
2,33,93,8
2,32,88,234
2,30,91,0
2,40,104,12
2,42,100,9
2,35,100,8
2,33,95,959
2,59,67,3965
2,59,57,13
2,57,66,89
2,59,70,3
2,57,73,93
2,54,63,47
2,52,66,61
2,50,68,72
2,49,77,90
2,47,74,91
2,45,70,91
2,40,56,199
2,42,75,29
2,40,79,3
2,38,66,1
2,35,62,8
2,44,60,48960
2,49,81,0
2,44,54,160
2,52,81,0
2,42,60,160
2,49,81,0
2,59,81,160
2,44,61,0
2,56,81,156
2,44,61,4
2,42,61,160
2,49,83,7
2,37,81,160
2,39,80,6
2,42,81,10
2,44,81,10
2,47,82,10
2,49,81,240
2,54,85,137
2,59,81,5
2,56,83,155
2,57,81,3
2,56,81,48
2,52,83,1
2,49,81,42
2,47,81,0
2,44,81,40
2,40,81,5
2,42,81,320
2,35,81,160
2,47,81,0
2,37,81,320
2,49,81,0
2,32,81,160
2,44,81,0
2,33,81,320
2,45,81,0
2,35,81,160
2,47,81,0
2,35,82,320
2,37,81,2
2,40,81,120
2,40,81,80
2,40,81,320
2,42,81,120
2,35,81,120
2,35,81,320
2,37,81,120
2,32,81,120
2,44,81,0
2,33,81,320
2,45,81,0
2,35,81,160
2,47,81,0
2,35,81,320
2,37,81,120
2,40,81,119
2,37,97,80
2,42,101,238
2,44,93,0
2,47,91,33
2,49,77,12
2,44,100,113
2,42,104,353
2,49,74,32
2,37,81,45
2,42,81,240
2,44,81,2
2,47,80,17
2,44,81,8
2,45,81,80
2,42,79,240
2,49,83,16
2,49,81,107
2,49,81,80
2,37,81,0
2,33,81,320
2,45,81,0
2,35,81,160
2,47,81,0
2,39,81,320
2,45,81,0
2,37,81,160
2,49,81,0
2,40,81,320
2,52,81,0
2,44,81,156
2,42,81,324
2,37,116,14
2,40,108,281
2,39,110,143
2,42,116,286
2,40,99,59
2,44,112,112
2,44,103,78
2,44,89,78
2,42,107,18
2,42,95,68
2,37,110,31
2,40,98,207
2,39,110,175
2,42,113,124
2,23,86,23785
2,28,77,16732
3,67,90,86635
3,67,88,147
3,67,98,153
3,65,90,169
3,67,98,188
3,67,90,70
3,67,74,23
3,67,100,164
3,64,93,48
3,64,98,51
3,64,104,43
3,67,106,242
3,67,108,145
3,67,108,191
3,65,98,144
3,67,100,261
3,67,98,106
3,67,98,115
3,67,90,56
3,64,88,56
3,64,95,18
3,64,95,32
3,67,97,473
3,67,97,168
3,65,95,163
3,65,93,192
3,67,89,134
3,67,101,76
3,67,91,207
3,67,89,60
3,67,101,141
3,66,94,42
3,64,88,112
3,66,90,23
3,66,91,115
3,66,80,131
3,67,97,125
3,66,81,24
3,64,78,86
3,66,85,21
3,62,113,39
3,62,91,103
3,64,95,85
3,66,95,454
3,66,90,78
3,67,70,3
3,66,68,90
3,64,67,124
3,66,80,1207
3,66,68,56
3,66,87,62
3,68,97,64
3,68,83,35
3,68,80,49
3,66,74,180
3,66,79,52
3,64,91,99
3,64,87,107
3,63,79,120
3,63,72,89
3,68,70,312
3,68,77,26
3,68,75,22
3,68,66,19
3,68,75,19
3,66,86,2
3,66,69,30
3,66,75,23
3,64,89,1
3,64,74,37
3,63,73,12
3,68,79,195
3,68,80,35
3,68,78,24
3,68,77,24
3,68,68,15
3,68,67,30
3,66,68,8
3,66,80,12
3,66,61,3
3,66,61,8
3,64,84,13
3,64,78,43
3,63,77,227
3,63,77,24
3,66,75,3
3,64,89,120
3,63,80,117
4,55,85,0
4,67,89,0
4,66,113,174
4,59,104,785
4,69,106,165
4,40,88,20
4,54,60,279
4,66,96,72
4,55,85,22
4,67,89,0
4,66,113,174
4,59,104,785
4,69,106,165
4,45,112,20
4,55,60,279
4,67,96,72
4,55,85,22
4,67,89,0
4,66,113,174
4,59,104,785
4,69,106,165
4,45,112,20
4,74,87,10
4,50,76,36
4,62,94,8
4,76,87,279
4,64,96,67
4,55,85,18
4,67,89,0
4,66,113,174
4,59,104,785
4,69,106,165
4,45,112,20
4,66,110,91
4,54,110,4
4,53,73,96
4,65,85,5
4,52,92,31
4,64,95,0
4,51,89,43
4,63,88,5
4,50,63,39
4,62,61,2
4,62,78,85
4,50,76,0
4,50,70,20
4,62,68,3
4,55,85,13
4,67,89,0
4,66,113,174
4,59,104,785
4,69,106,165
4,45,112,20
4,67,111,96
4,55,110,26
4,66,56,115
4,54,55,16
4,66,69,30
4,54,70,29
4,55,85,22
4,67,89,0
4,66,113,174
4,59,104,785
4,69,106,165
4,45,112,20
4,74,87,10
4,50,76,36
4,62,94,8
4,76,87,294
4,64,96,52
4,50,88,1447
4,57,70,6
4,62,90,9
4,66,104,8
4,66,72,2
4,62,77,6
4,57,70,7
4,50,83,7
4,50,100,1
4,57,71,7
