track,note,velocity,time
1,36,121,0
1,36,0,27
1,85,122,92
1,85,0,12
1,36,107,47
1,36,0,23
1,36,121,39
1,36,0,26
1,85,122,94
1,85,0,15
1,36,115,105
1,36,0,24
1,85,122,91
1,85,0,16
1,36,115,45
1,36,0,22
1,36,118,42
1,36,0,21
1,85,122,102
1,85,0,18
1,36,115,99
1,36,0,32
1,85,121,88
1,85,0,19
1,36,107,43
1,36,0,27
1,36,121,30
1,36,0,27
1,85,122,89
1,85,0,19
1,36,118,106
1,36,0,30
1,85,122,93
1,85,0,15
1,36,118,49
1,36,0,22
1,36,118,31
1,36,0,22
1,85,125,100
1,85,0,16
1,36,121,102
1,36,0,27
1,85,122,92
1,85,0,12
1,36,107,47
1,36,0,23
1,36,121,39
1,36,0,26
1,85,122,94
1,85,0,15
1,36,115,105
1,36,0,24
1,85,122,91
1,85,0,16
1,36,115,45
1,36,0,22
1,36,118,42
1,36,0,21
1,85,122,102
1,85,0,18
1,36,115,99
1,36,0,32
1,85,121,88
1,85,0,19
1,36,107,43
1,36,0,27
1,36,121,30
1,36,0,27
1,85,122,89
1,85,0,19
1,36,118,106
1,36,0,30
1,85,122,93
1,85,0,15
1,36,118,49
1,36,0,22
1,36,118,31
1,36,0,22
1,85,125,100
1,85,0,16
1,36,121,102
1,36,0,27
1,85,122,92
1,85,0,12
1,36,107,47
1,36,0,23
1,36,121,39
1,36,0,26
1,85,122,94
1,85,0,15
1,36,115,105
1,36,0,24
1,85,122,91
1,85,0,16
1,36,115,45
1,36,0,22
1,36,118,42
1,36,0,21
1,85,122,102
1,85,0,18
1,36,115,99
1,36,0,32
1,85,121,88
1,85,0,19
1,36,107,43
1,36,0,27
1,36,121,30
1,36,0,27
1,85,122,89
1,85,0,19
1,36,118,106
1,36,0,30
1,85,122,93
1,85,0,15
1,36,118,49
1,36,0,22
1,36,118,31
1,36,0,22
1,85,125,100
1,85,0,16
1,36,121,102
1,36,0,27
1,85,122,92
1,85,0,12
1,36,107,47
1,36,0,23
1,36,121,39
1,36,0,26
1,85,122,94
1,85,0,15
1,36,115,105
1,36,0,24
1,85,122,91
1,85,0,16
1,36,115,45
1,36,0,22
1,36,118,42
1,36,0,21
1,85,122,102
1,85,0,18
1,36,115,99
1,36,0,32
1,85,121,88
1,85,0,19
1,36,107,43
1,36,0,27
1,36,121,30
1,36,0,27
1,85,122,89
1,85,0,19
1,36,118,106
1,36,0,30
1,85,122,93
1,85,0,15
1,36,118,49
1,36,0,22
1,36,118,31
1,36,0,22
1,85,125,100
1,85,0,16
1,36,121,102
1,36,0,27
1,85,122,92
1,85,0,12
1,36,107,47
1,36,0,23
1,36,121,39
1,36,0,26
1,85,122,94
1,85,0,15
1,36,115,105
1,36,0,24
1,85,122,91
1,85,0,16
1,36,115,45
1,36,0,22
1,36,118,42
1,36,0,21
1,85,122,102
1,85,0,18
1,36,115,99
1,36,0,32
1,85,121,88
1,85,0,19
1,36,107,43
1,36,0,27
1,36,121,30
1,36,0,27
1,85,122,89
1,85,0,19
1,36,118,106
1,36,0,30
1,85,122,93
1,85,0,15
1,36,118,49
1,36,0,22
1,36,118,31
1,36,0,22
1,85,125,100
1,85,0,16
1,36,121,102
1,36,0,27
1,85,122,92
1,85,0,12
1,36,107,47
1,36,0,23
1,36,121,39
1,36,0,26
1,85,122,94
1,85,0,15
1,36,115,105
1,36,0,24
1,85,122,91
1,85,0,16
1,36,115,45
1,36,0,22
1,36,118,42
1,36,0,21
1,85,122,102
1,85,0,18
1,36,115,99
1,36,0,32
1,85,121,88
1,85,0,19
1,36,107,43
1,36,0,27
1,36,121,30
1,36,0,27
1,85,122,89
1,85,0,19
1,36,118,106
1,36,0,30
1,85,122,93
1,85,0,15
1,36,118,49
1,36,0,22
1,36,118,31
1,36,0,22
1,85,125,100
1,85,0,16
1,36,121,102
1,36,0,27
1,85,122,92
1,85,0,12
1,36,107,47
1,36,0,23
1,36,121,39
1,36,0,26
1,85,122,94
1,85,0,15
1,36,115,105
1,36,0,24
1,85,122,91
1,85,0,16
1,36,115,45
1,36,0,22
1,36,118,42
1,36,0,21
1,85,122,102
1,85,0,18
1,36,115,99
1,36,0,32
1,85,121,88
1,85,0,19
1,36,107,43
1,36,0,27
1,36,121,30
1,36,0,27
1,85,122,89
1,85,0,19
1,36,118,106
1,36,0,30
1,85,122,93
1,85,0,15
1,36,118,49
1,36,0,22
1,36,118,31
1,36,0,22
1,85,125,100
1,85,0,16
1,36,121,102
1,36,0,27
1,85,122,92
1,85,0,12
1,36,107,47
1,36,0,23
1,36,121,39
1,36,0,26
1,85,122,94
1,85,0,15
1,36,115,105
1,36,0,24
1,85,122,91
1,85,0,16
1,36,115,45
1,36,0,22
1,36,118,42
1,36,0,21
1,85,122,102
1,85,0,18
1,36,115,99
1,36,0,32
1,85,121,88
1,85,0,19
1,36,107,43
1,36,0,27
1,36,121,30
1,36,0,27
1,85,122,89
1,85,0,19
1,36,118,106
1,36,0,30
1,85,122,93
1,85,0,15
1,36,118,49
1,36,0,22
1,36,118,31
1,36,0,22
1,85,125,100
1,85,0,16
1,36,121,102
1,36,0,27
1,85,122,92
1,85,0,12
1,36,107,47
1,36,0,23
1,36,121,39
1,36,0,26
1,85,122,94
1,85,0,15
1,36,115,105
1,36,0,24
1,85,122,91
1,85,0,16
1,36,115,45
1,36,0,22
1,36,118,42
1,36,0,21
1,85,122,102
1,85,0,18
1,36,115,99
1,36,0,32
1,85,121,88
1,85,0,19
1,36,107,43
1,36,0,27
1,36,121,30
1,36,0,27
1,85,122,89
1,85,0,19
1,36,118,106
1,36,0,30
1,85,122,93
1,85,0,15
1,36,118,49
1,36,0,22
1,36,118,31
1,36,0,22
1,85,125,100
1,85,0,16
1,36,121,102
1,36,0,27
1,85,122,92
1,85,0,12
1,36,107,47
1,36,0,23
1,36,121,39
1,36,0,26
1,85,122,94
1,85,0,15
1,36,115,105
1,36,0,24
1,85,122,91
1,85,0,16
1,36,115,45
1,36,0,22
1,36,118,42
1,36,0,21
1,85,122,102
1,85,0,18
1,36,115,99
1,36,0,32
1,85,121,88
1,85,0,19
1,36,107,43
1,36,0,27
1,36,121,30
1,36,0,27
1,85,122,89
1,85,0,19
1,36,118,106
1,36,0,30
1,85,122,93
1,85,0,15
1,36,118,49
1,36,0,22
1,36,118,31
1,36,0,22
1,85,125,100
1,85,0,16
1,36,121,102
1,36,0,27
1,85,122,92
1,85,0,12
1,36,107,47
1,36,0,23
1,36,121,39
1,36,0,26
1,85,122,94
1,85,0,15
1,36,115,105
1,36,0,24
1,85,122,91
1,85,0,16
1,36,115,45
1,36,0,22
1,36,118,42
1,36,0,21
1,85,122,102
1,85,0,18
1,36,115,99
1,36,0,32
1,85,121,88
1,85,0,19
1,36,107,43
1,36,0,27
1,36,121,30
1,36,0,27
1,85,122,89
1,85,0,19
1,36,118,106
1,36,0,30
1,85,122,93
1,85,0,15
1,36,118,49
1,36,0,22
1,36,118,31
1,36,0,22
1,85,125,100
1,85,0,16
1,36,121,102
1,36,0,27
1,85,122,92
1,85,0,12
1,36,107,47
1,36,0,23
1,36,121,39
1,36,0,26
1,85,122,94
1,85,0,15
1,36,115,105
1,36,0,24
1,85,122,91
1,85,0,16
1,36,115,45
1,36,0,22
1,36,118,42
1,36,0,21
1,85,122,102
1,85,0,18
1,36,115,99
1,36,0,32
1,85,121,88
1,85,0,19
1,36,107,43
1,36,0,27
1,36,121,30
1,36,0,27
1,85,122,89
1,85,0,19
1,36,118,106
1,36,0,30
1,85,122,93
1,85,0,15
1,36,118,49
1,36,0,22
1,36,118,31
1,36,0,22
1,85,125,100
1,85,0,16
1,36,121,102
1,36,0,27
1,85,122,92
1,85,0,12
1,36,107,47
1,36,0,23
1,36,121,39
1,36,0,26
1,85,122,94
1,85,0,15
1,36,115,105
1,36,0,24
1,85,122,91
1,85,0,16
1,36,115,45
1,36,0,22
1,36,118,42
1,36,0,21
1,85,122,102
1,85,0,18
1,36,115,99
1,36,0,32
1,85,121,88
1,85,0,19
1,36,107,43
1,36,0,27
1,36,121,30
1,36,0,27
1,85,122,89
1,85,0,19
1,36,118,106
1,36,0,30
1,85,122,93
1,85,0,15
1,36,118,49
1,36,0,22
1,36,118,31
1,36,0,22
1,85,125,100
1,85,0,16
1,36,121,102
1,36,0,27
1,85,122,92
1,85,0,12
1,36,107,47
1,36,0,23
1,36,121,39
1,36,0,26
1,85,122,94
1,85,0,15
1,36,115,105
1,36,0,24
1,85,122,91
1,85,0,16
1,36,115,45
1,36,0,22
1,36,118,42
1,36,0,21
1,85,122,102
1,85,0,18
1,36,115,99
1,36,0,32
1,85,121,88
1,85,0,19
1,36,107,43
1,36,0,27
1,36,121,30
1,36,0,27
1,85,122,89
1,85,0,19
1,36,118,106
1,36,0,30
1,85,122,93
1,85,0,15
1,36,118,49
1,36,0,22
1,36,118,31
1,36,0,22
1,85,125,100
1,85,0,16
1,36,121,102
1,36,0,27
1,85,122,92
1,85,0,12
1,36,107,47
1,36,0,23
1,36,121,39
1,36,0,26
1,85,122,94
1,85,0,15
1,36,115,105
1,36,0,24
1,85,122,91
1,85,0,16
1,36,115,45
1,36,0,22
1,36,118,42
1,36,0,21
1,85,122,102
1,85,0,18
1,36,115,99
1,36,0,32
1,85,121,88
1,85,0,19
1,36,107,43
1,36,0,27
1,36,121,30
1,36,0,27
1,85,122,89
1,85,0,19
1,36,118,106
1,36,0,30
1,85,122,93
1,85,0,15
1,36,118,49
1,36,0,22
1,36,118,31
1,36,0,22
1,85,125,100
1,85,0,16
1,36,121,102
1,36,0,27
1,85,122,92
1,85,0,12
1,36,107,47
1,36,0,23
1,36,121,39
1,36,0,26
1,85,122,94
1,85,0,15
1,36,115,105
1,36,0,24
1,85,122,91
1,85,0,16
1,36,115,45
1,36,0,22
1,36,118,42
1,36,0,21
1,85,122,102
1,85,0,18
1,36,115,99
1,36,0,32
1,85,121,88
1,85,0,19
1,36,107,43
1,36,0,27
1,36,121,30
1,36,0,27
1,85,122,89
1,85,0,19
1,36,118,106
1,36,0,30
1,85,122,93
1,85,0,15
1,36,118,49
1,36,0,22
1,36,118,31
1,36,0,22
1,85,125,100
1,85,0,16
1,36,121,102
1,36,0,27
1,85,122,92
1,85,0,12
1,36,107,47
1,36,0,23
1,36,121,39
1,36,0,26
1,85,122,94
1,85,0,15
1,36,115,105
1,36,0,24
1,85,122,91
1,85,0,16
1,36,115,45
1,36,0,22
1,36,118,42
1,36,0,21
1,85,122,102
1,85,0,18
1,36,115,99
1,36,0,32
1,85,121,88
1,85,0,19
1,36,107,43
1,36,0,27
1,36,121,30
1,36,0,27
1,85,122,89
1,85,0,19
1,36,118,106
1,36,0,30
1,85,122,93
1,85,0,15
1,36,118,49
1,36,0,22
1,36,118,31
1,36,0,22
1,85,125,100
1,85,0,16
1,36,121,102
1,36,0,27
1,85,122,92
1,85,0,12
1,36,107,47
1,36,0,23
1,36,121,39
1,36,0,26
1,85,122,94
1,85,0,15
1,36,115,105
1,36,0,24
1,85,122,91
1,85,0,16
1,36,115,45
1,36,0,22
1,36,118,42
1,36,0,21
1,85,122,102
1,85,0,18
1,36,115,99
1,36,0,32
1,85,121,88
1,85,0,19
1,36,107,43
1,36,0,27
1,36,121,30
1,36,0,27
1,85,122,89
1,85,0,19
1,36,118,106
1,36,0,30
1,85,122,93
1,85,0,15
1,36,118,49
1,36,0,22
1,36,118,31
1,36,0,22
1,85,125,100
1,85,0,16
1,36,121,102
1,36,0,27
1,85,122,92
1,85,0,12
1,36,107,47
1,36,0,23
1,36,121,39
1,36,0,26
1,85,122,94
1,85,0,15
1,36,121,105
1,36,0,27
1,85,122,92
1,85,0,12
1,36,107,47
1,36,0,23
1,36,121,39
1,36,0,26
1,85,122,94
1,85,0,15
1,36,115,16
1,36,0,24
1,85,122,34
1,85,0,16
1,36,115,16
1,36,0,4
1,36,118,19
1,36,0,20
1,85,122,63
1,85,0,18
1,36,115,0
1,36,0,10
1,85,121,6
1,85,0,19
1,36,107,13
1,36,0,27
1,36,121,25
1,36,0,5
1,85,122,29
1,85,0,8
1,36,118,25
1,36,0,14
1,85,122,23
1,85,0,4
1,36,118,33
1,36,0,4
1,36,118,16
1,36,0,7
1,85,125,24
1,85,0,7
1,36,121,0
1,36,0,3
1,85,122,24
1,85,0,2
1,36,107,13
1,36,0,3
1,36,121,39
1,36,0,14
1,85,122,0
1,85,0,6
2,41,70,0
2,48,61,60
2,53,70,60
2,48,0,14
2,48,58,46
2,41,0,6
2,41,75,54
2,48,0,6
2,53,0,51
2,48,63,3
2,53,72,60
2,48,0,14
2,48,64,46
2,41,0,19
2,48,0,41
2,53,0,0
2,37,67,0
2,41,57,60
2,49,64,60
2,41,0,16
2,37,0,14
2,41,66,30
2,37,62,60
2,41,0,17
2,37,57,43
2,49,0,11
2,37,0,2
2,37,0,47
2,41,69,0
2,49,78,60
2,41,0,16
2,49,0,44
2,41,70,0
2,48,61,60
2,53,70,60
2,48,0,14
2,48,58,46
2,41,0,6
2,41,75,54
2,48,0,6
2,53,0,51
2,48,63,3
2,53,72,60
2,48,0,14
2,48,64,46
2,41,0,19
2,48,0,41
2,53,0,0
2,37,74,0
2,41,59,60
2,49,78,60
2,37,0,6
2,41,0,10
2,41,55,44
2,37,75,60
2,41,0,12
2,41,64,48
2,49,0,9
2,49,69,51
2,37,0,17
2,37,52,43
2,41,0,8
2,49,0,40
2,37,0,7
2,37,74,5
2,41,59,60
2,49,78,60
2,37,0,6
2,41,0,10
2,41,55,44
2,37,75,60
2,41,0,12
2,41,64,48
2,49,0,9
2,49,69,51
2,37,0,17
2,37,52,43
2,41,0,8
2,49,0,40
2,37,0,7
2,41,70,5
2,48,61,60
2,53,70,60
2,48,0,14
2,48,58,46
2,41,0,6
2,41,75,54
2,48,0,6
2,53,0,51
2,48,63,3
2,53,72,60
2,48,0,14
2,48,64,46
2,41,0,19
2,48,0,41
2,53,0,0
2,37,77,0
2,41,59,60
2,49,73,60
2,41,0,12
2,41,64,48
2,37,0,5
2,37,63,55
2,41,0,12
2,41,56,48
2,49,0,18
2,49,65,42
2,41,0,4
2,41,66,56
2,37,0,36
2,41,0,24
2,49,0,0
2,41,70,0
2,48,61,60
2,53,70,60
2,48,0,14
2,48,58,46
2,41,0,6
2,41,75,54
2,48,0,6
2,53,0,51
2,48,63,3
2,53,72,60
2,48,0,14
2,48,64,46
2,41,0,19
2,48,0,41
2,53,0,0
2,37,77,0
2,41,59,60
2,49,73,60
2,41,0,12
2,41,64,48
2,37,0,5
2,37,63,55
2,41,0,12
2,41,56,48
2,49,0,18
2,49,65,42
2,41,0,4
2,41,66,56
2,37,0,36
2,41,0,24
2,49,0,0
2,41,77,0
2,48,59,60
2,53,73,60
2,48,0,12
2,48,64,48
2,41,0,5
2,41,63,55
2,48,0,12
2,48,56,48
2,53,0,18
2,53,65,42
2,48,0,4
2,48,66,56
2,41,0,36
2,48,0,24
2,53,0,0
2,37,66,0
2,49,63,60
2,37,0,60
2,41,71,0
2,49,0,19
2,49,70,41
2,41,0,42
2,37,68,18
2,41,56,60
2,49,0,2
2,49,76,58
2,41,0,15
2,41,55,45
2,37,0,2
2,41,0,58
2,49,0,0
2,41,77,0
2,48,59,60
2,53,73,60
2,48,0,12
2,48,64,48
2,41,0,5
2,41,63,55
2,48,0,12
2,48,56,48
2,53,0,18
2,53,65,42
2,48,0,4
2,48,66,56
2,41,0,36
2,48,0,24
2,53,0,0
2,37,74,0
2,41,59,60
2,49,78,60
2,37,0,6
2,41,0,10
2,41,55,44
2,37,75,60
2,41,0,12
2,41,64,48
2,49,0,9
2,49,69,51
2,37,0,17
2,37,52,43
2,41,0,8
2,49,0,40
2,37,0,7
2,43,70,5
2,50,61,60
2,55,70,60
2,50,0,14
2,50,58,46
2,43,0,6
2,43,75,54
2,50,0,6
2,55,0,51
2,50,63,3
2,55,72,60
2,50,0,14
