track,note,velocity,time
0,56,92,94
0,60,117,0
0,65,54,0
0,68,55,0
0,68,92,0
0,68,44,0
0,72,51,0
0,84,60,0
0,96,44,0
0,68,0,45
0,84,0,2
0,65,44,49
0,65,0,45
0,68,44,51
0,68,0,45
0,65,44,51
0,65,0,45
0,68,44,51
0,68,0,45
0,65,44,51
0,65,0,45
0,60,0,37
0,56,0,3
0,68,0,0
0,87,64,5
0,56,83,1
0,63,108,0
0,68,83,0
0,68,44,5
0,68,0,45
0,87,0,1
0,65,44,50
0,65,0,45
0,73,54,34
0,63,0,8
0,72,0,0
0,56,0,3
0,68,0,0
0,85,64,4
0,68,44,2
0,58,70,1
0,61,95,0
0,70,70,0
0,68,0,44
0,85,0,18
0,65,44,33
0,65,0,45
0,68,44,51
0,68,0,45
0,65,44,51
0,65,0,45
0,61,0,43
0,56,83,3
0,58,0,0
0,60,108,0
0,68,83,0
0,70,0,0
0,68,44,5
0,84,64,4
0,68,0,41
0,84,0,17
0,65,44,34
0,65,0,45
0,68,44,51
0,68,0,45
0,65,44,51
0,65,0,45
0,73,0,22
0,67,54,3
0,70,58,1
0,63,55,2
0,65,0,4
0,68,0,4
0,60,0,4
0,56,0,3
0,68,0,0
0,55,74,3
0,58,99,0
0,67,74,0
0,67,44,5
0,96,0,0
0,82,60,3
0,94,37,2
0,67,0,40
0,82,0,22
0,65,44,29
0,65,0,45
0,67,44,51
0,67,0,45
0,65,44,51
0,65,0,45
0,67,44,51
0,67,0,45
0,65,44,51
0,58,0,17
0,55,0,3
0,67,0,0
0,65,0,25
0,55,74,45
0,63,99,0
0,67,74,0
0,67,44,6
0,87,60,1
0,67,0,44
0,87,0,13
0,65,44,38
0,65,0,45
0,72,56,18
0,70,0,5
0,63,0,21
0,84,60,2
0,55,0,1
0,67,0,0
0,56,70,2
0,60,95,0
0,68,70,0
0,67,44,2
0,67,0,45
0,84,0,44
0,65,44,7
0,65,0,45
0,67,44,51
0,67,0,45
0,65,44,51
0,65,0,45
0,60,0,36
0,56,0,3
0,68,0,0
0,55,74,5
0,58,99,0
0,67,74,0
0,67,44,7
0,82,55,6
0,67,0,39
0,82,0,45
0,65,44,6
0,65,0,45
0,67,44,51
0,67,0,45
0,65,44,51
0,65,0,45
0,63,0,23
0,72,0,4
0,67,0,3
0,68,58,2
0,65,57,3
0,61,54,1
0,58,0,4
0,94,0,2
0,55,0,1
0,67,0,0
0,92,38,1
0,53,70,4
0,56,95,0
0,65,70,0
0,68,44,3
0,80,56,3
0,68,0,42
0,80,0,28
0,65,44,23
0,65,0,45
0,68,44,51
0,68,0,45
0,65,44,51
0,65,0,45
0,56,0,46
0,53,0,3
0,65,0,0
0,68,44,2
0,68,0,45
0,53,74,49
0,53,99,0
0,65,74,0
0,65,44,2
0,77,60,5
0,65,0,40
0,77,0,16
0,53,0,26
0,53,0,3
0,65,0,0
0,68,44,6
0,79,60,3
0,53,74,1
0,55,99,0
0,65,74,0
0,79,0,39
0,68,0,2
0,55,0,42
0,53,0,3
0,65,0,0
0,65,44,6
0,51,74,2
0,56,99,0
0,63,74,0
0,80,60,6
0,65,0,37
0,80,0,21
0,61,0,8
0,63,56,3
0,65,0,2
0,60,55,1
0,68,44,16
0,68,0,45
0,63,44,51
0,63,0,45
0,68,44,51
0,56,0,7
0,51,0,3
0,63,0,0
0,68,0,35
0,63,44,51
0,51,91,1
0,63,0,44
0,51,0,42
0,68,44,9
0,80,52,0
0,56,95,5
0,68,0,40
0,80,0,6
0,56,0,38
0,82,55,6
0,63,44,1
0,58,95,1
0,63,0,44
0,82,0,6
0,58,0,34
0,68,44,11
0,84,55,0
0,60,99,3
0,68,0,42
0,84,0,0
0,63,44,51
0,63,0,45
0,60,0,28
0,72,58,3
0,60,0,6
0,92,0,2
0,56,82,10
0,60,107,0
0,68,82,0
0,68,44,2
0,96,38,0
0,84,55,2
0,68,0,43
0,84,0,6
0,67,44,45
0,67,0,45
0,68,44,51
0,68,0,45
0,67,44,51
0,67,0,45
0,68,44,51
0,68,0,45
0,67,44,51
0,67,0,45
0,68,44,51
0,68,0,45
0,60,0,38
0,56,0,3
0,68,0,0
0,82,55,9
0,55,74,1
0,58,99,0
0,67,74,0
0,67,44,0
0,67,0,45
0,82,0,7
0,68,0,28
0,70,53,0
0,72,0,0
0,67,53,1
0,58,0,8
0,55,0,3
0,67,0,0
0,96,0,1
0,55,70,2
0,58,95,0
0,67,70,0
0,68,44,1
0,82,55,0
0,94,38,1
0,68,0,44
0,67,44,51
0,82,0,9
0,67,0,36
0,68,44,51
0,68,0,45
0,67,44,51
0,67,0,45
0,68,44,51
0,68,0,45
0,67,44,51
0,67,0,45
0,68,44,51
0,68,0,45
0,58,0,19
0,55,0,3
0,67,0,0
0,67,44,29
0,67,0,45
0,70,0,35
0,63,0,3
0,67,0,2
0,65,54,1
0,68,55,0
0,72,51,0
0,94,0,7
0,35,124,3
0,53,45,0
0,56,92,0
0,60,117,0
0,68,92,0
0,68,44,0
0,84,60,0
0,35,0,4
0,84,70,2
0,68,0,39
0,84,0,2
0,65,44,49
0,65,0,45
0,35,124,51
0,68,44,0
0,35,0,4
0,68,0,41
0,65,44,51
0,65,0,45
0,35,124,51
0,68,44,0
0,35,0,4
0,68,0,41
0,65,44,51
0,60,0,25
0,56,0,3
0,68,0,0
0,65,0,17
0,84,0,44
0,87,64,1
0,87,67,0
0,56,83,1
0,63,108,0
0,68,83,0
0,35,124,5
0,68,44,0
0,35,0,4
0,68,0,41
0,87,0,1
0,65,44,50
0,65,0,45
0,72,0,32
0,73,54,2
0,87,0,6
0,63,0,2
0,85,65,1
0,56,0,2
0,68,0,0
0,85,64,4
0,35,124,2
0,49,46,0
0,53,0,0
0,68,44,0
0,58,70,1
0,61,95,0
0,70,70,0
0,35,0,3
0,68,0,41
0,85,0,18
0,65,44,33
0,65,0,45
0,35,124,51
0,68,44,0
0,35,0,4
0,68,0,41
0,65,44,51
0,65,0,45
0,85,0,32
0,84,65,10
0,61,0,1
0,56,83,3
0,58,0,0
0,60,108,0
0,68,83,0
0,70,0,0
0,35,124,5
0,68,44,0
0,35,0,4
0,84,64,0
0,68,0,41
0,84,0,17
0,65,44,34
0,65,0,45
0,35,124,51
0,68,44,0
0,35,0,4
0,68,0,41
0,65,44,51
0,65,0,45
0,65,0,22
0,73,0,0
0,67,54,3
0,68,0,1
0,70,58,0
0,63,55,2
0,49,0,11
0,60,0,1
0,51,44,2
0,56,0,1
0,68,0,0
0,55,74,3
0,58,99,0
0,67,74,0
0,84,0,3
0,82,69,1
0,35,124,1
0,67,44,0
0,82,60,3
0,35,0,1
0,67,0,41
0,82,0,22
0,65,44,29
0,65,0,45
0,35,124,51
0,67,44,0
0,35,0,4
0,67,0,41
0,65,44,51
0,65,0,45
0,35,124,51
0,67,44,0
0,35,0,4
0,67,0,41
0,65,44,51
0,58,0,17
0,55,0,3
0,67,0,0
0,65,0,25
0,55,74,45
0,63,99,0
0,67,74,0
0,82,0,3
0,35,124,3
0,67,44,0
0,87,70,0
0,87,60,1
0,35,0,3
0,67,0,41
0,87,0,13
0,65,44,38
0,65,0,45
0,72,56,18
0,70,0,5
0,63,0,21
0,51,0,1
0,84,60,1
0,87,0,0
0,55,0,1
0,67,0,0
0,56,70,2
0,60,95,0
0,68,70,0
0,84,66,1
0,35,124,1
0,67,44,0
0,48,46,1
0,35,0,3
0,67,0,41
0,84,0,4
0,65,44,47
0,65,0,45
0,35,124,51
0,67,44,0
0,35,0,4
0,67,0,41
0,65,44,51
0,65,0,45
0,60,0,36
0,56,0,3
0,68,0,0
0,55,74,5
0,58,99,0
0,67,74,0
0,84,0,4
0,82,69,2
0,35,124,1
0,67,44,0
0,35,0,4
0,82,55,2
0,67,0,39
0,82,0,4
0,65,44,47
0,65,0,45
0,35,124,51
0,67,44,0
0,35,0,4
0,67,0,41
0,65,44,51
0,65,0,45
0,63,0,23
0,72,0,4
0,67,0,3
0,68,58,2
0,65,57,3
0,61,54,1
0,58,0,4
0,82,0,2
0,55,0,1
0,67,0,0
0,80,69,3
0,53,70,2
0,56,95,0
0,65,70,0
0,48,0,2
0,35,124,1
0,49,45,0
0,68,44,0
0,80,56,3
0,35,0,1
0,68,0,41
0,80,0,12
0,65,44,39
0,65,0,45
0,35,124,51
0,68,44,0
0,35,0,4
0,68,0,41
0,65,44,51
0,65,0,45
0,56,0,46
0,53,0,3
0,65,0,0
0,35,124,2
0,68,44,0
0,35,0,4
0,68,0,41
0,53,74,49
0,53,99,0
0,65,74,0
0,65,44,2
0,77,60,5
0,65,0,40
0,77,0,16
0,53,0,26
0,53,0,3
0,65,0,0
0,35,124,6
0,68,44,0
0,79,60,3
0,35,0,1
0,53,74,0
0,55,99,0
0,65,74,0
0,79,0,39
0,68,0,2
0,55,0,42
0,53,0,3
0,65,0,0
0,65,44,6
0,51,74,2
0,56,99,0
0,63,74,0
0,80,60,6
0,65,0,37
0,80,0,21
0,61,0,8
0,63,56,3
0,65,0,2
0,60,55,1
0,49,0,3
0,44,45,3
0,35,124,10
0,68,44,0
0,35,0,4
0,68,0,41
0,63,44,51
0,63,0,45
0,35,124,51
0,68,44,0
0,35,0,4
0,56,0,3
0,51,0,3
0,63,0,0
0,68,0,35
0,63,44,51
0,51,91,1
0,56,66,0
0,68,66,0
0,63,0,44
0,80,0,39
0,51,0,3
0,56,0,3
0,68,0,0
0,80,65,4
0,35,124,2
0,68,44,0
0,80,52,0
0,35,0,4
0,56,70,1
0,56,95,0
0,68,70,0
0,68,0,40
0,80,0,6
0,56,0,38
0,56,0,3
0,68,0,0
0,80,0,1
0,82,55,2
0,63,44,1
0,56,70,1
0,58,95,0
0,68,70,0
0,82,70,3
0,63,0,41
0,82,0,6
0,58,0,34
0,56,0,3
0,68,0,0
0,35,124,8
0,68,44,0
0,82,0,0
0,84,55,0
0,84,69,2
0,56,74,1
0,60,99,0
0,68,74,0
0,35,0,1
0,68,0,41
0,84,0,0
0,63,44,51
0,63,0,45
0,60,0,28
0,72,58,3
0,60,0,6
0,56,0,3
0,68,0,0
0,84,0,3
0,44,0,1
0,51,45,4
0,56,82,1
0,60,107,0
0,68,82,0
0,35,124,2
0,68,44,0
0,84,55,2
0,35,0,2
0,84,69,1
0,68,0,40
0,84,0,6
0,67,44,45
0,67,0,45
0,68,44,51
0,68,0,45
0,67,44,51
0,67,0,45
0,68,44,51
0,68,0,45
0,67,44,51
0,67,0,45
0,68,44,51
0,68,0,45
0,60,0,38
0,56,0,3
0,68,0,0
0,82,55,9
0,82,67,0
0,55,74,1
0,58,99,0
0,67,74,0
0,67,44,0
0,84,0,4
0,67,0,41
0,80,69,6
0,82,0,1
0,82,0,5
0,68,0,23
0,70,53,0
0,72,0,0
0,67,53,1
0,68,44,15
0,80,0,0
0,82,69,4
0,68,0,41
0,58,0,22
0,55,0,3
0,67,0,0
0,55,70,23
0,58,95,0
0,67,70,0
0,82,55,2
0,67,44,1
0,67,0,45
0,82,0,3
0,60,60,48
0,68,44,0
0,68,0,45
0,67,44,51
0,67,0,45
0,68,44,51
0,68,0,45
0,67,44,51
0,67,0,45
0,68,44,51
0,68,0,45
0,35,124,51
0,67,44,0
0,35,0,4
0,67,0,41
0,35,124,11
0,35,0,4
0,58,0,2
0,55,0,3
0,67,0,0
0,51,0,10
0,70,0,5
0,63,0,3
0,67,0,2
0,60,61,1
0,65,63,0
0,82,0,5
0,60,0,2
0,35,124,3
0,41,84,0
0,42,62,0
0,49,58,0
0,54,63,0
0,65,89,0
0,77,57,0
0,77,96,0
0,35,0,4
0,42,0,0
0,49,0,0
0,54,0,0
0,65,71,0
0,72,71,0
0,65,0,44
0,54,42,1
0,54,0,4
0,42,62,3
0,77,0,2
0,77,0,0
0,42,0,2
0,41,0,9
0,38,63,27
0,41,76,0
0,46,53,0
0,54,63,1
0,38,0,3
0,46,0,0
0,60,62,0
0,54,0,1
0,72,0,26
0,65,0,9
0,54,52,8
0,54,0,4
0,38,53,4
0,38,0,4
0,41,0,9
0,60,0,10
0,77,97,8
0,65,88,5
0,77,57,1
0,54,73,2
0,35,124,1
0,39,102,0
0,41,84,0
0,42,62,0
0,65,58,1
0,70,71,1
0,54,0,1
0,35,0,1
0,39,0,0
0,42,0,0
0,54,42,43
0,77,0,0
0,54,0,4
0,65,0,2
0,77,0,1
0,41,0,15
0,54,63,26
0,38,63,1
0,41,76,0
0,46,53,0
0,60,59,1
0,54,0,2
0,38,0,1
0,46,0,0
0,70,0,16
0,65,0,7
0,54,51,20
0,54,0,4
0,38,50,5
0,60,0,0
0,38,0,4
0,41,0,9
0,77,97,19
0,65,89,2
0,77,57,3
0,54,66,2
0,35,124,1
0,41,80,0
0,42,62,0
0,54,0,3
0,65,71,0
0,68,80,0
0,35,0,1
0,42,0,0
0,54,42,43
0,65,0,2
0,77,0,0
0,54,0,2
0,77,0,3
0,42,62,2
0,42,0,4
0,41,0,9
0,54,63,25
0,38,63,2
0,41,76,0
0,46,53,0
0,54,0,2
0,38,0,2
0,46,0,0
0,54,42,42
0,54,0,4
0,38,50,6
0,38,0,4
0,41,0,9
0,54,66,25
0,35,124,2
0,39,102,0
0,41,80,0
0,42,62,0
0,60,62,1
0,54,0,1
0,35,0,2
0,39,0,0
0,42,0,0
0,68,0,12
0,65,0,6
0,54,42,24
0,54,0,4
0,41,0,19
0,60,0,9
0,65,86,7
0,77,95,2
0,77,53,6
0,54,63,1
0,38,63,2
0,41,76,0
0,46,53,0
0,54,0,2
0,65,58,1
0,38,0,1
0,46,0,0
0,70,71,0
0,77,0,36
0,65,0,4
0,54,42,2
0,77,0,0
0,54,0,4
0,38,50,6
0,38,0,4
0,41,0,9
0,54,66,24
0,35,124,3
0,41,84,0
0,42,62,0
0,54,0,1
0,35,0,3
0,42,0,0
0,70,0,33
0,54,48,8
0,54,0,4
0,60,52,1
0,65,0,0
0,42,62,6
0,42,0,4
0,41,0,9
0,65,92,12
0,77,97,2
0,77,61,8
0,54,63,2
0,38,63,3
0,41,76,0
0,46,53,0
0,54,0,1
0,65,62,2
0,72,80,0
0,38,0,1
0,46,0,0
0,60,0,35
0,77,0,1
0,54,52,5
0,65,0,0
0,77,0,3
0,54,0,1
0,38,50,7
0,38,0,4
0,41,0,9
0,54,63,24
0,35,124,3
0,39,102,0
0,41,84,0
0,42,62,0
0,54,0,1
0,35,0,3
0,39,0,0
0,42,0,0
0,72,0,40
0,54,42,1
0,60,52,3
0,54,0,1
0,65,0,9
0,41,0,11
0,65,91,15
0,77,97,3
0,77,53,5
0,54,63,1
0,38,63,3
0,41,72,0
0,46,53,0
0,54,0,1
0,65,58,2
0,38,0,1
0,46,0,0
0,70,71,0
0,65,0,36
0,77,0,0
0,54,52,5
0,77,0,1
0,54,0,3
0,60,0,6
0,38,50,1
0,38,0,4
0,70,0,3
0,41,0,6
0,54,66,24
0,35,124,3
0,41,84,0
0,42,62,0
0,54,0,1
0,68,71,1
0,35,0,2
0,42,0,0
0,54,42,41
0,54,0,4
0,42,62,7
0,42,0,4
0,41,0,9
0,54,63,24
0,38,63,3
0,41,76,0
0,46,53,0
0,54,0,1
0,38,0,3
0,46,0,0
0,54,42,42
0,54,0,4
0,38,50,6
0,38,0,4
0,41,0,9
0,70,85,13
0,82,88,0
0,54,73,11
0,82,53,1
0,35,124,2
0,39,102,0
0,41,80,0
0,42,62,0
0,54,0,1
0,35,0,3
0,39,0,0
0,42,0,0
0,68,78,31
0,82,0,1
0,70,0,2
0,80,81,0
0,54,42,8
0,80,44,0
0,54,0,4
0,68,0,1
0,82,0,6
0,65,0,6
0,41,0,6
0,65,82,15
0,77,86,3
0,80,0,5
0,54,55,2
0,77,44,0
0,65,55,1
0,38,63,1
0,41,76,0
0,46,53,0
0,54,0,2
0,60,52,1
0,38,0,1
0,46,0,0
0,68,0,2
0,80,0,19
0,75,79,7
0,63,75,1
0,77,0,10
0,75,53,2
