track,note,velocity,time
1,56,122,43584
1,68,122,0
1,68,0,160
1,56,0,0
1,58,122,32
1,70,122,0
1,70,0,160
1,58,0,0
1,61,122,32
1,73,122,0
1,73,0,80
1,61,0,0
1,61,122,16
1,73,122,0
1,73,0,80
1,61,0,0
1,65,122,16
1,77,122,0
1,77,0,160
1,65,0,0
1,63,122,32
1,75,122,0
1,75,0,160
1,63,0,0
1,63,122,32
1,75,122,0
1,75,0,80
1,63,0,0
1,65,122,16
1,77,122,0
1,77,0,160
1,65,0,0
1,61,122,32
1,73,122,0
1,73,0,240
1,61,0,0
1,65,122,48
1,73,122,0
1,73,0,160
1,65,0,0
1,65,122,32
1,73,122,0
1,73,0,80
1,65,0,0
1,66,122,16
1,75,122,0
1,75,0,160
1,66,0,0
1,63,122,320
1,70,122,0
1,70,0,240
1,63,0,0
1,65,122,48
1,73,122,0
1,73,0,320
1,65,0,0
1,68,122,160
1,73,122,0
1,73,0,240
1,68,0,0
1,66,122,48
1,73,122,0
1,73,0,320
1,66,0,0
1,59,122,832
1,71,122,0
1,71,0,160
1,59,0,0
1,58,122,32
1,70,122,0
1,70,0,80
1,58,0,0
1,59,122,16
1,71,122,0
1,71,0,80
1,59,0,0
1,58,122,16
1,70,122,0
1,70,0,80
1,58,0,0
1,59,122,16
1,71,122,0
1,71,0,80
1,59,0,0
1,58,122,16
1,70,122,0
1,70,0,80
1,58,0,0
1,54,122,16
1,66,122,0
1,66,0,80
1,54,0,0
1,54,122,16
1,66,122,0
1,66,0,368
1,54,0,0
1,56,122,16
1,68,122,0
1,68,0,240
1,56,0,0
1,56,122,240
1,68,122,0
1,68,0,160
1,56,0,0
1,58,122,32
1,70,122,0
1,70,0,160
1,58,0,0
1,61,122,32
1,73,122,0
1,73,0,80
1,61,0,0
1,61,122,16
1,73,122,0
1,73,0,80
1,61,0,0
1,65,122,16
1,77,122,0
1,77,0,160
1,65,0,0
1,63,122,32
1,75,122,0
1,75,0,160
1,63,0,0
1,63,122,32
1,75,122,0
1,75,0,80
1,63,0,0
1,65,122,16
1,77,122,0
1,77,0,160
1,65,0,0
1,61,122,32
1,73,122,0
1,73,0,240
1,61,0,0
1,65,122,48
1,73,122,0
1,73,0,160
1,65,0,0
1,65,122,32
1,73,122,0
1,73,0,80
1,65,0,0
1,66,122,16
1,75,122,0
1,75,0,160
1,66,0,0
1,63,122,320
1,70,122,0
1,70,0,240
1,63,0,0
1,65,122,48
1,73,122,0
1,73,0,320
1,65,0,0
1,68,122,160
1,73,122,0
1,73,0,240
1,68,0,0
1,66,122,48
1,73,122,0
1,73,0,320
1,66,0,0
1,59,122,832
1,71,122,0
1,71,0,160
1,59,0,0
1,58,122,32
1,70,122,0
1,70,0,80
1,58,0,0
1,59,122,16
1,71,122,0
1,71,0,80
1,59,0,0
1,58,122,16
1,70,122,0
1,70,0,80
1,58,0,0
1,59,122,16
1,71,122,0
1,71,0,80
1,59,0,0
1,58,122,16
1,70,122,0
1,70,0,80
1,58,0,0
1,54,122,16
1,66,122,0
1,66,0,80
1,54,0,0
1,54,122,16
1,66,122,0
1,66,0,368
1,54,0,0
1,56,122,16
1,68,122,0
1,68,0,240
1,56,0,0
1,56,123,240
1,68,123,0
1,68,0,160
1,56,0,0
1,58,120,32
1,70,120,0
1,70,0,160
1,58,0,0
1,61,117,32
1,73,117,0
1,73,0,80
1,61,0,0
1,61,116,16
1,73,116,0
1,73,0,80
1,61,0,0
1,65,114,16
1,77,114,0
1,77,0,160
1,65,0,0
1,63,111,32
1,75,111,0
1,75,0,160
1,63,0,0
1,63,108,32
1,75,108,0
1,75,0,80
1,63,0,0
1,65,106,16
1,77,106,0
1,77,0,160
1,65,0,0
1,61,103,32
1,73,103,0
1,73,0,240
1,61,0,0
1,65,99,48
1,73,99,0
1,73,0,160
1,65,0,0
1,65,96,32
1,73,96,0
1,73,0,80
1,65,0,0
1,66,94,16
1,75,94,0
1,75,0,160
1,66,0,0
1,63,86,320
1,70,86,0
1,70,0,240
1,63,0,0
1,65,82,48
1,73,82,0
1,73,0,320
1,65,0,0
1,68,74,160
1,73,74,0
1,73,0,240
1,68,0,0
1,66,69,48
1,73,69,0
1,73,0,320
1,66,0,0
1,59,51,832
1,71,51,0
1,71,0,160
1,59,0,0
1,58,47,32
1,70,47,0
1,70,0,80
1,58,0,0
1,59,46,16
1,71,46,0
1,71,0,80
1,59,0,0
1,58,44,16
1,70,44,0
1,70,0,80
1,58,0,0
1,59,43,16
1,71,43,0
1,71,0,80
1,59,0,0
1,58,41,16
1,70,41,0
1,70,0,80
1,58,0,0
1,54,40,16
1,66,40,0
1,66,0,80
1,54,0,0
1,54,38,16
1,66,38,0
1,66,0,96
1,54,0,0
2,77,105,31392
2,80,105,0
2,80,0,96
2,77,0,0
2,75,105,0
2,78,105,0
2,78,0,48
2,75,0,0
2,77,105,0
2,80,105,0
2,80,0,48
2,77,0,0
2,73,105,0
2,77,105,0
2,77,0,144
2,73,0,0
2,75,105,0
2,78,105,0
2,78,0,768
2,75,0,0
2,85,105,96
2,85,0,96
2,83,105,0
2,83,0,96
2,82,105,0
2,82,0,576
2,66,105,5664
2,66,0,48
2,66,105,0
2,66,0,48
2,63,105,0
2,63,0,672
2,77,105,9312
2,80,105,0
2,80,0,96
2,77,0,0
2,75,105,0
2,78,105,0
2,78,0,48
2,75,0,0
2,77,105,0
2,80,105,0
2,80,0,48
2,77,0,0
2,73,105,0
2,77,105,0
2,77,0,144
2,73,0,0
2,75,105,0
2,78,105,0
2,78,0,768
2,75,0,0
2,85,105,96
2,85,0,96
2,83,105,0
2,83,0,96
2,82,105,0
2,82,0,576
2,77,104,3840
2,80,104,0
2,80,0,96
2,77,0,0
2,75,101,0
2,78,101,0
2,78,0,48
2,75,0,0
2,77,98,0
2,80,98,0
2,80,0,48
2,77,0,0
2,73,90,0
2,77,90,0
2,77,0,144
2,73,0,0
2,75,85,0
2,78,85,0
2,78,0,768
2,75,0,0
2,85,60,96
2,85,0,96
2,83,58,0
2,83,0,96
2,82,55,0
2,82,0,576
3,71,122,23760
3,71,0,288
3,70,122,0
3,70,0,192
3,68,122,0
3,68,0,288
4,65,105,1008
4,68,105,0
4,68,0,192
4,65,0,0
4,66,105,0
4,70,105,0
4,70,0,288
4,66,0,0
4,65,105,288
4,68,105,0
4,68,0,192
4,65,0,0
4,66,105,0
4,70,105,0
4,70,0,288
4,66,0,0
4,65,105,288
4,68,105,0
4,68,0,192
4,65,0,0
4,66,105,0
4,70,105,0
4,70,0,288
4,66,0,0
4,68,105,0
4,71,105,0
4,71,0,288
4,68,0,0
4,66,105,0
4,70,105,0
4,70,0,192
4,66,0,0
4,65,105,0
4,68,105,0
4,68,0,192
4,65,0,0
4,56,102,96
4,63,102,96
4,68,102,96
4,63,0,96
4,63,102,0
4,63,0,96
4,68,0,0
4,56,0,0
4,49,102,0
4,61,102,96
4,65,102,96
4,61,0,96
4,61,102,0
4,61,0,96
4,65,0,0
4,49,0,0
4,54,102,0
4,58,102,96
4,61,102,96
4,58,0,96
4,58,102,0
4,61,0,96
4,66,102,0
4,58,0,96
4,58,102,0
4,66,0,96
4,61,102,0
4,58,0,96
4,58,102,0
4,58,0,96
4,61,0,0
4,54,0,0
4,56,102,0
4,63,102,96
4,68,102,96
4,63,0,96
4,63,102,0
4,63,0,96
4,68,0,0
4,56,0,0
4,49,102,0
4,61,102,96
4,65,102,96
4,61,0,96
4,61,102,0
4,61,0,96
4,65,0,0
4,49,0,0
4,54,102,0
4,58,102,96
4,61,102,96
4,58,0,96
4,58,102,0
4,61,0,96
4,66,102,0
4,58,0,96
4,58,102,0
4,66,0,96
4,61,102,0
4,58,0,96
4,58,102,0
4,58,0,96
4,61,0,0
4,54,0,0
4,46,102,0
4,58,102,96
4,61,102,96
4,58,0,96
4,58,102,0
4,61,0,96
4,65,102,0
4,58,0,96
4,58,102,0
4,65,0,96
4,61,102,0
4,58,0,96
4,58,102,0
4,58,0,96
4,61,0,0
4,46,0,0
4,51,102,0
4,58,102,96
4,63,102,96
4,58,0,96
4,58,102,0
4,63,0,96
4,66,102,0
4,58,0,96
4,58,102,0
4,66,0,96
4,63,102,0
4,58,0,96
4,58,102,0
4,58,0,96
4,63,0,0
4,51,0,0
4,49,102,0
4,56,102,96
4,61,102,96
4,56,0,96
4,56,102,0
4,61,0,96
4,66,102,0
4,56,0,96
4,56,102,0
4,66,0,96
4,61,102,0
4,56,0,96
4,56,102,0
4,56,0,96
4,61,0,0
4,49,0,0
4,49,102,0
4,56,102,96
4,61,102,96
4,56,0,96
4,56,102,0
4,61,0,96
4,65,102,0
4,56,0,96
4,56,102,0
4,65,0,96
4,61,102,0
4,56,0,96
4,56,102,0
4,56,0,96
4,61,0,0
4,49,0,0
4,56,102,0
4,63,102,96
4,68,102,96
4,63,0,96
4,63,102,0
4,63,0,96
4,68,0,0
4,56,0,0
4,49,102,0
4,61,102,96
4,65,102,96
4,61,0,96
4,61,102,0
4,61,0,96
4,65,0,0
4,49,0,0
4,54,102,0
4,58,102,96
4,61,102,96
4,58,0,96
4,58,102,0
4,61,0,96
4,66,102,0
4,58,0,96
4,58,102,0
4,66,0,96
4,61,102,0
4,58,0,96
4,58,102,0
4,58,0,96
4,61,0,0
4,54,0,0
4,56,102,0
4,63,102,96
4,68,102,96
4,63,0,96
4,63,102,0
4,63,0,96
4,68,0,0
4,56,0,0
4,49,102,0
4,61,102,96
4,65,102,96
4,61,0,96
4,61,102,0
4,61,0,96
4,65,0,0
4,49,0,0
4,54,102,0
4,58,102,96
4,61,102,96
4,58,0,96
4,58,102,0
4,61,0,96
4,66,102,0
4,58,0,96
4,58,102,0
4,66,0,96
4,61,102,0
4,58,0,96
4,58,102,0
4,58,0,96
4,61,0,0
4,54,0,0
4,46,102,0
4,58,102,96
4,61,102,96
4,58,0,96
4,58,102,0
4,61,0,96
4,65,102,0
4,58,0,96
4,58,102,0
4,65,0,96
4,61,102,0
4,58,0,96
4,58,102,0
4,58,0,96
4,61,0,0
4,46,0,0
4,51,102,0
4,58,102,96
4,63,102,96
4,58,0,96
4,58,102,0
4,63,0,96
4,66,102,0
4,58,0,96
4,58,102,0
4,66,0,96
4,63,102,0
4,58,0,96
4,58,102,0
4,58,0,96
4,63,0,0
4,51,0,0
4,56,102,96
4,61,102,0
4,66,102,0
4,66,0,80
4,61,0,0
4,56,0,0
4,56,102,112
4,61,102,0
4,66,102,0
4,66,0,80
4,61,0,0
4,56,0,0
4,56,102,112
4,61,102,0
4,66,102,0
4,66,0,80
4,61,0,0
4,56,0,0
4,56,102,112
4,61,102,0
4,65,102,0
4,65,0,160
4,61,0,0
4,56,0,0
4,56,102,32
4,61,102,0
4,65,102,0
4,65,0,160
4,61,0,0
4,56,0,0
4,56,102,32
4,61,102,0
4,66,102,0
4,66,0,160
4,61,0,0
4,56,0,0
4,56,102,32
4,61,102,0
4,65,102,0
4,65,0,160
4,61,0,0
4,56,0,0
4,56,102,32
4,61,102,0
4,61,0,80
4,56,0,0
4,63,102,208
4,66,102,0
4,70,102,0
4,70,0,80
4,66,0,0
4,63,0,0
4,63,102,304
4,66,102,0
4,70,102,0
4,70,0,80
4,66,0,0
4,63,0,0
4,65,102,304
4,61,102,0
4,68,102,0
4,68,0,80
4,61,0,0
4,65,0,0
4,61,102,304
4,65,102,0
4,68,102,0
4,68,0,80
4,65,0,0
4,61,0,0
4,63,102,304
4,66,102,0
4,70,102,0
4,70,0,80
4,66,0,0
4,63,0,0
4,63,102,304
4,66,102,0
4,70,102,0
4,70,0,80
4,66,0,0
4,63,0,0
4,61,102,304
4,65,102,0
4,68,102,0
4,68,0,80
4,65,0,0
4,61,0,0
4,63,102,304
4,66,102,0
4,70,102,0
4,70,0,80
4,66,0,0
4,63,0,0
4,63,102,304
4,66,102,0
4,70,102,0
4,70,0,80
4,66,0,0
4,63,0,0
4,63,102,304
4,66,102,0
4,70,102,0
4,70,0,80
4,66,0,0
4,63,0,0
4,65,102,304
4,61,102,0
4,68,102,0
4,68,0,80
4,61,0,0
4,65,0,0
4,63,102,304
4,66,102,0
4,70,102,0
4,70,0,80
4,66,0,0
4,63,0,0
4,61,102,112
4,56,102,0
4,66,102,0
4,66,0,636
4,56,0,0
4,61,0,0
4,65,105,420
4,68,105,0
4,68,0,192
4,65,0,0
4,66,105,0
4,70,105,0
4,70,0,288
4,66,0,0
4,65,105,288
4,68,105,0
4,68,0,192
4,65,0,0
4,66,105,0
4,70,105,0
4,70,0,288
4,66,0,0
4,65,105,288
4,68,105,0
4,68,0,192
4,65,0,0
4,66,105,0
4,70,105,0
4,70,0,288
4,66,0,0
4,68,105,0
4,71,105,0
4,71,0,288
4,68,0,0
4,66,105,0
4,70,105,0
4,70,0,192
4,66,0,0
4,65,105,0
4,68,105,0
4,68,0,192
4,65,0,0
4,56,102,96
4,63,102,96
4,68,102,96
4,63,0,96
4,63,102,0
4,63,0,96
4,68,0,0
4,56,0,0
4,49,102,0
4,61,102,96
4,65,102,96
4,61,0,96
4,61,102,0
4,61,0,96
4,65,0,0
4,49,0,0
4,54,102,0
4,58,102,96
4,61,102,96
4,58,0,96
4,58,102,0
4,61,0,96
4,66,102,0
4,58,0,96
4,58,102,0
4,66,0,96
4,61,102,0
4,58,0,96
4,58,102,0
4,58,0,96
4,61,0,0
4,54,0,0
4,56,102,0
4,63,102,96
4,68,102,96
4,63,0,96
4,63,102,0
4,63,0,96
4,68,0,0
4,56,0,0
4,49,102,0
4,61,102,96
4,65,102,96
4,61,0,96
4,61,102,0
4,61,0,96
4,65,0,0
4,49,0,0
4,54,102,0
4,58,102,96
4,61,102,96
4,58,0,96
4,58,102,0
4,61,0,96
4,66,102,0
4,58,0,96
4,58,102,0
4,66,0,96
4,61,102,0
4,58,0,96
4,58,102,0
4,58,0,96
4,61,0,0
4,54,0,0
4,46,102,0
4,58,102,96
4,61,102,96
4,58,0,96
4,58,102,0
4,61,0,96
4,65,102,0
4,58,0,96
4,58,102,0
4,65,0,96
4,61,102,0
4,58,0,96
4,58,102,0
4,58,0,96
4,61,0,0
4,46,0,0
4,51,102,0
4,58,102,96
4,63,102,96
4,58,0,96
4,58,102,0
4,63,0,96
4,66,102,0
4,58,0,96
4,58,102,0
4,66,0,96
4,63,102,0
4,58,0,96
4,58,102,0
4,58,0,96
4,63,0,0
4,51,0,0
4,56,102,96
4,61,102,0
4,66,102,0
4,66,0,80
4,61,0,0
4,56,0,0
4,56,102,112
4,61,102,0
4,66,102,0
4,66,0,80
4,61,0,0
4,56,0,0
4,56,102,112
4,61,102,0
4,66,102,0
4,66,0,80
4,61,0,0
4,56,0,0
4,56,102,112
4,61,102,0
4,65,102,0
4,65,0,160
4,61,0,0
4,56,0,0
4,56,102,32
4,61,102,0
4,65,102,0
4,65,0,160
4,61,0,0
4,56,0,0
4,56,102,32
4,61,102,0
4,66,102,0
4,66,0,160
4,61,0,0
4,56,0,0
4,56,102,32
4,61,102,0
4,65,102,0
4,65,0,160
4,61,0,0
4,56,0,0
4,56,102,32
4,61,102,0
4,61,0,80
4,56,0,0
4,63,102,208
4,66,102,0
4,70,102,0
4,70,0,80
4,66,0,0
4,63,0,0
4,63,102,304
4,66,102,0
4,70,102,0
4,70,0,80
4,66,0,0
4,63,0,0
4,65,102,304
4,61,102,0
4,68,102,0
4,68,0,80
4,61,0,0
4,65,0,0
4,61,102,304
4,65,102,0
4,68,102,0
4,68,0,80
4,65,0,0
4,61,0,0
4,63,102,304
4,66,102,0
4,70,102,0
4,70,0,80
4,66,0,0
4,63,0,0
4,63,102,304
4,66,102,0
4,70,102,0
4,70,0,80
4,66,0,0
4,63,0,0
4,61,102,304
4,65,102,0
4,68,102,0
4,68,0,80
4,65,0,0
4,61,0,0
4,63,102,304
4,66,102,0
4,70,102,0
4,70,0,80
4,66,0,0
4,63,0,0
4,63,102,304
4,66,102,0
4,70,102,0
4,70,0,80
