track,note,velocity,time
0,52,113,1536
0,55,113,0
0,60,113,0
0,52,116,18
0,55,117,0
0,60,113,0
0,53,116,46
0,57,117,0
0,62,114,0
0,55,115,104
0,59,114,0
0,64,114,0
0,57,113,122
0,60,115,0
0,65,114,0
0,41,95,0
0,65,90,384
0,69,88,0
0,74,92,0
0,65,91,150
0,69,90,0
0,72,89,0
0,57,113,18
0,60,115,0
0,65,113,0
0,55,117,18
0,59,117,0
0,64,113,0
0,53,116,32
0,57,115,0
0,62,117,0
0,52,113,110
0,55,116,0
0,60,117,0
0,36,97,0
0,60,91,384
0,65,90,0
0,69,92,0
0,60,89,144
0,64,92,0
0,67,88,0
0,52,115,52
0,55,114,0
0,60,117,0
0,53,116,22
0,57,117,0
0,62,113,0
0,55,113,20
0,59,116,0
0,64,116,0
0,55,117,134
0,59,115,0
0,64,116,0
0,43,98,0
0,55,88,0
0,59,90,0
0,64,91,0
0,53,117,14
0,57,113,0
0,62,117,0
0,43,93,0
0,53,92,0
0,57,92,0
0,62,90,0
0,43,97,34
0,53,90,0
0,57,91,0
0,60,92,0
0,45,95,2
0,48,93,18
0,48,106,30
0,52,115,0
0,55,113,0
0,60,114,0
0,36,97,0
0,52,89,0
0,55,91,0
0,60,90,0
0,48,107,28
0,52,116,0
0,55,115,0
0,60,116,0
0,52,90,0
0,55,91,0
0,60,90,0
0,50,105,10
0,53,117,0
0,57,117,0
0,62,115,0
0,53,89,0
0,57,89,0
0,62,92,0
0,52,106,20
0,55,117,0
0,58,114,0
0,64,116,0
0,55,90,0
0,58,92,0
0,64,88,0
0,53,107,0
0,57,115,0
0,60,113,0
0,65,113,0
0,57,88,0
0,60,91,0
0,65,90,0
0,53,105,12
0,57,117,0
0,60,117,0
0,65,115,0
0,57,90,0
0,60,91,0
0,65,91,0
0,52,106,8
0,55,117,0
0,59,117,0
0,64,116,0
0,55,92,0
0,59,92,0
0,64,92,0
0,50,107,22
0,53,116,0
0,57,117,0
0,62,115,0
0,53,92,0
0,57,88,0
0,62,92,0
0,48,106,110
0,52,114,0
0,55,117,0
0,60,116,0
0,52,91,0
0,55,89,0
0,60,88,0
0,36,94,576
0,48,107,28
0,52,113,0
0,55,116,0
0,60,114,0
0,52,89,0
0,55,90,0
0,60,91,0
0,50,106,4
0,53,115,0
0,57,116,0
0,62,115,0
0,53,92,0
0,57,90,0
0,62,91,0
0,52,106,4
0,52,115,0
0,55,114,0
0,60,114,0
0,55,92,0
0,60,90,0
0,64,88,0
0,47,109,66
0,50,114,0
0,53,116,0
0,59,113,0
0,43,96,0
0,50,88,0
0,53,91,0
0,59,91,0
0,43,94,54
0,45,95,24
0,48,108,0
0,52,113,0
0,55,113,0
0,60,114,0
0,48,93,0
0,52,91,0
0,55,88,0
0,60,89,0
0,43,96,2
0,45,96,2
0,48,95,12
0,48,110,20
0,36,116,0
0,52,113,0
0,55,113,0
0,60,113,0
0,48,100,0
0,55,98,0
0,60,93,0
0,64,93,0
0,35,98,0
0,43,51,0
0,43,52,188
0,43,50,92
0,40,76,92
0,43,49,0
0,43,50,188
0,35,96,92
0,43,49,0
0,48,113,18
0,36,118,0
0,52,116,0
0,55,117,0
0,60,113,0
0,55,98,0
0,60,98,0
0,64,93,0
0,35,98,0
0,43,48,0
0,50,111,4
0,38,118,0
0,53,116,0
0,57,117,0
0,62,114,0
0,57,97,0
0,62,93,0
0,65,94,0
0,43,50,0
0,43,51,8
0,52,110,2
0,40,118,0
0,55,115,0
0,58,114,0
0,64,114,0
0,58,96,0
0,64,98,0
0,67,94,0
0,40,79,0
0,43,51,0
0,53,109,0
0,41,117,0
0,57,113,0
0,60,115,0
0,65,114,0
0,60,96,0
0,65,96,0
0,69,96,0
0,35,120,0
0,51,90,0
0,43,52,10
0,43,49,188
0,43,51,10
0,40,84,92
0,43,50,0
0,43,50,8
0,35,96,10
0,43,52,0
0,53,111,18
0,41,119,0
0,57,113,0
0,60,115,0
0,65,113,0
0,60,96,0
0,65,93,0
0,69,93,0
0,35,97,0
0,43,48,0
0,52,111,26
0,40,118,6
0,55,117,0
0,59,117,0
0,64,113,0
0,59,97,0
0,64,94,0
0,67,93,0
0,43,49,0
0,43,50,92
0,50,112,2
0,38,116,0
0,53,116,0
0,57,115,0
0,62,117,0
0,57,98,0
0,62,95,0
0,65,96,0
0,40,77,0
0,43,48,0
0,48,109,6
0,36,119,0
0,52,113,0
0,55,116,0
0,60,117,0
0,55,98,0
0,60,93,0
0,64,98,0
0,35,120,0
0,51,90,0
0,43,51,188
0,43,48,188
0,43,50,92
0,40,82,92
0,43,48,0
0,43,52,188
0,36,117,78
0,35,104,0
0,43,50,0
0,48,110,32
0,28,117,0
0,52,115,0
0,55,114,0
0,60,117,0
0,55,96,0
0,60,99,0
0,64,98,0
0,35,103,0
0,43,50,0
0,50,111,38
0,29,117,2
0,53,116,0
0,57,117,0
0,62,113,0
0,57,94,0
0,62,97,0
0,65,97,0
0,43,51,0
0,43,49,92
0,52,112,2
0,31,116,0
0,55,113,0
0,59,116,0
0,64,116,0
0,59,97,0
0,64,96,0
0,67,93,0
0,40,77,0
0,43,48,0
0,52,110,0
0,40,117,0
0,55,117,0
0,59,115,0
0,64,116,0
0,59,94,0
0,64,93,0
0,67,98,0
0,43,52,0
0,43,52,26
0,35,98,92
0,43,50,0
0,43,51,188
0,43,49,92
0,50,113,30
0,40,76,0
0,43,51,0
0,50,111,14
0,38,117,0
0,53,117,0
0,57,113,0
0,62,117,0
0,57,98,0
0,62,94,0
0,65,96,0
0,43,48,0
0,43,48,30
0,35,100,92
0,43,51,0
0,43,48,30
0,43,52,92
0,31,118,32
0,43,101,0
0,53,94,0
0,57,95,0
0,62,96,0
0,40,84,0
0,43,48,0
0,45,101,4
0,48,101,4
0,43,51,0
0,43,52,92
0,48,109,18
0,36,119,0
0,52,115,0
0,55,113,0
0,60,114,0
0,36,101,0
0,55,94,0
0,60,98,0
0,64,97,0
0,35,96,0
0,43,48,0
0,43,48,188
0,43,50,92
0,40,79,92
0,43,49,0
0,43,51,188
0,35,102,0
0,43,48,0
0,48,113,20
0,36,119,0
0,52,116,0
0,55,115,0
0,60,116,0
0,55,93,0
0,60,94,0
0,64,98,0
0,35,104,0
0,43,51,0
0,50,108,4
0,38,119,0
0,53,117,0
0,57,117,0
0,62,115,0
0,57,95,0
0,62,96,0
0,65,95,0
0,43,52,0
0,43,52,8
0,52,109,2
0,40,118,0
0,55,117,0
0,58,114,0
0,64,116,0
0,58,93,0
0,64,94,0
0,67,98,0
0,40,76,0
0,43,51,0
0,53,108,0
0,41,119,0
0,57,115,0
0,60,113,0
0,65,113,0
0,60,96,0
0,65,93,0
0,69,97,0
0,43,48,0
0,43,48,26
0,35,98,67
0,43,51,0
0,65,94,38
0,69,98,0
0,74,95,0
0,43,51,0
0,43,51,38
0,65,98,92
0,69,98,0
0,72,95,0
0,40,82,0
0,43,51,0
0,43,49,188
0,43,51,22
0,53,112,12
0,41,116,0
0,57,117,0
0,60,117,0
0,65,115,0
0,60,95,0
0,65,93,0
0,69,93,0
0,35,97,0
0,43,49,0
0,52,109,2
0,40,118,0
0,55,117,0
0,59,117,0
0,64,116,0
0,59,98,0
0,64,94,0
0,67,95,0
0,43,51,0
0,43,51,92
0,50,112,4
0,38,118,0
0,53,116,0
0,57,117,0
0,62,115,0
0,57,95,0
0,62,94,0
0,65,93,0
0,40,80,0
0,43,50,0
0,48,111,4
0,36,117,0
0,52,114,0
0,55,117,0
0,60,116,0
0,55,95,0
0,60,98,0
0,64,98,0
0,43,50,0
0,43,52,92
0,35,100,92
0,43,48,0
0,43,51,188
0,43,51,92
0,40,79,92
0,43,50,0
0,43,50,188
0,36,116,6
0,43,49,0
0,48,113,20
0,28,118,0
0,52,113,0
0,55,116,0
0,60,114,0
0,55,97,0
0,60,98,0
0,64,94,0
0,35,100,0
0,43,48,0
0,50,110,2
0,29,117,0
0,53,115,0
0,57,116,0
0,62,115,0
0,57,94,0
0,62,95,0
0,65,94,0
0,43,49,0
0,43,52,26
0,52,110,2
0,31,116,0
0,52,115,0
0,55,114,0
0,60,114,0
0,55,96,0
0,60,96,0
0,64,94,0
0,40,78,0
0,43,51,0
0,47,110,78
0,31,119,0
0,50,114,0
0,53,116,0
0,59,113,0
0,53,97,0
0,59,95,0
0,62,97,0
0,43,48,0
0,43,49,92
0,35,101,92
0,43,50,0
0,43,98,188
0,43,52,0
0,43,48,92
0,48,112,2
0,45,101,0
0,40,84,0
0,43,50,0
0,48,108,0
0,36,116,0
0,52,113,0
0,55,113,0
0,60,114,0
0,48,102,0
0,55,95,0
0,60,96,0
0,64,97,0
0,43,51,0
0,43,49,26
0,35,101,92
0,43,49,0
0,64,111,0
0,43,48,0
0,43,52,26
0,62,112,6
0,40,76,0
0,43,52,0
0,60,109,4
0,31,116,0
0,43,101,0
0,43,49,0
0,33,117,2
0,45,99,0
0,35,100,0
0,43,50,0
0,48,81,8
0,64,75,0
0,36,116,0
0,52,113,0
0,55,113,0
0,60,113,0
0,48,93,0
0,55,94,0
0,60,93,0
0,64,94,0
0,35,98,0
0,43,51,0
0,43,52,188
0,43,50,92
0,40,76,24
0,43,49,0
0,43,50,188
0,35,96,92
0,43,49,0
0,48,79,0
0,64,74,0
0,64,109,18
0,36,118,0
0,52,116,0
0,55,117,0
0,60,113,0
0,55,91,0
0,60,94,0
0,64,93,0
0,35,98,0
0,43,48,0
0,64,112,30
0,50,82,14
0,65,75,0
0,38,118,4
0,53,116,0
0,57,117,0
0,62,114,0
0,57,95,0
0,62,90,0
0,65,92,0
0,43,50,0
0,43,51,8
0,52,79,2
0,67,76,0
0,62,110,2
0,40,118,0
0,55,115,0
0,59,114,0
0,64,114,0
0,58,89,0
0,64,94,0
0,67,89,0
0,40,79,0
0,43,51,0
0,53,80,94
0,69,76,0
0,62,110,2
0,41,117,0
0,57,113,0
0,60,115,0
0,65,114,0
0,60,89,0
0,65,89,0
0,69,90,0
0,35,110,0
0,51,90,0
0,60,109,4
0,43,52,0
0,62,113,4
0,43,49,0
0,43,51,92
0,57,111,10
0,40,84,0
0,43,50,0
0,43,50,188
0,57,110,20
0,35,96,0
0,43,52,0
0,53,81,6
0,69,74,0
0,60,109,0
0,41,119,0
0,57,113,0
0,60,115,0
0,65,113,0
0,60,93,0
0,65,90,0
0,69,93,0
0,35,97,0
0,43,48,0
0,52,82,2
0,67,74,0
0,59,113,2
0,40,118,0
0,55,117,0
0,59,117,0
0,64,113,0
0,59,93,0
0,64,89,0
0,67,89,0
0,43,49,0
0,43,50,92
0,50,83,2
0,65,76,0
0,57,113,2
0,38,116,0
0,53,116,0
0,57,115,0
0,62,117,0
0,57,91,0
0,62,89,0
0,65,94,0
0,40,77,0
0,43,48,0
0,48,82,90
0,64,75,0
0,55,110,6
0,36,119,0
0,52,113,0
0,55,116,0
0,60,117,0
0,55,93,0
0,60,93,0
0,64,89,0
0,35,110,0
0,51,90,0
0,43,51,118
0,43,48,22
0,43,50,92
0,40,82,92
0,43,48,0
0,43,52,22
0,36,117,30
0,35,104,0
0,43,50,0
0,48,83,12
0,64,73,0
0,60,111,20
0,28,117,0
0,52,115,0
0,55,114,0
0,60,117,0
0,55,90,0
0,60,94,0
0,64,90,0
0,35,103,0
0,43,50,0
0,50,80,2
0,65,75,0
0,62,111,2
0,29,117,0
0,53,116,0
0,57,117,0
0,62,113,0
0,57,91,0
0,62,93,0
0,65,94,0
0,43,51,0
0,43,49,92
0,52,79,2
0,67,76,0
0,64,111,2
0,31,116,0
0,55,113,0
0,59,116,0
0,64,116,0
0,59,92,0
0,64,93,0
0,67,90,0
0,40,77,0
0,43,48,0
0,52,81,98
0,67,74,0
0,64,110,0
0,40,117,0
0,55,117,0
0,59,115,0
0,64,116,0
0,59,90,0
0,64,91,0
0,67,93,0
0,43,52,0
0,43,52,26
0,35,98,92
0,43,50,0
0,43,51,188
0,43,49,92
0,62,109,2
0,40,76,0
0,43,51,0
0,60,112,10
0,50,79,4
0,65,75,0
0,62,111,2
0,38,117,0
0,53,117,0
0,57,113,0
0,62,117,0
0,57,93,0
0,62,90,0
0,65,90,0
0,43,48,0
0,43,48,92
0,35,100,92
0,43,51,0
0,64,111,2
0,62,112,10
0,43,48,0
0,43,52,92
0,60,109,2
0,31,118,0
0,43,95,0
0,53,91,0
0,57,94,0
0,62,92,0
0,40,84,0
0,43,48,0
0,45,95,2
0,48,96,8
0,43,51,0
0,43,52,26
0,55,77,8
0,60,69,0
0,67,58,8
0,76,60,0
0,60,112,10
0,36,119,0
0,52,115,0
0,55,113,0
0,60,114,0
0,36,97,0
0,55,92,0
0,60,94,0
0,64,94,0
0,35,96,0
0,43,48,0
0,43,48,95
0,43,50,92
0,40,79,92
0,43,49,0
0,43,51,188
0,35,102,8
0,43,48,0
0,55,75,6
0,60,69,0
0,67,59,10
0,76,58,0
0,64,112,0
0,36,119,0
0,52,116,0
0,55,115,0
0,60,116,0
0,55,92,0
0,60,90,0
0,64,92,0
0,35,104,0
0,43,51,0
0,57,74,2
0,62,71,0
0,69,62,2
0,77,59,0
0,64,108,4
0,38,119,0
0,53,117,0
0,57,117,0
0,62,115,0
0,57,89,0
0,62,94,0
0,65,93,0
0,43,52,0
0,43,52,8
0,58,76,2
0,64,72,0
0,70,61,0
0,79,60,0
0,62,113,2
0,40,118,0
0,55,117,0
0,58,114,0
0,64,116,0
0,58,94,0
0,64,93,0
0,67,94,0
0,40,76,0
0,43,51,0
0,60,76,56
0,65,70,0
0,72,59,0
0,81,59,0
0,62,108,10
0,41,119,0
0,57,115,0
0,60,113,0
0,65,113,0
0,60,92,0
0,65,91,0
0,69,91,0
0,43,48,0
0,43,48,92
0,60,110,2
0,35,98,0
0,43,51,0
0,43,51,188
0,62,111,2
0,43,51,0
0,40,82,12
0,43,51,0
0,43,49,188
0,60,112,10
0,43,51,0
0,60,77,0
0,65,70,0
0,72,59,2
0,81,60,0
0,60,112,10
0,41,116,0
0,57,117,0
0,60,117,0
0,65,115,0
0,60,94,0
0,65,91,0
0,69,89,0
0,35,97,0
0,43,49,0
0,59,77,0
0,64,71,0
0,71,60,0
0,79,59,0
0,59,110,8
0,40,118,0
0,55,117,0
0,59,117,0
0,64,116,0
0,59,89,0
0,64,92,0
0,67,94,0
0,43,51,0
0,43,51,92
0,57,76,0
0,62,72,0
0,69,60,2
0,77,59,0
0,57,110,6
0,38,118,0
0,53,116,0
0,57,117,0
0,62,115,0
0,57,92,0
0,62,92,0
0,65,91,0
0,40,80,0
0,43,50,0
0,55,76,84
0,60,70,0
0,67,58,10
0,76,59,0
0,55,109,4
0,36,117,0
0,52,114,0
0,55,117,0
0,60,116,0
0,55,91,0
0,60,91,0
0,64,93,0
0,43,50,0
0,43,52,92
0,35,100,92
0,43,48,0
0,43,51,188
0,43,51,92
0,40,79,92
0,43,50,0
0,64,110,186
0,43,50,0
0,36,116,6
0,43,49,0
0,52,76,0
0,60,72,0
0,67,62,10
0,76,61,0
0,62,108,10
0,28,118,0
0,52,113,0
0,55,116,0
0,60,114,0
0,55,93,0
0,60,93,0
0,64,92,0
0,35,100,0
0,43,48,0
0,53,74,2
0,62,69,0
0,69,58,2
0,77,61,0
0,60,112,2
0,29,117,0
0,53,115,0
0,57,116,0
0,62,115,0
0,57,91,0
0,62,89,0
0,65,91,0
0,43,49,0
0,43,52,26
0,52,74,2
0,60,73,0
0,67,61,10
0,76,62,0
0,60,111,0
0,31,116,0
0,52,115,0
0,55,114,0
0,60,114,0
0,59,92,0
0,64,91,0
0,67,93,0
0,40,78,0
0,43,51,0
0,50,74,58
0,59,71,0
0,65,59,10
0,74,58,0
0,59,109,10
0,31,119,0
0,50,114,0
0,53,116,0
0,59,113,0
0,53,90,0
0,59,91,0
0,62,92,0
0,43,48,0
0,43,49,92
0,35,101,92
0,43,50,0
0,43,75,4
0,43,95,20
0,43,52,0
0,43,48,92
