track,note,velocity,time
0,64,100,120
0,64,0,30
0,67,100,0
0,67,0,60
0,69,100,0
0,69,0,60
0,72,100,0
0,72,0,90
0,71,100,0
0,71,0,60
0,69,100,0
0,69,0,60
0,60,111,0
0,60,80,0
0,64,80,0
0,67,80,0
0,48,85,0
0,55,85,0
0,60,85,0
0,52,70,0
0,55,70,0
0,60,70,0
0,35,108,0
0,42,111,0
0,45,100,0
0,69,100,0
0,42,0,10
0,35,0,0
0,52,0,46
0,64,0,0
0,60,0,0
0,67,0,1
0,55,0,0
0,55,100,0
0,55,0,1
0,48,0,0
0,60,0,0
0,60,0,0
0,60,0,2
0,57,110,0
0,60,80,0
0,64,80,0
0,67,80,0
0,45,85,0
0,52,85,0
0,57,85,0
0,52,85,0
0,55,85,0
0,60,85,0
0,52,100,0
0,60,100,0
0,37,108,60
0,42,89,0
0,42,0,10
0,37,0,0
0,55,0,46
0,55,0,1
0,52,0,1
0,60,0,0
0,57,0,2
0,52,0,0
0,60,0,0
0,57,90,0
0,52,85,0
0,55,85,0
0,60,85,0
0,35,67,0
0,52,100,0
0,55,100,0
0,60,100,0
0,35,0,10
0,52,0,46
0,45,0,0
0,57,0,0
0,55,0,0
0,67,0,0
0,52,0,1
0,60,0,0
0,60,0,1
0,64,0,0
0,57,0,2
0,69,0,0
0,55,0,0
0,52,0,0
0,60,0,0
0,45,0,0
0,52,109,0
0,59,80,0
0,64,80,0
0,67,80,0
0,40,85,0
0,47,85,0
0,52,85,0
0,52,85,0
0,55,85,0
0,59,85,0
0,35,110,0
0,42,88,0
0,40,100,0
0,42,0,10
0,35,0,0
0,52,100,50
0,55,100,0
0,59,100,0
0,52,0,56
0,64,0,0
0,67,0,0
0,55,0,1
0,47,0,0
0,59,0,0
0,40,0,1
0,59,0,0
0,52,0,0
0,52,0,2
0,40,0,0
0,55,0,0
0,59,0,0
0,52,0,0
0,55,108,0
0,55,80,0
0,59,80,0
0,64,80,0
0,40,85,0
0,47,85,0
0,52,85,0
0,52,85,0
0,55,85,0
0,59,85,0
0,37,111,0
0,42,89,0
0,43,100,0
0,42,0,10
0,37,0,0
0,42,72,50
0,52,100,0
0,55,100,0
0,59,100,0
0,42,0,10
0,47,0,46
0,59,0,0
0,55,0,0
0,52,0,2
0,55,0,0
0,40,0,0
0,64,0,0
0,59,0,0
0,52,0,0
0,52,0,2
0,43,0,0
0,55,0,0
0,55,0,0
0,59,0,0
0,57,109,0
0,60,80,0
0,64,80,0
0,67,80,0
0,45,85,0
0,52,85,0
0,57,85,0
0,52,70,0
0,55,70,0
0,60,70,0
0,35,108,0
0,42,89,0
0,45,100,0
0,42,0,10
0,35,0,0
0,52,100,50
0,55,100,0
0,60,100,0
0,57,0,57
0,45,0,0
0,52,0,1
0,45,75,2
0,52,75,0
0,57,75,0
0,37,109,0
0,42,91,0
0,64,100,0
0,42,0,10
0,37,0,0
0,64,0,20
0,67,100,0
0,60,0,26
0,55,0,1
0,45,0,0
0,52,0,0
0,52,0,1
0,57,0,0
0,57,0,2
0,57,91,0
0,45,75,0
0,52,75,0
0,57,75,0
0,52,85,0
0,55,85,0
0,60,85,0
0,35,70,0
0,35,0,10
0,67,0,20
0,69,100,0
0,57,0,30
0,57,108,0
0,35,110,0
0,42,88,0
0,42,0,10
0,35,0,0
0,55,0,46
0,60,0,1
0,52,0,1
0,52,70,2
0,55,70,0
0,60,70,0
0,45,0,30
0,69,0,0
0,40,100,0
0,72,100,5
0,57,0,21
0,52,0,2
0,45,0,0
0,40,0,2
0,57,0,0
0,57,90,0
0,45,75,0
0,52,75,0
0,57,75,0
0,37,109,0
0,42,90,0
0,43,100,0
0,42,0,10
0,37,0,0
0,71,100,20
0,72,0,5
0,52,0,21
0,55,0,2
0,60,0,0
0,43,0,2
0,52,70,0
0,55,70,0
0,60,70,0
0,44,100,0
0,71,0,30
0,69,100,4
0,52,0,22
0,52,0,0
0,64,0,0
0,67,0,1
0,45,0,0
0,55,0,0
0,60,0,0
0,60,0,1
0,57,0,0
0,60,0,2
0,44,0,0
0,57,0,0
0,52,0,0
0,55,0,0
0,57,110,0
0,60,80,0
0,64,80,0
0,67,80,0
0,45,85,0
0,52,85,0
0,57,85,0
0,52,70,0
0,55,70,0
0,60,70,0
0,35,110,0
0,42,110,0
0,45,100,0
0,69,100,0
0,69,0,4
0,42,0,6
0,35,0,0
0,60,0,46
0,67,0,0
0,57,0,0
0,64,0,0
0,45,0,1
0,55,100,0
0,52,0,1
0,55,0,0
0,52,0,0
0,60,0,0
0,57,0,2
0,57,110,0
0,55,80,0
0,60,80,0
0,64,80,0
0,45,85,0
0,52,85,0
0,57,85,0
0,52,85,0
0,55,85,0
0,60,85,0
0,52,100,0
0,60,100,0
0,37,111,60
0,42,91,0
0,42,0,10
0,37,0,0
0,52,0,46
0,45,0,0
0,60,0,0
0,64,0,1
0,52,0,0
0,60,0,0
0,55,0,0
0,55,0,0
0,55,0,1
0,57,0,0
0,57,0,2
0,52,0,0
0,60,0,0
0,57,91,0
0,60,80,0
0,64,80,0
0,67,80,0
0,45,75,0
0,52,75,0
0,57,75,0
0,52,85,0
0,55,85,0
0,60,85,0
0,35,69,0
0,52,100,0
0,55,100,0
0,60,100,0
0,35,0,10
0,60,0,50
0,57,0,0
0,45,0,0
0,55,0,0
0,69,0,0
0,52,0,0
0,57,108,0
0,35,110,0
0,42,88,0
0,40,100,0
0,42,0,10
0,35,0,0
0,45,0,46
0,60,0,0
0,67,0,0
0,52,0,1
0,52,0,0
0,60,0,1
0,64,0,0
0,57,0,0
0,55,0,0
0,57,0,2
0,52,108,0
0,55,80,0
0,59,80,0
0,64,80,0
0,40,85,0
0,47,85,0
0,52,85,0
0,52,70,0
0,55,70,0
0,59,70,0
0,42,67,0
0,52,100,0
0,55,100,0
0,59,100,0
0,42,0,10
0,52,0,50
0,59,0,0
0,40,0,0
0,55,0,0
0,37,108,0
0,42,91,0
0,43,100,0
0,42,0,10
0,37,0,0
0,59,0,46
0,47,0,0
0,52,0,1
0,52,0,0
0,55,0,0
0,40,0,0
0,55,0,0
0,64,0,1
0,59,0,0
0,52,0,2
0,55,108,0
0,59,80,0
0,64,80,0
0,67,80,0
0,40,85,0
0,47,85,0
0,52,85,0
0,52,70,0
0,55,70,0
0,59,70,0
0,35,67,0
0,52,100,0
0,55,100,0
0,59,100,0
0,35,0,10
0,52,0,46
0,59,0,0
0,47,0,0
0,59,0,0
0,40,0,0
0,67,0,0
0,52,0,1
0,64,0,0
0,55,0,0
0,55,0,3
0,59,0,0
0,52,0,0
0,55,0,0
0,43,0,0
0,57,108,0
0,60,95,0
0,64,95,0
0,67,95,0
0,45,80,0
0,52,70,0
0,35,98,0
0,57,98,0
0,45,100,0
0,52,80,10
0,55,70,0
0,57,80,10
0,60,70,0
0,52,100,40
0,55,100,0
0,60,100,0
0,45,0,2
0,67,0,0
0,64,0,1
0,60,0,0
0,52,0,1
0,52,0,0
0,55,0,0
0,57,0,0
0,60,0,0
0,57,0,2
0,57,0,0
0,35,0,0
0,69,100,54
0,69,0,30
0,69,100,0
0,69,0,60
0,72,100,0
0,72,0,60
0,76,100,0
0,45,0,30
0,45,100,0
0,45,0,60
0,76,0,0
0,48,100,0
0,74,100,0
0,74,0,30
0,76,100,0
0,48,0,30
0,50,100,0
0,76,0,30
0,76,100,0
0,55,0,30
0,50,0,0
0,52,0,0
0,60,0,0
0,57,109,0
0,55,80,0
0,60,80,0
0,64,80,0
0,45,85,0
0,52,85,0
0,57,85,0
0,52,70,0
0,55,70,0
0,60,70,0
0,35,109,0
0,42,110,0
0,52,100,0
0,42,0,10
0,35,0,0
0,52,0,46
0,55,0,1
0,57,0,0
0,55,0,0
0,64,0,1
0,60,0,0
0,52,0,0
0,60,0,0
0,45,0,0
0,76,0,2
0,57,0,0
0,52,111,0
0,55,80,0
0,59,80,0
0,62,80,0
0,40,85,0
0,47,85,0
0,52,85,0
0,55,85,0
0,59,85,0
0,62,85,0
0,59,100,0
0,62,100,0
0,67,100,0
0,74,100,7
0,67,0,53
0,62,0,0
0,52,0,0
0,59,0,0
0,40,110,0
0,42,89,0
0,52,100,0
0,42,0,10
0,40,0,0
0,62,0,46
0,52,0,0
0,55,0,1
0,59,0,0
0,59,0,0
0,47,0,0
0,40,0,1
0,62,0,0
0,55,0,0
0,52,0,2
0,52,0,0
0,52,90,0
0,59,80,0
0,62,80,0
0,67,80,0
0,40,75,0
0,47,75,0
0,52,75,0
0,50,85,0
0,55,85,0
0,59,85,0
0,35,68,0
0,59,100,0
0,62,100,0
0,67,100,0
0,43,100,0
0,69,100,3
0,74,0,4
0,35,0,3
0,69,0,23
0,74,100,1
0,62,0,26
0,43,0,0
0,52,0,0
0,59,0,0
0,67,0,0
0,52,110,0
0,35,111,0
0,42,89,0
0,52,100,0
0,72,100,2
0,74,0,2
0,42,0,6
0,35,0,0
0,67,0,46
0,62,0,0
0,59,0,0
0,50,0,0
0,47,0,0
0,40,0,1
0,52,0,1
0,55,0,0
0,59,0,0
0,52,0,2
0,52,108,0
0,59,80,0
0,62,80,0
0,67,80,0
0,40,85,0
0,47,85,0
0,52,85,0
0,55,70,0
0,59,70,0
0,62,70,0
0,59,100,0
0,62,100,0
0,67,100,0
0,69,100,1
0,72,0,1
0,52,0,58
0,59,0,0
0,67,0,0
0,62,0,0
0,40,110,0
0,42,88,0
0,47,100,0
0,69,0,1
0,67,100,0
0,42,0,9
0,40,0,0
0,52,0,46
0,67,0,0
0,55,0,1
0,62,0,0
0,59,0,0
0,59,0,0
0,40,0,1
0,47,0,0
0,62,0,0
0,52,0,2
0,52,89,0
0,55,80,0
0,59,80,0
0,62,80,0
0,40,85,0
0,47,85,0
0,52,85,0
0,50,70,0
0,55,70,0
0,59,70,0
0,59,100,0
0,62,100,0
0,67,100,0
0,69,100,0
0,67,0,1
0,47,0,29
0,40,100,0
0,55,0,27
0,59,0,0
0,50,0,1
0,52,0,2
0,69,0,0
0,62,0,0
0,67,0,0
0,59,0,0
0,40,0,0
0,52,109,0
0,50,70,0
0,55,70,0
0,59,70,0
0,35,109,0
0,42,109,0
0,38,100,0
0,69,100,0
0,42,0,10
0,35,0,0
0,40,0,46
0,62,0,0
0,59,0,0
0,55,0,1
0,52,0,0
0,50,0,0
0,47,0,1
0,55,0,0
0,59,0,0
0,52,0,2
0,62,111,0
0,60,80,0
0,65,80,0
0,69,80,0
0,50,85,0
0,57,85,0
0,62,85,0
0,53,85,0
0,57,85,0
0,60,85,0
0,57,100,0
0,60,100,0
0,65,100,0
0,65,0,60
0,69,0,0
0,38,0,0
0,60,0,0
0,57,0,0
0,40,109,0
0,42,90,0
0,38,100,0
0,72,100,0
0,42,0,10
0,40,0,0
0,72,0,30
0,74,100,0
0,57,0,16
0,60,0,0
0,50,0,0
0,62,0,1
0,60,0,0
0,57,0,0
0,53,0,0
0,69,0,0
0,65,0,1
0,62,0,2
0,62,89,0
0,57,80,0
0,60,80,0
0,65,80,0
0,50,75,0
0,57,75,0
0,62,75,0
0,53,85,0
0,57,85,0
0,60,85,0
0,35,72,0
0,57,100,0
0,60,100,0
0,65,100,0
0,35,0,10
0,74,0,10
0,72,100,0
0,57,0,40
0,65,0,0
0,38,0,0
0,62,0,0
0,60,0,0
0,62,109,0
0,35,109,0
0,42,90,0
0,38,100,0
0,42,0,10
0,35,0,0
0,53,0,46
0,57,0,0
0,50,0,1
0,62,0,0
0,57,0,0
0,62,0,0
0,60,0,0
0,65,0,1
0,60,0,0
0,57,0,0
0,62,109,2
0,57,80,0
0,60,80,0
0,65,80,0
0,50,85,0
0,57,85,0
0,62,85,0
0,53,70,0
0,57,70,0
0,60,70,0
0,60,100,0
0,57,100,0
0,65,100,0
0,62,0,57
0,60,0,3
0,38,0,0
0,65,0,0
0,72,0,0
0,57,0,0
0,60,89,0
0,40,109,0
0,42,91,0
0,43,100,0
0,69,100,0
0,42,0,10
0,40,0,0
0,69,0,20
0,67,100,0
0,57,0,26
0,57,0,0
0,60,0,0
0,50,0,1
0,53,0,0
0,57,0,1
0,62,0,0
0,60,0,0
0,65,0,0
0,43,0,2
0,60,0,0
0,62,109,0
0,60,80,0
0,65,80,0
0,69,80,0
0,50,85,0
0,57,85,0
0,62,85,0
0,53,70,0
0,57,70,0
0,60,70,0
0,35,70,0
0,57,100,0
0,60,100,0
0,65,100,0
0,44,100,0
0,35,0,10
0,67,0,20
0,69,100,0
0,60,0,27
0,53,0,0
0,57,0,1
0,44,0,2
0,65,0,0
0,60,0,0
0,69,0,0
0,57,0,0
0,53,70,0
0,57,70,0
0,60,70,0
0,35,111,0
0,42,108,0
0,45,100,0
0,69,100,0
0,42,0,10
0,35,0,0
0,53,0,46
0,50,0,0
0,57,0,1
0,60,0,0
0,55,100,0
0,62,0,1
0,57,0,0
0,60,0,0
0,65,0,0
0,69,0,0
0,62,0,2
0,57,110,0
0,60,80,0
0,64,80,0
0,67,80,0
0,45,85,0
0,52,85,0
0,57,85,0
0,52,85,0
0,55,85,0
0,60,85,0
0,42,69,0
0,52,100,0
0,60,100,0
0,42,0,10
0,69,0,50
0,40,110,0
0,42,89,0
0,42,0,10
0,40,0,0
0,60,0,46
0,45,0,0
0,52,0,0
0,52,0,0
0,55,0,0
0,55,0,1
0,57,0,1
0,52,0,2
0,57,0,0
0,60,0,0
0,57,90,0
0,45,75,0
0,52,75,0
0,57,75,0
0,52,85,0
0,55,85,0
0,60,85,0
0,35,71,0
0,52,100,0
0,55,100,0
0,60,100,0
0,35,0,10
0,52,0,46
0,67,0,0
0,55,0,0
0,64,0,0
0,60,0,1
0,52,0,0
0,57,0,1
0,60,0,0
0,45,0,0
0,57,0,2
0,55,0,0
0,60,0,0
0,52,0,0
0,45,0,0
0,52,111,0
0,55,80,0
0,59,80,0
0,64,80,0
0,40,85,0
0,47,85,0
0,52,85,0
0,52,85,0
0,55,85,0
0,59,85,0
0,35,111,0
0,42,91,0
0,40,100,0
0,42,0,10
0,35,0,0
0,52,100,50
0,55,100,0
0,59,100,0
0,55,0,56
0,52,0,0
0,52,0,1
0,55,0,0
0,59,0,0
0,47,0,0
0,40,0,0
0,64,0,1
0,59,0,0
0,59,0,2
0,40,0,0
0,55,0,0
0,52,0,0
0,52,0,0
0,55,111,0
0,55,80,0
0,59,80,0
0,64,80,0
0,40,75,0
0,47,75,0
0,52,75,0
0,52,85,0
0,55,85,0
0,59,85,0
0,40,110,0
0,42,89,0
0,43,100,0
0,42,0,10
0,40,0,0
0,52,100,50
0,55,100,0
0,59,100,0
0,55,0,56
0,59,0,0
0,64,0,1
0,55,0,0
0,59,0,1
0,52,0,0
0,40,0,0
0,47,0,0
0,52,0,0
0,52,0,2
0,43,0,0
0,55,0,0
0,55,0,0
0,59,0,0
0,57,111,0
0,60,95,0
0,64,95,0
0,67,95,0
0,45,80,0
0,55,70,0
0,35,101,0
0,57,101,0
0,45,100,0
0,52,80,10
0,60,70,0
0,57,80,10
0,64,70,0
0,52,100,40
0,55,100,0
0,60,100,0
0,64,0,2
0,45,0,0
0,52,0,1
0,67,0,0
0,60,0,0
0,57,0,0
0,55,0,1
0,60,0,0
0,64,0,0
0,57,0,2
0,57,0,0
0,35,0,0
0,64,100,54
0,64,0,30
0,67,100,0
0,67,0,60
0,69,100,0
0,69,0,60
0,72,100,0
0,55,0,30
0,52,0,0
0,60,0,0
0,45,0,30
0,52,100,0
0,52,0,30
0,72,0,0
0,55,100,0
0,71,100,0
0,71,0,60
0,55,0,0
0,56,100,0
0,69,100,0
0,69,0,60
0,56,0,0
0,57,108,0
0,57,80,0
0,60,80,0
0,64,80,0
0,45,85,0
0,52,85,0
0,57,85,0
0,52,70,0
0,57,70,0
0,60,70,0
0,35,109,0
0,42,109,0
0,76,100,0
0,72,100,0
0,69,100,0
0,57,100,0
0,69,100,0
0,42,0,10
0,35,0,0
0,64,100,50
0,60,100,0
0,60,0,56
