track,note,velocity,time
0,42,112,0
0,42,96,86
0,42,96,86
0,42,96,86
0,36,96,86
0,63,112,0
0,83,81,1
0,83,45,0
0,79,77,30
0,79,42,0
0,76,82,7
0,76,50,0
0,76,112,10
0,72,66,16
0,72,94,1
0,64,112,5
0,36,64,4
0,64,80,0
0,75,108,2
0,75,80,0
0,36,96,11
0,63,112,0
0,78,64,41
0,78,101,0
0,76,112,5
0,81,85,2
0,81,56,0
0,64,112,4
0,83,85,3
0,83,66,0
0,64,80,10
0,36,96,5
0,63,112,0
0,79,102,1
0,79,72,1
0,76,112,76
0,64,112,10
0,79,89,1
0,79,62,1
0,36,64,14
0,64,80,0
0,36,96,14
0,63,112,0
0,81,93,1
0,81,62,2
0,76,112,5
0,79,89,2
0,79,51,0
0,64,112,11
0,77,84,0
0,77,51,2
0,64,80,9
0,36,96,5
0,63,112,0
0,83,87,2
0,83,38,0
0,79,44,31
0,79,82,1
0,76,88,6
0,76,62,0
0,76,112,5
0,72,91,16
0,72,65,0
0,64,112,11
0,36,64,5
0,64,80,0
0,75,104,2
0,75,84,0
0,36,96,5
0,63,112,0
0,78,66,41
0,78,66,0
0,76,112,35
0,81,78,2
0,81,46,0
0,64,112,38
0,83,85,3
0,83,53,0
0,64,80,10
0,36,96,5
0,63,112,0
0,79,92,1
0,79,68,2
0,76,112,83
0,64,112,38
0,36,64,14
0,64,80,0
0,36,96,5
0,63,112,0
0,76,112,86
0,64,112,38
0,64,80,14
0,36,96,14
0,63,112,0
0,83,96,4
0,83,50,0
0,61,80,38
0,84,48,3
0,84,82,0
0,62,80,14
0,83,93,3
0,83,38,0
0,61,80,14
0,76,112,0
0,84,92,17
0,84,39,0
0,64,112,20
0,36,80,5
0,64,80,0
0,83,100,2
0,83,46,0
0,36,96,14
0,63,112,0
0,61,80,38
0,84,88,3
0,84,40,0
0,62,80,14
0,61,80,5
0,76,112,0
0,83,94,3
0,83,44,0
0,64,112,38
0,84,87,0
0,84,46,0
0,64,80,14
0,36,96,5
0,63,112,0
0,83,99,2
0,83,51,1
0,61,80,5
0,84,44,2
0,84,90,0
0,62,80,14
0,83,100,3
0,83,55,0
0,61,80,14
0,76,112,0
0,84,96,16
0,84,49,1
0,64,112,16
0,36,80,5
0,64,80,0
0,86,93,3
0,86,51,0
0,36,96,14
0,63,112,0
0,61,80,23
0,62,80,14
0,61,80,14
0,76,112,0
0,79,100,3
0,79,41,0
0,64,112,5
0,81,102,3
0,81,55,0
0,64,80,14
0,36,96,11
0,63,112,0
0,83,100,3
0,83,55,0
0,61,80,5
0,84,85,3
0,84,42,0
0,62,80,5
0,83,89,2
0,83,47,0
0,61,80,14
0,76,112,0
0,84,46,17
0,84,87,0
0,64,112,20
0,36,80,4
0,64,80,0
0,83,100,2
0,83,68,0
0,36,96,4
0,63,112,0
0,61,80,38
0,78,61,2
0,78,83,1
0,62,80,5
0,61,80,5
0,76,112,0
0,81,96,2
0,81,40,0
0,64,112,4
0,83,89,3
0,83,48,0
0,64,80,14
0,36,96,10
0,63,112,0
0,81,111,3
0,40,107,0
0,81,65,0
0,61,80,38
0,62,80,14
0,61,80,11
0,76,112,0
0,79,99,3
0,79,81,0
0,64,112,29
0,36,80,14
0,64,80,0
0,36,96,14
0,63,112,0
0,61,80,38
0,62,80,14
0,61,80,14
0,76,112,0
0,64,112,38
0,64,80,14
0,36,96,14
0,63,112,0
0,83,83,4
0,48,107,0
0,83,49,0
0,61,80,1
0,79,83,3
0,79,38,0
0,62,80,4
0,76,87,2
0,76,60,1
0,61,80,14
0,76,112,0
0,72,79,7
0,72,54,0
0,64,112,21
0,36,80,5
0,64,80,0
0,75,98,2
0,75,64,0
0,36,96,4
0,63,112,0
0,47,107,2
0,61,80,38
0,78,76,3
0,78,34,0
0,62,80,5
0,61,80,4
0,76,112,0
0,81,77,3
0,51,107,1
0,81,50,0
0,64,112,5
0,83,90,3
0,83,46,1
0,64,80,10
0,36,96,2
0,63,112,0
0,79,90,3
0,52,107,0
0,79,70,0
0,61,80,17
0,79,78,2
0,79,46,0
0,62,80,14
0,61,80,4
0,76,112,0
0,81,97,2
0,81,53,0
0,79,94,6
0,79,63,0
0,64,112,22
0,36,80,11
0,64,80,0
0,84,86,2
0,84,47,0
0,36,96,5
0,63,112,0
0,50,107,2
0,61,80,38
0,62,80,14
0,61,80,4
0,76,112,0
0,43,107,3
0,83,52,0
0,83,78,0
0,64,112,5
0,81,80,2
0,81,59,1
0,64,80,14
0,36,96,3
0,63,112,0
0,83,83,3
0,48,107,0
0,83,38,0
0,61,80,21
0,79,85,2
0,79,38,0
0,62,80,5
0,76,92,2
0,76,47,1
0,61,80,14
0,76,112,0
0,72,91,7
0,72,46,0
0,64,112,22
0,36,80,14
0,64,80,0
0,75,112,2
0,75,61,0
0,36,96,4
0,63,112,0
0,47,107,1
0,61,80,5
0,83,41,2
0,83,87,1
0,62,80,4
0,61,80,5
0,76,112,0
0,82,110,3
0,51,107,0
0,82,59,0
0,64,112,33
0,81,94,3
0,81,50,0
0,64,80,14
0,47,106,0
0,36,96,11
0,63,112,0
0,79,115,2
0,79,72,0
0,52,107,1
0,61,80,34
0,62,80,14
0,61,80,14
0,76,112,0
0,64,112,38
0,36,80,14
0,64,80,0
0,36,96,14
0,63,112,0
0,61,80,38
0,62,80,14
0,61,80,14
0,76,112,0
0,64,112,38
0,64,80,14
0,36,96,11
0,63,112,0
0,83,99,4
0,48,107,0
0,83,62,0
0,61,80,19
0,84,80,3
0,84,38,0
0,62,80,14
0,83,76,3
0,83,52,0
0,61,80,14
0,76,112,0
0,84,52,16
0,84,87,1
0,64,112,17
0,36,80,14
0,64,80,0
0,83,59,3
0,83,94,0
0,36,96,4
0,63,112,0
0,47,107,2
0,61,80,38
0,84,82,3
0,84,54,1
0,62,80,14
0,61,80,4
0,76,112,0
0,83,87,3
0,51,107,0
0,83,60,0
0,64,112,38
0,84,80,3
0,84,49,0
0,64,80,14
0,36,96,3
0,63,112,0
0,83,89,0
0,52,107,0
0,83,60,0
0,61,80,1
0,84,82,2
0,84,40,0
0,62,80,14
0,83,82,3
0,83,66,0
0,61,80,14
0,76,112,0
0,84,89,16
0,84,54,1
0,64,112,16
0,36,80,4
0,64,80,0
0,86,82,2
0,86,51,0
0,36,96,4
0,63,112,0
0,50,107,2
0,61,80,38
0,62,80,14
0,61,80,4
0,76,112,0
0,79,102,3
0,43,107,0
0,79,65,0
0,64,112,5
0,81,94,2
0,81,65,0
0,64,80,14
0,36,96,3
0,63,112,0
0,83,97,4
0,48,107,0
0,83,65,0
0,61,80,19
0,84,81,3
0,84,35,0
0,62,80,13
0,83,86,2
0,83,43,0
0,61,80,14
0,76,112,0
0,84,38,7
0,84,90,1
0,64,112,20
0,36,80,14
0,64,80,0
0,83,94,3
0,83,51,0
0,36,96,5
0,63,112,0
0,47,107,2
0,61,80,38
0,84,38,2
0,84,86,1
0,62,80,14
0,61,80,4
0,76,112,0
0,83,99,3
0,83,58,0
0,51,107,1
0,64,112,38
0,81,51,3
0,81,86,0
0,64,80,14
0,47,107,1
0,36,96,4
0,63,112,0
0,79,100,3
0,52,107,0
0,79,50,0
0,61,80,4
0,83,88,3
0,83,48,0
0,62,80,14
0,61,80,5
0,76,112,0
0,79,99,3
0,79,51,0
0,64,112,17
0,88,94,3
0,88,50,0
0,36,80,4
0,64,80,0
0,36,96,14
0,63,112,0
0,61,80,38
0,62,80,14
0,61,80,14
0,76,112,0
0,64,112,38
0,64,80,14
0,36,96,10
0,63,112,0
0,59,105,0
0,67,117,0
0,62,113,0
0,64,111,0
0,36,107,0
0,83,48,0
0,61,80,1
0,79,51,2
0,62,80,14
0,64,120,0
0,76,79,2
0,61,80,10
0,76,112,0
0,67,115,0
0,67,115,0
0,72,70,1
0,64,112,23
0,66,115,0
0,36,80,2
0,64,80,0
0,75,84,2
0,36,96,0
0,63,112,0
0,66,84,0
0,64,117,0
0,59,116,0
0,35,107,2
0,66,115,14
0,61,80,24
0,78,61,2
0,62,80,14
0,61,80,0
0,76,112,0
0,66,112,0
0,59,117,0
0,63,108,0
0,67,115,0
0,39,107,3
0,81,60,0
0,64,112,0
0,69,115,0
0,83,68,4
0,64,80,14
0,36,96,0
0,63,112,0
0,64,108,0
0,62,108,0
0,59,113,0
0,67,113,0
0,71,115,0
0,40,90,2
0,79,68,0
0,61,80,0
0,62,80,14
0,61,80,14
0,76,112,0
0,74,115,0
0,71,115,0
0,64,112,22
0,79,68,1
0,76,115,0
0,36,80,2
0,64,80,0
0,36,96,0
0,63,112,0
0,65,117,0
0,62,117,0
0,60,117,0
0,69,117,0
0,38,107,3
0,81,58,0
0,74,115,0
0,61,80,24
0,62,80,14
0,61,80,0
0,76,112,0
0,65,111,0
0,71,115,0
0,31,94,3
0,79,56,1
0,69,115,0
0,64,112,24
0,77,63,3
0,64,80,0
0,67,115,0
0,36,96,0
0,63,112,0
0,64,102,0
0,62,113,0
0,59,101,0
0,67,117,0
0,36,107,3
0,83,47,0
0,61,80,1
0,79,46,2
0,62,80,0
0,76,53,2
0,61,80,14
0,76,112,0
0,69,115,0
0,72,65,16
0,64,112,0
0,67,115,0
0,36,80,5
0,64,80,0
0,75,72,2
0,36,96,0
0,63,112,0
0,64,95,0
0,66,101,0
0,59,117,0
0,64,117,0
0,69,115,0
0,35,107,2
0,61,80,0
0,67,115,0
0,78,44,3
0,62,80,14
0,61,80,0
0,76,112,0
0,59,113,0
0,63,98,0
0,66,108,0
0,71,115,0
0,81,52,3
0,39,107,0
0,64,112,0
0,69,115,0
0,83,48,2
0,64,80,14
0,35,98,2
0,67,115,0
0,36,96,0
0,63,112,0
0,64,108,0
0,62,117,0
0,59,103,0
0,67,116,0
0,40,107,0
0,79,81,0
0,64,115,0
0,61,80,24
0,62,80,14
0,61,80,14
0,76,112,0
0,64,112,5
0,76,117,0
0,71,117,0
0,74,117,0
0,67,117,0
0,83,54,3
0,86,74,1
0,88,60,0
0,36,80,14
0,64,80,0
0,36,96,0
0,63,112,0
0,28,103,1
0,61,80,38
0,62,80,14
0,31,79,2
0,61,80,14
0,76,112,0
0,33,103,2
0,64,112,38
0,64,80,14
0,35,86,2
0,36,96,4
0,63,112,0
0,59,105,0
0,67,117,0
0,62,113,0
0,64,111,0
0,36,107,0
0,83,63,0
0,61,80,17
0,84,52,0
0,62,80,14
0,83,53,2
0,61,80,11
0,76,112,0
0,67,115,0
0,67,115,0
0,84,55,2
0,64,112,16
0,66,115,0
0,36,80,2
0,64,80,0
0,83,60,2
0,36,96,0
0,63,112,0
0,66,84,0
0,64,117,0
0,59,116,0
0,35,98,3
0,66,115,0
0,61,80,24
0,84,52,2
0,62,80,0
0,61,80,1
0,76,112,0
0,66,112,0
0,59,117,0
0,63,108,0
0,67,115,0
0,39,107,3
0,83,60,1
0,64,112,0
0,69,115,0
0,84,51,2
0,64,80,14
0,36,96,0
0,63,112,0
0,64,108,0
0,62,108,0
0,59,113,0
0,67,113,0
0,71,115,0
0,83,59,2
0,40,102,0
0,61,80,0
0,84,48,0
0,62,80,14
0,83,55,2
0,61,80,14
0,76,112,0
0,74,115,0
0,71,115,0
0,84,46,2
0,64,112,17
0,76,115,0
0,36,80,2
0,64,80,0
0,86,46,2
0,36,96,0
0,63,112,0
0,65,117,0
0,62,117,0
0,60,117,0
0,69,117,0
0,38,107,2
0,74,115,0
0,61,80,24
0,62,80,4
0,61,80,0
0,76,112,0
0,65,111,0
0,71,115,0
0,31,100,3
0,79,66,0
0,69,115,0
0,64,112,24
0,81,59,2
0,64,80,0
0,67,115,0
0,36,96,0
0,63,112,0
0,64,102,0
0,62,113,0
0,59,101,0
0,67,117,0
0,36,103,1
0,83,63,2
0,61,80,1
0,84,49,0
0,62,80,0
0,83,55,0
0,61,80,14
0,76,112,0
0,69,115,0
0,84,58,16
0,64,112,0
0,67,115,0
0,36,80,14
0,64,80,0
0,83,68,2
0,36,96,0
0,63,112,0
0,64,95,0
0,66,101,0
0,59,117,0
0,64,117,0
0,69,115,0
0,35,103,3
0,61,80,0
0,67,115,0
0,78,40,2
0,62,80,14
0,61,80,0
0,76,112,0
0,59,113,0
0,63,98,0
0,66,108,0
0,71,115,0
0,81,38,3
0,39,107,1
0,64,112,0
0,69,115,0
0,83,49,3
0,64,80,14
0,35,91,2
0,67,115,0
0,36,96,0
0,63,112,0
0,64,108,0
0,62,117,0
0,59,103,0
0,67,116,0
0,40,107,0
0,81,77,0
0,64,115,0
0,61,80,24
0,62,80,14
0,61,80,4
0,76,112,0
0,79,54,2
0,64,112,0
0,76,117,0
0,71,117,0
0,74,117,0
0,67,117,0
0,36,80,14
0,64,80,0
0,36,96,0
0,63,112,0
0,83,39,3
0,86,65,1
0,88,65,1
0,61,80,38
0,62,80,14
0,61,80,14
0,76,112,0
0,71,115,0
0,31,94,10
0,64,112,0
0,67,115,0
0,35,107,2
0,64,80,14
0,36,127,0
0,42,127,0
0,46,112,0
0,63,112,0
0,59,101,0
0,67,117,0
0,62,108,0
0,64,106,0
0,69,115,0
0,67,96,0
0,62,100,0
0,36,107,0
0,72,100,0
0,64,95,0
0,59,96,0
0,67,115,0
0,67,115,0
0,67,84,0
0,36,96,0
0,62,89,0
0,64,82,0
0,59,100,0
0,38,127,5
0,42,127,0
0,42,112,26
0,64,112,0
0,36,96,14
0,64,80,0
0,36,127,0
0,42,112,0
0,63,112,0
0,66,79,0
0,64,114,0
0,59,112,0
0,71,100,0
0,63,70,1
0,66,70,0
0,60,84,0
0,35,107,0
0,57,91,1
0,42,112,38
0,66,62,0
0,63,66,1
0,57,96,1
0,60,82,1
0,38,127,1
0,42,127,0
0,66,107,0
0,59,117,0
0,63,103,0
0,74,115,0
0,75,100,0
0,71,115,0
0,42,112,24
0,64,112,0
0,64,80,0
0,35,91,1
0,36,127,1
0,42,127,0
0,63,112,0
0,64,103,0
0,62,103,0
0,59,109,0
0,67,108,0
0,76,115,0
0,67,96,0
0,40,107,0
0,76,100,0
0,62,95,0
0,59,91,0
0,64,88,0
0,42,112,0
0,74,115,0
0,38,127,4
0,42,127,0
0,71,115,0
0,63,94,2
0,61,96,1
0,39,107,0
0,58,104,1
0,66,78,1
0,69,115,0
0,42,112,0
0,64,112,0
0,36,96,8
0,64,80,0
0,67,115,0
0,36,127,0
0,42,127,0
0,63,112,0
0,65,117,0
0,62,114,0
0,60,117,0
0,69,117,0
0,60,98,0
0,62,92,0
0,65,89,0
0,38,107,0
0,74,100,0
0,57,90,1
0,59,68,1
0,42,112,0
0,38,127,2
0,42,127,0
0,65,106,0
0,71,115,0
0,31,94,0
0,67,100,0
0,42,112,0
0,64,112,0
0,67,115,0
0,64,80,0
0,36,127,0
0,42,127,0
0,63,112,0
0,64,97,0
0,62,108,0
0,59,97,0
0,67,114,0
0,69,115,0
0,62,96,0
0,72,100,0
0,67,93,0
0,36,107,0
0,64,96,0
0,59,98,0
0,67,115,12
0,42,112,0
0,67,115,14
0,64,84,0
0,62,88,0
0,36,107,0
0,67,86,0
0,59,102,0
0,38,127,18
0,42,127,0
0,42,112,24
0,64,112,0
0,36,96,14
0,64,80,0
0,36,127,0
0,42,127,0
0,63,112,0
0,64,90,0
0,66,96,0
0,59,115,0
0,64,117,0
0,60,90,0
0,35,107,0
0,71,100,0
0,57,96,1
0,63,99,1
0,66,91,0
0,42,112,38
0,66,63,0
0,63,68,1
0,60,81,1
0,57,98,1
0,38,127,1
0,42,127,0
0,59,109,0
0,63,93,0
0,66,103,0
0,69,115,0
0,75,100,0
0,42,112,24
0,64,112,0
0,67,115,0
0,64,80,0
0,35,92,1
0,64,115,0
0,36,127,0
0,42,127,0
0,63,112,0
0,64,103,0
0,62,114,0
0,59,99,0
0,67,111,0
0,67,92,0
0,76,100,0
0,62,89,0
0,64,84,0
0,28,107,0
0,59,94,0
0,42,112,1
0,28,107,16
0,38,127,22
0,42,127,0
0,42,112,38
