track,note,velocity,time
2,56,127,4960
2,56,0,42
2,56,127,35
2,56,0,42
2,57,127,5
2,57,0,64
2,52,127,568
2,54,127,42
2,52,0,2
2,54,0,43
2,56,127,4
2,56,0,34
2,57,127,15
2,57,0,44
2,57,127,0
2,57,0,20
2,57,127,26
2,57,0,32
2,56,127,20
2,56,0,32
2,57,127,13
2,57,0,48
2,52,127,4
2,52,0,24
2,55,127,25
2,55,0,42
2,56,127,5
2,56,0,36
2,57,127,13
2,57,0,28
2,56,127,19
2,56,0,37
2,57,127,12
2,56,127,45
2,57,0,1
2,56,0,42
2,57,127,8
2,57,0,48
2,52,127,0
2,52,0,43
2,54,127,0
2,54,0,48
2,56,127,1
2,57,127,43
2,56,0,1
2,57,0,43
2,60,127,593
2,60,0,84
2,60,127,2
2,60,0,24
2,57,127,24
2,57,0,36
2,57,127,12
2,57,0,35
2,59,127,22
2,59,0,23
2,54,127,18
2,54,0,30
2,57,127,20
2,57,0,31
2,57,127,12
2,57,0,38
2,59,127,17
2,59,0,39
2,54,127,5
2,54,0,40
2,57,127,5
2,57,0,35
2,57,127,14
2,57,0,38
2,59,127,16
2,59,0,30
2,54,127,10
2,54,0,42
2,57,127,10
2,57,0,35
2,52,127,13
2,52,0,36
2,54,127,16
2,56,127,43
2,54,0,1
2,56,0,35
2,57,127,11
2,57,0,40
2,57,127,630
2,58,127,50
2,57,0,22
2,58,0,26
2,59,127,6
2,59,0,92
2,59,127,0
2,59,0,20
2,59,127,31
2,59,0,85
2,59,127,13
2,59,0,27
2,59,127,17
2,59,0,30
2,59,127,16
2,59,0,43
2,57,127,7
2,57,0,31
2,57,127,15
2,57,0,33
2,57,127,12
2,57,0,31
2,57,127,17
2,52,127,102
2,57,0,4
2,52,0,42
2,54,127,4
2,54,0,45
2,56,127,0
2,56,0,35
2,57,127,14
2,57,0,58
2,59,127,696
2,60,127,10
2,59,0,2
2,60,0,78
2,60,127,16
2,60,0,92
2,57,127,8
2,54,127,87
2,57,0,13
2,54,0,31
2,57,127,15
2,57,0,48
2,59,127,378
2,60,127,6
2,59,0,6
2,60,0,64
2,60,127,26
2,60,0,80
2,57,127,16
2,54,127,85
2,57,0,1
2,54,0,51
2,57,127,3
2,57,0,69
2,44,127,69
2,44,0,8
2,45,127,0
2,45,0,86
2,47,127,8
2,47,0,96
2,49,127,0
2,49,0,69
2,60,127,29
2,60,0,84
2,57,127,8
2,57,0,66
2,57,127,31
2,54,127,91
2,57,0,8
2,57,127,49
2,54,0,4
2,57,0,67
2,49,127,58
2,50,127,10
2,49,0,2
2,50,0,94
2,52,127,2
2,54,127,89
2,52,0,6
2,54,0,65
2,60,127,35
2,59,127,92
2,60,0,2
2,59,0,61
2,57,127,38
2,57,0,88
2,54,127,8
2,54,0,33
2,57,127,15
2,57,0,62
2,52,127,370
2,52,0,288
2,50,127,92
2,50,0,271
2,59,127,105
2,60,127,6
2,59,0,15
2,60,0,72
2,59,127,7
2,59,0,85
2,57,127,15
2,54,127,92
2,57,0,10
2,57,127,45
2,54,0,3
2,57,0,57
2,52,127,229
2,54,127,44
2,52,0,1
2,56,127,42
2,54,0,6
2,56,0,42
2,57,127,4
2,52,127,49
2,57,0,6
2,52,0,30
2,57,127,14
2,56,127,40
2,57,0,8
2,56,0,45
2,57,127,2
2,52,127,52
2,57,0,4
2,52,0,34
2,54,127,5
2,54,0,48
2,56,127,2
2,57,127,49
2,56,0,3
2,56,127,40
2,57,0,13
2,56,0,27
2,57,127,14
2,57,0,48
2,56,127,1
2,56,0,43
2,57,127,4
2,52,127,46
2,57,0,4
2,52,0,35
2,54,127,7
2,54,0,45
2,56,127,1
2,57,127,45
2,56,0,3
2,57,0,52
2,59,127,574
2,59,0,92
2,59,127,12
2,59,0,38
2,57,127,6
2,57,0,35
2,57,127,13
2,57,0,40
2,59,127,7
2,59,0,50
2,54,127,0
2,54,0,43
2,57,127,4
2,57,0,38
2,57,127,14
2,57,0,42
2,59,127,5
2,54,127,46
2,59,0,1
2,54,0,39
2,57,127,7
2,57,0,32
2,57,127,16
2,57,0,36
2,59,127,12
2,59,0,48
2,54,127,0
2,54,0,48
2,57,127,0
2,57,0,48
2,52,127,0
2,52,0,40
2,54,127,8
2,56,127,44
2,54,0,1
2,56,0,41
2,57,127,4
2,57,0,44
2,60,127,9
2,60,127,7
2,60,0,30
2,59,127,16
2,59,0,71
2,59,127,21
2,59,0,82
2,59,127,12
2,59,0,72
2,59,127,1
2,57,127,18
2,57,0,31
2,57,127,16
2,57,0,69
2,57,127,22
2,57,0,65
2,54,127,37
2,54,0,87
2,56,127,1
2,56,0,36
2,57,127,9
2,57,0,50
2,64,127,199
2,64,0,48
2,64,127,30
2,59,127,289
2,60,127,10
2,59,0,2
2,60,0,78
2,60,127,16
2,60,0,92
2,57,127,8
2,54,127,87
2,57,0,13
2,54,0,31
2,57,127,15
2,57,0,48
2,59,127,378
2,60,127,6
2,59,0,6
2,60,0,64
2,60,127,26
2,60,0,80
2,57,127,16
2,54,127,85
2,57,0,1
2,54,0,51
2,57,127,3
2,57,0,69
2,44,127,69
2,44,0,8
2,45,127,0
2,45,0,86
2,47,127,8
2,47,0,96
2,49,127,0
2,49,0,69
2,60,127,29
2,60,0,84
2,57,127,8
2,57,0,66
2,57,127,31
2,54,127,91
2,57,0,8
2,57,127,49
2,54,0,4
2,57,0,67
2,49,127,58
2,50,127,10
2,49,0,2
2,50,0,94
2,52,127,2
2,54,127,89
2,52,0,6
2,54,0,65
2,60,127,35
2,59,127,92
2,60,0,2
2,59,0,61
2,57,127,38
2,57,0,88
2,54,127,8
2,54,0,33
2,57,127,15
2,57,0,62
2,52,127,370
2,52,0,288
2,50,127,92
2,50,0,271
2,59,127,105
2,60,127,6
2,59,0,15
2,60,0,72
2,59,127,7
2,59,0,85
2,57,127,15
2,54,127,92
2,57,0,10
2,57,127,45
2,54,0,3
2,57,0,57
2,64,127,59
2,64,0,29
2,64,127,45
2,62,127,4555
2,64,127,42
2,62,0,2
2,64,0,43
2,64,127,4
2,64,0,34
2,61,127,15
2,61,0,40
2,61,127,0
2,61,0,32
2,61,127,24
2,61,0,48
2,57,127,0
2,57,0,44
2,60,127,4
2,60,0,40
2,61,127,7
2,61,0,32
2,61,127,17
2,61,0,42
2,57,127,5
2,57,0,36
2,60,127,21
2,60,0,28
2,61,127,11
2,61,0,37
2,61,127,12
2,57,127,45
2,61,0,1
2,57,0,42
2,61,127,8
2,61,0,48
2,61,127,0
2,61,0,38
2,61,127,5
2,61,0,48
2,57,127,1
2,61,127,43
2,57,0,1
2,61,0,43
2,64,127,593
2,64,0,84
2,64,127,2
2,64,0,24
2,62,127,24
2,62,0,36
2,62,127,12
2,62,0,36
2,62,127,21
2,62,0,24
2,61,127,17
2,61,0,32
2,62,127,18
2,62,0,32
2,62,127,11
2,62,0,40
2,62,127,15
2,62,0,44
2,61,127,0
2,61,0,40
2,62,127,5
2,62,0,36
2,57,127,13
2,57,0,40
2,62,127,14
2,62,0,32
2,61,127,8
2,61,0,42
2,62,127,10
2,62,0,38
2,62,127,10
2,62,0,36
2,64,127,16
2,64,0,40
2,64,127,0
2,64,0,36
2,61,127,12
2,61,0,40
2,64,127,624
2,62,127,56
2,64,0,16
2,62,0,20
2,64,127,20
2,64,0,92
2,57,127,0
2,57,0,32
2,64,127,19
2,64,0,85
2,64,127,13
2,64,0,28
2,64,127,16
2,64,0,32
2,63,127,14
2,63,0,43
2,62,127,7
2,62,0,32
2,62,127,14
2,62,0,33
2,62,127,12
2,62,0,32
2,62,127,24
2,62,0,72
2,62,127,12
2,62,0,28
2,62,127,29
2,62,0,40
2,62,127,3
2,62,0,36
2,61,127,15
2,61,0,52
2,64,127,337
2,64,127,4
2,61,127,3
2,61,0,48
2,61,127,1
2,61,0,32
2,61,127,14
2,60,127,40
2,61,0,8
2,60,0,45
2,61,127,2
2,61,0,48
2,61,127,4
2,61,0,40
2,61,127,7
2,60,127,46
2,61,0,2
2,61,127,47
2,60,0,3
2,61,0,41
2,57,127,1
2,57,0,40
2,61,127,12
2,61,0,48
2,60,127,1
2,60,0,44
2,61,127,3
2,57,127,46
2,61,0,2
2,57,0,38
2,61,127,6
2,61,0,45
2,60,127,5
2,61,127,44
2,60,0,4
2,61,0,40
2,64,127,582
2,64,0,92
2,64,127,12
2,64,0,38
2,62,127,6
2,62,0,36
2,62,127,12
2,62,0,40
2,62,127,7
2,62,0,48
2,60,127,2
2,60,0,28
2,62,127,19
2,62,0,48
2,62,127,4
2,62,0,32
2,62,127,15
2,57,127,46
2,62,0,2
2,57,0,38
2,62,127,7
2,62,0,40
2,62,127,8
2,62,0,36
2,62,127,12
2,62,0,48
2,60,127,0
2,60,0,40
2,62,127,8
2,62,0,48
2,62,127,0
2,64,127,48
2,62,0,1
2,64,0,43
2,64,127,0
2,61,127,46
2,64,0,2
2,61,0,38
2,64,127,9
2,57,127,3
2,57,0,33
2,64,127,17
2,64,0,80
2,64,127,12
2,64,0,82
2,64,127,12
2,64,0,72
2,64,127,1
2,62,127,18
2,62,0,32
2,57,127,15
2,57,0,69
2,62,127,22
2,62,0,65
2,62,127,37
2,62,0,76
2,62,127,14
2,62,0,28
2,61,127,15
2,61,0,50
2,67,127,0
2,66,127,33
2,63,127,123
2,64,127,6
2,63,0,2
2,64,0,62
2,64,127,26
2,64,0,92
2,61,127,14
2,60,127,87
2,61,0,13
2,60,0,31
2,61,127,15
2,61,0,48
2,63,127,378
2,64,127,6
2,63,0,6
2,64,0,64
2,64,127,26
2,64,0,80
2,61,127,16
2,60,127,85
2,61,0,1
2,61,127,50
2,60,0,1
2,61,0,71
2,44,127,70
2,44,0,8
2,45,127,0
2,45,0,86
2,47,127,8
2,47,0,96
2,49,127,0
2,49,0,69
2,62,127,31
2,62,0,72
2,64,127,18
2,64,0,72
2,62,127,25
2,64,127,91
2,62,0,8
2,62,127,49
2,64,0,4
2,62,0,64
2,49,127,61
2,50,127,10
2,49,0,2
2,50,0,94
2,52,127,2
2,54,127,89
2,52,0,6
2,54,0,65
2,61,127,38
2,61,0,88
2,62,127,3
2,62,0,64
2,61,127,35
2,61,0,88
2,62,127,8
2,62,0,33
2,61,127,15
2,61,0,55
2,64,127,377
2,64,0,336
2,62,127,44
2,62,0,271
2,60,127,105
2,61,127,8
2,60,0,13
2,61,0,74
2,62,127,9
2,62,0,76
2,61,127,20
2,62,127,92
2,61,0,10
2,61,127,45
2,62,0,3
2,61,0,57
2,66,127,2
2,64,127,31
3,57,127,2187
3,61,127,197
3,64,127,191
3,57,0,132
3,69,127,73
3,61,0,101
3,69,0,70
3,54,127,12
3,64,0,19
3,57,127,163
3,61,127,196
3,54,0,150
3,66,127,42
3,61,0,125
3,57,0,25
3,50,127,42
3,66,0,8
3,54,127,176
3,57,127,200
3,62,127,192
3,50,0,9
3,54,0,74
3,57,0,44
3,62,0,44
3,52,127,21
3,56,127,192
3,59,127,192
3,52,0,151
3,64,127,29
3,56,0,56
3,64,0,16
3,59,0,10
3,56,127,12
3,56,0,33
3,68,127,28
3,56,127,2
3,68,0,34
3,56,0,2
3,57,127,11
3,69,127,2
3,57,0,42
3,69,0,2
3,59,126,3808
3,64,126,2
3,59,0,358
3,62,127,9
3,57,127,0
3,64,0,8
3,57,0,355
3,62,0,0
3,61,127,23
3,57,127,2
3,61,0,44
3,57,0,5
3,57,127,716
3,64,124,1
3,64,0,165
3,57,0,10
3,61,122,19
3,57,127,5
3,57,0,120
3,61,0,1
3,61,124,23
3,57,127,1
3,61,0,27
3,57,0,4
3,64,127,394
3,57,127,1
3,64,0,146
3,57,0,27
3,57,126,16
3,61,117,2
3,57,0,129
3,61,0,3
3,67,127,28
3,61,127,0
3,61,0,28
3,67,0,4
3,57,115,380
3,66,96,4
3,66,0,156
3,57,0,9
3,57,107,22
3,62,120,1
3,57,0,119
3,62,0,1
3,62,127,25
3,57,123,1
3,66,127,12
3,62,0,15
3,66,0,7
3,57,0,3
3,57,122,395
3,64,116,1
3,64,0,131
3,57,0,36
3,61,121,21
3,57,117,7
3,61,0,114
3,57,0,2
3,57,127,39
3,61,127,1
3,61,0,30
3,57,0,1
3,59,120,385
3,64,113,2
3,64,0,346
3,59,0,14
3,66,89,24
3,57,124,1
3,62,126,3
3,62,0,304
3,57,0,11
3,66,0,38
3,64,120,32
3,57,127,2
3,64,0,170
3,57,0,3
3,57,127,23
3,61,126,3
3,61,0,109
3,57,0,4
3,64,127,32
3,57,127,1
3,61,127,2
3,61,0,28
3,64,0,0
3,57,0,2
3,61,102,382
3,64,118,1
3,57,106,3
3,66,106,1050
3,66,0,93
3,67,100,6
3,64,0,9
3,57,0,279
3,67,0,4
3,61,0,10
3,57,115,56
3,62,120,31
3,66,92,14
3,66,0,649
3,62,0,35
3,57,0,31
3,57,118,38
3,64,117,1
3,61,84,4
3,61,0,643
3,64,0,21
3,57,0,1
3,56,116,102
3,64,121,2
3,59,116,0
3,64,0,357
3,57,83,10
3,54,93,1
3,66,84,1
3,62,79,4
3,56,0,10
3,59,0,7
3,62,0,334
3,66,0,2
3,54,0,1
3,57,0,4
3,57,84,12
3,64,78,5
3,61,85,9
3,57,0,645
3,61,0,12
3,64,0,7
3,57,110,104
3,64,115,8
3,57,117,4
3,57,0,279
3,64,0,28
3,57,0,7
3,61,120,19
3,67,124,1
3,61,0,39
3,67,0,1
3,57,115,381
3,61,103,0
3,64,113,4
3,64,0,284
3,61,100,1
3,64,110,1
3,61,0,5
3,64,0,11
3,61,0,3
3,57,0,23
3,61,124,24
3,67,127,1
3,57,127,2
3,57,0,26
3,61,0,3
3,67,0,7
3,54,70,378
3,57,84,2
3,62,78,4
3,54,0,254
3,57,0,4
3,62,0,2
3,57,116,18
3,62,113,2
3,57,0,21
3,62,0,5
3,57,127,33
3,62,127,0
3,66,127,5
3,57,0,18
3,66,0,5
3,62,0,0
3,64,105,391
3,61,110,1
3,57,96,2
3,64,0,258
3,57,0,1
3,61,0,5
3,61,122,21
3,66,112,3
3,66,0,20
3,61,0,2
3,57,126,37
3,61,127,0
3,64,123,2
3,57,0,29
3,64,0,3
3,61,0,0
3,64,106,389
3,59,84,2
3,56,93,1
3,59,0,342
3,56,0,18
3,54,81,9
3,64,0,1
3,62,91,11
3,57,97,3
3,57,0,356
3,54,0,1
3,62,0,1
3,57,110,16
3,61,103,7
3,64,101,1
3,61,0,173
3,64,0,108
3,61,126,11
3,64,126,2
3,57,0,20
3,61,0,2
3,64,0,3
3,64,127,31
3,61,127,2
3,57,127,2
3,64,0,21
3,61,0,1
3,57,0,2
3,64,100,8071
3,59,107,4
3,62,115,338
3,64,0,3
3,57,91,7
3,59,0,2
3,66,98,37
3,57,0,352
3,66,0,6
3,62,0,1
3,57,127,108
3,64,120,4
3,61,126,1
3,61,0,22
3,64,0,2
3,57,0,7
3,64,127,59
3,57,127,0
3,57,0,32
3,64,0,0
3,57,124,109
3,61,124,1
3,64,123,2
3,64,0,26
3,61,0,0
3,57,0,2
3,57,127,405
3,61,110,7
3,64,117,1
3,64,0,1022
3,66,112,1
3,67,98,117
3,66,0,3
3,61,0,189
3,67,0,58
3,57,0,63
3,57,105,74
3,62,102,4
3,66,102,5
3,62,0,719
3,57,0,9
3,66,0,1
3,57,108,34
3,61,105,4
3,64,76,8
3,61,0,684
3,64,0,1
3,57,0,3
3,59,95,51
3,64,120,8
3,68,106,7
3,59,0,347
3,64,0,4
3,68,0,1
3,57,124,32
3,66,65,5
3,62,127,0
3,66,0,339
3,62,0,12
3,64,118,34
3,61,106,4
3,61,0,686
3,64,0,1
3,57,0,1
3,57,127,68
3,64,124,1
3,64,0,165
3,57,0,10
3,61,122,19
3,57,127,5
3,57,0,120
3,61,0,1
3,61,124,23
3,57,127,1
3,61,0,27
3,57,0,4
3,64,127,394
3,57,127,1
3,64,0,146
3,57,0,27
3,57,126,16
3,61,117,2
3,57,0,129
3,61,0,3
