track,note,velocity,time
0,44,73,104
0,69,44,0
0,40,115,0
0,64,126,0
0,42,55,16
0,69,47,0
0,64,107,0
0,44,85,16
0,69,47,0
0,40,123,0
0,64,105,0
0,42,61,16
0,69,46,0
0,64,111,0
0,44,85,16
0,69,33,0
0,64,90,0
0,42,53,16
0,69,35,0
0,40,114,0
0,64,96,0
0,44,81,16
0,69,51,0
0,64,119,0
0,36,95,16
0,42,58,0
0,69,36,0
0,35,109,0
0,64,92,0
0,36,109,16
0,44,79,0
0,69,30,0
0,40,122,0
0,64,90,0
0,42,52,16
0,69,31,0
0,64,115,0
0,44,86,16
0,69,43,0
0,64,101,0
0,42,54,16
0,69,29,0
0,64,100,0
0,44,77,8
0,69,46,0
0,64,93,0
0,42,56,92
0,69,46,0
0,35,108,0
0,44,84,8
0,69,52,0
0,40,115,0
0,42,44,16
0,69,40,0
0,39,106,0
0,36,107,16
0,44,78,0
0,69,44,0
0,37,117,0
0,64,121,0
0,42,46,16
0,69,29,0
0,64,98,0
0,36,109,16
0,44,78,0
0,69,48,0
0,37,118,0
0,64,104,0
0,42,61,16
0,69,29,0
0,64,105,0
0,44,89,16
0,69,36,0
0,64,108,0
0,42,45,16
0,69,46,0
0,37,122,0
0,64,95,0
0,44,80,16
0,69,53,0
0,64,100,0
0,36,99,16
0,42,50,0
0,69,37,0
0,32,110,0
0,64,94,0
0,36,108,16
0,44,88,0
0,69,44,0
0,37,108,0
0,64,103,0
0,42,48,16
0,69,31,0
0,64,107,0
0,44,78,16
0,69,43,0
0,64,108,0
0,42,51,16
0,69,35,0
0,64,97,0
0,44,84,8
0,69,30,0
0,64,100,0
0,42,48,92
0,69,38,0
0,32,120,0
0,44,73,8
0,69,51,0
0,37,118,0
0,42,55,16
0,69,37,0
0,32,122,0
0,36,111,16
0,44,78,0
0,69,46,0
0,33,125,0
0,64,120,0
0,42,44,16
0,69,43,0
0,64,107,0
0,36,104,16
0,44,89,0
0,69,58,0
0,33,113,0
0,64,101,0
0,42,54,16
0,69,31,0
0,64,104,0
0,44,73,16
0,69,34,0
0,64,90,0
0,42,49,16
0,69,41,0
0,33,113,0
0,64,108,0
0,44,91,16
0,69,46,0
0,64,115,0
0,36,103,16
0,42,61,0
0,69,44,0
0,28,114,0
0,64,97,0
0,36,124,16
0,44,89,0
0,69,42,0
0,33,125,0
0,64,97,0
0,42,52,16
0,69,42,0
0,64,115,0
0,44,80,16
0,69,61,0
0,64,108,0
0,42,48,16
0,69,46,0
0,64,91,0
0,44,82,8
0,69,40,0
0,64,102,0
0,42,43,92
0,69,36,0
0,44,84,8
0,69,54,0
0,42,61,24
0,69,42,0
0,32,115,0
0,36,114,16
0,44,80,0
0,69,44,0
0,33,111,0
0,64,126,0
0,42,46,16
0,69,41,0
0,64,109,0
0,36,106,16
0,44,78,0
0,69,52,0
0,33,112,0
0,64,95,0
0,42,47,16
0,69,47,0
0,64,114,0
0,44,89,16
0,69,39,0
0,64,108,0
0,42,55,16
0,69,37,0
0,33,106,0
0,64,108,0
0,44,91,16
0,69,55,0
0,64,118,0
0,36,96,16
0,42,59,0
0,69,47,0
0,64,94,0
0,36,112,16
0,44,91,0
0,69,37,0
0,36,111,0
0,64,107,0
0,42,48,16
0,69,43,0
0,64,117,0
0,44,79,16
0,69,51,0
0,36,115,0
0,64,105,0
0,42,59,16
0,69,45,0
0,64,90,0
0,44,88,8
0,69,28,0
0,35,119,0
0,64,100,0
0,42,46,16
0,69,43,0
0,44,86,8
0,69,44,0
0,35,123,0
0,42,58,12
0,69,34,0
0,44,73,8
0,69,28,0
0,40,123,0
0,64,117,0
0,64,88,0
0,68,96,0
0,42,46,16
0,69,29,0
0,64,109,0
0,44,82,16
0,69,44,0
0,40,107,0
0,64,107,0
0,42,50,16
0,69,29,0
0,64,100,0
0,44,91,16
0,69,42,0
0,64,102,0
0,42,58,16
0,69,44,0
0,40,108,0
0,64,99,0
0,44,86,16
0,69,60,0
0,64,109,0
0,36,91,16
0,42,48,0
0,69,30,0
0,35,111,0
0,64,94,0
0,36,109,16
0,44,91,0
0,69,37,0
0,40,113,0
0,64,107,0
0,42,62,16
0,69,29,0
0,64,103,0
0,44,79,16
0,69,61,0
0,64,98,0
0,42,59,16
0,69,31,0
0,64,100,0
0,44,83,8
0,69,41,0
0,64,105,0
0,42,52,16
0,69,36,0
0,35,124,0
0,44,77,8
0,69,59,0
0,40,118,0
0,63,88,0
0,66,98,0
0,42,51,16
0,69,44,0
0,39,110,0
0,64,99,0
0,68,97,0
0,36,123,16
0,44,83,0
0,69,44,0
0,37,124,0
0,64,121,0
0,42,54,16
0,69,29,0
0,64,107,0
0,36,107,16
0,44,80,0
0,69,60,0
0,37,125,0
0,64,104,0
0,42,50,16
0,69,41,0
0,64,107,0
0,44,89,16
0,69,44,0
0,64,105,0
0,42,53,16
0,69,46,0
0,37,112,0
0,64,108,0
0,44,86,16
0,69,58,0
0,64,106,0
0,36,107,16
0,42,46,0
0,69,33,0
0,32,122,0
0,64,90,0
0,36,109,16
0,44,78,0
0,69,43,0
0,37,110,0
0,64,98,0
0,42,55,16
0,69,28,0
0,64,117,0
0,44,87,16
0,69,57,0
0,64,92,0
0,42,57,16
0,69,36,0
0,64,102,0
0,44,84,8
0,69,38,0
0,64,90,0
0,42,54,16
0,69,28,0
0,32,117,0
0,44,77,8
0,69,52,0
0,37,109,0
0,42,44,16
0,69,39,0
0,32,121,0
0,63,100,0
0,66,91,0
0,36,121,16
0,44,72,0
0,69,30,0
0,33,125,0
0,64,127,0
0,64,86,0
0,68,96,0
0,42,61,16
0,69,38,0
0,64,103,0
0,36,108,16
0,44,89,0
0,69,61,0
0,33,116,0
0,64,99,0
0,42,53,16
0,69,46,0
0,64,117,0
0,44,73,16
0,69,46,0
0,64,99,0
0,42,57,16
0,69,45,0
0,33,109,0
0,64,102,0
0,44,76,16
0,69,59,0
0,64,113,0
0,36,108,16
0,42,44,0
0,69,31,0
0,28,123,0
0,64,99,0
0,36,115,16
0,44,79,0
0,69,33,0
0,33,110,0
0,64,99,0
0,42,51,16
0,69,44,0
0,64,109,0
0,44,77,16
0,69,58,0
0,64,98,0
0,42,61,16
0,69,29,0
0,64,90,0
0,44,82,8
0,69,37,0
0,64,103,0
0,42,52,16
0,69,46,0
0,44,78,8
0,69,52,0
0,33,119,0
0,63,84,0
0,66,85,0
0,42,53,16
0,69,42,0
0,35,110,0
0,36,110,16
0,44,91,0
0,69,42,0
0,36,106,0
0,64,124,0
0,64,86,0
0,67,94,0
0,42,56,16
0,69,46,0
0,64,95,0
0,36,104,16
0,44,80,0
0,69,45,0
0,36,125,0
0,64,100,0
0,42,53,16
0,69,39,0
0,64,117,0
0,44,81,16
0,69,40,0
0,64,108,0
0,42,59,16
0,69,35,0
0,36,117,0
0,64,103,0
0,44,77,16
0,69,48,0
0,64,110,0
0,36,108,16
0,42,54,0
0,69,34,0
0,64,108,0
0,36,115,16
0,44,73,0
0,69,40,0
0,36,111,0
0,59,88,0
0,64,93,0
0,67,86,0
0,64,92,0
0,64,101,0
0,67,96,0
0,42,60,16
0,69,36,0
0,64,112,0
0,44,87,16
0,69,58,0
0,36,111,0
0,64,107,0
0,42,53,16
0,69,34,0
0,64,107,0
0,36,115,8
0,44,87,0
0,69,28,0
0,35,109,0
0,57,81,0
0,62,81,0
0,66,96,0
0,64,107,0
0,62,89,0
0,66,90,0
0,42,49,16
0,69,35,0
0,38,125,8
0,44,85,0
0,69,60,0
0,35,117,0
0,42,44,16
0,45,120,0
0,69,30,0
0,36,120,16
0,49,114,0
0,69,31,0
0,40,120,0
0,59,97,0
0,64,98,0
0,68,96,0
0,64,110,0
0,64,88,0
0,68,98,0
0,69,41,16
0,64,91,0
0,36,99,16
0,42,91,0
0,69,43,0
0,40,107,0
0,64,100,0
0,69,31,16
0,64,116,0
0,38,116,16
0,42,86,0
0,69,35,0
0,64,102,0
0,36,96,16
0,69,46,0
0,40,125,0
0,64,95,0
0,42,86,16
0,69,46,0
0,64,117,0
0,59,127,0
0,36,106,16
0,69,45,0
0,35,121,0
0,64,99,0
0,59,127,0
0,36,125,16
0,42,80,0
0,69,31,0
0,40,116,0
0,64,107,0
0,59,127,0
0,69,38,16
0,64,102,0
0,59,127,0
0,42,77,16
0,69,46,0
0,64,94,0
0,69,29,16
0,64,109,0
0,59,127,0
0,38,115,8
0,42,85,0
0,69,39,0
0,64,99,0
0,69,30,92
0,35,125,0
0,42,78,8
0,69,56,0
0,40,124,0
0,59,126,0
0,69,34,16
0,39,125,0
0,36,117,16
0,42,90,0
0,69,39,0
0,37,116,0
0,61,92,0
0,64,81,0
0,68,83,0
0,64,122,0
0,57,127,0
0,69,43,16
0,64,96,0
0,36,102,16
0,42,81,0
0,69,62,0
0,37,118,0
0,64,101,0
0,56,127,0
0,69,47,16
0,64,112,0
0,52,127,0
0,38,120,16
0,42,89,0
0,69,35,0
0,64,92,0
0,36,96,16
0,69,44,0
0,37,122,0
0,64,103,0
0,42,80,16
0,69,48,0
0,64,101,0
0,36,94,16
0,69,44,0
0,32,125,0
0,64,93,0
0,36,120,16
0,42,90,0
0,69,28,0
0,37,109,0
0,64,105,0
0,69,40,16
0,64,109,0
0,42,92,16
0,69,46,0
0,83,98,0
0,64,97,0
0,69,47,16
0,64,95,0
0,38,107,8
0,42,85,0
0,69,29,0
0,76,91,0
0,64,92,0
0,69,46,92
0,32,116,0
0,42,83,8
0,69,53,0
0,37,117,0
0,78,91,0
0,69,43,16
0,32,120,0
0,61,98,0
0,64,85,0
0,68,94,0
0,71,88,0
0,36,121,16
0,42,84,0
0,69,29,0
0,33,123,0
0,64,111,0
0,69,30,16
0,64,103,0
0,36,105,16
0,42,77,0
0,69,44,0
0,33,123,0
0,64,91,0
0,69,28,16
0,64,118,0
0,38,122,16
0,42,79,0
0,69,39,0
0,64,102,0
0,36,104,16
0,69,29,0
0,33,115,0
0,64,102,0
0,42,84,16
0,69,46,0
0,64,117,0
0,59,125,0
0,36,103,16
0,69,47,0
0,28,118,0
0,64,96,0
0,59,122,0
0,36,110,16
0,42,86,0
0,69,29,0
0,33,117,0
0,64,96,0
0,59,127,0
0,69,44,16
0,64,115,0
0,42,74,16
0,69,59,0
0,64,94,0
0,59,127,0
0,69,36,16
0,64,92,0
0,38,113,8
0,42,85,0
0,69,35,0
0,64,108,0
0,57,127,0
0,69,29,92
0,42,86,8
0,69,58,0
0,56,127,0
0,69,37,92
0,32,118,0
0,36,116,16
0,42,84,0
0,69,34,0
0,33,112,0
0,61,93,0
0,64,87,0
0,68,96,0
0,64,117,0
0,69,32,16
0,64,108,0
0,36,98,16
0,42,80,0
0,69,45,0
0,33,125,0
0,64,101,0
0,52,127,0
0,69,32,16
0,64,117,0
0,38,118,16
0,42,81,0
0,69,41,0
0,64,98,0
0,36,103,16
0,69,36,0
0,33,119,0
0,64,92,0
0,42,76,16
0,69,44,0
0,64,117,0
0,36,110,16
0,69,42,0
0,28,123,0
0,64,100,0
0,36,110,16
0,42,82,0
0,69,46,0
0,36,116,0
0,59,88,0
0,64,84,0
0,67,88,0
0,64,100,0
0,69,31,16
0,64,101,0
0,42,89,16
0,69,57,0
0,36,117,0
0,64,81,0
0,64,104,0
0,69,41,16
0,64,93,0
0,38,109,8
0,42,79,0
0,69,29,0
0,35,119,0
0,62,99,0
0,66,94,0
0,62,90,0
0,69,43,16
0,46,108,8
0,69,54,0
0,35,116,0
0,62,92,0
0,69,34,16
0,59,80,0
0,64,95,0
0,68,85,0
0,36,118,16
0,42,80,0
0,69,45,0
0,40,119,0
0,64,127,0
0,64,87,0
0,68,95,0
0,69,37,16
0,64,97,0
0,36,105,16
0,42,92,0
0,69,58,0
0,40,125,0
0,64,95,0
0,69,47,16
0,64,101,0
0,38,123,16
0,42,88,0
0,69,28,0
0,64,99,0
0,36,105,16
0,69,36,0
0,40,108,0
0,64,97,0
0,42,80,16
0,69,43,0
0,64,118,0
0,47,123,0
0,36,95,16
0,69,35,0
0,35,125,0
0,64,92,0
0,36,119,16
0,42,75,0
0,69,46,0
0,40,122,0
0,64,90,0
0,59,124,0
0,69,34,16
0,64,105,0
0,42,80,16
0,69,51,0
0,64,95,0
0,59,127,0
0,69,39,16
0,64,105,0
0,38,122,8
0,42,85,0
0,69,36,0
0,64,96,0
0,59,127,0
0,69,45,16
0,35,112,0
0,59,127,0
0,42,75,8
0,69,59,0
0,40,115,0
0,63,95,0
0,63,88,0
0,66,92,0
0,69,47,16
0,39,117,0
0,61,92,0
0,64,90,0
0,68,90,0
0,64,97,0
0,68,93,0
0,57,125,0
0,36,120,16
0,42,77,0
0,69,46,0
0,37,106,0
0,64,111,0
0,69,45,16
0,64,106,0
0,36,104,16
0,42,74,0
0,69,49,0
0,37,114,0
0,64,103,0
0,56,127,0
0,69,40,16
0,64,116,0
0,52,127,0
0,38,109,16
0,42,89,0
0,69,45,0
0,64,92,0
0,36,100,16
0,69,33,0
0,37,112,0
0,64,94,0
0,42,74,16
0,69,58,0
0,64,113,0
0,36,92,16
0,69,44,0
0,32,115,0
0,64,98,0
0,36,115,16
0,42,86,0
0,69,33,0
0,37,123,0
0,64,92,0
0,69,42,16
0,64,101,0
0,42,75,16
0,69,45,0
0,64,101,0
0,69,43,16
0,64,109,0
0,38,107,8
0,42,79,0
0,69,37,0
0,71,82,0
0,64,104,0
0,69,28,16
0,32,120,0
0,42,82,8
0,69,48,0
0,37,113,0
0,66,96,0
0,63,86,0
0,66,100,0
0,69,42,16
0,32,122,0
0,64,90,0
0,68,84,0
0,36,106,16
0,42,78,0
0,69,38,0
0,33,112,0
0,61,93,0
0,64,91,0
0,68,94,0
0,64,111,0
0,69,34,16
0,64,100,0
0,36,109,16
0,42,89,0
0,69,60,0
0,33,125,0
0,64,101,0
0,69,33,16
0,64,117,0
0,38,111,16
0,42,83,0
0,69,30,0
0,64,102,0
0,36,104,16
0,69,29,0
0,33,118,0
0,64,95,0
0,42,77,16
0,69,61,0
0,64,114,0
0,59,122,0
0,36,100,16
0,69,45,0
0,28,125,0
0,64,106,0
0,36,124,16
0,42,77,0
0,69,43,0
0,33,110,0
0,64,97,0
0,59,122,0
0,69,39,16
0,64,105,0
0,59,125,0
0,42,86,16
0,69,58,0
0,64,90,0
0,69,42,16
0,64,94,0
0,57,125,0
0,38,117,8
0,42,81,0
0,69,30,0
0,64,91,0
0,69,39,92
0,42,84,8
0,69,47,0
0,33,108,0
0,56,124,0
0,69,41,16
0,35,125,0
0,36,119,16
0,42,89,0
0,69,35,0
0,36,111,0
0,59,88,0
0,64,96,0
0,67,91,0
0,64,113,0
0,64,101,0
0,67,96,0
0,52,127,0
0,69,34,16
0,64,106,0
0,36,99,16
0,42,73,0
0,69,48,0
0,36,112,0
0,64,100,0
0,69,40,16
0,64,117,0
0,38,121,16
0,42,84,0
0,69,38,0
0,64,102,0
0,36,98,16
0,69,37,0
0,36,124,0
0,64,96,0
0,42,85,16
0,69,57,0
0,64,106,0
0,36,96,16
0,69,28,0
0,36,108,0
0,64,103,0
0,88,80,44
0,83,96,24
0,36,119,16
0,42,90,0
0,69,29,0
0,36,124,0
0,79,86,0
0,64,93,0
0,69,44,16
0,64,115,0
0,42,86,16
0,69,44,0
0,36,112,0
0,64,103,0
0,56,92,0
0,57,93,16
0,69,40,16
0,64,108,0
0,58,85,16
0,38,107,16
0,42,88,0
0,69,44,0
0,36,113,0
0,64,101,0
0,59,93,0
0,60,94,16
0,69,42,16
0,61,96,16
0,38,110,16
0,42,86,0
0,69,59,0
0,36,113,0
0,62,92,0
0,63,101,16
0,38,122,16
0,69,42,0
0,37,121,0
0,64,85,16
0,36,111,16
0,49,115,0
0,69,47,0
0,38,112,0
0,57,85,0
0,60,90,0
0,64,97,0
0,67,80,0
0,69,116,0
0,72,115,0
0,76,125,0
0,60,84,0
0,64,87,0
0,57,92,0
0,64,84,0
0,59,122,0
