track,note,velocity,time
1,36,95,3456
1,36,0,166
1,36,95,26
1,38,95,48
1,36,0,3
1,38,0,42
1,40,95,3
1,40,0,47
1,41,95,1
1,41,0,191
1,41,95,49
1,40,95,48
1,41,0,7
1,38,95,41
1,40,0,4
1,36,95,44
1,38,0,3
1,36,0,236
1,40,95,1
1,41,95,48
1,40,0,6
1,42,95,42
1,41,0,6
1,31,95,42
1,42,0,2
1,31,0,376
1,31,95,6
1,31,0,24
1,33,95,24
1,36,95,0
1,33,0,21
1,36,0,155
1,36,95,16
1,36,0,48
1,38,95,0
1,38,0,39
1,40,95,9
1,41,95,48
1,40,0,3
1,41,0,207
1,41,95,30
1,40,95,48
1,41,0,8
1,40,0,38
1,38,95,2
1,36,95,48
1,38,0,4
1,40,95,236
1,36,0,7
1,40,0,41
1,41,95,0
1,42,95,48
1,41,0,6
1,31,95,42
1,42,0,3
1,31,0,189
1,36,95,0
1,36,0,129
1,31,95,67
1,33,95,23
1,31,0,5
1,36,95,16
1,33,0,3
1,36,0,163
1,36,95,26
1,38,95,48
1,36,0,3
1,38,0,42
1,40,95,3
1,40,0,47
1,41,95,1
1,41,0,191
1,41,95,49
1,40,95,48
1,41,0,7
1,38,95,41
1,40,0,4
1,36,95,44
1,38,0,3
1,36,0,236
1,40,95,1
1,41,95,48
1,40,0,6
1,42,95,42
1,41,0,6
1,31,95,42
1,42,0,2
1,31,0,376
1,31,95,6
1,31,0,24
1,33,95,24
1,36,95,0
1,33,0,21
1,36,0,155
1,36,95,16
1,36,0,48
1,38,95,0
1,38,0,39
1,40,95,9
1,41,95,48
1,40,0,3
1,41,0,207
1,41,95,30
1,40,95,48
1,41,0,8
1,40,0,38
1,38,95,2
1,36,95,48
1,38,0,4
1,40,95,236
1,36,0,7
1,40,0,41
1,41,95,0
1,42,95,48
1,41,0,6
1,31,95,42
1,42,0,3
1,31,0,189
1,36,95,0
1,36,0,129
1,31,95,67
1,33,95,23
1,31,0,5
1,36,95,16
1,33,0,3
1,36,0,163
1,36,95,26
1,38,95,48
1,36,0,3
1,38,0,42
1,40,95,3
1,40,0,47
1,41,95,1
1,41,0,191
1,41,95,49
1,40,95,48
1,41,0,7
1,38,95,41
1,40,0,4
1,36,95,44
1,38,0,3
1,36,0,236
1,40,95,1
1,41,95,48
1,40,0,6
1,42,95,42
1,41,0,6
1,31,95,42
1,42,0,2
1,31,0,376
1,31,95,6
1,31,0,24
1,33,95,24
1,36,95,0
1,33,0,21
1,36,0,155
1,36,95,16
1,36,0,48
1,38,95,0
1,38,0,38
1,40,95,10
1,41,95,48
1,40,0,3
1,41,0,207
1,41,95,30
1,40,95,48
1,41,0,8
1,40,0,38
1,38,95,2
1,36,95,48
1,38,0,4
1,40,95,236
1,36,0,7
1,40,0,41
1,41,95,0
1,42,95,48
1,41,0,6
1,31,95,42
1,42,0,3
1,31,0,189
1,36,95,0
1,36,0,129
1,31,95,67
1,33,95,23
1,31,0,5
1,36,95,16
1,33,0,3
1,36,0,36
1,31,95,299
1,33,95,24
1,31,0,1
1,36,95,23
1,33,0,5
1,36,0,35
1,31,95,297
1,33,95,23
1,31,0,2
1,36,95,22
1,33,0,4
1,36,0,24
1,31,95,309
1,33,95,20
1,31,0,4
1,36,95,20
1,33,0,5
1,36,0,18
1,31,95,314
1,33,95,24
1,31,0,2
1,36,95,22
1,33,0,5
1,36,0,22
1,31,95,309
1,33,95,22
1,31,0,4
1,36,95,20
1,33,0,5
1,36,0,20
1,31,95,316
1,33,95,23
1,31,0,5
1,36,95,17
1,33,0,6
1,36,0,38
1,40,95,148
1,41,95,48
1,40,0,1
1,42,95,47
1,41,0,5
1,31,95,43
1,42,0,3
1,31,0,189
1,36,95,0
1,36,0,94
1,40,95,2
1,40,0,35
1,38,95,13
1,38,0,19
1,36,95,5
1,33,95,24
1,36,0,7
1,33,0,17
1,31,95,0
1,36,95,24
1,31,0,1
1,36,0,165
1,36,95,26
1,38,95,48
1,36,0,3
1,38,0,42
1,40,95,3
1,40,0,47
1,41,95,1
1,41,0,191
1,41,95,49
1,40,95,48
1,41,0,7
1,38,95,41
1,40,0,4
1,36,95,44
1,38,0,3
1,36,0,236
1,40,95,1
1,41,95,48
1,40,0,6
1,42,95,42
1,41,0,6
1,31,95,42
1,42,0,2
1,31,0,376
1,31,95,6
1,31,0,24
1,33,95,24
1,36,95,0
1,33,0,21
1,36,0,155
1,36,95,16
1,36,0,48
1,38,95,0
1,38,0,39
1,40,95,9
1,41,95,48
1,40,0,3
1,41,0,207
1,41,95,30
1,40,95,48
1,41,0,8
1,40,0,38
1,38,95,2
1,36,95,48
1,38,0,4
1,40,95,236
1,36,0,7
1,40,0,41
1,41,95,0
1,42,95,48
1,41,0,6
1,31,95,42
1,42,0,3
1,31,0,189
1,36,95,0
1,36,0,129
1,31,95,67
1,33,95,23
1,31,0,5
1,36,95,16
1,33,0,3
1,36,0,36
1,31,95,299
1,33,95,24
1,31,0,1
1,36,95,23
1,33,0,5
1,36,0,35
1,31,95,297
1,33,95,23
1,31,0,2
1,36,95,22
1,33,0,4
1,36,0,24
1,31,95,309
1,33,95,20
1,31,0,4
1,36,95,20
1,33,0,5
1,36,0,18
1,31,95,314
1,33,95,24
1,31,0,2
1,36,95,22
1,33,0,5
1,36,0,22
1,31,95,309
1,33,95,22
1,31,0,4
1,36,95,20
1,33,0,5
1,36,0,20
1,31,95,316
1,33,95,23
1,31,0,5
1,36,95,17
1,33,0,6
1,36,0,38
1,40,95,148
1,41,95,48
1,40,0,1
1,42,95,47
1,41,0,5
1,31,95,43
1,42,0,3
1,31,0,189
1,36,95,0
1,36,0,94
1,40,95,2
1,40,0,35
1,38,95,13
1,38,0,19
1,36,95,5
1,33,95,24
1,36,0,7
1,33,0,17
1,31,95,0
1,36,95,24
1,31,0,1
1,36,0,165
1,36,95,26
1,38,95,48
1,36,0,3
1,38,0,42
1,40,95,3
1,40,0,47
1,41,95,1
1,41,0,191
1,41,95,49
1,40,95,48
1,41,0,7
1,38,95,41
1,40,0,4
1,36,95,44
1,38,0,3
1,36,0,236
1,40,95,1
1,41,95,48
1,40,0,6
1,42,95,42
1,41,0,6
1,31,95,42
1,42,0,2
1,31,0,376
1,31,95,6
1,31,0,24
1,33,95,24
1,36,95,0
1,33,0,21
1,36,0,155
1,36,95,16
1,36,0,48
1,38,95,0
1,38,0,39
1,40,95,9
1,41,95,48
1,40,0,3
1,41,0,207
1,41,95,30
1,40,95,48
1,41,0,8
1,40,0,38
1,38,95,2
1,36,95,48
1,38,0,4
1,40,95,236
1,36,0,7
1,40,0,41
1,41,95,0
1,42,95,48
1,41,0,6
1,31,95,42
1,42,0,3
1,31,0,189
1,36,95,0
1,36,0,129
1,31,95,67
1,33,95,23
1,31,0,5
1,36,95,16
1,33,0,3
1,36,0,105
1,36,95,36
1,31,95,192
1,36,0,3
1,33,95,21
1,31,0,1
1,36,95,23
1,33,0,5
1,36,0,123
1,36,95,16
1,36,0,190
1,31,95,2
1,31,0,24
1,33,95,0
1,36,95,24
1,33,0,5
1,36,0,130
1,36,95,9
1,36,0,192
1,31,95,0
1,33,95,24
1,31,0,1
1,36,95,23
1,33,0,4
1,36,0,122
1,36,95,18
1,31,95,192
1,36,0,3
1,31,0,20
1,33,95,1
1,36,95,24
1,33,0,4
1,36,0,104
1,36,95,36
1,31,95,192
1,36,0,3
1,33,95,21
1,31,0,1
1,36,95,23
1,33,0,5
1,36,0,123
1,36,95,16
1,36,0,191
1,31,95,1
1,33,95,24
1,31,0,1
1,36,95,23
1,33,0,5
1,36,0,103
1,36,95,36
1,31,95,192
1,36,0,3
1,33,95,21
1,31,0,1
1,36,95,23
1,33,0,5
1,36,0,122
1,36,95,17
1,36,0,191
1,31,95,1
1,33,95,24
1,31,0,1
1,36,95,23
1,33,0,4
1,36,0,104
1,36,95,36
1,31,95,192
1,36,0,3
1,33,95,21
1,31,0,1
1,36,95,23
1,33,0,5
1,36,0,123
1,36,95,16
1,36,0,190
1,31,95,2
1,33,95,24
1,31,0,1
1,36,95,23
1,33,0,5
1,36,0,103
1,36,95,36
1,31,95,192
1,36,0,2
1,33,95,22
1,31,0,1
1,36,95,23
1,33,0,5
1,36,0,123
1,36,95,16
1,36,0,191
1,31,95,1
1,33,95,24
1,31,0,1
1,36,95,23
1,33,0,5
1,36,0,103
1,36,95,36
1,31,95,192
1,36,0,2
1,33,95,22
1,31,0,1
1,36,95,23
1,33,0,5
1,36,0,123
1,36,95,16
1,36,0,825
2,52,83,9600
2,48,76,0
2,48,0,180
2,52,0,3
2,52,89,7
2,48,81,1
2,50,83,49
2,53,72,0
2,48,0,3
2,52,0,2
2,50,0,36
2,53,0,0
2,55,83,1
2,52,86,2
2,55,0,42
2,52,0,0
2,53,90,9
2,57,89,1
2,57,0,222
2,53,0,3
2,53,96,12
2,57,90,0
2,52,82,50
2,53,0,1
2,55,74,1
2,57,0,6
2,53,84,41
2,50,81,1
2,55,0,1
2,52,0,4
2,50,0,31
2,53,0,11
2,52,94,0
2,48,86,2
2,52,0,197
2,48,0,5
2,52,86,33
2,48,86,1
2,52,0,48
2,53,77,0
2,50,77,1
2,48,0,1
2,53,0,38
2,50,0,0
2,55,76,4
2,52,63,1
2,55,0,40
2,52,0,3
2,52,83,12
2,55,88,1
2,53,58,186
2,52,0,1
2,50,98,0
2,55,0,5
2,50,0,189
2,53,0,8
2,60,88,37
2,52,76,1
2,55,83,0
2,60,0,185
2,52,0,2
2,55,0,0
2,55,100,8
2,60,100,0
2,52,66,0
2,52,0,38
2,55,0,4
2,60,0,3
2,53,83,7
2,57,94,0
2,62,111,1
2,53,0,28
2,57,0,4
2,62,0,0
2,59,84,9
2,64,82,1
2,55,83,0
2,55,0,28
2,59,0,5
2,64,0,0
2,60,86,12
2,57,82,0
2,65,82,1
2,65,0,222
2,57,0,2
2,60,0,6
2,60,85,11
2,65,88,0
2,57,78,1
2,65,0,28
2,60,0,4
2,57,0,0
2,59,78,14
2,64,81,1
2,55,82,0
2,64,0,26
2,55,0,0
2,59,0,2
2,62,85,18
2,57,88,1
2,53,72,0
2,62,0,29
2,53,0,0
2,57,0,2
2,55,86,16
2,60,103,0
2,52,73,0
2,52,0,224
2,60,0,2
2,55,0,2
2,55,77,9
2,60,80,0
2,52,74,1
2,52,0,25
2,55,0,5
2,60,0,3
2,57,83,14
2,53,81,0
2,62,84,2
2,53,0,29
2,57,0,4
2,62,0,0
2,59,80,15
2,64,78,0
2,55,86,1
2,59,0,23
2,64,0,0
2,55,0,2
2,55,50,26
2,50,64,1
2,59,64,1
2,50,0,179
2,55,0,8
2,59,0,0
2,55,80,6
2,60,94,2
2,52,92,0
2,60,0,209
2,52,0,0
2,55,0,6
2,60,90,3092
2,64,80,0
2,55,94,0
2,64,0,169
2,55,0,0
2,60,0,4
2,60,88,9
2,55,85,0
2,64,78,1
2,55,0,38
2,60,0,4
2,64,0,2
2,62,90,8
2,65,85,0
2,57,92,1
2,57,0,33
2,65,0,2
2,62,0,2
2,64,75,8
2,59,94,1
2,67,85,0
2,59,0,35
2,64,0,4
2,67,0,0
2,60,89,10
2,65,86,1
2,69,96,0
2,60,0,224
2,69,0,0
2,65,0,2
2,65,86,13
2,60,103,1
2,69,86,0
2,69,0,32
2,65,0,2
2,60,0,2
2,59,94,13
2,64,77,0
2,67,77,0
2,67,0,32
2,59,0,2
2,64,0,0
2,62,88,14
2,65,80,1
2,57,84,0
2,65,0,31
2,62,0,2
2,57,0,0
2,60,96,14
2,64,89,0
2,55,88,1
2,64,0,224
2,55,0,0
2,60,0,3
2,60,88,14
2,64,86,0
2,55,78,0
2,55,0,30
2,60,0,7
2,64,0,0
2,57,86,9
2,62,88,0
2,65,83,1
2,57,0,31
2,62,0,5
2,65,0,0
2,64,86,11
2,59,86,0
2,67,88,1
2,59,0,32
2,67,0,0
2,64,0,5
2,64,94,11
2,59,94,1
2,67,81,0
2,59,0,180
2,67,0,0
2,64,0,2
2,62,92,13
2,65,89,0
2,57,92,1
2,65,0,191
2,62,0,2
2,57,0,0
2,64,77,41
2,60,72,2
2,53,67,1
2,55,73,0
2,59,98,0
2,53,0,16
2,59,0,0
2,64,0,154
2,55,0,0
2,60,0,4
2,64,85,17
2,55,94,0
2,60,85,0
2,55,0,33
2,64,0,6
2,60,0,0
2,62,83,8
2,57,98,0
2,65,84,1
2,57,0,32
2,62,0,5
2,65,0,0
2,59,81,8
2,64,81,0
2,67,80,1
2,59,0,36
2,64,0,4
2,67,0,0
2,60,78,9
2,65,86,0
2,69,86,1
2,60,0,214
2,69,0,0
2,65,0,7
2,60,100,16
2,65,90,1
2,69,101,0
2,69,0,29
2,65,0,2
2,60,0,2
2,64,88,14
2,59,94,1
2,67,88,0
2,67,0,28
2,64,0,2
2,59,0,2
2,57,92,15
2,62,86,0
2,65,88,1
2,65,0,25
2,57,0,2
2,62,0,0
2,60,101,19
2,64,85,0
2,55,89,0
2,60,0,272
2,55,0,0
2,64,0,4
2,60,90,3617
2,64,80,0
2,55,94,0
2,64,0,169
2,55,0,0
2,60,0,4
2,60,88,9
2,55,85,0
2,64,78,1
2,55,0,38
2,60,0,4
2,64,0,2
2,62,90,8
2,65,85,0
2,57,92,1
2,57,0,33
2,65,0,2
2,62,0,2
2,64,75,8
2,59,94,1
2,67,85,0
2,59,0,35
2,64,0,4
2,67,0,0
2,60,89,10
2,65,86,1
2,69,96,0
2,60,0,224
2,69,0,0
2,65,0,2
2,65,86,13
2,60,103,1
2,69,86,0
2,69,0,32
2,65,0,2
2,60,0,2
2,59,94,13
2,64,77,0
2,67,77,0
2,67,0,32
2,59,0,2
2,64,0,0
2,62,88,14
2,65,80,1
2,57,84,0
2,65,0,31
2,62,0,2
2,57,0,0
2,60,96,14
2,64,89,0
2,55,88,1
2,64,0,224
2,55,0,0
2,60,0,3
2,60,88,14
2,64,86,0
2,55,78,0
2,55,0,30
2,60,0,7
2,64,0,0
2,57,86,9
2,62,88,0
2,65,83,1
2,57,0,31
2,62,0,5
2,65,0,0
2,64,86,11
2,59,86,0
2,67,88,1
2,59,0,32
2,67,0,0
2,64,0,5
2,64,94,11
2,59,94,1
2,67,81,0
2,59,0,180
2,67,0,0
2,64,0,2
2,62,92,13
2,65,89,0
2,57,92,1
2,65,0,191
2,62,0,2
2,57,0,0
2,64,77,41
2,60,72,2
2,53,67,1
2,55,73,0
2,59,98,0
2,53,0,16
2,59,0,0
2,64,0,154
2,55,0,0
2,60,0,4
2,64,85,17
2,55,94,0
2,60,85,0
2,55,0,33
2,64,0,6
2,60,0,0
2,62,83,8
2,57,98,0
2,65,84,1
2,57,0,32
2,62,0,5
2,65,0,0
2,59,81,8
2,64,81,0
2,67,80,1
2,59,0,36
2,64,0,4
2,67,0,0
2,60,78,9
2,65,86,0
2,69,86,1
2,60,0,214
2,69,0,0
2,65,0,7
2,60,100,16
2,65,90,1
2,69,101,0
2,69,0,29
2,65,0,2
2,60,0,2
2,64,88,14
2,59,94,1
2,67,88,0
2,67,0,28
2,64,0,2
2,59,0,2
2,57,92,15
2,62,86,0
2,65,88,1
2,65,0,25
2,57,0,2
2,62,0,0
2,60,101,19
2,64,85,0
2,55,89,0
2,60,0,272
2,55,0,0
2,64,0,4
2,55,94,827
2,57,86,25
2,55,0,5
2,60,101,18
2,57,0,3
2,60,0,39
2,55,100,9
2,60,88,0
2,55,0,267
2,60,0,12
2,55,100,2
2,57,88,26
2,55,0,7
2,60,85,20
2,57,0,3
2,60,0,40
2,55,100,8
2,60,84,0
2,55,0,273
2,60,0,0
2,55,96,14
2,57,89,26
2,55,0,6
2,60,90,17
2,57,0,2
2,60,0,36
2,55,96,10
2,60,86,0
2,60,0,267
2,55,0,4
2,55,101,16
2,57,77,26
2,55,0,7
2,60,89,15
2,57,0,3
2,60,0,39
2,55,98,8
2,60,88,1
2,55,0,269
2,60,0,2
2,55,83,13
2,57,84,26
