track,note,velocity,time
1,73,66,547
1,69,65,1
1,76,60,1
1,57,74,1
1,76,0,184
1,69,0,8
1,73,0,1
1,57,0,74
1,56,59,54
1,73,61,1
1,69,57,3
1,76,53,0
1,76,0,164
1,73,0,32
1,69,0,4
1,56,0,10
1,73,65,14
1,69,69,1
1,76,67,1
1,54,77,2
1,54,0,73
1,76,0,121
1,69,0,14
1,73,0,1
1,73,69,54
1,52,77,0
1,69,71,2
1,76,68,1
1,73,0,158
1,76,0,6
1,69,0,43
1,52,0,63
1,78,74,36
1,74,77,0
1,50,71,1
1,69,61,1
1,74,0,130
1,69,0,15
1,78,0,1
1,50,0,108
1,76,65,28
1,64,71,0
1,69,67,3
1,49,67,1
1,64,0,37
1,76,0,3
1,69,0,6
1,49,0,128
1,69,67,129
1,78,70,0
1,74,74,1
1,47,62,2
1,47,0,64
1,74,0,114
1,78,0,6
1,69,0,16
1,54,82,85
1,69,71,1
1,78,77,1
1,74,78,1
1,78,0,45
1,69,0,1
1,74,0,1
1,54,0,6
1,78,68,71
1,69,59,1
1,74,67,0
1,52,76,1
1,69,0,10
1,74,0,5
1,78,0,3
1,57,74,4
1,76,59,53
1,69,53,1
1,73,45,0
1,76,0,15
1,69,0,1
1,73,0,4
1,73,44,76
1,76,58,0
1,69,52,1
1,69,0,13
1,76,0,6
1,73,0,2
1,76,66,70
1,69,61,2
1,73,44,1
1,69,0,21
1,76,0,0
1,73,0,1
1,57,0,16
1,56,56,54
1,73,57,47
1,69,58,0
1,76,57,1
1,69,0,9
1,76,0,3
1,73,0,7
1,69,65,71
1,73,56,1
1,76,58,1
1,69,0,7
1,76,0,3
1,73,0,6
1,69,80,75
1,76,62,2
1,69,0,6
1,76,0,2
1,56,0,25
1,54,74,61
1,73,54,45
1,76,53,1
1,69,48,3
1,76,0,8
1,69,0,2
1,73,0,8
1,69,62,73
1,76,58,2
1,73,50,1
1,69,0,18
1,76,0,1
1,73,0,2
1,54,0,9
1,76,67,57
1,69,62,2
1,73,53,1
1,69,0,14
1,76,0,1
1,73,0,6
1,52,58,76
1,73,52,45
1,69,58,1
1,76,58,0
1,69,0,12
1,73,0,10
1,76,0,0
1,76,60,72
1,73,47,0
1,69,45,1
1,69,0,17
1,76,0,5
1,73,0,2
1,73,60,62
1,69,66,1
1,76,63,1
1,69,0,9
1,76,0,3
1,73,0,9
1,52,0,38
1,50,64,0
1,78,60,38
1,69,41,3
1,74,63,0
1,74,0,11
1,78,0,9
1,78,63,72
1,69,59,2
1,74,67,2
1,69,0,8
1,74,0,2
1,78,0,11
1,50,0,13
1,69,57,55
1,78,50,0
1,74,66,1
1,69,0,8
1,78,0,1
1,49,69,1
1,73,57,47
1,64,48,4
1,69,53,3
1,64,0,6
1,69,0,3
1,73,0,8
1,73,57,70
1,64,52,4
1,69,58,2
1,69,0,8
1,64,0,0
1,73,0,9
1,73,58,68
1,76,43,1
1,69,54,2
1,69,0,9
1,73,0,1
1,76,0,6
1,49,0,46
1,47,62,7
1,69,60,51
1,78,68,1
1,74,63,2
1,69,0,6
1,74,0,3
1,78,0,4
1,47,0,49
1,49,77,21
1,78,71,35
1,69,55,1
1,74,65,0
1,69,0,10
1,74,0,1
1,78,0,8
1,49,0,62
1,52,76,1
1,78,70,47
1,69,49,3
1,74,65,2
1,69,0,8
1,74,0,1
1,78,0,6
1,52,0,42
1,49,67,14
1,78,74,85
1,69,69,1
1,74,63,3
1,69,0,5
1,74,0,3
1,78,0,3
1,49,0,32
1,47,60,27
1,78,76,71
1,69,65,1
1,74,56,5
1,69,0,3
1,74,0,6
1,78,0,4
1,47,0,34
1,49,67,33
1,78,68,91
1,74,51,9
1,74,0,9
1,78,0,2
1,49,0,65
1,52,76,2
1,78,66,74
1,69,50,1
1,74,61,2
1,69,0,9
1,74,0,2
1,78,0,5
1,52,0,52
1,49,68,24
1,49,0,19
1,78,70,73
1,74,72,1
1,69,48,3
1,74,0,8
1,69,0,1
1,78,0,9
1,57,82,69
1,73,54,41
1,69,58,4
1,64,27,2
1,69,0,7
1,64,0,1
1,73,0,8
1,73,52,68
1,64,56,2
1,76,42,1
1,69,59,2
1,64,0,7
1,69,0,1
1,76,0,2
1,73,0,8
1,76,59,70
1,73,53,1
1,64,62,0
1,69,62,4
1,64,0,6
1,69,0,1
1,76,0,6
1,73,0,5
1,57,0,32
1,56,74,36
1,64,64,70
1,73,53,1
1,69,57,5
1,64,0,5
1,69,0,3
1,73,0,8
1,73,52,70
1,64,60,1
1,76,48,1
1,69,49,5
1,64,0,5
1,76,0,1
1,69,0,3
1,73,0,7
1,64,64,63
1,73,53,2
1,69,63,2
1,64,0,6
1,69,0,3
1,73,0,4
1,56,0,17
1,54,84,57
1,73,54,43
1,64,59,1
1,76,41,2
1,69,57,2
1,64,0,7
1,69,0,3
1,76,0,0
1,73,0,6
1,73,45,63
1,76,56,1
1,64,53,0
1,69,52,4
1,69,0,10
1,76,0,2
1,64,0,2
1,73,0,6
1,54,0,3
1,76,69,60
1,73,51,1
1,64,66,1
1,69,63,2
1,64,0,9
1,69,0,2
1,76,0,3
1,73,0,7
1,52,72,71
1,76,56,43
1,73,57,0
1,69,63,4
1,64,46,0
1,69,0,7
1,76,0,0
1,64,0,2
1,73,0,8
1,76,56,65
1,73,40,1
1,64,53,1
1,69,61,3
1,69,0,8
1,64,0,7
1,76,0,1
1,73,0,5
1,73,52,64
1,76,49,2
1,64,42,1
1,69,58,2
1,64,0,6
1,69,0,1
1,73,0,10
1,76,0,4
1,52,0,23
1,50,71,43
1,78,62,29
1,74,65,2
1,69,43,1
1,69,0,10
1,74,0,3
1,78,0,7
1,78,58,71
1,74,54,1
1,69,46,2
1,69,0,13
1,74,0,11
1,78,0,4
1,78,62,57
1,74,60,2
1,69,44,2
1,69,0,17
1,74,0,2
1,78,0,7
1,50,0,32
1,48,64,31
1,77,53,45
1,69,37,3
1,72,48,1
1,77,0,8
1,72,0,3
1,69,0,3
1,48,0,49
1,77,51,33
1,72,52,2
1,69,0,14
1,72,0,5
1,77,0,4
1,77,59,77
1,69,54,3
1,72,49,2
1,77,0,4
1,72,0,4
1,69,0,5
1,73,62,81
1,57,73,1
1,64,69,2
1,69,67,0
1,76,56,2
1,73,0,47
1,69,0,5
1,64,0,3
1,57,0,13
1,73,59,61
1,64,70,1
1,57,67,1
1,69,64,2
1,64,0,17
1,69,0,65
1,73,0,7
1,64,49,5
1,76,0,1
1,64,0,23
1,57,0,29
1,73,69,35
1,64,81,1
1,68,74,0
1,76,69,1
1,56,76,1
1,64,0,56
1,68,0,33
1,73,0,0
1,64,62,7
1,64,0,19
1,56,0,15
1,73,66,33
1,68,74,0
1,56,77,1
1,64,74,3
1,56,0,48
1,64,0,25
1,68,0,10
1,56,70,4
1,73,0,1
1,76,0,3
1,56,0,13
1,73,81,82
1,54,82,0
1,76,77,1
1,42,80,1
1,69,71,0
1,71,57,5
1,71,0,1
1,69,0,51
1,54,0,22
1,73,0,2
1,69,65,5
1,76,0,5
1,69,0,38
1,54,84,41
1,76,82,4
1,69,82,1
1,73,75,0
1,76,0,15
1,69,0,5
1,54,0,1
1,73,0,7
1,54,77,59
1,54,0,26
1,42,0,4
1,52,64,65
1,73,77,3
1,40,59,0
1,76,81,1
1,69,78,0
1,52,0,30
1,69,0,6
1,73,0,1
1,73,61,82
1,52,74,0
1,69,72,1
1,76,0,22
1,52,0,1
1,73,0,5
1,69,0,1
1,52,76,62
1,52,0,21
1,40,0,5
1,66,81,64
1,74,78,1
1,50,82,1
1,69,78,1
1,38,61,3
1,66,0,12
1,69,0,11
1,50,0,21
1,50,75,70
1,69,76,1
1,66,69,0
1,50,0,19
1,66,0,17
1,74,0,28
1,69,0,2
1,74,0,8
1,50,65,19
1,38,0,11
1,50,0,3
1,73,65,77
1,64,74,1
1,76,66,0
1,69,69,1
1,37,74,3
1,49,75,0
1,49,0,32
1,73,0,12
1,69,0,0
1,64,0,10
1,49,68,56
1,73,53,1
1,64,73,3
1,69,72,0
1,76,0,13
1,49,0,7
1,69,0,0
1,64,0,1
1,73,0,1
1,49,69,65
1,49,0,22
1,37,0,0
1,62,80,72
1,66,85,0
1,35,79,1
1,47,77,1
1,57,83,0
1,57,0,43
1,62,0,0
1,47,0,10
1,47,71,62
1,57,74,3
1,62,56,2
1,35,0,17
1,47,0,11
1,57,0,1
1,62,0,59
1,57,71,7
1,66,0,6
1,57,0,18
1,66,81,61
1,57,82,1
1,62,71,1
1,54,79,2
1,42,78,2
1,57,0,24
1,54,0,15
1,42,0,15
1,62,0,31
1,57,69,3
1,66,0,8
1,57,0,30
1,62,79,57
1,57,87,0
1,66,82,1
1,40,67,0
1,52,75,2
1,40,0,8
1,52,0,10
1,57,0,14
1,57,58,50
1,57,0,8
1,62,0,4
1,66,0,9
1,52,69,15
1,52,0,36
1,57,80,24
1,45,75,0
1,73,63,3
1,69,71,0
1,64,74,1
1,76,65,1
1,64,0,24
1,69,0,13
1,76,0,4
1,73,0,10
1,64,63,12
1,57,0,15
1,64,0,14
1,57,81,66
1,73,57,0
1,64,68,1
1,76,57,1
1,69,61,3
1,57,0,20
1,64,0,4
1,45,0,3
1,69,0,50
1,64,62,10
1,73,0,1
1,76,0,7
1,64,0,36
1,69,41,4
1,69,0,9
1,56,74,35
1,44,70,1
1,64,74,1
1,76,62,1
1,73,59,1
1,69,63,2
1,64,0,22
1,69,0,4
1,76,0,5
1,73,0,5
1,64,67,50
1,64,0,10
1,56,0,5
1,73,53,79
1,56,70,1
1,64,58,1
1,69,54,2
1,76,21,3
1,64,0,5
1,69,0,1
1,76,0,3
1,73,0,3
1,56,0,2
1,44,0,7
1,73,60,61
1,76,61,0
1,64,62,1
1,69,62,1
1,64,0,7
1,76,0,1
1,69,0,0
1,73,0,5
1,54,85,7
1,42,84,0
1,73,80,1
1,76,83,0
1,69,80,2
1,64,82,0
1,64,0,15
1,69,0,2
1,76,0,4
1,73,0,2
1,64,69,62
1,64,0,14
1,54,0,6
1,64,80,72
1,73,63,1
1,69,67,1
1,76,67,1
1,54,71,1
1,69,0,9
1,76,0,3
1,64,0,4
1,73,0,3
1,54,0,8
1,54,68,56
1,64,69,2
1,54,0,22
1,64,0,3
1,42,0,5
1,40,62,59
1,52,71,1
1,76,75,2
1,64,77,0
1,73,67,1
1,69,64,2
1,64,0,22
1,69,0,2
1,76,0,2
1,73,0,4
1,64,70,40
1,52,0,10
1,64,0,16
1,76,75,59
1,64,74,0
1,73,68,1
1,52,78,0
1,69,71,2
1,52,0,22
1,64,0,19
1,69,0,16
1,73,0,12
1,52,69,16
1,73,43,4
1,64,46,0
1,64,0,8
1,76,0,3
1,73,0,1
1,40,0,2
1,52,0,1
1,38,69,70
1,50,82,2
1,69,73,2
1,74,77,2
1,69,0,23
1,69,64,29
1,50,0,17
1,69,0,14
1,78,74,58
1,69,67,1
1,50,84,2
1,50,0,29
1,69,0,2
1,38,0,1
1,74,0,55
1,69,57,5
1,78,0,4
1,69,0,42
1,78,77,41
1,69,72,0
1,73,71,0
1,49,71,1
1,76,74,1
1,37,74,1
1,69,0,26
1,76,0,12
1,73,0,1
1,69,54,6
1,49,0,21
1,37,0,16
1,69,0,27
1,37,77,36
1,49,86,1
1,73,77,2
1,69,35,7
1,69,0,9
1,49,0,2
1,37,0,2
1,73,0,65
1,69,59,1
1,49,78,3
1,78,0,6
1,69,0,15
1,49,0,4
1,35,76,62
1,47,77,3
1,35,0,35
1,47,0,22
1,78,62,1
1,69,58,0
1,74,66,3
1,74,0,8
1,69,0,0
1,78,0,5
1,37,72,78
1,49,70,0
1,37,0,34
1,49,0,25
1,78,67,22
1,69,48,3
1,74,61,3
1,69,0,7
1,74,0,2
1,78,0,4
1,40,67,4
1,52,76,2
1,52,0,40
1,40,0,18
1,69,62,20
1,78,67,1
1,74,70,2
1,69,0,6
1,74,0,3
1,78,0,2
1,37,74,82
1,49,76,0
1,49,0,39
1,37,0,4
1,69,74,42
1,78,62,2
1,74,65,3
1,78,0,7
1,74,0,1
1,69,0,1
1,35,69,3
1,47,69,2
1,35,0,22
1,47,0,23
1,78,67,6
1,69,56,0
1,74,69,2
1,69,0,8
1,74,0,1
1,78,0,3
1,49,71,78
1,37,68,0
1,37,0,27
1,49,0,0
1,69,64,67
1,78,69,2
1,74,58,5
1,69,0,3
1,74,0,5
1,78,0,2
1,40,67,67
1,52,80,2
1,78,76,45
1,69,64,0
1,74,74,1
1,69,0,9
1,40,0,0
1,74,0,2
1,52,0,3
1,78,0,4
1,78,85,161
1,74,49,6
1,74,0,8
1,52,81,42
1,52,0,19
1,57,93,14
1,45,82,1
1,64,71,4
1,76,46,3
1,73,50,2
1,69,48,4
1,76,0,7
1,64,0,1
1,73,0,3
1,73,67,45
1,64,68,1
1,76,50,3
1,69,62,1
1,64,0,5
1,78,0,0
1,69,0,3
1,76,0,1
1,73,0,6
1,52,0,2
1,76,74,67
1,64,75,0
1,73,59,1
1,69,67,2
1,64,0,6
1,76,0,0
1,69,0,2
1,73,0,6
1,45,0,60
1,57,0,4
1,73,69,9
1,64,78,2
1,76,71,1
1,69,74,0
1,64,0,11
1,76,0,9
1,69,0,1
1,73,0,7
1,56,85,54
1,44,81,1
1,73,62,68
1,64,71,0
1,76,62,1
1,69,68,4
1,64,0,5
1,76,0,1
1,69,0,1
1,73,0,7
1,73,62,74
1,76,73,0
1,64,69,1
1,69,58,3
1,76,0,5
1,64,0,2
1,69,0,0
1,73,0,5
1,73,62,72
1,64,78,0
1,69,66,3
1,64,0,5
1,56,0,3
1,69,0,0
1,44,0,1
1,73,0,5
1,42,81,70
1,54,86,2
1,76,67,35
1,73,61,0
1,69,46,2
1,76,0,7
1,69,0,4
1,73,0,7
1,69,65,55
1,73,52,0
1,76,58,3
1,76,0,12
1,69,0,1
1,73,0,6
1,76,77,72
1,73,66,2
1,69,80,0
1,54,0,5
1,69,0,4
1,76,0,5
1,73,0,6
1,42,0,11
1,52,75,60
1,40,68,2
1,76,59,32
1,69,63,0
1,73,56,1
1,69,0,7
1,76,0,2
1,73,0,8
1,69,58,66
1,73,54,0
1,76,54,1
1,52,71,4
1,69,0,4
1,76,0,3
1,73,0,3
1,73,60,75
1,69,67,0
1,76,68,1
1,52,0,1
1,40,0,1
1,69,0,6
1,73,0,7
1,76,0,1
1,38,64,69
1,50,73,1
1,78,67,34
1,69,62,0
1,74,62,3
1,69,0,7
1,74,0,3
1,78,68,77
1,74,68,1
1,69,57,2
1,69,0,12
1,74,0,12
1,78,0,3
1,78,69,59
1,69,62,0
1,74,69,3
1,74,0,10
1,69,0,0
1,50,0,1
1,38,0,1
1,78,0,1
1,48,79,77
1,36,71,0
1,77,60,40
1,69,46,3
1,72,59,1
1,77,0,6
1,72,0,4
1,69,0,1
1,48,0,12
1,36,0,10
1,77,51,66
1,69,54,3
1,72,57,0
1,69,0,20
1,77,0,1
1,72,0,0
1,77,63,71
1,69,60,3
1,72,62,1
1,77,0,5
1,72,0,2
1,69,0,2
1,45,80,79
1,73,66,1
1,64,71,1
1,69,74,0
1,76,61,2
1,76,0,5
1,69,0,0
1,64,0,0
1,73,0,10
1,64,55,47
1,64,0,9
1,57,71,87
1,73,57,1
1,64,68,0
1,69,59,3
1,76,50,1
1,64,0,7
1,69,0,1
1,76,0,5
1,73,0,5
1,45,0,2
1,57,0,8
1,64,62,56
1,64,0,23
1,56,79,65
1,64,81,1
1,73,70,1
1,44,80,0
1,76,70,1
1,69,73,1
1,64,0,19
1,69,0,7
1,76,0,0
1,73,0,7
1,64,69,44
1,56,0,12
1,64,0,6
1,76,70,81
1,73,57,0
1,64,64,1
1,56,70,2
1,69,61,0
1,76,0,6
1,64,0,2
1,69,0,1
1,73,0,5
1,56,0,9
1,44,0,3
1,73,58,60
1,64,57,3
1,69,56,1
1,76,45,0
1,64,0,7
1,69,0,1
1,76,0,0
1,73,0,3
1,54,81,6
