track,note,velocity,time
0,68,76,85
0,40,61,1
0,71,69,1
0,71,0,4
0,68,0,7
0,68,56,19
0,71,52,3
0,71,0,9
0,68,0,5
0,68,67,29
0,71,62,2
0,71,0,9
0,68,0,5
0,68,63,26
0,71,64,2
0,71,0,9
0,68,0,6
0,68,69,30
0,71,66,0
0,71,0,10
0,68,0,6
0,68,65,26
0,71,64,1
0,71,0,9
0,68,0,5
0,68,71,27
0,71,65,1
0,71,0,9
0,68,0,7
0,68,61,22
0,71,59,3
0,71,0,10
0,68,0,5
0,68,61,21
0,71,68,1
0,68,0,17
0,71,0,0
0,70,83,25
0,67,36,9
0,67,0,8
0,70,0,1
0,69,82,34
0,69,0,24
0,68,91,20
0,64,92,0
0,40,0,62
0,64,0,20
0,40,51,9
0,64,78,35
0,59,49,3
0,68,0,3
0,64,0,3
0,59,0,3
0,40,0,6
0,40,69,29
0,40,0,16
0,68,93,22
0,64,87,1
0,40,77,3
0,64,0,1
0,68,0,6
0,64,84,73
0,61,78,1
0,61,0,35
0,59,69,11
0,59,0,37
0,61,70,2
0,64,0,25
0,61,0,2
0,59,82,14
0,59,0,26
0,68,92,4
0,59,86,1
0,64,86,0
0,64,0,9
0,59,0,1
0,40,0,4
0,68,0,3
0,40,64,23
0,68,92,44
0,59,80,3
0,64,58,2
0,68,0,4
0,59,0,2
0,64,0,3
0,64,84,32
0,61,75,40
0,61,0,28
0,59,74,13
0,59,0,18
0,61,72,7
0,64,0,17
0,61,0,10
0,59,73,13
0,59,0,9
0,68,91,33
0,71,83,0
0,40,0,15
0,40,77,8
0,68,0,18
0,71,0,2
0,71,69,3
0,68,62,1
0,70,54,4
0,71,0,4
0,68,0,4
0,70,0,0
0,71,75,29
0,68,63,0
0,64,53,2
0,71,0,6
0,64,0,4
0,68,0,2
0,71,85,24
0,71,0,14
0,70,100,5
0,74,91,1
0,71,98,9
0,70,0,2
0,71,0,14
0,74,0,5
0,74,87,13
0,71,78,1
0,74,0,10
0,71,0,3
0,71,82,23
0,74,82,0
0,74,0,15
0,71,0,3
0,74,88,23
0,71,78,3
0,74,0,15
0,71,0,3
0,40,0,1
0,40,66,1
0,68,89,1
0,71,73,3
0,71,0,13
0,68,0,2
0,71,69,24
0,71,0,12
0,69,61,37
0,69,0,8
0,68,89,31
0,64,82,3
0,40,0,14
0,40,62,27
0,64,0,6
0,64,88,38
0,59,79,0
0,68,0,4
0,59,0,4
0,64,0,8
0,40,0,1
0,40,64,27
0,40,0,12
0,40,71,27
0,40,0,13
0,40,80,30
0,68,88,1
0,64,87,1
0,64,0,2
0,68,0,9
0,61,76,68
0,64,74,0
0,64,0,10
0,64,15,10
0,61,0,17
0,59,68,9
0,59,0,3
0,61,71,6
0,64,0,31
0,61,0,2
0,59,82,11
0,59,0,15
0,40,0,19
0,40,40,22
0,40,0,34
0,68,91,0
0,64,58,3
0,64,0,9
0,68,0,4
0,40,83,22
0,68,83,1
0,68,0,21
0,40,0,6
0,68,77,4
0,40,49,1
0,64,84,1
0,40,0,22
0,64,0,1
0,68,0,15
0,40,67,5
0,71,86,38
0,64,82,0
0,64,0,15
0,40,0,4
0,71,0,1
0,40,65,19
0,68,92,40
0,64,85,0
0,76,72,4
0,64,0,5
0,68,0,4
0,40,0,6
0,76,0,2
0,40,77,12
0,40,0,9
0,78,93,15
0,74,94,3
0,69,71,1
0,69,0,26
0,74,0,6
0,38,60,10
0,74,69,9
0,69,60,0
0,45,77,46
0,45,0,24
0,69,0,22
0,74,0,3
0,50,67,0
0,78,0,16
0,50,0,8
0,69,63,10
0,76,76,1
0,69,0,7
0,76,0,3
0,50,67,27
0,50,0,9
0,48,30,0
0,48,0,8
0,38,0,6
0,40,64,33
0,40,0,10
0,73,91,23
0,78,94,1
0,69,90,0
0,33,90,6
0,73,0,58
0,78,0,3
0,69,0,4
0,45,79,21
0,45,0,23
0,40,64,17
0,33,0,5
0,40,0,9
0,69,92,27
0,76,87,0
0,33,84,4
0,76,0,14
0,69,0,9
0,73,84,21
0,64,60,4
0,64,0,10
0,33,0,21
0,45,79,3
0,45,0,7
0,73,0,9
0,68,79,25
0,64,81,1
0,71,76,1
0,47,48,3
0,47,0,11
0,40,78,32
0,71,0,11
0,68,0,5
0,64,0,9
0,52,76,52
0,52,0,24
0,47,67,21
0,40,0,4
0,47,0,19
0,64,92,13
0,69,84,0
0,59,79,1
0,40,76,1
0,59,0,2
0,69,0,2
0,64,0,10
0,59,73,13
0,68,92,1
0,59,0,18
0,47,73,26
0,47,0,8
0,40,0,6
0,68,0,6
0,63,87,21
0,66,80,2
0,35,62,51
0,63,0,45
0,63,76,46
0,59,44,4
0,59,0,15
0,63,0,21
0,47,47,35
0,47,0,25
0,63,74,11
0,57,76,0
0,57,0,20
0,47,58,14
0,57,70,46
0,42,68,3
0,35,0,6
0,47,0,16
0,42,0,0
0,57,0,19
0,35,80,4
0,63,0,12
0,57,85,12
0,66,0,18
0,57,0,5
0,63,84,22
0,57,29,1
0,57,0,10
0,63,0,19
0,66,82,13
0,66,0,23
0,63,105,16
0,57,93,0
0,68,93,1
0,47,88,0
0,57,0,16
0,63,0,4
0,35,0,6
0,47,0,0
0,68,0,6
0,57,76,12
0,57,0,18
0,63,104,0
0,68,94,1
0,46,91,2
0,57,84,0
0,34,84,3
0,57,0,5
0,63,0,6
0,68,0,5
0,46,0,6
0,34,0,7
0,40,76,14
0,40,0,22
0,61,92,4
0,66,93,0
0,33,90,3
0,45,80,85
0,66,0,16
0,61,0,10
0,68,81,9
0,66,82,9
0,68,0,4
0,64,82,7
0,66,0,11
0,61,52,1
0,55,69,9
0,45,0,7
0,45,80,36
0,33,0,11
0,33,84,36
0,55,0,8
0,55,74,20
0,67,67,3
0,45,0,36
0,55,0,33
0,45,82,3
0,45,0,28
0,61,0,63
0,55,86,5
0,64,0,3
0,33,0,12
0,61,81,30
0,55,0,4
0,67,0,10
0,61,0,4
0,47,76,19
0,47,0,26
0,40,82,2
0,68,97,86
0,68,0,10
0,47,74,9
0,40,0,3
0,47,0,14
0,71,92,21
0,68,92,1
0,40,77,4
0,68,0,9
0,71,0,14
0,76,84,41
0,47,77,7
0,76,0,2
0,47,0,12
0,40,0,1
0,78,95,24
0,74,93,1
0,69,80,1
0,45,81,5
0,45,0,16
0,74,0,22
0,69,0,12
0,38,73,0
0,74,66,86
0,69,37,4
0,45,85,40
0,45,0,3
0,69,0,16
0,50,76,5
0,74,0,6
0,78,0,18
0,69,77,17
0,76,82,1
0,69,0,7
0,76,0,6
0,50,0,20
0,45,82,4
0,45,0,8
0,38,0,8
0,40,72,26
0,40,0,19
0,78,97,25
0,69,91,1
0,33,87,2
0,69,0,15
0,78,0,2
0,45,79,67
0,69,92,37
0,76,93,1
0,64,90,1
0,33,0,4
0,45,0,18
0,69,0,16
0,33,82,4
0,64,0,8
0,76,0,5
0,73,88,28
0,69,92,0
0,64,70,2
0,69,0,13
0,64,0,3
0,73,0,7
0,33,0,2
0,45,78,6
0,45,0,9
0,64,88,34
0,71,85,0
0,68,84,1
0,40,82,39
0,68,0,44
0,71,0,1
0,64,0,7
0,52,72,17
0,78,90,54
0,40,0,3
0,52,0,1
0,40,72,32
0,78,0,20
0,76,87,5
0,76,0,21
0,47,67,20
0,47,0,11
0,40,0,1
0,71,86,31
0,75,82,1
0,66,79,0
0,35,75,42
0,66,0,24
0,66,67,44
0,71,0,2
0,75,0,13
0,66,0,7
0,42,74,15
0,42,0,39
0,47,62,9
0,57,70,38
0,57,0,31
0,57,18,15
0,63,71,3
0,57,0,8
0,63,0,9
0,63,88,22
0,57,87,2
0,35,0,9
0,47,0,10
0,35,73,9
0,57,0,4
0,63,0,26
0,57,94,10
0,57,0,28
0,63,81,15
0,63,0,28
0,57,83,14
0,35,0,11
0,57,0,1
0,35,79,11
0,64,97,2
0,47,75,0
0,68,89,2
0,35,0,28
0,47,0,2
0,64,0,26
0,68,0,7
0,46,89,10
0,68,88,1
0,64,100,0
0,34,82,1
0,64,0,3
0,68,0,11
0,46,0,11
0,34,0,7
0,40,64,6
0,40,0,21
0,66,92,2
0,61,89,1
0,45,74,0
0,45,0,39
0,45,85,49
0,61,0,3
0,66,0,1
0,61,70,17
0,68,84,1
0,57,69,3
0,66,83,3
0,68,0,11
0,64,80,11
0,66,0,8
0,45,0,28
0,57,0,22
0,57,66,36
0,57,0,32
0,45,69,1
0,33,82,46
0,61,0,22
0,64,0,3
0,61,71,12
0,64,78,0
0,67,74,3
0,61,0,6
0,64,0,4
0,45,0,4
0,67,0,4
0,45,85,32
0,68,97,47
0,68,0,31
0,71,88,12
0,45,0,8
0,71,0,15
0,33,0,21
0,45,88,2
0,45,0,12
0,68,92,12
0,64,92,2
0,76,85,1
0,71,88,0
0,40,80,49
0,64,0,23
0,68,0,8
0,71,0,4
0,76,0,9
0,47,53,21
0,47,0,10
0,47,69,32
0,40,0,4
0,47,0,19
0,40,72,22
0,78,92,4
0,78,0,28
0,76,83,16
0,76,0,15
0,47,75,22
0,47,0,16
0,40,0,1
0,75,82,21
0,66,84,0
0,71,86,1
0,35,74,43
0,66,0,25
0,71,0,37
0,75,0,3
0,47,70,18
0,47,0,16
0,47,62,22
0,35,0,9
0,47,0,17
0,66,92,12
0,78,89,1
0,71,85,1
0,35,81,0
0,75,77,23
0,78,0,7
0,71,0,3
0,75,0,8
0,66,0,1
0,47,73,25
0,47,0,26
0,73,92,15
0,69,91,2
0,40,64,0
0,64,85,1
0,35,0,3
0,64,0,6
0,69,0,6
0,40,0,5
0,73,0,6
0,33,71,18
0,75,71,47
0,64,62,5
0,64,0,9
0,75,0,4
0,73,88,21
0,69,85,1
0,64,87,0
0,64,0,36
0,45,80,2
0,45,0,27
0,64,75,14
0,69,0,2
0,73,0,11
0,64,0,7
0,45,84,24
0,33,0,14
0,45,0,19
0,33,90,9
0,61,83,4
0,55,82,2
0,67,77,1
0,45,88,1
0,55,0,39
0,61,0,6
0,67,0,8
0,76,97,78
0,76,0,23
0,76,93,20
0,33,0,25
0,45,0,15
0,76,0,4
0,73,84,1
0,71,91,45
0,71,0,14
0,73,0,1
0,47,66,33
0,47,0,17
0,76,92,18
0,80,91,1
0,40,74,0
0,71,61,4
0,52,75,31
0,71,0,16
0,76,0,13
0,80,0,4
0,78,83,10
0,71,61,3
0,71,0,15
0,52,0,1
0,40,0,21
0,71,76,3
0,76,92,0
0,78,0,13
0,76,0,2
0,71,0,5
0,40,69,77
0,40,0,22
0,73,78,21
0,73,0,14
0,69,88,1
0,33,71,2
0,57,81,88
0,61,68,0
0,64,69,2
0,57,0,6
0,61,0,9
0,64,0,5
0,45,71,27
0,57,97,71
0,33,0,13
0,45,0,4
0,57,0,21
0,61,60,1
0,61,0,8
0,69,0,3
0,47,68,29
0,68,84,3
0,68,0,17
0,47,0,2
0,40,77,4
0,68,91,2
0,64,73,1
0,64,0,12
0,68,0,2
0,68,96,76
0,64,79,2
0,64,0,8
0,68,0,9
0,68,89,24
0,71,100,0
0,64,94,2
0,64,0,10
0,40,0,3
0,68,0,3
0,71,0,4
0,40,77,3
0,76,81,49
0,76,0,16
0,47,70,14
0,47,0,21
0,47,63,26
0,40,0,3
0,78,86,1
0,74,83,0
0,69,74,1
0,47,0,14
0,74,0,8
0,69,0,3
0,38,71,13
0,69,69,69
0,74,77,1
0,69,0,7
0,78,0,3
0,74,0,2
0,45,74,31
0,76,86,105
0,69,81,1
0,45,0,4
0,50,62,2
0,69,0,8
0,76,0,6
0,50,0,23
0,45,88,0
0,38,0,11
0,45,0,1
0,40,71,32
0,40,0,3
0,73,95,22
0,78,94,1
0,69,92,1
0,33,87,0
0,73,0,10
0,78,0,3
0,69,0,1
0,45,85,10
0,45,0,19
0,45,76,18
0,33,0,11
0,45,0,12
0,69,88,22
0,76,80,1
0,33,81,1
0,64,81,1
0,64,0,15
0,76,0,1
0,69,0,2
0,69,70,18
0,73,89,1
0,64,71,2
0,69,0,5
0,64,0,13
0,73,0,5
0,33,0,11
0,45,91,2
0,45,0,5
0,68,84,33
0,71,85,1
0,64,88,1
0,40,82,39
0,68,0,17
0,71,0,0
0,64,0,9
0,52,91,39
0,52,0,22
0,40,0,2
0,64,98,7
0,69,92,0
0,51,94,1
0,39,72,4
0,39,0,11
0,51,0,5
0,64,0,2
0,69,0,3
0,68,90,8
0,49,96,41
0,37,81,3
0,37,0,9
0,49,0,6
0,68,0,13
0,66,93,8
0,35,78,48
0,57,82,29
0,63,79,1
0,47,65,40
0,57,0,10
0,42,66,4
0,47,0,18
0,57,67,26
0,57,0,16
0,47,58,6
0,42,0,10
0,42,68,38
0,57,66,1
0,35,0,8
0,57,0,2
0,47,0,13
0,42,0,0
0,35,78,22
0,63,0,14
0,66,0,13
0,57,80,1
0,57,0,23
0,63,79,19
0,63,0,25
0,66,81,15
0,47,64,2
0,35,0,9
0,47,0,7
0,63,96,18
0,68,86,3
0,35,77,1
0,57,77,1
0,47,74,1
0,57,0,10
0,63,0,17
0,47,0,2
0,35,0,3
0,57,86,7
0,68,0,12
0,57,0,7
0,46,87,23
0,63,98,0
0,68,92,1
0,57,82,1
0,34,66,4
0,57,0,5
0,63,0,4
0,68,0,4
0,46,0,3
0,34,0,11
0,40,71,14
0,40,0,20
0,33,83,19
0,61,91,2
0,66,93,0
0,57,84,3
0,45,86,84
0,57,0,7
0,66,0,11
0,57,24,22
0,68,70,2
0,66,81,10
0,68,0,10
0,64,82,12
0,66,0,6
0,45,0,32
0,57,0,19
0,57,77,32
0,57,0,35
0,45,78,5
0,33,0,14
0,33,77,32
0,66,0,9
0,61,0,11
0,64,0,4
0,61,76,11
0,55,85,2
0,64,74,1
0,67,77,0
0,45,0,5
0,45,86,30
0,55,0,13
0,45,0,6
0,45,79,22
0,33,0,34
0,61,0,4
0,45,0,3
0,55,82,5
0,64,0,1
0,55,0,26
0,61,86,16
0,61,0,28
0,47,73,16
0,48,45,5
0,67,0,4
0,48,0,4
0,47,0,3
0,40,90,28
0,68,96,78
0,64,87,3
0,64,0,1
0,68,0,15
0,47,72,4
0,40,0,13
0,47,0,12
0,68,87,14
0,64,83,1
0,71,84,0
0,40,75,4
0,64,0,4
0,68,0,9
0,71,0,6
0,76,88,63
0,47,78,2
0,40,0,14
0,47,0,3
0,76,0,1
0,74,100,21
0,78,94,1
0,69,84,0
0,45,81,3
0,45,0,23
0,74,0,23
0,38,74,1
0,69,0,3
0,69,71,71
0,74,71,3
0,45,84,13
0,45,0,23
0,50,77,17
0,69,0,8
0,74,0,8
0,78,0,15
0,69,85,13
0,76,86,0
0,69,0,9
0,50,0,2
0,76,0,9
0,45,90,16
0,45,0,9
0,38,0,6
0,40,72,36
0,40,0,19
0,74,111,19
0,78,98,0
0,69,95,1
0,33,85,3
0,74,0,14
0,69,0,2
0,78,0,10
0,45,82,53
0,73,91,44
0,76,90,2
0,33,0,5
0,45,0,6
0,73,0,22
0,33,84,4
0,76,0,7
0,73,93,28
0,69,92,1
0,69,0,10
0,33,0,18
0,45,83,2
0,45,0,17
0,73,0,22
0,68,87,14
0,71,84,3
0,64,86,0
0,40,81,33
0,64,0,1
0,68,0,4
0,71,0,11
0,68,76,13
0,64,90,0
0,68,0,15
0,64,0,7
0,52,92,13
0,40,0,16
0,52,0,1
0,64,107,30
0,69,98,1
0,51,90,25
0,64,0,2
0,69,0,1
0,51,0,5
0,68,96,15
0,49,92,35
0,37,85,3
0,68,0,6
0,37,0,12
0,49,0,1
0,66,94,29
0,63,94,1
0,35,80,26
0,47,80,0
0,63,0,17
0,63,78,25
0,57,81,3
0,47,0,7
0,47,74,37
0,57,0,41
0,42,72,2
0,47,0,33
0,63,0,11
0,57,77,0
0,57,0,22
0,57,40,20
0,63,74,2
0,47,69,45
0,35,0,1
0,42,0,22
0,47,0,1
0,35,88,16
0,57,0,4
0,63,0,25
0,57,82,8
0,57,0,22
0,63,83,24
0,63,0,29
