track,note,velocity,time
0,61,58,4608
0,64,65,0
0,57,66,0
0,67,53,47
0,62,66,0
0,71,62,0
0,66,51,40
0,69,66,0
0,62,68,0
0,66,78,144
0,67,76,5
0,66,60,24
0,61,58,0
0,64,55,0
0,57,61,0
0,67,48,54
0,71,76,0
0,62,70,0
0,64,83,35
0,66,74,24
0,64,70,4
0,62,78,48
0,61,74,4
0,61,58,61
0,64,65,0
0,57,66,0
0,67,53,47
0,62,66,0
0,71,62,0
0,66,51,40
0,69,66,0
0,62,68,0
0,66,78,144
0,67,76,5
0,66,60,24
0,61,58,0
0,64,55,0
0,57,61,0
0,67,48,54
0,71,76,0
0,62,70,0
0,64,83,35
0,66,74,0
0,64,70,4
0,62,78,48
0,61,74,4
0,64,74,1381
0,66,71,24
0,64,76,9
0,62,76,48
0,61,66,5
0,69,66,684
0,64,58,11
0,73,78,0
0,71,78,8
0,71,86,24
0,69,76,13
0,66,78,50
0,73,85,50
0,71,80,9
0,71,86,30
0,69,76,9
0,69,76,66
0,73,78,0
0,71,80,1
0,71,86,22
0,69,76,5
0,66,71,59
0,73,85,66
0,71,74,3
0,71,72,30
0,69,72,48
0,69,66,64
0,64,52,1128
0,66,71,24
0,64,68,8
0,62,74,48
0,61,63,23
0,62,54,1152
0,62,55,19
0,64,65,27
1,33,59,288
1,33,64,18
1,31,62,97
1,31,62,17
1,38,80,92
1,35,61,6
1,33,59,48
1,38,66,28
1,31,65,192
1,32,65,24
1,33,66,1
1,33,80,19
1,31,88,94
1,31,69,16
1,38,80,102
1,35,69,1
1,33,66,1
1,33,69,29
1,33,93,12
1,33,71,13
1,31,85,100
1,31,85,17
1,38,78,100
1,35,76,4
1,33,78,48
1,38,78,32
1,29,85,17
1,31,85,24
1,33,63,4
1,33,71,16
1,31,93,91
1,31,78,16
1,38,93,97
1,35,83,2
1,33,78,3
1,33,78,32
1,33,93,20
1,33,71,13
1,31,85,100
1,31,85,17
1,38,78,100
1,35,76,4
1,33,78,48
1,38,78,32
1,29,85,17
1,31,85,24
1,33,63,4
1,33,71,16
1,31,93,91
1,31,78,16
1,38,93,97
1,35,83,2
1,33,78,3
1,33,78,32
1,33,93,20
1,33,71,13
1,31,85,100
1,31,85,17
1,38,78,100
1,35,76,4
1,33,78,48
1,38,78,32
1,29,85,17
1,31,85,24
1,33,63,4
1,33,71,16
1,31,93,91
1,31,78,16
1,38,93,97
1,35,83,2
1,33,78,3
1,33,78,32
1,33,93,20
1,33,71,13
1,31,85,100
1,31,85,17
1,38,78,100
1,35,76,4
1,33,78,48
1,38,78,32
1,29,85,17
1,31,85,24
1,33,63,4
1,33,71,16
1,31,93,91
1,31,78,16
1,38,109,97
1,35,96,17
1,33,109,15
1,33,85,23
1,33,78,25
1,33,93,19
1,31,81,39
1,31,79,32
1,35,82,5
1,36,77,24
1,37,80,22
1,38,77,21
1,38,77,24
1,28,80,6
1,30,76,24
1,31,77,22
1,31,81,21
1,31,74,16
1,32,49,1
1,33,76,24
1,33,84,20
1,28,90,8
1,30,67,24
1,31,81,18
1,31,84,25
1,35,86,9
1,36,71,0
1,37,62,3
1,38,79,24
1,38,77,23
1,28,80,14
1,30,63,24
1,31,77,20
1,31,76,28
1,31,74,23
1,32,57,24
1,33,84,23
1,33,81,25
1,28,84,5
1,30,61,24
1,31,74,19
1,31,88,25
1,35,86,3
1,36,73,1
1,37,80,24
1,38,71,1
1,38,81,24
1,28,90,16
1,30,73,24
1,31,76,20
1,31,76,28
1,31,77,26
1,32,60,2
1,33,95,24
1,38,71,64
1,31,67,26
1,33,66,37
1,28,58,6
1,33,58,48
1,33,61,15
1,33,64,15
1,33,60,15
1,33,69,16
1,38,74,48
1,31,64,10
1,33,67,18
1,28,48,0
1,33,64,48
1,33,50,17
1,33,60,14
1,33,58,13
1,33,63,21
1,38,74,3
1,31,61,8
1,33,69,8
1,28,76,5
1,33,69,3
1,33,64,165
1,33,69,18
1,31,67,97
1,31,67,17
1,38,85,92
1,35,66,6
1,33,64,48
1,38,71,28
1,31,70,192
1,32,70,24
1,33,71,1
1,33,85,19
1,31,93,94
1,31,74,16
1,38,85,102
1,35,74,1
1,33,71,1
1,33,74,29
1,33,93,12
1,33,71,13
1,31,85,100
1,31,85,17
1,38,78,100
1,35,76,4
1,33,78,48
1,38,78,32
1,29,85,17
1,31,85,24
1,33,63,4
1,33,71,16
1,31,93,91
1,31,78,16
1,38,93,97
1,35,83,2
1,33,78,3
1,33,78,32
1,33,93,20
1,33,71,13
1,31,85,100
1,31,85,17
1,38,78,100
1,35,76,4
1,33,78,48
1,38,78,32
1,29,85,17
1,31,85,24
1,33,63,4
1,33,71,16
1,31,93,91
1,31,78,16
1,38,100,97
1,35,105,6
1,33,96,20
1,33,86,22
1,33,78,13
1,33,96,16
1,33,93,155
1,33,71,13
1,31,85,100
1,31,85,17
1,38,78,100
1,35,76,4
1,33,78,48
1,38,78,32
1,29,85,17
1,31,85,24
1,33,63,4
1,33,71,16
1,31,93,91
1,31,78,16
1,38,93,97
1,35,83,2
1,33,78,3
1,33,78,32
1,33,93,95
1,33,71,13
1,31,85,100
1,31,85,17
1,38,78,100
1,35,76,4
1,33,78,48
1,38,78,32
1,29,85,17
1,31,85,24
1,33,63,4
1,33,71,16
1,31,93,91
1,31,78,16
1,38,109,97
1,35,96,17
1,33,109,15
1,33,85,23
1,33,78,25
1,33,93,19
1,31,81,39
1,31,79,32
1,35,82,5
1,36,77,24
1,37,80,22
1,38,77,21
1,38,77,24
1,28,80,6
1,30,76,24
1,31,77,22
1,31,81,21
1,31,74,16
1,32,49,1
1,33,76,24
1,33,84,20
1,28,90,8
1,30,67,24
1,31,81,18
1,31,84,25
1,35,86,9
1,36,71,0
1,37,62,3
1,38,79,24
1,38,77,23
1,28,80,14
1,30,63,24
1,31,77,20
1,31,76,28
1,31,74,23
1,32,57,24
1,33,84,23
1,33,81,25
1,28,84,5
1,30,61,24
1,31,74,19
1,31,88,25
1,35,86,3
1,36,73,1
1,37,80,24
1,38,71,1
1,38,81,24
1,28,90,16
1,30,73,24
1,31,76,20
1,31,76,28
1,31,77,26
1,32,60,2
1,33,95,24
1,38,71,64
1,31,67,26
1,33,66,37
1,28,58,6
1,33,58,48
1,33,61,15
1,33,64,15
1,33,60,15
1,33,69,16
1,38,74,48
1,31,64,10
1,33,67,18
1,28,48,0
1,33,64,48
1,33,50,17
1,33,60,14
1,33,58,13
1,33,63,21
1,38,74,3
1,31,61,8
1,33,69,8
1,28,76,5
1,33,69,3
1,33,64,165
1,33,69,18
1,31,67,97
1,31,67,17
1,38,85,92
1,35,66,6
1,33,64,48
1,38,71,28
1,31,70,192
1,32,70,24
1,33,71,1
1,33,85,19
1,31,93,94
1,31,74,16
1,38,85,102
1,35,74,1
1,33,71,1
1,33,74,29
1,33,64,12
1,33,69,18
1,31,67,97
1,31,67,17
1,38,85,92
1,35,66,6
1,33,64,48
1,38,71,28
1,31,70,192
1,32,70,24
1,33,71,1
1,33,85,19
1,31,93,94
1,31,74,16
1,38,85,102
1,35,74,1
1,33,71,1
1,33,74,29
1,33,64,12
1,33,69,18
1,31,67,97
1,31,67,17
1,38,85,92
1,35,66,6
1,33,64,48
1,38,71,28
1,31,70,192
1,32,70,24
1,33,71,1
1,33,85,19
1,31,93,94
1,31,74,16
1,38,85,102
1,35,74,1
1,33,71,1
1,33,74,29
1,33,64,12
1,33,69,18
1,31,67,97
1,31,67,17
1,38,85,92
1,35,66,6
1,33,64,48
1,38,71,28
1,31,70,192
1,32,70,24
1,33,71,1
1,33,85,19
1,31,93,94
1,31,74,16
1,38,68,102
1,37,69,48
1,33,74,2
1,33,72,26
1,33,64,48
1,33,69,18
1,31,67,97
1,31,67,17
1,38,85,92
1,35,66,6
1,33,64,48
1,38,71,28
1,31,70,192
1,32,70,24
1,33,71,1
1,33,85,19
1,31,93,94
1,31,74,16
1,38,68,102
1,35,66,20
1,33,68,28
1,33,64,20
1,33,69,18
1,31,67,97
1,31,67,17
1,38,85,92
1,35,66,6
1,33,64,48
1,38,71,28
1,31,70,192
1,32,70,24
1,33,64,1
1,33,69,18
1,31,67,97
1,31,67,17
1,38,85,92
1,35,66,6
1,33,64,48
1,38,71,28
2,64,87,288
2,57,87,0
2,61,87,0
2,57,87,13
2,61,87,2
2,64,87,3
2,67,79,98
2,62,87,0
2,55,87,0
2,59,87,0
2,55,87,15
2,62,87,0
2,59,87,0
2,67,73,0
2,57,83,102
2,62,91,0
2,54,86,0
2,54,86,17
2,62,91,0
2,57,83,0
2,54,90,56
2,57,91,0
2,62,99,0
2,57,91,25
2,61,90,0
2,64,86,0
2,57,99,19
2,64,79,0
2,61,79,0
2,67,79,97
2,62,87,0
2,55,87,0
2,59,87,0
2,55,87,17
2,62,86,0
2,59,86,0
2,67,76,0
2,54,90,101
2,57,83,0
2,62,91,0
2,54,86,24
2,57,75,0
2,62,91,0
2,61,82,56
2,57,99,0
2,64,90,0
2,64,76,9
2,61,72,0
2,57,85,0
2,57,85,22
2,64,80,0
2,61,76,0
2,62,66,2
2,55,71,0
2,59,78,0
2,67,56,0
2,55,78,22
2,62,69,0
2,59,74,0
2,67,58,0
2,57,71,5
2,62,74,0
2,54,86,0
2,54,80,20
2,57,78,0
2,62,85,0
2,57,74,50
2,62,78,0
2,54,80,0
2,57,78,10
2,61,74,0
2,64,78,0
2,57,78,19
2,64,76,0
2,61,74,0
2,62,74,144
2,59,76,0
2,55,78,0
2,67,63,0
2,55,78,21
2,62,74,0
2,59,80,0
2,67,72,0
2,57,74,4
2,62,78,0
2,54,89,0
2,54,86,14
2,57,74,0
2,62,85,0
2,57,78,46
2,61,86,0
2,64,78,0
2,64,76,18
2,61,72,0
2,57,85,0
2,57,85,22
2,64,80,0
2,61,76,0
2,62,66,2
2,55,71,0
2,59,78,0
2,67,70,0
2,55,78,22
2,62,69,0
2,59,74,0
2,67,78,0
2,57,71,5
2,62,74,0
2,54,86,0
2,54,80,20
2,57,78,0
2,62,85,0
2,57,74,50
2,62,78,0
2,54,80,0
2,57,78,10
2,61,74,0
2,64,78,0
2,57,78,19
2,64,76,0
2,61,74,0
2,62,74,144
2,59,76,0
2,55,78,0
2,67,72,0
2,55,78,21
2,62,74,0
2,59,80,0
2,67,74,0
2,57,74,4
2,62,78,0
2,54,89,0
2,54,86,14
2,57,74,0
2,62,85,0
2,57,78,46
2,61,86,0
2,64,78,0
2,64,76,18
2,61,72,0
2,57,85,0
2,57,85,22
2,64,80,0
2,61,76,0
2,62,66,2
2,55,71,0
2,59,78,0
2,67,74,0
2,55,78,22
2,62,69,0
2,59,74,0
2,67,78,0
2,57,71,5
2,62,74,0
2,54,86,0
2,54,80,20
2,57,78,0
2,62,85,0
2,57,74,50
2,62,78,0
2,54,80,0
2,57,78,10
2,61,74,0
2,64,78,0
2,57,78,19
2,64,76,0
2,61,74,0
2,62,74,144
2,59,76,0
2,55,78,0
2,67,72,0
2,55,78,21
2,62,74,0
2,59,80,0
2,67,83,0
2,57,74,4
2,62,78,0
2,54,89,0
2,54,86,14
2,57,74,0
2,62,85,0
2,57,78,46
2,61,86,0
2,64,78,0
2,64,76,18
2,61,72,0
2,57,85,0
2,57,85,22
2,64,80,0
2,61,76,0
2,62,66,2
2,55,71,0
2,59,78,0
2,67,76,0
2,55,78,22
2,62,69,0
2,59,74,0
2,67,83,0
2,57,71,5
2,62,74,0
2,54,86,0
2,54,80,20
2,57,78,0
2,62,85,0
2,57,74,50
2,62,78,0
2,54,80,0
2,57,78,10
2,61,74,0
2,64,78,0
2,57,78,19
2,64,76,0
2,61,74,0
2,62,74,144
2,59,76,0
2,55,78,0
2,67,74,0
2,55,78,21
2,62,74,0
2,59,80,0
2,67,86,0
2,50,109,4
2,57,93,0
2,54,83,0
2,47,105,26
2,50,109,0
2,54,86,0
2,49,92,23
2,52,105,0
2,45,121,0
2,52,100,13
2,57,78,48
2,64,83,0
2,61,80,0
2,57,74,13
2,61,66,0
2,64,63,0
2,61,83,21
2,64,89,0
2,57,93,0
2,59,70,61
2,62,71,0
2,67,74,0
2,62,69,20
2,67,78,0
2,59,70,0
2,62,61,41
2,69,71,0
2,66,68,0
2,62,67,17
2,69,67,0
2,66,70,0
2,67,74,43
2,59,83,0
2,62,69,0
2,67,85,24
2,62,71,0
2,59,76,0
2,57,69,23
2,61,78,0
2,64,76,0
2,57,78,15
2,61,76,0
2,64,78,0
2,67,74,45
2,62,69,0
2,59,70,0
2,62,74,24
2,67,85,0
2,59,78,0
2,62,64,40
2,69,78,0
2,66,80,0
2,62,78,16
2,66,72,0
2,69,74,0
2,67,71,50
2,62,66,0
2,59,83,0
2,62,71,26
2,67,93,0
2,59,74,0
2,57,74,36
2,61,78,0
2,64,83,0
2,57,85,18
2,61,80,0
2,64,78,0
2,67,69,49
2,59,76,0
2,62,71,0
2,62,74,24
2,67,93,0
2,59,78,0
2,69,78,38
2,62,71,0
2,66,70,0
2,69,78,22
2,62,74,0
2,66,72,0
2,62,66,50
2,67,71,0
2,59,78,0
2,62,71,21
2,67,85,0
2,59,76,0
2,57,85,1
2,64,70,0
2,61,72,0
2,64,83,30
2,61,78,0
2,57,78,0
2,57,85,26
2,64,78,0
2,61,76,0
2,64,83,25
2,61,83,0
2,57,78,0
2,61,86,25
2,64,89,0
2,57,85,0
2,64,92,33
2,61,89,0
2,57,93,0
2,61,92,28
2,64,96,0
2,57,93,0
2,64,100,29
2,57,101,0
2,61,92,0
2,54,89,43
2,57,109,0
2,50,109,0
2,62,109,39
2,55,109,0
2,59,89,0
2,61,96,27
2,64,110,0
2,57,101,0
2,61,51,288
2,64,50,0
2,57,56,0
2,57,61,14
2,61,59,0
2,64,57,0
2,57,63,13
2,64,57,0
2,61,55,0
2,57,64,24
2,61,58,0
2,64,56,0
2,57,101,14
2,54,86,0
2,50,109,0
2,55,74,22
2,59,100,0
2,62,109,0
2,61,89,25
2,64,96,0
2,57,101,0
2,61,58,288
2,64,56,0
2,57,60,0
2,61,63,14
2,64,63,0
2,57,63,0
2,57,61,13
2,61,61,0
2,64,59,0
2,57,64,27
2,61,56,0
2,64,54,0
2,50,85,8
2,57,93,0
2,54,80,0
2,55,78,36
2,62,101,0
2,59,89,0
2,57,85,26
2,61,89,0
2,64,89,0
2,64,58,192
2,61,57,0
2,57,63,0
2,57,71,20
2,61,68,0
2,64,70,0
2,61,97,165
2,57,97,0
2,64,97,0
2,57,97,18
2,64,97,0
2,61,97,0
2,62,97,97
2,55,97,0
2,59,97,0
2,67,83,0
2,55,97,18
2,62,97,0
2,59,97,0
2,67,78,0
2,57,93,92
2,62,101,0
2,54,96,0
2,54,96,17
2,62,101,0
2,57,93,0
2,54,100,56
2,57,101,0
2,62,109,0
2,57,101,25
2,61,100,0
2,64,96,0
2,57,109,19
2,64,89,0
2,61,89,0
2,67,80,97
2,62,97,0
2,55,97,0
2,59,97,0
2,55,97,15
2,62,96,0
2,59,96,0
2,67,83,0
2,54,100,96
2,57,93,0
2,62,101,0
2,54,96,24
2,57,85,0
2,62,101,0
2,61,92,56
2,57,109,0
2,64,100,0
2,64,76,9
2,61,72,0
2,57,85,0
2,57,85,22
2,64,80,0
2,61,76,0
2,62,66,2
2,55,71,0
2,59,78,0
2,67,68,0
2,55,78,22
2,62,69,0
2,59,74,0
2,67,74,0
2,57,71,5
2,62,74,0
2,54,86,0
2,54,80,20
2,57,78,0
2,62,85,0
2,57,74,50
2,62,78,0
2,54,80,0
2,57,78,10
2,61,74,0
2,64,78,0
2,57,78,19
2,64,76,0
2,61,74,0
2,62,74,144
2,59,76,0
2,55,78,0
2,67,76,0
2,55,78,21
2,62,74,0
2,59,80,0
2,67,78,0
2,57,74,4
2,62,78,0
2,54,89,0
2,54,86,14
2,57,74,0
2,62,85,0
2,57,78,46
2,61,86,0
2,64,78,0
2,64,76,18
2,61,72,0
2,57,85,0
2,57,85,22
2,64,80,0
