track,note,velocity,time
1,57,100,3300
1,68,100,0
1,64,100,0
1,64,0,60
1,68,0,0
1,57,0,0
1,71,100,0
1,68,100,0
1,64,100,0
1,64,0,60
1,68,0,0
1,71,0,0
1,71,100,0
1,68,100,0
1,64,100,0
1,64,0,113
1,68,0,0
1,71,0,0
1,76,100,7
1,71,100,0
1,68,100,0
1,68,0,117
1,71,0,0
1,76,0,0
1,80,100,3
1,76,100,0
1,71,100,0
1,71,0,115
1,76,0,0
1,80,0,0
1,74,100,5
1,81,100,0
1,78,100,0
1,78,0,180
1,81,0,0
1,74,0,0
1,73,100,240
1,81,100,0
1,76,100,0
1,76,0,120
1,81,0,0
1,73,0,0
1,74,100,0
1,81,100,0
1,78,100,0
1,78,0,240
1,81,0,0
1,74,0,0
1,81,100,0
1,76,100,0
1,73,100,0
1,73,0,240
1,76,0,0
1,81,0,0
1,71,100,0
1,76,100,0
1,80,100,0
1,80,0,240
1,76,0,0
1,71,0,0
1,69,100,0
1,73,100,0
1,78,100,0
1,78,0,60
1,73,0,0
1,69,0,0
1,76,100,0
1,71,100,0
1,68,100,0
1,68,0,117
1,71,0,0
1,76,0,0
1,66,100,3
1,71,100,0
1,75,100,0
1,75,0,180
1,71,0,0
1,66,0,0
1,68,100,600
1,68,0,120
1,68,100,0
1,68,0,120
1,66,100,0
1,66,0,180
1,64,100,0
1,64,0,60
1,64,100,0
1,64,0,240
1,71,100,600
1,68,100,0
1,64,100,0
1,64,0,120
1,68,0,0
1,71,0,0
1,68,100,0
1,71,100,0
1,76,100,0
1,76,0,120
1,71,0,0
1,68,0,0
1,71,100,0
1,76,100,0
1,80,100,0
1,80,0,60
1,76,0,0
1,71,0,0
1,74,100,0
1,78,100,0
1,81,100,0
1,81,0,180
1,78,0,0
1,74,0,0
1,73,100,240
1,81,100,0
1,76,100,0
1,76,0,120
1,81,0,0
1,73,0,0
1,74,100,0
1,81,100,0
1,78,100,0
1,78,0,240
1,81,0,0
1,74,0,0
1,73,100,0
1,81,100,0
1,76,100,0
1,76,0,120
1,81,0,0
1,73,0,0
1,81,100,0
1,73,100,0
1,76,100,0
1,76,0,120
1,73,0,0
1,81,0,0
1,71,100,0
1,76,100,0
1,80,100,0
1,80,0,240
1,76,0,0
1,71,0,0
1,69,100,0
1,73,100,0
1,78,100,0
1,78,0,60
1,73,0,0
1,69,0,0
1,76,100,0
1,71,100,0
1,68,100,0
1,68,0,117
1,71,0,0
1,76,0,0
1,66,100,3
1,71,100,0
1,75,100,0
1,75,0,180
1,71,0,0
1,66,0,0
1,68,100,600
1,68,0,120
1,66,100,0
1,66,0,120
1,66,100,0
1,66,0,180
1,64,100,0
1,64,0,60
1,64,100,0
1,64,0,240
1,76,100,240
1,68,100,0
1,64,100,0
1,64,0,60
1,68,0,0
1,76,0,0
1,71,100,0
1,64,100,0
1,76,100,0
1,76,0,90
1,64,0,0
1,71,0,0
1,68,100,30
1,71,100,0
1,76,100,0
1,76,0,180
1,71,0,0
1,68,0,0
1,69,100,120
1,75,100,0
1,78,100,0
1,78,0,60
1,75,0,0
1,69,0,0
1,68,100,0
1,73,100,0
1,76,100,0
1,76,0,90
1,73,0,0
1,68,0,0
1,66,100,30
1,71,100,0
1,75,100,0
1,75,0,180
1,71,0,0
1,66,0,0
1,69,100,120
1,75,100,0
1,78,100,0
1,78,0,60
1,75,0,0
1,69,0,0
1,66,100,0
1,71,100,0
1,75,100,0
1,75,0,90
1,71,0,0
1,66,0,0
1,64,100,30
1,69,100,0
1,73,100,0
1,73,0,90
1,69,0,0
1,64,0,0
1,75,100,30
1,71,100,0
1,66,100,0
1,66,0,60
1,71,0,0
1,75,0,0
1,64,100,0
1,69,100,0
1,73,100,0
1,73,0,240
1,69,0,0
1,64,0,0
1,76,100,300
1,76,0,60
1,76,100,0
1,76,0,120
1,73,100,0
1,73,0,30
1,71,100,0
1,71,0,90
1,71,100,0
1,76,100,0
1,80,100,0
1,80,0,180
1,76,0,0
1,71,0,0
1,69,100,0
1,73,100,0
1,78,100,0
1,78,0,60
1,73,0,0
1,69,0,0
1,68,100,0
1,71,100,0
1,76,100,0
1,76,0,180
1,71,0,0
1,68,0,0
1,66,100,0
1,73,100,0
1,73,0,60
1,66,0,0
1,64,100,0
1,69,100,0
1,69,0,120
1,64,0,0
1,59,100,300
1,68,100,0
1,64,100,0
1,64,0,60
1,68,0,0
1,59,0,0
1,71,100,0
1,68,100,0
1,64,100,0
1,64,0,120
1,68,0,0
1,71,0,0
1,71,100,0
1,68,100,0
1,64,100,0
1,64,0,60
1,68,0,0
1,71,0,0
1,76,100,0
1,71,100,0
1,68,100,0
1,68,0,90
1,71,0,0
1,76,0,0
1,71,100,30
1,76,100,0
1,80,100,0
1,80,0,90
1,76,0,0
1,71,0,0
1,74,100,30
1,81,100,0
1,78,100,0
1,78,0,180
1,81,0,0
1,74,0,0
1,74,100,240
1,78,100,0
1,81,100,0
1,81,0,120
1,78,0,0
1,74,0,0
1,73,100,0
1,76,100,0
1,81,100,0
1,81,0,120
1,76,0,0
1,73,0,0
1,73,100,240
1,76,100,0
1,81,100,0
1,81,0,120
1,76,0,0
1,73,0,0
1,71,100,0
1,76,100,0
1,80,100,0
1,80,0,120
1,76,0,0
1,71,0,0
1,71,100,0
1,76,100,0
1,80,100,0
1,80,0,60
1,76,0,0
1,71,0,0
1,73,100,0
1,69,100,0
1,78,100,0
1,78,0,90
1,69,0,0
1,73,0,0
1,76,100,30
1,71,100,0
1,68,100,0
1,68,0,117
1,71,0,0
1,76,0,0
1,68,100,3
1,71,100,0
1,76,100,0
1,76,0,239
1,71,0,0
1,68,0,0
1,75,100,1
1,71,100,0
1,66,100,0
1,66,0,60
1,71,0,0
1,75,0,0
1,75,100,0
1,71,100,0
1,66,100,0
1,66,0,240
1,71,0,0
1,75,0,0
1,59,100,60
1,59,0,60
1,68,100,0
1,68,0,180
1,66,100,30
1,66,0,30
1,68,100,0
1,68,0,120
1,66,100,0
1,66,0,180
1,64,100,0
1,64,0,60
1,64,100,0
1,64,0,240
1,71,100,600
1,68,100,0
1,64,100,0
1,64,0,120
1,68,0,0
1,71,0,0
1,68,100,0
1,71,100,0
1,76,100,0
1,76,0,120
1,71,0,0
1,68,0,0
1,71,100,0
1,76,100,0
1,80,100,0
1,80,0,60
1,76,0,0
1,71,0,0
1,74,100,0
1,78,100,0
1,81,100,0
1,81,0,180
1,78,0,0
1,74,0,0
1,73,100,240
1,81,100,0
1,76,100,0
1,76,0,120
1,81,0,0
1,73,0,0
1,74,100,0
1,81,100,0
1,78,100,0
1,78,0,240
1,81,0,0
1,74,0,0
1,73,100,0
1,81,100,0
1,76,100,0
1,76,0,120
1,81,0,0
1,73,0,0
1,81,100,0
1,73,100,0
1,76,100,0
1,76,0,120
1,73,0,0
1,81,0,0
1,80,100,0
1,76,100,0
1,71,100,0
1,71,0,120
1,76,0,0
1,80,0,0
1,71,100,0
1,76,100,0
1,80,100,0
1,80,0,60
1,76,0,0
1,71,0,0
1,69,100,0
1,73,100,0
1,78,100,0
1,78,0,90
1,73,0,0
1,69,0,0
1,76,100,30
1,71,100,0
1,68,100,0
1,68,0,117
1,71,0,0
1,76,0,0
1,66,100,3
1,71,100,0
1,75,100,0
1,75,0,180
1,71,0,0
1,66,0,0
1,68,100,600
1,68,0,120
1,66,100,0
1,66,0,120
1,66,100,0
1,66,0,180
1,64,100,0
1,64,0,60
1,64,100,0
1,64,0,240
1,76,100,240
1,68,100,0
1,64,100,0
1,64,0,60
1,68,0,0
1,76,0,0
1,71,100,0
1,64,100,0
1,76,100,0
1,76,0,90
1,64,0,0
1,71,0,0
1,68,100,30
1,71,100,0
1,76,100,0
1,76,0,180
1,71,0,0
1,68,0,0
1,69,100,120
1,75,100,0
1,78,100,0
1,78,0,60
1,75,0,0
1,69,0,0
1,68,100,0
1,73,100,0
1,76,100,0
1,76,0,90
1,73,0,0
1,68,0,0
1,66,100,30
1,71,100,0
1,75,100,0
1,75,0,180
1,71,0,0
1,66,0,0
1,69,100,120
1,75,100,0
1,78,100,0
1,78,0,60
1,75,0,0
1,69,0,0
1,66,100,0
1,71,100,0
1,75,100,0
1,75,0,90
1,71,0,0
1,66,0,0
1,64,100,30
1,69,100,0
1,73,100,0
1,73,0,90
1,69,0,0
1,64,0,0
1,75,100,30
1,71,100,0
1,66,100,0
1,66,0,60
1,71,0,0
1,75,0,0
1,64,100,0
1,69,100,0
1,73,100,0
1,73,0,240
1,69,0,0
1,64,0,0
1,76,100,300
1,76,0,60
1,76,100,0
1,76,0,90
1,73,100,0
1,73,0,30
1,71,100,0
1,71,0,60
1,71,100,60
1,76,100,0
1,80,100,0
1,80,0,180
1,76,0,0
1,71,0,0
1,69,100,0
1,73,100,0
1,78,100,0
1,78,0,60
1,73,0,0
1,69,0,0
1,68,100,0
1,71,100,0
1,76,100,0
1,76,0,180
1,71,0,0
1,68,0,0
1,69,100,0
1,66,100,0
1,66,0,60
1,69,0,0
1,68,100,0
1,68,0,60
1,68,113,2940
1,68,0,120
1,66,113,0
1,66,0,60
1,64,113,0
1,64,0,115
1,59,113,5
1,59,0,60
1,61,113,0
1,61,0,60
1,64,113,0
1,64,0,60
1,64,113,240
1,64,0,60
1,66,113,0
1,66,0,240
1,64,113,0
1,64,0,113
1,66,113,7
1,66,0,30
1,68,113,0
1,68,0,90
1,68,113,0
1,68,0,239
1,69,113,1
1,69,0,30
1,68,113,0
1,68,0,30
1,66,113,0
1,66,0,60
1,64,113,0
1,64,0,116
1,66,113,4
1,66,0,180
1,61,113,0
1,61,0,60
1,63,113,0
1,63,0,60
1,59,113,360
1,59,0,60
1,59,113,0
1,59,0,119
1,59,113,1
1,59,0,119
1,59,113,1
1,59,0,60
1,61,113,0
1,61,0,60
1,64,113,0
1,64,0,119
1,64,113,1
1,64,0,300
1,68,113,600
1,68,0,60
1,66,113,0
1,66,0,113
1,64,113,7
1,64,0,119
1,61,113,61
1,61,0,60
1,64,113,0
1,64,0,180
1,64,113,0
1,64,0,60
1,64,113,0
1,64,0,113
1,66,113,7
1,66,0,60
1,66,113,0
1,66,0,180
1,64,113,0
1,64,0,90
1,66,113,0
1,66,0,30
1,68,113,0
1,68,0,119
1,68,113,1
1,68,0,180
1,66,113,90
1,66,0,30
1,64,113,0
1,64,0,120
1,64,113,0
1,64,0,60
1,66,113,0
1,66,0,119
1,62,113,1
1,62,0,60
1,63,113,0
1,63,0,119
1,59,113,361
1,59,0,60
1,59,113,0
1,59,0,113
1,59,113,7
1,59,0,118
1,66,113,62
1,66,0,15
1,68,113,0
1,68,0,45
1,66,113,0
1,66,0,119
1,61,113,1
1,61,0,119
1,64,113,1
1,64,0,180
1,76,100,240
1,68,100,0
1,64,100,0
1,64,0,60
1,68,0,0
1,76,0,0
1,71,100,0
1,64,100,0
1,76,100,0
1,76,0,90
1,64,0,0
1,71,0,0
1,68,100,30
1,71,100,0
1,76,100,0
1,76,0,180
1,71,0,0
1,68,0,0
1,69,100,120
1,75,100,0
1,78,100,0
1,78,0,60
1,75,0,0
1,69,0,0
1,68,100,0
1,73,100,0
1,76,100,0
1,76,0,90
1,73,0,0
1,68,0,0
1,66,100,30
1,71,100,0
1,75,100,0
1,75,0,180
1,71,0,0
1,66,0,0
1,69,100,120
1,75,100,0
1,78,100,0
1,78,0,60
1,75,0,0
1,69,0,0
1,66,100,0
1,71,100,0
1,75,100,0
1,75,0,90
1,71,0,0
1,66,0,0
1,64,100,30
1,69,100,0
1,73,100,0
1,73,0,90
1,69,0,0
1,64,0,0
1,75,100,30
1,71,100,0
1,66,100,0
1,66,0,60
1,71,0,0
1,75,0,0
1,64,100,0
1,69,100,0
1,73,100,0
1,73,0,240
1,69,0,0
1,64,0,0
1,76,100,300
1,76,0,60
1,76,100,0
1,76,0,120
1,73,100,0
1,73,0,30
1,71,100,0
1,71,0,90
1,71,100,0
1,76,100,0
1,80,100,0
1,80,0,180
1,76,0,0
1,71,0,0
1,69,100,0
1,73,100,0
1,78,100,0
1,78,0,60
1,73,0,0
1,69,0,0
1,68,100,0
1,71,100,0
1,76,100,0
1,76,0,180
1,71,0,0
1,68,0,0
1,66,100,0
1,73,100,0
1,73,0,60
1,66,0,0
1,64,100,0
1,69,100,0
1,69,0,120
1,64,0,0
1,71,100,360
1,68,100,0
1,64,100,0
1,64,0,60
1,68,0,0
1,71,0,0
1,71,100,0
1,68,100,0
1,64,100,0
1,64,0,113
1,68,0,0
1,71,0,0
1,76,100,7
1,71,100,0
1,68,100,0
1,68,0,117
1,71,0,0
1,76,0,0
1,80,100,3
1,76,100,0
1,71,100,0
1,71,0,115
1,76,0,0
1,80,0,0
1,74,100,5
1,81,100,0
1,78,100,0
1,78,0,180
1,81,0,0
1,74,0,0
1,73,100,240
1,81,100,0
1,76,100,0
1,76,0,120
1,81,0,0
1,73,0,0
1,74,100,0
1,81,100,0
1,78,100,0
1,78,0,240
1,81,0,0
1,74,0,0
1,81,100,0
1,76,100,0
1,73,100,0
1,73,0,240
1,76,0,0
1,81,0,0
1,71,100,0
1,76,100,0
1,80,100,0
1,80,0,240
1,76,0,0
1,71,0,0
1,69,100,0
1,73,100,0
1,78,100,0
1,78,0,60
1,73,0,0
1,69,0,0
1,76,100,0
1,71,100,0
1,68,100,0
1,68,0,117
1,71,0,0
1,76,0,0
1,66,100,3
1,71,100,0
1,75,100,0
1,75,0,180
1,71,0,0
1,66,0,0
1,59,100,480
1,59,0,60
1,66,100,0
1,66,0,15
1,68,100,0
1,68,0,105
1,66,100,0
1,66,0,55
1,68,92,5
1,68,0,120
1,66,100,0
1,66,0,180
1,64,100,0
1,64,0,60
1,64,100,0
1,64,0,240
1,71,100,600
1,68,100,0
1,64,100,0
1,64,0,120
1,68,0,0
1,71,0,0
1,68,100,0
1,71,100,0
1,76,100,0
1,76,0,120
1,71,0,0
1,68,0,0
1,71,100,0
1,76,100,0
1,80,100,0
1,80,0,60
1,76,0,0
1,71,0,0
1,74,100,0
1,78,100,0
1,81,100,0
1,81,0,180
1,78,0,0
1,74,0,0
1,73,100,240
1,81,100,0
1,76,100,0
1,76,0,120
1,81,0,0
1,73,0,0
1,74,100,0
1,81,100,0
1,78,100,0
1,78,0,240
1,81,0,0
1,74,0,0
1,73,100,0
1,81,100,0
1,76,100,0
1,76,0,120
1,81,0,0
1,73,0,0
1,81,100,0
1,73,100,0
1,76,100,0
1,76,0,120
1,73,0,0
1,81,0,0
1,71,100,0
1,76,100,0
1,80,100,0
1,80,0,240
1,76,0,0
1,71,0,0
1,69,100,0
1,73,100,0
1,78,100,0
1,78,0,60
1,73,0,0
1,69,0,0
1,76,100,0
1,71,100,0
1,68,100,0
1,68,0,117
1,71,0,0
1,76,0,0
1,66,100,3
1,71,100,0
1,75,100,0
1,75,0,180
1,71,0,0
1,66,0,0
1,68,100,600
1,68,0,120
1,66,100,0
1,66,0,15
1,68,100,0
1,68,0,105
1,66,100,0
1,66,0,30
1,68,100,0
1,68,0,30
1,66,100,0
1,66,0,116
1,64,100,4
1,64,0,300
1,76,100,240
1,68,100,0
1,64,100,0
1,64,0,60
1,68,0,0
1,76,0,0
1,71,100,0
1,64,100,0
1,76,100,0
1,76,0,90
1,64,0,0
1,71,0,0
1,68,100,30
1,71,100,0
1,76,100,0
1,76,0,180
1,71,0,0
1,68,0,0
1,69,100,120
1,75,100,0
1,78,100,0
1,78,0,60
1,75,0,0
1,69,0,0
1,68,100,0
1,73,100,0
1,76,100,0
1,76,0,90
1,73,0,0
1,68,0,0
1,66,100,30
1,71,100,0
1,75,100,0
1,75,0,180
1,71,0,0
1,66,0,0
1,69,100,120
1,75,100,0
1,78,100,0
1,78,0,60
1,75,0,0
1,69,0,0
1,66,100,0
1,71,100,0
1,75,100,0
1,75,0,90
1,71,0,0
1,66,0,0
1,64,100,30
1,69,100,0
1,73,100,0
1,73,0,90
1,69,0,0
1,64,0,0
