track,note,velocity,time
1,42,127,5
1,42,127,186
1,42,127,186
1,46,127,121
1,42,127,58
1,42,43,57
1,46,127,58
1,42,127,250
1,42,127,377
1,42,127,377
1,42,127,377
1,42,127,378
1,42,127,377
1,42,127,378
1,42,127,378
1,42,127,377
1,42,127,377
1,42,127,377
1,42,127,378
1,42,127,378
1,42,127,378
1,42,127,1145
1,42,127,378
1,42,127,378
1,42,127,377
1,42,127,377
1,42,127,377
1,42,127,377
1,42,127,377
1,42,127,377
1,42,127,378
1,42,127,378
1,42,127,377
1,42,127,377
1,42,127,377
1,42,127,377
1,42,127,377
1,42,127,377
1,42,127,378
1,42,127,378
1,42,127,377
1,42,127,377
1,42,127,377
1,42,127,377
1,42,127,377
1,42,127,377
1,42,127,378
1,42,127,378
1,42,127,377
1,42,127,377
1,42,127,377
1,42,127,377
1,42,127,377
1,42,127,377
1,42,127,378
1,42,127,378
1,42,127,377
1,42,127,377
1,42,127,377
1,42,127,377
1,42,127,377
1,42,127,377
1,42,127,378
1,42,127,378
1,42,127,377
1,42,127,377
1,42,127,377
1,42,127,377
1,42,127,377
1,42,127,377
1,42,127,378
1,42,127,378
1,42,127,377
1,42,127,377
1,42,127,377
1,42,127,377
1,42,127,377
1,42,127,377
1,42,127,378
1,42,127,378
1,42,127,377
1,42,127,377
1,42,127,377
1,42,127,377
1,42,127,377
1,42,127,377
1,42,127,378
1,42,127,378
1,42,127,377
1,42,127,377
1,42,127,377
1,42,127,377
1,42,127,377
1,42,127,377
1,42,127,378
1,42,127,378
1,42,127,377
1,42,127,377
1,42,127,377
1,42,127,377
1,42,127,377
1,42,127,377
1,42,127,378
1,42,127,378
1,42,127,377
1,42,127,377
1,42,127,377
1,42,127,377
1,42,127,377
1,42,127,377
1,42,127,378
1,42,127,378
1,42,127,377
1,42,127,377
1,42,127,377
1,42,127,377
1,42,127,377
1,42,127,377
1,42,127,378
1,42,127,378
1,42,127,377
1,42,127,377
1,42,127,378
1,42,127,378
1,42,127,377
1,42,127,377
1,42,127,377
1,42,127,377
1,42,127,377
1,42,127,377
1,42,127,378
1,42,127,378
1,42,127,377
1,42,127,377
1,42,127,377
1,42,127,377
1,42,127,377
1,42,127,377
1,42,127,378
1,42,127,378
1,42,127,377
1,42,127,377
1,42,127,377
1,42,127,377
1,42,127,377
1,42,127,377
1,42,127,378
1,42,127,378
1,42,127,377
1,42,127,377
1,42,127,377
1,42,127,377
1,42,127,377
1,42,127,377
1,42,127,378
1,42,127,378
1,42,127,377
1,42,127,377
1,42,127,377
1,42,127,377
1,42,127,377
1,42,127,377
1,42,127,378
1,42,127,378
1,42,127,377
1,42,127,377
1,42,127,377
1,42,127,377
1,42,127,377
1,42,127,377
1,42,127,378
1,42,127,378
1,42,127,377
1,42,127,377
1,42,127,377
1,42,127,377
1,42,127,377
1,42,127,377
1,42,127,378
1,42,127,378
1,42,127,377
1,42,127,377
1,42,127,377
1,42,127,377
1,42,127,377
1,42,127,377
1,42,127,378
1,42,127,378
1,42,127,377
1,42,127,377
1,42,127,377
1,42,127,377
1,42,127,377
1,42,127,377
1,42,127,378
1,42,127,378
1,42,127,377
1,42,127,377
1,42,127,377
1,42,127,377
1,42,127,377
1,42,127,377
1,42,127,378
1,42,127,378
1,42,127,377
1,42,127,377
1,42,127,377
1,42,127,377
1,42,127,377
1,42,127,377
1,42,127,378
1,42,127,378
1,42,127,377
1,42,127,377
1,42,127,377
1,42,127,377
1,42,127,377
1,42,127,377
1,42,127,378
2,38,102,768
2,33,98,31
2,38,93,32
2,40,93,65
2,42,72,38
2,43,93,40
2,38,85,384
2,31,98,6
2,43,93,7
2,38,98,28
2,33,80,25
2,38,89,29
2,37,89,18
2,35,85,14
2,33,89,24
2,40,93,384
2,45,93,23
2,38,107,169
2,33,89,8
2,38,98,26
2,33,76,384
2,40,93,2
2,31,89,192
2,38,85,12
2,43,89,16
2,38,89,21
2,43,89,20
2,38,93,86
2,33,60,384
2,38,93,44
2,37,76,15
2,35,89,22
2,33,98,19
2,28,89,384
2,33,102,28
2,35,107,26
2,37,89,18
2,38,107,54
2,33,89,8
2,38,98,26
2,33,76,384
2,40,93,2
2,31,89,192
2,38,85,12
2,43,89,16
2,38,89,21
2,43,89,20
2,38,93,86
2,33,60,384
2,38,93,44
2,37,76,15
2,35,89,22
2,33,98,19
2,28,89,384
2,33,102,28
2,35,107,26
2,37,89,18
2,38,107,54
2,33,89,8
2,38,98,26
2,33,76,384
2,40,93,2
2,31,89,192
2,38,85,12
2,43,89,16
2,38,89,21
2,43,89,20
2,38,93,86
2,33,60,384
2,38,93,44
2,37,76,15
2,35,89,22
2,33,98,19
2,28,89,384
2,33,102,28
2,35,107,26
2,37,89,18
2,38,107,54
2,33,89,8
2,38,98,26
2,33,76,384
2,40,93,2
2,31,89,192
2,38,85,12
2,43,89,16
2,38,89,21
2,43,89,20
2,38,93,86
2,33,60,384
2,38,93,44
2,37,76,15
2,35,89,22
2,33,98,19
2,28,89,384
2,33,102,28
2,35,107,26
2,37,89,18
2,38,89,54
2,33,89,13
2,38,89,29
2,40,98,52
2,42,80,30
2,43,93,75
2,38,93,21
2,31,98,15
2,43,98,22
2,42,85,192
2,38,89,32
2,33,98,7
2,38,93,40
2,38,85,80
2,37,89,9
2,35,76,27
2,30,93,16
2,35,102,29
2,30,89,4
2,35,93,36
2,31,89,32
2,38,93,18
2,43,80,23
2,33,102,192
2,38,102,153
2,33,89,7
2,38,98,24
2,33,98,17
2,38,89,8
2,31,98,80
2,38,93,44
2,43,102,40
2,31,102,6
2,38,107,68
2,33,98,16
2,38,102,19
2,37,93,28
2,35,98,6
2,33,93,45
2,28,98,2
2,33,113,37
2,38,107,154
2,33,89,8
2,38,98,26
2,33,76,384
2,40,93,2
2,31,89,192
2,38,85,12
2,43,89,16
2,38,89,21
2,43,89,20
2,38,93,86
2,33,60,384
2,38,93,44
2,37,76,15
2,35,89,22
2,33,98,19
2,28,89,384
2,33,102,28
2,35,107,26
2,37,89,18
2,38,107,54
2,33,89,8
2,38,98,26
2,33,76,384
2,40,93,2
2,31,89,192
2,38,85,12
2,43,89,16
2,38,89,21
2,43,89,20
2,38,93,86
2,33,60,384
2,38,93,44
2,37,76,15
2,35,89,22
2,33,98,19
2,28,89,384
2,33,102,28
2,35,107,26
2,37,89,18
2,38,107,54
2,33,89,8
2,38,98,26
2,33,76,384
2,40,93,2
2,31,89,192
2,38,85,12
2,43,89,16
2,38,89,21
2,43,89,20
2,38,93,86
2,33,60,384
2,38,93,44
2,37,76,15
2,35,89,22
2,33,98,19
2,28,89,384
2,33,102,28
2,35,107,26
2,37,89,18
2,38,107,54
2,33,89,8
2,38,98,26
2,33,76,384
2,40,93,2
2,31,89,192
2,38,85,12
2,43,89,16
2,38,89,21
2,43,89,20
2,38,93,86
2,33,60,384
2,38,93,44
2,37,76,15
2,35,89,22
2,33,98,19
2,28,89,384
2,33,102,28
2,35,107,26
2,37,89,18
2,38,89,54
2,33,89,13
2,38,89,29
2,40,98,52
2,42,80,30
2,43,93,75
2,38,93,21
2,31,98,15
2,43,98,22
2,42,85,192
2,38,89,32
2,33,98,7
2,38,93,40
2,38,85,80
2,37,89,9
2,35,76,27
2,30,93,16
2,35,102,29
2,30,89,4
2,35,93,36
2,31,89,32
2,38,93,18
2,43,80,23
2,33,102,192
2,38,102,153
2,31,98,192
2,38,93,44
2,43,102,40
2,31,102,6
2,38,107,68
2,33,98,48
2,33,102,156
2,28,93,3
2,33,102,14
2,38,98,102
2,33,98,16
2,38,107,48
2,33,102,66
2,38,107,58
3,57,64,768
3,54,49,0
3,62,76,0
3,50,72,0
3,43,68,382
3,55,62,192
3,62,80,0
3,59,72,0
3,62,85,50
3,43,72,0
3,57,89,0
3,50,85,18
3,57,80,192
3,62,80,0
3,54,62,0
3,45,62,412
3,64,57,192
3,57,64,0
3,61,62,0
3,52,85,4
3,64,76,55
3,59,93,0
3,61,62,125
3,45,76,0
3,64,62,0
3,57,62,0
3,50,60,160
3,66,60,192
3,69,43,0
3,62,57,0
3,64,72,38
3,43,55,136
3,55,62,192
3,59,80,0
3,62,76,0
3,50,76,493
3,66,64,192
3,62,76,0
3,69,76,0
3,64,72,54
3,62,62,0
3,69,72,0
3,62,64,32
3,66,72,0
3,45,76,123
3,57,52,192
3,61,62,0
3,64,62,0
3,59,89,132
3,64,89,0
3,57,57,63
3,64,72,0
3,45,80,0
3,61,89,0
3,50,60,144
3,66,60,192
3,69,43,0
3,62,57,0
3,64,72,38
3,43,55,136
3,55,62,192
3,59,80,0
3,62,76,0
3,50,76,493
3,66,64,192
3,62,76,0
3,69,76,0
3,64,72,54
3,62,62,0
3,69,72,0
3,62,64,32
3,66,72,0
3,45,76,123
3,57,52,192
3,61,62,0
3,64,62,0
3,59,89,132
3,64,89,0
3,57,57,63
3,64,72,0
3,45,80,0
3,61,89,0
3,50,60,144
3,66,60,192
3,69,43,0
3,62,57,0
3,64,72,38
3,43,55,136
3,55,62,192
3,59,80,0
3,62,76,0
3,50,76,493
3,66,64,192
3,62,76,0
3,69,76,0
3,64,72,54
3,62,62,0
3,69,72,0
3,62,64,32
3,66,72,0
3,45,76,123
3,57,52,192
3,61,62,0
3,64,62,0
3,59,89,132
3,64,89,0
3,57,57,63
3,64,72,0
3,45,80,0
3,61,89,0
3,50,60,144
3,66,60,192
3,69,43,0
3,62,57,0
3,64,72,38
3,43,55,136
3,55,62,192
3,59,80,0
3,62,76,0
3,50,76,493
3,66,64,192
3,62,76,0
3,69,76,0
3,64,72,54
3,62,62,0
3,69,72,0
3,62,64,32
3,66,72,0
3,45,76,123
3,57,52,192
3,61,62,0
3,64,62,0
3,59,89,132
3,64,89,0
3,57,57,63
3,64,72,0
3,45,80,0
3,61,89,0
3,50,72,144
3,66,62,192
3,57,64,0
3,62,85,0
3,38,62,190
3,43,80,192
3,55,76,192
3,62,89,0
3,59,89,0
3,55,60,38
3,62,72,0
3,59,80,0
3,43,64,153
3,57,85,119
3,62,93,0
3,50,76,33
3,57,89,192
3,62,89,0
3,54,72,0
3,57,68,155
3,54,47,0
3,62,80,0
3,57,80,228
3,54,56,0
3,62,80,0
3,54,53,85
3,57,76,0
3,62,85,0
3,47,72,42
3,59,64,192
3,62,80,0
3,66,68,0
3,59,64,222
3,62,85,0
3,66,68,0
3,59,55,86
3,66,72,0
3,62,85,0
3,59,102,170
3,43,76,44
3,55,62,192
3,59,76,0
3,62,85,0
3,57,93,112
3,62,93,0
3,57,60,50
3,61,76,0
3,45,76,0
3,50,72,148
3,62,76,192
3,66,68,0
3,57,68,0
3,57,60,32
3,66,62,0
3,62,85,0
3,66,68,82
3,57,76,0
3,62,93,0
3,57,85,73
3,66,72,0
3,62,93,0
3,43,76,126
3,55,56,192
3,59,60,0
3,62,57,0
3,55,52,21
3,62,62,0
3,59,62,0
3,62,62,118
3,59,64,0
3,55,57,0
3,57,80,60
3,55,76,0
3,62,89,0
3,54,52,292
3,57,76,0
3,50,68,0
3,62,76,0
3,54,59,70
3,50,62,0
3,62,89,0
3,57,89,0
3,57,59,209
3,62,80,0
3,66,72,0
3,50,72,0
3,57,64,33
3,62,93,0
3,66,85,0
3,45,60,326
3,64,80,0
3,57,68,0
3,61,76,0
3,52,89,4
3,59,93,61
3,64,89,0
3,45,56,109
3,61,59,0
3,57,62,0
3,64,89,0
3,50,60,153
3,66,60,192
3,69,43,0
3,62,57,0
3,64,72,38
3,43,55,136
3,55,62,192
3,59,80,0
3,62,76,0
3,50,76,493
3,66,64,192
3,62,76,0
3,69,76,0
3,64,72,54
3,62,62,0
3,69,72,0
3,62,64,32
3,66,72,0
3,45,76,123
3,57,52,192
3,61,62,0
3,64,62,0
3,59,89,132
3,64,89,0
3,57,57,63
3,64,72,0
3,45,80,0
3,61,89,0
3,50,60,144
3,66,60,192
3,69,43,0
3,62,57,0
3,64,72,38
3,43,55,136
3,55,62,192
3,59,80,0
3,62,76,0
3,50,76,493
3,66,64,192
3,62,76,0
3,69,76,0
3,64,72,54
3,62,62,0
3,69,72,0
3,62,64,32
3,66,72,0
3,45,76,123
3,57,52,192
3,61,62,0
3,64,62,0
3,59,89,132
3,64,89,0
3,57,57,63
3,64,72,0
3,45,80,0
3,61,89,0
3,50,60,144
3,66,60,192
3,69,43,0
3,62,57,0
3,64,72,38
3,43,55,136
3,55,62,192
3,59,80,0
3,62,76,0
3,50,76,493
3,66,64,192
3,62,76,0
3,69,76,0
3,64,72,54
3,62,62,0
3,69,72,0
3,62,64,32
3,66,72,0
3,45,76,123
3,57,52,192
3,61,62,0
3,64,62,0
3,59,89,132
3,64,89,0
3,57,57,63
3,64,72,0
3,45,80,0
3,61,89,0
3,50,60,144
3,66,60,192
3,69,43,0
3,62,57,0
3,64,72,38
3,43,55,136
3,55,62,192
3,59,80,0
3,62,76,0
3,50,76,493
3,66,64,192
3,62,76,0
3,69,76,0
3,64,72,54
3,62,62,0
3,69,72,0
3,62,64,32
3,66,72,0
3,45,76,123
3,57,52,192
3,61,62,0
3,64,62,0
3,59,89,132
3,64,89,0
3,57,57,63
3,64,72,0
3,45,80,0
3,61,89,0
3,50,72,144
3,66,62,192
3,57,64,0
3,62,85,0
3,38,62,190
3,43,80,192
3,55,76,192
3,62,89,0
3,59,89,0
3,55,60,38
3,62,72,0
3,59,80,0
3,43,64,153
3,57,85,119
3,62,93,0
3,50,76,33
3,57,89,192
3,62,89,0
3,54,72,0
3,57,68,155
3,54,47,0
3,62,80,0
3,57,80,228
3,54,56,0
3,62,80,0
3,54,53,85
3,57,76,0
3,62,85,0
3,47,72,42
3,59,64,192
3,62,80,0
3,66,68,0
3,59,64,222
3,62,85,0
3,66,68,0
3,59,55,86
3,66,72,0
3,62,85,0
3,59,102,170
3,43,76,44
3,55,62,192
3,59,76,0
3,62,85,0
3,57,93,112
3,62,93,0
3,57,60,50
3,61,76,0
3,45,76,0
3,38,72,148
3,62,80,0
3,57,64,0
3,66,76,0
3,38,85,64
3,66,76,0
3,57,76,0
3,62,93,0
3,43,76,132
3,55,56,192
3,59,60,0
3,62,57,0
3,55,52,21
3,62,62,0
3,59,62,0
3,62,62,118
3,59,64,0
3,55,57,0
3,57,80,60
3,55,76,0
3,62,89,0
3,50,93,100
3,66,62,192
3,62,72,0
3,69,80,0
3,64,85,12
3,62,72,0
3,69,76,0
3,45,89,124
3,61,76,192
3,57,68,0
3,64,80,0
3,59,98,28
3,64,76,0
3,50,72,132
3,66,85,192
3,62,85,0
3,69,93,0
3,62,85,22
3,57,89,27
3,50,98,122
3,62,89,0
3,64,93,0
3,69,93,0
3,50,85,121
3,66,89,0
3,69,85,0
3,62,80,0
4,74,113,704
4,64,113,0
4,67,107,27
4,72,113,192
4,64,113,44
4,67,127,24
4,72,127,0
4,64,113,77
4,72,113,0
4,67,119,0
4,72,113,16
4,64,98,0
4,67,107,0
4,62,113,230
4,67,107,0
4,72,113,0
4,71,113,203
4,67,102,0
4,62,107,0
4,62,127,92
4,67,119,0
4,62,119,55
4,67,113,0
4,59,107,64
4,62,102,100
4,59,119,55
4,57,107,126
4,54,113,10
4,62,113,0
4,57,113,0
4,50,113,58
4,54,107,0
4,45,102,0
4,62,119,161
4,52,107,9
4,53,107,12
4,54,119,9
4,52,113,21
4,50,127,9
4,54,119,78
4,52,119,112
4,62,119,60
4,62,119,101
4,61,107,192
4,57,56,145
4,54,68,0
4,62,113,11080
4,54,98,3
4,55,127,802
4,54,113,116
4,55,113,12
4,57,127,82
4,57,119,82
4,60,113,58
4,66,119,530
4,66,119,67
4,64,98,12
4,62,119,4
4,61,113,791
4,59,102,107
4,57,113,1
4,61,127,11
4,57,119,74
4,54,107,25
4,52,113,14
4,49,113,26
4,50,107,346
4,50,127,64
4,54,113,74
4,55,113,62
4,57,102,4
4,55,119,5
4,59,127,45
4,55,102,11
4,62,127,17
4,64,127,94
4,62,113,27
4,69,119,380
