track,note,velocity,time
1,52,80,1538
1,52,84,94
1,52,83,112
1,52,85,96
1,52,81,104
1,52,82,100
1,52,81,88
1,50,86,94
1,50,81,96
1,52,81,192
1,50,68,10
1,52,73,96
1,55,86,68
1,55,85,62
1,52,81,10
1,52,80,74
1,52,77,72
1,52,76,90
1,52,74,64
1,52,77,78
1,52,80,74
1,50,74,14
1,50,82,110
1,52,76,192
1,50,72,14
1,52,71,96
1,55,79,2
1,55,82,78
1,52,84,4
1,59,75,576
1,60,76,24
1,60,87,110
1,62,74,192
1,62,84,152
1,55,81,0
1,55,81,40
1,54,73,20
1,52,80,4
1,55,77,36
1,59,81,4
1,60,77,14
1,60,84,110
1,62,80,10
1,62,79,142
1,55,78,192
1,55,81,112
1,52,81,192
1,59,78,152
1,60,77,192
1,60,78,126
1,62,77,16
1,62,81,152
1,55,78,14
1,55,80,110
1,52,85,56
1,52,83,84
1,52,84,106
1,52,81,104
1,52,81,84
1,52,83,90
1,52,81,106
1,50,81,96
1,50,78,94
1,52,86,192
1,50,71,26
1,52,68,0
1,55,81,96
1,55,80,78
1,52,87,14
1,52,85,0
1,55,82,378
1,59,84,192
1,60,83,10
1,60,89,126
1,62,82,20
1,62,87,148
1,55,82,10
1,55,87,78
1,54,86,24
1,52,81,8
1,55,77,384
1,59,81,4
1,60,81,10
1,60,85,128
1,62,89,10
1,62,89,154
1,55,81,4
1,55,87,100
1,54,82,8
1,52,80,0
1,52,80,26
1,55,77,8
1,59,84,24
1,60,85,16
1,60,85,142
1,62,93,4
1,62,92,174
1,55,91,14
1,50,97,148
1,52,93,30
1,52,91,78
1,52,89,238
1,52,92,234
1,54,102,238
1,55,89,14
1,55,92,48
1,55,90,240
1,55,91,224
1,59,90,206
1,60,89,14
1,60,91,62
1,60,93,232
1,55,73,60
1,57,71,6
1,60,95,2
1,60,95,62
1,55,95,218
1,55,88,110
1,54,77,10
1,52,83,196
1,52,92,78
1,52,90,432
1,52,90,56
1,54,90,254
1,55,82,14
1,55,83,62
1,55,89,462
1,55,87,58
1,59,87,254
1,60,86,16
1,60,91,42
1,60,96,266
1,55,75,24
1,57,76,96
1,60,88,10
1,60,95,62
1,55,106,266
1,54,105,430
1,52,84,58
1,59,75,576
1,60,76,24
1,60,87,110
1,62,74,192
1,62,84,152
1,55,81,0
1,55,81,40
1,54,73,16
1,52,80,4
1,55,77,32
1,59,81,0
1,60,77,14
1,60,84,110
1,62,80,10
1,62,79,142
1,55,78,192
1,55,81,112
1,52,81,192
1,59,78,146
1,60,77,194
1,60,78,126
1,62,77,16
1,62,81,152
1,55,78,14
1,55,80,110
1,52,85,56
1,52,83,84
1,52,84,106
1,52,81,96
1,52,81,84
1,52,83,90
1,52,81,106
1,50,81,96
1,50,78,94
1,52,86,192
1,50,71,26
1,52,68,0
1,55,81,96
1,55,80,78
1,52,87,10
1,52,85,0
1,55,82,378
1,59,84,192
1,60,83,10
1,60,89,126
1,62,82,24
1,62,87,148
1,55,82,10
1,55,87,78
1,54,86,24
1,52,81,4
1,55,77,384
1,59,81,8
1,60,81,10
1,60,85,128
1,62,89,10
1,62,89,154
1,55,81,8
1,55,87,96
1,54,82,8
1,52,80,0
1,52,80,26
1,55,77,8
1,59,84,24
1,60,85,16
1,60,85,142
1,62,93,8
1,62,92,170
1,55,91,10
1,50,97,148
1,52,93,30
1,52,91,78
1,52,89,238
1,52,92,232
1,54,102,238
1,55,89,14
1,55,92,48
1,55,90,240
1,55,91,224
1,59,90,206
1,60,89,14
1,60,91,62
1,60,93,232
1,55,73,56
1,57,71,8
1,60,95,100
1,60,95,62
1,55,95,218
1,55,88,110
1,54,77,10
1,52,83,192
1,52,92,78
1,52,90,432
1,52,90,56
1,54,90,254
1,55,82,14
1,55,83,62
1,55,89,462
1,55,87,58
1,59,87,254
1,60,86,16
1,60,91,42
1,60,96,266
1,55,75,24
1,57,76,96
1,60,88,14
1,60,95,66
1,55,106,270
1,54,105,430
1,52,84,58
1,59,75,576
1,60,76,24
1,60,87,110
1,62,74,192
1,62,84,152
1,55,81,0
1,55,81,40
1,54,73,16
1,52,80,0
1,55,77,36
1,59,81,0
1,60,77,18
1,60,84,110
1,62,80,10
1,62,79,142
1,55,78,2
1,55,81,116
1,52,81,192
1,59,78,152
1,60,77,192
1,60,78,128
1,62,77,20
1,62,81,152
1,55,78,14
1,55,80,110
1,52,97,56
1,52,91,90
1,52,85,94
1,52,86,88
1,52,87,90
1,52,89,90
1,52,90,84
1,50,90,82
1,50,92,116
1,52,81,8
1,50,73,24
1,52,73,96
1,55,82,84
1,55,85,72
1,52,91,78
1,52,91,64
1,52,86,224
1,52,86,234
1,52,88,218
1,50,90,94
1,50,91,142
1,52,86,14
1,50,73,384
1,52,73,94
1,55,85,8
1,55,85,58
1,52,87,48
1,52,85,58
1,52,89,234
1,52,88,58
1,52,90,84
1,52,88,248
1,50,93,92
1,50,90,128
1,52,81,20
1,50,81,24
1,52,75,96
1,55,83,80
1,55,87,94
1,52,97,192
1,52,99,78
1,52,91,248
1,52,99,96
1,52,99,106
1,52,83,260
1,54,92,10
1,55,81,4
1,55,92,64
1,55,96,234
1,55,93,122
1,50,81,120
1,52,81,4
1,60,87,96
1,60,96,58
1,60,97,256
1,60,106,184
1,60,103,88
1,55,108,234
2,52,80,1538
2,52,84,98
2,67,87,0
2,64,81,4
2,71,86,0
2,52,83,82
2,67,85,0
2,64,82,0
2,71,83,4
2,52,85,94
2,64,81,0
2,67,84,0
2,71,84,0
2,52,81,84
2,64,84,0
2,71,86,0
2,67,87,4
2,52,82,108
2,64,85,0
2,67,90,0
2,71,87,0
2,52,81,92
2,64,83,0
2,67,88,0
2,71,86,4
2,50,86,94
2,62,90,0
2,69,87,0
2,66,91,0
2,50,81,82
2,66,91,0
2,69,85,0
2,62,93,0
2,52,81,78
2,71,86,0
2,67,89,0
2,64,87,0
2,50,68,14
2,52,73,96
2,55,86,2
2,55,85,66
2,52,81,14
2,52,80,78
2,64,87,0
2,67,92,0
2,71,87,0
2,52,77,76
2,67,86,0
2,64,84,0
2,71,83,0
2,52,76,92
2,67,87,4
2,64,83,0
2,71,84,0
2,52,74,72
2,67,87,0
2,64,85,0
2,71,85,4
2,52,77,82
2,67,88,0
2,64,86,0
2,71,85,0
2,52,80,78
2,67,85,0
2,64,81,0
2,71,85,4
2,50,74,18
2,66,88,0
2,62,86,0
2,69,85,0
2,50,82,94
2,66,87,4
2,62,92,0
2,69,84,0
2,52,76,84
2,64,85,0
2,71,88,0
2,67,87,4
2,50,72,18
2,52,71,96
2,55,79,6
2,55,82,8
2,52,84,8
2,64,71,192
2,67,80,192
2,59,75,2
2,71,80,4
2,60,76,4
2,64,62,192
2,72,77,192
2,60,87,114
2,62,74,18
2,62,58,184
2,66,69,2
2,62,84,192
2,55,81,60
2,67,62,192
2,62,52,0
2,55,81,44
2,71,66,0
2,54,73,24
2,52,80,8
2,64,63,192
2,55,77,40
2,71,67,4
2,67,64,0
2,59,81,8
2,60,77,2
2,64,62,184
2,72,67,192
2,67,64,0
2,60,84,114
2,62,80,2
2,66,59,180
2,69,73,192
2,74,70,4
2,62,79,146
2,55,78,2
2,62,60,192
2,67,70,192
2,55,81,116
2,71,73,0
2,52,81,34
2,64,58,180
2,71,68,192
2,67,65,4
2,59,78,156
2,60,77,4
2,64,61,190
2,72,67,192
2,67,65,4
2,60,78,76
2,64,68,0
2,62,77,12
2,62,61,192
2,69,68,2
2,66,59,0
2,62,81,192
2,55,78,98
2,62,59,192
2,67,73,192
2,55,80,114
2,71,77,0
2,52,85,60
2,64,60,192
2,64,81,6
2,52,83,0
2,67,85,0
2,71,86,2
2,64,77,78
2,52,84,0
2,67,82,0
2,71,86,6
2,67,85,6
2,64,81,0
2,52,81,4
2,71,84,0
2,52,81,88
2,64,84,6
2,71,84,4
2,67,89,0
2,64,83,94
2,52,83,0
2,67,89,0
2,71,83,6
2,64,81,104
2,67,86,0
2,52,81,0
2,64,65,4
2,71,85,0
2,62,87,98
2,66,84,2
2,50,81,0
2,69,83,4
2,62,52,188
2,66,79,88
2,69,83,8
2,62,89,0
2,50,78,4
2,66,70,0
2,52,86,78
2,67,87,4
2,64,81,2
2,71,86,6
2,62,87,30
2,50,71,0
2,64,75,18
2,52,68,4
2,67,90,2
2,55,81,2
2,55,80,60
2,67,90,6
2,52,87,12
2,52,85,4
2,64,90,4
2,64,51,182
2,55,82,12
2,67,77,0
2,64,73,4
2,71,79,0
2,59,84,188
2,60,83,14
2,64,64,156
2,67,76,192
2,72,80,0
2,60,89,130
2,62,82,24
2,66,67,130
2,69,83,192
2,74,85,0
2,62,87,152
2,55,82,14
2,62,67,184
2,55,87,82
2,71,87,0
2,67,81,0
2,54,86,28
2,52,81,12
2,64,59,192
2,55,77,192
2,71,81,0
2,67,77,0
2,59,81,12
2,60,81,14
2,64,55,178
2,72,79,192
2,67,81,0
2,60,85,136
2,62,89,12
2,62,64,188
2,69,73,2
2,66,70,0
2,62,89,192
2,62,80,1
2,55,81,164
2,62,62,192
2,55,87,104
2,71,81,0
2,67,80,0
2,54,82,12
2,52,80,8
2,64,70,192
2,52,80,30
2,55,77,12
2,71,82,4
2,67,73,0
2,59,84,28
2,60,85,20
2,64,69,156
2,67,75,192
2,72,75,0
2,60,85,146
2,62,93,12
2,66,62,146
2,69,81,192
2,74,81,0
2,62,92,178
2,55,91,18
2,62,66,156
2,67,78,192
2,50,97,152
2,52,93,34
2,52,91,82
2,52,89,242
2,52,92,238
2,54,102,242
2,55,89,18
2,55,92,56
2,55,90,248
2,55,91,232
2,59,90,210
2,69,73,0
2,62,73,0
2,67,70,0
2,69,73,50
2,62,74,0
2,67,72,0
2,60,89,18
2,60,91,66
2,60,93,236
2,72,75,0
2,67,77,0
2,64,73,0
2,55,73,6
2,57,71,10
2,60,95,6
2,67,81,0
2,72,78,2
2,64,72,0
2,60,95,66
2,64,74,4
2,72,79,0
2,67,79,0
2,55,95,222
2,67,84,0
2,62,85,0
2,71,81,0
2,55,88,114
2,54,77,14
2,67,77,0
2,62,75,0
2,71,73,0
2,52,83,114
2,52,92,82
2,52,90,440
2,52,90,60
2,54,90,258
2,67,70,0
2,62,73,0
2,71,68,0
2,71,73,50
2,62,74,0
2,67,72,0
2,55,82,18
2,55,83,66
2,55,89,466
2,55,87,62
2,67,81,66
2,62,83,0
2,69,84,0
2,59,87,192
2,60,86,24
2,67,87,0
2,72,82,0
2,64,78,0
2,60,91,46
2,64,77,0
2,67,85,4
2,72,83,0
2,60,96,274
2,72,80,0
2,64,82,0
2,67,87,0
2,55,75,28
2,57,76,18
2,60,88,18
2,64,76,0
2,67,80,0
2,72,83,0
2,60,95,66
2,64,79,4
2,72,81,0
2,67,81,0
2,55,106,274
2,67,81,0
2,71,81,0
2,62,78,0
2,54,105,24
2,52,84,62
2,64,71,192
2,67,80,192
2,59,75,6
2,71,80,0
2,60,76,4
2,64,62,192
2,72,77,192
2,60,87,114
2,62,74,18
2,62,58,184
2,66,69,2
2,62,84,192
2,55,81,60
2,67,62,192
2,62,52,0
2,55,81,44
2,71,66,0
2,54,73,24
2,52,80,8
2,64,63,192
2,55,77,40
2,71,67,0
2,67,64,0
2,59,81,8
2,60,77,2
2,64,62,184
2,72,67,192
2,67,64,0
2,60,84,114
2,62,80,2
2,66,59,180
2,69,73,192
2,74,70,0
2,62,79,146
2,55,78,2
2,62,60,192
2,67,70,192
2,55,81,120
2,71,73,0
2,52,81,34
2,64,58,178
2,71,68,192
2,67,65,0
2,59,78,150
2,60,77,8
2,64,61,190
2,72,67,192
2,67,65,4
2,60,78,76
2,64,68,0
2,62,77,12
2,62,61,192
2,69,68,2
2,66,59,0
2,62,81,192
2,55,78,100
2,62,59,192
2,67,73,192
2,55,80,114
2,71,77,0
2,52,85,60
2,64,60,192
2,67,80,0
2,64,75,6
2,71,81,0
2,67,81,82
2,52,83,4
2,64,77,0
2,71,77,2
2,52,84,72
2,67,81,4
2,64,75,2
2,71,81,4
2,52,81,62
2,67,81,4
2,64,77,6
2,71,83,6
2,52,81,72
2,64,75,4
2,67,79,2
2,71,81,8
2,71,81,72
2,52,83,4
2,64,80,0
2,67,81,2
2,67,77,80
2,71,78,2
2,52,81,0
2,64,65,4
2,64,73,1
2,66,78,78
2,69,82,4
2,62,81,6
2,50,81,0
2,62,52,192
2,66,79,76
2,62,84,4
2,69,87,2
2,50,78,2
2,66,70,0
2,71,81,70
2,64,80,6
2,52,86,0
2,67,81,0
2,50,71,30
2,52,68,4
2,55,81,96
2,55,80,82
2,52,87,14
2,52,85,1
2,64,51,190
2,55,82,180
2,67,77,0
2,64,73,0
2,71,79,0
2,59,84,192
2,60,83,14
2,64,64,156
2,67,76,192
2,72,80,0
2,60,89,130
2,62,82,28
2,66,67,130
2,69,83,192
2,74,85,0
2,62,87,152
2,55,82,14
2,62,67,184
2,55,87,84
2,71,87,0
2,67,81,0
2,54,86,28
2,52,81,12
2,64,59,192
2,55,77,192
2,71,81,0
2,67,77,0
2,59,81,12
2,60,81,14
2,64,55,178
2,72,79,192
2,67,81,0
2,60,85,132
2,62,89,12
2,62,64,188
2,69,73,2
2,66,70,0
2,62,89,192
2,62,80,4
2,55,81,168
2,62,62,192
2,55,87,100
2,71,81,0
2,67,80,0
2,54,82,12
2,52,80,4
2,64,70,192
2,52,80,30
2,55,77,12
2,71,82,0
2,67,73,0
2,59,84,28
2,60,85,20
2,64,69,156
2,67,75,192
2,72,75,0
2,60,85,146
2,62,93,12
2,66,62,146
2,69,81,192
2,74,81,0
2,62,92,174
2,55,91,14
2,62,66,156
2,67,78,192
2,50,97,152
2,52,93,34
2,52,91,82
2,52,89,242
2,52,92,238
2,54,102,242
2,55,89,18
2,55,92,56
2,55,90,244
2,55,91,232
2,59,90,210
2,69,73,0
2,62,73,0
2,67,70,0
2,69,73,50
2,62,74,0
2,67,72,0
2,60,89,18
2,60,91,66
2,60,93,236
2,72,75,0
2,67,77,0
2,64,73,0
2,55,73,2
2,57,71,12
2,60,95,6
2,67,81,0
2,72,78,0
2,64,72,0
2,60,95,70
2,64,74,0
2,72,79,0
2,67,79,0
2,55,95,222
2,67,84,4
2,62,85,0
2,71,81,0
2,55,88,114
2,54,77,14
2,67,77,0
2,62,75,0
2,71,73,0
2,52,83,110
2,52,92,82
2,52,90,440
2,52,90,60
2,54,90,258
2,67,70,0
2,62,73,0
2,71,68,0
2,71,73,50
2,62,74,0
2,67,72,0
2,55,82,18
2,55,83,66
2,55,89,466
2,55,87,62
2,67,81,66
2,62,83,0
2,69,84,0
2,59,87,192
2,60,86,20
2,67,87,0
2,72,82,0
2,64,78,0
2,60,91,50
2,64,77,0
2,67,85,0
2,72,83,0
2,60,96,270
2,72,80,0
2,64,82,0
2,67,87,0
2,55,75,28
2,57,76,18
2,60,88,18
2,64,76,4
2,67,80,0
2,72,83,0
2,60,95,70
2,64,79,0
2,72,81,0
2,67,81,0
2,55,106,274
2,67,81,0
2,71,81,0
2,62,78,0
2,54,105,20
2,52,84,62
2,64,71,192
2,67,80,192
2,59,75,2
2,71,80,4
2,60,76,8
2,64,62,192
2,72,77,192
2,60,87,114
2,62,74,18
2,62,58,180
2,66,69,2
2,62,84,192
2,55,81,60
2,67,62,192
2,62,52,0
2,55,81,44
2,71,66,0
2,54,73,20
2,52,80,4
2,64,63,192
2,55,77,40
2,71,67,0
2,67,64,4
2,59,81,4
2,60,77,6
2,64,62,184
2,72,67,192
2,67,64,0
2,60,84,114
2,62,80,2
2,66,59,178
2,69,73,192
2,74,70,0
2,62,79,148
2,55,78,6
2,62,60,188
2,67,70,192
2,55,81,120
2,71,73,0
2,52,81,34
2,64,58,180
2,71,68,192
2,67,65,0
2,59,78,156
2,60,77,4
2,64,61,190
2,72,67,192
2,67,65,0
2,60,78,76
2,64,68,0
2,62,77,12
2,62,61,192
2,69,68,2
2,66,59,0
2,62,81,192
