track,note,velocity,time
1,57,64,583
1,62,64,127
1,57,0,21
1,66,64,105
1,62,0,13
1,67,64,97
1,66,0,17
1,66,64,101
1,67,0,12
1,62,64,113
1,66,0,10
1,59,64,116
1,62,0,5
1,57,64,125
1,59,0,13
1,57,0,953
1,57,64,96
1,62,64,129
1,57,0,13
1,66,64,105
1,62,0,18
1,67,64,105
1,66,0,8
1,66,64,104
1,67,0,13
1,62,64,112
1,66,0,12
1,59,64,110
1,62,0,7
1,57,64,117
1,59,0,15
1,57,0,973
1,57,64,91
1,62,64,123
1,57,0,3
1,66,64,110
1,62,0,11
1,67,64,107
1,66,0,6
1,66,64,112
1,67,0,7
1,62,64,110
1,66,0,10
1,59,64,110
1,62,0,2
1,57,64,123
1,59,0,7
1,57,0,963
1,57,64,101
1,62,64,129
1,57,0,6
1,66,64,111
1,62,0,5
1,67,64,120
1,66,0,8
1,66,64,115
1,67,0,8
1,66,0,110
1,62,64,2
1,59,64,120
1,62,0,4
1,57,64,126
1,59,0,6
1,62,64,6
1,57,0,813
1,62,0,170
1,62,64,36088
1,65,64,383
1,69,64,342
1,74,64,126
1,69,0,22
1,69,64,355
1,74,0,16
1,69,0,82
1,69,64,367
1,74,64,118
1,69,0,8
1,70,64,470
1,74,0,10
1,72,64,358
1,70,0,7
1,74,64,108
1,72,0,7
1,70,64,482
1,74,0,6
1,72,64,463
1,74,64,7
1,70,0,2
1,72,0,11
1,70,64,464
1,74,0,8
1,69,64,460
1,62,0,4
1,70,0,2
1,65,0,487
1,73,64,1
1,69,64,4
1,57,64,5
1,73,0,481
1,77,64,2
1,74,64,2
1,57,0,2
1,69,0,416
1,70,64,51
1,69,0,6
1,58,64,11
1,70,0,453
1,69,64,6
1,58,0,4
1,57,64,3
1,69,0,435
1,70,64,47
1,58,64,4
1,57,0,8
1,70,0,466
1,69,64,2
1,57,64,3
1,58,0,8
1,69,0,426
1,70,64,46
1,58,64,4
1,57,0,8
1,53,64,454
1,58,0,6
1,74,0,3
1,70,0,2
1,77,0,7
1,65,64,101
1,69,64,121
1,65,0,246
1,53,0,0
1,57,64,0
1,69,0,2
1,69,64,110
1,73,64,121
1,62,64,242
1,74,64,0
1,50,64,4
1,57,0,4
1,73,0,5
1,69,0,5
1,50,0,940
1,76,64,0
1,72,64,5
1,60,64,2
1,62,0,11
1,74,0,0
1,79,64,463
1,74,64,483
1,62,64,2
1,72,0,10
1,79,0,5
1,60,0,0
1,76,0,0
1,50,64,224
1,62,0,658
1,72,64,59
1,60,64,2
1,50,0,5
1,74,0,7
1,48,64,233
1,48,0,636
1,60,0,16
1,62,64,59
1,74,64,1
1,50,64,4
1,72,0,12
1,62,0,854
1,50,0,2
1,72,64,85
1,60,64,3
1,48,64,2
1,74,0,8
1,48,0,941
1,50,64,11
1,74,64,0
1,60,0,15
1,72,0,0
1,72,64,945
1,60,64,4
1,50,0,3
1,48,64,4
1,74,0,3
1,48,0,932
1,50,64,14
1,74,64,3
1,60,0,7
1,72,0,3
1,72,64,950
1,60,64,3
1,48,64,2
1,50,0,4
1,74,0,3
1,50,64,941
1,74,64,4
1,48,0,2
1,60,0,5
1,72,0,5
1,48,64,937
1,72,64,6
1,60,64,0
1,50,0,5
1,74,0,10
1,60,0,951
1,48,0,4
1,72,0,1
1,72,64,6703
1,48,64,9
1,74,64,957
1,50,64,9
1,48,0,1
1,72,0,0
1,72,64,956
1,48,64,4
1,74,0,2
1,50,0,7
1,74,64,944
1,48,0,5
1,72,0,2
1,50,64,0
1,72,64,952
1,74,0,5
1,48,64,0
1,50,0,8
1,74,64,944
1,50,64,4
1,48,0,2
1,72,0,2
1,72,64,957
1,48,64,3
1,74,0,9
1,50,0,0
1,74,64,930
1,50,64,17
1,72,0,2
1,48,0,0
1,74,0,837
1,50,0,8
1,69,64,1189
1,74,64,103
1,69,0,14
1,78,64,106
1,74,0,13
1,79,64,121
1,78,0,11
1,78,64,108
1,79,0,11
1,74,64,110
1,78,0,12
1,71,64,110
1,74,0,6
1,69,64,112
1,71,0,14
1,69,0,1054
1,69,64,10
1,74,64,121
1,69,0,12
1,78,64,108
1,74,0,5
1,79,64,124
1,78,0,6
1,78,64,110
1,79,0,5
1,74,64,114
1,78,0,9
1,71,64,111
1,74,0,6
1,69,64,107
1,71,0,18
1,69,0,1057
1,69,64,13
1,74,64,115
1,69,0,17
1,78,64,111
1,74,0,18
1,79,64,97
1,78,0,12
1,78,64,117
1,79,0,12
1,74,64,99
1,78,0,12
1,71,64,117
1,74,0,7
1,69,64,109
1,71,0,15
1,74,64,1179
1,69,0,22
1,78,64,96
1,74,0,14
1,79,64,108
1,78,0,9
1,78,64,106
1,79,0,8
1,74,64,120
1,78,0,16
1,71,64,106
1,74,0,9
1,69,64,109
1,71,0,13
1,69,0,1049
1,69,64,8
1,74,64,118
1,69,0,17
1,78,64,106
1,74,0,12
1,79,64,115
1,78,0,12
1,78,64,110
1,79,0,7
1,74,64,114
1,78,0,11
1,71,64,109
1,74,0,10
1,69,64,101
1,71,0,16
1,69,0,1056
1,69,64,6
1,74,64,124
1,69,0,13
1,78,64,99
1,74,0,18
1,79,64,111
1,78,0,15
1,78,64,104
1,79,0,7
1,74,64,114
1,78,0,11
1,71,64,122
1,74,0,8
1,69,64,103
1,71,0,16
1,69,0,1040
1,69,64,8
1,74,64,137
1,69,0,13
1,78,64,112
1,74,0,14
1,79,64,102
1,78,0,11
1,78,64,110
1,79,0,11
1,74,64,111
1,78,0,9
1,71,64,114
1,74,0,9
1,69,64,102
1,71,0,18
1,74,64,1188
1,69,0,20
1,78,64,104
1,74,0,19
1,79,64,96
1,78,0,11
1,78,64,109
1,79,0,11
1,74,64,113
1,78,0,6
1,71,64,112
1,74,0,10
1,69,64,100
1,71,0,16
1,69,0,1036
1,69,64,30
1,74,64,125
1,69,0,11
1,78,64,114
1,74,0,12
1,79,64,99
1,78,0,11
1,78,64,108
1,79,0,13
1,74,64,108
1,78,0,11
1,71,64,111
1,74,0,7
1,69,64,105
1,71,0,21
1,69,0,653
2,50,64,591
2,55,64,362
2,50,0,9
2,55,0,323
2,59,64,35
2,59,0,80
2,57,64,33
2,57,0,491
2,50,64,586
2,55,64,361
2,50,0,12
2,59,64,353
2,55,0,8
2,59,0,113
2,57,64,0
2,57,0,853
2,50,64,232
2,55,64,360
2,50,0,6
2,59,64,355
2,55,0,7
2,57,64,106
2,59,0,7
2,57,0,852
2,50,64,105
2,55,64,476
2,50,0,9
2,55,0,373
2,59,64,5
2,57,64,96
2,59,0,6
2,50,64,255
2,57,0,459
2,50,0,172
2,50,64,36102
2,50,0,170
2,50,64,11
2,50,0,40
2,50,64,22
2,52,64,528
2,50,0,18
2,53,64,92
2,52,0,14
2,50,64,59
2,53,0,8
2,50,0,456
2,50,64,15
2,52,64,359
2,50,0,17
2,53,64,43
2,52,0,15
2,50,64,47
2,53,0,11
2,50,0,221
2,50,64,11
2,48,64,115
2,50,0,10
2,46,64,109
2,48,0,11
2,46,0,211
2,46,64,17
2,48,64,122
2,46,0,9
2,50,64,112
2,48,0,9
2,50,0,161
2,50,64,14
2,50,0,33
2,50,64,31
2,50,0,114
2,48,64,0
2,46,64,117
2,48,0,12
2,46,0,150
2,46,64,21
2,46,0,26
2,46,64,29
2,48,64,127
2,46,0,4
2,50,64,115
2,48,0,10
2,50,0,153
2,50,64,17
2,50,0,30
2,50,64,26
2,48,64,123
2,50,0,2
2,46,64,119
2,48,0,14
2,46,0,141
2,46,64,16
2,46,0,35
2,46,64,25
2,46,0,107
2,46,64,24
2,48,64,56
2,46,0,13
2,41,64,53
2,48,0,1
2,41,0,171
2,41,64,9
2,41,0,38
2,41,64,17
2,41,0,115
2,41,64,11
2,41,0,48
2,41,64,15
2,43,64,28
2,41,0,8
2,45,64,9
2,43,0,7
2,45,0,151
2,45,64,18
2,45,0,34
2,45,64,31
2,48,64,219
2,45,0,20
2,50,64,0
2,48,0,10
2,48,64,356
2,50,0,4
2,46,64,113
2,48,0,11
2,46,0,159
2,46,64,13
2,46,0,39
2,46,64,21
2,46,0,106
2,46,64,18
2,48,64,57
2,46,0,12
2,50,64,48
2,48,0,9
2,50,0,220
2,50,64,7
2,48,64,124
2,50,0,5
2,46,64,122
2,48,0,12
2,46,0,151
2,46,64,11
2,46,0,39
2,46,64,17
2,48,64,186
2,46,0,6
2,50,64,50
2,48,0,12
2,50,0,162
2,50,64,9
2,50,0,38
2,50,64,15
2,48,64,123
2,50,0,2
2,46,64,122
2,48,0,10
2,46,0,145
2,46,64,16
2,46,0,35
2,46,64,22
2,46,0,105
2,46,64,19
2,48,64,63
2,46,0,15
2,41,64,44
2,48,0,4
2,41,0,407
2,41,64,13
2,43,64,28
2,41,0,4
2,45,64,20
2,43,0,5
2,50,64,479
2,45,0,19
2,52,64,940
2,50,0,14
2,54,64,945
2,52,0,19
2,52,64,942
2,54,0,10
2,50,64,945
2,52,0,10
2,48,64,957
2,52,64,2
2,50,0,13
2,50,64,931
2,52,0,13
2,48,0,0
2,48,64,957
2,52,64,0
2,50,0,13
2,50,64,946
2,52,0,11
2,48,0,8
2,48,64,946
2,52,64,1
2,50,0,12
2,50,64,948
2,48,0,9
2,52,0,5
2,52,64,939
2,48,64,4
2,50,0,14
2,52,0,944
2,48,0,12
2,48,64,6700
2,50,64,969
2,54,64,0
2,48,0,13
2,50,0,941
2,52,64,0
2,48,64,1
2,54,0,2
2,52,0,960
2,54,64,2
2,50,64,0
2,48,0,14
2,52,64,949
2,48,64,3
2,54,0,1
2,50,0,1
2,50,64,954
2,48,0,4
2,52,0,2
2,48,64,942
2,50,0,14
2,50,64,956
2,48,0,14
2,50,0,907
2,50,64,1009
2,52,64,954
2,50,0,14
2,52,0,900
2,50,64,43
2,54,64,0
2,54,0,960
2,52,64,0
2,55,64,0
2,50,0,13
2,54,64,946
2,50,64,3
2,55,0,1
2,52,0,7
2,52,64,949
2,55,64,0
2,50,0,11
2,54,0,1
2,50,64,942
2,55,0,7
2,52,0,3
2,52,64,949
2,50,0,16
2,50,64,951
2,54,64,3
2,52,0,10
2,55,64,940
2,52,64,0
2,54,0,6
2,50,0,10
2,50,64,956
2,54,64,0
2,55,0,7
2,52,0,6
2,55,64,933
2,52,64,6
2,54,0,4
2,50,0,11
2,50,64,952
2,54,64,0
2,55,0,3
2,52,0,7
2,55,64,947
2,52,64,1
2,54,0,5
2,50,0,6
2,50,64,947
2,54,64,2
2,55,0,9
2,52,0,0
2,55,64,952
2,52,64,4
2,54,0,6
2,50,0,5
2,55,0,949
2,54,64,0
2,50,64,0
2,52,0,7
2,55,64,944
2,52,64,4
2,54,0,11
2,50,0,3
2,50,64,940
2,54,64,0
2,52,0,7
2,55,0,3
2,50,0,611
2,54,0,0
3,69,64,595
3,74,64,108
3,69,0,18
3,78,64,102
3,74,0,16
3,79,64,108
3,78,0,14
3,78,64,109
3,79,0,8
3,74,64,118
3,78,0,6
3,74,0,121
3,71,64,0
3,69,64,122
3,71,0,7
3,69,0,935
3,69,64,122
3,74,64,129
3,69,0,12
3,78,64,103
3,74,0,14
3,79,64,117
3,78,0,6
3,78,64,102
3,79,0,7
3,74,64,115
3,78,0,5
3,71,64,121
3,74,0,6
3,69,64,121
3,71,0,22
3,69,0,853
3,69,64,204
3,74,64,118
3,69,0,8
3,78,64,106
3,74,0,7
3,79,64,117
3,78,0,9
3,78,64,107
3,79,0,5
3,74,64,115
3,78,0,4
3,71,64,116
3,74,0,6
3,69,64,122
3,71,0,14
3,69,0,958
3,69,64,100
3,69,0,109
3,74,64,3
3,78,64,125
3,74,0,6
3,79,64,112
3,78,0,3
3,78,64,116
3,79,0,5
3,79,64,115
3,78,0,6
3,83,64,127
3,79,0,7
3,81,64,117
3,83,0,4
3,81,0,574
3,50,64,36407
3,62,64,245
3,50,0,15
3,74,64,449
3,62,0,25
3,62,64,97
3,74,0,16
3,50,64,100
3,62,0,3
3,62,64,418
3,50,0,31
3,74,64,33
3,62,0,18
3,62,64,93
3,74,0,119
3,50,64,1
3,62,0,9
3,62,64,124
3,74,64,117
3,62,0,6
3,50,0,49
3,62,64,4
3,74,0,46
3,50,64,17
3,62,0,10
3,62,64,42
3,74,64,62
3,62,0,14
3,62,64,51
3,50,0,21
3,74,0,4
3,50,64,35
3,62,0,18
3,62,64,41
3,50,0,11
3,58,64,47
3,62,0,8
3,62,64,58
3,65,64,59
3,62,0,13
3,62,64,45
3,65,0,5
3,58,0,3
3,58,64,51
3,62,0,11
3,62,64,53
3,65,64,54
3,58,0,14
3,62,0,1
3,62,64,41
3,65,0,27
3,74,64,34
3,62,0,7
3,62,64,116
3,74,0,12
3,50,64,102
3,62,0,14
3,62,64,117
3,50,0,29
3,74,64,30
3,62,0,61
3,58,64,0
3,74,0,8
3,62,64,53
3,65,64,58
3,62,0,9
3,62,64,50
3,65,0,1
3,58,0,16
3,58,64,45
3,62,0,9
3,62,64,53
3,65,64,54
3,58,0,11
3,62,0,5
3,62,64,39
3,50,64,56
3,65,0,18
3,74,64,6
3,62,0,3
3,72,64,0
3,72,0,7
3,50,0,8
3,62,64,96
3,74,0,15
3,50,64,99
3,62,0,13
3,62,64,49
3,74,64,59
3,50,0,22
3,62,0,19
3,62,64,19
3,58,64,59
3,74,0,1
3,62,0,9
3,65,64,47
3,62,64,69
3,65,0,3
3,58,0,2
3,58,64,50
3,62,0,10
3,65,64,49
3,62,64,70
3,65,0,6
3,65,64,44
3,62,0,14
3,58,0,6
3,62,64,36
3,65,0,23
3,53,64,41
3,62,0,3
3,57,64,52
3,60,64,61
3,57,0,16
3,53,0,12
3,53,64,37
3,60,0,12
3,57,64,44
3,60,64,62
3,57,0,12
3,53,0,13
3,53,64,34
3,57,64,27
3,60,0,3
3,60,64,41
3,53,0,2
3,57,0,12
3,57,64,44
3,60,0,1
3,61,64,50
3,64,64,54
3,61,0,14
3,69,64,100
3,64,0,12
3,64,64,117
3,69,0,12
3,57,0,101
3,64,0,4
3,62,64,15
3,65,64,110
3,69,64,117
3,62,0,12
3,65,0,1
3,65,64,110
3,69,0,22
3,62,64,38
3,65,0,13
3,58,64,46
3,62,0,9
3,62,64,118
3,65,64,115
3,62,0,7
3,58,0,9
3,62,64,110
3,65,0,2
3,62,0,103
3,62,64,12
3,65,64,111
3,62,0,16
3,65,0,108
3,69,64,1
3,65,64,126
3,69,0,12
3,62,64,50
3,65,0,7
3,58,64,56
3,62,0,7
3,62,64,106
3,65,64,112
3,58,0,7
3,62,0,3
3,62,64,117
3,65,0,6
3,65,64,50
3,62,0,24
3,58,64,33
3,65,0,6
3,62,64,58
3,58,0,3
3,65,64,57
3,62,0,16
3,62,64,45
3,65,0,19
3,69,64,38
3,62,0,22
3,65,64,42
3,69,0,15
3,62,64,47
3,65,0,9
3,65,64,51
3,62,0,47
3,58,64,13
3,65,0,2
3,62,64,58
3,65,64,57
3,62,0,9
3,62,64,50
3,65,0,8
3,65,64,55
3,62,0,13
3,62,64,42
3,65,0,8
3,65,64,57
3,62,0,11
3,62,64,47
3,58,0,10
3,62,0,51
3,65,0,0
3,53,64,2
3,57,64,112
3,60,64,128
3,53,0,156
3,60,0,82
3,57,0,2
3,57,64,8
3,61,64,110
3,64,64,110
3,61,0,11
3,62,64,228
3,57,0,4
3,64,0,1
3,64,64,963
3,62,0,12
3,66,64,943
3,64,0,15
3,67,64,1000
3,66,0,8
3,67,0,812
3,57,64,1161
3,62,64,116
3,57,0,14
3,66,64,113
3,62,0,10
3,67,64,116
3,66,0,8
3,66,64,107
3,67,0,13
3,62,64,106
3,66,0,15
3,59,64,109
3,62,0,5
3,57,64,115
3,59,0,6
3,57,0,491
3,69,64,589
3,74,64,107
3,69,0,12
3,78,64,114
3,74,0,11
3,79,64,110
3,78,0,10
3,78,64,110
3,79,0,13
3,74,64,93
3,78,0,12
3,71,64,118
3,74,0,5
3,69,64,109
3,71,0,13
3,69,0,624
3,69,64,460
3,74,64,114
