track,note,velocity,time
1,70,120,33162
1,70,0,390
1,70,116,119
1,70,0,452
1,67,119,240
1,67,0,452
1,65,119,221
1,65,0,510
1,63,117,197
1,63,0,18
1,63,115,26
1,63,0,26
1,70,120,1169
1,70,0,543
1,70,120,146
1,67,113,268
1,70,0,103
1,70,116,261
1,67,0,21
1,67,111,319
1,70,0,15
1,70,116,367
1,67,0,1
1,70,0,393
1,70,120,378
1,65,116,1181
1,70,0,49
1,63,96,11
1,65,0,73
1,60,111,235
1,63,0,50
1,60,0,390
1,70,120,773
1,70,0,197
1,70,117,68
1,70,0,260
1,70,120,152
1,67,122,94
1,70,0,10
1,67,0,266
1,70,120,201
1,70,0,338
1,70,116,28
1,70,0,514
1,65,119,128
1,65,0,171
1,65,121,24
1,65,0,400
1,65,119,234
1,65,0,512
1,65,122,189
1,63,109,297
1,65,0,83
1,63,0,214
1,65,119,16
1,60,116,24
1,65,0,8
1,60,0,315
1,60,116,9
1,60,0,1490
1,70,116,1699
1,70,0,247
1,70,116,32
1,67,114,479
1,70,0,13
1,70,117,220
1,67,0,110
1,70,0,218
1,70,113,141
1,70,0,402
1,70,120,340
1,70,0,411
1,70,120,291
1,67,78,376
1,70,0,57
1,67,0,149
1,67,111,1616
1,70,116,189
1,67,0,87
1,70,0,405
1,70,120,244
1,67,103,510
1,70,0,15
1,70,117,178
1,67,0,117
1,70,0,243
1,70,110,114
1,67,125,261
1,70,0,103
1,67,0,296
1,70,120,61
1,70,0,3
1,70,121,1284
1,70,0,491
1,70,116,248
1,67,119,253
1,70,0,36
1,67,0,331
1,70,116,41
1,70,0,586
1,70,109,152
1,70,0,446
1,70,120,274
1,70,0,376
1,70,120,342
1,67,113,285
1,70,0,34
1,67,0,338
1,70,116,87
1,70,0,491
1,70,120,206
1,70,0,294
1,70,120,492
1,70,0,664
1,70,115,7
1,70,0,216
1,70,115,24
1,67,102,500
1,70,0,3
1,70,120,209
1,67,0,94
1,67,116,430
1,70,0,14
1,70,116,254
1,67,0,81
1,70,0,189
1,70,121,108
1,70,0,1041
1,65,115,41
1,63,102,106
1,65,0,54
1,60,96,183
1,63,0,36
1,60,0,382
1,77,109,27796
1,74,107,0
1,74,0,302
1,77,0,30
1,74,109,263
1,70,96,19
1,69,102,412
1,70,0,17
1,72,102,232
1,67,93,7
1,74,0,22
1,69,0,4
1,72,0,431
1,67,0,3
1,77,109,2708
1,74,107,0
1,74,0,302
1,77,0,30
1,74,109,263
1,70,96,19
1,69,102,412
1,70,0,17
1,72,102,232
1,67,93,7
1,74,0,22
1,69,0,4
1,72,0,431
1,67,0,3
1,77,109,2708
1,74,107,0
1,74,0,302
1,77,0,30
1,74,109,263
1,70,96,19
1,69,102,412
1,70,0,17
1,72,102,232
1,67,93,7
1,74,0,22
1,69,0,4
1,72,0,431
1,67,0,3
1,77,109,2708
1,74,107,0
1,74,0,302
1,77,0,30
1,74,109,263
1,70,96,19
1,69,102,412
1,70,0,17
1,72,102,232
1,67,93,7
1,74,0,22
1,69,0,4
1,72,0,431
1,67,0,3
1,77,109,2708
1,74,107,0
1,74,0,302
1,77,0,30
1,74,109,263
1,70,96,19
1,69,102,412
1,70,0,17
1,72,102,232
1,67,93,7
1,74,0,22
1,69,0,4
1,72,0,431
1,67,0,3
1,77,109,2708
1,74,107,0
1,74,0,302
1,77,0,30
1,74,109,263
1,70,96,19
1,69,102,412
1,70,0,17
1,72,102,232
1,67,93,7
1,74,0,22
1,69,0,4
1,72,0,431
1,67,0,3
1,77,109,2708
1,74,107,0
1,74,0,302
1,77,0,30
1,74,109,263
1,70,96,19
1,69,102,412
1,70,0,17
1,72,102,232
1,67,93,7
1,74,0,22
1,69,0,4
1,72,0,431
1,67,0,3
1,58,100,8191
1,60,117,246
1,58,0,128
1,60,0,338
1,60,98,20
1,60,0,227
1,63,118,79
1,63,0,374
1,63,90,53
1,63,0,207
1,65,120,90
1,65,0,204
1,65,118,32
1,63,120,112
1,65,0,84
1,65,115,5
1,63,0,4
1,65,0,437
1,58,100,5804
1,60,117,246
1,58,0,128
1,60,0,338
1,60,98,20
1,60,0,227
1,63,118,79
1,63,0,374
1,63,93,53
1,63,0,207
1,65,120,90
1,65,0,204
1,65,118,32
1,63,120,112
1,65,0,84
1,65,115,5
1,63,0,4
1,65,0,437
1,60,100,5804
1,63,117,246
1,60,0,128
1,63,0,338
1,63,98,20
1,63,0,227
1,67,118,79
1,67,0,374
1,67,93,53
1,67,0,207
1,69,120,90
1,69,0,204
1,69,118,32
1,67,120,112
1,69,0,84
1,69,115,5
1,67,0,4
1,69,0,437
1,63,117,290
1,63,0,466
1,63,98,20
1,63,0,227
1,67,118,79
1,67,0,374
1,67,93,53
1,67,0,207
1,69,120,90
1,69,0,204
1,69,118,32
1,67,120,112
1,69,0,84
1,69,115,5
1,67,0,4
1,69,0,437
1,63,117,290
1,63,0,466
1,63,98,20
1,63,0,227
1,67,118,79
1,67,0,374
1,67,93,53
1,67,0,207
1,73,101,76
1,69,120,14
1,73,0,130
1,69,0,74
1,69,118,32
1,73,105,13
1,72,101,14
1,73,0,28
1,70,85,54
1,67,120,30
1,69,0,84
1,72,0,23
1,72,97,14
1,70,0,23
1,69,115,5
1,67,0,4
1,72,0,414
1,69,0,23
1,63,117,290
1,63,0,466
1,63,98,20
1,63,0,227
1,67,118,79
1,67,0,374
1,67,93,53
1,67,0,207
1,73,101,76
1,69,120,14
1,73,0,130
1,69,0,74
1,69,118,32
1,73,105,13
1,69,0,101
1,73,0,14
1,77,109,118448
1,74,107,0
1,74,0,302
1,77,0,30
1,74,109,263
1,70,96,19
1,69,102,412
1,70,0,17
1,72,102,232
1,67,93,7
1,74,0,22
1,69,0,4
1,72,0,431
1,67,0,3
1,77,109,2708
1,74,107,0
1,74,0,302
1,77,0,30
1,74,109,263
1,70,96,19
1,69,102,412
1,70,0,17
1,72,102,232
1,67,93,7
1,74,0,22
1,69,0,4
1,72,0,431
1,67,0,3
1,77,109,2708
1,74,107,0
1,74,0,302
1,77,0,30
1,74,109,263
1,70,96,19
1,69,102,412
1,70,0,17
1,72,102,232
1,67,93,7
1,74,0,22
1,69,0,4
1,72,0,431
1,67,0,3
1,77,109,2708
1,74,107,0
1,74,0,302
1,77,0,30
1,74,109,263
1,70,96,19
1,69,102,412
1,70,0,17
1,72,102,232
1,67,93,7
1,74,0,22
1,69,0,4
1,74,109,273
1,72,0,18
1,70,96,1
1,67,0,2
1,69,102,432
1,70,0,6
1,72,102,252
1,67,93,7
1,74,0,22
1,69,0,4
1,74,109,273
1,72,0,18
1,70,96,1
1,67,0,2
1,69,102,432
1,70,0,6
1,72,102,252
1,67,93,7
1,74,0,22
1,69,0,4
1,76,95,262
1,72,94,0
1,72,0,29
1,67,0,3
1,72,0,334
1,76,0,30
1,74,109,1055
1,70,96,19
1,69,102,412
1,70,0,17
1,72,102,232
1,67,93,7
1,74,0,22
1,69,0,4
1,74,109,273
1,72,0,18
1,70,96,1
1,67,0,2
1,69,102,432
1,70,0,6
1,72,102,252
1,67,93,7
1,74,0,22
1,69,0,4
1,74,109,273
1,72,0,18
1,70,96,1
1,67,0,2
1,69,102,432
1,70,0,6
1,72,102,252
1,67,93,7
1,74,0,22
1,69,0,4
1,76,95,262
1,72,94,0
1,72,0,29
1,67,0,3
1,72,0,334
1,76,0,30
1,74,109,1055
1,70,96,19
1,69,102,412
1,70,0,17
1,72,102,232
1,67,93,7
1,74,0,22
1,69,0,4
1,74,109,273
1,72,0,18
1,70,96,1
1,67,0,2
1,69,102,432
1,70,0,6
1,72,102,252
1,67,93,7
1,74,0,22
1,69,0,4
1,74,109,273
1,72,0,18
1,70,96,1
1,67,0,2
1,69,102,432
1,70,0,6
1,72,102,252
1,67,93,7
1,74,0,22
1,69,0,4
1,76,95,262
1,72,94,0
1,72,0,29
1,67,0,3
1,72,0,334
1,76,0,30
1,74,109,1055
1,70,96,19
1,69,102,412
1,70,0,17
1,72,102,232
1,67,93,7
1,74,0,22
1,69,0,4
1,74,109,273
1,72,0,18
1,70,96,1
1,67,0,2
1,69,102,432
1,70,0,6
1,72,102,252
1,67,93,7
1,74,0,22
1,69,0,4
1,74,109,273
1,72,0,18
1,70,96,1
1,67,0,2
1,69,102,432
1,70,0,6
1,72,102,252
1,67,93,7
1,74,0,22
1,69,0,4
1,76,95,262
1,72,94,0
1,72,0,29
1,67,0,3
1,72,0,334
1,76,0,30
1,74,109,1055
1,70,96,19
1,69,102,412
1,70,0,17
1,72,102,232
1,67,93,7
1,74,0,22
1,69,0,4
1,74,109,273
1,72,0,18
1,70,96,1
1,67,0,2
1,69,102,432
1,70,0,6
1,72,102,252
1,67,93,7
1,74,0,22
1,69,0,4
1,74,109,273
1,72,0,18
1,70,96,1
1,67,0,2
1,69,102,432
1,70,0,6
1,72,102,252
1,67,93,7
1,74,0,22
1,69,0,4
1,76,95,262
1,72,94,0
1,72,0,29
1,67,0,3
1,72,0,334
1,76,0,30
1,74,109,1055
1,70,96,19
1,69,102,412
1,70,0,17
1,72,102,232
1,67,93,7
1,74,0,22
1,69,0,4
1,74,109,273
1,72,0,18
1,70,96,1
1,67,0,2
1,69,102,432
1,70,0,6
1,72,102,252
1,67,93,7
1,74,0,22
1,69,0,4
1,74,109,273
1,72,0,18
1,70,96,1
1,67,0,2
1,69,102,432
1,70,0,6
1,72,102,252
1,67,93,7
1,74,0,22
1,69,0,4
1,76,95,262
1,72,94,0
1,72,0,29
1,67,0,3
1,72,0,334
1,76,0,30
1,74,109,1055
1,70,96,19
1,69,102,412
1,70,0,17
1,72,102,232
1,67,93,7
1,74,0,22
1,69,0,4
1,74,109,273
1,72,0,18
1,70,96,1
1,67,0,2
1,69,102,432
1,70,0,6
1,72,102,252
1,67,93,7
1,74,0,22
1,69,0,4
1,74,109,273
1,72,0,18
1,70,96,1
1,67,0,2
1,69,102,432
1,70,0,6
1,72,102,252
1,67,93,7
1,74,0,22
1,69,0,4
1,76,95,262
1,72,94,0
1,72,0,29
1,67,0,3
1,72,0,334
1,76,0,30
1,74,109,1055
1,70,96,19
1,69,102,412
1,70,0,17
1,72,102,232
1,67,93,7
1,74,0,22
1,69,0,4
1,74,109,273
1,72,0,18
1,70,96,1
1,67,0,2
1,69,102,432
1,70,0,6
1,72,102,252
1,67,93,7
1,74,0,22
1,69,0,4
1,74,109,273
1,72,0,18
1,70,96,1
1,67,0,2
1,69,102,432
1,70,0,6
1,72,102,252
1,67,93,7
1,74,0,22
1,69,0,4
1,76,95,262
1,72,94,0
1,72,0,29
1,67,0,3
1,72,0,334
1,76,0,30
1,74,109,1055
1,70,96,19
1,69,102,412
1,70,0,17
1,72,102,232
1,67,93,7
1,74,0,22
1,69,0,4
1,74,109,273
1,72,0,18
1,70,96,1
1,67,0,2
1,69,102,432
1,70,0,6
1,72,102,252
1,67,93,7
1,74,0,22
1,69,0,4
1,74,109,273
1,72,0,18
1,70,96,1
1,67,0,2
1,69,102,432
1,70,0,6
1,72,102,252
1,67,93,7
1,74,0,22
1,69,0,4
1,76,95,262
1,72,94,0
1,72,0,29
1,67,0,3
1,72,0,334
1,76,0,30
1,74,109,1055
1,70,96,19
1,69,102,412
1,70,0,17
1,72,102,232
1,67,93,7
1,74,0,22
1,69,0,4
1,74,109,273
1,72,0,18
1,70,96,1
1,67,0,2
1,69,102,432
1,70,0,6
1,72,102,252
1,67,93,7
1,74,0,22
1,69,0,4
1,74,109,273
1,72,0,18
1,70,96,1
1,67,0,2
1,69,102,432
1,70,0,6
1,72,102,252
1,67,93,7
1,74,0,22
1,69,0,4
1,76,95,262
1,72,94,0
1,72,0,29
1,67,0,3
1,72,0,334
1,76,0,30
2,36,126,1480
2,24,52,0
2,31,105,496
2,24,0,9
2,36,0,0
2,36,108,183
2,24,45,0
2,31,0,55
2,24,0,470
2,36,0,0
2,31,103,39
2,36,100,124
2,24,42,0
2,31,0,108
2,24,0,431
2,36,0,0
2,31,97,26
2,36,100,144
2,24,42,0
2,31,0,94
2,31,95,482
2,24,0,11
2,36,0,0
2,36,108,160
2,24,45,0
2,31,0,45
2,31,99,508
2,24,0,32
2,36,0,0
2,36,96,137
2,24,39,0
2,31,0,52
2,24,0,506
2,36,0,0
2,31,92,4
2,36,106,147
2,24,44,0
2,31,0,72
2,31,97,489
2,24,0,10
2,36,0,0
2,36,100,152
2,24,42,0
2,31,0,59
2,24,0,505
2,36,0,0
2,31,88,11
2,36,106,178
2,24,44,0
2,31,0,43
2,31,93,497
2,24,0,38
2,36,0,0
2,36,84,111
2,24,35,0
2,31,0,71
2,24,0,457
2,36,0,0
2,31,91,35
2,36,106,150
2,24,44,0
2,31,0,83
2,24,0,455
2,36,0,0
2,31,93,49
2,36,97,140
2,24,41,0
2,31,0,115
2,24,0,438
2,36,0,0
2,31,95,53
2,36,109,70
2,24,45,0
2,31,0,188
2,31,97,354
2,24,0,39
2,36,0,0
2,31,0,183
2,33,117,30
2,31,85,495
2,33,0,54
2,34,120,138
2,31,0,6
2,33,97,512
2,34,0,75
2,35,110,70
2,33,0,36
2,34,110,546
2,35,0,48
2,34,0,120
2,36,117,13
2,24,49,0
2,31,95,560
2,24,0,6
2,36,0,0
2,36,108,150
2,24,45,0
2,31,0,59
2,24,0,478
2,36,0,0
2,31,95,46
2,36,113,128
2,24,47,0
2,31,0,92
2,31,97,504
2,24,0,32
2,36,0,0
2,36,109,127
2,24,45,0
2,31,0,56
2,31,93,496
2,24,0,5
2,36,0,0
2,36,110,150
2,24,46,0
2,31,0,59
2,31,90,514
2,24,0,10
2,36,0,0
2,36,100,142
2,24,42,0
2,31,0,56
2,24,0,495
2,36,0,0
2,31,88,20
2,36,108,148
2,24,45,0
2,31,0,76
2,24,0,464
2,36,0,0
2,31,92,47
2,36,110,118
2,24,46,0
2,31,0,101
2,31,93,479
2,24,0,4
2,36,0,0
2,36,109,138
2,24,45,0
2,31,0,74
2,31,89,499
2,24,0,6
2,36,0,0
2,36,110,154
2,24,46,0
2,31,0,51
2,24,0,506
2,36,0,0
2,31,92,11
2,36,108,153
2,24,45,0
2,31,0,55
2,24,0,471
2,36,0,0
2,31,89,24
2,36,105,131
2,24,44,0
2,31,0,77
2,24,0,455
2,36,0,0
2,31,92,24
2,36,109,162
2,24,45,0
2,31,0,58
2,31,97,484
2,24,0,39
2,36,0,0
2,31,0,183
2,33,117,30
2,31,85,495
2,33,0,54
2,34,120,138
2,31,0,6
2,33,97,512
2,34,0,75
2,35,110,70
2,33,0,36
2,34,110,546
2,35,0,48
2,34,0,120
2,36,117,13
2,24,49,0
2,31,95,560
2,24,0,6
2,36,0,0
2,36,108,150
2,24,45,0
2,31,0,59
2,24,0,478
2,36,0,0
2,31,95,46
2,36,113,128
2,24,47,0
2,31,0,92
2,31,97,504
2,24,0,32
2,36,0,0
2,36,109,127
2,24,45,0
2,31,0,56
2,31,93,496
2,24,0,5
2,36,0,0
2,36,110,150
2,24,46,0
2,31,0,59
2,31,90,514
2,24,0,10
2,36,0,0
2,36,100,142
2,24,42,0
2,31,0,56
2,24,0,495
2,36,0,0
2,31,88,20
2,36,108,148
2,24,45,0
2,31,0,76
2,24,0,464
2,36,0,0
2,31,92,47
2,36,110,118
2,24,46,0
2,31,0,101
2,31,93,479
2,24,0,4
2,36,0,0
2,36,109,138
2,24,45,0
2,31,0,74
2,31,89,499
2,24,0,6
2,36,0,0
2,36,110,154
2,24,46,0
2,31,0,51
2,24,0,506
2,36,0,0
2,31,92,11
2,36,108,153
2,24,45,0
2,31,0,55
2,24,0,471
2,36,0,0
2,31,89,24
2,36,105,131
2,24,44,0
2,31,0,77
2,24,0,455
2,36,0,0
2,31,92,24
2,36,117,189
2,24,49,0
2,31,0,31
2,31,95,529
2,24,0,6
2,36,0,0
2,36,108,150
2,24,45,0
2,31,0,59
2,24,0,478
2,36,0,0
2,31,95,46
2,36,113,128
2,24,47,0
2,31,0,92
2,31,97,504
2,24,0,32
2,36,0,0
2,36,109,127
