track,note,velocity,time
1,42,100,4
1,42,100,456
1,42,100,476
1,42,100,476
1,42,100,464
1,35,107,8
1,35,111,236
1,42,100,224
1,40,117,8
1,42,100,464
1,35,111,248
1,42,100,224
1,40,117,8
1,35,111,236
1,42,100,224
1,35,111,248
1,42,100,224
1,40,117,8
1,42,100,464
1,35,107,8
1,40,117,116
1,40,117,116
1,35,111,0
1,40,117,116
1,42,100,104
1,40,117,8
1,40,117,0
1,40,117,116
1,40,117,116
1,40,117,116
1,42,100,104
1,49,105,8
1,35,107,0
1,35,111,236
1,42,100,224
1,40,117,8
1,42,100,464
1,35,111,248
1,42,100,224
1,40,117,8
1,35,111,236
1,42,100,224
1,35,111,248
1,42,100,224
1,40,117,8
1,42,100,464
1,35,107,8
1,40,117,116
1,40,117,116
1,35,111,0
1,40,117,116
1,42,100,104
1,40,117,8
1,40,117,0
1,40,117,116
1,40,117,116
1,40,117,116
1,42,100,104
1,49,105,8
1,35,107,0
1,35,111,236
1,42,100,224
1,40,117,8
1,42,100,464
1,35,111,248
1,42,100,224
1,40,117,8
1,35,111,236
1,42,100,224
1,35,111,248
1,42,100,224
1,40,117,8
1,42,100,464
1,35,107,8
1,35,111,236
1,42,100,224
1,40,117,8
1,42,100,464
1,35,107,8
1,35,111,236
1,42,100,224
1,40,117,8
1,42,100,464
1,35,111,248
1,42,100,224
1,40,117,8
1,35,111,236
1,42,100,224
1,35,111,248
1,42,100,224
1,40,117,8
1,42,100,464
1,35,107,8
1,35,111,236
1,42,100,224
1,40,117,8
1,42,100,464
1,35,107,8
1,35,111,236
1,42,100,224
1,40,117,8
1,42,100,464
1,35,111,248
1,42,100,224
1,40,117,8
1,35,111,236
1,42,100,224
1,35,111,248
1,42,100,224
1,40,117,8
1,42,100,464
1,35,107,8
1,35,111,236
1,42,100,224
1,40,117,8
1,42,100,464
1,35,107,8
1,35,111,236
1,42,100,224
1,40,117,8
1,42,100,464
1,35,111,248
1,42,100,224
1,40,117,8
1,35,111,236
1,42,100,224
1,35,111,248
1,42,100,224
1,40,117,8
1,42,100,464
1,35,107,8
1,41,111,236
1,41,111,116
1,35,107,116
1,35,111,236
1,42,100,224
1,35,107,8
1,35,111,236
1,42,100,224
1,40,117,8
1,42,100,464
1,35,111,248
1,42,100,224
1,40,117,8
1,35,111,236
1,42,100,224
1,35,111,248
1,42,100,224
1,40,117,8
1,42,100,464
1,35,107,8
1,41,111,236
1,41,111,116
1,35,107,116
1,35,111,236
1,42,100,224
1,35,107,8
1,35,111,236
1,42,100,224
1,40,117,8
1,42,100,464
1,35,111,248
1,42,100,224
1,40,117,8
1,35,111,236
1,49,105,236
1,40,117,0
1,40,117,116
1,40,117,116
1,48,111,116
1,48,111,116
1,48,111,116
1,45,109,116
1,45,109,116
1,45,109,116
1,41,111,116
1,41,111,116
1,41,111,116
1,35,107,116
1,35,111,236
1,42,100,224
1,35,107,8
1,35,111,236
1,42,100,224
1,40,117,8
1,42,100,464
1,35,111,248
1,42,100,224
1,40,117,8
1,35,111,236
1,42,100,224
1,35,111,248
1,42,100,224
1,40,117,8
1,42,100,464
1,35,107,8
1,35,111,236
1,42,100,224
1,40,117,8
1,42,100,464
1,35,107,8
1,35,111,236
1,42,100,224
1,40,117,8
1,42,100,464
1,35,111,248
1,42,100,224
1,40,117,8
1,35,111,236
1,42,100,224
1,35,111,248
1,42,100,224
1,40,117,8
1,42,100,464
1,35,107,8
1,40,117,116
1,40,117,116
1,35,111,0
1,40,117,116
1,42,100,104
1,40,117,8
1,40,117,0
1,40,117,116
1,40,117,116
1,40,117,116
1,42,100,104
1,49,105,8
1,35,107,0
1,35,111,236
1,42,100,224
1,40,117,8
1,42,100,464
1,35,111,248
1,42,100,224
1,40,117,8
1,35,111,236
1,42,100,224
1,35,111,248
1,42,100,224
1,40,117,8
1,42,100,464
1,35,107,8
1,40,117,116
1,40,117,116
1,35,111,0
1,40,117,116
1,42,100,104
1,40,117,8
1,40,117,0
1,40,117,116
1,40,117,116
1,40,117,116
1,42,100,104
1,49,105,8
1,35,107,0
1,35,111,236
1,42,100,224
1,40,117,8
1,42,100,464
1,35,111,248
1,42,100,224
1,40,117,8
1,35,111,236
1,42,100,224
1,35,111,248
1,42,100,224
1,40,117,8
1,42,100,464
1,35,107,8
1,35,111,236
1,42,100,224
1,40,117,8
1,42,100,464
1,35,107,8
1,35,111,236
1,42,100,224
1,40,117,8
1,42,100,464
1,35,111,248
1,42,100,224
1,40,117,8
1,35,111,236
1,42,100,224
1,40,117,128
1,40,117,116
1,48,111,116
1,48,111,116
1,48,111,116
1,45,109,116
1,45,109,116
1,45,109,116
1,41,111,116
1,41,111,116
1,41,111,116
1,35,107,116
1,35,111,236
1,42,100,224
1,35,107,8
1,35,111,236
1,42,100,224
1,40,117,8
1,42,100,464
1,35,111,248
1,42,100,224
1,40,117,8
1,35,111,236
1,42,100,224
1,35,111,248
1,42,100,224
1,40,117,8
1,42,100,464
1,35,107,8
1,35,111,236
1,42,100,224
1,40,117,8
1,42,100,464
1,35,107,8
1,35,111,236
1,42,100,224
1,40,117,8
1,42,100,464
1,35,111,248
1,42,100,224
1,40,117,8
1,35,111,236
1,42,100,224
1,35,111,248
1,42,100,224
1,40,117,8
1,42,100,464
1,35,107,8
1,35,111,236
1,42,100,224
1,40,117,8
1,42,100,464
1,35,107,8
1,35,111,236
1,42,100,224
1,40,117,8
1,42,100,464
1,35,111,248
1,42,100,224
1,40,117,8
1,35,111,236
1,42,100,224
1,35,111,248
1,42,100,224
1,40,117,8
1,42,100,464
1,35,107,8
1,35,111,236
1,42,100,224
1,40,117,8
1,42,100,464
1,35,107,8
1,35,111,236
1,42,100,224
1,40,117,8
1,42,100,464
1,35,111,248
1,42,100,224
1,40,117,8
1,35,111,236
1,42,100,224
1,35,111,248
1,42,100,224
1,40,117,8
1,42,100,464
1,35,107,8
1,35,111,236
1,41,111,116
1,35,107,116
1,35,111,236
1,42,100,224
1,35,107,8
1,35,111,236
1,42,100,224
1,40,117,8
1,42,100,464
1,35,111,248
1,42,100,224
1,40,117,8
1,35,111,236
1,42,100,224
1,35,111,248
1,42,100,224
1,40,117,8
1,42,100,464
1,35,107,8
1,41,111,236
1,41,111,116
1,35,107,116
1,35,111,236
1,42,100,224
1,35,107,8
1,35,111,236
1,42,100,224
1,40,117,8
1,42,100,464
1,35,111,248
1,42,100,224
1,40,117,8
1,35,111,236
1,42,100,224
1,35,111,248
1,42,100,224
1,40,117,8
1,42,100,464
1,35,107,8
1,35,111,236
1,41,111,116
1,35,107,116
1,35,111,236
1,42,100,224
1,35,107,8
1,35,111,236
1,42,100,224
1,40,117,8
1,42,100,464
1,35,111,248
1,42,100,224
1,40,117,8
1,35,111,236
1,42,100,224
1,35,107,8
1,35,111,236
1,42,100,224
1,40,117,8
1,42,100,464
1,40,117,128
1,40,117,116
1,35,111,0
1,40,117,116
1,42,100,104
1,40,117,8
1,40,117,0
1,40,117,116
1,40,117,116
1,35,111,0
1,40,117,116
1,42,100,104
1,49,105,8
1,35,111,236
1,42,100,224
1,40,117,8
1,42,100,464
1,35,107,8
1,35,111,236
1,42,100,224
1,40,117,8
1,42,100,464
1,35,107,8
1,35,111,236
1,42,100,224
1,40,117,8
1,42,100,464
1,40,117,128
1,40,117,116
1,35,111,0
1,40,117,116
1,42,100,104
1,40,117,8
1,40,117,0
1,40,117,116
1,40,117,116
1,35,111,0
1,40,117,116
1,42,100,104
1,49,105,8
1,35,111,236
1,42,100,224
1,40,117,8
1,42,100,464
1,35,107,8
1,35,111,236
1,42,100,224
1,40,117,8
1,42,100,464
1,35,107,8
1,35,111,236
1,42,100,224
1,40,117,8
1,42,100,464
1,40,117,128
1,40,117,116
1,35,111,0
1,40,117,116
1,42,100,104
1,40,117,8
1,40,117,0
1,40,117,116
1,40,117,116
1,35,111,0
1,40,117,116
1,42,100,104
1,49,105,8
1,35,111,236
1,42,100,224
1,40,117,8
1,42,100,464
1,35,107,8
1,35,111,236
1,42,100,224
1,40,117,8
1,42,100,464
1,35,107,8
1,35,111,236
1,42,100,224
1,40,117,8
1,42,100,464
1,40,117,128
1,40,117,116
1,35,111,0
1,40,117,116
1,42,100,104
1,40,117,8
1,40,117,0
1,40,117,116
1,40,117,116
1,35,111,0
1,40,117,116
1,42,100,104
1,49,105,8
1,35,111,236
1,42,100,224
1,40,117,8
1,42,100,464
1,35,107,8
1,35,111,236
1,42,100,224
1,40,117,8
1,42,100,464
1,35,107,8
1,35,111,236
1,42,100,224
1,40,117,8
1,42,100,464
1,40,117,128
1,40,117,116
1,35,111,0
1,40,117,116
1,42,100,104
1,40,117,8
1,40,117,0
1,40,117,116
1,40,117,116
1,35,111,0
1,40,117,116
1,42,100,104
1,49,105,8
1,35,111,236
1,42,100,224
1,40,117,8
1,42,100,464
1,35,107,8
1,35,111,236
1,42,100,224
1,40,117,8
1,42,100,464
1,35,107,8
1,35,111,236
1,42,100,224
1,40,117,8
1,42,100,464
1,40,117,128
1,40,117,116
1,35,111,0
1,40,117,116
1,42,100,104
1,40,117,8
1,40,117,0
1,40,117,116
1,40,117,116
1,35,111,0
1,40,117,116
1,42,100,104
1,49,105,8
1,35,111,236
1,42,100,224
1,40,117,8
1,42,100,464
1,35,107,8
1,35,111,236
1,42,100,224
1,40,117,8
1,42,100,464
1,35,107,8
1,35,111,236
1,42,100,224
1,40,117,8
1,42,100,464
1,40,117,128
1,40,117,116
1,35,111,0
1,40,117,116
1,42,100,104
1,40,117,8
1,40,117,0
1,40,117,116
1,40,117,116
1,35,111,0
1,40,117,116
1,42,100,104
1,49,105,8
1,35,111,236
1,42,100,224
1,40,117,8
1,42,100,464
1,35,107,8
1,35,111,236
1,42,100,224
1,40,117,8
1,42,100,464
1,35,107,8
1,35,111,236
1,42,100,224
1,40,117,8
1,42,100,464
1,40,117,128
1,40,117,116
1,35,111,0
1,40,117,116
1,42,100,104
1,40,117,8
1,40,117,0
1,40,117,116
1,40,117,116
1,35,111,0
1,40,117,116
1,42,100,104
1,49,105,8
1,35,111,236
1,42,100,224
1,40,117,8
1,42,100,464
1,35,107,8
1,35,111,236
1,42,100,224
1,40,117,8
1,49,105,476
1,40,117,0
1,40,117,116
1,40,117,116
1,48,111,116
1,48,111,116
1,48,111,116
1,45,109,116
1,45,109,116
1,45,109,116
1,41,111,116
1,41,111,116
1,41,111,116
1,35,107,116
1,35,111,236
1,42,100,224
1,35,107,8
1,35,111,236
1,42,100,224
1,40,117,8
1,42,100,464
1,35,111,248
1,42,100,224
1,40,117,8
1,35,111,236
1,42,100,224
1,35,111,248
1,42,100,224
1,40,117,8
1,42,100,464
1,35,107,8
1,35,111,236
1,42,100,224
1,40,117,8
1,42,100,464
1,35,107,8
1,35,111,236
1,42,100,224
1,40,117,8
1,42,100,464
1,35,111,248
1,42,100,224
1,40,117,8
1,35,111,236
1,42,100,224
1,35,111,248
1,42,100,224
1,40,117,8
1,42,100,464
1,35,107,8
1,35,111,236
1,42,100,224
1,40,117,8
1,42,100,464
1,35,107,8
1,35,111,236
1,42,100,224
1,40,117,8
1,42,100,464
1,35,111,248
1,42,100,224
1,40,117,8
1,35,111,236
1,42,100,224
1,35,111,248
1,42,100,224
1,40,117,8
1,42,100,464
1,35,107,8
1,35,111,236
1,42,100,224
1,40,117,8
1,42,100,464
1,35,107,8
1,35,111,236
1,42,100,224
1,40,117,8
1,42,100,464
1,35,111,248
1,42,100,224
1,40,117,8
1,35,111,236
1,42,100,224
1,35,111,248
1,42,100,224
1,40,117,8
1,42,100,464
1,35,107,8
1,35,111,236
1,41,111,116
1,35,107,116
1,35,111,236
1,42,100,224
1,35,107,8
1,35,111,236
1,42,100,224
1,40,117,8
1,42,100,464
1,35,111,248
1,42,100,224
1,40,117,8
1,35,111,236
1,42,100,224
1,35,111,248
1,42,100,224
1,40,117,8
1,45,109,236
1,45,109,116
1,45,109,116
1,41,111,116
1,41,111,116
1,41,111,116
1,35,107,116
1,35,111,236
1,42,100,224
1,35,107,8
1,35,111,236
1,42,100,224
1,40,117,8
1,42,100,464
1,35,111,248
1,42,100,224
1,40,117,8
1,35,111,236
1,49,105,236
1,40,117,0
1,40,117,116
1,40,117,116
1,48,111,116
1,48,111,116
1,48,111,116
1,45,109,116
1,45,109,116
1,45,109,116
1,41,111,116
1,41,111,116
1,41,111,116
1,35,107,116
1,35,111,236
1,42,100,224
1,35,107,8
1,35,111,236
1,42,100,224
1,40,117,8
1,42,100,464
1,35,111,248
1,42,100,224
1,40,117,8
1,35,111,236
1,42,100,224
1,35,111,248
1,42,100,224
1,40,117,8
1,42,100,464
1,35,107,8
1,35,111,236
1,42,100,224
1,40,117,8
1,42,100,464
1,35,107,8
1,35,111,236
1,42,100,224
1,40,117,8
1,42,100,464
1,35,111,248
1,42,100,224
1,40,117,8
1,35,111,236
1,42,100,224
1,35,111,248
1,42,100,224
1,40,117,8
1,45,109,476
1,41,111,116
1,41,107,116
1,41,111,116
1,35,107,116
1,35,111,236
1,42,100,224
1,35,107,8
1,35,111,236
1,42,100,224
1,40,117,8
1,42,100,464
1,35,111,248
1,42,100,224
1,40,117,8
1,35,111,236
1,42,100,224
1,35,111,248
1,42,100,224
1,40,117,8
1,42,100,464
1,35,107,8
1,35,111,236
1,42,100,224
1,40,117,8
1,42,100,464
1,35,107,8
1,35,111,236
1,42,100,224
1,40,117,8
1,42,100,464
1,35,111,248
1,42,100,224
1,40,117,8
1,35,111,236
1,42,100,224
1,35,111,248
1,42,100,224
1,40,117,8
1,42,100,464
1,35,107,8
1,35,111,236
1,42,100,224
1,40,117,8
1,42,100,464
1,35,107,8
1,35,111,236
1,42,100,224
1,40,117,8
1,42,100,464
1,35,111,248
1,42,100,224
1,40,117,8
1,35,111,236
1,42,100,224
1,35,111,248
1,42,100,224
1,40,117,8
1,42,100,464
1,35,107,8
1,35,111,236
1,41,111,116
1,35,107,116
1,35,111,236
1,42,100,224
1,35,107,8
1,35,111,236
1,42,100,224
1,40,117,8
1,42,100,464
1,35,111,248
1,42,100,224
1,40,117,8
1,35,111,236
1,42,100,224
1,35,111,248
1,42,100,224
1,40,117,8
1,42,100,464
1,35,107,8
1,35,111,236
1,35,107,236
1,35,111,236
1,42,100,224
1,35,107,8
1,35,111,236
1,42,100,224
1,40,117,8
1,42,100,464
1,35,111,248
1,42,100,224
1,40,117,8
1,35,111,236
1,42,100,224
1,35,111,248
1,42,100,224
1,40,117,8
1,42,100,464
1,35,107,8
1,35,111,236
1,41,111,116
1,35,107,116
1,35,111,236
1,42,100,224
1,35,107,8
1,35,111,236
1,42,100,224
1,40,117,8
1,42,100,464
1,35,111,248
1,42,100,224
1,40,117,8
1,35,111,236
1,42,100,224
1,35,111,248
1,42,100,224
1,40,117,8
1,42,100,464
1,35,107,8
1,41,111,236
1,41,111,116
1,35,111,356
1,42,100,224
1,35,111,12
1,35,111,232
1,42,100,224
1,40,117,8
1,42,100,464
1,35,111,248
1,42,100,224
1,40,117,8
1,35,111,236
1,42,100,224
1,35,111,248
1,42,100,224
1,40,117,8
1,42,100,464
1,35,107,8
1,35,111,236
1,35,107,236
1,35,107,0
1,35,111,236
1,35,111,0
1,42,100,224
1,35,107,8
1,35,111,236
1,42,100,224
1,40,117,8
1,42,100,464
1,35,111,248
1,42,100,224
1,40,117,8
1,35,111,236
1,40,117,236
1,40,117,116
1,40,117,116
1,48,111,116
1,48,111,116
1,48,111,116
1,45,109,116
1,45,109,116
1,45,109,116
1,41,111,116
1,41,107,116
1,41,111,116
1,35,107,116
1,35,111,236
1,49,105,236
1,35,107,0
2,45,103,4
2,50,103,8
2,38,103,0
2,38,103,0
2,45,103,8
2,50,103,0
2,38,98,20
2,45,98,0
2,50,98,12
2,50,88,40
2,54,88,8
2,47,88,12
2,45,88,12
2,50,88,0
2,38,88,4
2,45,93,16852
2,50,93,0
2,38,93,4
2,59,93,408
2,50,93,4
