track,note,velocity,time
3,38,100,480
3,38,0,929
3,38,100,31
3,38,0,929
3,38,100,31
3,38,0,29
3,33,100,1
3,33,0,29
3,44,100,1
3,44,0,29
3,43,100,1
3,43,0,29
3,41,100,31
3,41,0,29
3,38,100,31
3,38,0,29
3,38,100,31
3,38,0,29
3,36,100,31
3,36,0,29
3,33,100,1
3,33,0,119
3,38,100,1
3,38,0,29
3,33,100,1
3,33,0,29
3,44,100,1
3,44,0,29
3,43,100,1
3,43,0,29
3,41,100,31
3,41,0,29
3,38,100,31
3,38,0,29
3,38,100,31
3,38,0,29
3,36,100,31
3,36,0,29
3,33,100,1
3,33,0,119
3,38,100,1
3,38,0,29
3,33,100,1
3,33,0,29
3,44,100,1
3,44,0,29
3,43,100,1
3,43,0,29
3,41,100,31
3,41,0,29
3,38,100,31
3,38,0,29
3,38,100,31
3,38,0,29
3,36,100,31
3,36,0,29
3,33,100,1
3,33,0,119
3,38,100,1
3,38,0,29
3,33,100,1
3,33,0,29
3,44,100,1
3,44,0,29
3,43,100,1
3,43,0,29
3,41,100,31
3,41,0,29
3,38,100,31
3,38,0,29
3,38,100,31
3,38,0,29
3,36,100,31
3,36,0,29
3,33,100,1
3,33,0,119
3,38,100,1
3,38,0,29
3,33,100,1
3,33,0,29
3,44,100,1
3,44,0,29
3,43,100,1
3,43,0,29
3,41,100,31
3,41,0,29
3,38,100,31
3,38,0,29
3,38,100,31
3,38,0,29
3,36,100,31
3,36,0,29
3,33,100,1
3,33,0,119
3,38,100,1
3,38,0,29
3,33,100,1
3,33,0,29
3,44,100,1
3,44,0,29
3,43,100,1
3,43,0,29
3,41,100,31
3,41,0,29
3,38,100,31
3,38,0,29
3,38,100,31
3,38,0,29
3,36,100,31
3,36,0,29
3,33,100,1
3,33,0,119
3,38,100,1
3,38,0,29
3,33,100,1
3,33,0,29
3,44,100,1
3,44,0,29
3,43,100,1
3,43,0,29
3,41,100,31
3,41,0,29
3,38,100,31
3,38,0,29
3,38,100,31
3,38,0,29
3,36,100,31
3,36,0,29
3,33,100,1
3,33,0,119
3,38,100,1
3,38,0,29
3,33,100,1
3,33,0,29
3,44,100,1
3,44,0,29
3,43,100,1
3,43,0,29
3,41,100,31
3,41,0,29
3,38,100,31
3,38,0,29
3,38,100,31
3,38,0,29
3,36,100,31
3,36,0,29
3,33,100,1
3,33,0,119
3,38,100,1
3,38,0,89
3,38,100,31
3,38,0,89
3,38,100,271
3,38,0,89
3,38,100,31
3,38,0,89
3,38,100,271
3,38,0,89
3,38,100,31
3,38,0,89
3,38,100,271
3,38,0,89
3,38,100,31
3,38,0,89
3,38,100,271
3,38,0,89
3,38,100,31
3,38,0,89
3,38,100,271
3,38,0,89
3,38,100,31
3,38,0,89
3,38,100,271
3,38,0,89
3,38,100,31
3,38,0,89
3,38,100,271
3,38,0,89
3,38,100,31
3,38,0,89
3,38,100,271
3,38,0,89
3,38,100,31
3,38,0,89
3,38,100,271
3,38,0,89
3,38,100,31
3,38,0,89
3,38,100,271
3,38,0,89
3,38,100,31
3,38,0,89
3,38,100,271
3,38,0,119
3,36,100,1
3,36,0,29
3,38,100,1
3,38,0,29
3,36,100,31
3,36,0,29
3,36,100,31
3,36,0,29
3,36,100,31
3,36,0,29
3,33,100,1
3,33,0,29
3,33,100,1
3,33,0,29
3,36,100,1
3,36,0,29
3,33,100,1
3,33,0,29
3,38,100,1
3,38,0,119
3,36,100,1
3,36,0,29
3,38,100,1
3,38,0,29
3,36,100,31
3,36,0,29
3,36,100,31
3,36,0,29
3,36,100,31
3,36,0,29
3,33,100,1
3,33,0,29
3,33,100,1
3,33,0,29
3,36,100,1
3,36,0,29
3,33,100,1
3,33,0,29
3,38,100,1
3,38,0,119
3,36,100,1
3,36,0,29
3,38,100,1
3,38,0,29
3,36,100,31
3,36,0,29
3,36,100,31
3,36,0,29
3,36,100,31
3,36,0,29
3,33,100,1
3,33,0,29
3,33,100,1
3,33,0,29
3,36,100,1
3,36,0,29
3,33,100,1
3,33,0,29
3,38,100,1
3,38,0,119
3,36,100,1
3,36,0,29
3,38,100,1
3,38,0,29
3,36,100,31
3,36,0,29
3,36,100,31
3,36,0,29
3,36,100,31
3,36,0,29
3,33,100,1
3,33,0,29
3,33,100,1
3,33,0,29
3,36,100,1
3,36,0,29
3,33,100,1
3,33,0,29
3,38,100,1
3,38,0,119
3,36,100,1
3,36,0,29
3,38,100,1
3,38,0,29
3,36,100,31
3,36,0,29
3,36,100,31
3,36,0,29
3,36,100,31
3,36,0,29
3,33,100,1
3,33,0,29
3,33,100,1
3,33,0,29
3,36,100,1
3,36,0,29
3,33,100,1
3,33,0,29
3,38,100,1
3,38,0,119
3,36,100,1
3,36,0,29
3,38,100,1
3,38,0,29
3,36,100,31
3,36,0,29
3,36,100,31
3,36,0,29
3,36,100,31
3,36,0,29
3,33,100,1
3,33,0,29
3,33,100,1
3,33,0,29
3,36,100,1
3,36,0,29
3,33,100,1
3,33,0,29
3,38,100,1
3,38,0,119
3,36,100,1
3,36,0,29
3,38,100,1
3,38,0,29
3,36,100,31
3,36,0,29
3,36,100,31
3,36,0,29
3,36,100,31
3,36,0,29
3,33,100,1
3,33,0,29
3,33,100,1
3,33,0,29
3,36,100,1
3,36,0,29
3,33,100,1
3,33,0,29
3,38,100,1
3,38,0,119
3,36,100,1
3,36,0,29
3,38,100,1
3,38,0,29
3,36,100,31
3,36,0,29
3,36,100,31
3,36,0,29
3,36,100,31
3,36,0,29
3,33,100,1
3,33,0,29
3,33,100,1
3,33,0,29
3,36,100,1
3,36,0,29
3,33,100,1
3,33,0,29
3,38,100,1
3,38,0,119
3,36,100,1
3,36,0,29
3,38,100,1
3,38,0,29
3,36,100,31
3,36,0,29
3,36,100,31
3,36,0,29
3,36,100,31
3,36,0,29
3,33,100,1
3,33,0,29
3,33,100,1
3,33,0,29
3,36,100,1
3,36,0,29
3,33,100,1
3,33,0,29
3,38,100,1
3,38,0,119
3,36,100,1
3,36,0,29
3,38,100,1
3,38,0,29
3,36,100,31
3,36,0,29
3,36,100,31
3,36,0,29
3,36,100,31
3,36,0,29
3,33,100,1
3,33,0,29
3,33,100,1
3,33,0,29
3,36,100,1
3,36,0,29
3,33,100,1
3,33,0,29
3,38,100,1
3,38,0,119
3,36,100,1
3,36,0,29
3,38,100,1
3,38,0,29
3,36,100,31
3,36,0,29
3,36,100,31
3,36,0,29
3,36,100,31
3,36,0,29
3,33,100,1
3,33,0,29
3,33,100,1
3,33,0,29
3,36,100,1
3,36,0,29
3,33,100,1
3,33,0,29
3,38,100,1
3,38,0,119
3,36,100,1
3,36,0,29
3,38,100,1
3,38,0,29
3,36,100,31
3,36,0,29
3,36,100,31
3,36,0,29
3,36,100,31
3,36,0,29
3,33,100,1
3,33,0,29
3,33,100,1
3,33,0,29
3,36,100,1
3,36,0,29
3,33,100,1
3,33,0,29
3,38,100,1
3,38,0,119
3,36,100,1
3,36,0,29
3,38,100,1
3,38,0,29
3,36,100,31
3,36,0,29
3,36,100,31
3,36,0,29
3,36,100,31
3,36,0,29
3,33,100,1
3,33,0,29
3,33,100,1
3,33,0,29
3,36,100,1
3,36,0,29
3,33,100,1
3,33,0,29
3,38,100,1
3,38,0,119
3,36,100,1
3,36,0,29
3,38,100,1
3,38,0,29
3,36,100,31
3,36,0,29
3,36,100,31
3,36,0,29
3,36,100,31
3,36,0,29
3,33,100,1
3,33,0,29
3,33,100,1
3,33,0,29
3,36,100,1
3,36,0,29
3,33,100,1
3,33,0,29
3,38,100,1
3,38,0,119
3,36,100,1
3,36,0,29
3,38,100,1
3,38,0,29
3,36,100,31
3,36,0,29
3,36,100,31
3,36,0,29
3,36,100,31
3,36,0,29
3,33,100,1
3,33,0,29
3,33,100,1
3,33,0,29
3,36,100,1
3,36,0,29
3,33,100,1
3,33,0,29
3,38,100,1
3,38,0,119
3,36,100,1
3,36,0,29
3,38,100,1
3,38,0,29
3,36,100,31
3,36,0,29
3,36,100,31
3,36,0,29
3,36,100,31
3,36,0,29
3,33,100,1
3,33,0,29
3,33,100,1
3,33,0,29
3,36,100,1
3,36,0,29
3,33,100,1
3,33,0,29
3,38,100,1
3,38,0,119
3,36,100,1
3,36,0,29
3,38,100,1
3,38,0,29
3,36,100,31
3,36,0,29
3,36,100,31
3,36,0,29
3,36,100,31
3,36,0,29
3,33,100,1
3,33,0,29
3,33,100,1
3,33,0,29
3,36,100,1
3,36,0,29
3,33,100,1
3,33,0,29
3,38,100,1
3,38,0,119
3,36,100,1
3,36,0,29
3,38,100,1
3,38,0,29
3,36,100,31
3,36,0,29
3,36,100,31
3,36,0,29
3,36,100,31
3,36,0,29
3,33,100,1
3,33,0,29
3,33,100,1
3,33,0,29
3,36,100,1
3,36,0,29
3,33,100,1
3,33,0,29
3,38,100,1
3,38,0,119
3,36,100,1
3,36,0,29
3,38,100,1
3,38,0,29
3,36,100,31
3,36,0,29
3,36,100,31
3,36,0,29
3,36,100,31
3,36,0,29
3,33,100,1
3,33,0,29
3,33,100,1
3,33,0,29
3,36,100,1
3,36,0,29
3,33,100,1
3,33,0,29
3,38,100,1
3,38,0,119
3,36,100,1
3,36,0,29
3,38,100,1
3,38,0,29
3,36,100,31
3,36,0,29
3,36,100,31
3,36,0,29
3,36,100,31
3,36,0,29
3,33,100,1
3,33,0,29
3,33,100,1
3,33,0,29
3,36,100,1
3,36,0,29
3,33,100,1
3,33,0,29
3,38,100,1
3,38,0,119
3,36,100,1
3,36,0,29
3,38,100,1
3,38,0,29
3,36,100,31
3,36,0,29
3,36,100,31
3,36,0,29
3,36,100,31
3,36,0,29
3,33,100,1
3,33,0,29
3,33,100,1
3,33,0,29
3,36,100,1
3,36,0,29
3,33,100,1
3,33,0,29
3,38,100,1
3,38,0,59
3,33,100,1
3,33,0,59
3,44,100,1
3,44,0,59
3,43,100,1
3,43,0,119
3,41,100,1
3,41,0,119
3,38,100,1
3,38,0,119
3,33,100,1
3,33,0,59
3,36,100,1
3,36,0,119
3,35,100,1
3,35,0,119
3,33,100,1
3,33,0,119
3,38,100,1
3,38,0,59
3,33,100,1
3,33,0,59
3,44,100,1
3,44,0,59
3,43,100,1
3,43,0,119
3,41,100,1
3,41,0,119
3,38,100,1
3,38,0,119
3,33,100,1
3,33,0,59
3,36,100,1
3,36,0,119
3,35,100,1
3,35,0,119
3,33,100,1
3,33,0,119
3,38,100,1
3,38,0,179
3,38,100,1
3,38,0,59
3,45,100,1
3,45,0,119
3,38,100,1
3,38,0,119
3,34,100,1
3,34,0,179
3,34,100,1
3,34,0,59
3,41,100,1
3,41,0,119
3,34,100,1
3,34,0,89
3,38,100,31
3,38,0,179
3,38,100,1
3,38,0,59
3,45,100,1
3,45,0,119
3,38,100,1
3,38,0,119
3,34,100,1
3,34,0,179
3,34,100,1
3,34,0,59
3,41,100,1
3,41,0,119
3,34,100,1
3,34,0,89
3,38,100,31
3,38,0,179
3,38,100,1
3,38,0,59
3,45,100,1
3,45,0,119
3,38,100,1
3,38,0,119
3,34,100,1
3,34,0,119
3,34,100,61
3,34,0,59
3,41,100,1
3,41,0,119
3,34,100,1
3,34,0,119
3,29,100,1
3,29,0,119
3,29,100,61
3,29,0,59
3,29,100,1
3,29,0,119
3,29,100,1
3,29,0,119
3,33,100,1
3,33,0,119
3,33,100,61
3,33,0,59
3,33,100,1
3,33,0,119
3,33,100,1
3,33,0,119
3,38,100,1
3,38,0,179
3,38,100,1
3,38,0,59
3,45,100,1
3,45,0,119
3,38,100,1
3,38,0,119
3,34,100,1
3,34,0,179
3,34,100,1
3,34,0,59
3,41,100,1
3,41,0,119
3,34,100,1
3,34,0,89
3,38,100,31
3,38,0,179
3,38,100,1
3,38,0,59
3,45,100,1
3,45,0,119
3,38,100,1
3,38,0,119
3,34,100,1
3,34,0,179
3,34,100,1
3,34,0,59
3,41,100,1
3,41,0,119
3,34,100,1
3,34,0,89
3,38,100,31
3,38,0,179
3,38,100,1
3,38,0,59
3,45,100,1
3,45,0,119
3,38,100,1
3,38,0,119
3,34,100,1
3,34,0,119
3,34,100,61
3,34,0,59
3,41,100,1
3,41,0,119
3,34,100,1
3,34,0,119
3,29,100,1
3,29,0,119
3,29,100,61
3,29,0,59
3,29,100,1
3,29,0,119
3,29,100,1
3,29,0,119
3,33,100,1
3,33,0,119
3,33,100,61
3,33,0,59
3,33,100,1
3,33,0,119
3,33,100,1
3,33,0,119
3,38,100,1
3,38,0,29
3,33,100,1
3,33,0,29
3,44,100,1
3,44,0,29
3,43,100,1
3,43,0,29
3,41,100,31
3,41,0,29
3,38,100,31
3,38,0,29
3,38,100,31
3,38,0,29
3,36,100,31
3,36,0,29
3,33,100,1
3,33,0,119
3,38,100,1
3,38,0,29
3,33,100,1
3,33,0,29
3,44,100,1
3,44,0,29
3,43,100,1
3,43,0,29
3,41,100,31
3,41,0,29
3,38,100,31
3,38,0,29
3,38,100,31
3,38,0,29
3,36,100,31
3,36,0,29
3,33,100,1
3,33,0,119
3,38,100,1
3,38,0,29
3,33,100,1
3,33,0,29
3,44,100,1
3,44,0,29
3,43,100,1
3,43,0,29
3,41,100,31
3,41,0,29
3,38,100,31
3,38,0,29
3,38,100,31
3,38,0,29
3,36,100,31
3,36,0,29
3,33,100,1
3,33,0,119
3,38,100,1
3,38,0,29
3,33,100,1
3,33,0,29
3,44,100,1
3,44,0,29
3,43,100,1
3,43,0,29
3,41,100,31
3,41,0,29
3,38,100,31
3,38,0,29
3,38,100,31
3,38,0,29
3,36,100,31
3,36,0,29
3,33,100,1
3,33,0,119
3,38,100,1
3,38,0,29
3,33,100,1
3,33,0,29
3,44,100,1
3,44,0,29
3,43,100,1
3,43,0,29
3,41,100,31
3,41,0,29
3,38,100,31
3,38,0,29
3,38,100,31
3,38,0,29
3,36,100,31
3,36,0,29
3,33,100,1
3,33,0,119
3,38,100,1
3,38,0,29
3,33,100,1
3,33,0,29
3,44,100,1
3,44,0,29
3,43,100,1
3,43,0,29
3,41,100,31
3,41,0,29
3,38,100,31
3,38,0,29
3,38,100,31
3,38,0,29
3,36,100,31
3,36,0,29
3,33,100,1
3,33,0,119
3,38,100,1
3,38,0,29
3,33,100,1
3,33,0,29
3,44,100,1
3,44,0,29
3,43,100,1
3,43,0,29
3,41,100,31
3,41,0,29
3,38,100,31
3,38,0,29
3,38,100,31
3,38,0,29
3,36,100,31
3,36,0,29
3,33,100,1
3,33,0,119
3,38,100,1
3,38,0,29
3,33,100,1
3,33,0,29
3,44,100,1
3,44,0,29
3,43,100,1
3,43,0,29
3,41,100,31
3,41,0,29
3,38,100,31
3,38,0,29
3,38,100,31
3,38,0,29
3,36,100,31
3,36,0,29
3,33,100,1
3,33,0,119
3,38,100,1
3,38,0,89
3,38,100,31
3,38,0,89
3,38,100,271
3,38,0,89
3,38,100,31
3,38,0,89
3,38,100,271
3,38,0,119
3,36,100,1
3,36,0,29
3,38,100,1
3,38,0,29
3,36,100,31
3,36,0,29
3,36,100,31
3,36,0,29
3,36,100,31
3,36,0,29
3,33,100,1
3,33,0,29
3,33,100,1
3,33,0,29
3,36,100,1
3,36,0,29
3,33,100,1
3,33,0,29
3,38,100,1
3,38,0,119
3,36,100,1
3,36,0,29
3,38,100,1
3,38,0,29
3,36,100,31
3,36,0,29
3,36,100,31
3,36,0,29
3,36,100,31
3,36,0,29
3,33,100,1
3,33,0,29
3,33,100,1
3,33,0,29
3,36,100,1
3,36,0,29
3,33,100,1
3,33,0,29
3,38,100,1
3,38,0,119
3,36,100,1
3,36,0,29
3,38,100,1
3,38,0,29
3,36,100,31
3,36,0,29
3,36,100,31
3,36,0,29
3,36,100,31
3,36,0,29
3,33,100,1
3,33,0,29
3,33,100,1
3,33,0,29
3,36,100,1
3,36,0,29
3,33,100,1
3,33,0,29
3,38,100,1
3,38,0,119
3,36,100,1
3,36,0,29
3,38,100,1
3,38,0,29
3,36,100,31
3,36,0,29
