track,note,velocity,time
6,71,127,8400
6,71,0,90
6,74,127,0
6,74,0,30
6,76,127,0
6,76,0,210
6,74,127,0
6,74,0,30
6,76,127,0
6,76,0,30
6,74,127,0
6,74,0,30
6,78,127,0
6,78,0,120
6,69,127,900
6,69,0,90
6,73,127,0
6,73,0,30
6,76,127,0
6,76,0,90
6,74,127,0
6,74,0,30
6,78,127,0
6,78,0,180
6,79,127,0
6,79,0,30
6,78,127,0
6,78,0,30
6,76,127,0
6,76,0,240
6,76,127,600
6,76,0,120
6,76,127,0
6,76,0,120
6,76,127,0
6,76,0,120
6,74,127,360
6,74,0,120
6,71,127,0
6,71,0,120
6,73,127,0
6,73,0,30
6,74,127,0
6,74,0,30
6,73,127,0
6,73,0,300
6,73,127,0
6,73,0,120
6,73,127,0
6,73,0,120
6,73,127,0
6,73,0,120
6,71,127,0
6,71,0,20
6,73,127,0
6,73,0,20
6,71,127,0
6,71,0,20
6,70,127,0
6,70,0,660
6,76,127,480
6,76,0,120
6,76,127,0
6,76,0,30
6,74,127,0
6,74,0,90
6,78,127,0
6,78,0,120
6,71,127,1080
6,71,0,120
6,78,127,0
6,78,0,240
6,79,127,0
6,79,0,30
6,78,127,0
6,78,0,30
6,76,127,0
6,76,0,180
6,76,127,840
6,76,0,120
6,76,127,0
6,76,0,120
6,76,127,0
6,76,0,120
6,74,127,360
6,74,0,600
6,73,127,120
6,73,0,240
6,74,127,0
6,74,0,20
6,76,127,0
6,76,0,20
6,74,127,0
6,74,0,20
6,73,127,0
6,73,0,300
6,73,100,0
6,76,127,0
6,73,0,360
6,76,0,0
6,73,100,0
6,76,127,0
6,73,0,120
6,76,0,0
6,74,100,0
6,78,127,0
6,74,0,960
6,78,0,0
6,73,100,0
6,76,127,0
6,73,0,360
6,76,0,0
6,73,100,0
6,76,127,0
6,73,0,120
6,76,0,0
6,74,100,0
6,78,127,0
6,74,0,960
6,78,0,0
6,73,100,0
6,76,127,0
6,73,0,360
6,76,0,0
6,73,100,0
6,76,127,0
6,73,0,120
6,76,0,0
6,74,100,0
6,78,127,0
6,74,0,960
6,78,0,0
6,74,100,0
6,78,127,0
6,74,0,120
6,78,0,0
6,73,100,0
6,76,127,0
6,73,0,120
6,76,0,0
6,71,100,0
6,74,127,0
6,71,0,120
6,74,0,0
6,73,100,0
6,78,127,0
6,73,0,1080
6,78,0,0
6,73,100,0
6,76,127,0
6,73,0,360
6,76,0,0
6,73,100,0
6,76,127,0
6,73,0,120
6,76,0,0
6,74,100,0
6,78,127,0
6,74,0,960
6,78,0,0
6,73,100,0
6,76,127,0
6,73,0,360
6,76,0,0
6,73,100,0
6,76,127,0
6,73,0,120
6,76,0,0
6,74,100,0
6,78,127,0
6,74,0,960
6,78,0,0
6,73,100,0
6,76,127,0
6,73,0,360
6,76,0,0
6,73,100,0
6,76,127,0
6,73,0,120
6,76,0,0
6,74,100,0
6,78,127,0
6,74,0,960
6,78,0,0
6,74,100,0
6,78,127,0
6,74,0,120
6,78,0,0
6,73,100,0
6,76,127,0
6,73,0,120
6,76,0,0
6,71,100,0
6,74,127,0
6,71,0,120
6,74,0,0
6,73,100,0
6,78,127,0
6,73,0,1080
6,78,0,0
6,71,127,840
6,71,0,90
6,74,127,0
6,74,0,30
6,76,127,0
6,76,0,90
6,74,127,0
6,74,0,30
6,76,127,0
6,76,0,30
6,74,127,0
6,74,0,30
6,78,127,0
6,78,0,300
6,78,127,840
6,78,0,120
6,78,127,0
6,78,0,120
6,78,127,0
6,78,0,120
6,79,127,0
6,79,0,30
6,78,127,0
6,78,0,90
6,76,127,0
6,76,0,120
6,76,127,840
6,76,0,120
6,76,127,0
6,76,0,120
6,76,127,0
6,76,0,120
6,78,127,720
6,78,0,360
6,78,127,0
6,78,0,120
6,83,127,0
6,83,0,120
6,78,127,0
6,78,0,90
6,76,127,0
6,76,0,270
6,73,100,0
6,76,127,0
6,73,0,360
6,76,0,0
6,73,100,0
6,76,127,0
6,73,0,120
6,76,0,0
6,74,100,0
6,78,127,0
6,74,0,960
6,78,0,0
6,73,100,0
6,76,127,0
6,73,0,360
6,76,0,0
6,73,100,0
6,76,127,0
6,73,0,120
6,76,0,0
6,74,100,0
6,78,127,0
6,74,0,960
6,78,0,0
6,73,100,0
6,76,127,0
6,73,0,360
6,76,0,0
6,73,100,0
6,76,127,0
6,73,0,120
6,76,0,0
6,74,100,0
6,78,127,0
6,74,0,960
6,78,0,0
6,74,100,0
6,78,127,0
6,74,0,120
6,78,0,0
6,73,100,0
6,76,127,0
6,73,0,120
6,76,0,0
6,71,100,0
6,74,127,0
6,71,0,120
6,74,0,0
6,73,100,0
6,78,127,0
6,73,0,1080
6,78,0,0
6,73,100,0
6,76,127,0
6,73,0,360
6,76,0,0
6,73,100,0
6,76,127,0
6,73,0,120
6,76,0,0
6,74,100,0
6,78,127,0
6,74,0,960
6,78,0,0
6,73,100,0
6,76,127,0
6,73,0,360
6,76,0,0
6,73,100,0
6,76,127,0
6,73,0,120
6,76,0,0
6,74,100,0
6,78,127,0
6,74,0,960
6,78,0,0
6,73,100,0
6,76,127,0
6,73,0,360
6,76,0,0
6,73,100,0
6,76,127,0
6,73,0,120
6,76,0,0
6,74,100,0
6,78,127,0
6,74,0,960
6,78,0,0
6,74,100,0
6,78,127,0
6,74,0,120
6,78,0,0
6,73,100,0
6,76,127,0
6,73,0,120
6,76,0,0
6,71,100,0
6,74,127,0
6,71,0,120
6,74,0,0
6,73,100,0
6,78,127,0
6,73,0,1080
6,78,0,0
6,73,100,18720
6,76,127,0
6,73,0,360
6,76,0,0
6,73,100,0
6,76,127,0
6,73,0,120
6,76,0,0
6,74,100,0
6,78,127,0
6,74,0,960
6,78,0,0
6,73,100,0
6,76,127,0
6,73,0,360
6,76,0,0
6,73,100,0
6,76,127,0
6,73,0,120
6,76,0,0
6,74,100,0
6,78,127,0
6,74,0,960
6,78,0,0
6,73,100,0
6,76,127,0
6,73,0,360
6,76,0,0
6,73,100,0
6,76,127,0
6,73,0,120
6,76,0,0
6,74,100,0
6,78,127,0
6,74,0,960
6,78,0,0
6,74,100,0
6,78,127,0
6,74,0,120
6,78,0,0
6,73,100,0
6,76,127,0
6,73,0,120
6,76,0,0
6,71,100,0
6,74,127,0
6,71,0,120
6,74,0,0
6,73,100,0
6,78,127,0
6,73,0,1080
6,78,0,0
6,73,100,0
6,76,127,0
6,73,0,360
6,76,0,0
6,73,100,0
6,76,127,0
6,73,0,120
6,76,0,0
6,74,100,0
6,78,127,0
6,74,0,960
6,78,0,0
6,73,100,0
6,76,127,0
6,73,0,360
6,76,0,0
6,73,100,0
6,76,127,0
6,73,0,120
6,76,0,0
6,74,100,0
6,78,127,0
6,74,0,960
6,78,0,0
6,73,100,0
6,76,127,0
6,73,0,360
6,76,0,0
6,73,100,0
6,76,127,0
6,73,0,120
6,76,0,0
6,74,100,0
6,78,127,0
6,74,0,960
6,78,0,0
6,74,100,0
6,78,127,0
6,74,0,120
6,78,0,0
6,73,100,0
6,76,127,0
6,73,0,120
6,76,0,0
6,71,100,0
6,74,127,0
6,71,0,120
6,74,0,0
6,73,100,0
6,78,127,0
6,73,0,1080
6,78,0,0
6,73,100,14760
6,76,127,0
6,73,0,240
6,76,0,0
6,73,100,0
6,76,127,0
6,73,0,120
6,76,0,0
6,74,100,0
6,78,127,0
6,74,0,600
6,78,0,0
6,73,100,0
6,76,127,0
6,73,0,240
6,76,0,0
6,73,100,0
6,76,127,0
6,73,0,120
6,76,0,0
6,74,100,0
6,78,127,0
6,74,0,600
6,78,0,0
6,73,100,0
6,76,127,0
6,73,0,240
6,76,0,0
6,73,100,0
6,76,127,0
6,73,0,120
6,76,0,0
6,74,100,0
6,78,127,0
6,74,0,600
6,78,0,0
6,74,100,0
6,78,127,0
6,74,0,80
6,78,0,0
6,73,100,0
6,76,127,0
6,73,0,80
6,76,0,0
6,71,100,0
6,74,127,0
6,71,0,80
6,74,0,0
6,74,100,0
6,78,127,0
6,74,0,720
6,78,0,0
6,73,100,0
6,76,127,0
6,73,0,240
6,76,0,0
6,73,100,0
6,76,127,0
6,73,0,120
6,76,0,0
6,74,100,0
6,78,127,0
6,74,0,600
6,78,0,0
6,73,100,0
6,76,127,0
6,73,0,240
6,76,0,0
6,73,100,0
6,76,127,0
6,73,0,120
6,76,0,0
6,74,100,0
6,78,127,0
6,74,0,600
6,78,0,0
6,73,100,0
6,76,127,0
6,73,0,240
6,76,0,0
6,73,100,0
6,76,127,0
6,73,0,120
6,76,0,0
6,74,100,0
6,78,127,0
6,74,0,600
6,78,0,0
6,74,100,0
6,78,127,0
6,74,0,80
6,78,0,0
6,73,100,0
6,76,127,0
6,73,0,80
6,76,0,0
6,71,100,0
6,74,127,0
6,71,0,80
6,74,0,0
6,74,100,0
6,78,127,0
6,74,0,720
6,78,0,0
6,73,100,0
6,76,127,0
6,73,0,240
6,76,0,0
6,73,100,0
6,76,127,0
6,73,0,120
6,76,0,0
6,74,100,0
6,78,127,0
6,74,0,600
6,78,0,0
6,73,100,0
6,76,127,0
6,73,0,240
6,76,0,0
6,73,100,0
6,76,127,0
6,73,0,120
6,76,0,0
6,74,100,0
6,78,127,0
6,74,0,600
6,78,0,0
6,73,100,0
6,76,127,0
6,73,0,240
6,76,0,0
6,73,100,0
6,76,127,0
6,73,0,120
6,76,0,0
6,74,100,0
6,78,127,0
6,74,0,600
6,78,0,0
6,74,100,0
6,78,127,0
6,74,0,80
6,78,0,0
6,73,100,0
6,76,127,0
6,73,0,80
6,76,0,0
6,71,100,0
6,74,127,0
6,71,0,80
6,74,0,0
6,74,100,0
6,78,127,0
6,74,0,960
6,78,0,0
7,71,127,8400
7,71,0,90
7,74,127,0
7,74,0,30
7,76,127,0
7,76,0,210
7,74,127,0
7,74,0,30
7,76,127,0
7,76,0,30
7,74,127,0
7,74,0,30
7,78,127,0
7,78,0,120
7,69,127,900
7,69,0,90
7,73,127,0
7,73,0,30
7,76,127,0
7,76,0,90
7,74,127,0
7,74,0,30
7,78,127,0
7,78,0,180
7,79,127,0
7,79,0,30
7,78,127,0
7,78,0,30
7,76,127,0
7,76,0,240
7,76,127,600
7,76,0,120
7,76,127,0
7,76,0,120
7,76,127,0
7,76,0,120
7,74,127,360
7,74,0,120
7,71,127,0
7,71,0,120
7,73,127,0
7,73,0,30
7,74,127,0
7,74,0,30
7,73,127,0
7,73,0,300
7,73,127,0
7,73,0,120
7,73,127,0
7,73,0,120
7,73,127,0
7,73,0,120
7,71,127,0
7,71,0,20
7,73,127,0
7,73,0,20
7,71,127,0
7,71,0,20
7,70,127,0
7,70,0,660
7,76,127,480
7,76,0,120
7,76,127,0
7,76,0,30
7,74,127,0
7,74,0,90
7,78,127,0
7,78,0,120
7,71,127,1080
7,71,0,120
7,78,127,0
7,78,0,240
7,79,127,0
7,79,0,30
7,78,127,0
7,78,0,30
7,76,127,0
7,76,0,180
7,76,127,840
7,76,0,120
7,76,127,0
7,76,0,120
7,76,127,0
7,76,0,120
7,74,127,360
7,74,0,600
7,73,127,120
7,73,0,240
7,74,127,0
7,74,0,20
7,76,127,0
7,76,0,20
7,74,127,0
7,74,0,20
7,73,127,0
7,73,0,300
7,73,100,0
7,76,127,0
7,73,0,360
7,76,0,0
7,73,100,0
7,76,127,0
7,73,0,120
7,76,0,0
7,74,100,0
7,78,127,0
7,74,0,960
7,78,0,0
7,73,100,0
7,76,127,0
7,73,0,360
7,76,0,0
7,73,100,0
7,76,127,0
7,73,0,120
7,76,0,0
7,74,100,0
7,78,127,0
7,74,0,960
7,78,0,0
7,73,100,0
7,76,127,0
7,73,0,360
7,76,0,0
7,73,100,0
7,76,127,0
7,73,0,120
7,76,0,0
7,74,100,0
7,78,127,0
7,74,0,960
7,78,0,0
7,74,100,0
7,78,127,0
7,74,0,120
7,78,0,0
7,73,100,0
7,76,127,0
7,73,0,120
7,76,0,0
7,71,100,0
7,74,127,0
7,71,0,120
7,74,0,0
7,73,100,0
7,78,127,0
7,73,0,1080
7,78,0,0
7,73,100,0
7,76,127,0
7,73,0,360
7,76,0,0
7,73,100,0
7,76,127,0
7,73,0,120
7,76,0,0
7,74,100,0
7,78,127,0
7,74,0,960
7,78,0,0
7,73,100,0
7,76,127,0
7,73,0,360
7,76,0,0
7,73,100,0
7,76,127,0
7,73,0,120
7,76,0,0
7,74,100,0
7,78,127,0
7,74,0,960
7,78,0,0
7,73,100,0
7,76,127,0
7,73,0,360
7,76,0,0
7,73,100,0
7,76,127,0
7,73,0,120
7,76,0,0
7,74,100,0
7,78,127,0
7,74,0,960
7,78,0,0
7,74,100,0
7,78,127,0
7,74,0,120
7,78,0,0
7,73,100,0
7,76,127,0
7,73,0,120
7,76,0,0
7,71,100,0
7,74,127,0
7,71,0,120
7,74,0,0
7,73,100,0
7,78,127,0
7,73,0,1080
7,78,0,0
7,71,127,840
7,71,0,90
7,74,127,0
7,74,0,30
7,76,127,0
7,76,0,90
7,74,127,0
7,74,0,30
7,76,127,0
7,76,0,30
7,74,127,0
7,74,0,30
7,78,127,0
7,78,0,300
7,78,127,840
7,78,0,120
7,78,127,0
7,78,0,120
7,78,127,0
7,78,0,120
7,79,127,0
7,79,0,30
7,78,127,0
7,78,0,90
7,76,127,0
7,76,0,120
7,76,127,840
7,76,0,120
7,76,127,0
7,76,0,120
7,76,127,0
7,76,0,120
7,78,127,720
7,78,0,360
7,78,127,0
7,78,0,120
7,83,127,0
7,83,0,120
7,78,127,0
7,78,0,90
7,76,127,0
7,76,0,270
7,73,100,0
7,76,127,0
7,73,0,360
7,76,0,0
7,73,100,0
7,76,127,0
7,73,0,120
7,76,0,0
7,74,100,0
7,78,127,0
7,74,0,960
7,78,0,0
7,73,100,0
7,76,127,0
7,73,0,360
7,76,0,0
7,73,100,0
7,76,127,0
7,73,0,120
7,76,0,0
7,74,100,0
7,78,127,0
7,74,0,960
7,78,0,0
7,73,100,0
7,76,127,0
7,73,0,360
7,76,0,0
7,73,100,0
7,76,127,0
7,73,0,120
7,76,0,0
7,74,100,0
7,78,127,0
7,74,0,960
7,78,0,0
7,74,100,0
7,78,127,0
7,74,0,120
7,78,0,0
7,73,100,0
7,76,127,0
7,73,0,120
7,76,0,0
7,71,100,0
7,74,127,0
7,71,0,120
7,74,0,0
7,73,100,0
7,78,127,0
7,73,0,1080
7,78,0,0
7,73,100,0
7,76,127,0
7,73,0,360
7,76,0,0
7,73,100,0
7,76,127,0
7,73,0,120
7,76,0,0
7,74,100,0
7,78,127,0
7,74,0,960
7,78,0,0
7,73,100,0
7,76,127,0
7,73,0,360
7,76,0,0
7,73,100,0
7,76,127,0
7,73,0,120
7,76,0,0
7,74,100,0
7,78,127,0
7,74,0,960
7,78,0,0
7,73,100,0
7,76,127,0
7,73,0,360
7,76,0,0
7,73,100,0
7,76,127,0
7,73,0,120
7,76,0,0
7,74,100,0
7,78,127,0
7,74,0,960
7,78,0,0
7,74,100,0
7,78,127,0
7,74,0,120
7,78,0,0
7,73,100,0
7,76,127,0
7,73,0,120
7,76,0,0
7,71,100,0
7,74,127,0
7,71,0,120
7,74,0,0
7,73,100,0
7,78,127,0
7,73,0,1080
7,78,0,0
7,73,100,18720
7,76,127,0
7,73,0,360
7,76,0,0
7,73,100,0
7,76,127,0
7,73,0,120
7,76,0,0
7,74,100,0
7,78,127,0
7,74,0,960
7,78,0,0
7,73,100,0
7,76,127,0
7,73,0,360
7,76,0,0
7,73,100,0
7,76,127,0
7,73,0,120
7,76,0,0
7,74,100,0
7,78,127,0
7,74,0,960
7,78,0,0
7,73,100,0
7,76,127,0
7,73,0,360
7,76,0,0
7,73,100,0
7,76,127,0
7,73,0,120
7,76,0,0
7,74,100,0
7,78,127,0
7,74,0,960
7,78,0,0
7,74,100,0
7,78,127,0
7,74,0,120
7,78,0,0
7,73,100,0
7,76,127,0
7,73,0,120
7,76,0,0
7,71,100,0
7,74,127,0
7,71,0,120
7,74,0,0
