track,note,velocity,time
1,38,107,2880
1,38,107,192
1,38,107,288
1,38,107,288
1,38,107,288
1,38,107,288
1,38,107,288
1,38,107,288
1,38,107,288
1,38,107,288
1,38,107,288
1,38,107,288
1,38,107,288
1,38,107,288
1,38,107,288
1,38,107,288
1,38,107,288
1,38,107,288
1,38,107,288
1,38,107,288
1,38,107,288
1,38,107,288
1,38,107,288
1,38,107,288
1,38,107,288
1,38,107,288
1,38,107,288
1,38,107,288
1,38,107,288
1,38,107,288
1,38,107,288
1,38,107,288
1,38,107,288
1,38,107,0
1,38,107,288
1,38,107,288
1,38,107,288
1,38,107,288
1,38,107,288
1,38,107,288
1,38,107,384
1,38,107,0
1,38,107,96
1,38,107,0
1,38,107,96
1,38,107,0
1,38,107,192
1,38,107,288
1,38,107,288
1,38,107,288
1,38,107,288
1,38,107,288
1,38,107,288
1,38,107,144
1,38,107,0
1,38,107,0
1,38,107,0
1,38,107,0
1,38,107,192
1,38,107,288
1,38,107,288
1,38,107,288
1,38,107,0
1,38,107,240
1,38,107,288
1,38,107,288
1,38,107,288
1,38,107,0
1,38,107,0
1,38,107,192
1,38,107,288
1,38,107,288
1,38,107,288
1,38,107,0
1,38,107,240
1,38,107,288
1,38,107,288
1,38,107,288
1,38,107,0
1,38,107,0
1,38,107,6336
1,38,107,288
1,38,107,288
1,38,107,288
1,38,107,288
1,38,107,288
1,38,107,288
1,38,107,288
1,38,107,288
1,38,107,288
1,38,107,288
1,38,107,288
1,38,107,288
1,38,107,288
1,38,107,288
1,38,107,288
1,38,107,288
1,38,107,288
1,38,107,288
1,38,107,288
1,38,107,288
1,38,107,288
1,38,107,288
1,38,107,288
1,38,107,288
1,38,107,288
1,38,107,288
1,38,107,288
1,38,107,288
1,38,107,288
1,38,107,288
1,38,107,288
1,38,107,0
1,38,107,0
1,38,107,24
1,38,107,48
1,38,107,0
1,38,107,0
1,38,107,24
1,38,107,48
1,38,107,0
1,38,107,0
1,38,107,24
1,38,107,48
1,38,107,0
1,38,107,0
1,38,107,24
1,38,107,48
2,44,107,0
2,44,107,0
2,44,107,0
2,44,107,0
2,44,107,0
2,44,107,0
2,44,107,0
2,44,107,0
2,44,107,0
2,44,107,0
2,44,107,0
2,44,107,0
2,44,107,0
2,44,107,0
2,44,107,0
2,42,107,336
2,42,107,0
2,42,107,0
2,42,107,48
2,42,107,144
2,42,107,0
2,42,107,0
2,42,107,48
2,42,107,144
2,42,107,0
2,42,107,0
2,42,107,48
2,42,107,144
2,42,107,0
2,42,107,0
2,42,107,48
2,42,107,144
2,42,107,0
2,42,107,0
2,42,107,48
2,42,107,144
2,42,107,0
2,42,107,0
2,42,107,48
2,42,107,144
2,42,107,0
2,42,107,0
2,42,107,48
2,42,107,144
2,42,107,0
2,42,107,0
2,77,107,48
2,42,107,144
2,42,107,0
2,42,107,0
2,42,107,48
2,42,107,144
2,42,107,0
2,42,107,0
2,42,107,48
2,42,107,144
2,42,107,0
2,42,107,0
2,42,107,48
2,42,107,144
2,42,107,0
2,42,107,0
2,42,107,48
2,42,107,144
2,42,107,0
2,42,107,0
2,42,107,48
2,42,107,144
2,42,107,0
2,42,107,0
2,42,107,48
2,42,107,144
2,42,107,0
2,42,107,0
2,42,107,48
2,42,107,144
2,42,107,0
2,42,107,0
2,77,107,48
2,42,107,144
2,42,107,0
2,42,107,0
2,42,107,48
2,42,107,144
2,42,107,0
2,42,107,0
2,42,107,48
2,42,107,144
2,42,107,0
2,42,107,0
2,42,107,48
2,42,107,144
2,42,107,0
2,42,107,0
2,42,107,48
2,42,107,144
2,42,107,0
2,42,107,0
2,42,107,48
2,42,107,144
2,42,107,0
2,42,107,0
2,42,107,48
2,42,107,144
2,42,107,0
2,42,107,0
2,42,107,48
2,42,107,144
2,42,107,0
2,42,107,0
2,77,107,48
2,42,107,144
2,42,107,0
2,42,107,0
2,42,107,48
2,42,107,144
2,42,107,0
2,42,107,0
2,42,107,48
2,42,107,144
2,42,107,0
2,42,107,0
2,42,107,48
2,42,107,144
2,42,107,0
2,42,107,0
2,42,107,48
2,42,107,144
2,42,107,0
2,42,107,0
2,42,107,48
2,42,107,144
2,42,107,0
2,42,107,0
2,42,107,48
2,42,107,144
2,42,107,0
2,42,107,0
2,42,107,48
2,42,107,144
2,42,107,0
2,42,107,0
2,77,107,48
2,42,107,144
2,42,107,0
2,42,107,0
2,42,107,48
2,42,107,144
2,42,107,0
2,42,107,0
2,42,107,48
2,42,107,144
2,42,107,0
2,42,107,0
2,42,107,48
2,42,107,144
2,42,107,0
2,42,107,0
2,42,107,48
2,42,107,144
2,42,107,0
2,42,107,0
2,42,107,48
2,42,107,144
2,42,107,0
2,42,107,0
2,42,107,48
2,42,107,144
2,42,107,0
2,42,107,0
2,42,107,48
2,42,107,144
2,77,107,144
2,42,107,144
2,42,107,0
2,42,107,0
2,42,107,48
2,42,107,144
2,42,107,0
2,42,107,0
2,42,107,48
2,42,107,144
2,42,107,0
2,42,107,0
2,42,107,48
2,42,107,144
2,42,107,0
2,42,107,0
2,42,107,48
2,42,107,144
2,42,107,0
2,42,107,0
2,42,107,48
2,42,107,144
2,42,107,0
2,42,107,0
2,42,107,48
2,42,107,144
2,42,107,0
2,42,107,0
2,42,107,48
2,42,107,144
2,42,107,0
2,42,107,0
2,77,107,48
2,42,107,144
2,42,107,0
2,42,107,0
2,42,107,48
2,42,107,144
2,42,107,0
2,42,107,0
2,42,107,48
2,42,107,144
2,42,107,0
2,42,107,0
2,42,107,48
2,42,107,144
2,42,107,0
2,42,107,0
2,42,107,48
2,42,107,144
2,42,107,0
2,42,107,0
2,42,107,48
2,42,107,144
2,42,107,0
2,42,107,0
2,42,107,48
2,42,107,144
2,42,107,0
2,42,107,0
2,42,107,48
2,42,107,144
2,42,107,0
2,42,107,0
2,77,107,48
2,42,107,144
2,42,107,0
2,42,107,0
2,42,107,48
2,42,107,144
2,42,107,0
2,42,107,0
2,42,107,48
2,42,107,144
2,42,107,0
2,42,107,0
2,42,107,48
2,42,107,144
2,42,107,0
2,42,107,0
2,42,107,48
2,42,107,144
2,42,107,0
2,42,107,0
2,42,107,48
2,42,107,144
2,42,107,0
2,42,107,0
2,42,107,48
2,42,107,144
2,42,107,0
2,42,107,0
2,42,107,48
2,42,107,144
2,42,107,0
2,42,107,0
2,77,107,48
2,42,107,144
2,42,107,0
2,42,107,0
2,42,107,48
2,42,107,144
2,42,107,0
2,42,107,0
2,42,107,48
2,42,107,144
2,42,107,0
2,42,107,0
2,42,107,48
2,42,107,144
2,42,107,0
2,42,107,0
2,42,107,48
2,42,107,144
2,42,107,0
2,42,107,0
2,42,107,48
2,42,107,144
2,42,107,0
2,42,107,0
2,42,107,48
2,42,107,144
2,42,107,0
2,42,107,0
2,42,107,48
2,42,107,144
2,42,107,0
2,42,107,0
2,77,107,48
2,42,107,144
2,42,107,0
2,42,107,0
2,42,107,48
2,42,107,144
2,42,107,0
2,42,107,0
2,42,107,48
2,42,107,144
2,42,107,0
2,42,107,0
2,42,107,48
2,42,107,144
2,42,107,0
2,42,107,0
2,42,107,48
2,42,107,144
2,42,107,0
2,42,107,0
2,42,107,48
2,42,107,144
2,42,107,0
2,42,107,0
2,42,107,48
2,42,107,144
2,42,107,0
2,42,107,0
2,42,107,48
2,42,107,144
2,42,107,0
2,42,107,0
2,77,107,48
2,42,107,144
2,42,107,0
2,42,107,0
2,42,107,48
2,42,107,144
2,42,107,0
2,42,107,0
2,42,107,48
2,42,107,144
2,42,107,0
2,42,107,0
2,42,107,48
2,42,107,144
2,42,107,0
2,42,107,0
2,42,107,48
2,42,107,144
2,42,107,0
2,42,107,0
2,42,107,48
2,42,107,144
2,42,107,0
2,42,107,0
2,42,107,48
2,42,107,144
2,42,107,0
2,42,107,0
2,42,107,48
2,42,107,144
2,42,107,0
2,42,107,0
2,77,107,48
2,42,107,144
2,42,107,0
2,42,107,0
2,42,107,48
2,42,107,144
2,42,107,0
2,42,107,0
2,42,107,48
2,42,107,144
2,42,107,0
2,42,107,0
2,42,107,48
2,42,107,144
2,42,107,0
2,42,107,0
2,42,107,48
2,42,107,144
2,42,107,0
2,42,107,0
2,42,107,48
2,42,107,144
2,42,107,0
2,42,107,0
2,42,107,48
2,42,107,144
2,42,107,0
2,42,107,0
2,42,107,48
2,42,107,144
2,42,107,0
2,42,107,0
2,77,107,48
2,42,107,144
2,42,107,0
2,42,107,0
2,42,107,48
2,42,107,144
2,42,107,0
2,42,107,0
2,42,107,48
2,42,107,144
2,42,107,0
2,42,107,0
2,42,107,48
2,42,107,144
2,42,107,0
2,42,107,0
2,42,107,48
2,42,107,144
2,42,107,0
2,42,107,0
2,42,107,48
2,42,107,144
2,42,107,0
2,42,107,0
2,42,107,48
2,42,107,144
2,42,107,0
2,42,107,0
2,42,107,48
2,42,107,144
2,42,107,0
2,42,107,0
2,77,107,48
2,42,107,144
2,42,107,0
2,42,107,0
2,42,107,48
2,42,107,144
2,42,107,0
2,42,107,0
2,42,107,48
2,42,107,144
2,42,107,0
2,42,107,0
2,42,107,48
2,42,107,144
2,42,107,0
2,42,107,0
2,42,107,48
2,42,107,144
2,42,107,0
2,42,107,0
2,42,107,48
2,42,107,144
2,42,107,0
2,42,107,0
2,42,107,48
2,42,107,144
2,42,107,0
2,42,107,0
2,42,107,48
2,42,107,144
2,42,107,0
2,42,107,0
2,77,107,48
2,42,107,48
2,42,107,0
2,42,107,0
2,42,107,48
2,42,107,0
2,42,107,0
2,42,107,0
2,42,107,0
2,42,107,0
2,42,107,0
2,42,107,0
2,42,107,24
2,42,107,24
2,42,107,0
2,42,107,0
2,42,107,24
2,42,107,48
2,42,107,0
2,42,107,0
2,42,107,48
2,42,107,0
2,42,107,0
2,42,107,0
2,42,107,0
2,42,107,0
2,42,107,0
2,42,107,0
2,42,107,24
2,42,107,24
2,42,107,0
2,42,107,0
2,77,107,24
2,42,107,48
2,42,107,0
2,42,107,0
2,42,107,48
2,42,107,0
2,42,107,0
2,42,107,0
2,42,107,0
2,42,107,0
2,42,107,0
2,42,107,0
2,42,107,24
2,42,107,24
2,42,107,0
2,42,107,0
2,42,107,24
2,42,107,48
2,42,107,0
2,42,107,0
2,42,107,48
2,42,107,0
2,42,107,0
2,42,107,0
2,42,107,0
2,42,107,0
2,42,107,0
2,42,107,0
2,42,107,24
2,42,107,24
2,42,107,0
2,42,107,0
3,36,107,288
3,36,107,0
3,36,107,192
3,36,107,144
3,36,107,144
3,36,107,144
3,36,107,144
3,36,107,144
3,36,107,144
3,36,107,144
3,36,107,144
3,36,107,144
3,36,107,144
3,36,107,144
3,36,107,144
3,36,107,144
3,36,107,144
3,36,107,144
3,36,107,144
3,36,107,144
3,36,107,144
3,36,107,144
3,36,107,144
3,36,107,144
3,36,107,144
3,36,107,144
3,36,107,144
3,36,107,144
3,36,107,144
3,36,107,144
3,36,107,144
3,36,107,144
3,36,107,144
3,36,107,144
3,36,107,144
3,36,107,144
3,36,107,144
3,36,107,144
3,36,107,144
3,36,107,144
3,36,107,144
3,36,107,144
3,36,107,144
3,36,107,144
3,36,107,144
3,36,107,144
3,36,107,144
3,36,107,144
3,36,107,144
3,36,107,144
3,36,107,144
3,36,107,144
3,36,107,144
3,36,107,144
3,36,107,144
3,36,107,144
3,36,107,144
3,36,107,144
3,36,107,144
3,36,107,144
3,36,107,144
3,36,107,144
3,36,107,144
3,36,107,144
3,36,107,144
3,36,107,144
3,36,107,144
3,36,107,144
3,36,107,144
3,36,107,144
3,36,107,144
3,36,107,144
3,36,107,144
3,36,107,144
3,36,107,144
3,36,107,144
3,36,107,144
3,36,107,144
3,36,107,144
3,36,107,144
3,36,107,144
3,36,107,144
3,36,107,144
3,36,107,144
3,36,107,144
3,36,107,144
3,36,107,144
3,36,107,144
3,36,107,144
3,36,107,144
3,36,107,144
3,36,107,144
3,36,107,144
3,36,107,144
3,36,107,144
3,36,107,144
3,36,107,144
3,36,107,144
3,36,107,144
3,36,107,144
3,36,107,144
3,36,107,144
3,36,107,144
3,36,107,144
3,36,107,144
3,36,107,144
3,36,107,144
3,36,107,144
3,36,107,144
3,36,107,144
3,36,107,144
3,36,107,144
3,36,107,144
3,36,107,144
3,36,107,144
3,36,107,144
3,36,107,144
3,36,107,144
3,36,107,144
3,36,107,144
3,36,107,144
3,36,107,144
3,36,107,144
3,36,107,144
3,36,107,144
3,36,107,144
3,36,107,144
3,36,107,144
3,36,107,144
3,36,107,144
3,36,107,144
3,36,107,144
3,36,107,144
3,36,107,144
3,36,107,144
3,36,107,144
3,36,107,144
3,36,107,144
3,36,107,144
3,36,107,144
3,36,107,144
3,36,107,144
3,36,107,144
3,36,107,144
3,36,107,144
3,36,107,144
3,36,107,144
3,36,107,144
3,36,107,144
3,36,107,144
3,36,107,144
3,36,107,144
3,36,107,144
3,36,107,144
3,36,107,144
3,36,107,144
3,36,107,144
3,36,107,144
3,36,107,144
3,36,107,144
3,36,107,144
3,36,107,144
3,36,107,144
3,36,107,144
3,36,107,144
3,36,107,144
3,36,107,144
3,36,107,144
3,36,107,144
3,36,107,144
3,36,107,144
3,36,107,144
3,36,107,144
3,36,107,144
3,36,107,144
3,36,107,144
3,36,107,144
3,36,107,144
3,36,107,144
3,36,107,144
3,36,107,144
3,36,107,144
3,36,107,144
3,36,107,144
3,36,107,144
3,36,107,144
3,36,107,144
3,36,107,144
3,36,107,144
3,36,107,144
3,36,107,144
3,36,107,144
3,36,107,144
3,36,107,144
3,36,107,144
3,36,107,144
3,36,107,144
3,36,107,144
3,36,107,144
3,36,107,144
3,36,107,144
3,36,107,144
3,36,107,144
3,36,107,144
3,36,107,144
3,36,107,144
3,36,107,144
3,36,107,144
3,36,107,144
3,36,107,144
3,36,107,144
3,36,107,144
3,36,107,144
3,36,107,144
3,36,107,144
3,36,107,144
3,36,107,144
3,36,107,144
3,36,107,144
3,36,107,144
3,36,107,144
3,36,107,144
3,36,107,144
3,36,107,144
3,36,107,144
3,36,107,144
3,36,107,0
3,36,107,0
3,36,107,0
3,36,107,0
3,36,107,24
3,36,107,24
3,36,107,24
3,36,107,48
3,36,107,0
3,36,107,0
3,36,107,0
3,36,107,0
3,36,107,24
3,36,107,24
3,36,107,24
3,36,107,48
3,36,107,0
3,36,107,0
3,36,107,0
3,36,107,0
3,36,107,24
3,36,107,24
3,36,107,24
3,36,107,48
3,36,107,0
3,36,107,0
3,36,107,0
3,36,107,0
3,36,107,24
3,36,107,24
3,36,107,24
3,36,107,48
4,52,107,1536
4,40,107,48
4,52,107,42
4,52,107,0
4,52,107,0
4,52,107,0
4,52,107,0
4,40,107,48
4,52,107,42
4,52,107,0
4,52,107,0
4,52,107,0
4,57,107,48
4,45,107,42
4,57,107,42
4,57,107,0
4,57,107,0
4,57,107,0
4,57,107,0
4,45,107,48
4,57,107,42
4,57,107,0
4,40,107,12
4,52,107,96
4,52,107,90
4,40,107,96
4,52,107,90
4,52,107,90
4,45,107,96
4,57,107,90
4,57,107,90
4,45,107,96
4,57,107,90
4,57,107,90
4,40,107,96
4,52,107,90
4,52,107,90
4,40,107,96
4,52,107,90
4,52,107,90
4,45,107,96
4,57,107,90
4,57,107,90
4,45,107,96
4,57,107,90
4,57,107,90
4,45,107,96
4,57,107,90
4,57,107,90
4,45,107,96
4,57,107,90
4,57,107,90
4,50,107,96
4,62,107,90
4,62,107,90
4,50,107,96
4,62,107,90
4,62,107,90
4,45,107,96
4,57,107,90
4,57,107,90
4,45,107,96
4,57,107,90
4,57,107,90
4,40,107,96
4,52,107,90
4,52,107,90
4,40,107,96
4,52,107,90
4,52,107,90
4,45,107,96
4,57,107,90
4,57,107,90
4,45,107,96
4,57,107,90
4,45,107,90
4,40,107,96
4,52,107,90
4,52,107,90
4,40,107,96
4,52,107,90
4,52,107,90
4,45,107,96
4,57,107,90
4,57,107,90
4,45,107,96
4,57,107,90
4,45,107,90
4,45,107,95
4,43,107,90
