track,note,velocity,time
1,81,48,51840
1,81,0,80
1,79,35,0
1,79,0,80
1,81,38,0
1,81,0,80
1,79,35,0
1,79,0,80
1,81,38,0
1,81,0,80
1,79,36,0
1,79,0,80
1,81,40,0
1,81,0,80
1,79,36,0
1,79,0,80
1,81,40,0
1,81,0,80
1,79,36,0
1,79,0,80
1,81,40,0
1,81,0,80
1,79,36,0
1,79,0,80
1,81,40,0
1,81,0,80
1,79,37,0
1,79,0,80
1,81,40,0
1,81,0,80
1,79,36,0
1,79,0,80
1,81,40,0
1,81,0,80
1,79,36,0
1,79,0,80
1,81,40,0
1,81,0,80
1,79,35,0
1,79,0,80
1,81,38,0
1,81,0,80
1,79,33,0
1,79,0,80
1,81,38,0
1,81,0,80
1,79,34,0
1,79,0,80
1,81,38,0
1,81,0,80
1,79,34,0
1,79,0,80
1,81,36,0
1,81,0,80
1,79,33,0
1,79,0,80
1,81,37,0
1,81,0,80
1,79,33,0
1,79,0,80
1,81,37,0
1,81,0,80
1,79,33,0
1,79,0,80
1,81,38,0
1,81,0,80
1,79,32,0
1,79,0,80
1,81,37,0
1,81,0,80
1,79,32,0
1,79,0,80
1,81,38,0
1,81,0,80
1,79,32,0
1,79,0,80
1,81,37,0
1,81,0,80
1,79,32,0
1,79,0,80
1,81,36,0
1,81,0,80
1,79,32,0
1,79,0,80
1,81,36,0
1,81,0,80
1,79,34,0
1,79,0,80
1,81,37,0
1,81,0,80
1,79,33,0
1,79,0,80
1,81,36,0
1,81,0,80
1,79,32,0
1,79,0,80
1,81,36,0
1,81,0,80
1,79,32,0
1,79,0,80
1,81,37,0
1,81,0,80
1,79,33,0
1,79,0,80
1,81,38,0
1,81,0,80
1,79,33,0
1,79,0,80
1,81,39,0
1,81,0,80
1,79,35,0
1,79,0,80
1,81,40,0
1,81,0,80
1,79,36,0
1,79,0,80
1,81,40,0
1,81,0,80
1,79,36,0
1,79,0,80
1,81,40,0
1,81,0,80
1,79,37,0
1,79,0,80
1,81,40,0
1,81,0,80
1,79,36,0
1,79,0,80
1,81,40,0
1,81,0,80
1,79,36,0
1,79,0,80
1,81,39,0
1,81,0,80
1,79,36,0
1,79,0,80
1,81,38,0
1,81,0,80
1,79,32,0
1,79,0,80
1,81,37,0
1,81,0,80
1,79,33,0
1,79,0,80
1,81,39,0
1,81,0,80
1,79,32,0
1,79,0,80
1,81,36,0
1,81,0,80
1,79,31,0
1,79,0,80
1,81,36,0
1,81,0,80
1,79,30,0
1,79,0,80
1,81,36,0
1,81,0,80
1,79,31,0
1,79,0,80
1,81,36,0
1,81,0,80
1,79,34,0
1,79,0,80
1,78,36,0
1,78,0,80
1,79,31,0
1,79,0,80
1,81,48,101760
1,81,0,80
1,79,35,0
1,79,0,80
1,81,38,0
1,81,0,80
1,79,35,0
1,79,0,80
1,81,38,0
1,81,0,80
1,79,36,0
1,79,0,80
1,81,40,0
1,81,0,80
1,79,36,0
1,79,0,80
1,81,40,0
1,81,0,80
1,79,36,0
1,79,0,80
1,81,40,0
1,81,0,80
1,79,36,0
1,79,0,80
1,81,40,0
1,81,0,80
1,79,37,0
1,79,0,80
1,81,40,0
1,81,0,80
1,79,36,0
1,79,0,80
1,81,40,0
1,81,0,80
1,79,36,0
1,79,0,80
1,81,40,0
1,81,0,80
1,79,35,0
1,79,0,80
1,81,38,0
1,81,0,80
1,79,33,0
1,79,0,80
1,81,38,0
1,81,0,80
1,79,34,0
1,79,0,80
1,81,38,0
1,81,0,80
1,79,34,0
1,79,0,80
1,81,36,0
1,81,0,80
1,79,33,0
1,79,0,80
1,81,37,0
1,81,0,80
1,79,33,0
1,79,0,80
1,81,37,0
1,81,0,80
1,79,33,0
1,79,0,80
1,81,38,0
1,81,0,80
1,79,32,0
1,79,0,80
1,81,37,0
1,81,0,80
1,79,32,0
1,79,0,80
1,81,38,0
1,81,0,80
1,79,32,0
1,79,0,80
1,81,37,0
1,81,0,80
1,79,32,0
1,79,0,80
1,81,36,0
1,81,0,80
1,79,32,0
1,79,0,80
1,81,36,0
1,81,0,80
1,79,34,0
1,79,0,80
1,81,37,0
1,81,0,80
1,79,33,0
1,79,0,80
1,81,36,0
1,81,0,80
1,79,32,0
1,79,0,80
1,81,36,0
1,81,0,80
1,79,32,0
1,79,0,80
1,81,37,0
1,81,0,80
1,79,33,0
1,79,0,80
1,81,38,0
1,81,0,80
1,79,33,0
1,79,0,80
1,81,39,0
1,81,0,80
1,79,35,0
1,79,0,80
1,81,40,0
1,81,0,80
1,79,36,0
1,79,0,80
1,81,40,0
1,81,0,80
1,79,36,0
1,79,0,80
1,81,40,0
1,81,0,80
1,79,37,0
1,79,0,80
1,81,40,0
1,81,0,80
1,79,36,0
1,79,0,80
1,81,40,0
1,81,0,80
1,79,36,0
1,79,0,80
1,81,39,0
1,81,0,80
1,79,36,0
1,79,0,80
1,81,38,0
1,81,0,80
1,79,32,0
1,79,0,80
1,81,37,0
1,81,0,80
1,79,33,0
1,79,0,80
1,81,39,0
1,81,0,80
1,79,32,0
1,79,0,80
1,81,36,0
1,81,0,80
1,79,31,0
1,79,0,80
1,81,36,0
1,81,0,80
1,79,30,0
1,79,0,80
1,81,36,0
1,81,0,80
1,79,31,0
1,79,0,80
1,81,36,0
1,81,0,80
1,79,34,0
1,79,0,80
1,78,36,0
1,78,0,80
1,79,31,0
1,79,0,80
1,81,48,155520
1,81,0,80
1,79,35,0
1,79,0,80
1,81,38,0
1,81,0,80
1,79,35,0
1,79,0,80
1,81,38,0
1,81,0,80
1,79,36,0
1,79,0,80
1,81,40,0
1,81,0,80
1,79,36,0
1,79,0,80
1,81,40,0
1,81,0,80
1,79,36,0
1,79,0,80
1,81,40,0
1,81,0,80
1,79,36,0
1,79,0,80
1,81,40,0
1,81,0,80
1,79,37,0
1,79,0,80
1,81,40,0
1,81,0,80
1,79,36,0
1,79,0,80
1,81,40,0
1,81,0,80
1,79,36,0
1,79,0,80
1,81,40,0
1,81,0,80
1,79,35,0
1,79,0,80
1,81,38,0
1,81,0,80
1,79,33,0
1,79,0,80
1,81,38,0
1,81,0,80
1,79,34,0
1,79,0,80
1,81,38,0
1,81,0,80
1,79,34,0
1,79,0,80
1,81,36,0
1,81,0,80
1,79,33,0
1,79,0,80
1,81,37,0
1,81,0,80
1,79,33,0
1,79,0,80
1,81,37,0
1,81,0,80
1,79,33,0
1,79,0,80
1,81,38,0
1,81,0,80
1,79,32,0
1,79,0,80
1,81,37,0
1,81,0,80
1,79,32,0
1,79,0,80
1,81,38,0
1,81,0,80
1,79,32,0
1,79,0,80
1,81,37,0
1,81,0,80
1,79,32,0
1,79,0,80
1,81,36,0
1,81,0,80
1,79,32,0
1,79,0,80
1,81,36,0
1,81,0,80
1,79,34,0
1,79,0,80
1,81,37,0
1,81,0,80
1,79,33,0
1,79,0,80
1,81,36,0
1,81,0,80
1,79,32,0
1,79,0,80
1,81,36,0
1,81,0,80
1,79,32,0
1,79,0,80
1,81,37,0
1,81,0,80
1,79,33,0
1,79,0,80
1,81,38,0
1,81,0,80
1,79,33,0
1,79,0,80
1,81,39,0
1,81,0,80
1,79,35,0
1,79,0,80
1,81,40,0
1,81,0,80
1,79,36,0
1,79,0,80
1,81,40,0
1,81,0,80
1,79,36,0
1,79,0,80
1,81,40,0
1,81,0,80
1,79,37,0
1,79,0,80
1,81,40,0
1,81,0,80
1,79,36,0
1,79,0,80
1,81,40,0
1,81,0,80
1,79,36,0
1,79,0,80
1,81,39,0
1,81,0,80
1,79,36,0
1,79,0,80
1,81,38,0
1,81,0,80
1,79,32,0
1,79,0,80
1,81,37,0
1,81,0,80
1,79,33,0
1,79,0,80
1,81,39,0
1,81,0,80
1,79,32,0
1,79,0,80
1,81,36,0
1,81,0,80
1,79,31,0
1,79,0,80
1,81,36,0
1,81,0,80
1,79,30,0
1,79,0,80
1,81,36,0
1,81,0,80
1,79,31,0
1,79,0,80
1,81,36,0
1,81,0,80
1,79,34,0
1,79,0,80
1,78,36,0
1,78,0,80
1,79,31,0
1,79,0,80
1,79,54,127680
1,79,0,80
1,81,35,0
1,81,0,80
1,79,44,0
1,79,0,80
1,81,38,0
1,81,0,80
1,79,44,0
1,79,0,80
1,81,37,0
1,81,0,80
1,79,41,0
1,79,0,80
1,81,36,0
1,81,0,80
1,79,41,0
1,79,0,80
1,81,37,0
1,81,0,80
1,79,41,0
1,79,0,80
1,81,35,0
1,81,0,80
1,79,41,0
1,79,0,80
1,81,37,0
1,81,0,80
1,79,41,0
1,79,0,80
1,81,36,0
1,81,0,80
1,79,41,0
1,79,0,80
1,81,36,0
1,81,0,80
1,79,41,0
1,79,0,80
1,81,37,0
1,81,0,80
1,79,41,0
1,79,0,80
1,81,37,0
1,81,0,80
1,79,41,0
1,79,0,80
1,81,36,0
1,81,0,80
1,79,41,0
1,79,0,80
1,81,36,0
1,81,0,80
1,79,41,0
1,79,0,80
1,81,37,0
1,81,0,80
1,79,41,0
1,79,0,80
1,81,37,0
1,81,0,80
1,79,41,0
1,79,0,80
1,81,36,0
1,81,0,80
1,79,41,0
1,79,0,80
1,81,37,0
1,81,0,80
1,79,41,0
1,79,0,80
1,81,36,0
1,81,0,80
1,79,40,0
1,79,0,80
1,81,36,0
1,81,0,80
1,79,39,0
1,79,0,80
1,81,35,0
1,81,0,80
1,79,39,0
1,79,0,80
1,81,35,0
1,81,0,80
1,79,39,0
1,79,0,80
1,81,35,0
1,81,0,80
1,79,39,0
1,79,0,80
1,81,35,0
1,81,0,80
1,79,39,0
1,79,0,80
1,81,35,0
1,81,0,80
1,79,36,0
1,79,0,80
1,81,32,0
1,81,0,80
1,79,35,0
1,79,0,80
1,81,31,0
1,81,0,80
1,79,35,0
1,79,0,80
1,81,31,0
1,81,0,80
1,79,35,0
1,79,0,80
1,81,31,0
1,81,0,80
1,79,35,0
1,79,0,80
1,81,31,0
1,81,0,80
1,79,35,0
1,79,0,80
1,81,31,0
1,81,0,80
1,79,36,0
1,79,0,80
1,81,32,0
1,81,0,80
1,79,35,0
1,79,0,80
1,81,31,0
1,81,0,80
1,79,35,0
1,79,0,80
1,81,31,0
1,81,0,80
1,79,35,0
1,79,0,80
1,81,31,0
1,81,0,80
1,79,35,0
1,79,0,80
1,81,31,0
1,81,0,80
1,79,35,0
1,79,0,80
1,81,31,0
1,81,0,80
1,79,36,0
1,79,0,80
1,81,32,0
1,81,0,80
1,79,35,0
1,79,0,80
1,81,32,0
1,81,0,80
1,79,36,0
1,79,0,80
1,81,32,0
1,81,0,80
1,79,37,0
1,79,0,80
1,81,33,0
1,81,0,80
1,79,38,0
1,79,0,80
1,81,34,0
1,81,0,80
1,79,39,0
1,79,0,80
1,81,35,0
1,81,0,80
1,79,41,0
1,79,0,80
1,81,37,0
1,81,0,80
1,79,40,0
1,79,0,80
1,81,36,0
1,81,0,80
1,79,42,0
1,79,0,80
1,81,37,0
1,81,0,80
1,79,42,0
1,79,0,80
1,81,38,0
1,81,0,80
1,79,43,0
1,79,0,80
1,81,39,0
1,81,0,80
1,79,44,0
1,79,0,80
1,81,39,0
1,81,0,80
1,79,46,0
1,79,0,80
1,81,31,0
1,81,0,80
1,79,33,0
1,79,0,80
1,81,29,0
1,81,0,80
1,79,32,0
1,79,0,80
1,81,28,0
1,81,0,80
1,79,31,0
1,79,0,80
1,81,27,0
1,81,0,80
1,79,31,0
1,79,0,80
1,81,27,0
1,81,0,80
1,79,31,0
1,79,0,80
1,81,27,0
1,81,0,80
1,79,32,0
1,79,0,80
1,81,28,0
1,81,0,80
1,79,31,0
1,79,0,80
1,81,27,0
1,81,0,80
1,79,31,0
1,79,0,80
1,81,27,0
1,81,0,80
1,79,31,0
1,79,0,80
1,81,27,0
1,81,0,80
1,79,31,0
1,79,0,80
1,81,27,0
1,81,0,80
1,79,31,0
1,79,0,80
1,81,27,0
1,81,0,80
1,79,37,0
1,79,0,80
1,81,28,0
1,81,0,80
1,79,34,0
1,79,0,80
1,81,28,0
1,81,0,80
1,79,34,0
1,79,0,80
1,81,28,0
1,81,0,80
1,81,27,80
1,81,0,80
1,79,31,0
1,79,0,80
1,81,27,0
1,81,0,80
1,79,31,0
1,79,0,80
1,81,27,0
1,81,0,80
1,79,32,0
1,79,0,80
1,81,28,0
1,81,0,80
1,79,31,0
1,79,0,80
1,81,27,0
1,81,0,80
1,79,31,0
1,79,0,80
1,81,27,0
1,81,0,80
1,79,31,0
1,79,0,80
1,81,27,0
1,81,0,80
1,79,31,0
1,79,0,80
1,81,27,0
1,81,0,80
1,79,31,0
1,79,0,80
1,81,27,0
1,81,0,80
1,79,36,0
1,79,0,80
1,81,31,0
1,81,0,80
1,79,33,0
1,79,0,80
1,81,29,0
1,81,0,80
1,79,32,0
1,79,0,80
1,81,28,0
1,81,0,80
1,79,31,0
1,79,0,80
1,81,27,0
1,81,0,80
1,79,31,0
1,79,0,80
1,81,27,0
1,81,0,80
1,79,31,0
1,79,0,80
1,81,27,0
1,81,0,80
1,79,32,0
1,79,0,80
1,81,28,0
1,81,0,80
1,79,31,0
1,79,0,80
1,81,27,0
1,81,0,80
1,79,31,0
1,79,0,80
1,81,27,0
1,81,0,80
1,79,31,0
1,79,0,80
1,81,27,0
1,81,0,80
1,79,31,0
1,79,0,80
1,81,27,0
1,81,0,80
1,79,31,0
1,79,0,80
1,81,27,0
1,81,0,80
1,79,32,0
1,79,0,80
1,81,28,0
1,81,0,80
1,79,31,0
1,79,0,80
1,81,27,0
1,81,0,80
1,79,31,0
1,79,0,80
1,81,27,0
1,81,0,80
1,79,31,0
1,79,0,80
1,81,27,0
1,81,0,80
1,79,31,0
1,79,0,80
1,81,27,0
1,81,0,80
1,79,31,0
1,79,0,80
1,81,27,0
1,81,0,80
1,79,32,0
1,79,0,80
1,81,28,0
1,81,0,80
1,79,32,0
1,79,0,80
1,81,28,0
1,81,0,80
1,79,34,0
1,79,0,80
1,81,30,0
1,81,0,80
1,79,35,0
1,79,0,80
1,81,31,0
1,81,0,80
1,79,36,0
1,79,0,80
1,81,32,0
1,81,0,80
1,79,38,0
1,79,0,80
1,81,34,0
1,81,0,80
1,80,46,0
1,80,0,80
1,79,31,0
1,79,0,80
1,80,33,0
1,80,0,80
1,79,29,0
1,79,0,80
1,80,32,0
1,80,0,80
1,79,28,0
1,79,0,80
1,80,31,0
1,80,0,80
1,79,27,0
1,79,0,80
1,80,31,0
1,80,0,80
1,79,27,0
1,79,0,80
1,80,31,0
1,80,0,80
1,79,27,0
1,79,0,80
1,80,32,0
1,80,0,80
1,79,28,0
1,79,0,80
1,80,31,0
1,80,0,80
1,79,27,0
1,79,0,80
1,80,31,0
1,80,0,80
1,79,27,0
1,79,0,80
1,80,31,0
1,80,0,80
1,79,27,0
1,79,0,80
1,80,31,0
1,80,0,80
1,79,27,0
1,79,0,80
1,80,31,0
1,80,0,80
1,79,27,0
1,79,0,80
1,80,37,0
1,80,0,80
1,79,28,0
1,79,0,80
1,80,34,0
1,80,0,80
1,79,28,0
1,79,0,80
1,80,34,0
1,80,0,80
1,79,28,0
1,79,0,80
1,80,31,0
1,80,0,80
1,79,27,0
1,79,0,80
1,80,31,0
1,80,0,80
1,79,27,0
1,79,0,80
1,80,31,0
1,80,0,80
1,79,27,0
1,79,0,80
1,80,32,0
1,80,0,80
1,79,28,0
1,79,0,80
1,80,31,0
1,80,0,80
1,79,27,0
1,79,0,80
1,80,31,0
1,80,0,80
1,79,27,0
1,79,0,80
1,80,31,0
1,80,0,80
1,79,27,0
1,79,0,80
1,80,31,0
1,80,0,80
1,79,27,0
1,79,0,80
1,77,31,0
1,77,0,80
1,79,27,0
1,79,0,80
1,80,36,0
1,80,0,80
1,82,31,0
1,82,0,80
1,80,33,0
1,80,0,80
1,82,29,0
1,82,0,80
1,80,32,0
1,80,0,80
1,82,28,0
1,82,0,80
1,75,31,0
1,75,0,80
1,77,27,0
1,77,0,80
1,75,31,0
1,75,0,80
