track,note,velocity,time
1,36,127,6021
1,36,127,106
1,36,127,102
1,36,127,92
1,36,127,99
1,36,127,95
1,36,127,95
1,36,127,108
1,36,127,89
1,36,127,98
1,36,127,101
1,36,127,83
1,36,127,112
1,36,127,100
1,36,127,168
1,36,127,163
1,36,127,122
1,36,127,106
1,36,127,102
1,36,127,92
1,36,127,99
1,36,127,95
1,36,127,95
1,36,127,108
1,36,127,89
1,36,127,98
1,36,127,101
1,36,127,83
1,36,127,112
1,36,127,100
1,36,127,168
1,36,127,163
1,36,127,122
1,36,127,106
1,36,127,102
1,36,127,92
1,36,127,99
1,36,127,95
1,36,127,95
1,36,127,108
1,36,127,89
1,36,127,98
1,36,127,101
1,36,127,83
1,36,127,112
1,36,127,100
1,36,127,72
1,36,127,27
1,36,127,23
1,36,127,19
1,36,127,111
1,36,127,74
1,36,127,38
1,36,127,106
1,36,127,102
1,36,127,92
1,36,127,99
1,36,127,95
1,36,127,95
1,36,127,108
1,36,127,89
1,36,127,98
1,36,127,101
1,36,127,83
1,36,127,112
1,36,127,100
1,36,127,72
1,36,127,27
1,36,127,23
1,36,127,19
1,36,127,111
1,36,127,74
1,36,127,38
1,36,127,106
1,36,127,102
1,36,127,92
1,36,127,99
1,36,127,95
1,36,127,95
1,36,127,108
1,36,127,89
1,36,127,98
1,36,127,101
1,36,127,83
1,36,127,112
1,36,127,100
1,36,127,72
1,36,127,27
1,36,127,23
1,36,127,19
1,36,127,111
1,36,127,74
1,36,127,38
1,36,127,106
1,36,127,102
1,36,127,92
1,36,127,99
1,36,127,95
1,36,127,95
1,36,127,108
1,36,127,89
1,36,127,98
1,36,127,101
1,36,127,83
1,36,127,112
1,36,127,100
1,36,127,72
1,36,127,27
1,36,127,23
1,36,127,19
1,36,127,111
1,36,127,74
1,36,127,38
1,36,127,106
1,36,127,102
1,36,127,92
1,36,127,99
1,36,127,95
1,36,127,95
1,36,127,108
1,36,127,89
1,36,127,98
1,36,127,101
1,36,127,83
1,36,127,112
1,36,127,100
1,36,127,72
1,36,127,27
1,36,127,23
1,36,127,19
1,36,127,111
1,36,127,74
1,36,127,38
1,36,127,106
1,36,127,102
1,36,127,92
1,36,127,99
1,36,127,95
1,36,127,95
1,36,127,108
1,36,127,89
1,36,127,98
1,36,127,101
1,36,127,83
1,36,127,112
1,36,127,100
1,36,127,72
1,36,127,27
1,36,127,23
1,36,127,19
1,36,127,111
1,36,127,74
1,36,127,38
1,36,127,106
1,36,127,102
1,36,127,92
1,36,127,99
1,36,127,95
1,36,127,95
1,36,127,108
1,36,127,89
1,36,127,98
1,36,127,101
1,36,127,83
1,36,127,112
1,36,127,100
1,36,127,72
1,36,127,27
1,36,127,23
1,36,127,19
1,36,127,111
1,36,127,74
1,36,127,38
1,36,127,106
1,36,127,102
1,36,127,92
1,36,127,99
1,36,127,95
1,36,127,95
1,36,127,108
1,36,127,89
1,36,127,98
1,36,127,101
1,36,127,83
1,36,127,112
1,36,127,100
1,36,127,72
1,36,127,27
1,36,127,23
1,36,127,19
1,36,127,111
1,36,127,74
1,36,127,38
1,36,127,106
1,36,127,102
1,36,127,92
1,36,127,99
1,36,127,95
1,36,127,95
1,36,127,108
1,36,127,89
1,36,127,98
1,36,127,101
1,36,127,83
1,36,127,112
1,36,127,100
1,36,127,72
1,36,127,27
1,36,127,23
1,36,127,19
1,36,127,111
1,36,127,74
1,36,127,38
1,36,127,106
1,36,127,102
1,36,127,92
1,36,127,99
1,36,127,95
1,36,127,95
1,36,127,108
1,36,127,89
1,36,127,98
1,36,127,101
1,36,127,83
1,36,127,112
1,36,127,100
1,36,127,72
1,36,127,27
1,36,127,23
1,36,127,19
1,36,127,111
1,36,127,74
1,36,127,38
1,36,127,100
1,36,127,102
1,36,127,115
1,36,127,98
1,36,127,106
1,36,127,105
1,36,127,68
1,36,127,33
1,36,127,29
1,36,127,33
1,36,127,30
1,36,127,31
1,36,127,22
1,36,127,144
1,38,120,144
1,36,127,0
1,36,127,122
1,36,127,114
1,36,127,115
1,36,127,144
1,36,127,69
1,36,127,25
1,36,127,22
1,36,127,28
1,36,127,22
1,36,127,30
1,36,127,23
1,36,127,100
1,36,127,102
1,36,127,115
1,36,127,98
1,36,127,106
1,36,127,105
1,36,127,68
1,36,127,33
1,36,127,29
1,36,127,33
1,36,127,30
1,36,127,31
1,36,127,22
1,36,127,144
1,38,120,144
1,36,127,0
1,36,127,122
1,36,127,114
1,36,127,115
1,36,127,144
1,36,127,69
1,36,127,25
1,36,127,22
1,36,127,28
1,36,127,22
1,36,127,30
1,36,127,23
1,36,127,100
1,36,127,102
1,36,127,115
1,36,127,98
1,36,127,106
1,36,127,105
1,36,127,68
1,36,127,33
1,36,127,29
1,36,127,33
1,36,127,30
1,36,127,31
1,36,127,22
1,36,127,144
1,38,120,144
1,36,127,0
1,36,127,122
1,36,127,114
1,36,127,115
1,36,127,144
1,36,127,69
1,36,127,25
1,36,127,22
1,36,127,28
1,36,127,22
1,36,127,30
1,36,127,23
1,36,127,100
1,36,127,102
1,36,127,115
1,36,127,98
1,36,127,106
1,36,127,105
1,36,127,68
1,36,127,33
1,36,127,29
1,36,127,33
1,36,127,30
1,36,127,31
1,36,127,22
1,36,127,144
1,38,120,144
1,36,127,0
1,36,127,122
1,36,127,114
1,36,127,115
1,36,127,144
1,36,127,69
1,36,127,25
1,36,127,22
1,36,127,28
1,36,127,22
1,36,127,30
1,36,127,23
1,36,127,106
1,36,127,102
1,36,127,92
1,36,127,99
1,36,127,95
1,36,127,95
1,36,127,108
1,36,127,89
1,36,127,98
1,36,127,101
1,36,127,83
1,36,127,112
1,36,127,100
1,36,127,144
1,36,127,163
1,36,127,122
1,36,127,106
1,36,127,102
1,36,127,92
1,36,127,99
1,36,127,95
1,36,127,95
1,36,127,108
1,36,127,89
1,36,127,98
1,36,127,101
1,36,127,83
1,36,127,112
1,36,127,100
1,36,127,168
1,36,127,163
1,36,127,122
1,36,127,106
1,36,127,102
1,36,127,92
1,36,127,99
1,36,127,95
1,36,127,95
1,36,127,108
1,36,127,89
1,36,127,98
1,36,127,101
1,36,127,83
1,36,127,112
1,36,127,100
1,36,127,72
1,36,127,27
1,36,127,23
1,36,127,19
1,36,127,111
1,36,127,74
1,36,127,38
1,36,127,106
1,36,127,102
1,36,127,92
1,36,127,99
1,36,127,95
1,36,127,95
1,36,127,108
1,36,127,89
1,36,127,98
1,36,127,101
1,36,127,83
1,36,127,112
1,36,127,100
1,36,127,72
1,36,127,27
1,36,127,23
1,36,127,19
1,36,127,111
1,36,127,74
1,36,127,38
1,36,127,106
1,36,127,102
1,36,127,92
1,36,127,99
1,36,127,95
1,36,127,95
1,36,127,108
1,36,127,89
1,36,127,98
1,36,127,101
1,36,127,83
1,36,127,112
1,36,127,100
1,36,127,72
1,36,127,27
1,36,127,23
1,36,127,19
1,36,127,111
1,36,127,74
1,36,127,38
1,36,127,106
1,36,127,102
1,36,127,92
1,36,127,99
1,36,127,95
1,36,127,95
1,36,127,108
1,36,127,89
1,36,127,98
1,36,127,101
1,36,127,83
1,36,127,112
1,36,127,100
1,36,127,72
1,36,127,27
1,36,127,23
1,36,127,19
1,36,127,111
1,36,127,74
1,36,127,38
1,36,127,106
1,36,127,102
1,36,127,92
1,36,127,99
1,36,127,95
1,36,127,95
1,36,127,108
1,36,127,89
1,36,127,98
1,36,127,101
1,36,127,83
1,36,127,112
1,36,127,100
1,36,127,72
1,36,127,27
1,36,127,23
1,36,127,19
1,36,127,111
1,36,127,74
1,36,127,38
1,36,127,106
1,36,127,102
1,36,127,92
1,36,127,99
1,36,127,95
1,36,127,95
1,36,127,108
1,36,127,89
1,36,127,98
1,36,127,101
1,36,127,83
1,36,127,112
1,36,127,100
1,36,127,72
1,36,127,27
1,36,127,23
1,36,127,19
1,36,127,111
1,36,127,74
1,36,127,38
1,36,127,106
1,36,127,102
1,36,127,92
1,36,127,99
1,36,127,95
1,36,127,95
1,36,127,108
1,36,127,89
1,36,127,98
1,36,127,101
1,36,127,83
1,36,127,112
1,36,127,100
1,36,127,72
1,36,127,27
1,36,127,23
1,36,127,19
1,36,127,111
1,36,127,74
1,36,127,38
1,36,127,106
1,36,127,102
1,36,127,92
1,36,127,99
1,36,127,95
1,36,127,95
1,36,127,108
1,36,127,89
1,36,127,98
1,36,127,101
1,36,127,83
1,36,127,112
1,36,127,100
1,36,127,72
1,36,127,27
1,36,127,23
1,36,127,19
1,36,127,111
1,36,127,74
1,36,127,38
1,36,127,106
1,36,127,102
1,36,127,92
1,36,127,99
1,36,127,95
1,36,127,95
1,36,127,108
1,36,127,89
1,36,127,98
1,36,127,101
1,36,127,83
1,36,127,112
1,36,127,100
1,36,127,72
1,36,127,27
1,36,127,23
1,36,127,19
1,36,127,111
1,36,127,74
1,36,127,38
1,36,127,106
1,36,127,102
1,36,127,92
1,36,127,99
1,36,127,95
1,36,127,95
1,36,127,108
1,36,127,89
1,36,127,98
1,36,127,101
1,36,127,83
1,36,127,112
1,36,127,100
1,36,127,72
1,36,127,27
1,36,127,23
1,36,127,19
1,36,127,111
1,36,127,74
1,36,127,38
1,36,127,106
1,36,127,102
1,36,127,92
1,36,127,99
1,36,127,95
1,36,127,95
1,36,127,108
1,36,127,89
1,36,127,98
1,36,127,101
1,36,127,83
1,36,127,112
1,36,127,100
1,36,127,72
1,36,127,27
1,36,127,23
1,36,127,19
1,36,127,111
1,36,127,74
1,36,127,38
1,36,127,106
1,36,127,102
1,36,127,92
1,36,127,99
1,36,127,95
1,36,127,95
1,36,127,108
1,36,127,89
1,36,127,98
1,36,127,101
1,36,127,83
1,36,127,112
1,36,127,100
1,36,127,72
1,36,127,27
1,36,127,23
1,36,127,19
1,36,127,111
1,36,127,74
1,36,127,38
1,36,127,106
1,36,127,102
1,36,127,92
1,36,127,99
1,36,127,95
1,36,127,95
1,36,127,108
1,36,127,89
1,36,127,98
1,36,127,101
1,36,127,83
1,36,127,112
1,36,127,100
1,36,127,72
1,36,127,27
1,36,127,23
1,36,127,19
1,36,127,111
1,36,127,74
1,36,127,38
1,36,127,106
1,36,127,102
1,36,127,92
1,36,127,99
1,36,127,95
1,36,127,95
1,36,127,108
1,36,127,89
1,36,127,98
1,36,127,101
1,36,127,83
1,36,127,112
1,36,127,100
1,36,127,72
1,36,127,27
1,36,127,23
1,36,127,19
1,36,127,111
1,36,127,74
1,36,127,38
1,36,127,106
1,36,127,102
1,36,127,92
1,36,127,99
1,36,127,95
1,36,127,95
1,36,127,108
1,36,127,89
1,36,127,98
1,36,127,101
1,36,127,83
1,36,127,112
1,36,127,100
1,36,127,72
1,36,127,27
1,36,127,23
1,36,127,19
1,36,127,111
1,36,127,74
1,36,127,38
1,36,127,106
1,36,127,102
1,36,127,92
1,36,127,99
1,36,127,95
1,36,127,95
1,36,127,108
1,36,127,89
1,36,127,98
1,36,127,101
1,36,127,83
1,36,127,112
1,36,127,100
1,36,127,72
1,36,127,27
1,36,127,23
1,36,127,19
1,36,127,111
1,36,127,74
1,36,127,38
1,36,127,106
1,36,127,102
1,36,127,92
1,36,127,99
1,36,127,95
1,36,127,95
1,36,127,108
1,36,127,89
1,36,127,98
1,36,127,101
1,36,127,83
1,36,127,112
1,36,127,100
1,36,127,72
1,36,127,27
1,36,127,23
1,36,127,19
1,36,127,111
1,36,127,74
1,36,127,38
1,36,127,106
1,36,127,102
1,36,127,92
1,36,127,99
1,36,127,95
1,36,127,95
1,36,127,108
1,36,127,89
1,36,127,98
1,36,127,101
1,36,127,83
1,36,127,112
1,36,127,100
1,36,127,72
1,36,127,27
1,36,127,23
1,36,127,19
1,36,127,111
1,36,127,74
1,36,127,38
1,36,127,106
1,36,127,102
1,36,127,92
1,36,127,99
1,36,127,95
1,36,127,95
1,36,127,108
1,36,127,89
1,36,127,98
1,36,127,101
1,36,127,83
1,36,127,112
1,36,127,100
1,36,127,72
1,36,127,27
1,36,127,23
1,36,127,19
1,36,127,111
1,36,127,74
1,36,127,38
1,36,127,106
1,36,127,102
1,36,127,92
1,36,127,99
1,36,127,95
1,36,127,95
1,36,127,108
1,36,127,89
1,36,127,98
1,36,127,101
1,36,127,83
1,36,127,112
1,36,127,100
1,36,127,72
1,36,127,27
1,36,127,23
1,36,127,19
1,36,127,111
1,36,127,74
1,36,127,38
1,36,127,106
1,36,127,102
1,36,127,92
1,36,127,99
1,36,127,95
1,36,127,95
1,36,127,108
1,36,127,89
1,36,127,98
1,36,127,101
1,36,127,83
1,36,127,112
1,36,127,100
1,36,127,72
1,36,127,27
1,36,127,23
1,36,127,19
1,36,127,111
1,36,127,74
1,36,127,38
1,36,127,106
1,36,127,102
1,36,127,92
1,36,127,99
1,36,127,95
1,36,127,95
1,36,127,108
1,36,127,89
1,36,127,98
1,36,127,101
1,36,127,83
1,36,127,112
1,36,127,100
1,36,127,72
1,36,127,27
1,36,127,23
1,36,127,19
1,36,127,111
1,36,127,74
1,36,127,38
1,36,127,106
1,36,127,102
1,36,127,92
1,36,127,99
1,36,127,95
1,36,127,95
1,36,127,108
1,36,127,89
1,36,127,98
1,36,127,101
1,36,127,83
1,36,127,112
1,36,127,100
1,36,127,72
1,36,127,27
1,36,127,23
1,36,127,19
1,36,127,111
1,36,127,74
1,36,127,38
1,36,127,106
1,36,127,102
1,36,127,92
1,36,127,99
1,36,127,95
1,36,127,95
1,36,127,108
1,36,127,89
1,36,127,98
1,36,127,101
1,36,127,83
1,36,127,112
1,36,127,100
1,36,127,72
1,36,127,27
1,36,127,23
1,36,127,19
1,36,127,111
1,36,127,74
1,36,127,38
1,36,121,106
1,36,117,102
1,36,113,92
1,36,109,99
1,36,105,95
1,36,102,95
1,36,98,108
1,36,94,89
1,36,90,98
1,36,86,101
1,36,82,83
1,36,78,112
1,36,74,100
1,36,72,72
1,36,71,27
1,36,70,23
1,36,69,19
1,36,66,111
1,36,63,74
1,36,62,38
1,36,58,106
1,36,54,102
1,36,50,92
1,36,46,99
1,36,42,95
1,36,38,95
1,36,34,108
1,36,30,89
1,36,26,98
1,36,23,101
1,36,19,83
1,36,15,112
1,36,11,100
1,36,9,72
1,36,8,27
1,36,7,23
1,36,6,19
1,36,3,111
2,38,116,5376
2,38,116,171
2,38,116,146
2,38,116,176
2,38,116,5742
2,38,116,98
2,38,116,117
2,38,116,80
2,38,116,78
2,38,101,267
2,38,101,62
2,38,101,192
2,38,101,236
2,38,87,45
2,38,101,179
2,38,101,247
2,38,101,71
2,38,101,179
2,38,93,254
2,38,96,78
2,38,93,102
2,38,101,78
2,38,93,111
2,38,101,218
2,38,101,62
2,38,101,192
2,38,101,236
2,38,87,45
2,38,101,179
2,38,101,247
2,38,101,71
2,38,101,179
2,38,93,254
2,38,96,78
2,38,93,102
2,38,101,78
2,38,93,111
2,38,101,218
2,38,101,62
2,38,101,192
2,38,101,236
2,38,87,45
2,38,101,179
2,38,101,247
2,38,101,71
2,38,101,179
2,38,93,254
2,38,96,78
2,38,93,102
2,38,101,78
2,38,93,111
2,38,101,218
2,38,101,62
2,38,101,192
2,38,101,236
2,38,87,45
2,38,101,179
2,38,101,247
2,38,101,71
2,38,101,179
2,38,93,254
2,38,96,78
2,38,93,102
2,38,101,78
2,38,93,111
2,38,101,218
2,38,101,62
2,38,101,192
2,38,101,236
2,38,87,45
2,38,101,179
2,38,101,247
2,38,101,71
2,38,101,179
2,38,93,254
2,38,96,78
2,38,93,102
2,38,101,78
2,38,93,111
2,38,101,218
2,38,101,62
2,38,101,192
2,38,101,236
2,38,87,45
2,38,101,179
2,38,101,247
2,38,101,71
2,38,101,179
2,38,93,254
2,38,96,78
2,38,93,102
2,38,101,78
2,38,93,111
2,38,101,218
2,38,101,62
2,38,101,192
2,38,101,236
2,38,87,45
2,38,101,179
2,38,101,247
2,38,101,71
2,38,101,179
2,38,93,254
2,38,96,78
2,38,93,102
2,38,101,78
2,38,93,111
2,38,101,218
2,38,101,62
