track,note,velocity,time
1,45,127,0
1,45,127,0
1,48,127,0
1,48,127,0
1,50,127,0
1,50,127,0
1,51,127,0
1,52,127,0
1,45,127,0
1,45,127,0
1,48,127,0
1,48,127,0
1,45,127,0
1,45,127,368
1,45,127,0
1,48,127,0
1,48,127,0
1,50,127,0
1,50,127,0
1,51,127,0
1,52,127,0
1,45,127,0
1,45,127,0
1,48,127,0
1,48,127,0
1,45,127,0
1,45,127,370
1,45,127,0
1,48,127,0
1,48,127,0
1,50,127,0
1,50,127,0
1,51,127,0
1,52,127,0
1,45,127,0
1,45,127,0
1,48,127,0
1,48,127,0
1,45,127,0
1,45,127,370
1,45,127,0
1,48,127,0
1,48,127,0
1,50,127,0
1,50,127,0
1,51,127,0
1,52,127,0
1,45,127,0
1,45,127,0
1,48,127,0
1,48,127,0
1,45,127,0
1,45,127,363
1,45,127,0
1,48,127,0
1,48,127,0
1,50,127,0
1,50,127,0
1,51,127,0
1,52,127,0
1,45,127,0
1,45,127,0
1,48,127,0
1,48,127,0
1,45,127,0
1,45,127,370
1,45,127,0
1,48,127,0
1,48,127,0
1,50,127,0
1,50,127,0
1,51,127,0
1,52,127,0
1,45,127,0
1,45,127,0
1,48,127,0
1,48,127,0
1,45,127,0
1,45,127,362
1,45,127,0
1,48,127,0
1,48,127,0
1,50,127,0
1,50,127,0
1,51,127,0
1,52,127,0
1,45,127,0
1,45,127,0
1,48,127,0
1,48,127,0
1,45,127,0
1,45,127,365
1,45,127,0
1,48,127,0
1,48,127,0
1,50,127,0
1,50,127,0
1,51,127,0
1,52,127,0
1,45,127,0
1,45,127,0
1,48,127,0
1,48,127,0
1,45,127,0
1,41,127,370
1,41,127,0
1,41,127,0
1,41,127,0
1,41,127,0
1,41,127,0
1,41,127,0
1,41,127,0
1,41,127,0
1,41,127,0
1,41,127,0
1,41,127,0
1,41,127,0
1,41,127,0
1,41,127,0
1,41,127,0
1,43,127,0
1,43,127,0
1,43,127,0
1,43,127,0
1,43,127,0
1,43,127,0
1,43,127,0
1,43,127,0
1,43,127,0
1,50,127,0
1,50,127,0
1,48,127,0
1,45,127,0
1,45,127,0
1,48,127,0
1,48,127,0
1,50,127,0
1,50,127,0
1,51,127,0
1,52,127,0
1,45,127,0
1,45,127,0
1,48,127,0
1,48,127,0
1,45,127,0
1,45,127,368
1,45,127,0
1,48,127,0
1,48,127,0
1,50,127,0
1,50,127,0
1,51,127,0
1,52,127,0
1,45,127,0
1,45,127,0
1,48,127,0
1,48,127,0
1,45,127,0
1,45,127,370
1,45,127,0
1,48,127,0
1,48,127,0
1,50,127,0
1,50,127,0
1,51,127,0
1,52,127,0
1,45,127,0
1,45,127,0
1,48,127,0
1,48,127,0
1,45,127,0
1,45,127,370
1,45,127,0
1,48,127,0
1,48,127,0
1,50,127,0
1,50,127,0
1,51,127,0
1,52,127,0
1,45,127,0
1,45,127,0
1,48,127,0
1,48,127,0
1,45,127,0
1,45,127,368
1,45,127,0
1,48,127,0
1,48,127,0
1,50,127,0
1,50,127,0
1,51,127,0
1,52,127,0
1,45,127,0
1,45,127,0
1,48,127,0
1,48,127,0
1,45,127,0
1,45,127,367
1,45,127,0
1,48,127,0
1,48,127,0
1,50,127,0
1,50,127,0
1,51,127,0
1,52,127,0
1,45,127,0
1,45,127,0
1,48,127,0
1,48,127,0
1,45,127,0
1,41,127,370
1,41,127,0
1,41,127,0
1,41,127,0
1,41,127,0
1,41,127,0
1,41,127,0
1,41,127,0
1,41,127,0
1,41,127,0
1,41,127,0
1,41,127,0
1,41,127,0
1,41,127,0
1,41,127,0
1,41,127,0
1,43,127,0
1,43,127,0
1,43,127,0
1,43,127,0
1,43,127,0
1,43,127,0
1,43,127,0
1,43,127,0
1,43,127,0
1,50,127,0
1,50,127,0
1,48,127,0
1,45,127,0
1,45,127,0
1,45,127,0
1,48,127,0
1,48,127,0
1,50,127,0
1,50,127,0
1,51,127,0
1,52,127,0
1,45,127,0
1,45,127,0
1,48,127,0
1,48,127,0
1,45,127,0
1,45,127,245
1,33,127,0
1,33,127,0
1,33,127,0
1,33,127,245
1,33,127,0
1,36,127,0
1,36,127,0
1,38,127,0
1,39,127,0
1,40,127,0
1,43,127,0
1,38,127,0
1,38,127,0
1,38,127,0
1,38,127,0
1,38,127,0
1,38,127,0
1,38,127,0
1,38,127,0
1,38,127,0
1,38,127,0
1,38,127,0
1,38,127,0
1,38,127,0
1,38,127,0
1,38,127,0
1,38,127,0
1,36,127,0
1,36,127,0
1,36,127,0
1,36,127,0
1,36,127,0
1,36,127,0
1,36,127,0
1,36,127,0
1,41,127,0
1,41,127,0
1,41,127,0
1,41,127,0
1,41,127,0
1,41,127,0
1,41,127,0
1,42,127,0
1,43,127,0
1,43,127,0
1,43,127,0
1,43,127,0
1,43,127,0
1,43,127,0
1,43,127,0
1,43,127,0
1,40,127,0
1,40,127,0
1,40,127,0
1,40,127,0
1,40,127,0
1,40,127,0
1,40,127,0
1,40,127,0
1,45,127,0
1,45,127,0
1,45,127,0
1,45,127,0
1,45,127,0
1,45,127,0
1,45,127,0
1,45,127,0
1,33,127,0
1,33,127,0
1,35,127,0
1,35,127,0
1,36,127,0
1,36,127,0
1,40,127,0
1,40,127,0
1,38,127,0
1,38,127,0
1,38,127,0
1,38,127,0
1,38,127,0
1,38,127,0
1,38,127,0
1,38,127,0
1,38,127,0
1,38,127,0
1,38,127,0
1,38,127,0
1,38,127,0
1,38,127,0
1,38,127,0
1,38,127,0
1,36,127,0
1,36,127,0
1,36,127,0
1,36,127,0
1,36,127,0
1,36,127,0
1,36,127,0
1,36,127,0
1,41,127,0
1,41,127,0
1,41,127,0
1,41,127,0
1,41,127,0
1,41,127,0
1,41,127,0
1,42,127,0
1,43,127,0
1,43,127,0
1,43,127,0
1,43,127,0
1,43,127,0
1,43,127,0
1,43,127,0
1,43,127,0
1,40,127,0
1,50,127,0
1,50,127,0
1,50,127,0
1,45,127,0
1,33,127,0
1,33,127,0
1,36,127,0
1,36,127,0
1,38,127,0
1,38,127,0
1,39,127,0
1,40,127,0
1,33,127,0
1,33,127,0
1,36,127,0
1,36,127,0
1,33,127,0
1,45,127,118
1,45,127,0
1,33,127,0
1,33,127,0
1,36,127,0
1,36,127,0
1,38,127,0
1,38,127,0
1,39,127,0
1,40,127,0
1,33,127,0
1,33,127,0
1,36,127,0
1,36,127,0
1,38,127,0
1,38,127,0
1,39,127,0
1,40,127,0
1,45,127,0
1,45,127,0
1,48,127,0
1,48,127,0
1,50,127,0
1,50,127,0
1,51,127,0
1,52,127,0
1,45,127,0
1,45,127,0
1,48,127,0
1,48,127,0
1,45,127,0
1,45,127,367
1,45,127,0
1,48,127,0
1,48,127,0
1,50,127,0
1,50,127,0
1,51,127,0
1,52,127,0
1,45,127,0
1,45,127,0
1,48,127,0
1,48,127,0
1,45,127,0
1,45,127,368
1,45,127,0
1,48,127,0
1,48,127,0
1,50,127,0
1,50,127,0
1,51,127,0
1,52,127,0
1,45,127,0
1,45,127,0
1,48,127,0
1,48,127,0
1,45,127,0
1,45,127,370
1,45,127,0
1,48,127,0
1,48,127,0
1,50,127,0
1,50,127,0
1,51,127,0
1,52,127,0
1,45,127,0
1,45,127,0
1,48,127,0
1,48,127,0
1,45,127,0
1,41,127,370
1,41,127,0
1,41,127,0
1,41,127,0
1,41,127,0
1,41,127,0
1,41,127,0
1,41,127,0
1,41,127,0
1,41,127,0
1,41,127,0
1,41,127,0
1,41,127,0
1,41,127,0
1,41,127,0
1,41,127,0
1,43,127,0
1,43,127,0
1,43,127,0
1,43,127,0
1,43,127,0
1,43,127,0
1,43,127,0
1,43,127,0
1,43,127,0
1,50,127,0
1,50,127,0
1,48,127,0
1,45,127,0
1,45,127,0
1,45,127,0
1,48,127,0
1,48,127,0
1,50,127,0
1,50,127,0
1,51,127,0
1,52,127,0
1,45,127,0
1,45,127,0
1,48,127,0
1,48,127,0
1,45,127,0
1,45,127,247
1,33,127,0
1,33,127,0
1,33,127,0
1,33,127,245
1,33,127,0
1,36,127,0
1,36,127,0
1,38,127,0
1,39,127,0
1,40,127,0
1,43,127,0
1,38,127,0
1,38,127,0
1,38,127,0
1,38,127,0
1,38,127,0
1,38,127,0
1,38,127,0
1,38,127,0
1,38,127,0
1,38,127,0
1,38,127,0
1,38,127,0
1,38,127,0
1,38,127,0
1,38,127,0
1,38,127,0
1,36,127,0
1,36,127,0
1,36,127,0
1,36,127,0
1,36,127,0
1,36,127,0
1,36,127,0
1,36,127,0
1,41,127,0
1,41,127,0
1,41,127,0
1,41,127,0
1,41,127,0
1,41,127,0
1,41,127,0
1,42,127,0
1,43,127,0
1,43,127,0
1,43,127,0
1,43,127,0
1,43,127,0
1,43,127,0
1,43,127,0
1,43,127,0
1,40,127,0
1,40,127,0
1,40,127,0
1,40,127,0
1,40,127,0
1,40,127,0
1,40,127,0
1,40,127,0
1,45,127,0
1,45,127,0
1,45,127,0
1,45,127,0
1,45,127,0
1,45,127,0
1,45,127,0
1,45,127,0
1,33,127,0
1,33,127,0
1,35,127,0
1,35,127,0
1,36,127,0
1,36,127,0
1,40,127,0
1,40,127,0
1,38,127,0
1,38,127,0
1,38,127,0
1,38,127,0
1,38,127,0
1,38,127,0
1,38,127,0
1,38,127,0
1,38,127,0
1,38,127,0
1,38,127,0
1,38,127,0
1,38,127,0
1,38,127,0
1,38,127,0
1,38,127,0
1,36,127,0
1,36,127,0
1,36,127,0
1,36,127,0
1,36,127,0
1,36,127,0
1,36,127,0
1,36,127,0
1,41,127,0
1,41,127,0
1,41,127,0
1,41,127,0
1,41,127,0
1,41,127,0
1,41,127,0
1,42,127,0
1,43,127,0
1,43,127,0
1,43,127,0
1,43,127,0
1,43,127,0
1,43,127,0
1,43,127,0
1,43,127,0
1,40,127,0
1,50,127,0
1,50,127,0
1,50,127,0
1,45,127,0
1,33,127,0
1,33,127,0
1,36,127,0
1,36,127,0
1,38,127,0
1,38,127,0
1,39,127,0
1,40,127,0
1,33,127,0
1,33,127,0
1,36,127,0
1,36,127,0
1,33,127,0
1,45,127,115
1,45,127,0
1,33,127,0
1,33,127,0
1,36,127,0
1,36,127,0
1,38,127,0
1,38,127,0
1,39,127,0
1,40,127,0
1,33,127,0
1,33,127,0
1,36,127,0
1,36,127,0
1,38,127,0
1,38,127,0
1,39,127,0
1,40,127,0
1,38,127,0
1,38,127,0
1,38,127,0
1,38,127,0
1,38,127,0
1,38,127,0
1,38,127,0
1,38,127,0
1,38,127,0
1,38,127,0
1,38,127,0
1,38,127,0
1,38,127,0
1,38,127,0
1,38,127,0
1,38,127,0
1,36,127,0
1,36,127,0
1,36,127,0
1,36,127,0
1,36,127,0
1,36,127,0
1,36,127,0
1,36,127,0
1,41,127,0
1,41,127,0
1,41,127,0
1,41,127,0
1,41,127,0
1,41,127,0
1,41,127,0
1,42,127,0
1,43,127,0
1,43,127,0
1,43,127,0
1,43,127,0
1,43,127,0
1,43,127,0
1,43,127,0
1,43,127,0
1,40,127,0
1,40,127,0
1,40,127,0
1,40,127,0
1,40,127,0
1,40,127,0
1,40,127,0
1,40,127,0
1,45,127,0
1,45,127,0
1,45,127,0
1,45,127,0
1,45,127,0
1,45,127,0
1,45,127,0
1,45,127,0
1,33,127,0
1,33,127,0
1,35,127,0
1,35,127,0
1,36,127,0
1,36,64,0
1,40,62,0
1,40,59,0
1,38,56,0
1,38,54,0
1,38,51,0
1,38,48,0
1,38,46,0
1,38,43,0
1,38,40,0
1,38,38,0
1,38,35,0
1,38,32,0
1,38,30,0
1,38,27,0
1,38,24,0
1,38,22,0
1,38,19,0
1,38,16,0
2,55,127,7620
2,60,127,58
2,57,127,0
2,57,127,0
2,57,127,0
2,55,127,0
2,55,127,245
2,57,127,0
2,57,127,0
2,60,127,0
2,60,127,0
2,62,127,0
2,62,127,0
2,63,127,0
2,64,127,0
2,57,127,0
2,57,127,0
2,60,127,0
2,60,127,0
2,57,127,0
2,55,127,0
2,57,127,57
2,57,127,0
2,57,127,0
2,57,127,247
2,55,127,493
2,57,127,0
2,57,127,0
2,60,127,0
2,60,127,0
2,62,127,0
2,62,127,0
2,63,127,0
2,64,127,0
2,57,127,0
2,57,127,0
2,60,127,0
2,60,127,0
2,53,127,493
2,53,127,0
2,53,127,0
2,53,127,0
2,53,127,0
2,53,127,0
2,53,127,0
2,53,127,0
2,55,127,0
2,55,127,0
2,55,127,0
2,55,127,0
2,55,127,0
2,57,127,737
2,57,127,0
2,60,127,0
2,60,127,0
2,62,127,0
2,62,127,0
2,63,127,0
2,64,127,0
2,57,127,0
2,57,127,0
2,60,127,0
2,57,127,4670
2,57,127,0
2,57,127,0
2,57,127,248
2,60,127,2335
2,60,127,0
2,53,127,0
2,53,127,0
2,53,127,0
2,53,127,0
2,53,127,0
2,53,127,0
2,53,127,0
2,53,127,0
2,55,127,247
2,55,127,0
2,55,127,0
2,55,127,245
2,60,127,2090
2,57,127,60
2,57,127,0
2,57,127,125
2,57,127,0
2,57,127,0
2,57,127,0
2,57,127,0
2,55,127,248
2,55,127,0
2,57,127,122
2,57,127,0
2,57,127,0
2,57,127,0
2,57,127,0
2,55,127,245
2,55,127,0
2,55,127,123
2,55,127,0
2,55,127,0
2,55,127,0
2,55,127,0
2,57,127,0
2,55,127,0
2,57,127,0
2,59,127,0
2,60,127,0
2,57,127,0
2,57,127,0
2,57,127,0
2,57,127,0
2,57,127,125
2,57,127,0
2,57,127,0
2,57,127,0
2,57,127,0
2,55,127,245
2,55,127,0
2,57,127,123
2,57,127,0
2,57,127,0
2,57,127,0
2,57,127,0
2,55,127,245
2,55,127,0
2,55,127,122
2,57,127,0
2,57,127,0
2,60,127,0
2,60,127,0
2,62,127,0
2,62,127,0
2,63,127,0
2,64,127,0
2,57,127,0
2,57,127,0
2,60,127,0
2,60,127,0
2,57,127,0
2,76,127,245
2,72,127,0
2,74,127,0
2,71,127,0
2,72,127,0
2,69,127,0
2,71,127,0
2,67,127,0
2,76,127,0
2,72,127,0
2,74,127,0
2,71,127,0
2,72,127,0
2,69,127,0
2,71,127,0
2,67,127,0
2,60,127,0
2,57,127,0
2,57,127,0
2,57,127,245
2,57,127,0
2,57,127,2458
2,57,127,0
2,57,127,0
2,57,127,248
2,60,127,2335
2,60,127,0
2,53,127,0
2,53,127,0
2,53,127,0
2,53,127,0
2,53,127,0
2,53,127,0
2,53,127,0
2,53,127,0
2,55,127,245
2,55,127,0
2,55,127,0
2,55,127,248
2,60,127,0
2,57,127,60
2,57,127,0
2,57,127,123
2,57,127,0
2,57,127,0
2,57,127,0
2,57,127,0
2,55,127,245
2,55,127,0
2,57,127,122
2,57,127,0
2,57,127,0
2,57,127,0
2,57,127,0
2,55,127,245
2,55,127,0
2,55,127,123
2,55,127,0
2,55,127,0
2,55,127,0
2,55,127,0
2,57,127,0
2,55,127,0
2,57,127,0
2,59,127,0
2,60,127,0
2,57,127,0
2,57,127,0
2,57,127,0
2,57,127,0
2,57,127,122
2,57,127,0
2,57,127,0
2,57,127,0
2,57,127,0
2,55,127,245
2,55,127,0
2,57,127,123
2,57,127,0
2,57,127,0
2,57,127,0
2,57,127,0
2,55,127,245
2,55,127,0
2,55,127,122
2,57,127,0
2,57,127,0
2,60,127,0
2,60,127,0
2,62,127,0
2,62,127,0
2,63,127,0
2,64,127,0
2,57,127,0
2,57,127,0
2,60,127,0
2,60,127,0
2,57,127,0
2,76,127,248
2,72,127,0
2,74,127,0
2,71,127,0
2,72,127,0
2,69,127,0
2,71,127,0
2,67,127,0
2,76,127,0
2,72,127,0
2,74,127,0
2,71,127,0
2,72,127,0
2,69,127,0
2,71,127,0
2,67,127,0
2,60,127,0
2,57,127,58
2,57,127,0
2,57,127,123
2,57,127,0
2,57,127,0
2,57,127,0
2,57,127,0
2,55,127,245
2,55,127,0
2,57,127,122
2,57,127,0
2,57,127,0
2,57,127,0
2,57,127,0
2,55,127,245
2,55,127,0
