track,note,velocity,time
1,82,119,811
1,82,0,19
1,82,109,1032
1,82,0,18
1,82,114,54
1,82,0,21
1,78,104,4342
1,78,0,22
1,80,109,95
1,80,0,24
1,78,100,94
1,78,0,20
1,80,109,43
1,80,0,26
1,78,104,35
1,78,0,22
1,80,104,38
1,80,0,25
1,78,104,36
1,78,0,19
1,80,119,35
1,80,0,26
1,78,114,100
1,78,0,22
1,80,119,98
1,80,0,26
1,78,114,89
1,78,0,23
1,80,119,97
1,80,0,26
1,78,104,1051
1,78,0,21
1,80,104,43
1,80,0,24
1,78,104,41
1,78,0,21
1,80,100,33
1,80,0,24
1,78,100,38
1,78,0,20
1,80,104,36
1,80,0,25
1,78,114,39
1,78,0,23
1,80,114,98
1,80,0,25
1,78,114,98
1,78,0,24
1,80,109,94
1,80,0,24
1,78,119,37
1,78,0,27
1,78,104,1051
1,78,0,23
1,78,109,159
1,78,0,26
1,80,109,93
1,80,0,27
1,78,109,86
1,78,0,22
1,80,109,38
1,80,0,25
1,78,114,39
1,78,0,24
1,80,114,36
1,80,0,25
1,78,114,38
1,78,0,23
1,80,114,95
1,80,0,27
1,78,114,93
1,78,0,24
1,80,114,99
1,80,0,25
1,78,109,98
1,78,0,24
1,80,109,87
1,80,0,26
1,78,109,33
1,78,0,23
1,80,114,40
1,80,0,26
1,78,119,216
1,78,0,23
1,80,119,99
1,80,0,26
1,78,109,93
1,78,0,24
1,80,124,102
1,80,0,23
1,78,114,755
1,78,0,20
1,78,109,157
1,78,0,21
1,80,114,44
1,80,0,21
1,78,119,154
1,78,0,21
1,80,119,42
1,80,0,22
1,78,109,626
1,78,0,21
1,80,109,44
1,80,0,23
1,78,104,38
1,78,0,23
1,80,109,39
1,80,0,25
1,78,104,34
1,78,0,25
1,80,119,93
1,80,0,25
1,78,109,96
1,78,0,22
1,80,119,42
1,80,0,28
1,78,114,32
1,78,0,24
1,80,119,90
1,80,0,26
1,78,119,94
1,78,0,23
1,78,109,890
1,78,0,24
1,80,114,88
1,80,0,23
1,78,100,98
1,78,0,19
1,80,104,41
1,80,0,24
1,78,104,38
1,78,0,21
1,80,119,33
1,80,0,26
1,78,114,93
1,78,0,22
1,80,119,99
1,80,0,26
1,78,109,87
1,78,0,23
1,80,109,41
1,80,0,26
1,78,114,35
1,78,0,24
1,80,124,94
1,80,0,25
1,78,104,877
1,78,0,20
1,78,100,217
1,78,0,23
1,80,109,42
1,80,0,25
1,78,104,99
1,78,0,23
1,80,109,31
1,80,0,26
1,78,109,38
1,78,0,22
1,80,119,93
1,80,0,25
1,78,109,97
1,78,0,23
1,80,119,97
1,80,0,24
1,78,109,93
1,78,0,24
1,78,109,159
1,78,0,23
1,80,114,38
1,80,0,27
1,78,104,40
1,78,0,22
1,80,114,40
1,80,0,25
1,78,109,33
1,78,0,23
1,80,119,36
1,80,0,27
1,78,114,150
1,78,0,22
1,80,119,35
1,80,0,25
1,78,114,94
1,78,0,24
1,80,124,95
1,80,0,25
1,78,114,882
1,78,0,23
1,80,114,156
1,80,0,26
1,78,114,36
1,78,0,23
1,80,119,152
1,80,0,27
1,78,114,37
1,78,0,24
1,78,114,871
1,78,0,20
1,80,114,101
1,80,0,23
1,78,109,164
1,78,0,22
1,80,114,97
1,80,0,25
1,78,100,87
1,78,0,21
1,80,119,41
1,80,0,26
1,78,114,96
1,78,0,22
1,78,109,215
1,78,0,23
1,80,114,95
1,80,0,23
1,78,114,164
1,78,0,23
1,80,114,95
1,80,0,25
1,78,100,95
1,78,0,23
1,80,114,36
1,80,0,25
1,78,109,95
1,78,0,22
1,78,104,214
1,78,0,23
1,80,119,100
1,80,0,24
1,78,114,157
1,78,0,23
1,80,114,94
1,80,0,25
1,78,100,98
1,78,0,22
1,80,114,37
1,80,0,24
1,78,114,102
1,78,0,23
1,80,119,88
1,80,0,25
1,78,114,460
1,78,0,21
1,80,119,100
1,80,0,25
1,78,109,96
1,78,0,21
1,80,119,97
1,80,0,25
1,78,109,91
1,78,0,23
1,80,119,94
1,80,0,26
1,78,109,95
1,78,0,20
1,78,109,169
1,78,0,24
1,80,114,100
1,80,0,24
1,78,100,91
1,78,0,22
1,80,114,41
1,80,0,24
1,78,114,85
1,78,0,23
1,78,114,218
1,78,0,24
1,80,119,98
1,80,0,24
1,78,114,163
1,78,0,23
1,80,119,94
1,80,0,27
1,78,109,97
1,78,0,22
1,80,119,35
1,80,0,26
1,78,114,90
1,78,0,23
1,78,109,215
1,78,0,24
1,80,114,92
1,80,0,25
1,78,119,166
1,78,0,24
1,80,114,99
1,80,0,24
1,78,100,91
1,78,0,22
1,80,114,40
1,80,0,25
1,78,109,95
1,78,0,24
1,80,124,42
1,80,0,26
1,78,114,497
1,78,0,25
1,78,104,98
1,78,0,18
1,78,68,45
1,78,0,15
1,80,114,40
1,80,0,25
1,78,104,102
1,78,0,24
1,80,119,39
1,80,0,28
1,78,109,144
1,78,0,23
1,80,119,43
1,80,0,28
1,78,119,757
1,78,0,15
1,78,114,7357
1,78,0,27
1,80,119,99
1,80,0,31
1,78,114,76
1,78,0,24
1,80,119,36
1,80,0,27
1,78,114,35
1,78,0,24
1,80,119,34
1,80,0,26
1,78,119,32
1,78,0,24
1,80,126,37
1,80,0,31
1,78,119,92
1,78,0,24
1,80,119,34
1,80,0,29
1,78,126,33
1,78,0,28
1,80,124,99
1,80,0,30
1,78,126,85
1,78,0,24
1,80,114,1002
1,80,0,23
1,78,109,36
1,78,0,25
1,80,114,33
1,80,0,23
1,78,119,35
1,78,0,24
1,80,124,99
1,80,0,27
1,78,114,91
1,78,0,23
1,80,114,37
1,80,0,25
1,78,114,36
1,78,0,22
1,80,119,39
1,80,0,26
1,78,114,34
1,78,0,24
1,80,124,93
1,80,0,25
1,78,119,92
1,78,0,21
1,78,109,884
1,78,0,26
1,80,119,272
1,80,0,24
1,78,109,95
1,78,0,24
1,80,119,92
1,80,0,26
1,78,109,34
1,78,0,25
1,80,114,102
1,80,0,24
1,78,119,36
1,78,0,26
1,80,124,91
1,80,0,26
1,78,119,90
1,78,0,25
1,78,119,219
1,78,0,24
1,80,119,93
1,80,0,26
1,78,119,97
1,78,0,24
1,78,119,159
1,78,0,23
1,80,119,36
1,80,0,25
1,78,119,90
1,78,0,26
1,80,124,95
1,80,0,25
1,78,119,884
1,78,0,23
1,78,114,155
1,78,0,23
1,80,124,40
1,80,0,25
1,78,119,152
1,78,0,24
1,80,124,37
1,80,0,25
1,78,119,875
1,78,0,25
1,80,114,94
1,80,0,23
1,78,114,162
1,78,0,25
1,80,119,102
1,80,0,26
1,78,104,80
1,78,0,25
1,80,119,35
1,80,0,29
1,78,114,90
1,78,0,26
1,78,114,217
1,78,0,25
1,80,119,97
1,80,0,26
1,78,109,158
1,78,0,27
1,80,114,90
1,80,0,26
1,78,109,92
1,78,0,23
1,80,114,36
1,80,0,25
1,78,114,94
1,78,0,24
1,78,109,213
1,78,0,25
1,80,119,94
1,80,0,25
1,78,109,166
1,78,0,24
1,80,114,94
1,80,0,25
1,78,109,93
1,78,0,23
1,80,119,35
1,80,0,25
1,78,114,95
1,78,0,25
1,80,124,93
1,80,0,25
1,78,109,459
1,78,0,22
1,80,119,97
1,80,0,25
1,78,109,96
1,78,0,23
1,80,124,95
1,80,0,28
1,78,114,89
1,78,0,23
1,80,124,96
1,80,0,26
1,78,114,94
1,78,0,23
1,78,114,168
1,78,0,22
1,80,119,98
1,80,0,24
1,78,109,87
1,78,0,23
1,80,119,36
1,80,0,26
1,78,114,94
1,78,0,23
1,78,114,221
1,78,0,26
1,80,119,93
1,80,0,23
1,78,114,163
1,78,0,24
1,80,119,94
1,80,0,24
1,78,109,90
1,78,0,25
1,80,119,33
1,80,0,27
1,78,114,100
1,78,0,23
1,78,114,211
1,78,0,23
1,80,119,97
1,80,0,26
1,78,109,160
1,78,0,26
1,80,119,97
1,80,0,27
1,78,104,88
1,78,0,24
1,80,124,38
1,80,0,26
1,78,114,99
1,78,0,23
1,80,124,40
1,80,0,24
1,78,114,493
1,78,0,27
1,78,114,98
1,78,0,23
1,80,104,35
1,80,0,28
1,78,114,36
1,78,0,26
1,80,119,99
1,80,0,28
1,78,119,34
1,78,0,26
1,78,114,150
1,78,0,25
1,80,124,40
1,80,0,28
2,76,85,14257
2,72,101,60
2,76,0,5
2,72,0,40
2,74,71,15
2,74,0,60
2,71,71,0
2,71,0,55
2,72,71,5
2,69,85,60
2,72,0,5
2,69,0,50
2,71,85,5
2,71,0,60
2,67,71,0
2,67,0,50
2,76,71,10
2,76,0,55
2,72,85,5
2,72,0,50
2,74,71,10
2,74,0,60
2,71,85,0
2,71,0,55
2,72,71,5
2,72,0,55
2,69,71,5
2,71,85,60
2,69,0,25
2,71,0,25
2,67,71,10
2,67,0,50
2,76,59,10
2,76,0,55
2,72,71,5
2,72,0,50
2,74,71,10
2,74,0,60
2,71,85,0
2,71,0,55
2,72,71,5
2,72,0,55
2,69,71,5
2,69,0,55
2,71,71,5
2,71,0,60
2,67,85,0
2,67,0,50
2,76,71,10
2,76,0,50
2,72,71,10
2,72,0,55
2,74,71,5
2,74,0,55
2,71,85,5
2,71,0,50
2,72,71,10
2,72,0,60
2,69,71,0
2,69,0,60
2,71,85,0
2,71,0,55
2,67,71,5
2,67,0,50
2,76,59,10
2,76,0,60
2,72,71,0
2,72,0,55
2,74,85,5
2,74,0,55
2,71,85,5
2,71,0,50
2,72,71,10
2,72,0,60
2,69,71,0
2,69,0,55
2,71,85,5
2,71,0,55
2,67,71,5
2,67,0,50
2,76,71,10
2,76,0,55
2,72,71,5
2,72,0,50
2,74,85,10
2,74,0,55
2,71,71,5
2,71,0,55
2,72,71,5
2,72,0,55
2,69,85,5
2,69,0,60
2,71,71,0
2,71,0,60
2,67,85,0
2,67,0,50
2,76,71,10
2,76,0,55
2,72,71,5
2,72,0,50
2,74,85,10
2,74,0,55
2,71,85,5
2,71,0,55
2,72,71,5
2,72,0,60
2,69,71,0
2,69,0,60
2,71,85,0
2,71,0,55
2,67,71,5
2,67,0,50
2,76,59,10
2,76,0,50
2,72,71,10
2,72,0,55
2,74,71,5
2,74,0,55
2,71,71,5
2,71,0,45
2,72,85,15
2,72,0,60
2,69,71,0
2,69,0,50
2,71,85,10
2,71,0,50
2,67,85,10
2,67,0,45
2,65,71,15
2,65,0,380
2,76,85,1540
2,76,0,60
2,72,71,0
2,72,0,55
2,74,71,5
2,74,0,55
2,71,85,5
2,71,0,55
2,72,59,5
2,72,0,50
2,69,71,10
2,69,0,60
2,71,71,0
2,71,0,50
2,67,85,10
2,67,0,50
2,76,59,10
2,76,0,50
2,72,59,10
2,72,0,55
2,74,71,5
2,74,0,55
2,71,71,5
2,71,0,55
2,72,51,5
2,72,0,60
2,69,71,0
2,69,0,55
2,71,85,5
2,71,0,50
2,67,85,10
2,67,0,50
2,76,71,10
2,76,0,45
2,72,51,15
2,72,0,55
2,74,71,5
2,74,0,55
2,71,71,5
2,71,0,55
2,72,59,5
2,72,0,55
2,69,71,5
2,69,0,55
2,71,71,5
2,71,0,55
2,67,85,5
2,67,0,55
2,76,59,5
2,76,0,55
2,72,71,5
2,72,0,55
2,74,71,5
2,74,0,55
2,71,71,5
2,71,0,50
2,72,59,10
2,72,0,55
2,69,71,5
2,69,0,50
2,71,71,10
2,71,0,45
2,67,71,15
2,67,0,50
2,65,71,12490
2,65,0,500
2,76,59,4300
2,76,0,50
2,72,71,10
2,72,0,55
2,74,71,5
2,74,0,55
2,71,71,5
2,71,0,50
2,72,59,10
2,72,0,60
2,69,59,0
2,69,0,55
2,71,71,5
2,71,0,60
2,67,59,0
2,67,0,55
2,76,59,5
2,76,0,50
2,72,71,10
2,72,0,55
2,74,71,5
2,74,0,50
2,71,59,10
2,71,0,50
2,72,71,10
2,72,0,55
2,69,71,5
2,69,0,60
2,71,85,0
2,71,0,50
2,67,59,10
2,67,0,50
2,76,59,970
2,76,0,50
2,72,59,10
2,72,0,55
2,74,71,5
2,74,0,60
2,71,71,0
2,71,0,55
2,72,59,5
2,72,0,60
2,69,71,0
2,69,0,55
2,71,71,5
2,71,0,45
2,67,59,15
2,67,0,50
2,76,59,10
2,76,0,50
2,72,71,10
2,72,0,50
2,74,71,10
2,74,0,55
2,71,85,5
2,71,0,55
2,72,71,5
2,72,0,55
2,69,71,5
2,69,0,50
2,71,71,10
2,71,0,50
2,67,71,10
2,67,0,45
2,76,71,1935
2,76,0,55
2,72,85,5
2,72,0,60
2,74,71,0
2,74,0,60
2,71,71,0
2,71,0,55
2,72,71,5
2,72,0,55
2,69,71,5
2,69,0,45
2,71,71,15
2,71,0,55
2,67,71,5
2,67,0,50
2,76,51,10
2,76,0,50
2,72,59,10
2,72,0,50
2,74,59,10
2,74,0,60
2,71,71,0
2,71,0,60
2,72,59,0
2,72,0,55
2,69,71,5
2,69,0,60
2,71,71,0
2,71,0,55
2,67,71,5
2,67,0,55
2,76,51,5
2,76,0,50
2,72,71,10
2,72,0,50
2,74,59,10
2,74,0,55
2,71,85,5
2,71,0,55
2,72,71,5
2,72,0,50
2,69,71,10
2,71,85,60
2,69,0,5
2,71,0,50
2,67,71,5
2,67,0,55
2,76,51,5
2,76,0,45
2,72,71,15
2,72,0,50
2,74,71,10
2,74,0,55
2,71,71,5
2,71,0,55
2,72,71,5
2,72,0,55
2,69,71,5
2,69,0,55
2,71,71,5
2,71,0,55
2,67,71,5
2,67,0,45
2,76,51,7695
2,76,0,55
2,72,59,5
2,72,0,55
2,74,71,5
2,74,0,55
2,71,71,5
2,71,0,55
2,72,71,5
2,72,0,60
2,69,59,0
2,69,0,60
2,71,85,0
2,71,0,50
2,67,71,10
2,67,0,50
2,76,71,10
2,76,0,60
2,72,71,0
2,72,0,50
2,74,85,10
2,74,0,60
2,71,71,0
2,71,0,55
2,72,59,5
2,72,0,55
2,69,59,5
2,69,0,55
2,71,71,5
2,71,0,50
2,67,71,10
2,67,0,50
2,76,71,970
2,76,0,55
2,72,85,5
2,72,0,55
2,74,71,5
2,74,0,60
2,71,85,0
2,71,0,55
2,72,59,5
2,72,0,60
2,69,71,0
2,69,0,55
2,71,85,5
2,71,0,55
2,67,71,5
2,67,0,45
3,33,84,827
3,33,0,0
3,33,84,0
3,33,0,30
3,33,84,30
3,33,0,0
3,33,84,0
3,33,0,45
3,36,84,15
3,36,0,0
3,36,84,0
3,36,0,35
3,36,84,25
3,36,0,0
3,36,84,0
3,36,0,35
3,38,84,25
3,38,0,0
3,38,84,0
3,38,0,40
3,38,84,20
3,38,0,0
3,38,84,0
3,38,0,35
3,39,84,25
3,39,0,0
3,39,84,0
3,39,0,50
3,40,84,10
3,40,0,0
3,40,84,0
3,40,0,60
3,33,84,0
3,33,0,0
3,33,84,0
3,33,0,35
3,33,84,25
3,33,0,0
3,33,84,0
3,33,0,45
3,36,84,15
3,36,0,0
3,36,84,0
3,36,0,30
3,36,84,30
3,36,0,0
3,36,84,0
3,36,0,50
3,33,84,10
3,33,0,0
3,33,84,0
3,33,0,60
3,33,84,180
3,33,0,35
3,33,84,25
3,33,0,40
3,36,84,20
3,36,0,40
3,36,84,20
3,36,0,45
3,38,84,15
3,38,0,40
3,38,84,20
3,38,0,40
3,39,84,20
3,39,0,50
3,40,84,10
3,33,84,60
3,40,0,5
3,33,0,30
3,33,84,25
3,33,0,45
3,36,84,15
3,36,0,30
3,36,84,30
3,36,0,50
3,33,84,10
3,33,0,60
3,33,84,180
3,33,0,35
3,33,84,25
3,33,0,35
3,36,84,25
3,36,0,35
3,36,84,25
3,36,0,40
3,38,84,20
3,38,0,35
3,38,84,25
3,38,0,40
3,39,84,20
3,39,0,50
3,40,84,10
3,40,0,60
3,33,84,0
3,33,0,30
3,33,84,30
3,33,0,40
3,36,84,20
3,36,0,30
3,36,84,30
3,36,0,50
3,33,84,10
3,33,0,50
3,33,84,190
3,33,0,30
3,33,84,30
3,33,0,35
3,36,84,25
3,36,0,35
