track,note,velocity,time
1,62,59,13728
1,59,53,0
1,60,54,0
1,60,52,0
1,62,55,0
1,59,52,0
1,60,54,0
1,60,51,0
1,62,54,0
1,60,53,0
1,60,54,0
1,62,53,0
1,64,58,0
1,64,58,0
1,62,57,384
1,60,54,0
1,64,55,0
1,62,50,0
1,60,53,0
1,60,52,0
1,62,52,0
1,60,54,0
1,60,51,0
1,62,53,0
1,64,54,0
1,64,53,0
1,60,58,384
1,62,58,0
1,59,56,384
1,60,58,0
1,60,54,576
1,59,53,0
1,60,54,0
1,59,54,0
1,55,56,0
1,60,58,1152
1,62,55,0
1,59,63,0
1,59,64,0
1,60,55,0
1,60,58,0
1,60,56,960
1,60,56,0
1,59,57,0
1,62,59,0
1,59,53,0
1,60,54,0
1,60,52,0
1,62,55,0
1,59,52,0
1,60,54,0
1,60,51,0
1,62,54,0
1,60,53,0
1,60,54,0
1,62,53,0
1,64,58,0
1,64,58,0
1,62,57,384
1,60,54,0
1,64,55,0
1,62,50,0
1,60,53,0
1,60,52,0
1,62,52,0
1,60,54,0
1,60,51,0
1,62,53,0
1,64,54,0
1,64,53,0
1,60,58,384
1,62,58,0
1,59,56,384
1,60,58,0
1,60,54,576
1,59,53,0
1,60,54,0
1,59,54,0
1,55,56,0
1,60,55,1536
1,60,58,0
1,59,54,0
1,55,54,0
1,57,54,0
1,57,57,0
1,62,58,192
1,67,54,0
1,67,53,0
1,62,58,0
1,67,53,0
1,67,53,0
1,62,59,0
1,67,52,0
1,67,53,0
1,69,53,0
1,64,57,0
1,64,58,768
1,64,54,0
1,62,54,0
1,64,57,0
1,62,58,576
1,67,54,0
1,67,54,0
1,62,58,0
1,67,52,0
1,67,51,0
1,62,59,0
1,67,54,0
1,67,54,0
1,69,53,0
1,64,58,0
1,64,59,768
1,64,53,0
1,62,58,0
1,64,59,0
1,60,58,1152
1,62,58,0
1,59,56,384
1,60,58,0
1,60,54,576
1,59,53,0
1,60,54,0
1,59,54,0
1,55,56,0
1,60,58,1152
1,62,55,0
1,59,63,0
1,59,64,0
1,60,55,0
1,60,58,0
1,60,56,960
1,60,56,0
1,59,55,0
1,60,53,0
1,60,56,1728
1,60,56,0
1,59,55,0
1,60,53,0
1,60,56,1728
1,60,56,0
1,59,55,0
1,55,58,0
2,60,58,26016
2,62,58,0
2,59,56,384
2,60,58,0
2,60,54,576
2,59,53,0
2,60,54,0
2,59,54,0
2,55,56,0
2,60,58,1152
2,62,55,0
2,59,54,0
2,59,56,0
2,60,55,0
2,60,58,0
2,60,56,960
2,60,56,0
2,59,57,0
2,60,58,12288
2,62,58,0
2,59,56,384
2,60,58,0
2,60,54,576
2,59,53,0
2,60,54,0
2,59,54,0
2,55,56,0
2,60,58,16512
2,62,58,0
2,59,56,384
2,60,58,0
2,60,54,576
2,59,53,0
2,60,54,0
2,59,54,0
2,55,56,0
2,60,58,1152
2,62,55,0
2,59,54,0
2,59,56,0
2,60,55,0
2,60,58,0
2,60,56,960
2,60,56,0
2,59,55,0
2,60,53,0
2,60,56,1728
2,60,56,0
2,59,55,0
2,60,53,0
2,60,56,1728
2,60,56,0
2,59,55,0
2,60,53,0
3,36,62,1536
3,53,54,0
3,55,56,0
3,57,51,0
3,55,52,0
3,57,54,0
3,53,53,0
3,36,69,0
3,55,51,0
3,57,54,0
3,59,58,0
3,57,59,0
3,59,54,0
3,55,56,0
3,36,63,0
3,57,58,0
3,55,53,0
3,57,58,0
3,59,55,0
3,57,53,0
3,55,53,0
3,36,74,0
3,57,57,0
3,55,58,0
3,55,56,0
3,57,58,0
3,55,58,0
3,36,62,0
3,53,54,0
3,55,56,0
3,57,51,0
3,55,52,0
3,57,54,0
3,53,53,0
3,36,69,0
3,55,51,0
3,57,54,0
3,59,58,0
3,57,59,0
3,59,54,0
3,55,56,0
3,36,63,0
3,57,58,0
3,55,53,0
3,57,58,0
3,59,55,0
3,57,53,0
3,55,53,0
3,36,74,0
3,57,57,0
3,55,58,0
3,55,56,0
3,57,58,0
3,55,58,0
3,53,53,12480
3,57,54,0
3,59,52,0
3,55,45,0
3,57,57,0
3,55,56,0
3,52,59,192
3,55,54,0
3,53,44,0
3,57,55,0
3,55,54,0
3,53,55,0
3,57,58,0
3,55,58,0
3,52,59,0
3,55,53,0
3,57,54,0
3,59,55,0
3,57,58,0
3,55,56,0
3,52,59,0
3,53,54,192
3,57,52,0
3,55,45,0
3,59,56,0
3,57,56,0
3,55,54,0
3,52,59,192
3,55,58,0
3,53,45,0
3,57,53,0
3,55,53,0
3,53,50,0
3,53,47,384
3,57,55,0
3,53,46,0
3,57,57,0
3,53,53,12480
3,57,54,0
3,59,52,0
3,55,45,0
3,57,57,0
3,55,56,0
3,52,59,192
3,55,54,0
3,53,44,0
3,57,55,0
3,55,54,0
3,53,55,0
3,57,58,0
3,55,58,0
3,52,59,0
3,55,53,0
3,57,54,0
3,59,55,0
3,57,58,0
3,55,56,0
3,52,59,0
3,45,59,4608
3,48,55,0
3,52,59,0
3,57,57,0
3,52,54,0
3,48,49,0
3,45,59,0
3,45,59,4608
3,48,56,0
3,52,54,0
3,57,58,0
3,52,55,0
3,48,53,0
3,45,56,0
3,53,53,3264
3,57,54,0
3,59,52,0
3,55,45,0
3,57,57,0
3,55,56,0
3,52,59,192
3,55,54,0
3,53,44,0
3,57,55,0
3,55,54,0
3,53,55,0
3,57,58,0
3,55,58,0
3,52,59,0
3,55,53,0
3,57,54,0
3,59,55,0
3,57,58,0
3,55,56,0
3,52,59,0
3,53,54,192
3,57,52,0
3,55,45,0
3,59,56,0
3,57,56,0
3,55,54,0
3,52,59,192
3,55,58,0
3,53,45,0
3,57,53,0
3,55,53,0
3,53,50,0
3,36,62,9216
3,53,54,0
3,55,56,0
3,57,51,0
3,55,52,0
3,57,54,0
3,53,53,0
3,36,69,0
3,55,51,0
3,57,54,0
3,59,58,0
3,57,59,0
3,59,54,0
3,55,56,0
3,36,63,0
3,57,58,0
3,55,53,0
3,57,58,0
3,59,55,0
3,57,53,0
3,55,53,0
3,36,74,0
3,57,57,0
3,55,58,0
3,55,56,0
3,57,58,0
3,55,58,0
3,36,62,0
3,53,54,0
3,55,56,0
3,57,51,0
3,55,52,0
3,57,54,0
3,53,53,0
3,36,69,0
3,55,51,0
3,57,54,0
3,59,58,0
3,57,59,0
3,59,54,0
3,55,56,0
3,36,63,0
3,57,58,0
3,55,53,0
3,57,58,0
3,59,55,0
3,57,53,0
3,55,53,0
3,36,74,0
3,57,57,0
3,55,58,0
3,55,56,0
3,57,58,0
3,55,58,0
3,36,63,0
3,57,58,0
3,55,53,0
3,57,58,0
3,59,55,0
3,57,53,0
3,55,53,0
3,36,74,0
3,57,57,0
3,55,58,0
3,55,56,0
3,57,58,0
3,55,58,0
3,57,59,0
4,41,62,1344
4,45,56,0
4,48,51,0
4,53,51,0
4,57,49,0
4,48,46,0
4,53,48,0
4,48,45,0
4,53,49,0
4,57,50,0
4,48,46,0
4,57,50,0
4,53,50,0
4,57,51,0
4,48,46,0
4,53,50,0
4,48,45,0
4,57,51,0
4,53,47,0
4,50,46,192
4,59,51,0
4,55,49,0
4,50,46,0
4,55,47,0
4,59,48,0
4,50,49,0
4,55,50,0
4,59,54,0
4,50,48,0
4,55,46,0
4,59,46,0
4,50,50,0
4,55,47,0
4,59,49,0
4,47,49,192
4,55,46,0
4,52,51,0
4,47,44,0
4,52,47,0
4,55,42,0
4,47,44,0
4,52,48,0
4,55,45,0
4,47,47,0
4,55,47,0
4,52,53,0
4,47,48,0
4,52,49,0
4,55,46,0
4,48,42,192
4,57,51,0
4,53,51,0
4,48,40,0
4,53,46,0
4,57,51,0
4,57,51,0
4,48,43,0
4,53,49,0
4,48,44,0
4,53,45,0
4,57,41,0
4,57,53,0
4,48,48,0
4,53,49,0
4,53,42,0
4,57,51,0
4,60,52,0
4,41,74,192
4,45,55,0
4,48,53,0
4,53,52,0
4,57,49,0
4,48,46,0
4,53,48,0
4,48,45,0
4,53,49,0
4,57,50,0
4,48,46,0
4,57,50,0
4,53,50,0
4,57,51,0
4,48,46,0
4,53,50,0
4,48,45,0
4,57,51,0
4,53,47,0
4,50,46,192
4,59,51,0
4,55,49,0
4,50,46,0
4,55,47,0
4,59,48,0
4,50,49,0
4,55,50,0
4,59,54,0
4,50,48,0
4,55,46,0
4,59,46,0
4,50,50,0
4,55,47,0
4,59,49,0
4,47,49,192
4,55,46,0
4,52,51,0
4,47,44,0
4,52,47,0
4,55,42,0
4,47,44,0
4,52,48,0
4,55,45,0
4,47,47,0
4,55,47,0
4,52,53,0
4,47,48,0
4,52,49,0
4,55,46,0
4,48,42,192
4,57,51,0
4,53,51,0
4,48,40,0
4,53,46,0
4,57,51,0
4,57,51,0
4,48,43,0
4,53,49,0
4,48,44,0
4,53,45,0
4,57,41,0
4,57,53,0
4,48,48,0
4,53,49,0
4,53,42,0
4,57,51,0
4,60,52,0
4,41,74,192
4,45,55,0
4,48,53,0
4,53,52,0
4,53,48,0
4,57,58,0
4,52,54,0
4,55,50,0
4,53,49,192
4,57,41,0
4,55,50,0
4,52,54,0
4,57,53,192
4,53,52,0
4,52,56,0
4,55,44,0
4,55,50,0
4,52,55,0
4,57,52,0
4,53,51,0
4,60,49,0
4,55,52,0
4,55,46,0
4,52,53,0
4,53,48,0
4,57,58,0
4,52,54,0
4,55,50,0
4,53,49,192
4,57,41,0
4,55,50,0
4,52,54,0
4,57,53,192
4,53,52,0
4,52,56,0
4,55,44,0
4,55,50,0
4,52,55,0
4,57,52,0
4,53,51,0
4,60,49,0
4,55,52,0
4,55,46,0
4,52,53,0
4,57,46,0
4,48,45,0
4,53,48,0
4,47,51,0
4,50,54,0
4,55,51,0
4,47,47,0
4,55,51,0
4,52,53,0
4,48,50,0
4,53,53,0
4,57,51,0
4,48,48,0
4,57,47,0
4,53,48,0
4,47,47,0
4,50,57,0
4,55,53,0
4,47,50,0
4,55,46,0
4,52,50,0
4,52,34,0
4,47,40,0
4,55,39,0
4,55,49,0
4,47,46,0
4,52,50,0
4,47,45,0
4,52,49,0
4,55,46,0
4,47,46,0
4,52,47,0
4,55,46,0
4,47,47,0
4,52,52,0
4,55,46,0
4,47,46,0
4,52,51,0
4,55,47,0
4,47,47,0
4,52,49,0
4,55,40,0
4,43,53,0
4,47,52,0
4,52,53,0
4,55,53,0
4,48,45,0
4,53,51,0
4,57,47,0
4,47,49,0
4,55,50,0
4,50,57,0
4,47,47,0
4,52,52,0
4,55,51,0
4,48,48,0
4,53,50,0
4,57,51,0
4,48,45,0
4,53,48,0
4,57,46,0
4,57,46,0
4,48,48,0
4,53,47,0
4,48,47,0
4,53,47,0
4,57,46,0
4,48,45,0
4,53,48,0
4,57,48,0
4,48,50,0
4,53,50,0
4,57,43,0
4,48,48,0
4,57,46,0
4,53,44,0
4,48,47,0
4,57,46,0
4,53,47,0
4,48,47,0
4,53,49,0
4,57,50,0
4,53,48,0
4,57,58,0
4,52,54,0
4,55,50,0
4,53,49,192
4,57,41,0
4,55,50,0
4,52,54,0
4,57,53,192
4,53,52,0
4,52,56,0
4,55,44,0
4,55,50,0
4,52,55,0
4,57,52,0
4,53,51,0
4,60,49,0
4,55,52,0
4,55,46,0
4,52,53,0
4,53,48,0
4,57,58,0
4,52,54,0
4,55,50,0
4,53,49,192
4,57,41,0
4,55,50,0
4,52,54,0
4,57,53,192
4,53,52,0
4,52,56,0
4,55,44,0
4,55,50,0
4,52,55,0
4,57,52,0
4,53,51,0
4,60,49,0
4,55,52,0
4,55,46,0
4,52,53,0
4,57,46,0
4,48,45,0
4,53,48,0
4,47,51,0
4,50,54,0
4,55,51,0
4,47,47,0
4,55,51,0
4,52,53,0
4,48,50,0
4,53,53,0
4,57,51,0
4,48,48,0
4,57,47,0
4,53,48,0
4,47,47,0
4,50,57,0
4,55,53,0
4,47,50,0
4,55,46,0
4,52,50,0
4,52,34,0
4,47,40,0
4,55,39,0
4,55,49,0
4,47,46,0
4,52,50,0
4,47,45,0
4,52,49,0
4,55,46,0
4,47,46,0
4,52,47,0
4,55,46,0
4,47,47,0
4,52,52,0
4,55,46,0
4,47,46,0
4,52,51,0
4,55,47,0
4,47,47,0
4,52,49,0
4,55,40,0
4,43,53,0
4,47,52,0
4,52,53,0
4,55,53,0
4,48,41,0
4,53,46,0
4,57,51,0
4,57,52,0
4,53,49,0
4,48,43,0
4,57,52,0
4,48,47,0
4,53,50,0
4,53,48,0
4,48,48,0
4,57,46,0
4,47,44,0
4,50,53,0
4,55,50,0
4,47,47,0
4,55,50,0
4,50,54,0
4,47,47,0
4,50,54,0
4,55,38,0
4,47,47,0
4,50,52,0
4,55,50,0
4,47,47,0
4,55,49,0
4,52,52,0
4,47,47,0
4,52,53,0
4,55,46,0
4,47,49,0
4,52,53,0
4,55,47,0
4,47,50,0
4,52,53,0
4,55,41,0
4,48,46,0
4,57,51,0
4,53,49,0
4,57,47,0
4,48,46,0
4,53,50,0
4,57,52,0
4,48,46,0
4,53,48,0
4,48,48,0
4,53,51,0
4,57,53,0
4,55,49,0
4,47,47,0
4,50,58,0
4,47,48,0
4,55,54,0
4,50,52,0
4,47,46,0
4,50,54,0
4,55,46,0
4,47,46,0
4,50,52,0
4,55,34,0
4,55,47,0
4,47,49,0
4,50,54,0
4,47,45,0
4,50,52,0
4,55,43,0
4,47,44,0
4,55,50,0
4,50,52,0
4,47,49,0
4,50,54,0
4,55,49,0
4,57,47,0
4,48,50,0
4,52,52,0
4,48,48,0
4,52,52,0
4,57,49,0
4,48,51,0
4,57,50,0
4,52,52,0
4,48,47,0
4,52,51,0
4,57,43,0
4,48,44,0
4,57,46,0
4,52,48,0
4,48,46,0
4,52,46,0
4,57,44,0
4,57,46,0
4,48,46,0
4,52,51,0
4,48,50,0
4,52,51,0
4,57,47,0
4,57,51,0
4,48,48,0
4,53,49,0
4,48,48,0
4,57,50,0
4,53,48,0
4,57,47,0
4,48,50,0
4,53,52,0
4,48,48,0
4,57,50,0
4,53,51,0
4,55,50,0
4,47,48,0
4,50,53,0
4,47,49,0
4,50,52,0
4,55,49,0
4,47,51,0
4,50,54,0
4,55,46,0
4,47,49,0
4,50,54,0
4,55,51,0
4,55,50,0
4,48,45,0
4,52,53,0
4,48,49,0
4,52,53,0
4,55,45,0
4,48,48,0
4,52,51,0
4,55,47,0
4,48,48,0
4,52,53,0
4,55,49,0
4,48,47,0
4,55,50,0
4,52,50,0
4,48,46,0
4,55,48,0
4,52,49,0
4,48,48,0
4,55,54,0
4,52,51,0
4,48,47,0
4,55,49,0
4,52,50,0
4,47,49,0
4,50,53,0
4,55,50,0
4,47,49,0
4,50,54,0
4,55,43,0
4,47,49,0
4,50,58,0
4,55,46,0
4,47,50,0
4,50,55,0
4,55,51,0
4,47,47,0
4,55,47,0
4,50,54,0
4,47,46,0
4,55,47,0
4,50,51,0
4,55,42,0
4,47,43,0
4,50,45,0
4,47,51,0
4,50,54,0
4,55,47,0
4,57,46,0
4,48,48,0
4,52,50,0
4,57,47,0
4,48,46,0
4,52,47,0
4,48,50,0
4,52,54,0
4,57,41,0
4,48,46,0
4,57,44,0
4,52,48,0
4,57,47,0
4,48,48,0
4,52,53,0
4,48,51,0
4,52,54,0
4,57,42,0
4,48,49,0
4,57,50,0
4,52,51,0
4,48,49,0
4,52,52,0
4,57,45,0
4,57,49,0
4,48,49,0
4,53,49,0
4,48,49,0
4,57,51,0
4,53,50,0
4,48,49,0
4,57,49,0
4,53,50,0
4,48,49,0
4,57,48,0
4,53,53,0
4,47,46,0
4,50,51,0
4,55,48,0
4,47,47,0
4,55,47,0
4,50,53,0
4,47,47,0
4,55,50,0
4,50,51,0
4,47,47,0
4,50,53,0
4,55,52,0
4,43,46,0
4,48,53,0
4,52,50,0
4,52,54,0
4,43,46,0
4,48,53,0
4,43,48,0
4,52,53,0
4,48,53,0
4,43,50,0
4,48,53,0
4,52,49,0
4,43,45,0
4,52,52,0
4,48,53,0
