track,note,velocity,time
1,62,91,13728
1,62,0,384
1,59,85,0
1,59,0,192
1,60,86,0
1,60,0,384
1,60,84,0
1,60,0,576
1,62,87,0
1,62,0,384
1,59,84,0
1,59,0,192
1,60,86,0
1,60,0,384
1,60,83,0
1,60,0,576
1,62,86,0
1,62,0,576
1,60,85,0
1,60,0,384
1,60,86,0
1,60,0,576
1,62,85,0
1,62,0,192
1,64,90,0
1,64,0,384
1,64,90,0
1,64,0,576
1,62,89,384
1,62,0,576
1,60,86,0
1,60,0,384
1,64,87,0
1,64,0,576
1,62,82,0
1,62,0,576
1,60,85,0
1,60,0,384
1,60,84,0
1,60,0,576
1,62,84,0
1,62,0,576
1,60,86,0
1,60,0,384
1,60,83,0
1,60,0,576
1,62,85,0
1,62,0,192
1,64,86,0
1,64,0,384
1,64,85,0
1,64,0,576
1,60,90,384
1,60,0,576
1,62,90,0
1,62,0,576
1,59,88,384
1,59,0,576
1,60,90,0
1,60,0,576
1,60,86,576
1,60,0,192
1,59,85,0
1,59,0,384
1,60,86,0
1,60,0,384
1,59,86,0
1,59,0,192
1,55,88,0
1,55,0,576
1,60,90,1152
1,60,0,576
1,62,87,0
1,62,0,576
1,59,95,0
1,59,0,192
1,59,96,0
1,59,0,384
1,60,87,0
1,60,0,192
1,60,90,0
1,60,0,576
1,60,88,960
1,60,0,384
1,60,88,0
1,60,0,384
1,59,89,0
1,59,0,384
1,62,91,0
1,62,0,384
1,59,85,0
1,59,0,192
1,60,86,0
1,60,0,384
1,60,84,0
1,60,0,576
1,62,87,0
1,62,0,384
1,59,84,0
1,59,0,192
1,60,86,0
1,60,0,384
1,60,83,0
1,60,0,576
1,62,86,0
1,62,0,576
1,60,85,0
1,60,0,384
1,60,86,0
1,60,0,576
1,62,85,0
1,62,0,192
1,64,90,0
1,64,0,384
1,64,90,0
1,64,0,576
1,62,89,384
1,62,0,576
1,60,86,0
1,60,0,384
1,64,87,0
1,64,0,576
1,62,82,0
1,62,0,576
1,60,85,0
1,60,0,384
1,60,84,0
1,60,0,576
1,62,84,0
1,62,0,576
1,60,86,0
1,60,0,384
1,60,83,0
1,60,0,576
1,62,85,0
1,62,0,192
1,64,86,0
1,64,0,384
1,64,85,0
1,64,0,576
1,60,90,384
1,60,0,576
1,62,90,0
1,62,0,576
1,59,88,384
1,59,0,576
1,60,90,0
1,60,0,576
1,60,86,576
1,60,0,192
1,59,85,0
1,59,0,384
1,60,86,0
1,60,0,384
1,59,86,0
1,59,0,192
1,55,88,0
1,55,0,576
1,60,87,1536
1,60,0,192
1,60,90,0
1,60,0,384
1,59,86,0
1,59,0,384
1,55,86,0
1,55,0,384
1,57,86,0
1,57,0,384
1,57,89,0
1,57,0,192
1,62,90,192
1,62,0,192
1,67,86,0
1,67,0,192
1,67,85,0
1,67,0,384
1,62,90,0
1,62,0,192
1,67,85,0
1,67,0,192
1,67,85,0
1,67,0,384
1,62,91,0
1,62,0,192
1,67,84,0
1,67,0,192
1,67,85,0
1,67,0,384
1,69,85,0
1,69,0,384
1,64,89,0
1,64,0,576
1,64,90,768
1,64,0,384
1,64,86,0
1,64,0,384
1,62,86,0
1,62,0,192
1,64,89,0
1,64,0,576
1,62,90,576
1,62,0,192
1,67,86,0
1,67,0,192
1,67,86,0
1,67,0,384
1,62,90,0
1,62,0,192
1,67,84,0
1,67,0,192
1,67,83,0
1,67,0,384
1,62,91,0
1,62,0,192
1,67,86,0
1,67,0,192
1,67,86,0
1,67,0,384
1,69,85,0
1,69,0,384
1,64,90,0
1,64,0,576
1,64,91,768
1,64,0,384
1,64,85,0
1,64,0,384
1,62,90,0
1,62,0,192
1,64,91,0
1,64,0,576
1,60,90,1152
1,60,0,576
1,62,90,0
1,62,0,576
1,59,88,384
1,59,0,576
1,60,90,0
1,60,0,576
1,60,86,576
1,60,0,192
1,59,85,0
1,59,0,384
1,60,86,0
1,60,0,384
1,59,86,0
1,59,0,192
1,55,88,0
1,55,0,576
1,60,90,1152
1,60,0,576
1,62,87,0
1,62,0,576
1,59,95,0
1,59,0,192
1,59,96,0
1,59,0,384
1,60,87,0
1,60,0,192
1,60,90,0
1,60,0,576
1,60,88,960
1,60,0,384
1,60,88,0
1,60,0,384
1,59,87,0
1,59,0,192
1,60,85,0
1,60,0,384
1,60,88,1728
1,60,0,384
1,60,88,0
1,60,0,384
1,59,87,0
1,59,0,192
1,60,85,0
1,60,0,384
1,60,88,1728
1,60,0,384
1,60,88,0
1,60,0,384
1,59,87,0
1,59,0,192
1,55,90,0
1,55,0,576
2,60,88,26016
2,60,0,576
2,62,88,0
2,62,0,576
2,59,86,384
2,59,0,576
2,60,88,0
2,60,0,576
2,60,84,576
2,60,0,192
2,59,83,0
2,59,0,384
2,60,84,0
2,60,0,384
2,59,84,0
2,59,0,192
2,55,86,0
2,55,0,576
2,60,88,1152
2,60,0,576
2,62,85,0
2,62,0,576
2,59,84,0
2,59,0,192
2,59,86,0
2,59,0,384
2,60,85,0
2,60,0,192
2,60,88,0
2,60,0,576
2,60,86,960
2,60,0,384
2,60,86,0
2,60,0,384
2,59,87,0
2,59,0,384
2,60,88,12288
2,60,0,576
2,62,88,0
2,62,0,576
2,59,86,384
2,59,0,576
2,60,88,0
2,60,0,576
2,60,84,576
2,60,0,192
2,59,83,0
2,59,0,384
2,60,84,0
2,60,0,384
2,59,84,0
2,59,0,192
2,55,86,0
2,55,0,576
2,60,88,16512
2,60,0,576
2,62,88,0
2,62,0,576
2,59,86,384
2,59,0,576
2,60,88,0
2,60,0,576
2,60,84,576
2,60,0,192
2,59,83,0
2,59,0,384
2,60,84,0
2,60,0,384
2,59,84,0
2,59,0,192
2,55,86,0
2,55,0,576
2,60,88,1152
2,60,0,576
2,62,85,0
2,62,0,576
2,59,84,0
2,59,0,192
2,59,86,0
2,59,0,384
2,60,85,0
2,60,0,192
2,60,88,0
2,60,0,576
2,60,86,960
2,60,0,384
2,60,86,0
2,60,0,384
2,59,85,0
2,59,0,192
2,60,83,0
2,60,0,384
2,60,86,1728
2,60,0,384
2,60,86,0
2,60,0,384
2,59,85,0
2,59,0,192
2,60,83,0
2,60,0,384
2,60,86,1728
2,60,0,384
2,60,86,0
2,60,0,384
2,59,85,0
2,59,0,192
2,60,83,0
2,60,0,384
3,36,62,1536
3,36,0,192
3,53,54,0
3,53,0,192
3,55,56,0
3,55,0,192
3,57,51,0
3,57,0,384
3,55,52,0
3,55,0,192
3,57,54,0
3,57,0,192
3,53,53,0
3,53,0,192
3,36,69,0
3,36,0,192
3,55,51,0
3,55,0,192
3,57,54,0
3,57,0,192
3,59,58,0
3,59,0,384
3,57,59,0
3,57,0,192
3,59,54,0
3,59,0,192
3,55,56,0
3,55,0,192
3,36,63,0
3,36,0,192
3,57,58,0
3,57,0,192
3,55,53,0
3,55,0,192
3,57,58,0
3,57,0,384
3,59,55,0
3,59,0,192
3,57,53,0
3,57,0,192
3,55,53,0
3,55,0,192
3,36,74,0
3,36,0,192
3,57,57,0
3,57,0,192
3,55,58,0
3,55,0,192
3,55,56,0
3,55,0,48
3,57,58,0
3,57,0,528
3,55,58,0
3,55,0,384
3,36,62,0
3,36,0,192
3,53,54,0
3,53,0,192
3,55,56,0
3,55,0,192
3,57,51,0
3,57,0,384
3,55,52,0
3,55,0,192
3,57,54,0
3,57,0,192
3,53,53,0
3,53,0,192
3,36,69,0
3,36,0,192
3,55,51,0
3,55,0,192
3,57,54,0
3,57,0,192
3,59,58,0
3,59,0,384
3,57,59,0
3,57,0,192
3,59,54,0
3,59,0,192
3,55,56,0
3,55,0,192
3,36,63,0
3,36,0,192
3,57,58,0
3,57,0,192
3,55,53,0
3,55,0,192
3,57,58,0
3,57,0,384
3,59,55,0
3,59,0,192
3,57,53,0
3,57,0,192
3,55,53,0
3,55,0,192
3,36,74,0
3,36,0,192
3,57,57,0
3,57,0,192
3,55,58,0
3,55,0,192
3,55,56,0
3,55,0,48
3,57,58,0
3,57,0,528
3,55,58,0
3,55,0,384
3,53,53,12480
3,53,0,192
3,57,54,0
3,57,0,192
3,59,52,0
3,55,45,0
3,55,0,384
3,59,0,0
3,57,57,0
3,57,0,192
3,55,56,0
3,55,0,384
3,52,59,192
3,52,0,192
3,55,54,0
3,55,0,192
3,53,44,0
3,57,55,0
3,57,0,384
3,53,0,0
3,55,54,0
3,55,0,192
3,53,55,0
3,53,0,384
3,57,58,0
3,57,0,768
3,55,58,0
3,55,0,576
3,52,59,0
3,52,0,384
3,55,53,0
3,55,0,192
3,57,54,0
3,57,0,192
3,59,55,0
3,59,0,384
3,57,58,0
3,57,0,192
3,55,56,0
3,55,0,192
3,52,59,0
3,52,0,192
3,53,54,192
3,53,0,192
3,57,52,0
3,57,0,192
3,55,45,0
3,59,56,0
3,59,0,384
3,55,0,0
3,57,56,0
3,57,0,192
3,55,54,0
3,55,0,384
3,52,59,192
3,52,0,192
3,55,58,0
3,55,0,192
3,53,45,0
3,57,53,0
3,57,0,384
3,53,0,0
3,55,53,0
3,55,0,192
3,53,50,0
3,53,0,384
3,53,47,384
3,57,55,0
3,57,0,384
3,53,0,0
3,53,46,0
3,57,57,0
3,57,0,768
3,53,0,0
3,53,53,12480
3,53,0,192
3,57,54,0
3,57,0,192
3,59,52,0
3,55,45,0
3,55,0,384
3,59,0,0
3,57,57,0
3,57,0,192
3,55,56,0
3,55,0,384
3,52,59,192
3,52,0,192
3,55,54,0
3,55,0,192
3,53,44,0
3,57,55,0
3,57,0,384
3,53,0,0
3,55,54,0
3,55,0,192
3,53,55,0
3,53,0,384
3,57,58,0
3,57,0,768
3,55,58,0
3,55,0,576
3,52,59,0
3,52,0,384
3,55,53,0
3,55,0,192
3,57,54,0
3,57,0,192
3,59,55,0
3,59,0,384
3,57,58,0
3,57,0,192
3,55,56,0
3,55,0,192
3,52,59,0
3,52,0,192
3,45,59,4608
3,45,0,192
3,48,55,0
3,48,0,192
3,52,59,0
3,52,0,192
3,57,57,0
3,57,0,384
3,52,54,0
3,52,0,192
3,48,49,0
3,48,0,192
3,45,59,0
3,45,0,192
3,45,59,4608
3,45,0,192
3,48,56,0
3,48,0,192
3,52,54,0
3,52,0,192
3,57,58,0
3,57,0,384
3,52,55,0
3,52,0,192
3,48,53,0
3,48,0,192
3,45,56,0
3,45,0,192
3,53,53,3264
3,53,0,192
3,57,54,0
3,57,0,192
3,59,52,0
3,55,45,0
3,55,0,384
3,59,0,0
3,57,57,0
3,57,0,192
3,55,56,0
3,55,0,384
3,52,59,192
3,52,0,192
3,55,54,0
3,55,0,192
3,53,44,0
3,57,55,0
3,57,0,384
3,53,0,0
3,55,54,0
3,55,0,192
3,53,55,0
3,53,0,384
3,57,58,0
3,57,0,768
3,55,58,0
3,55,0,576
3,52,59,0
3,52,0,384
3,55,53,0
3,55,0,192
3,57,54,0
3,57,0,192
3,59,55,0
3,59,0,384
3,57,58,0
3,57,0,192
3,55,56,0
3,55,0,192
3,52,59,0
3,52,0,192
3,53,54,192
3,53,0,192
3,57,52,0
3,57,0,192
3,55,45,0
3,59,56,0
3,59,0,384
3,55,0,0
3,57,56,0
3,57,0,192
3,55,54,0
3,55,0,384
3,52,59,192
3,52,0,192
3,55,58,0
3,55,0,192
3,53,45,0
3,57,53,0
3,57,0,384
3,53,0,0
3,55,53,0
3,55,0,192
3,53,50,0
3,53,0,384
3,36,62,9216
3,36,0,192
3,53,54,0
3,53,0,192
3,55,56,0
3,55,0,192
3,57,51,0
3,57,0,384
3,55,52,0
3,55,0,192
3,57,54,0
3,57,0,192
3,53,53,0
3,53,0,192
3,36,69,0
3,36,0,192
3,55,51,0
3,55,0,192
3,57,54,0
3,57,0,192
3,59,58,0
3,59,0,384
3,57,59,0
3,57,0,192
3,59,54,0
3,59,0,192
3,55,56,0
3,55,0,192
3,36,63,0
3,36,0,192
3,57,58,0
3,57,0,192
3,55,53,0
3,55,0,192
3,57,58,0
3,57,0,384
3,59,55,0
3,59,0,192
3,57,53,0
3,57,0,192
3,55,53,0
3,55,0,192
3,36,74,0
3,36,0,192
3,57,57,0
3,57,0,192
3,55,58,0
3,55,0,192
3,55,56,0
3,55,0,48
3,57,58,0
3,57,0,528
3,55,58,0
3,55,0,384
3,36,62,0
3,36,0,192
3,53,54,0
3,53,0,192
3,55,56,0
3,55,0,192
3,57,51,0
3,57,0,384
3,55,52,0
3,55,0,192
3,57,54,0
3,57,0,192
3,53,53,0
3,53,0,192
3,36,69,0
3,36,0,192
3,55,51,0
3,55,0,192
3,57,54,0
3,57,0,192
3,59,58,0
3,59,0,384
3,57,59,0
3,57,0,192
3,59,54,0
3,59,0,192
3,55,56,0
3,55,0,192
3,36,63,0
3,36,0,192
3,57,58,0
3,57,0,192
3,55,53,0
3,55,0,192
3,57,58,0
3,57,0,384
3,59,55,0
3,59,0,192
3,57,53,0
3,57,0,192
3,55,53,0
3,55,0,192
3,36,74,0
3,36,0,192
3,57,57,0
3,57,0,192
3,55,58,0
3,55,0,192
3,55,56,0
3,55,0,48
3,57,58,0
3,57,0,528
3,55,58,0
3,55,0,384
3,36,63,0
3,36,0,192
3,57,58,0
3,57,0,192
3,55,53,0
3,55,0,192
3,57,58,0
3,57,0,384
3,59,55,0
3,59,0,192
3,57,53,0
3,57,0,192
3,55,53,0
3,55,0,192
3,36,74,0
3,36,0,192
3,57,57,0
3,57,0,192
3,55,58,0
3,55,0,192
3,55,56,0
3,55,0,48
3,57,58,0
3,57,0,528
3,55,58,0
3,55,0,384
3,57,59,0
3,57,0,384
4,41,62,1344
4,41,0,48
4,45,56,0
4,45,0,48
4,48,51,0
4,48,0,48
4,53,51,0
4,53,0,48
4,57,49,0
4,48,46,0
4,53,48,0
4,53,0,192
4,48,0,0
4,57,0,0
4,48,45,0
4,53,49,0
4,57,50,0
4,57,0,96
4,53,0,0
4,48,0,0
4,48,46,0
4,57,50,0
4,53,50,0
4,53,0,96
4,57,0,0
4,48,0,0
4,57,51,0
4,48,46,0
4,53,50,0
4,53,0,192
4,48,0,0
4,57,0,0
4,48,45,0
4,57,51,0
4,53,47,0
4,53,0,768
4,57,0,0
4,48,0,0
4,50,46,192
4,59,51,0
4,55,49,0
4,55,0,192
4,59,0,0
4,50,0,0
4,50,46,0
4,55,47,0
4,59,48,0
4,59,0,96
4,55,0,0
4,50,0,0
4,50,49,0
4,55,50,0
4,59,54,0
4,59,0,96
4,55,0,0
4,50,0,0
4,50,48,0
4,55,46,0
4,59,46,0
4,59,0,192
4,55,0,0
4,50,0,0
4,50,50,0
4,55,47,0
4,59,49,0
4,59,0,768
4,55,0,0
4,50,0,0
4,47,49,192
4,55,46,0
4,52,51,0
4,52,0,192
4,55,0,0
4,47,0,0
4,47,44,0
4,52,47,0
4,55,42,0
4,55,0,96
4,52,0,0
4,47,0,0
4,47,44,0
4,52,48,0
4,55,45,0
4,55,0,96
4,52,0,0
4,47,0,0
4,47,47,0
4,55,47,0
4,52,53,0
4,52,0,192
4,55,0,0
4,47,0,0
4,47,48,0
4,52,49,0
4,55,46,0
4,55,0,768
4,52,0,0
4,47,0,0
4,48,42,192
4,57,51,0
4,53,51,0
4,53,0,192
4,57,0,0
4,48,0,0
4,48,40,0
4,53,46,0
4,57,51,0
4,57,0,96
4,53,0,0
4,48,0,0
4,57,51,0
4,48,43,0
4,53,49,0
4,53,0,96
4,48,0,0
4,57,0,0
4,48,44,0
4,53,45,0
4,57,41,0
4,57,0,192
4,53,0,0
4,48,0,0
4,57,53,0
4,48,48,0
4,53,49,0
4,53,0,192
4,48,0,0
4,57,0,0
4,53,42,0
4,57,51,0
4,60,52,0
4,60,0,384
4,57,0,0
4,53,0,0
4,41,74,192
4,41,0,48
4,45,55,0
4,45,0,48
4,48,53,0
4,48,0,48
4,53,52,0
4,53,0,48
4,57,49,0
4,48,46,0
4,53,48,0
4,53,0,192
4,48,0,0
4,57,0,0
4,48,45,0
4,53,49,0
4,57,50,0
4,57,0,96
4,53,0,0
4,48,0,0
