track,note,velocity,time
0,40,92,96
0,68,97,0
0,64,89,0
0,59,85,0
0,76,110,0
0,64,127,0
0,67,69,0
0,49,111,0
0,35,108,0
0,52,92,14
0,64,69,0
0,68,71,0
0,59,67,0
0,67,69,0
0,46,62,0
0,52,92,5
0,64,69,0
0,68,71,0
0,59,67,0
0,46,62,0
0,40,92,0
0,73,111,0
0,61,127,0
0,68,69,0
0,42,79,0
0,38,90,0
0,35,108,0
0,52,92,7
0,68,72,0
0,64,71,0
0,59,68,0
0,71,109,0
0,59,114,0
0,46,62,0
0,52,92,5
0,59,67,0
0,64,68,0
0,68,71,0
0,67,69,0
0,46,62,0
0,40,92,3
0,68,69,0
0,64,67,0
0,59,63,0
0,76,110,0
0,64,127,0
0,42,79,0
0,35,108,0
0,68,68,5
0,59,66,0
0,64,67,0
0,67,69,0
0,52,92,3
0,68,69,0
0,64,68,0
0,59,66,0
0,46,62,0
0,52,92,5
0,64,68,0
0,59,66,0
0,68,67,0
0,67,69,0
0,46,62,0
0,40,92,4
0,73,111,0
0,61,127,0
0,67,69,0
0,42,79,0
0,38,90,0
0,35,108,0
0,52,92,5
0,59,69,0
0,64,71,0
0,68,71,0
0,71,109,0
0,59,118,0
0,68,69,0
0,46,62,0
0,52,92,5
0,59,68,0
0,64,70,0
0,68,70,0
0,46,62,0
0,40,92,5
0,67,69,0
0,42,79,0
0,35,108,0
0,52,92,16
0,92,105,0
0,80,105,0
0,64,69,0
0,68,71,0
0,59,67,0
0,67,69,0
0,46,62,0
0,52,92,5
0,64,69,0
0,68,71,0
0,59,67,0
0,46,62,0
0,40,92,5
0,68,69,0
0,42,79,0
0,38,90,0
0,35,108,0
0,52,92,7
0,78,105,0
0,90,105,0
0,68,72,0
0,64,71,0
0,59,68,0
0,46,62,0
0,52,92,5
0,59,67,0
0,64,68,0
0,68,71,0
0,67,69,0
0,46,62,0
0,40,92,1
0,76,105,0
0,88,105,0
0,68,69,0
0,64,67,0
0,59,63,0
0,66,96,0
0,59,78,0
0,42,79,0
0,35,108,0
0,52,92,5
0,68,68,0
0,59,66,0
0,64,67,0
0,67,69,0
0,52,92,2
0,76,105,0
0,88,105,0
0,68,69,0
0,64,68,0
0,59,66,0
0,46,62,0
0,52,92,4
0,64,68,0
0,59,66,0
0,68,67,0
0,67,69,0
0,46,62,0
0,40,92,4
0,78,105,0
0,90,105,0
0,67,69,0
0,42,79,0
0,38,90,0
0,35,108,0
0,52,92,11
0,59,69,0
0,64,71,0
0,68,71,0
0,68,69,0
0,46,62,0
0,52,92,4
0,59,68,0
0,64,70,0
0,68,70,0
0,46,62,0
0,37,92,1
0,88,105,0
0,76,105,0
0,61,96,0
0,64,89,0
0,76,109,0
0,64,127,0
0,67,69,0
0,42,79,0
0,35,108,0
0,49,92,12
0,64,69,0
0,68,71,0
0,59,67,0
0,67,69,0
0,46,62,0
0,49,92,4
0,64,69,0
0,68,71,0
0,59,67,0
0,46,62,0
0,37,92,3
0,73,111,0
0,61,126,0
0,68,69,0
0,42,79,0
0,38,90,0
0,35,108,0
0,49,92,7
0,68,72,0
0,64,71,0
0,59,68,0
0,71,108,0
0,59,112,0
0,46,62,0
0,49,92,5
0,59,67,0
0,64,68,0
0,68,71,0
0,67,69,0
0,46,62,0
0,37,92,3
0,68,69,0
0,64,67,0
0,59,63,0
0,76,111,0
0,64,127,0
0,42,79,0
0,35,108,0
0,68,68,5
0,59,66,0
0,64,67,0
0,67,69,0
0,49,92,3
0,68,69,0
0,64,68,0
0,59,66,0
0,46,62,0
0,49,92,5
0,64,68,0
0,59,66,0
0,68,67,0
0,67,69,0
0,46,62,0
0,37,92,3
0,73,111,0
0,61,126,0
0,67,69,0
0,42,79,0
0,38,90,0
0,35,108,0
0,49,92,3
0,59,69,0
0,64,71,0
0,68,71,0
0,71,109,0
0,59,114,0
0,68,69,0
0,46,62,0
0,49,92,5
0,59,68,0
0,64,70,0
0,68,70,0
0,46,62,0
0,37,92,5
0,67,69,0
0,42,79,0
0,35,108,0
0,49,92,14
0,92,105,0
0,80,105,0
0,64,69,0
0,68,71,0
0,59,67,0
0,67,69,0
0,46,62,0
0,49,92,5
0,64,69,0
0,68,71,0
0,59,67,0
0,46,62,0
0,37,92,5
0,68,69,0
0,42,79,0
0,38,90,0
0,35,108,0
0,49,92,7
0,90,105,0
0,78,105,0
0,68,72,0
0,64,71,0
0,59,68,0
0,46,62,0
0,49,92,5
0,59,67,0
0,64,68,0
0,68,71,0
0,67,69,0
0,46,62,0
0,37,92,1
0,76,105,0
0,88,105,0
0,68,69,0
0,64,67,0
0,59,63,0
0,63,96,0
0,59,81,0
0,42,79,0
0,35,108,0
0,49,92,5
0,68,68,0
0,59,66,0
0,64,67,0
0,67,69,0
0,49,92,3
0,88,105,0
0,76,105,0
0,68,69,0
0,64,68,0
0,59,66,0
0,46,62,0
0,49,92,5
0,64,68,0
0,59,66,0
0,68,67,0
0,67,69,0
0,46,62,0
0,37,92,5
0,78,105,0
0,90,105,0
0,67,69,0
0,42,79,0
0,38,90,0
0,35,108,0
0,49,92,11
0,59,69,0
0,64,71,0
0,68,71,0
0,68,69,0
0,46,62,0
0,49,92,5
0,59,68,0
0,64,70,0
0,68,70,0
0,46,62,0
0,33,92,1
0,88,105,0
0,76,105,0
0,69,93,0
0,64,93,0
0,61,88,0
0,76,110,0
0,64,127,0
0,67,69,0
0,42,79,0
0,35,108,0
0,45,92,7
0,64,71,0
0,69,70,0
0,61,71,0
0,67,69,0
0,46,62,0
0,45,92,4
0,69,68,0
0,61,71,0
0,64,71,0
0,46,62,0
0,33,92,3
0,73,111,0
0,61,126,0
0,68,69,0
0,42,79,0
0,38,90,0
0,35,108,0
0,45,92,4
0,61,72,0
0,64,71,0
0,69,69,0
0,71,108,0
0,59,112,0
0,46,62,0
0,45,92,5
0,69,67,0
0,64,70,0
0,61,71,0
0,67,69,0
0,46,62,0
0,33,92,2
0,69,69,0
0,61,70,0
0,64,70,0
0,76,110,0
0,64,127,0
0,42,79,0
0,35,108,0
0,69,70,5
0,61,72,0
0,64,71,0
0,67,69,0
0,45,92,3
0,64,70,0
0,61,70,0
0,69,68,0
0,46,62,0
0,45,92,1
0,69,70,0
0,64,71,0
0,61,72,0
0,67,69,0
0,46,62,0
0,33,92,4
0,73,111,0
0,61,127,0
0,67,69,0
0,42,79,0
0,38,90,0
0,35,108,0
0,45,92,7
0,95,105,0
0,83,105,0
0,61,73,0
0,64,71,0
0,69,71,0
0,68,69,0
0,46,62,0
0,69,69,5
0,64,71,0
0,61,71,0
0,46,62,0
0,35,106,1
0,71,97,0
0,66,96,0
0,63,94,0
0,67,69,0
0,42,79,0
0,35,108,0
0,47,86,5
0,95,105,0
0,83,105,0
0,59,70,0
0,63,73,0
0,66,72,0
0,67,69,0
0,46,62,0
0,47,94,5
0,66,71,0
0,63,71,0
0,59,69,0
0,46,62,0
0,35,102,5
0,68,69,0
0,42,79,0
0,38,90,0
0,35,108,0
0,47,90,5
0,97,105,0
0,85,105,0
0,63,74,0
0,66,72,0
0,59,68,0
0,46,62,0
0,47,62,5
0,63,70,0
0,66,70,0
0,59,68,0
0,67,69,0
0,46,62,0
0,35,92,4
0,92,105,0
0,80,105,0
0,63,74,0
0,66,72,0
0,59,69,0
0,42,79,0
0,35,108,0
0,66,71,5
0,63,69,0
0,59,67,0
0,67,69,0
0,47,88,3
0,63,71,0
0,66,71,0
0,59,68,0
0,46,62,0
0,47,78,5
0,63,71,0
0,66,70,0
0,59,67,0
0,67,69,0
0,46,62,0
0,35,92,5
0,90,105,0
0,78,105,0
0,67,69,0
0,42,79,0
0,38,90,0
0,35,108,0
0,47,80,5
0,90,105,0
0,78,105,0
0,59,69,0
0,66,72,0
0,63,74,0
0,68,69,0
0,46,62,0
0,59,70,2
0,63,75,0
0,66,72,0
0,46,62,0
0,64,88,1
0,76,86,0
0,64,105,0
0,64,107,0
0,35,108,0
0,52,91,0
0,64,91,0
0,76,105,5
0,66,92,0
0,78,96,0
0,66,105,0
0,66,113,0
0,54,111,1
0,66,114,0
0,78,105,3
0,68,110,0
0,80,108,0
0,68,105,0
0,68,120,0
0,35,108,0
0,56,123,0
0,68,122,0
0,80,105,3
0,69,88,0
0,81,94,0
0,69,105,0
0,69,107,0
0,57,108,1
0,69,112,0
0,81,105,5
0,71,96,0
0,83,88,0
0,71,105,0
0,71,107,0
0,35,108,0
0,59,114,0
0,71,108,0
0,83,105,4
0,69,96,0
0,81,84,0
0,69,105,0
0,69,105,0
0,57,114,1
0,69,105,0
0,81,105,1
0,68,112,0
0,80,106,0
0,68,105,0
0,68,118,0
0,35,108,0
0,56,125,0
0,68,121,0
0,80,105,2
0,66,96,0
0,78,96,0
0,66,105,0
0,66,114,0
0,54,114,1
0,66,114,0
0,78,105,2
0,64,84,0
0,76,90,0
0,64,105,0
0,64,108,0
0,35,108,0
0,52,105,0
0,64,109,0
0,76,105,3
0,68,110,0
0,80,104,0
0,68,105,0
0,68,119,0
0,56,123,1
0,68,119,0
0,80,105,3
0,71,88,0
0,83,86,0
0,71,105,0
0,71,108,0
0,35,108,0
0,59,108,0
0,71,107,0
0,83,105,4
0,68,112,0
0,80,106,0
0,68,105,0
0,68,118,0
0,56,125,1
0,68,121,0
0,80,105,4
0,71,110,0
0,78,111,0
0,83,110,0
0,46,104,0
0,42,17,39
0,83,110,26
0,78,111,0
0,71,110,0
0,46,104,0
0,42,17,0
0,40,92,7
0,64,95,0
0,68,96,0
0,59,94,0
0,59,77,0
0,68,79,0
0,64,71,0
0,49,111,0
0,67,79,0
0,35,108,0
0,71,113,0
0,42,58,23
0,52,92,8
0,42,100,0
0,67,79,0
0,71,99,0
0,52,92,10
0,42,58,0
0,40,92,8
0,71,121,0
0,42,58,0
0,68,79,0
0,38,90,0
0,35,108,0
0,42,58,23
0,52,92,11
0,71,105,0
0,42,100,0
0,52,92,8
0,42,58,0
0,67,79,0
0,40,92,5
0,71,109,0
0,42,58,0
0,35,108,0
0,52,92,6
0,42,58,0
0,67,79,0
0,71,105,4
0,52,92,1
0,42,100,0
0,52,92,6
0,42,58,0
0,67,79,0
0,71,117,4
0,40,92,2
0,42,58,0
0,67,79,0
0,38,90,0
0,35,108,0
0,42,58,23
0,52,92,5
0,71,114,0
0,42,100,0
0,68,79,0
0,52,92,6
0,42,58,0
0,73,125,3
0,37,92,0
0,61,96,0
0,68,96,0
0,64,95,0
0,68,83,0
0,64,78,0
0,61,84,0
0,42,58,0
0,67,79,0
0,35,108,0
0,42,58,23
0,49,92,3
0,42,100,0
0,67,79,0
0,75,122,2
0,49,92,1
0,42,58,0
0,37,92,4
0,42,58,0
0,68,79,0
0,38,90,0
0,35,108,0
0,42,58,23
0,49,92,7
0,73,123,0
0,42,100,0
0,49,92,3
0,42,58,0
0,67,79,0
0,37,92,4
0,42,58,0
0,35,108,0
0,42,58,23
0,67,79,0
0,68,127,1
0,49,92,4
0,42,100,0
0,49,92,4
0,42,58,0
0,67,79,0
0,37,92,8
0,42,58,0
0,67,79,0
0,38,90,0
0,35,108,0
0,42,58,2
0,49,92,2
0,73,125,0
0,42,100,0
0,68,79,0
0,49,92,1
0,42,58,0
0,33,92,3
0,64,95,0
0,61,96,0
0,57,92,0
0,61,86,0
0,69,75,0
0,64,81,0
0,42,58,0
0,67,79,0
0,35,108,0
0,42,58,19
0,73,115,11
0,45,92,1
0,42,100,0
0,67,79,0
0,45,92,10
0,42,58,0
0,73,112,4
0,33,92,3
0,42,58,0
0,68,79,0
0,38,90,0
0,35,108,0
0,42,58,23
0,73,114,12
0,45,92,2
0,42,100,0
0,45,92,9
0,42,58,0
0,67,79,0
0,73,117,8
0,33,92,1
0,42,58,0
0,35,108,0
0,42,58,23
0,67,79,0
0,73,107,6
0,45,92,3
0,42,100,0
0,45,92,0
0,42,58,0
0,67,79,0
0,73,115,6
0,33,92,5
0,42,58,0
0,67,79,0
0,38,90,0
0,35,108,0
0,42,58,23
0,76,109,4
0,45,92,1
0,42,100,0
0,68,79,0
0,45,92,5
0,42,58,0
0,35,92,1
0,75,115,0
0,63,96,0
0,66,96,0
0,59,92,0
0,66,81,0
0,63,89,0
0,59,80,0
0,42,58,0
0,67,79,0
0,35,108,0
0,42,58,21
0,47,92,1
0,42,100,0
0,67,79,0
0,73,121,1
0,47,92,6
0,42,58,0
0,35,92,2
0,42,58,0
0,68,79,0
0,38,90,0
0,35,108,0
0,42,58,23
0,47,92,9
0,42,100,0
0,71,122,0
0,47,92,3
0,42,58,0
0,67,79,0
0,35,92,4
0,42,58,0
0,35,108,0
0,42,58,3
0,67,79,0
0,47,92,2
0,42,100,0
0,47,92,3
0,42,58,0
0,67,79,0
0,35,92,5
0,42,58,0
0,67,79,0
0,38,90,0
0,35,108,0
0,42,58,23
0,47,92,8
0,42,100,0
0,68,79,0
0,47,92,8
0,42,58,0
0,40,92,2
0,64,95,0
0,68,96,0
0,59,94,0
0,68,85,0
0,59,74,0
0,64,77,0
0,42,58,0
0,67,79,0
0,35,108,0
0,71,117,0
0,42,58,9
0,52,92,8
0,42,100,0
0,67,79,0
0,71,104,1
0,52,92,8
0,42,58,0
0,71,101,6
0,40,92,1
0,42,58,0
0,68,79,0
0,38,90,0
0,35,108,0
0,42,58,23
0,71,101,9
0,52,92,3
0,42,100,0
0,52,92,8
0,42,58,0
0,67,79,0
0,71,104,6
0,40,92,4
0,42,58,0
0,35,108,0
0,42,58,23
0,67,79,0
0,71,97,6
0,52,92,4
0,42,100,0
0,52,92,8
0,42,58,0
0,67,79,0
0,71,104,4
0,40,92,5
0,42,58,0
0,67,79,0
0,38,90,0
0,35,108,0
0,42,58,23
0,71,107,8
0,52,92,2
0,42,100,0
0,68,79,0
0,52,92,10
0,42,58,0
0,61,127,0
0,37,92,3
0,61,96,0
0,68,96,0
0,64,95,0
0,68,80,0
0,64,79,0
0,61,83,0
0,42,58,0
0,67,79,0
0,35,108,0
0,42,58,19
0,49,92,1
0,42,100,0
0,67,79,0
0,63,127,1
0,49,92,1
0,42,58,0
0,37,92,8
0,42,58,0
0,68,79,0
0,38,90,0
0,35,108,0
0,42,58,12
0,49,92,12
0,42,100,0
0,61,127,2
0,49,92,4
0,42,58,0
0,67,79,0
0,37,92,6
0,81,105,0
0,76,105,0
0,42,58,0
0,35,108,0
0,49,92,7
0,42,58,0
0,67,79,0
0,83,105,7
0,78,105,0
0,42,100,0
0,49,92,3
0,42,58,0
0,67,79,0
0,37,92,4
0,42,58,0
0,67,79,0
0,38,90,0
0,35,108,0
0,42,58,23
0,49,92,13
0,76,105,0
0,81,105,0
0,42,100,0
0,68,79,0
0,73,117,0
0,49,92,7
0,42,58,0
0,33,92,4
0,64,95,0
0,61,96,0
0,57,92,0
0,64,78,0
0,69,77,0
0,61,77,0
0,42,58,0
0,67,79,0
0,35,108,0
0,42,58,20
0,73,109,11
0,45,92,1
0,42,100,0
0,67,79,0
0,45,81,4
0,42,58,0
0,73,109,3
0,33,92,1
0,42,58,0
0,68,79,0
0,38,90,0
0,35,108,0
0,42,58,23
0,73,109,9
0,45,92,3
0,42,100,0
0,45,92,6
0,42,58,0
0,67,79,0
0,73,114,3
0,33,92,4
0,42,58,0
0,35,108,0
0,45,92,8
0,42,58,0
0,67,79,0
0,73,109,4
0,45,92,3
0,42,100,0
0,45,92,7
0,42,58,0
0,67,79,0
0,73,107,4
0,33,92,4
0,42,58,0
0,67,79,0
0,38,90,0
0,35,108,0
0,42,58,1
0,73,106,10
0,45,92,3
0,42,100,0
0,68,79,0
0,42,58,23
0,75,123,3
0,35,92,1
0,63,96,0
0,66,96,0
0,59,92,0
0,66,90,0
0,63,90,0
0,59,79,0
0,42,79,0
0,67,90,0
0,35,108,0
0,47,92,1
0,42,79,0
0,65,43,0
0,67,90,0
0,76,113,4
0,47,92,11
0,42,79,0
0,65,43,0
0,35,92,10
0,42,79,0
0,65,64,0
