track,note,velocity,time
1,50,51,0
1,46,36,116
1,48,53,106
1,50,55,80
1,46,19,112
1,48,65,116
1,50,51,110
1,46,36,116
1,48,53,106
1,50,55,80
1,46,19,112
1,48,65,116
1,50,46,110
1,38,79,0
1,50,71,36
1,46,61,42
1,48,69,36
1,50,46,46
1,38,79,0
1,50,71,36
1,46,61,42
1,48,69,36
1,50,46,46
1,38,79,0
1,50,71,36
1,46,61,42
1,48,69,36
1,58,73,48
1,46,68,0
1,45,79,16
1,57,63,0
1,55,69,24
1,43,85,0
1,53,67,32
1,41,79,0
1,46,53,20
1,58,69,0
1,45,91,24
1,48,69,14
1,45,97,16
1,50,67,16
1,50,91,1156
1,50,79,196
1,50,46,388
1,49,31,4
1,48,47,4
1,47,53,4
1,46,39,4
1,45,63,1348
1,45,49,388
1,45,15,196
1,48,30,4
1,45,61,4
1,50,67,4
1,50,91,1156
1,50,79,196
1,46,39,1156
1,45,63,1348
1,45,49,388
1,45,15,196
1,48,30,4
1,45,61,4
1,50,67,4
1,50,91,1156
1,50,79,196
1,46,39,1156
1,45,63,1348
1,45,49,388
1,45,15,196
1,48,30,4
1,45,61,4
1,50,67,4
1,50,91,1156
1,50,79,196
1,50,46,388
1,49,31,4
1,48,47,4
1,47,53,4
1,46,39,4
1,45,63,1348
1,45,49,116
1,43,49,116
1,45,49,20
1,46,49,20
1,48,49,20
1,50,51,20
1,46,36,116
1,48,53,106
1,50,55,80
1,46,19,112
1,48,65,116
1,50,51,110
1,46,36,116
1,48,53,106
1,50,55,80
1,46,19,112
1,48,65,116
1,50,46,110
1,38,79,0
1,50,71,36
1,46,61,42
1,48,69,36
1,50,46,46
1,38,79,0
1,50,71,36
1,46,61,42
1,48,69,36
1,50,46,46
1,38,79,0
1,50,71,36
1,46,61,42
1,48,69,36
1,58,73,48
1,46,68,0
1,45,79,16
1,57,63,0
1,55,69,24
1,43,85,0
1,53,67,32
1,41,79,0
1,46,53,20
1,58,69,0
1,45,91,24
1,48,69,14
1,45,97,16
1,50,67,16
1,50,91,1156
1,50,79,196
1,50,46,388
1,49,31,4
1,48,47,4
1,47,53,4
1,46,39,4
1,45,63,1348
1,45,49,388
1,45,15,196
1,48,30,4
1,45,61,4
1,50,67,4
1,50,91,1156
1,50,79,196
1,46,39,1156
1,45,63,1348
1,45,49,388
1,45,15,196
1,48,30,4
1,45,61,4
1,50,67,4
1,50,91,1156
1,50,79,196
1,46,39,1156
1,45,63,1348
1,45,49,388
1,45,15,196
1,48,30,4
1,45,61,4
1,50,67,4
1,50,91,1156
1,50,79,196
1,50,46,388
1,49,31,4
1,48,47,4
1,47,53,4
1,46,39,4
1,45,63,1348
1,45,49,116
1,43,49,116
1,45,49,20
1,46,49,20
1,48,49,20
1,50,32,20
1,50,40,26
1,50,51,26
1,50,63,26
1,50,61,26
1,50,71,26
1,50,67,26
1,50,71,26
1,50,73,26
1,50,67,26
1,50,71,26
1,50,77,26
1,50,71,26
1,50,71,26
1,50,75,26
1,50,71,26
1,50,75,26
1,50,77,26
1,50,77,26
1,50,79,26
1,50,85,26
1,50,77,26
1,50,77,26
1,50,91,26
1,50,91,26
1,50,77,26
1,50,79,26
1,50,97,26
1,50,97,26
1,50,79,26
1,50,71,26
1,50,73,26
1,50,77,26
1,50,75,26
1,50,75,26
1,50,73,26
1,50,71,26
1,50,73,26
1,50,73,26
1,50,73,26
1,50,73,26
1,50,77,26
1,50,75,26
1,50,79,26
1,50,73,26
1,50,77,26
1,50,75,26
1,50,85,26
1,45,55,26
1,45,71,26
1,45,71,26
1,45,77,26
1,45,77,26
1,45,77,26
1,45,75,26
1,45,77,26
1,45,77,26
1,45,85,26
1,45,91,26
1,45,97,26
1,45,97,26
1,45,91,26
1,45,91,26
1,45,97,26
1,45,97,26
1,45,91,26
1,45,85,26
1,45,97,26
1,45,79,26
1,45,91,26
1,45,91,26
1,45,97,26
1,45,91,26
1,45,91,26
1,45,79,26
1,45,91,26
1,45,85,26
1,45,85,26
1,45,85,26
1,45,97,26
1,47,47,26
1,47,53,26
1,47,69,26
1,47,69,26
1,47,65,26
1,47,69,26
1,47,71,26
1,47,71,26
1,47,73,26
1,47,73,26
1,47,73,26
1,47,75,26
1,47,73,26
1,47,75,26
1,47,69,26
1,47,79,26
1,48,46,26
1,48,55,26
1,48,59,26
1,48,57,26
1,48,63,26
1,48,67,26
1,48,67,26
1,48,73,26
1,50,34,26
1,50,65,26
1,50,69,26
1,50,73,26
1,50,73,26
1,50,75,26
1,50,77,26
1,50,85,26
1,41,47,26
1,41,63,48
1,41,49,48
1,41,47,48
1,43,59,48
1,43,77,26
1,43,79,26
1,43,85,26
1,43,85,26
1,43,91,26
1,43,79,26
1,43,97,26
1,45,19,26
1,45,59,48
1,45,67,48
1,45,77,48
1,47,46,48
1,47,55,26
1,47,57,26
1,47,59,26
1,47,57,26
1,47,67,26
1,47,65,26
1,47,73,26
1,49,69,26
1,45,69,184
1,47,69,10
1,49,69,10
1,50,69,10
1,52,69,8
1,53,69,10
1,50,67,8
1,50,91,1156
1,50,79,196
1,50,46,388
1,49,31,4
1,48,47,4
1,47,53,4
1,46,39,4
1,45,63,1348
1,45,49,388
1,45,15,196
1,48,30,4
1,45,61,4
1,50,67,4
1,50,91,1156
1,50,79,196
1,46,39,1156
1,45,63,1348
1,45,49,388
1,45,15,196
1,48,30,4
1,45,61,4
1,50,67,4
1,50,91,1156
1,50,79,196
1,46,39,1156
1,45,63,1348
1,45,49,388
1,45,15,196
1,48,30,4
1,45,61,4
1,50,67,4
1,50,91,1156
1,50,79,196
1,50,46,388
1,49,31,4
1,48,47,4
1,47,53,4
1,46,39,4
1,45,63,1348
1,45,49,116
1,43,49,116
1,45,49,20
1,46,49,20
1,48,49,20
1,38,91,20
1,50,71,0
2,50,61,0
2,46,43,116
2,48,64,106
2,50,66,80
2,46,23,112
2,48,78,116
2,50,61,110
2,46,43,116
2,48,64,106
2,50,66,80
2,46,23,112
2,48,78,116
2,50,55,110
2,38,95,0
2,50,85,36
2,46,73,42
2,48,83,36
2,50,55,46
2,38,95,0
2,50,85,36
2,46,73,42
2,48,83,36
2,50,55,46
2,38,95,0
2,50,85,36
2,46,73,42
2,48,83,36
2,58,88,48
2,46,82,0
2,45,95,16
2,57,76,0
2,55,83,24
2,43,102,0
2,53,80,32
2,41,95,0
2,46,64,20
2,58,83,0
2,45,109,24
2,48,83,14
2,45,117,16
2,50,80,16
2,50,109,1156
2,50,95,196
2,50,55,388
2,49,37,4
2,48,56,4
2,47,64,4
2,46,47,4
2,45,76,1348
2,45,59,388
2,45,18,196
2,48,36,4
2,45,73,4
2,50,80,4
2,50,109,1156
2,50,95,196
2,46,47,1156
2,45,76,1348
2,45,59,388
2,45,18,196
2,48,36,4
2,45,73,4
2,50,80,4
2,50,109,1156
2,50,95,196
2,46,47,1156
2,45,76,1348
2,45,59,388
2,45,18,196
2,48,36,4
2,45,73,4
2,50,80,4
2,50,109,1156
2,50,95,196
2,50,55,388
2,49,37,4
2,48,56,4
2,47,64,4
2,46,47,4
2,45,76,1348
2,45,59,116
2,43,59,116
2,45,59,20
2,46,59,20
2,48,59,20
2,50,61,20
2,46,43,116
2,48,64,106
2,50,66,80
2,46,23,112
2,48,78,116
2,50,61,110
2,46,43,116
2,48,64,106
2,50,66,80
2,46,23,112
2,48,78,116
2,50,55,110
2,38,95,0
2,50,85,36
2,46,73,42
2,48,83,36
2,50,55,46
2,38,95,0
2,50,85,36
2,46,73,42
2,48,83,36
2,50,55,46
2,38,95,0
2,50,85,36
2,46,73,42
2,48,83,36
2,58,88,48
2,46,82,0
2,45,95,16
2,57,76,0
2,55,83,24
2,43,102,0
2,53,80,32
2,41,95,0
2,46,64,20
2,58,83,0
2,45,109,24
2,48,83,14
2,45,117,16
2,50,80,16
2,50,109,1156
2,50,95,196
2,50,55,388
2,49,37,4
2,48,56,4
2,47,64,4
2,46,47,4
2,45,76,1348
2,45,59,388
2,45,18,196
2,48,36,4
2,45,73,4
2,50,80,4
2,50,109,1156
2,50,95,196
2,46,47,1156
2,45,76,1348
2,45,59,388
2,45,18,196
2,48,36,4
2,45,73,4
2,50,80,4
2,50,109,1156
2,50,95,196
2,46,47,1156
2,45,76,1348
2,45,59,388
2,45,18,196
2,48,36,4
2,45,73,4
2,50,80,4
2,50,109,1156
2,50,95,196
2,50,55,388
2,49,37,4
2,48,56,4
2,47,64,4
2,46,47,4
2,45,76,1348
2,45,59,116
2,43,59,116
2,45,59,20
2,46,59,20
2,48,59,20
2,50,38,20
2,50,48,26
2,50,61,26
2,50,76,26
2,50,73,26
2,50,85,26
2,50,80,26
2,50,85,26
2,50,88,26
2,50,80,26
2,50,85,26
2,50,92,26
2,50,85,26
2,50,85,26
2,50,90,26
2,50,85,26
2,50,90,26
2,50,92,26
2,50,92,26
2,50,95,26
2,50,102,26
2,50,92,26
2,50,92,26
2,50,109,26
2,50,109,26
2,50,92,26
2,50,95,26
2,50,117,26
2,50,117,26
2,50,95,26
2,50,85,26
2,50,88,26
2,50,92,26
2,50,90,26
2,50,90,26
2,50,88,26
2,50,85,26
2,50,88,26
2,50,88,26
2,50,88,26
2,50,88,26
2,50,92,26
2,50,90,26
2,50,95,26
2,50,88,26
2,50,92,26
2,50,90,26
2,50,102,26
2,45,66,26
2,45,85,26
2,45,85,26
2,45,92,26
2,45,92,26
2,45,92,26
2,45,90,26
2,45,92,26
2,45,92,26
2,45,102,26
2,45,109,26
2,45,117,26
2,45,117,26
2,45,109,26
2,45,109,26
2,45,117,26
2,45,117,26
2,45,109,26
2,45,102,26
2,45,117,26
2,45,95,26
2,45,109,26
2,45,109,26
2,45,117,26
2,45,109,26
2,45,109,26
2,45,95,26
2,45,109,26
2,45,102,26
2,45,102,26
2,45,102,26
2,45,117,26
2,47,56,26
2,47,64,26
2,47,83,26
2,47,83,26
2,47,78,26
2,47,83,26
2,47,85,26
2,47,85,26
2,47,88,26
2,47,88,26
2,47,88,26
2,47,90,26
2,47,88,26
2,47,90,26
2,47,83,26
2,47,95,26
2,48,55,26
2,48,66,26
2,48,71,26
2,48,68,26
2,48,76,26
2,48,80,26
2,48,80,26
2,48,88,26
2,50,41,26
2,50,78,26
2,50,83,26
2,50,88,26
2,50,88,26
2,50,90,26
2,50,92,26
2,50,102,26
2,41,56,26
2,41,76,48
2,41,59,48
2,41,56,48
2,43,71,48
2,43,92,26
2,43,95,26
2,43,102,26
2,43,102,26
2,43,109,26
2,43,95,26
2,43,117,26
2,45,23,26
2,45,71,48
2,45,80,48
2,45,92,48
2,47,55,48
2,47,66,26
2,47,68,26
2,47,71,26
2,47,68,26
2,47,80,26
2,47,78,26
2,47,88,26
2,49,83,26
2,45,107,184
2,47,106,10
2,49,107,10
2,50,95,10
2,52,107,8
2,53,107,10
2,50,80,8
2,50,109,1156
2,50,95,196
2,50,55,388
2,49,37,4
2,48,56,4
2,47,64,4
2,46,47,4
2,45,76,1348
2,45,59,388
2,45,18,196
2,48,36,4
2,45,73,4
2,50,80,4
2,50,109,1156
2,50,95,196
2,46,47,1156
2,45,76,1348
2,45,59,388
2,45,18,196
2,48,36,4
2,45,73,4
2,50,80,4
2,50,109,1156
2,50,95,196
2,46,47,1156
2,45,76,1348
2,45,59,388
2,45,18,196
2,48,36,4
2,45,73,4
2,50,80,4
2,50,109,1156
2,50,95,196
2,50,55,388
2,49,37,4
2,48,56,4
2,47,64,4
2,46,47,4
2,45,76,1348
2,45,59,116
2,43,59,116
2,45,59,20
2,46,59,20
2,48,59,20
3,86,67,3072
3,84,79,0
3,86,77,42
3,81,91,26
3,79,79,4
3,81,108,8
3,76,71,8
3,77,102,18
3,74,79,234
3,72,69,16
3,74,77,10
3,67,65,20
3,69,85,30
3,74,61,384
3,69,69,3748
3,74,53,32
3,77,67,0
3,76,57,8
3,74,67,78
3,69,55,192
3,65,59,142
3,70,31,192
3,74,59,192
3,67,63,212
3,72,49,172
3,74,63,32
3,69,69,3284
3,74,53,32
3,77,67,0
3,76,57,8
3,74,67,78
3,69,55,192
3,65,59,142
3,70,31,192
3,74,59,192
3,67,63,212
3,72,49,172
3,74,63,32
3,69,69,3284
3,74,53,32
3,77,67,0
3,76,57,8
3,74,67,78
3,69,55,192
3,65,59,142
3,70,31,192
3,74,59,192
3,67,63,212
3,72,49,10
3,74,63,10
3,82,32,24
3,70,31,0
3,74,79,0
3,77,97,0
3,81,67,4
3,69,51,0
3,76,67,0
3,72,61,0
3,70,23,4
3,79,57,0
3,67,44,0
3,74,73,0
3,65,35,4
3,77,69,0
3,69,69,0
3,72,59,0
3,77,59,4
3,70,31,0
3,74,69,0
3,65,34,0
3,86,67,30724
3,84,79,0
3,86,77,42
3,81,91,26
3,79,79,4
3,81,108,8
3,76,71,8
3,77,102,18
3,74,79,234
3,72,69,16
3,74,77,10
3,67,65,20
3,69,85,30
3,74,61,384
3,69,69,3748
3,74,53,32
3,77,67,0
3,76,57,8
3,74,67,78
3,69,55,192
3,65,59,142
3,70,31,192
3,74,59,192
3,67,63,212
3,72,49,172
3,74,63,32
3,69,69,3284
3,74,53,32
3,77,67,0
3,76,57,8
3,74,67,78
3,69,55,192
3,65,59,142
3,70,31,192
3,74,59,192
3,67,63,212
3,72,49,172
3,74,63,32
3,69,69,3284
3,74,53,32
3,77,67,0
3,76,57,8
3,74,67,78
3,69,55,192
3,65,59,142
3,70,31,192
3,74,59,192
3,67,63,212
3,72,49,10
3,74,63,10
3,82,32,24
3,70,31,0
3,74,79,0
3,77,97,0
3,81,67,4
3,69,51,0
3,76,67,0
3,72,61,0
3,70,23,4
3,79,57,0
3,67,44,0
3,74,73,0
3,65,35,4
3,77,69,0
3,69,69,0
3,72,59,0
3,77,59,4
3,70,31,0
3,74,69,0
3,65,34,0
3,69,63,90628
3,74,77,0
3,78,43,0
3,50,97,0
4,62,114,0
4,58,85,80
4,60,97,98
4,62,114,52
4,58,97,56
4,60,103,48
4,62,103,102
4,58,85,64
4,60,91,160
4,62,97,98
4,58,77,124
4,60,97,64
4,50,120,86
4,62,103,148
4,58,77,72
4,60,103,66
4,62,103,3152
4,58,77,72
4,60,103,66
4,62,103,3152
4,58,77,72
4,60,103,66
4,58,85,80
4,57,120,4
4,55,120,4
4,53,103,4
4,58,97,4
4,62,114,29188
4,58,85,80
4,60,97,98
4,62,114,52
4,58,97,56
4,60,103,48
4,62,103,102
4,58,85,64
4,60,91,160
4,62,97,98
4,58,77,124
4,60,97,64
4,50,120,86
4,62,103,148
4,58,77,72
4,60,103,66
4,62,103,3152
4,58,77,72
4,60,103,66
4,62,103,3152
4,58,77,72
4,60,103,66
4,58,85,80
4,57,120,4
4,55,120,4
4,53,103,4
4,58,97,4
4,62,97,29188
4,62,79,4
4,62,73,4
4,62,77,4
4,62,75,4
4,62,69,4
4,57,73,4
4,57,71,4
4,57,40,4
4,57,75,4
4,59,91,4
4,59,67,4
4,60,77,4
4,62,79,4
4,53,108,4
4,55,114,4
4,57,97,4
4,59,97,4
4,61,97,4
5,69,79,0
5,74,69,16
5,77,91,32
5,76,63,8
5,74,77,24
5,69,73,192
5,65,73,224
5,70,35,0
5,74,85,192
5,67,77,224
5,72,69,0
5,74,79,24
5,69,73,346
5,74,75,4
5,77,97,16
5,76,73,8
5,74,77,36
5,69,75,192
5,65,71,234
5,70,57,194
5,74,91,180
5,67,71,256
5,72,71,188
5,74,77,24
5,69,85,388
5,74,69,4
5,77,114,4
5,76,67,10
5,74,79,32
5,69,85,192
5,65,73,232
5,70,71,192
5,74,85,174
5,67,73,244
5,72,69,192
5,74,79,16
5,69,73,414
5,74,73,38
5,77,91,0
5,76,71,8
5,74,75,24
5,69,73,192
5,65,71,260
5,70,67,192
5,74,85,164
5,67,71,222
5,72,69,192
5,74,79,26
5,69,77,3424
5,74,77,192
5,77,91,16
5,76,67,8
5,74,79,32
5,69,85,192
5,65,73,254
5,70,69,192
5,74,79,186
5,67,77,244
5,72,69,192
5,74,79,40
5,69,77,3280
5,74,77,192
5,77,91,16
5,76,67,8
5,74,79,32
