track,note,velocity,time
1,79,127,8448
1,79,0,360
1,76,127,24
1,76,0,144
1,74,127,48
1,74,0,144
1,72,127,48
1,72,0,576
1,69,127,192
1,69,0,144
1,67,127,48
1,67,0,288
1,76,127,288
1,76,0,160
1,77,127,32
1,77,0,144
1,79,127,48
1,79,0,144
1,79,127,48
1,79,0,360
1,77,127,24
1,77,0,144
1,76,127,48
1,76,0,144
1,74,127,48
1,74,0,144
1,74,127,48
1,74,0,144
1,76,127,48
1,76,0,144
1,72,127,48
1,72,0,536
1,72,127,232
1,72,0,144
1,76,127,240
1,76,0,144
1,76,127,48
1,76,0,288
1,76,127,96
1,76,0,144
1,74,127,48
1,74,0,288
1,67,127,288
1,67,0,72
1,71,127,24
1,71,0,72
1,72,127,24
1,72,0,144
1,72,127,432
1,72,0,72
1,74,127,24
1,74,0,72
1,76,127,24
1,76,0,144
1,72,127,48
1,72,0,144
1,72,127,240
1,72,0,144
1,76,127,48
1,76,0,144
1,77,127,48
1,77,0,144
1,79,127,48
1,79,0,144
1,79,127,48
1,79,0,144
1,81,127,48
1,81,0,144
1,72,127,48
1,72,0,144
1,72,127,240
1,72,0,144
1,76,127,48
1,76,0,144
1,76,127,48
1,76,0,288
1,76,127,96
1,76,0,288
1,74,127,96
1,74,0,144
1,72,127,48
1,72,0,144
1,71,127,48
1,71,0,144
1,74,127,48
1,74,0,144
1,74,127,48
1,74,0,288
1,72,127,96
1,72,0,144
1,60,127,240
1,60,0,144
1,64,127,48
1,64,0,144
1,67,127,48
1,67,0,144
1,69,127,48
1,69,0,432
1,69,127,144
1,69,0,288
1,67,127,96
1,67,0,288
1,64,127,96
1,64,0,288
1,62,127,96
1,62,0,144
1,62,127,48
1,62,0,288
1,60,127,288
1,60,0,144
1,64,127,48
1,64,0,144
1,67,127,48
1,67,0,144
1,69,127,48
1,69,0,432
1,69,127,144
1,69,0,288
1,67,127,96
1,67,0,288
1,60,127,96
1,60,0,72
1,64,127,24
1,64,0,72
1,69,127,24
1,69,0,144
1,69,127,48
1,69,0,288
1,69,127,96
1,69,0,288
1,67,127,96
1,67,0,288
1,60,127,96
1,60,0,144
1,72,127,48
1,72,0,144
1,72,127,48
1,72,0,144
1,69,127,48
1,69,0,144
1,72,127,48
1,72,0,144
1,69,127,240
1,69,0,144
1,67,127,48
1,67,0,144
1,64,127,48
1,64,0,144
1,64,127,48
1,64,0,144
1,64,127,48
1,64,0,288
1,62,127,96
1,62,0,288
1,64,127,96
1,64,0,144
1,62,127,48
1,62,0,144
1,60,127,48
1,60,0,144
1,60,127,48
1,60,0,432
1,60,127,144
1,60,0,288
1,60,127,96
1,60,0,144
1,60,127,432
1,60,0,432
1,60,127,144
1,60,0,288
1,60,127,96
1,60,0,144
1,64,127,240
1,64,0,144
1,64,127,48
1,64,0,528
1,62,127,48
1,62,0,144
1,62,127,48
1,62,0,288
1,60,127,96
1,60,0,144
1,60,127,48
1,60,0,144
1,60,127,48
1,60,0,288
1,57,127,96
1,57,0,144
1,55,127,48
1,55,0,288
1,79,127,4512
1,79,0,360
1,76,127,24
1,76,0,144
1,74,127,48
1,74,0,144
1,72,127,48
1,72,0,576
1,69,127,192
1,69,0,144
1,67,127,48
1,67,0,288
1,76,127,288
1,76,0,160
1,77,127,32
1,77,0,144
1,79,127,48
1,79,0,144
1,79,127,48
1,79,0,360
1,77,127,24
1,77,0,144
1,76,127,48
1,76,0,144
1,74,127,48
1,74,0,144
1,74,127,48
1,74,0,144
1,76,127,48
1,76,0,144
1,72,127,48
1,72,0,536
1,72,127,232
1,72,0,144
1,76,127,240
1,76,0,144
1,76,127,48
1,76,0,288
1,76,127,96
1,76,0,144
1,74,127,48
1,74,0,288
1,67,127,288
1,67,0,72
1,71,127,24
1,71,0,72
1,72,127,24
1,72,0,144
1,72,127,432
1,72,0,72
1,74,127,24
1,74,0,72
1,76,127,24
1,76,0,144
1,72,127,48
1,72,0,144
1,72,127,240
1,72,0,144
1,76,127,48
1,76,0,144
1,77,127,48
1,77,0,144
1,79,127,48
1,79,0,144
1,79,127,48
1,79,0,144
1,81,127,48
1,81,0,144
1,72,127,48
1,72,0,144
1,72,127,240
1,72,0,144
1,76,127,48
1,76,0,144
1,76,127,48
1,76,0,288
1,76,127,96
1,76,0,288
1,74,127,96
1,74,0,144
1,72,127,48
1,72,0,144
1,71,127,48
1,71,0,144
1,74,127,48
1,74,0,144
1,74,127,48
1,74,0,288
1,72,127,96
1,72,0,144
1,60,127,240
1,60,0,144
1,64,127,48
1,64,0,144
1,67,127,48
1,67,0,144
1,69,127,48
1,69,0,432
1,69,127,144
1,69,0,288
1,67,127,96
1,67,0,288
1,64,127,96
1,64,0,288
1,62,127,96
1,62,0,144
1,62,127,48
1,62,0,288
1,60,127,288
1,60,0,144
1,64,127,48
1,64,0,144
1,67,127,48
1,67,0,144
1,69,127,48
1,69,0,432
1,69,127,144
1,69,0,288
1,67,127,96
1,67,0,288
1,60,127,96
1,60,0,72
1,64,127,24
1,64,0,72
1,69,127,24
1,69,0,144
1,69,127,48
1,69,0,288
1,69,127,96
1,69,0,288
1,67,127,96
1,67,0,288
1,60,127,96
1,60,0,144
1,72,127,48
1,72,0,144
1,72,127,48
1,72,0,144
1,69,127,48
1,69,0,144
1,72,127,48
1,72,0,144
1,69,127,240
1,69,0,144
1,67,127,48
1,67,0,144
1,64,127,48
1,64,0,144
1,64,127,48
1,64,0,144
1,64,127,48
1,64,0,288
1,62,127,96
1,62,0,288
1,64,127,96
1,64,0,144
1,62,127,48
1,62,0,144
1,60,127,48
1,60,0,144
1,60,127,48
1,60,0,432
1,60,127,144
1,60,0,288
1,60,127,96
1,60,0,144
1,60,127,432
1,60,0,432
1,60,127,144
1,60,0,288
1,60,127,96
1,60,0,144
1,64,127,240
1,64,0,144
1,64,127,48
1,64,0,528
1,62,127,48
1,62,0,144
1,62,127,48
1,62,0,288
1,60,127,96
1,60,0,144
1,60,127,48
1,60,0,144
1,60,127,48
1,60,0,288
1,57,127,96
1,57,0,144
1,55,127,48
1,55,0,288
1,79,127,4512
1,79,0,360
1,76,127,24
1,76,0,144
1,74,127,48
1,74,0,144
1,72,127,48
1,72,0,576
1,69,127,192
1,69,0,144
1,67,127,48
1,67,0,288
1,76,127,288
1,76,0,160
1,77,127,32
1,77,0,144
1,79,127,48
1,79,0,144
1,79,127,48
1,79,0,360
1,77,127,24
1,77,0,144
1,76,127,48
1,76,0,144
1,74,127,48
1,74,0,144
1,74,127,48
1,74,0,144
1,76,127,48
1,76,0,144
1,72,127,48
1,72,0,536
1,72,127,232
1,72,0,144
1,76,127,240
1,76,0,144
1,76,127,48
1,76,0,288
1,76,127,96
1,76,0,144
1,74,127,48
1,74,0,288
1,67,127,288
1,67,0,72
1,71,127,24
1,71,0,72
1,72,127,24
1,72,0,144
1,72,127,432
1,72,0,72
1,74,127,24
1,74,0,72
1,76,127,24
1,76,0,144
1,72,127,48
1,72,0,144
1,72,127,240
1,72,0,144
1,76,127,48
1,76,0,144
1,77,127,48
1,77,0,144
1,79,127,48
1,79,0,144
1,79,127,48
1,79,0,144
1,81,127,48
1,81,0,144
1,72,127,48
1,72,0,144
1,72,127,240
1,72,0,144
1,76,127,48
1,76,0,144
1,76,127,48
1,76,0,288
1,76,127,96
1,76,0,288
1,74,127,96
1,74,0,144
1,72,127,48
1,72,0,144
1,71,127,48
1,71,0,144
1,74,127,48
1,74,0,144
1,74,127,48
1,74,0,288
1,72,127,96
1,72,0,144
1,60,127,240
1,60,0,144
1,64,127,48
1,64,0,144
1,67,127,48
1,67,0,144
1,69,127,48
1,69,0,432
1,69,127,144
1,69,0,288
1,67,127,96
1,67,0,288
1,64,127,96
1,64,0,192
1,64,127,0
1,64,0,96
1,62,127,96
1,62,0,144
1,62,127,48
1,62,0,288
1,60,127,288
1,60,0,144
1,64,127,48
1,64,0,144
1,67,127,48
1,67,0,144
1,69,127,48
1,69,0,432
1,69,127,144
1,69,0,288
1,67,127,96
1,67,0,288
1,60,127,96
1,60,0,72
1,64,127,24
1,64,0,72
1,69,127,24
1,69,0,144
1,69,127,48
1,69,0,288
1,69,127,96
1,69,0,288
1,67,127,96
1,67,0,288
1,60,127,96
1,60,0,144
1,72,127,48
1,72,0,144
1,72,127,48
1,72,0,144
1,69,127,48
1,69,0,144
1,72,127,48
1,72,0,144
1,69,127,240
1,69,0,144
1,67,127,48
1,67,0,144
1,64,127,48
1,64,0,144
1,64,127,48
1,64,0,144
1,64,127,48
1,64,0,288
1,62,127,96
1,62,0,288
1,64,127,96
1,64,0,144
1,62,127,48
1,62,0,144
1,60,127,48
1,60,0,144
1,60,127,48
1,60,0,432
1,60,127,144
1,60,0,288
1,60,127,96
1,60,0,144
1,60,127,432
1,60,0,432
1,60,127,144
1,60,0,288
1,60,127,96
1,60,0,144
1,64,127,240
1,64,0,144
1,69,127,48
1,69,0,144
1,69,127,48
1,69,0,288
1,69,127,96
1,69,0,288
1,67,127,96
1,67,0,288
1,60,127,96
1,60,0,144
1,72,127,48
1,72,0,144
1,72,127,48
1,72,0,144
1,69,127,48
1,69,0,144
1,72,127,48
1,72,0,144
1,64,127,816
1,64,0,144
1,64,127,48
1,64,0,288
1,62,127,96
1,62,0,288
1,60,127,768
1,60,0,144
1,60,127,48
1,60,0,432
1,60,127,144
1,60,0,288
1,60,127,96
1,60,0,144
1,60,127,528
1,60,0,432
1,60,127,240
1,60,0,288
1,60,127,96
1,60,0,144
1,64,127,528
1,64,0,144
1,64,127,48
1,64,0,528
1,62,127,240
1,62,0,144
1,62,127,48
1,62,0,288
1,60,127,864
1,60,0,144
1,60,127,48
1,60,0,144
1,60,127,48
1,60,0,704
1,59,127,64
1,59,0,144
1,57,127,48
1,57,0,1536
2,45,127,3072
2,67,127,0
2,67,0,132
2,59,127,60
2,59,0,144
2,45,0,48
2,60,104,0
2,60,0,144
2,55,60,48
2,45,60,0
2,67,120,0
2,67,0,144
2,45,0,0
2,55,0,0
2,55,60,48
2,67,127,0
2,47,60,0
2,67,0,144
2,55,0,0
2,59,127,48
2,59,0,144
2,47,0,40
2,60,127,8
2,60,0,144
2,47,60,48
2,67,127,0
2,55,60,0
2,55,0,144
2,67,0,0
2,47,0,0
2,67,127,48
2,55,60,0
2,48,60,0
2,55,0,144
2,67,0,0
2,59,112,48
2,59,0,144
2,48,0,32
2,60,96,16
2,60,0,144
2,41,80,48
2,57,80,0
2,57,0,240
2,57,80,144
2,57,0,144
2,41,0,24
2,59,80,24
2,59,0,144
2,60,96,48
2,60,0,144
2,55,80,48
2,67,120,0
2,45,60,0
2,67,0,144
2,55,0,0
2,59,127,48
2,59,0,144
2,45,0,40
2,60,127,8
2,60,0,144
2,55,80,48
2,67,127,0
2,45,60,0
2,45,0,144
2,67,0,0
2,55,0,0
2,55,80,48
2,67,127,0
2,47,60,0
2,67,0,144
2,55,0,0
2,59,127,48
2,59,0,144
2,47,0,32
2,60,127,16
2,60,0,144
2,67,127,48
2,55,80,0
2,47,80,0
2,47,0,144
2,55,0,0
2,67,0,0
2,48,80,48
2,55,80,0
2,67,127,0
2,67,0,144
2,55,0,0
2,59,127,48
2,59,0,144
2,48,0,40
2,60,127,8
2,60,0,144
2,41,80,48
2,57,112,0
2,41,0,552
2,57,0,24
2,57,127,384
2,60,127,24
2,64,127,24
2,64,0,712
2,60,0,4
2,57,0,0
2,59,127,4
2,62,127,24
2,67,127,24
2,62,0,712
2,67,0,4
2,59,0,0
2,57,127,4
2,60,127,24
2,64,127,24
2,64,0,144
2,65,127,0
2,65,0,144
2,67,127,48
2,67,0,144
2,60,0,16
2,57,0,8
2,60,127,24
2,64,127,24
2,67,127,24
2,67,0,264
2,65,127,72
2,64,0,112
2,65,0,32
2,60,0,48
2,64,127,0
2,64,0,144
2,62,120,48
2,62,0,144
2,55,127,48
2,60,127,24
2,79,120,0
2,67,127,24
2,79,0,408
2,55,0,72
2,57,127,24
2,60,0,8
2,67,0,0
2,60,127,16
2,77,120,24
2,65,127,0
2,65,0,144
2,77,0,0
2,57,0,240
2,60,0,24
2,64,127,144
2,64,0,144
2,62,127,48
2,62,0,144
2,60,127,48
2,64,127,24
2,69,127,24
2,60,0,488
2,64,0,24
2,69,0,8
2,59,127,8
2,62,127,24
2,67,127,24
2,59,0,4
2,62,0,24
2,67,0,4
2,60,127,240
2,48,127,0
2,48,0,144
2,60,0,0
2,55,127,48
2,43,127,0
2,43,0,144
2,55,0,0
2,60,127,48
2,48,127,0
2,48,0,144
2,60,0,0
2,52,127,48
2,64,127,0
2,64,0,144
2,52,0,0
2,65,127,48
2,53,127,0
2,53,0,144
2,65,0,0
2,45,127,48
2,57,127,0
2,57,0,144
2,45,0,0
2,62,127,48
2,50,127,0
2,50,0,144
2,62,0,0
2,65,127,48
2,53,127,0
2,53,0,144
2,65,0,0
2,67,127,48
2,55,127,0
2,55,0,144
2,67,0,0
2,48,127,48
2,60,127,0
2,60,0,144
2,48,0,0
2,52,127,48
2,64,127,0
2,64,0,144
2,52,0,0
2,55,127,48
2,67,127,0
2,60,127,0
2,60,0,288
2,67,0,0
2,55,0,0
2,67,127,288
2,67,0,28
2,57,127,240
2,60,127,24
2,64,127,24
2,57,0,216
2,60,0,24
2,64,0,24
2,55,127,240
2,59,127,24
2,62,127,24
2,55,0,240
2,59,0,24
2,62,0,24
2,62,127,48
2,62,0,144
2,59,127,48
2,59,0,144
2,55,127,48
2,55,0,144
2,53,127,48
2,57,127,0
2,60,127,48
2,60,0,144
2,57,0,96
2,53,0,0
2,52,127,312
2,55,127,24
2,60,127,24
2,52,0,240
2,55,0,24
2,60,0,24
2,60,127,24
2,60,0,144
2,64,127,48
2,64,0,144
2,67,127,48
2,67,0,144
2,53,127,24
2,60,127,24
2,65,127,24
2,69,127,24
2,53,0,504
2,60,0,24
2,65,0,0
2,69,0,0
2,48,127,0
2,60,127,24
2,64,127,24
2,67,127,24
2,48,0,504
2,60,0,24
2,64,0,0
2,67,0,0
2,57,127,360
2,45,127,0
2,60,127,24
2,64,127,0
2,45,0,264
2,57,0,0
2,60,0,24
2,64,0,0
2,62,127,72
2,62,0,144
2,43,127,48
2,55,127,0
2,59,127,24
2,62,127,0
2,55,0,264
2,43,0,0
2,59,0,24
2,62,0,0
2,60,127,72
2,60,0,144
2,64,127,48
2,64,0,144
2,67,127,48
2,67,0,144
2,60,127,48
2,53,127,0
2,65,127,24
2,69,127,24
2,53,0,528
2,60,0,0
2,64,127,0
2,67,127,0
2,60,127,0
2,48,127,0
2,65,0,24
2,69,0,24
2,60,0,240
2,67,0,0
2,48,0,0
2,64,0,0
2,60,127,96
2,60,0,144
2,64,127,48
2,64,0,144
2,67,127,48
2,67,0,144
2,53,127,48
2,60,127,0
2,65,127,0
2,69,127,0
2,69,0,576
2,53,0,0
2,60,0,0
2,65,0,0
2,62,127,0
2,65,127,0
2,69,127,0
2,74,127,0
2,74,0,288
2,62,0,0
2,65,0,0
2,69,0,0
2,65,127,672
2,60,127,0
2,69,127,24
2,72,127,0
2,65,0,120
2,72,0,24
2,69,0,0
2,72,127,24
2,72,0,144
2,60,0,48
2,69,127,0
2,69,0,144
2,60,127,24
2,64,127,0
2,67,127,24
2,72,127,24
2,64,0,96
2,60,0,0
2,67,0,24
2,72,0,24
2,67,127,216
2,67,0,144
2,64,127,48
2,64,0,144
2,60,127,48
2,60,0,144
2,57,127,48
2,60,127,24
2,64,127,24
2,60,0,120
2,64,0,24
2,64,127,24
2,57,0,72
2,64,0,72
2,55,127,192
2,59,127,24
2,62,127,24
2,59,0,264
2,62,0,24
2,55,0,68
2,64,127,4
2,64,0,144
2,62,127,48
2,62,0,144
2,60,127,48
2,60,0,144
2,60,127,48
2,57,127,0
2,53,127,0
2,53,0,432
2,57,0,0
2,60,0,0
2,52,127,120
2,55,127,24
2,60,127,24
2,52,0,240
2,55,0,24
2,60,0,24
2,52,127,264
2,52,0,72
