track,note,velocity,time
2,35,82,2296
2,35,82,736
2,35,82,736
2,35,82,736
2,35,82,736
2,35,82,736
2,35,82,736
2,35,82,736
2,35,82,352
2,35,82,352
2,35,82,352
2,35,82,352
2,35,82,352
2,35,82,352
2,35,82,352
2,35,82,352
2,35,82,352
2,35,82,352
2,35,82,352
2,35,82,352
2,35,82,352
2,35,82,352
2,35,82,352
2,35,82,352
2,35,82,352
2,35,82,352
2,35,82,352
2,35,82,352
2,35,82,352
2,35,82,352
2,35,82,352
2,35,82,352
2,35,82,352
2,35,82,352
2,35,82,352
2,35,82,352
2,35,82,352
2,35,82,352
2,35,82,352
2,35,82,352
2,35,82,352
2,35,82,352
2,35,82,352
2,35,82,352
2,35,82,352
2,35,82,352
2,35,82,352
2,35,82,352
2,35,82,352
2,35,82,352
2,35,82,352
2,35,82,352
2,35,82,352
2,35,82,352
2,35,82,352
2,35,82,352
2,35,82,352
2,35,82,352
2,35,82,352
2,35,82,352
2,35,82,352
2,35,82,352
2,35,82,352
2,35,82,352
2,35,82,352
2,35,82,352
2,35,82,352
2,35,82,352
2,35,82,352
2,35,82,352
2,35,82,352
2,35,82,352
2,35,82,352
2,35,82,352
2,35,82,352
2,35,82,352
2,35,82,352
2,35,82,352
2,35,82,352
2,35,82,352
2,35,82,352
2,35,82,352
2,35,82,352
2,35,82,352
2,35,82,352
2,35,82,352
2,35,82,352
2,35,82,352
2,35,82,352
2,35,82,352
2,35,82,352
2,35,82,352
2,35,82,352
2,35,82,352
2,35,82,352
2,35,82,352
2,35,82,352
2,35,82,352
2,35,82,352
2,35,82,352
2,35,82,352
2,35,82,352
2,35,82,352
2,35,82,352
2,35,82,160
2,35,82,160
2,35,82,352
2,35,82,352
2,35,82,352
2,35,82,160
2,35,82,160
2,35,82,352
2,35,82,352
2,35,82,352
2,35,82,352
2,35,82,352
2,35,82,352
2,35,82,352
2,35,82,352
2,35,82,352
2,35,82,352
2,35,82,352
2,35,82,352
2,35,82,352
2,35,82,352
2,35,82,352
2,35,82,352
2,35,82,352
2,35,82,352
2,35,82,352
2,35,82,352
2,35,82,352
2,35,82,352
2,35,82,352
2,35,82,352
2,35,82,352
2,35,82,352
2,35,82,352
2,35,82,352
2,35,82,352
2,35,82,352
2,35,82,352
2,35,82,352
2,35,82,352
2,35,82,352
2,35,82,352
2,35,82,352
2,35,82,352
2,35,82,352
2,35,82,352
2,35,82,352
2,35,82,352
2,35,82,352
2,35,82,352
2,35,82,352
2,35,82,352
2,35,82,352
2,35,82,352
2,35,82,352
2,35,82,352
2,35,82,352
2,35,82,352
2,35,82,352
2,35,82,352
2,35,82,352
2,35,82,352
2,35,82,352
2,35,82,352
2,35,82,352
2,35,82,352
2,35,82,352
2,35,82,352
2,35,82,352
2,35,82,352
2,35,82,352
2,35,82,352
2,35,82,352
2,35,82,352
2,35,82,352
2,35,82,352
2,35,82,352
2,35,82,352
2,35,82,352
2,35,82,352
2,35,82,352
2,35,82,352
2,35,82,352
2,35,82,352
2,35,82,352
2,35,82,352
2,35,82,352
2,35,82,352
2,35,82,352
2,35,82,352
2,35,82,352
2,35,82,352
2,35,82,352
2,35,82,352
2,35,82,352
2,35,82,352
2,35,82,352
2,35,82,352
2,35,82,352
2,35,82,352
2,35,82,352
2,35,82,352
2,35,82,352
2,35,82,352
2,35,82,352
2,35,82,352
2,35,82,352
2,35,82,352
2,35,82,352
2,35,82,352
2,35,82,352
2,35,82,352
2,35,82,352
2,35,82,352
2,35,82,352
2,35,82,352
2,35,82,352
2,35,82,352
2,35,82,352
2,35,82,352
2,35,82,352
2,35,82,352
2,35,82,352
2,35,82,352
2,35,82,352
2,35,82,352
2,35,82,352
2,35,82,352
2,35,82,352
2,35,82,352
2,35,82,352
2,35,82,352
2,35,82,352
2,35,82,352
2,35,82,352
2,35,82,352
2,35,82,352
2,35,82,352
2,35,82,352
2,35,82,352
2,35,82,352
2,35,82,352
2,35,82,352
2,35,82,352
2,35,82,352
2,35,82,352
2,35,82,352
2,35,82,352
2,35,82,352
2,35,82,352
2,35,82,352
2,35,82,352
2,35,82,352
2,35,82,352
2,35,82,352
2,35,82,352
2,35,82,352
2,35,82,352
2,35,82,352
2,35,82,352
2,35,82,352
2,35,82,352
2,35,82,352
2,35,82,352
2,35,82,352
2,35,82,352
2,35,82,352
2,35,82,352
2,35,82,352
2,35,82,352
2,35,82,352
2,35,82,352
2,35,82,352
2,35,82,352
2,35,82,352
2,35,82,352
2,35,82,352
2,35,82,352
2,35,82,352
2,35,82,352
2,35,82,352
2,35,82,352
2,35,82,352
2,35,82,352
2,35,82,352
2,35,82,352
2,35,82,352
2,35,82,352
2,35,82,352
2,35,82,352
2,35,82,352
2,35,82,352
2,35,82,352
2,35,82,352
2,35,82,352
2,35,82,352
2,35,82,352
2,35,82,352
2,35,82,352
2,35,82,352
2,35,82,352
2,35,82,352
2,35,82,352
2,35,82,352
2,35,82,352
2,35,82,352
2,35,82,352
2,35,82,352
2,35,82,352
2,35,82,352
2,35,82,352
2,35,82,352
2,35,82,352
2,35,82,352
2,35,82,352
2,35,82,352
2,35,82,352
2,35,82,352
2,35,82,352
2,35,82,352
2,35,82,352
2,35,82,352
2,35,82,352
2,35,82,352
2,35,82,352
2,35,82,352
2,35,82,352
2,35,82,352
2,35,82,352
2,35,82,352
2,35,82,352
2,35,82,352
2,35,82,352
2,35,82,352
2,35,82,352
2,35,82,352
2,35,82,352
2,35,82,352
2,35,82,352
2,35,82,352
2,35,82,352
2,35,82,352
2,35,82,352
2,35,82,352
2,35,82,352
2,35,82,352
2,35,82,352
2,35,82,352
2,35,82,352
2,35,82,352
2,35,82,352
2,35,82,352
2,35,82,352
2,35,82,352
2,35,82,352
2,35,82,352
2,35,82,352
2,35,82,352
2,35,82,352
2,35,82,352
2,35,82,352
2,35,82,352
2,35,82,352
2,35,82,352
2,35,82,352
2,35,82,352
2,35,82,352
2,35,82,352
2,35,82,352
2,35,82,352
2,35,82,352
2,35,82,352
2,35,82,352
2,35,82,352
2,35,82,352
2,35,82,352
2,35,82,352
2,35,82,352
2,35,82,352
2,35,82,352
2,35,82,352
2,35,82,352
2,35,82,352
2,35,82,352
2,35,82,352
2,35,82,352
2,35,82,352
2,35,82,352
2,35,82,352
2,35,82,352
2,35,82,352
2,35,82,352
2,35,82,352
2,35,82,352
2,35,82,352
2,35,82,352
2,35,82,352
2,35,82,352
3,38,86,14580
3,38,68,224
3,38,86,1178
3,38,66,224
3,38,86,1178
3,38,68,224
3,38,86,1178
3,38,66,224
3,38,86,1178
3,38,68,224
3,38,86,1178
3,38,66,224
3,38,86,1178
3,38,68,224
3,38,86,1178
3,38,66,704
3,38,84,122
3,38,86,506
3,38,68,224
3,38,86,1178
3,38,66,224
3,38,86,1178
3,38,68,224
3,38,86,1178
3,38,66,224
3,38,86,1178
3,38,68,224
3,38,86,1178
3,38,66,224
3,38,86,1178
3,38,68,224
3,38,52,1178
3,38,72,32
3,38,78,32
3,38,78,32
3,38,86,1178
3,38,86,704
3,38,86,704
3,38,86,704
3,38,86,704
3,38,86,704
3,38,86,704
3,38,86,704
3,38,86,704
3,38,86,704
3,38,86,704
3,38,86,704
3,38,86,704
3,38,86,704
3,38,86,704
3,38,86,704
3,38,86,704
3,38,86,704
3,38,86,704
3,38,86,704
3,38,86,704
3,38,86,704
3,38,86,704
3,38,86,704
3,38,86,704
3,38,86,704
3,38,86,704
3,38,86,704
3,38,86,704
3,38,86,704
3,38,75,32
3,38,86,224
3,38,86,320
3,38,78,512
3,38,86,128
3,38,78,32
3,38,86,608
3,38,68,224
3,38,86,1178
3,38,66,224
3,38,86,1178
3,38,68,224
3,38,86,1178
3,38,66,224
3,38,86,1178
3,38,68,224
3,38,86,1178
3,38,66,224
3,38,86,1178
3,38,68,224
3,38,58,1178
3,38,78,32
3,38,66,32
3,38,81,32
3,38,86,26
3,38,86,128
3,38,86,128
3,38,69,32
3,38,66,128
3,38,86,416
3,38,86,704
3,38,87,704
3,38,86,320
3,38,86,128
3,38,86,128
3,38,69,32
3,38,75,128
3,38,26,128
3,38,86,218
3,38,40,32
3,38,69,122
3,38,26,122
3,38,26,122
3,38,86,26
3,38,26,224
3,38,26,122
3,38,86,218
3,38,40,32
3,38,69,122
3,38,26,122
3,38,26,122
3,38,86,26
3,38,26,224
3,38,26,122
3,38,86,218
3,38,40,32
3,38,69,122
3,38,26,122
3,38,26,122
3,38,86,26
3,38,26,224
3,38,26,122
3,38,86,218
3,38,40,32
3,38,69,122
3,38,26,122
3,38,26,122
3,38,86,26
3,38,26,224
3,38,26,122
3,38,86,218
3,38,40,32
3,38,69,122
3,38,26,122
3,38,26,122
3,38,86,26
3,38,26,224
3,38,26,122
3,38,86,218
3,38,40,32
3,38,69,122
3,38,26,122
3,38,26,122
3,38,86,26
3,38,26,224
3,38,26,122
3,38,86,218
3,38,40,32
3,38,69,122
3,38,26,122
3,38,26,122
3,38,86,26
3,38,26,224
3,38,26,122
3,38,86,218
3,38,40,32
3,38,69,122
3,38,26,122
3,38,26,122
3,38,86,26
3,38,52,128
3,38,81,26
3,38,26,122
3,38,86,218
3,38,40,32
3,38,69,122
3,38,26,122
3,38,26,122
3,38,86,26
3,38,26,224
3,38,26,122
3,38,86,218
3,38,40,32
3,38,69,122
3,38,26,122
3,38,26,122
3,38,86,26
3,38,26,224
3,38,26,122
3,38,86,218
3,38,40,32
3,38,69,122
3,38,26,122
3,38,26,122
3,38,86,26
3,38,26,224
3,38,26,122
3,38,86,218
3,38,40,32
3,38,69,122
3,38,26,122
3,38,26,122
3,38,86,26
3,38,26,224
3,38,26,122
3,38,86,218
3,38,40,32
3,38,69,122
3,38,26,122
3,38,26,122
3,38,86,26
3,38,26,224
3,38,26,122
3,38,86,218
3,38,40,32
3,38,69,122
3,38,26,122
3,38,26,122
3,38,86,26
3,38,26,224
3,38,26,122
3,38,86,218
3,38,40,32
3,38,69,122
3,38,26,122
3,38,26,122
3,38,86,26
3,38,26,224
3,38,52,26
3,38,69,26
3,38,84,26
3,38,69,26
3,38,86,1562
3,38,34,224
3,38,37,122
3,38,86,218
3,38,86,704
3,38,66,224
3,38,86,410
3,38,86,704
3,38,68,224
3,38,86,410
3,38,86,704
3,38,66,224
3,38,86,410
3,38,86,704
3,38,68,224
3,38,86,410
3,38,86,704
3,38,66,224
3,38,86,410
3,38,86,704
3,38,68,224
3,38,86,410
3,38,86,704
3,38,66,224
3,38,86,410
3,38,86,704
3,38,68,224
3,38,86,410
3,38,86,704
3,38,66,224
3,38,86,410
3,38,86,704
3,38,68,224
3,38,86,410
3,38,86,704
3,38,66,224
3,38,86,410
3,38,86,704
3,38,68,224
3,38,86,410
3,38,86,704
3,38,66,224
3,38,86,410
3,38,86,704
3,38,55,320
3,38,61,26
3,38,69,26
3,38,78,26
3,38,86,26
3,38,61,32
3,38,69,26
3,38,78,26
3,38,86,26
3,38,86,320
3,38,66,512
3,38,86,122
3,38,66,32
3,38,86,602
3,38,68,224
3,38,86,410
3,38,86,704
3,38,66,224
3,38,86,410
3,38,86,704
3,38,68,224
3,38,86,410
3,38,86,704
3,38,66,224
3,38,86,410
3,38,86,704
3,38,68,224
3,38,86,410
3,38,86,704
3,38,66,224
3,38,86,218
3,38,86,128
3,38,72,128
3,38,81,32
3,38,86,416
3,38,68,224
3,38,58,410
3,38,75,32
3,38,66,32
3,38,86,32
3,38,75,32
3,38,86,32
3,38,86,1760
3,38,68,224
3,38,58,122
3,38,81,224
3,38,90,320
3,38,78,32
3,38,69,32
3,38,78,32
3,38,26,1280
3,38,86,218
3,38,40,32
3,38,69,122
3,38,26,122
3,38,26,122
3,38,86,26
3,38,26,224
3,38,26,122
3,38,86,218
3,38,40,32
3,38,69,122
3,38,26,122
3,38,26,122
3,38,86,26
3,38,26,224
3,38,26,122
3,38,86,218
3,38,40,32
3,38,69,122
3,38,26,122
3,38,26,122
3,38,86,26
3,38,26,224
3,38,26,122
3,38,86,218
3,38,40,32
3,38,34,122
3,38,61,26
3,38,64,26
3,38,75,26
3,38,81,26
3,38,26,506
3,38,86,218
3,38,40,32
3,38,69,122
3,38,26,122
3,38,26,122
3,38,86,26
3,38,26,224
3,38,26,122
3,38,86,218
3,38,40,32
3,38,69,122
3,38,26,122
3,38,26,122
3,38,86,26
3,38,26,224
3,38,26,122
3,38,86,218
3,38,40,32
3,38,69,122
3,38,26,122
3,38,26,122
3,38,86,26
3,38,26,224
3,38,26,122
3,38,86,218
3,38,40,32
3,38,69,122
3,38,26,122
3,38,26,122
3,38,86,26
3,38,26,224
3,38,26,122
3,38,86,218
3,38,40,32
3,38,69,122
3,38,26,122
3,38,26,122
3,38,86,26
3,38,26,224
3,38,26,122
3,38,86,218
3,38,40,32
3,38,69,122
3,38,26,122
3,38,26,122
3,38,86,26
3,38,26,224
4,42,78,14384
4,42,78,254
4,42,55,46
4,42,72,158
4,42,87,56
4,42,64,32
4,42,49,62
4,42,107,52
4,42,69,36
4,42,64,142
4,42,104,38
4,42,66,56
4,42,78,32
4,42,43,62
4,42,75,148
4,42,61,46
4,42,72,158
4,42,84,56
4,42,64,32
4,42,46,62
4,42,101,52
4,42,72,36
4,42,72,142
4,42,104,38
4,42,66,56
4,42,78,32
4,42,46,62
4,42,78,148
4,42,55,46
4,42,72,158
4,42,87,56
4,42,64,32
4,42,49,62
4,42,107,52
4,42,69,36
4,42,64,142
4,42,104,38
4,42,66,56
4,42,78,32
4,42,43,62
4,42,75,148
4,42,61,46
4,42,72,158
4,42,84,56
4,42,64,32
4,42,46,62
4,42,101,52
4,42,72,36
4,42,72,142
4,42,104,38
4,42,66,56
4,42,78,32
4,42,46,62
4,42,78,148
4,42,55,46
4,42,72,158
4,42,87,56
4,42,64,32
4,42,49,62
4,42,107,52
4,42,69,36
4,42,64,142
4,42,104,38
4,42,66,56
4,42,78,32
4,42,43,62
4,42,75,148
4,42,61,46
4,42,72,158
4,42,84,56
4,42,64,32
4,42,46,62
4,42,101,52
4,42,72,36
4,42,72,142
4,42,104,38
4,42,66,56
4,42,78,32
4,42,46,62
4,42,78,148
4,42,55,46
4,42,72,158
4,42,87,56
4,42,64,32
4,42,49,62
4,42,107,52
4,42,69,36
4,42,64,142
4,42,104,38
4,42,66,56
4,42,78,32
4,42,43,62
4,42,84,148
4,42,43,46
4,42,90,62
4,42,64,46
4,42,84,56
4,42,64,32
4,42,46,62
4,42,72,148
4,42,72,142
4,42,78,230
4,42,78,254
4,42,55,46
4,42,72,158
4,42,87,56
4,42,64,32
4,42,49,62
4,42,107,52
4,42,69,36
4,42,64,142
4,42,104,38
4,42,66,56
4,42,78,32
4,42,43,62
4,42,75,148
4,42,61,46
4,42,72,158
4,42,84,56
4,42,64,32
4,42,46,62
4,42,101,52
4,42,72,36
4,42,72,142
4,42,104,38
4,42,66,56
4,42,78,32
4,42,46,62
4,42,78,148
4,42,55,46
4,42,72,158
4,42,87,56
4,42,64,32
4,42,49,62
4,42,107,52
4,42,69,36
4,42,64,142
4,42,104,38
4,42,66,56
4,42,78,32
4,42,43,62
4,42,75,148
4,42,61,46
4,42,72,158
4,42,84,56
4,42,64,32
4,42,46,62
4,42,101,52
4,42,72,36
4,42,72,142
4,42,104,38
4,42,66,56
4,42,78,32
4,42,46,62
4,42,78,148
4,42,55,46
4,42,72,158
4,42,87,56
4,42,64,32
4,42,49,62
4,42,107,52
4,42,69,36
4,42,64,142
4,42,104,38
4,42,66,56
4,42,78,32
4,42,43,62
4,42,75,148
4,42,61,46
4,42,72,158
4,42,84,56
4,42,64,32
4,42,46,62
4,42,101,52
4,42,72,36
4,42,72,142
4,42,104,38
4,42,66,56
4,42,78,32
4,42,46,62
4,42,78,148
4,42,55,46
4,42,72,158
4,42,87,56
4,42,64,32
4,42,49,62
4,42,107,52
4,42,69,36
4,42,84,142
4,42,66,38
4,42,93,56
4,42,52,32
4,42,98,62
4,46,93,1396
4,42,61,254
4,42,95,46
4,42,81,62
