track,note,velocity,time
1,41,112,1218
1,41,112,336
1,41,112,20
1,41,112,20
1,42,112,24
1,42,112,428
1,30,112,20
1,41,112,30
1,41,112,400
1,41,112,26
1,41,112,20
1,36,112,28
1,36,112,490
1,42,112,32
1,41,112,32
1,36,112,28
1,29,112,24
1,36,112,24
1,41,112,22
1,36,112,32
1,29,112,24
1,36,112,24
1,43,112,18
1,38,112,28
1,31,112,16
1,38,112,24
1,31,112,24
1,38,112,568
1,43,112,24
1,43,112,16
1,38,112,206
1,31,112,20
1,38,112,28
1,43,112,16
1,43,112,16
1,38,112,212
1,30,112,24
1,37,112,24
1,42,112,24
1,42,112,16
1,37,112,204
1,29,112,16
1,29,112,24
1,29,112,24
1,29,112,16
1,29,112,208
1,29,112,22
1,29,112,30
1,29,112,212
1,29,112,24
1,29,112,16
1,41,112,12
1,36,112,32
1,29,112,26
1,36,112,24
1,41,112,24
1,36,112,32
1,29,112,24
1,36,112,24
1,43,112,16
1,38,112,28
1,31,112,24
1,38,112,26
1,31,112,22
1,38,112,568
1,43,112,16
1,43,112,12
1,38,112,210
1,31,112,16
1,38,112,28
1,43,112,26
1,43,112,16
1,38,112,210
1,30,112,24
1,37,112,24
1,42,112,20
1,42,112,16
1,37,112,204
1,29,112,20
1,29,112,28
1,29,112,24
1,29,112,16
1,29,112,208
1,29,112,12
1,29,112,28
1,29,112,208
1,29,112,20
1,29,112,16
1,42,112,16
1,42,112,32
1,30,112,16
1,30,112,24
1,42,112,24
1,42,112,32
1,42,112,20
1,42,112,20
1,47,112,26
1,47,112,30
1,42,112,20
1,42,112,24
1,35,112,24
1,35,112,26
1,47,112,16
1,47,112,12
1,47,112,24
1,42,112,20
1,37,112,30
1,42,112,20
1,42,112,24
1,42,112,24
1,37,112,28
1,30,112,26
1,30,112,16
1,37,112,24
1,38,112,26
1,33,112,28
1,38,112,26
1,33,112,20
1,38,112,24
1,33,112,28
1,38,112,20
1,38,112,16
1,45,112,24
1,43,112,20
1,38,112,22
1,43,112,26
1,43,112,24
1,43,112,24
1,38,112,22
1,31,112,26
1,31,112,20
1,38,112,24
1,39,112,24
1,34,112,26
1,39,112,14
1,39,112,24
1,39,112,24
1,39,112,22
1,39,112,26
1,39,112,12
1,34,112,28
1,33,112,14
1,33,112,24
1,33,112,24
1,33,112,28
1,33,112,16
1,38,112,16
1,38,112,16
1,38,112,212
1,38,112,24
1,45,112,24
1,43,112,16
1,43,112,20
1,43,112,24
1,38,112,16
1,31,112,24
1,36,112,14
1,36,112,32
1,36,112,24
1,36,112,16
1,36,112,24
1,41,112,24
1,36,112,24
1,29,112,20
1,36,112,24
1,41,112,24
1,36,112,24
1,29,112,24
1,36,112,24
1,43,112,22
1,38,112,24
1,31,112,12
1,38,112,24
1,31,112,26
1,38,112,24
1,43,112,24
1,43,112,12
1,38,112,212
1,31,112,16
1,38,112,32
1,43,112,24
1,43,112,16
1,38,112,208
1,30,112,20
1,37,112,24
1,42,112,24
1,42,112,16
1,37,112,210
1,29,112,12
1,29,127,398
1,29,127,20
1,29,127,16
1,30,127,20
1,30,127,408
1,30,127,24
1,41,127,24
1,36,127,32
1,29,127,16
1,36,127,24
1,41,127,24
1,36,127,22
1,29,127,20
1,36,127,24
1,43,127,16
1,38,127,28
1,31,127,12
1,38,127,22
1,31,127,24
1,38,127,24
1,43,127,22
1,43,127,12
1,38,127,190
1,31,127,12
1,38,127,32
1,43,127,26
1,43,127,16
1,38,127,204
1,30,127,24
1,37,127,24
1,42,127,26
1,42,127,16
1,37,127,210
1,29,127,22
1,29,127,30
1,29,127,26
1,29,127,16
1,29,127,208
1,29,127,24
1,29,127,22
1,29,127,208
1,29,127,20
1,29,127,16
1,41,127,16
1,36,127,24
1,29,127,16
1,36,127,24
1,41,127,24
1,36,127,20
1,29,127,20
1,36,127,24
1,43,127,16
1,38,127,26
1,31,127,20
1,38,127,24
1,31,127,24
1,38,127,24
1,43,127,18
1,43,127,14
1,38,127,210
1,31,127,14
1,38,127,32
1,43,127,24
1,43,127,14
1,38,127,204
1,30,127,20
1,37,127,28
1,42,127,24
1,42,127,14
1,37,127,208
1,29,127,18
1,29,127,24
1,29,127,24
1,29,127,14
1,29,127,208
1,29,127,22
1,29,127,32
1,29,127,208
1,29,127,24
1,29,127,16
1,42,54,14
1,42,112,28
1,30,112,24
1,30,112,24
1,42,112,24
1,42,112,28
1,42,112,20
1,42,112,24
1,47,112,16
1,47,112,28
1,42,112,24
1,42,112,24
1,35,112,24
1,35,112,28
1,47,112,24
1,47,112,16
1,47,112,24
1,42,112,16
1,37,112,32
1,42,112,24
1,42,112,24
1,42,112,16
1,37,112,28
1,30,112,26
1,30,112,16
1,37,112,20
1,38,112,12
1,33,112,28
1,38,112,24
1,33,112,24
1,38,112,24
1,33,112,28
1,38,112,20
1,38,112,16
1,45,112,24
1,43,112,16
1,38,112,24
1,43,112,26
1,43,112,26
1,43,112,24
1,38,112,24
1,31,112,16
1,31,112,20
1,38,112,24
1,39,112,16
1,34,112,22
1,39,112,16
1,39,112,28
1,39,112,24
1,39,112,24
1,39,112,24
1,39,112,16
1,34,112,20
1,33,112,16
1,33,112,28
1,33,112,20
1,33,112,28
1,33,112,16
1,38,112,16
1,38,112,20
1,38,112,212
1,38,112,24
1,45,112,24
1,43,112,16
1,43,112,28
1,43,112,12
1,38,112,14
1,31,112,26
1,36,112,14
1,36,112,30
1,36,112,26
1,36,112,14
1,36,112,26
1,41,112,26
1,36,112,24
1,29,112,20
1,36,112,24
1,41,112,16
1,36,112,24
1,29,112,16
1,36,112,24
1,43,112,24
1,38,112,28
1,31,112,24
1,38,112,24
1,31,112,24
1,38,112,24
1,43,112,24
1,43,112,16
1,38,112,208
1,31,112,16
1,38,112,32
1,43,112,24
1,43,112,14
1,38,112,208
1,30,112,16
1,37,112,24
1,42,112,24
1,42,112,16
1,37,112,208
1,29,112,16
1,29,112,24
1,29,112,22
1,29,112,16
1,30,112,26
1,30,112,400
1,30,112,24
1,29,112,24
1,29,112,20
1,29,112,12
1,29,112,14
1,30,112,26
1,30,112,404
1,30,112,20
1,29,112,24
1,29,112,28
1,29,112,20
1,29,112,16
1,29,112,20
2,57,76,1210
2,64,76,4
2,53,76,0
2,60,76,8
2,57,76,392
2,60,76,4
2,64,76,0
2,53,76,0
2,57,76,4
2,53,76,0
2,60,76,4
2,64,76,0
2,60,76,20
2,64,76,0
2,57,76,0
2,53,76,0
2,65,76,200
2,61,76,0
2,58,76,0
2,54,76,0
2,61,76,400
2,58,76,0
2,54,76,0
2,65,76,0
2,61,76,20
2,58,76,0
2,65,76,0
2,54,76,0
2,64,76,212
2,57,76,6
2,53,76,2
2,60,76,4
2,64,76,392
2,60,76,0
2,57,76,0
2,53,76,0
2,57,76,8
2,64,76,4
2,53,76,6
2,60,76,2
2,64,76,12
2,60,76,0
2,53,76,0
2,57,76,0
2,63,76,204
2,58,76,2
2,52,76,0
2,60,76,404
2,63,76,0
2,52,76,0
2,58,76,0
2,61,76,32
2,58,76,0
2,54,76,0
2,65,76,0
2,53,76,20
2,57,76,0
2,60,76,8
2,64,76,0
2,57,76,416
2,64,76,4
2,60,76,0
2,53,76,0
2,64,76,88
2,53,76,0
2,57,76,0
2,60,76,8
2,64,76,416
2,57,76,0
2,53,76,4
2,60,76,4
2,53,76,232
2,57,76,0
2,64,76,4
2,60,76,0
2,53,76,222
2,59,76,6
2,64,76,4
2,64,76,36
2,53,76,0
2,59,76,0
2,59,76,232
2,64,76,4
2,53,76,0
2,67,76,0
2,64,76,88
2,53,76,0
2,59,76,0
2,53,76,224
2,64,76,0
2,59,76,0
2,53,76,32
2,67,76,4
2,59,76,4
2,64,76,4
2,59,76,228
2,64,76,0
2,53,76,10
2,59,76,36
2,67,76,0
2,65,76,226
2,53,76,0
2,62,76,0
2,58,76,8
2,58,76,224
2,65,76,4
2,62,76,0
2,55,76,0
2,65,76,32
2,55,76,8
2,62,76,6
2,58,76,0
2,62,76,82
2,58,76,0
2,55,76,0
2,65,76,0
2,61,76,800
2,58,76,0
2,54,76,0
2,64,76,0
2,64,76,416
2,54,76,0
2,61,76,8
2,58,76,0
2,57,76,220
2,55,76,4
2,60,76,0
2,60,76,228
2,55,76,0
2,57,76,0
2,64,76,32
2,57,76,0
2,60,76,8
2,55,76,0
2,55,76,88
2,60,76,8
2,57,76,0
2,55,76,36
2,64,76,0
2,60,76,8
2,57,76,0
2,57,76,224
2,60,76,6
2,57,76,0
2,55,76,0
2,53,76,92
2,57,76,192
2,60,76,36
2,57,76,0
2,64,76,8
2,60,76,36
2,64,76,0
2,53,76,0
2,57,76,0
2,57,76,422
2,64,76,2
2,60,76,0
2,53,76,0
2,57,76,88
2,53,76,6
2,64,76,0
2,60,76,4
2,57,76,416
2,60,76,4
2,53,76,0
2,64,76,0
2,53,76,228
2,57,76,0
2,60,76,6
2,64,76,0
2,64,76,218
2,59,76,0
2,59,76,36
2,53,76,4
2,64,76,0
2,59,76,224
2,64,76,4
2,67,76,2
2,53,76,0
2,59,76,84
2,53,76,4
2,64,76,0
2,64,76,224
2,59,76,0
2,53,76,10
2,55,76,36
2,67,76,4
2,64,76,4
2,59,76,0
2,59,76,228
2,64,76,0
2,53,76,10
2,67,76,0
2,62,76,280
2,55,76,6
2,65,76,0
2,58,76,2
2,58,76,224
2,65,76,4
2,62,76,0
2,55,76,0
2,55,76,32
2,65,76,0
2,62,76,6
2,58,76,4
2,62,76,88
2,58,76,0
2,55,76,0
2,65,76,0
2,54,76,798
2,64,76,0
2,58,76,10
2,61,76,0
2,54,76,422
2,61,76,2
2,58,76,0
2,64,76,0
2,57,76,218
2,52,76,4
2,60,76,0
2,60,76,228
2,52,76,0
2,57,76,0
2,57,76,40
2,60,76,4
2,53,76,0
2,64,76,0
2,60,76,88
2,57,76,0
2,53,76,0
2,60,76,32
2,57,76,0
2,53,76,0
2,64,76,0
2,60,76,220
2,57,76,0
2,53,76,0
2,53,76,88
2,57,76,196
2,60,76,188
2,57,76,0
2,64,76,8
2,61,76,36
2,58,76,0
2,54,76,0
2,65,76,0
2,54,76,212
2,58,76,4
2,65,76,0
2,61,76,4
2,65,76,392
2,54,76,0
2,61,76,4
2,58,76,0
2,54,76,204
2,65,76,4
2,61,76,4
2,58,76,0
2,63,76,200
2,57,76,6
2,54,76,4
2,54,76,212
2,63,76,4
2,57,76,0
2,54,76,396
2,57,76,194
2,63,76,186
2,61,76,18
2,52,76,4
2,57,76,0
2,61,76,212
2,54,76,0
2,57,76,8
2,64,76,0
2,54,76,212
2,60,76,6
2,64,76,4
2,57,76,2
2,55,76,212
2,64,76,4
2,57,76,0
2,60,76,6
2,57,76,392
2,55,76,0
2,60,76,4
2,64,76,0
2,64,76,210
2,54,76,0
2,60,76,2
2,57,76,0
2,62,76,200
2,58,76,4
2,57,76,0
2,65,76,20
2,62,76,0
2,58,76,8
2,55,76,0
2,55,76,20
2,58,76,204
2,62,76,180
2,62,76,24
2,58,76,0
2,55,76,0
2,65,76,0
2,65,76,610
2,61,76,0
2,56,76,0
2,55,76,30
2,61,76,196
2,65,76,180
2,65,76,202
2,61,76,0
2,55,76,0
2,64,76,392
2,60,76,0
2,55,76,0
2,55,76,392
2,64,76,4
2,60,76,0
2,55,76,8
2,60,76,4
2,64,76,4
2,60,76,12
2,55,76,0
2,64,76,4
2,60,76,212
2,63,76,0
2,54,76,4
2,68,76,0
2,54,76,396
2,68,76,0
2,60,76,0
2,63,76,0
2,58,76,404
2,62,76,0
2,53,76,0
2,65,76,396
2,57,76,0
2,58,76,8
2,62,76,0
2,65,76,8
2,57,76,4
2,58,76,4
2,62,76,4
2,62,76,8
2,65,76,8
2,58,76,0
2,57,76,0
2,58,76,390
2,61,76,0
2,66,76,0
2,52,76,0
2,66,76,212
2,61,76,0
2,58,76,0
2,52,76,0
2,60,76,24
2,57,76,0
2,55,76,0
2,64,76,0
2,60,76,392
2,57,76,0
2,64,76,0
2,55,76,0
2,55,76,10
2,57,76,0
2,64,76,0
2,60,76,10
2,55,76,12
2,64,76,0
2,60,76,4
2,57,76,0
2,64,76,200
2,53,76,0
2,60,76,8
2,57,76,0
2,57,76,26
2,60,76,16
2,64,76,8
2,64,76,212
2,59,76,0
2,53,76,4
2,53,76,204
2,64,76,0
2,67,76,0
2,59,76,0
2,64,76,212
2,53,76,0
2,59,76,0
2,67,76,0
2,59,76,4
2,67,76,4
2,53,76,0
2,64,76,6
2,53,76,28
2,59,76,188
2,64,76,188
2,59,76,20
2,67,76,0
2,64,76,4
2,53,76,0
2,65,76,200
2,57,76,0
2,62,76,0
2,58,76,0
2,55,76,22
2,58,76,12
2,62,76,8
2,55,76,10
2,58,76,8
2,62,76,0
2,65,76,0
2,54,76,200
2,58,76,4
2,64,76,0
2,54,76,24
2,64,76,0
2,61,76,0
2,58,76,0
2,54,76,212
2,64,76,0
2,61,76,8
2,58,76,0
2,60,76,8
2,53,76,0
2,64,76,0
2,57,76,0
2,60,76,390
2,64,76,0
2,53,76,0
2,57,76,0
2,64,76,4
2,57,76,0
2,60,76,4
2,53,76,0
2,60,76,8
2,53,76,0
2,64,76,0
2,57,76,0
2,61,76,200
2,54,76,0
2,58,76,0
2,65,76,0
2,58,76,400
2,61,76,0
2,65,76,0
2,61,76,20
2,65,76,0
2,58,76,0
2,60,76,24
2,64,76,0
2,57,76,0
2,60,76,210
2,64,76,0
2,57,76,0
2,64,76,396
2,57,76,0
2,60,76,0
2,53,76,212
2,64,76,0
2,59,76,0
2,67,76,0
2,64,76,22
2,67,76,0
2,59,76,0
2,53,76,0
2,53,76,390
2,59,76,0
2,64,76,0
2,67,76,0
2,64,79,3430
2,69,84,20
2,60,76,2020
2,57,76,0
2,60,76,216
2,64,76,0
2,57,76,0
2,64,76,392
2,57,76,0
2,60,76,0
2,64,76,210
2,59,76,0
2,67,76,0
2,64,76,22
2,67,76,0
2,59,76,0
2,59,76,394
2,64,76,0
2,67,76,0
2,64,79,3444
2,69,89,24
2,61,76,2020
2,58,76,0
2,54,76,0
2,65,76,0
2,58,76,216
2,65,76,0
2,54,76,0
2,61,76,8
2,65,76,386
2,54,76,0
2,61,76,4
2,58,76,0
2,65,76,208
2,54,76,0
2,61,76,4
2,58,76,0
2,54,76,200
2,57,76,0
2,63,76,0
2,54,76,212
2,63,76,4
2,57,76,0
2,54,76,396
2,57,76,186
2,63,76,192
2,52,76,20
2,57,76,0
2,61,76,0
2,61,76,216
2,54,76,0
2,57,76,8
2,64,76,0
2,57,76,212
2,64,76,0
2,60,76,0
2,55,76,0
2,55,76,212
2,64,76,4
2,57,76,0
2,60,76,4
2,57,76,392
2,55,76,0
2,60,76,4
2,64,76,0
2,54,76,204
2,60,76,4
2,57,76,0
2,62,76,0
2,58,76,200
2,57,76,0
2,62,76,0
2,65,76,20
2,62,76,0
2,58,76,8
2,55,76,0
2,55,76,20
2,58,76,204
2,62,76,180
2,58,76,24
2,55,76,0
2,65,76,0
2,62,76,8
2,65,76,608
2,61,76,0
2,56,76,0
2,55,76,20
2,58,76,204
2,65,76,180
2,55,76,204
2,65,76,8
2,58,76,0
2,64,76,392
2,60,76,0
2,55,76,0
2,55,76,392
2,60,76,4
2,64,76,4
2,55,76,8
2,64,76,4
2,60,76,0
2,60,76,16
2,57,76,0
2,64,76,4
2,60,76,200
2,63,76,0
2,54,76,8
2,68,76,0
2,54,76,396
2,68,76,0
2,60,76,0
2,63,76,0
2,58,76,402
2,62,76,0
2,57,76,0
2,57,76,400
2,58,76,4
2,62,76,0
2,65,76,0
2,62,76,4
2,58,76,0
2,57,76,0
2,65,76,0
2,62,76,6
2,65,76,8
2,58,76,0
2,55,76,0
2,58,76,390
2,61,76,0
2,66,76,0
2,52,76,0
2,66,76,212
2,61,76,0
2,58,76,0
2,52,76,0
2,60,76,26
2,57,76,0
2,53,76,0
2,64,76,0
2,60,76,392
2,57,76,0
2,64,76,0
