track,note,velocity,time
1,78,108,2376
1,76,116,42
1,73,112,46
1,74,125,208
1,76,121,40
1,78,120,48
1,78,115,40
1,78,113,48
1,78,113,48
1,78,111,56
1,78,111,64
1,78,109,62
1,81,118,40
1,80,109,24
1,78,119,26
1,80,111,48
1,76,118,32
1,73,111,8
1,76,107,336
1,74,106,36
1,71,115,62
1,71,118,160
1,73,111,46
1,74,121,48
1,74,121,46
1,73,120,46
1,76,117,48
1,76,117,32
1,74,116,48
1,73,111,40
1,71,118,8
1,74,117,14
1,73,118,30
1,71,118,20
1,70,111,26
1,70,116,46
1,78,125,410
1,76,124,46
1,73,113,32
1,74,124,248
1,76,122,46
1,78,121,36
1,78,120,46
1,78,115,46
1,78,122,56
1,78,119,62
1,78,119,56
1,78,123,56
1,81,121,30
1,80,114,32
1,78,122,20
1,80,115,32
1,76,118,32
1,73,115,24
1,76,124,286
1,74,122,14
1,71,116,30
1,71,124,136
1,73,123,48
1,74,125,40
1,74,125,36
1,73,125,40
1,76,121,42
1,76,122,40
1,74,125,48
1,73,113,32
1,71,121,4
1,74,121,14
1,73,121,30
1,71,121,26
1,70,124,26
1,73,121,26
1,71,125,116
1,69,121,30
1,73,122,4
1,71,124,62
1,68,125,68
1,71,125,116
1,69,125,10
1,66,113,20
1,66,123,174
1,68,117,32
1,69,119,56
1,69,125,24
1,68,121,32
1,71,121,32
1,71,119,36
1,70,120,56
1,69,121,46
1,69,122,46
1,65,117,42
1,68,125,26
1,66,119,14
1,66,122,56
1,66,125,96
1,68,124,48
1,69,122,62
1,69,125,26
1,68,124,36
1,71,122,42
1,71,121,40
1,70,122,48
1,69,119,40
1,69,123,40
1,65,120,40
1,68,125,24
1,66,116,48
1,66,114,40
1,78,119,632
1,76,124,24
1,78,114,0
1,73,115,30
1,74,124,202
1,76,122,46
1,78,117,48
1,78,123,24
1,78,115,48
1,78,115,46
1,78,113,56
1,78,113,48
1,78,111,48
1,81,118,40
1,80,119,20
1,78,114,32
1,80,113,26
1,76,118,46
1,73,113,30
1,76,117,58
1,74,116,1280
1,71,107,40
1,71,118,84
1,73,115,24
1,74,125,46
1,74,121,40
1,73,117,40
1,76,114,40
1,76,118,32
1,74,123,40
1,73,112,32
1,71,115,26
1,74,121,0
1,73,115,26
1,71,120,30
1,70,114,8
1,70,119,74
1,78,112,222
1,76,117,16
1,73,112,16
1,74,116,132
1,76,120,128
1,78,112,14
1,78,110,26
1,78,111,48
1,78,111,36
1,78,111,48
1,78,111,56
1,78,113,48
1,81,117,46
1,80,109,14
1,78,110,40
1,80,115,26
1,76,118,26
1,73,114,36
1,76,118,94
1,74,121,10
1,71,120,128
1,71,120,104
1,73,122,24
1,74,124,30
1,74,123,40
1,73,124,40
1,76,121,32
1,76,118,40
1,74,125,40
1,73,117,40
1,71,121,384
1,74,122,14
1,73,124,26
1,71,124,26
1,70,124,14
1,73,120,10
1,71,125,48
1,69,124,8
1,73,121,128
1,71,124,20
1,68,125,26
1,71,125,42
1,69,125,16
1,66,121,40
1,66,122,158
1,68,112,24
1,69,123,24
1,69,125,32
1,68,123,32
1,71,122,32
1,71,121,32
1,70,122,40
1,69,117,32
1,69,120,48
1,65,122,8
1,68,123,16
1,66,118,128
1,66,113,46
1,66,123,96
1,68,119,8
1,69,120,16
1,69,125,40
1,68,122,40
1,71,122,42
1,71,119,40
1,70,117,48
1,69,118,32
1,69,119,62
1,65,121,40
1,68,114,10
1,66,114,48
1,66,105,40
1,66,124,430
1,68,123,32
1,69,123,32
1,69,125,32
1,68,123,32
1,71,122,32
1,71,121,32
1,70,122,40
1,69,117,32
1,69,120,48
1,65,122,30
1,68,123,40
1,66,118,128
1,66,113,84
1,66,123,80
1,68,119,62
1,69,120,56
1,69,125,40
1,68,122,40
1,71,122,42
1,71,119,40
1,70,117,48
1,69,118,32
1,69,119,62
1,65,121,8
1,68,114,256
1,66,114,30
1,66,105,40
2,47,96,2280
2,42,89,90
2,42,88,24
2,47,91,126
2,40,94,16
2,47,96,84
2,47,93,30
2,40,92,158
2,45,92,10
2,40,95,88
2,40,91,24
2,45,95,170
2,46,92,10
2,41,94,72
2,41,89,24
2,46,88,180
2,47,94,8
2,42,92,68
2,42,88,24
2,47,94,168
2,48,95,10
2,43,92,96
2,48,93,24
2,48,94,84
2,49,92,84
2,44,87,48
2,49,90,8
2,49,89,160
2,49,89,16
2,44,89,72
2,49,87,16
2,44,85,158
2,45,89,46
2,45,96,72
2,45,89,24
2,45,95,180
2,38,95,8
2,38,93,72
2,38,95,30
2,38,92,168
2,43,94,8
2,43,94,78
2,43,91,30
2,38,94,152
2,43,92,8
2,43,91,72
2,43,93,30
2,43,92,142
2,44,96,14
2,44,87,80
2,44,86,24
2,44,87,128
2,37,80,30
2,37,87,84
2,37,89,32
2,37,87,152
2,42,90,10
2,42,90,64
2,42,87,24
2,37,88,170
2,42,88,14
2,42,89,112
2,42,91,8
2,47,96,282
2,42,99,46
2,42,88,32
2,47,92,32
2,42,88,16
2,40,96,32
2,47,93,90
2,47,90,24
2,40,91,56
2,45,93,46
2,40,94,52
2,40,94,24
2,40,90,78
2,45,91,30
2,46,92,40
2,46,88,90
2,46,86,16
2,41,87,52
2,46,88,26
2,46,80,24
2,47,97,0
2,47,92,84
2,47,86,16
2,42,86,30
2,47,94,40
2,48,94,32
2,48,90,84
2,48,79,8
2,43,92,26
2,48,93,32
2,49,91,48
2,44,91,64
2,44,92,30
2,49,96,80
2,49,87,16
2,44,89,68
2,44,89,30
2,49,86,56
2,44,85,30
2,45,95,30
2,45,91,80
2,45,87,14
2,40,94,56
2,38,94,62
2,45,92,56
2,45,91,30
2,38,87,30
2,42,83,30
2,43,94,24
2,38,93,56
2,38,93,30
2,43,95,64
2,43,93,24
2,38,92,64
2,38,93,30
2,38,90,74
2,43,92,40
2,44,92,32
2,44,86,84
2,44,86,16
2,44,85,80
2,37,94,62
2,37,91,72
2,37,91,30
2,37,87,68
2,42,93,74
2,42,88,94
2,42,86,24
2,42,83,90
2,47,93,68
2,47,89,74
2,47,90,30
2,47,92,48
2,42,86,32
2,40,94,46
2,47,94,68
2,47,91,24
2,40,87,48
2,45,92,8
2,40,94,52
2,40,91,24
2,45,88,144
2,38,93,8
2,45,92,46
2,45,89,24
2,45,89,46
2,38,92,40
2,45,87,24
2,38,92,96
2,38,93,24
2,45,94,68
2,39,92,30
2,39,92,74
2,39,90,30
2,39,88,74
2,38,96,48
2,38,98,80
2,38,98,30
2,38,92,64
2,42,100,78
2,42,92,56
2,42,85,30
2,37,86,40
2,42,88,32
2,36,100,30
2,36,99,74
2,36,96,30
2,36,91,68
2,47,93,62
2,47,94,78
2,47,89,16
2,47,88,94
2,47,94,74
2,47,90,94
2,49,94,24
2,49,86,90
2,42,91,10
2,45,85,84
2,49,88,30
2,49,84,120
2,42,90,14
2,49,87,128
2,49,89,30
2,47,96,320
2,42,89,90
2,42,88,24
2,47,91,126
2,40,94,16
2,47,96,84
2,47,93,30
2,40,92,158
2,45,92,10
2,40,95,88
2,40,91,24
2,45,95,170
2,46,92,10
2,41,94,72
2,41,89,24
2,46,88,180
2,47,94,8
2,42,92,68
2,42,88,24
2,47,94,168
2,48,95,10
2,43,92,96
2,48,93,24
2,48,94,84
2,49,92,84
2,44,87,48
2,49,90,8
2,49,89,160
2,49,89,16
2,44,89,72
2,49,87,16
2,44,85,158
2,45,89,46
2,45,96,72
2,45,89,24
2,45,95,180
2,38,95,8
2,38,93,72
2,38,95,30
2,38,92,168
2,43,94,8
2,43,94,78
2,43,91,30
2,38,94,152
2,43,92,8
2,43,91,72
2,43,93,30
2,43,92,142
2,44,96,14
2,44,87,80
2,44,86,24
2,44,87,128
2,37,80,30
2,37,87,84
2,37,89,32
2,37,87,152
2,42,90,10
2,42,90,64
2,42,87,24
2,37,88,170
2,42,88,14
2,42,89,112
2,42,91,8
2,47,96,282
2,42,99,46
2,42,88,32
2,47,92,32
2,42,88,16
2,40,96,32
2,47,93,90
2,47,90,24
2,40,91,56
2,45,93,46
2,40,94,52
2,40,94,24
2,40,90,78
2,45,91,30
2,46,92,40
2,46,88,90
2,46,86,16
2,41,87,52
2,46,88,26
2,46,80,24
2,47,97,0
2,47,92,84
2,47,86,16
2,42,86,30
2,47,94,40
2,48,94,32
2,48,90,84
2,48,79,8
2,43,92,26
2,48,93,32
2,49,91,48
2,44,91,64
2,44,92,30
2,49,96,80
2,49,87,16
2,44,89,68
2,44,89,30
2,49,86,56
2,44,85,30
2,45,95,30
2,45,91,80
2,45,87,14
2,40,94,56
2,38,94,62
2,45,92,56
2,45,91,30
2,38,87,30
2,42,83,30
2,43,94,24
2,38,93,56
2,38,93,30
2,43,95,64
2,43,93,24
2,38,92,64
2,38,93,30
2,38,90,74
2,43,92,40
2,44,92,32
2,44,86,84
2,44,86,16
2,44,85,80
2,37,94,62
2,37,91,72
2,37,91,30
2,37,87,68
2,42,93,74
2,42,88,94
2,42,86,24
2,42,83,90
2,47,93,68
2,47,89,74
2,47,90,30
2,47,92,48
2,42,86,32
2,40,94,46
2,47,94,68
2,47,91,24
2,40,87,48
2,45,92,8
2,40,94,52
2,40,91,24
2,45,88,144
2,38,93,8
2,45,92,46
2,45,89,24
2,45,89,46
2,38,92,40
2,45,87,24
2,38,92,96
2,38,93,24
2,45,94,68
2,39,92,30
2,39,92,74
2,39,90,30
2,39,88,74
2,38,96,48
2,38,98,80
2,38,98,30
2,38,92,64
2,42,100,78
2,42,92,56
2,42,85,30
2,37,86,40
2,42,88,32
2,36,100,30
2,36,99,74
2,36,96,30
2,36,91,68
2,47,93,62
2,47,94,78
2,47,89,16
2,47,88,94
2,47,94,74
2,47,90,94
2,49,94,24
2,49,86,90
2,42,91,10
2,45,85,84
2,49,88,30
2,49,84,120
2,42,90,14
2,49,87,128
2,49,89,30
2,39,93,320
2,39,93,74
2,39,91,30
2,39,89,74
2,38,97,48
2,38,99,80
2,38,99,30
2,38,93,64
2,42,101,78
2,42,93,56
2,42,86,30
2,42,89,136
2,36,101,30
2,36,100,74
2,36,97,30
2,36,92,68
2,47,94,62
2,47,95,78
2,47,90,16
2,47,89,94
2,47,95,74
2,47,91,94
2,49,95,24
2,49,87,90
2,42,92,10
2,45,86,84
2,49,89,30
2,49,85,120
2,42,104,14
3,50,81,2184
3,54,72,0
3,57,85,0
3,50,72,120
3,57,82,0
3,54,66,8
3,54,68,128
3,50,72,8
3,57,81,0
3,54,70,26
3,57,78,0
3,52,77,112
3,60,86,0
3,56,70,0
3,56,64,128
3,52,68,4
3,60,83,2
3,60,85,118
3,52,74,4
3,56,72,6
3,52,77,20
3,56,72,0
3,60,92,2
3,56,73,118
3,52,75,4
3,61,85,0
3,61,71,118
3,52,67,8
3,56,68,2
3,56,72,132
3,61,80,4
3,52,77,2
3,52,51,20
3,56,72,0
3,61,69,6
3,64,84,122
3,61,73,4
3,58,75,2
3,58,66,132
3,64,86,0
3,61,75,4
3,61,75,124
3,64,88,4
3,58,72,4
3,58,67,32
3,61,77,8
3,64,83,0
3,57,76,134
3,50,80,4
3,54,70,2
3,50,64,122
3,54,65,0
3,57,76,0
3,57,80,120
3,54,65,8
3,50,72,2
3,54,73,30
3,50,71,2
3,57,73,0
3,57,91,106
3,51,77,4
3,54,79,0
3,57,84,132
3,51,66,2
3,54,69,0
3,54,81,124
3,51,80,4
3,57,94,0
3,51,64,26
3,54,70,2
3,57,80,0
3,56,72,122
3,52,80,4
3,61,86,0
3,61,69,112
3,56,66,8
3,52,65,0
3,61,67,124
3,52,68,8
3,56,61,2
3,52,63,26
3,56,71,4
3,61,70,0
3,52,72,322
3,56,70,4
3,61,72,0
3,56,69,128
3,61,73,4
3,52,72,2
3,52,77,40
3,56,72,0
3,61,73,0
3,60,87,128
3,55,74,4
3,64,83,0
3,60,74,120
3,55,69,4
3,64,77,0
3,60,77,114
3,55,69,10
3,64,74,0
3,55,61,12
3,64,81,0
3,60,84,4
3,58,75,128
3,50,62,8
3,54,70,2
3,50,65,128
3,58,65,0
3,54,61,2
3,58,69,104
3,50,74,8
3,54,66,0
3,50,63,38
3,58,69,0
3,54,67,8
3,59,56,224
3,62,76,4
3,66,66,4
3,55,59,2
3,55,55,128
3,55,50,38
3,66,60,4
3,62,78,4
3,59,70,2
3,62,79,32
3,66,65,0
3,59,77,6
3,59,74,118
3,55,76,4
3,62,75,0
3,66,65,0
3,62,81,130
3,59,78,4
3,55,74,4
3,66,63,0
3,55,62,124
3,59,75,4
3,66,54,4
3,62,72,2
3,55,69,46
3,59,80,0
3,66,56,0
3,62,81,2
3,62,60,124
3,59,65,4
3,56,61,2
3,66,56,0
3,62,72,112
3,56,61,4
3,66,56,0
3,59,66,0
3,62,68,112
3,56,61,8
3,59,61,0
3,66,59,2
3,59,71,16
3,62,84,4
3,66,68,4
3,56,69,2
3,61,72,128
3,53,73,4
3,56,74,0
3,59,76,2
3,56,66,108
3,59,73,0
3,61,70,0
3,53,67,8
3,56,67,128
3,61,68,4
3,53,66,4
3,59,74,0
3,53,74,42
3,56,73,0
3,59,83,0
3,61,72,2
3,58,66,112
3,61,75,0
3,65,55,4
3,54,74,4
3,54,62,98
3,58,69,8
3,61,71,0
3,65,73,0
3,54,69,104
3,61,70,0
3,58,69,4
3,65,77,0
3,58,74,22
3,61,67,0
3,54,46,4
3,54,64,114
3,58,66,8
3,61,66,2
3,64,72,0
3,54,70,126
3,58,68,0
3,61,67,0
3,64,79,0
3,54,80,120
3,64,93,4
3,58,83,4
3,61,82,0
3,54,75,50
3,58,75,8
3,61,77,2
3,64,90,0
3,54,100,122
3,57,106,4
3,50,103,0
3,54,100,112
3,57,106,0
3,50,102,6
3,54,100,34
3,50,99,114
3,54,99,0
3,57,105,8
3,52,104,116
3,60,110,0
3,56,104,4
3,52,104,122
3,56,104,0
3,60,110,0
3,56,102,104
3,60,109,8
3,52,103,2
3,56,101,24
3,60,99,0
3,52,100,14
3,56,103,0
3,60,105,0
3,52,103,102
3,61,108,8
3,56,104,2
3,61,101,96
3,52,100,8
3,56,97,0
3,61,104,16
3,52,95,8
3,56,103,0
3,61,104,106
3,52,103,4
3,56,102,0
3,64,108,122
3,58,106,0
3,61,106,2
3,64,105,102
3,58,101,8
3,61,99,0
3,64,106,112
3,58,102,8
3,61,102,0
3,61,102,36
3,58,101,2
3,64,101,48
3,58,101,4
3,61,102,6
3,57,105,114
3,50,100,4
3,54,102,4
3,54,98,110
3,50,101,2
3,57,105,0
3,57,103,6
3,50,96,8
3,54,100,0
3,57,109,110
3,50,105,0
3,54,104,0
3,51,106,100
3,54,103,0
3,57,107,0
3,57,111,104
3,51,103,4
3,54,103,4
3,54,103,122
3,57,110,4
3,51,101,0
3,57,106,16
3,51,94,4
3,54,102,4
3,54,102,62
3,57,107,0
3,51,98,2
3,52,99,120
3,56,102,0
3,61,110,0
3,61,100,102
3,56,99,8
3,52,99,2
3,61,102,10
3,52,102,6
3,56,104,0
3,56,103,102
3,52,103,8
3,61,103,0
3,52,105,112
3,61,103,4
3,56,102,2
3,59,106,0
3,56,102,108
3,59,108,0
3,52,103,8
3,61,102,2
3,56,100,126
3,52,101,0
3,59,106,2
3,61,102,0
3,61,99,16
3,56,102,4
3,59,106,0
3,52,102,38
3,56,102,8
3,61,102,0
3,59,106,0
3,64,106,116
3,57,97,0
3,60,109,0
3,67,105,2
3,57,99,108
3,67,103,0
3,64,101,8
3,60,105,2
3,57,96,22
3,60,106,4
3,64,103,4
3,67,102,0
3,64,104,102
3,57,102,4
3,67,104,4
3,60,106,2
3,66,108,118
3,70,112,4
3,60,110,6
3,66,103,114
3,60,106,8
3,70,104,2
3,66,110,110
3,70,113,0
3,60,109,2
3,60,96,2
3,66,105,0
3,70,103,0
3,70,105,28
3,66,104,8
3,60,105,2
3,66,107,116
3,59,103,4
3,62,109,0
3,66,102,114
3,59,100,4
3,62,107,0
3,62,106,26
3,66,100,0
