track,note,velocity,time
1,31,123,54
1,43,123,0
1,31,123,38
1,43,123,40
1,31,123,22
1,43,123,24
1,31,123,24
1,43,123,0
1,31,123,24
1,43,123,24
1,31,123,24
1,43,123,24
1,31,123,38
1,43,123,34
1,34,123,40
1,46,123,0
1,36,123,62
1,48,123,2
1,36,123,22
1,48,123,18
1,36,123,16
1,48,123,22
1,36,123,20
1,48,123,0
1,36,123,18
1,48,123,36
1,36,123,24
1,48,123,32
1,36,123,20
1,48,123,18
1,36,123,46
1,38,123,2
1,36,123,0
1,34,123,0
1,31,123,0
1,43,123,0
1,31,123,16
1,43,123,34
1,31,123,38
1,43,123,16
1,31,123,18
1,43,123,18
1,31,123,18
1,43,123,32
1,31,123,18
1,43,123,32
1,31,123,34
1,43,123,32
1,34,123,40
1,46,123,18
1,36,123,62
1,48,123,18
1,36,123,18
1,48,123,18
1,36,123,16
1,48,123,30
1,36,123,14
1,48,123,30
1,36,123,16
1,48,123,18
1,36,123,18
1,48,123,18
1,41,123,44
1,38,123,0
1,36,123,2
1,34,123,0
1,31,123,0
1,29,123,2
1,31,123,0
1,34,123,0
1,31,123,0
1,43,123,32
1,31,123,32
1,43,123,20
1,31,123,32
1,43,123,30
1,31,123,36
1,43,123,2
1,31,123,18
1,43,123,16
1,31,123,18
1,43,123,18
1,31,123,18
1,43,123,20
1,34,123,20
1,46,123,2
1,36,123,68
1,48,123,18
1,36,123,4
1,48,123,28
1,36,123,24
1,48,123,16
1,36,123,14
1,48,123,26
1,36,123,26
1,48,123,36
1,36,123,24
1,48,123,30
1,36,123,28
1,48,123,32
1,36,123,22
1,38,123,0
1,36,123,0
1,34,123,2
1,31,123,2
1,43,123,36
1,31,123,30
1,43,123,14
1,31,123,14
1,43,123,16
1,31,123,18
1,43,123,16
1,31,123,20
1,43,123,16
1,31,123,16
1,43,123,14
1,31,123,16
1,43,123,18
1,34,123,32
1,46,123,4
1,36,123,68
1,48,123,18
1,36,123,22
1,48,123,18
1,36,123,2
1,48,123,4
1,36,123,14
1,48,123,20
1,36,123,18
1,48,123,14
1,36,123,18
1,48,123,18
1,36,123,48
1,48,123,16
1,36,123,16
1,38,123,2
1,36,123,2
1,34,123,2
1,31,123,0
1,43,123,32
1,31,123,30
1,43,123,34
1,31,123,34
1,43,123,30
1,31,123,18
1,43,123,18
1,34,123,18
1,46,123,14
1,34,123,30
1,46,123,16
1,34,123,32
1,46,123,16
1,34,123,16
1,46,123,16
1,36,123,78
1,48,123,18
1,36,123,18
1,48,123,2
1,36,123,18
1,48,123,18
1,36,123,0
1,34,123,0
1,31,123,0
1,29,123,0
1,38,123,2
1,50,123,48
1,38,123,0
1,50,123,18
1,38,123,34
1,50,123,18
1,38,123,16
1,50,123,18
1,31,123,42
1,43,123,18
1,31,123,32
1,43,123,34
1,31,123,32
1,43,123,18
1,31,123,16
1,43,123,16
1,31,123,20
1,43,123,14
1,31,123,32
1,43,123,14
1,31,123,0
1,43,123,32
1,34,123,18
1,46,123,22
1,36,123,62
1,48,123,28
1,36,123,0
1,48,123,24
1,36,123,24
1,48,123,26
1,36,123,0
1,48,123,26
1,36,123,22
1,48,123,40
1,36,123,24
1,48,123,40
1,36,123,26
1,48,123,28
1,36,123,50
1,38,123,2
1,36,123,0
1,34,123,2
1,31,123,0
1,43,123,34
1,31,123,14
1,43,123,14
1,31,123,14
1,43,123,16
1,31,123,16
1,43,123,16
1,31,123,16
1,43,123,16
1,31,123,14
1,43,123,16
1,31,123,16
1,43,123,32
1,34,123,16
1,46,123,12
1,36,123,64
1,48,123,0
1,36,123,30
1,48,123,18
1,36,123,192
1,48,123,16
1,36,123,18
1,48,123,34
1,36,123,18
1,48,123,14
1,36,123,16
1,48,123,18
1,36,123,18
1,48,123,16
1,36,123,30
1,38,123,2
1,36,123,0
1,34,123,0
1,31,123,6
1,43,123,34
1,31,123,48
1,43,123,18
1,31,123,16
1,43,123,16
1,31,123,16
1,43,123,0
1,34,123,0
1,46,123,18
1,34,123,16
1,46,123,0
1,34,123,18
1,46,123,32
1,34,123,16
1,46,123,0
1,36,123,64
1,48,123,16
1,36,123,28
1,48,123,18
1,36,123,16
1,48,123,18
1,36,123,32
1,34,123,0
1,31,123,0
1,29,123,0
1,38,123,0
1,50,123,32
1,38,123,32
1,50,123,32
1,38,123,32
1,50,123,24
1,38,123,30
1,50,123,52
1,31,123,86
1,43,123,42
1,31,123,24
1,43,123,16
1,31,123,26
1,43,123,26
1,31,123,14
1,43,123,20
1,34,123,16
1,46,123,20
1,34,123,190
1,46,123,24
1,29,123,120
1,41,123,30
1,29,123,30
1,41,123,32
1,31,123,32
1,43,123,34
1,31,123,18
1,43,123,12
1,31,123,32
1,43,123,0
1,31,123,32
1,43,123,0
1,36,123,36
1,48,123,14
1,36,123,30
1,48,123,0
1,38,123,14
1,50,123,20
1,38,123,14
1,50,123,16
1,31,123,74
1,43,123,192
1,31,123,48
1,43,123,0
1,31,123,34
1,43,123,26
1,31,123,28
1,43,123,0
1,34,123,2
1,46,123,26
1,34,123,184
1,46,123,16
1,29,123,78
1,41,123,0
1,29,123,32
1,41,123,14
1,31,123,34
1,43,123,34
1,31,123,18
1,43,123,16
1,31,123,34
1,43,123,16
1,31,123,34
1,43,123,18
1,36,123,32
1,48,123,18
1,36,123,16
1,48,123,0
1,38,123,34
1,50,123,20
1,38,123,2
1,50,123,16
1,31,123,80
1,43,123,0
1,31,123,32
1,43,123,18
1,29,123,50
1,41,123,18
1,29,123,0
1,41,123,16
1,27,123,34
1,39,123,0
1,27,123,16
1,39,123,0
1,26,123,64
1,38,123,0
1,26,123,32
1,38,123,18
1,24,123,48
1,36,123,2
1,24,123,16
1,36,123,4
1,24,123,16
1,36,123,16
1,24,123,34
1,36,123,16
1,26,123,18
1,38,123,18
1,26,123,32
1,38,123,0
1,41,123,64
1,38,123,0
1,36,123,4
1,34,123,2
1,31,123,0
1,29,123,0
1,31,123,2
1,34,123,0
1,31,123,0
1,43,123,32
1,31,123,34
1,43,123,18
1,31,123,36
1,43,123,32
1,31,123,32
1,43,123,20
1,31,123,30
1,43,123,18
1,31,123,0
1,43,123,34
1,31,123,34
1,43,123,18
1,34,123,18
1,46,123,0
1,36,123,50
1,48,123,22
1,36,123,22
1,48,123,22
1,36,123,24
1,48,123,22
1,36,123,24
1,48,123,24
1,36,123,20
1,48,123,22
1,36,123,0
1,48,123,24
1,36,123,24
1,48,123,22
1,36,123,44
1,38,123,0
1,36,123,0
1,34,123,2
1,31,123,0
1,43,123,38
1,31,123,32
1,43,123,18
1,31,123,36
1,43,123,16
1,31,123,18
1,43,123,18
1,31,123,32
1,43,123,18
1,31,123,34
1,43,123,16
1,31,123,32
1,43,123,16
1,34,123,16
1,46,123,0
1,36,123,68
1,48,123,18
1,36,123,16
1,48,123,16
1,36,123,2
1,48,123,16
1,36,123,18
1,48,123,16
1,36,123,0
1,48,123,18
1,36,123,34
1,48,123,34
1,41,123,64
1,38,123,0
1,36,123,0
1,34,123,2
1,31,123,0
1,29,123,2
1,31,123,2
1,34,123,4
1,31,123,0
1,43,123,32
1,31,123,54
1,43,123,34
1,31,123,32
1,43,123,18
1,31,123,16
1,43,123,16
1,34,123,18
1,46,123,18
1,34,123,14
1,46,123,18
1,34,123,36
1,46,123,32
1,34,123,18
1,46,123,16
1,36,123,66
1,48,123,18
1,36,123,16
1,48,123,36
1,36,123,34
1,48,123,16
1,36,123,34
1,34,123,0
1,31,123,6
1,29,123,2
1,38,123,4
1,50,123,44
1,38,123,38
1,50,123,34
1,38,123,28
1,50,123,50
1,38,123,32
1,50,123,46
1,31,123,50
1,43,123,36
1,31,123,44
1,43,123,22
1,31,123,36
1,43,123,26
1,31,123,32
1,43,123,22
1,34,123,24
1,46,123,26
1,34,123,24
1,46,123,22
1,29,123,94
1,41,123,0
1,29,123,24
1,41,123,16
1,31,123,48
1,43,123,16
1,31,123,34
1,43,123,14
1,31,123,32
1,43,123,14
1,31,123,30
1,43,123,0
1,36,123,38
1,48,123,18
1,36,123,28
1,48,123,2
1,41,123,32
1,38,123,4
1,36,123,2
1,34,123,0
1,31,123,0
1,29,123,2
1,31,123,0
1,34,123,0
1,31,123,0
1,43,123,34
1,31,123,44
1,43,123,16
1,31,123,34
1,43,123,18
1,31,123,26
1,43,123,18
1,34,123,18
1,46,123,0
1,34,123,18
1,46,123,2
1,29,123,80
1,41,123,16
1,29,123,30
1,41,123,12
1,31,123,18
1,43,123,0
1,31,123,28
1,43,123,18
1,31,123,16
1,43,123,0
1,31,123,48
1,43,123,16
1,36,123,40
1,48,123,192
1,36,123,18
1,48,123,18
1,38,123,16
1,50,123,34
1,38,123,16
1,50,123,16
1,31,123,62
1,43,123,32
1,31,123,16
1,43,123,16
1,31,123,32
1,43,123,30
1,31,123,16
1,43,123,18
1,31,123,34
1,43,123,16
1,31,123,18
1,43,123,16
1,31,123,32
1,43,123,32
1,34,123,38
1,46,123,12
1,36,123,74
1,48,123,0
1,36,123,24
1,48,123,22
1,36,123,24
1,48,123,26
1,36,123,24
1,48,123,26
1,36,123,22
1,48,123,24
1,36,123,22
1,48,123,26
1,36,123,42
1,34,123,0
1,31,123,2
1,29,123,2
1,34,123,0
1,36,123,94
1,31,123,90
1,43,123,32
1,31,123,34
1,43,123,0
1,31,123,16
1,43,123,18
1,31,123,14
1,43,123,18
1,31,123,18
1,43,123,4
1,31,123,16
1,43,123,32
1,31,123,16
1,43,123,32
1,34,123,34
1,46,123,2
1,36,123,66
1,48,123,0
1,36,123,0
1,48,123,18
1,36,123,2
1,48,123,16
1,36,123,18
1,48,123,18
1,36,123,16
1,48,123,18
1,36,123,12
1,48,123,18
1,41,123,48
1,38,123,0
1,36,123,0
1,34,123,0
1,31,123,0
1,29,123,0
1,31,123,0
1,34,123,0
1,31,123,0
1,43,123,32
1,31,123,34
1,43,123,18
1,31,123,34
1,43,123,20
1,31,123,32
1,43,123,18
1,34,123,34
1,46,123,18
1,34,123,34
1,46,123,18
1,34,123,46
1,46,123,18
1,34,123,18
1,46,123,16
1,36,123,66
1,48,123,18
1,36,123,18
1,48,123,18
1,36,123,34
1,48,123,18
1,36,123,0
1,34,123,4
1,31,123,0
1,29,123,2
1,38,123,0
1,50,123,16
1,38,123,32
1,50,123,32
1,41,123,54
1,38,123,0
1,36,123,2
1,34,123,0
1,31,123,0
1,29,123,0
1,31,123,0
1,34,123,0
1,31,123,6
1,43,123,42
1,31,123,32
1,43,123,18
1,31,123,26
1,43,123,2
1,31,123,24
1,43,123,16
1,34,123,18
1,46,123,6
1,34,123,14
1,46,123,0
1,29,123,80
1,41,123,12
1,29,123,42
1,41,123,20
1,31,123,42
1,43,123,2
1,31,123,30
1,43,123,0
1,31,123,38
1,43,123,14
1,31,123,8
1,43,123,4
1,36,123,48
1,48,123,16
1,36,123,12
1,48,123,22
1,41,123,34
1,38,123,0
1,36,123,0
1,34,123,0
1,31,123,0
1,29,123,0
1,31,123,0
1,34,123,0
1,31,123,0
1,43,123,38
1,31,123,44
1,43,123,20
1,31,123,40
1,43,123,12
1,31,123,42
1,43,123,14
1,34,123,34
1,46,123,14
1,34,123,14
1,46,123,0
1,29,123,78
1,41,123,16
1,29,123,18
1,41,123,16
1,31,123,34
1,43,123,0
1,31,123,34
1,43,123,14
1,31,123,34
1,43,123,16
1,31,123,18
1,43,123,16
1,36,123,48
1,48,123,2
1,36,123,18
1,48,123,194
1,41,123,48
1,38,123,0
1,36,123,2
1,34,123,0
1,31,123,2
1,29,123,0
1,31,123,0
1,34,123,0
1,31,123,0
1,43,123,32
1,31,123,34
1,43,123,18
1,31,123,18
1,43,123,2
1,31,123,30
1,43,123,28
1,34,123,18
1,46,123,18
1,34,123,18
1,46,123,0
1,29,123,80
1,41,123,16
1,29,123,40
1,41,123,18
1,31,123,48
1,43,123,0
1,31,123,34
1,43,123,2
1,31,123,34
1,43,123,20
1,31,123,18
1,43,123,0
1,36,123,64
1,48,123,20
1,36,123,22
1,48,123,18
1,41,123,34
1,38,123,0
1,36,123,0
1,34,123,0
1,31,123,0
1,29,123,2
1,31,123,0
1,34,123,2
1,31,123,0
1,43,123,32
1,31,123,30
1,43,123,44
1,31,123,50
1,43,123,30
1,31,123,34
1,43,123,28
1,34,123,44
1,46,123,12
1,34,123,14
1,46,123,0
1,29,123,68
1,41,123,18
1,29,123,12
1,41,123,20
1,31,123,38
1,43,123,2
1,31,123,48
1,43,123,18
1,31,123,36
1,43,123,12
1,31,123,12
1,43,123,18
1,36,123,34
1,48,123,2
1,36,123,32
1,48,123,194
1,41,123,42
1,38,123,4
1,36,123,2
1,34,123,2
1,31,123,0
1,29,123,0
1,31,123,0
1,34,123,0
2,62,79,52
2,79,79,16
2,79,79,46
2,62,79,0
2,74,79,48
2,84,87,0
2,65,79,0
2,74,79,50
2,84,87,0
2,65,79,0
2,77,79,48
2,82,87,0
2,67,79,0
2,77,79,48
2,82,87,0
2,67,79,0
2,79,79,48
2,79,87,0
2,70,79,0
2,82,79,46
2,79,87,0
2,72,79,0
2,62,79,46
2,79,79,2
2,62,79,48
2,79,79,2
2,74,79,48
2,84,87,0
2,65,79,0
2,74,79,48
2,84,87,0
2,65,79,0
2,67,79,40
2,82,87,4
2,77,79,0
2,82,87,48
2,67,79,0
2,77,79,2
2,70,79,48
2,79,87,2
2,79,79,0
2,82,79,48
2,79,87,0
2,72,79,0
2,62,79,52
2,79,79,2
2,79,79,48
2,62,79,0
2,65,79,50
2,74,79,2
2,84,87,2
2,84,87,48
2,74,79,0
2,65,79,0
2,82,87,48
2,77,79,0
2,67,79,0
2,82,87,50
2,77,79,0
2,67,79,0
2,70,79,50
2,79,79,0
2,79,87,0
2,79,87,48
2,82,79,0
2,72,79,0
2,62,79,50
2,79,79,0
2,62,79,48
2,79,79,4
2,84,87,48
2,74,79,0
2,65,79,0
2,84,87,46
2,74,79,0
2,65,79,0
2,67,79,48
2,82,87,20
2,77,79,0
2,67,79,38
2,77,79,2
2,82,87,2
2,70,79,48
2,79,79,2
2,79,87,0
2,79,87,48
2,82,79,0
2,72,79,0
2,62,79,52
2,79,79,10
2,79,79,38
2,62,79,0
2,74,79,48
2,84,87,0
2,65,79,0
2,65,79,44
2,84,87,0
2,74,79,0
2,77,79,48
2,82,87,0
2,67,79,0
2,77,79,46
2,82,87,0
2,67,79,0
2,70,79,48
2,79,87,4
2,79,79,0
2,82,79,48
2,79,87,0
2,72,79,0
2,62,79,46
2,79,79,2
2,62,79,48
2,79,79,2
2,74,79,50
2,84,87,0
2,65,79,0
2,74,79,48
2,84,87,0
2,65,79,0
2,67,79,46
2,77,79,18
2,82,87,0
2,77,79,46
2,82,87,0
2,67,79,0
2,79,79,46
2,79,87,0
2,70,79,0
2,82,79,48
2,79,87,0
2,72,79,0
2,62,79,50
2,79,79,12
2,79,79,50
2,62,79,0
2,84,87,48
2,74,79,0
2,65,79,0
2,84,87,46
2,74,79,0
2,65,79,0
2,82,87,48
2,77,79,0
2,67,79,0
2,82,87,50
2,77,79,0
2,67,79,0
2,70,79,50
2,79,79,4
2,79,87,0
2,79,87,46
2,82,79,0
2,72,79,0
2,62,79,48
2,79,79,16
2,62,79,46
2,79,79,2
2,84,87,48
2,74,79,0
2,65,79,0
2,65,79,46
2,74,79,4
2,84,87,0
2,67,79,50
2,77,79,14
2,82,87,2
2,82,87,44
2,77,79,0
2,67,79,0
2,79,87,48
2,79,79,0
2,70,79,0
2,79,87,46
2,82,79,0
2,72,79,0
2,62,79,50
2,79,79,12
2,79,79,44
2,62,79,0
2,65,79,48
2,74,79,16
2,84,87,0
2,74,79,44
2,84,87,0
2,65,79,0
2,77,79,48
2,82,87,0
2,67,79,0
2,77,79,50
2,82,87,0
2,67,79,0
2,70,79,50
2,79,87,2
2,79,79,0
2,82,79,48
2,79,87,0
2,72,79,0
2,62,79,46
2,79,79,16
2,79,79,48
2,62,79,0
