track,note,velocity,time
3,45,111,5687
3,43,112,111
3,40,113,2
3,36,113,12
3,40,108,299
3,36,109,10
3,33,112,243
3,33,108,115
3,33,107,202
3,36,107,52
3,33,98,36
3,38,112,77
3,41,111,120
3,41,111,174
3,42,100,171
3,43,108,61
3,43,99,114
3,43,104,27
3,43,105,35
3,43,109,64
3,36,92,53
3,46,91,10320
3,46,98,151
3,45,108,15
3,33,105,172
3,37,101,238
3,38,100,11
3,45,108,40
3,48,101,59
3,50,91,47
3,50,90,82
3,50,90,47
3,48,97,5
3,45,112,11
3,38,103,6
3,40,101,196
3,38,96,2
3,38,105,125
3,41,104,19
3,43,104,243
3,43,99,21
3,43,97,56
3,43,96,60
3,43,100,50
3,43,105,51
3,43,101,50
3,43,94,30
3,38,102,1
3,36,111,116
3,40,108,305
3,43,95,19
3,45,103,241
3,45,114,189
3,33,113,78
3,35,116,6
3,36,110,2
3,38,113,13
3,38,105,333
3,48,116,12
3,48,82,47
3,48,81,39
3,48,87,29
3,48,88,57
3,50,112,9
3,47,113,61
3,45,118,54
3,43,113,3
3,31,117,278
3,33,112,25
3,36,123,248
3,36,100,101
3,40,118,49
3,43,117,29
3,45,113,224
3,45,116,103
3,33,112,40
3,35,117,15
3,37,101,228
3,38,108,18
3,38,112,92
3,36,109,5
3,36,116,153
3,35,101,5
3,35,113,107
3,47,108,5
3,44,101,250
3,40,106,205
3,45,118,36
3,33,117,59
3,45,109,87
3,48,104,241
3,49,104,35
3,50,113,15
3,50,109,22
3,50,110,51
3,50,110,57
3,50,105,65
3,50,108,65
3,43,111,32
3,48,111,133
3,45,108,80
3,43,113,91
3,36,108,89
3,36,104,91
3,36,117,58
3,36,113,49
3,40,102,47
3,34,102,41
3,34,103,176
3,32,101,13
3,32,100,126
3,39,104,31
3,34,105,118
3,35,96,50
3,36,101,23
3,34,101,716
3,32,94,718
3,36,101,197
3,37,106,171
3,37,102,177
3,36,105,3
3,36,113,124
3,34,106,33
3,39,106,10
3,33,113,146
3,45,109,1
3,33,80,13
3,36,108,50
3,43,103,247
3,43,104,75
3,43,105,104
3,43,107,48
3,31,108,179
3,43,105,36
3,31,104,115
3,31,110,62
3,43,103,19
3,31,105,21
3,36,92,58
3,36,112,0
3,40,107,116
3,43,105,242
3,45,108,1
3,45,106,174
3,48,105,15
3,50,108,161
3,50,107,208
3,43,101,31
3,45,106,476
3,48,107,474
3,50,110,235
3,43,110,23
3,38,113,83
3,35,101,58
3,31,108,7
3,33,106,175
3,36,113,35
3,36,111,14
3,40,108,51
3,43,112,11
3,45,105,40
3,43,90,156
3,50,103,1
3,48,107,5
3,46,100,85
3,40,111,272
3,43,112,16
3,45,110,46
3,33,105,172
3,37,109,238
3,38,108,11
3,45,108,40
3,48,101,59
3,50,97,47
3,50,102,82
3,50,100,47
3,48,105,5
3,45,104,11
3,38,103,6
3,40,101,196
3,38,96,2
3,38,105,125
3,41,104,19
3,43,104,243
3,43,99,21
3,43,97,56
3,43,96,60
3,43,100,50
3,43,105,51
3,43,101,50
3,43,94,30
3,38,102,1
3,36,111,116
3,40,108,305
3,43,95,19
3,45,103,241
3,45,114,189
3,33,113,78
3,35,116,6
3,36,110,2
3,38,113,13
3,38,105,333
3,48,116,12
3,48,82,47
3,48,81,39
3,48,87,29
3,48,88,57
3,50,112,9
3,47,113,61
3,45,118,54
3,43,113,3
3,31,117,278
3,33,112,25
3,36,123,248
3,36,100,101
3,40,118,49
3,43,117,29
3,45,113,224
3,45,116,103
3,33,112,40
3,35,117,15
3,37,101,228
3,38,108,18
3,38,112,92
3,36,109,5
3,36,116,153
3,35,101,5
3,35,113,107
3,47,108,5
3,44,101,250
3,40,106,205
3,45,118,36
3,33,117,59
3,45,109,87
3,48,104,241
3,49,104,35
3,50,113,15
3,50,109,22
3,50,110,51
3,50,110,57
3,50,105,65
3,50,108,65
3,43,107,32
3,43,109,50
3,43,100,56
3,43,105,42
3,43,98,38
3,43,100,38
3,43,105,47
3,43,109,35
3,43,108,53
3,43,106,56
3,36,111,90
3,40,111,7
3,41,108,20
3,41,104,51
3,41,107,59
3,45,110,5
3,48,107,26
3,50,111,76
3,51,114,39
3,50,111,61
3,51,110,141
3,50,104,116
3,51,105,10
3,50,101,60
3,48,108,135
3,45,108,146
3,38,109,21
3,38,103,39
3,38,104,43
3,38,104,72
3,41,111,240
3,38,108,37
3,43,111,241
3,43,111,37
3,43,102,57
3,43,109,30
3,43,106,60
3,42,102,25
3,41,105,1441
3,36,109,20
4,52,83,6581
4,55,88,0
4,60,87,0
4,52,65,13
4,55,64,0
4,60,65,0
4,52,86,14
4,55,86,0
4,60,87,0
4,52,95,12
4,55,94,0
4,60,94,0
4,52,71,13
4,55,71,0
4,60,70,0
4,55,94,12
4,60,83,0
4,52,92,2
4,57,87,12
4,60,87,0
4,64,86,0
4,57,67,13
4,60,66,0
4,64,66,0
4,57,93,12
4,60,93,0
4,64,92,0
4,57,80,12
4,60,81,0
4,64,81,0
4,57,66,13
4,60,66,0
4,64,67,0
4,57,72,7
4,60,91,1
4,64,91,0
4,57,88,13
4,62,89,0
4,65,88,0
4,57,60,12
4,62,61,0
4,65,61,0
4,57,86,12
4,62,86,0
4,65,87,0
4,57,85,12
4,62,84,0
4,65,84,0
4,65,83,12
4,62,82,2
4,57,85,1
4,57,91,7
4,62,90,0
4,65,91,0
4,59,90,13
4,62,90,0
4,67,91,0
4,59,65,12
4,62,64,0
4,67,64,0
4,59,91,12
4,62,91,0
4,67,90,0
4,59,68,12
4,62,69,0
4,67,68,0
4,59,91,12
4,62,91,0
4,67,90,0
4,48,91,0
4,55,64,116
4,60,72,119
4,64,89,122
4,60,79,43
4,55,70,24
4,48,88,39
4,55,67,78
4,60,77,123
4,64,84,120
4,60,74,103
4,55,67,61
4,45,88,27
4,55,67,81
4,60,71,121
4,64,92,26
4,60,81,104
4,55,64,45
4,45,92,105
4,55,63,60
4,60,79,120
4,64,82,120
4,60,76,87
4,55,65,82
4,50,95,26
4,57,64,109
4,60,80,120
4,65,87,123
4,60,74,72
4,57,61,40
4,50,95,28
4,57,64,86
4,60,79,117
4,65,88,24
4,60,78,96
4,57,73,66
4,48,91,5
4,57,64,120
4,60,80,120
4,65,87,123
4,60,75,72
4,57,60,40
4,48,86,28
4,57,65,40
4,60,78,117
4,65,85,24
4,60,79,96
4,57,62,66
4,47,83,3
4,59,60,117
4,62,66,120
4,67,81,31
4,62,73,82
4,59,68,120
4,43,74,21
4,59,63,95
4,62,71,121
4,67,74,0
4,62,70,101
4,59,65,120
4,55,82,34
4,59,63,108
4,62,71,120
4,67,80,121
4,62,75,93
4,59,68,34
4,55,74,99
4,59,61,86
4,63,73,117
4,67,82,120
4,63,74,28
4,59,71,63
4,48,83,59
4,55,64,115
4,60,70,115
4,64,81,124
4,60,78,66
4,55,69,119
4,52,75,6
4,55,62,65
4,60,77,117
4,64,80,120
4,60,78,32
4,55,73,119
4,48,71,2
4,55,64,89
4,60,76,120
4,64,85,124
4,60,81,78
4,55,72,112
4,52,72,46
4,55,61,27
4,60,74,119
4,64,81,122
4,60,73,65
4,55,68,118
4,52,73,14
4,55,60,102
4,58,68,119
4,64,75,119
4,58,71,57
4,55,64,50
4,52,78,58
4,55,63,20
4,58,69,121
4,64,76,122
4,58,68,5
4,55,65,117
4,45,80,106
4,55,61,33
4,61,69,116
4,64,78,124
4,61,73,50
4,55,60,16
4,52,66,30
4,55,63,86
4,61,69,118
4,64,72,120
4,61,74,16
4,55,65,119
4,50,87,7
4,57,64,90
4,60,80,120
4,65,87,123
4,60,74,72
4,57,61,40
4,50,85,28
4,57,64,86
4,60,79,117
4,65,88,24
4,60,78,96
4,57,73,66
4,50,87,8
4,57,64,117
4,60,80,120
4,65,87,123
4,60,75,72
4,57,60,40
4,53,84,28
4,57,65,86
4,60,78,117
4,65,89,24
4,60,79,96
4,57,72,66
4,45,81,3
4,52,66,118
4,57,76,117
4,60,79,55
4,57,77,99
4,52,68,10
4,45,76,120
4,52,67,1
4,57,79,120
4,60,76,123
4,57,80,76
4,52,75,53
4,50,78,25
4,57,67,96
4,60,73,118
4,66,78,122
4,60,77,63
4,57,68,67
4,50,74,49
4,57,67,50
4,60,71,120
4,66,78,122
4,60,76,8
4,57,71,6
4,50,81,47
4,55,58,95
4,60,70,119
4,62,75,123
4,60,68,35
4,55,61,1
4,50,81,1
4,55,62,37
4,60,71,120
4,62,78,126
4,60,70,48
4,55,67,95
4,43,77,12
4,53,62,66
4,59,68,120
4,62,79,125
4,59,77,13
4,53,74,1
4,43,78,78
4,53,73,34
4,59,78,121
4,62,77,114
4,59,83,29
4,53,74,45
4,48,91,10
4,55,64,96
4,60,72,119
4,64,89,122
4,60,79,43
4,55,70,24
4,48,88,39
4,55,67,78
4,60,77,123
4,64,84,120
4,60,74,103
4,55,67,61
4,45,88,27
4,55,67,81
4,60,71,121
4,64,92,26
4,60,81,104
4,55,64,45
4,45,92,105
4,55,63,60
4,60,79,120
4,64,82,120
4,60,76,87
4,55,65,82
4,50,95,26
4,57,64,109
4,60,80,120
4,65,87,123
4,60,74,72
4,57,61,40
4,50,95,28
4,57,64,86
4,60,79,117
4,65,88,24
4,60,78,96
4,57,73,66
4,48,91,5
4,57,64,120
4,60,80,120
4,65,87,123
4,60,75,72
4,57,60,40
4,48,86,28
4,57,65,40
4,60,78,117
4,65,85,24
4,60,79,96
4,57,62,66
4,47,83,3
4,59,60,117
4,62,66,120
4,67,81,31
4,62,73,82
4,59,68,120
4,43,74,21
4,59,63,95
4,62,71,121
4,67,74,0
4,62,70,101
4,59,65,120
4,55,82,34
4,59,63,108
4,62,71,120
4,67,80,121
4,62,75,93
4,59,68,34
4,55,74,99
4,59,61,86
4,62,73,117
4,67,82,120
4,62,74,28
4,59,71,63
4,48,83,59
4,55,64,115
4,60,70,115
4,64,81,124
4,60,78,66
4,55,69,119
4,52,75,11
4,55,62,65
4,58,77,117
4,62,80,120
4,58,78,32
4,55,73,119
4,45,71,12
4,55,64,89
4,61,76,125
4,64,85,119
4,61,81,1
4,55,72,111
4,52,72,46
4,55,61,22
4,61,74,119
4,64,81,122
4,61,73,65
4,55,68,118
4,50,87,17
4,57,64,107
4,60,80,120
4,65,87,123
4,60,75,72
4,57,60,40
4,48,84,33
4,57,65,86
4,60,79,117
4,65,88,24
4,60,78,96
4,57,73,66
4,47,86,8
4,54,65,112
4,57,81,125
4,62,86,128
4,57,75,72
4,54,60,30
4,52,84,28
4,56,65,91
4,59,79,117
4,64,88,29
4,59,78,96
4,56,73,61
4,45,81,3
4,52,66,118
4,57,76,117
4,60,79,55
4,57,76,99
4,52,69,10
4,45,77,120
4,52,66,1
4,57,79,120
4,60,76,123
4,57,80,76
4,52,75,53
4,50,79,25
4,57,66,96
4,60,72,118
4,66,79,122
4,60,77,63
4,57,68,67
4,50,74,49
4,57,67,50
4,60,70,120
4,66,79,122
4,60,77,8
4,57,70,6
4,48,81,47
4,55,58,95
4,60,70,119
4,64,75,123
4,60,69,35
4,55,60,1
4,48,80,1
4,55,63,37
4,60,71,120
4,64,78,126
4,60,70,48
4,55,67,95
4,50,76,4
4,57,63,60
4,60,69,120
4,65,78,123
4,60,77,9
4,57,74,1
4,43,78,76
4,53,73,34
4,59,79,121
4,62,76,116
4,59,82,30
4,53,75,45
4,48,91,20
4,55,64,104
4,60,72,119
4,64,89,122
4,60,78,43
4,55,71,24
4,48,89,39
4,55,66,78
4,60,77,123
4,64,84,120
4,60,74,103
4,55,67,61
4,58,95,3
4,62,94,0
4,65,94,0
4,58,73,13
4,62,73,0
4,65,72,0
4,58,96,13
4,62,97,0
4,65,96,0
4,58,93,165
4,62,93,0
4,65,92,0
4,56,63,13
4,60,62,0
4,63,62,0
4,56,89,13
4,60,89,0
4,63,88,0
4,56,94,13
4,60,95,0
4,63,95,0
4,56,90,175
4,60,90,0
4,63,91,0
4,58,80,39
4,63,81,0
4,67,81,0
4,58,56,13
4,63,57,0
4,67,56,0
4,58,80,13
4,63,81,0
4,67,81,0
4,58,54,13
4,63,54,0
4,67,55,0
4,58,67,13
4,63,66,0
4,67,66,0
4,58,83,13
4,63,82,0
4,67,83,0
4,58,79,13
4,63,78,0
4,67,79,0
4,58,74,13
4,63,74,0
4,67,75,0
4,60,81,13
4,63,80,0
4,67,80,0
4,60,53,13
4,63,53,0
4,67,52,0
4,60,74,13
4,63,75,0
4,67,74,0
4,60,59,13
4,63,59,0
4,67,58,0
4,58,65,13
4,63,70,0
4,72,82,0
4,58,65,13
4,63,65,0
4,72,64,0
4,58,74,13
4,63,75,0
4,67,75,0
4,58,46,13
4,63,46,0
4,67,47,0
4,60,80,13
4,63,81,0
4,68,81,0
4,60,56,13
4,63,57,0
4,68,56,0
4,60,80,13
4,63,81,0
4,68,81,0
4,60,54,13
4,63,54,0
4,68,55,0
4,60,67,13
4,63,66,0
4,68,66,0
4,60,83,13
4,63,82,0
4,68,83,0
4,60,79,13
4,63,78,0
4,68,79,0
4,60,74,13
4,63,74,0
4,68,75,0
4,59,81,13
4,63,80,0
4,67,80,0
4,59,53,13
4,63,53,0
4,67,52,0
4,59,74,13
4,63,75,0
4,67,74,0
4,59,59,13
4,63,59,0
4,67,58,0
4,59,65,13
4,63,70,0
4,67,82,0
4,59,65,13
4,63,65,0
4,67,64,0
4,59,74,13
4,63,75,0
4,67,75,0
4,59,36,13
4,63,36,0
4,67,37,0
4,60,80,0
4,63,81,0
4,67,81,0
4,60,56,13
4,63,57,0
4,67,56,0
4,60,80,13
4,63,81,0
4,67,81,0
4,60,54,13
4,63,54,0
4,67,55,0
4,60,67,13
4,63,66,0
4,67,66,0
4,58,81,13
4,63,80,0
4,67,81,0
4,58,57,13
4,63,56,0
4,67,57,0
4,58,80,13
4,63,80,0
4,67,81,0
4,58,55,13
4,63,54,0
4,67,54,0
4,58,67,13
4,63,67,0
4,67,66,0
4,57,80,13
4,63,81,0
4,67,80,0
4,57,53,13
4,63,53,0
4,67,52,0
4,57,75,13
4,63,74,0
4,67,74,0
4,57,59,13
4,63,59,0
4,67,58,0
4,57,64,13
4,63,71,0
4,72,83,0
4,57,64,13
4,63,64,0
4,72,65,0
4,57,74,13
4,63,75,0
4,67,75,0
4,57,46,13
4,63,47,0
4,67,46,0
4,53,80,13
4,57,81,0
4,62,81,0
4,53,56,13
4,57,56,0
4,62,57,0
4,53,81,13
4,57,80,0
4,62,80,0
4,53,55,13
4,57,54,0
4,62,55,0
4,53,67,13
4,57,66,0
4,62,67,0
4,53,80,13
4,57,80,0
4,62,81,0
4,53,57,13
4,57,56,0
4,62,56,0
4,53,81,13
4,57,81,0
4,62,80,0
4,53,54,13
4,57,55,0
4,62,54,0
4,53,67,13
4,57,67,0
4,62,66,0
4,59,81,13
4,62,80,0
4,65,80,0
4,59,53,13
4,62,53,0
4,65,52,0
4,59,74,13
4,62,75,0
4,65,75,0
4,59,58,13
4,62,58,0
4,65,59,0
4,59,64,13
4,62,71,0
4,65,83,0
4,59,64,13
4,62,65,0
4,65,64,0
4,59,74,13
4,62,75,0
4,65,75,0
4,59,36,13
4,62,36,0
4,65,37,0
4,48,91,0
4,55,64,116
4,60,72,119
4,64,89,122
4,60,78,43
4,55,71,24
4,48,89,39
4,55,66,78
4,60,77,123
4,64,84,120
4,60,74,103
4,55,67,61
4,45,89,27
4,55,66,81
4,60,70,121
4,64,93,26
4,60,81,104
4,55,64,45
4,45,92,105
4,55,63,60
4,60,78,120
4,64,83,120
4,60,77,87
4,55,64,82
4,50,95,26
4,57,64,109
4,60,80,120
4,65,87,123
4,60,75,72
4,57,60,40
4,50,94,28
4,57,65,86
4,60,79,117
4,65,88,24
4,60,78,96
4,57,73,66
4,48,90,5
4,57,65,120
4,60,81,120
4,65,86,123
4,60,75,72
4,57,60,40
4,48,86,28
4,57,65,40
4,60,79,117
4,65,84,24
4,60,78,96
4,57,63,66
4,47,83,3
