track,note,velocity,time
0,53,99,1914
0,36,63,0
0,64,78,0
0,72,66,0
0,69,121,10
0,53,0,10
0,69,0,5
0,67,53,215
0,64,0,35
0,72,0,25
0,64,82,180
0,72,64,0
0,69,86,10
0,42,107,0
0,42,0,20
0,69,0,0
0,67,0,80
0,67,57,130
0,64,0,35
0,72,0,20
0,69,109,185
0,42,107,0
0,64,82,0
0,72,68,0
0,42,0,30
0,69,0,0
0,67,0,75
0,67,58,135
0,72,0,85
0,64,0,20
0,69,73,135
0,42,111,0
0,64,82,0
0,72,59,0
0,42,0,30
0,69,0,5
0,67,0,70
0,67,57,135
0,64,0,35
0,72,0,55
0,36,0,135
0,72,66,10
0,64,85,0
0,69,121,5
0,53,99,0
0,48,70,5
0,53,0,20
0,69,0,5
0,67,0,70
0,67,55,135
0,64,0,55
0,72,0,15
0,64,89,170
0,72,64,0
0,69,86,5
0,42,107,0
0,42,0,20
0,69,0,5
0,67,0,35
0,67,78,175
0,64,0,110
0,72,0,20
0,69,109,110
0,42,107,0
0,72,74,0
0,64,85,0
0,42,0,35
0,69,0,0
0,67,0,25
0,67,39,175
0,64,0,50
0,72,0,10
0,69,73,180
0,42,111,0
0,64,66,0
0,72,60,0
0,42,0,30
0,69,0,0
0,67,0,85
0,64,0,120
0,67,58,5
0,72,0,60
0,48,0,120
0,67,0,15
0,48,102,0
0,67,82,0
0,72,80,0
0,64,78,0
0,53,99,5
0,69,121,5
0,53,0,25
0,69,0,5
0,64,0,110
0,64,72,90
0,67,0,85
0,72,0,5
0,67,85,150
0,72,82,0
0,69,86,5
0,42,107,0
0,42,0,25
0,69,0,0
0,64,0,90
0,64,80,120
0,67,0,75
0,72,0,30
0,48,0,100
0,67,82,35
0,72,85,0
0,50,104,10
0,42,107,0
0,69,109,5
0,43,122,0
0,42,0,10
0,50,0,5
0,69,0,0
0,35,96,95
0,45,89,0
0,43,0,5
0,35,0,15
0,64,0,0
0,45,0,80
0,48,105,15
0,64,93,0
0,47,63,5
0,47,0,20
0,67,0,20
0,48,0,70
0,47,93,10
0,38,93,0
0,47,0,20
0,72,0,25
0,38,0,55
0,40,89,15
0,67,105,0
0,72,100,0
0,42,111,5
0,35,108,0
0,69,73,5
0,35,0,25
0,42,0,5
0,69,0,0
0,35,112,90
0,43,52,0
0,64,0,10
0,35,0,10
0,43,0,60
0,40,0,5
0,67,77,10
0,67,77,0
0,64,95,15
0,43,104,5
0,43,107,5
0,43,0,20
0,43,111,100
0,43,57,0
0,43,0,25
0,67,0,25
0,67,0,0
0,43,0,15
0,43,0,15
0,64,0,15
0,76,50,0
0,72,0,10
0,67,0,0
0,76,79,0
0,76,79,0
0,76,0,5
0,64,91,0
0,72,80,0
0,76,50,0
0,69,121,0
0,53,99,0
0,35,108,0
0,48,113,0
0,35,0,5
0,53,0,5
0,69,0,5
0,67,80,205
0,54,43,10
0,54,0,15
0,64,0,55
0,72,0,0
0,54,62,40
0,54,0,20
0,75,126,100
0,69,75,0
0,42,96,0
0,72,63,0
0,64,93,0
0,42,0,30
0,69,0,0
0,75,0,5
0,67,0,75
0,75,95,10
0,75,0,25
0,75,65,95
0,67,76,0
0,75,0,25
0,64,0,60
0,72,0,0
0,36,57,35
0,75,27,10
0,35,97,0
0,35,0,20
0,75,0,5
0,36,0,0
0,79,54,65
0,36,93,10
0,42,91,10
0,35,108,0
0,64,78,0
0,72,64,0
0,69,87,10
0,76,0,5
0,35,0,15
0,42,0,0
0,69,0,5
0,54,88,95
0,54,0,1
0,67,0,9
0,76,0,60
0,76,0,0
0,67,75,20
0,67,75,0
0,67,78,20
0,69,81,10
0,69,0,20
0,72,0,30
0,35,106,60
0,72,60,0
0,35,0,30
0,67,0,35
0,67,0,0
0,76,74,40
0,76,74,0
0,40,123,15
0,67,102,0
0,42,100,10
0,69,73,0
0,69,0,25
0,40,0,0
0,67,0,0
0,42,0,0
0,69,76,85
0,67,80,0
0,69,0,30
0,72,0,10
0,64,0,30
0,76,0,5
0,76,0,0
0,74,75,30
0,74,75,0
0,69,83,15
0,64,66,0
0,67,0,20
0,69,0,10
0,72,61,90
0,35,104,10
0,35,0,20
0,64,0,20
0,67,0,5
0,74,0,5
0,74,0,0
0,48,0,10
0,72,0,0
0,36,0,0
0,79,0,0
0,28,93,0
0,40,113,0
0,64,61,0
0,40,0,10
0,64,0,5
0,76,79,10
0,76,79,0
0,28,0,15
0,67,91,10
0,64,80,0
0,79,50,0
0,69,121,10
0,53,99,0
0,35,108,0
0,40,113,10
0,35,0,5
0,53,0,5
0,69,0,5
0,71,80,205
0,54,43,10
0,54,0,15
0,67,0,55
0,64,0,0
0,54,62,40
0,54,0,20
0,75,126,100
0,69,75,0
0,42,96,0
0,64,63,0
0,67,93,0
0,42,0,30
0,69,0,0
0,75,0,5
0,71,0,75
0,75,95,10
0,75,0,25
0,75,65,95
0,71,76,0
0,75,0,25
0,67,0,60
0,64,0,0
0,28,57,35
0,75,27,10
0,35,97,0
0,35,0,20
0,75,0,5
0,28,0,0
0,83,54,65
0,28,93,10
0,42,91,10
0,35,108,0
0,67,78,0
0,64,64,0
0,69,87,10
0,79,0,5
0,35,0,15
0,42,0,0
0,69,0,5
0,54,88,95
0,54,0,1
0,71,0,9
0,76,0,85
0,76,0,0
0,67,74,15
0,67,74,0
0,71,78,0
0,69,81,10
0,69,0,20
0,64,0,30
0,35,106,60
0,64,60,0
0,35,0,30
0,67,0,65
0,67,0,0
0,40,123,25
0,71,102,0
0,76,75,10
0,76,75,0
0,42,100,0
0,69,73,0
0,69,0,25
0,40,0,0
0,42,0,0
0,71,0,0
0,69,76,85
0,71,80,0
0,69,0,30
0,64,0,10
0,67,0,30
0,76,0,25
0,76,0,0
0,74,74,20
0,74,74,0
0,69,83,5
0,67,66,0
0,71,0,20
0,69,0,10
0,64,61,90
0,35,104,10
0,35,0,20
0,67,0,20
0,71,0,5
0,74,0,10
0,74,0,0
0,40,0,15
0,64,0,5
0,83,0,25
0,28,0,0
0,76,78,5
0,76,78,0
0,70,91,5
0,67,80,0
0,82,50,0
0,69,121,10
0,53,99,0
0,35,108,0
0,67,0,5
0,70,0,0
0,70,91,0
0,67,80,0
0,43,113,5
0,35,0,5
0,53,0,5
0,69,0,5
0,62,80,205
0,54,43,10
0,54,0,15
0,67,0,55
0,70,0,0
0,54,62,40
0,54,0,20
0,75,126,100
0,69,75,0
0,42,96,0
0,67,63,0
0,70,93,0
0,42,0,30
0,69,0,0
0,75,0,5
0,62,0,75
0,75,95,10
0,75,0,25
0,75,65,95
0,62,76,0
0,75,0,25
0,70,0,60
0,67,0,0
0,31,57,35
0,75,27,10
0,35,97,0
0,35,0,20
0,75,0,5
0,31,0,0
0,86,54,65
0,31,93,10
0,42,91,10
0,35,108,0
0,70,78,0
0,67,64,0
0,69,87,10
0,82,0,5
0,35,0,15
0,42,0,0
0,69,0,5
0,54,88,95
0,54,0,1
0,62,0,9
0,76,0,80
0,76,0,0
0,74,75,15
0,74,75,0
0,62,78,5
0,69,81,10
0,69,0,20
0,67,0,30
0,35,106,60
0,67,60,0
0,35,0,30
0,74,0,60
0,74,0,0
0,40,123,30
0,62,102,0
0,76,59,5
0,76,59,0
0,42,100,5
0,69,73,0
0,69,0,25
0,40,0,0
0,42,0,0
0,62,0,0
0,69,76,85
0,62,80,0
0,69,0,30
0,67,0,10
0,70,0,30
0,76,0,10
0,76,0,0
0,74,72,20
0,74,72,0
0,69,83,20
0,70,66,0
0,62,0,20
0,69,0,10
0,67,61,90
0,35,104,10
0,35,0,20
0,70,0,20
0,62,0,5
0,43,0,25
0,67,0,5
0,74,0,10
0,74,0,0
0,86,0,15
0,31,0,0
0,70,91,10
0,67,80,0
0,67,0,5
0,70,0,0
0,61,91,0
0,69,80,0
0,73,50,0
0,69,121,5
0,53,99,0
0,35,108,0
0,35,0,5
0,69,0,0
0,69,0,0
0,61,0,0
0,53,0,0
0,74,79,0
0,74,79,0
0,61,91,0
0,69,80,0
0,61,91,0
0,69,80,0
0,69,0,1
0,61,0,0
0,45,113,4
0,74,0,140
0,74,0,0
0,73,83,50
0,73,83,0
0,64,80,30
0,54,43,10
0,54,0,15
0,69,0,55
0,61,0,0
0,54,62,40
0,54,0,20
0,75,126,100
0,69,75,0
0,42,96,0
0,69,63,0
0,61,93,0
0,42,0,30
0,69,0,0
0,75,0,5
0,64,0,75
0,75,95,10
0,75,0,25
0,75,65,95
0,64,76,0
0,75,0,25
0,61,0,60
0,69,0,0
0,33,57,35
0,75,27,10
0,35,97,0
0,35,0,20
0,75,0,5
0,33,0,0
0,76,54,65
0,33,93,10
0,42,91,10
0,35,108,0
0,61,78,0
0,69,64,0
0,69,87,10
0,73,0,5
0,35,0,15
0,42,0,0
0,69,0,5
0,54,88,95
0,54,0,1
0,64,0,9
0,64,78,100
0,69,81,10
0,73,0,10
0,73,0,0
0,69,0,10
0,69,0,30
0,35,106,60
0,69,60,0
0,35,0,30
0,40,123,90
0,64,102,0
0,64,0,10
0,40,0,0
0,61,0,0
0,64,0,0
0,76,0,0
0,45,0,0
0,33,0,0
0,42,100,0
0,69,73,0
0,38,93,0
0,38,113,0
0,69,78,0
0,62,60,0
0,65,78,0
0,69,102,0
0,81,54,0
0,69,0,1
0,69,0,0
0,42,0,0
0,65,0,9
0,62,0,0
0,38,0,0
0,38,0,0
0,69,0,0
0,38,93,0
0,38,113,0
0,69,78,0
0,62,60,0
0,65,78,0
0,69,102,0
0,69,0,1
0,69,0,14
0,69,76,85
0,69,80,0
0,69,0,30
0,62,0,10
0,65,0,30
0,69,83,50
0,65,66,0
0,69,75,15
0,69,75,0
0,69,0,5
0,69,0,10
0,62,61,90
0,35,104,10
0,35,0,20
0,65,0,20
0,69,0,5
0,38,0,25
0,69,0,5
0,62,0,0
0,69,0,0
0,81,0,25
0,38,0,0
0,65,91,0
0,62,80,0
0,77,50,0
0,69,121,0
0,53,99,0
0,35,108,0
0,77,78,5
0,77,78,0
0,38,113,0
0,35,0,5
0,53,0,5
0,69,0,5
0,69,80,205
0,54,43,10
0,54,0,15
0,65,0,55
0,62,0,0
0,54,62,40
0,54,0,20
0,75,126,100
0,69,75,0
0,42,96,0
0,62,63,0
0,65,93,0
0,42,0,30
0,69,0,0
0,75,0,5
0,69,0,75
0,75,95,10
0,75,0,25
0,75,65,95
0,69,76,0
0,75,0,25
0,65,0,60
0,62,0,0
0,38,57,35
0,75,27,10
0,35,97,0
0,35,0,20
0,75,0,5
0,38,0,0
0,81,54,65
0,38,93,10
0,42,91,10
0,35,108,0
0,65,78,0
0,62,64,0
0,69,87,10
0,77,0,5
0,35,0,15
0,42,0,0
0,69,0,5
0,54,88,95
0,54,0,1
0,69,0,9
0,77,0,85
0,77,0,0
0,69,78,15
0,69,81,10
0,69,72,5
0,69,72,0
0,69,0,15
0,62,0,30
0,35,106,60
0,62,60,0
0,35,0,30
0,69,0,60
0,69,0,0
0,40,123,30
0,69,102,0
0,42,100,10
0,69,73,0
0,69,0,5
0,69,0,0
0,62,0,0
0,65,0,0
0,77,78,0
0,77,78,0
0,69,78,0
0,62,60,0
0,65,78,0
0,69,102,0
0,69,0,20
0,42,0,0
0,69,0,0
0,40,0,0
0,69,76,85
0,69,80,0
0,69,0,30
0,62,0,10
0,65,0,30
0,77,0,5
0,77,0,0
0,69,83,45
0,65,66,0
0,76,78,15
0,76,78,0
0,69,0,5
0,69,0,10
0,62,61,90
0,35,104,10
0,35,0,20
0,65,0,20
0,69,0,5
0,38,0,25
0,62,0,5
0,76,0,5
0,76,0,0
0,38,0,20
0,81,0,0
0,65,91,10
0,62,80,0
0,77,50,0
0,69,121,10
0,53,99,0
0,35,108,0
0,77,79,5
0,77,79,0
0,38,113,5
0,35,0,5
0,53,0,5
0,69,0,5
0,69,80,205
0,54,43,10
0,54,0,15
0,65,0,55
0,62,0,0
0,54,62,40
0,54,0,20
0,75,126,100
0,69,75,0
0,42,96,0
0,62,63,0
0,65,93,0
0,42,0,30
0,69,0,0
0,75,0,5
0,69,0,75
0,75,95,10
0,75,0,25
0,75,65,95
0,69,76,0
0,75,0,25
0,65,0,60
0,62,0,0
0,38,57,35
0,75,27,10
0,35,97,0
0,35,0,20
0,75,0,5
0,38,0,0
0,81,54,65
0,38,93,10
0,42,91,10
0,35,108,0
0,65,78,0
0,62,64,0
0,69,87,10
0,77,0,5
0,35,0,15
0,42,0,0
0,69,0,5
0,54,88,95
0,54,0,1
0,69,0,9
0,69,78,100
0,77,0,5
0,77,0,0
0,69,81,5
0,69,74,5
0,69,74,0
0,69,0,15
0,62,0,30
0,35,106,60
0,62,60,0
0,35,0,30
0,69,0,60
0,69,0,0
0,81,0,30
0,65,0,0
0,38,0,0
0,69,0,0
0,38,0,0
0,40,123,0
0,31,93,0
0,43,113,0
0,69,102,0
0,62,78,0
0,67,60,0
0,71,78,0
0,62,102,0
0,86,54,0
0,69,0,1
0,40,0,0
0,62,0,0
0,42,100,9
0,69,73,0
0,69,0,1
0,42,0,0
0,71,0,4
0,62,0,0
0,67,0,0
0,77,73,0
0,77,73,0
0,62,78,0
0,67,60,0
0,71,78,0
0,62,102,0
0,62,0,1
0,62,0,19
0,69,76,85
0,62,80,0
0,69,0,30
0,67,0,10
0,71,0,30
0,77,0,10
0,77,0,0
0,69,83,40
0,71,66,0
0,76,77,15
0,76,77,0
0,62,0,5
0,69,0,10
0,67,61,90
0,35,104,10
0,35,0,20
0,71,0,20
0,62,0,5
0,43,0,25
0,67,0,5
0,76,0,5
0,76,0,0
0,31,0,20
0,86,0,0
0,71,91,10
0,67,80,0
0,83,50,0
0,69,121,10
0,53,99,0
0,35,108,0
0,77,77,5
0,77,77,0
0,43,113,5
0,35,0,5
0,53,0,5
0,69,0,5
0,62,80,205
0,54,43,10
0,54,0,15
0,71,0,55
0,67,0,0
0,54,62,40
0,54,0,20
0,75,126,100
0,69,75,0
0,42,96,0
0,67,63,0
0,71,93,0
0,42,0,30
0,69,0,0
0,75,0,5
0,62,0,75
0,75,95,10
0,75,0,25
0,79,72,65
0,79,72,0
0,75,65,30
0,62,76,0
0,75,0,25
0,71,0,60
0,67,0,0
0,31,57,35
0,75,27,10
0,35,97,0
0,35,0,20
0,75,0,5
0,31,0,0
0,79,0,15
0,79,0,0
0,79,74,50
0,79,74,0
0,86,54,0
0,31,93,10
0,42,91,10
0,35,108,0
0,71,78,0
0,67,64,0
0,69,87,10
0,83,0,5
0,35,0,15
0,42,0,0
0,69,0,5
0,54,88,95
0,54,0,1
0,62,0,9
0,79,0,40
0,79,0,0
0,77,0,15
0,77,0,0
0,74,59,25
0,74,59,0
0,62,78,20
0,69,81,10
0,69,0,20
0,67,0,30
0,35,106,60
0,67,60,0
0,35,0,30
0,74,0,15
0,74,0,0
0,77,77,30
0,77,77,0
0,43,0,15
0,31,0,0
0,62,0,0
0,86,0,0
0,71,0,0
0,36,93,0
0,48,113,0
0,67,78,0
0,72,60,0
0,64,78,0
0,79,54,0
0,67,0,1
0,40,123,29
0,67,102,0
0,42,100,10
0,69,73,0
0,69,0,25
0,40,0,0
0,67,0,0
0,42,0,0
0,77,0,15
0,77,0,0
0,69,76,70
0,67,80,0
0,76,74,15
0,76,74,0
0,69,0,15
0,72,0,10
0,64,0,30
0,69,83,50
0,64,66,0
0,67,0,20
0,69,0,10
0,72,61,90
0,35,104,10
0,35,0,20
0,64,0,20
0,67,0,5
0,48,0,25
0,72,0,5
0,79,0,25
0,36,0,0
0,64,91,10
0,72,80,0
0,76,50,0
0,69,121,10
0,53,99,0
0,35,108,0
0,48,113,10
0,35,0,5
0,53,0,5
0,69,0,5
0,67,80,205
0,54,43,10
0,54,0,15
0,64,0,55
0,72,0,0
0,54,62,40
0,54,0,20
0,75,126,100
0,69,75,0
0,42,96,0
0,72,63,0
0,64,93,0
0,42,0,30
0,69,0,0
0,75,0,5
0,67,0,75
0,75,95,10
0,75,0,25
