track,note,velocity,time
1,40,110,9213
1,40,106,28
1,40,104,261
1,40,107,53
1,40,110,32
1,40,106,240
1,40,110,49
1,40,110,31
1,40,100,276
1,40,110,48
1,40,102,47
1,40,110,245
1,36,101,40
1,36,110,28
1,36,110,304
1,36,110,61
1,36,110,0
1,36,105,293
1,36,103,57
1,36,110,25
1,36,110,304
1,36,103,37
1,36,110,36
1,38,101,64
1,40,110,52
1,43,104,56
1,40,101,68
1,40,110,29
1,40,110,276
1,40,110,40
1,40,110,40
1,40,110,256
1,40,102,44
1,40,103,29
1,40,110,256
1,40,109,40
1,40,110,64
1,40,110,268
1,36,110,40
1,36,110,49
1,36,101,296
1,36,110,56
1,36,110,44
1,36,102,281
1,36,110,57
1,36,110,43
1,36,105,280
1,36,104,54
1,36,105,15
1,36,100,288
1,40,110,4
1,40,110,61
1,40,110,254
1,40,107,30
1,40,110,44
1,40,107,276
1,40,108,47
1,40,110,36
1,40,110,280
1,40,108,40
1,40,107,12
1,40,110,265
1,36,110,31
1,36,110,44
1,36,103,237
1,36,110,52
1,36,110,7
1,36,108,289
1,36,106,52
1,36,110,39
1,36,110,292
1,36,106,54
1,36,110,24
1,36,100,298
1,45,110,4
1,45,106,73
1,40,101,108
1,43,110,31
1,45,110,28
1,45,110,132
1,45,110,228
1,43,110,127
1,43,110,85
1,38,110,79
1,40,110,15
1,43,108,28
1,43,110,129
1,43,110,216
1,45,110,34
1,45,110,82
1,40,110,101
1,43,110,29
1,45,104,32
1,45,110,130
1,45,110,222
1,43,110,16
1,43,110,84
1,38,110,94
1,40,110,21
1,43,103,24
1,43,110,123
1,43,110,195
1,36,110,37
1,36,110,49
1,36,105,242
1,36,103,53
1,36,110,64
1,36,107,237
1,38,110,127
1,38,110,45
1,38,110,255
1,38,110,31
1,38,101,57
1,38,106,245
1,40,106,21
1,40,103,27
1,40,110,277
1,40,105,40
1,40,107,39
1,40,110,258
1,40,110,44
1,40,110,27
1,40,110,253
1,40,110,39
1,40,110,63
1,40,110,268
1,36,110,40
1,36,108,49
1,36,109,295
1,36,110,57
1,36,109,45
1,36,110,279
1,36,101,55
1,36,110,45
1,36,110,280
1,36,106,51
1,36,109,17
1,36,102,288
1,40,110,3
1,40,105,59
1,40,110,256
1,40,110,30
1,40,105,44
1,40,100,275
1,40,110,46
1,40,110,37
1,40,101,281
1,40,107,41
1,40,110,11
1,40,100,265
1,36,106,33
1,36,107,45
1,36,110,235
1,36,110,54
1,36,109,9
1,36,110,288
1,36,101,51
1,36,110,40
1,36,110,292
1,36,110,53
1,36,110,23
1,36,109,300
1,45,108,3
1,45,110,73
1,40,110,109
1,43,103,33
1,45,110,28
1,45,110,131
1,45,110,229
1,43,110,127
1,43,110,82
1,38,100,80
1,40,110,17
1,43,105,27
1,43,110,128
1,43,100,217
1,45,110,33
1,45,110,84
1,40,105,100
1,43,107,27
1,45,110,33
1,45,110,132
1,45,110,220
1,43,101,16
1,43,110,85
1,38,107,96
1,40,110,19
1,43,100,23
1,43,101,125
1,43,106,195
1,36,110,37
1,36,109,48
1,36,102,245
1,36,110,52
1,36,110,63
1,36,110,236
1,38,110,0
1,38,110,43
1,39,110,258
1,39,110,33
1,39,110,55
1,38,110,244
1,40,103,20
1,40,110,27
1,40,110,276
1,40,110,41
1,40,101,40
1,40,110,256
1,40,110,44
1,40,104,27
1,40,110,250
1,40,104,39
1,40,108,64
1,40,105,267
1,36,107,40
1,36,110,18
1,36,110,240
1,36,110,15
1,36,106,46
1,36,102,246
1,38,110,61
1,38,110,27
1,38,110,237
1,38,110,46
1,38,100,0
1,38,110,237
1,40,110,45
1,40,105,44
1,40,110,237
1,40,104,12
1,40,107,24
1,40,110,223
1,40,100,2
1,40,105,33
1,40,110,236
1,40,106,12
1,40,110,219
1,36,105,23
1,36,110,33
1,36,110,253
1,36,106,40
1,36,105,0
1,36,110,228
1,37,110,36
1,37,105,11
1,37,110,233
1,37,109,39
1,37,104,30
1,37,110,249
1,38,110,128
1,38,107,101
1,38,102,238
1,38,104,40
1,38,103,112
1,38,110,210
1,35,110,21
1,40,108,1290
1,40,110,2684
1,38,110,4216
1,38,110,34
1,38,105,47
1,38,110,33
1,38,110,37
1,38,110,21
1,38,110,52
1,38,110,21
1,38,104,43
1,38,110,19
1,38,101,36
1,38,110,33
1,40,110,20
1,40,109,27
1,40,106,275
1,40,103,41
1,40,110,40
1,40,110,258
1,40,110,45
1,40,110,28
1,40,110,253
1,40,110,41
1,40,110,65
1,40,110,267
1,36,110,40
1,36,110,48
1,36,107,296
1,36,110,55
1,36,110,44
1,36,100,279
1,36,110,54
1,36,110,45
1,36,100,279
1,36,110,52
1,36,104,15
1,36,110,289
1,40,105,3
1,40,110,60
1,40,110,257
1,40,100,32
1,40,110,44
1,40,110,276
1,40,110,46
1,40,110,37
1,40,110,281
1,40,110,41
1,40,110,12
1,40,110,264
1,36,110,33
1,36,102,46
1,36,104,237
1,36,102,52
1,36,110,9
1,36,110,288
1,47,110,309
1,45,103,255
1,43,110,240
1,40,110,0
1,38,110,36
1,40,110,48
1,40,110,924
1,40,110,149
1,40,101,27
1,40,107,276
1,40,110,41
1,40,110,39
1,40,110,256
1,40,110,44
1,40,106,27
1,40,106,254
1,40,102,40
1,40,105,63
1,40,110,268
1,36,103,40
1,36,101,48
1,36,110,295
1,36,107,55
1,36,107,44
1,36,108,279
1,36,110,55
1,36,110,43
1,36,110,279
1,36,105,50
1,36,103,16
1,36,110,289
1,40,110,4
1,40,110,61
1,40,107,257
1,40,110,33
1,40,107,44
1,40,110,276
1,40,110,45
1,40,110,37
1,40,110,280
1,40,110,41
1,40,110,12
1,40,102,266
1,36,106,30
1,36,106,44
1,36,110,237
1,36,110,51
1,36,110,7
1,36,110,288
1,36,107,51
1,36,100,40
1,36,104,292
1,36,110,51
1,36,110,23
1,36,107,301
1,45,110,5
1,45,110,70
1,40,104,109
1,43,102,32
1,45,110,28
1,45,110,131
1,45,100,229
1,43,110,128
1,43,110,85
1,38,100,79
1,40,107,15
1,43,101,29
1,43,110,128
1,43,110,215
1,45,110,30
1,45,110,85
1,40,110,101
1,43,106,27
1,45,110,30
1,45,110,133
1,45,110,221
1,43,108,16
1,43,110,84
1,38,110,97
1,40,106,21
1,43,110,24
1,43,106,124
1,43,110,197
1,36,102,36
1,36,110,49
1,36,110,245
1,36,110,52
1,36,110,63
1,36,110,237
1,38,110,0
1,38,110,45
1,38,110,255
1,39,110,33
1,39,110,57
1,39,110,243
1,40,110,19
1,40,110,29
1,40,105,277
1,40,110,40
1,40,103,40
1,40,110,255
1,45,104,43
1,45,110,73
1,40,103,108
1,43,110,33
1,45,110,28
1,45,110,132
1,45,110,228
1,43,110,127
1,43,110,83
1,38,110,81
1,40,110,17
1,43,110,29
1,43,102,128
1,43,110,218
1,45,110,33
1,45,110,84
1,40,106,99
1,43,110,29
1,45,110,33
1,45,110,132
1,45,110,220
1,43,101,17
1,43,110,86
1,38,110,96
1,40,110,19
1,43,110,24
1,43,110,124
1,43,100,195
1,36,110,36
1,36,105,49
1,36,109,244
1,36,110,52
1,36,110,64
1,36,110,237
1,38,110,0
1,38,110,42
1,38,100,258
1,38,100,32
1,38,100,56
1,38,110,245
1,40,100,21
1,40,102,28
1,40,110,277
1,40,110,41
1,40,110,39
1,40,106,256
1,40,110,44
1,40,110,28
1,40,110,250
1,40,110,39
1,40,110,64
1,40,100,267
1,36,102,40
1,36,110,47
1,36,110,245
1,36,102,53
1,36,100,65
1,36,110,237
1,38,104,0
1,38,110,44
1,38,110,257
1,38,110,32
1,38,110,55
1,38,110,246
1,40,108,21
1,40,110,28
1,40,110,276
1,40,110,42
1,40,103,40
1,40,110,256
1,40,108,43
1,40,110,28
1,40,110,250
1,40,110,41
1,40,110,64
1,40,110,267
1,36,110,39
1,36,101,48
1,36,102,244
1,36,110,52
1,36,107,66
1,36,100,236
1,38,110,0
1,38,110,44
1,38,103,256
1,38,110,32
1,38,110,54
1,38,100,246
1,40,110,21
1,40,110,27
1,40,110,275
1,40,110,40
1,40,103,40
1,40,110,257
1,40,110,45
1,40,110,28
1,40,110,250
1,40,110,42
1,40,104,63
1,40,105,268
1,36,103,40
1,36,110,48
1,36,110,243
1,36,110,53
1,36,110,64
1,36,107,236
1,38,110,2
1,38,108,44
1,38,110,255
1,38,106,31
1,38,110,55
1,38,102,246
1,40,110,20
1,40,110,732
2,79,115,3455
2,64,115,0
2,81,115,164
2,66,115,0
2,78,115,172
2,62,115,0
2,79,115,185
2,64,115,0
2,79,115,88
2,64,115,0
2,79,115,432
2,64,115,0
2,81,115,181
2,66,115,0
2,78,115,164
2,62,115,0
2,78,115,51
2,62,115,0
2,79,115,46
2,64,115,0
2,62,115,15
2,78,115,2
2,79,115,9
2,64,115,0
2,76,115,428
2,60,115,0
2,78,115,178
2,62,115,0
2,74,115,168
2,59,115,0
2,76,115,171
2,60,115,0
2,76,115,66
2,60,115,0
2,76,115,407
2,60,115,0
2,78,115,177
2,62,115,0
2,74,115,144
2,59,115,0
2,74,115,49
2,59,115,0
2,76,115,36
2,60,115,0
2,74,115,28
2,59,115,0
2,76,115,127
2,60,115,0
2,79,115,425
2,64,115,0
2,66,115,173
2,81,115,2
2,78,115,173
2,62,115,0
2,79,115,172
2,64,115,0
2,79,115,63
2,64,115,0
2,79,115,434
2,64,115,0
2,81,115,172
2,66,115,0
2,78,115,152
2,62,115,0
2,62,115,44
2,78,115,1
2,79,115,47
2,64,115,0
2,78,115,5
2,62,115,0
2,79,115,0
2,64,115,0
2,76,115,423
2,60,115,0
2,78,115,173
2,62,115,0
2,74,115,167
2,59,115,0
2,76,115,168
2,60,115,0
2,76,115,78
2,60,115,0
2,76,115,407
2,60,115,0
2,78,115,173
2,62,115,0
2,74,115,140
2,59,115,0
2,74,115,53
2,59,115,0
2,76,115,24
2,60,115,0
2,74,115,12
2,59,115,0
2,76,115,0
2,60,115,0
2,79,88,412
2,64,88,0
2,66,88,165
2,81,88,2
2,78,88,171
2,62,88,0
2,79,88,185
2,64,88,0
2,79,88,88
2,64,88,0
2,79,88,434
2,64,88,0
2,81,88,182
2,66,88,0
2,78,88,164
2,62,88,0
2,62,88,52
2,78,88,2
2,79,88,50
2,64,88,0
2,78,88,18
2,62,88,0
2,79,88,9
2,64,88,0
2,76,88,429
2,60,88,0
2,78,88,175
2,62,88,0
2,74,88,167
2,59,88,0
2,76,88,172
2,60,88,0
2,76,88,64
2,60,88,0
2,76,88,408
2,60,88,0
2,78,88,176
2,62,88,0
2,74,88,144
2,59,88,0
2,74,88,48
2,59,88,0
2,76,88,36
2,60,88,0
2,74,88,28
2,59,88,0
2,76,88,0
2,60,88,0
2,79,88,425
2,64,88,0
2,81,88,172
2,66,88,0
2,78,88,173
2,62,88,0
2,79,88,172
2,64,88,0
2,64,88,64
2,79,88,2
2,79,88,432
2,64,88,0
2,81,88,173
2,66,88,0
2,78,88,153
2,62,88,0
2,78,88,45
2,62,88,0
2,79,88,49
2,64,88,0
2,78,88,5
2,62,88,0
2,79,88,0
2,64,88,0
2,76,88,423
2,60,88,0
2,78,88,173
2,62,88,0
2,74,88,167
2,59,88,0
2,76,88,167
2,60,88,0
2,76,88,76
2,60,88,0
2,76,88,406
2,60,88,0
2,78,88,173
2,62,88,0
2,74,88,140
2,59,88,0
2,74,88,51
2,59,88,0
2,76,88,24
2,60,88,0
2,74,88,12
2,59,88,0
2,76,88,0
2,60,88,0
2,79,88,9628
2,64,88,0
2,81,88,164
2,66,88,0
2,78,88,173
2,62,88,0
2,64,88,183
2,79,88,2
2,79,88,88
2,64,88,0
2,79,88,430
2,64,88,0
2,81,88,182
2,66,88,0
2,78,88,163
2,62,88,0
2,78,88,51
2,62,88,0
2,79,88,49
2,64,88,0
2,78,88,15
2,62,88,0
2,79,88,8
2,64,88,0
2,76,88,428
2,60,88,0
2,78,88,177
2,62,88,0
2,74,88,170
2,59,88,0
2,76,88,173
2,60,88,0
2,60,88,63
2,76,88,2
2,76,88,410
2,60,88,0
2,78,88,176
2,62,88,0
2,74,88,143
2,59,88,0
2,74,88,49
2,59,88,0
2,76,88,37
2,60,88,0
2,74,88,28
2,59,88,0
2,76,88,127
2,60,88,0
2,79,88,425
2,64,88,0
2,81,88,173
2,66,88,0
2,78,88,172
2,62,88,0
2,79,88,172
2,64,88,0
2,79,88,64
2,64,88,0
2,79,88,431
2,64,88,0
2,81,88,173
2,66,88,0
2,78,88,152
2,62,88,0
2,78,88,43
2,62,88,0
2,79,88,48
2,64,88,0
2,78,88,4
2,62,88,0
2,79,88,18
2,64,88,0
2,76,88,424
2,60,88,0
2,62,88,170
2,78,88,2
2,74,88,170
2,59,88,0
2,76,88,166
2,60,88,0
2,60,88,76
2,76,88,1
2,76,88,408
2,60,88,0
2,78,88,171
2,62,88,0
2,74,88,141
2,59,88,0
2,74,88,52
2,59,88,0
2,76,88,24
2,60,88,0
2,74,88,12
2,59,88,0
2,76,88,8
2,60,88,0
2,79,88,9627
2,64,88,0
2,81,88,166
2,66,88,0
2,78,88,173
2,62,88,0
2,79,88,184
2,64,88,0
2,64,88,89
2,79,88,1
2,79,88,431
2,64,88,0
2,81,88,179
2,66,88,0
2,78,88,163
2,62,88,0
2,78,88,52
2,62,88,0
2,79,88,48
2,64,88,0
2,78,88,15
2,62,88,0
2,64,88,8
2,79,88,1
2,79,88,21933
2,64,88,0
2,81,88,163
2,66,88,0
2,78,88,173
2,62,88,0
2,79,88,183
2,64,88,0
2,79,88,88
2,64,88,0
2,79,88,432
2,64,88,0
2,81,88,181
2,66,88,0
2,78,88,164
2,62,88,0
2,78,88,52
2,62,88,0
2,79,88,48
2,64,88,0
2,76,127,15
2,78,127,52
2,79,127,54
2,78,127,172
2,76,127,152
2,81,127,167
2,79,127,160
2,78,127,136
2,76,127,164
2,81,127,164
2,79,127,163
2,78,127,160
2,76,127,157
2,74,127,169
2,71,127,49
2,76,127,63
2,79,88,229
2,64,88,0
2,81,88,172
2,66,88,0
2,78,88,172
2,62,88,0
2,79,88,172
2,64,88,0
2,79,88,64
2,64,88,0
2,79,88,432
2,64,88,0
2,81,88,172
2,66,88,0
2,78,88,151
2,62,88,0
2,78,88,45
2,62,88,0
2,79,88,47
2,64,88,0
2,76,127,4
2,78,127,45
2,79,127,53
2,78,127,128
2,76,127,143
2,81,127,152
2,79,127,153
2,78,127,148
2,76,127,147
2,81,127,160
2,79,127,169
2,78,127,160
2,76,127,169
2,74,127,169
2,71,127,56
2,76,127,60
2,79,88,255
2,64,88,0
2,81,88,173
2,66,88,0
2,78,88,173
2,62,88,0
2,64,88,172
2,79,88,1
2,79,88,64
2,64,88,0
2,79,88,432
2,64,88,0
2,81,88,164
2,66,88,0
2,78,88,173
2,62,88,0
2,79,88,184
2,64,88,0
2,64,88,88
2,79,88,1
2,79,88,430
2,64,88,0
2,66,88,180
2,81,88,1
2,78,88,163
2,62,88,0
2,78,88,51
2,62,88,0
2,79,88,49
2,64,88,0
2,78,88,15
2,62,88,0
2,79,88,9
2,64,88,0
2,76,88,429
2,60,88,0
2,78,88,176
2,62,88,0
2,74,88,167
2,59,88,0
2,76,88,172
2,60,88,0
2,76,88,63
2,60,88,0
2,76,88,409
2,60,88,0
2,78,88,176
2,62,88,0
2,74,88,143
2,59,88,0
2,74,88,50
2,59,88,0
2,76,88,35
2,60,88,0
2,74,88,29
2,59,88,0
2,76,88,0
2,60,88,0
2,79,88,424
2,64,88,0
2,81,88,172
2,66,88,0
2,78,88,171
2,62,88,0
2,79,88,172
2,64,88,0
2,79,88,66
2,64,88,0
2,79,88,432
2,64,88,0
2,66,88,172
2,81,88,2
2,78,88,151
2,62,88,0
2,78,88,45
2,62,88,0
2,79,88,48
2,64,88,0
2,78,88,3
2,62,88,0
2,64,88,15
2,79,88,2
2,76,88,425
2,60,88,0
2,78,88,170
2,62,88,0
2,74,88,168
2,59,88,0
2,76,88,168
