track,note,velocity,time
0,34,65,2
0,51,71,59
0,60,63,1
0,56,72,0
0,34,0,87
0,41,52,9
0,51,0,14
0,44,68,4
0,60,0,8
0,56,0,0
0,41,0,5
0,44,0,4
0,46,57,15
0,46,0,21
0,34,68,6
0,56,63,66
0,62,55,0
0,60,58,3
0,53,16,11
0,41,56,85
0,34,0,8
0,56,0,3
0,44,65,21
0,62,0,20
0,60,0,24
0,53,0,1
0,41,0,2
0,44,0,7
0,46,67,10
0,46,0,19
0,34,68,7
0,56,72,54
0,63,68,2
0,60,72,1
0,53,64,0
0,34,0,97
0,41,60,9
0,56,0,19
0,44,77,10
0,63,0,22
0,46,70,38
0,60,0,13
0,53,0,1
0,41,0,1
0,44,0,3
0,46,0,6
0,34,80,3
0,56,79,69
0,60,67,3
0,65,53,2
0,64,67,1
0,63,51,4
0,34,0,80
0,41,49,4
0,56,0,8
0,60,0,8
0,44,71,11
0,65,0,7
0,64,0,8
0,63,0,2
0,41,0,2
0,44,0,9
0,41,56,29
0,41,0,4
0,34,66,19
0,60,62,65
0,51,66,1
0,56,71,0
0,34,0,95
0,41,62,5
0,60,0,19
0,51,0,6
0,56,0,1
0,44,72,1
0,41,0,5
0,44,0,23
0,46,65,5
0,46,0,20
0,34,77,2
0,62,66,62
0,53,62,2
0,56,67,1
0,60,63,1
0,41,62,110
0,34,0,2
0,62,0,22
0,44,70,6
0,53,0,14
0,56,0,1
0,60,0,7
0,41,0,2
0,44,0,2
0,46,67,5
0,46,0,16
0,34,75,7
0,56,71,63
0,60,72,1
0,63,70,2
0,53,54,3
0,41,64,97
0,34,0,9
0,56,0,1
0,44,79,8
0,60,0,19
0,63,0,1
0,53,0,1
0,41,0,8
0,44,0,1
0,46,76,37
0,46,0,15
0,34,83,7
0,63,70,60
0,56,80,1
0,65,75,1
0,60,72,2
0,41,61,96
0,34,0,19
0,63,0,7
0,56,62,5
0,44,79,0
0,56,0,7
0,65,0,3
0,60,0,5
0,41,0,4
0,56,0,14
0,44,0,16
0,41,70,16
0,41,0,9
0,34,88,2
0,60,86,58
0,56,88,3
0,53,85,0
0,51,88,1
0,34,0,4
0,60,0,3
0,56,0,7
0,53,0,8
0,41,59,76
0,51,81,25
0,56,69,5
0,51,0,3
0,41,0,5
0,51,0,17
0,56,0,7
0,46,57,19
0,46,0,18
0,34,76,10
0,56,87,27
0,53,79,1
0,34,0,9
0,56,0,8
0,53,0,2
0,46,67,74
0,56,79,30
0,60,69,2
0,53,67,0
0,46,0,8
0,56,0,5
0,60,0,2
0,53,0,38
0,41,63,5
0,41,0,8
0,34,78,4
0,53,83,70
0,60,84,0
0,34,0,8
0,53,0,7
0,60,0,1
0,39,71,77
0,39,0,32
0,56,84,30
0,60,73,2
0,53,67,0
0,41,57,7
0,56,0,1
0,60,0,0
0,53,0,1
0,41,0,5
0,34,79,12
0,56,85,101
0,53,82,1
0,60,81,1
0,34,0,7
0,56,0,1
0,53,0,2
0,56,88,51
0,53,85,1
0,60,87,0
0,60,0,8
0,56,0,1
0,53,0,0
0,42,62,53
0,60,0,13
0,43,74,9
0,42,0,3
0,34,75,13
0,43,0,1
0,53,73,60
0,60,77,0
0,56,79,1
0,34,0,7
0,53,0,1
0,60,0,2
0,41,62,95
0,56,80,21
0,60,77,1
0,53,69,0
0,56,0,5
0,41,0,2
0,56,0,1
0,60,0,1
0,53,0,15
0,44,74,28
0,44,0,23
0,34,79,7
0,56,98,76
0,60,88,1
0,63,88,0
0,34,0,14
0,56,0,3
0,60,0,10
0,41,61,40
0,67,85,26
0,56,101,1
0,60,83,2
0,63,83,0
0,63,0,10
0,41,0,2
0,67,0,6
0,56,0,4
0,60,0,35
0,46,81,7
0,63,0,16
0,46,0,6
0,34,84,10
0,60,83,67
0,56,89,1
0,51,74,2
0,34,0,5
0,60,0,3
0,56,0,8
0,41,66,69
0,53,77,3
0,60,71,2
0,56,79,1
0,51,0,5
0,41,0,2
0,53,0,7
0,60,0,42
0,46,83,6
0,56,0,13
0,46,0,3
0,34,90,10
0,56,101,95
0,53,93,1
0,60,97,0
0,34,0,8
0,56,0,0
0,53,0,5
0,60,0,15
0,46,86,61
0,34,65,1
0,56,102,7
0,53,97,1
0,60,95,0
0,46,0,8
0,34,0,1
0,56,0,5
0,53,0,1
0,60,0,1
0,43,84,37
0,43,0,16
0,36,92,9
0,62,71,60
0,58,81,1
0,55,77,0
0,51,83,2
0,36,0,9
0,62,0,5
0,58,0,8
0,48,82,61
0,55,0,26
0,51,87,6
0,58,74,2
0,55,67,1
0,51,0,1
0,48,0,0
0,51,0,12
0,58,0,12
0,40,34,1
0,42,66,6
0,55,0,11
0,40,0,12
0,43,69,2
0,42,0,17
0,36,70,5
0,51,83,69
0,58,79,1
0,55,69,3
0,43,0,4
0,36,0,4
0,51,0,6
0,58,0,40
0,31,79,55
0,55,0,14
0,51,69,47
0,58,68,2
0,55,59,3
0,31,0,3
0,51,0,5
0,58,0,1
0,36,73,18
0,51,82,102
0,58,70,3
0,55,64,2
0,55,0,6
0,36,0,2
0,51,0,7
0,42,77,29
0,58,0,6
0,55,0,21
0,43,81,1
0,51,70,53
0,58,71,1
0,55,29,7
0,42,0,1
0,43,0,1
0,51,0,6
0,58,0,6
0,36,67,18
0,55,0,89
0,51,85,1
0,58,76,1
0,55,67,2
0,36,0,12
0,51,79,46
0,51,0,29
0,31,71,1
0,58,0,9
0,51,69,48
0,55,0,1
0,51,0,8
0,31,0,3
0,51,0,3
0,36,86,20
0,51,84,57
0,58,78,1
0,62,58,0
0,55,71,4
0,36,0,7
0,51,0,2
0,58,0,13
0,42,72,71
0,62,0,12
0,51,92,15
0,58,84,3
0,55,80,1
0,55,0,2
0,42,0,1
0,51,0,2
0,58,0,7
0,43,72,49
0,55,0,2
0,43,0,4
0,36,83,20
0,51,95,91
0,58,81,1
0,62,73,2
0,55,77,0
0,36,0,18
0,51,0,8
0,58,0,10
0,42,78,27
0,51,91,29
0,58,82,2
0,55,78,2
0,62,0,9
0,55,0,4
0,42,0,12
0,51,0,22
0,58,0,7
0,43,86,0
0,55,0,17
0,43,0,11
0,36,100,6
0,51,97,58
0,58,87,0
0,55,80,2
0,62,76,0
0,36,0,22
0,51,0,12
0,58,0,40
0,43,78,19
0,51,96,31
0,58,81,1
0,55,79,1
0,55,0,8
0,62,0,2
0,43,0,5
0,51,0,2
0,58,0,14
0,62,63,8
0,43,88,19
0,55,0,5
0,62,0,10
0,36,94,6
0,43,0,74
0,58,88,14
0,55,91,1
0,60,84,0
0,52,86,2
0,36,0,55
0,48,82,2
0,58,0,6
0,55,0,2
0,60,0,6
0,58,87,19
0,55,90,2
0,52,82,0
0,60,86,1
0,52,0,10
0,48,0,0
0,58,0,4
0,55,0,6
0,52,0,2
0,60,0,27
0,43,83,10
0,43,0,9
0,36,83,13
0,35,85,0
0,36,0,29
0,51,96,23
0,60,86,0
0,55,87,1
0,48,94,103
0,35,0,5
0,51,0,3
0,60,0,4
0,55,0,7
0,48,0,7
0,51,103,5
0,55,88,1
0,60,82,0
0,51,0,8
0,55,0,7
0,60,0,7
0,41,79,68
0,51,102,80
0,62,87,1
0,57,93,0
0,41,0,38
0,51,0,32
0,41,90,1
0,62,0,3
0,57,0,13
0,41,0,4
0,62,86,6
0,51,107,1
0,62,0,10
0,51,0,6
0,33,100,9
0,45,92,65
0,57,94,26
0,60,82,1
0,55,84,1
0,33,0,4
0,45,0,50
0,57,0,6
0,45,97,8
0,60,0,2
0,55,0,13
0,45,0,9
0,60,88,6
0,57,91,0
0,55,85,1
0,60,0,1
0,57,0,1
0,55,0,16
0,45,79,30
0,45,0,8
0,38,88,14
0,62,74,64
0,54,85,0
0,60,70,1
0,57,79,3
0,38,0,12
0,42,93,21
0,62,0,11
0,54,85,45
0,54,0,12
0,60,0,17
0,43,102,9
0,57,0,4
0,42,0,11
0,54,0,3
0,43,0,21
0,60,30,3
0,57,86,2
0,60,0,9
0,57,0,5
0,39,92,25
0,62,82,47
0,55,76,0
0,61,54,1
0,67,60,3
0,39,0,5
0,62,0,0
0,55,0,3
0,46,70,86
0,62,77,12
0,55,85,1
0,61,0,54
0,67,0,8
0,51,85,4
0,46,0,3
0,62,0,13
0,55,0,5
0,51,0,4
0,39,85,7
0,58,86,88
0,55,83,2
0,62,77,0
0,65,73,3
0,39,0,16
0,58,0,8
0,55,0,4
0,51,81,35
0,62,0,18
0,58,85,9
0,62,71,2
0,55,75,2
0,65,0,8
0,51,0,8
0,58,0,2
0,62,0,11
0,55,0,2
0,45,82,22
0,45,0,11
0,38,85,9
0,54,87,59
0,62,75,2
0,60,74,0
0,38,0,88
0,50,73,10
0,54,0,18
0,54,83,8
0,62,0,49
0,45,74,10
0,60,0,8
0,38,82,17
0,50,0,4
0,54,0,2
0,45,0,0
0,54,88,41
0,62,67,1
0,60,64,2
0,38,0,8
0,54,0,12
0,45,81,85
0,62,0,13
0,54,72,2
0,60,0,3
0,60,60,3
0,45,0,6
0,54,0,2
0,60,0,7
0,44,77,43
0,44,0,16
0,37,87,10
0,56,100,57
0,53,92,1
0,60,95,1
0,37,0,90
0,49,72,8
0,56,0,3
0,53,0,2
0,53,87,10
0,56,98,1
0,60,0,1
0,60,88,0
0,49,0,8
0,53,0,4
0,56,0,7
0,60,0,17
0,43,79,20
0,43,0,10
0,36,82,4
0,58,79,52
0,53,69,1
0,60,73,2
0,61,57,1
0,55,59,3
0,36,0,7
0,58,0,19
0,53,0,24
0,60,0,0
0,48,63,9
0,61,0,23
0,58,61,6
0,53,46,5
0,55,0,40
0,48,62,25
0,48,0,24
0,52,63,6
0,55,66,1
0,58,0,24
0,53,0,5
0,48,0,1
0,48,63,34
0,52,0,20
0,55,71,7
0,52,64,0
0,55,0,21
0,48,0,2
0,48,73,41
0,55,0,18
0,55,74,7
0,52,58,1
0,52,0,1
0,48,0,22
0,55,0,1
0,48,61,35
0,52,0,12
0,48,0,20
0,41,77,2
0,51,78,43
0,56,76,2
0,60,63,1
0,41,0,13
0,51,0,7
0,48,73,48
0,56,0,8
0,60,0,9
0,51,81,11
0,56,75,2
0,48,0,25
0,34,77,42
0,51,0,12
0,41,65,1
0,56,0,10
0,51,78,94
0,56,66,3
0,34,0,12
0,41,0,2
0,51,78,70
0,56,65,3
0,51,0,10
0,56,0,5
0,51,0,10
0,34,83,33
0,41,73,18
0,56,0,19
0,51,74,90
0,56,68,3
0,34,0,14
0,41,0,8
0,51,0,12
0,41,65,40
0,56,0,25
0,51,76,0
0,56,66,2
0,41,0,11
0,51,0,8
0,41,70,23
0,56,0,11
0,34,76,11
0,51,81,100
0,56,76,2
0,41,0,22
0,41,55,45
0,34,0,26
0,51,77,4
0,51,0,28
0,41,65,20
0,56,0,6
0,41,0,8
0,51,0,4
0,41,0,3
0,34,85,7
0,51,92,104
0,60,77,1
0,56,81,0
0,34,0,14
0,51,0,1
0,60,0,8
0,51,87,7
0,60,69,2
0,56,74,0
0,56,0,8
0,51,0,2
0,60,0,0
0,39,80,16
0,56,0,10
0,41,74,60
0,39,0,1
0,34,78,23
0,41,0,4
0,51,93,95
0,60,76,1
0,56,78,2
0,34,0,6
0,51,0,6
0,60,0,2
0,41,66,37
0,56,0,6
0,41,0,14
0,44,81,12
0,44,0,27
0,46,69,34
0,46,0,14
0,34,81,10
0,51,76,68
0,60,64,0
0,56,78,1
0,34,0,7
0,51,0,10
0,41,64,81
0,60,0,67
0,56,0,6
0,51,63,12
0,46,86,2
0,56,61,1
0,41,0,9
0,51,0,1
0,46,0,11
0,34,86,8
0,51,87,95
0,56,83,1
0,56,0,19
0,34,0,7
0,46,87,33
0,51,96,25
0,56,84,3
0,51,0,5
0,56,0,3
0,46,0,7
0,51,0,1
0,56,0,3
0,43,83,39
0,43,0,14
0,36,83,12
0,58,81,59
0,62,70,1
0,55,65,3
0,36,0,21
0,58,0,29
0,62,0,18
0,43,80,14
0,55,0,17
0,46,88,13
0,43,0,25
0,48,62,37
0,58,81,3
0,53,69,2
0,55,73,0
0,46,0,4
0,48,0,1
0,58,0,2
0,53,0,4
0,36,81,13
0,58,75,100
0,53,71,1
0,55,67,3
0,55,0,8
0,36,0,2
0,58,0,5
0,43,82,62
0,46,79,20
0,53,0,1
0,55,0,8
0,43,0,3
0,48,44,13
0,47,57,2
0,46,0,8
0,48,0,1
0,36,70,14
0,58,84,63
0,53,82,2
0,55,78,0
0,47,0,9
0,36,0,6
0,58,0,4
0,53,0,5
0,43,77,42
0,55,0,13
0,46,70,7
0,43,0,43
0,48,73,6
0,46,0,20
0,36,82,18
0,48,0,54
0,58,81,40
0,55,75,1
0,53,74,1
0,62,57,2
0,36,0,6
0,58,0,5
0,55,0,2
0,53,0,36
0,48,86,10
0,62,0,23
0,58,87,3
0,55,84,0
0,53,83,0
0,48,0,9
0,58,0,0
0,55,0,1
0,53,0,10
0,43,88,47
0,43,0,10
0,36,93,15
0,51,96,54
0,62,75,1
0,55,83,1
0,58,86,0
0,36,0,91
0,48,71,7
0,51,0,10
0,62,0,4
0,55,0,7
0,51,90,7
0,55,75,0
0,58,88,2
0,58,0,1
0,48,0,3
0,51,0,9
0,55,0,6
0,43,79,36
0,58,0,3
0,36,93,23
0,51,100,100
0,43,0,19
0,48,74,32
0,51,81,29
0,58,74,2
0,55,64,2
0,36,0,5
0,51,0,1
0,48,0,2
0,51,0,8
0,58,0,35
0,43,66,7
0,55,0,9
0,36,86,27
0,51,97,33
0,58,89,1
0,55,87,1
0,43,0,24
0,51,20,19
0,36,0,9
0,51,0,19
0,48,93,6
0,58,0,2
0,55,0,19
0,51,92,0
0,51,0,4
0,55,75,0
0,48,0,65
0,48,87,0
0,62,1,4
0,51,0,5
0,55,0,6
0,48,0,3
0,41,93,13
0,51,97,57
0,60,84,1
0,57,93,1
0,62,0,91
0,41,0,5
0,48,92,3
0,51,0,8
0,60,0,3
0,57,0,3
0,48,0,4
0,57,98,13
0,51,103,0
0,60,85,2
0,57,0,7
0,51,0,4
0,60,0,9
0,43,87,35
0,43,0,15
0,36,97,4
0,60,87,68
0,55,88,2
0,51,87,0
0,36,0,15
0,60,0,3
0,48,82,77
0,55,0,20
0,51,0,13
0,48,0,1
0,51,92,0
0,60,73,2
0,55,81,1
0,51,0,9
0,60,0,1
0,55,0,1
0,45,64,45
0,45,0,8
0,38,92,4
0,54,94,97
0,62,75,1
0,57,86,2
0,60,77,0
0,38,0,28
0,50,91,36
0,54,0,3
0,62,0,7
0,57,0,9
0,60,0,6
0,50,0,4
0,54,96,5
0,57,93,1
0,62,82,3
0,60,64,2
0,54,0,3
0,57,0,4
0,62,0,4
0,60,0,7
0,39,81,21
0,40,76,8
0,39,0,1
0,40,0,8
0,33,102,3
0,45,86,74
0,33,0,26
0,57,87,1
0,60,73,1
0,55,78,1
0,62,67,1
0,45,0,33
0,57,0,2
0,60,0,4
0,55,0,5
0,45,98,15
0,62,0,16
0,45,0,6
0,55,84,9
0,57,84,1
0,60,76,0
0,62,69,2
0,55,0,6
0,57,0,0
0,60,0,1
0,62,0,4
0,45,88,46
0,45,0,11
0,38,95,17
0,45,82,62
0,54,87,24
0,60,77,1
0,57,88,0
0,38,0,2
0,62,63,2
0,45,0,16
0,54,0,3
0,60,0,9
0,57,0,5
0,45,80,27
0,62,0,18
0,45,0,1
0,54,90,11
0,57,93,1
0,60,71,1
0,62,64,2
0,61,56,2
0,54,0,6
0,57,0,2
0,60,0,1
0,62,0,3
0,61,0,3
0,46,85,36
0,46,0,18
0,39,95,10
0,58,98,58
0,55,105,0
0,62,97,2
0,39,0,21
0,58,0,6
0,51,91,40
0,58,91,31
0,55,86,2
0,55,0,6
0,62,0,2
0,51,0,4
0,58,0,8
0,55,0,41
0,46,92,4
0,46,0,14
0,39,95,4
0,58,94,59
0,62,91,1
0,55,95,0
0,65,84,1
0,39,0,14
0,58,0,8
0,62,0,6
0,51,94,63
0,55,0,31
