track,note,velocity,time
0,58,44,1964
0,63,44,0
0,67,44,0
0,58,111,0
0,63,113,0
0,67,113,0
0,68,111,192
0,70,113,18
0,58,110,98
0,63,118,26
0,67,115,192
0,63,117,4
0,77,120,192
0,62,44,6
0,65,44,0
0,58,111,0
0,77,121,8
0,70,98,192
0,74,94,192
0,80,120,18
0,79,107,34
0,77,116,192
0,77,115,32
0,56,44,6
0,60,44,0
0,63,44,0
0,56,105,0
0,79,118,14
0,75,123,192
0,63,97,36
0,68,110,192
0,72,119,192
0,68,111,162
0,75,113,28
0,67,44,0
0,56,120,0
0,80,126,0
0,79,115,192
0,79,120,60
0,77,121,28
0,58,44,6
0,62,44,0
0,65,44,0
0,58,116,0
0,77,118,0
0,75,120,192
0,72,108,18
0,65,89,192
0,39,112,6
0,63,44,0
0,67,44,0
0,51,118,0
0,67,125,0
0,82,76,0
0,68,119,96
0,70,120,20
0,82,74,0
0,58,109,104
0,63,118,170
0,82,73,0
0,41,109,18
0,68,123,0
0,43,110,2
0,67,117,0
0,82,73,0
0,46,108,2
0,65,112,0
0,62,44,10
0,65,44,0
0,58,116,0
0,82,71,0
0,65,110,98
0,70,123,192
0,82,68,0
0,74,119,92
0,67,119,182
0,82,69,0
0,44,108,16
0,70,111,0
0,43,106,2
0,65,87,0
0,82,70,0
0,44,110,8
0,56,44,8
0,60,44,0
0,63,44,0
0,56,110,0
0,72,119,0
0,75,115,0
0,80,116,0
0,80,69,0
0,68,100,72
0,80,69,0
0,67,117,8
0,80,73,0
0,68,109,16
0,70,109,192
0,80,75,0
0,39,106,4
0,58,44,0
0,63,44,0
0,67,44,0
0,58,98,0
0,63,98,0
0,67,103,0
0,39,109,0
0,36,113,0
0,42,107,0
0,70,74,0
0,79,54,0
0,28,67,22
0,70,70,0
0,46,102,50
0,70,65,0
0,28,70,48
0,70,78,0
0,38,111,48
0,42,100,0
0,70,76,0
0,70,78,28
0,42,99,50
0,70,68,0
0,39,109,48
0,36,108,0
0,70,70,0
0,42,100,42
0,70,71,0
0,28,68,44
0,70,65,0
0,39,110,50
0,36,110,0
0,42,95,0
0,70,70,0
0,70,66,40
0,38,110,52
0,42,103,0
0,70,74,0
0,70,68,26
0,39,109,56
0,28,68,0
0,36,108,0
0,42,102,0
0,70,72,0
0,28,67,40
0,70,68,0
0,39,113,50
0,36,110,0
0,42,103,0
0,70,72,0
0,70,68,28
0,42,102,58
0,70,68,0
0,28,74,46
0,70,72,0
0,38,111,48
0,42,101,0
0,70,75,0
0,70,66,28
0,42,95,58
0,70,74,0
0,39,109,46
0,36,110,0
0,70,63,0
0,42,101,28
0,70,71,0
0,28,76,42
0,70,68,0
0,39,112,42
0,36,111,0
0,42,95,0
0,70,71,0
0,70,68,34
0,38,111,54
0,42,97,0
0,70,74,0
0,70,70,28
0,39,110,54
0,28,66,0
0,36,108,0
0,42,100,0
0,70,75,0
0,38,113,46
0,70,72,0
0,53,99,8
0,57,103,0
0,60,104,0
0,64,100,0
0,26,108,0
0,36,109,0
0,42,101,0
0,70,82,0
0,64,105,0
0,28,67,2
0,70,78,0
0,62,91,0
0,46,101,2
0,70,78,0
0,64,94,0
0,57,98,0
0,26,110,40
0,28,70,0
0,70,75,0
0,38,107,48
0,42,102,0
0,70,78,0
0,60,98,0
0,70,67,34
0,42,95,56
0,70,75,0
0,64,106,0
0,26,109,40
0,36,109,0
0,70,76,0
0,42,97,46
0,70,71,0
0,28,68,42
0,70,75,0
0,53,103,50
0,26,111,0
0,36,111,0
0,42,95,0
0,70,74,0
0,57,100,42
0,70,78,0
0,38,110,24
0,42,95,0
0,70,75,0
0,53,102,38
0,57,103,0
0,60,103,0
0,64,99,0
0,70,76,0
0,26,110,30
0,28,68,0
0,36,109,0
0,42,95,0
0,70,76,0
0,53,99,8
0,57,100,0
0,60,102,0
0,64,94,0
0,28,67,0
0,70,72,0
0,26,110,50
0,36,110,0
0,42,95,0
0,70,78,0
0,70,74,42
0,42,92,28
0,70,78,0
0,26,110,48
0,28,74,0
0,70,75,0
0,38,110,48
0,42,95,0
0,70,75,0
0,70,71,36
0,42,92,60
0,70,76,0
0,26,110,50
0,36,110,0
0,70,72,0
0,42,95,42
0,70,76,0
0,67,109,0
0,28,76,44
0,70,75,0
0,53,103,2
0,26,110,0
0,36,111,0
0,42,95,0
0,70,76,0
0,65,100,0
0,57,101,22
0,70,78,0
0,38,110,2
0,42,95,0
0,70,78,0
0,64,101,0
0,53,104,38
0,57,101,0
0,60,102,0
0,64,101,0
0,70,70,0
0,26,110,2
0,28,66,0
0,36,109,0
0,42,97,0
0,70,76,0
0,65,95,0
0,70,71,46
0,56,100,56
0,60,104,0
0,63,99,0
0,65,99,0
0,34,110,0
0,36,109,0
0,42,101,0
0,70,76,0
0,65,105,0
0,28,67,42
0,70,71,0
0,46,95,54
0,70,75,0
0,63,95,0
0,34,109,48
0,28,70,0
0,70,74,0
0,38,108,2
0,42,100,0
0,70,76,0
0,60,101,0
0,70,76,30
0,42,95,56
0,70,75,0
0,63,102,0
0,34,105,28
0,36,109,0
0,70,74,0
0,42,95,4
0,70,76,0
0,28,68,44
0,70,75,0
0,56,98,50
0,60,104,0
0,63,98,0
0,65,99,0
0,34,109,0
0,36,110,0
0,42,95,0
0,70,78,0
0,70,108,0
0,70,74,44
0,38,109,46
0,42,95,0
0,70,75,0
0,56,98,30
0,60,104,0
0,63,96,0
0,65,100,0
0,70,70,0
0,34,110,2
0,28,68,0
0,36,110,0
0,42,92,0
0,70,76,0
0,68,106,0
0,51,103,4
0,55,106,0
0,58,102,0
0,62,100,0
0,28,67,0
0,70,68,0
0,27,110,50
0,36,110,0
0,42,95,0
0,70,78,0
0,70,76,34
0,42,93,6
0,70,74,0
0,67,99,0
0,58,101,0
0,27,109,44
0,28,74,0
0,70,71,0
0,38,110,48
0,42,97,0
0,70,78,0
0,62,98,0
0,70,74,34
0,42,95,58
0,70,76,0
0,67,108,0
0,27,110,44
0,36,108,0
0,70,74,0
0,42,95,40
0,70,78,0
0,28,76,34
0,70,76,0
0,27,110,42
0,36,110,0
0,42,93,0
0,70,75,0
0,70,78,40
0,38,111,38
0,42,95,0
0,70,76,0
0,70,71,32
0,55,101,42
0,56,100,0
0,60,103,0
0,63,98,0
0,27,110,0
0,28,66,0
0,36,108,0
0,42,95,0
0,70,74,0
0,55,82,0
0,60,95,0
0,63,91,0
0,38,102,46
0,70,72,0
0,32,109,36
0,36,108,0
0,42,101,0
0,70,75,0
0,67,106,0
0,28,67,38
0,70,72,0
0,46,100,54
0,70,70,0
0,28,70,40
0,70,66,0
0,38,108,48
0,42,102,0
0,70,75,0
0,70,65,28
0,42,97,58
0,70,74,0
0,32,107,40
0,36,110,0
0,70,67,0
0,42,95,38
0,70,72,0
0,28,68,30
0,70,70,0
0,55,109,50
0,32,106,0
0,36,109,0
0,42,97,0
0,70,72,0
0,56,101,40
0,70,66,0
0,38,108,12
0,42,97,0
0,70,75,0
0,72,109,0
0,55,102,32
0,56,101,0
0,60,103,0
0,63,98,0
0,70,65,0
0,32,109,10
0,28,68,0
0,36,109,0
0,42,95,0
0,70,74,0
0,70,107,0
0,28,67,40
0,70,71,0
0,53,96,30
0,58,96,0
0,62,95,0
0,34,110,0
0,36,111,0
0,42,95,0
0,70,75,0
0,53,79,0
0,58,87,0
0,62,87,0
0,70,66,38
0,42,93,54
0,70,71,0
0,34,110,44
0,28,74,0
0,70,72,0
0,38,110,34
0,42,95,0
0,70,75,0
0,67,102,0
0,70,76,34
0,42,91,2
0,70,74,0
0,65,99,0
0,34,110,40
0,36,113,0
0,70,70,0
0,42,92,34
0,70,74,0
0,28,76,44
0,70,72,0
0,34,110,42
0,36,111,0
0,42,93,0
0,70,71,0
0,63,97,0
0,70,72,36
0,38,111,24
0,42,95,0
0,70,75,0
0,70,72,20
0,55,101,60
0,60,103,0
0,63,101,0
0,34,110,0
0,28,66,0
0,36,107,0
0,42,95,0
0,70,72,0
0,55,89,0
0,60,100,0
0,63,95,0
0,38,103,14
0,70,71,0
0,55,100,28
0,60,104,0
0,63,101,0
0,32,107,0
0,36,110,0
0,42,101,0
0,70,71,0
0,67,108,0
0,28,67,28
0,70,72,0
0,46,95,54
0,70,70,0
0,28,70,40
0,70,67,0
0,38,109,40
0,42,99,0
0,70,72,0
0,70,72,32
0,42,97,58
0,70,71,0
0,32,103,42
0,36,113,0
0,70,70,0
0,42,95,36
0,70,72,0
0,28,68,40
0,70,71,0
0,32,103,50
0,36,111,0
0,42,95,0
0,70,72,0
0,72,111,0
0,70,68,38
0,38,111,54
0,42,95,0
0,70,71,0
0,70,68,8
0,53,98,28
0,58,93,0
0,62,96,0
0,32,105,0
0,28,68,0
0,36,110,0
0,42,93,0
0,70,75,0
0,70,108,0
0,53,82,0
0,58,92,0
0,62,89,0
0,28,67,40
0,70,72,0
0,53,104,38
0,58,103,0
0,62,102,0
0,65,100,0
0,34,109,0
0,36,110,0
0,42,93,0
0,70,75,0
0,70,71,34
0,58,106,12
0,42,92,0
0,70,76,0
0,67,106,0
0,34,109,46
0,28,74,0
0,70,72,0
0,38,111,48
0,42,92,0
0,70,75,0
0,70,72,28
0,42,91,22
0,70,74,0
0,65,102,0
0,34,110,46
0,36,113,0
0,70,75,0
0,42,95,38
0,70,71,0
0,28,76,42
0,70,70,0
0,34,110,42
0,36,113,0
0,42,93,0
0,70,72,0
0,63,91,0
0,70,75,36
0,38,111,2
0,42,95,0
0,70,72,0
0,65,92,0
0,70,71,38
0,34,113,62
0,28,66,0
0,36,110,0
0,38,95,0
0,42,100,0
0,70,72,0
0,38,101,36
0,70,70,0
0,67,44,28
0,70,44,0
0,75,44,0
0,55,110,0
0,58,110,0
0,63,113,0
0,36,111,0
0,36,109,0
0,42,101,0
0,49,105,0
0,70,82,0
0,67,113,0
0,75,79,0
0,67,98,0
0,91,111,0
0,28,67,12
0,70,78,0
0,46,101,6
0,70,78,0
0,68,107,0
0,75,73,0
0,92,110,0
0,55,110,28
0,58,109,0
0,63,110,0
0,36,105,0
0,28,70,0
0,70,75,0
0,60,81,0
0,63,84,0
0,36,109,12
0,38,107,0
0,42,102,0
0,70,78,0
0,70,108,0
0,75,76,0
0,94,107,0
0,70,67,16
0,65,44,2
0,74,44,0
0,53,110,0
0,58,109,0
0,62,108,0
0,34,109,0
0,42,95,0
0,70,75,0
0,65,109,0
0,70,75,0
0,89,111,0
0,36,109,38
0,70,76,0
0,42,97,46
0,70,71,0
0,28,68,42
0,38,107,0
0,70,75,0
0,36,111,36
0,42,95,0
0,70,74,0
0,58,81,0
0,62,76,0
0,63,101,0
0,68,68,0
0,70,78,42
0,53,108,52
0,58,107,0
0,62,107,0
0,38,110,0
0,42,95,0
0,70,75,0
0,65,109,0
0,70,76,38
0,34,109,6
0,28,68,0
0,36,109,0
0,42,95,0
0,70,76,0
0,67,108,0
0,28,67,8
0,70,72,0
0,53,109,2
0,58,109,0
0,62,108,0
0,34,109,0
0,36,110,0
0,42,95,0
0,70,78,0
0,70,108,0
0,70,74,42
0,42,92,56
0,70,78,0
0,63,44,2
0,68,44,0
0,72,44,0
0,51,110,0
0,56,103,0
0,60,108,0
0,32,107,0
0,28,74,0
0,70,75,0
0,56,84,0
0,60,75,0
0,68,105,0
0,38,110,16
0,42,95,0
0,70,75,0
0,70,71,36
0,51,110,40
0,56,107,0
0,60,113,0
0,32,107,0
0,42,92,0
0,70,76,0
0,68,107,0
0,36,110,50
0,70,72,0
0,42,95,42
0,70,76,0
0,28,76,44
0,38,107,0
0,70,75,0
0,36,111,42
0,42,95,0
0,70,76,0
0,56,83,0
0,60,81,0
0,70,78,14
0,60,113,56
0,38,110,0
0,42,95,0
0,70,78,0
0,56,109,38
0,70,70,0
0,51,116,56
0,28,66,0
0,36,109,0
0,42,97,0
0,70,76,0
0,63,76,46
0,70,71,0
0,67,44,8
0,70,44,0
0,75,44,0
0,55,111,0
0,58,109,0
0,63,110,0
0,36,111,0
0,36,109,0
0,42,101,0
0,70,76,0
0,75,110,0
0,28,67,42
0,70,71,0
0,46,95,54
0,70,75,0
0,75,110,0
0,55,111,2
0,58,107,0
0,63,106,0
0,36,105,0
0,28,70,0
0,70,74,0
0,60,82,0
0,63,84,0
0,36,109,28
0,38,108,0
0,42,100,0
0,70,76,0
0,75,109,0
0,70,76,30
0,65,44,8
0,74,44,0
0,53,111,0
0,58,109,0
0,62,107,0
0,34,108,0
0,42,95,0
0,70,75,0
0,77,109,0
0,36,109,46
0,70,74,0
0,42,95,44
0,70,76,0
0,28,68,44
0,38,109,0
0,70,75,0
0,34,108,26
0,36,110,0
0,42,95,0
0,70,78,0
0,58,83,0
0,62,70,0
0,72,109,0
0,70,74,44
0,53,110,32
0,58,109,0
0,62,109,0
0,38,109,0
0,42,95,0
0,70,75,0
0,72,109,0
0,70,70,30
0,34,108,4
0,28,68,0
0,36,110,0
0,42,92,0
0,70,76,0
0,70,95,0
0,28,67,10
0,70,68,0
0,53,108,38
0,58,106,0
0,62,105,0
0,34,110,0
0,36,110,0
0,42,95,0
0,70,78,0
0,72,107,0
0,70,76,34
0,42,93,56
0,70,74,0
0,63,44,2
0,68,44,0
0,72,44,0
0,51,116,0
0,56,106,0
0,60,109,0
0,32,106,0
0,28,74,0
0,70,71,0
0,56,78,0
0,60,74,0
0,70,106,0
0,38,110,2
0,42,97,0
0,70,78,0
0,72,105,0
0,70,74,34
0,51,110,8
0,56,108,0
0,60,113,0
0,32,102,0
0,42,95,0
0,70,76,0
0,75,105,0
0,36,108,44
0,70,74,0
0,42,95,40
0,70,78,0
0,28,76,44
0,38,109,0
0,70,76,0
0,36,110,2
0,42,93,0
0,70,75,0
0,56,81,0
0,60,79,0
0,79,108,0
0,70,78,40
0,38,111,40
0,42,95,0
0,70,76,0
0,79,107,0
0,70,71,32
0,32,105,12
0,28,66,0
0,36,108,0
0,42,95,0
0,70,74,0
0,77,103,0
0,38,102,46
0,70,72,0
0,67,44,8
0,70,44,0
0,75,44,0
0,55,110,0
0,58,108,0
0,63,110,0
0,36,111,0
0,36,108,0
0,42,101,0
0,70,75,0
0,67,111,0
0,75,82,0
0,91,109,0
0,28,67,38
0,70,72,0
0,46,100,2
0,70,70,0
0,68,107,0
0,75,80,0
0,92,110,0
0,55,110,28
0,58,107,0
0,63,106,0
0,36,105,0
0,28,70,0
0,70,66,0
0,60,81,0
0,63,82,0
0,36,108,2
0,38,108,0
0,42,102,0
0,70,75,0
0,70,107,0
0,75,78,0
0,94,110,0
0,70,65,32
0,65,44,2
0,74,44,0
0,53,110,0
0,58,108,0
0,62,108,0
0,34,108,0
0,42,97,0
0,70,74,0
0,65,103,0
0,70,79,0
0,89,111,0
0,36,110,36
0,70,67,0
0,42,95,38
0,70,72,0
0,28,68,42
0,38,106,0
0,70,70,0
0,34,108,32
0,36,109,0
0,42,97,0
0,70,72,0
0,58,81,0
0,62,71,0
0,63,93,0
0,68,70,0
0,70,66,36
0,53,110,56
0,58,106,0
0,62,107,0
0,38,108,0
0,42,97,0
0,70,75,0
0,65,108,0
0,70,65,32
0,34,108,2
0,28,68,0
0,36,109,0
0,42,95,0
0,70,74,0
0,67,109,0
0,28,67,18
0,70,71,0
0,53,107,10
0,58,108,0
0,62,108,0
0,34,110,0
0,36,111,0
0,42,95,0
0,70,75,0
0,70,108,0
0,70,66,38
0,42,93,58
0,70,71,0
0,63,44,12
0,68,44,0
0,72,44,0
0,51,110,0
0,56,101,0
0,60,109,0
0,32,105,0
0,28,74,0
0,70,72,0
0,56,83,0
0,60,78,0
0,68,107,0
0,38,110,12
0,42,95,0
0,70,75,0
0,70,76,28
0,51,109,56
0,56,107,0
0,60,113,0
0,32,102,0
0,42,91,0
0,70,74,0
0,68,108,0
0,36,113,40
0,70,70,0
0,42,92,34
0,70,74,0
0,28,76,44
0,38,110,0
0,70,72,0
0,36,111,42
0,42,93,0
0,70,71,0
