track,note,velocity,time
1,45,82,31818
1,40,70,0
1,29,75,0
1,36,62,27
1,31,74,27
1,45,82,107
1,40,70,0
1,29,75,1531
1,36,62,27
1,31,74,32
1,36,127,6256
1,31,127,283
1,36,127,11
1,36,127,102
1,31,123,15
1,35,127,17
1,35,127,102
1,35,127,134
1,35,127,54
1,33,127,7
1,45,123,33
1,40,118,95
1,33,127,11
1,33,127,65
1,31,123,12
1,43,118,0
1,31,127,25
1,31,127,139
1,43,118,381
1,29,127,10
1,41,118,38
1,36,78,95
1,29,123,76
1,41,123,183
1,29,118,0
1,28,127,90
1,40,127,49
1,40,123,128
1,28,118,0
1,40,123,16
1,38,127,74
1,33,113,0
1,38,127,15
1,38,127,91
1,40,123,17
1,38,118,96
1,31,127,0
1,43,127,11
1,43,123,80
1,41,123,96
1,38,123,16
1,31,127,49
1,36,127,55
1,31,127,5
1,36,123,0
1,36,127,117
1,31,123,16
1,36,113,15
1,35,123,0
1,35,127,91
1,35,127,145
1,35,127,65
1,33,127,38
1,45,118,385
1,33,127,21
1,33,127,139
1,45,118,16
1,43,127,191
1,31,127,6
1,31,127,118
1,43,127,6
1,31,123,0
1,41,127,28
1,41,106,65
1,36,118,0
1,29,127,91
1,41,127,32
1,29,127,11
1,40,127,0
1,36,101,42
1,40,127,31
1,40,127,102
1,36,127,20
1,38,127,74
1,33,127,38
1,38,127,6
1,38,127,118
1,33,127,16
1,38,127,96
1,31,127,4
1,31,127,102
1,38,123,0
1,43,127,20
1,38,127,11
1,31,127,20
1,43,127,6
1,31,127,32
1,33,127,69
1,45,127,33
1,40,123,287
1,45,118,91
1,40,127,86
1,33,127,17
1,45,118,0
1,33,127,11
1,40,127,18
1,40,127,96
1,35,113,293
1,28,127,0
1,28,127,124
1,40,127,191
1,28,127,182
1,29,127,68
1,41,127,21
1,29,127,23
1,29,127,139
1,41,127,191
1,29,127,176
1,40,127,37
1,40,127,97
1,31,127,43
1,43,127,191
1,31,127,276
1,43,118,63
1,33,127,32
1,45,127,22
1,40,106,288
1,45,113,81
1,40,127,91
1,33,127,11
1,45,118,191
1,33,127,0
1,40,123,26
1,40,127,58
1,35,123,6
1,40,123,6
1,40,127,123
1,35,101,17
1,29,127,33
1,41,127,54
1,41,127,65
1,29,127,192
1,41,127,175
1,29,127,0
1,36,127,74
1,36,127,176
1,31,127,23
1,43,127,192
1,38,123,165
1,31,127,22
1,36,127,75
1,36,127,48
1,31,118,287
1,36,127,0
1,36,127,117
1,36,127,74
1,35,123,97
1,28,127,6
1,40,127,22
1,35,113,287
1,40,123,0
1,35,127,97
1,28,127,16
1,40,123,192
1,29,127,15
1,41,127,11
1,29,127,384
1,29,127,145
1,41,127,0
1,36,127,13
1,35,127,15
1,33,123,97
1,31,127,15
1,31,127,112
1,43,123,0
1,31,127,192
1,38,127,70
1,38,127,54
1,33,127,16
1,38,106,9
1,33,127,10
1,26,127,12
1,38,127,193
1,33,123,5
1,31,127,27
1,43,127,21
1,38,123,288
1,43,127,16
1,43,127,137
1,45,118,288
1,43,123,6
1,38,127,100
1,38,127,90
1,33,82,287
1,38,123,92
1,33,106,85
1,26,127,60
1,38,127,11
1,33,127,192
1,31,127,59
1,43,127,6
1,38,113,2
1,31,127,0
1,43,127,6
1,31,127,0
1,33,127,192
1,45,127,37
1,40,123,289
1,45,118,90
1,40,127,92
1,33,127,23
1,45,118,0
1,33,127,16
1,40,127,23
1,40,127,91
1,35,113,289
1,28,127,0
1,28,127,124
1,40,127,190
1,28,127,177
1,29,127,58
1,41,127,26
1,29,127,22
1,29,127,137
1,41,127,192
1,29,127,182
1,40,127,37
1,40,127,95
1,31,127,42
1,43,127,193
1,31,127,278
1,43,118,64
1,33,127,27
1,45,127,17
1,40,106,288
1,45,113,0
1,40,127,96
1,33,127,6
1,45,118,192
1,33,127,0
1,40,123,28
1,40,127,64
1,35,123,10
1,40,123,11
1,40,127,128
1,35,101,20
1,29,127,32
1,41,127,49
1,41,127,58
1,29,127,193
1,41,127,171
1,29,127,177
1,36,127,66
1,36,127,183
1,31,127,20
1,43,127,193
1,38,123,166
1,31,127,27
1,36,127,74
1,36,127,9
1,31,123,289
1,36,127,6
1,36,127,128
1,31,127,17
1,41,127,0
1,41,127,75
1,36,106,7
1,41,118,96
1,36,123,65
1,29,127,1
1,41,127,28
1,36,127,96
1,36,95,1622
2,36,127,1156
2,55,118,0
2,60,127,0
2,64,123,0
2,60,123,95
2,64,118,0
2,55,101,0
2,36,123,0
2,48,118,337
2,55,123,43
2,60,123,96
2,64,127,0
2,41,101,134
2,57,113,0
2,64,118,0
2,60,118,0
2,60,113,112
2,64,118,0
2,57,82,0
2,41,113,0
2,41,106,320
2,57,82,33
2,60,95,96
2,64,106,6
2,60,113,95
2,55,123,4
2,60,127,0
2,64,127,0
2,36,127,0
2,60,127,118
2,36,123,0
2,64,127,0
2,55,123,0
2,55,95,16
2,43,118,0
2,60,123,38
2,48,127,95
2,64,113,27
2,60,101,96
2,41,127,34
2,60,123,0
2,64,127,0
2,57,82,0
2,41,118,123
2,60,123,0
2,64,123,0
2,57,106,0
2,69,127,508
2,55,106,118
2,64,118,0
2,60,123,0
2,48,123,0
2,64,106,107
2,60,113,0
2,55,79,0
2,36,101,193
2,55,101,1
2,60,113,80
2,48,127,55
2,64,118,86
2,60,90,0
2,55,73,0
2,62,113,9
2,55,95,0
2,59,113,0
2,47,101,0
2,59,101,43
2,55,82,0
2,62,106,0
2,47,101,193
2,55,118,159
2,59,127,23
2,60,118,37
2,45,123,0
2,57,101,0
2,64,106,0
2,52,118,385
2,57,101,10
2,64,118,47
2,60,118,95
2,45,123,98
2,57,90,39
2,43,95,12
2,60,118,0
2,55,106,0
2,64,113,0
2,64,95,80
2,60,95,0
2,55,79,0
2,43,82,183
2,55,113,37
2,60,101,192
2,41,113,159
2,65,118,0
2,60,118,0
2,57,95,0
2,64,123,21
2,41,101,193
2,60,127,150
2,57,95,38
2,41,74,153
2,40,101,149
2,65,113,0
2,55,85,0
2,60,101,0
2,64,127,60
2,60,106,85
2,55,82,0
2,55,113,18
2,52,95,0
2,55,101,113
2,60,113,87
2,50,90,0
2,53,82,0
2,57,82,0
2,50,101,92
2,60,95,117
2,38,75,27
2,60,66,192
2,65,54,22
2,60,79,48
2,55,90,129
2,43,101,0
2,59,79,0
2,55,79,10
2,62,123,53
2,43,74,100
2,62,73,194
2,67,82,47
2,55,106,213
2,64,118,0
2,60,123,0
2,48,123,0
2,64,106,112
2,60,113,0
2,55,79,0
2,36,101,192
2,55,101,0
2,60,113,75
2,48,127,54
2,64,118,81
2,60,90,0
2,55,73,0
2,62,113,6
2,55,95,0
2,59,113,0
2,47,101,0
2,59,101,37
2,55,82,0
2,62,106,0
2,47,101,192
2,55,118,149
2,59,127,21
2,60,118,34
2,45,123,0
2,57,101,0
2,64,106,0
2,52,118,384
2,57,101,12
2,64,118,48
2,60,118,96
2,45,123,96
2,57,90,43
2,43,95,17
2,60,118,0
2,55,106,0
2,64,113,0
2,64,95,86
2,60,95,0
2,55,79,0
2,43,82,182
2,55,113,38
2,60,101,193
2,41,113,159
2,65,118,0
2,60,118,0
2,57,95,0
2,64,123,22
2,41,101,193
2,60,127,154
2,57,95,39
2,41,74,155
2,40,101,145
2,65,113,0
2,55,85,0
2,60,101,0
2,64,127,52
2,60,106,85
2,55,82,0
2,55,113,22
2,52,95,0
2,55,101,112
2,60,113,86
2,50,90,0
2,53,82,0
2,57,82,0
2,50,101,90
2,60,95,112
2,38,75,17
2,60,66,192
2,65,54,18
2,60,79,49
2,55,90,124
2,43,101,0
2,59,79,0
2,55,79,11
2,62,123,50
2,43,74,98
2,62,73,192
2,67,82,44
2,45,127,219
2,57,118,0
2,60,127,0
2,64,123,0
2,67,127,164
2,60,123,0
2,64,127,0
2,57,113,43
2,45,123,0
2,64,118,111
2,60,123,98
2,57,118,22
2,59,123,7
2,40,123,0
2,62,127,0
2,55,101,0
2,55,123,27
2,52,101,11
2,59,123,38
2,62,127,16
2,59,113,95
2,52,118,96
2,55,118,99
2,57,123,0
2,64,127,0
2,60,127,0
2,126,1,0
2,53,95,98
2,57,79,123
2,41,123,166
2,57,95,96
2,53,118,191
2,60,127,16
2,57,85,15
2,55,106,16
2,64,118,0
2,60,127,0
2,55,106,54
2,59,106,117
2,43,95,0
2,55,95,0
2,62,113,0
2,43,95,10
2,55,95,16
2,59,127,91
2,45,127,187
2,57,118,0
2,60,127,0
2,64,123,0
2,67,127,161
2,60,123,0
2,64,127,0
2,57,113,39
2,45,123,0
2,64,118,111
2,60,123,97
2,57,118,21
2,59,123,11
2,40,123,0
2,62,127,0
2,55,101,0
2,55,123,33
2,52,101,17
2,59,123,33
2,62,127,16
2,59,113,96
2,52,118,96
2,55,118,103
2,57,123,298
2,64,127,0
2,60,127,0
2,53,95,98
2,57,79,123
2,41,123,166
2,57,95,96
2,53,118,193
2,60,127,15
2,57,85,15
2,55,106,16
2,64,118,0
2,60,127,0
2,55,106,54
2,59,106,123
2,43,95,0
2,55,95,0
2,62,113,0
2,43,95,11
2,55,95,15
2,59,127,92
2,36,127,182
2,55,118,0
2,60,127,0
2,64,123,0
2,60,123,98
2,64,118,0
2,55,101,0
2,36,123,0
2,48,118,333
2,55,123,37
2,60,123,97
2,64,127,1
2,41,101,130
2,57,113,0
2,64,118,0
2,60,118,0
2,60,113,107
2,64,118,0
2,57,82,0
2,41,113,0
2,41,106,325
2,57,82,38
2,60,95,97
2,64,106,11
2,60,113,95
2,55,123,5
2,60,127,0
2,64,127,0
2,36,127,0
2,60,127,118
2,36,123,0
2,64,127,0
2,55,123,0
2,55,95,16
2,43,118,0
2,60,123,42
2,48,127,96
2,64,113,26
2,60,101,96
2,41,127,37
2,60,123,0
2,64,127,0
2,57,82,0
2,41,118,126
2,60,123,0
2,64,123,0
2,57,106,0
2,69,127,512
2,55,106,123
2,64,118,0
2,60,123,0
2,48,123,0
2,64,106,112
2,60,113,0
2,55,79,0
2,36,101,192
2,55,101,0
2,60,113,73
2,48,127,53
2,64,118,80
2,60,90,0
2,55,73,0
2,62,113,6
2,55,95,0
2,59,113,0
2,47,101,0
2,59,101,37
2,55,82,0
2,62,106,0
2,47,101,192
2,55,118,151
2,59,127,23
2,60,118,33
2,45,123,0
2,57,101,0
2,64,106,0
2,52,118,384
2,57,101,12
2,64,118,55
2,60,118,96
2,45,123,96
2,57,90,44
2,43,95,17
2,60,118,0
2,55,106,0
2,64,113,0
2,64,95,81
2,60,95,0
2,55,79,0
2,43,82,177
2,55,113,38
2,60,101,192
2,41,113,158
2,65,118,0
2,60,118,0
2,57,95,0
2,64,123,21
2,41,101,193
2,60,127,150
2,57,95,38
2,41,74,155
2,40,101,144
2,65,113,0
2,55,85,0
2,60,101,0
2,64,127,55
2,60,106,86
2,55,82,0
2,55,113,22
2,52,95,0
2,55,101,112
2,60,113,86
2,50,90,0
2,53,82,0
2,57,82,0
2,50,101,90
2,60,95,112
2,38,75,16
2,60,66,193
2,65,54,17
2,60,79,49
2,55,90,123
2,43,101,0
2,59,79,0
2,55,79,11
2,62,123,49
2,43,74,98
2,62,73,197
2,67,82,49
2,55,106,219
2,64,118,0
2,60,123,0
2,48,123,0
2,64,106,111
2,60,113,0
2,55,79,0
2,36,101,194
2,55,101,0
2,60,113,75
2,48,127,57
2,64,118,81
2,60,90,0
2,55,73,0
2,62,113,5
2,55,95,0
2,59,113,0
2,47,101,0
2,59,101,38
2,55,82,0
2,62,106,0
2,47,101,191
2,55,118,150
2,59,127,22
2,60,118,33
2,45,123,0
2,57,101,0
2,64,106,0
2,52,118,385
2,57,101,11
2,64,118,43
2,60,118,96
2,45,123,96
2,57,90,39
2,43,95,15
2,60,118,0
2,55,106,0
2,64,113,0
2,64,95,87
2,60,95,0
2,55,79,0
2,43,82,182
2,55,113,38
2,60,101,192
2,41,113,161
2,65,118,0
2,60,118,0
2,57,95,0
2,64,123,22
2,41,101,192
2,60,127,159
2,57,95,43
2,41,74,165
2,40,101,154
2,65,113,0
2,55,85,0
2,60,101,0
2,64,127,65
2,60,106,81
2,55,82,0
2,55,113,22
2,52,95,191
2,55,101,106
2,60,113,86
2,50,90,0
2,53,82,0
2,57,82,0
2,50,101,90
2,60,95,113
2,38,75,22
2,60,66,192
2,65,54,21
2,60,79,49
2,55,90,126
2,43,101,0
2,59,79,0
2,55,79,16
2,62,123,49
2,43,74,102
2,62,73,191
2,67,82,44
2,45,127,209
2,57,118,0
2,60,127,0
2,64,123,0
2,67,127,161
2,60,123,0
2,64,127,0
2,57,113,39
2,45,123,0
2,64,118,107
2,60,123,96
2,57,118,0
2,59,123,7
2,40,123,0
2,62,127,0
2,55,101,0
2,55,123,28
2,52,101,16
2,59,123,39
2,62,127,21
2,59,113,95
2,52,118,97
2,55,118,106
2,57,123,0
2,64,127,0
2,60,127,0
2,53,95,96
2,57,79,123
2,41,123,161
2,57,95,96
2,53,118,192
2,60,127,17
2,57,85,16
2,55,106,16
2,64,118,0
2,60,127,0
2,55,106,55
2,59,106,123
2,43,95,0
2,55,95,0
2,62,113,0
2,43,95,11
2,55,95,16
2,59,127,90
2,45,127,182
2,57,118,0
2,60,127,0
2,64,123,0
2,67,127,162
2,60,123,0
2,64,127,0
2,57,113,38
2,45,123,0
2,64,118,112
2,60,123,95
2,57,118,17
2,59,123,5
2,40,123,0
2,62,127,0
2,55,101,0
2,55,123,25
2,52,101,10
2,59,123,33
2,62,127,11
2,59,113,96
2,52,118,96
2,55,118,103
2,57,123,0
2,64,127,0
2,60,127,0
2,53,95,97
2,57,79,123
2,41,123,170
2,57,95,97
2,53,118,192
2,60,127,22
2,57,85,22
2,55,106,16
2,64,118,0
2,60,127,0
2,55,106,58
2,59,106,124
2,43,95,0
2,55,95,0
2,62,113,0
2,43,95,12
2,55,95,16
2,59,127,89
2,60,90,182
2,64,113,0
2,36,123,0
2,67,101,0
2,60,118,54
2,48,95,28
2,55,118,95
2,60,123,5
2,62,118,38
2,64,127,11
2,55,118,27
2,62,127,16
2,59,123,146
2,62,127,0
2,55,101,0
2,52,123,267
2,55,118,107
2,59,101,42
2,62,127,75
2,52,113,70
2,64,127,54
2,57,118,0
2,53,113,0
2,60,118,0
2,41,113,0
2,48,95,139
2,53,78,75
2,48,78,96
2,60,127,34
2,55,127,0
2,55,127,17
2,60,127,0
2,48,106,0
2,60,118,29
2,48,113,0
2,64,118,0
2,67,123,0
2,67,113,43
2,62,127,0
2,60,127,17
2,55,123,4
2,62,127,0
2,59,123,0
2,43,113,0
2,50,118,28
2,55,123,39
2,57,123,44
2,59,123,27
2,50,127,85
2,65,123,92
2,60,106,0
2,69,118,0
2,50,113,0
2,57,101,7
2,72,127,286
2,67,127,0
2,69,82,0
2,65,127,12
2,57,127,91
2,72,127,48
2,67,127,0
2,55,95,0
2,71,118,0
2,67,95,0
2,62,113,11
2,67,127,353
2,76,127,0
2,67,90,28
2,74,123,0
2,62,118,14
2,71,127,20
2,74,127,0
2,67,123,0
2,69,123,64
2,74,123,0
2,65,106,0
2,69,101,0
2,60,101,0
2,50,85,0
2,48,95,0
2,57,95,27
2,62,123,0
2,64,127,33
2,65,127,35
2,64,127,98
2,62,123,65
2,57,118,50
2,65,118,113
2,69,123,0
2,60,118,0
2,55,113,15
2,59,127,0
2,62,127,0
2,43,90,0
2,45,113,0
2,50,118,59
2,62,127,22
2,57,127,0
2,50,118,7
2,43,101,11
2,59,127,0
2,62,123,0
2,55,95,0
2,45,127,417
2,57,118,0
2,60,127,0
2,64,123,0
2,67,127,164
2,60,123,0
2,64,127,0
2,57,113,41
2,45,123,0
2,64,118,119
2,60,123,96
2,57,118,27
2,59,123,6
2,40,123,0
2,62,127,0
2,55,101,0
2,55,123,27
2,52,101,11
2,59,123,37
2,62,127,16
2,59,113,97
2,52,118,96
2,55,118,100
2,57,123,0
2,64,127,0
2,60,127,0
2,53,95,97
