track,note,velocity,time
0,35,105,2630
0,42,85,0
0,81,52,0
0,70,63,2
0,44,64,74
0,44,49,76
0,81,47,0
0,35,99,76
0,42,79,0
0,70,49,2
0,40,95,74
0,44,64,76
0,81,49,0
0,35,105,76
0,42,71,0
0,70,61,2
0,42,60,74
0,70,47,2
0,44,49,74
0,81,52,0
0,42,79,76
0,70,63,2
0,35,101,74
0,44,59,0
0,81,47,0
0,44,49,76
0,40,95,76
0,42,85,0
0,70,61,2
0,44,59,74
0,81,49,0
0,35,99,76
0,46,66,0
0,70,65,2
0,70,40,76
0,35,105,74
0,42,85,0
0,81,52,0
0,70,63,2
0,44,64,74
0,44,49,76
0,81,47,0
0,35,99,76
0,42,79,0
0,70,49,2
0,40,95,74
0,44,64,76
0,81,49,0
0,35,105,76
0,42,71,0
0,70,61,2
0,42,60,74
0,70,47,2
0,44,49,74
0,81,52,0
0,42,79,76
0,70,63,2
0,35,101,74
0,44,59,0
0,81,47,0
0,44,49,76
0,40,95,76
0,42,85,0
0,70,61,2
0,40,65,74
0,44,59,0
0,81,49,0
0,35,99,76
0,46,66,0
0,70,65,2
0,70,40,76
0,63,95,54
0,56,104,2
0,35,105,18
0,37,49,0
0,42,85,0
0,64,86,0
0,69,39,0
0,81,52,0
0,70,63,2
0,27,96,2
0,39,95,2
0,51,97,0
0,68,122,0
0,44,64,74
0,69,19,0
0,58,99,4
0,44,49,18
0,69,35,0
0,81,47,0
0,70,107,6
0,35,99,22
0,37,39,0
0,42,79,0
0,64,76,0
0,69,19,0
0,70,49,2
0,27,92,2
0,40,95,74
0,62,78,0
0,69,39,0
0,44,64,52
0,69,19,0
0,81,49,0
0,54,100,4
0,35,105,18
0,37,39,0
0,42,71,0
0,64,86,0
0,69,35,0
0,70,61,2
0,27,92,2
0,66,108,2
0,37,49,36
0,42,60,0
0,64,76,0
0,69,19,0
0,70,47,2
0,27,92,2
0,44,49,74
0,69,39,0
0,81,52,0
0,42,79,8
0,69,19,0
0,70,63,2
0,35,101,52
0,37,49,0
0,44,59,0
0,64,86,0
0,69,35,0
0,81,47,0
0,27,92,4
0,44,49,12
0,69,19,0
0,40,95,24
0,42,85,0
0,62,78,0
0,69,39,0
0,70,61,2
0,44,59,14
0,69,19,0
0,81,49,0
0,35,99,38
0,37,39,0
0,46,66,0
0,64,76,0
0,69,35,0
0,70,65,2
0,69,19,42
0,70,40,2
0,35,105,4
0,37,49,0
0,42,85,0
0,64,86,0
0,69,39,0
0,81,52,0
0,70,63,2
0,27,96,2
0,44,64,34
0,69,19,0
0,44,49,70
0,69,35,0
0,81,47,0
0,35,99,22
0,37,39,0
0,42,79,0
0,64,76,0
0,69,19,0
0,70,49,2
0,27,92,2
0,40,95,10
0,62,78,0
0,69,39,0
0,44,64,32
0,69,19,0
0,81,49,0
0,35,105,34
0,37,39,0
0,42,71,0
0,64,86,0
0,69,35,0
0,70,61,2
0,27,92,2
0,37,49,12
0,42,60,0
0,64,76,0
0,69,19,0
0,70,47,2
0,27,92,2
0,44,49,44
0,69,39,0
0,81,52,0
0,42,79,24
0,69,19,0
0,70,63,2
0,35,101,48
0,37,49,0
0,44,59,0
0,64,86,0
0,69,35,0
0,81,47,0
0,27,92,4
0,44,49,28
0,69,19,0
0,40,95,8
0,42,85,0
0,62,78,0
0,69,39,0
0,70,61,2
0,40,65,30
0,44,59,0
0,69,19,0
0,81,49,0
0,35,99,50
0,37,39,0
0,46,66,0
0,64,76,0
0,69,35,0
0,70,65,2
0,69,19,14
0,70,40,2
0,63,88,4
0,61,95,4
0,56,93,2
0,35,105,18
0,37,49,0
0,42,85,0
0,64,86,0
0,69,39,0
0,81,52,0
0,70,63,2
0,30,96,0
0,42,107,2
0,54,114,0
0,68,114,0
0,44,64,74
0,69,19,0
0,58,97,4
0,44,49,18
0,69,35,0
0,81,47,0
0,70,105,6
0,35,99,22
0,37,39,0
0,42,79,0
0,64,76,0
0,69,19,0
0,70,49,2
0,30,92,2
0,40,95,74
0,62,78,0
0,69,39,0
0,44,64,30
0,69,19,0
0,81,49,0
0,54,95,12
0,35,105,4
0,37,39,0
0,42,71,0
0,64,86,0
0,69,35,0
0,70,61,2
0,30,92,2
0,66,103,2
0,37,49,36
0,42,60,0
0,64,76,0
0,69,19,0
0,70,47,2
0,30,92,2
0,44,49,74
0,69,39,0
0,81,52,0
0,42,79,76
0,69,19,0
0,70,63,2
0,35,101,18
0,37,49,0
0,44,59,0
0,64,86,0
0,69,35,0
0,81,47,0
0,30,92,4
0,44,49,76
0,69,19,0
0,58,90,4
0,40,95,18
0,42,85,0
0,62,78,0
0,69,39,0
0,70,61,2
0,63,104,4
0,70,98,0
0,44,59,58
0,69,19,0
0,81,49,0
0,56,102,4
0,35,99,18
0,37,39,0
0,46,66,0
0,64,76,0
0,69,35,0
0,70,65,2
0,30,92,2
0,68,110,2
0,69,19,68
0,70,40,2
0,35,105,20
0,37,49,0
0,42,85,0
0,64,86,0
0,69,39,0
0,81,52,0
0,70,63,2
0,25,96,2
0,44,64,74
0,69,19,0
0,54,97,4
0,44,49,18
0,69,35,0
0,81,47,0
0,66,105,0
0,35,99,38
0,37,39,0
0,42,79,0
0,64,76,0
0,69,19,0
0,70,49,2
0,25,92,2
0,40,95,74
0,62,78,0
0,69,39,0
0,44,64,52
0,69,19,0
0,81,49,0
0,53,93,4
0,35,105,18
0,37,39,0
0,42,71,0
0,64,86,0
0,69,35,0
0,70,61,2
0,25,92,2
0,65,101,2
0,37,49,32
0,42,60,0
0,64,76,0
0,69,19,0
0,70,47,2
0,25,92,2
0,44,49,74
0,69,39,0
0,81,52,0
0,42,79,76
0,69,19,0
0,70,63,2
0,35,101,40
0,37,49,0
0,44,59,0
0,64,86,0
0,69,35,0
0,81,47,0
0,25,92,4
0,44,49,76
0,69,19,0
0,49,95,4
0,40,95,18
0,42,85,0
0,62,78,0
0,69,39,0
0,70,61,2
0,61,103,4
0,40,65,74
0,44,59,0
0,69,19,0
0,81,49,0
0,51,98,4
0,35,99,18
0,37,39,0
0,46,66,0
0,64,76,0
0,69,35,0
0,70,65,2
0,25,92,2
0,63,106,2
0,69,19,34
0,70,40,2
0,59,89,4
0,35,105,20
0,37,49,0
0,42,85,0
0,64,86,0
0,69,39,0
0,81,52,0
0,70,63,2
0,23,96,2
0,35,97,2
0,47,97,0
0,44,64,74
0,69,19,0
0,44,49,12
0,69,35,0
0,81,47,0
0,35,99,44
0,37,39,0
0,42,79,0
0,64,76,0
0,69,19,0
0,70,49,2
0,23,92,2
0,54,87,4
0,40,95,14
0,62,78,0
0,69,39,0
0,66,95,6
0,44,64,46
0,69,19,0
0,81,49,0
0,56,82,4
0,35,105,18
0,37,39,0
0,42,71,0
0,64,86,0
0,69,35,0
0,70,61,2
0,23,92,2
0,68,90,0
0,37,49,28
0,42,60,0
0,64,76,0
0,69,19,0
0,70,47,2
0,23,92,0
0,44,49,30
0,69,39,0
0,81,52,0
0,42,79,30
0,69,19,0
0,70,63,2
0,35,101,18
0,37,49,0
0,44,59,0
0,64,86,0
0,69,35,0
0,81,47,0
0,23,92,4
0,44,49,52
0,69,19,0
0,40,95,50
0,42,85,0
0,62,78,0
0,69,39,0
0,70,61,2
0,44,59,26
0,69,19,0
0,81,49,0
0,35,99,28
0,37,39,0
0,46,66,0
0,64,76,0
0,69,35,0
0,70,65,2
0,35,92,0
0,69,19,60
0,70,40,2
0,35,105,0
0,37,49,0
0,42,85,0
0,64,86,0
0,69,39,0
0,81,52,0
0,70,63,2
0,23,96,2
0,44,64,42
0,69,19,0
0,44,49,56
0,69,35,0
0,81,47,0
0,35,99,12
0,37,39,0
0,42,79,0
0,64,76,0
0,69,19,0
0,70,49,2
0,23,92,2
0,40,95,4
0,62,78,0
0,69,39,0
0,44,64,4
0,69,19,0
0,81,49,0
0,35,105,40
0,37,39,0
0,42,71,0
0,64,86,0
0,69,35,0
0,70,61,2
0,23,92,2
0,37,49,30
0,42,60,0
0,64,76,0
0,69,19,0
0,70,47,2
0,23,92,0
0,44,49,20
0,69,39,0
0,81,52,0
0,42,79,42
0,69,19,0
0,70,63,2
0,35,101,24
0,37,49,0
0,44,59,0
0,64,86,0
0,69,35,0
0,81,47,0
0,23,92,4
0,44,49,12
0,69,19,0
0,40,95,26
0,42,85,0
0,62,78,0
0,69,39,0
0,70,61,2
0,40,65,16
0,44,59,0
0,69,19,0
0,81,49,0
0,35,99,16
0,37,39,0
0,46,66,0
0,64,76,0
0,69,35,0
0,70,65,2
0,23,92,2
0,69,19,26
0,70,40,2
0,75,102,0
0,35,105,20
0,37,49,0
0,42,85,0
0,64,86,0
0,69,39,0
0,70,63,2
0,27,96,2
0,39,81,2
0,51,83,0
0,58,79,0
0,63,86,0
0,68,108,0
0,44,64,74
0,69,19,0
0,44,49,18
0,69,35,0
0,70,93,6
0,35,99,22
0,37,39,0
0,42,79,0
0,64,76,0
0,69,19,0
0,70,49,2
0,27,92,2
0,40,95,22
0,62,78,0
0,69,39,0
0,63,81,6
0,44,64,10
0,69,19,0
0,35,105,20
0,37,39,0
0,42,71,0
0,64,86,0
0,69,35,0
0,70,61,2
0,27,92,2
0,66,87,2
0,37,49,24
0,42,60,0
0,64,76,0
0,69,19,0
0,70,47,2
0,27,92,2
0,44,49,38
0,69,39,0
0,42,79,4
0,69,19,0
0,70,63,2
0,35,101,30
0,37,49,0
0,44,59,0
0,64,86,0
0,69,35,0
0,27,92,4
0,44,49,76
0,69,19,0
0,40,95,52
0,42,85,0
0,62,78,0
0,69,39,0
0,70,61,2
0,44,59,74
0,69,19,0
0,35,99,76
0,37,39,0
0,46,66,0
0,64,76,0
0,69,35,0
0,70,65,2
0,25,92,2
0,69,19,20
0,70,40,2
0,35,105,6
0,37,49,0
0,42,85,0
0,64,86,0
0,69,39,0
0,70,63,2
0,27,96,2
0,44,64,34
0,69,19,0
0,44,49,40
0,69,35,0
0,35,99,22
0,37,39,0
0,42,79,0
0,64,76,0
0,69,19,0
0,70,49,2
0,27,92,2
0,40,95,4
0,62,78,0
0,69,39,0
0,44,64,2
0,69,19,0
0,35,105,56
0,37,39,0
0,42,71,0
0,64,86,0
0,69,35,0
0,70,61,2
0,27,92,2
0,37,49,26
0,42,60,0
0,64,76,0
0,69,19,0
0,70,47,2
0,27,92,0
0,44,49,6
0,69,39,0
0,42,79,16
0,69,19,0
0,70,63,2
0,35,101,30
0,37,49,0
0,44,59,0
0,64,86,0
0,69,35,0
0,27,92,4
0,44,49,42
0,69,19,0
0,40,95,38
0,42,85,0
0,62,78,0
0,69,39,0
0,70,61,2
0,44,59,4
0,69,19,0
0,35,99,2
0,37,39,0
0,46,66,0
0,64,76,0
0,69,35,0
0,70,65,2
0,25,92,2
0,69,19,2
0,70,40,2
0,63,74,4
0,35,105,14
0,37,49,0
0,42,85,0
0,64,86,0
0,69,39,0
0,70,63,2
0,30,96,0
0,42,88,2
0,54,83,0
0,68,100,0
0,44,64,56
0,69,19,0
0,44,49,76
0,69,35,0
0,70,91,6
0,35,99,22
0,37,39,0
0,42,79,0
0,64,76,0
0,69,19,0
0,70,49,2
0,30,92,2
0,40,95,74
0,62,78,0
0,69,39,0
0,63,96,6
0,44,64,4
0,69,19,0
0,35,105,16
0,37,39,0
0,42,71,0
0,64,86,0
0,69,35,0
0,70,61,2
0,30,92,2
0,66,89,2
0,37,49,36
0,42,60,0
0,64,76,0
0,69,19,0
0,70,47,2
0,30,92,2
0,44,49,74
0,69,39,0
0,42,79,76
0,69,19,0
0,70,63,2
0,35,101,18
0,37,49,0
0,44,59,0
0,64,86,0
0,69,35,0
0,30,92,4
0,44,49,76
0,69,19,0
0,40,95,52
0,42,85,0
0,62,78,0
0,69,39,0
0,70,61,2
0,63,90,4
0,70,84,0
0,44,59,58
0,69,19,0
0,35,99,76
0,37,39,0
0,46,66,0
0,64,76,0
0,69,35,0
0,70,65,2
0,30,92,2
0,68,96,2
0,69,19,68
0,70,40,2
0,35,105,12
0,37,49,0
0,42,85,0
0,64,86,0
0,69,39,0
0,70,63,2
0,25,96,2
0,37,77,2
0,49,80,0
0,44,64,74
0,69,19,0
0,44,49,76
0,69,35,0
0,66,91,0
0,35,99,38
0,37,39,0
0,42,79,0
0,64,76,0
0,69,19,0
0,70,49,2
0,25,92,2
0,40,95,74
0,62,78,0
0,69,39,0
0,44,64,52
0,69,19,0
0,35,105,76
0,37,39,0
0,42,71,0
0,64,86,0
0,69,35,0
0,70,61,2
0,25,92,2
0,65,87,2
0,37,49,32
0,42,60,0
0,64,76,0
0,69,19,0
0,70,47,2
0,25,92,2
0,44,49,74
0,69,39,0
0,42,79,76
0,69,19,0
0,70,63,2
0,35,101,40
0,37,49,0
0,44,59,0
0,64,86,0
0,69,35,0
0,25,92,4
0,44,49,76
0,69,19,0
0,40,95,52
0,42,85,0
0,62,78,0
0,69,39,0
0,70,61,2
0,61,89,4
0,44,59,74
0,69,19,0
0,35,99,76
0,37,39,0
0,46,66,0
0,64,76,0
0,69,35,0
0,70,65,2
0,25,92,2
0,63,92,2
0,69,19,74
0,70,40,2
0,35,105,2
0,37,49,0
0,42,85,0
0,64,86,0
0,69,39,0
0,70,63,2
0,23,96,2
0,35,83,2
0,47,83,0
0,44,64,74
0,69,19,0
0,44,49,76
0,69,35,0
0,35,99,44
0,37,39,0
0,42,79,0
0,64,76,0
0,69,19,0
0,70,49,2
0,23,92,2
0,40,95,74
0,62,78,0
0,69,39,0
0,66,81,6
0,44,64,52
0,69,19,0
0,35,105,76
0,37,39,0
0,42,71,0
0,64,86,0
0,69,35,0
0,70,61,2
0,23,92,2
0,68,76,2
0,37,49,36
0,42,60,0
0,64,76,0
0,69,19,0
0,70,47,2
0,23,92,2
0,44,49,74
0,69,39,0
0,42,79,76
0,69,19,0
0,70,63,2
0,35,101,40
0,37,49,0
0,44,59,0
0,64,86,0
0,69,35,0
0,23,92,4
0,44,49,76
0,69,19,0
0,40,95,50
0,42,85,0
0,62,78,0
0,69,39,0
0,70,61,2
0,44,59,74
0,69,19,0
0,35,99,76
0,37,39,0
0,46,66,0
0,64,76,0
0,69,35,0
0,70,65,2
0,35,92,2
0,69,19,74
0,70,40,2
0,35,105,42
0,37,49,0
0,42,85,0
0,64,86,0
0,69,39,0
0,70,63,2
0,23,96,2
0,44,64,74
0,69,19,0
0,44,49,76
0,69,35,0
0,35,99,44
0,37,39,0
0,42,79,0
0,64,76,0
0,69,19,0
0,70,49,2
0,23,92,2
0,40,95,74
0,62,78,0
0,69,39,0
0,44,64,52
0,69,19,0
0,35,105,76
0,37,39,0
0,42,71,0
0,64,86,0
0,69,35,0
0,70,61,2
0,23,92,2
0,37,49,36
0,42,60,0
0,64,76,0
0,69,19,0
0,70,47,2
0,23,92,2
0,44,49,74
0,69,39,0
0,42,79,76
0,69,19,0
0,70,63,2
0,35,101,40
0,37,49,0
0,44,59,0
0,64,86,0
0,69,35,0
0,23,92,4
0,44,49,76
0,69,19,0
0,40,95,50
0,42,85,0
0,62,78,0
0,69,39,0
0,70,61,2
0,44,59,74
0,69,19,0
0,35,99,58
0,37,39,0
0,46,66,0
0,64,76,0
0,69,35,0
0,70,65,2
0,23,92,2
0,69,19,74
0,70,40,2
0,54,68,50
0,59,68,0
0,63,68,0
0,35,105,22
0,37,49,0
0,42,85,0
0,64,86,0
0,69,39,0
0,70,63,2
0,23,96,2
0,35,74,2
0,47,79,0
0,54,83,0
0,59,90,0
0,63,93,0
0,44,64,74
0,69,19,0
0,44,49,76
0,69,35,0
0,35,99,22
0,37,39,0
0,42,79,0
0,64,76,0
0,69,19,0
0,70,49,2
0,23,92,2
0,40,95,74
0,62,78,0
0,69,39,0
0,61,85,0
0,44,64,48
0,69,19,0
0,35,105,76
0,37,39,0
0,42,71,0
0,64,86,0
0,69,35,0
0,70,61,2
0,23,92,2
0,59,92,2
0,37,49,32
0,42,60,0
0,64,76,0
0,69,19,0
