track,note,velocity,time
1,69,92,11520
1,69,0,94
1,71,92,2
1,71,0,94
1,64,92,2
1,64,0,94
1,67,92,2
1,67,0,862
1,69,92,386
1,69,0,94
1,71,92,2
1,71,0,94
1,64,92,2
1,64,0,94
1,67,92,2
1,67,0,286
1,71,92,2
1,71,0,94
1,69,92,2
1,69,0,286
1,67,92,2
1,67,0,94
1,66,92,2
1,66,0,286
1,62,92,2
1,62,0,94
1,64,92,2
1,64,0,190
1,64,92,2
1,64,0,286
1,76,92,1154
1,76,0,94
1,76,92,2
1,76,0,94
1,76,92,2
1,76,0,94
1,76,92,2
1,76,0,286
1,74,92,2
1,74,0,94
1,72,92,2
1,72,0,190
1,71,92,2
1,71,0,478
1,78,92,962
1,78,0,94
1,78,92,2
1,78,0,94
1,78,92,2
1,78,0,94
1,78,92,2
1,78,0,46
1,79,92,2
1,79,0,46
1,78,92,2
1,78,0,190
1,76,92,2
1,76,0,94
1,76,92,2
1,72,92,96
1,72,0,94
1,71,92,2
1,71,0,94
1,69,92,2
1,69,0,94
1,71,92,2
1,76,0,94
1,71,0,192
1,69,92,2
1,69,0,94
1,66,92,2
1,66,0,286
1,78,92,2
1,78,0,94
1,79,92,2
1,79,0,190
1,78,92,2
1,78,0,190
1,76,92,2
1,76,0,478
1,78,92,386
1,78,0,94
1,78,92,2
1,78,0,94
1,78,92,2
1,78,0,94
1,78,92,2
1,78,0,46
1,79,92,2
1,79,0,46
1,78,92,2
1,78,0,190
1,76,92,2
1,76,0,94
1,76,92,2
1,72,92,96
1,72,0,94
1,71,92,2
1,71,0,94
1,69,92,2
1,69,0,94
1,71,92,2
1,76,0,94
1,71,0,192
1,79,92,2
1,79,0,94
1,78,92,2
1,78,0,286
1,79,92,2
1,79,0,94
1,79,92,2
1,79,0,286
1,76,92,1730
1,76,0,94
1,79,92,2
1,79,0,94
1,76,92,2
1,76,0,94
1,79,92,2
1,79,0,286
1,76,92,2
1,76,0,94
1,81,92,2
1,81,0,94
1,79,92,2
1,79,0,382
1,74,92,1826
1,74,0,94
1,76,92,2
1,76,0,94
1,79,92,2
1,79,0,94
1,76,92,2
1,76,0,94
1,79,92,2
1,79,0,190
1,76,92,2
1,76,0,94
1,81,92,98
1,81,0,46
1,82,92,2
1,82,0,46
1,81,92,2
1,81,0,94
1,81,92,2
1,81,0,94
1,79,92,2
1,79,0,94
1,79,92,2
1,79,0,190
1,76,92,2
1,76,0,94
1,67,92,98
1,67,0,94
1,79,92,2
1,79,0,766
1,81,92,2
1,81,0,574
1,79,92,2
1,79,0,94
1,78,92,2
1,78,0,286
1,76,92,2
1,76,0,94
1,76,92,2
1,76,0,190
1,76,92,2
1,76,0,94
1,74,92,194
1,74,0,94
1,74,92,2
1,74,0,94
1,74,92,2
1,74,0,94
1,74,92,2
1,74,0,94
1,74,92,2
1,74,0,190
1,71,92,2
1,71,0,94
1,69,92,2
1,69,0,286
1,71,92,2
1,71,0,94
1,67,92,2
1,67,0,478
1,74,92,2
1,74,0,94
1,74,92,2
1,74,0,94
1,74,92,2
1,74,0,94
1,74,92,2
1,74,0,94
1,74,92,2
1,74,0,190
1,72,92,2
1,72,0,94
1,71,92,2
1,71,0,190
1,69,92,2
1,69,0,670
1,79,92,770
1,79,0,766
1,81,92,2
1,81,0,574
1,79,92,2
1,79,0,94
1,78,92,2
1,78,0,286
1,76,92,2
1,76,0,94
1,76,92,2
1,76,0,190
1,76,92,2
1,76,0,94
1,74,92,194
1,74,0,94
1,74,92,2
1,74,0,94
1,74,92,2
1,74,0,94
1,74,92,2
1,74,0,94
1,74,92,2
1,74,0,190
1,71,92,2
1,71,0,94
1,69,92,2
1,69,0,286
1,71,92,2
1,71,0,94
1,67,92,2
1,67,0,478
1,74,92,2
1,74,0,94
1,74,92,2
1,74,0,94
1,74,92,2
1,74,0,94
1,74,92,2
1,74,0,94
1,74,92,2
1,74,0,190
1,71,92,2
1,71,0,94
1,76,92,2
1,76,0,190
1,74,92,2
1,74,0,670
1,74,92,674
1,74,0,94
1,79,92,2
1,79,0,94
1,79,92,2
1,79,0,46
1,79,92,2
1,79,0,94
1,79,92,2
1,79,0,46
1,79,92,2
1,79,0,94
1,78,92,2
1,78,0,382
1,69,92,2
1,69,0,94
1,71,92,2
1,71,0,94
1,64,92,2
1,64,0,94
1,67,92,2
1,67,0,862
1,69,92,386
1,69,0,94
1,71,92,2
1,71,0,94
1,64,92,2
1,64,0,94
1,67,92,2
1,67,0,286
1,71,92,2
1,71,0,94
1,69,92,2
1,69,0,286
1,67,92,2
1,67,0,94
1,66,92,2
1,66,0,286
1,62,92,2
1,62,0,94
1,64,92,2
1,64,0,190
1,64,92,2
1,64,0,286
1,76,92,1154
1,76,0,94
1,76,92,2
1,76,0,94
1,76,92,2
1,76,0,94
1,76,92,2
1,76,0,286
1,74,92,2
1,74,0,94
1,72,92,2
1,72,0,190
1,71,92,2
1,71,0,478
1,78,92,962
1,78,0,94
1,78,92,2
1,78,0,94
1,78,92,2
1,78,0,94
1,78,92,2
1,78,0,46
1,79,92,2
1,79,0,46
1,78,92,2
1,78,0,190
1,76,92,2
1,76,0,94
1,76,92,2
1,72,92,96
1,72,0,94
1,71,92,2
1,71,0,94
1,69,92,2
1,69,0,94
1,71,92,2
1,76,0,94
1,71,0,192
1,69,92,2
1,69,0,94
1,66,92,2
1,66,0,286
1,78,92,2
1,78,0,94
1,79,92,2
1,79,0,190
1,78,92,2
1,78,0,190
1,76,92,2
1,76,0,478
1,78,92,386
1,78,0,94
1,78,92,2
1,78,0,94
1,78,92,2
1,78,0,94
1,78,92,2
1,78,0,46
1,79,92,2
1,79,0,46
1,78,92,2
1,78,0,190
1,76,92,2
1,76,0,94
1,76,92,2
1,72,92,96
1,72,0,94
1,71,92,2
1,71,0,94
1,69,92,2
1,69,0,94
1,71,92,2
1,76,0,94
1,71,0,192
1,79,92,2
1,79,0,94
1,78,92,2
1,78,0,286
1,79,92,2
1,79,0,94
1,79,92,2
1,79,0,286
1,76,92,1730
1,76,0,94
1,79,92,2
1,79,0,94
1,76,92,2
1,76,0,94
1,79,92,2
1,79,0,286
1,76,92,2
1,76,0,94
1,81,92,2
1,81,0,94
1,79,92,2
1,79,0,382
1,74,92,1826
1,74,0,94
1,76,92,2
1,76,0,94
1,79,92,2
1,79,0,94
1,76,92,2
1,76,0,94
1,79,92,2
1,79,0,190
1,76,92,2
1,76,0,94
1,81,92,98
1,81,0,46
1,82,92,2
1,82,0,46
1,81,92,2
1,81,0,94
1,81,92,2
1,81,0,94
1,79,92,2
1,79,0,94
1,79,92,2
1,79,0,190
1,76,92,2
1,76,0,94
1,67,92,98
1,67,0,94
1,79,92,2
1,79,0,766
1,81,92,2
1,81,0,574
1,79,92,2
1,79,0,94
1,78,92,2
1,78,0,286
1,76,92,2
1,76,0,94
1,76,92,2
1,76,0,190
1,76,92,2
1,76,0,94
1,74,92,194
1,74,0,94
1,74,92,2
1,74,0,94
1,74,92,2
1,74,0,94
1,74,92,2
1,74,0,94
1,74,92,2
1,74,0,190
1,71,92,2
1,71,0,94
1,69,92,2
1,69,0,286
1,71,92,2
1,71,0,94
1,67,92,2
1,67,0,478
1,74,92,2
1,74,0,94
1,74,92,2
1,74,0,94
1,74,92,2
1,74,0,94
1,74,92,2
1,74,0,94
1,74,92,2
1,74,0,190
1,72,92,2
1,72,0,94
1,71,92,2
1,71,0,190
1,69,92,2
1,69,0,670
1,79,92,770
1,79,0,766
1,81,92,2
1,81,0,574
1,79,92,2
1,79,0,94
1,78,92,2
1,78,0,286
1,76,92,2
1,76,0,94
1,76,92,2
1,76,0,190
1,76,92,2
1,76,0,94
1,74,92,194
1,74,0,94
1,74,92,2
1,74,0,94
1,74,92,2
1,74,0,94
1,74,92,2
1,74,0,94
1,74,92,2
1,74,0,190
1,71,92,2
1,71,0,94
1,69,92,2
1,69,0,286
1,71,92,2
1,71,0,94
1,67,92,2
1,67,0,478
1,74,92,2
1,74,0,94
1,74,92,2
1,74,0,94
1,74,92,2
1,74,0,94
1,74,92,2
1,74,0,94
1,74,92,2
1,74,0,190
1,71,92,2
1,71,0,94
1,76,92,2
1,76,0,190
1,74,92,2
1,74,0,670
1,69,92,770
1,69,0,94
1,71,92,2
1,71,0,190
1,67,92,2
1,67,0,1246
1,69,92,2
1,69,0,94
1,71,92,2
1,71,0,190
1,67,92,2
1,67,0,286
1,71,92,2
1,71,0,94
1,69,92,2
1,69,0,190
1,67,92,2
1,67,0,190
1,66,92,2
1,66,0,286
1,62,92,2
1,62,0,94
1,64,92,2
1,64,0,286
1,67,92,2
1,67,0,94
1,69,92,2
1,69,0,1246
1,76,92,2
1,76,0,190
1,74,92,2
1,74,0,94
1,72,92,2
1,72,0,286
1,67,92,2
1,67,0,94
1,71,92,2
1,71,0,286
1,79,92,386
1,79,0,190
2,69,75,2304
2,69,0,94
2,71,75,2
2,71,0,190
2,67,75,2
2,67,0,1246
2,69,75,2
2,69,0,94
2,71,75,2
2,71,0,190
2,67,75,2
2,67,0,286
2,71,75,2
2,71,0,94
2,69,75,2
2,69,0,190
2,67,75,2
2,67,0,190
2,66,75,2
2,66,0,286
2,62,75,2
2,62,0,94
2,64,75,2
2,64,0,286
2,67,75,2
2,67,0,94
2,69,75,2
2,69,0,1246
2,64,75,2
2,64,0,190
2,62,75,2
2,62,0,94
2,60,75,2
2,60,0,286
2,55,75,2
2,55,0,94
2,59,75,2
2,59,0,286
2,55,75,2
2,55,0,94
2,59,75,2
2,59,0,94
2,62,75,2
2,62,0,382
2,69,75,2
2,69,0,286
2,67,75,2
2,67,0,190
2,71,75,2
2,71,0,94
2,67,75,2
2,67,0,94
2,66,75,2
2,66,0,862
2,71,75,2
2,71,0,94
2,71,75,2
2,71,0,94
2,69,75,2
2,69,0,94
2,67,75,2
2,67,0,382
2,66,75,2
2,66,0,94
2,66,75,2
2,66,0,94
2,67,75,2
2,67,0,94
2,71,75,2
2,71,0,94
2,67,75,2
2,67,0,478
2,69,60,2
2,69,0,94
2,71,60,2
2,71,0,94
2,64,60,2
2,64,0,94
2,67,60,2
2,67,0,766
2,69,60,482
2,69,0,94
2,71,60,2
2,71,0,94
2,64,60,2
2,64,0,94
2,67,60,2
2,67,0,286
2,71,60,2
2,71,0,94
2,69,60,2
2,69,0,286
2,67,60,2
2,67,0,94
2,66,60,2
2,66,0,286
2,62,60,2
2,62,0,94
2,64,60,2
2,64,0,190
2,64,60,2
2,64,0,286
2,64,60,1154
2,64,0,190
2,62,60,2
2,62,0,94
2,60,60,2
2,60,0,286
2,55,60,2
2,55,0,94
2,59,60,2
2,59,0,286
2,55,60,2
2,55,0,94
2,59,60,2
2,59,0,94
2,62,60,2
2,62,0,382
2,69,60,2
2,69,0,286
2,67,60,2
2,67,0,190
2,71,60,2
2,71,0,94
2,67,60,2
2,67,0,94
2,66,60,2
2,66,0,862
2,71,60,2
2,71,0,94
2,71,60,2
2,71,0,94
2,69,60,2
2,69,0,94
2,67,60,2
2,67,0,382
2,66,60,2
2,66,0,94
2,66,60,2
2,66,0,94
2,67,60,2
2,67,0,94
2,71,60,2
2,71,0,94
2,67,60,2
2,67,0,478
2,69,60,2
2,69,0,286
2,67,60,2
2,67,0,190
2,71,60,2
2,71,0,94
2,67,60,2
2,67,0,94
2,66,60,2
2,66,0,862
2,71,60,2
2,71,0,94
2,71,60,2
2,71,0,94
2,69,60,2
2,69,0,94
2,67,60,2
2,67,0,382
2,66,60,2
2,66,0,94
2,66,60,2
2,66,0,94
2,67,60,2
2,67,0,94
2,71,60,2
2,71,0,94
2,67,60,2
2,67,0,478
2,64,60,1538
2,64,0,190
2,67,60,2
2,67,0,94
2,69,60,2
2,69,0,1246
2,64,60,1538
2,64,0,190
2,67,60,2
2,67,0,94
2,69,60,2
2,69,0,1246
2,69,60,13058
2,69,0,94
2,71,60,2
2,71,0,94
2,64,60,2
2,64,0,94
2,67,60,2
2,67,0,766
2,69,60,482
2,69,0,94
2,71,60,2
2,71,0,94
2,64,60,2
2,64,0,94
2,67,60,2
2,67,0,286
2,71,60,2
2,71,0,94
2,69,60,2
2,69,0,286
2,67,60,2
2,67,0,94
2,66,60,2
2,66,0,286
2,62,60,2
2,62,0,94
2,64,60,2
2,64,0,190
2,64,60,2
2,64,0,286
2,64,60,1154
2,64,0,190
2,62,60,2
2,62,0,94
2,60,60,2
2,60,0,286
2,55,60,2
2,55,0,94
2,59,60,2
2,59,0,286
2,55,60,2
2,55,0,94
2,59,60,2
2,59,0,94
2,62,60,2
2,62,0,382
2,69,60,2
2,69,0,286
2,67,60,2
2,67,0,190
2,71,60,2
2,71,0,94
2,67,60,2
2,67,0,94
2,66,60,2
2,66,0,862
2,71,60,2
2,71,0,94
2,71,60,2
2,71,0,94
2,69,60,2
2,69,0,94
2,67,60,2
2,67,0,382
2,66,60,2
2,66,0,94
2,66,60,2
2,66,0,94
2,67,60,2
2,67,0,94
2,71,60,2
2,71,0,94
2,67,60,2
2,67,0,478
2,69,60,2
2,69,0,286
2,67,60,2
2,67,0,190
2,71,60,2
2,71,0,94
2,67,60,2
2,67,0,94
2,66,60,2
2,66,0,862
2,71,60,2
2,71,0,94
2,71,60,2
2,71,0,94
2,69,60,2
2,69,0,94
2,67,60,2
2,67,0,382
2,66,60,2
2,66,0,94
2,66,60,2
2,66,0,94
2,67,60,2
2,67,0,94
2,71,60,2
2,71,0,94
2,67,60,2
2,67,0,478
2,64,60,1538
2,64,0,190
2,67,60,2
2,67,0,94
2,69,60,2
2,69,0,1246
2,64,60,1538
2,64,0,190
2,67,60,2
2,67,0,94
2,69,60,2
2,69,0,1246
2,69,60,12290
2,69,0,94
2,71,60,2
2,71,0,190
2,67,60,2
2,67,0,1246
2,69,60,2
2,69,0,94
2,71,60,2
2,71,0,190
2,67,60,2
2,67,0,286
2,71,60,2
2,71,0,94
2,69,60,2
2,69,0,190
2,67,60,2
2,67,0,190
2,66,60,2
2,66,0,286
2,62,60,2
2,62,0,94
2,64,60,2
2,64,0,286
2,67,60,2
2,67,0,94
2,69,60,2
2,69,0,1246
2,76,60,2
2,76,0,190
2,74,60,2
2,74,0,94
2,72,60,2
2,72,0,286
2,67,60,2
2,67,0,94
2,71,60,2
2,71,0,286
2,79,92,386
2,79,0,190
3,59,60,2304
3,64,60,0
3,59,0,286
3,64,0,0
3,59,60,2
3,64,60,0
3,59,0,1054
3,64,0,0
3,59,60,2
3,59,0,46
3,67,60,2
3,67,0,46
3,64,60,2
3,59,60,96
3,59,0,286
3,64,0,0
3,59,60,2
3,62,60,0
3,59,0,286
3,62,0,0
3,64,60,2
3,64,0,478
3,62,60,2
3,62,0,286
3,60,60,98
3,64,60,96
3,60,0,1150
3,64,0,0
3,60,60,2
3,64,60,0
3,60,0,46
3,64,0,0
3,55,60,2
3,55,0,142
3,60,60,2
3,64,60,0
3,67,60,0
3,60,0,190
3,64,0,0
3,67,0,0
3,55,60,2
3,55,0,190
3,59,60,2
3,59,0,94
3,52,60,2
3,52,0,286
3,55,60,2
3,55,0,958
3,59,60,2
3,64,60,0
3,59,0,478
3,64,0,0
3,59,60,2
3,64,60,0
3,59,0,190
3,64,0,0
3,57,60,2
3,62,60,0
3,57,0,670
3,62,0,0
3,57,60,2
3,57,0,46
3,62,60,2
3,62,0,46
3,66,60,2
3,66,0,46
3,69,60,2
3,69,0,46
3,59,60,2
3,64,60,0
3,59,0,286
3,64,0,0
3,59,60,2
3,64,60,0
3,59,0,382
3,64,0,0
3,57,60,98
3,62,60,0
3,57,0,286
3,62,0,0
3,59,60,2
3,62,60,0
3,59,0,478
3,62,0,0
3,59,60,2
3,64,60,0
3,59,0,286
3,64,0,0
3,59,60,2
3,64,60,0
3,59,0,766
3,64,0,0
3,55,60,2
3,55,0,238
3,59,60,2
3,59,0,94
3,64,60,2
3,64,0,46
3,67,60,2
3,67,0,94
3,59,60,2
3,62,60,0
3,59,0,286
3,62,0,0
3,59,60,2
3,62,60,0
