track,note,velocity,time
2,69,92,11520
2,71,92,2
2,64,92,2
2,67,92,2
2,69,92,386
2,71,92,2
2,64,92,2
2,67,92,2
2,71,92,2
2,69,92,2
2,67,92,2
2,66,92,2
2,62,92,2
2,64,92,2
2,64,92,2
2,76,92,1154
2,76,92,2
2,76,92,2
2,76,92,2
2,74,92,2
2,72,92,2
2,71,92,2
2,78,92,962
2,78,92,2
2,78,92,2
2,78,92,2
2,79,92,2
2,78,92,2
2,76,92,2
2,76,92,2
2,72,92,96
2,71,92,2
2,69,92,2
2,71,92,2
2,69,92,2
2,66,92,2
2,78,92,2
2,79,92,2
2,78,92,2
2,76,92,2
2,78,92,386
2,78,92,2
2,78,92,2
2,78,92,2
2,79,92,2
2,78,92,2
2,76,92,2
2,76,92,2
2,72,92,96
2,71,92,2
2,69,92,2
2,71,92,2
2,79,92,2
2,78,92,2
2,79,92,2
2,79,92,2
2,76,92,1730
2,79,92,2
2,76,92,2
2,79,92,2
2,76,92,2
2,81,92,2
2,79,92,2
2,74,92,1826
2,76,92,2
2,79,92,2
2,76,92,2
2,79,92,2
2,76,92,2
2,81,92,98
2,82,92,2
2,81,92,2
2,81,92,2
2,79,92,2
2,79,92,2
2,76,92,2
2,67,92,98
2,79,92,2
2,81,92,2
2,79,92,2
2,78,92,2
2,76,92,2
2,76,92,2
2,76,92,2
2,74,92,194
2,74,92,2
2,74,92,2
2,74,92,2
2,74,92,2
2,71,92,2
2,69,92,2
2,71,92,2
2,67,92,2
2,74,92,2
2,74,92,2
2,74,92,2
2,74,92,2
2,74,92,2
2,72,92,2
2,71,92,2
2,69,92,2
2,79,92,770
2,81,92,2
2,79,92,2
2,78,92,2
2,76,92,2
2,76,92,2
2,76,92,2
2,74,92,194
2,74,92,2
2,74,92,2
2,74,92,2
2,74,92,2
2,71,92,2
2,69,92,2
2,71,92,2
2,67,92,2
2,74,92,2
2,74,92,2
2,74,92,2
2,74,92,2
2,74,92,2
2,71,92,2
2,76,92,2
2,74,92,2
2,74,92,674
2,79,92,2
2,79,92,2
2,79,92,2
2,79,92,2
2,79,92,2
2,78,92,2
2,69,92,2
2,71,92,2
2,64,92,2
2,67,92,2
2,69,92,386
2,71,92,2
2,64,92,2
2,67,92,2
2,71,92,2
2,69,92,2
2,67,92,2
2,66,92,2
2,62,92,2
2,64,92,2
2,64,92,2
2,76,92,1154
2,76,92,2
2,76,92,2
2,76,92,2
2,74,92,2
2,72,92,2
2,71,92,2
2,78,92,962
2,78,92,2
2,78,92,2
2,78,92,2
2,79,92,2
2,78,92,2
2,76,92,2
2,76,92,2
2,72,92,96
2,71,92,2
2,69,92,2
2,71,92,2
2,69,92,2
2,66,92,2
2,78,92,2
2,79,92,2
2,78,92,2
2,76,92,2
2,78,92,386
2,78,92,2
2,78,92,2
2,78,92,2
2,79,92,2
2,78,92,2
2,76,92,2
2,76,92,2
2,72,92,96
2,71,92,2
2,69,92,2
2,71,92,2
2,79,92,2
2,78,92,2
2,79,92,2
2,79,92,2
2,76,92,1730
2,79,92,2
2,76,92,2
2,79,92,2
2,76,92,2
2,81,92,2
2,79,92,2
2,74,92,1826
2,76,92,2
2,79,92,2
2,76,92,2
2,79,92,2
2,76,92,2
2,81,92,98
2,82,92,2
2,81,92,2
2,81,92,2
2,79,92,2
2,79,92,2
2,76,92,2
2,67,92,98
2,79,92,2
2,81,92,2
2,79,92,2
2,78,92,2
2,76,92,2
2,76,92,2
2,76,92,2
2,74,92,194
2,74,92,2
2,74,92,2
2,74,92,2
2,74,92,2
2,71,92,2
2,69,92,2
2,71,92,2
2,67,92,2
2,74,92,2
2,74,92,2
2,74,92,2
2,74,92,2
2,74,92,2
2,72,92,2
2,71,92,2
2,69,92,2
2,79,92,770
2,81,92,2
2,79,92,2
2,78,92,2
2,76,92,2
2,76,92,2
2,76,92,2
2,74,92,194
2,74,92,2
2,74,92,2
2,74,92,2
2,74,92,2
2,71,92,2
2,69,92,2
2,71,92,2
2,67,92,2
2,74,92,2
2,74,92,2
2,74,92,2
2,74,92,2
2,74,92,2
2,71,92,2
2,76,92,2
2,74,92,2
2,69,92,770
2,71,92,2
2,67,92,2
2,69,92,2
2,71,92,2
2,67,92,2
2,71,92,2
2,69,92,2
2,67,92,2
2,66,92,2
2,62,92,2
2,64,92,2
2,67,92,2
2,69,92,2
2,76,92,2
2,74,92,2
2,72,92,2
2,67,92,2
2,71,92,2
2,79,92,386
3,69,75,2304
3,71,75,2
3,67,75,2
3,69,75,2
3,71,75,2
3,67,75,2
3,71,75,2
3,69,75,2
3,67,75,2
3,66,75,2
3,62,75,2
3,64,75,2
3,67,75,2
3,69,75,2
3,64,75,2
3,62,75,2
3,60,75,2
3,55,75,2
3,59,75,2
3,55,75,2
3,59,75,2
3,62,75,2
3,69,75,2
3,67,75,2
3,71,75,2
3,67,75,2
3,66,75,2
3,71,75,2
3,71,75,2
3,69,75,2
3,67,75,2
3,66,75,2
3,66,75,2
3,67,75,2
3,71,75,2
3,67,75,2
3,69,60,2
3,71,60,2
3,64,60,2
3,67,60,2
3,69,60,482
3,71,60,2
3,64,60,2
3,67,60,2
3,71,60,2
3,69,60,2
3,67,60,2
3,66,60,2
3,62,60,2
3,64,60,2
3,64,60,2
3,64,60,1154
3,62,60,2
3,60,60,2
3,55,60,2
3,59,60,2
3,55,60,2
3,59,60,2
3,62,60,2
3,69,60,2
3,67,60,2
3,71,60,2
3,67,60,2
3,66,60,2
3,71,60,2
3,71,60,2
3,69,60,2
3,67,60,2
3,66,60,2
3,66,60,2
3,67,60,2
3,71,60,2
3,67,60,2
3,69,60,2
3,67,60,2
3,71,60,2
3,67,60,2
3,66,60,2
3,71,60,2
3,71,60,2
3,69,60,2
3,67,60,2
3,66,60,2
3,66,60,2
3,67,60,2
3,71,60,2
3,67,60,2
3,64,60,1538
3,67,60,2
3,69,60,2
3,64,60,1538
3,67,60,2
3,69,60,2
3,69,60,13058
3,71,60,2
3,64,60,2
3,67,60,2
3,69,60,482
3,71,60,2
3,64,60,2
3,67,60,2
3,71,60,2
3,69,60,2
3,67,60,2
3,66,60,2
3,62,60,2
3,64,60,2
3,64,60,2
3,64,60,1154
3,62,60,2
3,60,60,2
3,55,60,2
3,59,60,2
3,55,60,2
3,59,60,2
3,62,60,2
3,69,60,2
3,67,60,2
3,71,60,2
3,67,60,2
3,66,60,2
3,71,60,2
3,71,60,2
3,69,60,2
3,67,60,2
3,66,60,2
3,66,60,2
3,67,60,2
3,71,60,2
3,67,60,2
3,69,60,2
3,67,60,2
3,71,60,2
3,67,60,2
3,66,60,2
3,71,60,2
3,71,60,2
3,69,60,2
3,67,60,2
3,66,60,2
3,66,60,2
3,67,60,2
3,71,60,2
3,67,60,2
3,64,60,1538
3,67,60,2
3,69,60,2
3,64,60,1538
3,67,60,2
3,69,60,2
3,69,60,12290
3,71,60,2
3,67,60,2
3,69,60,2
3,71,60,2
3,67,60,2
3,71,60,2
3,69,60,2
3,67,60,2
3,66,60,2
3,62,60,2
3,64,60,2
3,67,60,2
3,69,60,2
3,76,60,2
3,74,60,2
3,72,60,2
3,67,60,2
3,71,60,2
3,79,92,386
4,59,60,2304
4,64,60,0
4,59,60,2
4,64,60,0
4,59,60,2
4,67,60,2
4,64,60,2
4,59,60,96
4,59,60,2
4,62,60,0
4,64,60,2
4,62,60,2
4,60,60,98
4,64,60,96
4,60,60,2
4,64,60,0
4,55,60,2
4,60,60,2
4,64,60,0
4,67,60,0
4,55,60,2
4,59,60,2
4,52,60,2
4,55,60,2
4,59,60,2
4,64,60,0
4,59,60,2
4,64,60,0
4,57,60,2
4,62,60,0
4,57,60,2
4,62,60,2
4,66,60,2
4,69,60,2
4,59,60,2
4,64,60,0
4,59,60,2
4,64,60,0
4,57,60,98
4,62,60,0
4,59,60,2
4,62,60,0
4,59,60,2
4,64,60,0
4,59,60,2
4,64,60,0
4,55,60,2
4,59,60,2
4,64,60,2
4,67,60,2
4,59,60,2
4,62,60,0
4,59,60,2
4,62,60,0
4,64,60,2
4,62,60,2
4,62,60,2
4,60,60,2
4,60,60,2
4,64,60,2
4,67,60,0
4,60,60,2
4,64,60,0
4,60,60,98
4,62,60,2
4,60,60,2
4,64,60,0
4,67,60,2
4,64,60,2
4,69,60,0
4,72,60,2
4,55,60,2
4,59,60,2
4,52,60,2
4,55,60,2
4,59,60,2
4,64,60,0
4,59,60,2
4,64,60,0
4,57,60,2
4,62,60,0
4,57,60,2
4,62,60,2
4,66,60,2
4,69,60,2
4,59,60,2
4,64,60,0
4,59,60,2
4,64,60,0
4,57,60,98
4,62,60,0
4,59,60,2
4,62,60,0
4,59,60,2
4,64,60,0
4,59,60,2
4,64,60,0
4,57,60,2
4,62,60,0
4,57,60,2
4,62,60,2
4,66,60,2
4,69,60,2
4,59,60,2
4,64,60,0
4,59,60,2
4,64,60,0
4,57,60,98
4,62,60,0
4,59,60,2
4,62,60,0
4,59,60,2
4,67,60,0
4,62,60,2
4,55,60,2
4,59,60,0
4,54,75,2
4,50,75,2
4,55,75,2
4,57,75,2
4,50,75,2
4,54,75,2
4,55,75,2
4,59,75,2
4,54,75,2
4,50,75,2
4,55,75,2
4,60,75,0
4,67,60,2
4,72,60,0
4,76,60,0
4,69,60,2
4,74,60,0
4,79,60,0
4,67,60,2
4,72,60,0
4,76,60,0
4,69,60,2
4,74,60,0
4,79,60,0
4,76,60,2
4,69,60,2
4,72,60,0
4,81,60,0
4,67,60,2
4,72,60,0
4,76,60,0
4,79,60,0
4,64,60,2
4,72,60,0
4,69,60,2
4,67,60,2
4,64,60,2
4,52,60,2
4,60,60,0
4,59,60,2
4,57,60,2
4,55,60,2
4,54,75,2
4,50,75,2
4,55,75,2
4,54,75,2
4,50,75,2
4,55,75,2
4,57,75,0
4,54,75,2
4,55,75,2
4,59,75,2
4,54,75,2
4,50,75,2
4,66,60,2
4,69,60,0
4,74,60,0
4,67,60,2
4,72,60,0
4,76,60,0
4,69,60,2
4,74,60,0
4,79,60,0
4,67,60,2
4,72,60,0
4,76,60,0
4,69,60,2
4,74,60,0
4,79,60,0
4,67,60,2
4,72,60,0
4,76,60,0
4,72,60,98
4,76,60,0
4,81,60,0
4,82,60,2
4,81,60,2
4,72,60,2
4,76,60,0
4,81,60,0
4,79,60,2
4,72,60,2
4,76,60,0
4,79,60,0
4,67,60,2
4,72,60,0
4,76,60,0
4,67,60,98
4,67,60,2
4,71,60,0
4,74,60,0
4,79,60,0
4,62,60,50
4,64,60,2
4,67,60,2
4,69,60,2
4,67,60,2
4,71,60,0
4,74,60,2
4,67,60,2
4,79,60,0
4,69,60,2
4,74,60,0
4,78,60,0
4,81,60,0
4,69,60,2
4,79,60,0
4,71,60,2
4,74,60,0
4,78,60,0
4,67,60,2
4,71,60,0
4,76,60,0
4,67,60,2
4,71,60,0
4,76,60,0
4,67,60,2
4,71,60,0
4,76,60,0
4,62,60,194
4,66,60,0
4,71,60,0
4,74,60,0
4,62,60,2
4,66,60,0
4,71,60,0
4,74,60,0
4,62,60,2
4,66,60,0
4,71,60,0
4,74,60,0
4,62,60,2
4,66,60,0
4,71,60,0
4,74,60,0
4,62,60,2
4,66,60,0
4,71,60,0
4,74,60,0
4,62,60,2
4,71,60,0
4,60,60,2
4,66,60,0
4,69,60,0
4,64,60,2
4,71,60,0
4,60,60,2
4,64,60,0
4,67,60,0
4,69,60,2
4,72,60,0
4,79,60,0
4,76,60,0
4,64,60,0
4,69,60,0
4,72,60,0
4,62,60,2
4,67,60,0
4,71,60,0
4,74,60,0
4,62,60,2
4,67,60,0
4,71,60,0
4,74,60,0
4,62,60,2
4,67,60,0
4,71,60,0
4,74,60,0
4,62,60,2
4,67,60,0
4,71,60,0
4,74,60,0
4,62,60,2
4,67,60,0
4,71,60,0
4,74,60,0
4,62,60,2
4,67,60,0
4,72,60,0
4,62,60,2
4,67,60,0
4,71,60,0
4,62,60,2
4,66,60,0
4,69,60,0
4,62,60,2
4,66,60,0
4,62,60,2
4,64,60,2
4,62,60,2
4,66,60,0
4,62,60,2
4,66,60,0
4,69,60,0
4,50,75,2
4,55,75,2
4,60,75,0
4,55,75,2
4,50,75,2
4,67,60,2
4,71,60,0
4,74,60,0
4,79,60,0
4,62,60,50
4,64,60,2
4,67,60,2
4,69,60,2
4,67,60,2
4,71,60,0
4,74,60,2
4,67,60,2
4,79,60,0
4,69,60,2
4,74,60,0
4,78,60,0
4,81,60,0
4,69,60,2
4,79,60,0
4,71,60,2
4,74,60,0
4,78,60,0
4,67,60,2
4,71,60,0
4,76,60,0
4,67,60,2
4,71,60,0
4,76,60,0
4,67,60,2
4,71,60,0
4,76,60,0
4,62,60,194
4,66,60,0
4,71,60,0
4,74,60,0
4,62,60,2
4,66,60,0
4,71,60,0
4,74,60,0
4,62,60,2
4,66,60,0
4,71,60,0
4,74,60,0
4,62,60,2
4,66,60,0
4,71,60,0
4,74,60,0
4,62,60,2
4,66,60,0
4,71,60,0
4,74,60,0
4,62,60,2
4,71,60,0
4,60,60,2
4,66,60,0
4,69,60,0
4,64,60,2
4,71,60,0
4,60,60,2
4,64,60,0
4,67,60,0
4,69,60,2
4,72,60,0
4,79,60,0
4,76,60,0
4,64,60,0
4,69,60,0
4,72,60,0
4,62,60,2
4,67,60,0
4,71,60,0
4,74,60,0
4,62,60,2
4,67,60,0
4,71,60,0
4,74,60,0
4,62,60,2
4,67,60,0
4,71,60,0
4,74,60,0
4,62,60,2
4,67,60,0
4,71,60,0
4,74,60,0
4,62,60,2
4,67,60,0
4,71,60,0
4,74,60,0
4,62,60,2
4,67,60,0
4,71,60,0
4,67,60,2
4,71,60,0
4,76,60,0
4,66,60,2
4,69,60,0
4,74,60,0
4,62,60,2
4,57,60,0
4,54,60,0
4,50,75,2
4,54,75,2
4,55,75,2
4,59,75,2
4,54,75,2
4,50,75,2
4,66,60,2
4,69,60,0
4,74,60,0
4,69,60,2
4,74,60,0
4,79,60,0
4,79,60,2
4,79,60,2
4,69,60,2
4,74,60,0
4,79,60,2
4,79,60,2
4,69,60,2
4,74,60,0
4,78,60,0
4,59,60,2
4,64,60,0
4,59,60,2
4,64,60,0
4,55,60,2
4,59,60,2
4,64,60,2
4,67,60,2
4,59,60,2
4,62,60,0
4,59,60,2
4,62,60,0
4,64,60,2
4,62,60,2
4,62,60,2
4,60,60,2
4,60,60,2
4,64,60,2
4,67,60,0
4,60,60,2
4,64,60,0
4,60,60,98
4,62,60,2
4,60,60,2
4,64,60,0
4,67,60,2
4,64,60,2
4,69,60,0
4,72,60,2
4,55,60,2
4,59,60,2
4,52,60,2
4,55,60,2
4,59,60,2
4,64,60,0
4,59,60,2
4,64,60,0
4,57,60,2
4,62,60,0
4,57,60,2
4,62,60,2
4,66,60,2
4,69,60,2
4,59,60,2
4,64,60,0
4,59,60,2
4,64,60,0
4,57,60,98
4,62,60,0
4,59,60,2
4,62,60,0
4,59,60,2
4,64,60,0
4,59,60,2
4,64,60,0
4,57,60,2
4,62,60,0
4,57,60,2
4,62,60,2
4,66,60,2
4,69,60,2
4,59,60,2
4,64,60,0
4,59,60,2
4,64,60,0
4,57,60,98
4,62,60,0
4,59,60,2
4,62,60,0
4,59,60,2
4,67,60,0
4,62,60,2
4,55,60,2
4,59,60,0
4,54,75,2
4,50,75,2
4,55,75,2
4,57,75,2
4,50,75,2
4,54,75,2
4,55,75,2
4,59,75,2
4,54,75,2
4,50,75,2
4,55,75,2
4,60,75,0
4,67,60,2
4,72,60,0
4,76,60,0
4,69,60,2
4,74,60,0
4,79,60,0
4,67,60,2
4,72,60,0
4,76,60,0
4,69,60,2
4,74,60,0
4,79,60,0
4,76,60,2
4,69,60,2
4,72,60,0
4,81,60,0
4,67,60,2
4,72,60,0
4,76,60,0
4,79,60,0
4,64,60,2
4,72,60,0
4,69,60,2
4,67,60,2
4,64,60,2
4,52,60,2
4,60,60,0
4,59,60,2
4,57,60,2
4,55,60,2
4,54,75,2
