track,note,velocity,time
1,74,80,0
1,70,80,24
1,69,80,24
1,58,80,24
1,64,80,0
1,67,80,0
1,58,80,24
1,62,80,0
1,69,80,0
1,70,80,24
1,74,80,24
1,60,80,24
1,67,80,0
1,72,80,0
1,67,80,72
1,60,80,24
1,66,80,0
1,69,80,0
1,69,80,72
1,70,80,12
1,55,80,132
1,58,80,0
1,62,80,0
1,67,80,0
1,69,80,72
1,70,80,12
1,69,80,12
1,66,80,0
1,60,80,0
1,67,80,168
1,69,80,12
1,70,80,12
1,69,80,24
1,70,80,144
1,62,80,12
1,55,80,132
1,58,80,0
1,63,80,0
1,58,80,48
1,63,80,0
1,67,80,0
1,57,80,216
1,63,80,0
1,67,80,0
1,65,80,48
1,67,80,12
1,69,80,12
1,67,80,24
1,57,80,144
1,65,80,0
1,60,80,12
1,55,80,12
1,58,80,0
1,62,80,0
1,74,80,216
1,70,80,192
1,67,80,0
1,65,80,0
1,62,80,0
1,63,80,48
1,65,80,12
1,67,80,12
1,65,80,24
1,63,80,144
1,65,80,12
1,58,80,132
1,62,80,0
1,63,80,0
1,67,80,0
1,58,80,24
1,67,80,0
1,63,80,0
1,60,80,12
1,65,80,0
1,69,80,0
1,62,80,36
1,65,80,0
1,67,80,0
1,70,80,0
1,62,80,96
1,70,80,0
1,63,80,36
1,72,80,0
1,62,80,24
1,70,80,0
1,60,80,24
1,66,80,0
1,69,80,0
1,60,80,192
1,66,80,0
1,69,80,0
1,67,80,168
1,69,80,12
1,70,80,12
1,69,80,24
1,67,80,144
1,62,80,12
1,63,80,132
1,67,80,0
1,70,80,0
1,74,80,0
1,67,80,72
1,74,80,0
1,70,80,36
1,63,80,0
1,58,80,24
1,67,80,0
1,55,80,12
1,63,80,0
1,57,80,132
1,55,80,0
1,62,80,0
1,60,80,72
1,69,80,0
1,62,80,36
1,70,80,0
1,63,80,24
1,72,80,0
1,63,80,24
1,72,80,0
1,65,80,72
1,74,80,0
1,65,80,24
1,74,80,0
1,55,80,288
1,58,80,0
1,62,80,0
1,62,80,96
1,70,80,0
1,63,80,36
1,72,80,0
1,65,80,24
1,74,80,0
1,63,80,24
1,67,80,0
1,70,80,0
1,74,80,0
1,63,80,96
1,67,80,0
1,70,80,0
1,74,80,0
1,60,80,24
1,63,80,0
1,67,80,0
1,70,80,0
1,58,80,48
1,62,80,0
1,65,80,0
1,69,80,0
1,65,80,96
1,62,80,24
1,63,80,48
1,65,80,12
1,67,80,12
1,58,80,0
1,62,80,0
1,67,80,192
1,70,80,0
1,74,80,0
1,79,80,0
1,74,80,24
1,70,80,0
1,67,80,0
1,79,80,0
1,67,80,144
1,69,80,12
1,70,80,12
1,69,80,24
1,70,80,144
1,62,80,12
1,63,80,12
1,67,80,0
1,70,80,0
1,75,80,0
1,70,80,168
1,58,80,24
1,62,80,0
1,65,80,0
1,69,80,0
1,62,80,96
1,70,80,0
1,63,80,36
1,72,80,0
1,65,80,24
1,74,80,0
1,63,80,24
1,67,80,0
1,70,80,0
1,74,80,0
1,75,80,24
1,70,80,0
1,67,80,0
1,63,80,0
1,63,80,144
1,67,80,0
1,70,80,0
1,75,80,0
1,63,80,24
1,67,80,0
1,70,80,0
1,75,80,0
1,70,80,24
1,63,80,48
1,67,80,0
1,72,80,0
1,66,80,96
1,72,80,0
1,77,80,0
1,75,80,36
1,74,80,24
1,72,80,12
1,74,80,12
1,62,80,216
1,65,80,0
1,69,80,0
1,72,80,0
1,60,80,48
1,65,80,0
1,70,80,0
1,74,80,0
1,77,80,96
1,75,80,36
1,74,80,24
1,72,80,12
1,74,80,12
1,62,80,216
1,65,80,0
1,69,80,0
1,72,80,0
1,60,80,48
1,65,80,0
1,70,80,0
1,74,80,0
1,77,80,96
1,75,80,36
1,74,80,24
1,72,80,12
1,65,80,12
1,70,80,0
1,74,80,0
1,58,80,96
1,62,80,0
1,67,80,0
1,63,80,96
1,72,80,0
1,70,80,0
1,60,80,96
1,66,80,0
1,69,80,0
1,58,80,96
1,62,80,0
1,67,80,0
1,55,80,192
1,62,80,0
1,62,80,96
1,66,80,0
1,70,80,0
1,60,80,48
1,66,80,0
1,69,80,0
1,58,80,48
1,62,80,0
1,66,80,192
1,74,80,0
1,63,80,1128
1,67,80,0
1,70,80,0
1,72,80,0
1,70,80,96
1,69,80,24
1,63,80,0
1,67,80,0
1,74,80,0
1,67,80,552
1,58,80,0
1,62,80,0
1,65,80,0
1,58,80,72
1,62,80,0
1,65,80,0
1,69,80,0
1,58,80,48
1,62,80,0
1,70,80,0
1,67,80,0
1,58,80,192
1,63,80,0
1,67,80,0
1,58,80,24
1,63,80,0
1,67,80,0
1,60,80,12
1,65,80,0
1,69,80,0
1,62,80,36
1,67,80,0
1,70,80,0
1,55,80,192
1,60,80,0
1,63,80,0
1,67,80,0
1,55,80,72
1,60,80,0
1,63,80,0
1,65,80,0
1,56,80,72
1,60,80,0
1,63,80,0
1,66,80,0
1,65,80,96
1,53,80,0
1,60,80,0
1,74,80,96
1,70,80,24
1,69,80,24
1,58,80,24
1,63,80,0
1,67,80,0
1,69,80,24
1,70,80,24
1,74,80,24
1,60,80,24
1,67,80,0
1,72,80,0
1,67,80,72
1,60,80,24
1,66,80,0
1,69,80,0
1,69,80,72
1,70,80,12
1,55,80,132
1,58,80,0
1,62,80,0
1,67,80,0
1,67,80,144
1,69,80,12
1,60,80,12
1,65,80,0
1,69,80,0
1,67,80,168
1,69,80,12
1,70,80,12
1,69,80,24
1,70,80,144
1,62,80,12
1,69,80,1932
1,67,80,24
1,67,80,48
1,70,80,0
1,74,80,0
1,79,80,0
1,67,80,144
1,70,80,0
1,74,80,0
1,79,80,0
1,67,80,48
1,70,80,0
1,74,80,0
1,79,80,0
1,67,80,24
1,70,80,0
1,74,80,0
1,79,80,0
1,66,80,96
1,72,80,0
1,77,80,0
1,75,80,36
1,74,80,24
1,72,80,12
1,74,80,12
1,62,80,216
1,65,80,0
1,69,80,0
1,72,80,0
1,60,80,48
1,65,80,0
1,70,80,0
1,74,80,0
1,77,80,96
1,75,80,36
1,74,80,24
1,72,80,12
1,74,80,12
1,62,80,216
1,65,80,0
1,69,80,0
1,72,80,0
1,60,80,48
1,65,80,0
1,70,80,0
1,74,80,0
1,77,80,96
1,75,80,24
1,74,80,24
1,72,80,24
1,65,80,24
1,70,80,0
1,74,80,0
1,58,80,96
1,62,80,0
1,67,80,0
1,63,80,96
1,70,80,0
1,72,80,0
1,60,80,96
1,66,80,0
1,69,80,0
1,58,80,96
1,62,80,0
1,67,80,0
1,58,80,192
1,62,80,0
1,67,80,0
1,79,80,312
1,82,80,24
1,86,80,24
1,91,80,24
1,86,80,0
1,82,80,0
1,86,80,24
1,82,80,24
1,79,80,24
1,79,80,144
1,82,80,24
1,87,80,24
1,78,80,144
1,81,80,24
1,86,80,24
1,67,80,144
1,70,80,24
1,74,80,24
1,79,80,24
1,70,80,0
1,67,80,24
1,74,80,0
1,70,80,24
1,67,80,24
1,67,80,144
1,70,80,24
1,67,80,24
1,75,80,0
1,66,80,144
1,69,80,24
1,66,80,24
1,72,80,0
1,72,80,24
1,58,80,0
1,65,80,0
1,69,80,0
2,43,80,0
2,50,80,48
2,36,80,24
2,39,80,72
2,46,80,72
2,38,80,24
2,45,80,48
2,39,80,168
2,46,80,24
2,51,80,24
2,46,80,24
2,39,80,24
2,38,80,48
2,36,80,768
2,48,80,96
2,43,80,48
2,41,80,48
2,41,80,72
2,48,80,24
2,41,80,48
2,43,80,48
2,43,80,96
2,41,80,48
2,39,80,48
2,39,80,72
2,48,80,24
2,39,80,72
2,36,80,24
2,36,80,24
2,38,80,12
2,39,80,36
2,46,80,96
2,43,80,48
2,38,80,48
2,38,80,96
2,39,80,48
2,38,80,48
2,36,80,768
2,48,80,96
2,43,80,48
2,41,80,48
2,41,80,72
2,48,80,24
2,41,80,48
2,46,80,48
2,41,80,96
2,53,80,24
2,46,80,24
2,41,80,24
2,39,80,24
2,46,80,96
2,39,80,48
2,36,80,48
2,45,80,96
2,50,80,48
2,43,80,48
2,50,80,96
2,43,80,48
2,39,80,48
2,46,80,96
2,39,80,48
2,39,80,48
2,39,80,24
2,39,80,744
2,43,80,96
2,48,80,48
2,43,80,48
2,43,80,96
2,43,80,72
2,48,80,24
2,48,80,24
2,46,80,144
2,46,80,24
2,46,80,48
2,45,80,24
2,43,80,24
2,41,80,24
2,39,80,24
2,38,80,24
2,55,80,96
2,43,80,0
2,58,80,24
2,46,80,0
2,50,80,24
2,62,80,0
2,43,80,24
2,55,80,0
2,53,80,144
2,41,80,0
2,39,80,48
2,54,80,0
2,39,80,72
2,46,80,24
2,44,80,48
2,55,80,48
2,43,80,0
2,46,80,24
2,58,80,0
2,50,80,24
2,62,80,0
2,43,80,24
2,57,80,0
2,41,80,144
2,53,80,0
2,39,80,48
2,54,80,0
2,39,80,72
2,46,80,24
2,44,80,48
2,43,80,48
2,39,80,96
2,36,80,96
2,38,80,96
2,43,80,96
2,50,80,96
2,43,80,48
2,39,80,48
2,38,80,96
2,38,80,48
2,43,80,48
2,43,80,96
2,41,80,48
2,39,80,24
2,38,80,24
2,36,80,768
2,36,80,72
2,36,80,72
2,41,80,48
2,48,80,96
2,41,80,48
2,43,80,48
2,43,80,72
2,41,80,72
2,39,80,48
2,39,80,96
2,38,80,48
2,36,80,48
2,36,80,24
2,38,80,12
2,39,80,36
2,46,80,96
2,51,80,48
2,45,80,48
2,46,80,24
2,48,80,24
2,39,80,24
2,38,80,48
2,44,80,96
2,44,80,48
2,43,80,48
2,50,80,48
2,36,80,24
2,39,80,72
2,46,80,72
2,38,80,24
2,45,80,48
2,39,80,168
2,46,80,24
2,51,80,24
2,46,80,24
2,39,80,24
2,38,80,48
2,43,80,2808
2,55,80,0
2,58,80,24
2,46,80,0
2,50,80,24
2,62,80,0
2,46,80,144
2,58,80,0
2,55,80,48
2,43,80,0
2,39,80,24
2,38,80,96
2,55,80,96
2,43,80,0
2,58,80,24
2,46,80,0
2,62,80,24
2,50,80,0
2,55,80,24
2,43,80,0
2,41,80,144
2,53,80,0
2,39,80,48
2,54,80,0
2,39,80,72
2,46,80,24
2,44,80,48
2,55,80,48
2,43,80,0
2,58,80,24
2,46,80,0
2,50,80,24
2,62,80,0
2,43,80,24
2,55,80,0
2,41,80,144
2,53,80,0
2,39,80,48
2,54,80,0
2,39,80,72
2,46,80,24
2,44,80,48
2,43,80,48
2,39,80,96
2,36,80,96
2,38,80,96
2,46,80,96
2,46,80,192
2,46,80,192
2,63,80,192
2,62,80,96
2,55,80,96
2,62,80,96
2,51,80,96
2,50,80,96
2,43,80,96
3,62,80,0
3,58,80,24
3,57,80,24
3,55,80,24
3,57,80,24
3,58,80,24
3,62,80,24
3,60,80,24
3,57,80,96
3,55,80,96
3,55,80,1224
3,57,80,12
3,58,80,12
3,57,80,24
3,58,80,144
3,50,80,12
3,51,80,12
3,53,80,936
3,55,80,12
3,57,80,12
3,55,80,24
3,45,80,144
3,53,80,0
3,48,80,12
3,50,80,12
3,51,80,936
3,53,80,12
3,55,80,12
3,53,80,24
3,51,80,144
3,55,80,24
3,55,80,216
3,57,80,12
3,58,80,36
3,58,80,96
3,60,80,36
3,58,80,24
3,57,80,24
3,55,80,936
3,57,80,12
3,58,80,12
3,57,80,24
3,55,80,144
3,50,80,12
3,51,80,12
3,57,80,1056
3,58,80,36
3,60,80,24
3,60,80,24
3,62,80,72
3,62,80,24
3,58,80,288
3,60,80,36
3,62,80,24
3,62,80,24
3,62,80,288
3,58,80,24
3,57,80,48
3,53,80,96
3,50,80,24
3,51,80,48
3,53,80,12
3,55,80,12
3,55,80,744
3,57,80,12
3,58,80,12
3,57,80,24
3,58,80,144
3,50,80,12
3,62,80,12
3,63,80,24
3,63,80,72
3,58,80,24
3,57,80,72
3,58,80,96
3,60,80,36
3,62,80,24
3,63,80,24
3,63,80,96
3,58,80,24
3,60,80,48
3,65,80,288
3,63,80,36
3,62,80,24
3,60,80,12
3,62,80,12
3,65,80,1056
3,63,80,36
3,62,80,24
3,60,80,12
3,62,80,12
3,65,80,1056
3,63,80,36
3,62,80,24
3,60,80,12
3,62,80,12
3,55,80,96
3,60,80,96
3,57,80,96
3,55,80,96
3,58,80,864
3,57,80,48
3,55,80,48
3,57,80,48
3,55,80,24
3,60,80,24
3,58,80,24
3,65,80,24
3,63,80,24
3,62,80,24
3,62,80,1728
3,58,80,1152
3,55,80,192
3,55,80,24
3,57,80,12
3,58,80,36
3,60,80,192
3,60,80,192
3,55,80,192
3,48,80,192
3,55,80,192
3,55,80,552
3,57,80,12
3,58,80,12
3,57,80,24
3,58,80,144
3,50,80,12
3,57,80,1932
3,55,80,24
3,65,80,1032
3,63,80,36
3,62,80,24
3,60,80,12
3,62,80,12
3,65,80,1056
3,63,80,36
3,62,80,24
3,60,80,12
3,62,80,12
3,65,80,1056
3,63,80,24
3,62,80,24
3,60,80,24
3,62,80,24
3,55,80,96
3,60,80,96
3,57,80,96
3,55,80,96
3,55,80,384
3,60,80,4032
4,74,80,0
4,70,80,24
4,69,80,24
4,67,80,24
4,69,80,24
4,70,80,24
4,74,80,24
4,67,80,24
4,66,80,96
4,74,80,96
4,63,80,5664
4,63,80,24
4,65,80,12
4,67,80,36
4,70,80,96
4,72,80,36
4,70,80,24
4,63,80,264
4,62,80,24
4,62,80,24
4,67,80,24
4,70,80,24
4,69,80,24
4,74,80,1248
4,70,80,36
4,67,80,24
4,63,80,12
4,62,80,12
4,60,80,96
4,62,80,36
4,63,80,24
4,63,80,24
4,65,80,72
4,65,80,24
4,62,80,48
4,58,80,24
4,55,80,24
4,62,80,96
4,63,80,36
4,65,80,24
4,74,80,24
4,74,80,96
4,70,80,24
4,69,80,48
4,65,80,96
4,62,80,24
4,63,80,48
4,65,80,12
4,74,80,372
4,75,80,12
4,77,80,12
4,79,80,24
4,81,80,24
4,82,80,24
4,79,80,24
4,79,80,24
4,70,80,744
4,70,80,168
4,69,80,24
4,70,80,96
4,72,80,36
4,74,80,24
4,74,80,24
4,75,80,24
4,75,80,144
4,75,80,24
4,70,80,24
4,72,80,48
4,74,80,192
4,77,80,1056
4,75,80,36
4,74,80,24
4,72,80,12
4,74,80,12
4,77,80,1056
4,75,80,36
4,74,80,24
4,72,80,12
4,77,80,12
4,70,80,96
4,75,80,96
4,72,80,96
4,70,80,96
4,74,80,864
4,72,80,48
4,70,80,48
4,67,80,656
4,69,80,16
4,70,80,16
4,67,80,16
4,69,80,16
4,70,80,16
4,67,80,16
4,69,80,16
4,70,80,16
4,72,80,16
4,74,80,16
4,75,80,16
4,77,80,16
4,79,80,16
4,77,80,16
4,77,80,264
4,77,80,24
4,79,80,16
4,77,80,16
4,77,80,16
4,75,80,16
4,74,80,16
4,75,80,16
4,74,80,16
4,81,80,216
4,79,80,12
4,74,80,12
4,79,80,24
4,74,80,128
4,75,80,16
4,74,80,16
4,72,80,16
4,74,80,16
4,72,80,16
4,70,80,304
4,69,80,32
4,70,80,32
4,69,80,72
4,70,80,12
4,72,80,12
4,70,80,12
4,69,80,12
4,70,80,12
4,69,80,12
4,62,80,264
4,66,80,24
4,67,80,24
4,69,80,24
4,70,80,24
4,72,80,24
4,73,80,24
4,74,80,24
4,70,80,24
4,69,80,24
4,67,80,24
4,69,80,24
4,70,80,24
4,74,80,24
4,72,80,24
4,69,80,96
4,69,80,72
4,70,80,12
4,67,80,12
4,69,80,264
4,70,80,12
4,69,80,12
4,69,80,2688
4,67,80,24
4,77,80,1032
4,75,80,36
4,74,80,24
4,72,80,12
4,74,80,12
4,72,80,216
4,74,80,48
4,69,80,352
4,70,80,32
4,72,80,32
4,74,80,32
4,77,80,32
4,82,80,32
4,77,80,288
4,75,80,24
4,74,80,24
4,72,80,24
4,74,80,24
4,67,80,96
4,72,80,96
4,69,80,96
4,72,80,96
4,72,80,384
4,77,80,4032
5,74,80,0
5,70,80,24
5,69,80,24
5,67,80,24
5,69,80,24
