track,note,velocity,time
1,74,64,480
1,74,0,719
1,74,64,1
1,74,0,59
1,73,64,1
1,73,0,59
1,72,64,1
1,72,0,59
1,71,64,1
1,71,0,59
1,70,64,1
1,70,0,479
1,74,64,481
1,74,0,719
1,74,64,1
1,74,0,59
1,73,64,1
1,73,0,59
1,72,64,1
1,72,0,59
1,71,64,1
1,71,0,59
1,70,64,1
1,70,0,479
1,68,64,1
1,68,0,59
1,70,64,1
1,70,0,59
1,70,64,121
1,70,0,59
1,71,64,1
1,71,0,59
1,72,64,1
1,72,0,59
1,73,64,1
1,73,0,59
1,74,64,1
1,74,0,599
1,57,64,481
1,57,0,119
1,62,64,1
1,62,0,119
1,57,64,1
1,57,0,119
1,60,64,1
1,60,0,179
1,58,64,1
1,58,0,59
1,58,64,1
1,58,0,359
1,55,64,1
1,55,0,119
1,60,64,1
1,60,0,119
1,60,64,1
1,60,0,59
1,55,64,1
1,55,0,59
1,57,64,1
1,57,0,479
1,57,64,121
1,57,0,119
1,62,64,1
1,62,0,119
1,57,64,1
1,57,0,119
1,60,64,1
1,60,0,179
1,58,64,1
1,58,0,59
1,58,64,1
1,58,0,359
1,55,64,1
1,55,0,119
1,60,64,1
1,60,0,179
1,55,64,1
1,55,0,59
1,57,64,1
1,57,0,479
1,57,64,121
1,57,0,119
1,62,64,1
1,62,0,119
1,65,64,1
1,65,0,119
1,69,64,1
1,69,0,179
1,67,64,1
1,67,0,59
1,67,64,1
1,67,0,359
1,67,64,1
1,67,0,119
1,72,64,1
1,72,0,179
1,67,64,1
1,67,0,59
1,69,64,1
1,69,0,719
1,69,64,121
1,69,0,119
1,74,64,1
1,74,0,539
1,72,64,1
1,72,0,59
1,70,64,1
1,70,0,59
1,69,64,1
1,69,0,59
1,67,64,1
1,67,0,59
1,65,64,1
1,65,0,59
1,64,64,1
1,64,0,59
1,62,64,1
1,62,0,59
1,61,64,1
1,61,0,599
1,58,64,1
1,58,0,119
1,58,64,1
1,58,0,179
1,57,64,1
1,57,0,59
1,57,64,1
1,57,0,719
1,62,64,1801
1,62,0,119
1,67,64,1
1,67,0,119
1,62,64,1
1,62,0,119
1,65,64,1
1,65,0,179
1,63,64,1
1,63,0,59
1,63,64,1
1,63,0,359
1,60,64,1
1,60,0,119
1,65,64,1
1,65,0,119
1,65,64,1
1,65,0,59
1,60,64,1
1,60,0,59
1,62,64,1
1,62,0,479
1,62,64,121
1,62,0,119
1,67,64,1
1,67,0,119
1,62,64,1
1,62,0,119
1,65,64,1
1,65,0,179
1,63,64,1
1,63,0,59
1,63,64,1
1,63,0,359
1,60,64,1
1,60,0,119
1,65,64,1
1,65,0,179
1,60,64,1
1,60,0,59
1,62,64,1
1,62,0,479
1,62,64,121
1,62,0,119
1,67,64,1
1,67,0,119
1,70,64,1
1,70,0,119
1,74,64,1
1,74,0,179
1,72,64,1
1,72,0,59
1,72,64,1
1,72,0,359
1,72,64,1
1,72,0,119
1,77,64,1
1,77,0,179
1,72,64,1
1,72,0,59
1,74,64,1
1,74,0,719
1,74,64,121
1,74,0,119
1,79,64,1
1,79,0,539
1,77,64,1
1,77,0,59
1,75,64,1
1,75,0,59
1,74,64,1
1,74,0,59
1,72,64,1
1,72,0,59
1,70,64,1
1,70,0,59
1,69,64,1
1,69,0,59
1,67,64,1
1,67,0,59
1,66,64,1
1,66,0,599
1,63,64,1
1,63,0,119
1,63,64,1
1,63,0,179
1,62,64,1
1,62,0,59
1,62,64,1
1,62,0,719
1,62,64,721
1,62,0,479
1,59,64,601
1,59,0,119
1,67,64,1
1,67,0,119
1,59,64,1
1,59,0,119
1,62,64,1
1,62,0,179
1,60,64,1
1,60,0,59
1,60,64,1
1,60,0,359
1,57,64,1
1,57,0,119
1,62,64,1
1,62,0,119
1,62,64,1
1,62,0,59
1,57,64,1
1,57,0,59
1,59,64,1
1,59,0,479
1,59,64,121
1,59,0,119
1,64,64,1
1,64,0,119
1,59,64,1
1,59,0,119
1,62,64,1
1,62,0,179
1,60,64,1
1,60,0,59
1,60,64,1
1,60,0,359
1,57,64,1
1,57,0,119
1,62,64,1
1,62,0,179
1,57,64,1
1,57,0,59
1,59,64,1
1,59,0,479
1,59,64,121
1,59,0,119
1,64,64,1
1,64,0,119
1,67,64,1
1,67,0,119
1,71,64,1
1,71,0,179
1,69,64,1
1,69,0,59
1,69,64,1
1,69,0,359
1,69,64,1
1,69,0,119
1,74,64,1
1,74,0,179
1,69,64,1
1,69,0,59
1,71,64,1
1,71,0,719
1,71,64,121
1,71,0,119
1,76,64,1
1,76,0,539
1,74,64,1
1,74,0,59
1,72,64,1
1,72,0,59
1,71,64,1
1,71,0,59
1,69,64,1
1,69,0,59
1,67,64,1
1,67,0,59
1,66,64,1
1,66,0,59
1,64,64,1
1,64,0,59
1,63,64,1
1,63,0,479
1,64,64,121
1,64,0,119
1,64,64,1
1,64,0,179
1,59,64,1
1,59,0,59
1,59,64,1
1,59,0,479
1,76,64,1321
1,76,0,119
1,76,64,1
1,76,0,359
1,78,64,1
1,78,0,119
1,78,64,1
1,78,0,179
1,76,64,1
1,76,0,59
1,76,64,1
1,76,0,179
1,76,64,1
1,76,0,59
1,76,64,1
1,76,0,239
1,83,64,1
1,83,0,719
1,70,64,3481
1,70,0,119
1,75,64,1
1,75,0,179
1,70,64,1
1,70,0,59
1,72,64,1
1,72,0,479
1,60,64,121
1,60,0,119
1,65,64,1
1,65,0,119
1,68,64,1
1,68,0,119
1,72,64,1
1,72,0,179
1,70,64,1
1,70,0,59
1,70,64,1
1,70,0,359
1,70,64,1
1,70,0,119
1,75,64,1
1,75,0,179
1,70,64,1
1,70,0,59
1,72,64,1
1,72,0,719
1,72,64,121
1,72,0,119
1,77,64,1
1,77,0,539
1,75,64,1
1,75,0,59
1,73,64,1
1,73,0,59
1,72,64,1
1,72,0,59
1,70,64,1
1,70,0,59
1,68,64,1
1,68,0,59
1,67,64,1
1,67,0,59
1,65,64,1
1,65,0,59
1,64,64,1
1,64,0,599
1,61,64,1
1,61,0,119
1,61,64,1
1,61,0,179
1,61,64,1
1,61,0,59
1,60,64,1
1,60,0,479
1,65,64,1321
1,65,0,119
1,65,64,1
1,65,0,359
1,67,64,1
1,67,0,119
1,67,64,1
1,67,0,179
1,65,64,1
1,65,0,59
1,65,64,1
1,65,0,179
1,65,64,1
1,65,0,59
1,65,64,1
1,65,0,239
1,72,64,1
1,72,0,599
1,80,64,121
1,80,0,359
1,79,64,1
1,79,0,29
1,80,64,1
1,80,0,29
1,79,64,1
1,79,0,59
1,77,64,1
1,77,0,179
1,79,64,1
1,79,0,59
1,77,64,1
1,77,0,179
1,79,64,1
1,79,0,59
1,77,64,1
1,77,0,239
1,80,64,1
1,80,0,599
1,82,64,121
1,82,0,359
1,81,64,1
1,81,0,29
1,82,64,1
1,82,0,29
1,81,64,1
1,81,0,59
1,79,64,1
1,79,0,179
1,81,64,1
1,81,0,59
1,79,64,1
1,79,0,179
1,81,64,1
1,81,0,59
1,79,64,1
1,79,0,239
1,82,64,1
1,82,0,599
1,82,64,121
1,82,0,359
1,81,64,1
1,81,0,29
1,82,64,1
1,82,0,29
1,81,64,1
1,81,0,59
1,79,64,1
1,79,0,179
1,81,64,1
1,81,0,59
1,79,64,1
1,79,0,179
1,81,64,1
1,81,0,59
1,79,64,1
1,79,0,239
1,82,64,1
1,82,0,599
1,84,64,121
1,84,0,359
1,83,64,1
1,83,0,29
1,84,64,1
1,84,0,29
1,83,64,1
1,83,0,59
1,81,64,1
1,81,0,179
1,83,64,1
1,83,0,59
1,81,64,1
1,81,0,179
1,83,64,1
1,83,0,59
1,81,64,1
1,81,0,239
1,84,64,1
1,84,0,599
1,84,64,121
1,84,0,839
1,84,64,121
1,84,0,839
1,84,64,121
1,88,64,480
1,84,0,239
1,88,0,480
2,69,64,480
2,69,0,719
2,69,64,1
2,69,0,59
2,68,64,1
2,68,0,59
2,67,64,1
2,67,0,59
2,66,64,1
2,66,0,59
2,65,64,1
2,65,0,479
2,69,64,481
2,69,0,719
2,69,64,1
2,69,0,59
2,68,64,1
2,68,0,59
2,67,64,1
2,67,0,59
2,66,64,1
2,66,0,59
2,65,64,1
2,65,0,479
2,63,64,1
2,63,0,59
2,65,64,1
2,65,0,59
2,65,64,121
2,65,0,59
2,66,64,1
2,66,0,59
2,67,64,1
2,67,0,59
2,68,64,1
2,68,0,59
2,69,64,1
2,69,0,599
2,65,64,481
2,65,0,119
2,65,64,1
2,65,0,239
2,67,64,1
2,67,0,239
2,67,64,1
2,67,0,239
2,67,64,1
2,67,0,119
2,64,64,121
2,64,0,239
2,65,64,1
2,65,0,419
2,60,64,1
2,60,0,59
2,62,64,1
2,62,0,119
2,65,64,1
2,65,0,119
2,65,64,1
2,65,0,239
2,67,64,1
2,67,0,239
2,67,64,1
2,67,0,479
2,64,64,1
2,64,0,239
2,65,64,1
2,65,0,479
2,57,64,121
2,57,0,359
2,62,64,1
2,62,0,239
2,62,64,1
2,62,0,239
2,64,64,1
2,64,0,239
2,64,64,1
2,64,0,239
2,65,64,1
2,65,0,719
2,65,64,121
2,65,0,119
2,69,64,1
2,69,0,539
2,55,64,421
2,55,0,599
2,55,64,1
2,55,0,119
2,55,64,1
2,55,0,239
2,57,64,1
2,57,0,719
2,62,64,1
2,62,0,59
2,61,64,1
2,61,0,59
2,60,64,1
2,60,0,59
2,59,64,1
2,59,0,59
2,58,64,1
2,58,0,479
2,56,64,1
2,56,0,59
2,58,64,1
2,58,0,179
2,61,64,1
2,61,0,59
2,60,64,1
2,60,0,59
2,59,64,1
2,59,0,59
2,58,64,1
2,58,0,59
2,55,64,1
2,55,0,599
2,57,64,1
2,57,0,119
2,57,64,1
2,57,0,239
2,72,64,1
2,72,0,239
2,72,64,1
2,72,0,239
2,72,64,1
2,72,0,119
2,69,64,121
2,69,0,239
2,70,64,1
2,70,0,419
2,65,64,1
2,65,0,59
2,67,64,1
2,67,0,119
2,70,64,1
2,70,0,119
2,70,64,1
2,70,0,239
2,72,64,1
2,72,0,239
2,72,64,1
2,72,0,479
2,69,64,1
2,69,0,239
2,70,64,1
2,70,0,479
2,62,64,121
2,62,0,359
2,67,64,1
2,67,0,239
2,67,64,1
2,67,0,239
2,69,64,1
2,69,0,239
2,69,64,1
2,69,0,239
2,70,64,1
2,70,0,719
2,70,64,121
2,70,0,119
2,74,64,1
2,74,0,539
2,60,64,421
2,60,0,599
2,60,64,1
2,60,0,119
2,60,64,1
2,60,0,239
2,62,64,1
2,62,0,719
2,67,64,1
2,67,0,59
2,66,64,1
2,66,0,59
2,65,64,1
2,65,0,59
2,64,64,1
2,64,0,59
2,63,64,1
2,63,0,479
2,54,64,1
2,54,0,479
2,64,64,1
2,64,0,599
2,59,64,1
2,59,0,359
2,69,64,1
2,69,0,239
2,69,64,1
2,69,0,239
2,69,64,1
2,69,0,119
2,66,64,121
2,66,0,239
2,67,64,1
2,67,0,419
2,62,64,1
2,62,0,59
2,64,64,1
2,64,0,119
2,67,64,1
2,67,0,119
2,67,64,1
2,67,0,239
2,69,64,1
2,69,0,239
2,69,64,1
2,69,0,479
2,66,64,1
2,66,0,239
2,67,64,1
2,67,0,479
2,59,64,121
2,59,0,359
2,64,64,1
2,64,0,239
2,64,64,1
2,64,0,239
2,66,64,1
2,66,0,239
2,66,64,1
2,66,0,239
2,67,64,1
2,67,0,719
2,67,64,121
2,67,0,119
2,71,64,1
2,71,0,539
2,57,64,421
2,57,0,479
2,54,64,121
2,54,0,119
2,54,64,1
2,54,0,239
2,55,64,1
2,55,0,359
2,55,64,1
2,55,0,119
2,55,64,1
2,55,0,179
2,55,64,1
2,55,0,59
2,55,64,1
2,55,0,179
2,55,64,1
2,55,0,59
2,55,64,1
2,55,0,239
2,60,64,1
2,60,0,599
2,64,64,1
2,64,0,479
2,71,64,1
2,71,0,119
2,71,64,1
2,71,0,179
2,71,64,1
2,71,0,59
2,71,64,1
2,71,0,179
2,71,64,1
2,71,0,59
2,71,64,1
2,71,0,239
2,76,64,1
2,76,0,719
2,77,64,1
2,77,0,59
2,65,64,1
2,65,0,29
2,70,64,31
2,70,0,29
2,65,64,31
2,65,0,29
2,68,64,31
2,68,0,29
2,70,64,31
2,70,0,29
2,68,64,31
2,68,0,29
2,75,64,31
2,75,0,59
2,77,64,1
2,77,0,119
2,72,64,1
2,72,0,119
2,77,64,1
2,77,0,119
2,72,64,1
2,72,0,119
2,68,64,1
2,68,0,239
2,68,64,1
2,68,0,239
2,67,64,1
2,67,0,239
2,67,64,1
2,67,0,239
2,68,64,1
2,68,0,599
2,68,64,1
2,68,0,119
2,68,64,1
2,68,0,239
2,68,64,1
2,68,0,239
2,68,64,1
2,68,0,239
2,67,64,1
2,67,0,239
2,67,64,1
2,67,0,239
2,68,64,1
2,68,0,479
2,60,64,121
2,60,0,359
2,65,64,1
2,65,0,239
2,65,64,1
2,65,0,239
2,67,64,1
2,67,0,239
2,67,64,1
2,67,0,239
2,68,64,1
2,68,0,719
2,68,64,121
2,68,0,119
2,72,64,1
2,72,0,539
2,58,64,421
2,58,0,719
2,55,64,1
2,55,0,239
2,65,64,1
2,65,0,359
2,67,64,1
2,67,0,119
2,67,64,1
2,67,0,179
2,65,64,1
2,65,0,59
2,65,64,1
2,65,0,179
2,65,64,1
2,65,0,59
2,65,64,1
2,65,0,239
2,72,64,1
2,72,0,599
2,65,64,121
2,65,0,359
2,67,64,1
2,67,0,119
2,67,64,1
2,67,0,179
2,65,64,1
2,65,0,59
2,65,64,1
2,65,0,179
2,65,64,1
2,65,0,59
2,65,64,1
2,65,0,239
2,72,64,1
2,72,0,599
2,77,64,121
2,77,0,479
2,72,64,1
2,72,0,239
2,72,64,1
2,72,0,239
2,73,64,1
2,73,0,239
2,77,64,1
2,77,0,599
2,79,64,121
2,79,0,479
2,74,64,1
2,74,0,239
2,74,64,1
2,74,0,239
2,75,64,1
2,75,0,239
2,79,64,1
2,79,0,599
2,79,64,121
2,79,0,479
2,74,64,1
2,74,0,239
2,74,64,1
2,74,0,239
2,75,64,1
2,75,0,239
2,79,64,1
2,79,0,599
2,81,64,121
2,81,0,479
2,76,64,1
2,76,0,239
2,76,64,1
2,76,0,239
2,77,64,1
2,77,0,239
2,81,64,1
2,81,0,599
2,81,64,121
2,81,0,839
2,81,64,121
2,81,0,839
2,81,64,121
2,76,64,480
2,81,0,239
2,76,0,480
3,65,64,480
3,65,0,719
3,65,64,1
3,65,0,59
3,64,64,1
3,64,0,59
3,63,64,1
3,63,0,59
3,63,64,1
3,63,0,59
3,62,64,1
3,62,0,479
3,65,64,481
3,65,0,719
3,65,64,1
3,65,0,59
3,64,64,1
3,64,0,59
3,63,64,1
3,63,0,59
3,63,64,1
3,63,0,59
3,62,64,1
3,62,0,119
3,62,64,1
3,62,0,359
3,60,64,1
3,60,0,59
3,62,64,1
3,62,0,59
3,62,64,121
3,62,0,59
3,63,64,1
3,63,0,59
3,64,64,1
3,64,0,59
3,64,64,1
3,64,0,59
3,65,64,1
3,65,0,599
3,62,64,841
3,62,0,239
3,62,64,1
3,62,0,239
3,64,64,1
3,64,0,239
3,62,64,241
3,62,0,419
3,55,64,1
3,55,0,59
3,57,64,1
3,57,0,119
3,62,64,361
3,62,0,239
3,62,64,1
3,62,0,479
3,62,64,241
3,62,0,479
3,58,64,481
3,58,0,239
3,58,64,1
3,58,0,239
3,60,64,1
3,60,0,239
3,62,64,241
3,62,0,719
3,62,64,121
3,62,0,119
3,65,64,1
3,65,0,539
3,52,64,421
3,52,0,599
3,52,64,1
3,52,0,119
3,52,64,1
3,52,0,239
3,53,64,1
3,53,0,719
3,57,64,1
3,57,0,59
3,56,64,1
3,56,0,59
3,55,64,1
3,55,0,59
3,54,64,1
3,54,0,59
3,53,64,1
3,53,0,479
3,51,64,1
3,51,0,59
3,53,64,1
3,53,0,179
3,50,64,241
3,50,0,599
3,67,64,361
3,67,0,239
