track,note,velocity,time
0,36,64,960
0,64,55,0
0,36,48,0
0,64,52,0
0,76,91,0
0,35,60,0
0,42,50,0
0,41,94,0
0,48,94,0
0,42,0,1
0,35,0,0
0,67,72,28
0,52,48,11
0,42,30,0
0,42,0,1
0,64,0,17
0,50,91,2
0,67,0,18
0,55,48,2
0,42,30,0
0,42,0,1
0,60,67,39
0,42,70,0
0,37,50,0
0,50,0,0
0,57,94,0
0,37,0,1
0,42,0,0
0,64,36,26
0,55,0,13
0,52,0,0
0,55,45,0
0,42,30,0
0,42,0,1
0,57,0,19
0,60,90,0
0,60,0,20
0,52,50,0
0,35,30,0
0,42,30,0
0,42,0,1
0,35,0,0
0,36,0,28
0,36,64,11
0,55,0,0
0,60,68,0
0,35,60,0
0,42,50,0
0,60,0,0
0,64,94,0
0,42,0,1
0,35,0,0
0,52,0,39
0,55,51,0
0,42,30,0
0,42,0,1
0,67,49,31
0,60,0,8
0,52,57,0
0,42,30,0
0,42,0,1
0,55,0,39
0,60,63,0
0,76,0,0
0,76,88,0
0,42,70,0
0,37,50,0
0,37,0,1
0,42,0,0
0,67,0,16
0,76,0,13
0,72,83,0
0,52,0,10
0,55,39,0
0,42,30,0
0,42,0,1
0,72,0,19
0,69,85,0
0,67,45,4
0,36,0,9
0,43,70,7
0,36,0,0
0,52,54,0
0,42,30,0
0,42,0,1
0,69,0,9
0,65,86,0
0,43,0,30
0,36,75,0
0,60,0,0
0,55,0,0
0,64,0,0
0,64,64,0
0,67,0,0
0,65,0,0
0,74,91,0
0,35,60,0
0,42,50,0
0,64,0,0
0,48,0,0
0,41,0,0
0,40,94,0
0,47,94,0
0,52,0,1
0,36,43,0
0,42,0,0
0,35,0,0
0,52,48,39
0,42,30,0
0,42,0,1
0,52,89,19
0,55,45,20
0,42,30,0
0,42,0,1
0,60,62,39
0,42,70,0
0,37,50,0
0,52,0,0
0,55,94,0
0,37,0,1
0,42,0,0
0,55,0,39
0,52,0,0
0,55,45,0
0,42,30,0
0,42,0,1
0,55,0,19
0,59,91,0
0,60,0,20
0,52,51,0
0,35,30,0
0,42,30,0
0,42,0,1
0,35,0,0
0,36,0,19
0,36,74,20
0,55,0,0
0,60,66,0
0,35,60,0
0,42,50,0
0,59,0,0
0,62,93,0
0,42,0,1
0,35,0,0
0,52,0,39
0,55,48,0
0,42,30,0
0,42,0,1
0,60,0,39
0,52,47,0
0,42,30,0
0,42,0,1
0,65,38,22
0,64,0,2
0,55,0,15
0,60,60,0
0,74,0,0
0,74,91,0
0,42,70,0
0,37,50,0
0,37,0,1
0,42,0,0
0,74,0,29
0,71,82,0
0,52,0,10
0,55,34,0
0,42,30,0
0,42,0,1
0,71,0,19
0,67,84,0
0,36,0,20
0,43,73,0
0,52,54,0
0,46,40,0
0,46,0,1
0,67,0,9
0,64,84,0
0,36,0,25
0,43,0,2
0,36,64,3
0,55,0,0
0,60,0,0
0,64,0,0
0,52,0,0
0,36,53,0
0,65,0,0
0,64,52,0
0,64,0,0
0,72,91,0
0,35,60,0
0,42,50,0
0,62,0,0
0,47,0,0
0,40,0,0
0,38,94,0
0,45,94,0
0,42,0,1
0,35,0,0
0,67,72,28
0,52,53,11
0,42,30,0
0,42,0,1
0,64,0,17
0,50,91,2
0,67,0,18
0,55,53,2
0,42,30,0
0,42,0,1
0,52,0,39
0,60,53,0
0,72,0,0
0,72,89,0
0,42,70,0
0,37,50,0
0,50,0,0
0,53,94,0
0,37,0,1
0,42,0,0
0,55,0,2
0,64,36,24
0,72,0,3
0,69,82,0
0,55,52,10
0,42,30,0
0,42,0,1
0,69,0,19
0,65,85,0
0,53,0,0
0,57,90,0
0,60,0,4
0,36,0,0
0,52,53,16
0,35,30,0
0,42,30,0
0,42,0,1
0,35,0,0
0,65,0,9
0,62,88,0
0,36,0,19
0,36,64,11
0,52,0,0
0,55,0,0
0,48,53,0
0,62,0,0
0,71,89,0
0,35,60,0
0,42,50,0
0,57,0,0
0,45,0,0
0,38,0,0
0,36,93,0
0,43,93,0
0,42,0,1
0,35,0,0
0,52,53,39
0,42,30,0
0,42,0,1
0,48,90,19
0,67,49,12
0,55,53,8
0,42,30,0
0,42,0,1
0,71,0,39
0,71,88,0
0,42,70,0
0,37,50,0
0,48,0,0
0,52,93,0
0,37,0,1
0,42,0,0
0,55,0,1
0,52,0,0
0,60,53,0
0,67,0,15
0,71,0,13
0,67,83,0
0,55,49,0
0,42,30,0
0,42,0,1
0,67,0,19
0,64,85,0
0,52,0,0
0,55,90,0
0,67,45,4
0,36,0,9
0,43,70,7
0,55,0,0
0,60,0,0
0,52,53,0
0,46,40,0
0,46,0,1
0,64,0,9
0,60,86,0
0,43,0,30
0,36,64,0
0,52,0,0
0,48,0,0
0,64,55,0
0,36,48,0
0,67,0,0
0,64,0,0
0,64,52,0
0,60,0,0
0,59,91,0
0,69,91,0
0,64,91,0
0,35,60,0
0,42,50,0
0,55,0,0
0,43,0,0
0,36,0,0
0,43,94,0
0,53,94,0
0,42,0,1
0,35,0,0
0,67,72,28
0,52,48,11
0,42,30,0
0,42,0,1
0,64,0,17
0,64,0,2
0,61,84,0
0,67,0,18
0,55,48,2
0,42,30,0
0,42,0,1
0,60,67,39
0,61,0,0
0,61,90,0
0,42,70,0
0,37,50,0
0,37,0,1
0,42,0,0
0,64,36,26
0,55,0,13
0,52,0,0
0,55,45,0
0,42,30,0
0,42,0,1
0,61,0,19
0,62,86,0
0,60,0,20
0,52,50,0
0,35,30,0
0,42,30,0
0,42,0,1
0,35,0,0
0,36,0,28
0,43,64,0
0,52,0,0
0,55,0,0
0,36,0,0
0,64,0,0
0,67,61,0
0,43,57,0
0,64,0,0
0,59,52,0
0,67,88,0
0,69,0,0
0,59,0,0
0,62,0,0
0,35,60,0
0,42,50,0
0,53,0,0
0,43,0,0
0,43,91,0
0,53,91,0
0,42,0,1
0,35,0,0
0,59,88,1
0,64,88,1
0,67,88,1
0,62,72,25
0,62,48,0
0,42,30,0
0,42,0,1
0,59,0,17
0,62,0,20
0,67,0,2
0,59,50,0
0,42,30,0
0,42,0,1
0,59,0,39
0,62,0,0
0,67,54,0
0,42,70,0
0,37,50,0
0,37,0,1
0,42,0,0
0,59,36,26
0,62,48,13
0,42,30,0
0,42,0,1
0,67,0,0
0,64,84,0
0,64,0,3
0,64,84,0
0,67,0,1
0,67,0,16
0,59,48,0
0,42,30,0
0,42,0,1
0,59,0,21
0,62,0,0
0,43,0,0
0,43,0,7
0,36,64,0
0,60,61,0
0,36,57,0
0,59,0,0
0,64,52,0
0,64,0,0
0,59,91,0
0,59,85,0
0,35,60,0
0,42,50,0
0,53,0,0
0,43,0,0
0,36,94,0
0,42,0,1
0,35,0,0
0,59,0,1
0,64,0,1
0,67,72,26
0,55,48,0
0,42,30,0
0,42,0,1
0,64,0,17
0,43,91,2
0,67,0,18
0,60,0,2
0,52,50,0
0,42,30,0
0,42,0,1
0,52,0,39
0,55,0,0
0,60,54,0
0,42,70,0
0,37,50,0
0,43,0,0
0,48,94,0
0,37,0,1
0,42,0,0
0,64,36,26
0,55,48,13
0,42,30,0
0,42,0,1
0,48,0,19
0,52,90,0
0,60,0,20
0,52,48,0
0,35,30,0
0,42,30,0
0,42,0,1
0,35,0,0
0,52,0,21
0,55,0,0
0,36,0,0
0,36,0,7
0,36,64,11
0,64,69,0
0,48,58,0
0,35,60,0
0,42,50,0
0,52,0,0
0,55,94,0
0,42,0,1
0,35,0,0
0,60,45,0
0,42,30,0
0,42,0,1
0,55,0,19
0,52,90,0
0,67,49,12
0,55,45,8
0,42,30,0
0,42,0,1
0,60,0,39
0,64,0,0
0,64,54,0
0,42,70,0
0,37,50,0
0,52,0,0
0,48,93,0
0,37,0,1
0,42,0,0
0,67,0,16
0,55,0,23
0,60,53,0
0,42,30,0
0,42,0,1
0,59,0,0
0,60,85,0
0,59,0,0
0,60,79,0
0,48,0,0
0,43,90,0
0,67,45,4
0,36,0,9
0,31,70,7
0,64,0,0
0,55,57,0
0,46,40,0
0,46,0,1
0,60,0,0
0,62,85,0
0,60,0,0
0,62,80,0
0,31,0,0
0,33,64,0
0,55,0,0
0,60,0,0
0,48,0,0
0,60,55,0
0,45,48,0
0,67,0,0
0,64,0,0
0,60,52,0
0,62,0,0
0,59,90,0
0,62,0,0
0,59,85,0
0,35,60,0
0,42,50,0
0,43,0,0
0,36,0,0
0,33,94,0
0,40,94,0
0,42,0,1
0,35,0,0
0,64,72,28
0,48,48,11
0,42,30,0
0,42,0,1
0,60,0,17
0,45,89,2
0,64,0,18
0,52,48,2
0,42,30,0
0,42,0,1
0,55,67,39
0,42,70,0
0,37,50,0
0,45,0,0
0,48,94,0
0,37,0,1
0,42,0,0
0,60,36,26
0,52,0,13
0,48,0,0
0,52,45,0
0,42,30,0
0,42,0,1
0,48,0,19
0,52,91,0
0,55,0,20
0,48,50,0
0,35,30,0
0,42,30,0
0,42,0,1
0,35,0,0
0,33,0,28
0,33,64,11
0,52,0,0
0,55,68,0
0,35,60,0
0,42,50,0
0,52,0,0
0,55,93,0
0,42,0,1
0,35,0,0
0,48,0,39
0,52,51,0
0,42,30,0
0,42,0,1
0,55,0,19
0,52,90,0
0,64,49,12
0,55,0,8
0,48,57,0
0,42,30,0
0,42,0,1
0,52,0,39
0,55,63,0
0,42,70,0
0,37,50,0
0,52,0,0
0,48,96,0
0,37,0,1
0,42,0,0
0,64,0,16
0,48,0,23
0,52,39,0
0,42,30,0
0,42,0,1
0,59,0,0
0,60,84,0
0,59,0,0
0,60,78,0
0,48,0,0
0,45,89,0
0,64,45,4
0,33,0,9
0,40,70,7
0,45,0,0
0,48,54,0
0,42,30,0
0,42,0,1
0,60,0,0
0,62,83,0
0,60,0,0
0,62,78,0
0,40,0,0
0,38,64,0
0,48,0,0
0,52,0,0
0,60,0,0
0,55,0,0
0,38,53,0
0,64,0,0
0,60,0,0
0,65,52,0
0,62,0,0
0,64,91,0
0,62,0,0
0,53,85,0
0,35,60,0
0,42,50,0
0,45,0,0
0,40,0,0
0,33,0,0
0,38,94,0
0,42,0,1
0,35,0,0
0,53,0,11
0,60,85,0
0,60,0,12
0,64,77,0
0,69,72,5
0,53,53,11
0,42,30,0
0,42,0,1
0,65,0,17
0,45,91,2
0,69,0,18
0,57,53,2
0,42,30,0
0,42,0,1
0,53,0,39
0,60,53,0
0,42,70,0
0,37,50,0
0,45,0,0
0,50,94,0
0,37,0,1
0,42,0,0
0,57,0,2
0,65,36,24
0,57,52,13
0,42,30,0
0,42,0,1
0,50,0,19
0,53,90,0
0,60,0,4
0,38,0,0
0,53,53,16
0,35,30,0
0,42,30,0
0,42,0,1
0,35,0,0
0,38,0,28
0,38,64,11
0,53,0,0
0,57,0,0
0,50,53,0
0,35,60,0
0,42,50,0
0,53,0,0
0,57,94,0
0,42,0,1
0,35,0,0
0,53,53,39
0,42,30,0
0,42,0,1
0,57,0,19
0,53,90,0
0,69,49,12
0,57,53,8
0,42,30,0
0,42,0,1
0,42,70,39
0,37,50,0
0,53,0,0
0,50,93,0
0,37,0,1
0,42,0,0
0,57,0,1
0,53,0,0
0,60,53,0
0,69,0,15
0,57,49,0
0,42,30,0
0,42,0,1
0,64,0,0
0,65,85,0
0,64,0,0
0,65,79,0
0,50,0,0
0,45,90,0
0,69,45,4
0,38,0,9
0,45,70,7
0,57,0,0
0,60,0,0
0,53,53,0
0,42,30,0
0,42,0,1
0,65,0,0
0,67,85,0
0,65,0,0
0,67,80,0
0,45,0,0
0,43,64,0
0,53,0,0
0,50,0,0
0,43,53,0
0,69,0,0
0,65,0,0
0,59,52,0
0,67,0,0
0,64,90,0
0,67,0,0
0,53,85,0
0,59,85,0
0,64,85,0
0,35,60,0
0,42,50,0
0,45,0,0
0,38,0,0
0,31,94,0
0,42,0,1
0,35,0,0
0,62,72,28
0,55,53,11
0,42,30,0
0,42,0,1
0,59,0,17
0,43,89,2
0,62,0,18
0,59,53,2
0,42,30,0
0,42,0,1
0,59,0,39
0,65,53,0
0,42,70,0
0,37,50,0
0,43,0,0
0,47,94,0
0,37,0,1
0,42,0,0
0,59,36,26
0,55,0,13
0,59,53,0
0,42,30,0
0,42,0,1
0,47,0,19
0,52,91,0
0,55,53,20
0,35,30,0
0,42,30,0
0,42,0,1
0,35,0,0
0,43,0,28
0,59,0,2
0,43,0,0
0,65,0,0
0,43,64,9
0,43,53,0
0,35,60,0
0,42,50,0
0,52,0,0
0,55,93,0
0,42,0,1
0,35,0,0
0,55,0,6
0,55,53,33
0,42,30,0
0,42,0,1
0,55,0,19
0,52,90,0
0,62,49,12
0,59,53,8
0,42,30,0
0,42,0,1
0,64,0,0
0,62,90,0
0,64,0,0
0,59,0,0
0,53,0,0
0,62,85,0
0,42,70,0
0,37,50,0
0,52,0,0
0,47,96,0
0,37,0,1
0,42,0,0
0,59,0,3
0,65,53,0
0,62,0,13
0,55,0,23
0,59,53,0
0,42,30,0
0,42,0,1
0,47,0,19
0,43,89,0
0,62,45,4
0,43,0,9
0,38,70,7
0,55,53,0
0,42,30,0
0,42,0,1
0,38,0,0
0,36,64,0
0,55,0,0
0,43,0,0
0,65,0,0
0,59,0,0
0,60,61,0
0,36,57,0
0,62,0,0
0,59,0,0
0,64,52,0
0,62,0,0
0,67,91,0
0,62,0,0
0,64,85,0
0,67,85,0
0,35,60,0
0,42,50,0
0,43,0,0
0,31,0,0
0,36,94,0
0,42,0,1
0,35,0,0
0,67,72,28
0,55,48,0
0,42,30,0
0,42,0,1
0,64,0,17
0,43,91,2
0,67,0,18
0,60,0,2
0,52,50,0
0,42,30,0
0,42,0,1
0,52,0,39
0,55,0,0
0,60,54,0
0,42,70,0
0,37,50,0
0,43,0,0
0,52,94,0
0,37,0,1
0,42,0,0
0,64,36,26
0,55,48,13
0,42,30,0
0,42,0,1
0,52,0,19
0,55,90,0
0,60,0,20
0,52,48,0
0,35,30,0
0,42,30,0
0,42,0,1
0,35,0,0
0,52,0,21
0,55,0,0
0,36,0,0
0,36,0,7
0,36,64,11
0,64,69,0
0,48,58,0
0,35,60,0
0,42,50,0
0,55,0,0
0,60,94,0
0,42,0,1
0,35,0,0
0,60,45,0
0,42,30,0
0,42,0,1
0,60,0,19
0,55,90,0
0,67,49,12
0,55,45,8
0,42,30,0
0,42,0,1
0,60,0,39
0,64,0,0
0,64,54,0
0,42,70,0
0,37,50,0
0,55,0,0
0,52,93,0
0,37,0,1
0,42,0,0
0,67,0,16
0,55,0,23
0,60,53,0
0,42,30,0
0,42,0,1
0,67,0,0
0,67,85,0
0,67,0,0
0,64,0,0
0,67,79,0
0,52,0,0
0,48,90,0
0,67,45,4
0,36,0,9
0,31,70,7
0,64,0,0
0,55,57,0
0,46,40,0
0,46,0,1
0,67,0,0
0,65,85,0
0,67,0,0
0,65,80,0
0,31,0,0
0,34,64,0
0,55,0,0
0,60,0,0
0,48,0,0
0,34,53,0
0,67,0,0
0,64,0,0
0,62,52,0
0,65,0,0
0,67,90,0
0,65,0,0
0,62,85,0
0,67,85,0
0,35,60,0
0,42,50,0
0,48,0,0
0,36,0,0
0,34,94,0
0,41,94,0
0,42,0,1
0,35,0,0
0,65,72,28
0,50,53,11
0,42,30,0
0,42,0,1
0,62,0,17
0,46,89,2
0,65,0,18
0,53,53,2
0,42,30,0
0,42,0,1
0,50,0,39
0,58,53,0
0,42,70,0
0,37,50,0
0,46,0,0
0,50,94,0
0,37,0,1
0,42,0,0
0,53,0,2
0,62,36,24
0,53,52,13
0,42,30,0
0,42,0,1
0,50,0,19
0,53,91,0
0,58,0,4
0,34,0,0
0,50,53,16
0,35,30,0
0,42,30,0
0,42,0,1
0,35,0,0
0,34,0,28
0,34,64,11
0,50,0,0
0,53,0,0
0,46,53,0
0,35,60,0
0,42,50,0
0,53,0,0
0,58,93,0
0,42,0,1
0,35,0,0
0,50,53,39
0,42,30,0
0,42,0,1
0,58,0,19
0,53,90,0
