track,note,velocity,time
1,65,80,0
1,56,80,48
1,63,80,48
1,56,80,48
1,61,80,48
1,63,80,24
1,65,80,24
1,66,80,24
1,63,80,24
1,68,80,48
1,65,80,48
1,56,80,48
1,63,80,48
1,56,80,48
1,61,80,48
1,63,80,24
1,65,80,24
1,66,80,24
1,63,80,24
1,68,80,48
1,70,80,48
1,73,80,24
1,73,80,24
1,73,80,24
1,75,80,24
1,73,80,48
1,72,80,24
1,70,80,24
1,73,80,24
1,73,80,24
1,73,80,24
1,75,80,24
1,73,80,48
1,65,80,2448
1,56,80,48
1,63,80,48
1,56,80,48
1,61,80,48
1,63,80,24
1,65,80,24
1,66,80,24
1,63,80,24
1,68,80,48
1,65,80,48
1,56,80,48
1,63,80,48
1,56,80,48
1,61,80,48
1,63,80,24
1,65,80,24
1,66,80,24
1,63,80,24
1,68,80,48
1,70,80,48
1,73,80,24
1,73,80,24
1,73,80,24
1,75,80,24
1,73,80,48
1,72,80,24
1,70,80,24
1,73,80,24
1,73,80,24
1,73,80,24
1,75,80,24
1,73,80,48
1,72,80,24
1,70,80,24
1,73,80,24
1,73,80,24
1,73,80,24
1,75,80,24
1,73,80,24
1,70,80,24
1,65,80,24
1,68,80,24
1,65,80,168
1,65,80,24
1,63,80,24
1,63,80,24
1,65,80,24
1,66,80,24
1,68,80,24
1,65,80,24
1,63,80,24
1,61,80,24
1,65,80,336
1,68,80,24
1,75,80,24
1,73,80,48
1,71,80,24
1,70,80,24
1,68,80,24
1,66,80,24
1,68,80,24
1,68,80,24
1,66,80,48
1,64,80,48
1,68,80,48
1,71,80,24
1,76,80,24
1,75,80,48
1,73,80,36
1,73,80,12
1,71,80,24
1,71,80,24
1,70,80,24
1,70,80,24
1,75,80,336
1,75,80,24
1,75,80,24
1,73,80,48
1,72,80,24
1,70,80,24
1,68,80,24
1,70,80,24
1,68,80,24
1,80,80,24
1,72,80,336
1,72,80,24
1,72,80,24
1,72,80,48
1,72,80,24
1,72,80,24
1,70,80,24
1,72,80,24
1,73,80,24
1,72,80,24
1,65,80,384
1,56,80,48
1,63,80,48
1,56,80,48
1,61,80,48
1,63,80,24
1,65,80,24
1,66,80,24
1,63,80,24
1,68,80,48
1,65,80,48
1,56,80,48
1,63,80,48
1,56,80,48
1,61,80,48
1,63,80,24
1,65,80,24
1,66,80,24
1,63,80,24
1,68,80,48
1,70,80,48
1,73,80,24
1,73,80,24
1,73,80,24
1,75,80,24
1,73,80,48
1,72,80,24
1,70,80,24
1,73,80,24
1,73,80,24
1,73,80,24
1,75,80,24
1,73,80,48
1,72,80,24
1,70,80,24
1,73,80,24
1,73,80,24
1,73,80,24
1,75,80,24
1,73,80,24
1,70,80,24
1,65,80,24
1,68,80,24
1,65,80,168
1,65,80,24
1,63,80,24
1,63,80,24
1,65,80,24
1,66,80,24
1,68,80,24
1,65,80,24
1,63,80,24
1,61,80,24
1,73,80,336
1,73,80,24
1,75,80,24
1,73,80,48
1,71,80,24
1,70,80,24
1,68,80,24
1,66,80,24
1,68,80,24
1,68,80,24
1,66,80,48
1,64,80,48
1,68,80,48
1,71,80,24
1,76,80,24
1,75,80,48
1,73,80,36
1,73,80,12
1,71,80,24
1,71,80,24
1,70,80,24
1,70,80,24
1,75,80,336
1,75,80,24
1,75,80,24
1,73,80,48
1,72,80,24
1,70,80,24
1,68,80,24
1,70,80,24
1,68,80,24
1,80,80,24
1,72,80,336
1,72,80,24
1,72,80,24
1,72,80,48
1,72,80,48
1,70,80,24
1,72,80,24
1,73,80,24
1,72,80,24
1,65,80,384
1,56,80,48
1,63,80,48
1,56,80,48
1,61,80,48
1,63,80,24
1,65,80,24
1,66,80,24
1,63,80,24
1,68,80,48
1,65,80,48
1,56,80,48
1,63,80,48
1,56,80,48
1,61,80,48
1,63,80,24
1,65,80,24
1,66,80,24
1,63,80,24
1,68,80,48
1,70,80,48
1,73,80,24
1,73,80,24
1,73,80,24
1,75,80,24
1,73,80,48
1,72,80,24
1,70,80,24
1,73,80,24
1,73,80,24
1,73,80,24
1,75,80,24
1,73,80,48
1,72,80,24
1,70,80,24
1,73,80,24
1,73,80,24
1,73,80,24
1,75,80,24
1,73,80,24
1,70,80,24
1,65,80,24
1,68,80,24
1,65,80,168
1,65,80,24
1,63,80,24
1,63,80,24
1,65,80,24
1,66,80,24
1,68,80,24
1,65,80,24
1,63,80,24
1,61,80,24
1,70,80,4992
1,73,80,24
1,73,80,24
1,73,80,24
1,75,80,24
1,73,80,24
1,70,80,24
1,65,80,24
1,68,80,24
1,65,80,288
1,63,80,24
1,63,80,24
1,65,80,24
1,66,80,24
1,68,80,24
1,65,80,24
1,63,80,24
1,73,80,24
2,61,80,0
2,65,80,0
2,56,80,48
2,60,80,48
2,63,80,0
2,56,80,48
2,56,80,48
2,61,80,0
2,61,80,0
2,63,80,24
2,65,80,24
2,66,80,24
2,60,80,24
2,63,80,0
2,63,80,0
2,68,80,48
2,61,80,48
2,65,80,0
2,56,80,48
2,60,80,48
2,63,80,0
2,56,80,48
2,58,80,48
2,61,80,0
2,61,80,0
2,63,80,24
2,65,80,24
2,66,80,24
2,60,80,24
2,63,80,0
2,63,80,0
2,68,80,48
2,66,80,48
2,70,80,0
2,70,80,0
2,73,80,24
2,73,80,24
2,73,80,24
2,65,80,24
2,68,80,0
2,75,80,0
2,73,80,48
2,72,80,24
2,66,80,24
2,70,80,0
2,70,80,0
2,73,80,24
2,73,80,24
2,73,80,24
2,65,80,24
2,68,80,0
2,75,80,0
2,73,80,48
2,66,80,48
2,70,80,0
2,70,80,0
2,73,80,24
2,73,80,24
2,73,80,24
2,66,80,24
2,71,80,0
2,75,80,0
2,73,80,24
2,70,80,24
2,65,80,24
2,68,80,24
2,61,80,0
2,54,80,96
2,58,80,0
2,63,80,0
2,65,80,96
2,60,80,0
2,56,80,0
2,61,80,96
2,65,80,0
2,56,80,48
2,60,80,48
2,63,80,0
2,56,80,48
2,56,80,48
2,61,80,0
2,61,80,0
2,63,80,24
2,65,80,24
2,66,80,24
2,60,80,24
2,63,80,0
2,63,80,0
2,68,80,48
2,61,80,48
2,65,80,0
2,56,80,48
2,60,80,48
2,63,80,0
2,56,80,48
2,61,80,48
2,58,80,0
2,61,80,0
2,61,80,0
2,63,80,24
2,65,80,24
2,66,80,24
2,60,80,24
2,63,80,0
2,63,80,0
2,68,80,48
2,66,80,48
2,70,80,0
2,70,80,0
2,73,80,24
2,73,80,24
2,73,80,24
2,65,80,24
2,68,80,0
2,75,80,0
2,73,80,48
2,72,80,24
2,66,80,24
2,70,80,0
2,70,80,0
2,73,80,24
2,73,80,24
2,73,80,24
2,65,80,24
2,68,80,0
2,75,80,0
2,73,80,48
2,72,80,24
2,66,80,24
2,70,80,0
2,70,80,0
2,73,80,24
2,73,80,24
2,73,80,24
2,66,80,24
2,71,80,0
2,75,80,0
2,73,80,24
2,61,80,24
2,70,80,0
2,65,80,24
2,61,80,24
2,68,80,0
2,65,80,168
2,54,80,24
2,58,80,0
2,65,80,0
2,63,80,24
2,63,80,24
2,65,80,24
2,60,80,24
2,63,80,0
2,66,80,0
2,68,80,24
2,56,80,24
2,60,80,0
2,65,80,0
2,54,80,24
2,60,80,0
2,63,80,0
2,53,80,24
2,56,80,0
2,61,80,0
2,53,80,48
2,56,80,0
2,61,80,0
2,56,80,48
2,61,80,0
2,65,80,0
2,61,80,48
2,65,80,0
2,68,80,24
2,66,80,24
2,71,80,0
2,75,80,0
2,73,80,48
2,71,80,24
2,59,80,24
2,63,80,0
2,70,80,0
2,68,80,24
2,66,80,24
2,68,80,24
2,59,80,24
2,64,80,0
2,68,80,0
2,66,80,48
2,56,80,48
2,59,80,0
2,64,80,0
2,64,80,48
2,68,80,0
2,71,80,24
2,69,80,24
2,73,80,0
2,76,80,0
2,75,80,48
2,73,80,36
2,64,80,12
2,69,80,0
2,73,80,0
2,71,80,24
2,71,80,24
2,70,80,24
2,63,80,24
2,67,80,0
2,70,80,0
2,61,80,144
2,67,80,0
2,70,80,0
2,75,80,0
2,75,80,24
2,68,80,24
2,72,80,0
2,75,80,0
2,73,80,48
2,72,80,24
2,60,80,24
2,63,80,0
2,66,80,0
2,70,80,0
2,68,80,24
2,70,80,24
2,68,80,24
2,68,80,24
2,73,80,0
2,77,80,0
2,80,80,0
2,61,80,96
2,65,80,0
2,68,80,0
2,72,80,48
2,72,80,24
2,65,80,24
2,68,80,0
2,72,80,0
2,72,80,48
2,72,80,24
2,64,80,24
2,67,80,0
2,72,80,0
2,70,80,24
2,72,80,24
2,73,80,24
2,72,80,24
2,69,80,0
2,65,80,0
2,65,80,192
2,61,80,0
2,56,80,48
2,63,80,48
2,60,80,0
2,56,80,48
2,61,80,48
2,61,80,0
2,56,80,0
2,63,80,24
2,65,80,24
2,66,80,24
2,63,80,24
2,63,80,0
2,60,80,0
2,68,80,48
2,65,80,48
2,61,80,0
2,56,80,48
2,63,80,48
2,60,80,0
2,56,80,48
2,61,80,48
2,61,80,0
2,58,80,0
2,61,80,0
2,63,80,24
2,65,80,24
2,66,80,24
2,63,80,24
2,63,80,0
2,60,80,0
2,68,80,48
2,70,80,48
2,70,80,0
2,66,80,0
2,73,80,24
2,73,80,24
2,73,80,24
2,75,80,24
2,68,80,0
2,65,80,0
2,73,80,48
2,72,80,24
2,70,80,24
2,70,80,0
2,66,80,0
2,73,80,24
2,73,80,24
2,73,80,24
2,75,80,24
2,68,80,0
2,65,80,0
2,73,80,48
2,72,80,24
2,70,80,24
2,70,80,0
2,66,80,0
2,73,80,24
2,73,80,24
2,73,80,24
2,75,80,24
2,71,80,0
2,66,80,0
2,73,80,24
2,70,80,24
2,61,80,0
2,65,80,24
2,68,80,24
2,61,80,0
2,65,80,168
2,65,80,24
2,58,80,0
2,54,80,0
2,63,80,24
2,63,80,24
2,65,80,24
2,66,80,24
2,63,80,0
2,60,80,0
2,68,80,24
2,65,80,24
2,60,80,0
2,56,80,0
2,63,80,24
2,60,80,0
2,54,80,0
2,65,80,24
2,61,80,0
2,56,80,48
2,61,80,48
2,63,80,12
2,65,80,12
2,68,80,12
2,65,80,12
2,68,80,12
2,73,80,12
2,75,80,12
2,63,80,12
2,66,80,0
2,71,80,0
2,75,80,0
2,73,80,48
2,71,80,24
2,59,80,24
2,63,80,0
2,66,80,0
2,70,80,0
2,68,80,24
2,59,80,24
2,63,80,0
2,66,80,0
2,68,80,24
2,56,80,24
2,59,80,0
2,64,80,0
2,68,80,0
2,66,80,48
2,56,80,48
2,59,80,0
2,64,80,0
2,64,80,48
2,68,80,0
2,68,80,0
2,71,80,24
2,64,80,24
2,69,80,0
2,73,80,0
2,76,80,0
2,75,80,48
2,73,80,36
2,61,80,12
2,64,80,0
2,69,80,0
2,73,80,0
2,71,80,24
2,71,80,24
2,70,80,24
2,63,80,24
2,67,80,0
2,70,80,0
2,61,80,144
2,67,80,0
2,70,80,0
2,75,80,0
2,75,80,24
2,63,80,24
2,68,80,0
2,72,80,0
2,75,80,0
2,73,80,48
2,72,80,24
2,60,80,24
2,63,80,0
2,66,80,0
2,70,80,0
2,68,80,24
2,60,80,24
2,63,80,0
2,66,80,0
2,70,80,0
2,60,80,24
2,63,80,0
2,66,80,0
2,68,80,0
2,68,80,24
2,73,80,0
2,77,80,0
2,80,80,0
2,72,80,336
2,72,80,24
2,65,80,24
2,68,80,0
2,72,80,0
2,72,80,48
2,64,80,48
2,67,80,0
2,72,80,0
2,70,80,24
2,72,80,24
2,73,80,24
2,65,80,24
2,69,80,0
2,72,80,0
2,73,80,192
2,77,80,0
2,68,80,48
2,72,80,48
2,75,80,0
2,68,80,48
2,65,80,48
2,73,80,0
2,75,80,24
2,68,80,24
2,77,80,0
2,78,80,24
2,72,80,24
2,75,80,0
2,80,80,48
2,73,80,48
2,77,80,0
2,68,80,48
2,72,80,48
2,75,80,0
2,68,80,48
2,70,80,48
2,73,80,0
2,75,80,24
2,73,80,24
2,77,80,0
2,78,80,24
2,72,80,24
2,75,80,0
2,80,80,48
2,66,80,48
2,70,80,0
2,70,80,0
2,66,80,24
2,70,80,0
2,73,80,0
2,66,80,24
2,70,80,0
2,73,80,0
2,66,80,24
2,70,80,0
2,73,80,0
2,65,80,24
2,68,80,0
2,75,80,0
2,65,80,48
2,68,80,0
2,73,80,0
2,72,80,24
2,66,80,24
2,70,80,0
2,70,80,0
2,66,80,24
2,70,80,0
2,73,80,0
2,66,80,24
2,70,80,0
2,73,80,0
2,66,80,24
2,70,80,0
2,73,80,0
2,65,80,24
2,68,80,0
2,75,80,0
2,65,80,48
2,68,80,0
2,73,80,0
2,72,80,24
2,66,80,24
2,70,80,0
2,70,80,0
2,66,80,24
2,70,80,0
2,73,80,0
2,66,80,24
2,70,80,0
2,73,80,0
2,66,80,24
2,70,80,0
2,73,80,0
2,66,80,24
2,71,80,0
2,75,80,0
2,73,80,24
2,61,80,24
2,70,80,0
2,65,80,24
2,61,80,24
2,68,80,0
2,65,80,168
2,58,80,24
2,61,80,0
2,65,80,0
2,63,80,24
2,63,80,24
2,65,80,24
2,60,80,24
2,63,80,0
2,66,80,0
2,68,80,24
2,56,80,24
2,60,80,0
2,65,80,0
2,54,80,24
2,60,80,0
2,63,80,0
2,65,80,24
2,77,80,0
2,68,80,48
2,63,80,48
2,75,80,0
2,68,80,48
2,73,80,48
2,61,80,0
2,75,80,24
2,63,80,0
2,77,80,24
2,65,80,0
2,78,80,24
2,66,80,0
2,75,80,24
2,63,80,0
2,80,80,48
2,68,80,0
2,77,80,48
2,65,80,0
2,68,80,48
2,75,80,48
2,63,80,0
2,68,80,48
2,73,80,48
2,61,80,0
2,75,80,24
2,63,80,0
2,77,80,24
2,65,80,0
2,78,80,24
2,66,80,0
2,75,80,24
2,63,80,0
2,68,80,48
2,80,80,0
2,82,80,48
2,70,80,0
2,85,80,24
2,73,80,0
2,85,80,24
2,73,80,0
2,85,80,24
2,73,80,0
2,87,80,24
2,75,80,0
2,85,80,48
2,73,80,0
2,84,80,24
2,72,80,0
2,82,80,24
2,70,80,0
2,73,80,24
2,85,80,0
2,73,80,24
2,85,80,0
2,85,80,24
2,73,80,0
2,87,80,24
2,75,80,0
2,73,80,48
2,85,80,0
2,84,80,24
2,72,80,0
2,66,80,24
2,70,80,0
2,70,80,0
2,73,80,24
2,73,80,24
2,73,80,24
2,66,80,24
2,71,80,0
2,75,80,0
2,73,80,24
2,61,80,24
2,70,80,0
2,65,80,24
2,61,80,24
2,68,80,0
2,54,80,96
2,58,80,0
2,65,80,0
2,63,80,24
2,63,80,24
2,65,80,24
2,56,80,24
2,60,80,0
2,66,80,0
2,68,80,24
2,65,80,24
2,63,80,24
2,85,80,24
2,82,80,0
2,78,80,0
2,73,80,0
2,87,80,96
2,82,80,0
2,78,80,0
2,75,80,0
2,89,80,96
2,81,80,0
2,77,80,0
2,91,80,96
2,88,80,0
2,79,80,0
2,92,80,96
2,89,80,0
2,80,80,0
3,37,80,0
3,44,80,0
3,37,80,192
3,44,80,0
3,37,80,192
3,44,80,0
3,37,80,192
3,42,80,0
3,44,80,96
3,49,80,96
3,42,80,0
3,49,80,96
3,37,80,0
3,42,80,96
3,49,80,0
3,37,80,96
3,49,80,0
3,49,80,96
3,42,80,0
3,53,80,576
3,44,80,0
3,44,80,96
3,37,80,192
3,44,80,0
3,37,80,96
3,44,80,0
3,37,80,96
3,44,80,0
3,37,80,96
3,44,80,0
3,37,80,96
3,44,80,0
3,37,80,96
3,44,80,0
3,42,80,96
3,44,80,96
3,42,80,96
3,37,80,96
3,42,80,96
3,37,80,96
3,42,80,96
3,47,80,96
3,42,80,48
3,49,80,0
3,44,80,48
3,53,80,0
3,44,80,96
3,37,80,192
3,49,80,0
3,54,80,672
3,40,80,96
3,52,80,0
3,45,80,192
3,57,80,0
3,51,80,312
3,55,80,24
3,56,80,24
3,58,80,24
3,56,80,96
3,44,80,0
3,49,80,192
3,37,80,0
