track,note,velocity,time
1,79,100,19968
1,83,100,64
1,86,100,64
1,84,100,64
1,79,100,256
1,76,100,64
1,81,100,64
1,77,100,256
1,74,100,64
1,76,100,64
1,79,100,256
1,79,100,192
1,83,100,64
1,86,100,64
1,84,100,64
1,79,100,256
1,76,100,64
1,81,100,64
1,77,100,256
1,74,100,64
1,72,100,64
1,77,100,896
1,74,100,64
1,72,100,64
1,77,100,896
1,74,100,64
1,72,100,64
1,81,100,896
1,81,100,64
1,81,100,64
1,83,100,128
1,83,100,64
1,83,100,64
1,79,100,768
1,83,100,64
1,86,100,64
1,84,100,64
1,79,100,256
1,76,100,64
1,81,100,64
1,77,100,256
1,74,100,64
1,76,100,64
1,79,100,256
1,79,100,192
1,83,100,64
1,86,100,64
1,84,100,64
1,79,100,256
1,76,100,64
1,81,100,64
1,77,100,256
1,76,100,64
1,72,100,64
1,77,100,896
1,74,100,64
1,72,100,64
1,77,100,896
1,74,100,64
1,72,100,64
1,81,100,896
1,81,100,64
1,81,100,64
1,83,100,128
1,83,100,64
1,84,100,64
1,81,100,3648
1,81,100,64
1,77,100,64
1,77,100,64
1,74,100,64
1,77,100,64
1,81,100,128
1,81,100,64
1,77,100,64
1,77,100,64
1,74,100,64
1,77,100,64
1,82,100,3072
1,83,100,64
1,83,100,64
1,84,100,64
1,86,100,64
1,77,100,832
1,77,100,64
1,79,100,64
1,81,100,64
1,79,100,832
1,83,100,64
1,86,100,64
1,84,100,64
1,79,100,256
1,76,100,64
1,81,100,64
1,77,100,256
1,74,100,64
1,76,100,64
1,79,100,256
1,79,100,192
1,83,100,64
1,86,100,64
1,84,100,64
1,79,100,256
1,76,100,64
1,81,100,64
1,77,100,256
1,74,100,64
1,72,100,64
1,77,100,896
1,74,100,64
1,72,100,64
1,77,100,896
1,74,100,64
1,72,100,64
1,81,100,896
1,81,100,64
1,81,100,64
1,83,100,128
1,83,100,64
1,84,100,64
1,79,100,49920
1,83,100,64
1,86,100,64
1,84,100,64
1,79,100,256
1,76,100,64
1,81,100,64
1,77,100,256
1,74,100,64
1,76,100,64
1,79,100,288
1,79,100,160
1,83,100,64
1,86,100,64
1,84,100,64
1,79,100,256
1,76,100,64
1,81,100,64
1,77,100,256
1,74,100,64
1,72,100,64
1,77,100,896
1,74,100,64
1,72,100,64
1,77,100,896
1,74,100,64
1,72,100,64
1,81,100,896
1,81,100,64
1,81,100,64
1,83,100,128
1,83,100,64
1,83,100,64
1,79,100,768
1,83,100,64
1,86,100,64
1,84,100,64
1,79,100,256
1,76,100,64
1,81,100,64
1,77,100,256
1,74,100,64
1,76,100,64
1,79,100,256
1,79,100,192
1,83,100,64
1,86,100,64
1,84,100,64
1,79,100,256
1,76,100,64
1,81,100,64
1,77,100,256
1,76,100,64
1,72,100,64
1,77,100,896
1,74,100,64
1,72,100,64
1,77,100,896
1,74,100,64
1,72,100,64
1,81,100,896
1,81,100,64
1,81,100,64
1,83,100,128
1,83,100,64
1,84,100,64
1,81,100,3648
1,81,100,64
1,77,100,64
1,77,100,64
1,74,100,64
1,77,100,64
1,81,100,128
1,81,100,64
1,77,100,64
1,77,100,64
1,74,100,64
1,77,100,64
1,82,100,3072
1,83,100,64
1,83,100,64
1,84,100,64
1,86,100,64
1,77,100,832
1,77,100,64
1,79,100,64
1,81,100,64
1,79,100,832
1,83,100,64
1,86,100,64
1,84,100,64
1,79,100,256
1,76,100,64
1,81,100,64
1,77,100,256
1,74,100,64
1,76,100,64
1,79,100,256
1,79,100,192
1,83,100,64
1,86,100,64
1,84,100,64
1,79,100,256
1,76,100,64
1,81,100,64
1,77,100,256
1,74,100,64
1,72,100,64
1,77,100,896
1,74,100,64
1,72,100,64
1,77,100,896
1,74,100,64
1,72,100,64
1,81,100,896
1,81,100,64
1,81,100,64
1,83,100,128
1,83,100,64
1,84,100,64
2,67,100,25536
2,67,100,64
2,67,100,64
2,67,100,832
2,67,100,64
2,67,100,64
2,67,100,832
2,67,100,64
2,67,100,64
2,67,100,8512
2,67,100,64
2,67,100,64
2,67,100,832
2,67,100,64
2,67,100,64
2,67,100,832
2,67,100,64
2,67,100,64
2,71,100,2944
2,71,100,64
2,67,100,64
2,67,100,64
2,64,100,64
2,67,100,64
2,71,100,128
2,71,100,64
2,67,100,64
2,67,100,64
2,64,100,64
2,67,100,64
2,62,100,3392
2,64,100,128
2,66,100,128
2,67,100,128
2,69,100,128
2,71,100,64
2,69,100,128
2,67,100,9088
2,67,100,64
2,67,100,64
2,67,100,832
2,67,100,64
2,67,100,64
2,67,100,832
2,67,100,64
2,67,100,64
2,67,100,57664
2,67,100,64
2,67,100,64
2,67,100,832
2,67,100,64
2,67,100,64
2,67,100,832
2,67,100,64
2,67,100,64
2,67,100,8512
2,67,100,64
2,67,100,64
2,67,100,832
2,67,100,64
2,67,100,64
2,67,100,832
2,67,100,64
2,67,100,64
2,71,100,2944
2,71,100,64
2,67,100,64
2,67,100,64
2,64,100,64
2,67,100,64
2,71,100,128
2,71,100,64
2,67,100,64
2,67,100,64
2,64,100,64
2,67,100,64
2,62,100,3392
2,64,100,128
2,66,100,128
2,67,100,128
2,69,100,128
2,71,100,64
2,69,100,128
2,67,100,9088
2,67,100,64
2,67,100,64
2,67,100,832
2,67,100,64
2,67,100,64
2,67,100,832
2,67,100,64
2,67,100,64
3,77,100,75456
3,69,100,0
3,72,100,0
3,74,100,64
3,65,100,0
3,69,100,0
3,72,100,64
3,64,100,0
3,67,100,0
3,69,100,896
3,72,100,0
3,77,100,0
3,65,100,64
3,74,100,0
3,69,100,0
3,72,100,64
3,64,100,0
3,67,100,0
3,72,100,896
3,77,100,0
3,74,100,0
3,81,100,0
3,72,100,64
3,74,100,0
3,77,100,0
3,81,100,0
3,72,100,64
3,74,100,0
3,77,100,0
3,81,100,0
3,74,100,128
3,79,100,0
3,77,100,0
3,83,100,0
3,74,100,64
3,77,100,0
3,79,100,0
3,83,100,0
3,74,100,64
3,79,100,0
3,83,100,0
3,77,100,0
3,77,100,7104
3,69,100,0
3,72,100,0
3,74,100,64
3,65,100,0
3,69,100,0
3,72,100,64
3,64,100,0
3,67,100,0
3,77,100,896
3,69,100,0
3,72,100,0
3,74,100,64
3,65,100,0
3,69,100,0
3,64,100,64
3,72,100,0
3,67,100,0
3,77,100,896
3,72,100,0
3,74,100,0
3,81,100,0
3,72,100,64
3,74,100,0
3,77,100,0
3,81,100,0
3,77,100,64
3,72,100,0
3,74,100,0
3,81,100,0
3,74,100,128
3,79,100,0
3,77,100,0
3,83,100,0
3,79,100,64
3,74,100,0
3,77,100,0
3,83,100,0
3,76,100,64
3,81,100,0
3,79,100,0
3,84,100,0
3,72,100,19392
3,77,100,0
3,69,100,0
3,74,100,64
3,65,100,0
3,69,100,0
3,72,100,64
3,64,100,0
3,67,100,0
3,77,100,896
3,72,100,0
3,69,100,0
3,74,100,64
3,65,100,0
3,69,100,0
3,72,100,64
3,67,100,0
3,64,100,0
3,72,100,896
3,74,100,0
3,81,100,0
3,77,100,0
3,72,100,64
3,74,100,0
3,77,100,0
3,81,100,0
3,72,100,64
3,74,100,0
3,81,100,0
3,77,100,0
3,74,100,192
3,79,100,0
3,77,100,0
3,83,100,0
3,74,100,64
3,79,100,0
3,77,100,0
3,83,100,0
3,74,100,64
3,79,100,0
3,83,100,0
3,77,100,0
3,81,100,64
3,76,100,0
3,79,100,0
3,84,100,0
3,77,100,7104
3,69,100,0
3,72,100,0
3,74,100,64
3,65,100,0
3,69,100,0
3,72,100,64
3,64,100,0
3,67,100,0
3,69,100,896
3,72,100,0
3,77,100,0
3,65,100,64
3,74,100,0
3,69,100,0
3,72,100,64
3,64,100,0
3,67,100,0
3,72,100,896
3,77,100,0
3,74,100,0
3,81,100,0
3,72,100,64
3,74,100,0
3,77,100,0
3,81,100,0
3,72,100,64
3,74,100,0
3,77,100,0
3,81,100,0
3,74,100,128
3,79,100,0
3,77,100,0
3,83,100,0
3,74,100,64
3,77,100,0
3,79,100,0
3,83,100,0
3,74,100,64
3,79,100,0
3,83,100,0
3,77,100,0
3,77,100,7104
3,69,100,0
3,72,100,0
3,74,100,64
3,65,100,0
3,69,100,0
3,72,100,64
3,64,100,0
3,67,100,0
3,77,100,896
3,69,100,0
3,72,100,0
3,74,100,64
3,65,100,0
3,69,100,0
3,64,100,64
3,72,100,0
3,67,100,0
3,77,100,896
3,72,100,0
3,74,100,0
3,81,100,0
3,72,100,64
3,74,100,0
3,77,100,0
3,81,100,0
3,77,100,64
3,72,100,0
3,74,100,0
3,81,100,0
3,74,100,128
3,79,100,0
3,77,100,0
3,83,100,0
3,79,100,64
3,74,100,0
3,77,100,0
3,83,100,0
3,76,100,64
3,81,100,0
3,79,100,0
3,84,100,0
3,72,100,19392
3,77,100,0
3,69,100,0
3,74,100,64
3,65,100,0
3,69,100,0
3,72,100,64
3,64,100,0
3,67,100,0
3,77,100,896
3,72,100,0
3,69,100,0
3,74,100,64
3,65,100,0
3,69,100,0
3,72,100,64
3,67,100,0
3,64,100,0
3,72,100,896
3,74,100,0
3,81,100,0
3,77,100,0
3,72,100,64
3,74,100,0
3,77,100,0
3,81,100,0
3,72,100,64
3,74,100,0
3,81,100,0
3,77,100,0
3,83,100,96
3,74,100,32
3,77,100,0
3,79,100,0
3,74,100,64
3,77,100,0
3,79,100,0
3,83,100,0
3,76,100,64
3,79,100,0
3,81,100,0
3,84,100,0
3,77,100,128
3,81,100,0
3,84,100,0
3,88,100,0
3,91,100,64
3,86,100,0
3,81,100,0
4,64,100,74688
4,60,100,0
4,57,100,0
4,67,100,0
4,64,100,64
4,61,100,0
4,58,100,0
4,67,100,0
4,59,100,64
4,67,100,0
4,62,100,0
4,65,100,0
4,67,100,832
4,60,100,0
4,57,100,0
4,64,100,0
4,58,100,64
4,61,100,0
4,64,100,0
4,67,100,0
4,67,100,64
4,59,100,0
4,65,100,0
4,62,100,0
4,59,100,832
4,67,100,0
4,62,100,0
4,65,100,0
4,59,100,64
4,62,100,0
4,67,100,0
4,65,100,0
4,59,100,64
4,65,100,0
4,62,100,0
4,67,100,0
4,57,100,8512
4,64,100,0
4,60,100,0
4,67,100,0
4,61,100,64
4,58,100,0
4,64,100,0
4,67,100,0
4,59,100,64
4,62,100,0
4,65,100,0
4,67,100,0
4,64,100,832
4,57,100,0
4,60,100,0
4,67,100,0
4,61,100,64
4,58,100,0
4,64,100,0
4,67,100,0
4,67,100,64
4,59,100,0
4,65,100,0
4,62,100,0
4,59,100,832
4,65,100,0
4,67,100,0
4,62,100,0
4,59,100,64
4,67,100,0
4,62,100,0
4,65,100,0
4,67,100,64
4,59,100,0
4,62,100,0
4,65,100,0
4,60,100,20800
4,64,100,0
4,67,100,0
4,57,100,0
4,58,100,64
4,61,100,0
4,64,100,0
4,67,100,0
4,67,100,64
4,59,100,0
4,65,100,0
4,62,100,0
4,57,100,832
4,60,100,0
4,64,100,0
4,67,100,0
4,67,100,64
4,58,100,0
4,61,100,0
4,64,100,0
4,67,100,64
4,59,100,0
4,65,100,0
4,62,100,0
4,67,100,832
4,59,100,0
4,62,100,0
4,65,100,0
4,67,100,64
4,59,100,0
4,62,100,0
4,65,100,0
4,65,100,64
4,62,100,0
4,59,100,0
4,67,100,0
4,64,100,8512
4,60,100,0
4,57,100,0
4,67,100,0
4,64,100,64
4,61,100,0
4,58,100,0
4,67,100,0
4,59,100,64
4,67,100,0
4,62,100,0
4,65,100,0
4,67,100,832
4,60,100,0
4,57,100,0
4,64,100,0
4,58,100,64
4,61,100,0
4,64,100,0
4,67,100,0
4,67,100,64
4,59,100,0
4,65,100,0
4,62,100,0
4,59,100,832
4,67,100,0
4,62,100,0
4,65,100,0
4,59,100,64
4,62,100,0
4,67,100,0
4,65,100,0
4,59,100,64
4,65,100,0
4,62,100,0
4,67,100,0
4,57,100,8512
4,64,100,0
4,60,100,0
4,67,100,0
4,61,100,64
4,58,100,0
4,64,100,0
4,67,100,0
4,59,100,64
4,62,100,0
4,65,100,0
4,67,100,0
4,64,100,832
4,57,100,0
4,60,100,0
4,67,100,0
4,61,100,64
4,58,100,0
4,64,100,0
4,67,100,0
4,67,100,64
4,59,100,0
4,65,100,0
4,62,100,0
4,59,100,832
4,65,100,0
4,67,100,0
4,62,100,0
4,59,100,64
4,67,100,0
4,62,100,0
4,65,100,0
4,67,100,64
4,59,100,0
4,62,100,0
4,65,100,0
4,60,100,20800
4,64,100,0
4,67,100,0
4,57,100,0
4,58,100,64
4,61,100,0
4,64,100,0
4,67,100,0
4,67,100,64
4,59,100,0
4,65,100,0
4,62,100,0
4,57,100,832
4,60,100,0
4,64,100,0
4,67,100,0
4,67,100,64
4,58,100,0
4,61,100,0
4,64,100,0
4,67,100,64
4,59,100,0
4,65,100,0
4,62,100,0
4,67,100,832
4,59,100,0
4,62,100,0
4,65,100,0
4,67,100,64
4,59,100,0
4,62,100,0
4,65,100,0
4,65,100,64
4,62,100,0
4,59,100,0
4,67,100,0
5,55,90,20160
5,65,90,64
5,57,90,0
5,59,90,0
5,62,90,0
5,55,90,64
5,55,90,256
5,57,90,64
5,64,90,0
5,60,90,0
5,55,90,64
5,55,90,288
5,65,90,64
5,57,90,0
5,59,90,0
5,62,90,0
5,55,90,64
5,55,90,256
5,57,90,64
5,64,90,0
5,60,90,0
5,55,90,64
5,55,90,224
5,65,90,64
5,57,90,0
5,59,90,0
5,62,90,0
5,55,90,64
5,55,90,256
5,64,90,64
5,57,90,0
5,60,90,0
5,55,90,64
5,55,90,256
5,57,90,64
5,59,90,0
5,62,90,0
5,65,90,0
5,55,90,64
5,55,90,7168
5,62,90,64
5,59,90,0
5,57,90,0
5,65,90,0
5,55,90,64
5,55,90,256
5,57,90,64
5,60,90,0
5,64,90,0
5,55,90,64
5,55,90,256
5,65,90,64
5,62,90,0
5,57,90,0
5,59,90,0
5,55,90,64
5,55,90,256
5,57,90,64
5,60,90,0
5,64,90,0
5,55,90,64
5,55,90,256
5,62,90,64
5,59,90,0
5,57,90,0
5,65,90,0
5,55,90,32
5,55,90,288
5,60,90,64
5,64,90,0
5,57,90,0
5,55,90,64
5,55,90,256
5,59,90,64
5,62,90,0
5,57,90,0
5,65,90,0
5,55,90,64
5,55,90,19456
5,57,90,64
5,59,90,0
5,62,90,0
5,65,90,32
5,55,90,32
5,55,90,256
5,57,90,64
5,60,90,0
5,64,90,0
5,55,90,64
5,55,90,256
5,57,90,64
5,59,90,0
5,62,90,0
5,65,90,0
5,55,90,64
5,55,90,256
5,57,90,64
5,64,90,0
5,60,90,0
5,55,90,64
5,55,90,256
5,59,90,64
5,57,90,0
5,62,90,0
5,65,90,0
5,55,90,64
5,55,90,256
5,57,90,64
5,64,90,0
5,60,90,0
5,55,90,64
5,55,90,256
5,65,90,64
5,62,90,0
5,57,90,0
5,59,90,0
5,55,90,64
5,55,90,56320
5,65,90,64
5,57,90,0
5,59,90,0
5,62,90,0
5,55,90,64
5,55,90,256
5,57,90,64
5,64,90,0
5,60,90,0
5,55,90,64
5,55,90,288
5,65,90,64
5,57,90,0
5,59,90,0
5,62,90,0
5,55,90,64
5,55,90,256
5,57,90,64
5,64,90,0
5,60,90,0
5,55,90,64
5,55,90,224
5,65,90,64
5,57,90,0
5,59,90,0
5,62,90,0
5,55,90,64
5,55,90,256
5,64,90,64
5,57,90,0
5,60,90,0
5,55,90,64
5,55,90,256
5,57,90,64
5,59,90,0
5,62,90,0
5,65,90,0
5,55,90,64
5,55,90,7168
5,62,90,64
5,59,90,0
5,57,90,0
5,65,90,0
5,55,90,64
5,55,90,256
5,57,90,64
5,60,90,0
5,64,90,0
5,55,90,64
5,55,90,256
5,65,90,64
5,62,90,0
5,57,90,0
5,59,90,0
5,55,90,64
5,55,90,256
5,57,90,64
5,60,90,0
5,64,90,0
5,55,90,64
5,55,90,256
5,62,90,64
5,59,90,0
5,57,90,0
5,65,90,0
5,55,90,32
5,55,90,288
5,60,90,64
5,64,90,0
5,57,90,0
5,55,90,64
