track,note,velocity,time
1,57,80,153
1,53,80,2
1,60,80,0
1,57,0,15
1,60,0,1
1,58,80,55
1,62,80,2
1,62,0,5
1,58,0,5
1,64,80,82
1,60,80,1
1,64,0,8
1,60,0,1
1,58,80,83
1,62,80,2
1,62,0,14
1,58,0,2
1,60,80,95
1,57,80,0
1,53,0,25
1,60,0,1
1,57,0,1
2,69,125,23040
2,65,112,0
2,72,125,0
2,65,0,24
2,72,0,2
2,69,0,1
2,65,100,39
2,70,100,0
2,74,125,0
2,65,0,15
2,74,0,1
2,70,0,2
2,65,100,32
2,72,125,0
2,76,100,0
2,72,0,20
2,65,0,0
2,76,0,1
2,65,100,56
2,70,100,0
2,74,125,0
2,74,0,26
2,65,0,0
2,70,0,1
2,65,112,41
2,69,112,0
2,72,125,0
2,65,0,18
2,72,0,2
2,69,0,0
2,70,112,37
2,65,100,0
2,74,112,0
2,74,0,21
2,65,0,3
2,70,0,2
2,65,112,42
2,72,112,0
2,76,112,0
2,76,0,17
2,65,0,2
2,72,0,1
2,65,100,51
2,70,100,0
2,74,112,0
2,74,0,24
2,70,0,3
2,65,0,0
2,61,100,107
2,64,112,0
2,69,112,0
2,64,0,16
2,61,0,0
2,69,0,4
2,65,125,57
2,62,112,0
2,69,125,0
2,62,0,899
2,69,0,3
2,65,0,1
2,65,127,14
2,62,125,0
2,70,125,0
2,62,0,6
2,70,0,1
2,65,0,2
2,65,112,47
2,62,112,0
2,69,112,0
2,69,0,12
2,62,0,1
2,65,0,2
2,65,112,44
2,70,100,0
2,62,112,0
2,62,0,15
2,65,0,3
2,70,0,3
2,69,125,44
2,72,125,0
2,65,112,1
2,72,0,21
2,69,0,1
2,65,0,1
2,64,125,74
2,67,125,0
2,60,100,0
2,60,0,11
2,64,0,4
2,67,0,2
3,60,80,480
3,65,80,36
3,60,0,2
3,72,80,58
3,69,80,0
3,65,0,4
3,60,80,56
3,69,0,6
3,72,0,3
3,60,0,50
3,62,80,1
3,65,80,42
3,62,0,7
3,72,80,53
3,70,80,0
3,65,0,10
3,62,80,50
3,70,0,7
3,72,0,4
3,62,0,40
3,64,80,4
3,65,80,49
3,64,0,5
3,72,80,55
3,69,80,0
3,65,0,5
3,64,80,55
3,69,0,4
3,72,0,2
3,64,0,43
3,62,80,11
3,62,0,43
3,65,80,1
3,70,80,60
3,72,80,0
3,65,0,4
3,70,0,53
3,62,80,3
3,72,0,1
3,62,0,35
3,60,80,6
3,65,80,51
3,60,0,2
3,69,80,58
3,72,80,0
3,65,0,11
3,69,0,42
3,72,0,1
3,60,80,6
3,60,0,58
3,62,80,2
3,65,80,42
3,62,0,5
3,65,0,50
3,70,80,5
3,72,80,0
3,70,0,50
3,72,0,2
3,62,80,8
3,64,80,2
3,62,0,6
3,64,0,35
3,65,80,10
3,65,0,54
3,69,80,6
3,72,80,0
3,69,0,53
3,72,0,5
3,64,80,2
3,64,0,3
3,62,80,3
3,65,80,53
3,62,0,7
3,65,0,45
3,70,80,8
3,72,80,0
3,70,0,115
3,72,0,4
3,60,100,2
3,65,100,1
3,70,112,0
3,72,100,1
3,64,77,236
3,72,0,134
3,70,0,4
3,60,0,2
3,65,0,0
3,64,0,80
4,60,80,480
4,65,80,60
4,60,0,2
4,72,80,58
4,69,80,0
4,65,0,4
4,60,80,56
4,69,0,6
4,72,0,3
4,60,0,50
4,62,80,1
4,65,80,60
4,62,0,7
4,72,80,53
4,70,80,0
4,65,0,10
4,62,80,50
4,70,0,7
4,72,0,4
4,62,0,40
4,64,80,9
4,65,80,60
4,64,0,5
4,72,80,55
4,69,80,0
4,65,0,5
4,64,80,55
4,69,0,4
4,72,0,2
4,64,0,43
4,62,80,11
4,62,0,59
4,65,80,1
4,70,80,60
4,72,80,0
4,65,0,4
4,70,0,53
4,62,80,3
4,72,0,1
4,62,0,35
4,60,80,24
4,65,80,60
4,60,0,2
4,69,80,58
4,72,80,0
4,65,0,11
4,69,0,42
4,72,0,1
4,60,80,6
4,60,0,58
4,62,80,2
4,65,80,60
4,62,0,5
4,65,0,50
4,70,80,5
4,72,80,0
4,70,0,50
4,72,0,2
4,62,80,8
4,64,80,60
4,62,0,6
4,64,0,44
4,65,80,10
4,65,0,54
4,69,80,6
4,72,80,0
4,69,0,53
4,72,0,5
4,64,80,2
4,64,0,57
4,62,80,3
4,65,80,60
4,62,0,7
4,65,0,45
4,70,80,8
4,72,80,0
4,70,0,115
4,72,0,4
4,72,60,16801
4,77,60,60
4,81,60,60
4,84,60,0
4,77,0,1
4,72,0,4
4,72,60,55
4,84,0,1
4,81,0,23
4,72,0,8
4,74,60,28
4,77,60,60
4,82,60,60
4,84,60,0
4,77,0,4
4,74,0,7
4,74,60,49
4,84,0,4
4,82,0,8
4,76,60,48
4,74,0,5
4,77,60,55
4,76,0,59
4,81,60,1
4,84,60,0
4,77,0,5
4,76,60,55
4,84,0,12
4,81,0,15
4,74,60,33
4,76,0,6
4,77,60,54
4,82,60,60
4,84,60,0
4,77,0,5
4,74,0,0
4,74,60,55
4,84,0,32
4,82,0,12
4,72,60,16
4,74,0,7
4,77,60,53
4,72,0,44
4,81,60,16
4,84,60,0
4,77,0,4
4,72,60,56
4,84,0,2
4,81,0,3
4,74,60,55
4,72,0,5
4,77,60,55
4,84,60,60
4,82,60,0
4,74,0,0
4,77,0,2
4,74,60,58
4,82,0,2
4,84,0,1
4,76,60,57
4,74,0,10
4,77,60,50
4,76,0,58
4,84,60,2
4,81,60,0
4,77,0,3
4,76,60,57
4,84,0,8
4,81,0,4
4,74,60,48
4,76,0,5
4,77,60,55
4,74,0,37
4,77,0,21
4,84,60,2
4,82,60,0
4,74,60,60
4,84,0,17
4,82,0,4
4,74,0,30
4,69,60,9
4,76,60,60
4,81,100,60
4,84,100,60
4,84,0,126
4,76,0,78
4,69,0,5
4,81,0,34
4,55,100,57
4,86,112,0
4,62,88,60
4,67,88,60
4,70,100,60
4,86,0,9
4,74,100,51
4,70,0,5
4,79,60,55
4,74,0,8
4,82,100,52
4,79,0,9
4,55,0,13
4,62,0,4
4,67,0,8
4,79,77,26
4,82,0,4
4,79,0,7
4,60,100,49
4,67,68,60
4,72,100,60
4,67,0,2
4,72,0,57
4,67,88,1
4,72,112,60
4,67,0,4
4,76,60,116
4,60,0,26
4,72,0,11
4,76,0,19
4,84,112,4
4,84,0,39
4,88,77,21
4,84,100,0
4,79,88,0
4,72,100,0
4,88,0,319
4,84,0,4
4,79,0,27
4,72,0,8
4,72,60,122
4,77,60,60
4,72,0,29
4,84,60,31
4,81,60,0
4,77,0,4
4,77,60,56
4,84,0,3
4,81,0,5
4,74,60,52
4,77,0,17
4,77,60,43
4,74,0,48
4,77,0,10
4,82,60,2
4,84,60,0
4,84,0,57
4,74,60,3
4,82,0,2
4,76,60,58
4,74,0,3
4,77,60,57
4,76,0,13
4,81,60,47
4,84,60,0
4,77,0,6
4,76,60,54
4,84,0,8
4,81,0,6
4,74,60,46
4,76,0,4
4,77,60,56
4,74,0,44
4,82,60,16
4,84,60,0
4,77,0,4
4,74,60,56
4,84,0,7
4,82,0,15
4,72,60,38
4,74,0,4
4,77,60,56
4,72,0,57
4,81,60,3
4,84,60,0
4,77,0,12
4,72,60,48
4,84,0,34
4,81,0,15
4,74,60,11
4,72,0,6
4,77,60,54
4,74,0,1
4,82,60,59
4,84,60,0
4,77,0,5
4,74,60,55
4,84,0,0
4,82,0,2
4,76,60,58
4,74,0,5
4,77,60,55
4,76,0,44
4,84,60,16
4,81,60,0
4,77,0,3
4,76,60,57
4,84,0,7
4,81,0,12
4,74,60,41
4,76,0,4
4,77,60,56
4,74,0,53
4,84,60,7
4,82,60,0
4,77,0,6
4,84,0,45
4,82,0,7
4,74,60,2
4,74,0,56
4,57,60,4
4,81,77,0
4,73,68,60
4,81,0,4
4,64,51,56
4,76,88,0
4,57,0,46
4,81,60,14
4,76,0,2
4,81,0,56
4,85,68,2
4,69,36,0
4,64,0,2
4,81,60,58
4,85,0,12
4,73,0,1
4,64,68,47
4,76,68,0
4,81,0,4
4,69,0,7
4,73,88,49
4,76,0,7
4,79,88,53
4,57,68,0
4,73,0,4
4,64,0,3
4,79,0,50
4,73,77,3
4,76,68,60
4,67,88,0
4,76,0,54
4,79,88,6
4,79,0,45
4,67,0,13
4,82,100,2
4,69,68,0
4,82,0,54
4,85,60,6
4,82,112,60
4,64,68,0
4,57,0,0
4,85,0,8
4,82,0,42
4,79,51,10
4,79,0,10
4,64,0,40
4,73,0,2
4,62,88,8
4,77,100,0
4,69,0,1
4,77,0,48
4,74,88,11
4,69,60,60
4,77,100,0
4,74,0,11
4,81,51,49
4,77,0,45
4,86,100,15
4,74,88,0
4,81,0,5
4,69,0,7
4,77,88,48
4,86,0,11
4,81,68,49
4,69,68,0
4,62,0,21
4,74,0,17
4,86,100,22
4,77,0,6
4,69,0,46
4,60,100,8
4,89,100,0
4,81,0,7
4,86,0,0
4,77,88,53
4,69,45,60
4,81,60,0
4,77,0,10
4,86,100,50
4,89,0,2
4,81,0,3
4,86,0,13
4,74,77,42
4,86,112,0
4,69,0,10
4,86,0,59
4,69,68,51
4,77,100,0
4,74,0,2
4,60,0,53
4,81,60,5
4,69,0,8
4,77,0,9
4,81,0,44
4,72,80,5759
4,77,80,36
4,72,0,2
4,84,80,58
4,81,80,0
4,77,0,4
4,72,80,56
4,81,0,6
4,84,0,3
4,72,0,50
4,74,80,1
4,77,80,42
4,74,0,7
4,84,80,53
4,82,80,0
4,77,0,10
4,74,80,50
4,82,0,7
4,84,0,4
4,74,0,40
4,76,80,4
4,77,80,49
4,76,0,5
4,84,80,55
4,81,80,0
4,77,0,5
4,76,80,55
4,81,0,4
4,84,0,2
4,76,0,43
4,74,80,11
4,74,0,43
4,77,80,1
4,82,80,60
4,84,80,0
4,77,0,4
4,82,0,53
4,84,0,4
4,53,90,59
4,60,68,2
4,65,68,45
4,60,0,6
4,69,77,46
4,65,0,5
4,69,0,54
4,72,30,3
4,77,60,54
4,72,0,4
4,77,0,37
4,72,33,23
4,72,0,60
4,53,0,158
5,84,77,492
5,96,100,12
5,96,0,19
5,84,0,8
5,96,100,47
5,94,100,22
5,96,0,9
5,91,100,21
5,94,0,5
5,89,88,25
5,91,0,11
5,84,112,21
5,89,0,2
5,84,0,932
5,84,68,482
5,88,60,15
5,91,112,15
5,96,112,18
5,96,0,182
5,91,0,6
5,84,0,0
5,88,0,2
5,74,112,7947
5,46,100,0
5,62,88,28
5,74,0,16
5,53,100,44
5,65,88,0
5,62,0,5
5,65,0,52
5,70,100,3
5,64,77,60
5,58,100,0
5,70,0,5
5,53,0,9
5,65,88,46
5,64,0,7
5,70,100,53
5,46,0,7
5,65,0,16
5,74,100,37
5,70,0,4
5,74,0,31
5,58,0,18
5,45,68,5
5,74,112,0
5,62,100,47
5,74,0,37
5,65,88,23
5,53,88,0
5,62,0,2
5,45,0,5
5,69,68,53
5,65,0,9
5,53,0,50
5,45,68,1
5,72,112,0
5,69,0,9
5,60,100,51
5,72,0,10
5,52,36,50
5,64,68,0
5,60,0,24
5,45,0,16
5,69,68,20
5,74,112,60
5,43,88,0
5,64,0,2
5,69,0,0
5,52,0,6
5,62,77,37
5,74,0,52
5,50,88,8
5,65,88,0
5,62,0,2
5,70,100,58
5,65,0,4
5,43,0,54
5,58,100,2
5,74,100,0
5,70,0,1
5,50,0,58
5,62,88,1
5,74,0,9
5,65,88,51
5,62,0,1
5,65,0,57
5,70,100,2
5,70,0,31
5,64,77,7
5,74,88,0
5,70,100,0
5,48,100,0
5,58,0,3
5,62,88,49
5,64,0,4
5,64,68,56
5,55,88,0
5,62,0,7
5,67,77,53
5,64,0,11
5,70,0,12
5,74,0,1
5,60,100,36
5,64,77,0
5,72,112,0
5,67,0,1
5,55,0,141
5,48,0,4
5,72,0,8
5,64,0,31
5,60,0,24
5,41,112,0
5,69,68,0
5,69,0,40
5,65,88,3
5,48,100,60
5,60,100,0
5,65,0,2
5,60,0,57
5,65,88,1
5,67,88,60
5,57,68,0
5,65,0,3
5,69,51,117
5,67,0,9
5,41,0,9
5,57,0,13
5,48,0,2
5,69,0,21
5,45,45,6
5,52,77,12
5,57,100,16
5,60,77,10
5,64,60,12
5,69,77,12
5,60,0,9
5,60,15,70
5,60,0,160
5,69,0,7
5,52,0,4
5,64,0,7
5,45,0,2
5,57,0,2
5,57,68,56
5,69,68,1
5,45,60,0
5,64,60,1
5,60,100,1
5,52,68,0
5,60,0,14
5,52,0,2
5,57,0,3
5,64,0,0
5,69,0,2
5,45,0,3
5,43,88,54
5,50,88,2
5,55,45,5
5,62,60,11
5,67,60,6
5,70,112,6
5,55,0,243
5,62,0,7
5,43,0,0
5,50,0,2
5,67,0,3
5,70,0,1
5,43,100,53
5,55,88,1
5,50,100,0
5,70,68,1
5,62,68,1
5,67,77,0
5,43,0,13
5,50,0,5
5,55,0,2
5,70,0,10
5,67,0,4
5,62,0,2
5,50,88,66
5,57,77,13
5,62,60,9
5,65,77,10
5,69,77,6
5,57,0,166
5,50,0,0
5,65,0,22
5,62,0,0
5,69,0,1
5,48,100,184
5,55,77,34
5,60,100,22
5,64,88,60
5,67,77,60
5,64,0,4
5,64,77,56
5,67,0,1
5,67,88,59
5,64,0,6
5,55,0,10
5,60,0,4
5,48,0,12
5,67,0,20
5,74,112,8
5,74,0,28
5,46,100,7
5,74,112,0
5,53,112,37
5,58,100,60
5,62,88,60
5,62,0,10
5,74,0,6
5,65,88,44
5,70,100,60
5,65,0,10
5,72,88,50
5,70,0,7
5,58,0,27
5,46,0,4
5,53,0,7
5,74,100,15
5,72,0,6
5,45,68,0
5,72,100,0
5,74,0,7
5,53,112,38
5,57,68,60
5,60,100,60
5,72,0,55
5,60,0,4
5,65,88,1
5,69,40,60
5,65,0,11
5,70,100,49
5,69,0,7
5,45,0,7
5,53,0,4
5,57,0,8
5,72,100,34
5,70,0,5
5,46,100,5
5,70,100,0
5,72,0,8
5,53,100,31
5,70,0,37
5,58,100,23
5,53,0,8
5,62,88,52
5,65,88,60
5,62,0,9
5,70,88,51
5,65,0,2
5,72,100,58
5,70,0,2
5,58,0,19
5,46,0,16
5,72,0,21
5,74,100,2
5,74,0,19
5,77,100,1
5,45,68,0
5,65,77,42
5,53,88,60
5,69,60,0
5,77,0,13
5,72,100,47
5,65,0,5
5,69,0,2
5,72,0,27
5,53,0,23
5,57,60,3
5,72,112,0
5,65,60,0
5,65,0,57
5,60,100,3
5,65,88,60
5,53,88,0
5,60,0,4
5,45,0,9
5,57,0,0
5,53,0,32
5,69,51,15
5,65,0,2
5,43,100,3
5,70,100,0
5,69,0,2
5,72,0,5
5,62,77,35
5,70,0,56
5,50,88,4
5,67,77,0
5,62,0,57
5,70,88,3
5,67,0,5
5,70,0,48
5,74,100,7
5,67,88,0
5,58,101,0
5,50,0,6
5,43,0,148
5,74,0,2
5,67,0,9
5,58,0,35
5,45,51,40
5,72,100,0
5,61,45,34
5,72,0,3
5,64,77,57
5,52,77,0
5,61,0,2
5,69,68,58
5,64,0,12
5,69,0,2
5,57,100,9
5,64,51,0
5,73,68,0
5,52,0,56
5,45,0,111
5,73,0,9
5,64,0,22
5,67,88,42
5,48,100,0
5,57,0,3
5,60,100,31
5,67,0,8
5,64,68,52
5,55,100,0
5,60,0,7
5,67,88,53
5,64,0,8
5,60,100,52
5,72,100,0
5,67,0,5
5,48,0,106
5,55,0,14
5,60,0,8
5,72,0,11
6,72,77,491
6,72,0,801
6,76,77,27
6,77,88,124
6,76,0,5
6,79,100,229
6,77,0,5
6,77,68,182
6,79,0,2
6,79,100,23
6,77,0,8
6,81,88,22
6,79,0,8
6,82,88,171
6,81,0,7
6,81,100,22
6,82,0,7
6,79,100,24
6,81,0,3
6,77,77,185
6,79,0,3
6,79,100,62
6,77,0,4
6,79,0,216
6,84,88,9
6,84,0,333
6,72,100,16407
6,72,0,40
6,72,100,20
6,84,100,120
