track,note,velocity,time
0,36,110,2344
0,48,110,0
0,64,111,0
0,55,34,0
0,60,34,0
0,64,34,0
0,55,97,192
0,60,107,192
0,55,107,182
0,31,110,10
0,43,107,0
0,62,111,0
0,59,34,0
0,62,34,0
0,55,98,170
0,67,110,4
0,64,106,192
0,29,109,10
0,41,108,0
0,65,113,0
0,57,34,0
0,60,34,0
0,65,34,0
0,57,105,166
0,60,110,2
0,57,108,192
0,31,102,4
0,43,103,0
0,55,107,0
0,59,110,0
0,55,34,0
0,59,34,0
0,62,34,0
0,60,110,192
0,62,109,88
0,59,86,276
0,36,103,2
0,48,106,0
0,60,111,0
0,55,34,0
0,60,34,0
0,64,34,0
0,55,102,4
0,62,113,36
0,67,95,0
0,64,102,14
0,62,101,96
0,60,105,6
0,31,107,2
0,43,101,0
0,62,107,0
0,59,34,0
0,62,34,0
0,55,95,192
0,67,111,188
0,64,94,192
0,29,100,6
0,41,102,0
0,60,115,0
0,53,34,0
0,57,34,0
0,60,34,0
0,57,99,186
0,60,107,18
0,57,105,192
0,31,100,4
0,43,100,0
0,55,95,0
0,59,107,0
0,55,34,0
0,59,34,0
0,62,34,0
0,60,102,188
0,62,103,8
0,43,122,96
0,45,114,2
0,59,95,2
0,48,115,0
0,50,112,2
0,36,87,2
0,48,87,0
0,55,84,0
0,60,91,0
0,64,82,0
0,55,34,0
0,60,34,0
0,64,34,0
0,48,126,0
0,76,102,32
0,55,82,0
0,60,90,0
0,64,81,0
0,74,99,2
0,55,79,10
0,59,88,0
0,62,77,0
0,59,34,0
0,62,34,0
0,79,99,16
0,55,77,0
0,59,85,0
0,62,80,0
0,77,100,2
0,53,76,8
0,57,83,0
0,60,91,0
0,53,34,0
0,57,34,0
0,60,34,0
0,53,77,42
0,57,88,0
0,60,92,0
0,36,99,20
0,48,99,0
0,71,100,10
0,55,89,0
0,59,92,0
0,62,83,0
0,55,34,0
0,59,34,0
0,62,34,0
0,72,95,2
0,74,94,16
0,55,80,0
0,59,83,0
0,62,83,0
0,36,127,0
0,71,94,14
0,72,100,2
0,36,103,0
0,48,106,0
0,60,111,0
0,60,34,0
0,64,34,0
0,36,117,0
0,55,102,4
0,67,92,2
0,62,113,0
0,67,95,0
0,64,102,14
0,62,101,96
0,60,105,6
0,31,107,4
0,43,101,0
0,62,107,0
0,59,34,0
0,62,34,0
0,55,95,192
0,67,111,188
0,64,94,192
0,29,100,2
0,41,102,0
0,60,115,0
0,53,34,0
0,57,34,0
0,60,34,0
0,57,99,186
0,60,107,18
0,57,105,192
0,31,100,4
0,43,100,0
0,55,95,0
0,59,107,0
0,55,34,0
0,59,34,0
0,62,34,0
0,43,122,0
0,60,102,6
0,38,113,0
0,62,103,4
0,40,113,0
0,43,114,6
0,45,116,8
0,59,95,2
0,48,120,0
0,50,116,4
0,36,87,2
0,48,87,0
0,55,84,0
0,60,91,0
0,64,82,0
0,60,34,0
0,64,34,0
0,48,126,0
0,67,101,150
0,76,103,14
0,55,82,0
0,60,90,0
0,64,81,0
0,74,95,2
0,55,79,0
0,59,88,0
0,62,77,0
0,59,34,0
0,62,34,0
0,79,91,2
0,55,77,0
0,59,85,0
0,62,80,0
0,76,92,2
0,53,76,6
0,57,83,0
0,60,91,0
0,53,34,0
0,57,34,0
0,60,34,0
0,72,109,42
0,53,77,0
0,57,88,0
0,60,92,0
0,72,106,20
0,36,99,0
0,48,99,0
0,74,76,2
0,55,89,0
0,59,92,0
0,62,83,0
0,55,34,0
0,59,34,0
0,62,34,0
0,55,80,28
0,59,83,0
0,62,83,0
0,36,127,0
0,67,101,192
0,72,107,2
0,36,103,0
0,48,106,0
0,60,111,0
0,60,34,0
0,64,34,0
0,36,117,0
0,74,99,4
0,55,102,0
0,76,99,12
0,62,113,0
0,67,95,0
0,64,102,14
0,62,101,96
0,72,97,6
0,60,105,0
0,67,94,2
0,31,107,0
0,43,101,0
0,62,107,0
0,59,34,0
0,62,34,0
0,55,95,192
0,67,111,188
0,64,94,192
0,29,100,6
0,41,102,0
0,60,115,0
0,53,34,0
0,57,34,0
0,60,34,0
0,57,99,102
0,60,107,18
0,57,105,192
0,31,100,6
0,43,100,0
0,55,95,0
0,59,107,0
0,55,34,0
0,59,34,0
0,62,34,0
0,60,102,188
0,62,103,8
0,59,95,288
0,58,116,4
0,46,95,0
0,58,97,0
0,62,101,0
0,65,103,0
0,58,44,0
0,62,44,0
0,65,44,0
0,46,112,0
0,74,107,216
0,74,100,30
0,58,99,0
0,62,99,0
0,65,95,0
0,77,108,28
0,50,113,28
0,77,102,0
0,53,115,6
0,45,94,0
0,57,98,0
0,60,106,0
0,65,103,0
0,57,44,0
0,60,44,0
0,45,116,0
0,72,111,44
0,72,105,28
0,57,97,0
0,60,106,0
0,65,105,0
0,48,118,24
0,69,101,0
0,55,116,6
0,67,105,0
0,43,91,0
0,55,83,0
0,60,98,0
0,62,94,0
0,62,44,0
0,67,44,0
0,43,114,0
0,74,103,2
0,74,99,22
0,55,92,0
0,60,106,0
0,62,93,0
0,50,111,192
0,55,115,6
0,55,93,0
0,59,102,0
0,62,95,0
0,59,44,0
0,55,87,22
0,59,98,0
0,62,93,0
0,55,113,192
0,58,116,4
0,46,97,0
0,58,87,0
0,62,98,0
0,65,99,0
0,65,44,0
0,70,44,0
0,46,112,0
0,74,107,216
0,74,100,6
0,58,95,0
0,62,100,0
0,65,99,0
0,77,108,28
0,50,113,28
0,77,102,0
0,53,115,6
0,45,92,0
0,57,98,0
0,60,106,0
0,65,101,0
0,60,44,0
0,69,44,0
0,45,113,0
0,72,111,44
0,72,105,22
0,57,93,0
0,60,102,0
0,65,100,0
0,48,118,24
0,69,101,0
0,55,116,4
0,67,105,0
0,43,94,0
0,55,99,0
0,60,106,0
0,62,97,0
0,62,44,0
0,67,44,0
0,43,114,0
0,74,103,2
0,62,113,22
0,55,90,0
0,60,101,0
0,62,92,0
0,64,112,2
0,50,111,2
0,65,111,0
0,74,99,0
0,66,112,2
0,55,115,2
0,67,109,0
0,83,62,0
0,47,117,0
0,55,87,0
0,59,100,0
0,62,98,0
0,59,44,0
0,43,112,0
0,47,117,120
0,47,117,26
0,55,93,0
0,59,100,0
0,62,99,0
0,31,119,0
0,43,108,2
0,33,114,0
0,55,113,4
0,41,111,0
0,36,116,0
0,33,116,2
0,76,87,4
0,79,86,0
0,36,110,0
0,49,88,0
0,72,108,0
0,48,95,0
0,48,91,0
0,55,94,0
0,60,98,0
0,64,91,0
0,55,44,0
0,60,44,0
0,64,44,0
0,36,121,0
0,42,85,112
0,55,90,0
0,38,110,18
0,42,95,0
0,60,95,0
0,55,95,0
0,60,101,0
0,64,93,0
0,36,110,88
0,42,87,0
0,64,93,0
0,36,120,0
0,77,85,2
0,81,88,0
0,36,113,0
0,42,88,0
0,81,105,0
0,53,85,0
0,41,84,0
0,53,90,0
0,57,95,0
0,60,100,0
0,57,44,0
0,65,44,0
0,41,114,0
0,42,91,22
0,79,97,0
0,57,87,0
0,77,100,14
0,38,110,28
0,42,94,0
0,60,100,0
0,53,82,0
0,57,98,0
0,60,99,0
0,42,91,10
0,76,95,0
0,65,97,0
0,79,81,2
0,83,85,0
0,36,111,0
0,42,91,0
0,74,89,0
0,55,107,0
0,43,87,0
0,55,89,0
0,59,94,0
0,62,86,0
0,59,44,0
0,62,44,0
0,67,44,0
0,43,118,0
0,42,93,118
0,59,108,0
0,38,110,28
0,42,93,0
0,62,108,0
0,55,87,0
0,59,94,0
0,62,92,0
0,36,113,2
0,42,88,0
0,67,113,0
0,38,116,0
0,36,111,28
0,42,93,0
0,71,108,0
0,55,85,0
0,59,91,0
0,62,90,0
0,43,114,0
0,42,88,120
0,72,107,20
0,77,82,8
0,81,82,0
0,38,110,0
0,42,91,0
0,55,80,0
0,59,91,0
0,62,90,0
0,43,114,0
0,79,80,2
0,83,81,0
0,42,88,0
0,74,97,0
0,76,84,6
0,84,86,0
0,36,111,0
0,42,88,0
0,72,108,0
0,48,95,0
0,48,83,0
0,55,87,0
0,60,92,0
0,64,85,0
0,55,44,0
0,60,44,0
0,64,44,0
0,36,117,0
0,42,87,114
0,55,81,0
0,38,111,34
0,42,93,0
0,60,100,0
0,55,87,0
0,60,98,0
0,64,87,0
0,36,111,52
0,42,88,0
0,64,92,0
0,36,117,0
0,77,82,2
0,81,83,0
0,36,108,0
0,42,88,0
0,81,105,0
0,53,92,0
0,41,85,0
0,53,83,0
0,57,91,0
0,60,93,0
0,57,44,0
0,65,44,0
0,41,113,0
0,42,87,22
0,79,97,0
0,57,88,0
0,77,100,14
0,38,110,24
0,42,88,0
0,60,101,0
0,53,78,0
0,57,93,0
0,60,97,0
0,42,87,10
0,76,95,0
0,65,93,0
0,41,117,0
0,79,84,2
0,83,83,0
0,36,110,0
0,42,91,0
0,74,89,0
0,55,106,0
0,43,90,0
0,55,90,0
0,59,92,0
0,62,85,0
0,59,44,0
0,62,44,0
0,67,44,0
0,43,119,0
0,42,87,126
0,59,109,0
0,38,111,18
0,42,93,0
0,62,110,0
0,55,82,0
0,59,94,0
0,62,90,0
0,36,108,32
0,42,87,0
0,67,113,0
0,38,113,0
0,36,111,14
0,42,87,0
0,71,108,0
0,55,84,0
0,59,94,0
0,62,93,0
0,43,117,0
0,42,85,2
0,38,113,0
0,36,108,20
0,72,107,0
0,38,111,8
0,42,91,0
0,55,85,0
0,59,92,0
0,62,94,0
0,43,112,0
0,36,108,2
0,42,95,0
0,74,97,0
0,38,114,0
0,51,83,0
0,67,84,2
0,70,82,0
0,75,84,0
0,36,111,0
0,49,91,0
0,75,89,0
0,79,109,0
0,51,91,0
0,55,85,0
0,58,94,0
0,63,97,0
0,55,44,0
0,58,44,0
0,63,44,0
0,39,117,0
0,58,85,2
0,63,97,30
0,67,87,4
0,42,79,124
0,79,105,54
0,38,108,24
0,42,95,0
0,79,106,0
0,55,87,0
0,58,93,0
0,63,97,0
0,36,110,38
0,42,87,0
0,79,105,0
0,39,112,0
0,46,82,4
0,58,83,0
0,65,84,10
0,74,84,0
0,36,108,0
0,42,91,0
0,77,103,0
0,46,89,0
0,53,82,0
0,58,92,0
0,62,93,0
0,53,44,0
0,62,44,0
0,34,117,0
0,62,88,14
0,65,94,26
0,42,88,12
0,74,100,0
0,38,104,6
0,42,88,0
0,70,91,0
0,53,84,0
0,58,91,0
0,62,93,0
0,36,108,122
0,42,87,0
0,38,113,0
0,70,105,44
0,51,85,24
0,58,84,12
0,67,83,2
0,75,87,0
0,36,108,0
0,42,91,0
0,79,107,0
0,51,89,0
0,55,91,0
0,58,89,0
0,63,95,0
0,55,44,0
0,63,44,0
0,39,118,0
0,63,95,12
0,67,87,32
0,42,85,18
0,79,99,0
0,38,108,20
0,42,93,0
0,79,109,0
0,55,87,0
0,58,93,0
0,63,94,0
0,77,102,14
0,36,110,96
0,42,88,0
0,39,113,0
0,46,95,2
0,58,83,10
0,65,84,2
0,74,83,0
0,36,110,0
0,42,88,0
0,77,105,0
0,46,89,0
0,53,85,0
0,58,87,0
0,62,87,0
0,53,44,0
0,62,44,0
0,34,119,0
0,62,87,14
0,65,93,2
0,42,91,12
0,74,99,0
0,70,89,2
0,38,104,30
0,42,94,0
0,53,86,0
0,58,93,0
0,62,89,0
0,36,110,22
0,42,91,0
0,74,103,0
0,41,111,0
0,67,82,2
0,72,85,0
0,36,111,0
0,49,87,0
0,74,103,0
0,55,96,0
0,43,91,0
0,55,94,0
0,60,98,0
0,62,87,0
0,55,44,0
0,60,44,0
0,43,120,0
0,42,81,128
0,60,98,0
0,38,104,28
0,42,88,0
0,62,98,0
0,55,91,0
0,60,96,0
0,62,87,0
0,36,106,108
0,42,85,0
0,67,97,0
0,43,120,0
0,36,110,34
0,42,91,0
0,55,90,0
0,60,90,0
0,62,84,0
0,43,121,0
0,42,88,126
0,77,86,8
0,38,106,0
0,42,88,0
0,55,89,0
0,60,76,0
0,62,87,0
0,36,104,36
0,42,93,0
0,38,113,0
0,71,81,2
0,79,84,0
0,83,63,0
0,36,108,0
0,42,91,0
0,55,95,0
0,59,44,0
0,43,118,0
0,47,119,126
0,59,89,0
0,42,93,8
0,62,94,0
0,45,119,0
0,43,115,2
0,47,118,0
0,74,103,4
0,67,92,0
0,50,118,0
0,41,113,10
0,42,95,0
0,74,106,0
0,52,121,0
0,74,102,0
0,55,118,0
0,74,107,18
0,47,111,4
0,52,118,0
0,46,81,2
0,71,95,0
0,50,106,0
0,59,103,2
0,72,107,0
0,36,110,0
0,48,110,0
0,64,111,0
0,55,34,0
0,60,34,0
0,64,34,0
0,48,116,0
0,55,97,164
0,60,107,192
0,55,107,182
0,31,110,10
0,43,107,0
0,62,111,0
0,59,34,0
0,62,34,0
0,43,113,0
0,55,98,150
0,67,110,4
0,59,44,192
0,64,106,0
0,59,66,4
0,59,70,4
0,59,78,20
0,59,84,4
0,59,89,0
0,59,110,10
0,29,109,0
0,41,108,0
0,65,113,0
0,57,34,0
0,60,34,0
0,65,34,0
0,41,111,0
0,57,105,164
0,60,110,2
0,57,108,36
0,41,115,0
0,31,102,4
0,43,103,0
0,55,107,0
0,59,110,0
0,55,34,0
0,59,34,0
0,62,34,0
0,43,112,0
0,59,101,192
0,60,110,0
0,62,109,68
0,43,108,34
0,59,93,32
0,59,86,0
0,60,103,2
0,59,103,0
0,36,103,0
0,48,106,0
0,60,111,0
0,55,34,0
0,60,34,0
0,64,34,0
0,48,117,0
0,55,102,4
0,62,113,10
0,67,95,0
0,64,102,4
0,59,103,22
0,62,101,0
0,60,105,0
0,59,101,2
0,31,107,0
0,43,101,0
0,62,107,0
0,59,34,0
0,62,34,0
0,43,118,0
0,55,95,42
0,59,110,40
0,67,111,0
0,64,94,76
0,57,99,2
0,29,100,0
0,41,102,0
0,60,115,0
0,53,34,0
0,57,34,0
0,60,34,0
0,41,110,0
0,59,33,176
0,57,99,0
0,59,49,20
0,59,65,20
0,59,44,18
0,60,107,0
0,59,60,20
0,59,76,20
0,59,56,46
0,57,105,0
0,41,106,0
0,59,72,20
0,59,88,20
0,59,85,2
0,59,72,0
0,31,100,0
0,43,100,0
0,55,95,0
0,59,107,0
0,55,34,0
0,59,34,0
0,62,34,0
0,43,112,0
0,59,88,20
0,59,104,20
0,59,75,100
0,60,102,0
0,59,91,20
0,59,107,20
0,62,103,4
0,59,112,2
0,36,121,0
0,59,95,6
0,36,106,2
0,42,91,0
0,55,84,0
0,60,91,0
0,64,82,0
0,55,34,0
0,60,34,0
0,64,34,0
0,36,120,0
0,42,93,118
0,37,111,32
0,42,93,0
0,76,102,0
0,55,82,0
0,60,90,0
0,64,81,0
0,36,103,2
0,42,88,0
0,74,99,0
0,36,116,0
0,36,106,10
0,42,93,0
0,55,79,0
0,59,88,0
0,62,77,0
0,59,34,0
0,62,34,0
0,36,121,0
0,42,88,128
0,37,108,16
0,42,91,0
0,79,99,0
0,55,77,0
0,59,85,0
0,62,80,0
0,42,88,2
0,77,100,0
0,36,103,8
0,42,88,0
0,53,76,0
0,57,83,0
0,60,91,0
0,53,34,0
0,57,34,0
0,60,34,0
0,36,118,0
0,42,87,10
0,37,111,42
0,42,93,0
0,53,77,0
0,57,88,0
0,60,92,0
0,36,106,104
0,42,88,0
0,36,116,0
0,36,103,10
0,42,88,0
0,71,100,0
0,55,89,0
0,59,92,0
0,62,83,0
0,55,34,0
0,59,34,0
0,62,34,0
0,36,121,0
0,42,87,2
0,72,95,0
0,37,108,16
0,42,88,0
0,74,94,0
0,55,80,0
0,59,83,0
0,62,83,0
0,43,118,4
0,42,87,2
0,71,94,0
0,50,114,0
0,43,116,2
0,36,108,2
0,42,91,0
0,72,100,0
0,48,106,0
0,60,111,0
0,60,34,0
0,64,34,0
0,48,122,0
0,42,87,4
0,55,102,0
0,37,108,2
0,42,93,0
0,67,92,0
0,62,113,0
0,67,95,0
0,64,102,2
0,36,106,96
0,42,87,0
0,62,101,0
0,43,114,0
