track,note,velocity,time
1,41,106,2652
1,41,0,524
1,48,105,52
1,48,0,148
1,48,101,44
1,48,0,364
1,36,113,20
1,36,0,336
1,41,105,48
1,41,0,568
1,48,110,8
1,48,0,140
1,48,101,52
1,48,0,348
1,36,112,36
1,36,0,328
1,41,104,56
1,48,106,576
1,41,0,4
1,48,0,136
1,48,103,52
1,48,0,356
1,36,113,28
1,36,0,360
1,43,107,24
1,43,0,532
1,48,109,44
1,48,0,128
1,48,101,64
1,36,119,384
1,48,0,4
1,36,0,300
1,41,106,80
1,41,0,524
1,48,105,52
1,48,0,148
1,48,101,44
1,48,0,364
1,36,113,20
1,36,0,336
1,41,105,48
1,41,0,568
1,48,110,8
1,48,0,140
1,48,101,52
1,48,0,348
1,36,112,36
1,36,0,328
1,41,106,56
1,41,0,524
1,48,105,52
1,48,0,148
1,48,101,44
1,48,0,364
1,36,113,20
1,36,0,336
1,41,105,48
1,41,0,568
1,48,110,8
1,48,0,140
1,48,101,52
1,48,0,348
1,36,112,36
1,36,0,328
1,41,106,56
1,41,0,524
1,48,105,52
1,48,0,148
1,48,101,44
1,48,0,364
1,36,113,20
1,36,0,336
1,33,105,48
1,33,0,568
1,32,101,200
1,32,0,384
1,31,106,384
1,31,0,576
1,38,105,0
1,38,0,148
1,38,101,44
1,38,0,288
1,38,113,96
1,38,0,336
1,31,106,48
1,31,0,576
1,38,105,0
1,38,0,148
1,38,101,44
1,38,0,288
1,38,113,96
1,38,0,336
1,43,111,48
1,43,0,396
1,50,109,180
1,50,0,136
1,50,105,56
1,50,0,384
1,38,117,0
1,38,0,312
1,43,117,72
1,43,0,396
1,50,111,180
1,50,0,104
1,50,107,88
1,38,121,384
1,50,0,8
1,38,0,220
1,43,111,156
1,43,0,396
1,50,109,180
1,50,0,136
1,50,105,56
1,50,0,384
1,38,117,0
1,38,0,312
1,43,117,72
1,43,0,396
1,50,111,180
1,50,0,104
1,50,107,88
1,38,121,384
1,50,0,8
1,38,0,220
1,43,111,156
1,43,0,396
1,48,105,372
1,48,0,384
1,36,117,0
1,36,0,312
1,43,117,72
1,43,0,396
1,48,111,180
1,48,0,104
1,48,107,88
1,36,121,384
1,48,0,8
1,36,0,220
1,41,106,156
1,41,0,524
1,48,105,52
1,48,0,148
1,48,101,44
1,48,0,364
1,36,113,20
1,36,0,336
1,41,106,48
1,41,0,524
1,48,105,52
1,48,0,148
1,48,105,44
1,48,0,148
1,48,105,44
1,48,0,148
1,41,105,44
1,41,0,148
1,36,105,44
1,36,0,148
1,33,123,44
1,33,0,820
1,38,97,140
1,38,0,56
1,33,106,136
1,33,0,72
1,38,102,120
1,38,0,56
1,33,119,136
1,33,0,840
1,38,111,312
1,38,0,192
1,33,123,192
1,33,0,820
1,38,97,140
1,38,0,56
1,33,106,136
1,33,0,72
1,38,102,120
1,38,0,56
1,33,119,136
1,38,111,768
1,33,0,72
1,38,0,216
1,38,111,96
1,38,0,288
1,31,114,96
1,31,0,708
1,38,101,252
1,38,0,68
1,34,109,124
1,34,0,76
1,38,84,116
1,38,0,64
1,31,101,128
1,31,0,624
1,34,110,144
1,34,0,236
1,37,106,148
1,37,0,180
1,36,102,204
1,38,111,768
1,36,0,20
1,38,0,608
1,43,107,140
1,43,0,720
1,36,112,48
1,36,0,336
1,36,118,48
1,36,0,220
1,41,106,164
1,41,0,524
1,48,105,52
1,48,0,148
1,48,101,44
1,48,0,364
1,36,113,20
1,36,0,336
1,41,105,48
1,41,0,568
1,48,110,8
1,48,0,140
1,48,101,52
1,48,0,348
1,36,112,36
1,36,0,328
1,41,106,56
1,41,0,524
1,48,105,52
1,48,0,148
1,48,101,44
1,48,0,364
1,36,113,20
1,36,0,336
1,41,105,48
1,41,0,568
1,48,110,8
1,48,0,140
1,48,101,52
1,48,0,348
1,36,112,36
1,36,0,328
1,43,104,56
1,48,106,576
1,43,0,4
1,48,0,136
1,48,103,52
1,48,0,356
1,36,113,28
1,36,0,360
1,43,107,24
1,43,0,532
1,48,109,44
1,48,0,128
1,48,101,64
1,36,119,384
1,48,0,4
1,36,0,300
1,41,106,80
1,41,0,524
1,48,105,52
1,48,0,148
1,48,101,44
1,48,0,364
1,36,113,20
1,36,0,336
1,41,105,48
1,41,0,568
1,48,110,8
1,48,0,140
1,48,101,52
1,48,0,348
1,36,112,36
1,36,0,328
1,33,123,56
1,33,0,820
1,38,97,140
1,38,0,56
1,33,106,136
1,33,0,72
1,38,102,120
1,38,0,56
1,33,119,136
1,33,0,840
1,38,111,312
1,38,0,192
1,33,123,192
1,33,0,820
1,38,97,140
1,38,0,56
1,33,106,136
1,33,0,72
1,38,102,120
1,38,0,56
1,33,119,136
1,38,111,768
1,33,0,72
1,38,0,216
1,38,111,96
1,38,0,288
1,31,114,96
1,31,0,708
1,38,101,252
1,38,0,68
1,34,109,124
1,34,0,76
1,38,84,116
1,38,0,64
1,31,101,128
1,31,0,624
1,34,110,144
1,34,0,236
1,37,106,148
1,37,0,180
1,36,102,204
1,38,111,768
1,36,0,20
1,38,0,608
1,43,107,140
1,43,0,720
1,36,112,48
1,36,0,336
1,36,118,48
1,36,0,220
1,43,106,164
1,43,0,524
1,50,105,52
1,50,0,148
1,50,101,44
1,50,0,364
1,38,113,20
1,38,0,336
1,43,105,48
1,43,0,568
1,50,110,8
1,50,0,140
1,50,101,52
1,50,0,348
1,38,112,36
1,38,0,328
1,43,106,56
1,43,0,524
1,50,105,52
1,50,0,148
1,50,101,44
1,50,0,364
1,38,113,20
1,38,0,336
1,43,105,48
1,43,0,568
1,50,110,8
1,50,0,140
1,50,101,52
1,50,0,348
1,38,112,36
1,38,0,328
1,45,104,56
1,50,106,576
1,45,0,4
1,50,0,136
1,50,103,52
1,50,0,356
1,38,113,28
1,38,0,360
1,45,107,24
1,45,0,532
1,50,109,44
1,50,0,128
1,50,101,64
1,38,119,384
1,50,0,4
1,38,0,300
1,43,106,80
1,43,0,524
1,50,105,52
1,50,0,148
1,50,101,44
1,50,0,364
1,38,113,20
1,38,0,336
1,45,105,48
1,45,0,528
1,45,110,48
1,45,0,140
1,38,101,52
1,38,0,348
1,38,112,36
1,38,0,328
1,43,106,56
1,43,0,524
1,50,105,52
1,50,0,148
1,50,101,44
1,50,0,364
1,38,113,20
1,38,0,336
1,43,105,48
1,43,0,568
1,50,110,8
1,50,0,140
1,50,101,52
1,50,0,348
1,38,112,36
1,38,0,328
1,43,106,56
1,43,0,524
1,50,105,52
1,50,0,148
1,50,101,44
1,50,0,364
1,38,113,20
1,38,0,336
1,43,105,48
1,43,0,568
1,50,110,8
1,50,0,140
1,50,101,52
1,50,0,348
1,38,112,36
1,38,0,328
1,45,104,56
1,50,106,576
1,45,0,4
1,50,0,136
1,50,103,52
1,50,0,356
1,38,113,28
1,38,0,360
1,45,107,24
1,45,0,532
1,50,109,44
1,50,0,128
1,50,101,64
1,38,119,384
1,50,0,4
1,38,0,300
1,43,106,80
1,43,0,524
1,50,105,52
1,50,0,148
1,50,101,44
1,50,0,364
1,38,113,20
1,38,0,336
1,45,105,48
1,45,0,528
1,45,110,48
1,45,0,140
1,38,101,52
1,38,0,348
1,38,112,36
1,38,0,328
1,43,106,56
1,43,0,524
1,50,105,52
1,50,0,148
1,50,101,44
1,50,0,364
1,38,113,20
1,38,0,336
1,45,105,48
1,45,0,528
1,45,110,48
1,45,0,140
1,38,101,52
1,38,0,348
1,38,112,36
1,38,0,328
1,43,106,56
1,43,0,1148
2,77,90,2632
2,81,76,36
2,79,90,156
2,82,75,12
2,81,0,36
2,77,0,56
2,82,0,44
2,79,0,4
2,82,72,40
2,79,90,0
2,77,90,192
2,81,70,16
2,82,0,4
2,79,0,8
2,79,90,164
2,82,80,12
2,81,0,20
2,77,0,16
2,81,74,888
2,82,0,12
2,79,0,12
2,77,90,0
2,82,76,184
2,79,90,8
2,77,0,16
2,81,0,8
2,81,90,168
2,84,76,4
2,79,0,16
2,82,0,4
2,79,90,168
2,82,77,12
2,81,0,16
2,84,0,4
2,77,90,352
2,81,69,12
2,79,0,12
2,82,0,8
2,79,76,320
2,81,0,8
2,77,0,16
2,76,90,8
2,77,90,192
2,81,69,8
2,79,0,32
2,76,0,16
2,81,0,104
2,81,64,44
2,76,90,180
2,79,71,24
2,81,0,8
2,77,0,16
2,77,90,144
2,81,77,20
2,76,0,20
2,79,0,4
2,79,74,896
2,81,0,4
2,77,0,16
2,76,90,0
2,81,69,172
2,77,90,20
2,79,0,8
2,76,0,20
2,82,75,156
2,79,90,8
2,77,0,8
2,81,0,12
2,81,68,164
2,77,90,8
2,82,0,16
2,79,0,12
2,79,73,344
2,81,0,12
2,76,90,0
2,77,0,24
2,79,0,312
2,76,0,24
2,74,80,0
2,70,80,0
2,70,0,48
2,77,80,0
2,74,0,4
2,76,80,0
2,79,80,0
2,77,0,24
2,76,0,1544
2,79,0,4
2,84,115,3032
2,82,101,956
2,84,0,56
2,82,0,112
2,82,108,48
2,81,90,168
2,82,0,16
2,79,103,176
2,81,0,8
2,82,107,1148
2,79,0,36
2,84,104,140
2,82,0,36
2,84,0,60
2,84,106,120
2,82,100,932
2,84,0,56
2,82,0,36
2,82,99,104
2,81,91,208
2,82,0,4
2,81,0,172
2,84,98,0
2,87,110,772
2,84,0,28
2,86,95,168
2,87,0,36
2,86,0,76
2,86,102,76
2,84,98,192
2,86,0,16
2,84,0,124
2,82,105,76
2,81,94,944
2,82,0,36
2,81,0,64
2,81,88,96
2,79,90,192
2,81,0,12
2,79,0,84
2,79,102,108
2,79,0,708
2,82,105,36
2,81,95,208
2,82,0,24
2,81,0,72
2,81,97,108
2,79,95,188
2,81,0,16
2,79,0,120
2,82,103,72
2,81,82,184
2,82,0,44
2,81,0,40
2,81,88,124
2,79,85,192
2,81,0,32
2,79,0,32
2,79,84,112
2,77,64,196
2,79,0,28
2,76,61,168
2,77,0,12
2,77,66,164
2,76,0,24
2,77,0,100
2,77,85,64
2,76,64,948
2,77,0,36
2,74,69,172
2,76,0,24
2,76,60,156
2,74,0,36
2,76,0,56
2,84,80,44
2,84,0,1592
2,64,127,5324
2,65,127,96
2,64,0,96
2,69,127,0
2,65,0,96
2,72,127,0
2,69,0,96
2,76,127,0
2,72,0,96
2,77,127,0
2,76,0,96
2,81,127,0
2,77,0,96
2,84,127,0
2,72,117,88
2,84,0,8
2,81,0,0
2,84,127,0
2,82,127,192
2,70,107,16
2,84,0,28
2,72,0,16
2,70,0,72
2,82,0,4
2,70,111,64
2,82,127,0
2,81,127,180
2,82,0,8
2,69,111,4
2,70,0,32
2,81,0,68
2,69,0,44
2,81,127,48
2,69,110,8
2,70,112,936
2,82,127,12
2,69,0,20
2,81,0,12
2,70,0,68
2,82,0,20
2,70,111,60
2,82,127,8
2,82,0,168
2,72,105,12
2,84,127,12
2,70,0,24
2,84,0,76
2,72,0,32
2,72,110,52
2,84,127,12
2,70,110,180
2,82,127,12
2,84,0,36
2,72,0,0
2,82,0,64
2,70,0,8
2,70,107,72
2,82,127,12
2,69,103,180
2,81,125,4
2,82,0,28
2,70,0,12
2,72,109,152
2,84,127,4
2,69,0,8
2,81,0,8
2,70,110,176
2,82,127,0
2,72,0,40
2,84,0,4
2,70,0,84
2,82,0,4
2,70,110,60
2,82,127,12
2,69,105,168
2,81,127,12
2,70,0,12
2,82,0,16
2,81,0,108
2,69,0,4
2,69,109,64
2,81,127,8
2,70,111,920
2,82,127,24
2,69,0,12
2,81,0,20
2,70,0,92
2,82,0,4
2,70,110,56
2,82,127,4
2,82,0,184
2,84,127,4
2,72,105,4
2,70,0,36
2,84,0,52
2,72,0,20
2,72,103,76
2,84,127,8
2,70,110,184
2,82,127,8
2,72,0,32
2,84,0,8
2,82,0,68
2,70,0,8
2,70,109,72
2,82,127,4
2,69,106,184
2,81,127,8
2,70,0,12
2,82,0,4
2,69,0,88
2,81,0,12
2,82,121,92
2,81,100,928
2,82,0,32
2,81,0,132
2,81,94,48
2,79,103,192
2,81,0,24
2,79,0,128
2,79,113,52
2,82,121,0
2,81,100,928
2,82,0,32
2,81,0,132
2,81,94,48
2,79,0,192
2,79,103,0
2,81,0,24
2,79,0,128
2,82,107,28
2,81,81,424
2,82,0,32
2,81,0,48
2,79,91,336
2,77,89,360
2,79,0,28
2,77,0,52
2,77,93,264
2,77,0,672
2,77,89,96
2,77,0,384
2,76,66,0
2,76,0,192
2,79,91,184
2,81,74,184
2,79,0,44
2,81,0,52
2,81,83,112
2,79,74,196
2,81,0,28
2,81,79,172
2,79,0,16
2,81,0,932
2,79,87,0
2,79,0,196
2,81,71,0
2,81,0,180
2,83,85,16
2,81,86,184
2,83,0,8
2,81,0,388
2,79,89,0
2,78,84,372
2,79,0,36
2,79,81,156
2,78,0,40
2,79,0,80
2,79,86,80
2,78,70,188
2,79,0,28
2,79,85,168
2,78,0,32
2,79,0,896
2,78,79,16
2,79,76,192
2,78,0,40
2,79,0,140
2,81,79,4
2,79,80,200
2,81,0,16
2,78,81,360
2,79,0,16
2,76,96,384
2,78,0,8
2,78,78,180
2,76,0,36
2,78,0,132
2,78,88,32
2,78,0,192
2,76,81,0
2,78,90,192
2,76,0,28
2,78,0,860
2,78,85,64
2,79,80,184
2,78,0,20
2,79,0,172
2,81,90,4
2,81,0,192
2,79,87,4
2,78,89,396
2,79,0,12
2,79,99,352
2,78,0,24
2,79,0,1388
2,66,97,904
2,67,97,96
2,66,0,96
2,71,97,0
2,67,0,96
2,74,97,0
2,71,0,96
2,78,97,0
2,74,0,96
2,79,97,0
2,78,0,96
2,83,97,0
2,79,0,96
2,86,97,0
2,86,0,96
2,83,0,0
2,79,111,0
2,81,94,176
2,79,0,44
2,81,0,52
2,81,103,112
2,79,94,196
2,81,0,28
2,81,99,172
2,79,0,16
2,81,0,932
2,79,107,0
2,79,0,196
2,81,91,0
2,81,0,180
2,83,105,16
2,81,106,184
2,83,0,8
2,81,0,388
2,79,109,0
2,78,104,372
2,79,0,36
2,79,101,156
2,78,0,40
2,79,0,80
2,79,106,80
2,78,90,188
2,79,0,28
2,79,105,168
2,78,0,32
2,79,0,896
2,78,99,16
2,79,96,192
2,78,0,40
2,79,0,140
2,81,99,4
2,79,100,200
2,81,0,16
2,78,101,360
2,79,0,16
2,76,116,384
2,78,0,8
2,78,98,180
2,76,0,36
2,78,0,132
2,78,108,32
2,78,0,192
2,76,101,0
2,78,110,192
2,76,0,28
2,78,0,860
2,78,105,64
2,79,100,184
2,78,0,20
2,79,0,172
2,81,110,4
2,81,0,192
2,79,107,4
2,78,109,396
2,79,0,12
2,79,119,352
2,78,0,24
2,79,0,1388
2,78,105,324
2,79,100,184
2,78,0,20
2,79,0,172
2,81,110,4
2,81,0,192
2,79,107,4
2,78,109,396
2,79,0,12
2,79,119,352
2,78,0,24
2,79,0,1388
2,78,105,324
2,79,100,184
2,78,0,20
2,79,0,172
2,81,110,4
2,81,0,192
2,79,107,4
2,78,109,396
2,79,0,12
2,79,119,352
2,78,0,24
2,79,0,1112
3,65,121,0
3,67,95,0
3,65,0,8
3,67,0,104
3,67,102,88
3,65,62,120
3,67,0,20
3,67,102,148
3,65,0,8
3,67,0,4
3,65,85,84
3,67,108,192
3,65,0,16
3,69,90,152
3,67,0,20
3,67,95,4
3,69,0,12
3,65,85,0
3,67,0,4
3,65,0,260
3,64,117,20
3,65,81,132
3,64,0,40
3,65,0,120
3,65,81,56
3,64,74,144
3,65,0,8
3,65,90,136
3,64,0,32
3,65,0,40
3,64,113,76
3,65,90,192
3,64,0,28
3,67,67,140
3,65,0,12
3,65,108,4
3,67,0,4
3,64,85,308
3,65,0,32
3,64,0,40
3,62,113,0
3,64,102,148
3,62,0,20
3,64,0,176
3,64,113,92
3,62,74,120
3,64,0,24
3,64,102,144
3,62,0,8
3,64,0,60
3,62,81,40
3,64,102,216
3,62,0,4
3,65,81,164
3,64,0,28
3,64,102,188
3,65,0,12
3,62,90,4
3,64,0,4
3,62,0,228
