track,note,velocity,time
0,81,52,12
0,85,66,1
0,69,93,0
0,76,94,0
0,88,107,0
0,88,0,12
0,85,71,0
0,83,84,8
0,85,0,3
0,88,90,8
0,83,0,1
0,88,0,19
0,85,72,0
0,83,77,0
0,85,0,3
0,88,90,16
0,83,0,4
0,85,70,8
0,88,0,4
0,88,85,0
0,85,0,3
0,88,0,9
0,85,74,0
0,85,0,5
0,81,78,3
0,81,0,2
0,69,0,9
0,76,0,2
0,85,0,2
0,81,0,12
0,88,60,8
0,95,64,1
0,97,71,0
0,100,61,0
0,69,98,0
0,76,94,0
0,100,110,0
0,97,85,0
0,100,0,1
0,97,0,14
0,95,90,0
0,88,0,1
0,100,105,0
0,95,0,5
0,100,0,15
0,97,77,0
0,95,93,0
0,97,0,3
0,100,97,8
0,95,0,1
0,100,0,5
0,97,85,3
0,97,0,0
0,93,45,5
0,100,101,3
0,95,0,1
0,97,85,8
0,100,0,1
0,81,57,1
0,97,0,3
0,93,82,5
0,93,0,13
0,100,0,1
0,97,0,2
0,76,0,5
0,93,0,1
0,69,0,2
0,81,0,4
0,57,78,3
0,64,83,0
0,69,92,0
0,73,93,0
0,45,81,1
0,57,67,1
0,61,59,0
0,64,71,0
0,74,87,0
0,64,0,8
0,73,75,24
0,74,0,1
0,64,84,47
0,76,82,0
0,73,0,2
0,57,0,19
0,57,83,27
0,76,0,12
0,64,0,7
0,45,0,28
0,64,105,1
0,76,84,0
0,69,0,6
0,73,0,2
0,57,0,6
0,71,108,34
0,64,0,15
0,71,0,4
0,76,0,6
0,73,108,2
0,73,0,8
0,53,84,8
0,60,78,0
0,60,81,0
0,61,0,0
0,64,0,0
0,65,76,0
0,65,84,0
0,65,86,0
0,69,100,0
0,65,0,2
0,69,71,6
0,60,0,8
0,65,0,7
0,69,0,1
0,69,0,6
0,60,63,2
0,65,76,0
0,69,73,0
0,72,81,0
0,60,0,8
0,53,0,9
0,65,0,4
0,72,0,6
0,65,74,2
0,74,82,0
0,65,0,14
0,69,0,1
0,52,84,7
0,56,62,0
0,57,0,0
0,59,71,0
0,59,81,0
0,60,0,0
0,64,72,0
0,64,84,0
0,65,0,0
0,68,81,0
0,71,87,0
0,71,74,0
0,74,0,1
0,64,0,25
0,64,53,44
0,74,81,0
0,71,0,3
0,59,0,28
0,71,0,43
0,68,0,4
0,64,0,7
0,71,81,11
0,74,0,9
0,52,0,11
0,68,65,76
0,71,0,2
0,68,0,43
0,71,82,3
0,49,75,48
0,56,81,0
0,59,0,0
0,61,67,0
0,64,0,0
0,65,75,0
0,65,26,0
0,65,0,8
0,71,0,26
0,61,93,5
0,68,68,0
0,64,81,47
0,64,0,35
0,65,91,13
0,61,0,9
0,65,0,34
0,68,0,3
0,61,45,2
0,68,68,0
0,61,0,17
0,68,0,16
0,56,0,2
0,65,83,13
0,56,88,48
0,65,0,6
0,61,100,42
0,61,0,23
0,49,0,3
0,56,0,6
0,33,44,16
0,52,91,0
0,56,0,0
0,57,67,0
0,57,91,0
0,64,75,0
0,64,93,0
0,65,0,0
0,69,99,0
0,73,101,0
0,74,93,0
0,74,0,39
0,73,69,7
0,76,83,48
0,73,0,1
0,76,0,66
0,64,0,3
0,64,107,26
0,76,84,0
0,69,0,11
0,73,0,1
0,52,0,24
0,57,0,0
0,69,100,12
0,71,113,0
0,69,0,20
0,76,0,26
0,73,103,2
0,71,0,3
0,64,0,4
0,73,0,13
0,33,0,26
0,29,79,2
0,53,82,0
0,60,81,0
0,60,78,0
0,61,0,0
0,64,0,0
0,65,76,0
0,65,90,0
0,65,79,0
0,69,113,0
0,72,94,0
0,65,0,30
0,69,75,6
0,60,0,89
0,69,0,7
0,72,79,0
0,53,0,7
0,72,0,75
0,72,0,5
0,69,0,1
0,65,0,5
0,74,82,3
0,29,0,12
0,74,0,0
0,28,60,2
0,52,81,0
0,56,67,0
0,57,0,0
0,59,75,0
0,59,74,0
0,60,0,0
0,64,77,0
0,64,77,0
0,65,0,0
0,68,75,0
0,71,79,0
0,71,82,0
0,74,79,72
0,71,0,2
0,59,0,86
0,52,0,6
0,71,71,2
0,74,0,3
0,68,0,56
0,71,0,4
0,64,0,21
0,68,61,12
0,71,0,6
0,68,0,34
0,71,85,8
0,28,0,46
0,25,70,2
0,49,81,0
0,56,87,0
0,59,0,0
0,61,65,0
0,64,0,0
0,65,79,0
0,61,83,43
0,68,67,0
0,71,0,0
0,64,81,38
0,64,0,28
0,65,91,20
0,61,0,17
0,65,0,27
0,68,0,2
0,61,57,2
0,68,75,0
0,61,0,13
0,68,0,19
0,56,0,14
0,65,95,2
0,65,0,47
0,56,97,1
0,61,91,48
0,49,0,29
0,61,0,2
0,56,0,3
0,25,0,12
0,45,64,2
0,45,38,0
0,52,83,0
0,52,28,0
0,56,0,0
0,57,72,0
0,57,83,0
0,57,32,0
0,64,69,0
0,64,87,0
0,65,0,0
0,69,93,0
0,73,88,0
0,76,86,8
0,76,0,24
0,76,84,24
0,52,0,27
0,57,0,0
0,73,0,1
0,64,0,2
0,76,0,0
0,69,0,1
0,76,85,17
0,76,0,70
0,76,92,26
0,45,0,15
0,45,0,0
0,52,0,0
0,57,0,0
0,41,66,2
0,41,38,0
0,53,87,0
0,53,30,0
0,60,80,0
0,60,81,0
0,60,31,0
0,61,0,0
0,64,0,0
0,65,74,0
0,65,87,0
0,69,83,0
0,76,0,18
0,53,0,16
0,72,88,3
0,60,0,2
0,65,0,4
0,69,0,4
0,72,0,17
0,72,76,21
0,72,0,43
0,76,82,5
0,76,0,42
0,72,74,6
0,72,0,46
0,74,86,2
0,41,0,19
0,41,0,0
0,53,0,0
0,60,0,0
0,74,0,0
0,40,63,2
0,40,38,0
0,52,91,0
0,52,31,0
0,56,65,0
0,57,0,0
0,59,85,0
0,59,85,0
0,59,36,0
0,60,0,0
0,64,79,0
0,64,93,0
0,65,0,0
0,68,88,0
0,52,0,34
0,59,0,6
0,68,0,5
0,64,0,1
0,71,66,22
0,71,0,41
0,74,92,7
0,74,0,87
0,71,84,9
0,71,0,94
0,40,0,11
0,40,0,0
0,52,0,0
0,59,0,0
0,37,62,2
0,37,38,0
0,49,66,0
0,56,70,0
0,56,22,0
0,59,0,0
0,61,68,0
0,61,88,0
0,61,26,0
0,64,0,0
0,65,77,0
0,65,89,0
0,49,0,27
0,61,0,5
0,56,0,2
0,65,0,1
0,68,71,26
0,68,0,45
0,71,83,3
0,71,0,95
0,68,75,1
0,68,0,114
0,37,0,9
0,37,0,0
0,61,0,0
0,44,61,2
0,44,68,0
0,44,38,0
0,51,69,0
0,51,28,0
0,56,72,0
0,60,60,0
0,60,97,0
0,61,0,0
0,63,65,0
0,63,82,0
0,65,0,0
0,68,69,0
0,68,0,27
0,68,69,16
0,63,0,1
0,44,0,3
0,51,0,0
0,60,0,6
0,56,0,4
0,68,0,13
0,68,67,21
0,68,0,142
0,60,93,50
0,60,0,46
0,63,0,1
0,56,0,1
0,58,114,0
0,60,0,1
0,78,68,1
0,82,76,0
0,44,0,5
0,44,0,0
0,51,0,0
0,56,0,0
0,58,0,1
0,51,91,1
0,51,101,0
0,73,58,0
0,73,0,46
0,54,79,2
0,70,69,0
0,51,0,6
0,70,0,40
0,58,101,2
0,61,70,0
0,66,52,0
0,75,91,0
0,54,0,1
0,66,0,45
0,54,95,2
0,58,0,0
0,70,65,0
0,61,0,4
0,54,0,27
0,75,0,3
0,70,0,7
0,54,94,2
0,73,64,0
0,73,80,0
0,73,0,37
0,58,83,2
0,70,62,0
0,54,0,22
0,73,0,0
0,58,0,23
0,70,0,1
0,61,74,2
0,66,87,0
0,66,55,0
0,73,83,0
0,61,0,22
0,73,0,14
0,66,0,10
0,61,81,2
0,70,61,0
0,72,84,0
0,66,0,7
0,72,0,17
0,61,0,10
0,77,82,7
0,78,0,4
0,70,0,1
0,53,92,2
0,72,58,0
0,72,92,0
0,72,0,46
0,58,85,2
0,70,69,0
0,72,0,43
0,70,0,3
0,60,92,2
0,65,84,0
0,65,52,0
0,70,78,0
0,58,0,2
0,65,0,44
0,58,77,2
0,70,65,0
0,53,0,7
0,65,0,36
0,70,0,3
0,70,0,0
0,53,81,2
0,72,64,0
0,58,0,2
0,60,0,1
0,72,0,43
0,58,72,2
0,70,62,0
0,84,77,1
0,82,103,20
0,84,0,3
0,51,0,13
0,82,0,4
0,70,0,5
0,77,92,0
0,60,91,2
0,65,84,0
0,65,55,0
0,58,0,4
0,65,0,42
0,58,88,2
0,70,61,0
0,65,0,2
0,60,0,9
0,53,0,2
0,78,69,7
0,58,0,5
0,70,0,0
0,51,91,2
0,51,103,0
0,73,58,0
0,77,0,4
0,73,0,23
0,54,66,2
0,70,69,0
0,51,0,31
0,70,0,15
0,58,87,2
0,63,71,0
0,66,52,0
0,75,83,0
0,54,0,5
0,75,0,30
0,66,0,11
0,54,95,2
0,63,0,0
0,70,65,0
0,73,78,0
0,58,0,3
0,70,0,1
0,73,0,0
0,73,64,2
0,75,76,0
0,77,0,16
0,54,0,8
0,73,0,3
0,58,91,2
0,70,62,0
0,75,0,37
0,70,0,9
0,58,0,1
0,61,76,1
0,66,85,0
0,66,55,0
0,73,84,0
0,73,0,39
0,66,0,7
0,66,0,1
0,58,75,1
0,70,61,0
0,72,70,0
0,61,0,3
0,72,0,18
0,77,82,5
0,78,0,0
0,58,0,5
0,70,0,0
0,53,84,2
0,72,58,0
0,72,88,0
0,72,0,34
0,58,91,2
0,70,69,0
0,70,0,46
0,60,94,2
0,65,78,0
0,65,52,0
0,70,86,0
0,72,0,1
0,58,0,2
0,53,0,10
0,65,0,33
0,70,0,0
0,58,82,2
0,70,65,0
0,72,82,0
0,65,0,12
0,58,0,30
0,60,0,4
0,70,0,0
0,53,78,2
0,72,64,0
0,72,0,45
0,72,0,1
0,58,90,2
0,70,62,0
0,70,79,0
0,84,80,3
0,82,91,19
0,84,0,6
0,70,0,13
0,77,91,2
0,82,0,0
0,70,0,3
0,58,0,2
0,60,91,0
0,65,84,0
0,65,55,0
0,72,77,0
0,51,0,1
0,65,0,45
0,65,0,0
0,58,85,2
0,70,61,0
0,53,0,3
0,60,0,6
0,72,0,21
0,78,74,9
0,77,0,1
0,58,0,1
0,70,0,3
0,51,99,2
0,51,99,0
0,73,58,0
0,73,0,3
0,54,84,2
0,70,69,0
0,51,0,14
0,54,0,31
0,70,0,1
0,58,61,2
0,63,91,0
0,66,52,0
0,75,89,0
0,75,0,35
0,58,0,11
0,66,0,0
0,54,108,2
0,70,65,0
0,73,84,0
0,63,0,1
0,73,0,12
0,70,0,1
0,73,64,2
0,75,73,0
0,77,0,6
0,73,0,5
0,58,105,2
0,70,62,0
0,54,0,10
0,58,0,17
0,70,0,0
0,75,0,0
0,61,87,2
0,66,101,0
0,66,55,0
0,73,74,0
0,66,0,3
0,58,75,0
0,66,0,0
0,70,61,0
0,61,0,5
0,51,0,3
0,77,92,4
0,78,0,1
0,70,0,4
0,73,0,0
0,46,127,2
0,53,127,0
0,53,97,0
0,72,58,0
0,72,69,0
0,55,23,0
0,46,0,4
0,55,0,0
0,58,0,1
0,55,25,3
0,72,0,3
0,55,0,1
0,55,27,1
0,55,0,4
0,72,0,5
0,58,95,2
0,70,69,0
0,72,82,0
0,55,28,0
0,55,0,4
0,55,30,6
0,55,0,4
0,72,0,1
0,55,32,3
0,55,0,1
0,70,0,6
0,53,0,2
0,58,0,0
0,60,97,0
0,65,85,0
0,65,52,0
0,72,85,0
0,55,34,3
0,55,0,2
0,55,36,10
0,55,0,4
0,55,37,1
0,55,0,4
0,65,0,9
0,58,82,2
0,70,65,0
0,55,40,3
0,65,0,1
0,55,0,1
0,60,0,4
0,55,41,7
0,55,0,4
0,72,0,2
0,55,43,4
0,55,0,1
0,70,0,6
0,53,83,0
0,55,45,0
0,72,64,0
0,72,79,0
0,55,0,4
0,58,0,0
0,55,47,2
0,55,0,4
0,72,0,1
0,55,48,1
0,55,0,4
0,72,0,6
0,58,83,0
0,70,62,0
0,72,80,0
0,55,50,0
0,55,0,4
0,55,52,13
0,55,0,4
0,55,54,4
0,72,0,0
0,55,0,4
0,70,0,6
0,55,56,0
0,60,90,0
0,65,85,0
0,65,55,0
0,72,89,0
0,58,0,2
0,55,0,2
0,55,58,1
0,55,0,4
0,41,118,2
0,55,59,1
0,55,0,1
0,65,0,5
0,58,91,0
0,70,61,0
0,55,61,3
0,53,0,1
0,55,0,3
0,65,0,2
0,77,127,2
0,55,63,1
0,55,0,4
0,72,0,2
0,55,65,1
0,55,0,1
0,81,91,0
0,70,0,5
0,53,103,0
0,55,66,0
0,72,70,0
0,72,92,0
0,55,0,4
0,58,0,1
0,82,0,0
0,60,0,0
0,55,69,1
0,55,0,4
0,72,0,3
0,55,70,1
0,55,0,1
0,72,0,5
0,55,72,0
0,57,99,0
0,69,69,0
0,72,88,0
0,55,0,4
0,55,74,1
0,55,0,4
0,72,0,5
0,55,76,1
0,55,0,1
0,69,0,9
0,60,97,0
0,65,97,0
0,65,64,0
0,72,98,0
0,57,0,1
0,55,78,2
0,55,0,2
0,53,0,3
0,55,79,2
0,55,0,4
0,55,81,1
0,55,0,1
0,65,0,6
0,57,118,0
0,69,69,0
0,55,83,3
0,55,0,2
0,65,0,2
0,60,0,1
0,55,85,3
0,55,0,4
0,72,0,3
0,55,87,1
0,55,0,1
0,69,0,9
0,53,104,0
0,57,0,0
0,72,73,0
0,72,100,0
0,55,88,0
0,55,0,4
0,55,90,2
0,55,0,4
0,55,92,1
0,55,0,1
0,72,0,6
0,55,94,0
0,57,96,0
0,69,72,0
0,70,88,0
0,72,0,1
0,55,0,3
0,53,0,3
0,55,96,2
0,55,0,4
0,55,98,9
0,55,0,1
0,70,0,2
0,69,0,5
0,60,104,0
0,65,91,0
0,65,71,0
0,72,104,0
0,55,99,0
0,57,0,3
0,55,0,1
0,55,101,1
0,55,0,4
0,55,103,1
0,77,0,3
0,55,0,1
0,41,0,5
0,65,0,0
0,57,123,0
0,72,75,0
0,65,0,1
0,55,105,2
0,60,0,2
0,55,0,2
0,72,0,0
0,55,107,1
0,55,0,4
0,55,109,1
0,77,0,0
0,55,0,0
0,81,0,2
0,58,100,2
0,53,0,3
0,72,0,0
0,35,127,0
0,42,102,0
0,54,111,0
0,55,110,0
0,58,82,0
0,58,103,0
0,61,114,0
0,66,93,0
0,70,93,0
0,73,52,0
0,73,109,0
0,78,52,0
0,82,52,0
0,57,0,1
0,35,0,3
0,55,0,0
0,66,119,8
0,78,0,19
0,82,0,2
0,73,0,1
0,58,0,48
0,58,0,0
0,66,0,0
0,66,0,0
0,70,0,0
0,73,0,0
0,42,64,2
0,58,87,0
0,58,91,0
0,70,93,0
0,73,40,0
0,78,57,0
0,82,45,0
0,42,0,4
0,54,0,43
0,41,60,1
0,42,66,0
0,54,88,0
0,82,108,0
0,42,0,1
0,78,0,1
0,82,0,0
0,73,0,1
0,42,0,1
0,54,0,42
0,58,0,0
0,58,0,0
0,61,0,0
0,70,0,0
0,38,82,2
0,39,94,0
0,41,0,0
0,51,111,0
0,54,93,0
0,55,42,0
0,58,91,0
0,63,120,0
0,66,101,0
0,75,55,0
0,78,120,0
0,78,55,0
0,82,55,0
0,38,0,4
0,55,0,0
0,54,0,42
0,82,0,0
0,54,93,2
0,73,120,0
0,78,0,2
0,82,0,0
0,75,0,1
0,54,0,43
0,58,0,0
0,63,0,0
0,66,0,0
0,78,0,0
0,42,82,2
0,54,87,0
0,58,90,0
0,63,93,0
0,66,31,0
0,75,36,0
0,77,89,0
0,78,54,0
0,82,99,0
0,82,41,0
0,42,0,4
0,78,0,22
0,82,0,0
0,39,0,2
0,77,0,0
0,63,0,6
0,75,0,1
0,54,0,11
0,73,0,0
0,51,0,1
0,35,90,1
0,39,97,0
0,51,75,0
0,54,87,0
0,63,93,0
0,75,95,0
0,35,0,4
0,63,0,30
0,58,0,7
0,60,88,2
0,39,0,3
0,51,0,0
