track,note,velocity,time
1,79,1,14396
1,55,100,0
1,63,100,4
1,55,100,4
1,55,100,2692
1,63,100,4
1,55,100,4
1,63,100,196
1,63,100,4
1,63,100,4
1,66,100,4
1,63,100,4
1,63,100,4
1,58,100,4
1,73,100,196
1,70,100,4
1,66,100,4
1,63,100,4
1,68,100,4
1,65,100,4
1,61,100,4
1,63,100,4
1,58,100,964
1,63,100,4
1,63,100,4
1,70,100,4
1,58,100,4
1,63,100,4
1,70,100,4
1,73,100,388
1,70,100,4
1,66,100,4
1,63,100,4
1,68,100,4
1,61,100,4
1,63,100,4
1,58,100,4
1,63,100,964
1,63,100,4
1,63,100,4
1,63,100,4
1,63,100,4
1,63,100,4
1,58,100,4
1,73,100,388
1,70,100,4
1,66,100,4
1,63,100,4
1,68,100,4
1,65,100,4
1,61,100,4
1,63,100,4
1,63,100,4
1,67,100,4
1,63,100,580
1,70,100,4
1,58,100,0
1,63,100,4
1,70,100,4
1,58,100,0
1,73,100,388
1,70,100,4
1,66,100,4
1,63,100,4
1,68,100,4
1,65,100,4
1,61,100,4
1,63,100,4
1,73,100,964
1,70,100,4
1,66,100,4
1,63,100,4
1,68,100,4
1,65,100,4
1,61,100,4
1,63,100,4
1,63,100,4
1,70,100,4
1,73,100,388
1,70,100,4
1,66,100,4
1,63,100,4
1,68,100,4
1,65,100,4
1,61,100,4
1,63,100,4
1,63,100,4
1,66,100,4
1,63,100,1540
1,63,100,4
1,58,100,4
1,70,100,4
1,58,100,4
1,75,100,4
1,73,100,4
1,71,100,388
1,63,75,0
1,70,100,4
1,66,75,0
1,73,100,4
1,66,75,0
1,71,100,4
1,63,75,0
1,70,100,4
1,67,75,0
1,75,100,4
1,67,75,0
1,73,100,4
1,63,75,0
1,70,100,4
1,66,75,0
1,66,100,4
1,63,75,0
1,68,100,4
1,63,75,0
1,66,100,4
1,58,75,0
1,63,100,4
1,75,100,580
1,73,100,4
1,71,100,388
1,63,75,0
1,70,100,4
1,66,75,0
1,73,100,4
1,66,75,0
1,71,100,4
1,63,75,0
1,70,100,4
1,67,75,0
1,75,100,4
1,67,75,0
1,73,100,4
1,63,75,0
1,70,100,4
1,66,75,0
1,66,100,4
1,63,75,0
1,68,100,4
1,63,75,0
1,66,100,4
1,58,75,0
1,68,100,4
1,66,100,4
1,63,100,4
1,55,100,5188
1,63,100,4
1,55,100,4
1,63,100,196
1,63,100,4
1,63,100,4
1,63,100,4
1,66,100,4
1,63,100,4
1,63,100,4
1,58,100,4
1,73,100,388
1,70,100,4
1,66,100,4
1,63,100,4
1,68,100,4
1,65,100,4
1,61,100,4
1,63,100,4
1,63,100,1156
1,70,100,4
1,58,100,0
1,63,100,4
1,70,100,4
1,58,100,0
1,73,100,388
1,70,100,4
1,66,100,4
1,63,100,4
1,68,100,4
1,65,100,4
1,61,100,4
1,63,100,4
1,58,100,576
1,63,100,964
1,63,100,4
1,63,100,4
1,66,100,4
1,63,100,4
1,63,100,4
1,58,100,4
1,73,100,196
1,70,100,4
1,66,100,4
1,63,100,4
1,68,100,4
1,65,100,4
1,61,100,4
1,63,100,4
1,63,100,4
1,67,100,4
1,63,100,388
1,58,100,0
1,63,100,4
1,70,100,4
1,58,100,0
1,63,100,4
1,70,100,4
1,58,100,0
1,73,100,388
1,70,100,4
1,66,100,4
1,63,100,4
1,68,100,4
1,65,100,4
1,61,100,4
1,63,100,4
1,67,100,4
1,73,100,964
1,70,100,4
1,66,100,4
1,63,100,4
1,68,100,4
1,65,100,4
1,61,100,4
1,63,100,4
1,63,100,4
1,70,100,4
1,73,100,388
1,70,100,4
1,66,100,4
1,63,100,4
1,68,100,4
1,65,100,4
1,61,100,4
1,63,100,4
1,63,100,4
1,70,100,4
1,73,100,388
1,70,100,4
1,66,100,4
1,63,100,4
1,68,100,4
1,65,100,4
1,61,100,4
1,63,100,4
1,63,100,4
1,66,100,4
1,58,100,1540
1,63,100,4
1,66,100,4
1,68,100,4
1,70,100,4
1,75,100,4
1,73,100,4
1,71,100,388
1,63,75,0
1,70,100,4
1,66,75,0
1,73,100,4
1,66,75,0
1,71,100,4
1,63,75,0
1,70,100,4
1,67,75,0
1,75,100,4
1,67,75,0
1,73,100,4
1,63,75,0
1,70,100,4
1,66,75,0
1,66,100,4
1,63,75,0
1,68,100,4
1,63,75,0
1,66,100,4
1,58,75,0
1,63,100,4
1,75,100,580
1,73,100,4
1,71,100,388
1,63,75,0
1,70,100,4
1,66,75,0
1,73,100,4
1,66,75,0
1,71,100,4
1,63,75,0
1,70,100,4
1,67,75,0
1,75,100,4
1,67,75,0
1,73,100,4
1,63,75,0
1,70,100,4
1,66,75,0
1,66,100,4
1,63,75,0
1,68,100,4
1,63,75,0
1,66,100,4
1,58,75,0
1,63,100,4
1,75,100,4
1,73,100,4
1,71,100,388
1,63,75,0
1,70,100,4
1,66,75,0
1,73,100,4
1,66,75,0
1,71,100,4
1,63,75,0
1,70,100,4
1,67,75,0
1,75,100,4
1,67,75,0
1,73,100,4
1,63,75,0
1,70,100,4
1,66,75,0
1,66,100,4
1,63,75,0
1,68,100,4
1,63,75,0
1,68,100,376
1,58,75,4
1,66,100,12
1,63,100,4
1,71,100,2116
1,63,75,0
1,70,100,4
1,66,75,0
1,73,100,4
1,66,75,0
1,71,100,4
1,63,75,0
1,70,100,4
1,67,75,0
1,75,100,4
1,67,75,0
1,73,100,4
1,63,75,0
1,70,100,4
1,66,75,0
1,66,100,4
1,63,75,0
1,68,100,4
1,63,75,0
1,68,100,376
1,58,75,4
1,66,100,12
1,63,100,4
1,71,100,2116
1,63,75,0
1,70,100,4
1,66,75,0
1,73,100,4
1,66,75,0
1,71,100,4
1,63,75,0
1,70,100,4
1,67,75,0
1,75,100,4
1,67,75,0
1,73,100,4
1,63,75,0
1,70,100,4
1,66,75,0
1,66,100,4
1,63,75,0
1,68,100,4
1,63,75,0
1,68,100,376
1,58,75,4
1,66,100,12
1,63,100,4
1,71,100,2116
1,63,75,0
1,70,100,4
1,66,75,0
1,73,100,4
1,66,75,0
1,71,100,4
1,63,75,0
1,70,100,4
1,67,75,0
1,75,100,4
1,67,75,0
1,73,100,4
1,63,75,0
1,70,100,4
1,66,75,0
1,75,100,4
1,68,75,0
1,73,100,4
1,68,75,0
1,63,75,196
1,70,100,0
1,63,100,2116
1,66,100,4
1,63,100,4
1,58,100,4
1,58,100,4
1,55,100,7492
1,63,100,4
1,55,100,4
1,55,100,2692
1,63,100,4
1,55,100,4
1,55,100,2692
1,63,100,4
1,55,100,4
2,91,60,34560
2,84,60,0
2,85,60,4
2,91,45,192
2,84,45,0
2,85,45,4
2,91,30,192
2,84,30,0
2,85,30,4
2,91,15,192
2,84,15,0
2,85,15,4
2,73,50,19012
2,78,50,0
2,82,50,0
2,85,50,0
2,73,50,196
2,78,50,0
2,82,50,0
2,85,50,0
2,73,50,196
2,78,50,0
2,82,50,0
2,85,50,0
2,73,50,196
2,78,50,0
2,82,50,0
2,85,50,0
2,73,50,4
2,78,50,0
2,82,50,0
2,85,50,0
2,73,50,196
2,78,50,0
2,82,50,0
2,85,50,0
2,73,50,196
2,78,50,0
2,82,50,0
2,85,50,0
2,73,50,4
2,78,50,0
2,82,50,0
2,85,50,0
2,73,50,196
2,78,50,0
2,82,50,0
2,85,50,0
2,73,50,196
2,78,50,0
2,82,50,0
2,85,50,0
2,75,50,196
2,70,50,0
2,77,50,580
2,73,50,0
2,75,50,5188
2,70,50,0
2,77,50,580
2,73,50,0
2,73,50,51268
2,78,50,0
2,85,50,0
2,73,50,196
2,78,50,0
2,82,50,0
2,73,50,196
2,78,50,0
2,85,50,0
2,73,50,196
2,78,50,0
2,82,50,0
2,73,50,196
2,78,50,0
2,85,50,0
2,73,50,196
2,78,50,0
2,82,50,0
2,73,50,196
2,78,50,0
2,85,50,0
2,73,50,196
2,78,50,0
2,82,50,0
2,75,50,196
2,70,50,0
2,77,50,580
2,73,50,0
2,75,50,5188
2,70,50,0
2,77,50,580
2,73,50,0
2,75,50,5188
2,70,50,0
2,77,50,580
2,73,50,0
2,75,50,25924
2,70,50,0
2,77,50,580
2,73,50,0
2,75,50,5188
2,70,50,0
2,77,50,580
2,73,50,0
3,67,100,5760
3,68,100,4
3,70,100,4
3,73,100,4
3,75,100,4
3,73,100,4
3,70,100,4
3,67,100,4
3,68,100,4
3,70,100,4
3,73,100,4
3,75,100,4
3,73,100,4
3,70,100,4
3,67,100,4
3,68,100,4
3,70,100,4
3,73,100,4
3,75,100,4
3,73,100,4
3,70,100,4
3,67,100,4
3,68,100,4
3,70,100,4
3,73,100,4
3,67,100,54148
3,68,100,4
3,70,100,4
3,73,100,4
3,75,100,4
3,73,100,4
3,70,100,4
3,67,100,4
3,68,100,4
3,70,100,4
3,73,100,4
3,67,100,100228
3,68,100,4
3,70,100,4
3,73,100,4
3,75,100,4
3,73,100,4
3,70,100,4
3,67,100,4
3,68,100,4
3,70,100,4
3,73,100,4
3,75,100,4
3,73,100,4
3,70,100,4
3,67,100,4
3,68,100,4
3,70,100,4
3,73,100,4
3,75,100,4
3,73,100,4
3,70,100,4
3,68,100,4
3,67,100,4
3,64,100,4
3,63,100,4
4,75,80,11520
4,71,80,0
4,75,80,28
4,71,80,0
4,75,80,28
4,71,80,0
4,75,80,28
4,71,80,0
4,75,80,28
4,71,80,0
4,75,80,28
4,71,80,0
4,73,80,604
4,70,80,0
4,73,80,28
4,70,80,0
4,73,80,28
4,70,80,0
4,73,80,28
4,70,80,0
4,73,80,28
4,70,80,0
4,73,80,28
4,70,80,0
4,70,80,604
4,67,80,0
4,70,79,28
4,67,79,0
4,70,77,28
4,67,77,0
4,70,75,28
4,67,75,0
4,70,74,28
4,67,74,0
4,70,72,28
4,67,72,0
4,70,70,28
4,67,70,0
4,70,69,28
4,67,69,0
4,70,67,28
4,67,67,0
4,70,65,28
4,67,65,0
4,70,64,28
4,67,64,0
4,70,62,28
4,67,62,0
4,70,60,28
4,67,60,0
4,70,59,28
4,67,59,0
4,70,57,28
4,67,57,0
4,70,55,28
4,67,55,0
4,70,54,28
4,67,54,0
4,70,52,28
4,67,52,0
4,70,50,28
4,67,50,0
4,70,48,28
4,67,48,0
4,70,47,28
4,67,47,0
4,70,45,28
4,67,45,0
4,70,43,28
4,67,43,0
4,70,42,28
4,67,42,0
4,75,80,28
4,71,80,0
4,75,80,28
4,71,80,0
4,75,80,28
4,71,80,0
4,75,80,28
4,71,80,0
4,75,80,28
4,71,80,0
4,75,80,28
4,71,80,0
4,73,80,604
4,70,80,0
4,73,80,28
4,70,80,0
4,73,80,28
4,70,80,0
4,73,80,28
4,70,80,0
4,73,80,28
4,70,80,0
4,73,80,28
4,70,80,0
4,70,80,604
4,67,80,0
4,70,79,28
4,67,79,0
4,70,77,28
4,67,77,0
4,70,75,28
4,67,75,0
4,70,74,28
4,67,74,0
4,70,72,28
4,67,72,0
4,70,70,28
4,67,70,0
4,70,69,28
4,67,69,0
4,70,67,28
4,67,67,0
4,70,65,28
4,67,65,0
4,70,64,28
4,67,64,0
4,70,62,28
4,67,62,0
4,70,60,28
4,67,60,0
4,70,59,28
4,67,59,0
4,70,57,28
4,67,57,0
4,70,55,28
4,67,55,0
4,70,54,28
4,67,54,0
4,70,52,28
4,67,52,0
4,70,50,28
4,67,50,0
4,70,48,28
4,67,48,0
4,70,47,28
4,67,47,0
4,70,45,28
4,67,45,0
4,70,43,28
4,67,43,0
4,70,42,28
4,67,42,0
4,63,80,28
4,63,80,28
4,63,79,28
4,63,79,28
4,63,78,28
4,63,78,28
4,63,77,28
4,63,77,28
4,63,76,28
4,63,76,28
4,63,75,28
4,63,75,28
4,63,74,28
4,63,74,28
4,63,73,28
4,63,73,28
4,63,72,28
4,63,72,28
4,63,71,28
4,63,71,28
4,63,70,28
4,63,70,28
4,63,69,28
4,63,69,28
4,63,68,28
4,63,68,28
4,63,67,28
4,63,67,28
4,63,66,28
4,63,66,28
4,63,65,28
4,63,65,28
4,63,64,28
4,63,64,28
4,63,63,28
4,63,63,28
4,63,62,28
4,63,62,28
4,63,61,28
4,63,61,28
4,63,60,28
4,63,60,28
4,63,59,28
4,63,59,28
4,63,58,28
4,63,58,28
4,63,57,28
4,63,57,28
4,63,56,28
4,63,56,28
4,63,55,28
4,63,55,28
4,63,54,28
4,63,54,28
4,63,53,28
4,63,53,28
4,63,52,28
4,63,52,28
4,63,51,28
4,63,51,28
4,63,50,28
4,63,50,28
4,63,49,28
4,63,49,28
4,63,48,28
4,63,48,28
4,63,47,28
4,63,47,28
4,63,46,28
4,63,46,28
4,63,45,28
4,63,45,28
4,63,44,28
4,63,44,28
4,63,43,28
4,63,43,28
4,63,42,28
4,63,42,28
4,63,41,28
4,63,41,28
4,63,40,28
4,63,40,28
4,63,39,28
4,63,39,28
4,63,38,28
4,63,38,28
4,63,37,28
4,63,37,28
4,63,36,28
4,63,36,28
4,63,35,28
4,63,35,28
4,63,34,28
4,63,34,28
4,63,33,28
4,63,33,28
4,63,32,28
4,63,32,28
4,63,31,28
4,63,31,28
4,63,30,28
4,63,30,28
4,63,29,28
4,63,29,28
4,63,28,28
4,63,28,28
4,63,27,28
4,63,27,28
4,63,26,28
4,63,26,28
4,63,25,28
4,63,25,28
4,63,24,28
4,63,24,28
4,63,23,28
4,63,23,28
4,63,22,28
4,63,22,28
4,63,21,28
4,63,21,28
4,75,80,149788
4,71,80,0
4,75,80,28
4,71,80,0
4,75,80,28
4,71,80,0
4,75,80,28
4,71,80,0
4,75,80,28
4,71,80,0
4,75,80,28
4,71,80,0
4,73,80,604
4,70,80,0
4,73,80,28
4,70,80,0
4,73,80,28
4,70,80,0
4,73,80,28
4,70,80,0
4,73,80,28
4,70,80,0
4,73,80,28
4,70,80,0
4,70,80,604
4,67,80,0
4,70,79,28
4,67,79,0
4,70,77,28
4,67,77,0
4,70,75,28
4,67,75,0
4,70,74,28
4,67,74,0
4,70,72,28
4,67,72,0
4,70,70,28
4,67,70,0
4,70,69,28
4,67,69,0
4,70,67,28
4,67,67,0
4,70,65,28
4,67,65,0
4,70,64,28
4,67,64,0
4,70,62,28
4,67,62,0
4,70,60,28
4,67,60,0
4,70,59,28
4,67,59,0
4,70,57,28
4,67,57,0
4,70,55,28
4,67,55,0
4,70,54,28
4,67,54,0
4,70,52,28
4,67,52,0
4,70,50,28
4,67,50,0
4,70,48,28
4,67,48,0
4,70,47,28
4,67,47,0
4,70,45,28
4,67,45,0
4,70,43,28
4,67,43,0
4,70,42,28
4,67,42,0
4,75,80,28
4,71,80,0
4,75,80,28
4,71,80,0
4,75,80,28
4,71,80,0
4,75,80,28
4,71,80,0
4,75,80,28
4,71,80,0
4,75,80,28
4,71,80,0
4,73,80,604
4,70,80,0
4,73,80,28
4,70,80,0
4,73,80,28
4,70,80,0
4,73,80,28
4,70,80,0
4,73,80,28
4,70,80,0
4,73,80,28
4,70,80,0
4,70,80,604
4,67,80,0
4,70,79,28
4,67,79,0
4,70,77,28
4,67,77,0
4,70,75,28
4,67,75,0
4,70,74,28
4,67,74,0
4,70,72,28
4,67,72,0
4,70,70,28
4,67,70,0
4,70,69,28
4,67,69,0
4,70,67,28
4,67,67,0
4,70,65,28
4,67,65,0
4,70,64,28
4,67,64,0
4,70,62,28
4,67,62,0
4,70,60,28
4,67,60,0
4,70,59,28
4,67,59,0
4,70,57,28
4,67,57,0
4,70,55,28
4,67,55,0
4,70,54,28
4,67,54,0
4,70,52,28
4,67,52,0
4,70,50,28
4,67,50,0
4,70,48,28
4,67,48,0
4,70,47,28
4,67,47,0
4,70,45,28
4,67,45,0
4,70,43,28
4,67,43,0
4,70,42,28
4,67,42,0
4,75,80,28
4,71,80,0
4,75,80,20
4,71,80,0
4,75,80,20
4,71,80,0
4,71,80,20
4,75,80,0
4,75,80,20
4,71,80,0
4,75,80,20
4,71,80,0
4,75,80,20
4,71,80,0
4,75,80,20
4,71,80,0
4,77,80,596
4,73,80,0
4,77,80,20
