track,note,velocity,time
0,63,100,2304
0,56,100,0
0,63,100,0
0,59,100,0
0,44,100,0
0,51,100,0
0,51,0,572
0,51,100,4
0,42,100,0
0,42,0,380
0,51,0,0
0,51,100,4
0,63,0,188
0,56,0,0
0,59,0,0
0,63,0,0
0,44,0,0
0,51,0,0
0,61,100,4
0,53,100,0
0,61,100,0
0,56,100,0
0,41,100,0
0,51,100,0
0,51,0,572
0,51,100,4
0,42,100,0
0,42,0,380
0,51,0,0
0,51,100,4
0,61,0,188
0,53,0,0
0,56,0,0
0,61,0,0
0,41,0,0
0,51,0,0
0,63,100,4
0,55,100,0
0,58,100,0
0,51,100,0
0,43,100,0
0,51,100,0
0,51,0,572
0,51,100,4
0,42,100,0
0,42,0,380
0,51,0,0
0,51,100,4
0,51,0,188
0,67,100,4
0,67,100,0
0,51,100,0
0,67,0,188
0,67,0,0
0,68,100,4
0,68,100,0
0,68,0,188
0,68,0,0
0,70,100,4
0,70,100,0
0,70,0,188
0,70,0,0
0,51,0,0
0,73,100,4
0,73,100,0
0,51,100,0
0,42,100,0
0,42,0,380
0,51,0,0
0,51,100,4
0,73,0,188
0,63,0,0
0,55,0,0
0,73,0,0
0,58,0,0
0,43,0,0
0,51,0,0
0,51,0,0
0,75,100,4
0,63,100,0
0,56,100,0
0,75,100,0
0,71,100,0
0,56,100,0
0,51,100,0
0,51,0,572
0,51,100,4
0,42,100,0
0,42,0,380
0,51,0,0
0,51,100,4
0,75,0,188
0,63,0,0
0,56,0,0
0,71,0,0
0,75,0,0
0,56,0,0
0,51,0,0
0,73,100,4
0,61,100,0
0,53,100,0
0,73,100,0
0,68,100,0
0,53,100,0
0,51,100,0
0,51,0,572
0,51,100,4
0,42,100,0
0,42,0,380
0,51,0,0
0,51,100,4
0,73,0,188
0,61,0,0
0,53,0,0
0,68,0,0
0,73,0,0
0,53,0,0
0,51,0,0
0,70,100,4
0,63,100,0
0,55,100,0
0,75,100,0
0,70,100,0
0,63,100,0
0,55,100,0
0,51,100,0
0,51,0,572
0,51,100,4
0,42,100,0
0,42,0,380
0,51,0,0
0,51,100,4
0,70,0,188
0,63,0,0
0,70,0,0
0,75,0,0
0,51,0,0
0,67,100,4
0,67,100,0
0,51,100,0
0,67,0,188
0,67,0,0
0,68,100,4
0,68,100,0
0,68,0,188
0,68,0,0
0,70,100,4
0,70,100,0
0,70,0,188
0,70,0,0
0,51,0,0
0,73,100,4
0,73,100,0
0,51,100,0
0,42,100,0
0,42,0,380
0,51,0,0
0,51,100,4
0,73,0,188
0,63,0,0
0,55,0,0
0,73,0,0
0,55,0,0
0,51,0,0
0,75,100,4
0,75,80,0
0,71,80,0
0,71,100,0
0,63,100,0
0,56,100,0
0,75,100,0
0,71,100,0
0,56,100,0
0,51,127,0
0,51,100,0
0,71,0,68
0,75,0,0
0,75,80,28
0,71,80,0
0,71,0,68
0,75,0,0
0,75,80,28
0,71,80,0
0,71,0,68
0,75,0,0
0,75,80,28
0,71,80,0
0,71,0,68
0,75,0,0
0,75,80,28
0,71,80,0
0,71,0,68
0,75,0,0
0,75,80,28
0,71,80,0
0,71,0,68
0,75,0,0
0,51,0,24
0,51,100,4
0,42,100,0
0,42,0,380
0,51,0,0
0,51,100,4
0,75,0,188
0,63,0,0
0,71,0,0
0,56,0,0
0,71,0,0
0,75,0,0
0,56,0,0
0,51,0,0
0,51,0,0
0,73,100,4
0,73,80,0
0,70,80,0
0,70,100,0
0,61,100,0
0,53,100,0
0,73,100,0
0,68,100,0
0,53,100,0
0,41,100,0
0,49,127,0
0,51,100,0
0,70,0,68
0,73,0,0
0,73,80,28
0,70,80,0
0,70,0,68
0,73,0,0
0,73,80,28
0,70,80,0
0,70,0,68
0,73,0,0
0,73,80,28
0,70,80,0
0,70,0,68
0,73,0,0
0,73,80,28
0,70,80,0
0,70,0,68
0,73,0,0
0,73,80,28
0,70,80,0
0,70,0,68
0,73,0,0
0,51,0,24
0,51,100,4
0,42,100,0
0,42,0,380
0,51,0,0
0,51,100,4
0,73,0,188
0,61,0,0
0,70,0,0
0,53,0,0
0,68,0,0
0,73,0,0
0,41,0,0
0,53,0,0
0,49,0,0
0,51,0,0
0,70,100,4
0,70,80,0
0,67,80,0
0,67,100,0
0,63,100,0
0,55,100,0
0,75,100,0
0,70,100,0
0,63,100,0
0,55,100,0
0,43,100,0
0,46,127,0
0,51,100,0
0,67,0,68
0,70,0,0
0,70,79,28
0,67,79,0
0,67,0,68
0,70,0,0
0,70,77,28
0,67,77,0
0,67,0,68
0,70,0,0
0,70,75,28
0,67,75,0
0,67,0,68
0,70,0,0
0,70,74,28
0,67,74,0
0,67,0,68
0,70,0,0
0,70,72,28
0,67,72,0
0,67,0,68
0,70,0,0
0,79,1,24
0,51,0,0
0,79,0,4
0,55,100,0
0,70,70,0
0,67,70,0
0,51,100,0
0,42,100,0
0,67,0,68
0,70,0,0
0,70,69,28
0,67,69,0
0,67,0,68
0,70,0,0
0,70,67,28
0,67,67,0
0,67,0,68
0,70,0,0
0,70,65,28
0,67,65,0
0,67,0,68
0,70,0,0
0,55,0,24
0,42,0,0
0,51,0,0
0,63,100,4
0,70,64,0
0,67,64,0
0,51,100,0
0,67,0,68
0,70,0,0
0,70,62,28
0,67,62,0
0,67,0,68
0,70,0,0
0,70,0,24
0,63,0,0
0,70,0,0
0,75,0,0
0,51,0,0
0,67,100,4
0,70,60,0
0,67,60,0
0,67,100,0
0,51,100,0
0,67,0,68
0,70,0,0
0,70,59,28
0,67,59,0
0,67,0,68
0,70,0,0
0,67,0,24
0,67,0,0
0,68,100,4
0,70,57,0
0,67,57,0
0,68,100,0
0,67,0,68
0,70,0,0
0,70,55,28
0,67,55,0
0,67,0,68
0,70,0,0
0,68,0,24
0,68,0,0
0,70,100,4
0,70,54,0
0,67,54,0
0,70,100,0
0,67,0,68
0,70,0,0
0,70,52,28
0,67,52,0
0,67,0,68
0,70,0,0
0,70,0,24
0,70,0,0
0,51,0,0
0,73,100,4
0,70,50,0
0,67,50,0
0,73,100,0
0,51,100,0
0,42,100,0
0,67,0,68
0,70,0,0
0,70,48,28
0,67,48,0
0,67,0,68
0,70,0,0
0,70,47,28
0,67,47,0
0,67,0,68
0,70,0,0
0,70,45,28
0,67,45,0
0,67,0,68
0,70,0,0
0,42,0,24
0,51,0,0
0,70,43,4
0,67,43,0
0,51,100,0
0,67,0,68
0,70,0,0
0,70,42,28
0,67,42,0
0,67,0,68
0,70,0,0
0,63,0,24
0,73,0,0
0,63,0,0
0,67,0,0
0,55,0,0
0,73,0,0
0,43,0,0
0,55,0,0
0,46,0,0
0,51,0,0
0,55,100,4
0,75,100,0
0,75,80,0
0,71,80,0
0,71,100,0
0,63,100,0
0,56,100,0
0,75,100,0
0,71,100,0
0,56,100,0
0,47,127,0
0,51,100,0
0,71,0,68
0,75,0,0
0,75,80,28
0,71,80,0
0,71,0,68
0,75,0,0
0,55,0,24
0,47,0,0
0,75,80,4
0,71,80,0
0,46,127,0
0,71,0,68
0,75,0,0
0,75,80,28
0,71,80,0
0,71,0,68
0,75,0,0
0,46,0,24
0,75,80,4
0,71,80,0
0,44,127,0
0,71,0,68
0,75,0,0
0,75,80,28
0,71,80,0
0,71,0,68
0,75,0,0
0,44,0,24
0,51,0,0
0,44,127,4
0,51,100,0
0,42,100,0
0,42,0,380
0,51,0,0
0,51,100,4
0,75,0,188
0,63,0,0
0,71,0,0
0,56,0,0
0,71,0,0
0,75,0,0
0,56,0,0
0,44,0,0
0,51,0,0
0,73,100,4
0,73,80,0
0,70,80,0
0,70,100,0
0,61,100,0
0,53,100,0
0,73,100,0
0,68,100,0
0,53,100,0
0,41,100,0
0,49,127,0
0,51,100,0
0,70,0,68
0,73,0,0
0,73,80,28
0,70,80,0
0,70,0,68
0,73,0,0
0,73,80,28
0,70,80,0
0,70,0,68
0,73,0,0
0,73,80,28
0,70,80,0
0,70,0,68
0,73,0,0
0,73,80,28
0,70,80,0
0,70,0,68
0,73,0,0
0,73,80,28
0,70,80,0
0,70,0,68
0,73,0,0
0,49,127,20
0,49,0,4
0,51,0,0
0,51,100,4
0,42,100,0
0,49,0,180
0,51,127,12
0,51,0,188
0,42,0,0
0,51,0,0
0,47,127,4
0,51,100,0
0,73,0,188
0,61,0,0
0,70,0,0
0,53,0,0
0,68,0,0
0,73,0,0
0,41,0,0
0,53,0,0
0,47,0,0
0,51,0,0
0,70,100,4
0,70,80,0
0,67,80,0
0,67,100,0
0,63,100,0
0,55,100,0
0,75,100,0
0,70,100,0
0,63,100,0
0,55,100,0
0,43,100,0
0,46,127,0
0,51,100,0
0,67,0,68
0,70,0,0
0,70,79,28
0,67,79,0
0,67,0,68
0,70,0,0
0,70,77,28
0,67,77,0
0,67,0,68
0,70,0,0
0,70,75,28
0,67,75,0
0,67,0,68
0,70,0,0
0,70,74,28
0,67,74,0
0,67,0,68
0,70,0,0
0,70,72,28
0,67,72,0
0,67,0,68
0,70,0,0
0,51,0,24
0,55,100,4
0,70,70,0
0,67,70,0
0,51,100,0
0,42,100,0
0,67,0,68
0,70,0,0
0,70,69,28
0,67,69,0
0,67,0,68
0,70,0,0
0,70,67,28
0,67,67,0
0,67,0,68
0,70,0,0
0,70,65,28
0,67,65,0
0,67,0,68
0,70,0,0
0,55,0,24
0,63,100,4
0,70,64,0
0,67,64,0
0,67,0,68
0,70,0,0
0,70,62,28
0,67,62,0
0,67,0,68
0,70,0,0
0,70,0,24
0,63,0,0
0,70,0,0
0,75,0,0
0,42,0,0
0,51,0,0
0,67,100,4
0,70,60,0
0,67,60,0
0,67,100,0
0,51,100,0
0,67,0,68
0,70,0,0
0,70,59,28
0,67,59,0
0,67,0,68
0,70,0,0
0,67,0,24
0,67,0,0
0,68,100,4
0,70,57,0
0,67,57,0
0,68,100,0
0,67,0,68
0,70,0,0
0,70,55,28
0,67,55,0
0,67,0,68
0,70,0,0
0,68,0,24
0,68,0,0
0,51,0,0
0,70,100,4
0,70,54,0
0,67,54,0
0,70,100,0
0,42,100,0
0,67,0,68
0,70,0,0
0,70,52,28
0,67,52,0
0,67,0,68
0,70,0,0
0,70,0,24
0,70,0,0
0,42,0,0
0,73,100,4
0,70,50,0
0,67,50,0
0,73,100,0
0,51,100,0
0,67,0,68
0,70,0,0
0,70,48,28
0,67,48,0
0,67,0,68
0,70,0,0
0,70,47,28
0,67,47,0
0,67,0,68
0,70,0,0
0,70,45,28
0,67,45,0
0,67,0,68
0,70,0,0
0,51,0,24
0,70,43,4
0,67,43,0
0,42,100,0
0,67,0,68
0,70,0,0
0,51,100,20
0,42,0,4
0,70,42,4
0,67,42,0
0,67,0,68
0,70,0,0
0,51,0,16
0,63,0,8
0,73,0,0
0,63,0,0
0,67,0,0
0,55,0,0
0,73,0,0
0,43,0,0
0,55,0,0
0,46,0,0
0,55,100,0
0,63,80,0
0,66,100,0
0,63,100,0
0,58,100,0
0,51,100,0
0,51,100,0
0,46,100,0
0,63,0,68
0,63,80,28
0,63,0,68
0,55,0,24
0,63,79,4
0,63,0,68
0,63,79,28
0,63,0,68
0,63,100,0
0,63,78,0
0,63,0,68
0,63,78,28
0,63,0,68
0,63,0,24
0,46,0,0
0,63,100,0
0,63,77,0
0,51,100,0
0,63,0,68
0,63,77,28
0,63,0,68
0,63,76,28
0,63,0,68
0,63,76,28
0,63,0,68
0,63,0,24
0,63,100,0
0,63,75,0
0,63,0,68
0,63,75,28
0,63,0,68
0,63,0,24
0,51,0,0
0,66,100,0
0,63,74,0
0,63,0,68
0,63,74,28
0,63,0,68
0,63,73,28
0,63,0,68
0,63,73,28
0,63,0,68
0,66,0,24
0,63,100,0
0,63,72,0
0,63,0,68
0,63,72,28
0,63,0,68
0,63,0,24
0,63,100,0
0,63,71,0
0,51,100,0
0,63,0,68
0,63,71,28
0,63,0,68
0,63,70,28
0,63,0,68
0,63,70,28
0,63,0,68
0,63,0,24
0,51,0,0
0,58,100,0
0,63,69,0
0,51,100,0
0,63,0,68
0,63,69,28
0,63,0,68
0,63,0,24
0,66,0,0
0,51,0,0
0,58,0,0
0,51,0,0
0,51,0,0
0,63,68,4
0,75,100,0
0,66,100,0
0,61,100,0
0,56,100,0
0,49,100,0
0,49,100,0
0,51,100,0
0,63,0,68
0,63,68,28
0,63,0,68
0,58,0,24
0,63,67,4
0,63,0,68
0,63,67,28
0,63,0,68
0,73,100,0
0,63,66,0
0,63,0,68
0,63,66,28
0,63,0,68
0,73,0,24
0,51,0,0
0,70,100,0
0,63,65,0
0,51,100,0
0,63,0,68
0,63,65,28
0,63,0,68
0,61,0,24
0,66,0,0
0,49,0,0
0,56,0,0
0,63,64,4
0,63,0,68
0,63,64,28
0,63,0,68
0,70,0,24
0,51,0,0
0,66,100,0
0,63,63,0
0,51,100,0
0,63,0,68
0,63,63,28
0,63,0,68
0,66,0,24
0,49,0,0
0,51,0,0
0,63,100,0
0,63,62,0
0,66,100,0
0,63,100,0
0,59,100,0
0,54,100,0
0,47,100,0
0,47,100,0
0,51,100,0
0,63,0,68
0,63,62,28
0,63,0,68
0,63,61,28
0,63,0,68
0,63,61,28
0,63,0,68
0,63,0,24
0,68,100,0
0,63,60,0
0,63,0,68
0,63,60,28
0,63,0,68
0,68,0,24
0,51,0,0
0,65,100,0
0,63,59,0
0,51,100,0
0,63,0,68
0,63,59,28
0,63,0,68
0,63,58,28
0,63,0,68
0,63,58,28
0,63,0,68
0,65,0,24
0,51,0,0
0,61,100,0
0,63,57,0
0,51,100,0
0,63,0,68
0,63,57,28
0,63,0,68
0,61,0,24
0,59,0,0
0,63,0,0
0,66,0,0
0,47,0,0
0,54,0,0
0,47,0,0
0,51,0,0
0,63,100,0
0,63,56,0
0,63,100,0
0,58,100,0
0,55,100,0
0,51,100,0
0,43,100,0
0,43,100,0
0,51,100,0
0,63,0,68
0,63,56,28
0,63,0,68
0,63,55,28
0,63,0,68
0,63,55,28
0,63,0,68
0,63,54,28
0,63,0,68
0,63,54,28
0,63,0,68
0,51,0,24
0,63,53,4
0,51,100,0
0,63,0,68
0,63,53,28
0,63,0,68
0,63,52,28
0,63,0,68
0,63,52,28
0,63,0,68
0,51,0,24
0,63,51,4
0,51,100,0
0,63,0,68
0,63,51,28
0,63,0,68
0,63,0,24
0,51,0,0
0,63,50,4
0,51,100,0
0,63,0,68
0,63,50,28
0,63,0,68
0,63,49,28
0,63,0,68
0,63,49,28
0,63,0,68
0,55,0,24
0,58,0,0
0,63,0,0
0,51,0,0
0,63,48,4
0,51,100,0
0,63,0,68
0,63,48,28
0,63,0,68
0,51,0,24
0,63,47,4
0,55,100,0
0,51,100,0
0,63,0,68
0,63,47,28
0,63,0,68
0,55,0,24
0,63,46,4
0,58,100,0
0,63,0,68
0,63,46,28
0,63,0,68
0,58,0,24
0,51,0,0
0,58,100,0
0,63,45,0
0,63,100,0
0,51,100,0
0,63,0,68
0,63,45,28
0,63,0,68
0,58,0,24
0,63,0,0
0,51,0,0
0,43,0,0
0,43,0,0
0,51,0,0
0,63,100,0
0,63,44,0
0,70,100,0
0,66,100,0
0,63,100,0
0,47,100,0
0,47,100,0
0,51,100,0
0,63,0,68
0,63,44,28
0,63,0,68
0,63,0,24
0,63,100,0
0,63,43,0
0,63,0,68
0,63,43,28
0,63,0,68
0,63,0,24
0,51,0,0
0,70,100,0
0,63,42,0
0,46,100,0
0,63,0,68
0,63,42,28
0,63,0,68
0,51,100,20
0,46,0,4
0,63,41,4
0,63,0,68
0,63,41,28
0,63,0,68
0,63,40,28
0,63,0,68
0,63,40,28
0,63,0,68
0,70,0,24
0,58,100,0
0,63,39,0
0,63,0,68
0,63,39,28
0,63,0,68
0,51,0,16
0,58,0,8
0,63,0,0
0,66,0,0
0,70,0,0
0,47,0,0
0,47,0,0
0,63,100,0
0,63,38,0
0,68,100,0
0,65,100,0
0,61,100,0
0,46,100,0
0,46,100,0
0,51,100,0
0,63,0,68
