track,note,velocity,time
0,64,127,0
0,68,127,0
0,61,127,0
0,59,127,0
0,56,127,0
0,49,127,0
0,68,100,0
0,64,100,0
0,61,100,0
0,59,100,0
0,56,100,0
0,49,100,0
0,71,100,0
0,63,100,0
0,66,100,0
0,61,100,0
0,59,100,0
0,54,100,0
0,47,100,0
0,63,100,260
0,61,100,0
0,59,100,0
0,54,100,0
0,47,100,0
0,64,100,0
0,64,100,0
0,66,100,0
0,61,100,0
0,59,100,0
0,54,100,0
0,45,100,0
0,64,100,245
0,61,100,0
0,59,100,0
0,54,100,0
0,45,100,0
0,64,100,245
0,61,100,0
0,59,100,0
0,54,100,0
0,45,100,0
0,64,100,5
0,61,100,0
0,59,100,0
0,54,100,0
0,45,100,0
0,61,100,0
0,66,100,0
0,63,100,0
0,66,100,0
0,61,100,0
0,59,100,0
0,54,100,0
0,47,100,0
0,63,100,245
0,61,100,0
0,59,100,0
0,54,100,0
0,47,100,0
0,66,100,0
0,61,100,0
0,64,100,0
0,64,100,0
0,68,100,0
0,61,100,0
0,59,100,0
0,56,100,0
0,49,100,0
0,64,100,245
0,64,100,0
0,68,100,0
0,61,100,0
0,59,100,0
0,56,100,0
0,49,100,0
0,66,100,5
0,63,100,5
0,63,100,0
0,66,100,0
0,61,100,0
0,59,100,0
0,54,100,0
0,47,100,0
0,63,100,245
0,63,100,0
0,66,100,0
0,61,100,0
0,59,100,0
0,54,100,0
0,47,100,0
0,64,100,5
0,61,100,5
0,64,100,0
0,66,100,0
0,61,100,0
0,59,100,0
0,54,100,0
0,45,100,0
0,64,100,245
0,66,100,0
0,61,100,0
0,59,100,0
0,54,100,0
0,45,100,0
0,61,100,0
0,64,100,0
0,64,100,0
0,66,100,0
0,61,100,0
0,59,100,0
0,54,100,0
0,45,100,0
0,64,100,0
0,64,100,0
0,66,100,0
0,61,100,0
0,59,100,0
0,54,100,0
0,45,100,0
0,64,100,0
0,63,100,0
0,66,100,0
0,61,100,0
0,59,100,0
0,54,100,0
0,47,100,0
0,59,100,0
0,63,100,0
0,66,100,0
0,61,100,0
0,59,100,0
0,54,100,0
0,47,100,0
0,63,100,245
0,66,100,0
0,61,100,0
0,59,100,0
0,54,100,0
0,47,100,0
0,63,100,245
0,66,100,0
0,61,100,0
0,59,100,0
0,54,100,0
0,47,100,0
0,59,100,0
0,68,100,0
0,64,100,0
0,68,100,0
0,61,100,0
0,59,100,0
0,56,100,0
0,49,100,0
0,64,100,245
0,61,100,0
0,59,100,0
0,56,100,0
0,49,100,0
0,71,100,0
0,63,100,0
0,66,100,0
0,61,100,0
0,59,100,0
0,54,100,0
0,47,100,0
0,63,100,245
0,61,100,0
0,59,100,0
0,54,100,0
0,47,100,0
0,64,100,0
0,64,100,0
0,66,100,0
0,61,100,0
0,59,100,0
0,54,100,0
0,45,100,0
0,64,100,245
0,61,100,0
0,59,100,0
0,54,100,0
0,45,100,0
0,64,100,245
0,61,100,0
0,59,100,0
0,54,100,0
0,45,100,0
0,61,100,0
0,64,100,0
0,61,100,0
0,59,100,0
0,54,100,0
0,45,100,0
0,59,100,0
0,66,100,0
0,63,100,0
0,66,100,0
0,61,100,0
0,59,100,0
0,54,100,0
0,47,100,0
0,66,100,0
0,63,100,0
0,61,100,0
0,59,100,0
0,54,100,0
0,47,100,0
0,61,100,0
0,64,100,0
0,64,100,0
0,68,100,0
0,61,100,0
0,59,100,0
0,56,100,0
0,49,100,0
0,52,75,5
0,64,100,5
0,64,100,0
0,68,100,0
0,61,100,0
0,59,100,0
0,56,100,0
0,49,100,0
0,66,100,5
0,63,100,5
0,63,100,0
0,66,100,0
0,61,100,0
0,59,100,0
0,54,100,0
0,47,100,0
0,51,75,5
0,63,100,5
0,63,100,0
0,66,100,0
0,61,100,0
0,59,100,0
0,54,100,0
0,47,100,0
0,64,100,5
0,61,100,5
0,49,75,0
0,64,100,0
0,66,100,0
0,61,100,0
0,59,100,0
0,54,100,0
0,45,100,0
0,61,100,0
0,64,100,0
0,64,100,0
0,66,100,0
0,61,100,0
0,59,100,0
0,54,100,0
0,45,100,0
0,61,100,0
0,64,100,0
0,64,100,0
0,66,100,0
0,61,100,0
0,59,100,0
0,54,100,0
0,45,100,0
0,64,100,245
0,66,100,0
0,61,100,0
0,59,100,0
0,54,100,0
0,45,100,0
0,61,100,0
0,64,100,0
0,63,100,0
0,66,100,0
0,61,100,0
0,59,100,0
0,54,100,0
0,47,100,0
0,59,100,0
0,63,100,0
0,66,100,0
0,61,100,0
0,59,100,0
0,54,100,0
0,47,100,0
0,63,100,245
0,66,100,0
0,61,100,0
0,59,100,0
0,54,100,0
0,47,100,0
0,63,100,5
0,66,100,0
0,61,100,0
0,59,100,0
0,54,100,0
0,47,100,0
0,61,100,0
0,64,100,0
0,64,100,0
0,56,100,0
0,64,100,0
0,68,100,0
0,61,100,0
0,59,100,0
0,56,100,0
0,49,100,0
0,36,127,0
0,63,100,0
0,63,100,0
0,59,100,0
0,64,100,0
0,68,100,0
0,61,100,0
0,59,100,0
0,56,100,0
0,49,100,0
0,36,127,0
0,59,100,0
0,61,100,0
0,64,100,0
0,66,100,0
0,64,100,0
0,61,100,0
0,59,100,0
0,54,100,0
0,45,100,0
0,36,127,0
0,68,100,5
0,61,100,5
0,64,100,0
0,66,100,0
0,64,100,0
0,61,100,0
0,59,100,0
0,54,100,0
0,45,100,0
0,36,127,0
0,59,100,0
0,66,100,0
0,63,100,0
0,59,100,0
0,63,100,0
0,61,100,0
0,59,100,0
0,54,100,0
0,47,100,0
0,36,127,0
0,68,100,5
0,66,100,5
0,63,100,0
0,59,100,0
0,63,100,0
0,61,100,0
0,59,100,0
0,54,100,0
0,47,100,0
0,36,127,0
0,66,100,0
0,63,100,0
0,59,100,0
0,63,100,0
0,61,100,0
0,59,100,0
0,54,100,0
0,47,100,0
0,36,127,0
0,68,100,0
0,63,100,0
0,56,100,0
0,63,100,0
0,61,100,0
0,59,100,0
0,56,100,0
0,44,100,0
0,36,127,0
0,61,100,0
0,61,100,0
0,64,100,0
0,66,100,0
0,64,100,0
0,61,100,0
0,59,100,0
0,56,100,0
0,49,100,0
0,36,127,0
0,68,100,5
0,61,100,5
0,64,100,0
0,66,100,0
0,64,100,0
0,61,100,0
0,59,100,0
0,56,100,0
0,49,100,0
0,36,127,0
0,59,100,0
0,59,100,0
0,66,100,0
0,63,100,0
0,63,100,0
0,61,100,0
0,59,100,0
0,54,100,0
0,47,100,0
0,36,127,0
0,68,100,5
0,66,100,5
0,63,100,0
0,63,100,0
0,61,100,0
0,59,100,0
0,54,100,0
0,47,100,0
0,36,127,0
0,63,100,0
0,64,100,0
0,64,100,0
0,61,100,0
0,59,100,0
0,68,100,0
0,56,100,0
0,49,100,0
0,36,127,0
0,63,100,0
0,63,100,0
0,61,100,0
0,59,100,0
0,66,100,0
0,54,100,0
0,47,100,0
0,36,127,0
0,59,100,0
0,61,100,0
0,64,100,0
0,66,100,0
0,64,100,0
0,61,100,0
0,59,100,0
0,54,100,0
0,45,100,0
0,36,127,0
0,68,100,5
0,61,100,5
0,64,100,0
0,66,100,0
0,64,100,0
0,61,100,0
0,59,100,0
0,54,100,0
0,45,100,0
0,36,127,0
0,59,100,0
0,66,100,0
0,63,100,0
0,59,100,0
0,63,100,0
0,61,100,0
0,59,100,0
0,54,100,0
0,47,100,0
0,36,127,0
0,68,100,5
0,66,100,5
0,63,100,0
0,59,100,0
0,63,100,0
0,61,100,0
0,59,100,0
0,54,100,0
0,47,100,0
0,36,127,0
0,66,100,0
0,63,100,0
0,59,100,0
0,63,100,0
0,61,100,0
0,59,100,0
0,54,100,0
0,47,100,0
0,36,127,0
0,68,100,0
0,63,100,0
0,56,100,0
0,66,100,0
0,63,100,0
0,61,100,0
0,59,100,0
0,56,100,0
0,44,100,0
0,36,127,0
0,71,70,5
0,61,100,0
0,61,100,0
0,64,100,0
0,66,100,0
0,64,100,0
0,61,100,0
0,59,100,0
0,56,100,0
0,49,100,0
0,36,127,0
0,68,100,5
0,61,100,5
0,64,100,0
0,66,100,0
0,64,100,0
0,61,100,0
0,59,100,0
0,56,100,0
0,49,100,0
0,36,127,0
0,59,100,0
0,59,100,0
0,66,100,0
0,63,100,0
0,59,100,0
0,63,100,0
0,61,100,0
0,59,100,0
0,54,100,0
0,47,100,0
0,36,127,0
0,68,100,5
0,66,100,5
0,63,100,0
0,59,100,0
0,63,100,0
0,61,100,0
0,59,100,0
0,54,100,0
0,47,100,0
0,36,127,0
0,64,100,0
0,63,100,0
0,59,100,0
0,64,100,0
0,61,100,0
0,59,100,0
0,68,100,0
0,56,100,0
0,49,100,0
0,36,127,0
0,63,100,0
0,63,100,0
0,59,100,0
0,63,100,0
0,61,100,0
0,59,100,0
0,66,100,0
0,54,100,0
0,47,100,0
0,36,127,0
0,59,100,0
0,61,100,0
0,64,100,0
0,66,100,0
0,64,100,0
0,61,100,0
0,59,100,0
0,52,100,0
0,45,100,0
0,36,127,0
0,68,100,5
0,61,100,5
0,64,100,0
0,66,100,0
0,64,100,0
0,61,100,0
0,59,100,0
0,52,100,0
0,45,100,0
0,36,127,0
0,61,100,0
0,59,100,0
0,61,100,0
0,64,100,0
0,66,100,0
0,64,100,0
0,61,100,0
0,59,100,0
0,52,100,0
0,45,100,0
0,36,127,0
0,61,100,5
0,64,100,0
0,66,100,0
0,64,100,0
0,61,100,0
0,59,100,0
0,52,100,0
0,45,100,0
0,36,127,0
0,61,100,5
0,63,100,0
0,66,100,0
0,63,100,0
0,61,100,0
0,59,100,0
0,66,100,0
0,54,100,0
0,47,100,0
0,49,100,0
0,36,127,0
0,61,100,725
0,63,100,0
0,66,100,0
0,63,100,0
0,61,100,0
0,59,100,0
0,66,100,0
0,54,100,0
0,47,100,0
0,49,100,0
0,59,100,0
0,61,100,0
0,63,100,0
0,66,100,0
0,63,100,0
0,61,100,0
0,59,100,0
0,66,100,0
0,54,100,0
0,47,100,0
0,49,100,0
0,61,100,0
0,56,100,0
0,59,100,0
0,68,100,0
0,64,100,0
0,61,100,0
0,59,100,0
0,56,100,0
0,52,100,0
0,49,100,0
0,43,60,0
0,36,127,0
0,43,60,5
0,43,60,5
0,59,100,5
0,68,100,0
0,64,100,0
0,61,100,0
0,59,100,0
0,56,100,0
0,52,100,0
0,44,100,0
0,43,60,0
0,38,127,0
0,61,100,5
0,50,60,0
0,59,100,5
0,68,100,0
0,64,100,0
0,61,100,0
0,59,100,0
0,56,100,0
0,52,100,0
0,49,100,0
0,43,60,0
0,36,127,0
0,43,60,5
0,43,60,5
0,59,100,5
0,68,100,0
0,64,100,0
0,61,100,0
0,59,100,0
0,56,100,0
0,52,100,0
0,44,100,0
0,43,60,0
0,38,127,0
0,61,100,5
0,50,60,0
0,59,100,5
0,66,100,0
0,63,100,0
0,61,100,0
0,59,100,0
0,54,100,0
0,51,100,0
0,47,100,0
0,43,60,0
0,36,127,0
0,43,60,5
0,43,60,5
0,59,100,5
0,66,100,0
0,63,100,0
0,61,100,0
0,59,100,0
0,54,100,0
0,51,100,0
0,42,100,0
0,43,60,0
0,38,127,0
0,61,100,5
0,50,60,0
0,63,100,5
0,66,100,0
0,63,100,0
0,61,100,0
0,59,100,0
0,54,100,0
0,51,100,0
0,47,100,0
0,43,60,0
0,36,127,0
0,64,100,5
0,43,60,0
0,43,60,5
0,63,100,5
0,66,100,0
0,63,100,0
0,61,100,0
0,59,100,0
0,54,100,0
0,51,100,0
0,42,100,0
0,43,60,0
0,38,127,0
0,61,100,5
0,50,60,0
0,61,100,5
0,64,100,0
0,61,100,0
0,59,100,0
0,54,100,0
0,49,100,0
0,47,100,0
0,43,60,0
0,36,127,0
0,43,60,5
0,43,60,5
0,61,100,5
0,64,100,0
0,61,100,0
0,59,100,0
0,54,100,0
0,49,100,0
0,42,100,0
0,43,60,0
0,38,127,0
0,59,100,5
0,50,60,0
0,61,100,5
0,64,100,0
0,61,100,0
0,59,100,0
0,54,100,0
0,49,100,0
0,47,100,0
0,43,60,0
0,36,127,0
0,43,60,5
0,43,60,5
0,61,100,5
0,64,100,0
0,61,100,0
0,59,100,0
0,54,100,0
0,49,100,0
0,42,100,0
0,43,60,0
0,38,127,0
0,59,100,5
0,50,60,0
0,59,100,5
0,66,100,0
0,63,100,0
0,61,100,0
0,59,100,0
0,54,100,0
0,51,100,0
0,47,100,0
0,43,60,0
0,36,127,0
0,43,60,5
0,43,60,5
0,59,100,5
0,66,100,0
0,63,100,0
0,61,100,0
0,59,100,0
0,54,100,0
0,51,100,0
0,42,100,0
0,43,60,0
0,38,127,0
0,59,100,0
0,61,100,0
0,50,60,0
0,66,100,0
0,63,100,0
0,66,100,0
0,63,100,0
0,61,100,0
0,59,100,0
0,54,100,0
0,51,100,0
0,47,100,0
0,43,60,0
0,36,127,0
0,66,100,0
0,66,100,0
0,64,100,0
0,43,60,0
0,43,60,5
0,66,100,0
0,63,100,0
0,66,100,0
0,63,100,0
0,61,100,0
0,59,100,0
0,54,100,0
0,51,100,0
0,42,100,0
0,43,60,0
0,38,127,0
0,64,100,0
0,61,100,0
0,50,60,0
0,59,100,5
0,68,100,0
0,64,100,0
0,61,100,0
0,59,100,0
0,56,100,0
0,52,100,0
0,49,100,0
0,43,60,0
0,36,127,0
0,43,60,5
0,43,60,5
0,59,100,5
0,68,100,0
0,64,100,0
0,61,100,0
0,59,100,0
0,56,100,0
0,52,100,0
0,44,100,0
0,43,60,0
0,38,127,0
0,61,100,5
0,50,60,0
0,59,100,5
0,68,100,0
0,64,100,0
0,61,100,0
0,59,100,0
0,56,100,0
0,52,100,0
0,49,100,0
0,43,60,0
0,36,127,0
0,43,60,5
0,43,60,5
0,59,100,5
0,68,100,0
0,64,100,0
0,61,100,0
0,59,100,0
0,56,100,0
0,52,100,0
0,44,100,0
0,43,60,0
0,38,127,0
0,61,100,5
0,50,60,0
0,59,100,5
0,66,100,0
0,63,100,0
0,61,100,0
0,59,100,0
0,54,100,0
0,51,100,0
0,47,100,0
0,43,60,0
0,36,127,0
0,43,60,5
0,43,60,5
0,59,100,5
0,66,100,0
0,63,100,0
0,61,100,0
0,59,100,0
0,54,100,0
0,51,100,0
0,42,100,0
0,43,60,0
0,38,127,0
0,59,100,0
0,61,100,0
0,50,60,0
0,66,100,0
0,63,100,0
0,66,100,0
0,63,100,0
0,61,100,0
0,59,100,0
0,54,100,0
0,51,100,0
0,47,100,0
0,43,60,0
0,36,127,0
0,66,100,0
0,64,100,0
0,43,60,0
0,43,60,5
0,66,100,0
0,63,100,0
0,66,100,0
0,63,100,0
0,61,100,0
0,59,100,0
0,54,100,0
0,51,100,0
0,42,100,0
0,43,60,0
0,38,127,0
0,64,100,0
0,61,100,0
0,50,60,0
0,61,100,5
0,64,100,0
0,61,100,0
0,59,100,0
0,54,100,0
0,49,100,0
0,47,100,0
0,43,60,0
0,36,127,0
0,43,60,5
0,43,60,5
0,61,100,5
0,64,100,0
0,61,100,0
0,59,100,0
0,54,100,0
0,49,100,0
0,42,100,0
0,43,60,0
0,38,127,0
0,59,100,5
0,50,60,0
0,61,100,5
0,64,100,0
0,61,100,0
0,59,100,0
0,54,100,0
0,49,100,0
0,47,100,0
0,43,60,0
0,36,127,0
0,43,60,5
0,43,60,5
0,61,100,5
0,64,100,0
0,61,100,0
0,59,100,0
0,54,100,0
0,49,100,0
0,42,100,0
0,43,60,0
0,38,127,0
0,59,100,5
0,50,60,0
0,59,100,5
0,66,100,0
0,63,100,0
0,61,100,0
0,59,100,0
0,54,100,0
0,51,100,0
0,47,100,0
0,43,60,0
0,36,127,0
0,43,60,5
0,43,60,5
0,59,100,0
0,59,100,0
0,66,100,0
0,63,100,0
0,61,100,0
0,59,100,0
0,54,100,0
0,51,100,0
0,42,100,0
0,43,60,0
0,38,127,0
0,59,100,0
0,61,100,0
0,50,60,0
0,66,100,0
0,63,100,0
0,66,100,0
0,63,100,0
0,61,100,0
