track,note,velocity,time
3,79,1,14396
3,79,0,4
3,55,100,0
3,55,0,380
3,63,100,4
3,63,0,1340
3,55,100,4
3,55,0,188
3,55,100,0
3,55,0,380
3,63,100,0
3,63,0,1340
3,55,100,0
3,55,0,188
3,63,100,0
3,63,0,188
3,63,100,0
3,63,0,380
3,63,100,0
3,63,0,188
3,66,100,0
3,66,0,380
3,63,100,0
3,63,0,188
3,63,100,0
3,63,0,380
3,58,100,0
3,58,0,380
3,73,100,0
3,73,0,188
3,70,100,0
3,70,0,380
3,66,100,0
3,66,0,188
3,63,100,0
3,63,0,380
3,68,100,0
3,68,0,188
3,65,100,0
3,65,0,380
3,61,100,0
3,61,0,188
3,63,100,0
3,63,0,1148
3,58,100,0
3,58,0,188
3,63,100,0
3,63,0,188
3,63,100,0
3,63,0,188
3,70,100,0
3,70,0,572
3,58,100,0
3,58,0,188
3,63,100,0
3,63,0,380
3,70,100,0
3,70,0,764
3,73,100,0
3,73,0,188
3,70,100,0
3,70,0,380
3,66,100,0
3,66,0,188
3,63,100,0
3,63,0,380
3,68,100,0
3,68,0,572
3,61,100,0
3,61,0,188
3,63,100,0
3,63,0,956
3,58,100,0
3,58,0,764
3,63,100,0
3,63,0,188
3,63,100,0
3,63,0,380
3,63,100,0
3,63,0,188
3,63,100,0
3,63,0,380
3,63,100,0
3,63,0,188
3,63,100,0
3,63,0,380
3,58,100,0
3,58,0,188
3,73,100,0
3,73,0,188
3,70,100,0
3,70,0,380
3,66,100,0
3,66,0,188
3,63,100,0
3,63,0,380
3,68,100,0
3,68,0,188
3,65,100,0
3,65,0,380
3,61,100,0
3,61,0,188
3,63,100,0
3,63,0,572
3,63,100,0
3,63,0,380
3,67,100,0
3,67,0,764
3,63,100,0
3,63,0,380
3,70,100,0
3,58,100,0
3,58,0,764
3,70,0,0
3,63,100,0
3,63,0,380
3,70,100,0
3,58,100,0
3,58,0,764
3,70,0,0
3,73,100,0
3,73,0,188
3,70,100,0
3,70,0,380
3,66,100,0
3,66,0,188
3,63,100,0
3,63,0,380
3,68,100,0
3,68,0,188
3,65,100,0
3,65,0,380
3,61,100,0
3,61,0,188
3,63,100,0
3,63,0,1724
3,73,100,0
3,73,0,188
3,70,100,0
3,70,0,380
3,66,100,0
3,66,0,188
3,63,100,0
3,63,0,380
3,68,100,0
3,68,0,188
3,65,100,0
3,65,0,380
3,61,100,0
3,61,0,188
3,63,100,0
3,63,0,572
3,63,100,0
3,63,0,380
3,70,100,0
3,70,0,1340
3,73,100,0
3,73,0,188
3,70,100,0
3,70,0,380
3,66,100,0
3,66,0,188
3,63,100,0
3,63,0,380
3,68,100,0
3,68,0,188
3,65,100,0
3,65,0,380
3,61,100,0
3,61,0,188
3,63,100,0
3,63,0,572
3,63,100,0
3,63,0,572
3,66,100,0
3,66,0,572
3,63,100,0
3,63,0,188
3,63,100,0
3,63,0,380
3,58,100,0
3,58,0,188
3,70,100,0
3,70,0,380
3,58,100,0
3,58,0,188
3,75,100,0
3,75,0,1148
3,73,100,0
3,73,0,572
3,71,100,0
3,63,75,0
3,63,0,188
3,71,0,0
3,70,100,0
3,66,75,0
3,66,0,380
3,70,0,0
3,73,100,0
3,66,75,0
3,66,0,188
3,73,0,0
3,71,100,0
3,63,75,0
3,63,0,380
3,71,0,0
3,70,100,0
3,67,75,0
3,67,0,572
3,70,0,0
3,75,100,0
3,67,75,0
3,67,0,188
3,75,0,0
3,73,100,0
3,63,75,0
3,63,0,380
3,73,0,0
3,70,100,0
3,66,75,0
3,66,0,572
3,70,0,0
3,66,100,0
3,63,75,0
3,63,0,188
3,66,0,0
3,68,100,0
3,63,75,0
3,63,0,380
3,68,0,0
3,66,100,0
3,58,75,0
3,66,0,188
3,63,100,0
3,63,0,572
3,58,0,0
3,75,100,0
3,75,0,1148
3,73,100,0
3,73,0,572
3,71,100,0
3,63,75,0
3,63,0,188
3,71,0,0
3,70,100,0
3,66,75,0
3,66,0,380
3,70,0,0
3,73,100,0
3,66,75,0
3,66,0,188
3,73,0,0
3,71,100,0
3,63,75,0
3,63,0,380
3,71,0,0
3,70,100,0
3,67,75,0
3,67,0,572
3,70,0,0
3,75,100,0
3,67,75,0
3,67,0,188
3,75,0,0
3,73,100,0
3,63,75,0
3,63,0,380
3,73,0,0
3,70,100,0
3,66,75,0
3,66,0,572
3,70,0,0
3,66,100,4
3,63,75,0
3,63,0,188
3,66,0,0
3,68,100,4
3,63,75,0
3,63,0,380
3,68,0,0
3,66,100,4
3,58,75,0
3,66,0,188
3,68,100,0
3,68,0,92
3,66,100,0
3,66,0,92
3,63,100,0
3,63,0,956
3,58,0,0
3,55,100,0
3,55,0,380
3,63,100,0
3,63,0,1340
3,55,100,0
3,55,0,188
3,63,100,0
3,63,0,188
3,63,100,0
3,63,0,188
3,63,100,0
3,63,0,188
3,63,100,0
3,63,0,188
3,66,100,0
3,66,0,380
3,63,100,0
3,63,0,188
3,63,100,0
3,63,0,380
3,58,100,0
3,58,0,188
3,73,100,0
3,73,0,188
3,70,100,0
3,70,0,380
3,66,100,0
3,66,0,188
3,63,100,0
3,63,0,380
3,68,100,0
3,68,0,188
3,65,100,0
3,65,0,572
3,61,100,0
3,61,0,380
3,63,100,0
3,63,0,764
3,63,100,0
3,63,0,380
3,70,100,0
3,58,100,0
3,58,0,764
3,70,0,0
3,63,100,0
3,63,0,380
3,70,100,0
3,58,100,0
3,58,0,764
3,70,0,0
3,73,100,0
3,73,0,188
3,70,100,0
3,70,0,380
3,66,100,0
3,66,0,188
3,63,100,0
3,63,0,380
3,68,100,0
3,68,0,188
3,65,100,0
3,65,0,380
3,61,100,0
3,61,0,572
3,63,100,0
3,58,100,0
3,63,0,188
3,58,0,576
3,63,100,0
3,63,0,188
3,63,100,0
3,63,0,188
3,63,100,0
3,63,0,188
3,66,100,0
3,66,0,572
3,63,100,0
3,63,0,572
3,63,100,0
3,63,0,188
3,58,100,0
3,58,0,188
3,73,100,0
3,73,0,188
3,70,100,0
3,70,0,380
3,66,100,0
3,66,0,188
3,63,100,0
3,63,0,380
3,68,100,0
3,68,0,188
3,65,100,0
3,65,0,380
3,61,100,0
3,61,0,188
3,63,100,0
3,63,0,572
3,63,100,0
3,63,0,380
3,67,100,0
3,67,0,764
3,63,100,0
3,58,100,0
3,58,0,188
3,63,0,0
3,63,100,0
3,63,0,380
3,70,100,0
3,58,100,0
3,58,0,764
3,70,0,0
3,63,100,0
3,63,0,380
3,70,100,0
3,58,100,0
3,58,0,764
3,70,0,0
3,73,100,0
3,73,0,188
3,70,100,0
3,70,0,380
3,66,100,0
3,66,0,188
3,63,100,0
3,63,0,380
3,68,100,0
3,68,0,188
3,65,100,0
3,65,0,380
3,61,100,0
3,61,0,188
3,63,100,0
3,63,0,956
3,67,100,0
3,67,0,764
3,73,100,0
3,73,0,188
3,70,100,0
3,70,0,380
3,66,100,0
3,66,0,188
3,63,100,0
3,63,0,380
3,68,100,0
3,68,0,188
3,65,100,0
3,65,0,380
3,61,100,0
3,61,0,188
3,63,100,0
3,63,0,572
3,63,100,0
3,63,0,380
3,70,100,0
3,70,0,1340
3,73,100,0
3,73,0,188
3,70,100,0
3,70,0,380
3,66,100,0
3,66,0,188
3,63,100,0
3,63,0,380
3,68,100,0
3,68,0,188
3,65,100,0
3,65,0,380
3,61,100,0
3,61,0,188
3,63,100,0
3,63,0,572
3,63,100,0
3,63,0,380
3,70,100,0
3,70,0,1340
3,73,100,0
3,73,0,188
3,70,100,0
3,70,0,380
3,66,100,0
3,66,0,188
3,63,100,0
3,63,0,380
3,68,100,0
3,68,0,188
3,65,100,0
3,65,0,380
3,61,100,0
3,61,0,188
3,63,100,0
3,63,0,572
3,63,100,0
3,63,0,572
3,66,100,0
3,66,0,572
3,58,100,0
3,58,0,188
3,63,100,0
3,63,0,380
3,66,100,0
3,66,0,188
3,68,100,0
3,68,0,380
3,70,100,0
3,70,0,188
3,75,100,0
3,75,0,1148
3,73,100,0
3,73,0,572
3,71,100,0
3,63,75,0
3,63,0,188
3,71,0,0
3,70,100,0
3,66,75,0
3,66,0,380
3,70,0,0
3,73,100,0
3,66,75,0
3,66,0,188
3,73,0,0
3,71,100,0
3,63,75,0
3,63,0,380
3,71,0,0
3,70,100,0
3,67,75,0
3,67,0,572
3,70,0,0
3,75,100,0
3,67,75,0
3,67,0,188
3,75,0,0
3,73,100,0
3,63,75,0
3,63,0,380
3,73,0,0
3,70,100,0
3,66,75,0
3,66,0,572
3,70,0,0
3,66,100,0
3,63,75,0
3,63,0,188
3,66,0,0
3,68,100,0
3,63,75,0
3,63,0,380
3,68,0,0
3,66,100,0
3,58,75,0
3,66,0,188
3,63,100,0
3,63,0,572
3,58,0,0
3,75,100,0
3,75,0,1148
3,73,100,0
3,73,0,572
3,71,100,0
3,63,75,0
3,63,0,188
3,71,0,0
3,70,100,0
3,66,75,0
3,66,0,380
3,70,0,0
3,73,100,0
3,66,75,0
3,66,0,188
3,73,0,0
3,71,100,0
3,63,75,0
3,63,0,380
3,71,0,0
3,70,100,0
3,67,75,0
3,67,0,572
3,70,0,0
3,75,100,0
3,67,75,0
3,67,0,188
3,75,0,0
3,73,100,0
3,63,75,0
3,63,0,380
3,73,0,0
3,70,100,0
3,66,75,0
3,66,0,572
3,70,0,0
3,66,100,0
3,63,75,0
3,63,0,188
3,66,0,0
3,68,100,0
3,63,75,0
3,63,0,380
3,68,0,0
3,66,100,0
3,58,75,0
3,66,0,188
3,63,100,0
3,63,0,956
3,58,0,192
3,75,100,0
3,75,0,1148
3,73,100,0
3,73,0,572
3,71,100,0
3,63,75,0
3,63,0,188
3,71,0,0
3,70,100,0
3,66,75,0
3,66,0,380
3,70,0,0
3,73,100,0
3,66,75,0
3,66,0,188
3,73,0,0
3,71,100,0
3,63,75,0
3,63,0,380
3,71,0,0
3,70,100,0
3,67,75,0
3,67,0,572
3,70,0,0
3,75,100,0
3,67,75,0
3,67,0,188
3,75,0,0
3,73,100,0
3,63,75,0
3,63,0,380
3,73,0,0
3,70,100,0
3,66,75,0
3,66,0,572
3,70,0,0
3,66,100,0
3,63,75,0
3,63,0,188
3,66,0,0
3,68,100,0
3,63,75,0
3,68,100,0
3,68,0,4
3,63,0,0
3,58,75,4
3,68,0,84
3,66,100,0
3,66,0,92
3,63,100,0
3,63,0,956
3,58,0,192
3,71,100,0
3,63,75,0
3,63,0,188
3,71,0,0
3,70,100,0
3,66,75,0
3,66,0,380
3,70,0,0
3,73,100,0
3,66,75,0
3,66,0,188
3,73,0,0
3,71,100,0
3,63,75,0
3,63,0,380
3,71,0,0
3,70,100,0
3,67,75,0
3,67,0,572
3,70,0,0
3,75,100,0
3,67,75,0
3,67,0,188
3,75,0,0
3,73,100,0
3,63,75,0
3,63,0,380
3,73,0,0
3,70,100,0
3,66,75,0
3,66,0,572
3,70,0,0
3,66,100,0
3,63,75,0
3,63,0,188
3,66,0,0
3,68,100,0
3,63,75,0
3,68,100,0
3,68,0,4
3,63,0,0
3,58,75,4
3,68,0,84
3,66,100,0
3,66,0,92
3,63,100,0
3,63,0,956
3,58,0,192
3,71,100,0
3,63,75,0
3,63,0,188
3,71,0,0
3,70,100,0
3,66,75,0
3,66,0,380
3,70,0,0
3,73,100,0
3,66,75,0
3,66,0,188
3,73,0,0
3,71,100,0
3,63,75,0
3,63,0,380
3,71,0,0
3,70,100,0
3,67,75,0
3,67,0,572
3,70,0,0
3,75,100,0
3,67,75,0
3,67,0,188
3,75,0,0
3,73,100,0
3,63,75,0
3,63,0,380
3,73,0,0
3,70,100,0
3,66,75,0
3,66,0,572
3,70,0,0
3,66,100,0
3,63,75,0
3,63,0,188
3,66,0,0
3,68,100,0
3,63,75,0
3,68,100,0
3,68,0,4
3,63,0,0
3,58,75,4
3,68,0,84
3,66,100,0
3,66,0,92
3,63,100,4
3,63,0,956
3,58,0,192
3,71,100,2116
3,63,75,0
3,63,0,188
3,71,0,0
3,70,100,4
3,66,75,0
3,66,0,380
3,70,0,0
3,73,100,4
3,66,75,0
3,66,0,188
3,73,0,0
3,71,100,4
3,63,75,0
3,63,0,380
3,71,0,0
3,70,100,4
3,67,75,0
3,67,0,572
3,70,0,0
3,75,100,4
3,67,75,0
3,67,0,188
3,75,0,0
3,73,100,4
3,63,75,0
3,63,0,380
3,73,0,0
3,70,100,4
3,66,75,0
3,66,0,572
3,70,0,0
3,75,100,4
3,68,75,0
3,68,0,188
3,75,0,0
3,73,100,4
3,68,75,0
3,68,0,380
3,73,0,0
3,63,75,196
3,70,100,0
3,63,0,3452
3,63,100,2116
3,63,0,188
3,66,100,4
3,66,0,380
3,63,100,4
3,63,0,188
3,58,100,4
3,58,0,380
3,70,0,0
3,58,100,4
3,58,0,1340
3,55,100,7492
3,55,0,380
3,63,100,4
3,63,0,1340
3,55,100,4
3,55,0,188
3,55,100,2692
3,55,0,380
3,63,100,4
3,63,0,1340
3,55,100,4
3,55,0,188
3,55,100,2692
3,55,0,380
3,63,100,4
3,63,0,1340
3,55,100,4
3,55,0,188
4,91,60,34560
4,84,60,0
4,84,0,188
4,85,60,4
4,91,45,192
4,84,45,0
4,84,0,188
4,91,0,0
4,85,0,0
4,85,45,4
4,91,30,192
4,84,30,0
4,84,0,188
4,91,0,0
4,85,0,0
4,85,30,4
4,91,15,192
4,84,15,0
4,84,0,188
4,91,0,0
4,85,0,0
4,85,15,4
4,85,0,380
4,91,0,0
4,73,50,19012
4,78,50,0
4,82,50,0
4,85,50,0
4,85,0,380
4,73,0,0
4,78,0,0
4,82,0,0
4,73,50,196
4,78,50,0
4,82,50,0
4,85,50,0
4,85,0,380
4,73,0,0
4,78,0,0
4,82,0,0
4,73,50,196
4,78,50,0
4,82,50,0
4,85,50,0
4,85,0,380
4,73,0,0
4,78,0,0
4,82,0,0
4,73,50,196
4,78,50,0
4,82,50,0
4,85,50,0
4,85,0,188
4,73,0,0
4,78,0,0
4,82,0,0
4,73,50,4
4,78,50,0
4,82,50,0
4,85,50,0
4,85,0,188
4,73,0,0
4,78,0,0
4,82,0,0
4,73,50,196
4,78,50,0
4,82,50,0
4,85,50,0
4,85,0,380
4,73,0,0
4,78,0,0
4,82,0,0
4,73,50,196
4,78,50,0
4,82,50,0
4,85,50,0
4,85,0,188
4,73,0,0
4,78,0,0
4,82,0,0
4,73,50,4
4,78,50,0
4,82,50,0
4,85,50,0
4,85,0,188
4,73,0,0
4,78,0,0
4,82,0,0
4,73,50,196
4,78,50,0
4,82,50,0
4,85,50,0
4,85,0,380
4,73,0,0
4,78,0,0
4,82,0,0
4,73,50,196
4,78,50,0
4,82,50,0
4,85,50,0
4,85,0,380
4,73,0,0
4,78,0,0
4,82,0,0
4,75,50,196
4,70,50,0
4,70,0,572
4,75,0,0
4,77,50,580
4,73,50,0
4,73,0,572
4,77,0,0
4,75,50,5188
4,70,50,0
4,70,0,572
4,75,0,0
4,77,50,580
4,73,50,0
4,73,0,572
4,77,0,0
4,73,50,51268
4,78,50,0
4,85,50,0
4,85,0,380
4,78,0,0
4,73,0,0
4,73,50,196
4,78,50,0
4,82,50,0
4,82,0,380
4,78,0,0
4,73,0,0
4,73,50,196
4,78,50,0
4,85,50,0
4,85,0,380
4,78,0,0
4,73,0,0
4,73,50,196
4,78,50,0
4,82,50,0
4,82,0,380
4,78,0,0
4,73,0,0
4,73,50,196
4,78,50,0
4,85,50,0
4,85,0,380
4,78,0,0
4,73,0,0
4,73,50,196
4,78,50,0
4,82,50,0
4,82,0,380
4,78,0,0
4,73,0,0
4,73,50,196
4,78,50,0
4,85,50,0
4,85,0,380
4,78,0,0
4,73,0,0
4,73,50,196
4,78,50,0
4,82,50,0
4,82,0,380
4,78,0,0
4,73,0,0
4,75,50,196
4,70,50,0
4,70,0,572
4,75,0,0
4,77,50,580
4,73,50,0
4,73,0,572
4,77,0,0
4,75,50,5188
4,70,50,0
4,70,0,572
4,75,0,0
4,77,50,580
4,73,50,0
4,73,0,572
4,77,0,0
