track,note,velocity,time
0,73,1,192
0,73,1,0
0,49,1,0
0,73,1,0
0,49,1,0
0,73,1,0
0,73,1,0
0,73,1,0
0,73,1,0
0,73,0,92
0,73,0,0
0,49,0,0
0,73,0,0
0,49,0,0
0,73,0,0
0,73,0,0
0,73,0,0
0,73,0,0
0,72,100,0
0,68,100,0
0,56,100,0
0,63,100,0
0,72,0,956
0,68,0,0
0,68,100,4
0,68,0,188
0,72,100,4
0,72,0,188
0,75,100,4
0,75,0,188
0,56,0,0
0,63,0,0
0,70,100,4
0,78,100,0
0,54,100,0
0,78,0,188
0,73,100,4
0,70,0,188
0,73,0,0
0,78,100,4
0,70,100,0
0,54,0,188
0,54,100,4
0,78,0,380
0,78,100,4
0,70,0,188
0,78,0,0
0,54,0,0
0,66,100,4
0,78,100,0
0,54,100,0
0,78,0,92
0,73,100,4
0,73,0,92
0,70,100,4
0,66,0,188
0,70,0,0
0,54,0,0
0,73,100,4
0,68,100,0
0,65,100,0
0,49,100,0
0,73,0,380
0,73,100,0
0,68,0,188
0,65,0,0
0,61,100,4
0,61,127,0
0,61,0,188
0,61,0,0
0,68,127,0
0,61,100,0
0,73,0,188
0,61,0,0
0,73,100,0
0,68,0,188
0,73,0,0
0,68,127,0
0,61,100,0
0,61,0,188
0,49,0,0
0,75,100,0
0,72,100,0
0,68,100,0
0,56,100,0
0,68,0,380
0,63,127,0
0,63,0,188
0,63,127,0
0,63,0,380
0,63,127,0
0,63,0,92
0,63,127,0
0,63,0,92
0,75,0,0
0,72,0,0
0,68,0,0
0,63,127,0
0,63,100,0
0,63,0,188
0,68,100,4
0,63,0,188
0,68,0,0
0,56,0,0
0,70,100,4
0,78,100,0
0,54,100,0
0,78,0,188
0,73,100,4
0,73,0,188
0,78,100,4
0,54,0,188
0,70,127,0
0,54,100,0
0,70,0,380
0,78,0,0
0,70,127,0
0,66,100,0
0,70,0,92
0,70,127,0
0,70,0,92
0,70,0,0
0,66,0,0
0,70,127,0
0,70,100,0
0,73,100,0
0,78,100,0
0,70,0,188
0,70,0,0
0,73,0,0
0,78,0,0
0,70,127,0
0,66,100,0
0,70,0,188
0,66,0,0
0,54,0,0
0,70,127,0
0,75,100,0
0,72,100,0
0,68,100,0
0,56,100,0
0,70,127,0
0,70,0,92
0,70,127,0
0,75,0,188
0,72,0,0
0,68,0,0
0,72,100,4
0,68,100,0
0,63,127,0
0,63,100,0
0,63,0,92
0,63,127,0
0,63,0,92
0,63,0,0
0,63,127,0
0,68,100,0
0,63,0,188
0,68,0,0
0,65,127,0
0,63,100,0
0,72,0,188
0,63,0,0
0,56,0,0
0,68,100,4
0,73,100,0
0,49,100,0
0,65,0,380
0,68,0,0
0,65,100,4
0,65,0,188
0,68,100,4
0,73,127,0
0,73,0,188
0,68,0,0
0,73,127,0
0,61,100,0
0,73,0,188
0,61,0,0
0,65,100,4
0,68,100,0
0,65,0,188
0,68,0,0
0,61,100,4
0,61,0,188
0,49,0,0
0,75,100,4
0,72,100,0
0,68,100,0
0,56,100,0
0,73,0,188
0,65,127,0
0,65,0,92
0,65,127,0
0,75,0,92
0,72,0,0
0,68,0,0
0,75,100,4
0,80,100,4
0,75,100,0
0,72,100,0
0,65,0,140
0,66,127,0
0,66,0,92
0,68,127,0
0,80,100,4
0,75,100,0
0,72,100,0
0,70,100,4
0,54,100,0
0,58,100,0
0,66,100,0
0,61,100,0
0,73,100,72
0,68,0,188
0,73,0,0
0,78,100,4
0,54,100,4
0,70,0,188
0,70,127,0
0,70,100,0
0,73,100,0
0,70,0,188
0,70,0,0
0,73,0,0
0,70,127,0
0,66,100,0
0,70,0,92
0,70,127,0
0,70,0,92
0,78,0,0
0,66,0,0
0,70,127,0
0,70,100,0
0,73,100,0
0,78,100,0
0,70,0,188
0,73,0,0
0,66,100,4
0,70,0,92
0,69,127,0
0,69,0,92
0,78,0,0
0,66,0,0
0,58,0,0
0,69,127,0
0,73,100,0
0,69,100,0
0,78,100,0
0,57,100,0
0,69,0,188
0,69,127,0
0,73,0,188
0,69,0,0
0,78,0,0
0,66,100,4
0,69,0,188
0,66,0,0
0,68,127,0
0,73,100,0
0,68,0,188
0,73,0,0
0,54,0,0
0,66,127,0
0,78,100,0
0,66,0,188
0,78,0,0
0,71,127,0
0,61,100,0
0,71,0,92
0,69,127,0
0,61,0,92
0,73,100,4
0,69,100,0
0,69,0,92
0,70,127,0
0,73,0,92
0,69,0,0
0,66,100,4
0,66,0,188
0,57,0,0
0,61,0,0
0,66,0,0
0,75,100,0
0,72,100,0
0,68,100,0
0,56,100,0
0,68,100,0
0,63,100,0
0,56,100,0
0,60,100,0
0,70,0,92
0,63,127,0
0,63,0,188
0,75,0,0
0,72,0,0
0,68,0,0
0,68,0,0
0,63,0,0
0,56,0,0
0,60,0,0
0,63,127,0
0,70,100,0
0,68,100,0
0,68,100,0
0,63,100,0
0,56,100,0
0,60,100,0
0,63,0,92
0,65,127,0
0,65,0,92
0,70,0,0
0,68,0,0
0,56,0,0
0,68,127,0
0,72,100,0
0,56,100,0
0,68,0,92
0,68,127,0
0,72,0,92
0,56,0,0
0,68,0,0
0,63,0,0
0,56,0,0
0,60,0,0
0,70,100,4
0,73,100,0
0,66,100,0
0,54,100,0
0,68,100,0
0,66,100,0
0,54,100,0
0,61,100,0
0,68,0,92
0,68,127,0
0,68,0,92
0,68,127,0
0,68,0,92
0,70,0,0
0,73,0,0
0,66,0,0
0,68,127,0
0,66,100,0
0,66,0,92
0,68,0,0
0,66,0,0
0,54,0,0
0,61,0,0
0,68,100,4
0,66,100,0
0,68,100,0
0,61,100,0
0,54,100,0
0,68,0,92
0,77,127,0
0,77,0,92
0,68,0,0
0,54,0,0
0,75,127,0
0,70,100,0
0,54,100,0
0,75,0,188
0,70,0,0
0,54,0,0
0,66,0,0
0,68,0,0
0,61,0,0
0,54,0,0
0,68,127,0
0,73,100,0
0,65,100,0
0,68,100,0
0,49,100,0
0,68,100,0
0,65,100,0
0,61,100,0
0,49,100,0
0,73,0,380
0,65,0,0
0,68,0,0
0,68,100,4
0,65,100,0
0,61,100,0
0,68,0,380
0,68,0,0
0,65,0,0
0,61,0,0
0,49,0,0
0,68,0,0
0,65,0,0
0,61,0,0
0,49,0,0
0,65,100,4
0,61,100,0
0,49,100,0
0,49,0,92
0,51,100,4
0,51,0,92
0,54,100,4
0,54,0,92
0,54,100,4
0,54,0,188
0,49,100,4
0,49,0,92
0,51,100,4
0,51,0,92
0,54,100,4
0,65,0,92
0,61,0,0
0,54,0,0
0,80,100,4
0,75,100,0
0,72,100,0
0,44,100,0
0,68,100,0
0,63,100,0
0,60,100,0
0,56,100,0
0,63,127,0
0,63,0,92
0,80,0,0
0,75,0,0
0,72,0,0
0,68,0,0
0,63,0,0
0,60,0,0
0,56,0,0
0,63,127,0
0,75,100,0
0,72,100,0
0,68,100,0
0,68,100,0
0,63,100,0
0,60,100,0
0,56,100,0
0,63,0,92
0,65,127,0
0,65,0,92
0,44,0,0
0,68,127,0
0,44,100,0
0,68,0,92
0,68,127,0
0,75,0,92
0,72,0,0
0,68,0,0
0,44,0,0
0,68,0,0
0,63,0,0
0,60,0,0
0,56,0,0
0,73,100,4
0,70,100,0
0,66,100,0
0,68,100,0
0,42,100,0
0,68,100,0
0,66,100,0
0,61,100,0
0,56,100,0
0,68,0,92
0,68,127,0
0,68,0,92
0,68,127,0
0,68,0,92
0,68,127,0
0,73,0,92
0,70,0,0
0,66,0,0
0,68,0,0
0,68,0,0
0,66,0,0
0,61,0,0
0,56,0,0
0,73,100,4
0,68,100,0
0,66,100,0
0,68,100,0
0,66,100,0
0,61,100,0
0,56,100,0
0,68,0,188
0,42,0,0
0,77,127,0
0,54,100,0
0,77,0,188
0,73,0,0
0,68,0,0
0,66,0,0
0,54,0,0
0,68,0,0
0,66,0,0
0,61,0,0
0,56,0,0
0,75,127,0
0,73,100,0
0,68,100,0
0,65,100,0
0,49,100,0
0,68,100,0
0,65,100,0
0,61,100,0
0,49,100,0
0,75,0,188
0,68,127,0
0,73,0,188
0,68,0,0
0,65,0,0
0,65,100,4
0,68,100,0
0,68,0,380
0,65,0,0
0,68,0,0
0,49,0,0
0,68,0,0
0,65,0,0
0,61,0,0
0,49,0,0
0,65,100,4
0,61,100,0
0,49,100,0
0,49,0,92
0,51,100,4
0,51,0,92
0,54,100,4
0,54,0,92
0,54,100,4
0,54,0,188
0,49,100,4
0,49,0,92
0,51,100,4
0,51,0,92
0,54,100,4
0,65,0,92
0,61,0,0
0,54,0,0
0,80,100,4
0,75,100,0
0,72,100,0
0,44,100,0
0,68,100,0
0,63,100,0
0,60,100,0
0,56,100,0
0,63,127,0
0,63,0,92
0,80,0,0
0,75,0,0
0,72,0,0
0,68,0,0
0,63,0,0
0,60,0,0
0,56,0,0
0,63,127,0
0,75,100,0
0,72,100,0
0,68,100,0
0,68,100,0
0,63,100,0
0,60,100,0
0,56,100,0
0,63,0,92
0,65,127,0
0,65,0,92
0,44,0,0
0,68,127,0
0,44,100,0
0,68,0,92
0,68,127,0
0,75,0,92
0,72,0,0
0,68,0,0
0,44,0,0
0,68,0,0
0,63,0,0
0,60,0,0
0,56,0,0
0,73,100,4
0,70,100,0
0,66,100,0
0,68,100,0
0,42,100,0
0,68,100,0
0,66,100,0
0,61,100,0
0,56,100,0
0,73,100,4
0,70,100,0
0,66,100,0
0,66,100,0
0,58,100,0
0,61,100,0
0,68,100,4
0,68,0,92
0,42,0,0
0,68,0,0
0,54,100,4
0,70,100,0
0,73,0,188
0,70,0,0
0,66,0,0
0,54,0,0
0,70,0,0
0,58,0,0
0,61,0,0
0,63,127,0
0,63,100,0
0,66,100,0
0,70,100,0
0,51,100,0
0,66,100,0
0,70,100,0
0,51,100,0
0,61,100,0
0,63,0,92
0,65,127,0
0,65,0,92
0,68,127,0
0,68,0,188
0,63,127,0
0,63,0,92
0,65,127,0
0,65,0,92
0,68,127,0
0,63,0,380
0,66,0,0
0,70,0,0
0,51,0,0
0,66,0,0
0,70,0,0
0,51,0,0
0,61,0,0
0,51,100,4
0,68,0,188
0,51,0,0
0,63,127,0
0,56,100,0
0,49,100,0
0,63,0,92
0,65,127,0
0,65,0,92
0,56,0,0
0,68,127,0
0,56,100,0
0,68,0,188
0,49,0,0
0,56,0,0
0,44,100,4
0,71,100,0
0,68,100,0
0,63,100,0
0,44,100,0
0,51,100,0
0,71,100,0
0,68,127,0
0,68,0,92
0,68,127,0
0,80,100,0
0,75,100,0
0,71,100,0
0,51,100,0
0,56,100,192
0,68,0,92
0,70,127,0
0,70,0,92
0,80,0,0
0,75,0,0
0,71,0,0
0,44,0,0
0,51,0,0
0,71,127,0
0,75,100,0
0,71,100,0
0,68,100,0
0,44,100,0
0,71,0,188
0,56,0,0
0,51,0,0
0,71,127,0
0,56,100,0
0,56,100,0
0,71,127,0
0,68,100,0
0,71,100,0
0,75,100,0
0,80,100,0
0,58,100,0
0,44,100,4
0,56,100,0
0,59,100,0
0,71,0,188
0,68,0,0
0,71,0,0
0,75,0,0
0,80,0,0
0,44,0,0
0,56,0,0
0,71,0,0
0,68,0,0
0,63,0,0
0,44,0,0
0,59,0,0
0,71,0,0
0,70,127,0
0,78,100,0
0,73,100,0
0,70,100,0
0,54,100,0
0,42,100,0
0,70,100,0
0,66,100,0
0,61,100,0
0,58,100,0
0,42,100,0
0,70,100,0
0,70,0,284
0,71,127,0
0,71,0,92
0,78,0,0
0,73,0,0
0,70,0,0
0,70,127,0
0,73,100,0
0,70,100,0
0,66,100,0
0,54,0,188
0,42,0,0
0,54,100,4
0,70,0,92
0,71,127,0
0,71,0,92
0,73,0,0
0,70,0,0
0,66,0,0
0,54,0,0
0,70,0,0
0,66,0,0
0,61,0,0
0,58,0,0
0,42,0,0
0,70,127,0
0,66,100,0
0,70,100,0
0,73,100,0
0,49,100,0
0,70,100,0
0,68,100,0
0,80,100,0
0,70,0,284
0,71,127,0
0,71,0,92
0,66,0,0
0,70,0,0
0,73,0,0
0,70,0,0
0,68,0,0
0,80,0,0
0,70,127,4
0,70,100,0
0,66,100,0
0,73,100,0
0,78,100,0
0,70,100,0
0,66,100,0
0,54,100,4
0,70,0,188
0,70,0,0
0,66,0,0
0,73,0,0
0,54,0,0
0,78,0,0
0,70,0,0
0,66,0,0
0,70,0,0
0,71,100,4
0,68,100,0
0,64,100,0
0,47,100,0
0,40,100,0
0,76,100,0
0,68,100,0
0,59,100,0
0,52,100,0
0,40,100,0
0,68,100,0
0,71,127,0
0,71,0,92
0,71,0,0
0,68,0,0
0,64,0,0
0,68,127,0
0,71,100,0
0,68,100,0
0,64,100,0
0,68,0,284
0,70,127,0
0,70,0,92
0,71,0,0
0,68,0,0
0,64,0,0
0,47,0,0
0,40,0,0
0,68,127,0
0,71,100,0
0,68,100,0
0,64,100,0
0,47,100,0
0,40,100,0
0,52,100,0
0,68,0,284
0,70,127,0
0,70,0,92
0,71,0,0
0,68,0,0
0,64,0,0
0,76,0,0
0,68,0,0
0,59,0,0
0,52,0,0
0,40,0,0
0,52,0,0
0,68,0,0
0,68,127,0
0,71,100,0
0,68,100,0
0,64,100,0
0,71,100,0
0,64,100,0
0,47,100,0
0,47,0,188
0,40,0,0
0,71,0,0
0,64,0,0
0,47,0,0
0,52,100,4
0,66,100,0
0,76,100,0
0,52,100,0
0,68,0,92
0,67,127,0
0,67,0,92
0,71,0,0
0,68,0,0
0,64,0,0
0,52,0,0
0,66,0,0
0,76,0,0
0,52,0,0
0,63,127,0
0,70,100,0
0,67,100,0
0,63,100,0
0,46,100,0
0,39,100,0
0,75,100,0
0,67,100,0
0,58,100,0
0,51,100,0
0,63,0,380
0,70,0,0
0,67,0,0
0,63,0,0
0,75,127,0
0,70,100,0
0,67,100,0
0,63,100,0
0,75,0,188
0,46,0,0
0,39,0,0
0,75,127,0
0,51,100,0
0,70,0,188
0,67,0,0
0,63,0,0
0,51,0,0
0,75,100,4
0,51,100,0
0,75,0,92
0,78,100,4
0,78,0,92
0,80,100,4
0,80,0,92
0,80,100,4
0,75,0,92
0,58,0,0
0,63,100,4
0,80,0,92
0,79,100,4
0,79,0,92
0,51,0,0
0,63,0,0
0,80,100,4
0,51,100,0
0,75,100,0
0,80,0,92
0,82,100,4
0,82,0,92
0,51,0,0
0,75,0,0
0,67,0,0
0,51,0,0
0,78,100,4
0,75,100,0
0,71,100,0
0,54,100,0
0,47,100,0
0,83,100,0
0,87,100,0
0,59,100,0
0,75,0,188
0,75,127,0
0,66,100,0
0,75,0,188
0,78,0,0
0,75,0,0
0,71,0,0
0,75,127,0
0,78,100,0
0,75,100,0
0,71,100,0
0,54,0,188
0,47,0,0
0,66,0,0
0,59,100,4
0,66,100,0
0,75,0,92
0,76,127,0
0,76,0,92
0,78,0,0
0,75,0,0
0,71,0,0
0,59,0,0
0,59,0,0
0,78,127,0
0,78,100,0
0,75,100,0
0,71,100,0
0,47,100,0
0,59,100,0
0,59,100,0
0,78,0,188
0,78,127,0
0,78,0,188
0,78,0,0
0,75,0,0
0,71,0,0
0,80,127,0
0,78,100,0
0,75,100,0
0,71,100,0
0,47,0,188
0,59,0,0
0,59,100,4
0,47,100,0
0,80,0,188
0,78,0,0
0,75,0,0
0,71,0,0
0,59,0,0
0,47,0,0
0,83,0,0
0,87,0,0
0,66,0,0
0,59,0,0
0,73,127,4
0,76,100,0
0,73,100,0
0,69,100,0
0,45,100,0
0,57,100,0
0,81,100,0
0,85,100,0
0,57,100,0
0,64,100,0
0,73,0,188
0,76,0,192
0,73,0,0
0,69,0,0
0,73,100,4
0,69,100,0
0,64,100,0
0,45,0,188
0,57,0,0
0,73,127,0
0,57,100,0
0,73,0,92
0,75,127,0
0,75,0,92
0,73,0,0
0,69,0,0
0,64,0,0
0,57,0,0
0,76,127,0
0,69,100,0
0,64,100,0
0,61,100,0
0,45,100,0
0,76,0,284
0,76,127,0
0,76,0,92
