track,note,velocity,time
0,36,95,139
0,42,75,0
0,48,56,0
0,64,106,0
0,64,106,0
0,67,57,0
0,72,68,0
0,76,59,0
0,36,0,4
0,42,0,0
0,76,0,2
0,67,0,1
0,72,0,0
0,64,0,15
0,64,0,0
0,42,55,26
0,64,67,0
0,64,67,0
0,42,0,4
0,64,0,18
0,64,0,0
0,42,41,26
0,64,98,0
0,64,98,0
0,67,61,0
0,72,66,0
0,76,59,0
0,42,0,4
0,67,0,8
0,72,0,0
0,76,0,2
0,64,0,13
0,64,0,0
0,42,62,21
0,60,55,0
0,64,69,0
0,67,63,0
0,72,66,0
0,76,60,0
0,42,0,4
0,67,0,5
0,72,0,2
0,76,0,0
0,64,0,18
0,60,0,4
0,38,95,15
0,42,69,0
0,64,107,0
0,64,107,0
0,67,70,0
0,72,71,0
0,76,61,0
0,38,0,4
0,42,0,0
0,76,0,6
0,67,0,1
0,72,0,0
0,64,0,10
0,64,0,0
0,42,59,27
0,64,70,0
0,64,70,0
0,42,0,4
0,64,0,18
0,64,0,0
0,42,62,26
0,64,104,0
0,64,104,0
0,67,57,0
0,72,63,0
0,76,59,0
0,42,0,4
0,72,0,6
0,67,0,1
0,76,0,0
0,64,0,19
0,64,0,0
0,42,59,18
0,60,55,0
0,64,74,0
0,67,56,0
0,72,61,0
0,76,55,0
0,42,0,4
0,72,0,4
0,67,0,2
0,76,0,1
0,60,0,13
0,64,0,0
0,36,95,24
0,42,83,0
0,64,107,0
0,64,107,0
0,67,63,0
0,72,70,0
0,76,60,0
0,36,0,4
0,42,0,0
0,67,0,8
0,72,0,0
0,76,0,0
0,64,0,9
0,64,0,0
0,42,48,27
0,64,100,0
0,64,100,0
0,42,0,4
0,64,0,17
0,64,0,0
0,42,65,27
0,64,104,0
0,64,104,0
0,67,52,0
0,72,60,0
0,76,56,0
0,42,0,4
0,67,0,7
0,72,0,0
0,76,0,1
0,64,0,13
0,64,0,0
0,42,65,23
0,60,52,0
0,64,62,0
0,67,52,0
0,72,62,0
0,76,54,0
0,42,0,4
0,67,0,5
0,72,0,1
0,76,0,0
0,60,0,15
0,64,0,1
0,38,94,22
0,42,75,0
0,64,107,0
0,64,107,0
0,67,68,0
0,72,73,0
0,76,63,0
0,38,0,4
0,42,0,0
0,72,0,6
0,67,0,1
0,76,0,0
0,64,0,7
0,64,0,0
0,42,59,30
0,64,89,0
0,64,89,0
0,42,0,4
0,64,0,16
0,64,0,0
0,42,62,28
0,64,110,0
0,64,110,0
0,67,59,0
0,72,70,0
0,76,59,0
0,42,0,4
0,67,0,5
0,72,0,0
0,76,0,1
0,64,0,18
0,64,0,0
0,42,57,20
0,60,52,0
0,64,65,0
0,67,66,0
0,72,71,0
0,76,63,0
0,42,0,4
0,67,0,5
0,72,0,1
0,76,0,0
0,64,0,12
0,60,0,2
0,36,94,24
0,42,75,0
0,64,107,0
0,64,107,0
0,67,57,0
0,72,68,0
0,77,59,0
0,36,0,4
0,42,0,0
0,77,0,2
0,67,0,1
0,72,0,0
0,64,0,11
0,64,0,0
0,42,62,30
0,64,76,0
0,64,76,0
0,42,0,4
0,64,0,17
0,64,0,0
0,42,65,27
0,60,45,0
0,64,110,0
0,64,78,0
0,64,110,0
0,67,61,0
0,72,66,0
0,76,59,0
0,42,0,4
0,67,0,8
0,72,0,0
0,76,0,2
0,64,0,10
0,64,0,0
0,64,0,1
0,60,0,2
0,42,57,21
0,60,51,0
0,64,74,0
0,67,63,0
0,72,66,0
0,76,60,0
0,42,0,4
0,67,0,5
0,72,0,2
0,76,0,0
0,64,0,15
0,60,0,7
0,38,94,15
0,42,69,0
0,64,106,0
0,64,106,0
0,67,70,0
0,72,71,0
0,76,61,0
0,38,0,4
0,42,0,0
0,76,0,6
0,67,0,1
0,72,0,0
0,64,0,7
0,64,0,0
0,42,62,30
0,60,56,0
0,64,92,0
0,64,78,0
0,64,92,0
0,42,0,4
0,64,0,14
0,64,0,4
0,64,0,0
0,60,0,2
0,42,62,24
0,60,51,0
0,64,79,0
0,64,81,0
0,64,79,0
0,67,57,0
0,72,63,0
0,76,59,0
0,42,0,4
0,72,0,6
0,67,0,1
0,76,0,0
0,64,0,11
0,60,0,5
0,64,0,0
0,64,0,0
0,36,93,21
0,42,94,0
0,60,54,0
0,64,75,0
0,67,56,0
0,72,61,0
0,76,55,0
0,36,0,4
0,42,0,0
0,72,0,4
0,67,0,2
0,76,0,1
0,64,0,19
0,60,0,2
0,36,93,16
0,42,69,0
0,60,54,0
0,64,106,0
0,64,75,0
0,64,106,0
0,67,63,0
0,72,70,0
0,76,60,0
0,36,0,4
0,42,0,0
0,67,0,8
0,72,0,0
0,76,0,0
0,64,0,6
0,64,0,0
0,64,0,12
0,60,0,2
0,42,94,16
0,42,0,4
0,42,59,44
0,60,45,0
0,64,106,0
0,64,78,0
0,64,106,0
0,67,52,0
0,72,60,0
0,76,56,0
0,42,0,4
0,67,0,7
0,72,0,0
0,76,0,1
0,64,0,10
0,64,0,0
0,64,0,3
0,60,0,2
0,42,94,21
0,60,51,0
0,64,74,0
0,67,52,0
0,72,62,0
0,76,54,0
0,42,0,4
0,67,0,5
0,72,0,1
0,76,0,0
0,64,0,16
0,60,0,7
0,38,93,15
0,42,65,0
0,64,104,0
0,64,104,0
0,67,68,0
0,72,73,0
0,76,63,0
0,38,0,4
0,42,0,0
0,72,0,6
0,67,0,1
0,76,0,0
0,64,0,22
0,64,0,0
0,42,94,15
0,60,56,0
0,64,78,0
0,67,68,0
0,72,73,0
0,76,63,0
0,42,0,4
0,72,0,6
0,67,0,1
0,76,0,0
0,64,0,7
0,60,0,6
0,42,65,24
0,60,51,0
0,64,81,0
0,67,59,0
0,72,70,0
0,76,59,0
0,42,0,4
0,67,0,5
0,72,0,0
0,76,0,1
0,64,0,12
0,60,0,5
0,42,94,21
0,60,54,0
0,64,75,0
0,67,66,0
0,72,71,0
0,76,63,0
0,42,0,4
0,67,0,5
0,72,0,1
0,76,0,0
0,64,0,20
0,60,0,2
0,36,95,16
0,42,75,0
0,62,106,0
0,62,106,0
0,65,57,0
0,70,68,0
0,74,59,0
0,36,0,4
0,42,0,0
0,74,0,2
0,65,0,1
0,70,0,0
0,46,55,5
0,48,0,2
0,62,0,8
0,62,0,0
0,42,55,26
0,62,67,0
0,62,67,0
0,42,0,4
0,62,0,18
0,62,0,0
0,42,41,26
0,62,98,0
0,62,98,0
0,65,61,0
0,70,66,0
0,74,59,0
0,42,0,4
0,65,0,8
0,70,0,0
0,74,0,2
0,62,0,13
0,62,0,0
0,42,62,21
0,58,55,0
0,62,69,0
0,65,63,0
0,70,66,0
0,74,60,0
0,42,0,4
0,65,0,5
0,70,0,2
0,74,0,0
0,62,0,18
0,58,0,4
0,38,95,15
0,42,69,0
0,62,107,0
0,62,107,0
0,65,70,0
0,70,71,0
0,74,61,0
0,38,0,4
0,42,0,0
0,74,0,6
0,65,0,1
0,70,0,0
0,62,0,10
0,62,0,0
0,42,59,27
0,62,70,0
0,62,70,0
0,42,0,4
0,62,0,18
0,62,0,0
0,42,62,26
0,62,104,0
0,62,104,0
0,65,57,0
0,70,63,0
0,74,59,0
0,42,0,4
0,70,0,6
0,65,0,1
0,74,0,0
0,62,0,19
0,62,0,0
0,42,59,18
0,58,55,0
0,62,74,0
0,65,56,0
0,70,61,0
0,74,55,0
0,42,0,4
0,70,0,4
0,65,0,2
0,74,0,1
0,58,0,13
0,62,0,0
0,36,95,24
0,42,83,0
0,62,107,0
0,62,107,0
0,65,63,0
0,70,70,0
0,74,60,0
0,36,0,4
0,42,0,0
0,65,0,8
0,70,0,0
0,74,0,0
0,62,0,9
0,62,0,0
0,42,48,27
0,62,100,0
0,62,100,0
0,42,0,4
0,62,0,17
0,62,0,0
0,42,65,27
0,62,104,0
0,62,104,0
0,65,52,0
0,70,60,0
0,74,56,0
0,42,0,4
0,65,0,7
0,70,0,0
0,74,0,1
0,62,0,13
0,62,0,0
0,42,65,23
0,58,52,0
0,62,62,0
0,65,52,0
0,70,62,0
0,74,54,0
0,42,0,4
0,65,0,5
0,70,0,1
0,74,0,0
0,58,0,15
0,62,0,1
0,38,94,22
0,42,75,0
0,62,107,0
0,62,107,0
0,65,68,0
0,70,73,0
0,74,63,0
0,38,0,4
0,42,0,0
0,70,0,6
0,65,0,1
0,74,0,0
0,62,0,7
0,62,0,0
0,42,59,30
0,62,89,0
0,62,89,0
0,42,0,4
0,62,0,16
0,62,0,0
0,42,62,28
0,62,110,0
0,62,110,0
0,65,59,0
0,70,70,0
0,74,59,0
0,42,0,4
0,65,0,5
0,70,0,0
0,74,0,1
0,62,0,18
0,62,0,0
0,42,57,20
0,58,52,0
0,62,65,0
0,65,66,0
0,70,71,0
0,74,63,0
0,42,0,4
0,65,0,5
0,70,0,1
0,74,0,0
0,62,0,12
0,58,0,2
0,36,94,24
0,42,75,0
0,62,107,0
0,62,107,0
0,65,57,0
0,70,68,0
0,76,59,0
0,36,0,4
0,42,0,0
0,76,0,2
0,65,0,1
0,70,0,0
0,62,0,11
0,62,0,0
0,42,62,30
0,62,76,0
0,62,76,0
0,42,0,4
0,62,0,17
0,62,0,0
0,42,65,27
0,58,45,0
0,62,110,0
0,62,78,0
0,62,110,0
0,65,61,0
0,70,66,0
0,74,59,0
0,42,0,4
0,65,0,8
0,70,0,0
0,74,0,2
0,62,0,10
0,62,0,0
0,62,0,1
0,58,0,2
0,42,57,21
0,58,51,0
0,62,74,0
0,65,63,0
0,70,66,0
0,74,60,0
0,42,0,4
0,65,0,5
0,70,0,2
0,74,0,0
0,62,0,15
0,58,0,7
0,38,94,15
0,42,69,0
0,62,106,0
0,62,106,0
0,65,70,0
0,70,71,0
0,74,61,0
0,38,0,4
0,42,0,0
0,74,0,6
0,65,0,1
0,70,0,0
0,62,0,7
0,62,0,0
0,42,62,30
0,58,56,0
0,62,92,0
0,62,78,0
0,62,92,0
0,42,0,4
0,62,0,14
0,62,0,4
0,62,0,0
0,58,0,2
0,42,62,24
0,58,51,0
0,62,79,0
0,62,81,0
0,62,79,0
0,65,57,0
0,70,63,0
0,74,59,0
0,42,0,4
0,70,0,6
0,65,0,1
0,74,0,0
0,62,0,11
0,58,0,5
0,62,0,0
0,62,0,0
0,36,93,21
0,42,94,0
0,58,54,0
0,62,75,0
0,65,56,0
0,70,61,0
0,74,55,0
0,36,0,4
0,42,0,0
0,70,0,4
0,65,0,2
0,74,0,1
0,62,0,19
0,58,0,2
0,36,93,16
0,42,69,0
0,58,54,0
0,62,106,0
0,62,75,0
0,62,106,0
0,65,63,0
0,70,70,0
0,74,60,0
0,36,0,4
0,42,0,0
0,65,0,8
0,70,0,0
0,74,0,0
0,62,0,6
0,62,0,0
0,62,0,12
0,58,0,2
0,42,94,16
0,42,0,4
0,42,59,44
0,58,45,0
0,62,106,0
0,62,78,0
0,62,106,0
0,65,52,0
0,70,60,0
0,74,56,0
0,42,0,4
0,65,0,7
0,70,0,0
0,74,0,1
0,62,0,10
0,62,0,0
0,62,0,3
0,58,0,2
0,42,94,21
0,58,51,0
0,62,74,0
0,65,52,0
0,70,62,0
0,74,54,0
0,42,0,4
0,65,0,5
0,70,0,1
0,74,0,0
0,62,0,16
0,58,0,7
0,38,93,15
0,42,65,0
0,62,104,0
0,62,104,0
0,65,68,0
0,70,73,0
0,74,63,0
0,38,0,4
0,42,0,0
0,70,0,6
0,65,0,1
0,74,0,0
0,62,0,22
0,62,0,0
0,42,94,15
0,58,56,0
0,62,78,0
0,65,68,0
0,70,73,0
0,74,63,0
0,42,0,4
0,70,0,6
0,65,0,1
0,74,0,0
0,62,0,7
0,58,0,6
0,42,65,24
0,58,51,0
0,62,81,0
0,65,59,0
0,70,70,0
0,74,59,0
0,42,0,4
0,65,0,5
0,70,0,0
0,74,0,1
0,62,0,12
0,58,0,5
0,42,94,21
0,58,54,0
0,62,75,0
0,65,66,0
0,70,71,0
0,74,63,0
0,42,0,4
0,65,0,5
0,70,0,1
0,74,0,0
0,62,0,20
0,58,0,2
0,36,95,16
0,42,75,0
0,60,106,0
0,60,106,0
0,64,57,0
0,69,68,0
0,72,59,0
0,36,0,4
0,42,0,0
0,72,0,2
0,64,0,1
0,69,0,0
0,45,61,2
0,46,0,0
0,60,0,13
0,60,0,0
0,42,55,26
0,60,67,0
0,60,67,0
0,42,0,4
0,60,0,18
0,60,0,0
0,42,41,26
0,60,98,0
0,60,98,0
0,64,61,0
0,69,66,0
0,72,59,0
0,42,0,4
0,64,0,8
0,69,0,0
0,72,0,2
0,60,0,13
0,60,0,0
0,42,62,21
0,57,55,0
0,60,69,0
0,64,63,0
0,69,66,0
0,72,60,0
0,42,0,4
0,64,0,5
0,69,0,2
0,72,0,0
0,60,0,18
0,57,0,4
0,38,95,15
0,42,69,0
0,60,107,0
0,60,107,0
0,64,70,0
0,69,71,0
0,72,61,0
0,38,0,4
0,42,0,0
0,72,0,6
0,64,0,1
0,69,0,0
0,60,0,10
0,60,0,0
0,42,59,27
0,60,70,0
0,60,70,0
0,42,0,4
0,60,0,18
0,60,0,0
0,42,62,26
0,60,104,0
0,60,104,0
0,64,57,0
0,69,63,0
0,72,59,0
0,42,0,4
0,69,0,6
0,64,0,1
0,72,0,0
0,60,0,19
0,60,0,0
0,42,59,18
0,57,55,0
0,60,74,0
0,64,56,0
0,69,61,0
0,72,55,0
0,42,0,4
0,69,0,4
0,64,0,2
0,72,0,1
0,57,0,13
0,60,0,0
0,36,95,24
0,42,83,0
0,60,107,0
0,60,107,0
0,64,63,0
0,69,70,0
0,72,60,0
0,36,0,4
0,42,0,0
0,64,0,8
0,69,0,0
0,72,0,0
0,60,0,9
0,60,0,0
0,42,48,27
0,60,100,0
0,60,100,0
0,42,0,4
0,60,0,17
0,60,0,0
0,42,65,27
0,60,104,0
0,60,104,0
0,64,52,0
0,69,60,0
0,72,56,0
0,42,0,4
0,64,0,7
0,69,0,0
0,72,0,1
0,60,0,13
0,60,0,0
0,42,65,23
0,57,52,0
0,60,62,0
0,64,52,0
0,69,62,0
0,72,54,0
0,42,0,4
0,64,0,5
0,69,0,1
0,72,0,0
0,57,0,15
0,60,0,1
0,38,94,22
0,42,75,0
0,60,107,0
0,60,107,0
0,64,68,0
0,69,73,0
0,72,63,0
0,38,0,4
0,42,0,0
0,69,0,6
0,64,0,1
0,72,0,0
0,60,0,7
0,60,0,0
0,42,59,30
0,60,89,0
0,60,89,0
0,42,0,4
0,60,0,16
0,60,0,0
0,42,62,28
0,60,110,0
0,60,110,0
0,64,59,0
0,69,70,0
0,72,59,0
0,42,0,4
0,64,0,5
0,69,0,0
0,72,0,1
0,60,0,18
0,60,0,0
0,42,57,20
0,57,52,0
0,60,65,0
0,64,66,0
0,69,71,0
0,72,63,0
0,42,0,4
0,64,0,5
0,69,0,1
0,72,0,0
0,60,0,12
0,57,0,2
0,36,94,24
0,42,75,0
0,60,107,0
0,60,107,0
0,64,57,0
0,69,68,0
0,74,59,0
0,36,0,4
0,42,0,0
0,74,0,2
0,64,0,1
0,69,0,0
0,60,0,11
0,60,0,0
0,42,62,30
0,60,76,0
0,60,76,0
0,42,0,4
0,60,0,17
0,60,0,0
0,42,65,27
0,57,45,0
0,60,110,0
0,60,78,0
0,60,110,0
0,64,61,0
0,69,66,0
0,72,59,0
0,42,0,4
0,64,0,8
0,69,0,0
0,72,0,2
0,60,0,10
0,60,0,0
0,60,0,1
0,57,0,2
0,42,57,21
0,57,51,0
0,60,74,0
0,64,63,0
0,69,66,0
0,72,60,0
0,42,0,4
0,64,0,5
0,69,0,2
0,72,0,0
0,60,0,15
0,57,0,7
0,38,94,15
0,42,69,0
0,60,106,0
0,60,106,0
0,64,70,0
0,69,71,0
0,72,61,0
0,38,0,4
0,42,0,0
0,72,0,6
0,64,0,1
0,69,0,0
0,60,0,7
0,60,0,0
0,42,62,30
0,57,56,0
0,60,92,0
0,60,78,0
0,60,92,0
