track,note,velocity,time
1,53,105,2
1,53,0,409
1,42,127,65
1,42,0,90
1,41,88,1
1,41,0,21
1,39,112,8
1,39,0,73
1,39,84,17
1,39,0,27
1,32,119,1
1,32,0,150
1,39,106,2
1,39,0,16
1,44,115,2
1,44,0,4
1,37,118,1
1,37,0,58
1,37,99,32
1,37,0,25
1,42,122,5
1,42,0,150
1,37,94,0
1,37,0,27
1,42,114,3
1,42,0,30
1,37,95,0
1,37,0,28
1,30,120,2
1,30,0,68
1,30,99,22
1,30,0,27
1,32,116,3
1,32,0,73
1,32,96,17
1,32,0,30
1,37,122,0
1,37,0,62
1,37,93,28
1,37,0,25
1,42,120,5
1,42,0,200
1,37,101,2
1,37,0,11
1,42,127,3
1,42,0,90
1,41,100,1
1,41,0,21
1,39,112,8
1,39,0,73
1,39,109,17
1,39,0,27
1,32,119,1
1,32,0,150
1,39,106,0
1,39,0,14
1,44,115,4
1,44,0,26
1,36,91,6
1,36,0,23
1,37,118,5
1,37,0,58
1,37,114,32
1,37,0,25
1,42,122,5
1,42,0,150
1,37,106,0
1,37,0,27
1,42,114,3
1,42,0,30
1,37,106,0
1,37,0,28
1,30,120,2
1,30,0,68
1,30,105,22
1,30,0,27
1,32,116,3
1,32,0,73
1,32,97,17
1,32,0,30
1,37,122,0
1,37,0,62
1,37,106,28
1,37,0,25
1,42,120,5
1,42,0,150
1,42,104,2
1,42,0,41
1,45,126,7
1,45,0,3
1,40,112,2
1,40,0,7
1,33,126,2
1,33,0,113
1,45,116,5
1,45,0,28
1,43,115,2
1,43,0,20
1,42,88,10
1,42,0,17
1,41,106,13
1,41,0,177
1,48,121,5
1,48,0,22
1,41,109,8
1,41,0,23
1,40,103,5
1,40,0,161
1,40,113,19
1,40,0,56
1,37,113,4
1,37,0,131
1,37,116,21
1,37,0,78
1,33,124,12
1,33,0,148
1,40,100,2
1,40,0,25
1,45,119,5
1,45,0,29
1,41,106,1
1,41,0,171
1,48,119,9
1,48,0,27
1,41,94,3
1,41,0,30
1,40,122,0
1,40,0,167
1,40,122,15
1,40,0,51
1,37,118,9
1,37,0,161
1,37,123,19
1,37,0,5
1,33,124,2
1,33,0,1
1,40,100,2
1,40,0,15
1,45,119,5
1,45,0,28
1,43,94,0
1,43,0,6
1,41,106,2
1,41,0,171
1,41,101,11
1,41,0,51
1,40,122,7
1,40,0,167
1,40,122,15
1,40,0,2
1,37,118,0
1,37,0,135
1,37,123,15
1,37,0,22
1,44,115,8
1,44,0,26
1,37,118,4
1,37,0,23
1,44,114,7
1,44,0,138
1,39,105,5
1,39,0,28
1,32,112,4
1,32,0,55
1,39,115,3
1,39,0,72
1,39,96,20
1,39,0,26
1,42,115,2
1,42,0,66
1,42,91,24
1,42,0,30
1,41,113,0
1,41,0,1
1,48,101,2
1,48,0,42
1,53,100,2
1,53,0,27
1,48,91,3
1,48,0,23
1,41,97,5
1,41,0,18
1,39,113,12
1,39,0,75
1,39,100,15
1,39,0,26
1,42,126,4
1,42,0,70
1,42,98,20
1,42,0,25
1,41,123,37
1,48,99,28
1,41,0,2
1,48,0,5
1,53,99,4
1,53,0,57
1,41,98,3
1,41,0,22
1,48,100,8
1,48,0,28
1,41,108,2
1,41,0,12
1,39,119,18
1,39,0,67
1,39,105,21
1,39,0,26
1,42,126,4
1,42,0,70
1,42,98,20
1,42,0,26
1,41,124,4
1,41,0,91
1,53,100,1
1,53,0,83
1,41,124,0
1,41,0,90
1,53,111,1
1,53,0,58
1,41,126,2
1,41,0,57
1,53,106,2
1,53,0,27
1,41,127,3
1,41,0,50
1,42,127,10
1,42,0,90
1,41,110,1
1,41,0,21
1,39,112,8
1,39,0,73
1,39,100,17
1,39,0,27
1,32,119,1
1,32,0,150
1,39,106,0
1,39,0,26
1,44,115,4
1,44,0,55
1,37,118,5
1,37,0,58
1,37,114,32
1,37,0,25
1,42,122,5
1,42,0,150
1,37,106,0
1,37,0,27
1,42,114,3
1,42,0,30
1,37,106,0
1,37,0,28
1,30,120,2
1,30,0,68
1,30,120,22
1,30,0,27
1,32,116,3
1,32,0,73
1,32,106,17
1,32,0,30
1,37,122,0
1,37,0,62
1,37,106,28
1,37,0,25
1,42,120,5
1,42,0,200
1,37,104,12
1,37,0,27
1,42,127,3
1,42,0,90
1,41,109,1
1,41,0,21
1,39,112,8
1,39,0,73
1,39,109,17
1,39,0,27
1,32,119,1
1,32,0,150
1,39,106,0
1,39,0,26
1,44,115,4
1,44,0,26
1,36,106,6
1,36,0,23
1,37,118,5
1,37,0,58
1,37,114,32
1,37,0,25
1,42,122,5
1,42,0,150
1,37,106,0
1,37,0,27
1,42,114,3
1,42,0,30
1,37,106,0
1,37,0,28
1,30,120,2
1,30,0,68
1,30,120,22
1,30,0,27
1,32,116,3
1,32,0,73
1,32,106,17
1,32,0,30
1,37,122,0
1,37,0,62
1,37,106,28
1,37,0,25
1,42,120,5
1,42,0,133
1,42,104,19
1,42,0,53
1,44,104,7
1,44,0,27
1,46,127,3
1,46,0,8
1,46,127,9
1,46,0,21
1,46,98,38
1,46,0,28
1,44,125,0
1,44,0,35
1,44,109,25
1,44,0,90
1,51,115,0
1,51,0,43
1,44,95,4
1,44,0,16
1,42,127,16
1,42,0,35
1,42,127,23
1,42,0,81
1,42,125,11
1,42,0,23
1,41,98,35
1,41,0,12
1,39,126,18
1,39,0,71
1,39,125,19
1,39,0,13
1,37,127,17
1,37,0,30
1,44,118,0
1,44,0,25
1,49,116,5
1,49,0,52
1,46,127,10
1,46,0,4
1,53,119,2
1,53,0,25
1,46,112,6
1,46,0,28
1,44,115,2
1,44,0,90
1,53,120,2
1,53,0,40
1,51,92,3
1,51,0,30
1,46,117,0
1,46,0,21
1,42,126,0
1,42,0,165
1,42,127,17
1,42,0,29
1,39,127,3
1,39,0,73
1,39,122,17
1,39,0,26
1,37,126,4
1,37,0,8
1,34,127,2
1,34,0,158
1,34,125,2
1,34,0,46
1,46,126,2
1,46,0,6
1,46,112,7
1,46,0,53
1,54,102,0
1,54,0,7
1,46,102,0
1,46,0,95
1,42,127,5
1,42,0,90
1,41,109,1
1,41,0,21
1,39,112,8
1,39,0,73
1,39,109,17
1,39,0,27
1,32,119,1
1,32,0,150
1,39,106,0
1,39,0,26
1,44,115,4
1,44,0,55
1,37,118,5
1,37,0,58
1,37,114,32
1,37,0,25
1,42,122,5
1,42,0,150
1,37,106,0
1,37,0,27
1,42,114,3
1,42,0,30
1,37,106,0
1,37,0,28
1,30,120,2
1,30,0,68
1,30,120,22
1,30,0,27
1,32,116,3
1,32,0,73
1,32,106,17
1,32,0,30
1,37,122,0
1,37,0,62
1,37,106,28
1,37,0,25
1,42,120,5
1,42,0,200
1,37,104,12
1,37,0,27
1,42,127,3
1,42,0,90
1,41,109,1
1,41,0,21
1,39,112,8
1,39,0,73
1,39,109,17
1,39,0,27
1,32,119,1
1,32,0,150
1,39,106,0
1,39,0,26
1,44,115,4
1,44,0,26
1,36,106,6
1,36,0,23
1,37,118,5
1,37,0,58
1,37,114,32
1,37,0,25
1,42,122,5
1,42,0,150
1,37,106,0
1,37,0,27
1,42,114,3
1,42,0,30
1,37,106,0
1,37,0,28
1,30,120,2
1,30,0,68
1,30,120,22
1,30,0,27
1,32,116,3
1,32,0,73
1,32,106,17
1,32,0,30
1,37,122,0
1,37,0,62
1,37,106,28
1,37,0,25
1,42,120,5
1,42,0,133
1,42,104,19
1,42,0,53
1,37,104,7
1,37,0,27
1,42,127,3
1,42,0,90
1,41,109,1
1,41,0,21
1,39,112,8
1,39,0,73
1,39,109,17
1,39,0,27
1,32,119,1
1,32,0,150
1,39,106,0
1,39,0,26
1,44,115,4
1,44,0,26
1,36,106,6
1,36,0,23
1,37,118,5
1,37,0,58
1,37,114,32
1,37,0,25
1,42,122,5
1,42,0,150
1,37,106,0
1,37,0,27
1,42,114,3
1,42,0,30
1,37,106,0
1,37,0,28
1,30,120,2
1,30,0,68
1,30,120,22
1,30,0,27
1,32,116,3
1,32,0,73
1,32,106,17
1,32,0,30
1,37,122,0
1,37,0,62
1,37,106,28
1,37,0,25
1,42,120,5
1,42,0,133
1,42,104,19
1,42,0,53
1,37,104,7
1,37,0,27
1,42,127,3
1,42,0,90
1,41,109,1
1,41,0,21
1,39,112,8
1,39,0,73
1,39,109,17
1,39,0,27
1,32,119,1
1,32,0,150
1,39,106,0
1,39,0,26
1,44,115,4
1,44,0,55
1,37,118,5
1,37,0,6
1,37,114,18
1,37,0,3
1,42,122,5
1,42,0,8
1,37,106,0
1,37,0,15
1,42,114,3
1,42,0,18
1,37,106,0
1,37,0,6
1,30,120,2
1,30,0,16
1,30,120,18
1,30,0,15
1,32,116,3
1,32,0,11
1,32,106,17
1,32,0,8
1,37,122,0
1,37,0,10
1,37,106,18
1,37,0,13
1,42,120,5
1,42,0,8
1,37,104,0
1,37,0,7
1,42,127,3
1,42,0,10
1,41,109,1
1,41,0,12
1,39,112,8
1,39,0,3
1,39,109,17
1,39,0,7
1,32,119,1
1,32,0,8
1,39,106,0
1,39,0,4
1,44,115,4
1,44,0,14
1,36,106,0
1,36,0,3
1,37,118,5
1,37,0,6
1,37,114,8
1,37,0,13
1,42,122,5
1,42,0,18
1,37,106,0
1,37,0,5
1,42,114,3
1,42,0,18
1,37,106,0
1,37,0,16
1,30,120,2
1,30,0,6
1,30,120,22
1,30,0,5
1,32,116,3
1,32,0,1
1,32,106,17
1,32,0,28
1,37,122,0
1,37,0,20
1,37,106,8
1,37,0,13
1,42,120,5
1,42,0,1
1,42,104,0
1,42,0,3
1,37,104,7
1,37,0,17
1,42,127,0
1,42,0,20
1,41,109,1
1,41,0,2
1,39,112,8
1,39,0,13
1,39,109,10
1,39,0,17
1,32,119,1
1,32,0,38
1,39,106,0
1,39,0,26
1,44,115,4
1,44,0,55
2,57,80,343
2,64,86,0
2,88,106,0
2,85,84,30
2,88,0,26
2,83,70,4
2,88,109,30
2,85,0,5
2,85,83,25
2,83,0,8
2,83,64,22
2,88,0,7
2,88,102,23
2,85,0,2
2,85,80,28
2,83,0,6
2,88,0,20
2,88,110,4
2,85,0,23
2,85,65,7
2,81,64,30
2,81,0,57
2,81,40,3
2,81,0,57
2,81,25,3
2,85,0,23
2,88,0,3
2,57,0,27
2,64,0,0
2,81,0,4
2,64,84,3
2,100,110,0
2,57,86,0
2,97,65,30
2,95,101,30
2,100,0,1
2,100,87,29
2,97,0,7
2,97,109,23
2,95,0,2
2,95,76,28
2,100,0,2
2,100,109,28
2,97,0,5
2,97,80,25
2,95,0,2
2,100,0,24
2,100,106,4
2,97,0,27
2,97,73,3
2,93,86,30
2,93,0,138
2,97,0,0
2,100,0,2
2,64,0,5
2,57,0,2
2,57,91,33
2,64,70,5
2,69,65,5
2,73,64,6
2,69,0,109
2,69,71,25
2,73,0,11
2,71,92,19
2,64,0,12
2,57,0,16
2,73,107,2
2,69,0,7
2,71,0,15
2,73,0,8
2,53,67,0
2,72,77,0
2,69,58,0
2,65,69,0
2,65,0,145
2,72,0,2
2,65,53,3
2,69,0,17
2,65,0,8
2,72,88,5
2,65,91,0
2,69,88,0
2,53,0,23
2,53,76,7
2,69,0,12
2,72,0,5
2,65,0,0
2,53,0,8
2,68,64,5
2,71,69,0
2,64,68,0
2,52,71,0
2,71,0,215
2,68,0,0
2,64,0,1
2,52,0,14
2,49,73,10
2,68,74,0
2,65,83,0
2,61,78,0
2,61,0,22
2,61,64,8
2,64,87,30
2,65,0,8
2,65,103,22
2,64,0,3
2,68,0,5
2,68,127,22
2,65,0,16
2,65,99,14
2,56,78,30
2,61,0,7
2,61,65,23
2,49,0,12
2,65,0,3
2,68,0,3
2,56,0,7
2,61,0,2
2,73,82,3
2,69,70,0
2,64,74,0
2,57,84,0
2,69,0,137
2,69,66,13
2,73,0,26
2,71,101,4
2,73,122,30
2,64,0,7
2,69,0,4
2,71,0,14
2,57,0,0
2,73,0,2
2,53,49,3
2,72,77,0
2,65,81,0
2,69,78,0
2,65,0,142
2,65,65,8
2,69,0,17
2,72,0,0
2,65,0,10
2,65,74,3
2,69,79,0
2,72,81,0
2,53,0,12
2,53,56,18
2,69,0,10
2,72,0,3
2,65,0,3
2,53,0,10
2,52,61,4
2,64,64,5
2,68,44,5
2,71,58,6
2,64,0,199
2,68,0,3
2,71,0,8
2,52,0,7
2,49,67,7
2,68,86,0
2,61,78,0
2,65,84,0
2,61,0,30
2,61,59,0
2,64,78,30
2,65,0,7
2,65,97,23
2,64,0,2
2,68,0,4
2,68,115,24
2,65,0,6
2,65,93,24
2,56,77,30
2,61,0,6
2,61,67,24
2,49,0,3
2,65,0,9
2,68,0,4
2,56,0,7
2,61,0,4
2,64,87,3
2,45,86,0
2,69,80,0
2,45,0,168
2,43,96,12
2,64,0,43
2,69,0,2
2,41,101,6
2,43,0,7
2,65,99,2
2,69,106,5
2,72,97,11
2,65,0,192
2,41,0,0
2,69,0,5
2,72,0,14
2,52,61,11
2,64,63,2
2,71,72,1
2,68,65,0
2,64,0,222
2,68,0,1
2,71,0,2
2,52,0,7
2,49,72,2
2,61,67,10
2,65,61,5
2,68,63,10
2,61,0,197
2,49,0,1
2,65,0,9
2,68,0,3
2,44,93,10
2,60,81,0
2,63,86,5
2,68,79,5
2,63,0,168
2,63,101,2
2,63,0,2
2,61,101,28
2,61,0,28
2,60,0,0
2,39,107,2
2,68,0,8
2,58,82,22
2,63,105,30
2,66,110,0
2,39,0,16
2,39,93,14
2,39,0,15
2,42,105,15
2,58,0,21
2,58,77,9
2,66,0,5
2,63,0,0
2,58,0,13
2,66,94,12
2,58,86,0
2,63,89,0
2,42,0,8
2,42,90,22
2,44,0,8
2,42,0,10
2,41,93,12
2,58,0,10
2,63,0,3
2,66,0,2
2,58,81,15
2,58,0,15
2,58,87,15
2,65,93,0
2,60,89,0
2,41,0,12
2,41,76,18
2,41,0,13
2,41,97,17
2,58,0,18
2,65,0,12
2,58,80,0
2,84,127,0
2,60,0,5
2,82,116,10
2,58,0,1
2,77,118,14
2,65,76,0
2,58,70,0
2,60,80,0
2,41,0,8
2,41,88,22
2,41,0,22
2,65,0,4
2,39,103,4
2,58,0,3
2,60,0,0
2,58,82,27
2,58,0,16
2,66,103,14
2,63,100,0
2,58,91,0
2,39,0,16
2,84,0,12
2,82,0,0
2,77,0,0
2,39,92,2
2,39,0,21
2,42,100,9
2,58,0,22
2,58,70,8
2,63,0,8
2,66,0,0
2,58,0,12
2,58,92,10
2,66,98,0
2,63,95,0
2,42,0,10
2,42,99,20
2,42,0,16
2,41,101,14
2,58,0,12
2,63,0,15
2,58,78,3
2,66,0,6
2,58,0,9
2,65,91,15
2,60,97,0
2,58,93,0
2,41,0,12
2,41,77,18
2,41,0,15
2,41,99,15
2,58,0,23
2,84,100,7
2,58,74,0
2,65,0,1
2,60,0,5
2,58,0,7
2,82,100,2
2,65,91,15
2,77,100,0
2,58,98,0
2,60,101,0
2,41,0,7
2,41,89,23
2,41,0,25
2,65,0,0
2,60,0,3
2,39,100,2
2,58,0,3
2,58,80,27
2,58,0,17
2,63,100,13
2,66,103,0
2,58,93,0
2,39,0,8
2,77,0,20
2,84,0,0
2,39,94,2
2,82,0,2
2,39,0,18
2,42,103,10
2,58,0,17
2,58,81,13
2,66,0,2
2,63,0,0
2,58,0,10
2,58,96,18
2,63,100,0
2,66,94,0
2,42,0,10
2,42,96,20
2,42,0,13
2,66,0,18
2,63,0,1
2,58,0,4
2,58,83,24
2,58,0,18
2,60,86,12
2,58,86,0
2,65,84,0
2,41,75,30
2,41,0,13
2,41,97,17
2,58,0,17
2,58,82,13
2,65,0,2
2,60,0,4
2,58,0,6
2,65,91,18
2,58,96,0
2,60,104,0
2,41,0,12
2,41,89,18
2,41,0,13
2,41,109,17
2,58,0,15
2,65,0,11
2,58,98,4
2,60,0,1
2,58,0,12
2,58,108,17
2,65,115,0
2,60,110,0
2,41,0,10
2,41,104,20
