track,note,velocity,time
1.0,52.0,100.0,11712.0
1.0,57.0,100.0,4.0
1.0,57.0,100.0,4.0
1.0,57.0,100.0,4.0
1.0,59.0,100.0,1540.0
1.0,59.0,100.0,4.0
1.0,57.0,100.0,4.0
1.0,59.0,100.0,772.0
1.0,57.0,100.0,4.0
1.0,59.0,100.0,196.0
1.0,57.0,100.0,4.0
1.0,57.0,100.0,2500.0
1.0,62.0,100.0,4.0
1.0,60.0,100.0,4.0
1.0,57.0,100.0,4.0
1.0,57.0,100.0,388.0
1.0,64.0,100.0,4.0
1.0,62.0,100.0,4.0
1.0,62.0,100.0,4.0
1.0,60.0,100.0,4.0
1.0,59.0,100.0,4.0
1.0,59.0,100.0,4.0
1.0,57.0,100.0,4.0
1.0,59.0,100.0,388.0
1.0,59.0,100.0,4.0
1.0,57.0,100.0,4.0
1.0,59.0,100.0,388.0
1.0,59.0,100.0,4.0
1.0,57.0,100.0,4.0
1.0,59.0,100.0,772.0
1.0,57.0,100.0,4.0
1.0,59.0,100.0,196.0
1.0,57.0,100.0,4.0
1.0,57.0,100.0,2500.0
1.0,62.0,100.0,4.0
1.0,60.0,100.0,4.0
1.0,57.0,100.0,4.0
1.0,64.0,100.0,772.0
1.0,62.0,100.0,4.0
1.0,62.0,100.0,4.0
1.0,60.0,100.0,384.0
1.0,59.0,100.0,4.0
1.0,59.0,100.0,4.0
1.0,59.0,100.0,4.0
1.0,57.0,100.0,4.0
1.0,59.0,100.0,388.0
1.0,59.0,100.0,4.0
1.0,57.0,100.0,4.0
1.0,59.0,100.0,388.0
1.0,59.0,100.0,4.0
1.0,57.0,100.0,4.0
1.0,59.0,100.0,772.0
1.0,57.0,100.0,4.0
1.0,59.0,100.0,196.0
1.0,57.0,100.0,4.0
1.0,59.0,100.0,580.0
1.0,59.0,100.0,4.0
1.0,57.0,100.0,4.0
1.0,59.0,100.0,772.0
1.0,57.0,100.0,4.0
1.0,59.0,100.0,964.0
1.0,59.0,100.0,4.0
1.0,57.0,100.0,4.0
1.0,59.0,100.0,772.0
1.0,59.0,100.0,4.0
1.0,57.0,100.0,4.0
1.0,59.0,100.0,772.0
1.0,57.0,100.0,4.0
1.0,59.0,100.0,964.0
1.0,57.0,100.0,4.0
1.0,57.0,100.0,388.0
1.0,57.0,100.0,1924.0
1.0,62.0,100.0,4.0
1.0,60.0,100.0,4.0
1.0,64.0,100.0,772.0
1.0,62.0,100.0,4.0
1.0,62.0,100.0,4.0
1.0,57.0,50.0,192.0
1.0,57.0,50.0,4.0
1.0,57.0,50.0,4.0
1.0,57.0,50.0,4.0
1.0,60.0,50.0,388.0
1.0,59.0,50.0,4.0
1.0,64.0,50.0,388.0
1.0,64.0,50.0,4.0
1.0,60.0,50.0,4.0
1.0,64.0,50.0,772.0
1.0,59.0,50.0,4.0
1.0,64.0,50.0,196.0
1.0,59.0,50.0,4.0
1.0,67.0,50.0,196.0
1.0,67.0,50.0,4.0
1.0,66.0,50.0,4.0
1.0,57.0,75.0,196.0
1.0,60.0,75.0,4.0
1.0,67.0,50.0,4.0
1.0,66.0,50.0,4.0
1.0,67.0,50.0,964.0
1.0,67.0,50.0,4.0
1.0,67.0,50.0,4.0
1.0,67.0,50.0,4.0
1.0,64.0,50.0,4.0
1.0,57.0,75.0,4.0
1.0,62.0,75.0,4.0
1.0,69.0,50.0,4.0
1.0,67.0,50.0,4.0
1.0,59.0,75.0,192.0
1.0,71.0,75.0,4.0
2.0,45.0,127.0,384.0
2.0,33.0,127.0,0.0
2.0,21.0,127.0,0.0
2.0,45.0,127.0,292.0
2.0,33.0,127.0,0.0
2.0,21.0,127.0,0.0
2.0,45.0,127.0,292.0
2.0,33.0,127.0,0.0
2.0,21.0,127.0,0.0
2.0,45.0,127.0,292.0
2.0,33.0,127.0,0.0
2.0,21.0,127.0,0.0
2.0,45.0,127.0,292.0
2.0,33.0,127.0,0.0
2.0,45.0,127.0,292.0
2.0,33.0,127.0,0.0
2.0,45.0,127.0,292.0
2.0,33.0,127.0,0.0
2.0,45.0,127.0,292.0
2.0,33.0,127.0,0.0
2.0,45.0,127.0,292.0
2.0,33.0,127.0,0.0
2.0,45.0,127.0,292.0
2.0,33.0,127.0,0.0
2.0,45.0,127.0,292.0
2.0,33.0,127.0,0.0
2.0,45.0,127.0,292.0
2.0,33.0,127.0,0.0
2.0,45.0,127.0,292.0
2.0,33.0,127.0,0.0
2.0,45.0,127.0,292.0
2.0,33.0,127.0,0.0
2.0,45.0,127.0,292.0
2.0,33.0,127.0,0.0
2.0,45.0,127.0,292.0
2.0,33.0,127.0,0.0
2.0,41.0,127.0,292.0
2.0,29.0,127.0,0.0
2.0,41.0,127.0,292.0
2.0,29.0,127.0,0.0
2.0,41.0,127.0,292.0
2.0,29.0,127.0,0.0
2.0,41.0,127.0,292.0
2.0,29.0,127.0,0.0
2.0,41.0,127.0,292.0
2.0,29.0,127.0,0.0
2.0,41.0,127.0,292.0
2.0,29.0,127.0,0.0
2.0,41.0,127.0,292.0
2.0,29.0,127.0,0.0
2.0,41.0,127.0,292.0
2.0,29.0,127.0,0.0
2.0,38.0,127.0,292.0
2.0,26.0,127.0,0.0
2.0,38.0,127.0,292.0
2.0,26.0,127.0,0.0
2.0,38.0,127.0,292.0
2.0,26.0,127.0,0.0
2.0,38.0,127.0,292.0
2.0,26.0,127.0,0.0
2.0,38.0,127.0,292.0
2.0,26.0,127.0,0.0
2.0,38.0,127.0,292.0
2.0,26.0,127.0,0.0
2.0,38.0,127.0,292.0
2.0,26.0,127.0,0.0
2.0,38.0,127.0,292.0
2.0,26.0,127.0,0.0
2.0,45.0,127.0,292.0
2.0,33.0,127.0,0.0
2.0,45.0,127.0,292.0
2.0,33.0,127.0,0.0
2.0,45.0,127.0,292.0
2.0,33.0,127.0,0.0
2.0,45.0,127.0,292.0
2.0,33.0,127.0,0.0
2.0,48.0,127.0,292.0
2.0,36.0,127.0,0.0
2.0,48.0,127.0,292.0
2.0,36.0,127.0,0.0
2.0,48.0,127.0,292.0
2.0,36.0,127.0,0.0
2.0,50.0,127.0,292.0
2.0,38.0,127.0,0.0
2.0,50.0,127.0,292.0
2.0,38.0,127.0,0.0
2.0,50.0,127.0,292.0
2.0,38.0,127.0,0.0
2.0,50.0,127.0,292.0
2.0,38.0,127.0,0.0
2.0,45.0,127.0,292.0
2.0,33.0,127.0,0.0
2.0,45.0,127.0,292.0
2.0,33.0,127.0,0.0
2.0,45.0,127.0,292.0
2.0,33.0,127.0,0.0
2.0,45.0,127.0,292.0
2.0,33.0,127.0,0.0
2.0,45.0,127.0,292.0
2.0,33.0,127.0,0.0
2.0,45.0,127.0,292.0
2.0,33.0,127.0,0.0
2.0,45.0,127.0,292.0
2.0,33.0,127.0,0.0
2.0,45.0,127.0,292.0
2.0,33.0,127.0,0.0
2.0,41.0,127.0,292.0
2.0,29.0,127.0,0.0
2.0,41.0,127.0,292.0
2.0,29.0,127.0,0.0
2.0,41.0,127.0,292.0
2.0,29.0,127.0,0.0
2.0,41.0,127.0,292.0
2.0,29.0,127.0,0.0
2.0,41.0,127.0,292.0
2.0,29.0,127.0,0.0
2.0,41.0,127.0,292.0
2.0,29.0,127.0,0.0
2.0,41.0,127.0,292.0
2.0,29.0,127.0,0.0
2.0,41.0,127.0,292.0
2.0,29.0,127.0,0.0
2.0,38.0,127.0,292.0
2.0,26.0,127.0,0.0
2.0,38.0,127.0,292.0
2.0,26.0,127.0,0.0
2.0,38.0,127.0,292.0
2.0,26.0,127.0,0.0
2.0,38.0,127.0,292.0
2.0,26.0,127.0,0.0
2.0,38.0,127.0,292.0
2.0,26.0,127.0,0.0
2.0,38.0,127.0,292.0
2.0,26.0,127.0,0.0
2.0,38.0,127.0,292.0
2.0,26.0,127.0,0.0
2.0,38.0,127.0,292.0
2.0,26.0,127.0,0.0
2.0,45.0,127.0,292.0
2.0,33.0,127.0,0.0
2.0,45.0,127.0,292.0
2.0,33.0,127.0,0.0
2.0,45.0,127.0,292.0
2.0,33.0,127.0,0.0
2.0,45.0,127.0,292.0
2.0,33.0,127.0,0.0
2.0,48.0,127.0,292.0
2.0,36.0,127.0,0.0
2.0,48.0,127.0,292.0
2.0,36.0,127.0,0.0
2.0,48.0,127.0,292.0
2.0,36.0,127.0,0.0
2.0,50.0,127.0,292.0
2.0,38.0,127.0,0.0
2.0,50.0,127.0,292.0
2.0,38.0,127.0,0.0
2.0,50.0,127.0,292.0
2.0,38.0,127.0,0.0
2.0,50.0,127.0,292.0
2.0,38.0,127.0,0.0
2.0,45.0,127.0,292.0
2.0,33.0,127.0,0.0
2.0,45.0,127.0,292.0
2.0,33.0,127.0,0.0
2.0,45.0,127.0,292.0
2.0,33.0,127.0,0.0
2.0,45.0,127.0,292.0
2.0,33.0,127.0,0.0
2.0,45.0,127.0,292.0
2.0,33.0,127.0,0.0
2.0,45.0,127.0,292.0
2.0,33.0,127.0,0.0
2.0,45.0,127.0,292.0
2.0,33.0,127.0,0.0
2.0,45.0,127.0,292.0
2.0,33.0,127.0,0.0
2.0,41.0,127.0,292.0
2.0,29.0,127.0,0.0
2.0,41.0,127.0,292.0
2.0,29.0,127.0,0.0
2.0,41.0,127.0,292.0
2.0,29.0,127.0,0.0
2.0,41.0,127.0,292.0
2.0,29.0,127.0,0.0
2.0,41.0,127.0,292.0
2.0,29.0,127.0,0.0
2.0,41.0,127.0,292.0
2.0,29.0,127.0,0.0
2.0,41.0,127.0,292.0
2.0,29.0,127.0,0.0
2.0,41.0,127.0,292.0
2.0,29.0,127.0,0.0
2.0,38.0,127.0,292.0
2.0,26.0,127.0,0.0
2.0,38.0,127.0,292.0
2.0,26.0,127.0,0.0
2.0,38.0,127.0,292.0
2.0,26.0,127.0,0.0
2.0,38.0,127.0,292.0
2.0,26.0,127.0,0.0
2.0,38.0,127.0,292.0
2.0,26.0,127.0,0.0
2.0,38.0,127.0,292.0
2.0,26.0,127.0,0.0
2.0,38.0,127.0,292.0
2.0,26.0,127.0,0.0
2.0,38.0,127.0,292.0
2.0,26.0,127.0,0.0
2.0,45.0,127.0,292.0
2.0,33.0,127.0,0.0
2.0,45.0,127.0,292.0
2.0,33.0,127.0,0.0
2.0,45.0,127.0,292.0
2.0,33.0,127.0,0.0
2.0,45.0,127.0,292.0
2.0,33.0,127.0,0.0
2.0,48.0,127.0,292.0
2.0,36.0,127.0,0.0
2.0,48.0,127.0,292.0
2.0,36.0,127.0,0.0
2.0,48.0,127.0,292.0
2.0,36.0,127.0,0.0
2.0,50.0,127.0,292.0
2.0,38.0,127.0,0.0
2.0,50.0,127.0,292.0
2.0,38.0,127.0,0.0
2.0,50.0,127.0,292.0
2.0,38.0,127.0,0.0
2.0,50.0,127.0,292.0
2.0,38.0,127.0,0.0
2.0,45.0,127.0,292.0
2.0,33.0,127.0,0.0
2.0,45.0,127.0,292.0
2.0,33.0,127.0,0.0
2.0,45.0,127.0,292.0
2.0,33.0,127.0,0.0
2.0,45.0,127.0,292.0
2.0,33.0,127.0,0.0
2.0,48.0,127.0,292.0
2.0,36.0,127.0,0.0
2.0,48.0,127.0,292.0
2.0,36.0,127.0,0.0
2.0,48.0,127.0,292.0
2.0,36.0,127.0,0.0
2.0,48.0,127.0,292.0
2.0,36.0,127.0,0.0
2.0,50.0,127.0,292.0
2.0,38.0,127.0,0.0
2.0,50.0,127.0,292.0
2.0,38.0,127.0,0.0
2.0,50.0,127.0,292.0
2.0,38.0,127.0,0.0
2.0,50.0,127.0,292.0
2.0,38.0,127.0,0.0
2.0,45.0,127.0,292.0
2.0,33.0,127.0,0.0
2.0,45.0,127.0,292.0
2.0,33.0,127.0,0.0
2.0,45.0,127.0,292.0
2.0,33.0,127.0,0.0
2.0,45.0,127.0,292.0
2.0,33.0,127.0,0.0
2.0,48.0,127.0,292.0
2.0,36.0,127.0,0.0
2.0,48.0,127.0,292.0
2.0,36.0,127.0,0.0
2.0,48.0,127.0,292.0
2.0,36.0,127.0,0.0
2.0,48.0,127.0,292.0
2.0,36.0,127.0,0.0
2.0,50.0,127.0,292.0
2.0,38.0,127.0,0.0
2.0,50.0,127.0,292.0
2.0,38.0,127.0,0.0
2.0,50.0,127.0,292.0
2.0,38.0,127.0,0.0
2.0,50.0,127.0,292.0
2.0,38.0,127.0,0.0
2.0,45.0,127.0,292.0
2.0,33.0,127.0,0.0
2.0,45.0,127.0,292.0
2.0,33.0,127.0,0.0
2.0,45.0,127.0,292.0
2.0,33.0,127.0,0.0
2.0,45.0,127.0,292.0
2.0,33.0,127.0,0.0
2.0,45.0,127.0,292.0
2.0,33.0,127.0,0.0
2.0,45.0,127.0,292.0
2.0,33.0,127.0,0.0
2.0,45.0,127.0,292.0
2.0,33.0,127.0,0.0
2.0,45.0,127.0,292.0
2.0,33.0,127.0,0.0
2.0,41.0,127.0,292.0
2.0,29.0,127.0,0.0
2.0,41.0,127.0,292.0
2.0,29.0,127.0,0.0
2.0,41.0,127.0,292.0
2.0,29.0,127.0,0.0
2.0,41.0,127.0,292.0
2.0,29.0,127.0,0.0
2.0,41.0,127.0,292.0
2.0,29.0,127.0,0.0
2.0,41.0,127.0,292.0
2.0,29.0,127.0,0.0
2.0,41.0,127.0,292.0
2.0,29.0,127.0,0.0
2.0,41.0,127.0,292.0
2.0,29.0,127.0,0.0
2.0,38.0,127.0,292.0
2.0,26.0,127.0,0.0
2.0,38.0,127.0,292.0
2.0,26.0,127.0,0.0
2.0,38.0,127.0,292.0
2.0,26.0,127.0,0.0
2.0,38.0,127.0,292.0
2.0,26.0,127.0,0.0
2.0,38.0,127.0,292.0
2.0,26.0,127.0,0.0
2.0,38.0,127.0,292.0
2.0,26.0,127.0,0.0
2.0,38.0,127.0,292.0
2.0,26.0,127.0,0.0
2.0,38.0,127.0,292.0
2.0,26.0,127.0,0.0
2.0,45.0,127.0,292.0
2.0,33.0,127.0,0.0
2.0,45.0,127.0,292.0
2.0,33.0,127.0,0.0
2.0,45.0,127.0,292.0
2.0,33.0,127.0,0.0
2.0,45.0,127.0,292.0
2.0,33.0,127.0,0.0
2.0,48.0,127.0,292.0
2.0,36.0,127.0,0.0
2.0,48.0,127.0,292.0
2.0,36.0,127.0,0.0
2.0,48.0,127.0,292.0
2.0,36.0,127.0,0.0
2.0,50.0,127.0,292.0
2.0,38.0,127.0,0.0
2.0,50.0,127.0,292.0
2.0,38.0,127.0,0.0
2.0,50.0,127.0,292.0
2.0,38.0,127.0,0.0
2.0,50.0,127.0,292.0
2.0,38.0,127.0,0.0
2.0,45.0,127.0,292.0
2.0,33.0,127.0,0.0
2.0,45.0,127.0,292.0
2.0,33.0,127.0,0.0
2.0,45.0,127.0,292.0
2.0,33.0,127.0,0.0
2.0,45.0,127.0,292.0
2.0,33.0,127.0,0.0
2.0,48.0,127.0,292.0
2.0,36.0,127.0,0.0
2.0,48.0,127.0,292.0
2.0,36.0,127.0,0.0
2.0,48.0,127.0,292.0
2.0,36.0,127.0,0.0
2.0,48.0,127.0,292.0
2.0,36.0,127.0,0.0
2.0,50.0,127.0,292.0
2.0,38.0,127.0,0.0
2.0,50.0,127.0,292.0
2.0,38.0,127.0,0.0
2.0,50.0,127.0,292.0
2.0,38.0,127.0,0.0
2.0,50.0,127.0,292.0
2.0,38.0,127.0,0.0
2.0,45.0,127.0,292.0
2.0,33.0,127.0,0.0
2.0,45.0,127.0,292.0
2.0,33.0,127.0,0.0
2.0,45.0,127.0,292.0
2.0,33.0,127.0,0.0
2.0,45.0,127.0,292.0
2.0,33.0,127.0,0.0
2.0,48.0,127.0,292.0
2.0,36.0,127.0,0.0
2.0,48.0,127.0,292.0
2.0,36.0,127.0,0.0
2.0,48.0,127.0,292.0
2.0,36.0,127.0,0.0
2.0,48.0,127.0,292.0
2.0,36.0,127.0,0.0
2.0,50.0,127.0,292.0
2.0,38.0,127.0,0.0
2.0,50.0,127.0,292.0
2.0,38.0,127.0,0.0
2.0,50.0,127.0,292.0
2.0,38.0,127.0,0.0
2.0,50.0,127.0,292.0
2.0,38.0,127.0,0.0
2.0,45.0,127.0,292.0
2.0,33.0,127.0,0.0
2.0,45.0,127.0,292.0
2.0,33.0,127.0,0.0
2.0,45.0,127.0,292.0
2.0,33.0,127.0,0.0
2.0,45.0,127.0,292.0
2.0,33.0,127.0,0.0
2.0,45.0,127.0,292.0
2.0,33.0,127.0,0.0
2.0,45.0,127.0,292.0
2.0,33.0,127.0,0.0
2.0,45.0,127.0,292.0
2.0,33.0,127.0,0.0
2.0,45.0,127.0,292.0
2.0,33.0,127.0,0.0
2.0,45.0,127.0,292.0
2.0,33.0,127.0,0.0
2.0,45.0,127.0,292.0
2.0,33.0,127.0,0.0
2.0,45.0,127.0,292.0
2.0,33.0,127.0,0.0
2.0,45.0,127.0,292.0
2.0,33.0,127.0,0.0
2.0,45.0,127.0,292.0
2.0,33.0,127.0,0.0
3.0,64.0,75.0,3456.0
3.0,76.0,75.0,0.0
3.0,64.0,75.0,100.0
3.0,76.0,75.0,0.0
3.0,59.0,75.0,100.0
3.0,71.0,75.0,0.0
3.0,64.0,75.0,676.0
3.0,76.0,75.0,0.0
3.0,64.0,75.0,100.0
3.0,76.0,75.0,0.0
3.0,59.0,75.0,100.0
3.0,71.0,75.0,0.0
3.0,64.0,75.0,676.0
3.0,76.0,75.0,0.0
3.0,64.0,75.0,100.0
3.0,76.0,75.0,0.0
3.0,59.0,75.0,100.0
3.0,71.0,75.0,0.0
3.0,59.0,75.0,100.0
3.0,71.0,75.0,0.0
3.0,64.0,75.0,100.0
3.0,76.0,75.0,0.0
3.0,64.0,75.0,100.0
3.0,76.0,75.0,0.0
3.0,59.0,75.0,100.0
3.0,71.0,75.0,0.0
3.0,64.0,75.0,676.0
3.0,76.0,75.0,0.0
3.0,60.0,75.0,100.0
3.0,76.0,75.0,0.0
3.0,57.0,75.0,100.0
3.0,69.0,75.0,0.0
3.0,64.0,75.0,676.0
3.0,76.0,75.0,0.0
3.0,64.0,75.0,100.0
3.0,76.0,75.0,0.0
3.0,60.0,75.0,100.0
3.0,72.0,75.0,0.0
3.0,60.0,75.0,100.0
3.0,72.0,75.0,0.0
3.0,60.0,75.0,100.0
3.0,72.0,75.0,0.0
3.0,60.0,75.0,100.0
3.0,72.0,75.0,0.0
3.0,57.0,75.0,100.0
3.0,69.0,75.0,0.0
3.0,60.0,75.0,676.0
3.0,72.0,75.0,0.0
3.0,60.0,75.0,100.0
3.0,72.0,75.0,0.0
3.0,57.0,75.0,100.0
3.0,69.0,75.0,0.0
3.0,57.0,75.0,676.0
3.0,69.0,75.0,0.0
3.0,57.0,75.0,100.0
3.0,69.0,75.0,0.0
3.0,57.0,75.0,100.0
3.0,69.0,75.0,0.0
3.0,59.0,75.0,676.0
3.0,71.0,75.0,0.0
3.0,59.0,75.0,100.0
3.0,71.0,75.0,0.0
3.0,57.0,75.0,100.0
3.0,69.0,75.0,0.0
3.0,71.0,75.0,676.0
3.0,59.0,75.0,0.0
3.0,71.0,75.0,100.0
3.0,59.0,75.0,0.0
3.0,69.0,75.0,100.0
3.0,57.0,75.0,0.0
3.0,71.0,75.0,1060.0
3.0,59.0,75.0,0.0
3.0,69.0,75.0,100.0
3.0,57.0,75.0,0.0
3.0,71.0,75.0,484.0
3.0,59.0,75.0,0.0
3.0,57.0,75.0,100.0
3.0,71.0,75.0,0.0
3.0,64.0,75.0,484.0
3.0,76.0,75.0,0.0
3.0,64.0,75.0,100.0
3.0,76.0,75.0,0.0
3.0,59.0,75.0,100.0
3.0,71.0,75.0,0.0
3.0,64.0,75.0,676.0
3.0,76.0,75.0,0.0
3.0,64.0,75.0,100.0
3.0,76.0,75.0,0.0
3.0,59.0,75.0,100.0
3.0,71.0,75.0,0.0
3.0,64.0,75.0,292.0
3.0,76.0,75.0,0.0
3.0,64.0,75.0,100.0
3.0,76.0,75.0,0.0
3.0,59.0,75.0,100.0
3.0,71.0,75.0,0.0
3.0,59.0,75.0,100.0
3.0,71.0,75.0,0.0
3.0,64.0,75.0,100.0
3.0,76.0,75.0,0.0
3.0,64.0,75.0,100.0
3.0,76.0,75.0,0.0
3.0,59.0,75.0,100.0
3.0,71.0,75.0,0.0
3.0,64.0,75.0,676.0
3.0,76.0,75.0,0.0
3.0,76.0,75.0,100.0
3.0,60.0,75.0,0.0
3.0,69.0,75.0,100.0
3.0,57.0,75.0,0.0
3.0,64.0,75.0,676.0
3.0,76.0,75.0,0.0
3.0,64.0,75.0,100.0
3.0,76.0,75.0,0.0
3.0,60.0,75.0,100.0
3.0,72.0,75.0,0.0
3.0,60.0,75.0,100.0
3.0,72.0,75.0,0.0
3.0,60.0,75.0,100.0
3.0,72.0,75.0,0.0
3.0,60.0,75.0,100.0
3.0,72.0,75.0,0.0
3.0,57.0,75.0,100.0
3.0,69.0,75.0,0.0
3.0,60.0,75.0,676.0
3.0,72.0,75.0,0.0
3.0,60.0,75.0,100.0
3.0,72.0,75.0,0.0
3.0,57.0,75.0,100.0
3.0,69.0,75.0,0.0
3.0,57.0,75.0,676.0
3.0,69.0,75.0,0.0
3.0,57.0,75.0,100.0
3.0,69.0,75.0,0.0
3.0,57.0,75.0,100.0
3.0,69.0,75.0,0.0
3.0,59.0,75.0,676.0
3.0,71.0,75.0,0.0
3.0,59.0,75.0,100.0
3.0,71.0,75.0,0.0
3.0,57.0,75.0,100.0
3.0,69.0,75.0,0.0
3.0,71.0,75.0,676.0
3.0,59.0,75.0,0.0
3.0,71.0,75.0,100.0
3.0,59.0,75.0,0.0
3.0,69.0,75.0,100.0
3.0,57.0,75.0,0.0
3.0,71.0,75.0,1060.0
3.0,59.0,75.0,0.0
3.0,69.0,75.0,100.0
3.0,57.0,75.0,0.0
3.0,71.0,75.0,484.0
3.0,59.0,75.0,0.0
3.0,57.0,75.0,100.0
3.0,71.0,75.0,0.0
3.0,64.0,75.0,484.0
3.0,76.0,75.0,0.0
3.0,64.0,75.0,100.0
3.0,76.0,75.0,0.0
3.0,59.0,75.0,100.0
3.0,71.0,75.0,0.0
3.0,64.0,75.0,676.0
3.0,76.0,75.0,0.0
3.0,64.0,75.0,100.0
3.0,76.0,75.0,0.0
3.0,59.0,75.0,100.0
3.0,71.0,75.0,0.0
3.0,64.0,75.0,292.0
3.0,76.0,75.0,0.0
3.0,64.0,75.0,100.0
3.0,76.0,75.0,0.0
3.0,59.0,75.0,100.0
3.0,71.0,75.0,0.0
3.0,59.0,75.0,100.0
3.0,71.0,75.0,0.0
3.0,64.0,75.0,100.0
3.0,76.0,75.0,0.0
3.0,64.0,75.0,100.0
3.0,76.0,75.0,0.0
3.0,59.0,75.0,100.0
3.0,71.0,75.0,0.0
3.0,64.0,75.0,676.0
3.0,76.0,75.0,0.0
3.0,76.0,75.0,100.0
3.0,60.0,75.0,0.0
3.0,69.0,75.0,100.0
3.0,57.0,75.0,0.0
3.0,64.0,75.0,676.0
3.0,76.0,75.0,0.0
3.0,64.0,75.0,100.0
3.0,76.0,75.0,0.0
3.0,60.0,75.0,100.0
3.0,72.0,75.0,0.0
3.0,60.0,75.0,100.0
3.0,72.0,75.0,0.0
3.0,60.0,75.0,100.0
3.0,72.0,75.0,0.0
3.0,60.0,75.0,100.0
3.0,72.0,75.0,0.0
3.0,57.0,75.0,100.0
3.0,69.0,75.0,0.0
3.0,60.0,75.0,676.0
3.0,72.0,75.0,0.0
3.0,60.0,75.0,100.0
3.0,72.0,75.0,0.0
3.0,57.0,75.0,100.0
3.0,69.0,75.0,0.0
3.0,57.0,75.0,676.0
3.0,69.0,75.0,0.0
3.0,57.0,75.0,100.0
3.0,69.0,75.0,0.0
3.0,57.0,75.0,100.0
3.0,69.0,75.0,0.0
3.0,59.0,75.0,676.0
3.0,71.0,75.0,0.0
3.0,59.0,75.0,100.0
3.0,71.0,75.0,0.0
3.0,57.0,75.0,100.0
3.0,69.0,75.0,0.0
3.0,71.0,75.0,676.0
3.0,59.0,75.0,0.0
3.0,71.0,75.0,100.0
3.0,59.0,75.0,0.0
3.0,69.0,75.0,100.0
3.0,57.0,75.0,0.0
3.0,71.0,75.0,1060.0
3.0,59.0,75.0,0.0
3.0,69.0,75.0,100.0
3.0,57.0,75.0,0.0
3.0,71.0,75.0,484.0
3.0,59.0,75.0,0.0
3.0,57.0,75.0,100.0
3.0,71.0,75.0,0.0
3.0,59.0,75.0,868.0
3.0,71.0,75.0,0.0
3.0,59.0,75.0,100.0
3.0,71.0,75.0,0.0
3.0,57.0,75.0,100.0
3.0,69.0,75.0,0.0
3.0,59.0,75.0,1060.0
3.0,71.0,75.0,0.0
3.0,57.0,75.0,100.0
3.0,69.0,75.0,0.0
3.0,71.0,75.0,1252.0
3.0,59.0,75.0,0.0
3.0,71.0,75.0,100.0
3.0,59.0,75.0,0.0
3.0,57.0,75.0,100.0
3.0,69.0,75.0,0.0
3.0,59.0,75.0,1060.0
3.0,71.0,75.0,0.0
3.0,59.0,75.0,100.0
3.0,71.0,75.0,0.0
3.0,57.0,75.0,100.0
3.0,69.0,75.0,0.0
3.0,59.0,75.0,1060.0
3.0,71.0,75.0,0.0
3.0,57.0,75.0,100.0
3.0,69.0,75.0,0.0
3.0,71.0,75.0,1252.0
3.0,59.0,75.0,0.0
3.0,57.0,75.0,100.0
3.0,69.0,75.0,0.0
3.0,57.0,75.0,484.0
3.0,69.0,75.0,0.0
3.0,64.0,75.0,292.0
3.0,76.0,75.0,0.0
3.0,64.0,75.0,100.0
3.0,76.0,75.0,0.0
3.0,59.0,75.0,100.0
3.0,71.0,75.0,0.0
3.0,64.0,75.0,676.0
3.0,76.0,75.0,0.0
3.0,64.0,75.0,100.0
3.0,76.0,75.0,0.0
3.0,59.0,75.0,100.0
3.0,71.0,75.0,0.0
3.0,64.0,75.0,292.0
3.0,76.0,75.0,0.0
3.0,64.0,75.0,100.0
3.0,76.0,75.0,0.0
3.0,59.0,75.0,100.0
3.0,71.0,75.0,0.0
3.0,59.0,75.0,100.0
3.0,71.0,75.0,0.0
3.0,64.0,75.0,100.0
3.0,76.0,75.0,0.0
3.0,64.0,75.0,100.0
3.0,76.0,75.0,0.0
3.0,59.0,75.0,100.0
3.0,71.0,75.0,0.0
3.0,64.0,75.0,676.0
3.0,76.0,75.0,0.0
3.0,76.0,75.0,100.0
3.0,60.0,75.0,0.0
3.0,69.0,75.0,100.0
3.0,57.0,75.0,0.0
3.0,64.0,75.0,676.0
3.0,76.0,75.0,0.0
3.0,64.0,75.0,100.0
3.0,76.0,75.0,0.0
3.0,60.0,75.0,100.0
3.0,72.0,75.0,0.0
3.0,60.0,75.0,100.0
3.0,72.0,75.0,0.0
3.0,60.0,75.0,100.0
3.0,72.0,75.0,0.0
3.0,60.0,75.0,100.0
3.0,72.0,75.0,0.0
3.0,57.0,75.0,100.0
3.0,69.0,75.0,0.0
3.0,60.0,75.0,676.0
3.0,72.0,75.0,0.0
3.0,60.0,75.0,100.0
3.0,72.0,75.0,0.0
3.0,57.0,75.0,100.0
3.0,69.0,75.0,0.0
3.0,57.0,75.0,676.0
3.0,69.0,75.0,0.0
3.0,57.0,75.0,100.0
3.0,69.0,75.0,0.0
3.0,57.0,75.0,100.0
3.0,69.0,75.0,0.0
3.0,59.0,75.0,676.0
3.0,71.0,75.0,0.0
3.0,59.0,75.0,100.0
3.0,71.0,75.0,0.0
3.0,57.0,75.0,100.0
3.0,69.0,75.0,0.0
3.0,71.0,75.0,676.0
3.0,59.0,75.0,0.0
3.0,71.0,75.0,100.0
3.0,59.0,75.0,0.0
3.0,69.0,75.0,100.0
3.0,57.0,75.0,0.0
3.0,71.0,75.0,1060.0
3.0,59.0,75.0,0.0
3.0,69.0,75.0,100.0
3.0,57.0,75.0,0.0
3.0,71.0,75.0,484.0
3.0,59.0,75.0,0.0
3.0,57.0,75.0,100.0
3.0,71.0,75.0,0.0
3.0,59.0,75.0,484.0
3.0,71.0,75.0,0.0
3.0,59.0,75.0,100.0
3.0,71.0,75.0,0.0
3.0,57.0,75.0,100.0
3.0,69.0,75.0,0.0
3.0,59.0,75.0,1444.0
3.0,71.0,75.0,0.0
3.0,57.0,75.0,100.0
3.0,69.0,75.0,0.0
3.0,71.0,75.0,1252.0
3.0,59.0,75.0,0.0
3.0,71.0,75.0,100.0
3.0,59.0,75.0,0.0
3.0,57.0,75.0,100.0
3.0,69.0,75.0,0.0
3.0,59.0,75.0,292.0
3.0,71.0,75.0,0.0
3.0,57.0,75.0,100.0
3.0,69.0,75.0,0.0
3.0,59.0,75.0,1252.0
3.0,71.0,75.0,0.0
3.0,57.0,75.0,100.0
3.0,69.0,75.0,0.0
3.0,71.0,75.0,1252.0
3.0,59.0,75.0,0.0
3.0,57.0,75.0,100.0
3.0,69.0,75.0,0.0
3.0,71.0,75.0,484.0
3.0,59.0,75.0,0.0
3.0,57.0,75.0,100.0
3.0,69.0,75.0,0.0
4.0,57.0,75.0,61248.0
4.0,57.0,75.0,4.0
4.0,57.0,75.0,4.0
4.0,57.0,75.0,4.0
4.0,59.0,75.0,388.0
4.0,57.0,75.0,4.0
4.0,59.0,75.0,388.0
4.0,59.0,75.0,4.0
4.0,57.0,75.0,4.0
4.0,59.0,75.0,772.0
4.0,57.0,75.0,4.0
4.0,59.0,75.0,196.0
4.0,57.0,75.0,4.0
4.0,59.0,75.0,196.0
4.0,59.0,75.0,4.0
4.0,57.0,75.0,4.0
4.0,59.0,75.0,1156.0
4.0,57.0,75.0,4.0
4.0,59.0,75.0,964.0
4.0,59.0,75.0,4.0
4.0,57.0,75.0,4.0
4.0,59.0,75.0,4.0
4.0,57.0,75.0,4.0
4.0,59.0,75.0,964.0
4.0,57.0,75.0,4.0
4.0,59.0,75.0,964.0
4.0,69.0,75.0,0.0
4.0,57.0,75.0,4.0
4.0,67.0,75.0,0.0
4.0,59.0,75.0,388.0
4.0,72.0,75.0,0.0
4.0,57.0,75.0,4.0
4.0,71.0,75.0,0.0
5.0,78.0,50.0,30720.0
5.0,75.0,50.0,576.0
5.0,84.0,64.0,4.0
5.0,84.0,64.0,684.0
5.0,84.0,64.0,684.0
5.0,84.0,64.0,684.0
5.0,84.0,64.0,684.0
6.0,81.0,40.0,0.0
6.0,81.0,40.0,4.0
6.0,81.0,40.0,4.0
6.0,80.0,80.0,29184.0
6.0,84.0,100.0,9988.0
0.0,0.0,0.0,0.0
0.0,0.0,0.0,0.0
0.0,0.0,0.0,0.0
0.0,0.0,0.0,0.0
0.0,0.0,0.0,0.0
0.0,0.0,0.0,0.0
0.0,0.0,0.0,0.0
0.0,0.0,0.0,0.0
0.0,0.0,0.0,0.0
0.0,0.0,0.0,0.0
0.0,0.0,0.0,0.0
0.0,0.0,0.0,0.0
0.0,0.0,0.0,0.0
0.0,0.0,0.0,0.0
0.0,0.0,0.0,0.0
0.0,0.0,0.0,0.0
0.0,0.0,0.0,0.0
0.0,0.0,0.0,0.0
0.0,0.0,0.0,0.0
0.0,0.0,0.0,0.0
0.0,0.0,0.0,0.0
0.0,0.0,0.0,0.0
0.0,0.0,0.0,0.0
0.0,0.0,0.0,0.0
0.0,0.0,0.0,0.0
0.0,0.0,0.0,0.0
0.0,0.0,0.0,0.0
0.0,0.0,0.0,0.0
0.0,0.0,0.0,0.0
0.0,0.0,0.0,0.0
0.0,0.0,0.0,0.0
0.0,0.0,0.0,0.0
0.0,0.0,0.0,0.0
0.0,0.0,0.0,0.0
0.0,0.0,0.0,0.0
0.0,0.0,0.0,0.0
0.0,0.0,0.0,0.0
0.0,0.0,0.0,0.0
0.0,0.0,0.0,0.0
0.0,0.0,0.0,0.0
0.0,0.0,0.0,0.0
0.0,0.0,0.0,0.0
0.0,0.0,0.0,0.0
0.0,0.0,0.0,0.0
0.0,0.0,0.0,0.0
0.0,0.0,0.0,0.0
0.0,0.0,0.0,0.0
0.0,0.0,0.0,0.0
0.0,0.0,0.0,0.0
