track,note,velocity,time
1,60,100,0
1,64,100,0
1,67,100,0
1,67,0,576
1,64,0,0
1,60,0,0
1,67,100,0
1,62,100,0
1,59,100,0
1,59,0,960
1,62,0,0
1,67,0,0
1,67,100,0
1,57,100,0
1,60,100,0
1,60,0,576
1,57,0,0
1,67,0,0
1,59,100,0
1,62,100,0
1,67,100,0
1,67,0,960
1,62,0,0
1,59,0,0
1,60,100,0
1,64,100,0
1,67,100,0
1,67,0,576
1,64,0,0
1,60,0,0
1,67,100,0
1,62,100,0
1,59,100,0
1,59,0,960
1,62,0,0
1,67,0,0
1,67,100,0
1,57,100,0
1,60,100,0
1,60,0,576
1,57,0,0
1,67,0,0
1,59,100,0
1,62,100,0
1,67,100,0
1,67,0,960
1,62,0,0
1,59,0,0
1,60,100,0
1,64,100,0
1,67,100,0
1,67,0,576
1,64,0,0
1,60,0,0
1,67,100,0
1,62,100,0
1,59,100,0
1,59,0,960
1,62,0,0
1,67,0,0
1,67,100,0
1,57,100,0
1,60,100,0
1,60,0,576
1,57,0,0
1,67,0,0
1,59,100,0
1,62,100,0
1,67,100,0
1,67,0,960
1,62,0,0
1,59,0,0
1,60,100,0
1,64,100,0
1,67,100,0
1,67,0,576
1,64,0,0
1,60,0,0
1,67,100,0
1,62,100,0
1,59,100,0
1,59,0,960
1,62,0,0
1,67,0,0
1,67,100,0
1,57,100,0
1,60,100,0
1,60,0,576
1,57,0,0
1,67,0,0
1,59,100,0
1,62,100,0
1,67,100,0
1,67,0,960
1,62,0,0
1,59,0,0
1,60,100,0
1,64,100,0
1,67,100,0
1,67,0,576
1,64,0,0
1,60,0,0
1,67,100,0
1,62,100,0
1,59,100,0
1,59,0,960
1,62,0,0
1,67,0,0
1,67,100,0
1,57,100,0
1,60,100,0
1,60,0,576
1,57,0,0
1,67,0,0
1,59,100,0
1,62,100,0
1,67,100,0
1,67,0,960
1,62,0,0
1,59,0,0
1,57,100,0
1,60,100,0
1,65,100,0
1,65,0,576
1,60,0,0
1,57,0,0
1,65,100,0
1,60,100,0
1,57,100,0
1,57,0,960
1,60,0,0
1,65,0,0
1,57,100,0
1,60,100,0
1,65,100,0
1,65,0,576
1,60,0,0
1,57,0,0
1,65,100,0
1,60,100,0
1,57,100,0
1,57,0,960
1,60,0,0
1,65,0,0
1,60,100,0
1,64,100,0
1,67,100,0
1,67,0,764
1,64,0,0
1,60,0,0
1,59,100,4
1,62,100,0
1,67,100,0
1,67,0,764
1,62,0,0
1,59,0,0
1,57,100,4
1,60,100,0
1,67,100,0
1,67,0,764
1,60,0,0
1,57,0,0
1,59,100,4
1,62,100,0
1,67,100,0
1,67,0,764
1,62,0,0
1,59,0,0
1,60,100,7
1,64,100,0
1,67,100,0
1,67,0,765
1,64,0,0
1,60,0,0
1,59,100,3
1,62,100,0
1,67,100,0
1,67,0,765
1,62,0,0
1,59,0,0
1,57,100,3
1,60,100,0
1,67,100,0
1,67,0,765
1,60,0,0
1,57,0,0
1,59,100,3
1,62,100,0
1,67,100,0
1,67,0,765
1,62,0,0
1,59,0,0
1,57,100,0
1,60,100,0
1,65,100,0
1,65,0,576
1,60,0,0
1,57,0,0
1,65,100,0
1,60,100,0
1,57,100,0
1,57,0,960
1,60,0,0
1,65,0,0
1,57,100,0
1,60,100,0
1,65,100,0
1,65,0,576
1,60,0,0
1,57,0,0
1,65,100,0
1,60,100,0
1,57,100,0
1,57,0,960
1,60,0,0
1,65,0,0
1,57,100,0
1,60,100,0
1,65,100,0
1,65,0,576
1,60,0,0
1,57,0,0
1,65,100,0
1,60,100,0
1,57,100,0
1,57,0,960
1,60,0,0
1,65,0,0
1,57,100,0
1,60,100,0
1,65,100,0
1,65,0,576
1,60,0,0
1,57,0,0
1,65,100,0
1,60,100,0
1,57,100,0
1,57,0,960
1,60,0,0
1,65,0,0
1,57,100,0
1,60,100,0
1,65,100,0
1,65,0,576
1,60,0,0
1,57,0,0
1,65,100,0
1,60,100,0
1,57,100,0
1,57,0,960
1,60,0,0
1,65,0,0
1,57,100,0
1,60,100,0
1,63,100,0
1,65,100,0
1,65,0,576
1,57,0,0
1,60,0,0
1,63,0,0
1,65,100,0
1,63,100,0
1,60,100,0
1,57,100,0
1,57,0,960
1,65,0,0
1,63,0,0
1,60,0,0
1,57,100,0
1,60,100,0
1,62,100,0
1,65,100,0
1,65,0,576
1,57,0,0
1,60,0,0
1,62,0,0
1,65,100,0
1,62,100,0
1,60,100,0
1,57,100,0
1,57,0,960
1,65,0,0
1,62,0,0
1,60,0,0
1,57,100,0
1,61,100,0
1,65,100,0
1,65,0,576
1,61,0,0
1,57,0,0
1,65,100,0
1,61,100,0
1,57,100,0
1,57,0,960
1,61,0,0
1,65,0,0
1,58,100,0
1,62,100,0
1,65,100,0
1,65,0,576
1,62,0,0
1,58,0,0
1,65,100,0
1,62,100,0
1,58,100,0
1,58,0,960
1,62,0,0
1,65,0,0
1,57,100,0
1,60,100,0
1,65,100,0
1,65,0,576
1,60,0,0
1,57,0,0
1,65,100,0
1,60,100,0
1,57,100,0
1,57,0,960
1,60,0,0
1,65,0,0
1,59,100,0
1,62,100,0
1,65,100,0
1,67,100,0
1,67,0,576
1,59,0,0
1,62,0,0
1,65,0,0
1,67,100,0
1,65,100,0
1,62,100,0
1,59,100,0
1,59,0,960
1,67,0,0
1,65,0,0
1,62,0,0
1,57,100,0
1,60,100,0
1,62,100,0
1,66,100,0
1,66,0,576
1,57,0,0
1,60,0,0
1,62,0,0
1,66,100,0
1,62,100,0
1,60,100,0
1,57,100,0
1,57,0,960
1,66,0,0
1,62,0,0
1,60,0,0
1,59,100,0
1,62,100,0
1,67,100,0
1,67,0,576
1,62,0,0
1,59,0,0
1,67,100,0
1,62,100,0
1,59,100,0
1,59,0,960
1,62,0,0
1,67,0,0
1,59,100,0
1,64,100,0
1,67,100,0
1,67,0,576
1,64,0,0
1,59,0,0
1,67,100,0
1,64,100,0
1,59,100,0
1,59,0,960
1,64,0,0
1,67,0,0
1,60,100,0
1,64,100,0
1,67,100,0
1,67,0,576
1,64,0,0
1,60,0,0
1,67,100,0
1,64,100,0
1,60,100,0
1,60,0,960
1,64,0,0
1,67,0,0
1,57,100,0
1,60,100,0
1,62,100,0
1,66,100,0
1,66,0,576
1,57,0,0
1,60,0,0
1,62,0,0
1,66,100,0
1,62,100,0
1,60,100,0
1,57,100,0
1,57,0,960
1,66,0,0
1,62,0,0
1,60,0,0
1,59,100,0
1,62,100,0
1,67,100,0
1,67,0,764
1,62,0,0
1,59,0,0
1,59,100,4
1,62,100,0
1,67,100,0
1,48,100,96
1,67,0,668
1,59,0,0
1,62,0,0
1,59,100,4
1,64,100,0
1,67,100,0
1,48,0,92
1,59,0,672
1,64,0,0
1,67,0,0
1,59,100,4
1,64,100,0
1,67,100,0
1,67,0,764
1,64,0,0
1,59,0,0
1,60,100,4
1,64,100,0
1,67,100,0
1,67,0,764
1,64,0,0
1,60,0,0
1,60,100,4
1,64,100,0
1,67,100,0
1,67,0,764
1,64,0,0
1,60,0,0
1,59,100,4
1,62,100,0
1,67,100,0
1,67,0,764
1,62,0,0
1,59,0,0
1,59,100,4
1,62,100,0
1,67,100,0
1,67,0,764
1,62,0,0
1,59,0,0
1,60,100,4
1,64,100,0
1,67,100,0
1,67,0,764
1,64,0,0
1,60,0,0
1,60,100,4
1,64,100,0
1,67,100,0
1,67,0,764
1,64,0,0
1,60,0,0
1,59,100,4
1,62,100,0
1,67,100,0
1,67,0,764
1,62,0,0
1,59,0,0
1,59,100,4
1,62,100,0
1,67,100,0
1,67,0,764
1,62,0,0
1,59,0,0
1,60,100,4
1,64,100,0
1,67,100,0
1,67,0,764
1,64,0,0
1,60,0,0
1,60,100,4
1,64,100,0
1,67,100,0
1,67,0,764
1,64,0,0
1,60,0,0
1,59,100,4
1,62,100,0
1,67,100,0
1,67,0,764
1,62,0,0
1,59,0,0
1,59,100,4
1,62,100,0
1,67,100,0
1,67,0,764
1,62,0,0
1,59,0,0
1,60,100,4
1,64,100,0
1,67,100,0
1,67,0,764
1,64,0,0
1,60,0,0
1,60,100,4
1,64,100,0
1,67,100,0
1,67,0,764
1,64,0,0
1,60,0,0
1,59,100,4
1,62,100,0
1,67,100,0
1,67,0,764
1,62,0,0
1,59,0,0
1,59,100,4
1,62,100,0
1,67,100,0
1,67,0,764
1,62,0,0
1,59,0,0
1,60,100,0
1,64,100,0
1,67,100,0
1,67,0,576
1,64,0,0
1,60,0,0
1,67,100,0
1,62,100,0
1,59,100,0
1,59,0,960
1,62,0,0
1,67,0,0
1,67,100,0
1,57,100,0
1,60,100,0
1,60,0,576
1,57,0,0
1,67,0,0
1,59,100,0
1,62,100,0
1,67,100,0
1,67,0,960
1,62,0,0
1,59,0,0
1,60,100,0
1,64,100,0
1,67,100,0
1,67,0,576
1,64,0,0
1,60,0,0
1,67,100,0
1,62,100,0
1,59,100,0
1,59,0,960
1,62,0,0
1,67,0,0
1,67,100,0
1,57,100,0
1,60,100,0
1,60,0,576
1,57,0,0
1,67,0,0
1,59,100,0
1,62,100,0
1,67,100,0
1,67,0,960
1,62,0,0
1,59,0,0
1,60,100,0
1,64,100,0
1,67,100,0
1,67,0,576
1,64,0,0
1,60,0,0
1,67,100,0
1,62,100,0
1,59,100,0
1,59,0,960
1,62,0,0
1,67,0,0
1,67,100,0
1,57,100,0
1,60,100,0
1,60,0,576
1,57,0,0
1,67,0,0
1,59,100,0
1,62,100,0
1,67,100,0
1,67,0,960
1,62,0,0
1,59,0,0
1,57,100,0
1,60,100,0
1,65,100,0
1,65,0,576
1,60,0,0
1,57,0,0
1,65,100,0
1,60,100,0
1,57,100,0
1,57,0,960
1,60,0,0
1,65,0,0
1,57,100,0
1,60,100,0
1,65,100,0
1,65,0,576
1,60,0,0
1,57,0,0
1,65,100,0
1,60,100,0
1,57,100,0
1,57,0,960
1,60,0,0
1,65,0,0
1,60,100,0
1,64,100,0
1,67,100,0
1,67,0,764
1,64,0,0
1,60,0,0
1,59,100,4
1,62,100,0
1,67,100,0
1,67,0,764
1,62,0,0
1,59,0,0
1,57,100,4
1,60,100,0
1,67,100,0
1,67,0,764
1,60,0,0
1,57,0,0
1,59,100,4
1,62,100,0
1,67,100,0
1,67,0,764
1,62,0,0
1,59,0,0
1,60,100,7
1,64,100,0
1,67,100,0
1,67,0,765
1,64,0,0
1,60,0,0
1,59,100,3
1,62,100,0
1,67,100,0
1,67,0,765
1,62,0,0
1,59,0,0
1,57,100,3
1,60,100,0
1,67,100,0
1,67,0,765
1,60,0,0
1,57,0,0
1,59,100,3
1,62,100,0
1,67,100,0
1,67,0,765
1,62,0,0
1,59,0,0
1,57,100,0
1,60,100,0
1,65,100,0
1,65,0,576
1,60,0,0
1,57,0,0
1,65,100,0
1,60,100,0
1,57,100,0
1,57,0,960
1,60,0,0
1,65,0,0
1,57,100,0
1,60,100,0
1,65,100,0
1,65,0,576
1,60,0,0
1,57,0,0
1,65,100,0
1,60,100,0
1,57,100,0
1,57,0,960
1,60,0,0
1,65,0,0
1,57,100,0
1,60,100,0
1,65,100,0
1,65,0,576
1,60,0,0
1,57,0,0
1,65,100,0
1,60,100,0
1,57,100,0
1,57,0,960
1,60,0,0
1,65,0,0
1,57,100,0
1,60,100,0
1,65,100,0
1,65,0,576
1,60,0,0
1,57,0,0
1,65,100,0
1,60,100,0
1,57,100,0
1,57,0,960
1,60,0,0
1,65,0,0
1,57,100,0
1,60,100,0
1,65,100,0
1,65,0,576
1,60,0,0
1,57,0,0
1,65,100,0
1,60,100,0
1,57,100,0
1,57,0,960
1,60,0,0
1,65,0,0
1,57,100,0
1,60,100,0
1,63,100,0
1,65,100,0
1,65,0,576
1,57,0,0
1,60,0,0
1,63,0,0
1,65,100,0
1,63,100,0
1,60,100,0
1,57,100,0
1,57,0,960
1,65,0,0
1,63,0,0
1,60,0,0
1,57,100,0
1,60,100,0
1,62,100,0
1,65,100,0
1,65,0,576
1,57,0,0
1,60,0,0
1,62,0,0
1,65,100,0
1,62,100,0
1,60,100,0
1,57,100,0
1,57,0,960
1,65,0,0
1,62,0,0
1,60,0,0
1,57,100,0
1,61,100,0
1,65,100,0
1,65,0,576
1,61,0,0
1,57,0,0
1,65,100,0
1,61,100,0
1,57,100,0
1,57,0,960
1,61,0,0
1,65,0,0
1,58,100,0
1,62,100,0
1,65,100,0
1,65,0,576
1,62,0,0
1,58,0,0
1,65,100,0
1,62,100,0
1,58,100,0
1,58,0,960
1,62,0,0
1,65,0,0
1,57,100,0
1,60,100,0
1,65,100,0
1,65,0,576
1,60,0,0
1,57,0,0
1,65,100,0
1,60,100,0
1,57,100,0
1,57,0,960
1,60,0,0
1,65,0,0
1,59,100,0
1,62,100,0
1,65,100,0
1,67,100,0
1,67,0,576
1,59,0,0
1,62,0,0
1,65,0,0
1,67,100,0
1,65,100,0
1,62,100,0
1,59,100,0
1,59,0,960
1,67,0,0
1,65,0,0
1,62,0,0
1,57,100,0
1,60,100,0
1,62,100,0
1,66,100,0
1,66,0,576
1,57,0,0
1,60,0,0
1,62,0,0
1,66,100,0
1,62,100,0
1,60,100,0
1,57,100,0
1,57,0,960
1,66,0,0
1,62,0,0
1,60,0,0
1,59,100,0
1,62,100,0
1,67,100,0
1,67,0,764
1,62,0,0
1,59,0,0
1,59,100,4
1,62,100,0
1,67,100,0
1,48,100,96
1,67,0,668
1,59,0,0
1,62,0,0
1,59,100,4
1,64,100,0
1,67,100,0
1,48,0,92
1,59,0,672
1,64,0,0
1,67,0,0
1,59,100,4
1,64,100,0
1,67,100,0
1,67,0,764
1,64,0,0
1,59,0,0
1,60,100,4
1,64,100,0
1,67,100,0
1,67,0,764
1,64,0,0
1,60,0,0
1,60,100,4
1,64,100,0
1,67,100,0
1,67,0,764
1,64,0,0
1,60,0,0
1,57,100,4
1,60,100,0
1,62,100,0
1,66,100,0
1,66,0,764
1,57,0,0
1,60,0,0
1,62,0,0
1,57,100,4
1,60,100,0
1,62,100,0
1,66,100,0
1,66,0,764
1,57,0,0
1,60,0,0
1,62,0,0
1,59,100,4
1,62,100,0
1,67,100,0
1,67,0,764
1,62,0,0
1,59,0,0
1,59,100,4
1,62,100,0
1,67,100,0
1,48,100,96
1,67,0,668
1,59,0,0
1,62,0,0
1,59,100,4
1,64,100,0
1,67,100,0
1,48,0,92
1,59,0,672
1,64,0,0
1,67,0,0
1,59,100,4
1,64,100,0
1,67,100,0
1,67,0,764
1,64,0,0
1,59,0,0
1,60,100,4
1,64,100,0
1,67,100,0
1,67,0,764
1,64,0,0
1,60,0,0
1,60,100,4
1,64,100,0
1,67,100,0
1,67,0,764
1,64,0,0
1,60,0,0
1,59,100,4
1,62,100,0
1,67,100,0
1,67,0,764
1,62,0,0
1,59,0,0
1,59,100,4
1,62,100,0
1,67,100,0
1,67,0,764
1,62,0,0
1,59,0,0
1,60,100,4
1,64,100,0
1,67,100,0
1,67,0,764
1,64,0,0
1,60,0,0
1,60,100,4
1,64,100,0
1,67,100,0
1,67,0,764
1,64,0,0
1,60,0,0
1,59,100,4
1,62,100,0
1,67,100,0
1,67,0,764
1,62,0,0
1,59,0,0
1,59,100,4
1,62,100,0
1,67,100,0
1,67,0,764
1,62,0,0
1,59,0,0
1,60,100,4
1,64,100,0
1,67,100,0
1,67,0,764
1,64,0,0
1,60,0,0
1,60,100,4
1,64,100,0
1,67,100,0
1,67,0,764
1,64,0,0
1,60,0,0
1,59,100,4
1,62,100,0
1,67,100,0
1,67,0,764
1,62,0,0
1,59,0,0
1,59,100,4
1,62,100,0
1,67,100,0
1,67,0,764
1,62,0,0
1,59,0,0
1,60,100,4
1,64,100,0
1,67,100,0
1,67,0,764
1,64,0,0
1,60,0,0
1,60,100,4
1,64,100,0
1,67,100,0
1,67,0,764
1,64,0,0
1,60,0,0
1,59,100,4
1,62,100,0
1,67,100,0
1,67,0,764
1,62,0,0
1,59,0,0
