track,note,velocity,time
1,67,77,2672
1,64,77,0
1,59,77,0
1,59,77,194
1,64,77,0
1,67,77,0
1,66,77,194
1,59,77,0
1,64,77,0
1,67,77,28
1,59,77,0
1,64,77,0
1,64,77,204
1,59,77,0
1,69,77,0
1,67,77,194
1,64,77,0
1,59,77,0
1,59,77,194
1,59,77,144
1,66,77,0
1,64,77,0
1,64,77,94
1,67,77,0
1,59,77,0
1,57,77,136
1,66,77,0
1,62,77,0
1,57,77,194
1,66,77,0
1,62,77,0
1,62,77,194
1,64,77,0
1,57,77,0
1,57,77,28
1,62,77,0
1,57,77,204
1,64,77,0
1,60,77,0
1,60,77,194
1,57,77,0
1,64,77,0
1,57,77,194
1,64,77,144
1,57,77,0
1,60,77,0
1,66,77,96
1,62,77,0
1,57,77,0
1,67,77,136
1,64,77,0
1,59,77,0
1,59,77,194
1,64,77,0
1,67,77,0
1,66,77,194
1,59,77,0
1,64,77,0
1,67,77,28
1,59,77,0
1,64,77,0
1,64,77,204
1,59,77,0
1,69,77,0
1,67,77,194
1,64,77,0
1,59,77,0
1,59,77,194
1,59,77,144
1,66,77,0
1,64,77,0
1,64,77,94
1,67,77,0
1,59,77,0
1,57,77,136
1,66,77,0
1,62,77,0
1,57,77,194
1,66,77,0
1,62,77,0
1,62,77,194
1,64,77,0
1,57,77,0
1,57,77,28
1,62,77,0
1,57,77,204
1,64,77,0
1,60,77,0
1,60,77,194
1,57,77,0
1,64,77,0
1,57,77,194
1,64,77,144
1,57,77,0
1,60,77,0
1,66,77,96
1,62,77,0
1,57,77,0
1,67,77,136
1,64,77,0
1,59,77,0
1,59,77,194
1,64,77,0
1,67,77,0
1,66,77,194
1,59,77,0
1,64,77,0
1,67,77,28
1,59,77,0
1,64,77,0
1,64,77,204
1,59,77,0
1,69,77,0
1,67,77,194
1,64,77,0
1,59,77,0
1,59,77,194
1,59,77,144
1,66,77,0
1,64,77,0
1,64,77,94
1,67,77,0
1,59,77,0
1,57,77,136
1,66,77,0
1,62,77,0
1,57,77,194
1,66,77,0
1,62,77,0
1,62,77,194
1,64,77,0
1,57,77,0
1,57,77,28
1,62,77,0
1,57,77,204
1,64,77,0
1,60,77,0
1,60,77,194
1,57,77,0
1,64,77,0
1,57,77,194
1,64,77,144
1,57,77,0
1,60,77,0
1,66,77,96
1,62,77,0
1,57,77,0
1,67,77,136
1,64,77,0
1,59,77,0
1,59,77,194
1,64,77,0
1,67,77,0
1,66,77,194
1,59,77,0
1,64,77,0
1,67,77,28
1,59,77,0
1,64,77,0
1,64,77,204
1,59,77,0
1,69,77,0
1,67,77,194
1,64,77,0
1,59,77,0
1,59,77,194
1,59,77,144
1,66,77,0
1,64,77,0
1,64,77,94
1,67,77,0
1,59,77,0
1,57,77,136
1,66,77,0
1,62,77,0
1,57,77,194
1,66,77,0
1,62,77,0
1,62,77,194
1,64,77,0
1,57,77,0
1,57,77,28
1,62,77,0
1,57,77,204
1,64,77,0
1,60,77,0
1,60,77,194
1,57,77,0
1,64,77,0
1,57,77,194
1,64,77,144
1,57,77,0
1,60,77,0
1,66,77,96
1,62,77,0
1,57,77,0
1,67,77,37000
1,64,77,0
1,59,77,0
1,59,77,194
1,64,77,0
1,67,77,0
1,66,77,194
1,59,77,0
1,64,77,0
1,67,77,28
1,59,77,0
1,64,77,0
1,64,77,204
1,59,77,0
1,69,77,0
1,67,77,194
1,64,77,0
1,59,77,0
1,59,77,194
1,59,77,144
1,66,77,0
1,64,77,0
1,64,77,94
1,67,77,0
1,59,77,0
1,57,77,136
1,66,77,0
1,62,77,0
1,57,77,194
1,66,77,0
1,62,77,0
1,62,77,194
1,64,77,0
1,57,77,0
1,57,77,28
1,62,77,0
1,57,77,204
1,64,77,0
1,60,77,0
1,60,77,194
1,57,77,0
1,64,77,0
1,57,77,194
1,64,77,144
1,57,77,0
1,60,77,0
1,66,77,96
1,62,77,0
1,57,77,0
1,67,77,136
1,64,77,0
1,59,77,0
1,59,77,194
1,64,77,0
1,67,77,0
1,66,77,194
1,59,77,0
1,64,77,0
1,67,77,28
1,59,77,0
1,64,77,0
1,64,77,204
1,59,77,0
1,69,77,0
1,67,77,194
1,64,77,0
1,59,77,0
1,59,77,194
1,59,77,144
1,66,77,0
1,64,77,0
1,64,77,94
1,67,77,0
1,59,77,0
1,57,77,136
1,66,77,0
1,62,77,0
1,57,77,194
1,66,77,0
1,62,77,0
1,62,77,194
1,64,77,0
1,57,77,0
1,57,77,28
1,62,77,0
1,57,77,204
1,64,77,0
1,60,77,0
1,60,77,194
1,57,77,0
1,64,77,0
1,57,77,194
1,64,77,144
1,57,77,0
1,60,77,0
1,66,77,96
1,62,77,0
1,57,77,0
1,67,77,37000
1,64,77,0
1,59,77,0
1,59,77,194
1,64,77,0
1,67,77,0
1,66,77,194
1,59,77,0
1,64,77,0
1,67,77,28
1,59,77,0
1,64,77,0
1,64,77,204
1,59,77,0
1,69,77,0
1,67,77,194
1,64,77,0
1,59,77,0
1,59,77,194
1,59,77,144
1,66,77,0
1,64,77,0
1,64,77,94
1,67,77,0
1,59,77,0
1,57,77,136
1,66,77,0
1,62,77,0
1,57,77,194
1,66,77,0
1,62,77,0
1,62,77,194
1,64,77,0
1,57,77,0
1,57,77,28
1,62,77,0
1,57,77,204
1,64,77,0
1,60,77,0
1,60,77,194
1,57,77,0
1,64,77,0
1,57,77,194
1,64,77,144
1,57,77,0
1,60,77,0
1,66,77,96
1,62,77,0
1,57,77,0
1,67,77,136
1,64,77,0
1,59,77,0
1,59,77,194
1,64,77,0
1,67,77,0
1,66,77,194
1,59,77,0
1,64,77,0
1,67,77,28
1,59,77,0
1,64,77,0
1,64,77,204
1,59,77,0
1,69,77,0
1,67,77,194
1,64,77,0
1,59,77,0
1,59,77,194
1,59,77,144
1,66,77,0
1,64,77,0
1,64,77,94
1,67,77,0
1,59,77,0
1,57,77,136
1,66,77,0
1,62,77,0
1,57,77,194
1,66,77,0
1,62,77,0
1,62,77,194
1,64,77,0
1,57,77,0
1,57,77,28
1,62,77,0
1,57,77,204
1,64,77,0
1,60,77,0
1,60,77,194
1,57,77,0
1,64,77,0
1,57,77,194
1,64,77,144
1,57,77,0
1,60,77,0
1,66,77,96
1,62,77,0
1,57,77,0
1,71,77,136
1,64,77,0
1,67,77,0
1,67,77,58
1,64,77,0
1,69,77,0
1,71,77,224
1,64,77,0
1,67,77,0
1,67,77,56
1,72,77,0
1,64,77,0
1,71,77,68
1,64,77,0
1,67,77,0
1,67,77,128
1,64,77,0
1,69,77,0
1,67,77,128
1,64,77,0
1,71,77,0
1,69,77,58
1,64,77,0
1,67,77,0
1,67,77,224
1,64,77,0
1,71,77,0
1,64,77,56
1,72,77,0
1,67,77,0
1,67,77,68
1,64,77,0
1,71,77,0
1,69,77,128
1,64,77,0
1,67,77,0
1,66,77,128
1,62,77,0
1,69,77,0
1,66,77,58
1,67,77,0
1,62,77,0
1,66,77,224
1,62,77,0
1,69,77,0
1,66,77,56
1,71,77,0
1,62,77,96
1,66,77,112
1,62,77,0
1,69,77,0
1,66,77,128
1,62,77,0
1,57,77,128
1,64,77,0
1,60,77,0
1,67,77,0
1,57,77,58
1,64,77,0
1,66,77,0
1,60,77,0
1,57,77,224
1,64,77,0
1,60,77,0
1,67,77,0
1,57,77,56
1,64,77,0
1,60,77,0
1,66,77,0
1,57,77,68
1,64,77,0
1,60,77,0
1,67,77,0
1,71,77,152
1,64,77,0
1,67,77,0
1,67,77,58
1,64,77,0
1,69,77,0
1,71,77,224
1,64,77,0
1,67,77,0
1,67,77,56
1,72,77,0
1,64,77,0
1,71,77,68
1,64,77,0
1,67,77,0
1,67,77,128
1,64,77,0
1,69,77,0
1,67,77,128
1,64,77,0
1,71,77,0
1,69,77,58
1,64,77,0
1,67,77,0
1,67,77,224
1,64,77,0
1,71,77,0
1,64,77,56
1,72,77,0
1,67,77,0
1,67,77,68
1,64,77,0
1,71,77,0
1,69,77,128
1,64,77,0
1,67,77,0
1,66,77,128
1,62,77,0
1,69,77,0
1,66,77,58
1,67,77,0
1,62,77,0
1,66,77,224
1,62,77,0
1,69,77,0
1,66,77,56
1,71,77,0
1,62,77,96
1,66,77,112
1,62,77,0
1,69,77,0
1,66,77,128
1,62,77,0
1,57,77,128
1,64,77,0
1,60,77,0
1,67,77,0
1,57,77,58
1,64,77,0
1,66,77,0
1,60,77,0
1,57,77,224
1,64,77,0
1,60,77,0
1,67,77,0
1,57,77,56
1,64,77,0
1,60,77,0
1,66,77,0
1,57,77,68
1,64,77,0
1,60,77,0
1,67,77,0
1,67,77,12440
1,64,77,0
1,59,77,0
1,59,77,194
1,64,77,0
1,67,77,0
1,66,77,194
1,59,77,0
1,64,77,0
1,67,77,28
1,59,77,0
1,64,77,0
1,64,77,204
1,59,77,0
1,69,77,0
1,67,77,194
1,64,77,0
1,59,77,0
1,59,77,194
1,59,77,144
1,66,77,0
1,64,77,0
1,64,77,94
1,67,77,0
1,59,77,0
1,57,77,136
1,66,77,0
1,62,77,0
1,57,77,194
1,66,77,0
1,62,77,0
1,62,77,194
1,64,77,0
1,57,77,0
1,57,77,28
1,62,77,0
1,57,77,204
1,64,77,0
1,60,77,0
1,60,77,194
1,57,77,0
1,64,77,0
1,57,77,194
1,64,77,144
1,57,77,0
1,60,77,0
1,66,77,96
1,62,77,0
1,57,77,0
1,67,77,136
1,64,77,0
1,59,77,0
1,59,77,194
1,64,77,0
1,67,77,0
1,66,77,194
1,59,77,0
1,64,77,0
1,67,77,28
1,59,77,0
1,64,77,0
1,64,77,204
1,59,77,0
1,69,77,0
1,67,77,194
1,64,77,0
1,59,77,0
1,59,77,194
1,59,77,144
1,66,77,0
1,64,77,0
1,64,77,94
1,67,77,0
1,59,77,0
1,57,77,136
1,66,77,0
1,62,77,0
1,57,77,194
1,66,77,0
1,62,77,0
1,62,77,194
1,64,77,0
1,57,77,0
1,57,77,28
1,62,77,0
1,57,77,204
1,64,77,0
1,60,77,0
1,60,77,194
1,57,77,0
1,64,77,0
1,57,77,194
1,64,77,144
1,57,77,0
1,60,77,0
1,66,77,96
1,62,77,0
1,57,77,0
1,71,77,24712
1,64,77,0
1,67,77,0
1,67,77,58
1,64,77,0
1,69,77,0
1,71,77,224
1,64,77,0
1,67,77,0
1,67,77,56
1,72,77,0
1,64,77,0
1,71,77,68
1,64,77,0
1,67,77,0
1,67,77,128
1,64,77,0
1,69,77,0
1,67,77,128
1,64,77,0
1,71,77,0
1,69,77,58
1,64,77,0
1,67,77,0
1,67,77,224
1,64,77,0
1,71,77,0
1,64,77,56
1,72,77,0
1,67,77,0
1,67,77,68
1,64,77,0
1,71,77,0
1,69,77,128
1,64,77,0
1,67,77,0
1,66,77,128
1,62,77,0
1,69,77,0
1,66,77,58
1,67,77,0
1,62,77,0
1,66,77,224
1,62,77,0
1,69,77,0
1,66,77,56
1,71,77,0
1,62,77,96
1,66,77,112
1,62,77,0
1,69,77,0
1,66,77,128
1,62,77,0
1,57,77,128
1,64,77,0
1,60,77,0
1,67,77,0
1,57,77,58
1,64,77,0
1,66,77,0
1,60,77,0
1,57,77,224
1,64,77,0
1,60,77,0
1,67,77,0
1,57,77,56
1,64,77,0
1,60,77,0
1,66,77,0
1,57,77,68
1,64,77,0
1,60,77,0
1,67,77,0
1,71,77,152
1,64,77,0
1,67,77,0
1,67,77,58
1,64,77,0
1,69,77,0
1,71,77,224
1,64,77,0
1,67,77,0
1,67,77,56
1,72,77,0
1,64,77,0
1,71,77,68
1,64,77,0
1,67,77,0
1,67,77,128
1,64,77,0
1,69,77,0
1,67,77,128
1,64,77,0
1,71,77,0
1,69,77,58
1,64,77,0
1,67,77,0
1,67,77,224
1,64,77,0
1,71,77,0
1,64,77,56
1,72,77,0
1,67,77,0
1,67,77,68
1,64,77,0
1,71,77,0
1,69,77,128
1,64,77,0
1,67,77,0
1,66,77,128
1,62,77,0
1,69,77,0
1,66,77,58
1,67,77,0
1,62,77,0
1,66,77,224
1,62,77,0
1,69,77,0
1,66,77,56
1,71,77,0
1,62,77,96
1,66,77,112
1,62,77,0
1,69,77,0
1,66,77,128
1,62,77,0
1,57,77,128
1,64,77,0
1,60,77,0
1,67,77,0
1,57,77,58
1,64,77,0
1,66,77,0
1,60,77,0
1,57,77,224
1,64,77,0
1,60,77,0
1,67,77,0
1,57,77,56
1,64,77,0
1,60,77,0
1,66,77,0
1,57,77,68
1,64,77,0
1,60,77,0
1,67,77,0
2,40,100,14940
2,40,100,196
2,40,100,196
2,40,100,128
2,38,100,196
2,40,100,4
2,40,100,128
2,40,100,196
2,40,100,196
2,43,100,4
2,40,100,4
2,38,100,4
2,38,100,196
2,38,100,196
2,38,100,128
2,45,100,196
2,45,100,196
2,45,100,196
2,45,100,196
2,47,100,4
2,45,100,4
2,40,100,4
2,40,100,196
2,40,100,196
2,40,100,128
2,38,100,196
2,40,100,4
2,40,100,128
2,40,100,196
2,40,100,196
2,43,100,4
2,40,100,4
2,38,100,4
2,38,100,196
2,38,100,196
2,38,100,128
2,45,100,196
2,45,100,196
2,45,100,196
2,45,100,196
2,43,100,4
2,45,100,4
2,40,100,4
2,40,100,196
2,40,100,196
2,40,100,128
2,38,100,196
2,40,100,4
2,40,100,128
2,40,100,196
2,40,100,196
2,43,100,4
2,40,100,4
2,38,100,4
2,38,100,196
2,38,100,196
2,38,100,128
2,45,100,196
2,45,100,196
2,45,100,196
2,45,100,196
2,47,100,4
2,45,100,4
2,40,100,4
2,40,100,196
2,40,100,196
2,40,100,128
2,38,100,196
2,40,100,4
2,40,100,128
2,40,100,196
2,40,100,196
2,43,100,4
2,40,100,4
2,38,100,4
2,38,100,196
2,38,100,196
2,38,100,128
2,45,100,196
2,45,100,196
2,45,100,196
2,45,100,196
2,43,100,4
2,45,100,4
2,40,100,4
2,40,100,196
2,40,100,196
2,40,100,128
2,38,100,196
2,40,100,4
2,40,100,128
2,40,100,196
2,40,100,196
2,43,100,4
2,40,100,4
2,38,100,4
2,38,100,196
2,38,100,196
2,38,100,128
2,45,100,196
2,45,100,196
2,45,100,196
2,45,100,196
2,47,100,4
2,45,100,4
2,40,100,4
2,40,100,196
2,40,100,196
2,40,100,128
2,38,100,196
2,40,100,4
2,40,100,128
2,40,100,196
2,40,100,196
2,43,100,4
2,40,100,4
2,38,100,4
2,38,100,196
2,38,100,196
2,38,100,128
2,45,100,196
2,45,100,196
2,45,100,196
2,45,100,196
2,43,100,4
2,45,100,4
2,40,100,4
2,40,100,196
2,40,100,196
2,40,100,128
2,38,100,196
2,43,100,4
2,43,100,128
2,43,100,196
2,43,100,196
2,45,100,4
2,43,100,4
2,38,100,4
2,38,100,196
2,38,100,196
2,38,100,128
2,45,100,196
2,45,100,196
2,45,100,196
2,45,100,196
2,47,100,4
2,45,100,4
2,40,100,4
2,40,100,196
2,40,100,196
2,40,100,128
2,38,100,196
2,43,100,4
2,43,100,128
2,43,100,196
2,43,100,196
2,45,100,4
2,43,100,4
2,38,100,4
2,38,100,196
2,38,100,196
2,38,100,128
2,45,100,196
2,45,100,196
2,45,100,196
2,45,100,196
2,43,100,4
2,45,100,4
2,40,100,6148
2,40,100,196
2,40,100,196
2,40,100,128
2,38,100,196
2,40,100,4
2,40,100,128
2,40,100,196
2,40,100,196
2,43,100,4
2,40,100,4
2,38,100,4
2,38,100,196
2,38,100,196
2,38,100,128
2,45,100,196
2,45,100,196
2,45,100,196
2,45,100,196
2,43,100,4
2,45,100,4
2,40,100,4
2,40,100,196
2,40,100,196
2,40,100,128
2,38,100,196
2,40,100,4
2,40,100,128
2,40,100,196
2,40,100,196
2,43,100,4
2,40,100,4
2,38,100,4
2,38,100,196
2,38,100,196
2,38,100,128
2,45,100,196
2,45,100,196
2,45,100,196
2,45,100,196
2,47,100,4
2,45,100,4
2,40,100,4
2,40,100,196
2,40,100,196
2,40,100,128
2,38,100,196
2,40,100,4
2,40,100,128
2,40,100,196
