track,note,velocity,time
0,47,94,63
0,42,69,0
0,47,81,1
0,51,73,2
0,54,60,1
0,59,66,2
0,63,69,2
0,47,0,25
0,51,0,4
0,42,0,9
0,42,100,50
0,47,86,1
0,51,86,2
0,47,0,7
0,54,0,24
0,63,0,12
0,59,0,2
0,54,86,48
0,59,105,1
0,63,109,2
0,47,0,30
0,51,0,2
0,42,0,15
0,47,76,46
0,42,62,0
0,47,86,1
0,51,64,2
0,47,0,27
0,54,0,34
0,59,0,17
0,47,84,15
0,54,60,0
0,59,35,1
0,47,0,32
0,51,0,10
0,42,0,3
0,42,66,50
0,47,81,1
0,51,73,2
0,54,0,59
0,63,0,5
0,59,0,2
0,54,105,27
0,59,115,1
0,63,115,2
0,47,0,29
0,42,0,8
0,51,0,5
0,47,0,0
0,42,77,51
0,47,66,0
0,47,77,1
0,51,66,2
0,47,0,37
0,47,0,21
0,42,0,1
0,51,0,1
0,54,0,9
0,59,0,7
0,63,0,8
0,42,62,9
0,47,82,0
0,47,77,1
0,51,60,2
0,54,49,1
0,59,66,2
0,63,54,2
0,42,0,30
0,47,0,3
0,51,0,4
0,42,77,51
0,47,86,1
0,51,77,2
0,59,0,17
0,63,0,6
0,54,0,0
0,54,96,70
0,59,115,1
0,63,109,2
0,42,0,37
0,47,0,1
0,51,0,2
0,47,0,5
0,47,62,48
0,42,86,0
0,47,81,1
0,51,73,2
0,47,0,25
0,54,0,50
0,47,90,18
0,54,66,0
0,42,0,30
0,47,0,9
0,51,0,4
0,47,0,17
0,42,86,36
0,42,77,0
0,47,77,1
0,51,62,2
0,54,0,59
0,63,0,5
0,59,0,4
0,44,94,25
0,54,100,0
0,59,105,1
0,42,0,1
0,63,105,1
0,47,0,34
0,42,0,1
0,51,0,3
0,44,0,53
0,46,108,2
0,42,62,0
0,47,81,1
0,51,62,2
0,42,0,63
0,47,0,1
0,46,0,5
0,59,0,1
0,51,0,0
0,54,0,3
0,63,0,5
0,66,120,14
0,47,94,1
0,42,69,0
0,47,60,1
0,51,52,2
0,54,54,1
0,59,64,2
0,63,69,2
0,47,0,31
0,42,0,9
0,51,0,1
0,42,64,47
0,47,77,1
0,51,58,2
0,54,0,39
0,59,0,26
0,63,0,2
0,47,0,2
0,66,0,15
0,54,96,9
0,59,100,1
0,68,100,1
0,63,109,1
0,47,0,44
0,51,0,4
0,42,0,5
0,42,64,40
0,47,77,1
0,51,64,2
0,54,0,33
0,47,90,60
0,54,56,0
0,47,0,25
0,51,0,0
0,42,0,5
0,42,77,66
0,47,64,1
0,51,66,2
0,54,0,33
0,59,0,9
0,63,0,2
0,68,0,19
0,54,77,30
0,59,96,1
0,66,100,1
0,63,100,1
0,47,0,5
0,51,0,31
0,47,0,2
0,42,0,3
0,66,0,38
0,64,92,12
0,42,77,2
0,47,77,1
0,51,73,2
0,47,0,46
0,63,0,0
0,59,0,4
0,54,0,1
0,51,0,7
0,42,0,5
0,64,0,24
0,62,127,2
0,44,77,4
0,44,82,0
0,51,58,1
0,56,56,2
0,59,58,1
0,63,66,2
0,62,0,8
0,63,118,2
0,51,0,13
0,44,0,9
0,63,0,40
0,44,92,18
0,51,77,1
0,61,92,3
0,56,0,25
0,59,0,7
0,63,0,6
0,61,0,38
0,59,88,14
0,44,0,2
0,56,100,0
0,59,105,1
0,63,109,2
0,44,0,35
0,51,0,9
0,44,77,49
0,44,78,0
0,51,64,1
0,44,0,15
0,56,0,30
0,44,102,50
0,56,52,0
0,44,0,40
0,51,0,15
0,44,73,41
0,51,73,1
0,56,0,39
0,59,0,13
0,63,0,6
0,56,64,37
0,59,86,1
0,63,96,2
0,59,0,23
0,44,0,0
0,51,0,7
0,44,0,17
0,44,92,46
0,51,69,1
0,59,0,34
0,56,0,1
0,63,0,3
0,44,0,13
0,51,0,3
0,37,90,41
0,44,60,0
0,53,52,1
0,56,62,2
0,59,60,1
0,65,64,2
0,53,0,39
0,44,0,3
0,44,81,48
0,49,96,1
0,53,60,2
0,65,0,39
0,56,0,9
0,59,0,9
0,71,92,28
0,56,96,8
0,59,105,1
0,65,105,2
0,49,0,32
0,44,0,3
0,53,0,5
0,71,0,13
0,71,112,36
0,44,69,4
0,49,77,1
0,53,60,2
0,37,0,11
0,56,0,26
0,71,0,30
0,56,52,26
0,37,98,0
0,71,104,10
0,44,0,46
0,49,0,3
0,53,0,12
0,44,66,25
0,49,81,1
0,53,60,2
0,56,0,53
0,65,0,1
0,59,0,16
0,56,96,23
0,59,100,1
0,65,109,2
0,49,0,38
0,44,0,1
0,53,0,17
0,44,73,37
0,49,73,1
0,72,100,1
0,53,64,1
0,71,0,1
0,72,0,8
0,73,96,2
0,37,0,10
0,44,0,30
0,59,0,1
0,56,0,1
0,65,0,5
0,49,0,4
0,53,0,14
0,73,0,15
0,42,60,2
0,42,102,0
0,54,52,1
0,58,52,2
0,61,64,1
0,66,54,2
0,69,122,2
0,69,0,8
0,70,104,4
0,54,0,15
0,42,0,15
0,70,0,42
0,42,60,4
0,49,77,1
0,54,60,2
0,68,82,11
0,58,0,33
0,61,0,11
0,66,0,0
0,68,0,26
0,58,86,12
0,61,96,1
0,66,105,2
0,66,82,11
0,42,0,12
0,42,0,8
0,54,0,17
0,49,0,2
0,42,77,43
0,49,81,1
0,54,66,2
0,58,0,57
0,42,82,36
0,58,73,0
0,42,0,22
0,42,0,26
0,54,0,1
0,49,0,6
0,42,108,41
0,42,73,0
0,49,77,1
0,54,64,2
0,58,0,51
0,61,0,21
0,66,0,4
0,58,86,17
0,44,84,0
0,61,100,1
0,42,0,1
0,66,100,1
0,42,0,27
0,54,0,7
0,49,0,4
0,66,0,15
0,44,0,34
0,46,94,6
0,42,81,0
0,49,81,1
0,54,64,2
0,61,0,48
0,58,0,1
0,66,0,7
0,42,0,5
0,54,0,15
0,49,0,0
0,46,0,13
0,47,94,4
0,42,69,0
0,66,120,0
0,47,60,1
0,51,52,2
0,54,54,1
0,59,64,2
0,63,69,2
0,47,0,31
0,42,0,9
0,51,0,1
0,42,64,47
0,47,77,1
0,51,58,2
0,54,0,39
0,59,0,26
0,63,0,2
0,47,0,2
0,66,0,16
0,54,96,8
0,59,100,1
0,63,109,2
0,68,100,3
0,47,0,41
0,51,0,4
0,42,0,5
0,42,64,40
0,47,77,1
0,51,64,2
0,54,0,33
0,54,56,60
0,47,90,0
0,47,0,25
0,51,0,0
0,42,0,5
0,42,77,66
0,47,64,1
0,51,66,2
0,54,0,33
0,59,0,9
0,63,0,2
0,68,0,23
0,54,77,26
0,59,96,1
0,66,100,1
0,63,100,1
0,47,0,5
0,51,0,31
0,47,0,2
0,42,0,3
0,66,0,38
0,64,92,12
0,42,77,2
0,47,77,1
0,51,73,2
0,47,0,46
0,63,0,0
0,59,0,4
0,54,0,1
0,51,0,7
0,42,0,5
0,64,0,24
0,62,127,2
0,44,77,4
0,44,82,0
0,51,58,1
0,56,56,2
0,59,58,1
0,63,66,2
0,62,0,8
0,63,118,2
0,51,0,13
0,44,0,9
0,63,0,40
0,44,92,18
0,51,77,1
0,61,92,3
0,56,0,25
0,59,0,7
0,63,0,6
0,61,0,38
0,59,88,14
0,56,100,2
0,59,105,1
0,63,109,2
0,44,0,13
0,44,0,22
0,51,0,9
0,44,72,49
0,44,77,0
0,51,64,1
0,44,0,11
0,56,0,34
0,44,98,50
0,56,52,0
0,44,0,40
0,51,0,15
0,44,73,41
0,51,73,1
0,56,0,39
0,44,0,10
0,59,0,3
0,63,0,6
0,44,82,37
0,56,64,0
0,59,86,1
0,63,96,2
0,59,0,23
0,44,0,0
0,51,0,7
0,44,0,47
0,42,90,16
0,44,92,0
0,51,69,1
0,59,0,34
0,56,0,1
0,63,0,3
0,44,0,13
0,51,0,3
0,42,0,25
0,40,94,16
0,52,56,0
0,56,47,1
0,59,60,2
0,64,66,1
0,64,88,2
0,52,0,10
0,64,0,74
0,40,92,6
0,59,0,1
0,47,66,0
0,52,60,2
0,56,0,4
0,40,0,77
0,56,96,12
0,59,105,1
0,64,109,2
0,52,0,32
0,47,0,12
0,47,73,49
0,52,62,1
0,56,0,27
0,52,0,43
0,56,64,25
0,40,112,0
0,52,77,96
0,56,0,38
0,64,0,7
0,59,0,4
0,64,0,7
0,64,108,32
0,56,96,8
0,59,100,1
0,64,100,2
0,40,0,39
0,52,0,10
0,47,0,10
0,63,104,26
0,64,0,6
0,40,81,2
0,47,69,1
0,52,64,2
0,40,0,5
0,40,0,42
0,52,0,3
0,47,0,2
0,59,0,0
0,64,0,0
0,56,0,1
0,63,0,26
0,42,102,14
0,42,60,0
0,61,82,0
0,54,52,1
0,58,52,2
0,61,64,1
0,66,54,2
0,54,0,29
0,42,0,15
0,42,60,46
0,49,77,1
0,54,60,2
0,58,0,44
0,61,0,11
0,66,0,0
0,58,86,38
0,61,96,1
0,66,105,2
0,42,0,23
0,42,0,8
0,54,0,17
0,49,0,2
0,42,77,43
0,49,81,1
0,54,66,2
0,58,0,57
0,42,82,36
0,58,73,0
0,42,0,22
0,42,0,26
0,54,0,1
0,49,0,6
0,42,73,41
0,42,108,0
0,49,77,1
0,54,64,2
0,58,0,51
0,61,0,21
0,66,0,4
0,44,84,17
0,58,86,0
0,61,100,1
0,42,0,1
0,66,100,1
0,42,0,27
0,54,0,7
0,49,0,4
0,61,0,45
0,44,0,4
0,46,94,6
0,42,81,0
0,49,81,1
0,54,64,2
0,61,0,48
0,58,0,1
0,66,0,7
0,42,0,5
0,54,0,15
0,49,0,0
0,46,0,13
0,66,120,4
0,42,69,0
0,47,60,1
0,51,52,2
0,47,84,1
0,54,54,0
0,59,64,2
0,63,69,2
0,47,0,31
0,42,0,9
0,51,0,1
0,42,64,47
0,47,77,1
0,51,58,2
0,54,0,39
0,59,0,26
0,63,0,2
0,66,0,18
0,54,96,8
0,59,100,1
0,68,100,1
0,63,109,1
0,47,0,35
0,47,0,9
0,51,0,4
0,42,0,5
0,42,64,40
0,47,77,1
0,51,64,2
0,54,0,33
0,42,98,56
0,54,56,4
0,47,0,25
0,51,0,0
0,42,0,5
0,42,77,66
0,47,64,1
0,51,66,2
0,54,0,33
0,59,0,9
0,63,0,2
0,68,0,19
0,54,77,30
0,59,96,1
0,66,100,1
0,63,100,1
0,42,0,3
0,51,0,33
0,47,0,2
0,42,0,3
0,66,0,38
0,64,92,12
0,42,77,2
0,47,77,1
0,42,94,1
0,51,73,1
0,47,0,46
0,63,0,0
0,59,0,4
0,54,0,1
0,51,0,7
0,42,0,5
0,64,0,24
0,42,0,2
0,62,127,0
0,44,77,4
0,51,58,1
0,56,56,2
0,59,58,1
0,63,66,2
0,62,0,8
0,44,80,0
0,63,118,2
0,51,0,13
0,44,0,9
0,63,0,40
0,44,92,18
0,51,77,1
0,61,92,3
0,56,0,25
0,59,0,7
0,63,0,6
0,61,0,38
0,59,88,14
0,56,100,2
0,59,105,1
0,63,109,2
0,44,0,35
0,44,0,6
0,51,0,3
0,44,77,49
0,51,64,1
0,44,86,5
0,56,0,40
0,44,0,40
0,56,52,10
0,39,82,4
0,44,0,36
0,51,0,15
0,44,73,41
0,51,73,1
0,56,0,39
0,59,0,13
0,63,0,6
0,56,64,37
0,59,86,1
0,44,80,1
0,63,96,1
0,39,0,3
0,44,0,20
0,59,0,0
0,51,0,7
0,44,92,63
0,51,69,1
0,59,0,34
0,56,0,1
0,63,0,3
0,44,0,13
0,51,0,3
0,44,60,41
0,53,52,1
0,44,0,1
0,56,62,1
0,59,60,1
0,65,64,2
0,37,98,0
0,53,0,39
0,44,0,3
0,44,81,48
0,49,96,1
0,53,60,2
0,65,0,39
0,56,0,9
0,59,0,9
0,71,92,28
0,56,96,8
0,59,105,1
0,65,105,2
0,49,0,32
0,44,0,3
0,53,0,5
0,71,0,13
0,71,112,36
0,44,69,4
0,49,77,1
0,53,60,2
0,56,0,37
0,71,0,30
0,37,0,26
0,56,52,0
0,44,84,10
0,71,104,0
0,44,0,46
0,49,0,3
0,53,0,12
0,44,66,25
0,49,81,1
0,53,60,2
0,56,0,53
0,65,0,1
0,59,0,16
0,56,96,23
0,37,98,0
0,59,100,1
0,65,109,2
0,44,0,1
0,49,0,37
0,44,0,1
0,53,0,17
0,44,73,37
0,49,73,1
0,72,100,1
0,53,64,1
0,71,0,1
0,72,0,8
0,73,96,2
0,44,0,40
0,59,0,1
0,56,0,1
0,65,0,5
0,49,0,4
0,37,0,1
0,53,0,13
0,73,0,15
0,42,84,2
0,42,60,0
0,49,58,1
0,54,47,2
0,58,35,1
0,61,47,2
0,66,45,2
0,69,122,0
0,69,0,8
0,70,104,4
0,49,0,35
0,54,0,10
0,42,0,1
0,70,0,26
0,42,39,4
0,49,64,1
0,54,49,2
0,68,82,11
0,58,0,12
0,66,0,6
0,61,0,6
0,68,0,46
0,58,81,12
0,61,96,1
0,66,100,2
0,66,82,11
0,42,0,10
0,54,0,29
0,42,0,1
0,49,0,1
0,37,84,41
0,42,56,0
0,49,81,1
0,37,0,29
0,58,0,30
0,42,82,36
0,58,77,0
0,54,73,96
0,58,0,40
0,66,0,3
0,61,0,6
0,42,0,19
0,42,90,28
0,58,81,0
0,61,86,1
0,66,92,2
0,54,0,29
0,66,0,24
0,42,0,18
0,41,84,22
0,53,100,0
0,42,0,38
0,66,0,5
0,49,0,0
0,41,0,1
0,61,0,3
0,58,0,9
0,53,0,10
0,40,62,30
0,40,102,0
0,47,66,1
0,52,58,2
0,56,47,1
0,59,60,2
0,64,54,2
0,47,0,41
0,52,0,2
0,40,0,3
0,40,62,42
0,47,77,1
0,52,64,2
0,40,0,37
0,56,0,10
0,59,0,6
0,64,0,4
0,56,96,36
0,59,92,1
0,64,105,2
0,52,0,50
0,40,0,5
0,47,0,1
0,40,62,37
0,47,81,1
0,52,62,2
0,56,0,51
0,40,102,42
0,56,66,0
0,67,126,2
0,67,0,20
0,68,104,2
0,52,0,27
0,40,0,5
0,47,0,1
0,40,52,39
0,47,64,1
0,52,49,2
0,40,0,41
0,64,0,9
0,59,0,8
0,56,0,5
0,56,66,30
0,59,77,1
0,64,96,2
0,40,0,37
0,47,0,1
0,52,0,10
0,68,0,1
0,64,82,24
0,40,86,20
0,47,64,1
0,64,0,27
0,61,92,24
0,40,0,2
0,64,0,3
0,47,0,4
0,56,0,5
0,59,0,11
0,35,108,19
0,42,56,0
0,47,43,1
0,51,73,2
0,54,47,1
0,59,81,2
0,63,81,2
0,61,0,4
0,47,0,1
0,42,0,3
0,51,0,13
0,59,78,3
0,42,64,64
0,47,60,1
0,51,60,2
0,54,0,29
0,63,0,2
0,35,0,4
0,59,0,4
0,59,0,38
0,63,86,16
0,54,96,0
0,59,100,1
0,42,0,1
0,63,115,1
0,47,0,6
0,51,0,0
0,42,77,87
0,47,77,1
0,51,66,2
0,63,0,3
0,66,96,14
0,54,0,42
0,35,94,34
0,54,60,0
0,47,0,51
0,51,0,12
0,42,0,7
0,42,64,26
0,47,64,1
0,51,64,2
0,54,0,55
0,66,0,4
0,63,0,3
0,59,0,8
0,54,77,23
0,59,96,1
0,63,105,2
0,35,0,21
0,47,0,3
0,51,0,20
0,42,0,5
0,42,73,44
0,47,64,1
0,51,60,2
0,47,0,46
0,54,0,5
0,63,0,3
0,59,0,2
0,51,0,4
0,42,0,1
0,40,62,32
0,40,102,0
0,47,66,1
0,52,58,2
0,56,47,1
0,59,60,2
0,64,54,2
0,47,0,41
0,52,0,2
0,40,0,3
0,40,62,42
0,47,77,1
0,52,64,2
0,40,0,37
0,56,0,10
0,59,0,6
0,64,0,4
0,56,96,36
0,59,92,1
0,64,105,2
0,52,0,50
0,40,0,5
0,47,0,1
0,40,62,37
0,47,81,1
0,52,62,2
0,56,0,51
0,56,66,42
0,40,102,0
0,67,126,2
0,67,0,20
0,68,104,2
0,52,0,27
0,40,0,5
0,47,0,1
0,40,52,39
0,47,64,1
0,52,49,2
0,40,0,41
0,64,0,9
0,59,0,8
0,56,0,5
