track,note,velocity,time
1,64,106,0
1,62,96,0
1,64,108,64
1,65,111,0
1,65,100,64
1,67,115,64
1,67,115,1536
1,64,108,0
1,62,111,60
1,60,95,0
1,62,111,64
1,64,110,64
1,64,115,64
1,65,115,0
1,64,87,0
1,62,94,0
1,60,79,1792
1,60,96,0
1,60,111,64
1,59,108,0
1,60,117,64
1,62,119,64
1,62,102,42
1,64,119,22
1,60,113,1472
1,59,117,0
1,55,111,896
1,65,111,0
1,65,95,64
1,67,96,192
1,62,91,0
1,64,94,64
1,62,100,0
1,60,100,0
1,64,106,128
1,62,96,0
1,64,108,64
1,65,111,0
1,65,100,64
1,67,115,64
1,67,115,1536
1,64,108,0
1,62,111,60
1,60,95,0
1,62,111,64
1,64,110,64
1,64,115,64
1,65,115,0
1,64,87,0
1,62,94,0
1,60,79,1792
1,60,96,0
1,60,111,64
1,59,108,0
1,60,117,64
1,62,119,64
1,62,102,42
1,64,119,22
1,60,113,1472
1,59,117,0
1,55,111,896
1,65,111,0
1,65,95,64
1,67,96,192
1,62,91,0
1,64,94,64
1,62,100,0
1,60,100,0
1,60,113,128
1,59,108,0
1,57,112,0
1,59,116,0
1,60,117,0
1,59,109,480
1,60,113,0
1,62,112,0
1,60,108,0
1,59,112,0
1,60,112,0
1,62,117,0
1,60,118,192
1,62,113,96
1,65,118,0
1,62,116,0
1,60,111,0
1,62,112,0
1,65,116,0
1,60,116,192
1,60,104,48
1,69,117,48
1,67,111,192
1,67,115,48
1,64,112,0
1,67,114,0
1,72,118,48
1,69,116,0
1,67,104,96
1,64,104,96
1,62,99,0
1,60,104,96
1,57,104,0
1,72,126,384
1,69,119,96
1,67,113,96
1,64,119,0
1,62,111,0
1,60,113,96
1,57,115,0
1,64,111,672
1,67,111,0
1,69,121,96
1,67,110,0
1,72,121,96
1,69,119,96
1,67,104,0
1,64,104,96
1,62,99,0
1,60,104,96
1,57,104,0
1,72,126,384
1,69,119,96
1,67,113,96
1,64,119,0
1,62,111,0
1,60,113,96
1,57,115,0
1,64,111,672
1,67,111,0
1,69,121,96
1,67,110,0
1,64,106,288
1,62,96,0
1,64,108,64
1,65,111,0
1,65,100,64
1,67,115,64
1,67,115,1536
1,64,108,0
1,62,111,60
1,60,95,0
1,62,111,64
1,64,110,64
1,64,115,64
1,65,115,0
1,64,87,0
1,62,94,0
1,60,79,1792
1,60,96,0
1,60,111,64
1,59,108,0
1,60,117,64
1,62,119,64
1,62,102,42
1,64,119,22
1,60,113,1472
1,59,117,0
1,55,111,896
1,65,111,0
1,65,95,64
1,67,96,192
1,62,91,0
1,64,94,64
1,62,100,0
1,60,100,0
1,64,106,128
1,62,96,0
1,64,108,64
1,65,111,0
1,65,100,64
1,67,115,64
1,67,115,1536
1,64,108,0
1,62,111,60
1,60,95,0
1,62,111,64
1,64,110,64
1,64,115,64
1,65,115,0
1,64,87,0
1,62,94,0
1,60,79,1792
1,60,96,0
1,60,111,64
1,59,108,0
1,60,117,64
1,62,119,64
1,62,102,42
1,64,119,22
1,60,113,1472
1,59,117,0
1,55,111,896
1,65,111,0
1,65,95,64
1,67,96,192
1,62,91,0
1,64,94,64
1,62,100,0
1,60,100,0
1,60,113,128
1,59,108,0
1,57,112,0
1,59,116,0
1,60,117,0
1,59,109,480
1,60,113,0
1,62,112,0
1,60,108,0
1,59,112,0
1,60,112,0
1,62,117,0
1,60,118,192
1,62,113,96
1,65,118,0
1,62,116,0
1,60,111,0
1,62,112,0
1,65,116,0
1,60,116,192
1,60,104,48
1,69,117,48
1,67,111,192
1,67,115,48
1,64,112,0
1,67,114,0
1,72,118,48
1,69,116,0
1,67,104,96
1,64,104,96
1,62,99,0
1,60,104,96
1,57,104,0
1,72,126,384
1,69,119,96
1,67,113,96
1,64,119,0
1,62,111,0
1,60,113,96
1,57,115,0
1,64,111,672
1,67,111,0
1,69,121,96
1,67,110,0
1,72,121,96
1,69,119,96
1,67,104,0
1,64,104,96
1,62,99,0
1,60,104,96
1,57,104,0
1,72,126,384
1,69,119,96
1,67,113,96
1,64,119,0
1,62,111,0
1,60,113,96
1,57,115,0
1,64,111,672
1,67,111,0
1,69,121,96
1,67,110,0
1,65,113,672
1,64,111,96
1,62,104,96
1,60,115,96
1,62,108,96
1,60,113,0
1,62,110,96
1,60,115,192
1,62,108,0
1,64,119,0
1,65,123,2016
1,64,123,96
1,62,111,0
1,60,117,0
1,62,111,96
1,60,119,0
1,62,115,0
1,63,104,0
1,67,127,0
1,65,115,0
1,69,127,288
1,67,123,0
1,69,87,0
1,64,106,1344
1,62,96,0
1,64,108,64
1,65,111,0
1,65,100,64
1,67,115,64
1,67,115,1536
1,64,108,0
1,62,111,60
1,60,95,0
1,62,111,64
1,64,110,64
1,64,115,64
1,65,115,0
1,64,87,0
1,62,94,0
1,60,79,1792
1,60,96,0
1,60,111,64
1,59,108,0
1,60,117,64
1,62,119,64
1,62,102,42
1,64,119,22
1,60,113,1472
1,59,117,0
1,55,111,896
1,65,111,0
1,65,95,64
1,67,96,192
1,62,91,0
1,64,94,64
1,62,100,0
1,60,100,0
1,64,106,128
1,62,96,0
1,64,108,64
1,65,111,0
1,65,100,64
1,67,115,64
1,67,115,1536
1,64,108,0
1,62,111,60
1,60,95,0
1,62,111,64
1,64,110,64
1,64,115,64
1,65,115,0
1,64,87,0
1,62,94,0
1,60,79,1792
1,60,96,0
1,60,111,64
1,59,108,0
1,60,117,64
1,62,119,64
1,62,102,42
1,64,119,22
1,60,113,1472
1,59,117,0
1,55,111,896
1,65,111,0
1,65,95,64
1,67,96,192
1,62,91,0
1,64,94,64
1,62,100,0
1,60,100,0
1,60,113,128
1,59,108,0
1,57,112,0
1,59,116,0
1,60,117,0
1,59,109,480
1,60,113,0
1,62,112,0
1,60,108,0
1,59,112,0
1,60,112,0
1,62,117,0
1,60,118,192
1,62,113,96
1,65,118,0
1,62,116,0
1,60,111,0
1,62,112,0
1,65,116,0
1,60,116,192
1,60,104,48
1,69,117,48
1,67,111,192
1,67,115,48
1,64,112,0
1,67,114,0
1,73,118,48
1,70,116,0
1,68,104,96
1,65,104,96
1,63,99,0
1,61,104,96
1,58,104,0
1,73,126,384
1,70,119,96
1,68,113,96
1,65,119,0
1,63,111,0
1,61,113,96
1,58,115,0
1,65,111,672
1,68,111,0
1,70,121,96
1,68,110,0
1,73,121,96
1,70,119,96
1,68,104,0
1,65,104,96
1,63,99,0
1,61,104,96
1,58,104,0
1,73,126,384
1,70,119,96
1,68,113,96
1,65,119,0
1,63,111,0
1,61,113,96
1,58,115,0
1,65,111,672
1,68,111,0
1,70,121,96
1,68,110,0
1,73,123,84
1,70,124,14
1,68,104,46
1,65,104,96
1,63,99,0
1,61,104,96
1,58,104,0
1,73,126,384
1,70,119,96
1,68,113,96
1,65,119,0
1,63,111,0
1,61,113,96
1,58,115,0
1,65,111,672
1,68,111,0
1,70,121,96
1,68,110,0
1,73,121,96
1,70,119,96
1,68,104,0
1,65,104,96
1,63,99,0
1,61,104,96
1,58,104,0
1,73,126,384
1,70,119,96
1,68,113,96
1,65,119,0
1,63,111,0
1,61,113,96
1,58,115,0
1,65,111,672
1,68,111,0
1,70,121,96
1,68,110,0
1,73,123,84
1,70,124,14
1,68,104,46
1,65,104,96
1,63,99,0
1,61,104,96
1,58,104,0
1,73,126,384
1,70,119,96
1,68,113,96
1,65,119,0
1,63,111,0
1,61,113,96
1,58,115,0
1,65,111,672
1,68,111,0
1,70,121,96
1,68,110,0
1,73,121,96
1,70,119,96
1,68,104,0
1,65,104,96
1,63,99,0
1,61,104,96
1,58,104,0
1,73,126,384
1,70,119,96
1,68,113,96
1,65,119,0
1,63,111,0
1,61,113,96
1,58,115,0
1,65,111,672
1,68,111,0
1,70,121,96
1,68,110,0
2,36,127,0
2,48,127,0
2,50,127,288
2,48,120,0
2,43,112,96
2,41,116,96
2,36,127,94
2,48,118,96
2,50,127,384
2,48,124,34
2,36,119,96
2,43,115,96
2,34,120,0
2,46,119,0
2,48,127,288
2,46,112,288
2,41,107,96
2,43,110,96
2,34,127,94
2,46,124,96
2,48,124,192
2,46,113,288
2,34,124,96
2,41,119,94
2,33,126,0
2,45,127,0
2,45,107,6
2,47,127,0
2,45,113,0
2,43,111,0
2,40,115,96
2,33,127,0
2,45,124,0
2,43,118,288
2,45,114,0
2,33,115,0
2,47,120,0
2,31,127,0
2,43,127,0
2,43,127,192
2,45,119,0
2,31,127,0
2,43,127,0
2,29,127,0
2,41,124,0
2,41,115,192
2,31,127,96
2,43,111,0
2,36,127,192
2,48,127,0
2,50,127,288
2,48,120,0
2,43,112,96
2,41,116,96
2,36,127,94
2,48,118,96
2,50,127,384
2,48,124,34
2,36,119,96
2,43,115,96
2,34,120,0
2,46,119,0
2,48,127,288
2,46,112,288
2,41,107,96
2,43,110,96
2,34,127,94
2,46,124,96
2,48,124,192
2,46,113,288
2,34,124,96
2,41,119,94
2,33,126,0
2,45,127,0
2,45,107,6
2,47,127,0
2,45,113,0
2,43,111,0
2,40,115,96
2,33,127,0
2,45,124,0
2,43,118,288
2,45,114,0
2,33,115,0
2,47,120,0
2,31,127,0
2,43,127,0
2,43,127,192
2,45,119,0
2,31,127,0
2,43,127,0
2,29,127,0
2,41,124,0
2,41,115,192
2,31,127,96
2,43,111,0
2,36,127,192
2,48,127,0
2,50,127,288
2,48,120,0
2,43,112,96
2,41,116,96
2,36,127,94
2,48,118,96
2,50,127,384
2,48,124,34
2,36,119,96
2,43,115,96
2,34,120,0
2,46,119,0
2,48,127,288
2,46,112,288
2,41,107,96
2,43,110,96
2,34,127,94
2,46,124,96
2,48,124,192
2,46,113,288
2,34,124,96
2,41,119,94
2,33,126,0
2,45,127,0
2,45,107,6
2,47,127,0
2,45,113,0
2,43,111,0
2,40,115,96
2,33,127,0
2,45,124,0
2,43,118,288
2,45,114,0
2,33,115,0
2,47,120,0
2,31,127,0
2,43,127,0
2,43,127,192
2,45,119,0
2,31,127,0
2,43,127,0
2,29,127,0
2,41,124,0
2,41,115,192
2,31,127,96
2,43,111,0
2,41,126,192
2,38,113,184
2,36,116,162
2,38,112,166
2,41,127,176
2,41,111,58
2,41,107,54
2,43,116,4
2,40,108,6
2,38,108,180
2,40,116,158
2,43,119,178
2,43,120,64
2,43,122,58
2,41,103,90
2,38,112,190
2,36,116,172
2,38,113,170
2,41,115,174
2,41,124,40
2,40,59,34
2,43,120,56
2,43,115,56
2,43,92,50
2,38,118,296
2,31,118,50
2,36,127,76
2,48,127,0
2,43,124,192
2,45,126,0
2,43,122,0
2,38,119,192
2,40,99,0
2,36,127,0
2,48,127,96
2,43,127,192
2,45,110,96
2,43,127,0
2,45,101,192
2,43,116,0
2,36,127,0
2,48,127,96
2,43,127,96
2,45,116,0
2,43,115,0
2,38,127,192
2,40,113,0
2,36,127,0
2,48,126,0
2,51,112,288
2,52,110,0
2,48,120,96
2,43,120,192
2,45,112,0
2,36,127,0
2,48,127,0
2,43,120,192
2,45,119,0
2,43,115,0
2,31,126,96
2,33,112,0
2,36,127,0
2,48,127,96
2,43,127,192
2,45,118,0
2,43,127,0
2,45,124,192
2,36,127,0
2,48,127,0
2,43,120,192
2,45,106,0
2,43,120,192
2,40,114,0
2,36,127,0
2,48,127,0
2,43,124,288
2,45,102,0
2,36,127,96
2,38,107,0
2,40,96,0
2,36,127,96
2,48,127,0
2,50,127,288
2,48,120,0
2,43,112,96
2,41,116,96
2,36,127,94
2,48,118,96
2,50,127,384
2,48,124,34
2,36,119,96
2,43,115,96
2,34,120,0
2,46,119,0
2,48,127,288
2,46,112,288
2,41,107,96
2,43,110,96
2,34,127,94
2,46,124,96
2,48,124,192
2,46,113,288
2,34,124,96
2,41,119,94
2,33,126,0
2,45,127,0
2,45,107,6
2,47,127,0
2,45,113,0
2,43,111,0
2,40,115,96
2,33,127,0
2,45,124,0
2,43,118,288
2,45,114,0
2,33,115,0
2,47,120,0
2,31,127,0
2,43,127,0
2,43,127,192
2,45,119,0
2,31,127,0
2,43,127,0
2,29,127,0
2,41,124,0
2,41,115,192
2,31,127,96
2,43,111,0
2,36,127,192
2,48,127,0
2,50,127,288
2,48,120,0
2,43,112,96
2,41,116,96
2,36,127,94
2,48,118,96
2,50,127,384
2,48,124,34
2,36,119,96
2,43,115,96
2,34,120,0
2,46,119,0
2,48,127,288
2,46,112,288
2,41,107,96
2,43,110,96
2,34,127,94
2,46,124,96
2,48,124,192
2,46,113,288
2,34,124,96
2,41,119,94
2,33,126,0
2,45,127,0
2,45,107,6
2,47,127,0
2,45,113,0
2,43,111,0
2,40,115,96
2,33,127,0
2,45,124,0
2,43,118,288
2,45,114,0
2,33,115,0
2,47,120,0
2,31,127,0
2,43,127,0
2,43,127,192
2,45,119,0
2,31,127,0
2,43,127,0
2,29,127,0
2,41,124,0
2,41,115,192
2,31,127,96
2,43,111,0
2,41,126,192
2,38,113,184
2,36,116,162
2,38,112,166
2,41,127,176
2,41,111,58
2,41,107,54
2,43,116,4
2,40,108,6
2,38,108,180
2,40,116,158
2,43,119,178
2,43,120,64
2,43,122,58
2,41,103,90
2,38,112,190
2,36,116,172
2,38,113,170
2,41,115,174
2,41,124,40
2,40,59,34
2,43,120,56
2,43,115,56
2,43,92,50
2,38,118,296
2,31,118,50
2,36,127,76
2,48,127,0
2,43,124,192
2,45,126,0
2,43,122,0
2,38,119,192
2,40,99,0
2,36,127,0
2,48,127,96
2,43,127,192
2,45,110,96
2,43,127,0
2,45,101,192
2,43,116,0
2,36,127,0
2,48,127,96
2,43,127,96
2,45,116,0
2,43,115,0
2,38,127,192
2,40,113,0
2,36,127,0
2,48,126,0
2,51,112,288
2,52,110,0
2,48,120,96
2,43,120,192
2,45,112,0
2,36,127,0
2,48,127,0
2,43,120,192
2,45,119,0
2,43,115,0
2,31,126,96
2,33,112,0
2,36,127,0
2,48,127,96
2,43,127,192
2,45,118,0
2,43,127,0
2,45,124,192
2,36,127,0
2,48,127,0
2,43,120,192
2,45,106,0
2,43,120,192
2,40,114,0
2,36,127,0
2,48,127,0
2,43,124,288
2,45,102,0
2,36,127,96
2,38,107,0
2,40,96,0
2,38,127,96
2,50,118,96
2,48,115,96
2,45,110,0
2,33,124,96
2,38,127,0
2,38,99,96
2,38,120,0
2,33,127,96
2,33,110,288
2,36,119,96
2,38,127,0
2,33,124,96
2,43,127,384
2,45,113,0
2,43,127,192
2,40,120,0
2,38,111,0
2,36,118,0
2,38,118,96
2,38,127,576
2,48,127,96
2,50,100,0
2,38,127,0
2,38,127,288
2,36,118,0
2,32,127,96
2,44,127,384
2,32,127,0
2,32,127,96
2,34,127,96
2,46,127,384
2,34,126,0
2,46,90,384
2,36,127,0
2,36,127,96
2,36,124,96
2,36,127,96
2,36,127,0
2,36,115,0
2,36,127,96
2,36,127,768
2,48,127,0
2,50,127,288
2,48,120,0
2,43,112,96
2,41,116,96
2,36,127,94
2,48,118,96
2,50,127,384
2,48,124,34
2,36,119,96
2,43,115,96
2,34,120,0
2,46,119,0
2,48,127,288
2,46,112,288
2,41,107,96
2,43,110,96
2,34,127,94
2,46,124,96
2,48,124,192
2,46,113,288
2,34,124,96
2,41,119,94
2,33,126,0
2,45,127,0
2,45,107,6
2,47,127,0
2,45,113,0
2,43,111,0
2,40,115,96
2,33,127,0
2,45,124,0
2,43,118,288
2,45,114,0
2,33,115,0
2,47,120,0
2,31,127,0
2,43,127,0
2,43,127,192
2,45,119,0
2,31,127,0
2,43,127,0
2,29,127,0
2,41,124,0
2,41,115,192
2,31,127,96
2,43,111,0
2,36,127,192
2,48,127,0
2,50,127,288
2,48,120,0
2,43,112,96
2,41,116,96
2,36,127,94
2,48,118,96
2,50,127,384
2,48,124,34
2,36,119,96
2,43,115,96
2,34,120,0
2,46,119,0
2,48,127,288
2,46,112,288
2,41,107,96
2,43,110,96
2,34,127,94
2,46,124,96
2,48,124,192
2,46,113,288
2,34,124,96
2,41,119,94
2,33,126,0
2,45,127,0
