track,note,velocity,time
0,43,59,642
0,38,85,3
0,43,0,1
0,38,0,3
0,43,95,89
0,38,99,3
0,43,0,1
0,38,0,3
0,35,76,89
0,43,73,0
0,38,76,3
0,35,0,1
0,43,0,0
0,38,0,3
0,30,107,87
0,42,92,0
0,35,107,2
0,42,52,0
0,54,87,0
0,80,86,2
0,35,0,2
0,42,0,0
0,30,0,63
0,42,0,0
0,30,105,27
0,42,90,0
0,42,52,2
0,58,75,1
0,82,82,1
0,42,0,2
0,80,0,14
0,54,0,25
0,30,0,23
0,42,0,0
0,30,106,28
0,42,91,0
0,46,48,2
0,85,80,0
0,61,78,1
0,38,92,2
0,46,0,1
0,38,0,3
0,82,0,10
0,58,0,7
0,30,0,30
0,42,0,0
0,30,109,40
0,42,94,0
0,35,88,2
0,42,52,0
0,35,0,4
0,42,0,0
0,30,0,65
0,42,0,0
0,30,107,25
0,42,92,0
0,61,0,0
0,85,0,0
0,35,104,2
0,42,52,0
0,61,83,1
0,80,84,0
0,35,0,3
0,42,0,0
0,30,0,67
0,42,0,0
0,30,105,23
0,42,90,0
0,56,84,1
0,42,54,1
0,82,81,1
0,42,0,3
0,80,0,39
0,30,0,23
0,42,0,0
0,30,108,28
0,42,93,0
0,82,0,0
0,46,48,2
0,85,82,1
0,38,96,2
0,46,0,1
0,38,0,3
0,30,0,62
0,42,0,0
0,61,0,23
0,30,104,2
0,42,89,0
0,56,0,0
0,80,82,1
0,42,52,1
0,56,83,1
0,42,0,3
0,85,0,8
0,30,0,32
0,42,0,0
0,56,0,49
0,30,110,1
0,42,95,0
0,35,105,2
0,42,54,0
0,54,82,0
0,35,0,4
0,42,0,0
0,30,0,59
0,42,0,0
0,30,109,31
0,42,94,0
0,42,53,2
0,54,0,0
0,82,83,0
0,58,79,2
0,42,0,2
0,80,0,15
0,30,0,48
0,42,0,0
0,30,110,27
0,42,95,0
0,46,46,2
0,61,80,1
0,85,80,0
0,38,92,2
0,46,0,1
0,38,0,3
0,82,0,9
0,58,0,4
0,30,0,31
0,42,0,0
0,30,106,43
0,42,91,0
0,85,0,0
0,35,84,2
0,42,54,0
0,80,83,1
0,35,0,3
0,42,0,0
0,30,0,68
0,42,0,0
0,61,0,19
0,30,109,3
0,42,94,0
0,61,82,0
0,35,107,2
0,42,53,0
0,35,0,4
0,42,0,0
0,30,0,65
0,42,0,0
0,30,107,25
0,42,92,0
0,82,81,0
0,42,54,2
0,56,83,2
0,42,0,2
0,80,0,2
0,30,0,70
0,42,0,0
0,32,107,18
0,44,92,0
0,82,0,0
0,46,47,2
0,80,81,1
0,38,95,2
0,46,0,1
0,38,0,3
0,32,0,66
0,44,0,0
0,56,0,18
0,80,0,2
0,34,107,1
0,46,92,0
0,56,81,0
0,61,0,1
0,42,54,1
0,82,83,0
0,42,0,4
0,34,0,58
0,46,0,0
0,56,0,4
0,82,0,27
0,35,109,1
0,47,94,0
0,80,82,1
0,35,106,1
0,42,54,0
0,54,87,0
0,35,0,4
0,42,0,0
0,35,0,58
0,47,0,0
0,35,104,32
0,47,89,0
0,42,54,2
0,82,82,0
0,58,75,1
0,42,0,3
0,80,0,1
0,54,0,38
0,35,0,26
0,47,0,0
0,35,107,25
0,47,92,0
0,85,83,0
0,46,48,2
0,61,78,1
0,38,96,2
0,46,0,1
0,38,0,3
0,82,0,1
0,58,0,16
0,35,0,26
0,47,0,0
0,85,0,42
0,35,109,2
0,47,94,0
0,80,83,1
0,35,86,1
0,42,53,0
0,35,0,4
0,42,0,0
0,35,0,60
0,47,0,0
0,35,109,30
0,47,94,0
0,61,0,0
0,35,104,2
0,42,53,0
0,61,83,1
0,35,0,3
0,42,0,0
0,35,0,65
0,47,0,0
0,80,0,23
0,35,105,2
0,47,90,0
0,56,84,1
0,82,80,0
0,42,53,1
0,42,0,4
0,35,0,70
0,47,0,0
0,35,107,20
0,47,92,0
0,46,48,2
0,85,82,0
0,38,95,3
0,46,0,1
0,38,0,3
0,82,0,8
0,35,0,59
0,47,0,0
0,61,0,18
0,35,108,2
0,47,93,0
0,56,0,0
0,42,53,2
0,56,83,1
0,42,0,3
0,35,0,52
0,47,0,0
0,56,0,37
0,37,110,1
0,49,95,0
0,85,0,1
0,35,107,1
0,42,52,0
0,54,82,0
0,80,84,2
0,35,0,2
0,42,0,0
0,37,0,59
0,49,0,0
0,37,105,31
0,49,90,0
0,42,53,2
0,54,0,0
0,82,83,1
0,58,79,1
0,42,0,2
0,80,0,7
0,37,0,48
0,49,0,0
0,37,110,35
0,49,95,0
0,46,47,2
0,61,80,1
0,85,81,1
0,38,93,1
0,46,0,1
0,38,0,3
0,82,0,2
0,58,0,11
0,37,0,28
0,49,0,0
0,61,0,43
0,85,0,2
0,37,108,1
0,49,93,0
0,59,82,0
0,35,88,2
0,42,54,0
0,83,83,0
0,35,0,4
0,42,0,0
0,37,0,60
0,49,0,0
0,37,107,30
0,49,92,0
0,35,104,2
0,42,52,0
0,35,0,4
0,42,0,0
0,37,0,66
0,49,0,0
0,37,105,24
0,49,90,0
0,82,81,1
0,42,53,1
0,58,83,2
0,83,0,0
0,42,0,2
0,37,0,67
0,49,0,0
0,58,0,20
0,39,108,3
0,51,93,0
0,56,81,0
0,59,0,1
0,80,82,0
0,46,48,1
0,38,94,3
0,66,121,0
0,46,0,1
0,82,0,0
0,38,0,3
0,39,0,73
0,51,0,0
0,37,105,14
0,49,90,0
0,42,53,2
0,42,0,4
0,37,0,53
0,49,0,13
0,80,0,8
0,56,0,13
0,30,107,3
0,42,92,0
0,35,107,2
0,42,52,0
0,54,87,0
0,80,86,2
0,35,0,2
0,42,0,0
0,30,0,63
0,42,0,0
0,30,105,27
0,42,90,0
0,42,52,2
0,58,75,1
0,82,82,1
0,42,0,2
0,80,0,14
0,54,0,25
0,30,0,23
0,42,0,0
0,30,106,28
0,42,91,0
0,46,48,2
0,66,0,0
0,85,80,0
0,61,78,1
0,38,92,2
0,46,0,1
0,38,0,3
0,82,0,10
0,58,0,7
0,30,0,30
0,42,0,0
0,30,109,40
0,42,94,0
0,35,88,2
0,42,52,0
0,35,0,4
0,42,0,0
0,30,0,65
0,42,0,0
0,30,107,25
0,42,92,0
0,61,0,0
0,85,0,0
0,35,104,2
0,42,52,0
0,61,83,1
0,80,84,0
0,35,0,3
0,42,0,0
0,30,0,67
0,42,0,0
0,30,105,23
0,42,90,0
0,56,84,1
0,42,54,1
0,82,81,1
0,42,0,3
0,80,0,39
0,30,0,23
0,42,0,0
0,30,108,28
0,42,93,0
0,82,0,0
0,46,48,2
0,85,82,1
0,38,96,2
0,46,0,1
0,38,0,3
0,30,0,62
0,42,0,0
0,61,0,23
0,30,104,2
0,42,89,0
0,56,0,0
0,80,82,1
0,42,52,1
0,56,83,1
0,42,0,3
0,85,0,8
0,30,0,32
0,42,0,0
0,56,0,49
0,30,110,1
0,42,95,0
0,35,105,2
0,42,54,0
0,54,82,0
0,35,0,4
0,42,0,0
0,30,0,59
0,42,0,0
0,30,109,31
0,42,94,0
0,42,53,2
0,54,0,0
0,82,83,0
0,58,79,2
0,42,0,2
0,80,0,15
0,30,0,48
0,42,0,0
0,30,110,27
0,42,95,0
0,46,46,2
0,61,80,1
0,85,80,0
0,38,92,2
0,46,0,1
0,38,0,3
0,82,0,9
0,58,0,4
0,30,0,31
0,42,0,0
0,30,106,43
0,42,91,0
0,85,0,0
0,35,84,2
0,42,54,0
0,80,83,1
0,35,0,3
0,42,0,0
0,30,0,68
0,42,0,0
0,61,0,19
0,30,109,3
0,42,94,0
0,61,82,0
0,35,107,2
0,42,53,0
0,35,0,4
0,42,0,0
0,30,0,65
0,42,0,0
0,30,107,25
0,42,92,0
0,82,81,0
0,42,54,2
0,56,83,2
0,42,0,2
0,80,0,2
0,30,0,70
0,42,0,0
0,32,107,18
0,44,92,0
0,82,0,0
0,46,47,2
0,80,81,1
0,38,95,2
0,46,0,1
0,38,0,3
0,32,0,66
0,44,0,0
0,56,0,18
0,80,0,2
0,34,107,1
0,46,92,0
0,56,81,0
0,61,0,1
0,42,54,1
0,82,83,0
0,42,0,4
0,34,0,58
0,46,0,0
0,56,0,4
0,82,0,27
0,35,109,1
0,47,94,0
0,80,82,1
0,35,106,1
0,42,54,0
0,54,87,0
0,35,0,4
0,42,0,0
0,35,0,58
0,47,0,0
0,35,104,32
0,47,89,0
0,42,54,2
0,82,82,0
0,58,75,1
0,42,0,3
0,80,0,1
0,54,0,38
0,35,0,26
0,47,0,0
0,35,107,25
0,47,92,0
0,85,83,0
0,46,48,2
0,61,78,1
0,38,96,2
0,46,0,1
0,38,0,3
0,82,0,1
0,58,0,16
0,35,0,26
0,47,0,0
0,85,0,42
0,35,109,2
0,47,94,0
0,80,83,1
0,35,86,1
0,42,53,0
0,35,0,4
0,42,0,0
0,35,0,60
0,47,0,0
0,35,109,30
0,47,94,0
0,61,0,0
0,35,104,2
0,42,53,0
0,61,83,1
0,35,0,3
0,42,0,0
0,35,0,65
0,47,0,0
0,80,0,23
0,35,105,2
0,47,90,0
0,56,84,1
0,82,80,0
0,42,53,1
0,42,0,4
0,35,0,70
0,47,0,0
0,35,107,20
0,47,92,0
0,46,48,2
0,85,82,0
0,38,95,3
0,46,0,1
0,38,0,3
0,82,0,8
0,35,0,59
0,47,0,0
0,61,0,18
0,35,108,2
0,47,93,0
0,56,0,0
0,42,53,2
0,56,83,1
0,42,0,3
0,35,0,52
0,47,0,0
0,56,0,37
0,37,110,1
0,49,95,0
0,85,0,1
0,35,107,1
0,42,52,0
0,54,82,0
0,80,84,2
0,35,0,2
0,42,0,0
0,37,0,59
0,49,0,0
0,37,105,31
0,49,90,0
0,42,53,2
0,54,0,0
0,82,83,1
0,58,79,1
0,42,0,2
0,80,0,7
0,37,0,48
0,49,0,0
0,37,110,35
0,49,95,0
0,46,47,2
0,61,80,1
0,85,81,1
0,38,93,1
0,46,0,1
0,38,0,3
0,82,0,2
0,58,0,11
0,37,0,28
0,49,0,0
0,61,0,43
0,85,0,2
0,37,108,1
0,49,93,0
0,59,82,0
0,35,88,2
0,42,54,0
0,83,83,0
0,35,0,4
0,42,0,0
0,37,0,60
0,49,0,0
0,37,107,30
0,49,92,0
0,35,104,2
0,42,52,0
0,35,0,4
0,42,0,0
0,37,0,66
0,49,0,0
0,37,105,24
0,49,90,0
0,82,81,1
0,42,53,1
0,58,83,2
0,83,0,0
0,42,0,2
0,37,0,67
0,49,0,0
0,58,0,20
0,39,108,3
0,51,93,0
0,56,81,0
0,59,0,1
0,80,82,0
0,46,48,1
0,38,94,3
0,46,0,1
0,66,121,0
0,82,0,0
0,38,0,3
0,39,0,73
0,51,0,0
0,37,105,14
0,49,90,0
0,35,88,2
0,42,53,0
0,35,0,4
0,42,0,0
0,80,0,74
0,37,0,13
0,49,0,0
0,56,0,0
0,30,107,3
0,42,92,0
0,54,104,0
0,54,61,2
0,35,107,0
0,42,52,0
0,70,115,0
0,68,86,2
0,35,0,2
0,42,0,0
0,66,87,1
0,54,0,27
0,30,0,35
0,42,0,0
0,70,0,18
0,30,105,9
0,42,90,0
0,58,86,0
0,42,52,2
0,70,75,1
0,70,82,1
0,42,0,2
0,70,109,13
0,68,0,1
0,58,0,1
0,54,0,24
0,70,0,3
0,66,0,2
0,71,108,17
0,30,0,1
0,42,0,0
0,30,106,28
0,42,91,0
0,61,98,0
0,46,48,2
0,73,80,0
0,66,0,1
0,73,78,0
0,38,92,2
0,46,0,1
0,38,0,3
0,70,0,10
0,70,0,7
0,61,0,4
0,71,0,20
0,30,0,6
0,42,0,0
0,70,109,28
0,30,109,12
0,42,94,0
0,54,97,0
0,35,88,2
0,42,52,0
0,35,0,4
0,42,0,0
0,70,0,8
0,54,0,10
0,30,0,47
0,42,0,0
0,73,117,5
0,30,107,20
0,42,92,0
0,61,98,0
0,73,0,0
0,73,0,0
0,35,104,2
0,42,52,0
0,68,84,1
0,73,83,0
0,35,0,3
0,42,0,0
0,61,0,22
0,73,0,19
0,30,0,26
0,42,0,0
0,70,111,1
0,30,105,22
0,42,90,0
0,56,106,0
0,68,84,1
0,42,54,1
0,70,81,1
0,70,0,2
0,42,0,1
0,70,108,19
0,56,0,6
0,68,0,14
0,30,0,2
0,42,0,0
0,30,108,28
0,42,93,0
0,70,0,0
0,46,48,2
0,73,82,1
0,38,96,2
0,46,0,1
0,38,0,3
0,70,0,24
0,30,0,5
0,42,0,0
0,73,0,23
0,30,104,2
0,42,89,0
0,56,104,0
0,68,0,0
0,68,82,1
0,42,52,1
0,68,83,1
0,42,0,3
0,73,0,8
0,56,0,10
0,30,0,22
0,42,0,0
0,68,0,49
0,30,110,1
0,42,95,0
0,54,103,0
0,35,105,2
0,42,54,0
0,66,82,0
0,35,0,4
0,42,0,0
0,54,0,10
0,30,0,49
0,42,0,0
0,30,109,31
0,42,94,0
0,58,103,0
0,42,53,2
0,66,0,0
0,70,83,0
0,70,79,2
0,42,0,2
0,58,0,13
0,68,0,2
0,30,0,48
0,42,0,0
0,30,110,27
0,42,95,0
0,61,102,0
0,46,46,2
0,73,80,1
0,73,80,0
0,38,92,2
0,46,0,1
0,38,0,3
0,70,0,9
0,70,0,4
0,61,0,1
0,30,0,30
0,42,0,0
0,30,106,43
0,42,91,0
0,54,101,0
0,73,0,0
0,35,84,2
0,42,54,0
0,68,83,1
0,35,0,3
0,42,0,0
0,54,0,11
0,30,0,57
0,42,0,0
0,73,0,19
0,30,109,3
0,42,94,0
0,61,104,0
0,73,82,0
0,35,107,2
0,42,53,0
0,35,0,4
0,42,0,0
0,61,0,14
0,30,0,51
0,42,0,0
0,30,107,25
0,42,92,0
0,56,104,0
0,70,81,0
0,42,54,2
0,68,83,2
0,42,0,2
0,68,0,2
0,56,0,13
0,30,0,57
0,42,0,0
0,32,107,18
0,44,92,0
0,70,0,0
0,46,47,2
0,68,81,1
0,38,95,2
0,46,0,1
0,38,0,3
0,32,0,66
0,44,0,0
0,68,0,18
0,68,0,2
0,34,107,1
0,46,92,0
0,56,102,0
0,68,81,0
0,73,0,1
0,73,106,0
0,42,54,1
0,70,83,0
0,42,0,4
0,56,0,12
0,34,0,46
0,46,0,0
0,68,0,4
0,73,0,4
0,70,0,23
0,35,109,1
0,47,94,0
0,54,103,0
0,68,82,1
0,35,106,1
0,42,54,0
0,66,87,0
0,73,111,3
0,35,0,1
0,42,0,0
0,54,0,14
0,35,0,44
0,47,0,0
0,73,0,16
0,35,104,16
0,47,89,0
0,58,100,0
0,42,54,2
0,70,82,0
0,70,75,1
0,42,0,3
0,68,0,1
0,73,114,6
0,58,0,7
0,66,0,25
0,35,0,26
0,47,0,0
0,35,107,25
0,47,92,0
0,61,101,0
0,73,83,0
0,46,48,2
0,73,78,1
0,38,96,2
0,46,0,1
0,38,0,3
0,70,0,1
0,61,0,10
0,70,0,6
0,73,0,10
0,35,0,16
0,47,0,0
0,75,109,35
0,73,0,7
0,35,109,2
0,47,94,0
0,54,101,0
0,68,83,1
0,35,86,1
0,42,53,0
0,35,0,4
0,42,0,0
0,54,0,8
0,35,0,52
0,47,0,0
0,35,109,30
0,47,94,0
0,61,104,0
0,73,0,0
0,35,104,2
0,42,53,0
0,73,83,1
0,35,0,3
0,42,0,0
0,61,0,16
0,75,0,23
0,35,0,14
0,47,0,0
0,68,112,19
0,68,0,4
0,35,105,2
0,47,90,0
0,56,104,0
0,68,84,1
0,70,80,0
0,42,53,1
0,42,0,4
0,56,0,11
0,68,0,58
0,35,0,1
0,47,0,0
0,35,107,20
0,47,92,0
0,46,48,2
0,73,82,0
0,38,95,3
0,46,0,1
0,68,114,2
0,38,0,1
0,70,0,8
0,35,0,59
0,47,0,0
0,73,0,18
0,35,108,2
0,47,93,0
0,56,104,0
0,68,0,0
0,42,53,2
0,68,83,1
0,42,0,3
0,56,0,12
0,35,0,40
0,47,0,0
0,68,0,27
0,68,0,10
0,37,110,1
0,49,95,0
0,54,97,0
