track,note,velocity,time
1,44,127,480
1,44,0,96
1,42,127,24
1,42,0,96
1,42,127,24
1,42,0,96
1,44,127,24
1,44,0,72
1,46,127,18
1,46,0,24
1,42,127,6
1,42,0,96
1,44,127,24
1,44,0,96
1,42,127,24
1,42,0,72
1,46,127,18
1,46,0,24
1,44,127,6
1,44,0,96
1,42,127,24
1,42,0,96
1,44,127,24
1,44,0,96
1,42,127,24
1,42,0,48
1,44,127,12
1,44,0,24
1,44,127,6
1,44,0,24
1,44,127,6
1,44,0,24
1,42,127,6
1,42,0,24
1,46,127,6
1,46,0,24
1,35,127,6
1,42,127,0
1,35,0,24
1,42,0,0
1,44,127,6
1,35,127,0
1,44,0,96
1,35,0,0
1,42,127,24
1,37,127,0
1,46,127,30
1,42,0,18
1,37,0,0
1,42,127,12
1,46,0,18
1,42,0,6
1,35,127,6
1,35,0,24
1,42,127,6
1,44,127,0
1,35,127,0
1,42,0,96
1,44,0,0
1,35,0,0
1,42,127,24
1,44,127,0
1,37,127,0
1,42,0,48
1,44,0,0
1,37,0,0
1,35,127,12
1,35,0,48
1,44,127,12
1,44,0,24
1,35,127,6
1,35,0,72
1,42,127,18
1,37,127,0
1,42,0,72
1,37,0,0
1,35,127,18
1,35,0,24
1,44,127,6
1,35,127,0
1,44,0,48
1,35,0,0
1,42,127,12
1,42,0,24
1,44,127,6
1,44,0,24
1,44,127,6
1,37,127,0
1,44,0,48
1,37,0,0
1,52,80,12
1,35,127,0
1,35,0,24
1,52,0,24
1,35,127,102
1,35,0,24
1,37,127,6
1,37,0,72
1,35,127,18
1,35,0,24
1,42,127,6
1,35,127,0
1,42,0,24
1,35,0,0
1,46,127,6
1,46,0,48
1,42,127,12
1,42,0,24
1,37,127,6
1,37,0,24
1,44,127,6
1,44,0,24
1,58,127,6
1,35,127,0
1,58,0,48
1,35,0,0
1,42,127,12
1,35,127,30
1,42,0,42
1,35,0,30
1,42,127,18
1,37,127,0
1,42,0,72
1,37,0,0
1,35,127,18
1,35,0,24
1,42,127,6
1,35,127,0
1,42,0,24
1,35,0,0
1,42,127,6
1,42,0,72
1,42,127,18
1,37,127,0
1,42,0,48
1,37,0,0
1,52,80,12
1,35,127,0
1,52,0,48
1,35,0,0
1,42,127,12
1,42,0,72
1,35,127,18
1,35,0,24
1,37,127,6
1,42,127,0
1,37,0,48
1,42,0,0
1,42,127,12
1,42,0,24
1,35,127,6
1,46,127,0
1,35,0,24
1,35,127,6
1,46,0,18
1,42,127,12
1,35,0,18
1,42,0,54
1,37,127,18
1,37,0,24
1,44,127,6
1,44,0,24
1,35,127,6
1,35,0,48
1,44,127,12
1,35,127,0
1,44,0,48
1,35,0,0
1,42,127,12
1,42,0,48
1,42,127,12
1,37,127,0
1,42,0,48
1,37,0,0
1,44,127,12
1,44,0,24
1,46,127,6
1,35,127,0
1,46,0,24
1,35,0,0
1,35,127,6
1,35,0,24
1,42,127,6
1,42,0,48
1,42,127,12
1,42,0,24
1,37,127,6
1,37,0,48
1,58,127,12
1,35,127,0
1,58,0,48
1,35,0,0
1,42,127,12
1,42,0,24
1,35,127,6
1,35,0,72
1,42,127,18
1,35,127,0
1,42,0,72
1,35,0,0
1,35,127,18
1,35,0,24
1,42,127,6
1,35,127,0
1,42,0,48
1,35,0,0
1,46,127,12
1,46,0,24
1,42,127,6
1,42,0,24
1,42,127,6
1,37,127,0
1,42,0,48
1,37,0,0
1,57,80,12
1,35,127,0
1,57,0,48
1,35,0,0
1,42,127,12
1,42,0,96
1,42,127,24
1,42,0,96
1,35,127,24
1,42,127,0
1,35,0,48
1,42,0,0
1,35,127,12
1,42,127,0
1,35,0,48
1,42,0,0
1,40,100,12
1,40,0,48
1,57,80,12
1,35,127,0
1,57,0,48
1,35,0,0
1,44,127,12
1,44,0,24
1,35,127,6
1,35,0,72
1,42,127,18
1,37,127,0
1,42,0,72
1,37,0,0
1,35,127,18
1,35,0,24
1,44,127,6
1,35,127,0
1,44,0,48
1,35,0,0
1,42,127,12
1,42,0,24
1,44,127,6
1,44,0,24
1,44,127,6
1,37,127,0
1,44,0,48
1,37,0,0
1,52,80,12
1,35,127,0
1,35,0,24
1,52,0,24
1,35,127,102
1,35,0,24
1,37,127,6
1,37,0,72
1,35,127,18
1,35,0,24
1,42,127,6
1,35,127,0
1,42,0,24
1,35,0,0
1,46,127,6
1,46,0,48
1,42,127,12
1,42,0,24
1,37,127,6
1,37,0,24
1,44,127,6
1,44,0,24
1,58,127,6
1,35,127,0
1,58,0,48
1,35,0,0
1,42,127,12
1,35,127,30
1,42,0,42
1,35,0,30
1,42,127,18
1,37,127,0
1,42,0,72
1,37,0,0
1,35,127,18
1,35,0,24
1,42,127,6
1,35,127,0
1,42,0,24
1,35,0,0
1,42,127,6
1,42,0,72
1,42,127,18
1,37,127,0
1,42,0,48
1,37,0,0
1,52,80,12
1,35,127,0
1,52,0,48
1,35,0,0
1,42,127,12
1,42,0,72
1,35,127,18
1,35,0,24
1,37,127,6
1,42,127,0
1,37,0,48
1,42,0,0
1,42,127,12
1,42,0,24
1,35,127,6
1,46,127,0
1,35,0,24
1,35,127,6
1,46,0,18
1,42,127,12
1,35,0,18
1,42,0,54
1,37,127,18
1,37,0,24
1,44,127,6
1,44,0,24
1,35,127,6
1,35,0,48
1,44,127,12
1,35,127,0
1,44,0,48
1,35,0,0
1,42,127,12
1,42,0,48
1,42,127,12
1,37,127,0
1,42,0,48
1,37,0,0
1,44,127,12
1,44,0,24
1,46,127,6
1,35,127,0
1,46,0,24
1,35,0,0
1,35,127,6
1,35,0,24
1,42,127,6
1,42,0,48
1,42,127,12
1,42,0,24
1,37,127,6
1,37,0,48
1,58,127,12
1,35,127,0
1,58,0,48
1,35,0,0
1,42,127,12
1,42,0,24
1,35,127,6
1,35,0,72
1,42,127,18
1,35,127,0
1,42,0,72
1,35,0,0
1,35,127,18
1,35,0,24
1,42,127,6
1,35,127,0
1,42,0,48
1,35,0,0
1,46,127,12
1,46,0,24
1,42,127,6
1,42,0,24
1,42,127,6
1,37,127,0
1,42,0,48
1,37,0,0
1,57,80,12
1,35,127,0
1,57,0,48
1,35,0,0
1,42,127,12
1,42,0,96
1,42,127,24
1,42,0,96
1,35,127,24
1,42,127,0
1,35,0,48
1,42,0,0
1,35,127,12
1,42,127,0
1,35,0,48
1,42,0,0
1,40,100,12
1,40,0,48
1,57,80,12
1,35,127,0
1,57,0,48
1,35,0,0
1,35,127,12
1,35,0,96
1,35,127,24
1,35,0,96
1,35,127,24
1,35,0,96
1,40,127,24
1,40,0,48
1,49,80,12
1,35,127,0
1,49,0,48
1,35,0,0
1,42,127,12
1,35,127,0
1,42,0,48
1,35,0,0
1,46,127,12
1,46,0,48
1,40,127,12
1,40,0,24
1,44,127,6
1,44,0,24
1,44,127,6
1,44,0,24
1,35,127,6
1,35,0,24
1,42,127,6
1,35,127,0
1,42,0,48
1,35,0,0
1,46,127,12
1,46,0,48
1,40,127,12
1,42,127,0
1,40,0,24
1,42,0,0
1,42,127,6
1,42,0,24
1,57,100,6
1,35,127,0
1,57,0,48
1,35,0,0
1,42,127,12
1,35,127,0
1,42,0,48
1,35,0,0
1,46,127,12
1,46,0,48
1,40,127,12
1,40,0,24
1,44,127,6
1,44,0,24
1,44,127,6
1,44,0,24
1,35,127,6
1,35,0,24
1,42,127,6
1,35,127,0
1,42,0,48
1,35,0,0
1,46,127,12
1,46,0,48
1,40,127,12
1,42,127,0
1,40,0,24
1,42,0,0
1,42,127,6
1,42,0,24
1,57,100,6
1,35,127,0
1,57,0,48
1,35,0,0
1,42,127,12
1,35,127,0
1,42,0,48
1,35,0,0
1,46,127,12
1,46,0,48
1,40,127,12
1,40,0,24
1,44,127,6
1,44,0,24
1,44,127,6
1,44,0,24
1,35,127,6
1,35,0,24
1,42,127,6
1,35,127,0
1,42,0,48
1,35,0,0
1,46,127,12
1,46,0,48
1,40,127,12
1,42,127,0
1,40,0,24
1,42,0,0
1,42,127,6
1,42,0,24
1,57,100,6
1,35,127,0
1,57,0,48
1,35,0,0
1,42,127,12
1,35,127,0
1,42,0,48
1,35,0,0
1,46,127,12
1,46,0,48
1,40,127,12
1,40,0,24
1,44,127,6
1,44,0,24
1,44,127,6
1,44,0,24
1,35,127,6
1,35,0,24
1,42,127,6
1,35,127,0
1,42,0,48
1,35,0,0
1,46,127,12
1,46,0,48
1,40,127,12
1,42,127,0
1,40,0,24
1,42,0,0
1,42,127,6
1,42,0,24
1,57,100,6
1,35,127,0
1,57,0,48
1,35,0,0
1,42,127,12
1,35,127,0
1,42,0,48
1,35,0,0
1,46,127,12
1,46,0,48
1,40,127,12
1,40,0,24
1,44,127,6
1,44,0,24
1,44,127,6
1,44,0,24
1,35,127,6
1,35,0,24
1,42,127,6
1,35,127,0
1,42,0,48
1,35,0,0
1,46,127,12
1,46,0,48
1,40,127,12
1,42,127,0
1,40,0,24
1,42,0,0
1,42,127,6
1,42,0,24
1,57,100,6
1,35,127,0
1,57,0,48
1,35,0,0
1,42,127,12
1,35,127,0
1,42,0,48
1,35,0,0
1,46,127,12
1,46,0,48
1,40,127,12
1,40,0,24
1,44,127,6
1,44,0,24
1,44,127,6
1,44,0,24
1,35,127,6
1,35,0,24
1,42,127,6
1,35,127,0
1,42,0,48
1,35,0,0
1,46,127,12
1,46,0,48
1,40,127,12
1,42,127,0
1,40,0,24
1,42,0,0
1,42,127,6
1,42,0,24
1,57,100,6
1,35,127,0
1,57,0,48
1,35,0,0
1,42,127,12
1,35,127,0
1,42,0,48
1,35,0,0
1,46,127,12
1,46,0,48
1,40,127,12
1,40,0,24
1,44,127,6
1,44,0,24
1,44,127,6
1,44,0,24
1,35,127,6
1,35,0,24
1,42,127,6
1,35,127,0
1,42,0,48
1,35,0,0
1,46,127,12
1,46,0,48
1,40,127,12
1,42,127,0
1,40,0,24
1,42,0,0
1,42,127,6
1,42,0,24
1,57,100,6
1,35,127,0
1,57,0,48
1,35,0,0
1,42,127,12
1,35,127,0
1,42,0,48
1,35,0,0
1,46,127,12
1,46,0,48
1,40,127,12
1,40,0,24
1,44,127,6
1,44,0,24
1,44,127,6
1,44,0,24
1,35,127,6
1,35,0,24
1,42,127,6
1,35,127,0
1,42,0,48
1,35,0,0
1,46,127,12
1,46,0,48
1,40,127,12
1,42,127,0
1,40,0,24
1,42,0,0
1,42,127,6
1,42,0,24
1,57,100,6
1,35,127,0
1,57,0,48
1,35,0,0
1,44,127,12
1,44,0,24
1,35,127,6
1,35,0,72
1,42,127,18
1,38,127,0
1,39,94,2
1,39,0,32
1,42,0,38
1,38,0,0
1,35,127,18
1,35,0,24
1,44,127,6
1,35,127,0
1,44,0,48
1,35,0,0
1,42,127,12
1,42,0,24
1,44,127,6
1,44,0,24
1,39,96,3
1,44,127,3
1,38,127,0
1,39,0,30
1,44,0,18
1,38,0,0
1,52,80,12
1,35,127,0
1,35,0,24
1,52,0,24
1,35,127,102
1,35,0,24
1,39,100,1
1,38,127,5
1,39,0,37
1,38,0,35
1,35,127,18
1,35,0,24
1,42,127,6
1,35,127,0
1,42,0,24
1,35,0,0
1,46,127,6
1,46,0,48
1,42,127,12
1,42,0,24
1,39,114,2
1,38,127,4
1,38,0,24
1,44,127,6
1,39,0,4
1,44,0,20
1,58,127,6
1,35,127,0
1,58,0,48
1,35,0,0
1,42,127,12
1,35,127,30
1,42,0,42
1,35,0,30
1,39,105,18
1,42,127,0
1,38,127,0
1,39,0,42
1,42,0,30
1,38,0,0
1,35,127,18
1,35,0,24
1,42,127,6
1,35,127,0
1,42,0,24
1,35,0,0
1,42,127,6
1,42,0,72
1,39,113,18
1,42,127,0
1,38,127,0
1,39,0,42
1,42,0,6
1,38,0,0
1,52,80,12
1,35,127,0
1,52,0,48
1,35,0,0
1,42,127,12
1,42,0,72
1,35,127,18
1,35,0,24
1,38,127,6
1,42,127,0
1,39,105,1
1,39,0,37
1,38,0,10
1,42,0,0
1,42,127,12
1,42,0,24
1,35,127,6
1,46,127,0
1,35,0,24
1,35,127,6
1,46,0,18
1,42,127,12
1,35,0,18
1,42,0,54
1,39,111,13
1,38,127,5
1,39,0,20
1,38,0,4
1,44,127,6
1,44,0,24
1,35,127,6
1,35,0,48
1,44,94,12
1,44,127,0
1,35,127,0
1,44,0,21
1,42,66,10
1,42,0,16
1,44,0,1
1,35,0,0
1,42,127,12
1,44,64,4
1,44,0,19
1,42,94,9
1,42,0,16
1,42,127,12
1,38,127,0
1,39,105,3
1,42,0,4
1,39,0,17
1,44,71,10
1,42,0,14
1,38,0,0
1,44,127,12
1,44,0,1
1,42,80,4
1,42,0,16
1,44,0,3
1,46,127,6
1,35,127,0
1,44,100,3
1,46,0,21
1,35,0,0
1,44,0,2
1,35,127,4
1,42,77,3
1,42,0,18
1,35,0,3
1,44,92,5
1,42,127,1
1,44,0,19
1,42,80,12
1,42,0,14
1,42,0,3
1,44,96,11
1,42,127,1
1,46,89,2
1,44,0,12
1,42,0,10
1,39,107,4
1,38,127,2
1,46,0,6
1,39,0,11
1,44,83,11
1,44,0,10
1,38,0,10
1,42,88,12
1,58,127,0
1,35,127,0
1,42,0,15
1,44,98,14
1,58,0,19
1,35,0,0
1,44,0,4
1,42,83,8
1,42,127,0
1,42,0,18
1,42,0,6
1,44,94,5
1,35,127,1
1,44,0,21
1,42,74,6
1,42,0,15
1,44,105,15
1,35,0,15
1,39,105,15
1,42,94,1
1,42,127,2
1,35,127,0
1,44,0,7
1,39,0,10
1,42,0,0
1,44,105,12
1,44,0,22
1,42,85,9
1,42,0,12
1,35,0,0
1,42,0,2
1,44,100,13
1,35,127,3
1,35,0,24
1,44,0,1
1,42,86,4
1,42,127,1
1,35,127,0
1,42,0,18
1,44,85,9
1,42,0,21
1,35,0,0
1,44,0,5
1,42,77,6
1,46,127,1
1,42,0,14
1,46,0,10
1,44,105,3
1,42,127,3
1,44,0,16
1,42,0,8
1,39,113,3
1,42,109,2
1,42,127,1
1,38,127,0
1,39,0,17
1,42,0,1
1,44,98,11
1,44,0,16
1,42,0,3
1,38,0,0
1,46,113,10
1,57,80,2
1,35,127,0
1,57,0,48
1,35,0,0
1,42,127,12
1,46,0,1
1,44,109,4
1,44,0,15
1,42,94,12
1,42,0,14
1,44,101,18
1,44,0,19
1,42,80,9
1,42,0,4
1,42,0,10
1,42,127,14
1,44,111,5
1,39,103,0
1,44,0,20
1,39,0,0
1,42,80,12
1,42,0,14
1,44,103,15
1,44,0,20
1,42,92,7
1,42,0,3
1,42,0,13
1,35,127,11
1,42,127,0
1,44,105,3
1,44,0,20
1,42,90,9
1,42,0,14
1,35,0,2
1,42,0,0
1,35,127,12
1,42,127,0
1,44,92,1
1,44,0,22
1,42,82,4
1,42,0,14
1,35,0,7
1,42,0,0
1,44,113,10
1,39,113,1
1,40,100,1
1,39,0,19
1,44,0,2
1,42,83,11
1,42,0,13
1,40,0,3
1,44,120,10
1,57,80,2
1,35,127,0
1,44,0,21
1,42,81,9
1,42,0,15
1,57,0,3
1,35,0,0
1,44,80,11
1,35,127,1
1,42,77,24
1,44,0,6
1,42,0,11
1,44,76,19
1,44,0,19
1,42,80,6
1,35,0,11
1,42,0,4
1,44,109,17
1,39,118,1
1,35,127,2
1,39,0,17
1,44,0,9
1,42,83,5
1,42,0,16
1,44,94,14
1,44,0,20
1,42,83,8
1,35,0,7
1,42,0,9
1,44,94,13
1,35,127,2
1,44,0,21
1,42,73,5
1,42,0,14
1,46,100,14
1,35,0,42
1,46,0,19
1,39,103,5
1,44,122,0
1,40,127,0
1,39,0,16
1,44,0,9
1,42,90,4
1,42,0,16
1,40,0,3
1,44,94,10
1,49,80,2
1,35,127,0
1,44,0,23
1,42,90,5
1,42,0,14
1,49,0,6
1,35,0,0
1,44,103,9
1,42,127,3
1,35,127,0
1,44,0,27
1,42,83,2
1,42,0,15
1,35,0,4
1,42,0,0
1,44,94,12
1,46,127,0
