track,note,velocity,time
1,34,95,3646
1,34,97,122
1,34,97,32
1,29,92,2
1,31,93,2
1,34,98,6
1,26,93,36
1,27,95,32
1,27,95,140
1,29,99,40
1,34,95,40
1,34,97,122
1,34,97,32
1,29,92,2
1,31,93,2
1,34,98,6
1,26,93,36
1,27,95,32
1,27,95,238
1,29,97,40
1,29,99,128
1,34,98,40
1,29,93,2
1,26,89,2
1,27,94,16
1,29,100,40
1,29,93,50
1,27,89,2
1,26,94,16
1,30,98,2
1,31,98,2
1,31,98,40
1,31,94,32
1,29,98,2
1,27,98,2
1,34,82,40
1,39,94,42
1,34,83,24
1,39,98,42
1,41,98,12
1,34,98,20
1,29,93,2
1,26,89,2
1,27,94,16
1,27,89,40
1,29,100,30
1,29,93,50
1,27,89,2
1,26,94,16
1,30,98,2
1,31,98,2
1,31,98,40
1,31,94,32
1,29,98,2
1,27,98,2
1,34,82,40
1,39,94,42
1,41,98,2
1,39,98,4
1,34,89,24
1,31,84,8
1,36,98,8
1,31,84,40
1,36,93,54
1,36,93,124
1,29,98,24
1,29,85,40
1,29,93,78
1,29,93,124
1,29,92,24
1,30,85,2
1,31,99,2
1,31,83,48
1,31,99,78
1,38,93,140
1,43,93,26
1,41,99,20
1,41,83,48
1,39,99,38
1,39,98,22
1,34,102,22
1,34,97,2
1,38,98,12
1,38,97,40
1,39,104,24
1,39,97,50
1,41,98,24
1,41,97,40
1,43,102,24
1,43,102,26
1,38,102,32
1,50,102,2
1,45,102,2
1,43,102,32
1,43,93,34
1,43,94,20
1,38,87,140
1,38,102,42
1,34,68,2
1,36,102,8
1,36,93,22
1,36,98,52
1,29,85,40
1,27,93,64
1,29,104,16
1,29,92,50
1,29,85,60
1,29,104,66
1,29,97,50
1,29,93,64
1,34,102,64
1,34,102,34
1,38,98,38
1,41,92,4
1,41,86,2
1,48,102,22
1,46,98,2
1,44,89,6
1,53,89,2
1,50,90,2
1,46,97,2
1,41,93,4
1,38,98,16
1,34,82,18
1,39,102,38
1,39,93,22
1,39,98,52
1,34,85,40
1,31,93,64
1,30,102,16
1,33,93,2
1,38,98,52
1,42,93,40
1,43,102,52
1,43,93,2
1,41,98,136
1,41,93,40
1,40,102,52
1,38,93,10
1,36,104,28
1,27,97,50
1,28,93,40
1,29,102,40
1,29,102,40
1,29,92,32
1,29,102,124
1,29,88,24
1,29,88,78
1,34,97,72
1,34,99,122
1,34,99,32
1,29,94,2
1,31,95,2
1,34,100,6
1,26,95,36
1,27,97,32
1,27,97,140
1,29,101,40
1,29,94,40
1,31,95,12
1,34,97,14
1,34,99,122
1,34,99,32
1,29,94,2
1,31,95,2
1,34,100,6
1,26,95,36
1,27,97,32
1,27,97,238
1,29,99,40
1,29,101,128
1,29,83,12
1,34,100,70
1,29,95,2
1,26,91,2
1,27,96,16
1,27,95,40
1,27,91,62
1,29,102,62
1,29,95,50
1,27,91,2
1,26,96,16
1,26,83,2
1,30,100,52
1,30,83,2
1,31,100,52
1,31,100,40
1,31,96,32
1,29,100,2
1,27,100,2
1,34,84,40
1,39,96,42
1,34,85,24
1,39,100,42
1,41,100,12
1,34,100,20
1,29,95,2
1,26,91,2
1,27,96,16
1,27,91,40
1,29,102,30
1,29,95,50
1,27,91,2
1,26,96,16
1,30,100,22
1,31,100,24
1,31,100,40
1,31,96,32
1,29,100,2
1,27,100,2
1,34,84,40
1,39,96,42
1,41,100,2
1,39,100,4
1,34,91,24
1,31,86,8
1,36,100,8
1,31,86,40
1,36,95,54
1,29,100,2
1,29,87,40
1,29,95,128
1,29,94,30
1,29,87,44
1,31,101,24
1,31,85,48
1,31,91,78
1,31,101,120
1,38,92,86
1,43,89,26
1,41,97,20
1,41,85,48
1,39,101,38
1,39,100,22
1,34,105,22
1,34,100,2
1,38,101,12
1,38,100,40
1,39,107,24
1,39,100,50
1,41,101,24
1,41,100,40
1,43,105,24
1,43,105,26
1,38,105,32
1,50,105,2
1,45,105,2
1,43,105,32
1,43,96,34
1,43,97,20
1,38,90,140
1,38,105,42
1,34,71,2
1,36,105,8
1,36,96,22
1,36,101,52
1,29,88,40
1,27,96,64
1,29,107,16
1,29,95,50
1,29,88,60
1,29,107,66
1,29,100,50
1,29,96,64
1,34,105,64
1,34,105,34
1,38,101,38
1,41,95,4
1,41,89,2
1,48,105,22
1,46,101,2
1,44,92,6
1,53,92,2
1,50,93,2
1,46,100,2
1,41,96,4
1,38,101,16
1,34,85,18
1,39,105,38
1,39,96,22
1,39,101,52
1,34,88,40
1,31,96,64
1,30,105,16
1,33,96,2
1,38,101,52
1,42,96,40
1,43,105,52
1,43,96,2
1,41,101,136
1,41,96,40
1,40,105,52
1,38,96,10
1,36,107,28
1,27,100,50
1,28,96,40
1,29,105,40
1,29,105,40
1,29,95,32
1,29,105,124
1,41,85,24
1,43,105,40
1,43,96,2
1,41,101,136
1,41,89,40
1,41,89,52
1,40,105,52
1,38,96,10
1,36,107,28
1,27,100,50
1,28,96,40
1,29,105,40
1,29,105,40
1,29,95,32
1,29,91,34
1,29,91,62
1,34,102,0
1,34,104,122
1,34,104,32
1,29,99,2
1,31,100,2
1,34,105,6
1,26,100,36
1,27,102,32
1,27,102,140
1,29,106,40
1,29,99,40
1,31,100,12
1,34,102,14
1,34,104,122
1,34,104,32
1,29,99,2
1,31,100,2
1,34,105,6
1,26,100,36
1,27,102,32
1,27,102,238
1,29,104,40
1,29,106,128
1,29,88,12
1,34,102,70
1,34,104,122
1,34,104,32
1,29,99,2
1,31,100,2
1,34,105,6
1,26,100,36
1,27,102,32
1,27,102,140
1,29,106,40
1,29,99,40
1,31,100,12
1,34,102,14
1,34,104,122
1,34,104,32
1,29,99,2
1,31,100,2
1,34,105,6
1,26,100,36
1,27,102,32
1,27,102,238
1,29,104,40
1,29,106,128
1,29,88,12
1,34,94,70
2,46,64,3608
2,53,64,0
2,58,64,0
2,62,64,0
2,39,64,16
2,55,64,0
2,58,64,0
2,62,64,0
2,41,64,16
2,53,64,0
2,60,64,0
2,46,64,16
2,53,64,0
2,58,64,0
2,62,64,0
2,39,64,16
2,55,64,0
2,58,64,0
2,62,64,0
2,41,64,16
2,53,64,0
2,60,64,0
2,46,64,16
2,53,64,0
2,58,64,0
2,62,64,0
2,39,64,16
2,55,64,0
2,41,64,16
2,55,64,0
2,57,64,0
2,60,64,0
2,50,64,16
2,54,64,0
2,57,64,0
2,43,64,16
2,50,64,0
2,55,64,0
2,58,64,0
2,41,64,16
2,53,64,0
2,57,64,0
2,39,64,16
2,51,64,0
2,55,64,0
2,58,64,0
2,46,64,16
2,53,64,0
2,58,64,0
2,62,64,0
2,39,64,16
2,55,64,0
2,41,64,16
2,55,64,0
2,57,64,0
2,60,64,0
2,50,64,16
2,54,64,0
2,57,64,0
2,43,64,16
2,50,64,0
2,55,64,0
2,58,64,0
2,41,64,16
2,56,64,0
2,58,64,0
2,62,64,0
2,39,64,16
2,55,64,0
2,58,64,0
2,63,64,0
2,48,64,16
2,55,64,0
2,60,64,0
2,63,64,0
2,41,64,16
2,57,64,0
2,60,64,0
2,63,64,0
2,43,64,16
2,55,64,0
2,58,64,0
2,62,64,0
2,41,68,16
2,57,68,0
2,60,68,0
2,65,68,0
2,46,72,16
2,53,72,0
2,58,72,0
2,62,72,0
2,50,72,16
2,57,72,0
2,51,72,16
2,55,72,0
2,58,72,0
2,63,72,0
2,53,72,16
2,57,72,0
2,60,72,0
2,65,72,0
2,55,72,16
2,58,72,0
2,62,72,0
2,67,72,0
2,53,72,16
2,57,72,0
2,60,72,0
2,65,72,0
2,43,72,16
2,55,72,0
2,58,72,0
2,62,72,0
2,48,72,16
2,51,72,0
2,55,72,0
2,60,72,0
2,41,72,16
2,53,72,0
2,57,72,0
2,60,72,0
2,46,72,16
2,53,72,0
2,58,72,0
2,62,72,0
2,46,72,16
2,53,72,0
2,56,72,0
2,62,72,0
2,51,72,16
2,55,72,0
2,58,72,0
2,63,72,0
2,54,72,16
2,57,72,0
2,60,72,0
2,62,72,0
2,55,80,16
2,58,80,0
2,53,76,16
2,52,72,16
2,55,72,0
2,58,72,0
2,50,72,16
2,48,72,10
2,51,72,0
2,55,72,0
2,60,72,0
2,41,72,16
2,53,72,0
2,57,72,0
2,60,72,0
2,46,66,16
2,53,66,0
2,58,66,0
2,62,66,0
2,39,66,16
2,55,66,0
2,58,66,0
2,62,66,0
2,41,66,16
2,53,66,0
2,60,66,0
2,46,66,16
2,53,66,0
2,58,66,0
2,62,66,0
2,39,66,16
2,55,66,0
2,58,66,0
2,62,66,0
2,41,66,16
2,53,66,0
2,60,66,0
2,46,66,16
2,53,66,0
2,58,66,0
2,62,66,0
2,39,66,16
2,55,66,0
2,41,66,16
2,55,66,0
2,57,66,0
2,60,66,0
2,50,66,16
2,54,66,0
2,57,66,0
2,43,66,16
2,50,66,0
2,55,66,0
2,58,66,0
2,41,66,16
2,53,66,0
2,57,66,0
2,39,66,16
2,51,66,0
2,55,66,0
2,58,66,0
2,46,66,16
2,53,66,0
2,58,66,0
2,62,66,0
2,39,66,16
2,55,66,0
2,41,66,16
2,55,66,0
2,57,66,0
2,60,66,0
2,50,66,16
2,54,66,0
2,57,66,0
2,43,66,16
2,50,66,0
2,55,66,0
2,58,66,0
2,41,66,16
2,56,66,0
2,58,66,0
2,62,66,0
2,39,66,16
2,55,66,0
2,58,66,0
2,63,66,0
2,48,66,16
2,55,66,0
2,60,66,0
2,63,66,0
2,41,66,16
2,57,66,0
2,60,66,0
2,63,66,0
2,43,66,16
2,55,66,0
2,58,66,0
2,62,66,0
2,41,70,16
2,57,70,0
2,60,70,0
2,65,70,0
2,46,75,16
2,53,75,0
2,58,75,0
2,62,75,0
2,50,75,16
2,57,75,0
2,51,75,16
2,55,75,0
2,58,75,0
2,63,75,0
2,53,75,16
2,57,75,0
2,60,75,0
2,65,75,0
2,55,75,16
2,58,75,0
2,62,75,0
2,67,75,0
2,53,75,16
2,57,75,0
2,60,75,0
2,65,75,0
2,43,75,16
2,55,75,0
2,58,75,0
2,62,75,0
2,48,75,16
2,51,75,0
2,55,75,0
2,60,75,0
2,41,75,16
2,53,75,0
2,57,75,0
2,60,75,0
2,46,75,16
2,53,75,0
2,58,75,0
2,62,75,0
2,46,75,16
2,53,75,0
2,56,75,0
2,62,75,0
2,51,75,16
2,55,75,0
2,58,75,0
2,63,75,0
2,54,75,16
2,57,75,0
2,60,75,0
2,62,75,0
2,55,83,16
2,58,83,0
2,53,79,16
2,52,75,16
2,55,75,0
2,58,75,0
2,50,75,16
2,48,75,10
2,51,75,0
2,55,75,0
2,60,75,0
2,41,75,16
2,53,75,0
2,57,75,0
2,60,75,0
2,55,83,16
2,58,83,0
2,53,79,16
2,52,75,16
2,55,75,0
2,58,75,0
2,50,75,16
2,48,75,10
2,51,75,0
2,55,75,0
2,60,75,0
2,41,75,16
2,53,75,0
2,57,75,0
2,60,75,0
2,46,71,0
2,53,71,0
2,58,71,0
2,62,71,0
2,39,71,16
2,55,71,0
2,58,71,0
2,62,71,0
2,41,71,16
2,53,71,0
2,60,71,0
2,46,71,16
2,53,71,0
2,58,71,0
2,62,71,0
2,39,71,16
2,55,71,0
2,58,71,0
2,62,71,0
2,41,71,16
2,53,71,0
2,60,71,0
2,46,71,16
2,53,71,0
2,58,71,0
2,62,71,0
2,39,71,16
2,55,71,0
2,58,71,0
2,62,71,0
2,41,71,16
2,53,71,0
2,60,71,0
2,46,71,16
2,53,71,0
2,58,71,0
2,62,71,0
2,39,71,16
2,55,71,0
2,58,71,0
2,62,71,0
2,41,71,16
2,53,71,0
2,60,71,0
2,46,71,0
2,53,71,0
2,58,71,0
2,62,71,0
3,53,88,9620
3,62,87,28
3,62,82,40
3,62,83,32
3,62,83,36
3,62,87,36
3,62,84,32
3,62,84,34
3,62,87,30
3,62,86,20
3,62,86,66
3,62,84,36
3,60,84,2
3,58,87,2
3,60,84,12
3,58,82,518
3,60,84,36
3,60,73,38
3,60,86,40
3,60,83,36
3,62,84,18
3,60,81,40
3,58,85,2
3,62,84,638
3,60,84,28
3,60,84,28
3,58,76,2
3,53,88,866
3,62,87,28
3,62,82,40
3,62,83,32
3,62,83,36
3,62,87,36
3,62,84,32
3,62,84,34
3,62,87,30
3,62,86,20
3,62,83,18
3,62,86,36
3,62,84,14
3,60,84,2
3,58,87,2
3,60,84,12
3,58,82,518
3,60,84,36
3,60,73,38
3,60,86,40
3,60,83,36
3,60,87,18
3,62,87,18
3,60,81,18
3,58,85,2
3,62,89,574
3,62,84,12
3,63,89,66
3,62,83,2
3,60,83,2
3,58,82,2
3,60,83,942
3,62,83,2
3,63,87,8
3,63,86,20
3,63,85,18
3,63,86,18
3,63,88,34
3,62,84,4
3,62,82,20
3,60,84,18
3,60,80,340
3,62,83,4
3,63,86,6
3,62,85,22
3,63,86,2
3,62,85,38
3,65,89,24
3,63,88,2
3,62,86,2
3,60,82,4
3,62,85,2
3,63,86,574
3,62,86,2
3,60,83,12
3,60,88,420
3,62,90,2
3,63,93,2
3,65,92,2
3,67,89,1266
3,67,89,52
3,65,90,20
3,63,91,12
3,62,89,2
3,58,73,750
3,58,64,140
3,58,77,60
3,62,92,646
3,63,91,18
3,65,91,14
3,67,90,14
3,60,94,2188
3,62,90,12
3,63,89,12
3,65,90,26
3,65,92,876
3,65,92,72
3,65,93,10
3,65,89,10
3,65,92,774
3,67,93,34
3,68,93,2
3,67,93,2
3,65,89,2
3,63,89,2
3,69,95,1488
3,69,95,74
3,67,92,12
3,69,94,26
3,70,93,42
3,69,93,12
3,70,88,2
3,69,88,2
3,67,90,2
3,55,90,1516
3,55,90,58
3,58,90,12
3,62,89,22
3,60,88,2
3,62,89,2250
3,60,84,22
3,58,90,2
3,58,89,44
3,53,90,5842
3,62,89,28
3,62,84,40
3,62,85,32
3,62,85,36
3,62,89,36
3,62,86,32
3,62,86,34
3,62,89,30
3,62,88,20
3,62,88,24
3,62,88,24
3,60,86,36
3,58,89,2
3,60,86,12
3,58,84,518
3,60,86,36
3,60,75,38
3,60,88,40
3,60,85,36
3,62,86,18
3,63,83,40
3,62,87,2
3,60,86,776
3,60,86,28
3,62,86,28
3,58,81,2
3,55,73,2
3,62,89,1154
3,62,84,40
3,62,85,32
3,62,85,36
3,62,89,36
3,62,86,32
3,62,86,34
3,62,89,30
3,62,89,20
3,62,88,32
3,62,85,18
3,62,86,36
3,60,86,2
3,58,89,2
3,60,86,12
3,60,75,326
3,60,88,18
3,62,85,18
3,63,86,18
3,63,88,16
3,62,85,36
3,60,89,18
3,62,83,18
3,62,78,382
3,62,91,18
3,62,86,12
3,63,91,24
3,65,85,2
3,58,84,2
3,60,85,846
3,62,85,2
3,63,89,8
3,63,88,20
3,63,90,18
3,62,86,4
3,62,84,20
3,60,86,18
3,60,82,340
3,62,85,4
3,63,88,6
3,62,87,22
3,63,88,2
3,62,87,38
3,65,91,24
3,63,90,2
3,62,88,2
3,60,84,4
3,62,87,2
3,58,82,574
3,58,85,24
3,63,88,24
3,62,88,2
3,60,85,12
3,60,91,324
3,62,93,2
3,63,96,2
3,65,95,2
3,67,92,1266
3,67,92,52
3,65,93,20
3,63,94,12
3,62,92,2
3,58,76,750
3,58,67,140
3,58,80,60
3,62,95,646
3,63,94,18
3,65,94,14
3,67,93,14
3,60,97,2188
3,62,93,12
3,63,92,12
3,65,93,26
3,65,95,876
3,65,95,72
3,65,96,10
3,65,92,10
3,65,95,774
3,67,96,34
3,68,96,2
3,67,96,2
3,67,92,24
3,67,95,2
3,65,92,2
3,63,92,2
3,69,98,1296
3,69,98,74
3,67,95,12
3,69,97,26
3,70,96,42
3,69,96,12
3,70,91,2
3,69,91,2
3,67,93,2
3,55,93,1516
3,55,93,58
3,58,93,12
3,62,92,22
3,60,91,2
3,62,92,2250
3,60,87,22
3,58,93,2
3,62,92,44
3,55,93,1722
3,55,93,36
3,57,93,12
3,58,92,22
3,62,94,2
3,60,91,18
3,62,92,1194
