track,note,velocity,time
1,29,100,1536
1,29,100,2
1,28,100,2
1,26,100,2
1,29,100,2
1,30,100,2
1,31,100,2
1,31,100,2
1,38,100,2
1,36,100,2
1,29,100,2
1,29,100,2
1,28,100,2
1,26,100,2
1,29,100,2
1,30,100,2
1,31,100,2
1,31,100,2
1,38,100,2
1,36,100,2
1,29,100,2
1,38,100,2
1,31,100,2
1,36,100,2
1,36,100,2
1,40,100,2
1,41,100,2
1,41,100,194
1,38,100,96
1,30,100,194
1,31,100,2
1,33,100,2
1,33,100,2
1,36,100,2
1,38,100,2
1,36,100,194
1,34,100,2
1,33,100,2
1,31,100,2
1,33,100,2
1,34,100,2
1,34,100,386
1,36,100,2
1,29,100,2
1,29,100,194
1,38,100,2
1,29,100,2
1,30,100,2
1,31,100,2
1,34,100,2
1,38,100,2
1,36,100,2
1,36,100,70
1,29,100,2
1,30,100,2
1,31,100,2
1,31,100,70
1,31,100,2
1,36,100,2
1,36,100,70
1,36,100,68
1,38,100,2
1,29,100,2
1,38,100,2
1,29,98,148
1,30,100,2
1,31,100,2
1,31,100,340
1,36,100,2
1,36,100,148
1,38,100,2
1,29,100,2
1,29,100,340
1,38,100,2
1,29,100,148
1,30,100,2
1,31,100,2
1,34,100,148
1,38,100,2
1,36,100,2
1,36,100,148
1,38,100,2
1,29,100,2
1,29,100,194
1,26,100,2
1,36,100,194
1,34,100,2
1,34,100,70
1,29,100,2
1,34,100,2
1,34,100,70
1,33,100,2
1,31,100,2
1,29,100,2
1,26,100,2
1,38,100,70
1,29,100,2
1,30,100,2
1,31,100,2
1,31,100,70
1,31,100,164
1,36,100,2
1,36,100,70
1,36,100,96
1,36,100,68
1,36,100,96
1,36,100,70
1,36,100,96
1,29,100,262
1,38,100,2
1,31,100,2
1,36,100,2
1,36,100,2
1,40,100,2
1,41,100,2
1,41,100,194
1,38,100,2
1,30,100,194
1,31,100,2
1,33,100,2
1,33,100,2
1,36,100,2
1,38,100,2
1,36,100,194
1,34,100,2
1,33,100,2
1,31,100,2
1,33,100,2
1,34,100,2
1,34,100,386
1,36,100,2
1,29,100,2
1,29,100,192
1,38,100,2
1,29,100,2
1,30,100,2
1,31,100,2
1,34,100,2
1,38,100,2
1,36,100,2
1,36,100,70
1,29,100,2
1,30,100,2
1,31,100,2
1,31,100,70
1,31,100,2
1,36,100,2
1,36,100,70
1,36,100,70
1,38,100,2
1,29,100,2
1,38,100,2
1,29,98,148
1,30,100,2
1,31,100,2
1,31,100,340
1,36,100,2
1,36,100,148
1,38,100,2
1,29,100,2
1,29,100,340
1,38,100,2
1,29,100,148
1,30,100,2
1,31,100,2
1,34,100,148
1,38,100,2
1,36,100,2
1,36,100,148
1,38,100,2
1,29,100,2
1,29,100,194
1,26,100,2
1,36,100,194
1,34,100,2
1,34,100,70
1,34,100,190
1,34,100,70
1,33,100,2
1,31,100,2
1,29,100,2
1,26,100,2
1,38,100,70
1,29,100,2
1,30,100,2
1,31,100,2
1,31,100,70
1,31,100,162
1,36,100,2
1,36,100,70
1,36,100,98
1,36,100,68
1,29,100,96
1,38,100,2
1,29,98,148
1,30,100,2
1,31,100,2
1,36,100,0
1,29,100,1536
1,29,100,2
1,28,100,2
1,26,100,2
1,29,100,2
1,30,100,2
1,31,100,2
1,31,100,2
1,38,100,2
1,36,100,2
1,29,100,2
1,29,100,2
1,28,100,2
1,26,100,2
1,29,100,2
1,30,100,2
1,31,100,2
1,31,100,2
1,38,100,2
1,36,100,2
1,29,100,2
1,29,100,2
1,28,100,2
1,26,100,2
1,29,100,2
1,30,100,2
1,31,100,2
1,31,100,2
1,38,100,2
1,36,100,2
1,29,100,2
1,29,100,2
1,28,100,2
1,26,100,2
1,29,100,2
1,30,100,2
1,31,100,2
1,31,100,2
1,38,100,2
1,36,100,2
1,29,100,2
1,29,100,2
1,28,100,2
1,26,100,2
1,29,100,2
1,30,100,2
1,31,100,2
1,31,100,2
1,38,100,2
1,36,100,2
1,29,100,0
1,29,100,2
1,28,100,2
1,26,100,0
1,29,100,2
1,30,100,2
1,31,100,0
1,31,100,2
1,38,100,2
2,60,40,1536
2,65,40,0
2,69,40,0
2,62,40,2
2,65,40,0
2,69,40,0
2,62,40,4
2,65,40,0
2,67,40,0
2,70,40,0
2,60,40,6
2,64,40,0
2,67,40,0
2,60,40,6
2,65,40,0
2,69,40,0
2,62,40,4
2,65,40,0
2,69,40,0
2,62,40,4
2,65,40,0
2,67,40,0
2,70,40,0
2,60,40,6
2,64,40,0
2,67,40,0
2,57,40,4
2,60,40,0
2,65,40,0
2,57,40,4
2,62,40,0
2,66,40,0
2,58,40,4
2,62,40,0
2,67,40,0
2,60,40,4
2,64,40,0
2,67,40,0
2,57,40,4
2,60,40,0
2,65,40,0
2,57,40,6
2,62,40,0
2,65,40,0
2,58,40,4
2,62,40,0
2,67,40,0
2,57,40,4
2,61,40,0
2,64,40,0
2,57,40,4
2,62,40,0
2,65,40,0
2,58,40,4
2,62,40,0
2,65,40,0
2,57,40,4
2,60,40,0
2,64,40,0
2,58,40,4
2,62,40,0
2,65,40,0
2,57,40,4
2,60,40,0
2,65,40,0
2,57,40,4
2,60,40,0
2,65,40,0
2,58,40,4
2,62,40,0
2,67,40,0
2,55,40,4
2,60,40,0
2,64,40,0
2,58,40,6
2,62,40,0
2,67,40,0
2,55,40,4
2,60,40,0
2,64,40,0
2,57,40,4
2,60,40,0
2,65,40,0
2,57,40,4
2,62,40,0
2,65,40,0
2,58,40,4
2,62,40,0
2,65,40,0
2,67,40,0
2,60,40,4
2,64,40,0
2,67,40,0
2,53,40,4
2,57,40,0
2,60,40,0
2,64,40,0
2,57,40,4
2,62,40,0
2,65,40,0
2,58,40,6
2,62,40,0
2,65,40,0
2,67,40,0
2,60,40,4
2,64,40,0
2,67,40,0
2,57,40,6
2,60,40,0
2,65,40,0
2,57,40,4
2,62,40,0
2,65,40,0
2,58,40,4
2,62,40,0
2,65,40,0
2,58,40,6
2,61,40,0
2,65,40,0
2,57,40,4
2,60,40,0
2,65,40,0
2,57,40,6
2,62,40,0
2,65,40,0
2,55,40,4
2,58,40,0
2,62,40,0
2,65,40,0
2,60,40,4
2,64,40,0
2,67,40,0
2,60,40,6
2,64,40,0
2,67,40,0
2,57,40,4
2,60,40,0
2,65,40,0
2,57,40,6
2,62,40,0
2,66,40,0
2,58,40,4
2,62,40,0
2,67,40,0
2,60,40,4
2,64,40,0
2,67,40,0
2,57,40,6
2,60,40,0
2,65,40,0
2,57,40,4
2,62,40,0
2,65,40,0
2,58,40,4
2,62,40,0
2,67,40,0
2,57,40,4
2,61,40,0
2,64,40,0
2,57,40,4
2,62,40,0
2,65,40,0
2,58,40,4
2,62,40,0
2,65,40,0
2,57,40,4
2,60,40,0
2,64,40,0
2,58,40,4
2,62,40,0
2,65,40,0
2,57,40,4
2,60,40,0
2,65,40,0
2,57,40,6
2,60,40,0
2,65,40,0
2,58,40,4
2,62,40,0
2,67,40,0
2,55,40,4
2,60,40,0
2,64,40,0
2,58,40,4
2,62,40,0
2,67,40,0
2,55,40,4
2,60,40,0
2,64,40,0
2,57,40,4
2,60,40,0
2,65,40,0
2,57,40,4
2,62,40,0
2,65,40,0
2,58,40,4
2,62,40,0
2,65,40,0
2,67,40,0
2,60,40,6
2,64,40,0
2,67,40,0
2,53,40,4
2,57,40,0
2,60,40,0
2,64,40,0
2,57,40,6
2,62,40,0
2,65,40,0
2,58,40,6
2,62,40,0
2,65,40,0
2,67,40,0
2,60,40,4
2,64,40,0
2,67,40,0
2,57,40,6
2,60,40,0
2,65,40,0
2,57,40,4
2,62,40,0
2,65,40,0
2,58,40,4
2,62,40,0
2,65,40,0
2,58,40,4
2,61,40,0
2,65,40,0
2,57,40,4
2,60,40,0
2,65,40,0
2,57,40,4
2,62,40,0
2,65,40,0
2,55,40,6
2,58,40,0
2,62,40,0
2,65,40,0
2,60,40,4
2,64,40,0
2,67,40,0
2,57,40,6
2,60,40,0
2,65,40,0
2,57,40,4
2,62,40,0
2,65,40,0
2,60,40,4
2,67,40,0
3,57,64,41472
3,60,64,0
3,65,64,0
3,57,64,2
3,62,64,0
3,65,64,0
3,58,64,2
3,62,64,0
3,65,64,0
3,67,64,0
3,60,64,2
3,64,64,0
3,67,64,0
3,53,64,2
3,57,64,0
3,60,64,0
3,64,64,0
3,57,64,2
3,62,64,0
3,65,64,0
3,58,64,4
3,62,64,0
3,65,64,0
3,67,64,0
3,60,64,2
3,64,64,0
3,67,64,0
3,57,64,4
3,60,64,0
3,65,64,0
3,57,64,4
3,62,64,0
3,65,64,0
3,58,64,2
3,62,64,0
3,65,64,0
3,58,64,2
3,61,64,0
3,65,64,0
3,57,64,2
3,60,64,0
3,65,64,0
3,57,64,2
3,62,64,0
3,65,64,0
3,55,64,2
3,58,64,0
3,62,64,0
3,65,64,0
3,60,64,2
3,64,64,0
3,67,64,0
3,60,64,4
3,64,64,0
3,67,64,0
3,57,64,27650
3,60,64,0
3,65,64,0
3,57,64,2
3,62,64,0
3,65,64,0
3,58,64,0
3,62,64,0
3,65,64,0
3,67,64,0
3,60,64,2
3,64,64,0
3,67,64,0
3,53,64,2
3,57,64,0
3,60,64,0
3,64,64,0
3,57,64,4
3,62,64,0
3,65,64,0
3,58,64,4
3,62,64,0
3,65,64,0
3,67,64,0
3,60,64,2
3,64,64,0
3,67,64,0
3,57,64,2
3,60,64,0
3,65,64,0
3,57,64,4
3,62,64,0
3,65,64,0
3,58,64,2
3,62,64,0
3,65,64,0
3,58,64,2
3,61,64,0
3,65,64,0
3,57,64,2
3,60,64,0
3,65,64,0
3,57,64,2
3,62,64,0
3,65,64,0
3,55,64,2
3,58,64,0
3,62,64,0
3,65,64,0
3,60,64,2
3,64,64,0
3,67,64,0
3,57,64,4
3,60,64,0
3,65,64,0
3,57,64,4
3,62,64,0
3,65,64,0
3,60,64,0
3,67,64,0
3,65,64,3072
3,69,64,0
3,62,64,0
3,65,64,0
3,69,64,0
3,62,64,4
3,65,64,0
3,67,64,0
3,70,64,0
3,60,64,4
3,64,64,0
3,67,64,0
3,60,64,6
3,65,64,0
3,69,64,0
3,62,64,4
3,65,64,0
3,69,64,0
3,62,64,4
3,65,64,0
3,67,64,0
3,70,64,0
3,60,64,4
3,64,64,0
3,67,64,0
3,60,64,4
3,65,64,0
3,69,64,0
3,62,64,4
3,65,64,0
3,69,64,0
3,62,64,4
3,65,64,0
3,67,64,0
3,70,64,0
3,60,64,4
3,64,64,0
3,67,64,0
3,60,64,4
3,65,64,0
3,69,64,0
3,62,64,4
3,65,64,0
3,69,64,0
3,62,64,4
3,65,64,0
3,67,64,0
3,70,64,0
3,60,64,4
3,64,64,0
3,67,64,0
3,60,64,6
3,65,64,0
3,69,64,0
3,62,64,4
3,65,64,0
3,69,64,0
3,62,64,4
3,65,64,0
3,67,64,0
3,70,64,0
3,60,64,4
3,64,64,0
3,67,64,0
3,60,64,6
3,65,64,0
3,69,64,0
3,62,64,4
3,65,64,0
3,69,64,0
3,62,64,6
3,65,64,0
3,67,64,0
3,70,64,0
4,65,89,1536
4,67,89,0
4,65,89,2
4,67,89,2
4,65,89,12290
4,64,89,2
4,65,89,2
4,67,89,2
4,53,89,114
4,65,89,0
4,52,89,3074
4,64,89,0
4,67,89,4610
4,65,89,23044
4,64,89,0
4,65,89,2
4,67,89,2
4,53,89,114
4,65,89,0
4,52,89,3074
4,64,89,0
4,67,89,4612
4,53,89,9218
4,65,89,0
4,60,89,3074
4,65,89,0
4,69,89,0
4,62,89,0
4,65,89,0
4,69,89,0
4,62,89,4
4,65,89,0
4,67,89,0
4,70,89,0
4,60,89,4
4,64,89,0
4,67,89,0
4,60,89,6
4,65,89,0
4,69,89,0
4,62,89,4
4,65,89,0
4,69,89,0
4,62,89,4
4,65,89,0
4,67,89,0
4,70,89,0
4,60,89,4
4,64,89,0
4,67,89,0
4,60,89,6
4,65,89,0
4,69,89,0
4,62,89,4
4,65,89,0
4,69,89,0
4,62,89,4
4,65,89,0
4,67,89,0
4,70,89,0
4,60,89,4
4,64,89,0
4,67,89,0
4,60,89,4
4,65,89,0
4,69,89,0
4,62,89,4
4,65,89,0
4,69,89,0
4,62,89,4
4,65,89,0
4,67,89,0
4,70,89,0
4,60,89,4
4,64,89,0
4,67,89,0
4,60,89,6
4,65,89,0
4,69,89,0
4,62,89,4
4,65,89,0
4,69,89,0
4,62,89,4
4,65,89,0
4,67,89,0
4,70,89,0
4,60,89,4
4,64,89,0
4,67,89,0
4,60,89,4
4,65,89,0
4,69,89,0
4,62,89,4
4,65,89,0
4,69,89,0
4,62,89,4
4,65,89,0
4,67,89,0
4,70,89,0
5,57,110,14400
5,60,110,0
5,65,110,0
5,54,110,768
5,57,110,0
5,62,110,0
5,55,110,768
5,58,110,0
5,62,110,0
5,67,110,0
5,52,110,768
5,55,110,0
5,60,110,0
5,57,110,768
5,60,110,0
5,65,110,0
5,53,110,768
5,57,110,0
5,62,110,0
5,55,110,768
5,58,110,0
5,62,110,0
5,67,110,0
5,57,110,768
5,61,110,0
5,64,110,0
5,53,110,384
5,57,110,0
5,62,110,2
5,58,110,1152
5,62,110,0
5,65,110,0
5,57,110,192
5,64,110,0
5,69,102,192
5,58,110,576
5,65,110,0
5,70,102,192
5,53,117,0
5,55,110,574
5,60,110,0
5,65,110,0
5,55,110,766
5,60,110,0
5,65,110,0
5,55,110,768
5,58,110,0
5,62,110,0
5,52,110,768
5,55,110,0
5,60,110,0
5,55,110,768
5,58,110,0
5,62,110,0
5,52,110,768
5,55,110,0
5,60,110,0
5,55,110,768
5,60,110,0
5,65,110,0
5,53,110,768
5,57,110,0
5,62,110,0
5,55,110,768
5,58,110,0
5,62,110,0
5,67,117,768
5,58,110,4224
5,62,110,0
5,67,110,0
5,52,110,768
5,55,110,0
5,60,110,0
5,57,110,768
5,60,110,0
5,65,110,0
5,53,110,768
5,57,110,0
5,62,110,0
5,62,102,768
5,65,102,0
5,70,102,0
5,61,102,768
5,65,102,0
5,70,102,0
5,55,110,768
5,60,110,0
5,65,110,0
5,53,110,766
5,57,110,0
5,62,110,0
5,58,110,384
5,62,110,0
5,67,110,0
5,60,117,0
5,60,110,1922
5,64,110,0
5,67,110,0
5,57,110,768
5,60,110,0
5,65,110,0
5,54,110,768
5,57,110,0
5,62,110,0
5,55,110,768
5,58,110,0
5,62,110,0
5,67,110,0
5,52,110,768
5,55,110,0
5,60,110,0
5,57,110,768
5,60,110,0
5,65,110,0
5,53,110,766
5,57,110,0
5,62,110,0
5,55,110,768
5,58,110,0
5,62,110,0
5,67,110,0
5,57,110,768
5,61,110,0
5,64,110,0
5,53,110,384
5,57,110,192
5,62,110,2
5,58,110,1152
5,62,110,0
5,65,110,0
5,57,110,192
5,64,110,0
5,69,102,192
5,58,110,576
5,65,110,0
5,70,102,192
5,53,117,0
5,55,110,574
5,60,110,0
5,65,110,0
5,55,110,768
5,60,110,0
5,65,110,0
5,55,110,766
5,58,110,0
5,62,110,0
5,52,110,768
5,55,110,0
5,60,110,0
5,55,110,768
5,58,110,0
5,62,110,0
5,52,110,768
5,55,110,0
5,60,110,0
5,55,110,768
5,60,110,0
5,65,110,0
5,53,110,768
5,57,110,0
5,62,110,0
5,55,110,768
5,58,110,0
5,62,110,0
5,67,117,768
5,58,110,4224
5,62,110,0
5,67,110,0
5,52,110,768
5,55,110,0
5,60,110,0
5,57,110,768
5,60,110,0
5,65,110,0
5,53,110,768
5,57,110,0
5,62,110,0
5,62,102,768
5,65,102,0
5,70,102,0
5,61,111,768
5,65,111,0
5,70,111,0
5,55,110,768
5,60,110,0
5,65,110,0
5,53,110,768
5,57,110,0
5,62,110,0
5,58,110,382
5,62,110,0
5,67,110,0
5,60,117,0
5,55,110,1922
5,60,110,0
5,65,110,0
5,53,110,768
5,57,110,0
5,62,110,0
5,53,116,3264
5,65,116,6
5,69,117,192
5,72,117,2
5,50,116,382
5,65,116,10
5,69,117,192
