track,note,velocity,time
0,42,120,239
0,42,99,93
0,42,99,93
0,42,99,93
0,67,64,93
0,72,64,0
0,76,64,0
0,67,74,0
0,72,74,0
0,76,74,0
0,69,110,0
0,54,92,0
0,36,124,0
0,51,102,0
0,42,99,0
0,36,127,0
0,69,67,0
0,69,87,21
0,61,101,0
0,36,127,0
0,69,67,4
0,61,101,0
0,36,127,0
0,69,110,0
0,42,99,0
0,31,127,0
0,54,92,0
0,38,123,0
0,51,102,0
0,69,67,4
0,33,127,0
0,69,87,4
0,63,101,0
0,36,127,0
0,36,124,0
0,69,67,21
0,54,92,21
0,36,124,0
0,51,102,0
0,69,110,0
0,42,99,0
0,69,67,21
0,69,87,21
0,42,99,0
0,54,92,0
0,69,67,12
0,64,101,0
0,31,127,0
0,69,110,4
0,42,99,0
0,28,127,0
0,54,92,0
0,38,123,0
0,51,102,0
0,69,67,21
0,63,101,0
0,46,101,21
0,69,87,1
0,63,101,0
0,69,67,17
0,36,124,0
0,69,64,8
0,72,64,0
0,76,64,0
0,69,74,0
0,72,74,0
0,76,74,0
0,69,110,0
0,54,92,0
0,36,124,0
0,51,102,0
0,42,99,0
0,29,127,0
0,69,67,21
0,69,87,21
0,61,101,0
0,69,67,21
0,61,101,0
0,69,110,21
0,38,123,0
0,51,102,0
0,69,67,21
0,69,64,8
0,72,64,0
0,76,64,0
0,69,74,0
0,72,74,0
0,76,74,0
0,69,87,0
0,63,101,0
0,42,99,0
0,29,127,0
0,54,92,0
0,36,124,0
0,51,102,0
0,69,67,4
0,54,92,21
0,36,124,0
0,51,102,0
0,69,110,0
0,42,99,0
0,29,127,0
0,69,67,21
0,67,64,4
0,72,64,0
0,74,64,0
0,67,74,0
0,72,74,0
0,74,74,0
0,69,87,0
0,31,127,0
0,69,67,4
0,64,101,0
0,69,110,21
0,42,99,0
0,31,127,0
0,54,92,0
0,38,123,0
0,51,102,0
0,69,67,21
0,63,101,0
0,67,91,21
0,69,87,4
0,63,101,0
0,69,67,17
0,36,124,0
0,67,64,8
0,72,64,0
0,76,64,0
0,69,110,0
0,54,92,0
0,36,124,0
0,51,102,0
0,36,127,0
0,76,108,0
0,69,67,8
0,76,78,1
0,69,87,12
0,61,101,0
0,76,79,1
0,69,67,12
0,61,101,0
0,76,77,1
0,69,110,12
0,38,123,0
0,76,110,1
0,69,67,12
0,76,96,1
0,69,87,12
0,63,101,0
0,31,127,0
0,54,92,0
0,36,124,0
0,76,88,1
0,69,67,4
0,28,127,0
0,76,120,1
0,69,64,4
0,72,64,0
0,76,64,0
0,54,92,0
0,36,124,0
0,51,102,0
0,69,110,0
0,29,127,0
0,69,67,12
0,76,94,1
0,69,87,12
0,76,102,1
0,69,67,16
0,64,101,0
0,76,104,1
0,69,110,16
0,76,104,0
0,38,123,0
0,69,67,21
0,63,101,0
0,74,94,0
0,51,102,0
0,46,101,0
0,72,97,0
0,69,87,1
0,63,101,0
0,29,127,0
0,69,67,8
0,74,125,0
0,36,124,0
0,69,64,0
0,71,64,0
0,74,64,0
0,69,110,0
0,54,92,0
0,36,124,0
0,51,102,0
0,42,99,0
0,31,127,0
0,69,67,21
0,69,87,21
0,61,101,0
0,69,67,21
0,61,101,0
0,69,110,21
0,54,92,0
0,38,123,0
0,69,67,21
0,64,57,12
0,69,87,0
0,63,101,0
0,31,127,0
0,36,124,0
0,69,67,4
0,29,127,0
0,74,108,0
0,68,64,0
0,54,92,0
0,36,124,0
0,51,102,0
0,69,110,0
0,28,127,0
0,69,67,4
0,74,68,0
0,69,87,12
0,54,92,0
0,74,85,0
0,74,93,12
0,69,67,0
0,64,101,0
0,76,122,8
0,76,64,0
0,69,110,0
0,32,127,0
0,54,92,0
0,38,123,0
0,69,67,21
0,63,101,0
0,69,87,25
0,63,101,0
0,69,67,17
0,36,124,0
0,74,92,1
0,64,64,8
0,69,64,0
0,72,64,0
0,69,110,0
0,54,92,0
0,36,124,0
0,51,102,0
0,33,127,0
0,72,117,0
0,69,67,20
0,69,87,21
0,61,101,0
0,69,67,21
0,61,101,0
0,69,110,21
0,38,123,0
0,69,67,21
0,69,87,12
0,63,101,0
0,54,92,0
0,36,124,0
0,69,67,21
0,33,127,0
0,54,92,4
0,36,124,0
0,51,102,0
0,69,110,0
0,33,127,0
0,69,67,21
0,69,87,21
0,76,70,1
0,69,67,20
0,64,101,0
0,62,64,8
0,67,64,0
0,71,64,0
0,69,110,0
0,31,127,0
0,54,92,0
0,38,123,0
0,74,62,0
0,69,67,8
0,63,101,0
0,74,63,21
0,69,87,4
0,63,101,0
0,69,67,17
0,36,124,0
0,65,64,0
0,69,64,0
0,72,64,0
0,69,110,0
0,54,92,0
0,36,124,0
0,51,102,0
0,29,127,0
0,72,46,1
0,69,67,20
0,69,87,21
0,61,101,0
0,69,67,21
0,61,101,0
0,69,110,21
0,38,123,0
0,69,67,21
0,69,87,21
0,63,101,0
0,54,92,0
0,36,124,0
0,69,67,12
0,36,127,0
0,54,92,4
0,36,124,0
0,51,102,0
0,69,110,0
0,41,127,0
0,69,67,21
0,69,87,21
0,69,67,4
0,64,101,0
0,36,127,0
0,69,110,4
0,41,127,0
0,54,92,0
0,38,123,0
0,69,67,4
0,63,101,0
0,43,127,0
0,51,102,8
0,46,101,0
0,69,87,1
0,63,101,0
0,69,67,4
0,31,127,0
0,36,124,0
0,67,96,1
0,67,64,4
0,72,66,0
0,76,64,0
0,69,110,0
0,54,92,0
0,36,124,0
0,51,102,0
0,42,99,0
0,36,127,0
0,76,114,0
0,69,67,8
0,76,92,0
0,69,87,12
0,61,101,0
0,76,106,1
0,69,67,12
0,61,101,0
0,76,94,0
0,69,110,16
0,76,117,0
0,54,92,0
0,38,123,0
0,69,67,12
0,76,94,1
0,69,87,12
0,63,101,0
0,31,127,0
0,76,79,0
0,36,124,0
0,69,67,4
0,28,127,0
0,76,127,0
0,69,64,4
0,72,64,0
0,76,64,0
0,54,92,0
0,36,124,0
0,51,102,0
0,69,110,0
0,29,127,0
0,76,81,12
0,69,67,0
0,76,109,16
0,69,87,0
0,54,92,0
0,76,89,20
0,69,67,0
0,64,101,0
0,69,110,20
0,76,127,0
0,54,92,0
0,38,123,0
0,74,69,8
0,69,67,0
0,63,101,0
0,33,127,0
0,72,106,4
0,46,101,0
0,69,87,1
0,63,101,0
0,29,127,0
0,74,124,4
0,69,67,0
0,36,124,0
0,69,64,0
0,71,64,0
0,74,64,0
0,69,110,0
0,54,92,0
0,36,124,0
0,51,102,0
0,42,99,0
0,31,127,0
0,69,67,21
0,69,87,21
0,61,101,0
0,69,67,21
0,61,101,0
0,69,110,0
0,38,123,0
0,69,67,12
0,69,87,21
0,63,101,0
0,31,127,0
0,54,92,0
0,36,124,0
0,69,67,21
0,64,71,0
0,68,64,4
0,54,92,0
0,36,124,0
0,51,102,0
0,69,110,0
0,28,127,0
0,74,92,1
0,69,67,12
0,74,76,0
0,69,87,12
0,74,104,0
0,69,67,16
0,64,101,0
0,74,62,0
0,76,64,4
0,69,110,0
0,32,127,0
0,54,92,0
0,38,123,0
0,74,111,0
0,69,67,0
0,63,101,0
0,76,77,0
0,69,87,4
0,63,101,0
0,74,82,0
0,69,67,17
0,36,124,0
0,72,90,0
0,64,64,8
0,69,64,0
0,72,64,0
0,69,110,0
0,54,92,0
0,36,124,0
0,51,102,0
0,33,127,0
0,72,114,1
0,69,67,20
0,69,87,21
0,61,101,0
0,69,67,21
0,61,101,0
0,69,110,21
0,38,123,0
0,69,67,0
0,69,87,12
0,63,101,0
0,54,92,0
0,36,124,0
0,69,67,21
0,33,127,0
0,76,127,4
0,54,92,0
0,36,124,0
0,51,102,0
0,69,110,0
0,33,127,0
0,69,67,12
0,76,111,1
0,69,87,12
0,77,127,17
0,69,67,4
0,64,101,0
0,67,64,8
0,70,64,0
0,76,64,0
0,69,110,0
0,31,127,0
0,38,123,0
0,69,67,21
0,63,101,0
0,76,102,1
0,54,92,0
0,51,102,0
0,74,104,1
0,69,87,0
0,63,101,0
0,69,67,0
0,36,124,0
0,72,96,0
0,69,64,8
0,72,64,0
0,77,64,0
0,69,110,0
0,54,92,0
0,36,124,0
0,51,102,0
0,29,127,0
0,72,111,1
0,69,67,20
0,69,87,21
0,61,101,0
0,69,67,21
0,61,101,0
0,69,110,21
0,54,92,0
0,38,123,0
0,69,67,21
0,69,87,21
0,63,101,0
0,36,124,0
0,69,67,4
0,36,127,0
0,54,92,4
0,36,124,0
0,51,102,0
0,69,110,0
0,41,127,0
0,69,67,0
0,43,127,0
0,69,87,4
0,41,127,0
0,54,92,0
0,69,67,21
0,64,101,0
0,69,110,21
0,38,123,0
0,69,67,8
0,63,101,0
0,36,127,0
0,69,114,1
0,69,87,8
0,63,101,0
0,33,127,0
0,74,111,0
0,69,67,16
0,36,124,0
0,76,102,0
0,69,64,0
0,74,64,0
0,77,64,0
0,69,110,0
0,54,92,0
0,36,124,0
0,51,102,0
0,38,127,0
0,77,114,1
0,69,67,8
0,77,75,1
0,69,87,12
0,61,101,0
0,77,69,1
0,69,67,12
0,61,101,0
0,77,76,1
0,69,110,12
0,38,123,0
0,77,124,1
0,69,67,20
0,69,87,8
0,63,101,0
0,33,127,0
0,76,111,0
0,54,92,0
0,36,124,0
0,69,67,4
0,33,127,0
0,76,127,0
0,54,92,4
0,36,124,0
0,51,102,0
0,69,110,0
0,38,127,0
0,69,67,0
0,74,120,0
0,69,87,20
0,38,127,0
0,69,67,21
0,64,101,0
0,69,110,0
0,54,92,0
0,38,123,0
0,69,67,21
0,63,101,0
0,74,111,21
0,54,92,0
0,69,87,1
0,63,101,0
0,69,67,8
0,36,124,0
0,76,111,0
0,67,64,8
0,71,64,0
0,74,64,0
0,69,110,0
0,54,92,0
0,36,124,0
0,51,102,0
0,31,127,0
0,77,127,0
0,69,67,16
0,69,87,0
0,61,101,0
0,76,120,0
0,54,92,0
0,69,67,21
0,61,101,0
0,69,110,21
0,38,123,0
0,77,124,1
0,69,67,16
0,69,87,0
0,63,101,0
0,76,84,0
0,54,92,0
0,36,124,0
0,69,67,0
0,38,127,0
0,79,127,1
0,54,92,4
0,36,124,0
0,51,102,0
0,69,110,0
0,31,127,0
0,69,67,21
0,69,87,4
0,31,127,0
0,77,111,1
0,69,67,16
0,64,101,0
0,69,110,0
0,76,94,0
0,38,123,0
0,69,67,8
0,63,101,0
0,31,127,0
0,74,86,4
0,54,92,0
0,51,102,0
0,69,87,1
0,63,101,0
0,32,127,0
0,69,67,17
0,76,124,0
0,36,124,0
0,69,64,0
0,72,64,0
0,76,64,0
0,69,110,0
0,54,92,0
0,36,124,0
0,51,102,0
0,33,127,0
0,69,67,21
0,69,87,21
0,61,101,0
0,69,67,21
0,61,101,0
0,69,110,21
0,54,92,0
0,38,123,0
0,69,67,21
0,69,87,12
0,63,101,0
0,45,127,0
0,36,124,0
0,69,67,4
0,33,127,0
0,54,92,4
0,36,124,0
0,51,102,0
0,69,110,0
0,33,127,0
0,69,67,21
0,72,117,21
0,69,87,0
0,54,92,0
0,69,67,21
0,64,101,0
0,69,110,0
0,77,111,0
0,38,123,0
0,69,67,12
0,63,101,0
0,76,114,21
0,46,101,0
0,69,87,0
0,63,101,0
0,40,127,0
0,69,67,0
0,45,127,0
0,36,124,0
0,74,86,4
0,71,64,0
0,74,64,0
0,79,64,0
0,69,110,0
0,54,92,0
0,36,124,0
0,51,102,0
0,42,99,0
0,43,127,0
0,69,67,21
0,69,87,21
0,61,101,0
0,69,67,21
0,61,101,0
0,69,110,21
0,38,123,0
0,69,67,8
0,69,87,4
0,63,101,0
0,42,99,0
0,43,127,0
0,54,92,0
0,36,124,0
0,67,109,0
0,69,67,8
0,74,109,4
0,54,92,0
0,36,124,0
0,51,102,0
0,69,110,0
0,42,99,0
0,41,127,0
0,69,67,21
0,69,87,4
0,76,114,0
0,69,67,21
0,64,101,0
0,69,110,8
0,41,127,0
0,77,111,0
0,54,92,0
0,38,123,0
0,69,67,16
0,63,101,0
0,79,124,16
0,69,87,4
0,63,101,0
0,60,79,4
0,69,67,0
0,36,124,0
0,72,64,0
0,76,64,0
0,79,64,0
0,60,74,0
0,67,74,0
0,76,74,0
0,79,74,0
0,69,110,0
0,54,92,0
0,36,124,0
0,51,102,0
0,42,99,0
0,36,127,0
0,60,79,21
0,69,67,0
0,57,79,8
0,69,87,0
0,61,101,0
0,42,99,0
0,54,92,0
0,55,79,8
0,69,67,0
0,61,101,0
0,60,79,0
0,69,110,0
0,38,123,0
0,69,67,4
0,57,79,0
0,69,87,0
0,63,101,0
0,36,127,0
0,36,124,0
0,69,67,8
0,64,74,0
0,54,92,0
0,36,124,0
0,51,102,0
0,69,110,0
0,42,99,0
0,40,127,0
0,69,67,8
0,69,87,21
0,69,67,21
0,64,101,0
0,69,110,21
0,38,123,0
0,55,79,21
0,69,67,0
0,63,101,0
0,51,102,8
0,46,101,0
0,57,79,1
0,69,87,0
0,63,101,0
0,40,127,0
0,60,79,2
0,69,67,0
0,40,127,0
0,36,124,0
0,72,64,4
0,77,64,0
0,81,64,0
0,65,74,0
0,77,74,0
0,81,74,0
0,69,110,0
0,54,92,0
0,36,124,0
0,51,102,0
0,42,99,0
0,41,127,0
0,60,79,21
0,69,67,0
0,57,79,8
0,69,87,0
0,61,101,0
0,54,92,0
0,55,79,8
0,69,67,0
0,61,101,0
0,60,79,0
0,69,110,0
0,38,123,0
0,69,67,8
0,57,79,0
0,69,87,0
0,63,101,0
0,41,127,0
0,36,124,0
0,81,124,1
0,55,79,8
0,69,67,0
0,74,64,4
0,79,64,0
0,83,64,0
0,54,92,0
0,36,124,0
0,51,102,0
0,69,110,0
0,42,99,0
0,43,127,0
0,81,124,0
0,69,67,21
0,69,87,21
0,42,99,0
0,69,67,12
0,64,101,0
0,79,127,0
0,69,110,21
0,38,123,0
0,69,67,21
0,63,101,0
0,77,117,4
0,57,79,0
0,69,87,0
0,63,101,0
0,42,99,0
0,43,127,0
0,60,79,2
0,69,67,0
0,43,127,0
0,36,124,0
0,72,64,0
0,76,64,0
0,81,64,0
0,69,110,0
0,54,92,0
0,36,124,0
0,51,102,0
0,42,99,0
0,45,127,0
0,76,120,0
0,60,79,12
0,69,67,0
0,57,79,8
0,69,87,0
0,61,101,0
0,54,92,0
0,55,79,8
0,69,67,0
0,61,101,0
0,60,79,8
0,69,110,0
0,38,123,0
0,69,67,4
0,57,79,0
0,69,87,0
0,63,101,0
0,42,99,0
0,45,127,0
0,36,124,0
0,69,67,8
0,54,92,21
0,36,124,0
0,51,102,0
0,69,110,0
0,42,99,0
0,69,67,21
0,69,87,4
0,40,127,0
0,69,67,4
0,64,101,0
0,52,127,0
0,71,64,4
0,74,64,0
0,79,64,0
0,62,79,0
0,69,110,0
0,47,127,0
0,74,109,0
0,38,123,0
0,60,79,8
0,69,67,0
0,63,101,0
0,72,78,4
0,57,79,4
0,69,87,0
0,63,101,0
0,55,79,4
0,69,67,0
0,36,124,0
0,76,124,0
0,69,64,0
0,72,64,0
0,76,64,0
0,69,110,0
0,54,92,0
0,36,124,0
0,51,102,0
0,42,99,0
0,45,127,0
0,60,79,21
0,69,67,0
0,57,79,8
0,69,87,0
0,61,101,0
0,42,99,0
0,54,92,0
0,55,79,8
0,69,67,0
0,61,101,0
0,60,79,0
0,69,110,0
0,38,123,0
0,69,67,4
0,57,79,0
0,69,87,0
0,63,101,0
0,36,124,0
0,69,102,0
0,69,67,8
0,54,92,0
0,36,124,0
0,51,102,0
0,69,110,0
0,42,99,0
0,76,106,1
0,69,67,20
0,69,87,21
0,77,117,1
0,69,67,12
0,64,101,0
0,33,127,0
0,69,110,4
0,40,127,0
0,38,123,0
0,79,102,0
0,69,67,20
0,63,101,0
0,81,111,21
0,46,101,0
0,69,87,0
0,63,101,0
0,60,79,8
0,69,67,0
0,33,127,0
0,36,124,0
0,72,64,4
0,74,64,0
0,77,64,0
0,81,64,0
0,69,74,0
