track,note,velocity,time
0,42,75,0
0,42,75,93
0,42,75,93
0,42,75,93
0,42,75,93
0,42,75,93
0,42,75,93
0,28,76,93
0,73,117,0
0,40,85,0
0,31,66,1
0,74,92,0
0,33,80,2
0,45,96,0
0,69,96,0
0,73,117,0
0,76,108,0
0,69,84,0
0,81,84,0
0,35,66,0
0,42,75,0
0,52,62,22
0,42,30,0
0,33,80,36
0,81,84,0
0,69,64,0
0,57,76,0
0,40,85,0
0,42,58,0
0,33,54,13
0,59,68,0
0,35,42,0
0,42,35,0
0,57,88,0
0,69,86,0
0,73,117,0
0,76,104,0
0,81,80,0
0,69,68,0
0,35,64,0
0,42,75,0
0,33,64,26
0,42,35,0
0,81,84,16
0,69,72,0
0,40,85,0
0,42,58,0
0,33,56,30
0,52,88,0
0,74,108,0
0,46,40,0
0,33,80,18
0,45,100,0
0,69,86,0
0,73,108,0
0,76,112,0
0,69,76,0
0,81,88,0
0,35,68,0
0,42,75,0
0,52,80,28
0,42,29,0
0,35,92,4
0,47,96,0
0,71,108,0
0,74,86,0
0,78,117,0
0,71,68,0
0,83,84,0
0,57,76,0
0,40,85,0
0,42,47,0
0,59,76,25
0,35,44,0
0,42,34,0
0,35,68,36
0,83,80,0
0,71,64,0
0,35,66,0
0,42,75,0
0,35,72,13
0,42,34,0
0,54,88,0
0,71,96,0
0,74,86,0
0,78,100,0
0,71,66,0
0,83,84,0
0,40,85,0
0,42,59,0
0,35,58,7
0,47,86,0
0,46,40,0
0,33,80,16
0,45,84,0
0,69,92,0
0,73,96,0
0,76,88,0
0,81,84,0
0,69,62,0
0,35,69,0
0,42,75,0
0,33,46,19
0,52,64,0
0,42,34,0
0,33,92,30
0,81,84,0
0,69,66,0
0,57,64,0
0,40,85,0
0,42,51,0
0,33,42,22
0,59,84,0
0,35,47,0
0,42,39,0
0,33,72,29
0,57,86,0
0,69,66,0
0,81,84,0
0,35,64,0
0,42,75,0
0,33,44,20
0,42,39,0
0,52,96,0
0,74,104,0
0,33,88,29
0,81,66,0
0,69,54,0
0,40,85,0
0,42,61,0
0,45,100,0
0,73,104,0
0,33,58,16
0,46,40,0
0,35,76,18
0,47,88,0
0,62,82,0
0,66,96,0
0,71,100,0
0,83,97,0
0,35,66,0
0,42,75,0
0,35,32,22
0,78,58,0
0,62,92,0
0,42,35,0
0,35,66,1
0,74,48,0
0,61,58,0
0,40,85,0
0,42,64,0
0,35,50,7
0,71,54,0
0,59,56,0
0,35,44,0
0,42,34,0
0,30,84,5
0,42,88,0
0,66,54,0
0,54,66,0
0,35,61,0
0,42,69,0
0,30,84,9
0,54,96,0
0,64,60,0
0,50,54,0
0,42,34,0
0,62,76,0
0,49,80,0
0,40,85,0
0,42,51,0
0,30,76,3
0,54,82,0
0,61,54,0
0,50,60,0
0,35,35,0
0,46,40,0
0,35,66,11
0,47,92,0
0,59,58,0
0,47,62,0
0,35,66,0
0,42,75,0
0,42,35,40
0,35,66,17
0,40,85,0
0,42,64,0
0,45,75,21
0,30,52,12
0,43,75,0
0,42,34,0
0,35,75,2
0,35,80,3
0,40,90,0
0,62,108,0
0,41,75,0
0,30,40,45
0,64,100,0
0,35,62,25
0,47,88,0
0,62,78,0
0,66,112,0
0,49,65,0
0,35,66,0
0,42,75,0
0,66,96,3
0,42,30,0
0,35,68,45
0,62,64,0
0,66,56,0
0,59,60,0
0,54,48,0
0,50,54,0
0,40,85,0
0,42,58,0
0,35,58,3
0,66,104,0
0,50,30,0
0,35,42,0
0,42,35,0
0,47,88,3
0,35,64,0
0,42,75,0
0,35,64,45
0,54,42,0
0,50,58,0
0,59,58,0
0,42,35,0
0,64,86,0
0,40,85,0
0,42,58,0
0,35,56,3
0,64,92,0
0,54,39,0
0,50,52,0
0,59,60,0
0,46,40,0
0,38,68,1
0,50,84,0
0,54,82,0
0,57,80,0
0,64,100,0
0,57,46,0
0,64,58,0
0,35,68,0
0,42,75,0
0,62,86,0
0,50,24,0
0,42,29,0
0,38,68,41
0,57,66,0
0,50,66,0
0,62,64,0
0,40,85,0
0,42,47,0
0,38,72,3
0,62,96,0
0,50,42,0
0,35,44,0
0,42,34,0
0,54,71,1
0,50,80,0
0,57,76,0
0,66,62,0
0,50,40,0
0,35,66,0
0,42,75,0
0,38,76,37
0,57,76,0
0,50,66,0
0,42,34,0
0,50,37,0
0,40,85,0
0,42,59,0
0,38,52,36
0,57,64,0
0,50,56,0
0,46,40,0
0,38,84,3
0,50,86,0
0,57,84,0
0,66,112,0
0,57,68,0
0,66,72,0
0,50,36,0
0,35,69,0
0,42,75,0
0,69,74,3
0,50,54,0
0,42,34,0
0,38,64,3
0,69,82,0
0,69,68,0
0,57,88,0
0,50,56,0
0,40,85,0
0,42,51,0
0,69,86,3
0,35,47,0
0,42,39,0
0,38,52,21
0,38,71,3
0,50,86,0
0,54,80,0
0,69,117,0
0,66,62,0
0,74,66,0
0,50,48,0
0,35,64,0
0,42,75,0
0,42,68,3
0,69,84,0
0,50,68,0
0,57,80,0
0,42,39,0
0,30,76,3
0,69,92,0
0,64,60,0
0,73,64,0
0,50,60,0
0,40,85,0
0,42,61,0
0,31,76,3
0,67,78,0
0,71,86,0
0,71,66,0
0,62,62,0
0,50,56,0
0,43,72,0
0,46,40,0
0,43,96,3
0,43,28,0
0,35,66,0
0,42,75,0
0,43,46,42
0,42,35,0
0,31,68,28
0,43,68,0
0,50,84,0
0,55,76,0
0,40,85,0
0,42,64,0
0,43,31,6
0,35,44,0
0,42,34,0
0,31,60,15
0,31,84,3
0,50,84,0
0,43,54,0
0,35,61,0
0,42,69,0
0,31,66,6
0,43,52,0
0,50,84,0
0,55,84,0
0,42,34,0
0,71,108,2
0,40,85,0
0,42,51,0
0,31,56,45
0,43,38,0
0,50,66,0
0,55,58,0
0,35,35,0
0,46,40,0
0,31,88,3
0,55,86,0
0,71,96,0
0,71,66,0
0,74,66,0
0,43,56,0
0,35,66,0
0,42,75,0
0,43,64,37
0,42,30,0
0,31,68,3
0,71,104,0
0,43,60,0
0,50,88,0
0,55,72,0
0,40,85,0
0,42,58,0
0,43,30,24
0,35,42,0
0,42,35,0
0,43,80,6
0,42,66,2
0,54,92,0
0,62,96,0
0,69,96,0
0,69,66,0
0,62,68,0
0,50,54,0
0,35,64,0
0,42,75,0
0,42,68,17
0,50,56,0
0,42,35,0
0,50,80,34
0,57,88,0
0,40,85,0
0,42,58,0
0,30,80,3
0,69,100,0
0,50,52,0
0,46,40,0
0,40,66,2
0,52,88,0
0,67,92,0
0,67,68,0
0,52,25,0
0,35,68,0
0,42,75,0
0,67,96,3
0,52,54,0
0,42,29,0
0,40,76,30
0,52,84,0
0,59,84,0
0,40,85,0
0,42,47,0
0,52,84,3
0,52,36,0
0,35,44,0
0,42,34,0
0,40,60,12
0,38,68,3
0,50,72,0
0,66,64,0
0,50,39,0
0,35,66,0
0,42,75,0
0,38,66,16
0,66,96,0
0,50,64,0
0,42,34,0
0,37,84,2
0,62,68,0
0,66,112,0
0,50,68,0
0,57,76,0
0,40,85,0
0,42,59,0
0,35,56,3
0,66,84,0
0,50,44,0
0,46,40,0
0,33,68,3
0,45,88,0
0,61,82,0
0,64,84,0
0,64,35,0
0,73,48,0
0,45,42,0
0,35,69,0
0,42,75,0
0,45,54,36
0,42,34,0
0,33,68,34
0,52,68,0
0,45,72,0
0,57,68,0
0,40,85,0
0,42,51,0
0,52,80,3
0,35,47,0
0,42,39,0
0,33,56,21
0,33,60,3
0,57,88,0
0,45,42,0
0,35,64,0
0,42,75,0
0,33,68,11
0,45,60,0
0,42,39,0
0,52,58,17
0,45,54,0
0,57,64,0
0,40,85,0
0,42,61,0
0,28,64,3
0,52,74,0
0,45,42,0
0,46,40,0
0,33,64,3
0,57,86,0
0,76,76,0
0,45,44,0
0,35,66,0
0,42,75,0
0,33,68,3
0,52,64,0
0,45,44,0
0,42,35,0
0,45,64,9
0,52,84,0
0,57,66,0
0,40,85,0
0,42,64,0
0,33,56,3
0,45,96,0
0,64,56,0
0,73,72,0
0,35,44,0
0,42,34,0
0,45,66,1
0,35,61,0
0,42,69,0
0,33,68,3
0,45,86,0
0,52,64,0
0,45,66,0
0,57,66,0
0,42,34,0
0,45,86,1
0,62,104,0
0,61,58,0
0,69,64,0
0,40,85,0
0,42,51,0
0,33,72,3
0,64,86,0
0,35,35,0
0,46,40,0
0,35,84,3
0,47,86,0
0,62,82,0
0,66,100,0
0,62,68,0
0,71,66,0
0,47,44,0
0,35,66,0
0,42,75,0
0,66,108,3
0,42,30,0
0,35,84,37
0,59,52,0
0,47,68,0
0,54,80,0
0,40,85,0
0,42,58,0
0,66,104,3
0,47,38,0
0,35,42,0
0,42,35,0
0,35,62,3
0,47,86,0
0,35,64,0
0,42,75,0
0,35,68,13
0,54,80,0
0,47,60,0
0,59,68,0
0,42,35,0
0,64,86,3
0,47,46,0
0,40,85,0
0,42,58,0
0,35,68,3
0,64,74,0
0,50,68,0
0,57,68,0
0,46,40,0
0,38,66,3
0,50,86,0
0,54,84,0
0,57,84,0
0,64,92,0
0,69,58,0
0,50,38,0
0,35,68,0
0,42,75,0
0,62,84,3
0,50,46,0
0,42,29,0
0,38,80,36
0,50,80,0
0,57,80,0
0,40,85,0
0,42,47,0
0,62,88,3
0,50,26,0
0,35,44,0
0,42,34,0
0,38,64,3
0,50,86,0
0,54,82,0
0,57,84,0
0,35,66,0
0,42,75,0
0,38,60,21
0,57,72,0
0,50,66,0
0,42,34,0
0,38,68,21
0,40,85,0
0,42,59,0
0,35,72,1
0,33,72,5
0,57,72,0
0,50,64,0
0,46,40,0
0,26,76,2
0,50,88,0
0,57,86,0
0,66,104,0
0,74,62,0
0,66,68,0
0,35,69,0
0,42,75,0
0,69,84,0
0,50,54,0
0,42,34,0
0,38,76,3
0,69,86,0
0,50,58,0
0,57,80,0
0,62,72,0
0,40,85,0
0,42,51,0
0,69,80,3
0,50,34,0
0,35,47,0
0,42,39,0
0,38,72,3
0,50,84,0
0,54,86,0
0,69,84,0
0,50,52,0
0,35,64,0
0,42,75,0
0,38,60,3
0,69,68,0
0,57,68,0
0,50,66,0
0,62,66,0
0,42,39,0
0,30,76,3
0,69,96,0
0,64,68,0
0,73,66,0
0,40,85,0
0,42,61,0
0,31,72,2
0,67,88,0
0,71,86,0
0,62,66,0
0,71,37,0
0,50,64,0
0,57,68,0
0,46,40,0
0,43,86,3
0,43,36,0
0,35,66,0
0,42,75,0
0,31,44,14
0,43,27,0
0,42,35,0
0,31,84,31
0,43,64,0
0,50,80,0
0,55,80,0
0,40,85,0
0,42,64,0
0,35,44,4
0,42,34,0
0,38,56,21
0,43,72,3
0,50,86,0
0,35,61,0
0,42,69,0
0,38,64,8
0,71,92,0
0,43,66,0
0,50,68,0
0,55,66,0
0,42,34,0
0,31,66,9
0,40,85,0
0,42,51,0
0,43,62,45
0,35,35,0
0,46,40,0
0,31,76,3
0,55,86,0
0,62,78,0
0,71,100,0
0,71,37,0
0,74,62,0
0,43,24,0
0,50,54,0
0,35,66,0
0,42,75,0
0,50,39,33
0,42,30,0
0,43,76,3
0,71,100,0
0,79,58,0
0,43,54,0
0,55,80,0
0,50,88,0
0,40,85,0
0,42,58,0
0,31,64,8
0,50,30,0
0,35,42,0
0,42,35,0
0,30,66,3
0,54,92,0
0,62,84,0
0,69,92,0
0,69,66,0
0,78,62,0
0,50,46,0
0,35,64,0
0,42,75,0
0,30,56,3
0,69,104,0
0,50,64,0
0,42,35,0
0,42,84,9
0,57,84,0
0,50,68,0
0,40,85,0
0,42,58,0
0,30,56,3
0,67,100,0
0,50,56,0
0,46,40,0
0,28,72,3
0,52,86,0
0,67,100,0
0,67,68,0
0,76,72,0
0,52,40,0
0,35,68,0
0,42,75,0
0,67,82,3
0,52,54,0
0,42,29,0
0,40,88,3
0,67,100,0
0,52,72,0
0,59,84,0
0,40,85,0
0,42,47,0
0,28,64,3
0,52,80,0
0,67,88,0
0,52,62,0
0,35,44,0
0,42,34,0
0,38,72,3
0,50,86,0
0,57,86,0
0,66,96,0
0,66,66,0
0,74,80,0
0,50,48,0
0,35,66,0
0,42,75,0
0,38,84,3
0,67,82,0
0,50,36,0
0,42,34,0
0,37,76,2
0,66,108,0
0,50,68,0
0,57,80,0
0,40,85,0
0,42,59,0
0,35,66,2
0,66,92,0
0,45,46,0
0,46,40,0
0,33,84,2
0,45,82,0
0,61,84,0
0,64,88,0
0,64,64,0
0,73,64,0
0,35,69,0
0,42,75,0
0,42,34,45
0,33,68,35
0,40,85,0
0,42,51,0
0,52,82,3
0,52,64,0
0,35,47,0
0,42,39,0
0,33,76,1
0,57,86,0
0,61,88,0
0,35,64,0
0,42,75,0
0,33,68,3
0,64,84,0
0,42,39,0
0,61,88,2
0,40,85,0
0,42,61,0
0,33,54,3
0,52,76,0
0,59,64,0
0,46,40,0
0,57,62,8
0,45,80,3
0,57,84,0
0,59,84,0
0,35,66,0
0,42,75,0
0,40,68,3
0,52,82,0
0,59,80,0
0,42,35,0
0,57,62,9
0,40,85,0
0,42,64,0
0,33,76,3
0,45,88,0
0,54,58,0
0,35,44,0
0,42,34,0
0,52,48,9
0,35,61,15
0,42,69,0
0,54,80,11
0,33,88,6
0,64,84,0
0,57,68,0
0,42,34,0
0,45,82,3
0,64,104,0
0,54,92,0
0,40,85,0
0,42,51,0
0,34,44,3
0,66,86,0
0,52,54,0
0,35,35,0
0,46,40,0
0,35,80,1
0,47,96,0
0,54,76,0
0,64,86,0
0,74,76,0
0,66,80,0
0,50,64,0
0,35,66,0
0,42,75,0
0,42,30,24
0,35,72,3
0,62,86,0
0,54,80,0
0,47,64,0
0,40,85,0
0,42,58,0
0,47,31,17
0,35,42,0
0,42,35,0
0,35,68,3
0,62,78,0
0,66,92,0
0,47,38,0
0,35,64,0
0,42,75,0
0,35,68,11
0,47,54,0
0,54,92,0
0,42,35,0
0,47,50,0
0,40,85,0
0,42,58,0
0,35,60,3
0,59,80,0
0,74,68,0
0,66,68,0
0,52,72,0
0,45,66,0
0,46,40,0
0,33,64,2
0,57,88,0
0,61,92,0
0,64,46,0
0,73,64,0
0,45,27,0
0,35,68,0
0,42,75,0
0,45,60,40
0,42,29,0
0,52,72,28
0,57,80,0
0,45,62,0
0,40,85,0
0,42,47,0
0,33,64,7
0,45,40,0
0,35,44,0
0,42,34,0
0,57,86,3
0,52,44,0
0,45,35,0
0,57,46,0
0,35,66,0
0,42,75,0
0,33,84,18
0,64,86,0
0,45,76,0
0,52,80,0
0,57,92,0
0,42,34,0
0,64,88,3
0,45,40,0
0,40,85,0
0,42,59,0
0,33,64,3
0,66,88,0
0,45,64,0
0,57,64,0
0,52,64,0
0,46,40,0
0,35,72,2
0,47,80,0
0,54,86,0
0,64,86,0
0,74,62,0
0,66,66,0
0,54,52,0
0,47,54,0
0,35,69,0
0,42,75,0
0,47,38,20
0,42,34,0
0,35,72,3
0,62,78,0
0,54,72,0
0,47,68,0
0,59,62,0
0,40,85,0
0,42,51,0
0,47,44,15
0,35,47,0
0,42,39,0
0,35,72,3
0,47,82,0
0,62,60,0
0,66,92,0
0,47,21,0
0,35,64,0
0,42,75,0
0,35,72,14
0,54,68,0
0,59,68,0
0,47,66,0
0,42,39,0
0,47,48,0
0,40,85,0
0,42,61,0
0,35,66,3
0,47,84,0
0,74,62,0
0,66,68,0
0,57,72,0
0,52,68,0
0,45,76,0
0,46,40,0
0,37,92,1
0,49,72,0
0,52,88,0
0,57,88,0
0,64,56,0
0,73,62,0
0,45,42,0
0,35,66,0
0,42,75,0
0,45,52,41
0,42,35,0
0,45,72,11
0,52,84,0
0,57,72,0
0,40,85,0
0,42,64,0
0,37,84,17
0,45,54,0
0,35,44,0
0,42,34,0
0,49,76,3
0,71,92,0
0,45,27,0
0,35,61,0
0,42,69,0
0,37,92,3
0,71,104,0
0,45,56,0
0,52,66,0
0,57,64,0
0,42,34,0
0,35,60,9
