track,note,velocity,time
0,31,103,362
0,43,85,4
0,43,85,0
0,62,55,16
0,62,55,2
0,59,61,4
0,59,61,0
0,55,58,2
0,55,58,4
0,62,59,274
0,59,65,4
0,59,65,0
0,62,59,0
0,55,59,2
0,55,59,2
0,43,74,292
0,43,74,0
0,31,103,18
0,59,61,44
0,62,62,0
0,59,61,2
0,62,62,0
0,55,58,2
0,55,58,2
0,71,83,314
0,71,83,0
0,72,85,40
0,72,85,0
0,43,72,18
0,43,72,2
0,31,103,8
0,74,81,18
0,74,81,0
0,73,70,30
0,73,70,0
0,59,59,16
0,59,59,0
0,62,55,2
0,62,55,0
0,55,56,0
0,55,56,2
0,74,81,12
0,74,81,0
0,73,72,26
0,73,72,0
0,62,54,10
0,59,58,2
0,62,54,0
0,55,54,2
0,59,58,0
0,55,54,4
0,74,93,16
0,74,93,0
0,73,69,32
0,73,69,0
0,43,75,10
0,43,75,2
0,31,103,18
0,74,80,6
0,74,80,0
0,62,56,12
0,62,56,4
0,59,60,4
0,59,60,2
0,55,50,6
0,55,50,6
0,59,58,66
0,59,58,2
0,55,59,2
0,55,59,2
0,62,56,4
0,76,86,0
0,76,86,0
0,62,56,4
0,71,79,60
0,71,79,0
0,50,79,6
0,50,79,0
0,38,103,16
0,72,84,20
0,72,84,0
0,54,60,230
0,54,60,6
0,60,58,0
0,60,58,0
0,62,50,2
0,62,50,4
0,54,57,104
0,54,57,2
0,60,56,0
0,60,56,0
0,62,49,2
0,62,49,4
0,74,76,18
0,74,76,0
0,69,69,64
0,69,69,0
0,43,76,4
0,43,76,4
0,31,103,26
0,71,81,12
0,71,81,0
0,55,53,248
0,59,52,0
0,59,52,0
0,55,53,4
0,62,56,0
0,62,56,2
0,59,60,250
0,55,59,2
0,59,60,2
0,55,59,2
0,67,93,2
0,67,93,0
0,62,54,18
0,62,54,2
0,69,68,38
0,69,68,0
0,43,70,0
0,43,70,0
0,71,89,44
0,71,89,0
0,31,103,8
0,70,70,36
0,70,70,0
0,55,58,0
0,62,56,0
0,59,58,2
0,59,58,0
0,62,56,0
0,55,58,2
0,71,95,34
0,71,95,0
0,70,67,34
0,70,67,0
0,59,55,50
0,55,59,4
0,59,55,0
0,62,62,0
0,62,62,2
0,55,59,4
0,71,103,38
0,71,103,0
0,70,77,36
0,70,77,0
0,40,81,70
0,40,81,2
0,28,103,8
0,71,85,26
0,71,85,0
0,59,59,14
0,59,59,2
0,64,63,0
0,55,57,2
0,55,57,0
0,64,63,0
0,64,62,52
0,64,62,2
0,59,59,2
0,59,59,2
0,55,61,6
0,55,61,2
0,69,83,2
0,69,83,0
0,67,69,24
0,67,69,0
0,38,79,28
0,38,79,0
0,67,85,14
0,67,85,0
0,38,103,22
0,66,84,34
0,66,84,0
0,62,55,2
0,57,65,2
0,54,63,2
0,54,63,2
0,62,55,0
0,57,65,2
0,66,83,4
0,66,83,0
0,69,72,24
0,69,72,0
0,55,63,8
0,55,63,2
0,61,61,0
0,45,74,4
0,57,66,0
0,57,66,0
0,61,61,0
0,33,103,24
0,67,88,4
0,67,88,0
0,64,88,34
0,64,88,0
0,50,72,6
0,50,72,2
0,38,103,14
0,62,87,18
0,62,87,0
0,62,50,136
0,62,50,0
0,54,53,2
0,54,53,2
0,57,56,0
0,50,72,4
0,57,56,0
0,50,72,2
0,38,103,8
0,71,95,216
0,71,95,0
0,72,85,42
0,72,85,0
0,43,77,86
0,43,77,2
0,31,103,14
0,74,80,16
0,74,80,0
0,73,80,30
0,73,80,0
0,62,60,4
0,62,60,0
0,55,52,4
0,59,64,0
0,59,64,0
0,55,52,4
0,74,78,18
0,74,78,0
0,73,69,30
0,73,69,0
0,55,58,82
0,59,62,2
0,55,58,2
0,59,62,0
0,62,55,0
0,62,55,2
0,74,86,32
0,74,86,0
0,73,69,36
0,73,69,0
0,31,103,2
0,43,76,8
0,43,76,4
0,74,70,22
0,74,70,0
0,55,61,22
0,55,61,0
0,59,66,2
0,59,66,4
0,62,52,0
0,62,52,2
0,59,59,56
0,59,59,4
0,55,61,2
0,62,63,0
0,62,63,0
0,55,61,4
0,76,78,0
0,76,78,0
0,71,82,54
0,71,82,0
0,50,87,22
0,50,87,2
0,72,89,20
0,72,89,0
0,38,103,4
0,54,64,250
0,54,64,2
0,60,59,0
0,62,54,2
0,60,59,2
0,62,54,0
0,54,59,64
0,54,59,2
0,62,52,8
0,60,59,2
0,60,59,2
0,62,52,0
0,74,63,34
0,74,63,0
0,69,77,42
0,69,77,0
0,43,76,4
0,43,76,0
0,31,103,16
0,71,79,30
0,71,79,0
0,55,56,18
0,59,58,0
0,62,52,2
0,59,58,2
0,55,56,2
0,62,52,0
0,62,61,212
0,59,63,4
0,59,63,0
0,62,61,0
0,55,57,4
0,55,57,0
0,67,83,4
0,67,83,0
0,69,79,44
0,69,79,0
0,43,76,26
0,43,76,6
0,71,89,6
0,71,89,0
0,31,103,8
0,70,75,40
0,70,75,0
0,62,55,4
0,59,60,2
0,62,55,0
0,55,57,2
0,59,60,0
0,55,57,2
0,71,78,6
0,71,78,0
0,70,68,30
0,70,68,0
0,62,58,6
0,62,58,4
0,55,59,4
0,59,62,0
0,59,62,2
0,55,59,2
0,71,90,20
0,71,90,0
0,70,73,32
0,70,73,0
0,40,69,10
0,40,69,2
0,40,103,28
0,71,78,0
0,71,78,0
0,55,62,266
0,59,63,0
0,64,59,0
0,59,63,2
0,64,59,0
0,55,62,2
0,64,59,58
0,69,78,0
0,69,78,0
0,55,59,4
0,64,59,0
0,59,59,2
0,59,59,2
0,55,59,2
0,67,77,26
0,67,77,0
0,38,71,34
0,38,71,4
0,67,88,6
0,67,88,0
0,38,103,26
0,66,95,32
0,66,95,0
0,62,52,24
0,54,58,6
0,62,52,0
0,57,60,2
0,57,60,2
0,66,95,4
0,66,95,0
0,69,72,20
0,69,72,0
0,61,60,2
0,61,60,0
0,55,61,2
0,45,70,6
0,55,61,0
0,57,62,2
0,45,70,2
0,57,62,0
0,33,103,24
0,67,81,0
0,67,81,0
0,64,84,12
0,64,84,0
0,50,66,152
0,50,66,2
0,38,103,4
0,62,79,22
0,62,79,0
0,62,56,24
0,62,56,4
0,57,60,2
0,50,78,2
0,57,60,0
0,54,60,2
0,50,78,2
0,54,60,0
0,26,103,16
0,74,75,238
0,74,75,0
0,79,79,186
0,79,79,0
0,43,71,32
0,43,71,0
0,79,77,2
0,79,77,0
0,31,103,28
0,59,64,2
0,55,57,2
0,55,57,2
0,59,64,0
0,62,62,2
0,62,62,0
0,78,78,28
0,78,78,0
0,55,61,0
0,59,63,2
0,55,61,2
0,59,63,0
0,62,61,0
0,62,61,2
0,79,79,22
0,79,79,0
0,50,77,22
0,50,77,2
0,38,103,10
0,81,83,4
0,81,83,0
0,54,60,38
0,54,60,2
0,60,59,2
0,60,59,2
0,57,60,4
0,57,60,0
0,62,52,0
0,62,52,4
0,54,60,44
0,54,60,0
0,60,55,2
0,60,55,4
0,79,83,0
0,79,83,0
0,57,58,2
0,62,46,2
0,57,58,2
0,62,46,2
0,78,69,24
0,78,69,0
0,76,72,16
0,76,72,0
0,74,73,26
0,74,73,0
0,43,74,18
0,43,74,2
0,31,103,24
0,72,91,0
0,72,91,0
0,59,60,2
0,55,55,2
0,59,60,0
0,55,55,2
0,62,59,4
0,62,59,2
0,71,78,10
0,71,78,0
0,64,62,14
0,48,68,2
0,48,68,0
0,60,67,0
0,60,67,2
0,64,62,0
0,55,58,2
0,55,58,2
0,76,83,16
0,76,83,0
0,36,103,8
0,72,80,48
0,72,80,0
0,50,78,22
0,50,78,4
0,71,71,20
0,71,71,0
0,38,103,6
0,54,55,238
0,60,46,0
0,60,46,2
0,54,55,2
0,62,50,2
0,62,50,0
0,57,60,12
0,57,60,0
0,69,78,4
0,69,78,0
0,54,56,44
0,54,56,2
0,60,51,0
0,62,52,2
0,57,60,2
0,57,60,0
0,60,51,0
0,62,52,2
0,67,91,40
0,67,91,0
0,71,74,34
0,71,74,0
0,31,103,0
0,43,79,18
0,43,79,2
0,71,84,28
0,71,84,0
0,70,67,28
0,70,67,0
0,55,61,2
0,55,61,0
0,59,64,0
0,59,64,0
0,62,64,8
0,62,64,2
0,71,88,18
0,71,88,0
0,70,65,30
0,70,65,0
0,62,58,4
0,62,58,4
0,59,55,4
0,59,55,0
0,55,55,4
0,55,55,0
0,71,91,20
0,71,91,0
0,70,66,36
0,70,66,0
0,43,73,86
0,31,103,8
0,71,75,36
0,71,75,0
0,65,63,50
0,65,63,2
0,59,69,6
0,59,69,2
0,55,58,4
0,55,58,2
0,52,70,36
0,52,70,0
0,64,62,2
0,64,62,0
0,40,103,8
0,56,60,0
0,62,70,0
0,56,60,2
0,62,70,4
0,72,85,4
0,72,85,0
0,68,80,28
0,68,80,0
0,33,103,34
0,45,73,6
0,69,73,2
0,69,73,0
0,45,73,2
0,60,58,60
0,57,61,2
0,60,58,0
0,57,61,2
0,64,54,0
0,64,54,4
0,62,55,66
0,54,60,2
0,62,55,0
0,50,65,2
0,54,60,0
0,71,80,0
0,71,80,0
0,50,65,2
0,60,49,0
0,60,49,4
0,38,103,4
0,66,82,42
0,66,82,0
0,31,103,26
0,43,67,4
0,43,67,2
0,67,76,0
0,67,76,0
0,31,103,18
0,59,61,2
0,59,61,0
0,62,56,0
0,55,57,6
0,62,56,0
0,55,57,2
0,74,85,204
0,74,85,0
0,79,80,10
0,79,80,0
0,43,60,10
0,43,60,2
0,31,103,14
0,79,83,2
0,79,83,0
0,62,61,10
0,62,61,2
0,59,66,2
0,59,66,2
0,55,56,6
0,55,56,2
0,78,78,10
0,78,78,0
0,62,60,36
0,55,55,2
0,55,55,2
0,59,67,0
0,62,60,0
0,59,67,2
0,79,76,18
0,79,76,0
0,38,103,30
0,81,89,12
0,81,89,0
0,50,73,2
0,50,73,4
0,60,60,32
0,60,60,2
0,54,56,2
0,54,56,0
0,62,55,4
0,62,55,4
0,79,94,46
0,79,94,0
0,60,63,4
0,54,65,4
0,60,63,0
0,62,53,12
0,62,53,0
0,78,61,24
0,78,61,0
0,76,72,12
0,76,72,0
0,74,74,18
0,74,74,0
0,43,70,10
0,43,70,2
0,31,103,12
0,72,77,18
0,72,77,0
0,62,59,50
0,62,59,0
0,59,61,2
0,59,61,0
0,55,60,4
0,55,60,2
0,71,77,12
0,71,77,0
0,36,103,0
0,60,54,6
0,64,55,0
0,48,67,2
0,60,54,0
0,55,56,2
0,64,55,0
0,48,67,2
0,55,56,0
0,76,80,20
0,76,80,0
0,72,75,40
0,72,75,0
0,50,75,6
0,50,75,4
0,38,103,8
0,71,77,24
0,71,77,0
0,54,55,4
0,60,46,0
0,62,48,0
0,62,48,2
0,54,55,2
0,60,46,0
0,69,72,4
0,69,72,0
0,60,51,90
0,54,62,2
0,60,51,0
0,62,51,2
0,54,62,2
0,62,51,2
0,67,74,18
0,67,74,0
0,69,68,48
0,69,68,0
0,43,70,8
0,43,70,2
0,31,103,20
0,71,77,20
0,71,77,0
0,70,73,32
0,70,73,0
0,62,61,24
0,62,61,2
0,59,63,2
0,59,63,0
0,55,58,2
0,55,58,4
0,71,80,8
0,71,80,0
0,70,67,36
0,70,67,0
0,59,59,28
0,55,54,4
0,59,59,0
0,62,54,2
0,62,54,2
0,55,54,2
0,71,87,0
0,71,87,0
0,70,77,38
0,70,77,0
0,43,68,32
0,43,68,2
0,31,103,14
0,71,78,0
0,71,78,0
0,65,55,54
0,65,55,2
0,55,58,10
0,55,58,2
0,59,62,0
0,59,62,4
0,40,103,62
0,72,77,12
0,72,77,0
0,52,68,2
0,52,68,4
0,56,62,0
0,62,59,2
0,56,62,4
0,62,59,0
0,64,51,2
0,64,51,4
0,68,74,20
0,68,74,0
0,69,90,34
0,69,90,0
0,45,65,14
0,45,65,0
0,33,103,4
0,57,57,52
0,64,53,2
0,57,57,2
0,64,53,0
0,60,56,2
0,60,56,2
0,60,51,36
0,60,51,0
0,54,58,2
0,62,52,2
0,62,52,0
0,50,71,2
0,54,58,0
0,50,71,2
0,71,77,2
0,71,77,0
0,38,103,20
0,66,78,36
0,66,78,0
0,43,68,8
0,31,103,4
0,62,57,18
0,62,57,0
0,67,70,0
0,67,70,0
0,59,61,10
0,59,61,4
0,55,51,2
0,55,51,2
0,31,103,28
0,74,77,26
0,74,77,0
0,73,71,24
0,73,71,0
0,74,67,16
0,74,67,0
0,31,103,166
0,71,72,14
0,71,72,0
0,43,67,8
0,43,67,2
0,74,79,2
0,74,79,0
0,67,77,8
0,67,77,0
0,62,56,6
0,62,56,2
0,55,55,2
0,55,55,0
0,59,59,0
0,59,59,2
0,71,72,10
0,71,72,0
0,55,53,14
0,59,49,2
0,62,50,0
0,55,53,2
0,59,49,0
0,62,50,2
0,62,88,4
0,62,88,0
0,71,77,128
0,71,77,0
0,50,75,112
0,50,75,2
0,69,74,18
0,69,74,0
0,38,103,0
0,72,77,76
0,72,77,0
0,60,57,14
0,60,57,2
0,54,65,2
0,54,65,2
0,62,58,0
0,62,58,4
0,66,72,6
0,66,72,0
0,69,77,96
0,69,77,0
0,60,58,160
0,54,60,2
0,54,60,2
0,60,58,0
0,62,53,0
0,62,53,2
0,62,79,14
0,62,79,0
0,66,82,110
0,66,82,0
0,43,66,152
0,43,66,0
0,67,82,38
0,67,82,0
0,31,103,2
0,66,83,98
0,66,83,0
0,55,64,144
0,59,67,2
0,59,67,4
0,62,60,0
0,62,60,2
0,67,71,10
0,67,71,0
0,69,83,2
0,69,83,0
0,62,58,170
0,62,58,2
0,55,59,4
0,59,58,0
0,59,58,2
0,55,59,2
0,71,83,10
0,71,83,0
0,73,75,104
0,73,75,0
0,50,71,174
0,50,71,4
0,74,77,8
0,74,77,0
0,38,103,8
0,73,70,2
0,73,70,0
0,74,78,182
0,74,78,0
0,60,63,6
0,60,63,2
0,54,66,2
0,54,66,0
0,62,58,0
0,62,58,2
0,76,82,108
0,76,82,0
0,74,77,154
0,74,77,0
0,62,54,6
0,62,54,2
0,54,62,2
0,60,58,0
0,54,62,2
0,60,58,0
0,72,76,108
0,72,76,0
0,43,74,174
0,43,74,2
0,71,85,0
0,71,85,0
0,31,103,4
0,70,71,70
0,70,71,0
0,71,74,2
0,71,74,0
0,62,53,2
0,62,53,2
0,55,54,2
0,55,54,0
0,59,57,4
0,59,57,0
0,72,75,114
0,72,75,0
0,55,55,172
0,55,55,0
0,59,58,4
0,59,58,2
0,71,78,0
0,71,78,0
0,62,51,2
0,62,51,2
0,69,76,132
0,69,76,0
0,45,63,166
0,45,63,0
0,67,84,10
0,67,84,0
0,33,103,2
0,71,80,86
0,71,80,0
0,61,62,136
0,55,60,4
0,61,62,0
0,55,60,2
0,57,61,0
0,57,61,2
0,69,77,14
0,69,77,0
0,67,76,108
0,67,76,0
0,50,65,172
0,50,65,2
0,57,58,2
0,62,57,0
0,54,50,4
0,57,58,0
0,62,57,0
0,54,50,2
0,66,72,6
0,66,72,0
0,38,103,6
0,69,77,98
0,69,77,0
0,33,103,108
0,64,94,10
0,64,94,0
0,45,64,8
0,45,64,2
0,66,72,64
0,66,72,0
0,55,57,28
0,55,57,2
0,57,61,0
0,61,56,0
0,57,61,4
0,61,56,2
0,67,80,16
0,67,80,0
0,64,76,126
0,64,76,0
0,61,56,136
0,55,58,2
0,55,58,2
0,61,56,0
0,57,63,4
0,57,63,0
0,61,80,20
0,61,80,0
0,57,93,114
0,57,93,0
0,38,103,134
0,50,55,28
0,50,55,2
0,57,63,4
0,54,44,0
0,57,63,2
0,54,44,2
0,62,56,0
0,62,56,2
0,62,95,0
0,62,95,0
0,74,84,162
0,74,84,0
0,73,67,184
0,73,67,0
0,74,78,194
0,74,78,0
0,71,73,160
0,71,73,0
0,43,75,4
0,43,75,4
0,31,103,42
0,74,83,36
0,74,83,0
0,62,56,172
0,62,56,2
0,59,59,2
0,55,56,4
0,59,59,2
0,55,56,2
0,67,76,12
0,67,76,0
