track,note,velocity,time
0,82,127,480
0,70,127,0
0,69,127,0
0,74,127,0
0,57,127,0
0,77,127,0
0,62,127,0
0,65,127,0
0,69,0,239
0,57,0,0
0,62,0,0
0,65,0,0
0,45,127,1
0,41,127,0
0,45,0,59
0,41,0,0
0,53,127,1
0,53,0,59
0,41,127,1
0,45,127,0
0,41,0,59
0,45,0,0
0,53,127,1
0,53,0,59
0,45,127,1
0,41,127,0
0,45,0,59
0,41,0,0
0,53,127,1
0,82,0,59
0,70,0,0
0,53,0,0
0,74,0,0
0,77,0,0
0,45,127,1
0,81,127,0
0,41,127,0
0,69,127,0
0,45,0,59
0,81,0,0
0,41,0,0
0,69,0,0
0,53,127,1
0,53,0,59
0,45,127,1
0,41,127,0
0,81,127,0
0,69,127,0
0,45,0,59
0,41,0,0
0,53,127,1
0,81,0,50
0,69,0,0
0,53,0,9
0,41,127,1
0,45,127,0
0,74,127,0
0,86,127,0
0,41,0,59
0,45,0,0
0,74,0,0
0,86,0,0
0,53,127,1
0,53,0,59
0,45,127,1
0,41,127,0
0,74,127,0
0,86,127,0
0,45,0,59
0,41,0,0
0,53,127,1
0,74,0,50
0,86,0,0
0,53,0,9
0,45,127,1
0,41,127,0
0,89,127,0
0,77,127,0
0,45,0,59
0,41,0,0
0,89,0,0
0,77,0,0
0,53,127,1
0,53,0,59
0,41,127,1
0,45,127,0
0,77,127,0
0,89,127,0
0,41,0,59
0,45,0,0
0,53,127,1
0,77,0,50
0,89,0,0
0,53,0,9
0,45,127,1
0,41,127,0
0,81,127,0
0,93,127,0
0,45,0,59
0,41,0,0
0,81,0,0
0,93,0,0
0,53,127,1
0,53,0,5
0,93,127,1
0,81,127,0
0,45,127,0
0,41,127,0
0,45,0,59
0,41,0,0
0,53,127,1
0,93,0,50
0,81,0,0
0,53,0,9
0,41,127,1
0,74,127,0
0,45,127,0
0,86,127,0
0,41,0,59
0,74,0,0
0,45,0,0
0,86,0,0
0,53,127,1
0,53,0,59
0,45,127,1
0,41,127,0
0,74,127,0
0,86,127,0
0,45,0,59
0,41,0,0
0,50,127,1
0,74,0,50
0,86,0,0
0,50,0,9
0,38,127,1
0,77,127,0
0,89,127,0
0,38,0,59
0,77,0,0
0,89,0,0
0,50,127,1
0,50,0,59
0,38,127,1
0,89,127,0
0,77,127,0
0,38,0,59
0,50,127,1
0,89,0,50
0,77,0,0
0,50,0,9
0,38,127,1
0,69,127,0
0,81,127,0
0,38,0,59
0,69,0,0
0,81,0,0
0,50,127,1
0,50,0,59
0,38,127,1
0,69,127,0
0,81,127,0
0,38,0,59
0,50,127,1
0,69,0,50
0,81,0,0
0,50,0,9
0,38,127,1
0,86,127,0
0,74,127,0
0,38,0,59
0,86,0,0
0,74,0,0
0,50,127,1
0,50,0,59
0,86,127,1
0,74,127,0
0,38,127,0
0,38,0,59
0,50,127,1
0,86,0,50
0,74,0,0
0,50,0,9
0,38,127,1
0,65,127,0
0,77,127,0
0,38,0,59
0,65,0,0
0,77,0,0
0,50,127,1
0,50,0,59
0,38,127,1
0,65,127,0
0,77,127,0
0,38,0,59
0,50,127,1
0,65,0,50
0,77,0,0
0,50,0,9
0,38,127,1
0,69,127,0
0,81,127,0
0,38,0,59
0,69,0,0
0,81,0,0
0,50,127,1
0,50,0,59
0,81,127,1
0,69,127,0
0,38,127,0
0,38,0,59
0,50,127,1
0,81,0,50
0,69,0,0
0,50,0,9
0,38,127,1
0,74,127,0
0,62,127,0
0,38,0,59
0,74,0,0
0,62,0,0
0,50,127,1
0,50,0,59
0,74,127,1
0,38,127,0
0,62,127,0
0,74,0,60
0,38,0,0
0,62,0,0
0,62,127,60
0,50,127,0
0,74,127,0
0,77,127,0
0,62,0,60
0,50,0,0
0,74,0,0
0,77,0,0
0,86,127,60
0,77,127,0
0,74,127,0
0,62,127,0
0,50,127,0
0,86,0,60
0,77,0,0
0,74,0,0
0,62,0,0
0,50,0,0
0,78,127,60
0,86,127,0
0,74,127,0
0,60,127,0
0,48,127,0
0,78,0,60
0,86,0,0
0,74,0,0
0,60,0,0
0,48,0,0
0,74,127,60
0,78,127,0
0,86,127,0
0,60,127,0
0,48,127,0
0,74,0,60
0,78,0,0
0,86,0,0
0,60,0,0
0,48,0,0
0,59,127,60
0,79,127,0
0,47,127,0
0,74,127,0
0,86,127,0
0,59,0,28
0,79,0,0
0,47,0,0
0,74,0,0
0,86,0,0
0,86,127,60
0,74,127,0
0,79,127,0
0,59,127,0
0,47,127,0
0,86,0,60
0,74,0,0
0,79,0,0
0,59,0,0
0,47,0,0
0,80,127,60
0,86,127,0
0,58,127,0
0,74,127,0
0,46,127,0
0,80,0,60
0,86,0,0
0,58,0,0
0,74,0,0
0,46,0,0
0,58,127,60
0,80,127,0
0,86,127,0
0,74,127,0
0,46,127,0
0,58,0,60
0,80,0,0
0,86,0,0
0,74,0,0
0,46,0,0
0,58,127,60
0,80,127,0
0,46,127,0
0,74,127,0
0,86,127,0
0,58,0,60
0,80,0,0
0,46,0,0
0,74,0,0
0,86,0,0
0,58,127,60
0,80,127,0
0,74,127,0
0,46,127,0
0,86,127,0
0,58,0,60
0,80,0,0
0,74,0,0
0,46,0,0
0,86,0,0
0,46,127,60
0,34,127,0
0,86,127,0
0,89,127,0
0,77,127,0
0,46,0,60
0,34,0,0
0,86,0,0
0,89,0,0
0,77,0,0
0,89,127,60
0,86,127,0
0,77,127,0
0,46,127,0
0,34,127,0
0,89,0,119
0,86,0,0
0,77,0,0
0,46,0,0
0,34,0,0
0,93,127,121
0,33,127,0
0,45,127,0
0,81,127,0
0,93,0,119
0,33,0,0
0,45,0,0
0,81,0,0
0,57,110,480
0,45,110,0
0,57,0,75
0,45,0,0
0,64,110,165
0,52,110,0
0,64,0,959
0,52,0,0
0,62,110,1
0,50,110,0
0,62,0,119
0,50,0,0
0,61,110,1
0,49,110,0
0,61,0,119
0,49,0,0
0,62,110,1
0,50,110,0
0,62,0,119
0,50,0,0
0,52,110,1
0,64,110,0
0,52,0,119
0,64,0,0
0,64,110,1
0,52,110,0
0,64,0,359
0,52,0,0
0,55,110,1
0,43,110,0
0,55,0,75
0,43,0,0
0,57,110,45
0,45,110,0
0,57,0,75
0,45,0,0
0,46,110,45
0,58,110,0
0,46,0,75
0,58,0,0
0,58,110,45
0,46,110,0
0,58,0,119
0,46,0,0
0,40,110,1
0,52,110,0
0,40,0,119
0,52,0,0
0,41,110,1
0,53,110,0
0,41,0,119
0,53,0,0
0,55,110,1
0,43,110,0
0,55,0,119
0,43,0,0
0,49,110,1
0,37,110,0
0,49,0,75
0,37,0,0
0,38,110,45
0,50,110,0
0,38,0,75
0,50,0,0
0,52,110,45
0,40,110,0
0,52,0,119
0,40,0,0
0,31,110,1
0,43,110,0
0,31,0,119
0,43,0,0
0,31,110,1
0,43,110,0
0,31,0,359
0,43,0,0
0,33,110,1
0,45,110,0
0,33,0,119
0,45,0,0
0,46,110,1
0,34,110,0
0,46,0,239
0,34,0,0
0,58,127,1
0,46,127,0
0,58,0,719
0,46,0,0
0,57,110,1
0,45,110,0
0,57,0,359
0,45,0,0
0,40,85,1
0,52,85,0
0,40,0,119
0,52,0,0
0,55,77,1
0,43,77,0
0,55,0,239
0,43,0,0
0,53,60,1
0,41,60,0
0,53,0,239
0,41,0,0
0,74,127,0
0,62,127,0
0,38,127,0
0,38,0,59
0,50,100,1
0,50,0,59
0,38,100,1
0,38,0,59
0,50,100,1
0,50,0,37
0,38,100,1
0,38,0,59
0,50,100,1
0,50,0,59
0,38,100,1
0,38,0,59
0,50,100,1
0,50,0,59
0,38,100,1
0,38,0,59
0,50,100,1
0,50,0,59
0,38,100,1
0,38,0,59
0,50,100,1
0,74,0,59
0,62,0,0
0,50,0,0
0,72,100,1
0,81,100,0
0,75,100,0
0,78,100,0
0,87,100,0
0,63,100,0
0,60,100,0
0,69,100,0
0,66,100,0
0,63,0,239
0,60,0,0
0,69,0,0
0,66,0,0
0,30,100,1
0,38,100,0
0,30,0,59
0,38,0,0
0,42,100,1
0,42,0,59
0,38,100,1
0,30,100,0
0,38,0,59
0,30,0,0
0,42,100,1
0,42,0,59
0,38,100,1
0,30,100,0
0,38,0,59
0,30,0,0
0,42,100,1
0,72,0,0
0,81,0,0
0,75,0,0
0,78,0,0
0,87,0,0
0,42,0,0
0,81,100,1
0,38,100,0
0,69,100,0
0,30,100,0
0,81,0,59
0,38,0,0
0,69,0,0
0,30,0,0
0,42,100,1
0,42,0,59
0,38,100,1
0,81,127,0
0,69,127,0
0,30,100,0
0,38,0,59
0,81,0,0
0,69,0,0
0,30,0,0
0,42,100,1
0,42,0,9
0,72,100,1
0,84,100,0
0,38,100,0
0,30,100,0
0,72,0,59
0,84,0,0
0,38,0,0
0,30,0,0
0,42,100,1
0,42,0,59
0,72,127,1
0,38,100,0
0,84,127,0
0,30,100,0
0,72,0,59
0,38,0,0
0,84,0,0
0,30,0,0
0,42,100,1
0,42,0,59
0,38,100,1
0,78,100,0
0,30,100,0
0,90,100,0
0,38,0,59
0,78,0,0
0,30,0,0
0,90,0,0
0,42,100,1
0,42,0,59
0,78,127,1
0,90,127,0
0,38,100,0
0,30,100,0
0,78,0,59
0,90,0,0
0,38,0,0
0,30,0,0
0,42,100,1
0,42,0,59
0,30,100,1
0,38,100,0
0,93,100,0
0,81,100,0
0,30,0,59
0,38,0,0
0,93,0,0
0,81,0,0
0,42,100,1
0,42,0,59
0,93,127,1
0,81,127,0
0,38,100,0
0,30,100,0
0,93,0,59
0,81,0,0
0,38,0,0
0,30,0,0
0,42,100,1
0,42,0,59
0,84,127,1
0,38,100,0
0,72,127,0
0,30,100,0
0,84,0,59
0,38,0,0
0,72,0,0
0,30,0,0
0,42,100,1
0,42,0,59
0,72,127,1
0,38,100,0
0,84,127,0
0,30,100,0
0,72,0,59
0,38,0,0
0,84,0,0
0,30,0,0
0,42,100,1
0,42,0,59
0,26,100,1
0,75,100,0
0,87,100,0
0,26,0,59
0,75,0,0
0,87,0,0
0,38,100,1
0,38,0,59
0,26,100,1
0,75,127,0
0,87,127,0
0,26,0,59
0,75,0,0
0,87,0,0
0,38,100,1
0,38,0,59
0,26,100,1
0,81,100,0
0,69,100,0
0,26,0,59
0,81,0,0
0,69,0,0
0,38,100,1
0,38,0,59
0,26,100,1
0,81,127,0
0,69,127,0
0,26,0,59
0,81,0,0
0,69,0,0
0,38,100,1
0,38,0,59
0,84,100,1
0,26,100,0
0,72,100,0
0,84,0,59
0,26,0,0
0,72,0,0
0,38,100,1
0,38,0,59
0,26,100,1
0,84,127,0
0,72,127,0
0,26,0,59
0,84,0,0
0,72,0,0
0,38,100,1
0,38,0,59
0,26,100,1
0,66,100,0
0,78,100,0
0,26,0,59
0,66,0,0
0,78,0,0
0,38,100,1
0,38,0,59
0,78,127,1
0,26,100,0
0,66,127,0
0,78,0,59
0,26,0,0
0,66,0,0
0,38,100,1
0,38,0,59
0,26,100,1
0,69,100,0
0,83,100,0
0,81,100,0
0,26,0,59
0,69,0,0
0,83,0,0
0,81,0,0
0,38,100,1
0,38,0,39
0,26,100,1
0,81,127,0
0,69,127,0
0,26,0,59
0,81,0,0
0,69,0,0
0,38,100,1
0,38,0,59
0,66,127,1
0,26,100,0
0,60,127,0
0,54,127,0
0,66,0,59
0,26,0,0
0,60,0,0
0,54,0,0
0,38,100,1
0,38,0,59
0,66,127,1
0,54,127,0
0,60,127,0
0,38,127,0
0,66,0,59
0,54,0,0
0,60,0,0
0,38,0,0
0,78,100,29
0,48,100,0
0,81,100,0
0,51,100,0
0,69,100,0
0,60,100,0
0,78,0,59
0,48,0,0
0,81,0,0
0,51,0,0
0,69,0,0
0,60,0,0
0,78,127,61
0,81,127,0
0,69,127,0
0,60,127,0
0,48,127,0
0,51,127,0
0,78,0,59
0,81,0,0
0,69,0,0
0,60,0,0
0,48,0,0
0,51,0,0
0,58,100,61
0,70,100,0
0,82,100,0
0,79,100,0
0,50,100,0
0,46,100,0
0,58,0,59
0,70,0,0
0,82,0,0
0,79,0,0
0,50,0,0
0,46,0,0
0,70,127,61
0,82,127,0
0,58,127,0
0,79,127,0
0,46,127,0
0,50,127,0
0,70,0,59
0,82,0,0
0,58,0,0
0,79,0,0
0,46,0,0
0,50,0,0
0,81,100,61
0,84,100,0
0,72,100,0
0,45,100,0
0,57,100,0
0,48,100,0
0,81,0,59
0,84,0,0
0,72,0,0
0,45,0,0
0,57,0,0
0,48,0,0
0,72,127,61
0,81,127,0
0,57,127,0
0,45,127,0
0,84,127,0
0,48,127,0
0,72,0,59
0,81,0,0
0,57,0,0
0,45,0,0
0,84,0,0
0,48,0,0
0,82,100,21
0,86,100,0
0,74,100,0
0,46,100,0
0,55,100,0
0,43,100,0
0,82,0,59
0,86,0,0
0,74,0,0
0,46,0,0
0,55,0,0
0,43,0,0
0,82,127,61
0,86,127,0
0,74,127,0
0,55,127,0
0,46,127,0
0,43,127,0
0,82,0,59
0,86,0,0
0,74,0,0
0,55,0,0
0,46,0,0
0,43,0,0
0,54,100,61
0,75,100,0
0,42,100,0
0,84,100,0
0,87,100,0
0,81,100,0
0,54,0,59
0,75,0,0
0,42,0,0
0,84,0,0
0,87,0,0
0,81,0,0
0,54,127,61
0,42,127,0
0,75,127,0
0,87,127,0
0,84,127,0
0,81,127,0
0,54,0,59
0,42,0,0
0,75,0,0
0,87,0,0
0,84,0,0
0,81,0,0
0,75,100,61
0,87,100,0
0,42,100,0
0,81,100,0
0,84,100,0
0,30,100,0
0,75,0,59
0,87,0,0
0,42,0,0
0,81,0,0
0,84,0,0
0,30,0,0
0,75,127,61
0,42,127,0
0,87,127,0
0,84,127,0
0,81,127,0
0,30,127,0
0,75,0,59
0,42,0,0
0,87,0,0
0,84,0,0
0,30,0,0
0,54,100,61
0,42,100,0
0,54,0,59
0,42,0,0
0,45,100,61
0,57,100,0
0,45,0,59
0,57,0,0
0,75,100,301
0,87,100,0
0,81,100,0
0,84,100,0
0,41,100,0
0,53,100,0
0,75,0,59
0,87,0,0
0,81,0,0
0,84,0,0
0,41,0,0
0,53,0,0
0,75,100,61
0,87,100,0
0,84,100,0
0,81,100,0
0,29,100,0
0,41,100,0
0,81,0,39
0,75,0,20
0,87,0,0
0,84,0,0
0,81,0,0
0,29,0,0
0,41,0,0
0,53,100,0
0,41,100,0
0,53,0,119
0,41,0,0
0,60,100,1
0,48,100,0
0,60,0,119
0,48,0,0
0,60,100,1
0,48,100,0
0,60,0,119
0,48,0,0
0,63,100,1
0,51,100,0
0,63,0,350
0,51,0,0
0,51,100,10
0,63,100,0
0,51,0,119
0,63,0,0
0,60,100,1
0,48,100,0
0,60,0,119
0,48,0,0
0,46,100,1
0,58,100,0
0,46,0,119
0,58,0,0
0,46,100,1
0,58,100,0
0,46,0,119
0,58,0,0
0,45,100,1
0,57,100,0
0,45,0,119
0,57,0,0
0,45,100,1
0,57,100,0
0,45,0,119
0,57,0,0
0,45,100,1
0,57,100,0
0,45,0,119
0,57,0,0
0,58,100,1
0,46,100,0
0,58,0,119
0,46,0,0
0,60,100,1
0,48,100,0
0,60,0,119
0,48,0,0
0,60,100,1
0,48,100,0
0,60,0,119
0,48,0,0
0,41,100,1
0,53,100,0
0,41,0,119
0,53,0,0
0,51,100,121
0,39,100,0
0,51,0,119
0,39,0,0
0,51,100,1
0,39,100,0
0,51,0,119
0,39,0,0
0,50,100,1
0,38,100,0
0,50,0,119
0,38,0,0
0,36,100,1
0,48,100,0
0,36,0,119
0,48,0,0
0,46,100,1
0,34,100,0
0,46,0,119
0,34,0,0
0,46,100,1
0,53,100,0
0,86,100,0
0,89,100,0
0,77,100,0
0,62,100,0
0,46,0,119
0,53,0,0
0,86,0,0
0,89,0,0
0,77,0,0
0,62,0,0
0,46,100,121
0,55,100,0
0,86,100,0
0,91,100,0
0,79,100,0
0,60,100,0
0,46,0,119
0,55,0,0
0,86,0,0
0,91,0,0
