track,note,velocity,time
0,55,40,512
0,48,40,0
0,72,50,0
0,67,50,2
0,76,50,20
0,72,50,3
0,55,40,0
0,48,40,0
0,67,50,2
0,76,50,20
0,55,40,3
0,72,50,0
0,48,40,0
0,67,50,10
0,76,50,10
0,72,50,10
0,67,50,10
0,76,50,10
0,72,50,10
0,67,50,10
0,76,50,10
0,72,50,10
0,67,50,10
0,72,50,10
0,41,40,10
0,72,50,0
0,48,40,0
0,67,50,0
0,60,50,2
0,72,50,20
0,48,40,2
0,41,40,0
0,67,50,0
0,60,50,2
0,72,50,20
0,48,40,3
0,41,40,0
0,67,50,0
0,60,50,10
0,72,52,10
0,67,54,10
0,60,56,10
0,72,58,10
0,67,60,6
0,60,60,10
0,72,62,10
0,41,62,2
0,48,62,0
0,65,64,0
0,69,64,0
0,48,62,0
0,69,64,0
0,57,62,0
0,60,66,10
0,72,68,10
0,57,50,2
0,81,50,0
0,69,50,0
0,65,50,0
0,53,50,0
0,48,50,0
0,69,50,0
0,57,50,0
0,48,50,0
0,41,50,0
0,60,50,1
0,77,50,2
0,84,50,1
0,53,80,0
0,53,80,1
0,81,50,0
0,77,50,2
0,53,80,1
0,72,50,0
0,53,80,1
0,77,50,0
0,81,50,1
0,84,50,1
0,53,80,1
0,81,50,0
0,53,50,1
0,82,50,0
0,50,50,0
0,70,50,0
0,65,50,0
0,62,50,0
0,50,80,0
0,70,50,1
0,60,50,0
0,52,50,0
0,79,50,0
0,52,80,0
0,67,50,0
0,55,50,0
0,67,50,1
0,52,80,0
0,82,50,0
0,70,50,0
0,60,50,0
0,52,50,0
0,55,50,0
0,79,50,2
0,84,50,1
0,48,80,0
0,65,50,1
0,81,50,0
0,53,80,0
0,53,50,0
0,69,50,0
0,57,50,0
0,77,50,2
0,50,80,0
0,62,50,0
0,81,50,1
0,45,80,0
0,67,50,1
0,55,50,0
0,46,80,0
0,79,50,0
0,74,50,1
0,67,50,1
0,48,80,0
0,76,50,0
0,60,50,0
0,64,50,0
0,48,50,0
0,55,50,0
0,55,50,0
0,52,50,0
0,36,80,1
0,60,50,0
0,72,50,0
0,41,80,1
0,69,50,0
0,53,50,0
0,60,50,0
0,72,50,0
0,57,50,0
0,65,50,0
0,60,50,0
0,53,50,0
0,77,50,1
0,81,52,1
0,53,80,1
0,57,54,0
0,65,54,0
0,60,54,0
0,41,80,0
0,77,54,0
0,69,54,0
0,53,54,0
0,57,54,0
0,69,50,0
0,81,54,1
0,60,54,1
0,69,54,0
0,77,54,0
0,65,54,0
0,53,54,0
0,57,54,0
0,57,54,0
0,81,54,1
0,69,54,1
0,60,54,0
0,57,54,0
0,57,54,0
0,65,54,0
0,77,54,0
0,53,54,0
0,81,54,1
0,69,56,1
0,57,80,0
0,77,56,0
0,57,56,0
0,57,56,0
0,65,56,0
0,65,80,0
0,53,56,0
0,60,56,0
0,65,52,0
0,81,56,1
0,69,56,1
0,53,56,0
0,57,56,0
0,65,56,0
0,77,56,0
0,57,56,0
0,60,56,0
0,81,56,1
0,69,56,1
0,65,56,0
0,53,56,0
0,57,56,0
0,57,56,0
0,41,80,0
0,60,56,0
0,72,52,0
0,53,80,0
0,77,56,0
0,81,56,1
0,65,58,1
0,53,58,0
0,69,54,0
0,57,58,0
0,60,58,0
0,69,58,0
0,41,80,0
0,53,80,0
0,77,58,0
0,57,58,0
0,81,58,1
0,57,58,1
0,77,58,0
0,69,58,0
0,60,58,0
0,53,58,0
0,65,58,0
0,57,58,0
0,81,58,1
0,60,58,1
0,77,58,0
0,69,58,0
0,53,58,0
0,57,58,0
0,57,58,0
0,65,58,0
0,81,58,1
0,77,60,1
0,53,60,0
0,57,60,0
0,65,80,0
0,57,60,0
0,60,60,0
0,65,60,0
0,69,60,0
0,57,80,0
0,65,56,0
0,81,60,1
0,77,60,1
0,57,60,0
0,53,60,0
0,60,60,0
0,69,60,0
0,65,60,0
0,57,60,0
0,81,60,1
0,57,60,1
0,77,60,0
0,65,60,0
0,57,60,0
0,60,60,0
0,60,58,0
0,53,80,0
0,41,80,0
0,53,60,0
0,69,60,0
0,81,60,1
0,60,62,1
0,77,62,0
0,65,58,0
0,53,62,0
0,41,80,0
0,65,62,0
0,57,62,0
0,57,62,0
0,69,62,0
0,53,80,0
0,81,62,1
0,53,62,1
0,65,62,0
0,69,62,0
0,57,62,0
0,57,62,0
0,77,62,0
0,60,62,0
0,81,62,1
0,69,62,1
0,57,62,0
0,60,62,0
0,53,62,0
0,69,60,0
0,77,62,0
0,57,62,0
0,65,62,0
0,81,62,1
0,72,60,1
0,53,64,0
0,57,80,0
0,65,80,0
0,69,64,0
0,60,64,0
0,65,64,0
0,57,64,0
0,57,64,0
0,77,64,0
0,81,64,1
0,57,64,1
0,65,64,0
0,53,64,0
0,57,64,0
0,77,64,0
0,69,64,0
0,60,64,0
0,81,64,1
0,69,62,1
0,65,64,0
0,60,64,0
0,53,80,0
0,57,64,0
0,53,64,0
0,57,64,0
0,77,64,0
0,69,64,0
0,41,80,0
0,81,64,1
0,70,66,1
0,62,66,0
0,53,66,0
0,50,66,0
0,70,62,0
0,38,80,0
0,77,66,0
0,65,66,0
0,50,80,0
0,58,66,0
0,82,66,1
0,70,66,1
0,65,66,0
0,50,66,0
0,53,66,0
0,62,66,0
0,58,66,0
0,77,66,0
0,82,66,1
0,70,66,1
0,50,66,0
0,62,66,0
0,65,66,0
0,58,66,0
0,77,66,0
0,53,66,0
0,82,66,1
0,77,68,1
0,65,68,0
0,62,68,0
0,53,68,0
0,50,68,0
0,58,80,0
0,62,80,0
0,58,68,0
0,70,68,0
0,82,68,1
0,53,68,1
0,65,68,0
0,58,68,0
0,77,68,0
0,70,68,0
0,62,68,0
0,50,68,0
0,82,68,1
0,52,80,1
0,67,66,0
0,79,68,0
0,60,68,0
0,40,80,0
0,58,68,0
0,55,68,0
0,67,68,0
0,52,68,0
0,70,68,0
0,84,68,1
0,79,70,1
0,52,80,0
0,70,70,0
0,40,80,0
0,55,70,0
0,70,68,0
0,60,70,0
0,67,70,0
0,58,70,0
0,52,70,0
0,82,70,1
0,70,70,1
0,55,70,0
0,79,70,0
0,67,70,0
0,58,70,0
0,52,70,0
0,60,70,0
0,82,70,1
0,70,70,1
0,60,70,0
0,79,70,0
0,52,70,0
0,58,70,0
0,67,70,0
0,55,70,0
0,82,70,1
0,79,72,1
0,60,72,0
0,70,72,0
0,52,72,0
0,58,72,0
0,55,72,0
0,67,72,0
0,60,80,0
0,67,70,0
0,52,80,0
0,82,72,1
0,79,72,1
0,58,72,0
0,52,72,0
0,55,72,0
0,67,72,0
0,70,72,0
0,60,72,0
0,82,72,1
0,36,80,1
0,48,80,0
0,48,72,0
0,55,72,0
0,64,72,0
0,79,72,0
0,72,70,0
0,60,72,0
0,67,72,0
0,70,72,0
0,84,72,1
0,69,74,1
0,81,74,0
0,60,74,0
0,65,74,0
0,53,80,0
0,53,74,0
0,41,80,0
0,65,74,0
0,69,72,0
0,57,74,0
0,84,74,1
0,69,74,1
0,65,74,0
0,81,74,0
0,57,74,0
0,57,74,0
0,60,74,0
0,53,74,0
0,84,74,1
0,65,74,1
0,57,74,0
0,57,74,0
0,69,74,0
0,53,74,0
0,81,74,0
0,60,74,0
0,84,74,1
0,57,80,1
0,81,76,0
0,50,80,0
0,50,76,0
0,62,76,0
0,65,76,0
0,69,76,0
0,53,76,0
0,57,76,0
0,53,80,0
0,65,74,0
0,38,80,0
0,86,76,1
0,81,76,1
0,65,76,0
0,50,76,0
0,53,76,0
0,57,76,0
0,62,76,0
0,69,76,0
0,86,76,1
0,69,76,1
0,45,80,0
0,60,76,0
0,81,76,0
0,69,76,0
0,53,76,0
0,57,76,0
0,65,76,0
0,45,76,0
0,84,76,1
0,79,78,1
0,53,78,0
0,67,76,0
0,46,80,0
0,65,78,0
0,67,78,0
0,46,78,0
0,62,78,0
0,55,78,0
0,86,78,1
0,55,78,1
0,53,78,0
0,65,78,0
0,62,78,0
0,67,78,0
0,79,78,0
0,46,78,0
0,86,78,1
0,67,78,1
0,65,78,0
0,55,80,0
0,53,80,0
0,46,78,0
0,79,78,0
0,62,78,0
0,53,78,0
0,62,78,0
0,55,78,0
0,86,78,1
0,79,80,1
0,36,80,0
0,52,80,0
0,55,80,0
0,48,80,0
0,60,80,0
0,67,80,0
0,60,80,0
0,48,80,0
0,64,78,0
0,84,80,1
0,52,80,1
0,60,80,0
0,79,80,0
0,55,80,0
0,48,80,0
0,60,80,0
0,67,80,0
0,84,80,1
0,52,80,1
0,60,80,0
0,48,80,0
0,60,80,0
0,36,80,0
0,79,80,0
0,60,80,0
0,67,80,0
0,48,80,0
0,55,80,0
0,60,80,0
0,84,80,1
0,41,82,1
0,41,80,0
0,60,82,0
0,60,80,0
0,53,82,0
0,53,80,0
0,65,82,0
0,69,82,0
0,81,82,0
0,57,82,0
0,84,82,1
0,60,82,1
0,65,82,0
0,81,52,0
0,41,82,0
0,69,82,0
0,53,82,0
0,57,82,0
0,53,82,0
0,65,82,0
0,81,82,0
0,57,82,0
0,77,52,0
0,84,82,1
0,81,56,1
0,69,82,0
0,81,82,0
0,77,56,0
0,60,82,0
0,41,82,0
0,57,82,0
0,53,82,0
0,57,82,0
0,65,82,0
0,53,82,0
0,84,82,1
0,57,84,1
0,77,60,0
0,60,84,0
0,53,84,0
0,69,84,0
0,57,84,0
0,53,84,0
0,65,84,0
0,81,60,0
0,41,84,0
0,81,84,0
0,84,84,1
0,65,84,1
0,60,84,0
0,53,84,0
0,81,84,0
0,84,62,0
0,89,62,0
0,69,84,0
0,81,62,0
0,57,84,0
0,41,84,0
0,53,84,0
0,77,62,0
0,57,84,0
0,84,84,1
0,69,84,1
0,81,66,0
0,77,66,0
0,81,84,0
0,60,84,0
0,84,66,0
0,41,84,0
0,57,84,0
0,53,84,0
0,69,84,0
0,89,66,0
0,53,84,0
0,65,84,0
0,57,84,0
0,84,84,1
0,69,86,1
0,57,86,0
0,81,86,0
0,89,70,0
0,89,86,0
0,72,86,0
0,81,70,0
0,84,70,0
0,29,90,0
0,69,86,0
0,41,86,0
0,77,86,0
0,57,86,0
0,77,70,0
0,57,90,0
0,53,86,0
0,72,86,4
0,89,86,0
0,77,86,0
0,81,86,0
0,77,86,4
0,72,86,0
0,89,86,0
0,81,86,0
0,72,86,1
0,77,86,0
0,89,86,0
0,41,90,0
0,53,86,0
0,41,86,0
0,81,86,0
0,72,86,4
0,81,86,0
0,77,86,0
0,89,86,0
0,72,86,4
0,81,86,0
0,89,86,0
0,77,86,0
0,77,86,1
0,72,86,0
0,41,90,0
0,53,86,0
0,89,86,0
0,41,86,0
0,81,86,0
0,81,88,4
0,89,86,0
0,77,86,0
0,72,88,0
0,77,88,4
0,81,88,0
0,72,88,0
0,89,88,0
0,89,88,1
0,53,88,0
0,41,90,0
0,65,88,0
0,72,88,0
0,77,88,0
0,53,90,0
0,65,88,0
0,81,88,0
0,53,88,0
0,53,88,0
0,41,88,0
0,77,88,4
0,81,88,0
0,89,88,0
0,72,88,0
0,72,88,4
0,81,88,0
0,89,88,0
0,77,88,0
0,72,88,1
0,77,88,0
0,53,88,0
0,29,90,0
0,41,88,0
0,81,88,0
0,89,88,0
0,81,88,4
0,77,88,0
0,89,88,0
0,72,88,0
0,89,88,4
0,81,88,0
0,72,88,0
0,77,88,0
0,60,88,1
0,53,88,0
0,72,88,0
0,41,88,0
0,29,90,0
0,81,90,0
0,72,90,0
0,89,88,0
0,72,88,0
0,77,88,0
0,60,90,0
0,60,88,0
0,81,90,4
0,72,90,0
0,77,88,0
0,89,88,0
0,77,90,4
0,89,90,0
0,72,90,0
0,81,90,0
0,53,90,1
0,69,90,0
0,77,90,0
0,41,90,0
0,57,90,0
0,84,90,0
0,29,90,0
0,81,90,0
0,69,90,0
0,77,90,0
0,57,90,0
0,57,90,0
0,81,90,0
0,72,90,0
0,89,90,0
0,89,90,0
0,81,90,4
0,77,90,0
0,89,90,0
0,72,90,0
0,89,90,4
0,77,90,0
0,81,90,0
0,72,90,0
0,81,90,1
0,53,90,0
0,77,90,0
0,89,90,0
0,41,90,0
0,41,90,0
0,72,90,0
0,77,90,4
0,81,90,0
0,89,90,0
0,72,90,0
0,72,90,4
0,77,90,0
0,81,90,0
0,89,90,0
0,89,90,1
0,41,90,0
0,72,90,0
0,41,90,0
0,81,90,0
0,53,90,0
0,77,90,0
0,89,90,4
0,77,90,0
0,81,90,0
0,72,90,0
0,72,90,4
0,81,90,0
0,77,90,0
0,89,90,0
0,72,90,1
0,53,90,0
0,41,90,0
0,89,90,0
0,53,90,0
0,81,90,0
0,65,90,0
0,41,90,0
0,65,90,0
0,53,90,0
0,77,90,0
0,53,90,0
0,77,90,4
0,89,90,0
0,81,90,0
0,72,90,0
0,89,90,4
0,81,90,0
0,77,90,0
0,72,90,0
0,89,90,1
0,81,90,0
0,72,90,0
0,77,90,0
0,53,90,0
0,41,90,0
0,29,90,0
0,81,90,4
0,77,90,0
0,72,90,0
0,89,90,0
0,89,90,4
0,72,90,0
0,77,90,0
0,81,90,0
0,72,90,1
0,77,90,0
0,48,90,0
0,89,90,0
0,60,90,0
0,48,90,0
0,53,90,0
0,41,90,0
0,48,90,0
0,60,90,0
0,29,90,0
0,81,90,0
0,81,90,4
0,89,90,0
0,77,90,0
0,72,90,0
0,89,90,4
0,72,90,0
0,77,90,0
0,81,90,0
0,72,90,1
0,65,90,0
0,89,90,0
0,81,90,0
0,53,90,0
0,89,90,0
0,53,90,0
0,53,90,0
0,77,90,0
0,29,90,0
0,53,90,0
0,77,90,0
0,65,90,0
0,41,90,0
0,84,90,0
0,81,90,0
0,81,90,4
0,72,90,0
0,89,90,0
0,77,90,0
0,81,90,4
0,89,90,0
0,72,90,0
0,77,90,0
0,89,90,1
0,81,90,0
0,41,90,0
0,77,90,0
0,72,90,0
0,41,90,0
0,53,90,0
0,89,90,4
0,77,90,0
0,81,90,0
0,72,90,0
0,77,90,4
0,81,90,0
0,72,90,0
0,89,90,0
0,69,90,1
0,57,90,0
0,53,90,0
0,57,90,0
0,69,90,0
0,41,90,0
0,89,90,0
0,77,90,0
0,41,90,0
0,72,90,0
0,81,90,0
0,57,90,0
0,81,90,4
0,77,90,0
0,72,90,0
0,89,90,0
0,89,90,4
0,81,90,0
0,72,90,0
0,77,90,0
0,41,90,1
0,72,90,0
0,41,90,0
0,81,90,0
0,60,90,0
0,77,90,0
0,72,90,0
0,53,90,0
0,60,90,0
0,60,90,0
0,72,90,0
0,89,90,0
0,81,90,4
0,77,90,0
0,89,90,0
0,72,90,0
0,89,90,4
0,81,90,0
0,72,90,0
0,77,90,0
0,77,90,1
0,41,90,0
0,89,90,0
0,29,90,0
0,53,90,0
0,72,90,0
0,81,90,0
0,72,90,4
0,89,90,0
0,81,90,0
0,77,90,0
0,89,90,4
0,81,90,0
0,72,90,0
0,77,90,0
0,53,90,1
0,69,90,0
0,41,90,0
0,72,90,0
0,57,90,0
0,29,90,0
0,77,90,0
0,69,90,0
0,89,90,0
0,84,90,0
0,57,90,0
0,57,90,0
0,89,90,4
0,77,90,0
0,84,90,0
0,72,90,0
0,84,90,4
0,89,90,0
0,72,90,0
0,77,90,0
0,77,90,1
0,70,90,0
0,53,90,0
0,82,90,0
0,82,90,0
0,70,90,0
0,74,90,0
0,89,90,0
0,38,90,0
0,77,90,0
0,86,90,0
0,50,90,0
0,58,90,0
0,89,90,0
0,38,90,0
0,58,90,0
0,74,90,4
0,89,90,0
0,82,90,0
0,77,90,0
0,89,90,4
0,74,90,0
0,77,90,0
0,82,90,0
0,50,90,1
0,89,90,0
0,38,90,0
0,74,90,0
0,50,90,0
0,82,90,0
0,77,90,0
0,82,90,4
0,77,90,0
0,74,90,0
0,89,90,0
0,89,90,4
0,82,90,0
0,74,90,0
0,77,90,0
0,74,90,1
0,89,90,0
0,77,90,0
0,50,90,0
0,82,90,0
0,50,90,0
