track,note,velocity,time
1,64,90,480
1,64,0,120
1,60,77,0
1,60,0,120
1,67,80,0
1,67,0,120
1,72,78,0
1,72,0,120
1,76,93,0
1,76,0,120
1,72,79,0
1,72,0,120
1,79,82,0
1,79,0,120
1,84,80,0
1,84,0,120
1,88,93,0
1,88,0,120
1,84,80,0
1,84,0,120
1,91,83,0
1,91,0,120
1,96,81,0
1,96,0,120
1,100,95,0
1,100,0,120
1,96,80,0
1,96,0,120
1,91,84,0
1,91,0,120
1,84,80,0
1,84,0,120
1,88,94,0
1,88,0,120
1,84,80,0
1,84,0,120
1,79,83,0
1,79,0,120
1,72,79,0
1,72,0,120
1,76,93,0
1,76,0,120
1,72,79,0
1,72,0,120
1,67,81,0
1,67,0,120
1,60,78,0
1,60,0,120
1,64,92,0
1,64,0,120
1,60,76,0
1,60,0,120
1,65,91,720
1,65,0,120
1,60,77,0
1,60,0,120
1,69,80,0
1,69,0,120
1,72,78,0
1,72,0,120
1,77,93,0
1,77,0,120
1,72,78,0
1,72,0,120
1,81,82,0
1,81,0,120
1,84,80,0
1,84,0,120
1,89,94,0
1,89,0,120
1,84,81,0
1,84,0,120
1,93,83,0
1,93,0,120
1,96,80,0
1,96,0,120
1,100,96,0
1,100,0,120
1,96,80,0
1,96,0,120
1,93,84,0
1,93,0,120
1,84,80,0
1,84,0,120
1,88,95,0
1,88,0,120
1,84,80,0
1,84,0,120
1,81,83,0
1,81,0,120
1,72,79,0
1,72,0,120
1,76,93,0
1,76,0,120
1,72,78,0
1,72,0,120
1,69,81,0
1,69,0,120
1,60,77,0
1,60,0,120
1,62,92,0
1,62,0,120
1,60,76,0
1,60,0,120
1,62,90,720
1,62,0,120
1,59,77,0
1,59,0,120
1,67,80,0
1,67,0,120
1,71,78,0
1,71,0,120
1,74,93,0
1,74,0,120
1,71,79,0
1,71,0,120
1,79,82,0
1,79,0,120
1,83,80,0
1,83,0,120
1,86,94,0
1,86,0,120
1,83,80,0
1,83,0,120
1,91,83,0
1,91,0,120
1,93,79,0
1,93,0,120
1,98,97,0
1,98,0,120
1,93,80,0
1,93,0,120
1,90,84,0
1,90,0,120
1,84,80,0
1,84,0,120
1,86,95,0
1,86,0,120
1,81,80,0
1,81,0,120
1,78,82,0
1,78,0,120
1,72,79,0
1,72,0,120
1,74,94,0
1,74,0,120
1,69,77,0
1,69,0,120
1,66,81,0
1,66,0,120
1,60,77,0
1,60,0,120
1,62,80,0
1,62,0,120
1,62,91,840
1,62,0,120
1,60,76,0
1,60,0,120
1,65,80,0
1,65,0,120
1,68,77,0
1,68,0,120
1,74,92,0
1,74,0,120
1,72,78,0
1,72,0,120
1,77,82,0
1,77,0,120
1,80,79,0
1,80,0,120
1,86,93,0
1,86,0,120
1,84,80,0
1,84,0,120
1,89,83,0
1,89,0,120
1,92,80,0
1,92,0,120
1,98,95,0
1,98,0,120
1,91,79,0
1,91,0,120
1,89,84,0
1,89,0,120
1,83,79,0
1,83,0,120
1,86,94,0
1,86,0,120
1,79,79,0
1,79,0,120
1,77,83,0
1,77,0,120
1,71,78,0
1,71,0,120
1,74,93,0
1,74,0,120
1,67,77,0
1,67,0,120
1,65,81,0
1,65,0,120
1,59,77,0
1,59,0,120
1,63,95,0
1,63,0,120
1,64,85,840
1,64,0,120
1,60,76,0
1,60,0,120
1,67,80,0
1,67,0,120
1,72,78,0
1,72,0,120
1,76,89,0
1,76,0,120
1,72,78,0
1,72,0,120
1,79,82,0
1,79,0,120
1,84,79,0
1,84,0,120
1,88,90,0
1,88,0,120
1,84,80,0
1,84,0,120
1,91,83,0
1,91,0,120
1,96,80,0
1,96,0,120
1,100,92,0
1,100,0,120
1,96,80,0
1,96,0,120
1,91,84,0
1,91,0,120
1,84,80,0
1,84,0,120
1,88,92,0
1,88,0,120
1,84,81,0
1,84,0,120
1,79,83,0
1,79,0,120
1,72,79,0
1,72,0,120
1,76,90,0
1,76,0,120
1,72,78,0
1,72,0,120
1,67,81,0
1,67,0,120
1,60,77,0
1,60,0,120
1,64,89,0
1,64,0,120
1,60,77,0
1,60,0,120
1,65,87,720
1,65,0,120
1,60,76,0
1,60,0,120
1,65,80,0
1,65,0,120
1,72,77,0
1,72,0,120
1,77,89,0
1,77,0,120
1,72,77,0
1,72,0,120
1,77,82,0
1,77,0,120
1,84,79,0
1,84,0,120
1,89,92,0
1,89,0,120
1,84,80,0
1,84,0,120
1,89,83,0
1,89,0,120
1,96,80,0
1,96,0,120
1,100,93,0
1,100,0,120
1,96,80,0
1,96,0,120
1,90,84,0
1,90,0,120
1,84,79,0
1,84,0,120
1,88,93,0
1,88,0,120
1,84,80,0
1,84,0,120
1,78,83,0
1,78,0,120
1,72,79,0
1,72,0,120
1,76,90,0
1,76,0,120
1,72,79,0
1,72,0,120
1,66,81,0
1,66,0,120
1,60,78,0
1,60,0,120
1,64,89,0
1,64,0,120
1,60,77,0
1,60,0,120
1,62,81,720
1,62,0,120
1,60,73,0
1,60,0,120
1,67,76,0
1,67,0,120
1,72,74,0
1,72,0,120
1,74,86,0
1,74,0,120
1,72,74,0
1,72,0,120
1,79,77,0
1,79,0,120
1,84,75,0
1,84,0,120
1,86,88,0
1,86,0,120
1,84,76,0
1,84,0,120
1,91,78,0
1,91,0,120
1,96,76,0
1,96,0,120
1,98,89,0
1,98,0,120
1,95,76,0
1,95,0,120
1,91,79,0
1,91,0,120
1,83,75,0
1,83,0,120
1,86,87,0
1,86,0,120
1,83,75,0
1,83,0,120
1,79,78,0
1,79,0,120
1,71,74,0
1,71,0,120
1,74,86,0
1,74,0,120
1,71,75,0
1,71,0,120
1,67,76,0
1,67,0,120
1,59,74,0
1,59,0,120
1,62,83,0
1,62,0,120
1,59,73,0
1,59,0,120
1,64,77,720
1,64,0,120
1,62,70,0
1,62,0,120
1,67,75,0
1,67,0,120
1,74,72,0
1,74,0,120
1,76,77,0
1,76,0,120
1,74,72,0
1,74,0,120
1,79,74,0
1,79,0,120
1,86,72,0
1,86,0,120
1,88,80,0
1,88,0,120
1,86,72,0
1,86,0,120
1,91,74,0
1,91,0,120
1,98,72,0
1,98,0,120
1,100,78,0
1,100,0,120
1,96,69,0
1,96,0,120
1,91,73,0
1,91,0,120
1,84,69,0
1,84,0,120
1,88,78,0
1,88,0,120
1,84,68,0
1,84,0,120
1,79,71,0
1,79,0,120
1,72,65,0
1,72,0,120
1,76,75,0
1,76,0,120
1,72,66,0
1,72,0,120
1,67,69,0
1,67,0,120
1,60,64,0
1,60,0,120
1,64,71,0
1,64,0,120
1,60,64,0
1,60,0,120
1,64,53,600
1,64,0,120
1,65,59,0
1,65,0,120
1,64,51,0
1,64,0,120
1,72,54,0
1,72,0,120
1,76,52,0
1,76,0,120
1,77,61,0
1,77,0,120
1,76,51,0
1,76,0,120
1,84,56,0
1,84,0,120
1,88,52,0
1,88,0,120
1,89,62,0
1,89,0,120
1,88,54,0
1,88,0,120
1,96,56,0
1,96,0,120
1,100,52,0
1,100,0,120
1,101,63,0
1,101,0,120
1,98,53,0
1,98,0,120
1,95,56,0
1,95,0,120
1,86,53,0
1,86,0,120
1,89,62,0
1,89,0,120
1,86,53,0
1,86,0,120
1,83,56,0
1,83,0,120
1,74,52,0
1,74,0,120
1,77,61,0
1,77,0,120
1,74,51,0
1,74,0,120
1,71,55,0
1,71,0,120
1,62,51,0
1,62,0,120
1,65,60,0
1,65,0,120
1,62,50,0
1,62,0,120
1,59,54,0
1,59,0,120
1,64,64,600
1,64,0,120
1,62,51,0
1,62,0,120
1,71,55,0
1,71,0,120
1,74,53,0
1,74,0,120
1,76,66,0
1,76,0,120
1,74,52,0
1,74,0,120
1,83,58,0
1,83,0,120
1,86,53,0
1,86,0,120
1,88,66,0
1,88,0,120
1,86,54,0
1,86,0,120
1,95,59,0
1,95,0,120
1,98,55,0
1,98,0,120
1,100,68,0
1,100,0,120
1,96,57,0
1,96,0,120
1,93,59,0
1,93,0,120
1,84,57,0
1,84,0,120
1,88,71,0
1,88,0,120
1,84,58,0
1,84,0,120
1,81,63,0
1,81,0,120
1,72,61,0
1,72,0,120
1,76,74,0
1,76,0,120
1,72,61,0
1,72,0,120
1,69,66,0
1,69,0,120
1,60,61,0
1,60,0,120
1,64,77,0
1,64,0,120
1,60,63,0
1,60,0,120
1,64,82,720
1,64,0,120
1,60,67,0
1,60,0,120
1,69,72,0
1,69,0,120
1,72,68,0
1,72,0,120
1,76,82,0
1,76,0,120
1,72,69,0
1,72,0,120
1,81,73,0
1,81,0,120
1,84,70,0
1,84,0,120
1,88,83,0
1,88,0,120
1,84,71,0
1,84,0,120
1,93,74,0
1,93,0,120
1,96,71,0
1,96,0,120
1,99,86,0
1,99,0,120
1,95,71,0
1,95,0,120
1,93,75,0
1,93,0,120
1,83,68,0
1,83,0,120
1,87,78,0
1,87,0,120
1,83,63,0
1,83,0,120
1,81,67,0
1,81,0,120
1,71,62,0
1,71,0,120
1,75,72,0
1,75,0,120
1,71,59,0
1,71,0,120
1,69,63,0
1,69,0,120
1,59,55,0
1,59,0,120
1,63,61,0
1,63,0,120
1,64,61,840
1,64,0,120
1,59,50,0
1,59,0,120
1,69,54,0
1,69,0,120
1,71,49,0
1,71,0,120
1,76,62,0
1,76,0,120
1,71,50,0
1,71,0,120
1,81,54,0
1,81,0,120
1,83,50,0
1,83,0,120
1,88,62,0
1,88,0,120
1,83,50,0
1,83,0,120
1,93,54,0
1,93,0,120
1,95,50,0
1,95,0,120
1,100,62,0
1,100,0,120
1,95,49,0
1,95,0,120
1,92,54,0
1,92,0,120
1,83,49,0
1,83,0,120
1,88,61,0
1,88,0,120
1,83,50,0
1,83,0,120
1,80,54,0
1,80,0,120
1,71,50,0
1,71,0,120
1,76,61,0
1,76,0,120
1,71,50,0
1,71,0,120
1,68,54,0
1,68,0,120
1,59,50,0
1,59,0,120
1,64,53,0
1,64,0,120
1,59,50,0
1,59,0,120
1,67,61,720
1,67,0,120
1,64,50,0
1,64,0,120
1,69,54,0
1,69,0,120
1,73,51,0
1,73,0,120
1,79,62,0
1,79,0,120
1,76,50,0
1,76,0,120
1,81,55,0
1,81,0,120
1,85,50,0
1,85,0,120
1,91,63,0
1,91,0,120
1,85,52,0
1,85,0,120
1,81,57,0
1,81,0,120
1,76,52,0
1,76,0,120
1,91,65,0
1,91,0,120
1,84,52,0
1,84,0,120
1,81,57,0
1,81,0,120
1,76,52,0
1,76,0,120
1,79,65,0
1,79,0,120
1,72,53,0
1,72,0,120
1,69,57,0
1,69,0,120
1,64,53,0
1,64,0,120
1,67,65,0
1,67,0,120
1,60,53,0
1,60,0,120
1,66,64,240
1,66,0,120
1,60,56,0
1,60,0,120
1,65,72,720
1,65,0,120
1,62,59,0
1,62,0,120
1,67,64,0
1,67,0,120
1,72,62,0
1,72,0,120
1,77,73,0
1,77,0,120
1,74,63,0
1,74,0,120
1,79,67,0
1,79,0,120
1,84,62,0
1,84,0,120
1,89,72,0
1,89,0,120
1,86,64,0
1,86,0,120
1,91,67,0
1,91,0,120
1,96,64,0
1,96,0,120
1,101,74,0
1,101,0,120
1,95,64,0
1,95,0,120
1,91,68,0
1,91,0,120
1,86,64,0
1,86,0,120
1,89,74,0
1,89,0,120
1,83,65,0
1,83,0,120
1,79,68,0
1,79,0,120
1,74,64,0
1,74,0,120
1,77,72,0
1,77,0,120
1,71,64,0
1,71,0,120
1,67,68,0
1,67,0,120
1,62,68,0
1,62,0,120
1,65,72,0
1,65,0,120
1,64,80,840
1,64,0,120
1,60,72,0
1,60,0,120
1,67,76,0
1,67,0,120
1,70,73,0
1,70,0,120
1,76,85,0
1,76,0,120
1,72,73,0
1,72,0,120
1,79,77,0
1,79,0,120
1,82,73,0
1,82,0,120
1,88,86,0
1,88,0,120
1,84,75,0
1,84,0,120
1,91,78,0
1,91,0,120
1,96,75,0
1,96,0,120
1,99,89,0
1,99,0,120
1,94,75,0
1,94,0,120
1,87,79,0
1,87,0,120
1,84,74,0
1,84,0,120
1,87,87,0
1,87,0,120
1,82,74,0
1,82,0,120
1,75,78,0
1,75,0,120
1,72,73,0
1,72,0,120
1,75,85,0
1,75,0,120
1,70,74,0
1,70,0,120
1,63,76,0
1,63,0,120
1,60,73,0
1,60,0,120
1,63,83,0
1,63,0,120
1,58,72,0
1,58,0,120
1,63,79,720
1,63,0,120
1,60,71,0
1,60,0,120
1,63,76,0
1,63,0,120
1,69,73,0
1,69,0,120
1,75,82,0
1,75,0,120
1,72,75,0
1,72,0,120
1,75,77,0
1,75,0,120
1,81,74,0
1,81,0,120
1,87,85,0
1,87,0,120
1,84,75,0
1,84,0,120
1,87,78,0
1,87,0,120
1,93,75,0
1,93,0,120
1,99,86,0
1,99,0,120
1,92,73,0
1,92,0,120
1,87,77,0
1,87,0,120
1,83,73,0
1,83,0,120
1,87,85,0
1,87,0,120
1,80,71,0
1,80,0,120
1,75,76,0
1,75,0,120
1,71,71,0
1,71,0,120
1,75,80,0
1,75,0,120
1,68,70,0
1,68,0,120
1,63,72,0
1,63,0,120
1,59,67,0
1,59,0,120
1,63,71,0
1,63,0,120
1,62,76,840
1,62,0,120
1,58,64,0
1,58,0,120
1,65,69,0
1,65,0,120
1,68,65,0
1,68,0,120
1,74,76,0
1,74,0,120
1,70,66,0
1,70,0,120
1,77,71,0
1,77,0,120
1,80,67,0
1,80,0,120
1,86,76,0
1,86,0,120
1,82,65,0
1,82,0,120
1,89,71,0
1,89,0,120
1,92,67,0
1,92,0,120
1,98,83,0
1,98,0,120
1,92,70,0
1,92,0,120
1,88,74,0
1,88,0,120
1,82,70,0
1,82,0,120
1,86,84,0
1,86,0,120
1,80,71,0
1,80,0,120
1,76,76,0
1,76,0,120
1,70,71,0
1,70,0,120
1,74,87,0
1,74,0,120
1,68,72,0
1,68,0,120
1,64,76,0
1,64,0,120
1,58,70,0
1,58,0,120
1,62,86,0
1,62,0,120
1,61,81,840
1,61,0,120
1,57,70,0
1,57,0,120
1,64,76,0
1,64,0,120
1,69,74,0
1,69,0,120
1,73,83,0
1,73,0,120
1,69,74,0
1,69,0,120
1,76,77,0
1,76,0,120
1,81,73,0
1,81,0,120
1,85,85,0
1,85,0,120
1,81,74,0
1,81,0,120
1,88,78,0
1,88,0,120
1,93,74,0
1,93,0,120
1,97,87,0
1,97,0,120
1,93,74,0
1,93,0,120
1,88,79,0
1,88,0,120
1,81,74,0
1,81,0,120
1,85,85,0
1,85,0,120
1,81,72,0
1,81,0,120
1,76,77,0
1,76,0,120
1,69,72,0
1,69,0,120
1,73,86,0
1,73,0,120
1,69,72,0
1,69,0,120
1,64,74,0
1,64,0,120
1,57,69,0
1,57,0,120
1,61,84,0
1,61,0,120
1,60,74,840
1,60,0,120
1,57,68,0
1,57,0,120
1,62,71,0
1,62,0,120
1,66,66,0
1,66,0,120
1,72,74,0
1,72,0,120
1,69,66,0
1,69,0,120
1,74,71,0
1,74,0,120
1,78,68,0
1,78,0,120
1,84,75,0
1,84,0,120
1,81,67,0
1,81,0,120
1,86,70,0
1,86,0,120
1,90,67,0
1,90,0,120
1,96,76,0
1,96,0,120
1,89,68,0
1,89,0,120
1,86,71,0
1,86,0,120
1,79,68,0
1,79,0,120
1,84,73,0
1,84,0,120
1,77,66,0
1,77,0,120
1,74,69,0
1,74,0,120
1,67,63,0
1,67,0,120
1,72,74,0
1,72,0,120
1,65,63,0
1,65,0,120
1,62,66,0
1,62,0,120
1,60,61,1320
1,60,0,120
1,64,65,0
1,64,0,120
1,71,72,0
1,71,0,120
1,67,61,0
1,67,0,120
1,72,66,0
1,72,0,120
1,76,61,0
1,76,0,120
1,83,73,0
1,83,0,120
1,79,64,0
1,79,0,120
1,84,66,0
1,84,0,120
1,88,63,0
1,88,0,120
1,95,75,0
1,95,0,120
1,88,65,0
1,88,0,120
1,84,67,0
1,84,0,120
1,77,67,0
1,77,0,120
1,83,74,0
1,83,0,120
1,76,64,0
1,76,0,120
