track,note,velocity,time
1,91,64,13248
1,86,64,0
1,86,64,39
1,91,64,0
1,86,64,39
1,89,64,0
1,87,64,39
1,84,64,0
1,84,64,461
1,91,64,461
1,83,64,0
1,80,64,653
1,80,64,39
1,80,64,39
1,77,64,39
1,84,64,10906
1,84,64,461
1,84,64,461
1,84,64,461
1,86,64,461
1,83,64,0
1,87,64,461
1,84,64,0
1,86,64,154
1,89,64,0
1,87,64,77
1,84,64,0
1,87,64,77
1,84,64,0
1,90,64,154
1,81,64,0
1,82,64,1176
1,82,64,0
1,82,64,9677
1,87,64,77
1,86,64,77
1,87,64,77
1,89,64,77
1,84,64,77
1,84,64,77
1,82,64,77
1,87,64,12365
1,89,64,77
1,90,64,77
1,89,64,77
1,90,64,77
1,90,64,77
1,89,64,77
1,82,64,0
1,89,64,24
1,82,64,0
1,91,64,24
1,82,64,0
1,82,64,408
1,89,64,0
1,82,64,408
1,87,64,0
1,87,64,408
1,84,64,0
1,87,64,408
1,82,64,0
1,86,64,408
1,82,64,0
1,89,64,408
1,82,64,0
1,82,64,48
1,91,64,0
1,91,64,24
1,82,64,0
1,82,64,408
1,86,64,0
1,87,64,461
1,82,64,0
1,80,64,461
1,87,64,0
1,82,64,461
1,87,64,0
1,86,64,461
1,82,64,0
1,82,64,77
1,86,64,0
1,91,64,12
1,91,64,39
1,91,64,39
1,87,64,39
1,82,64,39
1,82,64,39
1,82,64,39
1,79,64,39
1,75,64,39
1,75,64,39
1,75,64,39
1,70,64,39
1,91,64,39
1,91,64,39
1,91,64,39
1,87,64,39
1,82,64,39
1,82,64,39
1,82,64,39
1,79,64,39
1,75,64,39
1,75,64,39
1,75,64,39
1,70,64,39
1,82,64,653
1,82,64,0
1,82,64,39
1,82,64,0
1,82,64,39
1,82,64,0
1,82,64,39
1,77,64,653
1,86,64,0
1,86,64,39
1,77,64,0
1,86,64,39
1,77,64,0
1,79,64,39
1,87,64,0
1,86,64,23693
1,86,64,39
1,84,64,39
1,82,64,39
1,80,64,154
1,86,64,39
1,86,64,39
1,84,64,39
1,82,64,39
1,81,64,154
1,82,64,154
1,79,64,39
1,81,64,39
1,82,64,39
1,84,64,39
1,78,64,653
1,81,64,39
1,82,64,39
1,84,64,39
1,81,64,600
1,82,64,39
1,84,64,39
1,86,64,39
1,79,64,653
1,82,64,39
1,84,64,39
1,86,64,39
1,82,64,653
1,84,64,39
1,86,64,39
1,81,64,39
1,87,64,0
1,81,64,154
1,87,64,0
1,79,64,653
1,88,64,0
1,79,64,39
1,88,64,0
1,79,64,39
1,88,64,0
1,79,64,39
1,88,64,0
1,79,64,154
1,88,64,0
1,86,64,653
1,82,64,0
1,82,64,39
1,86,64,0
1,82,64,39
1,86,64,0
1,82,64,39
1,86,64,0
1,85,64,845
1,73,64,0
1,85,64,39
1,73,64,0
1,73,64,39
1,85,64,0
1,86,64,77
1,74,64,0
1,86,64,39
1,74,64,0
1,74,64,39
1,86,64,0
1,86,64,5453
1,86,64,39
1,91,64,39
1,86,64,0
1,86,64,5453
1,83,64,0
1,86,64,39
1,83,64,0
1,88,64,39
1,84,64,0
1,84,64,39
1,84,64,39
1,84,64,39
1,77,64,39
1,79,64,154
1,77,64,1690
1,79,64,154
1,77,64,1690
1,78,64,154
1,81,64,1690
1,82,64,154
1,83,64,922
1,85,64,922
1,85,64,922
1,85,64,922
1,85,64,922
1,86,64,922
1,86,64,922
1,86,64,922
1,86,64,922
1,86,64,346
1,86,64,39
1,86,64,39
1,83,64,39
1,86,64,0
1,84,64,154
1,86,64,0
1,81,64,154
1,86,64,0
1,86,64,154
1,86,64,922
1,86,64,922
1,86,64,922
1,80,64,1114
1,92,64,0
1,80,64,39
1,92,64,0
1,80,64,39
1,92,64,0
1,77,64,39
1,89,64,0
1,80,64,39
1,92,64,0
1,80,64,39
1,92,64,0
1,80,64,39
1,92,64,0
1,77,64,39
1,89,64,0
1,80,64,39
1,92,64,0
1,80,64,39
1,92,64,0
1,80,64,39
1,92,64,0
1,77,64,39
1,89,64,0
1,80,64,39
1,92,64,0
1,92,64,39
1,80,64,0
1,80,64,39
1,92,64,0
1,89,64,39
1,77,64,0
1,80,64,39
1,92,64,0
1,92,64,39
1,80,64,0
1,80,64,39
1,92,64,0
1,77,64,39
1,89,64,0
1,79,64,39
1,91,64,0
1,79,64,39
1,91,64,0
1,91,64,39
1,79,64,0
1,91,64,39
1,87,64,0
1,91,64,346
1,89,64,0
1,89,64,39
1,91,64,0
1,89,64,39
1,91,64,0
1,91,64,39
1,86,64,0
1,65,64,5530
1,63,64,154
1,84,64,3533
1,78,64,0
1,79,64,154
1,83,64,0
1,84,64,11213
1,84,64,461
1,84,64,461
1,84,64,461
1,86,64,461
1,83,64,0
1,87,64,461
1,84,64,0
1,86,64,154
1,89,64,0
1,87,64,77
1,84,64,0
1,84,64,77
1,90,64,0
1,84,64,154
1,90,64,0
1,91,64,1229
1,79,64,0
1,79,64,6605
1,84,64,77
1,83,64,77
1,84,64,77
1,86,64,77
1,81,64,77
1,81,64,77
1,79,64,77
1,79,64,2381
1,79,64,77
1,79,64,77
1,84,64,77
1,83,64,77
1,84,64,77
1,86,64,77
1,81,64,77
1,81,64,77
1,79,64,77
1,82,64,1613
1,84,64,77
1,82,64,77
1,81,64,77
1,84,64,1613
1,86,64,77
1,84,64,77
1,83,64,77
1,92,64,5453
1,91,64,77
1,90,64,77
1,91,64,77
1,93,64,77
1,91,64,77
1,90,64,77
1,91,64,77
1,93,64,77
1,91,64,77
1,90,64,77
1,91,64,77
1,90,64,77
1,91,64,77
1,90,64,77
1,91,64,77
1,91,64,77
1,89,64,0
1,89,64,154
1,91,64,0
1,91,64,77
1,89,64,0
1,91,64,77
1,88,64,0
1,83,64,461
1,91,64,0
1,84,64,461
1,91,64,0
1,93,64,461
1,84,64,0
1,91,64,461
1,88,64,0
1,91,64,461
1,83,64,0
1,90,64,39
1,91,64,39
1,90,64,39
1,91,64,39
1,89,64,0
1,91,64,154
1,88,64,0
1,88,64,77
1,91,64,0
1,83,64,461
1,91,64,0
1,91,64,461
1,83,64,0
1,89,64,461
1,86,64,0
1,91,64,461
1,88,64,0
1,91,64,461
1,86,64,0
1,84,64,77
1,88,64,39
1,88,64,39
1,88,64,39
1,84,64,39
1,79,64,39
1,79,64,39
1,79,64,39
1,76,64,39
1,72,64,39
1,72,64,39
1,72,64,39
1,67,64,39
1,88,64,39
1,88,64,39
1,88,64,39
1,84,64,39
1,79,64,39
1,79,64,39
1,79,64,39
1,76,64,39
1,72,64,39
1,72,64,39
1,72,64,39
1,67,64,39
1,74,64,39
1,79,64,0
1,74,64,39
1,79,64,0
1,74,64,39
1,79,64,0
1,76,64,39
1,79,64,0
1,74,64,653
1,79,64,0
1,74,64,39
1,79,64,0
1,79,64,39
1,74,64,0
1,79,64,39
1,76,64,0
1,74,64,653
1,83,64,0
1,74,64,39
1,83,64,0
1,74,64,39
1,83,64,0
1,84,64,39
1,76,64,0
1,72,64,39
1,84,64,0
1,72,64,39
1,84,64,0
1,72,64,39
1,84,64,0
1,72,64,39
1,84,64,0
1,72,64,39
1,84,64,0
1,72,64,39
1,84,64,0
1,72,64,39
1,84,64,0
1,72,64,39
1,84,64,0
1,72,64,39
1,84,64,0
1,72,64,39
1,84,64,0
1,72,64,39
1,84,64,0
1,72,64,39
1,84,64,0
1,72,64,39
1,84,64,0
1,84,64,39
1,72,64,0
1,84,64,39
1,72,64,0
1,72,64,39
1,84,64,0
1,80,64,154
1,85,64,0
1,85,64,154
1,80,64,0
1,84,64,2957
1,87,64,0
1,84,64,39
1,87,64,0
1,87,64,39
1,84,64,0
1,87,64,39
1,84,64,0
1,84,64,154
1,87,64,0
1,84,64,653
1,84,64,39
1,84,64,39
1,87,64,39
1,83,64,2765
1,89,64,0
1,83,64,1690
1,89,64,0
1,87,64,1690
1,89,64,77
1,86,64,77
1,87,64,77
1,84,64,77
1,86,64,77
1,82,64,77
1,84,64,77
1,80,64,77
1,82,64,77
1,79,64,77
1,80,64,77
1,77,64,77
1,79,64,77
1,79,64,77
1,79,64,77
1,79,64,77
1,79,64,77
1,79,64,77
1,84,64,77
1,84,64,77
1,84,64,77
1,84,64,77
1,83,64,77
1,89,64,0
1,84,64,77
1,89,64,0
1,83,64,77
1,89,64,0
1,84,64,77
1,89,64,0
1,86,64,77
1,89,64,0
1,84,64,77
1,87,64,0
1,84,64,154
1,89,64,0
1,84,64,154
1,91,64,0
1,84,64,154
1,89,64,0
1,89,64,154
1,86,64,0
1,86,64,154
1,91,64,0
1,87,64,154
1,91,64,0
1,87,64,461
1,92,64,0
1,92,64,461
1,86,64,0
1,86,64,461
1,92,64,0
1,91,64,461
1,86,64,0
1,91,64,461
1,86,64,0
1,84,64,461
1,86,64,154
1,87,64,77
1,89,64,77
1,86,64,77
1,89,64,1613
1,77,64,0
1,91,64,77
1,79,64,0
1,92,64,77
1,80,64,0
1,89,64,77
1,77,64,0
1,81,64,1613
1,84,64,0
1,86,64,77
1,83,64,0
1,87,64,77
1,84,64,0
1,84,64,77
1,79,64,0
1,81,64,1613
1,84,64,0
1,86,64,77
1,83,64,0
1,87,64,77
1,84,64,0
1,82,64,77
1,86,64,0
1,80,64,77
1,84,64,0
1,82,64,77
1,79,64,0
1,80,64,77
1,77,64,0
1,75,64,77
1,79,64,0
1,80,64,845
1,77,64,0
1,75,64,77
1,79,64,0
1,92,64,77
1,89,64,0
1,87,64,77
1,91,64,0
1,91,64,461
1,84,64,0
1,91,64,461
1,86,64,0
1,80,64,2381
1,79,64,77
1,92,64,845
1,89,64,0
1,87,64,77
1,91,64,0
1,87,64,461
1,91,64,0
1,91,64,461
1,86,64,0
1,84,64,77
1,91,64,653
1,86,64,0
1,91,64,39
1,86,64,0
1,91,64,39
1,86,64,0
1,86,64,39
1,91,64,0
1,87,64,77
1,89,64,77
1,86,64,77
1,87,64,77
1,89,64,77
1,87,64,77
1,91,64,0
1,91,64,653
1,79,64,0
1,91,64,39
1,79,64,0
1,91,64,39
1,79,64,0
1,91,64,39
1,79,64,0
1,91,64,39
1,79,64,0
1,91,64,39
1,79,64,0
1,91,64,39
1,79,64,0
1,79,64,39
1,91,64,0
1,79,64,39
1,91,64,0
1,79,64,39
1,91,64,0
1,91,64,39
1,79,64,0
1,87,64,39
1,91,64,0
1,91,64,346
1,89,64,0
1,91,64,39
1,89,64,0
1,89,64,39
1,91,64,0
1,91,64,39
1,86,64,0
1,83,64,6490
1,86,64,0
1,86,64,39
1,83,64,0
1,86,64,39
1,83,64,0
1,87,64,39
1,84,64,0
1,86,64,653
1,83,64,0
1,83,64,39
1,86,64,0
1,83,64,39
1,86,64,0
1,87,64,39
1,84,64,0
1,86,64,653
1,83,64,0
1,83,64,39
1,86,64,0
1,83,64,39
1,86,64,0
1,84,64,39
1,87,64,0
1,86,64,77
1,91,64,0
1,87,64,77
1,91,64,0
1,91,64,77
1,86,64,0
1,87,64,77
1,91,64,0
1,91,64,77
1,86,64,0
1,87,64,77
1,91,64,0
1,91,64,77
1,86,64,0
1,87,64,77
1,91,64,0
1,83,64,461
1,79,64,0
1,84,64,461
1,79,64,0
2,74,64,13248
2,79,64,0
2,74,64,39
2,79,64,0
2,74,64,39
2,77,64,0
2,72,64,39
2,75,64,0
2,78,64,461
2,72,64,0
2,79,64,461
2,71,64,0
2,80,64,653
2,80,64,39
2,80,64,39
2,77,64,39
2,77,64,5722
2,77,64,39
2,77,64,39
2,75,64,39
2,75,64,1997
2,79,64,0
2,80,64,408
2,77,64,0
2,79,64,461
2,76,64,0
2,80,64,461
2,77,64,0
2,82,64,461
2,79,64,0
2,80,64,461
2,77,64,0
2,80,64,461
2,77,64,0
2,75,64,461
2,79,64,0
2,79,64,154
2,77,64,0
2,79,64,77
2,75,64,0
2,78,64,77
2,75,64,0
2,78,64,154
2,75,64,0
2,70,64,1229
2,77,64,0
2,84,64,19661
2,82,64,154
2,81,64,154
2,81,64,77
2,81,64,77
2,81,64,77
2,80,64,77
2,77,64,0
2,80,64,77
2,77,64,0
2,79,64,77
2,75,64,0
2,80,64,461
2,82,64,461
2,75,64,0
2,84,64,461
2,75,64,0
2,79,64,461
2,75,64,0
2,77,64,461
2,74,64,0
2,80,64,461
2,77,64,0
2,79,64,154
2,75,64,0
2,79,64,77
2,75,64,0
2,74,64,461
2,77,64,0
2,79,64,461
2,75,64,0
2,77,64,461
2,75,64,0
2,75,64,461
2,79,64,0
2,77,64,461
2,74,64,0
2,79,64,77
2,75,64,0
2,79,64,39
2,79,64,39
2,79,64,39
2,75,64,39
2,82,64,39
2,82,64,39
2,82,64,39
2,79,64,39
2,75,64,39
2,75,64,39
2,75,64,39
2,70,64,39
2,79,64,39
2,79,64,39
2,79,64,39
2,75,64,39
2,82,64,39
2,82,64,39
2,82,64,39
2,79,64,39
2,75,64,0
2,75,64,39
2,75,64,39
2,75,64,39
2,70,64,39
2,74,64,653
2,77,64,0
2,77,64,39
2,74,64,0
2,77,64,39
2,74,64,0
2,75,64,39
2,79,64,0
2,82,64,653
2,77,64,0
2,82,64,39
2,77,64,0
2,77,64,39
2,82,64,0
2,75,64,39
2,79,64,0
2,78,64,23693
2,78,64,39
2,81,64,39
2,79,64,39
2,78,64,154
2,78,64,39
2,78,64,39
2,81,64,39
2,79,64,39
2,78,64,154
2,79,64,154
2,72,64,615
2,78,64,0
2,72,64,1229
2,78,64,0
2,67,64,1229
2,79,64,0
2,79,64,1229
2,74,64,0
2,79,64,653
2,81,64,39
2,82,64,39
2,78,64,39
2,81,64,0
2,81,64,154
2,78,64,0
2,82,64,653
2,79,64,0
2,82,64,39
2,79,64,0
2,82,64,39
2,79,64,0
2,82,64,39
2,79,64,0
2,82,64,154
2,79,64,0
2,79,64,653
2,82,64,0
2,82,64,39
2,79,64,0
2,82,64,39
2,79,64,0
2,79,64,39
2,82,64,0
2,82,64,845
2,79,64,0
2,82,64,39
2,79,64,0
2,82,64,39
2,79,64,0
2,74,64,77
2,81,64,0
2,74,64,39
2,81,64,0
2,74,64,39
2,81,64,0
2,78,64,4685
2,78,64,39
2,78,64,39
2,81,64,77
2,78,64,0
2,81,64,39
2,78,64,0
2,79,64,39
2,83,64,0
2,77,64,4685
2,77,64,39
2,77,64,39
2,72,64,653
2,84,64,0
2,72,64,39
2,84,64,0
2,72,64,39
2,84,64,0
2,77,64,39
2,79,64,154
2,65,64,1690
2,77,64,0
2,67,64,154
2,79,64,0
2,77,64,1690
2,78,64,154
2,81,64,1690
2,82,64,154
2,81,64,5530
2,81,64,922
2,81,64,922
2,81,64,922
2,81,64,922
2,81,64,922
2,74,64,346
2,86,64,0
2,74,64,39
2,86,64,0
2,74,64,39
2,86,64,0
2,71,64,39
2,83,64,0
2,72,64,154
2,84,64,0
2,69,64,154
2,81,64,0
2,80,64,154
2,80,64,922
2,80,64,922
2,80,64,922
2,80,64,1114
2,80,64,39
2,80,64,39
2,77,64,39
2,80,64,39
2,80,64,39
2,80,64,39
2,77,64,39
2,80,64,39
2,80,64,39
2,80,64,39
2,77,64,39
2,80,64,39
2,80,64,39
2,80,64,39
2,77,64,39
2,80,64,39
2,80,64,39
2,80,64,39
2,65,64,39
2,77,64,0
2,67,64,39
2,79,64,0
2,67,64,39
2,79,64,0
2,67,64,39
2,79,64,0
2,79,64,39
2,75,64,0
2,77,64,346
2,79,64,0
2,79,64,39
2,77,64,0
2,79,64,39
2,77,64,0
2,79,64,39
2,74,64,0
2,72,64,922
2,74,64,154
2,75,64,154
2,74,64,154
2,72,64,154
2,71,64,154
2,72,64,77
2,74,64,39
2,75,64,39
2,72,64,154
2,79,64,154
2,77,64,922
2,74,64,0
2,75,64,154
2,72,64,0
2,83,64,1229
2,84,64,154
2,81,64,1229
2,77,64,0
2,79,64,653
2,75,64,0
2,79,64,39
2,75,64,0
2,79,64,39
2,75,64,0
2,79,64,39
2,75,64,0
2,80,64,461
2,77,64,0
2,79,64,461
2,76,64,0
2,80,64,461
2,77,64,0
2,82,64,461
