track,note,velocity,time
1,71,77,384
1,62,76,4
1,59,63,6
1,55,67,2
1,62,67,118
1,55,54,2
1,59,47,6
1,74,89,112
1,62,60,8
1,59,29,10
1,55,33,0
1,74,85,82
1,55,48,4
1,62,50,8
1,59,32,0
1,62,45,100
1,79,90,0
1,59,38,4
1,55,38,2
1,55,56,110
1,79,88,2
1,62,55,8
1,59,38,4
1,83,91,96
1,59,50,16
1,62,61,4
1,55,63,6
1,59,63,78
1,62,55,4
1,55,48,0
1,86,105,74
1,66,73,2
1,60,75,4
1,55,57,4
1,62,59,0
1,84,98,8
1,66,66,58
1,55,49,2
1,86,81,4
1,60,53,2
1,62,37,4
1,84,79,28
1,81,97,22
1,66,79,2
1,55,56,0
1,62,32,18
1,60,41,2
1,62,32,82
1,66,68,0
1,55,65,4
1,60,28,10
1,66,72,106
1,86,90,2
1,55,51,12
1,60,34,12
1,62,24,0
1,84,87,2
1,60,51,50
1,55,47,4
1,66,61,8
1,62,57,4
1,86,83,2
1,84,72,20
1,66,76,14
1,81,81,4
1,55,66,0
1,60,55,2
1,62,50,12
1,62,47,80
1,66,79,4
1,55,55,4
1,60,53,2
1,71,96,98
1,59,79,8
1,55,76,4
1,62,85,4
1,62,78,96
1,59,49,8
1,55,67,0
1,74,105,38
1,62,80,4
1,55,63,4
1,59,48,4
1,74,106,100
1,55,63,0
1,62,71,4
1,59,48,2
1,79,105,94
1,62,69,4
1,59,53,6
1,55,60,4
1,79,92,70
1,59,50,8
1,62,71,4
1,55,52,8
1,83,97,90
1,62,79,10
1,55,63,0
1,59,55,2
1,62,67,82
1,55,55,2
1,59,47,4
1,66,82,16
1,86,101,4
1,60,80,0
1,62,74,6
1,55,70,2
1,84,100,8
1,86,92,52
1,66,88,6
1,55,65,6
1,60,57,4
1,62,44,2
1,84,101,8
1,81,98,8
1,66,79,8
1,60,68,0
1,62,42,2
1,55,64,4
1,81,79,76
1,66,76,16
1,55,62,4
1,60,44,2
1,62,33,6
1,83,83,4
1,55,76,70
1,67,94,2
1,79,101,4
1,62,51,6
1,59,66,0
1,55,71,78
1,59,62,8
1,55,72,106
1,59,59,2
1,59,51,120
1,55,54,10
1,83,88,100
1,55,60,6
1,59,65,4
1,52,71,0
1,81,91,24
1,79,81,34
1,59,49,10
1,55,49,2
1,52,43,8
1,78,77,4
1,52,54,6
1,59,48,8
1,76,76,2
1,55,50,2
1,78,70,8
1,79,90,62
1,55,53,12
1,59,40,2
1,52,35,4
1,81,91,18
1,83,95,42
1,55,64,0
1,52,70,2
1,59,50,6
1,83,89,108
1,59,55,18
1,55,60,2
1,52,59,0
1,88,113,108
1,52,78,2
1,59,73,2
1,55,66,2
1,55,60,64
1,59,69,4
1,52,44,12
1,57,86,108
1,47,90,2
1,54,79,2
1,59,79,0
1,88,111,4
1,87,91,22
1,47,83,50
1,57,68,6
1,59,57,4
1,54,59,0
1,88,96,0
1,87,80,36
1,59,50,26
1,57,65,2
1,83,86,6
1,47,61,4
1,54,54,2
1,47,60,56
1,54,44,0
1,59,51,2
1,57,52,2
1,88,94,116
1,47,75,8
1,57,52,2
1,59,55,4
1,54,56,4
1,87,81,14
1,88,95,56
1,57,47,2
1,59,46,0
1,47,69,2
1,54,46,2
1,87,73,6
1,57,58,4
1,59,50,0
1,47,69,6
1,83,67,6
1,54,61,0
1,57,65,62
1,59,54,2
1,47,75,4
1,54,67,8
1,59,90,12
1,52,95,0
1,83,98,0
1,55,85,4
1,81,90,6
1,79,90,16
1,59,63,4
1,52,51,2
1,55,83,16
1,78,81,16
1,52,80,42
1,76,99,2
1,59,60,2
1,55,63,16
1,78,86,0
1,59,59,38
1,52,72,2
1,79,101,6
1,55,60,2
1,81,98,16
1,59,61,8
1,52,70,4
1,55,72,6
1,83,98,2
1,83,81,114
1,59,62,0
1,52,61,4
1,55,70,4
1,88,111,104
1,59,67,2
1,52,68,6
1,55,59,4
1,59,63,48
1,55,57,6
1,52,69,4
1,86,111,92
1,45,95,20
1,55,94,0
1,52,76,0
1,57,75,4
1,85,88,8
1,86,89,28
1,45,77,10
1,52,67,2
1,55,43,12
1,57,66,4
1,85,81,12
1,86,80,4
1,85,75,12
1,52,51,48
1,45,80,2
1,55,55,6
1,57,64,0
1,86,91,0
1,85,96,8
1,52,75,36
1,57,63,6
1,45,81,0
1,83,88,0
1,55,44,8
1,85,83,18
1,86,108,58
1,54,80,12
1,50,89,4
1,57,81,0
1,54,42,36
1,57,63,0
1,50,42,0
1,74,100,10
1,57,67,14
1,50,52,2
1,54,53,8
1,57,59,24
1,54,56,4
1,50,57,4
1,55,106,68
1,43,100,2
1,71,101,0
1,47,83,4
1,50,91,6
1,47,59,72
1,55,80,2
1,43,70,2
1,50,78,10
1,47,55,24
1,55,83,12
1,74,106,0
1,50,77,0
1,43,68,6
1,47,41,92
1,55,84,2
1,74,106,0
1,50,66,10
1,43,53,10
1,47,55,70
1,79,105,4
1,55,89,4
1,50,79,4
1,43,62,2
1,47,43,88
1,55,85,2
1,79,96,0
1,50,72,6
1,43,72,0
1,83,101,96
1,55,98,0
1,47,58,2
1,50,61,10
1,43,72,0
1,47,57,70
1,55,93,10
1,43,66,12
1,50,66,6
1,54,86,14
1,86,110,0
1,48,86,4
1,50,69,0
1,43,75,4
1,84,100,0
1,48,70,66
1,54,64,0
1,43,63,4
1,50,44,2
1,86,73,10
1,84,84,16
1,48,61,18
1,54,70,2
1,81,79,0
1,43,73,8
1,50,48,6
1,54,70,100
1,50,49,2
1,43,69,0
1,48,55,2
1,54,70,96
1,43,67,2
1,86,91,6
1,48,70,12
1,50,53,4
1,84,83,22
1,86,81,20
1,54,60,12
1,43,54,8
1,50,37,8
1,48,51,8
1,84,67,12
1,54,70,38
1,43,67,0
1,81,79,2
1,48,55,16
1,50,36,10
1,54,67,6
1,43,64,10
1,48,61,4
1,50,25,0
1,71,98,88
1,55,96,12
1,50,73,6
1,47,73,0
1,43,57,10
1,43,71,34
1,55,88,8
1,50,65,4
1,47,54,8
1,74,105,84
1,55,84,4
1,50,64,4
1,43,68,4
1,47,60,6
1,55,88,84
1,50,61,2
1,43,73,0
1,74,108,4
1,47,55,10
1,55,85,68
1,50,67,4
1,79,108,0
1,43,79,10
1,47,59,10
1,79,96,60
1,55,84,2
1,50,75,2
1,43,59,6
1,47,57,14
1,83,108,72
1,55,88,4
1,50,73,2
1,43,78,16
1,47,65,2
1,55,87,52
1,50,70,10
1,47,64,4
1,43,66,10
1,54,90,52
1,86,111,0
1,48,86,8
1,50,87,4
1,43,72,2
1,84,100,2
1,48,84,52
1,54,68,2
1,86,98,4
1,50,64,10
1,43,72,0
1,84,88,8
1,81,102,30
1,54,77,2
1,48,68,0
1,50,63,2
1,43,79,6
1,81,88,64
1,54,75,24
1,48,63,0
1,43,80,12
1,83,89,16
1,79,110,4
1,55,100,8
1,43,81,2
1,50,83,4
1,47,75,14
1,43,111,100
1,52,117,216
1,47,100,4
1,83,106,0
1,43,105,0
1,40,110,2
1,81,100,2
1,79,98,62
1,47,70,8
1,43,67,0
1,40,79,0
1,52,78,4
1,78,92,26
1,76,97,48
1,78,82,68
1,79,95,72
1,52,97,20
1,40,101,2
1,76,100,4
1,57,106,10
1,75,90,0
1,54,97,0
1,47,90,4
1,76,91,14
1,78,84,50
1,54,59,0
1,47,74,2
1,57,83,2
1,75,84,34
1,71,75,36
1,73,64,20
1,57,83,48
1,54,73,0
1,75,81,2
1,47,72,2
1,71,70,34
1,52,101,58
1,55,101,0
1,67,94,4
1,69,91,10
1,71,73,64
1,55,67,8
1,52,65,4
1,67,87,2
1,64,88,8
1,66,80,74
1,67,89,64
1,55,63,4
1,52,75,0
1,64,88,26
1,47,86,10
1,63,85,6
1,64,86,68
1,66,79,50
1,47,64,2
1,63,84,62
1,59,77,20
1,61,79,12
1,63,84,66
1,47,75,4
1,59,75,44
1,40,100,60
1,55,97,14
1,57,95,68
1,59,73,46
1,40,83,2
1,55,88,54
1,52,87,36
1,54,72,70
1,55,84,66
1,40,88,18
1,52,79,22
1,49,81,48
1,33,96,0
1,45,78,10
1,50,79,28
1,52,71,86
1,33,83,8
1,45,69,2
1,54,75,22
1,55,74,22
1,57,82,38
1,45,71,26
1,59,68,10
1,61,76,14
1,50,79,46
1,62,65,0
1,64,64,8
1,66,68,26
1,67,75,48
1,55,80,28
1,45,81,4
1,52,82,4
1,69,87,4
1,71,73,34
1,72,93,10
1,73,88,12
1,74,97,10
1,54,82,4
1,50,80,14
1,76,100,56
1,77,105,62
1,78,97,52
1,57,91,40
1,47,88,6
1,59,100,0
1,54,83,4
1,79,105,2
1,80,101,58
1,81,105,62
1,82,106,12
1,59,83,16
1,52,103,4
1,55,92,4
1,83,97,0
1,81,109,0
1,59,62,74
1,52,75,0
1,55,75,2
1,79,97,20
1,78,90,2
1,76,90,10
1,78,85,70
1,55,88,64
1,52,88,0
1,79,85,4
1,76,88,24
1,54,84,84
1,57,95,0
1,75,86,2
1,47,81,2
1,76,84,6
1,78,85,48
1,57,76,14
1,47,49,6
1,54,45,0
1,75,76,26
1,71,71,14
1,73,68,20
1,57,72,64
1,75,71,0
1,47,56,4
1,54,62,0
1,71,75,12
1,67,85,22
1,55,91,4
1,52,89,4
1,69,80,6
1,55,55,66
1,71,65,0
1,52,75,6
1,67,84,0
1,64,71,20
1,66,62,2
1,52,84,56
1,55,73,0
1,67,74,12
1,64,75,30
1,57,88,16
1,47,72,2
1,54,75,0
1,63,73,10
1,64,60,40
1,66,72,12
1,54,56,18
1,57,63,2
1,47,43,4
1,63,75,8
1,59,66,40
1,61,57,40
1,63,70,50
1,47,72,10
1,59,69,8
1,55,78,36
1,40,100,2
1,57,75,6
1,59,62,68
1,40,65,6
1,55,75,26
1,52,76,46
1,54,42,8
1,55,77,58
1,40,86,12
1,52,67,36
1,49,80,40
1,33,89,4
1,45,80,0
1,50,71,20
1,52,82,72
1,33,78,0
1,45,69,12
1,54,75,20
1,55,80,20
1,57,71,46
1,45,81,22
1,59,65,2
1,55,64,6
1,52,57,4
1,61,80,28
1,62,69,46
1,54,64,8
1,50,49,14
1,64,69,54
1,66,73,16
1,67,83,30
1,55,72,24
1,45,67,6
1,69,91,2
1,52,65,4
1,71,79,64
1,72,89,0
1,73,83,6
1,54,56,38
1,74,90,2
1,50,62,0
1,76,86,86
1,78,84,56
1,79,87,0
1,81,84,44
1,83,70,24
1,84,74,26
1,81,82,34
1,71,84,74
1,62,45,2
1,83,88,2
1,59,45,10
1,55,38,4
1,62,34,66
1,55,10,4
1,74,89,0
1,55,52,4
1,62,37,2
1,59,33,6
1,74,96,100
1,62,50,8
1,55,54,6
1,59,31,6
1,79,99,102
1,62,52,2
1,55,52,8
1,59,31,0
1,79,100,96
1,62,60,16
1,55,58,6
1,59,38,4
1,83,96,106
1,55,70,10
1,62,70,6
1,59,51,10
1,59,49,108
1,62,61,2
1,55,40,22
1,86,106,86
1,60,81,0
1,66,82,4
1,55,51,0
1,62,74,10
1,84,94,18
1,60,60,64
1,86,85,6
1,66,68,2
1,55,59,2
1,62,51,2
1,84,81,0
1,60,48,36
1,55,66,2
1,81,81,0
1,66,62,12
1,62,41,8
1,60,40,16
1,55,66,4
1,66,58,4
1,62,40,14
1,60,40,96
1,86,89,0
1,55,57,6
1,66,51,2
1,62,26,6
1,84,73,28
1,66,50,28
1,60,40,2
1,55,55,4
1,86,69,0
1,62,30,4
1,84,57,36
1,55,59,18
1,66,61,0
1,60,45,12
1,81,62,4
1,62,35,8
1,66,73,32
1,60,57,6
1,55,69,2
1,62,35,4
1,59,72,120
1,71,85,0
1,55,83,4
1,62,79,2
1,62,81,46
1,55,72,10
1,59,57,4
1,59,50,108
1,62,71,0
1,74,100,0
1,55,62,2
1,74,86,106
1,62,68,2
1,59,44,4
1,55,52,8
1,79,101,102
1,59,52,18
1,62,64,2
1,55,40,4
1,79,103,88
1,62,59,8
1,55,56,0
1,59,54,4
1,83,99,116
1,62,78,6
1,55,78,10
1,59,66,10
1,62,76,114
1,59,43,0
1,55,22,18
1,55,71,90
1,66,79,4
1,86,105,2
1,62,65,22
1,60,25,2
1,84,94,2
1,60,54,66
1,55,68,4
1,62,46,2
1,66,66,2
1,86,82,4
1,84,80,8
1,60,61,24
1,55,70,8
1,66,76,2
1,81,85,2
1,62,41,6
1,60,40,96
1,66,68,0
1,55,69,4
1,81,95,0
1,83,84,20
1,67,79,14
1,79,94,2
1,55,67,6
1,62,45,2
1,59,47,0
1,55,82,8
1,59,58,14
1,59,68,64
1,55,75,6
1,55,76,134
1,59,61,4
1,55,62,138
1,52,57,6
1,83,69,2
1,59,47,4
1,81,72,42
1,59,36,20
1,79,64,0
1,55,54,4
1,52,32,18
1,78,67,6
1,76,69,40
1,59,43,2
1,52,38,2
1,55,52,2
1,78,69,32
1,55,49,16
1,59,37,2
1,79,71,2
1,52,26,10
1,81,77,14
1,52,46,82
1,59,42,0
1,83,62,4
1,55,56,0
1,83,78,126
1,59,49,2
1,55,37,12
1,52,44,0
1,52,44,96
1,55,47,0
1,59,48,8
1,88,67,8
1,59,51,130
1,52,63,6
1,55,62,2
1,47,75,122
1,88,100,0
1,54,68,0
1,57,48,6
1,59,61,2
1,87,83,14
1,57,43,16
1,54,41,2
1,59,40,0
1,47,64,2
1,88,68,12
1,87,61,12
1,57,45,22
1,59,43,2
1,47,57,10
1,54,47,4
1,83,47,0
1,57,44,12
1,59,43,4
1,54,40,4
1,47,52,2
1,47,57,128
1,57,34,4
1,59,35,2
1,88,76,0
1,54,55,4
1,87,72,24
1,88,72,26
1,57,23,6
1,54,34,0
1,47,50,4
1,59,24,0
1,87,66,24
1,83,55,40
1,47,50,4
1,59,24,2
1,57,25,2
1,54,36,4
1,59,28,10
1,57,25,4
1,47,52,0
1,54,29,0
1,59,50,120
1,52,71,2
1,83,63,10
1,55,35,8
1,81,75,20
1,79,62,18
1,59,44,0
1,55,36,4
1,52,50,8
1,78,66,14
1,59,50,26
1,76,76,4
1,55,50,6
1,52,53,0
1,78,69,6
1,79,85,18
1,59,44,0
1,55,48,12
1,52,50,2
1,81,88,22
1,83,88,68
1,59,56,6
1,55,62,2
1,52,62,2
1,83,83,110
1,59,61,8
1,55,55,0
1,52,58,0
1,88,108,98
1,55,64,14
1,59,65,2
1,52,59,4
1,59,56,16
1,55,58,2
1,52,61,8
1,86,112,36
1,57,93,20
1,55,92,2
1,45,81,4
1,52,75,2
1,85,92,0
1,86,102,40
1,52,65,6
1,45,68,4
1,57,72,4
1,55,54,0
1,85,81,14
1,86,77,0
1,85,80,10
1,45,68,16
1,57,46,4
1,52,53,0
1,55,62,4
1,86,89,6
1,85,83,32
1,45,79,8
1,52,69,2
1,57,42,18
1,55,38,8
1,83,82,4
1,85,93,6
1,86,113,72
1,57,83,0
1,50,95,6
1,54,84,4
1,57,69,32
1,54,57,0
1,50,71,2
1,74,111,2
1,54,64,10
1,57,66,2
1,50,72,2
1,54,62,74
1,57,60,12
1,50,75,4
1,71,109,24
1,55,103,10
1,43,100,4
1,47,89,0
1,50,101,4
1,43,84,6
1,55,96,2
1,50,96,4
1,47,83,4
1,47,72,32
1,74,111,0
1,43,75,0
1,55,88,2
1,50,64,2
1,47,66,70
1,50,75,0
1,55,84,2
1,74,112,2
1,43,68,2
1,55,89,70
1,50,73,0
1,79,111,4
1,47,56,0
1,43,84,8
1,79,102,84
1,50,70,4
1,55,85,0
1,43,79,10
1,47,48,2
1,83,108,104
1,55,98,0
1,50,77,2
1,47,66,6
1,43,76,4
1,55,85,10
1,47,60,2
1,50,57,6
1,43,59,16
1,86,117,66
1,50,85,0
1,54,94,4
1,48,88,4
1,43,69,6
1,84,99,8
1,86,107,48
1,54,69,0
1,50,69,0
1,48,74,4
1,43,81,6
1,84,86,6
1,81,100,30
1,50,74,6
1,48,81,2
1,54,69,0
1,43,80,0
1,50,75,24
1,48,77,2
1,54,61,4
