track,note,velocity,time
1,67,115,0
1,55,111,0
1,43,110,0
1,31,113,4
1,55,115,46
1,67,110,0
1,43,107,4
1,31,103,0
1,67,112,48
1,55,111,2
1,31,107,0
1,43,105,2
1,39,121,82
1,63,116,0
1,51,119,2
1,27,120,0
1,53,120,392
1,65,121,0
1,29,117,2
1,41,114,0
1,53,113,44
1,65,111,2
1,41,109,6
1,29,108,0
1,53,111,50
1,65,103,0
1,29,108,6
1,41,106,0
1,50,123,76
1,62,119,2
1,26,124,6
1,38,124,0
1,67,52,364
1,67,85,70
1,67,93,62
1,63,62,48
1,60,54,16
1,68,83,126
1,68,74,66
1,68,81,50
1,67,87,104
1,75,67,148
1,75,73,94
1,75,70,98
1,72,68,124
1,67,50,174
1,67,57,84
1,67,78,70
1,59,56,60
1,62,69,4
1,68,84,146
1,68,79,78
1,68,87,48
1,67,81,64
1,77,85,146
1,77,85,88
1,77,76,80
1,74,77,136
1,79,73,740
1,79,66,102
1,77,77,92
1,63,61,106
1,75,66,8
1,60,57,2
1,63,62,110
1,63,68,44
1,65,88,38
1,59,58,114
1,74,86,2
1,67,78,2
1,79,98,60
1,79,102,64
1,77,104,12
1,60,78,52
1,75,94,6
1,63,84,106
1,63,68,84
1,65,92,2
1,67,76,88
1,74,95,10
1,59,55,2
1,79,111,86
1,67,113,2
1,74,103,0
1,59,82,4
1,55,98,2
1,47,86,2
1,79,103,46
1,67,106,6
1,74,108,0
1,59,90,6
1,47,81,2
1,55,89,0
1,59,85,42
1,55,85,2
1,47,81,2
1,74,97,2
1,67,99,2
1,77,113,0
1,67,105,48
1,72,115,2
1,75,115,0
1,60,117,2
1,55,91,0
1,48,112,4
1,72,120,346
1,56,103,2
1,60,114,2
1,44,92,2
1,66,103,2
1,48,99,8
1,79,121,446
1,67,119,4
1,55,107,0
1,71,106,0
1,50,103,0
1,43,103,2
1,56,114,320
1,44,111,4
1,68,114,0
1,32,110,4
1,56,103,58
1,68,106,2
1,44,96,6
1,32,92,4
1,56,112,42
1,68,111,2
1,32,97,6
1,44,105,0
1,29,120,70
1,41,118,0
1,53,121,4
1,65,121,0
1,68,64,208
1,68,67,96
1,68,62,88
1,65,76,104
1,62,67,142
1,62,67,92
1,62,75,72
1,59,70,90
1,56,73,122
1,56,66,88
1,56,49,92
1,55,67,96
1,43,70,140
1,31,52,4
1,31,63,88
1,43,56,10
1,43,63,54
1,31,48,14
1,63,62,106
1,48,54,8
1,36,55,4
1,60,35,8
1,68,78,24
1,68,87,84
1,68,92,50
1,65,96,92
1,62,78,142
1,62,79,106
1,62,75,106
1,59,68,100
1,56,70,132
1,56,53,98
1,56,47,96
1,55,62,90
1,43,66,126
1,31,69,0
1,43,54,106
1,31,44,4
1,31,63,38
1,43,54,8
1,63,58,6
1,36,49,4
1,48,33,4
1,60,22,10
1,63,57,92
1,67,65,14
1,63,65,74
1,67,66,2
1,72,87,4
1,63,65,70
1,67,75,0
1,72,81,4
1,72,91,94
1,62,74,4
1,68,64,2
1,65,67,6
1,48,82,128
1,36,79,2
1,48,71,100
1,36,67,2
1,48,69,94
1,36,66,6
1,48,63,100
1,71,59,8
1,36,61,6
1,71,83,62
1,68,66,6
1,65,93,10
1,68,78,52
1,71,90,2
1,65,80,4
1,74,104,64
1,65,83,2
1,68,79,2
1,74,103,76
1,63,90,2
1,67,87,6
1,48,88,124
1,36,85,2
1,48,74,104
1,36,65,12
1,48,68,104
1,36,55,4
1,72,75,88
1,48,53,0
1,36,36,0
1,63,62,52
1,67,50,8
1,72,68,2
1,63,62,86
1,72,78,2
1,67,55,2
1,60,69,6
1,51,70,8
1,55,58,18
1,75,88,0
1,48,81,2
1,75,98,84
1,68,84,8
1,65,95,0
1,48,100,6
1,36,88,4
1,74,88,10
1,74,88,102
1,68,70,0
1,65,77,4
1,59,63,8
1,56,64,8
1,53,50,18
1,48,70,44
1,77,97,2
1,70,103,106
1,77,114,0
1,67,101,0
1,36,106,6
1,48,100,4
1,76,96,0
1,58,95,80
1,76,95,0
1,67,68,14
1,55,75,0
1,70,79,0
1,48,92,32
1,79,101,4
1,68,98,86
1,79,105,2
1,72,99,8
1,48,103,4
1,36,102,4
1,77,100,36
1,56,78,46
1,68,86,2
1,53,73,2
1,72,65,6
1,77,105,0
1,48,80,30
1,80,100,2
1,80,96,72
1,70,112,0
1,76,104,6
1,36,105,0
1,48,110,0
1,79,100,36
1,79,96,84
1,70,88,6
1,55,82,4
1,76,71,8
1,52,75,8
1,82,106,24
1,48,88,12
1,82,112,54
1,77,111,4
1,72,109,2
1,48,103,6
1,36,110,0
1,47,40,4
1,80,99,38
1,56,84,42
1,80,111,0
1,72,101,2
1,77,92,0
1,53,76,16
1,48,95,30
1,84,105,2
1,84,110,52
1,80,104,2
1,77,105,2
1,74,109,0
1,36,111,6
1,48,114,0
1,83,91,28
1,80,91,56
1,83,92,2
1,77,95,4
1,74,105,2
1,59,82,8
1,53,76,6
1,56,73,4
1,48,67,2
1,86,95,12
1,84,110,42
1,72,103,2
1,75,97,0
1,48,115,2
1,36,110,4
1,43,100,2
1,75,113,38
1,87,113,2
1,87,100,62
1,75,95,4
1,87,99,64
1,75,106,4
1,72,122,66
1,60,99,8
1,63,98,2
1,67,103,4
1,79,108,46
1,67,101,8
1,79,103,62
1,67,95,4
1,67,98,66
1,79,88,4
1,63,112,76
1,60,105,8
1,55,103,0
1,60,89,60
1,72,110,2
1,67,103,66
1,55,93,4
1,55,97,78
1,67,98,10
1,51,106,56
1,48,105,10
1,51,95,56
1,60,98,8
1,55,91,0
1,36,101,12
1,48,92,6
1,51,97,44
1,48,101,0
1,60,107,4
1,55,101,0
1,36,101,4
1,48,94,40
1,60,106,4
1,51,97,0
1,36,84,2
1,55,101,8
1,50,110,40
1,59,97,6
1,55,88,4
1,31,123,2
1,43,121,2
1,53,63,4
1,89,111,66
1,77,107,0
1,74,115,74
1,86,111,4
1,74,109,62
1,86,102,2
1,71,108,74
1,62,105,4
1,65,108,6
1,79,111,24
1,67,107,2
1,65,110,74
1,77,109,2
1,65,108,70
1,77,102,10
1,62,113,84
1,53,104,6
1,59,95,4
1,55,101,0
1,71,97,18
1,59,84,6
1,67,105,78
1,55,91,6
1,57,19,34
1,65,98,46
1,62,95,4
1,43,114,96
1,31,116,4
1,59,90,46
1,50,101,2
1,53,91,10
1,60,105,76
1,51,102,2
1,55,101,0
1,48,105,6
1,36,100,4
1,48,108,32
1,60,103,6
1,51,93,0
1,36,83,6
1,55,95,8
1,51,110,26
1,60,103,8
1,42,104,0
1,54,88,0
1,33,116,2
1,45,121,0
1,57,102,0
1,36,83,2
1,39,98,2
1,75,92,50
1,87,92,8
1,87,100,102
1,75,105,2
1,87,104,52
1,75,106,0
1,72,123,54
1,66,102,8
1,63,103,0
1,82,44,22
1,81,106,24
1,69,108,0
1,69,103,58
1,81,103,2
1,69,107,78
1,81,98,2
1,66,112,64
1,57,102,8
1,60,103,2
1,63,107,16
1,75,100,0
1,63,88,48
1,75,99,0
1,63,101,58
1,75,96,2
1,60,108,30
1,54,100,2
1,51,103,4
1,57,111,86
1,63,90,4
1,66,90,2
1,69,95,2
1,48,112,6
1,36,108,2
1,57,105,48
1,63,85,4
1,66,88,2
1,69,92,4
1,48,105,10
1,36,101,2
1,57,96,60
1,63,83,2
1,66,83,2
1,69,93,4
1,48,98,2
1,36,97,0
1,63,98,80
1,66,97,0
1,57,119,0
1,69,117,2
1,48,119,2
1,36,116,2
1,70,119,836
1,58,123,2
1,46,115,4
1,38,107,0
1,50,115,2
1,65,111,0
1,41,103,8
1,70,124,808
1,70,115,78
1,70,116,64
1,63,117,204
1,65,114,26
1,58,115,128
1,70,67,186
1,67,41,18
1,63,32,16
1,75,68,72
1,68,38,0
1,74,52,0
1,65,28,16
1,75,60,2
1,62,35,18
1,77,73,8
1,68,49,4
1,46,71,94
1,34,77,0
1,46,44,76
1,72,79,12
1,34,45,4
1,46,44,18
1,34,67,0
1,39,34,126
1,63,44,2
1,72,65,10
1,67,34,4
1,51,10,4
1,70,68,24
1,70,79,168
1,63,41,2
1,67,50,4
1,58,42,2
1,55,39,6
1,75,70,24
1,68,48,4
1,65,37,0
1,74,67,6
1,58,59,2
1,56,44,0
1,53,23,14
1,75,62,234
1,62,59,102
1,77,75,2
1,68,47,2
1,34,79,120
1,46,33,14
1,34,57,42
1,72,66,16
1,46,36,8
1,46,52,56
1,34,62,6
1,72,70,96
1,63,42,0
1,39,26,2
1,67,41,4
1,51,20,2
1,70,81,8
1,82,97,252
1,67,41,2
1,70,67,4
1,55,36,2
1,58,47,2
1,63,40,2
1,87,89,46
1,75,66,4
1,86,89,80
1,68,47,4
1,74,58,16
1,58,50,8
1,53,17,2
1,87,72,32
1,75,47,6
1,62,48,168
1,89,63,6
1,77,67,0
1,46,59,50
1,46,68,80
1,84,61,8
1,72,65,0
1,46,75,16
1,84,66,174
1,72,52,10
1,51,61,22
1,63,69,0
1,70,81,100
1,82,83,6
1,70,76,34
1,63,36,4
1,67,36,32
1,72,78,202
1,73,65,34
1,64,43,22
1,67,32,4
1,72,64,18
1,70,70,102
1,64,33,4
1,67,24,0
1,36,75,106
1,48,73,0
1,72,79,96
1,36,47,2
1,48,43,4
1,36,56,84
1,48,48,8
1,70,74,102
1,60,32,26
1,65,44,0
1,53,18,6
1,41,36,6
1,68,71,154
1,65,40,128
1,73,65,0
1,68,45,14
1,75,73,134
1,77,70,90
1,70,52,6
1,67,44,18
1,75,58,164
1,73,62,152
1,70,49,6
1,67,31,40
1,51,75,40
1,39,66,2
1,70,7,8
1,51,65,66
1,39,59,4
1,75,61,14
1,39,59,38
1,51,73,4
1,63,35,106
1,73,62,0
1,68,54,10
1,56,14,10
1,44,30,12
1,72,65,34
1,75,62,238
1,72,51,10
1,63,38,0
1,56,26,16
1,60,25,2
1,77,78,12
1,65,51,20
1,66,62,36
1,63,62,0
1,57,46,8
1,84,80,8
1,78,64,2
1,72,72,2
1,45,48,64
1,77,83,72
1,45,61,2
1,57,45,2
1,65,66,0
1,57,50,78
1,63,81,92
1,75,75,6
1,45,47,20
1,57,47,4
1,77,99,200
1,65,85,4
1,78,93,26
1,82,108,2
1,70,99,0
1,66,83,2
1,63,79,0
1,75,68,12
1,58,76,4
1,46,94,24
1,77,102,66
1,65,64,12
1,58,74,2
1,46,58,10
1,58,62,32
1,46,85,4
1,63,93,76
1,75,94,2
1,58,103,12
1,46,98,2
1,77,111,178
1,65,102,4
1,66,98,32
1,59,89,4
1,81,111,0
1,69,108,0
1,78,96,2
1,75,92,2
1,63,84,10
1,59,76,10
1,47,81,4
1,77,110,96
1,65,105,2
1,59,57,6
1,47,52,2
1,59,54,42
1,47,55,4
1,63,101,84
1,75,97,2
1,59,83,14
1,47,84,12
1,77,111,166
1,65,103,4
1,78,107,192
1,66,103,2
1,60,99,120
1,48,95,6
1,60,92,6
1,77,105,0
1,48,93,2
1,65,92,4
1,60,88,48
1,48,98,4
1,63,100,66
1,75,102,4
1,60,94,8
1,48,88,10
1,77,113,148
1,65,108,2
1,78,113,148
1,66,112,0
1,48,105,138
1,36,98,0
1,77,113,72
1,65,110,0
1,69,98,0
1,75,91,2
1,36,92,14
1,48,106,0
1,48,102,4
1,36,108,4
1,66,112,76
1,78,109,0
1,75,96,10
1,69,101,0
1,36,102,0
1,48,105,2
1,78,105,176
1,81,118,0
1,69,119,2
1,75,105,0
1,60,115,6
1,54,90,2
1,57,104,2
1,51,95,10
1,48,70,14
1,82,122,226
1,70,124,2
1,62,117,2
1,58,117,0
1,80,109,0
1,50,113,0
1,77,117,0
1,53,103,4
1,84,112,20
1,72,108,4
1,70,121,22
1,82,119,6
1,50,113,0
1,38,105,4
1,46,110,0
1,41,95,0
1,68,107,30
1,80,107,0
1,80,106,84
1,68,112,0
1,51,119,0
1,39,111,8
1,46,114,4
1,79,110,44
1,67,106,2
1,65,110,74
1,77,111,2
1,63,107,64
1,75,101,2
1,41,106,56
1,53,109,2
1,75,97,4
1,63,105,0
1,50,101,0
1,46,108,0
1,74,106,34
1,62,95,0
1,60,105,2
1,72,111,4
1,74,113,64
1,62,76,4
1,55,120,84
1,65,115,0
1,77,119,2
1,51,106,0
1,43,105,4
1,46,108,0
1,63,105,6
1,75,102,2
1,70,111,12
1,67,110,60
1,56,109,72
1,74,117,0
1,62,110,2
1,44,99,2
1,53,97,4
1,51,90,2
1,60,107,2
1,72,110,0
1,68,99,32
1,65,109,58
1,72,117,74
1,60,104,0
1,55,110,2
1,46,111,0
1,51,96,4
1,62,72,18
1,58,115,12
1,70,110,2
1,67,96,44
1,63,103,68
1,58,121,98
1,46,107,6
1,50,97,4
1,53,97,2
1,69,113,74
1,81,115,0
1,70,117,100
1,82,118,4
1,81,115,62
1,69,114,2
1,50,123,42
1,46,125,0
1,82,117,0
1,70,119,2
1,38,118,0
1,80,103,2
1,77,106,2
1,81,109,22
1,69,96,8
1,53,121,76
1,46,121,0
1,82,115,2
1,41,110,2
1,70,115,2
1,81,102,6
1,69,101,0
1,46,114,26
1,50,115,0
1,82,118,6
1,38,113,0
1,70,120,0
1,72,112,56
1,84,112,0
1,70,120,72
1,82,115,4
1,53,117,4
1,41,108,4
1,46,106,2
1,68,108,10
1,80,103,6
1,51,120,28
1,80,107,0
1,68,111,2
1,39,112,4
1,46,115,6
1,79,109,0
1,67,106,2
1,65,112,72
1,77,110,2
1,55,114,16
1,43,95,4
1,46,96,2
1,63,110,58
1,75,100,6
1,53,120,12
1,63,103,2
1,46,113,0
1,75,100,2
1,41,111,0
1,62,104,6
1,74,109,0
1,72,111,64
1,60,106,0
1,56,111,6
1,46,100,4
1,44,90,2
1,74,113,26
1,62,98,4
1,55,119,26
1,46,108,4
1,65,113,0
1,43,106,0
1,77,118,2
1,75,102,10
1,63,103,2
1,63,85,62
1,70,103,8
1,55,94,18
1,63,70,34
1,58,110,6
1,67,98,2
1,74,117,46
1,62,110,2
1,51,111,6
1,44,100,2
1,72,106,10
1,60,100,48
1,68,98,0
1,51,95,2
1,48,89,6
1,56,98,42
1,65,96,8
1,51,100,60
1,72,115,2
1,60,102,2
1,46,104,2
1,70,107,22
1,55,98,8
1,58,72,22
1,51,101,10
1,46,102,2
1,58,100,4
1,67,105,8
1,55,97,0
1,63,101,12
1,53,111,12
1,50,104,2
1,46,106,2
1,82,119,10
1,70,111,2
1,74,108,0
1,70,110,62
1,82,113,2
1,74,104,0
1,56,105,0
1,46,108,4
1,53,101,2
1,82,106,38
1,70,106,4
1,74,105,6
1,51,117,64
1,39,107,0
1,63,113,2
1,75,110,2
1,46,114,2
1,67,102,2
1,43,94,2
1,70,101,0
1,91,111,148
1,79,113,2
1,67,106,4
1,79,105,78
1,67,100,4
1,91,101,0
1,79,110,66
1,67,98,4
1,91,106,2
1,63,115,70
1,75,119,2
1,87,112,2
1,70,115,96
1,82,111,2
1,58,115,2
1,70,108,68
1,82,108,4
1,58,100,8
1,70,104,56
1,58,103,2
1,82,107,0
1,55,114,64
1,67,115,0
1,79,111,2
1,75,100,70
1,63,98,4
1,51,102,8
1,75,99,84
1,63,98,0
1,51,90,2
1,63,101,78
1,75,100,2
1,51,103,4
1,58,124,38
1,46,122,6
1,70,122,0
1,65,111,36
1,46,120,4
1,34,120,0
1,77,110,2
1,70,111,0
1,74,97,2
1,65,104,54
1,77,106,0
1,70,98,2
1,46,108,0
1,74,101,2
1,34,107,6
1,70,103,44
1,46,111,4
1,77,99,0
1,65,108,2
1,74,91,2
1,34,100,4
1,39,106,26
1,43,92,16
1,79,122,2
1,67,123,2
1,70,119,2
1,75,108,0
1,51,120,4
1,46,113,0
1,87,40,94
1,79,110,36
1,91,110,4
1,67,112,14
1,79,101,72
1,67,101,0
1,91,92,0
1,79,105,80
1,91,90,4
1,67,96,4
1,63,112,74
1,75,103,0
1,87,77,14
1,70,114,86
1,58,108,8
1,82,105,0
1,70,111,80
