track,note,velocity,time
1,37,14,0
1,49,15,2
1,56,22,8
1,61,28,326
1,64,25,68
1,56,35,250
1,61,36,258
1,64,29,32
1,56,26,38
1,61,29,262
1,64,21,78
1,56,24,78
1,61,28,262
1,64,22,24
1,47,33,18
1,56,30,8
1,35,38,4
1,61,28,300
1,64,19,2
1,56,23,180
1,61,28,270
1,64,22,46
1,56,23,48
1,61,27,258
1,64,23,34
1,56,16,74
1,61,23,266
1,64,21,68
1,45,26,56
1,33,33,6
1,57,19,6
1,61,37,86
1,64,35,20
1,57,25,62
1,61,39,278
1,64,40,98
1,30,60,242
1,42,41,0
1,57,34,16
1,62,47,114
1,66,41,52
1,57,45,58
1,62,54,252
1,66,46,132
1,44,57,134
1,56,42,2
1,32,44,14
1,60,52,70
1,66,41,92
1,56,36,148
1,61,39,20
1,64,36,22
1,32,29,230
1,56,36,8
1,44,27,6
1,61,35,158
1,63,30,240
1,54,40,298
1,60,27,50
1,63,32,8
1,44,26,374
1,49,18,2
1,52,33,4
1,37,15,2
1,56,27,18
1,61,32,6
1,56,34,70
1,61,26,208
1,64,20,74
1,56,16,28
1,61,19,324
1,64,20,60
1,68,60,208
1,56,37,18
1,61,15,114
1,64,24,28
1,68,57,162
1,56,35,124
1,68,50,2
1,44,25,6
1,36,25,6
1,48,20,0
1,63,33,132
1,66,21,8
1,56,22,40
1,63,21,30
1,66,22,14
1,56,18,10
1,63,20,56
1,66,13,122
1,68,55,152
1,56,25,22
1,63,27,192
1,66,15,8
1,68,53,80
1,68,51,104
1,56,33,16
1,49,19,16
1,37,26,0
1,61,25,140
1,64,30,2
1,56,32,88
1,61,33,14
1,64,37,72
1,69,59,250
1,57,36,10
1,30,28,6
1,42,15,30
1,61,42,86
1,66,21,28
1,57,22,28
1,61,33,44
1,66,30,2
1,68,62,128
1,56,33,18
1,35,34,18
1,47,18,2
1,59,32,54
1,64,39,14
1,56,39,112
1,59,33,134
1,64,41,120
1,66,50,120
1,35,28,18
1,57,21,8
1,47,16,16
1,59,40,90
1,63,46,118
1,71,65,210
1,57,13,48
1,59,34,128
1,63,51,56
1,64,50,318
1,56,22,12
1,40,31,2
1,52,17,12
1,59,31,28
1,64,36,20
1,56,32,186
1,59,31,278
1,64,16,48
1,56,28,28
1,59,20,274
1,64,26,68
1,56,21,78
1,59,19,18
1,64,25,70
1,55,19,160
1,52,26,2
1,40,38,16
1,59,20,76
1,64,25,74
1,55,12,110
1,59,10,110
1,64,22,58
1,55,20,26
1,59,13,68
1,64,20,16
1,67,44,140
1,55,19,22
1,59,9,92
1,64,18,78
1,67,47,6
1,67,31,184
1,55,26,20
1,50,17,14
1,38,27,2
1,59,17,194
1,65,14,120
1,55,23,118
1,59,22,70
1,65,23,82
1,55,29,138
1,59,23,130
1,65,36,156
1,67,62,196
1,55,27,24
1,59,35,98
1,65,45,0
1,67,59,74
1,67,66,42
1,55,40,6
1,48,26,8
1,36,30,20
1,60,42,164
1,64,48,220
1,55,39,126
1,35,41,10
1,47,25,2
1,60,37,96
1,64,35,48
1,46,21,18
1,34,29,14
1,55,28,6
1,61,21,22
1,64,30,112
1,66,26,220
1,54,16,26
1,61,21,10
1,64,19,124
1,66,38,230
1,54,27,12
1,47,16,16
1,35,27,22
1,59,27,142
1,62,22,44
1,54,35,172
1,59,33,302
1,62,29,72
1,67,61,76
1,55,36,16
1,28,32,2
1,40,40,0
1,59,38,42
1,61,31,20
1,64,71,248
1,52,34,8
1,43,33,8
1,31,34,14
1,59,41,108
1,61,39,46
1,66,47,134
1,54,42,4
1,30,21,4
1,42,18,10
1,59,33,150
1,62,35,202
1,54,35,218
1,59,26,34
1,62,26,30
1,66,44,286
1,30,26,14
1,54,29,2
1,42,19,6
1,58,21,184
1,61,24,128
1,54,26,26
1,58,11,14
1,61,29,322
1,59,29,294
1,47,18,16
1,35,19,2
1,62,21,80
1,66,12,50
1,59,8,58
1,62,18,282
1,66,27,6
1,59,25,36
1,63,31,248
1,66,27,22
1,71,68,162
1,59,18,30
1,63,24,264
1,66,38,22
1,72,78,262
1,59,37,14
1,64,28,60
1,67,29,50
1,52,48,196
1,40,51,8
1,59,27,0
1,64,46,250
1,67,42,22
1,59,28,42
1,55,42,4
1,43,42,6
1,64,33,10
1,67,15,56
1,70,35,242
1,40,35,16
1,59,32,0
1,52,35,2
1,64,30,136
1,67,21,4
1,71,45,48
1,59,27,20
1,47,17,4
1,35,22,4
1,63,32,194
1,66,20,62
1,59,23,64
1,63,26,254
1,66,14,8
1,59,16,90
1,63,24,54
1,66,20,106
1,71,81,88
1,59,17,38
1,63,34,224
1,66,38,22
1,72,76,228
1,59,32,18
1,64,35,96
1,67,35,24
1,52,58,40
1,40,54,12
1,59,28,6
1,64,40,248
1,67,30,106
1,59,29,200
1,55,54,12
1,43,41,14
1,64,35,190
1,67,36,30
1,70,52,222
1,59,39,20
1,52,47,0
1,40,49,2
1,64,36,26
1,67,27,40
1,71,75,96
1,47,32,8
1,59,34,6
1,35,46,2
1,63,47,196
1,66,26,14
1,59,29,46
1,63,42,0
1,66,41,112
1,71,79,256
1,32,50,2
1,44,39,6
1,59,45,0
1,62,47,86
1,65,46,134
1,59,44,192
1,62,50,234
1,65,43,84
1,71,80,114
1,29,51,12
1,41,41,4
1,59,30,2
1,61,41,196
1,68,36,52
1,59,35,76
1,61,41,38
1,68,49,96
1,69,55,2
1,30,41,8
1,57,38,0
1,42,36,6
1,61,44,116
1,66,30,74
1,57,32,74
1,61,39,8
1,66,37,6
1,47,40,116
1,35,49,4
1,67,61,8
1,55,38,0
1,59,33,282
1,62,42,34
1,55,38,100
1,59,34,128
1,62,45,94
1,66,49,206
1,54,44,8
1,48,24,16
1,36,36,6
1,57,37,148
1,63,31,34
1,54,30,70
1,57,34,280
1,63,39,152
1,61,53,264
1,49,29,10
1,37,29,8
1,54,39,252
1,57,34,62
1,49,33,56
1,54,35,2
1,57,21,46
1,61,48,168
1,49,24,10
1,37,24,8
1,54,33,154
1,56,24,86
1,61,45,212
1,49,20,10
1,53,42,152
1,56,35,40
1,54,51,326
1,42,23,24
1,30,28,0
1,37,26,14
1,57,25,220
1,61,28,298
1,57,30,194
1,61,41,12
1,66,25,30
1,61,22,268
1,66,14,290
1,69,19,6
1,73,65,182
1,61,36,36
1,66,26,34
1,69,24,46
1,73,73,106
1,73,70,114
1,41,37,16
1,49,25,4
1,53,52,2
1,61,32,4
1,68,24,246
1,71,44,222
1,61,29,100
1,68,27,32
1,71,30,34
1,61,30,102
1,68,22,46
1,71,30,28
1,73,62,180
1,61,35,14
1,68,31,122
1,71,36,14
1,73,66,44
1,73,76,98
1,61,57,6
1,42,36,4
1,54,37,4
1,61,7,72
1,66,31,100
1,69,32,50
1,61,30,216
1,66,29,264
1,69,36,226
1,72,74,110
1,60,57,6
1,51,51,2
1,39,48,8
1,66,34,272
1,69,42,42
1,73,76,56
1,49,58,4
1,61,59,6
1,37,51,8
1,66,48,242
1,69,54,96
1,36,46,166
1,44,49,2
1,75,78,0
1,48,37,4
1,63,62,2
1,66,30,122
1,68,34,140
1,63,24,60
1,66,28,60
1,68,38,8
1,63,40,108
1,66,40,98
1,68,50,38
1,75,79,118
1,48,46,6
1,63,59,8
1,36,40,2
1,44,42,0
1,66,38,40
1,68,47,16
1,76,81,128
1,64,56,18
1,49,46,4
1,37,50,0
1,44,43,14
1,68,41,98
1,73,40,82
1,64,47,100
1,68,41,14
1,73,52,116
1,75,73,126
1,63,51,0
1,30,47,4
1,42,30,0
1,66,36,124
1,69,40,176
1,73,56,144
1,61,37,10
1,43,30,12
1,31,33,2
1,64,37,184
1,70,32,70
1,32,21,212
1,72,42,2
1,44,27,4
1,60,33,210
1,63,36,168
1,68,56,224
1,60,28,152
1,63,36,6
1,69,48,232
1,60,30,214
1,63,35,34
1,66,34,232
1,60,27,32
1,63,25,36
1,32,35,96
1,44,40,4
1,60,37,278
1,63,34,48
1,56,53,224
1,60,31,160
1,63,38,50
1,57,51,16
1,60,28,256
1,63,32,20
1,54,58,44
1,60,31,166
1,63,36,2
1,52,55,82
1,44,28,24
1,32,21,4
1,64,49,16
1,68,39,148
1,73,66,222
1,64,37,250
1,68,39,44
1,76,70,68
1,64,29,260
1,68,29,50
1,73,37,154
1,64,15,4
1,68,29,130
1,32,34,118
1,44,36,6
1,52,41,244
1,56,36,224
1,61,53,192
1,52,41,196
1,56,33,118
1,64,45,14
1,52,31,270
1,56,22,68
1,61,30,134
1,52,19,216
1,56,22,32
1,44,25,132
1,32,21,8
1,51,23,8
1,57,27,30
1,54,40,114
1,60,50,0
1,57,34,232
1,63,52,2
1,60,50,234
1,66,39,196
1,63,49,220
1,69,35,20
1,66,31,262
1,72,35,2
1,52,48,218
1,44,28,10
1,32,28,0
1,61,50,238
1,56,49,54
1,64,66,40
1,61,64,48
1,68,59,226
1,64,66,226
1,73,54,220
1,68,55,172
1,76,50,210
1,73,45,272
1,68,47,24
1,32,44,6
1,61,46,0
1,44,43,4
1,67,45,176
1,64,58,184
1,70,56,222
1,67,68,212
1,73,67,202
1,70,64,212
1,76,67,208
1,73,68,180
1,79,88,176
1,76,75,204
1,82,75,4
1,66,62,174
1,44,49,4
1,32,49,2
1,72,69,98
1,69,74,160
1,75,77,222
1,72,80,200
1,78,80,200
1,75,78,202
1,81,83,196
1,78,84,192
1,84,96,206
1,81,91,216
1,87,67,254
1,84,82,264
1,78,65,190
1,81,59,226
1,75,48,198
1,78,54,214
1,72,48,0
1,75,44,236
1,69,18,8
1,72,34,56
1,66,23,20
1,69,24,228
1,63,32,4
1,66,29,228
1,60,31,194
1,63,40,4
1,57,39,18
1,60,45,62
1,54,47,34
1,57,42,32
1,51,49,218
1,54,38,16
1,49,46,240
1,54,35,12
1,57,28,8
1,48,45,116
1,44,30,26
1,32,21,2
1,54,35,40
1,56,29,88
1,57,33,8
1,56,34,218
1,54,39,254
1,51,51,54
1,54,43,234
1,57,38,64
1,49,58,34
1,54,43,38
1,57,31,40
1,48,52,158
1,44,36,12
1,32,28,2
1,54,46,176
1,56,28,118
1,57,25,208
1,56,26,64
1,54,32,226
1,50,46,134
1,54,41,118
1,57,27,58
1,49,41,262
1,54,36,80
1,57,24,78
1,48,37,202
1,32,26,22
1,44,26,2
1,54,34,204
1,56,27,166
1,57,22,10
1,56,24,24
1,54,34,14
1,49,34,4
1,33,40,4
1,45,24,12
1,52,44,138
1,61,42,60
1,49,35,64
1,52,22,160
1,61,30,70
1,51,28,216
1,30,41,10
1,42,33,4
1,57,31,172
1,61,35,20
1,51,31,54
1,57,27,0
1,61,24,8
1,51,27,232
1,32,32,20
1,44,17,20
1,56,29,208
1,60,29,112
1,51,25,80
1,54,38,6
1,60,26,138
1,37,19,2
1,52,34,6
1,44,26,2
1,49,20,4
1,56,22,34
1,61,24,86
1,56,22,72
1,61,14,50
1,64,24,126
1,56,22,86
1,61,22,40
1,64,22,142
1,68,45,152
1,56,24,2
1,61,21,174
1,64,31,74
1,68,43,150
1,68,32,138
1,56,18,20
1,44,17,4
1,36,25,4
1,48,18,8
1,63,21,24
1,66,13,96
1,56,23,80
1,63,20,36
1,66,18,68
1,56,19,42
1,63,12,88
1,66,12,156
1,68,39,136
1,56,18,12
1,63,29,184
1,66,26,34
1,68,56,96
1,68,54,124
1,56,29,16
1,49,23,14
1,37,25,2
1,61,23,184
1,64,8,98
1,56,23,62
1,61,25,68
1,64,24,74
1,69,46,126
1,57,22,10
1,30,28,18
1,42,20,8
1,61,35,160
1,66,27,70
1,57,24,106
1,61,27,76
1,66,28,110
1,68,48,186
1,56,27,12
1,47,19,26
1,35,30,8
1,59,28,120
1,64,29,42
1,56,30,152
1,59,22,156
1,64,36,168
1,66,44,166
1,57,19,30
1,47,17,2
1,35,29,2
1,59,17,82
1,63,23,0
1,71,50,282
1,57,12,50
1,59,25,198
1,63,26,68
1,64,46,362
1,56,21,0
1,40,34,30
1,52,25,4
1,59,15,6
1,64,27,120
1,59,22,64
1,64,15,32
1,68,20,28
1,59,14,60
1,64,25,298
1,68,24,42
1,71,75,158
1,59,26,26
1,64,34,128
1,68,46,10
1,71,85,132
1,71,76,114
1,59,39,8
1,39,26,12
1,51,32,4
1,66,18,214
1,69,24,126
1,59,25,130
1,66,20,86
1,69,23,250
1,59,21,258
1,66,21,30
1,69,27,22
1,71,67,214
1,59,41,8
1,66,17,36
1,69,14,48
1,71,79,0
1,71,82,152
1,59,44,16
1,52,41,8
1,40,48,2
1,64,37,120
1,68,38,40
1,59,42,30
1,64,47,4
1,68,48,76
1,72,78,118
1,51,50,8
1,60,45,4
1,39,43,2
1,66,39,94
1,68,45,84
1,73,82,84
1,49,57,8
1,61,68,0
1,37,60,6
1,64,52,158
1,68,47,38
1,75,52,368
1,44,22,6
1,48,26,2
1,63,35,0
1,36,31,12
1,66,17,30
1,68,30,144
1,63,32,34
1,66,23,28
1,68,29,38
1,76,62,136
1,64,34,18
1,37,28,2
1,49,24,2
1,44,30,8
1,68,33,152
1,73,38,106
1,64,45,86
1,68,34,44
1,73,38,132
1,74,73,150
1,42,31,18
1,62,31,2
1,30,40,0
1,66,33,142
1,69,25,128
1,62,31,136
1,66,26,202
1,69,25,16
1,32,31,268
1,72,51,2
1,44,34,4
1,60,29,2
1,66,23,208
1,44,2,108
1,68,25,10
1,60,29,102
1,66,19,46
1,68,20,36
1,49,25,164
1,37,28,2
1,73,36,8
1,61,24,6
1,64,32,40
1,68,32,30
1,61,32,62
1,64,33,28
1,68,30,108
1,61,25,222
1,65,30,8
1,68,37,2
1,73,78,134
1,61,36,20
1,65,31,70
1,68,44,16
1,74,94,200
1,61,62,10
1,66,37,118
1,69,39,192
1,61,35,198
1,54,66,8
1,42,52,2
1,66,32,204
1,69,35,2
1,61,27,138
1,57,53,12
1,45,49,0
1,66,28,186
1,69,23,24
1,72,46,222
1,61,25,18
1,42,26,0
1,54,26,10
1,66,22,198
1,69,18,8
1,73,35,194
1,61,27,14
1,37,27,6
1,49,19,2
1,65,24,274
1,68,30,66
1,61,30,190
1,65,22,272
1,68,26,174
1,61,16,60
1,65,10,76
1,68,22,26
1,73,68,154
1,61,30,24
1,65,25,54
1,68,47,18
1,74,87,210
1,61,57,8
1,66,32,250
1,69,36,62
1,54,74,148
1,42,55,6
1,61,38,4
1,66,38,0
1,69,36,256
1,61,31,110
1,57,67,2
1,45,45,8
1,66,31,102
1,69,39,14
1,72,61,148
1,42,42,6
1,54,45,4
1,61,36,2
1,66,28,206
1,69,18,44
1,73,49,136
1,61,34,10
1,49,39,2
1,37,37,6
1,65,30,152
1,68,36,152
1,61,45,154
1,65,40,92
1,68,47,8
1,73,78,138
1,30,65,0
1,42,50,6
1,61,60,8
1,66,41,242
1,69,41,112
1,61,57,130
1,66,43,216
1,69,50,58
1,71,78,176
1,39,70,8
1,59,53,2
1,51,61,2
1,66,44,18
1,69,44,88
1,59,49,154
1,66,40,248
1,69,42,190
1,59,44,232
1,66,36,278
1,69,33,6
1,59,48,158
1,71,79,2
1,40,73,8
1,52,55,8
1,64,46,26
1,68,46,98
1,69,72,8
1,37,73,4
1,57,51,4
1,49,65,2
1,64,57,74
1,68,61,80
1,69,76,112
1,51,62,8
1,57,61,4
1,39,62,0
1,63,52,178
1,66,50,30
1,68,61,154
1,56,51,10
1,48,38,8
1,36,51,12
1,63,43,174
1,66,41,24
1,68,75,98
1,49,50,2
1,37,62,6
1,56,51,6
1,61,44,46
1,64,54,4
1,66,70,72
1,45,55,2
1,33,64,2
1,54,61,10
1,61,44,66
1,63,43,34
1,54,56,120
1,61,45,108
1,63,55,8
1,68,76,128
1,44,67,8
1,56,61,0
1,32,55,4
1,61,50,166
1,63,48,2
1,69,71,16
1,57,57,6
1,30,54,16
1,42,54,0
1,61,48,166
1,63,51,8
1,68,54,332
1,56,38,8
1,44,34,10
1,32,34,4
1,61,36,204
1,64,28,194
1,56,28,244
