track,note,velocity,time
1.0,67.0,45.0,384.0
1.0,71.0,52.0,10.0
1.0,72.0,64.0,132.0
1.0,69.0,61.0,0.0
1.0,43.0,43.0,48.0
1.0,74.0,78.0,0.0
1.0,71.0,57.0,2.0
1.0,70.0,84.0,50.0
1.0,73.0,56.0,4.0
1.0,74.0,52.0,6.0
1.0,71.0,67.0,0.0
1.0,47.0,57.0,0.0
1.0,70.0,65.0,14.0
1.0,73.0,53.0,10.0
1.0,71.0,51.0,32.0
1.0,74.0,47.0,4.0
1.0,50.0,52.0,2.0
1.0,70.0,56.0,0.0
1.0,73.0,45.0,6.0
1.0,71.0,45.0,20.0
1.0,55.0,51.0,6.0
1.0,74.0,59.0,2.0
1.0,43.0,38.0,58.0
1.0,72.0,59.0,12.0
1.0,76.0,71.0,0.0
1.0,68.0,54.0,12.0
1.0,71.0,51.0,0.0
1.0,69.0,53.0,22.0
1.0,72.0,60.0,0.0
1.0,50.0,51.0,2.0
1.0,38.0,34.0,72.0
1.0,74.0,60.0,74.0
1.0,71.0,42.0,2.0
1.0,69.0,47.0,18.0
1.0,66.0,23.0,10.0
1.0,43.0,35.0,10.0
1.0,71.0,39.0,4.0
1.0,67.0,40.0,6.0
1.0,31.0,37.0,70.0
1.0,67.0,68.0,34.0
1.0,59.0,37.0,0.0
1.0,69.0,72.0,56.0
1.0,62.0,46.0,0.0
1.0,43.0,56.0,26.0
1.0,71.0,78.0,0.0
1.0,67.0,73.0,14.0
1.0,66.0,62.0,40.0
1.0,70.0,78.0,0.0
1.0,67.0,74.0,2.0
1.0,71.0,54.0,4.0
1.0,47.0,62.0,0.0
1.0,70.0,77.0,6.0
1.0,66.0,62.0,2.0
1.0,51.0,69.0,18.0
1.0,71.0,72.0,4.0
1.0,67.0,79.0,2.0
1.0,70.0,78.0,4.0
1.0,66.0,62.0,2.0
1.0,71.0,66.0,0.0
1.0,52.0,58.0,4.0
1.0,67.0,75.0,2.0
1.0,54.0,46.0,446.0
1.0,66.0,48.0,2.0
1.0,69.0,57.0,2.0
1.0,55.0,37.0,10.0
1.0,67.0,70.0,4.0
1.0,64.0,50.0,4.0
1.0,64.0,55.0,8.0
1.0,67.0,66.0,4.0
1.0,57.0,42.0,18.0
1.0,66.0,62.0,4.0
1.0,62.0,52.0,4.0
1.0,66.0,66.0,48.0
1.0,62.0,55.0,10.0
1.0,66.0,64.0,60.0
1.0,69.0,63.0,14.0
1.0,67.0,63.0,10.0
1.0,45.0,51.0,12.0
1.0,64.0,41.0,4.0
1.0,61.0,41.0,128.0
1.0,64.0,56.0,10.0
1.0,62.0,37.0,22.0
1.0,50.0,39.0,14.0
1.0,62.0,33.0,80.0
1.0,67.0,35.0,46.0
1.0,71.0,38.0,4.0
1.0,69.0,53.0,108.0
1.0,72.0,50.0,4.0
1.0,43.0,49.0,38.0
1.0,74.0,61.0,2.0
1.0,71.0,47.0,4.0
1.0,70.0,58.0,16.0
1.0,73.0,46.0,8.0
1.0,71.0,47.0,44.0
1.0,74.0,61.0,4.0
1.0,47.0,44.0,0.0
1.0,70.0,50.0,4.0
1.0,73.0,48.0,2.0
1.0,71.0,42.0,14.0
1.0,50.0,37.0,4.0
1.0,74.0,45.0,4.0
1.0,70.0,42.0,4.0
1.0,73.0,33.0,8.0
1.0,71.0,26.0,12.0
1.0,74.0,42.0,2.0
1.0,55.0,36.0,4.0
1.0,43.0,32.0,18.0
1.0,76.0,63.0,10.0
1.0,72.0,45.0,6.0
1.0,68.0,39.0,16.0
1.0,71.0,38.0,6.0
1.0,50.0,39.0,4.0
1.0,69.0,39.0,6.0
1.0,72.0,54.0,6.0
1.0,38.0,41.0,84.0
1.0,74.0,63.0,22.0
1.0,71.0,39.0,4.0
1.0,66.0,38.0,22.0
1.0,69.0,51.0,8.0
1.0,43.0,40.0,0.0
1.0,71.0,40.0,4.0
1.0,67.0,50.0,6.0
1.0,31.0,47.0,170.0
1.0,67.0,55.0,46.0
1.0,59.0,28.0,22.0
1.0,62.0,54.0,56.0
1.0,69.0,63.0,12.0
1.0,71.0,67.0,84.0
1.0,43.0,42.0,14.0
1.0,67.0,53.0,2.0
1.0,66.0,58.0,2.0
1.0,70.0,73.0,2.0
1.0,71.0,58.0,8.0
1.0,67.0,68.0,2.0
1.0,47.0,56.0,6.0
1.0,70.0,70.0,0.0
1.0,66.0,55.0,2.0
1.0,51.0,77.0,16.0
1.0,71.0,67.0,4.0
1.0,67.0,69.0,2.0
1.0,70.0,74.0,32.0
1.0,66.0,63.0,2.0
1.0,52.0,65.0,2.0
1.0,71.0,66.0,4.0
1.0,67.0,71.0,2.0
1.0,54.0,46.0,118.0
1.0,69.0,53.0,8.0
1.0,66.0,37.0,2.0
1.0,55.0,31.0,6.0
1.0,64.0,57.0,14.0
1.0,67.0,71.0,4.0
1.0,67.0,72.0,34.0
1.0,64.0,59.0,8.0
1.0,57.0,44.0,6.0
1.0,66.0,61.0,14.0
1.0,62.0,56.0,4.0
1.0,62.0,52.0,42.0
1.0,66.0,59.0,0.0
1.0,66.0,45.0,4.0
1.0,69.0,54.0,12.0
1.0,45.0,47.0,34.0
1.0,64.0,40.0,6.0
1.0,67.0,23.0,32.0
1.0,64.0,43.0,82.0
1.0,61.0,40.0,18.0
1.0,62.0,49.0,0.0
1.0,50.0,37.0,26.0
1.0,62.0,20.0,76.0
1.0,74.0,43.0,244.0
1.0,79.0,60.0,16.0
1.0,79.0,75.0,134.0
1.0,74.0,49.0,8.0
1.0,62.0,17.0,22.0
1.0,59.0,13.0,2.0
1.0,78.0,77.0,10.0
1.0,72.0,54.0,6.0
1.0,62.0,37.0,14.0
1.0,57.0,44.0,2.0
1.0,79.0,94.0,174.0
1.0,71.0,45.0,6.0
1.0,55.0,63.0,0.0
1.0,62.0,48.0,0.0
1.0,81.0,91.0,118.0
1.0,69.0,58.0,6.0
1.0,54.0,48.0,12.0
1.0,62.0,49.0,2.0
1.0,50.0,59.0,14.0
1.0,79.0,66.0,208.0
1.0,54.0,41.0,8.0
1.0,78.0,69.0,54.0
1.0,76.0,81.0,82.0
1.0,74.0,79.0,8.0
1.0,72.0,92.0,0.0
1.0,69.0,72.0,0.0
1.0,55.0,35.0,8.0
1.0,67.0,53.0,112.0
1.0,71.0,68.0,6.0
1.0,76.0,72.0,60.0
1.0,72.0,61.0,2.0
1.0,48.0,36.0,18.0
1.0,72.0,47.0,154.0
1.0,69.0,33.0,14.0
1.0,50.0,30.0,38.0
1.0,71.0,46.0,16.0
1.0,67.0,30.0,12.0
1.0,69.0,29.0,4.0
1.0,66.0,25.0,8.0
1.0,67.0,49.0,148.0
1.0,59.0,37.0,14.0
1.0,69.0,71.0,140.0
1.0,60.0,72.0,0.0
1.0,43.0,38.0,0.0
1.0,31.0,59.0,2.0
1.0,62.0,68.0,4.0
1.0,71.0,67.0,4.0
1.0,61.0,79.0,70.0
1.0,70.0,83.0,6.0
1.0,35.0,68.0,78.0
1.0,47.0,57.0,6.0
1.0,71.0,82.0,2.0
1.0,62.0,80.0,0.0
1.0,61.0,81.0,76.0
1.0,70.0,91.0,2.0
1.0,50.0,83.0,74.0
1.0,62.0,89.0,2.0
1.0,71.0,84.0,2.0
1.0,38.0,79.0,0.0
1.0,70.0,94.0,44.0
1.0,61.0,79.0,6.0
1.0,71.0,82.0,70.0
1.0,62.0,78.0,4.0
1.0,55.0,87.0,2.0
1.0,43.0,83.0,2.0
1.0,53.0,81.0,76.0
1.0,41.0,81.0,2.0
1.0,72.0,95.0,10.0
1.0,64.0,85.0,4.0
1.0,52.0,69.0,2.0
1.0,40.0,66.0,2.0
1.0,68.0,80.0,28.0
1.0,59.0,46.0,16.0
1.0,69.0,82.0,50.0
1.0,60.0,62.0,8.0
1.0,51.0,50.0,34.0
1.0,39.0,40.0,10.0
1.0,71.0,45.0,6.0
1.0,62.0,48.0,2.0
1.0,50.0,36.0,12.0
1.0,38.0,31.0,16.0
1.0,66.0,45.0,20.0
1.0,57.0,37.0,0.0
1.0,67.0,42.0,48.0
1.0,59.0,36.0,6.0
1.0,43.0,39.0,4.0
1.0,55.0,26.0,56.0
1.0,74.0,54.0,132.0
1.0,79.0,75.0,176.0
1.0,79.0,55.0,86.0
1.0,74.0,48.0,22.0
1.0,59.0,20.0,18.0
1.0,62.0,20.0,12.0
1.0,74.0,18.0,116.0
1.0,78.0,70.0,146.0
1.0,57.0,40.0,2.0
1.0,72.0,46.0,2.0
1.0,62.0,25.0,10.0
1.0,79.0,88.0,116.0
1.0,55.0,53.0,18.0
1.0,71.0,43.0,4.0
1.0,62.0,40.0,4.0
1.0,81.0,83.0,172.0
1.0,69.0,58.0,6.0
1.0,54.0,54.0,0.0
1.0,62.0,42.0,10.0
1.0,50.0,53.0,20.0
1.0,54.0,36.0,224.0
1.0,79.0,68.0,0.0
1.0,78.0,59.0,48.0
1.0,76.0,71.0,74.0
1.0,74.0,68.0,40.0
1.0,72.0,89.0,0.0
1.0,69.0,60.0,10.0
1.0,55.0,31.0,32.0
1.0,71.0,52.0,10.0
1.0,67.0,40.0,4.0
1.0,76.0,54.0,6.0
1.0,72.0,47.0,4.0
1.0,48.0,29.0,12.0
1.0,72.0,35.0,30.0
1.0,69.0,10.0,16.0
1.0,71.0,36.0,18.0
1.0,67.0,28.0,12.0
1.0,50.0,34.0,6.0
1.0,66.0,32.0,34.0
1.0,69.0,34.0,0.0
1.0,67.0,42.0,208.0
1.0,59.0,19.0,20.0
1.0,69.0,48.0,66.0
1.0,60.0,44.0,4.0
1.0,62.0,60.0,14.0
1.0,31.0,63.0,10.0
1.0,71.0,35.0,2.0
1.0,43.0,33.0,8.0
1.0,70.0,65.0,0.0
1.0,61.0,55.0,4.0
1.0,47.0,52.0,24.0
1.0,62.0,73.0,6.0
1.0,71.0,64.0,4.0
1.0,35.0,36.0,4.0
1.0,61.0,62.0,106.0
1.0,70.0,78.0,4.0
1.0,38.0,66.0,8.0
1.0,50.0,68.0,2.0
1.0,71.0,73.0,4.0
1.0,62.0,72.0,4.0
1.0,70.0,80.0,64.0
1.0,61.0,61.0,4.0
1.0,55.0,74.0,16.0
1.0,43.0,73.0,2.0
1.0,71.0,77.0,0.0
1.0,62.0,66.0,12.0
1.0,53.0,84.0,84.0
1.0,41.0,82.0,2.0
1.0,72.0,98.0,144.0
1.0,64.0,83.0,8.0
1.0,40.0,56.0,4.0
1.0,52.0,52.0,8.0
1.0,68.0,79.0,10.0
1.0,59.0,54.0,10.0
1.0,69.0,83.0,78.0
1.0,60.0,66.0,2.0
1.0,51.0,58.0,38.0
1.0,39.0,49.0,4.0
1.0,71.0,44.0,24.0
1.0,62.0,48.0,0.0
1.0,50.0,42.0,26.0
1.0,38.0,32.0,2.0
1.0,66.0,50.0,30.0
1.0,57.0,38.0,10.0
1.0,67.0,44.0,70.0
1.0,59.0,37.0,10.0
1.0,43.0,28.0,0.0
1.0,55.0,22.0,20.0
1.0,74.0,44.0,476.0
1.0,73.0,50.0,218.0
1.0,74.0,67.0,44.0
1.0,71.0,52.0,10.0
1.0,43.0,34.0,12.0
1.0,74.0,48.0,8.0
1.0,67.0,47.0,38.0
1.0,50.0,27.0,14.0
1.0,71.0,24.0,26.0
1.0,62.0,36.0,42.0
1.0,55.0,23.0,22.0
1.0,71.0,36.0,16.0
1.0,69.0,55.0,12.0
1.0,48.0,30.0,6.0
1.0,72.0,59.0,198.0
1.0,66.0,45.0,18.0
1.0,50.0,31.0,14.0
1.0,69.0,41.0,2.0
1.0,62.0,41.0,12.0
1.0,54.0,17.0,16.0
1.0,66.0,48.0,178.0
1.0,67.0,52.0,20.0
1.0,47.0,30.0,2.0
1.0,66.0,58.0,184.0
1.0,67.0,63.0,6.0
1.0,50.0,26.0,6.0
1.0,69.0,78.0,2.0
1.0,71.0,64.0,60.0
1.0,55.0,33.0,0.0
1.0,73.0,67.0,166.0
1.0,54.0,36.0,26.0
1.0,74.0,63.0,0.0
1.0,73.0,62.0,180.0
1.0,74.0,50.0,14.0
1.0,57.0,34.0,18.0
1.0,76.0,47.0,14.0
1.0,74.0,41.0,8.0
1.0,62.0,26.0,18.0
1.0,72.0,51.0,174.0
1.0,71.0,38.0,0.0
1.0,55.0,25.0,26.0
1.0,70.0,53.0,166.0
1.0,71.0,39.0,0.0
1.0,59.0,24.0,22.0
1.0,72.0,55.0,16.0
1.0,71.0,48.0,8.0
1.0,51.0,39.0,12.0
1.0,69.0,55.0,0.0
1.0,67.0,55.0,4.0
1.0,52.0,54.0,16.0
1.0,71.0,53.0,22.0
1.0,69.0,70.0,52.0
1.0,49.0,50.0,0.0
1.0,67.0,65.0,188.0
1.0,66.0,62.0,6.0
1.0,50.0,54.0,6.0
1.0,69.0,61.0,2.0
1.0,43.0,41.0,0.0
1.0,64.0,60.0,6.0
1.0,66.0,54.0,6.0
1.0,67.0,53.0,14.0
1.0,64.0,45.0,164.0
1.0,61.0,44.0,184.0
1.0,45.0,40.0,22.0
1.0,57.0,49.0,56.0
1.0,62.0,49.0,22.0
1.0,50.0,32.0,22.0
1.0,74.0,36.0,188.0
1.0,73.0,41.0,6.0
1.0,74.0,47.0,210.0
1.0,43.0,39.0,32.0
1.0,71.0,37.0,8.0
1.0,74.0,49.0,10.0
1.0,67.0,45.0,214.0
1.0,50.0,45.0,0.0
1.0,71.0,41.0,152.0
1.0,62.0,41.0,4.0
1.0,55.0,39.0,8.0
1.0,71.0,45.0,4.0
1.0,69.0,49.0,44.0
1.0,48.0,36.0,12.0
1.0,72.0,48.0,8.0
1.0,66.0,46.0,206.0
1.0,50.0,32.0,32.0
1.0,69.0,44.0,0.0
1.0,54.0,33.0,18.0
1.0,62.0,40.0,0.0
1.0,66.0,41.0,0.0
1.0,67.0,57.0,196.0
1.0,47.0,28.0,18.0
1.0,66.0,52.0,48.0
1.0,67.0,63.0,166.0
1.0,50.0,28.0,20.0
1.0,69.0,73.0,74.0
1.0,71.0,66.0,180.0
1.0,55.0,38.0,6.0
1.0,73.0,70.0,52.0
1.0,74.0,72.0,156.0
1.0,54.0,25.0,4.0
1.0,73.0,69.0,10.0
1.0,74.0,56.0,186.0
1.0,57.0,37.0,14.0
1.0,76.0,49.0,14.0
1.0,62.0,30.0,202.0
1.0,74.0,32.0,4.0
1.0,72.0,44.0,4.0
1.0,71.0,30.0,2.0
1.0,55.0,25.0,26.0
1.0,70.0,50.0,10.0
1.0,71.0,43.0,206.0
1.0,59.0,27.0,6.0
1.0,72.0,58.0,0.0
1.0,71.0,50.0,184.0
1.0,51.0,44.0,10.0
1.0,69.0,56.0,102.0
1.0,67.0,41.0,10.0
1.0,52.0,48.0,6.0
1.0,71.0,35.0,100.0
1.0,69.0,37.0,192.0
1.0,49.0,36.0,6.0
1.0,67.0,43.0,108.0
1.0,66.0,40.0,182.0
1.0,50.0,46.0,4.0
1.0,69.0,51.0,4.0
1.0,43.0,39.0,18.0
1.0,64.0,42.0,18.0
1.0,66.0,46.0,16.0
1.0,67.0,47.0,10.0
1.0,64.0,48.0,186.0
1.0,61.0,40.0,16.0
1.0,45.0,42.0,22.0
1.0,57.0,40.0,96.0
1.0,50.0,37.0,50.0
1.0,62.0,42.0,0.0
1.0,74.0,54.0,378.0
1.0,73.0,71.0,154.0
1.0,74.0,95.0,54.0
1.0,76.0,91.0,140.0
1.0,50.0,62.0,20.0
1.0,72.0,76.0,164.0
1.0,69.0,69.0,146.0
1.0,62.0,72.0,154.0
1.0,71.0,69.0,2.0
1.0,61.0,80.0,132.0
1.0,69.0,80.0,6.0
1.0,71.0,71.0,90.0
1.0,62.0,81.0,10.0
1.0,72.0,84.0,140.0
1.0,64.0,68.0,8.0
1.0,69.0,76.0,34.0
1.0,60.0,64.0,28.0
1.0,66.0,65.0,28.0
1.0,57.0,51.0,18.0
1.0,74.0,87.0,98.0
1.0,59.0,61.0,6.0
1.0,73.0,87.0,102.0
1.0,58.0,88.0,0.0
1.0,59.0,75.0,10.0
1.0,74.0,94.0,10.0
1.0,76.0,92.0,4.0
1.0,60.0,71.0,8.0
1.0,72.0,87.0,150.0
1.0,57.0,67.0,12.0
1.0,69.0,73.0,2.0
1.0,54.0,50.0,6.0
1.0,71.0,56.0,14.0
1.0,55.0,54.0,10.0
1.0,69.0,58.0,186.0
1.0,54.0,45.0,2.0
1.0,71.0,47.0,18.0
1.0,55.0,42.0,2.0
1.0,72.0,59.0,4.0
1.0,57.0,38.0,6.0
1.0,54.0,35.0,0.0
1.0,69.0,45.0,0.0
1.0,66.0,43.0,34.0
1.0,50.0,37.0,16.0
1.0,74.0,78.0,86.0
1.0,50.0,79.0,2.0
1.0,73.0,76.0,24.0
1.0,52.0,74.0,2.0
1.0,54.0,66.0,2.0
1.0,74.0,87.0,2.0
1.0,71.0,73.0,10.0
1.0,55.0,62.0,10.0
1.0,74.0,77.0,0.0
1.0,67.0,81.0,0.0
1.0,59.0,51.0,10.0
1.0,71.0,66.0,72.0
1.0,62.0,67.0,56.0
1.0,47.0,35.0,30.0
1.0,79.0,89.0,58.0
1.0,76.0,71.0,180.0
1.0,48.0,70.0,6.0
1.0,79.0,77.0,46.0
1.0,72.0,85.0,14.0
1.0,52.0,52.0,12.0
1.0,76.0,85.0,4.0
1.0,69.0,66.0,14.0
1.0,57.0,58.0,18.0
1.0,72.0,76.0,16.0
1.0,66.0,73.0,34.0
1.0,54.0,48.0,4.0
1.0,50.0,52.0,12.0
1.0,69.0,70.0,172.0
1.0,62.0,59.0,0.0
1.0,57.0,55.0,2.0
1.0,64.0,66.0,192.0
1.0,60.0,63.0,24.0
1.0,65.0,53.0,4.0
1.0,66.0,56.0,8.0
1.0,69.0,63.0,18.0
1.0,60.0,42.0,18.0
1.0,55.0,30.0,8.0
1.0,67.0,26.0,4.0
1.0,59.0,22.0,22.0
1.0,74.0,49.0,150.0
1.0,73.0,60.0,0.0
1.0,74.0,71.0,0.0
1.0,50.0,48.0,200.0
1.0,76.0,72.0,6.0
1.0,72.0,68.0,22.0
1.0,69.0,51.0,14.0
1.0,62.0,53.0,6.0
1.0,71.0,40.0,10.0
1.0,61.0,60.0,166.0
1.0,69.0,66.0,4.0
1.0,71.0,61.0,4.0
1.0,62.0,66.0,2.0
1.0,72.0,60.0,8.0
1.0,64.0,63.0,12.0
1.0,69.0,56.0,0.0
1.0,60.0,50.0,12.0
1.0,66.0,46.0,8.0
1.0,57.0,43.0,14.0
1.0,74.0,67.0,18.0
1.0,59.0,37.0,8.0
1.0,58.0,62.0,12.0
1.0,73.0,68.0,0.0
1.0,74.0,81.0,0.0
1.0,59.0,56.0,0.0
1.0,60.0,50.0,26.0
1.0,76.0,81.0,2.0
1.0,72.0,69.0,16.0
1.0,57.0,37.0,8.0
1.0,54.0,31.0,28.0
1.0,69.0,48.0,8.0
1.0,71.0,45.0,38.0
1.0,55.0,42.0,10.0
1.0,54.0,42.0,12.0
1.0,69.0,46.0,8.0
1.0,55.0,46.0,26.0
1.0,71.0,40.0,2.0
1.0,57.0,53.0,18.0
1.0,72.0,45.0,8.0
1.0,54.0,55.0,0.0
1.0,69.0,49.0,6.0
1.0,66.0,58.0,22.0
1.0,50.0,60.0,4.0
1.0,50.0,69.0,106.0
1.0,74.0,73.0,8.0
1.0,73.0,78.0,162.0
1.0,52.0,76.0,8.0
1.0,54.0,62.0,164.0
1.0,74.0,89.0,8.0
1.0,71.0,77.0,10.0
1.0,55.0,63.0,6.0
1.0,74.0,75.0,12.0
1.0,67.0,71.0,14.0
1.0,59.0,53.0,12.0
1.0,71.0,61.0,56.0
1.0,47.0,48.0,34.0
1.0,62.0,72.0,2.0
1.0,79.0,88.0,66.0
1.0,76.0,94.0,104.0
1.0,48.0,63.0,16.0
1.0,79.0,92.0,116.0
1.0,72.0,89.0,10.0
1.0,52.0,51.0,0.0
1.0,76.0,92.0,28.0
1.0,69.0,61.0,76.0
1.0,57.0,47.0,20.0
1.0,72.0,77.0,20.0
1.0,66.0,64.0,14.0
1.0,54.0,38.0,8.0
1.0,50.0,49.0,14.0
1.0,69.0,28.0,10.0
1.0,62.0,45.0,4.0
1.0,57.0,24.0,32.0
1.0,64.0,45.0,184.0
1.0,65.0,50.0,20.0
1.0,60.0,48.0,6.0
1.0,66.0,44.0,2.0
1.0,69.0,37.0,52.0
1.0,60.0,34.0,6.0
1.0,55.0,25.0,28.0
1.0,59.0,16.0,6.0
1.0,67.0,16.0,14.0
1.0,71.0,25.0,514.0
1.0,67.0,28.0,4.0
1.0,72.0,41.0,174.0
1.0,74.0,55.0,0.0
1.0,43.0,44.0,20.0
1.0,71.0,35.0,14.0
1.0,70.0,52.0,24.0
1.0,73.0,37.0,10.0
1.0,74.0,46.0,8.0
1.0,71.0,38.0,8.0
1.0,47.0,38.0,8.0
1.0,70.0,40.0,22.0
1.0,73.0,31.0,2.0
1.0,50.0,36.0,26.0
1.0,74.0,29.0,8.0
1.0,71.0,36.0,2.0
1.0,73.0,29.0,24.0
1.0,70.0,38.0,2.0
1.0,74.0,50.0,14.0
1.0,55.0,34.0,2.0
1.0,71.0,28.0,8.0
1.0,43.0,38.0,240.0
1.0,76.0,54.0,2.0
1.0,72.0,49.0,2.0
1.0,68.0,42.0,30.0
1.0,71.0,42.0,4.0
1.0,72.0,48.0,22.0
1.0,69.0,39.0,4.0
1.0,50.0,33.0,14.0
1.0,38.0,43.0,40.0
1.0,74.0,64.0,0.0
1.0,71.0,40.0,8.0
1.0,69.0,48.0,40.0
1.0,66.0,23.0,10.0
1.0,71.0,31.0,12.0
1.0,67.0,43.0,0.0
1.0,43.0,24.0,10.0
1.0,31.0,40.0,96.0
1.0,67.0,58.0,66.0
1.0,59.0,34.0,8.0
1.0,62.0,64.0,114.0
1.0,69.0,64.0,14.0
1.0,71.0,69.0,80.0
1.0,67.0,69.0,12.0
1.0,43.0,49.0,8.0
1.0,70.0,79.0,22.0
1.0,66.0,55.0,10.0
1.0,67.0,73.0,20.0
1.0,47.0,59.0,8.0
1.0,71.0,50.0,6.0
1.0,70.0,87.0,18.0
1.0,66.0,61.0,14.0
1.0,51.0,71.0,20.0
1.0,71.0,70.0,6.0
1.0,67.0,68.0,0.0
1.0,70.0,71.0,0.0
1.0,66.0,54.0,6.0
1.0,67.0,60.0,36.0
1.0,71.0,66.0,0.0
1.0,52.0,62.0,2.0
1.0,54.0,50.0,68.0
1.0,66.0,43.0,30.0
1.0,55.0,52.0,2.0
1.0,69.0,45.0,6.0
1.0,67.0,80.0,0.0
1.0,64.0,53.0,4.0
1.0,64.0,63.0,14.0
1.0,67.0,82.0,0.0
1.0,57.0,44.0,6.0
1.0,66.0,66.0,4.0
1.0,62.0,55.0,4.0
1.0,66.0,57.0,18.0
1.0,62.0,45.0,2.0
1.0,66.0,36.0,52.0
1.0,69.0,55.0,8.0
1.0,67.0,50.0,4.0
1.0,64.0,36.0,4.0
1.0,45.0,45.0,4.0
1.0,64.0,57.0,30.0
1.0,61.0,29.0,8.0
1.0,62.0,43.0,170.0
1.0,50.0,41.0,18.0
1.0,62.0,41.0,168.0
1.0,74.0,58.0,140.0
1.0,79.0,77.0,242.0
1.0,79.0,77.0,124.0
1.0,74.0,28.0,32.0
1.0,62.0,24.0,4.0
1.0,59.0,20.0,6.0
1.0,78.0,76.0,178.0
1.0,72.0,51.0,20.0
1.0,57.0,41.0,6.0
1.0,62.0,35.0,0.0
1.0,79.0,95.0,158.0
1.0,71.0,52.0,6.0
1.0,62.0,43.0,14.0
1.0,55.0,59.0,2.0
1.0,81.0,90.0,162.0
1.0,69.0,42.0,14.0
1.0,54.0,38.0,4.0
1.0,62.0,36.0,2.0
1.0,50.0,45.0,16.0
1.0,79.0,57.0,324.0
1.0,54.0,37.0,6.0
1.0,78.0,52.0,66.0
1.0,76.0,63.0,0.0
1.0,74.0,56.0,24.0
1.0,72.0,76.0,2.0
1.0,69.0,45.0,10.0
1.0,62.0,32.0,18.0
1.0,55.0,18.0,12.0
1.0,71.0,54.0,10.0
1.0,67.0,43.0,2.0
1.0,72.0,46.0,16.0
1.0,76.0,59.0,4.0
1.0,48.0,41.0,8.0
1.0,72.0,37.0,12.0
1.0,69.0,21.0,12.0
1.0,71.0,36.0,48.0
1.0,67.0,22.0,6.0
1.0,50.0,40.0,4.0
1.0,66.0,33.0,24.0
1.0,69.0,32.0,2.0
1.0,67.0,51.0,118.0
1.0,59.0,23.0,12.0
1.0,69.0,54.0,74.0
1.0,60.0,39.0,8.0
1.0,71.0,55.0,64.0
1.0,31.0,52.0,4.0
1.0,62.0,62.0,0.0
1.0,43.0,47.0,6.0
1.0,61.0,55.0,40.0
1.0,70.0,65.0,2.0
1.0,35.0,46.0,72.0
1.0,71.0,72.0,4.0
1.0,47.0,49.0,0.0
1.0,62.0,67.0,0.0
1.0,61.0,64.0,40.0
1.0,70.0,77.0,2.0
1.0,71.0,76.0,84.0
1.0,62.0,66.0,0.0
1.0,50.0,64.0,2.0
1.0,38.0,63.0,2.0
1.0,70.0,78.0,4.0
1.0,61.0,61.0,8.0
1.0,71.0,69.0,84.0
1.0,62.0,70.0,6.0
1.0,43.0,76.0,4.0
1.0,55.0,73.0,2.0
1.0,53.0,84.0,96.0
1.0,41.0,72.0,10.0
1.0,64.0,78.0,10.0
1.0,72.0,93.0,0.0
1.0,52.0,67.0,4.0
1.0,40.0,40.0,14.0
1.0,68.0,71.0,148.0
1.0,59.0,60.0,4.0
1.0,69.0,78.0,24.0
1.0,60.0,66.0,6.0
1.0,51.0,46.0,12.0
1.0,39.0,33.0,2.0
1.0,71.0,45.0,4.0
1.0,62.0,35.0,12.0
1.0,50.0,33.0,8.0
1.0,38.0,24.0,12.0
1.0,66.0,52.0,206.0
1.0,57.0,29.0,18.0
1.0,67.0,40.0,16.0
1.0,43.0,42.0,6.0
1.0,59.0,30.0,14.0
1.0,55.0,24.0,528.0
0.0,0.0,0.0,0.0
0.0,0.0,0.0,0.0
0.0,0.0,0.0,0.0
0.0,0.0,0.0,0.0
0.0,0.0,0.0,0.0
0.0,0.0,0.0,0.0
0.0,0.0,0.0,0.0
0.0,0.0,0.0,0.0
0.0,0.0,0.0,0.0
0.0,0.0,0.0,0.0
0.0,0.0,0.0,0.0
0.0,0.0,0.0,0.0
0.0,0.0,0.0,0.0
0.0,0.0,0.0,0.0
0.0,0.0,0.0,0.0
0.0,0.0,0.0,0.0
0.0,0.0,0.0,0.0
0.0,0.0,0.0,0.0
0.0,0.0,0.0,0.0
0.0,0.0,0.0,0.0
0.0,0.0,0.0,0.0
0.0,0.0,0.0,0.0
0.0,0.0,0.0,0.0
0.0,0.0,0.0,0.0
0.0,0.0,0.0,0.0
0.0,0.0,0.0,0.0
0.0,0.0,0.0,0.0
0.0,0.0,0.0,0.0
0.0,0.0,0.0,0.0
0.0,0.0,0.0,0.0
0.0,0.0,0.0,0.0
0.0,0.0,0.0,0.0
0.0,0.0,0.0,0.0
0.0,0.0,0.0,0.0
0.0,0.0,0.0,0.0
0.0,0.0,0.0,0.0
0.0,0.0,0.0,0.0
0.0,0.0,0.0,0.0
0.0,0.0,0.0,0.0
0.0,0.0,0.0,0.0
0.0,0.0,0.0,0.0
0.0,0.0,0.0,0.0
0.0,0.0,0.0,0.0
0.0,0.0,0.0,0.0
0.0,0.0,0.0,0.0
0.0,0.0,0.0,0.0
0.0,0.0,0.0,0.0
0.0,0.0,0.0,0.0
0.0,0.0,0.0,0.0
0.0,0.0,0.0,0.0
0.0,0.0,0.0,0.0
0.0,0.0,0.0,0.0
0.0,0.0,0.0,0.0
0.0,0.0,0.0,0.0
0.0,0.0,0.0,0.0
0.0,0.0,0.0,0.0
0.0,0.0,0.0,0.0
0.0,0.0,0.0,0.0
0.0,0.0,0.0,0.0
0.0,0.0,0.0,0.0
0.0,0.0,0.0,0.0
0.0,0.0,0.0,0.0
0.0,0.0,0.0,0.0
0.0,0.0,0.0,0.0
0.0,0.0,0.0,0.0
0.0,0.0,0.0,0.0
0.0,0.0,0.0,0.0
0.0,0.0,0.0,0.0
0.0,0.0,0.0,0.0
0.0,0.0,0.0,0.0
0.0,0.0,0.0,0.0
0.0,0.0,0.0,0.0
0.0,0.0,0.0,0.0
0.0,0.0,0.0,0.0
0.0,0.0,0.0,0.0
0.0,0.0,0.0,0.0
0.0,0.0,0.0,0.0
0.0,0.0,0.0,0.0
0.0,0.0,0.0,0.0
0.0,0.0,0.0,0.0
0.0,0.0,0.0,0.0
0.0,0.0,0.0,0.0
0.0,0.0,0.0,0.0
0.0,0.0,0.0,0.0
0.0,0.0,0.0,0.0
0.0,0.0,0.0,0.0
0.0,0.0,0.0,0.0
0.0,0.0,0.0,0.0
0.0,0.0,0.0,0.0
0.0,0.0,0.0,0.0
0.0,0.0,0.0,0.0
0.0,0.0,0.0,0.0
0.0,0.0,0.0,0.0
0.0,0.0,0.0,0.0
0.0,0.0,0.0,0.0
0.0,0.0,0.0,0.0
0.0,0.0,0.0,0.0
0.0,0.0,0.0,0.0
0.0,0.0,0.0,0.0
0.0,0.0,0.0,0.0
0.0,0.0,0.0,0.0
0.0,0.0,0.0,0.0
0.0,0.0,0.0,0.0
0.0,0.0,0.0,0.0
0.0,0.0,0.0,0.0
0.0,0.0,0.0,0.0
0.0,0.0,0.0,0.0
0.0,0.0,0.0,0.0
0.0,0.0,0.0,0.0
0.0,0.0,0.0,0.0
0.0,0.0,0.0,0.0
0.0,0.0,0.0,0.0
0.0,0.0,0.0,0.0
0.0,0.0,0.0,0.0
0.0,0.0,0.0,0.0
0.0,0.0,0.0,0.0
0.0,0.0,0.0,0.0
0.0,0.0,0.0,0.0
0.0,0.0,0.0,0.0
0.0,0.0,0.0,0.0
0.0,0.0,0.0,0.0
0.0,0.0,0.0,0.0
0.0,0.0,0.0,0.0
0.0,0.0,0.0,0.0
0.0,0.0,0.0,0.0
0.0,0.0,0.0,0.0
0.0,0.0,0.0,0.0
0.0,0.0,0.0,0.0
0.0,0.0,0.0,0.0
0.0,0.0,0.0,0.0
0.0,0.0,0.0,0.0
0.0,0.0,0.0,0.0
0.0,0.0,0.0,0.0
0.0,0.0,0.0,0.0
0.0,0.0,0.0,0.0
0.0,0.0,0.0,0.0
0.0,0.0,0.0,0.0
0.0,0.0,0.0,0.0
0.0,0.0,0.0,0.0
0.0,0.0,0.0,0.0
0.0,0.0,0.0,0.0
0.0,0.0,0.0,0.0
0.0,0.0,0.0,0.0
0.0,0.0,0.0,0.0
0.0,0.0,0.0,0.0
0.0,0.0,0.0,0.0
0.0,0.0,0.0,0.0
0.0,0.0,0.0,0.0
0.0,0.0,0.0,0.0
0.0,0.0,0.0,0.0
0.0,0.0,0.0,0.0
0.0,0.0,0.0,0.0
0.0,0.0,0.0,0.0
0.0,0.0,0.0,0.0
0.0,0.0,0.0,0.0
0.0,0.0,0.0,0.0
0.0,0.0,0.0,0.0
0.0,0.0,0.0,0.0
0.0,0.0,0.0,0.0
0.0,0.0,0.0,0.0
0.0,0.0,0.0,0.0
0.0,0.0,0.0,0.0
0.0,0.0,0.0,0.0
0.0,0.0,0.0,0.0
0.0,0.0,0.0,0.0
0.0,0.0,0.0,0.0
0.0,0.0,0.0,0.0
0.0,0.0,0.0,0.0
0.0,0.0,0.0,0.0
0.0,0.0,0.0,0.0
0.0,0.0,0.0,0.0
0.0,0.0,0.0,0.0
0.0,0.0,0.0,0.0
0.0,0.0,0.0,0.0
0.0,0.0,0.0,0.0
0.0,0.0,0.0,0.0
0.0,0.0,0.0,0.0
0.0,0.0,0.0,0.0
0.0,0.0,0.0,0.0
0.0,0.0,0.0,0.0
0.0,0.0,0.0,0.0
0.0,0.0,0.0,0.0
0.0,0.0,0.0,0.0
0.0,0.0,0.0,0.0
0.0,0.0,0.0,0.0
0.0,0.0,0.0,0.0
0.0,0.0,0.0,0.0
0.0,0.0,0.0,0.0
