track,note,velocity,time
1,51,64,0
1,55,64,0
1,60,64,0
1,55,42,0
1,60,42,0
1,55,42,0
1,59,42,0
1,62,42,0
1,55,42,0
1,60,42,0
1,63,42,0
1,57,42,0
1,60,42,0
1,63,42,0
1,59,42,0
1,62,42,0
1,59,80,240
1,62,80,0
1,65,80,0
1,59,42,0
1,62,42,0
1,65,42,0
1,59,42,0
1,62,42,0
1,67,42,0
1,59,42,0
1,62,42,0
1,68,42,0
1,59,42,0
1,62,42,0
1,68,42,0
1,60,42,0
1,63,42,0
1,67,42,0
1,66,80,240
1,69,80,0
1,72,80,0
1,66,44,0
1,69,44,0
1,72,44,0
1,66,44,0
1,69,44,0
1,74,44,0
1,66,45,0
1,69,44,0
1,75,44,0
1,66,60,0
1,69,60,0
1,75,60,0
1,67,44,0
1,74,44,0
1,66,44,60
1,69,44,0
1,72,44,0
1,66,44,0
1,69,44,0
1,74,44,0
1,66,44,0
1,69,44,0
1,75,44,0
1,66,64,0
1,69,64,0
1,75,64,0
1,67,40,0
1,74,40,0
1,67,50,0
1,72,50,0
1,76,50,0
1,68,64,0
1,72,64,0
1,77,64,0
1,80,76,0
1,79,64,0
1,80,64,0
1,82,64,0
1,82,0,26
1,80,64,4
1,80,0,26
1,79,64,4
1,79,0,26
1,77,64,4
1,77,0,26
1,75,64,4
1,75,0,26
1,74,64,4
1,74,0,26
1,72,64,4
1,72,0,26
1,70,64,4
1,70,0,26
1,68,64,4
1,67,64,13
1,68,0,0
1,67,0,13
1,65,64,0
1,63,64,13
1,65,0,0
1,63,0,13
1,62,64,1
1,62,0,13
1,65,64,0
1,65,0,13
1,68,64,0
1,68,0,13
1,65,64,1
1,65,0,13
1,62,64,0
1,62,0,13
1,63,80,1
1,63,42,0
1,75,42,0
1,63,42,0
1,75,42,0
1,65,42,0
1,77,42,0
1,67,42,0
1,79,42,0
1,67,42,0
1,79,42,0
1,65,42,0
1,77,42,0
1,65,90,60
1,53,90,0
1,56,90,0
1,59,90,0
1,65,90,0
1,53,90,0
1,56,90,0
1,59,90,0
1,65,90,0
1,53,90,0
1,56,90,0
1,60,90,0
1,65,90,0
1,53,90,0
1,56,90,0
1,60,90,0
1,65,90,0
1,53,90,0
1,56,90,0
1,62,90,0
1,65,90,0
1,65,44,0
1,77,44,0
1,65,44,0
1,77,44,0
1,67,44,0
1,79,44,0
1,68,44,0
1,80,44,0
1,68,44,0
1,80,44,0
1,67,44,0
1,79,44,0
1,55,90,60
1,61,90,0
1,64,90,0
1,67,90,0
1,57,90,0
1,61,90,0
1,64,90,0
1,69,90,0
1,57,90,0
1,61,90,0
1,64,90,0
1,69,90,0
1,58,90,0
1,61,90,0
1,64,90,0
1,70,90,0
1,58,90,0
1,61,90,0
1,64,90,0
1,70,90,0
1,57,90,0
1,62,90,0
1,66,90,0
1,69,90,0
1,69,42,0
1,81,42,0
1,69,42,0
1,81,42,0
1,71,42,0
1,83,42,0
1,72,42,0
1,84,42,0
1,72,42,0
1,84,42,0
1,71,42,0
1,83,42,0
1,71,42,360
1,83,42,0
1,72,42,0
1,84,42,0
1,73,62,0
1,85,62,0
1,74,52,0
1,86,52,0
1,74,54,240
1,86,54,0
1,75,57,0
1,87,56,0
1,76,64,0
1,88,64,0
1,77,74,0
1,89,74,0
1,77,74,0
1,89,74,0
1,77,84,0
1,89,84,0
1,87,52,0
1,86,52,0
1,89,52,0
1,87,52,0
1,86,52,0
1,84,52,0
1,83,52,0
1,83,52,0
1,67,52,0
1,74,52,0
1,77,52,0
1,83,52,0
1,67,52,0
1,74,52,0
1,77,52,0
1,83,52,0
1,68,52,0
1,72,52,0
1,75,52,0
1,84,52,0
1,84,64,720
1,83,64,0
1,84,64,0
1,86,64,0
1,84,64,0
1,82,64,0
1,80,64,0
1,79,64,0
1,82,64,0
1,80,64,1
1,80,64,0
1,80,64,0
1,80,64,0
1,79,64,0
1,87,64,0
1,86,64,0
1,85,64,0
1,84,64,0
1,83,64,0
1,82,64,0
1,81,64,18
1,80,64,2
1,79,64,0
1,78,64,20
1,77,64,0
1,76,64,0
1,75,64,0
1,74,64,0
1,73,64,0
1,72,64,0
1,71,64,0
1,70,64,0
1,69,64,0
1,68,64,0
1,67,64,0
1,66,64,0
1,65,64,0
1,64,64,0
1,63,64,0
1,62,64,0
1,61,64,0
1,60,64,0
1,59,64,0
1,68,64,0
1,59,64,163
1,60,64,0
1,58,64,0
1,64,64,0
1,56,64,96
1,65,64,0
1,64,64,96
1,67,64,0
1,65,64,96
1,68,64,0
1,62,64,96
1,71,64,0
1,63,64,96
1,72,64,0
1,64,92,96
1,72,92,0
1,70,64,0
1,76,64,0
1,68,64,96
1,77,64,0
1,76,64,96
1,79,64,0
1,77,64,96
1,80,64,0
1,74,64,96
1,83,64,0
1,72,64,96
1,75,64,0
1,79,64,0
1,84,64,0
1,67,66,192
1,71,66,0
1,77,66,0
1,79,66,0
1,67,69,192
1,72,69,0
1,75,69,0
1,65,72,192
1,68,72,0
1,74,72,0
1,63,75,192
1,67,75,0
1,72,75,0
1,66,78,0
1,69,81,0
1,62,84,0
1,65,84,0
1,71,84,0
1,60,64,0
1,63,64,0
1,72,64,0
1,60,64,96
1,58,64,0
1,64,64,0
1,56,64,96
1,65,64,0
1,64,64,96
1,67,64,0
1,65,64,96
1,68,64,0
1,62,64,96
1,71,64,0
1,63,64,96
1,72,64,0
1,64,86,96
1,72,86,0
1,70,64,0
1,76,64,0
1,68,64,96
1,77,64,0
1,76,64,96
1,79,64,0
1,77,64,96
1,80,64,0
1,74,64,96
1,83,64,0
1,72,64,96
1,75,64,0
1,79,64,0
1,84,64,0
1,67,67,192
1,71,67,0
1,77,67,0
1,79,67,0
1,67,70,192
1,72,70,0
1,75,70,0
1,65,74,192
1,68,74,0
1,74,74,0
1,63,77,192
1,67,77,0
1,72,77,0
1,66,80,0
1,69,84,0
1,62,64,0
1,67,64,0
1,71,64,0
1,67,100,480
1,79,100,0
1,67,102,480
1,79,102,0
1,77,64,0
1,74,64,0
1,71,64,0
1,67,64,0
1,65,64,0
1,62,64,0
1,59,64,0
1,60,64,0
1,63,64,0
1,60,64,0
1,55,64,0
1,54,64,0
1,60,64,0
1,56,64,0
1,54,64,0
1,55,64,0
1,67,102,480
1,79,102,0
1,67,104,480
1,79,104,0
1,77,64,0
1,74,64,0
1,71,64,0
1,67,64,0
1,65,64,0
1,62,64,0
1,59,64,0
1,60,64,0
1,63,64,0
1,60,64,0
1,55,64,0
1,54,64,0
1,60,64,0
1,56,64,0
1,54,64,0
1,55,54,0
1,66,57,96
1,67,61,96
1,66,65,96
1,72,65,0
1,67,69,96
1,71,69,0
1,72,72,96
1,78,72,0
1,72,76,96
1,79,76,0
1,78,80,96
1,84,80,0
1,79,84,96
1,83,84,0
1,58,92,1536
1,61,92,0
1,63,92,0
1,60,54,0
1,63,54,0
1,67,27,96
1,73,57,0
1,68,27,96
1,72,61,0
1,73,49,96
1,79,65,0
1,72,69,96
1,80,69,0
1,79,72,96
1,85,72,0
1,80,76,96
1,84,76,0
1,79,80,96
1,85,80,0
1,80,84,96
1,84,84,0
1,60,98,1536
1,63,98,0
1,66,98,0
1,62,54,0
1,65,54,0
1,69,57,0
1,75,57,0
1,70,61,96
1,74,61,0
1,75,65,96
1,81,65,0
1,74,69,96
1,82,69,0
1,81,72,96
1,87,72,0
1,82,76,96
1,86,76,0
1,81,80,96
1,87,80,0
1,82,84,96
1,86,84,0
1,75,88,576
1,81,88,0
1,74,64,0
1,82,64,0
1,69,96,480
1,75,96,0
1,70,64,0
1,74,64,0
1,63,88,480
1,69,88,0
1,62,64,0
1,70,64,0
1,57,90,480
1,63,90,0
1,58,64,0
1,62,64,0
1,57,52,0
1,58,52,0
1,57,52,0
1,58,52,0
1,57,52,0
1,58,52,0
1,57,52,0
1,46,64,480
1,51,64,96
1,53,64,96
1,54,64,96
1,70,64,96
1,75,64,96
1,77,64,96
1,70,64,36
1,78,94,0
1,75,64,0
1,70,64,420
1,78,94,0
1,75,64,0
1,74,64,0
1,46,64,0
1,53,64,96
1,54,64,96
1,56,64,96
1,70,64,96
1,80,64,0
1,78,64,0
1,78,64,0
1,80,64,0
1,78,64,0
1,77,64,1
1,77,64,0
1,78,64,0
1,77,64,0
1,75,64,1
1,75,64,0
1,77,64,0
1,75,64,0
1,74,64,1
1,72,64,0
1,74,64,96
1,75,64,96
1,46,64,96
1,51,64,96
1,53,64,96
1,54,64,96
1,70,64,96
1,75,64,96
1,77,64,96
1,70,64,36
1,78,94,0
1,75,64,0
1,70,64,420
1,78,94,0
1,75,64,0
1,72,64,0
1,44,64,0
1,51,64,96
1,53,64,96
1,54,64,96
1,68,64,480
1,78,64,0
1,77,64,0
1,77,64,0
1,79,64,0
1,77,64,0
1,75,64,1
1,75,64,0
1,77,64,0
1,75,64,0
1,73,64,1
1,73,64,0
1,75,64,0
1,73,64,0
1,72,64,1
1,70,64,0
1,72,64,96
1,73,64,96
1,44,64,96
1,49,64,96
1,51,64,96
1,53,64,96
1,68,64,96
1,73,64,96
1,75,64,96
1,68,64,36
1,77,92,0
1,73,64,0
1,68,64,420
1,77,98,0
1,73,64,0
1,72,64,0
1,44,64,0
1,51,64,96
1,53,64,96
1,54,64,96
1,68,64,96
1,78,64,0
1,77,64,0
1,77,64,0
1,79,64,0
1,77,64,0
1,75,64,1
1,75,64,0
1,77,64,0
1,75,64,0
1,73,64,1
1,73,64,0
1,75,64,0
1,73,64,0
1,72,64,1
1,70,64,0
1,72,64,96
1,73,64,96
1,49,70,0
1,56,70,0
1,47,70,0
1,46,70,96
1,70,64,96
1,80,64,0
1,78,64,0
1,78,64,0
1,80,64,0
1,78,64,0
1,77,64,1
1,77,64,0
1,78,64,0
1,77,64,0
1,75,64,1
1,75,64,0
1,77,64,0
1,75,64,0
1,74,64,1
1,72,64,0
1,74,64,96
1,75,64,96
1,51,84,0
1,58,84,0
1,49,84,0
1,48,84,0
1,72,64,96
1,82,64,96
1,80,64,0
1,80,64,0
1,82,64,0
1,80,64,0
1,79,64,1
1,79,64,0
1,80,64,0
1,79,64,0
1,77,64,1
1,77,64,0
1,79,64,0
1,77,64,0
1,76,64,1
1,74,64,0
1,76,64,0
1,79,64,0
1,80,64,0
1,79,64,0
1,77,64,1
1,77,64,0
1,79,64,0
1,77,64,0
1,75,64,1
1,75,64,0
1,77,64,0
1,75,64,0
1,74,64,1
1,72,64,0
1,74,64,0
1,77,64,0
1,79,64,0
1,77,64,0
1,75,63,1
1,75,62,0
1,77,61,0
1,75,61,0
1,74,60,1
1,74,59,0
1,75,59,0
1,74,58,0
1,72,58,1
1,72,56,0
1,74,56,0
1,72,56,0
1,71,55,1
1,72,54,0
1,74,53,0
1,72,53,0
1,70,52,1
1,70,51,0
1,70,50,0
1,72,48,0
1,74,48,0
1,72,48,0
1,70,47,1
1,70,46,0
1,70,44,0
1,63,44,240
1,67,44,0
1,63,45,0
1,75,46,0
1,63,46,240
1,67,47,0
1,63,48,0
1,67,48,0
1,63,49,0
1,67,50,0
1,63,51,0
1,75,51,0
1,63,52,240
1,67,53,0
1,63,53,0
1,63,55,240
1,67,55,0
1,63,56,0
1,75,57,0
1,63,58,240
1,67,58,0
1,63,59,0
1,67,60,0
1,63,60,0
1,67,61,0
1,63,62,0
1,75,63,0
1,63,63,240
1,67,64,0
1,63,65,0
1,75,65,0
1,63,66,0
1,68,67,0
1,63,67,0
1,76,83,0
1,64,69,48
1,72,70,0
1,64,70,0
1,77,86,0
1,65,72,48
1,72,72,0
1,65,73,0
1,79,89,0
1,67,74,48
1,72,75,0
1,67,76,0
1,80,92,0
1,68,77,48
1,72,78,0
1,68,79,0
1,81,94,0
1,69,80,48
1,72,81,0
1,69,82,0
1,82,97,0
1,70,83,48
1,77,84,0
1,70,84,0
1,84,100,0
1,72,86,48
1,77,86,0
1,72,87,0
1,85,103,0
1,73,89,48
1,77,89,0
1,73,90,0
1,86,106,0
1,74,91,48
1,77,92,0
1,74,93,0
1,87,109,0
1,75,94,48
1,82,94,0
1,75,94,0
1,83,109,0
1,71,94,48
1,75,94,0
1,71,94,0
1,72,94,240
1,75,94,0
1,72,94,0
1,84,94,0
1,72,94,0
1,75,94,0
1,72,94,0
1,65,94,240
1,68,89,0
1,65,84,0
1,74,79,0
1,65,74,0
1,68,69,0
1,65,64,0
1,63,49,240
1,67,49,0
1,63,50,0
1,75,50,0
1,63,51,240
1,67,52,0
1,63,52,0
1,67,53,0
1,63,54,0
1,67,54,0
1,63,55,0
1,75,56,0
1,63,56,240
1,67,57,0
1,63,57,0
1,63,59,240
1,67,59,0
1,63,60,0
1,75,61,0
1,63,61,240
1,67,62,0
1,63,62,0
1,67,63,0
1,63,64,0
1,67,64,0
1,63,65,0
1,75,66,0
1,63,66,240
1,67,67,0
1,63,68,0
1,75,68,0
1,63,69,0
1,68,69,0
1,63,70,0
1,76,86,0
1,64,71,48
1,72,72,0
1,64,73,0
1,77,88,0
1,65,74,48
1,72,75,0
1,65,75,0
1,79,91,0
1,67,76,48
1,72,77,0
1,67,78,0
1,80,93,0
1,68,79,48
1,72,80,0
1,68,80,0
1,81,96,0
1,69,81,48
1,72,82,0
1,69,83,0
1,82,98,0
1,70,84,48
1,77,85,0
1,70,85,0
1,84,101,0
1,72,87,48
1,77,87,0
1,72,88,0
1,85,103,0
1,73,89,48
1,77,90,0
1,73,90,0
1,86,106,0
1,74,92,48
1,77,92,0
1,74,93,0
1,87,109,0
1,75,94,48
1,82,94,0
1,75,94,0
1,83,109,0
1,71,94,48
1,75,94,0
1,71,94,0
1,80,94,240
1,84,94,0
1,80,94,0
1,89,94,0
1,80,94,0
1,84,94,0
1,80,94,0
1,77,94,240
1,80,94,0
1,77,94,0
1,86,94,0
1,77,94,0
1,80,94,0
1,77,94,0
1,79,94,0
1,87,64,0
1,86,64,0
1,87,64,0
1,89,64,0
1,87,64,0
1,86,64,0
1,84,64,0
1,83,64,0
1,84,64,0
1,86,64,0
1,84,64,0
1,82,64,0
1,80,64,0
1,79,64,0
1,77,64,0
1,76,64,0
1,77,64,0
1,79,64,0
1,77,64,0
1,75,64,0
1,74,64,0
1,72,64,0
1,70,64,0
1,69,64,0
1,70,64,0
1,72,64,0
1,68,64,0
1,67,64,0
1,75,65,0
1,87,65,0
1,86,69,0
1,87,70,0
1,89,71,0
1,87,72,0
1,86,73,0
1,84,74,0
1,83,75,0
1,84,76,0
1,86,77,0
1,84,78,0
1,82,79,0
1,80,79,0
1,79,80,0
1,77,81,0
1,76,82,0
1,77,83,0
1,79,84,0
1,77,85,0
1,75,86,0
1,74,87,0
1,72,88,0
1,70,89,0
1,69,90,0
1,70,91,0
1,72,92,0
1,70,93,0
1,75,94,0
1,63,94,0
1,61,94,0
1,67,94,0
1,60,94,96
1,68,94,0
1,67,94,96
1,70,94,0
1,68,94,96
1,72,94,0
1,68,94,96
1,74,94,0
1,67,94,96
1,75,94,0
1,75,94,96
1,73,94,0
1,79,94,0
1,72,94,96
1,80,94,0
1,79,94,96
1,82,94,0
1,80,94,96
1,84,94,0
1,80,94,96
1,86,94,0
1,79,109,96
1,87,109,0
1,67,109,0
1,75,109,0
1,79,109,0
1,87,109,0
1,67,109,0
1,75,109,0
1,84,119,0
1,87,119,0
1,72,119,0
1,75,119,0
1,81,119,0
1,84,119,0
1,86,119,0
1,53,123,0
1,59,123,0
1,62,123,0
1,60,64,0
1,58,64,0
1,64,64,0
1,56,64,96
1,65,64,0
1,64,64,96
1,67,64,0
1,65,64,96
1,68,64,0
1,62,64,96
1,71,64,0
1,63,64,96
1,72,64,0
1,64,92,96
1,72,92,0
1,70,64,0
1,76,64,0
1,68,64,96
1,77,64,0
1,76,64,96
1,79,64,0
1,77,64,96
1,80,64,0
1,74,64,96
1,83,64,0
1,72,64,96
1,75,64,0
1,79,64,0
1,84,64,0
1,67,66,192
1,71,66,0
1,77,66,0
