track,note,velocity,time
1,33,115,1558
1,28,119,22
1,33,116,106
1,33,115,1196
1,28,118,90
1,33,111,108
1,33,115,1570
1,28,116,22
1,33,116,106
1,33,115,1152
1,28,118,90
1,33,118,110
1,31,124,42
1,36,124,42
1,31,120,160
1,32,123,104
1,33,120,106
1,33,123,170
1,28,121,190
1,33,115,1134
1,28,116,22
1,33,116,106
1,33,115,1152
1,28,118,90
1,33,118,110
1,31,124,42
1,36,124,42
1,31,120,160
1,32,123,104
1,33,120,106
1,33,123,170
1,28,121,190
1,33,115,1134
1,28,116,22
1,33,116,106
1,33,115,1152
1,28,118,90
1,33,118,110
1,34,126,50
1,33,121,76
1,31,123,68
1,29,123,52
1,29,120,186
1,34,120,0
1,34,122,164
1,29,115,26
1,29,124,128
1,29,122,54
1,29,122,98
1,41,114,48
1,41,111,74
1,40,114,6
1,38,111,58
1,36,109,126
1,31,123,84
1,36,125,112
1,41,124,244
1,40,124,68
1,38,121,80
1,36,126,102
1,29,124,98
1,31,124,66
1,33,126,106
1,38,124,130
1,36,123,116
1,31,122,62
1,31,113,34
1,36,125,2
1,41,124,246
1,40,124,58
1,38,121,76
1,36,126,102
1,29,124,98
1,31,124,68
1,28,126,106
1,33,115,3456
1,28,116,22
1,33,116,106
1,33,115,1152
1,28,118,90
1,33,118,110
1,31,124,42
1,36,124,42
1,31,120,160
1,32,123,104
1,33,120,106
1,33,123,170
1,28,121,190
1,33,115,1134
1,28,116,22
1,33,116,106
1,33,115,1152
1,28,118,90
1,33,118,110
2,76,87,9208
2,75,80,190
2,76,91,154
2,75,86,150
2,76,91,144
2,71,91,136
2,74,85,148
2,72,99,180
2,69,79,160
2,57,51,2
2,64,63,0
2,60,65,2
2,68,67,188
2,71,79,0
2,52,50,6
2,57,65,0
2,72,54,12
2,69,65,10
2,69,80,1102
2,64,62,0
2,57,78,8
2,60,43,326
2,52,61,782
2,68,72,12
2,71,79,2
2,57,75,18
2,69,79,18
2,60,87,0
2,55,69,4
2,67,87,2
2,62,86,2
2,71,89,0
2,60,76,48
2,67,83,2
2,72,86,4
2,64,77,0
2,67,87,34
2,71,86,8
2,55,89,2
2,74,76,12
2,56,85,54
2,68,83,18
2,57,91,26
2,64,51,2
2,69,60,0
2,72,75,4
2,71,54,12
2,64,46,2
2,68,59,4
2,52,59,10
2,76,60,736
2,75,68,192
2,76,76,168
2,75,84,162
2,76,91,144
2,71,91,136
2,74,85,148
2,72,99,180
2,69,79,160
2,57,51,2
2,64,63,0
2,60,65,2
2,68,67,188
2,71,79,0
2,52,50,6
2,57,65,0
2,72,54,12
2,69,65,10
2,64,62,1408
2,69,80,0
2,57,78,8
2,60,58,8
2,52,61,10
2,68,72,12
2,71,79,2
2,57,75,18
2,69,79,18
2,60,87,0
2,55,69,4
2,67,87,2
2,62,86,2
2,71,89,0
2,60,76,48
2,67,83,2
2,72,86,4
2,64,77,0
2,67,87,34
2,71,86,8
2,55,89,2
2,74,76,12
2,56,85,54
2,68,83,18
2,57,91,26
2,64,51,2
2,69,60,0
2,72,75,4
2,71,54,12
2,64,46,2
2,68,59,4
2,52,59,10
2,72,83,2286
2,57,94,0
2,64,79,0
2,81,90,0
2,56,77,90
2,83,92,18
2,71,93,4
2,57,96,2
2,84,84,20
2,72,87,2
2,47,96,1000
2,59,96,2
2,50,100,206
2,62,100,8
2,48,97,134
2,60,106,18
2,45,92,140
2,57,87,0
2,81,87,0
2,72,73,0
2,64,62,0
2,64,76,12
2,56,74,6
2,83,81,6
2,71,82,2
2,40,92,2
2,45,78,18
2,57,93,2
2,69,71,4
2,81,86,4
2,58,121,54
2,70,121,10
2,65,121,0
2,57,123,174
2,69,122,18
2,55,119,154
2,67,119,4
2,53,118,134
2,72,116,10
2,69,118,2
2,74,120,16
2,70,114,2
2,76,117,56
2,72,118,6
2,69,113,1118
2,60,79,0
2,65,96,0
2,64,95,1206
2,72,95,6
2,69,95,0
2,65,106,74
2,74,106,4
2,64,115,70
2,67,121,4
2,72,119,0
2,67,109,18
2,62,119,8
2,71,118,2
2,64,117,12
2,67,114,2
2,72,112,4
2,72,102,864
2,65,102,0
2,69,102,2
2,71,103,8
2,74,103,0
2,67,103,0
2,64,105,26
2,72,105,2
2,69,105,0
2,65,106,56
2,69,106,2
2,62,106,6
2,72,108,6
2,64,108,0
2,67,108,6
2,62,110,38
2,71,110,0
2,67,111,32
2,72,111,4
2,64,111,0
2,64,116,534
2,67,119,0
2,72,119,0
2,65,101,56
2,72,101,2
2,69,114,2
2,62,114,54
2,67,114,0
2,71,114,0
2,74,114,0
2,64,97,64
2,71,97,8
2,68,97,10
2,76,87,1080
2,75,80,190
2,76,91,154
2,75,86,150
2,76,91,144
2,71,91,136
2,74,85,148
2,72,99,180
2,69,79,160
2,57,51,2
2,64,63,0
2,60,65,2
2,71,79,188
2,68,67,0
2,52,50,6
2,57,65,0
2,72,54,12
2,69,65,10
2,69,80,1102
2,64,62,0
2,57,78,8
2,60,43,326
2,52,61,782
2,68,72,12
2,71,79,2
2,57,75,18
2,60,87,18
2,69,79,0
2,55,69,4
2,67,87,2
2,71,89,2
2,62,86,0
2,60,76,48
2,67,83,2
2,72,86,4
2,64,77,0
2,67,87,34
2,71,86,8
2,55,89,2
2,74,76,12
2,56,85,54
2,68,83,18
2,57,91,26
2,69,60,2
2,64,51,0
2,72,75,4
2,71,54,12
2,64,46,2
2,68,59,4
2,52,59,10
2,60,42,2298
2,64,49,0
2,69,50,0
2,68,70,6
2,71,67,4
2,59,75,0
2,72,64,12
2,69,70,6
2,60,81,4
2,60,68,1466
2,64,67,8
2,69,71,2
2,68,70,1116
2,71,78,2
2,59,78,8
2,57,65,2
2,60,80,0
2,69,64,2
3,76,95,140
3,75,91,210
3,76,94,172
3,75,102,134
3,76,102,138
3,71,97,160
3,74,93,162
3,72,90,182
3,69,81,0
3,45,90,8
3,52,74,72
3,57,76,108
3,60,94,14
3,64,102,138
3,69,110,112
3,71,94,136
3,40,79,16
3,52,82,8
3,56,89,22
3,64,100,78
3,68,106,180
3,71,110,96
3,72,96,164
3,45,72,16
3,52,75,166
3,57,74,112
3,64,84,104
3,76,96,184
3,75,90,146
3,76,90,146
3,75,102,136
3,76,110,136
3,71,108,138
3,74,92,142
3,72,76,140
3,69,77,190
3,45,56,26
3,52,70,78
3,57,79,114
3,60,98,54
3,64,108,182
3,69,112,120
3,71,87,136
3,40,78,10
3,52,82,14
3,56,80,140
3,64,87,82
3,72,96,188
3,71,96,142
3,69,92,36
3,45,66,14
3,52,75,164
3,57,67,14
3,76,86,296
3,75,94,4
3,76,114,164
3,75,110,126
3,76,108,146
3,71,114,128
3,74,100,150
3,72,87,128
3,69,80,170
3,45,73,8
3,52,56,40
3,57,80,132
3,60,87,84
3,64,90,190
3,69,100,154
3,71,87,170
3,40,74,4
3,52,84,14
3,56,96,90
3,64,108,84
3,68,110,184
3,71,110,114
3,72,90,14
3,45,58,18
3,52,70,2
3,57,72,16
3,64,86,108
3,76,96,182
3,75,86,16
3,76,84,156
3,75,84,146
3,76,92,146
3,71,96,164
3,74,90,116
3,72,82,144
3,69,82,182
3,45,59,16
3,52,54,96
3,57,83,26
3,60,94,92
3,64,100,184
3,69,114,168
3,71,100,150
3,40,75,6
3,52,84,18
3,56,84,0
3,64,104,104
3,72,110,192
3,71,108,130
3,69,92,6
3,45,73,4
3,52,80,36
3,57,84,8
3,71,112,72
3,72,114,190
3,74,125,72
3,76,106,144
3,48,79,18
3,55,90,148
3,60,87,10
3,67,110,90
3,77,123,190
3,76,116,112
3,74,114,128
3,43,84,10
3,55,92,18
3,59,98,116
3,65,106,72
3,76,120,192
3,74,108,102
3,72,102,144
3,45,74,12
3,52,78,132
3,57,78,70
3,64,84,90
3,74,90,204
3,72,94,126
3,71,98,162
3,40,80,10
3,52,83,24
3,64,83,106
3,64,102,142
3,76,114,26
3,64,92,110
3,76,89,40
3,76,116,126
3,88,102,16
3,75,82,128
3,76,92,4
3,75,92,102
3,76,100,186
3,75,96,132
3,76,106,146
3,71,110,140
3,74,102,112
3,72,90,114
3,69,85,180
3,45,66,22
3,52,70,64
3,57,75,162
3,60,94,66
3,64,100,188
3,69,106,122
3,71,94,0
3,40,82,4
3,52,86,164
3,56,96,12
3,64,108,92
3,68,106,186
3,71,110,116
3,72,94,158
3,45,74,10
3,52,83,146
3,57,74,10
3,64,85,0
3,76,98,194
3,75,90,110
3,76,94,148
3,75,108,138
3,76,106,150
3,71,104,148
3,74,96,146
3,72,84,130
3,45,82,168
3,69,86,0
3,52,79,168
3,57,79,188
3,60,87,180
3,64,110,20
3,69,106,76
3,40,80,32
3,71,100,10
3,52,87,40
3,56,47,50
3,64,94,80
3,72,112,180
3,71,106,124
3,69,94,48
3,45,79,0
3,52,75,26
3,57,78,204
3,71,110,26
3,72,127,192
3,74,127,146
3,76,114,154
3,48,83,8
3,55,92,150
3,60,98,10
3,67,110,84
3,77,114,162
3,76,118,112
3,74,110,156
3,43,81,22
3,55,84,2
3,59,59,36
3,65,90,106
3,76,90,194
3,74,94,158
3,72,87,176
3,45,60,22
3,52,84,14
3,57,82,68
3,64,82,106
3,74,88,50
3,72,104,176
3,40,85,172
3,71,92,12
3,52,92,42
3,64,85,102
3,64,110,140
3,76,120,36
3,64,108,104
3,76,120,10
3,76,125,124
3,88,115,198
3,75,106,114
3,76,104,42
3,75,114,106
3,76,106,188
3,75,96,16
3,76,92,194
3,71,90,134
3,74,92,132
3,72,84,140
3,69,84,178
3,45,69,10
3,52,69,60
3,57,81,8
3,60,90,96
3,64,94,188
3,69,110,148
3,71,92,152
3,40,70,2
3,52,87,56
3,56,89,6
3,64,102,100
3,68,110,182
3,71,110,110
3,72,102,16
3,45,78,18
3,52,80,14
3,57,72,32
3,64,90,74
3,76,106,196
3,75,106,126
3,76,94,88
3,75,116,144
3,76,102,158
3,71,108,154
3,74,108,128
3,72,92,136
3,69,87,186
3,45,74,6
3,52,76,10
3,57,86,118
3,60,106,106
3,64,106,190
3,69,112,162
3,40,84,52
3,71,92,2
3,52,83,16
3,56,76,64
3,64,92,110
3,72,96,192
3,71,92,176
3,69,96,156
3,45,76,8
3,52,78,54
3,57,83,22
3,72,102,158
3,64,98,0
3,58,87,8
3,72,127,62
3,65,110,6
3,60,98,0
3,57,104,0
3,67,123,116
3,64,110,2
3,72,127,0
3,60,112,0
3,55,110,4
3,65,106,106
3,69,114,4
3,72,118,4
3,53,84,4
3,57,78,94
3,60,79,16
3,57,75,188
3,60,79,18
3,77,123,2
3,57,83,50
3,76,118,24
3,53,79,6
3,76,125,4
3,58,78,180
3,62,70,180
3,74,104,2
3,58,66,52
3,62,69,2
3,82,120,2
3,58,73,184
3,81,112,0
3,53,80,80
3,81,118,2
3,79,112,124
3,64,78,2
3,77,104,134
3,58,73,8
3,55,80,0
3,53,74,0
3,76,100,2
3,64,86,8
3,74,96,180
3,58,73,18
3,53,70,6
3,55,75,2
3,72,90,8
3,64,72,2
3,70,90,182
3,53,71,10
3,57,73,146
3,69,87,62
3,60,73,8
3,57,77,0
3,70,90,102
3,69,94,88
3,60,85,18
3,67,110,76
3,69,106,42
3,57,74,8
3,70,102,50
3,72,108,60
3,53,78,2
3,57,73,188
3,60,83,10
3,57,83,172
3,74,120,122
3,60,79,0
3,75,114,110
3,57,73,12
3,76,108,146
3,52,79,10
3,57,90,32
3,60,94,6
3,76,123,18
3,57,88,8
3,77,106,16
3,62,84,4
3,50,75,4
3,69,114,70
3,57,96,6
3,72,123,130
3,55,85,10
3,64,87,126
3,74,108,144
3,55,90,0
3,72,108,82
3,64,70,46
3,71,108,2
3,72,106,22
3,74,110,60
3,55,88,2
3,65,90,48
3,71,96,34
3,60,84,0
3,64,90,4
3,72,114,2
3,79,118,24
3,67,106,0
3,79,114,16
3,69,94,12
3,79,102,16
3,67,82,16
3,71,100,2
3,65,61,10
3,79,89,22
3,72,106,20
3,64,98,10
3,67,90,0
3,79,92,16
3,67,94,20
3,65,94,0
3,74,94,0
3,62,98,0
3,79,92,4
3,76,114,10
3,67,92,8
3,64,94,2
3,60,92,2
3,79,106,42
3,84,114,54
3,83,123,78
3,81,120,60
3,57,94,16
3,53,82,0
3,79,108,78
3,77,110,8
3,76,110,86
3,74,92,18
3,59,65,4
3,55,67,10
3,79,98,60
3,77,84,102
3,74,87,10
3,76,108,60
3,52,79,10
3,57,90,32
3,60,94,6
3,76,123,18
3,57,88,8
3,77,106,16
3,62,84,4
3,50,75,4
3,69,114,70
3,57,96,6
3,72,123,130
3,55,85,4
3,64,87,126
3,74,108,144
3,55,90,0
3,72,108,82
3,64,70,46
3,71,108,2
3,72,106,22
3,74,110,60
3,55,88,2
3,65,90,48
3,71,96,34
3,60,77,6
3,72,90,4
3,64,58,76
3,79,86,14
3,67,112,6
3,79,125,22
3,69,108,16
3,79,125,20
3,67,98,0
3,65,102,2
3,71,94,2
3,72,94,2
3,79,110,2
3,64,108,10
3,67,110,0
3,72,116,2
3,79,106,32
3,62,114,4
3,67,116,0
3,65,123,0
3,74,110,4
3,79,112,20
3,60,118,14
3,67,110,0
3,64,116,0
3,76,114,4
3,79,108,50
3,84,114,52
3,83,120,78
3,53,75,44
3,57,80,0
3,81,120,6
3,79,108,74
3,77,106,10
3,76,96,98
3,55,75,42
3,59,79,0
3,74,96,8
3,79,114,92
3,77,92,42
3,74,94,86
3,56,69,72
3,59,72,0
3,76,92,4
3,77,88,104
3,76,92,88
3,75,92,64
3,76,110,84
3,71,100,48
3,76,120,86
3,75,104,56
3,76,108,76
3,71,106,2
3,76,106,94
3,75,92,72
3,76,110,8
3,71,94,574
3,76,120,124
3,75,108,96
3,76,96,156
3,71,84,2
3,76,96,194
3,75,104,28
3,76,100,188
3,75,96,172
3,76,108,176
3,71,94,144
3,74,98,174
3,72,87,144
3,69,82,186
3,45,69,6
3,52,78,78
3,57,76,118
3,60,86,30
3,64,104,172
3,69,104,94
3,71,100,146
3,40,85,20
3,52,88,2
3,56,79,26
3,64,100,92
3,68,108,184
3,71,112,112
3,72,102,162
3,45,80,10
3,52,80,124
3,57,79,38
3,64,92,78
3,76,112,196
3,75,112,124
3,76,104,0
3,75,100,188
3,76,100,86
3,71,87,86
3,74,92,194
3,72,89,140
3,69,84,178
3,45,70,10
3,52,79,34
3,57,84,138
3,60,98,78
3,64,100,200
3,69,108,20
3,71,110,178
3,40,87,16
3,52,94,16
3,56,80,18
3,64,100,112
3,72,108,190
3,71,106,128
3,69,92,162
3,45,76,2
3,52,84,16
3,57,84,78
3,71,112,104
3,72,123,14
3,74,110,122
3,76,100,162
3,48,79,10
3,55,86,166
3,60,87,8
3,67,102,90
3,77,112,194
3,76,114,114
3,74,102,132
3,43,79,14
3,55,84,6
3,59,87,24
3,65,92,96
3,76,100,188
3,74,96,144
3,45,75,154
3,72,89,4
3,52,70,30
3,57,80,88
3,64,84,124
3,74,85,172
3,72,92,20
3,71,88,8
3,40,83,24
3,52,90,116
3,64,105,76
3,64,123,138
3,76,113,28
3,64,116,106
3,76,116,4
3,76,110,122
3,88,108,196
3,75,110,128
3,76,103,130
3,75,98,104
3,76,100,188
3,75,104,88
3,76,102,194
3,71,96,150
3,74,98,142
3,72,98,116
3,69,95,188
3,45,88,6
3,52,88,16
3,57,80,132
3,60,87,90
3,64,96,190
3,69,104,162
3,71,92,146
3,40,79,14
3,52,82,16
3,56,90,136
3,64,104,98
3,68,108,190
3,71,112,116
3,72,94,152
3,45,70,14
3,52,80,32
3,57,85,80
3,64,90,96
3,76,110,194
3,75,100,140
3,76,106,152
3,75,102,138
3,76,94,162
3,71,92,154
3,74,85,156
3,72,82,136
3,69,74,196
3,45,61,12
3,52,70,100
3,57,82,86
3,60,100,88
3,64,108,188
3,69,112,142
3,71,96,160
3,40,78,6
3,52,83,14
3,56,90,142
3,64,108,106
3,72,108,184
3,71,100,148
3,57,75,136
3,45,55,0
3,33,68,0
3,60,85,30
3,64,57,2
