track,note,velocity,time
0,76,66,2488
0,75,70,192
0,76,64,180
0,75,62,164
0,76,68,148
0,71,62,160
0,74,71,172
0,72,67,172
0,57,80,144
0,60,80,0
0,64,80,0
0,57,67,16
0,69,69,4
0,33,84,0
0,45,88,4
0,35,77,0
0,51,79,0
0,81,75,156
0,60,65,0
0,51,53,4
0,52,65,4
0,64,63,92
0,57,80,0
0,84,84,0
0,51,56,0
0,60,86,60
0,88,86,4
0,37,99,4
0,60,72,0
0,51,87,0
0,64,84,108
0,64,71,8
0,51,69,8
0,69,70,68
0,51,67,0
0,60,83,0
0,56,84,0
0,59,80,0
0,62,85,0
0,71,78,12
0,28,96,4
0,52,72,0
0,51,79,4
0,40,96,4
0,35,83,0
0,80,76,96
0,47,85,0
0,56,68,0
0,51,63,4
0,59,71,88
0,83,76,8
0,51,59,0
0,56,84,4
0,88,85,48
0,37,98,4
0,51,84,0
0,64,70,0
0,59,93,4
0,62,94,116
0,68,81,4
0,51,74,4
0,71,81,0
0,59,27,4
0,56,91,0
0,51,73,0
0,57,65,0
0,60,84,0
0,52,84,0
0,33,93,4
0,57,69,12
0,72,71,0
0,45,93,4
0,51,83,0
0,35,76,0
0,52,83,132
0,60,65,4
0,81,73,4
0,51,67,4
0,57,75,88
0,64,61,4
0,51,66,4
0,84,79,0
0,64,77,96
0,64,71,4
0,37,82,4
0,88,77,4
0,60,96,0
0,51,85,0
0,76,71,0
0,64,81,4
0,76,87,0
0,51,71,12
0,75,84,8
0,60,75,12
0,75,62,0
0,51,65,4
0,45,68,4
0,76,68,0
0,76,57,0
0,57,68,0
0,35,84,0
0,51,85,0
0,64,68,0
0,52,68,4
0,75,76,76
0,75,71,0
0,51,67,4
0,51,63,12
0,76,66,4
0,76,64,0
0,71,78,4
0,71,64,0
0,51,86,4
0,37,90,0
0,74,74,168
0,74,83,0
0,51,75,4
0,72,76,156
0,72,74,4
0,51,70,4
0,57,80,132
0,60,75,0
0,64,72,0
0,69,71,0
0,69,68,8
0,33,98,0
0,57,58,0
0,51,82,0
0,35,84,0
0,45,99,4
0,60,55,152
0,81,76,4
0,51,67,0
0,52,82,4
0,64,70,92
0,51,68,0
0,84,76,4
0,57,86,0
0,37,92,8
0,60,76,0
0,51,84,0
0,60,95,0
0,88,84,4
0,64,78,124
0,64,84,4
0,64,84,0
0,51,75,0
0,69,82,20
0,60,84,4
0,69,73,0
0,51,66,0
0,56,84,0
0,59,61,0
0,62,80,0
0,28,102,0
0,71,83,0
0,71,72,8
0,52,69,0
0,51,81,4
0,35,77,0
0,40,94,4
0,56,69,120
0,80,80,0
0,47,83,0
0,51,58,0
0,59,69,80
0,56,90,8
0,51,70,0
0,83,76,0
0,64,65,64
0,88,87,0
0,51,78,0
0,37,85,4
0,59,84,8
0,62,92,108
0,72,72,0
0,51,69,0
0,72,84,0
0,71,80,4
0,51,73,4
0,71,69,0
0,59,89,4
0,60,80,128
0,52,84,0
0,57,50,0
0,69,72,0
0,33,93,0
0,69,68,4
0,57,69,4
0,51,75,0
0,35,75,4
0,45,79,0
0,52,71,132
0,60,62,0
0,51,60,4
0,81,74,0
0,57,80,92
0,84,73,4
0,64,62,0
0,51,67,0
0,64,82,0
0,60,93,8
0,37,85,0
0,88,85,0
0,51,79,4
0,64,81,0
0,76,86,0
0,76,70,0
0,76,77,0
0,51,67,4
0,75,79,12
0,60,81,12
0,75,74,0
0,75,83,0
0,51,66,0
0,76,78,4
0,57,68,12
0,45,66,0
0,52,68,0
0,35,74,0
0,76,64,0
0,51,74,0
0,76,71,0
0,75,91,108
0,75,83,0
0,75,62,0
0,51,56,4
0,51,72,0
0,76,68,0
0,76,86,4
0,76,76,0
0,71,82,8
0,71,93,0
0,71,55,4
0,37,90,4
0,51,83,0
0,74,86,164
0,74,71,0
0,51,71,4
0,74,83,0
0,72,76,160
0,72,84,8
0,72,67,4
0,51,66,4
0,57,82,76
0,60,71,0
0,64,81,0
0,69,76,0
0,69,96,0
0,35,84,8
0,69,54,0
0,51,85,0
0,57,67,0
0,45,80,8
0,33,93,4
0,60,60,156
0,52,76,0
0,81,83,4
0,51,68,0
0,84,84,92
0,57,84,0
0,64,65,0
0,51,64,4
0,51,86,64
0,37,93,0
0,60,72,4
0,88,88,0
0,60,97,4
0,64,93,108
0,64,71,4
0,51,68,4
0,64,76,0
0,64,90,0
0,69,101,80
0,69,76,8
0,69,70,0
0,51,71,4
0,60,97,4
0,59,72,0
0,62,87,0
0,56,80,0
0,71,94,4
0,71,76,0
0,28,103,8
0,71,78,0
0,51,80,0
0,52,71,0
0,40,95,4
0,35,80,0
0,80,89,124
0,56,61,0
0,47,86,0
0,51,64,0
0,59,73,88
0,56,93,4
0,51,68,0
0,83,81,4
0,51,84,48
0,88,89,0
0,37,87,4
0,59,87,0
0,64,70,0
0,64,84,4
0,68,100,4
0,68,81,4
0,51,73,0
0,62,93,0
0,71,101,104
0,71,81,4
0,71,82,0
0,59,88,0
0,51,73,0
0,33,93,0
0,57,87,0
0,60,87,0
0,52,87,0
0,72,81,12
0,72,103,0
0,45,80,0
0,51,83,0
0,72,71,0
0,57,73,0
0,35,74,4
0,81,81,160
0,60,60,0
0,52,84,0
0,51,69,4
0,57,66,88
0,51,67,4
0,64,63,0
0,84,77,0
0,64,71,116
0,88,88,4
0,64,91,0
0,60,96,0
0,37,93,0
0,51,84,0
0,76,88,116
0,64,85,4
0,76,87,0
0,51,68,4
0,76,68,0
0,60,82,100
0,75,95,0
0,75,83,0
0,51,64,0
0,75,62,0
0,76,86,20
0,76,59,0
0,76,57,0
0,52,70,4
0,57,70,0
0,51,79,0
0,45,70,0
0,35,81,0
0,75,78,80
0,75,93,4
0,51,54,8
0,75,71,0
0,76,83,16
0,76,65,16
0,51,71,16
0,76,66,4
0,71,71,148
0,71,85,4
0,71,64,12
0,51,86,4
0,37,92,0
0,74,84,144
0,74,98,4
0,74,74,4
0,51,73,4
0,72,81,144
0,72,90,12
0,72,74,4
0,51,71,0
0,57,79,0
0,60,72,0
0,64,81,0
0,69,67,0
0,69,92,0
0,35,85,12
0,51,82,0
0,57,66,4
0,33,92,0
0,69,68,0
0,45,98,0
0,60,65,128
0,52,82,0
0,51,62,4
0,81,77,4
0,51,73,92
0,57,90,0
0,64,64,0
0,84,76,4
0,60,76,8
0,37,90,4
0,88,87,0
0,60,100,0
0,51,84,0
0,64,80,0
0,64,86,8
0,64,93,8
0,64,84,4
0,51,73,0
0,69,76,16
0,69,96,4
0,69,73,0
0,60,92,4
0,51,79,0
0,56,83,0
0,59,58,0
0,62,78,0
0,71,104,0
0,28,100,8
0,40,96,4
0,71,74,0
0,35,86,0
0,51,83,0
0,52,71,0
0,71,72,0
0,47,80,136
0,56,62,4
0,51,75,4
0,80,85,0
0,56,76,88
0,59,67,4
0,51,74,4
0,83,72,0
0,64,65,64
0,59,89,0
0,37,92,4
0,51,88,0
0,88,89,4
0,62,86,0
0,72,80,0
0,72,72,4
0,51,72,0
0,72,108,8
0,71,83,132
0,71,98,4
0,59,89,4
0,71,69,4
0,51,77,0
0,52,76,0
0,57,69,0
0,69,93,0
0,60,81,0
0,69,75,4
0,69,68,4
0,45,69,0
0,57,68,4
0,33,93,0
0,35,84,0
0,51,84,0
0,52,80,120
0,51,66,12
0,81,75,0
0,60,56,0
0,57,94,84
0,51,72,8
0,64,64,0
0,84,80,4
0,71,105,112
0,60,99,0
0,37,100,4
0,51,94,4
0,71,70,0
0,88,84,4
0,64,95,132
0,72,74,8
0,51,81,0
0,72,103,8
0,31,103,132
0,60,102,4
0,74,72,4
0,51,86,0
0,67,92,0
0,74,102,12
0,55,87,0
0,60,87,0
0,64,94,0
0,48,99,4
0,64,100,4
0,72,92,4
0,35,97,0
0,76,114,0
0,76,72,0
0,51,95,0
0,48,78,0
0,36,100,4
0,55,88,132
0,55,60,4
0,51,79,0
0,84,96,4
0,60,94,36
0,60,66,8
0,88,90,0
0,51,76,0
0,72,91,28
0,67,85,12
0,64,98,4
0,91,98,0
0,37,98,4
0,51,101,0
0,77,85,80
0,60,93,0
0,77,103,0
0,74,92,0
0,51,75,0
0,72,84,80
0,76,96,4
0,76,74,4
0,55,88,4
0,51,81,4
0,59,85,0
0,62,89,0
0,71,89,0
0,55,83,0
0,74,109,4
0,74,83,8
0,55,74,4
0,43,97,4
0,62,98,0
0,31,101,4
0,51,92,0
0,35,90,0
0,55,80,132
0,83,86,4
0,59,58,0
0,51,77,8
0,51,78,92
0,62,66,0
0,59,84,0
0,86,84,4
0,67,86,132
0,65,77,4
0,37,94,0
0,67,105,0
0,51,96,0
0,91,94,0
0,76,105,108
0,76,80,12
0,62,94,0
0,51,81,4
0,74,105,148
0,74,80,8
0,59,92,4
0,51,80,4
0,57,86,0
0,72,110,0
0,60,81,0
0,64,70,0
0,33,95,4
0,72,85,4
0,64,86,0
0,57,65,0
0,51,91,4
0,69,80,0
0,35,86,0
0,45,92,0
0,60,87,136
0,60,65,4
0,51,66,4
0,81,81,0
0,57,83,84
0,51,78,8
0,84,79,0
0,64,63,0
0,64,79,96
0,51,94,4
0,60,100,0
0,37,99,0
0,88,92,0
0,69,88,8
0,74,104,36
0,71,88,8
0,64,92,0
0,74,84,0
0,51,81,0
0,72,94,120
0,69,76,0
0,72,70,4
0,60,102,0
0,51,79,0
0,52,79,0
0,59,61,0
0,40,98,12
0,71,76,0
0,71,99,4
0,52,79,0
0,51,87,4
0,35,80,0
0,68,74,0
0,40,100,0
0,52,73,20
0,47,88,0
0,80,88,4
0,51,67,4
0,64,84,92
0,51,67,4
0,83,83,4
0,52,89,4
0,64,74,76
0,56,91,4
0,64,71,8
0,51,81,0
0,88,97,4
0,37,85,0
0,59,85,120
0,76,86,4
0,51,68,4
0,64,81,16
0,64,72,16
0,51,71,0
0,71,69,72
0,76,72,4
0,52,93,8
0,64,94,0
0,35,78,4
0,51,81,0
0,28,95,0
0,76,91,0
0,59,80,120
0,76,85,8
0,51,58,4
0,56,82,156
0,51,60,8
0,88,83,8
0,52,84,148
0,51,81,0
0,75,76,4
0,76,74,8
0,51,69,0
0,47,80,4
0,40,81,152
0,51,69,8
0,75,83,4
0,40,95,32
0,76,81,4
0,51,77,4
0,75,79,172
0,51,72,4
0,76,77,160
0,51,76,8
0,75,72,168
0,51,68,8
0,76,67,164
0,51,66,4
0,51,50,176
0,75,65,0
0,51,45,152
0,76,64,4
0,75,62,164
0,51,47,0
0,51,48,148
0,76,62,0
0,71,55,160
0,51,42,4
0,74,65,172
0,51,36,8
0,72,67,40
0,51,44,4
0,64,81,16
0,57,82,0
0,69,79,0
0,60,79,0
0,33,94,12
0,69,54,0
0,69,97,0
0,57,66,0
0,51,70,4
0,35,81,0
0,45,88,0
0,81,81,156
0,52,86,0
0,60,58,4
0,51,52,4
0,84,85,88
0,57,88,0
0,64,71,4
0,51,62,0
0,37,89,64
0,51,81,0
0,88,89,0
0,60,72,4
0,60,102,0
0,71,91,128
0,64,93,4
0,64,71,4
0,64,88,0
0,51,71,0
0,72,91,52
0,60,92,4
0,69,70,0
0,69,94,4
0,51,69,0
0,56,84,0
0,59,65,0
0,62,81,0
0,28,100,12
0,71,78,0
0,52,73,4
0,71,94,4
0,51,73,0
0,40,89,0
0,71,88,4
0,35,76,0
0,56,65,100
0,47,86,0
0,80,89,4
0,51,62,0
0,51,62,92
0,59,71,0
0,56,88,0
0,83,84,8
0,59,94,52
0,64,70,0
0,51,78,0
0,37,84,0
0,88,96,0
0,64,83,12
0,62,93,128
0,68,81,0
0,68,92,0
0,51,66,0
0,71,105,16
0,59,88,4
0,71,81,0
0,51,67,0
0,69,76,8
0,52,73,0
0,57,84,0
0,60,85,0
0,33,91,4
0,72,104,4
0,45,93,4
0,57,68,4
0,72,71,0
0,51,76,4
0,35,78,0
0,52,81,128
0,60,64,4
0,81,81,8
0,51,59,0
0,57,82,88
0,64,61,4
0,84,76,4
0,51,58,0
0,64,71,116
0,37,86,4
0,51,80,0
0,60,96,0
0,88,87,8
0,76,104,120
0,71,91,0
0,76,87,4
0,64,86,0
0,51,65,8
0,75,106,56
0,72,86,4
0,60,90,4
0,75,62,4
0,51,58,4
0,76,57,112
0,45,80,0
0,57,80,0
0,76,93,4
0,52,79,0
0,51,76,4
0,69,72,0
0,35,75,0
0,75,107,44
0,75,71,4
0,51,56,4
0,76,91,132
0,51,65,4
0,76,66,0
0,71,64,164
0,71,93,0
0,37,85,4
0,51,78,0
0,74,103,148
0,74,74,0
0,51,66,4
0,72,92,156
0,72,74,4
0,51,64,0
0,57,83,24
0,60,75,0
0,64,81,0
0,69,103,4
0,33,96,12
0,57,68,0
0,35,73,0
0,51,76,0
0,69,68,0
0,69,84,4
0,45,99,4
0,81,81,164
0,60,63,0
0,52,81,4
0,51,53,0
0,64,66,92
0,84,79,0
0,51,65,4
0,57,89,4
0,60,76,8
0,88,87,0
0,51,77,4
0,37,87,0
0,60,99,4
0,64,102,20
0,71,90,4
0,64,84,0
0,64,94,0
0,51,61,4
0,69,109,140
0,69,73,4
0,60,94,4
0,72,89,0
0,51,62,0
0,56,85,0
0,59,64,0
0,62,81,0
0,71,105,4
0,40,87,8
0,71,72,4
0,52,72,0
0,35,79,4
0,28,99,0
0,51,76,0
0,71,87,8
0,56,64,124
0,80,85,4
0,51,58,0
0,47,90,0
0,56,88,92
0,51,61,0
0,59,69,0
0,83,86,4
0,64,89,48
0,37,85,8
0,64,65,0
0,51,80,0
0,59,90,8
0,88,92,0
0,51,70,136
0,72,72,0
0,62,89,0
0,72,113,0
0,71,100,136
0,71,69,12
0,59,84,0
0,51,73,0
0,52,79,0
0,57,76,0
0,60,85,0
0,33,98,4
0,69,91,4
0,69,68,4
0,69,91,0
0,57,64,4
0,45,93,0
0,35,82,0
0,51,78,4
0,52,72,148
0,60,60,4
0,81,84,4
0,51,62,0
0,57,87,88
0,84,81,4
0,64,61,0
0,51,70,0
0,60,92,48
0,69,96,4
0,37,90,0
0,51,83,0
0,71,99,4
0,83,109,0
0,71,70,0
0,88,93,4
0,84,109,116
0,72,99,0
0,64,95,4
0,51,87,0
0,72,74,4
0,74,102,104
0,86,114,12
0,31,104,0
0,60,86,0
0,51,84,0
0,74,74,4
0,67,92,0
0,64,97,0
0,67,100,0
0,60,104,0
0,88,104,4
0,76,98,4
0,35,98,4
0,48,76,0
0,51,96,4
0,76,84,0
0,48,87,0
0,36,103,4
0,72,112,0
0,72,91,0
0,55,67,164
0,67,74,4
0,51,84,0
0,84,92,0
0,62,88,92
0,60,74,4
0,88,99,0
0,51,79,0
0,67,90,104
0,67,85,0
0,51,98,4
0,37,100,0
0,91,103,4
0,74,98,108
0,89,111,0
0,77,100,4
0,64,99,0
0,77,85,4
0,51,76,8
0,88,103,112
0,72,88,0
0,76,74,16
0,76,81,0
0,67,99,0
0,51,80,4
0,86,100,140
0,59,96,0
0,62,96,0
0,74,101,0
0,71,90,4
0,31,108,4
0,74,83,4
0,71,100,0
0,55,73,0
0,51,93,0
0,43,90,0
0,35,85,0
0,59,63,156
0,67,90,0
0,83,92,4
0,51,74,0
0,62,95,92
0,62,64,0
0,51,69,0
0,86,97,4
0,67,87,112
0,65,77,4
0,67,87,0
0,37,98,0
0,51,94,4
0,91,97,0
0,88,103,4
0,71,98,4
0,76,106,0
0,76,80,4
0,51,72,4
0,74,96,156
0,86,92,0
0,74,80,0
0,51,82,4
0,67,84,0
0,64,72,0
0,33,100,0
0,57,91,0
0,60,91,0
0,69,83,4
0,57,71,8
0,69,97,0
0,72,95,0
0,72,85,0
0,51,87,0
0,45,81,0
0,35,85,4
0,84,94,0
0,64,80,152
0,60,64,4
0,84,84,0
0,51,68,4
0,60,92,88
0,64,59,0
0,51,75,4
0,88,84,0
0,64,79,132
0,51,92,4
0,37,94,0
0,93,84,4
0,64,88,0
0,71,84,16
0,86,102,0
0,74,94,4
0,36,103,0
0,69,81,0
0,74,84,0
