track,note,velocity,time
1,40,88,9564
1,40,86,136
1,40,85,172
1,35,75,192
1,37,75,188
1,40,85,0
1,40,90,132
1,40,86,180
1,35,78,16
1,37,75,0
1,40,90,12
1,40,85,92
1,40,82,180
1,35,75,192
1,37,71,188
1,40,85,180
1,40,85,156
1,40,85,172
1,35,73,12
1,37,80,192
1,40,88,36
1,40,85,128
1,40,88,168
1,35,82,4
1,37,75,192
1,40,90,180
1,40,92,188
1,40,94,192
1,35,78,0
1,37,74,0
1,40,90,8
1,40,92,156
1,40,94,188
1,35,78,0
1,37,76,0
1,40,88,8
1,40,85,120
1,40,85,176
1,35,79,8
1,37,72,192
1,33,79,188
1,33,89,124
1,33,89,172
1,28,76,16
1,30,79,4
1,33,84,4
1,33,96,124
1,33,96,176
1,28,76,0
1,30,78,192
1,33,86,16
1,33,92,116
1,33,92,172
1,28,76,8
1,30,82,192
1,33,84,20
1,33,92,140
1,33,96,168
1,35,66,4
1,37,83,192
1,40,88,4
1,40,86,148
1,40,78,176
1,35,73,8
1,37,75,192
1,40,85,0
1,40,85,232
1,39,83,92
1,37,79,96
1,35,94,100
1,35,90,132
1,35,78,168
1,30,75,192
1,32,70,188
1,35,88,8
1,35,85,160
1,35,85,180
1,30,75,192
1,32,73,188
1,35,85,188
1,35,83,144
1,37,82,44
1,39,79,40
1,40,83,72
1,40,83,108
1,40,76,172
1,35,75,4
1,37,69,192
1,40,85,0
1,40,80,96
1,40,82,164
1,35,79,4
1,37,78,192
1,40,83,12
1,40,86,148
1,40,86,180
1,35,83,4
1,37,75,192
1,40,86,4
1,40,86,176
1,40,88,172
1,35,78,8
1,37,82,0
1,40,85,12
1,40,88,172
1,40,86,192
1,35,78,0
1,37,76,0
1,40,90,192
1,40,94,180
1,40,88,204
1,35,82,4
1,37,86,192
1,33,89,4
1,33,92,172
1,33,92,180
1,28,74,8
1,30,74,192
1,33,86,176
1,33,89,136
1,33,96,188
1,28,80,12
1,30,79,192
1,33,81,4
1,33,89,160
1,33,96,184
1,28,80,16
1,30,78,0
1,33,81,4
1,33,84,176
1,33,92,200
1,28,76,4
1,30,80,20
1,40,88,4
1,40,75,132
1,40,79,188
1,35,70,0
1,37,83,192
1,40,83,184
1,40,82,216
1,39,83,36
1,37,80,12
1,35,88,24
1,35,88,124
1,35,83,188
1,30,72,192
1,32,69,184
1,35,82,180
1,35,86,168
1,35,80,188
1,30,68,192
1,32,69,184
1,35,82,0
1,35,86,164
1,35,80,176
1,37,60,192
1,39,62,0
1,40,88,192
1,40,83,152
1,40,80,200
1,35,80,12
1,37,70,192
1,40,85,0
1,40,80,172
1,40,68,200
1,35,82,4
1,37,78,192
1,33,79,184
1,33,84,112
1,33,71,152
1,28,67,20
1,30,75,192
1,33,73,20
1,33,79,128
1,33,79,204
1,28,75,12
1,30,82,192
1,33,84,8
1,33,84,148
1,33,86,196
1,28,75,12
1,30,79,192
1,33,79,20
1,33,81,168
1,33,86,212
1,28,76,4
1,30,78,0
1,35,85,20
1,35,82,152
1,35,85,188
1,30,73,12
1,32,63,192
1,35,82,188
1,35,83,136
1,35,80,208
1,30,76,4
1,32,66,192
1,35,80,8
1,35,85,172
1,35,78,204
1,30,79,16
1,32,69,0
1,35,83,192
1,35,85,132
1,35,83,184
1,39,80,12
1,40,82,0
1,40,85,148
1,40,78,200
1,35,85,4
1,37,73,4
1,40,90,4
1,40,85,164
1,40,83,204
1,35,78,16
1,37,72,0
1,40,85,0
1,40,85,160
1,40,79,196
1,35,75,12
1,37,73,192
1,40,82,184
1,37,82,16
1,38,82,16
1,39,82,16
1,40,88,16
1,40,85,128
1,40,88,168
1,35,82,4
1,37,75,192
1,40,90,180
1,40,92,188
1,40,94,192
1,35,78,0
1,37,74,0
1,40,90,8
1,40,92,156
1,40,94,188
1,35,78,0
1,37,76,0
1,40,88,8
1,40,85,120
1,40,85,176
1,35,79,8
1,37,72,192
1,33,79,188
1,33,89,124
1,33,89,172
1,28,76,16
1,30,79,4
1,33,84,4
1,33,96,124
1,33,96,176
1,28,76,0
1,30,78,192
1,33,86,16
1,33,92,116
1,33,92,172
1,28,76,8
1,30,82,192
1,33,84,20
1,33,92,140
1,33,96,168
1,35,66,4
1,37,83,192
1,40,88,4
1,40,86,148
1,40,78,176
1,35,73,8
1,37,75,192
1,40,85,0
1,40,85,232
1,39,83,92
1,37,79,96
1,35,94,100
1,35,90,132
1,35,78,168
1,30,75,192
1,32,70,188
1,35,88,8
1,35,85,160
1,35,85,180
1,30,75,192
1,32,73,188
1,35,85,188
1,35,83,144
1,37,82,44
1,39,79,40
1,40,83,72
1,40,83,108
1,40,76,172
1,35,75,4
1,37,69,192
1,40,85,0
1,40,80,96
1,40,82,164
1,35,79,4
1,37,78,192
1,40,83,12
1,40,86,148
1,40,86,180
1,35,83,4
1,37,75,192
1,40,86,4
1,40,86,176
1,40,88,172
1,35,78,8
1,37,82,0
1,40,85,12
1,40,88,172
1,40,86,192
1,35,78,0
1,37,76,0
1,40,90,192
1,40,94,180
1,40,88,204
1,35,82,4
1,37,86,192
1,33,89,4
1,33,92,172
1,33,92,180
1,28,74,8
1,30,74,192
1,33,86,176
1,33,89,136
1,33,96,188
1,28,80,12
1,30,79,192
1,33,81,4
1,33,89,160
1,33,96,184
1,28,80,16
1,30,78,0
1,33,81,4
1,33,84,176
1,33,92,200
1,28,76,4
1,30,80,20
1,40,88,4
1,40,75,132
1,40,79,188
1,35,70,0
1,37,83,192
1,40,83,184
1,40,82,216
1,39,83,36
1,37,80,12
1,35,88,24
1,35,88,124
1,35,83,188
1,30,72,192
1,32,69,184
1,35,82,180
1,35,86,168
1,35,80,188
1,30,68,192
1,32,69,184
1,35,82,0
1,35,86,164
1,35,80,176
1,37,60,192
1,39,62,0
1,40,88,192
1,40,83,152
1,40,80,200
1,35,80,12
1,37,70,192
1,40,85,0
1,40,80,172
1,40,68,200
1,35,82,4
1,37,78,192
1,33,79,184
1,33,84,112
1,33,71,152
1,28,67,20
1,30,75,192
1,33,73,20
1,33,79,128
1,33,79,204
1,28,75,12
1,30,82,192
1,33,84,8
1,33,84,148
1,33,86,196
1,28,75,12
1,30,79,192
1,33,79,20
1,33,81,168
1,33,86,212
1,28,76,4
1,30,78,0
1,35,85,20
1,35,82,152
1,35,85,188
1,30,73,12
1,32,63,192
1,35,82,188
1,35,83,136
1,35,80,208
1,30,76,4
1,32,66,192
1,35,80,8
1,35,85,172
1,35,78,204
1,30,79,16
1,32,69,0
1,35,83,192
1,35,85,132
1,35,83,184
1,39,80,12
1,40,82,0
1,40,85,148
1,40,78,200
1,35,85,4
1,37,73,4
1,40,90,4
1,40,82,24
1,39,82,52
1,37,82,52
1,35,82,52
1,35,80,64
1,35,80,180
1,30,76,4
1,32,66,192
1,35,85,0
1,35,80,108
1,35,80,184
1,30,79,4
1,32,67,192
1,35,86,180
1,35,83,116
1,39,78,44
1,40,75,384
1,40,74,116
1,40,72,200
1,35,78,192
1,37,64,180
1,28,76,4
1,30,68,0
1,28,85,156
1,32,83,192
1,35,78,376
1,40,88,0
1,33,84,156
1,33,81,108
1,33,73,192
1,28,74,4
1,30,76,192
1,33,79,180
1,33,77,108
1,33,79,172
1,28,64,192
1,30,78,184
1,33,77,4
1,33,81,124
1,33,81,184
1,28,73,12
1,30,78,192
1,33,75,0
1,33,81,128
1,33,75,200
1,28,68,192
1,30,74,188
1,35,79,180
1,35,80,144
1,35,76,160
1,30,73,8
1,32,64,0
1,35,82,4
1,35,79,136
1,35,79,184
1,30,72,0
1,32,63,192
1,35,85,180
1,35,76,124
1,35,80,184
1,30,68,192
1,32,66,12
1,35,86,192
1,35,85,136
1,35,80,140
1,39,76,16
1,40,83,12
1,40,79,140
1,40,72,204
1,35,72,4
1,37,70,192
1,40,90,0
1,40,85,240
1,39,80,52
1,37,85,32
1,35,90,48
1,35,82,100
1,35,73,172
1,30,74,0
1,32,69,192
1,35,83,180
1,35,80,128
1,35,76,200
1,30,74,0
1,32,66,192
1,35,83,164
1,35,82,116
1,39,78,16
1,42,73,24
1,35,82,384
1,40,82,72
1,40,76,72
1,40,75,172
1,35,69,8
1,37,73,0
1,40,82,0
1,40,72,112
1,40,65,184
1,35,76,192
1,37,62,16
1,28,86,192
1,28,82,144
1,28,73,136
1,28,67,32
1,28,71,32
1,28,82,16
2,71,100,2632
2,76,80,0
2,80,75,0
2,71,75,136
2,76,60,0
2,80,59,0
2,71,97,136
2,76,82,0
2,80,78,0
2,71,75,136
2,76,69,0
2,80,63,0
2,71,82,132
2,76,75,0
2,80,69,0
2,71,84,228
2,76,82,0
2,80,75,0
2,71,65,160
2,76,66,0
2,80,63,0
2,71,78,128
2,76,87,0
2,80,76,0
2,71,65,156
2,76,56,0
2,80,61,0
2,71,70,132
2,76,72,0
2,80,66,0
2,74,76,180
2,78,73,0
2,81,79,0
2,74,82,156
2,78,78,0
2,81,82,0
2,69,74,148
2,74,74,0
2,76,72,0
2,69,90,112
2,73,84,0
2,76,78,0
2,71,82,124
2,76,97,0
2,80,87,0
2,68,88,1884
2,71,86,4
2,69,81,24
2,73,77,4
2,68,76,200
2,71,89,4
2,73,90,120
2,76,83,0
2,73,86,92
2,76,80,4
2,73,80,128
2,76,76,4
2,76,88,116
2,73,93,4
2,75,69,76
2,71,76,0
2,75,81,96
2,71,88,4
2,73,71,64
2,76,67,0
2,75,77,44
2,71,92,4
2,69,66,16
2,73,84,4
2,76,89,128
2,73,90,4
2,73,90,120
2,76,88,0
2,73,85,112
2,76,83,0
2,78,82,12
2,73,89,0
2,73,85,104
2,76,76,0
2,73,90,60
2,69,96,4
2,68,82,348
2,71,84,0
2,75,85,508
2,71,88,4
2,75,84,124
2,71,92,4
2,75,76,108
2,71,85,4
2,71,89,84
2,75,74,8
2,73,86,28
2,69,74,4
2,69,81,100
2,73,84,4
2,71,76,16
2,68,80,4
2,69,85,8
2,73,84,4
2,71,90,388
2,68,79,4
2,69,79,68
2,66,88,8
2,64,90,16
2,68,86,0
2,63,77,15512
2,69,79,0
2,63,78,44
2,66,78,8
2,63,76,12
2,59,77,0
2,61,80,96
2,64,87,0
2,66,82,0
2,63,73,4
2,68,78,360
2,59,83,8
2,68,82,92
2,59,84,8
2,68,78,76
2,59,82,4
2,59,85,52
2,68,84,4
2,71,90,36
2,62,78,0
2,68,75,868
2,62,78,148
2,66,74,4
2,64,80,4
2,61,83,0
2,57,64,36
2,61,89,24
2,57,86,8
2,63,82,40
2,59,85,0
2,61,77,12
2,64,88,4
2,64,83,56
2,61,81,4
2,61,83,24
2,64,96,4
2,64,91,56
2,61,83,8
2,69,78,36
2,61,83,4
2,57,71,16
2,61,94,12
2,57,76,56
2,61,94,8
2,61,86,52
2,57,74,4
2,59,89,56
2,57,75,4
2,71,86,88
2,69,78,8
2,73,76,8
2,69,68,0
2,75,84,52
2,69,71,4
2,69,66,44
2,75,85,8
2,75,78,76
2,69,68,4
2,75,81,56
2,69,74,4
2,69,64,8
2,76,80,4
2,71,80,16
2,80,77,0
2,69,73,24
2,78,77,0
2,69,69,48
2,78,81,4
2,68,77,24
2,76,87,8
2,68,77,40
2,76,93,12
2,68,88,860
2,71,86,4
2,69,81,24
2,73,77,4
2,68,76,200
2,71,89,4
2,73,90,120
2,76,83,0
2,73,86,92
2,76,80,4
2,73,80,128
2,76,76,4
2,76,88,116
2,73,93,4
2,75,69,76
2,71,76,0
2,75,81,96
2,71,88,4
2,73,71,64
2,76,67,0
2,75,77,44
2,71,92,4
2,69,66,16
2,73,84,4
2,76,89,128
2,73,90,4
2,73,90,120
2,76,88,0
2,73,85,112
2,76,83,0
2,78,82,12
2,75,89,0
2,73,85,104
2,76,76,0
2,73,90,60
2,69,96,4
2,68,82,348
2,71,84,0
2,75,85,508
2,71,88,4
2,75,84,124
2,71,92,4
2,75,76,108
2,71,85,4
2,71,89,84
2,75,74,8
2,73,86,28
2,69,74,4
2,69,81,100
2,73,84,4
2,71,76,16
2,68,80,4
2,69,85,8
2,73,84,4
2,71,90,388
2,68,79,4
2,69,79,68
2,66,88,8
2,64,90,16
2,68,86,0
2,63,97,15512
2,69,99,0
2,63,98,44
2,66,98,8
2,63,96,12
2,59,97,0
2,61,100,96
2,64,107,0
2,66,102,0
2,63,93,4
2,68,98,360
2,59,103,8
2,68,102,92
2,59,104,8
2,68,98,76
2,59,102,4
2,59,105,52
2,68,104,4
2,71,110,36
2,62,98,0
2,68,95,868
2,62,98,148
2,66,94,4
2,64,100,4
2,61,103,0
2,57,84,36
2,61,109,24
2,57,106,8
2,63,102,40
2,59,105,0
2,61,97,12
2,64,108,4
2,64,103,56
2,61,101,4
2,61,103,24
2,64,116,4
2,64,111,56
2,61,103,8
2,69,98,36
2,61,103,4
2,57,91,16
2,61,114,12
2,57,96,56
2,61,114,8
2,61,106,52
2,57,94,4
2,59,109,56
2,57,95,4
2,71,106,88
2,69,98,8
2,73,96,8
2,69,88,0
2,75,104,52
2,69,91,4
2,69,86,44
2,75,105,8
2,75,98,76
2,69,88,4
2,75,101,56
2,69,94,4
2,69,84,8
2,76,100,4
2,71,100,16
2,80,97,0
2,69,93,24
2,78,97,0
2,69,89,48
2,78,101,4
2,68,97,24
2,76,107,8
2,68,97,40
2,76,113,12
2,71,127,32084
2,76,120,0
2,80,115,0
2,71,115,136
2,76,100,0
2,80,99,0
2,71,127,136
2,76,122,0
2,80,118,0
2,71,115,136
2,76,109,0
2,80,103,0
2,71,122,132
2,76,115,0
2,80,109,0
2,71,124,228
2,76,122,0
2,80,115,0
2,71,105,160
2,76,106,0
2,80,103,0
2,71,118,128
2,76,127,0
2,80,116,0
2,71,105,156
2,76,96,0
2,80,101,0
2,71,110,132
2,76,112,0
2,80,106,0
2,74,116,180
2,78,113,0
2,81,119,0
2,74,122,156
2,78,118,0
2,81,122,0
2,69,114,148
2,74,114,0
2,76,112,0
2,69,127,112
2,73,124,0
2,76,118,0
2,71,122,124
2,76,127,0
2,80,127,0
3,56,70,15668
3,59,100,0
3,59,95,68
3,56,74,4
3,57,70,12
3,61,93,0
3,59,95,4
3,56,65,4
3,64,89,328
3,61,70,4
3,64,84,88
3,61,73,4
3,64,83,80
3,61,70,4
3,64,92,72
3,61,75,4
3,59,61,68
3,63,92,0
3,59,70,56
3,63,95,4
3,64,90,48
3,61,64,4
3,59,64,4
3,63,109,12
3,57,67,4
3,61,104,0
3,61,70,1848
3,64,104,0
3,61,66,84
3,64,102,4
3,61,70,88
3,64,96,4
3,66,96,24
3,61,70,4
3,61,70,72
3,64,98,4
3,57,69,24
3,61,82,4
3,56,58,24
3,59,98,0
3,63,98,1860
3,59,68,4
3,63,90,92
3,59,59,4
3,59,64,88
3,63,90,0
3,59,71,64
3,63,93,4
3,57,58,32
3,61,96,0
3,61,96,80
3,57,64,8
3,56,64,8
3,59,100,8
3,61,102,4
3,57,75,8
3,59,107,8
3,56,63,4
3,57,94,40
3,54,67,12
3,56,107,8
3,52,69,4
3,56,68,1252
3,59,100,0
3,59,100,40
3,56,68,4
3,57,64,36
3,61,104,8
3,59,104,8
3,56,64,8
3,61,59,344
3,64,107,0
3,64,100,76
3,61,57,4
3,61,51,76
3,64,93,8
3,61,63,72
3,64,100,0
3,63,98,56
3,59,52,8
3,59,57,64
3,63,88,4
3,61,59,24
3,64,96,8
3,63,104,8
3,59,54,8
3,57,42,4
3,61,96,4
3,64,107,1904
3,61,68,4
3,61,67,76
3,64,100,0
3,64,92,80
3,61,68,4
3,61,63,20
3,66,107,0
3,64,95,48
3,61,78,4
3,61,102,24
3,57,72,4
3,56,62,20
3,59,98,4
3,59,93,264
3,64,111,4
3,68,111,24
3,69,89,12
3,63,77,8
3,66,89,52
3,63,80,4
3,59,74,32
3,63,104,0
3,64,100,752
3,61,61,8
3,63,64,28
3,66,93,0
3,68,98,0
3,64,75,4
3,68,100,68
3,64,74,8
3,68,90,68
3,64,77,4
3,68,93,48
3,62,79,4
