track,note,velocity,time
1,48,111,2672
1,67,102,0
1,79,111,4
1,72,102,0
1,76,111,0
1,55,80,198
1,64,84,16
1,67,102,0
1,76,93,2
1,79,102,0
1,72,102,2
1,60,76,188
1,48,84,18
1,67,93,8
1,72,93,2
1,76,111,0
1,79,111,0
1,55,76,164
1,64,72,24
1,67,102,14
1,76,111,2
1,72,102,2
1,60,84,18
1,67,93,2
1,72,93,4
1,76,111,2
1,79,111,0
1,69,93,24
1,72,93,4
1,77,111,0
1,81,102,0
1,41,111,0
1,69,84,20
1,48,76,2
1,81,84,2
1,77,102,0
1,72,84,0
1,53,76,18
1,69,111,2
1,72,111,4
1,77,127,0
1,81,120,2
1,48,80,176
1,67,80,48
1,79,84,2
1,76,93,0
1,72,80,2
1,67,111,10
1,72,111,4
1,79,111,2
1,76,120,0
1,48,102,6
1,55,80,188
1,64,76,20
1,67,68,6
1,72,93,70
1,60,80,74
1,74,111,4
1,72,93,4
1,74,111,12
1,79,120,2
1,48,102,6
1,76,84,64
1,55,72,102
1,74,127,32
1,79,111,6
1,64,84,0
1,76,102,22
1,74,111,54
1,60,80,10
1,72,120,6
1,67,111,8
1,76,111,0
1,79,111,0
1,43,102,4
1,55,80,174
1,74,111,40
1,77,111,2
1,65,111,2
1,55,80,36
1,48,100,10
1,67,93,0
1,72,102,0
1,76,102,0
1,60,80,148
1,55,72,0
1,60,60,6
1,64,93,8
1,55,72,28
1,67,93,0
1,64,84,26
1,72,84,8
1,48,93,4
1,36,92,34
1,48,92,0
1,55,92,0
1,60,101,0
1,64,101,0
1,48,83,36
1,48,83,18
1,64,92,8
1,60,101,0
1,55,92,2
1,36,92,22
1,55,92,2
1,65,101,4
1,62,101,0
1,48,62,184
1,36,92,22
1,67,101,2
1,55,101,2
1,64,110,0
1,48,92,182
1,57,74,138
1,60,82,22
1,65,92,0
1,41,101,4
1,69,102,0
1,53,83,10
1,48,83,358
1,69,91,28
1,60,92,0
1,65,99,4
1,53,83,2
1,60,83,4
1,67,74,0
1,36,101,2
1,64,101,0
1,48,74,188
1,55,62,180
1,60,83,28
1,36,92,22
1,64,96,0
1,60,101,0
1,55,83,0
1,48,74,194
1,64,110,26
1,55,92,4
1,60,101,0
1,48,83,174
1,55,101,42
1,62,101,2
1,65,101,2
1,48,92,178
1,64,101,40
1,67,101,0
1,55,101,0
1,48,83,150
1,60,92,176
1,65,101,0
1,69,83,2
1,41,92,2
1,53,101,4
1,57,83,0
1,60,101,0
1,69,92,0
1,65,101,0
1,48,92,20
1,36,101,2
1,60,92,8
1,67,101,0
1,64,101,2
1,67,58,458
1,72,101,104
1,74,101,12
1,48,92,18
1,74,105,2
1,79,101,2
1,76,92,86
1,55,74,20
1,67,83,198
1,60,83,156
1,67,101,186
1,72,101,22
1,60,74,22
1,76,92,30
1,70,103,0
1,67,101,8
1,60,74,0
1,69,92,0
1,72,92,2
1,65,83,2
1,53,101,4
1,69,92,88
1,60,74,0
1,72,83,2
1,65,74,0
1,48,92,0
1,72,92,8
1,64,92,0
1,67,101,2
1,55,62,178
1,60,62,186
1,55,58,28
1,67,101,6
1,67,92,6
1,76,101,0
1,72,101,0
1,48,74,4
1,60,74,186
1,76,101,18
1,67,83,2
1,60,74,10
1,72,101,12
1,43,101,20
1,67,110,2
1,76,110,4
1,55,74,184
1,65,101,48
1,74,101,2
1,55,59,28
1,48,83,10
1,72,83,6
1,64,83,2
1,52,66,22
1,64,83,14
1,72,92,24
1,65,83,2
1,53,83,8
1,55,74,72
1,60,83,78
1,64,92,50
1,72,83,0
1,48,83,10
1,48,84,24
1,36,84,0
1,64,71,0
1,72,93,2
1,74,111,4
1,79,93,0
1,76,84,34
1,74,75,4
1,72,93,24
1,79,102,2
1,67,29,0
1,43,75,0
1,79,102,74
1,67,71,78
1,48,59,14
1,79,102,38
1,69,98,88
1,41,93,6
1,53,102,0
1,60,75,170
1,65,93,198
1,69,93,166
1,36,84,20
1,48,84,4
1,67,75,2
1,64,75,0
1,55,63,172
1,60,84,186
1,62,84,166
1,55,93,114
1,36,102,4
1,64,84,0
1,74,104,8
1,79,102,2
1,76,93,40
1,74,89,72
1,72,98,10
1,79,111,34
1,43,93,4
1,67,51,0
1,76,102,84
1,72,93,20
1,48,75,16
1,67,84,48
1,69,84,34
1,72,75,2
1,65,75,2
1,53,102,8
1,41,93,2
1,72,84,80
1,65,75,0
1,69,84,0
1,48,75,22
1,72,75,2
1,36,102,2
1,64,84,4
1,67,93,0
1,67,51,10
1,72,71,2
1,36,84,28
1,74,102,2
1,48,93,8
1,74,111,2
1,79,102,2
1,76,86,70
1,72,55,108
1,79,84,14
1,72,63,14
1,79,75,182
1,76,75,2
1,72,41,14
1,40,102,20
1,70,102,14
1,79,92,0
1,72,75,190
1,41,84,146
1,69,75,8
1,77,84,0
1,48,71,174
1,72,71,12
1,53,75,144
1,65,75,2
1,72,84,4
1,36,84,16
1,72,84,0
1,67,93,0
1,64,93,2
1,48,75,2
1,60,55,188
1,64,84,34
1,67,93,184
1,48,67,84
1,76,111,20
1,67,111,0
1,36,104,2
1,43,59,188
1,48,80,26
1,43,75,40
1,31,84,2
1,67,102,2
1,76,111,2
1,74,102,40
1,65,84,2
1,43,75,72
1,72,102,2
1,64,75,2
1,36,97,4
1,48,75,6
1,48,84,60
1,67,102,34
1,60,93,4
1,48,84,4
1,55,75,190
1,67,93,24
1,60,102,2
1,48,93,0
1,36,93,2
1,55,75,182
1,36,92,4
1,76,92,0
1,79,92,0
1,72,101,0
1,48,92,2
1,67,76,0
1,72,92,178
1,76,101,0
1,79,92,6
1,67,101,62
1,48,74,6
1,79,101,74
1,72,101,14
1,79,92,0
1,76,83,2
1,36,101,2
1,67,83,192
1,76,92,24
1,72,101,0
1,67,92,0
1,67,92,24
1,72,101,0
1,79,83,0
1,48,83,8
1,72,101,4
1,77,83,2
1,53,83,0
1,41,83,2
1,69,83,0
1,72,83,24
1,69,74,2
1,77,83,4
1,53,92,12
1,72,83,4
1,81,66,4
1,69,101,0
1,77,92,0
1,36,83,6
1,48,83,0
1,79,83,0
1,76,92,2
1,72,101,0
1,67,83,196
1,79,100,56
1,72,91,190
1,72,92,2
1,76,83,2
1,79,92,0
1,48,83,8
1,36,83,0
1,67,74,0
1,72,92,2
1,79,92,2
1,76,83,2
1,67,74,8
1,48,74,2
1,79,92,20
1,72,101,0
1,76,83,0
1,48,83,2
1,36,92,0
1,67,74,192
1,77,92,170
1,72,101,0
1,67,83,52
1,48,74,14
1,74,92,18
1,71,92,0
1,55,74,0
1,43,92,2
1,67,70,0
1,74,92,8
1,71,83,0
1,55,74,20
1,71,92,6
1,67,74,0
1,76,92,2
1,36,58,18
1,76,83,2
1,67,101,0
1,72,92,2
1,48,83,2
1,67,42,38
1,72,83,96
1,79,101,96
1,76,101,8
1,72,92,0
1,36,74,8
1,48,83,2
1,67,70,196
1,72,83,164
1,76,83,4
1,48,74,64
1,67,66,0
1,72,83,20
1,76,83,0
1,48,83,6
1,36,83,2
1,67,74,0
1,72,92,32
1,67,92,0
1,76,92,0
1,72,92,24
1,76,101,2
1,67,83,0
1,79,83,0
1,69,74,2
1,72,74,0
1,77,74,2
1,53,74,2
1,41,101,0
1,65,74,0
1,69,92,186
1,72,74,2
1,48,66,12
1,65,50,6
1,53,58,84
1,69,83,90
1,41,92,2
1,72,92,0
1,65,66,0
1,65,74,22
1,69,92,0
1,72,83,2
1,69,74,12
1,53,83,4
1,72,92,0
1,77,70,0
1,65,83,0
1,48,74,14
1,72,83,0
1,79,74,0
1,36,92,4
1,76,74,0
1,67,66,182
1,79,92,174
1,72,92,0
1,76,83,4
1,67,74,174
1,43,92,10
1,55,83,0
1,79,87,0
1,71,83,4
1,69,92,36
1,77,83,2
1,67,83,22
1,76,83,2
1,36,74,8
1,48,83,0
1,64,74,178
1,67,83,186
1,43,83,2
1,72,74,0
1,48,83,30
1,64,83,0
1,72,92,2
1,36,83,2
1,36,96,26
1,48,87,0
1,64,87,6
1,72,105,0
1,67,87,192
1,74,105,2
1,79,105,0
1,76,78,56
1,74,96,10
1,79,78,2
1,74,105,16
1,79,105,2
1,72,105,34
1,79,105,2
1,48,96,138
1,72,87,8
1,65,105,0
1,41,87,4
1,53,87,4
1,60,74,188
1,65,96,172
1,69,87,70
1,53,105,0
1,36,87,10
1,48,87,0
1,64,87,6
1,72,87,0
1,67,87,0
1,60,78,4
1,48,74,32
1,67,96,2
1,72,96,32
1,64,87,0
1,48,96,2
1,36,87,0
1,67,78,172
1,74,105,10
1,79,105,0
1,76,96,56
1,74,105,34
1,79,78,0
1,74,123,38
1,79,114,2
1,72,105,28
1,48,96,2
1,36,87,0
1,79,96,0
1,69,87,18
1,65,87,2
1,41,87,4
1,53,87,2
1,60,74,186
1,69,104,156
1,60,75,68
1,65,92,2
1,41,105,6
1,53,87,0
1,72,105,94
1,67,78,8
1,48,105,2
1,36,87,0
1,64,96,2
1,60,74,160
1,64,96,26
1,67,78,6
1,36,87,6
1,60,78,4
1,48,66,78
1,72,78,0
1,67,74,2
1,36,96,4
1,48,87,2
1,64,70,186
1,67,87,74
1,72,78,84
1,74,87,22
1,76,114,18
1,72,114,4
1,60,66,182
1,52,96,16
1,40,87,0
1,64,87,0
1,67,87,4
1,72,70,0
1,60,78,186
1,72,87,12
1,41,96,2
1,53,96,2
1,69,96,0
1,65,78,194
1,69,96,170
1,72,96,2
1,77,85,4
1,65,87,86
1,53,96,10
1,67,96,0
1,72,87,2
1,48,87,4
1,36,87,4
1,64,78,186
1,67,96,24
1,72,96,2
1,72,50,22
1,74,105,10
1,36,78,8
1,48,87,0
1,74,114,4
1,67,87,4
1,76,87,50
1,72,74,0
1,76,74,0
1,67,78,190
1,55,70,46
1,79,87,0
1,43,78,2
1,71,78,4
1,69,87,60
1,77,105,2
1,43,96,2
1,76,78,50
1,72,87,0
1,48,96,2
1,36,87,0
1,67,74,184
1,60,54,0
1,64,74,78
1,67,87,0
1,48,87,6
1,64,105,30
1,36,87,8
1,48,87,0
1,72,74,50
1,36,87,4
1,64,66,0
1,48,87,4
1,67,66,274
1,72,109,78
1,79,87,74
1,77,101,74
1,48,78,2
1,79,78,92
1,76,109,2
1,36,87,4
1,79,98,98
1,74,105,88
1,79,96,96
1,72,114,68
1,52,78,6
1,79,87,80
1,70,95,14
1,41,87,0
1,65,96,0
1,53,96,2
1,69,96,0
1,60,74,0
1,60,78,24
1,65,96,4
1,69,87,0
1,72,87,22
1,65,96,2
1,60,87,0
1,53,96,2
1,67,78,10
1,64,78,2
1,48,96,2
1,36,87,6
1,60,70,184
1,64,96,178
1,67,78,6
1,60,66,198
1,72,96,2
1,64,87,2
1,36,87,8
1,48,87,2
1,64,87,2
1,67,66,88
1,72,98,90
1,79,101,8
1,74,114,14
1,48,66,4
1,79,114,0
1,76,78,88
1,72,114,74
1,67,87,56
1,64,70,4
1,70,105,94
1,65,96,10
1,69,87,0
1,53,87,2
1,41,96,0
1,60,74,0
1,65,78,198
1,84,96,8
1,79,114,0
1,41,78,4
1,81,87,78
1,84,96,4
1,79,114,2
1,36,87,6
1,48,87,0
1,76,78,186
1,72,74,192
1,67,78,174
1,48,96,32
1,36,87,0
1,76,78,2
1,72,87,0
1,67,74,180
1,72,96,176
1,76,78,4
1,67,74,176
1,72,87,184
1,76,78,6
1,67,74,162
1,79,87,8
1,48,87,2
1,74,105,2
1,76,63,62
1,72,74,6
1,41,96,8
1,53,105,2
1,69,74,2
1,72,74,0
1,65,70,4
1,69,96,12
1,72,78,2
1,53,96,34
1,65,70,4
1,48,87,2
1,36,78,0
1,72,74,4
1,67,87,4
1,64,62,0
1,72,87,8
1,67,87,0
1,48,74,50
1,64,70,4
1,36,87,30
1,48,96,2
1,79,96,8
1,74,105,2
1,76,74,48
1,76,87,14
1,79,87,8
1,74,105,20
1,72,96,26
1,43,105,2
1,55,78,0
1,76,105,8
1,67,96,2
1,65,96,50
1,74,105,2
1,43,96,8
1,64,87,34
1,72,87,0
1,48,87,16
1,36,78,0
1,64,74,20
1,67,78,2
1,48,70,8
1,60,66,166
1,67,96,26
1,64,96,0
1,60,62,8
1,48,87,12
1,36,70,72
1,62,96,6
1,67,96,8
1,48,87,172
1,55,78,4
1,72,101,18
1,67,92,0
1,36,83,4
1,48,92,4
1,64,58,4
1,67,92,0
1,72,92,4
1,64,66,0
1,67,101,4
1,72,101,2
1,64,74,12
1,79,101,26
1,74,93,4
1,67,110,0
1,76,101,42
1,48,83,116
1,41,101,2
1,72,83,0
1,53,92,2
1,77,74,2
1,69,66,0
1,72,101,2
1,77,83,2
1,53,101,84
1,67,74,6
1,76,70,8
1,76,92,14
1,72,83,0
1,67,101,4
1,48,92,2
1,36,83,2
1,67,74,86
1,72,85,104
1,74,110,94
1,76,110,26
1,48,74,6
1,36,83,0
1,67,59,22
1,76,83,26
1,79,83,2
1,67,66,168
1,48,83,4
1,36,92,66
1,76,101,2
1,79,92,0
1,67,70,196
1,77,83,64
1,74,92,0
1,48,92,18
1,76,101,2
1,72,101,0
1,43,92,6
1,55,83,2
1,71,83,2
1,74,70,0
1,67,70,184
1,71,74,174
1,74,83,4
1,76,83,24
1,72,83,2
1,55,101,10
1,48,83,18
1,36,83,4
1,67,83,0
1,72,92,2
1,76,101,0
1,72,74,26
1,76,70,2
1,67,74,188
1,72,83,24
1,76,83,2
1,48,83,2
1,36,92,2
1,67,66,180
1,72,83,94
1,76,74,2
1,48,70,0
1,67,62,4
1,72,83,32
1,48,74,2
1,36,83,0
1,76,92,0
1,67,70,180
1,79,101,2
1,74,110,2
1,76,83,72
1,48,83,12
1,72,110,0
1,53,92,6
1,41,92,0
1,72,83,6
1,77,74,2
1,69,62,194
1,77,92,12
1,72,92,0
1,53,92,62
1,69,62,4
1,72,92,4
1,41,92,2
1,77,92,0
1,53,92,2
1,69,83,0
1,79,110,12
1,84,101,2
1,81,92,44
1,41,92,26
1,53,92,0
1,84,101,2
1,81,110,0
1,79,74,10
1,76,92,0
1,48,92,6
1,36,92,2
1,72,62,12
1,72,70,22
1,74,101,0
1,76,66,18
1,36,70,22
1,79,101,0
1,72,92,2
1,52,83,2
1,79,92,6
1,71,92,2
1,55,83,4
1,43,83,2
1,69,101,26
1,77,101,2
1,43,92,10
1,55,92,0
1,36,92,8
1,48,92,0
1,76,92,8
1,67,92,0
1,72,74,18
1,79,66,0
1,67,42,4
1,48,74,2
1,79,74,4
1,72,66,2
1,48,83,14
1,36,83,4
1,67,35,18
1,72,83,92
1,79,74,2
1,72,110,16
1,79,110,2
1,76,92,30
1,72,83,0
1,79,83,0
1,36,101,6
1,48,92,0
1,67,74,0
1,79,92,184
1,72,92,0
1,76,83,4
1,48,83,4
1,67,66,0
1,76,92,46
1,72,92,0
1,48,83,0
1,79,92,0
1,36,92,2
1,67,74,186
1,79,92,12
1,74,92,0
1,76,92,2
1,67,58,4
1,48,92,30
1,67,74,2
1,72,101,2
1,76,92,0
1,41,92,0
1,53,83,4
1,77,92,8
1,72,83,2
1,69,70,4
1,69,92,20
1,77,92,2
1,72,92,0
1,53,83,64
1,72,74,20
1,76,83,6
1,67,70,0
1,72,110,26
1,67,101,0
1,76,101,6
1,48,83,16
1,36,83,0
1,64,70,4
1,67,66,84
1,72,110,12
1,48,74,24
1,74,101,70
1,79,92,10
1,72,101,4
1,76,101,2
1,48,83,4
1,36,92,2
1,67,66,0
1,79,92,0
1,72,110,0
1,76,101,4
1,67,74,0
1,79,92,178
1,72,101,0
1,76,92,4
1,67,66,188
1,67,83,22
1,74,110,4
1,76,101,2
1,79,92,0
1,76,101,30
1,67,101,0
1,72,110,2
1,48,83,10
1,43,83,20
1,55,83,2
1,74,92,2
1,71,101,4
1,67,70,0
1,71,92,4
1,74,101,4
1,55,83,56
1,48,74,24
1,36,92,2
1,76,101,8
1,72,92,0
1,67,74,4
1,67,58,36
1,76,92,186
1,72,92,0
