track,note,velocity,time
3,69,64,4320
3,69,0,179
3,69,64,1
3,69,0,179
3,69,64,1
3,69,0,119
3,71,64,1
3,71,0,179
3,69,64,1
3,69,0,179
3,67,64,1
3,67,0,119
3,69,64,1
3,69,0,179
3,66,64,1
3,66,0,179
3,64,64,1
3,64,0,119
3,62,64,1
3,62,0,359
3,66,64,1
3,66,0,119
3,69,64,1
3,69,0,359
3,69,64,1
3,69,0,119
3,71,64,1
3,71,0,179
3,69,64,1
3,69,0,179
3,67,64,1
3,67,0,119
3,69,64,1
3,69,0,599
3,66,64,61
3,66,0,179
3,67,64,1
3,67,0,119
3,69,64,1
3,69,0,179
3,69,64,1
3,69,0,179
3,69,64,1
3,69,0,119
3,71,64,1
3,71,0,179
3,69,64,1
3,69,0,179
3,67,64,1
3,67,0,119
3,69,64,1
3,69,0,179
3,66,64,1
3,66,0,179
3,64,64,1
3,64,0,119
3,62,64,1
3,62,0,359
3,66,64,1
3,66,0,119
3,69,64,1
3,69,0,359
3,66,64,1
3,66,0,119
3,67,64,1
3,67,0,179
3,67,64,1
3,67,0,179
3,66,64,1
3,66,0,119
3,64,64,1
3,64,0,599
3,66,64,61
3,66,0,179
3,67,64,1
3,67,0,119
3,69,64,1
3,69,0,179
3,69,64,1
3,69,0,179
3,69,64,1
3,69,0,119
3,71,64,1
3,71,0,179
3,69,64,1
3,69,0,179
3,67,64,1
3,67,0,119
3,69,64,1
3,69,0,179
3,66,64,1
3,66,0,179
3,64,64,1
3,64,0,119
3,62,64,1
3,62,0,359
3,66,64,1
3,66,0,119
3,69,64,1
3,69,0,359
3,69,64,1
3,69,0,119
3,71,64,1
3,71,0,179
3,69,64,1
3,69,0,179
3,67,64,1
3,67,0,119
3,69,64,1
3,66,64,660
3,66,0,179
3,69,0,0
3,66,64,1
3,66,0,119
3,67,64,1
3,67,0,179
3,67,64,1
3,67,0,179
3,66,64,1
3,64,64,120
3,66,0,59
3,64,0,300
3,64,64,1
3,64,0,119
3,66,64,1
3,66,0,59
3,66,64,1
3,66,0,119
3,66,64,1
3,66,0,179
3,64,64,1
3,64,0,119
3,62,64,1
3,62,0,359
3,66,64,1
3,66,0,119
3,67,64,1
3,67,0,179
3,67,64,1
3,67,0,179
3,66,64,1
3,66,0,119
3,64,64,1
3,64,0,59
3,64,64,1
3,64,0,119
3,62,64,1
3,62,0,179
3,61,64,1
3,61,0,119
3,62,64,1
3,62,0,599
3,69,64,361
3,69,0,179
3,69,64,1
3,69,0,179
3,69,64,1
3,69,0,119
3,71,64,1
3,71,0,179
3,69,64,1
3,69,0,179
3,67,64,1
3,67,0,119
3,69,64,1
3,69,0,179
3,66,64,1
3,66,0,179
3,64,64,1
3,64,0,119
3,62,64,1
3,62,0,359
3,66,64,1
3,66,0,119
3,69,64,1
3,69,0,359
3,69,64,1
3,69,0,119
3,71,64,1
3,71,0,179
3,69,64,1
3,69,0,179
3,67,64,1
3,67,0,119
3,69,64,1
3,69,0,599
3,66,64,61
3,66,0,179
3,67,64,1
3,67,0,119
3,69,64,1
3,69,0,179
3,69,64,1
3,69,0,179
3,69,64,1
3,69,0,119
3,71,64,1
3,71,0,179
3,69,64,1
3,69,0,179
3,67,64,1
3,67,0,119
3,69,64,1
3,69,0,179
3,66,64,1
3,66,0,179
3,64,64,1
3,64,0,119
3,62,64,1
3,62,0,359
3,66,64,1
3,66,0,119
3,69,64,1
3,69,0,359
3,66,64,1
3,66,0,119
3,67,64,1
3,67,0,179
3,67,64,1
3,67,0,179
3,66,64,1
3,66,0,119
3,64,64,1
3,64,0,599
3,66,64,61
3,66,0,179
3,67,64,1
3,67,0,119
3,69,64,1
3,69,0,179
3,69,64,1
3,69,0,179
3,69,64,1
3,69,0,119
3,71,64,1
3,71,0,179
3,69,64,1
3,69,0,179
3,67,64,1
3,67,0,119
3,69,64,1
3,69,0,179
3,66,64,1
3,66,0,179
3,64,64,1
3,64,0,119
3,62,64,1
3,62,0,359
3,66,64,1
3,66,0,119
3,69,64,1
3,69,0,359
3,69,64,1
3,69,0,119
3,71,64,1
3,71,0,179
3,69,64,1
3,69,0,179
3,67,64,1
3,67,0,119
3,69,64,1
3,66,64,660
3,66,0,179
3,69,0,0
3,66,64,1
3,66,0,119
3,67,64,1
3,67,0,179
3,67,64,1
3,67,0,179
3,66,64,1
3,64,64,120
3,66,0,59
3,64,0,300
3,64,64,1
3,64,0,119
3,66,64,1
3,66,0,59
3,66,64,1
3,66,0,119
3,66,64,1
3,66,0,179
3,64,64,1
3,64,0,119
3,62,64,1
3,62,0,359
3,66,64,1
3,66,0,119
3,67,64,1
3,67,0,179
3,67,64,1
3,67,0,179
3,66,64,1
3,66,0,119
3,64,64,1
3,64,0,59
3,64,64,1
3,64,0,119
3,62,64,1
3,62,0,179
3,61,64,1
3,61,0,119
3,62,64,1
3,62,0,599
3,69,64,361
3,69,0,179
3,69,64,1
3,69,0,179
3,69,64,1
3,69,0,119
3,71,64,1
3,71,0,179
3,69,64,1
3,69,0,179
3,67,64,1
3,67,0,119
3,69,64,1
3,69,0,179
3,66,64,1
3,66,0,179
3,64,64,1
3,64,0,119
3,62,64,1
3,62,0,359
3,66,64,1
3,66,0,119
3,69,64,1
3,69,0,359
3,69,64,1
3,69,0,119
3,71,64,1
3,71,0,179
3,69,64,1
3,69,0,179
3,67,64,1
3,67,0,119
3,69,64,1
3,69,0,599
3,66,64,61
3,66,0,179
3,67,64,1
3,67,0,119
3,69,64,1
3,69,0,179
3,69,64,1
3,69,0,179
3,69,64,1
3,69,0,119
3,71,64,1
3,71,0,179
3,69,64,1
3,69,0,179
3,67,64,1
3,67,0,119
3,69,64,1
3,69,0,179
3,66,64,1
3,66,0,179
3,64,64,1
3,64,0,119
3,62,64,1
3,62,0,359
3,66,64,1
3,66,0,119
3,69,64,1
3,69,0,359
3,66,64,1
3,66,0,119
3,67,64,1
3,67,0,179
3,67,64,1
3,67,0,179
3,66,64,1
3,66,0,119
3,64,64,1
3,64,0,599
3,66,64,61
3,66,0,179
3,67,64,1
3,67,0,119
3,69,64,1
3,69,0,179
3,69,64,1
3,69,0,179
3,69,64,1
3,69,0,119
3,71,64,1
3,71,0,179
3,69,64,1
3,69,0,179
3,67,64,1
3,67,0,119
3,69,64,1
3,69,0,179
3,66,64,1
3,66,0,179
3,64,64,1
3,64,0,119
3,62,64,1
3,62,0,359
3,66,64,1
3,66,0,119
3,69,64,1
3,69,0,359
3,69,64,1
3,69,0,119
3,71,64,1
3,71,0,179
3,69,64,1
3,69,0,179
3,67,64,1
3,67,0,119
3,69,64,1
3,66,64,660
3,66,0,179
3,69,0,0
3,66,64,1
3,66,0,119
3,67,64,1
3,67,0,179
3,67,64,1
3,67,0,179
3,66,64,1
3,64,64,120
3,66,0,59
3,64,0,300
3,64,64,1
3,64,0,119
3,66,64,1
3,66,0,59
3,66,64,1
3,66,0,119
3,66,64,1
3,66,0,179
3,64,64,1
3,64,0,119
3,62,64,1
3,62,0,359
3,66,64,1
3,66,0,119
3,67,64,1
3,67,0,179
3,67,64,1
3,67,0,179
3,66,64,1
3,66,0,119
3,64,64,1
3,64,0,59
3,64,64,1
3,64,0,119
3,62,64,1
3,62,0,179
3,61,64,1
3,61,0,119
3,62,64,1
3,62,0,839
3,66,64,1
3,66,0,119
3,67,64,1
3,67,0,179
3,67,64,1
3,67,0,179
3,66,64,1
3,66,0,119
3,64,64,1
3,64,0,59
3,64,64,1
3,64,0,119
3,62,64,1
3,62,0,179
3,61,64,1
3,61,0,119
3,62,64,1
3,62,0,1079
4,66,64,360
4,66,0,119
4,67,64,1
4,59,64,0
4,59,0,179
4,67,0,0
4,59,64,1
4,67,64,0
4,67,0,179
4,59,0,0
4,66,64,1
4,62,64,0
4,62,0,119
4,66,0,0
4,62,64,1
4,64,64,0
4,64,0,179
4,62,0,0
4,62,64,1
4,64,64,0
4,64,0,179
4,62,0,0
4,61,64,1
4,64,64,0
4,64,0,119
4,61,0,0
4,66,64,1
4,64,64,0
4,64,0,59
4,66,0,0
4,66,64,1
4,64,64,0
4,64,0,119
4,66,0,0
4,66,64,1
4,62,64,0
4,62,0,179
4,66,0,0
4,61,64,1
4,64,64,0
4,64,0,119
4,61,0,0
4,62,64,1
4,62,0,359
4,66,64,1
4,62,64,0
4,62,0,119
4,66,0,0
4,62,64,1
4,67,64,0
4,67,0,179
4,62,0,0
4,62,64,1
4,67,64,0
4,67,0,179
4,62,0,0
4,66,64,1
4,62,64,0
4,62,0,119
4,66,0,0
4,64,64,1
4,64,0,59
4,64,64,1
4,64,0,179
4,62,64,1
4,62,0,119
4,61,64,1
4,61,0,119
4,62,64,1
4,62,0,959
4,66,64,1
4,62,64,0
4,62,0,179
4,66,0,0
4,66,64,1
4,62,64,0
4,62,0,179
4,66,0,0
4,66,64,1
4,62,64,0
4,62,0,119
4,66,0,0
4,67,64,1
4,62,64,0
4,62,0,179
4,67,0,0
4,62,64,1
4,59,64,0
4,59,0,179
4,62,0,0
4,62,64,1
4,59,64,0
4,59,0,119
4,62,0,0
4,66,64,1
4,57,64,0
4,57,0,179
4,66,0,0
4,62,64,1
4,57,64,0
4,57,0,179
4,62,0,0
4,62,64,1
4,57,64,0
4,57,0,119
4,62,0,0
4,62,64,1
4,62,0,359
4,66,64,1
4,66,0,119
4,66,64,1
4,62,64,0
4,62,0,179
4,66,0,0
4,66,64,1
4,62,64,0
4,62,0,179
4,66,0,0
4,66,64,1
4,62,64,0
4,62,0,119
4,66,0,0
4,67,64,1
4,62,64,0
4,62,0,179
4,67,0,0
4,62,64,1
4,59,64,0
4,59,0,179
4,62,0,0
4,62,64,1
4,59,64,0
4,59,0,119
4,62,0,0
4,69,64,1
4,69,0,599
4,66,64,61
4,66,0,179
4,67,64,1
4,67,0,119
4,66,64,1
4,62,64,0
4,62,0,179
4,66,0,0
4,66,64,1
4,62,64,0
4,62,0,179
4,66,0,0
4,66,64,1
4,62,64,0
4,62,0,119
4,66,0,0
4,67,64,1
4,62,64,0
4,62,0,179
4,67,0,0
4,62,64,1
4,59,64,0
4,59,0,179
4,62,0,0
4,62,64,1
4,59,64,0
4,59,0,119
4,62,0,0
4,66,64,1
4,57,64,0
4,57,0,179
4,66,0,0
4,62,64,1
4,57,64,0
4,57,0,179
4,62,0,0
4,62,64,1
4,57,64,0
4,57,0,119
4,62,0,0
4,62,64,1
4,62,0,359
4,66,64,1
4,66,0,119
4,66,64,1
4,62,64,0
4,62,0,179
4,66,0,0
4,66,64,1
4,62,64,0
4,62,0,179
4,66,0,0
4,57,64,1
4,62,64,0
4,62,0,119
4,57,0,0
4,59,64,1
4,62,64,0
4,62,0,179
4,59,0,0
4,62,64,1
4,59,64,0
4,59,0,179
4,62,0,0
4,62,64,1
4,59,64,0
4,59,0,119
4,62,0,0
4,64,64,1
4,64,0,599
4,66,64,61
4,66,0,179
4,67,64,1
4,67,0,119
4,66,64,1
4,62,64,0
4,62,0,179
4,66,0,0
4,66,64,1
4,62,64,0
4,62,0,179
4,66,0,0
4,66,64,1
4,62,64,0
4,62,0,119
4,66,0,0
4,67,64,1
4,62,64,0
4,62,0,179
4,67,0,0
4,62,64,1
4,59,64,0
4,59,0,179
4,62,0,0
4,62,64,1
4,59,64,0
4,59,0,119
4,62,0,0
4,66,64,1
4,57,64,0
4,57,0,179
4,66,0,0
4,62,64,1
4,57,64,0
4,57,0,179
4,62,0,0
4,62,64,1
4,57,64,0
4,57,0,119
4,62,0,0
4,62,64,1
4,62,0,359
4,66,64,1
4,66,0,119
4,66,64,1
4,62,64,0
4,62,0,179
4,66,0,0
4,66,64,1
4,62,64,0
4,62,0,179
4,66,0,0
4,66,64,1
4,62,64,0
4,62,0,119
4,66,0,0
4,67,64,1
4,62,64,0
4,62,0,179
4,67,0,0
4,62,64,1
4,59,64,0
4,59,0,179
4,62,0,0
4,62,64,1
4,59,64,0
4,59,0,119
4,62,0,0
4,69,64,1
4,69,0,599
4,66,64,241
4,66,0,119
4,62,64,1
4,59,64,0
4,59,0,179
4,62,0,0
4,62,64,1
4,59,64,0
4,59,0,179
4,62,0,0
4,62,64,1
4,59,64,0
4,64,64,120
4,59,0,59
4,62,0,0
4,64,0,300
4,64,64,1
4,64,0,119
4,62,64,1
4,57,64,0
4,57,0,59
4,62,0,0
4,62,64,1
4,57,64,0
4,57,0,119
4,62,0,0
4,58,64,1
4,54,64,0
4,54,0,179
4,58,0,0
4,58,64,1
4,54,64,0
4,54,0,119
4,58,0,0
4,62,64,1
4,62,0,359
4,66,64,1
4,66,0,119
4,62,64,1
4,59,64,0
4,59,0,179
4,62,0,0
4,62,64,1
4,59,64,0
4,59,0,179
4,62,0,0
4,62,64,1
4,59,64,0
4,59,0,119
4,62,0,0
4,61,64,1
4,57,64,0
4,57,0,179
4,61,0,0
4,57,64,1
4,52,64,0
4,52,0,179
4,57,0,0
4,57,64,1
4,52,64,0
4,52,0,119
4,57,0,0
4,62,64,1
4,62,0,599
4,66,64,361
4,62,64,0
4,62,0,179
4,66,0,0
4,66,64,1
4,62,64,0
4,62,0,179
4,66,0,0
4,66,64,1
4,62,64,0
4,62,0,119
4,66,0,0
4,67,64,1
4,62,64,0
4,62,0,179
4,67,0,0
4,62,64,1
4,59,64,0
4,59,0,179
4,62,0,0
4,62,64,1
4,59,64,0
4,59,0,119
4,62,0,0
4,66,64,1
4,57,64,0
4,57,0,179
4,66,0,0
4,62,64,1
4,57,64,0
4,57,0,179
4,62,0,0
4,62,64,1
4,57,64,0
4,57,0,119
4,62,0,0
4,62,64,1
4,62,0,359
4,66,64,1
4,66,0,119
4,66,64,1
4,62,64,0
4,62,0,179
4,66,0,0
4,66,64,1
4,62,64,0
4,62,0,179
4,66,0,0
4,66,64,1
4,62,64,0
4,62,0,119
4,66,0,0
4,67,64,1
4,62,64,0
4,62,0,179
4,67,0,0
4,62,64,1
4,59,64,0
4,59,0,179
4,62,0,0
4,62,64,1
4,59,64,0
4,59,0,119
4,62,0,0
4,69,64,1
4,69,0,599
4,66,64,61
4,66,0,179
4,67,64,1
4,67,0,119
4,66,64,1
4,62,64,0
4,62,0,179
4,66,0,0
4,66,64,1
4,62,64,0
4,62,0,179
4,66,0,0
4,66,64,1
4,62,64,0
4,62,0,119
4,66,0,0
4,67,64,1
4,62,64,0
4,62,0,179
4,67,0,0
4,62,64,1
4,59,64,0
4,59,0,179
4,62,0,0
4,62,64,1
4,59,64,0
4,59,0,119
4,62,0,0
4,66,64,1
4,57,64,0
4,57,0,179
4,66,0,0
4,62,64,1
4,57,64,0
4,57,0,179
4,62,0,0
4,62,64,1
4,57,64,0
4,57,0,119
4,62,0,0
4,62,64,1
4,62,0,359
4,66,64,1
4,66,0,119
4,66,64,1
4,62,64,0
4,62,0,179
4,66,0,0
4,66,64,1
4,62,64,0
4,62,0,179
4,66,0,0
4,57,64,1
4,62,64,0
4,62,0,119
4,57,0,0
4,59,64,1
4,62,64,0
4,62,0,179
4,59,0,0
4,62,64,1
4,59,64,0
4,59,0,179
4,62,0,0
4,62,64,1
4,59,64,0
4,59,0,119
4,62,0,0
4,64,64,1
4,64,0,599
4,66,64,61
4,66,0,179
4,67,64,1
4,67,0,119
4,66,64,1
4,62,64,0
4,62,0,179
4,66,0,0
4,66,64,1
4,62,64,0
4,62,0,179
4,66,0,0
4,66,64,1
4,62,64,0
4,62,0,119
4,66,0,0
4,67,64,1
4,62,64,0
4,62,0,179
4,67,0,0
4,62,64,1
4,59,64,0
4,59,0,179
4,62,0,0
4,62,64,1
4,59,64,0
4,59,0,119
4,62,0,0
4,66,64,1
4,57,64,0
4,57,0,179
4,66,0,0
4,62,64,1
4,57,64,0
4,57,0,179
4,62,0,0
4,62,64,1
4,57,64,0
4,57,0,119
4,62,0,0
4,62,64,1
4,62,0,359
4,66,64,1
4,66,0,119
4,66,64,1
4,62,64,0
4,62,0,179
4,66,0,0
4,66,64,1
4,62,64,0
