track,note,velocity,time
3,72,110,2112
3,72,0,160
3,72,110,32
3,72,0,160
3,69,110,32
3,69,0,256
3,69,110,32
3,69,0,94
3,69,110,2
3,69,0,160
3,65,110,32
3,65,0,160
3,60,110,32
3,60,0,160
3,62,110,32
3,62,0,160
3,65,110,32
3,65,0,160
3,65,110,32
3,65,0,160
3,69,110,32
3,69,0,832
3,69,110,32
3,69,0,94
3,69,110,2
3,69,0,94
3,69,110,2
3,69,0,94
3,69,110,2
3,69,0,160
3,65,110,32
3,65,0,160
3,65,110,32
3,65,0,160
3,62,110,32
3,62,0,160
3,60,110,32
3,60,0,160
3,60,110,32
3,60,0,94
3,60,110,2
3,60,0,94
3,62,110,2
3,62,0,160
3,65,110,32
3,65,0,256
3,67,110,32
3,67,0,94
3,65,110,2
3,65,0,912
3,72,110,48
3,72,0,160
3,72,110,32
3,72,0,160
3,69,110,32
3,69,0,160
3,70,110,32
3,70,0,160
3,69,110,32
3,69,0,160
3,65,110,32
3,65,0,160
3,60,110,32
3,60,0,94
3,60,110,2
3,60,0,94
3,62,110,2
3,62,0,94
3,65,110,2
3,65,0,256
3,65,110,32
3,65,0,160
3,67,110,32
3,67,0,912
3,65,110,48
3,65,0,160
3,65,110,32
3,65,0,336
3,62,110,48
3,62,0,94
3,62,110,2
3,62,0,94
3,62,110,2
3,62,0,160
3,60,110,32
3,60,0,160
3,65,110,32
3,65,0,160
3,65,110,32
3,65,0,256
3,62,110,32
3,62,0,94
3,62,110,2
3,62,0,160
3,62,110,32
3,62,0,192
3,60,110,0
3,60,0,336
3,62,110,48
3,62,0,160
3,65,110,32
3,65,0,160
3,67,110,32
3,67,0,160
3,65,110,32
3,65,0,1312
3,72,110,224
3,72,0,160
3,72,110,32
3,72,0,160
3,69,110,32
3,69,0,160
3,69,110,32
3,69,0,160
3,69,110,32
3,69,0,160
3,65,110,32
3,65,0,160
3,60,110,32
3,60,0,160
3,62,110,32
3,62,0,160
3,65,110,32
3,65,0,160
3,65,110,32
3,65,0,160
3,69,110,32
3,69,0,912
3,69,110,48
3,69,0,160
3,69,110,32
3,69,0,94
3,65,110,2
3,65,0,256
3,65,110,32
3,65,0,160
3,62,110,32
3,62,0,96
3,60,110,0
3,60,0,256
3,60,110,32
3,60,0,94
3,60,110,2
3,60,0,94
3,62,110,2
3,62,0,160
3,65,110,32
3,65,0,256
3,67,110,32
3,67,0,94
3,65,110,2
3,65,0,912
3,72,110,48
3,72,0,94
3,72,110,2
3,72,0,94
3,72,110,2
3,72,0,160
3,69,110,32
3,69,0,160
3,69,110,32
3,69,0,94
3,69,110,2
3,69,0,94
3,67,110,2
3,67,0,160
3,65,110,32
3,65,0,160
3,60,110,32
3,60,0,94
3,60,110,2
3,60,0,94
3,62,110,2
3,62,0,160
3,65,110,32
3,65,0,160
3,65,110,32
3,65,0,160
3,67,110,32
3,67,0,736
3,65,110,32
3,65,0,160
3,65,110,32
3,65,0,160
3,65,110,32
3,65,0,336
3,62,110,48
3,62,0,94
3,62,110,2
3,62,0,94
3,62,110,2
3,62,0,160
3,60,110,32
3,60,0,256
3,65,110,32
3,65,0,94
3,65,110,2
3,65,0,96
3,62,110,0
3,62,0,256
3,62,110,32
3,62,0,160
3,62,110,32
3,62,0,160
3,60,110,32
3,60,0,336
3,62,110,48
3,62,0,160
3,65,110,32
3,65,0,160
3,67,110,32
3,67,0,160
3,65,110,32
3,65,0,1312
4,65,110,0
4,57,110,192
4,60,110,0
4,60,0,160
4,57,0,0
4,57,110,32
4,60,110,0
4,60,0,160
4,57,0,0
4,65,0,0
4,60,110,32
4,53,110,192
4,57,110,0
4,57,0,160
4,53,0,0
4,60,0,0
4,55,110,32
4,58,110,0
4,62,110,0
4,62,0,142
4,64,110,2
4,58,0,16
4,55,0,0
4,64,0,30
4,65,110,2
4,57,110,192
4,60,110,0
4,60,0,160
4,57,0,0
4,57,110,32
4,60,110,0
4,60,0,160
4,57,0,0
4,65,0,0
4,60,110,32
4,55,110,192
4,58,110,0
4,58,0,160
4,55,0,0
4,60,0,0
4,72,110,32
4,72,0,160
4,72,110,32
4,72,0,160
4,60,110,32
4,69,110,0
4,60,0,160
4,57,110,32
4,60,110,0
4,69,0,64
4,69,110,32
4,69,0,94
4,60,0,0
4,57,0,0
4,69,110,2
4,69,0,160
4,57,110,32
4,60,110,0
4,65,110,0
4,65,0,160
4,60,0,0
4,57,0,0
4,57,110,32
4,60,110,0
4,60,0,160
4,57,0,0
4,62,110,32
4,62,0,160
4,58,110,32
4,62,110,0
4,65,110,0
4,65,0,160
4,62,0,0
4,58,0,0
4,58,110,32
4,62,110,0
4,65,110,0
4,65,0,160
4,62,0,0
4,58,0,0
4,69,110,32
4,60,110,192
4,65,110,0
4,65,0,160
4,60,0,0
4,60,110,32
4,65,110,0
4,65,0,160
4,60,0,0
4,60,110,224
4,65,110,0
4,69,0,94
4,69,110,2
4,69,0,94
4,65,0,0
4,60,0,0
4,60,110,2
4,65,110,0
4,69,110,0
4,69,0,94
4,69,110,2
4,65,0,64
4,60,0,0
4,69,0,30
4,69,110,2
4,69,0,160
4,57,110,32
4,60,110,0
4,65,110,0
4,65,0,160
4,60,0,0
4,57,0,0
4,57,110,32
4,60,110,0
4,65,110,0
4,65,0,160
4,60,0,0
4,57,0,0
4,62,110,32
4,62,0,160
4,53,110,32
4,57,110,0
4,60,110,0
4,60,0,160
4,57,0,0
4,53,0,0
4,53,110,32
4,57,110,0
4,60,110,0
4,60,0,94
4,60,110,2
4,57,0,64
4,53,0,0
4,60,0,30
4,62,110,2
4,62,0,160
4,58,110,32
4,62,110,0
4,65,110,0
4,62,0,160
4,58,0,0
4,58,110,32
4,62,110,0
4,65,0,64
4,62,0,30
4,58,0,0
4,58,110,2
4,67,110,0
4,67,0,94
4,58,0,0
4,65,110,2
4,57,110,192
4,60,110,0
4,60,0,160
4,57,0,0
4,57,110,32
4,60,110,0
4,60,0,160
4,57,0,0
4,57,110,224
4,60,110,0
4,60,0,160
4,57,0,0
4,65,0,0
4,72,110,32
4,72,0,160
4,72,110,32
4,72,0,160
4,60,110,32
4,65,110,0
4,69,110,0
4,69,0,160
4,65,0,0
4,60,0,0
4,62,110,32
4,65,110,0
4,70,110,0
4,70,0,160
4,65,0,0
4,62,0,0
4,69,110,32
4,69,0,160
4,60,110,32
4,63,110,0
4,65,110,0
4,65,0,160
4,63,0,0
4,60,0,0
4,60,110,32
4,60,0,94
4,60,110,2
4,60,0,94
4,62,110,2
4,62,0,94
4,65,110,2
4,65,0,256
4,65,110,32
4,65,0,160
4,67,110,32
4,60,110,192
4,64,110,0
4,64,0,160
4,60,0,0
4,60,110,32
4,64,110,0
4,64,0,160
4,60,0,0
4,60,110,224
4,64,110,0
4,64,0,160
4,60,0,0
4,67,0,0
4,65,110,32
4,65,0,160
4,65,110,32
4,53,110,192
4,57,110,0
4,57,0,160
4,53,0,0
4,65,0,0
4,53,110,32
4,57,110,0
4,62,110,0
4,62,0,94
4,62,110,2
4,57,0,64
4,53,0,0
4,62,0,30
4,62,110,2
4,62,0,160
4,52,110,32
4,57,110,0
4,60,110,0
4,60,0,160
4,57,0,0
4,52,0,0
4,65,110,32
4,65,0,160
4,65,110,32
4,53,110,192
4,57,110,0
4,65,0,94
4,62,110,2
4,57,0,64
4,53,0,0
4,62,0,30
4,53,110,2
4,57,110,0
4,62,110,0
4,62,0,160
4,57,0,0
4,53,0,0
4,62,110,32
4,62,0,160
4,53,110,32
4,57,110,0
4,60,110,0
4,57,0,160
4,53,0,0
4,53,110,32
4,57,110,0
4,60,0,144
4,57,0,16
4,53,0,0
4,62,110,32
4,62,0,160
4,58,110,32
4,62,110,0
4,65,110,0
4,65,0,160
4,62,0,0
4,58,0,0
4,58,110,32
4,64,110,0
4,67,110,0
4,67,0,160
4,64,0,0
4,58,0,0
4,60,110,32
4,53,110,192
4,57,110,0
4,57,0,160
4,53,0,0
4,60,0,0
4,55,110,32
4,58,110,0
4,62,110,0
4,62,0,142
4,64,110,2
4,58,0,16
4,55,0,0
4,64,0,30
4,65,110,2
4,57,110,192
4,60,110,0
4,60,0,160
4,57,0,0
4,57,110,32
4,60,110,0
4,60,0,160
4,57,0,0
4,65,0,0
4,60,110,32
4,55,110,192
4,58,110,0
4,58,0,160
4,55,0,0
4,60,0,0
4,72,110,32
4,72,0,160
4,72,110,32
4,72,0,160
4,60,110,32
4,65,110,0
4,69,110,0
4,69,0,160
4,65,0,0
4,60,0,0
4,60,110,32
4,65,110,0
4,69,110,0
4,69,0,160
4,65,0,0
4,60,0,0
4,69,110,32
4,69,0,160
4,57,110,32
4,60,110,0
4,65,110,0
4,65,0,160
4,60,0,0
4,57,0,0
4,57,110,32
4,60,110,0
4,60,0,160
4,57,0,0
4,62,110,32
4,62,0,160
4,58,110,32
4,62,110,0
4,65,110,0
4,65,0,160
4,62,0,0
4,58,0,0
4,58,110,32
4,62,110,0
4,65,110,0
4,65,0,160
4,62,0,0
4,58,0,0
4,69,110,32
4,60,110,192
4,65,110,0
4,65,0,160
4,60,0,0
4,60,110,32
4,65,110,0
4,65,0,160
4,60,0,0
4,60,110,224
4,65,110,0
4,65,0,160
4,60,0,0
4,69,0,0
4,60,110,32
4,65,110,0
4,69,110,0
4,69,0,160
4,65,0,0
4,60,0,0
4,69,110,32
4,69,0,94
4,65,110,2
4,57,110,96
4,60,110,0
4,60,0,160
4,57,0,0
4,65,0,0
4,57,110,32
4,60,110,0
4,65,110,0
4,65,0,160
4,60,0,0
4,57,0,0
4,62,110,32
4,62,0,94
4,60,110,2
4,53,110,96
4,57,110,0
4,57,0,160
4,53,0,0
4,60,0,0
4,53,110,32
4,57,110,0
4,60,110,0
4,60,0,94
4,60,110,2
4,57,0,64
4,53,0,0
4,60,0,30
4,62,110,2
4,62,0,160
4,58,110,32
4,62,110,0
4,65,110,0
4,62,0,160
4,58,0,0
4,58,110,32
4,62,110,0
4,65,0,94
4,67,110,2
4,62,0,64
4,58,0,0
4,67,0,30
4,65,110,2
4,57,110,192
4,60,110,0
4,60,0,160
4,57,0,0
4,57,110,32
4,60,110,0
4,60,0,160
4,57,0,0
4,57,110,224
4,60,110,0
4,60,0,160
4,57,0,0
4,65,0,0
4,72,110,32
4,72,0,94
4,72,110,2
4,72,0,94
4,72,110,2
4,72,0,160
4,60,110,32
4,65,110,0
4,69,110,0
4,69,0,160
4,65,0,0
4,60,0,0
4,60,110,32
4,65,110,0
4,69,110,0
4,69,0,94
4,69,110,2
4,65,0,64
4,60,0,0
4,69,0,30
4,67,110,2
4,67,0,160
4,60,110,32
4,63,110,0
4,65,110,0
4,65,0,160
4,63,0,0
4,60,0,0
4,60,110,32
4,60,0,94
4,60,110,2
4,60,0,94
4,62,110,2
4,62,0,160
4,58,110,32
4,62,110,0
4,65,110,0
4,65,0,160
4,62,0,0
4,58,0,0
4,58,110,32
4,62,110,0
4,65,110,0
4,65,0,160
4,62,0,0
4,58,0,0
4,67,110,32
4,60,110,192
4,64,110,0
4,64,0,160
4,60,0,0
4,60,110,32
4,64,110,0
4,64,0,160
4,60,0,0
4,60,110,32
4,64,110,0
4,64,0,160
4,60,0,0
4,67,0,0
4,65,110,32
4,65,0,160
4,65,110,32
4,65,0,160
4,65,110,32
4,53,110,192
4,57,110,0
4,57,0,160
4,53,0,0
4,65,0,0
4,53,110,32
4,57,110,0
4,62,110,0
4,62,0,94
4,62,110,2
4,57,0,64
4,53,0,0
4,62,0,30
4,62,110,2
4,62,0,160
4,53,110,32
4,57,110,0
4,60,110,0
4,57,0,160
4,53,0,0
4,53,110,32
4,57,110,0
4,60,0,64
4,65,110,32
4,65,0,94
4,57,0,0
4,53,0,0
4,65,110,2
4,65,0,94
4,62,110,2
4,53,110,96
4,57,110,0
4,57,0,160
4,53,0,0
4,62,0,0
4,53,110,32
4,57,110,0
4,62,110,0
4,62,0,160
4,57,0,0
4,53,0,0
4,62,110,32
4,62,0,160
4,53,110,32
4,57,110,0
4,60,110,0
4,57,0,160
4,53,0,0
4,53,110,32
4,57,110,0
4,57,0,160
4,53,0,0
4,60,0,0
4,62,110,32
4,62,0,160
4,58,110,32
4,62,110,0
4,65,110,0
4,65,0,160
4,62,0,0
4,58,0,0
4,58,110,32
4,64,110,0
4,67,110,0
4,67,0,160
4,64,0,0
4,58,0,0
4,65,110,32
4,53,110,192
4,57,110,0
4,57,0,160
4,53,0,0
4,53,110,32
4,57,110,0
4,57,0,160
4,53,0,0
4,53,110,224
4,57,110,0
4,57,0,160
4,53,0,0
4,53,110,32
4,57,110,0
4,57,0,160
4,53,0,0
4,57,110,32
4,60,110,0
4,60,0,160
4,57,0,0
4,65,0,0
5,41,110,0
5,41,0,528
5,48,110,48
5,48,0,528
5,41,110,48
5,41,0,528
5,48,110,48
5,48,0,336
5,48,110,48
5,48,0,160
5,41,110,32
5,41,0,528
5,48,110,48
5,48,0,528
5,46,110,48
5,46,0,528
5,41,110,48
5,41,0,528
5,48,110,48
5,48,0,528
5,41,110,48
5,41,0,528
5,48,110,48
5,48,0,528
5,46,110,48
5,46,0,528
5,41,110,48
5,41,0,528
5,48,110,48
5,48,0,528
5,41,110,48
5,41,0,528
5,41,110,48
5,41,0,160
5,43,110,32
5,43,0,160
5,45,110,32
5,45,0,160
5,46,110,32
5,46,0,528
5,48,110,48
5,48,0,528
5,48,110,48
5,48,0,336
5,50,110,240
5,50,0,528
5,45,110,48
5,45,0,528
5,50,110,48
5,50,0,528
5,45,110,48
5,45,0,528
5,46,110,48
5,46,0,336
5,48,110,48
5,48,0,160
5,41,110,32
5,41,0,528
5,48,110,48
5,48,0,528
5,41,110,48
5,41,0,336
5,41,110,240
5,41,0,528
5,48,110,48
5,48,0,528
5,46,110,48
5,46,0,528
5,41,110,48
5,41,0,528
5,48,110,48
5,48,0,528
5,41,110,48
5,41,0,528
5,48,110,48
5,48,0,528
5,46,110,48
5,46,0,528
5,41,110,48
5,41,0,528
5,48,110,48
5,48,0,528
5,41,110,48
5,41,0,528
5,41,110,48
5,41,0,160
5,43,110,32
5,43,0,160
5,45,110,32
5,45,0,160
5,46,110,32
5,46,0,528
5,48,110,48
5,48,0,528
5,48,110,48
5,48,0,336
5,50,110,240
5,50,0,528
5,45,110,48
5,45,0,528
5,50,110,48
5,50,0,528
5,45,110,48
5,45,0,528
5,46,110,48
5,46,0,336
5,48,110,48
5,48,0,160
5,41,110,32
5,41,0,528
5,48,110,48
5,48,0,528
5,41,110,48
5,41,0,160
5,48,110,224
5,48,0,48
5,41,110,144
5,41,0,48
6,72,110,2112
6,72,0,160
6,72,110,32
6,72,0,160
6,69,110,32
6,69,0,256
6,69,110,32
6,69,0,94
6,69,110,2
6,69,0,160
6,65,110,32
6,65,0,160
6,60,110,32
6,60,0,160
6,62,110,32
6,62,0,160
6,65,110,32
6,65,0,160
6,65,110,32
6,65,0,160
6,69,110,32
6,69,0,832
6,69,110,32
6,69,0,94
6,69,110,2
6,69,0,94
6,69,110,2
6,69,0,94
6,69,110,2
6,69,0,160
6,65,110,32
6,65,0,160
6,65,110,32
6,65,0,160
6,62,110,32
6,62,0,160
6,60,110,32
6,60,0,160
6,60,110,32
6,60,0,94
6,60,110,2
6,60,0,94
6,62,110,2
6,62,0,160
6,65,110,32
6,65,0,256
6,67,110,32
6,67,0,94
6,65,110,2
6,65,0,912
6,72,110,48
6,72,0,160
6,72,110,32
6,72,0,160
6,69,110,32
6,69,0,160
6,70,110,32
6,70,0,160
6,69,110,32
6,69,0,160
6,65,110,32
6,65,0,160
6,60,110,32
6,60,0,94
6,60,110,2
6,60,0,94
6,62,110,2
6,62,0,94
6,65,110,2
6,65,0,256
6,65,110,32
6,65,0,160
6,67,110,32
6,67,0,912
6,65,110,48
6,65,0,160
6,65,110,32
6,65,0,336
6,62,110,48
6,62,0,94
6,62,110,2
6,62,0,94
6,62,110,2
6,62,0,160
6,60,110,32
6,60,0,160
