track,note,velocity,time
3,66,97,2
3,66,0,76
3,66,93,3
3,66,0,15
3,65,81,0
3,65,0,25
3,66,89,0
3,66,0,43
3,66,97,2
3,66,0,138
3,66,95,1
3,66,0,32
3,66,79,12
3,66,0,14
3,66,78,9
3,66,0,12
3,66,91,15
3,66,0,44
3,66,91,2
3,66,0,44
3,66,67,19
3,66,0,132
3,66,104,1
3,66,0,50
3,66,84,18
3,66,0,182
3,62,86,0
3,62,0,21
3,62,87,27
3,62,0,31
3,59,80,2
3,59,0,66
3,62,83,5
3,62,0,321
3,66,81,0
3,66,0,23
3,66,81,19
3,66,0,34
3,64,60,0
3,66,91,27
3,64,0,6
3,66,0,32
3,66,91,28
3,66,0,116
3,57,84,30
3,69,83,42
3,57,0,3
3,69,0,3
3,66,85,0
3,66,0,32
3,65,64,3
3,65,0,24
3,66,75,14
3,66,0,21
3,66,91,17
3,66,0,39
3,64,60,0
3,64,0,21
3,66,74,21
3,66,0,187
3,62,73,0
3,62,0,23
3,62,85,26
3,59,66,36
3,62,0,3
3,59,0,57
3,62,82,30
3,62,0,108
3,67,86,672
3,67,0,34
3,67,86,15
3,67,0,66
3,70,104,2
3,70,0,19
3,67,79,7
3,67,0,19
3,69,92,32
3,69,0,44
3,62,70,28
3,62,0,166
3,62,87,363
3,62,0,15
3,62,80,13
3,62,0,15
3,67,87,0
3,67,0,55
3,67,80,21
3,67,0,22
3,67,87,9
3,67,0,12
3,70,99,1
3,70,0,101
3,69,73,26
3,69,0,160
3,69,81,515
3,69,0,24
3,71,81,2
3,71,0,36
3,71,88,29
3,71,0,59
3,71,91,16
3,71,0,23
3,69,83,11
3,69,0,14
3,72,97,0
3,72,0,44
3,69,86,26
3,69,0,179
3,69,80,3
3,71,86,37
3,69,0,4
3,71,0,17
3,72,98,24
3,72,0,80
3,69,70,1
3,69,0,91
3,71,79,21
3,71,0,24
3,69,65,1
3,69,0,75
3,67,80,7
3,67,0,63
3,64,63,0
3,64,0,16
3,66,74,1
3,66,0,21
3,64,66,0
3,64,0,104
3,69,95,0
3,69,0,64
3,66,73,3
3,66,0,23
3,65,76,0
3,66,95,25
3,65,0,3
3,66,0,46
3,66,81,0
3,66,0,153
3,66,99,1
3,66,0,39
3,70,84,1
3,66,81,66
3,70,0,1
3,66,0,21
3,65,73,0
3,66,85,33
3,65,0,3
3,66,0,35
3,66,82,4
3,66,0,130
3,66,84,2
3,66,0,49
3,66,82,23
3,66,0,71
3,66,82,22
3,66,0,16
3,66,74,0
3,66,0,21
3,66,91,20
3,66,0,21
3,64,73,3
3,64,0,112
3,68,87,1
3,68,0,13
3,66,77,3
3,66,0,15
3,68,60,12
3,68,0,19
3,68,70,4
3,68,0,11
3,68,82,10
3,68,0,14
3,68,85,5
3,68,0,10
3,68,77,6
3,68,0,148
3,68,68,1
3,68,0,9
3,68,67,11
3,68,0,12
3,68,81,13
3,68,0,20
3,65,74,5
3,65,0,16
3,68,79,1
3,68,0,19
3,68,77,2
3,68,0,131
3,70,107,4
3,70,0,74
3,73,107,0
3,73,0,46
3,70,84,0
3,70,0,41
3,70,74,19
3,70,0,216
3,70,84,1
3,70,0,5
3,70,97,23
3,70,0,1
3,68,70,1
3,68,0,186
3,66,78,197
3,66,0,14
3,71,90,3
3,71,0,239
3,71,94,2
3,71,0,24
3,71,73,7
3,71,0,26
3,71,94,10
3,71,0,34
3,71,85,11
3,71,0,22
3,71,87,12
3,71,0,24
3,71,94,2
3,71,0,16
3,59,80,31
3,59,0,162
3,59,83,0
3,59,0,13
3,71,81,29
3,71,0,213
3,67,73,70
3,67,0,51
3,68,64,4
3,68,0,37
3,71,81,14
3,71,0,39
3,67,64,0
3,68,68,37
3,67,0,4
3,68,0,16
3,71,90,1
3,71,0,35
3,59,76,29
3,59,0,2
3,59,68,0
3,66,81,23
3,59,0,1
3,66,0,26
3,66,99,12
3,66,0,25
3,67,81,14
3,67,0,23
3,68,84,13
3,68,0,63
3,71,92,14
3,71,0,33
3,73,99,6
3,73,0,25
3,73,110,14
3,73,0,34
3,71,83,4
3,71,0,21
3,73,110,2
3,73,0,148
3,71,84,1
3,71,0,16
3,68,97,22
3,68,0,52
3,71,100,1
3,71,0,750
3,71,108,4
3,71,0,77
3,71,104,2
3,71,0,53
3,71,112,21
3,71,0,24
3,71,104,2
3,71,0,8
3,71,91,12
3,71,0,20
3,71,97,15
3,71,0,15
3,74,100,1
3,74,0,19
3,71,92,1
3,71,0,211
3,71,90,194
3,71,0,21
3,76,117,0
3,76,0,85
3,74,117,26
3,71,92,78
3,74,0,2
3,71,0,18
3,71,108,0
3,71,0,101
3,67,80,0
3,67,0,27
3,68,101,4
3,68,0,20
3,71,104,0
3,71,0,6
3,71,108,19
3,71,0,323
3,66,104,0
3,66,0,61
3,66,84,17
3,66,0,31
3,67,73,0
3,67,0,28
3,68,89,25
3,68,0,61
3,71,97,11
3,71,0,167
3,73,119,1
3,73,0,42
3,73,113,21
3,71,80,26
3,73,0,1
3,71,0,16
3,73,127,1
3,71,104,40
3,73,0,5
3,71,0,102
3,73,116,1
3,73,0,48
3,74,127,0
3,74,0,17
3,71,104,7
3,71,0,1
4,51,45,6209
4,51,0,11
4,40,42,20
4,51,39,2
4,51,0,83
4,40,0,15
4,51,32,18
4,40,53,1
4,51,0,73
4,51,40,9
4,40,0,11
4,51,0,5
4,40,52,22
4,51,37,1
4,51,0,59
4,51,28,19
4,40,0,21
4,51,0,1
4,51,40,18
4,40,43,1
4,40,0,75
4,38,60,4
4,38,0,19
4,51,0,10
4,40,48,12
4,51,47,0
4,51,0,102
4,40,0,3
4,40,52,14
4,51,35,1
4,51,0,66
4,51,31,15
4,40,0,18
4,51,0,3
4,40,40,18
4,51,44,2
4,40,0,90
4,51,0,3
4,51,37,25
4,40,46,1
4,40,0,36
4,38,61,1
4,38,0,31
4,51,0,0
4,39,56,9
4,51,37,4
4,39,0,9
4,51,0,5
4,40,62,21
4,51,44,2
4,51,0,102
4,40,0,6
4,40,47,12
4,51,39,1
4,51,0,59
4,51,29,20
4,51,0,16
4,40,0,7
4,40,46,18
4,51,42,2
4,40,0,101
4,51,0,1
4,40,42,16
4,51,47,0
4,51,0,96
4,40,0,1
4,40,42,22
4,51,38,1
4,40,0,89
4,51,0,14
4,40,38,15
4,51,32,2
4,39,58,38
4,40,0,4
4,39,0,9
4,51,0,6
4,40,56,20
4,51,33,2
4,51,0,19
4,40,0,4
4,40,62,15
4,51,43,1
4,51,0,104
4,40,0,4
4,51,42,13
4,40,62,1
4,40,0,34
4,38,59,4
4,51,0,21
4,38,0,16
4,39,67,3
4,51,33,1
4,51,0,14
4,39,0,1
4,40,56,23
4,51,48,1
4,51,0,116
4,51,45,6
4,40,59,3
4,40,0,1
4,51,0,61
4,51,39,15
4,51,0,16
4,40,0,9
4,51,41,16
4,40,50,1
4,40,0,89
4,51,0,17
4,40,50,12
4,51,47,0
4,51,0,27
4,39,61,15
4,51,39,0
4,40,0,3
4,39,0,8
4,51,0,3
4,38,70,23
4,51,41,0
4,51,0,29
4,38,0,9
4,40,63,1
4,51,49,3
4,51,0,81
4,40,0,27
4,51,51,11
4,40,52,2
4,40,0,96
4,51,0,2
4,40,51,19
4,51,42,1
4,40,0,97
4,51,0,5
4,40,55,18
4,51,53,0
4,51,0,62
4,51,12,21
4,51,0,11
4,40,0,6
4,40,47,22
4,51,52,0
4,40,0,93
4,51,0,19
4,40,50,9
4,51,54,0
4,51,0,21
4,40,0,18
4,39,61,0
4,39,0,11
4,38,63,26
4,51,32,0
4,51,0,19
4,38,0,18
4,40,68,2
4,51,40,1
4,40,0,91
4,51,0,11
4,40,60,18
4,51,41,1
4,40,0,42
4,51,0,16
4,38,66,20
4,51,26,2
4,51,0,14
4,38,0,0
4,40,62,24
4,51,47,1
4,40,0,100
4,51,0,6
4,51,40,15
4,40,57,1
4,51,0,50
4,40,0,13
4,38,67,16
4,51,33,0
4,38,0,17
4,51,0,1
4,40,60,22
4,51,47,0
4,51,0,85
4,40,0,5
4,51,43,28
4,40,59,1
4,51,0,29
4,40,0,11
4,38,61,0
4,51,45,0
4,38,0,19
4,40,60,19
4,51,0,5
4,40,0,12
4,40,56,23
4,51,52,0
4,40,0,105
4,51,0,1
4,40,58,16
4,51,48,0
4,51,0,59
4,51,49,22
4,40,0,10
4,51,0,6
4,51,57,25
4,51,0,51
4,51,58,69
4,51,0,17
4,51,49,103
4,51,0,81
4,51,51,38
4,40,52,2
4,40,0,96
4,51,0,2
4,40,51,19
4,51,42,1
4,40,0,97
4,51,0,5
4,40,55,18
4,51,53,0
4,51,0,62
4,51,12,21
4,51,0,11
4,40,0,6
4,40,47,22
4,51,52,0
4,40,0,93
4,51,0,19
4,40,50,9
4,51,54,0
4,51,0,21
4,40,0,18
4,39,61,0
4,39,0,11
4,38,63,26
4,51,32,0
4,51,0,19
4,38,0,18
4,40,68,2
4,51,40,1
4,40,0,91
4,51,0,11
4,40,60,18
4,51,41,1
4,40,0,42
4,51,0,16
4,38,66,20
4,51,26,2
4,51,0,14
4,38,0,0
4,40,62,24
4,51,47,1
4,40,0,100
4,51,0,6
4,51,40,15
4,40,57,1
4,51,0,50
4,40,0,13
4,38,67,16
4,51,33,0
4,38,0,17
4,51,0,1
4,40,60,22
4,51,47,0
4,51,0,85
4,40,0,5
4,51,43,28
4,40,59,1
4,51,0,29
4,40,0,11
4,38,61,0
4,51,45,0
4,38,0,19
4,40,60,19
4,51,0,5
4,40,0,12
4,40,56,23
4,51,52,0
4,40,0,105
4,51,0,1
4,40,58,16
4,51,48,0
4,51,0,59
4,51,49,22
4,40,0,10
4,51,0,6
4,51,57,25
4,51,0,51
4,51,89,73
4,51,0,21
4,51,49,95
4,51,0,81
4,51,51,38
4,40,52,2
4,40,0,96
4,51,0,2
4,40,51,19
4,51,42,1
4,40,0,97
4,51,0,5
4,40,55,18
4,51,53,0
4,51,0,62
4,51,12,21
4,51,0,11
4,40,0,6
4,40,47,22
4,51,52,0
4,40,0,93
4,51,0,19
4,40,50,9
4,51,54,0
4,51,0,21
4,40,0,18
4,39,61,0
4,39,0,11
4,38,63,26
4,51,32,0
4,51,0,19
4,38,0,18
4,40,68,2
4,51,40,1
4,40,0,91
4,51,0,11
4,40,60,18
4,51,41,1
4,40,0,42
4,51,0,16
4,38,66,20
4,51,26,2
4,51,0,14
4,38,0,0
4,40,62,24
4,51,47,1
4,40,0,100
4,51,0,6
4,51,40,15
4,40,57,1
4,51,0,50
4,40,0,13
4,38,67,16
4,51,33,0
4,38,0,17
4,51,0,1
4,40,60,22
4,51,47,0
4,51,0,85
4,40,0,5
4,51,43,28
4,40,59,1
4,51,0,29
4,40,0,11
4,38,61,0
4,51,45,0
4,38,0,19
4,40,60,19
4,51,0,5
4,40,0,12
4,40,56,23
4,51,52,0
4,40,0,105
4,51,0,1
4,40,58,16
4,51,48,0
4,51,0,59
4,51,49,22
4,40,0,10
4,51,0,6
4,51,57,25
4,51,0,51
4,51,49,189
4,51,0,81
4,51,51,38
4,40,52,2
4,40,0,96
4,51,0,2
4,40,51,19
4,51,42,1
4,40,0,97
4,51,0,5
4,40,55,18
4,51,53,0
4,51,0,62
4,51,12,21
4,51,0,11
4,40,0,6
4,40,47,22
4,51,52,0
4,40,0,93
4,51,0,19
4,40,50,9
4,51,54,0
4,51,0,21
4,40,0,18
4,39,61,0
4,39,0,11
4,38,63,26
4,51,32,0
4,51,0,19
4,38,0,18
4,40,68,2
4,51,40,1
4,40,0,91
4,51,0,11
4,40,60,18
4,51,41,1
4,40,0,42
4,51,0,16
4,38,66,20
4,51,26,2
4,51,0,14
4,38,0,0
4,40,62,24
4,51,47,1
4,40,0,100
4,51,0,6
4,51,40,15
4,40,57,1
4,51,0,50
4,40,0,13
4,38,67,16
4,51,33,0
4,38,0,17
4,51,0,1
4,40,60,22
4,51,47,0
4,51,0,85
4,40,0,5
4,51,43,28
4,40,59,1
4,51,0,29
4,40,0,11
4,38,61,0
4,51,45,0
4,38,0,19
4,40,60,19
4,51,0,5
4,40,0,12
4,40,56,23
4,51,52,0
4,40,0,105
4,51,0,1
4,40,58,16
4,51,48,0
4,51,0,59
4,51,49,22
4,40,0,10
4,51,0,6
4,51,57,25
4,51,0,51
4,51,49,189
4,51,0,81
4,51,51,38
4,40,52,2
4,40,0,96
4,51,0,2
4,40,51,19
4,51,42,1
4,36,99,2
4,40,0,95
4,51,0,5
4,40,55,18
4,51,53,0
4,39,127,1
4,39,0,13
4,51,0,48
4,39,126,21
4,51,12,0
4,36,0,10
4,51,0,1
4,40,0,6
4,39,0,8
4,40,47,14
4,51,52,0
4,36,99,1
4,40,0,92
4,51,0,19
4,39,127,6
4,40,50,3
4,51,54,0
4,51,0,21
4,39,0,0
4,36,0,4
4,40,0,14
4,39,61,0
4,39,0,11
4,38,63,26
4,51,32,0
4,36,40,1
4,36,0,13
4,51,0,5
4,38,0,18
4,40,68,2
4,51,40,1
4,36,103,3
4,40,0,88
4,51,0,11
4,40,60,18
4,51,41,1
4,39,126,2
4,36,0,10
4,39,0,16
4,40,0,14
4,36,66,0
4,51,0,16
4,38,66,20
4,51,26,2
4,39,127,3
4,51,0,11
4,36,0,0
4,38,0,0
4,39,0,22
4,40,62,2
4,51,47,1
4,36,93,4
4,40,0,96
4,51,0,6
4,51,40,15
4,40,57,1
4,39,127,1
4,39,0,32
4,36,0,12
4,51,0,5
4,40,0,13
4,38,67,16
4,51,33,0
4,36,35,2
4,36,0,15
4,38,0,0
4,51,0,1
4,36,93,22
4,40,60,0
4,51,47,0
4,51,0,85
4,40,0,5
4,51,43,28
4,40,59,1
4,39,127,1
4,51,0,28
4,39,0,2
4,40,0,9
4,38,61,0
4,51,45,0
4,38,0,19
4,36,0,2
4,40,60,17
4,51,0,5
4,39,127,0
4,40,0,12
4,40,56,23
4,51,52,0
4,39,0,4
4,36,101,1
4,40,0,100
4,51,0,1
4,40,58,16
4,51,48,0
4,39,127,4
4,39,0,36
4,36,0,16
4,51,0,3
4,51,49,22
4,36,42,3
4,40,0,7
4,36,0,5
4,51,0,1
4,51,57,25
4,36,99,1
4,51,0,50
4,39,127,70
4,39,0,27
4,36,0,8
4,36,55,45
4,36,0,14
4,51,49,25
4,36,99,1
4,51,0,80
4,51,51,38
4,40,52,2
4,39,127,1
4,36,0,6
4,39,0,17
4,36,40,58
4,36,0,14
4,40,0,0
4,51,0,2
4,40,51,19
4,51,42,1
4,36,85,3
4,40,0,94
4,51,0,5
4,40,55,18
4,51,53,0
4,39,126,2
4,39,0,53
4,51,0,7
4,36,0,20
4,39,127,1
4,51,12,0
4,51,0,11
4,40,0,6
4,39,0,11
4,40,47,11
4,51,52,0
4,36,93,1
4,40,0,92
4,51,0,19
4,39,126,8
4,40,50,1
4,51,54,0
4,51,0,21
4,39,0,7
4,40,0,11
4,39,61,0
4,39,0,11
4,36,0,0
4,38,63,26
4,51,32,0
4,36,45,3
4,36,0,16
4,51,0,0
4,38,0,18
4,40,68,2
4,51,40,1
4,36,81,3
4,40,0,88
4,51,0,11
4,40,60,18
4,51,41,1
4,39,126,2
4,39,0,25
4,40,0,15
4,36,0,2
4,51,0,14
4,38,66,20
4,51,26,2
4,36,47,2
4,36,0,12
4,51,0,0
4,38,0,0
4,40,62,24
4,51,47,1
4,36,95,2
4,40,0,98
4,51,0,6
4,39,127,15
4,51,40,0
4,40,57,1
4,39,0,24
4,36,0,11
4,51,0,15
4,40,0,13
4,38,67,16
4,51,33,0
4,36,39,2
4,38,0,15
4,36,0,1
4,51,0,0
4,40,60,22
4,51,47,0
4,36,86,2
4,51,0,83
4,40,0,5
4,51,43,28
4,40,59,1
4,39,127,4
4,39,0,19
4,51,0,6
4,36,0,7
4,40,0,4
4,38,61,0
4,51,45,0
4,38,0,19
4,40,60,19
4,51,0,5
4,36,39,0
4,40,0,12
4,36,0,3
4,40,56,20
4,51,52,0
