track,note,velocity,time
1,38,86,8426
1,38,85,169
1,38,85,163
1,45,117,87
1,43,109,73
1,41,117,55
1,36,109,47
1,49,86,0
1,51,73,173
1,51,69,79
1,38,100,69
1,51,86,2
1,51,32,67
1,51,75,5
1,36,90,69
1,51,32,2
1,36,113,5
1,51,80,0
1,51,75,167
1,51,51,67
1,38,100,69
1,51,106,0
1,51,25,61
1,51,100,67
1,36,90,63
1,51,40,2
1,36,109,65
1,51,83,2
1,51,61,159
1,51,65,67
1,38,100,73
1,51,73,2
1,51,46,61
1,51,86,71
1,51,50,57
1,36,104,73
1,51,86,0
1,51,42,61
1,51,73,67
1,51,41,57
1,38,100,71
1,51,77,2
1,51,48,59
1,45,107,61
1,43,107,16
1,51,95,2
1,36,77,57
1,51,54,2
1,36,111,69
1,49,94,2
1,51,61,163
1,51,63,69
1,38,100,67
1,51,75,2
1,51,32,57
1,51,75,5
1,36,74,59
1,51,39,0
1,36,117,57
1,51,83,2
1,51,60,153
1,51,49,65
1,38,100,67
1,51,77,2
1,51,33,59
1,51,69,79
1,36,77,57
1,36,115,65
1,51,100,2
1,51,58,57
1,51,69,75
1,51,67,69
1,38,100,79
1,51,95,2
1,51,61,163
1,51,52,77
1,36,103,77
1,51,80,0
1,51,71,167
1,51,61,73
1,38,100,73
1,51,86,2
1,47,103,67
1,43,117,67
1,41,117,69
1,36,110,73
1,42,90,0
1,49,77,0
1,46,77,173
1,38,98,165
1,42,86,2
1,42,73,159
1,42,86,173
1,36,110,2
1,42,60,167
1,38,113,171
1,42,83,2
1,42,59,163
1,42,83,167
1,36,110,2
1,42,71,161
1,38,107,167
1,42,71,2
1,42,69,163
1,42,75,169
1,36,110,2
1,36,110,155
1,42,71,0
1,38,110,163
1,42,86,2
1,46,75,165
1,42,86,165
1,36,110,2
1,42,86,165
1,38,113,173
1,42,77,0
1,42,67,165
1,42,75,169
1,36,110,2
1,46,90,163
1,42,80,165
1,38,105,2
1,42,95,167
1,42,83,169
1,36,110,2
1,42,69,159
1,38,110,171
1,42,80,0
1,42,75,165
1,42,69,169
1,36,110,2
1,46,77,161
1,36,110,2
1,38,113,159
1,42,86,0
1,47,106,69
1,43,100,55
1,42,77,6
1,42,90,155
1,36,110,2
1,49,77,0
1,46,77,171
1,38,98,165
1,42,86,0
1,42,73,159
1,42,86,173
1,36,110,2
1,42,60,167
1,38,113,171
1,42,83,0
1,42,59,165
1,42,83,165
1,36,110,2
1,42,71,163
1,38,107,167
1,42,71,2
1,42,69,165
1,42,75,167
1,36,110,2
1,36,110,157
1,42,71,0
1,38,110,161
1,42,86,2
1,46,75,167
1,36,110,165
1,42,86,0
1,42,86,165
1,38,113,173
1,42,77,0
1,42,67,165
1,36,110,169
1,42,75,0
1,46,90,163
1,38,105,165
1,42,80,0
1,42,95,165
1,38,106,167
1,49,69,0
1,36,113,2
1,42,83,0
1,46,69,99
1,36,77,2
1,38,110,147
1,42,80,0
1,36,81,2
1,36,86,147
1,46,75,2
1,38,98,129
1,36,110,22
1,42,69,0
1,47,122,65
1,46,77,69
1,36,110,2
1,47,117,63
1,45,109,19
1,45,122,45
1,43,126,71
1,41,127,55
1,49,86,94
1,36,109,1
1,51,73,173
1,51,69,79
1,38,100,69
1,51,86,2
1,51,32,67
1,51,75,5
1,36,90,69
1,51,32,2
1,36,113,7
1,51,80,0
1,51,75,165
1,51,51,69
1,38,100,69
1,51,106,0
1,51,25,61
1,51,100,67
1,36,90,63
1,51,40,2
1,36,109,65
1,51,83,2
1,51,61,161
1,51,65,67
1,38,100,73
1,51,73,2
1,51,46,61
1,51,86,71
1,51,50,61
1,36,104,69
1,51,86,2
1,51,42,59
1,51,73,69
1,51,41,57
1,38,100,71
1,51,77,2
1,51,48,59
1,45,107,61
1,51,95,18
1,43,107,0
1,36,77,57
1,51,54,2
1,36,111,69
1,49,94,2
1,51,61,161
1,51,63,67
1,38,100,67
1,51,75,2
1,51,32,57
1,51,75,5
1,36,74,59
1,51,39,0
1,36,117,57
1,51,83,2
1,51,60,153
1,51,49,65
1,38,100,67
1,51,77,2
1,51,33,59
1,51,69,79
1,36,77,57
1,36,115,65
1,51,100,2
1,51,58,57
1,51,69,73
1,51,67,69
1,38,100,79
1,51,95,0
1,51,61,165
1,51,52,77
1,36,103,77
1,51,80,0
1,51,71,165
1,51,61,71
1,38,100,73
1,51,86,0
1,47,103,71
1,43,117,67
1,41,117,71
1,49,86,71
1,36,109,2
1,51,73,175
1,51,69,77
1,38,100,69
1,51,86,0
1,51,32,67
1,51,75,5
1,36,90,69
1,51,32,0
1,51,80,5
1,36,113,2
1,51,75,167
1,51,51,69
1,38,100,69
1,51,106,0
1,51,25,61
1,51,100,67
1,36,90,63
1,51,40,2
1,36,109,67
1,51,83,0
1,51,61,161
1,51,65,65
1,38,100,75
1,51,73,2
1,51,46,59
1,51,86,69
1,51,50,61
1,51,86,69
1,36,104,2
1,51,42,61
1,51,73,67
1,51,41,57
1,51,77,73
1,38,100,2
1,51,48,61
1,45,107,61
1,51,95,18
1,43,107,0
1,36,77,59
1,51,54,0
1,36,111,71
1,49,94,0
1,51,61,163
1,51,63,67
1,51,75,65
1,38,100,2
1,51,32,57
1,51,75,5
1,36,74,61
1,51,39,0
1,36,117,59
1,51,83,0
1,51,60,155
1,51,49,65
1,38,100,67
1,51,77,0
1,51,33,59
1,51,69,79
1,36,77,57
1,36,115,69
1,51,100,0
1,51,69,153
1,38,100,165
1,51,95,0
1,51,61,167
1,36,103,173
1,51,80,0
1,51,71,163
1,38,100,165
1,51,86,2
1,47,103,69
1,43,117,69
1,42,90,165
1,49,77,0
1,36,110,2
1,46,77,173
1,37,127,165
1,42,86,2
1,42,73,175
1,42,86,173
1,36,110,2
1,42,60,169
1,37,127,169
1,42,83,2
1,42,59,167
1,42,83,169
1,36,110,2
1,42,71,163
1,37,122,167
1,42,71,2
1,42,69,165
1,42,75,167
1,36,110,2
1,36,110,157
1,42,71,0
1,37,127,161
1,42,86,2
1,46,75,167
1,42,86,163
1,36,110,2
1,42,86,167
1,37,116,171
1,42,77,2
1,42,67,165
1,42,75,167
1,36,110,2
1,46,90,165
1,37,127,165
1,42,80,2
1,42,95,167
1,42,83,167
1,36,110,2
1,42,69,161
1,37,122,169
1,42,80,2
1,42,75,163
1,42,69,169
1,36,110,2
1,46,77,161
1,36,110,2
1,37,122,159
1,42,86,2
1,47,106,71
1,43,100,55
1,42,77,4
1,49,77,153
1,36,110,2
1,42,90,0
1,46,77,171
1,37,122,165
1,42,86,2
1,42,73,175
1,36,110,173
1,42,86,2
1,42,60,167
1,37,127,171
1,42,83,2
1,42,59,167
1,36,110,165
1,42,83,2
1,42,71,163
1,37,127,169
1,42,71,2
1,42,69,165
1,36,110,167
1,42,75,2
1,42,71,157
1,36,110,2
1,37,110,161
1,42,86,2
1,46,75,167
1,36,110,163
1,42,86,2
1,42,86,165
1,37,127,173
1,42,77,2
1,42,67,165
1,36,110,167
1,42,75,2
1,46,90,167
1,42,80,167
1,37,127,2
1,42,95,167
1,36,113,167
1,42,83,2
1,49,69,0
1,36,77,103
1,46,69,0
1,42,80,147
1,36,81,2
1,37,127,0
1,36,86,149
1,46,75,0
1,38,110,129
1,36,110,18
1,42,69,2
1,36,110,165
1,46,77,0
1,45,109,43
1,43,111,151
1,41,117,49
1,36,110,169
1,49,77,0
1,42,90,2
1,46,77,175
1,38,98,165
1,42,86,0
1,42,73,159
1,36,110,175
1,42,86,0
1,42,60,169
1,38,113,169
1,42,83,0
1,42,59,165
1,36,110,167
1,42,83,0
1,42,71,163
1,38,107,167
1,42,71,0
1,42,69,167
1,36,110,169
1,42,75,0
1,36,110,155
1,42,71,2
1,38,110,163
1,42,86,2
1,46,75,169
1,36,110,167
1,42,86,0
1,42,86,167
1,38,113,171
1,42,77,2
1,42,67,161
1,36,110,169
1,42,75,0
1,46,90,165
1,38,105,165
1,42,80,2
1,42,95,165
1,36,110,171
1,42,83,0
1,42,69,161
1,38,110,171
1,42,80,0
1,42,75,161
1,36,110,173
1,42,69,0
1,36,110,163
1,46,77,0
1,38,113,163
1,42,86,0
1,47,106,69
1,43,100,57
1,42,77,2
1,49,77,153
1,36,110,2
1,42,90,0
1,46,77,173
1,38,98,167
1,42,86,0
1,42,73,157
1,36,110,175
1,42,86,2
1,42,60,169
1,38,113,171
1,42,83,0
1,42,59,163
1,36,110,165
1,42,83,0
1,42,71,165
1,38,107,169
1,42,71,0
1,42,69,165
1,36,110,167
1,42,75,0
1,36,110,157
1,42,71,2
1,38,110,165
1,42,86,0
1,46,75,167
1,36,110,163
1,42,86,0
1,42,86,167
1,42,77,171
1,38,113,2
1,42,67,165
1,36,110,167
1,42,75,2
1,46,90,165
1,42,80,165
1,38,105,2
1,42,95,163
1,36,113,167
1,38,106,0
1,49,69,0
1,42,83,2
1,36,77,99
1,46,69,0
1,42,80,147
1,36,81,2
1,38,110,0
1,36,86,147
1,46,75,2
1,38,98,127
1,36,110,22
1,42,69,2
1,47,122,67
1,38,98,49
1,38,110,11
1,36,110,2
1,46,77,0
1,47,117,7
1,38,96,74
1,38,114,5
1,45,109,2
1,45,122,7
1,43,126,69
1,41,127,53
1,49,86,96
1,36,109,1
1,51,73,173
1,51,69,79
1,38,100,69
1,51,86,2
1,51,32,67
1,51,75,5
1,36,90,71
1,51,32,0
1,36,113,7
1,51,80,0
1,51,75,167
1,51,51,69
1,38,100,67
1,51,106,2
1,51,25,63
1,51,100,67
1,36,90,63
1,51,40,2
1,36,109,65
1,51,83,0
1,51,61,161
1,51,65,67
1,38,100,73
1,51,73,2
1,51,46,61
1,51,86,71
1,51,50,61
1,36,104,67
1,51,86,2
1,51,42,61
1,51,73,69
1,51,41,57
1,38,100,71
1,51,77,2
1,51,48,59
1,45,107,61
1,51,95,18
1,43,107,0
1,36,77,57
1,51,54,2
1,36,111,69
1,49,94,2
1,51,61,163
1,51,63,67
1,38,100,67
1,51,75,2
1,51,32,57
1,51,75,5
1,36,74,57
1,51,39,2
1,36,117,57
1,51,83,2
1,51,60,153
1,51,49,65
1,38,100,67
1,51,77,2
1,51,33,59
1,51,69,79
1,36,77,57
1,36,115,71
1,51,100,0
1,51,58,57
1,51,69,75
1,51,67,71
1,38,100,79
1,51,95,2
1,51,61,165
1,51,52,77
1,36,103,79
1,51,80,0
1,51,71,163
1,51,61,71
1,38,100,71
1,51,86,2
1,47,103,69
1,43,117,67
1,41,117,71
1,36,109,73
1,49,86,0
1,51,73,173
1,51,69,79
1,38,100,69
1,51,86,2
1,51,32,67
1,51,75,5
1,36,90,69
1,51,32,2
1,36,113,5
1,51,80,0
1,51,75,167
1,51,51,69
1,38,100,69
1,51,106,2
1,51,25,63
1,51,100,67
1,36,90,63
1,51,40,2
1,36,109,67
1,51,83,0
1,51,61,161
1,51,65,65
1,38,100,75
1,51,73,2
1,51,46,61
1,51,86,71
1,51,50,61
1,36,104,71
1,51,86,0
1,51,42,61
1,51,73,67
1,51,41,55
1,38,100,71
1,51,77,2
1,51,48,59
1,45,107,61
1,51,95,18
1,43,107,0
1,36,77,59
1,51,54,0
1,36,111,71
1,49,94,0
1,51,61,163
1,51,63,67
1,38,100,69
1,51,75,0
1,51,32,57
1,51,75,5
1,51,39,59
1,36,74,2
1,36,117,59
1,51,83,0
1,51,60,155
1,51,49,65
1,38,100,65
1,51,77,0
1,51,33,61
1,51,69,79
1,36,77,57
1,36,115,69
1,51,100,0
1,51,69,153
1,38,100,163
1,51,95,0
1,51,61,167
1,36,103,173
1,51,80,0
1,51,71,165
1,51,86,165
1,38,100,2
1,47,103,69
1,43,117,69
1,36,109,167
1,49,86,0
1,51,73,171
1,51,69,79
1,51,86,69
1,38,100,2
1,51,32,67
1,51,75,5
1,36,90,71
1,51,32,0
1,36,113,5
1,51,80,0
1,51,75,167
1,51,51,67
1,38,100,71
1,51,106,0
1,51,25,61
1,51,100,67
1,36,90,65
1,51,40,0
1,36,109,67
1,51,83,0
1,51,61,161
1,51,65,67
1,38,100,73
1,51,73,2
1,51,46,61
1,51,86,71
1,51,50,63
1,51,86,69
1,36,104,2
1,51,42,61
1,51,73,69
1,51,41,57
1,38,100,73
1,51,77,0
1,51,48,59
1,45,107,59
1,51,95,18
1,43,107,0
1,36,77,61
1,51,54,0
1,36,111,71
1,49,94,0
1,51,61,163
1,51,63,67
1,38,100,67
1,51,75,2
1,51,32,55
1,51,75,5
1,51,39,59
1,36,74,2
1,36,117,59
1,51,83,0
1,51,60,155
1,51,49,65
1,38,100,67
1,51,77,0
1,51,33,61
1,51,69,77
1,36,77,59
1,51,100,67
1,36,115,2
1,51,58,55
1,51,69,75
1,51,67,69
1,38,100,79
1,51,95,2
1,51,61,165
1,51,52,77
1,51,80,79
1,36,103,2
1,51,71,165
1,51,61,69
1,51,86,71
1,38,100,2
1,47,103,71
1,43,117,67
1,41,117,69
1,49,86,71
1,36,109,2
1,51,73,171
1,51,69,77
1,51,86,69
1,38,100,2
1,51,32,67
1,51,75,7
1,36,90,69
1,51,32,2
1,51,80,5
1,36,113,2
1,51,75,165
1,51,51,69
1,51,106,69
1,38,100,2
1,51,25,61
1,51,100,67
1,36,90,61
1,51,40,2
1,51,83,65
1,36,109,2
1,51,61,161
1,51,65,67
1,38,100,75
1,51,73,0
1,51,46,59
1,51,86,69
1,51,50,63
1,36,104,69
1,51,86,0
1,51,42,61
1,51,73,69
1,51,41,57
1,38,100,73
1,51,77,0
1,51,48,59
1,45,107,61
1,51,95,18
1,43,107,0
1,36,77,57
1,51,54,2
1,36,111,69
1,49,94,0
1,51,61,165
1,51,63,67
1,51,75,67
1,38,100,2
1,51,32,55
1,51,75,5
1,36,74,57
1,51,39,2
1,36,117,57
1,51,83,2
1,51,60,157
1,51,49,65
1,38,100,69
1,51,77,0
1,51,33,59
1,51,69,79
1,36,77,55
1,36,115,69
1,51,100,0
1,51,69,153
1,38,100,167
1,51,95,0
1,38,85,69
1,38,85,5
1,51,61,0
1,38,93,7
1,36,103,3
1,38,100,2
1,51,80,0
1,38,100,5
1,38,102,5
1,51,71,0
1,38,112,5
1,38,127,5
1,51,86,0
1,38,127,69
1,47,103,0
1,43,117,5
1,36,117,165
1,42,80,2
1,36,113,63
1,42,58,2
1,42,100,61
1,42,43,63
1,42,90,63
1,38,119,2
1,42,46,63
1,42,80,63
1,42,51,63
1,36,117,65
1,42,100,0
1,36,117,59
1,42,48,0
1,42,100,63
1,42,47,63
1,38,116,65
1,42,83,0
1,42,54,63
1,42,95,75
1,42,42,61
1,36,122,73
1,42,90,0
1,36,97,59
1,42,48,0
1,42,90,63
1,42,43,63
1,38,119,69
1,42,90,2
1,42,51,59
1,42,95,71
1,42,48,63
1,36,109,2
1,42,95,63
1,36,113,2
1,42,50,57
1,42,80,71
1,42,41,61
1,38,127,69
1,46,86,2
1,42,83,159
1,42,45,59
1,42,80,75
1,36,117,2
1,36,113,63
1,42,58,0
1,42,100,59
1,42,43,63
1,38,119,61
1,42,90,2
1,42,46,61
1,42,80,63
1,42,51,61
1,42,100,63
1,36,117,2
1,42,48,59
1,36,117,2
1,42,100,63
1,42,47,61
1,38,116,67
1,42,83,2
1,42,54,63
1,42,95,73
1,42,42,61
1,42,90,71
1,36,122,2
1,42,48,61
1,36,97,2
1,42,90,63
1,42,43,61
1,38,119,69
1,42,90,2
1,42,51,59
1,42,95,69
1,42,48,63
1,36,109,2
1,42,95,63
1,36,113,2
1,42,50,57
1,42,80,71
1,42,41,61
1,38,127,69
1,46,86,0
1,38,127,157
1,42,83,0
1,42,45,5
1,36,117,77
1,42,80,0
1,36,113,65
1,42,58,0
1,42,100,59
1,42,43,65
1,38,119,63
1,42,90,0
1,42,46,61
1,42,80,63
1,42,51,63
1,36,117,65
1,42,100,0
1,42,48,59
1,36,117,2
1,42,100,63
1,42,47,61
1,42,83,67
1,38,116,2
1,42,54,61
1,42,95,73
1,42,42,59
