track,note,velocity,time
3,40,99,3115
3,40,0,28
3,40,99,17
3,40,0,25
3,40,99,23
3,40,0,25
3,40,99,23
3,40,0,25
3,40,99,23
3,40,0,24
3,40,99,24
3,40,0,19
3,40,107,29
3,40,0,15
3,30,107,15
3,30,0,205
3,30,95,35
3,32,92,48
3,30,0,4
3,32,0,41
3,34,95,3
3,34,0,45
3,37,104,3
3,37,0,170
3,37,101,22
3,30,95,144
3,37,0,8
3,30,0,38
3,35,104,2
3,35,0,156
3,35,99,36
3,35,0,141
3,30,84,3
3,30,0,46
3,35,99,2
3,35,0,45
3,30,92,3
3,30,0,47
3,35,99,1
3,35,0,81
3,35,101,15
3,35,0,42
3,32,98,6
3,32,0,44
3,35,104,4
3,32,98,48
3,35,0,2
3,32,0,42
3,30,107,4
3,30,0,205
3,30,95,35
3,32,92,48
3,30,0,4
3,32,0,41
3,34,95,3
3,34,0,45
3,37,104,3
3,37,0,170
3,37,101,22
3,30,95,144
3,37,0,8
3,30,0,38
3,35,104,2
3,35,0,156
3,35,99,36
3,35,0,141
3,30,84,3
3,30,0,46
3,35,99,2
3,35,0,45
3,42,88,3
3,42,0,142
3,47,90,2
3,47,0,189
3,30,98,3
3,30,0,377
3,37,91,7
3,37,0,384
3,32,92,0
3,32,0,339
3,32,90,45
3,32,0,26
3,32,95,70
3,32,0,125
3,32,86,19
3,32,0,44
3,34,86,4
3,34,0,46
3,32,83,2
3,32,0,44
3,30,95,4
3,30,0,247
3,35,86,41
3,35,0,28
3,37,95,12
3,37,0,376
3,35,95,8
3,32,88,336
3,35,0,2
3,32,0,44
3,35,92,2
3,35,0,41
3,35,95,55
3,35,0,85
3,35,98,11
3,32,82,48
3,35,0,2
3,32,0,42
3,35,89,4
3,35,0,43
3,32,98,5
3,30,98,48
3,32,0,5
3,30,0,372
3,37,91,7
3,37,0,384
3,32,92,0
3,32,0,397
3,32,83,36
3,32,0,44
3,30,88,4
3,30,0,45
3,44,78,5
3,44,0,26
3,44,86,20
3,44,0,172
3,30,95,19
3,30,0,247
3,35,86,41
3,35,0,23
3,37,95,12
3,37,0,376
3,35,95,8
3,35,0,141
3,32,93,3
3,32,0,43
3,35,98,5
3,35,0,189
3,35,101,3
3,35,0,189
3,35,101,3
3,35,0,69
3,35,107,27
3,35,0,93
3,30,107,3
3,30,0,205
3,30,95,35
3,32,92,48
3,30,0,4
3,32,0,41
3,34,95,3
3,34,0,45
3,37,104,3
3,37,0,170
3,37,101,22
3,30,95,144
3,37,0,8
3,30,0,38
3,35,104,2
3,35,0,156
3,35,99,36
3,35,0,141
3,30,84,3
3,30,0,46
3,35,99,2
3,35,0,45
3,30,92,3
3,30,0,47
3,35,99,1
3,35,0,81
3,35,101,15
3,35,0,42
3,32,98,6
3,32,0,44
3,35,104,4
3,32,98,48
3,35,0,2
3,32,0,42
3,30,107,4
3,30,0,205
3,30,95,35
3,32,92,48
3,30,0,4
3,32,0,41
3,34,95,3
3,34,0,45
3,37,104,3
3,37,0,170
3,37,101,22
3,30,95,144
3,37,0,8
3,30,0,38
3,35,104,2
3,35,0,156
3,35,99,36
3,35,0,141
3,30,84,3
3,30,0,46
3,35,99,2
3,35,0,45
3,42,88,3
3,42,0,142
3,39,95,2
3,39,0,45
3,37,92,3
3,35,92,48
3,37,0,1
3,35,0,44
3,34,98,3
3,34,0,45
3,30,107,3
3,30,0,205
3,30,95,35
3,32,92,48
3,30,0,4
3,32,0,41
3,34,95,3
3,34,0,45
3,37,104,3
3,37,0,170
3,37,101,22
3,30,95,144
3,37,0,8
3,30,0,38
3,35,104,2
3,35,0,141
3,36,100,3
3,37,103,8
3,36,0,1
3,38,106,7
3,37,0,1
3,39,112,7
3,38,0,1
3,40,118,7
3,39,0,1
3,40,0,8
3,27,111,7
3,27,0,45
3,27,113,3
3,27,0,45
3,27,113,3
3,27,0,45
3,27,110,3
3,27,0,45
3,28,108,3
3,28,0,45
3,28,108,3
3,28,0,45
3,28,111,3
3,28,0,45
3,28,111,3
3,40,115,0
3,40,0,45
3,28,0,0
3,29,111,3
3,29,0,45
3,29,111,3
3,29,0,45
3,29,111,3
3,29,0,45
3,29,113,3
3,41,115,0
3,41,0,45
3,29,0,0
3,30,107,3
3,30,0,205
3,30,95,35
3,32,92,48
3,30,0,4
3,32,0,41
3,34,95,3
3,34,0,45
3,37,104,3
3,37,0,170
3,37,101,22
3,30,95,144
3,37,0,8
3,30,0,38
3,35,104,2
3,35,0,156
3,35,99,36
3,35,0,141
3,30,84,3
3,30,0,46
3,35,99,2
3,35,0,165
3,35,101,27
3,35,0,177
3,30,98,15
3,30,0,377
3,37,91,7
3,37,0,384
3,35,92,0
3,35,0,339
3,35,90,45
3,35,0,26
3,35,92,70
3,35,0,249
3,30,95,39
3,30,0,247
3,35,86,41
3,35,0,23
3,37,95,12
3,37,0,376
3,35,95,8
3,35,0,338
3,35,69,94
3,35,0,33
3,35,70,15
3,35,0,33
3,35,71,15
3,35,0,33
3,35,72,15
3,35,0,33
3,35,73,15
3,35,0,33
3,35,74,15
3,35,0,33
3,35,75,15
3,35,0,33
3,30,98,15
3,30,0,377
3,37,91,7
3,37,0,384
3,35,92,0
3,35,0,339
3,35,90,45
3,35,0,26
3,35,92,70
3,35,0,249
3,30,95,39
3,30,0,247
3,35,86,41
3,35,0,23
3,37,95,12
3,37,0,376
3,35,95,8
3,35,0,381
3,40,104,51
3,39,100,48
3,40,0,3
3,35,104,45
3,39,0,3
3,42,106,45
3,35,0,6
3,40,104,42
3,42,0,3
3,40,0,42
3,39,101,3
3,39,0,41
3,35,95,7
3,35,0,33
3,30,98,15
3,30,0,281
3,30,86,7
3,30,0,36
3,37,91,6
3,37,0,384
3,32,92,0
3,32,0,339
3,32,90,45
3,32,0,26
3,32,95,70
3,32,0,125
3,32,86,19
3,32,0,44
3,34,86,4
3,34,0,46
3,32,83,2
3,32,0,44
3,30,95,4
3,30,0,247
3,35,86,41
3,35,0,28
3,37,95,12
3,37,0,376
3,35,95,8
3,32,88,336
3,35,0,2
3,32,0,44
3,35,92,2
3,35,0,41
3,35,95,55
3,35,0,85
3,35,98,11
3,32,82,48
3,35,0,2
3,32,0,42
3,35,89,4
3,35,0,43
3,32,98,5
3,30,98,48
3,32,0,5
3,30,0,372
3,37,91,7
3,37,0,384
3,32,92,0
3,32,0,397
3,32,83,36
3,32,0,44
3,30,88,4
3,30,0,45
3,44,78,5
3,44,0,26
3,44,86,20
3,44,0,172
3,30,95,19
3,30,0,247
3,35,86,41
3,35,0,28
3,37,95,12
3,37,0,376
3,35,95,8
3,35,0,141
3,32,93,3
3,32,0,43
3,35,98,5
3,35,0,189
3,35,101,3
3,35,0,137
3,35,109,7
3,35,0,37
3,23,101,11
3,23,0,45
3,23,107,3
3,23,0,45
3,23,101,3
3,23,0,45
3,23,107,3
3,23,0,45
3,30,107,3
3,30,0,93
3,30,104,3
3,30,0,141
3,30,95,3
3,32,92,48
3,30,0,4
3,32,0,41
3,34,95,3
3,34,0,45
3,37,104,3
3,37,0,333
3,30,95,3
3,30,0,46
3,35,104,2
3,35,0,156
3,35,99,36
3,35,0,141
3,30,84,3
3,30,0,46
3,35,99,2
3,35,0,45
3,30,92,3
3,30,0,47
3,35,99,1
3,35,0,141
3,32,98,3
3,32,0,44
3,35,104,4
3,32,98,48
3,35,0,2
3,32,0,42
3,30,107,4
3,30,0,237
3,30,95,3
3,32,92,48
3,30,0,4
3,32,0,41
3,34,95,3
3,34,0,45
3,37,104,3
3,37,0,333
3,30,95,3
3,30,0,46
3,35,104,2
3,35,0,141
3,36,100,3
3,37,103,8
3,36,0,1
3,38,106,7
3,37,0,1
3,39,112,7
3,38,0,1
3,40,118,7
3,39,0,1
3,40,0,8
3,27,107,7
3,27,0,45
3,27,109,3
3,27,0,45
3,27,109,3
3,27,0,45
3,27,106,3
3,27,0,45
3,28,104,3
3,28,0,45
3,28,104,3
3,28,0,45
3,28,107,3
3,28,0,45
3,40,111,3
3,40,0,45
3,29,107,3
3,29,0,45
3,29,107,3
3,29,0,45
3,29,107,3
3,29,0,45
3,41,111,3
3,41,0,45
3,30,112,3
3,30,0,81
3,30,112,15
3,30,0,141
3,30,95,3
3,32,92,48
3,30,0,4
3,32,0,41
3,34,95,3
3,34,0,45
3,37,104,3
3,37,0,333
3,30,95,3
3,30,0,46
3,35,104,2
3,35,0,177
3,35,112,15
3,35,0,141
3,30,104,3
3,30,0,37
3,40,99,11
3,39,86,48
3,40,0,5
3,39,0,41
3,35,104,2
3,35,0,48
3,30,88,0
3,30,0,39
3,40,109,9
3,39,88,48
3,40,0,6
3,39,0,32
3,35,104,10
3,35,0,48
3,32,107,0
3,32,0,38
3,30,107,10
3,30,0,205
3,30,95,35
3,32,92,48
3,30,0,4
3,32,0,41
3,34,95,3
3,34,0,45
3,37,104,3
3,37,0,170
3,37,101,22
3,30,95,144
3,37,0,8
3,30,0,38
3,35,104,2
3,35,0,156
3,35,99,36
3,35,0,141
3,30,84,3
3,30,0,46
3,35,99,2
3,35,0,45
3,42,109,3
3,42,0,45
3,42,105,3
3,42,0,45
3,42,107,3
3,42,0,45
3,42,109,3
3,42,0,45
3,42,109,3
3,42,0,45
3,42,109,3
3,42,0,45
3,42,109,3
3,42,0,45
3,30,112,3
3,32,97,288
3,30,0,5
3,32,0,40
3,34,100,3
3,34,0,45
3,37,109,3
3,37,0,333
3,30,100,3
3,30,0,46
3,35,109,2
3,35,0,85
3,35,106,15
3,35,0,81
3,35,104,11
3,35,0,141
3,30,89,3
3,30,0,46
3,35,104,2
3,35,0,45
3,30,97,3
3,30,0,47
3,35,104,1
3,35,0,141
3,32,103,3
3,32,0,44
3,35,109,4
3,32,103,48
3,35,0,2
3,32,0,42
3,30,112,4
3,30,0,237
3,30,100,3
3,32,97,48
3,30,0,4
3,32,0,41
3,34,100,3
3,34,0,45
3,37,109,3
3,37,0,333
3,30,100,3
3,30,0,46
3,35,109,2
3,35,0,141
3,36,105,3
3,37,108,8
3,36,0,1
3,38,111,7
3,37,0,1
3,39,117,7
3,38,0,1
3,40,123,7
3,39,0,1
3,40,0,8
3,27,112,7
3,27,0,45
3,27,114,3
3,27,0,45
3,27,114,3
3,27,0,45
3,27,111,3
3,27,0,45
3,28,109,3
3,28,0,45
3,28,109,3
3,28,0,45
3,28,112,3
3,28,0,45
3,40,116,3
3,40,0,45
3,29,112,3
3,29,0,45
3,29,112,3
3,29,0,45
3,29,112,3
3,29,0,45
3,41,116,3
3,41,0,45
3,30,117,3
3,30,0,85
3,30,117,11
3,30,0,141
3,30,100,3
3,32,97,48
3,30,0,4
3,32,0,41
3,34,100,3
3,34,0,45
3,37,109,3
3,37,0,333
3,30,100,3
3,30,0,46
3,35,109,2
3,35,0,185
3,35,117,7
3,35,0,141
3,30,109,3
3,30,0,37
3,40,104,11
3,39,91,48
3,40,0,5
3,39,0,41
3,35,109,2
3,35,0,48
3,30,93,0
3,30,0,39
3,40,114,9
3,39,93,48
3,40,0,6
3,39,0,32
3,35,109,10
3,35,0,48
3,32,112,0
3,32,0,38
3,30,112,10
3,30,0,233
3,30,100,7
3,32,97,48
3,30,0,4
3,32,0,41
3,34,100,3
3,34,0,45
3,37,109,3
3,37,0,189
3,37,106,3
3,30,100,144
3,37,0,8
3,30,0,38
3,35,109,2
3,35,0,181
3,35,104,11
3,35,0,141
3,30,89,3
3,30,0,46
3,35,104,2
3,35,0,45
3,30,114,3
3,30,0,45
3,30,110,3
3,30,0,45
3,30,112,3
3,30,0,45
3,30,114,3
3,30,0,45
3,30,114,3
3,30,0,45
3,30,114,3
3,30,0,45
3,30,114,3
3,30,0,25
3,30,114,23
3,30,0,33
3,30,113,15
3,30,0,57
3,35,95,231
3,35,0,45
3,37,108,3
3,37,0,25
3,37,106,23
3,37,0,57
3,35,97,279
3,35,0,24
3,35,104,24
3,35,0,58
3,35,99,326
3,35,0,45
3,35,99,3
3,35,0,45
3,35,99,3
3,35,0,45
3,35,99,3
3,35,0,45
3,27,96,3
3,27,0,46
3,30,96,2
3,30,0,46
3,25,95,2
3,30,109,48
3,25,0,1
3,30,0,32
3,30,108,15
3,30,0,57
3,35,95,231
3,35,0,45
3,37,108,3
3,37,0,25
3,37,106,23
3,37,0,57
3,35,97,279
3,35,0,24
3,35,104,24
3,35,0,58
3,31,99,8
3,31,0,1
3,31,99,8
3,31,0,33
3,31,99,15
3,31,0,33
3,31,99,15
3,31,0,33
3,31,99,15
3,31,0,1
3,32,106,3
3,32,0,65
3,30,109,27
3,30,0,33
3,30,108,15
3,30,0,57
3,35,95,231
3,35,0,45
3,37,108,3
3,37,0,25
3,37,106,23
3,37,0,57
3,35,97,279
3,35,0,24
3,35,104,24
3,35,0,58
3,40,99,326
3,40,0,45
3,40,99,3
3,40,0,45
3,40,99,3
3,40,0,45
3,40,99,3
3,40,0,45
3,39,96,3
3,39,0,47
3,39,96,1
3,39,0,1
3,35,95,47
3,30,107,48
3,35,0,1
3,30,0,32
3,30,106,15
3,30,0,41
3,30,107,7
3,30,0,41
3,30,106,7
3,30,0,37
3,30,107,11
3,30,0,41
3,35,95,103
3,35,0,45
3,37,108,3
3,37,0,37
3,37,106,11
3,37,0,37
3,37,104,11
3,37,0,41
3,37,103,7
3,37,0,37
3,37,104,11
3,37,0,41
3,35,97,151
3,35,0,41
3,35,104,7
3,35,0,37
3,35,104,11
3,35,0,41
3,35,103,7
3,35,0,37
3,35,104,11
3,35,0,41
3,23,94,199
3,23,0,45
3,23,94,3
3,23,0,45
3,23,94,3
3,23,0,45
3,23,94,3
3,23,0,45
3,27,96,3
3,27,0,46
3,30,96,2
3,30,0,46
3,25,95,2
3,30,109,48
3,25,0,1
3,30,0,32
3,30,108,15
3,30,0,57
3,35,95,231
3,35,0,45
3,37,108,3
3,37,0,25
3,37,106,23
3,37,0,57
3,35,97,279
3,35,0,24
3,35,104,24
3,35,0,58
3,33,99,8
3,33,0,1
3,33,99,8
3,33,0,33
3,33,99,15
3,33,0,33
3,33,99,15
3,33,0,33
3,33,99,15
3,33,0,5
3,34,106,3
3,34,0,45
3,30,109,47
3,30,0,33
3,30,108,15
3,30,0,57
3,35,95,231
3,35,0,45
3,37,108,3
3,37,0,25
3,37,106,23
3,37,0,57
3,35,97,279
3,35,0,24
3,35,104,24
3,35,0,58
3,40,99,326
3,39,92,48
3,40,0,1
3,39,0,43
3,35,99,4
3,40,99,48
3,35,0,6
3,39,102,42
3,40,0,9
3,39,0,32
3,35,99,7
3,35,0,48
3,34,108,0
3,34,0,37
3,30,107,11
3,30,0,33
3,30,106,15
3,30,0,53
3,35,95,235
3,35,0,45
3,37,108,3
3,37,0,37
3,37,106,11
3,37,0,57
3,35,97,279
3,35,0,41
3,35,88,7
3,35,0,45
3,37,92,51
3,37,0,45
3,27,95,3
3,27,0,45
3,27,99,3
3,27,0,45
3,27,95,3
3,27,0,45
3,27,92,3
3,27,0,45
3,28,99,3
3,40,88,44
3,28,0,1
3,28,99,3
3,28,0,45
3,28,99,3
3,28,0,45
3,28,99,3
3,28,0,45
3,29,102,3
3,40,0,41
3,29,0,4
3,29,99,3
3,41,88,1
3,29,0,44
3,29,99,3
3,29,0,45
3,29,99,3
3,41,0,43
3,29,0,2
3,30,109,3
3,30,0,33
3,30,108,15
3,30,0,57
3,35,95,231
3,35,0,45
3,37,108,3
3,37,0,25
3,37,106,23
3,37,0,57
3,35,107,279
3,35,0,24
3,35,99,24
3,35,0,45
3,35,99,3
3,35,0,45
3,35,99,3
3,39,104,48
3,35,0,1
3,35,99,47
3,39,0,8
3,35,0,37
3,35,99,3
3,35,0,45
3,35,99,3
3,40,105,48
3,35,0,2
3,40,0,43
3,35,99,3
3,35,0,45
3,35,99,3
3,35,0,45
3,35,99,3
3,42,97,48
3,35,0,1
3,42,0,44
3,40,99,3
3,39,97,48
3,40,0,3
3,39,0,42
3,35,102,3
3,35,0,45
