track,note,velocity,time
1,33,115,1920
1,33,0,240
1,37,115,240
1,37,0,240
1,43,115,240
1,43,0,240
1,35,115,240
1,35,0,240
1,35,115,120
1,35,0,108
1,33,115,12
1,33,0,240
1,37,115,240
1,37,0,240
1,43,115,240
1,43,0,240
1,43,115,120
1,43,0,108
1,35,115,12
1,35,0,240
1,33,115,240
1,33,0,240
1,37,115,240
1,37,0,240
1,43,115,240
1,43,0,240
1,35,115,240
1,35,0,240
1,35,115,120
1,35,0,108
1,33,115,12
1,33,0,240
1,37,115,240
1,37,0,240
1,43,115,240
1,43,0,240
1,35,115,240
1,35,0,240
1,35,115,120
1,35,0,108
1,40,115,12
1,40,0,336
1,40,100,24
1,40,0,114
1,42,115,6
1,42,0,336
1,42,100,24
1,42,0,114
1,33,115,6
1,33,0,336
1,33,115,24
1,33,0,108
1,40,115,10
1,40,0,336
1,33,100,26
1,33,0,114
1,40,115,6
1,40,0,336
1,40,100,24
1,40,0,114
1,42,115,6
1,42,0,336
1,42,100,24
1,42,0,114
1,33,115,6
1,33,0,336
1,33,115,24
1,33,0,108
1,40,115,10
1,40,0,336
1,32,100,26
1,32,0,114
1,33,115,6
1,33,0,240
1,37,115,240
1,37,0,240
1,43,115,240
1,43,0,240
1,35,115,240
1,35,0,240
1,35,115,120
1,35,0,108
1,33,115,12
1,33,0,240
1,37,115,240
1,37,0,240
1,43,115,240
1,43,0,240
1,35,115,240
1,35,0,240
1,33,115,240
1,33,0,240
1,37,115,240
1,37,0,240
1,43,115,240
1,43,0,240
1,35,115,240
1,35,0,240
1,33,115,240
1,33,0,240
1,37,115,240
1,37,0,240
1,43,115,240
1,43,0,240
1,35,115,240
1,35,0,240
1,33,115,240
1,33,0,240
1,37,115,240
1,37,0,240
1,43,115,240
1,43,0,240
1,35,115,240
1,35,0,240
1,35,115,120
1,35,0,108
1,33,115,12
1,33,0,240
1,37,115,240
1,37,0,240
1,43,115,240
1,43,0,240
1,35,115,240
1,35,0,240
1,40,115,240
1,40,0,336
1,40,100,24
1,40,0,114
1,42,115,6
1,42,0,336
1,42,100,24
1,42,0,114
1,33,115,6
1,33,0,336
1,33,100,24
1,33,0,114
1,40,115,4
1,40,0,336
1,40,100,26
1,40,0,114
1,40,115,6
1,40,0,336
1,40,100,24
1,40,0,114
1,42,115,6
1,42,0,336
1,42,100,24
1,42,0,114
1,33,115,6
1,33,0,336
1,33,115,24
1,33,0,108
1,40,115,10
1,40,0,336
1,33,100,26
1,33,0,114
1,33,115,6
1,33,0,240
1,37,115,240
1,37,0,240
1,43,115,240
1,43,0,240
1,35,115,240
1,35,0,240
1,33,115,240
1,33,0,240
1,37,115,240
1,37,0,240
1,43,115,240
1,43,0,240
1,35,115,240
1,35,0,240
1,37,115,240
1,37,0,336
1,37,100,24
1,37,0,114
1,44,115,4
1,44,0,336
1,44,100,26
1,44,0,114
1,40,115,6
1,40,0,100
1,42,115,20
1,42,0,220
1,33,115,20
1,33,0,452
1,33,100,28
1,33,0,114
1,37,115,6
1,37,0,336
1,37,100,24
1,37,0,114
1,37,115,6
1,37,0,240
1,35,115,0
1,35,0,240
1,33,115,0
1,33,0,336
1,33,115,24
1,33,0,108
1,40,115,10
1,40,0,336
1,38,100,26
1,38,0,114
1,37,115,6
1,37,0,336
1,37,100,24
1,37,0,114
1,44,115,4
1,44,0,336
1,44,100,26
1,44,0,114
1,40,115,6
1,40,0,100
1,42,115,20
1,42,0,220
1,33,115,20
1,33,0,452
1,33,100,28
1,33,0,114
1,37,115,6
1,37,0,336
1,37,100,24
1,37,0,114
1,32,115,4
1,32,0,336
1,32,100,26
1,32,0,114
1,35,115,6
1,35,0,336
1,35,100,24
1,35,0,114
1,30,115,4
1,30,0,336
1,30,100,26
1,30,0,114
1,33,115,6
1,33,0,240
1,37,115,240
1,37,0,240
1,43,115,240
1,43,0,240
1,35,115,240
1,35,0,240
1,35,115,120
1,35,0,108
1,33,115,12
1,33,0,240
1,37,115,240
1,37,0,240
1,43,115,240
1,43,0,240
1,35,115,240
1,35,0,240
1,35,115,120
1,35,0,108
1,33,115,12
1,33,0,240
1,37,115,240
1,37,0,240
1,43,115,240
1,43,0,240
1,43,115,120
1,43,0,108
1,35,115,12
1,35,0,240
1,33,115,240
1,33,0,240
1,37,115,240
1,37,0,240
1,43,115,240
1,43,0,240
1,35,115,240
1,35,0,240
1,40,115,240
1,40,0,336
1,40,100,24
1,40,0,114
1,42,115,6
1,42,0,336
1,42,100,24
1,42,0,114
1,33,115,6
1,33,0,336
1,33,100,24
1,33,0,114
1,40,115,4
1,40,0,336
1,40,100,26
1,40,0,114
1,40,115,6
1,40,0,336
1,40,100,24
1,40,0,114
1,42,115,6
1,42,0,336
1,42,100,24
1,42,0,114
1,33,115,6
1,33,0,336
1,33,100,24
1,33,0,114
1,40,115,4
1,40,0,240
1,35,115,2
1,35,0,240
1,33,115,0
1,33,0,240
1,37,115,240
1,37,0,240
1,43,115,240
1,43,0,240
1,35,115,240
1,35,0,240
1,33,115,240
1,33,0,240
1,37,115,240
1,37,0,240
1,43,115,240
1,43,0,240
1,43,115,120
1,43,0,108
1,35,115,12
1,35,0,240
1,33,115,240
1,33,0,240
1,35,115,240
1,35,0,240
1,37,115,240
1,37,0,240
1,38,115,240
1,38,0,240
1,33,115,240
1,33,0,240
1,33,115,120
1,33,0,108
1,40,115,10
1,40,0,240
1,33,115,2
1,33,0,230
1,33,115,10
1,33,0,960
2,37,84,0
2,37,0,240
2,37,84,240
2,37,0,240
2,37,64,240
2,37,0,240
2,37,84,0
2,37,0,240
2,37,64,0
2,37,0,240
2,37,84,0
2,37,0,240
2,35,115,0
2,42,115,0
2,42,0,50
2,35,0,0
2,42,80,70
2,42,0,50
2,42,100,10
2,42,0,50
2,42,115,10
2,37,115,0
2,37,0,50
2,42,0,0
2,42,70,70
2,42,0,50
2,42,90,10
2,42,0,50
2,35,115,10
2,42,115,0
2,42,0,50
2,35,0,0
2,42,80,70
2,42,0,50
2,42,100,10
2,42,0,50
2,42,115,10
2,37,115,0
2,37,0,50
2,42,0,0
2,42,70,70
2,42,0,50
2,42,90,10
2,42,0,50
2,35,115,10
2,42,115,0
2,42,0,50
2,35,0,0
2,42,80,70
2,42,0,50
2,42,100,10
2,42,0,50
2,42,115,10
2,37,115,0
2,37,0,50
2,42,0,0
2,42,70,70
2,42,0,50
2,42,90,10
2,42,0,50
2,35,115,10
2,42,115,0
2,42,0,50
2,35,0,0
2,42,80,70
2,42,0,50
2,42,100,10
2,42,0,50
2,35,80,10
2,42,115,0
2,37,115,0
2,37,0,50
2,42,0,0
2,35,0,0
2,42,70,70
2,42,0,50
2,42,90,10
2,42,0,50
2,35,115,10
2,42,115,0
2,42,0,50
2,35,0,0
2,42,80,70
2,42,0,50
2,42,100,10
2,42,0,50
2,42,115,10
2,37,115,0
2,37,0,50
2,42,0,0
2,42,70,70
2,42,0,50
2,42,90,10
2,42,0,50
2,35,115,10
2,42,115,0
2,42,0,50
2,35,0,0
2,42,80,70
2,42,0,50
2,42,100,10
2,42,0,50
2,42,115,10
2,37,115,0
2,37,0,50
2,42,0,0
2,42,70,70
2,42,0,50
2,42,90,10
2,42,0,50
2,35,115,10
2,42,115,0
2,42,0,50
2,35,0,0
2,42,80,70
2,42,0,50
2,42,100,10
2,42,0,50
2,42,115,10
2,37,115,0
2,37,0,50
2,42,0,0
2,42,70,70
2,42,0,50
2,42,90,10
2,42,0,50
2,35,115,10
2,42,115,0
2,42,0,50
2,35,0,0
2,42,80,70
2,42,0,50
2,42,100,10
2,42,0,50
2,35,80,10
2,42,115,0
2,37,115,0
2,37,0,50
2,42,0,0
2,35,0,0
2,42,70,70
2,42,0,50
2,46,90,10
2,46,0,50
2,35,115,10
2,42,115,0
2,42,0,50
2,35,0,0
2,42,80,70
2,42,0,50
2,42,100,10
2,42,0,50
2,42,115,10
2,37,115,0
2,37,0,50
2,42,0,0
2,42,70,70
2,42,0,50
2,46,90,10
2,46,0,50
2,35,115,10
2,42,115,0
2,42,0,50
2,35,0,0
2,42,80,70
2,42,0,50
2,42,100,10
2,42,0,50
2,42,115,10
2,37,115,0
2,37,0,50
2,42,0,0
2,42,70,70
2,42,0,50
2,42,90,10
2,42,0,50
2,35,115,10
2,42,115,0
2,42,0,50
2,35,0,0
2,42,80,70
2,42,0,50
2,42,100,10
2,42,0,50
2,42,115,10
2,37,115,0
2,37,0,50
2,42,0,0
2,42,70,70
2,42,0,50
2,42,90,10
2,42,0,50
2,35,115,10
2,42,115,0
2,42,0,50
2,35,0,0
2,42,80,70
2,42,0,50
2,42,100,10
2,42,0,50
2,35,80,10
2,42,115,0
2,37,115,0
2,37,0,50
2,42,0,0
2,35,0,0
2,42,70,70
2,42,0,50
2,46,90,10
2,46,0,50
2,35,115,10
2,42,115,0
2,42,0,50
2,35,0,0
2,42,80,70
2,42,0,50
2,46,90,10
2,46,0,50
2,42,115,10
2,37,115,0
2,37,0,50
2,42,0,0
2,42,70,70
2,42,0,50
2,42,90,10
2,42,0,50
2,35,115,10
2,42,115,0
2,42,0,50
2,35,0,0
2,42,80,70
2,42,0,50
2,42,100,10
2,42,0,50
2,42,115,10
2,37,115,0
2,37,0,50
2,42,0,0
2,42,70,70
2,42,0,50
2,42,90,10
2,42,0,50
2,35,115,10
2,42,115,0
2,42,0,50
2,35,0,0
2,42,80,70
2,37,80,0
2,37,0,50
2,42,0,0
2,42,100,10
2,37,100,0
2,37,0,50
2,42,0,0
2,42,115,10
2,37,115,0
2,37,0,50
2,42,0,0
2,42,70,70
2,42,0,50
2,42,90,10
2,42,0,50
2,35,115,10
2,42,115,0
2,42,0,50
2,35,0,0
2,42,80,70
2,37,80,0
2,37,0,50
2,42,0,0
2,46,90,10
2,37,100,0
2,37,0,50
2,46,0,0
2,42,115,10
2,37,115,0
2,37,0,50
2,42,0,0
2,42,70,70
2,45,90,0
2,45,0,50
2,42,0,0
2,42,90,10
2,42,0,50
2,35,115,10
2,42,115,0
2,49,90,0
2,49,0,50
2,42,0,0
2,35,0,0
2,42,80,70
2,42,0,50
2,46,90,10
2,46,0,50
2,38,100,10
2,42,115,0
2,51,100,0
2,51,0,50
2,42,0,0
2,38,0,0
2,35,80,70
2,42,70,0
2,42,0,50
2,35,0,0
2,42,90,10
2,42,0,50
2,35,115,10
2,42,115,0
2,51,115,0
2,51,0,50
2,42,0,0
2,35,0,0
2,42,80,70
2,42,0,50
2,42,100,10
2,42,0,50
2,38,100,10
2,42,115,0
2,51,100,0
2,51,0,50
2,42,0,0
2,38,0,0
2,35,80,70
2,42,70,0
2,42,0,50
2,35,0,0
2,42,90,10
2,42,0,50
2,35,115,10
2,42,115,0
2,51,115,0
2,51,0,50
2,42,0,0
2,35,0,0
2,42,80,70
2,42,0,50
2,42,100,10
2,42,0,50
2,38,100,10
2,42,115,0
2,51,100,0
2,51,0,50
2,42,0,0
2,38,0,0
2,35,80,70
2,42,70,0
2,42,0,50
2,35,0,0
2,42,90,10
2,42,0,50
2,35,115,10
2,42,115,0
2,51,115,0
2,51,0,50
2,42,0,0
2,35,0,0
2,42,80,70
2,42,0,50
2,46,90,10
2,46,0,50
2,38,100,10
2,42,115,0
2,51,100,0
2,51,0,50
2,42,0,0
2,38,0,0
2,35,80,70
2,42,70,0
2,42,0,50
2,35,0,0
2,42,90,10
2,42,0,50
2,35,115,10
2,42,115,0
2,51,115,0
2,51,0,50
2,42,0,0
2,35,0,0
2,42,80,70
2,42,0,50
2,42,100,10
2,42,0,50
2,38,100,10
2,42,115,0
2,51,100,0
2,51,0,50
2,42,0,0
2,38,0,0
2,35,80,70
2,42,70,0
2,42,0,50
2,35,0,0
2,42,90,10
2,42,0,50
2,35,115,10
2,42,115,0
2,51,115,0
2,51,0,50
2,42,0,0
2,35,0,0
2,42,80,70
2,42,0,50
2,42,100,10
2,42,0,50
2,38,100,10
2,42,115,0
2,51,100,0
2,51,0,50
2,42,0,0
2,38,0,0
2,35,80,70
2,42,70,0
2,42,0,50
2,35,0,0
2,42,90,10
2,42,0,50
2,35,115,10
2,42,115,0
2,51,115,0
2,51,0,50
2,42,0,0
2,35,0,0
2,38,80,70
2,42,80,0
2,42,0,50
2,38,0,0
2,38,100,10
2,42,100,0
2,42,0,50
2,38,0,0
2,38,115,10
2,42,115,0
2,51,100,0
2,51,0,50
2,42,0,0
2,38,0,0
2,35,80,70
2,38,70,0
2,42,70,0
2,42,0,50
2,38,0,0
2,35,0,0
2,38,90,10
2,42,90,0
2,42,0,50
2,38,0,0
2,35,115,10
2,38,115,0
2,42,115,0
2,51,115,0
2,51,0,50
2,35,0,0
2,38,0,0
2,42,0,0
2,38,80,70
2,42,80,0
2,42,0,50
2,38,0,0
2,38,100,10
2,42,100,0
2,42,0,50
2,38,0,0
2,38,115,10
2,42,115,0
2,51,100,0
2,51,0,50
2,42,0,0
2,38,0,0
2,35,80,70
2,38,127,0
2,42,70,0
2,42,0,50
2,38,0,0
2,35,0,0
2,42,90,10
2,42,0,50
2,35,115,10
2,51,108,0
2,51,0,50
2,35,0,0
2,42,80,70
2,42,0,50
2,42,100,10
2,42,0,50
2,42,115,10
2,37,115,0
2,37,0,50
2,42,0,0
2,42,70,70
2,42,0,50
2,46,90,10
2,46,0,50
2,35,115,10
2,42,115,0
2,42,0,50
2,35,0,0
2,42,80,70
2,42,0,50
2,46,90,10
2,46,0,50
2,42,115,10
2,37,115,0
2,37,0,50
2,42,0,0
2,42,70,70
2,42,0,50
2,42,90,10
2,42,0,50
2,35,115,10
2,42,115,0
2,42,0,50
2,35,0,0
2,42,80,70
2,42,0,50
2,42,100,10
2,42,0,50
2,42,115,10
2,37,115,0
2,37,0,50
2,42,0,0
2,42,70,70
2,42,0,50
2,42,90,10
2,42,0,50
2,35,115,10
2,42,115,0
2,42,0,50
2,35,0,0
2,42,80,70
2,42,0,50
2,42,100,10
2,42,0,50
2,35,80,10
2,42,115,0
2,37,115,0
2,37,0,50
2,42,0,0
2,35,0,0
2,42,70,70
2,42,0,50
2,46,90,10
2,46,0,50
2,35,115,10
2,42,115,0
2,42,0,50
2,35,0,0
2,42,80,70
2,42,0,50
2,42,100,10
2,42,0,50
2,42,115,10
2,37,115,0
2,37,0,50
2,42,0,0
2,42,70,70
2,42,0,50
2,42,90,10
2,42,0,50
2,35,115,10
2,42,115,0
2,42,0,50
2,35,0,0
2,42,80,70
2,42,0,50
2,42,100,10
2,42,0,50
2,42,115,10
2,37,115,0
2,37,0,50
2,42,0,0
2,42,70,70
2,42,0,50
2,42,90,10
2,42,0,50
2,35,115,10
2,42,115,0
2,42,0,50
2,35,0,0
2,42,80,70
2,42,0,50
2,42,100,10
2,42,0,50
2,42,115,10
2,37,115,0
2,37,0,50
2,42,0,0
2,42,70,70
2,42,0,50
2,42,90,10
2,42,0,50
2,35,115,10
2,42,115,0
2,42,0,50
2,35,0,0
2,42,80,70
2,37,80,0
2,37,0,50
2,42,0,0
2,42,100,10
2,37,90,0
2,37,0,50
2,42,0,0
2,35,80,10
2,42,115,0
2,37,115,0
2,37,0,50
2,42,0,0
2,35,0,0
2,42,70,70
2,37,90,0
2,37,0,50
2,42,0,0
2,42,90,10
2,42,0,50
2,35,115,10
2,51,108,0
2,51,0,50
2,35,0,0
2,42,80,70
2,42,0,50
2,46,90,10
2,46,0,50
2,42,115,10
2,37,115,0
2,37,0,50
2,42,0,0
2,42,70,70
2,42,0,50
2,42,90,10
2,42,0,50
2,35,115,10
2,42,115,0
2,42,0,50
2,35,0,0
2,42,80,70
2,42,0,50
2,46,90,10
2,46,0,50
2,42,115,10
2,37,115,0
2,37,0,50
2,42,0,0
2,42,70,70
2,42,0,50
2,42,90,10
2,42,0,50
2,35,115,10
2,42,115,0
2,42,0,50
2,35,0,0
2,42,80,70
2,42,0,50
2,42,100,10
2,42,0,50
2,42,115,10
2,37,115,0
2,37,0,50
2,42,0,0
