track,note,velocity,time
0,66,64,360
0,66,0,119
0,67,64,1
0,59,64,0
0,43,64,0
0,43,0,119
0,50,64,1
0,59,0,59
0,67,0,0
0,59,64,1
0,67,64,0
0,50,0,59
0,55,64,1
0,67,0,119
0,59,0,0
0,55,0,0
0,66,64,1
0,62,64,0
0,50,64,0
0,62,0,119
0,66,0,0
0,50,0,0
0,62,64,1
0,64,64,0
0,45,64,0
0,45,0,119
0,52,64,1
0,64,0,59
0,62,0,0
0,62,64,1
0,64,64,0
0,52,0,59
0,57,64,1
0,64,0,119
0,62,0,0
0,57,0,0
0,61,64,1
0,64,64,0
0,52,64,0
0,64,0,119
0,61,0,0
0,52,0,0
0,66,64,1
0,64,64,0
0,50,64,0
0,64,0,59
0,66,0,0
0,66,64,1
0,64,64,0
0,50,0,59
0,45,64,1
0,64,0,59
0,66,0,0
0,66,64,1
0,62,64,0
0,45,0,59
0,42,64,1
0,62,0,119
0,66,0,0
0,42,0,0
0,61,64,1
0,64,64,0
0,46,64,0
0,64,0,119
0,61,0,0
0,46,0,0
0,62,64,1
0,59,64,0
0,47,64,0
0,47,0,119
0,54,64,1
0,59,0,59
0,59,64,1
0,54,0,59
0,45,64,1
0,62,0,119
0,45,0,0
0,66,64,1
0,62,64,0
0,54,64,0
0,62,0,119
0,66,0,0
0,59,0,0
0,54,0,0
0,62,64,1
0,67,64,0
0,43,64,0
0,43,0,119
0,50,64,1
0,67,0,59
0,62,0,0
0,62,64,1
0,67,64,0
0,50,0,59
0,55,64,1
0,67,0,119
0,62,0,0
0,55,0,0
0,66,64,1
0,62,64,0
0,50,64,0
0,62,0,119
0,66,0,0
0,50,0,0
0,64,64,1
0,62,64,0
0,45,64,0
0,64,0,59
0,62,0,0
0,64,64,1
0,62,64,0
0,45,0,59
0,52,64,1
0,62,0,59
0,61,64,1
0,64,0,59
0,61,0,0
0,52,0,0
0,62,64,1
0,59,64,0
0,57,64,0
0,62,0,119
0,59,0,0
0,57,0,0
0,61,64,1
0,57,64,0
0,45,64,0
0,61,0,119
0,57,0,0
0,45,0,0
0,62,64,1
0,54,64,0
0,50,64,0
0,50,0,119
0,45,64,1
0,54,0,59
0,57,64,1
0,45,0,59
0,50,64,1
0,57,0,119
0,50,0,0
0,54,64,1
0,45,64,0
0,54,0,119
0,45,0,0
0,54,64,1
0,38,64,0
0,38,0,119
0,45,64,1
0,54,0,59
0,57,64,1
0,45,0,59
0,50,64,1
0,57,0,119
0,50,0,0
0,54,64,1
0,45,64,0
0,62,0,6
0,54,0,0
0,45,0,0
0,69,64,1
0,66,64,0
0,62,64,0
0,38,64,0
0,69,64,0
0,38,0,119
0,45,64,1
0,69,0,6
0,62,0,0
0,66,0,0
0,69,0,0
0,69,64,1
0,66,64,0
0,62,64,0
0,69,64,0
0,45,0,6
0,50,64,1
0,69,0,119
0,62,0,0
0,66,0,0
0,50,0,0
0,69,0,0
0,69,64,1
0,66,64,0
0,62,64,0
0,45,64,0
0,69,64,0
0,69,0,6
0,62,0,0
0,66,0,0
0,45,0,0
0,69,0,0
0,71,64,1
0,67,64,0
0,62,64,0
0,43,64,0
0,71,64,0
0,43,0,119
0,50,64,1
0,71,0,6
0,62,0,0
0,67,0,0
0,71,0,0
0,69,64,1
0,62,64,0
0,59,64,0
0,69,64,0
0,50,0,59
0,43,64,1
0,69,0,6
0,59,0,0
0,62,0,0
0,43,0,0
0,69,0,0
0,67,64,1
0,62,64,0
0,59,64,0
0,43,64,0
0,67,64,0
0,67,0,6
0,59,0,0
0,62,0,0
0,43,0,0
0,67,0,0
0,69,64,1
0,66,64,0
0,57,64,0
0,38,64,0
0,69,64,0
0,38,0,119
0,45,64,1
0,69,0,59
0,57,0,0
0,66,0,0
0,69,0,0
0,66,64,1
0,62,64,0
0,57,64,0
0,66,64,0
0,45,0,6
0,50,64,1
0,66,0,119
0,57,0,0
0,62,0,0
0,50,0,0
0,66,0,0
0,64,64,1
0,62,64,0
0,57,64,0
0,45,64,0
0,64,64,0
0,64,0,6
0,57,0,0
0,62,0,0
0,45,0,0
0,64,0,0
0,62,64,1
0,62,64,0
0,54,64,0
0,38,64,0
0,62,64,0
0,38,0,119
0,45,64,1
0,54,0,59
0,57,64,1
0,45,0,59
0,50,64,1
0,62,0,7
0,62,0,0
0,57,0,0
0,50,0,0
0,62,0,0
0,66,64,1
0,66,64,0
0,62,64,0
0,57,64,0
0,45,64,0
0,66,64,0
0,66,0,7
0,66,0,0
0,57,0,0
0,62,0,0
0,45,0,0
0,66,0,0
0,69,64,1
0,66,64,0
0,62,64,0
0,38,64,0
0,69,64,0
0,38,0,119
0,45,64,1
0,62,0,59
0,66,0,0
0,66,64,1
0,62,64,0
0,45,0,59
0,50,64,1
0,69,0,8
0,62,0,0
0,66,0,0
0,50,0,0
0,69,0,0
0,69,64,1
0,66,64,0
0,62,64,0
0,45,64,0
0,69,64,0
0,69,0,8
0,62,0,0
0,66,0,0
0,45,0,0
0,69,0,0
0,71,64,1
0,67,64,0
0,62,64,0
0,43,64,0
0,71,64,0
0,43,0,119
0,50,64,1
0,71,0,8
0,62,0,0
0,67,0,0
0,71,0,0
0,69,64,1
0,62,64,0
0,59,64,0
0,69,64,0
0,50,0,59
0,43,64,1
0,69,0,8
0,59,0,0
0,62,0,0
0,43,0,0
0,69,0,0
0,67,64,1
0,62,64,0
0,59,64,0
0,43,64,0
0,67,64,0
0,67,0,8
0,59,0,0
0,62,0,0
0,43,0,0
0,67,0,0
0,69,64,1
0,69,64,0
0,62,64,0
0,45,64,0
0,69,64,0
0,45,0,119
0,52,64,1
0,62,0,59
0,64,64,1
0,52,0,59
0,57,64,1
0,64,0,119
0,57,0,0
0,62,64,1
0,45,64,0
0,62,0,119
0,45,0,0
0,61,64,1
0,45,64,0
0,69,0,119
0,69,0,0
0,45,0,0
0,69,0,0
0,52,64,1
0,61,0,59
0,66,64,1
0,66,64,0
0,62,64,0
0,66,64,0
0,52,0,9
0,57,64,1
0,66,0,9
0,66,0,0
0,62,0,0
0,57,0,0
0,66,0,0
0,67,64,1
0,67,64,0
0,64,64,0
0,45,64,0
0,67,64,0
0,67,0,9
0,67,0,0
0,64,0,0
0,45,0,0
0,67,0,0
0,69,64,1
0,66,64,0
0,62,64,0
0,38,64,0
0,69,64,0
0,38,0,119
0,45,64,1
0,69,0,9
0,62,0,0
0,66,0,0
0,69,0,0
0,69,64,1
0,66,64,0
0,62,64,0
0,69,64,0
0,45,0,9
0,50,64,1
0,69,0,119
0,62,0,0
0,66,0,0
0,50,0,0
0,69,0,0
0,69,64,1
0,66,64,0
0,62,64,0
0,45,64,0
0,69,64,0
0,69,0,9
0,62,0,0
0,66,0,0
0,45,0,0
0,69,0,0
0,71,64,1
0,67,64,0
0,62,64,0
0,43,64,0
0,71,64,0
0,43,0,119
0,50,64,1
0,71,0,9
0,62,0,0
0,67,0,0
0,71,0,0
0,69,64,1
0,62,64,0
0,59,64,0
0,69,64,0
0,50,0,9
0,43,64,1
0,69,0,119
0,59,0,0
0,62,0,0
0,43,0,0
0,69,0,0
0,67,64,1
0,62,64,0
0,59,64,0
0,43,64,0
0,67,64,0
0,67,0,9
0,59,0,0
0,62,0,0
0,43,0,0
0,67,0,0
0,69,64,1
0,66,64,0
0,57,64,0
0,38,64,0
0,69,64,0
0,38,0,119
0,45,64,1
0,69,0,9
0,57,0,0
0,66,0,0
0,69,0,0
0,66,64,1
0,62,64,0
0,57,64,0
0,66,64,0
0,45,0,59
0,50,64,1
0,66,0,9
0,57,0,0
0,62,0,0
0,50,0,0
0,66,0,0
0,64,64,1
0,62,64,0
0,57,64,0
0,45,64,0
0,64,64,0
0,64,0,119
0,57,0,0
0,62,0,0
0,45,0,0
0,64,0,0
0,62,64,1
0,62,64,0
0,54,64,0
0,38,64,0
0,62,64,0
0,38,0,119
0,45,64,1
0,54,0,59
0,57,64,1
0,45,0,59
0,50,64,1
0,62,0,10
0,62,0,0
0,57,0,0
0,50,0,0
0,62,0,0
0,66,64,1
0,66,64,0
0,62,64,0
0,57,64,0
0,45,64,0
0,66,64,0
0,66,0,10
0,66,0,0
0,57,0,0
0,62,0,0
0,45,0,0
0,66,0,0
0,69,64,1
0,66,64,0
0,62,64,0
0,38,64,0
0,69,64,0
0,38,0,119
0,45,64,1
0,62,0,59
0,66,0,0
0,66,64,1
0,62,64,0
0,45,0,59
0,50,64,1
0,69,0,11
0,62,0,0
0,66,0,0
0,50,0,0
0,69,0,0
0,66,64,1
0,57,64,0
0,62,64,0
0,45,64,0
0,66,64,0
0,66,0,11
0,62,0,0
0,57,0,0
0,45,0,0
0,66,0,0
0,67,64,1
0,59,64,0
0,62,64,0
0,43,64,0
0,67,64,0
0,43,0,119
0,50,64,1
0,67,0,11
0,62,0,0
0,59,0,0
0,67,0,0
0,67,64,1
0,62,64,0
0,59,64,0
0,67,64,0
0,50,0,11
0,43,64,1
0,67,0,119
0,59,0,0
0,62,0,0
0,43,0,0
0,67,0,0
0,66,64,1
0,62,64,0
0,59,64,0
0,43,64,0
0,66,64,0
0,66,0,11
0,59,0,0
0,62,0,0
0,43,0,0
0,66,0,0
0,64,64,1
0,64,64,0
0,62,64,0
0,45,64,0
0,64,64,0
0,45,0,119
0,52,64,1
0,62,0,59
0,57,64,1
0,52,0,59
0,57,64,1
0,57,0,119
0,57,0,0
0,62,64,1
0,45,64,0
0,62,0,119
0,45,0,0
0,61,64,1
0,45,64,0
0,64,0,119
0,64,0,0
0,61,0,0
0,45,0,0
0,64,0,0
0,52,64,1
0,66,64,60
0,66,64,0
0,62,64,0
0,66,64,0
0,52,0,12
0,57,64,1
0,66,0,12
0,66,0,0
0,62,0,0
0,57,0,0
0,66,0,0
0,67,64,1
0,67,64,0
0,64,64,0
0,45,64,0
0,67,64,0
0,67,0,12
0,67,0,0
0,64,0,0
0,45,0,0
0,67,0,0
0,69,64,1
0,66,64,0
0,62,64,0
0,38,64,0
0,69,64,0
0,38,0,119
0,45,64,1
0,69,0,12
0,62,0,0
0,66,0,0
0,69,0,0
0,69,64,1
0,66,64,0
0,62,64,0
0,69,64,0
0,45,0,12
0,50,64,1
0,69,0,119
0,62,0,0
0,66,0,0
0,50,0,0
0,69,0,0
0,69,64,1
0,66,64,0
0,62,64,0
0,45,64,0
0,69,64,0
0,69,0,12
0,62,0,0
0,66,0,0
0,45,0,0
0,69,0,0
0,71,64,1
0,67,64,0
0,62,64,0
0,43,64,0
0,71,64,0
0,43,0,119
0,50,64,1
0,71,0,12
0,62,0,0
0,67,0,0
0,71,0,0
0,69,64,1
0,62,64,0
0,59,64,0
0,69,64,0
0,50,0,12
0,43,64,1
0,69,0,119
0,59,0,0
0,62,0,0
0,43,0,0
0,69,0,0
0,67,64,1
0,62,64,0
0,59,64,0
0,43,64,0
0,67,64,0
0,67,0,12
0,59,0,0
0,62,0,0
0,43,0,0
0,67,0,0
0,69,64,1
0,66,64,0
0,57,64,0
0,38,64,0
0,69,64,0
0,38,0,119
0,45,64,1
0,69,0,12
0,57,0,0
0,66,0,0
0,69,0,0
0,66,64,1
0,62,64,0
0,57,64,0
0,66,64,0
0,45,0,12
0,50,64,1
0,66,0,119
0,57,0,0
0,62,0,0
0,50,0,0
0,66,0,0
0,64,64,1
0,62,64,0
0,57,64,0
0,45,64,0
0,64,64,0
0,64,0,12
0,57,0,0
0,62,0,0
0,45,0,0
0,64,0,0
0,62,64,1
0,62,64,0
0,54,64,0
0,38,64,0
0,62,64,0
0,38,0,119
0,45,64,1
0,54,0,59
0,57,64,1
0,45,0,59
0,50,64,1
0,62,0,13
0,62,0,0
0,57,0,0
0,50,0,0
0,62,0,0
0,66,64,1
0,66,64,0
0,62,64,0
0,57,64,0
0,45,64,0
0,66,64,0
0,66,0,13
0,66,0,0
0,57,0,0
0,62,0,0
0,45,0,0
0,66,0,0
0,69,64,1
0,66,64,0
0,62,64,0
0,38,64,0
0,69,64,0
0,38,0,119
0,45,64,1
0,62,0,59
0,66,0,0
0,66,64,1
0,62,64,0
0,45,0,59
0,50,64,1
0,69,0,14
0,62,0,0
0,66,0,0
0,50,0,0
0,69,0,0
0,69,64,1
0,66,64,0
0,62,64,0
0,45,64,0
0,69,64,0
0,69,0,14
0,62,0,0
0,66,0,0
0,45,0,0
0,69,0,0
0,71,64,1
0,67,64,0
0,62,64,0
0,43,64,0
0,71,64,0
0,43,0,119
0,50,64,1
0,71,0,14
0,62,0,0
0,67,0,0
0,71,0,0
0,69,64,1
0,62,64,0
0,59,64,0
0,69,64,0
0,50,0,14
0,43,64,1
0,69,0,119
0,59,0,0
0,62,0,0
0,43,0,0
0,69,0,0
0,67,64,1
0,62,64,0
0,59,64,0
0,43,64,0
0,67,64,0
0,67,0,14
0,59,0,0
0,62,0,0
0,43,0,0
0,67,0,0
0,69,64,1
0,69,64,0
0,62,64,0
0,45,64,0
0,69,64,0
0,45,0,119
0,52,64,1
0,62,0,59
0,64,64,1
0,52,0,59
0,57,64,1
0,64,0,119
0,57,0,0
0,62,64,1
0,45,64,0
0,62,0,119
0,45,0,0
0,61,64,1
0,45,64,0
0,69,0,119
0,45,0,0
0,52,64,1
0,61,0,59
0,66,64,1
0,64,64,0
0,66,64,0
0,52,0,59
0,57,64,1
0,66,0,119
0,69,0,0
0,64,0,0
0,57,0,0
0,66,0,0
0,69,0,0
0,66,64,1
0,66,64,0
0,61,64,0
0,45,64,0
0,66,64,0
0,66,0,16
0,66,0,0
0,61,0,0
0,45,0,0
0,66,0,0
0,67,64,1
0,62,64,0
0,59,64,0
0,43,64,0
0,67,64,0
0,43,0,119
0,50,64,1
0,67,0,16
0,59,0,0
0,62,0,0
0,67,0,0
0,67,64,1
0,62,64,0
0,59,64,0
0,67,64,0
0,50,0,16
0,43,64,1
0,67,0,16
0,59,0,0
0,62,0,0
0,43,0,0
0,67,0,0
0,66,64,1
0,62,64,0
0,59,64,0
0,43,64,0
0,66,64,0
0,43,0,119
0,64,64,1
0,64,64,0
0,61,64,0
0,45,64,0
0,64,64,0
0,66,0,16
0,59,0,0
0,62,0,0
0,66,0,0
0,45,0,60
0,52,64,1
0,61,0,59
0,57,64,1
0,52,0,59
0,45,64,1
0,64,0,16
0,64,0,0
0,57,0,0
0,45,0,0
0,64,0,0
0,64,64,1
0,64,64,0
0,61,64,0
0,45,64,0
0,64,64,0
0,64,0,16
0,64,0,0
0,61,0,0
0,45,0,0
0,64,0,0
0,66,64,1
0,62,64,0
0,57,64,0
0,50,64,0
0,66,64,0
0,66,0,16
0,57,0,0
0,62,0,0
0,66,0,0
0,66,64,1
0,62,64,0
0,57,64,0
0,66,64,0
0,50,0,59
0,45,64,1
0,66,0,16
0,57,0,0
0,62,0,0
0,66,0,0
0,66,64,1
0,58,64,0
0,54,64,0
0,66,64,0
0,45,0,59
0,54,64,1
0,66,0,16
0,54,0,0
0,58,0,0
0,54,0,0
0,66,0,0
0,64,64,1
0,58,64,0
0,54,64,0
0,49,64,0
0,64,64,0
0,64,0,16
0,54,0,0
0,58,0,0
0,49,0,0
0,64,0,0
0,62,64,1
0,62,64,0
0,59,64,0
0,47,64,0
0,62,64,0
0,47,0,119
0,42,64,1
0,59,0,59
0,54,64,1
0,42,0,59
0,47,64,1
0,62,0,17
0,62,0,0
0,54,0,0
0,47,0,0
0,62,0,0
0,66,64,1
0,66,64,0
0,62,64,0
0,59,64,0
0,45,64,0
0,66,64,0
0,66,0,17
0,66,0,0
0,59,0,0
0,62,0,0
0,45,0,0
0,66,0,0
0,67,64,1
0,62,64,0
0,59,64,0
0,43,64,0
0,67,64,0
0,43,0,119
0,50,64,1
0,67,0,17
0,59,0,0
0,62,0,0
0,67,0,0
0,67,64,1
0,62,64,0
0,59,64,0
0,67,64,0
0,50,0,17
0,43,64,1
0,67,0,119
0,59,0,0
0,62,0,0
0,43,0,0
0,67,0,0
0,66,64,1
0,62,64,0
0,59,64,0
0,43,64,0
