track,note,velocity,time
1,43,98,609
1,43,0,71
1,43,88,7
1,43,0,42
1,42,92,12
1,42,0,134
1,41,102,9
1,41,0,92
1,36,98,41
1,35,24,107
1,35,0,12
1,36,0,0
1,36,87,16
1,36,0,72
1,31,97,6
1,31,0,48
1,36,98,1
1,36,0,118
1,36,78,11
1,36,0,74
1,31,96,0
1,31,0,42
1,43,101,9
1,43,0,124
1,43,96,9
1,43,0,67
1,43,76,15
1,43,0,39
1,42,96,4
1,42,0,125
1,41,104,17
1,41,0,60
1,31,106,24
1,31,0,46
1,36,88,4
1,36,0,116
1,36,86,17
1,36,0,38
1,31,87,41
1,31,0,43
1,36,76,1
1,36,0,97
1,36,88,31
1,36,0,51
1,31,69,21
1,31,0,24
1,48,39,41
1,48,0,84
1,48,86,42
1,48,0,78
1,48,97,14
1,48,0,26
1,47,105,13
1,47,0,111
1,46,94,22
1,46,0,94
1,41,96,42
1,41,0,98
1,41,100,20
1,41,0,41
1,36,88,43
1,36,0,42
1,41,98,4
1,41,0,101
1,41,93,22
1,41,0,44
1,31,104,34
1,31,0,37
1,36,102,13
1,36,0,102
1,36,96,25
1,36,0,82
1,36,92,9
1,36,0,25
1,42,100,26
1,42,0,107
1,41,107,21
1,41,0,62
1,41,83,17
1,41,0,26
1,36,96,28
1,36,0,102
1,36,87,26
1,36,0,32
1,31,89,51
1,31,0,39
1,36,91,4
1,36,0,93
1,36,96,30
1,36,0,73
1,38,91,8
1,38,0,16
1,48,88,36
1,50,88,0
1,48,0,31
1,50,0,89
1,50,108,21
1,50,0,65
1,50,102,17
1,50,0,28
1,49,98,13
1,49,0,104
1,48,100,22
1,48,0,91
1,47,96,45
1,47,0,99
1,47,68,34
1,47,0,59
1,38,89,21
1,38,0,40
1,43,104,5
1,43,0,98
1,43,96,15
1,43,0,50
1,31,82,36
1,33,85,1
1,33,0,19
1,31,0,21
1,36,82,4
1,36,0,104
1,43,74,37
1,43,0,74
1,43,98,13
1,43,0,34
1,42,87,12
1,42,0,97
1,41,100,25
1,41,0,102
1,36,94,47
1,36,0,95
1,36,94,34
1,36,0,44
1,31,97,39
1,31,0,40
1,36,87,1
1,36,0,98
1,36,89,32
1,36,0,42
1,31,93,38
1,31,0,39
1,36,92,5
1,36,0,97
1,36,98,32
1,36,0,74
1,36,96,13
1,36,0,20
1,42,96,25
1,42,0,102
1,41,107,35
1,41,0,73
1,31,102,17
1,31,0,48
1,36,94,4
1,36,0,109
1,36,88,18
1,36,0,39
1,31,86,37
1,31,0,42
1,36,92,1
1,36,0,102
1,36,92,17
1,36,0,76
1,31,93,12
1,31,0,42
1,36,96,2
1,36,0,106
1,36,98,27
1,36,0,74
1,36,97,10
1,36,0,24
1,42,87,25
1,42,0,103
1,41,102,29
1,41,0,54
1,31,101,25
1,31,0,48
1,36,89,7
1,36,0,102
1,36,86,20
1,36,0,40
1,31,97,46
1,31,0,43
1,36,88,2
1,36,0,93
1,36,92,22
1,36,0,43
1,43,98,35
1,43,0,31
1,50,104,23
1,50,0,61
1,48,97,75
1,48,0,72
1,48,96,12
1,48,0,28
1,47,104,15
1,47,0,114
1,46,96,14
1,46,0,74
1,41,100,56
1,41,0,99
1,41,88,23
1,41,0,40
1,36,88,43
1,36,0,45
1,41,98,3
1,41,0,102
1,41,92,19
1,41,0,49
1,31,97,40
1,31,0,38
1,36,81,8
1,36,0,119
1,36,96,18
1,36,0,67
1,36,88,10
1,36,0,21
1,42,98,27
1,42,0,104
1,41,98,30
1,41,0,52
1,31,78,30
1,31,0,47
1,36,98,8
1,36,0,105
1,36,79,17
1,36,0,37
1,31,87,51
1,36,89,41
1,31,0,1
1,36,0,90
1,36,82,27
1,36,0,47
1,31,98,29
1,31,0,20
1,50,100,36
1,50,0,117
1,50,101,15
1,50,0,80
1,50,94,11
1,50,0,33
1,48,98,11
1,48,0,117
1,47,104,18
1,47,0,93
1,46,92,40
1,46,0,97
1,37,84,37
1,36,51,2
1,36,0,6
1,37,0,0
1,43,35,27
1,43,0,19
1,38,104,27
1,38,0,39
1,43,105,4
1,43,0,97
1,43,102,13
1,43,0,80
1,31,93,10
1,31,0,32
1,36,101,8
1,36,0,113
1,36,98,22
1,36,0,67
1,36,78,9
1,36,0,30
1,42,102,22
1,42,0,99
1,41,105,34
1,41,0,54
1,31,87,26
1,31,0,41
1,36,86,7
1,36,0,102
1,36,80,19
1,36,0,44
1,31,96,51
1,31,0,29
1,36,92,13
1,36,0,43
1,36,85,67
1,36,0,44
1,31,88,39
1,31,0,34
1,36,80,7
1,36,0,105
1,36,93,30
1,36,0,77
1,36,88,10
1,36,0,24
1,42,90,21
1,42,0,95
1,41,100,33
1,41,0,41
1,31,100,39
1,31,0,37
1,36,94,5
1,36,0,106
1,36,89,15
1,36,0,41
1,31,91,41
1,31,0,32
1,36,100,12
1,36,0,82
1,36,89,32
1,36,0,35
1,31,86,42
1,31,0,40
1,36,92,9
1,36,0,120
1,36,93,16
1,36,0,70
1,31,97,12
1,31,0,29
1,42,88,27
1,42,0,91
1,41,93,31
1,41,0,79
1,31,83,7
1,31,0,36
1,36,92,5
1,36,0,111
1,36,88,12
1,36,0,46
1,31,89,32
1,31,0,37
1,36,88,4
1,36,0,101
1,36,79,24
1,31,83,76
1,36,0,3
1,31,0,18
1,48,91,33
1,48,0,103
1,48,80,34
1,48,0,38
1,41,87,43
1,41,0,34
1,48,70,14
1,47,62,1
1,47,0,3
1,48,0,78
1,46,88,38
1,46,0,74
1,45,81,12
1,47,83,1
1,47,0,8
1,45,0,12
1,41,97,25
1,41,0,103
1,41,96,19
1,41,0,35
1,36,88,45
1,36,0,38
1,41,93,3
1,41,0,100
1,41,93,24
1,41,0,41
1,31,98,35
1,31,0,44
1,36,88,7
1,36,0,89
1,36,89,26
1,36,0,75
1,36,89,11
1,36,0,18
1,42,82,29
1,42,0,100
1,41,104,28
1,41,0,48
1,31,94,33
1,31,0,36
1,36,96,9
1,36,0,113
1,36,87,13
1,36,0,41
1,31,88,42
1,31,0,41
1,36,96,1
1,36,0,102
1,36,87,18
1,36,0,34
1,38,72,35
1,38,0,20
1,50,88,31
1,48,86,0
1,48,0,16
1,50,0,98
1,50,92,18
1,50,0,75
1,50,94,13
1,50,0,29
1,49,86,12
1,49,0,102
1,48,96,31
1,48,0,65
1,38,91,23
1,38,0,45
1,43,97,6
1,43,0,103
1,43,93,27
1,43,0,28
1,38,88,48
1,38,0,40
1,43,94,3
1,43,0,95
1,43,91,26
1,43,0,42
1,31,86,30
1,31,0,51
1,36,89,7
1,36,0,91
1,36,87,29
1,36,0,94
1,36,88,10
1,36,0,21
1,42,92,24
1,42,0,86
1,41,102,34
1,41,0,60
1,31,102,34
1,31,0,35
1,36,96,14
1,36,0,315
1,36,89,20
1,36,0,230
2,67,96,484
2,60,89,0
2,48,82,1
2,60,0,20
2,67,0,0
2,67,76,20
2,60,56,3
2,60,0,15
2,67,0,1
2,48,0,8
2,67,83,3
2,60,68,2
2,60,0,14
2,67,0,1
2,48,64,32
2,60,85,1
2,67,89,1
2,60,0,17
2,67,0,1
2,48,0,16
2,67,86,6
2,60,64,2
2,60,0,14
2,67,0,1
2,67,89,22
2,60,76,0
2,48,50,12
2,67,0,7
2,60,0,4
2,48,0,11
2,60,85,15
2,66,96,3
2,48,83,2
2,66,0,15
2,66,48,16
2,66,0,21
2,60,0,7
2,48,0,4
2,66,88,17
2,60,89,0
2,60,0,16
2,66,0,1
2,48,85,31
2,60,93,1
2,65,108,2
2,65,0,19
2,60,0,15
2,60,81,49
2,48,0,5
2,60,0,18
2,60,91,10
2,64,107,3
2,48,97,0
2,64,0,16
2,64,58,16
2,64,0,25
2,60,0,5
2,60,52,14
2,64,78,0
2,48,0,9
2,64,0,6
2,60,0,5
2,64,92,27
2,60,69,1
2,48,70,2
2,64,0,15
2,60,0,3
2,48,0,7
2,60,57,12
2,64,87,0
2,48,32,7
2,64,0,7
2,60,0,3
2,48,0,4
2,64,92,18
2,60,72,0
2,64,0,14
2,60,0,2
2,60,83,32
2,64,98,0
2,48,79,1
2,64,0,14
2,60,0,2
2,48,0,6
2,64,96,16
2,60,76,1
2,48,60,3
2,64,0,10
2,60,0,2
2,48,0,7
2,64,97,19
2,60,79,0
2,48,73,3
2,64,0,13
2,60,0,1
2,48,0,6
2,64,100,22
2,60,79,1
2,48,79,2
2,64,0,14
2,60,0,1
2,48,0,7
2,60,85,17
2,65,106,0
2,48,71,1
2,65,0,13
2,60,0,3
2,48,0,11
2,60,87,10
2,66,98,3
2,48,17,10
2,60,0,3
2,66,0,1
2,48,0,5
2,60,106,5
2,48,91,1
2,67,110,3
2,67,0,19
2,60,0,1
2,48,0,7
2,67,102,13
2,60,89,0
2,67,0,16
2,60,0,1
2,48,82,31
2,67,101,2
2,60,89,0
2,60,0,24
2,67,0,1
2,67,13,19
2,60,7,4
2,67,0,10
2,60,0,2
2,67,102,22
2,60,86,1
2,48,0,5
2,60,0,13
2,67,0,1
2,60,76,23
2,66,100,3
2,48,70,1
2,66,0,61
2,60,0,8
2,48,0,9
2,60,73,6
2,66,88,1
2,48,49,7
2,66,0,11
2,60,0,3
2,48,0,5
2,48,81,3
2,60,97,1
2,65,107,2
2,65,0,16
2,65,43,4
2,65,0,27
2,60,0,2
2,65,100,21
2,60,88,0
2,48,0,7
2,60,0,10
2,65,0,1
2,60,77,3
2,64,96,4
2,48,85,2
2,64,0,11
2,60,0,7
2,60,47,4
2,64,83,2
2,64,0,13
2,60,0,5
2,48,0,11
2,60,71,10
2,64,94,1
2,64,0,15
2,60,0,3
2,60,77,29
2,64,93,2
2,48,63,0
2,64,0,15
2,60,0,2
2,48,0,12
2,64,88,11
2,60,64,1
2,48,20,12
2,64,0,3
2,60,0,1
2,48,0,5
2,64,96,24
2,60,78,0
2,48,59,1
2,64,0,13
2,60,0,1
2,48,0,7
2,64,97,20
2,60,77,1
2,48,68,1
2,60,0,14
2,64,0,0
2,48,0,9
2,64,97,17
2,60,75,0
2,48,59,2
2,60,0,12
2,64,0,0
2,48,0,8
2,64,96,17
2,60,75,0
2,48,68,3
2,64,0,11
2,60,0,1
2,48,0,9
2,64,98,19
2,60,78,0
2,48,72,1
2,64,0,13
2,60,0,1
2,48,0,11
2,64,93,13
2,60,71,1
2,48,59,4
2,64,0,8
2,60,0,2
2,60,78,24
2,65,91,1
2,65,0,9
2,60,0,5
2,48,0,7
2,41,88,29
2,62,100,3
2,60,102,0
2,55,74,0
2,53,93,0
2,55,0,13
2,62,0,1
2,60,0,52
2,53,0,3
2,53,97,16
2,60,111,0
2,41,0,1
2,60,0,20
2,53,0,9
2,41,97,17
2,60,110,1
2,53,92,0
2,60,0,16
2,53,0,4
2,53,79,15
2,60,102,1
2,41,0,15
2,60,0,2
2,53,0,8
2,53,91,10
2,59,105,3
2,41,89,0
2,59,0,30
2,53,0,5
2,53,88,17
2,59,102,1
2,59,0,21
2,53,0,3
2,41,0,3
2,53,81,3
2,58,102,3
2,41,81,2
2,58,0,67
2,58,90,13
2,58,0,6
2,53,0,0
2,41,0,3
2,41,86,3
2,53,75,2
2,57,93,4
2,57,0,15
2,57,85,18
2,57,0,17
2,53,0,3
2,53,40,15
2,57,85,2
2,57,0,15
2,53,0,7
2,41,0,2
2,53,67,22
2,57,91,1
2,41,60,2
2,57,0,16
2,53,0,3
2,57,87,19
2,53,52,1
2,57,0,16
2,53,0,2
2,41,0,5
2,53,74,18
2,57,96,1
2,41,65,2
2,57,0,14
2,53,0,3
2,41,0,3
2,53,75,20
2,57,97,1
2,41,70,1
2,57,0,16
2,53,0,2
2,41,0,8
2,57,97,14
2,53,68,0
2,41,68,5
2,57,0,10
2,53,0,2
2,41,0,9
2,53,74,14
2,57,98,1
2,41,73,5
2,57,0,10
2,53,0,3
2,41,0,10
2,53,74,13
2,57,96,1
2,41,68,6
2,57,0,8
2,53,0,3
2,41,0,7
2,53,76,16
2,57,102,1
2,41,83,5
2,57,0,9
2,53,0,0
2,57,88,26
2,57,0,11
2,41,0,14
2,62,100,10
2,60,102,0
2,67,106,0
2,48,72,1
2,62,0,11
2,60,0,1
2,67,0,2
2,60,88,69
2,67,96,3
2,65,97,0
2,65,0,14
2,67,0,1
2,60,0,1
2,48,0,11
2,48,78,22
2,67,106,2
2,60,97,1
2,67,0,59
2,60,0,3
2,48,0,13
2,60,87,4
2,67,98,0
2,48,59,4
2,67,0,15
2,60,0,4
2,48,0,8
2,60,88,8
2,48,86,1
2,66,100,2
2,66,0,16
2,60,0,7
2,48,0,3
2,66,94,12
2,60,86,0
2,48,81,2
2,66,0,21
2,60,0,5
2,48,0,7
2,48,85,9
2,60,92,1
2,65,107,2
2,65,0,27
2,60,0,4
2,48,0,2
2,48,86,15
2,65,105,0
2,60,87,0
2,65,0,18
2,60,0,6
2,48,0,9
2,60,19,7
2,48,79,6
2,64,91,0
2,64,0,16
2,48,0,8
2,64,63,2
2,48,45,6
2,64,0,10
2,60,0,6
2,48,0,10
2,60,64,9
2,48,49,2
2,64,88,0
2,64,0,14
2,60,0,4
2,48,0,7
2,48,65,17
2,60,73,1
2,64,92,2
2,64,0,15
2,60,0,4
2,48,0,4
2,60,69,16
2,64,88,3
2,48,66,0
2,64,0,12
2,60,0,3
2,48,0,7
2,60,68,16
2,64,88,2
2,48,65,0
2,64,0,13
2,60,0,3
2,48,0,5
2,60,68,17
2,64,88,1
2,48,65,3
2,64,0,12
2,60,0,2
2,48,0,9
2,60,68,14
2,64,88,0
2,48,64,4
2,64,0,10
2,60,0,2
2,48,0,8
2,64,86,17
2,60,60,0
2,48,56,6
2,64,0,7
2,60,0,2
2,48,0,5
2,64,88,23
2,60,67,1
2,48,69,6
2,64,0,8
2,60,0,2
2,48,0,11
2,64,88,9
2,60,62,2
2,48,56,10
2,64,0,2
2,60,0,1
2,55,98,38
2,59,76,3
2,59,0,6
2,48,0,0
2,55,0,5
2,55,85,4
2,62,105,3
2,43,89,3
2,62,0,61
2,55,0,5
2,43,0,10
2,62,94,6
2,55,86,0
2,55,0,17
2,62,0,0
2,43,70,3
2,62,101,1
2,55,81,1
2,62,0,2
2,55,0,8
2,55,87,34
2,62,101,1
2,43,0,7
2,62,0,10
2,55,0,4
2,43,85,6
2,55,82,0
2,61,92,3
2,61,0,18
2,55,0,7
2,61,94,16
2,55,72,1
2,55,0,19
2,61,0,1
2,43,0,6
2,43,79,9
2,60,106,2
2,55,88,0
2,60,0,15
2,55,0,1
2,60,87,29
2,55,68,0
2,43,0,19
2,60,0,4
2,55,0,2
2,55,85,23
2,43,82,2
2,59,98,0
2,59,0,14
2,55,0,5
2,55,46,17
2,59,73,1
2,59,0,12
2,55,0,5
2,55,64,22
2,59,80,2
2,59,0,14
2,55,0,3
2,43,0,5
2,55,70,24
2,59,86,1
2,43,70,0
2,59,0,17
2,55,0,4
2,55,53,21
2,59,83,0
2,59,0,14
2,55,0,3
2,55,67,21
2,59,87,3
2,59,0,14
2,43,0,3
2,55,0,1
2,55,68,27
2,59,88,0
2,43,68,5
2,59,0,14
2,55,0,4
2,43,0,13
2,59,83,5
2,55,56,0
2,59,0,14
2,55,0,3
2,59,88,20
2,55,65,0
2,59,0,15
2,55,0,4
2,59,89,28
2,55,70,0
2,43,80,4
2,59,0,9
2,55,0,2
2,55,70,20
2,59,92,0
2,59,0,14
2,55,0,0
2,43,0,19
2,60,100,1
2,60,0,25
2,48,88,10
2,60,105,1
2,67,107,0
2,67,0,65
2,60,0,5
2,67,96,19
2,60,88,0
2,48,0,11
2,60,0,6
2,67,0,1
2,60,92,10
2,67,102,0
2,48,78,2
2,67,0,11
2,60,0,5
2,60,77,25
2,67,96,0
2,48,0,13
2,67,0,9
2,60,0,1
2,60,75,16
2,48,74,2
2,66,92,1
2,66,0,32
2,60,0,11
2,48,0,6
2,60,58,5
2,66,87,1
2,48,70,8
2,66,0,15
2,60,0,5
2,48,0,5
