track,note,velocity,time
0,42,60,380
0,42,0,11
0,42,45,199
0,42,0,11
0,42,47,200
0,42,0,11
0,60,46,178
0,62,50,19
0,60,0,13
0,64,52,2
0,62,0,15
0,65,51,2
0,64,0,15
0,67,52,0
0,69,53,14
0,65,0,2
0,71,54,12
0,67,0,4
0,72,54,11
0,69,0,2
0,74,54,10
0,71,0,4
0,76,55,8
0,72,0,6
0,77,55,5
0,74,0,8
0,79,55,3
0,76,0,9
0,81,56,2
0,83,55,8
0,77,0,1
0,84,56,9
0,79,0,2
0,86,56,7
0,81,0,3
0,88,56,7
0,83,0,3
0,89,55,6
0,84,0,4
0,86,0,9
0,96,78,1
0,91,53,1
0,55,94,2
0,60,88,0
0,64,79,0
0,49,51,1
0,55,93,0
0,60,88,0
0,64,82,0
0,35,108,1
0,42,74,0
0,88,0,3
0,36,107,1
0,64,75,1
0,67,75,0
0,72,75,0
0,42,0,6
0,35,0,0
0,89,0,1
0,91,0,15
0,67,66,78
0,72,90,0
0,42,51,0
0,51,44,2
0,67,62,0
0,72,83,0
0,42,0,9
0,51,0,2
0,36,0,83
0,67,0,5
0,67,0,1
0,67,73,3
0,38,93,1
0,42,71,0
0,67,68,0
0,51,56,1
0,36,107,4
0,42,0,6
0,38,0,0
0,51,0,1
0,67,0,58
0,67,0,2
0,67,68,2
0,51,31,0
0,42,60,1
0,67,63,0
0,51,0,10
0,42,0,1
0,36,0,40
0,35,78,1
0,36,94,3
0,35,0,8
0,67,0,24
0,67,0,2
0,67,75,2
0,67,70,1
0,64,0,1
0,55,0,0
0,60,0,0
0,55,0,1
0,60,0,0
0,64,0,0
0,72,0,7
0,72,0,1
0,51,56,1
0,36,0,1
0,57,93,0
0,60,88,0
0,65,79,0
0,35,104,1
0,42,69,0
0,57,92,0
0,60,88,0
0,65,82,0
0,41,106,1
0,67,0,1
0,64,0,0
0,72,0,0
0,65,75,2
0,69,75,0
0,72,75,0
0,69,100,1
0,69,92,2
0,51,0,2
0,42,0,2
0,35,0,0
0,67,0,16
0,67,0,1
0,41,0,5
0,65,0,29
0,65,0,2
0,57,0,0
0,60,0,0
0,60,0,1
0,57,0,0
0,69,0,37
0,64,71,0
0,69,0,1
0,55,86,0
0,60,80,0
0,51,47,0
0,64,76,0
0,55,87,1
0,60,82,0
0,67,95,1
0,35,85,0
0,42,60,0
0,67,88,1
0,41,100,1
0,51,0,7
0,42,0,2
0,35,0,0
0,67,0,87
0,67,0,1
0,67,74,2
0,49,0,1
0,67,69,0
0,38,93,3
0,42,72,0
0,53,65,0
0,69,95,7
0,69,88,1
0,53,0,3
0,42,0,0
0,38,0,0
0,67,0,18
0,67,0,1
0,64,0,40
0,60,0,1
0,64,0,0
0,55,0,0
0,55,0,2
0,60,0,0
0,69,0,24
0,69,0,1
0,67,90,2
0,67,83,1
0,41,0,3
0,59,80,0
0,55,88,1
0,62,72,0
0,42,60,0
0,51,42,0
0,59,82,0
0,55,88,2
0,62,76,0
0,43,102,1
0,51,0,8
0,42,0,0
0,67,0,6
0,67,0,1
0,69,86,1
0,69,80,1
0,69,0,30
0,69,0,1
0,38,65,2
0,67,83,1
0,67,77,1
0,38,0,9
0,53,52,28
0,35,105,3
0,42,71,0
0,65,0,1
0,69,0,0
0,72,0,0
0,62,75,2
0,67,75,0
0,71,75,0
0,53,0,2
0,42,0,3
0,35,0,0
0,35,95,94
0,42,62,0
0,42,0,11
0,35,0,0
0,51,56,93
0,38,93,1
0,42,71,0
0,51,0,10
0,42,0,1
0,38,0,0
0,62,0,49
0,59,0,0
0,55,0,0
0,62,0,1
0,55,0,0
0,59,0,0
0,43,0,41
0,43,95,3
0,55,83,0
0,62,68,0
0,42,63,0
0,51,37,0
0,59,78,1
0,55,85,0
0,62,73,0
0,59,81,1
0,51,0,9
0,42,0,0
0,43,0,39
0,43,90,3
0,35,78,0
0,35,0,11
0,43,0,2
0,62,0,2
0,59,0,0
0,96,0,0
0,55,0,0
0,59,0,1
0,55,0,0
0,62,0,0
0,43,107,0
0,64,78,1
0,91,71,0
0,35,102,0
0,42,69,0
0,55,94,1
0,60,87,0
0,51,57,0
0,64,81,0
0,93,76,1
0,55,93,0
0,60,88,0
0,42,0,9
0,35,0,0
0,51,0,1
0,91,0,8
0,64,0,27
0,55,0,0
0,43,0,0
0,55,0,1
0,64,0,0
0,35,92,3
0,57,76,2
0,65,62,0
0,57,79,1
0,65,69,0
0,35,84,51
0,42,62,0
0,51,46,0
0,93,0,9
0,96,74,1
0,51,0,1
0,42,0,0
0,35,0,0
0,35,0,37
0,51,37,3
0,36,86,6
0,51,0,5
0,57,0,39
0,65,0,0
0,60,0,0
0,60,0,1
0,57,0,0
0,65,0,0
0,67,0,3
0,55,92,0
0,60,85,0
0,64,76,0
0,51,56,0
0,67,0,1
0,38,93,0
0,42,72,0
0,55,91,0
0,60,86,0
0,64,79,0
0,36,0,2
0,67,94,0
0,96,0,1
0,67,87,0
0,91,71,1
0,38,107,1
0,93,74,2
0,51,0,2
0,38,0,2
0,42,0,0
0,91,0,14
0,64,0,23
0,55,0,0
0,55,0,1
0,64,0,0
0,57,81,0
0,65,60,0
0,57,83,1
0,65,67,0
0,38,0,1
0,67,0,0
0,67,0,1
0,69,78,1
0,35,87,1
0,69,72,0
0,65,0,39
0,65,0,1
0,57,0,4
0,35,0,1
0,57,0,0
0,31,95,2
0,64,64,0
0,55,80,2
0,51,38,0
0,64,70,0
0,69,0,1
0,46,52,0
0,55,82,0
0,69,0,1
0,72,92,1
0,72,85,1
0,93,0,2
0,96,76,2
0,51,0,3
0,46,0,1
0,38,70,42
0,38,0,11
0,31,0,35
0,51,56,5
0,60,0,1
0,55,0,0
0,64,0,0
0,60,0,1
0,55,0,0
0,64,0,0
0,35,108,0
0,42,71,0
0,67,0,2
0,71,0,0
0,62,0,0
0,36,107,0
0,64,75,2
0,67,75,0
0,72,75,0
0,55,97,1
0,60,87,0
0,64,80,1
0,55,95,0
0,60,88,0
0,64,82,2
0,51,0,1
0,35,0,2
0,42,0,0
0,51,42,92
0,42,60,2
0,60,0,2
0,60,0,1
0,60,77,4
0,60,80,1
0,51,0,1
0,42,0,2
0,57,47,48
0,36,0,2
0,38,93,0
0,42,71,0
0,53,62,1
0,55,0,1
0,55,0,2
0,55,93,2
0,36,107,1
0,55,92,0
0,42,0,4
0,38,0,0
0,53,0,1
0,64,0,91
0,64,0,1
0,51,38,0
0,60,0,1
0,42,62,0
0,60,0,2
0,60,77,2
0,64,72,0
0,36,0,1
0,60,80,0
0,64,76,0
0,36,94,4
0,51,0,1
0,42,0,1
0,36,0,35
0,35,81,7
0,36,90,7
0,35,0,4
0,72,0,1
0,72,0,1
0,96,0,2
0,67,76,0
0,55,0,1
0,67,71,0
0,55,0,2
0,91,68,0
0,35,105,0
0,42,71,0
0,51,57,0
0,64,0,1
0,72,91,0
0,64,0,1
0,67,0,0
0,72,0,0
0,64,0,0
0,72,84,0
0,57,99,1
0,65,80,0
0,36,0,1
0,41,105,0
0,65,75,0
0,69,75,0
0,72,75,0
0,93,76,0
0,57,97,0
0,65,82,0
0,42,0,7
0,51,0,0
0,35,0,0
0,67,0,10
0,91,0,0
0,67,0,2
0,69,76,2
0,69,71,1
0,41,0,27
0,36,87,2
0,60,0,28
0,65,0,0
0,57,0,0
0,65,0,1
0,60,0,0
0,57,0,0
0,36,0,21
0,41,99,0
0,55,88,0
0,60,77,0
0,64,71,0
0,35,93,0
0,42,62,0
0,51,41,0
0,55,88,1
0,60,80,0
0,64,76,0
0,93,0,1
0,69,0,0
0,69,0,1
0,96,74,1
0,67,92,1
0,72,0,1
0,67,85,0
0,72,0,1
0,51,0,4
0,42,0,0
0,35,0,0
0,67,0,91
0,67,0,1
0,69,96,1
0,38,93,1
0,42,71,0
0,69,89,0
0,96,0,1
0,53,58,0
0,91,71,2
0,42,0,8
0,38,0,0
0,53,0,1
0,93,71,1
0,91,0,13
0,69,0,69
0,69,0,1
0,67,89,1
0,67,82,1
0,60,0,3
0,64,0,0
0,55,0,0
0,64,0,1
0,55,0,0
0,60,0,0
0,41,0,1
0,55,91,1
0,59,80,0
0,62,73,0
0,42,62,1
0,51,46,0
0,55,91,0
0,59,82,0
0,62,77,0
0,93,0,1
0,91,76,2
0,43,99,1
0,42,0,7
0,51,0,0
0,67,0,1
0,67,0,1
0,69,81,2
0,69,75,0
0,69,0,19
0,69,0,1
0,67,81,1
0,67,75,1
0,57,0,46
0,59,0,0
0,59,0,1
0,53,52,1
0,49,61,1
0,35,105,1
0,42,72,0
0,69,0,2
0,72,0,0
0,65,0,0
0,59,82,0
0,59,84,2
0,62,75,1
0,67,75,0
0,71,75,0
0,53,0,3
0,35,0,2
0,42,0,0
0,55,0,91
0,55,0,1
0,35,92,2
0,42,62,0
0,43,0,1
0,43,98,0
0,51,32,0
0,55,85,2
0,55,86,1
0,42,0,7
0,35,0,0
0,51,0,1
0,62,0,49
0,62,0,1
0,43,0,1
0,43,108,3
0,38,93,0
0,42,72,0
0,51,56,0
0,62,76,2
0,62,79,1
0,51,0,8
0,42,0,0
0,38,0,0
0,43,0,82
0,59,0,11
0,59,0,1
0,43,99,0
0,42,63,0
0,51,34,0
0,60,69,1
0,60,74,1
0,62,0,8
0,62,0,1
0,51,0,0
0,42,0,0
0,35,84,41
0,35,0,11
0,43,0,37
0,51,51,3
0,55,0,1
0,62,103,0
0,55,0,1
0,35,106,0
0,42,69,0
0,62,96,0
0,43,105,1
0,67,67,4
0,67,63,1
0,51,0,3
0,60,0,0
0,60,0,1
0,42,0,1
0,35,0,0
0,67,0,17
0,67,0,0
0,67,0,1
0,67,0,0
0,43,0,19
0,72,86,1
0,53,43,1
0,72,80,0
0,65,94,2
0,35,94,0
0,42,63,0
0,43,100,1
0,65,74,0
0,53,0,8
0,42,0,2
0,35,0,0
0,62,0,60
0,62,0,1
0,43,0,28
0,49,0,2
0,62,101,2
0,38,93,1
0,42,72,0
0,62,94,0
0,43,107,1
0,51,44,0
0,42,0,10
0,38,0,0
0,51,0,1
0,65,0,25
0,65,0,2
0,43,0,39
0,60,95,15
0,46,55,0
0,51,48,0
0,60,90,1
0,43,98,2
0,51,0,8
0,46,0,0
0,62,0,12
0,62,0,1
0,43,0,66
0,62,103,13
0,62,96,1
0,51,56,1
0,49,56,1
0,43,105,2
0,35,105,0
0,42,69,0
0,60,0,2
0,60,0,1
0,51,0,2
0,42,0,2
0,35,0,0
0,43,0,83
0,65,75,7
0,65,75,1
0,51,41,3
0,72,0,1
0,43,99,0
0,35,94,0
0,42,61,0
0,72,0,1
0,79,88,2
0,79,81,1
0,51,0,6
0,35,0,1
0,42,0,0
0,62,0,76
0,62,0,1
0,43,0,12
0,62,91,2
0,53,62,1
0,62,87,0
0,79,0,2
0,38,93,0
0,42,72,0
0,79,0,1
0,43,108,0
0,79,104,2
0,79,96,1
0,53,0,5
0,42,0,2
0,38,0,0
0,65,0,22
0,65,0,1
0,60,95,45
0,60,90,1
0,43,0,1
0,79,0,1
0,79,0,1
0,42,62,0
0,51,41,0
0,43,98,2
0,79,89,0
0,79,82,1
0,51,0,8
0,42,0,0
0,43,0,40
0,62,0,2
0,35,89,0
0,62,0,1
0,43,92,1
0,35,0,9
0,43,0,40
0,60,0,0
0,79,0,0
0,60,0,1
0,79,0,0
0,35,104,0
0,42,69,0
0,64,98,1
0,69,96,0
0,53,52,0
0,43,105,1
0,67,78,0
0,64,96,0
0,69,89,0
0,67,81,1
0,42,0,8
0,35,0,0
0,53,0,1
0,43,0,40
0,38,75,1
0,36,91,2
0,38,0,9
0,36,0,1
0,42,64,1
0,51,39,0
0,31,102,3
0,51,0,1
0,42,0,0
0,35,93,0
0,35,0,2
0,67,0,15
0,67,0,1
0,64,0,7
0,64,0,1
0,31,0,2
0,49,0,1
0,65,75,4
0,38,93,0
0,42,69,0
0,51,49,0
0,60,93,1
0,65,79,0
0,31,110,1
0,60,92,0
0,51,0,8
0,42,0,0
0,38,0,0
0,31,0,48
0,65,0,2
0,60,0,0
0,51,56,0
0,65,0,2
0,60,0,0
0,64,66,1
0,35,95,0
0,42,62,0
0,55,87,1
0,64,72,0
0,36,98,1
0,55,88,0
0,51,0,6
0,42,0,3
0,35,0,0
0,91,0,5
0,69,0,34
0,72,93,0
0,64,0,1
0,69,0,0
0,49,59,0
0,64,0,1
0,36,0,0
0,36,107,0
0,35,108,0
0,42,63,0
0,62,0,1
0,67,0,0
0,71,0,0
0,48,99,1
0,76,75,1
0,79,75,0
0,84,75,0
0,64,76,0
0,48,97,0
0,64,71,1
0,35,0,6
0,42,0,0
0,55,0,2
0,55,0,1
0,72,0,30
0,72,80,4
0,72,0,33
0,72,89,16
0,42,51,8
0,51,47,1
0,72,92,2
0,72,85,1
0,42,0,7
0,51,0,1
0,72,0,54
0,72,103,31
0,38,93,8
0,42,71,0
0,53,62,0
0,53,0,11
0,42,0,0
0,38,0,0
0,36,0,74
0,72,0,12
0,69,72,2
0,51,33,5
0,42,60,1
0,51,0,10
0,42,0,1
0,69,0,34
0,72,93,1
0,36,86,10
0,36,0,46
0,51,56,2
0,48,0,1
0,35,103,0
0,42,63,0
0,48,0,2
0,64,0,0
0,79,0,1
0,76,0,0
0,84,0,0
0,64,0,0
0,38,105,0
0,50,99,0
0,50,97,1
0,74,75,1
0,79,75,0
0,84,75,0
0,65,76,0
0,65,71,1
0,51,0,4
0,35,0,1
0,42,0,0
0,72,0,5
0,38,0,20
0,72,84,8
0,38,97,57
0,72,0,1
0,72,0,1
0,51,42,0
0,35,94,3
0,42,60,0
0,65,72,2
0,60,81,1
0,65,76,0
0,60,83,1
0,72,91,1
0,72,84,1
0,51,0,2
0,42,0,3
0,35,0,0
0,72,0,9
0,72,99,20
0,49,0,60
0,38,93,5
0,42,69,0
0,51,56,1
0,42,0,10
0,38,0,0
0,51,0,1
0,72,0,85
0,42,60,8
0,51,36,1
0,42,0,10
0,51,0,1
0,38,0,34
0,38,88,8
0,72,100,43
0,65,0,2
0,65,0,1
0,38,0,1
0,52,98,0
0,60,0,1
0,52,96,0
0,60,0,1
0,51,56,0
0,40,103,1
0,50,0,1
0,65,0,0
0,35,108,0
0,42,71,0
0,50,0,1
0,65,0,0
0,84,0,1
0,79,0,0
0,74,0,0
0,67,73,1
0,76,75,2
0,79,75,0
0,84,75,0
0,67,68,0
0,51,0,4
0,35,0,2
0,42,0,0
0,40,0,50
0,72,0,17
0,72,85,20
0,72,0,2
0,72,0,1
0,60,81,1
0,67,71,0
0,60,83,1
0,67,76,0
0,51,46,1
0,42,57,1
0,40,99,1
0,72,89,3
0,72,82,1
0,51,0,5
0,42,0,1
0,72,0,16
0,72,99,19
0,51,57,57
0,38,93,2
0,42,72,0
0,51,0,9
0,42,0,2
0,38,0,0
0,72,0,35
0,72,99,3
0,51,42,54
0,42,60,3
0,51,0,8
0,42,0,3
0,40,0,17
0,72,0,14
0,69,69,1
0,40,86,9
0,35,81,0
0,35,0,11
0,67,0,21
0,67,0,1
0,69,0,7
0,72,93,1
0,52,0,5
0,52,0,1
0,40,0,2
0,53,98,0
0,53,96,2
0,41,101,2
0,35,107,0
0,42,69,0
0,69,74,1
0,51,56,0
0,76,0,1
0,79,0,0
0,84,0,0
0,69,69,0
0,77,75,2
0,81,75,0
0,84,75,0
0,60,0,5
0,60,0,1
0,42,0,1
0,35,0,0
0,51,0,1
0,67,0,5
0,67,0,1
0,41,0,29
0,36,83,2
0,72,0,14
0,72,0,9
0,72,0,1
0,72,80,14
0,36,0,12
0,41,96,4
0,60,81,0
0,65,71,0
0,51,49,0
0,60,83,1
0,65,76,0
0,35,95,1
0,42,60,0
0,72,91,2
0,72,84,1
0,51,0,6
0,42,0,2
0,35,0,0
0,72,0,28
0,72,100,3
0,53,45,61
0,38,93,2
0,42,72,0
0,53,0,9
0,42,0,2
0,38,0,0
0,42,63,94
0,51,37,0
0,41,0,9
