track,note,velocity,time
1,69,1,2976
1,72,1,0
1,72,1,0
1,72,1,0
1,72,1,0
1,74,1,0
1,72,1,0
1,74,1,0
1,69,1,0
1,72,1,0
1,72,1,0
1,72,1,0
1,72,1,0
1,74,1,0
1,72,1,0
1,72,1,0
1,67,1,0
1,69,1,0
1,69,1,0
1,69,1,0
1,67,1,0
1,69,1,0
1,69,1,0
1,70,1,0
1,67,1,0
1,67,1,288
1,67,1,0
1,67,1,0
1,69,1,96
1,70,1,0
1,70,1,0
1,70,1,0
1,70,1,0
1,69,1,0
1,70,1,0
1,70,1,192
1,70,1,0
1,70,1,0
1,70,1,0
1,70,1,0
1,70,1,0
1,70,1,0
1,62,1,0
1,62,1,0
1,69,1,0
1,69,1,0
1,69,1,0
1,69,1,0
1,70,1,0
1,69,1,0
1,69,1,0
1,65,1,0
1,67,1,0
1,67,1,0
1,67,1,96
1,69,1,0
1,69,1,0
1,69,1,1056
1,69,1,0
1,69,1,0
1,67,1,1056
1,69,1,0
1,69,1,0
1,69,1,576
1,67,1,0
1,70,1,768
1,69,1,0
1,67,1,0
1,69,1,0
1,69,1,0
1,72,1,2496
1,72,1,0
1,72,1,0
1,72,1,0
1,72,1,0
1,74,1,0
1,72,1,0
1,74,1,0
1,69,1,0
1,72,1,0
1,72,1,0
1,72,1,0
1,72,1,0
1,74,1,0
1,72,1,0
1,72,1,0
1,69,1,0
1,69,1,0
1,69,1,0
1,69,1,0
1,69,1,0
1,67,1,0
1,69,1,0
1,69,1,0
1,70,1,0
1,67,1,0
1,67,1,192
1,67,1,0
1,67,1,0
1,69,1,0
1,69,1,0
1,70,1,0
1,70,1,0
1,70,1,0
1,70,1,0
1,70,1,0
1,69,1,0
1,70,1,0
1,70,1,192
1,70,1,0
1,70,1,0
1,70,1,0
1,70,1,0
1,70,1,0
1,70,1,0
1,62,1,0
1,62,1,0
1,69,1,0
1,67,1,0
1,69,1,0
1,70,1,0
1,69,1,0
1,69,1,0
1,65,1,0
1,67,1,0
1,65,1,0
1,64,1,0
1,67,1,96
1,69,1,0
1,69,1,0
1,69,1,1056
1,69,1,0
1,69,1,0
1,67,1,1056
1,69,1,0
1,69,1,0
1,69,1,576
1,67,1,0
1,70,1,768
1,69,1,0
1,67,1,0
1,69,1,0
1,69,1,0
1,72,1,2496
1,72,1,0
1,72,1,0
1,72,1,0
1,72,1,0
1,74,1,0
1,72,1,0
1,74,1,0
1,69,1,0
1,69,1,0
1,69,1,0
1,69,1,0
1,65,1,0
1,69,1,0
1,65,1,0
1,69,1,288
1,72,1,0
1,72,1,0
1,72,1,0
1,72,1,0
1,74,1,0
1,72,1,0
1,74,1,0
1,69,1,0
1,70,1,0
1,70,1,0
1,70,1,0
1,67,1,0
1,69,1,0
1,69,1,0
1,72,1,48
1,70,1,0
1,69,1,0
1,72,1,0
1,72,1,0
1,72,1,0
1,72,1,0
1,74,1,0
1,72,1,0
1,74,1,0
1,69,1,0
1,72,1,0
1,72,1,0
1,72,1,0
1,72,1,0
1,74,1,0
1,72,1,0
1,72,1,0
1,67,1,0
1,69,1,0
1,69,1,0
1,69,1,0
1,67,1,0
1,69,1,0
1,69,1,0
1,70,1,0
1,67,1,0
1,67,1,288
1,67,1,0
1,67,1,0
1,69,1,96
1,70,1,0
1,70,1,0
1,70,1,0
1,70,1,0
1,69,1,0
1,70,1,0
1,70,1,192
1,70,1,0
1,70,1,0
1,70,1,0
1,70,1,0
1,70,1,0
1,70,1,0
1,62,1,0
1,62,1,0
1,69,1,0
1,69,1,0
1,69,1,0
1,69,1,0
1,70,1,0
1,69,1,0
1,69,1,0
1,65,1,0
1,67,1,0
1,67,1,0
1,67,1,96
1,69,1,0
1,69,1,0
1,69,1,1056
1,69,1,0
1,69,1,0
1,67,1,1056
1,69,1,0
1,69,1,0
1,69,1,576
1,67,1,0
1,70,1,768
1,69,1,0
1,67,1,0
1,69,1,0
1,69,1,0
1,72,1,2496
1,72,1,0
1,72,1,0
1,72,1,0
1,72,1,0
1,74,1,0
1,72,1,0
1,74,1,0
1,69,1,0
1,72,1,0
1,72,1,0
1,72,1,0
1,72,1,0
1,74,1,0
1,72,1,0
1,72,1,0
1,69,1,0
1,69,1,0
1,69,1,0
1,69,1,0
1,69,1,0
1,67,1,0
1,69,1,0
1,69,1,0
1,70,1,0
1,67,1,0
1,67,1,192
1,67,1,0
1,67,1,0
1,69,1,0
1,69,1,0
1,70,1,0
1,70,1,0
1,70,1,0
1,70,1,0
1,70,1,0
1,69,1,0
1,70,1,0
1,70,1,192
1,70,1,0
1,70,1,0
1,70,1,0
1,70,1,0
1,70,1,0
1,70,1,0
1,62,1,0
1,62,1,0
1,69,1,0
1,67,1,0
1,69,1,0
1,70,1,0
1,69,1,0
1,69,1,0
1,65,1,0
1,67,1,0
1,65,1,0
1,64,1,0
1,67,1,96
1,69,1,0
1,69,1,0
1,69,1,1056
1,69,1,0
1,69,1,0
1,67,1,1056
1,69,1,0
1,69,1,0
1,69,1,576
1,67,1,0
1,70,1,768
1,69,1,0
1,67,1,0
1,69,1,0
1,69,1,0
2,69,111,192
2,69,111,0
2,70,111,0
2,69,111,0
2,67,111,0
2,69,111,0
2,69,111,192
2,69,111,0
2,70,111,0
2,69,111,0
2,67,111,0
2,69,111,0
2,72,111,0
2,72,111,0
2,72,111,0
2,72,111,0
2,74,111,0
2,72,111,0
2,74,111,0
2,69,111,0
2,72,111,0
2,72,111,0
2,72,111,0
2,72,111,0
2,74,111,0
2,72,111,0
2,72,111,0
2,67,111,0
2,69,111,0
2,69,111,0
2,69,111,0
2,67,111,0
2,69,111,0
2,69,111,0
2,70,111,0
2,67,111,0
2,67,111,288
2,67,111,0
2,67,111,0
2,69,111,96
2,70,111,0
2,70,111,0
2,70,111,0
2,70,111,0
2,69,111,0
2,70,111,0
2,70,111,192
2,70,111,0
2,70,111,0
2,70,111,0
2,70,111,0
2,70,111,0
2,70,111,0
2,62,111,0
2,62,111,0
2,69,111,0
2,69,111,0
2,69,111,0
2,69,111,0
2,70,111,0
2,69,111,0
2,69,111,0
2,65,111,0
2,67,111,0
2,67,111,0
2,67,111,96
2,69,111,0
2,69,111,0
2,57,111,96
2,58,111,0
2,57,111,0
2,55,111,0
2,57,111,0
2,69,111,0
2,69,111,0
2,69,111,0
2,57,111,96
2,58,111,0
2,57,111,0
2,55,111,0
2,57,111,0
2,67,111,0
2,69,111,0
2,69,111,0
2,69,111,576
2,67,111,0
2,65,111,0
2,64,111,0
2,62,111,0
2,60,111,0
2,70,111,0
2,69,111,0
2,67,111,0
2,69,111,0
2,69,111,0
2,67,111,0
2,69,111,0
2,70,111,0
2,69,111,0
2,67,111,0
2,69,111,0
2,69,111,192
2,67,111,0
2,69,111,0
2,70,111,0
2,69,111,0
2,67,111,0
2,72,111,0
2,72,111,0
2,72,111,0
2,72,111,0
2,72,111,0
2,74,111,0
2,72,111,0
2,74,111,0
2,69,111,0
2,72,111,0
2,72,111,0
2,72,111,0
2,72,111,0
2,74,111,0
2,72,111,0
2,72,111,0
2,67,111,0
2,69,111,0
2,69,111,0
2,69,111,0
2,67,111,0
2,69,111,0
2,69,111,0
2,70,111,0
2,67,111,0
2,67,111,288
2,67,111,0
2,67,111,0
2,69,111,96
2,70,111,0
2,70,111,0
2,70,111,0
2,70,111,0
2,69,111,0
2,70,111,0
2,70,111,192
2,70,111,0
2,70,111,0
2,70,111,0
2,70,111,0
2,70,111,0
2,70,111,0
2,62,111,0
2,62,111,0
2,69,111,0
2,69,111,0
2,69,111,0
2,69,111,0
2,70,111,0
2,69,111,0
2,69,111,0
2,65,111,0
2,67,111,0
2,67,111,0
2,67,111,96
2,69,111,0
2,69,111,0
2,57,111,96
2,58,111,0
2,57,111,0
2,55,111,0
2,57,111,0
2,69,111,0
2,69,111,0
2,69,111,0
2,57,111,96
2,58,111,0
2,57,111,0
2,55,111,0
2,57,111,0
2,67,111,0
2,69,111,0
2,69,111,0
2,69,111,576
2,67,111,0
2,65,111,0
2,64,111,0
2,62,111,0
2,60,111,0
2,70,111,0
2,69,111,0
2,67,111,0
2,69,111,0
2,69,111,0
2,67,111,0
2,69,111,0
2,70,111,0
2,69,111,0
2,67,111,0
2,69,111,0
2,69,111,192
2,67,111,0
2,69,111,0
2,70,111,0
2,69,111,0
2,67,111,0
2,72,111,0
2,72,111,0
2,72,111,0
2,72,111,0
2,72,111,0
2,74,111,0
2,72,111,0
2,74,111,0
2,69,111,0
2,69,111,0
2,69,111,0
2,69,111,0
2,65,111,0
2,69,111,0
2,65,111,0
2,69,111,288
2,72,111,0
2,72,111,0
2,72,111,0
2,72,111,0
2,74,111,0
2,72,111,0
2,74,111,0
2,69,111,0
2,70,111,0
2,70,111,0
2,70,111,0
2,67,111,0
2,69,111,0
2,69,111,0
2,67,111,0
2,67,111,0
2,67,111,0
2,67,111,0
2,67,111,0
2,67,111,0
2,72,111,96
2,70,111,0
2,69,111,0
2,72,111,0
2,72,111,0
2,72,111,0
2,72,111,0
2,74,111,0
2,72,111,0
2,74,111,0
2,69,111,0
2,72,111,0
2,72,111,0
2,72,111,0
2,72,111,0
2,74,111,0
2,72,111,0
2,72,111,0
2,67,111,0
2,69,111,0
2,69,111,0
2,69,111,0
2,67,111,0
2,69,111,0
2,69,111,0
2,70,111,0
2,67,111,0
2,67,111,288
2,67,111,0
2,67,111,0
2,69,111,96
2,70,111,0
2,70,111,0
2,70,111,0
2,70,111,0
2,69,111,0
2,70,111,0
2,70,111,192
2,70,111,0
2,70,111,0
2,70,111,0
2,70,111,0
2,70,111,0
2,70,111,0
2,62,111,0
2,62,111,0
2,69,111,0
2,69,111,0
2,69,111,0
2,69,111,0
2,70,111,0
2,69,111,0
2,69,111,0
2,65,111,0
2,67,111,0
2,67,111,0
2,67,111,96
2,69,111,0
2,69,111,0
2,57,111,96
2,58,111,0
2,57,111,0
2,55,111,0
2,57,111,0
2,69,111,0
2,69,111,0
2,69,111,0
2,57,111,96
2,58,111,0
2,57,111,0
2,55,111,0
2,57,111,0
2,67,111,0
2,69,111,0
2,69,111,0
2,69,111,576
2,67,111,0
2,65,111,0
2,64,111,0
2,62,111,0
2,60,111,0
2,70,111,0
2,69,111,0
2,67,111,0
2,69,111,0
2,69,111,0
2,67,111,0
2,69,111,0
2,70,111,0
2,69,111,0
2,67,111,0
2,69,111,0
2,69,111,192
2,67,111,0
2,69,111,0
2,70,111,0
2,69,111,0
2,67,111,0
2,72,111,0
2,72,111,0
2,72,111,0
2,72,111,0
2,72,111,0
2,74,111,0
2,72,111,0
2,74,111,0
2,69,111,0
2,72,111,0
2,72,111,0
2,72,111,0
2,72,111,0
2,74,111,0
2,72,111,0
2,72,111,0
2,67,111,0
2,69,111,0
2,69,111,0
2,69,111,0
2,67,111,0
2,69,111,0
2,69,111,0
2,70,111,0
2,67,111,0
2,67,111,288
2,67,111,0
2,67,111,0
2,69,111,96
2,70,111,0
2,70,111,0
2,70,111,0
2,70,111,0
2,69,111,0
2,70,111,0
2,70,111,192
2,70,111,0
2,70,111,0
2,70,111,0
2,70,111,0
2,70,111,0
2,70,111,0
2,62,111,0
2,62,111,0
2,69,111,0
2,69,111,0
2,69,111,0
2,69,111,0
2,70,111,0
2,69,111,0
2,69,111,0
2,65,111,0
2,67,111,0
2,67,111,0
2,67,111,96
2,69,111,0
2,69,111,0
2,57,111,96
2,58,111,0
2,57,111,0
2,55,111,0
2,57,111,0
2,69,111,0
2,69,111,0
2,69,111,0
2,57,111,96
2,58,111,0
2,57,111,0
2,55,111,0
2,57,111,0
2,67,111,0
2,69,111,0
2,69,111,0
2,69,111,576
2,67,111,0
2,65,111,0
2,64,111,0
2,62,111,0
2,60,111,0
2,70,111,0
2,69,111,0
2,67,111,0
2,69,111,0
2,69,111,0
2,67,111,0
2,69,111,0
2,70,111,0
2,69,111,0
2,67,111,0
2,69,111,0
2,69,111,192
2,67,111,0
2,69,111,0
2,69,111,0
3,65,64,192
3,65,64,0
3,65,64,576
3,65,64,192
3,65,64,0
3,69,64,768
3,69,64,0
3,69,64,96
3,69,64,0
3,65,64,96
3,65,64,0
3,65,64,96
3,64,64,0
3,64,64,384
3,64,64,0
3,65,64,192
3,65,64,0
3,65,64,96
3,65,64,192
3,67,64,192
3,67,64,0
3,67,64,96
3,65,64,288
3,65,64,0
3,65,64,0
3,65,64,96
3,65,64,192
3,64,64,96
3,64,64,0
3,65,64,192
3,65,64,0
3,64,64,1152
3,64,64,0
3,65,64,1152
3,65,64,0
3,65,64,576
3,64,64,0
3,64,64,864
3,65,64,192
3,65,64,0
3,65,64,960
3,65,64,192
3,69,64,960
3,69,64,0
3,69,64,0
3,69,64,96
3,69,64,0
3,65,64,96
3,65,64,0
3,65,64,96
3,64,64,0
3,64,64,384
3,64,64,0
3,65,64,192
3,65,64,0
3,65,64,96
3,65,64,192
3,67,64,192
3,67,64,0
3,67,64,96
3,65,64,288
3,65,64,0
3,65,64,0
3,65,64,96
3,65,64,192
3,64,64,96
3,64,64,0
3,65,64,192
3,65,64,0
3,64,64,1152
3,64,64,0
3,65,64,1152
3,65,64,0
3,65,64,576
3,64,64,0
3,64,64,864
3,65,64,192
3,65,64,0
3,65,64,960
3,65,64,192
3,69,64,960
3,69,64,0
3,69,64,0
3,69,64,0
3,69,64,192
3,65,64,0
3,62,64,192
3,69,64,384
3,69,64,0
3,69,64,0
3,69,64,96
3,65,64,96
3,64,64,0
3,64,64,0
3,64,64,0
3,64,64,0
3,64,64,0
3,64,64,0
3,64,64,0
3,64,64,0
3,67,64,96
3,69,64,384
3,69,64,0
3,69,64,96
3,69,64,0
3,65,64,96
3,65,64,0
3,65,64,96
3,64,64,0
3,64,64,384
3,64,64,0
3,65,64,192
3,65,64,0
3,65,64,96
3,65,64,192
3,67,64,192
3,67,64,0
3,67,64,96
3,65,64,288
3,65,64,0
3,65,64,0
3,65,64,96
3,65,64,192
3,64,64,96
3,64,64,0
3,65,64,192
3,65,64,0
3,64,64,1152
3,64,64,0
3,65,64,1152
3,65,64,0
3,65,64,576
3,64,64,0
3,64,64,864
3,65,64,192
3,65,64,0
3,65,64,960
3,65,64,192
3,69,64,960
3,69,64,0
3,69,64,0
3,69,64,96
3,69,64,0
3,65,64,96
3,65,64,0
3,65,64,96
3,64,64,0
3,64,64,384
3,64,64,0
3,65,64,192
3,65,64,0
3,65,64,96
3,65,64,192
3,67,64,192
3,67,64,0
3,67,64,96
3,65,64,288
3,65,64,0
3,65,64,0
3,65,64,96
3,65,64,192
3,64,64,96
3,64,64,0
3,65,64,192
3,65,64,0
3,64,64,1152
3,64,64,0
3,65,64,1152
3,65,64,0
3,65,64,576
3,64,64,0
3,64,64,864
3,65,64,192
3,65,64,0
3,65,64,960
3,65,64,192
3,65,64,384
4,60,64,192
4,60,64,0
4,60,64,576
4,60,64,192
4,60,64,0
4,65,64,768
4,65,64,0
4,64,64,96
4,64,64,0
4,62,64,96
4,62,64,0
4,62,64,96
4,60,64,0
4,60,64,384
4,60,64,0
4,62,64,192
4,62,64,0
4,62,64,96
4,62,64,192
4,64,64,192
4,64,64,0
4,64,64,96
4,62,64,288
4,62,64,0
4,62,64,0
4,62,64,96
4,62,64,192
4,60,64,96
4,60,64,0
4,60,64,1920
4,60,64,0
4,62,64,1152
4,62,64,0
4,62,64,576
4,60,64,0
4,60,64,864
4,60,64,192
4,60,64,0
4,60,64,960
4,60,64,192
4,65,64,960
4,65,64,0
4,65,64,0
4,64,64,96
4,64,64,0
4,62,64,96
4,62,64,0
4,62,64,96
4,60,64,0
4,60,64,384
4,60,64,0
4,62,64,192
4,62,64,0
4,62,64,96
4,62,64,192
4,64,64,192
4,64,64,0
4,64,64,96
4,62,64,288
4,62,64,0
4,62,64,0
4,62,64,96
4,62,64,192
4,60,64,96
4,60,64,0
4,60,64,1920
4,60,64,0
4,62,64,1152
4,62,64,0
4,62,64,576
4,60,64,0
4,60,64,864
4,60,64,192
4,60,64,0
