track,note,velocity,time
1,69,127,4320
1,69,0,179
1,69,127,1
1,69,0,179
1,69,127,1
1,69,0,119
1,71,127,1
1,71,0,179
1,69,127,1
1,69,0,179
1,67,127,1
1,67,0,119
1,69,127,1
1,69,0,179
1,66,127,1
1,66,0,179
1,64,127,1
1,64,0,119
1,62,127,1
1,62,0,359
1,66,127,1
1,66,0,119
1,69,127,1
1,69,0,359
1,69,127,1
1,69,0,119
1,71,127,1
1,71,0,179
1,69,127,1
1,69,0,179
1,67,127,1
1,67,0,119
1,69,127,1
1,69,0,599
1,66,127,61
1,66,0,179
1,67,127,1
1,67,0,119
1,69,127,1
1,69,0,179
1,69,127,1
1,69,0,179
1,69,127,1
1,69,0,119
1,71,127,1
1,71,0,179
1,69,127,1
1,69,0,179
1,67,127,1
1,67,0,119
1,69,127,1
1,69,0,179
1,66,127,1
1,66,0,179
1,64,127,1
1,64,0,119
1,62,127,1
1,62,0,359
1,66,127,1
1,66,0,119
1,69,127,1
1,69,0,359
1,66,127,1
1,66,0,119
1,67,127,1
1,67,0,179
1,67,127,1
1,67,0,179
1,66,127,1
1,66,0,119
1,64,127,1
1,64,0,599
1,66,127,61
1,66,0,179
1,67,127,1
1,67,0,119
1,69,127,1
1,69,0,179
1,69,127,1
1,69,0,179
1,69,127,1
1,69,0,119
1,71,127,1
1,71,0,179
1,69,127,1
1,69,0,179
1,67,127,1
1,67,0,119
1,69,127,1
1,69,0,179
1,66,127,1
1,66,0,179
1,64,127,1
1,64,0,119
1,62,127,1
1,62,0,359
1,66,127,1
1,66,0,119
1,69,127,1
1,69,0,359
1,69,127,1
1,69,0,119
1,71,127,1
1,71,0,179
1,69,127,1
1,69,0,179
1,67,127,1
1,67,0,119
1,69,127,1
1,66,127,660
1,66,0,179
1,69,0,0
1,66,127,1
1,66,0,119
1,67,127,1
1,67,0,179
1,67,127,1
1,67,0,179
1,66,127,1
1,64,127,120
1,66,0,59
1,64,0,300
1,64,127,1
1,64,0,119
1,66,127,1
1,66,0,59
1,66,127,1
1,66,0,119
1,66,127,1
1,66,0,179
1,64,127,1
1,64,0,119
1,62,127,1
1,62,0,359
1,66,127,1
1,66,0,119
1,67,127,1
1,67,0,179
1,67,127,1
1,67,0,179
1,66,127,1
1,66,0,119
1,64,127,1
1,64,0,59
1,64,127,1
1,64,0,119
1,62,127,1
1,62,0,179
1,61,127,1
1,61,0,119
1,62,127,1
1,62,0,599
1,69,127,361
1,69,0,179
1,69,127,1
1,69,0,179
1,69,127,1
1,69,0,119
1,71,127,1
1,71,0,179
1,69,127,1
1,69,0,179
1,67,127,1
1,67,0,119
1,69,127,1
1,69,0,179
1,66,127,1
1,66,0,179
1,64,127,1
1,64,0,119
1,62,127,1
1,62,0,359
1,66,127,1
1,66,0,119
1,69,127,1
1,69,0,359
1,69,127,1
1,69,0,119
1,71,127,1
1,71,0,179
1,69,127,1
1,69,0,179
1,67,127,1
1,67,0,119
1,69,127,1
1,69,0,599
1,66,127,61
1,66,0,179
1,67,127,1
1,67,0,119
1,69,127,1
1,69,0,179
1,69,127,1
1,69,0,179
1,69,127,1
1,69,0,119
1,71,127,1
1,71,0,179
1,69,127,1
1,69,0,179
1,67,127,1
1,67,0,119
1,69,127,1
1,69,0,179
1,66,127,1
1,66,0,179
1,64,127,1
1,64,0,119
1,62,127,1
1,62,0,359
1,66,127,1
1,66,0,119
1,69,127,1
1,69,0,359
1,66,127,1
1,66,0,119
1,67,127,1
1,67,0,179
1,67,127,1
1,67,0,179
1,66,127,1
1,66,0,119
1,64,127,1
1,64,0,599
1,66,127,61
1,66,0,179
1,67,127,1
1,67,0,119
1,69,127,1
1,69,0,179
1,69,127,1
1,69,0,179
1,69,127,1
1,69,0,119
1,71,127,1
1,71,0,179
1,69,127,1
1,69,0,179
1,67,127,1
1,67,0,119
1,69,127,1
1,69,0,179
1,66,127,1
1,66,0,179
1,64,127,1
1,64,0,119
1,62,127,1
1,62,0,359
1,66,127,1
1,66,0,119
1,69,127,1
1,69,0,359
1,69,127,1
1,69,0,119
1,71,127,1
1,71,0,179
1,69,127,1
1,69,0,179
1,67,127,1
1,67,0,119
1,69,127,1
1,66,127,660
1,66,0,179
1,69,0,0
1,66,127,1
1,66,0,119
1,67,127,1
1,67,0,179
1,67,127,1
1,67,0,179
1,66,127,1
1,64,127,120
1,66,0,59
1,64,0,300
1,64,127,1
1,64,0,119
1,66,127,1
1,66,0,59
1,66,127,1
1,66,0,119
1,66,127,1
1,66,0,179
1,64,127,1
1,64,0,119
1,62,127,1
1,62,0,359
1,66,127,1
1,66,0,119
1,67,127,1
1,67,0,179
1,67,127,1
1,67,0,179
1,66,127,1
1,66,0,119
1,64,127,1
1,64,0,59
1,64,127,1
1,64,0,119
1,62,127,1
1,62,0,179
1,61,127,1
1,61,0,119
1,62,127,1
1,62,0,599
1,69,127,361
1,69,0,179
1,69,127,1
1,69,0,179
1,69,127,1
1,69,0,119
1,71,127,1
1,71,0,179
1,69,127,1
1,69,0,179
1,67,127,1
1,67,0,119
1,69,127,1
1,69,0,179
1,66,127,1
1,66,0,179
1,64,127,1
1,64,0,119
1,62,127,1
1,62,0,359
1,66,127,1
1,66,0,119
1,69,127,1
1,69,0,359
1,69,127,1
1,69,0,119
1,71,127,1
1,71,0,179
1,69,127,1
1,69,0,179
1,67,127,1
1,67,0,119
1,69,127,1
1,69,0,599
1,66,127,61
1,66,0,179
1,67,127,1
1,67,0,119
1,69,127,1
1,69,0,179
1,69,127,1
1,69,0,179
1,69,127,1
1,69,0,119
1,71,127,1
1,71,0,179
1,69,127,1
1,69,0,179
1,67,127,1
1,67,0,119
1,69,127,1
1,69,0,179
1,66,127,1
1,66,0,179
1,64,127,1
1,64,0,119
1,62,127,1
1,62,0,359
1,66,127,1
1,66,0,119
1,69,127,1
1,69,0,359
1,66,127,1
1,66,0,119
1,67,127,1
1,67,0,179
1,67,127,1
1,67,0,179
1,66,127,1
1,66,0,119
1,64,127,1
1,64,0,599
1,66,127,61
1,66,0,179
1,67,127,1
1,67,0,119
1,69,127,1
1,69,0,179
1,69,127,1
1,69,0,179
1,69,127,1
1,69,0,119
1,71,127,1
1,71,0,179
1,69,127,1
1,69,0,179
1,67,127,1
1,67,0,119
1,69,127,1
1,69,0,179
1,66,127,1
1,66,0,179
1,64,127,1
1,64,0,119
1,62,127,1
1,62,0,359
1,66,127,1
1,66,0,119
1,69,127,1
1,69,0,359
1,69,127,1
1,69,0,119
1,71,127,1
1,71,0,179
1,69,127,1
1,69,0,179
1,67,127,1
1,67,0,119
1,69,127,1
1,66,127,660
1,66,0,179
1,69,0,0
1,66,127,1
1,66,0,119
1,67,127,1
1,67,0,179
1,67,127,1
1,67,0,179
1,66,127,1
1,64,127,120
1,66,0,59
1,64,0,300
1,64,127,1
1,64,0,119
1,66,127,1
1,66,0,59
1,66,127,1
1,66,0,119
1,66,127,1
1,66,0,179
1,64,127,1
1,64,0,119
1,62,127,1
1,62,0,359
1,66,127,1
1,66,0,119
1,67,127,1
1,67,0,179
1,67,127,1
1,67,0,179
1,66,127,1
1,66,0,119
1,64,127,1
1,64,0,59
1,64,127,1
1,64,0,119
1,62,127,1
1,62,0,179
1,61,127,1
1,61,0,119
1,62,127,1
1,62,0,839
1,66,127,1
1,66,0,119
1,67,127,1
1,67,0,179
1,67,127,1
1,67,0,179
1,66,127,1
1,66,0,119
1,64,127,1
1,64,0,59
1,64,127,1
1,64,0,119
1,62,127,1
1,62,0,179
1,61,127,1
1,61,0,119
1,62,127,1
1,62,0,1079
2,66,127,360
2,66,0,119
2,67,127,1
2,59,127,0
2,59,0,179
2,67,0,0
2,59,127,1
2,67,127,0
2,67,0,179
2,59,0,0
2,66,127,1
2,62,127,0
2,62,0,119
2,66,0,0
2,62,127,1
2,64,127,0
2,64,0,179
2,62,0,0
2,62,127,1
2,64,127,0
2,64,0,179
2,62,0,0
2,61,127,1
2,64,127,0
2,64,0,119
2,61,0,0
2,66,127,1
2,64,127,0
2,64,0,59
2,66,0,0
2,66,127,1
2,64,127,0
2,64,0,119
2,66,0,0
2,66,127,1
2,62,127,0
2,62,0,179
2,66,0,0
2,61,127,1
2,64,127,0
2,64,0,119
2,61,0,0
2,62,127,1
2,62,0,359
2,66,127,1
2,62,127,0
2,62,0,119
2,66,0,0
2,62,127,1
2,67,127,0
2,67,0,179
2,62,0,0
2,62,127,1
2,67,127,0
2,67,0,179
2,62,0,0
2,66,127,1
2,62,127,0
2,62,0,119
2,66,0,0
2,64,127,1
2,64,0,59
2,64,127,1
2,64,0,179
2,62,127,1
2,62,0,119
2,61,127,1
2,61,0,119
2,62,127,1
2,62,0,959
2,66,127,1
2,62,127,0
2,62,0,179
2,66,0,0
2,66,127,1
2,62,127,0
2,62,0,179
2,66,0,0
2,66,127,1
2,62,127,0
2,62,0,119
2,66,0,0
2,67,127,1
2,62,127,0
2,62,0,179
2,67,0,0
2,62,127,1
2,59,127,0
2,59,0,179
2,62,0,0
2,62,127,1
2,59,127,0
2,59,0,119
2,62,0,0
2,66,127,1
2,57,127,0
2,57,0,179
2,66,0,0
2,62,127,1
2,57,127,0
2,57,0,179
2,62,0,0
2,62,127,1
2,57,127,0
2,57,0,119
2,62,0,0
2,62,127,1
2,62,0,359
2,66,127,1
2,66,0,119
2,66,127,1
2,62,127,0
2,62,0,179
2,66,0,0
2,66,127,1
2,62,127,0
2,62,0,179
2,66,0,0
2,66,127,1
2,62,127,0
2,62,0,119
2,66,0,0
2,67,127,1
2,62,127,0
2,62,0,179
2,67,0,0
2,62,127,1
2,59,127,0
2,59,0,179
2,62,0,0
2,62,127,1
2,59,127,0
2,59,0,119
2,62,0,0
2,69,127,1
2,69,0,599
2,66,127,61
2,66,0,179
2,67,127,1
2,67,0,119
2,66,127,1
2,62,127,0
2,62,0,179
2,66,0,0
2,66,127,1
2,62,127,0
2,62,0,179
2,66,0,0
2,66,127,1
2,62,127,0
2,62,0,119
2,66,0,0
2,67,127,1
2,62,127,0
2,62,0,179
2,67,0,0
2,62,127,1
2,59,127,0
2,59,0,179
2,62,0,0
2,62,127,1
2,59,127,0
2,59,0,119
2,62,0,0
2,66,127,1
2,57,127,0
2,57,0,179
2,66,0,0
2,62,127,1
2,57,127,0
2,57,0,179
2,62,0,0
2,62,127,1
2,57,127,0
2,57,0,119
2,62,0,0
2,62,127,1
2,62,0,359
2,66,127,1
2,66,0,119
2,66,127,1
2,62,127,0
2,62,0,179
2,66,0,0
2,66,127,1
2,62,127,0
2,62,0,179
2,66,0,0
2,57,127,1
2,62,127,0
2,62,0,119
2,57,0,0
2,59,127,1
2,62,127,0
2,62,0,179
2,59,0,0
2,62,127,1
2,59,127,0
2,59,0,179
2,62,0,0
2,62,127,1
2,59,127,0
2,59,0,119
2,62,0,0
2,64,127,1
2,64,0,599
2,66,127,61
2,66,0,179
2,67,127,1
2,67,0,119
2,66,127,1
2,62,127,0
2,62,0,179
2,66,0,0
2,66,127,1
2,62,127,0
2,62,0,179
2,66,0,0
2,66,127,1
2,62,127,0
2,62,0,119
2,66,0,0
2,67,127,1
2,62,127,0
2,62,0,179
2,67,0,0
2,62,127,1
2,59,127,0
2,59,0,179
2,62,0,0
2,62,127,1
2,59,127,0
2,59,0,119
2,62,0,0
2,66,127,1
2,57,127,0
2,57,0,179
2,66,0,0
2,62,127,1
2,57,127,0
2,57,0,179
2,62,0,0
2,62,127,1
2,57,127,0
2,57,0,119
2,62,0,0
2,62,127,1
2,62,0,359
2,66,127,1
2,66,0,119
2,66,127,1
2,62,127,0
2,62,0,179
2,66,0,0
2,66,127,1
2,62,127,0
2,62,0,179
2,66,0,0
2,66,127,1
2,62,127,0
2,62,0,119
2,66,0,0
2,67,127,1
2,62,127,0
2,62,0,179
2,67,0,0
2,62,127,1
2,59,127,0
2,59,0,179
2,62,0,0
2,62,127,1
2,59,127,0
2,59,0,119
2,62,0,0
2,69,127,1
2,69,0,599
2,66,127,241
2,66,0,119
2,62,127,1
2,59,127,0
2,59,0,179
2,62,0,0
2,62,127,1
2,59,127,0
2,59,0,179
2,62,0,0
2,62,127,1
2,59,127,0
2,64,127,120
2,59,0,59
2,62,0,0
2,64,0,300
2,64,127,1
2,64,0,119
2,62,127,1
2,57,127,0
2,57,0,59
2,62,0,0
2,62,127,1
2,57,127,0
2,57,0,119
2,62,0,0
2,58,127,1
2,54,127,0
2,54,0,179
2,58,0,0
2,58,127,1
2,54,127,0
2,54,0,119
2,58,0,0
2,62,127,1
2,62,0,359
2,66,127,1
2,66,0,119
2,62,127,1
2,59,127,0
2,59,0,179
2,62,0,0
2,62,127,1
2,59,127,0
2,59,0,179
2,62,0,0
2,62,127,1
2,59,127,0
2,59,0,119
2,62,0,0
2,61,127,1
2,57,127,0
2,57,0,179
2,61,0,0
2,57,127,1
2,52,127,0
2,52,0,179
2,57,0,0
2,57,127,1
2,52,127,0
2,52,0,119
2,57,0,0
2,62,127,1
2,62,0,599
2,66,127,361
2,62,127,0
2,62,0,179
2,66,0,0
2,66,127,1
2,62,127,0
2,62,0,179
2,66,0,0
2,66,127,1
2,62,127,0
2,62,0,119
2,66,0,0
2,67,127,1
2,62,127,0
2,62,0,179
2,67,0,0
2,62,127,1
2,59,127,0
2,59,0,179
2,62,0,0
2,62,127,1
2,59,127,0
2,59,0,119
2,62,0,0
2,66,127,1
2,57,127,0
2,57,0,179
2,66,0,0
2,62,127,1
2,57,127,0
2,57,0,179
2,62,0,0
2,62,127,1
2,57,127,0
2,57,0,119
2,62,0,0
2,62,127,1
2,62,0,359
2,66,127,1
2,66,0,119
2,66,127,1
2,62,127,0
2,62,0,179
2,66,0,0
2,66,127,1
2,62,127,0
2,62,0,179
2,66,0,0
2,66,127,1
2,62,127,0
2,62,0,119
2,66,0,0
2,67,127,1
2,62,127,0
2,62,0,179
2,67,0,0
2,62,127,1
2,59,127,0
2,59,0,179
2,62,0,0
2,62,127,1
2,59,127,0
2,59,0,119
2,62,0,0
2,69,127,1
2,69,0,599
2,66,127,61
2,66,0,179
2,67,127,1
2,67,0,119
2,66,127,1
2,62,127,0
2,62,0,179
2,66,0,0
2,66,127,1
2,62,127,0
2,62,0,179
2,66,0,0
2,66,127,1
2,62,127,0
2,62,0,119
2,66,0,0
2,67,127,1
2,62,127,0
2,62,0,179
2,67,0,0
2,62,127,1
2,59,127,0
2,59,0,179
2,62,0,0
2,62,127,1
2,59,127,0
2,59,0,119
2,62,0,0
2,66,127,1
2,57,127,0
2,57,0,179
2,66,0,0
2,62,127,1
2,57,127,0
2,57,0,179
2,62,0,0
2,62,127,1
2,57,127,0
2,57,0,119
2,62,0,0
2,62,127,1
2,62,0,359
2,66,127,1
2,66,0,119
2,66,127,1
2,62,127,0
2,62,0,179
2,66,0,0
2,66,127,1
2,62,127,0
2,62,0,179
2,66,0,0
2,57,127,1
2,62,127,0
2,62,0,119
2,57,0,0
2,59,127,1
2,62,127,0
2,62,0,179
2,59,0,0
2,62,127,1
2,59,127,0
2,59,0,179
2,62,0,0
2,62,127,1
2,59,127,0
2,59,0,119
2,62,0,0
2,64,127,1
2,64,0,599
2,66,127,61
2,66,0,179
2,67,127,1
2,67,0,119
2,66,127,1
2,62,127,0
2,62,0,179
2,66,0,0
2,66,127,1
2,62,127,0
2,62,0,179
2,66,0,0
2,66,127,1
2,62,127,0
2,62,0,119
2,66,0,0
2,67,127,1
2,62,127,0
2,62,0,179
2,67,0,0
2,62,127,1
2,59,127,0
2,59,0,179
2,62,0,0
2,62,127,1
2,59,127,0
2,59,0,119
2,62,0,0
2,66,127,1
2,57,127,0
2,57,0,179
2,66,0,0
2,62,127,1
2,57,127,0
2,57,0,179
2,62,0,0
2,62,127,1
2,57,127,0
2,57,0,119
2,62,0,0
2,62,127,1
2,62,0,359
2,66,127,1
2,66,0,119
2,66,127,1
2,62,127,0
2,62,0,179
2,66,0,0
2,66,127,1
2,62,127,0
