track,note,velocity,time
1,67,61,1536
1,66,71,18
1,67,77,19
1,60,72,65
1,54,57,4
1,44,51,4
1,62,76,35
1,72,71,225
1,74,71,220
1,86,67,274
1,60,63,571
1,59,28,221
1,55,25,4
1,43,29,5
1,74,42,292
1,59,38,2
1,79,45,29
1,62,33,4
1,83,38,0
1,67,27,2
1,71,31,37
1,86,35,0
1,55,50,697
1,54,69,73
1,55,60,27
1,54,61,92
1,44,44,0
1,60,76,1
1,62,69,14
1,72,78,233
1,74,74,248
1,86,43,328
1,44,36,424
1,43,21,0
1,59,19,1
1,55,17,14
1,67,67,271
1,55,37,15
1,31,51,230
1,43,70,27
1,67,74,180
1,55,36,20
1,31,38,50
1,43,37,64
1,67,47,213
1,55,29,15
1,67,18,440
1,55,23,11
1,55,12,783
1,67,12,11
1,67,39,255
1,70,52,32
1,39,31,104
1,75,72,37
1,51,43,5
1,58,23,296
1,67,23,9
1,63,19,21
1,77,61,142
1,74,70,129
1,46,52,42
1,72,75,2
1,67,43,198
1,58,47,5
1,63,29,10
1,74,59,233
1,70,80,118
1,67,58,30
1,51,44,2
1,68,55,54
1,67,43,52
1,58,41,11
1,55,30,7
1,65,71,1
1,63,62,199
1,46,50,229
1,67,43,69
1,63,23,85
1,58,23,12
1,67,73,240
1,70,99,69
1,75,83,145
1,51,40,4
1,58,67,173
1,63,65,0
1,67,57,1
1,77,84,194
1,74,84,95
1,46,54,111
1,72,77,3
1,58,45,236
1,67,34,11
1,63,27,8
1,74,67,211
1,70,79,104
1,68,62,6
1,53,44,23
1,70,66,27
1,68,47,4
1,58,36,56
1,56,27,4
1,67,46,10
1,62,19,3
1,65,49,206
1,46,42,232
1,68,48,13
1,58,19,303
1,62,14,2
1,56,19,4
1,67,64,21
1,68,86,138
1,53,36,37
1,75,74,20
1,68,33,192
1,58,28,35
1,62,22,18
1,74,47,168
1,73,44,35
1,46,39,161
1,72,46,6
1,62,21,65
1,56,43,0
1,58,34,19
1,62,51,209
1,65,66,29
1,72,70,39
1,53,15,4
1,65,39,98
1,58,39,2
1,62,28,9
1,71,42,148
1,70,52,10
1,46,43,25
1,68,39,40
1,56,24,117
1,62,25,4
1,58,13,17
1,58,66,173
1,62,67,9
1,46,51,17
1,65,69,14
1,62,22,221
1,56,35,4
1,58,19,15
1,58,66,104
1,62,53,0
1,66,51,6
1,46,51,19
1,56,30,33
1,62,33,0
1,58,38,11
1,58,33,190
1,62,40,48
1,67,39,40
1,39,35,2
1,46,42,153
1,51,27,10
1,51,38,69
1,55,44,2
1,58,30,13
1,55,17,27
1,67,33,392
1,70,54,30
1,75,56,15
1,51,33,17
1,58,36,259
1,67,29,8
1,63,24,33
1,77,64,154
1,74,70,3
1,72,76,15
1,46,50,0
1,67,46,184
1,63,38,20
1,58,42,4
1,74,55,193
1,70,72,88
1,67,62,22
1,51,37,11
1,68,65,25
1,67,45,63
1,58,38,15
1,55,27,18
1,65,63,4
1,63,50,229
1,46,45,242
1,67,39,33
1,63,22,88
1,58,12,32
1,67,52,181
1,70,54,123
1,58,60,24
1,75,63,4
1,51,40,12
1,55,22,12
1,55,27,119
1,51,22,2
1,77,50,33
1,74,68,6
1,60,55,95
1,72,61,16
1,51,38,0
1,55,26,12
1,55,24,96
1,51,38,8
1,74,68,195
1,70,78,21
1,68,66,6
1,56,41,10
1,53,39,4
1,70,71,12
1,68,62,50
1,56,44,67
1,67,71,4
1,53,34,11
1,65,66,163
1,68,61,34
1,53,33,10
1,65,50,140
1,56,41,13
1,60,39,9
1,67,78,80
1,68,84,107
1,41,47,152
1,80,76,100
1,53,49,19
1,68,41,288
1,63,31,28
1,60,35,6
1,79,55,212
1,78,52,20
1,53,28,73
1,77,50,17
1,68,59,115
1,63,36,20
1,59,36,0
1,67,62,149
1,68,76,65
1,68,34,31
1,46,54,54
1,79,72,40
1,67,35,211
1,58,30,2
1,63,22,13
1,78,40,158
1,77,50,120
1,46,40,56
1,75,48,39
1,63,37,152
1,58,10,16
1,55,21,7
1,67,66,180
1,70,85,152
1,46,55,49
1,67,76,10
1,62,38,125
1,58,40,32
1,56,31,0
1,66,60,208
1,70,60,102
1,46,36,9
1,66,50,3
1,56,15,262
1,62,30,4
1,58,18,1
1,65,32,227
1,70,49,132
1,39,28,31
1,63,46,17
1,46,41,19
1,51,28,46
1,55,34,80
1,58,51,90
1,63,34,56
1,75,37,113
1,67,27,48
1,46,106,381
1,77,111,0
1,65,105,3
1,34,103,3
1,79,111,50
1,67,90,8
1,62,91,267
1,58,88,2
1,53,66,15
1,79,107,43
1,67,98,5
1,67,99,53
1,79,103,4
1,62,82,15
1,65,98,0
1,58,81,12
1,82,116,0
1,70,109,3
1,62,88,217
1,53,84,5
1,58,89,3
1,82,104,123
1,70,103,2
1,70,107,28
1,82,100,0
1,36,101,12
1,48,103,5
1,81,110,59
1,69,106,0
1,53,60,178
1,57,56,18
1,63,85,30
1,91,114,14
1,79,106,4
1,91,112,151
1,63,70,4
1,79,106,1
1,53,45,20
1,57,37,17
1,89,79,71
1,77,26,21
1,41,61,154
1,53,77,54
1,75,78,150
1,86,85,61
1,84,86,87
1,63,44,87
1,57,31,6
1,72,84,10
1,82,87,71
1,81,88,72
1,63,49,10
1,57,38,15
1,69,75,107
1,79,71,76
1,77,86,14
1,65,69,100
1,63,36,0
1,57,36,2
1,75,72,63
1,73,67,29
1,46,59,24
1,74,69,92
1,77,63,67
1,74,51,91
1,58,41,78
1,70,52,2
1,62,22,6
1,53,27,6
1,67,47,80
1,65,45,144
1,58,30,10
1,62,19,9
1,53,21,4
1,62,26,63
1,65,110,184
1,77,116,0
1,34,112,4
1,79,113,158
1,67,100,8
1,62,85,227
1,58,89,7
1,53,72,3
1,79,101,32
1,67,87,9
1,79,109,63
1,67,100,0
1,65,102,15
1,58,83,6
1,62,83,0
1,70,113,14
1,82,118,0
1,62,90,165
1,53,87,8
1,58,99,2
1,86,111,132
1,74,106,6
1,86,106,48
1,74,108,3
1,36,103,12
1,48,103,3
1,84,111,4
1,72,114,0
1,94,118,198
1,82,111,6
1,67,85,4
1,58,85,2
1,60,61,10
1,64,65,5
1,94,119,321
1,82,119,0
1,67,83,4
1,64,72,9
1,58,67,4
1,60,61,3
1,91,71,142
1,79,80,2
1,41,66,117
1,53,90,9
1,77,87,46
1,86,74,84
1,84,86,81
1,65,76,71
1,62,53,13
1,74,85,3
1,84,92,65
1,61,58,72
1,82,75,2
1,64,74,2
1,70,91,34
1,81,83,50
1,79,69,84
1,70,70,74
1,64,59,8
1,61,32,8
1,79,66,47
1,69,62,97
1,63,42,2
1,60,43,8
1,79,62,87
1,77,70,63
1,76,69,17
1,75,67,85
1,72,80,91
1,41,38,14
1,69,75,42
1,53,37,6
1,67,63,115
1,65,61,103
1,64,60,48
1,63,55,111
1,60,36,136
1,34,45,67
1,46,44,108
1,58,49,5
1,70,57,317
1,65,35,14
1,62,15,19
1,58,36,0
1,69,43,7
1,70,63,31
1,58,54,35
1,62,46,9
1,72,75,0
1,65,52,4
1,73,69,22
1,74,76,38
1,66,54,39
1,58,44,7
1,63,50,8
1,75,60,2
1,60,45,2
1,74,71,2
1,75,72,32
1,58,65,23
1,66,68,2
1,63,52,11
1,60,47,2
1,76,78,6
1,77,80,35
1,78,81,23
1,66,75,36
1,79,81,8
1,63,70,1
1,60,47,8
1,58,59,4
1,80,81,16
1,81,78,50
1,82,110,55
1,74,85,3
1,58,101,0
1,46,95,2
1,77,86,4
1,65,62,231
1,70,79,8
1,58,52,3
1,62,45,4
1,69,69,8
1,70,71,48
1,58,71,32
1,65,54,3
1,62,44,2
1,72,85,2
1,73,67,31
1,74,80,29
1,66,61,17
1,63,63,6
1,58,64,2
1,75,88,4
1,60,50,10
1,74,91,34
1,75,90,10
1,66,67,19
1,58,70,2
1,76,97,6
1,63,63,2
1,60,41,11
1,77,96,10
1,78,89,63
1,66,79,33
1,58,85,8
1,79,92,3
1,63,55,4
1,60,49,4
1,80,75,19
1,81,86,50
1,82,113,16
1,74,101,2
1,77,98,0
1,58,88,7
1,46,79,4
1,70,76,98
1,69,92,133
1,70,90,118
1,69,80,109
1,70,85,43
1,69,82,130
1,70,72,4
1,69,65,14
1,70,56,6
1,69,45,26
1,57,51,83
1,58,80,12
1,70,42,2
1,62,65,46
1,65,92,10
1,70,87,44
1,69,70,2
1,70,85,46
1,69,73,74
1,70,78,106
1,69,73,3
1,70,72,4
1,69,58,9
1,70,68,117
1,69,42,25
1,57,52,21
1,70,54,26
1,58,59,6
1,62,49,78
1,65,57,40
1,70,54,109
1,69,33,4
1,70,61,6
1,69,63,5
1,70,77,0
1,69,82,136
1,70,80,24
1,69,68,110
1,70,84,8
1,69,75,132
1,70,75,129
1,68,66,90
1,70,68,21
1,68,62,9
1,70,56,4
1,68,40,20
1,70,52,8
1,68,45,10
1,70,45,16
1,68,34,13
1,70,37,43
1,67,13,67
1,70,36,8
1,39,34,189
1,75,39,86
1,51,43,10
1,67,36,298
1,58,30,19
1,63,18,13
1,77,35,151
1,74,52,18
1,72,49,40
1,46,32,7
1,58,45,180
1,67,37,2
1,63,23,27
1,74,61,215
1,70,77,6
1,67,64,41
1,51,38,16
1,68,59,25
1,67,55,50
1,58,43,1
1,55,35,14
1,65,62,6
1,63,50,198
1,46,44,230
1,67,37,68
1,58,29,109
1,63,17,7
1,55,18,18
1,67,64,132
1,70,71,19
1,75,70,57
1,51,41,7
1,58,50,157
1,67,37,18
1,63,22,21
1,77,71,154
1,74,65,89
1,46,52,44
1,72,64,25
1,58,52,172
1,67,42,5
1,63,23,21
1,74,72,138
1,70,80,0
1,68,62,15
1,53,30,26
1,70,72,12
1,68,48,19
1,56,29,23
1,62,25,8
1,58,36,8
1,67,58,20
1,65,41,186
1,46,39,198
1,68,50,21
1,62,31,145
1,56,22,25
1,58,20,4
1,67,46,163
1,68,64,5
1,53,37,21
1,75,65,10
1,68,30,163
1,58,29,19
1,62,18,9
1,74,50,138
1,73,45,23
1,46,42,13
1,72,42,75
1,56,42,88
1,58,43,0
1,62,21,6
1,62,66,198
1,65,71,89
1,53,36,0
1,72,80,16
1,68,48,135
1,62,43,32
1,58,40,6
1,71,40,192
1,70,58,0
1,46,44,48
1,68,40,36
1,58,47,15
1,62,35,4
1,56,32,11
1,58,76,204
1,62,65,156
1,65,74,52
1,46,44,1
1,62,20,13
1,56,33,6
1,58,36,9
1,58,68,152
1,62,59,29
1,46,49,22
1,66,62,12
1,62,23,256
1,56,25,9
1,58,19,4
1,58,46,156
1,62,45,87
1,67,56,61
1,39,28,2
1,46,49,143
1,51,28,9
1,51,32,92
1,55,33,4
1,58,34,60
1,55,13,26
1,67,46,680
1,70,65,102
1,51,32,21
1,75,57,17
1,67,27,236
1,58,31,9
1,63,22,0
1,77,50,119
1,74,59,21
1,46,44,62
1,72,62,29
1,67,47,173
1,58,44,10
1,63,26,7
1,74,63,152
1,70,78,81
1,67,55,38
1,51,17,1
1,68,58,26
1,67,39,24
1,65,59,43
1,58,32,3
1,55,17,7
1,63,46,148
1,46,34,180
1,67,34,56
1,63,30,52
1,58,30,20
1,55,13,16
1,67,63,115
1,70,74,69
1,58,61,136
1,75,65,17
1,51,37,6
1,55,34,3
1,55,33,163
1,51,41,0
1,77,60,123
1,74,73,143
1,60,63,104
1,51,42,1
1,72,70,0
1,55,30,19
1,51,53,19
1,55,47,5
1,74,74,65
1,70,76,2
1,56,52,7
1,68,73,1
1,53,47,8
1,70,79,16
1,68,69,57
1,56,51,23
1,67,72,19
1,53,37,3
1,65,70,78
1,60,51,51
1,53,41,1
1,68,60,10
1,56,65,8
1,65,73,2
1,60,31,10
1,67,98,106
1,68,94,15
1,41,53,56
1,53,70,152
1,80,99,11
1,68,73,206
1,60,60,11
1,63,55,9
1,79,95,131
1,78,81,52
1,53,49,79
1,77,85,5
1,68,79,33
1,59,59,15
1,63,62,12
1,67,98,185
1,68,89,67
1,46,54,33
1,79,83,27
1,67,57,215
1,58,34,35
1,63,18,1
1,78,60,148
1,77,53,25
1,46,59,22
1,75,35,48
1,63,40,104
1,58,21,20
1,55,25,4
1,67,54,218
1,70,69,0
1,67,75,0
1,46,36,2
1,56,26,146
1,62,34,2
1,58,30,11
1,66,48,208
1,70,54,125
1,46,39,109
1,66,61,4
1,56,32,186
1,62,27,12
1,58,22,6
1,65,24,15
1,70,55,136
1,39,30,4
1,63,48,38
1,46,50,36
1,51,45,17
1,55,42,90
1,58,45,73
1,63,44,13
1,75,40,163
1,67,38,42
1,63,88,262
1,62,89,448
1,62,89,48
1,44,44,45
1,60,86,0
1,51,56,27
1,75,93,117
1,56,48,27
1,60,74,46
1,62,99,193
1,60,97,392
1,60,103,46
1,43,55,22
1,58,105,2
1,51,62,4
1,55,66,33
1,75,86,7
1,58,101,91
1,60,106,221
1,58,103,317
1,58,110,47
1,41,72,28
1,56,105,1
1,48,76,23
1,60,78,204
1,80,100,13
1,46,82,358
1,77,92,44
1,74,94,10
1,56,49,8
1,70,94,24
1,62,49,80
1,69,95,0
1,68,96,69
1,67,90,123
1,39,44,2
1,75,75,7
1,70,81,115
1,46,54,11
1,67,53,35
1,51,48,54
1,63,52,2
1,60,67,52
1,58,72,35
1,55,37,23
1,63,89,54
1,62,91,374
1,62,80,60
1,44,38,11
1,60,81,13
1,51,46,6
1,56,43,117
1,75,88,19
1,60,61,82
1,62,81,236
1,53,65,12
1,54,72,1
1,60,92,114
1,60,81,52
1,43,68,15
1,59,83,161
1,50,75,6
1,59,55,226
1,55,61,8
1,79,106,2
1,36,95,25
1,77,106,157
1,48,71,14
1,58,78,4
1,55,70,19
1,76,104,58
1,79,98,60
1,41,66,2
1,77,79,175
1,53,27,7
1,63,48,50
1,57,36,11
1,75,64,126
1,41,34,75
1,63,60,2
1,53,40,40
1,74,50,119
1,43,37,10
1,55,36,7
1,45,41,108
1,57,36,0
1,72,50,38
1,63,44,48
1,46,60,19
1,58,31,38
1,72,66,14
1,70,74,5
1,67,46,12
1,63,45,5
1,69,61,2
1,58,33,4
1,70,79,6
1,58,58,111
1,67,59,4
1,69,65,14
1,63,35,5
1,70,65,29
1,69,62,8
1,58,44,18
1,63,27,3
1,67,44,7
1,70,69,16
1,69,46,17
1,70,64,14
1,69,50,20
1,70,67,8
1,46,70,43
1,74,69,2
1,72,75,82
1,71,61,10
1,66,51,4
1,63,33,25
1,57,18,7
1,72,74,15
1,66,55,4
1,71,66,5
1,57,28,4
1,63,44,16
1,72,79,30
1,66,69,0
1,71,84,4
1,63,48,6
1,57,38,4
1,72,96,9
1,71,80,6
1,72,98,20
1,71,90,8
1,72,100,3
1,34,92,4
1,74,101,1
1,46,95,3
1,70,103,31
1,72,100,4
1,74,97,61
1,75,87,73
1,76,89,93
1,68,103,19
1,58,94,7
1,77,100,10
1,62,80,0
1,70,104,36
1,72,94,8
1,74,95,82
1,75,90,58
1,76,96,73
1,77,100,33
1,68,97,9
1,58,79,5
1,62,76,4
1,70,108,9
1,72,100,0
1,74,102,7
1,75,97,52
1,76,104,58
1,68,95,27
1,77,100,6
1,58,75,12
1,62,74,6
1,76,100,2
1,77,103,15
1,79,108,84
1,80,103,62
1,81,104,61
1,82,119,11
1,46,106,8
1,34,84,7
1,84,92,17
1,82,104,21
1,84,94,4
1,82,94,17
1,84,95,54
1,82,105,46
1,81,103,18
1,82,103,5
1,68,108,48
1,58,90,6
1,83,110,5
1,62,79,8
1,84,105,4
1,83,61,27
1,84,97,5
1,83,71,67
1,84,100,16
1,83,88,46
1,82,106,40
1,83,102,46
1,68,110,33
1,58,97,10
1,63,100,0
1,84,113,17
1,86,96,30
1,84,110,39
1,86,103,4
1,84,98,60
1,86,106,8
1,84,104,9
1,83,95,13
1,84,111,58
1,68,97,1
1,58,94,6
1,65,95,2
1,86,113,2
1,87,100,63
1,86,102,19
1,87,98,53
1,86,100,32
1,87,97,13
1,86,84,50
1,87,95,2
