track,note,velocity,time
1.0,68.0,57.0,1536.0
1.0,63.0,41.0,0.0
1.0,56.0,36.0,5.0
1.0,60.0,28.0,7.0
1.0,75.0,42.0,1384.0
1.0,61.0,60.0,33.0
1.0,69.0,81.0,3.0
1.0,55.0,53.0,10.0
1.0,64.0,33.0,8.0
1.0,76.0,88.0,1344.0
1.0,58.0,50.0,2.0
1.0,70.0,99.0,1.0
1.0,62.0,44.0,10.0
1.0,68.0,67.0,12.0
1.0,53.0,48.0,4.0
1.0,82.0,80.0,781.0
1.0,39.0,47.0,641.0
1.0,51.0,47.0,33.0
1.0,58.0,54.0,330.0
1.0,46.0,69.0,296.0
1.0,58.0,63.0,288.0
1.0,67.0,81.0,97.0
1.0,70.0,82.0,113.0
1.0,51.0,36.0,27.0
1.0,65.0,83.0,79.0
1.0,68.0,85.0,112.0
1.0,58.0,58.0,13.0
1.0,63.0,84.0,76.0
1.0,67.0,84.0,127.0
1.0,46.0,80.0,5.0
1.0,70.0,89.0,96.0
1.0,72.0,87.0,83.0
1.0,58.0,59.0,13.0
1.0,55.0,36.0,16.0
1.0,75.0,70.0,69.0
1.0,41.0,58.0,69.0
1.0,74.0,81.0,54.0
1.0,53.0,50.0,4.0
1.0,70.0,55.0,288.0
1.0,68.0,41.0,0.0
1.0,58.0,44.0,9.0
1.0,77.0,63.0,4.0
1.0,62.0,27.0,37.0
1.0,62.0,16.0,243.0
1.0,70.0,58.0,40.0
1.0,65.0,28.0,15.0
1.0,68.0,44.0,16.0
1.0,77.0,32.0,7.0
1.0,82.0,76.0,3.0
1.0,72.0,66.0,495.0
1.0,75.0,65.0,144.0
1.0,53.0,54.0,8.0
1.0,70.0,88.0,104.0
1.0,74.0,89.0,115.0
1.0,58.0,81.0,1.0
1.0,68.0,79.0,105.0
1.0,46.0,83.0,84.0
1.0,72.0,98.0,25.0
1.0,74.0,89.0,125.0
1.0,62.0,69.0,103.0
1.0,77.0,91.0,3.0
1.0,56.0,64.0,8.0
1.0,58.0,39.0,2.0
1.0,80.0,87.0,84.0
1.0,39.0,48.0,65.0
1.0,79.0,99.0,4.0
1.0,51.0,67.0,19.0
1.0,70.0,65.0,234.0
1.0,58.0,65.0,25.0
1.0,75.0,48.0,2.0
1.0,63.0,39.0,4.0
1.0,79.0,57.0,12.0
1.0,63.0,38.0,261.0
1.0,70.0,58.0,6.0
1.0,67.0,44.0,42.0
1.0,75.0,34.0,24.0
1.0,82.0,59.0,14.0
1.0,67.0,54.0,424.0
1.0,70.0,71.0,133.0
1.0,51.0,52.0,9.0
1.0,65.0,62.0,106.0
1.0,68.0,71.0,94.0
1.0,58.0,68.0,6.0
1.0,63.0,76.0,77.0
1.0,46.0,71.0,115.0
1.0,67.0,75.0,0.0
1.0,70.0,95.0,80.0
1.0,63.0,72.0,55.0
1.0,72.0,94.0,7.0
1.0,55.0,42.0,8.0
1.0,58.0,67.0,0.0
1.0,75.0,79.0,86.0
1.0,42.0,70.0,36.0
1.0,54.0,75.0,77.0
1.0,74.0,93.0,11.0
1.0,72.0,67.0,224.0
1.0,81.0,79.0,8.0
1.0,74.0,53.0,2.0
1.0,66.0,44.0,6.0
1.0,62.0,27.0,8.0
1.0,66.0,43.0,182.0
1.0,74.0,43.0,29.0
1.0,72.0,39.0,34.0
1.0,81.0,43.0,13.0
1.0,86.0,42.0,35.0
1.0,74.0,63.0,301.0
1.0,79.0,71.0,123.0
1.0,55.0,34.0,29.0
1.0,70.0,69.0,68.0
1.0,72.0,57.0,108.0
1.0,62.0,33.0,0.0
1.0,58.0,40.0,0.0
1.0,75.0,68.0,77.0
1.0,50.0,60.0,110.0
1.0,74.0,73.0,2.0
1.0,67.0,55.0,113.0
1.0,69.0,80.0,92.0
1.0,60.0,57.0,2.0
1.0,54.0,46.0,4.0
1.0,70.0,95.0,81.0
1.0,67.0,82.0,86.0
1.0,43.0,64.0,16.0
1.0,70.0,94.0,94.0
1.0,58.0,60.0,103.0
1.0,69.0,89.0,0.0
1.0,50.0,42.0,15.0
1.0,55.0,36.0,4.0
1.0,70.0,91.0,70.0
1.0,67.0,69.0,134.0
1.0,70.0,61.0,152.0
1.0,68.0,49.0,167.0
1.0,67.0,37.0,185.0
1.0,70.0,45.0,159.0
1.0,51.0,25.0,19.0
1.0,65.0,41.0,115.0
1.0,68.0,54.0,96.0
1.0,58.0,53.0,19.0
1.0,63.0,60.0,78.0
1.0,46.0,66.0,110.0
1.0,67.0,64.0,5.0
1.0,70.0,76.0,88.0
1.0,72.0,78.0,100.0
1.0,55.0,60.0,8.0
1.0,58.0,50.0,4.0
1.0,75.0,58.0,86.0
1.0,41.0,44.0,29.0
1.0,74.0,64.0,21.0
1.0,53.0,75.0,12.0
1.0,58.0,66.0,250.0
1.0,68.0,59.0,17.0
1.0,70.0,37.0,17.0
1.0,77.0,50.0,12.0
1.0,62.0,23.0,2.0
1.0,62.0,13.0,218.0
1.0,70.0,57.0,48.0
1.0,65.0,36.0,5.0
1.0,68.0,31.0,17.0
1.0,77.0,21.0,13.0
1.0,82.0,62.0,36.0
1.0,72.0,62.0,376.0
1.0,75.0,57.0,119.0
1.0,53.0,40.0,25.0
1.0,70.0,70.0,80.0
1.0,58.0,76.0,101.0
1.0,74.0,72.0,6.0
1.0,68.0,80.0,88.0
1.0,46.0,84.0,106.0
1.0,72.0,97.0,7.0
1.0,74.0,86.0,117.0
1.0,62.0,64.0,98.0
1.0,56.0,62.0,6.0
1.0,58.0,44.0,1.0
1.0,77.0,90.0,0.0
1.0,80.0,86.0,85.0
1.0,39.0,53.0,61.0
1.0,79.0,81.0,34.0
1.0,51.0,65.0,16.0
1.0,70.0,57.0,219.0
1.0,82.0,75.0,23.0
1.0,63.0,43.0,17.0
1.0,67.0,46.0,2.0
1.0,75.0,48.0,2.0
1.0,67.0,29.0,227.0
1.0,70.0,49.0,27.0
1.0,75.0,34.0,1.0
1.0,82.0,32.0,8.0
1.0,87.0,62.0,18.0
1.0,70.0,62.0,422.0
1.0,75.0,55.0,140.0
1.0,55.0,41.0,10.0
1.0,70.0,71.0,102.0
1.0,73.0,63.0,115.0
1.0,63.0,52.0,4.0
1.0,72.0,73.0,1.0
1.0,77.0,80.0,96.0
1.0,57.0,34.0,4.0
1.0,72.0,83.0,58.0
1.0,75.0,75.0,102.0
1.0,65.0,73.0,8.0
1.0,74.0,83.0,106.0
1.0,79.0,76.0,73.0
1.0,59.0,54.0,11.0
1.0,74.0,78.0,96.0
1.0,77.0,69.0,115.0
1.0,67.0,57.0,15.0
1.0,74.0,71.0,104.0
1.0,75.0,72.0,84.0
1.0,60.0,57.0,15.0
1.0,77.0,89.0,82.0
1.0,63.0,64.0,106.0
1.0,79.0,84.0,5.0
1.0,80.0,75.0,100.0
1.0,46.0,86.0,86.0
1.0,82.0,83.0,18.0
1.0,79.0,71.0,100.0
1.0,80.0,84.0,100.0
1.0,63.0,75.0,10.0
1.0,55.0,50.0,11.0
1.0,58.0,72.0,6.0
1.0,81.0,81.0,62.0
1.0,82.0,103.0,90.0
1.0,46.0,86.0,8.0
1.0,83.0,84.0,94.0
1.0,65.0,69.0,94.0
1.0,84.0,97.0,4.0
1.0,62.0,57.0,0.0
1.0,56.0,50.0,5.0
1.0,58.0,54.0,4.0
1.0,86.0,95.0,66.0
1.0,51.0,69.0,115.0
1.0,87.0,97.0,0.0
1.0,63.0,37.0,13.0
1.0,58.0,69.0,159.0
1.0,70.0,88.0,6.0
1.0,65.0,60.0,10.0
1.0,74.0,49.0,3.0
1.0,77.0,87.0,16.0
1.0,82.0,107.0,7.0
1.0,51.0,72.0,87.0
1.0,58.0,60.0,23.0
1.0,75.0,69.0,11.0
1.0,67.0,75.0,7.0
1.0,79.0,63.0,18.0
1.0,82.0,95.0,8.0
1.0,87.0,106.0,35.0
1.0,75.0,54.0,436.0
1.0,74.0,64.0,144.0
1.0,42.0,37.0,7.0
1.0,69.0,64.0,100.0
1.0,70.0,71.0,111.0
1.0,62.0,46.0,14.0
1.0,72.0,76.0,111.0
1.0,74.0,77.0,55.0
1.0,50.0,47.0,15.0
1.0,69.0,73.0,83.0
1.0,70.0,84.0,81.0
1.0,60.0,44.0,19.0
1.0,54.0,37.0,2.0
1.0,72.0,85.0,58.0
1.0,43.0,47.0,104.0
1.0,74.0,75.0,18.0
1.0,55.0,37.0,159.0
1.0,74.0,58.0,12.0
1.0,62.0,31.0,5.0
1.0,67.0,56.0,26.0
1.0,79.0,37.0,0.0
1.0,82.0,80.0,12.0
1.0,58.0,39.0,177.0
1.0,62.0,19.0,70.0
1.0,74.0,30.0,3.0
1.0,67.0,29.0,35.0
1.0,79.0,29.0,5.0
1.0,86.0,44.0,22.0
1.0,79.0,52.0,274.0
1.0,77.0,71.0,121.0
1.0,45.0,51.0,5.0
1.0,72.0,64.0,103.0
1.0,74.0,65.0,115.0
1.0,65.0,51.0,8.0
1.0,75.0,60.0,117.0
1.0,53.0,57.0,113.0
1.0,77.0,76.0,2.0
1.0,72.0,78.0,73.0
1.0,57.0,59.0,96.0
1.0,74.0,85.0,0.0
1.0,63.0,52.0,6.0
1.0,75.0,81.0,88.0
1.0,77.0,85.0,88.0
1.0,46.0,73.0,4.0
1.0,79.0,71.0,105.0
1.0,58.0,48.0,45.0
1.0,62.0,34.0,55.0
1.0,77.0,76.0,0.0
1.0,68.0,62.0,17.0
1.0,72.0,75.0,74.0
1.0,75.0,81.0,78.0
1.0,77.0,92.0,90.0
1.0,75.0,81.0,94.0
1.0,70.0,81.0,101.0
1.0,74.0,84.0,105.0
1.0,75.0,59.0,117.0
1.0,74.0,55.0,122.0
1.0,68.0,50.0,115.0
1.0,72.0,48.0,134.0
1.0,74.0,51.0,125.0
1.0,72.0,45.0,173.0
1.0,67.0,35.0,169.0
1.0,39.0,33.0,4.0
1.0,70.0,55.0,75.0
1.0,51.0,38.0,1.0
1.0,65.0,56.0,130.0
1.0,68.0,57.0,124.0
1.0,58.0,51.0,12.0
1.0,63.0,60.0,96.0
1.0,46.0,79.0,98.0
1.0,67.0,69.0,11.0
1.0,70.0,84.0,102.0
1.0,58.0,69.0,104.0
1.0,55.0,59.0,8.0
1.0,72.0,80.0,0.0
1.0,75.0,68.0,102.0
1.0,41.0,48.0,23.0
1.0,74.0,71.0,27.0
1.0,53.0,59.0,21.0
1.0,70.0,43.0,285.0
1.0,68.0,36.0,8.0
1.0,58.0,41.0,2.0
1.0,77.0,53.0,2.0
1.0,62.0,23.0,27.0
1.0,62.0,24.0,252.0
1.0,70.0,44.0,44.0
1.0,65.0,26.0,29.0
1.0,68.0,39.0,10.0
1.0,77.0,35.0,23.0
1.0,82.0,66.0,9.0
1.0,72.0,40.0,394.0
1.0,75.0,54.0,99.0
1.0,53.0,33.0,33.0
1.0,70.0,63.0,72.0
1.0,74.0,60.0,108.0
1.0,58.0,45.0,4.0
1.0,68.0,62.0,71.0
1.0,46.0,68.0,103.0
1.0,72.0,78.0,6.0
1.0,74.0,56.0,110.0
1.0,56.0,61.0,94.0
1.0,58.0,51.0,8.0
1.0,62.0,54.0,4.0
1.0,77.0,55.0,2.0
1.0,80.0,60.0,98.0
1.0,39.0,35.0,58.0
1.0,51.0,62.0,28.0
1.0,79.0,55.0,0.0
1.0,70.0,48.0,162.0
1.0,75.0,36.0,4.0
1.0,67.0,35.0,27.0
1.0,63.0,29.0,2.0
1.0,82.0,65.0,10.0
1.0,75.0,34.0,240.0
1.0,67.0,26.0,4.0
1.0,70.0,42.0,19.0
1.0,82.0,52.0,21.0
1.0,87.0,53.0,34.0
1.0,70.0,53.0,299.0
1.0,75.0,49.0,128.0
1.0,55.0,42.0,16.0
1.0,70.0,67.0,86.0
1.0,73.0,67.0,108.0
1.0,63.0,59.0,15.0
1.0,72.0,83.0,31.0
1.0,77.0,76.0,104.0
1.0,57.0,50.0,15.0
1.0,72.0,75.0,90.0
1.0,75.0,65.0,100.0
1.0,65.0,72.0,19.0
1.0,74.0,77.0,21.0
1.0,79.0,78.0,106.0
1.0,59.0,47.0,17.0
1.0,74.0,82.0,90.0
1.0,77.0,85.0,103.0
1.0,67.0,75.0,12.0
1.0,74.0,88.0,86.0
1.0,75.0,88.0,90.0
1.0,60.0,72.0,25.0
1.0,77.0,98.0,77.0
1.0,79.0,95.0,99.0
1.0,63.0,72.0,1.0
1.0,80.0,92.0,84.0
1.0,46.0,100.0,73.0
1.0,82.0,101.0,2.0
1.0,79.0,87.0,86.0
1.0,80.0,90.0,91.0
1.0,63.0,65.0,0.0
1.0,55.0,57.0,15.0
1.0,58.0,63.0,0.0
1.0,81.0,94.0,60.0
1.0,82.0,102.0,82.0
1.0,46.0,79.0,8.0
1.0,83.0,86.0,87.0
1.0,65.0,85.0,68.0
1.0,62.0,41.0,5.0
1.0,84.0,97.0,0.0
1.0,56.0,69.0,4.0
1.0,58.0,72.0,1.0
1.0,86.0,95.0,63.0
1.0,87.0,103.0,117.0
1.0,63.0,76.0,6.0
1.0,51.0,66.0,7.0
1.0,46.0,61.0,199.0
1.0,70.0,81.0,25.0
1.0,58.0,95.0,31.0
1.0,53.0,68.0,0.0
1.0,74.0,74.0,6.0
1.0,82.0,116.0,0.0
1.0,77.0,98.0,3.0
1.0,39.0,55.0,186.0
1.0,46.0,83.0,29.0
1.0,51.0,93.0,6.0
1.0,75.0,79.0,4.0
1.0,79.0,79.0,6.0
1.0,82.0,102.0,6.0
1.0,87.0,112.0,15.0
1.0,32.0,29.0,1004.0
1.0,72.0,88.0,38.0
1.0,44.0,42.0,33.0
1.0,75.0,49.0,250.0
1.0,51.0,37.0,12.0
1.0,87.0,48.0,189.0
1.0,63.0,26.0,19.0
1.0,55.0,18.0,17.0
1.0,61.0,32.0,5.0
1.0,73.0,78.0,33.0
1.0,65.0,83.0,37.0
1.0,67.0,84.0,28.0
1.0,32.0,40.0,33.0
1.0,72.0,92.0,15.0
1.0,44.0,55.0,40.0
1.0,75.0,59.0,155.0
1.0,51.0,48.0,14.0
1.0,87.0,70.0,68.0
1.0,63.0,33.0,8.0
1.0,61.0,33.0,4.0
1.0,55.0,25.0,1.0
1.0,73.0,81.0,65.0
1.0,65.0,84.0,19.0
1.0,67.0,96.0,33.0
1.0,32.0,16.0,59.0
1.0,72.0,93.0,42.0
1.0,44.0,52.0,34.0
1.0,73.0,89.0,5.0
1.0,77.0,93.0,19.0
1.0,51.0,55.0,13.0
1.0,75.0,84.0,77.0
1.0,79.0,74.0,44.0
1.0,56.0,33.0,8.0
1.0,63.0,37.0,2.0
1.0,60.0,23.0,6.0
1.0,77.0,75.0,13.0
1.0,75.0,56.0,4.0
1.0,51.0,47.0,10.0
1.0,72.0,78.0,77.0
1.0,72.0,68.0,8.0
1.0,44.0,32.0,13.0
1.0,73.0,62.0,21.0
1.0,65.0,58.0,25.0
1.0,51.0,30.0,13.0
1.0,72.0,50.0,17.0
1.0,61.0,26.0,31.0
1.0,55.0,20.0,19.0
1.0,70.0,62.0,10.0
1.0,51.0,33.0,41.0
1.0,63.0,47.0,6.0
1.0,32.0,24.0,240.0
1.0,72.0,77.0,56.0
1.0,44.0,33.0,45.0
1.0,51.0,37.0,23.0
1.0,75.0,50.0,11.0
1.0,63.0,19.0,287.0
1.0,87.0,45.0,23.0
1.0,61.0,22.0,1.0
1.0,55.0,25.0,3.0
1.0,73.0,65.0,20.0
1.0,65.0,66.0,80.0
1.0,67.0,70.0,2.0
1.0,32.0,39.0,13.0
1.0,72.0,84.0,10.0
1.0,44.0,48.0,10.0
1.0,75.0,61.0,194.0
1.0,51.0,29.0,22.0
1.0,87.0,50.0,248.0
1.0,63.0,26.0,16.0
1.0,61.0,26.0,4.0
1.0,55.0,19.0,4.0
1.0,73.0,67.0,91.0
1.0,65.0,73.0,39.0
1.0,67.0,82.0,5.0
1.0,32.0,40.0,27.0
1.0,72.0,92.0,16.0
1.0,44.0,59.0,23.0
1.0,73.0,88.0,115.0
1.0,77.0,95.0,22.0
1.0,51.0,44.0,14.0
1.0,75.0,86.0,130.0
1.0,63.0,26.0,21.0
1.0,80.0,68.0,13.0
1.0,56.0,31.0,4.0
1.0,60.0,36.0,8.0
1.0,75.0,64.0,44.0
1.0,51.0,47.0,67.0
1.0,72.0,60.0,10.0
1.0,73.0,62.0,40.0
1.0,39.0,38.0,77.0
1.0,70.0,64.0,0.0
1.0,70.0,53.0,11.0
1.0,63.0,36.0,9.0
1.0,51.0,33.0,4.0
1.0,61.0,37.0,4.0
1.0,55.0,31.0,1.0
1.0,72.0,43.0,0.0
1.0,56.0,32.0,2.0
1.0,63.0,35.0,17.0
1.0,68.0,39.0,0.0
1.0,60.0,26.0,13.0
1.0,75.0,79.0,284.0
1.0,72.0,73.0,194.0
1.0,32.0,30.0,79.0
1.0,84.0,96.0,93.0
1.0,44.0,30.0,44.0
1.0,51.0,42.0,276.0
1.0,63.0,50.0,315.0
1.0,85.0,67.0,4.0
1.0,77.0,69.0,2.0
1.0,51.0,34.0,4.0
1.0,61.0,40.0,1.0
1.0,79.0,71.0,96.0
1.0,72.0,47.0,66.0
1.0,32.0,17.0,37.0
1.0,84.0,79.0,52.0
1.0,44.0,32.0,49.0
1.0,51.0,53.0,144.0
1.0,63.0,64.0,333.0
1.0,85.0,71.0,89.0
1.0,77.0,85.0,0.0
1.0,61.0,40.0,5.0
1.0,51.0,44.0,6.0
1.0,79.0,88.0,52.0
1.0,32.0,26.0,115.0
1.0,84.0,84.0,115.0
1.0,44.0,41.0,24.0
1.0,85.0,84.0,38.0
1.0,89.0,87.0,58.0
1.0,51.0,46.0,11.0
1.0,87.0,82.0,117.0
1.0,56.0,34.0,2.0
1.0,63.0,24.0,7.0
1.0,91.0,63.0,4.0
1.0,60.0,32.0,4.0
1.0,89.0,72.0,0.0
1.0,87.0,73.0,86.0
1.0,51.0,47.0,0.0
1.0,84.0,83.0,33.0
1.0,44.0,32.0,2.0
1.0,84.0,81.0,8.0
1.0,85.0,75.0,16.0
1.0,51.0,41.0,20.0
1.0,77.0,69.0,18.0
1.0,84.0,68.0,23.0
1.0,82.0,64.0,0.0
1.0,63.0,25.0,6.0
1.0,55.0,12.0,3.0
1.0,61.0,18.0,6.0
1.0,75.0,48.0,75.0
1.0,51.0,19.0,10.0
1.0,72.0,56.0,142.0
1.0,32.0,34.0,33.0
1.0,84.0,91.0,33.0
1.0,44.0,42.0,21.0
1.0,51.0,44.0,342.0
1.0,51.0,10.0,144.0
1.0,63.0,49.0,137.0
1.0,85.0,51.0,44.0
1.0,51.0,41.0,24.0
1.0,61.0,26.0,5.0
1.0,77.0,47.0,14.0
1.0,79.0,68.0,115.0
1.0,32.0,37.0,6.0
1.0,72.0,62.0,54.0
1.0,84.0,68.0,131.0
1.0,44.0,40.0,12.0
1.0,51.0,44.0,237.0
1.0,63.0,47.0,326.0
1.0,85.0,62.0,175.0
1.0,51.0,42.0,38.0
1.0,61.0,35.0,12.0
1.0,77.0,74.0,15.0
1.0,79.0,79.0,94.0
1.0,32.0,39.0,73.0
1.0,84.0,75.0,10.0
1.0,44.0,46.0,31.0
1.0,85.0,81.0,64.0
1.0,89.0,78.0,6.0
1.0,51.0,37.0,2.0
1.0,87.0,72.0,73.0
1.0,63.0,23.0,29.0
1.0,92.0,51.0,4.0
1.0,60.0,10.0,7.0
1.0,56.0,34.0,5.0
1.0,87.0,50.0,30.0
1.0,51.0,37.0,100.0
1.0,84.0,67.0,9.0
1.0,85.0,61.0,89.0
1.0,39.0,38.0,39.0
1.0,82.0,54.0,21.0
1.0,82.0,50.0,221.0
1.0,75.0,30.0,10.0
1.0,61.0,28.0,21.0
1.0,51.0,24.0,5.0
1.0,55.0,28.0,3.0
1.0,84.0,44.0,0.0
1.0,80.0,41.0,250.0
1.0,56.0,29.0,6.0
1.0,75.0,27.0,1.0
1.0,60.0,25.0,15.0
1.0,67.0,32.0,414.0
1.0,70.0,59.0,184.0
1.0,51.0,32.0,12.0
1.0,65.0,54.0,161.0
1.0,68.0,63.0,134.0
1.0,58.0,49.0,12.0
1.0,63.0,60.0,100.0
1.0,46.0,74.0,117.0
1.0,67.0,55.0,12.0
1.0,70.0,81.0,83.0
1.0,72.0,80.0,94.0
1.0,58.0,67.0,2.0
1.0,55.0,42.0,8.0
1.0,75.0,64.0,82.0
1.0,41.0,42.0,49.0
1.0,74.0,73.0,17.0
1.0,53.0,36.0,1.0
1.0,70.0,50.0,286.0
1.0,68.0,46.0,27.0
1.0,58.0,45.0,6.0
1.0,77.0,54.0,2.0
1.0,62.0,18.0,10.0
1.0,62.0,32.0,210.0
1.0,70.0,45.0,34.0
1.0,65.0,10.0,48.0
1.0,68.0,47.0,0.0
1.0,77.0,38.0,38.0
1.0,82.0,64.0,15.0
1.0,72.0,71.0,459.0
1.0,75.0,56.0,118.0
1.0,53.0,47.0,21.0
1.0,70.0,74.0,86.0
1.0,58.0,57.0,114.0
1.0,74.0,68.0,3.0
1.0,68.0,68.0,84.0
1.0,46.0,76.0,106.0
1.0,72.0,71.0,8.0
1.0,74.0,53.0,115.0
1.0,62.0,37.0,92.0
1.0,56.0,51.0,3.0
1.0,77.0,61.0,1.0
1.0,58.0,22.0,6.0
1.0,80.0,72.0,95.0
1.0,39.0,29.0,78.0
1.0,79.0,63.0,56.0
1.0,51.0,46.0,19.0
1.0,70.0,45.0,180.0
1.0,58.0,52.0,52.0
1.0,75.0,40.0,10.0
1.0,63.0,40.0,6.0
1.0,79.0,48.0,3.0
1.0,70.0,50.0,207.0
1.0,63.0,34.0,8.0
1.0,67.0,44.0,13.0
1.0,75.0,33.0,19.0
1.0,82.0,63.0,23.0
1.0,67.0,28.0,409.0
1.0,70.0,71.0,104.0
1.0,51.0,32.0,11.0
1.0,65.0,61.0,84.0
1.0,68.0,72.0,92.0
1.0,58.0,54.0,19.0
1.0,63.0,80.0,64.0
1.0,46.0,85.0,105.0
1.0,67.0,83.0,10.0
1.0,70.0,91.0,75.0
1.0,72.0,98.0,52.0
1.0,63.0,67.0,14.0
1.0,55.0,54.0,8.0
1.0,58.0,61.0,4.0
1.0,75.0,74.0,63.0
1.0,42.0,34.0,37.0
1.0,74.0,94.0,6.0
1.0,54.0,81.0,19.0
1.0,74.0,69.0,197.0
1.0,72.0,80.0,24.0
1.0,62.0,71.0,4.0
1.0,66.0,64.0,1.0
1.0,81.0,97.0,8.0
1.0,66.0,54.0,173.0
1.0,74.0,49.0,19.0
1.0,72.0,46.0,1.0
1.0,81.0,79.0,12.0
1.0,86.0,95.0,0.0
1.0,74.0,80.0,257.0
1.0,79.0,89.0,138.0
1.0,55.0,47.0,19.0
1.0,70.0,88.0,73.0
1.0,72.0,95.0,92.0
1.0,62.0,52.0,10.0
1.0,58.0,52.0,2.0
1.0,75.0,62.0,86.0
1.0,50.0,78.0,95.0
1.0,74.0,72.0,11.0
1.0,67.0,56.0,112.0
1.0,54.0,53.0,106.0
1.0,69.0,62.0,0.0
1.0,60.0,51.0,4.0
1.0,70.0,78.0,94.0
1.0,43.0,60.0,114.0
1.0,67.0,67.0,0.0
1.0,70.0,84.0,102.0
1.0,58.0,53.0,122.0
1.0,69.0,85.0,1.0
1.0,50.0,33.0,18.0
1.0,55.0,34.0,6.0
1.0,70.0,83.0,93.0
1.0,67.0,67.0,163.0
1.0,70.0,55.0,150.0
1.0,68.0,37.0,148.0
1.0,67.0,45.0,135.0
1.0,70.0,56.0,126.0
1.0,51.0,25.0,3.0
1.0,65.0,37.0,124.0
1.0,68.0,45.0,92.0
1.0,58.0,52.0,7.0
1.0,63.0,59.0,94.0
1.0,46.0,57.0,126.0
1.0,67.0,59.0,12.0
1.0,70.0,68.0,94.0
1.0,72.0,52.0,104.0
1.0,58.0,46.0,4.0
1.0,55.0,29.0,9.0
1.0,75.0,44.0,87.0
1.0,41.0,41.0,35.0
1.0,74.0,59.0,48.0
1.0,53.0,62.0,15.0
1.0,68.0,50.0,278.0
1.0,70.0,44.0,2.0
1.0,58.0,36.0,3.0
1.0,62.0,22.0,1.0
1.0,77.0,54.0,5.0
1.0,62.0,28.0,249.0
1.0,70.0,41.0,38.0
1.0,65.0,23.0,21.0
1.0,68.0,38.0,18.0
1.0,77.0,18.0,44.0
1.0,82.0,60.0,1.0
1.0,72.0,36.0,288.0
1.0,75.0,43.0,130.0
1.0,53.0,41.0,22.0
1.0,70.0,55.0,90.0
1.0,58.0,47.0,113.0
1.0,74.0,39.0,8.0
1.0,68.0,65.0,62.0
1.0,72.0,53.0,131.0
1.0,46.0,59.0,1.0
1.0,74.0,49.0,115.0
1.0,56.0,59.0,108.0
1.0,77.0,55.0,2.0
1.0,62.0,28.0,5.0
1.0,80.0,59.0,94.0
1.0,39.0,30.0,96.0
1.0,79.0,51.0,6.0
1.0,51.0,48.0,41.0
1.0,70.0,42.0,194.0
1.0,63.0,19.0,17.0
1.0,75.0,23.0,21.0
1.0,82.0,40.0,3.0
1.0,67.0,22.0,12.0
1.0,67.0,33.0,205.0
1.0,70.0,46.0,55.0
1.0,75.0,28.0,20.0
1.0,82.0,52.0,5.0
1.0,87.0,37.0,28.0
1.0,70.0,55.0,347.0
1.0,75.0,48.0,152.0
1.0,55.0,41.0,11.0
1.0,70.0,69.0,104.0
1.0,63.0,54.0,126.0
1.0,73.0,53.0,4.0
1.0,72.0,71.0,108.0
1.0,77.0,81.0,70.0
1.0,57.0,56.0,17.0
1.0,72.0,77.0,85.0
1.0,75.0,76.0,100.0
1.0,65.0,69.0,10.0
1.0,74.0,86.0,96.0
1.0,79.0,91.0,106.0
1.0,59.0,56.0,12.0
1.0,74.0,93.0,60.0
1.0,77.0,95.0,100.0
1.0,67.0,77.0,15.0
1.0,74.0,95.0,89.0
1.0,75.0,95.0,19.0
1.0,60.0,68.0,15.0
1.0,77.0,104.0,73.0
1.0,63.0,76.0,90.0
1.0,79.0,100.0,0.0
1.0,80.0,100.0,76.0
1.0,82.0,113.0,69.0
1.0,46.0,83.0,7.0
1.0,79.0,95.0,59.0
1.0,80.0,100.0,75.0
1.0,67.0,84.0,0.0
1.0,58.0,81.0,3.0
1.0,63.0,76.0,3.0
1.0,81.0,105.0,44.0
1.0,82.0,114.0,71.0
1.0,46.0,95.0,10.0
1.0,83.0,95.0,34.0
1.0,84.0,110.0,51.0
1.0,62.0,63.0,4.0
1.0,56.0,83.0,0.0
1.0,65.0,84.0,0.0
1.0,58.0,73.0,4.0
1.0,86.0,104.0,72.0
1.0,87.0,112.0,87.0
1.0,63.0,90.0,8.0
1.0,51.0,83.0,7.0
1.0,82.0,118.0,226.0
1.0,70.0,115.0,3.0
1.0,58.0,110.0,0.0
1.0,77.0,110.0,4.0
1.0,46.0,106.0,1.0
1.0,74.0,108.0,0.0
1.0,53.0,87.0,8.0
1.0,50.0,61.0,2.0
1.0,75.0,111.0,175.0
1.0,87.0,111.0,1.0
1.0,51.0,106.0,0.0
1.0,82.0,115.0,2.0
1.0,79.0,112.0,2.0
1.0,39.0,101.0,0.0
1.0,43.0,85.0,8.0
1.0,46.0,102.0,0.0
0.0,0.0,0.0,0.0
0.0,0.0,0.0,0.0
0.0,0.0,0.0,0.0
0.0,0.0,0.0,0.0
0.0,0.0,0.0,0.0
0.0,0.0,0.0,0.0
0.0,0.0,0.0,0.0
0.0,0.0,0.0,0.0
0.0,0.0,0.0,0.0
0.0,0.0,0.0,0.0
0.0,0.0,0.0,0.0
0.0,0.0,0.0,0.0
0.0,0.0,0.0,0.0
0.0,0.0,0.0,0.0
0.0,0.0,0.0,0.0
0.0,0.0,0.0,0.0
0.0,0.0,0.0,0.0
0.0,0.0,0.0,0.0
0.0,0.0,0.0,0.0
0.0,0.0,0.0,0.0
0.0,0.0,0.0,0.0
0.0,0.0,0.0,0.0
0.0,0.0,0.0,0.0
0.0,0.0,0.0,0.0
0.0,0.0,0.0,0.0
0.0,0.0,0.0,0.0
0.0,0.0,0.0,0.0
0.0,0.0,0.0,0.0
0.0,0.0,0.0,0.0
0.0,0.0,0.0,0.0
0.0,0.0,0.0,0.0
0.0,0.0,0.0,0.0
0.0,0.0,0.0,0.0
0.0,0.0,0.0,0.0
0.0,0.0,0.0,0.0
0.0,0.0,0.0,0.0
0.0,0.0,0.0,0.0
0.0,0.0,0.0,0.0
0.0,0.0,0.0,0.0
0.0,0.0,0.0,0.0
0.0,0.0,0.0,0.0
0.0,0.0,0.0,0.0
0.0,0.0,0.0,0.0
0.0,0.0,0.0,0.0
0.0,0.0,0.0,0.0
0.0,0.0,0.0,0.0
0.0,0.0,0.0,0.0
0.0,0.0,0.0,0.0
0.0,0.0,0.0,0.0
0.0,0.0,0.0,0.0
0.0,0.0,0.0,0.0
0.0,0.0,0.0,0.0
0.0,0.0,0.0,0.0
0.0,0.0,0.0,0.0
0.0,0.0,0.0,0.0
0.0,0.0,0.0,0.0
0.0,0.0,0.0,0.0
0.0,0.0,0.0,0.0
0.0,0.0,0.0,0.0
0.0,0.0,0.0,0.0
0.0,0.0,0.0,0.0
0.0,0.0,0.0,0.0
0.0,0.0,0.0,0.0
0.0,0.0,0.0,0.0
0.0,0.0,0.0,0.0
0.0,0.0,0.0,0.0
0.0,0.0,0.0,0.0
0.0,0.0,0.0,0.0
0.0,0.0,0.0,0.0
0.0,0.0,0.0,0.0
0.0,0.0,0.0,0.0
0.0,0.0,0.0,0.0
0.0,0.0,0.0,0.0
0.0,0.0,0.0,0.0
0.0,0.0,0.0,0.0
0.0,0.0,0.0,0.0
0.0,0.0,0.0,0.0
0.0,0.0,0.0,0.0
0.0,0.0,0.0,0.0
0.0,0.0,0.0,0.0
0.0,0.0,0.0,0.0
0.0,0.0,0.0,0.0
0.0,0.0,0.0,0.0
0.0,0.0,0.0,0.0
0.0,0.0,0.0,0.0
0.0,0.0,0.0,0.0
0.0,0.0,0.0,0.0
0.0,0.0,0.0,0.0
0.0,0.0,0.0,0.0
0.0,0.0,0.0,0.0
0.0,0.0,0.0,0.0
0.0,0.0,0.0,0.0
0.0,0.0,0.0,0.0
0.0,0.0,0.0,0.0
0.0,0.0,0.0,0.0
0.0,0.0,0.0,0.0
0.0,0.0,0.0,0.0
0.0,0.0,0.0,0.0
0.0,0.0,0.0,0.0
0.0,0.0,0.0,0.0
0.0,0.0,0.0,0.0
0.0,0.0,0.0,0.0
0.0,0.0,0.0,0.0
0.0,0.0,0.0,0.0
0.0,0.0,0.0,0.0
0.0,0.0,0.0,0.0
0.0,0.0,0.0,0.0
0.0,0.0,0.0,0.0
0.0,0.0,0.0,0.0
0.0,0.0,0.0,0.0
0.0,0.0,0.0,0.0
0.0,0.0,0.0,0.0
0.0,0.0,0.0,0.0
0.0,0.0,0.0,0.0
0.0,0.0,0.0,0.0
0.0,0.0,0.0,0.0
0.0,0.0,0.0,0.0
0.0,0.0,0.0,0.0
0.0,0.0,0.0,0.0
0.0,0.0,0.0,0.0
0.0,0.0,0.0,0.0
0.0,0.0,0.0,0.0
0.0,0.0,0.0,0.0
0.0,0.0,0.0,0.0
0.0,0.0,0.0,0.0
0.0,0.0,0.0,0.0
0.0,0.0,0.0,0.0
0.0,0.0,0.0,0.0
0.0,0.0,0.0,0.0
0.0,0.0,0.0,0.0
0.0,0.0,0.0,0.0
0.0,0.0,0.0,0.0
0.0,0.0,0.0,0.0
0.0,0.0,0.0,0.0
0.0,0.0,0.0,0.0
0.0,0.0,0.0,0.0
0.0,0.0,0.0,0.0
0.0,0.0,0.0,0.0
0.0,0.0,0.0,0.0
0.0,0.0,0.0,0.0
0.0,0.0,0.0,0.0
0.0,0.0,0.0,0.0
0.0,0.0,0.0,0.0
0.0,0.0,0.0,0.0
0.0,0.0,0.0,0.0
0.0,0.0,0.0,0.0
0.0,0.0,0.0,0.0
0.0,0.0,0.0,0.0
0.0,0.0,0.0,0.0
0.0,0.0,0.0,0.0
0.0,0.0,0.0,0.0
