track,note,velocity,time
0,1,1,0
0,1,1,0
0,66,67,0
0,62,67,0
0,57,67,0
0,36,127,12
0,42,87,0
0,49,94,4
0,50,102,0
0,57,100,0
0,78,99,0
0,74,100,0
0,38,127,0
0,42,60,4
0,62,66,0
0,50,80,4
0,57,82,0
0,57,60,0
0,66,80,0
0,69,89,0
0,74,79,0
0,36,127,40
0,38,127,0
0,42,91,4
0,50,112,0
0,57,107,0
0,38,127,0
0,42,69,28
0,35,127,0
0,71,98,4
0,76,111,0
0,66,78,0
0,62,69,0
0,69,86,0
0,74,79,0
0,57,62,0
0,50,88,4
0,57,95,0
0,36,127,0
0,42,87,0
0,57,107,4
0,50,102,0
0,69,95,0
0,74,98,0
0,33,127,0
0,42,59,28
0,62,68,0
0,50,81,4
0,57,86,0
0,66,74,0
0,69,89,0
0,74,76,0
0,57,63,0
0,36,127,28
0,38,127,0
0,42,95,4
0,50,105,0
0,57,104,0
0,71,91,0
0,76,93,0
0,35,127,0
0,42,69,12
0,62,65,0
0,50,84,4
0,57,90,0
0,66,72,0
0,69,82,0
0,74,76,0
0,57,63,0
0,36,127,8
0,42,99,4
0,50,102,0
0,57,104,0
0,74,78,0
0,78,76,0
0,38,127,0
0,42,71,96
0,62,69,0
0,50,82,4
0,78,84,0
0,74,84,0
0,66,71,0
0,69,79,0
0,57,67,0
0,74,72,0
0,57,85,4
0,38,127,124
0,36,127,0
0,42,95,0
0,50,104,4
0,57,105,0
0,78,94,0
0,74,98,0
0,38,127,0
0,42,71,12
0,35,127,0
0,71,83,4
0,76,81,0
0,66,70,0
0,69,79,0
0,62,70,0
0,74,73,0
0,57,65,0
0,50,83,4
0,57,88,0
0,36,127,4
0,42,91,0
0,50,104,4
0,57,105,0
0,74,98,0
0,69,91,0
0,33,127,0
0,42,65,36
0,62,67,0
0,50,83,4
0,57,86,0
0,66,68,0
0,69,79,0
0,74,72,0
0,57,65,0
0,36,127,12
0,38,127,0
0,42,95,4
0,50,104,0
0,57,105,0
0,76,83,0
0,71,90,0
0,35,127,0
0,42,67,40
0,66,66,0
0,69,76,0
0,50,84,4
0,57,89,0
0,62,67,0
0,74,72,0
0,57,65,0
0,42,99,0
0,36,127,0
0,50,102,4
0,57,105,0
0,74,84,0
0,78,81,0
0,38,127,0
0,42,63,8
0,62,66,0
0,50,77,4
0,57,89,0
0,66,67,0
0,69,76,0
0,57,65,0
0,74,73,0
0,36,127,100
0,42,95,0
0,38,127,0
0,50,99,0
0,57,104,0
0,38,127,0
0,42,72,16
0,35,127,0
0,71,86,4
0,76,82,0
0,66,69,0
0,62,67,0
0,69,82,0
0,74,73,0
0,57,61,0
0,50,84,4
0,57,88,0
0,36,127,12
0,42,87,0
0,50,102,4
0,57,100,0
0,69,91,0
0,74,93,0
0,33,127,0
0,42,68,20
0,62,69,0
0,50,78,4
0,57,84,0
0,66,67,0
0,69,76,0
0,74,73,0
0,57,66,0
0,36,127,16
0,38,127,0
0,42,87,0
0,50,102,4
0,57,102,0
0,76,83,0
0,71,91,0
0,35,127,0
0,42,69,48
0,62,68,0
0,50,78,4
0,57,82,0
0,66,70,0
0,69,79,0
0,57,68,0
0,74,76,0
0,36,127,4
0,42,84,0
0,43,105,4
0,50,100,0
0,78,80,0
0,74,81,0
0,31,127,0
0,55,67,8
0,59,67,0
0,42,64,92
0,67,69,0
0,74,70,0
0,43,84,4
0,74,85,0
0,78,83,0
0,55,77,0
0,62,77,0
0,71,67,0
0,50,88,4
0,36,127,100
0,38,127,0
0,42,91,0
0,43,125,4
0,50,121,0
0,74,88,0
0,78,84,0
0,31,127,0
0,42,69,24
0,35,127,0
0,71,83,4
0,76,76,0
0,74,61,0
0,62,76,0
0,71,65,0
0,55,81,0
0,67,68,0
0,43,84,4
0,50,88,0
0,64,67,24
0,36,127,4
0,42,84,0
0,61,67,4
0,45,104,0
0,52,117,0
0,74,91,0
0,69,86,0
0,33,127,0
0,57,67,4
0,42,76,4
0,38,127,0
0,45,88,4
0,52,85,0
0,73,77,0
0,69,79,0
0,76,75,0
0,64,75,0
0,57,73,0
0,36,127,0
0,38,127,0
0,42,99,0
0,45,109,0
0,52,109,0
0,76,84,0
0,71,85,0
0,35,127,0
0,38,127,20
0,42,87,0
0,76,84,0
0,45,89,4
0,52,86,0
0,64,73,0
0,57,72,0
0,73,81,0
0,69,84,0
0,36,127,8
0,42,87,0
0,66,127,0
0,49,86,0
0,50,102,0
0,57,99,0
0,38,127,0
0,57,67,4
0,62,67,0
0,66,67,0
0,64,127,64
0,42,66,0
0,62,71,0
0,57,80,0
0,50,79,0
0,69,79,0
0,74,73,0
0,78,80,0
0,36,127,24
0,38,127,0
0,42,87,0
0,50,107,4
0,57,102,0
0,38,127,0
0,62,127,92
0,42,59,0
0,50,82,4
0,57,85,0
0,62,66,0
0,78,75,0
0,69,77,0
0,74,70,0
0,36,127,16
0,42,82,0
0,57,98,4
0,50,99,0
0,38,127,0
0,57,127,92
0,42,62,0
0,50,82,4
0,57,82,0
0,62,66,0
0,69,76,0
0,78,77,0
0,74,72,0
0,36,127,116
0,42,87,0
0,38,127,0
0,50,102,4
0,57,102,0
0,38,127,0
0,42,63,100
0,62,67,0
0,57,86,4
0,50,83,0
0,78,77,0
0,69,79,0
0,57,62,0
0,74,71,0
0,42,87,72
0,36,127,0
0,50,100,4
0,57,100,0
0,38,127,0
0,54,127,16
0,42,64,104
0,78,75,0
0,50,84,4
0,57,89,0
0,69,74,0
0,62,71,0
0,74,72,0
0,57,66,0
0,57,127,4
0,36,127,0
0,38,127,0
0,42,87,4
0,57,102,0
0,50,105,0
0,38,127,0
0,59,127,8
0,42,64,0
0,78,75,0
0,50,86,4
0,57,88,0
0,69,74,0
0,74,72,0
0,62,66,0
0,57,60,0
0,57,127,4
0,36,127,92
0,42,82,0
0,50,102,4
0,57,99,0
0,38,127,0
0,42,63,88
0,62,65,0
0,50,93,4
0,57,94,0
0,69,72,0
0,57,64,0
0,78,77,0
0,74,73,0
0,38,127,112
0,36,127,0
0,42,82,4
0,57,98,0
0,50,102,0
0,38,127,0
0,44,65,96
0,78,78,0
0,62,65,0
0,50,94,4
0,57,93,0
0,69,74,0
0,74,70,0
0,57,65,0
0,57,127,4
0,42,84,8
0,36,127,0
0,50,102,4
0,57,98,0
0,38,127,0
0,66,127,8
0,42,59,16
0,74,72,0
0,50,83,4
0,57,85,0
0,62,69,0
0,78,78,0
0,69,76,0
0,57,65,0
0,64,127,8
0,36,127,8
0,38,127,0
0,42,87,0
0,50,100,4
0,57,99,0
0,38,127,0
0,42,65,100
0,69,76,0
0,62,127,4
0,50,85,0
0,57,90,0
0,62,67,0
0,74,72,0
0,57,61,0
0,78,77,0
0,36,127,24
0,42,87,0
0,57,99,4
0,50,100,0
0,38,127,0
0,42,68,92
0,62,65,0
0,50,83,4
0,57,83,0
0,69,69,0
0,78,75,0
0,74,69,0
0,57,64,0
0,57,127,4
0,36,127,112
0,38,127,0
0,42,87,0
0,50,104,4
0,57,104,0
0,38,127,0
0,42,67,88
0,62,66,0
0,50,84,4
0,57,88,0
0,78,73,0
0,69,69,0
0,74,66,0
0,57,59,0
0,36,127,76
0,54,127,4
0,42,87,0
0,50,102,0
0,57,100,0
0,38,127,0
0,57,127,8
0,42,63,8
0,69,67,0
0,50,79,4
0,57,83,0
0,62,68,0
0,78,73,0
0,74,71,0
0,57,61,0
0,36,127,72
0,38,127,0
0,59,127,4
0,42,84,0
0,50,102,0
0,57,104,0
0,38,127,0
0,57,127,80
0,42,68,4
0,62,66,0
0,69,71,0
0,50,81,4
0,57,85,0
0,78,75,0
0,74,70,0
0,57,64,0
0,36,127,92
0,42,84,0
0,50,102,4
0,57,102,0
0,38,127,0
0,38,127,84
0,42,71,0
0,50,83,4
0,57,82,0
0,62,67,0
0,69,69,0
0,57,62,0
0,74,69,0
0,78,74,0
0,38,127,112
0,36,127,0
0,42,84,0
0,50,105,4
0,57,105,0
0,38,127,0
0,42,76,100
0,38,127,0
0,50,82,4
0,57,87,0
0,69,69,0
0,57,57,0
0,62,63,0
0,78,71,0
0,74,65,0
0,62,67,56
0,59,127,16
0,59,67,0
0,67,67,4
0,36,127,0
0,42,95,0
0,43,112,0
0,50,99,0
0,31,127,0
0,42,62,104
0,71,70,0
0,50,83,4
0,43,83,0
0,62,76,0
0,74,74,0
0,79,74,0
0,55,74,0
0,36,127,124
0,38,127,0
0,42,95,0
0,43,99,4
0,50,100,0
0,31,127,0
0,42,68,100
0,71,74,0
0,43,84,4
0,50,83,0
0,62,75,0
0,79,81,0
0,55,75,0
0,36,127,36
0,42,95,0
0,62,127,4
0,50,99,0
0,43,102,0
0,31,127,0
0,42,62,20
0,62,77,0
0,71,75,0
0,43,83,4
0,50,86,0
0,79,82,0
0,55,77,0
0,36,127,128
0,38,127,0
0,42,87,0
0,43,104,4
0,50,98,0
0,31,127,0
0,42,67,100
0,62,72,0
0,50,84,4
0,43,88,0
0,71,72,0
0,79,81,0
0,55,76,0
0,57,67,48
0,36,127,4
0,42,87,0
0,57,127,4
0,45,105,0
0,52,104,0
0,33,127,0
0,61,67,4
0,64,67,0
0,42,63,20
0,64,75,0
0,45,87,4
0,52,88,0
0,69,73,0
0,76,72,0
0,73,74,0
0,57,72,0
0,38,127,128
0,42,87,0
0,57,127,4
0,36,127,0
0,45,99,0
0,52,102,0
0,33,127,0
0,57,127,80
0,42,65,16
0,64,72,0
0,69,74,0
0,45,85,4
0,52,86,0
0,76,77,0
0,73,78,0
0,57,67,0
0,36,127,32
0,42,82,0
0,45,96,4
0,52,107,0
0,33,127,0
0,54,127,4
0,57,127,96
0,42,69,0
0,45,85,4
0,52,84,0
0,69,73,0
0,73,81,0
0,76,76,0
0,64,72,0
0,57,65,0
0,59,127,108
0,36,127,0
0,38,127,0
0,42,87,0
0,45,97,4
0,52,107,0
0,33,127,0
0,44,87,96
0,69,74,0
0,52,89,4
0,45,84,0
0,76,79,0
0,73,80,0
0,64,72,0
0,57,68,0
0,66,67,4
0,62,67,4
0,50,127,12
0,42,95,4
0,36,127,0
0,50,99,0
0,57,95,0
0,78,103,0
0,74,107,0
0,38,127,0
0,42,69,24
0,69,76,0
0,62,72,0
0,57,91,4
0,50,90,0
0,78,78,0
0,74,74,0
0,57,71,0
0,38,127,60
0,36,127,0
0,42,87,0
0,50,102,4
0,57,102,0
0,38,127,0
0,42,71,4
0,35,127,0
0,71,90,4
0,76,93,0
0,78,79,0
0,69,75,0
0,62,72,0
0,74,72,0
0,57,68,0
0,50,93,4
0,57,93,0
0,36,127,80
0,42,91,0
0,50,99,4
0,57,97,0
0,69,91,0
0,74,95,0
0,33,127,0
0,42,65,56
0,62,70,0
0,50,88,4
0,57,88,0
0,69,73,0
0,74,73,0
0,78,75,0
0,57,65,0
0,36,127,12
0,38,127,0
0,42,87,0
0,50,100,4
0,57,102,0
0,76,91,0
0,71,95,0
0,35,127,0
0,42,67,24
0,62,71,0
0,78,78,0
0,50,91,4
0,57,88,0
0,69,72,0
0,57,66,0
0,74,74,0
0,36,127,16
0,42,87,0
0,57,100,4
0,50,100,0
0,74,80,0
0,78,81,0
0,38,127,0
0,42,71,108
0,69,75,0
0,57,93,4
0,74,82,0
0,78,75,0
0,62,72,0
0,78,77,0
0,74,72,0
0,57,65,0
0,50,92,4
0,36,127,112
0,38,127,0
0,42,95,4
0,57,104,0
0,50,102,0
0,78,87,0
0,74,91,0
0,38,127,0
0,42,69,8
0,35,127,0
0,76,78,4
0,71,80,0
0,78,78,0
0,69,74,0
0,74,76,0
0,62,70,0
0,57,64,0
0,50,87,4
0,57,88,0
0,42,87,88
0,36,127,0
0,57,100,4
0,50,100,0
0,69,91,0
0,74,91,0
0,33,127,0
0,42,75,32
0,38,127,0
0,57,88,4
0,50,86,0
0,69,69,0
0,78,75,0
0,74,72,0
0,62,68,0
0,57,63,0
0,38,127,28
0,36,127,0
0,42,82,0
0,57,102,4
0,50,102,0
0,76,82,0
0,71,84,0
0,35,127,0
0,42,84,8
0,38,127,0
0,50,81,4
0,57,82,0
0,57,61,0
0,74,73,0
0,62,67,0
0,69,72,0
0,78,78,0
0,66,127,36
0,36,127,4
0,42,91,4
0,49,86,0
0,50,97,0
0,57,96,0
0,38,127,0
0,42,65,32
0,62,70,0
0,57,65,0
0,64,127,4
0,50,89,0
0,57,85,0
0,69,70,0
0,78,77,0
0,74,72,0
0,36,127,24
0,38,127,0
0,42,95,0
0,50,99,4
0,57,98,0
0,38,127,0
0,62,127,112
0,42,66,0
0,57,79,4
0,50,80,0
0,62,66,0
0,69,71,0
0,78,77,0
0,74,67,0
0,57,62,0
0,36,127,36
0,42,82,4
0,50,99,0
0,57,99,0
0,38,127,0
0,42,64,92
0,62,66,0
0,57,127,4
0,50,83,0
0,57,83,0
0,69,66,0
0,78,74,0
0,57,62,0
0,74,71,0
0,36,127,116
0,38,127,0
0,42,84,4
0,57,99,0
0,50,98,0
0,38,127,0
0,42,72,76
0,62,69,0
0,74,72,0
0,50,74,4
0,57,79,0
0,78,77,0
0,69,73,0
0,57,65,0
0,54,127,84
0,36,127,4
0,42,87,0
0,50,95,4
0,57,97,0
0,38,127,0
0,57,127,20
0,42,71,0
0,50,84,4
0,57,83,0
0,62,68,0
0,57,66,0
0,69,66,0
0,74,73,0
0,78,75,0
0,36,127,44
0,38,127,0
0,42,91,0
0,50,98,4
0,57,102,0
0,38,127,0
0,59,127,4
0,42,67,80
0,78,77,0
0,57,127,4
0,57,87,0
0,50,84,0
0,57,61,0
0,69,75,0
0,62,68,0
0,74,75,0
0,36,127,100
0,42,84,0
0,50,100,4
0,57,104,0
0,38,127,0
0,42,66,100
0,62,67,0
0,69,72,0
0,57,84,4
0,50,84,0
0,78,74,0
0,74,73,0
0,57,61,0
0,36,127,116
0,38,127,0
0,42,82,0
0,57,102,4
0,50,105,0
0,38,127,0
0,57,127,84
0,44,72,12
0,69,73,0
0,50,85,4
0,57,84,0
0,74,73,0
0,62,70,0
0,78,77,0
0,57,64,0
0,66,127,40
0,42,84,8
0,36,127,4
0,50,100,0
0,57,100,0
0,38,127,0
0,64,127,32
0,42,72,4
0,62,69,0
0,57,88,4
0,50,86,0
0,57,63,0
0,69,68,0
0,74,72,0
0,78,70,0
0,36,127,128
0,38,127,0
0,42,84,4
0,50,100,0
0,57,102,0
0,38,127,0
0,42,72,108
0,62,69,0
0,62,127,4
0,57,88,0
0,50,88,0
0,69,72,0
0,57,69,0
0,78,77,0
0,74,75,0
0,36,127,80
0,42,82,0
0,57,95,4
0,50,96,0
0,38,127,0
0,42,69,84
0,69,71,0
0,57,127,4
0,50,85,0
0,57,90,0
0,78,75,0
0,62,71,0
0,74,74,0
0,57,65,0
0,36,127,112
0,38,127,0
0,42,84,4
0,50,102,0
0,57,102,0
0,38,127,0
0,42,76,96
0,78,77,0
0,69,72,0
0,57,127,4
0,50,91,0
0,57,92,0
0,74,72,0
0,62,71,0
0,57,65,0
0,36,127,4
0,42,91,0
0,57,99,4
0,50,100,0
0,38,127,0
0,54,127,4
0,42,68,20
0,62,71,0
0,57,127,4
0,57,94,0
0,50,92,0
0,57,68,0
0,69,72,0
0,74,72,0
0,78,77,0
0,36,127,44
0,38,127,0
0,42,82,0
0,57,100,4
0,50,100,0
0,38,127,0
0,59,127,8
0,42,67,76
0,62,69,0
0,50,88,4
0,57,89,0
0,78,75,0
0,69,74,0
0,57,61,0
0,74,70,0
0,57,127,4
0,36,127,92
0,42,87,0
0,57,104,4
0,50,102,0
0,38,127,0
0,42,70,112
0,38,127,0
0,57,63,0
0,50,89,4
0,57,94,0
0,62,71,0
0,78,70,0
0,69,66,0
0,74,69,0
0,36,127,112
0,38,127,0
0,42,95,0
0,50,104,4
0,57,105,0
0,38,127,0
0,42,72,96
0,38,127,0
0,69,70,0
0,57,93,4
0,50,88,0
0,62,67,0
0,57,62,0
0,78,74,0
0,74,72,0
