track,note,velocity,time
1,48,127,18240
1,55,127,0
1,57,127,80
1,50,127,0
1,55,0,7
1,48,0,0
1,57,0,89
1,50,0,0
1,48,127,4
1,55,127,0
1,50,127,60
1,57,127,0
1,55,0,27
1,48,0,0
1,50,0,33
1,57,0,0
1,48,127,180
1,55,127,0
1,50,127,80
1,57,127,0
1,55,0,7
1,48,0,0
1,50,0,89
1,57,0,0
1,48,127,4
1,55,127,0
1,50,127,60
1,57,127,0
1,55,0,27
1,48,0,0
1,50,0,33
1,57,0,0
1,53,127,180
1,60,127,0
1,55,127,80
1,62,127,0
1,60,0,7
1,53,0,0
1,55,0,89
1,62,0,0
1,53,127,4
1,60,127,0
1,55,127,60
1,62,127,0
1,60,0,27
1,53,0,0
1,55,0,33
1,62,0,0
1,53,127,180
1,60,127,0
1,55,127,80
1,62,127,0
1,60,0,7
1,53,0,0
1,55,0,89
1,62,0,0
1,53,127,4
1,60,127,0
1,55,127,60
1,62,127,0
1,60,0,27
1,53,0,0
1,55,0,26
1,62,0,0
1,48,127,1
1,55,127,0
1,50,127,80
1,57,127,0
1,55,0,7
1,48,0,0
1,50,0,89
1,57,0,0
1,48,127,4
1,55,127,0
1,50,127,60
1,57,127,0
1,55,0,27
1,48,0,0
1,50,0,33
1,57,0,0
1,48,127,180
1,55,127,0
1,50,127,80
1,57,127,0
1,55,0,7
1,48,0,0
1,50,0,89
1,57,0,0
1,48,127,4
1,55,127,0
1,50,127,60
1,57,127,0
1,55,0,27
1,48,0,0
1,50,0,33
1,57,0,0
1,53,127,180
1,60,127,0
1,55,127,80
1,62,127,0
1,60,0,7
1,53,0,0
1,55,0,89
1,62,0,0
1,53,127,4
1,60,127,0
1,55,127,60
1,62,127,0
1,60,0,27
1,53,0,0
1,55,0,33
1,62,0,0
1,53,127,180
1,60,127,0
1,55,127,80
1,62,127,0
1,60,0,7
1,53,0,0
1,55,0,89
1,62,0,0
1,53,127,4
1,60,127,0
1,55,127,60
1,62,127,0
1,60,0,27
1,53,0,0
1,55,0,93
1,62,0,0
1,60,127,1860
1,65,127,0
1,65,0,52
1,60,0,0
1,59,127,38
1,64,127,0
1,64,0,52
1,59,0,0
1,62,127,38
1,57,127,0
1,57,0,29
1,62,0,0
1,60,127,1574
1,65,127,0
1,65,0,52
1,60,0,0
1,59,127,38
1,64,127,0
1,64,0,52
1,59,0,0
1,48,127,3878
1,55,127,0
1,57,127,80
1,50,127,0
1,55,0,7
1,48,0,0
1,57,0,89
1,50,0,0
1,48,127,4
1,55,127,0
1,50,127,60
1,57,127,0
1,55,0,27
1,48,0,0
1,50,0,33
1,57,0,0
1,48,127,180
1,55,127,0
1,50,127,80
1,57,127,0
1,55,0,7
1,48,0,0
1,50,0,89
1,57,0,0
1,48,127,4
1,55,127,0
1,50,127,60
1,57,127,0
1,55,0,27
1,48,0,0
1,50,0,33
1,57,0,0
1,53,127,180
1,60,127,0
1,55,127,80
1,62,127,0
1,60,0,7
1,53,0,0
1,55,0,89
1,62,0,0
1,53,127,4
1,60,127,0
1,55,127,60
1,62,127,0
1,60,0,27
1,53,0,0
1,55,0,33
1,62,0,0
1,53,127,180
1,60,127,0
1,55,127,80
1,62,127,0
1,60,0,7
1,53,0,0
1,55,0,89
1,62,0,0
1,53,127,4
1,60,127,0
1,55,127,60
1,62,127,0
1,60,0,3
1,53,0,0
1,55,0,29
1,62,0,0
1,48,127,74
1,55,127,0
1,50,127,80
1,57,127,0
1,55,0,7
1,48,0,0
1,50,0,89
1,57,0,0
1,48,127,4
1,55,127,0
1,50,127,60
1,57,127,0
1,55,0,27
1,48,0,0
1,50,0,33
1,57,0,0
1,48,127,180
1,55,127,0
1,50,127,80
1,57,127,0
1,55,0,7
1,48,0,0
1,50,0,89
1,57,0,0
1,48,127,4
1,55,127,0
1,50,127,60
1,57,127,0
1,55,0,27
1,48,0,0
1,50,0,33
1,57,0,0
1,53,127,180
1,60,127,0
1,55,127,80
1,62,127,0
1,60,0,7
1,53,0,0
1,55,0,89
1,62,0,0
1,53,127,4
1,60,127,0
1,55,127,60
1,62,127,0
1,60,0,27
1,53,0,0
1,55,0,33
1,62,0,0
1,53,127,180
1,60,127,0
1,55,127,80
1,62,127,0
1,60,0,7
1,53,0,0
1,55,0,89
1,62,0,0
1,53,127,4
1,60,127,0
1,55,127,60
1,62,127,0
1,60,0,27
1,53,0,0
1,55,0,93
1,62,0,0
1,60,127,5700
1,65,127,0
1,65,0,52
1,60,0,0
1,59,127,38
1,64,127,0
1,64,0,52
1,59,0,0
1,62,127,38
1,57,127,0
1,57,0,29
1,62,0,0
1,48,127,5594
1,55,127,0
1,57,127,80
1,50,127,0
1,55,0,7
1,48,0,0
1,57,0,89
1,50,0,0
1,48,127,4
1,55,127,0
1,50,127,60
1,57,127,0
1,55,0,27
1,48,0,0
1,50,0,33
1,57,0,0
1,48,127,180
1,55,127,0
1,50,127,80
1,57,127,0
1,55,0,7
1,48,0,0
1,50,0,89
1,57,0,0
1,48,127,4
1,55,127,0
1,50,127,60
1,57,127,0
1,55,0,27
1,48,0,0
1,50,0,33
1,57,0,0
1,53,127,180
1,60,127,0
1,55,127,80
1,62,127,0
1,60,0,7
1,53,0,0
1,55,0,89
1,62,0,0
1,53,127,4
1,60,127,0
1,55,127,60
1,62,127,0
1,60,0,27
1,53,0,0
1,55,0,33
1,62,0,0
1,53,127,180
1,60,127,0
1,55,127,80
1,62,127,0
1,60,0,7
1,53,0,0
1,55,0,89
1,62,0,0
1,53,127,4
1,60,127,0
1,55,127,60
1,62,127,0
1,60,0,3
1,53,0,0
1,55,0,29
1,62,0,0
1,48,127,74
1,55,127,0
1,50,127,80
1,57,127,0
1,55,0,7
1,48,0,0
1,50,0,89
1,57,0,0
1,48,127,4
1,55,127,0
1,50,127,60
1,57,127,0
1,55,0,27
1,48,0,0
1,50,0,33
1,57,0,0
1,48,127,180
1,55,127,0
1,50,127,80
1,57,127,0
1,55,0,7
1,48,0,0
1,50,0,89
1,57,0,0
1,48,127,4
1,55,127,0
1,50,127,60
1,57,127,0
1,55,0,27
1,48,0,0
1,50,0,33
1,57,0,0
1,53,127,180
1,60,127,0
1,55,127,80
1,62,127,0
1,60,0,7
1,53,0,0
1,55,0,89
1,62,0,0
1,53,127,4
1,60,127,0
1,55,127,60
1,62,127,0
1,60,0,27
1,53,0,0
1,55,0,33
1,62,0,0
1,53,127,180
1,60,127,0
1,55,127,80
1,62,127,0
1,60,0,7
1,53,0,0
1,55,0,89
1,62,0,0
1,53,127,4
1,60,127,0
1,55,127,60
1,62,127,0
1,60,0,27
1,53,0,0
1,55,0,93
1,62,0,0
1,48,127,120
1,55,127,0
1,57,127,80
1,50,127,0
1,55,0,7
1,48,0,0
1,57,0,89
1,50,0,0
1,48,127,4
1,55,127,0
1,50,127,60
1,57,127,0
1,55,0,27
1,48,0,0
1,50,0,33
1,57,0,0
1,48,127,180
1,55,127,0
1,50,127,80
1,57,127,0
1,55,0,7
1,48,0,0
1,50,0,89
1,57,0,0
1,48,127,4
1,55,127,0
1,50,127,60
1,57,127,0
1,55,0,27
1,48,0,0
1,50,0,33
1,57,0,0
1,53,127,180
1,60,127,0
1,55,127,80
1,62,127,0
1,60,0,7
1,53,0,0
1,55,0,89
1,62,0,0
1,53,127,4
1,60,127,0
1,55,127,60
1,62,127,0
1,60,0,27
1,53,0,0
1,55,0,33
1,62,0,0
1,53,127,180
1,60,127,0
1,55,127,80
1,62,127,0
1,60,0,7
1,53,0,0
1,55,0,89
1,62,0,0
1,53,127,4
1,60,127,0
1,55,127,60
1,62,127,0
1,60,0,27
1,53,0,0
1,55,0,26
1,62,0,0
1,48,127,1
1,55,127,0
1,50,127,80
1,57,127,0
1,55,0,7
1,48,0,0
1,50,0,89
1,57,0,0
1,48,127,4
1,55,127,0
1,50,127,60
1,57,127,0
1,55,0,27
1,48,0,0
1,50,0,33
1,57,0,0
1,48,127,180
1,55,127,0
1,50,127,80
1,57,127,0
1,55,0,7
1,48,0,0
1,50,0,89
1,57,0,0
1,48,127,4
1,55,127,0
1,50,127,60
1,57,127,0
1,55,0,27
1,48,0,0
1,50,0,33
1,57,0,0
1,53,127,180
1,60,127,0
1,55,127,80
1,62,127,0
1,60,0,7
1,53,0,0
1,55,0,89
1,62,0,0
1,53,127,4
1,60,127,0
1,55,127,60
1,62,127,0
1,60,0,27
1,53,0,0
1,55,0,33
1,62,0,0
1,53,127,180
1,60,127,0
1,55,127,80
1,62,127,0
1,60,0,7
1,53,0,0
1,55,0,89
1,62,0,0
1,53,127,4
1,60,127,0
1,55,127,60
1,62,127,0
1,60,0,27
1,53,0,0
1,55,0,93
1,62,0,0
1,48,127,120
1,55,127,0
1,57,127,80
1,50,127,0
1,55,0,7
1,48,0,0
1,57,0,89
1,50,0,0
1,48,127,4
1,55,127,0
1,50,127,60
1,57,127,0
1,55,0,27
1,48,0,0
1,50,0,33
1,57,0,0
1,48,127,180
1,55,127,0
1,50,127,80
1,57,127,0
1,55,0,7
1,48,0,0
1,50,0,89
1,57,0,0
1,48,127,4
1,55,127,0
1,50,127,60
1,57,127,0
1,55,0,27
1,48,0,0
1,50,0,33
1,57,0,0
1,53,127,180
1,60,127,0
1,55,127,80
1,62,127,0
1,60,0,7
1,53,0,0
1,55,0,89
1,62,0,0
1,53,127,4
1,60,127,0
1,55,127,60
1,62,127,0
1,60,0,27
1,53,0,0
1,55,0,33
1,62,0,0
1,53,127,180
1,60,127,0
1,55,127,80
1,62,127,0
1,60,0,7
1,53,0,0
1,55,0,89
1,62,0,0
1,53,127,4
1,60,127,0
1,55,127,60
1,62,127,0
1,60,0,27
1,53,0,0
1,55,0,33
1,62,0,0
1,48,127,180
1,55,127,0
1,50,127,80
1,57,127,0
1,55,0,7
1,48,0,0
1,50,0,89
1,57,0,0
1,48,127,4
1,55,127,0
1,50,127,60
1,57,127,0
1,55,0,27
1,48,0,0
1,50,0,33
1,57,0,0
2,26,127,2880
2,38,127,30
2,26,0,6
2,38,0,14
2,38,127,10
2,38,0,20
2,38,127,10
2,38,0,20
2,38,127,10
2,38,0,20
2,38,127,10
2,38,0,20
2,38,127,10
2,38,0,20
2,38,127,10
2,38,0,20
2,36,127,10
2,38,127,30
2,36,0,3
2,36,127,27
2,38,0,1
2,38,127,29
2,36,0,1
2,40,127,29
2,38,0,6
2,40,0,23
2,38,127,1
2,38,0,27
2,36,127,3
2,38,127,30
2,36,0,10
2,38,0,15
2,26,127,5
2,38,127,30
2,26,0,6
2,38,0,14
2,38,127,10
2,38,0,20
2,38,127,10
2,38,0,20
2,38,127,10
2,38,0,20
2,38,127,10
2,38,0,20
2,38,127,10
2,38,0,20
2,38,127,10
2,38,0,20
2,36,127,10
2,38,127,30
2,36,0,3
2,36,127,27
2,38,0,1
2,38,127,29
2,36,0,1
2,40,127,29
2,38,0,6
2,40,0,23
2,38,127,1
2,38,0,27
2,36,127,3
2,38,127,30
2,36,0,10
2,38,0,15
2,31,127,5
2,43,127,30
2,31,0,6
2,43,0,14
2,43,127,10
2,43,0,20
2,43,127,10
2,43,0,20
2,43,127,10
2,43,0,20
2,43,127,10
2,43,0,20
2,43,127,10
2,43,0,20
2,43,127,10
2,43,0,20
2,41,127,10
2,43,127,30
2,41,0,3
2,41,127,27
2,43,0,1
2,43,127,29
2,41,0,1
2,45,127,29
2,43,0,6
2,45,0,23
2,43,127,1
2,43,0,27
2,41,127,3
2,43,127,30
2,41,0,10
2,43,0,15
2,31,127,5
2,43,127,30
2,31,0,6
2,43,0,14
2,43,127,10
2,43,0,20
2,43,127,10
2,43,0,20
2,43,127,10
2,43,0,20
2,43,127,10
2,43,0,20
2,43,127,10
2,43,0,20
2,43,127,10
2,43,0,20
2,31,127,10
2,31,0,30
2,43,127,0
2,43,0,30
2,43,127,0
2,43,0,20
2,43,127,10
2,43,0,20
2,33,127,10
2,33,0,30
2,45,127,0
2,45,0,30
2,45,127,0
2,45,0,20
2,45,127,10
2,45,0,20
2,26,127,10
2,38,127,30
2,26,0,6
2,38,0,14
2,38,127,10
2,38,0,20
2,38,127,10
2,38,0,20
2,38,127,10
2,38,0,20
2,38,127,10
2,38,0,20
2,38,127,10
2,38,0,20
2,38,127,10
2,38,0,20
2,36,127,10
2,38,127,30
2,36,0,3
2,36,127,27
2,38,0,1
2,38,127,29
2,36,0,1
2,40,127,29
2,38,0,6
2,40,0,23
2,38,127,1
2,38,0,27
2,36,127,3
2,38,127,30
2,36,0,10
2,38,0,15
2,26,127,5
2,38,127,30
2,26,0,6
2,38,0,14
2,38,127,10
2,38,0,20
2,38,127,10
2,38,0,20
2,38,127,10
2,38,0,20
2,38,127,10
2,38,0,20
2,38,127,10
2,38,0,20
2,38,127,10
2,38,0,20
2,36,127,10
2,38,127,30
2,36,0,3
2,36,127,27
2,38,0,1
2,38,127,29
2,36,0,1
2,40,127,29
2,38,0,6
2,40,0,23
2,38,127,1
2,38,0,27
2,36,127,3
2,38,127,30
2,36,0,10
2,38,0,15
2,31,127,5
2,43,127,30
2,31,0,6
2,43,0,14
2,43,127,10
2,43,0,20
2,43,127,10
2,43,0,20
2,43,127,10
2,43,0,20
2,43,127,10
2,43,0,20
2,43,127,10
2,43,0,20
2,43,127,10
2,43,0,20
2,41,127,10
2,43,127,30
2,41,0,3
2,41,127,27
2,43,0,1
2,43,127,29
2,41,0,1
2,45,127,29
2,43,0,6
2,45,0,23
2,43,127,1
2,43,0,27
2,41,127,3
2,43,127,30
2,41,0,10
2,43,0,15
2,31,127,5
2,43,127,30
2,31,0,6
2,43,0,14
2,43,127,10
2,43,0,20
2,43,127,10
2,43,0,20
2,43,127,10
2,43,0,20
2,43,127,10
2,43,0,20
2,43,127,10
2,43,0,20
2,43,127,10
2,43,0,20
2,31,127,10
2,31,0,30
2,43,127,0
2,43,0,30
2,43,127,0
2,43,0,20
2,43,127,10
2,43,0,20
2,33,127,10
2,33,0,30
2,45,127,0
2,45,0,30
2,45,127,0
2,45,0,20
2,45,127,10
2,45,0,20
2,26,127,10
2,38,127,30
2,26,0,6
2,38,0,14
2,38,127,10
2,38,0,20
2,38,127,10
2,38,0,20
2,38,127,10
2,38,0,20
2,38,127,10
2,38,0,20
2,38,127,10
2,38,0,20
2,38,127,10
2,38,0,20
2,36,127,10
2,38,127,30
2,36,0,3
2,36,127,27
2,38,0,1
2,38,127,29
2,36,0,1
2,40,127,29
2,38,0,6
2,40,0,23
2,38,127,1
2,38,0,27
2,36,127,3
2,38,127,30
2,36,0,10
2,38,0,15
2,26,127,5
2,38,127,30
2,26,0,6
2,38,0,14
2,38,127,10
2,38,0,20
2,38,127,10
2,38,0,20
2,38,127,10
2,38,0,20
2,38,127,10
2,38,0,20
2,38,127,10
2,38,0,20
2,38,127,10
2,38,0,20
2,36,127,10
2,38,127,30
2,36,0,3
2,36,127,27
2,38,0,1
2,38,127,29
2,36,0,1
2,40,127,29
2,38,0,6
2,40,0,23
2,38,127,1
2,38,0,27
2,36,127,3
2,38,127,30
2,36,0,10
2,38,0,15
2,31,127,5
2,43,127,30
2,31,0,6
2,43,0,14
2,43,127,10
2,43,0,20
2,43,127,10
2,43,0,20
2,43,127,10
2,43,0,20
2,43,127,10
2,43,0,20
2,43,127,10
2,43,0,20
2,43,127,10
2,43,0,20
2,41,127,10
2,43,127,30
2,41,0,3
2,41,127,27
2,43,0,1
2,43,127,29
2,41,0,1
2,45,127,29
2,43,0,6
2,45,0,23
2,43,127,1
2,43,0,27
2,41,127,3
2,43,127,30
2,41,0,10
2,43,0,15
2,31,127,5
2,43,127,30
2,31,0,6
2,43,0,14
2,43,127,10
2,43,0,20
2,43,127,10
2,43,0,20
2,43,127,10
2,43,0,20
2,43,127,10
2,43,0,20
2,43,127,10
2,43,0,20
2,43,127,10
2,43,0,20
2,31,127,10
2,31,0,30
2,43,127,0
2,43,0,30
2,43,127,0
2,43,0,20
2,43,127,10
2,43,0,20
