track,note,velocity,time
2,81,79,172
2,81,0,24
2,83,79,0
2,83,0,0
2,83,79,0
2,83,0,24
2,81,79,0
2,81,0,48
2,81,63,0
2,81,0,64
2,79,47,0
2,79,0,112
2,74,79,48
2,74,0,24
2,76,79,0
2,76,0,48
2,79,79,0
2,79,0,16
2,76,79,0
2,76,0,24
2,70,79,0
2,74,79,0
2,74,0,16
2,70,0,8
2,71,79,0
2,71,0,32
2,67,79,16
2,67,0,64
2,86,79,32
2,86,0,24
2,84,79,0
2,84,0,16
2,82,79,8
2,82,0,24
2,83,79,0
2,83,0,16
2,79,79,0
2,79,0,24
2,79,79,24
2,79,0,16
2,76,79,0
2,76,0,96
2,76,79,0
2,76,0,16
2,76,79,0
2,76,0,16
2,78,79,8
2,78,0,24
2,77,79,0
2,77,0,22
2,77,79,40
2,77,0,22
2,75,79,10
2,75,0,24
2,76,79,0
2,76,0,32
2,72,79,16
2,72,0,16
2,67,79,0
2,67,0,160
2,74,79,0
2,74,0,24
2,76,79,0
2,76,0,32
2,79,79,16
2,76,79,12
2,79,0,4
2,76,0,8
2,78,79,0
2,78,0,48
2,74,79,24
2,74,0,16
2,69,79,0
2,69,0,8
2,71,79,64
2,71,0,24
2,69,79,0
2,69,0,24
2,67,79,0
2,67,0,32
2,79,79,0
2,79,0,16
2,64,79,0
2,57,79,0
2,69,79,0
2,57,0,72
2,64,0,0
2,69,0,0
2,67,79,0
2,60,79,0
2,72,79,0
2,60,0,16
2,67,0,0
2,72,0,0
2,72,79,0
2,67,79,0
2,60,79,0
2,76,79,0
2,67,0,48
2,72,0,0
2,76,0,0
2,60,0,24
2,74,79,0
2,69,79,0
2,62,79,0
2,78,79,0
2,62,0,64
2,69,0,0
2,74,0,0
2,78,0,0
2,74,79,24
2,74,0,16
2,73,79,8
2,73,0,16
2,72,79,0
2,72,0,64
2,70,79,0
2,70,0,24
2,69,79,0
2,69,0,24
2,67,79,0
2,67,0,32
2,79,79,0
2,79,0,72
2,79,79,0
2,79,0,16
2,74,79,480
2,74,0,16
2,76,79,8
2,76,0,96
2,74,79,0
2,74,0,16
2,71,79,8
2,77,79,24
2,71,0,8
2,77,0,16
2,79,79,0
2,79,0,190
2,71,79,192
2,71,0,24
2,69,79,0
2,69,0,16
2,67,79,8
2,67,0,16
2,69,79,8
2,69,0,24
2,71,79,0
2,71,0,136
2,67,79,0
2,72,47,0
2,76,47,0
2,72,0,124
2,76,0,0
2,67,0,2
2,66,79,0
2,66,0,24
2,67,79,0
2,67,0,32
2,72,79,16
2,72,0,80
2,67,79,16
2,67,0,24
2,69,79,0
2,69,0,16
2,74,79,8
2,78,47,0
2,74,0,190
2,78,0,0
2,52,79,146
2,52,0,24
2,54,79,0
2,54,0,16
2,55,79,8
2,55,0,96
2,64,79,48
2,64,0,24
2,67,79,0
2,67,0,16
2,72,79,0
2,76,47,0
2,72,0,96
2,76,0,0
2,67,79,0
2,67,0,24
2,69,79,0
2,69,0,16
2,74,79,8
2,78,79,0
2,74,0,96
2,78,0,0
2,74,79,48
2,74,0,16
2,73,79,8
2,73,0,16
2,72,79,0
2,72,0,64
2,69,79,0
2,69,0,24
2,71,79,0
2,71,0,24
2,69,79,0
2,69,0,24
2,67,79,0
2,67,0,32
2,79,79,0
2,79,0,16
2,76,79,408
2,76,0,24
2,76,79,0
2,76,0,32
2,79,79,0
2,79,0,16
2,76,79,0
2,76,0,48
2,70,79,0
2,70,0,24
2,71,79,0
2,71,0,24
2,69,79,0
2,69,0,24
2,67,79,0
2,67,0,32
2,67,79,16
2,67,0,254
2,69,79,202
2,69,0,24
2,70,79,0
2,70,0,16
2,69,79,16
2,69,0,32
2,67,79,0
2,67,0,22
2,69,79,10
2,69,0,24
2,71,79,0
2,71,0,136
2,72,47,0
2,67,79,0
2,76,47,0
2,67,0,102
2,72,0,0
2,76,0,0
2,66,79,42
2,66,0,24
2,67,79,0
2,67,0,32
2,72,79,16
2,72,0,16
2,67,79,8
2,67,0,16
2,72,79,8
2,72,0,32
2,67,79,16
2,67,0,24
2,69,79,0
2,69,0,16
2,74,79,0
2,78,47,0
2,74,0,190
2,78,0,0
2,65,79,216
2,65,0,24
2,67,79,0
2,67,0,16
2,72,63,0
2,67,63,0
2,76,63,0
2,67,0,64
2,72,0,0
2,76,0,0
2,72,79,0
2,72,0,8
2,71,79,16
2,71,0,10
2,69,79,6
2,69,0,10
2,67,79,6
2,67,0,10
2,79,79,0
2,79,0,64
2,79,79,0
2,79,0,8
2,78,79,16
2,78,0,32
2,77,79,0
2,77,0,64
2,77,79,0
2,77,0,8
2,64,79,16
2,69,79,0
2,64,0,24
2,69,0,0
2,67,79,0
2,72,79,0
2,67,0,16
2,72,0,0
2,72,79,0
2,67,79,0
2,76,79,0
2,67,0,230
2,72,0,0
2,76,0,0
2,71,79,130
2,66,79,0
2,75,79,0
2,66,0,288
2,71,0,0
2,75,0,0
2,75,79,72
2,75,0,24
2,76,79,0
2,76,0,254
2,64,79,120
2,64,0,24
2,67,79,0
2,72,79,0
2,67,0,16
2,72,0,0
2,67,79,0
2,72,79,0
2,67,0,64
2,72,0,0
2,66,79,0
2,71,79,0
2,66,0,48
2,71,0,0
2,64,79,0
2,69,79,0
2,64,0,16
2,69,0,0
2,69,79,0
2,64,79,0
2,73,79,0
2,64,0,64
2,69,0,0
2,73,0,0
2,72,47,0
2,67,79,0
2,76,47,0
2,67,0,128
2,72,0,0
2,76,0,0
2,73,79,0
2,73,0,12
2,74,79,0
2,74,0,16
2,72,79,8
2,72,0,16
2,72,79,8
2,76,47,0
2,72,0,48
2,76,0,0
2,69,79,36
2,69,0,12
2,70,79,0
2,70,0,24
2,69,79,0
2,69,0,24
2,67,79,0
2,67,0,32
2,79,79,0
2,79,0,126
2,74,79,264
2,74,0,24
2,76,79,0
2,76,0,48
2,74,79,0
2,74,0,24
2,76,79,0
2,76,0,64
2,71,79,0
2,71,0,12
2,69,79,0
2,69,0,24
2,67,79,0
2,67,0,32
2,67,79,16
2,67,0,126
2,77,79,498
2,77,0,16
2,79,79,0
2,79,0,64
2,64,79,152
2,64,0,24
2,67,79,0
2,67,0,32
2,72,79,16
2,72,0,16
2,67,79,8
2,67,0,16
2,72,79,8
2,72,0,32
2,67,79,16
2,67,0,24
2,69,79,0
2,69,0,16
2,74,79,0
2,78,79,0
2,74,0,254
2,78,0,0
2,64,79,120
2,64,0,24
2,67,79,0
2,67,0,16
2,72,79,0
2,67,79,0
2,76,47,0
2,67,0,96
2,72,0,0
2,76,0,0
2,72,79,24
2,67,79,0
2,76,63,0
2,67,0,24
2,72,0,0
2,76,0,0
2,74,79,0
2,69,79,0
2,78,63,0
2,69,0,16
2,74,0,0
2,78,0,0
2,74,79,0
2,69,79,0
2,78,63,0
2,69,0,96
2,74,0,0
2,78,0,0
2,74,79,0
2,74,0,16
2,73,79,8
2,73,0,16
2,72,79,0
2,72,0,64
2,81,95,72
2,81,0,24
2,83,95,0
2,83,0,8
2,83,95,16
2,83,0,16
2,83,95,8
2,83,0,16
2,83,95,8
2,83,0,24
2,86,95,0
2,86,0,32
2,86,95,0
2,86,0,56
2,86,95,0
2,86,0,24
2,85,95,0
2,85,0,24
2,79,95,0
2,79,0,126
2,74,95,24
2,74,0,16
2,76,95,8
2,76,0,16
2,79,95,8
2,79,0,16
2,81,95,32
2,81,0,16
2,81,95,32
2,81,0,24
2,83,95,0
2,83,0,104
2,83,95,0
2,83,0,16
2,83,95,0
2,84,95,12
2,83,0,4
2,84,0,8
2,88,95,0
2,88,0,32
2,86,95,0
2,86,0,96
2,86,95,0
2,86,0,16
2,82,95,8
2,82,0,24
2,83,95,0
2,83,0,104
2,83,95,0
2,83,0,16
2,82,95,0
2,82,0,16
2,81,95,0
2,81,0,48
2,62,95,0
2,62,0,8
2,67,95,4
2,67,0,8
2,69,95,24
2,73,95,0
2,69,0,24
2,73,0,0
2,70,95,0
2,73,95,0
2,70,0,24
2,73,0,0
2,71,95,0
2,75,95,0
2,71,0,24
2,75,0,0
2,72,95,0
2,76,95,0
2,72,0,16
2,76,0,0
2,79,95,8
2,79,0,16
2,72,95,8
2,76,95,0
2,72,0,24
2,76,0,0
2,71,95,0
2,75,95,0
2,71,0,24
2,75,0,0
2,72,95,0
2,76,95,0
2,72,0,160
2,76,0,0
2,76,95,0
2,76,0,24
2,77,95,0
2,77,0,24
2,77,95,0
2,77,0,24
2,78,95,0
2,78,0,16
2,81,95,8
2,81,0,16
2,78,95,8
2,78,0,24
2,77,95,0
2,77,0,16
2,74,95,0
2,74,0,16
2,70,95,0
2,74,95,0
2,70,0,24
2,74,0,0
2,69,95,0
2,73,95,0
2,69,0,16
2,73,0,0
2,67,95,8
2,71,95,0
2,67,0,16
2,71,0,0
2,69,95,8
2,69,0,16
2,67,95,8
2,67,0,16
2,62,95,8
2,62,0,32
2,67,95,16
2,67,0,32
2,77,95,4
2,77,0,12
2,79,95,0
2,79,0,64
2,74,79,8
2,74,0,16
2,77,95,8
2,77,0,24
2,77,95,0
2,77,0,24
2,74,95,0
2,74,0,24
2,73,95,0
2,73,0,16
2,70,95,8
2,70,0,24
2,71,95,0
2,71,0,16
2,71,95,8
2,71,0,16
2,55,95,8
2,55,0,16
2,59,95,8
2,59,0,16
2,55,95,8
2,62,95,0
2,65,79,12
2,55,0,4
2,62,0,0
2,65,0,8
2,67,95,0
2,67,0,28
2,66,95,0
2,66,0,16
2,62,95,0
2,62,0,16
2,66,95,8
2,66,0,16
2,62,95,8
2,62,0,16
2,58,95,8
2,58,0,12
2,59,95,0
2,59,0,8
2,55,95,4
2,55,0,16
2,62,95,8
2,55,95,0
2,67,95,0
2,74,95,24
2,70,95,0
2,77,95,0
2,55,0,8
2,62,0,0
2,67,0,0
2,70,0,4
2,74,0,0
2,77,0,0
2,76,95,12
2,72,95,0
2,79,95,0
2,72,0,20
2,76,0,0
2,79,0,0
2,79,95,0
2,79,0,32
2,71,95,0
2,67,95,0
2,74,95,0
2,67,0,16
2,71,0,0
2,74,0,0
2,74,95,0
2,70,95,0
2,66,95,0
2,77,95,0
2,66,0,8
2,70,0,4
2,74,0,0
2,77,0,0
2,76,95,0
2,72,95,0
2,67,95,0
2,79,95,0
2,67,0,8
2,72,0,0
2,76,0,0
2,79,0,0
2,76,63,0
2,72,79,0
2,67,79,0
2,79,47,0
2,67,0,254
2,72,0,0
2,76,0,0
2,79,0,0
2,71,79,0
2,66,79,0
2,75,79,0
2,78,63,0
2,66,0,96
2,71,0,0
2,75,0,0
2,78,0,0
2,71,79,0
2,66,79,0
2,75,79,0
2,66,0,8
2,71,0,0
2,75,0,0
2,71,79,16
2,71,0,16
2,66,79,8
2,66,0,16
2,71,79,8
2,71,0,64
2,71,79,8
2,71,0,16
2,76,79,0
2,76,0,124
2,64,79,312
2,69,63,0
2,64,0,24
2,69,0,0
2,67,79,0
2,72,79,0
2,67,0,16
2,72,0,0
2,67,79,0
2,72,79,0
2,67,0,64
2,72,0,0
2,66,79,0
2,71,79,0
2,66,0,48
2,71,0,0
2,64,79,0
2,69,79,0
2,64,0,16
2,69,0,0
2,69,79,0
2,64,79,0
2,73,63,0
2,64,0,126
2,69,0,0
2,73,0,0
2,66,79,696
2,66,0,24
2,69,79,0
2,69,0,16
2,74,79,8
2,74,0,48
2,62,79,24
2,69,79,12
2,62,0,4
2,69,0,8
2,71,79,0
2,71,0,24
2,69,79,0
2,69,0,16
2,67,79,8
2,67,0,32
2,79,79,0
2,79,0,126
2,76,79,24
2,76,0,16
2,79,79,0
2,79,0,16
2,76,79,0
2,76,0,48
2,69,79,36
2,69,0,12
2,71,79,0
2,71,0,12
2,69,79,0
2,69,0,24
2,67,79,0
2,67,0,32
2,79,79,0
2,79,0,124
2,83,79,288
2,83,0,24
2,86,79,0
2,86,0,32
2,85,79,16
2,85,0,24
2,85,79,0
2,85,0,16
2,82,79,8
2,82,0,24
2,83,79,0
2,83,0,16
2,79,79,0
2,79,0,48
2,64,79,0
2,64,0,24
2,67,79,0
2,67,0,16
2,72,63,8
2,67,79,0
2,76,47,0
2,67,0,288
2,72,0,0
2,76,0,0
2,67,79,48
2,72,63,0
2,67,0,24
2,72,0,0
2,69,79,0
2,74,63,0
2,69,0,16
2,74,0,0
2,74,79,8
2,69,79,0
2,78,63,0
2,69,0,190
2,74,0,0
2,78,0,0
2,74,79,98
2,69,79,0
2,78,63,0
2,69,0,48
2,74,0,0
2,78,0,0
2,62,79,0
2,67,79,0
2,62,0,16
2,67,0,0
2,67,63,8
2,67,0,16
2,65,63,8
2,69,63,0
2,72,63,0
2,65,0,32
2,69,0,0
2,72,0,0
2,65,63,16
2,69,63,0
2,72,63,0
2,74,63,0
2,65,0,16
2,69,0,0
2,72,0,0
2,74,0,0
2,65,63,8
2,69,63,0
2,72,63,0
2,74,63,0
2,65,0,16
2,69,0,0
2,72,0,0
2,74,0,0
2,65,63,8
2,72,63,0
2,69,63,0
2,74,63,0
2,65,0,32
2,69,0,0
2,72,0,0
2,74,0,0
2,72,63,16
2,69,63,0
2,65,63,0
2,74,63,0
2,65,0,16
2,69,0,0
2,72,0,0
2,74,0,0
2,65,63,8
2,69,63,0
2,72,63,0
2,74,63,0
2,65,0,16
2,69,0,0
2,72,0,0
2,74,0,0
2,65,63,8
2,72,63,0
2,69,63,0
2,74,63,0
2,65,0,32
2,69,0,0
2,72,0,0
2,74,0,0
2,72,63,16
2,69,63,0
2,65,63,0
2,74,63,0
2,65,0,16
2,69,0,0
2,72,0,0
2,74,0,0
2,72,63,8
2,69,63,0
2,65,63,0
2,74,63,0
2,65,0,16
2,69,0,0
2,72,0,0
2,74,0,0
2,65,63,8
2,72,63,0
2,69,63,0
2,74,63,0
2,65,0,32
2,69,0,0
2,72,0,0
2,74,0,0
2,72,63,16
2,69,63,0
2,65,63,0
2,74,63,0
2,65,0,16
2,69,0,0
2,72,0,0
2,74,0,0
2,71,63,8
2,67,63,0
2,74,63,0
2,67,0,16
2,71,0,0
2,74,0,0
2,72,63,8
2,67,63,0
2,64,63,0
2,74,63,0
2,64,0,32
2,67,0,0
2,72,0,0
2,74,0,0
2,72,63,16
2,67,63,0
2,64,63,0
2,74,63,0
2,64,0,16
2,67,0,0
2,72,0,0
2,74,0,0
2,72,63,8
2,67,63,0
2,64,63,0
2,74,63,0
2,64,0,16
2,67,0,0
2,72,0,0
2,74,0,0
2,72,63,8
2,67,63,0
2,64,63,0
2,74,63,0
2,64,0,32
2,67,0,0
2,72,0,0
2,74,0,0
2,72,63,16
2,67,63,0
2,64,63,0
2,74,63,0
2,64,0,16
2,67,0,0
2,72,0,0
2,74,0,0
2,72,63,8
2,67,63,0
2,64,63,0
2,74,63,0
2,64,0,16
2,67,0,0
2,72,0,0
2,74,0,0
2,72,79,8
2,67,79,0
2,64,79,0
2,74,79,0
2,64,0,16
2,67,0,0
2,72,0,0
2,74,0,0
2,65,79,80
2,72,79,0
2,69,79,0
2,74,79,0
2,65,0,32
2,69,0,0
2,72,0,0
2,74,0,0
2,65,63,16
2,72,63,0
2,69,63,0
2,74,63,0
2,65,0,16
2,69,0,0
2,72,0,0
2,74,0,0
2,62,63,8
2,67,63,0
2,71,63,0
2,74,63,0
2,62,0,16
2,67,0,0
2,71,0,0
2,74,0,0
2,71,63,8
2,67,63,0
2,62,63,0
2,74,63,0
2,62,0,64
2,67,0,0
2,71,0,0
2,74,0,0
2,71,63,32
2,67,63,0
2,62,63,0
2,74,63,0
2,62,0,32
2,67,0,0
2,71,0,0
2,74,0,0
2,71,63,16
2,67,63,0
2,62,63,0
2,74,63,0
2,62,0,16
2,67,0,0
2,71,0,0
2,74,0,0
2,71,63,8
2,67,63,0
2,64,63,0
2,74,63,0
2,64,0,16
2,67,0,0
2,71,0,0
2,74,0,0
2,72,63,8
2,69,63,0
2,65,63,0
2,74,63,0
2,65,0,32
2,69,0,0
2,72,0,0
2,74,0,0
