track,note,velocity,time
2,38,79,1
2,38,73,26
2,36,69,13
2,38,89,5
2,45,85,71
2,44,93,72
2,43,89,74
2,38,75,76
2,41,79,7
2,38,79,9
2,38,101,54
2,38,75,22
2,36,75,10
2,38,81,48
2,45,89,75
2,44,85,69
2,43,77,76
2,38,71,81
2,41,81,2
2,43,75,9
2,38,85,6
2,38,71,23
2,36,79,48
2,38,79,3
2,45,93,59
2,44,97,68
2,43,89,75
2,38,73,77
2,41,85,48
2,38,79,2
2,38,110,51
2,38,71,23
2,36,73,48
2,38,79,5
2,45,93,58
2,44,85,69
2,43,85,74
2,38,77,74
2,41,85,0
2,38,105,5
2,38,77,26
2,36,81,1
2,38,89,7
2,45,89,63
2,44,81,71
2,43,89,75
2,38,73,77
2,41,79,1
2,38,77,0
2,38,93,53
2,38,79,24
2,36,77,48
2,38,79,7
2,45,81,48
2,44,85,68
2,43,79,69
2,38,79,73
2,41,85,4
2,38,93,21
2,38,79,29
2,36,77,4
2,38,93,2
2,33,81,64
2,32,89,61
2,31,79,61
2,38,79,49
2,41,85,4
2,38,93,15
2,38,101,53
2,38,65,23
2,36,75,4
2,38,77,48
2,45,93,62
2,44,89,65
2,43,75,71
2,38,75,71
2,41,75,48
2,38,77,26
2,38,85,22
2,36,71,9
2,38,79,10
2,33,79,54
2,32,97,58
2,31,79,56
2,38,77,50
2,41,85,10
2,38,89,4
2,38,89,43
2,38,75,24
2,36,71,10
2,38,85,0
2,33,85,48
2,32,40,45
2,31,85,66
2,26,79,55
2,29,85,11
2,43,93,29
2,43,79,29
2,41,77,9
2,43,81,48
2,50,85,76
2,49,93,69
2,48,73,73
2,43,85,76
2,46,101,8
2,43,77,14
2,43,101,30
2,43,77,22
2,41,67,8
2,43,93,1
2,38,77,70
2,37,105,59
2,36,89,64
2,31,73,68
2,34,110,48
2,36,79,7
2,38,101,6
2,38,75,24
2,36,85,4
2,38,93,10
2,45,93,76
2,44,81,71
2,43,79,74
2,38,79,74
2,41,81,2
2,38,79,6
2,38,105,52
2,38,79,25
2,36,73,12
2,38,93,4
2,45,89,70
2,44,105,73
2,43,89,78
2,38,75,76
2,41,77,48
2,38,79,17
2,33,105,47
2,33,81,10
2,33,101,18
2,36,110,255
2,31,101,3
2,33,101,31
2,33,85,11
2,33,105,14
2,36,110,253
2,31,79,3
2,33,105,27
2,33,79,8
2,33,105,14
2,36,115,249
2,31,101,11
2,33,89,25
2,33,59,19
2,33,52,23
2,33,63,17
2,33,52,23
2,33,73,17
2,33,77,32
2,33,89,13
2,33,93,16
2,33,89,9
2,33,93,21
2,33,89,11
2,33,97,15
2,33,89,12
2,36,81,4
2,37,97,9
2,38,97,3
2,38,85,21
2,36,75,8
2,38,79,11
2,45,85,76
2,44,93,74
2,43,75,77
2,38,77,77
2,41,89,12
2,38,73,10
2,38,89,30
2,38,77,25
2,36,77,4
2,38,79,11
2,45,89,56
2,44,77,65
2,41,77,46
2,43,89,4
2,45,77,4
2,48,71,4
2,50,79,0
2,53,81,4
2,55,79,4
2,53,93,4
2,50,85,96
2,38,115,13
2,38,77,25
2,36,81,14
2,38,81,7
2,33,81,71
2,32,105,69
2,31,101,65
2,38,89,69
2,41,97,11
2,38,97,25
2,38,81,44
2,38,85,23
2,36,81,10
2,38,89,7
2,45,89,59
2,44,89,74
2,43,89,79
2,41,93,73
2,43,71,11
2,41,85,24
2,38,71,7
2,36,79,7
2,33,79,8
2,31,81,6
2,29,81,3
2,26,81,5
2,26,79,24
2,24,93,5
2,26,81,10
2,33,101,72
2,32,105,66
2,31,89,60
2,26,77,62
2,29,101,9
2,26,77,9
2,38,93,52
2,38,89,26
2,36,79,7
2,38,79,3
2,33,93,61
2,32,105,54
2,31,85,63
2,26,75,64
2,29,97,4
2,38,79,1
2,38,79,26
2,36,97,1
2,38,85,10
2,33,93,64
2,32,101,68
2,31,93,61
2,26,77,73
2,29,93,3
2,26,71,17
2,38,93,34
2,38,85,25
2,36,69,8
2,38,77,6
2,45,89,65
2,44,97,69
2,43,81,68
2,38,79,74
2,41,77,48
2,31,101,15
2,31,77,25
2,29,85,10
2,31,93,11
2,38,93,60
2,37,105,64
2,36,81,68
2,31,81,73
2,34,105,48
2,31,81,9
2,31,101,49
2,31,73,21
2,29,79,8
2,31,97,11
2,38,93,64
2,37,89,65
2,36,81,66
2,31,77,66
2,36,105,10
2,34,89,7
2,38,89,13
2,38,79,17
2,36,77,12
2,38,85,13
2,33,79,65
2,32,101,57
2,31,89,58
2,38,75,73
2,41,101,16
2,38,93,5
2,38,110,43
2,38,79,22
2,36,77,8
2,38,79,4
2,33,81,61
2,32,101,59
2,31,89,59
2,26,85,75
2,29,101,14
2,31,67,42
2,32,79,9
2,33,101,11
2,33,67,14
2,33,101,17
2,36,110,252
2,31,101,12
2,33,105,34
2,33,77,14
2,33,101,18
2,36,115,254
2,31,101,12
2,33,101,23
2,33,75,19
2,33,101,9
2,36,110,255
2,31,97,192
2,33,65,41
2,33,47,16
2,33,50,19
2,33,50,15
2,33,53,29
2,33,67,14
2,33,67,28
2,33,71,15
2,33,89,22
2,33,81,14
2,33,97,26
2,33,97,21
2,33,93,24
2,33,97,14
2,36,81,12
2,37,81,21
2,38,79,3
2,38,105,16
2,38,77,21
2,36,79,10
2,38,85,7
2,45,89,70
2,44,105,69
2,43,97,76
2,38,79,78
2,41,89,16
2,38,81,0
2,38,110,52
2,38,77,18
2,36,89,7
2,38,97,10
2,45,93,72
2,44,105,64
2,43,89,76
2,36,93,74
2,38,97,4
2,41,93,4
2,43,89,4
2,41,120,24
2,38,115,4
2,38,101,4
2,38,71,19
2,36,71,7
2,38,89,11
2,45,93,67
2,44,79,71
2,43,81,77
2,38,75,71
2,41,81,10
2,38,77,3
2,38,89,33
2,38,52,25
2,36,75,5
2,38,81,8
2,45,89,68
2,44,97,73
2,43,79,75
2,38,77,78
2,41,89,14
2,43,93,24
2,31,97,33
2,31,73,26
2,29,85,29
2,31,79,11
2,38,97,48
2,37,101,63
2,36,97,68
2,31,79,67
2,34,101,25
2,31,89,3
2,31,101,39
2,31,77,22
2,29,89,48
2,31,79,17
2,38,97,60
2,37,101,73
2,36,81,70
2,31,77,74
2,36,105,30
2,34,79,22
2,38,81,24
2,38,52,17
2,36,79,7
2,38,89,38
2,45,85,71
2,44,97,74
2,43,93,73
2,38,81,79
2,41,81,6
2,38,89,8
2,38,79,48
2,38,75,28
2,36,77,12
2,38,81,6
2,45,93,55
2,44,101,71
2,43,81,76
2,38,77,80
2,41,79,6
2,38,89,11
2,33,105,52
2,33,89,21
2,33,105,17
2,36,105,260
2,31,93,5
2,33,101,35
2,33,89,21
2,33,101,19
2,36,105,252
2,31,101,12
2,33,97,43
2,33,101,12
2,33,101,17
2,36,110,256
2,31,97,17
2,33,79,46
2,33,77,25
2,33,77,20
2,33,81,21
2,33,79,34
2,33,79,15
2,33,97,27
2,33,69,25
2,45,79,7
2,45,97,20
2,45,97,20
2,45,93,21
2,45,105,22
2,33,79,11
2,36,81,7
2,37,79,14
2,38,105,14
2,38,73,26
2,36,81,10
2,38,93,7
2,33,93,72
2,32,97,69
2,31,79,64
2,26,75,73
2,29,97,13
2,26,85,7
2,38,77,38
2,38,93,18
2,36,110,7
2,38,89,3
2,33,97,71
2,32,105,71
2,31,85,63
2,26,85,74
2,29,101,13
2,29,97,2
2,38,93,1
2,38,97,23
2,36,101,11
2,38,89,11
2,45,89,75
2,44,93,73
2,43,81,73
2,38,85,73
2,41,93,17
2,38,93,1
2,38,89,44
2,38,77,25
2,36,71,5
2,38,77,3
2,45,77,69
2,44,73,70
2,43,73,75
2,45,81,4
2,48,79,4
2,50,81,4
2,53,77,4
2,55,81,4
2,55,93,4
2,53,75,21
2,50,79,4
2,48,77,4
2,45,73,4
2,43,85,4
2,38,89,4
2,38,93,27
2,36,75,10
2,38,79,10
2,33,81,75
2,32,110,66
2,31,101,66
2,26,75,69
2,29,97,9
2,26,79,10
2,38,81,61
2,38,85,23
2,36,97,8
2,38,93,10
2,33,93,70
2,32,105,70
2,31,81,66
2,29,77,58
2,41,97,18
2,38,89,4
2,38,105,46
2,38,77,23
2,36,67,8
2,38,89,4
2,33,93,73
2,32,101,54
2,31,81,64
2,26,69,67
2,29,93,6
2,26,85,20
2,38,89,55
2,38,81,20
2,36,93,4
2,38,89,8
2,33,89,64
2,32,101,64
2,31,77,61
2,26,81,66
2,29,101,16
2,26,79,9
2,31,101,64
2,31,77,22
2,29,77,9
2,31,101,9
2,38,93,70
2,37,97,69
2,36,89,71
2,31,81,74
2,34,97,18
2,31,93,8
2,31,97,50
2,31,89,22
2,29,81,8
2,31,93,8
2,38,97,71
2,37,101,71
2,36,85,74
2,31,85,73
2,34,93,3
2,31,93,4
2,38,110,49
2,38,71,23
2,36,77,8
2,38,79,14
2,45,97,71
2,44,101,75
2,43,85,74
2,38,69,74
2,41,85,48
2,38,81,4
2,38,105,52
2,38,71,21
2,36,89,10
2,38,81,48
2,45,89,76
2,44,89,78
2,43,89,77
2,38,79,75
2,41,81,48
2,38,93,7
2,33,105,64
2,33,79,24
2,33,101,18
2,36,97,259
2,31,101,2
2,33,105,32
2,33,77,23
2,33,93,17
2,36,97,250
2,31,97,7
2,33,105,30
2,33,85,15
2,33,97,18
2,33,79,207
2,35,89,4
2,36,93,7
2,31,101,8
2,33,101,24
2,33,89,30
2,33,97,15
2,36,101,254
2,31,79,2
2,33,85,10
2,33,81,32
2,43,71,4
2,42,65,4
2,43,79,4
2,33,67,4
2,33,81,4
2,33,71,4
2,33,77,4
2,33,77,4
2,31,89,4
2,32,79,0
2,33,77,4
2,30,66,4
2,33,77,4
2,30,67,4
2,33,64,4
2,42,65,1
2,40,81,4
2,42,57,4
2,33,67,4
2,37,73,48
2,40,77,2
2,42,67,2
2,43,77,1
2,42,65,4
2,40,79,0
2,37,59,4
2,33,71,4
2,30,66,4
2,33,75,4
2,30,73,48
2,33,75,4
2,40,79,4
2,40,79,4
2,42,65,4
2,33,69,4
2,37,67,48
2,40,71,3
2,42,71,48
2,43,77,2
2,42,69,4
2,40,71,4
2,37,65,2
2,33,75,4
2,31,73,48
2,33,75,4
2,33,79,4
2,42,65,48
2,40,77,34
2,42,67,4
2,33,81,4
2,37,75,48
2,40,75,4
2,42,79,48
2,43,79,4
2,42,59,4
2,40,77,4
2,33,85,4
2,33,77,4
2,30,66,4
2,33,81,4
2,30,65,4
2,33,71,4
2,30,59,4
2,42,81,4
2,40,77,4
2,42,69,4
2,33,65,4
2,30,75,4
2,33,79,4
2,30,73,4
2,33,79,3
2,33,64,4
2,42,79,4
2,40,77,4
2,30,79,4
2,33,73,4
2,30,73,4
2,33,77,4
2,30,77,4
2,33,81,4
2,33,72,4
2,42,73,24
2,40,77,4
2,42,75,4
2,33,79,4
2,30,67,4
2,33,79,4
2,30,73,4
2,33,79,4
2,33,67,4
2,42,69,2
2,40,77,2
2,37,67,4
2,33,73,4
2,30,72,4
2,33,75,4
2,30,77,48
2,33,66,4
2,33,35,4
2,42,77,0
2,40,77,43
2,42,63,0
2,33,79,4
2,37,75,4
2,40,71,4
2,42,69,4
2,43,77,4
2,42,59,4
2,40,71,2
2,42,67,48
2,40,77,4
2,33,75,4
2,30,69,4
2,33,77,4
2,30,77,3
2,33,75,2
2,33,67,4
2,42,67,24
2,40,63,4
2,42,69,4
2,43,59,4
2,42,65,4
2,40,67,24
2,33,67,4
2,40,77,4
2,37,67,2
2,33,63,4
2,31,67,4
2,37,69,4
2,33,79,1
2,31,75,4
2,28,69,4
2,31,81,4
2,33,79,4
2,38,79,4
2,38,73,26
2,36,69,13
2,38,89,5
2,45,85,71
2,44,93,72
2,43,89,74
2,38,75,76
2,41,79,7
2,31,79,9
2,38,92,4
3,50,127,2194
3,38,122,21
3,50,117,0
3,36,117,6
3,48,122,0
3,38,127,3
3,50,122,0
3,33,104,58
3,45,117,0
3,57,100,0
3,32,104,64
3,44,112,0
3,56,117,0
3,31,100,59
3,43,112,0
3,55,122,0
3,38,112,59
3,50,108,0
3,41,127,6
3,53,122,0
3,38,117,7
3,50,104,0
3,50,127,50
3,38,117,16
3,50,108,0
3,36,108,10
3,48,112,0
3,38,108,3
3,50,122,0
3,45,117,68
3,57,104,0
3,44,117,66
3,56,112,0
3,43,108,68
3,55,117,0
3,38,104,68
3,50,104,0
3,41,127,13
3,53,122,0
3,43,108,8
3,55,122,0
3,50,112,4
3,38,117,24
3,50,117,0
3,36,112,7
3,48,112,0
3,38,122,4
3,50,122,0
3,45,112,68
3,57,104,0
3,44,117,67
3,56,112,0
3,43,112,68
3,55,112,0
3,38,112,71
3,50,100,0
3,41,117,5
3,53,112,0
3,38,108,10
3,50,112,0
3,50,122,43
3,38,108,19
3,50,96,0
3,36,104,12
3,48,100,0
3,38,112,3
3,50,117,0
3,45,108,69
3,57,100,0
3,44,112,67
3,56,112,0
3,43,122,59
3,55,127,0
3,38,117,56
3,50,108,0
3,41,122,7
3,53,122,0
3,50,122,17
3,38,108,14
3,50,104,0
3,36,117,11
3,48,100,0
3,38,122,4
3,50,122,0
3,45,117,63
3,57,112,0
3,44,122,66
3,56,127,0
3,43,117,66
3,55,117,0
3,38,122,66
3,50,100,0
3,41,127,6
3,53,122,0
3,38,117,9
3,50,112,0
3,50,127,47
3,38,100,15
3,50,100,0
3,36,104,8
3,48,108,0
3,38,117,3
3,50,117,0
3,45,108,72
3,57,100,0
3,44,117,62
3,56,108,0
3,43,100,64
3,55,122,0
3,38,108,65
3,50,100,0
3,41,127,6
3,53,117,0
3,50,92,16
3,53,108,0
3,57,108,0
3,60,112,0
3,38,96,1
3,36,104,29
3,48,86,0
3,38,122,3
3,50,104,0
3,45,104,79
3,57,100,0
3,44,112,70
3,56,92,0
3,43,112,71
3,55,104,0
3,38,104,75
3,50,96,0
3,41,108,5
3,53,108,0
3,38,108,9
3,50,100,0
3,50,100,42
3,38,100,19
3,50,96,0
3,36,104,8
3,48,100,0
3,38,112,7
3,50,117,0
3,45,108,67
3,57,100,0
3,44,112,67
3,56,108,0
3,43,112,65
3,55,112,0
3,38,108,74
3,50,117,0
3,41,117,4
3,53,108,0
3,41,127,10
3,50,96,13
3,55,92,0
3,59,117,0
3,50,92,6
3,53,100,0
3,38,112,16
3,50,84,0
3,36,108,11
3,48,108,0
3,38,117,5
3,50,117,0
3,45,112,69
3,57,100,0
3,44,117,69
3,56,112,0
3,43,112,68
3,55,122,0
3,38,117,73
3,50,104,0
3,41,112,5
3,53,117,0
3,38,108,11
3,50,100,0
3,50,127,52
3,38,104,16
3,50,100,0
3,36,104,7
3,48,104,0
3,38,122,7
3,50,117,0
3,45,108,71
3,57,112,0
3,44,117,69
3,56,127,0
3,43,117,64
3,55,108,0
3,38,122,48
3,50,108,24
3,54,127,0
3,55,108,0
3,59,117,0
3,48,122,12
3,53,112,0
3,57,108,0
3,38,127,34
3,38,108,21
3,55,117,11
3,43,112,23
3,55,127,0
3,41,112,11
3,53,122,0
3,43,127,1
3,55,112,0
3,38,122,76
3,62,112,0
3,37,117,62
3,61,117,0
3,36,122,62
3,60,122,0
3,31,108,46
3,55,108,24
3,60,122,0
3,64,117,0
3,43,117,12
3,55,86,0
3,58,117,0
3,62,108,0
3,43,122,36
3,55,108,0
3,41,108,18
3,53,88,0
3,55,122,9
3,43,112,16
3,55,104,0
3,41,108,10
3,53,108,0
3,43,108,1
3,55,122,0
3,38,122,68
3,50,122,0
3,37,117,66
3,49,127,0
3,36,122,64
3,48,122,0
3,31,108,72
3,43,108,0
3,34,117,7
3,46,127,0
3,36,122,8
3,48,122,0
3,50,127,56
3,38,108,24
3,50,112,0
3,36,112,12
3,48,112,0
3,38,122,3
3,50,100,0
3,45,108,73
3,57,117,0
3,44,112,69
3,56,122,0
3,43,104,71
3,55,117,0
3,38,112,70
3,50,104,0
3,41,122,4
3,53,127,0
3,38,122,11
3,50,117,0
