track,note,velocity,time
1,38,79,4
1,38,73,104
1,36,69,52
1,38,89,20
1,45,85,284
1,44,93,288
1,43,89,296
1,38,75,304
1,41,79,28
1,38,79,36
1,38,101,216
1,38,75,88
1,36,75,40
1,38,81,192
1,45,89,300
1,44,85,276
1,43,77,304
1,38,71,324
1,41,81,8
1,43,75,36
1,38,85,24
1,38,71,92
1,36,79,192
1,38,79,12
1,45,93,236
1,44,97,272
1,43,89,300
1,38,73,308
1,41,85,192
1,38,79,8
1,38,110,204
1,38,71,92
1,36,73,192
1,38,79,20
1,45,93,232
1,44,85,276
1,43,85,296
1,38,77,296
1,41,85,0
1,38,105,20
1,38,77,104
1,36,81,4
1,38,89,28
1,45,89,252
1,44,81,284
1,43,89,300
1,38,73,308
1,41,79,4
1,38,77,0
1,38,93,212
1,38,79,96
1,36,77,192
1,38,79,28
1,45,81,192
1,44,85,272
1,43,79,276
1,38,79,292
1,41,85,16
1,38,93,84
1,38,79,116
1,36,77,16
1,38,93,8
1,33,81,256
1,32,89,244
1,31,79,244
1,38,79,196
1,41,85,16
1,38,93,60
1,38,101,212
1,38,65,92
1,36,75,16
1,38,77,192
1,45,93,248
1,44,89,260
1,43,75,284
1,38,75,284
1,41,75,192
1,38,77,104
1,38,85,88
1,36,71,36
1,38,79,40
1,33,79,216
1,32,97,232
1,31,79,224
1,38,77,200
1,41,85,40
1,38,89,16
1,38,89,172
1,38,75,96
1,36,71,40
1,38,85,0
1,33,85,192
1,32,40,180
1,31,85,264
1,26,79,220
1,29,85,44
1,43,93,116
1,43,79,116
1,41,77,36
1,43,81,192
1,50,85,304
1,49,93,276
1,48,73,292
1,43,85,304
1,46,101,32
1,43,77,56
1,43,101,120
1,43,77,88
1,41,67,32
1,43,93,4
1,38,77,280
1,37,105,236
1,36,89,256
1,31,73,272
1,34,110,192
1,36,79,28
1,38,101,24
1,38,75,96
1,36,85,16
1,38,93,40
1,45,93,304
1,44,81,284
1,43,79,296
1,38,79,296
1,41,81,8
1,38,79,24
1,38,105,208
1,38,79,100
1,36,73,48
1,38,93,16
1,45,89,280
1,44,105,292
1,43,89,312
1,38,75,304
1,41,77,192
1,38,79,68
1,33,105,188
1,33,81,40
1,33,101,72
1,36,110,1020
1,31,101,12
1,33,101,124
1,33,85,44
1,33,105,56
1,36,110,1012
1,31,79,12
1,33,105,108
1,33,79,32
1,33,105,56
1,36,115,996
1,31,101,44
1,33,89,100
1,33,59,76
1,33,52,92
1,33,63,68
1,33,52,92
1,33,73,68
1,33,77,128
1,33,89,52
1,33,93,64
1,33,89,36
1,33,93,84
1,33,89,44
1,33,97,60
1,33,89,48
1,36,81,16
1,37,97,36
1,38,97,12
1,38,85,84
1,36,75,32
1,38,79,44
1,45,85,304
1,44,93,296
1,43,75,308
1,38,77,308
1,41,89,48
1,38,73,40
1,38,89,120
1,38,77,100
1,36,77,16
1,38,79,44
1,45,89,224
1,44,77,260
1,41,77,184
1,43,89,16
1,45,77,16
1,48,71,16
1,50,79,0
1,53,81,16
1,55,79,16
1,53,93,16
1,50,85,384
1,38,115,52
1,38,77,100
1,36,81,56
1,38,81,28
1,33,81,284
1,32,105,276
1,31,101,260
1,38,89,276
1,41,97,44
1,38,97,100
1,38,81,176
1,38,85,92
1,36,81,40
1,38,89,28
1,45,89,236
1,44,89,296
1,43,89,316
1,41,93,292
1,43,71,44
1,41,85,96
1,38,71,28
1,36,79,28
1,33,79,32
1,31,81,24
1,29,81,12
1,26,81,20
1,26,79,96
1,24,93,20
1,26,81,40
1,33,101,288
1,32,105,264
1,31,89,240
1,26,77,248
1,29,101,36
1,26,77,36
1,38,93,208
1,38,89,104
1,36,79,28
1,38,79,12
1,33,93,244
1,32,105,216
1,31,85,252
1,26,75,256
1,29,97,16
1,38,79,4
1,38,79,104
1,36,97,4
1,38,85,40
1,33,93,256
1,32,101,272
1,31,93,244
1,26,77,292
1,29,93,12
1,26,71,68
1,38,93,136
1,38,85,100
1,36,69,32
1,38,77,24
1,45,89,260
1,44,97,276
1,43,81,272
1,38,79,296
1,41,77,192
1,31,101,60
1,31,77,100
1,29,85,40
1,31,93,44
1,38,93,240
1,37,105,256
1,36,81,272
1,31,81,292
1,34,105,192
1,31,81,36
1,31,101,196
1,31,73,84
1,29,79,32
1,31,97,44
1,38,93,256
1,37,89,260
1,36,81,264
1,31,77,264
1,36,105,40
1,34,89,28
1,38,89,52
1,38,79,68
1,36,77,48
1,38,85,52
1,33,79,260
1,32,101,228
1,31,89,232
1,38,75,292
1,41,101,64
1,38,93,20
1,38,110,172
1,38,79,88
1,36,77,32
1,38,79,16
1,33,81,244
1,32,101,236
1,31,89,236
1,26,85,300
1,29,101,56
1,31,67,168
1,32,79,36
1,33,101,44
1,33,67,56
1,33,101,68
1,36,110,1008
1,31,101,48
1,33,105,136
1,33,77,56
1,33,101,72
1,36,115,1016
1,31,101,48
1,33,101,92
1,33,75,76
1,33,101,36
1,36,110,1020
1,31,97,768
1,33,65,164
1,33,47,64
1,33,50,76
1,33,50,60
1,33,53,116
1,33,67,56
1,33,67,112
1,33,71,60
1,33,89,88
1,33,81,56
1,33,97,104
1,33,97,84
1,33,93,96
1,33,97,56
1,36,81,48
1,37,81,84
1,38,79,12
1,38,105,64
1,38,77,84
1,36,79,40
1,38,85,28
1,45,89,280
1,44,105,276
1,43,97,304
1,38,79,312
1,41,89,64
1,38,81,0
1,38,110,208
1,38,77,72
1,36,89,28
1,38,97,40
1,45,93,288
1,44,105,256
1,43,89,304
1,36,93,296
1,38,97,16
1,41,93,16
1,43,89,16
1,41,120,96
1,38,115,16
1,38,101,16
1,38,71,76
1,36,71,28
1,38,89,44
1,45,93,268
1,44,79,284
1,43,81,308
1,38,75,284
1,41,81,40
1,38,77,12
1,38,89,132
1,38,52,100
1,36,75,20
1,38,81,32
1,45,89,272
1,44,97,292
1,43,79,300
1,38,77,312
1,41,89,56
1,43,93,96
1,31,97,132
1,31,73,104
1,29,85,116
1,31,79,44
1,38,97,192
1,37,101,252
1,36,97,272
1,31,79,268
1,34,101,100
1,31,89,12
1,31,101,156
1,31,77,88
1,29,89,192
1,31,79,68
1,38,97,240
1,37,101,292
1,36,81,280
1,31,77,296
1,36,105,120
1,34,79,88
1,38,81,96
1,38,52,68
1,36,79,28
1,38,89,152
1,45,85,284
1,44,97,296
1,43,93,292
1,38,81,316
1,41,81,24
1,38,89,32
1,38,79,192
1,38,75,112
1,36,77,48
1,38,81,24
1,45,93,220
1,44,101,284
1,43,81,304
1,38,77,320
1,41,79,24
1,38,89,44
1,33,105,208
1,33,89,84
1,33,105,68
1,36,105,1040
1,31,93,20
1,33,101,140
1,33,89,84
1,33,101,76
1,36,105,1008
1,31,101,48
1,33,97,172
1,33,101,48
1,33,101,68
1,36,110,1024
1,31,97,68
1,33,79,184
1,33,77,100
1,33,77,80
1,33,81,84
1,33,79,136
1,33,79,60
1,33,97,108
1,33,69,100
1,45,79,28
1,45,97,80
1,45,97,80
1,45,93,84
1,45,105,88
1,33,79,44
1,36,81,28
1,37,79,56
1,38,105,56
1,38,73,104
1,36,81,40
1,38,93,28
1,33,93,288
1,32,97,276
1,31,79,256
1,26,75,292
1,29,97,52
1,26,85,28
1,38,77,152
1,38,93,72
1,36,110,28
1,38,89,12
1,33,97,284
1,32,105,284
1,31,85,252
1,26,85,296
1,29,101,52
1,29,97,8
1,38,93,4
1,38,97,92
1,36,101,44
1,38,89,44
1,45,89,300
1,44,93,292
1,43,81,292
1,38,85,292
1,41,93,68
1,38,93,4
1,38,89,176
1,38,77,100
1,36,71,20
1,38,77,12
1,45,77,276
1,44,73,280
1,43,73,300
1,45,81,16
1,48,79,16
1,50,81,16
1,53,77,16
1,55,81,16
1,55,93,16
1,53,75,84
1,50,79,16
1,48,77,16
1,45,73,16
1,43,85,16
1,38,89,16
1,38,93,108
1,36,75,40
1,38,79,40
1,33,81,300
1,32,110,264
1,31,101,264
1,26,75,276
1,29,97,36
1,26,79,40
1,38,81,244
1,38,85,92
1,36,97,32
1,38,93,40
1,33,93,280
1,32,105,280
1,31,81,264
1,29,77,232
1,41,97,72
1,38,89,16
1,38,105,184
1,38,77,92
1,36,67,32
1,38,89,16
1,33,93,292
1,32,101,216
1,31,81,256
1,26,69,268
1,29,93,24
1,26,85,80
1,38,89,220
1,38,81,80
1,36,93,16
1,38,89,32
1,33,89,256
1,32,101,256
1,31,77,244
1,26,81,264
1,29,101,64
1,26,79,36
1,31,101,256
1,31,77,88
1,29,77,36
1,31,101,36
1,38,93,280
1,37,97,276
1,36,89,284
1,31,81,296
1,34,97,72
1,31,93,32
1,31,97,200
1,31,89,88
1,29,81,32
1,31,93,32
1,38,97,284
1,37,101,284
1,36,85,296
1,31,85,292
1,34,93,12
1,31,93,16
1,38,110,196
1,38,71,92
1,36,77,32
1,38,79,56
1,45,97,284
1,44,101,300
1,43,85,296
1,38,69,296
1,41,85,192
1,38,81,16
1,38,105,208
1,38,71,84
1,36,89,40
1,38,81,192
1,45,89,304
1,44,89,312
1,43,89,308
1,38,79,300
1,41,81,192
1,38,93,28
1,33,105,256
1,33,79,96
1,33,101,72
1,36,97,1036
1,31,101,8
1,33,105,128
1,33,77,92
1,33,93,68
1,36,97,1000
1,31,97,28
1,33,105,120
1,33,85,60
1,33,97,72
1,33,79,828
1,35,89,16
1,36,93,28
1,31,101,32
1,33,101,96
1,33,89,120
1,33,97,60
1,36,101,1016
1,31,79,8
1,33,85,40
1,33,81,128
1,43,71,16
1,42,65,16
1,43,79,16
1,33,67,16
1,33,81,16
1,33,71,16
1,33,77,16
1,33,77,16
1,31,89,16
1,32,79,0
1,33,77,16
1,30,66,16
1,33,77,16
1,30,67,16
1,33,64,16
1,42,65,4
1,40,81,16
1,42,57,16
1,33,67,16
1,37,73,192
1,40,77,8
1,42,67,8
1,43,77,4
1,42,65,16
1,40,79,0
1,37,59,16
1,33,71,16
1,30,66,16
1,33,75,16
1,30,73,192
1,33,75,16
1,40,79,16
1,40,79,16
1,42,65,16
1,33,69,16
1,37,67,192
1,40,71,12
1,42,71,192
1,43,77,8
1,42,69,16
1,40,71,16
1,37,65,8
1,33,75,16
1,31,73,192
1,33,75,16
1,33,79,16
1,42,65,192
1,40,77,136
1,42,67,16
1,33,81,16
1,37,75,192
1,40,75,16
1,42,79,192
1,43,79,16
1,42,59,16
1,40,77,16
1,33,85,16
1,33,77,16
1,30,66,16
1,33,81,16
1,30,65,16
1,33,71,16
1,30,59,16
1,42,81,16
1,40,77,16
1,42,69,16
1,33,65,16
1,30,75,16
1,33,79,16
1,30,73,16
1,33,79,12
1,33,64,16
1,42,79,16
1,40,77,16
1,30,79,16
1,33,73,16
1,30,73,16
1,33,77,16
1,30,77,16
1,33,81,16
1,33,72,16
1,42,73,96
1,40,77,16
1,42,75,16
1,33,79,16
1,30,67,16
1,33,79,16
1,30,73,16
1,33,79,16
1,33,67,16
1,42,69,8
1,40,77,8
1,37,67,16
1,33,73,16
1,30,72,16
1,33,75,16
1,30,77,192
1,33,66,16
1,33,35,16
1,42,77,0
1,40,77,172
1,42,63,0
1,33,79,16
1,37,75,16
1,40,71,16
1,42,69,16
1,43,77,16
1,42,59,16
1,40,71,8
1,42,67,192
1,40,77,16
1,33,75,16
1,30,69,16
1,33,77,16
1,30,77,12
1,33,75,8
1,33,67,16
1,42,67,96
1,40,63,16
1,42,69,16
1,43,59,16
1,42,65,16
1,40,67,96
1,33,67,16
1,40,77,16
1,37,67,8
1,33,63,16
1,31,67,16
1,37,69,16
1,33,79,4
1,31,75,16
1,28,69,16
1,31,81,16
1,33,79,16
1,38,79,16
1,38,73,104
1,36,69,52
1,38,89,20
1,45,85,284
1,44,93,288
1,43,89,296
1,38,75,304
1,41,79,28
1,31,79,36
1,38,92,16
2,50,127,8776
2,38,122,84
2,50,117,0
2,36,117,24
2,48,122,0
2,38,127,12
2,50,122,0
2,33,104,232
2,45,117,0
2,57,100,0
2,32,104,256
2,44,112,0
2,56,117,0
2,31,100,236
2,43,112,0
2,55,122,0
2,38,112,236
2,50,108,0
2,41,127,24
2,53,122,0
2,38,117,28
2,50,104,0
2,50,127,200
2,38,117,64
2,50,108,0
2,36,108,40
2,48,112,0
2,38,108,12
2,50,122,0
2,45,117,272
2,57,104,0
2,44,117,264
2,56,112,0
2,43,108,272
2,55,117,0
2,38,104,272
2,50,104,0
2,41,127,52
2,53,122,0
2,43,108,32
2,55,122,0
2,50,112,16
2,38,117,96
2,50,117,0
2,36,112,28
2,48,112,0
2,38,122,16
2,50,122,0
2,45,112,272
2,57,104,0
2,44,117,268
2,56,112,0
2,43,112,272
2,55,112,0
2,38,112,284
2,50,100,0
2,41,117,20
2,53,112,0
2,38,108,40
2,50,112,0
2,50,122,172
2,38,108,76
2,50,96,0
2,36,104,48
2,48,100,0
2,38,112,12
2,50,117,0
2,45,108,276
2,57,100,0
2,44,112,268
2,56,112,0
2,43,122,236
2,55,127,0
2,38,117,224
2,50,108,0
2,41,122,28
2,53,122,0
2,50,122,68
2,38,108,56
2,50,104,0
2,36,117,44
2,48,100,0
2,38,122,16
2,50,122,0
2,45,117,252
2,57,112,0
2,44,122,264
2,56,127,0
2,43,117,264
2,55,117,0
2,38,122,264
2,50,100,0
2,41,127,24
2,53,122,0
2,38,117,36
2,50,112,0
2,50,127,188
2,38,100,60
2,50,100,0
2,36,104,32
2,48,108,0
2,38,117,12
2,50,117,0
2,45,108,288
2,57,100,0
2,44,117,248
2,56,108,0
2,43,100,256
2,55,122,0
2,38,108,260
2,50,100,0
2,41,127,24
2,53,117,0
2,50,92,64
2,53,108,0
2,57,108,0
2,60,112,0
2,38,96,4
2,36,104,116
2,48,86,0
2,38,122,12
2,50,104,0
2,45,104,316
2,57,100,0
2,44,112,280
2,56,92,0
2,43,112,284
2,55,104,0
2,38,104,300
2,50,96,0
2,41,108,20
2,53,108,0
2,38,108,36
2,50,100,0
2,50,100,168
2,38,100,76
2,50,96,0
2,36,104,32
2,48,100,0
2,38,112,28
2,50,117,0
2,45,108,268
2,57,100,0
2,44,112,268
2,56,108,0
2,43,112,260
2,55,112,0
2,38,108,296
2,50,117,0
2,41,117,16
2,53,108,0
2,41,127,40
2,50,96,52
2,55,92,0
2,59,117,0
2,50,92,24
2,53,100,0
2,38,112,64
2,50,84,0
2,36,108,44
2,48,108,0
2,38,117,20
2,50,117,0
2,45,112,276
2,57,100,0
2,44,117,276
2,56,112,0
2,43,112,272
2,55,122,0
2,38,117,292
2,50,104,0
2,41,112,20
2,53,117,0
2,38,108,44
2,50,100,0
2,50,127,208
2,38,104,64
2,50,100,0
2,36,104,28
2,48,104,0
2,38,122,28
2,50,117,0
2,45,108,284
2,57,112,0
2,44,117,276
2,56,127,0
2,43,117,256
2,55,108,0
2,38,122,192
2,50,108,96
2,54,127,0
2,55,108,0
2,59,117,0
2,48,122,48
2,53,112,0
2,57,108,0
2,38,127,136
2,38,108,84
2,55,117,44
2,43,112,92
2,55,127,0
2,41,112,44
2,53,122,0
2,43,127,4
2,55,112,0
2,38,122,304
2,62,112,0
2,37,117,248
2,61,117,0
2,36,122,248
2,60,122,0
2,31,108,184
2,55,108,96
2,60,122,0
2,64,117,0
2,43,117,48
2,55,86,0
2,58,117,0
2,62,108,0
2,43,122,144
2,55,108,0
2,41,108,72
2,53,88,0
2,55,122,36
2,43,112,64
2,55,104,0
2,41,108,40
2,53,108,0
2,43,108,4
2,55,122,0
2,38,122,272
2,50,122,0
2,37,117,264
2,49,127,0
2,36,122,256
2,48,122,0
2,31,108,288
2,43,108,0
2,34,117,28
2,46,127,0
2,36,122,32
2,48,122,0
2,50,127,224
2,38,108,96
2,50,112,0
2,36,112,48
2,48,112,0
2,38,122,12
2,50,100,0
2,45,108,292
2,57,117,0
2,44,112,276
2,56,122,0
2,43,104,284
2,55,117,0
2,38,112,280
2,50,104,0
2,41,122,16
2,53,127,0
2,38,122,44
2,50,117,0
