track,note,velocity,time
1,46,114,1148
1,56,86,68
1,42,99,0
1,36,100,0
1,70,121,0
1,88,76,4
1,56,85,56
1,59,81,0
1,56,85,0
1,47,112,0
1,42,89,0
1,70,113,0
1,59,86,4
1,56,88,0
1,42,108,0
1,37,108,0
1,68,99,0
1,73,106,0
1,80,69,0
1,70,113,0
1,57,87,12
1,61,82,0
1,57,111,0
1,42,86,0
1,81,40,0
1,70,116,0
1,54,92,16
1,49,111,0
1,42,93,0
1,36,93,0
1,70,116,0
1,52,80,48
1,42,88,0
1,70,116,0
1,59,101,44
1,42,114,0
1,37,110,0
1,73,106,0
1,68,104,0
1,70,113,0
1,55,88,0
1,59,92,0
1,62,94,0
1,55,92,0
1,50,102,0
1,59,114,0
1,42,82,0
1,70,108,0
1,42,92,28
1,36,88,0
1,70,111,0
1,42,80,16
1,70,112,0
1,64,109,12
1,42,106,0
1,37,110,0
1,68,104,0
1,73,104,0
1,80,47,0
1,70,111,0
1,42,85,0
1,81,50,0
1,70,111,0
1,59,78,0
1,42,99,24
1,36,84,0
1,70,113,0
1,57,74,0
1,42,87,0
1,70,123,0
1,55,62,0
1,57,69,12
1,70,115,4
1,59,80,0
1,42,103,0
1,37,112,0
1,73,98,0
1,68,99,0
1,70,118,0
1,46,92,0
1,70,103,0
1,55,69,0
1,52,94,0
1,55,74,0
1,42,99,0
1,36,100,0
1,70,107,0
1,62,91,0
1,59,90,0
1,52,82,0
1,58,120,0
1,50,100,0
1,59,100,0
1,42,89,0
1,70,107,0
1,59,89,0
1,62,87,0
1,42,108,0
1,37,112,0
1,68,99,0
1,73,98,0
1,80,58,0
1,70,112,0
1,57,78,0
1,61,75,0
1,50,92,0
1,59,95,0
1,42,86,0
1,81,59,0
1,70,112,0
1,54,82,32
1,49,102,0
1,57,117,0
1,42,93,0
1,36,93,0
1,70,102,0
1,54,82,0
1,42,88,0
1,70,106,0
1,61,85,16
1,57,85,0
1,59,99,0
1,50,98,0
1,42,114,0
1,37,114,0
1,68,99,0
1,73,95,0
1,70,106,0
1,56,75,4
1,59,79,0
1,52,81,0
1,52,86,0
1,47,115,0
1,56,114,0
1,42,82,0
1,70,103,0
1,42,92,16
1,36,88,0
1,70,102,0
1,42,80,4
1,70,98,0
1,42,106,152
1,37,110,0
1,73,98,0
1,68,98,0
1,80,51,0
1,70,108,0
1,42,85,68
1,81,55,0
1,70,111,0
1,80,82,120
1,68,80,8
1,44,85,16
1,42,99,0
1,36,84,0
1,70,111,0
1,83,74,4
1,71,76,16
1,47,90,0
1,42,87,0
1,70,119,0
1,70,107,0
1,73,83,28
1,85,70,0
1,49,90,8
1,42,103,0
1,37,117,0
1,73,99,0
1,68,95,0
1,70,102,0
1,76,87,4
1,52,87,8
1,46,87,0
1,70,108,0
1,88,50,0
1,52,79,0
1,52,89,0
1,47,114,0
1,42,99,0
1,36,100,0
1,70,101,0
1,56,127,0
1,42,89,0
1,70,102,0
1,56,78,0
1,59,87,0
1,59,127,0
1,42,108,0
1,37,112,0
1,68,99,0
1,73,106,0
1,80,53,0
1,70,107,0
1,57,80,8
1,61,86,0
1,57,127,0
1,42,86,0
1,81,54,0
1,70,106,0
1,54,82,20
1,42,93,0
1,36,93,0
1,70,106,0
1,52,78,0
1,57,127,0
1,42,88,0
1,70,102,0
1,57,90,4
1,62,127,0
1,62,127,0
1,42,114,0
1,37,112,0
1,73,106,0
1,68,104,0
1,70,102,0
1,62,94,7
1,59,94,4
1,62,91,0
1,55,88,0
1,55,86,0
1,59,108,0
1,50,103,0
1,59,127,0
1,42,82,0
1,70,99,0
1,42,92,16
1,36,88,0
1,70,100,0
1,42,80,28
1,70,101,0
1,42,106,20
1,37,117,0
1,68,104,0
1,73,104,0
1,80,53,0
1,70,108,0
1,76,121,4
1,42,85,0
1,81,63,0
1,70,101,0
1,42,99,4
1,36,84,0
1,70,105,0
1,42,87,16
1,70,115,0
1,64,112,12
1,70,103,0
1,42,103,0
1,37,114,0
1,73,98,0
1,68,99,0
1,70,108,0
1,47,94,4
1,46,82,0
1,70,99,0
1,49,75,0
1,55,77,0
1,52,89,0
1,42,99,0
1,36,100,0
1,70,99,0
1,52,85,4
1,59,99,0
1,50,95,0
1,59,127,0
1,42,89,0
1,70,96,0
1,59,79,0
1,62,87,0
1,42,108,0
1,37,114,0
1,68,99,0
1,73,98,0
1,80,53,0
1,70,98,0
1,61,88,84
1,57,85,0
1,57,122,0
1,50,86,0
1,59,102,0
1,42,86,0
1,81,63,0
1,70,96,0
1,55,117,4
1,54,79,8
1,57,127,0
1,49,84,0
1,57,108,0
1,42,93,0
1,36,93,0
1,70,99,0
1,55,127,48
1,42,88,0
1,70,100,0
1,57,81,4
1,61,83,0
1,50,91,0
1,59,101,0
1,42,114,0
1,37,110,0
1,68,99,0
1,73,95,0
1,70,105,0
1,66,95,0
1,59,89,0
1,66,105,0
1,59,99,0
1,35,76,20
1,64,100,4
1,66,99,0
1,59,90,0
1,59,97,0
1,52,127,0
1,42,82,0
1,70,111,0
1,88,78,4
1,50,127,0
1,47,127,4
1,42,92,0
1,36,88,0
1,42,80,12
1,42,106,0
1,73,98,0
1,68,98,0
1,42,85,0
1,42,99,4
1,36,84,0
1,42,87,8
1,42,103,12
1,73,99,0
1,68,95,0
1,35,114,0
1,33,96,4
1,32,108,8
1,42,88,0
1,80,60,0
1,76,60,0
1,28,123,4
1,47,89,0
1,49,87,0
1,52,85,0
1,42,99,0
1,36,100,0
1,70,121,0
1,56,85,36
1,42,89,0
1,70,113,0
1,59,86,0
1,56,88,0
1,42,108,0
1,37,112,0
1,68,99,0
1,73,106,0
1,80,59,0
1,70,113,0
1,57,87,8
1,61,82,0
1,42,86,0
1,81,62,0
1,70,116,0
1,42,93,16
1,36,93,0
1,70,116,0
1,42,88,4
1,70,116,0
1,61,98,8
1,57,82,0
1,42,114,0
1,37,112,0
1,73,106,0
1,68,104,0
1,70,113,0
1,59,92,68
1,62,94,0
1,42,82,0
1,70,108,0
1,42,92,28
1,36,88,0
1,70,111,0
1,42,80,64
1,70,112,0
1,42,106,104
1,37,110,0
1,68,104,0
1,73,104,0
1,80,41,0
1,70,111,0
1,42,85,72
1,81,51,0
1,70,111,0
1,74,98,8
1,42,99,148
1,36,84,0
1,70,113,0
1,42,87,4
1,70,123,0
1,70,115,0
1,42,103,8
1,37,114,0
1,73,98,0
1,68,99,0
1,70,118,0
1,47,98,8
1,42,88,0
1,70,103,0
1,49,96,0
1,52,94,0
1,42,99,0
1,36,100,0
1,70,107,0
1,28,110,8
1,52,82,12
1,42,89,0
1,70,107,0
1,59,89,12
1,62,87,0
1,42,108,0
1,37,112,0
1,68,99,0
1,73,98,0
1,80,53,0
1,70,112,0
1,57,78,0
1,61,75,0
1,42,86,0
1,81,54,0
1,70,112,0
1,42,93,0
1,36,93,0
1,70,102,0
1,42,88,12
1,70,106,0
1,61,85,16
1,57,85,0
1,42,114,0
1,37,110,0
1,68,99,0
1,73,95,0
1,70,106,0
1,56,75,4
1,59,79,0
1,42,82,0
1,70,103,0
1,42,92,12
1,36,88,0
1,70,102,0
1,42,80,4
1,70,98,0
1,42,106,28
1,37,110,0
1,73,98,0
1,68,98,0
1,80,55,0
1,70,108,0
1,42,85,44
1,81,56,0
1,70,111,0
1,74,101,0
1,42,99,8
1,36,84,0
1,70,111,0
1,42,87,4
1,70,119,0
1,35,127,8
1,70,107,0
1,37,123,4
1,40,118,48
1,42,103,0
1,37,110,0
1,73,99,0
1,68,95,0
1,70,102,0
1,71,86,4
1,47,101,80
1,42,88,0
1,70,108,0
1,37,119,0
1,35,111,40
1,49,93,8
1,47,89,8
1,49,87,0
1,52,85,0
1,42,99,0
1,36,100,0
1,70,101,0
1,28,127,0
1,56,85,0
1,42,89,0
1,70,102,0
1,59,86,4
1,56,88,0
1,42,108,0
1,37,108,0
1,68,99,0
1,73,106,0
1,80,59,0
1,70,107,0
1,57,87,4
1,61,82,0
1,42,86,0
1,81,62,0
1,70,106,0
1,42,93,16
1,36,93,0
1,70,106,0
1,42,88,40
1,70,102,0
1,61,98,116
1,57,82,0
1,42,114,0
1,37,108,0
1,73,106,0
1,68,104,0
1,70,102,0
1,59,92,68
1,62,94,0
1,42,82,0
1,70,99,0
1,42,92,28
1,36,88,0
1,70,100,0
1,42,80,8
1,70,101,0
1,42,106,16
1,37,106,0
1,68,104,0
1,73,104,0
1,80,41,0
1,70,108,0
1,42,85,36
1,81,51,0
1,70,101,0
1,76,91,0
1,42,99,24
1,36,84,0
1,70,105,0
1,42,87,4
1,70,115,0
1,70,103,24
1,42,103,8
1,37,110,0
1,73,98,0
1,68,99,0
1,70,108,0
1,28,98,20
1,47,98,8
1,42,88,0
1,70,99,0
1,49,96,0
1,52,94,0
1,42,99,0
1,36,100,0
1,70,99,0
1,28,106,4
1,52,82,8
1,42,89,0
1,70,96,0
1,59,89,8
1,62,87,0
1,42,108,0
1,37,108,0
1,68,99,0
1,73,98,0
1,80,53,0
1,70,98,0
1,57,78,0
1,61,75,0
1,42,86,0
1,81,54,0
1,70,96,0
1,42,93,0
1,36,93,0
1,70,99,0
1,42,88,16
1,70,100,0
1,61,85,16
1,57,85,0
1,42,114,0
1,37,108,0
1,68,99,0
1,73,95,0
1,70,105,0
1,56,75,4
1,59,79,0
1,42,82,0
1,70,111,0
1,42,92,16
1,36,88,0
1,70,121,0
1,42,80,4
1,70,113,0
1,42,106,152
1,37,110,0
1,73,98,0
1,68,98,0
1,80,55,0
1,70,113,0
1,42,85,68
1,81,56,0
1,70,116,0
1,42,99,124
1,36,84,0
1,70,116,0
1,42,87,44
1,70,116,0
1,42,103,56
1,37,110,0
1,73,99,0
1,68,95,0
1,70,113,0
1,71,96,72
1,47,101,8
1,42,88,0
1,70,108,0
1,28,111,16
1,49,93,12
1,42,99,4
1,36,100,0
1,70,111,0
1,33,127,4
1,57,93,0
1,42,89,0
1,70,112,0
1,76,111,0
1,61,78,4
1,64,89,0
1,42,108,0
1,37,108,0
1,68,99,0
1,73,106,0
1,80,59,0
1,70,111,0
1,62,84,0
1,66,95,0
1,42,86,0
1,81,62,0
1,70,111,0
1,42,93,4
1,36,93,0
1,70,113,0
1,42,88,16
1,70,123,0
1,70,115,0
1,66,86,8
1,62,81,0
1,42,114,0
1,37,110,0
1,73,106,0
1,68,104,0
1,70,118,0
1,33,90,20
1,64,91,8
1,67,68,0
1,42,82,0
1,70,103,0
1,42,92,4
1,36,88,0
1,70,107,0
1,42,80,24
1,70,107,0
1,42,106,40
1,37,108,0
1,68,104,0
1,73,104,0
1,80,41,0
1,70,112,0
1,76,108,72
1,42,85,0
1,81,51,0
1,70,112,0
1,57,88,0
1,42,99,0
1,36,84,0
1,70,102,0
1,37,114,0
1,64,82,12
1,62,84,0
1,42,87,20
1,70,106,0
1,71,90,0
1,61,78,36
1,40,127,4
1,57,92,4
1,42,103,8
1,37,110,0
1,73,98,0
1,68,99,0
1,70,106,0
1,69,84,8
1,81,81,24
1,45,127,4
1,42,88,8
1,70,103,0
1,62,84,0
1,61,73,8
1,57,86,0
1,42,99,8
1,36,100,0
1,70,102,0
1,57,92,0
1,42,89,0
1,70,98,0
1,64,82,16
1,67,86,0
1,42,108,0
1,37,108,0
1,68,99,0
1,73,98,0
1,80,53,0
1,70,108,0
1,62,75,0
1,66,78,0
1,42,86,0
1,81,54,0
1,70,111,0
1,42,93,8
1,36,93,0
1,70,111,0
1,42,88,24
1,70,119,0
1,70,107,0
1,62,80,0
1,66,86,0
1,42,114,0
1,37,108,0
1,68,99,0
1,73,95,0
1,70,102,0
1,61,85,4
1,64,91,0
1,42,82,0
1,70,108,0
1,42,92,48
1,36,88,0
1,70,101,0
1,42,80,0
1,70,102,0
1,42,106,0
1,37,112,0
1,73,98,0
1,68,98,0
1,80,55,0
1,70,107,0
1,79,100,40
1,42,85,28
1,81,56,0
1,70,106,0
1,64,74,0
1,42,99,0
1,36,84,0
1,70,106,0
1,62,59,8
1,61,73,0
1,42,87,0
1,70,102,0
1,33,123,8
1,64,82,0
1,57,77,0
1,61,76,0
1,76,95,12
1,64,68,4
1,42,103,0
1,37,114,0
1,73,99,0
1,68,95,0
1,70,102,0
1,69,114,0
1,33,127,0
1,62,71,0
1,35,127,24
1,61,89,4
1,57,73,0
1,42,88,0
1,70,99,0
1,67,127,0
1,57,89,4
1,42,99,4
1,36,100,0
1,70,100,0
1,28,127,4
1,64,109,0
1,74,90,0
1,52,93,4
1,42,89,0
1,70,101,0
1,76,88,0
1,59,86,8
1,56,88,0
1,42,108,0
1,37,108,0
1,80,59,0
1,70,108,0
1,57,88,16
1,61,92,0
1,42,86,0
1,81,62,0
1,70,101,0
1,42,93,4
1,36,93,0
1,70,105,0
1,42,88,4
1,70,115,0
1,70,103,0
1,57,82,0
1,61,87,0
1,42,114,0
1,37,108,0
1,70,108,0
1,59,83,32
1,62,92,0
1,42,82,0
1,70,99,0
1,42,92,12
1,36,88,0
1,70,99,0
1,42,80,24
1,70,96,0
1,42,106,144
1,37,112,0
1,80,41,0
1,70,98,0
1,64,70,8
1,42,85,48
1,81,51,0
1,70,96,0
1,76,81,4
1,76,89,0
1,42,99,12
1,36,84,0
1,70,99,0
1,42,87,16
1,70,100,0
1,42,103,0
1,37,112,0
1,70,105,0
1,42,88,48
1,70,111,0
1,28,107,8
1,42,99,24
1,36,100,0
1,70,121,0
1,28,95,16
1,52,89,52
1,42,89,0
1,70,113,0
1,37,112,68
1,59,82,12
1,62,93,0
1,42,108,0
1,80,53,0
1,70,113,0
1,61,86,4
1,57,82,0
1,42,86,0
1,81,54,0
1,70,116,0
1,42,93,100
1,36,93,0
1,70,116,0
1,42,88,12
1,70,116,0
1,57,89,12
1,61,87,0
1,42,114,0
1,37,112,0
1,70,113,0
1,32,127,4
1,87,68,0
1,42,82,0
1,70,108,0
1,42,92,144
1,36,88,0
1,56,74,64
1,44,78,0
1,66,106,0
1,42,80,0
1,68,117,0
1,56,85,0
1,51,92,0
1,60,114,0
1,42,106,0
1,37,108,0
1,80,55,0
1,56,81,0
1,60,92,0
1,61,110,0
1,42,85,0
1,81,56,0
1,60,87,0
1,63,81,0
1,63,101,0
1,42,99,0
1,36,84,0
1,60,88,0
1,56,78,0
1,64,111,0
1,42,87,0
1,40,60,0
1,38,94,36
1,32,121,0
1,51,95,0
1,56,87,0
1,66,112,0
1,42,103,0
1,37,108,0
1,32,117,0
1,52,71,0
1,56,89,0
1,60,90,0
1,66,49,0
1,68,119,0
1,42,88,0
1,38,109,0
1,54,55,16
1,66,76,4
1,73,80,0
1,69,81,0
1,61,75,4
1,57,85,0
1,54,79,0
1,30,117,12
1,30,99,0
1,54,83,0
1,42,99,0
1,36,100,0
1,49,98,0
1,57,72,56
1,56,122,0
1,54,116,0
1,42,89,0
1,70,123,0
1,70,107,36
1,61,74,64
1,42,108,0
1,37,108,0
1,59,94,0
1,80,59,0
1,70,127,4
1,59,126,16
1,54,109,0
1,64,73,36
1,42,86,0
1,59,83,0
1,81,62,0
1,72,77,0
1,75,75,0
1,68,69,4
1,32,117,8
1,61,74,0
1,63,75,0
1,60,86,0
1,60,124,0
1,56,122,0
1,42,93,0
1,36,93,0
1,59,98,0
1,70,127,0
1,56,72,0
1,42,88,0
1,59,81,0
1,70,127,0
1,70,113,32
1,60,78,32
1,61,116,0
1,56,116,0
1,42,114,0
1,37,108,0
1,59,102,0
1,70,127,0
1,63,47,16
1,37,114,0
1,56,60,0
1,56,118,0
1,42,82,0
1,59,82,0
1,61,118,12
1,73,67,4
1,64,82,4
1,42,92,0
1,36,88,0
1,59,86,0
1,68,66,4
1,76,65,0
1,70,103,8
1,70,113,56
1,61,63,8
1,42,80,0
1,59,72,0
1,70,102,4
1,70,119,0
1,56,70,12
1,42,106,0
1,37,108,0
1,59,94,0
1,80,41,0
1,66,118,44
1,44,122,4
1,56,66,0
1,42,85,0
1,59,76,0
