track,note,velocity,time
3,31,66,663
3,31,0,41
3,38,54,87
3,38,0,13
3,31,66,3
3,31,0,20
3,38,80,60
3,38,0,9
3,38,66,87
3,38,0,10
3,38,62,38
3,38,0,9
3,36,62,7
3,36,0,46
3,36,38,82
3,36,0,4
3,36,68,12
3,36,0,27
3,34,72,117
3,34,0,23
3,36,66,9
3,36,0,13
3,36,46,35
3,36,0,14
3,31,76,2
3,31,0,32
3,31,66,48
3,31,0,15
3,31,56,33
3,31,0,6
3,31,60,10
3,31,0,18
3,38,64,62
3,38,0,13
3,38,64,83
3,31,66,64
3,38,0,10
3,31,0,23
3,31,58,47
3,31,0,17
3,31,54,31
3,31,0,0
3,31,68,16
3,31,0,18
3,38,54,62
3,38,0,34
3,38,62,62
3,38,0,60
3,31,64,4
3,31,0,35
3,31,64,45
3,31,0,17
3,31,54,31
3,31,0,8
3,31,72,8
3,31,0,18
3,38,66,62
3,38,0,20
3,36,62,140
3,36,0,50
3,36,52,30
3,36,0,11
3,36,52,37
3,36,0,8
3,36,68,8
3,36,0,17
3,39,62,63
3,39,0,120
3,31,68,40
3,31,0,33
3,31,60,47
3,31,0,19
3,31,58,29
3,31,0,6
3,31,64,10
3,31,0,21
3,38,62,59
3,38,0,111
3,31,58,49
3,31,0,40
3,31,66,40
3,31,0,21
3,31,66,43
3,31,0,46
3,39,72,194
3,39,0,173
3,38,64,19
3,38,0,152
3,31,66,40
3,31,0,102
3,31,64,42
3,31,0,45
3,38,64,147
3,39,62,48
3,38,0,5
3,39,0,176
3,38,58,11
3,38,0,99
3,29,68,45
3,29,0,43
3,31,64,5
3,31,0,45
3,31,56,35
3,31,0,27
3,31,64,37
3,31,0,28
3,38,64,164
3,39,66,48
3,38,0,1
3,39,0,181
3,38,64,10
3,38,0,149
3,31,66,43
3,31,0,98
3,31,72,46
3,31,0,41
3,34,72,103
3,38,62,48
3,34,0,4
3,38,0,40
3,39,56,4
3,39,0,191
3,38,66,1
3,38,0,160
3,31,64,32
3,31,0,82
3,31,62,62
3,31,0,45
3,31,72,51
3,31,0,41
3,31,68,103
3,31,0,149
3,38,64,43
3,38,0,152
3,31,66,40
3,31,0,108
3,31,66,84
3,31,0,69
3,43,66,123
3,43,0,71
3,41,68,9
3,38,64,64
3,41,0,6
3,38,0,63
3,36,56,11
3,34,60,64
3,36,0,6
3,34,0,40
3,38,64,2
3,38,0,47
3,36,68,1
3,36,0,69
3,34,66,11
3,31,64,64
3,34,0,5
3,31,0,406
3,31,68,21
3,31,0,39
3,38,66,89
3,38,0,14
3,38,60,34
3,38,0,11
3,31,76,5
3,31,0,38
3,34,84,90
3,36,54,64
3,34,0,5
3,36,0,78
3,36,44,109
3,36,0,9
3,36,60,39
3,36,0,140
3,31,68,4
3,31,0,40
3,31,60,40
3,31,0,20
3,31,64,44
3,31,0,37
3,31,56,203
3,31,0,33
3,31,64,47
3,31,0,25
3,31,64,39
3,31,0,32
3,31,66,208
3,31,0,41
3,31,66,39
3,31,0,21
3,31,76,43
3,31,0,22
3,34,80,154
3,34,0,58
3,36,56,6
3,36,0,37
3,36,66,43
3,36,0,20
3,36,68,44
3,36,0,16
3,34,72,176
3,34,0,48
3,31,66,0
3,31,0,44
3,31,68,36
3,31,0,23
3,31,54,41
3,31,0,25
3,31,68,215
3,31,0,13
3,31,64,19
3,31,0,11
3,31,68,37
3,31,0,50
3,31,76,14
3,31,0,18
3,36,64,174
3,39,64,48
3,36,0,6
3,39,0,179
3,38,64,7
3,38,0,132
3,43,64,60
3,43,0,1
3,31,58,40
3,31,0,27
3,30,62,5
3,31,58,16
3,30,0,1
3,31,0,26
3,34,68,69
3,34,0,45
3,39,68,3
3,39,0,182
3,38,72,10
3,38,0,191
3,31,66,1
3,31,0,87
3,31,64,89
3,31,0,7
3,31,68,9
3,31,0,46
3,34,62,50
3,34,0,45
3,38,66,3
3,38,0,45
3,39,66,3
3,39,0,191
3,38,64,1
3,38,0,139
3,29,76,5
3,29,0,46
3,31,66,2
3,31,0,60
3,29,58,116
3,31,66,16
3,29,0,6
3,31,0,5
3,31,72,21
3,31,0,13
3,31,84,3
3,31,0,13
3,34,58,83
3,39,84,1
3,34,0,1
3,39,0,177
3,38,68,9
3,38,0,186
3,31,54,6
3,31,0,79
3,31,62,113
3,31,0,50
3,34,84,46
3,34,0,29
3,36,64,3
3,36,0,21
3,39,80,43
3,39,0,189
3,38,68,3
3,38,0,152
3,31,84,40
3,31,0,30
3,31,76,50
3,31,0,23
3,31,80,41
3,31,0,32
3,31,76,112
3,31,0,17
3,31,80,15
3,31,0,7
3,43,64,57
3,43,0,70
3,41,66,10
3,41,0,61
3,38,68,3
3,38,0,72
3,36,64,8
3,34,56,64
3,36,0,5
3,34,0,37
3,38,58,6
3,38,0,47
3,36,62,1
3,36,0,72
3,34,66,8
3,31,72,64
3,34,0,13
3,31,0,387
3,31,80,32
3,31,0,71
3,31,66,73
3,31,0,27
3,36,60,213
3,36,0,27
3,36,62,53
3,36,0,28
3,36,64,36
3,36,0,28
3,31,72,212
3,31,0,30
3,31,64,50
3,31,0,16
3,31,66,48
3,31,0,21
3,29,68,123
3,29,0,25
3,31,80,7
3,31,0,96
3,31,84,96
3,31,0,11
3,31,68,5
3,31,0,9
3,29,72,135
3,29,0,30
3,31,72,2
3,31,0,73
3,31,66,71
3,31,0,24
3,31,76,40
3,31,0,26
3,34,72,198
3,34,0,13
3,36,72,3
3,36,0,20
3,36,66,28
3,36,0,22
3,36,76,58
3,36,0,18
3,34,80,142
3,34,0,28
3,36,64,4
3,31,68,64
3,36,0,1
3,31,0,40
3,31,66,39
3,31,0,17
3,31,76,47
3,31,0,31
3,31,72,209
3,31,0,38
3,31,66,42
3,31,0,15
3,31,80,49
3,31,0,21
3,34,88,171
3,39,58,8
3,34,0,2
3,39,0,118
3,46,46,3
3,51,62,16
3,46,0,2
3,51,0,37
3,50,66,9
3,45,66,32
3,50,0,1
3,45,0,8
3,38,68,7
3,38,0,134
3,31,68,10
3,31,0,79
3,31,66,65
3,31,0,56
3,31,68,40
3,31,0,92
3,34,88,4
3,34,0,44
3,39,84,4
3,39,0,174
3,38,72,18
3,38,0,187
3,31,60,5
3,31,0,45
3,31,66,35
3,31,0,28
3,31,62,36
3,31,0,38
3,39,76,202
3,39,0,29
3,39,80,19
3,39,0,34
3,46,76,14
3,46,0,35
3,51,52,13
3,51,0,29
3,50,68,19
3,50,0,187
3,31,68,5
3,31,0,37
3,31,66,43
3,31,0,20
3,31,68,44
3,31,0,79
3,34,72,65
3,34,0,32
3,36,60,0
3,36,0,19
3,39,68,45
3,39,0,183
3,38,64,9
3,38,0,136
3,29,68,8
3,30,54,32
3,29,0,3
3,30,0,13
3,31,80,0
3,31,0,37
3,31,64,43
3,31,0,17
3,31,66,47
3,31,0,131
3,34,68,13
3,34,0,29
3,36,64,3
3,36,0,12
3,34,56,36
3,39,76,16
3,34,0,4
3,39,0,145
3,38,64,43
3,38,0,1
3,29,64,3
3,29,0,26
3,30,64,6
3,30,0,13
3,31,64,3
3,31,0,38
3,31,68,42
3,31,0,12
3,31,80,52
3,31,0,35
3,41,60,157
3,43,62,48
3,41,0,1
3,43,0,17
3,43,34,14
3,43,0,23
3,36,39,89
3,36,0,45
3,38,64,3
3,38,0,42
3,36,64,6
3,36,0,42
3,34,68,6
3,34,0,15
3,38,64,33
3,38,0,42
3,36,66,6
3,36,0,53
3,34,72,27
3,34,0,41
3,31,66,23
3,31,0,761
3,31,66,55
3,31,0,47
3,31,54,81
3,31,0,5
3,31,60,11
3,31,0,45
3,31,60,51
3,31,0,45
3,29,62,3
3,29,0,23
3,31,68,9
3,31,0,62
3,36,62,2
3,36,0,28
3,36,62,52
3,36,0,18
3,36,58,46
3,36,0,18
3,34,72,126
3,34,0,92
3,31,68,4
3,31,0,31
3,31,76,49
3,31,0,14
3,31,76,50
3,31,0,21
3,29,68,123
3,29,0,27
3,31,66,5
3,31,0,44
3,31,68,20
3,31,0,38
3,31,66,42
3,31,0,16
3,31,66,48
3,31,0,28
3,29,68,116
3,29,0,28
3,31,62,4
3,31,0,46
3,31,66,18
3,31,0,31
3,31,66,49
3,31,0,22
3,31,68,42
3,31,0,31
3,34,68,113
3,34,0,77
3,36,54,19
3,36,0,44
3,36,60,36
3,36,0,33
3,36,68,31
3,36,0,24
3,34,66,120
3,34,0,45
3,31,66,51
3,31,0,12
3,31,64,20
3,31,0,11
3,31,72,37
3,31,0,14
3,31,68,50
3,31,0,30
3,31,80,210
3,31,0,13
3,31,64,19
3,31,0,11
3,31,64,37
3,31,0,13
3,31,60,51
3,31,0,17
3,38,66,175
3,38,0,45
3,39,64,3
3,39,0,190
3,38,76,2
3,38,0,59
3,29,68,85
3,29,0,47
3,31,68,1
3,31,0,87
3,34,66,201
3,34,0,16
3,34,72,16
3,34,0,16
3,38,64,0
3,38,0,46
3,39,62,2
3,39,0,143
3,38,68,49
3,38,0,4
3,28,50,2
3,28,0,16
3,30,44,16
3,30,0,10
3,31,68,6
3,31,0,37
3,31,66,43
3,31,0,15
3,31,66,49
3,31,0,26
3,34,56,118
3,34,0,14
3,34,56,18
3,34,0,14
3,38,66,2
3,38,0,28
3,39,76,20
3,39,0,141
3,46,54,3
3,46,0,48
3,38,68,0
3,38,0,8
3,29,66,2
3,29,0,41
3,31,60,7
3,31,0,33
3,31,80,47
3,31,0,12
3,31,80,52
3,31,0,16
3,31,64,80
3,31,0,10
3,29,66,38
3,31,66,32
3,29,0,1
3,31,0,13
3,39,68,50
3,38,66,192
3,39,0,1
3,38,0,96
3,29,68,47
3,29,0,47
3,31,66,1
3,31,0,32
3,31,68,48
3,31,0,17
3,31,64,47
3,31,0,38
3,34,68,106
3,34,0,45
3,38,66,3
3,38,0,45
3,39,58,2
3,38,68,188
3,39,0,4
3,38,0,141
3,29,72,3
3,29,0,44
3,31,66,0
3,31,0,41
3,31,68,39
3,31,0,26
3,31,66,38
3,31,0,53
3,38,68,99
3,38,0,16
3,38,64,12
3,41,68,16
3,38,0,2
3,41,0,42
3,43,66,4
3,43,0,69
3,41,66,11
3,38,68,64
3,41,0,3
3,38,0,64
3,36,66,13
3,34,56,64
3,36,0,3
3,34,0,40
3,38,66,5
3,36,58,48
3,38,0,2
3,36,0,74
3,34,60,4
3,31,68,64
3,34,0,6
3,31,0,398
3,31,66,28
3,31,0,41
3,29,58,87
3,29,0,13
3,31,76,3
3,31,0,45
3,29,62,35
3,31,68,16
3,29,0,2
3,31,0,9
3,29,66,37
3,29,0,25
3,31,84,7
3,31,0,24
3,36,62,40
3,36,0,54
3,36,64,26
3,36,0,15
3,36,56,33
3,36,0,4
3,36,62,12
3,36,0,41
3,34,88,103
3,31,68,96
3,34,0,1
3,31,0,33
3,31,60,46
3,31,0,19
3,31,62,45
3,31,0,40
3,31,64,200
3,31,0,42
3,31,52,38
3,31,0,24
3,31,64,40
3,31,0,30
3,29,64,114
3,29,0,32
3,31,66,0
3,31,0,17
3,31,66,47
3,31,0,31
3,31,64,49
3,31,0,18
3,31,76,46
3,31,0,26
3,29,64,118
3,29,0,28
3,31,66,4
3,31,0,55
3,36,64,9
3,36,0,39
3,36,64,41
3,36,0,16
3,36,76,48
3,36,0,14
3,34,88,130
3,34,0,23
3,36,52,9
3,36,0,7
3,31,68,57
3,31,0,39
3,31,68,41
3,31,0,17
3,31,68,47
3,31,0,35
3,31,68,205
3,31,0,35
3,31,66,45
3,31,0,25
3,31,68,39
3,31,0,31
3,34,58,113
3,34,0,16
3,34,80,16
3,34,0,16
3,38,65,0
3,38,0,19
3,39,66,29
3,38,54,192
3,39,0,1
3,38,0,111
3,38,56,64
3,38,0,14
3,31,72,2
3,31,0,21
3,31,68,27
3,31,0,34
3,31,56,46
3,31,0,4
3,31,66,12
3,31,0,28
3,31,68,68
3,31,0,16
3,38,68,112
3,38,0,13
3,39,58,3
3,46,58,144
3,39,0,2
3,46,0,40
3,38,72,6
3,38,0,140
3,29,68,4
3,31,64,48
3,29,0,5
3,31,0,33
3,31,66,42
3,31,0,21
3,31,68,43
3,31,0,25
3,34,60,119
3,34,0,27
3,38,66,5
3,38,0,20
3,39,66,16
3,39,0,1
3,38,64,32
3,38,0,29
3,29,64,3
3,29,0,1
3,29,64,2
3,29,0,8
3,30,64,3
3,30,0,7
3,31,64,25
3,31,0,28
3,31,54,16
3,31,0,4
3,31,60,32
3,31,0,15
3,31,72,32
3,31,0,14
3,39,60,32
3,38,56,32
3,39,0,6
3,38,0,12
3,38,56,20
3,38,0,2
3,31,54,1
3,31,0,25
3,43,62,7
3,43,0,4
3,41,54,16
3,41,0,15
3,38,54,1
3,38,0,27
3,36,37,5
3,36,0,8
3,36,39,24
3,36,0,11
3,38,52,5
3,39,39,16
3,38,0,3
3,38,54,16
3,39,0,12
3,38,0,15
3,29,58,1
3,31,54,16
3,29,0,1
3,31,0,14
3,31,52,32
3,31,0,4
3,31,54,16
3,31,0,16
3,31,60,16
3,31,0,11
3,29,42,16
3,29,0,27
3,31,58,5
3,31,0,15
3,39,39,16
3,38,37,16
3,39,0,3
3,38,0,5
3,31,25,11
3,31,0,7
3,31,35,32
3,31,0,7
3,31,46,16
3,31,0,20
3,31,39,16
3,31,0,10
4,53,52,658
4,58,60,0
4,55,58,0
4,62,31,0
4,62,0,260
4,55,0,5
4,58,0,4
4,62,62,19
4,55,44,0
4,58,30,0
4,62,0,28
4,65,62,4
4,58,0,1
4,55,0,37
4,51,35,26
4,55,42,0
4,58,26,0
4,63,32,0
4,53,0,1
4,65,0,3
4,58,0,329
4,51,0,4
4,55,0,9
4,63,0,24
4,50,54,14
4,58,33,0
4,55,28,0
4,62,42,0
4,62,0,233
4,58,0,0
4,55,0,3
4,65,72,52
4,60,68,0
4,60,0,26
4,65,0,0
4,50,0,5
4,67,66,1
4,62,62,0
4,67,0,324
4,62,0,12
4,72,80,16
4,67,66,0
4,67,0,25
4,65,58,7
4,70,54,0
4,72,0,5
4,58,44,59
4,55,30,0
4,62,36,0
4,58,0,260
4,55,0,6
4,65,0,37
4,70,0,3
4,62,0,8
4,48,31,70
4,63,46,0
4,58,46,0
4,55,36,0
4,67,68,240
4,63,0,2
4,58,0,66
4,58,35,28
4,62,42,0
4,53,29,0
4,48,0,4
4,67,0,9
4,62,0,500
4,58,0,6
4,55,0,1
4,53,0,4
4,67,64,52
4,55,56,0
4,55,0,7
4,67,0,9
4,67,64,80
4,55,52,0
4,55,0,11
4,67,0,6
4,48,46,31
4,48,0,31
4,46,46,1
4,43,54,16
4,46,0,9
4,58,39,39
4,51,46,0
4,55,32,0
4,62,44,0
4,43,0,1
4,55,0,74
4,55,56,21
4,67,66,0
4,55,0,90
4,51,0,1
4,62,0,1
4,67,0,2
4,58,0,2
4,50,22,0
4,50,0,92
4,57,52,4
4,65,64,0
4,53,46,0
4,60,54,0
4,43,52,96
4,53,0,1
4,60,0,2
4,65,0,0
4,57,0,3
4,53,39,58
4,43,0,3
4,61,68,29
4,55,64,0
4,67,68,0
4,53,0,2
4,61,0,10
4,62,64,4
4,55,0,1
4,67,0,15
4,62,0,4
4,60,60,12
4,60,0,23
4,58,38,9
4,58,0,6
4,60,84,10
4,67,80,0
4,67,0,25
4,60,0,9
4,67,62,14
4,60,64,0
4,67,0,19
4,60,0,4
4,58,42,9
4,58,0,7
4,60,80,9
4,67,76,0
4,67,0,25
4,60,0,8
4,60,46,15
4,67,44,0
4,67,0,16
4,60,0,9
4,58,40,7
4,58,0,5
4,51,46,11
4,58,38,96
4,55,28,0
4,55,0,52
4,58,0,12
4,51,0,11
4,50,48,21
4,57,29,0
4,60,38,0
4,53,37,96
4,57,0,3
4,50,0,0
4,65,34,13
4,60,0,29
4,65,0,9
4,50,44,26
4,43,56,16
4,50,0,1
4,53,0,1
4,74,60,46
4,79,68,0
4,74,0,15
4,79,0,4
4,73,84,29
4,73,0,12
4,72,35,4
