track,note,velocity,time
0,38,113,0
0,50,101,0
0,62,103,0
0,62,103,0
0,62,104,3
0,50,104,1
0,62,104,3
0,60,105,4
0,48,98,3
0,60,105,1
0,62,98,1
0,62,98,1
0,50,101,2
0,57,102,50
0,57,84,0
0,45,104,3
0,57,102,1
0,44,87,44
0,56,115,1
0,56,97,0
0,56,115,4
0,55,115,44
0,55,97,0
0,43,112,1
0,55,115,3
0,50,102,45
0,50,84,0
0,38,94,4
0,50,102,0
0,53,107,5
0,53,89,0
0,45,93,4
0,53,107,0
0,41,110,1
0,45,89,6
0,45,116,8
0,50,107,1
0,50,89,0
0,45,116,3
0,50,107,0
0,38,106,1
0,50,100,10
0,38,108,4
0,50,100,0
0,62,102,1
0,50,117,1
0,38,113,1
0,62,102,0
0,50,110,3
0,62,105,0
0,62,105,4
0,48,100,3
0,60,107,0
0,60,107,3
0,62,106,2
0,50,91,1
0,62,106,3
0,57,111,48
0,57,93,0
0,45,108,4
0,57,111,0
0,56,114,45
0,56,96,0
0,44,95,4
0,56,114,0
0,47,106,2
0,47,93,16
0,55,115,14
0,55,97,0
0,47,106,3
0,43,115,0
0,55,115,1
0,45,103,2
0,45,75,17
0,50,99,14
0,50,81,0
0,38,101,1
0,45,106,3
0,50,99,0
0,53,106,2
0,53,88,0
0,41,105,1
0,43,116,2
0,53,106,0
0,43,97,1
0,43,109,5
0,54,60,0
0,54,60,0
0,53,63,0
0,53,63,0
0,38,106,2
0,50,107,0
0,50,89,0
0,41,116,1
0,50,107,1
0,50,106,36
0,57,113,0
0,38,103,2
0,62,102,1
0,66,95,0
0,50,106,1
0,57,113,0
0,45,91,3
0,38,114,0
0,62,102,0
0,66,95,0
0,50,103,1
0,57,110,0
0,62,100,0
0,38,110,1
0,66,94,0
0,50,103,1
0,57,110,0
0,62,100,1
0,66,94,2
0,65,71,0
0,56,91,0
0,61,83,0
0,65,71,0
0,56,91,0
0,61,83,0
0,64,43,0
0,60,76,0
0,64,43,0
0,60,76,0
0,55,115,2
0,55,115,2
0,60,97,0
0,36,107,1
0,60,97,2
0,43,93,1
0,45,97,0
0,61,88,1
0,49,103,0
0,61,88,1
0,38,117,3
0,49,103,0
0,56,98,0
0,62,95,1
0,66,93,1
0,43,86,1
0,35,109,0
0,56,98,0
0,57,75,0
0,62,95,1
0,66,93,1
0,57,75,0
0,50,98,1
0,50,98,1
0,45,93,1
0,38,113,1
0,57,113,35
0,57,95,0
0,57,113,4
0,45,114,4
0,43,89,2
0,45,95,0
0,56,116,0
0,56,98,0
0,35,109,3
0,43,89,1
0,56,116,0
0,44,105,2
0,45,89,4
0,38,112,1
0,55,117,2
0,55,99,0
0,55,117,4
0,43,105,3
0,45,84,1
0,43,81,0
0,55,101,3
0,38,92,1
0,62,92,2
0,67,73,0
0,55,75,0
0,55,101,1
0,43,84,2
0,35,109,1
0,62,92,0
0,67,73,0
0,65,109,0
0,53,91,0
0,41,94,3
0,65,109,1
0,45,84,1
0,38,114,1
0,38,96,3
0,62,99,1
0,50,81,0
0,45,89,1
0,43,91,0
0,62,99,0
0,50,62,4
0,43,89,4
0,35,111,0
0,50,62,0
0,50,86,35
0,57,115,2
0,38,105,1
0,50,86,1
0,62,113,0
0,66,94,0
0,45,84,1
0,38,111,0
0,57,115,1
0,62,113,2
0,66,94,0
0,50,78,0
0,57,114,1
0,62,98,0
0,38,104,1
0,50,78,0
0,66,93,0
0,57,114,1
0,62,98,1
0,66,93,1
0,55,117,8
0,36,107,3
0,55,117,1
0,45,95,1
0,43,86,0
0,48,76,1
0,64,97,0
0,60,101,0
0,48,76,2
0,64,97,0
0,60,101,1
0,38,112,1
0,50,98,0
0,62,91,0
0,66,89,1
0,43,89,1
0,35,109,0
0,50,98,1
0,57,82,0
0,62,91,1
0,66,89,1
0,57,82,1
0,38,112,4
0,45,86,1
0,57,114,36
0,57,96,0
0,57,114,4
0,45,112,3
0,43,93,1
0,45,95,0
0,56,115,37
0,56,97,0
0,44,94,2
0,56,115,0
0,43,91,1
0,35,107,0
0,38,113,3
0,45,89,3
0,55,115,34
0,55,97,0
0,55,115,3
0,43,105,4
0,43,97,4
0,45,99,0
0,62,104,1
0,50,86,0
0,67,104,1
0,38,88,2
0,62,104,1
0,43,87,1
0,67,104,0
0,35,109,3
0,65,110,0
0,53,92,0
0,41,112,1
0,45,89,2
0,65,110,0
0,38,113,2
0,62,95,11
0,50,77,0
0,43,95,2
0,45,95,0
0,38,105,0
0,62,95,1
0,57,81,6
0,69,113,0
0,43,87,0
0,35,109,0
0,57,81,0
0,50,75,0
0,57,93,1
0,38,105,1
0,62,95,0
0,50,75,0
0,66,79,0
0,45,89,1
0,57,93,0
0,74,109,0
0,38,113,0
0,62,95,0
0,66,79,2
0,57,94,0
0,62,97,0
0,66,71,1
0,38,114,1
0,57,94,0
0,74,117,0
0,62,97,0
0,66,71,2
0,56,87,1
0,65,62,0
0,61,84,0
0,56,87,1
0,65,62,0
0,61,84,0
0,55,105,0
0,60,103,3
0,55,105,1
0,36,101,2
0,64,96,0
0,60,103,1
0,72,109,0
0,64,96,1
0,43,91,1
0,45,97,0
0,63,68,0
0,63,68,0
0,61,90,0
0,56,92,0
0,65,41,0
0,61,90,0
0,56,92,0
0,65,41,0
0,38,114,0
0,62,95,0
0,74,102,0
0,35,109,0
0,66,91,0
0,57,59,1
0,43,87,1
0,62,95,0
0,66,91,1
0,57,59,0
0,45,83,1
0,38,112,1
0,57,101,19
0,57,83,0
0,45,111,2
0,57,101,2
0,43,91,3
0,45,91,0
0,56,113,11
0,56,95,0
0,44,97,3
0,43,89,1
0,56,113,0
0,35,109,1
0,45,89,4
0,38,112,0
0,55,111,7
0,55,93,0
0,55,111,4
0,43,106,2
0,43,97,4
0,45,101,0
0,62,104,37
0,50,86,0
0,67,97,0
0,62,104,3
0,43,95,1
0,67,97,0
0,35,112,1
0,38,93,2
0,65,109,0
0,53,91,0
0,45,95,3
0,65,109,0
0,38,112,1
0,41,108,1
0,62,105,3
0,50,87,0
0,43,89,2
0,45,93,0
0,38,100,0
0,62,105,0
0,57,105,13
0,69,105,0
0,43,93,0
0,35,110,0
0,57,105,0
0,57,108,3
0,38,106,1
0,62,103,0
0,66,94,1
0,74,108,0
0,57,108,0
0,45,93,1
0,38,113,0
0,62,103,1
0,66,94,1
0,50,53,0
0,57,105,1
0,62,103,0
0,74,111,0
0,38,100,0
0,50,53,0
0,66,97,0
0,57,105,1
0,62,103,1
0,66,97,2
0,61,89,0
0,56,33,0
0,61,89,0
0,56,33,0
0,55,107,1
0,36,107,1
0,72,110,0
0,55,107,0
0,60,103,0
0,43,101,1
0,45,99,0
0,48,69,1
0,64,97,0
0,60,103,1
0,48,69,2
0,64,97,0
0,49,13,0
0,49,13,0
0,61,90,0
0,65,61,0
0,56,63,0
0,61,90,0
0,50,11,0
0,65,61,0
0,56,63,0
0,50,11,0
0,57,98,3
0,74,107,0
0,35,109,1
0,62,99,0
0,43,89,1
0,38,114,0
0,57,98,0
0,66,90,0
0,62,99,3
0,66,90,1
0,45,86,1
0,38,112,0
0,57,109,21
0,57,91,0
0,45,117,2
0,69,109,2
0,57,109,0
0,43,99,1
0,45,93,0
0,56,115,8
0,56,97,0
0,44,104,1
0,67,107,0
0,56,115,0
0,43,91,1
0,35,110,1
0,45,89,3
0,38,112,0
0,55,113,8
0,55,95,0
0,43,107,3
0,55,113,1
0,65,93,0
0,43,99,3
0,45,103,0
0,62,101,1
0,67,86,2
0,55,68,0
0,35,109,1
0,43,93,1
0,62,101,0
0,38,95,2
0,67,86,0
0,65,112,4
0,53,94,0
0,45,89,2
0,38,113,0
0,41,107,1
0,65,112,0
0,38,99,0
0,62,103,0
0,50,85,0
0,43,99,2
0,45,99,0
0,62,103,0
0,57,102,15
0,35,110,1
0,69,110,0
0,43,91,0
0,57,102,2
0,50,87,28
0,45,87,1
0,38,103,0
0,66,64,1
0,57,108,0
0,74,107,0
0,38,112,0
0,62,105,0
0,50,87,1
0,66,64,1
0,57,108,0
0,62,105,0
0,38,103,2
0,57,109,0
0,62,103,0
0,66,93,0
0,74,108,0
0,57,109,1
0,62,103,1
0,66,93,1
0,61,93,0
0,56,80,0
0,61,93,0
0,56,80,0
0,55,112,1
0,36,100,2
0,72,103,0
0,43,101,0
0,45,95,0
0,60,105,0
0,55,112,1
0,64,97,2
0,60,105,1
0,64,97,1
0,61,93,0
0,61,93,0
0,56,81,0
0,56,81,0
0,38,107,1
0,57,110,0
0,74,111,0
0,43,89,0
0,62,97,0
0,35,109,1
0,57,110,2
0,66,87,0
0,62,97,1
0,66,87,0
0,38,112,1
0,45,89,2
0,57,106,31
0,57,88,0
0,69,110,0
0,45,106,2
0,57,106,0
0,65,106,0
0,45,93,0
0,43,99,0
0,56,115,39
0,56,97,0
0,43,93,3
0,67,102,0
0,56,115,0
0,35,109,1
0,44,93,3
0,45,87,3
0,38,112,1
0,65,100,0
0,55,113,2
0,55,95,0
0,55,113,4
0,43,108,5
0,43,93,3
0,45,97,0
0,38,97,4
0,62,103,2
0,50,85,0
0,35,106,2
0,67,86,0
0,43,89,2
0,62,103,0
0,67,86,2
0,41,105,2
0,65,108,0
0,53,90,0
0,38,112,2
0,65,108,0
0,45,87,2
0,62,107,2
0,50,89,0
0,38,100,1
0,62,107,2
0,45,101,2
0,43,99,0
0,57,94,13
0,43,91,3
0,35,109,0
0,57,94,1
0,50,96,2
0,57,109,1
0,38,103,1
0,38,113,1
0,50,96,0
0,62,104,0
0,66,91,0
0,74,114,0
0,45,83,0
0,57,109,0
0,62,104,3
0,66,91,0
0,38,103,1
0,57,114,0
0,62,99,1
0,66,97,0
0,57,114,1
0,74,109,0
0,62,99,1
0,66,97,1
0,56,66,0
0,61,95,0
0,56,66,0
0,61,95,0
0,55,113,1
0,36,104,1
0,48,79,1
0,45,101,1
0,43,99,0
0,72,102,0
0,55,113,0
0,60,107,0
0,48,79,1
0,64,80,0
0,60,107,2
0,64,80,1
0,49,30,0
0,61,89,0
0,49,30,0
0,61,89,0
0,56,74,0
0,50,77,2
0,56,74,0
0,62,84,0
0,38,107,2
0,50,77,0
0,57,99,0
0,35,109,1
0,62,84,0
0,74,110,0
0,43,91,0
0,57,99,0
0,66,87,0
0,66,87,0
0,45,87,1
0,38,112,0
0,57,109,36
0,57,91,0
0,57,109,4
0,69,105,0
0,45,108,0
0,65,90,0
0,43,95,1
0,45,93,0
0,56,115,38
0,56,97,0
0,67,97,0
0,35,108,0
0,43,93,1
0,44,93,0
0,56,115,0
0,65,84,0
0,45,84,1
0,38,112,1
0,55,115,37
0,55,97,0
0,69,98,0
0,43,104,1
0,55,115,0
0,47,116,2
0,47,103,20
0,62,103,2
0,50,85,0
0,38,95,1
0,67,91,1
0,55,73,0
0,62,103,2
0,47,116,1
0,67,91,1
0,41,106,1
0,65,111,0
0,53,93,0
0,65,111,3
0,45,116,1
0,45,106,2
0,45,116,4
0,38,103,3
0,62,105,0
0,50,87,0
0,62,105,1
0,43,116,1
0,43,109,18
0,55,114,4
0,55,114,4
0,74,112,0
0,43,116,0
0,55,99,4
0,62,98,1
0,67,71,1
0,79,106,0
0,45,86,0
0,55,99,0
0,62,98,1
0,38,112,1
0,67,71,0
0,43,107,0
0,55,93,0
0,62,99,1
0,67,83,0
0,55,93,2
0,62,99,1
0,79,111,0
0,67,83,0
0,43,115,2
0,61,97,28
0,66,78,0
0,61,97,3
0,66,78,0
0,60,102,2
0,53,101,1
0,77,108,0
0,43,91,0
0,45,93,0
0,41,108,0
0,60,102,0
0,65,78,0
0,53,101,1
0,65,78,3
0,66,68,0
0,54,77,0
0,61,89,0
0,66,68,0
0,54,77,0
0,61,89,0
0,55,103,2
0,62,96,0
0,43,95,1
0,79,104,0
0,35,109,0
0,43,98,0
0,55,103,0
0,62,96,1
0,67,91,0
0,67,91,0
0,38,112,1
0,45,81,1
0,77,108,0
0,38,111,0
0,62,93,0
0,62,75,0
0,62,93,4
0,45,93,43
0,43,91,0
0,61,103,3
0,61,85,0
0,74,102,0
0,43,93,1
0,35,108,2
0,37,104,0
0,61,103,0
0,45,81,4
0,38,113,1
0,60,107,2
0,60,89,0
0,36,111,2
0,72,93,1
0,60,107,1
0,43,93,2
0,45,93,0
0,55,109,18
0,55,91,0
0,31,96,4
0,55,109,0
0,43,91,1
0,35,108,2
0,58,109,14
0,58,91,0
0,34,113,3
0,58,109,0
0,45,87,3
0,38,112,0
0,55,111,3
0,55,93,0
0,55,111,3
0,43,114,1
0,31,105,2
0,43,114,18
0,55,113,13
0,55,113,4
0,74,106,0
0,43,116,0
0,55,106,3
0,43,106,1
0,62,93,0
0,55,106,2
0,67,88,0
0,79,111,0
0,45,93,0
0,38,111,0
0,62,93,1
0,67,88,2
0,55,109,0
0,43,108,1
0,62,99,0
0,67,89,0
0,81,105,0
0,55,109,0
0,62,99,0
0,67,89,2
0,61,97,1
0,66,67,0
0,61,97,1
0,66,67,0
0,41,106,1
0,53,109,4
0,79,108,0
0,60,100,0
0,43,103,1
0,45,101,0
0,53,109,0
0,65,76,0
0,60,100,2
0,65,76,2
0,54,99,0
0,66,64,1
0,61,86,0
0,54,99,0
0,66,64,1
0,61,86,0
0,55,109,0
0,43,105,0
0,55,109,0
0,62,94,1
0,35,109,1
0,79,109,0
0,43,95,0
0,67,82,1
0,62,94,1
0,67,82,0
0,45,83,3
0,38,110,1
0,62,99,3
0,62,81,0
0,77,104,0
0,62,99,2
0,38,111,2
0,43,97,46
0,45,93,0
0,61,99,7
0,61,81,0
0,81,105,0
0,43,91,2
0,35,108,0
0,37,102,0
0,61,99,1
0,45,86,2
0,38,111,0
0,60,86,6
0,60,68,0
0,79,102,0
0,60,86,2
0,36,114,1
0,77,94,0
0,43,86,0
0,45,86,0
0,55,109,13
0,55,91,0
0,55,109,4
0,79,105,0
0,45,109,1
0,31,90,2
0,45,97,4
0,58,108,3
0,58,90,0
0,34,115,2
0,45,116,1
0,58,108,1
0,77,102,0
0,43,99,0
0,43,97,1
0,55,115,6
0,55,97,0
0,55,115,0
0,43,111,1
0,31,111,1
0,50,108,1
0,45,89,4
0,50,108,0
0,41,114,1
0,57,114,10
0,62,99,0
0,57,114,1
0,66,91,0
0,45,87,1
0,38,112,0
0,62,99,2
0,38,114,1
0,66,91,0
0,57,109,1
0,62,97,0
0,66,93,0
0,38,106,1
0,57,109,0
0,62,97,0
0,66,93,1
0,64,63,8
0,55,115,2
0,36,107,2
0,64,63,0
0,43,95,2
0,45,91,0
0,55,115,0
0,60,97,0
0,60,97,4
0,61,95,0
0,61,95,0
0,57,108,0
0,35,109,3
0,38,107,0
0,62,91,0
0,57,108,0
0,43,95,1
0,66,93,0
0,62,91,2
0,66,93,0
0,45,79,2
0,38,112,2
0,57,115,35
0,57,97,0
0,45,107,4
0,57,115,0
0,43,91,3
0,45,89,0
0,56,114,0
0,56,96,0
0,44,95,4
0,56,114,0
0,43,95,2
0,35,109,0
0,45,87,3
0,38,110,1
0,55,115,9
0,55,97,0
0,43,107,1
0,55,115,3
0,45,95,1
0,43,95,0
0,50,99,6
0,50,81,0
0,38,93,2
0,50,99,2
0,35,109,2
0,43,91,3
0,53,113,6
0,53,95,0
0,41,108,2
0,53,113,2
0,38,112,2
0,45,91,1
0,49,112,3
0,49,94,0
0,38,110,3
0,49,112,0
0,43,99,2
0,45,99,0
0,50,101,4
0,50,83,0
0,50,101,1
0,49,114,1
0,49,114,4
0,35,110,1
0,43,93,1
0,50,100,4
0,50,100,2
0,38,107,5
0,50,107,0
0,45,89,1
0,38,109,1
0,62,108,0
0,57,108,0
0,50,107,2
0,62,108,2
0,57,108,0
0,38,107,4
0,62,92,2
0,66,94,1
0,57,89,2
0,62,92,1
0,66,94,1
0,57,89,2
0,56,71,0
0,61,92,1
0,56,71,0
0,61,92,1
0,55,112,3
0,36,103,1
0,48,71,0
0,43,97,2
0,45,95,0
