track,note,velocity,time
3,71,112,7494
3,71,0,120
3,78,112,40
3,78,0,20
3,79,112,0
3,79,0,160
3,79,112,0
3,79,0,120
3,79,112,0
3,79,0,160
3,79,112,20
3,79,0,280
3,78,112,40
3,78,0,120
3,76,112,40
3,76,0,460
3,71,112,980
3,71,0,20
3,73,112,0
3,73,0,260
3,76,112,40
3,76,0,120
3,78,112,40
3,78,0,270
3,76,112,50
3,76,0,120
3,74,112,40
3,74,0,20
3,76,112,0
3,76,0,340
3,73,112,120
3,73,0,60
3,71,112,20
3,71,0,320
3,71,112,3280
3,71,0,120
3,78,112,40
3,78,0,40
3,79,112,10
3,79,112,130
3,79,0,30
3,79,0,90
3,79,112,0
3,79,0,160
3,79,112,20
3,79,0,280
3,78,112,40
3,78,0,120
3,76,112,40
3,76,0,460
3,71,112,980
3,71,0,40
3,73,112,10
3,73,0,230
3,76,112,40
3,76,0,120
3,76,112,45
3,76,0,25
3,78,112,10
3,78,0,100
3,76,112,20
3,76,0,120
3,71,112,40
3,71,0,115
3,74,112,45
3,74,0,20
3,76,112,0
3,76,0,340
3,73,112,120
3,73,0,60
3,71,112,20
3,71,0,320
3,78,112,2800
3,78,0,40
3,79,112,10
3,79,0,80
3,78,112,30
3,78,0,140
3,79,112,20
3,79,0,120
3,79,112,40
3,79,0,120
3,78,112,40
3,78,0,120
3,78,112,40
3,78,0,120
3,78,112,40
3,78,0,120
3,78,112,40
3,78,0,40
3,78,112,40
3,78,0,70
3,78,112,30
3,78,0,40
3,78,112,20
3,78,0,40
3,78,112,40
3,78,0,120
3,78,112,40
3,78,0,40
3,80,112,20
3,80,0,220
3,76,112,40
3,76,0,310
3,73,112,650
3,73,0,120
3,76,112,40
3,76,0,120
3,78,112,40
3,78,0,120
3,79,112,40
3,79,0,120
3,73,112,40
3,73,0,120
3,73,112,40
3,73,0,280
3,76,112,40
3,76,0,120
3,76,112,40
3,76,0,120
3,76,112,40
3,76,0,640
3,71,112,3200
3,71,0,120
3,78,112,40
3,78,0,40
3,79,112,20
3,79,0,380
3,79,112,40
3,79,0,280
3,78,112,40
3,78,0,120
3,76,112,40
3,76,0,280
3,76,112,40
3,76,0,160
3,73,112,800
3,73,0,120
3,73,112,40
3,73,0,120
3,76,112,40
3,76,0,120
3,76,112,40
3,76,0,120
3,76,112,40
3,76,0,160
3,78,112,0
3,78,0,280
3,76,112,40
3,76,0,360
3,76,112,120
3,76,0,140
3,74,112,20
3,74,0,560
3,71,112,2960
3,71,0,120
3,78,112,40
3,78,0,40
3,79,112,5
3,79,0,315
3,79,112,120
3,79,0,270
3,78,112,10
3,78,0,160
3,76,112,40
3,76,0,280
3,76,112,40
3,76,0,160
3,71,112,800
3,71,0,120
3,73,112,40
3,73,0,120
3,76,112,40
3,76,0,120
3,76,112,40
3,76,0,120
3,76,112,40
3,76,0,160
3,78,112,0
3,78,0,280
3,74,112,40
3,74,0,40
3,76,112,0
3,76,0,320
3,76,112,120
3,76,0,160
3,74,112,0
3,74,0,560
3,71,112,2960
3,71,0,120
3,78,112,40
3,78,0,280
3,78,112,40
3,78,0,120
3,78,112,40
3,78,0,360
3,78,112,120
3,78,0,160
3,80,112,0
3,80,0,280
3,71,112,360
3,71,0,120
3,74,112,40
3,74,0,40
3,76,112,0
3,76,0,320
3,76,112,120
3,76,0,360
3,76,112,120
3,76,0,40
3,78,112,0
3,78,0,280
3,73,112,0
3,73,0,120
3,76,112,40
3,76,0,280
3,76,112,40
3,76,0,440
3,71,112,3400
3,71,0,120
3,78,112,40
3,78,0,20
3,79,112,10
3,79,0,195
3,79,112,15
3,79,0,80
3,81,112,0
3,81,0,120
3,79,112,40
3,79,0,280
3,78,112,40
3,78,0,120
3,76,112,40
3,76,0,360
3,71,112,1080
3,71,0,30
3,73,112,10
3,73,0,240
3,76,112,40
3,76,0,120
3,76,112,40
3,76,0,30
3,78,112,10
3,78,0,80
3,76,112,40
3,76,0,120
3,73,112,40
3,73,0,120
3,73,112,40
3,73,0,40
3,76,112,0
3,76,0,320
3,73,112,120
3,73,0,80
3,71,112,0
3,71,0,360
3,71,112,3240
3,71,0,120
3,78,112,40
3,78,0,30
3,79,112,10
3,79,0,190
3,79,112,10
3,79,0,80
3,80,112,0
3,80,0,120
3,79,112,40
3,79,0,280
3,78,112,40
3,78,0,120
3,76,112,40
3,76,0,360
3,71,112,1080
3,71,0,25
3,73,112,10
3,73,0,245
3,76,112,40
3,76,0,120
3,76,112,40
3,76,0,25
3,78,112,10
3,78,0,245
3,73,112,40
3,73,0,120
3,74,112,40
3,74,0,40
3,76,112,15
3,76,0,305
3,73,112,120
3,73,0,40
3,71,112,15
3,71,0,425
3,78,112,2720
3,78,0,35
3,79,112,10
3,79,0,235
3,79,112,40
3,79,0,120
3,79,112,40
3,79,0,120
3,78,112,40
3,78,0,140
3,78,112,40
3,78,0,100
3,78,112,40
3,78,0,120
3,78,112,40
3,78,0,60
3,78,112,20
3,78,0,60
3,78,112,20
3,78,0,90
3,78,112,20
3,78,0,55
3,78,112,20
3,78,0,110
3,78,112,25
3,78,0,60
3,79,112,15
3,79,0,205
3,76,112,40
3,76,0,120
3,73,112,840
3,73,0,120
3,76,112,40
3,76,0,120
3,76,112,40
3,76,0,120
3,76,112,40
3,76,0,30
3,78,112,10
3,78,0,80
3,73,112,40
3,73,0,120
3,73,112,40
3,73,0,280
3,76,112,40
3,76,0,120
3,76,112,40
3,76,0,120
3,76,112,40
3,76,0,160
3,74,112,0
3,74,0,360
3,78,112,26520
3,78,0,20
3,79,112,0
3,79,0,40
3,79,112,20
3,79,0,320
3,79,112,80
3,79,0,280
3,79,112,40
3,79,0,240
3,79,112,40
3,79,0,320
3,76,112,40
3,76,0,360
3,71,112,440
3,71,0,40
3,73,112,10
3,73,0,230
3,74,112,40
3,74,0,40
3,76,112,10
3,76,0,230
3,76,112,40
3,76,0,40
3,79,112,10
3,79,0,270
3,80,112,20
3,80,0,100
3,74,112,40
3,74,0,40
3,76,112,10
3,76,0,230
3,76,112,40
3,76,0,205
3,76,112,35
3,76,0,15
3,74,112,15
3,74,0,355
3,76,112,3215
3,76,0,20
3,79,112,10
3,79,0,90
3,79,112,40
3,79,0,280
3,79,112,40
3,79,0,240
3,79,112,70
3,79,0,320
3,76,112,20
3,76,0,90
3,81,112,60
3,81,0,320
3,73,112,960
3,73,0,280
3,76,112,40
3,76,0,280
3,76,112,40
3,76,0,40
3,79,112,0
3,79,0,240
3,76,112,40
3,76,0,200
3,76,112,40
3,76,0,360
3,76,112,40
3,76,0,15
3,74,112,15
3,74,0,250
3,76,112,2760
3,76,0,20
3,79,112,0
3,79,0,100
3,79,112,40
3,79,0,120
3,79,112,40
3,79,0,120
3,78,112,40
3,78,0,440
3,78,112,40
3,78,0,120
3,78,112,40
3,78,0,120
3,78,112,40
3,78,0,120
3,78,112,40
3,78,0,20
3,80,112,0
3,80,0,100
3,71,112,40
3,71,0,480
3,73,112,800
3,73,0,120
3,76,112,40
3,76,0,280
3,78,112,40
3,78,0,120
3,73,112,40
3,73,0,150
3,76,112,10
3,76,0,280
3,76,112,40
3,76,0,280
3,76,112,40
3,76,0,150
3,74,112,10
3,74,0,480
3,74,112,2080
3,74,0,120
3,71,112,40
3,71,0,110
3,78,112,24050
3,78,0,20
3,79,112,10
3,79,0,195
3,79,112,15
3,79,0,80
3,81,112,0
3,81,0,120
3,79,112,40
3,79,0,280
3,78,112,40
3,78,0,120
3,76,112,40
3,76,0,360
3,71,112,1080
3,71,0,30
3,73,112,10
3,73,0,240
3,76,112,40
3,76,0,120
3,76,112,40
3,76,0,30
3,78,112,10
3,78,0,80
3,76,112,40
3,76,0,120
3,73,112,40
3,73,0,120
3,73,112,40
3,73,0,40
3,76,112,0
3,76,0,320
3,73,112,120
3,73,0,80
3,71,112,0
3,71,0,360
3,71,112,3240
3,71,0,120
3,78,112,40
3,78,0,30
3,79,112,10
3,79,0,190
3,79,112,10
3,79,0,80
3,80,112,0
3,80,0,120
3,79,112,40
3,79,0,280
3,78,112,40
3,78,0,120
3,76,112,40
3,76,0,360
3,71,112,1080
3,71,0,25
3,73,112,10
3,73,0,245
3,76,112,40
3,76,0,120
3,76,112,40
3,76,0,25
3,78,112,10
3,78,0,245
3,73,112,40
3,73,0,120
3,74,112,40
3,74,0,40
3,76,112,15
3,76,0,305
3,73,112,120
3,73,0,40
3,71,112,15
3,71,0,425
3,78,112,2720
3,78,0,35
3,79,112,10
3,79,0,235
3,79,112,40
3,79,0,120
3,79,112,40
3,79,0,120
3,78,112,40
3,78,0,140
3,78,112,40
3,78,0,100
3,78,112,40
3,78,0,120
3,78,112,40
3,78,0,60
3,78,112,20
3,78,0,60
3,78,112,20
3,78,0,90
3,78,112,20
3,78,0,55
3,78,112,20
3,78,0,110
3,78,112,25
3,78,0,60
3,79,112,15
3,79,0,205
3,76,112,40
3,76,0,120
3,73,112,840
3,73,0,120
3,76,112,40
3,76,0,120
3,76,112,40
3,76,0,120
3,76,112,40
3,76,0,30
3,78,112,10
3,78,0,80
3,73,112,40
3,73,0,120
3,73,112,40
3,73,0,280
3,76,112,40
3,76,0,120
3,76,112,40
3,76,0,120
3,76,112,40
3,76,0,160
3,74,112,0
3,74,0,360
4,71,100,1414
4,71,0,120
4,74,100,40
4,74,0,5
4,76,100,30
4,76,0,120
4,79,100,40
4,79,0,10
4,76,100,0
4,76,0,120
4,74,100,40
4,74,0,120
4,76,100,40
4,76,0,120
4,79,100,40
4,79,0,5
4,76,100,30
4,76,0,120
4,71,100,40
4,71,0,120
4,69,100,40
4,69,0,120
4,68,100,40
4,68,0,120
4,64,100,40
4,64,0,120
4,71,100,40
4,64,100,0
4,76,100,0
4,68,100,0
4,68,0,280
4,71,0,0
4,64,0,0
4,76,0,0
4,57,100,40
4,57,0,120
4,59,100,40
4,63,100,0
4,75,100,0
4,75,0,80
4,63,0,200
4,59,0,0
4,59,100,40
4,63,100,0
4,75,100,0
4,75,0,80
4,63,0,360
4,59,0,0
4,59,100,40
4,59,0,120
4,62,100,40
4,62,0,120
4,63,100,40
4,63,0,120
4,64,100,40
4,64,0,120
4,52,100,40
4,59,100,0
4,59,0,280
4,52,0,0
4,52,100,40
4,52,0,120
4,52,100,40
4,61,100,0
4,61,0,280
4,52,0,0
4,52,100,40
4,52,0,120
4,52,100,40
4,59,100,0
4,59,0,280
4,52,0,0
4,52,100,40
4,52,0,120
4,52,100,40
4,61,100,0
4,61,0,280
4,52,0,0
4,52,100,40
4,52,0,40
4,62,100,10
4,52,100,0
4,52,0,360
4,62,0,0
4,61,100,120
4,52,100,0
4,52,0,360
4,61,0,0
4,52,100,120
4,59,100,0
4,59,0,280
4,52,0,0
4,52,100,40
4,52,0,120
4,62,100,40
4,62,0,120
4,61,100,40
4,61,0,120
4,57,100,40
4,57,0,120
4,57,100,40
4,64,100,0
4,64,0,280
4,57,0,0
4,57,100,40
4,57,0,120
4,57,100,40
4,66,100,0
4,66,0,280
4,57,0,0
4,57,100,40
4,57,0,120
4,57,100,40
4,64,100,0
4,64,0,280
4,57,0,0
4,57,100,40
4,69,100,0
4,69,0,80
4,57,0,40
4,57,100,40
4,66,100,0
4,78,100,0
4,78,0,60
4,66,0,220
4,57,0,0
4,64,100,40
4,64,0,120
4,52,100,40
4,59,100,0
4,59,0,280
4,52,0,0
4,52,100,40
4,52,0,120
4,52,100,40
4,61,100,0
4,61,0,280
4,52,0,0
4,52,100,40
4,52,0,120
4,52,100,40
4,62,100,0
4,62,0,280
4,52,0,0
4,52,100,40
4,52,0,120
4,57,100,40
4,64,100,0
4,64,0,60
4,57,0,0
4,69,100,100
4,64,100,0
4,64,0,120
4,69,0,0
4,57,100,40
4,64,100,0
4,64,0,120
4,57,0,0
4,67,100,40
4,67,0,5
4,68,100,5
4,68,0,5
4,67,100,5
4,67,0,5
4,71,100,35
4,76,100,0
4,76,0,120
4,71,0,0
4,54,100,40
4,61,100,0
4,61,0,280
4,54,0,0
4,52,100,40
4,52,0,120
4,52,100,40
4,59,100,0
4,59,0,280
4,52,0,0
4,52,100,40
4,52,0,120
4,55,100,40
4,55,0,120
4,57,100,40
4,64,100,0
4,64,0,120
4,57,0,0
4,57,100,40
4,66,100,0
4,66,0,120
4,57,0,0
4,57,100,40
4,64,100,0
4,64,0,280
4,57,0,0
4,57,100,40
4,57,0,120
4,60,100,40
4,64,100,0
4,64,0,280
4,60,0,0
4,61,100,40
4,61,0,120
4,69,100,40
4,81,100,0
4,64,100,0
4,69,100,0
4,81,0,40
4,69,0,240
4,64,0,0
4,69,0,0
4,57,100,40
4,57,0,120
4,66,100,40
4,66,0,120
4,67,100,40
4,67,0,120
4,66,100,40
4,66,0,120
4,57,100,40
4,64,100,0
4,64,0,280
4,57,0,0
4,57,100,40
4,57,0,120
4,66,100,40
4,57,100,0
4,57,0,280
4,66,0,0
4,57,100,40
4,57,0,120
4,57,100,40
4,64,100,0
4,64,0,280
4,57,0,0
4,57,100,40
4,57,0,120
4,57,100,40
4,66,100,0
4,66,0,280
4,57,0,0
4,57,100,40
4,57,0,120
4,52,100,40
4,59,100,0
4,59,0,280
4,52,0,0
4,52,100,40
4,52,0,120
4,52,100,40
4,61,100,0
4,61,0,280
4,52,0,0
4,52,100,40
4,52,0,120
4,52,100,40
4,59,100,0
4,59,0,280
4,52,0,0
4,52,100,40
4,52,0,120
4,59,100,40
4,59,0,120
4,69,100,40
4,69,0,120
4,59,100,40
4,59,0,120
4,67,100,40
4,67,0,5
4,68,100,5
4,68,0,5
4,67,100,5
4,67,0,5
4,52,100,30
4,52,0,120
4,61,100,40
4,61,0,280
4,52,100,40
4,52,0,120
4,52,100,40
4,59,100,0
4,59,0,280
4,52,0,0
4,52,100,40
4,52,0,120
4,52,100,40
4,61,100,0
4,61,0,280
4,52,0,0
4,52,100,40
4,52,0,120
4,59,100,40
4,59,0,280
4,69,100,40
4,69,0,280
4,71,100,40
4,71,0,280
4,71,100,40
4,71,0,280
4,69,100,40
4,69,0,440
4,55,100,40
4,55,0,5
4,56,100,0
4,56,0,5
4,57,100,30
4,64,100,0
4,64,0,280
4,57,0,0
4,57,100,40
4,64,100,0
4,64,0,120
4,57,0,0
4,66,100,40
4,57,100,0
4,57,0,280
4,66,0,0
4,57,100,40
4,57,0,120
4,57,100,40
4,67,100,0
4,67,0,360
4,57,0,0
4,57,100,120
4,66,100,0
4,66,0,280
4,57,0,0
4,57,100,40
4,57,0,120
4,52,100,40
4,59,100,0
4,59,0,280
4,52,0,0
4,52,100,40
4,52,0,120
4,52,100,40
4,61,100,0
4,61,0,280
4,52,0,0
4,52,100,40
4,52,0,120
4,52,100,40
4,59,100,0
4,59,0,280
4,52,0,0
4,52,100,40
4,52,0,120
4,52,100,40
4,59,100,0
4,59,0,40
4,52,0,0
4,64,100,120
4,64,0,120
4,64,100,40
4,64,0,120
4,67,100,40
4,67,0,5
4,68,100,0
4,68,0,5
4,67,100,0
4,67,0,5
4,59,100,40
4,59,0,120
4,63,100,40
4,59,100,0
4,69,100,0
4,69,0,280
4,59,0,0
4,63,0,0
4,63,100,40
4,69,100,0
4,71,100,0
4,71,0,280
4,69,0,0
4,63,0,0
4,69,100,40
4,69,0,280
4,71,100,40
4,69,100,0
4,63,100,0
4,63,0,360
4,69,0,0
4,71,0,0
4,59,100,120
4,52,100,0
4,52,0,280
4,59,0,0
4,52,100,40
4,52,0,120
4,61,100,40
4,52,100,0
4,52,0,280
4,61,0,0
4,52,100,40
4,52,0,120
4,62,100,40
4,52,100,0
4,52,0,280
4,62,0,0
4,52,100,40
4,52,0,120
4,61,100,40
4,61,0,120
4,62,100,40
4,62,0,120
4,66,100,40
4,57,100,0
4,57,0,120
4,66,0,0
4,57,100,40
4,64,100,0
4,64,0,280
4,57,0,0
4,57,100,40
4,64,100,0
4,64,0,120
4,57,0,0
4,66,100,40
4,57,100,0
4,57,0,280
4,66,0,0
4,57,100,40
4,69,100,0
