track,note,velocity,time
1,33,110,0
1,33,0,60
1,33,110,0
1,33,0,40
1,33,110,80
1,33,0,300
1,33,110,0
1,33,0,60
1,33,110,0
1,33,0,40
1,33,110,80
1,33,0,300
1,33,110,0
1,33,0,60
1,33,110,0
1,33,0,40
1,33,110,80
1,33,0,117
1,30,90,3
1,30,0,60
1,31,90,0
1,31,0,8
1,32,90,52
1,32,0,60
1,33,110,0
1,33,0,60
1,33,110,120
1,33,0,300
1,33,110,0
1,33,0,60
1,33,110,0
1,33,0,40
1,33,110,80
1,33,0,117
1,37,90,3
1,37,0,60
1,36,90,0
1,36,0,60
1,37,90,0
1,37,0,60
1,38,110,0
1,38,0,60
1,38,110,120
1,38,0,117
1,36,90,3
1,36,0,60
1,33,90,0
1,33,0,60
1,36,90,0
1,36,0,60
1,38,110,0
1,38,0,60
1,38,110,0
1,38,0,40
1,38,110,80
1,38,0,50
1,38,110,70
1,38,0,180
1,33,110,0
1,33,0,60
1,33,110,120
1,33,0,177
1,28,110,3
1,28,0,8
1,30,90,52
1,30,0,60
1,33,110,0
1,33,0,60
1,33,110,120
1,33,0,300
1,28,110,0
1,28,0,60
1,28,110,120
1,28,0,300
1,38,110,0
1,38,0,60
1,38,110,0
1,38,0,40
1,38,110,80
1,38,0,117
1,31,90,3
1,31,0,8
1,32,90,112
1,32,0,60
1,33,110,0
1,33,0,60
1,33,110,0
1,33,0,40
1,33,110,80
1,33,0,300
1,33,110,0
1,33,0,60
1,33,110,0
1,33,0,40
1,33,110,80
1,33,0,300
1,33,110,0
1,33,0,60
1,33,110,0
1,33,0,40
1,33,110,80
1,33,0,177
1,31,90,3
1,31,0,60
1,32,90,0
1,32,0,8
1,33,110,52
1,33,0,60
1,33,110,0
1,33,0,40
1,33,110,80
1,33,0,50
1,33,110,70
1,33,0,180
1,33,110,0
1,33,0,60
1,33,110,0
1,33,0,40
1,33,110,80
1,33,0,50
1,33,110,70
1,33,0,180
1,33,110,0
1,33,0,60
1,33,110,0
1,33,0,40
1,33,110,80
1,33,0,50
1,33,110,70
1,33,0,180
1,38,110,0
1,38,0,60
1,38,110,0
1,38,0,40
1,38,110,80
1,38,0,177
1,33,90,3
1,33,0,20
1,35,90,40
1,35,0,60
1,38,110,0
1,38,0,60
1,38,110,0
1,38,0,40
1,38,110,80
1,38,0,117
1,30,90,3
1,30,0,8
1,31,90,52
1,31,0,60
1,32,90,0
1,32,0,20
1,33,110,40
1,33,0,60
1,33,110,120
1,33,0,300
1,33,110,0
1,33,0,60
1,33,110,120
1,33,0,57
1,33,110,3
1,33,0,60
1,31,90,0
1,31,0,60
1,30,90,0
1,30,0,60
1,29,90,0
1,29,0,60
1,28,110,0
1,28,0,60
1,28,110,0
1,28,0,40
1,32,110,80
1,32,0,8
1,35,90,52
1,35,0,60
1,37,90,0
1,37,0,60
1,40,90,0
1,40,0,20
1,37,90,40
1,37,0,60
1,38,110,0
1,38,0,60
1,38,110,120
1,38,0,117
1,30,90,3
1,30,0,8
1,28,90,52
1,28,0,60
1,30,90,0
1,30,0,60
1,33,110,0
1,33,0,60
1,33,110,0
1,33,0,40
1,33,110,80
1,33,0,50
1,33,110,70
1,33,0,180
1,33,110,0
1,33,0,60
1,33,110,0
1,33,0,40
1,33,110,80
1,33,0,50
1,33,110,70
1,33,0,180
1,33,110,0
1,33,0,60
1,33,110,0
1,33,0,40
1,33,110,80
1,33,0,300
1,33,110,0
1,33,0,60
1,33,110,120
1,33,0,300
1,33,110,0
1,33,0,60
1,33,110,120
1,33,0,237
1,32,90,3
1,32,0,60
1,33,110,0
1,33,0,60
1,33,110,0
1,33,0,40
1,33,110,80
1,33,0,50
1,33,110,70
1,33,0,180
1,38,110,0
1,38,0,60
1,38,110,120
1,38,0,117
1,33,90,3
1,33,0,60
1,36,90,0
1,36,0,60
1,37,90,0
1,37,0,60
1,38,110,0
1,38,0,60
1,38,110,0
1,38,0,40
1,38,110,80
1,38,0,50
1,38,110,70
1,38,0,180
1,33,110,0
1,33,0,60
1,33,110,120
1,33,0,300
1,33,110,0
1,33,0,60
1,33,110,0
1,33,0,40
1,33,110,80
1,33,0,50
1,33,110,70
1,33,0,180
1,28,110,0
1,28,0,60
1,28,110,0
1,28,0,40
1,28,110,80
1,28,0,300
1,38,110,0
1,38,0,60
1,38,110,0
1,38,0,40
1,38,110,80
1,38,0,50
1,38,110,70
1,38,0,57
1,31,90,3
1,31,0,60
1,32,90,0
1,32,0,60
1,33,110,0
1,33,0,60
1,33,110,0
1,33,0,40
1,33,110,80
1,33,0,300
1,33,110,0
1,33,0,60
1,33,110,0
1,33,0,40
1,33,110,80
1,33,0,50
1,33,110,70
1,33,0,180
1,33,110,0
1,33,0,60
1,33,110,0
1,33,0,40
1,33,110,80
1,33,0,300
1,33,110,0
1,33,0,60
1,33,110,0
1,33,0,40
1,33,110,80
1,33,0,57
1,35,110,3
1,35,0,20
1,33,90,40
1,33,0,60
1,31,90,0
1,31,0,60
1,32,90,0
1,32,0,60
1,33,110,0
1,33,0,60
1,33,110,0
1,33,0,40
1,33,110,80
1,33,0,50
1,33,110,70
1,33,0,180
1,33,110,0
1,33,0,60
1,33,110,0
1,33,0,40
1,40,90,80
1,40,0,60
1,37,110,0
1,37,0,20
1,36,90,40
1,36,0,120
1,37,90,0
1,37,0,20
1,38,110,40
1,38,0,60
1,38,110,0
1,38,0,40
1,38,110,80
1,38,0,57
1,30,90,3
1,30,0,8
1,33,90,52
1,33,0,60
1,36,90,0
1,36,0,60
1,37,90,0
1,37,0,60
1,38,110,0
1,38,0,60
1,38,110,0
1,38,0,40
1,38,110,80
1,38,0,50
1,38,110,70
1,38,0,180
1,33,110,0
1,33,0,60
1,33,110,0
1,33,0,40
1,33,110,80
1,33,0,50
1,33,110,70
1,33,0,180
1,33,110,0
1,33,0,60
1,33,110,120
1,33,0,300
1,28,110,0
1,28,0,60
1,28,110,0
1,28,0,40
1,28,110,80
1,28,0,117
1,35,90,3
1,35,0,60
1,36,90,0
1,36,0,60
1,37,90,0
1,37,0,60
1,38,110,0
1,38,0,60
1,38,110,0
1,38,0,40
1,38,110,80
1,38,0,57
1,33,110,3
1,33,0,60
1,30,90,0
1,30,0,60
1,31,90,0
1,31,0,60
1,32,90,0
1,32,0,60
1,33,110,0
1,33,0,60
1,33,110,0
1,33,0,40
1,33,110,80
1,33,0,50
1,33,110,70
1,33,0,180
1,33,110,0
1,33,0,60
1,33,110,120
1,33,0,300
1,33,110,0
1,33,0,60
1,33,110,0
1,33,0,40
1,33,110,80
1,33,0,237
1,32,90,3
1,32,0,8
1,33,110,52
1,33,0,60
1,33,110,0
1,33,0,40
1,33,110,80
1,33,0,50
1,33,110,70
1,33,0,180
1,33,110,0
1,33,0,60
1,33,110,120
1,33,0,117
1,31,90,3
1,31,0,120
1,32,90,0
1,32,0,60
1,33,110,0
1,33,0,60
1,33,110,120
1,33,0,237
1,37,90,3
1,37,0,8
1,38,110,52
1,38,0,60
1,38,110,0
1,38,0,40
1,38,110,80
1,38,0,50
1,38,110,70
1,38,0,180
1,38,110,0
1,38,0,60
1,38,110,0
1,38,0,40
1,38,110,80
1,38,0,237
1,30,90,3
1,30,0,60
1,33,110,0
1,33,0,60
1,33,110,120
1,33,0,300
1,33,110,0
1,33,0,60
1,33,110,120
1,33,0,177
1,30,90,3
1,30,0,60
1,29,90,0
1,29,0,60
1,28,110,0
1,28,0,60
1,28,110,120
1,28,0,177
1,35,90,3
1,35,0,8
1,37,90,52
1,37,0,60
1,38,110,0
1,38,0,60
1,38,110,0
1,38,0,40
1,38,110,80
1,38,0,50
1,30,90,70
1,30,0,60
1,31,90,0
1,31,0,60
1,32,90,0
1,32,0,60
1,33,110,0
1,33,0,60
1,33,110,120
1,33,0,300
1,33,110,0
1,33,0,60
1,33,110,120
1,33,0,117
1,30,90,3
1,30,0,8
1,31,90,52
1,31,0,8
1,32,90,52
1,32,0,60
1,33,110,0
1,33,0,60
1,33,110,0
1,33,0,40
1,33,110,80
1,33,0,50
1,33,110,70
1,33,0,180
1,33,110,0
1,33,0,60
1,33,110,120
1,33,0,300
1,33,110,0
1,33,0,60
1,33,110,0
1,33,0,40
1,33,110,80
1,33,0,117
1,37,90,3
1,37,0,8
1,33,90,52
1,33,0,60
1,31,90,0
1,31,0,60
1,33,110,0
1,33,0,60
1,33,110,0
1,33,0,40
1,33,110,80
1,33,0,50
1,33,90,70
1,33,0,60
1,36,90,0
1,36,0,60
1,37,90,0
1,37,0,60
1,38,110,0
1,38,0,60
1,38,110,120
1,38,0,57
1,38,110,3
1,38,0,60
1,35,90,0
1,35,0,60
1,36,90,0
1,36,0,8
1,37,90,52
1,37,0,60
1,38,110,0
1,38,0,60
1,38,110,120
1,38,0,57
1,28,90,3
1,28,0,60
1,30,90,0
1,30,0,60
1,31,90,0
1,31,0,60
1,32,90,0
1,32,0,60
1,33,110,0
1,33,0,60
1,33,110,0
1,33,0,40
1,33,110,80
1,33,0,50
1,33,110,70
1,33,0,180
1,33,110,0
1,33,0,60
1,33,110,0
1,33,0,40
1,33,110,80
1,33,0,50
1,33,110,70
1,33,0,180
1,28,110,0
1,28,0,60
1,28,110,0
1,28,0,40
1,28,110,80
1,28,0,50
1,28,110,70
1,28,0,57
1,36,90,3
1,36,0,60
1,37,90,0
1,37,0,60
1,38,110,0
1,38,0,60
1,38,110,0
1,38,0,40
1,38,110,80
1,38,0,50
1,38,110,70
1,38,0,57
1,31,90,3
1,31,0,60
1,32,90,0
1,32,0,20
1,33,110,40
1,33,0,60
1,33,110,0
1,33,0,40
1,33,110,80
1,33,0,300
1,33,110,0
1,33,0,60
1,33,110,120
1,33,0,177
1,31,90,3
1,31,0,60
1,32,90,0
1,32,0,60
1,33,110,0
1,33,0,60
1,33,110,120
1,33,0,300
1,33,110,0
1,33,0,60
1,33,110,120
1,33,0,177
1,31,90,3
1,31,0,60
1,32,90,0
1,32,0,60
1,33,110,0
1,33,0,60
1,33,110,0
1,33,0,40
1,33,110,80
1,33,0,57
1,30,110,3
1,30,0,60
1,28,90,0
1,28,0,20
1,30,90,100
1,30,0,8
1,33,110,52
1,33,0,60
1,33,110,0
1,33,0,40
1,31,90,80
1,31,0,60
1,28,90,0
1,28,0,60
1,31,90,0
1,31,0,60
1,33,110,0
1,33,0,60
1,37,90,0
1,37,0,8
1,38,110,52
1,38,0,60
1,38,110,0
1,38,0,40
1,38,110,80
1,38,0,300
1,38,110,0
1,38,0,60
1,38,110,120
1,38,0,177
1,31,90,3
1,31,0,8
1,32,90,52
1,32,0,60
1,33,110,0
1,33,0,60
1,33,110,0
1,33,0,40
1,33,110,80
1,33,0,50
1,33,110,70
1,33,0,180
1,33,110,0
1,33,0,60
1,33,110,120
1,33,0,177
1,30,90,3
1,30,0,60
1,29,90,0
1,29,0,60
1,28,110,0
1,28,0,60
1,28,110,0
1,28,0,40
1,28,110,80
1,28,0,50
1,28,110,70
1,28,0,57
1,36,90,3
1,36,0,8
1,37,90,52
1,37,0,60
1,38,110,0
1,38,0,60
1,38,110,0
1,38,0,40
1,38,110,80
1,38,0,57
1,33,90,3
1,33,0,60
1,30,90,0
1,30,0,60
1,31,90,0
1,31,0,60
1,32,90,0
1,32,0,60
1,33,110,0
1,33,0,60
1,33,110,0
1,33,0,40
1,33,110,80
1,33,0,50
1,33,110,70
1,33,0,180
1,33,110,0
1,33,0,60
1,33,110,0
1,33,0,40
1,33,110,80
1,33,0,50
1,33,110,70
1,33,0,180
1,33,110,0
1,33,0,60
1,33,110,0
1,33,0,40
1,33,110,80
1,33,0,50
1,33,110,70
1,33,0,180
1,33,110,0
1,33,0,60
1,33,110,0
1,33,0,40
1,33,110,80
1,33,0,300
1,33,110,0
1,33,0,60
1,33,110,0
1,33,0,40
1,33,110,80
1,33,0,117
1,30,90,3
1,30,0,60
1,31,90,0
1,31,0,8
1,32,90,52
1,32,0,60
1,33,110,0
1,33,0,60
1,33,110,120
1,33,0,177
1,35,110,3
1,35,0,60
1,37,90,0
1,37,0,20
1,38,110,40
1,38,0,60
1,38,110,0
1,38,0,40
1,38,110,80
1,38,0,117
1,35,90,3
1,35,0,8
1,36,90,52
1,36,0,20
1,37,90,40
1,37,0,60
1,38,110,0
1,38,0,60
1,38,110,0
1,38,0,40
1,38,110,80
1,38,0,117
1,30,90,3
1,30,0,60
1,31,90,0
1,31,0,8
1,32,90,52
1,32,0,60
1,33,110,0
1,33,0,60
1,33,110,0
1,33,0,40
1,33,110,80
1,33,0,57
1,28,90,3
1,28,0,8
1,30,90,52
1,30,0,60
1,31,90,0
1,31,0,60
1,32,90,0
1,32,0,60
1,33,110,0
1,33,0,60
1,33,110,0
1,33,0,40
1,33,110,80
1,33,0,300
1,28,110,0
1,28,0,60
1,28,110,120
1,28,0,237
1,37,90,3
1,37,0,60
1,38,110,0
1,38,0,60
1,38,110,0
1,38,0,40
1,35,90,80
1,35,0,60
1,33,110,0
1,33,0,8
1,30,90,52
1,30,0,60
1,28,90,0
1,28,0,8
1,30,90,52
1,30,0,60
1,33,110,0
1,33,0,60
1,33,110,120
1,33,0,300
1,33,110,0
1,33,0,60
1,33,110,0
1,33,0,40
1,33,110,80
1,33,0,50
1,33,110,70
1,33,0,180
1,33,110,0
1,33,0,60
1,33,110,0
1,33,0,40
1,33,110,80
1,33,0,117
1,30,90,3
1,30,0,8
1,31,90,52
1,31,0,60
1,32,90,0
1,32,0,8
1,33,110,52
1,33,0,60
1,33,110,120
1,33,0,177
1,31,90,3
1,31,0,8
1,32,90,52
1,32,0,8
1,33,110,52
1,33,0,60
1,33,110,120
1,33,0,300
1,33,110,0
1,33,0,60
1,33,110,120
1,33,0,117
1,35,90,3
1,35,0,60
1,36,90,0
1,36,0,8
1,37,90,52
1,37,0,60
1,38,110,0
1,38,0,60
1,38,110,0
1,38,0,40
1,38,110,80
1,38,0,300
1,38,110,0
1,38,0,60
1,38,110,120
1,38,0,237
1,30,90,3
1,30,0,60
1,33,110,0
1,33,0,60
1,33,110,0
1,33,0,40
1,33,110,80
1,33,0,50
1,33,110,70
1,33,0,180
1,33,110,0
1,33,0,60
1,33,110,0
1,33,0,40
1,33,110,80
1,33,0,57
1,33,110,3
1,33,0,8
1,31,90,52
1,31,0,60
1,30,90,0
1,30,0,60
1,29,90,0
1,29,0,60
1,28,110,0
1,28,0,60
1,28,110,0
1,28,0,40
1,28,110,80
1,28,0,50
1,28,110,70
1,28,0,180
1,38,110,0
1,38,0,60
1,38,110,0
1,38,0,40
1,38,110,80
1,38,0,50
1,38,110,70
1,38,0,180
1,33,110,0
1,33,0,60
1,33,110,0
1,33,0,40
1,33,110,80
1,33,0,50
1,33,110,70
1,33,0,180
1,33,110,0
1,33,0,60
1,33,110,0
1,33,0,40
1,33,110,80
1,33,0,300
1,33,99,0
1,33,0,60
1,33,96,0
1,33,0,40
1,33,92,80
1,33,0,300
1,33,79,0
1,33,0,60
1,33,77,0
1,33,0,40
1,33,71,80
1,33,0,300
1,33,59,0
1,33,0,60
1,33,57,0
1,33,0,40
1,33,51,80
1,33,0,50
1,33,47,70
1,33,0,180
1,33,39,0
1,33,0,60
1,33,37,0
1,33,0,40
1,33,31,80
1,33,0,50
1,33,26,70
1,33,0,180
1,38,19,0
1,38,0,60
1,38,16,0
1,38,0,40
1,38,12,80
1,38,0,50
1,38,6,70
1,38,0,180
2,69,100,6180
2,69,0,30
2,69,100,0
2,69,0,30
2,72,100,0
2,72,0,120
2,72,100,0
2,72,0,120
2,69,100,0
2,69,0,120
2,72,100,180
2,72,0,60
2,74,100,0
2,74,0,60
2,76,100,0
2,76,0,120
2,74,100,0
2,74,0,30
2,72,100,0
2,72,0,30
2,74,100,0
2,74,0,120
2,69,100,0
2,69,0,60
2,69,100,0
2,69,0,180
2,69,100,660
2,69,0,30
2,69,100,0
2,69,0,30
2,72,100,0
2,72,0,120
2,72,100,0
2,72,0,120
