track,note,velocity,time
3,40,100,480
3,55,100,43
3,47,100,17
3,56,100,0
3,55,0,13
3,40,0,47
3,40,100,60
3,42,100,60
3,52,100,0
3,57,100,0
3,40,0,60
3,56,0,0
3,47,0,0
3,42,100,60
3,50,100,60
3,59,100,0
3,43,100,0
3,42,0,60
3,42,0,0
3,57,0,0
3,52,0,0
3,43,100,60
3,43,100,60
3,57,100,30
3,43,0,30
3,43,0,0
3,43,0,0
3,59,0,0
3,50,0,0
3,50,100,0
3,57,0,30
3,59,100,30
3,50,0,60
3,50,100,0
3,59,0,60
3,57,100,0
3,50,0,60
3,59,100,0
3,57,0,60
3,43,100,0
3,59,0,60
3,50,100,0
3,59,100,0
3,43,0,60
3,43,100,60
3,42,100,60
3,57,100,0
3,52,100,0
3,43,0,60
3,50,0,0
3,59,0,0
3,42,100,60
3,55,100,48
3,47,100,12
3,56,100,2
3,55,0,1
3,42,0,57
3,52,0,0
3,42,0,0
3,57,0,0
3,64,100,60
3,59,100,90
3,47,0,30
3,40,100,0
3,56,0,2
3,59,0,28
3,64,0,30
3,64,100,0
3,40,0,60
3,40,100,0
3,64,0,60
3,59,100,0
3,40,0,60
3,64,100,0
3,59,0,60
3,40,100,0
3,55,100,43
3,64,0,17
3,47,100,0
3,56,100,0
3,55,0,13
3,40,0,47
3,40,100,60
3,42,100,60
3,52,100,0
3,57,100,0
3,40,0,60
3,56,0,0
3,47,0,0
3,42,100,60
3,50,100,60
3,59,100,0
3,43,100,0
3,42,0,60
3,42,0,0
3,57,0,0
3,52,0,0
3,43,100,67
3,50,100,52
3,57,100,60
3,43,0,1
3,59,0,0
3,50,0,0
3,43,0,7
3,50,0,52
3,59,100,58
3,50,100,64
3,59,0,56
3,43,100,0
3,57,0,2
3,43,100,61
3,50,0,1
3,43,0,56
3,50,100,2
3,59,100,7
3,43,0,54
3,43,100,58
3,42,100,55
3,57,100,4
3,52,100,7
3,43,0,54
3,50,0,1
3,59,0,7
3,52,100,24
3,42,100,30
3,52,0,30
3,42,0,23
3,57,0,4
3,57,100,1
3,54,100,2
3,59,100,0
3,64,100,0
3,52,0,4
3,47,100,0
3,42,0,56
3,57,0,418
3,59,0,2
3,54,0,0
3,64,0,0
3,47,0,4
3,40,100,56
3,56,100,60
3,47,100,4
3,40,0,56
3,40,100,60
3,49,100,56
3,57,100,0
3,40,0,64
3,56,0,0
3,47,0,4
3,40,100,55
3,50,100,57
3,59,100,4
3,57,0,56
3,49,0,0
3,40,0,3
3,64,100,61
3,59,100,90
3,50,0,26
3,59,0,4
3,50,100,2
3,59,0,28
3,64,0,30
3,64,100,4
3,50,100,56
3,50,0,2
3,59,100,29
3,59,100,26
3,50,0,3
3,64,0,4
3,59,0,27
3,59,100,30
3,59,0,56
3,40,100,3
3,50,100,53
3,59,100,7
3,59,0,1
3,40,0,59
3,40,100,60
3,57,100,60
3,49,100,4
3,50,0,49
3,59,0,7
3,40,0,0
3,40,100,58
3,55,100,41
3,56,100,22
3,47,100,6
3,55,0,2
3,40,0,49
3,57,0,2
3,49,0,4
3,64,100,56
3,40,100,60
3,64,0,60
3,59,100,0
3,56,0,1
3,47,0,6
3,40,0,53
3,40,100,0
3,59,0,60
3,64,100,0
3,40,0,60
3,40,100,0
3,64,0,60
3,56,100,0
3,40,0,60
3,40,100,0
3,56,0,60
3,47,100,0
3,56,100,0
3,40,0,60
3,40,100,60
3,49,100,64
3,57,100,0
3,40,0,56
3,47,0,0
3,56,0,0
3,40,100,53
3,59,100,71
3,50,100,3
3,40,0,46
3,57,0,11
3,49,0,0
3,64,100,59
3,59,100,87
3,50,100,28
3,59,0,6
3,50,0,3
3,59,0,23
3,64,100,28
3,64,0,5
3,50,0,55
3,50,100,7
3,59,100,25
3,59,100,27
3,64,0,1
3,50,0,7
3,59,0,25
3,59,100,27
3,59,0,60
3,40,100,3
3,59,100,56
3,59,0,1
3,50,100,3
3,40,0,60
3,40,100,58
3,49,100,62
3,57,100,4
3,59,0,52
3,40,0,2
3,50,0,2
3,40,100,55
3,55,100,46
3,56,100,12
3,47,100,3
3,55,0,15
3,40,0,44
3,49,0,5
3,57,0,4
3,64,100,56
3,40,100,60
3,56,0,53
3,47,0,3
3,64,0,4
3,56,100,0
3,40,0,60
3,56,100,1
3,40,100,57
3,56,0,2
3,56,0,61
3,52,100,59
3,45,100,60
3,52,100,56
3,40,0,2
3,52,0,2
3,61,100,7
3,45,0,53
3,45,100,57
3,54,100,56
3,62,100,7
3,52,0,56
3,45,0,1
3,61,0,10
3,45,100,52
3,64,100,58
3,55,100,1
3,54,0,55
3,45,0,6
3,62,0,1
3,64,100,63
3,45,100,56
3,64,0,58
3,55,0,1
3,55,100,3
3,64,0,2
3,45,0,56
3,64,100,2
3,55,0,60
3,45,100,0
3,52,100,30
3,55,100,26
3,45,0,4
3,64,0,0
3,52,0,30
3,55,100,27
3,55,0,59
3,45,100,3
3,55,100,56
3,55,0,2
3,64,100,6
3,45,0,56
3,45,100,59
3,54,100,61
3,62,100,7
3,55,0,49
3,45,0,3
3,64,0,5
3,45,100,55
3,61,100,60
3,52,100,1
3,45,0,59
3,54,0,1
3,62,0,7
3,45,100,51
3,52,100,59
3,45,0,61
3,61,0,1
3,61,100,0
3,52,0,1
3,52,0,57
3,45,100,121
3,47,100,58
3,45,0,62
3,40,100,2
3,47,0,56
3,47,100,2
3,61,0,1
3,56,100,2
3,40,0,59
3,40,100,64
3,57,100,55
3,49,100,1
3,47,0,58
3,56,0,3
3,40,0,3
3,64,100,53
3,50,100,59
3,59,100,4
3,64,0,57
3,57,0,2
3,49,0,1
3,64,100,60
3,59,100,88
3,50,0,28
3,50,100,0
3,59,0,4
3,59,0,28
3,64,0,32
3,64,100,2
3,50,0,54
3,50,100,0
3,59,100,33
3,59,100,26
3,50,0,1
3,64,0,6
3,59,0,27
3,64,100,29
3,59,0,57
3,40,100,5
3,50,100,56
3,64,0,2
3,59,100,9
3,40,0,53
3,40,100,58
3,57,100,55
3,49,100,9
3,50,0,54
3,40,0,2
3,59,0,9
3,63,100,106
3,60,100,3
3,54,100,1
3,42,100,3
3,68,100,4
3,63,0,109
3,60,0,3
3,54,0,1
3,42,0,3
3,42,100,0
3,54,100,0
3,60,100,0
3,63,100,0
3,68,100,0
3,68,0,4
3,57,0,49
3,63,0,7
3,68,0,0
3,42,0,0
3,54,0,0
3,60,0,0
3,42,100,0
3,54,100,0
3,60,100,0
3,63,100,0
3,68,100,0
3,49,0,2
3,68,100,52
3,54,100,3
3,42,100,2
3,54,0,1
3,63,0,0
3,42,0,0
3,60,0,0
3,68,0,0
3,60,100,3
3,63,100,0
3,68,0,111
3,54,0,3
3,60,100,1
3,68,100,0
3,42,0,1
3,63,100,0
3,54,100,1
3,42,100,1
3,60,0,2
3,63,0,0
3,54,100,54
3,60,100,0
3,63,100,0
3,68,0,1
3,60,0,0
3,63,0,1
3,42,100,0
3,54,0,1
3,68,100,0
3,42,0,1
3,60,0,116
3,63,0,0
3,54,0,0
3,42,0,2
3,68,0,1
3,42,100,0
3,49,100,0
3,52,100,0
3,57,100,0
3,61,100,0
3,66,100,0
3,66,0,60
3,49,0,0
3,52,0,0
3,42,0,0
3,61,0,0
3,57,0,0
3,42,100,0
3,49,100,0
3,52,100,0
3,57,100,0
3,61,100,0
3,66,100,0
3,66,0,60
3,49,0,0
3,52,0,0
3,42,0,0
3,61,0,0
3,57,0,0
3,42,100,0
3,49,100,0
3,52,100,0
3,57,100,0
3,61,100,0
3,66,100,0
3,66,0,120
3,49,0,0
3,52,0,0
3,42,0,0
3,61,0,0
3,57,0,0
3,44,100,0
3,54,100,0
3,60,100,0
3,63,100,0
3,68,100,0
3,68,0,60
3,60,0,0
3,44,0,0
3,54,0,0
3,63,0,0
3,44,100,0
3,54,100,0
3,60,100,0
3,63,100,0
3,68,100,0
3,68,0,60
3,60,0,0
3,44,0,0
3,54,0,0
3,63,0,0
3,44,100,0
3,54,100,0
3,60,100,0
3,63,100,0
3,68,100,0
3,68,100,57
3,68,0,3
3,63,0,0
3,60,0,0
3,44,0,0
3,54,0,0
3,61,100,0
3,64,100,0
3,49,100,3
3,52,100,0
3,56,100,0
3,68,0,114
3,61,0,3
3,64,0,0
3,49,100,0
3,52,100,0
3,56,100,0
3,61,100,0
3,64,100,0
3,49,0,3
3,56,0,0
3,52,0,0
3,68,100,4
3,56,0,53
3,49,0,0
3,52,0,0
3,64,0,0
3,61,0,0
3,64,100,0
3,61,100,0
3,56,100,0
3,52,100,0
3,49,100,0
3,68,100,0
3,68,0,7
3,49,0,53
3,61,0,0
3,56,0,0
3,64,0,0
3,68,0,0
3,52,0,0
3,64,100,0
3,61,100,0
3,56,100,0
3,52,100,0
3,49,100,0
3,68,100,0
3,68,0,60
3,61,0,0
3,56,0,0
3,64,0,0
3,49,0,0
3,52,0,0
3,49,100,0
3,52,100,0
3,56,100,0
3,61,100,0
3,64,100,0
3,68,100,0
3,68,0,90
3,52,0,0
3,56,0,0
3,49,0,0
3,64,0,0
3,61,0,0
3,49,100,0
3,52,100,0
3,56,100,0
3,61,100,0
3,64,100,0
3,68,100,0
3,68,0,30
3,52,0,0
3,56,0,0
3,49,0,0
3,64,0,0
3,61,0,0
3,49,100,0
3,52,100,0
3,56,100,0
3,61,100,0
3,64,100,0
3,68,100,0
3,68,0,60
3,52,0,0
3,56,0,0
3,49,0,0
3,64,0,0
3,61,0,0
3,64,100,0
3,61,100,0
3,56,100,0
3,52,100,0
3,49,100,0
3,68,100,0
3,68,0,60
3,61,0,0
3,56,0,0
3,64,0,0
3,49,0,0
3,52,0,0
3,51,100,0
3,57,100,0
3,61,100,0
3,66,100,0
3,66,0,90
3,51,0,0
3,57,0,0
3,61,0,0
3,51,100,0
3,57,100,0
3,61,100,0
3,66,100,0
3,66,0,30
3,51,0,0
3,57,0,0
3,61,0,0
3,51,100,0
3,57,100,0
3,61,100,0
3,66,100,0
3,66,0,60
3,51,0,0
3,57,0,0
3,61,0,0
3,51,100,0
3,57,100,0
3,61,100,0
3,66,100,0
3,66,0,60
3,51,0,0
3,57,0,0
3,61,0,0
3,44,100,0
3,54,100,0
3,60,100,0
3,63,100,0
3,68,100,0
3,68,0,90
3,60,0,0
3,44,0,0
3,54,0,0
3,63,0,0
3,44,100,0
3,54,100,0
3,60,100,0
3,63,100,0
3,68,100,0
3,68,0,30
3,60,0,0
3,44,0,0
3,54,0,0
3,63,0,0
3,44,100,0
3,54,100,0
3,60,100,0
3,63,100,0
3,68,100,0
3,68,0,60
3,60,0,0
3,44,0,0
3,54,0,0
3,63,0,0
3,63,100,0
3,60,100,0
3,54,100,0
3,44,100,0
3,68,100,0
3,68,0,60
3,54,0,0
3,63,0,0
3,60,0,0
3,44,0,0
3,49,100,0
3,52,100,0
3,56,100,0
3,59,100,0
3,64,100,0
3,68,100,0
3,68,0,60
3,52,0,0
3,56,0,0
3,49,0,0
3,64,0,0
3,59,0,0
3,49,100,0
3,52,100,0
3,56,100,0
3,59,100,0
3,64,100,0
3,68,100,0
3,68,0,60
3,52,0,0
3,56,0,0
3,49,0,0
3,64,0,0
3,59,0,0
3,68,100,0
3,64,100,0
3,59,100,0
3,56,100,0
3,52,100,0
3,49,100,0
3,52,100,53
3,49,100,5
3,49,0,2
3,56,0,0
3,68,0,0
3,64,0,0
3,59,0,0
3,52,0,0
3,56,100,0
3,64,100,0
3,68,100,0
3,59,100,4
3,52,0,109
3,49,0,5
3,68,0,2
3,64,0,0
3,56,0,0
3,49,100,0
3,52,100,0
3,56,100,0
3,59,100,0
3,64,100,0
3,68,100,0
3,59,0,4
3,64,0,56
3,52,0,0
3,56,0,0
3,49,0,0
3,68,0,0
3,59,0,0
3,49,100,0
3,52,100,0
3,56,100,0
3,59,100,0
3,64,100,0
3,68,100,0
3,68,0,60
3,52,0,0
3,56,0,0
3,49,0,0
3,64,0,0
3,59,0,0
3,68,100,0
3,64,100,0
3,59,100,0
3,56,100,0
3,52,100,0
3,49,100,0
3,49,0,60
3,64,0,0
3,59,0,0
3,68,0,0
3,52,0,0
3,56,0,0
3,51,100,0
3,57,100,0
3,61,100,0
3,66,100,0
3,66,0,90
3,51,0,0
3,57,0,0
3,61,0,0
3,51,100,0
3,57,100,0
3,61,100,0
3,66,100,0
3,66,0,30
3,51,0,0
3,57,0,0
3,61,0,0
3,51,100,0
3,57,100,0
3,61,100,0
3,66,100,0
3,66,0,60
3,51,0,0
3,57,0,0
3,61,0,0
3,51,100,0
3,57,100,0
3,61,100,0
3,66,100,0
3,66,0,60
3,51,0,0
3,57,0,0
3,61,0,0
3,44,100,0
3,54,100,0
3,60,100,0
3,63,100,0
3,68,100,0
3,68,0,90
3,60,0,0
3,44,0,0
3,54,0,0
3,63,0,0
3,44,100,0
3,54,100,0
3,60,100,0
3,63,100,0
3,68,100,0
3,68,0,30
3,60,0,0
3,44,0,0
3,54,0,0
3,63,0,0
3,44,100,0
3,54,100,0
3,60,100,0
3,63,100,0
3,68,100,0
3,68,0,60
3,60,0,0
3,44,0,0
3,54,0,0
3,63,0,0
3,63,100,0
3,60,100,0
3,54,100,0
3,44,100,0
3,68,100,0
3,68,0,60
3,54,0,0
3,63,0,0
3,60,0,0
3,44,0,0
3,49,100,0
3,52,100,0
3,56,100,0
3,59,100,0
3,64,100,0
3,68,100,0
3,68,0,120
3,52,0,0
3,56,0,0
3,49,0,0
3,64,0,0
3,59,0,0
3,48,100,0
3,51,100,0
3,55,100,0
3,58,100,0
3,63,100,0
3,67,100,0
3,67,0,120
3,51,0,0
3,55,0,0
3,48,0,0
3,63,0,0
3,58,0,0
3,47,100,0
3,50,100,0
3,54,100,0
3,57,100,0
3,62,100,0
3,66,100,0
3,66,0,120
3,50,0,0
3,54,0,0
3,47,0,0
3,62,0,0
3,57,0,0
3,47,100,0
3,50,100,0
3,54,100,0
3,57,100,0
3,62,100,0
3,66,100,0
3,66,0,120
3,50,0,0
3,54,0,0
3,47,0,0
3,62,0,0
3,57,0,0
3,45,100,0
3,52,100,0
3,57,100,0
3,61,100,0
3,64,100,0
3,64,0,120
3,57,0,0
3,45,0,0
3,52,0,0
3,61,0,0
3,45,100,0
3,52,100,0
3,57,100,0
3,61,100,0
3,64,100,0
3,64,0,60
3,57,0,0
3,45,0,0
3,52,0,0
3,61,0,0
3,45,100,0
3,52,100,0
3,57,100,0
3,61,100,0
3,64,100,0
3,64,0,60
3,57,0,0
3,45,0,0
3,52,0,0
3,61,0,0
3,59,100,0
3,54,100,0
3,44,100,0
3,64,100,0
3,64,0,120
3,59,0,0
3,54,0,0
3,44,0,0
3,44,100,0
3,54,100,0
3,59,100,0
3,64,100,0
3,64,0,120
3,44,0,0
3,54,0,0
3,59,0,0
3,44,100,0
3,52,100,0
3,59,100,0
3,59,0,120
3,52,0,0
3,44,0,0
3,58,100,0
3,52,100,0
3,43,100,0
3,43,0,120
3,52,0,0
3,58,0,0
3,57,100,0
3,52,100,0
3,42,100,0
3,42,0,720
3,52,0,0
3,57,0,0
3,40,100,0
3,55,100,43
3,47,100,17
3,56,100,0
3,55,0,13
3,40,0,47
3,40,100,60
3,42,100,60
3,52,100,0
3,57,100,0
3,40,0,60
3,56,0,0
3,47,0,0
3,42,100,60
3,50,100,60
3,59,100,0
3,43,100,0
3,42,0,60
3,42,0,0
3,57,0,0
3,52,0,0
3,43,100,60
3,43,100,60
3,57,100,30
3,43,0,30
3,43,0,0
3,43,0,0
3,59,0,0
3,50,0,0
3,50,100,0
3,57,0,30
3,59,100,30
3,50,0,60
3,50,100,0
3,59,0,60
3,57,100,0
3,50,0,60
3,59,100,0
3,57,0,60
3,43,100,0
3,59,0,60
3,50,100,0
3,59,100,0
3,43,0,60
3,43,100,60
3,42,100,60
3,57,100,0
3,52,100,0
3,43,0,60
3,50,0,0
3,59,0,0
3,42,100,60
3,55,100,48
3,47,100,12
3,56,100,2
3,55,0,1
