track,note,velocity,time
1,55,123,768
1,53,125,60
1,50,120,45
1,48,123,60
1,55,123,79
1,53,120,37
1,50,120,44
1,48,123,64
1,45,123,45
1,50,110,384
1,50,94,24
1,48,99,12
1,48,97,62
1,48,90,52
1,47,99,15
1,47,94,33
1,46,114,23
1,48,123,2
1,38,125,37
1,38,113,38
1,41,110,22
1,41,113,64
1,41,113,37
1,43,107,13
1,41,107,96
1,43,110,8
1,45,82,10
1,46,86,6
1,48,117,15
1,50,110,46
1,50,94,24
1,48,99,12
1,48,97,62
1,48,90,52
1,47,99,15
1,47,94,33
1,46,114,23
1,48,123,2
1,38,125,37
1,38,113,38
1,41,110,22
1,41,113,64
1,41,113,37
1,43,107,13
1,41,107,96
1,43,110,8
1,45,82,10
1,46,86,6
1,48,117,15
1,50,110,46
1,50,94,24
1,48,99,12
1,48,97,62
1,48,90,52
1,47,99,15
1,47,94,33
1,46,114,23
1,48,123,2
1,38,125,37
1,38,113,38
1,41,110,22
1,41,113,64
1,41,113,37
1,43,107,13
1,41,107,96
1,43,110,8
1,45,82,10
1,46,86,6
1,48,117,15
1,50,110,46
1,50,94,24
1,48,99,12
1,48,97,62
1,48,90,52
1,47,99,15
1,47,94,33
1,46,114,23
1,48,123,2
1,38,125,37
1,38,113,38
1,41,110,22
1,41,113,64
1,41,113,37
1,43,107,13
1,41,107,96
1,43,110,8
1,45,82,10
1,46,86,6
1,48,117,15
1,48,120,46
1,48,120,44
1,48,104,38
1,48,94,47
1,47,110,4
1,59,104,8
1,47,107,6
1,59,104,48
1,47,117,84
1,47,117,65
1,46,100,26
1,46,109,65
1,46,100,48
1,46,100,74
1,45,107,47
1,45,123,65
1,54,114,9
1,52,104,19
1,49,114,96
1,45,101,10
1,48,120,6
1,48,117,48
1,48,110,60
1,48,92,30
1,43,110,9
1,43,113,72
1,43,123,82
1,43,125,48
1,45,86,23
1,46,109,18
1,58,79,2
1,46,92,7
1,46,84,26
1,46,104,70
1,48,94,12
1,48,92,36
1,48,101,62
1,47,120,96
1,48,104,6
1,49,114,2
1,50,107,11
1,50,83,36
1,50,90,23
1,50,88,14
1,50,83,40
1,50,80,31
1,50,88,40
1,50,97,32
1,50,110,699
1,50,94,24
1,48,99,12
1,48,97,62
1,48,90,52
1,47,99,15
1,47,94,33
1,46,114,23
1,48,123,2
1,38,125,37
1,38,113,38
1,41,110,22
1,41,113,64
1,41,113,37
1,43,107,13
1,41,107,96
1,43,110,8
1,45,82,10
1,46,86,6
1,48,117,15
1,50,110,46
1,50,94,24
1,48,99,12
1,48,97,62
1,48,90,52
1,47,99,15
1,47,94,33
1,46,114,23
1,48,123,2
1,38,125,37
1,38,113,38
1,41,110,22
1,41,113,64
1,41,113,37
1,43,107,13
1,41,107,96
1,43,110,8
1,45,82,10
1,46,86,6
1,48,117,15
1,50,110,46
1,50,94,24
1,48,99,12
1,48,97,62
1,48,90,52
1,47,99,15
1,47,94,33
1,46,114,23
1,48,123,2
1,38,125,37
1,38,113,38
1,41,110,22
1,41,113,64
1,41,113,37
1,43,107,13
1,41,107,96
1,43,110,8
1,45,82,10
1,46,86,6
1,48,117,15
1,50,110,46
1,50,94,24
1,48,99,12
1,48,97,62
1,48,90,52
1,47,99,15
1,47,94,33
1,46,114,23
1,48,123,2
1,38,125,37
1,38,113,38
1,41,110,22
1,41,113,64
1,41,113,37
1,43,107,13
1,41,107,96
1,43,110,8
1,45,82,10
1,46,86,6
1,48,117,15
1,48,120,46
1,48,120,44
1,48,104,38
1,48,94,47
1,47,110,4
1,59,104,8
1,47,107,6
1,59,104,48
1,47,117,84
1,47,117,65
1,46,100,26
1,46,109,65
1,46,100,48
1,46,100,74
1,45,107,47
1,45,123,65
1,54,114,9
1,52,104,19
1,49,114,96
1,45,101,10
1,48,120,6
1,48,117,48
1,48,110,60
1,48,92,30
1,43,110,9
1,43,113,72
1,43,123,82
1,43,125,48
1,45,86,23
1,46,109,18
1,58,79,2
1,46,92,7
1,46,84,26
1,46,104,70
1,48,94,12
1,48,92,36
1,48,101,62
1,47,120,96
1,48,104,6
1,49,114,2
1,50,107,11
1,50,83,36
1,50,90,23
1,50,88,14
1,50,83,40
1,50,80,31
1,50,88,40
1,55,123,32
1,53,125,60
1,50,120,45
1,48,123,60
1,55,123,79
1,53,120,37
1,50,120,44
1,48,123,64
1,45,123,45
1,50,110,384
1,50,94,24
1,48,99,12
1,48,97,62
1,48,90,52
1,47,99,15
1,47,94,33
1,46,114,23
1,48,123,2
1,38,125,37
1,38,113,38
1,41,110,22
1,41,113,64
1,41,113,37
1,43,107,13
1,41,107,96
1,43,110,8
1,45,82,10
1,46,86,6
1,48,117,15
1,50,110,46
1,50,94,24
1,48,99,12
1,48,97,62
1,48,90,52
1,47,99,15
1,47,94,33
1,46,114,23
1,48,123,2
1,38,125,37
1,38,113,38
1,41,110,22
1,41,113,64
1,41,113,37
1,43,107,13
1,41,107,96
1,43,110,8
1,45,82,10
1,46,86,6
1,48,117,15
1,50,110,46
1,50,94,24
1,48,99,12
1,48,97,62
1,48,90,52
1,47,99,15
1,47,94,33
1,46,114,23
1,48,123,2
1,38,125,37
1,38,113,38
1,41,110,22
1,41,113,64
1,41,113,37
1,43,107,13
1,41,107,96
1,43,110,8
1,45,82,10
1,46,86,6
1,48,117,15
1,50,110,46
1,50,94,24
1,48,99,12
1,48,97,62
1,48,90,52
1,47,99,15
1,47,94,33
1,46,114,23
1,48,123,2
1,38,125,37
1,38,113,38
1,41,110,22
1,41,113,64
1,41,113,37
1,43,107,13
1,41,107,96
1,43,110,8
1,45,82,10
1,46,86,6
1,48,117,15
1,48,120,46
1,48,120,44
1,48,104,38
1,48,94,47
1,47,110,4
1,59,104,8
1,47,107,6
1,59,104,48
1,47,117,84
1,47,117,65
1,46,100,26
1,46,109,65
1,46,100,48
1,46,100,74
1,45,107,47
1,45,123,65
1,54,114,9
1,52,104,19
1,49,114,96
1,45,101,10
1,48,120,6
1,48,117,48
1,48,110,60
1,48,92,30
1,43,110,9
1,43,113,72
1,43,123,82
1,43,125,48
1,45,86,23
1,46,109,18
1,58,79,2
1,46,92,7
1,46,84,26
1,46,104,70
1,48,94,12
1,48,92,36
1,48,101,62
1,47,120,96
1,48,104,6
1,49,114,2
1,50,107,11
1,50,83,36
1,50,90,23
1,50,88,14
1,50,83,40
1,50,80,31
1,50,88,40
1,55,123,32
1,53,125,60
1,50,120,45
1,48,123,60
1,55,123,79
1,53,120,37
1,50,120,44
1,48,123,64
1,45,123,45
1,50,110,0
1,50,94,24
1,48,99,12
1,48,97,62
1,48,90,52
1,47,99,15
1,47,94,33
1,46,114,23
1,48,123,2
1,38,125,37
1,38,113,38
1,41,110,22
1,41,113,64
1,41,113,37
1,43,107,13
1,41,107,96
1,43,110,8
1,45,82,10
1,46,86,6
1,48,117,15
1,50,110,46
1,50,94,24
1,48,99,12
1,48,97,62
1,48,90,52
1,47,99,15
1,47,94,33
1,46,114,23
1,48,123,2
1,38,125,37
1,38,113,38
1,41,110,22
1,41,113,64
1,41,113,37
1,43,107,13
1,41,107,96
1,43,110,8
1,45,82,10
1,46,86,6
1,48,117,15
1,50,110,46
1,50,94,24
1,48,99,12
1,48,97,62
1,48,90,52
1,47,99,15
1,47,94,33
1,46,114,23
1,48,123,2
1,38,125,37
1,38,113,38
1,41,110,22
1,41,113,64
1,41,113,37
1,43,107,13
1,41,107,96
1,43,110,8
1,45,82,10
1,46,86,6
1,48,117,15
1,50,110,46
1,50,94,24
1,48,99,12
1,48,97,62
1,48,90,52
1,47,99,15
1,47,94,33
1,46,114,23
1,48,123,2
1,38,125,37
1,38,113,38
1,41,110,22
1,41,113,64
1,41,113,37
1,43,107,13
1,41,107,96
1,43,110,8
1,45,82,10
1,46,86,6
1,48,117,15
1,50,110,46
1,50,94,24
1,48,99,12
1,48,97,62
1,48,90,52
1,47,99,15
1,47,94,33
1,46,114,23
1,48,123,2
1,38,125,37
1,38,113,38
1,41,110,22
1,41,113,64
1,41,113,37
1,43,107,13
1,41,107,96
1,43,110,8
1,45,82,10
1,46,86,6
1,48,117,15
1,50,110,46
1,50,94,24
1,48,99,12
1,48,97,62
1,48,90,52
1,47,99,15
1,47,94,33
1,46,114,23
1,48,123,2
1,38,125,37
1,38,113,38
1,41,110,22
1,41,113,64
1,41,113,37
1,43,107,13
1,41,107,96
1,43,110,8
1,45,82,10
1,46,86,6
1,48,117,15
1,55,123,46
1,53,120,37
1,50,120,44
1,48,123,64
1,45,123,45
2,74,123,768
2,67,123,0
2,70,124,0
2,72,113,11
2,65,117,0
2,69,120,0
2,69,110,23
2,62,107,0
2,65,113,0
2,67,123,8
2,60,101,0
2,64,110,0
2,74,117,35
2,67,104,0
2,70,124,0
2,72,125,15
2,65,107,0
2,69,120,0
2,78,55,0
2,69,123,13
2,62,104,0
2,65,113,0
2,67,110,14
2,60,107,0
2,64,94,0
2,60,123,11
2,57,117,0
2,64,117,0
2,57,107,360
2,50,110,0
2,57,99,2
2,50,104,0
2,55,90,18
2,48,85,0
2,55,99,66
2,48,101,0
2,55,83,22
2,48,83,0
2,47,99,2
2,55,88,96
2,47,99,55
2,55,90,62
2,54,73,52
2,46,92,0
2,53,92,0
2,55,99,62
2,48,107,0
2,57,107,14
2,50,110,0
2,57,99,2
2,50,104,0
2,55,90,18
2,48,85,0
2,55,99,66
2,48,101,0
2,55,83,22
2,48,83,0
2,47,99,2
2,55,88,96
2,47,99,55
2,55,90,62
2,54,73,52
2,46,92,0
2,53,92,0
2,55,99,62
2,48,107,0
2,57,107,14
2,50,110,0
2,57,99,2
2,50,104,0
2,55,90,18
2,48,85,0
2,55,99,66
2,48,101,0
2,55,83,22
2,48,83,0
2,47,99,2
2,55,88,96
2,47,99,55
2,55,90,62
2,54,73,52
2,46,92,0
2,53,92,0
2,55,99,62
2,48,107,0
2,57,107,14
2,50,110,0
2,57,99,2
2,50,104,0
2,55,90,18
2,48,85,0
2,55,99,66
2,48,101,0
2,55,83,22
2,48,83,0
2,47,99,2
2,55,88,96
2,47,99,55
2,55,90,62
2,54,73,52
2,46,92,0
2,53,92,0
2,55,99,62
2,48,107,0
2,57,107,14
2,50,110,0
2,57,99,2
2,50,104,0
2,55,90,18
2,48,85,0
2,55,99,66
2,48,101,0
2,55,83,22
2,48,83,0
2,47,99,2
2,55,88,96
2,47,99,55
2,55,90,62
2,54,73,52
2,46,92,0
2,53,92,0
2,55,99,62
2,48,107,0
2,57,107,14
2,50,110,0
2,57,99,2
2,50,104,0
2,55,90,18
2,48,85,0
2,55,99,66
2,48,101,0
2,55,83,22
2,48,83,0
2,47,99,2
2,55,88,96
2,47,99,55
2,55,90,62
2,54,73,52
2,46,92,0
2,53,92,0
2,55,99,62
2,48,107,0
2,57,107,14
2,50,110,0
2,57,99,2
2,50,104,0
2,55,90,18
2,48,85,0
2,55,99,66
2,48,101,0
2,55,83,22
2,48,83,0
2,47,99,2
2,55,88,96
2,47,99,55
2,55,90,62
2,54,73,52
2,46,92,0
2,53,92,0
2,55,99,62
2,48,107,0
2,57,107,14
2,50,110,0
2,57,99,2
2,50,104,0
2,55,90,18
2,48,85,0
2,55,99,66
2,48,101,0
2,55,83,22
2,48,83,0
2,47,99,2
2,55,88,96
2,47,99,55
2,55,90,62
2,46,92,52
2,53,92,0
2,55,99,62
2,48,107,0
2,55,101,14
2,60,90,0
2,52,88,0
2,59,78,96
2,55,92,0
2,50,79,0
2,53,88,74
2,58,77,0
2,50,79,0
2,49,77,13
2,52,86,0
2,57,82,0
2,52,88,21
2,55,99,0
2,60,85,0
2,59,88,54
2,55,94,0
2,50,85,0
2,50,90,230
2,58,84,0
2,53,90,0
2,52,94,38
2,55,101,0
2,60,83,0
2,57,97,235
2,54,84,0
2,62,82,0
2,57,107,416
2,50,110,0
2,57,99,2
2,50,104,0
2,55,90,18
2,48,85,0
2,55,99,66
2,48,101,0
2,55,83,22
2,48,83,0
2,47,99,2
2,55,88,96
2,47,99,55
2,55,90,62
2,54,73,52
2,46,92,0
2,53,92,0
2,55,99,62
2,48,107,0
2,57,107,14
2,50,110,0
2,57,99,2
2,50,104,0
2,55,90,18
2,48,85,0
2,55,99,66
2,48,101,0
2,55,83,22
2,48,83,0
2,47,99,2
2,55,88,96
2,47,99,55
2,55,90,62
2,54,73,52
2,46,92,0
2,53,92,0
2,55,99,62
2,48,107,0
2,57,107,14
2,50,110,0
2,57,99,2
2,50,104,0
2,55,90,18
2,48,85,0
2,55,99,66
2,48,101,0
2,55,83,22
2,48,83,0
2,47,99,2
2,55,88,96
2,47,99,55
2,55,90,62
2,54,73,52
2,46,92,0
2,53,92,0
2,55,99,62
2,48,107,0
2,57,107,14
2,50,110,0
2,57,99,2
2,50,104,0
2,55,90,18
2,48,85,0
2,55,99,66
2,48,101,0
2,55,83,22
2,48,83,0
2,47,99,2
2,55,88,96
2,47,99,55
2,55,90,62
2,54,73,52
2,46,92,0
2,53,92,0
2,55,99,62
2,48,107,0
2,57,107,14
2,50,110,0
2,57,99,2
2,50,104,0
2,55,90,18
2,48,85,0
2,55,99,66
2,48,101,0
2,55,83,22
2,48,83,0
2,47,99,2
2,55,88,96
2,47,99,55
2,55,90,62
2,54,73,52
2,46,92,0
2,53,92,0
2,55,99,62
2,48,107,0
2,57,107,14
2,50,110,0
2,57,99,2
2,50,104,0
2,55,90,18
2,48,85,0
2,55,99,66
2,48,101,0
2,55,83,22
2,48,83,0
2,47,99,2
2,55,88,96
2,47,99,55
2,55,90,62
2,54,73,52
2,46,92,0
2,53,92,0
2,55,99,62
2,48,107,0
2,57,107,14
2,50,110,0
2,57,99,2
2,50,104,0
2,55,90,18
2,48,85,0
2,55,99,66
2,48,101,0
2,55,83,22
2,48,83,0
2,47,99,2
2,55,88,96
2,47,99,55
2,55,90,62
2,54,73,52
2,46,92,0
2,53,92,0
2,55,99,62
2,48,107,0
2,57,107,14
2,50,110,0
2,57,99,2
2,50,104,0
2,55,90,18
2,48,85,0
2,55,99,66
2,48,101,0
2,55,83,22
2,48,83,0
2,47,99,2
2,55,88,96
2,47,99,55
2,55,90,62
2,46,92,52
2,53,92,0
2,55,99,62
2,48,107,0
2,55,101,14
2,60,90,0
2,52,88,0
2,59,78,96
2,55,92,0
2,50,79,0
2,53,88,74
2,58,77,0
2,50,79,0
2,49,77,13
2,52,86,0
2,57,82,0
2,52,88,21
2,55,99,0
2,60,85,0
2,59,88,54
2,55,94,0
2,50,85,0
2,50,90,230
2,58,84,0
2,53,90,0
2,52,94,38
2,55,101,0
2,60,83,0
2,57,97,235
2,54,84,0
2,62,82,0
2,74,123,768
2,67,123,0
2,70,124,0
2,72,113,11
2,65,117,0
2,69,120,0
2,69,110,23
2,62,107,0
2,65,113,0
2,67,123,8
2,60,101,0
2,64,110,0
2,74,117,35
2,67,104,0
2,70,124,0
2,72,125,15
2,65,107,0
2,69,120,0
2,78,55,0
2,69,123,13
2,62,104,0
2,65,113,0
2,67,110,14
2,60,107,0
2,64,94,0
2,60,123,11
2,57,117,0
2,64,117,0
2,57,107,360
2,50,110,0
2,57,99,2
2,50,104,0
2,55,90,18
2,48,85,0
2,55,99,66
2,48,101,0
2,55,83,22
2,48,83,0
2,47,99,2
2,55,88,96
2,47,99,55
2,55,90,62
2,54,73,52
2,46,92,0
2,53,92,0
2,55,99,62
2,48,107,0
2,57,107,14
2,50,110,0
2,57,99,2
2,50,104,0
2,55,90,18
2,48,85,0
2,55,99,66
2,48,101,0
2,55,83,22
2,48,83,0
2,47,99,2
2,55,88,96
2,47,99,55
2,55,90,62
2,54,73,52
2,46,92,0
2,53,92,0
2,55,99,62
2,48,107,0
2,57,107,14
2,50,110,0
2,57,99,2
2,50,104,0
2,55,90,18
2,48,85,0
2,55,99,66
2,48,101,0
2,55,83,22
2,48,83,0
2,47,99,2
2,55,88,96
2,47,99,55
2,55,90,62
2,54,73,52
2,46,92,0
