track,note,velocity,time
0,62,109,80
0,43,121,0
0,35,120,0
0,71,107,1
0,67,109,1
0,55,117,1
0,67,115,0
0,42,115,0
0,62,113,1
0,43,113,0
0,42,0,1
0,35,0,0
0,49,102,0
0,49,0,2
0,42,92,41
0,50,111,1
0,42,0,1
0,42,102,22
0,42,0,1
0,50,0,19
0,42,115,4
0,59,110,1
0,42,0,0
0,62,0,17
0,42,92,30
0,62,113,1
0,62,119,1
0,55,112,1
0,42,0,0
0,62,0,12
0,43,0,3
0,42,76,6
0,42,0,1
0,62,0,21
0,38,120,2
0,42,115,1
0,71,117,1
0,62,119,1
0,69,120,0
0,43,110,0
0,67,0,1
0,42,0,0
0,38,0,0
0,42,102,1
0,50,112,1
0,42,0,1
0,42,92,1
0,42,120,1
0,67,115,1
0,55,112,1
0,71,0,1
0,35,102,9
0,43,121,1
0,46,100,0
0,67,113,1
0,59,105,0
0,55,107,0
0,46,0,1
0,35,0,0
0,69,0,1
0,67,0,3
0,71,0,2
0,67,0,14
0,62,0,6
0,59,0,7
0,55,0,1
0,55,0,1
0,67,0,7
0,43,0,3
0,42,123,0
0,35,120,0
0,69,110,1
0,66,110,1
0,42,115,0
0,50,117,1
0,66,113,0
0,62,117,0
0,69,110,1
0,50,108,1
0,42,0,0
0,35,0,0
0,42,92,43
0,54,101,1
0,42,0,1
0,42,102,22
0,42,0,2
0,54,0,21
0,42,115,1
0,62,110,1
0,42,0,1
0,69,0,44
0,42,92,2
0,62,117,1
0,57,103,0
0,42,0,0
0,62,0,8
0,50,0,15
0,42,76,0
0,42,0,1
0,62,0,15
0,38,120,8
0,69,121,1
0,50,108,0
0,42,115,0
0,42,0,1
0,38,0,0
0,57,0,4
0,42,102,0
0,54,101,1
0,42,0,0
0,42,92,8
0,42,0,1
0,50,0,5
0,42,120,1
0,50,117,1
0,62,106,0
0,35,102,2
0,38,122,1
0,46,100,0
0,66,109,1
0,62,111,0
0,67,114,0
0,57,108,1
0,46,0,0
0,35,0,0
0,69,0,20
0,67,0,1
0,62,0,2
0,66,0,3
0,50,0,3
0,50,0,4
0,66,0,9
0,57,0,2
0,38,0,1
0,36,121,0
0,35,120,0
0,64,109,1
0,67,110,1
0,72,109,0
0,48,117,1
0,67,117,0
0,42,115,0
0,64,119,1
0,64,118,0
0,48,115,1
0,42,0,0
0,35,0,0
0,62,0,2
0,42,92,41
0,55,108,1
0,42,0,0
0,42,102,23
0,42,0,1
0,55,0,23
0,42,115,0
0,60,105,1
0,42,0,0
0,64,0,25
0,42,92,22
0,62,114,1
0,64,110,0
0,42,0,0
0,60,0,7
0,48,0,4
0,62,0,2
0,42,76,10
0,42,0,1
0,38,120,0
0,72,119,1
0,42,115,0
0,64,0,1
0,69,123,0
0,48,111,0
0,42,102,2
0,55,108,0
0,42,0,0
0,42,92,0
0,42,0,1
0,55,0,13
0,69,0,10
0,67,0,0
0,42,120,0
0,67,115,1
0,64,111,1
0,42,0,1
0,36,0,20
0,64,0,10
0,35,102,15
0,36,122,1
0,46,100,0
0,67,111,1
0,64,113,0
0,60,108,0
0,46,0,1
0,35,0,0
0,64,0,16
0,48,0,2
0,48,0,2
0,72,0,2
0,72,0,0
0,67,0,1
0,67,0,3
0,67,0,2
0,64,0,2
0,64,0,6
0,36,0,3
0,60,0,3
0,38,122,3
0,35,120,0
0,69,109,1
0,62,110,1
0,66,109,0
0,42,115,0
0,50,115,1
0,66,119,0
0,62,122,0
0,69,112,1
0,50,116,1
0,42,0,0
0,35,0,0
0,42,92,43
0,54,108,1
0,42,0,0
0,42,102,23
0,42,0,1
0,42,115,23
0,40,123,1
0,71,120,0
0,69,0,1
0,57,107,0
0,42,0,0
0,54,0,1
0,38,0,1
0,57,0,44
0,42,92,0
0,62,109,2
0,42,0,0
0,50,0,9
0,42,76,13
0,42,0,1
0,62,0,3
0,66,0,4
0,71,0,1
0,40,0,7
0,38,120,8
0,42,122,1
0,42,115,1
0,69,117,1
0,62,117,0
0,72,117,0
0,62,0,1
0,50,117,0
0,42,0,0
0,38,0,0
0,42,102,44
0,54,107,1
0,42,0,1
0,72,0,15
0,42,92,7
0,62,0,1
0,42,0,0
0,54,0,1
0,69,0,6
0,50,0,8
0,42,0,1
0,42,120,7
0,45,121,1
0,62,117,0
0,66,117,1
0,74,123,0
0,50,117,0
0,42,0,1
0,50,0,12
0,35,102,2
0,54,87,1
0,62,112,0
0,46,100,0
0,43,123,1
0,35,120,0
0,71,110,1
0,67,110,1
0,42,115,0
0,55,115,1
0,62,113,0
0,67,117,0
0,43,110,1
0,42,92,20
0,50,101,1
0,42,0,0
0,42,102,23
0,42,0,1
0,50,0,11
0,42,115,12
0,55,110,1
0,42,0,0
0,74,0,38
0,42,92,9
0,62,116,1
0,59,109,0
0,42,0,0
0,55,0,3
0,62,0,4
0,62,0,5
0,43,0,4
0,42,76,7
0,42,0,1
0,67,0,6
0,38,120,17
0,67,113,1
0,42,115,0
0,71,119,1
0,69,123,0
0,43,109,0
0,42,0,1
0,38,0,0
0,59,0,11
0,42,102,2
0,74,124,0
0,50,108,0
0,42,92,10
0,42,0,1
0,42,120,0
0,59,106,1
0,42,0,0
0,35,102,7
0,43,122,1
0,46,100,0
0,67,112,1
0,55,116,0
0,35,0,0
0,46,0,1
0,67,0,14
0,71,0,0
0,43,0,1
0,74,0,0
0,67,0,15
0,59,0,12
0,55,0,1
0,67,0,1
0,42,124,1
0,35,120,0
0,69,110,1
0,66,110,1
0,50,115,0
0,42,115,0
0,69,110,1
0,50,116,0
0,42,0,1
0,35,0,0
0,55,0,1
0,42,92,43
0,54,108,1
0,42,0,0
0,42,102,23
0,42,0,1
0,54,0,16
0,42,115,7
0,62,108,1
0,42,0,1
0,69,0,34
0,42,92,12
0,66,98,1
0,62,118,0
0,57,103,0
0,42,0,1
0,62,0,9
0,62,0,2
0,50,0,11
0,42,76,0
0,66,0,1
0,42,0,1
0,38,120,22
0,66,122,1
0,62,122,0
0,42,115,0
0,69,123,1
0,50,111,0
0,42,102,1
0,62,119,1
0,69,119,0
0,54,95,0
0,42,92,10
0,42,0,1
0,42,120,2
0,54,0,1
0,62,110,0
0,54,101,1
0,42,0,0
0,35,102,6
0,38,123,1
0,46,100,0
0,67,106,1
0,57,108,0
0,35,0,0
0,46,0,1
0,62,0,6
0,62,0,7
0,50,0,3
0,69,0,1
0,69,0,1
0,66,0,2
0,50,0,9
0,38,0,13
0,57,0,2
0,36,122,1
0,35,120,0
0,64,108,1
0,67,109,1
0,72,108,0
0,71,108,0
0,48,115,1
0,64,111,0
0,42,115,0
0,67,113,1
0,64,110,1
0,48,115,0
0,35,0,0
0,67,0,1
0,42,0,0
0,62,0,1
0,71,0,7
0,42,92,34
0,55,105,1
0,42,0,0
0,42,102,23
0,42,0,1
0,55,0,7
0,42,115,16
0,64,106,1
0,42,0,0
0,64,0,27
0,42,92,20
0,62,117,1
0,60,104,0
0,42,0,0
0,62,0,10
0,48,0,2
0,42,76,11
0,42,0,1
0,60,0,23
0,38,120,0
0,69,125,1
0,42,115,0
0,48,112,1
0,42,102,7
0,55,114,1
0,42,0,0
0,42,92,23
0,42,0,1
0,42,120,1
0,72,122,1
0,64,117,0
0,64,109,0
0,35,102,3
0,36,122,1
0,46,100,0
0,67,114,1
0,60,106,0
0,35,0,0
0,46,0,1
0,48,0,4
0,72,0,13
0,64,0,8
0,67,0,1
0,72,0,2
0,64,0,0
0,60,0,4
0,48,0,2
0,64,0,4
0,36,0,0
0,67,0,6
0,38,122,1
0,35,120,0
0,69,109,1
0,62,110,1
0,66,109,0
0,42,115,0
0,50,119,1
0,69,115,0
0,50,119,0
0,35,0,1
0,42,0,1
0,42,92,43
0,54,103,1
0,42,0,0
0,42,102,23
0,42,0,1
0,69,0,14
0,54,0,8
0,42,115,1
0,40,122,1
0,66,119,1
0,62,122,1
0,71,121,0
0,62,109,0
0,42,0,1
0,38,0,5
0,42,92,39
0,57,105,1
0,42,0,0
0,50,0,1
0,42,76,22
0,42,0,1
0,62,0,1
0,62,0,5
0,40,0,1
0,71,0,2
0,66,0,1
0,38,120,13
0,57,0,1
0,42,121,0
0,62,117,1
0,69,119,0
0,42,115,0
0,72,121,1
0,50,114,0
0,38,0,0
0,42,0,1
0,42,102,44
0,54,101,1
0,42,0,0
0,42,92,23
0,72,0,1
0,42,0,0
0,42,0,12
0,54,0,4
0,42,120,7
0,45,121,1
0,74,124,0
0,62,107,1
0,42,0,0
0,50,0,16
0,35,102,0
0,57,103,1
0,54,111,0
0,46,100,0
0,46,0,1
0,35,0,0
0,43,120,6
0,35,120,0
0,71,110,1
0,67,110,1
0,42,115,0
0,55,115,1
0,62,115,0
0,67,117,0
0,43,117,1
0,35,0,0
0,42,92,13
0,50,105,1
0,42,0,0
0,42,102,23
0,42,0,1
0,50,0,9
0,42,115,14
0,59,105,1
0,42,0,1
0,42,92,0
0,55,113,1
0,42,0,1
0,43,0,18
0,42,76,4
0,42,0,1
0,38,120,0
0,42,115,1
0,43,114,1
0,42,0,1
0,38,0,0
0,59,0,5
0,55,0,0
0,55,0,22
0,42,102,0
0,55,115,1
0,50,102,0
0,42,0,0
0,42,92,23
0,42,0,1
0,50,0,6
0,62,0,2
0,67,0,2
0,42,120,0
0,67,117,1
0,62,117,1
0,59,108,1
0,42,0,0
0,43,0,25
0,43,0,10
0,35,102,0
0,43,121,1
0,46,100,0
0,71,117,1
0,55,110,0
0,35,0,0
0,46,0,1
0,71,0,6
0,67,0,3
0,43,0,18
0,59,0,14
0,35,120,4
0,42,123,1
0,69,110,0
0,66,110,1
0,42,115,0
0,50,119,1
0,50,117,0
0,35,0,0
0,55,0,1
0,55,0,0
0,42,0,0
0,71,0,2
0,67,0,1
0,62,0,0
0,42,92,0
0,42,0,1
0,42,102,23
0,42,0,1
0,42,115,23
0,54,65,1
0,42,0,0
0,42,92,47
0,62,107,1
0,42,0,0
0,42,76,23
0,50,0,1
0,42,0,0
0,62,0,17
0,54,0,2
0,38,120,4
0,69,122,1
0,42,115,0
0,62,117,1
0,50,117,0
0,38,0,0
0,42,0,1
0,42,102,45
0,54,109,1
0,42,0,0
0,42,92,23
0,42,0,1
0,54,0,4
0,42,0,5
0,42,120,14
0,42,121,1
0,66,109,0
0,62,117,1
0,54,118,0
0,42,0,0
0,62,0,36
0,54,0,3
0,42,0,2
0,35,102,5
0,38,118,1
0,46,100,0
0,57,110,1
0,46,0,0
0,35,0,0
0,69,0,18
0,62,0,1
0,69,0,4
0,66,0,0
0,50,0,1
0,66,0,9
0,50,0,2
0,36,121,11
0,35,120,0
0,72,109,1
0,64,110,1
0,67,109,0
0,42,115,0
0,48,115,1
0,64,113,0
0,67,115,0
0,48,115,1
0,35,0,0
0,38,0,1
0,42,0,0
0,62,0,1
0,57,0,5
0,42,92,37
0,52,99,1
0,42,0,0
0,42,102,23
0,42,0,1
0,52,0,3
0,42,115,20
0,60,109,1
0,42,0,0
0,42,92,0
0,48,0,1
0,55,116,0
0,42,0,0
0,42,76,23
0,42,0,2
0,60,0,18
0,38,120,0
0,55,0,1
0,42,115,0
0,72,119,1
0,48,111,0
0,38,0,0
0,42,0,1
0,42,102,0
0,52,109,1
0,42,0,0
0,42,92,23
0,42,0,1
0,52,0,14
0,42,120,0
0,60,108,1
0,42,0,1
0,36,0,14
0,64,0,4
0,35,102,0
0,36,122,1
0,46,100,0
0,64,113,1
0,55,106,0
0,52,114,0
0,46,0,1
0,35,0,0
0,72,0,7
0,48,0,2
0,72,0,3
0,67,0,5
0,60,0,4
0,64,0,1
0,67,0,2
0,48,0,2
0,64,0,5
0,52,0,1
0,36,0,13
0,38,122,0
0,35,120,0
0,69,109,1
0,62,110,1
0,66,109,0
0,42,115,0
0,50,117,1
0,66,117,0
0,62,117,0
0,50,113,1
0,35,0,0
0,55,0,1
0,42,0,0
0,42,92,0
0,54,102,1
0,42,0,0
0,42,102,23
0,42,0,1
0,54,0,6
0,42,115,0
0,62,109,1
0,42,0,0
0,42,92,47
0,42,0,1
0,50,0,23
0,42,76,0
0,62,0,1
0,42,0,0
0,66,0,7
0,38,120,16
0,62,0,1
0,42,115,1
0,66,103,1
0,62,113,0
0,50,113,0
0,42,0,1
0,38,0,0
0,42,102,44
0,67,111,1
0,62,113,1
0,62,0,1
0,54,104,0
0,42,0,0
0,66,0,4
0,38,0,0
0,42,92,17
0,42,0,1
0,54,0,13
0,42,120,10
0,40,121,1
0,62,110,0
0,57,110,0
0,42,0,1
0,67,0,9
0,50,0,5
0,57,0,12
0,62,0,12
0,35,102,8
0,66,103,1
0,46,100,0
0,54,117,1
0,46,0,0
0,35,0,0
0,50,0,8
0,69,0,13
0,66,0,5
0,40,0,14
0,43,121,6
0,35,120,0
0,71,109,1
0,67,109,1
0,55,115,0
0,42,115,0
0,67,115,1
0,43,119,0
0,66,0,1
0,35,0,0
0,54,0,1
0,42,0,0
0,42,92,43
0,42,0,1
0,42,102,23
0,42,0,1
0,62,0,10
0,42,115,13
0,50,112,1
0,42,0,0
0,67,0,29
0,42,92,0
0,55,108,1
0,42,0,0
0,50,0,7
0,42,76,16
0,42,0,1
0,55,0,11
0,38,120,0
0,71,115,1
0,67,109,0
0,42,115,0
0,59,114,1
0,38,0,0
0,42,0,1
0,43,0,20
0,42,102,0
0,67,0,1
0,67,117,0
0,74,122,1
0,55,105,0
0,42,0,0
0,71,0,2
0,42,92,20
0,42,0,1
0,42,120,0
0,43,116,1
0,50,111,0
0,42,0,0
0,59,0,11
0,55,0,6
0,43,0,2
0,50,0,8
0,43,0,19
0,35,102,0
0,43,122,1
0,46,100,0
0,55,109,1
0,59,112,0
0,35,0,0
0,46,0,1
0,55,0,9
0,43,0,10
0,67,0,0
0,71,0,0
0,74,0,3
0,67,0,8
0,55,0,7
0,42,124,8
0,35,120,0
0,69,109,1
0,66,109,1
0,42,115,0
0,50,117,1
0,50,117,0
0,35,0,0
0,59,0,1
0,42,0,0
0,42,92,0
0,42,0,1
0,42,102,23
0,42,0,1
0,42,115,23
0,66,105,1
0,62,98,1
0,54,103,1
0,42,0,0
0,62,0,7
0,66,0,8
0,42,92,30
0,69,119,1
0,62,119,0
0,57,101,0
0,42,0,1
0,42,76,22
0,42,0,2
0,54,0,11
0,57,0,4
0,38,120,7
0,42,115,1
0,62,110,1
0,42,0,1
0,38,0,0
0,42,102,45
0,57,106,1
0,42,0,0
0,62,0,7
0,42,92,16
0,42,0,1
0,62,0,4
0,57,0,12
0,42,120,7
0,62,119,1
0,66,117,1
0,54,105,1
0,42,0,0
0,50,0,6
0,50,0,5
0,42,0,21
0,35,102,13
0,38,122,1
0,46,100,0
0,50,110,1
0,62,110,0
0,35,0,0
0,46,0,1
0,54,0,3
0,69,0,14
0,62,0,0
0,62,0,0
0,69,0,6
0,66,0,3
0,66,0,8
0,36,122,11
0,35,120,0
0,67,109,1
0,64,109,1
0,72,109,0
0,42,115,0
0,48,115,1
0,64,117,0
0,67,119,0
0,48,116,1
0,35,0,0
0,38,0,1
0,50,0,0
0,42,0,0
0,62,0,6
0,42,92,37
0,42,0,1
0,42,102,24
0,42,0,1
0,42,115,22
0,64,110,1
0,42,0,1
0,42,92,0
0,60,106,1
0,42,0,0
0,48,0,20
0,42,76,3
0,42,0,1
0,38,120,0
0,48,111,1
0,38,0,0
0,42,115,0
0,42,0,1
0,64,0,19
0,67,0,3
0,64,0,3
0,60,0,13
0,42,102,0
0,72,119,1
0,64,117,0
0,55,115,0
0,42,0,1
0,42,92,22
0,42,0,1
0,55,0,14
0,42,120,0
0,64,105,1
0,60,107,1
0,42,0,1
0,48,0,21
0,36,0,7
0,35,102,0
0,36,122,1
0,46,100,0
0,67,117,1
0,55,117,0
0,35,0,0
0,46,0,1
0,72,0,6
0,64,0,0
0,60,0,2
0,67,0,6
0,64,0,10
0,55,0,12
0,67,0,1
0,36,0,1
0,64,0,1
0,72,0,0
0,48,0,2
