track,note,velocity,time
0,74,101,0
0,70,101,0
0,67,108,0
0,43,110,0
0,35,77,0
0,49,86,0
0,74,98,0
0,67,101,0
0,48,67,93
0,48,60,34
0,48,71,30
0,48,107,28
0,48,65,26
0,48,62,8
0,48,93,18
0,35,77,5
0,49,82,0
0,65,101,0
0,69,97,0
0,41,108,0
0,72,101,0
0,72,95,0
0,65,97,3
0,47,67,95
0,47,52,30
0,47,63,30
0,47,91,33
0,47,57,5
0,47,46,13
0,47,85,9
0,38,110,2
0,35,78,0
0,49,88,0
0,69,101,0
0,69,102,1
0,65,95,0
0,62,91,0
0,69,97,2
0,45,65,92
0,45,49,31
0,45,56,30
0,45,95,32
0,45,55,2
0,45,55,2
0,45,87,24
0,49,79,1
0,36,112,1
0,35,67,0
0,60,89,0
0,67,101,0
0,67,101,1
0,64,101,0
0,67,91,0
0,43,60,96
0,43,53,31
0,43,59,29
0,43,77,1
0,43,49,12
0,43,61,3
0,43,85,9
0,67,97,23
0,70,97,0
0,43,107,0
0,35,77,0
0,49,79,0
0,74,101,0
0,67,91,2
0,74,92,0
0,48,41,95
0,48,49,31
0,48,68,30
0,48,93,1
0,48,55,1
0,48,66,3
0,48,82,1
0,41,110,3
0,69,90,0
0,35,70,0
0,49,82,0
0,72,91,0
0,72,101,0
0,65,97,1
0,65,98,0
0,47,40,95
0,47,51,30
0,47,57,30
0,47,87,31
0,47,38,7
0,47,43,6
0,47,78,34
0,35,77,2
0,49,71,0
0,62,96,0
0,69,94,0
0,69,87,0
0,69,101,0
0,65,82,0
0,38,110,1
0,45,47,94
0,45,52,31
0,45,63,31
0,45,85,1
0,45,44,6
0,45,46,35
0,45,79,30
0,36,106,1
0,35,74,1
0,49,75,0
0,67,92,0
0,64,84,0
0,67,96,0
0,60,99,0
0,67,101,0
0,43,48,96
0,43,48,30
0,43,66,31
0,43,91,7
0,43,57,33
0,43,55,14
0,43,85,27
0,49,79,2
0,35,69,0
0,64,76,0
0,67,91,0
0,67,80,0
0,67,101,0
0,41,95,1
0,60,94,0
0,33,111,1
0,38,114,3
0,40,114,1
0,77,98,0
0,76,86,0
0,50,105,42
0,42,92,1
0,57,79,0
0,38,116,1
0,35,114,0
0,62,84,0
0,66,75,0
0,74,94,0
0,42,84,42
0,57,107,9
0,38,110,0
0,42,96,0
0,62,98,0
0,38,114,0
0,74,91,0
0,42,69,46
0,42,74,1
0,36,105,1
0,35,109,0
0,48,91,0
0,72,96,0
0,48,103,2
0,42,68,1
0,35,107,1
0,36,108,15
0,38,114,0
0,50,88,0
0,55,112,0
0,42,96,1
0,62,105,0
0,71,92,0
0,35,97,25
0,42,74,0
0,69,92,0
0,35,115,3
0,35,101,2
0,42,84,0
0,47,103,0
0,35,114,45
0,42,63,1
0,50,98,0
0,35,108,1
0,55,108,0
0,38,114,1
0,62,100,0
0,42,90,0
0,67,91,0
0,42,70,1
0,38,114,24
0,34,108,10
0,46,100,0
0,35,111,1
0,42,78,0
0,53,116,0
0,58,105,0
0,38,114,22
0,65,98,0
0,35,114,3
0,42,61,0
0,36,111,36
0,48,108,0
0,42,75,1
0,55,116,0
0,60,103,1
0,38,114,1
0,64,91,0
0,42,72,2
0,62,89,0
0,50,99,5
0,38,116,2
0,35,114,0
0,42,74,0
0,42,64,49
0,62,91,0
0,38,114,1
0,42,88,0
0,50,110,0
0,57,108,1
0,62,105,1
0,28,117,38
0,42,65,1
0,38,22,4
0,62,101,3
0,57,78,1
0,38,25,3
0,38,28,8
0,29,110,0
0,38,36,0
0,35,101,0
0,42,74,0
0,48,106,0
0,29,101,17
0,35,105,0
0,42,64,0
0,48,102,0
0,30,108,9
0,42,86,0
0,38,114,1
0,55,111,0
0,62,74,3
0,31,111,1
0,42,68,1
0,38,18,22
0,38,20,6
0,38,26,7
0,38,32,1
0,47,96,0
0,31,111,1
0,35,114,1
0,46,76,0
0,44,76,45
0,35,111,1
0,38,114,1
0,50,99,0
0,32,111,1
0,55,110,0
0,62,104,2
0,40,114,1
0,33,107,4
0,48,95,5
0,48,84,18
0,46,95,18
0,53,109,0
0,35,114,1
0,34,107,0
0,58,102,0
0,48,109,1
0,77,100,0
0,47,99,6
0,47,77,5
0,36,110,22
0,47,107,0
0,48,108,0
0,55,113,0
0,35,111,0
0,60,100,0
0,76,94,0
0,45,101,2
0,45,67,3
0,74,91,0
0,50,104,4
0,35,114,1
0,38,107,2
0,42,90,0
0,42,50,47
0,74,91,0
0,38,108,15
0,38,114,0
0,50,116,1
0,42,90,1
0,57,102,0
0,62,104,0
0,42,67,48
0,38,23,5
0,38,27,8
0,38,34,5
0,35,107,5
0,36,110,1
0,48,91,1
0,42,76,1
0,38,35,0
0,72,98,0
0,35,114,8
0,48,108,0
0,42,68,1
0,36,108,16
0,42,84,2
0,38,114,0
0,55,110,0
0,50,92,0
0,62,47,1
0,71,91,0
0,42,55,31
0,38,23,22
0,38,29,8
0,38,33,0
0,69,84,0
0,35,107,5
0,35,114,0
0,47,110,0
0,38,36,1
0,42,79,0
0,42,60,43
0,67,90,0
0,50,113,4
0,35,107,1
0,38,114,0
0,55,110,0
0,42,76,1
0,42,64,44
0,38,114,1
0,34,108,19
0,35,111,0
0,46,110,0
0,42,79,1
0,53,114,0
0,58,83,1
0,38,114,23
0,65,98,0
0,35,114,4
0,42,64,0
0,36,109,27
0,48,106,0
0,55,112,0
0,42,90,1
0,38,114,0
0,60,95,0
0,64,93,0
0,35,109,24
0,42,65,0
0,62,91,0
0,50,103,0
0,38,110,1
0,42,76,2
0,35,111,0
0,35,105,46
0,42,63,0
0,62,91,0
0,50,112,1
0,57,106,1
0,42,84,1
0,38,114,0
0,62,93,0
0,28,120,38
0,42,55,1
0,50,87,4
0,38,22,2
0,38,26,7
0,38,33,6
0,35,92,4
0,29,111,0
0,42,74,0
0,48,114,0
0,38,38,1
0,42,56,6
0,35,111,1
0,48,103,0
0,29,103,1
0,30,107,0
0,42,78,0
0,38,114,0
0,50,95,0
0,55,110,0
0,62,68,1
0,31,105,1
0,42,67,1
0,38,17,19
0,38,24,9
0,38,29,5
0,31,107,6
0,35,109,0
0,38,33,0
0,42,71,0
0,47,114,0
0,35,107,47
0,42,74,0
0,38,114,13
0,31,112,1
0,50,111,0
0,55,105,1
0,40,114,2
0,33,110,0
0,35,107,3
0,48,95,0
0,48,74,15
0,34,108,3
0,46,109,0
0,53,109,1
0,35,109,1
0,48,104,0
0,58,97,0
0,77,96,0
0,47,104,6
0,47,78,20
0,48,102,12
0,36,110,1
0,35,109,1
0,47,109,0
0,60,101,0
0,55,81,2
0,76,94,0
0,45,101,34
0,45,75,10
0,74,94,0
0,42,81,4
0,50,109,0
0,38,105,1
0,35,114,0
0,42,43,46
0,74,91,0
0,72,85,1
0,42,60,8
0,50,116,0
0,74,90,1
0,38,105,0
0,38,114,0
0,57,93,0
0,62,100,1
0,42,48,44
0,38,18,10
0,38,19,8
0,38,22,7
0,36,105,2
0,35,101,0
0,42,56,0
0,48,110,1
0,38,27,1
0,72,97,0
0,35,109,2
0,48,101,0
0,42,51,1
0,36,105,10
0,42,61,0
0,38,114,0
0,50,92,0
0,55,109,0
0,62,72,1
0,69,93,0
0,42,48,23
0,38,19,7
0,38,20,7
0,38,31,1
0,67,92,0
0,35,109,0
0,42,61,0
0,47,114,0
0,35,107,1
0,38,33,1
0,35,107,45
0,42,41,0
0,67,86,0
0,42,58,13
0,50,102,0
0,35,107,1
0,38,114,1
0,55,110,0
0,62,67,1
0,42,43,5
0,38,114,10
0,35,105,16
0,34,106,1
0,46,108,0
0,42,63,1
0,53,110,0
0,58,90,2
0,38,114,18
0,65,98,0
0,35,109,3
0,42,51,1
0,48,103,33
0,36,108,1
0,38,114,0
0,42,68,1
0,55,110,0
0,60,100,0
0,64,91,0
0,35,101,29
0,42,45,2
0,62,87,0
0,35,111,7
0,42,67,0
0,38,108,1
0,50,111,0
0,42,41,48
0,38,114,1
0,42,64,0
0,50,114,0
0,62,87,0
0,57,107,1
0,62,103,1
0,38,112,40
0,42,42,1
0,38,26,16
0,40,102,1
0,38,29,3
0,38,30,8
0,38,33,6
0,41,103,0
0,35,99,0
0,42,57,0
0,48,110,0
0,42,50,20
0,48,110,0
0,35,103,0
0,40,107,0
0,42,65,1
0,41,105,1
0,38,114,0
0,50,86,1
0,55,104,0
0,42,72,6
0,42,100,1
0,38,28,22
0,38,32,1
0,38,39,7
0,35,107,4
0,38,42,0
0,43,103,1
0,47,114,0
0,42,70,1
0,35,105,42
0,38,109,0
0,38,114,28
0,50,107,1
0,55,111,1
0,31,116,2
0,40,114,0
0,35,95,9
0,48,77,0
0,33,106,1
0,48,68,1
0,48,107,21
0,35,103,0
0,46,109,0
0,53,114,0
0,34,114,1
0,58,95,1
0,77,98,0
0,47,97,5
0,47,75,11
0,47,114,22
0,36,107,1
0,48,109,0
0,55,112,1
0,35,97,1
0,60,102,0
0,76,100,0
0,45,85,29
0,45,87,13
0,38,105,23
0,35,107,0
0,42,90,0
0,50,90,1
0,74,101,0
0,42,70,21
0,72,86,1
0,74,90,1
0,38,107,2
0,50,115,0
0,42,78,0
0,38,105,1
0,57,95,1
0,62,104,0
0,42,65,46
0,38,22,1
0,57,88,3
0,38,26,7
0,38,29,2
0,35,92,2
0,42,64,0
0,36,105,1
0,48,102,1
0,38,33,2
0,35,107,22
0,48,102,0
0,72,98,0
0,42,62,0
0,38,114,11
0,36,105,1
0,42,74,0
0,50,83,0
0,55,110,1
0,62,80,1
0,74,95,0
0,42,62,8
0,38,18,4
0,38,19,6
0,38,22,5
0,35,105,7
0,42,76,2
0,38,30,0
0,69,91,0
0,35,107,0
0,47,104,0
0,42,64,0
0,67,85,0
0,35,104,11
0,50,100,0
0,38,114,1
0,42,76,0
0,55,104,0
0,42,64,2
0,38,114,1
0,34,104,21
0,35,103,0
0,46,97,0
0,53,114,0
0,42,81,1
0,58,98,0
0,38,114,23
0,65,96,0
0,42,63,4
0,35,103,0
0,36,107,36
0,42,76,1
0,48,110,0
0,55,110,1
0,38,114,1
0,60,102,0
0,64,94,0
0,35,99,27
0,42,55,0
0,62,88,0
0,42,78,6
0,50,112,0
0,38,108,1
0,35,103,1
0,42,55,45
0,62,88,0
0,42,88,1
0,38,114,0
0,50,115,0
0,57,106,0
0,62,100,1
0,38,104,35
0,42,54,2
0,40,99,0
0,38,19,4
0,57,77,0
0,38,23,8
0,38,28,1
0,41,102,0
0,35,91,0
0,48,114,0
0,42,72,0
0,38,32,2
0,48,109,1
0,35,99,1
0,40,100,1
0,42,65,0
0,38,114,2
0,41,102,1
0,42,71,1
0,55,105,0
0,62,80,2
0,42,101,9
0,42,72,3
0,38,26,16
0,38,30,8
0,38,32,5
0,38,34,3
0,43,110,1
0,35,105,0
0,47,107,0
0,42,88,1
0,35,97,47
0,38,114,25
0,31,116,1
0,40,114,0
0,47,92,1
0,50,100,1
0,55,94,1
0,33,107,0
0,35,111,3
0,34,106,0
0,48,85,1
0,46,92,0
0,58,7,0
0,53,102,1
0,48,65,13
0,48,84,15
0,33,108,0
0,48,82,3
0,48,97,13
0,48,93,16
0,34,107,0
0,47,99,0
0,46,104,0
0,53,114,0
0,58,103,2
0,47,67,13
0,47,97,15
0,76,92,0
0,35,106,1
0,47,85,1
0,47,114,14
0,47,101,16
0,36,108,0
0,49,88,0
0,35,105,0
0,48,103,0
0,55,103,0
0,60,98,2
0,76,91,0
0,55,85,31
0,60,85,7
0,42,94,4
0,38,103,0
0,64,97,4
0,42,48,1
0,36,103,1
0,35,94,4
0,42,82,0
0,36,110,1
0,77,95,0
0,35,107,7
0,42,40,1
0,42,92,9
0,38,99,0
0,79,92,0
0,35,91,2
0,42,58,0
0,55,84,2
0,59,87,3
0,74,91,0
0,62,94,2
0,46,78,3
0,35,105,0
0,31,111,1
0,43,98,0
0,55,76,0
0,50,96,2
0,67,47,5
0,42,62,10
0,38,101,0
0,42,60,0
0,31,105,1
0,35,101,1
0,59,103,1
0,46,69,1
0,31,107,1
0,74,98,0
0,31,108,2
0,35,105,0
0,46,67,0
0,42,74,3
0,55,99,0
0,38,103,0
0,76,95,0
0,35,97,12
0,42,64,0
0,44,26,0
0,56,7,0
0,51,10,0
0,57,7,0
0,45,26,1
0,52,26,0
0,53,81,7
0,46,24,0
0,58,7,1
0,58,87,4
0,34,102,4
0,35,107,0
0,46,72,0
0,62,97,0
0,77,91,0
0,46,97,2
0,53,82,0
0,65,87,1
0,53,90,10
0,38,99,2
0,42,63,0
0,34,102,3
0,35,101,1
0,58,87,0
0,42,65,0
0,34,104,1
0,46,67,0
0,62,99,0
0,79,88,0
0,35,103,0
0,46,74,0
0,58,73,9
0,42,64,2
0,38,103,0
0,77,90,0
0,53,78,4
0,35,95,2
0,42,70,0
0,52,83,7
0,45,99,2
0,33,108,1
0,57,91,0
0,35,107,1
0,52,99,0
0,46,65,0
0,57,90,0
0,76,86,0
0,61,94,8
0,46,65,1
0,42,64,12
0,38,99,0
0,52,88,0
0,33,107,10
0,35,101,0
0,42,64,0
0,61,97,0
0,46,74,10
0,42,100,0
0,57,94,1
0,40,105,0
0,52,94,0
0,35,97,1
0,49,93,11
0,37,102,0
0,38,101,0
0,42,63,0
0,33,99,0
0,35,97,0
0,42,62,1
0,55,96,8
0,60,97,5
0,76,102,0
0,36,101,0
0,35,101,2
0,46,79,0
0,64,108,1
0,60,91,0
0,55,80,2
0,48,98,1
0,60,84,5
0,46,65,11
0,38,97,0
0,42,64,0
0,55,82,0
0,35,92,0
0,36,105,1
0,35,99,1
0,42,75,0
0,36,108,1
0,77,94,0
0,46,69,6
0,35,95,2
0,42,64,10
0,38,95,0
0,79,94,0
0,35,92,12
0,42,64,0
0,55,85,4
0,59,91,8
0,62,101,7
0,31,107,1
0,46,71,1
0,35,105,0
0,74,94,0
0,43,94,1
0,50,92,1
0,55,57,1
0,38,95,10
0,42,65,0
0,62,107,9
0,31,106,1
0,42,60,0
0,35,85,0
0,31,108,4
0,35,99,1
0,46,70,0
0,59,91,2
0,74,93,0
0,35,99,2
0,42,60,9
0,38,99,0
0,55,79,4
0,76,99,0
0,33,105,9
0,35,89,3
0,42,59,0
0,53,82,6
0,77,92,0
0,34,102,0
0,35,105,0
0,46,74,0
0,53,97,1
0,58,91,1
0,46,67,1
0,58,85,3
0,62,93,4
0,42,64,3
0,38,101,0
0,53,94,1
0,34,109,1
0,35,99,0
0,46,61,0
0,58,88,0
0,77,96,0
0,46,60,1
0,62,99,2
0,33,108,4
0,35,107,0
0,46,71,1
0,58,72,1
0,42,70,12
0,34,103,0
0,38,94,2
0,62,98,0
0,35,105,1
0,35,88,1
0,42,67,0
0,58,75,5
0,59,7,1
0,54,7,0
0,60,7,0
0,55,7,0
0,48,88,0
0,55,95,5
0,36,105,0
0,46,78,0
0,76,94,0
0,35,109,0
0,55,102,0
0,48,96,1
0,60,94,0
0,60,93,3
0,42,70,1
0,38,97,0
0,36,106,14
0,42,64,0
0,35,99,0
0,46,74,11
0,74,93,0
0,35,111,3
0,35,105,1
0,46,72,0
0,36,105,0
0,38,95,0
0,42,72,0
0,72,87,0
0,35,88,2
0,37,102,0
0,42,70,0
0,50,90,4
0,46,79,7
0,57,97,0
0,38,105,0
0,35,107,0
0,50,92,0
0,74,90,1
0,54,91,2
0,57,42,2
0,62,101,3
0,66,83,5
0,74,90,0
0,38,103,11
0,46,74,0
0,35,94,10
0,38,104,1
0,50,98,2
0,53,100,0
0,35,95,1
0,46,98,0
0,57,110,0
0,57,78,1
0,54,81,0
0,59,110,0
0,38,98,10
0,35,107,2
0,62,110,2
0,62,111,1
0,50,100,0
0,38,105,3
0,49,84,0
0,53,95,1
0,57,71,1
0,54,84,0
0,59,113,5
0,38,99,7
0,35,99,0
0,62,103,2
0,38,108,1
0,35,114,1
0,50,101,0
0,53,104,2
0,57,99,2
0,54,102,0
0,45,90,12
0,35,105,35
0,41,93,0
