track,note,velocity,time
0,50,99,1
0,50,50,29
0,50,58,15
0,50,96,15
0,48,54,31
0,50,59,0
0,50,31,31
0,50,79,32
0,48,87,30
0,48,40,31
0,48,56,15
0,48,89,15
0,48,69,31
0,47,41,31
0,48,41,0
0,48,78,31
0,47,57,33
0,45,54,0
0,47,53,30
0,47,54,14
0,47,93,15
0,47,87,32
0,47,51,31
0,47,90,30
0,45,93,31
0,45,51,31
0,45,44,14
0,32,91,14
0,32,90,0
0,45,87,1
0,45,65,31
0,43,54,32
0,34,82,0
0,34,88,0
0,45,54,30
0,36,86,1
0,36,89,0
0,45,83,31
0,37,84,0
0,37,89,0
0,45,51,31
0,45,37,14
0,45,87,16
0,45,90,32
0,43,48,11
0,45,51,31
0,32,69,0
0,32,85,0
0,45,58,1
0,37,91,0
0,37,90,0
0,45,40,31
0,45,51,17
0,45,89,13
0,45,64,31
0,43,53,17
0,32,73,0
0,32,86,0
0,45,84,2
0,31,84,0
0,31,89,0
0,45,91,32
0,30,84,0
0,30,89,0
0,45,59,31
0,45,56,15
0,45,86,15
0,45,70,33
0,43,49,29
0,45,58,21
0,25,76,0
0,25,87,0
0,45,69,31
0,30,68,0
0,30,85,0
0,45,51,30
0,45,44,15
0,45,92,15
0,45,65,31
0,43,51,19
0,37,71,0
0,37,85,0
0,45,56,30
0,36,73,0
0,36,86,0
0,45,93,8
0,35,96,0
0,35,92,0
0,45,50,31
0,45,47,15
0,45,85,15
0,45,89,31
0,43,51,31
0,45,78,30
0,35,76,2
0,35,87,0
0,45,87,11
0,35,91,2
0,35,90,0
0,45,53,30
0,45,56,15
0,45,89,15
0,45,86,31
0,35,82,28
0,35,88,0
0,43,54,1
0,35,83,18
0,35,88,0
0,45,90,1
0,45,86,31
0,40,80,0
0,40,88,0
0,45,64,31
0,45,52,15
0,45,61,15
0,45,79,24
0,40,100,0
0,40,93,0
0,43,54,31
0,45,56,30
0,45,83,34
0,45,66,29
0,45,52,12
0,40,93,14
0,40,91,0
0,45,86,1
0,45,81,31
0,43,81,0
0,40,82,15
0,40,88,0
0,45,90,1
0,43,90,0
0,44,72,2
0,44,86,0
0,43,99,2
0,45,99,0
0,61,110,29
0,64,110,0
0,68,83,0
0,59,92,0
0,46,58,0
0,57,87,0
0,37,86,0
0,37,89,0
0,61,118,0
0,64,120,0
0,68,99,0
0,59,72,0
0,35,114,0
0,59,111,0
0,64,77,0
0,68,86,8
0,61,91,1
0,64,104,0
0,56,85,2
0,49,93,0
0,63,80,31
0,51,83,1
0,68,96,0
0,61,96,0
0,64,115,0
0,59,99,0
0,62,101,0
0,42,57,0
0,40,113,0
0,54,104,0
0,64,53,18
0,46,66,29
0,51,106,0
0,35,102,0
0,49,100,0
0,49,85,0
0,32,81,0
0,32,88,0
0,56,84,0
0,64,53,1
0,42,48,5
0,35,106,0
0,51,56,0
0,49,89,0
0,56,86,0
0,64,77,0
0,37,73,0
0,37,86,0
0,51,74,2
0,42,46,1
0,44,92,0
0,64,112,0
0,61,99,0
0,59,110,0
0,68,90,0
0,54,84,6
0,62,92,0
0,51,57,1
0,56,87,0
0,64,57,0
0,49,87,0
0,42,31,2
0,62,92,8
0,40,112,1
0,54,95,0
0,63,64,0
0,42,44,1
0,51,99,0
0,59,120,0
0,61,101,0
0,64,118,0
0,68,99,0
0,49,96,0
0,51,51,5
0,32,71,0
0,32,85,0
0,64,62,0
0,42,51,1
0,35,104,3
0,31,83,0
0,31,88,0
0,42,42,0
0,51,67,0
0,56,88,0
0,64,48,0
0,42,82,1
0,46,56,2
0,35,105,0
0,30,85,0
0,30,89,0
0,51,99,0
0,58,98,0
0,58,69,0
0,58,91,0
0,64,92,0
0,68,78,0
0,63,67,0
0,68,87,0
0,61,91,0
0,64,102,0
0,64,71,0
0,42,54,12
0,58,84,0
0,61,97,0
0,68,85,0
0,64,101,0
0,51,62,30
0,54,97,0
0,64,54,1
0,42,68,1
0,51,78,13
0,40,115,0
0,62,101,0
0,54,95,0
0,63,53,0
0,54,90,0
0,42,66,1
0,54,87,0
0,61,96,1
0,58,89,0
0,68,92,0
0,64,110,0
0,64,59,0
0,51,49,2
0,35,104,0
0,37,82,0
0,37,88,0
0,52,82,0
0,46,64,0
0,54,86,0
0,64,44,0
0,42,79,8
0,42,87,0
0,35,104,5
0,44,80,0
0,44,88,0
0,42,48,0
0,51,74,0
0,64,67,0
0,54,106,0
0,51,62,8
0,54,71,0
0,42,50,1
0,68,100,0
0,58,83,0
0,61,96,0
0,64,111,0
0,51,58,12
0,35,103,0
0,42,83,0
0,42,88,0
0,62,95,0
0,54,84,0
0,42,56,0
0,52,80,0
0,64,59,0
0,54,84,1
0,40,117,2
0,62,69,0
0,51,100,0
0,54,88,0
0,63,65,0
0,49,71,0
0,42,54,1
0,68,101,0
0,58,97,0
0,64,110,0
0,61,99,0
0,54,70,2
0,64,51,0
0,51,49,1
0,42,45,0
0,37,68,0
0,37,85,0
0,35,101,1
0,42,49,0
0,51,64,0
0,64,49,0
0,47,101,0
0,36,81,1
0,36,88,0
0,54,89,0
0,35,109,4
0,57,79,0
0,46,51,0
0,51,63,0
0,66,90,0
0,57,102,0
0,64,115,0
0,61,99,0
0,35,87,1
0,35,89,0
0,66,81,0
0,64,93,0
0,57,71,0
0,61,77,0
0,64,85,0
0,42,56,1
0,51,40,0
0,61,92,1
0,64,112,0
0,57,92,0
0,47,62,5
0,51,73,1
0,64,58,0
0,42,55,1
0,47,110,0
0,40,116,7
0,47,83,0
0,51,92,0
0,66,92,0
0,57,98,0
0,61,101,0
0,64,118,0
0,62,101,0
0,63,57,0
0,42,81,0
0,54,98,0
0,64,64,12
0,51,83,5
0,35,104,0
0,42,83,0
0,42,88,0
0,47,79,0
0,64,50,0
0,47,100,0
0,46,50,2
0,51,57,8
0,35,108,0
0,35,90,0
0,35,90,0
0,42,31,2
0,47,84,0
0,64,88,0
0,51,74,10
0,66,90,0
0,57,97,0
0,64,115,0
0,61,95,0
0,42,47,1
0,51,48,4
0,47,93,0
0,47,94,0
0,62,95,0
0,54,88,0
0,64,59,0
0,42,42,1
0,62,71,15
0,51,86,1
0,40,117,0
0,66,99,0
0,57,106,0
0,64,127,0
0,54,95,0
0,63,73,0
0,42,49,0
0,61,104,0
0,35,77,2
0,35,87,0
0,64,58,0
0,42,52,1
0,51,83,2
0,35,104,0
0,37,81,0
0,37,88,0
0,47,85,0
0,42,48,0
0,64,44,0
0,51,53,2
0,56,81,0
0,46,52,0
0,35,109,0
0,40,116,0
0,40,97,0
0,40,92,0
0,64,75,0
0,66,106,1
0,68,101,0
0,71,91,0
0,56,88,0
0,64,112,0
0,59,120,0
0,51,63,12
0,42,47,0
0,59,110,1
0,56,82,0
0,64,98,0
0,51,57,3
0,42,59,0
0,52,89,0
0,52,96,0
0,51,102,28
0,40,95,0
0,40,91,0
0,56,87,0
0,64,108,0
0,59,110,0
0,62,96,0
0,64,85,0
0,54,98,0
0,42,73,1
0,35,108,0
0,40,116,0
0,52,85,26
0,52,86,9
0,42,81,13
0,51,102,0
0,35,112,0
0,40,73,0
0,40,86,0
0,71,74,0
0,66,63,0
0,62,96,0
0,52,88,0
0,54,95,0
0,52,92,1
0,51,50,6
0,59,115,0
0,64,106,0
0,56,85,0
0,51,81,8
0,40,73,0
0,40,86,0
0,52,86,0
0,40,117,1
0,51,64,2
0,42,81,0
0,68,63,0
0,73,67,0
0,35,64,0
0,35,84,0
0,64,127,0
0,59,127,0
0,62,88,0
0,45,93,1
0,56,101,0
0,54,88,0
0,51,73,14
0,62,65,0
0,43,47,1
0,54,51,0
0,51,54,2
0,36,87,0
0,36,89,0
0,52,97,0
0,62,74,0
0,54,88,0
0,43,93,1
0,66,60,0
0,71,72,0
0,37,86,1
0,37,89,0
0,59,93,0
0,46,73,1
0,68,78,0
0,61,82,0
0,59,93,0
0,64,104,0
0,51,86,0
0,35,112,0
0,68,98,0
0,61,110,0
0,57,73,0
0,59,97,0
0,64,115,0
0,64,73,0
0,42,57,14
0,59,82,0
0,51,49,0
0,61,90,0
0,64,94,0
0,51,83,1
0,49,87,0
0,56,90,0
0,42,56,0
0,64,64,0
0,68,98,27
0,64,110,0
0,59,106,1
0,61,99,0
0,42,87,1
0,51,73,0
0,40,118,0
0,63,63,0
0,54,104,0
0,62,96,0
0,64,56,18
0,44,85,30
0,44,89,0
0,46,54,1
0,51,83,0
0,49,105,0
0,64,50,0
0,49,85,0
0,35,105,1
0,56,83,0
0,37,77,0
0,37,87,0
0,42,28,2
0,51,62,0
0,35,112,0
0,49,84,0
0,56,88,0
0,64,75,0
0,51,51,7
0,44,102,0
0,61,94,0
0,64,118,0
0,59,110,0
0,68,89,0
0,42,51,1
0,62,77,0
0,49,85,0
0,54,59,0
0,64,64,0
0,51,46,1
0,42,43,0
0,56,88,0
0,40,116,1
0,62,63,0
0,51,83,1
0,49,94,0
0,61,92,0
0,59,112,0
0,68,96,0
0,64,112,0
0,54,96,0
0,63,64,0
0,42,51,0
0,64,57,1
0,42,44,1
0,51,55,0
0,32,81,0
0,32,88,0
0,42,43,13
0,35,102,0
0,31,73,0
0,31,86,0
0,64,38,0
0,49,84,0
0,51,65,1
0,42,82,0
0,56,96,0
0,46,59,1
0,64,75,0
0,35,109,1
0,30,69,0
0,30,85,0
0,68,73,0
0,64,99,0
0,58,67,0
0,63,81,0
0,58,86,0
0,58,93,0
0,51,86,0
0,61,95,0
0,64,111,0
0,68,87,0
0,54,50,11
0,42,56,1
0,51,64,1
0,58,71,0
0,68,85,0
0,61,86,0
0,64,88,0
0,42,50,27
0,51,58,0
0,54,95,0
0,64,64,0
0,40,116,1
0,63,75,0
0,42,60,1
0,51,81,0
0,54,83,0
0,54,87,0
0,62,104,0
0,54,92,0
0,68,97,5
0,58,94,0
0,64,63,0
0,61,99,1
0,64,106,1
0,35,104,15
0,37,75,0
0,37,86,0
0,52,91,0
0,46,55,0
0,54,86,0
0,64,48,0
0,51,75,0
0,42,75,1
0,42,86,0
0,42,48,3
0,35,104,0
0,54,89,0
0,51,59,1
0,44,82,0
0,44,88,0
0,64,64,0
0,51,61,5
0,54,80,0
0,58,96,0
0,61,96,0
0,68,93,0
0,64,104,0
0,42,51,1
0,35,101,6
0,52,77,0
0,62,63,0
0,42,48,0
0,51,48,0
0,42,84,0
0,42,89,0
0,54,84,0
0,54,51,0
0,64,60,1
0,40,116,12
0,51,86,0
0,68,95,0
0,58,102,0
0,61,106,0
0,62,74,0
0,63,57,0
0,49,66,0
0,64,118,0
0,54,82,0
0,42,52,1
0,51,48,4
0,54,74,0
0,64,65,0
0,42,55,1
0,37,73,0
0,37,86,0
0,35,104,2
0,54,96,0
0,42,48,0
0,51,48,0
0,64,52,0
0,36,65,0
0,36,84,0
0,47,101,1
0,35,110,4
0,66,89,0
0,46,62,0
0,35,89,0
0,35,90,0
0,57,108,0
0,61,99,0
0,64,108,0
0,64,77,0
0,51,83,1
0,66,85,0
0,57,83,0
0,64,93,0
0,61,80,0
0,57,73,0
0,42,50,7
0,51,61,0
0,66,85,0
0,64,108,0
0,42,44,5
0,51,69,0
0,47,78,0
0,47,108,0
0,64,59,0
0,51,96,9
0,40,116,0
0,66,98,0
0,61,99,0
0,57,100,0
0,64,120,0
0,42,66,1
0,47,85,0
0,62,98,0
0,63,83,0
0,54,101,0
0,64,61,28
0,35,103,10
0,42,74,0
0,42,86,0
0,46,57,0
0,47,91,0
0,47,92,0
0,64,51,0
0,51,88,1
0,35,110,7
0,64,76,0
0,42,41,0
0,47,87,0
0,47,89,0
0,47,96,0
0,51,59,1
0,66,94,9
0,57,101,0
0,61,97,0
0,64,115,0
0,42,47,1
0,51,50,0
0,35,78,1
0,35,87,0
0,47,82,0
0,47,88,0
0,42,47,1
0,62,82,0
0,54,61,0
0,64,73,0
0,51,55,1
0,40,116,18
0,66,98,0
0,57,108,0
0,62,63,0
0,63,76,0
0,51,86,0
0,61,101,0
0,64,120,0
0,54,95,0
0,42,59,0
0,64,54,17
0,51,62,1
0,35,79,1
0,35,87,0
0,35,101,4
0,47,99,0
0,51,99,0
0,64,53,0
0,42,46,0
0,37,79,0
0,37,87,0
0,56,66,0
0,56,90,1
0,59,118,0
0,64,83,0
0,35,111,1
0,64,106,0
0,51,88,0
0,40,103,0
0,40,93,0
0,66,77,0
0,68,73,0
0,71,91,0
0,46,57,0
0,40,106,11
0,56,83,1
0,59,101,0
0,42,36,1
0,52,93,0
0,45,80,1
0,52,91,0
0,42,46,2
0,51,81,9
0,40,89,0
0,40,90,0
0,64,111,0
0,56,99,0
0,64,80,0
0,59,118,0
0,42,83,1
0,62,98,0
0,43,38,0
0,54,95,0
0,45,68,30
0,52,73,0
0,52,88,4
0,35,75,1
0,35,86,0
0,43,85,2
0,42,70,15
0,51,99,0
0,52,101,0
0,52,92,0
0,68,76,0
0,66,67,0
0,71,68,0
0,43,72,1
0,40,77,0
0,40,87,0
0,62,92,0
0,54,92,0
0,56,94,14
0,59,111,0
0,64,110,0
0,43,74,1
0,52,97,1
0,43,68,1
0,51,62,0
0,32,97,0
0,32,92,0
0,69,66,1
0,42,58,20
0,62,88,1
0,43,105,1
0,51,41,0
0,64,115,0
0,59,118,0
0,56,100,0
0,68,70,0
0,73,71,0
0,54,82,0
0,43,72,5
0,62,57,0
0,51,62,0
0,35,93,0
0,35,91,0
0,68,87,0
0,54,44,0
0,51,65,3
0,36,85,0
0,36,89,0
0,52,100,0
0,43,115,1
0,62,92,0
0,54,84,0
0,71,67,0
0,66,56,0
0,46,56,7
0,61,81,0
0,59,92,0
0,68,80,0
0,64,101,0
0,57,73,1
0,66,75,0
0,37,103,0
0,37,93,0
0,61,101,0
0,68,91,0
0,59,83,0
0,35,114,1
0,59,100,0
0,64,92,0
0,42,41,3
0,61,89,2
0,64,98,0
0,59,68,0
0,42,44,1
0,49,87,1
0,56,84,0
0,64,54,0
0,40,116,21
0,68,92,0
0,63,67,0
0,42,73,0
0,61,87,0
0,64,104,0
0,59,96,0
0,51,100,0
0,62,101,0
0,54,92,0
0,64,62,18
0,49,73,5
0,32,79,1
0,32,87,0
0,64,74,0
0,46,69,1
0,51,62,0
0,35,107,0
0,49,87,0
0,56,89,0
0,64,50,0
0,51,62,7
0,37,85,0
0,37,89,0
0,35,104,0
0,49,86,0
0,42,45,0
0,56,86,0
0,64,77,0
0,51,74,6
0,44,78,0
0,64,106,0
0,59,102,0
0,61,95,0
0,68,88,0
0,42,45,2
0,51,61,12
0,62,77,0
0,54,50,0
0,49,87,0
0,56,88,0
0,42,58,2
0,64,60,0
0,40,117,2
0,62,61,0
0,51,86,0
0,54,95,0
0,63,60,0
0,68,98,0
0,64,123,0
0,61,115,0
0,59,118,1
0,42,46,1
0,49,96,0
0,51,62,1
0,32,73,0
0,32,86,0
0,64,62,0
0,42,53,1
0,51,74,2
0,35,104,0
0,42,46,0
0,31,82,0
0,31,88,0
0,49,84,0
0,56,88,0
0,64,53,0
0,42,89,1
0,35,105,5
0,58,76,0
0,46,51,0
0,30,85,0
0,30,89,0
0,58,89,0
0,51,86,0
0,64,99,0
0,61,98,0
0,64,76,0
0,68,81,0
0,63,80,0
0,58,76,0
0,64,110,0
0,68,88,0
0,42,44,10
0,68,88,0
0,61,88,1
0,64,101,1
0,51,75,29
0,42,43,0
0,54,85,0
0,64,65,0
0,40,115,4
0,51,64,0
0,54,89,0
0,62,101,0
0,54,96,0
0,63,90,0
0,54,91,0
0,42,87,1
0,58,90,4
0,68,88,0
0,61,92,0
0,64,110,0
0,64,60,0
0,35,79,1
0,35,87,0
0,35,101,2
0,52,83,0
0,46,50,0
0,51,92,0
0,54,85,0
0,64,48,0
0,37,73,1
0,37,86,0
0,42,83,9
0,42,88,0
0,68,76,2
0,42,41,1
0,51,67,0
0,35,104,0
0,54,86,0
0,64,80,1
0,44,83,0
0,44,88,0
0,51,61,8
0,58,81,0
0,68,93,0
