track,note,velocity,time
0,42,68,0
0,42,54,94
0,42,66,94
0,42,68,94
0,42,72,94
0,42,68,94
0,42,62,94
0,40,105,94
0,31,104,94
0,43,84,0
0,50,84,0
0,55,92,0
0,62,66,0
0,70,56,0
0,67,68,0
0,43,84,0
0,50,84,0
0,55,92,0
0,35,75,0
0,40,76,0
0,43,75,0
0,52,88,0
0,31,96,45
0,40,63,0
0,43,75,0
0,31,82,12
0,40,57,0
0,43,45,0
0,31,104,20
0,40,48,0
0,43,58,0
0,31,88,9
0,40,76,0
0,43,75,0
0,31,108,51
0,40,76,0
0,43,75,0
0,31,76,29
0,40,68,0
0,43,57,0
0,31,112,27
0,35,75,0
0,40,76,0
0,43,75,0
0,41,35,11
0,29,108,19
0,41,62,0
0,48,66,0
0,53,88,0
0,69,68,0
0,65,84,0
0,60,72,0
0,48,66,0
0,53,88,0
0,41,62,0
0,35,75,0
0,40,76,0
0,43,75,0
0,52,97,0
0,29,108,58
0,40,60,0
0,43,75,0
0,29,104,13
0,40,63,0
0,43,55,0
0,29,108,21
0,40,66,0
0,43,55,0
0,29,104,13
0,40,69,0
0,43,75,0
0,29,100,51
0,40,76,0
0,43,75,0
0,29,92,22
0,40,71,0
0,43,58,0
0,29,108,27
0,35,75,0
0,40,76,0
0,43,75,0
0,41,35,12
0,38,100,19
0,50,92,0
0,57,92,0
0,62,88,0
0,62,66,0
0,65,68,0
0,69,62,0
0,62,88,0
0,57,92,0
0,50,92,0
0,35,75,0
0,40,76,0
0,43,75,0
0,52,97,0
0,38,100,44
0,40,53,0
0,43,75,0
0,38,96,14
0,40,61,0
0,43,47,0
0,38,104,20
0,40,68,0
0,43,57,0
0,38,104,11
0,40,75,0
0,43,75,0
0,38,96,49
0,40,76,0
0,43,75,0
0,38,78,22
0,40,57,0
0,43,60,0
0,38,108,22
0,35,75,0
0,40,75,0
0,43,75,0
0,41,55,46
0,36,100,2
0,48,80,0
0,55,84,0
0,60,84,0
0,67,66,0
0,64,72,0
0,60,64,0
0,55,84,0
0,60,84,0
0,48,80,0
0,35,75,0
0,40,76,0
0,43,75,0
0,49,54,0
0,36,84,46
0,40,76,0
0,43,75,0
0,36,84,16
0,40,59,0
0,43,55,0
0,36,104,18
0,40,70,0
0,43,58,0
0,36,88,17
0,40,80,0
0,43,75,0
0,36,104,46
0,40,105,0
0,43,75,0
0,35,58,22
0,36,82,22
0,45,75,0
0,47,75,0
0,35,58,22
0,36,100,22
0,40,105,0
0,43,75,0
0,35,58,22
0,41,75,22
0,43,75,0
0,35,58,15
0,31,108,12
0,43,76,0
0,50,88,0
0,55,92,0
0,62,62,0
0,67,66,0
0,70,68,0
0,55,92,0
0,50,88,0
0,43,76,0
0,43,75,0
0,57,92,0
0,31,100,42
0,40,76,0
0,43,75,0
0,31,86,13
0,40,53,0
0,43,53,0
0,31,104,20
0,40,58,0
0,43,55,0
0,31,100,13
0,40,73,0
0,43,75,0
0,31,92,56
0,40,76,0
0,43,75,0
0,31,86,29
0,40,58,0
0,43,60,0
0,31,100,31
0,40,76,0
0,43,75,0
0,41,25,1
0,29,100,4
0,41,80,0
0,48,88,0
0,53,88,0
0,69,66,0
0,60,68,0
0,65,76,0
0,53,88,0
0,48,88,0
0,41,80,0
0,40,76,0
0,43,75,0
0,52,80,0
0,29,86,48
0,40,76,0
0,43,75,0
0,29,92,13
0,40,57,0
0,43,53,0
0,29,104,16
0,40,65,0
0,43,58,0
0,29,88,11
0,40,79,0
0,43,75,0
0,29,92,46
0,40,76,0
0,43,75,0
0,29,84,24
0,40,57,0
0,43,62,0
0,29,104,27
0,40,76,0
0,43,75,0
0,35,61,22
0,35,61,9
0,38,108,11
0,50,88,0
0,57,88,0
0,62,92,0
0,62,56,0
0,69,76,0
0,65,66,0
0,62,92,0
0,50,88,0
0,57,88,0
0,40,76,0
0,43,75,0
0,49,56,0
0,38,82,48
0,40,76,0
0,43,75,0
0,38,68,14
0,40,56,0
0,43,57,0
0,38,96,18
0,40,67,0
0,43,64,0
0,38,86,14
0,40,77,0
0,43,75,0
0,38,96,46
0,40,76,0
0,43,75,0
0,38,88,25
0,40,76,0
0,43,60,0
0,38,104,32
0,40,76,0
0,43,75,0
0,35,58,22
0,35,51,5
0,36,86,1
0,48,92,0
0,55,84,0
0,60,76,0
0,60,62,0
0,64,80,0
0,67,72,0
0,60,76,0
0,55,84,0
0,48,92,0
0,40,76,0
0,43,75,0
0,57,79,0
0,36,92,38
0,40,76,0
0,43,75,0
0,36,78,11
0,40,58,0
0,43,57,0
0,36,84,17
0,40,64,0
0,43,60,0
0,36,92,13
0,40,69,0
0,43,75,0
0,36,100,56
0,40,76,0
0,43,75,0
0,36,64,24
0,40,76,0
0,43,55,0
0,36,84,27
0,40,76,0
0,43,75,0
0,35,75,22
0,35,75,27
0,33,104,2
0,45,80,0
0,52,88,0
0,57,102,0
0,62,68,0
0,60,64,0
0,67,72,0
0,52,88,0
0,57,102,0
0,45,80,0
0,44,75,0
0,49,70,0
0,44,75,94
0,40,105,2
0,44,75,0
0,40,101,4
0,77,106,11
0,44,75,19
0,76,116,22
0,38,104,51
0,76,121,0
0,50,97,0
0,62,66,0
0,50,97,0
0,35,75,0
0,46,51,0
0,49,62,0
0,57,92,46
0,69,64,0
0,57,92,0
0,35,64,0
0,46,51,0
0,51,57,0
0,74,106,19
0,38,84,4
0,62,84,0
0,74,88,0
0,62,84,0
0,40,105,0
0,46,51,0
0,57,75,0
0,33,86,22
0,46,51,0
0,51,39,0
0,35,108,4
0,36,104,4
0,48,80,0
0,60,80,0
0,48,80,0
0,35,75,0
0,46,51,0
0,51,61,0
0,72,121,10
0,55,68,0
0,67,72,0
0,55,68,0
0,35,59,0
0,46,51,0
0,51,55,0
0,62,88,29
0,74,84,0
0,62,88,0
0,40,105,0
0,46,51,0
0,51,49,0
0,71,106,7
0,69,102,24
0,46,51,0
0,51,57,0
0,35,88,14
0,67,102,0
0,47,88,0
0,59,62,0
0,47,88,0
0,35,75,0
0,46,51,0
0,51,59,0
0,33,92,1
0,55,76,0
0,67,66,0
0,55,76,0
0,35,61,0
0,46,51,0
0,51,61,0
0,31,100,13
0,62,97,0
0,74,62,0
0,62,97,0
0,40,105,0
0,46,51,0
0,51,59,0
0,33,96,46
0,46,51,0
0,51,83,0
0,34,96,3
0,46,66,0
0,53,84,0
0,58,107,0
0,82,66,0
0,77,64,0
0,74,46,0
0,58,107,0
0,53,84,0
0,46,66,0
0,35,75,0
0,46,51,0
0,49,82,0
0,65,116,46
0,35,61,0
0,46,51,0
0,51,49,0
0,36,86,2
0,48,88,0
0,55,92,0
0,60,88,0
0,79,35,0
0,76,72,0
0,84,66,0
0,48,88,0
0,55,92,0
0,60,88,0
0,40,105,0
0,46,51,0
0,57,75,0
0,64,116,14
0,46,51,24
0,51,59,0
0,40,90,2
0,38,76,3
0,62,106,0
0,50,102,0
0,50,102,0
0,35,75,0
0,46,51,0
0,49,78,0
0,38,86,22
0,57,92,0
0,57,92,0
0,35,56,0
0,46,51,0
0,51,55,0
0,38,100,24
0,62,92,0
0,84,84,0
0,62,92,0
0,40,105,0
0,46,51,0
0,51,75,0
0,83,64,22
0,33,86,1
0,81,72,0
0,46,51,0
0,51,59,0
0,35,78,2
0,40,90,0
0,36,104,5
0,48,84,0
0,48,84,0
0,35,75,0
0,46,51,0
0,51,63,0
0,36,104,2
0,48,97,0
0,84,66,0
0,48,97,0
0,35,56,0
0,46,51,0
0,51,61,0
0,55,88,6
0,62,88,0
0,86,88,0
0,55,88,0
0,62,88,0
0,40,105,0
0,46,51,0
0,51,67,0
0,35,88,22
0,33,96,6
0,46,51,0
0,51,57,0
0,31,100,2
0,47,88,0
0,48,36,0
0,79,64,0
0,48,36,0
0,47,88,0
0,35,75,0
0,46,51,0
0,51,63,0
0,31,108,16
0,55,84,0
0,55,84,0
0,35,54,0
0,46,51,0
0,51,61,0
0,62,97,46
0,62,97,0
0,40,105,0
0,46,51,0
0,51,63,0
0,46,51,46
0,51,63,0
0,34,88,2
0,46,84,0
0,53,80,0
0,58,97,0
0,77,66,0
0,74,50,0
0,82,64,0
0,53,80,0
0,58,97,0
0,46,84,0
0,35,75,0
0,46,51,0
0,49,82,0
0,41,96,46
0,77,121,0
0,35,54,0
0,46,51,0
0,51,67,0
0,36,86,4
0,76,116,0
0,48,84,0
0,55,84,0
0,60,80,0
0,79,58,0
0,76,66,0
0,84,64,0
0,60,80,0
0,55,84,0
0,48,84,0
0,40,105,0
0,46,51,0
0,57,67,0
0,74,126,19
0,45,75,0
0,46,51,0
0,51,55,0
0,43,75,7
0,38,96,1
0,50,97,0
0,74,60,0
0,50,97,0
0,35,75,0
0,46,51,0
0,51,79,0
0,57,88,7
0,81,68,0
0,57,88,0
0,35,64,0
0,46,51,0
0,51,55,0
0,38,108,1
0,62,88,0
0,84,76,0
0,62,88,0
0,40,105,0
0,46,51,0
0,49,82,0
0,83,62,1
0,81,76,11
0,46,51,0
0,51,57,0
0,79,62,13
0,40,90,0
0,36,104,11
0,48,97,0
0,48,97,0
0,35,75,0
0,46,51,0
0,51,43,0
0,36,100,7
0,72,126,0
0,55,92,0
0,55,92,0
0,35,59,0
0,46,51,0
0,51,47,0
0,71,116,46
0,62,92,0
0,62,92,0
0,40,105,0
0,46,51,0
0,51,61,0
0,35,82,10
0,69,111,0
0,46,51,0
0,51,53,0
0,33,92,22
0,86,72,0
0,31,100,1
0,67,94,0
0,47,84,0
0,71,58,0
0,79,42,0
0,74,56,0
0,47,84,0
0,35,75,0
0,46,51,0
0,51,34,0
0,31,96,2
0,55,88,0
0,55,88,0
0,35,61,0
0,46,51,0
0,51,61,0
0,62,88,27
0,62,88,0
0,40,105,0
0,46,51,0
0,51,59,0
0,46,51,46
0,51,55,0
0,34,88,1
0,46,84,0
0,53,72,0
0,58,88,0
0,77,76,0
0,82,66,0
0,74,56,0
0,53,72,0
0,58,88,0
0,46,84,0
0,35,75,0
0,46,51,0
0,49,78,0
0,65,116,45
0,35,61,0
0,46,51,0
0,51,59,0
0,36,86,2
0,64,106,0
0,48,84,0
0,55,88,0
0,60,80,0
0,79,58,0
0,84,54,0
0,76,68,0
0,55,88,0
0,60,80,0
0,48,84,0
0,40,105,0
0,46,51,0
0,57,71,0
0,62,121,12
0,46,51,0
0,51,55,0
0,40,90,7
0,38,88,2
0,50,97,0
0,74,72,0
0,50,97,0
0,35,75,0
0,46,51,0
0,51,49,0
0,33,88,4
0,38,88,1
0,57,76,0
0,57,76,0
0,35,56,0
0,46,51,0
0,51,57,0
0,38,86,1
0,62,97,0
0,84,80,0
0,62,97,0
0,40,105,0
0,46,51,0
0,49,82,0
0,83,56,9
0,33,88,1
0,81,76,0
0,46,51,0
0,51,55,0
0,79,68,15
0,40,90,0
0,48,97,9
0,48,97,0
0,35,75,0
0,46,51,0
0,51,59,0
0,29,108,13
0,55,92,0
0,55,92,0
0,35,56,0
0,46,51,0
0,51,57,0
0,31,84,46
0,62,88,0
0,62,88,0
0,40,105,0
0,46,51,0
0,51,61,0
0,33,96,38
0,46,51,0
0,51,57,0
0,31,86,9
0,47,97,0
0,74,60,0
0,71,66,0
0,47,97,0
0,35,75,0
0,46,51,0
0,51,57,0
0,31,96,33
0,55,88,0
0,55,88,0
0,35,54,0
0,46,51,0
0,51,55,0
0,62,97,46
0,62,97,0
0,40,105,0
0,46,51,0
0,51,57,0
0,46,51,46
0,51,53,0
0,35,51,22
0,34,88,4
0,46,84,0
0,53,68,0
0,58,84,0
0,77,84,0
0,82,66,0
0,74,60,0
0,58,84,0
0,53,68,0
0,46,84,0
0,40,105,0
0,46,51,0
0,51,57,0
0,77,116,46
0,35,54,0
0,46,51,0
0,51,55,0
0,36,104,2
0,76,116,0
0,48,92,0
0,55,84,0
0,60,84,0
0,79,52,0
0,76,66,0
0,84,64,0
0,55,84,0
0,60,84,0
0,48,92,0
0,40,105,0
0,46,51,0
0,51,59,0
0,35,41,13
0,74,106,1
0,35,51,0
0,46,51,0
0,51,57,0
0,38,86,1
0,50,97,0
0,74,80,0
0,50,97,0
0,35,75,0
0,46,51,0
0,49,78,0
0,50,102,18
0,50,102,0
0,35,64,0
0,46,51,0
0,51,49,0
0,38,100,1
0,55,102,0
0,84,92,0
0,55,102,0
0,40,105,0
0,46,51,0
0,49,82,0
0,83,68,1
0,62,88,1
0,81,76,0
0,62,88,0
0,46,51,0
0,51,47,0
0,38,92,3
0,79,68,0
0,40,90,0
0,36,88,10
0,48,88,0
0,48,88,0
0,35,75,0
0,46,51,0
0,51,51,0
0,36,86,21
0,72,116,0
0,35,59,0
0,46,51,0
0,51,30,0
0,71,121,9
0,55,92,0
0,62,88,0
0,55,92,0
0,62,88,0
0,40,105,0
0,46,51,0
0,51,43,0
0,69,116,5
0,46,51,0
0,51,37,0
0,86,76,22
0,31,92,5
0,67,99,0
0,47,92,0
0,79,50,0
0,74,62,0
0,47,92,0
0,35,75,0
0,46,51,0
0,51,47,0
0,47,92,1
0,47,92,0
0,35,61,0
0,46,51,0
0,51,45,0
0,55,102,7
0,62,97,0
0,62,97,0
0,55,102,0
0,40,105,0
0,46,51,0
0,51,45,0
0,46,51,46
0,51,59,0
0,34,104,6
0,46,97,0
0,82,68,0
0,77,80,0
0,74,62,0
0,46,97,0
0,35,75,0
0,46,51,0
0,49,74,0
0,65,111,41
0,35,61,0
0,46,51,0
0,51,47,0
0,36,80,2
0,64,121,0
0,48,88,0
0,55,66,0
0,60,66,0
0,79,58,0
0,76,64,0
0,84,60,0
0,60,66,0
0,55,66,0
0,48,88,0
0,40,105,0
0,46,51,0
0,57,63,0
0,62,116,13
0,46,51,0
0,51,51,0
0,40,90,3
0,38,82,6
0,50,102,0
0,50,102,0
0,35,75,0
0,46,51,0
0,49,78,0
0,50,92,1
0,81,66,0
0,50,92,0
0,35,56,0
0,46,51,0
0,51,53,0
0,38,88,2
0,55,48,0
0,57,97,0
0,62,92,0
0,84,68,0
0,55,48,0
0,62,92,0
0,57,97,0
0,40,105,0
0,46,51,0
0,51,53,0
0,83,66,11
0,81,84,13
0,46,51,0
0,51,39,0
0,79,84,15
0,36,92,23
0,48,102,0
0,48,102,0
0,35,75,0
0,46,51,0
0,51,61,0
0,36,88,13
0,48,102,0
0,48,102,0
0,35,56,0
0,46,51,0
0,51,57,0
0,55,92,17
0,62,88,0
0,79,60,0
0,55,92,0
0,62,88,0
0,40,105,0
0,46,51,0
0,51,67,0
0,81,64,22
0,38,100,23
0,79,50,0
0,46,51,0
0,51,37,0
0,43,96,1
0,47,92,0
0,47,92,0
0,35,75,0
0,46,51,0
0,51,63,0
0,55,92,11
0,55,92,0
0,35,54,0
0,46,51,0
0,51,71,0
0,43,88,22
0,62,88,24
0,62,88,0
0,40,105,0
0,46,51,0
0,51,59,0
0,77,76,22
0,38,96,1
0,79,60,0
0,46,51,0
0,49,70,0
0,51,49,0
0,77,76,21
0,34,86,3
0,46,88,0
0,53,76,0
0,58,92,0
0,82,72,0
0,74,50,0
0,58,92,0
0,53,76,0
0,46,88,0
0,35,75,0
0,46,51,0
0,51,43,0
0,77,116,46
0,35,54,0
0,46,51,0
0,51,63,0
0,33,84,2
0,76,121,0
0,48,80,0
0,55,80,0
0,60,84,0
0,76,72,0
0,79,60,0
0,84,62,0
0,60,84,0
0,55,80,0
0,48,80,0
0,40,105,0
0,46,51,0
0,57,75,0
0,45,75,40
0,46,51,0
0,51,55,0
0,43,75,22
0,38,86,2
0,74,126,0
0,50,102,0
0,50,102,0
0,35,75,0
0,46,51,0
0,51,47,0
0,26,104,1
0,57,88,0
0,74,66,0
0,57,88,0
0,35,64,0
0,46,51,0
0,51,47,0
0,62,102,1
0,84,72,0
0,62,102,0
0,40,105,0
0,46,51,0
0,51,67,0
0,83,68,1
0,24,108,1
0,81,84,0
0,46,51,0
0,51,26,0
0,79,72,3
0,40,90,0
0,48,102,4
