track,note,velocity,time
1,68,127,17500
1,70,126,13
1,70,127,98
1,73,127,33
1,70,127,50
1,75,127,1898
1,73,127,18
1,76,127,163
1,75,126,77
1,73,118,53
1,70,127,0
1,70,127,120
1,73,127,145
1,73,127,85
1,73,127,90
1,70,127,10
1,70,127,180
1,68,127,10
1,65,127,62
1,65,127,138
1,65,127,47
1,68,127,55
1,65,127,20
1,68,127,32
1,65,127,15
1,68,118,232
1,70,127,245
1,70,127,52
1,73,127,37
1,77,127,42
1,75,127,25
1,73,127,250
1,75,126,15
1,73,126,78
1,70,127,48
1,68,127,1415
1,70,127,7
1,73,127,15
1,65,127,660
1,68,127,92
1,70,127,95
1,70,127,42
1,70,127,80
1,68,127,1385
1,70,127,115
1,75,127,0
1,73,127,115
1,68,127,420
1,70,127,112
1,70,127,153
1,70,127,155
1,63,127,180
1,61,127,25
1,68,127,685
1,70,127,230
1,68,126,0
1,73,127,60
1,70,127,20
1,75,127,1687
1,73,127,238
1,76,127,155
1,75,126,65
1,73,126,67
1,70,127,5
1,70,127,148
1,73,127,153
1,73,127,95
1,73,127,60
1,70,127,68
1,70,127,168
1,68,127,13
1,65,127,25
1,65,127,237
1,65,127,45
1,68,127,27
1,65,127,15
1,68,127,27
1,65,127,13
1,68,127,420
1,70,127,233
1,68,127,5
1,73,127,45
1,77,127,253
1,75,127,227
1,73,127,2
1,75,127,0
1,73,127,75
1,70,127,0
1,68,127,1190
1,68,127,120
1,68,127,158
1,68,127,65
1,70,127,393
1,68,127,795
1,70,127,237
1,70,127,163
1,68,127,10
1,73,127,13
1,68,127,650
1,70,127,230
1,70,127,187
1,70,127,93
1,70,127,127
1,82,127,32
1,75,127,493
1,73,127,475
1,76,118,168
1,77,110,7
1,75,127,45
1,73,127,58
1,70,127,5
1,68,127,175
1,70,127,240
1,68,127,225
1,73,127,20
1,70,127,12
1,75,127,1683
1,77,127,220
1,73,127,32
1,70,127,18
1,70,127,60
1,72,127,240
1,77,127,8
1,72,127,30
1,70,127,0
1,68,127,55
1,65,127,80
1,65,127,145
1,65,127,47
1,68,127,23
1,65,127,10
1,68,127,20
1,65,127,55
1,68,127,253
1,70,127,245
1,68,127,0
1,73,127,35
1,77,126,40
1,76,127,2
1,77,127,62
1,77,127,110
1,76,127,75
1,75,127,55
1,73,127,53
1,70,127,60
1,68,127,47065
1,68,127,83
1,68,127,132
1,70,127,32
1,68,127,293
1,70,127,0
1,68,127,132
1,73,127,50
1,68,127,760
1,70,127,0
1,70,127,40
1,70,126,80
1,68,118,25
1,70,127,120
1,68,127,8
1,70,127,10
1,68,127,127
1,70,127,100
1,82,127,145
1,75,127,515
1,73,126,213
1,76,127,220
1,75,127,73
1,73,126,47
1,70,127,55
1,68,127,962
1,70,127,232
1,68,127,110
1,73,127,10
1,70,127,32
1,75,127,1688
1,73,127,147
1,76,126,140
1,75,127,73
1,73,127,55
1,70,127,7
1,70,127,80
1,73,127,135
1,73,127,128
1,73,127,103
1,73,127,70
1,70,127,43
1,68,127,13
1,65,127,62
1,65,127,223
1,65,127,33
1,68,127,33
1,65,126,20
1,68,127,40
1,65,127,13
1,68,127,218
1,70,127,13
1,68,127,0
1,73,127,20
1,77,127,173
1,75,126,360
1,73,127,38
1,70,127,25
1,65,127,220
1,65,127,47
1,68,127,40
1,65,127,5
1,68,127,0
1,65,127,13
1,82,127,378
1,75,127,502
1,73,127,5
1,75,127,127
1,75,127,120
1,77,127,7
1,75,127,185
1,77,118,55
1,75,127,10
1,77,127,50
1,75,127,172
1,73,118,57
1,70,127,53
1,75,127,13
1,73,127,30
1,70,110,20
1,73,127,17
1,70,127,5
1,77,127,5763
1,75,127,100
1,73,127,112
1,75,127,38
1,77,127,3
1,80,127,2975
1,77,127,20
1,75,127,47
1,73,127,225
1,70,127,63
2,70,93,37
2,77,102,3
2,80,84,5
2,82,84,0
2,82,80,32
2,77,84,5
2,70,84,3
2,80,80,0
2,82,80,60
2,79,93,0
2,70,93,5
2,75,93,3
2,82,40,25
2,73,93,20
2,77,84,0
2,68,80,3
2,74,84,72
2,92,93,460
2,82,84,7
2,89,111,0
2,94,102,3
2,92,93,70
2,89,102,0
2,82,93,0
2,94,84,2
2,91,102,100
2,94,93,8
2,82,102,0
2,87,93,0
2,94,80,80
2,89,93,5
2,80,84,0
2,85,93,0
2,86,84,32
2,77,80,0
2,68,93,0
2,74,93,2
2,75,84,80
2,79,76,5
2,70,72,0
2,75,111,423
2,70,111,5
2,79,102,0
2,73,93,60
2,77,93,3
2,68,93,0
2,74,60,52
2,70,93,205
2,80,102,0
2,77,93,0
2,80,93,25
2,77,76,3
2,70,80,0
2,75,93,67
2,79,102,0
2,70,102,0
2,77,80,77
2,68,93,3
2,73,93,0
2,74,93,25
2,70,93,152
2,79,93,5
2,75,84,0
2,75,111,408
2,70,102,0
2,79,102,0
2,73,93,67
2,68,93,3
2,77,93,0
2,74,111,17
2,73,93,0
2,77,93,0
2,79,93,3
2,82,84,5
2,83,102,187
2,74,93,5
2,78,93,0
2,80,84,3
2,81,93,37
2,84,93,0
2,79,93,8
2,75,84,0
2,79,84,33
2,75,93,0
2,81,93,2
2,84,93,0
2,80,36,25
2,81,93,412
2,84,93,3
2,79,93,5
2,75,84,0
2,83,93,215
2,78,84,5
2,80,84,3
2,74,80,5
2,77,84,37
2,79,102,13
2,82,84,0
2,73,84,0
2,77,52,13
2,82,93,10
2,79,102,0
2,73,76,0
2,94,84,1108
2,82,84,5
2,92,93,0
2,89,102,5
2,92,84,35
2,94,93,8
2,82,102,0
2,89,102,0
2,92,102,57
2,82,84,3
2,89,80,0
2,94,102,5
2,92,93,40
2,94,93,8
2,82,84,0
2,89,102,5
2,94,93,45
2,92,84,5
2,82,84,2
2,89,93,0
2,91,102,92
2,94,102,8
2,82,93,0
2,87,93,0
2,68,93,0
2,73,93,0
2,77,93,10
2,74,93,47
2,79,93,128
2,70,102,0
2,75,84,5
2,70,84,67
2,75,84,8
2,79,93,5
2,73,93,35
2,77,93,5
2,68,102,0
2,74,80,55
2,70,102,87
2,76,84,3
2,80,84,0
2,82,102,5
2,79,93,307
2,75,93,5
2,70,102,3
2,82,93,5
2,82,84,65
2,77,102,0
2,73,102,8
2,68,93,5
2,74,80,3
2,79,80,47
2,75,80,5
2,70,72,3
2,70,93,295
2,75,93,0
2,79,102,0
2,73,93,45
2,77,80,5
2,68,102,2
2,74,80,48
2,70,93,180
2,77,102,3
2,80,102,5
2,80,84,35
2,77,93,0
2,70,84,0
2,75,93,67
2,79,93,0
2,70,102,0
2,68,84,68
2,77,80,0
2,73,93,5
2,74,102,20
2,75,93,75
2,79,93,5
2,70,93,0
2,70,111,402
2,79,102,5
2,75,102,0
2,78,72,45
2,68,93,8
2,73,80,5
2,77,84,2
2,74,80,8
2,80,102,155
2,70,102,5
2,77,102,0
2,80,84,40
2,77,93,0
2,70,80,5
2,79,102,65
2,75,93,2
2,70,102,0
2,68,84,70
2,74,84,2
2,77,76,5
2,75,93,75
2,70,93,0
2,79,93,0
2,75,102,405
2,79,93,0
2,70,93,0
2,77,80,13
2,77,93,28
2,74,93,7
2,68,93,8
2,74,93,67
2,77,93,5
2,72,84,0
2,68,111,3
2,79,102,387
2,73,84,3
2,82,93,5
2,83,102,225
2,74,93,5
2,80,93,0
2,84,102,178
2,81,93,7
2,75,111,0
2,79,93,0
2,79,84,40
2,81,93,0
2,84,93,0
2,75,93,5
2,81,93,400
2,79,93,7
2,75,93,3
2,84,93,0
2,83,102,285
2,80,102,0
2,78,102,0
2,74,111,0
2,77,93,33
2,79,93,2
2,82,93,5
2,73,93,0
2,77,84,55
2,73,84,0
2,79,84,5
2,82,93,2
2,82,80,0
2,94,84,0
2,92,84,0
2,89,84,5
2,92,84,40
2,89,93,5
2,94,93,0
2,82,84,3
2,91,111,75
2,87,102,0
2,82,84,5
2,94,93,5
2,94,93,72
2,89,102,0
2,85,102,8
2,80,102,0
2,86,93,20
2,70,102,748
2,75,93,5
2,79,84,0
2,75,102,423
2,70,111,5
2,79,102,0
2,73,93,60
2,77,93,7
2,68,102,5
2,74,68,43
2,79,84,197
2,75,93,3
2,70,93,0
2,70,102,387
2,75,102,5
2,79,102,3
2,73,93,40
2,77,102,5
2,68,93,5
2,74,84,22
2,80,102,210
2,70,102,5
2,77,102,0
2,75,102,353
2,79,93,0
2,70,102,0
2,73,93,45
2,68,102,3
2,77,76,10
2,76,93,0
2,74,76,5
2,70,93,100
2,75,84,0
2,79,84,0
2,75,84,165
2,70,102,3
2,79,93,0
2,70,102,272
2,75,93,5
2,79,102,3
2,73,93,53
2,77,76,0
2,68,102,0
2,74,80,0
2,75,102,208
2,70,102,0
2,79,93,5
2,70,102,403
2,75,102,0
2,79,111,0
2,77,84,65
2,68,93,3
2,74,93,5
2,82,93,200
2,70,102,0
2,80,84,0
2,77,93,2
2,70,80,50
2,82,84,0
2,77,93,0
2,80,80,2
2,75,93,95
2,70,93,5
2,82,93,0
2,79,84,3
2,82,80,68
2,73,84,0
2,77,93,7
2,68,93,0
2,74,76,5
2,75,93,100
2,79,76,5
2,70,93,0
2,79,102,395
2,75,111,0
2,70,102,0
2,73,93,55
2,68,111,13
2,77,80,0
2,76,68,12
2,74,76,27
2,74,93,35
2,77,84,10
2,72,102,0
2,68,102,2
2,77,102,395
2,79,93,0
2,82,93,5
2,73,102,0
2,83,102,230
2,80,102,7
2,78,84,0
2,74,93,3
2,81,93,138
2,79,93,2
2,84,84,5
2,75,111,3
2,75,84,48
2,81,84,0
2,84,84,0
2,79,102,5
2,80,36,20
2,81,93,413
2,84,80,7
2,75,102,0
2,79,93,0
2,83,102,310
2,80,93,5
2,78,80,0
2,74,111,5
2,77,93,93
2,79,84,5
2,82,84,2
2,73,93,0
2,73,84,38
2,77,93,2
2,82,84,5
2,79,84,0
2,82,76,1128
2,92,80,5
2,94,76,5
2,89,93,0
2,92,84,45
2,89,80,5
2,94,93,2
2,82,84,0
2,91,102,40
2,94,93,7
2,87,93,0
2,82,84,3
2,94,51,22
2,89,93,0
2,85,102,5
2,80,93,10
2,86,84,0
2,74,93,235
2,68,93,12
2,72,84,5
2,77,80,3
2,75,84,70
2,79,84,0
2,70,93,0
2,75,102,410
2,79,102,0
2,70,111,0
2,73,93,65
2,77,76,13
2,68,102,0
2,74,72,62
2,70,102,220
2,82,93,5
2,77,102,0
2,80,93,0
2,80,93,53
2,70,93,7
2,77,93,0
2,82,80,0
2,82,84,83
2,70,93,5
2,79,84,7
2,75,93,0
2,77,93,63
2,82,76,5
2,73,93,5
2,68,93,0
2,74,80,3
2,77,84,525
2,74,93,5
2,68,93,2
2,72,84,0
2,70,102,100
2,75,102,5
2,79,93,0
2,75,102,415
2,70,102,0
2,79,102,5
2,73,84,40
2,77,93,5
2,68,102,5
2,74,84,20
2,70,93,242
2,80,84,5
2,82,84,0
2,77,93,3
2,80,84,127
2,77,84,0
2,70,84,5
2,82,84,0
2,70,76,110
2,80,76,5
2,82,80,0
2,77,76,5
2,82,93,53
2,70,80,0
2,79,102,2
2,75,93,5
2,73,102,68
2,68,84,12
2,77,93,0
2,74,111,28
2,74,93,332
2,77,80,0
2,72,93,0
2,68,111,0
2,76,84,0
2,70,111,148
2,75,111,5
2,79,102,2
2,75,102,405
2,70,102,0
2,79,111,5
2,77,93,57
2,68,93,3
2,74,111,0
2,74,93,35
2,77,84,5
2,68,102,0
2,80,84,192
2,82,84,5
2,70,93,3
2,77,84,5
2,80,80,48
2,82,84,5
2,70,80,2
2,77,84,0
2,79,93,80
2,82,84,5
2,70,84,5
2,75,84,0
2,77,93,70
2,68,102,5
2,74,111,0
2,68,93,600
2,74,93,0
2,77,84,0
2,70,93,87
2,75,102,3
2,79,111,0
2,75,102,302
2,70,102,0
2,79,102,5
2,74,102,45
2,77,84,0
2,68,93,12
2,74,93,40
2,72,102,2
2,77,84,0
2,68,93,0
2,79,84,385
2,82,84,0
2,77,80,3
2,73,93,5
2,78,93,58
2,80,93,0
2,74,93,2
2,83,102,5
2,84,93,218
2,75,111,2
2,81,84,0
2,79,93,5
2,84,84,27
2,79,84,5
2,81,93,8
2,75,84,0
2,78,84,93
2,74,93,0
2,83,93,0
2,80,80,5
2,77,84,118
2,79,93,7
2,73,93,0
2,82,93,0
2,70,84,0
2,82,93,12
2,80,84,0
2,77,84,0
2,80,93,33
2,82,93,2
2,77,80,0
2,70,102,5
2,80,84,27
2,77,93,0
2,82,84,3
2,70,102,5
2,80,84,47
2,77,84,0
2,70,93,3
2,82,93,0
2,80,72,27
2,77,93,5
2,82,84,0
2,70,84,3
2,72,84,0
2,73,60,40
2,74,93,7
2,72,64,5
2,77,102,33
2,77,84,40
2,72,80,0
2,73,84,55
2,74,93,0
2,72,80,8
2,77,102,15
2,77,93,135
2,78,80,27
2,79,93,7
2,79,102,80
2,82,111,60
2,82,93,33
2,84,102,82
2,87,120,90
2,85,102,95
2,86,111,0
2,89,102,5
2,86,93,48
2,82,102,20
2,77,93,10
2,75,111,25
2,74,102,33
2,77,111,13
2,78,76,27
2,79,93,28
2,77,120,20
2,77,111,33
2,79,84,140
2,82,111,48
2,82,111,113
2,82,93,50
2,79,84,120
2,82,111,140
2,82,84,55
2,79,93,113
2,77,68,8
2,82,111,102
2,82,93,50
2,79,93,117
2,82,120,157
2,82,84,60
2,79,84,110
2,77,80,30
2,82,111,80
2,83,102,43
2,84,93,12
2,82,102,35
2,84,84,15
2,82,111,23
2,73,120,695
2,74,120,38
2,75,93,40
2,76,93,40
2,77,93,45
2,73,102,45
2,74,93,60
2,75,102,722
2,80,111,0
2,78,93,8
2,79,102,5
2,77,102,40
2,80,93,10
2,77,93,17
2,80,80,7
2,77,80,13
2,80,84,5
2,77,72,8
2,80,93,60
2,77,72,5
2,80,84,67
2,77,72,8
2,80,84,70
2,77,72,0
2,80,84,70
2,77,72,3
2,80,84,70
2,77,68,2
2,80,84,68
2,77,80,3
2,80,84,65
2,77,72,7
2,80,84,73
2,77,64,0
2,80,93,80
2,77,72,3
2,80,93,65
2,77,72,7
2,80,84,73
2,77,76,13
2,80,84,60
2,75,111,40
2,79,102,13
2,73,111,120
2,77,111,0
2,74,80,5
2,77,111,340
2,73,120,0
2,74,80,0
2,77,111,180
2,73,111,5
2,74,84,45
2,72,80,20
2,75,76,20
2,74,111,75
2,70,111,5
2,74,102,25
2,70,93,0
2,77,72,360
2,89,111,55
2,80,120,5
2,81,102,115
2,89,84,33
2,82,111,10
2,89,64,18
2,83,102,7
2,89,93,35
2,84,102,7
2,77,76,10
2,82,102,57
2,86,102,3
2,77,64,5
2,80,111,72
2,84,111,0
2,81,84,0
2,77,93,27
2,77,111,80
2,84,80,123
2,79,93,10
2,77,84,2
2,73,84,5
2,84,84,142
2,79,93,5
2,77,84,3
2,73,93,5
2,84,93,115
2,79,93,0
2,77,84,0
2,73,80,8
2,82,80,0
2,84,102,262
2,79,102,0
2,77,84,0
2,73,102,5
2,84,84,58
2,79,93,0
2,77,93,2
2,73,93,5
2,82,93,33
2,77,102,2
2,73,102,0
2,82,93,0
2,92,93,3
2,94,102,0
2,89,102,0
2,92,76,25
2,89,93,2
2,94,102,5
2,82,84,0
2,94,93,30
2,91,102,2
2,87,93,5
2,82,80,3
2,89,102,77
2,85,102,3
2,80,93,0
2,86,93,52
2,77,84,402
2,72,84,5
2,74,93,3
2,68,84,0
2,75,102,375
2,79,93,5
2,70,102,0
2,75,111,380
2,79,102,10
2,70,111,2
2,74,93,47
2,77,84,3
2,72,84,0
2,68,80,10
2,70,93,215
2,80,84,0
2,77,93,0
2,82,93,0
2,70,80,40
2,77,80,8
2,82,84,0
2,80,93,0
2,82,93,112
2,79,93,0
2,75,93,0
2,70,84,0
2,77,93,67
2,73,93,8
2,68,84,0
2,74,76,80
2,77,93,287
2,74,84,3
2,72,93,0
2,68,102,5
2,75,102,155
2,70,111,0
2,79,102,0
2,75,111,403
2,79,111,0
