track,note,velocity,time
1,31,87,663
1,31,0,308
1,31,87,28
1,30,93,48
1,31,0,8
1,38,96,280
1,30,0,7
1,38,0,86
1,36,81,3
1,40,84,288
1,36,0,1
1,40,0,42
1,36,84,5
1,38,93,48
1,36,0,7
1,40,99,89
1,38,0,4
1,40,0,91
1,42,81,1
1,33,87,96
1,42,0,2
1,33,0,92
1,31,90,2
1,31,0,259
1,31,78,29
1,30,87,96
1,31,0,4
1,38,96,284
1,30,0,7
1,38,0,81
1,36,81,8
1,40,96,288
1,36,0,7
1,38,81,89
1,40,0,3
1,38,0,92
1,40,81,1
1,30,66,96
1,40,0,10
1,33,96,86
1,30,0,1
1,31,84,95
1,33,0,13
1,31,0,252
1,31,63,23
1,30,81,96
1,31,0,4
1,38,90,284
1,30,0,7
1,38,0,88
1,36,75,1
1,36,0,286
1,40,81,2
1,40,0,45
1,36,63,3
1,36,0,48
1,38,81,0
1,38,0,210
1,40,75,30
1,40,0,48
1,30,75,0
1,30,0,93
1,31,84,3
1,31,0,273
1,31,84,15
1,31,0,91
1,30,69,5
1,30,0,286
1,38,78,2
1,38,0,89
1,36,46,7
1,40,63,288
1,36,0,8
1,40,0,34
1,36,72,6
1,38,87,48
1,36,0,4
1,38,0,214
1,38,81,22
1,38,0,43
1,33,75,5
1,33,0,44
1,35,78,4
1,36,81,48
1,35,0,4
1,36,0,280
1,40,72,4
1,40,0,43
1,36,58,5
1,38,87,48
1,36,0,5
1,38,0,234
1,40,81,1
1,30,69,48
1,40,0,6
1,30,0,87
1,31,84,3
1,30,84,192
1,31,0,8
1,30,0,119
1,38,93,17
1,38,0,46
1,40,87,2
1,38,84,288
1,40,0,1
1,38,0,41
1,35,81,6
1,36,66,48
1,35,0,6
1,36,0,273
1,40,81,9
1,40,0,37
1,36,60,11
1,38,93,48
1,36,0,5
1,38,0,282
1,40,93,1
1,40,0,47
1,30,69,1
1,30,0,48
1,31,81,0
1,31,0,311
1,31,81,25
1,31,0,45
1,30,78,3
1,38,93,288
1,30,0,8
1,38,0,85
1,36,84,3
1,36,0,285
1,40,75,3
1,40,0,44
1,36,58,4
1,38,81,48
1,36,0,5
1,40,87,91
1,38,0,13
1,40,0,78
1,30,84,5
1,30,0,92
1,33,72,4
1,31,81,96
1,33,0,8
1,31,0,249
1,31,84,31
1,30,81,96
1,31,0,9
1,30,0,278
1,38,84,1
1,38,0,90
1,36,75,6
1,36,0,267
1,40,87,21
1,40,0,45
1,36,72,3
1,38,78,48
1,36,0,1
1,40,81,239
1,38,0,4
1,40,0,44
1,30,93,0
1,31,87,96
1,30,0,8
1,31,0,274
1,31,63,6
1,31,0,92
1,30,75,4
1,38,93,288
1,30,0,2
1,38,0,90
1,36,72,4
1,36,0,260
1,40,72,28
1,40,0,47
1,36,84,1
1,38,72,48
1,36,0,2
1,38,0,207
1,38,84,31
1,38,0,44
1,33,84,4
1,33,0,48
1,35,84,0
1,36,84,48
1,35,0,9
1,36,0,258
1,40,87,21
1,40,0,40
1,36,66,8
1,38,87,48
1,36,0,9
1,40,81,231
1,38,0,2
1,30,81,46
1,40,0,2
1,30,0,94
1,31,81,0
1,30,81,192
1,31,0,4
1,30,0,95
1,38,93,45
1,38,0,48
1,40,96,0
1,38,75,288
1,40,0,2
1,38,0,45
1,35,81,1
1,36,78,48
1,35,0,4
1,36,0,200
1,36,55,36
1,40,84,48
1,36,0,2
1,40,0,45
1,36,55,1
1,38,93,48
1,36,0,3
1,40,84,237
1,38,0,5
1,30,78,43
1,40,0,1
1,30,0,90
1,31,81,5
1,31,0,220
1,31,78,20
1,40,99,48
1,31,0,4
1,38,57,44
1,40,0,1
1,38,0,44
1,19,84,3
1,19,0,240
1,33,78,0
1,33,0,47
1,35,75,1
1,36,63,96
1,35,0,2
1,36,0,296
1,36,75,38
1,36,0,46
1,38,90,2
1,38,0,296
1,30,72,40
1,30,0,44
1,31,81,4
1,31,0,184
1,30,81,8
1,30,0,117
1,38,84,27
1,38,0,45
1,40,84,3
1,40,0,287
1,38,78,1
1,38,0,48
1,35,81,0
1,36,72,48
1,35,0,10
1,36,0,285
1,36,72,41
1,36,0,45
1,38,93,3
1,33,78,288
1,38,0,4
1,33,0,43
1,35,78,1
1,36,72,48
1,35,0,7
1,40,78,281
1,36,0,2
1,40,0,93
1,38,90,1
1,31,75,384
1,38,0,4
1,31,0,261
1,31,81,23
1,30,66,96
1,31,0,1
1,38,96,287
1,30,0,2
1,38,0,91
1,36,75,3
1,40,81,288
1,36,0,6
1,38,93,90
1,40,0,3
1,38,0,93
1,40,93,0
1,30,69,96
1,40,0,2
1,30,0,93
1,33,72,1
1,31,84,96
1,33,0,6
1,31,0,306
1,31,78,24
1,30,78,48
1,31,0,5
1,30,0,283
1,38,90,0
1,38,0,92
1,36,66,4
1,40,90,288
1,36,0,2
1,40,0,42
1,36,69,4
1,38,84,48
1,36,0,4
1,40,84,92
1,38,0,8
1,30,81,88
1,40,0,3
1,30,0,88
1,33,66,5
1,31,81,96
1,33,0,9
1,31,0,253
1,31,81,26
1,30,84,96
1,31,0,6
1,38,90,282
1,30,0,4
1,36,69,92
1,38,0,2
1,36,0,283
1,40,81,3
1,40,0,48
1,36,72,0
1,38,72,48
1,36,0,4
1,40,75,236
1,38,0,5
1,30,81,43
1,40,0,3
1,30,0,89
1,31,84,4
1,31,0,268
1,31,81,20
1,31,0,90
1,30,72,6
1,38,90,288
1,30,0,5
1,38,0,86
1,36,75,5
1,40,69,288
1,36,0,6
1,40,0,39
1,36,75,3
1,38,81,48
1,36,0,6
1,38,0,212
1,38,81,22
1,38,0,45
1,33,84,3
1,35,81,48
1,33,0,2
1,36,81,46
1,35,0,5
1,40,78,283
1,36,0,4
1,40,0,39
1,36,55,5
1,38,93,48
1,36,0,6
1,38,0,282
1,40,84,0
1,40,0,45
1,30,81,3
1,30,0,47
1,31,75,1
1,30,78,192
1,31,0,10
1,30,0,112
1,38,93,22
1,40,96,48
1,38,0,1
1,40,0,286
1,38,81,1
1,38,0,41
1,35,69,7
1,36,81,48
1,35,0,1
1,36,0,226
1,36,66,13
1,36,0,41
1,40,81,7
1,40,0,47
1,36,69,1
1,38,99,48
1,36,0,1
1,40,96,239
1,38,0,6
1,30,81,42
1,40,0,5
1,30,0,89
1,31,78,2
1,30,81,192
1,31,0,1
1,40,93,191
1,30,0,2
1,38,96,190
1,40,0,3
1,36,87,189
1,38,0,6
1,36,0,275
1,40,99,7
1,40,0,46
1,36,69,2
1,36,0,43
1,38,96,5
1,40,81,240
1,38,0,4
1,30,69,44
1,40,0,9
1,31,84,87
1,30,0,1
1,31,0,311
1,31,84,24
1,30,63,48
1,31,0,2
1,30,0,304
1,38,96,30
1,38,0,46
1,36,63,2
1,36,0,279
1,40,84,9
1,40,0,46
1,36,78,2
1,38,93,48
1,36,0,4
1,40,90,92
1,38,0,1
1,30,78,95
1,40,0,4
1,33,58,92
1,30,0,4
1,31,84,92
1,33,0,1
1,31,0,259
1,31,78,28
1,30,72,96
1,31,0,1
1,38,84,287
1,30,0,4
1,38,0,91
1,36,75,1
1,36,0,234
1,38,78,6
1,40,81,48
1,38,0,1
1,38,78,95
1,40,0,2
1,38,0,93
1,40,90,1
1,40,0,96
1,30,81,0
1,30,0,96
1,33,66,0
1,31,93,96
1,33,0,6
1,31,0,688
2,83,75,658
2,79,63,0
2,74,72,0
2,83,0,50
2,74,0,2
2,79,0,1
2,86,42,77
2,83,58,11
2,81,63,14
2,79,57,6
2,74,58,11
2,81,0,7
2,79,0,95
2,86,0,3
2,74,0,1
2,83,0,2
2,81,63,1
2,74,46,0
2,78,60,0
2,86,66,192
2,78,0,190
2,81,0,0
2,74,0,0
2,76,52,2
2,79,48,0
2,72,60,0
2,86,0,7
2,76,0,375
2,79,0,0
2,72,0,0
2,74,66,2
2,78,81,0
2,79,57,96
2,78,0,7
2,81,87,89
2,79,0,8
2,84,52,88
2,84,0,76
2,79,60,20
2,83,78,0
2,81,0,10
2,83,0,372
2,79,0,0
2,81,54,2
2,86,60,0
2,74,0,335
2,86,0,47
2,81,0,0
2,76,28,2
2,71,43,0
2,79,52,0
2,79,0,382
2,71,0,0
2,76,0,0
2,78,66,2
2,74,49,0
2,78,0,94
2,79,75,2
2,79,0,94
2,81,55,2
2,81,0,94
2,84,78,2
2,84,0,94
2,79,42,2
2,83,39,0
2,79,0,27
2,83,0,8
2,74,0,5
2,86,42,45
2,83,66,10
2,81,63,13
2,79,58,13
2,74,51,8
2,81,0,1
2,86,0,91
2,83,0,5
2,79,0,0
2,74,0,31
2,78,55,52
2,81,42,0
2,74,40,0
2,74,0,379
2,81,0,0
2,78,0,0
2,67,58,2
2,76,81,0
2,72,57,0
2,72,0,382
2,76,0,0
2,67,0,0
2,74,46,2
2,69,66,0
2,78,42,0
2,78,0,382
2,69,0,0
2,74,0,0
2,83,49,2
2,79,46,0
2,83,0,25
2,79,0,6
2,86,42,63
2,83,55,10
2,81,66,18
2,79,51,12
2,74,46,10
2,81,0,1
2,83,0,64
2,86,0,1
2,79,0,4
2,74,0,5
2,81,46,1
2,78,55,0
2,74,45,0
2,74,0,382
2,78,0,0
2,81,0,0
2,72,43,2
2,79,46,0
2,76,66,0
2,76,0,382
2,79,0,0
2,72,0,0
2,78,66,2
2,74,55,0
2,69,48,0
2,69,0,5
2,74,0,0
2,78,0,0
2,69,63,1
2,71,69,44
2,69,0,3
2,72,72,50
2,71,0,3
2,67,52,114
2,76,60,0
2,79,45,0
2,76,0,67
2,79,0,8
2,67,0,17
2,72,0,7
2,78,57,2
2,81,45,0
2,74,40,0
2,86,60,192
2,86,0,59
2,78,0,14
2,81,0,0
2,74,0,0
2,79,58,2
2,74,55,0
2,83,72,0
2,74,0,156
2,83,0,8
2,79,0,4
2,81,55,24
2,78,55,0
2,74,48,0
2,81,0,17
2,78,0,5
2,74,0,8
2,76,63,15
2,71,69,0
2,79,52,0
2,71,0,34
2,76,0,13
2,78,43,1
2,74,66,0
2,79,0,2
2,78,0,12
2,76,72,10
2,71,42,0
2,79,69,0
2,74,0,4
2,71,0,4
2,78,69,16
2,74,60,0
2,76,0,1
2,79,0,3
2,78,0,41
2,79,55,5
2,71,60,0
2,76,63,2
2,74,0,3
2,71,0,66
2,79,0,1
2,76,0,1
2,67,66,1
2,76,58,4
2,72,58,0
2,67,0,283
2,72,0,2
2,76,0,0
2,78,54,3
2,69,43,3
2,74,40,0
2,86,78,213
2,86,0,73
2,78,0,24
2,74,0,1
2,83,57,1
2,79,52,0
2,69,0,1
2,79,0,271
2,83,0,0
2,81,54,2
2,78,57,0
2,74,46,0
2,74,0,8
2,78,0,0
2,81,0,0
2,76,54,2
2,79,49,0
2,72,69,0
2,72,0,7
2,79,0,0
2,76,0,0
2,78,55,2
2,74,57,0
2,78,0,55
2,79,75,2
2,74,0,29
2,79,0,22
2,74,60,2
2,81,90,0
2,81,0,53
2,84,84,2
2,74,0,49
2,84,0,4
2,83,43,2
2,74,45,2
2,79,45,1
2,74,0,47
2,83,0,8
2,79,0,2
2,86,51,57
2,83,66,13
2,81,78,14
2,79,72,12
2,74,40,10
2,81,0,1
2,86,0,104
2,83,0,6
2,79,0,1
2,74,0,67
2,78,45,2
2,81,27,0
2,74,48,0
2,74,0,12
2,81,0,0
2,78,0,0
2,72,49,2
2,76,54,0
2,79,40,0
2,79,0,382
2,76,0,0
2,72,0,0
2,74,55,2
2,69,60,0
2,78,54,0
2,78,0,382
2,69,0,0
2,74,0,0
2,83,52,4
2,79,28,4
2,79,0,27
2,83,0,0
2,86,63,48
2,83,48,19
2,81,55,17
2,79,66,12
2,81,0,9
2,74,63,11
2,79,0,47
2,86,0,6
2,83,0,0
2,74,0,14
2,81,57,17
2,78,60,0
2,74,45,0
2,74,0,382
2,78,0,0
2,81,0,0
2,67,42,2
2,76,63,0
2,72,49,0
2,79,54,285
2,69,60,2
2,79,0,4
2,78,63,1
2,74,46,0
2,72,0,1
2,67,0,0
2,76,0,0
2,78,0,125
2,74,0,5
2,69,0,1
2,69,81,6
2,69,0,47
2,71,84,1
2,72,69,48
2,71,0,12
2,79,46,108
2,67,63,0
2,76,52,0
2,76,0,48
2,72,0,5
2,79,0,5
2,67,0,11
2,78,46,11
2,81,52,0
2,74,46,0
2,86,42,120
2,86,0,11
2,78,0,0
2,81,0,0
2,74,0,0
2,79,45,2
2,83,57,0
2,74,51,0
2,83,0,190
2,79,0,0
2,78,66,2
2,81,55,0
2,74,0,41
2,81,0,13
2,78,0,0
2,71,63,2
2,79,55,0
2,76,60,0
2,79,0,48
2,78,66,0
2,74,90,0
2,76,0,3
2,71,0,2
2,78,0,12
2,76,87,7
2,71,72,0
2,79,66,0
2,74,0,1
2,76,0,19
2,78,69,4
2,74,72,0
2,79,0,1
2,71,0,28
2,71,60,21
2,76,72,2
2,79,39,0
2,78,0,2
2,74,0,7
2,71,0,106
2,76,0,1
2,79,0,0
2,72,69,5
2,67,58,0
2,76,58,0
2,76,0,5
2,67,0,0
2,72,0,0
2,66,46,2
2,74,52,0
2,69,54,0
2,74,0,5
2,71,55,1
2,69,0,1
2,66,0,0
2,67,55,0
2,71,0,104
2,67,0,69
2,83,69,91
2,79,58,13
2,74,75,16
2,67,55,1
2,71,78,14
2,62,84,0
2,67,0,28
2,62,0,31
2,71,0,13
2,83,0,13
2,79,0,274
2,74,0,45
2,67,78,7
2,76,96,0
2,72,102,0
2,72,0,1
2,76,0,1
2,67,0,0
2,69,55,2
2,78,63,0
2,74,69,0
2,74,0,314
2,78,0,0
2,69,0,0
2,79,60,2
2,74,63,0
2,83,93,0
2,83,0,7
2,74,0,0
2,79,0,0
2,78,81,2
2,81,63,0
2,74,69,0
2,74,0,22
2,81,0,0
2,78,0,0
2,76,66,2
2,79,52,0
2,71,69,0
2,71,0,21
2,76,0,3
2,78,66,10
2,69,45,0
2,74,81,0
2,79,0,2
2,69,0,2
2,78,0,5
2,74,0,7
2,76,87,6
2,79,75,0
2,71,66,0
2,71,0,12
2,76,0,7
2,78,55,5
2,69,58,0
2,74,81,0
2,79,0,1
2,69,0,24
2,78,0,18
2,79,27,5
2,76,66,0
2,71,75,0
2,74,0,12
2,79,0,178
2,76,0,0
2,71,0,0
2,72,66,50
2,60,84,0
2,76,63,0
2,76,0,382
2,60,0,0
2,72,0,0
2,74,55,2
2,78,66,0
2,69,49,0
2,69,0,382
2,78,0,0
2,74,0,0
2,67,33,2
2,76,69,0
2,72,46,0
2,72,0,382
2,76,0,0
2,67,0,0
2,74,49,2
2,66,55,0
2,69,49,0
2,74,0,97
2,69,0,7
2,66,0,0
2,74,54,0
2,74,0,0
2,67,60,1
2,71,52,0
2,71,0,15
2,67,0,41
2,86,36,67
2,83,55,10
2,81,58,16
2,79,63,7
2,81,0,8
2,74,27,2
2,72,6,9
2,72,0,4
2,86,0,85
2,74,0,5
2,79,0,1
2,83,0,5
2,81,55,73
2,78,69,0
2,74,46,0
2,81,0,182
2,78,0,23
2,74,0,10
2,76,52,6
2,67,49,0
2,72,39,0
2,72,0,323
2,67,0,32
2,76,0,25
2,78,66,4
2,74,57,0
2,78,0,92
2,76,90,4
2,79,69,0
2,76,0,95
2,78,66,1
2,81,84,0
2,79,0,5
2,78,0,12
2,81,0,18
2,81,46,8
2,84,66,0
2,84,0,23
2,74,0,4
2,81,0,12
2,79,36,27
2,83,49,0
2,74,36,0
2,74,0,234
2,79,0,5
2,83,0,17
2,81,21,1
2,78,54,0
2,74,46,0
2,78,0,185
2,81,0,7
2,74,0,7
2,79,45,9
2,76,52,0
2,72,40,0
2,72,0,189
2,76,0,88
2,79,0,2
2,78,43,3
2,74,45,0
2,69,45,0
2,78,0,186
2,69,0,7
2,81,63,77
2,69,51,0
2,84,66,0
2,69,0,46
2,74,0,27
2,84,0,4
2,81,0,10
2,83,46,9
2,79,45,0
2,74,43,0
2,83,0,8
2,79,0,9
2,74,0,5
