track,note,velocity,time
0,42,47,0
0,42,35,94
0,42,47,94
0,42,55,94
0,58,60,94
0,46,52,0
0,53,48,0
0,65,60,0
0,60,42,8
0,67,64,0
0,48,54,0
0,55,54,0
0,55,31,2
0,60,60,0
0,64,62,0
0,52,54,0
0,45,40,0
0,57,28,19
0,62,56,0
0,58,52,0
0,65,54,0
0,46,44,0
0,53,50,0
0,55,28,3
0,53,31,0
0,58,56,0
0,65,58,0
0,50,54,0
0,38,64,0
0,67,68,9
0,55,52,0
0,60,62,0
0,52,29,0
0,40,56,0
0,45,62,14
0,50,68,0
0,38,64,0
0,57,76,144
0,55,52,15
0,60,62,2
0,53,44,2
0,65,66,0
0,50,34,0
0,58,44,0
0,55,46,22
0,52,34,0
0,60,64,0
0,67,66,0
0,40,56,0
0,55,72,15
0,55,56,8
0,45,64,0
0,33,62,0
0,64,29,0
0,53,66,0
0,52,66,14
0,53,66,71
0,58,54,16
0,62,66,0
0,46,42,0
0,34,38,0
0,57,42,0
0,65,64,0
0,55,64,10
0,50,60,12
0,64,60,2
0,65,62,1
0,55,36,2
0,29,42,0
0,31,39,0
0,62,64,0
0,65,60,0
0,58,54,0
0,43,46,0
0,53,58,0
0,60,52,9
0,55,52,0
0,64,58,0
0,45,38,0
0,33,50,0
0,52,56,27
0,48,72,7
0,45,54,9
0,40,50,240
0,45,112,1
0,50,112,0
0,38,112,0
0,45,112,0
0,50,112,0
0,38,112,0
0,57,58,0
0,38,64,0
0,62,66,0
0,53,42,0
0,38,44,0
0,51,38,10
0,48,92,23
0,48,92,0
0,50,84,1
0,50,84,0
0,48,68,3
0,48,68,0
0,55,107,5
0,60,107,1
0,55,102,66
0,50,107,2
0,48,108,2
0,50,107,2
0,53,107,2
0,55,106,72
0,53,99,70
0,50,102,128
0,48,97,2
0,50,97,24
0,57,107,1
0,60,107,2
0,55,107,72
0,53,102,2
0,52,102,72
0,50,104,2
0,50,107,2
0,42,62,120
0,36,97,2
0,48,101,0
0,42,62,0
0,38,84,2
0,50,102,0
0,36,84,2
0,48,104,0
0,43,64,2
0,57,107,0
0,42,62,0
0,45,86,2
0,42,62,6
0,48,84,2
0,60,107,0
0,35,85,14
0,42,62,0
0,43,92,5
0,55,108,0
0,42,62,0
0,42,62,45
0,42,62,46
0,38,92,4
0,50,97,0
0,35,85,0
0,42,62,0
0,36,66,2
0,48,97,0
0,42,62,0
0,38,88,2
0,50,97,0
0,41,97,2
0,53,107,0
0,42,62,0
0,42,62,46
0,43,92,2
0,53,102,0
0,35,85,2
0,42,62,0
0,41,102,46
0,46,63,0
0,42,62,38
0,42,62,5
0,36,97,4
0,48,97,0
0,35,85,0
0,42,62,0
0,38,72,2
0,50,93,0
0,42,62,0
0,36,80,2
0,48,99,0
0,43,88,4
0,57,97,0
0,42,62,0
0,45,92,3
0,42,62,3
0,48,80,2
0,60,107,0
0,35,85,24
0,42,62,0
0,50,102,2
0,62,102,0
0,42,62,0
0,43,88,2
0,55,104,0
0,40,100,0
0,42,62,0
0,45,75,3
0,43,75,2
0,41,88,1
0,53,99,0
0,35,85,0
0,41,75,0
0,34,92,2
0,65,92,0
0,46,102,0
0,62,102,0
0,58,112,0
0,58,97,0
0,53,97,0
0,46,88,0
0,53,84,0
0,46,68,0
0,35,85,0
0,40,100,0
0,57,84,0
0,40,100,94
0,48,75,70
0,47,75,70
0,45,75,70
0,48,84,2
0,60,102,0
0,43,75,0
0,50,97,12
0,62,92,0
0,41,75,0
0,49,64,0
0,26,88,1
0,60,88,0
0,69,84,0
0,65,88,0
0,57,102,0
0,69,97,0
0,76,52,0
0,74,66,0
0,69,88,0
0,73,107,0
0,77,97,0
0,35,85,0
0,42,62,0
0,57,76,0
0,42,38,1
0,60,92,1
0,72,102,0
0,40,100,7
0,42,62,0
0,33,72,2
0,67,92,0
0,64,92,0
0,60,80,0
0,55,84,0
0,67,97,0
0,74,28,0
0,76,84,0
0,67,92,0
0,72,84,0
0,35,69,0
0,42,45,0
0,35,85,41
0,46,63,0
0,42,39,4
0,48,84,2
0,60,92,0
0,40,100,0
0,42,62,0
0,53,42,5
0,50,97,0
0,62,92,0
0,42,41,0
0,53,42,1
0,42,41,0
0,31,80,4
0,57,88,0
0,65,97,0
0,67,88,0
0,60,84,0
0,43,68,0
0,53,92,0
0,65,80,0
0,69,84,0
0,60,76,0
0,69,92,0
0,77,97,0
0,72,97,0
0,79,62,0
0,35,85,0
0,42,62,0
0,42,38,46
0,53,107,1
0,71,88,0
0,62,88,0
0,67,88,0
0,40,100,2
0,42,62,0
0,31,50,8
0,53,97,0
0,65,88,0
0,67,80,0
0,57,80,0
0,60,84,0
0,53,88,0
0,65,66,0
0,69,84,0
0,60,80,0
0,35,71,0
0,42,45,0
0,31,80,2
0,35,85,0
0,46,63,0
0,57,29,5
0,42,39,0
0,53,66,3
0,65,92,1
0,67,88,0
0,60,92,0
0,57,84,0
0,48,92,0
0,60,88,0
0,79,66,0
0,69,66,0
0,72,88,0
0,77,88,0
0,40,100,0
0,42,62,0
0,53,80,22
0,64,84,2
0,55,72,0
0,60,66,0
0,50,80,0
0,62,84,0
0,76,72,0
0,67,68,0
0,72,60,0
0,42,41,0
0,45,58,15
0,42,41,0
0,26,76,4
0,62,66,0
0,55,60,0
0,38,80,0
0,57,102,0
0,69,97,0
0,74,66,0
0,77,88,0
0,69,76,0
0,35,85,0
0,42,62,0
0,42,38,4
0,72,97,11
0,60,92,7
0,40,100,0
0,42,62,0
0,38,66,2
0,64,92,0
0,60,84,0
0,55,84,0
0,45,76,0
0,55,97,0
0,67,107,0
0,67,80,0
0,76,68,0
0,72,76,0
0,35,74,0
0,42,45,0
0,36,66,3
0,35,85,0
0,46,63,0
0,36,62,11
0,55,16,0
0,53,92,0
0,65,107,0
0,42,39,0
0,35,66,1
0,40,100,0
0,42,62,0
0,52,88,5
0,64,97,0
0,33,64,7
0,64,72,0
0,60,68,0
0,55,68,0
0,42,41,0
0,42,41,7
0,31,72,12
0,43,84,0
0,50,107,0
0,62,102,0
0,81,66,0
0,86,102,0
0,35,85,0
0,42,62,0
0,62,76,2
0,55,102,8
0,35,69,0
0,42,38,0
0,67,84,4
0,74,92,0
0,68,112,0
0,69,80,6
0,40,100,0
0,42,62,0
0,69,38,4
0,71,88,0
0,72,84,0
0,67,88,0
0,74,84,0
0,31,62,1
0,55,80,0
0,42,45,0
0,71,62,4
0,69,97,0
0,65,88,0
0,74,84,0
0,42,62,0
0,31,58,1
0,55,92,0
0,35,85,0
0,46,63,0
0,31,84,1
0,62,97,0
0,42,43,0
0,33,84,10
0,35,71,0
0,42,55,0
0,62,97,1
0,35,68,2
0,55,84,0
0,48,88,0
0,60,97,0
0,81,68,0
0,86,92,0
0,40,100,0
0,42,62,0
0,60,102,17
0,36,62,1
0,61,62,0
0,62,102,0
0,50,76,0
0,62,97,0
0,84,62,0
0,79,54,0
0,42,41,0
0,45,88,1
0,42,41,0
0,38,84,1
0,38,84,0
0,57,84,0
0,69,102,0
0,77,76,0
0,81,88,0
0,86,64,0
0,35,85,0
0,42,62,0
0,42,38,14
0,60,92,22
0,72,97,0
0,40,100,22
0,42,62,0
0,36,54,16
0,45,92,0
0,60,92,0
0,55,92,0
0,55,97,0
0,67,102,0
0,76,92,0
0,79,68,0
0,86,68,0
0,35,69,0
0,42,45,0
0,36,80,15
0,35,85,0
0,46,63,0
0,42,39,46
0,48,92,6
0,60,97,0
0,40,100,0
0,42,62,0
0,55,22,1
0,50,84,0
0,62,88,0
0,42,41,0
0,42,41,18
0,31,80,6
0,43,66,0
0,62,88,0
0,60,92,0
0,55,76,0
0,53,107,0
0,65,88,0
0,69,84,0
0,60,84,0
0,89,97,0
0,84,88,0
0,79,68,0
0,35,85,0
0,42,62,0
0,42,38,46
0,53,92,5
0,67,92,0
0,71,102,0
0,62,84,0
0,40,100,5
0,42,62,0
0,31,54,1
0,65,80,0
0,53,92,0
0,60,92,0
0,67,72,0
0,57,80,0
0,43,66,0
0,53,102,0
0,60,84,0
0,65,84,0
0,69,76,0
0,35,71,0
0,42,45,0
0,31,80,1
0,35,85,0
0,46,63,0
0,53,68,3
0,42,39,0
0,60,102,3
0,57,97,0
0,65,107,0
0,67,102,0
0,48,92,0
0,60,92,0
0,88,88,0
0,87,92,0
0,84,68,0
0,79,56,0
0,40,100,0
0,42,62,0
0,64,80,2
0,55,72,0
0,60,58,0
0,50,80,0
0,62,92,0
0,42,41,0
0,42,41,1
0,38,76,1
0,50,52,0
0,38,66,0
0,62,84,0
0,57,80,0
0,57,92,0
0,69,97,0
0,89,97,0
0,81,80,0
0,86,84,0
0,35,85,0
0,42,62,0
0,42,38,16
0,60,84,2
0,72,92,0
0,40,100,24
0,42,62,0
0,45,56,1
0,50,88,0
0,62,88,0
0,74,88,0
0,35,74,0
0,42,45,0
0,36,76,2
0,64,97,0
0,60,92,0
0,48,97,0
0,55,88,0
0,55,92,0
0,65,76,0
0,84,62,0
0,88,68,0
0,79,68,0
0,35,85,0
0,40,100,0
0,47,75,1
0,45,75,1
0,36,68,4
0,53,80,0
0,35,85,0
0,34,88,7
0,58,88,0
0,62,88,0
0,53,88,0
0,46,97,0
0,50,72,0
0,46,60,0
0,53,92,0
0,58,107,0
0,77,72,0
0,86,68,0
0,82,80,0
0,40,100,0
0,57,64,0
0,40,100,132
0,40,115,94
0,40,100,70
0,33,66,22
0,45,75,0
0,45,44,19
0,34,66,7
0,43,75,0
0,35,76,3
0,66,66,0
0,57,84,0
0,62,84,0
0,47,80,0
0,54,80,0
0,47,72,0
0,59,72,0
0,35,85,0
0,42,62,0
0,49,80,0
0,71,66,46
0,42,38,0
0,54,58,11
0,73,80,2
0,40,100,0
0,42,41,0
0,35,60,16
0,47,72,0
0,66,72,0
0,62,88,0
0,57,76,0
0,74,62,0
0,47,64,0
0,54,56,0
0,59,64,0
0,35,69,0
0,42,45,0
0,35,66,22
0,76,84,0
0,35,85,0
0,42,62,0
0,42,39,45
0,74,64,6
0,40,100,24
0,42,62,0
0,47,58,5
0,73,84,0
0,46,43,0
0,28,80,2
0,66,68,0
0,62,80,0
0,57,68,0
0,52,80,0
0,74,80,0
0,52,64,0
0,64,64,0
0,59,62,0
0,35,85,0
0,42,62,0
0,42,38,46
0,52,54,5
0,59,68,0
0,64,68,0
0,74,80,7
0,40,100,0
0,42,41,0
0,28,68,30
0,62,80,0
0,57,62,0
0,52,80,0
0,74,84,0
0,59,52,0
0,64,68,0
0,52,60,0
0,35,69,0
0,42,45,0
0,40,68,3
0,35,85,0
0,42,62,0
0,38,68,2
0,42,39,0
0,40,68,2
0,76,72,0
0,40,100,0
0,42,62,0
0,52,56,15
0,76,80,0
0,46,43,0
0,33,64,6
0,45,66,0
0,57,68,0
0,64,68,0
0,61,88,0
0,73,80,0
0,52,39,0
0,45,60,0
0,57,62,0
0,35,85,0
0,42,62,0
0,42,38,4
0,52,64,18
0,45,64,0
0,57,60,0
0,40,100,8
0,42,41,0
0,33,66,41
0,45,64,0
0,57,58,0
0,61,72,0
0,64,62,0
0,57,66,0
0,45,66,0
0,52,62,0
0,35,69,0
0,42,45,0
0,33,66,27
0,35,85,0
0,42,62,0
0,42,39,46
0,40,100,46
0,42,62,0
0,46,43,21
0,33,68,6
0,45,68,0
0,52,56,0
0,45,56,0
0,57,62,0
0,35,85,0
0,42,62,0
0,52,72,1
0,42,38,0
0,61,20,12
0,64,76,0
0,60,80,0
0,52,62,0
0,57,62,0
0,52,64,1
0,40,100,0
0,42,41,0
0,64,84,15
0,59,97,0
0,33,56,3
0,52,84,0
0,52,52,0
0,57,58,0
0,45,62,0
0,35,69,0
0,42,45,0
0,57,97,5
0,64,76,0
0,33,80,5
0,52,80,0
0,35,85,0
0,42,62,0
0,54,92,11
0,52,80,8
0,42,39,0
0,49,92,6
0,64,88,3
0,61,107,0
0,57,80,0
0,42,76,0
0,40,100,0
0,42,62,0
0,40,64,46
0,42,62,0
0,42,50,2
0,42,36,0
0,35,64,12
0,62,88,0
0,57,68,0
0,47,76,0
0,47,60,0
0,62,58,0
0,57,58,0
0,35,85,0
0,42,62,0
0,71,88,46
0,42,38,0
0,47,60,16
0,62,52,0
0,57,62,0
0,73,80,1
0,40,100,0
0,42,41,0
0,35,56,14
0,47,68,0
0,57,76,0
0,62,84,0
0,74,72,0
0,62,54,0
0,57,64,0
0,47,56,0
0,35,69,0
0,42,45,0
0,35,64,29
0,76,84,0
0,35,85,0
0,42,62,0
0,42,39,46
0,74,66,22
0,40,100,19
0,42,62,0
0,40,54,5
0,47,31,0
0,73,80,0
0,46,43,0
0,28,76,2
0,52,80,0
0,62,80,0
0,57,66,0
0,74,80,0
0,52,64,0
0,59,68,0
0,64,62,0
0,35,85,0
0,42,62,0
0,42,38,46
0,62,66,11
0,57,60,0
0,52,46,0
0,59,54,0
0,64,56,0
0,74,80,10
0,40,100,0
0,42,41,0
0,28,66,29
0,62,84,0
0,64,72,0
0,57,68,0
0,52,62,0
0,74,84,0
0,59,60,0
0,64,56,0
0,52,64,0
0,35,69,0
0,42,45,0
0,28,80,26
0,35,85,0
0,42,62,0
0,40,68,46
0,42,39,0
0,62,66,24
0,64,62,0
0,57,68,0
0,78,84,0
0,40,100,0
0,42,62,0
0,52,84,26
0,46,43,0
0,33,76,13
0,64,72,0
0,61,88,0
0,57,76,0
0,45,76,0
0,76,68,0
0,52,56,0
0,45,64,0
0,61,64,0
0,35,85,0
0,42,62,0
0,73,68,46
0,42,38,0
0,45,44,17
0,52,38,0
0,57,50,0
0,61,56,0
0,40,100,14
0,42,41,0
0,33,80,45
0,45,64,0
0,57,62,0
0,61,88,0
0,64,72,0
0,45,64,0
0,61,56,0
0,57,64,0
0,52,58,0
0,35,69,0
0,42,45,0
0,33,68,30
0,35,85,0
0,42,62,0
0,42,39,46
0,40,100,46
0,42,62,0
0,40,68,1
0,52,42,0
0,46,43,0
0,42,54,9
0,33,84,10
0,52,42,0
0,61,92,0
0,64,72,0
0,45,62,0
0,57,66,0
0,61,56,0
0,45,66,0
0,57,66,0
0,52,58,0
0,35,85,0
0,42,62,0
0,40,100,46
0,42,38,0
0,61,52,2
0,57,58,0
0,52,37,0
0,40,100,15
0,42,41,0
0,33,58,31
0,64,54,0
0,61,84,0
0,52,64,0
0,57,68,0
0,45,64,0
0,45,64,0
0,61,60,0
0,57,68,0
0,52,62,0
0,35,69,0
0,42,45,0
0,33,62,25
0,40,100,0
0,42,62,0
0,74,92,46
0,35,85,0
0,42,39,0
0,40,100,5
0,42,62,0
0,40,100,22
0,35,60,14
0,76,80,0
0,42,62,0
0,45,75,0
0,37,68,2
0,42,36,0
0,43,75,0
0,34,72,4
0,77,76,0
0,53,72,0
0,46,66,0
0,58,80,0
0,70,64,0
0,77,72,0
0,69,66,0
0,74,62,0
0,35,85,0
0,42,62,0
0,49,56,0
0,42,38,46
0,77,88,28
0,40,100,0
0,42,62,0
0,36,76,3
0,76,88,0
0,55,64,0
0,64,66,0
0,48,68,0
0,60,64,0
0,67,68,0
0,79,64,0
0,76,80,0
0,72,80,0
0,35,69,0
0,42,45,0
0,35,85,35
0,46,63,0
0,74,66,3
0,42,39,0
0,72,60,3
0,40,100,0
0,42,62,0
0,70,54,7
0,42,41,0
0,42,41,3
0,33,68,14
0,72,84,0
0,50,58,0
0,52,50,0
0,60,80,0
0,55,76,0
0,45,62,0
0,67,66,0
0,72,72,0
0,35,85,0
0,42,62,0
0,42,38,24
0,74,76,8
0,40,100,0
0,42,62,0
0,38,68,3
0,69,84,0
0,65,58,0
0,57,66,0
0,50,64,0
0,69,80,0
0,77,76,0
0,35,71,0
0,42,45,0
0,35,85,42
0,46,63,0
0,67,66,2
0,65,80,24
0,42,39,0
0,40,100,46
0,42,62,0
0,42,41,46
0,42,41,8
0,31,66,22
0,58,62,0
0,62,68,0
0,70,68,0
0,74,62,0
0,35,85,0
0,42,62,0
