track,note,velocity,time
5,45,90,678
5,45,0,180
5,45,90,198
5,45,0,288
5,45,90,30
5,45,0,48
5,38,90,26
5,38,0,180
5,38,90,196
5,38,0,192
5,45,90,82
5,45,0,40
5,38,90,14
5,38,0,48
5,33,90,8
5,33,0,192
5,45,90,192
5,45,0,264
5,45,90,36
5,45,0,52
5,38,90,32
5,38,0,168
5,38,90,216
5,38,0,108
5,45,90,24
5,45,0,60
5,43,90,0
5,43,0,56
5,41,90,10
5,41,0,56
5,38,90,12
5,38,0,48
5,33,90,20
5,33,0,168
5,33,90,206
5,33,0,100
5,38,90,32
5,38,0,36
5,41,90,24
5,41,0,98
5,45,90,22
5,45,0,54
5,46,90,8
5,46,0,190
5,46,90,84
5,46,0,48
5,41,90,12
5,41,0,36
5,34,90,24
5,34,0,240
5,34,90,58
5,34,0,52
5,33,90,26
5,33,0,188
5,45,90,204
5,43,90,260
5,45,0,4
5,43,0,44
5,45,90,14
5,45,0,58
5,46,90,6
5,46,0,180
5,46,90,202
5,46,0,228
5,45,90,156
5,45,0,254
5,45,90,52
5,45,0,54
5,40,90,24
5,40,0,252
5,45,90,26
5,45,0,44
5,40,90,14
5,40,0,42
5,33,90,12
5,33,0,268
5,43,90,38
5,43,0,60
5,40,90,12
5,40,0,234
5,40,90,48
5,40,0,44
5,43,90,14
5,43,0,36
5,45,90,18
5,45,0,226
5,45,90,44
5,43,90,54
5,45,0,8
5,43,0,34
5,40,90,18
5,40,0,172
5,43,90,10
5,43,0,166
5,45,90,34
5,45,0,164
5,45,90,212
5,45,0,152
5,43,90,48
5,43,0,148
5,43,90,36
5,43,0,228
5,43,90,42
5,43,0,48
5,46,90,6
5,46,0,48
5,48,90,18
5,48,0,156
5,46,90,34
5,46,0,158
5,43,90,30
5,43,0,192
5,43,90,68
5,43,0,48
5,40,90,14
5,40,0,40
5,36,90,24
5,36,0,186
5,48,90,6
5,48,0,72
5,46,90,58
5,46,0,56
5,43,90,4
5,43,0,242
5,43,90,76
5,43,0,56
5,38,90,16
5,38,0,168
5,38,90,18
5,38,0,174
5,43,90,22
5,43,0,266
5,43,90,118
5,41,90,260
5,43,0,2
5,41,0,52
5,43,90,8
5,43,0,44
5,45,90,20
5,45,0,180
5,45,90,116
5,45,0,52
5,38,90,30
5,38,0,176
5,41,90,16
5,41,0,156
5,50,90,36
5,50,0,180
5,50,90,136
5,50,0,54
5,38,90,14
5,38,0,184
5,48,90,8
5,48,0,170
5,43,90,24
5,43,0,180
5,45,90,142
5,45,0,60
5,43,90,10
5,41,90,62
5,43,0,12
5,41,0,34
5,40,90,8
5,40,0,60
5,36,90,6
5,36,0,98
5,32,90,14
5,32,0,260
5,33,90,16
5,33,0,186
5,34,90,12
5,34,0,178
5,35,90,4
5,35,0,180
5,36,90,14
5,36,0,184
5,43,90,200
5,43,0,240
5,43,90,68
5,43,0,60
5,40,90,20
5,40,0,192
5,40,90,192
5,40,0,120
5,47,90,20
5,40,90,46
5,47,0,12
5,40,0,48
5,38,90,12
5,38,0,48
5,36,90,8
5,36,0,56
5,33,90,10
5,33,0,180
5,45,90,202
5,45,0,228
5,43,90,32
5,43,0,44
5,45,90,16
5,45,0,50
5,46,90,14
5,46,0,192
5,46,90,192
5,46,0,184
5,45,90,202
5,45,0,232
5,45,90,82
5,45,0,70
5,40,90,6
5,40,0,224
5,43,90,42
5,43,0,48
5,40,90,12
5,40,0,42
5,33,90,10
5,33,0,282
5,43,90,28
5,43,0,58
5,40,90,14
5,40,0,180
5,40,90,104
5,40,0,36
5,43,90,20
5,43,0,36
5,45,90,8
5,45,0,208
5,45,90,60
5,45,0,48
5,43,90,8
5,43,0,48
5,40,90,16
5,40,0,176
5,43,90,12
5,43,0,176
5,45,90,20
5,45,0,194
5,45,90,186
5,45,0,168
5,43,90,24
5,43,0,152
5,43,90,40
5,43,0,228
5,43,90,36
5,43,0,38
5,46,90,16
5,46,0,30
5,48,90,36
5,48,0,168
5,46,90,24
5,46,0,164
5,43,90,28
5,43,0,240
5,40,90,12
5,40,0,54
5,43,90,12
5,43,0,50
5,36,90,28
5,36,0,182
5,48,90,12
5,48,0,78
5,46,90,38
5,46,0,54
5,43,90,8
5,43,0,222
5,43,90,86
5,43,0,54
5,38,90,22
5,38,0,156
5,38,90,36
5,38,0,164
5,43,90,28
5,43,0,180
5,43,90,204
5,43,0,192
5,41,90,82
5,41,0,30
5,43,90,24
5,43,0,42
5,45,90,22
5,45,0,234
5,45,90,78
5,45,0,52
5,38,90,18
5,38,0,172
5,45,90,14
5,45,0,144
5,38,90,0
5,38,0,16
5,50,90,32
5,38,90,132
5,38,0,14
5,50,0,22
5,48,90,24
5,48,0,180
5,45,90,12
5,45,0,154
5,45,90,42
5,45,0,156
5,38,90,32
5,38,0,168
5,38,90,216
5,38,0,168
5,38,90,144
5,38,0,58
5,37,90,18
5,37,0,192
5,37,90,188
5,43,90,192
5,37,0,10
5,43,0,166
5,36,90,18
5,36,0,174
5,48,90,16
5,48,0,170
5,43,90,22
5,43,0,182
5,40,90,10
5,40,0,168
5,39,90,24
5,39,0,170
5,39,90,22
5,39,0,188
5,46,90,4
5,36,90,132
5,36,0,14
5,46,0,6
5,43,90,40
5,36,90,136
5,43,0,10
5,36,0,4
5,44,90,42
5,44,0,82
5,44,90,40
5,44,0,34
5,43,90,36
5,36,90,140
5,36,0,14
5,43,0,6
5,41,90,32
5,36,90,132
5,36,0,6
5,41,0,6
5,39,90,48
5,32,90,190
5,39,0,16
5,32,0,162
5,36,90,16
5,39,90,192
5,36,0,16
5,39,0,146
5,44,90,30
5,44,0,142
5,32,90,0
5,32,0,20
5,44,90,30
5,32,90,132
5,32,0,18
5,44,0,30
5,36,90,12
5,32,90,128
5,32,0,22
5,36,0,14
5,39,90,28
5,32,90,132
5,32,0,12
5,39,0,8
5,32,90,40
5,32,0,192
5,44,90,0
5,44,0,168
5,43,90,24
5,43,0,168
5,41,90,24
5,41,0,168
5,39,90,24
5,39,0,168
5,32,90,28
5,32,0,164
5,36,90,24
5,36,0,192
5,39,90,0
5,39,0,186
5,44,90,10
5,35,90,136
5,44,0,8
5,35,0,4
5,37,90,40
5,37,0,152
5,35,90,2
5,35,0,12
5,37,90,26
5,37,0,190
5,44,90,10
5,44,0,160
5,36,90,24
5,44,90,134
5,44,0,30
5,36,0,4
5,39,90,12
5,39,0,184
5,43,90,20
5,43,0,192
5,46,90,0
5,38,90,128
5,38,0,14
5,46,0,26
5,43,90,24
5,36,90,138
5,36,0,14
5,43,0,16
5,39,90,24
5,39,0,186
5,31,90,6
5,31,0,166
5,34,90,30
5,34,0,168
5,39,90,32
5,39,0,180
5,34,90,0
5,34,0,152
5,34,90,40
5,34,0,192
5,37,90,0
5,34,90,126
5,34,0,26
5,37,0,28
5,41,90,12
5,35,90,134
5,35,0,20
5,41,0,2
5,39,90,28
5,35,90,140
5,35,0,16
5,39,0,8
5,43,90,36
5,43,0,180
5,46,90,12
5,35,90,140
5,36,90,2
5,36,0,6
5,35,0,8
5,46,0,12
5,43,90,24
5,43,0,184
5,34,90,2
5,34,0,184
5,41,90,14
5,41,0,172
5,46,90,22
5,34,90,132
5,34,0,28
5,46,0,8
5,41,90,22
5,34,90,120
5,34,0,42
5,41,0,6
5,46,90,24
5,46,0,154
5,46,90,38
5,46,0,168
5,48,90,24
5,48,0,148
5,48,90,44
5,48,0,178
5,41,90,18
5,41,0,178
5,44,90,10
5,44,0,180
5,48,90,16
5,40,90,134
5,40,0,18
5,48,0,8
5,44,90,28
5,36,90,128
5,36,0,14
5,44,0,26
5,37,90,24
5,37,0,182
5,41,90,10
5,41,0,180
5,44,90,12
5,44,0,182
5,37,90,10
5,37,0,168
5,48,90,24
5,48,0,168
5,43,90,24
5,43,0,186
5,40,90,6
5,40,0,182
5,36,90,10
5,41,90,128
5,41,0,22
5,36,0,18
5,35,90,24
5,35,0,192
5,47,90,72
5,47,0,60
5,44,90,0
5,44,0,48
5,40,90,24
5,40,0,168
5,43,90,92
5,43,0,60
5,40,90,4
5,40,0,36
5,33,90,12
5,33,0,174
5,36,90,28
5,36,0,178
5,40,90,8
5,45,90,192
5,40,0,10
5,33,90,144
5,45,0,4
5,33,0,18
5,46,90,12
5,40,90,14
5,40,0,10
5,46,0,156
5,41,90,12
5,41,0,156
5,38,90,36
5,38,0,160
5,34,90,32
5,34,0,188
5,33,90,8
5,33,0,186
5,36,90,2
5,36,0,190
5,45,90,8
5,33,90,144
5,45,0,4
5,33,0,18
5,43,90,22
5,33,90,190
5,43,0,1
5,33,0,165
5,36,90,26
5,36,0,180
5,40,90,14
5,40,0,150
5,33,90,0
5,33,0,16
5,42,90,26
5,42,0,134
5,33,90,6
5,33,0,20
5,45,90,28
5,33,90,140
5,33,0,14
5,45,0,28
5,43,90,12
5,43,0,178
5,40,90,14
5,40,0,180
5,36,90,12
5,36,0,180
5,33,90,12
5,33,0,180
5,36,90,12
5,36,0,168
5,40,90,24
5,40,0,180
5,45,90,12
5,33,90,146
5,45,0,16
5,33,0,0
5,43,90,32
5,43,0,178
5,37,90,12
5,37,0,156
5,36,90,36
5,36,0,184
5,40,90,8
5,40,0,182
5,43,90,2
5,43,0,182
5,37,90,18
5,37,0,184
5,36,90,10
5,36,0,184
5,40,90,6
5,36,90,124
5,36,0,40
5,40,0,4
5,43,90,24
5,43,0,168
5,31,90,24
5,31,0,180
5,34,90,12
5,34,0,184
5,38,90,8
5,38,0,180
5,43,90,12
5,43,0,180
5,40,90,12
5,40,0,168
5,38,90,24
5,34,90,192
5,38,0,6
5,34,0,182
5,29,90,8
5,29,0,160
5,29,90,32
5,29,0,178
5,33,90,16
5,33,0,186
5,38,90,0
5,38,0,156
5,40,90,32
5,40,0,160
5,40,90,36
5,40,0,196
5,47,90,4
5,36,90,132
5,47,0,14
5,36,0,6
5,44,90,36
5,35,90,144
5,36,90,2
5,44,0,2
5,36,0,10
5,35,0,2
5,45,90,34
5,45,0,174
5,33,90,16
5,33,0,178
5,36,90,10
5,36,0,186
5,45,90,6
5,33,90,140
5,33,0,20
5,45,0,8
5,44,90,24
5,44,0,176
5,32,90,16
5,32,0,186
5,36,90,6
5,36,0,192
5,41,90,0
5,41,0,182
5,36,90,10
5,36,0,156
5,36,90,36
5,36,0,168
5,43,90,24
5,43,0,174
5,50,90,18
5,36,90,140
5,50,0,16
5,36,0,0
5,48,90,36
5,48,0,48
5,43,90,12
5,43,0,36
5,48,90,24
5,48,0,48
5,43,90,24
5,43,0,44
5,48,90,28
5,48,0,46
5,43,90,2
5,43,0,48
5,48,90,24
5,48,0,54
5,43,90,6
5,43,0,48
5,48,90,12
5,48,0,54
5,43,90,18
5,43,0,48
5,48,90,12
5,48,0,48
5,43,90,18
5,43,0,50
5,44,90,20
5,44,0,108
5,44,90,24
5,44,0,42
5,43,90,24
5,38,90,126
5,43,0,2
5,38,0,10
5,41,90,44
5,36,90,128
5,36,0,16
5,41,0,12
5,39,90,36
5,39,0,180
5,32,90,18
5,32,0,176
5,36,90,10
5,36,0,180
5,39,90,14
5,39,0,164
5,44,90,26
5,32,90,138
5,32,0,22
5,44,0,6
5,32,90,26
5,32,0,182
5,44,90,10
5,44,0,178
5,39,90,22
5,39,0,156
5,36,90,28
5,32,90,128
5,32,0,40
5,36,0,4
5,44,90,28
5,44,0,96
5,44,90,26
5,44,0,36
5,41,90,36
5,41,0,180
5,39,90,2
5,39,0,154
5,37,90,40
5,37,0,96
5,34,90,44
5,34,0,48
5,32,90,12
5,36,90,188
5,32,0,4
5,36,0,182
5,39,90,6
5,39,0,164
5,44,90,22
5,44,0,174
5,45,90,18
5,45,0,164
5,45,90,28
5,45,0,180
5,42,90,12
5,42,0,176
5,39,90,16
5,38,90,136
5,36,90,4
5,36,0,6
5,38,0,4
5,39,0,6
5,39,90,36
5,36,90,138
5,36,0,10
5,39,0,10
5,37,90,34
5,37,0,176
5,36,90,16
5,36,0,186
5,34,90,6
5,34,0,178
5,39,90,2
5,39,0,192
5,43,90,12
5,43,0,178
5,46,90,14
5,46,0,168
5,43,90,28
5,39,90,130
5,43,0,2
5,39,0,48
5,40,90,8
5,40,0,168
5,40,90,24
5,40,0,186
5,39,90,6
5,39,0,166
5,39,90,26
5,39,0,154
5,39,90,42
5,39,0,144
5,39,90,44
5,39,0,144
5,39,90,52
5,39,0,168
5,39,90,24
5,39,0,146
5,40,90,42
5,40,0,168
5,40,90,24
5,40,0,168
5,39,90,24
5,39,0,168
5,39,90,24
5,39,0,170
5,39,90,24
5,39,0,168
5,42,90,22
5,42,0,168
5,42,90,24
5,42,0,166
5,36,90,26
5,36,0,168
5,41,90,24
5,35,90,132
5,36,90,2
5,41,0,2
5,36,0,10
5,35,0,2
5,39,90,44
5,39,0,178
5,38,90,14
5,38,0,176
5,36,90,16
5,36,0,168
5,31,90,24
5,31,0,186
5,35,90,6
5,35,0,168
5,38,90,34
5,38,0,166
5,43,90,16
5,35,90,128
5,35,0,10
5,43,0,18
5,36,90,36
5,36,0,156
5,37,90,36
5,37,0,184
5,36,90,8
5,36,0,168
5,38,90,24
5,40,90,134
5,38,0,4
5,40,0,804
5,33,90,14
5,33,0,176
5,36,90,20
5,36,0,184
5,40,90,8
5,40,0,180
5,33,90,12
5,33,0,168
5,34,90,24
5,34,0,190
5,38,90,2
5,38,0,180
5,41,90,16
5,41,0,182
5,46,90,6
5,46,0,186
5,33,90,6
5,33,0,192
5,36,90,0
5,36,0,182
5,40,90,14
5,40,0,164
5,45,90,24
5,45,0,180
5,33,90,12
5,33,0,172
5,36,90,20
5,40,90,192
5,36,0,10
5,36,90,122
5,40,0,2
5,36,0,44
5,40,90,4
5,33,90,202
5,40,0,1
5,33,0,183
5,36,90,4
5,36,0,188
5,40,90,10
5,40,0,178
5,45,90,12
5,36,90,134
5,45,0,24
5,36,0,8
5,33,90,26
5,33,0,190
5,40,90,2
5,40,0,170
5,36,90,22
5,36,0,182
5,33,90,10
5,33,0,190
5,43,90,2
5,43,0,168
5,43,90,24
5,43,0,188
5,36,90,4
5,36,0,150
5,36,90,42
5,36,0,186
5,43,90,6
5,36,90,128
5,36,0,14
5,43,0,26
5,47,90,24
5,47,0,180
5,48,90,14
5,35,90,126
5,36,90,2
5,36,0,6
5,35,0,4
5,48,0,42
5,36,90,10
5,36,0,156
5,43,90,36
5,43,0,186
5,31,90,6
5,31,0,176
5,34,90,16
5,34,0,168
5,38,90,24
5,38,0,168
5,43,90,24
5,43,0,168
5,40,90,24
5,40,0,186
5,38,90,6
5,38,0,178
5,34,90,14
5,34,0,168
5,38,90,24
5,38,0,156
5,45,90,36
5,45,0,156
5,41,90,40
5,35,90,140
5,41,0,14
5,35,0,2
5,38,90,32
5,38,0,182
5,40,90,10
5,32,90,192
5,40,0,8
5,32,0,172
5,35,90,12
5,35,0,186
5,40,90,6
5,40,0,168
5,33,90,24
5,33,0,166
5,36,90,26
5,36,0,168
5,40,90,24
5,40,0,182
5,43,90,10
5,43,0,180
5,44,90,12
5,44,0,168
5,36,90,24
5,36,0,168
5,41,90,26
5,41,0,158
5,44,90,32
5,44,0,180
5,39,90,12
5,39,0,298
5,46,90,2
5,46,0,62
5,51,90,22
5,51,0,292
5,43,90,12
5,43,0,46
5,44,90,34
5,44,0,180
5,44,90,204
5,44,0,168
5,44,90,108
5,44,0,36
5,43,90,24
5,43,0,36
5,41,90,12
5,41,0,198
5,38,90,116
5,38,0,48
5,36,90,22
5,36,0,100
5,34,90,32
5,34,0,48
5,29,90,12
5,29,0,104
5,31,90,40
5,31,0,792
5,45,90,24
5,45,0,156
5,33,90,36
5,33,0,168
5,35,90,24
5,35,0,180
5,36,90,12
5,36,0,178
5,38,90,14
5,38,0,108
5,45,90,12
5,45,0,48
5,53,90,24
5,53,0,48
5,50,90,24
5,50,0,46
5,45,90,14
5,45,0,42
5,41,90,18
5,41,0,252
5,36,90,58
5,38,90,0
