track,note,velocity,time
0,42,56,239
0,42,0,3
0,42,52,93
0,42,0,3
0,42,50,93
0,42,0,3
0,42,41,93
0,42,0,3
0,40,66,45
0,40,66,0
0,42,76,24
0,40,0,0
0,42,64,0
0,40,0,5
0,42,0,19
0,45,66,0
0,69,38,0
0,45,64,0
0,64,74,0
0,81,52,0
0,81,0,3
0,64,0,0
0,42,0,1
0,52,42,44
0,64,27,0
0,52,68,9
0,57,60,0
0,61,54,0
0,62,70,0
0,62,0,3
0,62,64,13
0,61,0,1
0,57,0,6
0,61,64,9
0,62,0,2
0,52,0,7
0,61,0,7
0,57,62,0
0,63,48,0
0,63,0,3
0,57,0,29
0,45,0,4
0,69,0,10
0,44,62,2
0,59,66,0
0,64,68,0
0,71,48,0
0,45,0,31
0,52,42,0
0,63,28,0
0,44,0,2
0,63,0,1
0,52,0,2
0,44,54,30
0,59,60,0
0,52,37,0
0,64,64,0
0,62,70,0
0,62,0,3
0,52,0,26
0,64,0,2
0,57,66,1
0,61,56,0
0,52,58,0
0,42,62,0
0,69,44,0
0,64,22,0
0,64,0,3
0,64,70,30
0,64,0,3
0,64,32,7
0,64,0,3
0,61,0,6
0,57,0,20
0,52,0,3
0,57,56,6
0,52,39,0
0,61,39,0
0,64,68,0
0,69,76,0
0,62,52,0
0,62,0,3
0,42,46,1
0,63,56,0
0,63,0,3
0,64,0,13
0,61,0,4
0,69,0,1
0,52,0,5
0,57,0,4
0,40,62,4
0,61,50,0
0,57,56,0
0,52,39,0
0,64,46,0
0,59,58,0
0,64,58,0
0,69,0,1
0,42,0,2
0,40,56,3
0,64,0,0
0,62,52,0
0,63,16,0
0,57,66,4
0,52,58,0
0,61,60,0
0,62,0,0
0,61,30,0
0,57,72,0
0,52,64,0
0,62,60,0
0,81,30,0
0,81,0,3
0,62,0,0
0,40,62,1
0,42,62,1
0,62,64,0
0,57,66,0
0,62,34,0
0,64,50,0
0,81,31,0
0,61,0,2
0,81,0,1
0,64,0,0
0,61,0,7
0,52,0,0
0,81,54,3
0,64,30,0
0,64,0,3
0,62,0,16
0,57,0,8
0,57,64,6
0,62,60,0
0,78,58,0
0,62,70,0
0,42,0,3
0,62,0,0
0,42,42,2
0,63,33,0
0,63,0,3
0,62,0,18
0,57,0,5
0,57,0,1
0,40,56,2
0,57,56,0
0,52,50,0
0,62,46,0
0,59,54,0
0,64,25,0
0,62,64,0
0,57,56,0
0,40,0,38
0,40,66,4
0,63,48,0
0,63,0,3
0,62,0,16
0,57,0,8
0,52,0,5
0,59,0,5
0,59,60,4
0,56,54,0
0,62,52,0
0,68,21,0
0,56,52,0
0,62,64,0
0,57,0,2
0,62,0,1
0,64,0,2
0,40,0,16
0,40,62,3
0,64,37,0
0,64,0,3
0,81,0,5
0,78,0,2
0,62,0,23
0,56,0,5
0,45,58,2
0,57,60,0
0,52,46,0
0,61,52,0
0,69,32,0
0,62,0,0
0,61,60,0
0,57,54,0
0,64,70,0
0,64,0,3
0,56,0,3
0,68,0,3
0,76,54,3
0,64,37,0
0,64,0,3
0,61,0,11
0,52,0,4
0,57,0,1
0,57,48,2
0,52,44,0
0,61,46,0
0,83,64,0
0,62,54,0
0,62,0,3
0,45,0,7
0,76,0,5
0,45,58,6
0,81,64,0
0,63,28,0
0,83,0,3
0,63,0,0
0,61,0,5
0,57,0,7
0,52,0,0
0,57,39,2
0,61,37,0
0,52,29,0
0,45,0,11
0,45,58,2
0,76,44,0
0,63,34,0
0,61,0,3
0,63,0,0
0,81,0,2
0,57,0,6
0,52,0,3
0,57,54,6
0,61,54,0
0,52,44,0
0,62,58,0
0,62,0,3
0,57,0,30
0,61,0,1
0,40,66,2
0,64,33,0
0,61,0,2
0,64,0,1
0,76,0,11
0,52,0,4
0,57,0,1
0,42,68,5
0,45,68,17
0,61,56,0
0,57,54,0
0,52,42,0
0,76,76,0
0,64,74,0
0,81,48,0
0,42,0,2
0,81,0,1
0,64,0,0
0,64,27,45
0,73,92,0
0,57,68,0
0,52,62,0
0,61,50,0
0,62,70,0
0,69,0,1
0,62,0,2
0,61,0,9
0,62,64,4
0,57,0,11
0,61,62,5
0,62,0,6
0,52,0,1
0,73,0,7
0,69,52,0
0,57,56,0
0,63,48,0
0,63,0,3
0,61,0,1
0,57,0,11
0,45,0,11
0,69,0,15
0,76,66,0
0,64,68,0
0,59,58,0
0,52,52,0
0,44,48,0
0,52,0,38
0,52,42,0
0,63,28,0
0,59,0,1
0,63,0,2
0,52,0,2
0,76,0,8
0,44,0,4
0,76,62,0
0,64,64,0
0,52,46,0
0,59,58,0
0,44,50,0
0,62,70,0
0,62,0,3
0,73,50,0
0,57,58,0
0,42,54,0
0,61,50,0
0,64,22,0
0,59,0,3
0,64,0,0
0,44,0,1
0,64,70,30
0,64,0,3
0,42,0,33
0,71,50,7
0,42,42,0
0,64,32,0
0,64,0,3
0,73,0,3
0,61,0,6
0,57,0,4
0,52,0,3
0,69,40,6
0,61,54,0
0,57,56,0
0,52,37,0
0,62,52,0
0,71,0,1
0,62,0,2
0,42,0,14
0,42,44,5
0,63,56,0
0,63,0,3
0,61,0,23
0,52,0,0
0,57,0,1
0,57,46,4
0,61,42,0
0,40,50,0
0,52,46,0
0,78,60,0
0,42,0,8
0,40,0,19
0,40,52,0
0,63,16,0
0,57,56,4
0,52,46,0
0,61,54,0
0,62,60,0
0,40,56,0
0,57,0,14
0,42,54,1
0,57,56,0
0,62,54,0
0,64,50,0
0,40,0,2
0,64,0,1
0,64,30,3
0,64,0,3
0,62,0,20
0,57,0,13
0,74,80,0
0,57,56,0
0,62,52,0
0,62,70,0
0,42,0,1
0,62,0,2
0,74,0,26
0,74,72,0
0,42,48,0
0,63,33,0
0,63,0,3
0,57,0,26
0,78,0,5
0,62,0,1
0,73,68,0
0,40,52,0
0,57,42,0
0,52,52,0
0,61,56,0
0,42,0,6
0,40,0,15
0,71,54,0
0,40,54,0
0,63,48,0
0,63,0,3
0,61,0,4
0,52,0,8
0,57,0,1
0,69,44,0
0,57,52,0
0,52,50,0
0,61,54,0
0,62,64,0
0,71,0,3
0,62,0,0
0,40,0,11
0,73,48,0
0,40,54,0
0,64,37,0
0,64,0,3
0,69,0,1
0,57,0,13
0,61,0,3
0,71,38,0
0,56,44,0
0,59,44,0
0,64,70,0
0,64,0,3
0,73,0,3
0,40,0,9
0,40,56,3
0,64,37,0
0,64,0,3
0,59,0,7
0,56,0,6
0,56,58,2
0,59,58,0
0,76,66,0
0,62,54,0
0,52,0,2
0,62,0,1
0,40,0,25
0,40,60,6
0,74,37,0
0,63,28,0
0,63,0,3
0,59,0,42
0,61,62,0
0,57,64,0
0,73,15,0
0,40,0,17
0,40,60,2
0,63,34,0
0,63,0,3
0,59,64,1
0,62,68,0
0,62,58,0
0,40,0,1
0,62,0,2
0,57,0,4
0,40,56,6
0,64,33,0
0,71,0,1
0,64,0,2
0,61,46,2
0,45,58,0
0,57,60,0
0,52,48,0
0,64,74,0
0,64,0,3
0,76,0,8
0,74,0,1
0,64,27,36
0,73,88,0
0,45,54,0
0,52,50,0
0,57,46,0
0,61,56,0
0,62,70,0
0,62,0,3
0,61,0,13
0,62,56,0
0,57,0,14
0,61,52,2
0,62,0,3
0,73,0,7
0,69,42,0
0,57,62,0
0,63,48,0
0,63,0,3
0,61,0,1
0,52,0,2
0,57,0,19
0,45,0,13
0,69,0,5
0,76,66,0
0,59,66,0
0,44,60,0
0,64,68,0
0,52,32,0
0,63,28,0
0,44,0,2
0,63,0,1
0,76,0,1
0,71,60,0
0,66,62,0
0,44,44,0
0,62,70,0
0,62,0,3
0,44,0,6
0,66,0,5
0,73,44,0
0,42,54,0
0,61,60,0
0,52,48,0
0,57,56,0
0,64,22,0
0,71,0,1
0,64,0,2
0,64,70,30
0,64,0,3
0,42,0,23
0,71,39,7
0,42,44,0
0,64,32,0
0,73,0,2
0,64,0,1
0,57,0,23
0,61,0,2
0,52,0,4
0,69,39,0
0,57,58,0
0,61,50,0
0,52,18,0
0,69,60,0
0,64,58,0
0,81,56,0
0,62,52,0
0,62,0,3
0,42,50,1
0,63,56,0
0,63,0,3
0,52,0,18
0,57,0,5
0,64,0,3
0,61,0,4
0,69,0,5
0,40,54,4
0,57,56,0
0,61,50,0
0,52,38,0
0,59,56,0
0,64,62,0
0,76,66,0
0,42,0,2
0,81,0,3
0,40,54,1
0,63,16,0
0,63,0,3
0,61,0,5
0,52,0,2
0,57,0,1
0,64,0,21
0,59,0,4
0,57,62,1
0,61,58,0
0,52,56,0
0,61,54,0
0,62,60,0
0,40,54,2
0,61,0,0
0,64,60,0
0,69,0,11
0,57,0,13
0,52,0,0
0,62,60,0
0,57,66,0
0,42,44,0
0,62,56,0
0,64,50,0
0,64,0,3
0,64,0,0
0,64,30,3
0,64,0,3
0,62,0,29
0,57,0,2
0,74,66,0
0,57,64,0
0,62,68,0
0,62,70,0
0,62,0,3
0,42,0,3
0,76,0,10
0,74,0,14
0,74,68,0
0,42,44,0
0,63,33,0
0,63,0,3
0,57,0,27
0,42,0,9
0,62,0,3
0,73,66,0
0,57,54,0
0,52,48,0
0,61,54,0
0,74,0,3
0,62,0,1
0,71,56,0
0,40,52,0
0,63,48,0
0,73,0,2
0,63,0,1
0,61,0,22
0,57,0,4
0,52,0,3
0,69,40,0
0,57,54,0
0,52,48,0
0,61,52,0
0,62,64,0
0,71,0,1
0,62,0,2
0,40,0,5
0,73,42,0
0,40,52,0
0,64,37,0
0,64,0,3
0,57,0,20
0,40,0,2
0,61,0,11
0,71,46,0
0,59,46,0
0,56,52,0
0,40,54,0
0,64,70,0
0,64,0,3
0,73,0,5
0,64,37,3
0,64,0,3
0,56,0,11
0,59,0,3
0,52,0,4
0,56,56,2
0,59,56,0
0,62,54,0
0,40,0,1
0,62,0,2
0,40,54,6
0,76,68,0
0,63,28,0
0,63,0,3
0,56,0,32
0,59,0,11
0,61,58,2
0,57,66,0
0,40,0,10
0,76,0,16
0,40,54,2
0,76,66,0
0,63,34,0
0,63,0,3
0,71,0,6
0,61,0,28
0,59,66,2
0,62,62,0
0,62,58,0
0,62,0,3
0,57,0,4
0,76,0,28
0,40,46,6
0,76,58,0
0,64,33,0
0,64,0,3
0,61,40,5
0,42,56,0
0,57,56,0
0,66,60,0
0,69,44,0
0,78,58,0
0,64,74,0
0,81,35,0
0,81,0,3
0,64,0,0
0,59,0,3
0,76,0,2
0,49,53,40
0,64,27,0
0,69,58,2
0,57,64,0
0,61,58,0
0,62,70,0
0,42,0,1
0,69,54,0
0,57,61,0
0,42,64,0
0,63,48,0
0,57,64,0
0,61,62,0
0,42,60,6
0,63,28,0
0,63,0,3
0,61,0,6
0,57,0,6
0,71,58,0
0,61,62,0
0,57,64,0
0,68,62,0
0,62,70,0
0,62,0,3
0,68,58,0
0,42,44,0
0,78,72,0
0,80,52,0
0,64,22,0
0,41,52,2
0,61,50,0
0,56,50,0
0,68,30,0
0,80,50,0
0,81,46,0
0,64,70,0
0,49,61,7
0,64,32,0
0,64,0,3
0,61,0,22
0,56,0,2
0,56,58,0
0,61,56,0
0,62,52,0
0,56,49,5
0,41,62,0
0,63,56,0
0,63,0,3
0,61,60,1
0,56,66,0
0,41,68,3
0,63,16,0
0,63,0,3
0,61,0,3
0,61,62,0
0,56,66,0
0,62,60,0
0,41,50,2
0,40,64,0
0,61,58,0
0,55,52,0
0,69,64,0
0,67,36,0
0,64,50,0
0,81,37,0
0,49,53,3
0,64,30,0
0,64,0,3
0,61,0,18
0,55,0,3
0,55,54,2
0,61,66,0
0,62,70,0
0,49,0,2
0,67,58,0
0,55,51,0
0,40,58,0
0,63,33,0
0,67,62,0
0,55,60,0
0,61,66,0
0,81,62,0
0,40,62,4
0,63,48,0
0,63,0,3
0,69,62,0
0,55,58,0
0,61,66,0
0,62,64,0
0,66,44,0
0,40,60,0
0,64,37,0
0,80,42,0
0,69,0,1
0,80,0,2
0,64,0,0
0,55,0,9
0,58,50,0
0,54,46,0
0,52,37,0
0,42,54,0
0,58,66,0
0,66,27,0
0,64,70,0
0,81,44,0
0,64,37,3
0,64,0,3
0,42,54,1
0,54,44,0
0,58,48,0
0,52,50,0
0,62,54,0
0,63,28,0
0,71,58,0
0,47,63,0
0,44,60,0
0,59,66,0
0,54,52,0
0,59,60,0
0,59,50,0
0,81,35,0
0,58,0,1
0,81,0,2
0,42,0,1
0,78,62,2
0,63,34,0
0,63,0,3
0,54,0,17
0,59,0,22
0,73,54,0
0,49,57,0
0,46,52,0
0,61,52,0
0,54,58,0
0,61,58,0
0,61,62,0
0,62,58,0
0,81,31,0
0,81,0,3
0,62,0,0
0,59,0,1
0,71,0,1
0,44,0,0
0,78,0,17
0,73,0,12
0,73,54,6
0,78,62,0
0,64,33,0
0,64,0,3
0,74,50,0
0,61,0,0
0,47,58,0
0,57,46,0
0,62,66,0
0,62,64,0
0,62,64,0
0,64,74,0
0,46,0,2
0,73,0,1
0,54,0,0
0,66,0,0
0,64,0,0
0,61,0,2
0,49,0,5
0,50,65,38
0,64,27,0
0,62,64,9
0,57,60,0
0,62,70,0
0,62,0,3
0,50,0,1
0,47,0,5
0,74,0,34
0,71,60,0
0,57,73,0
0,47,56,0
0,63,48,0
0,63,0,3
0,62,0,9
0,57,0,4
0,71,0,11
0,71,64,0
0,62,60,0
0,57,64,0
0,47,0,11
0,47,64,0
0,69,42,0
0,63,28,0
0,63,0,3
0,69,62,0
0,57,64,0
0,62,54,0
0,66,34,0
0,64,27,0
0,62,70,0
0,69,0,2
0,68,44,0
0,47,64,0
0,74,35,0
0,64,42,0
0,69,52,0
0,71,48,0
0,64,26,0
0,64,22,0
0,64,0,3
0,69,0,1
0,66,52,6
0,68,0,4
0,64,44,1
0,64,70,0
0,47,0,2
0,57,0,0
0,64,0,1
0,78,0,1
0,66,0,1
0,57,37,1
0,59,54,0
0,57,54,0
0,52,62,0
0,40,54,0
0,66,46,0
0,64,32,0
0,80,39,0
0,57,47,2
0,59,46,0
0,52,46,0
0,57,50,0
0,40,56,0
0,62,46,0
0,66,39,0
0,76,60,0
0,81,36,0
0,62,52,0
0,63,56,5
0,63,0,3
0,57,42,1
0,73,66,0
0,63,16,0
0,63,0,3
0,71,58,0
0,62,60,0
0,69,44,0
0,69,0,23
0,71,56,1
0,40,0,2
0,76,0,16
0,62,0,1
0,59,0,3
0,66,0,0
0,71,0,1
0,69,38,0
0,61,43,0
0,45,66,0
0,64,64,0
0,69,44,0
0,81,37,0
0,64,50,0
0,52,0,1
0,64,0,0
0,57,0,2
0,64,0,0
0,81,0,0
0,64,30,0
0,52,34,0
0,61,80,0
0,81,56,0
0,62,70,0
0,62,0,3
0,62,62,3
0,62,0,15
0,61,76,1
0,57,64,0
0,71,38,0
0,63,33,0
0,73,44,3
0,59,61,1
0,44,60,0
0,59,72,0
0,64,64,0
0,66,80,0
0,71,46,0
0,76,66,0
0,45,0,7
0,57,0,0
0,73,0,1
0,81,0,1
0,52,29,4
0,63,48,0
0,63,0,3
0,52,0,1
0,64,0,0
0,59,0,4
0,44,0,7
0,44,52,0
0,59,66,0
0,64,66,0
0,52,25,0
0,62,64,0
0,57,39,0
0,57,66,0
0,42,44,0
0,52,54,0
0,61,52,0
0,66,60,0
0,69,30,0
0,64,37,0
0,64,70,0
0,42,31,0
0,64,37,0
0,52,42,0
0,61,44,0
0,57,54,0
0,64,62,0
0,69,56,0
0,62,54,0
0,56,57,6
0,42,46,0
0,63,28,0
0,57,45,5
0,52,0,6
0,57,0,2
0,61,0,0
0,69,0,11
0,56,42,2
0,57,56,0
0,40,56,0
0,61,50,0
0,52,34,0
0,64,58,0
0,64,46,0
0,59,52,0
0,64,64,0
0,57,0,2
0,42,0,6
0,66,0,0
0,40,56,2
0,62,38,0
0,63,34,0
0,63,0,3
0,64,0,6
0,52,57,1
0,57,58,0
0,61,56,0
0,52,46,0
0,71,56,0
0,61,22,0
0,57,62,0
