track,note,velocity,time
3,62,109,80
3,43,121,0
3,71,107,1
3,67,109,1
3,55,117,1
3,67,115,0
3,62,113,1
3,43,113,0
3,50,111,45
3,50,0,43
3,59,110,5
3,62,0,17
3,62,113,31
3,62,119,1
3,55,112,1
3,62,0,12
3,43,0,3
3,62,0,28
3,71,117,4
3,62,119,1
3,69,120,0
3,43,110,0
3,67,0,1
3,59,0,3
3,55,0,2
3,50,112,2
3,50,0,2
3,67,115,2
3,55,112,1
3,71,0,1
3,43,0,2
3,43,0,16
3,55,0,2
3,43,121,10
3,67,113,1
3,59,105,0
3,55,107,0
3,69,0,2
3,67,0,3
3,71,0,2
3,67,0,14
3,62,0,6
3,59,0,7
3,55,0,1
3,55,0,1
3,67,0,7
3,43,0,3
3,42,123,0
3,69,110,1
3,66,110,1
3,50,117,1
3,66,113,0
3,62,117,0
3,69,110,1
3,50,108,1
3,54,101,44
3,54,0,46
3,62,110,2
3,69,0,45
3,62,117,3
3,57,103,0
3,62,0,8
3,50,0,15
3,62,0,16
3,69,121,9
3,50,108,0
3,57,0,5
3,54,101,1
3,50,0,14
3,50,117,2
3,62,106,0
3,54,0,1
3,62,0,17
3,66,0,7
3,42,0,2
3,69,0,10
3,62,0,2
3,38,122,3
3,66,109,1
3,62,111,0
3,67,114,0
3,57,108,1
3,69,0,20
3,67,0,1
3,62,0,2
3,66,0,3
3,50,0,3
3,50,0,4
3,66,0,9
3,57,0,2
3,38,0,1
3,36,121,0
3,64,109,1
3,67,110,1
3,72,109,0
3,48,117,1
3,67,117,0
3,64,119,1
3,64,118,0
3,48,115,1
3,62,0,2
3,55,108,42
3,55,0,47
3,60,105,1
3,64,0,25
3,62,114,23
3,64,110,0
3,60,0,7
3,48,0,4
3,62,0,2
3,72,119,1
3,64,0,1
3,69,123,0
3,48,111,0
3,55,108,0
3,55,0,14
3,69,0,10
3,67,0,0
3,67,115,1
3,64,111,1
3,36,0,21
3,64,0,10
3,36,122,16
3,67,111,1
3,64,113,0
3,60,108,0
3,64,0,17
3,48,0,2
3,48,0,2
3,72,0,2
3,72,0,0
3,67,0,1
3,67,0,3
3,67,0,2
3,64,0,2
3,64,0,6
3,36,0,3
3,60,0,3
3,38,122,3
3,69,109,1
3,62,110,1
3,66,109,0
3,50,115,1
3,66,119,0
3,62,122,0
3,69,112,1
3,50,116,1
3,54,108,44
3,40,123,48
3,71,120,0
3,69,0,1
3,57,107,0
3,54,0,1
3,38,0,1
3,57,0,44
3,62,109,2
3,50,0,9
3,62,0,17
3,66,0,4
3,71,0,1
3,40,0,7
3,42,122,9
3,69,117,2
3,62,117,0
3,72,117,0
3,62,0,1
3,50,117,0
3,54,107,45
3,72,0,16
3,62,0,8
3,54,0,1
3,69,0,6
3,50,0,8
3,42,0,1
3,45,121,8
3,62,117,0
3,66,117,1
3,74,123,0
3,50,117,0
3,50,0,13
3,54,87,3
3,62,112,0
3,50,0,1
3,54,0,1
3,69,0,7
3,66,0,6
3,45,0,5
3,62,0,1
3,66,0,2
3,62,0,1
3,43,123,1
3,71,110,1
3,67,110,1
3,55,115,1
3,62,113,0
3,67,117,0
3,43,110,1
3,50,101,21
3,50,0,35
3,55,110,13
3,74,0,38
3,62,116,10
3,59,109,0
3,55,0,3
3,62,0,4
3,62,0,5
3,43,0,4
3,67,0,14
3,67,113,18
3,71,119,1
3,69,123,0
3,43,109,0
3,59,0,12
3,74,124,0
3,50,108,0
3,71,0,2
3,50,0,2
3,59,106,1
3,43,0,2
3,43,0,15
3,69,0,1
3,43,122,8
3,67,112,1
3,55,116,0
3,67,0,15
3,71,0,0
3,43,0,1
3,74,0,0
3,67,0,15
3,59,0,12
3,55,0,1
3,67,0,1
3,42,124,1
3,69,110,1
3,66,110,1
3,50,115,0
3,69,110,1
3,50,116,0
3,55,0,2
3,54,108,44
3,54,0,40
3,62,108,8
3,69,0,35
3,66,98,13
3,62,118,0
3,57,103,0
3,62,0,10
3,62,0,2
3,50,0,11
3,66,0,1
3,66,122,24
3,62,122,0
3,69,123,1
3,50,111,0
3,57,0,2
3,62,119,2
3,69,119,0
3,54,95,0
3,62,0,2
3,66,0,2
3,54,0,3
3,62,110,0
3,54,101,1
3,42,0,20
3,54,0,4
3,69,0,4
3,38,123,7
3,67,106,1
3,57,108,0
3,62,0,7
3,62,0,7
3,50,0,3
3,69,0,1
3,69,0,1
3,66,0,2
3,50,0,9
3,38,0,13
3,57,0,2
3,36,122,1
3,64,108,1
3,67,109,1
3,72,108,0
3,71,108,0
3,48,115,1
3,64,111,0
3,67,113,1
3,64,110,1
3,48,115,0
3,67,0,1
3,62,0,1
3,71,0,7
3,55,105,35
3,55,0,31
3,64,106,17
3,64,0,27
3,62,117,21
3,60,104,0
3,62,0,10
3,48,0,2
3,60,0,35
3,69,125,1
3,48,112,1
3,64,0,3
3,67,0,10
3,55,114,8
3,64,0,1
3,55,0,2
3,72,122,2
3,64,117,0
3,64,109,0
3,36,0,4
3,69,0,26
3,36,122,4
3,67,114,1
3,60,106,0
3,48,0,5
3,72,0,13
3,64,0,8
3,67,0,1
3,72,0,2
3,64,0,0
3,60,0,4
3,48,0,2
3,64,0,4
3,36,0,0
3,67,0,6
3,38,122,1
3,69,109,1
3,62,110,1
3,66,109,0
3,50,119,1
3,69,115,0
3,50,119,0
3,54,103,46
3,69,0,38
3,54,0,8
3,40,122,2
3,66,119,1
3,62,122,1
3,71,121,0
3,62,109,0
3,38,0,6
3,57,105,40
3,50,0,1
3,62,0,24
3,62,0,5
3,40,0,1
3,71,0,2
3,66,0,1
3,57,0,14
3,42,121,0
3,62,117,1
3,69,119,0
3,72,121,1
3,50,114,0
3,54,101,46
3,72,0,24
3,42,0,12
3,54,0,4
3,45,121,8
3,74,124,0
3,62,107,1
3,50,0,16
3,62,0,2
3,57,103,1
3,54,111,0
3,50,0,2
3,62,0,2
3,69,0,1
3,57,0,2
3,69,0,1
3,66,0,2
3,54,0,0
3,45,0,3
3,43,120,6
3,71,110,1
3,67,110,1
3,55,115,1
3,62,115,0
3,67,117,0
3,43,117,1
3,50,105,14
3,50,0,33
3,59,105,15
3,55,113,48
3,43,0,19
3,74,0,28
3,43,114,2
3,59,0,6
3,55,0,0
3,55,0,22
3,55,115,19
3,50,102,0
3,50,0,30
3,62,0,2
3,67,0,2
3,67,117,14
3,62,117,1
3,59,108,1
3,43,0,25
3,43,0,10
3,43,121,11
3,71,117,1
3,55,110,0
3,71,0,7
3,67,0,3
3,43,0,18
3,59,0,14
3,42,123,5
3,69,110,0
3,66,110,1
3,50,119,1
3,50,117,0
3,55,0,1
3,55,0,0
3,71,0,2
3,67,0,1
3,62,0,0
3,54,65,90
3,62,107,48
3,50,0,24
3,62,0,17
3,54,0,2
3,69,122,5
3,62,117,1
3,50,117,0
3,54,109,47
3,54,0,28
3,42,0,5
3,42,121,15
3,66,109,0
3,62,117,1
3,54,118,0
3,62,0,36
3,54,0,3
3,42,0,2
3,38,118,6
3,57,110,1
3,69,0,18
3,62,0,1
3,69,0,4
3,66,0,0
3,50,0,1
3,66,0,9
3,50,0,2
3,36,121,11
3,72,109,1
3,64,110,1
3,67,109,0
3,48,115,1
3,64,113,0
3,67,115,0
3,48,115,1
3,38,0,1
3,62,0,1
3,57,0,5
3,52,99,38
3,52,0,27
3,60,109,21
3,48,0,48
3,55,116,0
3,60,0,43
3,55,0,5
3,72,119,1
3,48,111,0
3,52,109,47
3,52,0,38
3,60,108,10
3,36,0,15
3,64,0,4
3,36,122,29
3,64,113,1
3,55,106,0
3,52,114,0
3,72,0,8
3,48,0,2
3,72,0,3
3,67,0,5
3,60,0,4
3,64,0,1
3,67,0,2
3,48,0,2
3,64,0,5
3,52,0,1
3,36,0,13
3,38,122,0
3,69,109,1
3,62,110,1
3,66,109,0
3,50,117,1
3,66,117,0
3,62,117,0
3,50,113,1
3,55,0,1
3,54,102,44
3,54,0,30
3,62,109,18
3,50,0,71
3,62,0,1
3,66,0,7
3,62,0,17
3,66,103,2
3,62,113,0
3,50,113,0
3,67,111,46
3,62,113,1
3,62,0,1
3,54,104,0
3,66,0,4
3,38,0,0
3,54,0,31
3,40,121,11
3,62,110,0
3,57,110,0
3,67,0,10
3,50,0,5
3,57,0,12
3,62,0,12
3,66,103,9
3,54,117,1
3,50,0,8
3,69,0,13
3,66,0,5
3,40,0,14
3,43,121,6
3,71,109,1
3,67,109,1
3,55,115,0
3,67,115,1
3,43,119,0
3,66,0,1
3,54,0,1
3,62,0,78
3,50,112,14
3,67,0,29
3,55,108,19
3,50,0,7
3,55,0,28
3,71,115,13
3,67,109,0
3,59,114,1
3,43,0,21
3,67,0,26
3,67,117,0
3,74,122,1
3,55,105,0
3,71,0,2
3,43,116,45
3,50,111,0
3,59,0,11
3,55,0,6
3,43,0,2
3,50,0,8
3,43,0,19
3,43,122,2
3,55,109,1
3,59,112,0
3,55,0,10
3,43,0,10
3,67,0,0
3,71,0,0
3,74,0,3
3,67,0,8
3,55,0,7
3,42,124,8
3,69,109,1
3,66,109,1
3,50,117,1
3,50,117,0
3,59,0,1
3,66,105,93
3,62,98,1
3,54,103,1
3,62,0,7
3,66,0,8
3,69,119,31
3,62,119,0
3,57,101,0
3,54,0,36
3,57,0,4
3,62,110,9
3,57,106,47
3,62,0,7
3,62,0,21
3,57,0,12
3,62,119,8
3,66,117,1
3,54,105,1
3,50,0,6
3,50,0,5
3,42,0,21
3,38,122,14
3,50,110,1
3,62,110,0
3,54,0,4
3,69,0,14
3,62,0,0
3,62,0,0
3,69,0,6
3,66,0,3
3,66,0,8
3,36,122,11
3,67,109,1
3,64,109,1
3,72,109,0
3,48,115,1
3,64,117,0
3,67,119,0
3,48,116,1
3,38,0,1
3,50,0,0
3,62,0,6
3,64,110,86
3,60,106,48
3,48,0,20
3,48,111,28
3,64,0,20
3,67,0,3
3,64,0,3
3,60,0,13
3,72,119,9
3,64,117,0
3,55,115,0
3,55,0,38
3,64,105,10
3,60,107,1
3,48,0,22
3,36,0,7
3,36,122,18
3,67,117,1
3,55,117,0
3,72,0,7
3,64,0,0
3,60,0,2
3,67,0,6
3,64,0,10
3,55,0,12
3,67,0,1
3,36,0,1
3,64,0,1
3,72,0,0
3,48,0,2
3,38,125,4
3,69,109,1
3,62,110,1
3,66,110,0
3,50,119,1
3,62,117,0
3,66,117,0
3,50,117,1
3,54,105,93
3,57,102,48
3,57,0,33
3,54,0,1
3,54,84,15
3,62,113,1
3,50,0,33
3,54,0,10
3,50,115,3
3,57,105,0
3,50,0,11
3,62,0,17
3,66,0,10
3,62,0,5
3,66,119,5
3,62,122,1
3,50,113,1
3,54,105,0
3,57,0,4
3,54,0,19
3,38,0,0
3,38,123,23
3,62,108,1
3,50,0,5
3,62,0,1
3,50,0,6
3,62,0,8
3,66,0,6
3,69,0,1
3,38,0,6
3,66,0,7
3,36,121,6
3,64,108,1
3,67,109,1
3,72,109,0
3,48,107,1
3,64,113,0
3,67,115,0
3,48,117,1
3,62,0,26
3,55,114,67
3,64,0,12
3,64,111,36
3,60,108,1
3,67,0,15
3,55,0,5
3,64,0,6
3,60,0,19
3,72,124,2
3,64,124,1
3,64,111,0
3,72,122,47
3,64,127,1
3,60,108,1
3,64,0,4
3,72,0,2
3,48,0,19
3,64,0,11
3,72,0,6
3,48,111,4
3,36,0,19
3,64,0,9
3,60,0,7
3,36,120,13
3,72,122,1
3,64,122,0
3,64,113,0
3,72,0,10
3,48,0,3
3,64,0,4
3,67,0,2
3,48,0,15
3,72,0,3
3,36,0,3
3,64,0,6
3,38,122,0
3,69,109,1
3,62,110,1
3,66,109,0
3,50,117,1
3,66,107,0
3,62,113,0
3,50,118,1
3,64,0,1
3,54,118,92
3,62,92,48
3,62,0,5
3,54,0,10
3,62,0,22
3,38,0,3
3,66,0,0
3,40,121,8
3,62,124,1
3,66,122,0
3,62,114,0
3,57,108,47
3,62,0,10
3,66,0,2
3,50,0,10
3,40,0,15
3,42,121,11
3,67,122,1
3,62,119,1
3,50,114,0
3,54,112,0
3,62,0,9
3,57,0,4
3,50,0,10
3,54,0,13
3,50,0,1
3,69,119,9
3,62,108,0
3,67,0,7
3,42,0,20
3,69,0,2
3,66,0,2
3,43,121,16
3,71,109,1
3,67,110,1
3,55,117,0
3,62,119,1
3,69,115,0
3,71,119,1
3,43,121,0
3,69,0,1
3,69,0,3
3,62,0,8
3,62,0,4
3,50,117,77
3,71,0,12
3,62,0,3
3,50,0,20
3,43,0,3
3,43,121,10
3,62,124,0
3,71,124,1
3,59,109,0
3,50,105,0
3,60,108,1
3,43,0,1
3,60,0,10
3,43,0,16
3,62,0,3
3,71,0,2
3,42,123,14
3,71,124,2
3,62,124,0
3,42,115,0
3,50,0,4
3,59,0,1
3,71,0,38
3,62,0,1
3,69,124,2
3,62,122,0
3,50,113,0
3,54,103,48
3,62,0,15
3,50,0,11
3,42,0,8
3,54,0,13
3,42,121,1
3,67,115,1
3,59,114,0
3,42,0,4
3,69,0,13
3,55,0,3
3,62,0,9
3,42,0,14
3,40,123,4
3,64,110,1
3,52,115,0
3,40,113,1
3,59,0,11
3,64,117,35
3,52,108,0
3,52,0,42
3,67,103,6
3,59,110,0
3,67,0,1
3,71,117,47
3,55,114,1
3,40,0,13
3,40,0,17
3,38,121,17
3,40,111,2
3,59,0,6
3,52,103,40
3,55,0,9
3,52,0,19
3,40,0,17
3,59,113,3
3,64,0,28
3,67,0,7
3,71,0,4
3,38,0,0
3,38,122,9
3,64,113,1
3,67,113,0
3,71,113,0
3,55,115,1
3,52,114,0
3,71,0,23
3,38,0,3
3,71,0,3
3,59,0,2
3,52,0,3
3,64,0,4
3,52,0,3
3,36,121,5
3,72,109,1
3,48,113,0
3,72,122,1
3,64,115,0
3,48,118,0
3,55,0,11
3,55,107,35
3,55,0,38
3,64,108,10
3,60,107,29
3,48,0,13
3,48,109,21
3,64,0,10
3,48,0,23
3,36,0,7
3,31,122,8
3,48,100,1
3,55,117,1
3,60,0,1
3,72,0,45
3,60,109,0
3,64,0,10
3,31,0,17
3,67,0,10
3,48,0,3
3,60,0,4
3,36,121,4
3,72,122,1
3,64,119,0
3,64,113,0
3,72,0,21
3,64,0,8
3,67,0,0
3,64,0,5
3,64,0,8
3,72,0,2
3,55,0,1
3,38,122,1
3,69,109,1
3,62,110,1
3,66,110,0
3,50,115,1
3,62,119,0
3,66,117,0
3,50,122,1
3,48,0,1
3,36,0,3
3,54,110,89
3,54,0,33
3,54,118,15
3,62,115,1
3,50,0,29
3,38,0,17
3,40,122,1
3,57,108,0
3,54,0,2
3,62,0,21
3,62,0,17
3,62,117,8
3,50,114,0
3,66,0,5
3,40,0,38
3,57,0,3
3,42,121,2
3,54,113,1
3,62,0,15
3,50,0,22
3,50,0,6
3,66,103,4
3,62,111,0
3,62,110,1
3,69,0,11
3,66,0,7
3,42,0,4
3,43,121,24
3,71,109,1
3,67,109,1
3,55,119,0
3,43,117,1
3,54,0,5
3,62,0,3
3,62,0,10
3,66,0,8
3,67,119,68
3,71,122,1
3,50,108,1
3,62,117,46
3,55,111,0
3,50,0,3
3,62,0,20
3,67,0,7
3,71,0,8
3,55,0,0
3,67,117,10
3,74,122,0
3,69,125,1
3,59,110,0
3,55,111,2
3,43,0,2
3,67,0,16
3,71,119,2
3,67,115,0
3,43,114,0
3,59,0,1
3,43,0,7
3,43,0,15
3,55,0,3
3,43,121,0
3,67,115,1
3,50,113,0
3,69,0,2
3,67,0,19
3,71,0,1
3,55,0,0
3,43,0,5
3,74,0,8
3,50,0,5
3,71,0,3
3,67,0,1
3,42,124,3
3,69,110,0
3,66,110,1
3,50,119,1
3,69,115,0
3,50,112,0
3,67,0,2
3,66,100,92
3,54,114,0
3,66,0,29
3,69,0,13
3,74,124,6
3,66,119,0
3,62,116,0
3,57,107,1
3,62,0,13
3,54,0,11
3,57,0,17
3,69,123,6
3,62,110,0
3,57,103,2
3,62,0,2
