track,note,velocity,time
1,29,103,0
1,29,103,32
1,29,103,34
1,29,103,34
1,36,103,1376
1,36,103,32
1,36,103,32
1,41,103,32
1,39,103,32
1,34,103,30
1,36,103,34
1,36,103,32
1,36,103,34
1,41,103,34
1,39,103,34
1,34,103,32
1,36,103,34
1,36,103,32
1,36,103,32
1,41,103,30
1,39,103,34
1,34,103,32
1,36,103,32
1,36,103,32
1,36,103,34
1,41,103,32
1,39,103,32
1,34,103,34
1,36,103,34
1,36,103,32
1,31,103,34
1,36,103,34
1,36,103,32
1,31,103,32
1,33,103,32
1,39,103,34
1,39,103,32
1,34,103,34
1,34,103,32
1,41,103,32
1,41,103,32
1,36,103,34
1,33,103,34
1,36,103,34
1,36,103,32
1,36,103,34
1,41,103,34
1,39,103,34
1,34,103,34
1,36,103,34
1,36,103,32
1,36,103,34
1,41,103,32
1,39,103,32
1,34,103,34
1,36,103,34
1,36,103,32
1,31,103,32
1,36,103,32
1,36,103,32
1,31,103,34
1,33,103,32
1,39,103,34
1,39,103,34
1,34,103,34
1,34,103,34
1,41,103,34
1,41,103,34
1,36,103,32
1,33,103,34
1,36,103,34
1,36,103,34
1,36,103,32
1,41,103,34
1,39,103,34
1,34,103,32
1,36,103,32
1,36,103,34
1,36,103,34
1,41,103,32
1,39,103,32
1,34,103,32
1,36,103,36
1,36,103,32
1,31,103,34
1,36,103,34
1,36,103,34
1,31,103,34
1,33,103,32
1,41,103,34
1,41,103,32
1,36,103,32
1,41,103,32
1,29,103,34
1,36,103,30
1,38,103,34
1,41,103,32
1,41,103,32
1,36,103,34
1,29,103,32
1,41,103,34
1,36,103,36
1,38,103,34
1,43,103,34
1,43,103,34
1,38,103,32
1,31,103,34
1,43,103,32
1,38,103,32
1,40,103,32
1,43,103,34
1,43,103,32
1,38,103,32
1,38,103,32
1,31,103,32
1,31,103,34
1,31,103,32
1,33,103,34
1,35,103,32
1,36,103,32
1,36,103,32
1,31,103,34
1,36,103,36
1,36,103,36
1,31,103,32
1,33,103,34
1,39,103,36
1,39,103,32
1,34,103,30
1,34,103,32
1,41,103,32
1,41,103,32
1,36,103,32
1,33,103,32
1,36,103,32
1,36,103,34
1,36,103,32
1,41,103,32
1,39,103,30
1,34,103,32
1,36,103,34
1,36,103,34
1,36,103,34
1,41,103,34
1,39,103,34
1,34,103,34
1,36,103,32
1,36,103,32
1,31,103,32
1,36,103,34
1,36,103,34
1,31,103,32
1,33,103,34
1,39,103,34
1,39,103,32
1,34,103,32
1,34,103,32
1,41,103,34
1,41,103,30
1,36,103,34
1,33,103,32
1,36,103,34
1,36,103,34
1,36,103,34
1,41,103,34
1,39,103,34
1,34,103,30
1,36,103,34
1,36,103,34
1,36,103,34
1,41,103,32
1,39,103,32
1,34,103,34
1,36,103,34
1,36,103,32
1,31,103,32
1,36,103,32
1,36,103,34
1,31,103,32
1,33,103,32
1,39,103,32
1,39,103,32
1,34,103,32
1,34,103,34
1,41,103,34
1,41,103,32
1,36,103,32
1,33,103,32
1,36,103,32
1,36,103,34
1,36,103,32
1,41,103,32
1,39,103,32
1,34,103,34
1,36,103,34
1,36,103,32
1,36,103,32
1,41,103,32
1,39,103,34
1,34,103,32
1,36,103,32
1,36,103,32
1,31,103,32
1,36,103,32
1,36,103,34
1,31,103,32
1,33,103,32
1,41,103,32
1,41,103,32
1,36,103,32
1,41,103,32
1,29,103,32
1,36,103,34
1,38,103,32
1,41,103,32
1,41,103,32
1,36,103,34
1,29,103,32
1,41,103,32
1,36,103,32
1,38,103,32
1,43,103,52
1,43,103,32
1,38,103,32
1,31,103,32
1,43,103,32
1,38,103,30
1,40,103,34
1,43,103,32
1,43,103,34
1,38,103,34
1,38,103,32
1,31,103,34
1,31,103,32
1,31,103,32
1,33,103,30
1,35,103,32
1,36,103,34
1,36,103,32
1,31,103,32
1,36,103,32
1,36,103,32
1,31,103,32
1,33,103,34
1,39,103,32
1,39,103,32
1,34,103,32
1,34,103,32
1,41,103,32
1,41,103,32
1,36,103,32
1,33,103,32
1,36,103,34
1,36,103,32
1,36,103,32
1,41,103,32
1,39,103,32
1,34,103,32
1,36,103,32
1,36,103,32
1,36,103,32
1,41,103,32
1,39,103,34
1,34,103,36
1,36,103,34
1,36,103,32
1,31,103,34
1,36,103,34
1,36,103,32
1,31,103,36
1,33,103,32
1,39,103,34
1,39,103,32
1,34,103,30
1,34,103,32
1,41,103,34
1,41,103,32
1,36,103,32
1,33,103,32
1,36,103,32
1,36,103,32
1,36,103,34
1,41,103,32
1,39,103,34
1,34,103,32
1,36,103,34
1,36,103,32
1,36,103,32
1,41,103,34
1,39,103,30
1,34,103,32
1,36,103,32
1,36,103,32
1,31,103,32
1,36,103,32
1,36,103,32
1,31,103,32
1,33,103,32
1,39,103,32
1,39,103,32
1,34,103,34
1,34,103,32
1,41,103,32
1,41,103,32
1,36,103,34
1,33,103,34
1,36,103,32
1,36,103,34
1,36,103,32
1,41,103,30
1,39,103,32
1,34,103,32
1,36,103,30
1,36,103,32
1,36,103,32
1,41,103,32
1,39,103,30
1,34,103,32
1,36,103,32
1,36,103,30
1,31,103,30
1,36,103,32
1,36,103,32
1,31,103,34
1,33,103,32
1,41,103,32
1,41,103,32
1,36,103,32
1,41,103,32
1,29,103,32
1,36,103,32
1,38,103,30
1,41,103,32
1,41,103,32
1,36,103,32
1,29,103,30
1,41,103,32
1,36,103,32
1,38,103,32
1,43,103,32
1,43,103,30
1,38,103,30
1,31,103,30
1,43,103,30
1,38,103,32
1,40,103,30
1,43,103,32
1,43,103,32
1,38,103,32
1,38,103,32
1,31,103,34
1,31,103,32
1,31,103,32
1,33,103,32
1,35,103,34
1,36,103,34
1,36,103,30
1,31,103,30
1,36,103,30
1,36,103,32
1,31,103,30
1,33,103,32
1,39,103,32
1,39,103,30
1,34,103,32
1,34,103,32
1,41,103,32
1,41,103,32
1,36,103,32
1,33,103,32
1,36,103,32
1,36,103,34
1,36,103,32
1,41,103,32
1,39,103,32
1,34,103,32
1,36,103,30
1,36,103,32
1,36,103,32
1,41,103,30
1,39,103,30
1,34,103,32
1,36,103,34
1,36,103,30
1,31,103,30
1,36,103,32
1,36,103,30
1,31,103,32
1,33,103,32
1,39,103,34
1,39,103,32
1,34,103,32
1,34,103,32
1,41,103,32
1,41,103,34
1,36,103,36
1,33,103,30
1,36,103,32
1,36,103,32
1,36,103,32
1,41,103,32
1,39,103,32
1,34,103,32
1,36,103,32
1,36,103,30
1,36,103,32
1,41,103,30
1,39,103,32
1,34,103,32
1,36,103,34
1,36,103,32
1,31,103,32
1,36,103,32
1,36,103,30
1,31,103,32
1,33,103,32
1,39,103,34
1,39,103,30
1,34,103,30
1,34,103,32
1,41,103,32
1,41,103,30
1,36,103,32
1,33,103,30
1,36,103,32
1,36,103,32
1,36,103,32
1,41,103,32
1,39,103,34
1,34,103,32
1,36,103,34
1,36,103,32
1,36,103,32
1,41,103,32
1,39,103,32
1,34,103,32
1,36,103,32
1,36,103,32
1,31,103,32
1,36,103,32
1,36,103,32
1,31,103,32
1,33,103,30
1,41,103,30
1,41,103,32
1,36,103,32
1,41,103,34
1,29,103,32
1,36,103,32
1,38,103,32
1,41,103,34
1,41,103,30
1,36,103,32
1,29,103,32
1,41,103,30
1,36,103,30
1,38,103,32
1,43,103,34
1,43,103,36
1,38,103,32
1,31,103,32
1,43,103,30
1,38,103,32
1,40,103,32
1,43,103,34
1,43,103,32
1,38,103,30
1,38,103,34
1,31,103,34
1,31,103,34
1,31,103,34
1,33,103,34
1,35,103,34
1,36,103,36
1,36,103,34
1,31,103,34
1,36,103,34
1,36,103,32
1,31,103,34
1,33,103,34
1,39,103,34
1,39,103,32
1,34,103,32
1,34,103,32
1,41,103,32
1,41,103,34
1,36,103,32
1,33,103,32
1,36,103,32
1,36,103,32
1,36,103,34
1,41,103,32
1,39,103,32
1,34,103,34
1,36,103,34
1,36,103,32
1,36,103,32
1,41,103,32
1,39,103,34
1,34,103,32
1,36,103,32
1,36,103,32
1,31,103,32
1,36,103,30
1,36,103,32
1,31,103,32
1,33,103,34
1,39,103,34
1,39,103,32
1,34,103,34
1,34,103,34
1,41,103,32
1,41,103,34
1,36,103,34
1,33,103,34
1,36,103,34
1,36,103,32
1,36,103,34
1,41,103,34
1,39,103,32
1,34,103,32
1,36,103,30
1,36,103,32
1,36,103,30
1,41,103,32
1,39,103,34
1,34,103,32
1,36,103,34
1,36,103,34
1,31,103,34
1,36,103,34
1,36,103,34
1,31,103,32
1,33,103,32
1,39,103,32
1,39,103,34
1,34,103,34
1,34,103,32
1,41,103,32
1,41,103,32
1,36,103,32
1,33,103,32
1,36,103,34
1,36,103,32
1,36,103,34
1,41,103,34
1,39,103,34
1,34,103,34
1,36,103,34
1,36,103,34
1,36,103,32
1,41,103,34
1,39,103,32
1,34,103,30
1,36,103,32
1,36,103,32
1,31,103,32
1,36,103,32
1,36,103,32
1,31,103,34
1,33,103,32
1,41,103,34
1,41,103,34
1,36,103,34
1,41,103,34
1,29,103,34
1,36,103,34
1,38,103,30
1,41,103,34
1,41,103,34
1,36,103,34
1,29,103,32
1,41,103,34
1,36,103,34
1,38,103,32
1,43,103,52
1,43,103,32
1,38,103,32
1,31,103,32
1,43,103,34
1,38,103,34
1,40,103,30
1,43,103,34
1,43,103,32
1,38,103,32
1,38,103,34
1,31,103,34
1,31,103,34
1,31,103,36
1,33,103,34
1,35,103,34
1,36,103,34
1,36,103,32
1,31,103,32
1,36,103,34
1,36,103,34
1,31,103,34
1,33,103,34
1,39,103,34
1,39,103,32
1,34,103,32
1,34,103,34
1,41,103,32
1,41,103,32
1,36,103,34
1,33,103,36
1,36,103,34
1,36,103,34
1,36,103,36
1,41,103,32
1,39,103,34
1,34,103,34
1,36,103,32
1,36,103,34
1,36,103,34
1,41,103,34
1,39,103,36
1,34,103,32
1,36,103,34
1,36,103,32
1,31,103,32
1,36,103,34
1,36,103,34
1,31,103,32
1,33,103,34
1,39,103,34
1,39,103,34
1,34,103,34
1,34,103,32
1,41,103,34
1,41,103,32
1,36,103,32
1,33,103,32
1,36,103,32
1,36,103,34
1,36,103,32
1,41,103,34
1,39,103,34
1,34,103,34
1,36,103,32
1,36,103,32
1,36,103,34
1,41,103,36
1,39,103,34
1,34,103,34
1,36,103,36
1,36,103,32
1,31,103,34
1,36,103,32
1,36,103,32
1,31,103,32
1,33,103,34
1,39,103,34
1,39,103,30
1,34,103,32
1,34,103,32
1,41,103,34
1,41,103,32
1,36,103,34
1,33,103,32
1,36,103,32
1,36,103,34
1,36,103,34
1,41,103,34
1,39,103,34
1,34,103,32
1,36,103,34
1,36,103,34
1,36,103,32
1,41,103,32
1,39,103,34
1,34,103,34
1,36,103,32
1,36,103,32
1,31,103,32
1,36,103,32
1,36,103,30
1,31,103,32
1,33,103,34
1,41,103,34
1,41,103,34
1,36,103,34
1,41,103,34
1,29,103,32
1,36,103,32
1,38,103,32
1,41,103,32
1,41,103,32
1,36,103,32
1,29,103,32
1,41,103,32
1,36,103,34
1,38,103,32
1,43,103,34
1,43,103,32
1,38,103,32
1,31,103,32
1,43,103,34
1,38,103,34
1,40,103,36
1,43,103,32
1,43,103,34
1,38,103,34
1,38,103,32
1,31,103,32
1,31,103,32
1,31,103,34
1,33,103,34
1,35,103,32
1,36,103,30
1,36,103,32
1,31,103,32
1,36,103,34
1,36,103,34
1,31,103,34
1,33,103,32
1,39,103,32
1,39,103,34
1,34,103,30
1,34,103,32
1,41,103,34
1,41,103,34
1,36,103,34
1,33,103,34
1,36,103,34
1,36,103,34
1,36,103,32
1,41,103,32
1,39,103,32
1,34,103,32
1,36,103,32
1,36,103,34
1,36,103,32
1,41,103,34
1,39,103,32
1,34,103,32
1,29,103,32
1,29,103,32
1,29,103,50
1,29,103,34
1,36,103,1372
1,36,103,32
1,31,103,32
1,36,103,34
1,36,103,32
1,31,103,32
1,33,103,32
1,39,103,32
1,39,103,34
1,34,103,34
1,34,103,32
1,41,103,32
1,41,103,32
1,36,103,32
1,33,103,32
1,36,103,32
1,36,103,32
1,36,103,32
1,41,103,32
1,39,103,32
1,34,103,34
1,36,103,32
1,36,103,34
1,36,103,32
1,41,103,32
1,39,103,34
1,34,103,32
1,36,103,34
1,36,103,32
1,31,103,34
1,36,103,34
1,36,103,32
1,31,103,32
1,33,103,34
1,39,103,34
1,39,103,32
1,34,103,34
1,34,103,32
1,41,103,32
1,41,103,32
1,36,103,34
1,33,103,32
1,36,103,34
1,36,103,32
1,36,103,36
1,41,103,34
1,39,103,34
1,34,103,36
1,36,103,32
1,36,103,34
1,36,103,34
1,41,103,32
1,39,103,34
1,34,103,32
1,36,103,32
1,36,103,30
1,31,103,32
1,36,103,34
1,36,103,34
1,31,103,34
1,33,103,34
1,39,103,34
1,39,103,32
1,34,103,34
1,34,103,32
1,41,103,34
1,41,103,32
1,36,103,32
1,33,103,32
1,36,103,32
1,36,103,34
1,36,103,34
1,41,103,32
1,39,103,32
1,34,103,34
1,36,103,30
1,36,103,34
1,36,103,32
1,41,103,34
1,39,103,32
1,34,103,30
1,36,103,32
1,36,103,34
1,31,103,34
1,36,103,32
1,36,103,32
1,31,103,32
1,33,103,32
1,39,103,34
1,39,103,32
1,34,103,32
1,34,103,32
1,41,103,32
1,41,103,32
1,36,103,32
1,33,103,34
1,36,103,34
1,36,103,30
1,36,103,32
1,41,103,32
1,39,103,34
1,34,103,32
1,36,103,32
1,36,103,32
1,36,103,32
1,41,103,32
1,39,103,32
1,34,103,32
1,29,103,34
1,29,103,32
1,29,103,54
1,29,103,32
1,36,103,1376
1,36,103,32
2,84,127,23040
2,84,127,82
2,79,127,336
2,79,127,34
2,79,127,32
2,79,127,94
2,82,127,62
2,79,127,16
2,77,127,32
2,79,127,64
2,79,127,224
2,79,127,32
2,79,127,32
2,79,127,82
2,82,127,64
2,79,127,32
2,77,127,18
2,79,127,80
2,84,127,3472
2,79,127,0
2,84,127,114
2,79,127,0
2,84,127,112
2,79,127,0
2,79,127,30
2,82,127,20
2,79,127,402
2,84,127,0
2,79,127,130
2,84,127,0
2,84,127,114
2,79,127,0
2,82,127,96
2,79,127,0
2,79,127,3422
2,84,127,0
2,84,127,114
2,79,127,0
2,84,127,114
2,79,127,0
2,82,127,34
2,79,127,0
2,84,127,402
2,79,127,0
2,84,127,126
2,79,127,0
2,79,127,112
2,84,127,18
2,82,127,96
2,79,127,0
2,84,127,3424
2,79,127,0
2,84,127,112
2,79,127,0
2,84,127,112
2,79,127,0
2,82,127,32
2,79,127,0
2,84,127,402
2,79,127,0
2,84,127,128
2,79,127,0
2,84,127,112
2,79,127,0
2,82,127,100
2,79,127,0
2,84,127,476
2,84,127,96
2,84,127,80
2,79,127,338
2,79,127,32
2,79,127,32
2,79,127,96
2,82,127,82
2,79,127,16
2,77,127,32
2,79,127,50
2,79,127,224
2,79,127,34
2,79,127,34
2,79,127,82
2,82,127,64
2,79,127,32
2,77,127,16
2,79,127,80
2,84,127,3472
2,79,127,0
2,84,127,114
2,79,127,0
2,84,127,114
2,79,127,0
2,82,127,32
2,79,127,0
2,84,127,400
2,79,127,0
2,84,127,128
2,79,127,0
2,84,127,112
2,79,127,0
2,82,127,94
2,79,127,0
2,84,127,3438
2,79,127,0
2,84,127,112
2,79,127,0
2,79,127,112
2,84,127,18
2,82,127,34
2,79,127,0
2,84,127,400
2,79,127,0
2,84,127,130
2,79,127,0
2,84,127,114
2,79,127,0
2,82,127,94
2,79,127,0
2,84,127,3424
2,79,127,0
2,84,127,116
2,79,127,0
2,84,127,110
2,79,127,0
2,82,127,32
2,79,127,0
2,84,127,400
2,79,127,0
2,84,127,128
2,79,127,0
2,84,127,112
2,79,127,0
2,82,127,96
2,79,127,0
2,84,127,482
2,84,127,98
2,84,127,80
2,79,127,334
2,79,127,30
2,79,127,30
2,79,127,98
2,82,127,64
2,79,127,14
2,77,127,30
2,79,127,48
2,79,127,224
2,79,127,32
