track,note,velocity,time
1,62,127,9208
1,62,127,114
1,62,127,138
1,64,127,6
1,67,127,30
1,64,127,8
1,67,127,204
1,69,127,6
1,71,127,140
1,67,127,366
1,64,127,30
1,62,127,12
1,62,127,1500
1,62,127,122
1,62,127,156
1,64,127,8
1,67,127,24
1,64,127,6
1,67,127,2
1,71,127,134
1,72,127,16
1,71,127,192
1,67,127,154
1,64,127,6
1,62,127,6
1,71,127,1350
1,72,127,28
1,72,127,140
1,72,127,148
1,72,127,102
1,71,127,380
1,69,127,2
1,71,127,32
1,71,127,128
1,69,127,22
1,69,127,128
1,67,127,20
1,72,127,198
1,72,127,140
1,72,127,140
1,72,127,144
1,71,127,190
1,69,127,16
1,67,127,10
1,72,127,10
1,71,127,6
1,69,127,4
1,72,127,2
1,72,127,108
1,71,127,4
1,69,127,4
1,74,127,198
1,74,127,372
1,71,127,192
1,67,127,22
1,64,127,14
1,64,127,312
1,67,127,2
1,67,127,166
1,64,127,14
1,71,127,8
1,69,127,22
1,74,127,214
1,71,127,318
1,67,127,10
1,64,127,16
1,64,127,306
1,67,127,6
1,64,127,192
1,71,127,188
1,69,127,186
1,74,127,474
1,71,127,204
1,69,127,38
1,69,127,150
1,67,127,30
1,64,127,16
1,67,127,14
1,67,127,154
1,64,127,10
1,71,127,10
1,69,127,18
1,72,127,184
1,72,127,148
1,72,127,156
1,72,127,150
1,71,127,18
1,69,127,206
1,72,127,164
1,71,127,382
1,69,127,186
1,72,127,0
1,71,127,374
1,69,127,166
1,67,127,14
1,68,127,164
1,69,127,2
1,67,127,12
1,62,127,3110
1,62,127,116
1,62,127,154
1,64,127,188
1,67,127,32
1,64,127,6
1,67,127,192
1,71,127,142
1,67,127,34
1,64,127,16
1,62,127,376
1,59,127,1320
1,62,127,20
1,64,127,192
1,62,127,160
1,64,127,176
1,67,127,16
1,64,127,2
1,67,127,192
1,71,127,158
1,72,127,12
1,71,127,170
1,67,127,2
1,64,127,8
1,62,127,12
1,71,127,1324
1,72,127,32
1,72,127,154
1,72,127,120
1,72,127,120
1,71,127,370
1,69,127,8
1,71,127,26
1,71,127,150
1,69,127,26
1,69,127,138
1,67,127,2
1,67,127,0
1,72,127,12
1,72,127,160
1,72,127,146
1,72,127,138
1,71,127,198
1,69,127,168
1,67,127,188
1,72,127,0
1,71,127,0
1,69,127,0
1,72,127,182
1,72,127,366
1,71,127,0
1,69,127,6
1,74,127,192
1,74,127,416
1,71,127,176
1,67,127,16
1,64,127,16
1,64,127,324
1,67,127,0
1,67,127,158
1,64,127,6
1,71,127,4
1,69,127,16
1,74,127,246
1,71,127,310
1,67,127,12
1,64,127,6
1,64,127,308
1,67,127,4
1,64,127,2
1,71,127,0
1,69,127,6
1,74,127,272
1,71,127,190
1,69,127,32
1,69,127,152
1,67,127,132
1,64,127,10
1,67,127,188
1,67,127,134
1,64,127,10
1,71,127,40
1,69,127,4
1,72,127,236
1,72,127,130
1,72,127,134
1,72,127,150
1,71,127,184
1,69,127,14
1,72,127,4
1,71,127,374
1,69,127,6
1,72,127,208
1,71,127,370
1,69,127,22
1,67,127,196
1,69,127,0
1,67,127,6
1,71,127,10774
1,74,127,56
1,71,127,18
1,74,127,126
1,74,127,176
1,71,127,422
1,74,127,176
1,71,127,148
1,76,127,112
1,74,127,20
1,71,127,54
1,74,127,172
1,74,127,158
1,74,127,214
1,74,127,198
1,71,127,0
1,77,127,150
1,76,127,16
1,74,127,124
1,76,127,84
1,74,127,36
1,74,127,362
1,71,127,182
1,67,127,150
1,64,127,310
1,64,127,298
1,67,127,204
1,67,127,144
1,64,127,10
1,71,127,26
1,69,127,22
1,74,127,232
1,71,127,308
1,67,127,14
1,64,127,10
1,64,127,302
1,67,127,26
1,64,127,188
1,69,127,176
1,71,127,0
1,69,127,6
1,74,127,210
1,71,127,22
1,69,127,18
1,69,127,154
1,67,127,308
1,64,127,6
1,67,127,192
1,67,127,160
1,64,127,6
1,71,127,10
1,69,127,30
1,72,127,166
1,72,127,142
1,72,127,142
1,72,127,144
1,71,127,178
1,69,127,8
1,72,127,200
1,71,127,384
1,69,127,0
1,72,127,214
1,71,127,372
1,69,127,12
1,67,127,0
1,68,127,192
1,67,127,4
1,69,127,12
1,67,127,18
1,67,127,532
1,67,127,112
1,67,127,438
1,67,127,152
1,64,127,30
1,67,127,6
1,64,127,158
1,68,127,104
1,69,127,10
1,67,127,34
1,67,127,188
1,67,127,112
1,67,127,438
1,67,127,152
1,64,127,30
1,67,127,6
1,64,127,158
1,68,127,104
1,69,127,10
1,67,127,34
1,67,127,188
1,67,127,112
1,67,127,438
1,67,127,152
1,64,127,30
1,67,127,6
1,64,127,158
1,68,127,104
1,69,127,10
1,67,127,34
1,67,127,188
1,67,127,112
1,67,127,438
1,67,127,152
1,64,127,30
1,67,127,6
1,64,127,158
1,68,127,104
1,69,127,10
1,67,127,34
1,67,127,188
1,67,127,112
1,67,127,438
1,67,127,152
1,64,127,30
1,67,127,6
1,64,127,158
1,68,127,104
1,69,127,10
1,67,127,34
1,67,127,188
1,67,127,112
1,67,127,438
1,67,127,152
1,64,127,30
1,67,127,6
1,64,127,158
1,68,127,104
1,69,127,10
1,67,127,34
2,38,88,2844
2,31,107,32
2,31,92,176
2,28,78,0
2,26,92,12
2,28,70,176
2,31,92,0
2,31,97,20
2,31,88,60
2,28,98,12
2,38,92,20
2,28,65,16
2,31,97,20
2,31,92,208
2,28,92,0
2,26,95,20
2,28,56,176
2,31,92,0
2,31,81,0
2,31,85,36
2,28,78,4
2,38,88,16
2,28,72,192
2,31,97,16
2,31,97,100
2,31,78,32
2,33,81,48
2,35,51,20
2,36,102,4
2,36,92,132
2,36,75,32
2,35,68,48
2,33,78,20
2,31,88,12
2,31,97,116
2,28,70,0
2,38,78,16
2,28,70,0
2,28,75,4
2,38,81,64
2,31,97,12
2,38,92,4
2,31,102,16
2,31,88,180
2,31,85,36
2,33,92,60
2,35,58,0
2,36,107,0
2,36,102,148
2,38,68,32
2,35,85,16
2,33,75,0
2,31,85,16
2,31,113,100
2,31,102,0
2,28,85,63
2,38,88,20
2,28,97,4
2,26,97,52
2,31,102,268
2,33,81,16
2,35,60,196
2,36,102,0
2,36,97,160
2,35,65,572
2,33,88,4
2,31,92,20
2,31,107,116
2,31,81,20
2,33,85,52
2,35,61,4
2,36,102,4
2,36,102,92
2,35,75,576
2,33,81,160
2,36,102,0
2,38,107,0
2,36,107,20
2,38,97,32
2,38,70,16
2,28,97,32
2,30,53,4
2,31,107,36
2,31,92,160
2,28,81,16
2,26,97,16
2,36,113,364
2,36,113,160
2,38,102,36
2,38,107,132
2,31,102,16
2,31,113,176
2,28,92,16
2,26,113,244
2,36,107,364
2,38,102,196
2,31,97,16
2,31,97,148
2,28,107,20
2,26,88,384
2,36,113,352
2,36,113,176
2,38,102,16
2,38,102,132
2,36,113,28
2,36,120,148
2,36,113,148
2,38,113,32
2,38,120,116
2,38,78,48
2,28,107,28
2,30,65,0
2,31,107,0
2,31,107,176
2,28,97,0
2,38,92,0
2,28,61,4
2,31,97,12
2,31,88,20
2,31,97,64
2,28,81,0
2,26,92,32
2,28,55,156
2,31,102,12
2,31,113,192
2,28,88,4
2,26,81,36
2,28,65,160
2,31,92,0
2,31,81,4
2,31,102,52
2,28,81,0
2,38,88,20
2,28,81,0
2,31,107,4
2,31,102,180
2,31,92,4
2,33,81,32
2,35,72,0
2,36,102,0
2,36,88,208
2,36,75,12
2,35,75,48
2,33,75,0
2,31,92,4
2,31,113,100
2,38,75,4
2,28,81,20
2,28,65,4
2,38,92,68
2,31,107,12
2,38,102,0
2,31,102,20
2,31,97,160
2,31,78,48
2,33,81,48
2,35,49,0
2,36,97,0
2,36,113,124
2,38,60,36
2,35,75,52
2,33,81,16
2,31,97,4
2,31,107,76
2,28,78,4
2,38,92,0
2,28,78,208
2,28,70,0
2,38,88,68
2,31,107,20
2,33,78,16
2,35,87,12
2,36,102,0
2,36,107,176
2,35,81,0
2,33,85,4
2,31,102,16
2,31,102,192
2,31,81,20
2,33,88,48
2,35,65,0
2,36,107,0
2,36,107,116
2,35,78,0
2,33,85,20
2,36,102,16
2,38,102,4
2,36,102,20
2,38,107,32
2,38,75,16
2,28,107,32
2,30,49,12
2,31,107,0
2,31,107,208
2,28,85,16
2,26,99,32
2,36,96,4
2,36,92,0
2,38,102,12
2,31,107,12
2,31,113,160
2,28,97,0
2,26,107,192
2,36,120,16
2,38,102,4
2,38,88,0
2,38,102,16
2,23,88,16
2,31,107,116
2,31,107,196
2,28,88,0
2,26,107,244
2,36,127,32
2,36,120,128
2,38,107,0
2,38,107,0
2,36,113,16
2,36,120,84
2,36,113,128
2,38,102,20
2,38,107,96
2,38,75,16
2,28,120,36
2,30,55,0
2,31,102,4
2,31,107,208
2,28,92,0
2,26,92,32
2,28,61,0
2,31,97,0
2,31,85,32
2,31,113,48
2,28,102,20
2,38,85,12
2,28,56,0
2,31,107,16
2,31,107,192
2,28,92,0
2,26,85,16
2,28,61,176
2,31,97,20
2,31,81,4
2,31,107,44
2,28,85,12
2,38,97,4
2,28,65,0
2,31,102,16
2,31,107,212
2,28,81,4
2,26,92,28
2,28,63,180
2,31,97,0
2,31,85,20
2,31,107,52
2,28,85,12
2,38,97,20
2,28,75,4
2,31,113,16
2,31,107,244
2,28,88,16
2,26,92,32
2,28,63,176
2,31,97,0
2,31,102,16
2,31,107,52
2,28,107,20
2,28,113,76
2,38,127,48
2,36,113,964
2,37,85,4
2,38,113,4
2,36,92,896
2,36,107,32
2,37,102,0
2,38,113,0
2,26,107,1376
2,38,107,0
2,38,102,108
2,28,113,32
2,30,55,20
2,31,107,12
2,31,107,244
2,28,102,20
2,26,113,4
2,36,120,0
2,36,120,164
2,38,113,20
2,38,107,176
2,31,107,36
2,31,113,212
2,28,107,0
2,26,113,224
2,36,113,4
2,38,107,160
2,38,107,100
2,31,113,0
2,31,107,176
2,28,85,4
2,26,113,212
2,36,120,16
2,36,113,132
2,38,97,12
2,38,68,0
2,36,113,48
2,36,113,164
2,36,120,128
2,36,107,116
2,38,107,12
2,38,107,132
2,38,107,116
2,28,78,0
2,30,68,0
2,31,113,0
2,31,102,116
2,28,102,16
2,26,102,36
2,28,75,0
2,31,92,12
2,31,81,32
2,31,107,44
2,28,97,20
2,38,97,20
2,28,70,4
2,31,102,20
2,31,92,196
2,28,70,0
2,26,92,32
2,28,68,156
2,31,92,16
2,31,65,36
2,31,92,48
2,28,88,0
2,38,97,32
2,28,58,0
2,31,107,4
2,31,102,204
2,28,88,4
2,38,97,4
2,28,70,172
2,31,102,16
2,31,75,16
2,31,97,52
2,28,92,16
2,38,92,16
2,28,68,0
2,31,102,12
2,31,97,212
2,28,81,16
2,26,92,32
2,28,72,0
2,31,97,4
2,31,85,0
2,31,102,48
2,28,88,16
2,38,92,20
2,28,68,176
2,31,113,12
2,31,102,244
2,28,102,16
2,38,102,12
2,28,75,20
2,31,92,12
2,31,81,32
2,31,107,48
2,28,97,12
2,38,97,20
2,28,70,0
2,31,102,20
2,31,92,188
2,28,70,4
2,38,92,20
2,28,68,176
2,31,92,16
2,31,65,36
2,31,92,63
2,28,88,4
2,38,97,28
2,28,58,0
2,31,107,4
2,31,102,212
2,28,102,0
2,26,92,32
2,28,68,176
2,31,102,20
2,31,81,4
2,31,102,48
2,28,97,12
2,38,97,20
2,28,81,4
2,31,107,12
2,31,92,160
2,28,70,4
2,26,92,32
2,28,68,156
2,31,97,20
2,31,102,180
2,28,102,28
2,26,113,416
2,31,120,4
2,31,102,148
3,74,127,1520
3,67,127,0
3,71,127,0
3,71,127,160
3,67,127,0
3,67,127,144
3,64,127,0
3,62,127,32
3,64,127,160
3,71,127,0
3,67,127,0
3,71,127,228
3,67,127,16
3,67,127,224
3,64,127,0
3,75,127,16
3,76,127,0
3,79,127,0
3,62,127,0
3,81,127,32
3,79,127,0
3,71,127,4
3,67,127,172
3,71,127,0
3,67,127,148
3,64,127,0
3,67,127,256
3,62,127,0
3,67,127,44
3,71,127,0
3,71,127,192
3,67,127,16
3,67,127,212
3,64,127,16
3,81,127,0
3,82,127,16
3,83,127,28
3,86,127,20
3,86,127,16
3,62,127,0
3,91,127,16
3,88,127,0
3,86,127,12
3,69,127,20
3,71,127,0
3,74,127,140
3,71,127,20
3,71,127,340
3,74,127,0
3,69,127,0
3,71,127,16
3,64,127,176
3,72,127,4
3,74,127,576
3,79,127,0
3,74,127,368
3,79,127,0
3,76,127,208
3,74,127,0
3,67,127,16
3,71,127,0
3,74,127,940
3,76,127,0
3,74,127,16
3,76,127,4
3,76,127,84
3,71,127,0
3,79,127,0
3,74,127,228
3,78,127,12
3,69,127,0
3,71,127,12
3,67,127,20
3,62,127,80
3,64,127,48
3,67,127,20
3,69,127,52
3,71,127,188
3,74,127,160
3,76,127,156
3,79,127,16
3,74,127,64
3,72,127,16
3,74,127,576
3,76,127,16
3,74,127,4
3,69,127,176
3,72,127,4
3,67,127,12
3,69,127,160
3,71,127,116
3,62,127,0
3,67,127,0
3,71,127,80
3,74,127,84
3,69,127,192
3,76,127,48
3,71,127,0
3,79,127,0
3,74,127,164
3,78,127,16
3,71,127,204
3,74,127,20
3,67,127,0
3,72,127,192
3,64,127,16
3,72,127,176
3,74,127,324
3,79,127,0
3,76,127,0
3,74,127,0
3,67,127,16
3,71,127,0
3,67,127,12
3,71,127,4
3,62,127,16
3,62,127,316
3,67,127,240
3,69,127,180
3,72,127,0
3,64,127,12
3,79,127,564
3,74,127,0
3,74,127,340
3,79,127,0
3,76,127,16
3,74,127,68
3,76,127,0
3,79,127,16
3,74,127,144
3,72,127,16
3,74,127,116
3,78,127,0
3,67,127,80
3,74,127,0
3,76,127,16
3,79,127,0
3,74,127,0
3,76,127,0
3,74,127,160
3,78,127,0
3,66,127,0
3,81,127,52
3,82,127,0
3,81,127,0
3,83,127,0
3,76,127,0
3,78,127,0
3,86,127,0
3,76,127,16
3,71,127,0
3,67,127,16
3,71,127,172
3,67,127,4
3,67,127,164
3,64,127,0
3,67,127,324
3,62,127,0
3,72,127,16
3,64,127,0
3,69,127,4
3,74,127,0
3,66,127,0
3,74,127,68
3,76,127,0
3,81,127,80
3,71,127,0
3,67,127,0
3,71,127,172
3,67,127,20
3,67,127,144
3,64,127,0
3,62,127,276
3,67,127,0
3,72,127,276
3,67,127,16
3,64,127,0
3,74,127,12
3,66,127,0
3,67,127,32
3,71,127,0
3,71,127,160
3,67,127,0
3,67,127,116
3,64,127,0
3,67,127,292
3,62,127,0
3,72,127,272
3,64,127,16
3,66,127,4
3,74,127,0
3,67,127,4
3,76,127,0
3,84,127,0
3,78,127,1500
3,74,127,16
3,66,127,0
3,86,127,0
3,85,127,0
3,76,127,36
3,78,127,0
3,81,127,12
3,76,127,0
3,78,127,228
3,76,127,0
3,67,127,0
3,71,127,0
3,71,127,180
3,67,127,0
3,64,127,148
3,67,127,0
3,62,127,20
3,87,127,28
3,88,127,4
3,64,127,68
3,91,127,0
3,67,127,0
3,71,127,0
3,67,127,240
3,71,127,0
3,67,127,204
3,64,127,20
3,94,127,36
3,93,127,28
3,91,127,32
3,62,127,4
3,88,127,144
3,91,127,0
3,71,127,0
3,67,127,0
3,67,127,132
3,71,127,0
3,86,127,92
3,87,127,12
3,88,127,0
3,67,127,0
3,64,127,0
3,91,127,0
3,86,127,144
3,87,127,0
3,88,127,36
3,67,127,0
3,62,127,0
3,86,127,12
3,71,127,0
3,67,127,0
3,67,127,244
3,71,127,0
3,82,127,48
3,81,127,32
3,79,127,16
3,67,127,32
3,64,127,20
3,81,127,132
3,79,127,0
3,75,127,144
3,76,127,4
3,62,127,0
3,79,127,0
3,64,127,28
3,71,127,64
3,67,127,628
3,71,127,180
3,74,127,0
3,65,127,0
3,72,127,0
3,64,127,16
3,79,127,964
3,74,127,348
3,67,127,0
3,71,127,12
3,67,127,0
3,71,127,92
3,74,127,48
3,71,127,160
