track,note,velocity,time
0,42,54,0
0,42,44,94
0,42,52,94
0,42,60,94
0,43,58,94
0,83,50,0
0,79,42,0
0,74,48,0
0,55,64,0
0,79,26,0
0,83,41,0
0,86,49,0
0,52,66,0
0,35,68,0
0,42,75,0
0,40,10,15
0,59,40,22
0,42,40,0
0,42,20,9
0,62,62,6
0,42,75,0
0,40,10,22
0,55,52,22
0,42,42,0
0,86,28,10
0,83,39,11
0,42,22,1
0,81,42,11
0,79,38,2
0,69,66,5
0,67,80,0
0,40,75,0
0,42,75,0
0,74,39,4
0,62,54,3
0,42,44,0
0,42,22,13
0,67,50,3
0,55,52,0
0,42,75,0
0,43,58,14
0,69,54,0
0,35,44,0
0,42,59,0
0,46,23,22
0,42,62,1
0,81,42,0
0,74,31,0
0,78,40,0
0,54,64,0
0,78,34,0
0,81,51,0
0,35,68,0
0,42,75,0
0,40,10,2
0,57,52,2
0,42,40,0
0,42,20,3
0,62,62,2
0,42,75,0
0,40,10,16
0,54,52,22
0,42,42,0
0,42,22,22
0,86,44,3
0,69,62,0
0,66,56,0
0,40,75,0
0,42,75,0
0,62,62,2
0,42,44,0
0,42,22,7
0,38,64,18
0,67,54,0
0,57,60,0
0,42,75,0
0,62,44,2
0,93,47,0
0,42,58,0
0,46,23,3
0,36,54,2
0,76,35,0
0,79,32,0
0,72,40,0
0,52,56,0
0,84,28,0
0,88,28,0
0,91,28,0
0,35,68,0
0,42,75,0
0,40,10,17
0,55,54,22
0,42,40,0
0,42,20,9
0,60,58,22
0,42,75,0
0,40,10,14
0,52,54,1
0,42,42,0
0,42,22,1
0,69,62,22
0,64,80,0
0,40,75,0
0,42,75,0
0,60,54,1
0,42,44,0
0,42,22,7
0,40,56,7
0,67,40,0
0,52,44,0
0,42,75,0
0,36,56,5
0,69,42,0
0,35,42,0
0,42,54,0
0,46,23,22
0,38,62,2
0,74,44,0
0,78,54,0
0,54,60,0
0,78,32,0
0,81,32,0
0,86,32,0
0,35,68,0
0,42,75,0
0,40,10,4
0,57,44,2
0,42,40,0
0,42,20,19
0,40,66,2
0,79,38,0
0,62,62,0
0,79,39,0
0,83,39,0
0,42,75,0
0,40,10,6
0,54,42,22
0,42,42,0
0,42,22,22
0,42,54,1
0,81,58,0
0,66,66,0
0,81,34,0
0,84,34,0
0,40,75,0
0,42,75,0
0,62,56,2
0,42,44,0
0,42,22,1
0,45,58,3
0,84,35,0
0,57,48,0
0,42,73,0
0,54,35,7
0,42,58,0
0,46,23,14
0,43,60,2
0,79,40,0
0,83,52,0
0,55,56,0
0,79,39,0
0,83,39,0
0,86,39,0
0,35,68,0
0,42,75,0
0,40,10,14
0,59,62,22
0,42,40,0
0,42,20,22
0,62,72,22
0,42,75,0
0,40,10,6
0,55,50,22
0,42,42,0
0,42,22,22
0,69,66,22
0,67,68,0
0,40,75,0
0,42,75,0
0,42,44,2
0,42,22,5
0,43,52,7
0,67,62,0
0,83,41,0
0,88,41,0
0,42,75,0
0,69,56,46
0,35,44,0
0,42,59,0
0,46,23,17
0,42,58,2
0,81,36,0
0,86,40,0
0,54,46,0
0,81,36,0
0,86,36,0
0,35,68,0
0,42,75,0
0,40,10,2
0,57,62,7
0,42,40,0
0,42,20,5
0,62,66,3
0,42,75,0
0,40,10,10
0,54,40,22
0,42,42,0
0,42,22,1
0,69,60,1
0,66,39,0
0,40,75,0
0,42,75,0
0,62,66,23
0,42,44,0
0,42,22,12
0,38,64,1
0,67,58,0
0,57,60,0
0,93,45,0
0,42,75,0
0,62,44,1
0,54,37,0
0,42,58,0
0,46,23,2
0,36,54,2
0,76,19,0
0,71,29,0
0,79,35,0
0,52,56,0
0,84,41,0
0,88,45,0
0,91,24,0
0,35,68,0
0,42,75,0
0,40,10,13
0,55,54,22
0,42,40,0
0,42,20,16
0,60,68,22
0,42,75,0
0,40,10,13
0,52,39,22
0,42,42,0
0,42,22,2
0,69,60,12
0,64,76,0
0,40,75,0
0,42,75,0
0,60,56,22
0,42,44,0
0,42,22,3
0,40,64,2
0,67,60,0
0,55,56,0
0,42,75,0
0,52,48,41
0,35,42,0
0,42,54,0
0,46,23,15
0,38,54,2
0,78,44,0
0,74,33,0
0,69,54,0
0,54,37,0
0,78,41,0
0,81,34,0
0,86,43,0
0,35,68,0
0,42,75,0
0,40,10,1
0,42,40,11
0,42,20,4
0,40,54,1
0,79,50,0
0,71,56,0
0,57,56,0
0,79,31,0
0,83,49,0
0,42,75,0
0,40,10,22
0,54,50,4
0,42,42,0
0,42,22,22
0,42,44,2
0,81,37,0
0,72,52,0
0,66,68,0
0,81,31,0
0,84,25,0
0,40,75,0
0,42,75,0
0,62,64,38
0,42,44,0
0,42,22,22
0,45,64,2
0,84,52,0
0,74,50,0
0,57,35,0
0,79,27,0
0,84,32,0
0,88,33,0
0,42,73,0
0,54,35,2
0,42,58,0
0,46,23,13
0,43,56,1
0,79,28,0
0,83,26,0
0,55,54,0
0,83,30,0
0,86,30,0
0,35,68,0
0,42,75,0
0,40,10,11
0,59,56,5
0,42,40,0
0,42,20,4
0,62,54,21
0,42,75,0
0,40,10,3
0,62,58,5
0,55,44,0
0,42,42,0
0,86,28,3
0,42,22,3
0,83,44,2
0,81,42,4
0,71,88,2
0,67,72,0
0,40,75,0
0,42,75,0
0,79,39,2
0,74,34,8
0,72,76,1
0,42,44,0
0,42,22,13
0,43,42,10
0,71,62,0
0,42,75,0
0,69,64,2
0,35,44,0
0,42,59,0
0,46,23,3
0,42,54,2
0,78,37,0
0,81,28,0
0,74,27,0
0,54,54,0
0,78,32,0
0,81,32,0
0,86,32,0
0,35,68,0
0,42,75,0
0,40,10,1
0,74,56,3
0,57,56,0
0,42,40,0
0,42,20,7
0,62,54,3
0,42,75,0
0,40,10,1
0,54,54,7
0,42,42,0
0,42,22,19
0,66,68,20
0,40,75,0
0,42,75,0
0,62,54,44
0,42,44,0
0,42,22,10
0,38,60,22
0,57,56,0
0,42,75,0
0,54,31,1
0,42,58,0
0,46,23,13
0,36,50,1
0,67,39,0
0,76,54,0
0,72,38,0
0,52,56,0
0,79,34,0
0,84,34,0
0,88,34,0
0,35,68,0
0,42,75,0
0,40,10,21
0,55,46,22
0,42,40,0
0,42,20,22
0,60,54,8
0,42,75,0
0,40,10,22
0,60,38,22
0,42,42,0
0,42,22,22
0,71,68,2
0,40,75,0
0,42,75,0
0,72,72,33
0,42,44,0
0,42,22,22
0,40,54,2
0,71,50,0
0,42,75,0
0,36,42,3
0,71,62,0
0,35,42,0
0,42,54,0
0,46,23,7
0,38,54,2
0,74,31,0
0,69,44,0
0,78,28,0
0,69,64,0
0,78,32,0
0,81,32,0
0,86,32,0
0,35,68,0
0,42,75,0
0,40,10,15
0,69,64,17
0,57,56,0
0,42,40,0
0,42,20,22
0,62,72,22
0,42,75,0
0,40,10,1
0,69,54,17
0,57,54,0
0,42,42,0
0,42,22,13
0,69,76,22
0,40,75,0
0,42,75,0
0,40,50,1
0,66,44,0
0,42,44,0
0,42,22,1
0,42,50,13
0,57,54,0
0,42,73,0
0,55,44,6
0,42,58,0
0,46,23,2
0,43,56,2
0,83,33,0
0,79,31,0
0,79,26,0
0,83,41,0
0,86,23,0
0,35,68,0
0,42,75,0
0,40,10,22
0,59,38,10
0,42,40,0
0,42,20,9
0,62,80,2
0,42,75,0
0,40,10,14
0,62,62,22
0,55,52,0
0,42,42,0
0,86,28,11
0,83,37,10
0,42,22,1
0,81,44,13
0,71,76,7
0,67,68,0
0,86,47,0
0,40,75,0
0,42,75,0
0,79,34,2
0,74,31,10
0,72,72,32
0,62,56,0
0,42,44,0
0,42,22,2
0,43,56,2
0,71,58,0
0,55,42,0
0,42,75,0
0,69,62,8
0,35,44,0
0,42,59,0
0,46,23,20
0,42,46,1
0,81,31,0
0,78,37,0
0,74,30,0
0,54,50,0
0,74,26,0
0,81,31,0
0,86,31,0
0,35,68,0
0,42,75,0
0,40,10,5
0,74,58,2
0,57,54,0
0,42,40,0
0,42,20,22
0,62,68,22
0,42,75,0
0,40,10,2
0,54,44,2
0,42,42,0
0,42,22,4
0,66,52,7
0,40,75,0
0,42,75,0
0,62,60,43
0,42,44,0
0,42,22,1
0,38,52,1
0,57,54,0
0,42,75,0
0,54,39,6
0,42,58,0
0,46,23,5
0,36,31,1
0,72,29,0
0,79,31,0
0,76,44,0
0,52,48,0
0,79,39,0
0,84,39,0
0,88,39,0
0,35,68,0
0,42,75,0
0,40,10,22
0,55,46,11
0,42,40,0
0,42,20,22
0,60,62,22
0,42,75,0
0,40,10,18
0,67,58,22
0,52,29,0
0,42,42,0
0,42,22,22
0,71,76,4
0,64,66,0
0,40,75,0
0,42,75,0
0,72,66,27
0,60,46,0
0,42,44,0
0,42,22,22
0,40,42,5
0,71,52,0
0,55,46,0
0,42,75,0
0,36,48,6
0,71,52,0
0,35,42,0
0,42,54,0
0,46,23,22
0,38,58,2
0,78,44,0
0,74,37,0
0,69,32,0
0,54,37,0
0,78,49,0
0,81,53,0
0,86,47,0
0,35,68,0
0,42,75,0
0,40,10,13
0,69,52,2
0,57,62,0
0,42,40,0
0,42,20,19
0,62,52,9
0,42,75,0
0,40,10,22
0,69,52,22
0,54,52,0
0,42,42,0
0,42,22,22
0,66,40,1
0,40,75,0
0,42,75,0
0,38,54,3
0,62,62,0
0,42,44,0
0,42,22,2
0,69,42,1
0,33,50,1
0,45,64,0
0,81,51,0
0,42,73,0
0,71,46,41
0,35,52,2
0,47,56,0
0,83,49,0
0,42,58,0
0,46,23,1
0,36,54,18
0,72,48,0
0,48,62,0
0,88,34,0
0,35,68,0
0,42,75,0
0,40,10,17
0,62,50,9
0,86,34,0
0,42,40,0
0,42,20,22
0,60,54,18
0,84,34,0
0,42,75,0
0,40,10,18
0,67,58,2
0,79,34,0
0,42,42,0
0,42,22,22
0,67,35,22
0,76,40,0
0,79,30,0
0,76,80,0
0,40,75,0
0,42,75,0
0,76,62,25
0,62,58,0
0,42,44,0
0,42,22,6
0,40,48,4
0,76,84,0
0,60,44,0
0,42,75,0
0,36,39,5
0,74,62,0
0,35,44,0
0,42,59,0
0,46,23,7
0,38,58,2
0,78,38,0
0,81,30,0
0,74,27,0
0,50,56,0
0,78,24,0
0,81,32,0
0,86,31,0
0,35,68,0
0,42,75,0
0,40,10,12
0,69,62,13
0,42,40,0
0,42,20,22
0,62,64,20
0,42,75,0
0,40,10,1
0,50,56,2
0,42,42,0
0,42,22,3
0,86,40,6
0,69,84,0
0,88,47,0
0,40,75,0
0,42,75,0
0,40,54,1
0,62,52,0
0,42,44,0
0,42,22,22
0,42,46,17
0,57,52,0
0,86,53,0
0,42,75,0
0,50,46,42
0,42,58,0
0,46,23,1
0,43,56,2
0,79,39,0
0,74,37,0
0,83,48,0
0,79,25,0
0,83,49,0
0,86,45,0
0,35,68,0
0,42,75,0
0,40,10,7
0,55,54,22
0,42,40,0
0,42,20,19
0,71,62,22
0,62,64,0
0,74,46,0
0,42,75,0
0,40,10,11
0,71,68,22
0,71,66,0
0,88,49,0
0,74,46,0
0,42,42,0
0,42,22,4
0,42,56,4
0,81,37,0
0,78,37,0
0,74,32,0
0,71,68,0
0,54,62,0
0,78,43,0
0,81,47,0
0,86,39,0
0,74,46,0
0,40,75,0
0,42,75,0
0,74,56,4
0,62,46,0
0,79,46,0
0,42,44,0
0,42,22,10
0,69,64,4
0,88,59,0
0,42,75,0
0,38,62,1
0,67,66,0
0,76,46,0
0,35,42,0
0,42,54,0
0,46,23,22
0,40,58,2
0,76,42,0
0,71,46,0
0,79,35,0
0,52,64,0
0,79,26,0
0,83,37,0
0,86,31,0
0,35,68,0
0,42,75,0
0,40,10,16
0,78,29,1
0,74,44,0
0,59,46,0
0,42,40,0
0,76,48,1
0,71,28,0
0,79,46,0
0,42,20,0
0,78,46,2
0,74,40,0
0,52,48,0
0,42,75,0
0,40,10,14
0,59,52,3
0,42,42,0
0,79,37,2
0,71,40,0
0,76,42,2
0,42,22,1
0,40,75,5
0,42,75,0
0,67,80,2
0,88,43,0
0,42,44,0
0,42,22,8
0,38,56,1
0,69,76,0
0,50,46,0
0,42,73,0
0,35,54,2
0,71,56,0
0,47,56,0
0,79,30,0
0,42,58,0
0,46,23,3
0,67,44,1
0,76,39,4
0,72,39,0
0,36,44,1
0,72,58,0
0,48,54,0
0,84,25,0
0,88,26,0
0,35,68,0
0,42,75,0
0,40,10,18
0,42,40,5
0,42,20,22
0,55,42,1
0,42,75,0
0,40,10,22
0,67,76,22
0,42,42,0
0,42,22,17
0,40,75,22
0,42,75,0
0,72,72,40
0,60,46,0
0,76,46,0
0,79,46,0
0,42,44,0
0,42,22,12
0,40,54,3
0,55,48,0
0,42,75,0
0,71,68,15
0,76,46,0
0,79,46,0
0,36,40,11
0,35,44,0
0,42,59,0
0,46,23,4
0,38,62,1
0,78,36,0
0,69,64,0
0,50,50,0
0,78,47,0
0,81,39,0
0,86,37,0
0,74,46,0
0,78,46,0
0,35,68,0
0,42,75,0
0,69,29,1
0,74,27,0
0,40,10,19
0,69,60,15
0,57,50,0
0,74,46,0
0,78,46,0
0,42,40,0
0,42,20,15
0,42,75,1
0,40,10,21
0,71,52,22
0,62,64,0
0,74,46,0
0,78,46,0
0,42,42,0
0,69,60,1
0,72,46,0
0,76,46,0
0,42,22,0
0,67,60,4
0,74,46,0
0,71,46,0
0,40,75,0
0,42,75,0
0,42,44,19
0,42,22,22
0,86,52,12
0,40,62,1
0,64,62,0
0,57,36,0
0,72,46,0
0,69,46,0
0,42,75,0
0,62,64,3
0,42,46,1
0,67,54,0
0,74,46,0
0,71,46,0
0,42,58,0
0,46,23,2
0,43,54,1
0,83,38,0
0,79,35,0
0,55,46,0
0,79,27,0
0,83,39,0
0,35,68,0
0,42,75,0
0,40,10,9
0,59,37,11
0,42,40,0
0,42,20,22
0,62,64,22
0,42,75,0
0,40,10,9
0,55,42,22
0,42,42,0
0,42,22,22
0,69,68,22
0,67,76,0
0,40,75,0
0,42,75,0
0,62,56,3
0,42,44,0
0,42,22,10
0,67,52,8
0,55,46,0
0,81,37,0
0,42,75,0
0,43,54,1
0,69,52,0
0,83,47,0
0,35,42,0
0,42,54,0
0,46,23,16
0,42,52,1
0,81,36,0
0,78,38,0
0,74,31,0
0,54,62,0
0,78,22,0
0,81,37,0
0,35,68,0
0,42,75,0
0,40,10,2
0,57,52,5
0,42,40,0
0,42,20,3
0,62,68,9
0,42,75,0
0,40,10,4
0,54,48,1
0,42,42,0
0,42,22,16
0,69,68,4
0,66,68,0
0,40,75,0
0,42,75,0
0,62,56,21
0,42,44,0
0,42,22,14
0,38,62,1
0,67,54,0
0,57,58,0
0,42,73,0
0,62,46,40
0,42,58,0
0,46,23,1
0,36,56,2
0,76,36,0
0,79,33,0
0,72,46,0
0,52,44,0
0,76,32,0
0,79,26,0
0,35,68,0
0,42,75,0
0,40,10,10
0,55,40,22
0,42,40,0
0,42,20,22
0,60,54,5
0,42,75,0
0,40,10,19
0,52,42,2
0,42,42,0
0,42,22,5
0,69,76,2
0,64,80,0
0,40,75,0
0,42,75,0
0,60,58,3
0,42,44,0
0,42,22,9
0,40,50,3
0,67,58,0
0,52,50,0
0,42,75,0
0,36,39,4
0,35,44,0
0,42,59,0
0,46,23,22
0,38,54,2
0,78,37,0
0,74,38,0
0,69,52,0
0,54,52,0
0,86,35,0
0,88,41,0
0,35,68,0
0,42,75,0
0,40,10,3
0,57,52,9
0,86,43,0
0,42,40,0
0,42,20,22
0,40,58,2
0,79,50,0
0,71,56,0
0,62,62,0
0,42,75,0
0,40,10,11
0,54,46,3
0,42,42,0
0,42,22,22
0,42,56,2
0,74,40,0
0,81,60,0
0,72,60,0
0,66,48,0
0,40,75,0
0,42,75,0
0,62,62,7
0,42,44,0
0,42,22,15
0,45,48,2
0,84,56,0
0,74,58,0
0,57,52,0
0,42,75,0
0,42,58,7
0,46,23,22
0,43,54,2
0,83,29,0
