track,note,velocity,time
1,36,97,32988
1,38,84,0
1,36,84,36
1,43,64,96
1,45,86,20
1,48,84,192
1,43,92,20
1,38,92,16
1,36,66,16
1,38,88,96
1,41,97,36
1,43,92,20
1,41,102,0
1,36,97,16
1,38,72,16
1,36,80,28
1,43,88,96
1,45,92,12
1,48,80,44
1,50,102,32
1,43,88,192
1,41,88,4
1,34,92,16
1,26,88,104
1,33,72,136
1,31,80,176
1,31,50,184
1,31,80,56
1,26,76,268
1,38,66,140
1,36,66,12
1,36,62,100
1,35,66,4
1,33,64,28
1,31,72,192
1,31,62,128
1,31,58,80
1,31,84,76
1,33,84,96
1,35,68,180
1,36,62,12
1,38,84,192
1,36,54,148
1,36,80,60
1,31,80,196
1,31,54,276
1,31,80,96
1,38,76,36
1,45,56,576
1,36,76,36
1,36,68,220
1,34,88,192
1,33,66,1332
1,34,66,172
1,35,76,176
1,35,60,268
1,35,66,88
1,28,80,300
1,28,68,188
1,40,68,12
1,38,68,8
1,40,68,8
1,33,64,104
1,33,66,188
1,33,66,108
1,33,68,188
1,33,56,164
1,33,80,116
1,40,64,576
1,42,50,12
1,35,64,52
1,35,56,132
1,35,64,116
1,40,54,20
1,28,76,16
1,28,66,188
1,28,80,104
1,33,76,184
1,33,80,248
1,33,68,120
1,40,68,576
1,42,54,36
1,33,84,40
1,33,58,124
1,33,62,100
1,35,60,576
1,37,68,16
1,34,72,16
1,36,76,120
1,33,68,124
1,38,68,12
1,31,66,128
1,36,88,576
1,26,66,40
1,38,60,36
1,38,76,116
1,36,64,12
1,33,62,0
1,26,54,192
1,33,56,144
1,38,68,12
1,36,64,192
1,34,76,188
1,36,88,36
1,33,76,268
1,38,80,8
1,31,64,44
1,36,84,576
1,31,66,340
1,31,68,60
1,31,68,60
1,31,84,72
1,26,84,584
1,36,76,184
1,31,60,224
1,31,64,168
1,31,64,92
1,29,62,44
1,28,60,96
1,26,76,40
1,28,62,176
1,29,58,4
1,36,68,12
1,38,72,56
1,31,66,56
1,31,64,48
1,31,64,208
1,31,68,80
1,31,64,64
1,31,52,220
1,26,72,8
1,31,58,40
1,33,76,48
1,36,80,116
1,31,72,56
1,31,62,104
1,31,62,104
1,38,72,100
1,36,80,88
1,34,88,92
1,26,76,108
1,36,54,140
1,36,68,60
1,33,68,384
1,31,66,0
1,31,60,256
1,31,80,68
1,43,66,28
1,41,64,12
1,38,66,120
1,40,64,20
1,41,60,24
1,36,66,28
1,31,58,172
1,33,56,192
1,31,76,132
1,33,68,8
1,31,84,44
1,31,68,96
1,29,64,12
1,28,64,16
1,26,66,24
1,36,60,96
1,36,80,72
1,35,64,20
1,33,66,4
1,31,68,24
1,31,62,196
1,31,66,92
1,26,56,24
1,31,68,28
1,26,64,12
1,29,66,4
1,28,66,192
1,26,76,180
1,41,80,8
1,38,64,24
1,36,68,192
1,34,80,240
1,35,76,20
1,35,62,248
1,35,80,112
1,28,76,316
1,28,60,188
1,28,80,112
1,28,76,180
1,33,84,184
1,33,72,256
1,33,84,92
1,33,60,232
1,28,68,12
1,30,92,96
1,33,76,72
1,40,64,268
1,33,76,136
1,33,66,32
1,33,84,52
1,30,80,28
1,35,72,36
1,35,66,128
1,35,88,116
1,28,84,316
1,28,64,172
1,28,80,120
1,33,84,264
1,33,64,220
1,33,80,112
1,40,68,144
1,47,80,132
1,47,66,12
1,45,66,192
1,42,84,168
1,40,80,0
1,37,76,40
1,33,72,96
1,34,97,60
1,36,84,104
1,33,80,216
1,38,66,92
1,31,84,212
1,36,88,200
1,38,80,68
1,38,66,76
1,38,80,36
1,38,84,108
1,38,88,80
1,33,88,176
1,34,68,108
1,38,76,192
1,41,80,16
1,36,76,8
1,40,80,44
1,33,84,68
1,33,84,72
1,34,76,88
1,34,62,116
1,33,76,28
1,31,80,192
1,36,84,128
1,36,80,88
1,31,88,228
1,31,80,92
1,31,92,80
1,31,88,96
1,38,88,532
1,36,84,228
1,31,80,288
1,31,80,48
1,31,62,116
1,31,66,112
1,41,88,84
1,41,97,8
1,38,88,68
1,40,76,56
1,41,68,44
1,36,88,32
1,36,58,144
1,38,68,96
1,41,72,80
1,31,76,84
1,31,68,104
1,31,68,28
1,43,92,12
1,31,84,20
1,31,68,20
1,31,56,24
1,31,84,40
1,33,62,28
1,35,68,192
1,36,80,160
1,38,76,16
1,38,84,172
1,36,84,40
1,36,64,160
1,31,66,36
1,31,76,148
1,31,80,100
1,43,68,480
1,41,80,72
1,40,84,76
1,38,80,20
1,36,76,72
1,36,80,60
1,34,92,88
1,38,97,240
1,36,84,172
1,31,84,112
1,31,72,228
1,31,88,108
1,31,80,152
1,38,97,48
1,36,58,132
1,36,97,76
1,31,72,100
1,31,84,100
1,38,88,576
1,41,76,4
1,31,88,16
1,43,88,4
1,43,88,92
1,41,80,192
1,40,84,8
1,38,102,0
1,36,88,116
1,31,84,128
1,38,97,48
1,38,84,96
1,41,88,96
1,43,72,4
1,38,80,96
1,35,68,168
1,38,97,24
1,36,68,168
1,34,88,768
1,45,58,12
1,41,36,44
1,34,44,576
1,33,84,9648
1,35,84,20
1,36,84,12
1,35,97,192
1,33,84,12
1,31,88,16
1,30,97,92
1,33,72,44
1,38,80,0
1,33,76,768
1,35,80,88
1,36,80,68
1,35,88,184
1,33,88,16
1,31,80,16
1,28,80,16
1,26,84,20
1,26,88,144
1,26,66,188
1,26,88,156
1,26,64,240
1,26,80,92
1,36,68,72
1,31,88,20
1,26,88,116
1,38,84,76
1,26,92,64
1,38,84,88
1,36,88,116
1,35,80,192
1,33,76,4
1,31,80,20
1,31,64,124
1,26,76,40
1,30,88,384
1,33,84,16
1,35,80,96
1,38,72,24
1,36,64,136
1,35,68,192
1,33,72,128
1,31,64,20
1,26,80,960
1,26,66,88
1,38,80,52
1,26,88,192
1,30,92,160
1,33,76,4
1,38,80,192
1,36,64,152
1,35,80,180
1,33,84,152
1,31,68,28
1,31,80,96
1,26,88,8
1,33,64,128
1,35,66,96
1,38,80,8
1,33,72,136
1,31,68,24
1,31,88,52
1,26,88,212
1,26,68,188
1,26,84,160
1,36,92,352
1,35,88,40
1,33,60,768
1,26,84,184
1,26,72,40
1,33,88,4
1,35,66,20
1,38,76,192
1,38,72,64
1,38,80,72
1,38,68,72
1,36,80,80
1,35,72,192
1,33,84,0
1,31,58,28
1,31,88,60
1,31,68,52
1,31,92,60
1,31,64,68
1,38,80,40
1,38,64,44
1,38,84,84
1,38,64,64
1,38,97,68
1,38,66,44
1,38,97,80
1,38,64,68
1,38,102,92
1,40,68,40
1,41,80,56
1,36,88,28
1,36,84,76
1,31,76,32
1,31,66,224
1,31,88,104
1,38,97,128
1,40,66,8
1,41,64,48
1,36,80,24
1,36,64,92
1,31,76,32
1,31,64,140
1,31,88,140
1,41,88,52
1,41,88,8
1,38,72,0
1,36,76,172
1,31,76,64
1,31,84,56
1,31,84,132
1,31,68,40
1,38,88,116
1,36,92,112
1,36,39,8
1,31,72,52
1,31,60,52
1,33,66,192
1,35,64,188
1,38,64,48
1,43,64,44
1,41,68,192
1,38,56,12
1,36,64,192
1,38,66,4
1,36,80,120
1,36,64,56
1,31,64,48
1,31,76,28
1,31,72,56
1,31,72,96
1,31,88,56
1,33,60,192
1,36,76,32
1,38,80,40
1,36,84,124
1,31,84,56
1,31,66,56
1,31,54,72
1,41,84,288
1,23,97,32
1,24,68,192
1,25,80,8
1,26,97,192
1,36,84,100
1,36,84,40
1,31,64,40
1,31,88,72
1,31,84,140
1,31,56,72
1,35,72,192
1,36,68,4
1,37,56,40
1,38,76,96
1,26,64,28
1,38,84,384
1,38,80,72
1,36,72,4
1,36,72,56
1,36,80,56
1,31,88,100
1,31,68,52
1,31,72,64
1,31,84,60
1,31,92,76
1,23,88,28
1,24,60,192
1,25,92,0
1,26,72,4
1,38,84,28
1,36,88,192
1,36,56,84
1,31,72,28
1,31,76,92
1,31,80,72
1,47,68,96
1,45,64,0
1,41,68,96
1,38,72,16
1,36,68,96
1,35,66,28
1,31,88,16
1,26,84,96
1,38,72,20
1,36,97,192
1,36,80,100
1,31,72,44
1,31,76,108
1,35,84,96
1,23,76,32
1,24,127,0
1,24,72,172
1,25,88,108
1,26,88,4
1,38,76,48
1,36,88,28
1,36,66,176
1,31,88,48
1,31,62,64
1,31,80,52
1,31,66,52
1,31,84,44
1,31,64,40
1,31,84,76
1,29,80,52
1,26,88,192
1,26,80,68
1,38,88,20
1,38,72,72
1,36,84,192
1,36,64,64
1,36,66,0
1,38,37,0
1,36,72,52
1,31,72,32
1,31,66,48
1,31,72,32
1,31,80,64
1,31,80,64
1,31,76,92
1,33,84,20
1,36,84,96
1,38,76,92
2,65,92,37768
2,46,102,0
2,62,102,0
2,58,112,0
2,60,88,240
2,69,84,0
2,65,88,0
2,64,92,220
2,60,80,0
2,67,92,0
2,53,42,164
2,53,42,56
2,65,97,56
2,67,88,0
2,43,68,0
2,57,88,0
2,60,84,0
2,53,97,224
2,67,80,0
2,65,88,0
2,60,84,0
2,57,80,0
2,57,29,0
2,53,66,32
2,65,92,48
2,60,92,0
2,57,84,0
2,67,88,0
2,53,80,96
2,60,66,52
2,64,84,0
2,55,72,0
2,45,58,96
2,55,60,20
2,38,80,0
2,62,66,0
2,60,84,332
2,64,92,0
2,45,76,0
2,55,84,0
2,55,16,64
2,64,72,84
2,60,68,0
2,55,68,0
2,43,84,124
2,62,76,96
2,55,102,32
2,67,84,32
2,74,92,0
2,68,112,0
2,69,80,24
2,74,84,16
2,72,84,0
2,71,88,0
2,67,88,0
2,69,38,0
2,55,80,4
2,69,97,60
2,65,88,0
2,71,62,0
2,74,84,0
2,55,92,32
2,62,97,56
2,62,97,136
2,55,84,36
2,60,102,72
2,61,62,16
2,62,102,0
2,45,88,84
2,38,84,52
2,45,92,380
2,60,92,0
2,55,92,0
2,55,22,88
2,43,66,168
2,62,88,0
2,60,92,0
2,55,76,0
2,60,92,264
2,67,72,0
2,53,92,0
2,57,80,0
2,65,80,0
2,43,66,0
2,53,68,12
2,60,102,48
2,57,97,0
2,65,107,0
2,67,102,0
2,55,72,56
2,60,58,0
2,64,80,0
2,50,52,40
2,38,66,0
2,62,84,0
2,57,80,0
2,50,88,76
2,48,97,136
2,64,97,0
2,60,92,0
2,55,88,0
2,58,88,104
2,62,88,0
2,53,88,0
2,46,97,0
2,66,66,220
2,57,84,0
2,62,84,0
2,47,80,0
2,47,72,232
2,66,72,0
2,62,88,0
2,57,76,0
2,47,58,20
2,62,80,140
2,66,68,0
2,52,80,0
2,57,68,0
2,62,80,220
2,57,62,0
2,52,80,0
2,52,56,60
2,45,66,120
2,57,68,0
2,64,68,0
2,61,88,0
2,57,58,164
2,45,64,0
2,64,62,0
2,61,72,0
2,45,68,24
2,52,72,4
2,61,20,48
2,64,76,0
2,60,80,0
2,52,64,4
2,64,84,60
2,59,97,0
2,52,84,12
2,57,97,40
2,64,76,0
2,52,80,20
2,54,92,44
2,52,80,32
2,49,92,24
2,64,88,12
2,61,107,0
2,57,80,0
2,42,76,0
2,62,88,48
2,57,68,0
2,47,76,0
2,47,68,168
2,57,76,0
2,62,84,0
2,47,31,44
2,52,80,80
2,62,80,0
2,57,66,0
2,62,66,44
2,57,60,0
2,62,84,232
2,64,72,0
2,57,68,0
2,52,62,0
2,40,68,312
2,64,62,96
2,57,68,0
2,62,66,0
2,52,84,104
2,61,88,104
2,64,72,0
2,45,76,0
2,57,76,0
2,61,88,356
2,64,72,0
2,45,64,0
2,57,62,0
2,52,42,4
2,64,72,136
2,52,42,0
2,57,66,0
2,61,92,0
2,45,62,0
2,64,54,288
2,61,84,0
2,52,64,0
2,57,68,0
2,45,64,0
2,67,92,11096
2,50,102,0
2,62,102,0
2,43,92,0
2,59,97,0
2,43,80,64
2,59,76,0
2,62,88,0
2,50,84,0
2,67,76,0
2,62,84,64
2,43,80,0
2,59,76,0
2,67,84,0
2,50,84,0
2,43,76,56
2,67,80,0
2,59,92,0
2,50,84,0
2,62,102,0
2,57,72,628
2,62,80,0
2,65,80,0
2,55,84,304
2,64,84,0
2,60,80,0
2,50,64,72
2,43,58,32
2,65,72,0
2,57,76,0
2,60,84,0
2,67,76,0
2,60,72,332
2,65,68,0
2,43,64,0
2,57,64,0
2,53,76,80
2,62,88,152
2,55,52,0
2,60,80,0
2,64,66,0
2,53,76,72
2,50,80,0
2,60,68,88
2,57,64,0
2,62,76,0
2,65,72,0
2,64,92,308
2,60,88,0
2,55,80,0
2,50,76,0
2,50,46,88
2,50,48,200
2,55,66,84
2,64,84,0
2,50,62,0
2,60,72,0
2,43,76,36
2,62,80,96
2,53,97,40
2,62,88,44
2,74,84,0
2,74,84,112
2,62,88,0
2,53,64,32
2,62,88,52
2,74,84,0
2,53,102,104
2,72,97,96
2,68,107,0
2,74,88,0
2,67,88,0
2,69,88,12
2,65,64,52
2,67,68,0
2,62,84,16
2,50,76,192
2,50,68,4
2,64,92,316
2,55,80,0
2,60,88,0
2,50,38,0
2,43,58,96
2,67,72,0
2,65,72,0
2,57,68,0
2,60,84,0
2,53,68,340
2,43,60,0
2,60,76,0
2,65,80,0
2,67,64,0
2,57,72,0
2,53,58,20
2,53,80,88
2,62,92,168
2,50,92,0
2,57,76,0
2,65,68,0
2,50,58,36
2,55,88,92
2,48,64,0
2,64,97,0
2,60,88,0
2,55,24,36
2,60,56,112
2,58,92,116
2,46,102,0
2,62,88,0
2,53,80,0
2,60,84,268
2,65,76,0
2,57,84,0
2,38,60,0
2,50,80,0
2,65,80,24
2,57,80,0
2,60,80,0
2,50,84,136
2,60,84,36
2,64,97,0
2,55,80,0
2,50,58,108
2,43,72,156
2,62,68,0
2,60,68,0
2,67,80,0
2,57,64,0
2,67,64,72
2,60,66,0
2,62,68,0
2,57,72,0
2,55,62,156
2,62,66,60
2,67,68,0
2,59,84,0
2,53,97,28
2,61,112,36
2,62,66,0
2,57,80,0
2,65,97,0
2,64,84,20
2,55,84,0
2,60,76,0
2,50,68,20
2,38,54,92
2,65,76,0
2,60,68,0
2,57,54,0
2,57,72,76
2,65,68,0
2,60,68,0
2,55,76,236
2,60,72,0
2,64,88,0
2,60,66,60
2,55,54,0
2,64,68,0
2,50,58,192
2,60,62,72
2,64,76,0
2,43,88,136
2,62,88,96
2,55,92,20
2,68,97,44
2,69,102,0
2,74,88,0
2,72,92,72
2,65,52,0
2,67,84,0
2,74,88,0
2,65,58,4
2,55,31,16
2,74,84,60
2,67,102,0
2,68,31,96
2,74,88,16
2,67,88,0
2,65,84,60
2,62,88,44
2,60,62,96
2,50,92,180
2,60,60,276
2,57,72,0
2,65,80,0
2,57,80,80
2,60,92,0
2,64,92,0
2,55,76,0
2,55,56,72
2,60,84,108
2,50,54,0
2,43,68,0
2,57,76,0
2,67,88,0
2,43,72,308
2,67,84,0
2,60,84,0
2,57,84,0
2,53,68,768
2,65,84,96
2,62,97,0
2,50,84,0
2,57,68,0
2,50,56,36
2,60,88,120
2,55,76,0
2,64,92,0
2,48,97,0
2,62,92,128
2,53,80,0
2,58,84,0
2,46,92,0
2,66,68,252
2,57,68,0
2,62,80,0
2,47,68,0
2,66,60,148
2,57,60,0
2,62,66,0
2,47,64,0
2,52,60,112
2,66,68,128
2,40,68,0
2,62,76,0
2,57,64,0
2,59,80,220
2,56,72,0
2,40,68,0
2,52,66,0
2,64,66,0
2,64,62,152
2,61,64,0
2,57,62,0
2,52,66,0
2,61,76,304
2,64,66,0
2,57,68,0
2,52,62,0
2,59,88,0
2,45,88,12
2,52,76,192
2,57,64,0
2,64,76,20
2,60,92,0
2,61,34,96
2,57,92,36
2,57,92,200
2,52,30,96
2,52,88,216
2,42,76,0
2,61,72,0
2,64,88,0
2,66,84,0
2,66,72,4
2,57,72,0
2,62,80,0
2,47,84,0
2,57,84,260
2,47,88,0
2,66,68,0
2,62,76,0
2,47,27,24
2,57,68,100
2,62,76,0
2,66,84,0
2,40,66,0
2,40,68,280
