track,note,velocity,time
1,31,65,57
1,31,0,26
1,33,72,1
1,36,73,29
1,33,0,3
1,38,78,29
1,36,0,7
1,38,98,24
1,41,83,2
1,38,0,3
1,36,98,52
1,36,96,5
1,41,0,0
1,38,0,3
1,36,0,46
1,36,87,9
1,35,90,0
1,38,107,3
1,36,0,0
1,35,0,23
1,36,0,11
1,38,0,22
1,38,118,61
1,38,96,0
1,38,0,12
1,38,115,18
1,38,0,9
1,38,107,21
1,38,0,5
1,38,0,7
1,38,126,18
1,38,0,12
1,59,90,18
1,55,89,0
1,62,83,0
1,67,52,0
1,71,62,0
1,49,119,0
1,35,83,0
1,36,98,0
1,31,87,4
1,36,0,16
1,35,0,5
1,31,0,40
1,31,75,29
1,49,0,19
1,71,46,7
1,35,76,0
1,38,100,0
1,31,0,3
1,55,0,6
1,35,90,1
1,59,0,5
1,62,0,3
1,71,0,11
1,71,0,14
1,67,0,8
1,38,0,5
1,72,59,4
1,36,73,1
1,36,81,1
1,35,0,2
1,35,0,4
1,72,0,13
1,74,76,39
1,57,70,0
1,62,70,0
1,54,62,0
1,66,48,0
1,69,49,0
1,74,48,0
1,36,107,0
1,35,73,0
1,38,83,1
1,36,0,3
1,38,96,2
1,36,0,14
1,35,0,8
1,36,0,20
1,74,0,42
1,57,0,20
1,54,0,5
1,74,76,5
1,38,107,0
1,62,0,1
1,31,87,5
1,69,0,9
1,74,0,12
1,74,0,2
1,38,0,4
1,66,0,7
1,38,0,19
1,69,60,1
1,74,62,0
1,69,0,1
1,38,0,4
1,31,0,50
1,76,70,5
1,55,65,0
1,60,82,0
1,64,65,0
1,72,63,0
1,67,49,0
1,76,66,0
1,35,87,0
1,36,102,0
1,36,100,4
1,74,0,11
1,35,0,14
1,76,0,37
1,76,60,24
1,36,0,20
1,38,102,10
1,31,83,4
1,76,0,7
1,36,0,8
1,31,0,3
1,38,0,32
1,31,89,45
1,31,0,20
1,36,96,1
1,35,89,0
1,36,109,11
1,36,0,4
1,35,0,10
1,36,104,35
1,35,73,10
1,36,0,8
1,60,0,40
1,38,100,2
1,64,0,4
1,33,94,5
1,35,0,3
1,36,0,2
1,55,0,2
1,38,0,17
1,76,0,17
1,31,92,12
1,72,0,2
1,67,0,19
1,33,0,2
1,31,0,0
1,55,73,35
1,59,85,0
1,62,81,0
1,67,48,0
1,71,66,0
1,74,72,0
1,35,92,0
1,36,104,0
1,31,94,2
1,35,0,18
1,67,53,40
1,31,0,12
1,36,0,7
1,31,78,16
1,71,47,25
1,71,77,0
1,38,104,0
1,35,87,7
1,31,0,5
1,59,0,0
1,55,0,3
1,62,0,3
1,67,0,17
1,38,0,12
1,71,0,11
1,72,75,2
1,35,0,3
1,71,0,0
1,36,78,3
1,67,0,2
1,74,0,12
1,71,0,11
1,74,94,29
1,54,61,0
1,57,83,0
1,62,74,0
1,66,49,0
1,69,60,0
1,74,50,0
1,35,96,0
1,36,94,0
1,38,96,5
1,72,0,6
1,36,0,3
1,35,0,3
1,36,0,34
1,74,0,39
1,57,0,17
1,54,0,9
1,62,0,2
1,38,84,2
1,69,0,27
1,38,0,1
1,38,0,3
1,74,0,12
1,66,0,13
1,38,94,3
1,74,75,1
1,38,0,55
1,76,74,5
1,55,79,0
1,60,87,0
1,64,70,0
1,67,46,0
1,72,64,0
1,76,69,0
1,35,87,0
1,36,104,0
1,36,100,4
1,74,0,14
1,35,0,5
1,36,0,80
1,38,90,17
1,36,0,32
1,38,0,1
1,36,72,28
1,36,0,17
1,36,77,42
1,35,100,0
1,36,96,0
1,36,115,4
1,36,0,5
1,35,0,8
1,36,0,7
1,36,104,36
1,76,0,30
1,38,94,30
1,60,0,7
1,64,0,2
1,36,0,16
1,36,0,7
1,38,0,2
1,55,0,1
1,36,104,29
1,76,0,2
1,72,0,6
1,67,0,12
1,55,82,36
1,59,96,0
1,62,84,0
1,74,67,0
1,67,54,0
1,71,70,0
1,49,113,0
1,35,90,0
1,36,102,0
1,31,92,8
1,36,0,12
1,35,0,6
1,67,52,34
1,36,0,8
1,49,0,9
1,31,0,7
1,31,90,17
1,71,51,19
1,36,90,0
1,38,115,0
1,59,0,1
1,62,0,6
1,55,0,0
1,35,93,3
1,31,0,3
1,36,0,10
1,71,0,28
1,38,0,5
1,67,0,3
1,72,73,1
1,36,92,3
1,35,0,0
1,71,0,7
1,67,0,2
1,74,0,5
1,74,83,43
1,54,71,0
1,57,81,0
1,62,77,0
1,66,51,0
1,69,57,0
1,74,67,0
1,35,94,0
1,36,102,0
1,38,89,2
1,72,0,9
1,36,0,1
1,36,0,2
1,35,0,14
1,74,0,41
1,69,0,1
1,66,0,5
1,66,53,15
1,74,73,0
1,69,66,0
1,74,0,0
1,57,0,14
1,69,0,3
1,66,0,4
1,74,0,1
1,54,0,1
1,62,0,5
1,74,79,2
1,31,94,0
1,36,96,0
1,36,102,0
1,38,107,0
1,36,0,9
1,74,0,16
1,66,63,5
1,74,77,0
1,69,61,0
1,36,0,1
1,69,0,11
1,66,0,9
1,74,0,4
1,38,0,1
1,38,0,0
1,74,74,4
1,76,71,60
1,60,90,0
1,55,81,0
1,64,73,0
1,67,42,0
1,72,60,0
1,76,62,0
1,35,100,0
1,36,102,0
1,36,102,3
1,31,0,0
1,74,0,7
1,35,0,10
1,76,0,42
1,36,0,23
1,76,73,5
1,38,107,30
1,31,73,12
1,76,0,7
1,31,0,4
1,36,0,3
1,38,0,41
1,31,78,31
1,36,73,22
1,35,94,0
1,36,76,0
1,31,0,1
1,36,102,6
1,36,0,5
1,35,0,11
1,35,80,40
1,36,0,6
1,64,0,49
1,60,0,1
1,38,107,1
1,33,76,2
1,35,0,3
1,55,0,16
1,36,0,6
1,72,0,27
1,76,0,1
1,31,89,9
1,38,0,0
1,67,0,12
1,33,0,2
1,31,0,0
1,67,63,42
1,55,86,0
1,59,85,0
1,62,84,0
1,67,60,0
1,71,69,0
1,74,68,0
1,36,96,0
1,35,84,0
1,31,107,1
1,35,0,22
1,71,63,37
1,31,0,11
1,67,0,3
1,74,0,0
1,71,0,0
1,67,0,0
1,31,81,15
1,71,70,1
1,67,53,0
1,74,70,0
1,67,0,8
1,74,0,5
1,71,0,1
1,35,90,13
1,72,71,3
1,38,98,0
1,31,0,3
1,59,0,4
1,55,0,2
1,62,0,5
1,71,0,5
1,74,86,11
1,67,69,0
1,71,79,0
1,71,0,21
1,67,0,0
1,74,0,4
1,36,89,1
1,35,0,3
1,74,77,1
1,38,0,5
1,72,0,1
1,36,0,4
1,54,70,50
1,57,75,0
1,62,76,0
1,66,48,0
1,74,66,0
1,69,72,0
1,36,87,0
1,35,90,0
1,38,94,1
1,36,0,14
1,35,0,11
1,36,0,45
1,57,0,36
1,74,0,0
1,54,0,12
1,74,69,1
1,36,92,0
1,38,96,0
1,62,0,1
1,69,0,14
1,66,0,4
1,74,0,0
1,38,0,2
1,38,102,37
1,76,74,2
1,66,53,0
1,69,63,0
1,74,71,0
1,74,0,2
1,38,0,3
1,36,0,6
1,74,0,2
1,66,0,0
1,69,0,1
1,60,92,46
1,64,75,0
1,55,94,0
1,72,70,0
1,76,63,0
1,67,52,0
1,35,83,0
1,36,94,0
1,36,109,3
1,38,0,3
1,35,0,19
1,36,0,41
1,36,100,54
1,38,100,0
1,36,0,28
1,38,0,28
1,36,0,4
1,36,100,3
1,36,0,17
1,35,73,40
1,36,104,0
1,38,109,1
1,36,112,2
1,38,0,16
1,35,0,9
1,64,0,21
1,60,0,3
1,55,0,2
1,36,0,3
1,38,107,40
1,38,0,18
1,38,112,5
1,36,104,0
1,76,0,10
1,38,0,4
1,72,0,1
1,36,0,8
1,67,0,0
1,38,89,7
1,38,0,20
1,36,0,7
1,72,65,3
1,38,122,0
1,76,0,0
1,36,94,3
1,38,0,14
1,36,0,8
1,38,126,5
1,38,0,26
1,72,0,10
1,36,109,900
1,36,0,29
1,54,96,1
1,54,0,3
1,54,96,12
1,54,0,3
1,37,127,12
1,60,127,0
1,37,0,14
1,60,0,1
1,36,98,15
1,54,100,0
1,54,0,5
1,36,0,4
1,54,100,6
1,54,0,5
1,36,112,10
1,36,0,23
1,54,85,7
1,54,0,10
1,54,85,5
1,54,0,10
1,37,127,5
1,60,127,0
1,60,0,16
1,37,0,1
1,54,85,13
1,54,0,10
1,54,85,5
1,54,0,10
1,36,94,5
1,36,0,11
1,36,112,19
1,54,85,0
1,54,0,10
1,54,85,5
1,36,0,9
1,54,0,1
1,37,127,5
1,60,127,0
1,60,0,15
1,37,0,4
1,36,104,11
1,54,104,0
1,54,0,4
1,36,0,5
1,54,87,6
1,36,118,15
1,54,0,2
1,36,0,25
1,54,108,3
1,54,0,5
1,54,100,10
1,54,0,13
1,37,127,2
1,60,127,0
1,60,0,16
1,37,0,1
1,54,108,13
1,54,0,5
1,54,100,10
1,38,109,15
1,36,109,0
1,54,0,1
1,38,0,7
1,36,0,21
1,38,109,1
1,54,108,0
1,54,0,5
1,38,0,5
1,54,96,5
1,36,112,15
1,37,127,0
1,60,127,0
1,54,0,3
1,36,0,7
1,37,0,4
1,60,0,1
1,36,118,15
1,36,98,0
1,54,93,0
1,54,0,5
1,36,0,4
1,54,93,6
1,36,0,1
1,54,0,12
1,36,112,2
1,74,100,0
1,62,89,0
1,62,0,5
1,74,0,2
1,62,87,8
1,74,84,0
1,62,0,7
1,36,0,1
1,74,0,1
1,54,96,6
1,54,0,2
1,54,90,13
1,62,104,0
1,74,107,0
1,74,0,6
1,62,0,2
1,54,0,6
1,37,127,1
1,60,127,0
1,60,0,16
1,37,0,1
1,54,108,13
1,54,0,7
1,54,78,8
1,54,0,14
1,36,94,1
1,36,0,11
1,36,112,19
1,54,104,0
1,54,0,7
1,54,82,8
1,36,0,9
1,37,127,6
1,60,127,0
1,54,0,2
1,60,0,13
1,37,0,4
1,36,104,11
1,54,113,0
1,54,0,5
1,36,0,4
1,54,87,6
1,36,118,15
1,74,102,0
1,62,98,0
1,54,0,1
1,62,0,4
1,74,0,2
1,74,79,8
1,62,87,0
1,62,0,6
1,74,0,4
1,36,0,2
1,54,108,3
1,54,0,5
1,54,93,10
1,74,104,0
1,62,104,0
1,62,0,8
1,74,0,1
1,37,127,6
1,60,127,0
1,54,0,4
1,60,0,12
1,37,0,1
1,54,108,13
1,54,0,5
1,54,93,10
1,38,122,15
1,36,109,0
1,54,0,6
1,38,0,3
1,36,0,20
1,38,109,1
1,36,69,0
1,54,113,0
1,36,0,4
1,54,0,1
1,38,0,3
1,54,70,7
1,54,0,14
1,36,112,1
1,37,127,0
1,60,127,0
1,36,0,8
1,37,0,6
1,60,0,1
1,36,118,15
1,36,98,0
1,54,104,0
1,54,0,5
1,36,0,4
1,36,0,2
1,54,96,4
1,36,112,15
1,74,98,0
1,62,92,0
1,54,0,1
1,62,0,6
1,74,0,2
1,62,87,6
1,74,81,0
1,74,0,8
1,36,0,0
1,62,0,1
1,54,108,6
1,54,0,7
1,54,73,8
1,62,104,0
1,74,102,0
1,74,0,10
1,62,0,0
1,54,0,4
1,37,127,1
1,60,127,0
1,60,0,16
1,37,0,1
1,54,113,13
1,54,0,7
1,54,80,8
1,54,0,9
1,36,94,6
1,36,0,11
1,36,112,19
1,54,113,0
1,54,0,7
1,54,82,8
1,36,0,9
1,54,0,2
1,37,127,0
1,60,127,0
1,60,0,15
1,37,0,4
1,36,104,11
1,54,113,0
1,54,0,4
1,36,0,5
1,54,82,6
1,36,118,15
1,62,98,0
1,74,98,0
1,54,0,3
1,62,0,3
1,74,0,1
1,74,81,8
1,62,92,0
1,62,0,8
1,74,0,2
1,36,0,2
1,54,108,3
1,54,0,2
1,54,96,13
1,62,100,0
1,74,107,0
1,74,0,9
1,62,0,1
1,37,127,5
1,60,127,0
1,54,0,1
1,60,0,15
1,37,0,1
1,54,113,13
1,54,0,4
1,54,93,11
1,38,96,15
1,38,92,0
1,36,109,0
1,54,0,1
1,36,0,28
1,54,100,1
1,54,0,4
1,54,87,11
1,54,0,14
1,37,127,1
1,60,127,0
1,37,0,14
1,60,0,1
1,36,98,15
1,54,108,0
1,54,0,7
1,36,0,2
1,54,96,6
1,38,0,13
1,31,87,2
1,31,89,0
1,36,112,0
1,74,96,0
1,62,90,0
1,54,0,1
1,38,0,0
1,62,0,4
1,74,0,2
1,62,86,8
1,74,82,0
1,74,0,8
1,36,0,0
1,62,0,0
1,54,113,7
1,54,0,5
1,54,93,10
1,62,96,0
1,74,100,0
1,74,0,10
1,62,0,1
1,54,0,3
1,37,127,1
1,60,127,0
1,60,0,16
1,37,0,1
1,54,108,13
1,54,0,7
1,54,87,8
1,35,76,15
1,35,100,0
1,36,94,0
1,31,0,0
1,31,0,1
1,54,0,0
1,36,0,10
1,36,112,19
1,54,108,0
1,54,0,7
1,54,82,8
1,36,0,9
1,54,0,2
1,37,127,4
1,60,127,0
1,60,0,15
1,37,0,4
1,35,0,9
1,35,0,1
1,33,79,1
1,33,100,0
1,36,104,0
1,54,108,0
1,54,0,5
1,36,0,4
1,54,93,6
1,54,0,14
1,36,118,1
1,74,92,0
1,62,92,0
1,74,0,6
1,62,0,1
1,74,82,8
1,62,89,0
1,62,0,8
1,74,0,0
1,36,0,4
1,54,104,3
1,54,0,5
1,54,90,10
1,62,96,0
1,74,98,0
1,74,0,10
1,62,0,1
1,54,0,1
1,37,127,3
1,60,127,0
1,60,0,16
1,37,0,1
1,54,100,13
1,54,0,5
1,54,90,10
1,54,0,9
1,33,0,4
1,38,87,2
1,38,107,0
1,36,109,0
1,33,0,1
1,36,0,28
1,54,108,1
1,54,0,7
1,54,87,8
1,37,127,15
1,60,127,0
1,54,0,2
1,37,0,12
1,60,0,1
1,36,98,15
1,54,113,0
1,54,0,7
1,36,0,2
1,54,82,6
1,31,81,15
1,31,102,0
1,36,112,0
1,74,98,0
1,62,92,0
1,38,0,0
1,38,0,2
1,54,0,4
1,62,0,1
1,74,0,1
1,62,77,7
1,74,77,0
1,74,0,8
1,36,0,0
1,62,0,0
1,54,108,7
1,54,0,7
1,54,85,8
1,62,94,0
1,74,102,0
1,74,0,9
1,62,0,3
1,54,0,2
1,37,127,1
1,60,127,0
1,60,0,16
1,37,0,1
1,54,108,13
1,54,0,7
1,54,93,8
1,31,0,10
1,35,86,5
1,35,109,0
1,36,94,0
1,54,0,1
1,31,0,1
1,36,0,9
1,36,112,19
1,54,113,0
1,54,0,7
1,54,82,8
1,36,0,9
1,54,0,5
1,37,127,1
1,60,127,0
1,60,0,15
1,37,0,4
1,33,96,11
1,33,102,0
1,36,104,0
1,54,108,0
1,35,0,0
1,35,0,3
1,54,0,2
1,36,0,4
1,54,96,6
1,36,118,15
1,62,98,0
1,74,104,0
1,54,0,1
1,62,0,5
1,74,0,0
1,62,79,9
1,74,89,0
1,74,0,8
1,62,0,2
1,36,0,2
1,54,108,3
1,54,0,4
1,54,87,11
1,62,92,0
1,74,102,0
1,74,0,8
1,62,0,3
1,54,0,2
1,37,127,0
1,60,127,0
1,60,0,16
1,37,0,1
1,54,113,13
1,54,0,5
1,33,0,8
1,54,90,2
1,33,0,5
1,54,0,6
1,66,113,4
1,38,94,0
1,36,109,0
1,38,0,17
1,36,0,12
1,69,83,1
1,69,0,3
1,38,90,12
1,69,68,0
1,69,0,5
1,66,0,6
1,69,118,4
1,69,87,0
1,37,127,0
1,60,127,0
1,38,0,1
1,69,0,2
1,37,0,11
1,60,0,1
1,69,0,13
1,71,107,2
1,31,90,0
1,69,92,0
1,36,98,0
1,69,0,7
1,36,0,2
1,69,87,6
1,69,0,6
1,31,0,5
1,69,84,4
1,36,112,0
1,74,102,0
1,62,92,0
1,62,0,5
1,69,0,2
1,74,0,2
1,62,92,6
1,74,92,0
1,62,0,8
1,36,0,0
1,74,0,1
1,69,83,6
1,69,0,8
1,69,83,7
1,62,104,0
1,74,107,0
1,69,0,9
1,74,0,1
1,62,0,0
1,71,0,4
1,69,83,1
1,37,127,0
