track,note,velocity,time
3,71,95,0
3,71,0,28
3,73,102,0
3,73,0,28
3,74,99,0
3,74,0,26
3,76,95,0
3,74,101,0
3,76,0,1
3,74,0,52
3,73,101,0
3,73,0,35
3,74,101,0
3,74,0,78
3,74,98,0
3,74,0,25
3,74,101,0
3,74,0,139
3,76,94,0
3,76,0,35
3,76,93,0
3,76,0,31
3,76,101,0
3,71,96,24
3,76,0,9
3,73,98,0
3,71,0,3
3,73,0,26
3,71,102,0
3,71,0,24
3,73,102,0
3,73,0,23
3,74,101,0
3,74,0,25
3,76,96,0
3,76,0,71
3,74,102,0
3,74,0,58
3,73,101,0
3,73,0,48
3,74,98,0
3,74,0,86
3,73,99,0
3,73,0,20
3,74,97,0
3,74,0,138
3,78,101,0
3,76,97,0
3,78,0,2
3,76,0,54
3,71,93,16
3,73,97,0
3,71,0,6
3,73,0,360
3,74,99,0
3,74,0,30
3,76,99,0
3,76,0,25
3,77,99,0
3,77,0,61
3,77,99,0
3,77,0,37
3,76,101,0
3,76,0,142
3,74,99,0
3,74,0,31
3,72,96,0
3,72,0,21
3,72,95,0
3,72,0,69
3,74,97,0
3,74,0,27
3,67,99,0
3,68,98,0
3,67,0,15
3,68,0,9
3,67,93,0
3,65,97,0
3,67,0,7
3,65,0,47
3,77,103,0
3,77,0,48
3,77,103,0
3,77,0,24
3,77,103,0
3,77,0,50
3,76,103,0
3,76,0,67
3,74,103,0
3,74,0,47
3,72,101,0
3,72,0,45
3,74,105,0
3,74,0,120
3,74,101,0
3,74,0,27
3,76,101,0
3,76,0,24
3,77,101,0
3,77,0,61
3,77,101,0
3,77,0,44
3,76,101,0
3,76,103,0
3,76,0,48
3,76,0,0
3,74,98,0
3,74,0,32
3,72,101,0
3,74,101,0
3,74,0,5
3,72,0,19
3,72,99,0
3,72,0,67
3,74,97,0
3,74,0,37
3,67,99,0
3,67,0,96
3,65,100,0
3,65,0,96
3,74,101,0
3,74,0,31
3,77,101,0
3,77,0,30
3,81,99,0
3,81,0,35
3,79,101,0
3,79,0,48
3,77,104,0
3,76,97,0
3,77,0,11
3,76,0,34
3,74,99,0
3,74,0,19
3,81,102,0
3,81,0,24
3,80,102,0
3,81,103,1
3,80,0,13
3,81,0,47
3,80,99,0
3,81,101,2
3,80,0,8
3,81,0,66
3,78,103,0
3,79,101,0
3,78,0,18
3,79,0,54
3,77,101,0
3,77,0,80
3,77,102,0
3,77,0,26
3,79,99,0
3,79,0,23
3,80,99,0
3,81,98,0
3,80,0,3
3,81,0,32
3,81,99,0
3,81,0,61
3,77,94,0
3,79,101,0
3,77,0,6
3,79,0,83
3,77,102,0
3,77,0,65
3,76,95,0
3,76,0,42
3,77,101,0
3,76,96,0
3,77,0,2
3,76,0,22
3,74,97,0
3,81,102,0
3,74,0,18
3,81,0,6
3,79,101,0
3,80,101,0
3,81,101,0
3,80,0,13
3,79,0,7
3,81,0,45
3,80,101,0
3,81,102,0
3,80,0,12
3,81,0,59
3,78,102,0
3,79,103,0
3,78,0,15
3,79,0,49
3,77,102,0
3,77,0,76
3,80,99,0
3,81,101,0
3,80,0,10
3,81,0,35
3,79,102,0
3,77,104,0
3,79,0,6
3,77,0,35
3,72,102,0
3,74,101,0
3,72,0,26
3,74,0,320
3,71,95,0
3,71,0,28
3,73,102,0
3,73,0,28
3,74,99,0
3,74,0,26
3,76,95,0
3,74,101,0
3,76,0,1
3,74,0,52
3,73,101,0
3,73,0,35
3,74,101,0
3,74,0,78
3,74,98,0
3,74,0,25
3,74,101,0
3,74,0,139
3,76,94,0
3,76,0,35
3,76,93,13
3,76,0,31
3,76,101,0
3,71,96,24
3,76,0,9
3,73,98,0
3,71,0,3
3,73,0,26
3,71,102,0
3,71,0,24
3,73,102,0
3,73,0,23
3,74,101,0
3,74,0,25
3,76,96,0
3,76,0,71
3,74,102,0
3,74,0,58
3,73,101,0
3,73,0,48
3,74,98,0
3,74,0,86
3,73,99,0
3,73,0,20
3,74,97,0
3,74,0,138
3,78,101,0
3,76,97,0
3,78,0,2
3,76,0,54
3,71,93,16
3,73,97,0
3,71,0,6
3,73,0,360
3,74,99,0
3,74,0,30
3,76,99,0
3,76,0,25
3,77,99,0
3,77,0,61
3,77,99,0
3,77,0,37
3,76,101,0
3,76,0,142
3,74,99,0
3,74,0,31
3,72,96,0
3,72,0,21
3,72,95,0
3,72,0,69
3,74,97,0
3,74,0,27
3,67,99,0
3,68,98,0
3,67,0,15
3,68,0,9
3,67,93,0
3,65,97,0
3,67,0,7
3,65,0,47
3,77,103,0
3,77,0,48
3,77,103,0
3,77,0,50
3,76,103,0
3,76,0,67
3,74,103,0
3,74,0,47
3,72,101,0
3,72,0,45
3,74,105,0
3,74,0,120
3,74,101,0
3,74,0,27
3,76,101,0
3,76,0,24
3,77,101,0
3,77,0,61
3,77,101,0
3,77,0,44
3,76,101,0
3,76,0,144
3,74,98,0
3,74,0,32
3,72,101,0
3,74,101,0
3,74,0,5
3,72,0,19
3,72,99,0
3,72,0,67
3,74,97,0
3,74,0,37
3,67,99,0
3,67,0,96
3,65,100,0
3,65,0,96
3,74,101,0
3,74,0,31
3,77,101,0
3,77,0,30
3,81,99,0
3,81,0,35
3,79,101,0
3,79,0,48
3,77,104,0
3,76,97,0
3,77,0,11
3,76,0,34
3,74,99,0
3,74,0,19
3,81,102,0
3,81,0,24
3,80,102,0
3,81,103,1
3,80,0,13
3,81,0,47
3,80,99,0
3,81,101,2
3,80,0,8
3,81,0,66
3,78,103,0
3,79,101,0
3,78,0,18
3,79,0,54
3,77,101,0
3,77,0,80
3,77,102,0
3,77,0,26
3,79,99,0
3,79,0,23
3,80,99,0
3,81,98,0
3,80,0,3
3,81,0,32
3,81,99,0
3,81,0,61
3,77,94,0
3,79,101,0
3,77,0,6
3,79,0,83
3,77,102,0
3,77,0,65
3,76,95,0
3,76,0,42
3,77,101,0
3,76,96,0
3,77,0,2
3,76,0,22
3,74,97,0
3,81,102,0
3,74,0,18
3,81,0,6
3,79,101,0
3,80,101,0
3,81,101,0
3,80,0,13
3,79,0,7
3,81,0,45
3,80,101,0
3,81,102,0
3,80,0,12
3,81,0,59
3,78,102,0
3,79,103,0
3,78,0,15
3,79,0,49
3,77,102,0
3,77,0,76
3,80,99,0
3,81,101,0
3,80,0,10
3,81,0,35
3,79,102,0
3,77,104,0
3,79,0,6
3,77,0,35
3,72,102,0
3,74,101,0
3,72,0,26
3,74,0,320
4,62,99,9394
4,62,0,24
4,64,71,24
4,64,0,22
4,65,93,26
4,65,0,64
4,65,87,8
4,65,0,50
4,64,99,22
4,64,0,144
4,62,102,0
4,62,0,34
4,60,82,14
4,60,0,22
4,60,96,26
4,60,0,65
4,62,84,7
4,62,0,38
4,55,102,34
4,56,67,0
4,55,0,17
4,55,56,7
4,56,0,1
4,55,0,67
4,53,102,4
4,53,0,126
4,69,93,66
4,69,0,43
4,69,82,29
4,69,0,60
4,67,93,12
4,67,0,69
4,65,93,3
4,65,0,61
4,64,73,11
4,64,0,43
4,65,102,5
4,65,0,113
4,62,93,175
4,62,0,26
4,64,69,22
4,64,0,23
4,65,105,25
4,65,0,59
4,65,102,13
4,65,0,52
4,64,87,20
4,64,0,15
4,62,102,129
4,60,71,48
4,62,0,2
4,60,0,22
4,60,96,24
4,60,0,59
4,62,87,13
4,62,0,41
4,65,102,319
4,65,0,39
4,69,93,9
4,69,0,33
4,72,93,15
4,72,0,30
4,72,87,18
4,72,0,64
4,69,102,8
4,69,0,61
4,64,93,11
4,64,0,38
4,67,102,10
4,67,0,237
4,65,99,51
4,69,93,0
4,74,87,0
4,62,84,64
4,74,0,39
4,62,0,3
4,65,0,0
4,69,0,1
4,62,93,53
4,65,99,0
4,69,87,0
4,74,87,0
4,65,0,58
4,69,0,1
4,62,0,2
4,74,0,0
4,60,66,227
4,65,96,0
4,69,90,0
4,72,84,0
4,72,0,44
4,69,0,2
4,60,0,0
4,65,0,2
4,59,87,48
4,62,93,0
4,67,79,0
4,71,63,0
4,71,0,75
4,59,0,3
4,62,0,2
4,67,0,4
4,62,99,972
4,65,93,0
4,69,102,0
4,74,93,0
4,77,87,0
4,77,0,43
4,69,0,0
4,74,0,0
4,65,0,1
4,62,0,3
4,62,105,49
4,65,90,0
4,69,99,0
4,74,99,0
4,77,93,0
4,74,0,52
4,77,0,1
4,69,0,2
4,65,0,2
4,62,0,1
4,60,93,230
4,64,105,0
4,67,90,0
4,72,79,0
4,76,90,0
4,76,0,44
4,64,0,8
4,67,0,1
4,60,0,2
4,72,0,2
4,55,99,39
4,62,87,0
4,67,105,0
4,71,76,0
4,74,71,0
4,74,0,69
4,62,0,4
4,55,0,5
4,71,0,1
4,67,0,2
4,46,92,639
4,58,92,0
4,58,0,333
4,46,0,17
5,60,93,3260
5,62,96,48
5,60,0,7
5,62,0,6
5,50,99,35
5,57,87,0
5,62,111,0
5,65,114,0
5,69,99,0
5,62,0,56
5,69,0,9
5,57,0,4
5,62,99,3
5,72,96,0
5,62,0,13
5,65,0,2
5,72,0,2
5,57,96,7
5,57,0,33
5,50,0,7
5,48,87,8
5,55,105,0
5,60,108,0
5,64,102,0
5,67,102,0
5,55,0,120
5,55,93,24
5,48,0,3
5,60,0,13
5,64,0,12
5,67,0,17
5,48,66,3
5,60,48,0
5,64,93,24
5,60,0,1
5,48,0,10
5,64,0,9
5,43,102,4
5,59,102,0
5,62,96,0
5,65,96,0
5,59,0,53
5,62,0,14
5,55,0,2
5,59,96,3
5,62,102,0
5,67,108,0
5,65,0,10
5,62,0,6
5,59,0,1
5,67,0,6
5,43,0,1
5,55,99,0
5,43,96,48
5,59,102,0
5,62,99,0
5,65,105,0
5,59,0,117
5,55,0,1
5,62,0,16
5,65,0,5
5,55,99,5
5,60,96,0
5,43,0,3
5,43,78,45
5,62,87,0
5,60,0,2
5,62,0,8
5,55,0,2
5,43,0,11
5,50,96,25
5,57,90,0
5,62,111,0
5,65,114,0
5,69,105,0
5,62,0,51
5,69,0,13
5,65,0,1
5,57,0,2
5,57,108,5
5,62,96,0
5,65,57,0
5,72,93,0
5,62,0,15
5,65,0,1
5,72,0,2
5,57,0,13
5,50,0,34
5,48,93,7
5,55,93,0
5,60,90,0
5,64,99,0
5,67,105,0
5,60,0,78
5,60,114,18
5,65,108,0
5,67,0,2
5,55,0,7
5,64,0,4
5,55,87,35
5,48,0,12
5,60,0,1
5,60,105,11
5,64,108,0
5,65,0,1
5,48,84,23
5,64,0,13
5,60,0,12
5,43,96,23
5,50,102,0
5,59,117,0
5,62,93,0
5,48,0,3
5,59,0,255
5,55,0,29
5,55,78,1
5,60,99,0
5,62,0,12
5,50,0,26
5,50,90,10
5,62,102,0
5,60,0,6
5,55,0,6
5,62,0,7
5,50,0,8
5,43,0,17
5,50,69,4
5,57,99,0
5,62,108,0
5,65,108,0
5,69,108,0
5,62,0,53
5,69,0,12
5,57,0,7
5,62,96,0
5,72,93,0
5,62,0,15
5,65,0,1
5,72,0,1
5,57,111,7
5,57,0,32
5,48,99,16
5,55,108,0
5,60,102,0
5,64,105,0
5,67,111,0
5,50,0,2
5,55,0,112
5,55,99,30
5,48,0,5
5,60,0,19
5,64,0,20
5,48,75,4
5,60,75,0
5,67,0,10
5,60,0,14
5,64,96,0
5,48,0,14
5,43,111,10
5,59,108,0
5,62,102,0
5,65,108,0
5,64,0,4
5,59,0,49
5,62,0,12
5,59,105,7
5,62,102,0
5,67,105,0
5,55,0,4
5,65,0,11
5,62,0,3
5,59,0,1
5,55,108,5
5,67,0,2
5,43,0,2
5,43,93,44
5,59,105,0
5,62,114,0
5,65,102,0
5,59,0,125
5,55,0,4
5,55,102,15
5,60,114,0
5,62,0,1
5,65,0,9
5,43,0,6
5,43,90,32
5,62,102,0
5,60,0,8
5,55,0,5
5,62,0,3
5,43,0,14
5,50,93,18
5,57,102,0
5,62,102,0
5,65,117,0
5,69,117,0
5,62,0,49
5,65,0,13
5,57,0,2
5,69,0,2
5,62,108,6
5,65,102,0
5,72,99,0
5,57,105,24
5,72,0,30
5,74,105,18
5,62,0,32
5,74,0,1
5,65,0,1
5,57,0,3
5,48,87,11
5,55,114,0
5,60,105,0
5,64,108,0
5,67,114,0
5,50,0,16
5,65,90,80
5,64,0,4
5,67,0,3
5,60,0,2
5,65,0,14
5,55,0,6
5,46,111,19
5,53,105,0
5,58,105,0
5,62,114,0
5,65,96,0
5,48,0,8
5,53,0,365
5,62,0,35
5,58,0,10
5,46,0,9
5,65,0,3
5,47,111,2
5,54,99,0
5,59,111,0
5,62,96,0
5,66,102,0
5,62,0,375
5,52,99,9
5,62,96,0
5,68,96,0
5,47,0,1
5,66,0,8
5,54,0,2
5,62,0,349
5,59,0,22
5,45,99,2
5,57,87,0
5,61,93,0
5,69,99,0
5,52,0,6
5,68,0,5
5,61,0,53
5,69,0,1
5,61,96,7
5,66,66,0
5,69,78,0
5,57,0,2
5,66,0,5
5,57,93,17
5,45,0,2
5,61,0,2
5,69,0,3
5,45,105,41
5,61,66,0
5,66,54,0
5,69,102,0
5,66,0,6
5,69,0,116
5,57,0,5
5,61,0,14
5,57,90,3
5,62,108,0
5,69,108,0
5,45,0,11
5,45,75,37
5,69,0,24
5,45,0,5
5,62,0,10
5,45,93,9
5,61,99,0
5,69,105,0
5,66,24,48
5,69,0,5
5,61,0,7
5,66,0,6
5,57,0,1
5,61,105,5
5,69,96,0
5,45,0,20
5,61,0,1
5,69,0,1
5,57,108,2
5,45,93,48
5,61,102,0
5,69,102,0
5,57,0,78
5,57,102,66
5,45,0,15
5,45,93,33
5,57,0,1
5,61,0,45
5,45,0,2
5,47,108,0
5,54,102,0
5,59,114,0
5,62,108,0
5,66,102,0
5,69,0,14
5,59,0,352
5,66,0,5
5,54,0,2
5,47,0,9
5,52,99,2
5,59,111,0
5,64,105,0
5,68,93,0
5,66,1,312
5,62,0,27
5,66,0,8
5,68,0,14
5,59,0,6
5,64,0,3
5,45,108,14
5,57,102,0
5,61,108,0
5,64,111,0
5,69,105,0
5,52,0,2
5,69,0,50
5,61,0,5
5,64,0,1
5,57,0,4
5,62,105,10
5,64,105,0
5,69,75,0
5,64,0,20
5,62,0,1
5,57,105,3
5,69,0,5
5,45,0,6
5,45,114,37
5,61,102,0
5,64,117,0
5,69,111,0
5,61,0,132
5,57,0,0
5,57,99,12
5,62,108,0
5,45,0,37
5,62,0,6
5,52,90,5
5,69,0,15
5,64,0,17
5,52,0,15
5,45,105,1
5,61,108,0
5,64,111,0
5,69,111,0
5,69,0,36
5,61,0,9
5,64,0,2
5,57,0,25
5,62,108,0
5,64,114,0
5,69,96,0
5,57,105,24
5,62,0,8
5,45,0,4
5,69,0,6
5,64,0,21
5,45,111,9
5,61,99,0
5,64,114,0
5,69,105,0
5,57,0,103
5,64,0,83
5,69,0,15
5,61,0,7
5,45,0,19
5,46,90,13
5,53,108,0
5,58,105,0
5,62,111,0
5,64,66,0
5,65,96,0
5,64,0,8
5,53,0,102
5,58,0,6
5,65,0,3
5,62,0,19
5,46,0,6
5,48,99,0
5,55,102,0
5,60,105,0
5,64,111,0
5,67,15,0
5,64,0,199
5,60,0,31
5,67,0,6
5,55,0,3
5,45,99,1
5,52,114,0
5,55,87,0
5,57,114,0
5,60,99,0
5,64,114,0
5,55,0,1
5,48,0,3
5,64,0,87
5,60,0,9
5,57,0,37
5,45,0,1
5,52,0,5
5,46,99,1
5,53,105,0
5,58,102,0
5,62,108,0
5,65,105,0
5,45,15,24
5,45,0,13
5,65,0,177
5,62,0,6
5,58,0,2
5,43,105,18
5,55,111,0
5,58,105,0
5,62,117,0
5,65,117,0
5,53,0,1
5,46,0,0
5,62,0,97
5,58,0,24
5,55,0,4
5,43,0,17
5,48,105,1
5,55,105,0
5,60,108,0
5,64,105,0
5,65,0,11
5,62,96,85
5,60,0,8
5,60,84,40
5,55,0,18
5,62,0,4
5,55,102,26
5,48,0,2
5,55,0,33
