track,note,velocity,time
0,40,127,287
0,38,87,0
0,57,97,1
0,26,97,92
0,26,122,1
0,50,101,0
0,52,80,1
0,38,127,0
0,42,75,21
0,60,113,23
0,42,110,1
0,62,108,0
0,42,69,3
0,60,119,0
0,36,110,11
0,42,51,0
0,42,72,22
0,55,97,17
0,43,110,0
0,64,73,2
0,60,111,0
0,42,110,0
0,42,64,5
0,64,71,0
0,60,119,0
0,45,102,0
0,57,92,3
0,42,51,1
0,48,100,11
0,42,64,2
0,60,110,0
0,42,110,2
0,62,114,0
0,60,117,0
0,57,67,22
0,45,114,0
0,42,60,1
0,60,114,0
0,60,110,4
0,36,110,1
0,42,51,0
0,50,120,0
0,62,96,8
0,60,91,1
0,42,61,2
0,62,85,1
0,46,81,8
0,64,80,0
0,60,114,1
0,60,81,0
0,62,75,0
0,64,83,2
0,60,115,1
0,60,66,1
0,38,122,9
0,42,51,1
0,26,122,0
0,26,91,0
0,50,100,2
0,42,64,21
0,42,110,23
0,60,115,0
0,64,60,1
0,42,62,1
0,64,77,0
0,60,111,1
0,42,56,7
0,36,111,0
0,62,104,0
0,42,69,15
0,42,110,6
0,55,102,0
0,60,108,0
0,64,83,1
0,43,114,0
0,42,61,5
0,60,109,0
0,64,92,1
0,57,93,0
0,45,110,1
0,42,50,8
0,42,67,13
0,60,110,0
0,48,101,1
0,42,110,22
0,62,110,1
0,60,95,0
0,42,68,4
0,60,108,1
0,45,120,1
0,57,73,2
0,42,54,5
0,60,112,0
0,36,110,1
0,50,120,0
0,62,99,1
0,42,70,13
0,60,78,0
0,62,74,0
0,46,86,6
0,64,74,0
0,60,109,1
0,60,68,0
0,62,58,0
0,64,80,1
0,60,114,0
0,60,48,0
0,38,116,2
0,26,119,1
0,67,79,0
0,69,79,0
0,74,91,0
0,50,92,1
0,26,88,0
0,42,80,1
0,42,75,21
0,60,121,23
0,42,110,1
0,64,66,0
0,42,69,21
0,64,80,0
0,60,107,0
0,36,110,8
0,42,51,0
0,62,104,0
0,42,72,2
0,55,97,22
0,64,78,1
0,60,114,0
0,42,110,0
0,43,114,0
0,42,64,2
0,64,80,0
0,45,90,0
0,60,109,0
0,57,94,1
0,42,51,11
0,48,101,14
0,42,64,2
0,60,110,0
0,60,105,21
0,62,112,1
0,42,110,0
0,45,110,0
0,42,60,4
0,60,107,0
0,57,64,1
0,36,110,5
0,42,51,0
0,60,105,0
0,50,120,0
0,62,96,2
0,42,61,15
0,60,95,0
0,62,90,0
0,46,81,1
0,64,74,0
0,60,91,1
0,60,78,0
0,64,95,1
0,62,69,0
0,60,109,1
0,60,48,1
0,38,118,2
0,42,51,2
0,26,114,0
0,26,83,0
0,50,97,1
0,42,64,18
0,42,110,23
0,64,71,0
0,60,120,0
0,42,62,3
0,64,83,0
0,60,103,1
0,42,56,10
0,62,98,0
0,36,111,0
0,42,69,9
0,55,104,1
0,42,110,1
0,64,79,0
0,60,113,0
0,43,114,0
0,42,61,2
0,64,94,0
0,60,105,0
0,45,98,0
0,57,97,2
0,42,50,9
0,42,67,12
0,48,110,1
0,60,111,1
0,42,110,21
0,62,94,0
0,60,105,0
0,42,68,5
0,47,86,0
0,60,108,0
0,45,105,0
0,56,64,3
0,42,54,6
0,41,117,0
0,60,108,0
0,36,110,0
0,50,124,0
0,62,99,0
0,42,70,12
0,60,92,0
0,62,86,0
0,46,86,7
0,60,119,0
0,64,77,0
0,60,78,0
0,62,73,0
0,64,94,2
0,60,108,0
0,60,68,0
0,26,119,4
0,26,90,1
0,50,94,0
0,42,80,1
0,69,85,0
0,67,84,0
0,74,94,0
0,38,127,0
0,42,75,21
0,42,110,24
0,64,60,0
0,60,102,0
0,42,69,2
0,64,77,0
0,74,91,0
0,67,94,0
0,69,96,0
0,60,109,1
0,36,110,3
0,42,51,0
0,62,104,0
0,42,72,18
0,43,110,21
0,31,110,2
0,55,99,0
0,60,105,0
0,42,110,1
0,64,83,0
0,42,64,5
0,60,106,0
0,45,102,0
0,64,92,1
0,33,93,0
0,57,93,0
0,42,51,6
0,36,104,6
0,48,100,0
0,42,64,2
0,60,110,0
0,60,113,2
0,42,110,1
0,62,110,0
0,33,85,2
0,60,107,1
0,45,114,0
0,42,60,1
0,56,45,0
0,36,110,3
0,38,99,0
0,60,112,0
0,42,51,0
0,50,120,0
0,62,99,0
0,60,82,0
0,42,61,1
0,62,82,0
0,46,81,5
0,64,74,0
0,60,111,0
0,60,79,0
0,64,80,6
0,62,71,0
0,60,107,0
0,60,49,0
0,26,83,1
0,38,122,0
0,42,51,1
0,26,114,0
0,64,83,0
0,62,78,0
0,69,85,0
0,50,92,2
0,42,64,21
0,42,110,23
0,60,108,0
0,64,66,1
0,42,62,4
0,64,80,0
0,65,43,0
0,60,104,0
0,62,74,0
0,69,85,0
0,64,82,0
0,65,58,8
0,65,77,7
0,42,56,2
0,65,100,0
0,36,111,0
0,62,104,0
0,42,69,15
0,65,97,4
0,55,101,17
0,42,110,1
0,64,78,0
0,31,102,0
0,60,105,0
0,43,114,1
0,42,61,3
0,64,80,0
0,60,98,0
0,33,83,1
0,57,96,1
0,45,110,1
0,65,108,2
0,42,50,5
0,42,67,6
0,36,99,0
0,48,101,1
0,65,98,1
0,60,105,0
0,42,110,3
0,60,123,0
0,62,112,0
0,42,68,2
0,33,78,0
0,60,117,0
0,45,120,2
0,65,73,1
0,56,55,0
0,42,54,4
0,38,96,0
0,60,108,0
0,36,110,1
0,50,120,0
0,65,112,1
0,62,99,0
0,42,70,12
0,60,92,0
0,62,121,1
0,62,86,0
0,46,86,7
0,64,74,0
0,60,78,0
0,62,73,0
0,64,95,2
0,62,122,1
0,60,68,0
0,65,94,4
0,62,87,0
0,69,90,0
0,38,116,0
0,26,93,1
0,26,80,0
0,50,93,0
0,42,80,1
0,42,75,21
0,64,71,23
0,60,119,0
0,42,110,0
0,42,69,4
0,64,83,0
0,60,107,0
0,62,81,0
0,69,83,0
0,65,88,1
0,36,110,3
0,42,51,0
0,62,98,0
0,42,72,4
0,31,110,3
0,64,79,1
0,55,96,0
0,60,117,0
0,42,110,0
0,43,114,0
0,42,64,1
0,64,94,0
0,60,104,0
0,45,90,0
0,33,86,0
0,57,104,0
0,42,51,3
0,36,94,12
0,48,101,0
0,42,64,2
0,60,112,1
0,62,94,1
0,60,115,0
0,42,110,1
0,45,110,0
0,33,77,2
0,60,95,1
0,42,60,1
0,57,80,0
0,36,110,4
0,38,99,0
0,60,110,0
0,42,51,0
0,50,120,0
0,62,100,0
0,60,93,1
0,42,61,1
0,62,89,0
0,46,81,3
0,60,109,0
0,64,77,0
0,60,78,1
0,62,70,0
0,60,115,0
0,64,94,2
0,60,67,0
0,38,118,15
0,26,81,0
0,42,51,1
0,66,123,0
0,26,108,0
0,62,85,0
0,67,94,0
0,65,96,0
0,50,102,3
0,42,64,16
0,42,110,23
0,60,113,0
0,64,60,1
0,62,82,0
0,67,95,0
0,42,62,1
0,64,77,0
0,66,119,0
0,60,109,0
0,65,95,0
0,42,56,4
0,36,111,0
0,62,104,0
0,42,69,8
0,31,106,11
0,42,110,1
0,55,94,0
0,60,115,0
0,43,114,0
0,64,83,1
0,42,61,1
0,33,90,0
0,60,111,0
0,45,98,0
0,66,127,0
0,64,92,0
0,57,101,0
0,65,112,1
0,42,50,5
0,40,114,0
0,38,93,0
0,42,67,4
0,36,96,0
0,48,110,1
0,60,101,1
0,42,110,21
0,60,118,0
0,47,94,0
0,62,110,0
0,66,91,0
0,65,87,1
0,42,68,1
0,33,78,0
0,60,116,0
0,57,80,0
0,45,105,0
0,66,127,6
0,42,54,0
0,38,96,0
0,60,114,0
0,45,71,0
0,65,114,0
0,36,110,0
0,50,124,0
0,62,99,0
0,60,93,0
0,42,70,2
0,45,98,0
0,62,93,1
0,46,86,7
0,64,74,0
0,41,108,0
0,60,90,0
0,62,86,0
0,64,80,1
0,60,77,0
0,53,77,2
0,58,87,0
0,62,96,0
0,58,113,1
0,34,118,1
0,62,99,0
0,52,80,1
0,36,108,0
0,53,121,0
0,58,127,0
0,65,44,0
0,62,40,0
0,42,75,21
0,62,88,23
0,42,110,0
0,65,98,2
0,62,94,0
0,42,69,1
0,58,126,0
0,62,124,0
0,34,115,1
0,77,111,0
0,42,51,0
0,40,117,0
0,38,96,0
0,29,102,0
0,79,106,0
0,42,72,1
0,63,47,0
0,58,11,3
0,81,110,0
0,64,98,3
0,46,88,0
0,58,105,0
0,62,97,0
0,53,125,0
0,65,55,1
0,58,127,0
0,62,105,0
0,81,108,0
0,62,89,9
0,55,72,0
0,64,93,0
0,36,96,1
0,42,51,1
0,36,106,0
0,55,122,0
0,62,117,0
0,64,99,0
0,60,104,1
0,64,94,0
0,67,39,1
0,42,64,1
0,62,94,3
0,42,110,1
0,67,23,0
0,67,96,2
0,64,116,0
0,62,117,0
0,64,88,1
0,42,60,2
0,36,94,0
0,40,115,0
0,38,94,0
0,42,51,0
0,31,99,1
0,77,109,0
0,42,61,5
0,64,55,0
0,60,28,1
0,60,100,3
0,64,93,0
0,46,81,1
0,63,79,0
0,55,124,0
0,67,53,0
0,62,121,1
0,64,113,0
0,77,109,0
0,63,91,0
0,55,121,1
0,62,88,0
0,65,88,0
0,42,51,1
0,57,89,0
0,26,112,0
0,36,106,1
0,60,102,0
0,64,94,0
0,42,64,9
0,62,88,0
0,65,76,1
0,57,64,0
0,62,99,0
0,42,110,1
0,62,90,0
0,65,51,1
0,77,109,0
0,69,49,0
0,69,93,3
0,65,84,1
0,42,62,2
0,65,112,0
0,62,115,0
0,42,56,4
0,40,116,0
0,38,95,0
0,65,111,20
0,77,108,0
0,42,69,0
0,36,88,0
0,62,117,0
0,57,24,2
0,60,103,0
0,46,82,1
0,64,91,0
0,64,97,1
0,69,13,0
0,62,88,0
0,65,82,1
0,65,98,0
0,33,94,2
0,65,84,1
0,42,50,1
0,74,109,0
0,69,88,0
0,36,100,1
0,38,116,0
0,55,111,0
0,42,67,1
0,69,86,0
0,65,86,0
0,42,110,1
0,62,100,0
0,62,116,0
0,57,75,2
0,65,89,0
0,77,111,0
0,42,68,1
0,65,86,0
0,62,98,0
0,57,76,1
0,65,116,0
0,42,54,1
0,40,115,0
0,38,94,0
0,36,102,0
0,64,88,0
0,55,82,0
0,60,94,0
0,42,70,20
0,65,112,0
0,62,115,0
0,57,70,0
0,46,86,4
0,63,79,0
0,62,96,1
0,63,95,6
0,62,86,9
0,36,106,1
0,34,106,0
0,53,113,0
0,53,83,0
0,58,75,0
0,58,120,0
0,42,80,1
0,58,104,0
0,62,101,0
0,42,75,21
0,62,74,21
0,42,110,3
0,62,100,0
0,62,93,3
0,58,76,1
0,62,119,0
0,42,69,1
0,34,101,0
0,65,96,0
0,40,116,2
0,38,95,0
0,77,111,0
0,42,51,0
0,29,106,0
0,79,107,0
0,42,72,0
0,58,25,0
0,62,28,1
0,58,103,3
0,81,107,0
0,62,102,0
0,53,120,0
0,58,124,0
0,46,78,1
0,64,100,0
0,79,106,0
0,55,73,20
0,62,96,0
0,64,82,0
0,36,96,1
0,60,103,0
0,42,51,1
0,36,108,0
0,64,94,0
0,55,119,0
0,62,120,0
0,64,24,0
0,67,63,0
0,79,107,0
0,42,64,1
0,62,86,21
0,42,110,1
0,67,96,0
0,64,115,0
0,62,122,0
0,64,90,1
0,77,108,0
0,42,60,1
0,36,92,0
0,42,51,6
0,40,115,0
0,38,94,0
0,31,108,0
0,77,108,0
0,42,61,2
0,64,48,0
0,46,81,1
0,63,85,0
0,60,104,0
0,55,119,0
0,64,90,0
0,62,120,1
0,67,35,1
0,63,91,3
0,77,105,0
0,42,51,19
0,36,104,1
0,38,110,0
0,60,101,0
0,55,119,0
0,62,91,0
0,65,65,0
0,57,80,0
0,64,94,0
0,42,64,2
0,62,88,0
0,65,71,0
0,42,110,1
0,62,88,0
0,69,62,0
0,57,71,0
0,62,111,0
0,65,61,1
0,69,96,0
0,65,86,1
0,74,109,0
0,42,62,0
0,65,113,0
0,62,114,1
0,72,107,0
0,42,56,0
0,40,114,1
0,38,93,0
0,42,69,21
0,40,97,0
0,69,106,0
0,65,112,0
0,62,112,1
0,57,24,0
0,46,73,4
0,64,92,0
0,60,104,0
0,64,90,0
0,38,83,21
0,62,89,0
0,65,71,1
0,42,50,9
0,36,106,1
0,41,104,0
0,55,119,0
0,65,93,0
0,69,39,1
0,42,67,2
0,40,99,1
0,69,93,1
0,65,89,0
0,42,110,2
0,62,95,0
0,57,84,0
0,62,119,0
0,65,41,0
0,42,68,2
0,65,86,0
0,62,98,0
0,65,114,0
0,57,57,1
0,42,54,3
0,40,115,0
0,38,94,0
0,64,86,0
0,60,94,0
0,38,99,1
0,55,88,0
0,42,70,8
0,65,112,0
0,62,112,0
0,57,71,0
0,62,70,1
0,46,86,2
0,63,81,0
0,62,100,0
0,65,86,1
0,63,87,2
0,62,97,1
0,53,78,0
0,58,90,0
0,36,106,1
0,34,115,0
0,42,80,0
0,58,102,0
0,53,119,0
0,62,104,0
0,65,78,0
0,58,124,0
0,42,75,21
0,62,88,23
0,42,110,0
0,58,121,2
0,42,69,1
0,34,109,0
0,65,98,0
0,62,121,0
0,77,110,0
0,40,115,2
0,38,94,0
0,29,104,0
0,42,51,0
0,65,72,0
0,79,108,0
0,42,72,1
0,81,107,0
0,64,98,3
0,58,105,0
0,53,117,0
0,46,75,0
0,62,98,0
0,58,125,0
0,65,34,1
0,62,101,0
0,79,109,0
0,55,76,19
0,62,99,0
0,64,79,0
0,36,104,1
0,36,100,0
0,60,101,0
0,42,51,0
0,64,94,0
0,55,127,0
0,67,54,1
0,62,117,0
0,42,64,23
0,62,94,21
0,42,110,1
0,77,109,0
0,64,87,2
0,36,100,1
0,67,90,0
0,62,117,0
0,42,60,2
0,40,115,3
0,38,94,0
0,31,89,0
0,42,51,0
0,77,108,0
0,64,41,14
0,42,61,1
0,62,68,0
0,55,63,1
0,60,101,2
0,46,81,1
0,63,79,0
0,64,90,0
0,55,121,0
0,67,85,0
0,62,125,0
0,77,105,0
0,63,91,3
0,77,109,0
0,62,89,4
0,42,51,1
0,26,112,0
0,65,88,0
0,57,85,0
0,36,106,1
0,60,94,0
0,57,127,0
0,64,93,0
0,62,125,0
0,42,64,1
0,62,86,0
0,65,70,0
0,65,55,2
0,42,110,2
0,62,90,0
0,29,99,0
0,69,56,1
0,69,89,0
0,65,82,0
0,42,62,1
0,65,117,0
0,62,116,0
0,42,56,1
0,40,116,1
0,38,95,0
0,33,114,0
0,74,110,0
0,42,69,4
0,66,50,0
0,58,106,18
0,52,93,1
0,62,100,0
0,64,97,0
0,31,104,0
0,67,82,0
0,62,97,0
0,58,90,0
0,53,81,0
0,53,123,0
0,58,123,0
0,62,111,0
0,67,45,1
0,74,108,0
0,42,50,4
0,36,104,0
0,42,67,22
0,42,110,23
0,62,100,0
0,53,95,1
0,58,89,0
0,42,68,20
0,42,54,23
0,40,116,0
0,38,95,0
0,53,127,0
0,58,126,0
0,58,106,0
0,62,97,0
0,62,118,0
0,67,66,1
0,42,70,19
0,46,86,3
0,63,79,0
0,63,95,4
0,53,72,7
0,62,95,0
0,58,81,0
0,34,106,1
0,49,76,1
0,36,108,0
0,58,106,0
0,62,94,0
0,53,126,0
0,58,127,0
0,65,78,1
0,42,64,20
0,42,110,23
0,62,100,1
0,42,62,1
0,65,99,0
0,62,90,0
0,62,121,0
0,34,103,1
0,58,84,0
0,58,125,0
0,42,56,2
0,29,82,0
0,40,117,0
0,38,96,0
0,72,113,0
0,42,69,22
0,74,109,0
0,62,1,1
0,58,15,1
0,46,82,4
0,64,100,1
0,58,102,0
0,62,100,0
0,65,85,0
0,58,124,0
0,62,87,0
0,53,118,0
0,74,110,0
0,62,93,6
0,55,71,0
0,42,50,1
0,36,102,0
0,64,72,0
0,36,106,1
0,60,104,0
0,55,120,0
0,64,92,0
0,62,122,0
0,67,43,1
0,64,57,0
0,42,67,8
