track,note,velocity,time
6,62,127,2878
6,62,0,17
6,62,127,36
6,62,0,20
6,62,127,43
6,62,0,61
6,64,127,2
6,64,0,111
6,67,127,9
6,67,0,176
6,64,127,2
6,67,127,64
6,64,0,5
6,67,0,53
6,69,127,2
6,69,0,15
6,71,127,44
6,67,127,114
6,71,0,5
6,67,0,111
6,64,127,9
6,64,0,110
6,62,127,4
6,62,0,431
6,62,127,469
6,62,0,20
6,62,127,38
6,62,0,15
6,62,127,49
6,62,0,60
6,64,127,2
6,64,0,110
6,67,127,8
6,67,0,302
6,64,127,2
6,64,0,65
6,67,127,1
6,67,0,13
6,71,127,42
6,71,0,52
6,72,127,5
6,71,127,60
6,72,0,9
6,67,127,48
6,71,0,4
6,67,0,51
6,64,127,2
6,64,0,62
6,62,127,2
6,62,0,412
6,71,127,422
6,71,0,57
6,72,127,9
6,72,0,16
6,72,127,44
6,72,0,21
6,72,127,46
6,72,0,22
6,72,127,32
6,71,127,119
6,72,0,5
6,71,0,117
6,69,127,1
6,69,0,55
6,71,127,10
6,71,0,14
6,71,127,40
6,71,0,61
6,69,127,7
6,69,0,13
6,69,127,40
6,69,0,115
6,67,127,6
6,67,0,180
6,72,127,62
6,72,0,15
6,72,127,44
6,72,0,16
6,72,127,44
6,72,0,15
6,72,127,45
6,71,127,59
6,72,0,10
6,71,0,44
6,69,127,5
6,69,0,53
6,67,127,3
6,67,0,59
6,72,127,3
6,72,0,58
6,71,127,2
6,71,0,60
6,69,127,1
6,69,0,62
6,72,127,1
6,72,0,264
6,72,127,34
6,72,0,58
6,71,127,1
6,71,0,59
6,69,127,1
6,74,127,62
6,69,0,3
6,74,0,299
6,74,127,116
6,71,127,60
6,74,0,6
6,71,0,50
6,67,127,7
6,67,0,115
6,64,127,4
6,64,0,21
6,64,127,97
6,64,0,60
6,67,127,1
6,67,0,11
6,67,127,52
6,67,0,57
6,64,127,4
6,64,0,55
6,71,127,3
6,71,0,111
6,69,127,7
6,69,0,113
6,74,127,67
6,71,127,99
6,74,0,2
6,71,0,77
6,67,127,3
6,67,0,117
6,64,127,5
6,64,0,18
6,64,127,96
6,64,0,66
6,67,127,2
6,64,127,60
6,67,0,1
6,71,127,59
6,64,0,2
6,69,127,58
6,71,0,11
6,69,0,134
6,74,127,148
6,71,127,64
6,74,0,3
6,71,0,44
6,69,127,12
6,69,0,13
6,69,127,47
6,69,0,109
6,67,127,9
6,67,0,114
6,64,127,5
6,64,0,62
6,67,127,4
6,67,0,12
6,67,127,48
6,67,0,53
6,64,127,3
6,64,0,56
6,71,127,3
6,71,0,110
6,69,127,6
6,69,0,132
6,72,127,57
6,72,0,11
6,72,127,46
6,72,0,15
6,72,127,49
6,72,0,14
6,72,127,47
6,72,0,53
6,71,127,6
6,69,127,64
6,71,0,1
6,72,127,51
6,69,0,1
6,71,127,119
6,72,0,5
6,69,127,58
6,71,0,4
6,69,0,58
6,72,127,0
6,71,127,117
6,72,0,10
6,69,127,52
6,71,0,4
6,69,0,51
6,67,127,4
6,67,0,66
6,68,127,51
6,69,127,1
6,68,0,11
6,69,0,48
6,67,127,4
6,67,0,829
6,62,127,972
6,62,0,19
6,62,127,36
6,62,0,17
6,62,127,48
6,64,127,59
6,62,0,1
6,64,0,103
6,67,127,10
6,67,0,180
6,64,127,2
6,67,127,60
6,64,0,3
6,67,0,71
6,71,127,44
6,71,0,110
6,67,127,11
6,67,0,117
6,64,127,5
6,62,127,117
6,64,0,4
6,62,0,424
6,59,127,412
6,59,0,58
6,62,127,6
6,64,127,60
6,62,0,3
6,64,0,8
6,62,127,50
6,64,127,55
6,62,0,5
6,64,0,115
6,67,127,5
6,67,0,300
6,64,127,1
6,67,127,60
6,64,0,5
6,67,0,7
6,71,127,49
6,71,0,57
6,72,127,4
6,71,127,53
6,72,0,7
6,71,0,52
6,67,127,1
6,67,0,62
6,64,127,2
6,64,0,117
6,62,127,4
6,62,0,364
6,71,127,414
6,71,0,53
6,72,127,10
6,72,0,11
6,72,127,48
6,72,0,24
6,72,127,38
6,72,0,20
6,72,127,37
6,71,127,116
6,72,0,5
6,71,0,109
6,69,127,3
6,69,0,61
6,71,127,8
6,71,0,12
6,71,127,47
6,71,0,48
6,69,127,8
6,69,0,22
6,69,127,43
6,67,127,1
6,67,0,5
6,69,0,110
6,67,127,0
6,67,0,236
6,72,127,4
6,72,0,11
6,72,127,50
6,72,0,11
6,72,127,46
6,72,0,16
6,72,127,43
6,71,127,62
6,72,0,8
6,69,127,53
6,71,0,2
6,67,127,59
6,69,0,3
6,67,0,55
6,72,127,0
6,72,0,62
6,71,127,0
6,71,0,63
6,69,127,0
6,72,127,57
6,69,0,1
6,72,0,183
6,72,127,114
6,72,0,61
6,71,127,0
6,71,0,57
6,69,127,2
6,74,127,60
6,69,0,5
6,74,0,289
6,74,127,130
6,71,127,55
6,74,0,10
6,71,0,47
6,67,127,5
6,67,0,109
6,64,127,5
6,64,0,22
6,64,127,101
6,64,0,65
6,67,127,0
6,67,0,11
6,67,127,49
6,67,0,55
6,64,127,2
6,64,0,57
6,71,127,1
6,71,0,117
6,69,127,5
6,69,0,103
6,74,127,77
6,71,127,97
6,74,0,10
6,71,0,61
6,67,127,4
6,67,0,121
6,64,127,2
6,64,0,29
6,64,127,96
6,64,0,64
6,67,127,1
6,67,0,58
6,64,127,1
6,64,0,56
6,71,127,0
6,71,0,118
6,69,127,2
6,69,0,154
6,74,127,85
6,71,127,59
6,74,0,6
6,71,0,51
6,69,127,10
6,69,0,13
6,69,127,48
6,69,0,75
6,67,127,41
6,67,0,115
6,64,127,3
6,67,127,59
6,64,0,4
6,67,0,11
6,67,127,42
6,67,0,58
6,64,127,3
6,64,0,54
6,71,127,12
6,71,0,119
6,69,127,1
6,69,0,105
6,72,127,74
6,72,0,16
6,72,127,41
6,72,0,18
6,72,127,42
6,72,0,15
6,72,127,47
6,71,127,57
6,72,0,10
6,71,0,46
6,69,127,4
6,69,0,61
6,72,127,1
6,71,127,117
6,72,0,8
6,71,0,50
6,69,127,2
6,72,127,65
6,69,0,1
6,71,127,116
6,72,0,9
6,71,0,44
6,69,127,7
6,67,127,61
6,69,0,1
6,67,0,119
6,69,127,0
6,69,0,62
6,67,127,2
6,67,0,409
6,71,127,3367
6,71,0,46
6,74,127,17
6,74,0,57
6,71,127,6
6,71,0,18
6,74,127,39
6,74,127,55
6,74,0,10
6,74,0,76
6,71,127,101
6,74,127,55
6,71,0,3
6,74,0,18
6,71,127,46
6,71,0,20
6,76,127,35
6,76,0,110
6,74,127,6
6,74,0,170
6,71,127,17
6,74,127,54
6,71,0,2
6,74,0,8
6,74,127,49
6,74,0,59
6,74,127,67
6,74,0,53
6,74,127,62
6,74,0,63
6,71,127,0
6,71,0,17
6,77,127,47
6,77,0,56
6,76,127,5
6,76,0,16
6,74,127,39
6,74,0,32
6,76,127,26
6,76,0,112
6,74,127,11
6,74,0,184
6,74,127,113
6,71,127,57
6,74,0,6
6,71,0,9
6,67,127,47
6,67,0,23
6,64,127,97
6,64,0,31
6,64,127,93
6,67,127,64
6,64,0,4
6,67,0,9
6,67,127,45
6,67,0,52
6,64,127,3
6,64,0,54
6,71,127,8
6,71,0,116
6,69,127,7
6,69,0,103
6,74,127,73
6,71,127,96
6,74,0,1
6,71,0,76
6,67,127,4
6,67,0,123
6,64,127,3
6,64,0,22
6,64,127,94
6,64,0,55
6,67,127,8
6,64,127,59
6,67,0,1
6,69,127,55
6,64,0,5
6,71,127,0
6,69,0,9
6,71,0,106
6,69,127,2
6,69,0,173
6,74,127,66
6,74,0,49
6,71,127,7
6,71,0,58
6,69,127,6
6,69,0,16
6,69,127,48
6,69,0,26
6,67,127,96
6,67,0,115
6,64,127,2
6,67,127,60
6,67,0,8
6,64,0,0
6,67,127,50
6,67,0,57
6,64,127,2
6,64,0,61
6,71,127,3
6,71,0,111
6,69,127,9
6,69,0,125
6,72,127,52
6,72,0,16
6,72,127,44
6,72,0,16
6,72,127,44
6,72,0,15
6,72,127,45
6,71,127,56
6,72,0,7
6,71,0,50
6,69,127,3
6,72,127,62
6,69,0,1
6,71,127,120
6,72,0,8
6,71,0,50
6,69,127,0
6,72,127,67
6,69,0,2
6,71,127,116
6,72,0,10
6,71,0,46
6,69,127,4
6,69,0,57
6,67,127,0
6,67,0,57
6,68,127,60
6,67,127,1
6,69,127,4
6,67,0,7
6,68,0,3
6,69,0,99
6,67,127,6
6,67,0,1635
6,67,127,166
6,67,0,28
6,67,127,35
6,67,0,42
6,67,127,137
6,67,0,14
6,67,127,48
6,67,0,110
6,64,127,9
6,64,0,58
6,67,127,2
6,67,0,9
6,64,127,49
6,64,0,30
6,68,127,33
6,69,127,3
6,68,0,11
6,69,0,93
6,67,127,11
6,67,0,179
6,67,127,59
6,67,0,28
6,67,127,35
6,67,0,42
6,67,127,137
6,67,0,14
6,67,127,48
6,67,0,110
6,64,127,9
6,64,0,58
6,67,127,2
6,67,0,9
6,64,127,49
6,64,0,30
6,68,127,33
6,69,127,3
6,68,0,11
6,69,0,93
6,67,127,11
6,67,0,179
6,67,127,59
6,67,0,28
6,67,127,35
6,67,0,42
6,67,127,137
6,67,0,14
6,67,127,48
6,67,0,110
6,64,127,9
6,64,0,58
6,67,127,2
6,67,0,9
6,64,127,49
6,64,0,30
6,68,127,33
6,69,127,3
6,68,0,11
6,69,0,93
6,67,127,11
6,67,0,179
6,67,127,59
6,67,0,28
6,67,127,35
6,67,0,42
6,67,127,137
6,67,0,14
6,67,127,48
6,67,0,110
6,64,127,9
6,64,0,58
6,67,127,2
6,67,0,9
6,64,127,49
6,64,0,30
6,68,127,33
6,69,127,3
6,68,0,11
6,69,0,93
6,67,127,11
6,67,0,179
6,67,127,59
6,67,0,28
6,67,127,35
6,67,0,42
6,67,127,137
6,67,0,14
6,67,127,48
6,67,0,110
6,64,127,9
6,64,0,58
6,67,127,2
6,67,0,9
6,64,127,49
6,64,0,30
6,68,127,33
6,69,127,3
6,68,0,11
6,69,0,93
6,67,127,11
6,67,0,179
6,67,127,59
6,67,0,28
6,67,127,35
6,67,0,42
6,67,127,137
6,67,0,14
6,67,127,48
6,67,0,110
6,64,127,9
6,64,0,58
6,67,127,2
6,67,0,9
6,64,127,49
6,64,0,30
6,68,127,33
6,69,127,3
6,68,0,11
6,69,0,93
6,67,127,11
6,67,0,179
7,38,88,889
7,38,0,61
7,31,107,10
7,31,0,120
7,31,92,55
7,31,0,59
7,28,78,0
7,28,0,121
7,26,92,4
7,28,70,55
7,26,0,6
7,28,0,55
7,31,92,0
7,31,0,54
7,31,97,6
7,31,0,5
7,31,88,19
7,31,0,86
7,28,98,4
7,28,0,180
7,38,92,6
7,38,0,60
7,28,65,5
7,28,0,49
7,31,97,6
7,31,0,114
7,31,92,65
7,31,0,61
7,28,92,0
7,28,0,119
7,26,95,6
7,28,56,55
7,26,0,4
7,28,0,56
7,31,92,0
7,31,0,59
7,31,81,0
7,31,0,15
7,31,85,11
7,31,0,89
7,28,78,1
7,28,0,179
7,38,88,5
7,28,72,60
7,38,0,6
7,28,0,49
7,31,97,5
7,31,0,150
7,31,97,31
7,31,0,145
7,31,78,10
7,31,0,5
7,33,81,15
7,33,0,64
7,35,51,6
7,35,0,54
7,36,102,1
7,36,0,144
7,36,92,41
7,36,0,144
7,36,75,10
7,36,0,11
7,35,68,15
7,35,0,54
7,33,78,6
7,33,0,50
7,31,88,4
7,31,0,145
7,31,97,36
7,31,0,180
7,28,70,0
7,28,0,55
7,38,78,5
7,38,0,60
7,28,70,0
7,28,0,59
7,28,75,1
7,28,0,9
7,38,81,20
7,38,0,86
7,31,97,4
7,31,0,240
7,38,92,1
7,38,0,54
7,31,102,5
7,31,0,130
7,31,88,56
7,31,0,139
7,31,85,11
7,31,0,5
7,33,92,19
7,33,0,60
7,35,58,0
7,35,0,61
7,36,107,0
7,36,0,139
7,36,102,46
7,36,0,140
7,38,68,10
7,38,0,9
7,35,85,5
7,35,0,71
7,33,75,0
7,33,0,55
7,31,85,5
7,31,0,149
7,31,113,31
7,31,0,155
7,31,102,0
7,31,0,0
7,28,85,20
7,28,0,59
7,38,88,6
7,38,0,59
7,28,97,1
7,28,0,79
7,26,97,16
7,31,102,84
7,26,0,6
7,31,0,169
7,33,81,5
7,35,60,61
7,33,0,4
7,35,0,56
7,36,102,0
7,36,0,130
7,36,97,50
7,35,65,179
7,36,0,6
7,35,0,54
7,33,88,1
7,33,0,54
7,31,92,6
7,31,0,149
7,31,107,36
7,31,0,144
7,31,81,6
7,31,0,9
7,33,85,16
7,33,0,59
7,35,61,1
7,35,0,59
7,36,102,1
7,36,0,150
7,36,102,29
7,35,75,180
7,36,0,5
7,33,81,50
7,35,0,5
7,33,0,61
7,36,102,0
7,36,0,185
7,38,107,0
7,38,0,289
7,36,107,6
7,36,0,175
7,38,97,10
7,38,0,149
7,38,70,5
7,38,0,10
7,28,97,10
7,28,0,60
7,30,53,1
7,30,0,54
7,31,107,11
7,31,0,124
7,31,92,50
7,31,0,61
7,28,81,5
7,28,0,115
7,26,97,5
7,36,113,114
7,26,0,1
7,36,0,135
7,36,113,50
7,36,0,49
7,38,102,11
7,38,0,139
7,38,107,41
7,38,0,55
7,31,102,5
7,31,0,119
7,31,113,55
7,31,0,55
7,28,92,5
7,28,0,50
7,26,113,76
7,36,107,114
7,26,0,6
7,36,0,119
7,38,102,61
7,38,0,295
7,31,97,5
7,31,0,134
7,31,97,46
7,31,0,54
7,28,107,6
7,26,88,120
7,28,0,4
7,36,113,110
7,26,0,1
7,36,0,130
7,36,113,55
7,36,0,55
7,38,102,5
7,38,0,134
7,38,102,41
7,38,0,50
7,36,113,9
7,36,0,130
7,36,120,46
7,36,0,19
7,36,113,46
7,36,0,229
7,38,113,10
7,38,0,145
7,38,120,36
7,38,0,150
7,38,78,15
7,38,0,5
7,28,107,9
7,28,0,60
7,30,65,0
7,30,0,61
7,31,107,0
7,31,0,124
7,31,107,55
7,31,0,61
7,28,97,0
7,28,0,120
7,38,92,0
7,38,0,59
7,28,61,1
7,28,0,55
7,31,97,4
7,31,0,60
7,31,88,6
7,31,0,4
7,31,97,20
7,31,0,86
7,28,81,0
7,28,0,180
7,26,92,10
7,28,55,49
7,26,0,5
7,28,0,56
7,31,102,4
7,31,0,121
7,31,113,60
7,31,0,59
7,28,88,1
7,28,0,114
7,26,81,11
7,28,65,50
7,26,0,10
7,28,0,55
7,31,92,0
7,31,0,59
7,31,81,1
7,31,0,9
7,31,102,16
7,31,0,90
7,28,81,0
7,28,0,174
7,38,88,6
7,38,0,65
7,28,81,0
7,28,0,59
7,31,107,1
7,31,0,129
7,31,102,56
7,31,0,144
7,31,92,1
7,31,0,15
7,33,81,10
7,33,0,64
7,35,72,0
7,35,0,61
7,36,102,0
7,36,0,120
7,36,88,65
7,36,0,140
7,36,75,4
7,36,0,10
7,35,75,15
7,35,0,61
7,33,75,0
7,33,0,59
7,31,92,1
7,31,0,154
7,31,113,31
7,31,0,239
7,38,75,1
7,38,0,59
7,28,81,6
7,28,0,59
7,28,65,1
7,28,0,9
7,38,92,21
7,38,0,80
7,31,107,4
7,31,0,241
7,38,102,0
7,38,0,54
7,31,102,6
7,31,0,130
7,31,97,50
7,31,0,150
7,31,78,15
7,31,0,5
7,33,81,15
7,33,0,54
7,35,49,0
7,35,0,61
7,36,97,0
7,36,0,140
7,36,113,39
7,36,0,155
7,38,60,11
7,38,0,4
7,35,75,16
7,35,0,54
7,33,81,5
7,33,0,55
7,31,97,1
7,31,0,155
7,31,107,24
7,31,0,180
7,28,78,1
7,28,0,60
7,38,92,0
7,28,78,65
7,38,0,4
7,28,0,61
7,28,70,0
7,28,0,4
7,38,88,21
7,38,0,79
7,31,107,6
7,31,0,174
7,33,78,5
7,33,0,56
7,35,87,4
7,35,0,61
7,36,102,0
7,36,0,124
7,36,107,55
7,36,0,181
7,35,81,0
7,35,0,59
