track,note,velocity,time
3,31,66,663
3,38,54,87
3,31,66,3
3,38,80,60
3,38,66,87
3,38,62,38
3,36,62,7
3,36,38,82
3,36,68,12
3,34,72,117
3,36,66,9
3,36,46,35
3,31,76,2
3,31,66,48
3,31,56,33
3,31,60,10
3,38,64,62
3,38,64,83
3,31,66,64
3,31,58,47
3,31,54,31
3,31,68,16
3,38,54,62
3,38,62,62
3,31,64,4
3,31,64,45
3,31,54,31
3,31,72,8
3,38,66,62
3,36,62,140
3,36,52,30
3,36,52,37
3,36,68,8
3,39,62,63
3,31,68,40
3,31,60,47
3,31,58,29
3,31,64,10
3,38,62,59
3,31,58,49
3,31,66,40
3,31,66,43
3,39,72,194
3,38,64,19
3,31,66,40
3,31,64,42
3,38,64,147
3,39,62,48
3,38,58,11
3,29,68,45
3,31,64,5
3,31,56,35
3,31,64,37
3,38,64,164
3,39,66,48
3,38,64,10
3,31,66,43
3,31,72,46
3,34,72,103
3,38,62,48
3,39,56,4
3,38,66,1
3,31,64,32
3,31,62,62
3,31,72,51
3,31,68,103
3,38,64,43
3,31,66,40
3,31,66,84
3,43,66,123
3,41,68,9
3,38,64,64
3,36,56,11
3,34,60,64
3,38,64,2
3,36,68,1
3,34,66,11
3,31,64,64
3,31,68,21
3,38,66,89
3,38,60,34
3,31,76,5
3,34,84,90
3,36,54,64
3,36,44,109
3,36,60,39
3,31,68,4
3,31,60,40
3,31,64,44
3,31,56,203
3,31,64,47
3,31,64,39
3,31,66,208
3,31,66,39
3,31,76,43
3,34,80,154
3,36,56,6
3,36,66,43
3,36,68,44
3,34,72,176
3,31,66,0
3,31,68,36
3,31,54,41
3,31,68,215
3,31,64,19
3,31,68,37
3,31,76,14
3,36,64,174
3,39,64,48
3,38,64,7
3,43,64,60
3,31,58,40
3,30,62,5
3,31,58,16
3,34,68,69
3,39,68,3
3,38,72,10
3,31,66,1
3,31,64,89
3,31,68,9
3,34,62,50
3,38,66,3
3,39,66,3
3,38,64,1
3,29,76,5
3,31,66,2
3,29,58,116
3,31,66,16
3,31,72,21
3,31,84,3
3,34,58,83
3,39,84,1
3,38,68,9
3,31,54,6
3,31,62,113
3,34,84,46
3,36,64,3
3,39,80,43
3,38,68,3
3,31,84,40
3,31,76,50
3,31,80,41
3,31,76,112
3,31,80,15
3,43,64,57
3,41,66,10
3,38,68,3
3,36,64,8
3,34,56,64
3,38,58,6
3,36,62,1
3,34,66,8
3,31,72,64
3,31,80,32
3,31,66,73
3,36,60,213
3,36,62,53
3,36,64,36
3,31,72,212
3,31,64,50
3,31,66,48
3,29,68,123
3,31,80,7
3,31,84,96
3,31,68,5
3,29,72,135
3,31,72,2
3,31,66,71
3,31,76,40
3,34,72,198
3,36,72,3
3,36,66,28
3,36,76,58
3,34,80,142
3,36,64,4
3,31,68,64
3,31,66,39
3,31,76,47
3,31,72,209
3,31,66,42
3,31,80,49
3,34,88,171
3,39,58,8
3,46,46,3
3,51,62,16
3,50,66,9
3,45,66,32
3,38,68,7
3,31,68,10
3,31,66,65
3,31,68,40
3,34,88,4
3,39,84,4
3,38,72,18
3,31,60,5
3,31,66,35
3,31,62,36
3,39,76,202
3,39,80,19
3,46,76,14
3,51,52,13
3,50,68,19
3,31,68,5
3,31,66,43
3,31,68,44
3,34,72,65
3,36,60,0
3,39,68,45
3,38,64,9
3,29,68,8
3,30,54,32
3,31,80,0
3,31,64,43
3,31,66,47
3,34,68,13
3,36,64,3
3,34,56,36
3,39,76,16
3,38,64,43
3,29,64,3
3,30,64,6
3,31,64,3
3,31,68,42
3,31,80,52
3,41,60,157
3,43,62,48
3,43,34,14
3,36,39,89
3,38,64,3
3,36,64,6
3,34,68,6
3,38,64,33
3,36,66,6
3,34,72,27
3,31,66,23
3,31,66,55
3,31,54,81
3,31,60,11
3,31,60,51
3,29,62,3
3,31,68,9
3,36,62,2
3,36,62,52
3,36,58,46
3,34,72,126
3,31,68,4
3,31,76,49
3,31,76,50
3,29,68,123
3,31,66,5
3,31,68,20
3,31,66,42
3,31,66,48
3,29,68,116
3,31,62,4
3,31,66,18
3,31,66,49
3,31,68,42
3,34,68,113
3,36,54,19
3,36,60,36
3,36,68,31
3,34,66,120
3,31,66,51
3,31,64,20
3,31,72,37
3,31,68,50
3,31,80,210
3,31,64,19
3,31,64,37
3,31,60,51
3,38,66,175
3,39,64,3
3,38,76,2
3,29,68,85
3,31,68,1
3,34,66,201
3,34,72,16
3,38,64,0
3,39,62,2
3,38,68,49
3,28,50,2
3,30,44,16
3,31,68,6
3,31,66,43
3,31,66,49
3,34,56,118
3,34,56,18
3,38,66,2
3,39,76,20
3,46,54,3
3,38,68,0
3,29,66,2
3,31,60,7
3,31,80,47
3,31,80,52
3,31,64,80
3,29,66,38
3,31,66,32
3,39,68,50
3,38,66,192
3,29,68,47
3,31,66,1
3,31,68,48
3,31,64,47
3,34,68,106
3,38,66,3
3,39,58,2
3,38,68,188
3,29,72,3
3,31,66,0
3,31,68,39
3,31,66,38
3,38,68,99
3,38,64,12
3,41,68,16
3,43,66,4
3,41,66,11
3,38,68,64
3,36,66,13
3,34,56,64
3,38,66,5
3,36,58,48
3,34,60,4
3,31,68,64
3,31,66,28
3,29,58,87
3,31,76,3
3,29,62,35
3,31,68,16
3,29,66,37
3,31,84,7
3,36,62,40
3,36,64,26
3,36,56,33
3,36,62,12
3,34,88,103
3,31,68,96
3,31,60,46
3,31,62,45
3,31,64,200
3,31,52,38
3,31,64,40
3,29,64,114
3,31,66,0
3,31,66,47
3,31,64,49
3,31,76,46
3,29,64,118
3,31,66,4
3,36,64,9
3,36,64,41
3,36,76,48
3,34,88,130
3,36,52,9
3,31,68,57
3,31,68,41
3,31,68,47
3,31,68,205
3,31,66,45
3,31,68,39
3,34,58,113
3,34,80,16
3,38,65,0
3,39,66,29
3,38,54,192
3,38,56,64
3,31,72,2
3,31,68,27
3,31,56,46
3,31,66,12
3,31,68,68
3,38,68,112
3,39,58,3
3,46,58,144
3,38,72,6
3,29,68,4
3,31,64,48
3,31,66,42
3,31,68,43
3,34,60,119
3,38,66,5
3,39,66,16
3,38,64,32
3,29,64,3
3,29,64,2
3,30,64,3
3,31,64,25
3,31,54,16
3,31,60,32
3,31,72,32
3,39,60,32
3,38,56,32
3,38,56,20
3,31,54,1
3,43,62,7
3,41,54,16
3,38,54,1
3,36,37,5
3,36,39,24
3,38,52,5
3,39,39,16
3,38,54,16
3,29,58,1
3,31,54,16
3,31,52,32
3,31,54,16
3,31,60,16
3,29,42,16
3,31,58,5
3,39,39,16
3,38,37,16
3,31,25,11
3,31,35,32
3,31,46,16
3,31,39,16
4,53,52,658
4,58,60,0
4,55,58,0
4,62,31,0
4,62,62,19
4,55,44,0
4,58,30,0
4,65,62,4
4,51,35,26
4,55,42,0
4,58,26,0
4,63,32,0
4,50,54,14
4,58,33,0
4,55,28,0
4,62,42,0
4,65,72,52
4,60,68,0
4,67,66,1
4,62,62,0
4,72,80,16
4,67,66,0
4,65,58,7
4,70,54,0
4,58,44,59
4,55,30,0
4,62,36,0
4,48,31,70
4,63,46,0
4,58,46,0
4,55,36,0
4,67,68,240
4,58,35,28
4,62,42,0
4,53,29,0
4,67,64,52
4,55,56,0
4,67,64,80
4,55,52,0
4,48,46,31
4,46,46,1
4,43,54,16
4,58,39,39
4,51,46,0
4,55,32,0
4,62,44,0
4,55,56,21
4,67,66,0
4,50,22,0
4,57,52,4
4,65,64,0
4,53,46,0
4,60,54,0
4,43,52,96
4,53,39,58
4,61,68,29
4,55,64,0
4,67,68,0
4,62,64,4
4,60,60,12
4,58,38,9
4,60,84,10
4,67,80,0
4,67,62,14
4,60,64,0
4,58,42,9
4,60,80,9
4,67,76,0
4,60,46,15
4,67,44,0
4,58,40,7
4,51,46,11
4,58,38,96
4,55,28,0
4,50,48,21
4,57,29,0
4,60,38,0
4,53,37,96
4,65,34,13
4,50,44,26
4,43,56,16
4,74,60,46
4,79,68,0
4,73,84,29
4,72,35,4
4,70,58,11
4,67,80,4
4,70,76,22
4,67,68,17
4,65,76,24
4,67,66,11
4,51,42,64
4,58,39,0
4,55,35,0
4,62,16,16
4,55,76,11
4,67,68,0
4,62,72,0
4,58,72,0
4,51,44,0
4,50,38,7
4,60,37,0
4,65,35,0
4,57,32,0
4,60,66,0
4,57,66,0
4,65,76,0
4,53,52,0
4,50,19,24
4,43,44,1
4,53,40,41
4,57,31,0
4,65,44,35
4,62,64,34
4,65,66,5
4,65,56,30
4,62,56,16
4,65,66,13
4,67,68,32
4,55,39,24
4,58,37,0
4,51,42,0
4,62,44,0
4,65,46,2
4,57,36,0
4,60,42,0
4,50,30,0
4,53,30,0
4,57,8,0
4,43,56,16
4,55,31,24
4,53,40,16
4,58,50,23
4,55,56,0
4,62,58,0
4,55,46,4
4,55,35,40
4,53,54,26
4,55,56,16
4,58,66,0
4,62,60,0
4,55,14,25
4,53,23,1
4,55,50,5
4,58,54,0
4,51,37,0
4,55,36,24
4,50,44,17
4,53,44,0
4,57,40,0
4,60,54,0
4,53,26,30
4,55,37,21
4,50,21,32
4,43,60,2
4,55,58,0
4,67,72,0
4,55,39,18
4,55,44,23
4,55,44,51
4,55,37,40
4,55,22,7
4,58,31,16
4,62,33,0
4,55,60,47
4,58,52,0
4,62,56,0
4,43,44,33
4,67,80,4
4,55,64,0
4,65,80,8
4,53,58,0
4,50,62,64
4,62,76,0
4,48,62,1
4,60,66,0
4,46,60,64
4,58,56,0
4,62,64,1
4,50,68,0
4,48,64,48
4,60,66,0
4,46,58,1
4,58,64,0
4,55,64,64
4,43,58,0
4,53,52,7
4,58,44,0
4,62,60,0
4,55,46,0
4,58,50,78
4,55,46,0
4,62,64,0
4,65,44,0
4,51,42,2
4,58,29,0
4,63,17,0
4,65,66,4
4,62,54,37
4,55,44,0
4,58,42,0
4,53,36,0
4,53,29,130
4,67,58,4
4,55,40,0
4,53,22,32
4,67,58,9
4,61,44,0
4,60,35,0
4,62,44,0
4,67,40,16
4,60,46,0
4,58,38,48
4,53,42,2
4,58,48,16
4,55,38,0
4,62,56,0
4,53,50,21
4,55,48,16
4,58,56,0
4,61,60,0
4,65,52,0
4,62,36,12
4,51,40,6
4,63,40,0
4,58,40,0
4,50,52,0
4,43,37,1
4,53,48,1
4,58,56,0
4,55,52,0
4,62,36,0
4,55,36,15
4,55,46,40
4,67,66,0
4,53,31,42
4,55,44,21
4,53,33,50
4,55,46,8
4,58,46,0
4,62,62,0
4,53,46,51
4,58,40,16
4,62,64,0
4,55,46,0
4,65,64,0
4,51,52,4
4,58,44,0
4,62,54,0
4,67,64,0
4,50,38,6
4,57,42,0
4,55,54,0
4,65,56,0
4,60,52,0
4,53,29,0
4,43,42,4
4,58,50,11
4,55,48,0
4,60,22,0
4,61,40,0
4,53,42,0
4,62,58,9
4,50,39,55
4,77,48,16
4,73,29,0
4,73,54,11
4,72,66,3
4,70,58,14
4,67,44,3
4,51,32,12
4,65,1,0
4,55,58,71
4,65,62,0
4,58,54,0
4,53,48,0
4,62,60,0
4,57,42,1
4,53,20,0
4,50,32,0
4,60,37,0
4,50,29,7
4,43,40,9
4,55,31,45
4,58,58,6
4,53,52,2
4,60,66,2
4,65,72,0
4,61,68,0
4,58,48,15
4,60,60,19
4,58,72,23
4,53,62,9
4,55,56,16
4,58,72,14
4,55,46,16
4,53,58,31
4,62,58,2
4,58,36,0
4,51,44,0
4,67,60,0
4,50,44,0
4,53,46,0
4,65,66,0
4,57,54,0
4,60,52,0
4,50,48,24
4,43,33,4
4,55,46,0
4,62,56,0
4,58,32,0
4,53,50,6
4,55,64,16
4,61,64,0
4,67,60,0
4,62,52,3
4,53,42,16
4,65,54,16
4,62,54,8
4,51,50,0
4,58,54,0
4,53,29,0
4,50,46,7
4,65,60,0
4,57,44,0
4,53,40,0
4,60,40,0
4,50,40,3
4,58,50,16
4,62,66,0
4,53,44,0
4,55,42,0
4,43,32,0
4,53,31,70
4,53,31,0
4,53,58,38
4,72,84,16
4,53,52,1
4,70,62,4
4,62,50,0
4,67,58,0
4,58,40,96
4,51,31,15
4,55,46,0
4,65,50,2
4,50,36,0
4,60,48,0
4,57,44,9
4,50,28,2
4,50,48,33
4,43,30,0
4,67,58,0
4,53,37,0
4,55,28,0
4,62,54,0
4,58,1,45
4,43,56,11
4,67,84,2
4,55,80,0
4,65,68,10
4,53,56,0
4,62,72,64
4,50,58,0
4,48,62,4
4,60,72,0
4,58,62,64
4,46,64,0
4,49,40,1
4,60,62,0
4,61,66,0
4,62,62,0
4,50,76,0
4,48,62,1
4,60,64,0
4,58,64,2
4,46,60,0
4,43,66,64
4,55,64,0
4,58,46,6
4,53,50,0
4,55,40,0
4,62,64,0
4,53,48,40
4,58,50,0
4,62,52,0
4,65,56,0
4,55,42,0
4,51,48,32
4,55,48,0
4,58,37,0
4,63,35,0
4,50,19,17
4,43,58,22
4,72,68,16
4,73,58,0
4,77,50,0
4,70,56,16
4,67,56,20
4,55,33,78
4,55,31,11
4,55,46,41
4,55,52,37
4,53,54,40
4,60,66,2
4,61,58,0
4,65,68,0
4,60,35,13
4,58,56,32
4,55,35,11
4,53,48,3
4,55,52,3
4,58,72,22
4,53,46,10
4,60,60,5
4,53,60,6
4,58,76,0
4,55,60,9
4,65,68,0
4,61,58,0
4,53,46,0
4,62,20,1
4,43,50,5
4,53,56,16
4,62,60,0
4,58,42,0
4,55,36,0
4,65,50,0
4,51,38,4
4,58,46,0
4,63,32,0
4,55,56,19
4,63,66,0
4,58,62,0
4,51,38,0
4,65,66,13
4,53,37,0
4,62,29,0
4,61,56,33
4,58,44,0
4,43,42,0
4,62,32,14
4,53,58,15
4,55,62,16
4,61,84,0
4,65,72,0
4,62,46,9
4,58,38,32
4,74,62,10
4,66,76,0
4,70,72,0
4,62,60,0
4,58,66,0
4,51,31,0
4,67,56,8
4,72,60,0
4,50,60,0
4,60,36,0
4,69,40,0
4,65,56,0
4,53,56,68
4,62,56,0
4,58,46,0
4,90,88,16
4,91,84,0
4,79,76,0
4,89,68,23
4,77,66,0
4,74,60,28
4,86,58,0
4,85,80,23
4,73,80,0
4,62,54,1
4,58,52,0
4,72,50,5
4,84,62,0
4,82,32,7
4,79,54,8
4,62,50,11
4,58,56,0
4,74,50,16
4,70,40,0
4,67,36,0
4,51,35,0
4,65,29,0
4,50,58,0
4,72,60,0
4,68,54,0
4,65,50,0
4,60,64,0
4,69,54,7
4,50,40,46
4,43,35,4
4,55,42,32
4,53,42,4
4,61,64,11
4,65,52,0
4,55,54,0
4,60,56,21
4,55,54,0
4,65,60,0
4,58,52,30
4,55,38,0
4,65,38,0
4,53,46,16
4,55,42,2
4,65,64,11
4,60,62,0
4,55,58,0
4,53,60,10
4,55,60,16
4,58,68,0
4,65,52,0
4,60,72,1
4,53,52,9
4,53,56,11
4,55,50,3
4,58,60,0
4,62,68,0
4,67,58,0
4,51,54,0
4,53,60,6
4,60,48,0
4,57,37,0
4,65,46,0
4,50,46,172
4,43,37,1
4,55,38,24
4,53,56,38
4,55,54,13
4,62,60,0
4,58,56,0
4,55,39,21
4,57,37,0
4,60,20,0
4,53,50,10
4,58,54,16
4,55,50,0
4,62,58,0
4,55,56,3
4,53,88,4
4,61,97,16
4,65,92,0
4,60,44,0
4,62,64,12
4,60,66,9
4,58,56,12
4,55,56,16
4,51,48,0
4,58,54,0
4,55,30,3
4,57,42,0
4,60,50,0
4,50,42,0
4,53,40,0
4,50,35,32
4,43,39,7
4,55,44,32
4,53,52,10
4,55,40,22
4,67,54,0
4,67,64,38
4,55,64,0
4,55,50,39
4,55,50,39
4,53,62,42
4,67,84,16
4,55,64,0
4,67,76,16
4,55,64,0
4,53,64,3
4,53,52,20
4,51,54,5
4,58,54,0
4,62,66,0
4,55,38,0
4,53,44,17
4,50,54,0
4,57,44,0
4,55,48,0
4,65,62,0
4,60,50,0
4,43,40,4
4,58,50,0
4,62,60,0
