track,note,velocity,time
0,42,86,0
0,42,82,96
0,42,94,96
0,42,94,96
0,50,112,96
0,57,112,0
0,62,107,0
0,50,112,0
0,57,112,0
0,62,107,0
0,50,103,4
0,57,107,0
0,62,103,0
0,50,103,0
0,57,107,0
0,62,103,0
0,48,103,4
0,55,107,0
0,60,95,0
0,48,103,0
0,55,107,0
0,60,95,0
0,50,107,4
0,57,107,0
0,62,127,0
0,50,107,0
0,57,107,0
0,62,127,0
0,57,112,63
0,57,112,0
0,56,117,69
0,56,117,0
0,55,122,63
0,55,122,0
0,50,107,66
0,50,107,0
0,53,122,8
0,53,122,0
0,50,117,5
0,50,117,0
0,50,112,54
0,57,112,0
0,62,107,0
0,50,112,0
0,57,112,0
0,62,107,0
0,44,66,0
0,50,99,4
0,57,99,0
0,62,103,0
0,50,99,0
0,57,99,0
0,62,103,0
0,48,95,4
0,55,107,0
0,60,95,0
0,48,95,0
0,55,107,0
0,60,95,0
0,44,66,0
0,50,107,4
0,57,117,0
0,62,112,0
0,50,107,0
0,57,117,0
0,62,112,0
0,44,66,20
0,57,107,48
0,57,107,0
0,40,103,0
0,44,66,24
0,56,117,48
0,56,117,0
0,43,85,0
0,55,103,75
0,55,103,0
0,47,85,0
0,67,117,75
0,67,117,0
0,45,85,0
0,65,117,4
0,65,117,0
0,40,103,0
0,35,100,4
0,40,103,2
0,38,79,1
0,50,127,0
0,50,112,0
0,57,107,0
0,62,107,0
0,50,112,0
0,57,107,0
0,62,107,0
0,35,100,0
0,47,40,0
0,52,117,0
0,38,73,4
0,38,122,0
0,50,117,0
0,50,91,0
0,57,103,0
0,62,99,0
0,50,91,0
0,57,103,0
0,62,99,0
0,41,35,0
0,44,66,0
0,36,69,4
0,36,117,0
0,48,122,0
0,48,95,0
0,55,103,0
0,60,83,0
0,48,95,0
0,55,103,0
0,60,83,0
0,35,100,0
0,45,62,0
0,41,40,0
0,38,89,3
0,38,127,0
0,50,122,0
0,50,107,0
0,55,55,0
0,57,112,0
0,62,103,0
0,50,107,0
0,55,55,0
0,57,112,0
0,62,103,0
0,41,30,0
0,44,66,0
0,35,100,10
0,47,40,0
0,41,61,0
0,45,85,48
0,33,104,0
0,45,117,0
0,57,100,0
0,57,95,0
0,57,95,0
0,41,32,0
0,44,66,0
0,35,100,16
0,45,62,0
0,41,42,0
0,44,93,48
0,32,104,0
0,44,112,0
0,56,117,0
0,56,117,0
0,56,117,0
0,41,33,0
0,44,66,0
0,35,100,11
0,47,41,0
0,41,61,0
0,43,89,48
0,31,100,0
0,43,112,0
0,55,122,0
0,55,122,0
0,55,122,0
0,41,37,0
0,44,66,0
0,35,100,11
0,45,62,0
0,41,44,0
0,38,75,48
0,38,112,0
0,50,108,0
0,50,107,0
0,50,107,0
0,41,33,0
0,44,66,0
0,41,79,6
0,41,127,0
0,53,122,0
0,53,107,0
0,53,107,0
0,35,100,0
0,43,85,0
0,41,61,0
0,41,33,1
0,44,66,0
0,38,79,7
0,38,117,0
0,50,104,0
0,50,117,0
0,50,117,0
0,35,100,0
0,43,85,0
0,41,44,0
0,41,33,2
0,44,66,0
0,38,101,4
0,50,127,0
0,50,107,0
0,57,112,0
0,62,117,0
0,50,107,0
0,57,112,0
0,62,117,0
0,35,100,0
0,47,41,0
0,38,75,4
0,38,117,0
0,50,108,0
0,50,87,0
0,57,99,0
0,62,99,0
0,50,87,0
0,57,99,0
0,62,99,0
0,41,35,0
0,44,66,0
0,36,75,4
0,36,108,0
0,48,112,0
0,48,99,0
0,55,103,0
0,60,81,0
0,48,99,0
0,55,103,0
0,60,81,0
0,35,100,0
0,45,62,0
0,41,40,0
0,38,81,3
0,38,108,0
0,50,122,0
0,50,112,0
0,57,87,0
0,62,107,0
0,50,112,0
0,57,87,0
0,62,107,0
0,41,33,0
0,44,66,0
0,35,100,14
0,47,41,0
0,41,61,0
0,45,89,48
0,45,117,0
0,57,104,0
0,57,117,0
0,57,117,0
0,41,40,0
0,44,66,0
0,35,100,18
0,45,62,0
0,41,42,0
0,44,85,48
0,44,117,0
0,56,112,0
0,56,112,0
0,56,112,0
0,41,37,0
0,44,66,0
0,35,100,20
0,47,42,0
0,41,61,0
0,43,77,48
0,43,108,0
0,55,117,0
0,55,107,0
0,55,107,0
0,41,42,0
0,44,66,0
0,35,100,20
0,41,54,0
0,45,62,0
0,38,71,48
0,38,104,0
0,50,104,0
0,67,122,0
0,67,122,0
0,41,37,0
0,44,66,0
0,41,81,2
0,41,127,0
0,53,122,0
0,65,122,0
0,65,122,0
0,35,100,0
0,41,61,0
0,47,42,0
0,35,100,6
0,41,37,0
0,44,66,0
0,43,75,4
0,43,108,0
0,55,122,0
0,62,112,0
0,62,112,0
0,35,100,0
0,41,44,0
0,45,62,0
0,41,62,1
0,43,85,0
0,44,66,0
0,38,85,4
0,50,112,0
0,50,112,0
0,57,103,0
0,62,107,0
0,50,112,0
0,57,103,0
0,62,107,0
0,35,100,0
0,47,42,0
0,38,71,4
0,38,117,0
0,50,117,0
0,50,87,0
0,57,81,0
0,62,103,0
0,50,87,0
0,57,81,0
0,62,103,0
0,41,35,0
0,44,66,0
0,36,79,4
0,36,112,0
0,48,112,0
0,48,91,0
0,55,103,0
0,60,83,0
0,48,91,0
0,55,103,0
0,60,83,0
0,35,100,0
0,41,40,0
0,45,62,0
0,38,79,3
0,38,122,0
0,50,122,0
0,50,107,0
0,57,91,0
0,62,99,0
0,50,107,0
0,57,91,0
0,62,99,0
0,41,30,0
0,44,66,0
0,35,100,11
0,41,61,0
0,47,42,0
0,45,93,48
0,45,112,0
0,57,104,0
0,57,117,0
0,57,117,0
0,41,32,0
0,44,66,0
0,35,100,19
0,41,42,0
0,45,62,0
0,44,97,48
0,44,117,0
0,56,112,0
0,56,107,0
0,56,107,0
0,41,33,0
0,44,66,0
0,35,100,20
0,41,61,0
0,47,43,0
0,43,89,48
0,43,112,0
0,55,112,0
0,55,122,0
0,55,122,0
0,41,37,0
0,44,66,0
0,35,100,23
0,41,44,0
0,45,62,0
0,38,73,48
0,38,112,0
0,50,100,0
0,50,112,0
0,50,112,0
0,41,33,0
0,44,66,0
0,41,85,5
0,41,117,0
0,53,112,0
0,53,117,0
0,53,117,0
0,35,100,0
0,41,61,0
0,43,85,0
0,41,33,1
0,44,66,0
0,38,79,2
0,38,108,0
0,50,112,0
0,50,107,0
0,50,107,0
0,35,100,0
0,41,44,0
0,43,85,0
0,41,33,3
0,44,66,0
0,38,110,4
0,50,122,0
0,50,103,0
0,57,107,0
0,62,112,0
0,50,103,0
0,57,107,0
0,62,112,0
0,35,100,0
0,47,43,0
0,38,71,4
0,38,108,0
0,50,96,0
0,50,87,0
0,57,83,0
0,62,99,0
0,50,87,0
0,57,83,0
0,62,99,0
0,41,35,0
0,44,66,0
0,36,73,4
0,36,104,0
0,48,100,0
0,48,81,0
0,55,95,0
0,60,83,0
0,48,81,0
0,55,95,0
0,60,83,0
0,35,100,0
0,41,40,0
0,45,62,0
0,38,79,3
0,38,112,0
0,50,117,0
0,50,117,0
0,57,103,0
0,62,103,0
0,50,117,0
0,57,103,0
0,62,103,0
0,41,33,0
0,44,66,0
0,35,100,10
0,41,61,0
0,47,43,0
0,45,93,48
0,45,108,0
0,57,100,0
0,57,112,0
0,57,112,0
0,41,40,0
0,44,66,0
0,35,100,13
0,41,42,0
0,45,62,0
0,44,85,48
0,44,112,0
0,56,112,0
0,56,112,0
0,56,112,0
0,41,37,0
0,44,66,0
0,35,100,11
0,40,103,0
0,43,85,48
0,43,122,0
0,55,127,0
0,55,112,0
0,55,112,0
0,41,42,0
0,44,66,0
0,47,85,0
0,35,100,8
0,41,54,0
0,45,40,24
0,38,77,24
0,38,117,0
0,50,108,0
0,67,103,0
0,67,103,0
0,43,85,0
0,44,66,0
0,41,85,4
0,41,122,0
0,53,122,0
0,65,127,0
0,65,127,0
0,35,100,0
0,41,61,0
0,47,62,0
0,35,100,3
0,41,37,0
0,44,66,0
0,35,100,1
0,41,44,0
0,45,62,0
0,43,85,1
0,44,66,0
0,38,105,4
0,50,122,0
0,50,95,0
0,57,99,0
0,62,103,0
0,50,95,0
0,57,99,0
0,62,103,0
0,35,100,0
0,47,62,0
0,52,117,0
0,38,77,4
0,38,108,0
0,50,104,0
0,50,91,0
0,57,99,0
0,62,99,0
0,50,91,0
0,57,99,0
0,62,99,0
0,41,35,0
0,44,66,0
0,36,81,1
0,36,117,0
0,48,100,0
0,48,83,0
0,55,79,0
0,60,83,0
0,48,83,0
0,55,79,0
0,60,83,0
0,35,100,0
0,41,40,0
0,45,62,0
0,38,89,4
0,38,122,0
0,50,122,0
0,50,103,0
0,57,95,0
0,62,99,0
0,50,103,0
0,57,95,0
0,62,99,0
0,41,30,0
0,44,66,0
0,35,100,15
0,41,61,0
0,47,62,0
0,45,89,48
0,45,117,0
0,57,112,0
0,57,107,0
0,57,107,0
0,41,32,0
0,44,66,0
0,35,100,18
0,41,42,0
0,45,62,0
0,44,81,48
0,44,122,0
0,56,127,0
0,56,117,0
0,56,117,0
0,41,33,0
0,44,66,0
0,35,100,18
0,41,61,0
0,47,62,0
0,43,89,48
0,43,117,0
0,55,117,0
0,55,117,0
0,55,117,0
0,41,37,0
0,44,66,0
0,35,100,18
0,41,44,0
0,45,62,0
0,38,73,48
0,38,122,0
0,50,100,0
0,50,95,0
0,50,95,0
0,41,33,0
0,44,66,0
0,41,79,1
0,41,127,0
0,53,122,0
0,53,112,0
0,53,112,0
0,35,100,0
0,41,61,0
0,43,85,0
0,41,33,1
0,44,66,0
0,38,77,9
0,38,117,0
0,50,112,0
0,50,112,0
0,50,112,0
0,35,100,0
0,41,44,0
0,43,85,0
0,41,33,5
0,44,66,0
0,38,93,4
0,50,127,0
0,50,112,0
0,57,107,0
0,62,103,0
0,50,112,0
0,57,107,0
0,62,103,0
0,35,100,0
0,41,61,0
0,47,62,0
0,38,79,4
0,38,100,0
0,50,100,0
0,50,83,0
0,57,99,0
0,62,95,0
0,50,83,0
0,57,99,0
0,62,95,0
0,41,35,0
0,44,66,0
0,36,77,4
0,36,104,0
0,48,108,0
0,48,87,0
0,55,95,0
0,60,83,0
0,48,87,0
0,55,95,0
0,60,83,0
0,35,100,0
0,41,40,0
0,45,62,0
0,38,79,3
0,38,117,0
0,50,117,0
0,50,103,0
0,57,95,0
0,62,99,0
0,50,103,0
0,57,95,0
0,62,99,0
0,41,33,0
0,44,66,0
0,35,100,21
0,41,61,0
0,47,62,0
0,45,81,48
0,45,108,0
0,57,100,0
0,57,117,0
0,57,117,0
0,41,40,0
0,44,66,0
0,35,100,14
0,41,42,0
0,45,62,0
0,44,85,48
0,44,117,0
0,56,108,0
0,56,112,0
0,56,112,0
0,41,37,0
0,44,66,0
0,35,100,16
0,41,61,0
0,47,62,0
0,43,79,48
0,43,100,0
0,55,122,0
0,55,103,0
0,55,103,0
0,35,100,0
0,44,66,0
0,45,85,0
0,35,100,17
0,41,54,0
0,45,85,0
0,38,79,48
0,38,108,0
0,50,100,0
0,65,122,0
0,65,122,0
0,41,37,0
0,44,66,0
0,41,85,4
0,41,127,0
0,53,117,0
0,65,117,0
0,65,117,0
0,35,100,0
0,41,50,0
0,43,85,0
0,41,37,4
0,44,66,0
0,81,117,1
0,35,100,0
0,41,76,0
0,84,107,1
0,41,62,0
0,44,66,0
0,38,93,4
0,50,92,0
0,53,108,0
0,57,108,0
0,60,112,0
0,86,117,0
0,50,95,0
0,57,99,0
0,62,99,0
0,50,95,0
0,57,99,0
0,62,99,0
0,35,100,0
0,47,62,0
0,52,117,0
0,38,79,1
0,38,96,0
0,86,112,0
0,50,87,0
0,57,95,0
0,62,87,0
0,50,87,0
0,57,95,0
0,62,87,0
0,41,35,0
0,44,66,0
0,36,77,4
0,36,104,0
0,48,86,0
0,84,117,0
0,48,91,0
0,55,103,0
0,60,87,0
0,48,91,0
0,55,103,0
0,60,87,0
0,35,100,0
0,41,40,0
0,45,62,0
0,38,93,2
0,38,122,0
0,50,104,0
0,86,107,0
0,50,99,0
0,57,99,0
0,62,99,0
0,50,99,0
0,57,99,0
0,62,99,0
0,41,33,0
0,44,66,0
0,35,100,3
0,41,61,0
0,47,62,0
0,33,81,48
0,45,104,0
0,57,100,0
0,57,99,0
0,57,99,0
0,41,40,0
0,44,66,0
0,35,100,13
0,41,42,0
0,45,62,0
0,32,89,48
0,44,112,0
0,56,92,0
0,56,107,0
0,56,107,0
0,41,37,0
0,44,66,0
0,35,100,13
0,41,61,0
0,47,62,0
0,31,79,48
0,43,112,0
0,55,104,0
0,55,107,0
0,55,107,0
0,41,42,0
0,44,66,0
0,35,100,1
0,41,54,0
0,45,62,0
0,38,79,48
0,38,104,0
0,50,96,0
0,62,117,0
0,67,95,0
0,62,117,0
0,67,95,0
0,41,37,0
0,44,66,0
0,41,85,4
0,41,108,0
0,53,108,0
0,60,112,0
0,65,122,0
0,60,112,0
0,65,122,0
0,35,100,0
0,41,61,0
0,47,62,0
0,35,81,2
0,41,37,0
0,44,66,0
0,38,93,4
0,38,108,0
0,50,100,0
0,62,112,0
0,62,112,0
0,35,100,0
0,41,44,0
0,45,62,0
0,35,100,5
0,41,62,0
0,43,85,0
0,44,66,0
0,38,101,4
0,50,100,0
0,86,117,0
0,50,99,0
0,57,95,0
0,62,99,0
0,50,99,0
0,57,95,0
0,62,99,0
0,35,100,0
0,47,62,0
0,38,65,4
0,38,100,0
0,50,96,0
0,86,112,0
0,50,91,0
0,57,99,0
0,62,87,0
0,50,91,0
0,57,99,0
0,62,87,0
0,41,35,0
0,44,66,0
0,36,75,4
0,36,104,0
0,48,100,0
0,84,107,0
0,48,99,0
0,55,95,0
0,60,81,0
0,48,99,0
0,55,95,0
0,60,81,0
0,35,100,0
0,41,40,0
0,45,62,0
0,38,77,4
0,38,112,0
0,50,117,0
0,86,112,0
0,50,103,0
0,57,107,0
0,62,103,0
0,50,103,0
0,57,107,0
0,62,103,0
0,41,33,0
0,44,66,0
0,35,100,14
0,41,61,0
0,47,62,0
0,45,93,48
0,45,108,0
0,57,100,0
0,81,112,0
0,57,99,0
0,57,99,0
0,41,40,0
0,44,66,0
0,35,100,17
0,41,42,0
0,45,62,0
0,44,89,48
0,44,112,0
0,56,108,0
0,79,82,0
0,56,112,0
0,56,112,0
0,41,37,0
0,44,66,0
0,77,86,6
0,35,100,0
0,41,61,0
0,47,62,0
0,43,75,48
0,43,112,0
0,55,112,0
0,55,99,0
0,55,99,0
0,41,42,0
0,44,66,0
0,35,100,23
0,41,54,0
0,45,62,0
0,38,75,48
0,38,108,0
0,50,117,0
0,65,117,0
0,65,117,0
0,41,37,0
0,44,66,0
0,41,75,4
0,41,117,0
0,53,108,0
0,65,117,0
0,65,117,0
0,35,100,0
0,41,61,0
0,47,62,0
0,35,81,2
0,41,37,0
0,44,66,0
0,35,100,1
0,41,44,0
0,45,62,0
0,41,127,1
0,50,96,3
0,55,92,0
0,59,117,0
0,84,117,0
0,35,100,0
0,41,62,0
0,43,85,0
0,44,66,0
0,38,77,4
0,50,92,0
0,53,100,0
0,86,112,0
0,50,103,0
0,57,91,0
0,62,103,0
0,50,103,0
0,57,91,0
0,62,103,0
0,35,100,0
0,47,62,0
0,38,85,4
0,38,112,0
0,50,84,0
0,86,107,0
0,50,91,0
0,57,99,0
0,62,103,0
0,50,91,0
0,57,99,0
0,62,103,0
0,41,35,0
0,44,66,0
0,36,71,4
0,36,108,0
0,48,108,0
0,84,122,0
0,48,87,0
0,55,95,0
0,60,81,0
0,48,87,0
0,55,95,0
0,60,81,0
0,35,100,0
0,41,40,0
0,45,62,0
0,38,79,4
0,38,117,0
0,50,117,0
0,86,98,0
0,50,103,0
0,57,83,0
0,62,103,0
0,50,103,0
0,57,83,0
0,62,103,0
0,41,33,0
0,44,66,0
0,35,100,6
0,41,61,0
0,47,62,0
0,33,79,48
0,45,112,0
0,57,100,0
0,81,107,0
