track,note,velocity,time
4,65,71,9010
4,63,77,0
4,60,83,0
4,57,81,0
4,41,74,0
4,41,0,3017
4,57,0,140
4,65,0,19
4,41,68,24
4,60,0,10
4,63,0,15
4,65,87,135
4,63,81,0
4,60,90,0
4,57,100,0
4,57,0,333
4,63,0,78
4,41,0,11
4,60,0,3
4,65,0,7
4,72,89,48
4,68,103,0
4,62,103,0
4,46,94,0
4,46,0,1168
4,46,91,112
4,62,0,5
4,72,0,23
4,68,0,25
4,72,93,107
4,68,107,0
4,62,103,0
4,62,0,301
4,46,0,26
4,72,0,23
4,68,0,12
4,67,81,118
4,63,91,0
4,57,95,0
4,41,77,0
4,41,0,1202
4,41,89,78
4,57,0,33
4,67,0,7
4,63,0,0
4,67,91,120
4,63,102,0
4,57,86,0
4,41,0,180
4,57,0,97
4,67,0,28
4,41,71,15
4,63,0,11
4,67,97,149
4,63,100,0
4,57,97,0
4,57,0,162
4,67,0,15
4,63,0,4
4,67,97,139
4,63,100,0
4,57,95,0
4,57,0,178
4,63,0,0
4,67,0,53
4,41,0,29
4,63,72,60
4,57,75,0
4,63,0,100
4,57,0,2
4,41,75,58
4,67,126,160
4,63,105,0
4,57,111,0
4,57,0,905
4,63,0,0
4,41,0,2
4,67,0,18
4,72,99,35
4,68,100,0
4,62,103,0
4,46,98,0
4,46,0,1142
4,72,0,101
4,62,0,10
4,68,0,23
4,46,77,4
4,72,99,160
4,68,109,0
4,62,101,0
4,62,0,202
4,46,0,36
4,68,0,37
4,72,0,28
4,46,67,17
4,72,96,160
4,68,107,0
4,62,111,0
4,68,0,87
4,62,0,39
4,72,0,29
4,72,87,165
4,68,109,0
4,62,93,0
4,62,0,142
4,68,0,6
4,72,0,33
4,46,0,32
4,68,63,107
4,68,0,90
4,46,94,70
4,72,95,160
4,68,124,0
4,62,115,0
4,72,0,873
4,62,0,5
4,68,0,9
4,46,0,43
4,67,92,30
4,63,97,0
4,57,97,0
4,41,81,0
4,41,0,1080
4,67,0,125
4,57,0,11
4,63,0,15
4,41,56,49
4,67,101,160
4,63,116,0
4,57,106,0
4,41,0,248
4,57,0,55
4,41,63,17
4,67,0,11
4,63,0,27
4,67,113,122
4,63,116,0
4,57,126,0
4,57,0,140
4,63,0,0
4,67,0,22
4,67,99,158
4,63,116,0
4,57,104,0
4,57,0,130
4,63,0,23
4,41,0,24
4,67,0,3
4,67,56,140
4,63,80,0
4,57,75,0
4,67,0,45
4,63,0,41
4,57,0,2
4,41,78,72
4,67,103,160
4,63,113,0
4,57,108,0
4,57,0,190
4,63,0,0
4,67,0,7
4,67,110,123
4,63,113,0
4,57,115,0
4,57,0,173
4,63,0,8
4,67,0,10
4,41,0,19
4,74,101,430
4,70,105,0
4,64,104,0
4,48,95,0
4,64,0,278
4,74,0,9
4,70,0,13
4,74,101,180
4,70,118,0
4,64,120,0
4,64,0,167
4,74,0,0
4,70,0,55
4,74,99,258
4,70,118,0
4,64,110,0
4,70,0,163
4,64,0,8
4,74,0,16
4,70,74,133
4,64,57,0
4,64,0,31
4,48,0,6
4,70,0,8
4,48,75,115
4,74,108,160
4,70,124,0
4,64,117,0
4,48,0,86
4,44,75,74
4,44,0,76
4,64,0,1
4,74,0,28
4,70,0,8
4,72,89,47
4,68,107,0
4,62,99,0
4,46,78,0
4,62,0,262
4,72,0,23
4,68,0,0
4,46,0,142
4,72,104,53
4,68,109,0
4,62,115,0
4,62,0,282
4,72,0,6
4,68,0,27
4,72,91,165
4,68,107,0
4,62,101,0
4,62,0,310
4,46,97,10
4,72,0,3
4,68,0,3
4,72,103,154
4,68,109,0
4,67,93,0
4,62,106,0
4,67,0,225
4,46,0,27
4,68,0,15
4,62,0,30
4,72,0,34
4,65,91,149
4,63,103,0
4,57,97,0
4,41,82,0
4,41,0,716
4,65,0,51
4,57,0,9
4,63,0,16
4,41,78,8
4,65,100,160
4,63,105,0
4,57,108,0
4,57,0,186
4,63,0,2
4,65,0,12
4,65,99,120
4,63,109,0
4,57,108,0
4,57,0,181
4,63,0,21
4,65,0,38
4,41,0,56
4,63,77,24
4,57,64,0
4,57,0,90
4,63,0,47
4,41,97,23
4,41,0,157
4,58,105,323
4,59,108,160
4,58,0,12
4,59,0,165
4,74,84,143
4,70,87,0
4,67,96,0
4,64,104,0
4,60,122,0
4,60,0,817
4,70,0,16
4,64,0,0
4,67,0,12
4,74,0,0
4,79,106,275
4,75,103,0
4,69,107,0
4,53,97,0
4,53,0,1211
4,53,87,69
4,69,0,52
4,79,0,3
4,75,0,18
4,79,111,87
4,75,121,0
4,69,120,0
4,69,0,246
4,69,112,74
4,79,0,22
4,75,0,21
4,53,0,28
4,69,0,9
4,72,111,80
4,68,114,0
4,65,108,0
4,46,106,0
4,46,0,1161
4,46,93,119
4,65,0,2
4,72,0,11
4,68,0,0
4,72,127,147
4,68,127,0
4,65,119,0
4,65,0,295
4,68,0,1
4,72,0,27
4,46,0,4
4,79,103,153
4,75,114,0
4,69,106,0
4,53,103,0
4,53,0,653
4,79,0,147
4,53,93,0
4,69,0,11
4,75,0,26
4,79,105,123
4,75,113,0
4,69,103,0
4,69,0,221
4,75,0,0
4,79,0,5
4,79,115,94
4,75,127,0
4,69,117,0
4,69,0,171
4,75,0,19
4,79,0,30
4,53,0,96
4,75,93,4
4,69,74,0
4,69,0,86
4,75,0,30
4,53,98,44
4,79,107,160
4,75,127,0
4,69,124,0
4,69,0,1206
4,79,0,0
4,75,0,6
4,79,108,68
4,75,127,0
4,71,47,0
4,69,112,0
4,71,0,80
4,69,0,22
4,79,0,9
4,75,0,5
4,53,0,19
4,87,101,505
4,82,104,0
4,80,111,0
4,77,103,0
4,46,110,0
4,82,0,51
4,80,0,5
4,77,0,6
4,87,0,13
4,87,97,85
4,82,91,0
4,80,104,0
4,77,93,0
4,82,0,36
4,77,0,11
4,87,0,8
4,80,0,1
4,82,79,104
4,80,89,0
4,77,84,0
4,82,0,20
4,77,0,32
4,80,0,0
4,87,101,108
4,82,111,0
4,80,114,0
4,77,109,0
4,82,0,50
4,80,0,6
4,77,0,7
4,87,0,17
4,87,81,80
4,82,78,0
4,80,96,0
4,77,91,0
4,82,0,20
4,87,0,16
4,80,0,11
4,77,0,6
4,87,98,107
4,82,91,0
4,80,104,0
4,77,97,0
4,82,0,27
4,87,0,4
4,77,0,17
4,80,0,9
4,87,93,103
4,82,97,0
4,80,110,0
4,77,99,0
4,80,0,45
4,82,0,1
4,77,0,11
4,87,0,6
4,87,89,97
4,82,93,0
4,80,101,0
4,77,89,0
4,82,0,22
4,87,0,5
4,77,0,19
4,80,0,7
4,87,81,107
4,82,84,0
4,80,93,0
4,77,85,0
4,87,0,27
4,82,0,13
4,77,0,2
4,80,0,8
4,87,90,110
4,82,96,0
4,80,110,0
4,77,106,0
4,77,0,46
4,82,0,0
4,80,0,16
4,87,0,9
4,87,81,89
4,82,77,0
4,80,100,0
4,77,91,0
4,82,0,26
4,87,0,11
4,77,0,4
4,80,0,0
4,87,90,119
4,82,79,0
4,80,97,0
4,77,89,0
4,82,0,76
4,46,0,29
4,77,0,10
4,80,0,10
4,87,0,1
4,87,102,34
4,82,102,0
4,80,101,0
4,77,98,0
4,46,96,0
4,77,0,196
4,82,0,2
4,80,0,10
4,87,0,4
4,87,119,108
4,82,98,0
4,80,106,0
4,77,117,0
4,82,0,145
4,80,0,37
4,77,0,0
4,87,0,0
4,87,101,138
4,82,102,0
4,80,113,0
4,77,108,0
4,82,0,125
4,77,0,18
4,87,0,7
4,80,0,7
4,46,0,56
4,87,96,107
4,82,127,0
4,80,111,0
4,77,111,0
4,46,108,0
4,77,0,273
4,82,0,0
4,80,0,9
4,87,0,8
4,87,110,190
4,82,110,0
4,80,116,0
4,77,112,0
4,82,0,255
4,87,0,0
4,77,0,8
4,80,0,0
4,46,0,23
4,75,127,194
4,72,126,0
4,69,117,0
4,41,91,0
4,69,0,181
4,72,0,9
4,75,0,13
4,75,127,117
4,72,120,0
4,69,106,0
4,69,0,161
4,69,103,159
4,75,0,15
4,41,0,132
4,69,0,10
4,41,97,3
4,72,0,1
4,75,123,159
4,72,119,0
4,69,109,0
4,69,0,290
4,72,0,96
4,75,0,12
4,75,97,82
4,72,107,0
4,69,113,0
4,69,0,331
4,72,0,50
4,75,0,7
4,79,101,92
4,75,108,0
4,69,106,0
4,53,88,0
4,53,0,736
4,53,89,64
4,69,0,20
4,79,0,5
4,75,0,23
4,79,106,112
4,75,113,0
4,69,109,0
4,69,0,237
4,79,0,10
4,75,0,0
4,79,107,73
4,75,114,0
4,69,112,0
4,41,0,178
4,79,0,277
4,69,0,1
4,75,0,12
4,53,0,5
4,83,119,167
4,79,108,0
4,76,107,0
4,48,102,0
4,79,0,76
4,83,0,40
4,84,108,44
4,79,92,0
4,84,0,83
4,76,0,2
4,79,0,1
4,84,107,74
4,79,93,0
4,76,73,0
4,84,0,56
4,79,0,14
4,76,0,37
4,84,111,53
4,79,88,0
4,76,73,0
4,84,0,27
4,79,0,63
4,76,0,7
4,84,97,63
4,79,85,0
4,76,77,0
4,84,0,58
4,79,0,22
4,84,93,80
4,79,74,0
4,76,0,43
4,79,0,35
4,84,0,15
4,83,119,67
4,79,108,0
4,76,107,0
4,79,0,76
4,83,0,40
4,84,108,44
4,79,92,0
4,84,0,83
4,76,0,2
4,79,0,1
4,84,107,74
4,79,93,0
4,76,73,0
4,84,0,56
4,79,0,14
4,76,0,37
4,84,111,53
4,79,88,0
4,76,73,0
4,84,0,27
4,79,0,63
4,76,0,7
4,84,97,63
4,79,85,0
4,76,77,0
4,84,0,58
4,79,0,22
4,84,93,80
4,79,74,0
4,76,0,43
4,79,0,35
4,84,0,15
4,83,119,67
4,79,108,0
4,77,107,0
4,46,108,0
4,48,0,6
4,79,0,70
4,83,0,40
4,84,108,44
4,79,92,0
4,84,0,83
4,77,0,2
4,79,0,1
4,84,107,74
4,79,93,0
4,77,73,0
4,84,0,56
4,79,0,14
4,77,0,37
4,72,126,53
4,65,124,0
4,65,0,246
4,72,0,12
4,68,121,62
4,65,107,0
4,68,0,123
4,69,124,37
4,65,0,170
4,69,0,10
4,65,108,140
4,65,0,118
4,68,127,42
4,68,0,255
4,65,127,65
4,65,0,160
4,79,100,0
4,75,107,0
4,69,102,0
4,41,97,0
4,46,0,40
4,69,0,642
4,75,0,11
4,79,0,7
4,79,104,100
4,75,110,0
4,69,100,0
4,75,0,72
4,69,0,9
4,79,0,7
4,41,0,128
4,41,96,264
4,79,105,160
4,75,110,0
4,69,108,0
4,41,0,327
4,79,0,45
4,75,0,4
4,69,0,0
4,63,113,424
4,64,97,160
4,63,0,57
4,64,0,204
4,72,79,59
4,70,76,0
4,67,77,0
4,64,77,0
4,60,108,0
4,60,0,573
4,64,0,377
4,67,0,8
4,70,0,13
4,72,0,0
4,69,102,149
4,69,0,1193
4,79,113,87
4,75,111,0
4,69,117,0
4,75,0,172
4,69,0,9
4,79,0,27
4,80,101,432
4,77,113,0
4,74,113,0
4,70,127,0
4,46,106,0
4,77,0,1101
4,70,0,24
4,74,0,11
4,80,0,25
4,80,100,119
4,77,97,0
4,74,104,0
4,70,119,0
4,77,0,70
4,46,0,5
4,70,0,3
4,74,0,14
4,80,0,56
4,79,107,492
4,75,104,0
4,69,101,0
4,53,100,0
4,79,0,176
4,69,0,15
4,75,0,20
4,79,115,109
4,75,118,0
4,69,109,0
4,75,0,253
4,69,0,2
4,79,0,28
4,53,0,48
4,53,83,149
4,79,109,160
4,75,118,0
4,69,115,0
4,53,0,691
4,69,0,27
4,75,0,7
4,79,0,23
4,79,105,212
4,75,106,0
4,69,103,0
4,53,97,0
4,69,0,650
4,79,0,5
4,75,0,2
4,79,113,143
4,75,127,0
4,69,119,0
4,75,0,88
4,53,0,8
4,69,0,7
4,79,0,28
4,53,80,349
4,79,107,160
4,75,113,0
4,69,105,0
4,53,0,273
4,69,0,43
4,75,0,40
4,79,0,19
4,86,107,105
4,82,107,0
4,80,110,0
4,74,111,0
4,46,93,0
4,82,0,50
4,80,0,6
4,74,0,9
4,86,0,2
4,86,91,93
4,82,86,0
4,80,93,0
4,74,86,0
4,82,0,31
4,86,0,27
4,80,0,2
4,74,0,6
4,86,102,94
4,82,103,0
4,80,108,0
4,74,106,0
4,86,0,20
4,80,0,35
4,74,0,0
4,82,0,0
4,86,107,105
4,82,103,0
4,80,107,0
4,74,107,0
4,80,0,51
4,82,0,0
4,74,0,4
4,86,0,13
4,86,97,92
4,82,94,0
4,80,98,0
4,74,98,0
4,80,0,40
4,82,0,0
4,74,0,10
4,86,0,0
4,86,87,110
4,82,92,0
4,80,101,0
4,74,97,0
4,86,0,20
4,82,0,12
4,80,0,20
4,74,0,1
4,86,105,107
4,82,101,0
4,80,104,0
4,74,102,0
4,82,0,55
4,80,0,7
4,74,0,0
4,86,0,29
4,86,91,69
4,82,81,0
4,80,96,0
4,74,93,0
4,82,0,20
4,86,0,6
4,74,0,16
4,80,0,0
4,86,93,118
4,82,81,0
4,80,94,0
4,74,91,0
4,82,0,20
4,86,0,27
4,74,0,1
4,80,0,5
4,86,84,107
4,82,103,0
4,80,104,0
4,74,104,0
4,86,0,20
4,80,0,41
4,74,0,0
4,82,0,0
4,82,89,99
4,80,93,0
4,74,87,0
4,82,0,40
4,74,0,3
4,80,0,5
4,86,72,112
4,82,93,0
4,80,92,0
4,74,87,0
4,86,0,20
4,82,0,32
4,74,0,16
4,80,0,0
4,86,117,92
4,82,113,0
4,80,114,0
4,74,122,0
4,82,0,171
4,80,0,11
4,86,0,4
4,74,0,5
4,86,116,129
4,82,123,0
4,80,113,0
4,74,120,0
4,46,0,328
4,74,0,58
4,86,0,9
4,82,0,21
4,80,0,11
4,46,89,53
4,86,120,160
4,82,123,0
4,80,111,0
4,74,111,0
4,80,0,295
4,74,0,3
4,82,0,5
4,86,0,2
4,86,108,175
4,82,106,0
4,80,110,0
4,74,107,0
4,82,0,301
4,80,0,14
4,74,0,0
4,86,0,0
4,46,0,12
4,80,123,153
4,77,119,0
4,72,120,0
4,41,89,0
4,81,113,160
4,80,0,16
4,77,0,34
4,81,0,55
4,72,0,17
4,80,113,38
4,77,107,0
4,72,74,0
4,80,0,57
4,77,0,23
4,72,0,17
4,80,114,63
4,77,108,0
4,72,92,0
4,80,0,157
4,81,94,3
4,79,89,0
4,79,0,20
4,77,0,32
4,81,0,49
4,72,0,24
4,80,101,35
4,77,103,0
4,72,62,0
4,80,0,55
4,77,0,27
4,72,0,1
4,80,127,77
4,77,106,0
4,72,89,0
4,80,0,148
4,81,93,12
4,77,0,7
4,72,0,63
4,81,0,15
4,80,118,75
4,77,107,0
4,72,85,0
4,80,0,75
4,72,0,6
4,77,0,0
4,80,127,79
4,77,127,0
4,72,104,0
4,72,0,268
4,80,0,4
4,77,0,15
4,41,0,11
4,41,106,22
4,80,118,160
4,75,113,0
4,72,108,0
4,72,0,237
4,80,0,6
4,75,0,4
4,80,127,73
4,75,127,0
4,72,124,0
4,72,0,162
4,75,0,38
4,80,0,32
4,41,0,50
4,80,75,38
4,75,78,0
4,72,76,0
4,80,0,32
4,72,0,16
4,75,0,39
4,41,92,73
4,80,127,160
4,75,127,0
4,72,127,0
4,72,0,167
4,80,0,16
4,75,0,9
4,80,123,128
4,75,125,0
4,72,124,0
4,80,0,313
4,72,0,13
4,75,0,12
4,41,0,7
4,83,124,295
4,77,126,0
4,55,97,0
4,48,93,0
4,84,119,160
4,83,0,6
4,77,0,15
4,84,0,50
4,84,108,89
4,77,103,0
4,77,0,82
4,84,0,8
4,83,122,70
4,77,108,0
4,83,0,100
4,77,0,8
4,84,108,52
4,77,84,0
4,77,0,65
4,84,0,12
4,84,112,83
4,77,102,0
4,77,0,90
4,84,0,8
4,83,122,62
4,77,105,0
4,83,0,97
4,77,0,13
4,84,103,50
4,77,88,0
4,77,0,40
4,84,0,11
4,84,105,109
4,77,91,0
4,77,0,72
4,84,0,34
