track,note,velocity,time
1,57,48,0
1,64,55,0
1,64,0,360
1,65,51,0
1,65,0,120
1,69,55,0
1,69,0,160
1,67,51,0
1,67,0,160
1,65,51,0
1,65,0,160
1,64,53,0
1,64,0,240
1,65,52,0
1,65,0,240
1,57,0,0
1,62,52,0
1,57,48,0
1,62,0,360
1,69,58,120
1,69,0,960
1,57,0,0
1,55,48,0
1,62,55,0
1,62,0,360
1,64,50,0
1,64,0,120
1,67,55,0
1,67,0,160
1,65,51,0
1,65,0,160
1,64,51,0
1,64,0,160
1,62,55,0
1,62,0,240
1,64,52,0
1,64,0,240
1,55,0,0
1,62,51,0
1,64,55,0
1,62,0,240
1,61,44,0
1,61,0,240
1,59,47,0
1,59,0,240
1,61,42,0
1,61,0,240
1,59,47,0
1,59,0,240
1,57,42,0
1,57,0,240
1,64,0,0
1,57,48,0
1,64,55,0
1,64,0,360
1,65,51,0
1,65,0,120
1,69,55,0
1,69,0,160
1,67,51,0
1,67,0,160
1,65,51,0
1,65,0,160
1,64,53,0
1,64,0,240
1,65,52,0
1,65,0,240
1,57,0,0
1,57,48,0
1,62,52,0
1,62,0,360
1,69,57,120
1,69,0,960
1,57,0,0
1,69,57,0
1,62,50,0
1,69,0,360
1,71,52,0
1,71,0,120
1,74,57,0
1,74,0,160
1,72,53,0
1,72,0,160
1,71,53,0
1,71,0,160
1,69,57,0
1,69,0,240
1,71,55,0
1,71,0,240
1,67,57,0
1,67,0,240
1,69,51,0
1,69,0,240
1,62,0,0
1,60,47,0
1,67,59,0
1,67,0,240
1,69,53,0
1,69,0,240
1,71,59,0
1,71,0,240
1,72,55,0
1,72,0,240
1,60,0,0
1,65,57,0
1,59,50,0
1,65,0,360
1,67,52,0
1,67,0,120
1,71,57,0
1,71,0,160
1,69,53,0
1,69,0,160
1,67,53,0
1,67,0,160
1,59,0,0
1,65,57,0
1,59,48,0
1,65,0,240
1,67,55,0
1,67,0,240
1,59,0,0
1,59,50,0
1,64,57,0
1,59,0,960
1,64,0,480
1,69,47,480
1,74,62,0
1,74,0,480
1,81,66,0
1,81,0,960
1,72,60,0
1,72,0,480
1,69,0,0
1,67,47,0
1,79,62,0
1,79,0,480
1,67,0,0
1,77,62,480
1,71,48,0
1,71,0,480
1,77,0,0
1,67,46,0
1,79,60,0
1,79,0,460
1,67,0,0
1,67,48,20
1,79,62,0
1,79,0,480
1,67,0,0
1,72,57,0
1,72,0,480
1,53,69,480
1,53,0,360
1,55,63,0
1,58,69,120
1,55,0,10
1,56,64,150
1,58,0,10
1,55,64,150
1,56,0,10
1,53,69,150
1,55,0,10
1,55,66,230
1,53,0,10
1,55,0,230
1,75,72,0
1,68,59,0
1,75,0,360
1,77,66,0
1,77,0,120
1,80,71,0
1,80,0,160
1,79,69,0
1,79,0,160
1,77,69,0
1,77,0,160
1,75,71,0
1,75,0,240
1,77,70,0
1,77,0,240
1,68,0,0
1,67,55,0
1,73,71,0
1,73,0,360
1,75,66,0
1,75,0,120
1,79,71,0
1,79,0,160
1,77,69,0
1,77,0,160
1,75,69,0
1,75,0,160
1,73,71,0
1,73,0,240
1,75,70,0
1,75,0,240
1,67,0,0
1,63,55,0
1,60,55,0
1,72,61,0
1,72,0,1440
1,60,0,0
1,63,0,0
1,60,55,0
1,64,55,0
1,72,61,0
1,72,0,1440
1,64,0,0
1,60,0,0
1,68,66,0
1,65,51,0
1,60,51,0
1,68,0,240
1,70,61,0
1,70,0,240
1,68,66,0
1,68,0,240
1,70,62,0
1,70,0,240
1,72,66,0
1,72,0,240
1,73,62,0
1,73,0,240
1,60,0,0
1,65,0,0
1,70,72,0
1,65,51,0
1,70,0,240
1,72,63,0
1,72,0,240
1,70,70,0
1,70,0,240
1,72,66,0
1,72,0,240
1,73,64,0
1,73,0,160
1,75,70,0
1,75,0,160
1,77,73,0
1,77,0,160
1,65,0,0
1,79,78,0
1,65,59,0
1,70,58,0
1,65,0,480
1,64,59,0
1,64,0,960
1,70,0,0
1,79,0,0
1,69,68,0
1,76,83,0
1,76,0,360
1,77,77,0
1,77,0,120
1,81,73,0
1,81,0,160
1,79,74,0
1,79,0,160
1,77,73,0
1,77,0,160
1,76,77,0
1,76,0,240
1,77,75,0
1,77,0,240
1,74,78,0
1,74,0,460
1,69,0,0
1,69,63,20
1,81,84,0
1,81,0,960
1,69,0,0
1,74,84,0
1,67,68,0
1,74,0,360
1,76,73,0
1,76,0,120
1,79,73,0
1,79,0,160
1,77,73,0
1,77,0,160
1,76,72,0
1,76,0,160
1,67,0,0
1,67,62,0
1,74,78,0
1,74,0,240
1,76,74,0
1,76,0,240
1,67,0,0
1,74,77,0
1,67,68,0
1,76,71,0
1,74,0,240
1,73,64,0
1,73,0,240
1,71,69,0
1,71,0,240
1,73,62,0
1,73,0,240
1,76,0,0
1,67,0,0
1,71,69,0
1,71,0,240
1,69,62,0
1,69,0,240
1,76,84,0
1,69,68,0
1,76,0,360
1,77,77,0
1,77,0,120
1,81,75,0
1,81,0,160
1,79,73,0
1,79,0,160
1,77,72,0
1,77,0,160
1,76,75,0
1,76,0,240
1,77,74,0
1,77,0,240
1,74,78,0
1,74,0,450
1,69,0,30
1,69,73,0
1,81,80,0
1,81,0,960
1,69,0,0
1,65,57,0
1,74,71,0
1,67,57,0
1,74,0,360
1,76,62,0
1,76,0,120
1,79,67,0
1,79,0,160
1,77,62,0
1,77,0,160
1,76,60,0
1,76,0,160
1,74,62,0
1,74,0,240
1,76,58,0
1,76,0,240
1,67,0,0
1,65,0,0
1,72,57,0
1,69,47,0
1,65,47,0
1,72,0,240
1,74,51,0
1,74,0,240
1,72,59,0
1,72,0,240
1,74,53,0
1,74,0,240
1,76,59,0
1,76,0,240
1,77,55,0
1,77,0,240
1,65,0,0
1,69,0,0
1,64,50,0
1,70,57,0
1,70,0,360
1,72,52,0
1,72,0,120
1,76,57,0
1,76,0,160
1,74,53,0
1,74,0,160
1,72,53,0
1,72,0,160
1,70,57,0
1,70,0,240
1,72,55,0
1,72,0,240
1,64,0,0
1,63,42,0
1,69,48,0
1,69,0,1440
1,63,0,0
1,62,55,0
1,69,52,0
1,62,0,360
1,64,53,0
1,64,0,120
1,69,0,0
1,67,57,0
1,65,53,160
1,65,0,160
1,64,50,0
1,64,0,160
1,67,0,0
1,74,60,0
1,57,47,480
1,65,47,0
1,74,0,480
1,65,60,0
1,65,0,480
1,72,60,0
1,65,0,480
1,57,0,0
1,72,0,480
1,70,60,0
1,70,0,480
1,64,60,0
1,72,60,0
1,72,0,480
1,64,0,0
1,72,48,0
1,65,42,0
1,65,0,1440
1,72,0,0
1,79,57,0
1,79,0,360
1,81,52,0
1,81,0,120
1,84,57,0
1,84,0,160
1,82,53,0
1,82,0,160
1,81,53,0
1,81,0,160
1,79,57,0
1,79,0,240
1,81,55,0
1,81,0,240
1,77,57,0
1,77,0,240
1,79,51,0
1,79,0,240
1,77,59,0
1,77,0,240
1,79,53,0
1,79,0,240
1,81,59,0
1,81,0,240
1,82,55,0
1,82,0,240
1,74,57,0
1,74,0,360
1,76,52,0
1,76,0,120
1,79,57,0
1,79,0,160
1,77,53,0
1,77,0,160
1,76,53,0
1,76,0,160
1,74,57,0
1,74,0,240
1,76,55,0
1,76,0,240
1,77,57,0
1,72,57,0
1,72,0,1440
1,77,0,0
1,70,50,0
1,65,50,0
1,77,57,0
1,77,0,1440
1,65,0,0
1,70,0,0
1,84,57,0
1,72,50,0
1,77,50,0
1,77,0,1440
1,72,0,0
1,84,0,0
1,77,49,0
1,89,56,0
1,82,49,0
1,82,0,1440
1,89,0,0
1,77,0,0
1,96,55,0
1,89,49,0
1,84,49,0
1,84,0,1920
1,89,0,0
1,96,0,0
1,58,45,2880
1,63,50,0
1,63,0,480
1,58,0,0
1,60,48,0
1,65,53,0
1,65,0,480
1,60,0,0
1,61,50,0
1,65,57,0
1,65,0,480
1,61,0,0
1,58,44,0
1,68,49,0
1,68,0,480
1,58,0,0
1,61,42,0
1,65,48,0
1,65,0,480
1,61,0,0
1,58,45,480
1,63,50,0
1,63,0,480
1,58,0,0
1,60,48,0
1,65,53,0
1,65,0,480
1,60,0,0
1,61,50,0
1,65,57,0
1,65,0,480
1,61,0,0
1,58,44,0
1,68,49,0
1,68,0,480
1,58,0,0
1,65,42,0
1,70,48,0
1,70,0,480
1,65,0,0
1,63,49,480
1,68,55,0
1,68,0,480
1,63,0,0
1,65,52,0
1,70,58,0
1,70,0,480
1,65,0,0
1,66,55,0
1,70,62,0
1,70,0,480
1,66,0,0
1,63,48,0
1,73,53,0
1,73,0,480
1,63,0,0
1,66,46,0
1,70,52,0
1,70,0,480
1,66,0,0
1,63,49,0
1,68,55,0
1,68,0,480
1,63,0,0
1,58,42,0
1,65,48,0
1,65,0,480
1,58,0,0
1,63,48,0
1,68,55,0
1,68,0,480
1,63,0,0
1,61,44,0
1,65,49,0
1,65,0,480
1,61,0,0
1,58,47,0
1,66,52,0
1,66,0,480
1,58,0,0
1,60,42,0
1,63,48,0
1,63,0,480
1,60,0,0
1,58,50,480
1,63,39,240
1,63,0,240
1,58,0,0
1,60,53,0
1,65,41,240
1,65,0,240
1,60,0,0
1,61,55,0
1,65,42,240
1,65,0,240
1,58,49,0
1,58,0,240
1,68,37,0
1,68,0,240
1,61,0,0
1,61,47,0
1,65,35,240
1,65,0,240
1,61,0,0
1,58,45,480
1,63,35,240
1,63,0,240
1,58,0,0
1,60,48,0
1,65,37,240
1,65,0,240
1,60,0,0
1,61,49,0
1,65,38,240
1,65,0,240
1,58,44,0
1,58,0,240
1,68,33,0
1,68,0,240
1,61,0,0
1,65,41,0
1,70,30,240
1,70,0,240
1,65,0,0
1,62,49,480
1,67,55,0
1,67,0,480
1,62,0,0
1,64,52,0
1,69,58,0
1,69,0,480
1,64,0,0
1,65,55,0
1,69,62,0
1,69,0,480
1,65,0,0
1,65,48,0
1,72,53,0
1,72,0,480
1,65,0,0
1,65,46,0
1,69,52,0
1,69,0,480
1,65,0,0
1,62,55,480
1,67,44,240
1,67,0,240
1,62,0,0
1,64,57,0
1,69,45,240
1,69,0,240
1,64,0,0
1,65,60,0
1,69,47,240
1,69,0,240
1,65,0,0
1,65,57,0
1,72,45,240
1,72,0,240
1,65,0,0
1,69,53,0
1,74,42,240
1,74,0,240
1,69,0,0
1,84,51,480
1,79,45,0
1,79,0,480
1,84,0,0
1,74,39,0
1,81,44,0
1,81,0,480
1,74,0,0
1,84,51,0
1,79,45,0
1,79,0,480
1,84,0,0
1,77,39,0
1,81,44,0
1,81,0,480
1,77,0,0
1,74,45,0
1,82,51,0
1,82,0,480
1,74,0,0
1,76,37,0
1,79,41,0
1,79,0,480
1,76,0,0
1,72,51,0
1,67,45,0
1,67,0,480
1,72,0,0
1,62,39,0
1,69,44,0
1,69,0,480
1,62,0,0
1,72,51,0
1,67,45,0
1,67,0,480
1,72,0,0
1,65,39,0
1,69,44,0
1,69,0,480
1,65,0,0
1,62,45,0
1,70,51,0
1,70,0,480
1,62,0,0
1,64,37,0
1,67,41,0
1,67,0,480
1,64,0,0
1,60,48,0
1,69,51,0
1,69,0,960
1,60,0,0
1,62,40,0
1,65,44,0
1,65,0,480
1,62,0,0
1,58,48,0
1,67,51,0
1,67,0,960
1,58,0,0
1,58,40,0
1,67,44,0
1,62,42,480
1,64,42,480
1,62,0,20
1,58,0,460
1,67,0,0
1,65,45,0
1,64,0,20
1,64,39,460
1,65,0,20
1,62,30,220
1,64,0,20
1,64,33,220
1,62,0,20
1,64,0,460
1,57,48,0
1,64,55,0
1,64,0,360
1,65,51,0
1,65,0,120
1,69,55,0
1,69,0,160
1,67,51,0
1,67,0,160
1,65,51,0
1,65,0,160
1,64,53,0
1,64,0,240
1,65,52,0
1,65,0,240
1,57,0,0
1,57,48,0
1,62,52,0
1,62,0,360
1,69,58,120
1,69,0,960
1,57,0,0
1,55,48,0
1,62,55,0
1,62,0,360
1,64,50,0
1,64,0,120
1,67,55,0
1,67,0,160
1,65,51,0
1,65,0,160
1,64,51,0
1,64,0,160
1,62,55,0
1,62,0,240
1,64,52,0
1,64,0,240
1,55,0,0
1,62,51,0
1,64,55,0
1,62,0,240
1,61,44,0
1,61,0,240
1,59,47,0
1,59,0,240
1,61,42,0
1,61,0,240
1,59,47,0
1,59,0,240
1,57,42,0
1,57,0,240
1,64,0,0
1,57,48,0
1,64,55,0
1,64,0,360
1,65,51,0
1,65,0,120
1,69,55,0
1,69,0,160
1,67,51,0
1,67,0,160
1,65,51,0
1,65,0,160
1,64,53,0
1,64,0,240
1,65,52,0
1,65,0,240
1,57,0,0
1,57,48,0
1,62,52,0
1,62,0,360
1,69,57,120
1,69,0,960
1,57,0,0
1,62,50,0
1,69,57,0
1,69,0,360
1,71,52,0
1,71,0,120
1,74,57,0
1,74,0,160
1,72,53,0
1,72,0,160
1,71,53,0
1,71,0,160
1,69,57,0
1,69,0,240
1,71,55,0
1,71,0,240
1,67,57,0
1,67,0,240
1,69,51,0
1,69,0,240
1,62,0,0
1,60,47,0
1,67,59,0
1,67,0,240
1,69,53,0
1,69,0,240
1,71,59,0
1,71,0,240
1,72,55,0
1,72,0,240
1,60,0,0
1,59,50,0
1,65,57,0
1,65,0,360
1,67,52,0
1,67,0,120
1,71,57,0
1,71,0,160
1,69,53,0
1,69,0,160
1,67,53,0
1,67,0,160
1,59,0,0
1,59,48,0
1,65,57,0
1,65,0,240
1,67,55,0
1,67,0,240
1,59,0,0
1,59,50,0
1,64,57,0
1,59,0,960
1,64,0,480
1,69,47,480
1,74,62,0
1,74,0,480
1,81,67,0
1,81,0,960
1,72,60,0
1,72,0,480
1,69,0,0
1,67,47,0
1,79,62,0
1,79,0,480
1,67,0,0
1,71,48,480
1,77,62,0
1,77,0,480
1,71,0,0
1,67,46,0
1,79,60,0
1,79,0,460
1,67,0,0
1,67,48,20
1,79,62,0
1,79,0,480
1,67,0,0
1,72,57,0
1,72,0,480
1,53,69,480
1,53,0,360
1,55,63,0
1,58,69,120
1,55,0,10
1,56,64,150
1,58,0,10
1,55,64,150
1,56,0,10
1,53,69,150
1,55,0,10
1,55,66,230
1,53,0,10
1,55,0,230
1,68,59,0
1,75,72,0
1,75,0,360
1,77,66,0
1,77,0,120
1,80,71,0
1,80,0,160
1,79,69,0
1,79,0,160
1,77,69,0
1,77,0,160
1,75,71,0
1,75,0,240
1,77,70,0
1,77,0,240
1,68,0,0
1,67,55,0
1,73,71,0
1,73,0,360
1,75,66,0
1,75,0,120
1,79,71,0
1,79,0,160
1,77,69,0
1,77,0,160
1,75,69,0
1,75,0,160
1,73,71,0
1,73,0,240
1,75,70,0
1,75,0,240
1,67,0,0
1,60,55,0
1,63,55,0
1,72,61,0
1,72,0,1440
1,63,0,0
1,60,0,0
1,60,55,0
1,64,55,0
1,72,61,0
1,72,0,1440
1,64,0,0
1,60,0,0
1,60,51,0
1,65,51,0
1,68,66,0
1,68,0,240
1,70,61,0
1,70,0,240
1,68,66,0
1,68,0,240
1,70,62,0
1,70,0,240
1,72,66,0
1,72,0,240
1,73,62,0
1,73,0,240
1,65,0,0
1,60,0,0
1,65,51,0
1,70,72,0
1,70,0,240
1,72,63,0
1,72,0,240
1,70,70,0
1,70,0,240
1,72,66,0
1,72,0,240
1,73,64,0
1,73,0,160
1,75,70,0
1,75,0,160
1,77,73,0
1,77,0,160
1,65,0,0
1,65,59,0
1,70,58,0
1,79,78,0
1,65,0,480
1,64,59,0
1,64,0,960
1,79,0,0
1,70,0,0
1,69,68,0
1,76,83,0
1,76,0,360
1,77,77,0
1,77,0,120
1,81,73,0
1,81,0,160
1,79,74,0
1,79,0,160
1,77,73,0
1,77,0,160
1,76,77,0
1,76,0,240
1,77,75,0
1,77,0,240
1,74,78,0
1,74,0,460
1,69,0,0
1,69,63,20
1,81,84,0
1,81,0,960
1,69,0,0
1,67,68,0
1,74,84,0
1,74,0,360
1,76,73,0
1,76,0,120
1,79,73,0
