track,note,velocity,time
9,36,64,960
9,36,0,229
9,36,64,11
9,36,0,193
9,43,70,7
9,43,0,40
9,36,75,0
9,36,0,220
9,36,74,20
9,36,0,200
9,43,73,0
9,43,0,37
9,36,64,3
9,36,0,229
9,36,64,11
9,36,0,193
9,43,70,7
9,43,0,40
9,36,64,0
9,36,0,229
9,43,64,11
9,43,0,229
9,36,64,11
9,36,0,229
9,36,64,11
9,36,0,193
9,31,70,7
9,31,0,40
9,33,64,0
9,33,0,229
9,33,64,11
9,33,0,193
9,40,70,7
9,40,0,40
9,38,64,0
9,38,0,229
9,38,64,11
9,38,0,193
9,45,70,7
9,45,0,40
9,43,64,0
9,43,0,229
9,43,64,11
9,43,0,193
9,38,70,7
9,38,0,40
9,36,64,0
9,36,0,229
9,36,64,11
9,36,0,193
9,31,70,7
9,31,0,40
9,34,64,0
9,34,0,229
9,34,64,11
9,34,0,193
9,29,70,7
9,29,0,40
9,33,64,0
9,33,0,229
9,33,64,11
9,33,0,193
9,40,70,7
9,40,0,40
9,41,64,0
9,41,0,229
9,38,64,11
9,38,0,120
9,43,64,0
9,43,0,120
9,36,64,0
9,36,0,229
9,36,64,11
9,36,0,193
9,31,70,7
9,31,0,40
9,33,64,0
9,33,0,229
9,33,64,11
9,33,0,193
9,40,70,7
9,40,0,40
9,38,64,0
9,38,0,229
9,38,64,11
9,38,0,193
9,45,70,7
9,45,0,40
9,43,64,0
9,43,0,229
9,43,64,11
9,43,0,193
9,38,70,7
9,38,0,40
9,36,64,0
9,36,0,229
9,36,64,11
9,36,0,193
9,31,70,7
9,31,0,40
9,34,64,0
9,34,0,229
9,34,64,11
9,34,0,193
9,29,70,7
9,29,0,40
9,33,64,0
9,33,0,229
9,33,64,11
9,33,0,193
9,40,70,7
9,40,0,40
9,33,64,0
9,33,0,229
9,33,64,11
9,33,0,229
9,38,64,11
9,38,0,229
9,38,64,11
9,38,0,193
9,45,70,7
9,45,0,40
9,40,64,0
9,40,0,229
9,40,64,11
9,40,0,193
9,35,70,7
9,35,0,40
9,33,64,0
9,33,0,229
9,33,64,11
9,33,0,229
9,41,64,11
9,41,0,229
9,41,64,11
9,41,0,193
9,36,70,7
9,36,0,40
9,36,64,0
9,36,0,229
9,36,64,11
9,36,0,193
9,43,70,7
9,43,0,40
9,36,64,0
9,36,0,229
9,36,64,11
9,36,0,193
9,31,70,7
9,31,0,40
9,33,64,0
9,33,0,229
9,33,64,11
9,33,0,193
9,40,70,7
9,40,0,40
9,38,64,0
9,38,0,229
9,43,64,11
9,43,0,229
9,36,64,11
9,36,0,229
9,36,64,11
9,36,0,193
9,31,70,7
9,31,0,40
9,33,64,0
9,33,0,229
9,33,64,11
9,33,0,193
9,40,70,7
9,40,0,40
9,41,64,0
9,41,0,229
9,41,64,11
9,41,0,193
9,36,70,7
9,36,0,40
9,38,64,0
9,38,0,229
9,43,64,11
9,43,0,229
9,36,64,11
9,36,0,229
9,36,64,11
9,36,0,193
9,31,70,7
9,31,0,40
9,33,64,0
9,33,0,229
9,33,64,11
9,33,0,193
9,40,70,7
9,40,0,40
9,38,64,0
9,38,0,229
9,38,64,11
9,38,0,193
9,45,70,7
9,45,0,40
9,38,64,0
9,38,0,229
9,43,64,11
9,43,0,229
9,36,64,11
9,36,0,229
9,33,64,11
9,33,0,229
9,38,64,11
9,38,0,229
9,43,64,11
9,43,0,229
9,36,64,11
9,36,0,229
9,36,64,11
9,36,0,193
9,31,70,7
9,31,0,40
9,33,64,0
9,33,0,229
9,33,64,11
9,33,0,193
9,40,70,7
9,40,0,40
9,38,64,0
9,38,0,229
9,38,64,11
9,38,0,193
9,45,70,7
9,45,0,40
9,43,64,0
9,43,0,229
9,43,64,11
9,43,0,193
9,38,70,7
9,38,0,40
9,36,64,0
9,36,0,229
9,36,64,11
9,36,0,193
9,31,70,7
9,31,0,40
9,34,64,0
9,34,0,229
9,34,64,11
9,34,0,193
9,29,70,7
9,29,0,40
9,33,64,0
9,33,0,229
9,33,64,11
9,33,0,193
9,40,70,7
9,40,0,40
9,41,64,0
9,41,0,229
9,38,64,11
9,38,0,120
9,43,64,0
9,43,0,120
9,36,64,0
9,36,0,229
9,36,64,11
9,36,0,193
9,31,70,7
9,31,0,40
9,33,64,0
9,33,0,229
9,33,64,11
9,33,0,193
9,40,70,7
9,40,0,40
9,38,64,0
9,38,0,229
9,38,64,11
9,38,0,193
9,45,70,7
9,45,0,40
9,43,64,0
9,43,0,229
9,43,64,11
9,43,0,193
9,38,70,7
9,38,0,40
9,36,64,0
9,36,0,229
9,36,64,11
9,36,0,193
9,31,70,7
9,31,0,40
9,34,64,0
9,34,0,229
9,34,64,11
9,34,0,193
9,29,70,7
9,29,0,40
9,33,64,0
9,33,0,229
9,33,64,11
9,33,0,193
9,40,70,7
9,40,0,40
9,33,64,0
9,33,0,229
9,33,64,11
9,33,0,229
9,38,64,11
9,38,0,229
9,38,64,11
9,38,0,193
9,45,70,7
9,45,0,40
9,40,64,0
9,40,0,229
9,40,64,11
9,40,0,193
9,35,70,7
9,35,0,40
9,33,64,0
9,33,0,229
9,33,64,11
9,33,0,229
9,41,64,11
9,41,0,229
9,41,64,11
9,41,0,193
9,36,70,7
9,36,0,40
9,36,64,0
9,36,0,229
9,36,64,11
9,36,0,193
9,43,70,7
9,43,0,40
9,36,64,0
9,36,0,229
9,36,64,11
9,36,0,193
9,31,70,7
9,31,0,40
9,33,64,0
9,33,0,229
9,33,64,11
9,33,0,193
9,40,70,7
9,40,0,40
9,38,64,0
9,38,0,229
9,43,64,11
9,43,0,229
9,36,64,11
9,36,0,229
9,36,64,11
9,36,0,193
9,31,70,7
9,31,0,40
9,33,64,0
9,33,0,229
9,33,64,11
9,33,0,193
9,40,70,7
9,40,0,40
9,41,64,0
9,41,0,229
9,41,64,11
9,41,0,193
9,36,70,7
9,36,0,40
9,38,64,0
9,38,0,229
9,43,64,11
9,43,0,229
9,36,64,11
9,36,0,229
9,36,64,11
9,36,0,193
9,31,70,7
9,31,0,40
9,33,64,0
9,33,0,229
9,33,64,11
9,33,0,193
9,40,70,7
9,40,0,40
9,38,64,0
9,38,0,229
9,38,64,11
9,38,0,193
9,45,70,7
9,45,0,40
9,38,64,0
9,38,0,229
9,43,64,11
9,43,0,229
9,36,64,11
9,36,0,229
9,33,64,11
9,33,0,229
9,38,64,11
9,38,0,120
9,43,64,0
9,43,0,120
9,36,64,0
9,36,0,229
10,64,55,960
10,36,48,0
10,52,48,40
10,55,48,40
10,60,67,40
10,55,0,40
10,52,0,0
10,55,45,0
10,60,0,40
10,52,50,0
10,55,0,40
10,60,68,0
10,52,0,40
10,55,51,0
10,60,0,40
10,52,57,0
10,55,0,40
10,60,63,0
10,52,0,40
10,55,39,0
10,36,0,40
10,52,54,0
10,60,0,40
10,55,0,0
10,64,0,0
10,64,64,0
10,52,0,1
10,36,43,0
10,52,48,39
10,55,45,40
10,60,62,40
10,55,0,40
10,52,0,0
10,55,45,0
10,60,0,40
10,52,51,0
10,55,0,40
10,60,66,0
10,52,0,40
10,55,48,0
10,60,0,40
10,52,47,0
10,55,0,40
10,60,60,0
10,52,0,40
10,55,34,0
10,52,54,40
10,36,0,35
10,55,0,5
10,60,0,0
10,64,0,0
10,52,0,0
10,36,53,0
10,52,53,40
10,55,53,40
10,52,0,40
10,60,53,0
10,55,0,3
10,55,52,37
10,60,0,24
10,36,0,0
10,52,53,16
10,52,0,40
10,55,0,0
10,48,53,0
10,52,53,40
10,55,53,40
10,55,0,42
10,52,0,0
10,60,53,0
10,55,49,0
10,55,0,40
10,60,0,0
10,52,53,0
10,52,0,40
10,48,0,0
10,64,55,0
10,36,48,0
10,52,48,40
10,55,48,40
10,60,67,40
10,55,0,40
10,52,0,0
10,55,45,0
10,60,0,40
10,52,50,0
10,52,0,40
10,55,0,0
10,36,0,0
10,64,0,0
10,67,61,0
10,43,57,0
10,62,48,0
10,67,0,40
10,59,50,0
10,59,0,40
10,62,0,0
10,67,54,0
10,62,48,40
10,67,0,40
10,59,48,0
10,59,0,22
10,62,0,0
10,43,0,0
10,60,61,0
10,36,57,0
10,55,48,0
10,60,0,40
10,52,50,0
10,52,0,40
10,55,0,0
10,60,54,0
10,55,48,40
10,60,0,40
10,52,48,0
10,52,0,22
10,55,0,0
10,36,0,0
10,64,69,18
10,48,58,0
10,60,45,0
10,55,45,40
10,60,0,40
10,64,0,0
10,64,54,0
10,55,0,40
10,60,53,0
10,64,0,40
10,55,57,0
10,55,0,40
10,60,0,0
10,48,0,0
10,60,55,0
10,45,48,0
10,48,48,40
10,52,48,40
10,55,67,40
10,52,0,40
10,48,0,0
10,52,45,0
10,55,0,40
10,48,50,0
10,52,0,40
10,55,68,0
10,48,0,40
10,52,51,0
10,55,0,40
10,48,57,0
10,52,0,40
10,55,63,0
10,48,0,40
10,52,39,0
10,45,0,40
10,48,54,0
10,48,0,40
10,52,0,0
10,60,0,0
10,55,0,0
10,38,53,0
10,53,53,40
10,57,53,40
10,53,0,40
10,60,53,0
10,57,0,3
10,57,52,37
10,60,0,24
10,38,0,0
10,53,53,16
10,53,0,40
10,57,0,0
10,50,53,0
10,53,53,40
10,57,53,40
10,57,0,42
10,53,0,0
10,60,53,0
10,57,49,0
10,57,0,40
10,60,0,0
10,53,53,0
10,53,0,40
10,50,0,0
10,43,53,0
10,55,53,40
10,59,53,40
10,59,0,40
10,65,53,0
10,55,0,40
10,59,53,0
10,55,53,40
10,59,0,31
10,43,0,0
10,65,0,0
10,43,53,9
10,55,0,7
10,55,53,33
10,59,53,40
10,59,0,44
10,65,53,0
10,55,0,36
10,59,53,0
10,55,53,40
10,55,0,40
10,43,0,0
10,65,0,0
10,59,0,0
10,60,61,0
10,36,57,0
10,55,48,0
10,60,0,40
10,52,50,0
10,52,0,40
10,55,0,0
10,60,54,0
10,55,48,40
10,60,0,40
10,52,48,0
10,52,0,22
10,55,0,0
10,36,0,0
10,64,69,18
10,48,58,0
10,60,45,0
10,55,45,40
10,60,0,40
10,64,0,0
10,64,54,0
10,55,0,40
10,60,53,0
10,64,0,40
10,55,57,0
10,55,0,40
10,60,0,0
10,48,0,0
10,34,53,0
10,50,53,40
10,53,53,40
10,50,0,40
10,58,53,0
10,53,0,3
10,53,52,37
10,58,0,24
10,34,0,0
10,50,53,16
10,50,0,40
10,53,0,0
10,46,53,0
10,50,53,40
10,53,53,40
10,53,0,42
10,50,0,0
10,58,53,0
10,53,49,0
10,53,0,40
10,58,0,0
10,50,53,0
10,50,0,40
10,46,0,0
10,57,61,0
10,45,57,0
10,52,48,0
10,57,0,40
10,49,50,0
10,49,0,40
10,52,0,0
10,57,54,0
10,52,48,40
10,57,0,40
10,49,48,0
10,49,0,22
10,52,0,0
10,45,0,0
10,61,69,18
10,45,58,0
10,57,45,0
10,52,45,40
10,57,0,40
10,61,0,0
10,61,54,0
10,52,0,40
10,57,53,0
10,61,0,40
10,52,57,0
10,52,0,40
10,57,0,0
10,45,0,0
10,41,53,0
10,53,53,40
10,56,53,40
10,56,0,40
10,62,53,0
10,53,0,40
10,56,53,0
10,53,53,40
10,56,0,31
10,41,0,0
10,62,0,0
10,53,0,9
10,38,53,0
10,53,53,40
10,57,53,40
10,57,0,40
10,53,0,0
10,38,0,0
10,67,61,0
10,43,57,0
10,62,48,0
10,67,0,40
10,59,50,0
10,59,0,40
10,62,0,0
10,43,0,0
10,60,61,0
10,36,57,0
10,55,48,0
10,60,0,40
10,52,50,0
10,52,0,40
10,55,0,0
10,60,54,0
10,55,48,40
10,60,0,40
10,52,48,0
10,52,0,22
10,55,0,0
10,36,0,0
10,64,69,18
10,48,58,0
10,60,45,0
10,55,45,40
10,60,0,40
10,64,0,0
10,64,54,0
10,55,0,40
10,60,53,0
10,64,0,40
10,55,57,0
10,55,0,40
10,60,0,0
10,48,0,0
10,57,61,0
10,45,57,0
10,52,48,0
10,57,0,40
10,48,50,0
10,48,0,40
10,52,0,0
10,57,54,0
10,52,48,40
10,57,0,40
10,48,48,0
10,48,0,22
10,52,0,0
10,45,0,0
10,60,69,18
10,45,58,0
10,57,45,0
10,52,45,40
10,57,0,40
10,60,0,0
10,60,54,0
10,52,0,40
10,57,53,0
10,60,0,40
10,52,57,0
10,52,0,40
10,57,0,0
10,45,0,0
10,38,53,0
10,53,53,40
10,57,53,40
10,53,0,40
10,60,53,0
10,57,0,3
10,57,52,37
10,60,0,24
10,38,0,0
10,53,53,16
10,53,0,40
10,57,0,0
10,50,53,0
10,53,53,40
10,57,53,40
10,57,0,42
10,53,0,0
10,60,53,0
10,57,49,0
10,57,0,40
10,60,0,0
10,53,53,0
10,53,0,40
10,50,0,0
10,43,53,0
10,55,53,40
10,59,53,40
10,59,0,40
10,65,53,0
10,55,0,40
10,59,53,0
10,55,53,40
10,59,0,31
10,43,0,0
10,65,0,0
10,43,53,9
10,55,0,7
10,55,53,33
10,59,53,40
10,59,0,44
10,65,53,0
10,55,0,36
10,59,53,0
10,55,53,40
10,55,0,40
10,43,0,0
10,65,0,0
10,59,0,0
10,64,55,0
10,36,48,0
10,52,48,40
10,55,48,40
10,60,67,40
10,55,0,40
10,52,0,0
10,55,45,0
10,60,0,40
10,52,50,0
10,55,0,40
10,60,68,0
10,52,0,40
10,55,51,0
10,60,0,40
10,52,57,0
10,55,0,40
10,60,63,0
10,52,0,40
10,55,39,0
10,36,0,40
10,52,54,0
10,52,0,40
10,55,0,0
10,64,0,0
10,60,0,0
10,34,53,0
10,50,53,40
10,53,53,40
10,50,0,40
10,58,53,0
10,53,0,3
10,53,52,37
10,58,0,24
10,34,0,0
10,50,53,16
10,50,0,40
10,53,0,0
10,46,53,0
10,50,53,40
10,53,53,40
10,53,0,42
10,50,0,0
10,58,53,0
10,53,49,0
10,53,0,40
10,58,0,0
10,50,53,0
10,50,0,40
10,46,0,0
10,57,61,0
10,45,57,0
10,52,48,0
10,57,0,40
10,49,50,0
10,49,0,40
10,52,0,0
10,57,54,0
10,52,48,40
10,57,0,40
10,49,48,0
10,49,0,22
10,52,0,0
10,45,0,0
10,61,69,18
10,45,58,0
10,57,45,0
10,52,45,40
10,57,0,40
10,61,0,0
10,61,54,0
10,52,0,40
10,57,53,0
10,61,0,40
10,52,57,0
10,52,0,40
10,57,0,0
10,45,0,0
10,57,61,0
10,45,57,0
10,52,48,0
10,57,0,40
10,49,50,0
10,49,0,40
10,52,0,0
10,57,54,0
10,52,48,40
10,57,0,40
10,49,48,0
10,49,0,22
10,52,0,0
10,45,0,0
10,45,53,0
10,49,53,40
10,51,53,40
10,49,0,40
10,55,53,0
10,51,0,3
10,51,52,37
10,55,0,24
10,45,0,0
10,49,53,16
10,49,0,40
10,51,0,0
10,62,61,0
10,38,57,0
10,57,48,0
10,62,0,40
10,53,50,0
10,53,0,40
10,57,0,0
10,62,54,0
10,57,48,40
10,62,0,40
10,53,48,0
10,53,0,22
10,57,0,0
10,38,0,0
10,65,69,18
10,50,58,0
10,62,45,0
10,57,45,40
10,62,0,40
10,65,0,0
10,65,54,0
10,57,0,40
10,62,53,0
10,65,0,40
10,57,57,0
10,57,0,40
10,62,0,0
10,50,0,0
10,40,53,0
10,52,53,40
10,56,53,40
10,56,0,40
10,62,53,0
10,52,0,40
10,56,53,0
10,52,53,40
10,56,0,31
10,40,0,0
10,62,0,0
10,40,53,9
10,52,0,7
10,52,53,33
10,56,53,40
10,56,0,44
10,62,53,0
10,52,0,36
10,56,53,0
10,52,53,40
10,52,0,40
10,40,0,0
10,62,0,0
10,56,0,0
10,60,55,0
10,45,48,0
10,48,48,40
10,52,48,40
10,57,67,40
10,52,0,40
10,48,0,0
10,52,45,0
10,57,0,40
10,48,50,0
10,48,0,40
10,52,0,0
10,45,0,0
10,60,0,0
10,57,61,0
10,45,57,0
10,52,48,0
10,57,0,40
10,48,50,0
10,48,0,40
10,52,0,0
10,57,54,0
10,52,48,40
10,57,0,40
