track,note,velocity,time
0,42,44,239
0,42,0,2
0,42,56,94
0,42,0,2
0,42,56,94
0,42,0,2
0,42,68,94
0,42,0,2
0,55,46,80
0,60,49,4
0,63,50,5
0,67,41,4
0,60,82,1
0,60,0,33
0,63,0,6
0,67,0,6
0,60,27,0
0,63,32,2
0,67,46,0
0,60,0,1
0,67,82,0
0,67,0,10
0,60,0,4
0,67,0,3
0,63,0,0
0,67,40,5
0,63,36,1
0,60,27,1
0,67,88,0
0,60,0,18
0,55,0,0
0,67,0,1
0,63,0,0
0,55,43,3
0,60,49,0
0,63,52,1
0,67,38,1
0,67,0,34
0,63,0,4
0,60,0,0
0,67,0,3
0,63,28,5
0,60,20,0
0,67,33,2
0,67,80,0
0,67,0,13
0,67,0,3
0,63,0,1
0,60,0,1
0,67,26,3
0,63,26,1
0,60,23,1
0,67,72,1
0,67,0,15
0,55,0,1
0,63,0,0
0,60,0,1
0,55,39,4
0,65,44,1
0,59,49,0
0,67,53,2
0,67,0,22
0,59,0,17
0,65,0,0
0,67,0,5
0,67,33,3
0,65,28,1
0,59,36,0
0,67,84,0
0,55,0,33
0,59,0,7
0,67,0,0
0,65,0,1
0,59,30,4
0,55,26,0
0,65,36,2
0,67,40,0
0,67,0,18
0,65,0,0
0,59,0,2
0,67,41,1
0,65,32,1
0,59,39,1
0,55,0,16
0,65,0,1
0,59,0,0
0,67,0,2
0,59,38,4
0,55,32,0
0,65,39,2
0,67,44,0
0,67,0,18
0,65,0,0
0,59,0,2
0,67,39,3
0,65,42,1
0,59,40,1
0,67,0,4
0,55,0,11
0,59,0,3
0,67,0,1
0,65,0,0
0,55,47,3
0,58,47,0
0,63,57,1
0,67,44,1
0,67,76,0
0,67,0,26
0,63,0,12
0,58,0,0
0,67,0,3
0,63,37,5
0,58,38,0
0,67,39,2
0,67,72,0
0,67,0,16
0,63,0,1
0,58,0,1
0,68,31,3
0,63,27,1
0,58,35,1
0,68,68,1
0,67,0,2
0,63,0,14
0,55,0,0
0,58,0,1
0,58,41,4
0,55,39,0
0,68,0,1
0,63,44,1
0,68,42,0
0,68,0,16
0,63,0,3
0,58,0,1
0,68,41,2
0,63,46,2
0,58,41,1
0,68,0,14
0,63,0,4
0,58,0,0
0,68,0,3
0,58,29,1
0,63,26,1
0,67,34,1
0,67,92,0
0,63,0,13
0,67,0,2
0,58,0,0
0,67,36,6
0,63,31,2
0,58,34,1
0,67,0,14
0,55,0,0
0,63,0,1
0,58,0,1
0,45,40,6
0,53,36,1
0,60,35,1
0,65,74,0
0,65,47,1
0,67,0,1
0,53,0,38
0,60,0,2
0,65,0,1
0,60,30,2
0,53,24,0
0,65,35,4
0,65,0,17
0,60,0,0
0,65,45,2
0,53,0,1
0,60,43,2
0,53,42,0
0,65,0,42
0,53,0,2
0,60,0,1
0,65,36,2
0,60,42,1
0,53,34,1
0,53,0,17
0,60,0,1
0,65,0,1
0,53,31,1
0,60,39,1
0,65,32,1
0,65,0,21
0,60,0,1
0,53,0,1
0,65,35,0
0,60,37,2
0,53,34,2
0,65,0,11
0,65,0,1
0,60,0,1
0,53,0,3
0,45,0,1
0,51,47,2
0,56,47,3
0,60,56,1
0,63,44,2
0,60,0,36
0,56,0,0
0,63,0,5
0,56,13,2
0,60,44,2
0,63,33,0
0,63,0,18
0,60,0,0
0,56,0,2
0,63,34,3
0,60,30,1
0,56,36,1
0,63,76,0
0,63,0,9
0,51,0,6
0,56,0,3
0,60,0,1
0,63,0,0
0,51,42,1
0,56,47,3
0,60,59,1
0,63,82,0
0,63,36,2
0,63,0,26
0,56,0,10
0,60,0,1
0,63,0,4
0,56,13,2
0,60,44,2
0,63,39,0
0,63,78,1
0,63,0,17
0,60,0,0
0,56,0,2
0,63,37,3
0,60,36,1
0,56,24,1
0,51,0,14
0,63,0,0
0,56,0,4
0,63,0,1
0,60,0,0
0,53,38,1
0,58,35,3
0,62,50,1
0,65,94,0
0,65,36,2
0,65,0,30
0,58,0,6
0,62,0,1
0,65,0,4
0,58,40,2
0,62,44,2
0,65,39,0
0,65,94,1
0,65,0,17
0,62,0,0
0,58,0,2
0,65,50,3
0,62,49,1
0,58,39,1
0,53,0,15
0,58,0,3
0,62,0,1
0,65,0,0
0,53,39,1
0,58,42,1
0,62,41,2
0,65,45,0
0,63,92,1
0,65,0,5
0,65,0,12
0,62,0,0
0,58,0,2
0,65,50,1
0,62,49,1
0,58,40,1
0,62,0,17
0,65,0,2
0,58,0,0
0,58,50,4
0,62,52,2
0,65,53,0
0,63,0,1
0,62,84,0
0,62,0,17
0,65,0,0
0,58,0,2
0,65,53,3
0,62,65,1
0,58,55,1
0,53,0,14
0,58,0,4
0,62,0,1
0,65,0,0
0,55,47,2
0,60,38,1
0,63,37,1
0,36,66,1
0,67,46,0
0,60,94,0
0,62,0,2
0,60,0,38
0,63,0,3
0,60,0,0
0,67,0,1
0,60,30,1
0,63,41,2
0,67,57,0
0,67,82,1
0,67,0,9
0,63,0,8
0,67,0,0
0,60,0,2
0,67,42,3
0,63,45,1
0,60,40,1
0,67,92,0
0,55,0,14
0,60,0,4
0,63,0,1
0,67,0,0
0,60,30,2
0,55,41,0
0,63,46,2
0,67,41,0
0,67,0,18
0,63,0,0
0,60,0,2
0,67,46,1
0,63,36,1
0,60,46,1
0,67,0,5
0,55,0,11
0,63,0,1
0,60,0,0
0,67,0,2
0,60,48,4
0,55,39,0
0,63,46,2
0,67,44,0
0,67,67,1
0,67,0,6
0,63,0,11
0,67,0,0
0,60,0,2
0,67,45,3
0,63,48,1
0,60,52,1
0,67,84,0
0,55,0,15
0,60,0,3
0,63,0,1
0,67,0,0
0,55,45,2
0,65,46,1
0,59,54,0
0,35,76,2
0,67,56,0
0,36,0,1
0,67,0,34
0,65,0,4
0,59,0,0
0,67,0,5
0,67,48,3
0,65,45,1
0,59,49,0
0,67,80,0
0,55,0,33
0,59,0,7
0,67,0,0
0,65,0,1
0,59,44,4
0,65,46,2
0,67,48,0
0,67,0,14
0,65,0,4
0,67,0,0
0,59,0,2
0,67,42,3
0,65,45,1
0,59,40,1
0,59,0,18
0,65,0,1
0,67,0,0
0,67,39,4
0,65,37,1
0,59,48,0
0,67,82,24
0,67,0,8
0,67,0,8
0,59,0,0
0,65,0,1
0,35,0,0
0,55,43,5
0,58,47,0
0,63,57,1
0,34,64,1
0,67,44,0
0,67,92,0
0,67,0,27
0,58,0,11
0,63,0,0
0,67,0,3
0,63,37,5
0,58,38,0
0,67,39,2
0,67,67,0
0,67,0,13
0,67,0,3
0,63,0,1
0,58,0,1
0,68,63,3
0,63,57,1
0,58,53,1
0,68,70,1
0,55,0,16
0,63,0,24
0,58,0,1
0,68,0,0
0,67,40,5
0,63,43,1
0,58,43,1
0,34,0,1
0,58,0,16
0,63,0,1
0,67,0,1
0,58,29,3
0,63,26,1
0,34,66,1
0,67,34,0
0,67,92,0
0,68,0,10
0,63,0,3
0,58,0,2
0,67,0,0
0,67,0,0
0,67,36,6
0,63,31,2
0,58,34,1
0,65,68,0
0,67,0,14
0,63,0,1
0,65,0,1
0,58,0,0
0,45,54,6
0,53,54,1
0,33,76,1
0,60,50,0
0,65,63,0
0,65,58,1
0,34,0,1
0,53,0,38
0,60,0,2
0,65,0,1
0,60,40,2
0,53,35,0
0,65,42,4
0,65,0,17
0,60,0,0
0,65,41,2
0,53,0,1
0,60,35,2
0,53,43,0
0,65,0,16
0,60,0,2
0,53,0,0
0,53,45,5
0,60,43,1
0,65,52,2
0,60,0,15
0,53,0,0
0,65,0,3
0,65,37,3
0,60,34,1
0,53,33,2
0,60,0,17
0,65,0,1
0,53,0,0
0,53,33,3
0,60,40,1
0,65,39,2
0,33,0,3
0,53,0,12
0,60,0,2
0,65,0,1
0,65,32,2
0,60,37,2
0,33,58,1
0,53,32,1
0,65,0,11
0,60,0,2
0,53,0,3
0,45,0,1
0,51,56,2
0,33,0,1
0,65,0,0
0,56,52,2
0,32,64,1
0,60,66,0
0,63,51,2
0,60,0,36
0,56,0,0
0,63,0,5
0,56,41,2
0,60,46,2
0,63,42,0
0,63,0,18
0,60,0,0
0,56,0,2
0,63,46,3
0,60,39,1
0,56,42,1
0,51,0,15
0,56,0,3
0,60,0,1
0,63,0,0
0,51,53,1
0,56,54,3
0,60,60,1
0,63,80,0
0,63,49,2
0,63,0,8
0,32,0,3
0,56,0,25
0,60,0,1
0,63,0,4
0,56,55,2
0,60,59,2
0,63,41,0
0,32,66,1
0,63,84,0
0,63,0,17
0,60,0,0
0,56,0,2
0,63,41,3
0,60,44,1
0,56,41,1
0,51,0,14
0,32,0,3
0,56,0,1
0,63,0,1
0,63,0,0
0,60,0,0
0,53,65,1
0,58,50,3
0,34,54,1
0,62,67,0
0,65,78,0
0,65,36,2
0,65,0,24
0,58,0,12
0,62,0,1
0,65,0,4
0,58,50,2
0,62,51,2
0,65,39,0
0,65,78,1
0,65,0,17
0,62,0,0
0,58,0,2
0,65,50,3
0,62,54,1
0,58,52,1
0,53,0,15
0,58,0,3
0,65,0,1
0,62,0,0
0,53,56,1
0,58,50,1
0,62,57,2
0,65,52,0
0,65,0,1
0,63,84,0
0,62,0,17
0,65,0,0
0,58,0,2
0,65,50,1
0,62,49,1
0,58,44,1
0,62,0,17
0,58,0,1
0,65,0,1
0,53,0,2
0,53,59,1
0,63,0,3
0,58,57,0
0,62,69,1
0,62,74,0
0,65,49,2
0,34,0,33
0,53,0,3
0,58,0,0
0,62,0,1
0,65,0,4
0,48,65,1
0,55,64,3
0,36,64,1
0,60,76,0
0,60,82,0
0,48,50,0
0,36,50,0
0,62,0,1
0,67,62,1
0,55,0,36
0,48,0,1
0,48,57,7
0,55,55,3
0,55,0,40
0,48,0,0
0,48,43,6
0,55,41,2
0,60,75,23
0,60,0,6
0,36,0,6
0,55,0,4
0,48,0,1
0,48,35,5
0,43,74,2
0,55,37,0
0,48,88,0
0,48,0,15
0,72,102,9
0,60,84,0
0,67,0,1
0,60,0,10
0,72,0,1
0,43,0,0
0,55,0,1
0,48,0,0
0,60,0,5
0,48,45,0
0,48,70,3
0,55,45,0
0,60,43,1
0,67,44,0
0,60,86,23
0,60,0,8
0,60,0,6
0,55,0,1
0,48,0,0
0,67,0,3
0,48,58,4
0,55,52,1
0,60,59,1
0,67,56,1
0,60,84,23
0,60,0,14
0,60,0,0
0,55,0,0
0,48,0,3
0,67,0,1
0,48,62,4
0,55,56,1
0,43,66,1
0,60,64,0
0,67,55,1
0,48,0,7
0,60,0,6
0,55,0,1
0,48,0,1
0,67,0,2
0,67,62,4
0,60,54,1
0,45,70,1
0,55,52,0
0,48,69,0
0,43,0,1
0,48,0,2
0,67,0,13
0,55,0,1
0,60,0,2
0,48,70,1
0,45,0,1
0,55,68,2
0,48,64,1
0,60,70,0
0,60,84,0
0,57,80,0
0,53,88,0
0,48,84,0
0,67,67,2
0,53,0,29
0,48,0,2
0,48,0,5
0,60,0,0
0,55,0,0
0,48,0,1
0,36,0,2
0,67,0,2
0,57,0,2
0,60,64,2
0,48,74,1
0,67,76,0
0,60,68,0
0,55,58,0
0,52,66,0
0,48,62,0
0,57,56,0
0,42,55,0
0,36,75,0
0,36,0,2
0,42,0,0
0,57,0,0
0,72,62,0
0,60,0,4
0,67,0,35
0,72,0,1
0,64,59,2
0,67,53,2
0,72,62,0
0,55,48,1
0,42,27,0
0,42,0,2
0,60,0,36
0,64,0,2
0,72,0,1
0,67,0,0
0,60,75,5
0,64,71,0
0,67,79,1
0,72,60,1
0,67,82,0
0,64,84,0
0,64,62,0
0,60,56,0
0,55,50,0
0,42,55,0
0,40,65,0
0,40,0,2
0,42,0,0
0,67,0,6
0,55,0,4
0,60,0,1
0,64,0,3
0,67,86,8
0,64,56,0
0,60,54,0
0,55,50,0
0,64,0,14
0,67,0,0
0,72,0,3
0,67,70,5
0,64,57,0
0,72,62,2
0,42,32,0
0,42,0,2
0,48,0,5
0,72,0,9
0,67,0,0
0,67,0,1
0,64,0,1
0,72,50,3
0,67,47,1
0,64,52,1
0,48,64,1
0,72,0,1
0,55,0,6
0,60,0,0
0,64,0,2
0,64,0,5
0,64,0,0
0,60,0,2
0,67,0,0
0,48,0,6
0,67,64,0
0,64,60,0
0,48,0,2
0,47,74,0
0,71,71,0
0,67,82,0
0,62,34,0
0,64,44,0
0,60,48,0
0,55,56,0
0,47,32,0
0,42,55,0
0,36,75,0
0,36,0,2
0,42,0,0
0,55,0,8
0,64,0,29
0,67,0,0
0,71,0,5
0,71,53,3
0,67,56,1
0,64,52,0
0,55,42,0
0,42,32,0
0,52,0,1
0,42,0,1
0,60,0,5
0,67,0,20
0,64,0,13
0,71,0,0
0,67,0,1
0,64,60,4
0,62,0,2
0,67,46,0
0,71,61,0
0,71,86,1
0,59,68,0
0,65,52,0
0,62,56,0
0,57,44,0
0,42,55,0
0,40,65,0
0,40,0,2
0,42,0,0
0,64,0,0
0,60,0,6
0,55,0,0
0,57,0,9
0,67,0,0
0,71,0,0
0,62,0,1
0,64,0,1
0,65,0,0
0,71,51,1
0,71,0,1
0,67,48,0
0,64,54,1
0,72,82,2
0,67,54,0
0,64,58,0
0,60,48,0
0,47,0,4
0,55,0,3
0,67,0,1
0,64,0,0
0,71,0,2
0,48,0,1
0,64,68,3
0,60,0,2
0,67,53,0
0,71,60,0
0,47,64,1
0,62,46,0
0,42,27,0
0,42,0,2
0,67,0,15
0,71,0,0
0,64,0,2
0,71,55,3
0,67,56,1
0,45,40,1
0,64,53,0
0,36,25,0
0,36,0,2
0,47,0,0
0,72,0,1
0,59,0,4
0,64,0,3
0,55,0,1
0,67,0,1
0,45,0,3
0,60,0,1
0,64,0,2
0,71,0,1
0,67,0,0
0,47,0,3
0,60,64,0
0,64,69,1
0,45,76,1
0,69,61,0
0,72,86,0
0,60,29,0
0,67,56,0
0,64,46,0
0,60,35,0
0,45,42,0
0,60,52,0
0,55,52,0
0,52,42,0
0,42,55,0
0,36,75,0
0,36,0,2
0,42,0,0
0,62,0,4
0,60,0,29
0,64,0,0
0,69,0,3
0,64,54,3
0,60,55,0
0,69,56,2
0,57,44,0
0,42,29,0
0,42,0,2
0,69,0,14
0,64,0,1
0,60,0,1
0,69,48,3
0,64,44,1
0,60,52,1
0,64,0,17
0,60,0,1
0,60,58,4
0,69,0,1
0,55,0,1
0,64,61,0
0,69,59,0
0,64,72,1
0,42,55,0
0,40,65,0
0,60,0,1
0,40,0,1
0,42,0,0
0,57,0,6
0,69,0,7
0,52,0,1
0,64,0,2
0,60,0,1
0,69,58,2
0,64,63,2
0,60,58,1
0,45,0,9
0,69,0,5
0,64,0,4
0,60,0,0
0,60,46,4
0,64,43,1
0,45,62,1
0,69,51,0
0,55,37,0
0,42,27,0
0,42,0,2
0,64,0,11
0,69,0,2
0,60,0,0
0,69,53,6
0,64,48,2
0,60,51,1
0,69,0,14
0,64,0,1
0,60,0,1
0,45,0,4
0,60,53,3
0,43,66,1
0,64,52,0
0,67,84,0
0,43,25,0
0,42,55,0
0,36,75,0
0,67,64,1
0,36,0,1
0,42,0,0
0,64,0,0
0,45,0,1
0,60,0,28
0,60,0,9
0,64,0,2
0,67,0,1
0,64,47,2
0,60,41,0
0,64,46,3
0,42,27,0
0,67,52,1
0,42,0,1
0,67,0,3
0,64,0,13
0,67,0,0
0,67,62,2
0,60,0,1
0,64,60,2
0,60,59,0
0,55,50,1
0,60,66,24
0,67,66,0
0,64,64,0
0,62,72,0
0,42,55,0
0,40,65,0
0,40,0,2
0,42,0,0
0,64,0,1
0,62,0,7
0,55,0,2
0,67,0,1
0,64,0,1
0,60,0,1
0,64,0,1
0,67,53,2
0,64,59,1
0,43,0,1
0,60,51,0
0,62,56,0
0,60,0,17
0,64,0,1
0,67,0,1
0,60,48,1
0,64,56,1
0,67,49,1
0,62,0,2
0,43,62,0
0,55,42,0
0,60,52,0
0,46,45,0
0,46,0,2
0,43,0,17
0,67,0,0
