track,note,velocity,time
1,60,117,7547
1,63,117,3
1,66,86,0
1,56,111,2
1,66,0,88
1,60,0,7
1,63,0,3
1,56,0,2
1,63,117,255
1,66,110,3
1,60,117,0
1,56,117,2
1,66,0,75
1,60,0,10
1,56,0,3
1,63,0,5
1,56,117,382
1,60,117,0
1,63,117,3
1,66,105,2
1,66,0,68
1,56,0,0
1,60,0,2
1,63,0,5
1,60,117,280
1,66,110,0
1,63,117,3
1,56,117,0
1,56,0,77
1,60,0,3
1,63,0,7
1,66,0,3
1,63,117,267
1,66,107,0
1,60,117,3
1,56,117,2
1,56,0,80
1,60,0,0
1,63,0,5
1,66,0,3
1,60,117,265
1,66,107,2
1,63,117,3
1,56,117,2
1,56,0,73
1,63,0,7
1,66,0,3
1,60,0,7
1,60,117,265
1,63,117,3
1,66,105,0
1,56,117,2
1,56,0,73
1,60,0,10
1,63,0,2
1,66,0,3
1,63,117,390
1,56,117,0
1,60,117,0
1,66,107,2
1,66,0,73
1,56,0,5
1,63,0,7
1,60,0,3
1,66,113,265
1,60,117,2
1,63,117,3
1,56,117,2
1,56,0,90
1,63,0,3
1,60,0,2
1,66,0,5
1,60,117,253
1,63,117,2
1,56,117,3
1,66,107,0
1,56,0,85
1,60,0,10
1,66,0,2
1,63,0,3
1,63,117,260
1,66,107,0
1,60,117,0
1,56,117,2
1,63,0,73
1,56,0,2
1,60,0,5
1,66,0,3
1,60,117,272
1,63,117,3
1,66,117,0
1,56,117,2
1,56,0,80
1,66,0,15
1,60,0,0
1,63,0,3
1,60,117,377
1,56,117,3
1,66,107,0
1,63,116,2
1,63,0,68
1,56,0,10
1,60,0,5
1,66,0,2
1,60,117,268
1,66,108,2
1,63,117,3
1,56,117,2
1,56,0,80
1,63,0,5
1,66,0,5
1,60,0,0
1,66,107,265
1,60,117,0
1,63,117,3
1,56,117,2
1,56,0,88
1,63,0,2
1,60,0,0
1,66,0,8
1,63,117,260
1,66,107,0
1,60,117,0
1,56,117,2
1,66,0,80
1,63,0,0
1,56,0,10
1,60,0,8
1,56,117,257
1,63,117,0
1,60,117,3
1,66,117,2
1,63,0,88
1,56,0,2
1,60,0,5
1,66,0,13
1,60,117,365
1,63,117,2
1,66,113,3
1,56,117,2
1,56,0,88
1,63,0,5
1,66,0,2
1,60,0,0
1,60,117,258
1,66,108,2
1,63,117,3
1,56,117,2
1,56,0,80
1,63,0,0
1,66,0,10
1,60,0,0
1,56,117,268
1,66,107,0
1,63,117,0
1,60,117,0
1,56,0,82
1,66,0,3
1,63,0,7
1,60,0,3
1,66,107,262
1,60,117,0
1,63,117,3
1,56,117,2
1,63,0,75
1,66,0,5
1,56,0,3
1,60,0,7
1,56,117,268
1,66,113,0
1,60,117,0
1,63,117,2
1,63,0,78
1,56,0,2
1,66,0,3
1,60,0,5
1,60,117,395
1,66,111,2
1,56,117,3
1,63,117,2
1,63,0,68
1,56,0,7
1,66,0,0
1,60,0,3
1,66,108,267
1,60,117,0
1,56,117,3
1,63,117,2
1,63,0,80
1,66,0,0
1,56,0,3
1,60,0,2
1,60,117,275
1,66,113,3
1,56,117,2
1,63,117,3
1,63,0,67
1,56,0,8
1,66,0,2
1,60,0,3
1,66,114,267
1,60,117,0
1,56,113,3
1,63,117,2
1,63,0,68
1,56,0,2
1,66,0,3
1,60,0,12
1,56,117,275
1,63,117,0
1,66,117,3
1,60,117,2
1,63,0,70
1,56,0,0
1,60,0,3
1,66,0,2
1,66,117,400
1,60,117,3
1,56,117,2
1,63,113,3
1,63,0,50
1,56,0,25
1,60,0,0
1,66,0,2
1,66,117,268
1,60,117,2
1,56,117,3
1,63,117,2
1,63,0,70
1,56,0,3
1,60,0,2
1,66,0,5
1,60,117,278
1,66,117,0
1,56,117,2
1,63,117,3
1,63,0,70
1,56,0,10
1,66,0,0
1,60,0,5
1,60,117,270
1,66,113,0
1,63,117,2
1,56,117,0
1,63,0,68
1,56,0,2
1,60,0,3
1,66,0,5
1,66,117,282
1,60,117,3
1,56,117,2
1,63,117,3
1,63,0,70
1,56,0,17
1,66,0,5
1,60,0,5
1,65,117,370
1,56,117,3
1,61,117,2
1,56,0,60
1,61,0,3
1,65,0,10
1,56,117,282
1,61,117,3
1,65,117,0
1,56,0,57
1,61,0,10
1,65,0,3
1,65,117,290
1,61,117,2
1,56,117,3
1,56,0,42
1,61,0,15
1,65,0,8
1,65,117,287
1,56,117,3
1,61,117,0
1,56,0,45
1,61,0,17
1,65,0,5
1,61,117,290
1,65,117,0
1,56,117,3
1,56,0,55
1,61,0,12
1,65,0,20
1,60,117,398
1,63,117,2
1,66,107,3
1,56,117,2
1,56,0,48
1,66,0,12
1,63,0,15
1,60,0,5
1,63,116,268
1,66,96,0
1,60,117,0
1,56,117,2
1,56,0,55
1,63,0,5
1,66,0,5
1,60,0,13
1,60,117,285
1,63,113,2
1,56,117,3
1,66,107,2
1,63,0,60
1,66,0,8
1,56,0,5
1,60,0,10
1,60,117,260
1,66,104,2
1,56,117,3
1,63,117,2
1,56,0,60
1,63,0,3
1,66,0,15
1,60,0,0
1,60,117,282
1,66,113,3
1,63,117,2
1,56,117,3
1,56,0,60
1,63,0,2
1,66,0,3
1,60,0,7
1,60,117,403
1,56,117,2
1,63,117,3
1,66,110,2
1,63,0,63
1,66,0,7
1,56,0,3
1,60,0,5
1,63,117,270
1,66,107,0
1,60,117,0
1,56,117,2
1,56,0,68
1,63,0,2
1,60,0,10
1,66,0,0
1,60,117,283
1,56,117,2
1,63,117,3
1,66,110,2
1,66,0,68
1,63,0,0
1,56,0,5
1,60,0,5
1,60,117,265
1,66,113,2
1,56,117,3
1,63,113,2
1,63,0,58
1,66,0,10
1,56,0,15
1,60,0,0
1,66,114,277
1,60,117,3
1,63,117,2
1,56,117,3
1,56,0,85
1,63,0,0
1,60,0,7
1,66,0,3
1,61,117,372
1,56,117,3
1,65,117,2
1,65,0,55
1,56,0,5
1,61,0,3
1,61,117,290
1,56,117,2
1,65,117,3
1,56,0,67
1,65,0,13
1,61,0,7
1,65,117,275
1,56,117,3
1,61,117,2
1,56,0,50
1,61,0,15
1,65,0,5
1,65,117,278
1,56,117,2
1,61,117,3
1,56,0,55
1,65,0,10
1,61,0,2
1,56,117,295
1,65,117,3
1,61,117,2
1,56,0,55
1,61,0,10
1,65,0,8
1,67,117,405
1,63,117,2
1,58,117,3
1,58,0,45
1,63,0,27
1,67,0,5
1,63,117,270
1,67,117,0
1,58,117,3
1,58,0,57
1,63,0,28
1,67,0,5
1,67,117,275
1,58,117,2
1,63,117,3
1,58,0,60
1,63,0,5
1,67,0,17
1,67,117,263
1,63,117,2
1,58,117,3
1,58,0,82
1,63,0,13
1,67,0,7
1,67,117,258
1,58,117,2
1,63,117,3
1,58,0,85
1,63,0,5
1,67,0,7
1,60,117,383
1,63,117,2
1,56,117,3
1,56,0,65
1,60,0,15
1,63,0,15
1,63,117,252
1,60,117,3
1,56,117,0
1,56,0,77
1,60,0,13
1,63,0,10
1,63,117,270
1,56,117,2
1,60,117,3
1,60,0,82
1,56,0,5
1,63,0,20
1,63,117,238
1,60,117,0
1,56,117,0
1,56,0,72
1,60,0,10
1,63,0,5
1,63,117,275
1,60,117,3
1,56,117,2
1,56,0,90
1,60,0,28
1,63,0,5
1,61,117,350
1,56,117,0
1,65,117,2
1,56,0,63
1,65,0,12
1,61,0,3
1,65,117,277
1,56,117,3
1,61,117,0
1,56,0,65
1,65,0,20
1,61,0,5
1,65,117,265
1,61,117,2
1,56,117,3
1,56,0,52
1,61,0,25
1,65,0,3
1,65,117,277
1,61,117,3
1,56,117,0
1,56,0,65
1,61,0,12
1,65,0,8
1,65,117,277
1,56,117,3
1,61,117,2
1,56,0,120
1,65,0,3
1,61,0,17
1,58,117,333
1,67,117,0
1,63,117,2
1,58,0,55
1,63,0,10
1,67,0,5
1,67,117,285
1,63,117,3
1,58,117,0
1,58,0,77
1,63,0,8
1,67,0,7
1,67,117,270
1,58,117,3
1,63,117,2
1,58,0,58
1,63,0,10
1,67,0,12
1,63,117,270
1,67,117,0
1,58,117,3
1,58,0,55
1,63,0,17
1,67,0,13
1,67,117,275
1,63,117,2
1,58,117,3
1,58,0,65
1,63,0,12
1,67,0,5
1,56,117,393
1,63,117,2
1,60,117,0
1,56,0,88
1,63,0,60
1,60,0,30
1,65,117,177
1,61,117,3
1,56,117,0
1,56,0,47
1,61,0,48
1,65,0,5
1,56,117,257
1,63,117,0
1,60,117,3
1,56,0,97
1,63,0,63
1,60,0,37
1,56,117,43
1,56,0,62
1,65,117,55
1,56,117,0
1,61,117,3
1,61,0,87
1,65,0,5
1,56,0,5
1,63,117,140
1,60,117,3
1,56,117,0
1,56,0,152
1,63,0,38
1,60,0,25
1,60,117,387
1,56,117,3
1,63,117,2
1,56,0,50
1,63,0,10
1,60,0,10
1,63,117,280
1,60,117,3
1,56,117,0
1,56,0,60
1,60,0,12
1,63,0,5
1,56,117,288
1,63,117,2
1,60,117,3
1,56,0,62
1,60,0,3
1,63,0,15
1,60,117,267
1,63,117,0
1,56,117,3
1,56,0,62
1,60,0,8
1,63,0,22
1,63,117,270
1,56,117,3
1,60,117,2
1,56,0,70
1,60,0,23
1,63,0,0
1,61,117,380
1,65,117,0
1,56,117,2
1,56,0,65
1,61,0,8
1,65,0,2
1,56,117,278
1,65,117,2
1,61,117,3
1,61,0,67
1,65,0,10
1,56,0,5
1,65,117,288
1,61,117,2
1,56,117,3
1,56,0,50
1,61,0,5
1,65,0,12
1,61,117,275
1,56,117,3
1,65,117,2
1,56,0,80
1,61,0,3
1,65,0,2
1,56,117,275
1,65,117,3
1,61,117,2
1,61,0,80
1,56,0,0
1,65,0,18
1,58,117,375
1,63,117,0
1,67,117,2
1,58,0,78
1,63,0,5
1,67,0,7
1,58,117,268
1,63,117,0
1,67,117,0
1,58,0,62
1,63,0,13
1,67,0,12
1,67,117,278
1,58,117,2
1,63,117,3
1,58,0,52
1,63,0,3
1,67,0,25
1,63,117,267
1,67,117,0
1,58,117,3
1,58,0,57
1,63,0,3
1,67,0,12
1,67,117,293
1,58,117,2
1,63,117,3
1,63,0,65
1,58,0,15
1,67,0,5
1,63,117,382
1,56,117,3
1,60,117,0
1,56,0,62
1,60,0,25
1,63,0,13
1,61,117,257
1,56,117,0
1,65,117,3
1,56,0,72
1,65,0,45
1,61,0,10
1,63,117,230
1,60,117,3
1,56,117,0
1,56,0,62
1,60,0,13
1,63,0,7
1,61,117,275
1,65,117,0
1,56,117,3
1,56,0,55
1,61,0,17
1,65,0,3
1,63,117,285
1,60,117,2
1,56,117,3
1,56,0,80
1,63,0,32
1,60,0,3
1,63,117,357
1,66,117,3
1,60,117,0
1,56,113,2
1,56,0,40
1,63,0,38
1,66,0,2
1,60,0,30
1,60,117,245
1,66,99,3
1,63,117,0
1,56,114,2
1,66,0,75
1,63,0,3
1,60,0,5
1,56,0,0
1,56,117,272
1,60,117,0
1,63,117,3
1,66,102,2
1,66,0,73
1,63,0,2
1,60,0,5
1,56,0,5
1,60,117,268
1,56,117,2
1,63,117,3
1,66,99,2
1,66,0,68
1,63,0,2
1,56,0,8
1,60,0,7
1,60,117,270
1,66,98,3
1,63,117,2
1,56,117,3
1,66,0,80
1,60,0,10
1,63,0,0
1,56,0,2
1,63,117,383
1,56,117,0
1,60,117,0
1,66,110,2
1,66,0,68
1,63,0,10
1,56,0,2
1,60,0,3
1,63,117,275
1,56,117,0
1,60,117,0
1,66,105,2
1,66,0,68
1,63,0,2
1,56,0,5
1,60,0,3
1,60,117,277
1,66,111,3
1,56,117,0
1,63,117,2
1,63,0,78
1,66,0,2
1,56,0,3
1,60,0,12
1,60,117,258
1,66,111,2
1,56,117,3
1,63,117,2
1,63,0,68
1,56,0,2
1,66,0,5
1,60,0,5
1,60,117,275
1,66,117,3
1,56,117,2
1,63,117,3
1,63,0,70
1,56,0,5
1,66,0,5
1,60,0,2
1,66,111,390
1,60,117,3
1,63,117,2
1,56,117,0
1,63,0,75
1,60,0,5
1,66,0,3
1,56,0,7
1,60,117,265
1,56,117,3
1,66,104,0
1,63,117,2
1,63,0,73
1,66,0,0
1,56,0,2
1,60,0,10
1,60,117,268
1,66,108,2
1,63,117,3
1,56,117,2
1,56,0,78
1,66,0,7
1,63,0,3
1,60,0,5
1,66,107,260
1,60,117,2
1,63,117,3
1,56,117,0
1,63,0,77
1,56,0,3
1,60,0,0
1,66,0,5
1,63,117,275
1,56,117,0
1,66,104,2
1,60,117,3
1,60,0,85
1,56,0,0
1,63,0,5
1,66,0,2
1,66,107,383
1,60,117,0
1,56,117,0
1,63,114,2
1,63,0,88
1,66,0,2
1,60,0,10
1,56,0,10
1,66,107,245
1,60,117,0
1,56,117,3
1,63,117,2
1,63,0,85
1,66,0,13
1,60,0,7
1,56,0,3
1,60,117,245
1,66,110,2
1,63,117,3
1,56,117,2
1,56,0,100
1,63,0,3
1,60,0,0
1,66,0,7
1,63,117,248
1,56,117,0
1,66,111,0
1,60,117,0
1,63,0,72
1,56,0,18
1,66,0,7
1,60,0,3
1,60,117,257
1,66,113,3
1,56,117,2
1,63,117,3
1,63,0,70
1,56,0,7
1,66,0,3
1,60,0,15
1,60,117,382
1,66,117,3
1,56,117,2
1,63,117,3
1,63,0,65
1,66,0,10
1,56,0,2
1,60,0,8
1,66,113,260
1,60,117,2
1,56,117,3
1,63,117,2
1,56,0,68
1,63,0,7
1,60,0,13
1,66,0,5
1,60,117,270
1,63,117,2
1,66,114,3
1,56,117,2
1,66,0,73
1,56,0,2
1,63,0,8
1,60,0,0
1,60,117,260
1,66,114,2
1,63,117,3
1,56,117,0
1,56,0,65
1,63,0,7
1,66,0,10
1,60,0,0
1,60,117,280
1,66,117,3
1,56,117,2
1,63,117,3
1,63,0,65
1,56,0,15
1,66,0,0
1,60,0,7
1,60,117,388
1,63,117,2
1,66,114,3
1,56,117,2
1,56,0,65
1,66,0,0
1,63,0,5
1,60,0,3
1,66,114,270
1,60,117,2
1,63,117,3
1,56,117,2
1,56,0,68
1,63,0,10
1,60,0,0
1,66,0,5
1,56,117,275
1,63,117,2
1,60,117,3
1,66,108,2
1,56,0,70
1,60,0,3
1,66,0,2
1,63,0,3
1,60,117,272
1,66,117,0
1,56,117,3
1,63,117,2
1,63,0,75
1,56,0,5
1,60,0,3
1,66,0,5
1,60,117,272
1,66,113,3
1,63,117,2
1,56,117,3
1,66,0,85
1,56,0,2
1,63,0,3
1,60,0,12
1,61,117,370
1,56,117,3
1,65,117,2
1,65,0,48
1,56,0,5
1,61,0,0
1,61,117,295
1,65,117,2
1,56,117,3
1,56,0,70
1,65,0,12
1,61,0,5
1,65,117,275
1,56,117,3
1,61,117,2
1,56,0,58
1,61,0,10
1,65,0,15
1,65,117,267
1,61,117,3
1,56,117,0
1,56,0,77
1,61,0,8
1,65,0,0
1,65,117,277
1,61,117,3
1,56,117,2
1,56,0,68
1,61,0,20
1,65,0,15
1,60,117,375
1,66,107,2
1,63,117,3
1,56,117,2
1,56,0,70
1,66,0,3
1,63,0,2
1,60,0,10
1,60,117,260
1,63,117,3
1,66,107,0
1,56,117,0
1,63,0,82
1,66,0,3
1,56,0,15
1,60,0,5
1,60,117,260
1,66,104,2
1,63,117,3
1,56,117,2
1,63,0,70
1,66,0,0
1,56,0,3
1,60,0,7
1,63,117,265
1,60,117,0
1,66,107,3
1,56,117,2
1,66,0,80
1,63,0,3
1,60,0,5
1,56,0,5
1,60,117,265
1,66,105,2
1,56,117,3
1,63,117,2
1,63,0,63
1,66,0,7
1,56,0,3
1,60,0,0
1,60,117,402
1,66,110,3
1,63,117,2
1,56,117,3
1,56,0,65
1,63,0,2
1,66,0,5
1,60,0,3
1,56,117,272
1,60,117,0
1,66,117,3
1,63,117,2
1,63,0,73
1,66,0,2
1,60,0,15
1,56,0,8
1,60,117,265
1,66,117,2
1,56,117,3
1,63,117,2
1,63,0,63
1,66,0,10
