track,note,velocity,time
3,36,66,2269
3,35,76,240
3,36,0,1
3,35,0,230
3,34,64,9
3,34,0,151
3,34,66,29
3,33,76,60
3,34,0,2
3,33,0,183
3,33,58,25
3,33,0,26
3,32,64,4
3,32,0,136
3,32,66,44
3,32,0,51
3,34,54,9
3,34,0,223
3,36,64,17
3,36,0,165
3,43,74,15
3,43,0,48
3,48,70,12
3,43,66,120
3,48,0,10
3,45,70,20
3,43,0,1
3,45,0,25
3,48,64,4
3,48,0,41
3,48,74,19
3,48,0,188
3,48,64,22
3,48,0,30
3,47,74,0
3,47,0,163
3,47,64,17
3,45,40,30
3,47,0,2
3,45,0,16
3,45,76,12
3,45,0,161
3,45,62,19
3,43,66,60
3,45,0,3
3,43,0,147
3,43,62,30
3,43,0,56
3,41,76,4
3,41,0,148
3,41,47,32
3,45,60,30
3,41,0,3
3,45,0,27
3,48,64,0
3,48,0,116
3,43,68,4
3,43,0,48
3,45,66,12
3,45,0,53
3,46,66,7
3,46,0,182
3,46,59,28
3,46,0,12
3,46,56,18
3,46,0,112
3,41,64,8
3,41,0,28
3,43,57,2
3,43,0,27
3,46,66,3
3,48,66,60
3,46,0,2
3,48,0,143
3,48,72,35
3,47,76,60
3,48,0,3
3,47,0,235
3,45,68,2
3,45,0,135
3,45,60,45
3,45,0,27
3,43,40,3
3,43,0,16
3,43,74,14
3,43,0,153
3,43,52,27
3,41,62,60
3,43,0,5
3,45,64,175
3,41,0,1
3,45,0,47
3,48,68,12
3,48,0,112
3,43,64,8
3,45,60,60
3,43,0,6
3,46,66,54
3,45,0,1
3,46,0,66
3,46,68,53
3,46,0,156
3,46,64,24
3,46,0,60
3,45,60,0
3,45,0,58
3,42,46,2
3,42,0,58
3,43,66,2
3,43,0,120
3,40,74,60
3,40,0,16
3,38,62,14
3,38,0,21
3,43,66,9
3,43,0,147
3,43,58,33
3,43,0,51
3,36,54,9
3,36,0,133
3,36,54,47
3,36,0,52
3,35,70,8
3,35,0,142
3,35,62,38
3,35,0,57
3,34,70,3
3,34,0,132
3,34,66,48
3,34,0,56
3,33,70,4
3,33,0,128
3,33,62,52
3,33,0,55
3,32,74,5
3,32,0,126
3,32,72,54
3,34,54,60
3,32,0,7
3,34,0,111
3,34,60,62
3,34,0,53
3,36,68,7
3,36,0,133
3,36,56,47
3,36,0,57
3,35,54,3
3,35,0,130
3,35,68,50
3,35,0,48
3,34,60,12
3,34,0,125
3,34,58,55
3,33,72,60
3,34,0,3
3,33,0,104
3,33,64,73
3,33,0,50
3,32,74,10
3,32,0,96
3,32,66,84
3,34,56,60
3,32,0,2
3,34,0,91
3,34,58,87
3,36,58,60
3,34,0,2
3,36,0,178
3,43,66,0
3,43,0,52
3,48,66,8
3,43,54,120
3,48,0,10
3,43,0,11
3,45,68,9
3,45,0,28
3,48,62,2
3,36,66,60
3,48,0,2
3,36,0,150
3,48,52,28
3,47,58,30
3,48,0,10
3,47,0,2
3,47,68,18
3,47,0,158
3,47,62,22
3,45,74,60
3,47,0,1
3,45,0,142
3,45,72,37
3,43,72,60
3,45,0,7
3,43,0,126
3,43,66,47
3,43,0,58
3,41,70,2
3,41,0,115
3,41,50,65
3,41,0,27
3,45,60,3
3,45,0,28
3,48,66,2
3,48,0,136
3,43,52,44
3,45,62,30
3,43,0,1
3,45,0,29
3,46,78,0
3,46,0,28
3,41,46,2
3,41,0,28
3,46,50,2
3,46,0,90
3,41,56,0
3,41,0,26
3,46,58,4
3,46,0,41
3,46,74,19
3,46,0,136
3,46,64,44
3,46,0,27
3,47,58,3
3,47,0,28
3,48,64,2
3,48,0,143
3,48,60,37
3,47,62,60
3,48,0,1
3,47,0,129
3,47,68,50
3,47,0,58
3,45,62,2
3,45,0,128
3,45,62,52
3,45,0,53
3,43,64,7
3,43,0,123
3,43,62,57
3,43,0,55
3,41,56,5
3,41,0,128
3,45,70,52
3,45,0,52
3,48,66,8
3,48,0,121
3,45,54,59
3,46,62,60
3,45,0,2
3,41,66,28
3,46,0,1
3,41,0,27
3,46,62,2
3,46,0,167
3,46,44,13
3,46,0,178
3,45,62,2
3,45,0,23
3,42,62,7
3,43,74,30
3,42,0,6
3,43,0,120
3,43,56,24
3,43,0,28
3,45,64,2
3,46,72,30
3,45,0,2
3,46,0,28
3,47,70,0
3,47,0,57
3,43,37,3
3,43,0,57
3,45,66,3
3,45,0,28
3,48,56,2
3,48,0,28
3,45,64,2
3,45,0,22
3,43,54,8
3,44,60,30
3,43,0,2
3,44,0,134
3,44,56,44
3,44,0,57
3,43,70,3
3,43,0,141
3,43,58,39
3,43,0,60
3,41,56,0
3,41,0,158
3,39,64,22
3,36,58,60
3,39,0,5
3,36,0,121
3,36,52,54
3,34,56,60
3,36,0,2
3,34,0,170
3,36,58,8
3,36,0,41
3,38,64,19
3,38,0,26
3,39,54,4
3,39,0,28
3,41,64,2
3,46,76,60
3,41,0,7
3,44,62,113
3,46,0,2
3,44,0,133
3,46,64,45
3,46,0,30
3,44,60,0
3,43,60,30
3,44,0,7
3,39,48,113
3,43,0,1
3,41,64,119
3,39,0,10
3,41,0,136
3,41,46,34
3,39,48,30
3,41,0,5
3,39,0,20
3,36,68,5
3,36,0,163
3,34,52,17
3,36,46,30
3,34,0,7
3,36,0,16
3,31,66,7
3,43,66,120
3,31,0,1
3,43,0,95
3,43,72,24
3,43,0,95
3,43,62,25
3,41,62,60
3,43,0,2
3,41,0,49
3,31,66,9
3,31,0,163
3,43,60,17
3,43,0,240
3,39,50,0
3,36,49,60
3,39,0,5
3,36,0,233
3,35,68,2
3,34,62,240
3,35,0,7
3,33,68,233
3,34,0,6
3,32,66,234
3,33,0,1
3,32,0,236
3,34,60,3
3,36,64,240
3,34,0,6
3,35,68,234
3,36,0,10
3,35,0,221
3,34,64,9
3,33,64,240
3,34,0,13
3,33,0,219
3,32,76,8
3,34,72,240
3,32,0,5
3,36,49,235
3,34,0,5
3,36,0,233
3,35,68,2
3,34,62,240
3,35,0,7
3,33,68,233
3,34,0,6
3,32,66,234
3,33,0,1
3,32,0,236
3,34,60,3
3,36,64,240
3,34,0,6
3,35,68,234
3,36,0,10
3,35,0,221
3,34,64,9
3,33,64,240
3,34,0,13
3,33,0,219
3,32,76,8
3,34,72,240
3,32,0,5
3,36,68,235
3,34,0,5
3,36,0,160
3,43,72,15
3,43,0,60
3,48,70,0
3,43,76,120
3,48,0,8
3,43,0,20
3,45,68,2
3,45,0,27
3,48,66,3
3,48,0,42
3,48,72,18
3,48,0,166
3,48,68,14
3,47,72,60
3,48,0,6
3,47,0,144
3,47,62,30
3,47,0,25
3,45,68,5
3,45,0,17
3,45,62,13
3,45,0,145
3,45,66,35
3,45,0,58
3,43,64,2
3,43,0,160
3,43,74,20
3,43,0,52
3,41,56,8
3,41,0,133
3,41,60,47
3,45,68,30
3,41,0,5
3,45,0,25
3,48,54,0
3,48,0,172
3,43,60,8
3,46,74,60
3,43,0,2
3,46,0,149
3,46,64,29
3,46,0,41
3,46,68,19
3,41,70,120
3,46,0,11
3,43,52,19
3,41,0,5
3,43,0,22
3,46,60,3
3,46,0,55
3,48,68,5
3,48,0,138
3,48,56,42
3,48,0,57
3,47,64,3
3,47,0,131
3,47,56,49
3,47,0,53
3,45,66,7
3,45,0,140
3,45,49,40
3,45,0,23
3,43,52,7
3,43,0,15
3,43,62,15
3,43,0,140
3,43,56,40
3,43,0,56
3,41,74,4
3,41,0,177
3,45,66,3
3,45,0,52
3,48,68,8
3,43,54,120
3,48,0,3
3,45,60,57
3,43,0,1
3,46,68,59
3,45,0,6
3,41,54,144
3,46,0,2
3,46,70,28
3,41,0,1
3,41,48,89
3,46,0,6
3,41,0,20
3,46,62,4
3,46,0,120
3,43,62,0
3,43,0,57
3,48,46,3
3,48,0,137
3,48,56,43
3,48,0,56
3,47,66,4
3,47,0,132
3,47,66,48
3,47,0,58
3,45,62,2
3,45,0,123
3,45,62,57
3,45,0,58
3,43,60,2
3,43,0,136
3,43,56,44
3,43,0,48
3,41,72,12
3,41,0,138
3,45,62,42
3,45,0,28
3,47,66,2
3,47,0,27
3,48,72,3
3,48,0,143
3,43,62,37
3,43,0,50
3,46,76,10
3,46,0,147
3,46,40,33
3,46,0,38
3,46,66,22
3,45,74,120
3,46,0,10
3,45,0,43
3,43,64,7
3,43,0,52
3,48,72,8
3,48,0,153
3,48,74,27
3,47,60,60
3,48,0,7
3,47,0,123
3,47,52,50
3,45,54,60
3,47,0,5
3,45,0,131
3,45,66,44
3,43,66,60
3,45,0,3
3,43,0,125
3,43,50,52
3,43,0,52
3,41,58,8
3,41,0,158
3,41,64,22
3,41,0,58
3,48,68,2
3,48,0,147
3,48,62,33
3,48,0,56
3,46,72,4
3,46,0,173
3,41,52,7
3,41,0,52
3,34,64,8
3,34,0,106
3,46,49,14
3,46,0,50
3,45,68,10
3,45,0,52
3,43,58,8
3,43,0,153
3,43,56,27
3,43,0,45
3,43,64,15
3,43,0,115
3,31,52,5
3,31,0,83
3,36,58,37
3,36,0,7
3,36,56,23
3,36,0,30
3,35,74,0
3,35,0,1
3,35,48,29
3,35,0,25
3,34,72,5
3,34,0,17
3,34,62,30
3,34,0,20
3,33,70,10
3,33,0,16
3,33,64,30
3,33,0,26
3,32,78,4
3,32,0,16
3,32,68,30
3,32,0,25
3,34,66,5
3,34,0,8
3,31,60,30
3,31,0,25
3,34,60,5
3,36,70,30
3,34,0,5
3,36,0,6
3,36,60,30
3,36,0,30
3,35,64,0
3,35,0,13
3,35,70,30
3,35,0,22
3,34,68,8
3,34,0,12
3,34,70,30
3,34,0,30
3,33,74,0
3,33,0,21
3,33,68,30
3,33,0,25
3,32,78,5
3,32,0,10
3,32,70,30
3,32,0,21
3,34,64,9
3,31,68,30
3,34,0,10
3,34,42,30
3,31,0,1
3,38,66,29
3,34,0,3
3,36,58,27
3,38,0,6
3,36,0,78
3,36,62,30
3,36,0,58
3,35,72,2
3,35,0,12
3,35,62,48
3,35,0,28
3,34,66,2
3,34,0,35
3,34,60,55
3,34,0,58
3,33,74,2
3,33,0,90
3,33,66,30
3,33,0,57
3,32,76,3
3,32,0,118
3,32,66,60
3,34,70,30
3,32,0,1
3,34,0,72
3,31,62,48
3,31,0,20
3,34,52,10
3,36,64,30
3,34,0,3
3,36,0,87
3,36,62,60
3,36,0,58
3,35,62,2
3,35,0,33
3,35,66,57
3,35,0,23
3,34,56,7
3,34,0,71
3,34,60,30
3,33,64,60
3,34,0,5
3,33,0,15
3,33,60,45
3,33,0,23
3,32,72,7
3,32,0,37
3,32,66,53
3,34,60,60
3,32,0,1
3,31,74,179
3,34,0,3
3,31,0,19297
4,55,46,805
4,60,49,5
4,63,50,6
4,67,41,5
4,60,0,42
4,63,0,8
4,67,0,7
4,60,27,1
4,63,32,2
4,67,46,0
4,60,0,19
4,67,0,3
4,63,0,0
4,67,40,7
4,63,36,1
4,60,27,2
4,60,0,22
4,55,0,0
4,63,0,1
4,67,0,0
4,55,43,4
4,60,49,0
4,63,52,1
4,67,38,2
4,63,0,46
4,60,0,1
4,67,0,4
4,63,28,6
4,60,20,0
4,67,33,3
4,67,0,20
4,63,0,0
4,60,0,2
4,67,26,4
4,63,26,1
4,60,23,1
4,67,0,20
4,55,0,1
4,63,0,0
4,60,0,1
4,55,39,6
4,65,44,1
4,59,49,0
4,67,53,3
4,59,0,48
4,65,0,0
4,67,0,7
4,67,33,3
4,65,28,2
4,59,36,0
4,55,0,41
4,67,0,8
4,59,0,1
4,65,0,1
4,59,30,5
4,55,26,0
4,65,36,2
4,67,40,0
4,67,0,22
4,65,0,0
4,59,0,3
4,67,41,2
4,65,32,1
4,59,39,1
4,55,0,20
4,59,0,1
4,65,0,0
4,67,0,3
4,59,38,5
4,55,32,0
4,65,39,2
4,67,44,0
4,67,0,22
4,65,0,0
4,59,0,3
4,67,39,4
4,65,42,1
4,59,40,2
4,55,0,18
4,59,0,4
4,65,0,1
4,67,0,0
4,55,47,4
4,58,47,0
4,63,57,1
4,67,44,2
4,63,0,46
4,58,0,1
4,67,0,4
4,63,37,6
4,58,38,0
4,67,39,3
4,67,0,20
4,63,0,0
4,58,0,2
4,68,31,4
4,63,27,1
4,58,35,1
4,63,0,21
4,55,0,0
4,58,0,1
4,58,41,6
4,55,39,0
4,68,0,1
4,63,44,1
4,68,42,0
4,68,0,20
4,63,0,3
4,58,0,2
4,68,41,3
4,63,46,2
4,58,41,2
4,68,0,17
4,63,0,4
4,58,0,1
4,58,29,5
4,63,26,1
4,67,34,2
4,63,0,15
4,67,0,3
4,58,0,0
4,67,36,8
4,63,31,2
4,58,34,2
4,67,0,17
4,55,0,0
4,63,0,1
4,58,0,2
4,45,40,7
4,53,36,1
4,60,35,2
4,65,47,1
4,53,0,48
4,60,0,3
4,65,0,1
4,60,30,3
4,53,24,0
4,65,35,5
4,65,0,21
4,60,0,0
4,65,45,3
4,53,0,1
4,60,43,2
4,53,42,0
4,65,0,53
4,53,0,2
4,60,0,1
4,65,36,3
4,60,42,1
4,53,34,2
4,53,0,21
4,60,0,0
4,65,0,2
4,53,31,2
4,60,39,1
4,65,32,1
4,65,0,26
4,60,0,1
4,53,0,2
4,65,35,0
4,60,37,2
4,53,34,3
4,65,0,13
4,60,0,2
4,53,0,5
4,45,0,1
4,51,47,3
4,56,47,3
4,60,56,2
4,63,44,2
4,56,0,44
4,60,0,1
4,63,0,6
4,56,13,3
4,60,44,2
4,63,33,0
4,63,0,22
4,60,0,0
4,56,0,3
4,63,34,4
4,60,30,1
4,56,36,2
4,51,0,18
4,56,0,4
4,60,0,1
4,63,0,0
4,51,42,2
4,56,47,3
4,60,59,2
4,63,36,2
4,56,0,44
4,60,0,2
4,63,0,5
4,56,13,3
4,60,44,2
4,63,39,0
4,63,0,22
4,60,0,0
4,56,0,3
4,63,37,4
4,60,36,1
4,56,24,2
4,51,0,17
4,56,0,5
4,60,0,1
4,63,0,0
4,53,38,2
4,58,35,3
4,62,50,2
4,65,36,2
4,58,0,44
4,62,0,2
4,65,0,5
4,58,40,3
4,62,44,2
4,65,39,0
4,65,0,22
4,62,0,0
4,58,0,3
4,65,50,4
4,62,49,1
4,58,39,2
4,53,0,18
4,58,0,4
4,62,0,1
4,65,0,0
4,53,39,2
4,58,42,1
4,62,41,2
4,65,45,0
4,65,0,22
4,62,0,0
4,58,0,3
4,65,50,2
4,62,49,1
4,58,40,1
4,62,0,21
4,58,0,2
4,65,0,1
4,58,50,5
4,62,52,2
4,65,53,0
4,65,0,22
4,62,0,0
4,58,0,3
4,65,53,4
4,62,65,1
4,58,55,2
4,53,0,17
4,58,0,5
4,62,0,1
4,65,0,0
4,55,47,3
4,60,38,1
4,63,37,1
4,67,46,2
4,63,0,53
4,60,0,0
4,67,0,2
4,60,30,1
4,63,41,2
4,67,57,0
4,67,0,22
4,63,0,0
4,60,0,3
4,67,42,4
4,63,45,1
4,60,40,2
4,55,0,17
4,60,0,5
4,63,0,1
4,67,0,0
4,60,30,3
4,55,41,0
4,63,46,2
4,67,41,0
4,67,0,22
4,63,0,0
4,60,0,3
4,67,46,2
4,63,36,1
4,60,46,1
4,55,0,20
4,60,0,1
4,63,0,0
4,67,0,3
4,60,48,5
4,55,39,0
4,63,46,2
4,67,44,0
4,67,0,22
4,63,0,0
4,60,0,3
4,67,45,4
4,63,48,1
4,60,52,2
4,55,0,18
4,60,0,4
4,63,0,1
4,67,0,0
4,55,45,3
4,65,46,1
4,59,54,0
4,67,56,3
4,59,0,48
4,65,0,0
4,67,0,7
4,67,48,3
4,65,45,2
4,59,49,0
4,55,0,41
4,67,0,8
4,59,0,1
4,65,0,1
4,59,44,5
4,65,46,2
4,67,48,0
4,67,0,22
4,65,0,0
4,59,0,3
4,67,42,4
4,65,45,1
4,59,40,2
4,59,0,22
4,65,0,1
4,67,0,0
4,67,39,5
4,65,37,2
4,59,48,0
4,67,0,49
4,59,0,1
4,65,0,1
