track,note,velocity,time
1,49,53,5703
1,57,61,38
1,49,61,60
1,56,49,48
1,49,53,49
1,55,51,46
1,47,63,189
1,49,57,4
1,50,65,38
1,57,73,44
1,57,37,49
1,57,47,31
1,57,42,31
1,61,43,83
1,59,61,1
1,57,39,144
1,56,57,40
1,57,45,6
1,56,42,24
1,52,57,1
1,57,57,48
1,52,53,0
1,45,51,192
1,49,59,19
1,47,63,192
1,47,57,23
1,45,59,48
1,57,60,2
1,56,57,4
1,52,61,96
1,57,61,2
1,52,38,40
1,49,57,32
1,47,61,192
1,47,63,37
1,45,30,7
1,56,38,2
1,57,61,4
1,56,55,24
1,52,63,94
1,57,57,44
1,52,51,61
1,49,53,42
1,57,61,96
1,49,63,52
1,56,49,4
1,49,59,45
1,55,47,96
1,46,59,147
1,47,63,4
1,49,49,0
1,50,44,38
1,57,46,4
1,49,59,371
1,52,53,192
1,57,61,134
1,56,40,191
1,57,42,2
1,56,47,24
1,52,61,12
1,57,57,48
1,57,14,19
1,52,59,72
1,45,32,174
1,55,59,135
1,54,49,4
1,55,45,48
1,52,61,47
1,50,71,94
1,47,40,1
1,45,63,240
1,50,61,94
1,43,65,38
1,45,69,4
1,47,61,1
1,55,59,92
1,54,51,3
1,55,55,96
1,52,69,41
1,50,63,1
1,52,65,96
1,47,57,44
1,47,65,45
1,50,32,1
1,52,69,1
1,61,57,15
1,57,69,4
1,59,59,79
1,61,61,24
1,59,69,3
1,57,63,37
1,56,61,4
1,57,59,192
1,49,61,433
1,47,55,4
1,45,61,13
1,57,67,33
1,56,59,0
1,57,61,192
1,57,59,15
1,57,61,23
1,52,46,96
1,49,42,54
1,57,67,96
1,49,57,53
1,56,53,96
1,49,63,50
1,55,51,96
1,47,61,183
1,49,51,96
1,50,67,42
1,57,47,25
1,49,61,380
1,52,69,192
1,57,63,138
1,56,59,1
1,57,45,6
1,56,55,0
1,52,61,5
1,57,61,1
1,52,49,240
1,45,59,188
1,61,59,4
1,59,63,52
1,61,57,5
1,59,65,1
1,57,61,39
1,56,55,3
1,52,53,96
1,57,61,41
1,52,53,428
1,49,57,0
1,52,67,192
1,57,65,38
1,56,57,240
1,57,61,91
1,54,39,47
1,52,46,238
1,52,63,30
1,49,57,84
1,57,51,36
1,49,59,59
1,56,49,40
1,49,59,51
1,55,53,24
1,46,51,143
1,47,63,48
1,49,49,92
1,50,63,45
1,57,41,39
1,49,57,389
1,52,63,192
1,57,67,139
1,56,63,51
1,57,59,6
1,56,47,1
1,52,53,10
1,57,59,48
1,52,55,239
1,52,59,40
1,50,61,2
1,49,49,24
2,40,66,994
2,42,76,24
2,45,66,0
2,52,42,48
2,52,68,9
2,57,60,0
2,61,54,0
2,62,64,16
2,61,64,9
2,57,62,0
2,44,62,12
2,59,66,0
2,64,68,0
2,52,42,0
2,44,54,30
2,59,60,0
2,52,37,0
2,64,64,0
2,57,66,2
2,61,56,0
2,52,58,0
2,42,62,0
2,57,56,6
2,52,39,0
2,61,39,0
2,42,46,5
2,40,62,4
2,61,50,0
2,57,56,0
2,52,39,0
2,40,56,3
2,57,66,4
2,52,58,0
2,61,60,0
2,40,62,2
2,42,62,1
2,62,64,0
2,57,66,0
2,57,64,6
2,62,60,0
2,42,42,2
2,40,56,3
2,57,56,0
2,52,50,0
2,62,46,0
2,59,54,0
2,40,66,4
2,59,60,4
2,56,54,0
2,62,52,0
2,40,62,3
2,45,58,2
2,57,60,0
2,52,46,0
2,61,52,0
2,57,48,2
2,52,44,0
2,61,46,0
2,45,58,6
2,57,39,2
2,61,37,0
2,52,29,0
2,45,58,2
2,57,54,6
2,61,54,0
2,52,44,0
2,40,66,2
2,42,68,5
2,45,68,17
2,61,56,0
2,57,54,0
2,52,42,0
2,57,68,9
2,52,62,0
2,61,50,0
2,62,64,4
2,61,62,5
2,57,56,9
2,64,68,22
2,59,58,0
2,52,52,0
2,44,48,0
2,52,42,0
2,64,64,30
2,52,46,0
2,59,58,0
2,44,50,0
2,57,58,3
2,42,54,0
2,61,50,0
2,42,42,7
2,61,54,6
2,57,56,0
2,52,37,0
2,42,44,5
2,57,46,4
2,61,42,0
2,40,50,0
2,52,46,0
2,40,52,3
2,57,56,4
2,52,46,0
2,61,54,0
2,40,56,2
2,42,54,1
2,57,56,0
2,62,54,0
2,57,56,6
2,62,52,0
2,42,48,2
2,40,52,6
2,57,42,0
2,52,52,0
2,61,56,0
2,40,54,4
2,57,52,4
2,52,50,0
2,61,54,0
2,40,54,3
2,56,44,4
2,59,44,0
2,40,56,3
2,56,58,2
2,59,58,0
2,40,60,6
2,61,62,0
2,57,64,0
2,40,60,2
2,59,64,1
2,62,68,0
2,40,56,6
2,61,46,3
2,45,58,0
2,57,60,0
2,52,48,0
2,45,54,2
2,52,50,0
2,57,46,0
2,61,56,0
2,62,56,0
2,61,52,2
2,57,62,13
2,59,66,10
2,44,60,0
2,64,68,0
2,52,32,0
2,66,62,30
2,44,44,0
2,42,54,9
2,61,60,0
2,52,48,0
2,57,56,0
2,42,44,7
2,57,58,6
2,61,50,0
2,52,18,0
2,42,50,5
2,40,54,4
2,57,56,0
2,61,50,0
2,52,38,0
2,40,54,3
2,57,62,4
2,61,58,0
2,52,56,0
2,40,54,2
2,62,60,0
2,57,66,0
2,42,44,0
2,57,64,6
2,62,68,0
2,42,44,2
2,57,54,6
2,52,48,0
2,61,54,0
2,40,52,4
2,57,54,4
2,52,48,0
2,61,52,0
2,40,52,3
2,59,46,4
2,56,52,0
2,40,54,0
2,56,56,2
2,59,56,0
2,40,54,6
2,61,58,2
2,57,66,0
2,40,54,2
2,59,66,2
2,62,62,0
2,40,46,6
2,61,40,5
2,42,56,0
2,57,56,0
2,57,64,9
2,61,58,0
2,42,64,47
2,57,64,30
2,61,62,0
2,42,60,8
2,61,62,30
2,57,64,0
2,42,44,9
2,41,52,5
2,61,50,0
2,56,50,0
2,56,58,6
2,61,56,0
2,41,62,5
2,61,60,4
2,56,66,0
2,41,68,3
2,61,62,4
2,56,66,0
2,41,50,2
2,40,64,1
2,61,58,0
2,55,52,0
2,55,54,6
2,61,66,0
2,40,58,2
2,55,60,6
2,61,66,0
2,40,62,4
2,55,58,4
2,61,66,0
2,40,60,3
2,58,50,4
2,54,46,0
2,52,37,0
2,42,54,0
2,42,54,2
2,54,44,0
2,58,48,0
2,52,50,0
2,44,60,2
2,59,66,0
2,54,52,0
2,46,52,6
2,61,52,0
2,54,58,0
2,47,58,0
2,57,46,0
2,62,66,0
2,62,64,9
2,57,60,0
2,47,56,39
2,62,60,32
2,57,64,0
2,47,64,8
2,57,64,27
2,62,54,0
2,47,64,9
2,59,54,7
2,57,54,0
2,52,62,0
2,40,54,0
2,59,46,6
2,52,46,0
2,57,50,0
2,40,56,0
2,62,46,0
2,45,66,1
2,52,34,6
2,61,80,0
2,62,62,3
2,61,76,1
2,57,64,2
2,44,60,6
2,59,72,0
2,64,64,0
2,52,29,4
2,44,52,4
2,59,66,0
2,64,66,0
2,52,25,0
2,57,66,3
2,42,44,0
2,52,54,0
2,61,52,0
2,42,31,3
2,52,42,2
2,61,44,0
2,57,54,0
2,42,46,6
2,57,56,2
2,40,56,0
2,61,50,0
2,52,34,0
2,40,56,2
2,57,58,6
2,61,56,0
2,52,46,0
2,40,56,6
2,42,64,1
2,57,66,0
2,62,60,0
2,57,72,9
2,62,66,0
2,42,42,42
2,40,54,21
2,59,56,0
2,62,56,0
2,52,36,0
2,40,56,8
2,56,66,23
2,62,60,0
2,52,58,0
2,59,68,0
2,40,54,9
2,45,50,6
2,57,52,0
2,61,52,0
2,52,28,0
2,61,44,6
2,57,40,0
2,52,34,0
2,45,58,5
2,61,50,4
2,57,46,0
2,52,44,0
2,45,66,3
2,61,52,4
2,57,46,0
2,52,30,0
2,40,66,1
2,42,76,13
2,45,80,1
2,57,62,0
2,61,54,0
2,52,58,3
2,52,60,6
2,57,66,0
2,61,64,0
2,62,62,0
2,61,58,6
2,57,54,2
2,64,72,6
2,59,66,0
2,44,54,0
2,52,38,3
2,64,62,4
2,59,52,0
2,52,44,0
2,44,56,0
2,42,48,3
2,57,58,0
2,61,50,0
2,52,42,0
2,42,42,3
2,57,40,2
2,61,44,0
2,52,28,0
2,42,42,6
2,40,42,2
2,52,38,0
2,57,50,0
2,61,42,0
2,40,56,2
2,61,48,6
2,56,50,0
2,52,31,0
2,40,62,6
2,42,68,1
2,57,62,0
2,62,56,0
2,62,66,9
2,57,72,0
2,42,48,45
2,57,54,5
2,61,46,0
2,40,52,0
2,52,30,0
2,52,29,8
2,52,42,0
2,61,48,0
2,57,44,0
2,40,54,9
2,59,39,17
2,56,42,0
2,40,56,7
2,56,58,6
2,59,56,0
2,40,64,5
2,61,64,4
2,57,64,0
2,40,66,3
2,62,76,4
2,59,72,0
2,40,54,2
2,45,62,1
2,52,37,0
2,57,60,0
2,61,52,0
2,61,62,6
2,57,64,0
2,52,64,0
2,62,54,16
2,61,52,1
2,57,62,2
2,44,58,6
2,59,72,0
2,64,68,0
2,66,68,4
2,44,28,0
2,61,58,3
2,57,64,0
2,42,42,0
2,52,64,0
2,42,42,3
2,57,56,2
2,61,52,0
2,52,42,0
2,42,42,6
2,40,56,2
2,57,62,0
2,61,50,0
2,52,35,0
2,40,54,2
2,57,64,6
2,61,56,0
2,52,44,0
2,40,66,6
2,57,68,10
2,62,66,0
2,42,72,0
2,57,62,9
2,62,66,0
2,42,50,37
2,57,66,2
2,40,62,0
2,52,54,0
2,61,50,0
2,40,64,8
2,57,58,17
2,52,54,0
2,61,46,0
2,40,50,9
2,59,56,30
2,56,44,0
2,40,54,7
2,56,64,6
2,59,68,0
2,40,66,5
2,61,68,2
2,57,64,0
2,40,68,3
2,59,66,4
2,62,68,0
2,40,58,2
2,61,50,1
2,57,50,0
2,42,46,0
2,42,54,3
2,57,46,6
2,61,46,0
2,42,58,2
2,57,52,6
2,61,52,0
2,42,76,4
2,61,66,4
2,57,66,0
2,42,64,3
2,41,52,0
2,61,46,0
2,56,42,0
2,41,54,3
2,56,46,2
2,61,36,0
2,41,42,6
2,56,44,2
2,61,38,0
2,41,56,2
2,56,62,6
2,61,54,0
2,41,48,6
2,40,58,5
2,61,56,0
2,55,50,0
2,40,62,25
2,55,56,9
2,61,66,0
2,40,66,30
2,55,68,28
2,61,72,0
2,40,66,8
2,61,72,19
2,55,66,0
2,40,58,9
2,42,44,2
2,52,38,0
2,58,42,0
2,54,46,0
2,54,46,6
2,42,54,0
2,58,44,0
2,52,33,0
2,44,52,0
2,59,58,0
2,54,48,0
2,46,50,2
2,61,52,0
2,54,42,0
2,57,54,0
2,47,62,0
2,62,64,0
2,62,66,6
2,57,60,0
2,47,58,2
2,57,48,6
2,62,58,0
2,47,66,4
2,62,66,4
2,57,60,0
2,47,64,3
2,59,42,3
2,57,60,0
2,52,44,0
2,40,54,0
2,62,52,0
2,57,50,2
2,59,42,0
2,62,54,0
2,40,60,0
2,52,46,0
2,45,76,2
2,52,42,42
2,52,66,9
2,61,62,0
2,62,62,16
2,61,54,14
2,57,64,9
2,44,60,0
2,64,76,0
2,59,68,0
2,52,54,1
2,64,66,30
2,59,66,0
2,52,28,0
2,61,58,9
2,57,64,0
2,42,60,0
2,52,44,0
2,42,52,7
2,52,50,6
2,57,58,0
2,61,35,0
2,52,42,5
2,40,54,4
2,61,40,0
2,52,30,0
2,56,42,0
2,40,62,3
2,56,68,4
2,61,50,0
2,52,58,0
2,40,60,2
2,62,54,1
2,57,58,0
2,42,52,0
2,42,50,3
2,57,64,6
2,62,68,0
2,42,42,2
2,62,60,2
2,59,64,0
2,57,62,0
2,40,56,0
2,52,27,0
2,40,66,4
2,62,66,4
2,59,64,0
2,52,50,0
2,56,68,0
2,40,62,3
2,52,56,4
2,57,64,0
2,61,56,0
2,45,62,0
2,52,46,3
2,52,48,2
2,61,66,0
2,57,66,0
2,45,80,6
2,57,68,2
2,61,66,0
2,52,40,0
2,45,54,2
2,52,31,0
2,57,60,6
2,61,62,0
2,52,48,0
2,45,62,4
2,47,72,24
2,48,84,0
2,60,66,0
2,64,76,0
2,55,62,0
2,55,50,14
2,55,66,9
2,60,68,0
2,64,72,0
2,48,64,35
2,59,66,4
2,62,68,0
2,47,76,0
2,55,44,4
2,62,66,4
2,55,66,0
2,59,66,0
2,47,58,9
2,45,62,1
2,57,64,0
2,60,58,0
2,52,58,0
2,60,64,6
2,52,60,0
2,57,72,0
2,43,60,5
2,60,66,4
2,57,66,0
2,42,62,0
2,50,54,0
2,60,72,0
2,50,62,0
2,57,68,0
2,42,58,2
2,43,66,1
2,55,64,0
2,59,58,0
2,59,76,6
2,55,76,0
2,50,52,0
2,43,64,2
2,42,64,6
2,57,68,0
2,50,50,0
2,57,64,4
2,50,42,0
2,42,58,3
2,40,66,4
2,55,64,0
2,59,64,0
2,59,80,2
2,55,66,0
2,47,64,5
2,55,64,2
2,59,88,0
2,52,36,0
2,55,40,2
2,40,39,6
2,59,60,0
2,55,58,0
2,47,66,6
2,48,84,7
2,55,64,0
2,60,62,0
2,64,72,0
2,60,76,9
2,64,68,0
2,55,66,0
2,48,68,7
2,47,66,1
2,59,62,0
2,55,58,0
2,62,66,0
2,62,72,28
2,59,68,0
2,55,60,0
2,47,58,9
2,45,64,2
2,57,62,0
2,52,48,0
2,60,56,0
2,57,72,6
2,52,54,0
2,60,68,0
2,45,62,5
2,42,64,6
2,60,64,0
2,57,64,0
2,50,58,0
2,57,66,2
2,60,66,0
2,50,56,0
2,42,56,3
2,43,56,1
2,59,56,0
2,55,62,0
2,55,66,6
2,59,62,0
2,50,35,0
2,43,56,2
2,42,38,1
2,57,56,0
2,50,52,0
2,42,50,7
2,57,60,0
2,50,31,0
2,40,64,2
2,52,56,0
2,59,56,0
2,59,56,2
2,56,39,0
2,52,35,0
2,61,64,4
2,57,62,0
2,59,54,10
2,62,62,0
2,45,66,1
2,61,58,0
2,57,54,0
2,52,48,22
2,52,39,9
2,57,66,7
2,44,72,9
2,59,68,0
2,64,84,0
2,52,16,30
2,42,68,9
2,57,64,0
2,61,60,0
2,52,30,0
2,61,52,6
2,52,46,0
2,57,60,0
2,42,37,5
2,40,62,0
2,57,60,0
2,52,50,0
2,61,56,0
2,56,68,4
2,61,37,0
2,52,48,0
2,40,66,3
2,62,66,8
2,57,68,0
2,42,80,0
2,62,76,6
2,57,80,0
2,42,66,2
2,40,60,6
2,57,60,0
2,52,48,0
2,61,54,0
2,52,58,7
2,61,62,0
2,57,66,0
2,40,56,5
2,56,48,6
2,59,58,0
2,52,20,0
2,40,42,18
2,59,58,2
2,56,54,0
2,40,66,6
2,57,72,4
2,61,76,0
2,40,76,7
2,62,76,10
2,59,72,0
2,40,64,6
2,45,62,3
2,61,56,0
2,57,68,0
2,52,56,0
2,52,52,13
2,52,66,9
2,59,56,0
2,61,68,0
2,62,62,0
2,61,60,16
2,57,64,7
2,44,72,1
2,59,72,0
2,64,80,0
2,52,58,2
2,44,54,30
2,59,66,0
2,64,64,0
2,57,62,4
2,61,62,0
2,52,58,0
2,42,58,0
2,42,68,7
2,61,56,6
2,52,37,0
2,57,54,0
2,42,80,5
2,61,54,1
2,40,62,0
2,56,38,0
2,52,19,0
2,40,68,3
2,61,62,4
2,56,54,0
2,52,46,0
2,40,66,3
2,42,84,8
2,62,64,0
2,57,68,0
2,57,66,6
2,62,72,0
2,42,54,2
2,61,58,0
2,40,56,0
2,52,50,0
2,40,62,4
2,57,54,7
2,52,38,0
2,61,46,0
2,40,58,5
2,59,58,6
2,56,42,0
2,59,58,2
2,56,62,0
2,40,56,6
2,57,66,4
2,61,62,0
2,40,66,7
2,59,68,2
2,62,72,0
2,40,56,6
2,57,58,2
2,42,54,0
2,61,46,0
2,52,25,0
2,57,68,9
2,61,56,0
2,42,66,7
2,57,64,13
2,61,66,0
2,42,68,9
2,57,62,27
2,61,66,0
2,42,80,9
2,41,54,4
