track,note,velocity,time
1,61,117,12076
1,67,86,4
1,64,117,0
1,57,111,4
1,64,117,408
1,67,110,4
1,61,117,0
1,57,117,4
1,57,117,612
1,61,117,0
1,64,117,4
1,67,105,4
1,67,110,448
1,61,117,0
1,57,117,4
1,64,117,0
1,67,107,428
1,64,117,0
1,61,117,4
1,57,117,4
1,61,117,424
1,67,107,4
1,64,117,4
1,57,117,4
1,61,117,424
1,64,117,4
1,67,105,0
1,57,117,4
1,61,117,624
1,64,117,0
1,57,117,0
1,67,107,4
1,67,113,424
1,61,117,4
1,64,117,4
1,57,117,4
1,61,117,404
1,64,117,4
1,57,117,4
1,67,107,0
1,64,117,416
1,61,117,0
1,67,107,0
1,57,117,4
1,61,117,436
1,64,117,4
1,67,117,0
1,57,117,4
1,61,117,604
1,57,117,4
1,67,107,0
1,64,116,4
1,61,117,428
1,67,108,4
1,64,117,4
1,57,117,4
1,67,107,424
1,61,117,0
1,64,117,4
1,57,117,4
1,67,107,416
1,61,117,0
1,64,117,0
1,57,117,4
1,64,117,412
1,57,117,0
1,61,117,4
1,67,117,4
1,61,117,584
1,64,117,4
1,67,113,4
1,57,117,4
1,61,117,412
1,67,108,4
1,64,117,4
1,57,117,4
1,57,117,428
1,61,117,0
1,64,117,0
1,67,107,0
1,67,107,420
1,61,117,0
1,64,117,4
1,57,117,4
1,57,117,428
1,61,117,0
1,67,113,0
1,64,117,4
1,61,117,632
1,67,111,4
1,57,117,4
1,64,117,4
1,67,108,428
1,61,117,0
1,57,117,4
1,64,117,4
1,61,117,440
1,67,113,4
1,57,117,4
1,64,117,4
1,67,114,428
1,61,117,0
1,57,113,4
1,64,117,4
1,57,117,440
1,64,117,0
1,67,117,4
1,61,117,4
1,67,117,640
1,61,117,4
1,57,117,4
1,64,113,4
1,67,117,428
1,61,117,4
1,57,117,4
1,64,117,4
1,67,117,444
1,61,117,0
1,57,117,4
1,64,117,4
1,61,117,432
1,67,113,0
1,64,117,4
1,57,117,0
1,67,117,452
1,61,117,4
1,57,117,4
1,64,117,4
1,66,117,592
1,57,117,4
1,62,117,4
1,57,117,452
1,62,117,4
1,66,117,0
1,66,117,464
1,62,117,4
1,57,117,4
1,66,117,460
1,57,117,4
1,62,117,0
1,66,117,464
1,62,117,0
1,57,117,4
1,61,117,636
1,64,117,4
1,67,107,4
1,57,117,4
1,64,116,428
1,67,96,0
1,61,117,0
1,57,117,4
1,61,117,456
1,64,113,4
1,57,117,4
1,67,107,4
1,61,117,416
1,67,104,4
1,57,117,4
1,64,117,4
1,61,117,452
1,67,113,4
1,64,117,4
1,57,117,4
1,61,117,644
1,57,117,4
1,64,117,4
1,67,110,4
1,61,117,432
1,67,107,0
1,64,117,0
1,57,117,4
1,61,117,452
1,57,117,4
1,64,117,4
1,67,110,4
1,61,117,424
1,67,113,4
1,57,117,4
1,64,113,4
1,67,114,444
1,61,117,4
1,64,117,4
1,57,117,4
1,62,117,596
1,57,117,4
1,66,117,4
1,62,117,464
1,57,117,4
1,66,117,4
1,66,117,440
1,57,117,4
1,62,117,4
1,66,117,444
1,57,117,4
1,62,117,4
1,57,117,472
1,66,117,4
1,62,117,4
1,68,117,648
1,64,117,4
1,59,117,4
1,68,117,432
1,64,117,0
1,59,117,4
1,68,117,440
1,59,117,4
1,64,117,4
1,68,117,420
1,64,117,4
1,59,117,4
1,68,117,412
1,59,117,4
1,64,117,4
1,61,117,612
1,64,117,4
1,57,117,4
1,64,117,404
1,57,117,4
1,61,117,0
1,64,117,432
1,57,117,4
1,61,117,4
1,61,117,380
1,57,117,0
1,64,117,0
1,64,117,440
1,61,117,4
1,57,117,4
1,62,117,560
1,57,117,0
1,66,117,4
1,66,117,444
1,57,117,4
1,62,117,0
1,66,117,424
1,62,117,4
1,57,117,4
1,66,117,444
1,62,117,4
1,57,117,0
1,66,117,444
1,57,117,4
1,62,117,4
1,68,117,532
1,59,117,0
1,64,117,4
1,68,117,456
1,64,117,4
1,59,117,0
1,68,117,432
1,59,117,4
1,64,117,4
1,64,117,432
1,68,117,0
1,59,117,4
1,68,117,440
1,64,117,4
1,59,117,4
1,57,117,628
1,61,117,4
1,64,117,0
1,66,117,284
1,62,117,4
1,57,117,0
1,57,117,412
1,64,117,0
1,61,117,4
1,57,117,68
1,57,117,88
1,66,117,0
1,62,117,4
1,64,117,224
1,61,117,4
1,57,117,0
1,61,117,620
1,57,117,4
1,64,117,4
1,64,117,448
1,61,117,4
1,57,117,0
1,57,117,460
1,64,117,4
1,61,117,4
1,61,117,428
1,64,117,0
1,57,117,4
1,64,117,432
1,57,117,4
1,61,117,4
1,62,117,608
1,66,117,0
1,57,117,4
1,57,117,444
1,66,117,4
1,62,117,4
1,66,117,460
1,62,117,4
1,57,117,4
1,62,117,440
1,57,117,4
1,66,117,4
1,57,117,440
1,66,117,4
1,62,117,4
1,64,117,600
1,59,117,0
1,68,117,4
1,59,117,428
1,68,117,0
1,64,117,0
1,68,117,444
1,59,117,4
1,64,117,4
1,64,117,428
1,68,117,0
1,59,117,4
1,68,117,468
1,59,117,4
1,64,117,4
1,64,117,612
1,57,117,4
1,61,117,0
1,62,117,412
1,57,117,0
1,66,117,4
1,64,117,368
1,61,117,4
1,57,117,0
1,66,117,440
1,62,117,0
1,57,117,4
1,64,117,456
1,61,117,4
1,57,117,4
1,64,117,572
1,67,117,4
1,61,117,0
1,57,113,4
1,61,117,392
1,64,117,4
1,67,99,0
1,57,114,4
1,61,117,436
1,57,117,0
1,64,117,4
1,67,102,4
1,61,117,428
1,57,117,4
1,64,117,4
1,67,99,4
1,61,117,432
1,67,98,4
1,64,117,4
1,57,117,4
1,57,117,612
1,61,117,0
1,64,117,0
1,67,110,4
1,64,117,440
1,57,117,0
1,61,117,0
1,67,105,4
1,61,117,444
1,57,117,4
1,67,111,0
1,64,117,4
1,61,117,412
1,67,111,4
1,57,117,4
1,64,117,4
1,61,117,440
1,67,117,4
1,57,117,4
1,64,117,4
1,67,111,624
1,61,117,4
1,64,117,4
1,57,117,0
1,61,117,424
1,57,117,4
1,67,104,0
1,64,117,4
1,61,117,428
1,67,108,4
1,64,117,4
1,57,117,4
1,67,107,416
1,61,117,4
1,57,117,4
1,64,117,0
1,57,117,440
1,64,117,0
1,67,104,4
1,61,117,4
1,67,107,612
1,61,117,0
1,57,117,0
1,64,114,4
1,67,107,392
1,61,117,0
1,57,117,4
1,64,117,4
1,61,117,392
1,67,110,4
1,64,117,4
1,57,117,4
1,57,117,396
1,64,117,0
1,67,111,0
1,61,117,0
1,61,117,412
1,67,113,4
1,57,117,4
1,64,117,4
1,61,117,612
1,67,117,4
1,57,117,4
1,64,117,4
1,67,113,416
1,61,117,4
1,57,117,4
1,64,117,4
1,61,117,432
1,64,117,4
1,67,114,4
1,57,117,4
1,61,117,416
1,67,114,4
1,64,117,4
1,57,117,0
1,61,117,448
1,67,117,4
1,57,117,4
1,64,117,4
1,61,117,620
1,64,117,4
1,67,114,4
1,57,117,4
1,67,114,432
1,61,117,4
1,64,117,4
1,57,117,4
1,57,117,440
1,64,117,4
1,61,117,4
1,67,108,4
1,67,117,436
1,61,117,0
1,57,117,4
1,64,117,4
1,61,117,436
1,67,113,4
1,64,117,4
1,57,117,4
1,62,117,592
1,57,117,4
1,66,117,4
1,62,117,472
1,66,117,4
1,57,117,4
1,66,117,440
1,57,117,4
1,62,117,4
1,66,117,428
1,57,117,4
1,62,117,0
1,66,117,444
1,62,117,4
1,57,117,4
1,61,117,600
1,67,107,4
1,64,117,4
1,57,117,4
1,61,117,416
1,67,107,4
1,64,117,0
1,57,117,0
1,61,117,416
1,67,104,4
1,64,117,4
1,57,117,4
1,64,117,424
1,61,117,0
1,67,107,4
1,57,117,4
1,61,117,424
1,67,105,4
1,57,117,4
1,64,117,4
1,61,117,644
1,67,110,4
1,64,117,4
1,57,117,4
1,61,117,436
1,57,117,0
1,67,117,4
1,64,117,4
1,61,117,424
1,67,117,4
1,57,117,4
1,64,117,4
1,61,117,424
1,57,117,4
1,67,107,0
1,64,117,4
1,67,107,420
1,61,117,4
1,64,117,4
1,57,117,4
1,66,117,596
1,57,117,4
1,62,117,4
1,57,117,432
1,66,117,0
1,62,117,4
1,57,117,432
1,66,117,4
1,62,117,4
1,66,117,440
1,57,117,0
1,62,117,4
1,66,117,428
1,57,117,4
1,62,117,4
1,68,117,620
1,64,117,4
1,59,117,4
1,59,117,416
1,68,117,4
1,64,117,0
1,59,117,436
1,68,117,4
1,64,117,4
1,68,117,436
1,59,117,0
1,64,117,4
1,68,117,424
1,64,117,4
1,59,117,4
1,61,117,572
1,57,117,4
1,64,117,4
1,61,117,420
1,57,117,0
1,64,117,0
1,64,117,452
1,57,117,4
1,61,117,4
1,64,117,416
1,57,117,4
1,61,117,4
1,64,117,436
1,57,117,4
1,61,117,4
1,66,117,636
1,57,117,4
1,62,117,4
1,66,117,456
1,57,117,0
1,62,117,4
1,57,117,436
1,66,117,4
1,62,117,4
1,57,117,456
1,66,117,4
1,62,117,4
1,66,117,232
1,57,117,4
1,62,117,4
1,68,117,396
1,64,117,4
1,59,117,4
1,68,117,444
1,59,117,4
1,64,117,4
1,68,117,456
1,64,117,4
1,59,117,4
1,68,117,620
1,59,117,4
1,64,117,4
1,68,117,452
1,64,117,4
1,59,117,4
1,57,117,804
1,61,117,4
1,64,117,4
1,66,117,400
1,62,117,0
1,57,117,4
1,61,117,432
1,57,117,4
1,64,117,4
1,66,117,424
1,62,117,0
1,57,117,4
1,64,117,232
1,61,117,0
1,57,117,0
1,64,117,748
1,61,117,4
1,57,117,4
1,61,117,444
1,57,117,0
1,64,117,0
1,64,117,456
1,57,117,4
1,61,117,4
1,64,117,432
1,57,117,4
1,61,117,4
1,64,117,428
1,57,117,4
1,61,117,4
1,66,117,620
1,57,117,4
1,62,117,0
1,57,117,440
1,66,117,4
1,62,117,4
1,66,117,444
1,57,117,4
1,62,117,4
1,66,117,448
1,57,117,4
1,62,117,4
1,66,117,436
1,57,117,4
1,62,117,4
1,68,117,624
1,59,117,0
1,64,117,4
1,68,117,412
1,59,117,4
1,64,117,4
1,68,117,440
1,64,117,4
1,59,117,4
1,68,117,424
1,64,117,4
1,59,117,0
1,68,117,424
1,64,117,4
1,59,117,4
1,61,117,584
1,57,117,4
1,64,117,4
1,66,117,428
1,62,117,4
1,57,117,4
1,57,117,444
1,64,117,4
1,61,117,4
1,64,117,456
1,61,117,4
1,57,117,0
1,61,117,264
1,64,117,0
1,57,117,0
1,61,117,792
1,64,117,4
1,57,117,4
1,67,101,0
1,64,117,652
1,61,117,0
1,57,117,4
1,67,83,4
1,61,117,644
1,57,117,4
1,64,117,0
1,67,102,4
1,61,117,636
1,57,117,4
1,64,114,0
1,67,95,0
1,61,117,632
1,57,117,0
1,64,110,4
1,67,95,4
1,61,117,628
1,64,114,4
1,57,113,0
1,67,99,4
1,67,104,624
1,57,117,0
1,64,117,0
1,61,117,0
1,61,117,636
1,57,117,4
1,67,107,4
1,64,113,4
1,61,117,624
1,57,117,4
1,64,110,4
1,67,89,4
1,57,105,624
1,61,117,0
1,64,117,4
1,67,107,4
1,61,117,620
1,67,104,4
1,57,117,4
1,64,117,4
1,61,117,620
1,67,104,4
1,64,117,4
1,57,117,4
1,61,116,604
1,67,96,4
1,57,107,4
1,64,107,4
1,61,117,636
1,67,107,0
1,57,117,4
1,64,116,4
1,61,117,624
1,67,110,4
1,57,117,0
1,64,117,4
1,61,117,620
1,57,117,4
1,67,110,4
1,64,117,4
1,57,117,616
1,61,117,0
1,67,110,4
1,64,117,4
1,61,117,620
1,57,117,4
1,64,117,0
1,67,102,4
1,61,116,616
1,57,117,4
1,64,117,4
1,67,104,4
1,61,117,612
1,67,107,4
1,64,117,4
1,57,114,4
1,64,111,628
1,57,117,4
1,67,110,0
1,61,117,4
1,61,117,612
1,67,102,4
1,57,113,4
1,64,113,4
1,61,117,620
1,57,117,4
1,67,107,4
1,64,117,4
1,61,117,596
1,67,110,4
1,57,117,4
1,64,117,4
1,61,117,604
1,67,99,0
1,57,117,4
1,64,113,4
1,61,117,616
1,67,104,4
1,57,117,0
1,64,117,4
1,61,117,596
1,64,110,4
1,67,107,0
1,57,117,0
1,61,117,608
1,64,117,4
1,57,117,0
1,67,107,4
1,61,117,604
1,57,117,4
1,67,107,0
1,64,113,4
1,61,117,616
1,57,117,4
1,67,99,4
1,64,117,4
1,67,110,612
1,61,117,0
1,57,117,0
1,64,113,4
1,67,102,616
1,61,117,0
1,57,117,0
1,64,117,0
1,61,117,620
1,57,117,0
1,67,107,0
1,64,117,4
1,61,117,616
1,67,110,4
1,57,117,4
1,64,117,4
1,57,117,616
1,61,117,0
1,67,107,0
1,64,117,0
1,61,117,616
1,64,117,4
1,67,117,0
1,57,117,4
1,61,117,592
1,67,101,4
1,64,114,0
1,57,117,0
1,67,107,620
1,61,117,4
1,64,117,4
1,57,117,4
1,61,117,596
1,67,111,4
1,57,117,4
1,64,117,4
1,61,117,608
1,67,107,4
1,57,117,0
1,64,113,4
1,67,99,592
1,61,117,0
1,57,114,4
1,64,117,4
1,61,117,612
1,57,117,4
1,64,117,4
1,67,105,4
1,61,117,580
1,67,107,4
1,64,117,0
1,57,117,4
1,64,117,616
1,67,99,0
1,61,117,0
1,57,113,4
1,61,117,612
1,67,110,0
1,64,117,4
1,57,107,4
1,61,117,616
1,67,102,4
1,57,107,4
1,64,113,4
1,67,110,628
1,64,117,0
1,57,117,0
1,61,117,0
1,61,117,600
1,57,117,4
1,64,117,0
1,67,113,0
1,61,117,628
1,67,110,0
1,57,117,4
1,64,117,4
1,67,111,628
1,61,117,0
1,64,117,4
1,57,113,4
1,67,107,640
1,64,116,0
1,61,117,0
1,57,110,0
1,61,117,644
1,57,117,4
1,64,117,4
1,67,113,4
1,61,117,608
1,57,117,4
1,67,102,4
1,64,117,4
1,57,117,640
1,61,117,4
1,64,117,0
1,67,105,4
1,61,117,616
1,67,98,0
1,57,111,0
1,64,113,4
1,61,117,648
1,67,102,0
1,64,117,4
1,57,107,4
1,61,117,632
1,67,104,4
1,64,114,4
1,57,113,4
1,61,117,644
1,67,102,0
1,64,117,4
1,57,110,4
1,67,107,636
1,61,117,4
1,57,117,0
1,64,113,4
1,61,117,640
1,64,117,4
1,67,99,4
1,57,117,4
1,61,117,632
1,67,107,4
1,57,117,0
1,64,116,4
1,67,107,644
1,61,117,0
1,64,117,0
1,57,117,4
1,61,117,648
1,67,107,4
1,57,117,4
1,64,117,0
1,57,117,640
1,61,117,4
1,67,110,4
1,64,117,4
1,61,117,672
1,67,113,4
1,57,117,4
1,64,117,4
1,61,117,456
1,67,92,4
1,64,113,0
1,57,104,4
1,67,99,476
1,61,117,4
1,57,111,4
1,64,96,4
1,61,117,452
1,57,113,4
1,67,99,0
1,64,110,0
1,67,107,464
1,61,117,4
1,57,117,4
1,64,117,4
1,67,111,624
1,61,117,4
1,64,117,4
1,57,117,4
1,61,117,424
1,67,111,4
1,57,117,4
1,64,117,0
1,67,111,436
1,61,117,4
1,64,117,4
1,57,117,4
1,61,117,432
1,67,101,0
1,57,117,4
1,64,111,4
1,67,104,444
1,61,117,4
1,57,117,4
1,64,113,4
1,62,117,576
1,57,117,4
1,66,117,4
1,57,117,440
1,62,117,0
1,66,117,4
1,66,117,444
1,62,117,4
1,57,117,4
1,66,117,432
1,62,117,0
1,57,117,4
1,66,117,436
1,62,117,4
1,57,117,4
1,61,117,592
1,67,113,4
1,64,117,4
1,57,117,4
1,61,117,424
1,67,110,4
1,57,117,4
1,64,117,4
1,61,117,440
1,67,105,4
1,64,117,4
1,57,117,4
1,61,117,444
1,64,117,0
1,67,107,0
1,57,117,0
1,61,117,444
1,64,117,4
1,67,99,4
1,57,117,4
1,61,117,644
1,64,117,4
1,67,107,4
1,57,117,4
1,61,117,440
1,57,117,0
1,67,108,4
1,64,117,4
1,61,117,448
1,67,107,4
