track,note,velocity,time
0,45,87,1
0,45,127,3
0,57,106,15
0,57,127,1
0,52,127,1
0,42,127,4
0,49,127,4
0,52,75,37
0,57,83,0
0,52,75,39
0,57,70,1
0,40,127,2
0,57,107,43
0,52,127,2
0,57,127,1
0,42,127,30
0,49,127,4
0,57,107,8
0,52,127,1
0,57,127,0
0,45,127,8
0,57,127,1
0,45,127,8
0,55,75,5
0,42,127,5
0,57,127,3
0,55,83,0
0,42,127,4
0,49,127,4
0,55,100,5
0,54,95,0
0,43,127,4
0,55,127,0
0,54,127,45
0,42,127,5
0,49,127,2
0,55,119,3
0,45,117,39
0,45,127,3
0,57,107,17
0,57,127,0
0,52,127,1
0,42,127,4
0,49,127,0
0,52,75,39
0,57,83,0
0,52,75,41
0,57,70,1
0,40,127,2
0,52,106,16
0,52,127,2
0,42,127,4
0,49,127,1
0,57,84,9
0,45,127,0
0,45,127,1
0,57,116,0
0,45,127,4
0,57,127,2
0,45,127,2
0,42,127,11
0,57,127,3
0,52,75,5
0,57,70,1
0,42,127,1
0,49,127,3
0,52,75,1
0,57,83,1
0,52,127,1
0,57,107,2
0,57,127,1
0,43,127,1
0,52,78,0
0,57,83,2
0,54,97,43
0,54,127,0
0,42,127,4
0,49,127,1
0,52,99,1
0,45,87,3
0,45,127,3
0,57,106,15
0,57,127,0
0,52,127,1
0,42,127,4
0,49,127,4
0,52,75,37
0,57,83,0
0,52,75,40
0,57,70,1
0,40,127,2
0,57,107,43
0,52,127,2
0,57,127,1
0,42,127,29
0,49,127,2
0,57,107,7
0,52,127,2
0,57,127,0
0,45,127,8
0,57,127,1
0,45,127,8
0,55,75,4
0,42,127,7
0,57,127,2
0,55,83,0
0,42,127,5
0,49,127,4
0,55,100,6
0,54,95,41
0,43,127,5
0,55,127,4
0,54,127,44
0,42,127,5
0,49,127,2
0,55,119,4
0,45,117,40
0,45,127,3
0,57,107,17
0,57,127,1
0,52,127,0
0,42,127,4
0,49,127,0
0,52,75,39
0,57,83,0
0,52,75,40
0,57,70,1
0,40,127,3
0,52,106,17
0,52,127,2
0,42,127,3
0,49,127,1
0,57,84,9
0,45,127,0
0,45,127,1
0,57,116,0
0,45,127,4
0,57,127,3
0,38,3,2
0,38,3,0
0,45,127,1
0,38,1,10
0,38,1,0
0,42,127,1
0,57,127,3
0,40,39,6
0,28,64,0
0,52,75,0
0,57,70,0
0,42,127,1
0,49,127,2
0,61,117,1
0,67,86,1
0,64,117,0
0,57,111,1
0,38,1,1
0,38,1,0
0,52,75,0
0,57,83,1
0,52,127,2
0,38,24,1
0,38,24,0
0,57,107,0
0,57,127,1
0,43,127,1
0,52,78,29
0,57,83,2
0,38,19,0
0,38,19,0
0,64,117,40
0,61,117,1
0,67,110,0
0,40,67,1
0,57,117,0
0,28,90,0
0,54,97,0
0,54,127,0
0,42,127,1
0,49,127,1
0,40,121,0
0,52,99,0
0,35,50,1
0,38,35,0
0,38,35,0
0,45,119,2
0,38,43,1
0,45,87,0
0,35,111,1
0,45,127,1
0,38,45,5
0,61,117,15
0,57,117,0
0,64,117,1
0,40,98,1
0,67,105,0
0,28,94,0
0,57,106,0
0,57,127,0
0,52,127,1
0,42,127,1
0,49,127,2
0,52,75,18
0,57,83,0
0,38,25,0
0,52,75,41
0,40,126,1
0,57,70,0
0,38,54,0
0,35,110,0
0,40,127,0
0,67,110,44
0,61,117,0
0,57,117,1
0,64,117,0
0,57,107,1
0,52,127,1
0,57,127,0
0,38,45,3
0,42,123,11
0,40,97,2
0,28,90,0
0,42,127,0
0,49,127,3
0,57,107,7
0,52,127,2
0,57,127,1
0,38,25,3
0,45,127,2
0,57,127,1
0,45,117,2
0,64,117,0
0,67,107,0
0,61,117,1
0,38,53,1
0,57,117,0
0,35,111,1
0,45,127,1
0,55,75,5
0,38,42,4
0,42,127,1
0,57,127,3
0,55,83,0
0,40,97,1
0,28,91,0
0,42,127,1
0,49,127,4
0,61,117,2
0,67,107,1
0,64,117,1
0,35,68,1
0,57,117,0
0,55,100,0
0,38,27,1
0,54,95,0
0,43,117,1
0,38,52,1
0,35,110,0
0,43,127,1
0,55,127,0
0,38,47,4
0,61,117,41
0,42,127,1
0,67,105,0
0,64,117,0
0,40,96,1
0,28,92,0
0,57,117,0
0,54,127,0
0,42,127,1
0,49,127,1
0,55,119,1
0,38,23,3
0,45,124,0
0,45,117,0
0,38,43,1
0,35,111,1
0,45,127,1
0,38,45,4
0,40,98,18
0,61,117,0
0,57,117,0
0,64,117,0
0,67,107,1
0,28,94,0
0,57,107,0
0,57,127,0
0,52,127,1
0,42,127,1
0,49,127,0
0,52,75,12
0,57,83,2
0,38,25,0
0,52,75,40
0,57,70,1
0,40,124,1
0,38,54,0
0,35,110,0
0,40,127,0
0,52,106,15
0,67,113,1
0,61,117,0
0,64,117,1
0,57,117,1
0,52,127,1
0,38,45,3
0,42,115,1
0,40,97,2
0,28,90,0
0,42,127,0
0,49,127,1
0,57,84,9
0,57,116,0
0,38,25,1
0,45,127,3
0,57,127,2
0,61,117,1
0,64,117,1
0,45,120,1
0,67,107,0
0,57,117,0
0,38,53,1
0,35,111,1
0,45,127,0
0,38,42,9
0,42,127,1
0,57,127,3
0,40,97,5
0,52,75,0
0,28,91,0
0,57,70,0
0,42,127,1
0,42,127,1
0,42,127,1
0,49,127,0
0,45,111,2
0,61,117,0
0,67,107,0
0,64,117,0
0,35,68,1
0,57,117,0
0,38,27,0
0,52,75,0
0,57,83,1
0,45,127,0
0,45,127,1
0,43,123,1
0,52,127,0
0,38,52,1
0,35,110,0
0,57,107,0
0,57,127,1
0,43,127,0
0,52,78,1
0,57,83,1
0,42,127,0
0,42,127,0
0,38,47,1
0,61,117,19
0,42,127,1
0,67,117,0
0,64,117,0
0,40,96,1
0,57,117,0
0,28,92,0
0,54,97,0
0,54,127,0
0,42,127,1
0,49,127,1
0,52,99,2
0,45,127,1
0,45,127,1
0,38,23,0
0,45,124,2
0,38,43,1
0,45,87,0
0,35,111,1
0,45,127,1
0,38,45,5
0,61,117,15
0,67,107,1
0,57,117,0
0,40,98,1
0,64,116,0
0,57,106,0
0,28,94,0
0,57,127,0
0,52,127,0
0,42,127,1
0,49,127,3
0,52,75,14
0,57,83,1
0,38,25,0
0,52,75,38
0,57,70,1
0,40,126,1
0,38,54,0
0,35,110,1
0,40,127,0
0,61,117,43
0,67,108,1
0,64,117,1
0,57,117,1
0,57,107,1
0,52,127,0
0,57,127,1
0,38,45,1
0,42,119,11
0,40,97,1
0,28,90,0
0,42,127,1
0,49,127,2
0,57,107,8
0,52,127,2
0,57,127,1
0,38,25,1
0,45,127,3
0,57,127,2
0,67,107,2
0,61,117,0
0,45,117,1
0,64,117,0
0,38,53,1
0,57,117,0
0,35,111,1
0,45,127,1
0,55,75,4
0,38,42,5
0,42,127,1
0,57,127,3
0,55,83,0
0,40,97,2
0,28,91,1
0,42,127,0
0,49,127,2
0,45,99,4
0,61,117,0
0,67,107,0
0,64,117,0
0,35,68,1
0,57,117,0
0,55,100,0
0,38,27,1
0,54,95,0
0,43,126,1
0,38,52,0
0,35,110,1
0,43,127,0
0,55,127,1
0,38,47,3
0,64,117,41
0,57,117,0
0,42,127,1
0,61,117,0
0,40,96,1
0,67,117,0
0,54,127,1
0,28,92,0
0,42,127,0
0,49,127,1
0,55,119,4
0,38,23,0
0,45,117,41
0,45,116,1
0,38,43,0
0,35,111,1
0,45,127,1
0,38,45,4
0,61,117,16
0,64,117,1
0,67,113,1
0,40,98,1
0,57,117,0
0,28,94,0
0,57,107,0
0,57,127,0
0,52,127,1
0,42,127,1
0,49,127,0
0,52,75,10
0,57,83,1
0,38,25,0
0,52,75,40
0,57,70,1
0,40,127,1
0,38,54,0
0,35,110,0
0,40,127,0
0,52,106,18
0,61,117,0
0,67,108,1
0,64,117,1
0,57,117,0
0,52,127,0
0,38,45,4
0,42,121,2
0,40,97,1
0,28,90,0
0,42,127,0
0,49,127,1
0,57,84,1
0,57,116,1
0,38,25,2
0,45,127,3
0,57,127,2
0,45,119,2
0,61,117,0
0,64,117,0
0,67,107,0
0,57,117,0
0,38,53,1
0,35,111,1
0,45,127,1
0,38,42,9
0,42,127,2
0,57,127,2
0,52,75,4
0,40,97,1
0,28,91,0
0,57,70,0
0,42,127,1
0,42,127,1
0,42,127,1
0,49,127,1
0,61,117,1
0,67,107,0
0,45,108,1
0,64,117,0
0,35,68,1
0,57,117,0
0,38,27,0
0,52,75,1
0,57,83,0
0,45,127,0
0,45,127,1
0,43,117,1
0,52,127,0
0,38,52,1
0,57,107,0
0,35,110,1
0,57,127,0
0,43,127,0
0,52,78,11
0,57,83,2
0,38,47,0
0,42,124,42
0,61,117,0
0,67,113,0
0,57,117,0
0,40,96,1
0,64,117,0
0,28,92,0
0,54,97,0
0,54,127,0
0,42,127,1
0,49,127,1
0,52,99,1
0,38,23,0
0,33,117,2
0,52,90,0
0,57,98,0
0,38,43,1
0,67,127,0
0,35,111,1
0,45,127,0
0,57,60,1
0,52,65,1
0,67,113,1
0,38,45,2
0,49,127,25
0,52,115,0
0,57,127,0
0,40,98,1
0,28,94,1
0,61,117,0
0,67,111,0
0,57,117,1
0,64,117,1
0,42,127,3
0,49,127,0
0,33,120,12
0,57,73,0
0,52,65,1
0,38,25,0
0,52,103,0
0,57,98,1
0,40,105,2
0,67,127,0
0,38,54,1
0,35,110,1
0,40,127,1
0,61,117,2
0,67,108,0
0,57,117,1
0,64,117,1
0,57,73,0
0,52,65,1
0,69,115,1
0,38,45,2
0,49,127,0
0,52,127,0
0,57,127,0
0,40,97,2
0,28,90,0
0,42,127,1
0,49,127,3
0,57,73,8
0,52,65,0
0,38,25,5
0,45,127,3
0,57,127,3
0,52,90,0
0,57,98,0
0,45,121,0
0,38,53,1
0,61,117,0
0,35,111,1
0,67,113,0
0,57,117,1
0,64,117,0
0,71,122,2
0,45,127,1
0,57,60,1
0,52,65,0
0,38,42,4
0,42,127,1
0,57,127,4
0,49,127,2
0,52,115,0
0,57,127,0
0,40,97,1
0,71,103,1
0,28,91,0
0,42,127,1
0,49,127,1
0,61,117,15
0,67,114,0
0,45,107,1
0,57,113,0
0,35,68,1
0,64,117,0
0,57,73,1
0,52,65,0
0,38,27,0
0,69,127,1
0,52,103,0
0,57,98,0
0,40,121,2
0,38,52,1
0,35,110,0
0,43,127,1
0,57,73,1
0,52,65,0
0,38,47,2
0,49,127,0
0,52,127,0
0,57,127,0
0,40,96,2
0,28,92,0
0,64,117,0
0,57,117,0
0,67,117,0
0,61,117,0
0,42,127,1
0,49,127,1
0,40,107,14
0,57,73,0
0,52,65,1
0,38,23,0
0,52,90,0
0,57,98,0
0,33,121,1
0,38,43,2
0,67,124,0
0,35,111,1
0,45,127,1
0,57,60,3
0,52,65,1
0,67,124,1
0,38,45,2
0,49,127,40
0,52,115,0
0,57,127,0
0,40,98,2
0,28,94,0
0,67,117,0
0,61,117,0
0,57,117,0
0,64,113,1
0,42,127,1
0,49,127,3
0,57,73,13
0,52,65,0
0,38,25,0
0,52,103,0
0,57,98,1
0,40,124,1
0,67,122,0
0,38,54,1
0,35,110,1
0,40,127,0
0,67,117,2
0,61,117,1
0,57,117,1
0,64,117,1
0,57,73,0
0,52,65,1
0,38,45,1
0,49,127,13
0,52,127,0
0,57,127,0
0,42,123,1
0,40,97,1
0,28,90,0
0,42,127,1
0,69,111,2
0,49,127,1
0,57,73,2
0,52,65,0
0,71,127,4
0,38,25,1
0,45,127,2
0,57,127,3
0,45,119,1
0,67,117,0
0,61,117,0
0,38,53,1
0,57,117,0
0,35,111,1
0,64,117,0
0,52,90,0
0,57,98,0
0,45,127,1
0,57,60,2
0,52,65,1
0,38,42,3
0,42,127,2
0,57,127,2
0,49,127,0
0,52,115,0
0,57,127,0
0,40,97,2
0,28,91,0
0,42,127,0
0,49,127,0
0,45,113,34
0,67,113,1
0,61,117,0
0,35,68,1
0,57,117,0
0,64,117,0
0,57,73,0
0,52,65,1
0,38,27,0
0,69,127,1
0,52,103,0
0,57,98,0
0,42,111,1
0,38,52,1
0,35,110,0
0,43,127,1
0,57,73,0
0,52,65,0
0,38,47,2
0,49,127,4
0,52,127,0
0,40,121,0
0,57,127,0
0,40,96,2
0,28,92,0
0,67,117,0
0,61,117,0
0,57,117,0
0,64,117,1
0,67,124,2
0,42,127,1
0,49,127,1
0,57,73,0
0,52,65,1
0,38,23,0
0,38,126,1
0,38,43,1
0,66,127,0
0,35,111,1
0,50,127,1
0,38,45,5
0,62,127,2
0,57,127,0
0,66,117,1
0,57,117,1
0,40,98,1
0,62,117,0
0,28,94,0
0,62,107,0
0,47,127,1
0,54,127,1
0,38,25,0
0,33,127,6
0,38,54,1
0,35,110,1
0,45,127,0
0,57,117,3
0,66,117,1
0,62,117,0
0,62,107,1
0,62,127,1
0,57,127,0
0,38,45,2
0,40,97,17
0,28,90,0
0,47,127,1
0,54,127,0
0,38,25,13
0,50,127,2
0,62,127,3
0,62,127,1
0,57,127,0
0,38,127,1
0,66,117,0
0,38,53,1
0,62,117,0
0,35,111,1
0,57,117,0
0,62,107,1
0,50,127,1
0,38,42,8
0,47,127,1
0,62,127,2
0,40,97,5
0,28,91,0
0,47,127,1
0,54,127,0
0,66,117,40
0,38,116,1
0,35,68,0
0,62,117,0
0,57,117,0
0,62,107,1
0,57,127,0
0,62,127,1
0,38,27,0
0,33,127,21
0,38,52,1
0,35,110,0
0,45,127,0
0,62,107,43
0,57,127,1
0,62,127,1
0,38,47,4
0,38,127,27
0,66,117,0
0,62,117,0
0,57,117,1
0,40,96,1
0,28,92,0
0,42,127,1
0,38,49,2
0,69,122,5
0,38,53,0
0,38,63,19
0,45,123,3
0,52,90,0
0,57,98,0
0,38,43,1
0,67,122,0
0,35,111,1
0,45,127,0
0,67,113,2
0,57,60,0
0,52,65,1
0,38,45,2
0,49,127,41
0,52,115,0
0,40,98,0
0,57,127,0
0,28,94,1
0,61,117,0
0,64,117,0
0,67,107,1
0,57,117,1
0,42,127,1
0,49,127,2
0,57,73,11
0,52,65,1
0,38,25,0
0,52,103,0
0,57,98,1
0,42,111,1
0,67,120,0
0,38,54,1
0,35,110,1
0,40,127,0
0,61,117,2
0,67,96,0
0,64,116,0
0,57,117,1
0,57,73,0
0,52,65,1
0,38,45,1
0,69,119,14
0,49,127,0
0,52,127,0
0,40,123,0
0,57,127,0
0,40,97,1
0,28,90,0
0,42,127,0
0,49,127,0
0,57,73,3
0,52,65,1
0,71,126,1
0,38,25,0
0,45,127,1
0,57,127,2
0,52,90,0
0,57,98,0
0,33,119,0
0,38,53,1
0,35,111,1
0,61,117,0
0,64,113,1
0,57,117,0
0,67,107,1
0,45,127,1
0,57,60,1
0,52,65,1
0,38,42,4
0,42,127,0
0,57,127,3
0,49,127,3
0,52,115,0
0,57,127,0
0,40,97,2
0,28,91,0
0,71,108,0
0,42,127,0
0,49,127,4
0,61,117,14
0,33,109,1
0,67,104,0
0,57,117,1
0,35,68,1
0,64,117,0
0,57,73,0
0,52,65,1
0,38,27,1
0,69,127,0
0,52,103,0
0,57,98,0
0,40,124,1
0,38,52,2
0,35,110,0
0,43,127,0
0,57,73,2
0,52,65,1
0,38,47,3
0,49,127,5
0,40,96,0
0,52,127,0
0,57,127,0
0,61,117,1
0,28,92,0
0,67,113,0
0,64,117,0
0,57,117,1
0,42,127,2
0,49,127,1
0,57,73,15
0,52,65,0
0,69,102,1
0,38,23,0
0,52,90,0
0,57,98,0
0,33,121,2
0,38,43,1
0,67,127,0
0,35,111,1
0,45,127,1
0,57,60,4
0,52,65,0
0,67,122,1
0,38,45,2
0,49,127,40
0,52,115,0
0,40,98,0
0,57,127,0
0,28,94,1
0,61,117,0
0,57,117,0
0,64,117,1
0,67,110,1
0,42,127,1
0,49,127,0
0,57,73,12
0,52,65,0
0,38,25,0
0,52,103,0
0,57,98,1
0,40,110,1
0,38,54,1
0,35,110,0
