track,note,velocity,time
0,67,95,0
0,59,108,0
0,62,114,0
0,55,85,0
0,62,83,0
0,59,73,0
0,50,95,0
0,47,90,0
0,43,73,0
0,55,77,0
0,67,91,1
0,62,93,0
0,59,96,0
0,55,75,1
0,50,74,0
0,55,86,1
0,62,93,0
0,59,93,0
0,47,74,0
0,43,74,0
0,67,85,50
0,62,96,0
0,59,91,0
0,55,87,0
0,59,95,0
0,55,76,0
0,50,85,0
0,47,77,0
0,43,73,0
0,62,98,1
0,67,95,1
0,62,100,0
0,59,103,0
0,55,87,2
0,59,87,0
0,62,95,0
0,43,74,0
0,55,73,0
0,50,73,0
0,47,86,0
0,67,95,50
0,60,96,0
0,64,97,0
0,55,86,0
0,64,86,0
0,60,108,0
0,55,77,1
0,43,75,0
0,52,85,0
0,48,76,1
0,69,93,44
0,62,95,0
0,65,97,0
0,57,90,0
0,62,95,0
0,57,79,0
0,65,81,1
0,53,90,0
0,50,90,0
0,45,79,0
0,69,84,1
0,62,95,0
0,65,89,0
0,65,81,2
0,57,83,0
0,62,93,0
0,57,77,2
0,45,87,0
0,50,79,0
0,53,79,0
0,67,97,48
0,60,87,0
0,64,96,0
0,55,81,0
0,64,98,0
0,60,87,0
0,43,75,0
0,55,75,0
0,52,93,0
0,48,86,1
0,67,95,1
0,64,81,0
0,55,79,0
0,60,79,0
0,64,105,1
0,60,108,0
0,43,77,2
0,55,76,1
0,48,74,0
0,52,90,0
0,67,93,25
0,62,96,0
0,59,97,1
0,62,87,2
0,59,95,0
0,55,74,0
0,43,73,0
0,55,83,0
0,50,93,0
0,47,86,1
0,67,91,1
0,62,86,0
0,59,95,0
0,55,75,2
0,62,75,0
0,55,75,0
0,50,75,0
0,43,77,0
0,59,86,1
0,47,79,0
0,55,81,49
0,67,95,1
0,62,91,0
0,59,93,0
0,55,76,0
0,62,77,0
0,59,90,0
0,43,69,0
0,50,83,0
0,47,86,0
0,67,97,1
0,62,97,0
0,59,97,0
0,62,83,0
0,59,90,1
0,55,79,0
0,43,76,0
0,55,73,0
0,47,83,1
0,67,93,33
0,64,97,0
0,60,105,0
0,64,83,1
0,60,85,0
0,55,76,0
0,55,79,1
0,43,79,0
0,48,76,1
0,52,85,0
0,69,100,45
0,65,114,0
0,62,122,0
0,57,90,0
0,62,104,0
0,65,83,0
0,57,79,0
0,53,93,0
0,50,95,0
0,45,77,0
0,69,84,1
0,62,108,0
0,45,87,0
0,57,74,0
0,50,77,0
0,65,91,1
0,65,74,0
0,53,83,0
0,57,83,1
0,62,98,0
0,67,103,46
0,64,100,0
0,60,95,0
0,64,90,0
0,60,87,0
0,55,86,0
0,43,70,0
0,55,83,0
0,48,76,0
0,52,86,0
0,67,87,1
0,64,95,0
0,60,105,1
0,64,114,0
0,55,86,0
0,60,90,0
0,43,76,1
0,55,77,0
0,52,83,0
0,48,74,1
0,79,90,38
0,74,111,0
0,71,100,0
0,67,97,0
0,59,114,0
0,62,121,0
0,62,93,0
0,55,85,0
0,59,98,0
0,55,76,0
0,50,93,0
0,47,86,0
0,43,70,0
0,49,79,1
0,57,82,0
0,35,106,0
0,43,108,0
0,62,79,1
0,55,79,0
0,59,87,1
0,55,76,0
0,50,71,0
0,42,85,1
0,79,79,0
0,74,87,0
0,67,95,0
0,47,75,0
0,69,53,0
0,71,87,0
0,62,89,0
0,59,89,0
0,43,71,0
0,35,99,15
0,43,99,1
0,38,91,4
0,45,104,0
0,40,98,0
0,74,103,3
0,67,103,0
0,71,103,0
0,62,96,0
0,67,95,0
0,59,95,0
0,62,85,0
0,55,83,0
0,59,95,0
0,55,81,0
0,50,77,0
0,35,100,1
0,38,101,0
0,43,69,0
0,47,81,0
0,69,52,0
0,35,106,1
0,67,95,0
0,62,103,0
0,59,100,0
0,31,108,0
0,59,95,0
0,62,87,0
0,55,81,0
0,74,87,1
0,71,93,0
0,43,75,0
0,67,79,1
0,50,77,0
0,55,77,0
0,47,85,0
0,54,51,5
0,69,51,0
0,42,87,1
0,67,93,32
0,64,97,1
0,60,103,0
0,55,83,0
0,38,94,1
0,45,108,0
0,36,108,0
0,76,93,0
0,72,114,0
0,67,111,0
0,48,76,0
0,52,87,0
0,43,75,0
0,60,81,0
0,64,90,0
0,55,85,0
0,54,86,0
0,69,54,0
0,62,118,38
0,69,97,0
0,65,114,0
0,65,103,0
0,57,103,0
0,62,103,0
0,57,83,0
0,50,100,0
0,53,100,0
0,45,87,0
0,38,108,1
0,69,93,0
0,77,87,0
0,74,108,0
0,35,106,2
0,42,96,1
0,69,91,0
0,69,52,0
0,65,77,0
0,38,107,1
0,62,93,0
0,65,89,0
0,62,81,0
0,57,83,0
0,57,73,0
0,45,93,0
0,77,77,1
0,74,95,0
0,69,86,0
0,50,81,0
0,53,77,0
0,38,94,2
0,45,109,0
0,67,87,45
0,76,100,0
0,72,90,0
0,67,95,0
0,64,95,0
0,64,93,0
0,55,86,0
0,60,87,0
0,55,86,0
0,52,86,0
0,43,81,0
0,48,77,0
0,35,97,1
0,36,108,0
0,60,97,0
0,69,52,0
0,35,105,1
0,67,86,0
0,67,95,0
0,64,93,0
0,60,108,0
0,55,81,0
0,60,90,0
0,64,100,0
0,43,77,0
0,52,86,0
0,55,86,0
0,36,108,0
0,72,90,0
0,76,104,0
0,48,76,0
0,42,79,47
0,54,84,0
0,69,49,0
0,54,78,47
0,38,91,1
0,45,108,0
0,42,90,1
0,69,53,0
0,79,103,16
0,55,77,0
0,43,70,0
0,50,90,0
0,47,90,0
0,43,103,1
0,74,103,0
0,71,103,0
0,67,95,0
0,59,121,0
0,62,121,0
0,62,77,0
0,59,95,0
0,55,90,1
0,35,107,1
0,79,81,2
0,42,90,1
0,74,86,0
0,67,91,0
0,69,56,0
0,71,86,0
0,62,91,0
0,59,103,1
0,43,68,0
0,55,76,0
0,50,77,0
0,62,83,1
0,55,83,0
0,59,87,0
0,47,79,0
0,43,99,21
0,35,105,1
0,40,107,5
0,38,94,1
0,45,109,0
0,35,104,3
0,74,93,0
0,67,96,0
0,62,89,0
0,59,93,0
0,43,74,0
0,55,79,0
0,50,83,0
0,47,85,0
0,38,97,0
0,67,76,0
0,71,85,0
0,62,98,0
0,59,98,0
0,55,86,0
0,69,53,0
0,35,107,1
0,31,109,0
0,67,100,0
0,74,87,0
0,67,83,0
0,71,95,0
0,62,95,0
0,50,74,0
0,43,74,0
0,55,76,0
0,47,86,0
0,59,100,1
0,62,81,0
0,59,87,0
0,55,77,0
0,69,51,1
0,42,96,1
0,54,81,0
0,67,97,25
0,60,97,0
0,64,105,0
0,64,81,0
0,55,77,0
0,36,108,1
0,55,86,0
0,60,87,0
0,43,86,0
0,52,85,0
0,48,81,0
0,54,86,0
0,38,92,1
0,45,105,0
0,76,86,0
0,72,85,0
0,67,79,0
0,62,75,0
0,69,51,2
0,69,93,41
0,65,85,0
0,57,104,0
0,62,100,0
0,53,90,0
0,57,75,0
0,50,86,0
0,45,93,0
0,35,107,1
0,38,108,0
0,69,93,0
0,77,81,0
0,74,98,0
0,62,100,0
0,65,100,0
0,42,100,1
0,38,108,0
0,69,89,0
0,62,103,0
0,65,79,0
0,62,95,0
0,57,87,0
0,69,53,0
0,65,96,0
0,74,87,1
0,57,71,0
0,50,81,0
0,45,83,0
0,53,77,0
0,69,87,1
0,77,83,0
0,38,91,6
0,45,105,0
0,67,79,45
0,72,90,0
0,76,104,0
0,67,97,0
0,64,103,0
0,60,105,0
0,64,87,0
0,60,85,0
0,55,86,0
0,43,77,0
0,52,90,0
0,48,81,0
0,55,74,0
0,35,102,1
0,36,108,0
0,69,55,0
0,67,96,3
0,64,96,0
0,60,108,0
0,35,106,1
0,36,108,0
0,43,77,0
0,52,87,0
0,55,86,0
0,48,77,0
0,67,85,0
0,76,98,0
0,72,95,0
0,55,85,0
0,64,90,0
0,60,95,0
0,42,90,47
0,54,84,0
0,69,51,0
0,54,85,0
0,38,92,1
0,45,108,0
0,42,92,1
0,69,53,0
0,79,103,46
0,74,103,0
0,71,103,0
0,67,93,0
0,62,100,0
0,59,110,0
0,62,90,0
0,55,85,0
0,59,98,0
0,50,95,0
0,47,86,0
0,55,83,0
0,43,71,0
0,43,108,1
0,54,78,0
0,35,107,1
0,54,50,0
0,55,79,0
0,62,85,0
0,55,71,0
0,50,72,0
0,42,92,1
0,79,90,0
0,67,89,0
0,62,93,0
0,59,95,0
0,59,93,0
0,43,76,0
0,47,68,0
0,69,53,0
0,74,90,0
0,54,51,0
0,71,90,1
0,54,78,1
0,43,97,20
0,35,105,1
0,40,108,3
0,38,90,1
0,45,103,0
0,54,87,0
0,67,96,3
0,62,108,0
0,59,100,0
0,62,83,0
0,59,93,0
0,55,77,0
0,55,77,0
0,50,86,0
0,47,83,0
0,43,71,0
0,69,52,0
0,35,106,1
0,38,102,0
0,74,86,0
0,67,98,0
0,71,100,0
0,35,106,1
0,31,104,0
0,62,87,0
0,55,83,0
0,59,93,0
0,43,75,0
0,62,95,0
0,67,97,0
0,59,95,0
0,50,85,0
0,55,79,0
0,47,83,0
0,67,79,1
0,71,95,0
0,74,93,0
0,42,87,1
0,69,55,0
0,67,93,40
0,64,87,0
0,36,108,1
0,64,103,0
0,60,97,0
0,60,90,0
0,55,85,0
0,55,75,0
0,43,76,0
0,38,92,1
0,45,107,0
0,76,81,0
0,72,87,0
0,67,81,0
0,52,85,0
0,48,74,0
0,54,87,0
0,69,56,1
0,69,108,41
0,62,110,0
0,65,118,0
0,65,79,0
0,57,87,0
0,62,85,0
0,38,108,1
0,77,83,1
0,50,90,0
0,57,75,0
0,53,90,0
0,45,85,0
0,35,107,1
0,69,93,0
0,74,98,0
0,42,96,1
0,38,105,0
0,69,96,0
0,62,91,0
0,65,93,0
0,69,61,0
0,57,74,0
0,62,93,1
0,65,76,0
0,57,90,0
0,50,85,0
0,53,79,0
0,45,76,0
0,74,93,1
0,77,79,0
0,69,85,0
0,38,91,2
0,45,106,0
0,67,83,45
0,76,93,0
0,72,93,0
0,67,96,0
0,64,91,0
0,60,84,0
0,64,86,0
0,60,86,0
0,55,81,0
0,55,74,0
0,43,74,0
0,48,85,0
0,52,98,0
0,35,103,1
0,36,109,0
0,69,58,0
0,67,91,1
0,72,91,0
0,76,91,0
0,60,110,0
0,67,89,0
0,55,86,0
0,64,90,0
0,60,93,0
0,35,107,1
0,36,108,0
0,64,108,0
0,43,74,0
0,55,79,1
0,52,86,0
0,48,77,0
0,42,96,1
0,54,78,0
0,69,55,0
0,54,76,1
0,38,92,1
0,45,107,0
0,42,61,1
0,69,2,0
0,74,95,32
0,79,87,0
0,71,98,0
0,62,100,0
0,55,86,0
0,59,95,0
0,35,108,1
0,43,102,0
0,50,90,0
0,55,81,0
0,47,87,0
0,43,71,0
0,54,86,0
0,62,122,1
0,67,93,0
0,59,114,0
0,54,32,1
0,62,81,1
0,59,87,0
0,55,81,0
0,55,79,0
0,50,76,0
0,47,75,0
0,42,109,1
0,79,76,0
0,74,75,0
0,71,90,0
0,43,56,0
0,54,68,0
0,69,51,0
0,67,89,1
0,62,96,0
0,59,97,0
0,54,76,1
0,43,97,20
0,35,105,1
0,40,104,3
0,54,86,0
0,38,91,1
0,45,104,0
0,35,103,6
0,67,95,0
0,74,95,0
0,71,104,0
0,67,96,0
0,62,93,0
0,62,87,0
0,59,86,0
0,55,77,0
0,55,74,0
0,50,86,0
0,38,102,0
0,59,91,0
0,47,83,0
0,69,58,0
0,43,74,1
0,35,109,1
0,31,108,0
0,67,83,0
0,74,98,0
0,71,98,0
0,62,89,0
0,67,96,0
0,55,81,0
0,59,90,0
0,62,98,0
0,59,97,1
0,43,74,0
0,55,79,0
0,50,79,0
0,47,87,1
0,69,52,0
0,42,103,1
0,67,95,44
0,64,97,0
0,60,103,0
0,64,86,0
0,60,87,0
0,55,81,0
0,36,108,1
0,76,86,0
0,72,95,0
0,67,87,0
0,55,79,0
0,43,83,0
0,52,83,0
0,48,75,0
0,38,91,1
0,45,107,0
0,54,87,0
0,69,53,1
0,57,98,17
0,65,86,0
0,69,104,1
0,77,104,0
0,62,111,0
0,57,79,0
0,74,104,1
0,69,103,0
0,62,114,0
0,65,114,0
0,50,84,0
0,45,85,0
0,53,78,0
0,38,108,1
0,35,108,1
0,65,76,0
0,57,69,0
0,42,90,1
0,38,103,0
0,57,76,0
0,62,90,0
0,45,76,0
0,50,79,0
0,69,86,0
0,53,79,0
0,77,81,1
0,74,83,0
0,69,79,0
0,62,87,0
0,65,86,0
0,69,51,0
0,38,91,7
0,45,108,0
0,67,89,45
0,64,87,0
0,60,93,0
0,64,83,0
0,55,79,0
0,60,87,0
0,55,79,0
0,48,77,0
0,52,87,0
0,43,79,0
0,36,107,1
0,76,90,0
0,67,86,0
0,72,86,0
0,69,50,0
0,64,108,1
0,67,93,0
0,60,110,0
0,55,90,0
0,64,93,0
0,43,90,1
0,60,98,0
0,55,86,0
0,52,100,0
0,48,83,0
0,45,105,0
0,67,74,0
0,43,83,0
0,36,108,0
0,72,95,0
0,76,100,0
0,43,66,22
0,45,101,0
0,69,54,21
0,43,90,1
0,42,87,0
0,54,84,0
0,45,105,0
0,72,114,1
0,65,117,0
0,54,84,0
0,45,103,0
0,43,78,0
0,43,103,1
0,42,84,0
0,69,51,0
0,45,108,0
0,65,118,0
0,43,100,10
0,45,105,0
0,62,121,0
0,67,100,0
0,59,114,0
0,62,104,0
0,43,74,0
0,55,86,0
0,50,83,0
0,47,86,0
0,79,101,1
0,59,93,0
0,55,86,0
0,67,110,1
0,62,113,0
0,71,113,0
0,43,107,0
0,71,101,0
0,74,101,0
0,35,108,1
0,54,36,21
0,62,83,0
0,67,84,0
0,59,93,0
0,50,74,0
0,55,74,0
0,47,74,0
0,42,92,1
0,62,79,0
0,55,73,0
0,59,81,0
0,43,74,0
0,54,43,0
0,67,117,0
0,69,53,0
0,79,81,1
0,71,93,0
0,74,87,0
0,43,98,21
0,54,58,0
0,40,103,7
0,54,84,0
0,38,95,1
0,45,110,0
0,67,95,3
0,59,93,0
0,62,93,0
0,62,87,0
0,55,83,0
0,59,93,0
0,55,76,0
0,50,85,0
0,47,77,0
0,35,99,0
0,38,99,0
0,74,86,0
0,67,85,0
0,71,100,0
0,43,73,0
0,69,52,0
0,67,110,1
0,62,110,0
0,71,118,0
0,67,93,1
0,62,95,0
0,59,93,0
0,62,85,0
0,59,90,0
0,55,81,0
0,35,107,1
0,31,108,0
0,50,73,0
0,55,74,0
0,43,68,0
0,47,81,0
0,71,90,1
0,67,77,0
0,74,93,0
0,42,87,5
0,54,76,0
0,69,51,0
0,36,108,36
0,76,87,0
0,67,95,0
0,60,95,0
0,55,90,0
0,64,87,0
0,38,96,1
0,45,109,0
0,72,87,0
0,67,86,0
0,64,96,0
0,60,96,0
0,55,77,0
0,43,77,0
0,52,83,0
0,48,79,0
0,54,86,0
0,69,54,0
0,69,100,40
0,62,108,0
0,65,110,0
0,77,76,1
0,69,85,0
0,74,83,0
0,57,73,0
0,65,76,1
0,57,93,0
0,50,86,0
0,53,81,0
0,45,86,0
0,35,108,1
0,38,109,0
0,62,100,0
0,54,62,22
0,42,96,1
0,38,105,0
0,69,89,0
0,62,89,0
0,69,52,0
0,65,85,0
0,65,81,0
0,62,85,1
0,57,86,0
0,57,70,0
0,50,83,0
0,54,30,0
0,77,79,1
0,69,77,0
0,74,86,0
0,45,81,0
0,53,79,0
0,54,41,23
0,38,96,6
0,45,109,0
0,54,84,0
0,76,98,44
0,67,93,0
0,72,93,0
0,67,96,0
0,64,93,0
0,60,89,0
0,55,85,0
0,64,90,0
0,60,86,0
0,55,86,0
0,43,75,0
0,52,87,0
0,48,76,0
0,36,108,1
0,35,103,1
0,69,52,0
0,64,110,1
0,67,95,0
0,60,110,0
0,55,93,0
0,64,77,0
0,36,107,1
0,67,83,0
0,76,98,0
0,60,95,0
0,72,93,1
0,55,86,0
0,43,77,0
0,35,108,1
