track,note,velocity,time
0,42,56,0
0,42,52,93
0,42,50,93
0,42,46,93
0,42,56,93
0,42,52,93
0,42,50,93
0,42,41,93
0,40,66,45
0,40,66,0
0,42,76,0
0,42,64,0
0,45,66,0
0,69,38,0
0,45,64,0
0,64,74,0
0,81,52,0
0,52,42,44
0,64,27,0
0,52,68,9
0,57,60,0
0,61,54,0
0,62,70,0
0,62,64,13
0,61,64,9
0,57,62,0
0,63,48,0
0,44,62,2
0,59,66,0
0,64,68,0
0,71,48,0
0,52,42,0
0,63,28,0
0,44,54,30
0,59,60,0
0,52,37,0
0,64,64,0
0,62,70,0
0,57,66,1
0,61,56,0
0,52,58,0
0,42,62,0
0,69,44,0
0,64,22,0
0,64,70,30
0,64,32,7
0,57,56,6
0,52,39,0
0,61,39,0
0,64,68,0
0,69,76,0
0,62,52,0
0,42,46,1
0,63,56,0
0,40,62,4
0,61,50,0
0,57,56,0
0,52,39,0
0,64,46,0
0,59,58,0
0,64,58,0
0,40,56,0
0,62,52,0
0,63,16,0
0,57,66,0
0,52,58,0
0,61,60,0
0,61,30,0
0,57,72,0
0,52,64,0
0,62,60,0
0,81,30,0
0,40,62,1
0,42,62,1
0,62,64,0
0,57,66,0
0,62,34,0
0,64,50,0
0,81,31,0
0,81,54,3
0,64,30,0
0,57,64,6
0,62,60,0
0,78,58,0
0,62,70,0
0,42,42,2
0,63,33,0
0,40,56,2
0,57,56,0
0,52,50,0
0,62,46,0
0,59,54,0
0,64,25,0
0,62,64,0
0,57,56,0
0,40,66,4
0,63,48,0
0,59,60,4
0,56,54,0
0,62,52,0
0,68,21,0
0,56,52,0
0,62,64,0
0,40,62,3
0,64,37,0
0,45,58,0
0,57,60,0
0,52,46,0
0,61,52,0
0,69,32,0
0,61,60,0
0,57,54,0
0,64,70,0
0,76,54,3
0,64,37,0
0,57,48,2
0,52,44,0
0,61,46,0
0,83,64,0
0,62,54,0
0,45,58,6
0,81,64,0
0,63,28,0
0,57,39,2
0,61,37,0
0,52,29,0
0,45,58,2
0,76,44,0
0,63,34,0
0,57,54,6
0,61,54,0
0,52,44,0
0,62,58,0
0,40,66,2
0,64,33,0
0,42,68,5
0,45,68,17
0,61,56,0
0,57,54,0
0,52,42,0
0,76,76,0
0,64,74,0
0,81,48,0
0,64,27,45
0,57,68,9
0,52,62,0
0,61,50,0
0,73,92,0
0,62,70,0
0,62,64,4
0,61,62,5
0,57,56,2
0,69,52,0
0,63,48,0
0,64,68,7
0,59,58,0
0,52,52,0
0,44,48,0
0,76,66,0
0,52,42,0
0,63,28,0
0,64,64,30
0,52,46,0
0,59,58,0
0,44,50,0
0,76,62,0
0,62,70,0
0,57,58,1
0,42,54,0
0,61,50,0
0,73,50,0
0,64,22,0
0,64,70,30
0,42,42,7
0,71,50,0
0,64,32,0
0,61,54,6
0,57,56,0
0,52,37,0
0,69,40,0
0,62,52,0
0,42,44,5
0,63,56,0
0,57,46,4
0,61,42,0
0,40,50,0
0,52,46,0
0,78,60,0
0,40,52,3
0,63,16,0
0,57,56,4
0,52,46,0
0,61,54,0
0,62,60,0
0,40,56,2
0,42,54,1
0,57,56,0
0,62,54,0
0,64,50,0
0,64,30,3
0,57,56,6
0,62,52,0
0,74,80,0
0,62,70,0
0,42,48,2
0,74,72,0
0,63,33,0
0,40,52,3
0,57,42,0
0,52,52,0
0,61,56,0
0,73,68,0
0,40,54,2
0,71,54,0
0,63,48,0
0,57,52,4
0,52,50,0
0,61,54,0
0,69,44,0
0,62,64,0
0,40,54,3
0,73,48,0
0,64,37,0
0,56,44,4
0,59,44,0
0,71,38,0
0,64,70,0
0,40,56,3
0,64,37,0
0,56,58,2
0,59,58,0
0,76,66,0
0,62,54,0
0,40,60,6
0,74,37,0
0,63,28,0
0,61,62,0
0,57,64,0
0,73,15,0
0,40,60,2
0,63,34,0
0,59,64,1
0,62,68,0
0,62,58,0
0,40,56,6
0,64,33,0
0,61,46,2
0,45,58,0
0,57,60,0
0,52,48,0
0,64,74,0
0,64,27,36
0,45,54,2
0,52,50,0
0,57,46,0
0,61,56,0
0,73,88,0
0,62,70,0
0,62,56,0
0,61,52,2
0,57,62,6
0,69,42,0
0,63,48,0
0,59,66,5
0,44,60,0
0,64,68,0
0,52,32,0
0,76,66,0
0,63,28,0
0,66,62,30
0,44,44,0
0,71,60,0
0,62,70,0
0,42,54,9
0,61,60,0
0,52,48,0
0,57,56,0
0,73,44,0
0,64,22,0
0,64,70,30
0,42,44,7
0,71,39,0
0,64,32,0
0,57,58,0
0,61,50,0
0,52,18,0
0,69,39,0
0,69,60,0
0,64,58,0
0,81,56,0
0,62,52,0
0,42,50,1
0,63,56,0
0,40,54,4
0,57,56,0
0,61,50,0
0,52,38,0
0,59,56,0
0,64,62,0
0,76,66,0
0,40,54,1
0,63,16,0
0,57,62,1
0,61,58,0
0,52,56,0
0,61,54,0
0,62,60,0
0,40,54,0
0,64,60,0
0,62,60,0
0,57,66,0
0,42,44,0
0,62,56,0
0,64,50,0
0,64,30,3
0,57,64,6
0,62,68,0
0,74,66,0
0,62,70,0
0,42,44,2
0,74,68,0
0,63,33,0
0,57,54,6
0,52,48,0
0,61,54,0
0,73,66,0
0,40,52,4
0,71,56,0
0,63,48,0
0,57,54,4
0,52,48,0
0,61,52,0
0,69,40,0
0,62,64,0
0,40,52,2
0,73,42,0
0,64,37,0
0,59,46,4
0,56,52,0
0,40,54,0
0,71,46,0
0,64,70,0
0,64,37,3
0,56,56,2
0,59,56,0
0,62,54,0
0,40,54,6
0,76,68,0
0,63,28,0
0,61,58,2
0,57,66,0
0,40,54,2
0,76,66,0
0,63,34,0
0,59,66,2
0,62,62,0
0,62,58,0
0,40,46,6
0,76,58,0
0,64,33,0
0,61,40,5
0,42,56,0
0,57,56,0
0,66,60,0
0,69,44,0
0,78,58,0
0,64,74,0
0,81,35,0
0,49,53,40
0,64,27,0
0,57,64,2
0,61,58,0
0,69,58,0
0,62,70,0
0,57,61,2
0,42,64,0
0,69,54,0
0,63,48,0
0,57,64,1
0,61,62,0
0,42,60,6
0,63,28,0
0,61,62,1
0,57,64,0
0,71,58,0
0,68,62,0
0,62,70,0
0,42,44,1
0,68,58,0
0,78,72,0
0,80,52,0
0,64,22,0
0,41,52,2
0,61,50,0
0,56,50,0
0,68,30,0
0,80,50,0
0,81,46,0
0,64,70,0
0,49,61,7
0,64,32,0
0,56,58,0
0,61,56,0
0,62,52,0
0,56,49,5
0,41,62,0
0,63,56,0
0,61,60,1
0,56,66,0
0,41,68,3
0,63,16,0
0,61,62,1
0,56,66,0
0,62,60,0
0,41,50,2
0,40,64,1
0,61,58,0
0,55,52,0
0,69,64,0
0,67,36,0
0,64,50,0
0,81,37,0
0,49,53,3
0,64,30,0
0,55,54,2
0,61,66,0
0,62,70,0
0,55,51,2
0,40,58,0
0,67,58,0
0,63,33,0
0,55,60,1
0,61,66,0
0,67,62,0
0,81,62,0
0,40,62,4
0,63,48,0
0,55,58,0
0,61,66,0
0,69,62,0
0,62,64,0
0,40,60,3
0,66,44,0
0,64,37,0
0,80,42,0
0,58,50,0
0,54,46,0
0,52,37,0
0,42,54,0
0,58,66,0
0,66,27,0
0,64,70,0
0,81,44,0
0,64,37,3
0,42,54,1
0,54,44,0
0,58,48,0
0,52,50,0
0,62,54,0
0,63,28,0
0,47,63,2
0,44,60,0
0,59,66,0
0,54,52,0
0,71,58,0
0,59,60,0
0,59,50,0
0,81,35,0
0,78,62,2
0,63,34,0
0,49,57,1
0,46,52,0
0,61,52,0
0,54,58,0
0,73,54,0
0,61,58,0
0,61,62,0
0,62,58,0
0,81,31,0
0,73,54,6
0,78,62,0
0,64,33,0
0,47,58,0
0,57,46,0
0,62,66,0
0,74,50,0
0,62,64,0
0,62,64,0
0,64,74,0
0,50,65,38
0,64,27,0
0,62,64,9
0,57,60,0
0,62,70,0
0,57,73,5
0,47,56,0
0,71,60,0
0,63,48,0
0,62,60,21
0,57,64,0
0,71,64,0
0,47,64,4
0,69,42,0
0,63,28,0
0,57,64,0
0,62,54,0
0,69,62,0
0,66,34,0
0,64,27,0
0,62,70,0
0,47,64,1
0,68,44,0
0,74,35,0
0,64,42,0
0,69,52,0
0,71,48,0
0,64,26,0
0,64,22,0
0,66,52,6
0,64,44,1
0,64,70,0
0,57,37,1
0,59,54,0
0,57,54,0
0,52,62,0
0,40,54,0
0,66,46,0
0,64,32,0
0,80,39,0
0,57,47,2
0,59,46,0
0,52,46,0
0,57,50,0
0,40,56,0
0,62,46,0
0,66,39,0
0,76,60,0
0,81,36,0
0,62,52,0
0,63,56,5
0,57,42,1
0,73,66,3
0,63,16,0
0,71,58,3
0,62,60,0
0,69,44,2
0,71,56,1
0,61,43,1
0,45,66,0
0,69,38,0
0,64,64,0
0,69,44,0
0,81,37,0
0,64,50,0
0,64,30,0
0,52,34,5
0,61,80,0
0,81,56,0
0,62,70,0
0,62,62,3
0,61,76,1
0,57,64,1
0,71,38,0
0,63,33,0
0,73,44,3
0,59,61,1
0,44,60,0
0,59,72,0
0,64,64,0
0,66,80,0
0,71,46,0
0,76,66,0
0,52,29,4
0,63,48,0
0,44,52,1
0,59,66,0
0,64,66,0
0,52,25,0
0,62,64,0
0,57,39,2
0,57,66,0
0,42,44,0
0,52,54,0
0,61,52,0
0,66,60,0
0,69,30,0
0,64,37,0
0,64,70,1
0,42,31,0
0,64,37,0
0,52,42,1
0,61,44,0
0,57,54,0
0,64,62,0
0,69,56,0
0,62,54,0
0,56,57,6
0,42,46,0
0,63,28,0
0,57,45,5
0,56,42,2
0,57,56,0
0,40,56,0
0,61,50,0
0,52,34,0
0,64,58,0
0,64,46,0
0,59,52,0
0,64,64,0
0,40,56,2
0,62,38,0
0,63,34,0
0,52,57,1
0,57,58,0
0,61,56,0
0,52,46,0
0,71,56,0
0,61,22,0
0,57,62,0
0,52,44,0
0,62,58,0
0,57,57,1
0,40,56,0
0,64,33,0
0,42,64,1
0,57,66,0
0,62,60,0
0,74,56,0
0,69,50,0
0,62,34,0
0,62,22,0
0,81,66,0
0,64,74,0
0,64,27,25
0,57,72,9
0,62,66,0
0,57,58,0
0,62,70,0
0,42,42,42
0,63,48,0
0,52,53,0
0,40,54,0
0,59,56,0
0,62,56,0
0,52,36,0
0,76,58,0
0,69,52,0
0,64,44,0
0,57,56,0
0,62,66,0
0,40,56,8
0,63,28,0
0,56,66,19
0,62,60,0
0,52,58,0
0,59,68,0
0,74,38,0
0,69,44,0
0,68,27,0
0,56,58,0
0,76,80,0
0,62,70,0
0,40,54,9
0,64,22,0
0,45,51,1
0,45,50,0
0,57,52,0
0,61,52,0
0,52,28,0
0,74,37,0
0,71,48,0
0,69,30,0
0,57,52,0
0,61,29,0
0,64,70,0
0,64,32,7
0,61,44,6
0,57,40,0
0,52,34,0
0,62,52,0
0,45,58,5
0,83,54,0
0,63,56,0
0,81,62,11
0,61,50,4
0,57,46,0
0,52,44,0
0,76,58,0
0,45,66,3
0,63,16,0
0,61,52,4
0,57,46,0
0,52,30,0
0,62,60,0
0,40,66,1
0,52,56,0
0,42,76,13
0,54,54,0
0,49,59,1
0,45,80,0
0,57,62,0
0,61,54,0
0,57,58,0
0,81,64,0
0,64,50,0
0,81,36,0
0,52,58,3
0,64,30,0
0,52,60,6
0,57,66,0
0,61,64,0
0,73,76,0
0,44,41,0
0,62,70,0
0,62,62,0
0,61,58,6
0,57,54,0
0,69,58,0
0,63,33,0
0,47,63,6
0,64,72,0
0,59,66,0
0,44,54,0
0,76,62,0
0,52,38,3
0,63,48,0
0,47,57,4
0,64,62,0
0,59,52,0
0,52,44,0
0,44,56,0
0,76,60,0
0,44,41,0
0,62,64,0
0,45,59,2
0,42,48,0
0,57,58,0
0,61,50,0
0,52,42,0
0,73,52,0
0,64,37,0
0,64,70,4
0,71,56,21
0,42,42,3
0,69,34,0
0,78,44,0
0,64,37,0
0,57,60,2
0,57,40,0
0,61,44,0
0,52,28,0
0,80,62,0
0,44,41,0
0,62,54,0
0,42,42,6
0,81,60,0
0,63,28,0
0,56,57,2
0,40,42,0
0,52,38,0
0,57,50,0
0,61,42,0
0,40,56,2
0,63,34,0
0,52,61,6
0,61,48,0
0,56,50,0
0,52,31,0
0,44,41,0
0,62,58,0
0,57,61,2
0,40,62,0
0,64,33,0
0,42,68,1
0,57,62,0
0,62,56,0
0,64,74,0
0,64,27,43
0,62,66,3
0,57,72,0
0,74,66,0
0,44,41,0
0,62,70,0
0,42,48,0
0,74,62,0
0,63,48,0
0,57,54,0
0,61,46,0
0,40,52,0
0,52,30,0
0,73,72,0
0,52,29,8
0,71,56,0
0,63,28,0
0,52,42,0
0,61,48,0
0,57,44,0
0,69,46,0
0,44,41,0
0,62,70,0
0,40,54,1
0,73,37,0
0,64,22,0
0,52,38,17
0,59,39,0
0,56,42,0
0,71,42,0
0,64,70,0
0,40,56,7
0,64,32,0
0,56,58,6
0,59,56,0
0,76,54,0
0,44,41,0
0,62,52,0
0,40,64,3
0,83,64,0
0,63,56,0
0,61,64,3
0,57,64,0
0,40,66,1
0,88,64,0
0,63,16,0
0,62,76,4
0,59,72,0
0,44,41,0
0,62,60,0
0,40,54,2
0,49,57,1
0,45,62,0
0,52,37,0
0,57,60,0
0,61,52,0
0,64,52,0
0,64,34,0
0,64,50,0
0,64,30,1
0,61,62,1
0,57,64,0
0,52,64,0
0,73,88,0
0,81,68,0
0,44,41,0
0,62,70,0
0,62,54,3
0,61,52,1
0,57,62,2
0,69,58,0
0,63,33,0
0,47,61,1
0,44,58,0
0,59,72,0
0,64,68,0
0,76,56,0
0,66,68,0
0,71,44,0
0,80,92,0
0,63,48,4
0,47,63,4
0,66,68,0
0,44,28,0
0,71,58,0
0,44,41,0
0,62,64,0
0,45,30,1
0,61,58,0
0,57,64,0
0,42,42,0
0,52,64,0
0,73,48,0
0,66,52,0
0,66,32,0
0,78,60,0
0,64,37,0
0,64,70,4
0,71,44,1
0,42,42,0
0,69,39,0
0,64,37,0
0,57,56,2
0,61,52,0
0,52,42,0
0,69,64,0
0,64,52,0
0,44,41,0
0,62,54,0
0,56,38,2
0,42,42,0
0,63,28,0
0,57,61,4
0,56,55,2
0,40,56,0
0,57,62,0
0,61,50,0
0,52,35,0
0,64,60,0
0,64,38,0
0,64,60,0
0,59,54,0
0,40,54,1
0,63,34,0
0,52,63,1
0,57,64,0
0,61,56,0
0,52,44,0
0,52,58,0
0,57,64,0
0,81,58,0
0,44,41,0
0,62,58,0
0,57,57,2
0,40,66,0
0,64,33,0
0,57,68,1
0,62,66,0
0,42,72,0
0,62,58,0
0,66,38,0
0,62,54,0
0,57,54,0
0,64,74,0
0,64,27,33
0,57,62,3
0,62,66,0
0,74,62,0
0,44,41,0
0,62,70,0
0,42,50,7
0,74,68,0
0,63,48,0
0,57,66,0
0,40,62,0
0,52,54,0
0,61,50,0
0,73,66,0
0,62,46,0
0,64,36,0
0,40,64,1
0,71,64,0
0,59,66,0
0,63,28,0
0,57,58,1
0,52,54,0
0,61,46,0
0,69,60,0
0,64,64,0
0,44,41,0
0,62,70,0
0,52,51,8
0,40,50,0
0,73,27,0
0,59,2,0
0,64,22,0
0,59,56,21
0,56,44,0
0,71,56,0
0,66,52,0
0,68,40,0
0,64,70,0
0,40,54,7
0,64,32,0
0,56,64,6
0,59,68,0
0,44,41,0
0,62,52,0
0,40,66,5
0,63,56,0
0,61,68,1
0,57,64,0
0,69,40,0
0,40,68,2
0,76,64,0
0,63,16,0
0,59,66,1
0,62,68,0
0,71,46,0
0,44,41,0
0,62,60,0
0,40,58,2
0,88,66,0
0,61,50,1
0,57,50,0
0,42,46,0
0,66,54,0
0,73,42,0
0,69,50,0
0,78,54,0
0,64,50,0
0,81,58,0
0,49,53,3
0,42,54,0
0,64,30,0
0,57,46,2
0,61,46,0
0,69,66,0
0,44,41,0
0,80,44,0
0,62,70,0
0,57,61,2
0,42,58,0
