track,note,velocity,time
0,47,113,0
0,59,91,0
0,62,95,0
0,66,94,0
0,54,94,0
0,71,87,0
0,54,86,0
0,59,96,0
0,62,96,0
0,66,90,0
0,66,98,0
0,54,108,0
0,54,112,0
0,62,91,1
0,66,88,0
0,54,94,0
0,62,93,1
0,54,93,0
0,66,96,0
0,59,97,0
0,66,89,1
0,62,98,0
0,66,95,0
0,54,105,0
0,66,86,1
0,54,112,0
0,62,91,0
0,66,88,1
0,59,90,0
0,71,86,1
0,54,96,1
0,64,93,0
0,58,95,0
0,64,96,1
0,58,92,0
0,61,95,0
0,54,93,0
0,61,95,0
0,70,88,1
0,66,89,0
0,54,110,0
0,64,92,1
0,58,91,0
0,61,93,0
0,70,87,1
0,64,86,0
0,61,89,1
0,54,96,1
0,58,95,0
0,61,95,0
0,58,98,0
0,61,96,0
0,64,96,0
0,64,95,1
0,70,91,0
0,64,89,1
0,61,88,0
0,64,88,0
0,58,88,0
0,61,91,0
0,54,88,1
0,70,84,0
0,66,84,1
0,45,75,2
0,54,107,0
0,50,94,0
0,57,95,0
0,50,94,0
0,57,88,0
0,62,99,0
0,66,92,0
0,62,94,1
0,66,95,0
0,69,91,0
0,62,90,0
0,54,105,0
0,54,108,0
0,54,107,0
0,62,90,0
0,66,90,0
0,57,90,1
0,55,110,1
0,45,82,0
0,62,97,0
0,66,98,0
0,57,95,0
0,62,95,1
0,57,94,0
0,66,93,0
0,50,92,0
0,69,90,1
0,54,108,0
0,57,90,0
0,69,86,0
0,62,92,1
0,66,91,0
0,52,108,0
0,66,91,1
0,62,93,1
0,57,88,2
0,69,84,1
0,50,84,1
0,62,80,1
0,52,92,0
0,52,82,0
0,59,95,0
0,56,93,0
0,64,88,0
0,59,97,0
0,64,94,1
0,68,89,0
0,64,93,0
0,56,94,1
0,59,90,0
0,56,87,0
0,64,90,1
0,59,93,0
0,64,90,1
0,52,90,0
0,52,91,0
0,59,95,0
0,56,95,0
0,64,87,0
0,56,95,0
0,59,98,0
0,64,95,1
0,68,91,0
0,64,98,0
0,59,93,0
0,64,93,1
0,43,88,2
0,67,94,0
0,47,90,1
0,55,84,0
0,43,76,0
0,62,94,1
0,59,86,0
0,47,87,0
0,62,96,0
0,55,95,1
0,50,84,1
0,67,95,0
0,62,80,1
0,47,110,0
0,67,90,0
0,62,93,1
0,55,87,1
0,50,82,1
0,47,89,1
0,50,92,0
0,62,93,0
0,47,90,0
0,50,112,0
0,50,94,0
0,59,86,0
0,67,97,0
0,55,98,0
0,43,91,1
0,55,95,0
0,67,94,0
0,62,90,0
0,62,94,0
0,55,87,1
0,67,91,0
0,50,111,0
0,64,90,6
0,59,91,0
0,52,112,0
0,45,85,0
0,52,92,0
0,52,81,1
0,45,91,0
0,57,97,0
0,57,93,0
0,64,77,0
0,57,87,0
0,61,98,0
0,61,94,1
0,64,93,0
0,69,89,0
0,64,90,0
0,52,109,0
0,57,93,0
0,52,91,1
0,61,94,0
0,64,95,0
0,69,89,0
0,64,87,1
0,64,90,1
0,61,94,1
0,50,111,0
0,52,92,0
0,57,95,0
0,57,97,0
0,61,96,0
0,52,92,1
0,69,91,0
0,64,98,0
0,64,88,0
0,49,110,0
0,64,94,1
0,59,91,2
0,59,91,1
0,55,91,0
0,64,90,1
0,67,87,0
0,47,108,0
0,35,105,1
0,59,91,0
0,62,95,0
0,66,94,0
0,54,94,0
0,71,87,0
0,54,84,0
0,59,94,0
0,66,97,0
0,66,90,1
0,62,96,0
0,47,110,0
0,62,94,1
0,66,92,0
0,54,108,0
0,54,91,0
0,59,93,0
0,66,98,0
0,62,93,1
0,54,93,0
0,66,96,0
0,62,97,0
0,66,89,1
0,54,107,0
0,66,86,1
0,54,108,0
0,62,91,0
0,66,88,1
0,59,90,0
0,71,86,1
0,34,105,1
0,58,96,0
0,64,96,1
0,58,92,0
0,61,95,0
0,54,93,0
0,61,97,0
0,70,88,1
0,66,89,0
0,64,89,1
0,49,107,0
0,64,92,1
0,58,91,0
0,61,93,0
0,70,87,1
0,64,91,0
0,61,92,1
0,54,90,0
0,61,98,0
0,58,95,0
0,61,95,0
0,64,97,0
0,64,95,1
0,70,91,0
0,64,89,1
0,61,88,0
0,47,109,0
0,64,88,0
0,58,88,0
0,61,91,0
0,54,88,1
0,70,84,0
0,66,84,1
0,54,109,0
0,33,104,0
0,45,66,0
0,50,88,0
0,57,95,0
0,50,94,0
0,57,97,0
0,62,94,1
0,66,95,0
0,69,91,0
0,62,90,0
0,66,93,0
0,62,98,0
0,54,110,0
0,54,109,0
0,66,91,0
0,62,96,1
0,45,74,0
0,50,90,0
0,57,97,0
0,62,97,0
0,66,98,0
0,62,95,1
0,57,94,0
0,66,93,0
0,69,90,1
0,54,107,0
0,57,90,1
0,69,86,0
0,62,92,1
0,66,91,0
0,55,77,3
0,66,91,1
0,62,93,1
0,57,88,2
0,69,84,1
0,50,84,1
0,62,80,1
0,52,92,0
0,32,102,0
0,59,95,0
0,56,93,0
0,64,88,0
0,52,89,0
0,52,109,0
0,64,94,0
0,68,89,0
0,56,98,0
0,59,98,1
0,64,90,0
0,59,90,0
0,64,90,1
0,64,90,0
0,59,93,0
0,56,90,1
0,52,91,0
0,59,95,0
0,56,95,0
0,64,87,0
0,56,97,0
0,59,98,0
0,64,95,1
0,68,91,0
0,64,99,0
0,59,93,0
0,64,93,1
0,31,99,1
0,43,85,1
0,43,93,1
0,47,91,0
0,67,93,1
0,62,93,0
0,50,92,0
0,55,95,0
0,55,89,0
0,59,87,0
0,47,83,0
0,55,98,0
0,62,92,0
0,62,88,1
0,67,91,0
0,67,91,0
0,50,90,0
0,67,86,0
0,62,91,1
0,50,88,1
0,50,109,0
0,47,92,0
0,67,95,0
0,59,88,0
0,47,86,0
0,43,84,0
0,55,94,1
0,62,95,0
0,43,90,0
0,50,94,0
0,50,92,0
0,55,92,0
0,62,92,0
0,67,96,0
0,67,90,1
0,55,86,0
0,62,90,0
0,50,110,0
0,62,91,1
0,67,93,0
0,64,92,0
0,59,94,1
0,55,93,0
0,50,91,0
0,67,89,1
0,62,87,0
0,45,88,1
0,52,111,0
0,45,81,0
0,33,102,1
0,52,90,0
0,45,91,1
0,57,94,0
0,61,95,0
0,64,93,0
0,57,93,0
0,61,97,0
0,64,90,0
0,57,87,1
0,69,90,0
0,52,110,0
0,57,93,1
0,52,92,0
0,61,95,0
0,64,95,0
0,69,89,1
0,64,88,0
0,64,88,1
0,61,92,0
0,50,110,0
0,45,88,1
0,57,95,0
0,61,94,0
0,64,95,0
0,57,96,0
0,61,96,0
0,64,96,0
0,57,84,1
0,69,91,0
0,49,109,0
0,64,93,1
0,64,87,3
0,47,107,0
0,35,99,1
0,59,91,0
0,54,94,1
0,63,95,0
0,66,94,0
0,71,87,0
0,66,90,1
0,59,96,0
0,63,96,0
0,54,85,0
0,66,97,0
0,66,95,0
0,63,94,1
0,54,88,0
0,59,95,0
0,63,95,0
0,54,93,1
0,63,93,0
0,66,96,0
0,66,96,0
0,66,89,1
0,42,88,1
0,66,86,0
0,63,91,0
0,66,88,1
0,59,90,0
0,71,86,1
0,54,90,0
0,47,99,1
0,59,96,0
0,63,97,0
0,54,93,1
0,66,96,0
0,59,92,0
0,63,95,0
0,66,94,0
0,66,89,1
0,71,88,0
0,59,91,1
0,66,92,0
0,63,93,0
0,71,87,1
0,66,87,0
0,63,87,1
0,54,90,0
0,59,97,0
0,42,97,1
0,63,96,0
0,66,98,0
0,59,95,0
0,63,95,0
0,66,95,1
0,71,91,0
0,44,92,1
0,47,107,1
0,63,88,1
0,66,89,0
0,66,88,0
0,63,91,0
0,59,88,0
0,54,88,1
0,71,84,0
0,66,84,1
0,44,92,1
0,54,77,0
0,42,103,1
0,35,110,0
0,47,107,0
0,54,94,0
0,59,95,0
0,63,94,1
0,66,95,0
0,66,90,0
0,71,91,0
0,59,89,2
0,63,1,7
0,42,69,35
0,54,111,0
0,54,74,0
0,59,74,0
0,63,74,0
0,42,97,0
0,63,89,0
0,38,114,0
0,59,94,1
0,63,95,0
0,66,93,0
0,71,90,1
0,54,84,0
0,59,84,0
0,63,84,0
0,54,114,0
0,42,69,6
0,59,80,0
0,59,90,0
0,71,86,0
0,63,92,1
0,66,91,0
0,35,101,1
0,66,91,0
0,63,93,0
0,66,80,0
0,58,88,2
0,70,84,1
0,54,84,1
0,54,80,3
0,54,112,0
0,42,92,0
0,35,109,0
0,54,92,0
0,58,75,0
0,63,79,1
0,54,79,0
0,59,79,0
0,58,93,0
0,63,95,0
0,66,88,0
0,46,111,1
0,66,94,0
0,70,89,0
0,42,57,46
0,63,90,0
0,63,77,0
0,66,90,1
0,56,110,0
0,42,97,0
0,38,113,0
0,56,72,1
0,61,72,0
0,64,72,0
0,54,91,0
0,58,75,0
0,58,95,0
0,63,95,0
0,66,87,0
0,66,95,1
0,70,91,0
0,59,112,0
0,59,85,1
0,63,85,0
0,66,85,0
0,42,58,1
0,63,93,0
0,66,93,0
0,54,63,0
0,46,105,1
0,35,101,3
0,56,76,4
0,59,113,0
0,35,110,1
0,59,86,0
0,56,91,0
0,59,77,0
0,71,80,1
0,59,80,0
0,66,80,0
0,63,80,0
0,42,75,0
0,63,94,0
0,71,82,0
0,68,87,0
0,44,106,0
0,68,94,0
0,63,18,2
0,42,64,46
0,38,115,1
0,56,94,0
0,59,95,0
0,63,78,0
0,63,94,0
0,68,95,0
0,68,90,0
0,71,91,0
0,42,99,1
0,42,61,10
0,59,68,0
0,44,91,1
0,35,99,1
0,35,108,3
0,42,70,0
0,54,91,0
0,59,93,0
0,54,82,0
0,42,91,0
0,63,94,0
0,68,95,0
0,66,87,0
0,71,89,0
0,59,66,2
0,59,92,1
0,71,88,0
0,63,94,1
0,68,91,0
0,42,59,1
0,63,80,0
0,38,111,41
0,42,93,0
0,54,93,0
0,59,95,0
0,66,89,0
0,71,91,0
0,63,95,1
0,68,94,0
0,59,75,0
0,42,66,1
0,35,101,0
0,54,70,0
0,42,99,1
0,59,89,5
0,64,93,0
0,71,85,0
0,52,76,13
0,56,80,0
0,52,93,0
0,56,95,0
0,59,95,0
0,42,68,1
0,35,109,0
0,64,94,0
0,64,89,0
0,68,91,0
0,40,107,0
0,59,28,1
0,42,56,46
0,56,90,1
0,68,86,1
0,64,64,43
0,42,99,2
0,38,112,0
0,59,114,0
0,59,85,0
0,64,85,0
0,68,85,0
0,56,95,0
0,52,91,0
0,59,94,1
0,64,95,0
0,68,91,0
0,64,87,0
0,68,83,2
0,59,83,0
0,64,83,0
0,59,114,0
0,40,97,5
0,59,51,0
0,42,58,1
0,35,100,0
0,59,93,0
0,64,94,0
0,44,105,1
0,71,89,2
0,64,91,1
0,55,89,0
0,59,93,1
0,67,85,0
0,71,89,1
0,54,78,2
0,59,88,0
0,54,90,0
0,59,93,0
0,59,112,0
0,42,72,0
0,35,108,0
0,63,95,0
0,66,86,0
0,59,77,1
0,63,77,0
0,66,77,0
0,47,103,0
0,66,95,0
0,63,59,4
0,64,51,0
0,59,77,1
0,63,77,0
0,66,77,0
0,59,112,0
0,63,47,0
0,63,92,1
0,66,90,1
0,42,61,1
0,63,95,0
0,54,93,0
0,59,109,0
0,38,114,0
0,66,96,0
0,59,95,0
0,66,89,0
0,59,79,0
0,59,75,1
0,63,75,0
0,66,75,0
0,42,97,0
0,42,98,0
0,71,91,0
0,59,107,1
0,59,70,1
0,61,70,0
0,64,70,0
0,66,95,0
0,59,109,0
0,63,93,0
0,59,69,1
0,63,69,0
0,42,66,1
0,44,101,0
0,54,69,0
0,35,101,2
0,64,82,0
0,52,75,9
0,57,70,2
0,52,91,0
0,45,84,0
0,57,94,1
0,64,87,0
0,57,80,0
0,57,109,0
0,57,70,0
0,61,70,0
0,64,70,0
0,35,108,0
0,61,95,0
0,64,94,0
0,69,90,0
0,42,79,0
0,45,99,0
0,76,93,0
0,73,88,0
0,61,1,0
0,81,82,0
0,42,62,1
0,38,113,5
0,61,77,0
0,42,92,1
0,52,93,0
0,45,90,0
0,57,94,1
0,61,95,0
0,64,94,0
0,64,89,0
0,57,86,0
0,69,90,1
0,57,75,2
0,42,63,2
0,45,86,0
0,64,89,0
0,61,92,0
0,57,90,1
0,69,86,1
0,35,107,2
0,45,110,0
0,42,75,0
0,52,91,0
0,61,94,0
0,64,93,0
0,64,87,0
0,52,41,0
0,61,81,5
0,42,65,1
0,64,95,0
0,52,93,0
0,57,95,0
0,61,95,0
0,64,89,0
0,69,91,1
0,57,83,2
0,42,99,1
0,40,97,0
0,38,113,0
0,52,93,0
0,57,95,0
0,61,95,0
0,64,95,0
0,64,89,0
0,69,91,0
0,42,81,1
0,52,90,0
0,42,79,0
0,57,95,0
0,64,86,0
0,52,77,0
0,45,115,0
0,61,95,0
0,64,93,0
0,69,91,0
0,35,100,3
0,54,80,6
0,47,104,2
0,78,77,0
0,83,80,0
0,75,72,0
0,54,92,0
0,59,95,1
0,66,88,0
0,59,82,0
0,42,103,1
0,35,108,0
0,63,95,0
0,71,91,0
0,66,95,0
0,63,28,4
0,42,69,41
0,54,114,0
0,54,84,0
0,59,84,0
0,63,84,0
0,63,77,0
0,42,97,1
0,38,112,0
0,54,93,0
0,59,95,0
0,63,95,0
0,66,89,0
0,71,91,0
0,66,95,1
0,54,107,0
0,42,69,0
0,59,66,0
0,54,62,1
0,59,62,0
0,63,62,0
0,54,110,0
0,54,71,1
0,59,71,0
0,63,71,0
0,66,92,0
0,63,93,1
0,70,85,0
0,35,98,2
0,58,89,0
0,54,88,0
0,66,84,0
0,54,76,0
0,82,77,1
0,63,95,0
0,54,92,0
0,58,95,0
0,42,92,1
0,35,108,0
0,66,88,0
0,70,91,0
0,46,105,0
0,66,95,0
0,58,50,0
0,63,66,12
0,54,108,0
0,42,57,1
0,54,67,1
0,59,67,0
0,63,67,0
0,58,93,0
0,63,95,0
0,70,89,0
0,66,93,1
0,58,81,5
0,56,111,0
0,42,97,0
0,38,113,0
0,56,74,1
0,61,74,0
0,64,74,0
0,54,94,0
0,58,95,1
0,63,95,0
0,66,94,0
0,66,90,0
0,70,91,1
0,54,57,5
0,58,110,0
0,42,58,0
0,35,104,0
0,58,73,1
0,63,73,0
0,66,73,0
0,46,96,1
0,63,94,0
0,56,83,9
0,75,79,0
0,80,78,0
0,71,75,0
0,59,112,0
0,35,106,0
0,56,92,0
0,71,77,1
0,59,77,0
0,63,77,0
0,66,77,0
0,42,75,0
0,68,95,0
0,59,94,0
0,68,88,0
0,59,81,0
0,44,105,0
0,63,94,0
0,71,90,0
0,42,64,48
0,38,112,45
0,56,95,0
0,63,76,0
0,42,99,1
0,59,95,0
0,63,95,0
0,68,91,0
0,68,95,0
0,71,91,0
0,42,61,5
0,59,70,0
0,44,97,1
0,35,102,1
0,54,92,0
0,35,104,1
0,42,90,0
0,78,88,0
0,59,95,0
0,66,88,0
0,42,70,0
0,63,95,0
0,68,95,0
0,71,91,0
0,54,66,0
0,63,84,0
0,63,93,0
0,42,59,1
0,68,95,0
0,59,85,43
0,38,111,1
0,54,90,0
0,59,95,0
0,42,93,0
0,63,95,0
0,66,86,0
0,71,91,0
0,68,93,0
0,54,76,0
0,42,66,1
0,35,104,0
0,42,106,1
0,64,88,3
0,46,77,1
0,52,76,1
0,56,89,3
0,76,87,1
0,71,72,0
0,80,79,0
0,42,68,1
0,35,109,0
0,40,110,0
0,56,94,0
0,59,96,0
0,64,94,0
0,68,90,0
0,52,91,1
0,64,87,1
0,59,42,1
0,42,56,44
0,64,73,45
0,64,114,0
0,42,99,1
0,38,113,0
0,56,94,0
0,68,90,0
0,59,96,1
0,64,95,0
0,64,113,0
0,42,58,0
0,59,66,0
0,44,98,1
0,64,92,0
0,71,89,0
0,59,93,0
0,35,100,1
0,52,83,0
0,64,79,0
0,54,70,0
0,63,114,0
0,42,72,0
0,35,108,0
0,75,86,0
0,78,81,0
0,59,93,0
0,59,89,0
0,47,97,1
