track,note,velocity,time
2,45,57,548
2,40,55,1
2,42,67,1
2,38,63,8
2,33,71,1
2,40,68,1
2,42,66,2
2,38,67,1
2,33,57,1
2,35,56,1
2,38,59,9
2,35,65,98
2,30,71,1
2,32,68,1
2,28,63,6
2,35,74,1
2,30,78,6
2,32,68,1
2,28,63,1
2,35,68,1
2,30,78,1
2,32,71,1
2,28,65,1
2,30,71,1
2,35,70,1
2,30,78,33
2,32,68,1
2,28,70,1
2,35,66,1
2,28,73,134
2,28,71,46
2,27,78,768
2,32,88,18
2,30,74,576
2,28,76,188
2,28,74,67
2,27,82,768
2,27,88,36
2,30,88,192
2,32,88,12
2,33,82,100
2,28,74,29
2,30,82,1
2,26,80,1
2,26,73,66
2,26,74,79
2,28,66,9
2,33,80,1
2,28,85,28
2,30,88,1
2,26,74,1
2,26,59,41
2,26,74,38
2,28,70,11
2,30,88,1
2,30,78,41
2,28,67,1
2,27,82,23
2,27,74,15
2,35,71,1
2,35,70,74
2,38,70,1
2,26,61,1
2,28,80,1
2,33,85,113
2,40,62,6
2,38,73,18
2,38,57,25
2,38,74,44
2,35,65,176
2,30,71,1
2,32,68,1
2,28,63,6
2,35,74,1
2,30,78,6
2,32,68,1
2,28,63,1
2,35,68,1
2,30,78,1
2,32,71,1
2,28,65,1
2,30,71,1
2,35,70,1
2,30,78,33
2,32,68,1
2,28,70,1
2,35,66,1
2,28,73,134
2,28,71,46
2,27,78,768
2,32,88,18
2,30,74,576
2,28,76,188
2,28,74,67
2,27,82,768
2,27,88,36
2,30,88,192
2,32,88,12
2,33,82,100
2,28,74,29
2,30,82,1
2,26,80,1
2,26,73,66
2,26,74,79
2,28,66,9
2,33,80,1
2,28,85,28
2,30,88,1
2,26,74,1
2,26,59,41
2,26,74,38
2,28,70,11
2,30,88,1
2,30,78,41
2,28,67,1
2,27,82,23
2,27,74,15
2,35,71,1
2,35,70,74
2,38,70,1
2,26,61,1
2,28,80,1
2,33,85,113
2,40,62,6
2,38,73,18
2,38,57,25
2,38,74,44
2,35,82,176
2,30,74,29
2,32,82,1
2,28,80,1
2,28,73,66
2,28,74,79
2,30,66,9
2,35,80,1
2,30,85,28
2,32,88,1
2,28,74,1
2,28,59,41
2,28,74,38
2,30,70,11
2,35,82,1
2,30,74,29
2,32,82,1
2,28,80,1
2,28,73,66
2,28,74,79
2,30,66,9
2,35,80,1
2,30,85,28
2,32,88,1
2,28,74,1
2,28,59,41
2,28,74,38
2,30,70,11
2,28,73,1
2,28,71,46
2,27,78,768
2,32,88,18
2,30,74,576
2,28,76,188
2,28,74,67
2,27,82,768
2,27,88,36
2,30,88,192
2,32,88,12
2,33,85,100
2,28,78,1152
2,30,88,362
2,26,78,760
2,33,95,743
2,28,91,760
2,35,82,143
2,30,74,29
2,32,82,1
2,28,80,1
2,28,73,66
2,28,74,79
2,30,66,9
2,35,80,1
2,30,85,28
2,32,88,1
2,28,74,1
2,28,59,41
2,28,74,38
2,30,70,11
2,32,88,1
2,32,78,41
2,30,67,1
2,29,82,23
2,29,74,15
2,37,71,1
2,37,70,74
2,40,70,1
2,28,61,1
2,30,80,1
2,35,82,113
2,30,74,29
2,32,82,1
2,28,80,1
2,28,73,66
2,28,74,79
2,30,66,9
2,35,80,1
2,30,85,28
2,32,88,1
2,28,74,1
2,28,59,41
2,28,74,38
2,30,70,11
2,35,82,1
2,30,74,29
2,32,82,1
2,28,80,1
2,28,73,66
2,28,74,79
2,30,66,9
2,35,80,1
2,30,85,28
2,32,88,1
2,28,82,1
3,50,61,2068
3,64,88,0
3,59,54,96
3,57,63,141
3,59,64,28
3,64,104,140
3,66,88,96
3,52,61,221
3,57,57,0
3,61,58,0
3,64,85,0
3,71,95,610
3,69,88,130
3,61,91,160
3,59,85,96
3,57,71,22
3,54,78,96
3,59,78,9
3,57,70,96
3,54,64,69
3,52,61,11
3,54,74,20
3,59,71,0
3,66,80,1
3,68,71,2
3,63,64,1
3,66,67,13
3,66,78,94
3,68,67,1
3,63,64,1
3,66,67,1
3,64,76,1
3,63,67,3
3,61,61,1
3,59,59,1
3,66,74,534
3,68,73,1
3,63,68,1
3,66,67,1
3,63,82,174
3,68,73,2
3,63,71,1
3,66,73,1
3,63,73,1
3,66,62,1
3,69,76,1
3,68,66,1
3,66,68,1
3,64,88,1
3,66,78,1
3,64,78,1
3,66,71,1
3,73,71,3
3,69,60,192
3,73,59,1123
3,69,66,192
3,64,63,384
3,71,59,0
3,73,74,247
3,69,62,192
3,68,58,17
3,71,57,0
3,73,67,608
3,69,59,192
3,62,78,196
3,61,78,96
3,62,82,78
3,61,82,80
3,62,88,75
3,61,82,81
3,59,78,70
3,57,71,75
3,66,91,93
3,59,76,768
3,64,85,0
3,57,63,289
3,61,80,192
3,66,68,192
3,69,71,112
3,69,57,303
3,73,64,0
3,69,66,344
3,73,67,0
3,66,56,32
3,71,60,0
3,69,68,567
3,64,88,356
3,66,67,67
3,69,67,96
3,71,65,60
3,69,65,89
3,73,82,4
3,69,74,27
3,66,82,1
3,64,85,8
3,61,78,23
3,59,80,1
3,57,70,12
3,54,74,4
3,59,78,15
3,57,70,1
3,54,71,1
3,52,66,5
3,54,74,34
3,59,71,0
3,66,80,1
3,68,71,2
3,63,64,1
3,66,67,13
3,66,78,94
3,68,67,1
3,63,64,1
3,66,67,1
3,64,76,1
3,63,67,3
3,61,61,1
3,59,59,1
3,66,74,534
3,68,73,1
3,63,68,1
3,66,67,1
3,63,82,174
3,68,73,2
3,63,71,1
3,66,73,1
3,63,73,1
3,66,62,1
3,69,76,1
3,68,66,1
3,66,68,1
3,64,88,1
3,66,78,1
3,64,78,1
3,66,71,1
3,73,71,3
3,69,60,192
3,69,79,259
3,68,68,20
3,66,64,10
3,68,75,1
3,66,68,1
3,73,59,480
3,69,66,192
3,64,63,89
3,71,59,0
3,73,85,21
3,71,73,1
3,69,68,15
3,73,74,192
3,69,62,192
3,68,58,17
3,71,57,0
3,73,67,608
3,69,59,192
3,62,78,196
3,61,78,96
3,62,82,78
3,61,82,80
3,62,88,75
3,61,82,81
3,59,78,70
3,57,71,75
3,66,91,93
3,59,76,768
3,64,85,0
3,66,65,97
3,68,63,1
3,57,63,7
3,69,64,0
3,73,71,1
3,61,80,1
3,78,63,0
3,66,68,192
3,69,71,112
3,69,55,111
3,78,56,0
3,69,57,192
3,73,64,0
3,69,66,344
3,73,67,0
3,66,56,32
3,71,60,0
3,69,68,567
3,64,88,356
3,66,67,67
3,69,67,96
3,71,65,60
3,69,65,89
3,69,83,141
3,66,76,96
3,69,80,84
3,66,86,1481
3,69,89,96
3,71,89,15
3,73,86,96
3,71,74,84
3,69,78,81
3,66,76,11
3,69,69,1
3,66,59,96
3,64,89,74
3,63,88,16
3,71,82,0
3,75,88,15
3,78,88,1
3,73,104,1
3,75,95,23
3,78,104,29
3,73,91,1
3,80,95,28
3,78,82,1
3,75,88,1
3,73,91,8
3,78,95,27
3,80,95,1
3,68,95,223
3,75,104,32
3,73,95,1
3,71,82,1
3,71,88,95
3,68,91,1
3,71,98,8
3,71,85,66
3,76,109,53
3,75,109,19
3,73,104,31
3,75,95,13
3,73,104,1
3,71,88,1
3,71,98,79
3,71,104,75
3,68,95,7
3,66,80,1
3,64,109,1
3,61,80,1
3,59,82,1
3,56,80,1
3,66,109,15
3,61,95,1
3,59,98,5
3,63,104,29
3,61,91,1
3,59,91,5
3,56,104,1
3,58,95,1
3,59,98,1
3,61,91,1
3,63,104,15
3,64,114,25
3,63,104,1
3,63,109,54
3,64,114,1
3,63,88,1
3,61,80,1
3,59,78,13
3,58,91,8
3,56,85,1
3,52,85,1
3,54,81,6
3,58,97,11
3,56,93,1
3,54,83,1
3,52,84,15
3,51,82,9
3,49,104,1
3,46,103,3
3,47,108,1
3,44,114,75
3,47,106,7
3,49,98,1
3,51,108,1
3,56,103,1
3,51,120,1
3,54,109,3
3,51,109,1
3,56,117,12
3,54,124,143
3,56,111,1
3,58,104,8
3,59,102,4
3,63,109,12
3,61,114,26
3,59,98,1
3,61,104,1
3,63,114,1
3,64,109,1
3,63,104,1
3,64,120,1
3,63,95,1
3,64,109,7
3,63,104,1
3,61,109,1
3,59,103,97
3,56,97,1
3,59,104,1
3,66,80,1
3,68,71,2
3,63,64,1
3,66,67,13
3,66,78,94
3,68,67,1
3,63,64,1
3,66,67,1
3,64,76,1
3,63,67,3
3,61,61,1
3,59,59,1
3,66,74,534
3,68,73,1
3,63,68,1
3,66,67,1
3,63,82,174
3,68,73,2
3,63,71,1
3,66,73,1
3,63,73,1
3,66,62,1
3,69,76,1
3,68,66,1
3,66,68,1
3,64,88,1
3,66,78,1
3,64,78,1
3,66,71,1
3,61,78,4803
3,63,80,1
3,66,80,1
3,61,80,1
3,70,80,0
3,63,78,1
3,71,67,0
3,75,74,940
3,73,74,1
3,71,73,1
3,73,82,9
3,71,73,1
3,68,80,1
3,66,74,1
3,71,85,11
3,59,82,531
3,61,88,1
3,63,88,1
3,64,91,1
3,59,82,1
3,54,82,3
3,56,91,1
3,59,91,1
3,68,91,502
3,66,80,1
3,59,91,1
3,71,78,14
3,70,74,1
3,68,74,1
3,66,68,1
3,68,80,1
3,64,91,68
3,68,71,1
3,75,73,2
3,73,80,1
3,64,95,5
3,68,74,1
3,75,73,2
3,73,82,1
3,71,80,1
3,68,73,1
3,64,82,10
3,66,73,16
3,68,95,32
3,66,73,1
3,64,78,12
3,61,66,21
3,54,71,44
3,63,67,0
3,59,82,3555
3,61,74,1
3,63,88,1
3,64,109,3
3,66,78,9
3,68,88,23
3,68,95,38
3,66,88,1
3,68,91,63
3,68,109,197
3,66,82,343
3,68,74,1
3,66,78,1
3,63,78,1
3,61,82,9
3,63,73,1
3,61,71,1
3,59,76,10
3,56,88,177
3,59,82,20
3,61,80,1
3,63,91,37
3,61,78,1
3,59,74,1
3,56,73,6
3,59,95,20
3,70,88,59
3,68,80,1
3,66,74,1
3,68,82,39
3,66,80,1
3,63,82,34
3,61,71,96
3,59,63,67
3,61,58,9
3,59,66,96
4,59,82,7044
4,58,68,14
4,54,80,1
4,51,74,24
4,54,74,5
4,52,78,176
4,54,74,1
4,54,82,138
4,59,100,191
4,59,80,0
4,59,71,49
4,59,76,45
4,59,71,45
4,59,73,56
4,58,78,4
4,54,74,13
4,51,78,32
4,54,82,17
4,56,88,59
4,54,78,22
4,59,80,462
4,61,73,1
4,58,78,1
4,58,95,38
4,59,71,28
4,58,82,219
4,56,74,19
4,54,71,5
4,56,78,10
4,52,73,11
4,51,80,1
4,54,82,18
4,58,80,1
4,51,80,1
4,52,80,13
4,51,78,14
4,56,95,389
4,59,88,1
4,61,80,1
4,63,73,1
4,64,80,11
4,63,82,18
4,61,74,13
4,59,76,186
4,61,73,12
4,63,71,1
4,64,76,1
4,63,71,1
4,61,78,8
4,61,82,129
4,59,74,1
4,61,82,23
4,58,91,92
4,59,82,26
4,61,82,1
4,63,78,1
4,64,88,2
4,63,78,1
4,61,78,9
4,59,80,194
4,61,80,7
4,63,74,1
4,64,88,1
4,63,78,1
4,61,80,1
4,61,82,114
4,59,80,1
4,57,78,8
4,59,88,1
4,59,91,96
4,61,95,1
4,61,88,376
4,64,98,1
4,66,80,28
4,64,74,1
4,57,85,644
4,57,88,73
4,57,88,61
4,59,95,51
4,61,82,13
4,59,85,38
4,57,100,192
4,61,95,257
4,64,88,1
4,66,80,1
4,64,71,1
4,57,91,597
4,57,91,64
4,57,88,61
4,64,98,21
4,62,76,1
4,61,82,5
4,69,85,280
4,68,88,1
4,64,104,1
4,57,95,559
4,57,95,54
4,57,82,60
4,64,85,1
4,62,74,7
4,61,91,1
4,59,70,1
4,57,78,23
4,52,95,202
4,61,95,1
4,59,91,18
4,52,80,31
4,61,82,1
4,59,88,1
4,59,88,170
4,59,95,58
4,61,88,1
4,59,88,2
4,57,85,6
4,57,82,63
4,61,78,286
4,59,85,3
4,61,95,71
4,59,82,1
4,59,78,55
4,57,80,14
4,59,82,31
4,57,73,23
4,54,64,1
4,59,80,716
4,58,78,14
4,54,88,29
4,51,74,1
4,54,82,4
4,52,78,40
4,54,91,1
4,54,88,117
4,59,95,432
4,59,88,48
4,59,85,49
4,59,82,56
4,61,82,11
4,58,82,8
4,59,85,4
4,58,80,17
4,56,82,1
4,56,88,102
4,59,91,424
4,61,82,30
4,58,82,33
4,59,88,42
4,58,82,10
4,56,88,29
4,54,88,5
4,56,91,12
4,52,85,1
4,51,83,97
4,54,91,97
4,59,95,3
4,61,91,14
4,59,88,31
4,54,82,5
4,56,91,21
4,59,85,489
4,59,82,56
4,61,82,1
4,63,88,1
4,64,91,1
4,63,82,18
4,61,74,13
4,59,76,186
4,61,73,12
4,63,71,1
4,64,76,1
4,63,71,1
4,61,78,8
4,61,82,129
4,59,74,1
4,61,82,23
4,58,91,92
4,59,82,26
4,61,82,1
4,63,78,1
4,64,88,2
4,63,78,1
4,61,78,9
4,59,80,194
4,61,80,7
4,63,74,1
4,64,88,1
4,63,78,1
4,61,80,1
4,61,82,114
4,59,80,1
4,57,78,8
4,59,88,1
4,59,91,96
4,61,95,1
4,61,88,376
4,64,98,1
4,66,80,28
4,64,74,1
4,57,85,644
4,57,88,73
4,57,88,61
4,59,95,51
4,61,82,13
4,59,85,38
4,57,100,192
4,61,95,257
4,64,88,1
4,66,80,1
4,64,71,1
4,57,91,597
4,57,91,64
4,57,88,61
4,64,98,21
4,62,76,1
4,61,82,5
4,69,85,280
4,68,88,1
4,64,104,1
4,57,95,559
4,57,95,54
4,57,82,60
4,64,85,1
4,62,74,7
4,61,91,1
4,59,70,1
4,57,78,23
4,52,95,202
4,61,95,1
4,59,91,18
4,52,80,31
4,61,82,1
4,59,88,1
4,59,88,170
4,59,95,58
4,61,88,1
4,59,88,2
4,57,85,6
4,57,82,63
4,61,95,286
4,59,88,9
4,56,82,288
4,57,80,11
4,57,78,42
4,59,88,20
4,61,82,96
4,59,82,88
4,57,71,13
4,54,78,6
4,59,88,12440
4,61,88,4
4,63,74,96
4,64,88,1
4,63,82,47
4,61,74,13
4,59,76,186
4,61,73,12
4,63,71,1
4,64,76,1
4,63,71,1
4,61,78,8
4,61,82,129
4,59,74,1
4,61,82,23
4,58,91,92
4,59,82,26
4,61,82,1
4,63,78,1
4,64,88,2
4,63,78,1
4,61,78,9
4,59,80,194
4,61,80,7
4,63,74,1
4,64,88,1
4,63,78,1
4,61,80,1
4,61,82,114
4,59,80,1
4,57,78,8
4,59,88,1
4,59,91,96
4,61,95,1
4,61,82,568
4,64,85,1
4,66,74,1
4,64,82,1
4,61,91,240
4,61,88,72
4,57,76,7
4,59,88,8
4,61,88,1
4,59,85,21
4,57,80,10
4,61,82,150
4,64,84,1
4,66,74,1
4,64,85,1
4,63,88,314
4,66,98,1
4,68,80,28
4,66,74,1
4,59,85,644
4,59,88,73
4,59,88,61
4,61,95,51
4,63,82,13
4,61,85,38
4,59,100,192
4,63,95,257
4,66,88,1
4,68,80,1
4,66,71,1
4,59,91,597
4,59,91,64
4,59,88,61
4,66,98,21
4,64,76,1
4,63,82,5
4,71,85,280
4,70,88,1
4,66,104,1
4,59,95,559
4,59,95,54
4,59,82,60
4,63,85,1
4,59,74,7
4,63,91,1
4,61,70,1
4,59,78,23
4,54,95,202
4,63,95,1
4,61,91,18
4,54,80,31
4,63,82,1
4,61,88,1
4,61,88,170
4,61,95,58
4,63,88,1
4,61,88,2
4,59,85,6
4,59,82,63
4,59,95,286
4,63,95,31
4,63,74,1
4,61,88,6
4,61,91,64
4,59,88,8
4,61,88,22
4,59,80,21
4,61,80,1
4,63,82,11
4,56,73,3
4,59,71,1
4,63,95,1055
4,61,91,9
4,58,88,66
4,59,91,10
4,61,82,1
4,63,91,7
4,64,95,1
4,63,95,30
4,59,88,174
4,59,78,39
4,63,88,729
4,61,80,19
4,58,82,82
4,59,82,12
4,61,80,2
4,63,80,2
4,64,85,1
4,63,82,44
