track,note,velocity,time
3,61,117,3019
3,67,86,1
3,64,117,0
3,57,111,1
3,67,0,35
3,61,0,3
3,64,0,1
3,57,0,1
3,64,117,102
3,61,117,1
3,67,110,0
3,57,117,1
3,67,0,30
3,61,0,4
3,57,0,1
3,64,0,2
3,61,117,153
3,57,117,0
3,64,117,1
3,67,105,1
3,67,0,27
3,57,0,0
3,61,0,1
3,64,0,2
3,67,110,112
3,61,117,0
3,57,117,1
3,64,117,0
3,57,0,31
3,61,0,1
3,64,0,3
3,67,0,1
3,64,117,107
3,67,107,0
3,61,117,1
3,57,117,1
3,57,0,32
3,61,0,0
3,64,0,2
3,67,0,1
3,61,117,106
3,67,107,1
3,64,117,1
3,57,117,1
3,57,0,29
3,64,0,3
3,67,0,1
3,61,0,3
3,61,117,106
3,67,105,1
3,64,117,0
3,57,117,1
3,57,0,29
3,61,0,4
3,64,0,1
3,67,0,1
3,61,117,156
3,57,117,0
3,64,117,0
3,67,107,1
3,67,0,29
3,57,0,2
3,64,0,3
3,61,0,1
3,67,113,106
3,61,117,1
3,64,117,1
3,57,117,1
3,57,0,36
3,64,0,1
3,61,0,1
3,67,0,2
3,61,117,101
3,64,117,1
3,67,107,1
3,57,117,0
3,57,0,34
3,61,0,4
3,67,0,1
3,64,0,1
3,61,117,104
3,67,107,0
3,64,117,0
3,57,117,1
3,64,0,29
3,57,0,1
3,61,0,2
3,67,0,1
3,61,117,109
3,67,117,1
3,64,117,0
3,57,117,1
3,57,0,32
3,61,0,6
3,67,0,0
3,64,0,1
3,61,117,151
3,67,107,1
3,57,117,0
3,64,116,1
3,64,0,27
3,57,0,4
3,61,0,2
3,67,0,1
3,61,117,107
3,67,108,1
3,64,117,1
3,57,117,1
3,57,0,32
3,64,0,2
3,67,0,2
3,61,0,0
3,67,107,106
3,61,117,0
3,64,117,1
3,57,117,1
3,57,0,35
3,64,0,1
3,61,0,0
3,67,0,3
3,61,117,104
3,67,107,0
3,64,117,0
3,57,117,1
3,64,0,32
3,67,0,0
3,57,0,4
3,61,0,3
3,64,117,103
3,57,117,0
3,61,117,1
3,67,117,1
3,64,0,35
3,57,0,1
3,61,0,2
3,67,0,5
3,61,117,146
3,64,117,1
3,67,113,1
3,57,117,1
3,57,0,35
3,64,0,2
3,67,0,1
3,61,0,0
3,61,117,103
3,67,108,1
3,64,117,1
3,57,117,1
3,57,0,32
3,64,0,0
3,67,0,4
3,61,0,0
3,61,117,107
3,64,117,0
3,67,107,0
3,57,117,0
3,57,0,33
3,67,0,1
3,64,0,3
3,61,0,1
3,61,117,105
3,67,107,0
3,64,117,1
3,57,117,1
3,64,0,30
3,67,0,2
3,57,0,1
3,61,0,3
3,61,117,107
3,67,113,0
3,57,117,0
3,64,117,1
3,64,0,31
3,57,0,1
3,67,0,1
3,61,0,2
3,61,117,158
3,67,111,1
3,57,117,1
3,64,117,1
3,64,0,27
3,57,0,3
3,67,0,0
3,61,0,1
3,61,117,107
3,67,108,0
3,57,117,1
3,64,117,1
3,64,0,32
3,67,0,0
3,57,0,1
3,61,0,1
3,61,117,110
3,67,113,1
3,57,117,1
3,64,117,1
3,64,0,27
3,57,0,3
3,67,0,1
3,61,0,1
3,61,117,107
3,67,114,0
3,57,113,1
3,64,117,1
3,64,0,27
3,57,0,1
3,67,0,1
3,61,0,5
3,64,117,110
3,57,117,0
3,67,117,1
3,61,117,1
3,57,0,28
3,64,0,0
3,61,0,1
3,67,0,1
3,67,117,160
3,61,117,1
3,57,117,1
3,64,113,1
3,64,0,20
3,57,0,10
3,61,0,0
3,67,0,1
3,67,117,107
3,61,117,1
3,57,117,1
3,64,117,1
3,64,0,28
3,57,0,1
3,61,0,1
3,67,0,2
3,67,117,111
3,61,117,0
3,57,117,1
3,64,117,1
3,64,0,28
3,57,0,4
3,67,0,0
3,61,0,2
3,67,113,108
3,61,117,0
3,57,117,1
3,64,117,0
3,64,0,27
3,57,0,1
3,61,0,1
3,67,0,2
3,67,117,113
3,61,117,1
3,57,117,1
3,64,117,1
3,64,0,28
3,57,0,7
3,67,0,2
3,61,0,2
3,66,117,148
3,57,117,1
3,62,117,1
3,57,0,24
3,62,0,1
3,66,0,4
3,57,117,113
3,66,117,1
3,62,117,0
3,57,0,23
3,62,0,4
3,66,0,1
3,66,117,116
3,62,117,1
3,57,117,1
3,57,0,17
3,62,0,6
3,66,0,3
3,66,117,115
3,62,117,1
3,57,117,0
3,57,0,18
3,62,0,7
3,66,0,2
3,66,117,116
3,62,117,0
3,57,117,1
3,57,0,22
3,62,0,5
3,66,0,8
3,61,117,159
3,64,117,1
3,67,107,1
3,57,117,1
3,57,0,19
3,67,0,5
3,64,0,6
3,61,0,2
3,61,117,107
3,67,96,0
3,64,116,0
3,57,117,1
3,57,0,22
3,64,0,2
3,67,0,2
3,61,0,5
3,61,117,114
3,64,113,1
3,57,117,1
3,67,107,1
3,64,0,24
3,67,0,3
3,57,0,2
3,61,0,4
3,61,117,104
3,67,104,1
3,57,117,1
3,64,117,1
3,57,0,24
3,64,0,1
3,67,0,6
3,61,0,0
3,61,117,113
3,67,113,1
3,64,117,1
3,57,117,1
3,57,0,24
3,64,0,1
3,67,0,1
3,61,0,3
3,61,117,161
3,57,117,1
3,64,117,1
3,67,110,1
3,64,0,25
3,67,0,3
3,57,0,1
3,61,0,2
3,61,117,108
3,67,107,0
3,64,117,0
3,57,117,1
3,57,0,27
3,64,0,1
3,67,0,4
3,61,0,0
3,61,117,113
3,57,117,1
3,64,117,1
3,67,110,1
3,67,0,27
3,64,0,0
3,57,0,2
3,61,0,2
3,61,117,106
3,67,113,1
3,57,117,1
3,64,113,1
3,64,0,23
3,67,0,4
3,57,0,6
3,61,0,0
3,67,114,111
3,61,117,1
3,64,117,1
3,57,117,1
3,57,0,34
3,64,0,0
3,61,0,3
3,67,0,1
3,62,117,149
3,57,117,1
3,66,117,1
3,66,0,22
3,57,0,2
3,62,0,1
3,62,117,116
3,57,117,1
3,66,117,1
3,57,0,27
3,66,0,5
3,62,0,3
3,66,117,110
3,57,117,1
3,62,117,1
3,57,0,20
3,62,0,6
3,66,0,2
3,66,117,111
3,57,117,1
3,62,117,1
3,57,0,22
3,66,0,4
3,62,0,1
3,57,117,118
3,66,117,1
3,62,117,1
3,57,0,22
3,62,0,4
3,66,0,3
3,68,117,162
3,64,117,1
3,59,117,1
3,59,0,18
3,64,0,11
3,68,0,2
3,68,117,108
3,64,117,0
3,59,117,1
3,59,0,23
3,64,0,11
3,68,0,2
3,68,117,110
3,59,117,1
3,64,117,1
3,59,0,24
3,64,0,2
3,68,0,7
3,68,117,105
3,64,117,1
3,59,117,1
3,59,0,33
3,64,0,5
3,68,0,3
3,68,117,103
3,59,117,1
3,64,117,1
3,59,0,34
3,64,0,2
3,68,0,3
3,61,117,153
3,64,117,1
3,57,117,1
3,57,0,26
3,61,0,6
3,64,0,6
3,64,117,101
3,57,117,1
3,61,117,0
3,57,0,31
3,61,0,5
3,64,0,4
3,64,117,108
3,57,117,1
3,61,117,1
3,61,0,33
3,57,0,2
3,64,0,8
3,57,117,95
3,61,117,0
3,64,117,0
3,57,0,29
3,61,0,4
3,64,0,2
3,64,117,110
3,61,117,1
3,57,117,1
3,57,0,36
3,61,0,11
3,64,0,2
3,57,117,140
3,62,117,0
3,66,117,1
3,57,0,25
3,66,0,5
3,62,0,1
3,66,117,111
3,62,117,1
3,57,117,0
3,57,0,26
3,66,0,8
3,62,0,2
3,66,117,106
3,62,117,1
3,57,117,1
3,57,0,21
3,62,0,10
3,66,0,1
3,66,117,111
3,57,117,1
3,62,117,0
3,57,0,26
3,62,0,5
3,66,0,3
3,66,117,111
3,57,117,1
3,62,117,1
3,57,0,48
3,66,0,1
3,62,0,7
3,68,117,133
3,59,117,0
3,64,117,1
3,59,0,22
3,64,0,4
3,68,0,2
3,68,117,114
3,59,117,1
3,64,117,0
3,59,0,31
3,64,0,3
3,68,0,3
3,68,117,108
3,59,117,1
3,64,117,1
3,59,0,23
3,64,0,4
3,68,0,5
3,68,117,108
3,64,117,0
3,59,117,1
3,59,0,22
3,64,0,7
3,68,0,5
3,68,117,110
3,64,117,1
3,59,117,1
3,59,0,26
3,64,0,5
3,68,0,2
3,57,117,157
3,61,117,1
3,64,117,0
3,57,0,35
3,64,0,24
3,61,0,12
3,66,117,71
3,57,117,1
3,62,117,0
3,57,0,19
3,62,0,19
3,66,0,2
3,57,117,103
3,64,117,0
3,61,117,1
3,57,0,39
3,64,0,25
3,61,0,15
3,57,117,17
3,57,0,25
3,57,117,22
3,66,117,0
3,62,117,1
3,62,0,35
3,66,0,2
3,57,0,2
3,64,117,56
3,57,117,1
3,61,117,0
3,57,0,61
3,64,0,15
3,61,0,10
3,61,117,155
3,57,117,1
3,64,117,1
3,57,0,20
3,64,0,4
3,61,0,4
3,64,117,112
3,57,117,1
3,61,117,0
3,57,0,24
3,61,0,5
3,64,0,2
3,57,117,115
3,64,117,1
3,61,117,1
3,57,0,25
3,61,0,1
3,64,0,6
3,64,117,107
3,61,117,0
3,57,117,1
3,57,0,25
3,61,0,3
3,64,0,9
3,64,117,108
3,57,117,1
3,61,117,1
3,57,0,28
3,61,0,9
3,64,0,0
3,66,117,152
3,62,117,0
3,57,117,1
3,57,0,26
3,62,0,3
3,66,0,1
3,57,117,111
3,66,117,1
3,62,117,1
3,62,0,27
3,66,0,4
3,57,0,2
3,66,117,115
3,62,117,1
3,57,117,1
3,57,0,20
3,62,0,2
3,66,0,5
3,62,117,110
3,57,117,1
3,66,117,1
3,57,0,32
3,62,0,1
3,66,0,1
3,57,117,110
3,66,117,1
3,62,117,1
3,62,0,32
3,57,0,0
3,66,0,7
3,64,117,150
3,59,117,0
3,68,117,1
3,59,0,31
3,64,0,2
3,68,0,3
3,68,117,107
3,64,117,0
3,59,117,0
3,59,0,25
3,64,0,5
3,68,0,5
3,68,117,111
3,59,117,1
3,64,117,1
3,59,0,21
3,64,0,1
3,68,0,10
3,68,117,107
3,64,117,0
3,59,117,1
3,59,0,23
3,64,0,1
3,68,0,5
3,68,117,117
3,59,117,1
3,64,117,1
3,64,0,26
3,59,0,6
3,68,0,2
3,64,117,153
3,61,117,1
3,57,117,0
3,57,0,25
3,61,0,10
3,64,0,5
3,57,117,103
3,62,117,0
3,66,117,1
3,57,0,29
3,66,0,18
3,62,0,4
3,64,117,92
3,57,117,1
3,61,117,0
3,57,0,25
3,61,0,5
3,64,0,3
3,66,117,110
3,62,117,0
3,57,117,1
3,57,0,22
3,62,0,7
3,66,0,1
3,64,117,114
3,61,117,1
3,57,117,1
3,57,0,32
3,64,0,13
3,61,0,1
3,64,117,143
3,61,117,1
3,67,117,0
3,57,113,1
3,57,0,16
3,64,0,15
3,67,0,1
3,61,0,12
3,61,117,98
3,64,117,1
3,67,99,0
3,57,114,1
3,67,0,30
3,64,0,1
3,61,0,2
3,57,0,0
3,57,117,109
3,61,117,0
3,64,117,1
3,67,102,1
3,67,0,29
3,64,0,1
3,61,0,2
3,57,0,2
3,61,117,107
3,57,117,1
3,64,117,1
3,67,99,1
3,67,0,27
3,64,0,1
3,57,0,3
3,61,0,3
3,61,117,108
3,67,98,1
3,64,117,1
3,57,117,1
3,67,0,32
3,61,0,4
3,64,0,0
3,57,0,1
3,61,117,153
3,57,117,0
3,64,117,0
3,67,110,1
3,67,0,27
3,64,0,4
3,57,0,1
3,61,0,1
3,61,117,110
3,57,117,0
3,64,117,0
3,67,105,1
3,67,0,27
3,64,0,1
3,57,0,2
3,61,0,1
3,61,117,111
3,57,117,1
3,67,111,0
3,64,117,1
3,64,0,31
3,67,0,1
3,57,0,1
3,61,0,5
3,61,117,103
3,67,111,1
3,57,117,1
3,64,117,1
3,64,0,27
3,57,0,1
3,67,0,2
3,61,0,2
3,61,117,110
3,67,117,1
3,57,117,1
3,64,117,1
3,64,0,28
3,57,0,2
3,67,0,2
3,61,0,1
3,67,111,156
3,61,117,1
3,57,117,1
3,64,117,0
3,64,0,30
3,61,0,2
3,67,0,1
3,57,0,3
3,61,117,106
3,67,104,1
3,57,117,0
3,64,117,1
3,64,0,29
3,67,0,0
3,57,0,1
3,61,0,4
3,61,117,107
3,67,108,1
3,64,117,1
3,57,117,1
3,57,0,31
3,67,0,3
3,64,0,1
3,61,0,2
3,67,107,104
3,61,117,1
3,57,117,1
3,64,117,0
3,64,0,31
3,57,0,1
3,61,0,0
3,67,0,2
3,57,117,110
3,64,117,0
3,67,104,1
3,61,117,1
3,61,0,34
3,57,0,0
3,64,0,2
3,67,0,1
3,57,117,153
3,61,117,0
3,67,107,0
3,64,114,1
3,64,0,35
3,67,0,1
3,61,0,4
3,57,0,4
3,61,117,98
3,67,107,0
3,57,117,1
3,64,117,1
3,64,0,34
3,67,0,5
3,61,0,3
3,57,0,1
3,61,117,98
3,67,110,1
3,64,117,1
3,57,117,1
3,57,0,40
3,64,0,1
3,61,0,0
3,67,0,3
3,61,117,99
3,67,111,0
3,57,117,0
3,64,117,0
3,64,0,29
3,57,0,7
3,67,0,3
3,61,0,1
3,61,117,103
3,67,113,1
3,57,117,1
3,64,117,1
3,64,0,28
3,57,0,3
3,67,0,1
3,61,0,6
3,61,117,153
3,67,117,1
3,57,117,1
3,64,117,1
3,64,0,26
3,67,0,4
3,57,0,1
3,61,0,3
3,67,113,104
3,61,117,1
3,57,117,1
3,64,117,1
3,57,0,27
3,64,0,3
3,61,0,5
3,67,0,2
3,61,117,108
3,64,117,1
3,67,114,1
3,57,117,1
3,67,0,29
3,57,0,1
3,64,0,3
3,61,0,0
3,61,117,104
3,67,114,1
3,57,117,1
3,64,117,0
3,57,0,26
3,64,0,3
3,67,0,4
3,61,0,0
3,61,117,112
3,67,117,1
3,57,117,1
3,64,117,1
3,64,0,26
3,57,0,6
3,67,0,0
3,61,0,3
3,61,117,155
3,64,117,1
3,67,114,1
3,57,117,1
3,57,0,26
3,67,0,0
3,64,0,2
3,61,0,1
3,67,114,108
3,61,117,1
3,64,117,1
3,57,117,1
3,57,0,27
3,64,0,4
3,61,0,0
3,67,0,2
3,57,117,110
3,64,117,1
3,61,117,1
3,67,108,1
3,57,0,28
3,61,0,1
3,67,0,1
3,64,0,1
3,67,117,109
3,61,117,0
3,57,117,1
3,64,117,1
3,64,0,30
3,57,0,2
3,61,0,1
3,67,0,2
3,61,117,109
3,67,113,1
3,64,117,1
3,57,117,1
3,67,0,34
3,57,0,1
3,64,0,1
3,61,0,5
3,62,117,148
3,57,117,1
3,66,117,1
3,66,0,19
3,57,0,2
3,62,0,0
3,62,117,118
3,66,117,1
3,57,117,1
3,57,0,28
3,66,0,5
3,62,0,2
3,66,117,110
3,57,117,1
3,62,117,1
3,57,0,23
3,62,0,4
3,66,0,6
3,66,117,107
3,57,117,1
3,62,117,0
3,57,0,31
3,62,0,3
3,66,0,0
3,66,117,111
3,62,117,1
3,57,117,1
3,57,0,27
3,62,0,8
3,66,0,6
3,61,117,150
3,67,107,1
3,64,117,1
3,57,117,1
3,57,0,28
3,67,0,1
3,64,0,1
3,61,0,4
3,61,117,104
3,57,117,1
3,67,107,0
3,64,117,0
3,64,0,33
3,67,0,1
3,57,0,6
3,61,0,2
3,61,117,104
3,67,104,1
3,64,117,1
3,57,117,1
3,64,0,28
3,67,0,0
3,57,0,1
3,61,0,3
3,61,117,106
3,64,117,0
3,67,107,1
3,57,117,1
3,67,0,32
3,64,0,1
3,61,0,2
3,57,0,2
3,61,117,106
3,67,105,1
3,57,117,1
3,64,117,1
3,64,0,25
3,67,0,3
3,57,0,1
3,61,0,0
3,61,117,161
3,67,110,1
3,64,117,1
3,57,117,1
3,57,0,26
3,64,0,1
3,67,0,2
3,61,0,1
3,61,117,109
3,57,117,0
3,67,117,1
3,64,117,1
3,64,0,29
3,67,0,1
3,61,0,6
3,57,0,3
3,61,117,106
3,67,117,1
3,57,117,1
3,64,117,1
3,64,0,25
3,67,0,4
