track,note,velocity,time
0,45,87,97
0,45,127,3
0,45,0,44
0,45,0,31
0,57,106,15
0,57,127,1
0,52,127,1
0,42,127,4
0,49,127,4
0,52,0,4
0,57,0,0
0,57,0,0
0,52,75,37
0,52,0,2
0,57,83,0
0,57,0,2
0,49,0,1
0,42,0,1
0,52,75,39
0,57,70,1
0,57,0,2
0,52,0,1
0,40,127,2
0,57,107,43
0,52,127,2
0,57,127,1
0,40,0,11
0,57,0,4
0,57,0,2
0,52,0,3
0,42,127,30
0,49,127,4
0,42,0,31
0,49,0,1
0,57,107,8
0,52,127,1
0,57,127,0
0,45,127,8
0,57,127,1
0,57,0,7
0,57,0,2
0,52,0,3
0,57,0,23
0,45,0,1
0,45,127,8
0,45,0,38
0,55,75,5
0,42,127,5
0,57,127,3
0,42,0,31
0,57,0,4
0,55,0,3
0,55,83,0
0,42,127,4
0,49,127,4
0,55,0,37
0,55,100,5
0,42,0,1
0,49,0,3
0,55,0,42
0,54,95,0
0,43,127,4
0,54,0,42
0,43,0,4
0,55,127,0
0,54,127,45
0,55,0,1
0,42,127,5
0,49,127,2
0,54,0,39
0,55,119,3
0,42,0,5
0,49,0,2
0,45,117,39
0,55,0,3
0,45,127,3
0,45,0,44
0,45,0,30
0,57,107,17
0,57,127,0
0,52,127,1
0,42,127,4
0,52,0,4
0,49,127,0
0,57,0,1
0,57,0,1
0,52,75,39
0,52,0,2
0,57,83,0
0,57,0,2
0,49,0,0
0,42,0,1
0,52,75,41
0,57,70,1
0,57,0,1
0,52,0,1
0,40,127,2
0,52,106,16
0,52,127,2
0,40,0,13
0,52,0,4
0,42,127,4
0,49,127,1
0,42,0,18
0,49,0,2
0,57,84,9
0,45,127,0
0,45,127,1
0,52,0,1
0,57,116,0
0,45,127,4
0,57,127,2
0,57,0,9
0,57,0,25
0,45,0,1
0,45,127,2
0,45,0,13
0,42,127,11
0,57,127,3
0,57,0,25
0,42,0,5
0,57,0,4
0,52,75,5
0,57,70,1
0,42,127,1
0,57,0,1
0,52,0,1
0,49,127,3
0,42,0,3
0,52,75,1
0,57,83,1
0,52,0,1
0,49,0,1
0,57,0,1
0,52,127,1
0,57,107,2
0,57,127,1
0,43,127,1
0,45,0,1
0,52,0,1
0,45,0,1
0,57,0,0
0,57,0,1
0,43,0,28
0,52,78,0
0,57,83,2
0,57,0,1
0,54,97,43
0,54,127,0
0,52,0,1
0,42,127,4
0,49,127,1
0,54,0,13
0,54,0,29
0,52,99,1
0,42,0,5
0,49,0,2
0,52,0,39
0,45,87,3
0,45,127,3
0,45,0,44
0,45,0,32
0,57,106,15
0,57,127,0
0,52,127,1
0,42,127,4
0,49,127,4
0,52,0,4
0,57,0,0
0,57,0,0
0,52,75,37
0,52,0,2
0,57,83,0
0,57,0,2
0,49,0,0
0,42,0,1
0,52,75,40
0,57,70,1
0,57,0,2
0,52,0,1
0,40,127,2
0,57,107,43
0,52,127,2
0,57,127,1
0,40,0,11
0,57,0,4
0,57,0,2
0,52,0,4
0,42,127,29
0,49,127,2
0,42,0,32
0,49,0,2
0,57,107,7
0,52,127,2
0,57,127,0
0,45,127,8
0,57,127,1
0,57,0,7
0,57,0,1
0,52,0,5
0,57,0,21
0,45,0,2
0,45,127,8
0,45,0,38
0,55,75,4
0,42,127,7
0,57,127,2
0,42,0,31
0,57,0,3
0,55,0,4
0,55,83,0
0,42,127,5
0,49,127,4
0,55,0,35
0,55,100,6
0,42,0,1
0,49,0,3
0,54,95,41
0,55,0,1
0,43,127,5
0,54,0,41
0,55,127,4
0,43,0,1
0,54,127,44
0,55,0,1
0,42,127,5
0,49,127,2
0,54,0,39
0,55,119,4
0,42,0,4
0,49,0,2
0,45,117,40
0,55,0,2
0,45,127,3
0,45,0,44
0,45,0,30
0,57,107,17
0,57,127,1
0,52,127,0
0,42,127,4
0,52,0,4
0,49,127,0
0,57,0,1
0,57,0,1
0,52,75,39
0,52,0,3
0,57,83,0
0,57,0,1
0,49,0,0
0,42,0,1
0,52,75,40
0,57,70,1
0,57,0,2
0,52,0,0
0,40,127,3
0,52,106,17
0,52,127,2
0,40,0,13
0,52,0,5
0,42,127,3
0,49,127,1
0,42,0,18
0,49,0,1
0,57,84,9
0,45,127,0
0,45,127,1
0,52,0,1
0,57,116,0
0,45,127,4
0,57,127,3
0,57,0,8
0,57,0,25
0,45,0,1
0,38,3,0
0,38,0,1
0,38,3,0
0,38,0,1
0,45,127,1
0,45,0,12
0,38,1,10
0,38,0,0
0,38,1,0
0,42,127,1
0,38,0,1
0,57,127,3
0,57,0,25
0,42,0,4
0,57,0,4
0,52,75,6
0,40,39,0
0,28,64,0
0,40,0,1
0,57,70,0
0,28,0,1
0,42,127,1
0,52,0,1
0,57,0,0
0,49,127,2
0,61,117,1
0,67,86,1
0,64,117,0
0,57,111,1
0,42,0,1
0,52,75,1
0,38,1,0
0,38,0,0
0,38,1,0
0,57,83,1
0,38,0,1
0,52,0,1
0,49,0,1
0,57,0,1
0,45,0,2
0,45,0,1
0,67,0,2
0,61,0,3
0,64,0,1
0,57,0,1
0,52,127,2
0,38,24,0
0,38,0,1
0,57,107,0
0,38,24,0
0,57,127,1
0,38,0,1
0,43,127,1
0,52,0,2
0,57,0,1
0,57,0,1
0,52,78,29
0,43,0,1
0,57,83,2
0,57,0,1
0,38,19,0
0,38,0,0
0,38,19,0
0,38,0,2
0,64,117,40
0,61,117,1
0,67,110,0
0,57,117,1
0,40,67,0
0,40,0,1
0,54,97,0
0,28,90,0
0,28,0,1
0,54,127,0
0,52,0,1
0,42,127,1
0,49,127,1
0,54,0,12
0,67,0,13
0,61,0,4
0,57,0,1
0,64,0,2
0,54,0,10
0,40,121,0
0,52,99,0
0,35,50,1
0,35,0,2
0,42,0,2
0,38,35,0
0,38,0,0
0,38,35,0
0,49,0,1
0,38,0,1
0,40,0,6
0,52,0,33
0,45,119,2
0,45,87,1
0,38,43,0
0,35,111,1
0,45,127,1
0,35,0,1
0,38,0,0
0,45,0,44
0,38,45,5
0,38,0,2
0,45,0,25
0,61,117,15
0,57,117,0
0,64,117,1
0,67,105,1
0,40,98,0
0,40,0,1
0,57,106,0
0,28,94,0
0,28,0,1
0,57,127,0
0,52,127,1
0,42,127,1
0,49,127,2
0,52,0,3
0,45,0,0
0,57,0,1
0,57,0,1
0,67,0,16
0,57,0,0
0,61,0,1
0,64,0,2
0,52,75,18
0,52,0,2
0,57,83,0
0,57,0,2
0,49,0,0
0,38,25,0
0,38,0,1
0,42,0,0
0,52,75,41
0,40,126,1
0,57,70,0
0,57,0,1
0,38,54,0
0,35,110,0
0,52,0,1
0,35,0,1
0,38,0,0
0,40,127,0
0,67,110,44
0,61,117,0
0,57,117,1
0,64,117,0
0,57,107,1
0,52,127,1
0,57,127,0
0,38,45,3
0,38,0,1
0,40,0,0
0,40,0,7
0,57,0,4
0,57,0,3
0,52,0,3
0,57,0,8
0,61,0,1
0,64,0,3
0,67,0,1
0,42,123,11
0,40,97,2
0,40,0,1
0,28,90,0
0,28,0,1
0,42,127,0
0,49,127,3
0,42,0,32
0,49,0,2
0,57,107,7
0,52,127,2
0,57,127,1
0,38,25,3
0,38,0,1
0,42,0,1
0,45,127,2
0,57,127,1
0,57,0,7
0,57,0,2
0,52,0,4
0,45,0,22
0,57,0,0
0,64,117,2
0,67,107,0
0,45,117,0
0,61,117,1
0,57,117,1
0,38,53,0
0,35,111,1
0,35,0,2
0,38,0,0
0,45,127,1
0,61,0,28
0,57,0,0
0,64,0,2
0,67,0,1
0,45,0,8
0,55,75,5
0,38,42,4
0,38,0,1
0,42,127,1
0,57,127,3
0,42,0,29
0,57,0,5
0,55,0,3
0,55,83,0
0,40,97,1
0,40,0,2
0,28,91,0
0,28,0,1
0,42,127,1
0,49,127,4
0,45,0,2
0,55,0,34
0,61,117,2
0,67,107,1
0,64,117,1
0,57,117,1
0,55,100,0
0,35,68,0
0,42,0,1
0,35,0,1
0,38,27,1
0,49,0,1
0,38,0,1
0,57,0,24
0,64,0,3
0,67,0,1
0,61,0,3
0,55,0,10
0,54,95,0
0,43,117,1
0,38,52,1
0,35,110,0
0,35,0,2
0,38,0,0
0,43,127,1
0,43,0,39
0,54,0,2
0,43,0,4
0,55,127,0
0,38,47,4
0,38,0,1
0,61,117,41
0,67,105,1
0,64,117,0
0,42,127,0
0,57,117,1
0,40,96,0
0,28,92,0
0,40,0,1
0,54,127,0
0,28,0,1
0,55,0,0
0,42,127,1
0,49,127,1
0,57,0,25
0,61,0,4
0,64,0,1
0,67,0,1
0,54,0,9
0,42,0,3
0,55,119,1
0,38,23,3
0,42,0,1
0,38,0,1
0,49,0,1
0,55,0,41
0,45,124,0
0,45,117,0
0,38,43,1
0,35,111,1
0,45,127,1
0,35,0,1
0,38,0,0
0,45,0,44
0,38,45,4
0,38,0,2
0,45,0,24
0,61,117,18
0,57,117,0
0,64,117,0
0,40,98,0
0,67,107,1
0,40,0,1
0,57,107,0
0,28,94,0
0,28,0,1
0,57,127,0
0,52,127,1
0,42,127,1
0,45,0,2
0,49,127,0
0,52,0,1
0,57,0,1
0,57,0,1
0,67,0,20
0,57,0,2
0,64,0,3
0,61,0,1
0,52,75,12
0,57,83,2
0,52,0,1
0,57,0,2
0,49,0,0
0,38,25,0
0,38,0,1
0,42,0,0
0,52,75,40
0,57,70,1
0,40,124,1
0,57,0,1
0,38,54,0
0,52,0,1
0,35,110,0
0,35,0,1
0,38,0,0
0,40,127,0
0,52,106,15
0,67,113,1
0,40,0,1
0,61,117,0
0,64,117,1
0,57,117,1
0,52,127,1
0,38,45,3
0,38,0,1
0,40,0,7
0,52,0,5
0,57,0,19
0,64,0,1
0,61,0,1
0,67,0,2
0,42,115,1
0,40,97,2
0,28,90,0
0,40,0,1
0,28,0,1
0,42,127,0
0,49,127,1
0,42,0,17
0,49,0,1
0,57,84,9
0,52,0,2
0,57,116,0
0,42,0,2
0,38,25,1
0,38,0,1
0,45,127,3
0,57,127,2
0,57,0,9
0,57,0,25
0,45,0,0
0,61,117,1
0,64,117,1
0,67,107,1
0,57,117,0
0,45,120,0
0,38,53,1
0,35,111,1
0,35,0,2
0,38,0,1
0,45,127,0
0,57,0,29
0,61,0,4
0,67,0,1
0,64,0,1
0,45,0,4
0,38,42,9
0,38,0,1
0,42,127,1
0,57,127,3
0,57,0,24
0,42,0,6
0,57,0,4
0,52,75,5
0,40,97,0
0,40,0,1
0,28,91,0
0,28,0,1
0,57,70,0
0,42,127,1
0,42,127,1
0,57,0,1
0,52,0,0
0,42,127,1
0,45,0,1
0,49,127,0
0,61,117,2
0,67,107,0
0,64,117,0
0,45,111,0
0,57,117,1
0,35,68,0
0,35,0,1
0,42,0,1
0,38,27,0
0,38,0,1
0,52,75,0
0,57,83,1
0,52,0,1
0,49,0,1
0,45,0,0
0,57,0,1
0,64,0,15
0,57,0,1
0,61,0,2
0,67,0,1
0,42,0,11
0,42,0,1
0,45,127,0
0,45,127,1
0,43,123,1
0,52,127,0
0,57,107,1
0,38,52,0
0,35,110,0
0,57,127,1
0,35,0,1
0,38,0,0
0,43,127,0
0,52,0,12
0,57,0,1
0,57,0,0
0,45,0,5
0,45,0,1
0,52,78,1
0,43,0,1
0,57,83,1
0,43,0,1
0,42,127,0
0,42,127,0
0,38,47,0
0,57,0,1
0,38,0,1
0,61,117,19
0,67,117,1
0,64,117,0
0,42,127,0
0,57,117,1
0,40,96,0
0,40,0,1
0,54,97,0
0,28,92,0
0,28,0,1
0,54,127,0
0,52,0,1
0,42,127,1
0,49,127,1
0,54,0,12
0,57,0,15
0,67,0,6
0,61,0,0
0,64,0,1
0,42,0,6
0,54,0,1
0,42,0,0
0,52,99,2
0,45,127,1
0,45,127,1
0,42,0,1
0,42,0,1
0,38,23,0
0,38,0,1
0,49,0,1
0,52,0,13
0,45,124,2
0,45,87,1
0,38,43,0
0,35,111,1
0,45,127,1
0,35,0,1
0,38,0,0
0,45,0,44
0,38,45,5
0,38,0,1
0,45,0,10
0,61,117,15
0,67,107,1
0,57,117,0
0,64,116,1
0,57,106,0
0,40,98,0
0,40,0,1
0,57,127,0
0,28,94,0
0,28,0,1
0,52,127,0
0,42,127,1
0,49,127,3
0,52,0,4
0,57,0,0
0,45,0,1
0,57,0,0
0,45,0,14
0,45,0,1
0,64,0,1
0,57,0,4
0,61,0,2
0,67,0,1
0,52,75,14
0,57,83,1
0,52,0,1
0,57,0,2
0,38,25,0
0,38,0,1
0,49,0,0
0,42,0,1
0,52,75,38
0,57,70,1
0,40,126,1
0,57,0,1
0,52,0,1
0,38,54,0
0,35,110,1
0,35,0,1
0,38,0,0
0,40,127,0
0,61,117,43
0,67,108,1
0,64,117,1
0,57,117,1
0,57,107,1
0,52,127,0
0,57,127,1
0,40,0,1
0,38,45,1
0,38,0,1
0,40,0,7
0,57,0,4
0,57,0,2
0,52,0,4
0,57,0,10
0,64,0,2
0,61,0,2
0,67,0,0
0,42,119,11
0,40,97,1
0,40,0,1
0,28,90,0
0,28,0,1
0,42,127,1
0,49,127,2
0,42,0,32
0,49,0,1
0,57,107,8
0,52,127,2
0,57,127,1
0,42,0,2
0,38,25,1
0,38,0,1
0,45,127,3
0,57,127,2
0,57,0,6
0,57,0,2
0,52,0,4
0,45,0,22
0,57,0,0
0,67,107,2
0,61,117,0
0,64,117,1
0,45,117,0
0,57,117,1
0,38,53,0
0,35,111,1
0,35,0,2
0,38,0,0
0,45,127,1
0,57,0,31
0,64,0,1
0,61,0,0
0,67,0,3
0,45,0,4
0,55,75,4
0,38,42,5
0,38,0,1
0,42,127,1
0,57,127,3
0,42,0,30
0,57,0,4
0,55,0,3
0,55,83,0
0,40,97,2
0,28,91,1
0,40,0,1
0,28,0,1
0,42,127,0
0,45,0,2
0,49,127,2
0,55,0,36
0,61,117,4
0,67,107,0
0,64,117,0
0,45,99,0
0,57,117,1
0,35,68,0
0,35,0,1
0,55,100,0
0,42,0,1
0,49,0,1
0,38,27,1
0,38,0,2
0,45,0,7
0,67,0,19
0,64,0,0
0,57,0,4
0,61,0,3
0,55,0,7
0,54,95,0
0,43,126,1
0,38,52,0
0,35,110,1
0,35,0,2
0,38,0,1
0,43,127,0
0,54,0,41
0,43,0,3
0,55,127,1
0,43,0,1
0,38,47,3
0,38,0,1
0,64,117,41
0,57,117,0
0,61,117,1
0,42,127,0
0,67,117,1
0,40,96,0
0,54,127,1
0,55,0,1
0,28,92,0
0,28,0,1
0,40,0,0
0,42,127,0
0,49,127,1
0,64,0,31
0,57,0,1
0,61,0,2
0,67,0,5
0,54,0,1
0,55,119,4
0,42,0,4
0,42,0,0
0,38,23,0
0,38,0,1
0,49,0,0
0,45,117,41
0,45,116,1
0,55,0,1
0,38,43,0
0,35,111,1
0,45,127,1
0,35,0,1
0,38,0,0
0,45,0,44
0,38,45,4
0,38,0,1
0,45,0,25
0,61,117,16
0,64,117,1
0,67,113,1
0,57,117,1
0,40,98,0
0,40,0,1
0,57,107,0
0,28,94,0
0,28,0,1
0,57,127,0
0,52,127,1
0,42,127,1
0,52,0,3
0,49,127,0
0,57,0,1
0,57,0,1
0,45,0,1
0,57,0,25
0,64,0,2
0,67,0,1
0,61,0,0
0,52,75,10
0,57,83,1
0,52,0,1
0,57,0,2
0,49,0,0
0,38,25,0
0,38,0,1
0,42,0,0
0,52,75,40
0,57,70,1
0,40,127,1
0,57,0,1
0,38,54,0
0,52,0,1
0,35,110,0
0,35,0,1
0,38,0,0
0,40,127,0
0,61,117,18
0,52,106,0
0,67,108,1
0,64,117,1
0,40,0,1
0,57,117,0
0,52,127,0
0,38,45,4
0,38,0,1
0,40,0,7
0,52,0,5
0,64,0,15
0,57,0,0
0,61,0,4
0,67,0,0
0,42,121,2
0,40,97,1
0,40,0,1
0,28,90,0
0,28,0,1
0,42,127,0
0,49,127,1
0,42,0,17
0,49,0,2
0,42,0,8
0,57,84,1
0,52,0,1
0,57,116,1
