track,note,velocity,time
3,73,92,2285
3,73,0,46
3,69,52,2
3,69,0,41
3,76,66,7
3,76,0,61
3,76,62,35
3,76,0,47
3,73,50,1
3,71,50,96
3,73,0,6
3,69,40,42
3,71,0,1
3,69,0,2
3,74,80,100
3,74,0,29
3,74,72,19
3,74,0,45
3,73,68,3
3,73,0,46
3,71,54,2
3,69,44,48
3,71,0,3
3,73,48,45
3,69,0,4
3,71,38,44
3,73,0,6
3,71,0,331
3,73,88,143
3,73,0,42
3,69,42,6
3,69,0,43
3,76,66,5
3,76,0,52
3,71,60,44
3,73,44,48
3,71,0,1
3,71,39,95
3,73,0,2
3,71,0,46
3,69,39,0
3,69,0,251
3,74,66,133
3,74,0,30
3,74,68,18
3,73,66,48
3,74,0,3
3,71,56,45
3,73,0,2
3,69,40,46
3,71,0,1
3,69,0,45
3,73,42,2
3,71,46,48
3,73,0,8
3,71,0,241
3,69,58,231
3,69,0,32
3,69,54,16
3,69,0,143
3,71,58,1
3,68,58,48
3,71,0,4
3,68,0,1
3,67,58,135
3,67,0,28
3,67,62,20
3,67,0,96
3,69,62,0
3,66,44,48
3,69,0,1
3,66,0,66
3,71,58,48
3,73,54,96
3,71,0,5
3,73,0,29
3,73,54,14
3,74,50,48
3,73,0,3
3,74,0,136
3,71,60,5
3,71,0,27
3,71,64,21
3,69,62,96
3,71,0,5
3,68,44,43
3,69,0,4
3,66,52,20
3,68,0,4
3,64,44,20
3,66,0,5
3,64,0,189
3,73,66,46
3,73,0,44
3,71,58,4
3,71,0,32
3,69,44,16
3,69,0,23
3,71,56,1
3,71,0,23
3,69,38,1
3,69,0,2
3,73,76,1234
3,73,0,48
3,69,58,0
3,69,0,40
3,76,62,8
3,76,0,59
3,76,60,37
3,76,0,46
3,73,52,2
3,71,56,72
3,73,0,12
3,69,34,12
3,71,0,2
3,69,0,302
3,74,66,128
3,74,0,26
3,74,62,22
3,74,0,48
3,73,72,0
3,71,56,48
3,73,0,1
3,71,0,46
3,69,46,1
3,69,0,46
3,73,37,2
3,71,42,48
3,73,0,4
3,71,0,10
3,73,88,218
3,73,0,40
3,69,58,8
3,69,0,45
3,76,56,3
3,76,0,66
3,71,58,30
3,73,48,48
3,71,0,1
3,71,44,71
3,73,0,8
3,71,0,16
3,69,39,0
3,69,0,3
3,74,62,97
3,74,0,23
3,74,68,25
3,74,0,48
3,73,66,0
3,73,0,47
3,71,64,1
3,69,60,48
3,71,0,2
3,69,0,19
3,73,27,27
3,71,56,48
3,73,0,4
3,71,0,8
3,69,66,180
3,69,0,34
3,69,54,14
3,69,0,144
3,71,62,0
3,68,50,48
3,71,0,4
3,68,0,1
3,67,64,271
3,67,0,26
3,67,68,22
3,69,62,96
3,67,0,3
3,66,38,45
3,69,0,1
3,66,0,24
3,71,66,63
3,73,60,96
3,71,0,7
3,74,38,89
3,73,0,7
3,74,0,135
3,71,62,2
3,71,0,31
3,71,68,17
3,69,72,96
3,71,0,2
3,68,46,46
3,69,0,8
3,66,52,16
3,68,0,2
3,64,28,22
3,66,0,5
3,64,0,171
3,73,64,64
3,73,0,44
3,71,56,4
3,71,0,37
3,69,36,11
3,71,36,0
3,69,0,12
3,71,0,30
3,69,42,6
3,69,0,231
3,76,76,1401
3,76,0,23
3,76,80,25
3,76,0,48
3,74,84,0
3,74,0,82
3,74,78,14
3,72,50,48
3,74,0,1
3,72,0,77
3,72,84,66
3,72,0,42
3,69,58,6
3,69,0,44
3,74,80,4
3,69,64,96
3,74,0,3
3,69,0,45
3,71,52,0
3,69,60,24
3,71,0,3
3,69,0,21
3,71,50,0
3,71,0,192
3,76,80,672
3,76,0,24
3,76,68,24
3,76,0,45
3,74,62,3
3,74,0,78
3,74,68,18
3,74,0,47
3,72,48,1
3,72,0,122
3,72,88,22
3,72,0,44
3,69,56,4
3,69,0,46
3,74,60,2
3,74,0,86
3,74,60,10
3,71,56,48
3,74,0,1
3,71,0,252
3,71,84,35
3,74,52,48
3,71,0,4
3,76,58,44
3,74,0,1
3,76,0,1
3,69,64,3159
3,69,0,28
3,69,58,20
3,69,0,142
3,71,56,2
3,71,0,46
3,68,50,2
3,68,0,3
3,67,68,205
3,67,0,17
3,67,62,31
3,69,64,96
3,67,0,1
3,66,40,47
3,69,0,4
3,66,0,3
3,71,66,56
3,73,62,96
3,71,0,7
3,73,0,32
3,73,54,9
3,74,40,48
3,73,0,3
3,28,5,9
3,74,0,7
3,71,64,17
3,71,0,30
3,71,58,18
3,28,0,18
3,71,0,74
3,69,66,4
3,68,46,48
3,69,0,7
3,66,40,17
3,68,0,6
3,66,0,16
3,64,44,2
3,64,0,186
3,73,66,54
3,73,0,44
3,71,54,4
3,71,0,31
3,69,42,17
3,69,0,23
3,71,54,1
3,71,0,23
3,69,39,1
3,69,0,341
3,73,76,1291
3,73,0,47
3,69,60,1
3,69,0,46
3,76,68,2
3,76,0,48
3,76,64,48
3,73,50,48
3,76,0,3
3,71,56,93
3,73,0,5
3,69,38,43
3,71,0,4
3,69,0,208
3,74,62,172
3,74,0,27
3,74,72,21
3,74,0,45
3,73,80,3
3,73,0,48
3,71,64,0
3,71,0,48
3,69,62,0
3,69,0,41
3,71,52,7
3,71,0,23
3,73,40,1
3,73,0,23
3,71,54,1
3,71,0,331
3,73,88,149
3,69,64,48
3,73,0,3
3,69,0,42
3,76,76,3
3,76,0,50
3,71,64,46
3,71,0,46
3,73,60,2
3,74,60,72
3,73,0,2
3,73,56,22
3,74,0,6
3,71,54,66
3,73,0,7
3,69,37,17
3,71,0,2
3,69,0,216
3,74,72,118
3,74,0,26
3,74,80,22
3,73,76,48
3,74,0,1
3,71,62,47
3,73,0,3
3,71,0,44
3,69,60,1
3,69,0,23
3,71,66,25
3,71,0,21
3,73,34,3
3,71,48,24
3,73,0,14
3,71,0,303
3,69,62,211
3,69,0,31
3,69,60,17
3,71,58,96
3,69,0,2
3,68,44,46
3,71,0,2
3,68,0,401
3,67,64,173
3,67,0,57
3,67,58,15
3,67,0,70
3,69,56,2
3,66,44,48
3,69,0,5
3,66,0,219
3,71,60,16
3,73,62,96
3,71,0,6
3,74,48,42
3,73,0,4
3,74,0,186
3,71,58,2
3,71,0,27
3,71,66,21
3,69,76,96
3,71,0,5
3,68,46,43
3,69,0,9
3,66,46,15
3,68,0,2
3,64,46,22
3,66,0,3
3,64,0,191
3,71,60,46
3,71,0,21
3,73,54,3
3,71,52,24
3,73,0,12
3,71,0,17
3,69,44,19
3,69,0,19
3,71,54,5
3,69,32,24
3,71,0,6
3,69,0,336
4,49,53,5319
4,49,0,58
4,57,61,38
4,57,0,2
4,49,61,60
4,49,0,48
4,56,49,48
4,56,0,4
4,49,53,49
4,49,0,50
4,55,51,46
4,55,0,1
4,47,63,189
4,47,0,92
4,49,57,4
4,49,0,106
4,50,65,38
4,50,0,52
4,57,73,44
4,57,0,1
4,57,37,49
4,57,0,17
4,57,47,31
4,57,0,65
4,57,42,31
4,57,0,109
4,61,43,83
4,61,0,38
4,59,61,1
4,57,39,144
4,59,0,9
4,56,57,40
4,57,0,3
4,56,0,15
4,57,45,6
4,56,42,24
4,57,0,2
4,56,0,93
4,52,57,1
4,57,57,48
4,52,0,5
4,57,0,235
4,52,53,0
4,45,51,192
4,52,0,5
4,45,0,360
4,49,59,19
4,47,63,192
4,49,0,6
4,47,0,67
4,47,57,23
4,45,59,48
4,47,0,3
4,45,0,139
4,57,60,2
4,57,0,92
4,56,57,4
4,52,61,96
4,56,0,8
4,52,0,38
4,57,61,2
4,57,0,1
4,52,38,40
4,52,0,352
4,49,57,32
4,47,61,192
4,49,0,4
4,47,0,55
4,47,63,37
4,47,0,41
4,45,30,7
4,45,0,190
4,56,38,2
4,56,0,20
4,57,61,4
4,56,55,24
4,57,0,2
4,52,63,94
4,56,0,4
4,57,57,44
4,52,0,4
4,57,0,9
4,52,51,61
4,52,0,438
4,49,53,42
4,57,61,96
4,49,0,1
4,57,0,15
4,49,63,52
4,49,0,92
4,56,49,4
4,56,0,5
4,49,59,45
4,55,47,96
4,49,0,6
4,55,0,1
4,46,59,147
4,46,0,44
4,47,63,4
4,47,0,96
4,49,49,0
4,49,0,106
4,50,44,38
4,50,0,92
4,57,46,4
4,57,0,253
4,49,59,371
4,52,53,192
4,49,0,10
4,57,61,134
4,52,0,1
4,56,40,191
4,57,0,8
4,56,0,14
4,57,42,2
4,56,47,24
4,57,0,7
4,56,0,77
4,52,61,12
4,57,57,48
4,52,0,4
4,57,0,145
4,57,14,19
4,52,59,72
4,57,0,18
4,45,32,174
4,52,0,10
4,45,0,335
4,55,59,135
4,55,0,140
4,54,49,4
4,55,45,48
4,54,0,1
4,52,61,47
4,55,0,6
4,52,0,188
4,50,71,94
4,50,0,95
4,47,40,1
4,45,63,240
4,47,0,2
4,50,61,94
4,45,0,10
4,43,65,38
4,50,0,2
4,43,0,234
4,45,69,4
4,45,0,95
4,47,61,1
4,47,0,100
4,55,59,92
4,55,0,93
4,54,51,3
4,55,55,96
4,54,0,7
4,52,69,41
4,55,0,7
4,52,0,232
4,50,63,1
4,52,65,96
4,50,0,4
4,47,57,44
4,52,0,9
4,47,0,234
4,47,65,45
4,47,0,1
4,50,32,1
4,50,0,4
4,52,69,1
4,52,0,417
4,61,57,15
4,61,0,140
4,57,69,4
4,57,0,17
4,59,59,79
4,61,61,24
4,59,0,1
4,61,0,20
4,59,69,3
4,59,0,11
4,57,63,37
4,57,0,236
4,56,61,4
4,57,59,192
4,56,0,7
4,57,0,328
4,49,61,433
4,49,0,188
4,47,55,4
4,47,0,131
4,45,61,13
4,45,0,159
4,57,67,33
4,57,0,48
4,56,59,0
4,57,61,192
4,56,0,9
4,57,0,120
4,57,59,15
4,57,0,121
4,57,61,23
4,52,46,96
4,57,0,4
4,52,0,374
4,49,42,54
4,57,67,96
4,49,0,6
4,57,0,1
4,49,57,53
4,56,53,96
4,49,0,1
4,56,0,3
4,49,63,50
4,55,51,96
4,49,0,6
4,55,0,243
4,47,61,183
4,49,51,96
4,47,0,7
4,49,0,95
4,50,67,42
4,50,0,71
4,57,47,25
4,57,0,244
4,49,61,380
4,52,69,192
4,49,0,6
4,57,63,138
4,52,0,5
4,57,0,186
4,56,59,1
4,56,0,18
4,57,45,6
4,57,0,24
4,56,55,0
4,56,0,91
4,52,61,5
4,52,0,47
4,57,61,1
4,52,49,240
4,57,0,4
4,45,59,188
4,52,0,2
4,45,0,378
4,61,59,4
4,61,0,188
4,59,63,52
4,59,0,19
4,61,57,5
4,61,0,23
4,59,65,1
4,59,0,9
4,57,61,39
4,57,0,237
4,56,55,3
4,52,53,96
4,56,0,7
4,57,61,41
4,52,0,4
4,52,53,428
4,57,0,9
4,52,0,375
4,49,57,0
4,52,67,192
4,49,0,10
4,52,0,96
4,57,65,38
4,56,57,240
4,57,0,5
4,57,61,91
4,56,0,1
4,54,39,47
4,57,0,2
4,52,46,238
4,54,0,13
4,52,0,149
4,52,63,30
4,52,0,348
4,49,57,84
4,49,0,60
4,57,51,36
4,57,0,229
4,49,59,59
4,49,0,56
4,56,49,40
4,56,0,237
4,49,59,51
4,49,0,72
4,55,53,24
4,55,0,85
4,46,51,143
4,47,63,48
4,46,0,4
4,49,49,92
4,47,0,17
4,49,0,82
4,50,63,45
4,50,0,57
4,57,41,39
4,57,0,235
4,49,57,389
4,52,63,192
4,49,0,5
4,57,67,139
4,52,0,3
4,57,0,138
4,56,63,51
4,56,0,18
4,57,59,6
4,57,0,23
4,56,47,1
4,56,0,86
4,52,53,10
4,57,59,48
4,52,0,1
4,52,55,239
4,57,0,6
4,52,0,98
4,52,59,40
4,52,0,22
4,50,61,2
4,49,49,24
4,50,0,2
4,49,0,254
5,40,66,610
5,42,76,24
5,40,0,5
5,42,0,19
5,45,66,0
5,52,42,48
5,52,0,8
5,52,68,9
5,57,60,0
5,61,54,0
5,62,64,16
5,61,0,1
5,57,0,6
5,61,64,9
5,62,0,2
5,52,0,7
5,61,0,7
5,57,62,0
5,57,0,32
5,45,0,4
5,44,62,12
5,59,66,0
5,64,68,0
5,64,0,4
5,59,0,4
5,52,42,0
5,44,0,2
5,52,0,3
5,44,54,30
5,59,60,0
5,52,37,0
5,64,64,0
5,52,0,29
5,64,0,2
5,59,0,2
5,44,0,5
5,57,66,2
5,61,56,0
5,52,58,0
5,42,62,0
5,61,0,16
5,57,0,20
5,52,0,3
5,57,56,6
5,52,39,0
5,61,39,0
5,42,0,14
5,42,46,5
5,61,0,20
5,52,0,6
5,57,0,4
5,40,62,4
5,61,50,0
5,57,56,0
5,52,39,0
5,42,0,3
5,40,0,34
5,40,56,3
5,57,0,16
5,61,0,0
5,52,0,2
5,57,66,4
5,52,58,0
5,61,60,0
5,40,0,18
5,40,62,2
5,57,0,15
5,52,0,29
5,40,0,3
5,42,62,1
5,62,64,0
5,57,66,0
5,61,0,2
5,62,0,22
5,57,0,8
5,57,64,6
5,62,60,0
5,42,0,3
5,42,42,2
5,62,0,21
5,57,0,6
5,42,0,3
5,40,56,3
5,57,56,0
5,52,50,0
5,62,46,0
5,59,54,0
5,40,0,38
5,40,66,4
5,62,0,19
5,57,0,8
5,52,0,5
5,59,0,5
5,59,60,4
5,56,54,0
5,62,52,0
5,40,0,21
5,40,62,3
5,62,0,33
5,56,0,5
5,40,0,1
5,59,0,1
5,45,58,2
5,57,60,0
5,52,46,0
5,61,52,0
5,61,0,17
5,52,0,4
5,57,0,1
5,57,48,2
5,52,44,0
5,61,46,0
5,45,0,10
5,45,58,6
5,61,0,8
5,57,0,7
5,52,0,0
5,57,39,2
5,61,37,0
5,52,29,0
5,45,0,11
5,45,58,2
5,61,0,3
5,57,0,8
5,52,0,3
5,57,54,6
5,61,54,0
5,52,44,0
5,45,0,4
5,40,66,2
5,61,0,2
5,52,0,16
5,57,0,1
5,42,68,5
5,40,0,4
5,45,68,17
5,61,56,0
5,57,54,0
5,52,42,0
5,42,0,2
5,61,0,15
5,52,0,3
5,57,0,0
5,57,68,9
5,52,62,0
5,61,50,0
5,61,0,12
5,62,64,4
5,57,0,11
5,61,62,5
5,62,0,6
5,52,0,1
5,57,56,9
5,61,0,4
5,57,0,11
5,45,0,11
5,64,68,22
5,59,58,0
5,52,52,0
5,44,48,0
5,52,0,38
5,64,0,8
5,52,42,0
5,59,0,1
5,52,0,4
5,44,0,12
5,64,64,30
5,52,46,0
5,59,58,0
5,44,50,0
5,64,0,6
5,57,58,3
5,42,54,0
5,61,50,0
5,59,0,3
5,44,0,1
5,42,0,66
5,42,42,7
5,61,0,12
5,57,0,4
5,52,0,3
5,61,54,6
5,57,56,0
5,52,37,0
5,42,0,17
5,42,44,5
5,61,0,26
5,52,0,0
5,57,0,1
5,57,46,4
5,61,42,0
5,40,50,0
5,52,46,0
5,42,0,8
5,40,0,19
5,40,52,3
5,61,0,20
5,52,0,2
5,57,0,5
5,57,56,4
5,52,46,0
5,61,54,0
5,40,0,6
5,40,56,2
5,57,0,14
5,52,0,20
5,61,0,6
5,42,54,1
5,57,56,0
5,62,54,0
5,40,0,2
5,62,0,26
5,57,0,13
5,57,56,6
5,62,52,0
5,42,0,1
5,42,48,2
5,57,0,29
5,62,0,6
5,40,52,6
5,57,42,0
5,52,52,0
5,61,56,0
5,42,0,6
5,40,0,15
5,40,54,4
5,61,0,7
5,52,0,8
5,57,0,1
5,57,52,4
5,52,50,0
5,61,54,0
5,40,0,14
5,40,54,3
5,57,0,17
5,61,0,3
5,56,44,4
5,59,44,0
5,40,0,15
5,40,56,3
5,59,0,10
5,56,0,6
5,56,58,2
5,59,58,0
5,52,0,2
5,40,0,26
5,40,60,6
5,59,0,45
5,56,0,2
5,61,62,0
5,57,64,0
5,40,0,17
5,40,60,2
5,61,0,5
5,59,64,1
5,62,68,0
5,40,0,1
5,57,0,6
5,40,56,6
5,62,0,13
5,40,0,2
5,59,0,3
5,61,46,3
5,45,58,0
5,57,60,0
5,52,48,0
