track,note,velocity,time
0,42,85,93
0,42,85,72
0,42,85,72
0,35,68,48
0,46,85,12
0,45,105,0
0,41,95,24
0,38,95,30
0,57,92,0
0,50,88,0
0,50,69,0
0,35,78,0
0,42,85,0
0,57,95,0
0,57,67,2
0,50,67,4
0,57,88,1
0,50,83,0
0,44,95,0
0,55,83,22
0,48,87,0
0,48,67,0
0,38,105,0
0,42,85,0
0,55,66,2
0,38,86,16
0,50,86,0
0,57,91,0
0,50,69,0
0,44,95,0
0,57,69,2
0,35,78,2
0,33,93,12
0,35,78,0
0,42,85,0
0,44,95,24
0,38,105,30
0,42,85,0
0,57,60,1
0,50,65,0
0,33,97,16
0,35,78,0
0,44,95,0
0,55,88,1
0,48,89,0
0,48,66,1
0,55,65,2
0,36,99,16
0,35,78,0
0,42,85,0
0,44,95,24
0,38,105,30
0,42,85,0
0,74,79,1
0,36,94,16
0,44,95,0
0,69,89,2
0,35,78,3
0,31,88,12
0,72,82,0
0,35,78,0
0,42,85,0
0,44,95,24
0,74,83,10
0,36,94,1
0,38,105,0
0,42,85,0
0,35,78,2
0,44,95,0
0,38,95,16
0,57,92,0
0,50,88,0
0,50,69,0
0,35,78,0
0,42,85,0
0,57,67,2
0,50,67,4
0,57,88,1
0,50,83,0
0,44,95,0
0,55,83,22
0,48,87,0
0,48,67,0
0,38,105,0
0,42,85,0
0,55,66,2
0,38,86,16
0,50,86,0
0,57,91,0
0,50,69,0
0,44,95,0
0,57,69,2
0,35,78,2
0,33,93,12
0,35,78,0
0,42,85,0
0,44,95,24
0,38,105,30
0,42,85,0
0,57,60,1
0,50,65,0
0,33,97,16
0,35,78,0
0,44,95,0
0,55,88,1
0,48,89,0
0,48,66,1
0,55,65,2
0,36,99,16
0,35,78,0
0,42,85,0
0,44,95,24
0,38,105,30
0,42,85,0
0,74,77,2
0,36,94,16
0,44,95,0
0,73,88,1
0,35,78,0
0,31,88,7
0,35,78,0
0,42,85,0
0,77,76,1
0,44,95,2
0,74,72,1
0,36,94,4
0,38,105,0
0,42,85,0
0,77,75,1
0,35,78,1
0,44,95,0
0,38,95,16
0,57,92,0
0,50,88,0
0,50,69,0
0,35,78,0
0,42,85,0
0,57,67,2
0,50,67,4
0,57,88,1
0,50,83,0
0,44,95,0
0,55,83,22
0,48,87,0
0,48,67,0
0,38,105,0
0,42,85,0
0,55,66,2
0,38,86,16
0,50,86,0
0,57,91,0
0,50,69,0
0,44,95,0
0,57,69,2
0,35,78,2
0,33,93,12
0,35,78,0
0,42,85,0
0,44,95,24
0,38,105,30
0,42,85,0
0,57,60,1
0,50,65,0
0,33,97,16
0,35,78,0
0,44,95,0
0,55,88,1
0,48,89,0
0,48,66,1
0,55,65,2
0,36,99,16
0,35,78,0
0,42,85,0
0,44,95,24
0,38,105,30
0,42,85,0
0,73,90,1
0,36,94,7
0,44,95,0
0,35,78,6
0,74,88,1
0,31,88,7
0,35,78,0
0,42,85,0
0,72,84,1
0,71,82,1
0,44,95,3
0,36,94,1
0,38,105,0
0,42,85,0
0,72,77,1
0,35,78,0
0,44,95,0
0,38,95,6
0,57,92,0
0,50,88,0
0,50,69,0
0,35,78,0
0,42,85,0
0,57,67,2
0,50,67,4
0,57,88,1
0,50,83,0
0,44,95,0
0,55,83,22
0,48,87,0
0,48,67,0
0,38,105,0
0,42,85,0
0,55,66,2
0,38,86,16
0,50,86,0
0,57,91,0
0,50,69,0
0,44,95,0
0,57,69,2
0,35,78,2
0,33,93,12
0,35,78,0
0,42,85,0
0,44,95,24
0,38,105,30
0,42,85,0
0,57,60,1
0,50,65,0
0,33,97,16
0,35,78,0
0,44,95,0
0,55,88,1
0,48,89,0
0,48,66,1
0,55,65,2
0,36,99,16
0,35,78,0
0,42,85,0
0,44,95,24
0,38,105,30
0,42,85,0
0,36,94,16
0,44,95,0
0,35,78,0
0,74,73,1
0,31,88,7
0,77,89,0
0,35,78,0
0,42,85,0
0,74,62,2
0,74,95,3
0,44,95,1
0,72,91,10
0,36,94,2
0,38,105,0
0,42,85,0
0,74,94,6
0,35,78,0
0,44,95,0
0,38,95,16
0,57,92,0
0,50,88,0
0,50,69,0
0,35,78,0
0,42,85,0
0,57,67,2
0,74,69,18
0,50,67,4
0,57,88,1
0,50,83,0
0,44,95,0
0,72,72,17
0,55,83,5
0,48,87,0
0,48,67,0
0,38,105,0
0,42,85,0
0,55,66,2
0,74,94,15
0,38,86,1
0,50,86,0
0,57,91,0
0,50,69,0
0,44,95,0
0,57,69,2
0,35,78,2
0,33,93,12
0,35,78,0
0,42,85,0
0,69,74,22
0,44,95,2
0,67,72,28
0,38,105,2
0,42,85,0
0,57,60,1
0,50,65,0
0,65,72,1
0,33,97,5
0,35,78,0
0,44,95,0
0,55,88,1
0,48,89,0
0,48,66,1
0,55,65,2
0,36,99,16
0,35,78,0
0,42,85,0
0,44,95,24
0,67,84,1
0,65,65,28
0,38,105,2
0,42,85,0
0,36,94,16
0,44,95,0
0,62,72,1
0,35,78,6
0,31,88,12
0,35,78,0
0,42,85,0
0,44,95,24
0,36,94,12
0,38,105,0
0,42,85,0
0,60,72,2
0,35,78,6
0,44,95,0
0,62,69,5
0,38,95,16
0,57,92,0
0,50,88,0
0,50,69,0
0,35,78,0
0,42,85,0
0,57,67,2
0,50,67,4
0,57,88,1
0,50,83,0
0,44,95,0
0,55,83,7
0,48,87,0
0,48,67,0
0,38,105,0
0,42,85,0
0,55,66,2
0,38,86,15
0,50,86,0
0,57,91,0
0,50,69,0
0,44,95,0
0,57,69,1
0,35,78,2
0,33,93,12
0,35,78,0
0,42,85,0
0,44,95,10
0,38,105,30
0,42,85,0
0,57,60,1
0,50,65,0
0,33,97,16
0,35,78,0
0,44,95,0
0,55,88,1
0,48,89,0
0,48,66,1
0,55,65,2
0,36,99,16
0,35,78,0
0,42,85,0
0,44,95,24
0,38,105,30
0,42,85,0
0,36,94,16
0,44,95,0
0,35,78,6
0,31,88,12
0,35,78,0
0,42,85,0
0,44,95,24
0,74,94,2
0,72,79,8
0,36,94,4
0,38,105,0
0,42,85,0
0,74,94,5
0,35,78,1
0,44,95,0
0,38,95,16
0,57,92,0
0,50,88,0
0,50,69,0
0,35,78,0
0,42,85,0
0,57,67,2
0,74,75,15
0,50,67,4
0,57,88,1
0,50,83,0
0,44,95,0
0,72,69,10
0,55,83,7
0,48,87,0
0,48,67,0
0,38,105,0
0,42,85,0
0,55,66,2
0,74,94,11
0,38,86,5
0,50,86,0
0,57,91,0
0,50,69,0
0,44,95,0
0,57,69,2
0,35,78,2
0,33,93,12
0,35,78,0
0,42,85,0
0,44,95,24
0,38,105,30
0,42,85,0
0,57,60,1
0,50,65,0
0,33,97,16
0,35,78,0
0,44,95,0
0,55,88,1
0,48,89,0
0,48,66,1
0,55,65,2
0,36,99,16
0,35,78,0
0,42,85,0
0,67,75,22
0,44,95,2
0,65,72,28
0,38,105,2
0,42,85,0
0,62,74,14
0,36,94,2
0,44,95,0
0,35,78,6
0,31,88,12
0,35,78,0
0,42,85,0
0,44,95,24
0,60,72,9
0,36,94,3
0,38,105,0
0,42,85,0
0,35,78,6
0,44,95,0
0,62,84,2
0,38,95,16
0,57,92,0
0,50,88,0
0,50,69,0
0,35,78,0
0,42,85,0
0,57,67,2
0,50,67,4
0,57,88,1
0,50,83,0
0,44,95,0
0,55,83,10
0,48,87,0
0,48,67,0
0,38,105,0
0,42,85,0
0,55,66,2
0,38,86,13
0,50,86,0
0,57,91,0
0,50,69,0
0,44,95,0
0,57,69,2
0,35,78,2
0,33,93,11
0,35,78,0
0,42,85,0
0,44,95,24
0,38,105,29
0,42,85,0
0,57,90,1
0,50,89,0
0,33,97,16
0,35,78,0
0,44,95,0
0,55,88,1
0,48,89,0
0,48,66,1
0,55,65,2
0,36,114,16
0,35,78,0
0,42,85,0
0,44,95,24
0,38,105,30
0,42,85,0
0,36,99,16
0,44,95,0
0,35,78,6
0,31,105,12
0,35,78,0
0,42,85,0
0,38,95,24
0,44,95,0
0,62,74,4
0,38,105,6
0,62,72,8
0,36,99,4
0,38,105,0
0,42,85,0
0,65,87,1
0,38,102,5
0,57,105,0
0,35,78,0
0,38,115,0
0,46,105,0
0,51,95,0
0,50,104,1
0,50,67,0
0,57,63,3
0,42,85,30
0,62,65,9
0,38,90,1
0,35,78,0
0,42,85,0
0,45,95,0
0,62,69,1
0,38,90,11
0,35,78,0
0,42,85,0
0,41,95,0
0,65,79,7
0,48,67,1
0,55,64,3
0,55,95,1
0,48,88,0
0,36,99,1
0,38,115,0
0,46,95,0
0,51,85,0
0,42,85,30
0,62,62,3
0,36,99,4
0,35,78,0
0,42,85,0
0,45,95,0
0,62,60,3
0,36,93,8
0,35,78,0
0,42,85,0
0,41,95,0
0,65,87,7
0,46,67,0
0,34,117,1
0,53,99,0
0,46,89,0
0,38,115,0
0,46,95,0
0,51,85,0
0,53,65,2
0,42,85,30
0,34,105,6
0,35,78,0
0,38,105,0
0,42,85,0
0,34,95,16
0,35,78,0
0,38,105,0
0,42,85,0
0,34,102,16
0,35,78,0
0,38,105,0
0,42,85,0
0,45,86,7
0,33,104,1
0,52,95,0
0,45,68,0
0,35,78,0
0,38,115,0
0,46,105,0
0,57,74,0
0,52,65,2
0,62,84,16
0,62,75,11
0,50,67,39
0,57,64,2
0,38,95,2
0,57,92,0
0,50,88,0
0,35,78,0
0,42,85,0
0,57,95,0
0,50,67,4
0,57,88,3
0,50,83,0
0,44,95,0
0,48,67,15
0,55,66,2
0,55,83,2
0,48,87,0
0,38,105,0
0,42,85,0
0,50,69,7
0,57,69,2
0,38,86,2
0,50,86,0
0,57,91,0
0,44,95,0
0,35,78,1
0,33,93,12
0,35,78,0
0,42,85,0
0,44,95,24
0,38,105,30
0,42,85,0
0,57,60,1
0,50,65,0
0,48,66,14
0,33,97,2
0,55,65,0
0,35,78,0
0,44,95,0
0,55,88,1
0,48,89,0
0,36,99,16
0,35,78,0
0,42,85,0
0,44,95,24
0,38,105,30
0,42,85,0
0,36,94,16
0,44,95,0
0,35,78,6
0,31,88,12
0,35,78,0
0,42,85,0
0,55,71,4
0,44,95,8
0,60,72,1
0,36,94,10
0,38,105,0
0,42,85,0
0,35,78,6
0,44,95,0
0,60,72,1
0,50,69,12
0,57,67,2
0,38,95,2
0,57,92,0
0,50,88,0
0,35,78,0
0,42,85,0
0,50,67,3
0,57,88,5
0,50,83,0
0,44,95,0
0,48,67,6
0,55,66,2
0,55,83,2
0,48,87,0
0,38,105,0
0,42,85,0
0,50,69,12
0,57,69,1
0,38,86,2
0,50,86,0
0,57,91,0
0,44,95,0
0,35,78,6
0,33,93,3
0,35,78,0
0,42,85,0
0,44,95,4
0,38,105,20
0,42,85,0
0,57,60,1
0,50,65,0
0,48,66,14
0,33,97,2
0,55,65,0
0,35,78,0
0,44,95,0
0,55,88,1
0,48,89,0
0,36,99,16
0,35,78,0
0,42,85,0
0,44,95,24
0,38,105,30
0,42,85,0
0,55,65,1
0,36,94,1
0,60,65,0
0,44,95,0
0,35,78,6
0,31,88,3
0,35,78,0
0,42,85,0
0,60,65,2
0,44,95,2
0,57,66,2
0,55,55,1
0,53,50,5
0,36,94,1
0,38,105,0
0,42,85,0
0,74,87,3
0,35,78,6
0,44,95,0
0,74,87,2
0,50,51,1
0,50,69,12
0,57,67,2
0,38,95,0
0,57,92,0
0,50,88,0
0,50,69,0
0,35,78,0
0,42,85,0
0,57,67,0
0,50,67,4
0,74,75,0
0,57,88,1
0,50,83,0
0,44,95,0
0,72,75,18
0,55,83,4
0,48,87,0
0,48,67,0
0,38,105,0
0,42,85,0
0,55,66,2
0,38,86,16
0,50,86,0
0,57,91,0
0,50,69,0
0,74,87,0
0,44,95,0
0,57,69,2
0,35,78,2
0,33,93,12
0,35,78,0
0,42,85,0
0,72,69,21
0,44,95,3
0,69,62,29
0,38,105,1
0,42,85,0
0,57,60,1
0,50,65,0
0,65,69,10
0,33,97,6
0,35,78,0
0,44,95,0
0,55,88,1
0,48,89,0
0,48,66,1
0,55,65,2
0,36,99,16
0,35,78,0
0,42,85,0
0,67,94,24
0,44,95,0
0,65,63,26
0,38,105,4
0,42,85,0
0,62,69,13
0,36,94,3
0,44,95,0
0,35,78,6
0,31,88,12
0,35,78,0
0,42,85,0
0,44,95,24
0,36,94,3
0,38,105,0
0,42,85,0
0,60,65,1
0,35,78,6
0,44,95,0
0,62,72,2
0,38,95,16
0,57,92,0
0,50,88,0
0,50,69,0
0,35,78,0
0,42,85,0
0,57,67,2
0,50,67,4
0,57,88,1
0,50,83,0
0,44,95,0
0,55,83,1
0,48,87,0
0,48,67,0
0,38,105,0
0,42,85,0
0,55,66,2
0,38,86,1
0,50,86,0
0,57,91,0
0,50,69,0
0,44,95,0
0,57,69,2
0,35,78,2
0,33,93,11
0,35,78,0
0,42,85,0
0,44,95,5
0,69,82,1
0,38,105,0
0,42,85,0
0,57,60,1
0,50,65,0
0,72,88,1
0,33,97,2
0,35,78,0
0,44,95,0
0,55,88,1
0,48,89,0
0,48,66,1
0,55,65,0
0,36,99,4
0,35,78,0
0,42,85,0
0,44,95,2
0,38,105,0
0,42,85,0
0,36,94,3
0,44,95,0
0,35,78,1
0,31,88,2
0,35,78,0
0,42,85,0
0,44,95,3
0,74,94,1
0,72,87,5
0,36,94,1
0,38,105,0
0,42,85,0
0,74,100,1
0,35,78,0
0,44,95,0
0,38,95,16
0,57,92,0
0,50,88,0
0,50,69,0
0,35,78,0
0,42,85,0
0,57,67,2
0,50,67,4
0,57,88,1
0,50,83,0
0,44,95,0
0,72,75,17
0,55,83,1
0,48,87,0
0,48,67,0
0,38,105,0
0,42,85,0
0,55,66,2
0,38,86,16
0,50,86,0
0,57,91,0
0,50,69,0
0,74,87,0
0,44,95,0
0,57,69,2
0,35,78,2
0,33,93,12
0,35,78,0
0,42,85,0
0,44,95,24
0,72,65,1
0,38,105,27
0,42,85,0
0,57,60,1
0,50,65,0
0,69,65,1
0,33,97,16
0,35,78,0
0,44,95,0
0,55,88,1
0,48,89,0
0,48,66,1
0,55,65,2
0,36,99,16
0,35,78,0
0,42,85,0
0,67,87,22
0,44,95,2
0,65,64,26
0,38,105,4
0,42,85,0
0,62,74,14
0,36,94,2
0,44,95,0
0,35,78,6
0,31,88,12
0,35,78,0
0,42,85,0
0,44,95,9
0,60,74,2
0,36,94,10
0,38,105,0
0,42,85,0
0,62,75,5
0,35,78,1
0,44,95,0
0,38,95,16
0,57,92,0
0,50,88,0
0,50,69,0
0,35,78,0
0,42,85,0
0,57,67,2
0,50,67,4
0,57,88,1
0,50,83,0
0,44,95,0
0,55,83,22
0,48,87,0
0,48,67,0
0,38,105,0
0,42,85,0
0,55,66,2
0,38,86,14
0,50,86,0
0,57,91,0
0,50,69,0
0,44,95,0
0,57,69,2
0,35,78,2
0,33,93,7
0,35,78,0
0,42,85,0
0,44,95,24
0,38,105,30
0,42,85,0
0,57,90,1
0,50,89,0
0,33,97,16
0,35,78,0
0,44,95,0
0,55,88,1
0,48,89,0
0,48,66,1
0,55,65,2
0,36,114,16
0,35,78,0
0,42,85,0
0,44,95,24
0,38,105,30
0,42,85,0
0,36,99,16
0,44,95,0
0,35,78,6
0,31,105,12
0,35,78,0
0,42,85,0
0,38,95,24
0,44,95,0
0,62,69,5
0,38,105,6
0,62,69,8
0,36,99,4
0,38,105,0
0,42,85,0
0,65,87,0
0,38,102,2
0,57,105,0
0,35,78,0
0,38,115,0
0,46,105,0
0,51,95,0
0,50,104,1
0,50,67,0
0,57,63,3
0,42,85,30
0,62,65,11
0,38,90,5
0,35,78,0
0,42,85,0
0,45,95,0
0,62,65,1
0,38,90,11
0,35,78,0
0,42,85,0
0,41,95,0
0,65,100,2
0,48,67,1
0,55,64,3
0,55,95,1
0,48,88,0
0,36,99,1
0,38,115,0
0,46,95,0
0,51,85,0
0,42,85,30
0,62,64,12
0,36,99,4
0,35,78,0
