track,note,velocity,time
2,36,66,1815
2,35,76,192
2,34,64,7
2,34,66,23
2,33,76,48
2,33,58,20
2,32,64,3
2,32,66,35
2,34,54,7
2,36,64,13
2,43,74,12
2,48,70,9
2,43,66,96
2,45,70,16
2,48,64,3
2,48,74,15
2,48,64,17
2,47,74,0
2,47,64,13
2,45,40,24
2,45,76,9
2,45,62,15
2,43,66,48
2,43,62,24
2,41,76,3
2,41,47,25
2,45,60,24
2,48,64,0
2,43,68,3
2,45,66,9
2,46,66,5
2,46,59,22
2,46,56,14
2,41,64,6
2,43,57,1
2,46,66,2
2,48,66,48
2,48,72,28
2,47,76,48
2,45,68,1
2,45,60,36
2,43,40,2
2,43,74,11
2,43,52,21
2,41,62,48
2,45,64,140
2,48,68,9
2,43,64,6
2,45,60,48
2,46,66,43
2,46,68,42
2,46,64,19
2,45,60,0
2,42,46,1
2,43,66,1
2,40,74,48
2,38,62,11
2,43,66,7
2,43,58,26
2,36,54,7
2,36,54,37
2,35,70,6
2,35,62,30
2,34,70,2
2,34,66,38
2,33,70,3
2,33,62,41
2,32,74,4
2,32,72,43
2,34,54,48
2,34,60,49
2,36,68,5
2,36,56,37
2,35,54,2
2,35,68,40
2,34,60,9
2,34,58,44
2,33,72,48
2,33,64,58
2,32,74,8
2,32,66,67
2,34,56,48
2,34,58,69
2,36,58,48
2,43,66,0
2,48,66,6
2,43,54,96
2,45,68,7
2,48,62,1
2,36,66,48
2,48,52,22
2,47,58,24
2,47,68,14
2,47,62,17
2,45,74,48
2,45,72,29
2,43,72,48
2,43,66,37
2,41,70,1
2,41,50,52
2,45,60,2
2,48,66,1
2,43,52,35
2,45,62,24
2,46,78,0
2,41,46,1
2,46,50,1
2,41,56,0
2,46,58,3
2,46,74,15
2,46,64,35
2,47,58,2
2,48,64,1
2,48,60,29
2,47,62,48
2,47,68,40
2,45,62,1
2,45,62,41
2,43,64,5
2,43,62,45
2,41,56,4
2,45,70,41
2,48,66,6
2,45,54,47
2,46,62,48
2,41,66,22
2,46,62,1
2,46,44,10
2,45,62,1
2,42,62,5
2,43,74,24
2,43,56,19
2,45,64,1
2,46,72,24
2,47,70,0
2,43,37,2
2,45,66,2
2,48,56,1
2,45,64,1
2,43,54,6
2,44,60,24
2,44,56,35
2,43,70,2
2,43,58,31
2,41,56,0
2,39,64,17
2,36,58,48
2,36,52,43
2,34,56,48
2,36,58,6
2,38,64,15
2,39,54,3
2,41,64,1
2,46,76,48
2,44,62,90
2,46,64,36
2,44,60,0
2,43,60,24
2,39,48,90
2,41,64,95
2,41,46,27
2,39,48,24
2,36,68,4
2,34,52,13
2,36,46,24
2,31,66,5
2,43,66,96
2,43,72,19
2,43,62,20
2,41,62,48
2,31,66,7
2,43,60,13
2,39,50,0
2,36,49,48
2,35,68,1
2,34,62,192
2,33,68,186
2,32,66,187
2,34,60,2
2,36,64,192
2,35,68,187
2,34,64,7
2,33,64,192
2,32,76,6
2,34,72,192
2,36,49,188
2,35,68,1
2,34,62,192
2,33,68,186
2,32,66,187
2,34,60,2
2,36,64,192
2,35,68,187
2,34,64,7
2,33,64,192
2,32,76,6
2,34,72,192
2,36,68,188
2,43,72,12
2,48,70,0
2,43,76,96
2,45,68,1
2,48,66,2
2,48,72,14
2,48,68,11
2,47,72,48
2,47,62,24
2,45,68,4
2,45,62,10
2,45,66,28
2,43,64,1
2,43,74,16
2,41,56,6
2,41,60,37
2,45,68,24
2,48,54,0
2,43,60,6
2,46,74,48
2,46,64,23
2,46,68,15
2,41,70,96
2,43,52,15
2,46,60,2
2,48,68,4
2,48,56,33
2,47,64,2
2,47,56,39
2,45,66,5
2,45,49,32
2,43,52,5
2,43,62,12
2,43,56,32
2,41,74,3
2,45,66,2
2,48,68,6
2,43,54,96
2,45,60,45
2,46,68,47
2,41,54,115
2,46,70,22
2,41,48,71
2,46,62,3
2,43,62,0
2,48,46,2
2,48,56,34
2,47,66,3
2,47,66,38
2,45,62,1
2,45,62,45
2,43,60,1
2,43,56,35
2,41,72,9
2,45,62,33
2,47,66,1
2,48,72,2
2,43,62,29
2,46,76,8
2,46,40,26
2,46,66,17
2,45,74,96
2,43,64,5
2,48,72,6
2,48,74,21
2,47,60,48
2,47,52,40
2,45,54,48
2,45,66,35
2,43,66,48
2,43,50,41
2,41,58,6
2,41,64,17
2,48,68,1
2,48,62,26
2,46,72,3
2,41,52,5
2,34,64,6
2,46,49,11
2,45,68,8
2,43,58,6
2,43,56,21
2,43,64,12
2,31,52,4
2,36,58,29
2,36,56,18
2,35,74,0
2,35,48,23
2,34,72,4
2,34,62,24
2,33,70,8
2,33,64,24
2,32,78,3
2,32,68,24
2,34,66,4
2,31,60,24
2,34,60,4
2,36,70,24
2,36,60,24
2,35,64,0
2,35,70,24
2,34,68,6
2,34,70,24
2,33,74,0
2,33,68,24
2,32,78,4
2,32,70,24
2,34,64,7
2,31,68,24
2,34,42,24
2,38,66,23
2,36,58,21
2,36,62,24
2,35,72,1
2,35,62,38
2,34,66,1
2,34,60,44
2,33,74,1
2,33,66,24
2,32,76,2
2,32,66,48
2,34,70,24
2,31,62,38
2,34,52,8
2,36,64,24
2,36,62,48
2,35,62,1
2,35,66,45
2,34,56,5
2,34,60,24
2,33,64,48
2,33,60,36
2,32,72,5
2,32,66,42
2,34,60,48
2,31,74,143
3,55,46,644
3,60,49,4
3,63,50,5
3,67,41,4
3,60,27,0
3,63,32,2
3,67,46,0
3,67,40,5
3,63,36,1
3,60,27,1
3,55,43,3
3,60,49,0
3,63,52,1
3,67,38,1
3,63,28,5
3,60,20,0
3,67,33,2
3,67,26,3
3,63,26,1
3,60,23,1
3,55,39,4
3,65,44,1
3,59,49,0
3,67,53,2
3,67,33,3
3,65,28,1
3,59,36,0
3,59,30,4
3,55,26,0
3,65,36,2
3,67,40,0
3,67,41,1
3,65,32,1
3,59,39,1
3,59,38,4
3,55,32,0
3,65,39,2
3,67,44,0
3,67,39,3
3,65,42,1
3,59,40,1
3,55,47,3
3,58,47,0
3,63,57,1
3,67,44,1
3,63,37,5
3,58,38,0
3,67,39,2
3,68,31,3
3,63,27,1
3,58,35,1
3,58,41,4
3,55,39,0
3,63,44,1
3,68,42,0
3,68,41,2
3,63,46,2
3,58,41,1
3,58,29,4
3,63,26,1
3,67,34,1
3,67,36,6
3,63,31,2
3,58,34,1
3,45,40,6
3,53,36,1
3,60,35,1
3,65,47,1
3,60,30,2
3,53,24,0
3,65,35,4
3,65,45,2
3,60,43,2
3,53,42,0
3,65,36,2
3,60,42,1
3,53,34,1
3,53,31,1
3,60,39,1
3,65,32,1
3,65,35,0
3,60,37,2
3,53,34,2
3,51,47,2
3,56,47,3
3,60,56,1
3,63,44,2
3,56,13,2
3,60,44,2
3,63,33,0
3,63,34,3
3,60,30,1
3,56,36,1
3,51,42,1
3,56,47,3
3,60,59,1
3,63,36,2
3,56,13,2
3,60,44,2
3,63,39,0
3,63,37,3
3,60,36,1
3,56,24,1
3,53,38,1
3,58,35,3
3,62,50,1
3,65,36,2
3,58,40,2
3,62,44,2
3,65,39,0
3,65,50,3
3,62,49,1
3,58,39,1
3,53,39,1
3,58,42,1
3,62,41,2
3,65,45,0
3,65,50,1
3,62,49,1
3,58,40,1
3,58,50,4
3,62,52,2
3,65,53,0
3,65,53,3
3,62,65,1
3,58,55,1
3,55,47,2
3,60,38,1
3,63,37,1
3,67,46,1
3,60,30,1
3,63,41,2
3,67,57,0
3,67,42,3
3,63,45,1
3,60,40,1
3,60,30,2
3,55,41,0
3,63,46,2
3,67,41,0
3,67,46,1
3,63,36,1
3,60,46,1
3,60,48,4
3,55,39,0
3,63,46,2
3,67,44,0
3,67,45,3
3,63,48,1
3,60,52,1
3,55,45,2
3,65,46,1
3,59,54,0
3,67,56,2
3,67,48,3
3,65,45,1
3,59,49,0
3,59,44,4
3,65,46,2
3,67,48,0
3,67,42,3
3,65,45,1
3,59,40,1
3,67,39,4
3,65,37,1
3,59,48,0
3,55,43,5
3,58,47,0
3,63,57,1
3,67,44,1
3,63,37,5
3,58,38,0
3,67,39,2
3,68,63,3
3,63,57,1
3,58,53,1
3,67,40,5
3,63,43,1
3,58,43,1
3,58,29,3
3,63,26,1
3,67,34,1
3,67,36,6
3,63,31,2
3,58,34,1
3,45,54,6
3,53,54,1
3,60,50,1
3,65,58,1
3,60,40,2
3,53,35,0
3,65,42,4
3,65,41,2
3,60,35,2
3,53,43,0
3,53,45,5
3,60,43,1
3,65,52,2
3,65,37,3
3,60,34,1
3,53,33,2
3,53,33,3
3,60,40,1
3,65,39,2
3,65,32,2
3,60,37,2
3,53,32,2
3,51,56,2
3,56,52,3
3,60,66,1
3,63,51,2
3,56,41,2
3,60,46,2
3,63,42,0
3,63,46,3
3,60,39,1
3,56,42,1
3,51,53,1
3,56,54,3
3,60,60,1
3,63,49,2
3,56,55,2
3,60,59,2
3,63,41,0
3,63,41,3
3,60,44,1
3,56,41,1
3,53,65,1
3,58,50,3
3,62,67,1
3,65,36,2
3,58,50,2
3,62,51,2
3,65,39,0
3,65,50,3
3,62,54,1
3,58,52,1
3,53,56,1
3,58,50,1
3,62,57,2
3,65,52,0
3,65,50,1
3,62,49,1
3,58,44,1
3,53,59,1
3,58,57,3
3,62,69,1
3,65,49,2
3,48,65,1
3,55,64,3
3,60,76,1
3,67,62,2
3,48,57,7
3,55,55,3
3,48,43,6
3,55,41,2
3,48,35,5
3,55,37,2
3,48,45,5
3,55,45,3
3,60,43,1
3,67,44,0
3,48,58,4
3,55,52,1
3,60,59,1
3,67,56,1
3,48,62,4
3,55,56,1
3,60,64,1
3,67,55,1
3,67,62,4
3,60,54,1
3,55,52,1
3,48,70,1
3,55,68,3
3,60,70,1
3,67,67,2
3,60,64,4
3,67,76,1
3,72,62,2
3,64,59,2
3,67,53,2
3,72,62,0
3,60,75,5
3,64,71,0
3,67,79,1
3,72,60,1
3,67,70,5
3,64,57,0
3,72,62,2
3,72,50,3
3,67,47,1
3,64,52,1
3,67,64,6
3,64,60,0
3,71,71,2
3,71,53,3
3,67,56,1
3,64,52,0
3,64,60,4
3,67,46,2
3,71,61,0
3,71,51,1
3,67,48,1
3,64,54,1
3,64,68,4
3,67,53,2
3,71,60,0
3,71,55,3
3,67,56,1
3,64,53,1
3,60,64,3
3,64,69,1
3,69,61,1
3,64,54,5
3,60,55,0
3,69,56,2
3,69,48,3
3,64,44,1
3,60,52,1
3,60,58,4
3,64,61,1
3,69,59,0
3,69,58,2
3,64,63,2
3,60,58,1
3,60,46,4
3,64,43,1
3,69,51,1
3,69,53,6
3,64,48,2
3,60,51,1
3,60,53,7
3,64,52,1
3,67,64,1
3,64,47,2
3,60,41,0
3,67,52,4
3,67,62,2
3,64,60,2
3,60,59,0
3,67,53,2
3,64,59,1
3,60,51,1
3,60,48,1
3,64,56,1
3,67,49,1
3,67,52,0
3,64,54,2
3,60,51,2
3,53,55,3
3,57,64,3
3,60,73,1
3,65,61,2
3,57,30,2
3,60,61,2
3,65,50,0
3,65,51,3
3,60,47,1
3,57,53,1
3,57,64,4
3,60,76,1
3,65,53,2
3,57,30,2
3,60,61,2
3,65,56,0
3,65,54,3
3,60,53,1
3,57,41,1
3,48,55,1
3,55,52,3
3,60,67,1
3,64,53,2
3,55,57,2
3,60,61,2
3,64,56,0
3,64,67,3
3,60,66,1
3,55,56,1
3,48,56,1
3,55,59,1
3,60,58,2
3,64,62,0
3,64,49,1
3,60,47,1
3,55,46,1
3,55,55,4
3,60,54,2
3,64,59,0
3,64,70,3
3,60,62,1
3,55,53,1
3,53,49,2
3,58,55,1
3,62,54,1
3,65,63,1
3,58,47,1
3,62,58,2
3,65,64,0
3,65,59,3
3,62,62,1
3,58,57,1
3,58,47,2
3,53,58,0
3,62,63,2
3,65,58,0
3,65,63,1
3,62,53,1
3,58,63,1
3,58,65,4
3,53,56,0
3,62,63,2
3,65,61,0
3,65,62,3
3,62,65,1
3,58,69,1
3,53,62,2
3,62,63,1
3,58,71,0
3,65,73,2
3,65,56,3
3,62,54,1
3,58,65,0
3,58,47,4
3,62,58,2
3,65,74,0
3,67,59,3
3,62,62,1
3,58,57,1
3,65,56,4
3,62,54,1
3,58,65,0
3,60,58,6
3,64,70,1
3,67,56,2
3,60,53,2
3,64,47,2
3,67,56,0
3,60,65,5
3,64,73,1
3,67,60,1
3,64,70,5
3,60,57,0
3,67,62,2
3,67,53,3
3,64,47,1
3,60,52,1
3,64,56,6
3,59,54,0
3,67,63,2
3,67,53,3
3,64,56,1
3,59,52,0
3,69,62,3
3,65,62,0
3,71,60,4
3,67,60,0
3,64,64,4
3,69,69,1
3,72,61,1
3,69,54,5
3,64,55,0
3,72,56,2
3,72,55,3
3,69,50,1
3,64,52,1
3,64,58,4
3,69,61,1
3,72,59,0
3,72,58,2
3,69,63,2
3,64,58,1
3,64,46,4
3,69,43,1
3,72,51,1
3,72,53,6
3,69,48,2
3,64,51,1
3,64,53,7
3,67,52,1
3,72,64,1
3,67,47,2
3,64,41,0
3,72,52,4
3,72,62,2
3,67,60,2
3,64,59,0
3,72,53,2
3,67,59,1
3,64,51,1
3,64,48,1
3,67,56,1
3,72,49,1
3,72,52,0
3,67,54,2
3,64,51,2
3,65,64,6
3,69,73,1
3,72,61,2
3,65,30,2
3,69,61,2
3,72,50,0
3,72,51,3
3,69,47,1
3,65,53,1
3,65,64,4
3,69,76,1
3,72,53,2
3,65,30,2
3,69,61,2
3,72,56,0
3,72,54,3
3,69,53,1
3,65,41,1
3,64,52,4
3,67,67,1
3,72,53,2
3,64,57,2
3,67,61,2
3,72,56,0
3,72,67,3
3,67,66,1
3,64,56,1
3,64,59,2
3,67,58,2
3,72,62,0
3,72,49,1
3,67,47,1
3,64,46,1
3,64,55,4
3,67,54,2
3,72,59,0
3,72,70,3
3,67,62,1
3,64,53,1
3,62,55,3
3,65,54,1
3,70,63,1
3,62,47,1
3,65,58,2
3,70,64,0
3,70,59,3
3,65,62,1
3,62,48,1
3,62,47,2
3,65,56,2
3,70,58,0
3,70,55,1
3,65,45,1
3,62,54,1
3,62,56,4
3,65,63,2
3,70,50,0
3,70,52,3
3,65,54,1
3,62,58,1
3,65,53,3
3,62,63,0
3,70,62,2
3,46,47,4
3,45,52,6
3,42,50,1
3,43,60,7
3,62,70,1
3,67,56,2
3,59,53,2
3,62,48,2
3,67,57,0
3,59,54,5
3,62,56,1
3,67,56,1
3,62,56,5
3,59,49,0
3,67,62,2
3,67,48,3
3,62,43,1
3,59,52,1
3,59,49,5
3,62,53,2
3,67,60,0
3,67,44,3
3,62,46,1
3,59,38,1
3,59,54,3
3,62,57,2
3,67,58,2
3,59,46,4
3,62,52,2
3,67,49,0
3,59,47,5
3,62,43,2
3,67,54,0
3,67,41,3
3,62,37,1
3,59,36,1
3,55,43,3
3,60,49,0
3,63,52,1
3,67,38,1
3,60,22,0
3,63,32,2
3,67,46,0
3,67,40,5
3,63,36,1
3,60,27,1
3,55,43,3
3,60,49,0
3,63,52,1
3,67,38,1
3,63,28,5
3,60,20,0
3,67,33,2
3,67,26,3
3,63,26,1
3,60,23,1
3,55,39,4
3,65,44,1
3,59,49,0
3,67,53,2
3,67,33,3
3,65,28,1
3,59,36,0
3,59,30,4
3,55,26,0
3,65,36,2
3,67,40,0
3,67,41,1
3,65,32,1
3,59,39,1
3,59,38,4
3,55,32,0
3,65,39,2
3,67,44,0
3,67,39,3
3,65,42,1
3,59,40,1
3,55,47,3
3,58,47,0
3,63,57,1
3,67,44,1
3,63,37,5
3,58,38,0
3,67,39,2
3,68,31,3
3,63,27,1
3,58,35,1
3,58,41,4
3,55,39,0
3,63,44,1
3,68,42,0
3,68,41,2
3,63,46,2
3,58,41,1
3,58,29,4
3,63,26,1
3,67,34,1
3,67,36,6
3,63,31,2
3,58,34,1
3,45,40,6
3,53,36,1
3,60,35,1
3,65,47,1
3,60,30,2
3,53,24,0
3,65,35,4
