track,note,velocity,time
0,62,85,8
0,67,89,0
0,71,81,0
0,76,81,0
0,52,76,0
0,52,86,0
0,52,86,0
0,52,91,0
0,62,113,0
0,52,90,24
0,62,119,0
0,62,121,0
0,52,84,0
0,83,109,0
0,64,118,0
0,64,110,12
0,64,114,12
0,64,111,4
0,64,109,44
0,64,112,44
0,59,118,164
0,62,116,12
0,64,122,20
0,36,62,0
0,69,1,0
0,28,65,0
0,69,2,112
0,28,66,0
0,74,103,0
0,36,64,112
0,69,3,0
0,28,67,0
0,69,4,112
0,28,68,0
0,36,66,96
0,69,6,0
0,28,69,0
0,69,7,112
0,28,70,0
0,36,68,112
0,69,8,0
0,28,71,0
0,69,10,112
0,28,72,0
0,36,70,112
0,69,11,0
0,28,72,0
0,69,12,112
0,28,73,0
0,36,72,112
0,69,14,0
0,28,74,0
0,69,15,112
0,28,75,0
0,36,74,12
0,69,16,0
0,28,76,0
0,62,79,0
0,66,91,0
0,69,80,0
0,74,79,0
0,69,18,112
0,28,77,0
0,66,119,0
0,36,76,112
0,69,19,0
0,28,78,0
0,69,20,24
0,28,79,0
0,64,121,0
0,36,78,112
0,69,21,0
0,28,79,0
0,69,23,112
0,28,80,0
0,36,80,112
0,69,24,0
0,28,81,0
0,69,25,112
0,28,82,0
0,36,82,112
0,69,27,0
0,28,83,0
0,69,28,112
0,28,84,0
0,36,84,112
0,69,29,0
0,28,85,0
0,69,31,112
0,28,86,0
0,36,86,112
0,69,32,0
0,28,86,0
0,69,33,112
0,28,87,0
0,36,89,112
0,69,34,0
0,28,88,0
0,69,36,112
0,28,89,0
0,36,91,112
0,69,37,0
0,28,90,0
0,69,38,112
0,28,91,0
0,66,122,0
0,36,93,56
0,69,40,0
0,28,92,0
0,64,82,0
0,67,81,0
0,71,84,0
0,69,41,24
0,28,93,0
0,64,111,0
0,36,95,24
0,69,42,0
0,28,93,0
0,64,111,0
0,69,44,112
0,28,94,0
0,64,112,0
0,36,97,112
0,69,45,0
0,28,95,0
0,64,119,0
0,69,46,112
0,28,96,0
0,64,107,0
0,64,127,0
0,36,99,12
0,69,48,0
0,28,97,0
0,71,102,0
0,64,116,0
0,69,49,12
0,28,98,0
0,64,91,0
0,64,113,0
0,36,101,112
0,69,50,0
0,28,99,0
0,64,114,0
0,67,111,16
0,69,51,96
0,28,100,0
0,36,103,112
0,69,53,0
0,28,100,0
0,69,54,112
0,28,101,0
0,36,105,112
0,69,55,0
0,28,102,0
0,69,57,112
0,28,103,0
0,36,107,112
0,69,58,0
0,28,104,0
0,69,59,108
0,28,105,0
0,66,125,0
0,36,109,112
0,69,61,0
0,28,106,0
0,69,62,24
0,28,107,0
0,64,116,0
0,36,111,56
0,69,63,0
0,28,107,0
0,62,78,0
0,66,75,0
0,69,89,0
0,69,64,112
0,28,108,0
0,40,84,0
0,36,113,16
0,69,66,0
0,28,109,0
0,45,90,0
0,69,67,16
0,28,110,0
0,52,87,0
0,36,115,104
0,69,68,0
0,28,111,0
0,69,70,112
0,28,112,0
0,36,117,112
0,69,71,0
0,28,113,0
0,83,90,0
0,69,72,16
0,28,114,0
0,76,96,0
0,62,109,0
0,36,119,24
0,69,74,0
0,28,114,0
0,64,122,0
0,69,75,112
0,28,115,0
0,36,121,24
0,69,76,0
0,28,116,0
0,69,78,112
0,28,117,0
0,36,123,112
0,69,79,0
0,28,118,0
0,69,80,112
0,28,119,0
0,36,115,112
0,69,81,0
0,28,120,0
0,69,83,16
0,28,121,0
0,62,122,0
0,36,113,24
0,49,112,0
0,39,81,0
0,56,108,0
0,69,84,0
0,28,122,0
0,64,79,0
0,67,91,0
0,71,75,0
0,64,109,0
0,56,93,112
0,62,86,0
0,36,123,120
0,39,100,0
0,63,78,0
0,28,115,0
0,56,85,16
0,63,91,0
0,56,81,92
0,63,77,0
0,69,72,0
0,64,109,0
0,56,83,92
0,36,108,24
0,39,100,0
0,56,95,0
0,69,69,0
0,28,114,0
0,62,110,0
0,56,95,24
0,62,87,0
0,69,57,0
0,64,115,0
0,36,108,24
0,39,100,0
0,28,118,0
0,63,77,16
0,63,82,92
0,69,66,0
0,36,115,188
0,39,100,0
0,28,110,0
0,62,121,0
0,39,100,24
0,62,81,0
0,59,112,0
0,62,110,16
0,36,127,96
0,39,100,0
0,28,124,0
0,59,115,16
0,39,100,16
0,56,84,0
0,63,90,0
0,62,120,0
0,56,86,16
0,36,127,92
0,39,100,0
0,56,82,0
0,28,116,0
0,62,117,0
0,39,100,24
0,56,81,0
0,64,123,0
0,36,108,24
0,50,114,0
0,39,100,0
0,56,96,0
0,28,122,0
0,47,114,16
0,39,100,0
0,56,96,0
0,43,124,92
0,39,100,0
0,56,86,0
0,62,115,0
0,36,117,24
0,39,100,0
0,56,94,0
0,69,64,0
0,28,124,0
0,62,94,0
0,66,89,0
0,69,83,0
0,64,127,0
0,56,88,24
0,62,89,0
0,36,126,188
0,39,100,0
0,63,92,0
0,28,120,0
0,56,89,16
0,63,92,0
0,56,91,92
0,63,77,0
0,69,64,0
0,64,113,0
0,56,86,92
0,36,112,24
0,39,100,0
0,56,80,0
0,28,124,0
0,62,121,0
0,56,92,24
0,62,83,0
0,69,54,0
0,64,120,0
0,36,114,24
0,39,100,0
0,28,126,0
0,63,78,16
0,63,83,92
0,69,61,0
0,36,114,188
0,39,100,0
0,28,125,0
0,62,122,0
0,39,100,112
0,62,82,0
0,62,118,0
0,62,121,16
0,36,113,16
0,39,100,0
0,28,114,0
0,62,118,16
0,39,100,16
0,56,78,0
0,63,94,0
0,64,112,0
0,56,77,92
0,36,115,24
0,39,100,0
0,56,95,0
0,28,114,0
0,39,100,112
0,56,84,0
0,39,100,92
0,36,124,92
0,50,117,0
0,39,100,0
0,56,78,0
0,28,127,0
0,47,120,16
0,39,100,0
0,56,86,0
0,43,120,92
0,39,100,0
0,56,83,0
0,62,109,0
0,36,108,24
0,49,120,0
0,39,100,0
0,56,77,0
0,69,54,0
0,28,110,0
0,64,80,0
0,67,81,0
0,71,85,0
0,64,119,0
0,56,87,24
0,62,86,0
0,36,121,188
0,39,100,0
0,63,82,0
0,28,121,0
0,56,91,16
0,63,78,0
0,56,78,92
0,63,81,0
0,69,59,0
0,64,118,0
0,56,89,92
0,36,127,24
0,39,100,0
0,56,83,0
0,69,63,0
0,28,126,0
0,62,124,0
0,56,84,24
0,62,90,0
0,69,68,0
0,64,120,0
0,36,114,112
0,39,100,0
0,28,113,0
0,63,96,16
0,63,87,92
0,69,61,0
0,36,127,188
0,39,100,0
0,28,125,0
0,62,110,0
0,39,100,24
0,62,79,0
0,59,110,0
0,62,124,16
0,36,127,16
0,39,100,0
0,28,112,0
0,62,116,16
0,39,100,16
0,56,87,0
0,63,91,0
0,62,116,0
0,56,89,16
0,62,118,0
0,36,127,16
0,39,100,0
0,56,84,0
0,28,112,0
0,62,119,0
0,39,100,24
0,56,90,0
0,64,124,0
0,36,108,24
0,50,121,0
0,39,100,0
0,56,93,0
0,28,122,0
0,47,124,16
0,39,100,0
0,56,96,0
0,43,112,92
0,39,100,0
0,56,89,0
0,62,114,0
0,36,124,24
0,39,100,0
0,56,88,0
0,69,72,0
0,28,109,0
0,62,81,0
0,66,79,0
0,69,85,0
0,64,122,0
0,56,95,24
0,62,83,0
0,36,126,188
0,39,100,0
0,63,84,0
0,28,123,0
0,56,96,16
0,63,80,0
0,56,95,92
0,63,93,0
0,69,70,0
0,64,127,0
0,56,92,92
0,36,108,24
0,39,100,0
0,56,83,0
0,28,124,0
0,62,119,0
0,56,78,24
0,62,96,0
0,69,63,0
0,64,118,0
0,36,110,24
0,39,100,0
0,28,118,0
0,63,77,16
0,63,95,92
0,69,70,0
0,36,108,188
0,39,100,0
0,28,113,0
0,39,100,112
0,62,94,0
0,36,126,188
0,39,100,0
0,28,113,0
0,39,100,112
0,56,82,0
0,63,81,0
0,56,77,92
0,36,113,92
0,39,100,0
0,56,95,0
0,28,126,0
0,62,126,0
0,39,100,112
0,56,84,0
0,62,112,0
0,39,100,16
0,62,118,0
0,36,124,16
0,50,113,0
0,39,100,0
0,56,95,0
0,28,116,0
0,47,118,16
0,39,100,0
0,56,91,0
0,62,111,0
0,43,120,16
0,39,100,0
0,56,95,0
0,64,113,0
0,36,126,56
0,69,57,0
0,28,121,0
0,69,71,112
0,64,96,0
0,74,100,0
0,67,105,0
0,74,93,48
0,67,100,0
0,64,93,0
0,36,112,48
0,69,53,0
0,28,125,0
0,74,103,0
0,67,98,0
0,64,105,0
0,67,91,16
0,74,105,0
0,64,95,0
0,69,64,48
0,67,107,0
0,64,106,0
0,74,108,0
0,64,98,48
0,67,103,0
0,74,92,0
0,36,124,24
0,69,62,0
0,28,113,0
0,69,69,8
0,71,92,0
0,36,113,144
0,69,71,0
0,28,116,0
0,73,107,0
0,69,61,8
0,71,103,0
0,36,117,144
0,49,124,0
0,69,54,0
0,28,116,0
0,52,93,0
0,69,66,112
0,36,108,112
0,69,61,0
0,28,116,0
0,49,90,0
0,61,109,0
0,69,55,112
0,36,114,112
0,69,62,0
0,28,115,0
0,50,101,0
0,57,109,0
0,62,103,0
0,66,116,0
0,69,63,24
0,66,123,0
0,66,120,16
0,36,113,96
0,69,57,0
0,28,113,0
0,66,116,16
0,69,69,16
0,64,112,0
0,36,119,16
0,69,53,0
0,28,109,0
0,69,69,112
0,64,105,0
0,74,108,0
0,67,98,0
0,74,97,48
0,67,103,0
0,64,96,0
0,36,120,48
0,69,70,0
0,28,126,0
0,74,107,0
0,67,97,0
0,64,92,0
0,67,90,16
0,74,95,0
0,64,107,0
0,69,70,48
0,67,99,0
0,64,91,0
0,74,93,0
0,64,104,48
0,67,90,0
0,74,108,0
0,36,115,24
0,69,57,0
0,28,123,0
0,69,54,8
0,71,103,0
0,36,116,144
0,69,70,0
0,28,116,0
0,73,93,0
0,69,66,8
0,71,94,0
0,36,112,144
0,69,58,0
0,28,118,0
0,52,93,0
0,69,54,112
0,36,108,112
0,69,55,0
0,28,119,0
0,49,92,0
0,69,67,112
0,36,119,112
0,69,72,0
0,28,109,0
0,50,102,0
0,69,53,112
0,36,112,188
0,69,64,0
0,28,118,0
0,69,70,16
0,62,123,0
0,36,117,24
0,49,123,0
0,39,100,0
0,56,88,0
0,69,64,0
0,28,126,0
0,64,89,0
0,67,77,0
0,71,86,0
0,83,104,0
0,52,107,0
0,64,118,0
0,56,90,112
0,62,83,0
0,67,92,0
0,71,92,0
0,76,95,0
0,62,108,0
0,36,123,16
0,39,100,0
0,63,82,0
0,28,119,0
0,64,97,0
0,56,82,16
0,63,92,0
0,71,104,0
0,67,106,0
0,76,101,0
0,56,83,16
0,63,80,0
0,69,68,0
0,71,104,0
0,76,97,0
0,67,103,0
0,64,108,0
0,56,91,48
0,36,127,24
0,39,100,0
0,56,86,0
0,69,60,0
0,28,115,0
0,62,123,0
0,56,88,24
0,62,93,0
0,69,56,0
0,71,91,0
0,76,90,0
0,67,104,0
0,64,96,0
0,64,123,0
0,36,114,16
0,39,100,0
0,28,122,0
0,62,102,0
0,63,92,16
0,71,93,0
0,67,102,0
0,76,93,0
0,63,95,16
0,69,64,0
0,64,93,0
0,36,109,104
0,39,100,0
0,28,108,0
0,62,109,0
0,39,100,24
0,62,77,0
0,71,98,0
0,76,106,0
0,67,107,0
0,59,119,0
0,62,123,16
0,36,112,96
0,39,100,0
0,28,126,0
0,59,123,16
0,39,100,16
0,56,93,0
0,63,92,0
0,71,100,0
0,76,97,0
0,67,91,0
0,62,122,0
0,56,79,16
0,36,120,92
0,39,100,0
0,56,82,0
0,28,125,0
0,62,121,0
0,39,100,24
0,56,93,0
0,71,103,0
0,76,102,0
0,67,99,0
0,64,108,0
0,71,90,56
0,76,96,0
0,67,105,0
0,36,111,24
0,50,114,0
0,39,100,0
0,56,91,0
0,28,116,0
0,71,98,0
0,76,105,0
0,67,98,0
0,47,127,16
0,39,100,0
0,56,80,0
0,71,95,0
0,76,105,0
0,67,104,0
0,43,108,68
0,39,100,0
0,56,95,0
0,71,104,0
0,76,100,0
0,67,98,0
0,62,114,0
0,36,119,24
0,39,100,0
0,56,83,0
0,69,69,0
0,28,124,0
0,62,88,0
0,66,80,0
0,69,84,0
0,64,122,0
0,56,95,24
0,62,78,0
0,74,95,0
0,69,102,0
0,66,106,0
0,62,97,0
0,36,111,16
0,39,100,0
0,63,95,0
0,28,119,0
0,64,98,0
0,56,78,16
0,63,83,0
0,66,93,0
0,74,104,0
0,69,97,0
0,56,79,16
0,63,78,0
0,69,55,0
0,69,107,0
0,74,98,0
0,66,102,0
0,64,112,0
0,56,94,56
0,36,112,24
0,39,100,0
0,56,88,0
0,28,127,0
0,62,109,0
0,56,95,24
0,62,87,0
0,69,72,0
0,69,108,0
0,74,92,0
0,66,101,0
0,64,105,0
0,64,121,0
0,36,122,16
0,39,100,0
0,28,112,0
0,62,101,0
0,63,81,16
0,74,107,0
0,66,109,0
0,69,103,0
0,63,89,16
0,69,72,0
0,64,90,0
0,36,111,104
0,39,100,0
0,28,111,0
0,62,114,0
0,39,100,112
0,62,90,0
0,69,92,0
0,66,103,0
0,74,93,0
0,62,110,0
0,62,111,16
0,36,118,16
0,39,100,0
0,28,120,0
0,62,118,16
0,39,100,16
0,56,86,0
0,63,80,0
0,74,97,0
0,69,100,0
0,66,95,0
0,64,108,0
0,56,77,56
0,36,112,24
0,39,100,0
0,56,87,0
0,28,112,0
0,39,100,112
0,56,93,0
0,69,97,0
0,74,91,0
0,66,105,0
0,39,100,56
0,74,96,0
0,69,107,0
0,66,90,0
0,36,115,52
0,50,119,0
0,39,100,0
0,56,86,0
0,28,113,0
0,66,105,0
0,74,91,0
0,69,105,0
0,47,111,16
0,39,100,0
0,56,91,0
0,66,109,0
0,69,97,0
0,74,95,0
0,43,127,60
0,39,100,0
0,56,88,0
0,69,106,0
0,74,108,0
0,66,99,0
0,62,111,0
0,36,117,24
0,49,126,0
0,39,100,0
0,56,81,0
0,69,62,0
0,28,108,0
0,64,87,0
0,67,83,0
0,71,77,0
0,64,112,0
0,56,85,24
0,62,94,0
0,67,107,0
0,71,97,0
0,76,103,0
0,62,90,0
0,36,113,16
0,39,100,0
0,63,85,0
0,28,111,0
0,64,95,0
0,56,91,16
0,63,96,0
0,71,96,0
0,67,96,0
0,76,101,0
0,56,96,16
0,63,82,0
0,69,60,0
0,71,91,0
0,76,91,0
0,67,109,0
0,64,120,0
0,56,80,48
0,36,125,24
0,39,100,0
0,56,96,0
0,69,57,0
0,28,127,0
0,62,112,0
0,56,89,24
0,62,85,0
0,69,69,0
0,71,108,0
0,76,93,0
0,67,107,0
0,64,108,0
0,64,126,0
0,36,118,16
0,39,100,0
0,28,120,0
0,62,93,0
0,63,90,16
0,71,107,0
0,67,107,0
0,76,109,0
0,63,91,16
0,69,60,0
0,64,103,0
0,36,117,104
0,39,100,0
0,28,119,0
0,62,119,0
0,39,100,24
0,62,83,0
0,71,102,0
0,76,98,0
0,67,91,0
0,59,121,0
0,62,125,16
0,36,115,16
0,39,100,0
0,28,108,0
0,62,117,16
0,39,100,16
0,56,90,0
0,63,91,0
0,71,107,0
0,76,102,0
0,67,103,0
0,62,113,0
0,56,88,16
0,62,121,0
0,36,124,16
0,39,100,0
0,56,78,0
0,28,122,0
0,62,119,0
0,39,100,24
0,56,89,0
0,71,94,0
0,76,93,0
0,67,91,0
0,64,120,0
0,71,107,56
0,76,90,0
0,67,108,0
0,36,111,24
0,50,113,0
0,39,100,0
0,56,91,0
0,28,110,0
0,71,90,0
0,76,90,0
0,67,97,0
0,47,121,16
0,39,100,0
0,56,91,0
0,71,105,0
0,76,95,0
0,67,102,0
0,43,112,68
0,39,100,0
0,56,85,0
0,71,107,0
0,76,103,0
0,67,109,0
0,62,117,0
0,36,126,24
0,39,100,0
0,56,88,0
0,69,57,0
0,28,123,0
0,62,82,0
0,66,76,0
0,69,85,0
0,64,116,0
0,56,95,24
