track,note,velocity,time
3,28,114,7259
3,40,84,25
3,28,115,121
3,40,87,5
3,28,112,105
3,40,80,9
3,28,110,123
3,40,83,9
3,28,103,111
3,40,87,13
3,28,109,105
3,40,84,19
3,28,106,115
3,40,82,15
3,28,101,119
3,40,80,9
3,28,112,103
3,40,83,9
3,28,107,111
3,40,87,9
3,28,108,107
3,40,81,13
3,28,102,115
3,40,86,23
3,28,100,117
3,40,86,15
3,28,109,117
3,40,87,15
3,28,103,111
3,40,88,13
3,28,101,115
3,40,79,17
3,28,109,123
3,40,86,17
3,28,104,113
3,40,79,7
3,28,104,123
3,40,79,9
3,28,104,115
3,40,84,19
3,28,102,103
3,40,78,19
3,28,100,123
3,40,85,21
3,28,107,109
3,40,78,7
3,28,106,123
3,40,78,21
3,28,105,113
3,40,82,29
3,28,107,113
3,40,80,29
3,28,105,109
3,40,81,29
3,28,105,109
3,40,86,29
3,28,107,117
3,40,82,27
3,28,100,107
3,40,85,17
3,28,105,115
3,40,82,29
3,28,105,105
3,40,84,5
3,28,102,101
3,40,78,25
3,28,102,115
3,40,87,5
3,28,100,119
3,40,86,29
3,28,103,103
3,40,78,7
3,28,101,119
3,40,84,25
3,28,107,117
3,40,86,7
3,28,105,111
3,40,86,7
3,28,104,109
3,40,85,25
3,28,108,117
3,40,81,11
3,28,107,103
3,40,78,21
3,28,105,111
3,40,79,13
3,28,106,121
3,40,79,11
3,28,102,117
3,40,83,15
3,28,108,119
3,40,84,29
3,28,105,105
3,40,78,27
3,28,102,123
3,40,78,11
3,28,100,117
3,40,79,21
3,28,100,107
3,40,80,29
3,28,108,113
3,40,79,17
3,28,101,107
3,40,86,25
3,28,109,117
3,40,85,5
3,28,100,113
3,40,78,5
3,28,101,123
3,40,85,15
3,28,106,103
3,40,80,19
3,28,105,111
3,40,80,7
3,28,109,107
3,40,82,9
3,28,106,109
3,40,84,17
3,28,106,107
3,40,86,25
3,28,108,123
3,40,78,29
3,28,102,109
3,40,84,25
3,28,101,103
3,40,86,5
3,28,104,103
3,40,80,7
3,28,102,103
3,40,80,5
3,28,100,111
3,40,80,23
3,28,108,105
3,40,80,25
3,28,108,107
3,40,87,21
3,28,107,119
3,40,80,13
3,28,100,111
3,40,81,13
3,28,104,121
3,40,88,29
3,28,102,103
3,40,84,5
3,28,107,121
3,40,78,17
3,28,101,121
3,40,82,21
3,28,100,105
3,40,86,17
3,28,104,109
3,40,86,17
3,28,103,109
3,40,78,17
3,28,101,123
3,40,85,5
3,28,105,111
3,40,87,17
3,28,108,111
3,40,80,19
3,28,109,103
3,40,81,27
3,28,100,103
3,40,86,13
3,28,100,117
3,40,78,27
3,28,102,123
3,40,81,19
3,28,104,123
3,40,80,21
3,28,105,107
3,40,85,5
3,28,103,105
3,40,82,27
3,28,100,109
3,40,86,7
3,28,104,121
3,40,86,15
3,28,105,105
3,40,79,5
3,28,106,121
3,40,85,9
3,28,101,107
3,40,79,11
3,28,108,123
3,40,83,7
3,28,107,115
3,40,87,23
3,28,106,107
3,40,80,11
3,28,106,103
3,40,79,25
3,28,101,117
3,40,81,13
3,28,102,107
3,40,78,29
3,28,105,103
3,40,83,23
3,28,106,113
3,40,79,23
3,28,102,111
3,40,85,5
3,28,106,105
3,40,80,9
3,28,101,121
3,40,78,29
3,28,103,121
3,40,87,27
3,28,106,115
3,40,84,27
3,28,109,121
3,40,81,13
3,28,105,113
3,40,81,23
3,28,105,123
3,40,87,11
3,28,103,115
3,40,83,23
3,28,108,107
3,40,80,25
3,28,104,111
3,40,85,11
3,28,108,103
3,40,86,19
3,28,107,123
3,40,81,11
3,28,104,103
3,40,85,15
3,28,102,111
3,40,86,15
3,28,107,121
3,40,80,5
3,28,109,123
3,40,84,15
3,28,102,105
3,40,86,23
3,28,105,103
3,40,87,15
3,28,108,117
3,40,86,11
3,28,102,103
3,40,81,25
3,28,104,103
3,40,79,17
3,28,105,103
3,40,85,5
3,28,109,111
3,40,87,15
3,28,107,113
3,40,87,15
3,28,106,123
3,40,84,11
3,28,100,123
3,40,82,19
3,28,102,107
3,40,82,7
3,28,108,123
3,40,81,23
3,28,107,109
3,40,79,25
3,28,101,117
3,40,85,27
3,28,107,123
3,40,85,17
3,28,105,115
3,40,78,27
3,28,105,103
3,40,83,21
3,28,106,115
3,40,88,7
3,28,107,121
3,40,83,13
3,28,103,103
3,40,79,11
3,28,101,121
3,40,83,19
3,28,108,113
3,40,85,7
3,28,101,117
3,40,81,21
3,40,112,113
3,38,127,2997
3,36,124,3003
3,38,112,2615
3,40,86,17
3,31,109,19
3,32,78,23
3,33,103,5
3,33,63,179
3,33,74,143
3,33,87,167
3,33,102,175
3,28,101,111
3,40,86,7
3,28,109,105
3,40,79,7
3,28,102,121
3,40,81,9
3,28,101,121
3,40,86,9
3,28,104,111
3,40,81,23
3,28,102,103
3,40,78,7
3,28,102,113
3,40,82,5
3,28,106,107
3,40,83,7
3,28,102,119
3,40,87,13
3,28,104,107
3,40,81,29
3,28,105,121
3,40,80,5
3,28,100,117
3,40,79,5
3,28,109,117
3,40,85,13
3,28,108,113
3,40,82,21
3,28,102,111
3,40,83,29
3,28,101,113
3,40,78,7
3,28,105,121
3,40,80,25
3,28,108,111
3,40,85,15
3,28,102,123
3,40,83,5
3,28,102,113
3,40,79,5
3,28,105,113
3,40,80,11
3,28,107,105
3,40,83,13
3,28,106,121
3,40,86,5
3,28,103,123
3,40,85,27
3,28,108,105
3,40,81,25
3,28,109,103
3,40,79,23
3,28,101,105
3,40,86,13
3,28,106,113
3,40,83,15
3,28,109,103
3,40,82,27
3,28,106,109
3,40,78,17
3,28,100,107
3,40,78,19
3,28,100,115
3,40,79,23
3,28,108,119
3,40,78,19
3,28,104,109
3,40,82,7
3,28,109,121
3,40,86,9
3,28,108,123
3,40,80,17
3,28,100,115
3,40,79,13
3,28,103,107
3,40,85,15
3,28,101,115
3,40,87,27
3,28,108,121
3,40,79,25
3,28,104,105
3,40,79,13
3,28,100,111
3,40,79,27
3,28,104,109
3,40,83,27
3,28,105,105
3,40,86,15
3,28,104,113
3,40,78,29
3,28,105,105
3,40,80,13
3,28,109,111
3,40,80,5
3,28,107,123
3,40,83,17
3,28,101,111
3,40,81,13
3,28,105,117
3,40,79,9
3,28,103,119
3,40,82,19
3,28,106,107
3,40,79,19
3,28,100,123
3,40,87,29
3,28,100,109
3,40,82,17
3,28,109,119
3,40,86,15
3,28,102,105
3,40,78,27
3,28,109,119
3,40,82,27
3,28,106,111
3,40,80,15
3,28,104,111
3,40,82,21
3,28,108,113
3,40,87,7
3,28,104,105
3,40,84,19
3,28,105,123
3,40,78,5
3,28,100,103
3,40,80,9
3,28,102,115
3,40,81,15
3,28,104,3189
3,40,79,9
3,28,102,117
3,40,78,23
3,28,104,113
3,40,80,13
3,28,108,107
3,40,87,13
3,28,108,111
3,40,80,23
3,28,106,121
3,40,81,23
3,28,104,103
3,40,87,9
3,28,106,113
3,40,82,17
3,28,107,113
3,40,81,5
3,28,105,105
3,40,87,21
3,28,103,107
3,40,81,13
3,28,104,103
3,40,84,25
3,28,104,103
3,40,83,25
3,28,107,115
3,40,84,9
3,28,101,109
3,40,84,27
3,28,105,111
3,40,85,19
3,28,109,105
3,40,82,7
3,28,107,119
3,40,84,25
3,28,106,109
3,40,78,9
3,28,104,115
3,40,85,17
3,28,107,123
3,40,85,15
3,28,108,119
3,40,81,9
3,28,100,113
3,40,80,29
3,28,109,117
3,40,87,23
3,28,109,105
3,40,78,27
3,28,104,105
3,40,78,29
3,28,109,121
3,40,83,19
3,28,103,115
3,40,78,27
3,28,108,121
3,40,81,29
3,28,106,119
3,40,79,29
3,28,106,117
3,40,84,25
3,28,104,113
3,40,84,7
3,28,103,119
3,40,78,23
3,28,102,109
3,40,87,19
3,28,108,103
3,40,84,25
3,28,107,109
3,40,82,7
3,28,101,103
3,40,80,21
3,28,100,119
3,40,87,21
3,28,108,109
3,40,81,17
3,28,100,105
3,40,85,5
3,28,101,109
3,40,80,25
3,28,109,117
3,40,79,23
3,28,101,109
3,40,78,7
3,28,105,123
3,40,82,19
3,28,106,119
3,40,78,23
3,28,107,123
3,40,80,19
3,28,102,113
3,40,81,17
3,28,102,121
3,40,86,25
3,28,108,103
3,40,80,15
3,28,102,109
3,40,81,23
3,28,107,119
3,40,82,25
3,28,104,119
3,40,86,15
3,28,100,109
3,40,84,15
3,28,104,119
3,40,78,5
3,28,108,115
3,40,80,27
3,28,109,123
3,40,86,19
3,28,102,107
3,40,86,23
3,28,110,117
3,40,81,27
3,28,102,119
3,40,85,29
3,28,101,105
3,40,83,29
3,28,110,121
3,40,85,29
3,28,109,107
3,40,87,7
3,28,101,117
3,40,85,29
3,28,108,115
3,40,82,23
3,28,101,101
3,40,86,7
3,28,108,123
3,40,87,13
3,28,103,111
3,40,83,5
3,28,104,103
3,40,80,15
3,28,103,119
3,40,79,21
3,28,109,119
3,40,85,11
3,28,100,107
3,40,85,29
3,28,107,123
3,40,81,11
3,28,103,119
3,40,88,23
3,28,106,109
3,40,85,15
3,28,109,103
3,40,84,7
3,28,100,103
3,40,83,5
3,28,107,105
3,40,82,25
3,28,101,113
3,40,80,19
3,28,102,109
3,40,87,9
3,28,102,113
3,40,81,23
3,28,105,3187
3,40,87,27
3,28,101,103
3,40,83,11
3,28,106,123
3,40,86,17
3,28,107,105
3,40,82,5
3,28,101,109
3,40,83,17
3,28,104,121
3,40,79,15
3,28,104,107
3,40,78,27
3,28,103,109
3,40,79,7
3,28,104,123
3,40,83,23
3,28,109,111
3,40,79,13
3,28,103,107
3,40,85,17
3,28,103,117
3,40,82,23
3,28,100,113
3,40,78,7
3,28,105,121
3,40,79,29
3,28,105,109
3,40,85,9
3,28,105,117
3,40,83,27
3,28,108,121
3,40,83,21
3,28,109,117
3,40,80,23
3,28,107,109
3,40,80,11
3,28,104,123
3,40,82,13
3,28,103,103
3,40,86,25
3,28,101,121
3,40,78,17
3,28,101,119
3,40,87,17
3,28,107,123
3,40,81,9
3,28,105,119
3,40,84,25
3,28,108,103
3,40,84,23
3,28,105,111
3,40,79,9
3,28,109,107
3,40,79,5
3,28,108,105
3,40,85,29
3,28,100,107
3,40,84,9
3,28,100,119
3,40,81,5
3,28,107,107
3,40,79,9
3,28,101,119
3,40,83,15
3,28,103,121
3,40,78,17
3,28,105,117
3,40,87,13
3,28,104,115
3,40,81,11
3,28,100,123
3,40,80,23
3,28,108,103
3,40,83,15
3,28,100,115
3,40,84,29
3,28,101,119
3,40,86,13
3,28,105,107
3,40,79,25
3,28,102,107
3,40,80,15
3,28,104,111
3,40,84,7
3,28,108,113
3,40,84,7
3,28,100,121
3,40,80,13
3,28,105,115
3,40,84,15
3,28,108,115
3,40,84,21
3,28,107,123
3,40,79,23
3,28,104,111
3,40,78,11
3,28,103,113
3,40,87,23
3,28,100,123
3,40,87,23
3,28,108,103
3,40,78,27
3,28,102,103
3,40,83,7
3,28,107,105
3,40,84,13
3,28,101,121
3,40,78,9
3,28,102,123
3,40,85,21
3,28,105,111
3,40,79,29
3,28,103,123
3,40,87,19
3,28,100,111
3,40,82,15
3,28,101,113
3,40,78,23
3,28,106,117
3,40,86,11
3,28,101,123
3,40,81,17
3,28,108,119
3,40,85,3
3,28,105,103
3,40,82,13
3,28,123,115
3,28,127,199
3,28,126,205
3,28,122,205
3,28,125,199
3,28,123,197
3,28,124,199
3,28,126,203
3,28,127,199
3,28,127,197
3,28,124,201
3,28,125,219
3,28,123,199
3,28,126,215
3,28,126,209
3,28,127,201
4,76,61,1095
4,71,69,0
4,67,62,0
4,64,71,0
4,62,74,0
4,74,61,7
4,69,63,0
4,66,69,0
4,76,72,7
4,71,68,0
4,67,73,0
4,64,71,0
4,62,69,0
4,74,70,7
4,69,62,0
4,66,62,0
4,76,69,7
4,71,68,0
4,67,67,0
4,64,73,0
4,62,66,0
4,74,70,7
4,69,72,0
4,66,61,0
4,76,64,7
4,71,70,0
4,67,73,0
4,64,80,0
4,62,82,0
4,74,63,7
4,69,63,0
4,66,80,0
4,76,66,7
4,71,67,0
4,67,72,0
4,64,73,0
4,62,61,0
4,74,67,7
4,69,64,0
4,66,76,0
4,76,65,6151
4,71,72,0
4,67,67,0
4,64,65,0
4,62,65,0
4,74,77,7
4,69,73,0
4,66,64,0
4,76,65,7
4,71,68,0
4,67,73,0
4,64,62,0
4,62,71,0
4,74,68,7
4,69,68,0
4,66,64,0
4,67,73,10759
4,52,66,0
4,28,73,0
4,66,73,13
4,38,124,0
4,26,104,0
4,36,123,9
4,24,79,0
4,64,70,16
4,61,70,7
4,45,114,0
4,33,127,0
4,71,69,12295
4,67,61,0
4,64,67,0
4,52,64,0
4,69,72,7
4,66,71,0
4,62,61,0
4,50,64,0
4,67,72,7
4,64,70,0
4,60,74,0
4,48,68,0
4,69,70,7
4,66,65,0
4,62,67,0
4,50,73,0
4,52,80,35
4,71,74,9223
4,67,75,0
4,64,71,0
4,52,66,0
4,69,72,7
4,66,75,0
4,62,63,0
4,50,74,0
4,71,71,7
4,67,67,0
4,64,68,0
4,52,69,0
4,69,74,7
4,66,68,0
4,62,74,0
4,50,63,0
4,62,76,7
4,64,68,7
4,59,74,7
4,62,72,7
4,64,72,7
4,59,74,7
4,62,68,7
4,64,56,7
4,59,78,7
4,71,65,3079
4,67,74,0
4,64,62,0
4,52,63,0
4,71,72,7
4,67,72,0
4,64,70,0
4,52,69,0
4,69,62,7
4,66,64,0
4,62,64,0
4,50,61,0
4,71,66,7
4,67,64,0
4,64,64,0
4,52,72,0
4,69,66,7
4,66,67,0
4,62,69,0
4,50,73,0
4,76,95,3079
4,64,101,0
4,74,99,19
4,62,96,0
4,79,93,7
4,81,102,7
4,64,97,23
4,40,92,0
5,74,114,2587
5,74,111,99
5,74,116,123
5,74,107,7
5,76,114,103
5,76,115,107
5,76,111,179
5,71,105,3
5,76,107,39
5,76,113,955
5,76,115,23
5,76,110,1359
5,76,116,7
5,76,114,627
5,76,113,11
5,74,120,547
5,76,120,7
5,76,120,379
5,74,120,131
5,76,120,188
5,74,120,463
5,74,119,91
5,74,120,39
5,74,101,111
5,74,120,39
5,71,120,35
5,74,120,31
5,76,120,184
5,74,120,275
5,76,120,188
5,76,120,395
5,74,120,131
5,76,120,188
5,74,120,451
5,74,113,51
5,74,120,15
5,74,119,67
5,76,120,23
5,74,92,579
5,76,120,184
5,76,109,359
5,74,126,127
5,76,114,188
5,74,105,427
5,74,117,59
5,74,106,27
5,74,119,83
5,74,106,35
5,71,112,39
5,74,127,27
5,76,110,176
5,74,99,279
5,76,124,192
5,76,109,387
5,74,121,131
5,76,118,192
5,74,120,1207
5,74,108,35
5,74,117,23
5,74,112,55
5,76,125,23
5,78,123,95
5,78,110,55
5,78,126,43
5,78,111,23
5,76,127,43
5,74,111,611
5,76,122,7
5,76,112,379
5,74,127,131
5,76,118,188
5,74,127,463
5,74,112,91
5,74,124,39
5,74,94,111
5,74,127,39
5,71,111,35
5,74,123,31
5,76,115,184
5,74,112,275
5,76,125,188
5,76,112,395
5,74,125,131
5,76,113,188
5,74,120,451
5,74,107,51
5,74,124,15
5,74,109,67
5,76,122,23
5,74,111,579
5,76,127,184
5,76,108,359
5,74,124,127
5,76,123,188
5,74,119,427
5,74,106,59
5,74,124,27
5,74,111,83
5,74,127,35
5,71,113,39
5,74,125,27
5,76,124,176
5,74,111,279
5,76,121,192
5,76,117,387
5,74,123,131
5,76,116,192
5,74,121,1207
5,74,106,35
5,74,121,23
5,74,113,55
5,76,125,23
5,76,110,2583
5,71,113,1407
5,71,110,43
5,73,125,188
5,74,113,35
5,76,127,180
5,71,112,7
5,71,127,1459
5,76,123,111
5,76,112,31
5,76,127,23
5,76,111,275
5,74,119,27
5,76,110,23
5,79,126,67
5,76,111,31
5,71,109,35
5,76,124,123
5,76,114,47
5,76,111,23
5,76,123,275
5,74,105,19
5,76,119,108
5,76,112,79
5,76,125,15
5,76,118,151
