track,note,velocity,time
3,73,84,960
3,73,67,60
3,73,68,105
3,74,75,20
3,73,71,110
3,71,75,80
3,69,76,15
3,66,72,355
3,69,78,235
3,71,82,245
3,69,71,460
3,73,71,270
3,73,81,70
3,74,68,0
3,73,81,125
3,71,75,100
3,69,77,5
3,73,88,460
3,73,78,60
3,73,73,70
3,74,83,230
3,73,72,0
3,66,86,175
3,73,84,0
3,73,84,55
3,74,80,5
3,73,86,235
3,73,84,195
3,74,67,5
3,73,82,115
3,73,86,170
3,73,75,65
3,73,75,95
3,71,76,15
3,69,75,20
3,73,82,25
3,73,82,35
3,74,84,235
3,76,84,10
3,73,77,1185
3,73,99,235
3,71,81,0
3,69,84,15
3,71,87,0
3,66,75,5
3,73,99,1440
3,73,99,175
3,73,102,140
3,69,86,10
3,76,93,1185
3,76,99,70
3,73,86,10
3,76,91,5
3,78,88,250
3,76,88,5
3,73,86,395
3,76,86,0
3,73,87,20
3,76,84,0
3,78,82,5
3,76,99,225
3,73,88,305
3,73,99,45
3,73,82,30
3,73,86,55
3,69,87,20
3,76,93,1660
3,76,99,90
3,73,87,20
3,76,91,0
3,78,99,5
3,76,102,15
3,73,104,315
3,76,96,340
3,73,86,10
3,76,93,235
3,78,76,5
3,76,104,235
3,73,102,255
3,71,82,10
3,69,86,15
3,69,93,445
3,69,93,180
3,69,93,405
3,71,88,235
3,66,86,5
3,73,93,6260
3,73,84,50
3,73,86,55
3,73,83,80
3,73,88,90
3,74,82,55
3,73,96,50
3,71,82,40
3,69,80,55
3,73,88,75
3,73,82,55
3,73,91,15
3,74,87,115
3,73,93,25
3,74,99,35
3,76,84,30
3,73,82,10
3,73,84,45
3,73,84,50
3,74,87,85
3,73,86,75
3,74,84,50
3,73,86,65
3,71,87,30
3,69,86,40
3,69,88,75
3,69,86,30
3,69,89,70
3,69,99,95
3,71,99,45
3,73,93,20
3,78,88,30
3,78,99,70
3,76,93,50
3,78,99,40
3,76,96,130
3,74,78,95
3,73,88,25
3,76,96,55
3,76,91,140
3,78,87,10
3,76,87,235
3,74,86,5
3,73,86,5
3,73,88,100
3,74,83,10
3,73,78,0
3,74,83,5
3,73,81,0
3,74,84,5
3,76,93,115
3,73,86,725
3,74,75,0
3,73,88,230
3,74,76,235
3,73,91,220
3,74,81,5
3,73,99,230
3,74,76,5
3,73,91,235
3,71,86,10
3,69,81,10
3,66,99,10
3,66,87,55
3,66,86,55
3,69,84,30
3,73,82,15
3,76,87,15
3,76,84,60
3,78,71,15
3,76,83,20
3,76,88,50
3,78,67,5
3,76,82,5
3,73,75,5
3,71,77,10
3,69,84,115
3,71,88,1170
3,66,84,0
3,76,102,1660
3,76,99,115
3,73,89,5
3,76,99,5
3,78,86,5
3,76,93,230
3,73,86,280
3,76,99,235
3,73,86,15
3,76,96,230
3,78,80,0
3,76,87,235
3,73,86,435
3,73,99,85
3,73,96,70
3,69,96,25
3,76,88,1475
3,76,93,65
3,73,86,0
3,76,99,5
3,78,80,0
3,76,91,250
3,73,88,15
3,76,99,320
3,73,84,235
3,76,88,0
3,78,78,15
3,76,86,235
3,73,99,945
3,71,82,0
3,69,84,20
3,69,93,130
3,69,89,155
3,71,93,395
3,66,84,710
3,73,87,5785
3,73,80,100
3,73,83,55
3,74,78,115
3,73,75,110
3,71,72,15
3,69,73,15
3,73,83,170
3,74,72,0
3,73,75,10
3,74,78,30
3,73,73,235
3,71,73,0
3,69,73,15
3,73,83,125
3,76,82,130
3,78,76,5
3,76,84,10
3,73,83,140
3,76,82,15
3,78,75,175
3,76,82,10
3,73,91,495
3,76,84,20
3,78,75,10
3,76,82,25
3,78,77,250
3,76,76,220
3,78,77,115
3,76,83,235
3,73,93,955
3,73,104,50
3,74,82,10
3,73,83,240
3,71,76,110
3,69,84,15
3,71,83,5
3,66,84,0
3,73,99,1020
3,73,99,175
3,73,99,75
3,69,91,15
3,76,109,2640
3,76,116,75
3,73,102,10
3,76,111,0
3,78,107,0
3,76,109,0
3,73,104,325
3,76,109,5
3,73,98,5
3,76,113,5
3,78,106,5
3,76,111,235
3,73,109,545
3,73,116,90
3,73,113,90
3,69,119,25
3,76,104,1535
3,76,111,115
3,73,97,10
3,76,106,235
3,78,92,5
3,76,108,5
3,73,103,415
3,76,109,5
3,73,98,5
3,76,111,5
3,78,101,235
3,76,107,0
3,73,104,315
3,76,111,230
3,73,98,15
3,76,111,235
3,78,103,0
3,76,108,15
3,81,107,10
3,76,107,755
3,76,107,70
3,73,92,10
3,76,106,10
3,78,93,235
3,76,107,230
3,73,102,430
3,76,107,15
3,73,95,5
3,76,107,0
3,78,95,20
3,76,108,5
3,73,127,85
3,71,127,120
3,69,127,0
3,69,127,840
3,69,127,120
3,71,127,480
3,73,104,0
4,37,88,30
4,37,99,180
4,37,96,100
4,38,84,70
4,40,89,1390
4,42,88,0
4,38,104,0
4,37,86,1920
4,38,93,20
4,40,96,0
4,38,87,1920
4,38,88,120
4,38,89,5
4,40,86,340
4,38,104,0
4,38,93,40
4,38,96,80
4,38,93,60
4,42,102,960
4,40,88,20
4,40,96,60
4,40,96,60
4,42,96,0
4,40,96,20
4,37,111,1440
4,42,104,0
4,38,93,0
4,38,91,60
4,37,99,0
4,38,96,0
4,42,88,1920
4,37,83,700
4,33,76,0
4,30,93,0
4,38,107,20
4,37,89,0
4,37,96,40
4,38,86,0
4,40,81,20
4,42,76,480
4,38,87,20
4,38,88,5
4,38,67,115
4,37,104,480
4,38,86,20
4,38,91,80
4,40,91,720
4,42,99,20
4,37,87,0
4,38,93,0
4,38,91,60
4,38,87,40
4,38,93,20
4,37,107,0
4,37,102,40
4,37,91,40
4,37,107,60
4,38,104,0
4,38,102,40
4,38,96,40
4,38,88,40
4,40,104,20
4,37,107,0
4,38,96,480
4,38,88,80
4,38,89,20
4,38,102,40
4,40,102,480
4,40,105,5
4,40,93,60
4,40,88,20
4,38,102,0
4,38,107,140
4,38,96,120
4,38,96,100
4,38,104,7680
4,57,95,1680
4,59,82,20
4,49,88,0
4,47,86,20
4,49,83,1920
4,42,99,20
4,38,88,1920
4,37,102,1880
4,37,89,120
4,37,93,180
4,37,102,100
4,38,99,20
4,38,75,80
4,38,76,40
4,38,81,60
4,38,83,60
4,38,82,60
4,38,86,60
4,38,84,40
4,38,96,60
4,38,93,60
4,42,99,40
4,37,87,0
4,38,93,0
4,38,91,60
4,38,87,40
4,38,93,20
4,37,107,0
4,37,102,40
4,37,91,40
4,37,107,60
4,38,104,0
4,38,102,40
4,38,96,40
4,38,88,40
4,40,104,20
4,37,107,0
4,38,96,480
4,38,88,80
4,38,89,20
4,38,102,40
4,40,102,480
4,40,105,5
4,40,93,60
4,40,88,20
4,38,102,0
4,38,107,140
4,38,96,120
4,38,96,100
4,42,104,0
4,38,93,0
4,38,96,160
4,38,99,140
4,42,107,0
4,38,89,0
4,38,93,160
4,42,111,0
4,37,87,0
4,37,99,20
4,30,86,20
4,35,87,20
4,37,88,120
4,40,84,0
4,42,84,0
4,47,83,1680
4,49,76,0
4,42,82,0
4,37,84,20
4,37,84,40
4,30,83,20
4,37,96,1800
4,42,86,0
4,35,86,1560
4,37,77,0
4,40,87,0
4,30,87,0
4,35,93,1440
4,37,84,100
4,40,83,0
4,42,87,0
4,37,80,20
4,37,84,40
4,30,89,20
5,30,89,0
5,37,97,930
5,37,109,180
5,37,113,200
5,38,78,0
5,40,89,45
5,42,89,480
5,38,72,1900
5,37,62,0
5,38,65,1920
5,40,73,20
5,38,77,1920
5,40,78,0
5,38,81,1920
5,38,81,140
5,38,92,100
5,38,89,100
5,42,81,0
5,40,74,1895
5,42,81,1895
5,40,74,0
5,37,61,0
5,42,77,480
5,38,72,1900
5,37,70,1900
5,38,72,0
5,42,78,0
5,38,77,1920
5,37,80,1900
5,38,73,1900
5,40,89,1420
5,42,86,0
5,38,77,20
5,37,67,1920
5,38,66,0
5,40,78,1680
5,42,101,0
5,38,92,1920
5,37,97,0
5,38,77,0
5,40,89,0
5,37,97,0
5,38,94,480
5,40,89,1900
5,38,101,40
5,38,101,180
5,38,97,120
5,38,92,160
5,30,97,960
5,42,101,17280
5,38,92,1920
5,37,97,0
5,38,77,0
5,40,89,0
5,37,97,0
5,38,94,480
5,40,89,1900
5,38,101,40
5,38,101,180
5,38,97,120
5,38,92,160
5,42,89,960
5,38,73,20
5,38,78,160
5,38,83,140
5,42,89,1200
5,38,76,40
5,38,78,160
5,30,92,0
6,52,87,990
6,52,87,180
6,52,95,180
6,54,63,20
6,56,64,25
6,57,60,0
6,59,64,0
6,62,52,1920
6,59,55,0
6,62,67,0
6,59,61,1920
6,57,62,1900
6,57,71,180
6,57,67,240
6,57,71,160
6,54,63,960
6,52,62,1875
6,54,45,1895
6,52,58,0
6,61,44,480
6,57,46,0
6,56,37,1920
6,57,46,0
6,61,49,20
6,57,47,0
6,56,47,1920
6,57,35,1900
6,59,48,0
6,61,51,20
6,57,44,1920
6,56,42,0
6,57,46,60
6,59,48,140
6,57,79,0
6,59,76,0
6,57,82,1920
6,59,68,0
6,57,69,1920
6,59,62,0
6,57,69,20
6,57,63,180
6,57,57,140
6,57,53,160
6,66,62,15360
6,62,52,0
6,64,64,0
6,64,67,180
6,64,64,180
6,64,68,160
6,66,61,180
6,57,79,3840
6,59,76,0
6,57,82,1920
6,59,68,0
6,57,69,1920
6,59,62,0
6,57,69,20
6,57,63,180
6,57,57,140
6,57,53,160
6,57,69,5
6,57,68,1915
6,57,64,235
6,57,68,160
6,57,68,5
6,57,71,1915
6,57,63,235
6,57,64,5
6,54,42,13435
7,56,82,1030
7,56,87,180
7,56,87,180
7,57,66,20
7,59,66,25
7,61,60,0
7,62,56,1920
7,64,58,40
7,66,67,0
7,64,53,1920
7,66,58,0
7,64,53,1920
7,62,62,1880
7,62,69,180
7,62,64,240
7,62,64,160
7,57,64,960
7,56,62,1875
7,57,55,1895
7,56,45,1900
7,69,47,480
7,66,51,1920
7,64,49,1880
7,66,49,0
7,69,56,0
7,66,43,0
7,64,53,1920
7,66,52,0
7,68,51,0
7,69,46,0
7,66,43,0
7,64,53,1920
7,66,44,1900
7,68,46,0
7,61,99,240
7,62,82,0
7,64,71,0
7,62,79,0
7,64,67,0
7,62,68,1920
7,64,68,0
7,62,76,0
7,62,70,200
7,62,66,140
7,62,60,180
7,69,57,7680
7,68,52,0
7,66,53,1920
7,68,62,0
7,69,52,1920
7,66,53,0
7,68,64,1920
7,68,64,180
7,68,64,200
7,68,67,120
7,69,66,180
7,61,99,0
7,62,82,0
7,64,71,0
7,62,79,0
7,64,67,0
7,62,68,1920
7,64,68,0
7,62,76,0
7,62,70,200
7,62,66,140
7,62,60,180
7,61,58,0
7,62,62,0
7,62,55,160
7,62,64,180
7,61,53,0
7,62,52,0
7,62,55,160
7,61,51,0
7,57,42,13440
8,61,82,70
8,61,87,0
8,61,91,30
8,62,71,30
8,64,67,25
8,66,67,480
8,68,63,0
8,69,64,1920
8,68,68,1900
8,69,63,20
8,68,67,1920
8,69,56,1660
8,68,68,100
8,66,64,0
8,66,79,180
8,66,73,240
8,66,68,160
8,61,55,960
8,59,58,1875
8,61,63,1915
8,59,64,0
8,61,58,480
8,66,57,0
8,61,50,0
8,68,63,0
8,66,57,0
8,61,58,0
8,57,53,0
8,62,57,0
8,57,47,0
8,62,61,0
8,57,52,0
8,64,52,0
8,57,52,0
8,66,56,0
8,57,50,0
8,61,60,0
8,56,47,0
8,61,60,0
8,56,60,0
8,63,67,0
8,64,63,0
8,61,71,0
8,56,66,0
8,52,66,0
8,49,73,0
8,50,66,0
8,52,63,0
8,54,58,0
8,57,74,0
8,62,66,0
8,66,56,0
8,69,62,0
8,71,59,0
8,61,65,0
8,66,57,0
8,61,50,0
8,68,63,0
8,66,57,0
8,61,58,0
8,57,53,0
8,62,57,0
8,57,47,0
8,62,61,0
8,57,52,0
8,64,52,0
8,57,52,0
8,66,56,0
8,57,50,0
8,61,60,0
8,56,47,0
8,61,60,0
8,56,60,0
8,63,67,0
8,64,63,0
8,61,71,0
8,56,66,0
8,52,66,0
8,49,73,0
8,50,66,0
8,52,63,0
8,54,58,0
8,57,74,0
8,62,66,0
8,66,56,0
8,69,62,0
8,71,59,0
8,73,59,0
8,74,55,1920
8,76,46,0
8,74,48,1920
8,71,48,0
8,66,68,0
8,68,71,0
8,69,71,480
8,71,67,0
8,69,67,1920
8,68,73,0
8,69,66,1920
8,68,79,0
8,66,61,1920
8,66,55,140
8,66,49,140
8,66,49,160
8,73,55,7680
8,71,55,0
8,73,53,1680
8,74,52,0
8,71,61,0
8,73,47,1920
8,69,55,1900
8,73,64,1880
8,73,64,180
8,73,62,200
8,73,64,140
8,74,64,2100
8,76,64,960
8,66,68,960
8,68,71,0
8,69,71,480
8,71,67,0
8,69,67,1920
8,68,73,0
8,69,66,1920
8,68,79,0
8,66,61,1920
8,66,55,140
8,66,49,140
8,66,49,160
8,66,60,5
8,66,64,1915
8,66,57,235
8,66,64,140
8,66,55,5
8,66,62,1915
8,66,51,235
8,66,48,5
8,61,30,13435
9,83,75,1090
9,71,69,0
9,69,65,0
9,81,76,0
9,71,69,0
9,83,81,0
9,69,72,0
9,81,71,0
9,85,76,0
9,73,66,0
9,78,81,0
9,66,58,0
9,83,84,0
9,71,71,0
9,81,67,0
9,69,63,0
9,83,76,0
9,71,71,0
9,69,75,0
9,73,75,0
9,71,75,240
9,69,75,0
9,73,57,7680
9,85,54,0
9,74,39,1920
9,86,41,0
9,85,38,0
9,73,41,0
9,81,46,1900
9,69,31,0
9,80,38,5740
9,68,46,0
9,66,35,0
9,78,43,0
9,69,69,1380
9,71,69,60
9,73,69,0
9,74,77,40
9,76,81,40
9,78,85,40
9,80,89,40
9,81,93,40
9,83,97,40
9,85,88,40
9,73,82,0
9,78,88,0
9,66,81,0
9,80,80,1920
9,68,80,0
9,66,77,1900
9,78,81,0
9,76,89,1480
9,64,89,0
9,66,89,40
9,78,89,0
9,80,89,40
9,68,89,0
9,81,89,40
9,69,89,0
9,83,89,40
9,71,89,0
9,85,89,40
9,73,89,0
9,86,89,40
9,74,89,0
9,76,86,40
9,88,93,0
9,78,71,1900
9,90,80,0
9,80,60,0
9,92,77,0
9,81,80,1920
9,93,88,0
9,81,74,160
9,93,82,0
9,93,76,140
9,81,68,0
9,90,70,160
9,78,62,0
9,83,50,13440
9,85,55,0
9,81,51,1920
9,80,69,1880
9,80,71,200
9,80,60,180
9,80,69,140
9,88,73,3540
9,85,88,480
9,73,82,0
9,66,81,0
9,78,88,0
9,80,80,1920
9,68,80,0
9,66,77,1900
9,78,81,0
9,64,89,1480
9,76,89,0
9,66,89,40
9,78,89,0
9,68,89,40
9,80,89,0
9,81,89,40
9,69,89,0
9,83,89,40
9,71,89,0
9,85,89,40
9,73,89,0
9,74,89,40
9,86,89,0
9,76,86,40
9,88,93,0
9,78,71,1900
9,90,80,0
9,80,60,0
9,92,77,0
9,81,80,1920
9,93,88,0
9,93,82,160
9,81,74,0
9,81,68,140
9,93,76,0
9,93,70,160
9,81,62,0
9,93,63,5
9,81,58,0
9,81,50,1915
9,93,65,0
9,93,60,235
9,81,50,0
9,81,61,140
9,93,68,0
9,93,67,5
9,81,59,0
9,81,50,1915
9,93,66,0
9,93,66,235
9,81,47,0
9,92,57,3600
9,80,50,0
9,85,58,1880
9,73,46,0
9,90,50,1840
9,78,57,0
9,81,47,40
9,93,56,0
9,92,56,1920
9,80,40,0
9,85,55,1880
9,73,43,0
9,66,47,1840
9,78,53,0
10,42,94,200
10,30,127,0
10,73,72,7640
10,80,74,0
10,78,76,0
10,69,74,0
10,81,74,1920
10,80,76,0
10,76,77,240
10,73,74,20
10,74,65,120
10,73,74,0
10,69,76,0
11,59,78,530
11,59,78,420
11,51,120,0
11,59,120,0
11,57,120,0
11,55,95,0
11,35,99,0
11,59,97,0
11,59,101,880
11,35,99,400
11,59,101,80
11,59,105,860
11,35,99,380
11,59,94,100
11,59,97,860
11,35,88,380
11,59,97,100
11,59,94,860
11,35,102,380
11,59,105,180
11,59,97,860
11,35,99,380
11,59,101,240
11,59,97,860
11,35,102,380
11,59,92,160
11,59,94,860
11,49,112,400
11,35,86,0
