track,note,velocity,time
1,28,87,11888
1,28,87,94
1,28,87,98
1,28,87,94
1,28,87,98
1,28,87,94
1,28,87,98
1,28,87,94
1,28,87,98
1,28,87,94
1,28,87,98
1,28,87,94
1,28,87,98
1,28,87,94
1,28,87,98
1,28,87,94
1,28,87,98
1,28,87,94
1,28,87,98
1,28,87,94
1,28,87,98
1,28,87,94
1,28,87,98
1,28,87,94
1,28,87,98
1,28,87,94
1,28,87,98
1,28,87,94
1,28,87,98
1,28,87,94
1,28,87,98
1,28,87,94
1,28,87,98
1,28,87,94
1,28,87,98
1,28,87,94
1,28,87,98
1,28,87,94
1,28,87,98
1,28,87,94
1,28,87,98
1,28,87,94
1,28,87,98
1,28,87,94
1,28,87,98
1,28,87,94
1,28,87,98
1,28,87,94
1,28,87,98
1,28,87,94
1,28,87,98
1,28,87,94
1,28,87,98
1,28,87,94
1,28,87,98
1,28,87,94
1,28,87,98
1,28,87,94
1,28,87,98
1,28,87,94
1,28,87,98
1,28,87,94
1,28,87,98
1,28,87,94
1,28,87,98
1,28,87,288
1,28,87,288
1,28,87,288
1,28,87,288
1,28,87,288
1,28,87,288
1,28,87,288
1,28,87,288
1,28,87,288
1,28,87,288
1,28,87,288
1,28,87,288
1,28,87,288
1,28,87,288
1,28,87,288
1,28,87,288
1,28,87,288
1,28,87,288
1,28,87,288
1,28,87,288
1,28,87,288
1,28,87,288
1,28,87,288
1,28,87,288
1,28,87,288
1,28,87,288
1,28,87,288
1,28,87,288
1,28,87,288
1,28,87,288
1,28,87,288
1,28,87,288
1,28,87,94
1,28,87,98
1,28,87,94
1,28,87,98
1,28,87,94
1,28,87,98
1,28,87,94
1,28,87,98
1,28,87,94
1,28,87,98
1,28,87,94
1,28,87,98
1,28,87,94
1,28,87,98
1,28,87,94
1,28,87,98
1,28,87,94
1,28,87,98
1,28,87,94
1,28,87,98
1,28,87,94
1,28,87,98
1,28,87,94
1,28,87,98
1,28,87,94
1,28,87,98
1,28,87,94
1,28,87,98
1,28,87,94
1,28,87,98
1,28,87,94
1,28,87,98
1,28,87,288
1,28,87,288
1,28,87,288
1,28,87,288
1,28,87,288
1,28,87,288
1,28,87,288
1,28,87,288
1,28,87,288
1,28,87,288
1,28,87,288
1,28,87,288
1,28,87,288
1,28,87,288
1,28,87,288
1,28,87,288
1,28,87,288
1,28,87,288
1,28,87,288
1,28,87,288
1,28,87,288
1,28,87,288
1,28,87,288
1,28,87,288
1,28,87,288
1,28,87,288
1,28,87,288
1,28,87,288
1,28,87,288
1,28,87,288
1,28,87,288
1,28,87,288
1,28,87,94
1,28,87,98
1,28,87,94
1,28,87,98
1,28,87,94
1,28,87,98
1,28,87,94
1,28,87,98
1,28,87,94
1,28,87,98
1,28,87,94
1,28,87,98
1,28,87,94
1,28,87,98
1,28,87,94
1,28,87,98
1,28,87,94
1,28,87,98
1,28,87,94
1,28,87,98
1,28,87,94
1,28,87,98
1,28,87,94
1,28,87,98
1,28,87,94
1,28,87,98
1,28,87,94
1,28,87,98
1,28,87,94
1,28,87,98
1,28,87,94
1,28,87,98
1,28,87,94
1,28,87,98
1,28,87,94
1,28,87,98
1,28,87,94
1,28,87,98
1,28,87,94
1,28,87,98
1,28,87,94
1,28,87,98
1,28,87,94
1,28,87,98
1,28,87,94
1,28,87,98
1,28,87,94
1,28,87,98
1,28,87,94
1,28,87,98
1,28,87,94
1,28,87,98
1,28,87,94
1,28,87,98
1,28,87,94
1,28,87,12386
1,28,87,288
1,28,87,288
1,28,87,288
1,28,87,288
1,28,87,288
1,28,87,288
1,28,87,288
1,28,87,288
1,28,87,288
1,28,87,288
1,28,87,288
1,28,87,288
1,28,87,288
1,28,87,288
1,28,87,288
1,28,87,288
1,28,87,288
1,28,87,288
1,28,87,288
1,28,87,288
1,28,87,288
1,28,87,288
1,28,87,288
1,28,87,288
1,28,87,288
1,28,87,288
1,28,87,288
1,28,87,288
1,28,87,94
1,28,87,98
1,28,87,94
1,28,87,98
1,28,87,94
1,28,87,98
1,28,87,94
1,28,87,98
1,28,87,94
1,28,87,98
1,28,87,94
1,28,87,98
1,28,87,94
1,28,87,98
1,28,87,94
1,28,87,98
1,28,87,94
1,28,87,98
1,28,87,94
1,28,87,98
1,28,87,94
1,28,87,98
1,28,87,94
1,28,87,98
1,28,87,94
1,28,87,98
1,28,87,94
1,28,87,98
1,28,87,94
1,28,87,98
1,28,87,94
1,28,87,98
1,28,87,94
1,28,87,98
1,28,87,94
1,28,87,98
1,28,87,94
1,28,87,98
1,28,87,94
1,28,87,98
1,28,87,94
1,28,87,98
1,28,87,94
1,28,87,98
1,28,87,94
1,28,87,98
1,28,87,94
1,28,87,98
1,28,87,94
1,28,87,98
1,28,87,94
1,28,87,98
1,28,87,94
1,28,87,98
1,28,87,94
1,28,87,98
1,28,87,94
1,28,87,98
1,28,87,94
1,28,87,98
1,28,87,94
1,28,87,98
1,28,87,94
1,28,87,98
1,28,87,94
1,28,87,98
1,28,87,94
1,28,87,98
1,28,87,94
1,28,87,98
1,28,87,94
1,28,87,98
1,28,87,94
1,28,87,98
1,28,87,94
1,28,87,98
1,28,87,94
1,28,87,98
1,28,87,94
1,28,87,98
1,28,87,94
1,28,87,98
1,28,87,94
1,28,87,98
1,28,87,94
1,28,87,98
1,28,87,94
1,28,87,98
1,28,87,288
1,28,87,288
1,28,87,288
1,28,87,288
1,28,87,288
1,28,87,288
1,28,87,288
1,28,87,288
1,28,87,288
1,28,87,288
1,28,87,288
1,28,87,288
1,28,87,288
1,28,87,288
1,28,87,288
1,28,87,288
1,28,87,288
1,28,87,288
1,28,87,288
1,28,87,288
1,28,87,288
1,28,87,288
1,28,87,288
1,28,87,288
1,28,87,288
1,28,87,288
1,28,87,288
1,28,87,288
1,28,87,288
1,28,87,288
1,28,87,288
1,28,87,288
1,28,87,288
1,28,87,288
1,28,87,288
1,28,87,288
1,28,87,288
1,28,87,288
1,28,87,288
1,28,87,288
1,28,87,288
1,28,87,288
1,28,87,288
1,28,87,288
1,28,87,288
1,28,87,288
1,28,87,288
1,28,87,288
1,28,87,288
1,28,87,288
1,28,87,288
1,28,87,288
1,28,87,288
1,28,87,288
1,28,87,288
1,28,87,288
1,28,87,288
1,28,87,288
1,28,87,288
1,28,87,288
1,28,87,288
1,28,87,288
1,28,87,288
1,28,87,288
1,28,87,94
1,28,87,98
1,28,87,94
1,28,87,98
1,28,87,94
1,28,87,98
1,28,87,94
1,28,87,98
1,28,87,94
1,28,87,98
1,28,87,94
1,28,87,98
1,28,87,94
1,28,87,98
1,28,87,94
1,28,87,98
1,28,87,94
1,28,87,98
1,28,87,94
1,28,87,98
1,28,87,94
1,28,87,98
1,28,87,94
1,28,87,98
1,28,87,94
1,28,87,98
1,28,87,94
1,28,87,98
1,28,87,94
1,28,87,98
1,28,87,94
1,28,87,98
1,28,87,94
1,28,87,98
1,28,87,94
1,28,87,98
1,28,87,94
1,28,87,98
1,28,87,94
1,28,87,98
1,28,87,94
1,28,87,98
1,28,87,94
1,28,87,98
1,28,87,94
1,28,87,98
1,28,87,94
1,28,87,3170
1,28,87,288
1,28,87,288
1,28,87,288
1,28,87,288
1,28,87,288
1,28,87,288
1,28,87,288
1,28,87,288
1,28,87,288
1,28,87,288
1,28,87,288
1,28,87,288
1,28,87,288
1,28,87,288
1,28,87,288
1,28,87,288
1,28,87,288
1,28,87,288
1,28,87,288
1,28,87,288
1,28,87,288
1,28,87,288
1,28,87,288
1,28,87,288
1,28,87,288
1,28,87,288
1,28,87,288
1,28,87,288
1,28,87,288
1,28,87,288
1,28,87,288
1,28,87,288
1,28,87,288
1,28,87,288
1,28,87,288
1,28,87,288
1,28,87,288
1,28,87,288
1,28,87,288
1,28,87,288
1,28,87,288
1,28,87,288
1,28,87,288
1,28,87,288
1,28,87,288
1,28,87,288
1,28,87,288
1,28,87,288
1,28,87,288
1,28,87,288
1,28,87,288
1,28,87,288
1,28,87,288
1,28,87,288
1,28,87,288
1,28,87,288
1,28,87,288
1,28,87,288
1,28,87,288
1,28,87,288
1,28,87,288
1,28,87,288
1,28,87,288
1,28,87,288
1,28,87,94
1,28,87,98
1,28,87,94
1,28,87,98
1,28,87,94
1,28,87,98
1,28,87,94
1,28,87,98
1,28,87,94
1,28,87,98
1,28,87,94
1,28,87,98
1,28,87,94
1,28,87,98
1,28,87,94
1,28,87,98
1,28,87,94
1,28,87,98
1,28,87,94
1,28,87,98
1,28,87,94
1,28,87,98
1,28,87,94
1,28,87,98
1,28,87,94
1,28,87,98
1,28,87,94
1,28,87,98
1,28,87,94
1,28,87,98
1,28,87,94
2,28,100,11868
2,28,100,216
2,28,100,216
2,28,91,216
2,28,100,216
2,28,100,216
2,28,100,216
2,28,91,216
2,28,100,216
2,28,100,216
2,28,100,216
2,28,91,216
2,28,100,216
2,28,100,216
2,28,100,216
2,28,91,216
2,28,100,216
2,28,100,216
2,28,100,216
2,28,91,216
2,28,100,216
2,28,100,216
2,28,100,216
2,28,91,216
2,28,100,216
2,28,100,216
2,28,100,216
2,28,91,216
2,28,100,216
2,28,100,216
2,28,100,216
2,28,91,216
2,28,100,216
2,28,100,216
2,28,100,216
2,28,91,216
2,28,100,216
2,28,100,216
2,28,100,216
2,28,91,216
2,28,100,216
2,28,100,216
2,28,100,216
2,28,91,216
2,28,100,216
2,28,100,216
2,28,100,216
2,28,91,216
2,28,100,216
2,28,100,216
2,28,100,216
2,28,91,216
2,28,100,216
2,28,100,216
2,28,100,216
2,28,91,216
2,28,100,216
2,28,100,216
2,28,100,216
2,28,91,216
2,28,100,216
2,28,100,216
2,28,100,216
2,28,91,216
2,28,100,216
2,28,100,216
2,28,100,216
2,28,91,216
2,28,100,216
2,28,100,216
2,28,100,216
2,28,91,216
2,28,100,216
2,28,100,216
2,28,100,216
2,28,91,216
2,28,100,216
2,28,100,216
2,28,100,216
2,28,91,216
2,28,100,216
2,28,100,216
2,28,100,216
2,28,91,216
2,28,100,216
2,28,100,216
2,28,100,216
2,28,91,216
2,28,100,216
2,28,100,216
2,28,100,216
2,28,91,216
2,28,100,216
2,28,100,216
2,28,100,216
2,28,91,216
2,28,100,216
2,28,100,216
2,28,100,216
2,28,91,216
2,28,100,216
2,28,100,216
2,28,100,216
2,28,91,216
2,28,100,216
2,28,100,216
2,28,100,216
2,28,91,216
2,28,100,216
2,28,100,216
2,28,100,216
2,28,91,216
2,28,100,216
2,28,100,216
2,28,100,216
2,28,91,216
2,28,100,216
2,28,100,216
2,28,100,216
2,28,91,216
2,28,100,216
2,28,100,216
2,28,100,216
2,28,91,216
2,28,100,216
2,28,100,216
2,28,100,216
2,28,91,216
2,28,100,216
2,28,100,216
2,28,100,216
2,28,91,216
2,28,100,216
2,28,100,216
2,28,100,216
2,28,91,216
2,28,100,216
2,28,100,216
2,28,100,216
2,28,91,216
2,28,100,12504
2,28,100,216
2,28,100,216
2,28,91,216
2,28,100,216
2,28,100,216
2,28,100,216
2,28,91,216
2,28,100,216
2,28,100,216
2,28,100,216
2,28,91,216
2,28,100,216
2,28,100,216
2,28,100,216
2,28,91,216
2,28,100,216
2,28,100,216
2,28,100,216
2,28,91,216
2,28,100,216
2,28,100,216
2,28,100,216
2,28,91,216
2,28,100,216
2,28,100,216
2,28,100,216
2,28,91,216
2,28,100,216
2,28,100,216
2,28,100,216
2,28,91,216
2,28,100,216
2,28,100,216
2,28,100,216
2,28,91,216
2,28,100,216
2,28,100,216
2,28,100,216
2,28,91,216
2,28,100,216
2,28,100,216
2,28,100,216
2,28,91,216
2,28,100,216
2,28,100,216
2,28,100,216
2,28,91,216
2,28,100,216
2,28,100,216
2,28,100,216
2,28,91,216
2,28,100,216
2,28,100,216
2,28,100,216
2,28,91,216
2,28,100,216
2,28,100,216
2,28,100,216
2,28,91,216
2,28,100,216
2,28,100,216
2,28,100,216
2,28,91,216
2,28,100,216
2,28,100,216
2,28,100,216
2,28,91,216
2,28,100,216
2,28,100,216
2,28,100,216
2,28,91,216
2,28,100,216
2,28,100,216
2,28,100,216
2,28,91,216
2,28,100,216
2,28,100,216
2,28,100,216
2,28,91,216
2,28,100,216
2,28,100,216
2,28,100,216
2,28,91,216
2,28,100,216
2,28,100,216
2,28,100,216
2,28,91,216
2,28,100,216
2,28,100,216
2,28,100,216
2,28,91,216
2,28,100,216
2,28,100,216
2,28,100,216
2,28,91,216
2,28,100,216
2,28,100,216
2,28,100,216
2,28,91,216
2,28,100,216
2,28,100,216
2,28,100,216
2,28,91,216
2,28,100,216
2,28,100,216
2,28,100,216
2,28,91,216
2,28,100,216
2,28,100,216
2,28,100,216
2,28,91,216
2,28,100,216
2,28,100,216
2,28,100,216
2,28,91,216
2,28,100,216
2,28,100,216
2,28,100,216
2,28,91,216
2,28,100,216
2,28,100,216
2,28,100,216
2,28,91,216
2,28,100,216
2,28,100,216
2,28,100,216
2,28,91,216
2,28,100,216
2,28,100,216
2,28,100,216
2,28,91,216
2,28,100,216
2,28,100,216
2,28,100,216
2,28,91,216
2,28,100,216
2,28,100,216
2,28,100,216
2,28,91,216
2,28,100,216
2,28,100,216
2,28,100,216
2,28,91,216
2,28,100,216
2,28,100,216
2,28,100,216
2,28,91,216
2,28,100,216
2,28,100,216
2,28,100,216
2,28,91,216
2,28,100,216
2,28,100,216
2,28,100,216
2,28,91,216
2,28,100,216
2,28,100,216
2,28,100,216
2,28,91,216
2,28,100,3288
2,28,100,216
2,28,100,216
2,28,91,216
2,28,100,216
2,28,100,216
2,28,100,216
2,28,91,216
2,28,100,216
2,28,100,216
2,28,100,216
2,28,91,216
2,28,100,216
2,28,100,216
2,28,100,216
2,28,91,216
2,28,100,216
2,28,100,216
2,28,100,216
2,28,91,216
2,28,100,216
2,28,100,216
2,28,100,216
2,28,91,216
2,28,100,216
2,28,100,216
2,28,100,216
2,28,91,216
2,28,100,216
2,28,100,216
2,28,100,216
2,28,91,216
2,28,100,216
2,28,100,216
2,28,100,216
2,28,91,216
2,28,100,216
2,28,100,216
2,28,100,216
2,28,91,216
2,28,100,216
2,28,100,216
2,28,100,216
2,28,91,216
2,28,100,216
2,28,100,216
2,28,100,216
2,28,91,216
2,28,100,216
2,28,100,216
2,28,100,216
2,28,91,216
2,28,100,216
2,28,100,216
2,28,100,216
2,28,91,216
2,28,100,216
2,28,100,216
2,28,100,216
2,28,91,216
2,28,100,216
2,28,100,216
2,28,100,216
2,28,91,216
2,28,100,216
2,28,100,216
2,28,100,216
2,28,91,216
2,28,100,216
2,28,100,216
2,28,100,216
2,28,91,216
2,28,100,216
2,28,100,216
2,28,100,216
2,28,91,216
2,28,100,216
2,28,100,216
2,28,100,216
2,28,91,216
3,28,111,65608
3,40,111,0
3,28,64,12
3,40,64,0
3,27,64,4
3,39,64,0
3,26,111,2
3,38,111,0
3,26,64,18
3,38,64,0
3,25,64,4
3,37,64,0
3,24,111,2
3,36,111,0
3,38,92,2
3,50,92,0
3,52,92,8
3,40,92,0
3,31,92,2
3,43,92,0
3,44,64,2
3,32,64,0
3,21,111,2
3,33,111,0
4,62,95,6670
4,62,93,50
4,64,101,14
4,64,100,46
4,64,91,1408
4,64,100,104
4,64,91,96
4,59,64,2
4,64,100,2
4,64,82,64
4,66,100,2892
4,64,109,32
4,66,100,1706
4,64,100,34
4,66,91,1696
4,64,82,54
4,62,109,1718
4,64,110,24
4,64,100,368
4,62,100,34
4,64,100,34
4,62,101,442
4,59,81,54
4,62,95,32
4,62,84,34
4,62,109,36
4,62,109,42
4,64,95,30
4,62,100,270
4,64,100,26
4,64,100,418
4,62,100,24
4,64,100,22
4,62,101,440
4,62,81,54
4,62,91,14
4,62,91,42
4,64,101,20
4,62,100,364
4,64,100,16
4,64,100,394
4,62,91,20
4,64,100,18
4,62,100,430
4,59,73,18
4,62,100,38
4,62,82,42
4,62,91,40
4,62,93,30
4,62,109,34
4,64,95,34
4,62,100,262
4,64,100,26
4,64,100,416
4,62,100,26
4,64,100,24
