track,note,velocity,time
0,62,77,763
0,67,85,0
0,71,88,0
0,76,87,0
0,52,76,42
0,52,0,3
0,52,69,2
0,52,0,30
0,52,61,29
0,52,0,26
0,52,45,4
0,52,0,26
0,52,38,54
0,52,0,47
0,52,23,87
0,52,0,35
0,74,102,45
0,52,15,8
0,52,0,59
0,74,0,89
0,74,89,18
0,74,0,122
0,74,102,37
0,74,0,156
0,76,95,2
0,76,0,58
0,76,95,29
0,83,56,106
0,76,0,10
0,76,102,474
0,83,0,95
0,76,0,33
0,76,83,16
0,76,0,84
0,76,102,26
0,76,0,111
0,76,97,32
0,76,0,154
0,71,102,17
0,71,0,141
0,76,102,19
0,40,114,51
0,36,98,0
0,42,89,0
0,82,92,0
0,28,127,0
0,82,0,4
0,42,0,0
0,36,0,0
0,40,0,51
0,28,0,7
0,40,80,34
0,44,61,0
0,69,62,0
0,28,110,0
0,40,125,0
0,69,0,4
0,44,0,0
0,40,0,21
0,28,0,2
0,40,0,11
0,74,100,34
0,40,114,24
0,36,97,0
0,42,87,0
0,82,91,0
0,28,127,0
0,82,0,4
0,42,0,0
0,36,0,0
0,40,0,53
0,28,0,2
0,40,90,37
0,44,60,0
0,69,57,0
0,28,125,0
0,40,125,0
0,69,0,4
0,44,0,0
0,40,0,22
0,28,0,4
0,40,0,6
0,40,112,53
0,36,95,0
0,42,81,0
0,82,91,0
0,28,127,0
0,82,0,4
0,42,0,0
0,36,0,0
0,28,0,45
0,40,0,7
0,40,92,40
0,44,58,0
0,69,59,0
0,28,125,0
0,40,127,0
0,69,0,4
0,44,0,0
0,40,0,8
0,28,0,16
0,40,0,6
0,40,114,20
0,36,98,0
0,42,84,0
0,82,91,0
0,28,127,0
0,82,0,4
0,42,0,0
0,36,0,0
0,76,0,14
0,28,0,39
0,40,0,1
0,40,90,38
0,44,70,0
0,69,54,0
0,28,117,0
0,40,127,0
0,69,0,4
0,44,0,0
0,40,0,15
0,28,0,21
0,40,0,2
0,40,114,54
0,36,98,0
0,42,89,0
0,82,92,0
0,28,127,0
0,82,0,4
0,42,0,0
0,36,0,0
0,40,0,51
0,28,0,7
0,40,80,34
0,44,61,0
0,69,62,0
0,28,110,0
0,40,125,0
0,69,0,4
0,44,0,0
0,40,0,21
0,28,0,2
0,40,0,11
0,40,114,58
0,36,97,0
0,42,87,0
0,82,91,0
0,28,127,0
0,82,0,4
0,42,0,0
0,36,0,0
0,74,0,24
0,40,0,29
0,28,0,2
0,40,90,37
0,44,60,0
0,69,57,0
0,28,125,0
0,40,125,0
0,69,0,4
0,44,0,0
0,40,0,22
0,28,0,11
0,40,0,6
0,67,0,51
0,76,0,0
0,62,0,0
0,71,0,0
0,40,112,2
0,64,74,0
0,66,74,0
0,69,74,0
0,74,76,0
0,36,95,0
0,42,81,0
0,82,91,0
0,28,127,0
0,82,0,4
0,42,0,0
0,36,0,0
0,28,0,45
0,40,0,7
0,40,92,40
0,44,58,0
0,69,59,0
0,28,125,0
0,40,127,0
0,69,0,2
0,44,0,0
0,78,102,2
0,40,0,1
0,28,0,16
0,40,0,1
0,40,114,31
0,36,98,0
0,42,84,0
0,82,91,0
0,28,127,0
0,82,0,4
0,42,0,0
0,36,0,0
0,28,0,53
0,40,0,1
0,40,90,38
0,44,70,0
0,69,54,0
0,28,117,0
0,40,127,0
0,69,0,4
0,44,0,0
0,40,0,15
0,78,0,8
0,76,102,6
0,28,0,7
0,40,0,2
0,40,114,54
0,36,98,0
0,42,89,0
0,82,92,0
0,28,127,0
0,82,0,4
0,42,0,0
0,36,0,0
0,40,0,51
0,28,0,7
0,40,80,34
0,44,61,0
0,69,62,0
0,28,110,0
0,40,125,0
0,69,0,4
0,44,0,0
0,40,0,21
0,28,0,2
0,40,0,11
0,40,114,58
0,36,97,0
0,42,87,0
0,82,91,0
0,28,127,0
0,82,0,4
0,42,0,0
0,36,0,0
0,40,0,53
0,28,0,2
0,40,90,37
0,44,60,0
0,69,57,0
0,28,125,0
0,40,125,0
0,69,0,4
0,44,0,0
0,40,0,22
0,28,0,11
0,40,0,6
0,40,112,12
0,36,95,0
0,42,81,0
0,82,91,0
0,28,127,0
0,82,0,4
0,42,0,0
0,36,0,0
0,28,0,16
0,40,0,6
0,40,92,11
0,44,58,0
0,69,59,0
0,28,125,0
0,40,127,0
0,69,0,4
0,44,0,0
0,40,0,15
0,28,0,8
0,40,0,6
0,40,114,16
0,36,98,0
0,42,84,0
0,82,91,0
0,28,127,0
0,82,0,4
0,42,0,0
0,36,0,0
0,28,0,9
0,40,0,1
0,76,0,10
0,40,90,22
0,44,70,0
0,69,54,0
0,28,117,0
0,40,127,0
0,69,0,4
0,44,0,0
0,40,0,15
0,28,0,21
0,40,0,2
0,40,114,54
0,36,98,0
0,42,89,0
0,82,92,0
0,28,127,0
0,82,0,4
0,42,0,0
0,36,0,0
0,40,0,51
0,28,0,7
0,40,80,34
0,44,61,0
0,69,62,0
0,28,110,0
0,40,125,0
0,69,0,4
0,44,0,0
0,40,0,21
0,28,0,2
0,40,0,11
0,40,114,58
0,36,97,0
0,42,87,0
0,82,91,0
0,28,127,0
0,82,0,4
0,42,0,0
0,36,0,0
0,40,0,53
0,28,0,2
0,78,102,12
0,40,90,5
0,44,60,0
0,69,57,0
0,28,125,0
0,40,125,0
0,69,0,4
0,44,0,0
0,40,0,14
0,28,0,8
0,40,0,6
0,40,112,53
0,36,95,0
0,42,81,0
0,82,91,0
0,28,127,0
0,82,0,4
0,42,0,0
0,36,0,0
0,28,0,45
0,40,0,7
0,78,0,32
0,40,92,8
0,44,58,0
0,69,59,0
0,28,125,0
0,40,127,0
0,69,0,4
0,44,0,0
0,76,102,0
0,40,0,17
0,28,0,16
0,40,0,6
0,64,70,49
0,74,0,2
0,66,0,0
0,64,0,0
0,69,0,0
0,40,114,2
0,62,74,0
0,67,74,0
0,71,77,0
0,76,76,0
0,36,98,0
0,42,84,0
0,82,91,0
0,28,127,0
0,67,115,3
0,82,0,1
0,42,0,0
0,36,0,0
0,71,115,2
0,76,115,2
0,28,0,49
0,40,0,1
0,64,0,30
0,67,0,2
0,64,99,2
0,71,0,2
0,40,90,0
0,44,70,0
0,69,54,0
0,28,117,0
0,40,127,0
0,67,115,1
0,76,0,2
0,69,0,1
0,44,0,0
0,71,115,0
0,76,115,3
0,40,0,12
0,28,0,12
0,40,0,2
0,76,0,7
0,71,0,3
0,76,115,2
0,67,0,3
0,71,115,1
0,64,0,1
0,67,99,1
0,64,115,4
0,64,0,4
0,40,114,0
0,36,98,0
0,42,89,0
0,82,92,0
0,28,127,0
0,67,0,3
0,42,0,1
0,36,0,0
0,82,0,0
0,64,64,0
0,71,0,3
0,67,108,1
0,76,0,4
0,71,96,1
0,76,99,5
0,76,0,18
0,71,0,7
0,76,102,1
0,40,0,1
0,67,0,2
0,71,102,1
0,64,0,1
0,67,75,0
0,28,0,1
0,64,48,2
0,40,80,4
0,44,61,0
0,69,62,0
0,28,110,0
0,40,125,0
0,69,0,4
0,44,0,0
0,64,0,9
0,67,0,2
0,64,117,2
0,71,0,2
0,67,117,1
0,76,0,2
0,71,117,1
0,40,0,2
0,28,0,2
0,76,117,0
0,40,0,10
0,76,0,3
0,40,114,1
0,36,97,0
0,42,87,0
0,82,91,0
0,28,127,0
0,82,0,4
0,36,0,0
0,42,0,0
0,79,87,2
0,64,0,1
0,67,0,4
0,64,90,1
0,71,0,2
0,67,117,1
0,76,0,3
0,71,117,1
0,76,114,4
0,40,0,29
0,28,0,2
0,76,0,3
0,71,0,7
0,76,117,2
0,67,0,2
0,71,117,2
0,64,0,2
0,67,117,1
0,64,108,4
0,40,90,4
0,44,60,0
0,69,57,0
0,28,125,0
0,40,125,0
0,69,0,4
0,44,0,0
0,67,0,12
0,71,0,4
0,67,117,2
0,76,0,4
0,40,0,0
0,71,93,1
0,76,93,6
0,28,0,3
0,40,0,6
0,76,0,15
0,71,0,4
0,76,117,1
0,71,99,4
0,76,117,19
0,40,112,4
0,36,95,0
0,42,81,0
0,82,91,0
0,28,127,0
0,82,0,4
0,42,0,0
0,36,0,0
0,64,0,15
0,67,0,3
0,64,93,1
0,71,0,2
0,67,117,2
0,76,0,1
0,71,117,2
0,76,117,4
0,28,0,14
0,40,0,7
0,79,0,25
0,40,92,4
0,44,58,0
0,69,59,0
0,28,125,0
0,40,127,0
0,69,0,4
0,44,0,0
0,64,0,10
0,67,0,5
0,64,77,1
0,40,0,1
0,71,0,2
0,67,93,1
0,76,0,4
0,71,105,1
0,76,102,5
0,28,0,3
0,40,0,6
0,76,0,6
0,71,0,7
0,76,117,1
0,67,0,3
0,71,102,1
0,64,0,4
0,67,87,0
0,64,75,3
0,40,114,4
0,36,98,0
0,42,84,0
0,82,91,0
0,28,127,0
0,82,0,4
0,42,0,0
0,36,0,0
0,28,0,29
0,40,0,1
0,76,0,7
0,71,0,8
0,76,117,0
0,67,0,5
0,71,99,0
0,67,69,3
0,64,0,3
0,40,90,1
0,44,70,0
0,69,54,0
0,28,117,0
0,40,127,0
0,69,0,4
0,44,0,0
0,40,0,15
0,67,0,3
0,71,0,5
0,67,93,0
0,28,0,4
0,76,0,1
0,40,0,1
0,71,90,0
0,76,93,6
0,40,114,4
0,36,98,0
0,42,89,0
0,82,92,0
0,28,127,0
0,82,0,4
0,36,0,0
0,42,0,0
0,71,0,8
0,76,0,4
0,71,75,1
0,76,84,6
0,40,0,8
0,67,0,3
0,28,0,2
0,76,0,19
0,71,0,7
0,76,84,0
0,71,84,0
0,40,80,4
0,44,61,0
0,69,62,0
0,28,110,0
0,40,125,0
0,69,0,4
0,44,0,0
0,40,0,21
0,28,0,2
0,40,0,10
0,76,0,21
0,76,69,6
0,71,0,1
0,71,55,3
0,40,114,5
0,36,97,0
0,42,87,0
0,82,91,0
0,28,127,0
0,82,0,4
0,42,0,0
0,36,0,0
0,71,0,45
0,71,57,2
0,76,0,2
0,76,29,2
0,40,0,2
0,28,0,2
0,78,102,5
0,40,90,1
0,44,60,0
0,69,57,0
0,28,125,0
0,40,125,0
0,69,0,4
0,44,0,0
0,40,0,10
0,28,0,4
0,40,0,6
0,40,112,53
0,36,95,0
0,42,81,0
0,82,91,0
0,28,127,0
0,82,0,4
0,36,0,0
0,42,0,0
0,28,0,45
0,40,0,7
0,78,0,13
0,71,0,4
0,76,102,4
0,40,92,19
0,44,58,0
0,69,59,0
0,28,125,0
0,40,127,0
0,76,0,2
0,69,0,2
0,44,0,0
0,40,0,17
0,28,0,16
0,40,0,6
0,40,114,53
0,36,98,0
0,42,84,0
0,82,91,0
0,28,127,0
0,82,0,4
0,42,0,0
0,36,0,0
0,28,0,53
0,40,0,1
0,40,90,38
0,44,70,0
0,69,54,0
0,28,117,0
0,40,127,0
0,69,0,4
0,44,0,0
0,40,0,15
0,28,0,21
0,40,0,2
0,28,127,7
0,67,0,3
0,71,0,0
0,62,0,0
0,76,0,0
0,40,114,2
0,64,76,0
0,66,74,0
0,69,74,0
0,74,76,0
0,36,98,0
0,42,89,0
0,82,92,0
0,28,127,0
0,82,0,4
0,42,0,0
0,36,0,0
0,29,113,8
0,28,0,9
0,40,0,10
0,28,0,7
0,31,116,0
0,29,0,6
0,33,117,13
0,31,0,9
0,40,80,6
0,44,61,0
0,69,62,0
0,28,110,0
0,40,125,0
0,69,0,4
0,44,0,0
0,35,119,1
0,76,0,2
0,33,0,6
0,40,0,10
0,28,0,2
0,36,122,2
0,35,0,6
0,40,0,3
0,38,123,11
0,36,0,8
0,40,126,14
0,38,0,5
0,76,0,2
0,40,114,2
0,36,97,0
0,42,87,0
0,82,91,0
0,40,127,0
0,28,127,0
0,82,0,4
0,42,0,0
0,36,0,0
0,40,0,53
0,28,0,2
0,40,0,2
0,40,0,24
0,40,90,11
0,44,60,0
0,69,57,0
0,52,127,0
0,52,108,0
0,28,125,0
0,40,125,0
0,69,0,4
0,44,0,0
0,40,0,22
0,28,0,11
0,40,0,6
0,52,0,24
0,52,0,19
0,40,112,10
0,36,95,0
0,42,81,0
0,82,91,0
0,83,92,0
0,28,127,0
0,82,0,4
0,42,0,0
0,36,0,0
0,28,0,45
0,40,0,7
0,74,102,30
0,40,92,10
0,44,58,0
0,69,59,0
0,28,125,0
0,40,127,0
0,69,0,4
0,44,0,0
0,40,0,17
0,28,0,16
0,40,0,6
0,74,0,9
0,76,100,5
0,40,114,39
0,36,98,0
0,42,84,0
0,82,91,0
0,28,127,0
0,82,0,4
0,42,0,0
0,36,0,0
0,28,0,53
0,40,0,1
0,76,0,5
0,40,90,33
0,44,70,0
0,69,54,0
0,28,117,0
0,40,127,0
0,69,0,4
0,44,0,0
0,40,0,15
0,28,0,21
0,40,0,2
0,40,114,54
0,36,98,0
0,42,89,0
0,82,92,0
0,28,127,0
0,82,0,4
0,42,0,0
0,36,0,0
0,40,0,51
0,28,0,7
0,40,80,34
0,44,61,0
0,69,62,0
0,28,110,0
0,40,125,0
0,69,0,4
0,44,0,0
0,40,0,21
0,28,0,2
0,40,0,11
0,40,114,58
0,36,97,0
0,42,87,0
0,82,91,0
0,28,127,0
0,82,0,4
0,42,0,0
0,36,0,0
0,40,0,53
0,28,0,2
0,40,90,37
0,44,60,0
0,69,57,0
0,28,125,0
0,40,125,0
0,69,0,4
0,44,0,0
0,40,0,22
0,28,0,11
0,40,0,6
0,40,112,53
0,36,95,0
0,42,81,0
0,82,91,0
0,28,127,0
0,82,0,4
0,42,0,0
0,36,0,0
0,28,0,45
0,40,0,7
0,40,92,40
0,44,58,0
0,69,59,0
0,28,125,0
0,40,127,0
0,69,0,4
0,44,0,0
0,40,0,17
0,28,0,16
0,40,0,6
0,83,0,10
0,40,114,2
0,36,98,0
0,42,84,0
0,82,91,0
0,28,127,0
0,82,0,4
0,42,0,0
0,36,0,0
0,28,0,19
0,40,0,1
0,40,90,8
0,44,70,0
0,69,54,0
0,28,117,0
0,40,127,0
0,74,127,1
0,69,0,3
0,44,0,0
0,40,0,15
0,28,0,21
0,40,0,2
0,74,0,7
0,74,0,18
0,69,0,0
0,64,0,0
0,66,0,0
0,40,124,3
0,67,100,0
0,71,116,0
0,76,116,0
0,28,117,0
0,40,122,0
0,28,119,0
0,36,98,0
0,42,89,0
0,49,107,0
0,52,127,0
0,56,111,0
0,82,92,0
0,71,127,0
0,76,127,0
0,28,127,0
0,82,0,4
0,49,0,0
0,28,0,0
0,42,0,0
0,36,0,0
0,56,0,0
0,52,0,0
0,76,127,2
0,40,0,26
0,28,0,7
0,76,0,23
0,40,90,11
0,44,72,0
0,56,108,0
0,69,62,0
0,28,110,0
0,40,125,0
0,69,0,4
0,56,0,0
0,44,0,0
0,40,0,21
0,28,0,2
0,40,0,11
0,40,124,58
0,28,121,0
0,36,97,0
0,42,87,0
0,82,91,0
0,28,127,0
0,82,0,4
0,36,0,0
0,28,0,0
0,42,0,0
0,40,0,53
0,28,0,2
0,76,127,31
0,40,100,6
0,44,71,0
0,69,57,0
0,28,125,0
0,40,125,0
0,69,0,4
0,44,0,0
0,40,0,22
0,76,0,4
0,28,0,7
0,40,0,6
0,56,81,5
0,56,0,4
0,40,122,44
0,28,121,0
0,36,95,0
0,42,81,0
0,56,85,0
0,82,91,0
0,28,127,0
0,74,127,1
0,82,0,3
0,36,0,0
0,28,0,0
0,56,0,0
0,42,0,0
0,28,0,45
0,40,0,7
0,74,0,30
0,40,102,10
0,28,121,0
0,44,69,0
0,56,108,0
0,69,59,0
0,28,125,0
0,40,127,0
0,69,0,4
0,44,0,0
0,28,0,0
0,56,0,0
0,76,127,0
0,40,0,17
0,28,0,16
0,40,0,6
0,76,0,26
0,40,124,27
0,28,121,0
0,36,98,0
0,41,100,0
0,42,84,0
0,56,105,0
0,82,91,0
0,28,127,0
0,82,0,4
0,36,0,0
0,28,0,0
0,56,0,0
0,41,0,0
0,42,0,0
0,28,0,53
0,40,0,1
0,40,100,38
0,44,81,0
0,45,91,0
