track,note,velocity,time
0,62,95,1392
0,64,127,0
0,67,127,0
0,71,127,0
0,76,117,0
0,52,111,1152
0,62,127,62
0,62,127,20
0,62,127,50
0,64,127,16
0,64,127,26
0,83,127,28
0,64,127,18
0,64,127,22
0,64,127,2
0,64,127,12
0,59,127,40
0,64,127,288
0,64,127,128
0,28,127,158
0,28,127,0
0,36,127,0
0,40,79,0
0,42,127,0
0,69,127,0
0,28,127,122
0,40,79,0
0,42,70,0
0,69,70,0
0,28,127,122
0,28,127,0
0,36,127,0
0,40,79,0
0,42,127,0
0,69,127,0
0,86,127,0
0,28,127,122
0,40,79,0
0,42,79,0
0,69,79,0
0,28,127,122
0,28,127,0
0,36,127,0
0,40,79,0
0,42,127,0
0,69,127,0
0,28,127,122
0,40,79,0
0,42,82,0
0,69,82,0
0,28,127,122
0,28,127,0
0,36,127,0
0,40,79,0
0,42,127,0
0,69,127,0
0,28,127,18
0,40,79,0
0,42,70,0
0,69,70,0
0,28,127,122
0,28,127,0
0,36,127,0
0,40,79,0
0,42,127,0
0,69,127,0
0,28,127,122
0,40,79,0
0,42,70,0
0,69,70,0
0,28,127,122
0,28,127,0
0,36,127,0
0,40,79,0
0,42,127,0
0,69,127,0
0,28,127,0
0,40,79,0
0,42,79,0
0,69,79,0
0,28,127,2
0,28,127,0
0,36,127,0
0,40,79,0
0,42,127,0
0,62,110,0
0,66,127,0
0,69,127,0
0,69,127,0
0,74,120,0
0,28,127,122
0,40,79,0
0,42,82,0
0,66,127,0
0,69,82,0
0,28,127,122
0,28,127,0
0,36,127,0
0,40,79,0
0,42,127,0
0,69,127,0
0,28,127,18
0,40,79,0
0,42,70,0
0,64,127,0
0,69,70,0
0,28,127,122
0,28,127,0
0,36,127,0
0,40,79,0
0,42,127,0
0,69,127,0
0,28,127,2
0,40,79,0
0,42,70,0
0,69,70,0
0,28,127,102
0,28,127,0
0,36,127,0
0,40,79,0
0,42,127,0
0,69,127,0
0,28,127,12
0,40,79,0
0,42,79,0
0,69,79,0
0,28,127,122
0,28,127,0
0,36,127,0
0,40,79,0
0,42,127,0
0,69,127,0
0,28,127,122
0,40,79,0
0,42,82,0
0,69,82,0
0,28,127,46
0,28,127,0
0,36,127,0
0,40,79,0
0,42,127,0
0,69,127,0
0,28,127,18
0,40,79,0
0,42,70,0
0,69,70,0
0,28,127,122
0,28,127,0
0,36,127,0
0,40,79,0
0,42,127,0
0,69,127,0
0,28,127,122
0,40,79,0
0,42,70,0
0,69,70,0
0,28,127,122
0,28,127,0
0,36,127,0
0,40,79,0
0,42,127,0
0,69,127,0
0,28,127,122
0,40,79,0
0,42,79,0
0,69,79,0
0,28,127,122
0,28,127,0
0,36,127,0
0,40,79,0
0,42,127,0
0,69,127,0
0,28,127,122
0,40,79,0
0,42,82,0
0,66,127,0
0,69,82,0
0,28,127,2
0,28,127,0
0,36,127,0
0,40,79,0
0,42,127,0
0,52,101,0
0,59,102,0
0,64,97,0
0,64,120,0
0,67,120,0
0,69,127,0
0,71,103,0
0,52,99,26
0,59,101,0
0,64,90,0
0,28,127,4
0,40,79,0
0,42,70,0
0,52,98,0
0,59,99,0
0,64,127,0
0,64,99,0
0,69,70,0
0,52,97,14
0,59,100,0
0,64,99,0
0,28,127,0
0,28,127,0
0,36,127,0
0,40,79,0
0,42,127,0
0,52,96,0
0,59,99,0
0,64,99,0
0,69,127,0
0,52,96,16
0,59,100,0
0,64,98,0
0,28,127,2
0,40,79,0
0,42,70,0
0,52,97,0
0,59,102,0
0,64,100,0
0,69,70,0
0,52,96,6
0,59,100,0
0,64,99,0
0,28,127,16
0,28,127,0
0,36,127,0
0,40,79,0
0,42,127,0
0,52,96,0
0,59,100,0
0,64,99,0
0,69,127,0
0,52,95,26
0,59,100,0
0,64,96,0
0,28,127,2
0,40,79,0
0,42,79,0
0,52,96,0
0,59,100,0
0,64,98,0
0,69,79,0
0,52,95,26
0,59,100,0
0,64,99,0
0,28,127,10
0,28,127,0
0,36,127,0
0,40,79,0
0,42,127,0
0,52,96,0
0,59,101,0
0,64,98,0
0,69,127,0
0,52,96,6
0,59,101,0
0,64,98,0
0,28,127,6
0,40,79,0
0,42,82,0
0,52,95,0
0,59,101,0
0,64,97,0
0,69,82,0
0,52,97,20
0,59,101,0
0,64,99,0
0,28,127,4
0,28,127,0
0,36,127,0
0,40,79,0
0,42,127,0
0,52,95,0
0,59,100,0
0,64,97,0
0,67,127,0
0,69,127,0
0,52,95,10
0,59,100,0
0,64,97,0
0,28,127,18
0,40,79,0
0,52,97,0
0,59,100,0
0,64,97,0
0,42,70,0
0,69,70,0
0,52,97,8
0,59,102,0
0,64,99,0
0,28,127,24
0,28,127,0
0,36,127,0
0,40,79,0
0,42,127,0
0,52,97,0
0,59,101,0
0,64,99,0
0,69,127,0
0,52,97,26
0,59,101,0
0,64,98,0
0,28,127,26
0,40,79,0
0,42,70,0
0,52,96,0
0,59,102,0
0,64,98,0
0,69,70,0
0,52,97,26
0,59,102,0
0,64,98,0
0,28,127,24
0,28,127,0
0,36,127,0
0,40,79,0
0,42,127,0
0,52,96,0
0,59,101,0
0,64,98,0
0,69,127,0
0,52,97,22
0,59,101,0
0,64,97,0
0,28,127,10
0,40,79,0
0,42,79,0
0,52,96,0
0,59,101,0
0,64,98,0
0,69,79,0
0,52,95,26
0,59,100,0
0,64,96,0
0,28,127,2
0,28,127,0
0,36,127,0
0,40,79,0
0,42,127,0
0,52,95,0
0,59,99,0
0,64,96,0
0,69,127,0
0,52,94,18
0,59,100,0
0,64,98,0
0,28,127,14
0,40,79,0
0,42,82,0
0,52,95,0
0,59,101,0
0,64,99,0
0,69,82,0
0,52,94,20
0,59,102,0
0,64,99,0
0,28,127,16
0,28,127,0
0,36,127,0
0,40,79,0
0,42,127,0
0,52,96,0
0,59,99,0
0,64,98,0
0,69,127,0
0,52,95,2
0,59,100,0
0,64,96,0
0,28,127,18
0,40,79,0
0,42,70,0
0,52,97,0
0,59,100,0
0,64,99,0
0,66,127,0
0,69,70,0
0,52,95,6
0,59,100,0
0,64,99,0
0,28,127,2
0,28,127,0
0,36,127,0
0,40,127,0
0,40,79,0
0,40,127,0
0,42,127,0
0,62,113,0
0,66,100,0
0,69,111,0
0,69,127,0
0,28,127,30
0,40,79,0
0,42,70,0
0,47,127,0
0,47,127,0
0,64,127,0
0,69,70,0
0,28,127,38
0,28,127,0
0,36,127,0
0,40,79,0
0,42,127,0
0,50,127,0
0,50,127,0
0,69,127,0
0,28,127,72
0,40,79,0
0,42,79,0
0,52,127,0
0,52,127,0
0,69,79,0
0,28,127,76
0,28,127,0
0,36,127,0
0,40,79,0
0,42,127,0
0,69,127,0
0,28,127,122
0,40,79,0
0,42,82,0
0,69,82,0
0,28,127,122
0,28,127,0
0,36,127,0
0,40,79,0
0,42,127,0
0,69,127,0
0,28,127,18
0,40,79,0
0,42,70,0
0,64,127,0
0,69,70,0
0,28,127,4
0,28,127,0
0,36,127,0
0,40,79,0
0,42,127,0
0,69,127,0
0,28,127,122
0,40,79,0
0,42,70,0
0,69,70,0
0,28,127,98
0,28,127,0
0,36,127,0
0,40,79,0
0,42,127,0
0,69,127,0
0,28,127,122
0,40,79,0
0,42,79,0
0,69,79,0
0,28,127,122
0,28,127,0
0,36,127,0
0,40,79,0
0,42,127,0
0,69,127,0
0,28,127,122
0,40,79,0
0,42,82,0
0,69,82,0
0,28,127,122
0,28,127,0
0,36,127,0
0,40,79,0
0,42,127,0
0,69,127,0
0,28,127,18
0,40,79,0
0,42,70,0
0,62,127,0
0,69,70,0
0,28,127,2
0,28,127,0
0,28,127,0
0,36,127,0
0,39,112,0
0,40,79,0
0,42,127,0
0,49,127,0
0,56,127,0
0,64,127,0
0,64,127,0
0,67,127,0
0,71,127,0
0,76,127,0
0,28,127,10
0,40,79,0
0,42,70,0
0,56,127,0
0,60,127,0
0,28,127,116
0,28,127,0
0,28,127,0
0,36,127,0
0,39,112,0
0,40,79,0
0,42,127,0
0,61,127,26
0,28,127,26
0,40,79,0
0,42,79,0
0,56,127,0
0,64,127,0
0,56,122,8
0,28,127,60
0,28,127,0
0,28,127,0
0,36,127,0
0,39,112,0
0,40,79,0
0,42,127,0
0,56,107,0
0,62,127,0
0,69,127,0
0,28,127,50
0,40,79,0
0,42,82,0
0,45,127,0
0,56,127,0
0,60,127,0
0,64,127,0
0,28,127,44
0,28,127,0
0,28,127,0
0,36,127,0
0,39,112,0
0,40,79,0
0,42,127,0
0,56,127,0
0,69,127,0
0,61,127,26
0,28,127,18
0,40,79,0
0,42,70,0
0,28,127,122
0,28,127,0
0,28,127,0
0,36,127,0
0,39,112,0
0,40,79,0
0,42,127,0
0,56,127,0
0,62,127,0
0,69,127,0
0,28,127,60
0,40,79,0
0,42,70,0
0,56,127,0
0,60,127,0
0,62,127,0
0,62,127,24
0,28,127,96
0,28,127,0
0,28,127,0
0,36,127,0
0,39,112,0
0,40,79,0
0,42,127,0
0,62,127,26
0,28,127,0
0,40,79,0
0,62,127,0
0,42,79,0
0,56,127,0
0,61,127,0
0,56,122,18
0,28,127,60
0,28,127,0
0,28,127,0
0,36,127,0
0,39,112,0
0,40,79,0
0,42,127,0
0,56,104,0
0,62,127,0
0,28,127,16
0,39,112,0
0,40,79,0
0,42,82,0
0,56,127,0
0,64,127,0
0,39,107,26
0,28,127,14
0,28,127,0
0,28,127,0
0,36,127,0
0,39,100,0
0,40,79,0
0,42,127,0
0,56,127,0
0,39,112,26
0,41,127,0
0,56,127,0
0,28,127,18
0,40,79,0
0,42,70,0
0,62,127,0
0,28,127,2
0,28,127,0
0,28,127,0
0,36,127,0
0,39,112,0
0,40,79,0
0,42,127,0
0,56,127,0
0,62,127,0
0,64,127,0
0,66,127,0
0,69,127,0
0,74,127,0
0,28,127,14
0,40,79,0
0,42,70,0
0,56,127,0
0,60,127,0
0,28,127,122
0,28,127,0
0,28,127,0
0,36,127,0
0,39,112,0
0,40,79,0
0,42,127,0
0,61,127,26
0,28,127,22
0,40,79,0
0,42,79,0
0,56,127,0
0,64,127,0
0,56,111,0
0,28,127,64
0,28,127,0
0,28,127,0
0,36,127,0
0,39,112,0
0,40,79,0
0,42,127,0
0,56,107,0
0,62,127,0
0,69,127,0
0,28,127,4
0,40,79,0
0,42,82,0
0,45,127,0
0,56,127,0
0,60,127,0
0,64,127,0
0,28,127,16
0,28,127,0
0,28,127,0
0,36,127,0
0,39,112,0
0,40,79,0
0,42,127,0
0,56,127,0
0,69,127,0
0,61,127,26
0,28,127,2
0,40,79,0
0,42,70,0
0,28,127,122
0,28,127,0
0,28,127,0
0,36,127,0
0,39,112,0
0,40,79,0
0,42,127,0
0,56,127,0
0,62,127,0
0,69,127,0
0,28,127,42
0,40,79,0
0,42,70,0
0,56,127,0
0,60,127,0
0,62,127,0
0,62,127,26
0,28,127,4
0,28,127,0
0,28,127,0
0,36,127,0
0,39,112,0
0,40,79,0
0,42,127,0
0,62,127,26
0,28,127,2
0,40,79,0
0,42,79,0
0,56,127,0
0,61,127,0
0,64,127,0
0,56,111,26
0,28,127,76
0,28,127,0
0,28,127,0
0,36,127,0
0,39,112,0
0,40,79,0
0,42,127,0
0,56,96,0
0,28,127,104
0,39,112,0
0,40,79,0
0,42,82,0
0,56,127,0
0,39,112,26
0,28,127,58
0,28,127,0
0,28,127,0
0,36,127,0
0,39,96,0
0,40,79,0
0,42,127,0
0,56,127,0
0,39,112,26
0,41,127,0
0,56,125,0
0,28,127,18
0,40,79,0
0,42,70,0
0,62,127,0
0,28,127,2
0,28,127,0
0,28,127,0
0,36,127,0
0,39,112,0
0,40,79,0
0,42,127,0
0,56,127,0
0,64,127,0
0,64,127,0
0,67,127,0
0,71,127,0
0,28,127,4
0,40,79,0
0,42,70,0
0,56,127,0
0,60,127,0
0,28,127,122
0,28,127,0
0,28,127,0
0,36,127,0
0,39,112,0
0,40,79,0
0,42,127,0
0,61,127,26
0,28,127,42
0,40,79,0
0,42,79,0
0,56,127,0
0,64,127,0
0,56,111,26
0,28,127,64
0,28,127,0
0,28,127,0
0,36,127,0
0,39,112,0
0,40,79,0
0,42,127,0
0,56,100,0
0,62,127,0
0,69,127,0
0,28,127,14
0,40,79,0
0,42,82,0
0,56,127,0
0,60,127,0
0,64,127,0
0,28,127,30
0,28,127,0
0,28,127,0
0,36,127,0
0,39,112,0
0,40,79,0
0,42,127,0
0,56,127,0
0,69,127,0
0,61,127,26
0,28,127,14
0,40,79,0
0,42,70,0
0,45,127,0
0,28,127,104
0,28,127,0
0,28,127,0
0,36,127,0
0,39,112,0
0,40,79,0
0,42,127,0
0,56,127,0
0,62,127,0
0,69,127,0
0,28,127,70
0,40,79,0
0,42,70,0
0,56,127,0
0,60,127,0
0,62,127,0
0,62,127,26
0,28,127,96
0,28,127,0
0,28,127,0
0,36,127,0
0,39,112,0
0,40,79,0
0,42,127,0
0,62,127,26
0,28,127,60
0,40,79,0
0,42,79,0
0,56,127,0
0,61,127,0
0,62,127,0
0,56,127,26
0,62,127,0
0,28,127,56
0,28,127,0
0,28,127,0
0,36,127,0
0,39,112,0
0,40,79,0
0,42,127,0
0,56,68,0
0,62,127,0
0,28,127,56
0,39,112,0
0,40,79,0
0,42,82,0
0,56,127,0
0,64,127,0
0,39,89,26
0,28,127,44
0,28,127,0
0,28,127,0
0,36,127,0
0,39,96,0
0,40,79,0
0,42,127,0
0,56,127,0
0,39,92,26
0,41,127,0
0,56,94,0
0,28,127,18
0,40,79,0
0,42,70,0
0,62,127,0
0,28,127,2
0,28,127,0
0,28,127,0
0,36,127,0
0,39,112,0
0,40,79,0
0,42,127,0
0,56,127,0
0,62,127,0
0,64,127,0
0,66,127,0
0,69,127,0
0,74,127,0
0,28,127,12
0,40,79,0
0,42,70,0
0,56,127,0
0,60,127,0
0,28,127,122
0,28,127,0
0,28,127,0
0,36,127,0
0,39,112,0
0,40,79,0
0,42,127,0
0,61,127,26
0,28,127,44
0,40,79,0
0,42,79,0
0,56,127,0
0,64,127,0
0,56,111,26
0,28,127,64
0,28,127,0
0,28,127,0
0,36,127,0
0,39,112,0
0,40,79,0
0,42,127,0
0,56,115,0
0,62,127,0
0,69,127,0
0,28,127,12
0,40,79,0
0,42,82,0
0,56,127,0
0,60,127,0
0,64,127,0
0,28,127,6
0,28,127,0
0,28,127,0
0,36,127,0
0,39,112,0
0,40,79,0
0,42,127,0
0,56,127,0
0,69,127,0
0,61,127,26
0,28,127,2
0,40,79,0
0,42,70,0
0,45,127,0
0,28,127,106
0,28,127,0
0,28,127,0
0,36,127,0
0,39,112,0
0,40,79,0
0,42,127,0
0,56,127,0
0,69,127,0
0,28,127,6
0,39,89,0
0,40,79,0
0,42,70,0
0,56,127,0
0,60,127,0
0,28,127,122
0,28,127,0
0,28,127,0
0,36,127,0
0,39,112,0
0,40,79,0
0,42,127,0
0,28,127,6
0,39,89,0
0,40,79,0
0,42,79,0
0,56,127,0
0,61,127,0
0,56,115,26
0,28,127,64
0,28,127,0
0,28,127,0
0,36,127,0
0,39,112,0
0,40,79,0
0,42,127,0
0,56,107,0
0,62,127,0
0,28,127,92
0,39,112,0
0,40,79,0
0,42,82,0
0,56,127,0
0,62,127,0
0,39,64,26
0,62,127,0
0,28,127,6
0,28,127,0
0,28,127,0
0,36,127,0
0,39,100,0
0,40,79,0
0,42,127,0
0,56,127,0
0,39,112,26
0,41,127,0
0,56,111,0
0,62,127,0
0,28,127,18
0,40,79,0
0,42,70,0
0,64,127,0
0,28,127,2
0,28,127,0
0,36,127,0
0,40,79,0
0,42,127,0
0,69,127,0
0,67,126,118
0,69,127,0
0,71,127,0
0,74,108,0
0,28,127,4
0,40,79,0
0,42,70,0
0,69,70,0
0,67,108,22
0,69,127,0
0,71,127,0
0,72,103,0
0,74,117,0
0,67,93,58
0,69,123,0
0,71,127,0
0,74,120,0
0,28,127,4
0,28,127,0
0,36,127,0
0,40,79,0
