track,note,velocity,time
1,28,114,7259
1,40,84,25
1,28,115,121
1,40,87,5
1,28,112,105
1,40,80,9
1,28,110,123
1,40,83,9
1,28,103,111
1,40,87,13
1,28,109,105
1,40,84,19
1,28,106,115
1,40,82,15
1,28,101,119
1,40,80,9
1,28,112,103
1,40,83,9
1,28,107,111
1,40,87,9
1,28,108,107
1,40,81,13
1,28,102,115
1,40,86,23
1,28,100,117
1,40,86,15
1,28,109,117
1,40,87,15
1,28,103,111
1,40,88,13
1,28,101,115
1,40,79,17
1,28,109,123
1,40,86,17
1,28,104,113
1,40,79,7
1,28,104,123
1,40,79,9
1,28,104,115
1,40,84,19
1,28,102,103
1,40,78,19
1,28,100,123
1,40,85,21
1,28,107,109
1,40,78,7
1,28,106,123
1,40,78,21
1,28,105,113
1,40,82,29
1,28,107,113
1,40,80,29
1,28,105,109
1,40,81,29
1,28,105,109
1,40,86,29
1,28,107,117
1,40,82,27
1,28,100,107
1,40,85,17
1,28,105,115
1,40,82,29
1,28,105,105
1,40,84,5
1,28,102,101
1,40,78,25
1,28,102,115
1,40,87,5
1,28,100,119
1,40,86,29
1,28,103,103
1,40,78,7
1,28,101,119
1,40,84,25
1,28,107,117
1,40,86,7
1,28,105,111
1,40,86,7
1,28,104,109
1,40,85,25
1,28,108,117
1,40,81,11
1,28,107,103
1,40,78,21
1,28,105,111
1,40,79,13
1,28,106,121
1,40,79,11
1,28,102,117
1,40,83,15
1,28,108,119
1,40,84,29
1,28,105,105
1,40,78,27
1,28,102,123
1,40,78,11
1,28,100,117
1,40,79,21
1,28,100,107
1,40,80,29
1,28,108,113
1,40,79,17
1,28,101,107
1,40,86,25
1,28,109,117
1,40,85,5
1,28,100,113
1,40,78,5
1,28,101,123
1,40,85,15
1,28,106,103
1,40,80,19
1,28,105,111
1,40,80,7
1,28,109,107
1,40,82,9
1,28,106,109
1,40,84,17
1,28,106,107
1,40,86,25
1,28,108,123
1,40,78,29
1,28,102,109
1,40,84,25
1,28,101,103
1,40,86,5
1,28,104,103
1,40,80,7
1,28,102,103
1,40,80,5
1,28,100,111
1,40,80,23
1,28,108,105
1,40,80,25
1,28,108,107
1,40,87,21
1,28,107,119
1,40,80,13
1,28,100,111
1,40,81,13
1,28,104,121
1,40,88,29
1,28,102,103
1,40,84,5
1,28,107,121
1,40,78,17
1,28,101,121
1,40,82,21
1,28,100,105
1,40,86,17
1,28,104,109
1,40,86,17
1,28,103,109
1,40,78,17
1,28,101,123
1,40,85,5
1,28,105,111
1,40,87,17
1,28,108,111
1,40,80,19
1,28,109,103
1,40,81,27
1,28,100,103
1,40,86,13
1,28,100,117
1,40,78,27
1,28,102,123
1,40,81,19
1,28,104,123
1,40,80,21
1,28,105,107
1,40,85,5
1,28,103,105
1,40,82,27
1,28,100,109
1,40,86,7
1,28,104,121
1,40,86,15
1,28,105,105
1,40,79,5
1,28,106,121
1,40,85,9
1,28,101,107
1,40,79,11
1,28,108,123
1,40,83,7
1,28,107,115
1,40,87,23
1,28,106,107
1,40,80,11
1,28,106,103
1,40,79,25
1,28,101,117
1,40,81,13
1,28,102,107
1,40,78,29
1,28,105,103
1,40,83,23
1,28,106,113
1,40,79,23
1,28,102,111
1,40,85,5
1,28,106,105
1,40,80,9
1,28,101,121
1,40,78,29
1,28,103,121
1,40,87,27
1,28,106,115
1,40,84,27
1,28,109,121
1,40,81,13
1,28,105,113
1,40,81,23
1,28,105,123
1,40,87,11
1,28,103,115
1,40,83,23
1,28,108,107
1,40,80,25
1,28,104,111
1,40,85,11
1,28,108,103
1,40,86,19
1,28,107,123
1,40,81,11
1,28,104,103
1,40,85,15
1,28,102,111
1,40,86,15
1,28,107,121
1,40,80,5
1,28,109,123
1,40,84,15
1,28,102,105
1,40,86,23
1,28,105,103
1,40,87,15
1,28,108,117
1,40,86,11
1,28,102,103
1,40,81,25
1,28,104,103
1,40,79,17
1,28,105,103
1,40,85,5
1,28,109,111
1,40,87,15
1,28,107,113
1,40,87,15
1,28,106,123
1,40,84,11
1,28,100,123
1,40,82,19
1,28,102,107
1,40,82,7
1,28,108,123
1,40,81,23
1,28,107,109
1,40,79,25
1,28,101,117
1,40,85,27
1,28,107,123
1,40,85,17
1,28,105,115
1,40,78,27
1,28,105,103
1,40,83,21
1,28,106,115
1,40,88,7
1,28,107,121
1,40,83,13
1,28,103,103
1,40,79,11
1,28,101,121
1,40,83,19
1,28,108,113
1,40,85,7
1,28,101,117
1,40,81,21
1,40,112,113
1,38,127,2997
1,36,124,3003
1,38,112,2615
1,40,86,17
1,31,109,19
1,32,78,23
1,33,103,5
1,33,63,179
1,33,74,143
1,33,87,167
1,33,102,175
1,28,101,111
1,40,86,7
1,28,109,105
1,40,79,7
1,28,102,121
1,40,81,9
1,28,101,121
1,40,86,9
1,28,104,111
1,40,81,23
1,28,102,103
1,40,78,7
1,28,102,113
1,40,82,5
1,28,106,107
1,40,83,7
1,28,102,119
1,40,87,13
1,28,104,107
1,40,81,29
1,28,105,121
1,40,80,5
1,28,100,117
1,40,79,5
1,28,109,117
1,40,85,13
1,28,108,113
1,40,82,21
1,28,102,111
1,40,83,29
1,28,101,113
1,40,78,7
1,28,105,121
1,40,80,25
1,28,108,111
1,40,85,15
1,28,102,123
1,40,83,5
1,28,102,113
1,40,79,5
1,28,105,113
1,40,80,11
1,28,107,105
1,40,83,13
1,28,106,121
1,40,86,5
1,28,103,123
1,40,85,27
1,28,108,105
1,40,81,25
1,28,109,103
1,40,79,23
1,28,101,105
1,40,86,13
1,28,106,113
1,40,83,15
1,28,109,103
1,40,82,27
1,28,106,109
1,40,78,17
1,28,100,107
1,40,78,19
1,28,100,115
1,40,79,23
1,28,108,119
1,40,78,19
1,28,104,109
1,40,82,7
1,28,109,121
1,40,86,9
1,28,108,123
1,40,80,17
1,28,100,115
1,40,79,13
1,28,103,107
1,40,85,15
1,28,101,115
1,40,87,27
1,28,108,121
1,40,79,25
1,28,104,105
1,40,79,13
1,28,100,111
1,40,79,27
1,28,104,109
1,40,83,27
1,28,105,105
1,40,86,15
1,28,104,113
1,40,78,29
1,28,105,105
1,40,80,13
1,28,109,111
1,40,80,5
1,28,107,123
1,40,83,17
1,28,101,111
1,40,81,13
1,28,105,117
1,40,79,9
1,28,103,119
1,40,82,19
1,28,106,107
1,40,79,19
1,28,100,123
1,40,87,29
1,28,100,109
1,40,82,17
1,28,109,119
1,40,86,15
1,28,102,105
1,40,78,27
1,28,109,119
1,40,82,27
1,28,106,111
1,40,80,15
1,28,104,111
1,40,82,21
1,28,108,113
1,40,87,7
1,28,104,105
1,40,84,19
1,28,105,123
1,40,78,5
1,28,100,103
1,40,80,9
1,28,102,115
1,40,81,15
1,28,104,3189
1,40,79,9
1,28,102,117
1,40,78,23
1,28,104,113
1,40,80,13
1,28,108,107
1,40,87,13
1,28,108,111
1,40,80,23
1,28,106,121
1,40,81,23
1,28,104,103
1,40,87,9
1,28,106,113
1,40,82,17
1,28,107,113
1,40,81,5
1,28,105,105
1,40,87,21
1,28,103,107
1,40,81,13
1,28,104,103
1,40,84,25
1,28,104,103
1,40,83,25
1,28,107,115
1,40,84,9
1,28,101,109
1,40,84,27
1,28,105,111
1,40,85,19
1,28,109,105
1,40,82,7
1,28,107,119
1,40,84,25
1,28,106,109
1,40,78,9
1,28,104,115
1,40,85,17
1,28,107,123
1,40,85,15
1,28,108,119
1,40,81,9
1,28,100,113
1,40,80,29
1,28,109,117
1,40,87,23
1,28,109,105
1,40,78,27
1,28,104,105
1,40,78,29
1,28,109,121
1,40,83,19
1,28,103,115
1,40,78,27
1,28,108,121
1,40,81,29
1,28,106,119
1,40,79,29
1,28,106,117
1,40,84,25
1,28,104,113
1,40,84,7
1,28,103,119
1,40,78,23
1,28,102,109
1,40,87,19
1,28,108,103
1,40,84,25
1,28,107,109
1,40,82,7
1,28,101,103
1,40,80,21
1,28,100,119
1,40,87,21
1,28,108,109
1,40,81,17
1,28,100,105
1,40,85,5
1,28,101,109
1,40,80,25
1,28,109,117
1,40,79,23
1,28,101,109
1,40,78,7
1,28,105,123
1,40,82,19
1,28,106,119
1,40,78,23
1,28,107,123
1,40,80,19
1,28,102,113
1,40,81,17
1,28,102,121
1,40,86,25
1,28,108,103
1,40,80,15
1,28,102,109
1,40,81,23
1,28,107,119
1,40,82,25
1,28,104,119
1,40,86,15
1,28,100,109
1,40,84,15
1,28,104,119
1,40,78,5
1,28,108,115
1,40,80,27
1,28,109,123
1,40,86,19
1,28,102,107
1,40,86,23
1,28,110,117
1,40,81,27
1,28,102,119
1,40,85,29
1,28,101,105
1,40,83,29
1,28,110,121
1,40,85,29
1,28,109,107
1,40,87,7
1,28,101,117
1,40,85,29
1,28,108,115
1,40,82,23
1,28,101,101
1,40,86,7
1,28,108,123
1,40,87,13
1,28,103,111
1,40,83,5
1,28,104,103
1,40,80,15
1,28,103,119
1,40,79,21
1,28,109,119
1,40,85,11
1,28,100,107
1,40,85,29
1,28,107,123
1,40,81,11
1,28,103,119
1,40,88,23
1,28,106,109
1,40,85,15
1,28,109,103
1,40,84,7
1,28,100,103
1,40,83,5
1,28,107,105
1,40,82,25
1,28,101,113
1,40,80,19
1,28,102,109
1,40,87,9
1,28,102,113
1,40,81,23
1,28,105,3187
1,40,87,27
1,28,101,103
1,40,83,11
1,28,106,123
1,40,86,17
1,28,107,105
1,40,82,5
1,28,101,109
1,40,83,17
1,28,104,121
1,40,79,15
1,28,104,107
1,40,78,27
1,28,103,109
1,40,79,7
1,28,104,123
1,40,83,23
1,28,109,111
1,40,79,13
1,28,103,107
1,40,85,17
1,28,103,117
1,40,82,23
1,28,100,113
1,40,78,7
1,28,105,121
1,40,79,29
1,28,105,109
1,40,85,9
1,28,105,117
1,40,83,27
1,28,108,121
1,40,83,21
1,28,109,117
1,40,80,23
1,28,107,109
1,40,80,11
1,28,104,123
1,40,82,13
1,28,103,103
1,40,86,25
1,28,101,121
1,40,78,17
1,28,101,119
1,40,87,17
1,28,107,123
1,40,81,9
1,28,105,119
1,40,84,25
1,28,108,103
1,40,84,23
1,28,105,111
1,40,79,9
1,28,109,107
1,40,79,5
1,28,108,105
1,40,85,29
1,28,100,107
1,40,84,9
1,28,100,119
1,40,81,5
1,28,107,107
1,40,79,9
1,28,101,119
1,40,83,15
1,28,103,121
1,40,78,17
1,28,105,117
1,40,87,13
1,28,104,115
1,40,81,11
1,28,100,123
1,40,80,23
1,28,108,103
1,40,83,15
1,28,100,115
1,40,84,29
1,28,101,119
1,40,86,13
1,28,105,107
1,40,79,25
1,28,102,107
1,40,80,15
1,28,104,111
1,40,84,7
1,28,108,113
1,40,84,7
1,28,100,121
1,40,80,13
1,28,105,115
1,40,84,15
1,28,108,115
1,40,84,21
1,28,107,123
1,40,79,23
1,28,104,111
1,40,78,11
1,28,103,113
1,40,87,23
1,28,100,123
1,40,87,23
1,28,108,103
1,40,78,27
1,28,102,103
1,40,83,7
1,28,107,105
1,40,84,13
1,28,101,121
1,40,78,9
1,28,102,123
1,40,85,21
1,28,105,111
1,40,79,29
1,28,103,123
1,40,87,19
1,28,100,111
1,40,82,15
1,28,101,113
1,40,78,23
1,28,106,117
1,40,86,11
1,28,101,123
1,40,81,17
1,28,108,119
1,40,85,3
1,28,105,103
1,40,82,13
1,28,123,115
1,28,127,199
1,28,126,205
1,28,122,205
1,28,125,199
1,28,123,197
1,28,124,199
1,28,126,203
1,28,127,199
1,28,127,197
1,28,124,201
1,28,125,219
1,28,123,199
1,28,126,215
1,28,126,209
1,28,127,201
2,76,61,1095
2,71,69,0
2,67,62,0
2,64,71,0
2,62,74,0
2,74,61,7
2,69,63,0
2,66,69,0
2,76,72,7
2,71,68,0
2,67,73,0
2,64,71,0
2,62,69,0
2,74,70,7
2,69,62,0
2,66,62,0
2,76,69,7
2,71,68,0
2,67,67,0
2,64,73,0
2,62,66,0
2,74,70,7
2,69,72,0
2,66,61,0
2,76,64,7
2,71,70,0
2,67,73,0
2,64,80,0
2,62,82,0
2,74,63,7
2,69,63,0
2,66,80,0
2,76,66,7
2,71,67,0
2,67,72,0
2,64,73,0
2,62,61,0
2,74,67,7
2,69,64,0
2,66,76,0
2,76,65,6151
2,71,72,0
2,67,67,0
2,64,65,0
2,62,65,0
2,74,77,7
2,69,73,0
2,66,64,0
2,76,65,7
2,71,68,0
2,67,73,0
2,64,62,0
2,62,71,0
2,74,68,7
2,69,68,0
2,66,64,0
2,67,73,10759
2,52,66,0
2,28,73,0
2,66,73,13
2,38,124,0
2,26,104,0
2,36,123,9
2,24,79,0
2,64,70,16
2,61,70,7
2,45,114,0
2,33,127,0
2,71,69,12295
2,67,61,0
2,64,67,0
2,52,64,0
2,69,72,7
2,66,71,0
2,62,61,0
2,50,64,0
2,67,72,7
2,64,70,0
2,60,74,0
2,48,68,0
2,69,70,7
2,66,65,0
2,62,67,0
2,50,73,0
2,52,80,35
2,71,74,9223
2,67,75,0
2,64,71,0
2,52,66,0
2,69,72,7
2,66,75,0
2,62,63,0
2,50,74,0
2,71,71,7
2,67,67,0
2,64,68,0
2,52,69,0
2,69,74,7
2,66,68,0
2,62,74,0
2,50,63,0
2,62,76,7
2,64,68,7
2,59,74,7
2,62,72,7
2,64,72,7
2,59,74,7
2,62,68,7
2,64,56,7
2,59,78,7
2,71,65,3079
2,67,74,0
2,64,62,0
2,52,63,0
2,71,72,7
2,67,72,0
2,64,70,0
2,52,69,0
2,69,62,7
2,66,64,0
2,62,64,0
2,50,61,0
2,71,66,7
2,67,64,0
2,64,64,0
2,52,72,0
2,69,66,7
2,66,67,0
2,62,69,0
2,50,73,0
2,76,95,3079
2,64,101,0
2,74,99,19
2,62,96,0
2,79,93,7
2,81,102,7
2,64,97,23
2,40,92,0
3,74,114,2587
3,74,111,99
3,74,116,123
3,74,107,7
3,76,114,103
3,76,115,107
3,76,111,179
3,71,105,3
3,76,107,39
3,76,113,955
3,76,115,23
3,76,110,1359
3,76,116,7
3,76,114,627
3,76,113,11
3,74,120,547
3,76,120,7
3,76,120,379
3,74,120,131
3,76,120,188
3,74,120,463
3,74,119,91
3,74,120,39
3,74,101,111
3,74,120,39
3,71,120,35
3,74,120,31
3,76,120,184
3,74,120,275
3,76,120,188
3,76,120,395
3,74,120,131
3,76,120,188
3,74,120,451
3,74,113,51
3,74,120,15
3,74,119,67
3,76,120,23
3,74,92,579
3,76,120,184
3,76,109,359
3,74,126,127
3,76,114,188
3,74,105,427
3,74,117,59
3,74,106,27
3,74,119,83
3,74,106,35
3,71,112,39
3,74,127,27
3,76,110,176
3,74,99,279
3,76,124,192
3,76,109,387
3,74,121,131
3,76,118,192
3,74,120,1207
3,74,108,35
3,74,117,23
3,74,112,55
3,76,125,23
3,78,123,95
3,78,110,55
3,78,126,43
3,78,111,23
3,76,127,43
3,74,111,611
3,76,122,7
3,76,112,379
3,74,127,131
3,76,118,188
3,74,127,463
3,74,112,91
3,74,124,39
3,74,94,111
3,74,127,39
3,71,111,35
3,74,123,31
3,76,115,184
3,74,112,275
3,76,125,188
3,76,112,395
3,74,125,131
3,76,113,188
3,74,120,451
3,74,107,51
3,74,124,15
3,74,109,67
3,76,122,23
3,74,111,579
3,76,127,184
3,76,108,359
3,74,124,127
3,76,123,188
3,74,119,427
3,74,106,59
3,74,124,27
3,74,111,83
3,74,127,35
3,71,113,39
3,74,125,27
3,76,124,176
3,74,111,279
3,76,121,192
3,76,117,387
3,74,123,131
3,76,116,192
3,74,121,1207
3,74,106,35
3,74,121,23
3,74,113,55
3,76,125,23
3,76,110,2583
3,71,113,1407
3,71,110,43
3,73,125,188
3,74,113,35
3,76,127,180
3,71,112,7
3,71,127,1459
3,76,123,111
3,76,112,31
3,76,127,23
3,76,111,275
3,74,119,27
3,76,110,23
3,79,126,67
3,76,111,31
3,71,109,35
3,76,124,123
3,76,114,47
3,76,111,23
3,76,123,275
3,74,105,19
3,76,119,108
3,76,112,79
3,76,125,15
3,76,118,151
