track,note,velocity,time
1,70,114,4
1,35,114,1
1,70,0,0
1,35,0,1
1,70,114,46
1,70,0,0
1,70,114,48
1,70,0,0
1,70,114,48
1,70,0,0
1,70,114,48
1,70,0,0
1,70,114,48
1,70,0,0
1,35,114,48
1,70,114,0
1,70,0,0
1,35,0,1
1,35,114,47
1,70,114,0
1,70,0,0
1,35,0,1
1,70,114,47
1,70,0,0
1,70,114,48
1,70,0,1
1,70,114,47
1,70,0,0
1,70,114,48
1,70,0,0
1,70,114,48
1,70,0,0
1,70,114,48
1,70,0,0
1,70,114,48
1,70,0,0
1,70,114,48
1,70,0,0
1,70,114,49
1,35,114,1
1,70,0,0
1,35,0,1
1,70,114,45
1,70,0,0
1,70,114,48
1,70,0,0
1,70,114,48
1,70,0,0
1,70,114,48
1,70,0,0
1,70,114,48
1,70,0,0
1,35,114,48
1,70,114,0
1,35,0,1
1,70,0,0
1,35,114,47
1,70,114,0
1,70,0,0
1,35,0,1
1,70,114,48
1,70,0,1
1,70,114,46
1,70,0,0
1,70,114,48
1,70,0,0
1,70,114,48
1,70,0,0
1,70,114,48
1,70,0,1
1,70,114,47
1,70,0,0
1,70,114,48
1,70,0,0
1,70,114,48
1,70,0,0
1,35,114,48
1,70,114,0
1,70,0,0
1,35,0,1
1,70,114,47
1,70,0,0
1,70,114,48
1,70,0,0
1,70,114,48
1,70,0,0
1,70,114,48
1,70,0,0
1,70,114,48
1,70,0,0
1,35,114,48
1,70,114,0
1,70,0,0
1,35,0,1
1,35,114,47
1,70,114,0
1,70,0,0
1,35,0,1
1,70,114,47
1,70,0,0
1,70,114,48
1,70,0,1
1,70,114,47
1,70,0,0
1,70,114,48
1,70,0,1
1,70,114,47
1,70,0,0
1,70,114,48
1,70,0,0
1,70,114,48
1,70,0,0
1,70,114,48
1,70,0,0
1,35,114,48
1,70,114,0
1,70,0,0
1,35,0,1
1,70,114,47
1,70,0,0
1,70,114,48
1,70,0,0
1,70,114,48
1,70,0,0
1,70,114,48
1,70,0,0
1,70,114,48
1,70,0,0
1,35,114,48
1,70,114,0
1,35,0,1
1,70,0,0
1,35,114,47
1,70,114,0
1,70,0,0
1,35,0,1
1,70,114,47
1,70,0,1
1,70,114,47
1,70,0,0
1,70,114,48
1,70,0,1
1,70,114,47
1,70,0,0
1,70,114,48
1,70,0,1
1,70,114,47
1,70,0,0
1,70,114,48
1,70,0,0
1,70,114,48
1,70,0,0
1,35,114,48
1,70,114,0
1,70,0,0
1,35,0,1
1,70,114,47
1,70,0,0
1,70,114,48
1,70,0,0
1,70,114,48
1,70,0,0
1,70,114,48
1,70,0,0
1,70,114,48
1,70,0,0
1,35,114,48
1,70,114,0
1,70,0,0
1,35,0,1
1,35,114,47
1,70,114,0
1,70,0,0
1,35,0,1
1,70,114,47
1,70,0,0
1,70,114,48
1,70,0,1
1,70,114,47
1,70,0,0
1,70,114,48
1,70,0,0
1,70,114,48
1,70,0,0
1,70,114,48
1,70,0,0
1,70,114,48
1,70,0,1
1,70,114,47
1,70,0,0
1,35,114,48
1,70,114,0
1,70,0,0
1,35,0,1
1,70,114,47
1,70,0,0
1,70,114,48
1,70,0,1
1,70,114,47
1,70,0,0
1,70,114,48
1,70,0,0
1,70,114,48
1,70,0,0
1,35,114,48
1,70,114,0
1,70,0,0
1,35,0,1
1,35,114,47
1,70,114,0
1,70,0,0
1,35,0,1
1,70,114,47
1,70,0,0
1,70,114,48
1,70,0,1
1,70,114,47
1,70,0,0
1,70,114,48
1,70,0,0
1,70,114,48
1,70,0,0
1,70,114,48
1,70,0,0
1,70,114,48
1,70,0,1
1,70,114,47
1,70,0,0
1,35,114,48
1,70,114,0
1,35,0,1
1,70,0,0
1,70,114,47
1,70,0,0
1,70,114,48
1,70,0,1
1,70,114,47
1,70,0,0
1,70,114,48
1,70,0,0
1,70,114,48
1,70,0,0
1,35,114,48
1,70,114,0
1,70,0,0
1,35,0,1
1,35,114,47
1,70,114,0
1,70,0,0
1,35,0,1
1,70,114,47
1,70,0,0
1,70,114,48
1,70,0,0
1,70,114,48
1,70,0,0
1,70,114,48
1,70,0,0
1,70,114,48
1,70,0,0
1,70,114,48
1,70,0,0
1,70,114,48
1,70,0,1
1,70,114,47
1,70,0,0
1,35,114,48
1,70,114,0
1,70,0,0
1,35,0,1
1,70,114,47
1,70,0,0
1,70,114,48
1,70,0,1
1,70,114,47
1,70,0,0
1,70,114,48
1,70,0,0
1,70,114,48
1,70,0,0
1,35,114,48
1,70,114,0
1,70,0,0
1,35,0,1
1,35,114,47
1,70,114,0
1,70,0,0
1,35,0,1
1,70,114,47
1,70,0,0
1,70,114,48
1,70,0,1
1,70,114,47
1,70,0,0
1,70,114,48
1,70,0,0
1,70,114,48
1,70,0,0
1,70,114,48
1,70,0,0
1,70,114,48
1,70,0,1
1,70,114,47
1,70,0,0
1,35,114,48
1,70,114,0
1,70,0,0
1,35,0,1
1,70,114,47
1,70,0,0
1,70,114,48
1,70,0,0
1,70,114,48
1,70,0,0
1,70,114,48
1,70,0,0
1,70,114,48
1,70,0,0
1,35,114,48
1,70,114,0
1,70,0,0
1,35,0,1
1,35,114,47
1,70,114,0
1,70,0,0
1,35,0,1
1,70,114,47
1,70,0,1
1,70,114,47
1,70,0,0
1,70,114,48
1,70,0,1
1,70,114,47
1,70,0,0
1,70,114,48
1,70,0,0
1,70,114,48
1,70,0,0
1,70,114,48
1,70,0,0
1,70,114,48
1,70,0,0
1,35,114,48
1,70,114,0
1,70,0,0
1,35,0,1
1,70,114,47
1,70,0,1
1,70,114,47
1,70,0,0
1,70,114,48
1,70,0,0
1,70,114,48
1,70,0,0
1,70,114,48
1,70,0,0
1,35,114,48
1,70,114,0
1,70,0,0
1,35,0,1
1,35,114,47
1,70,114,0
1,70,0,0
1,35,0,1
1,70,114,47
1,70,0,0
1,70,114,48
1,70,0,0
1,70,114,48
1,70,0,0
1,70,114,48
1,70,0,0
1,70,114,48
1,70,0,0
1,70,114,48
1,70,0,0
1,70,114,48
1,70,0,0
1,70,114,48
1,70,0,0
1,35,114,48
1,70,114,0
1,35,0,1
1,70,0,0
1,70,114,47
1,70,0,0
1,70,114,48
1,70,0,0
1,70,114,49
1,70,0,1
1,70,114,46
1,70,0,1
1,70,114,47
1,70,0,0
1,35,114,48
1,70,114,0
1,70,0,0
1,35,0,1
1,35,114,47
1,70,114,0
1,70,0,0
1,35,0,1
1,70,114,47
1,70,0,1
1,70,114,47
1,70,0,0
1,70,114,48
1,70,0,0
1,70,114,48
1,70,0,0
1,70,114,48
1,70,0,1
1,70,114,47
1,70,0,0
1,70,114,48
1,70,0,0
1,70,114,48
1,70,0,0
1,35,114,48
1,70,114,0
1,70,0,0
1,35,0,1
1,70,114,47
1,70,0,1
1,70,114,47
1,70,0,0
1,70,114,48
1,70,0,0
1,70,114,48
1,70,0,0
1,70,114,48
1,70,0,0
1,35,114,48
1,70,114,0
1,70,0,0
1,35,0,1
1,35,114,47
1,70,114,0
1,70,0,0
1,35,0,1
1,35,114,47
1,70,114,0
1,70,0,0
1,35,0,1
1,70,114,47
1,70,0,0
1,70,114,48
1,70,0,1
1,70,114,47
1,70,0,0
1,70,114,48
1,70,0,0
1,70,114,48
1,70,0,0
1,35,114,48
1,70,114,0
1,70,0,0
1,35,0,1
1,35,114,47
1,70,114,0
1,70,0,0
1,35,0,1
1,70,114,47
1,70,0,0
1,70,114,48
1,70,0,1
1,70,114,47
1,70,0,0
1,70,114,48
1,70,0,0
1,70,114,48
1,70,0,0
1,70,114,48
1,70,0,0
1,70,114,48
1,70,0,0
1,70,114,48
1,70,0,0
1,35,114,48
1,70,114,0
1,35,0,1
1,70,0,0
1,70,114,47
1,70,0,0
1,70,114,48
1,70,0,0
1,70,114,49
1,70,0,1
1,70,114,46
1,70,0,0
1,70,114,48
1,70,0,0
1,35,114,48
1,70,114,0
1,70,0,0
1,35,0,1
1,35,114,47
1,70,114,0
1,70,0,0
1,35,0,1
1,70,114,47
1,70,0,1
1,70,114,47
1,70,0,0
1,70,114,48
1,70,0,1
1,70,114,47
1,70,0,0
1,70,114,48
1,70,0,0
1,70,114,48
1,70,0,0
1,70,114,48
1,70,0,0
1,70,114,48
1,70,0,0
1,35,114,48
1,70,114,0
1,70,0,0
1,35,0,1
1,70,114,47
1,70,0,0
1,70,114,48
1,70,0,0
1,70,114,49
1,70,0,1
1,70,114,46
1,70,0,1
1,70,114,47
1,70,0,1
1,35,114,47
1,70,114,0
1,70,0,0
1,35,0,1
1,35,114,47
1,70,114,0
1,35,0,1
1,70,0,0
1,70,114,47
1,70,0,1
1,70,114,47
1,70,0,0
1,70,114,48
1,70,0,1
1,70,114,47
1,70,0,0
1,70,114,48
1,70,0,0
1,70,114,48
1,70,0,0
1,70,114,48
1,70,0,0
1,70,114,48
1,70,0,0
1,35,114,48
1,70,114,0
1,70,0,0
1,35,0,1
1,70,114,47
1,70,0,0
1,70,114,48
1,70,0,0
1,70,114,48
1,70,0,0
1,70,114,48
1,70,0,1
1,70,114,47
1,70,0,0
1,35,114,48
1,70,114,0
1,70,0,0
1,35,0,1
1,35,114,47
1,70,114,0
1,70,0,0
1,35,0,1
1,70,114,47
1,70,0,1
1,70,114,47
1,70,0,0
1,70,114,48
1,70,0,1
1,70,114,47
1,70,0,0
1,70,114,48
1,70,0,0
1,70,114,48
1,70,0,0
1,70,114,48
1,70,0,0
1,70,114,48
1,70,0,0
1,35,114,48
1,70,114,0
1,70,0,0
1,35,0,1
1,70,114,47
1,70,0,0
1,37,110,44
1,70,114,4
1,70,0,0
1,70,114,33
1,70,0,0
1,37,110,44
1,70,114,5
1,70,0,1
1,70,114,31
1,70,0,1
1,37,110,43
1,35,114,5
1,70,114,0
1,35,0,1
1,70,0,0
1,35,114,31
1,70,114,0
1,70,0,0
1,35,0,1
1,70,114,47
1,70,0,0
1,70,114,48
1,70,0,0
1,37,110,44
1,70,114,4
1,70,0,0
1,70,114,33
1,70,0,0
1,37,110,44
1,70,114,5
1,70,0,1
1,70,114,31
1,70,0,1
1,37,110,43
1,70,114,5
1,70,0,1
1,70,114,31
1,70,0,1
1,35,114,50
1,70,114,0
1,35,0,1
1,70,0,0
1,70,114,44
1,70,0,0
1,37,110,44
1,70,114,4
1,70,0,0
1,70,114,33
1,70,0,0
1,37,110,44
1,70,114,4
1,70,0,0
1,70,114,31
1,70,0,0
1,37,110,44
1,35,114,4
1,70,114,0
1,70,0,0
1,35,0,1
1,35,114,31
1,70,114,0
1,70,0,0
1,35,0,1
1,70,114,47
1,70,0,0
1,70,114,48
1,70,0,0
1,37,110,44
1,70,114,4
1,70,0,0
1,70,114,33
1,70,0,0
1,37,110,44
1,70,114,4
1,70,0,0
1,70,114,31
1,70,0,0
1,37,110,44
1,70,114,4
1,70,0,0
1,70,114,31
1,70,0,0
1,35,114,48
1,70,114,0
1,70,0,0
1,35,0,1
1,70,114,47
1,70,0,0
1,37,110,44
1,70,114,4
1,70,0,0
1,70,114,34
1,70,0,1
1,37,110,42
1,70,114,4
1,70,0,0
1,70,114,31
1,70,0,1
1,37,110,43
1,35,114,4
1,70,114,0
1,70,0,0
1,35,0,1
1,35,114,31
1,70,114,0
1,70,0,0
1,35,0,1
1,70,114,47
1,70,0,0
1,70,114,48
1,70,0,0
1,37,110,44
1,70,114,4
1,70,0,1
1,70,114,33
1,70,0,0
1,37,110,44
1,70,114,4
1,70,0,0
1,70,114,31
1,70,0,0
1,37,110,44
1,70,114,4
1,70,0,0
1,70,114,31
1,70,0,0
1,35,114,48
1,70,114,0
1,35,0,1
1,70,0,0
1,70,114,47
1,70,0,1
1,37,110,43
1,70,114,4
1,70,0,1
1,70,114,33
1,70,0,0
1,37,110,44
1,70,114,4
1,70,0,1
1,70,114,31
1,70,0,0
1,37,110,44
1,35,114,4
1,70,114,0
1,35,0,1
1,70,0,0
1,35,114,31
1,70,114,0
1,70,0,0
1,35,0,1
1,70,114,48
1,70,0,1
1,70,114,46
1,70,0,0
1,37,110,44
1,70,114,4
1,70,0,0
1,70,114,33
1,70,0,0
1,37,110,44
1,70,114,4
1,70,0,0
1,70,114,31
1,70,0,0
1,37,110,44
1,70,114,4
1,70,0,0
1,70,114,31
1,70,0,0
1,35,114,48
1,70,114,0
1,35,0,1
1,70,0,0
1,70,114,47
1,70,0,0
1,37,110,44
1,70,114,4
1,70,0,0
1,70,114,33
1,70,0,0
1,37,110,44
1,70,114,5
1,70,0,1
1,70,114,31
1,70,0,1
1,37,110,43
1,35,114,5
1,70,114,0
1,35,0,1
1,70,0,0
1,35,114,31
1,70,114,0
1,70,0,0
1,35,0,1
1,70,114,47
1,70,0,0
1,70,114,48
1,70,0,0
1,37,110,44
1,70,114,4
1,70,0,0
1,70,114,33
1,70,0,0
1,37,110,44
1,70,114,4
1,70,0,0
1,70,114,31
1,70,0,0
1,37,110,44
1,70,114,4
1,70,0,0
1,70,114,31
1,70,0,0
1,35,114,48
1,70,114,0
1,70,0,0
1,35,0,1
1,70,114,47
1,70,0,0
1,37,110,44
1,70,114,4
1,70,0,0
1,70,114,33
1,70,0,0
1,37,110,44
1,70,114,4
1,70,0,0
1,70,114,31
1,70,0,0
1,37,110,44
1,35,114,4
1,70,114,0
1,70,0,0
1,35,0,1
1,35,114,31
1,70,114,0
1,70,0,0
1,35,0,1
1,70,114,47
1,70,0,0
1,70,114,48
1,70,0,1
1,37,110,43
1,70,114,4
1,70,0,0
1,70,114,33
1,70,0,1
1,37,110,43
1,70,114,4
1,70,0,0
1,70,114,31
1,70,0,1
1,37,110,43
1,70,114,5
1,70,0,1
1,70,114,31
1,70,0,0
1,35,114,50
1,70,114,0
1,35,0,1
1,70,0,0
1,70,114,45
1,70,0,0
1,37,110,44
1,70,114,4
1,70,0,0
1,70,114,34
1,70,0,1
1,37,110,42
1,70,114,4
1,70,0,0
1,70,114,31
1,70,0,0
1,37,110,44
1,35,114,4
1,70,114,0
1,70,0,0
1,35,0,1
1,35,114,31
1,70,114,0
1,70,0,0
1,35,0,1
1,70,114,47
1,70,0,0
1,70,114,48
1,70,0,0
1,37,110,44
1,70,114,4
1,70,0,0
1,70,114,33
1,70,0,0
1,37,110,44
1,70,114,4
1,70,0,0
1,70,114,31
1,70,0,0
1,37,110,44
1,70,114,4
1,70,0,0
1,70,114,31
1,70,0,0
1,35,114,48
1,70,114,0
1,70,0,0
1,35,0,1
1,70,114,47
1,70,0,0
1,37,110,44
1,70,114,4
1,70,0,0
1,70,114,33
1,70,0,0
1,37,110,44
1,70,114,4
1,70,0,0
1,70,114,31
1,70,0,0
1,37,110,44
1,35,114,4
1,70,114,0
1,70,0,0
1,35,0,1
1,35,114,31
1,70,114,0
1,70,0,0
1,35,0,1
1,70,114,47
1,70,0,0
1,70,114,48
1,70,0,1
1,37,110,43
1,70,114,4
1,70,0,0
1,70,114,33
1,70,0,1
1,37,110,43
1,70,114,4
1,70,0,0
1,70,114,31
1,70,0,1
1,37,110,43
1,70,114,5
1,70,0,1
1,70,114,31
1,70,0,0
1,35,114,48
1,70,114,0
1,35,0,1
1,70,0,0
1,70,114,47
1,70,0,0
1,37,110,44
1,70,114,4
1,70,0,0
1,70,114,34
1,70,0,1
1,37,110,42
1,70,114,4
1,70,0,0
1,70,114,31
1,70,0,1
1,37,110,43
1,35,114,4
1,70,114,0
1,70,0,0
1,35,0,1
1,35,114,31
1,70,114,0
1,70,0,0
1,35,0,1
1,70,114,47
1,70,0,0
1,70,114,48
1,70,0,0
1,37,110,44
1,70,114,4
1,70,0,0
1,70,114,33
1,70,0,0
1,37,110,44
1,70,114,4
1,70,0,0
1,70,114,31
1,70,0,0
1,37,110,44
1,70,114,4
1,70,0,0
1,70,114,31
1,70,0,0
1,35,114,48
1,70,114,0
1,70,0,0
1,35,0,1
1,70,114,47
1,70,0,0
1,37,110,44
1,70,114,4
1,70,0,0
1,70,114,33
1,70,0,0
1,37,110,44
