track,note,velocity,time
1,76,75,2500
1,83,94,4
1,76,72,4
1,88,100,12
1,76,78,8
1,83,88,8
1,76,84,20
1,88,100,8
1,76,89,4
1,83,95,8
1,76,79,0
1,88,102,12
1,83,98,4
1,80,97,0
1,75,75,236
1,80,94,4
1,75,72,4
1,83,100,12
1,75,78,8
1,80,88,0
1,75,84,12
1,83,100,8
1,75,89,4
1,80,95,8
1,75,79,0
1,87,102,12
1,83,98,4
1,80,97,0
1,76,75,236
1,81,94,4
1,76,72,4
1,85,102,12
1,76,78,8
1,81,88,8
1,76,84,12
1,85,100,8
1,76,89,4
1,81,95,8
1,76,79,0
1,88,103,12
1,85,98,0
1,81,97,0
1,78,75,236
1,83,94,4
1,78,72,4
1,87,100,12
1,78,78,8
1,83,88,8
1,78,84,12
1,87,102,8
1,78,89,4
1,83,95,8
1,78,79,0
1,90,102,12
1,87,100,4
1,83,98,0
1,76,75,236
1,83,94,4
1,76,72,4
1,88,100,12
1,76,78,8
1,83,88,8
1,76,84,12
1,88,100,8
1,76,89,4
1,83,95,8
1,76,79,0
1,88,102,12
1,83,98,4
1,80,97,0
1,75,75,236
1,80,94,4
1,75,72,4
1,83,100,12
1,75,78,8
1,80,88,8
1,75,84,12
1,83,100,8
1,75,89,4
1,80,95,16
1,75,79,0
1,87,102,12
1,83,98,4
1,80,97,0
1,76,75,236
1,81,94,4
1,76,72,4
1,85,102,12
1,76,78,8
1,81,88,8
1,76,84,12
1,85,100,8
1,76,89,4
1,81,95,8
1,76,79,0
1,88,103,12
1,85,98,4
1,81,97,0
1,78,75,236
1,83,94,4
1,78,72,4
1,87,100,12
1,78,78,8
1,83,88,8
1,78,84,12
1,87,102,8
1,78,89,4
1,83,95,8
1,78,79,0
1,90,102,12
1,87,100,4
1,83,98,0
1,76,75,236
1,83,94,4
1,76,72,4
1,88,100,12
1,76,78,8
1,83,88,8
1,76,84,12
1,88,100,0
1,76,89,4
1,83,95,8
1,76,79,0
1,88,102,12
1,83,98,4
1,80,97,0
1,75,75,236
1,80,94,4
1,75,72,4
1,83,100,12
1,75,78,8
1,80,88,8
1,75,84,12
1,83,100,8
1,75,89,4
1,80,95,8
1,75,79,0
1,87,102,12
1,83,98,4
1,80,97,0
1,76,75,236
1,81,94,4
1,76,72,4
1,85,102,12
1,76,78,12
1,81,88,8
1,76,84,12
1,85,100,8
1,76,89,4
1,81,95,8
1,76,79,0
1,88,103,12
1,85,98,4
1,81,97,0
1,78,75,236
1,83,94,4
1,78,72,4
1,87,100,12
1,78,78,8
1,83,88,8
1,78,84,12
1,87,102,8
1,78,89,4
1,83,95,8
1,78,79,0
1,90,102,12
1,87,100,4
1,83,98,0
1,76,75,236
1,83,94,4
1,76,72,4
1,88,100,12
1,76,78,8
1,83,88,8
1,76,84,12
1,88,100,8
1,76,89,4
1,83,95,8
1,76,79,0
1,88,102,12
1,83,98,4
1,80,97,0
1,76,75,236
1,84,94,4
1,76,72,4
1,88,100,12
1,76,78,8
1,84,88,8
1,76,84,12
1,88,100,8
1,76,89,4
1,84,95,8
1,76,79,0
1,88,102,12
1,84,98,4
1,80,97,0
1,76,75,236
1,81,94,4
1,76,72,4
1,85,102,12
1,76,78,8
1,81,88,8
1,76,84,12
1,85,100,8
1,76,89,4
1,81,95,8
1,76,79,0
1,88,103,12
1,85,98,4
1,81,97,0
1,76,75,236
1,81,94,4
1,76,72,4
1,84,100,12
1,76,78,8
1,81,88,8
1,76,80,12
1,83,99,20
1,78,88,4
1,83,95,8
1,78,98,0
1,75,92,0
1,76,75,228
1,83,94,4
1,76,72,4
1,88,100,12
1,76,78,8
1,83,88,8
1,76,84,12
1,88,100,8
1,76,89,4
1,83,95,8
1,76,79,0
1,88,102,12
1,83,98,4
1,80,97,0
1,75,75,236
1,80,94,4
1,75,72,4
1,83,100,12
1,75,78,8
1,80,88,8
1,75,84,12
1,83,100,8
1,75,89,4
1,80,95,8
1,75,79,0
1,87,102,12
1,83,98,4
1,80,97,0
1,76,75,236
1,81,94,4
1,76,72,4
1,85,102,12
1,76,78,8
1,81,88,8
1,76,84,12
1,83,100,8
1,75,89,4
1,78,95,8
1,75,79,0
1,83,103,12
1,78,98,4
1,75,97,0
1,76,75,236
1,83,94,4
1,76,72,4
1,88,100,12
1,76,78,12
1,83,88,8
1,76,84,12
1,84,100,8
1,76,89,4
1,79,95,8
1,76,79,0
1,82,102,12
1,79,98,4
1,76,97,0
1,77,75,236
1,84,94,4
1,77,72,4
1,89,100,12
1,77,78,8
1,84,88,8
1,77,84,12
1,89,100,8
1,77,89,4
1,84,95,8
1,77,79,0
1,89,102,12
1,84,98,4
1,81,97,0
1,76,75,236
1,81,94,4
1,76,72,4
1,84,100,12
1,76,78,8
1,81,88,8
1,76,84,12
1,84,100,8
1,76,89,4
1,81,95,8
1,76,79,0
1,88,102,16
1,84,98,4
1,81,97,0
1,77,75,236
1,82,94,4
1,77,72,16
1,86,102,12
1,77,78,8
1,82,88,8
1,77,84,12
1,86,100,8
1,77,89,4
1,82,95,8
1,77,79,0
1,89,103,12
1,86,98,4
1,82,97,0
1,79,75,236
1,84,94,16
1,79,72,4
1,88,100,12
1,79,78,8
1,84,88,8
1,79,84,12
1,88,102,8
1,79,89,12
1,84,95,8
1,79,79,0
1,91,102,12
1,88,100,4
1,84,98,0
1,77,75,236
1,84,94,4
1,77,72,4
1,89,100,12
1,77,78,8
1,84,88,8
1,77,84,12
1,89,100,8
1,77,89,4
1,84,95,8
1,77,79,0
1,89,102,12
1,84,98,4
1,81,97,0
1,76,75,236
1,81,94,4
1,76,72,4
1,84,100,12
1,76,78,8
1,81,88,8
1,76,84,12
1,84,100,8
1,76,89,4
1,81,95,8
1,76,79,0
1,88,102,12
1,84,98,4
1,81,97,0
1,77,75,240
1,82,94,4
1,77,72,4
1,86,102,12
1,77,78,8
1,82,88,8
1,77,84,12
1,86,100,8
1,77,89,4
1,82,95,8
1,77,79,0
1,89,103,12
1,86,98,4
1,82,97,0
1,79,75,236
1,84,94,4
1,79,72,4
1,88,100,12
1,79,78,8
1,84,88,0
1,79,84,12
1,88,102,8
1,79,89,4
1,84,95,8
1,79,79,0
1,91,102,12
1,88,100,4
1,84,98,0
1,77,75,236
1,84,94,4
1,77,72,4
1,89,100,12
1,77,78,8
1,84,88,8
1,77,84,12
1,89,100,8
1,77,89,4
1,84,95,8
1,77,79,0
1,89,102,12
1,84,98,0
1,81,97,0
1,77,75,236
1,85,94,4
1,77,72,4
1,89,100,12
1,77,78,8
1,85,88,8
1,77,84,12
1,89,100,8
1,77,89,4
1,85,95,8
1,77,79,0
1,89,102,12
1,85,98,4
1,81,97,0
1,77,75,236
1,82,94,4
1,77,72,4
1,86,102,12
1,77,78,8
1,82,88,8
1,77,84,12
1,86,100,8
1,77,89,4
1,82,95,8
1,77,79,0
1,89,103,12
1,86,98,4
1,82,97,0
1,77,75,236
1,82,94,4
1,77,72,8
1,85,100,12
1,77,78,8
1,82,88,4
1,77,80,12
1,84,99,24
1,79,88,8
1,84,95,12
1,79,98,4
1,76,92,4
1,77,75,228
1,84,94,8
1,77,72,4
1,89,100,16
1,77,78,8
1,84,88,8
1,77,84,12
1,89,100,8
1,77,89,4
1,84,95,8
1,77,79,0
1,89,102,12
1,84,98,4
1,81,97,0
1,76,75,236
1,81,94,4
1,76,72,4
1,84,100,12
1,76,78,8
1,81,88,8
1,76,84,12
1,84,100,8
1,76,89,4
1,81,95,8
1,76,79,0
1,88,102,12
1,84,98,4
1,81,97,0
1,77,82,236
1,82,80,48
1,77,86,80
1,86,97,4
1,77,72,0
1,82,72,8
1,77,88,84
1,84,87,12
1,88,84,8
1,84,79,4
1,82,74,12
1,77,69,240
1,84,81,52
1,77,75,0
1,89,89,4
1,77,77,192
1,84,79,4
1,77,74,4
1,89,93,0
1,77,73,0
1,84,82,0
1,77,82,0
1,89,92,4
1,84,79,8
1,81,72,4
1,77,88,44
1,81,82,16
1,84,89,36
1,89,67,48
2,40,102,2260
2,47,101,0
2,44,100,128
2,39,99,80
2,45,103,136
2,40,102,64
2,47,112,12
2,35,100,8
2,35,96,80
2,37,105,0
2,39,108,8
2,40,102,12
2,47,101,0
2,44,100,128
2,39,99,80
2,45,103,136
2,40,102,64
2,47,112,12
2,35,100,8
2,35,96,88
2,37,105,0
2,39,108,8
2,40,102,12
2,47,101,0
2,44,100,128
2,39,99,80
2,45,103,136
2,40,102,64
2,47,112,12
2,35,100,8
2,35,96,88
2,37,105,0
2,39,108,8
2,40,100,8
2,47,103,8
2,40,106,52
2,40,107,56
2,45,111,16
2,40,106,20
2,45,112,0
2,47,108,8
2,40,102,16
2,47,110,140
2,44,105,124
2,39,96,132
2,45,104,144
2,47,111,56
2,40,107,32
2,36,111,60
2,36,102,40
2,38,102,8
2,40,106,12
2,41,106,0
2,36,102,4
2,45,99,132
2,40,104,60
2,46,109,128
2,41,106,64
2,48,106,64
2,36,110,132
2,36,107,64
2,38,110,8
2,40,112,8
2,41,114,4
2,36,111,60
2,45,104,124
2,40,111,60
2,46,108,128
2,41,102,24
2,48,112,52
2,36,108,104
2,36,100,60
2,38,104,4
2,40,110,8
2,41,114,8
2,36,108,48
2,41,114,64
2,41,108,64
2,46,113,60
2,41,106,32
2,46,120,40
2,48,103,32
2,41,111,24
2,36,112,40
2,45,108,56
2,40,112,16
2,46,87,128
2,48,93,108
2,41,94,140
3,56,105,2240
3,59,118,4
3,64,119,4
3,56,95,56
3,59,109,4
3,64,111,4
3,56,91,64
3,59,106,4
3,64,109,4
3,56,105,80
3,59,117,4
3,64,121,4
3,56,92,80
3,59,108,4
3,64,109,4
3,56,96,84
3,59,107,4
3,64,111,4
3,56,111,80
3,59,117,4
3,64,119,4
3,56,98,84
3,59,111,4
3,64,109,4
3,56,100,80
3,59,113,4
3,64,115,4
3,56,103,80
3,59,117,4
3,64,119,4
3,56,86,80
3,59,102,4
3,64,105,4
3,56,91,80
3,59,108,4
3,64,108,4
3,56,113,88
3,59,119,4
3,63,121,4
3,56,103,80
3,59,107,4
3,63,111,4
3,56,92,84
3,59,99,4
3,63,105,4
3,56,99,96
3,59,105,4
3,63,109,4
3,56,81,80
3,59,93,4
3,63,96,4
3,56,88,92
3,59,100,4
3,63,105,4
3,56,105,84
3,59,109,4
3,63,111,4
3,56,80,72
3,59,95,4
3,63,101,4
3,56,86,84
3,59,94,4
3,63,101,4
3,56,102,88
3,59,111,4
3,63,113,4
3,56,89,72
3,59,107,4
3,63,111,4
3,56,104,76
3,59,115,4
3,63,117,4
3,52,95,72
3,57,111,4
3,61,116,4
3,52,95,72
3,57,104,4
3,61,113,4
3,52,91,88
3,57,95,4
3,61,105,4
3,52,95,92
3,57,102,4
3,61,109,4
3,52,95,80
3,57,98,4
3,61,105,4
3,52,91,92
3,57,95,4
3,61,101,4
3,52,95,92
3,57,103,4
3,61,109,4
3,52,89,88
3,57,95,4
3,61,101,4
3,52,95,92
3,57,101,4
3,61,105,4
3,52,101,92
3,57,111,4
3,61,115,4
3,52,95,84
3,57,104,4
3,61,115,4
3,52,95,92
3,57,110,4
3,61,115,4
3,54,85,96
3,59,113,4
3,63,119,0
3,54,85,92
3,59,104,4
3,63,116,4
3,54,85,96
3,59,103,4
3,63,112,4
3,54,83,100
3,59,104,4
3,63,114,4
3,54,83,96
3,59,97,4
3,63,107,4
3,54,81,96
3,59,99,4
3,63,103,4
3,54,85,100
3,59,102,4
3,63,111,4
3,54,83,96
3,59,99,4
3,63,103,4
3,54,79,104
3,59,96,4
3,63,101,4
3,54,83,100
3,59,103,4
3,63,118,4
3,54,79,84
3,59,98,4
3,63,110,4
3,54,81,96
3,59,104,4
3,63,112,4
3,56,100,100
3,59,113,4
3,64,114,4
3,56,90,60
3,59,104,4
3,64,106,4
3,56,86,64
3,59,101,4
3,64,104,4
3,56,100,80
3,59,112,4
3,64,116,4
3,56,87,80
3,59,103,4
3,64,104,4
3,56,91,84
3,59,102,4
3,64,106,4
3,56,106,80
3,59,112,4
3,64,114,4
3,56,93,84
3,59,106,4
3,64,104,4
3,56,95,80
3,59,108,4
3,64,110,4
3,56,98,80
3,59,112,4
3,64,114,4
3,56,81,80
3,59,97,4
3,64,100,4
3,56,86,80
3,59,103,4
3,64,103,4
3,56,108,92
3,59,114,4
3,63,116,4
3,56,98,80
3,59,102,4
3,63,106,4
3,56,87,84
3,59,94,4
3,63,100,4
3,56,94,96
3,59,100,4
3,63,104,4
3,56,76,80
3,59,88,4
3,63,91,4
3,56,83,92
3,59,95,4
3,63,100,4
3,56,100,84
3,59,104,4
3,63,106,4
3,56,75,72
3,59,90,4
3,63,96,4
3,56,81,84
3,59,89,4
3,63,96,4
3,56,97,88
3,59,106,4
3,63,108,4
3,56,84,72
3,59,102,4
3,63,106,4
3,56,99,76
3,59,110,4
3,63,112,4
3,52,90,72
3,57,106,4
3,61,111,4
3,52,90,72
3,57,99,4
3,61,108,4
3,52,86,88
3,57,90,4
3,61,100,4
3,52,90,92
3,57,97,4
3,61,104,4
3,52,90,80
3,57,93,4
3,61,100,4
3,52,86,92
3,57,90,4
3,61,96,4
3,52,90,92
3,57,98,4
3,61,104,4
3,52,84,88
3,57,90,4
3,61,96,4
3,52,90,96
3,57,96,4
3,61,100,4
3,52,96,92
3,57,106,4
3,61,110,4
3,52,90,84
3,57,99,4
3,61,110,4
3,52,90,92
3,57,105,4
3,61,110,4
3,54,80,100
3,59,108,0
3,63,114,4
3,54,80,92
3,59,99,4
3,63,111,4
3,54,80,96
3,59,98,4
3,63,107,4
3,54,78,100
3,59,99,4
3,63,109,4
3,54,78,96
3,59,92,4
3,63,102,4
3,54,76,96
3,59,94,4
3,63,98,4
3,54,80,100
3,59,97,4
3,63,106,4
3,54,78,96
3,59,94,4
3,63,98,4
3,54,80,104
3,59,91,4
3,63,96,4
3,54,78,100
3,59,98,4
3,63,113,4
3,54,74,92
3,59,93,4
3,63,105,4
3,54,76,96
3,59,99,4
3,63,107,4
3,56,100,100
3,59,113,4
3,64,114,4
3,56,90,60
3,59,104,4
3,64,106,4
3,56,86,64
3,59,101,4
3,64,104,4
3,56,100,80
3,59,112,4
3,64,116,4
3,56,87,80
3,59,103,4
3,64,104,4
3,56,91,84
3,59,102,4
3,64,106,4
3,56,106,80
3,59,112,4
3,64,114,4
3,56,93,84
3,59,106,4
3,64,104,4
3,56,95,80
3,59,108,4
3,64,110,4
3,56,98,80
3,59,112,4
3,64,114,4
3,56,81,80
3,59,97,4
3,64,100,4
3,56,86,80
3,59,103,4
3,64,103,4
3,56,108,96
3,59,114,0
3,63,116,4
3,56,98,80
3,59,102,4
3,63,106,4
3,56,87,84
3,59,94,4
3,63,100,4
3,56,94,96
3,59,100,4
3,63,104,4
3,56,76,80
3,59,88,4
3,63,91,4
3,56,83,92
3,59,95,4
3,63,100,4
3,56,100,96
3,59,104,4
3,63,106,4
3,56,75,72
3,59,90,4
3,63,96,4
3,56,81,84
3,59,89,4
3,63,96,4
3,56,97,88
3,59,106,4
3,63,108,4
3,56,84,72
3,59,102,4
3,63,106,4
3,56,99,76
3,59,110,4
3,63,112,4
3,52,90,64
3,57,106,4
3,61,111,4
3,52,90,72
3,57,99,4
3,61,108,4
3,52,86,88
3,57,90,4
3,61,100,4
3,52,90,92
3,57,97,4
3,61,104,4
3,52,90,80
3,57,93,4
3,61,100,4
3,52,86,92
3,57,90,4
3,61,96,4
3,52,90,92
3,57,98,4
3,61,104,4
3,52,84,88
3,57,90,4
3,61,96,4
3,52,90,92
3,57,96,4
3,61,100,4
3,52,96,92
3,57,106,4
3,61,110,4
3,52,90,84
3,57,99,4
3,61,110,4
3,52,90,92
3,57,105,4
3,61,110,4
3,54,80,96
3,59,108,4
3,63,114,0
3,54,80,92
3,59,99,4
3,63,111,4
3,54,80,96
3,59,98,4
3,63,107,4
3,54,78,100
3,59,99,4
3,63,109,4
3,54,78,96
3,59,92,4
