track,note,velocity,time
1,67,113,1910
1,67,0,48
1,67,112,12
1,67,0,48
1,67,110,12
1,67,0,48
1,67,103,12
1,67,0,48
1,67,104,12
1,67,0,96
1,69,110,24
1,69,0,96
1,67,110,24
1,67,0,235
1,71,110,245
1,67,111,0
1,67,0,48
1,71,0,0
1,71,110,12
1,67,96,0
1,67,0,48
1,71,0,0
1,71,110,12
1,67,95,0
1,67,0,48
1,71,0,0
1,71,97,12
1,67,120,0
1,67,0,48
1,71,0,0
1,71,124,12
1,67,110,0
1,67,0,96
1,71,0,0
1,69,105,24
1,72,96,0
1,72,0,96
1,69,0,0
1,67,106,24
1,71,111,0
1,71,0,236
1,67,0,0
1,71,97,244
1,74,106,0
1,74,0,48
1,71,0,0
1,71,110,12
1,74,114,0
1,74,0,48
1,71,0,0
1,71,107,12
1,74,123,0
1,74,0,48
1,71,0,0
1,71,100,12
1,74,119,0
1,74,0,48
1,71,0,0
1,71,114,12
1,74,110,0
1,74,0,96
1,71,0,0
1,72,110,24
1,76,109,0
1,76,0,96
1,72,0,0
1,71,104,24
1,74,111,0
1,74,0,48
1,71,0,0
1,71,112,12
1,74,112,0
1,74,0,48
1,71,0,0
1,71,104,12
1,74,112,0
1,74,0,48
1,71,0,0
1,71,110,12
1,74,106,0
1,74,0,48
1,71,0,0
1,71,108,12
1,74,102,0
1,74,0,96
1,71,0,0
1,72,116,24
1,76,105,0
1,76,0,96
1,72,0,0
1,71,105,24
1,74,108,0
1,74,0,48
1,71,0,0
1,71,107,12
1,74,109,0
1,74,0,48
1,71,0,0
1,71,109,12
1,74,114,0
1,74,0,48
1,71,0,0
1,71,118,12
1,74,113,0
1,74,0,48
1,71,0,0
1,74,113,12
1,71,109,0
1,71,0,48
1,74,0,0
1,71,109,12
1,74,105,0
1,74,0,48
1,71,0,0
1,71,108,12
1,74,105,0
1,74,0,48
1,71,0,0
1,71,110,12
1,74,124,0
1,74,0,48
1,71,0,0
1,71,120,12
1,74,119,0
1,74,0,48
1,71,0,0
1,71,123,12
1,74,98,0
1,74,0,48
1,71,0,0
1,71,98,12
1,74,112,0
1,74,0,48
1,71,0,0
1,71,115,12
1,74,102,0
1,74,0,48
1,71,0,0
1,71,114,12
1,74,110,0
1,74,0,96
1,71,0,0
1,71,112,24
1,71,0,96
1,62,112,1
1,62,0,96
1,64,110,24
1,64,0,96
1,66,110,24
1,66,0,96
1,69,110,24
1,69,0,96
1,64,110,24
1,67,111,0
1,67,0,234
1,64,0,0
1,64,123,246
1,64,0,96
1,66,110,24
1,66,0,96
1,67,103,24
1,67,0,96
1,71,101,24
1,71,0,96
1,66,109,24
1,69,113,0
1,66,0,234
1,69,0,1
1,62,118,245
1,62,0,96
1,64,95,24
1,64,0,96
1,66,109,24
1,66,0,96
1,69,106,24
1,69,0,96
1,64,110,24
1,67,108,0
1,64,0,234
1,67,0,1
1,60,99,1
1,60,0,48
1,60,113,12
1,60,0,48
1,60,106,12
1,60,0,48
1,60,102,12
1,60,0,48
1,60,112,12
1,60,0,48
1,60,97,12
1,60,0,48
1,60,110,12
1,60,0,48
1,60,112,12
1,60,0,48
1,62,107,12
1,62,0,96
1,62,109,24
1,62,0,96
1,62,110,24
1,62,0,96
1,64,103,24
1,64,0,96
1,59,120,24
1,62,110,0
1,62,0,192
1,59,0,0
1,64,112,48
1,64,0,96
1,66,101,24
1,66,0,96
1,67,110,24
1,67,0,96
1,66,110,24
1,66,0,48
1,64,114,12
1,64,0,295
1,64,104,125
1,67,109,0
1,67,0,96
1,64,0,0
1,64,111,24
1,67,106,0
1,67,0,96
1,64,0,0
1,64,110,24
1,64,0,96
1,66,110,24
1,66,0,96
1,64,107,24
1,64,0,96
1,62,110,24
1,62,0,192
1,59,108,48
1,62,123,0
1,62,0,192
1,59,0,0
1,64,114,48
1,64,0,96
1,66,106,24
1,66,0,96
1,67,105,24
1,67,0,96
1,66,109,24
1,66,0,48
1,64,109,12
1,64,0,295
1,64,110,125
1,67,104,0
1,67,0,96
1,64,0,0
1,64,110,24
1,67,103,0
1,67,0,96
1,64,0,0
1,69,122,24
1,69,0,96
1,66,115,24
1,66,0,96
1,64,100,24
1,64,0,48
1,62,108,12
1,62,0,295
1,62,115,125
1,62,0,48
1,59,107,12
1,64,110,0
1,64,0,144
1,59,0,0
1,66,118,36
1,66,0,96
1,67,103,24
1,67,0,96
1,66,97,24
1,66,0,96
1,64,99,24
1,64,0,235
1,60,109,125
1,60,0,96
1,62,110,24
1,62,0,96
1,60,110,24
1,60,0,96
1,59,110,24
1,59,0,288
1,57,111,72
1,57,0,96
1,59,106,24
1,59,0,475
1,64,111,125
1,67,111,0
1,67,0,115
1,64,0,0
1,64,121,125
1,67,110,0
1,67,0,96
1,64,0,0
1,60,119,24
1,60,0,48
1,60,107,12
1,60,0,48
1,60,106,12
1,60,0,48
1,60,112,12
1,60,0,48
1,60,108,12
1,60,0,48
1,60,114,12
1,60,0,48
1,60,109,12
1,60,0,48
1,60,115,12
1,60,0,48
1,62,111,12
1,62,0,96
1,62,110,24
1,62,0,96
1,62,109,24
1,62,0,96
1,64,108,24
1,64,0,86
1,59,109,34
1,62,111,0
1,62,0,192
1,59,0,0
1,64,111,48
1,64,0,96
1,66,102,24
1,66,0,96
1,67,111,24
1,67,0,96
1,66,125,24
1,66,0,48
1,64,110,12
1,64,0,295
1,64,102,125
1,67,115,0
1,67,0,96
1,64,0,0
1,64,111,24
1,67,104,0
1,67,0,96
1,64,0,0
1,64,116,24
1,64,0,96
1,66,121,24
1,66,0,96
1,64,111,24
1,64,0,96
1,62,110,24
1,62,0,192
1,59,117,48
1,62,109,0
1,62,0,192
1,59,0,0
1,64,109,48
1,64,0,96
1,66,103,24
1,66,0,96
1,67,112,24
1,67,0,96
1,66,113,24
1,66,0,48
1,64,119,12
1,64,0,295
1,64,110,125
1,67,116,0
1,67,0,96
1,64,0,0
1,64,106,24
1,67,116,0
1,67,0,96
1,64,0,0
1,69,110,24
1,69,0,96
1,66,109,24
1,66,0,96
1,64,113,24
1,64,0,48
1,62,106,12
1,62,0,295
1,62,108,125
1,62,0,48
1,59,122,12
1,64,111,0
1,64,0,144
1,59,0,0
1,66,106,36
1,66,0,96
1,67,105,24
1,67,0,96
1,66,112,24
1,66,0,96
1,64,112,24
1,64,0,235
1,60,114,125
1,60,0,96
1,62,107,24
1,62,0,96
1,60,117,24
1,60,0,96
1,59,100,24
1,59,0,288
1,57,101,72
1,57,0,96
1,55,114,24
1,59,112,240
1,62,115,0
1,55,0,105
1,62,0,87
1,59,0,0
1,64,110,48
1,60,111,0
1,60,0,192
1,64,0,0
1,60,123,48
1,64,111,0
1,64,0,192
1,60,0,0
1,60,100,48
1,64,110,0
1,64,0,96
1,60,0,0
1,59,110,24
1,62,110,0
1,62,0,355
1,59,0,0
1,67,114,365
1,67,0,96
1,60,118,24
1,64,96,0
1,64,0,192
1,60,0,0
1,66,114,48
1,66,0,96
1,64,96,24
1,67,115,0
1,67,0,96
1,64,0,0
1,64,120,24
1,69,111,0
1,69,0,96
1,64,0,0
1,64,112,24
1,67,98,0
1,67,0,355
1,64,0,0
1,64,109,125
1,64,0,96
1,66,101,24
1,66,0,96
1,64,109,24
1,67,105,0
1,67,0,96
1,64,0,0
1,64,98,24
1,69,110,0
1,69,0,192
1,64,0,0
1,64,109,48
1,67,123,0
1,67,0,235
1,64,0,0
1,62,112,125
1,62,0,96
1,62,120,24
1,62,0,96
1,64,110,24
1,64,0,96
1,62,122,24
1,66,110,0
1,66,0,192
1,62,0,0
1,64,97,48
1,64,0,96
1,62,108,24
1,62,0,115
1,59,113,125
1,62,111,0
1,62,0,96
1,59,0,0
1,64,110,24
1,64,0,96
1,66,96,24
1,66,0,96
1,59,110,24
1,69,118,0
1,69,0,192
1,59,0,0
1,67,98,48
1,67,0,192
1,60,107,48
1,64,106,0
1,64,0,192
1,60,0,0
1,66,112,48
1,66,0,96
1,64,95,24
1,69,114,0
1,69,0,96
1,64,0,0
1,69,96,24
1,64,111,0
1,64,0,96
1,69,0,0
1,64,105,24
1,67,99,0
1,67,0,192
1,64,0,0
1,66,106,48
1,66,0,115
1,60,102,125
1,64,113,0
1,64,0,96
1,60,0,0
1,60,106,24
1,64,111,0
1,64,0,96
1,60,0,0
1,66,112,24
1,66,0,96
1,64,106,24
1,67,97,0
1,67,0,288
1,64,0,0
1,64,113,72
1,64,0,48
1,64,103,12
1,64,0,48
1,61,110,12
1,71,110,0
1,71,0,96
1,61,0,0
1,69,114,24
1,69,0,96
1,67,109,24
1,67,0,96
1,64,110,24
1,64,0,96
1,71,110,24
1,71,0,96
1,69,107,24
1,69,0,96
1,67,96,24
1,67,0,96
1,64,109,24
1,64,0,115
1,74,109,125
1,74,0,48
1,74,111,12
1,74,0,48
1,66,110,12
1,78,110,0
1,78,0,96
1,66,0,0
1,74,105,24
1,74,0,96
1,66,100,24
1,78,110,0
1,78,0,96
1,66,0,0
1,66,110,24
1,76,109,0
1,76,0,96
1,66,0,0
1,66,104,24
1,74,110,0
1,74,0,475
1,66,0,0
1,59,102,245
1,62,107,0
1,62,0,192
1,59,0,0
1,64,96,48
1,64,0,96
1,66,98,24
1,66,0,96
1,67,110,24
1,67,0,96
1,66,123,24
1,66,0,48
1,64,110,12
1,64,0,295
1,64,110,125
1,67,110,0
1,67,0,96
1,64,0,0
1,64,102,24
1,67,104,0
1,67,0,96
1,64,0,0
1,64,124,24
1,64,0,96
1,66,110,24
1,66,0,96
1,64,95,24
1,64,0,96
1,62,100,24
1,62,0,192
1,59,105,48
1,62,110,0
1,62,0,192
1,59,0,0
1,64,107,48
1,64,0,96
1,66,107,24
1,66,0,96
1,67,110,24
1,67,0,96
1,66,102,24
1,66,0,48
1,64,108,12
1,64,0,295
1,64,110,125
1,67,117,0
1,67,0,96
1,64,0,0
1,64,120,24
1,67,114,0
1,67,0,96
1,64,0,0
1,69,107,24
1,69,0,96
1,66,100,24
1,66,0,96
1,64,112,24
1,64,0,48
1,62,95,12
1,62,0,295
1,62,107,125
1,62,0,48
1,59,104,12
1,64,116,0
1,64,0,144
1,59,0,0
1,66,109,36
1,66,0,96
1,67,101,24
1,67,0,96
1,66,98,24
1,66,0,96
1,64,116,24
1,64,0,235
1,60,111,125
1,60,0,96
1,62,124,24
1,62,0,96
1,60,108,24
1,60,0,96
1,59,112,24
1,59,0,288
1,57,110,72
1,57,0,96
1,55,110,24
1,55,0,192
1,59,102,48
1,62,111,0
1,62,0,192
1,59,0,0
1,60,114,48
1,64,114,0
1,64,0,192
1,60,0,0
1,60,122,48
1,64,113,0
1,64,0,192
1,60,0,0
1,60,108,48
1,64,110,0
1,64,0,96
1,60,0,0
1,59,108,24
1,62,110,0
1,62,0,475
1,59,0,0
2,62,104,1910
2,62,0,48
2,62,106,12
2,62,0,48
2,62,97,12
2,62,0,48
2,62,113,12
2,62,0,48
2,62,100,12
2,62,0,96
2,62,85,24
2,62,0,96
2,62,105,24
2,62,0,235
2,67,95,245
2,62,99,0
2,62,0,48
2,67,0,0
2,67,93,12
2,62,95,0
2,62,0,48
2,67,0,0
2,67,99,12
2,62,97,0
2,62,0,48
2,67,0,0
2,67,102,12
2,62,100,0
2,62,0,48
2,67,0,0
2,67,92,12
2,62,86,0
2,62,0,96
2,67,0,0
2,62,111,24
2,67,100,0
2,67,0,96
2,62,0,0
2,62,88,24
2,67,113,0
2,67,0,236
2,62,0,0
2,67,106,244
2,71,107,0
2,71,0,48
2,67,0,0
2,67,113,12
2,71,100,0
2,71,0,48
2,67,0,0
2,67,102,12
2,71,99,0
2,71,0,48
2,67,0,0
2,67,110,12
2,71,99,0
2,71,0,48
2,67,0,0
2,67,100,12
2,71,96,0
2,71,0,96
2,67,0,0
2,67,105,24
2,71,110,0
2,71,0,96
2,67,0,0
2,67,105,24
2,71,96,0
2,71,0,48
2,67,0,0
2,67,104,12
2,71,95,0
2,71,0,48
2,67,0,0
2,67,90,12
2,71,104,0
2,71,0,48
2,67,0,0
2,67,105,12
2,71,90,0
2,71,0,48
2,67,0,0
2,67,100,12
2,71,99,0
2,71,0,96
2,67,0,0
2,67,100,24
2,71,97,0
2,71,0,96
2,67,0,0
2,67,90,24
2,71,100,0
2,71,0,48
2,67,0,0
2,67,101,12
2,71,91,0
2,71,0,48
2,67,0,0
2,67,99,12
2,71,100,0
2,71,0,48
2,67,0,0
2,67,114,12
2,71,98,0
2,71,0,48
2,67,0,0
2,71,101,12
2,67,114,0
2,67,0,48
2,71,0,0
2,67,99,12
2,71,90,0
2,71,0,48
2,67,0,0
2,67,109,12
2,71,101,0
2,71,0,48
2,67,0,0
2,67,102,12
2,71,101,0
2,71,0,48
2,67,0,0
2,67,111,12
2,71,100,0
2,71,0,48
2,67,0,0
2,67,92,12
2,71,102,0
2,71,0,48
2,67,0,0
2,67,108,12
2,71,97,0
2,71,0,48
2,67,0,0
2,67,95,12
2,71,103,0
2,71,0,48
2,67,0,0
2,67,87,12
2,71,99,0
2,71,0,96
2,67,0,0
2,67,93,24
2,67,0,96
2,59,96,1
2,59,0,96
2,59,98,24
2,59,0,96
2,62,102,24
2,62,0,96
2,64,101,24
2,64,0,96
2,59,100,24
2,64,113,0
2,64,0,234
2,59,0,0
2,60,97,246
2,60,0,96
2,60,105,24
2,60,0,96
2,64,100,24
2,64,0,96
2,66,99,24
2,66,0,96
2,62,98,24
2,66,100,0
2,62,0,234
2,66,0,1
2,59,100,245
2,59,0,96
2,59,103,24
2,59,0,96
2,62,100,24
2,62,0,96
2,64,109,24
2,64,0,96
2,59,97,24
2,64,90,0
2,59,0,234
2,64,0,1
2,55,99,1
2,55,0,48
2,55,112,12
2,55,0,48
2,55,94,12
2,55,0,48
2,55,108,12
2,55,0,48
2,55,98,12
2,55,0,48
2,55,114,12
2,55,0,48
2,55,108,12
2,55,0,48
2,55,109,12
2,55,0,48
2,57,100,12
2,57,0,96
2,57,100,24
2,57,0,96
2,57,100,24
2,57,0,96
2,57,101,24
2,57,0,96
2,55,99,24
2,59,108,0
2,59,0,192
2,55,0,0
2,59,98,48
2,59,0,96
2,62,99,24
2,62,0,96
2,64,99,24
2,64,0,96
2,59,108,24
2,59,0,48
2,59,104,12
2,59,0,295
2,60,106,125
2,64,90,0
2,64,0,96
2,60,0,0
2,60,87,24
2,64,98,0
2,64,0,96
2,60,0,0
2,60,93,24
2,60,0,96
2,60,113,24
2,60,0,96
2,60,110,24
2,60,0,96
2,57,103,24
2,57,0,192
2,55,93,48
2,59,95,0
2,59,0,192
2,55,0,0
2,59,100,48
2,59,0,96
2,62,96,24
2,62,0,96
2,64,113,24
2,64,0,96
2,59,99,24
2,59,0,48
2,59,99,12
2,59,0,295
2,60,92,125
2,64,100,0
2,64,0,96
2,60,0,0
2,60,94,24
2,64,108,0
2,64,0,96
2,60,0,0
2,64,100,24
2,64,0,96
2,60,100,24
2,60,0,96
2,60,111,24
2,60,0,48
2,57,101,12
2,57,0,295
2,59,93,125
2,59,0,48
2,55,88,12
2,59,96,0
2,59,0,144
2,55,0,0
2,62,102,36
2,62,0,96
2,64,90,24
2,64,0,96
2,59,96,24
2,59,0,96
2,59,102,24
2,59,0,235
2,55,94,125
2,55,0,96
2,55,97,24
2,55,0,96
2,55,100,24
2,55,0,96
2,54,107,24
2,54,0,288
2,54,86,72
2,54,0,96
2,55,101,24
2,55,0,475
2,59,112,125
2,64,101,0
2,64,0,115
2,59,0,0
2,59,104,125
2,64,100,0
2,64,0,96
2,59,0,0
2,55,97,24
2,55,0,48
2,55,88,12
2,55,0,48
2,55,104,12
2,55,0,48
2,55,99,12
2,55,0,48
2,55,86,12
2,55,0,48
2,55,99,12
2,55,0,48
2,55,97,12
2,55,0,48
2,55,98,12
2,55,0,48
2,57,95,12
2,57,0,96
2,57,96,24
2,57,0,96
2,57,100,24
2,57,0,96
2,57,92,24
2,57,0,86
2,55,100,34
2,59,108,0
