track,note,velocity,time
1,45,127,1536
1,41,127,46
1,38,124,68
1,34,121,90
1,45,120,130
1,41,124,52
1,38,124,92
1,34,121,64
1,29,97,404
1,29,99,120
1,33,92,20
1,36,83,192
1,31,89,208
1,35,92,192
1,38,89,178
1,36,95,200
1,40,89,192
1,43,80,168
1,36,101,44
1,36,86,122
1,33,97,192
1,31,114,4
1,29,97,2
1,29,99,120
1,33,92,20
1,36,83,192
1,31,89,208
1,35,92,192
1,38,89,178
1,28,93,8
1,28,99,116
1,31,99,0
1,28,104,14
1,33,85,20
1,33,101,124
1,31,95,192
1,29,97,64
1,29,99,120
1,33,92,20
1,36,83,192
1,31,89,208
1,35,92,192
1,38,89,178
1,36,95,200
1,40,89,192
1,43,80,168
1,36,101,44
1,36,86,122
1,33,97,192
1,31,114,4
1,29,97,2
1,29,99,120
1,33,92,20
1,36,83,192
1,31,89,208
1,35,92,192
1,38,89,178
1,28,93,8
1,28,99,116
1,31,99,0
1,28,104,14
1,33,85,20
1,33,101,124
1,33,99,0
1,33,120,144
1,33,127,186
1,33,127,122
1,31,127,112
1,29,97,52
1,29,99,120
1,33,92,20
1,36,83,192
1,31,89,208
1,35,92,192
1,38,89,178
1,36,95,200
1,40,89,192
1,43,80,168
1,36,101,44
1,36,86,122
1,33,97,192
1,31,114,4
1,29,97,2
1,29,99,120
1,33,92,20
1,36,83,192
1,31,89,208
1,35,92,192
1,38,89,178
1,28,93,8
1,28,99,116
1,31,99,0
1,28,104,14
1,33,85,20
1,33,101,124
1,31,95,192
1,29,97,64
1,29,99,120
1,33,92,20
1,36,83,192
1,31,89,208
1,35,92,192
1,38,89,178
1,36,95,200
1,40,89,192
1,43,80,168
1,36,101,44
1,36,86,122
1,33,97,192
1,31,114,4
1,29,97,2
1,29,99,120
1,33,92,20
1,36,83,192
1,31,89,208
1,35,92,192
1,38,89,178
1,28,93,8
1,28,99,116
1,31,99,0
1,28,104,14
1,33,85,20
1,33,101,124
1,33,99,0
1,33,108,0
1,33,120,144
1,33,114,0
1,33,127,186
1,33,114,0
1,33,114,122
1,33,117,114
1,33,120,120
1,33,111,126
1,33,127,126
1,31,127,122
1,36,108,12
1,36,93,128
1,40,97,36
1,43,85,6
1,29,93,66
1,29,97,120
1,33,92,192
1,36,83,182
1,31,89,38
1,31,95,118
1,35,93,4
1,38,89,6
1,31,95,32
1,35,90,124
1,38,90,8
1,35,95,26
1,36,95,88
1,36,95,126
1,40,90,32
1,43,86,6
1,29,95,104
1,29,95,120
1,33,106,22
1,36,80,8
1,31,92,44
1,31,93,124
1,35,95,24
1,38,83,6
1,31,95,42
1,35,90,120
1,38,90,192
1,35,95,54
1,36,93,96
1,36,99,120
1,40,97,40
1,43,82,192
1,29,93,104
1,29,93,112
1,33,97,6
1,36,79,192
1,31,92,72
1,31,95,128
1,35,80,18
1,38,78,6
1,31,95,56
1,35,99,132
1,38,92,104
1,35,101,28
1,36,101,112
1,36,101,126
1,40,101,40
1,43,87,30
1,29,92,104
1,29,95,126
1,33,97,14
1,36,73,192
1,31,85,42
1,31,92,118
1,35,90,28
1,38,77,24
1,31,92,92
1,31,93,126
1,35,95,48
1,38,85,192
1,45,124,108
1,41,127,38
1,38,127,78
1,34,121,40
1,29,97,120
1,29,99,120
1,33,92,20
1,36,83,192
1,31,89,208
1,35,92,192
1,38,89,178
1,36,95,200
1,40,89,192
1,43,80,168
1,36,101,44
1,36,86,122
1,33,97,192
1,31,114,4
1,29,97,2
1,29,99,120
1,33,92,20
1,36,83,192
1,31,89,208
1,35,92,192
1,38,89,178
1,28,93,8
1,28,99,116
1,31,99,0
1,28,104,14
1,33,85,20
1,33,101,124
1,31,95,192
1,29,97,64
1,29,99,120
1,33,92,20
1,36,83,192
1,31,89,208
1,35,92,192
1,38,89,178
1,36,95,200
1,40,89,192
1,43,80,168
1,36,101,44
1,36,86,122
1,33,97,192
1,31,114,4
1,29,97,2
1,29,99,120
1,33,92,20
1,36,83,192
1,31,89,208
1,35,92,192
1,38,89,178
1,28,93,8
1,28,99,116
1,31,99,0
1,28,104,14
1,33,85,20
1,33,101,124
1,33,99,0
1,33,108,0
1,33,120,144
1,33,114,0
1,33,127,186
1,33,114,0
1,33,114,122
1,33,117,114
1,33,120,120
1,33,111,126
1,33,127,126
1,31,127,122
1,36,108,12
1,36,93,128
1,40,97,36
1,43,85,6
1,29,93,66
1,29,97,120
1,33,92,192
1,36,83,182
1,31,89,38
1,31,95,118
1,35,93,4
1,38,89,6
1,31,95,32
1,35,90,124
1,38,90,8
1,35,95,26
1,36,95,88
1,36,95,126
1,40,90,32
1,43,86,6
1,29,95,104
1,29,95,120
1,33,106,22
1,36,80,8
1,31,92,44
1,31,93,124
1,35,95,24
1,38,83,6
1,31,95,42
1,35,90,120
1,38,90,192
1,35,95,54
1,36,93,96
1,36,99,120
1,40,97,40
1,43,82,192
1,29,93,104
1,29,93,112
1,33,97,6
1,36,79,192
1,31,92,72
1,31,95,128
1,35,80,18
1,38,78,6
1,31,95,56
1,35,99,132
1,38,92,104
1,35,101,28
1,36,101,112
1,36,101,126
1,40,101,40
1,43,87,30
1,29,92,104
1,29,95,126
1,33,97,14
1,36,73,192
1,31,85,42
1,31,92,118
1,35,90,28
1,38,77,24
1,31,92,92
1,31,93,126
1,35,95,48
1,38,85,192
1,45,124,108
1,41,127,38
1,38,127,78
1,34,121,40
1,45,124,120
1,41,127,38
1,38,127,78
1,34,121,40
1,34,121,120
1,34,126,124
1,34,121,126
1,34,116,120
1,34,126,120
1,31,127,98
1,36,108,56
1,36,93,128
1,40,97,36
1,43,85,6
1,29,93,66
1,29,97,120
1,33,92,192
1,36,83,182
1,31,89,38
1,31,95,118
1,35,93,4
1,38,89,6
1,31,95,32
1,35,90,124
1,38,90,8
1,35,95,26
1,36,95,88
1,36,95,126
1,40,90,32
1,43,86,6
1,29,95,104
1,29,95,120
1,33,106,22
1,36,80,8
1,31,92,44
1,31,93,124
1,35,95,24
1,38,83,6
1,31,95,42
1,35,90,120
1,38,90,192
1,35,95,54
1,36,93,96
1,36,99,120
1,40,97,40
1,43,82,192
1,29,93,104
1,29,93,112
1,33,97,6
1,36,79,192
1,31,92,72
1,31,95,128
1,35,80,18
1,38,78,6
1,31,95,56
1,35,99,132
1,38,92,104
1,35,101,28
1,36,101,112
1,36,101,126
1,40,101,40
1,43,87,30
1,29,92,104
1,29,95,126
1,33,97,14
1,36,73,192
1,31,85,42
1,31,92,118
1,35,90,28
1,38,77,24
1,31,92,92
1,31,93,126
1,35,95,48
1,38,85,192
1,36,101,108
1,36,101,126
1,40,101,40
1,43,87,30
1,29,92,104
1,29,95,126
1,33,97,14
1,36,73,192
1,31,85,42
1,31,92,118
1,35,90,28
1,38,77,24
1,31,92,92
1,31,93,126
1,35,95,48
1,38,85,192
1,36,108,12396
1,36,93,128
1,40,97,36
1,43,85,6
1,29,93,66
1,29,97,120
1,33,92,192
1,36,83,182
1,31,89,38
1,31,95,118
1,35,93,4
1,38,89,6
1,31,95,32
1,35,90,124
1,38,90,8
1,35,95,26
1,36,95,88
1,36,95,126
1,40,90,32
1,43,86,6
1,29,95,104
1,29,95,120
1,33,106,22
1,36,80,8
1,31,92,44
1,31,93,124
1,35,95,24
1,38,83,6
1,31,95,42
1,35,90,120
1,38,90,192
1,35,95,54
1,36,93,96
1,36,99,120
1,40,97,40
1,43,82,192
1,29,93,104
1,29,93,112
1,33,97,6
1,36,79,192
1,31,92,72
1,31,95,128
1,35,80,18
1,38,78,6
1,31,95,56
1,35,99,132
1,38,92,104
1,35,101,28
1,36,101,112
1,36,101,126
1,40,101,40
1,43,87,30
1,29,92,104
1,29,95,126
1,33,97,14
1,36,73,192
1,31,85,42
1,31,92,118
1,35,90,28
1,38,77,24
1,31,92,92
1,31,93,126
1,35,95,48
1,38,85,192
1,36,108,108
1,36,93,128
1,40,97,36
1,43,85,6
1,29,93,66
1,29,97,120
1,33,92,192
1,36,83,182
1,31,89,38
1,31,95,118
1,35,93,4
1,38,89,6
1,31,95,32
1,35,90,124
1,38,90,8
1,35,95,26
1,36,95,88
1,36,95,126
1,40,90,32
1,43,86,6
1,29,95,104
1,29,95,120
1,33,106,22
1,36,80,8
1,31,92,44
1,31,93,124
1,35,95,24
1,38,83,6
1,31,95,42
1,35,90,120
1,38,90,192
1,35,95,54
1,36,93,96
1,36,99,120
1,40,97,40
1,43,82,192
1,29,93,104
1,29,93,112
1,33,97,6
1,36,79,192
1,31,92,72
1,31,95,128
1,35,80,18
1,38,78,6
1,31,95,56
1,35,99,132
1,38,92,104
1,35,101,28
1,36,101,112
1,36,101,126
1,40,101,40
1,43,87,30
1,29,92,104
1,29,95,126
1,33,97,14
1,36,73,192
1,31,85,42
1,31,92,118
1,35,90,28
1,38,77,24
1,31,92,92
1,31,93,126
1,35,95,48
1,38,85,192
1,36,124,108
2,45,58,1536
2,57,66,0
2,60,69,0
2,64,62,0
2,69,86,234
2,69,67,144
2,76,83,328
2,81,68,328
2,88,62,322
2,83,59,322
2,86,75,328
2,79,74,340
2,81,60,46
2,74,83,496
2,70,62,326
2,65,66,0
2,69,97,140
2,67,107,314
2,65,80,6
2,67,107,56
2,69,117,120
2,57,75,246
2,64,83,40
2,74,97,50
2,76,85,304
2,81,99,154
2,79,97,152
2,86,85,330
2,84,92,328
2,81,64,88
2,79,62,264
2,81,83,292
2,74,74,170
2,77,97,146
2,74,75,76
2,86,67,304
2,82,64,22
2,77,54,64
2,81,62,90
2,79,66,64
2,60,82,482
2,57,94,0
2,53,79,0
2,60,88,324
2,57,101,0
2,53,85,0
2,62,82,146
2,59,97,0
2,55,80,0
2,62,80,320
2,55,78,0
2,59,86,0
2,64,82,158
2,55,76,0
2,60,83,0
2,62,82,312
2,59,88,0
2,55,79,0
2,55,67,76
2,64,83,0
2,60,82,0
2,64,74,324
2,55,67,0
2,60,80,0
2,60,58,184
2,53,73,0
2,57,79,0
2,59,60,0
2,60,73,328
2,53,73,0
2,57,83,0
2,62,78,158
2,59,88,0
2,55,76,0
2,62,79,314
2,59,88,0
2,55,78,0
2,59,74,136
2,52,73,0
2,55,85,0
2,59,86,54
2,55,90,0
2,52,63,0
2,64,78,138
2,57,75,0
2,60,85,0
2,64,78,96
2,57,75,0
2,60,83,0
2,64,78,96
2,60,88,0
2,57,82,0
2,60,82,320
2,57,94,0
2,53,79,0
2,60,88,324
2,57,101,0
2,53,85,0
2,62,82,146
2,59,97,0
2,55,80,0
2,62,80,320
2,55,78,0
2,59,86,0
2,64,82,158
2,55,76,0
2,60,83,0
2,62,82,312
2,59,88,0
2,55,79,0
2,55,67,76
2,64,83,0
2,60,82,0
2,64,74,324
2,55,67,0
2,60,80,0
2,60,58,184
2,53,73,0
2,57,79,0
2,59,60,0
2,60,73,328
2,53,73,0
2,57,83,0
2,62,78,158
2,59,88,0
2,55,76,0
2,62,79,314
2,59,88,0
2,55,78,0
2,59,74,136
2,52,73,0
2,55,85,0
2,59,86,54
2,55,90,0
2,52,63,0
2,64,78,138
2,57,75,0
2,60,85,0
2,64,78,96
2,57,75,0
2,60,83,0
2,64,78,96
2,60,88,0
2,57,82,0
2,67,99,320
2,59,104,0
2,62,107,0
2,43,97,0
2,55,88,0
2,44,73,0
2,60,82,234
2,57,94,0
2,53,79,0
2,60,88,324
2,57,101,0
2,53,85,0
2,62,82,146
2,59,97,0
2,55,80,0
2,59,86,320
2,55,78,0
2,62,80,0
2,64,82,158
2,55,76,0
2,60,83,0
2,62,82,312
2,59,88,0
2,55,79,0
2,55,67,76
2,64,83,0
2,60,82,0
2,64,74,324
2,60,80,0
2,55,67,0
2,60,58,184
2,53,73,0
2,57,79,0
2,59,60,0
2,60,73,328
2,53,73,0
2,57,83,0
2,62,78,158
2,59,88,0
2,55,76,0
2,62,79,314
2,59,88,0
2,55,78,0
2,59,74,136
2,52,73,0
2,55,85,0
2,59,86,54
2,55,90,0
2,52,63,0
2,64,78,138
2,57,75,0
2,60,85,0
2,64,78,96
2,57,75,0
2,60,83,0
2,64,78,96
2,60,88,0
2,57,82,0
2,60,82,320
2,57,94,0
2,53,79,0
2,60,88,324
2,57,101,0
2,53,85,0
2,62,82,146
2,59,97,0
2,55,80,0
2,59,86,320
2,55,78,0
2,62,80,0
2,64,82,158
2,55,76,0
2,60,83,0
2,62,82,312
2,59,88,0
2,55,79,0
2,55,67,76
2,64,83,0
2,60,82,0
2,64,74,324
2,60,80,0
2,55,67,0
2,60,58,184
2,53,73,0
2,57,79,0
2,59,60,0
2,60,73,328
2,53,73,0
2,57,83,0
2,62,78,158
2,59,88,0
2,55,76,0
2,62,79,314
2,59,88,0
2,55,78,0
2,59,74,136
2,52,73,0
2,55,85,0
2,59,86,54
2,55,90,0
2,52,63,0
2,64,78,138
2,57,75,0
2,60,85,0
2,64,78,96
2,57,75,0
2,60,83,0
2,64,78,96
2,60,88,0
2,57,82,0
2,64,82,320
2,57,72,0
2,60,86,0
2,60,88,312
2,57,72,0
2,64,80,0
2,64,86,132
2,57,86,0
2,60,99,0
2,43,110,126
2,59,107,0
2,62,97,0
2,55,101,0
2,67,92,66
2,64,101,0
2,60,92,0
2,48,99,0
2,55,97,0
2,67,97,96
2,60,94,0
2,64,107,0
2,48,104,0
2,41,101,0
2,59,94,88
2,62,101,0
2,43,94,0
2,67,97,0
2,50,101,0
2,67,92,120
2,64,101,0
2,60,92,0
2,48,99,0
2,55,97,0
2,67,97,96
2,60,94,0
2,64,107,0
2,48,104,0
2,41,101,0
2,59,94,88
2,62,101,0
2,43,94,0
2,67,97,0
2,50,101,0
2,67,92,120
2,64,101,0
2,60,92,0
2,48,99,0
2,55,97,0
2,67,97,96
2,60,94,0
2,64,107,0
2,48,104,0
2,41,101,0
2,59,94,88
2,62,101,0
2,43,94,0
2,67,97,0
2,50,101,0
2,67,92,120
2,64,101,0
2,60,92,0
2,48,99,0
2,55,97,0
2,67,97,96
2,60,94,0
2,64,107,0
2,48,104,0
2,41,101,0
2,59,94,88
2,62,101,0
2,43,94,0
2,67,97,0
2,50,101,0
2,69,117,120
2,57,75,192
2,64,83,40
2,74,97,50
2,76,85,304
2,81,99,154
2,79,97,152
2,86,85,330
2,84,92,328
2,81,64,88
2,79,62,264
2,81,83,292
2,74,74,170
2,77,97,146
2,74,75,76
2,86,67,304
2,82,64,22
2,77,54,64
2,81,62,90
2,79,66,64
2,60,82,482
2,57,94,0
2,53,79,0
2,60,88,324
2,57,101,0
2,53,85,0
2,62,82,146
2,59,97,0
2,55,80,0
2,59,86,320
2,55,78,0
2,62,80,0
2,64,82,158
2,55,76,0
2,60,83,0
2,62,82,312
2,59,88,0
2,55,79,0
2,55,67,76
2,64,83,0
2,60,82,0
2,64,74,324
2,60,80,0
2,55,67,0
2,60,58,184
2,53,73,0
2,57,79,0
2,59,60,0
2,60,73,328
2,53,73,0
2,57,83,0
2,62,78,158
2,59,88,0
2,55,76,0
2,62,79,314
2,59,88,0
2,55,78,0
2,59,74,136
2,52,73,0
2,55,85,0
2,59,86,54
2,55,90,0
2,52,63,0
2,64,78,138
2,57,75,0
2,60,85,0
2,64,78,96
2,57,75,0
2,60,83,0
2,64,78,96
2,60,88,0
2,57,82,0
2,60,82,320
2,57,94,0
2,53,79,0
2,60,88,324
2,57,101,0
2,53,85,0
2,62,82,146
2,59,97,0
2,55,80,0
2,59,86,320
2,55,78,0
2,62,80,0
2,64,82,158
2,55,76,0
2,60,83,0
2,62,82,312
2,59,88,0
2,55,79,0
2,55,67,76
2,64,83,0
2,60,82,0
2,64,74,324
2,60,80,0
2,55,67,0
2,60,58,184
2,53,73,0
2,57,79,0
2,59,60,0
2,60,73,328
2,53,73,0
2,57,83,0
2,62,78,158
2,59,88,0
2,55,76,0
2,62,79,314
2,59,88,0
2,55,78,0
2,59,74,136
2,52,73,0
2,55,85,0
2,59,86,54
2,55,90,0
2,52,63,0
2,64,78,138
