track,note,velocity,time
1,35,120,3888
1,35,119,86
1,35,120,94
1,37,120,2
1,39,119,2
1,42,117,22
1,42,118,46
1,42,118,78
1,44,120,10
1,42,119,52
1,39,120,20
1,35,120,46
1,35,119,86
1,35,120,94
1,37,120,2
1,39,119,2
1,42,117,22
1,42,118,46
1,42,118,78
1,44,120,10
1,42,119,52
1,39,120,20
1,35,120,46
1,35,119,86
1,35,120,94
1,37,120,2
1,39,119,2
1,42,117,22
1,42,118,46
1,44,118,2
1,42,118,2
1,40,120,10
1,39,119,52
1,37,120,20
1,35,120,46
1,35,119,86
1,35,120,94
1,37,120,2
1,39,119,2
1,42,117,22
1,42,118,46
1,44,118,2
1,42,118,2
1,40,120,10
1,39,119,52
1,37,120,20
1,35,120,46
1,35,119,86
1,35,120,94
1,37,120,2
1,39,119,2
1,42,117,22
1,42,118,46
1,44,118,2
1,42,118,2
1,40,120,10
1,39,119,52
1,37,120,20
1,35,120,46
1,35,119,86
1,35,120,94
1,37,120,2
1,39,119,2
1,42,117,22
1,42,118,46
1,44,118,2
1,42,118,2
1,40,120,10
1,39,119,52
1,37,120,20
1,30,124,46
1,30,124,10
1,30,123,160
1,30,123,2
1,30,123,156
1,30,124,2
1,30,124,156
1,30,123,2
1,30,124,152
1,30,123,2
1,30,123,156
1,30,123,2
1,30,124,156
1,35,122,2
1,37,121,12
1,30,124,10
1,30,124,10
1,30,123,160
1,30,123,2
1,30,123,156
1,30,124,2
1,30,124,156
1,30,123,2
1,30,124,152
1,30,123,2
1,30,123,156
1,30,123,2
1,30,124,156
1,35,122,2
1,37,121,12
1,30,124,10
1,30,124,10
1,30,123,160
1,30,123,2
1,30,123,156
1,30,124,2
1,30,124,156
1,30,123,2
1,30,124,152
1,30,123,2
1,30,123,156
1,30,123,2
1,30,124,156
1,35,122,2
1,37,121,12
1,30,124,10
1,30,124,10
1,30,123,160
1,30,123,2
1,30,123,156
1,30,124,2
1,30,124,156
1,30,123,2
1,30,124,152
1,30,123,2
1,30,123,156
1,30,123,2
1,30,124,156
1,35,122,2
1,37,121,12
1,30,124,10
1,30,124,10
1,30,123,64
1,30,123,2
1,30,123,60
1,30,124,2
1,30,124,60
1,30,123,2
1,30,124,56
1,37,123,2
1,30,123,2
1,37,123,2
1,30,124,18
1,37,123,4
1,30,123,18
1,37,121,18
1,30,124,10
1,37,123,2
1,30,123,2
1,37,123,2
1,30,124,18
1,37,123,4
1,30,123,18
1,37,121,18
1,35,120,10
1,35,119,86
1,35,120,94
1,37,120,2
1,39,119,2
1,42,117,22
1,42,118,46
1,44,118,2
1,42,118,2
1,40,120,10
1,39,119,52
1,37,120,20
1,35,120,46
1,35,119,86
1,35,120,94
1,37,120,2
1,39,119,2
1,42,117,22
1,42,118,46
1,44,118,2
1,42,118,2
1,40,120,10
1,39,119,52
1,37,120,20
1,35,120,46
1,35,119,86
1,35,120,94
1,37,120,2
1,39,119,2
1,42,117,22
1,42,118,46
1,44,118,2
1,42,118,2
1,40,120,10
1,39,119,52
1,37,120,20
1,35,120,46
1,35,119,86
1,35,120,94
1,37,120,2
1,39,119,2
1,42,117,22
1,42,118,46
1,44,118,2
1,42,118,2
1,40,120,10
1,39,119,52
1,37,120,20
1,30,124,46
1,30,124,10
1,30,123,160
1,30,123,2
1,30,123,156
1,30,124,2
1,30,124,156
1,30,123,2
1,30,124,152
1,30,123,2
1,30,123,156
1,30,123,2
1,30,124,156
1,35,122,2
1,37,121,12
1,30,124,10
1,30,124,10
1,30,123,160
1,30,123,2
1,30,123,156
1,30,124,2
1,30,124,156
1,30,123,2
1,30,124,152
1,30,123,2
1,30,123,156
1,30,123,2
1,30,124,156
1,35,122,2
1,37,121,12
1,30,124,10
1,30,124,10
1,30,123,160
1,30,123,2
1,30,123,156
1,30,124,2
1,30,124,156
1,30,123,2
1,30,124,152
1,30,123,2
1,30,123,156
1,30,123,2
1,30,124,156
1,35,122,2
1,37,121,12
1,30,124,10
1,30,124,10
1,30,123,160
1,30,123,2
1,30,123,156
1,30,124,2
1,30,124,156
1,30,123,2
1,30,124,152
1,30,123,2
1,30,123,156
1,30,123,2
1,30,124,156
1,35,122,2
1,37,121,12
1,30,124,10
1,30,124,10
1,30,123,64
1,30,123,2
1,30,123,60
1,30,124,2
1,30,124,60
1,30,123,2
1,30,124,56
1,37,123,2
1,30,123,2
1,37,123,2
1,30,124,18
1,37,123,4
1,30,123,18
1,37,121,18
1,30,124,10
1,37,123,2
1,30,123,2
1,37,123,2
1,30,124,18
1,37,123,4
1,30,123,18
1,37,121,18
1,35,120,10
1,35,119,86
1,35,120,94
1,37,120,2
1,39,119,2
1,42,117,22
1,42,118,46
1,44,118,2
1,42,118,2
1,40,120,10
1,39,119,52
1,37,120,20
1,35,120,46
1,35,119,86
1,35,120,94
1,37,120,2
1,39,119,2
1,42,117,22
1,42,118,46
1,44,118,2
1,42,118,2
1,40,120,10
1,39,119,52
1,37,120,20
1,35,120,46
1,35,119,86
1,35,120,94
1,37,120,2
1,39,119,2
1,42,117,22
1,42,118,46
1,44,118,2
1,42,118,2
1,40,120,10
1,39,119,52
1,37,120,20
1,35,120,46
1,35,119,86
1,35,120,94
1,37,120,2
1,39,119,2
1,42,117,22
1,42,118,46
1,44,118,2
1,42,118,2
1,40,120,10
1,39,119,52
1,37,120,20
1,30,124,46
1,30,124,10
1,30,123,160
1,30,123,2
1,30,123,156
1,30,124,2
1,30,124,156
1,30,123,2
1,30,124,152
1,30,123,2
1,30,123,156
1,30,123,2
1,30,124,156
1,35,122,2
1,37,121,12
1,30,124,10
1,30,124,10
1,30,123,160
1,30,123,2
1,30,123,156
1,30,124,2
1,30,124,156
1,30,123,2
1,30,124,152
1,30,123,2
1,30,123,156
1,30,123,2
1,30,124,156
1,35,122,2
1,37,121,12
1,30,124,10
1,30,124,10
1,30,123,160
1,30,123,2
1,30,123,156
1,30,124,2
1,30,124,156
1,30,123,2
1,30,124,152
1,30,123,2
1,30,123,156
1,30,123,2
1,30,124,156
1,35,122,2
1,37,121,12
1,30,124,10
1,30,124,10
1,30,123,160
1,30,123,2
1,30,123,156
1,30,124,2
1,30,124,156
1,30,123,2
1,30,124,152
1,30,123,2
1,30,123,156
1,30,123,2
1,30,124,156
1,35,122,2
1,37,121,12
1,30,124,10
1,30,124,10
1,30,123,64
1,30,123,2
1,30,123,60
1,30,124,2
1,30,124,60
1,30,123,2
1,30,124,56
1,37,123,2
1,30,123,2
1,37,123,2
1,30,124,18
1,37,123,4
1,30,123,18
1,37,121,18
1,30,124,10
1,37,123,2
1,30,123,2
1,37,123,2
1,30,124,18
1,37,123,4
1,30,123,18
1,37,121,18
1,35,120,10
1,35,119,86
1,35,120,94
1,37,120,2
1,39,119,2
1,42,117,22
1,42,118,46
1,44,118,2
1,42,118,2
1,40,120,10
1,39,119,52
1,37,120,20
1,35,120,46
1,35,119,86
1,35,120,94
1,37,120,2
1,39,119,2
1,42,117,22
1,42,118,46
1,44,118,2
1,42,118,2
1,40,120,10
1,39,119,52
1,37,120,20
1,35,120,46
1,35,119,86
1,35,120,94
1,37,120,2
1,39,119,2
1,42,117,22
1,42,118,46
1,44,118,2
1,42,118,2
1,40,120,10
1,39,119,52
1,37,120,20
1,35,120,46
1,35,119,86
1,35,120,94
1,37,120,2
1,39,119,2
1,42,117,22
1,42,118,46
1,44,118,2
1,42,118,2
1,40,120,10
1,39,119,52
1,37,120,20
1,35,120,46
1,35,119,86
1,35,120,94
1,37,120,2
1,39,119,2
1,42,117,22
1,42,118,46
1,44,118,2
1,42,118,2
1,40,120,10
1,39,119,52
1,37,120,20
1,35,120,46
1,35,119,86
1,35,120,94
1,37,120,2
1,39,119,2
1,42,117,22
1,42,118,46
1,44,118,2
1,42,118,2
1,40,120,10
1,39,119,52
1,37,120,20
1,35,120,46
1,35,119,86
1,35,120,94
1,37,120,2
1,39,119,2
1,42,117,22
1,42,118,46
1,44,118,2
1,42,118,2
1,40,120,10
1,39,119,52
1,37,120,20
1,35,120,46
1,35,119,86
1,35,120,94
1,37,120,2
1,39,119,2
1,42,117,22
1,42,118,46
1,44,118,2
1,42,118,2
1,40,120,10
1,39,119,52
1,37,120,20
1,35,120,46
1,35,119,86
1,35,120,94
1,37,120,2
1,39,119,2
1,42,117,22
1,42,118,46
1,44,118,2
1,42,118,2
1,40,120,10
1,39,119,52
1,37,120,20
1,35,120,46
1,35,119,86
1,35,120,94
1,37,120,2
1,39,119,2
1,42,117,22
1,42,118,46
1,44,118,2
1,42,118,2
1,40,120,10
1,39,119,52
1,37,120,20
1,35,120,46
1,35,119,86
1,35,120,94
1,37,120,2
1,39,119,2
1,42,117,22
1,42,118,46
1,44,118,2
1,42,118,2
1,40,120,10
1,39,119,24
1,37,120,20
2,70,125,9632
2,71,121,76
2,70,126,1780
2,70,125,130
2,70,126,84
2,71,123,132
2,70,126,1848
2,70,125,130
2,70,126,84
2,71,123,132
2,70,126,1848
2,70,125,130
2,70,126,84
2,71,123,132
2,70,125,19320
2,71,121,76
2,70,126,1780
2,70,125,130
2,70,126,84
2,71,123,132
2,70,126,1848
2,70,125,130
2,70,126,84
2,71,123,132
2,70,126,1848
2,70,125,130
2,70,126,84
2,71,123,132
2,70,125,19320
2,71,121,76
2,70,126,1780
2,70,125,130
2,70,126,84
2,71,123,132
2,70,126,1848
2,70,125,130
2,70,126,84
2,71,123,132
2,70,126,1848
2,70,125,130
2,70,126,84
2,71,123,132
2,70,125,19320
2,71,121,76
2,70,126,1396
2,70,126,34
2,70,126,34
2,70,125,130
2,70,126,84
2,71,123,132
2,70,126,1464
2,70,126,96
2,70,126,96
2,70,125,130
2,70,126,84
2,71,123,132
2,70,126,1272
2,70,126,96
2,70,126,96
2,70,126,96
2,70,125,130
2,70,126,84
2,71,123,132
2,70,126,1464
2,70,126,96
2,70,126,96
2,70,125,130
2,70,126,84
2,71,123,132
2,70,126,1464
2,70,126,96
2,70,126,96
2,70,125,130
2,70,126,84
2,71,123,132
2,70,126,1464
2,70,126,96
2,70,126,96
2,70,125,130
2,70,126,84
2,71,123,132
2,70,126,1464
2,70,126,96
2,70,126,96
2,70,125,130
2,70,126,84
2,71,123,132
2,70,126,1464
2,70,126,96
2,70,126,96
2,70,125,130
2,70,126,84
2,71,123,132
2,70,126,778
2,70,126,96
2,70,126,96
2,70,125,130
2,70,126,84
2,71,123,132
2,70,126,148
2,70,126,96
2,70,126,96
2,70,125,130
2,70,126,84
2,71,123,132
2,70,126,330
2,70,126,96
2,70,126,96
2,70,125,130
2,70,126,16
3,76,122,9612
3,75,118,76
3,76,123,1780
3,76,122,130
3,76,123,84
3,75,120,132
3,76,123,1848
3,76,122,130
3,76,123,84
3,75,120,132
3,76,123,1848
3,76,122,130
3,76,123,84
3,75,120,132
3,70,120,3000
3,70,120,92
3,70,120,98
3,70,123,110
3,70,119,154
3,68,110,40
3,70,120,84
3,68,118,92
3,70,121,36
3,70,116,900
3,70,119,116
3,68,118,96
3,70,118,100
3,68,112,70
3,70,118,16
3,70,116,1632
3,70,116,120
3,70,118,122
3,70,120,126
3,70,118,190
3,68,118,48
3,70,122,48
3,70,122,160
3,70,114,1088
3,70,118,106
3,68,110,2
3,70,115,80
3,70,118,52
3,68,112,26
3,70,116,46
3,68,106,2
3,73,119,1008
3,70,112,2
3,76,121,922
3,73,110,2
3,78,118,956
3,78,122,12
3,76,122,138
3,75,118,12
3,76,123,1780
3,76,122,130
3,76,123,84
3,75,120,132
3,76,123,1848
3,76,122,130
3,76,123,84
3,75,120,132
3,76,123,1848
3,76,122,130
3,76,123,84
3,75,120,132
3,70,122,3000
3,70,123,94
3,70,123,90
3,70,122,90
3,70,122,104
3,68,122,92
3,70,123,80
3,70,122,1166
3,70,121,90
3,70,122,50
3,70,122,82
3,70,122,78
3,68,117,2
3,70,123,2
3,70,120,1534
3,70,120,84
3,70,122,88
3,70,121,96
3,70,120,94
3,68,119,62
3,70,121,42
3,70,120,54
3,70,120,1244
3,70,119,86
3,70,121,92
3,70,121,96
3,70,120,96
3,68,118,46
3,70,123,82
3,73,122,764
3,70,120,2
3,76,122,938
3,73,120,2
3,78,123,884
3,78,123,66
3,76,123,54
3,75,118,58
3,76,123,1780
3,76,122,130
3,76,123,84
3,75,120,132
3,76,123,1848
3,76,122,130
3,76,123,84
3,75,120,132
3,76,123,1848
3,76,122,130
3,76,123,84
3,75,120,132
3,70,119,3000
3,70,120,88
3,70,121,96
3,70,120,120
3,70,120,72
3,68,119,2
3,70,122,2
3,70,120,68
3,70,122,1230
3,68,111,2
3,70,122,72
3,68,116,2
3,70,123,54
3,68,111,2
3,70,122,26
3,70,120,1406
3,70,120,100
3,68,118,94
3,70,121,94
3,70,121,58
3,68,115,240
3,70,120,60
3,70,120,72
3,68,110,24
3,70,121,84
3,70,120,706
3,70,120,90
3,68,116,42
3,70,121,56
3,70,120,78
3,70,122,170
3,73,122,740
3,70,123,2
3,76,123,918
3,73,121,2
3,78,123,868
3,78,123,108
3,76,122,66
3,75,118,72
3,76,118,1396
3,76,119,12
3,76,123,12
3,76,122,130
3,76,123,84
3,75,120,132
3,76,123,1464
3,76,123,96
3,76,123,96
3,76,122,130
3,76,123,84
3,75,120,132
3,76,123,1272
3,76,123,96
3,76,123,96
3,76,123,96
3,76,122,130
3,76,123,84
3,75,120,132
3,76,123,1464
3,76,123,96
3,76,123,96
3,76,122,130
3,76,123,84
3,75,120,132
3,76,123,1464
3,76,123,96
3,76,123,96
3,76,122,130
3,76,123,84
3,75,120,132
3,76,123,1464
3,76,123,96
3,76,123,96
3,76,122,130
3,76,123,84
3,75,120,132
3,76,123,1464
3,76,123,96
3,76,123,96
3,76,122,130
3,76,123,84
3,75,120,132
3,76,123,1464
3,76,123,96
3,76,123,96
3,76,122,130
3,76,123,84
3,75,120,132
3,76,123,772
3,76,123,96
3,76,123,96
3,76,122,130
3,76,123,84
3,75,120,132
3,76,123,142
3,76,123,96
3,76,123,96
3,76,122,130
3,76,123,84
3,75,120,132
3,76,123,322
3,76,123,96
3,76,123,96
3,76,122,130
3,76,123,8
4,47,91,656
4,47,91,54
4,44,93,2
4,47,87,2
4,44,92,2
4,42,95,2
4,47,91,188
4,47,91,54
4,44,93,2
4,47,87,2
4,44,92,2
4,42,95,2
4,42,93,12
4,42,86,2
4,44,93,2
4,47,77,2
4,44,93,2
4,42,85,2
4,47,91,2
4,47,91,54
4,44,93,2
4,47,87,2
4,44,92,2
4,42,95,2
4,42,93,12
4,42,86,2
4,44,93,2
4,47,77,2
4,44,93,2
4,42,85,2
4,47,91,2
4,47,91,54
4,44,93,2
4,47,87,2
4,44,92,2
4,42,95,2
4,42,93,12
4,42,86,2
4,44,93,2
4,47,77,2
4,44,93,2
4,42,85,2
4,47,91,2
4,47,91,54
4,44,93,2
4,47,87,2
4,44,92,2
4,42,95,2
4,42,93,12
4,42,86,2
4,44,93,2
4,47,77,2
4,44,93,2
4,42,85,2
4,47,91,2
4,47,91,54
4,44,93,2
4,47,87,2
4,44,92,2
4,42,95,2
4,42,93,12
4,42,86,2
4,44,93,2
4,47,77,2
4,44,93,2
4,42,85,2
4,47,91,2
4,47,91,54
4,44,93,2
4,47,87,2
4,44,92,2
4,42,95,2
4,42,93,12
4,42,86,2
4,51,93,2
4,47,77,2
4,52,93,2
4,49,85,2
4,42,75,2
4,42,73,130
4,42,72,106
4,42,73,98
4,42,74,104
4,42,75,124
4,51,70,72
4,47,73,12
4,52,72,2
4,49,68,2
4,42,75,22
4,42,73,130
4,42,72,106
4,42,73,98
4,42,74,104
4,42,75,124
4,51,70,72
4,47,73,12
4,52,72,2
4,49,68,2
4,42,75,22
4,42,73,130
4,42,72,106
4,42,73,98
4,42,74,104
4,42,75,124
4,51,70,72
4,47,73,12
4,52,72,2
4,49,68,2
4,42,75,22
4,42,73,130
4,42,72,106
4,42,73,98
4,42,74,104
4,42,75,124
4,51,70,72
4,47,73,12
4,52,72,2
4,49,68,2
4,42,75,22
4,42,73,130
4,42,72,106
