track,note,velocity,time
0,42,110,0
0,42,0,116
0,42,90,364
0,42,0,116
0,42,90,364
0,42,0,116
0,42,90,364
0,42,0,116
0,74,119,359
0,70,108,1
0,58,83,0
0,65,110,2
0,70,77,0
0,65,76,2
0,74,80,1
0,58,112,2
0,65,112,355
0,74,0,109
0,65,0,5
0,65,0,3
0,70,0,0
0,65,113,4
0,70,112,1
0,74,101,0
0,74,0,234
0,77,109,5
0,65,105,123
0,65,0,109
0,77,0,5
0,70,0,0
0,70,113,0
0,65,0,4
0,75,109,1
0,65,107,3
0,70,0,472
0,74,110,0
0,75,0,1
0,70,101,4
0,65,113,2
0,65,0,1
0,74,0,228
0,72,105,8
0,72,0,115
0,70,110,2
0,58,0,114
0,70,0,2
0,65,0,1
0,74,0,0
0,70,0,1
0,65,119,1
0,72,105,1
0,70,0,1
0,57,104,0
0,65,0,1
0,69,78,0
0,69,104,1
0,57,80,0
0,72,80,0
0,58,0,2
0,65,80,1
0,72,0,470
0,72,108,5
0,72,0,237
0,65,111,6
0,65,0,230
0,69,0,0
0,57,0,2
0,65,0,1
0,69,79,1
0,50,118,1
0,74,116,0
0,69,0,1
0,69,101,0
0,50,80,0
0,72,0,1
0,57,0,1
0,67,107,1
0,65,0,2
0,67,82,1
0,74,81,1
0,50,0,464
0,69,0,1
0,74,0,3
0,50,0,0
0,72,105,4
0,74,0,0
0,66,80,0
0,67,0,2
0,67,0,0
0,54,77,1
0,66,107,1
0,69,112,0
0,72,84,0
0,54,117,4
0,66,0,465
0,72,0,3
0,69,0,0
0,70,105,3
0,54,0,1
0,67,84,0
0,66,0,1
0,69,0,0
0,55,110,2
0,72,0,0
0,55,80,0
0,70,80,0
0,67,115,3
0,62,76,0
0,54,0,1
0,65,114,0
0,70,0,233
0,72,110,8
0,72,0,239
0,69,101,0
0,69,0,233
0,65,117,2
0,67,0,234
0,70,0,2
0,65,0,1
0,55,0,1
0,65,103,0
0,70,113,0
0,69,81,0
0,62,0,1
0,55,0,1
0,53,79,0
0,65,84,0
0,65,0,1
0,53,108,1
0,67,0,2
0,60,81,0
0,70,0,234
0,72,110,6
0,72,0,240
0,69,105,1
0,69,0,233
0,65,101,4
0,65,0,229
0,65,0,1
0,69,0,4
0,53,0,0
0,53,0,1
0,51,106,0
0,60,0,0
0,51,84,2
0,62,82,0
0,63,81,1
0,65,0,1
0,67,81,1
0,62,101,1
0,67,104,1
0,58,80,1
0,69,112,237
0,67,0,1
0,69,0,236
0,70,105,0
0,70,0,240
0,72,102,2
0,51,0,231
0,63,0,1
0,62,0,0
0,51,0,2
0,72,0,3
0,62,0,0
0,67,0,0
0,69,102,1
0,58,0,1
0,65,77,0
0,60,76,1
0,74,103,1
0,53,114,1
0,65,110,0
0,53,77,0
0,74,0,232
0,72,110,2
0,72,120,125
0,36,120,0
0,72,0,114
0,36,0,2
0,70,103,3
0,37,120,1
0,40,120,0
0,72,0,116
0,40,0,0
0,37,0,0
0,70,0,115
0,69,106,8
0,36,120,121
0,69,0,108
0,69,0,6
0,65,0,0
0,60,0,1
0,36,0,1
0,53,0,1
0,74,77,1
0,70,116,1
0,53,0,1
0,65,0,0
0,58,112,0
0,70,84,0
0,36,120,0
0,42,120,0
0,65,76,4
0,42,0,52
0,36,0,60
0,42,120,64
0,70,0,51
0,42,0,5
0,77,118,2
0,74,127,7
0,74,0,101
0,77,122,8
0,72,120,6
0,42,120,0
0,42,0,56
0,77,0,40
0,75,100,15
0,70,0,2
0,74,0,1
0,77,0,2
0,58,0,0
0,72,80,0
0,72,107,1
0,57,109,1
0,37,120,2
0,40,120,0
0,42,120,0
0,65,81,2
0,69,80,0
0,65,0,1
0,69,104,1
0,74,127,4
0,72,0,3
0,70,110,7
0,77,118,1
0,42,120,0
0,72,122,12
0,57,0,13
0,69,0,2
0,77,0,1
0,67,110,0
0,67,81,0
0,72,0,1
0,42,0,0
0,55,104,2
0,62,81,1
0,70,106,1
0,70,82,0
0,36,120,0
0,42,120,0
0,65,0,2
0,69,0,3
0,42,0,51
0,42,120,19
0,70,107,2
0,42,120,2
0,74,122,1
0,77,103,4
0,42,0,1
0,72,120,4
0,36,120,0
0,42,120,0
0,72,127,0
0,74,113,17
0,72,0,11
0,73,41,23
0,72,104,2
0,74,0,2
0,73,0,15
0,67,0,4
0,55,0,2
0,77,0,1
0,67,0,3
0,42,0,1
0,36,0,0
0,62,0,1
0,53,115,1
0,70,0,0
0,65,76,0
0,69,103,1
0,37,120,1
0,40,120,0
0,42,120,0
0,60,79,2
0,69,81,0
0,65,116,2
0,72,0,8
0,70,87,5
0,72,0,99
0,42,0,0
0,40,0,0
0,37,0,0
0,42,120,9
0,69,111,1
0,42,120,0
0,70,114,1
0,69,104,3
0,67,101,10
0,65,0,2
0,53,0,1
0,60,0,0
0,70,0,1
0,63,83,1
0,42,0,0
0,58,116,1
0,51,111,2
0,67,115,0
0,69,0,0
0,67,83,0
0,63,101,1
0,36,120,0
0,42,120,0
0,65,0,1
0,58,76,2
0,42,0,53
0,36,0,60
0,42,120,64
0,67,0,48
0,69,122,2
0,42,0,6
0,42,120,4
0,42,0,116
0,72,120,4
0,36,120,0
0,42,120,0
0,70,104,111
0,42,0,5
0,36,0,0
0,69,0,3
0,37,120,1
0,40,120,0
0,42,120,0
0,72,0,116
0,42,0,0
0,40,0,0
0,37,0,0
0,72,117,115
0,70,0,4
0,72,0,222
0,74,94,11
0,63,0,1
0,67,0,3
0,51,0,1
0,67,0,0
0,58,0,1
0,63,0,0
0,58,0,2
0,65,84,1
0,65,118,1
0,60,77,0
0,53,102,2
0,74,119,0
0,36,120,0
0,42,120,0
0,69,81,1
0,42,120,4
0,42,120,4
0,74,0,36
0,72,104,0
0,74,0,11
0,42,0,1
0,72,110,1
0,42,120,3
0,72,120,4
0,36,120,0
0,42,120,0
0,70,91,1
0,72,0,21
0,42,0,5
0,36,0,0
0,37,120,4
0,40,120,0
0,42,120,0
0,70,116,2
0,69,117,21
0,69,97,2
0,70,0,5
0,70,0,4
0,36,120,113
0,42,120,0
0,69,0,77
0,65,0,32
0,65,0,3
0,69,0,1
0,42,0,3
0,36,0,0
0,60,0,1
0,65,80,1
0,70,80,0
0,53,0,1
0,70,108,0
0,69,0,1
0,36,120,0
0,42,120,0
0,58,117,2
0,74,76,2
0,65,113,10
0,42,0,42
0,42,120,1
0,77,107,5
0,65,0,2
0,74,104,0
0,72,120,113
0,42,120,0
0,74,0,3
0,77,108,4
0,42,0,49
0,77,0,52
0,70,0,4
0,77,0,1
0,57,105,4
0,65,0,0
0,72,80,0
0,69,81,1
0,58,0,2
0,37,120,0
0,40,120,0
0,42,120,0
0,72,117,1
0,65,77,1
0,69,106,1
0,75,100,0
0,74,0,0
0,74,108,12
0,72,0,4
0,70,101,2
0,42,120,2
0,77,110,4
0,72,113,2
0,72,0,2
0,69,0,2
0,77,0,2
0,42,0,0
0,65,0,1
0,70,81,0
0,67,110,1
0,74,0,0
0,55,113,1
0,70,109,0
0,36,120,1
0,42,120,0
0,62,82,1
0,69,0,2
0,67,83,1
0,42,0,52
0,42,120,17
0,42,120,4
0,70,103,4
0,72,0,7
0,74,113,0
0,72,120,1
0,36,120,0
0,42,120,0
0,77,110,3
0,72,122,20
0,74,0,1
0,74,101,30
0,72,0,4
0,72,97,34
0,74,0,8
0,67,0,11
0,55,0,2
0,62,0,0
0,53,115,2
0,70,0,0
0,42,0,1
0,36,0,0
0,65,103,1
0,77,0,1
0,67,0,2
0,60,80,0
0,37,120,0
0,40,120,0
0,42,120,0
0,69,113,2
0,69,79,1
0,65,80,1
0,72,0,12
0,70,83,3
0,72,0,97
0,42,0,0
0,40,0,0
0,37,0,0
0,42,120,5
0,69,108,2
0,70,104,1
0,69,0,3
0,42,120,0
0,65,0,110
0,70,0,3
0,53,0,2
0,65,0,1
0,42,0,0
0,58,84,1
0,67,76,0
0,63,114,2
0,67,105,0
0,60,0,0
0,69,0,1
0,36,120,0
0,42,120,0
0,51,110,1
0,63,83,0
0,58,112,1
0,42,0,54
0,36,0,60
0,42,120,64
0,42,0,56
0,67,104,4
0,42,120,0
0,42,0,116
0,72,120,4
0,36,120,0
0,42,120,0
0,67,0,13
0,69,117,4
0,42,0,99
0,36,0,0
0,69,0,1
0,37,120,3
0,40,120,0
0,42,120,0
0,70,95,16
0,72,0,100
0,42,0,0
0,40,0,0
0,37,0,0
0,72,101,49
0,70,0,9
0,69,77,2
0,63,0,1
0,53,104,0
0,65,109,1
0,74,101,1
0,74,97,0
0,36,120,0
0,42,120,0
0,63,0,1
0,60,76,3
0,65,78,0
0,42,0,52
0,42,120,4
0,42,120,4
0,72,109,3
0,42,0,1
0,42,120,4
0,72,94,0
0,42,0,100
0,72,120,4
0,36,120,0
0,42,120,0
0,72,0,102
0,72,0,9
0,70,80,2
0,42,0,3
0,36,0,0
0,70,110,4
0,37,120,0
0,40,120,0
0,42,120,0
0,69,91,109
0,70,0,3
0,72,0,4
0,42,0,0
0,40,0,0
0,37,0,0
0,69,0,82
0,69,122,31
0,70,0,3
0,69,112,7
0,69,0,104
0,70,95,5
0,36,120,12
0,42,120,0
0,70,0,108
0,69,0,3
0,69,122,3
0,53,0,1
0,67,83,0
0,69,0,1
0,62,114,0
0,60,0,0
0,42,0,0
0,36,0,0
0,65,0,3
0,65,0,0
0,39,117,1
0,36,120,0
0,42,120,0
0,39,109,1
0,51,106,0
0,62,80,0
0,67,106,1
0,58,82,1
0,58,104,1
0,63,112,0
0,42,0,52
0,42,120,32
0,70,95,4
0,72,120,100
0,42,120,0
0,42,0,56
0,53,105,0
0,58,0,1
0,69,102,0
0,60,118,1
0,41,108,1
0,62,0,0
0,63,0,1
0,69,77,0
0,51,0,1
0,65,84,0
0,37,120,0
0,40,120,0
0,42,120,0
0,60,76,1
0,67,0,1
0,65,117,1
0,58,0,0
0,41,110,1
0,70,0,23
0,69,127,2
0,72,0,87
0,42,0,0
0,40,0,0
0,37,0,0
0,69,117,2
0,42,120,92
0,69,0,14
0,70,100,4
0,41,0,93
0,69,0,1
0,60,0,0
0,53,0,1
0,41,0,3
0,60,0,0
0,42,0,0
0,65,0,1
0,69,0,0
0,65,0,2
0,65,84,0
0,38,111,1
0,60,112,0
0,69,108,0
0,36,120,0
0,42,120,0
0,38,111,1
0,60,79,1
0,69,80,0
0,50,104,2
0,65,108,0
0,70,0,14
0,69,122,6
0,42,0,32
0,36,0,60
0,42,120,14
0,42,120,4
0,70,100,2
0,51,101,1
0,69,0,0
0,42,0,0
0,62,101,1
0,65,0,0
0,63,78,0
0,60,0,1
0,67,113,1
0,39,110,1
0,60,0,0
0,39,118,0
0,72,120,0
0,36,120,0
0,42,120,0
0,50,0,1
0,38,0,0
0,62,79,1
0,65,0,1
0,58,118,0
0,58,80,1
0,67,80,0
0,67,97,12
0,42,0,17
0,36,0,0
0,37,120,4
0,40,120,0
0,42,120,0
0,72,0,116
0,42,0,0
0,40,0,0
0,37,0,0
0,72,117,4
0,42,120,3
0,70,95,49
0,42,0,0
0,42,120,4
0,72,0,6
0,70,0,97
0,62,0,7
0,51,0,5
0,58,102,0
0,63,0,0
0,39,0,1
0,39,111,0
0,42,0,0
0,63,115,1
0,67,114,0
0,62,0,0
0,39,0,1
0,67,0,0
0,62,117,0
0,69,117,0
0,67,0,0
0,67,80,0
0,39,109,1
0,51,105,1
0,58,78,0
0,62,77,0
0,36,120,0
0,42,120,0
0,58,0,2
0,58,0,0
0,42,0,54
0,36,0,60
0,42,120,21
0,42,120,4
0,72,120,4
0,36,120,0
0,42,120,0
0,69,79,1
0,41,107,1
0,53,102,0
0,65,119,0
0,69,107,0
0,60,81,0
0,37,120,0
0,40,120,0
0,42,120,0
0,41,119,1
0,60,102,0
0,65,80,1
0,69,0,6
0,70,100,2
0,72,0,106
0,42,0,0
0,40,0,0
0,37,0,0
0,65,111,2
0,65,0,1
0,62,110,0
0,70,0,0
0,65,77,0
0,69,80,0
0,46,101,1
0,69,109,0
0,62,80,0
0,58,79,1
0,34,110,1
0,53,0,0
0,65,108,0
0,69,0,0
0,60,0,1
0,65,0,0
0,34,114,1
0,36,120,119
0,42,120,0
0,42,0,56
0,42,120,3
0,42,120,4
0,42,120,4
0,70,104,1
0,72,120,3
0,36,120,0
0,42,120,0
0,69,114,1
0,37,120,3
0,40,120,0
0,42,120,0
0,65,104,7
0,62,111,3
0,72,113,2
0,72,0,98
0,70,91,6
0,58,117,11
0,62,0,2
0,36,120,1
0,42,120,0
0,70,0,100
0,62,0,9
0,69,117,0
0,46,0,1
0,58,0,0
0,58,0,0
0,69,0,1
0,65,0,1
0,62,0,1
0,65,0,0
0,67,111,3
0,42,0,0
0,36,0,0
0,69,0,1
0,67,80,0
0,62,80,1
0,34,0,1
0,34,0,0
0,51,113,0
0,58,113,0
0,63,107,0
0,39,110,1
0,39,104,0
0,36,120,0
0,42,120,0
0,62,115,1
0,58,77,0
0,42,0,55
0,42,120,18
0,70,100,2
0,69,0,7
0,42,0,0
0,72,120,23
0,42,120,0
0,69,117,6
0,67,0,8
0,67,0,4
0,39,0,2
0,60,84,0
0,51,0,1
0,41,107,0
0,53,107,0
0,69,118,0
0,58,0,0
0,62,0,0
0,39,0,1
0,63,0,0
0,58,0,2
0,69,76,0
0,62,0,1
0,60,115,0
0,37,120,0
0,40,120,0
0,42,120,0
0,41,110,1
0,65,107,0
0,65,80,3
0,69,108,22
0,70,100,10
0,69,0,2
0,42,120,5
0,69,122,4
0,69,0,6
0,65,0,1
0,41,0,0
0,53,0,1
0,69,0,0
0,60,0,0
0,60,0,0
0,65,101,1
0,42,0,0
0,50,118,1
0,60,77,1
0,60,110,1
0,65,0,0
0,36,120,1
0,42,120,0
0,41,0,1
0,65,79,0
0,69,82,0
0,38,113,1
0,38,119,2
0,69,106,0
0,42,0,52
0,42,120,51
0,70,95,6
0,42,0,6
0,42,120,4
0,58,83,0
0,39,107,1
0,62,80,0
0,42,0,0
0,67,80,1
0,62,114,1
0,69,0,0
0,39,110,1
0,38,0,1
0,58,102,0
0,67,109,0
0,63,76,0
0,72,120,0
0,36,120,0
0,42,120,0
0,38,0,2
0,51,111,1
0,69,0,1
0,65,101,6
0,42,0,16
0,36,0,0
0,37,120,4
0,40,120,0
0,42,120,0
0,42,120,0
0,42,0,116
0,42,120,4
0,70,100,9
0,70,0,87
0,69,122,13
0,62,0,2
0,39,0,0
0,62,0,1
0,58,0,1
0,67,0,1
0,63,0,2
0,62,84,0
0,42,0,0
0,58,116,1
0,67,82,0
0,39,0,1
0,67,0,0
0,51,0,0
0,58,0,0
0,63,104,1
0,39,111,1
0,39,101,0
0,67,101,0
0,58,78,0
0,36,120,0
0,42,120,0
0,55,116,1
0,51,112,1
0,62,108,2
0,42,0,52
0,57,118,1
0,42,120,25
0,42,120,4
0,70,110,4
0,69,0,2
0,72,120,4
0,36,120,0
0,42,120,0
0,58,103,1
0,60,114,0
0,57,77,0
0,42,0,0
0,36,0,0
0,62,0,1
0,58,0,0
0,41,110,1
0,51,0,0
0,53,118,1
0,37,120,1
0,40,120,0
0,42,120,0
0,58,0,1
0,60,82,0
0,65,78,0
0,41,104,2
0,65,105,0
0,69,113,0
0,57,105,1
0,72,0,112
0,42,0,0
0,40,0,0
0,37,0,0
0,70,104,15
0,69,0,6
0,60,0,99
0,65,0,4
0,60,0,0
0,57,0,0
0,65,0,1
0,65,111,0
0,57,82,0
0,41,0,1
0,41,0,1
0,57,0,0
0,53,0,1
0,70,0,0
0,65,82,0
0,34,106,1
0,62,113,1
0,62,84,0
0,34,118,1
0,57,115,0
0,46,106,2
0,58,79,0
0,77,117,6
0,36,120,17
0,42,120,0
0,65,111,1
0,42,120,3
0,75,104,11
0,77,0,9
0,42,120,4
0,65,0,49
0,74,117,4
0,60,113,3
0,42,0,0
0,75,0,3
0,42,120,1
0,60,0,110
0,72,113,5
0,42,0,1
0,72,120,4
