track,note,velocity,time
3,65,79,5184
3,65,0,128
3,69,79,64
3,69,0,384
3,70,79,192
3,70,0,128
3,70,79,64
3,70,0,1016
3,65,79,1096
3,65,0,128
3,69,79,64
3,69,0,384
3,70,79,192
3,70,0,128
3,70,79,64
3,70,0,1016
3,65,79,1096
3,65,0,128
3,69,79,64
3,69,0,384
3,70,79,192
3,70,0,128
3,70,79,64
3,70,0,256
3,69,79,128
3,69,0,128
3,70,79,64
3,70,0,448
3,72,79,128
3,72,0,128
3,74,79,64
3,74,0,448
3,72,79,128
3,72,0,128
3,70,79,64
3,70,0,320
3,69,79,64
3,69,0,256
3,67,79,128
3,67,0,1208
3,67,79,1096
3,67,0,128
3,71,79,64
3,71,0,384
3,72,79,192
3,72,0,128
3,72,79,64
3,72,0,1280
3,71,79,64
3,71,0,576
3,67,79,192
3,67,0,128
3,71,79,64
3,71,0,256
3,71,79,128
3,71,0,256
3,67,79,128
3,67,0,1016
3,67,79,1096
3,67,0,128
3,71,79,64
3,71,0,384
3,72,79,192
3,72,0,128
3,72,79,64
3,72,0,256
3,70,79,128
3,70,0,128
3,70,79,64
3,70,0,448
3,72,79,128
3,72,0,128
3,74,79,64
3,74,0,448
3,72,79,128
3,72,0,128
3,70,79,64
3,70,0,320
3,69,79,64
3,69,0,256
3,65,79,128
3,65,0,1208
3,65,79,1096
3,65,0,128
3,69,79,64
3,69,0,384
3,70,79,192
3,70,0,128
3,70,79,64
3,70,0,1016
3,65,79,1096
3,65,0,128
3,69,79,64
3,69,0,384
3,70,79,192
3,70,0,128
3,70,79,64
3,70,0,1016
3,65,79,1096
3,65,0,128
3,69,79,64
3,69,0,384
3,70,79,192
3,70,0,128
3,70,79,64
3,70,0,256
3,69,79,128
3,69,0,128
3,70,79,64
3,70,0,448
3,72,79,128
3,72,0,128
3,74,79,64
3,74,0,448
3,72,79,128
3,72,0,128
3,70,79,64
3,70,0,320
3,69,79,64
3,69,0,256
3,67,79,128
3,67,0,1208
3,67,79,1096
3,67,0,128
3,71,79,64
3,71,0,384
3,72,79,192
3,72,0,128
3,72,79,64
3,72,0,1280
3,71,79,64
3,71,0,576
3,67,79,192
3,67,0,128
3,71,79,64
3,71,0,256
3,71,79,128
3,71,0,256
3,67,79,128
3,67,0,1016
3,67,79,1096
3,67,0,128
3,71,79,64
3,71,0,384
3,72,79,192
3,72,0,128
3,72,79,64
3,72,0,256
3,70,79,128
3,70,0,128
3,70,79,64
3,70,0,448
3,72,79,128
3,72,0,128
3,74,79,64
3,74,0,448
3,72,79,128
3,72,0,128
3,70,79,64
3,70,0,320
3,69,79,64
3,69,0,256
3,70,79,128
3,70,0,1208
3,70,79,1288
3,70,0,128
3,70,79,64
3,70,0,256
3,67,79,128
3,67,0,696
3,70,79,648
3,70,0,128
3,69,79,64
3,69,0,960
3,65,79,384
3,65,0,128
3,69,79,64
3,69,0,320
3,70,79,64
3,70,0,952
3,70,95,1160
3,70,0,128
3,70,95,64
3,70,0,256
3,67,95,128
3,67,0,688
3,65,95,656
3,65,0,128
3,69,95,64
3,69,0,448
3,67,95,128
3,67,0,128
3,65,95,64
3,65,0,320
3,67,95,64
3,67,0,256
3,62,95,128
3,62,0,1208
3,70,95,1288
3,70,0,128
3,70,95,64
3,70,0,256
3,67,95,128
3,67,0,696
3,70,95,648
3,70,0,128
3,69,95,64
3,69,0,688
3,65,95,656
3,65,0,128
3,72,95,64
3,72,0,448
3,74,95,128
3,74,0,128
3,70,95,64
3,70,0,696
3,70,95,1032
3,70,0,128
3,70,95,64
3,70,0,256
3,67,95,128
3,67,0,448
3,65,95,128
3,65,0,128
3,63,95,64
3,63,0,448
3,60,95,128
3,60,0,128
3,62,95,64
3,62,0,320
3,60,95,64
3,60,0,256
3,62,95,128
3,62,0,320
3,60,95,64
3,60,0,256
3,58,95,128
3,58,0,128
3,58,79,64
3,58,0,1016
3,65,79,1096
3,65,0,128
3,69,79,64
3,69,0,384
3,70,79,192
3,70,0,128
3,70,79,64
3,70,0,1016
3,65,79,1096
3,65,0,128
3,69,79,64
3,69,0,384
3,70,79,192
3,70,0,128
3,70,79,64
3,70,0,1016
3,65,79,1096
3,65,0,128
3,69,79,64
3,69,0,384
3,70,79,192
3,70,0,128
3,70,79,64
3,70,0,256
3,69,79,128
3,69,0,128
3,70,79,64
3,70,0,448
3,72,79,128
3,72,0,128
3,74,79,64
3,74,0,448
3,72,79,128
3,72,0,128
3,70,79,64
3,70,0,320
3,69,79,64
3,69,0,256
3,67,79,128
3,67,0,1208
3,67,79,1096
3,67,0,128
3,71,79,64
3,71,0,384
3,72,79,192
3,72,0,128
3,72,79,64
3,72,0,1280
3,71,79,64
3,71,0,576
3,67,79,192
3,67,0,128
3,71,79,64
3,71,0,256
3,71,79,128
3,71,0,256
3,67,79,128
3,67,0,1016
3,67,79,1096
3,67,0,128
3,71,79,64
3,71,0,384
3,72,79,192
3,72,0,128
3,72,79,64
3,72,0,256
3,70,79,128
3,70,0,128
3,70,79,64
3,70,0,448
3,72,79,128
3,72,0,128
3,74,79,64
3,74,0,448
3,72,79,128
3,72,0,128
3,70,79,64
3,70,0,320
3,69,79,64
3,69,0,256
3,65,79,128
3,65,0,1208
3,65,79,1096
3,65,0,128
3,69,79,64
3,69,0,384
3,70,79,192
3,70,0,128
3,70,79,64
3,70,0,1016
3,65,79,1096
3,65,0,128
3,69,79,64
3,69,0,384
3,70,79,192
3,70,0,128
3,70,79,64
3,70,0,1016
3,65,79,1096
3,65,0,128
3,69,79,64
3,69,0,384
3,70,79,192
3,70,0,128
3,70,79,64
3,70,0,256
3,69,79,128
3,69,0,128
3,70,79,64
3,70,0,448
3,72,79,128
3,72,0,128
3,74,79,64
3,74,0,448
3,72,79,128
3,72,0,128
3,70,79,64
3,70,0,320
3,69,79,64
3,69,0,256
3,67,79,128
3,67,0,1208
3,67,79,1096
3,67,0,128
3,71,79,64
3,71,0,384
3,72,79,192
3,72,0,128
3,72,79,64
3,72,0,1280
3,71,79,64
3,71,0,576
3,67,79,192
3,67,0,128
3,71,79,64
3,71,0,256
3,71,79,128
3,71,0,256
3,67,79,128
3,67,0,1016
3,67,79,1096
3,67,0,128
3,71,79,64
3,71,0,384
3,72,79,192
3,72,0,128
3,72,79,64
3,72,0,256
3,70,79,128
3,70,0,128
3,70,79,64
3,70,0,448
3,72,79,128
3,72,0,128
3,74,79,64
3,74,0,448
3,72,79,128
3,72,0,128
3,70,79,64
3,70,0,320
3,69,79,64
3,69,0,256
3,70,79,128
3,70,0,1208
3,70,79,1288
3,70,0,128
3,70,79,64
3,70,0,256
3,67,79,128
3,67,0,696
3,70,79,648
3,70,0,128
3,69,79,64
3,69,0,960
3,65,79,384
3,65,0,128
3,69,79,64
3,69,0,320
3,70,79,64
3,70,0,952
3,70,95,1160
3,70,0,128
3,70,95,64
3,70,0,256
3,67,95,128
3,67,0,688
3,65,95,656
3,65,0,128
3,69,95,64
3,69,0,448
3,67,95,128
3,67,0,128
3,65,95,64
3,65,0,320
3,67,95,64
3,67,0,256
3,62,95,128
3,62,0,1208
3,70,95,1288
3,70,0,128
3,70,95,64
3,70,0,256
3,67,95,128
3,67,0,696
3,70,95,648
3,70,0,128
3,69,95,64
3,69,0,688
3,65,95,656
3,65,0,128
3,72,95,64
3,72,0,448
3,74,95,128
3,74,0,128
3,70,95,64
3,70,0,696
3,70,95,1032
3,70,0,128
3,70,95,64
3,70,0,256
3,67,95,128
3,67,0,448
3,65,95,128
3,65,0,128
3,63,95,64
3,63,0,448
3,60,95,128
3,60,0,128
3,62,95,64
3,62,0,320
3,60,95,64
3,60,0,256
3,62,95,128
3,62,0,320
3,60,95,64
3,60,0,256
3,58,95,128
3,58,0,128
3,58,79,64
3,58,0,1016
3,70,79,1288
3,70,0,128
3,70,79,64
3,70,0,256
3,69,79,128
3,69,0,192
3,67,79,0
3,67,0,504
3,70,79,648
3,70,0,128
3,69,79,64
3,69,0,960
3,65,79,384
3,65,0,128
3,69,79,64
3,69,0,320
3,70,79,64
3,70,0,952
3,70,95,1160
3,70,0,128
3,70,95,64
3,70,0,256
3,67,95,128
3,67,0,688
3,65,95,656
3,65,0,128
3,69,95,64
3,69,0,448
3,67,95,128
3,67,0,128
3,65,95,64
3,65,0,320
3,67,95,64
3,67,0,256
3,62,95,128
3,62,0,1208
3,70,95,1288
3,70,0,128
3,70,95,64
3,70,0,256
3,67,95,128
3,67,0,696
3,70,95,648
3,70,0,128
3,69,95,64
3,69,0,688
3,65,95,656
3,65,0,128
3,72,95,64
3,72,0,448
3,74,95,128
3,74,0,128
3,70,95,64
3,70,0,696
3,70,95,1032
3,70,0,128
3,70,95,64
3,70,0,256
3,67,95,128
3,67,0,448
3,65,95,128
3,65,0,128
3,63,95,64
3,63,0,448
3,60,95,128
3,60,0,128
3,62,95,64
3,62,0,320
3,60,95,64
3,60,0,256
3,62,95,128
3,62,0,320
3,60,95,64
3,60,0,256
3,58,95,128
3,58,0,128
3,58,79,64
3,58,0,1016
3,70,79,520
3,70,0,504
3,68,79,264
3,68,0,504
3,70,79,264
3,70,0,1016
3,72,79,520
3,72,0,504
3,70,79,264
3,70,0,504
3,77,79,264
3,77,0,632
4,36,64,0
4,69,64,62
4,36,0,55
4,69,0,62
4,69,64,58
4,69,0,114
4,63,64,61
4,37,64,22
4,69,64,20
4,63,0,44
4,37,0,28
4,69,0,35
4,69,64,82
4,69,0,94
4,69,64,69
4,69,0,100
4,69,64,75
4,62,64,0
4,69,0,94
4,62,0,20
4,69,64,62
4,37,64,0
4,64,64,28
4,69,0,65
4,37,0,11
4,64,0,22
4,69,64,56
4,64,64,16
4,69,0,74
4,64,0,53
4,69,64,35
4,69,0,88
4,69,64,106
4,69,0,91
4,69,64,99
4,37,64,11
4,63,64,17
4,69,0,61
4,37,0,27
4,63,0,4
4,69,64,63
4,69,0,95
4,69,64,111
4,69,0,93
4,69,64,96
4,62,64,31
4,69,0,60
4,62,0,49
4,69,64,57
4,37,64,3
4,64,64,15
4,69,0,69
4,37,0,12
4,64,0,10
4,69,64,89
4,64,64,9
4,69,0,79
4,64,0,44
4,69,64,66
4,69,0,90
4,69,64,99
4,69,0,76
4,69,64,113
4,37,64,11
4,63,64,20
4,69,0,56
4,37,0,15
4,63,0,17
4,69,64,67
4,69,0,85
4,69,64,111
4,69,0,82
4,69,64,109
4,62,64,23
4,69,0,55
4,62,0,41
4,69,64,68
4,37,64,13
4,64,64,7
4,69,0,58
4,64,0,35
4,37,0,0
4,69,64,87
4,64,64,15
4,69,0,67
4,64,0,27
4,64,64,92
4,69,64,1
4,69,0,86
4,64,0,31
4,51,64,277
4,51,0,92
4,37,64,467
4,62,64,15
4,37,0,80
4,62,0,7
4,64,64,89
4,37,64,4
4,64,0,87
4,37,0,41
4,64,64,62
4,64,0,109
4,69,64,98
4,36,64,3
4,69,0,94
4,69,64,85
4,69,0,111
4,63,64,72
4,69,64,12
4,37,64,0
4,63,0,66
4,36,0,23
4,37,0,9
4,69,0,9
4,69,64,78
4,36,64,2
4,69,0,100
4,36,0,15
4,69,64,73
4,36,64,11
4,69,0,89
4,69,64,84
4,62,64,14
4,69,0,81
4,62,0,3
4,51,64,93
4,37,64,1
4,69,64,2
4,64,64,4
4,64,0,86
4,37,0,6
4,69,0,4
4,51,0,9
4,69,64,79
4,64,64,5
4,36,0,63
4,69,0,31
4,64,0,15
4,69,64,82
4,36,64,9
4,69,0,88
4,69,64,94
4,69,0,93
4,37,64,88
4,69,64,8
4,63,64,13
4,63,0,72
4,37,0,13
4,69,0,6
4,36,0,0
4,69,64,87
4,36,64,11
4,69,0,82
4,36,0,24
4,69,64,70
4,36,64,15
4,69,0,81
4,69,64,98
4,62,64,22
4,69,0,74
4,62,0,10
4,36,0,0
4,37,64,84
4,69,64,3
4,36,64,4
4,64,64,6
4,51,64,3
4,64,0,83
4,69,0,3
4,37,0,3
4,51,0,19
4,64,64,72
4,69,64,7
4,64,0,89
4,36,0,0
4,69,0,5
4,36,64,99
4,69,64,15
4,69,0,96
4,69,64,96
4,69,0,95
4,37,64,89
4,63,64,0
4,69,64,8
4,63,0,67
4,36,0,8
4,37,0,20
4,69,0,0
4,36,64,93
4,69,64,18
4,36,0,70
4,69,0,22
4,36,64,81
4,69,64,8
4,69,0,95
4,69,64,89
4,62,64,13
4,62,0,82
4,69,0,5
4,51,64,72
4,37,64,9
4,69,64,1
4,64,64,9
4,64,0,85
4,37,0,4
4,69,0,0
4,51,0,50
4,69,64,50
4,64,64,0
4,36,0,62
4,69,0,31
4,64,0,13
4,69,64,70
4,36,64,14
4,69,0,84
4,69,64,105
4,69,0,95
4,37,64,78
4,63,64,13
4,69,64,10
4,63,0,65
4,37,0,17
4,36,0,3
4,69,0,16
4,36,64,83
4,69,64,10
4,69,0,90
4,36,0,0
4,36,64,93
4,69,64,14
4,36,0,91
4,69,0,2
4,36,64,87
4,69,64,2
4,62,64,18
4,69,0,78
4,62,0,6
4,51,64,79
4,69,64,8
4,37,64,0
4,64,64,8
4,64,0,81
4,36,0,3
4,69,0,5
4,51,0,13
4,37,0,11
4,69,64,76
4,64,64,5
4,36,64,2
4,69,0,94
4,64,0,7
4,36,0,4
4,69,64,82
4,36,64,0
4,69,0,77
4,69,64,109
4,69,0,94
4,69,64,94
4,37,64,2
4,63,64,19
4,63,0,74
4,69,0,0
4,37,0,11
4,36,0,0
4,69,64,90
4,36,64,8
4,69,0,89
4,36,0,7
4,69,64,93
4,36,64,2
4,69,0,87
4,69,64,100
4,62,64,5
4,62,0,81
4,69,0,0
4,37,64,98
4,51,64,1
4,69,64,6
4,64,64,11
4,64,0,75
4,69,0,4
4,51,0,11
4,37,0,3
4,64,64,81
4,69,64,5
4,36,0,86
4,64,0,3
4,69,0,4
4,69,64,96
4,36,64,3
4,69,0,87
4,69,64,101
4,69,0,85
4,37,64,104
4,69,64,4
4,63,64,0
4,63,0,84
4,69,0,10
4,37,0,14
4,36,0,9
4,37,64,66
4,69,64,7
4,36,64,21
4,69,0,76
4,37,0,15
4,36,0,3
4,69,64,76
4,36,64,6
4,69,0,80
4,69,64,118
4,62,64,11
4,36,0,52
4,69,0,19
4,62,0,14
4,37,64,70
4,36,64,17
4,69,64,2
4,64,64,1
4,51,64,23
4,64,0,60
4,69,0,4
4,37,0,13
4,51,0,16
4,64,64,77
4,69,64,3
4,36,0,69
4,69,0,18
4,64,0,8
4,36,64,93
4,69,64,5
4,69,0,89
4,69,64,111
4,69,0,89
4,37,64,83
4,63,64,12
4,69,64,4
4,63,0,76
4,69,0,17
4,36,0,4
4,37,0,10
4,36,64,78
4,69,64,8
4,69,0,92
4,36,0,2
4,69,64,94
4,36,64,7
4,69,0,93
4,69,64,100
4,62,64,3
4,62,0,81
4,69,0,9
4,37,64,90
4,51,64,12
4,69,64,5
4,64,64,0
4,64,0,78
4,69,0,11
4,51,0,2
4,37,0,7
4,64,64,82
4,69,64,1
4,36,0,40
4,69,0,46
4,64,0,15
4,36,64,88
4,69,64,9
4,69,0,86
4,69,64,96
4,37,64,10
4,69,0,71
4,37,0,25
4,37,64,78
4,69,64,13
4,63,64,12
4,37,0,72
4,63,0,3
4,69,0,9
4,36,0,54
4,37,64,30
4,36,64,2
4,69,64,6
4,69,0,94
4,36,0,0
4,37,0,29
4,69,64,68
4,36,64,9
4,69,0,82
4,37,64,99
4,69,64,1
4,62,64,21
4,37,0,69
4,69,0,3
4,62,0,4
4,51,64,80
4,69,64,12
4,37,64,4
4,64,64,17
4,51,0,51
4,69,0,21
4,64,0,7
4,36,0,4
4,37,0,14
4,69,64,69
4,36,64,5
4,64,64,12
4,69,0,76
4,36,0,18
4,64,0,6
4,69,64,81
4,36,64,2
4,69,0,98
4,69,64,93
4,69,0,82
4,37,64,113
4,69,64,8
4,63,64,7
4,37,0,75
4,36,0,3
4,69,0,0
4,63,0,0
4,36,64,91
4,69,64,8
4,69,0,90
4,36,0,0
4,69,64,101
4,36,64,1
4,69,0,89
4,69,64,96
4,62,64,18
4,36,0,73
