track,note,velocity,time
1,72,127,3660
1,79,127,0
1,72,0,64
1,79,0,4
1,72,127,32
1,79,127,0
1,72,0,64
1,79,0,16
1,77,127,0
1,72,127,0
1,72,0,60
1,77,0,0
1,77,127,228
1,72,127,8
1,77,0,56
1,72,0,4
1,72,127,220
1,81,127,8
1,81,0,64
1,72,0,0
1,72,127,20
1,79,127,16
1,72,0,60
1,79,0,16
1,79,127,588
1,74,127,12
1,79,0,52
1,74,0,20
1,79,127,4
1,74,127,4
1,79,0,60
1,74,0,8
1,77,127,44
1,74,127,0
1,77,0,136
1,74,0,4
1,81,127,428
1,74,127,0
1,74,0,68
1,81,0,8
1,79,127,28
1,74,127,0
1,79,0,64
1,74,0,8
1,72,127,600
1,79,127,0
1,79,0,64
1,72,0,8
1,72,127,16
1,79,127,12
1,79,0,60
1,72,0,8
1,77,127,16
1,72,127,0
1,77,0,64
1,72,0,12
1,77,127,216
1,72,127,8
1,72,0,68
1,77,0,0
1,72,127,200
1,81,127,0
1,81,0,68
1,72,0,4
1,72,127,24
1,79,127,0
1,72,0,64
1,79,0,4
1,79,127,612
1,74,127,0
1,74,0,64
1,79,0,0
1,79,127,24
1,74,127,0
1,79,0,64
1,74,0,8
1,77,127,32
1,74,127,0
1,77,0,124
1,74,0,4
1,81,127,440
1,74,127,0
1,74,0,64
1,81,0,12
1,79,127,20
1,74,127,0
1,79,0,60
1,74,0,12
1,79,127,600
1,72,127,0
1,79,0,68
1,72,0,4
1,79,127,28
1,72,127,0
1,72,0,64
1,79,0,0
1,77,127,24
1,72,127,8
1,77,0,56
1,72,0,28
1,77,127,200
1,72,127,0
1,72,0,60
1,77,0,12
1,72,127,120
1,72,0,60
1,69,127,40
1,69,0,72
1,65,127,36
1,65,0,72
1,62,127,9416
1,74,127,8
1,62,0,72
1,74,0,8
1,66,127,16
1,66,0,76
1,67,127,24
1,74,127,0
1,74,0,124
1,67,0,0
1,74,127,68
1,67,127,0
1,74,0,60
1,67,0,12
1,67,127,20
1,72,127,0
1,72,0,64
1,67,0,0
1,67,127,216
1,74,127,0
1,67,0,124
1,74,0,4
1,67,127,72
1,74,127,0
1,74,0,64
1,67,0,4
1,72,127,20
1,72,0,68
1,67,127,28
1,67,0,72
1,74,127,24
1,74,0,76
1,65,127,36
1,69,127,0
1,65,0,72
1,69,127,8
1,69,0,4
1,72,127,0
1,79,127,0
1,72,0,192
1,69,0,8
1,79,0,8
1,67,127,72
1,74,127,8
1,74,0,128
1,67,0,8
1,67,127,52
1,74,127,16
1,67,0,44
1,74,0,28
1,67,127,12
1,72,127,0
1,72,0,124
1,67,0,4
1,79,127,60
1,79,0,60
1,74,127,44
1,74,0,64
1,67,127,20
1,67,0,60
1,74,127,56
1,74,0,72
1,67,127,24
1,67,0,64
1,74,127,16
1,74,0,84
1,72,127,12
1,72,0,64
1,63,127,9248
1,67,127,8
1,70,127,0
1,74,127,0
1,63,0,372
1,67,0,12
1,74,0,8
1,70,0,12
1,65,127,180
1,69,127,0
1,72,127,0
1,72,0,768
1,65,0,0
1,69,0,8
1,63,127,168
1,67,127,8
1,70,127,4
1,74,127,0
1,63,0,244
1,74,0,12
1,67,0,4
1,70,0,8
1,65,127,292
1,69,127,16
1,72,127,0
1,65,0,496
1,69,0,12
1,72,0,16
1,65,127,232
1,60,127,12
1,57,127,0
1,65,0,52
1,57,0,8
1,60,0,12
1,67,127,8
1,63,127,112
1,58,127,0
1,58,0,128
1,63,0,0
1,67,0,28
1,67,127,212
1,63,127,4
1,67,0,256
1,63,0,16
1,70,127,112
1,65,127,8
1,65,127,8
1,70,0,116
1,65,0,12
1,65,0,0
1,65,127,48
1,65,0,68
1,63,127,36
1,63,0,68
1,62,127,20
1,62,0,252
1,65,127,48
1,65,0,60
1,74,127,32
1,65,127,0
1,62,127,0
1,62,0,124
1,74,0,4
1,65,0,8
1,72,127,56
1,65,127,0
1,60,127,0
1,65,0,64
1,72,0,4
1,60,0,4
1,72,127,12
1,65,127,12
1,60,127,0
1,60,127,0
1,72,0,116
1,65,0,8
1,60,0,0
1,60,0,16
1,70,127,56
1,65,127,0
1,65,127,0
1,58,127,0
1,58,0,128
1,70,0,0
1,65,0,8
1,65,0,4
1,70,127,36
1,67,127,4
1,58,127,0
1,58,0,132
1,70,0,4
1,67,0,8
1,65,127,48
1,69,127,8
1,65,0,120
1,69,0,8
1,65,127,56
1,69,127,8
1,69,127,0
1,65,0,56
1,69,0,12
1,69,0,12
1,65,127,24
1,69,127,0
1,65,0,76
1,67,127,0
1,70,127,0
1,69,0,4
1,70,0,60
1,67,0,0
1,65,127,36
1,69,127,8
1,65,0,68
1,69,0,4
1,63,127,36
1,67,127,0
1,65,127,132
1,65,0,60
1,63,0,0
1,63,127,8
1,67,0,8
1,63,0,56
1,63,127,112
1,63,0,72
1,67,127,8
1,70,127,4
1,67,0,60
1,70,0,4
1,67,127,36
1,70,127,8
1,67,0,56
1,70,0,20
1,67,127,28
1,67,127,0
1,70,127,0
1,70,0,124
1,67,0,16
1,67,0,4
1,72,127,44
1,69,127,0
1,69,0,72
1,72,0,4
1,67,127,0
1,70,127,4
1,67,0,56
1,70,0,4
1,67,127,48
1,67,127,0
1,70,127,0
1,70,0,136
1,67,0,4
1,67,0,4
1,60,127,36
1,65,127,0
1,69,127,16
1,65,0,112
1,60,0,0
1,69,0,24
1,60,127,40
1,67,127,0
1,67,127,12
1,67,0,128
1,60,0,4
1,67,0,12
1,65,127,36
1,62,127,0
1,65,0,380
1,62,0,12
1,67,127,184
1,70,127,0
1,75,127,16
1,70,0,48
1,67,0,0
1,75,0,32
1,67,127,12
1,70,127,0
1,75,127,0
1,75,127,0
1,75,0,140
1,67,0,0
1,70,0,0
1,75,0,0
1,67,127,40
1,70,127,0
1,75,127,0
1,75,0,64
1,70,0,0
1,67,0,0
1,65,127,40
1,70,127,0
1,70,127,0
1,74,127,0
1,74,127,0
1,74,0,136
1,65,0,0
1,70,0,0
1,70,0,0
1,74,0,8
1,67,127,136
1,70,127,0
1,75,127,0
1,75,0,64
1,70,0,8
1,67,0,0
1,65,127,20
1,70,127,8
1,74,127,12
1,70,0,116
1,65,0,4
1,74,0,20
1,75,127,36
1,72,127,0
1,67,127,8
1,72,0,248
1,75,0,16
1,67,0,8
1,67,127,116
1,63,127,4
1,67,0,252
1,63,0,4
1,70,127,112
1,65,127,0
1,65,127,0
1,65,0,128
1,65,0,0
1,70,0,0
1,65,127,64
1,65,0,60
1,63,127,36
1,63,0,72
1,62,127,32
1,62,0,272
1,74,127,104
1,65,127,12
1,62,127,0
1,74,0,48
1,62,0,24
1,65,0,0
1,72,127,8
1,65,127,4
1,65,127,8
1,60,127,0
1,72,0,120
1,60,0,4
1,65,0,4
1,65,0,16
1,72,127,56
1,65,127,0
1,60,127,0
1,65,0,124
1,72,0,4
1,60,0,8
1,58,127,40
1,65,127,12
1,70,127,0
1,58,0,120
1,65,0,8
1,70,0,20
1,70,127,40
1,67,127,0
1,58,127,0
1,58,0,124
1,70,0,12
1,67,0,8
1,65,127,40
1,69,127,0
1,65,0,128
1,69,0,16
1,65,127,56
1,69,127,0
1,69,0,128
1,65,0,0
1,63,127,56
1,67,127,4
1,63,0,120
1,67,0,16
1,63,127,64
1,67,127,0
1,63,0,32
1,67,0,8
1,65,127,8
1,62,127,0
1,63,127,36
1,62,0,4
1,60,127,4
1,65,0,4
1,63,0,244
1,60,0,4
1,70,127,124
1,63,127,0
1,60,127,12
1,60,127,0
1,70,0,52
1,63,0,12
1,60,0,0
1,60,0,12
1,70,127,12
1,63,127,4
1,60,127,0
1,63,0,64
1,60,0,12
1,70,0,0
1,70,127,16
1,65,127,0
1,60,127,4
1,72,127,180
1,70,0,20
1,72,0,48
1,70,127,32
1,70,0,64
1,70,127,32
1,65,0,12
1,60,0,4
1,70,0,120
1,69,127,52
1,60,127,20
1,65,127,0
1,69,0,120
1,60,0,16
1,65,0,4
1,70,127,36
1,60,127,0
1,63,127,12
1,68,127,0
1,60,0,380
1,63,0,4
1,68,0,8
1,70,127,176
1,68,127,4
1,63,127,0
1,60,127,0
1,70,0,52
1,68,0,12
1,60,0,8
1,63,0,8
1,60,127,8
1,63,127,16
1,68,127,0
1,70,127,0
1,70,0,80
1,60,0,96
1,70,0,12
1,63,0,4
1,68,0,12
1,60,127,64
1,63,127,4
1,68,127,0
1,70,127,16
1,60,0,172
1,68,0,4
1,63,0,4
1,70,0,24
1,60,127,76
1,63,127,0
1,68,127,0
1,70,127,0
1,70,0,128
1,60,0,0
1,63,0,0
1,68,0,0
1,60,127,72
1,63,127,0
1,68,127,0
1,70,127,0
1,70,0,64
1,68,0,0
1,60,0,0
1,63,0,16
1,60,127,0
1,60,127,0
1,63,127,4
1,63,127,0
1,68,127,16
1,70,127,0
1,60,0,104
1,63,0,12
1,60,0,0
1,68,0,12
1,70,0,0
1,63,0,4
1,67,127,44
1,67,0,128
1,67,127,72
1,67,0,64
1,74,127,36
1,74,0,64
1,69,127,24
1,69,0,72
1,67,127,24
1,67,127,0
1,67,0,64
1,67,0,12
1,74,127,12
1,74,0,72
1,69,127,36
1,69,0,76
1,67,127,16
1,67,0,64
1,74,127,24
1,74,0,64
1,69,127,48
1,69,0,80
1,67,127,12
1,67,0,64
1,74,127,32
1,74,0,72
1,69,127,20
1,69,0,80
1,67,127,28
1,67,0,64
1,69,127,28
1,69,0,64
1,65,127,24
1,65,0,64
1,69,127,24
1,69,0,72
1,74,127,24
1,74,0,80
1,65,127,32
1,65,0,72
1,69,127,8
1,69,0,68
1,74,127,36
1,74,0,64
1,65,127,32
1,65,0,64
1,69,127,28
1,69,0,64
1,74,127,28
1,74,0,64
1,65,127,28
1,65,0,64
1,69,127,52
1,69,0,60
1,74,127,20
1,74,0,68
1,65,127,28
1,65,0,64
1,69,127,28
1,69,0,80
1,74,127,20
1,74,0,80
1,65,127,16
1,65,0,80
1,67,127,16
1,67,0,128
1,67,127,64
1,67,0,76
1,74,127,40
1,74,0,80
1,69,127,8
1,69,0,80
1,67,127,24
1,67,127,0
1,67,0,64
1,67,0,8
1,74,127,4
1,74,0,72
1,69,127,32
1,69,0,64
1,67,127,36
1,67,0,64
1,74,127,32
1,74,0,60
1,69,127,20
1,69,0,64
1,67,127,44
1,67,0,68
1,74,127,28
1,74,0,60
1,69,127,28
1,69,0,72
1,67,127,36
1,67,0,60
1,69,127,40
1,69,0,60
1,65,127,20
1,65,0,72
1,69,127,36
1,69,0,64
1,74,127,16
1,74,0,64
1,65,127,36
1,65,0,72
1,69,127,32
1,69,0,80
1,74,127,20
1,74,0,64
1,65,127,20
1,65,0,76
1,69,127,20
1,69,0,84
1,74,127,16
1,74,0,64
1,65,127,24
1,65,0,72
1,69,127,36
1,69,0,68
1,74,127,28
1,74,0,76
1,65,127,24
1,65,0,64
1,69,127,20
1,69,0,76
1,74,127,24
1,74,0,68
1,65,127,36
1,65,0,64
1,63,127,9236
1,67,127,12
1,70,127,4
1,74,127,0
1,67,0,380
1,63,0,4
1,70,0,8
1,74,0,0
1,65,127,168
1,69,127,0
1,72,127,0
1,69,0,768
1,65,0,0
1,72,0,8
1,63,127,204
1,67,127,0
1,70,127,0
1,74,127,0
1,70,0,256
1,63,0,8
1,74,0,4
1,67,0,4
1,65,127,280
1,69,127,4
1,72,127,20
1,65,0,488
1,72,0,20
1,69,0,4
1,65,127,236
1,60,127,16
1,57,127,4
1,65,0,52
1,57,0,12
1,60,0,4
1,67,127,16
1,63,127,100
1,58,127,0
1,58,0,128
1,63,0,0
1,67,0,24
1,67,127,216
1,63,127,16
1,67,0,248
1,63,0,8
1,70,127,116
1,65,127,16
1,65,127,0
1,70,0,112
1,65,0,16
1,65,0,16
1,65,127,32
1,65,0,76
1,63,127,32
1,63,0,64
1,62,127,20
1,62,0,272
1,65,127,16
1,65,0,64
1,74,127,40
1,65,127,0
1,62,127,8
1,65,0,120
1,74,0,12
1,62,0,4
1,72,127,40
1,65,127,8
1,60,127,0
1,65,0,60
1,72,0,16
1,60,0,8
1,72,127,4
1,65,127,0
1,60,127,0
1,60,127,0
1,60,0,128
1,65,0,0
1,72,0,8
1,60,0,4
1,70,127,68
1,65,127,0
1,65,127,0
1,58,127,0
1,65,0,124
1,70,0,4
1,65,0,0
1,58,0,8
1,70,127,40
1,67,127,12
1,58,127,0
1,70,0,120
1,58,0,4
1,67,0,16
1,65,127,52
1,69,127,0
1,69,0,128
1,65,0,0
1,65,127,52
1,69,127,16
1,69,127,4
1,65,0,40
1,69,0,28
1,69,0,4
1,65,127,12
1,69,127,0
1,69,0,64
1,65,0,0
1,67,127,28
1,70,127,0
1,70,0,68
1,67,0,0
1,65,127,40
1,69,127,0
1,65,0,64
1,69,0,12
1,63,127,4
1,67,127,0
1,65,127,168
1,63,0,24
1,67,0,12
1,63,127,16
1,65,0,20
1,63,0,48
1,63,127,96
1,63,0,64
1,67,127,36
1,70,127,4
1,67,0,56
1,70,0,8
1,67,127,20
1,70,127,0
1,70,0,64
1,67,0,20
1,67,127,32
1,67,127,0
1,70,127,0
1,70,0,128
1,67,0,0
1,67,0,16
1,72,127,28
1,69,127,24
1,72,0,44
1,69,0,20
1,67,127,20
1,70,127,0
1,67,0,64
1,70,0,8
1,67,127,24
1,67,127,0
1,70,127,4
1,70,0,124
1,67,0,0
1,67,0,16
1,60,127,48
1,65,127,0
1,69,127,8
1,65,0,116
1,60,0,0
1,69,0,12
1,60,127,60
1,67,127,0
1,67,127,0
1,60,0,128
1,67,0,12
1,67,0,0
1,65,127,40
1,62,127,0
1,62,0,384
1,65,0,4
1,67,127,188
1,70,127,12
1,75,127,0
1,67,0,52
1,75,0,8
1,70,0,0
1,67,127,32
1,70,127,0
1,75,127,0
1,75,127,0
1,75,0,128
1,75,0,8
1,70,0,4
1,67,0,0
1,67,127,56
1,70,127,0
1,75,127,4
1,75,0,60
1,70,0,0
1,67,0,0
1,65,127,36
1,70,127,0
1,70,127,0
1,74,127,0
1,74,127,4
1,70,0,124
1,65,0,0
1,70,0,0
1,74,0,4
1,74,0,8
1,67,127,132
1,70,127,4
1,75,127,4
1,75,0,60
1,70,0,0
1,67,0,12
1,65,127,24
1,70,127,0
1,74,127,0
1,70,0,124
1,65,0,12
1,74,0,4
1,75,127,44
1,72,127,12
1,67,127,0
1,75,0,252
1,67,0,16
1,72,0,0
1,67,127,112
1,63,127,4
1,67,0,264
1,63,0,8
1,70,127,108
1,65,127,0
1,65,127,4
1,65,0,120
1,70,0,4
1,65,0,4
1,65,127,48
1,65,0,64
1,63,127,44
1,63,0,64
1,62,127,40
1,62,0,256
1,74,127,124
1,65,127,0
1,62,127,0
1,65,0,60
1,74,0,4
1,62,0,16
1,72,127,8
1,65,127,0
1,65,127,4
1,60,127,8
1,65,0,116
1,65,0,4
1,72,0,8
1,60,0,0
1,72,127,48
1,65,127,8
1,60,127,0
1,60,0,128
1,65,0,4
1,72,0,0
1,58,127,60
1,65,127,0
1,70,127,0
1,58,0,124
1,70,0,20
1,65,0,0
1,70,127,56
1,67,127,0
1,58,127,0
1,70,0,124
1,67,0,8
1,58,0,12
1,65,127,44
1,69,127,0
1,69,0,128
1,65,0,0
1,65,127,48
1,69,127,4
1,69,0,128
1,65,0,4
1,63,127,60
1,67,127,20
1,63,0,112
1,67,0,16
1,63,127,56
1,67,127,0
1,63,0,40
1,67,0,8
1,65,127,0
1,62,127,4
1,62,0,32
1,63,127,0
1,60,127,8
1,65,0,4
1,60,0,248
1,63,0,4
1,70,127,120
1,63,127,0
1,60,127,4
1,60,127,0
1,70,0,56
1,60,0,8
1,60,0,0
1,63,0,8
1,70,127,28
1,63,127,0
1,60,127,0
1,60,0,64
1,63,0,0
1,70,0,0
1,70,127,28
1,65,127,12
1,60,127,0
1,72,127,172
1,70,0,12
1,72,0,52
1,70,127,52
1,70,0,60
1,70,127,32
1,60,0,4
1,65,0,0
1,70,0,140
