track,note,velocity,time
1,67,96,1152
1,67,96,36
1,64,96,36
1,65,96,12
1,67,96,12
1,69,96,12
1,67,96,12
1,64,96,24
1,65,96,12
1,67,96,12
1,69,96,12
1,67,96,12
1,64,96,24
1,65,96,72
1,67,96,72
1,65,96,72
1,64,96,72
1,65,96,960
1,60,96,0
1,55,96,0
1,64,96,24
1,62,96,24
1,58,96,0
1,67,96,0
1,64,96,64
1,57,96,0
1,60,96,0
1,62,84,36
1,60,83,0
1,57,81,0
1,63,72,24
1,56,72,0
1,60,70,0
1,65,96,782
1,60,96,0
1,55,96,0
1,64,96,24
1,62,96,24
1,58,96,0
1,67,96,0
1,64,96,64
1,57,96,0
1,60,96,0
1,62,84,36
1,60,83,0
1,57,81,0
1,63,72,24
1,56,72,0
1,60,70,0
1,64,96,14
1,57,96,0
1,64,96,768
1,57,96,0
1,64,96,36
1,59,96,0
1,56,96,0
1,60,96,104
1,64,96,0
1,71,96,0
1,69,96,0
1,69,96,52
1,66,96,0
1,62,96,0
1,65,96,104
1,60,96,0
1,57,96,0
1,65,96,36
1,60,96,0
1,57,96,0
1,65,96,20
1,60,96,0
1,55,96,0
1,67,96,52
1,59,96,0
1,64,96,0
1,67,96,36
1,62,96,0
1,59,96,0
1,65,96,72
1,60,96,0
1,57,96,0
1,65,96,36
1,60,96,0
1,57,96,0
1,65,96,20
1,60,96,0
1,55,96,0
1,67,96,52
1,62,96,0
1,59,96,0
1,67,96,52
1,62,96,0
1,59,96,0
1,67,96,52
1,64,96,0
1,60,96,0
1,67,100,404
1,64,100,0
1,60,100,0
1,67,100,44
1,64,100,0
1,59,100,0
1,67,100,56
1,64,100,0
1,59,100,0
1,58,100,28
1,67,100,0
1,64,100,0
1,64,100,44
1,60,100,0
1,62,100,28
1,58,100,0
1,64,100,16
1,61,100,0
1,57,100,0
1,62,104,30
1,57,96,0
1,67,95,0
1,65,100,16
1,65,93,56
1,62,98,0
1,57,100,0
1,64,100,28
1,59,100,0
1,55,100,0
1,62,100,28
1,59,100,0
1,55,100,0
1,62,104,56
1,57,96,0
1,67,95,0
1,65,100,16
1,65,93,56
1,62,98,0
1,57,100,0
1,64,100,28
1,59,100,0
1,55,100,0
1,62,100,28
1,59,100,0
1,55,100,0
1,62,100,56
1,57,100,0
1,53,100,0
1,60,100,84
1,55,100,0
1,52,100,0
1,65,96,1388
1,60,96,0
1,55,96,0
1,64,96,24
1,62,96,24
1,58,96,0
1,67,96,0
1,64,96,64
1,57,96,0
1,60,96,0
1,62,84,36
1,60,83,0
1,57,81,0
1,63,72,24
1,56,72,0
1,60,70,0
1,65,96,782
1,60,96,0
1,55,96,0
1,64,96,24
1,62,96,24
1,58,96,0
1,67,96,0
1,64,96,64
1,57,96,0
1,60,96,0
1,62,84,36
1,60,83,0
1,57,81,0
1,63,72,24
1,56,72,0
1,60,70,0
1,64,96,14
1,57,96,0
1,64,96,768
1,57,96,0
1,64,96,36
1,59,96,0
1,56,96,0
1,60,96,104
1,64,96,0
1,71,96,0
1,69,96,0
1,69,96,52
1,66,96,0
1,62,96,0
1,65,96,104
1,60,96,0
1,57,96,0
1,65,96,36
1,60,96,0
1,57,96,0
1,65,96,20
1,60,96,0
1,55,96,0
1,67,96,52
1,59,96,0
1,64,96,0
1,67,96,36
1,62,96,0
1,59,96,0
1,65,96,72
1,60,96,0
1,57,96,0
1,65,96,36
1,60,96,0
1,57,96,0
1,65,96,20
1,60,96,0
1,55,96,0
1,67,96,52
1,62,96,0
1,59,96,0
1,67,96,52
1,62,96,0
1,59,96,0
1,67,96,52
1,64,96,0
1,60,96,0
1,67,100,404
1,64,100,0
1,60,100,0
1,67,100,44
1,64,100,0
1,59,100,0
1,67,100,56
1,64,100,0
1,59,100,0
1,58,100,28
1,67,100,0
1,64,100,0
1,64,100,44
1,60,100,0
1,62,100,28
1,58,100,0
1,64,100,16
1,61,100,0
1,57,100,0
1,62,104,30
1,57,96,0
1,67,95,0
1,65,100,16
1,65,93,56
1,62,98,0
1,57,100,0
1,64,100,28
1,59,100,0
1,55,100,0
1,62,100,28
1,59,100,0
1,55,100,0
1,62,104,56
1,57,96,0
1,67,95,0
1,65,100,16
1,65,93,56
1,62,98,0
1,57,100,0
1,64,100,28
1,59,100,0
1,55,100,0
1,62,100,28
1,59,100,0
1,55,100,0
1,62,100,56
1,57,100,0
1,53,100,0
1,60,100,84
1,52,100,0
1,55,100,0
1,64,100,576
1,60,100,0
1,55,100,0
1,64,100,18
1,60,100,0
1,55,100,64
1,59,100,64
1,55,100,8
1,62,100,0
1,59,100,12
1,55,100,8
1,62,100,0
1,64,100,12
1,60,100,0
1,57,100,0
1,64,100,24
1,60,100,0
1,57,100,8
1,59,100,8
1,62,100,8
1,55,100,0
1,62,100,12
1,55,100,0
1,59,100,12
1,64,100,8
1,60,100,0
1,57,100,0
1,53,100,408
1,53,100,8
1,57,100,8
1,60,100,0
1,60,100,12
1,65,100,0
1,67,100,12
1,60,100,0
1,67,100,8
1,59,100,0
1,59,100,8
1,69,100,0
1,59,100,12
1,67,100,0
1,53,100,12
1,53,100,8
1,57,100,8
1,60,100,0
1,60,100,12
1,65,100,0
1,67,100,12
1,59,100,0
1,67,100,20
1,59,100,0
1,67,96,20
1,64,96,0
1,60,96,0
1,67,100,404
1,64,100,0
1,60,100,0
1,67,100,44
1,64,100,0
1,59,100,0
1,67,100,56
1,64,100,0
1,59,100,0
1,58,100,28
1,67,100,0
1,64,100,0
1,64,100,44
1,60,100,0
1,62,100,28
1,58,100,0
1,64,100,16
1,61,100,0
1,57,100,0
1,62,104,30
1,57,96,0
1,67,95,0
1,65,100,16
1,65,93,56
1,62,98,0
1,57,100,0
1,64,100,28
1,59,100,0
1,55,100,0
1,62,100,28
1,59,100,0
1,55,100,0
1,62,104,56
1,57,96,0
1,67,95,0
1,65,100,16
1,65,93,56
1,62,98,0
1,57,100,0
1,64,100,28
1,59,100,0
1,55,100,0
1,62,100,28
1,59,100,0
1,55,100,0
1,62,104,56
1,57,96,0
1,67,95,0
1,65,100,16
1,65,93,56
1,62,98,0
1,57,100,0
1,64,100,28
1,59,100,0
1,55,100,0
1,62,100,28
1,59,100,0
1,55,100,0
1,62,100,56
1,57,100,0
1,53,100,0
1,60,100,84
1,55,100,0
1,52,100,0
1,67,96,4
1,64,96,0
1,60,96,0
1,67,100,404
1,64,100,0
1,60,100,0
1,67,100,44
1,64,100,0
1,59,100,0
1,67,100,56
1,64,100,0
1,59,100,0
1,58,100,28
1,67,100,0
1,64,100,0
1,64,100,44
1,60,100,0
1,62,100,28
1,58,100,0
1,64,100,16
1,61,100,0
1,57,100,0
1,62,104,30
1,57,96,0
1,67,95,0
1,65,100,16
1,65,93,56
1,62,98,0
1,57,100,0
1,64,100,28
1,59,100,0
1,55,100,0
1,62,100,28
1,59,100,0
1,55,100,0
1,62,104,56
1,57,96,0
1,67,95,0
1,65,100,16
1,65,93,56
1,62,98,0
1,57,100,0
1,64,100,28
1,59,100,0
1,55,100,0
1,62,100,28
1,59,100,0
1,55,100,0
2,48,127,1152
2,48,127,576
2,43,127,16
2,47,127,4
2,47,127,48
2,43,127,12
2,46,127,12
2,48,127,36
2,46,127,24
2,45,127,12
2,40,127,48
2,41,127,24
2,43,127,36
2,45,127,24
2,43,127,12
2,38,127,2
2,41,127,192
2,43,127,28
2,41,127,0
2,40,127,0
2,36,127,0
2,48,127,404
2,43,127,88
2,48,127,24
2,46,127,24
2,48,127,88
2,45,127,44
2,43,127,88
2,41,127,24
2,44,127,24
2,46,127,88
2,48,127,44
2,43,127,88
2,48,127,24
2,46,127,24
2,48,127,88
2,45,127,44
2,43,127,88
2,41,127,24
2,44,127,24
2,46,127,88
2,45,127,44
2,52,127,72
2,57,127,20
2,52,127,20
2,45,127,104
2,47,127,72
2,45,127,20
2,38,127,20
2,38,127,72
2,40,127,20
2,41,127,20
2,41,127,36
2,41,127,20
2,43,127,52
2,38,127,244
2,40,127,20
2,41,127,20
2,41,127,72
2,41,127,20
2,43,127,20
2,43,127,52
2,48,127,52
2,48,127,404
2,43,127,28
2,47,127,16
2,47,127,56
2,43,127,16
2,46,127,16
2,48,127,18
2,46,127,28
2,45,127,16
2,38,127,28
2,40,127,44
2,41,127,28
2,43,127,16
2,45,127,56
2,43,127,16
2,38,127,16
2,40,127,44
2,41,127,28
2,43,127,16
2,45,127,56
2,43,127,16
2,41,127,16
2,41,127,28
2,45,127,16
2,48,127,16
2,50,127,16
2,48,127,16
2,48,127,620
2,43,127,88
2,48,127,24
2,46,127,24
2,48,127,88
2,45,127,44
2,43,127,88
2,41,127,24
2,44,127,24
2,46,127,88
2,48,127,44
2,43,127,88
2,48,127,24
2,46,127,24
2,48,127,88
2,45,127,44
2,43,127,88
2,41,127,24
2,44,127,24
2,46,127,88
2,45,127,44
2,52,127,72
2,57,127,20
2,52,127,20
2,45,127,104
2,47,127,72
2,45,127,20
2,38,127,20
2,38,127,72
2,40,127,20
2,41,127,20
2,41,127,36
2,41,127,20
2,43,127,52
2,38,127,244
2,40,127,20
2,41,127,20
2,41,127,72
2,41,127,20
2,43,127,20
2,43,127,52
2,48,127,52
2,48,127,404
2,43,127,28
2,47,127,16
2,47,127,56
2,43,127,16
2,46,127,16
2,48,127,18
2,46,127,28
2,45,127,16
2,38,127,28
2,40,127,44
2,41,127,28
2,43,127,16
2,45,127,56
2,43,127,16
2,38,127,16
2,40,127,44
2,41,127,28
2,43,127,16
2,45,127,56
2,43,127,16
2,41,127,16
2,41,127,28
2,45,127,16
2,48,127,16
2,50,127,16
2,48,127,16
2,48,127,16
2,48,127,64
2,48,127,64
2,47,127,64
2,47,127,64
2,47,127,128
2,47,127,64
2,48,127,128
2,45,127,128
2,40,127,128
2,47,127,128
2,47,127,64
2,47,127,128
2,47,127,64
2,45,127,128
2,48,127,128
2,45,127,128
2,40,127,64
2,41,127,64
2,41,127,128
2,41,127,64
2,43,127,192
2,43,127,128
2,38,127,128
2,40,127,64
2,41,127,64
2,41,127,192
2,43,127,192
2,43,127,192
2,45,127,0
2,47,127,0
2,48,127,0
2,48,127,404
2,43,127,28
2,47,127,16
2,47,127,56
2,43,127,16
2,46,127,16
2,48,127,18
2,46,127,28
2,45,127,16
2,38,127,28
2,40,127,44
2,41,127,28
2,43,127,16
2,45,127,56
2,43,127,16
2,38,127,16
2,40,127,44
2,41,127,28
2,43,127,16
2,45,127,56
2,43,127,16
2,38,127,16
2,40,127,44
2,41,127,28
2,43,127,16
2,45,127,56
2,43,127,16
2,41,127,16
2,41,127,28
2,45,127,16
2,48,127,16
2,50,127,16
2,48,127,16
2,43,104,44
2,45,126,20
2,48,126,20
2,48,127,20
2,48,127,404
2,43,127,28
2,47,127,16
2,47,127,56
2,43,127,16
2,46,127,16
2,48,127,18
2,46,127,28
2,45,127,16
2,38,127,28
2,40,127,44
2,41,127,28
2,43,127,16
2,45,127,56
2,43,127,16
2,38,127,16
2,40,127,44
2,41,127,28
2,43,127,16
2,45,127,56
2,43,127,16
3,79,100,1152
3,79,102,104
3,81,127,104
3,76,127,0
3,79,127,36
3,76,127,0
3,77,127,34
3,76,94,38
3,73,127,0
3,77,127,56
3,79,127,0
3,76,127,20
3,77,127,8
3,76,127,12
3,74,127,8
3,72,127,8
3,69,127,8
3,74,127,8
3,72,127,12
3,69,127,582
3,67,127,2
3,64,127,14
3,62,127,20
3,64,127,86
3,67,127,8
3,69,127,88
3,72,127,12
3,64,54,176
3,64,94,26
3,62,54,132
3,60,40,122
3,62,40,182
3,60,54,96
3,64,108,2
3,62,75,118
3,60,54,78
3,55,40,506
3,55,54,52
3,67,108,228
3,65,40,204
3,67,67,162
3,64,40,204
3,62,27,10
3,60,27,74
3,60,54,18
3,64,94,22
3,62,45,1234
3,60,45,110
3,64,90,8
3,62,45,32
3,60,45,68
3,55,30,580
3,67,105,0
3,65,60,190
3,67,90,160
3,63,60,16
3,62,30,36
3,60,30,10
3,60,60,218
3,62,30,114
3,64,100,178
3,64,105,694
3,62,45,70
3,60,30,42
3,61,90,66
3,62,90,4
3,64,45,140
3,60,15,108
3,60,45,60
3,62,105,150
3,57,30,106
3,60,75,66
3,69,60,14
3,69,105,52
3,67,60,124
3,67,105,52
3,69,60,40
3,69,45,88
3,69,105,14
3,67,45,208
3,67,45,116
3,69,105,218
3,69,45,142
3,69,105,68
3,69,60,62
3,70,120,10
3,69,30,46
3,67,45,4
3,68,120,46
3,69,45,38
3,67,45,140
3,67,60,60
3,64,120,118
3,64,60,18
3,62,30,0
3,69,120,8
3,69,45,24
3,69,120,86
3,67,81,56
3,67,105,192
3,64,106,44
3,65,124,16
3,67,106,16
3,69,28,16
3,67,42,16
3,64,108,28
3,65,120,16
3,67,108,16
3,69,36,16
3,67,46,16
3,69,127,28
3,67,75,16
3,65,30,16
3,64,64,16
3,61,121,2
3,57,118,16
3,67,90,16
3,67,120,192
3,67,126,16
3,64,31,16
3,60,126,2
3,59,30,16
3,59,45,16
3,60,109,16
3,62,45,16
3,67,90,16
3,67,114,192
3,67,115,16
3,64,27,16
3,60,123,2
3,59,31,16
3,59,49,16
3,60,114,16
3,62,42,16
3,62,60,16
3,60,105,2
3,64,54,560
3,64,94,26
3,62,54,132
3,60,40,122
3,62,40,182
3,60,54,96
3,64,108,2
3,62,75,118
3,60,54,78
3,55,54,176
3,67,108,4
3,65,40,196
3,67,67,160
3,64,40,204
3,62,27,10
3,60,27,74
3,67,99,122
3,67,54,98
3,64,94,18
3,64,50,576
3,60,50,40
3,62,45,228
3,60,45,110
3,64,90,8
3,62,45,32
3,60,45,68
3,55,30,580
3,67,105,0
3,65,60,190
3,67,90,160
3,63,60,16
3,62,30,36
3,60,30,10
3,64,79,42
3,67,97,12
3,69,112,12
3,67,72,16
3,64,100,96
3,64,105,34
3,62,45,70
3,60,30,42
3,61,90,108
3,62,90,4
3,64,45,140
3,60,15,108
3,60,45,60
3,62,105,150
3,57,30,106
3,60,75,66
3,69,60,14
3,69,105,52
3,67,60,124
3,67,105,52
3,69,60,40
3,69,45,88
3,69,105,14
3,67,45,208
3,67,45,116
3,69,105,218
3,69,45,142
3,69,105,68
3,69,60,62
3,70,120,10
3,69,30,46
3,67,45,4
3,68,120,46
3,69,45,38
3,67,45,140
3,67,60,60
3,64,120,118
3,64,60,18
3,62,30,0
3,69,120,8
3,69,45,24
3,69,120,86
3,67,81,56
3,67,105,192
3,64,106,44
3,65,124,16
3,67,106,16
3,69,28,16
3,67,42,16
3,64,108,28
3,65,120,16
3,67,108,16
3,69,36,16
3,67,46,16
3,69,127,28
3,67,75,16
3,65,30,16
3,64,64,16
3,61,121,2
3,57,118,16
3,67,90,16
3,67,120,192
3,67,126,16
3,64,31,16
3,60,126,2
3,59,30,16
3,59,45,16
3,60,109,16
3,62,45,16
3,67,90,16
3,67,114,192
3,67,115,16
3,64,27,16
3,60,123,2
3,59,31,16
3,59,49,16
3,60,114,16
3,62,42,16
3,62,60,16
3,64,103,2
3,67,46,64
3,69,112,32
3,72,118,32
3,71,75,6
3,69,75,0
3,67,75,8
3,67,75,200
3,69,75,4
3,67,75,4
3,69,75,4
3,74,75,4
3,72,75,8
3,69,75,20
3,71,75,108
3,69,75,0
3,67,75,8
3,67,75,200
3,69,75,4
3,67,75,4
3,69,75,4
3,64,75,4
3,67,75,8
3,72,75,8
3,69,75,12
3,74,75,200
3,72,75,8
3,74,75,8
3,72,75,8
3,69,75,4
3,67,75,8
3,69,75,96
3,67,75,4
3,69,75,4
3,67,75,8
3,67,75,8
3,69,63,8
3,67,27,4
3,69,75,108
3,69,75,8
3,69,75,8
3,69,75,0
3,67,75,12
3,69,75,8
3,67,75,12
3,72,71,24
3,69,100,64
3,67,100,16
3,64,100,8
3,67,100,8
3,75,100,96
3,74,100,16
3,72,100,16
3,74,100,16
3,69,100,8
3,72,100,8
3,69,100,32
3,67,100,16
3,65,100,16
3,64,100,16
