track,note,velocity,time
1,72,64,1201
1,60,64,0
1,77,64,0
1,65,64,0
1,74,64,1
1,77,64,0
1,81,64,0
1,64,64,0
1,74,64,1
1,77,64,0
1,81,64,0
1,62,64,0
1,70,64,0
1,79,64,0
1,77,64,0
1,72,64,0
1,79,64,0
1,64,64,0
1,77,64,0
1,70,64,0
1,65,64,0
1,77,64,0
1,72,64,0
1,72,64,238
1,77,64,1
1,72,64,0
1,70,64,1
1,65,64,0
1,69,64,0
1,57,64,0
1,60,64,1
1,60,64,238
1,65,64,0
1,64,64,0
1,69,64,0
1,62,64,0
1,65,64,0
1,69,64,0
1,58,64,0
1,62,64,0
1,67,64,0
1,52,64,0
1,60,64,0
1,60,64,0
1,65,64,0
1,53,64,0
1,57,64,0
1,72,64,239
1,77,64,0
1,76,64,0
1,81,64,0
1,70,64,0
1,74,64,0
1,77,64,0
1,81,64,0
1,72,64,0
1,77,64,0
1,79,64,0
1,64,64,0
1,69,64,0
1,72,64,0
1,77,64,0
1,65,64,1
1,60,64,236
1,65,64,1
1,72,64,0
1,50,64,1
1,58,64,117
1,65,64,121
1,72,64,0
1,49,64,0
1,58,64,122
1,65,64,119
1,70,64,0
1,49,64,0
1,57,64,119
1,64,64,121
1,69,64,0
1,50,64,0
1,57,64,119
1,65,64,122
1,69,64,1
1,47,64,1
1,55,64,119
1,62,65,121
1,67,65,1
1,48,66,0
1,55,66,118
1,46,66,0
1,64,66,0
1,67,67,0
1,60,68,0
1,67,68,0
1,72,68,0
1,40,68,0
1,52,68,0
1,60,68,0
1,67,69,1
1,60,69,1
1,65,69,0
1,69,69,0
1,41,69,0
1,53,69,0
1,60,70,0
1,65,71,0
1,69,71,1
1,57,72,0
1,64,72,0
1,67,72,0
1,37,72,0
1,49,72,0
1,57,72,0
1,64,73,1
1,57,73,0
1,62,73,0
1,65,73,0
1,38,73,0
1,50,73,1
1,57,74,0
1,62,75,0
1,65,75,1
1,55,76,0
1,62,76,0
1,67,76,0
1,35,76,0
1,47,76,0
1,55,76,0
1,62,77,0
1,55,77,0
1,60,77,0
1,64,77,0
1,36,77,0
1,48,77,0
1,62,78,0
1,47,78,0
1,60,79,0
1,45,79,0
1,59,79,0
1,43,79,0
1,62,79,0
1,41,81,0
1,52,82,0
1,55,82,0
1,60,82,0
1,36,82,0
1,46,83,1
1,60,84,0
1,67,84,0
1,72,84,0
1,40,84,0
1,52,84,0
1,60,84,0
1,67,85,0
1,41,85,0
1,53,85,0
1,60,85,0
1,65,85,0
1,69,85,0
1,60,86,0
1,65,87,0
1,69,87,1
1,57,88,0
1,64,88,0
1,67,88,0
1,37,88,0
1,49,88,0
1,57,88,0
1,64,89,0
1,57,89,0
1,38,89,0
1,50,89,0
1,62,89,0
1,65,89,0
1,57,90,0
1,62,91,0
1,65,91,0
1,55,92,0
1,62,92,0
1,67,92,0
1,35,92,0
1,47,92,0
1,55,92,0
1,62,92,0
1,55,93,0
1,60,93,0
1,64,93,0
1,36,93,0
1,48,93,0
1,62,94,0
1,47,94,0
1,60,95,0
1,45,95,0
1,59,95,0
1,43,95,0
1,62,95,0
1,41,91,1
1,55,82,0
1,60,82,0
1,64,82,0
1,36,82,0
1,64,78,0
1,67,73,0
1,46,73,1
1,72,69,1
1,45,64,0
1,53,64,120
1,60,64,118
1,65,64,1
1,69,64,2
1,65,64,0
1,38,64,0
1,60,64,1
1,58,64,1
1,53,64,0
1,40,64,0
1,67,64,0
1,62,64,1
1,60,64,1
1,55,64,1
1,57,64,1
1,65,64,0
1,60,64,0
1,41,64,0
1,48,64,115
1,60,64,121
1,65,64,0
1,69,64,1
1,77,64,0
1,50,64,0
1,72,64,0
1,70,64,0
1,65,64,0
1,52,64,0
1,79,64,0
1,74,64,1
1,72,64,1
1,70,64,1
1,69,64,0
1,72,64,0
1,77,64,0
1,53,64,0
1,60,64,1
1,65,64,0
1,72,64,0
1,52,64,1
1,50,64,0
1,58,64,119
1,65,64,119
1,72,64,0
1,49,64,0
1,58,64,122
1,65,64,119
1,70,64,0
1,49,64,0
1,57,64,118
1,64,64,121
1,69,64,1
1,50,64,1
1,57,64,119
1,65,64,121
1,69,64,2
1,47,64,1
1,55,64,118
1,62,65,121
1,67,65,0
1,48,66,0
1,55,66,120
1,46,67,0
1,64,67,0
1,67,67,0
1,60,68,0
1,67,68,0
1,72,68,0
1,40,68,1
1,52,68,0
1,60,69,0
1,67,69,1
1,41,70,0
1,53,70,0
1,60,70,0
1,65,70,0
1,69,70,0
1,60,71,0
1,65,71,0
1,69,72,1
1,57,73,1
1,64,73,0
1,67,73,0
1,37,73,0
1,49,73,0
1,57,73,0
1,64,74,1
1,57,74,0
1,62,74,0
1,65,74,0
1,38,74,0
1,50,74,0
1,57,75,0
1,62,76,0
1,65,76,0
1,55,77,0
1,62,77,0
1,67,77,0
1,35,77,0
1,47,77,0
1,55,78,0
1,62,78,0
1,55,79,0
1,60,79,0
1,64,79,0
1,36,79,0
1,48,79,0
1,62,80,0
1,47,80,1
1,60,80,0
1,45,80,0
1,59,81,0
1,62,81,0
1,43,81,1
1,41,83,1
1,52,84,0
1,55,84,0
1,60,84,0
1,36,84,0
1,46,85,1
1,60,86,0
1,67,86,1
1,72,86,0
1,40,86,0
1,52,86,0
1,60,87,0
1,67,87,0
1,60,88,0
1,65,88,0
1,69,88,0
1,41,88,0
1,53,88,0
1,60,89,0
1,65,89,0
1,69,90,0
1,57,91,0
1,64,91,0
1,67,91,0
1,37,91,0
1,49,91,0
1,57,91,0
1,64,92,0
1,38,92,0
1,50,92,0
1,57,92,0
1,62,92,0
1,65,92,0
1,57,93,1
1,62,94,0
1,65,94,0
1,55,95,0
1,62,95,0
1,67,95,0
1,35,95,0
1,47,95,0
1,55,96,0
1,62,96,0
1,55,97,0
1,60,97,0
1,64,97,0
1,36,97,0
1,48,97,0
1,62,98,0
1,47,98,0
1,60,98,0
1,45,98,0
1,59,99,0
1,43,99,0
1,62,99,0
1,41,95,1
1,55,90,0
1,60,90,0
1,64,90,0
1,36,90,0
1,64,88,0
1,46,85,0
1,67,85,0
1,72,83,0
1,45,80,0
1,53,80,119
1,60,80,119
1,65,80,1
1,69,80,1
1,65,80,0
1,38,80,0
1,60,80,0
1,58,80,0
1,53,80,1
1,40,80,0
1,67,80,0
1,62,80,0
1,60,80,0
1,55,80,1
1,57,80,0
1,65,80,0
1,60,80,0
1,41,80,0
1,48,80,118
1,60,80,120
1,65,80,0
1,69,80,1
1,77,80,0
1,50,80,0
1,72,80,0
1,70,80,0
1,65,80,0
1,52,80,0
1,79,80,0
1,74,80,1
1,72,80,1
1,67,80,1
1,69,80,0
1,72,80,0
1,77,80,0
1,53,80,0
1,60,80,0
1,65,80,0
1,72,80,0
1,52,80,1
1,50,80,0
1,58,80,118
1,65,80,122
1,72,80,0
1,49,80,0
1,58,80,121
1,65,80,119
1,70,80,0
1,49,80,0
1,57,80,117
1,64,80,121
1,69,80,1
1,50,80,0
1,57,80,121
1,65,80,120
1,69,80,2
1,47,80,0
1,55,80,117
1,62,80,121
1,67,81,0
1,48,81,0
1,55,82,122
1,46,82,0
1,64,82,0
1,67,83,0
1,60,83,0
1,67,83,0
1,72,83,0
1,40,83,0
1,52,83,0
1,60,84,0
1,67,84,1
1,60,85,1
1,65,85,0
1,69,85,0
1,41,85,0
1,53,85,0
1,60,86,0
1,65,86,1
1,69,87,1
1,57,87,0
1,64,87,0
1,67,87,0
1,37,87,0
1,49,87,0
1,57,87,0
1,64,88,1
1,57,88,0
1,62,88,0
1,65,88,0
1,38,88,0
1,50,88,1
1,57,89,0
1,62,90,0
1,65,90,1
1,55,91,0
1,62,91,0
1,67,91,0
1,35,91,0
1,47,91,0
1,55,91,0
1,62,92,0
1,55,92,0
1,60,92,0
1,64,92,0
1,36,92,1
1,48,92,0
1,62,93,0
1,47,93,1
1,60,94,0
1,45,94,0
1,59,94,0
1,62,94,0
1,43,94,0
1,41,95,0
1,52,96,0
1,55,96,0
1,60,96,0
1,36,96,0
1,46,97,1
1,60,98,0
1,67,98,1
1,72,98,0
1,40,98,0
1,52,98,0
1,60,99,0
1,67,99,0
1,41,100,0
1,60,100,0
1,65,100,0
1,69,100,0
1,53,100,1
1,60,101,0
1,65,101,0
1,69,102,1
1,57,102,0
1,64,102,0
1,67,102,0
1,37,102,0
1,49,102,0
1,57,102,0
1,64,103,0
1,57,103,0
1,62,103,0
1,65,103,0
1,38,103,1
1,50,103,0
1,57,104,0
1,62,105,0
1,65,105,0
1,55,106,0
1,62,106,0
1,67,106,0
1,35,106,0
1,47,106,0
1,55,106,0
1,62,107,0
1,55,107,0
1,60,107,0
1,64,107,0
1,36,107,0
1,48,107,0
1,62,108,0
1,47,108,0
1,60,109,0
1,45,109,0
1,59,109,0
1,62,109,0
1,43,109,0
1,41,110,1
1,55,110,0
1,60,110,0
1,64,110,0
1,36,110,0
1,64,110,0
1,46,110,0
1,67,110,0
1,72,110,1
1,68,110,0
1,70,110,0
1,75,110,0
1,44,110,0
1,56,110,0
1,63,110,0
1,68,110,0
1,70,110,0
1,75,110,0
1,63,110,0
1,68,110,0
1,70,110,0
1,75,110,1
1,63,110,0
1,43,110,0
1,55,110,0
1,68,110,0
1,70,110,0
1,75,110,0
1,63,110,0
1,68,110,1
1,73,110,0
1,75,110,0
1,41,110,0
1,53,110,0
1,65,110,0
1,68,110,0
1,73,110,0
1,75,110,0
1,65,110,1
1,43,110,0
1,55,110,0
1,70,110,0
1,75,110,0
1,67,110,0
1,70,110,0
1,75,110,0
1,67,110,0
1,68,110,0
1,70,110,0
1,75,110,0
1,44,110,0
1,56,110,0
1,63,110,0
1,68,110,1
1,70,110,0
1,75,110,0
1,63,110,0
1,68,110,0
1,70,110,0
1,75,110,0
1,63,110,0
1,43,110,0
1,55,110,0
1,68,110,0
1,70,110,0
1,75,110,0
1,63,110,0
1,68,110,1
1,73,110,0
1,75,110,0
1,41,110,0
1,53,110,0
1,65,110,0
1,68,110,0
1,73,110,1
1,75,110,0
1,65,110,0
1,43,110,0
1,55,110,0
1,70,110,0
1,75,110,0
1,67,110,0
1,70,110,0
1,75,110,0
1,67,110,0
1,68,100,0
1,72,100,0
1,44,100,0
1,56,100,0
1,63,100,0
1,68,100,2
1,72,100,0
1,63,100,0
1,68,101,1
1,72,101,0
1,63,101,0
1,43,101,0
1,55,101,0
1,68,101,0
1,72,101,0
1,63,101,0
1,68,102,0
1,72,102,0
1,41,102,0
1,53,102,0
1,61,102,0
1,68,102,0
1,72,102,0
1,61,103,0
1,68,103,0
1,72,103,0
1,37,103,0
1,49,103,0
1,61,103,0
1,67,103,0
1,70,103,0
1,39,103,1
1,51,103,0
1,63,104,0
1,68,104,0
1,72,104,0
1,44,104,0
1,56,104,1
1,63,104,0
1,68,105,1
1,72,105,0
1,63,105,0
1,68,105,0
1,72,105,0
1,63,105,0
1,43,106,0
1,55,106,0
1,68,106,0
1,72,106,0
1,63,106,0
1,68,106,0
1,72,106,0
1,41,106,0
1,53,106,0
1,61,107,0
1,68,107,0
1,72,107,0
1,61,107,0
1,68,107,0
1,72,107,0
1,37,107,0
1,49,107,0
1,61,108,1
1,67,108,0
1,70,108,0
1,39,108,1
1,51,108,0
1,63,108,0
1,68,109,0
1,72,109,0
1,44,109,0
1,56,109,0
1,63,109,0
1,68,109,0
1,72,109,0
1,63,109,0
1,68,110,1
1,72,110,0
1,63,110,0
1,43,110,0
1,55,110,0
1,68,110,0
1,72,110,0
1,63,110,0
1,68,111,0
1,72,111,0
1,41,111,0
1,53,111,0
1,61,111,0
1,68,111,0
1,72,111,1
1,61,112,1
1,68,112,0
1,72,112,0
1,37,112,0
1,49,112,0
1,61,112,0
1,67,112,1
1,39,112,0
1,51,112,0
1,70,112,0
1,63,113,0
1,68,113,0
1,72,113,0
1,44,113,0
1,56,113,1
1,63,113,0
1,68,114,0
1,72,114,1
1,63,114,0
1,68,114,0
1,72,114,0
1,63,114,0
1,68,115,0
1,72,115,0
1,43,115,0
1,55,115,0
1,63,115,0
1,68,115,1
1,72,115,0
1,41,115,0
1,53,115,0
1,61,116,0
1,68,116,0
1,72,116,0
1,61,116,0
1,68,116,0
1,72,116,0
1,37,116,0
1,49,116,0
1,61,117,0
1,67,117,0
1,70,117,0
1,39,117,1
1,51,117,0
1,63,117,0
1,68,118,0
1,72,118,0
1,44,118,0
1,56,118,0
1,63,118,0
1,68,118,0
1,72,118,1
1,63,118,0
1,68,119,2
1,72,119,0
1,63,119,0
1,68,119,0
1,72,119,0
1,43,119,0
1,55,119,0
1,63,119,0
1,68,120,0
1,72,120,0
1,41,120,1
1,53,120,0
1,61,120,0
1,68,120,1
1,72,120,0
1,61,121,0
1,68,121,0
1,72,121,0
1,37,121,0
1,49,121,0
1,61,121,0
1,39,121,0
1,51,121,0
1,67,121,0
1,70,121,0
1,63,122,0
1,44,122,0
1,32,122,0
1,68,122,0
1,63,122,0
1,60,122,0
1,72,64,241
1,53,64,0
1,61,64,0
1,63,64,0
1,68,64,0
1,70,64,1
1,68,64,0
1,70,64,0
1,63,64,0
1,55,64,0
1,61,64,0
1,55,64,0
1,68,64,0
1,56,64,0
1,60,64,0
1,63,64,0
1,68,64,0
2,60,64,5042
2,65,64,1
2,69,64,0
2,69,64,0
2,67,64,0
2,65,64,1
2,67,64,0
2,65,64,1
2,65,64,1
2,60,64,1440
2,65,64,1
2,72,64,0
2,72,64,0
2,70,64,0
2,69,64,0
2,72,64,0
2,70,64,0
2,70,64,0
2,69,64,0
2,67,64,0
2,69,64,0
2,67,64,1
2,65,64,1
2,65,64,0
2,67,64,0
2,69,64,0
2,69,64,0
2,67,65,0
2,65,65,0
2,64,66,0
2,62,66,0
2,60,66,0
2,74,67,59
2,72,68,0
2,69,69,0
2,67,72,240
2,69,72,1
2,70,73,0
2,69,73,1
2,65,76,241
2,67,76,1
2,65,77,0
2,64,77,0
2,62,78,1
2,60,79,0
2,62,79,0
2,60,82,1
2,74,83,119
2,72,84,0
2,69,85,1
2,67,88,241
2,69,88,0
2,70,89,0
2,69,89,0
2,65,92,239
2,67,92,0
2,65,93,0
2,64,93,0
2,62,94,2
2,60,95,0
2,62,95,0
2,60,82,0
2,60,64,239
2,65,64,1
2,69,64,0
2,69,64,1
2,67,64,0
2,65,64,1
2,67,64,0
2,65,64,0
2,65,64,1
2,60,64,1439
2,65,64,0
2,72,64,0
2,72,64,0
2,70,64,0
2,69,64,1
2,72,64,0
2,70,64,0
2,70,64,117
2,69,64,1
2,67,64,0
2,69,64,0
2,67,64,1
2,65,64,0
2,65,64,0
2,67,64,0
2,69,64,1
2,69,64,1
2,67,65,0
2,65,65,1
2,64,66,0
2,62,66,0
2,60,66,0
2,74,67,63
2,72,68,0
2,69,70,0
2,67,73,240
2,69,73,0
2,70,74,0
2,69,74,0
2,65,77,240
2,67,78,0
2,65,78,0
2,64,79,0
2,62,80,1
2,60,80,0
2,62,81,0
2,60,84,0
2,74,85,121
2,72,86,0
2,69,88,0
2,67,91,240
2,69,91,0
2,70,92,0
2,69,92,0
2,65,95,239
2,67,96,0
2,65,96,0
2,64,97,0
2,62,98,0
2,60,98,0
2,62,99,0
2,60,90,1
2,60,80,239
2,65,80,0
2,69,80,0
2,69,80,1
2,67,80,1
2,65,80,1
2,67,80,0
2,65,80,1
2,65,80,1
2,60,80,1438
2,65,80,0
2,72,80,0
2,72,80,1
2,70,80,0
2,69,80,1
2,72,80,0
2,70,80,0
2,70,80,0
2,69,80,0
2,67,80,0
2,69,80,1
2,67,80,0
2,65,80,0
2,65,80,0
2,67,80,1
2,69,80,0
2,69,80,0
2,67,81,0
2,65,81,0
2,64,81,2
2,62,82,1
2,60,82,0
2,74,82,60
2,72,83,0
2,69,85,0
2,67,87,239
2,69,87,0
2,70,88,1
2,69,88,0
2,65,91,240
2,67,91,0
2,65,92,0
2,64,92,0
2,62,93,0
2,60,94,0
2,62,94,0
