track,note,velocity,time
1,69,127,768
1,71,127,192
1,69,0,64
1,72,127,124
1,71,0,68
1,74,127,128
1,72,0,68
1,76,127,124
1,72,127,4
1,74,0,64
1,72,0,448
1,76,0,4
1,72,127,436
1,72,0,192
1,74,127,100
1,74,0,212
1,71,127,80
1,67,127,0
1,62,127,16
1,67,0,504
1,62,0,4
1,71,0,4
1,71,127,252
1,74,127,0
1,79,127,0
1,79,0,260
1,81,127,108
1,81,0,140
1,71,0,0
1,74,0,8
1,76,127,52
1,72,127,192
1,72,127,4
1,72,0,1028
1,72,0,8
1,76,0,324
1,69,127,928
1,69,0,128
1,71,127,80
1,71,0,128
1,72,127,56
1,72,0,136
1,74,127,56
1,74,0,128
1,74,127,60
1,76,127,0
1,72,127,0
1,74,0,64
1,76,0,448
1,72,0,20
1,72,127,436
1,72,0,188
1,74,127,100
1,74,0,192
1,71,127,88
1,67,127,0
1,62,127,0
1,71,0,508
1,67,0,8
1,64,127,264
1,62,0,260
1,64,0,4
1,67,127,128
1,67,0,144
1,67,127,28
1,64,127,192
1,60,127,0
1,69,127,0
1,64,127,4
1,60,127,0
1,67,0,328
1,69,127,64
1,69,0,4
1,60,0,640
1,64,0,8
1,69,0,896
1,60,0,620
1,64,0,4
1,69,127,24308
1,71,127,196
1,69,0,60
1,72,127,132
1,71,0,64
1,74,127,136
1,72,0,52
1,76,127,132
1,72,127,16
1,74,0,56
1,76,0,436
1,72,0,28
1,72,127,440
1,72,0,192
1,74,127,80
1,74,0,208
1,71,127,80
1,67,127,0
1,62,127,4
1,67,0,504
1,71,0,4
1,62,0,4
1,71,127,268
1,74,127,0
1,79,127,0
1,79,0,256
1,81,127,112
1,81,0,136
1,74,0,16
1,71,0,8
1,76,127,32
1,72,127,192
1,72,127,4
1,72,0,1024
1,72,0,12
1,76,0,308
1,69,127,968
1,69,0,136
1,71,127,40
1,71,0,128
1,72,127,64
1,72,0,128
1,74,127,76
1,74,0,128
1,74,127,56
1,76,127,20
1,72,127,0
1,74,0,52
1,76,0,460
1,72,0,8
1,72,127,428
1,72,0,188
1,74,127,88
1,74,0,204
1,71,127,100
1,67,127,0
1,62,127,0
1,67,0,512
1,71,0,0
1,64,127,244
1,64,0,268
1,62,0,0
1,67,127,116
1,67,0,132
1,67,127,68
1,64,127,200
1,60,127,0
1,69,127,0
1,64,127,0
1,60,127,0
1,67,0,320
1,69,127,56
1,69,0,8
1,60,0,640
1,64,0,4
1,69,0,888
1,64,0,644
1,60,0,4
1,69,127,24300
1,71,127,196
1,69,0,68
1,72,127,128
1,71,0,60
1,74,127,124
1,72,0,68
1,76,127,132
1,72,127,0
1,74,0,56
1,72,0,456
1,76,0,4
1,72,127,440
1,72,0,188
1,74,127,96
1,74,0,204
1,71,127,92
1,67,127,4
1,62,127,0
1,71,0,504
1,67,0,8
1,62,0,8
1,71,127,248
1,74,127,0
1,79,127,0
1,79,0,264
1,81,127,108
1,74,0,140
1,81,0,4
1,71,0,4
1,76,127,44
1,72,127,192
1,72,127,8
1,72,0,1020
1,72,0,24
1,76,0,300
1,69,127,952
1,69,0,128
1,71,127,72
1,71,0,140
1,72,127,44
1,72,0,132
1,74,127,72
1,74,0,140
1,74,127,48
1,76,127,0
1,72,127,0
1,74,0,76
1,72,0,436
1,76,0,20
1,72,127,420
1,72,0,200
1,74,127,96
1,74,0,200
1,71,127,96
1,67,127,0
1,62,127,0
1,67,0,528
1,71,0,0
1,64,127,224
1,64,0,256
1,62,0,16
1,67,127,120
1,67,0,136
1,67,127,44
1,64,127,196
1,60,127,0
1,69,127,8
1,64,127,8
1,60,127,0
1,67,0,300
1,69,127,80
1,69,0,12
1,64,0,620
1,60,0,20
1,69,0,884
1,60,0,656
1,64,0,8
1,69,127,1256
1,71,127,180
1,69,0,88
1,72,127,104
1,71,0,68
1,74,127,140
1,72,0,48
1,76,127,140
1,72,127,0
1,74,0,64
1,72,0,456
1,76,0,8
1,72,127,420
1,72,0,196
1,74,127,112
1,74,0,192
1,71,127,76
1,67,127,16
1,62,127,0
1,71,0,496
1,67,0,24
1,62,0,4
1,71,127,228
1,74,127,12
1,79,127,0
1,79,0,252
1,81,127,120
1,81,0,132
1,71,0,8
1,74,0,12
1,76,127,40
1,72,127,192
1,72,127,12
1,72,0,1016
1,72,0,28
1,76,0,292
1,69,127,968
1,69,0,136
1,71,127,52
1,71,0,136
1,72,127,48
1,72,0,140
1,74,127,60
1,74,0,140
1,74,127,44
1,76,127,0
1,72,127,0
1,74,0,64
1,72,0,448
1,76,0,0
1,72,127,456
1,72,0,200
1,74,127,80
1,74,0,200
1,71,127,92
1,67,127,0
1,62,127,0
1,71,0,520
1,67,0,4
1,64,127,240
1,64,0,260
1,62,0,8
1,67,127,116
1,67,0,136
1,67,127,56
1,64,127,192
1,60,127,0
1,69,127,16
1,64,127,0
1,60,127,4
1,67,0,300
1,69,127,72
1,69,0,24
1,60,0,612
1,64,0,12
1,69,0,904
1,60,0,640
1,64,0,8
1,69,127,15084
1,71,127,192
1,69,0,64
1,72,127,116
1,71,0,76
1,74,127,116
1,72,0,64
1,76,127,128
1,72,127,0
1,74,0,64
1,72,0,448
1,76,0,0
1,72,127,448
1,72,0,200
1,74,127,96
1,74,0,204
1,71,127,76
1,67,127,12
1,62,127,8
1,71,0,488
1,67,0,24
1,62,0,8
1,71,127,228
1,74,127,0
1,79,127,8
1,79,0,268
1,81,127,116
1,71,0,116
1,81,0,12
1,74,0,0
1,76,127,72
1,72,127,192
1,72,127,0
1,72,0,1024
1,72,0,12
1,76,0,312
1,69,127,940
1,69,0,132
1,71,127,68
1,71,0,128
1,72,127,56
1,72,0,144
1,74,127,56
1,74,0,136
1,74,127,68
1,76,127,0
1,72,127,0
1,74,0,80
1,72,0,432
1,76,0,0
1,72,127,428
1,72,0,204
1,74,127,92
1,74,0,208
1,71,127,72
1,67,127,0
1,62,127,0
1,67,0,508
1,71,0,4
1,64,127,268
1,64,0,256
1,62,0,0
1,67,127,128
1,67,0,132
1,67,127,56
1,64,127,184
1,60,127,0
1,69,127,4
1,64,127,0
1,60,127,0
1,67,0,340
1,69,0,48
1,69,127,4
1,60,0,632
1,64,0,8
1,69,0,900
1,69,127,368
1,71,127,188
1,64,0,76
1,69,0,4
1,60,0,4
1,72,127,120
1,71,0,64
1,74,127,136
1,72,0,56
1,76,127,120
1,72,127,0
1,74,0,92
1,72,0,428
1,76,0,4
1,72,127,440
1,72,0,200
1,74,127,80
1,74,0,188
1,71,127,120
1,67,127,0
1,62,127,0
1,67,0,520
1,62,0,4
1,71,0,4
1,71,127,236
1,74,127,0
1,79,127,0
1,79,0,256
1,81,127,116
1,81,0,136
1,71,0,8
1,74,0,8
1,76,127,52
1,72,127,180
1,72,127,4
1,72,0,1024
1,72,0,8
1,76,0,324
1,69,127,948
1,69,0,148
1,71,127,44
1,71,0,144
1,72,127,48
1,72,0,132
1,74,127,56
1,74,0,148
1,74,127,56
1,76,127,0
1,72,127,8
1,74,0,56
1,72,0,456
1,76,0,4
1,72,127,420
1,72,0,192
1,74,127,100
1,74,0,196
1,71,127,92
1,67,127,16
1,62,127,0
1,71,0,496
1,67,0,28
1,64,127,224
1,64,0,256
1,62,0,24
1,67,127,108
1,67,0,128
1,67,127,64
1,64,127,208
1,60,127,0
1,69,127,0
1,64,127,0
1,60,127,0
1,67,0,304
1,69,127,64
1,69,0,20
1,64,0,640
1,60,0,12
1,69,0,864
1,69,127,380
1,71,127,196
1,69,0,76
1,64,0,8
1,60,0,8
1,72,127,116
1,71,0,52
1,74,127,124
1,72,0,80
1,76,127,112
1,72,127,8
1,74,0,56
1,76,0,448
1,72,0,8
1,72,127,452
1,72,0,192
1,74,127,92
1,74,0,200
1,71,127,88
1,67,127,0
1,62,127,0
1,71,0,512
1,62,0,8
1,67,0,4
1,71,127,244
1,74,127,0
1,79,127,0
1,79,0,276
1,81,127,112
1,74,0,124
1,71,0,8
1,81,0,8
1,76,127,52
1,72,127,192
1,72,127,0
1,72,0,1036
1,72,0,8
1,76,0,304
1,69,127,960
1,69,0,128
1,71,127,60
1,71,0,128
1,72,127,60
1,72,0,128
1,74,127,56
1,74,0,136
1,74,127,76
1,76,127,0
1,72,127,0
1,74,0,76
1,72,0,432
1,76,0,8
1,72,127,432
1,72,0,192
1,74,127,92
1,74,0,212
1,71,127,76
1,67,127,0
1,62,127,0
1,67,0,512
1,71,0,20
1,64,127,244
1,64,0,252
1,62,0,0
1,67,127,120
1,67,0,124
1,67,127,68
1,64,127,192
1,60,127,0
1,69,127,0
1,64,127,0
1,60,127,0
1,67,0,320
1,69,0,80
1,69,127,0
1,64,0,640
1,60,0,4
1,69,0,908
1,64,0,612
1,60,0,12
2,65,61,1548
2,69,61,4
2,72,61,0
2,69,0,192
2,72,0,12
2,65,0,20
2,65,61,48
2,69,61,16
2,65,0,48
2,69,0,20
2,65,61,36
2,69,61,0
2,72,61,0
2,60,61,172
2,60,0,60
2,69,0,16
2,72,0,4
2,65,0,20
2,60,61,12
2,60,0,60
2,65,61,24
2,69,61,4
2,72,61,0
2,72,0,188
2,65,0,4
2,69,0,4
2,65,61,84
2,69,61,8
2,65,0,60
2,69,0,20
2,65,61,4
2,69,61,0
2,72,61,0
2,65,0,252
2,69,0,12
2,72,0,8
2,64,61,124
2,67,61,4
2,71,61,12
2,67,0,188
2,64,0,12
2,71,0,8
2,64,61,56
2,67,61,0
2,64,0,72
2,67,0,8
2,64,61,28
2,67,61,0
2,71,61,0
2,64,0,252
2,67,0,20
2,71,0,12
2,64,61,84
2,67,61,4
2,71,61,12
2,67,0,176
2,64,0,8
2,71,0,24
2,64,61,60
2,67,61,24
2,64,0,52
2,67,0,24
2,64,61,16
2,67,61,12
2,71,61,0
2,64,0,248
2,71,0,20
2,67,0,4
2,64,61,84
2,69,61,16
2,72,61,0
2,64,0,192
2,72,0,16
2,69,0,12
2,64,61,60
2,69,61,16
2,72,61,0
2,64,0,64
2,64,61,8
2,69,61,0
2,69,0,8
2,72,0,8
2,72,61,8
2,72,61,168
2,69,61,12
2,64,61,0
2,64,0,52
2,72,0,8
2,69,0,8
2,64,0,12
2,72,0,4
2,69,0,8
2,64,61,104
2,69,61,8
2,72,61,0
2,64,0,188
2,72,0,12
2,69,0,4
2,64,61,68
2,69,61,12
2,72,61,0
2,64,0,56
2,72,0,12
2,69,0,4
2,64,61,16
2,69,61,16
2,72,61,0
2,72,61,172
2,69,61,0
2,64,61,16
2,72,0,56
2,69,0,12
2,64,0,0
2,64,0,12
2,69,0,0
2,72,0,8
2,64,61,108
2,69,61,0
2,72,61,0
2,69,0,200
2,64,0,4
2,72,0,8
2,64,61,48
2,69,61,20
2,72,61,0
2,64,0,68
2,69,0,8
2,64,61,0
2,69,61,0
2,72,61,0
2,72,0,4
2,69,0,252
2,72,0,0
2,64,0,12
2,64,61,128
2,69,61,8
2,72,61,0
2,72,0,196
2,69,0,4
2,64,0,8
2,64,61,76
2,69,61,8
2,72,61,0
2,72,0,68
2,64,0,0
2,64,61,12
2,69,61,0
2,69,0,4
2,72,61,4
2,72,61,172
2,69,61,0
2,69,0,64
2,72,0,4
2,72,0,20
2,64,0,0
2,69,0,4
2,62,61,120
2,65,61,0
2,69,61,0
2,69,0,196
2,65,0,8
2,62,0,4
2,62,61,84
2,65,61,0
2,69,61,0
2,69,0,68
2,65,0,0
2,62,0,4
2,62,61,16
2,65,61,16
2,69,61,8
2,62,61,92
2,65,61,0
2,69,61,0
2,62,0,60
2,65,0,16
2,62,61,0
2,65,61,0
2,69,0,4
2,69,61,8
2,65,0,48
2,62,0,4
2,69,0,12
2,62,61,4
2,65,61,0
2,69,0,8
2,62,0,8
2,65,0,8
2,69,61,8
2,65,0,32
2,62,0,16
2,69,0,24
2,62,61,16
2,65,61,0
2,69,61,8
2,69,0,196
2,65,0,8
2,62,0,8
2,62,61,80
2,65,61,0
2,69,61,0
2,65,0,60
2,62,0,12
2,69,0,4
2,62,61,4
2,65,61,0
2,69,61,4
2,69,0,252
2,65,0,0
2,62,0,24
2,64,61,108
2,67,61,4
2,71,61,0
2,64,0,184
2,67,0,12
2,71,0,8
2,64,61,80
2,67,61,8
2,64,0,56
2,64,61,32
2,67,0,4
2,67,61,4
2,71,61,0
2,71,0,256
2,67,0,8
2,64,0,0
2,64,61,108
2,67,61,0
2,71,61,0
2,64,0,192
2,67,0,8
2,71,0,8
2,64,61,72
2,67,61,12
2,64,0,60
2,67,0,16
2,64,61,16
2,67,61,16
2,71,61,0
2,71,0,252
2,64,0,0
2,67,0,20
2,64,61,84
2,69,61,8
2,72,61,4
2,72,0,192
2,69,0,0
2,64,0,0
2,64,61,84
2,69,61,4
2,72,61,0
2,64,0,60
2,69,0,4
2,72,0,20
2,64,61,32
2,69,61,8
2,72,61,0
2,64,0,248
2,72,0,20
2,69,0,12
2,64,61,84
2,69,61,8
2,72,61,0
2,64,0,180
2,72,0,16
2,69,0,12
2,64,61,56
2,69,61,4
2,72,61,8
2,69,0,68
2,72,0,4
2,64,0,0
2,64,61,32
2,69,61,0
2,72,61,0
2,64,61,188
2,69,61,0
2,72,61,0
2,64,0,60
2,69,0,12
2,69,0,8
2,72,0,0
2,64,0,12
2,72,0,0
2,64,61,84
2,69,61,16
2,72,61,0
2,64,0,184
2,69,0,8
2,72,0,8
2,64,61,80
2,69,61,0
2,72,61,8
2,64,0,56
2,69,0,12
2,64,61,4
2,69,61,4
2,72,0,12
2,72,61,8
2,64,0,248
2,72,0,8
2,69,0,16
2,64,61,108
2,69,61,16
2,72,61,0
2,64,0,184
2,72,0,4
2,69,0,16
2,64,61,72
2,69,61,0
2,72,61,4
2,69,0,56
2,64,0,0
2,64,61,28
2,69,61,0
2,72,61,4
2,72,0,4
2,69,0,244
2,72,0,12
2,64,0,24
2,72,61,96
2,64,61,12
2,67,61,0
2,72,0,64
2,67,0,12
2,72,61,4
2,64,61,0
2,67,61,0
2,64,0,16
2,64,0,48
2,72,0,4
2,67,0,0
2,72,61,40
2,64,61,0
2,67,61,0
2,72,0,128
2,67,0,12
2,64,0,8
2,64,61,148
2,67,61,0
2,72,61,0
2,67,0,64
2,64,0,12
2,64,61,8
2,67,61,4
2,72,61,0
2,72,0,4
2,64,0,56
2,67,0,16
2,72,0,8
2,64,61,4
2,67,61,0
2,72,61,0
2,72,0,68
2,67,0,8
2,64,0,8
2,64,61,12
2,67,61,12
2,72,61,0
2,64,0,124
2,67,0,4
2,72,0,20
2,72,61,240
2,64,61,0
2,67,61,4
2,64,0,60
2,67,0,8
2,72,0,4
2,72,61,20
2,64,61,4
2,67,61,0
2,67,0,64
2,72,61,4
2,72,0,4
2,64,0,8
2,64,61,4
2,67,61,16
2,72,0,104
2,64,0,16
2,67,0,36
2,64,61,112
2,67,61,0
2,72,61,0
2,67,0,56
2,72,0,8
2,64,0,0
2,64,61,24
2,67,61,0
2,72,61,24
2,64,0,60
2,72,0,4
2,67,0,0
2,64,61,4
2,67,61,28
2,72,61,0
2,64,0,52
2,72,0,8
2,67,0,12
2,64,61,16
2,67,61,0
2,72,61,20
2,64,0,116
2,67,0,4
2,72,0,24
2,72,61,220
2,64,61,0
2,67,61,0
2,64,0,76
2,72,0,8
2,72,61,0
2,67,0,4
2,64,61,20
2,67,61,0
2,72,0,56
2,67,0,16
2,64,0,0
2,72,61,12
2,64,61,0
2,67,61,8
2,64,0,124
2,72,0,28
2,67,0,8
2,64,61,112
2,67,61,8
2,72,61,0
2,64,0,52
2,67,0,12
2,72,0,12
2,64,61,8
2,67,61,12
2,72,61,8
2,64,0,52
2,67,0,12
2,72,0,4
2,64,61,8
2,67,61,4
2,72,61,0
2,67,0,60
2,64,0,0
2,72,0,16
2,62,61,24
2,66,61,0
2,69,61,8
2,66,0,120
2,62,0,12
2,69,0,4
2,62,61,228
2,66,61,12
2,69,61,0
2,69,0,68
2,62,0,4
2,66,0,12
2,66,61,12
2,69,61,0
