track,note,velocity,time
1,61,127,0
1,57,127,0
1,52,127,0
1,61,0,252
1,57,0,4
1,52,0,40
1,64,113,100
1,57,113,0
1,64,0,248
1,57,0,8
1,69,113,125
1,61,113,0
1,61,0,256
1,69,0,28
1,68,106,100
1,59,106,0
1,68,0,504
1,59,0,24
1,64,115,236
1,59,115,0
1,56,115,0
1,56,0,108
1,59,0,0
1,64,0,12
1,59,77,71
1,56,100,109
1,59,0,27
1,61,127,52
1,57,127,0
1,52,127,0
1,56,0,17
1,57,0,227
1,52,0,12
1,61,0,16
1,64,113,124
1,57,113,0
1,57,0,272
1,64,0,8
1,69,113,101
1,61,113,0
1,64,113,0
1,61,0,272
1,69,0,4
1,64,0,8
1,68,106,100
1,64,106,0
1,59,106,0
1,64,0,524
1,68,0,12
1,59,0,16
1,64,115,212
1,59,115,0
1,56,115,0
1,59,0,280
1,64,0,8
1,56,0,4
1,63,127,87
1,59,127,0
1,54,127,0
1,54,0,504
1,59,0,0
1,63,0,20
1,54,113,253
1,54,0,292
1,59,106,92
1,54,106,0
1,59,0,508
1,54,0,28
1,66,127,607
1,61,127,0
1,54,127,0
1,61,0,256
1,66,0,0
1,61,113,140
1,54,0,368
1,61,0,180
1,61,106,217
1,58,106,0
1,54,106,0
1,61,0,256
1,63,124,131
1,54,0,125
1,58,0,40
1,63,0,119
1,61,115,93
1,58,115,0
1,51,115,0
1,51,0,256
1,61,0,20
1,58,0,8
1,63,127,95
1,59,127,0
1,54,127,0
1,63,0,512
1,59,0,16
1,54,0,4
1,61,127,1772
1,57,127,0
1,66,127,0
1,66,0,244
1,57,0,136
1,61,113,16
1,57,113,0
1,64,113,0
1,61,0,24
1,64,0,252
1,61,113,105
1,57,113,0
1,66,113,0
1,61,0,8
1,57,0,24
1,66,0,240
1,64,106,112
1,59,106,0
1,56,106,0
1,61,0,11
1,57,0,28
1,56,0,205
1,64,0,8
1,59,0,40
1,64,115,472
1,59,115,0
1,56,115,0
1,59,0,256
1,64,0,16
1,56,0,12
1,51,127,95
1,59,127,0
1,59,127,0
1,59,0,764
1,51,0,0
1,59,0,20
1,59,106,377
1,59,106,0
1,54,106,0
1,59,0,512
1,59,0,32
1,54,0,8
1,63,115,212
1,63,115,0
1,59,115,0
1,63,0,248
1,59,0,4
1,63,0,24
1,66,127,103
1,63,127,0
1,58,127,0
1,58,0,272
1,66,0,0
1,63,0,8
1,61,113,116
1,58,113,0
1,51,113,0
1,58,0,508
1,61,0,4
1,51,0,28
1,61,106,225
1,58,106,0
1,52,106,0
1,61,0,284
1,63,124,103
1,58,0,125
1,52,0,12
1,63,0,111
1,61,115,129
1,61,115,0
1,58,115,0
1,58,115,0
1,51,115,0
1,58,0,252
1,61,0,0
1,61,0,4
1,51,0,24
1,58,0,4
1,59,127,95
1,56,127,0
1,56,127,0
1,51,127,0
1,51,0,512
1,56,0,12
1,56,0,8
1,59,0,8
1,56,113,237
1,56,113,0
1,59,54,100
1,59,54,0
1,56,0,24
1,56,0,20
1,59,0,80
1,59,0,32
1,61,74,31
1,61,74,0
1,63,106,97
1,59,106,0
1,56,106,0
1,61,0,27
1,61,0,4
1,56,0,33
1,63,0,16
1,59,0,20
1,63,77,200
1,59,77,0
1,59,77,0
1,56,77,0
1,56,77,0
1,59,0,124
1,56,0,16
1,63,0,0
1,59,0,16
1,56,0,12
1,57,127,675
1,61,127,0
1,61,0,768
1,57,0,0
1,64,106,393
1,64,106,0
1,59,106,0
1,59,106,0
1,56,106,0
1,59,0,504
1,64,0,4
1,64,0,0
1,56,0,16
1,59,0,20
1,66,127,599
1,61,127,0
1,61,127,0
1,57,127,0
1,61,0,256
1,61,0,16
1,57,0,4
1,66,0,4
1,64,113,116
1,64,113,0
1,61,113,0
1,57,113,0
1,61,0,252
1,57,0,4
1,64,0,0
1,64,0,16
1,66,113,109
1,61,113,0
1,61,113,0
1,57,113,0
1,66,113,0
1,61,113,0
1,61,113,0
1,57,113,0
1,57,0,228
1,66,0,20
1,61,0,8
1,61,0,12
1,66,0,12
1,61,0,4
1,61,0,0
1,57,0,24
1,64,106,76
1,61,106,0
1,61,106,0
1,58,106,0
1,64,0,768
1,61,0,16
1,61,0,12
1,58,0,8
1,61,113,735
1,61,113,0
1,58,113,0
1,51,113,0
1,61,0,504
1,51,0,4
1,61,0,4
1,58,0,12
1,66,106,241
1,63,106,0
1,63,106,0
1,51,106,0
1,66,0,124
1,63,0,28
1,63,0,0
1,51,0,352
1,58,115,260
1,54,115,0
1,54,115,0
1,59,115,0
1,59,115,0
1,59,0,244
1,59,0,0
1,58,0,8
1,54,0,16
1,54,0,16
1,59,127,95
1,59,127,0
1,56,127,0
1,52,127,0
1,52,0,124
1,59,0,0
1,56,0,16
1,59,0,4
1,68,106,1017
1,64,106,0
1,59,106,0
1,56,106,0
1,56,106,0
1,56,0,252
1,59,0,16
1,64,0,4
1,56,0,4
1,68,0,4
1,66,124,107
1,66,124,0
1,62,124,0
1,57,124,0
1,66,0,248
1,57,0,8
1,66,0,4
1,62,0,16
1,64,115,101
1,59,115,0
1,56,115,0
1,56,115,0
1,56,0,256
1,64,0,12
1,56,0,16
1,59,0,4
1,63,127,91
1,63,127,0
1,61,127,0
1,57,127,0
1,63,0,276
1,57,0,4
1,61,0,0
1,63,0,16
1,61,113,100
1,57,113,0
1,51,113,0
1,57,0,500
1,51,0,28
1,61,0,0
1,63,106,237
1,51,106,0
1,63,0,156
1,51,0,388
1,59,115,220
1,56,115,0
1,51,115,0
1,56,0,244
1,51,0,4
1,59,0,4
1,61,127,127
1,57,127,0
1,57,0,764
1,61,0,4
1,68,106,393
1,64,106,0
1,59,106,0
1,59,0,244
1,68,0,8
1,64,0,20
1,66,124,115
1,62,124,0
1,57,124,0
1,57,0,244
1,66,0,24
1,62,0,8
1,64,115,101
1,59,115,0
1,56,115,0
1,56,0,252
1,64,0,4
1,59,0,20
1,63,127,103
1,59,127,0
1,54,127,0
1,63,0,504
1,54,0,24
1,59,0,8
1,54,113,241
1,54,0,256
1,59,106,128
1,54,106,0
1,54,0,508
1,59,0,4
1,66,127,631
1,61,127,0
1,54,127,0
1,61,0,244
1,66,0,8
1,61,113,144
1,54,0,396
1,61,0,116
1,61,106,253
1,58,106,0
1,54,106,0
1,61,0,244
1,63,124,143
1,54,0,113
1,58,0,12
1,63,0,147
1,61,115,105
1,58,115,0
1,51,115,0
1,61,0,244
1,51,0,12
1,58,0,24
1,63,127,99
1,59,127,0
1,54,127,0
1,59,0,528
1,63,0,0
1,54,0,20
1,61,127,1756
1,57,127,0
1,66,127,0
1,66,0,256
1,57,0,124
1,61,0,0
1,61,113,16
1,57,113,0
1,64,113,0
1,64,0,296
1,61,113,85
1,57,113,0
1,66,113,0
1,57,0,19
1,61,0,12
1,66,0,221
1,64,106,132
1,59,106,0
1,56,106,0
1,61,0,12
1,57,0,4
1,64,0,228
1,56,0,12
1,59,0,32
1,64,115,476
1,59,115,0
1,56,115,0
1,64,0,248
1,56,0,20
1,59,0,20
1,51,127,91
1,59,127,0
1,59,127,0
1,59,0,760
1,51,0,8
1,59,0,28
1,59,106,365
1,59,106,0
1,54,106,0
1,54,0,508
1,59,0,28
1,59,0,0
1,63,115,228
1,63,115,0
1,59,115,0
1,63,0,272
1,59,0,8
1,63,0,0
1,66,127,99
1,63,127,0
1,58,127,0
1,66,0,252
1,63,0,32
1,58,0,8
1,61,113,104
1,58,113,0
1,51,113,0
1,58,0,512
1,51,0,36
1,61,0,4
1,61,106,213
1,58,106,0
1,52,106,0
1,61,0,268
1,63,124,119
1,58,0,121
1,52,0,16
1,63,0,111
1,61,115,129
1,61,115,0
1,58,115,0
1,58,115,0
1,51,115,0
1,61,0,244
1,58,0,8
1,51,0,4
1,58,0,28
1,61,0,0
1,59,127,95
1,56,127,0
1,56,127,0
1,51,127,0
1,51,0,508
1,56,0,12
1,56,0,12
1,59,0,12
1,56,113,233
1,56,113,0
1,59,54,100
1,59,54,0
1,56,0,28
1,56,0,32
1,61,71,28
1,59,0,52
1,59,0,16
1,61,74,31
1,61,0,93
1,63,106,4
1,59,106,0
1,56,106,0
1,61,0,15
1,59,0,41
1,63,0,24
1,56,0,4
1,63,77,216
1,59,77,0
1,59,77,0
1,56,77,0
1,56,77,0
1,59,0,124
1,56,0,4
1,56,0,0
1,59,0,0
1,63,0,36
1,57,127,679
1,61,127,0
1,57,0,780
1,61,0,4
1,64,106,377
1,64,106,0
1,59,106,0
1,59,106,0
1,56,106,0
1,56,0,508
1,59,0,0
1,64,0,4
1,64,0,0
1,59,0,16
1,66,127,615
1,61,127,0
1,61,127,0
1,57,127,0
1,61,0,248
1,57,0,4
1,66,0,0
1,61,0,4
1,64,113,140
1,64,113,0
1,61,113,0
1,57,113,0
1,61,0,248
1,57,0,4
1,64,0,0
1,64,0,20
1,66,113,109
1,61,113,0
1,61,113,0
1,57,113,0
1,66,113,0
1,61,113,0
1,61,113,0
1,57,113,0
1,66,0,244
1,61,0,8
1,61,0,4
1,66,0,12
1,57,0,4
1,61,0,16
1,57,0,4
1,61,0,4
1,64,106,88
1,61,106,0
1,61,106,0
1,58,106,0
1,61,0,756
1,64,0,28
1,58,0,8
1,61,0,4
1,61,113,743
1,61,113,0
1,58,113,0
1,51,113,0
1,58,0,504
1,61,0,0
1,51,0,4
1,61,0,36
1,66,106,221
1,63,106,0
1,63,106,0
1,51,106,0
1,66,0,120
1,63,0,24
1,63,0,0
1,51,0,368
1,58,115,252
1,54,115,0
1,54,115,0
1,59,115,0
1,59,115,0
1,54,0,236
1,58,0,16
1,59,0,4
1,59,0,40
1,54,0,4
1,59,127,79
1,59,127,0
1,56,127,0
1,52,127,0
1,59,0,104
1,56,0,20
1,59,0,12
1,52,0,4
1,68,106,1021
1,64,106,0
1,59,106,0
1,56,106,0
1,56,106,0
1,59,0,244
1,56,0,8
1,68,0,0
1,56,0,4
1,64,0,28
1,66,124,103
1,66,124,0
1,62,124,0
1,57,124,0
1,66,0,248
1,66,0,24
1,62,0,16
1,57,0,0
1,64,115,89
1,59,115,0
1,56,115,0
1,56,115,0
1,56,0,252
1,64,0,4
1,59,0,0
1,56,0,12
1,61,127,111
1,58,127,0
1,58,0,764
1,61,0,40
1,61,106,357
1,56,106,0
1,61,0,284
1,56,0,224
1,56,115,256
1,59,115,0
1,54,47,100
1,56,0,24
1,54,0,116
1,51,100,7
1,59,0,5
1,61,127,127
1,57,127,0
1,51,0,24
1,57,0,736
1,61,0,0
1,64,106,401
1,64,106,0
1,59,106,0
1,59,106,0
1,56,106,0
1,56,106,0
1,56,0,248
1,64,0,8
1,56,0,16
1,64,0,4
1,59,0,4
1,59,0,16
1,68,124,91
1,64,124,0
1,59,124,0
1,59,124,0
1,59,0,248
1,64,0,4
1,59,0,4
1,68,0,24
1,64,115,97
1,68,115,0
1,68,115,0
1,71,115,0
1,64,0,252
1,71,0,4
1,68,0,16
1,68,0,16
1,63,127,91
1,63,127,0
1,61,127,0
1,58,127,0
1,58,127,0
1,63,0,764
1,58,0,4
1,63,0,16
1,58,0,0
1,61,0,8
1,56,106,369
1,56,106,0
1,61,106,0
1,61,106,0
1,61,0,512
1,56,0,12
1,61,0,4
1,56,0,0
1,56,115,236
1,54,47,100
1,56,0,24
1,51,77,67
1,54,0,49
1,51,0,79
1,61,127,60
1,58,127,0
1,58,127,0
1,66,127,0
1,66,127,0
1,61,0,784
1,66,0,4
1,58,0,4
1,58,0,0
1,66,0,0
1,56,106,369
1,56,106,0
1,56,0,232
1,56,0,44
1,56,124,111
1,56,124,0
1,68,124,0
1,59,48,100
1,71,48,0
1,71,48,0
1,56,0,24
1,56,0,0
1,68,0,20
1,59,0,80
1,71,0,4
1,71,0,16
1,61,64,36
1,61,64,0
1,73,64,0
1,71,115,97
1,59,115,0
1,73,0,27
1,61,0,20
1,61,0,12
1,71,0,61
1,59,0,8
1,73,77,63
1,73,77,0
1,61,77,0
1,61,77,0
1,61,0,124
1,61,0,20
1,73,0,0
1,73,0,20
1,63,127,24
1,63,127,0
1,70,127,0
1,70,127,0
1,73,127,0
1,73,0,244
1,70,0,4
1,63,0,4
1,70,0,4
1,63,0,20
1,63,113,120
1,61,113,0
1,58,113,0
1,58,113,0
1,58,0,384
1,63,0,20
1,58,0,8
1,61,0,8
1,63,106,345
1,68,106,0
1,68,106,0
1,68,0,764
1,68,0,0
1,63,0,32
1,64,127,347
1,69,127,0
1,73,127,0
1,73,0,248
1,69,0,32
1,64,0,12
1,64,113,104
1,64,113,0
1,69,113,0
1,73,113,0
1,69,0,256
1,64,0,0
1,73,0,32
1,64,0,8
1,64,113,85
1,69,113,0
1,73,113,0
1,69,0,256
1,64,0,0
1,73,0,28
1,64,106,100
1,68,106,0
1,68,106,0
1,71,106,0
1,71,0,252
1,68,0,0
1,64,0,0
1,68,0,4
1,64,124,131
1,64,124,0
1,68,124,0
1,71,124,0
1,71,124,0
1,71,0,252
1,64,0,0
1,71,0,20
1,68,0,4
1,64,0,36
1,64,115,65
1,64,115,0
1,71,115,0
1,68,115,0
1,71,0,248
1,64,0,0
1,64,0,8
1,68,0,16
1,61,127,107
1,64,127,0
1,69,127,0
1,69,0,252
1,61,0,0
1,64,0,16
1,69,113,128
1,69,113,0
1,64,113,0
1,61,113,0
1,61,113,0
1,61,0,248
1,69,0,4
1,69,0,4
1,64,0,0
1,61,0,0
1,61,113,125
1,61,113,0
1,64,113,0
1,64,113,0
1,69,113,0
1,61,0,244
1,64,0,8
1,69,0,20
1,61,0,16
1,64,0,12
1,64,106,84
1,61,106,0
1,61,106,0
1,66,106,0
1,66,106,0
1,61,0,252
1,66,0,4
1,66,0,0
1,64,0,24
1,61,0,4
1,66,124,103
1,66,124,0
1,64,124,0
1,61,124,0
1,61,0,252
1,66,0,0
1,66,0,4
1,64,0,16
1,66,115,105
1,66,115,0
1,64,115,0
1,61,115,0
1,61,115,0
1,61,0,252
1,64,0,0
1,66,0,4
1,61,0,16
1,66,0,48
1,64,127,59
1,59,127,0
1,59,127,0
1,55,127,0
1,61,127,0
1,61,0,508
1,55,0,4
1,64,0,16
1,59,0,16
1,59,0,0
1,64,106,617
1,59,106,0
1,59,0,768
1,64,0,20
1,54,113,1132
1,56,54,100
1,54,0,44
1,56,0,124
1,54,74,19
1,59,74,0
1,61,106,97
1,56,106,0
1,59,0,31
1,54,0,0
1,54,56,69
1,59,56,0
1,61,0,24
1,56,0,20
1,56,72,47
1,54,0,37
1,59,0,0
1,51,100,15
1,56,0,64
1,59,124,80
1,59,124,0
1,54,124,0
1,51,0,12
1,61,48,88
1,56,48,0
1,54,0,20
1,59,0,20
1,59,0,16
1,59,65,33
1,54,65,0
1,61,0,39
1,56,0,12
1,59,0,77
1,54,0,0
1,56,115,60
1,51,115,0
1,51,0,256
1,56,0,28
1,61,127,95
1,59,127,0
1,55,127,0
1,52,127,0
1,52,0,500
1,61,0,0
1,59,0,28
1,55,0,20
1,66,106,613
1,61,106,0
1,58,106,0
1,58,0,376
1,66,0,8
1,61,0,12
1,56,127,747
1,51,127,0
1,51,0,764
1,56,0,40
1,68,106,357
1,63,106,0
1,59,106,0
1,56,106,0
1,59,0,252
1,68,0,0
1,56,0,4
1,63,0,28
1,71,124,103
1,68,124,0
1,63,124,0
1,59,124,0
1,63,0,248
1,71,0,4
1,59,0,16
1,68,0,16
1,75,115,93
1,71,115,0
1,71,115,0
1,68,115,0
1,63,115,0
1,68,0,256
1,71,0,12
1,75,0,0
1,71,0,0
1,63,0,16
1,71,127,95
1,73,127,0
1,76,127,0
1,79,127,0
1,76,0,504
1,79,0,8
1,71,0,0
1,73,0,40
1,68,106,609
1,64,106,0
1,61,106,0
1,68,0,504
1,61,0,24
1,64,0,16
1,63,106,1760
1,51,106,0
1,63,0,244
1,51,0,12
1,66,77,44
1,54,77,0
1,68,48,187
1,56,48,0
1,66,0,69
1,54,0,32
1,68,0,143
1,56,0,32
