track,note,velocity,time
1,36,90,1180
1,36,90,118
1,43,90,4
1,43,90,8
1,36,90,26
1,31,90,22
1,31,90,120
1,43,80,28
1,43,80,26
1,31,90,24
1,36,90,22
1,36,90,120
1,43,90,24
1,43,90,6
1,36,90,28
1,36,90,504
1,36,90,120
1,43,90,4
1,43,90,4
1,31,80,28
1,36,90,24
1,36,90,124
1,31,90,28
1,31,90,120
1,36,90,28
1,36,90,124
1,43,90,4
1,43,90,4
1,31,90,24
1,36,90,24
1,43,90,24
1,31,65,24
1,31,75,24
1,31,65,28
1,31,75,28
1,31,75,28
1,31,75,24
1,36,90,28
1,36,90,24
1,43,90,4
1,43,90,4
1,36,90,24
1,36,90,24
1,31,90,24
1,36,90,28
1,38,90,24
1,38,90,24
1,45,90,4
1,45,90,4
1,41,90,32
1,38,90,20
1,38,90,120
1,33,75,24
1,33,65,22
1,33,75,120
1,33,65,120
1,38,90,24
1,38,90,30
1,45,90,6
1,45,90,4
1,38,90,28
1,38,75,30
1,38,90,26
1,33,75,24
1,33,75,24
1,33,75,22
1,38,90,30
1,38,90,24
1,45,90,4
1,45,90,2
1,38,90,28
1,38,90,28
1,45,90,24
1,33,75,24
1,33,75,24
1,45,75,28
1,33,75,28
1,45,75,24
1,33,75,24
1,38,90,24
1,38,90,124
1,45,90,24
1,45,90,24
1,38,90,30
1,31,90,24
1,31,90,24
1,43,90,6
1,43,90,4
1,36,90,28
1,36,90,120
1,43,90,4
1,43,90,6
1,31,90,28
1,36,90,24
1,36,90,28
1,36,90,120
1,43,90,4
1,43,90,4
1,31,90,22
1,36,90,30
1,36,90,118
1,31,90,28
1,31,90,124
1,36,90,28
1,36,90,24
1,43,90,4
1,43,90,6
1,31,90,24
1,36,90,24
1,43,75,24
1,31,75,24
1,31,75,24
1,31,75,24
1,31,75,24
1,31,75,28
1,31,75,24
1,36,90,24
1,36,90,122
1,43,90,4
1,43,90,4
1,36,90,120
1,36,90,124
1,31,90,24
1,36,90,28
1,38,90,28
1,38,90,120
1,45,90,4
1,45,90,6
1,41,75,28
1,38,90,28
1,38,90,120
1,33,75,28
1,33,75,24
1,33,75,120
1,33,75,124
1,38,90,28
1,38,90,24
1,45,90,4
1,45,90,4
1,38,90,28
1,38,90,120
1,38,90,24
1,33,75,24
1,33,75,28
1,33,75,220
1,38,90,24
1,38,90,120
1,45,90,4
1,45,90,4
1,38,90,24
1,38,90,124
1,45,75,24
1,33,75,24
1,33,75,24
1,45,75,24
1,33,75,24
1,45,75,28
1,33,75,24
1,38,90,24
1,38,90,124
1,45,90,24
1,45,90,24
1,38,90,28
1,31,90,26
1,31,90,24
1,43,90,2
1,43,90,4
1,36,90,28
1,36,90,118
1,43,90,4
1,43,90,4
1,31,90,28
1,36,90,28
1,36,90,120
1,38,90,28
1,38,90,24
1,33,90,28
1,38,90,24
1,31,90,24
1,31,90,24
1,43,90,24
1,31,90,28
1,36,90,24
1,36,90,124
1,43,90,4
1,31,90,28
1,36,90,28
1,36,90,120
1,43,90,24
1,43,90,22
1,31,90,28
1,38,90,24
1,38,90,124
1,33,90,22
1,38,90,24
1,31,90,24
1,31,90,124
1,43,90,188
1,31,90,24
1,33,90,118
1,45,90,24
1,40,90,12
1,40,90,118
1,45,90,4
1,33,90,24
1,33,90,124
1,45,90,26
1,33,90,24
1,38,90,24
1,38,90,118
1,33,90,26
1,33,90,30
1,38,90,28
1,31,90,24
1,31,90,24
1,43,90,24
1,31,90,24
1,33,90,22
1,33,90,124
1,40,90,24
1,40,90,24
1,40,90,28
1,33,90,24
1,33,90,124
1,45,90,6
1,33,90,26
1,38,90,24
1,38,90,28
1,38,90,28
1,40,90,28
1,41,90,24
1,38,90,28
1,43,90,32
1,43,90,120
1,43,90,126
1,31,90,24
1,36,90,28
1,36,90,24
1,43,90,28
1,43,90,28
1,43,90,24
1,43,90,28
1,31,90,24
1,36,90,24
1,36,90,120
1,36,90,120
1,43,90,4
1,43,90,122
1,31,90,24
1,36,90,24
1,36,90,120
1,43,65,24
1,31,75,24
1,31,65,24
1,31,75,24
1,31,75,28
1,36,90,104
1,36,75,112
1,43,90,4
1,43,90,4
1,31,90,28
1,36,90,24
1,36,90,28
1,36,75,28
1,31,90,28
1,31,90,122
1,31,90,118
1,36,90,124
1,36,90,120
1,43,90,2
1,43,90,4
1,36,90,24
1,36,90,118
1,31,90,28
1,36,90,24
1,38,90,28
1,38,90,120
1,33,75,24
1,33,75,28
1,33,90,284
1,38,90,4
1,38,90,120
1,33,90,24
1,33,90,122
1,33,90,24
1,38,90,24
1,38,90,122
1,33,90,24
1,33,90,28
1,33,90,28
1,38,90,24
1,45,90,124
1,33,75,24
1,33,75,24
1,33,75,24
1,33,75,28
1,38,90,24
1,38,90,28
1,33,90,28
1,33,90,28
1,33,90,8
1,33,90,28
1,38,90,24
1,38,90,24
1,45,90,24
1,33,90,28
1,33,90,28
1,33,90,28
1,33,90,24
1,45,90,24
1,33,90,24
1,38,90,28
1,38,90,120
1,33,90,120
1,33,90,24
1,38,90,118
1,31,90,24
1,31,90,120
1,43,90,4
1,31,90,28
1,36,90,24
1,36,90,120
1,43,90,2
1,31,90,28
1,36,90,28
1,31,90,28
1,36,90,24
1,36,90,124
1,43,90,4
1,43,90,120
1,31,90,24
1,36,90,24
1,36,90,124
1,43,65,24
1,31,75,28
1,31,65,24
1,31,75,28
1,31,75,24
1,31,75,24
1,36,90,28
1,36,90,24
1,36,90,24
1,36,90,28
1,43,90,4
1,43,90,6
1,31,90,24
1,36,90,28
1,36,90,24
1,36,90,24
1,31,90,28
1,31,90,120
1,31,90,120
1,36,90,120
1,36,90,122
1,43,90,4
1,43,90,4
1,36,90,26
1,36,90,132
1,31,90,24
1,36,90,24
1,38,90,24
1,38,90,120
1,33,90,24
1,33,90,26
1,33,90,2
1,38,90,12
1,38,90,28
1,33,90,24
1,33,90,120
1,33,90,24
1,38,90,24
1,38,90,124
1,33,90,124
1,33,90,28
1,33,90,4
1,38,90,28
1,45,90,24
1,33,90,28
1,33,90,28
1,33,90,120
1,33,90,22
1,38,90,30
1,38,90,24
1,33,90,28
1,33,90,28
1,33,90,24
1,38,90,108
1,38,90,24
1,45,90,24
1,33,75,24
1,33,75,22
1,33,75,28
1,33,75,28
1,45,90,30
1,33,90,120
1,38,90,118
1,38,90,118
1,33,90,22
1,33,90,24
1,38,90,28
1,31,90,22
1,31,90,24
1,43,90,4
1,31,90,28
1,36,90,384
1,36,90,120
1,43,90,4
1,31,90,22
1,36,90,384
1,37,90,444
1,37,90,120
1,39,90,120
1,39,90,124
1,34,90,30
1,39,90,22
1,32,90,26
1,32,90,120
1,44,90,196
1,32,90,22
1,37,90,384
1,37,90,24
1,37,90,118
1,44,90,4
1,44,90,4
1,32,90,24
1,37,90,192
1,37,90,24
1,46,90,22
1,44,90,30
1,44,90,22
1,37,90,22
1,37,90,24
1,46,90,24
1,39,90,24
1,39,90,120
1,34,90,24
1,39,90,24
1,32,90,24
1,32,90,124
1,44,90,24
1,44,90,4
1,34,90,28
1,34,90,24
1,41,90,28
1,41,90,118
1,46,90,28
1,46,90,126
1,46,90,24
1,44,90,28
1,41,90,30
1,39,90,26
1,39,90,26
1,34,90,24
1,34,90,24
1,39,90,24
1,39,90,120
1,39,90,4
1,34,90,120
1,39,90,192
1,32,90,24
1,32,90,122
1,44,90,4
1,32,90,24
1,32,90,26
1,34,90,26
1,46,90,24
1,34,90,24
1,39,90,192
1,41,90,24
1,41,90,22
1,34,90,24
1,34,90,24
1,32,90,28
1,32,90,24
1,34,90,28
1,36,90,24
1,37,90,28
1,38,90,24
1,39,90,24
1,39,90,30
1,34,90,24
1,39,90,24
1,39,90,24
1,39,90,24
1,39,90,22
1,32,90,24
1,32,90,120
1,44,90,28
1,44,90,118
1,32,90,24
1,37,90,24
1,37,90,22
1,39,90,124
1,41,90,30
1,44,90,24
1,37,90,28
1,38,90,54
1,38,90,126
1,26,90,312
1,28,90,22
1,28,90,120
1,35,90,4
1,35,90,4
1,33,90,24
1,33,90,122
1,45,90,2
1,33,90,30
1,38,90,22
1,38,90,124
1,33,90,16
1,33,90,4
1,38,90,28
1,38,90,24
1,45,90,24
1,38,90,22
1,38,90,24
1,28,90,28
1,28,90,124
1,35,90,6
1,28,90,22
1,33,90,30
1,33,90,24
1,33,90,28
1,45,90,28
1,33,90,24
1,35,90,24
1,35,90,24
1,42,90,26
1,42,90,24
1,42,90,30
1,42,90,30
1,35,90,24
1,30,90,24
1,30,90,24
1,35,90,22
1,37,90,24
1,35,90,24
1,38,90,24
1,35,90,28
1,42,90,28
1,35,90,2
1,28,90,24
1,28,90,120
1,35,90,4
1,35,90,124
1,33,90,24
1,33,90,24
1,33,90,24
1,45,90,24
1,40,90,28
1,33,90,24
1,35,90,24
1,35,90,24
1,42,90,4
1,42,90,24
1,49,90,28
1,47,90,24
1,45,90,24
1,42,90,120
1,42,90,28
1,40,90,28
1,38,90,24
1,35,90,24
1,35,90,216
1,28,90,24
1,28,90,30
1,28,90,30
1,40,90,24
1,40,90,24
1,40,90,24
1,38,90,24
1,40,90,24
1,33,90,120
1,33,90,24
1,33,90,28
1,45,90,22
1,33,90,22
1,33,90,24
1,45,90,24
1,33,90,24
1,38,90,24
1,38,90,120
1,40,90,192
1,42,90,24
1,42,90,24
1,40,90,28
1,38,90,24
1,37,90,24
1,36,90,98
1,35,90,24
1,34,90,24
1,34,90,24
1,34,90,24
1,41,90,24
1,34,90,28
1,36,90,120
1,36,90,124
1,38,90,22
1,40,90,22
1,43,90,24
1,43,90,126
1,31,90,28
1,36,90,24
1,36,90,30
1,36,90,30
1,43,90,24
1,36,90,24
1,47,90,10
1,47,90,24
1,47,90,26
1,45,90,40
1,45,90,120
1,33,90,28
1,38,90,24
1,45,90,24
1,45,90,24
1,45,90,28
1,45,90,24
1,45,90,24
1,45,90,24
1,33,90,24
1,38,90,24
1,38,90,24
1,38,90,24
1,45,90,8
1,45,90,24
1,38,90,24
1,38,90,312
1,38,90,120
1,38,90,120
2,62,47,18
2,65,43,106
2,69,52,108
2,74,45,108
2,71,54,780
2,74,57,12
2,62,50,0
2,67,52,12
2,67,43,12
2,62,36,12
2,59,45,12
2,67,53,12
2,64,40,876
2,67,42,108
2,72,47,108
2,76,43,110
2,74,54,298
2,74,45,204
2,76,34,108
2,76,46,14
2,76,52,118
2,62,56,1260
2,65,46,110
2,69,50,108
2,74,50,108
2,71,50,780
2,74,41,14
2,62,29,16
2,67,24,12
2,67,45,14
2,62,49,14
2,59,45,12
2,67,53,12
2,81,49,876
2,79,48,110
2,76,48,108
2,74,49,108
2,76,42,110
2,69,49,14
2,81,50,206
2,79,50,108
2,76,32,108
2,74,43,108
2,76,42,110
2,69,53,14
2,62,54,970
2,65,49,110
2,69,51,110
2,74,57,110
2,71,49,782
2,74,24,14
2,62,50,12
2,67,50,0
2,67,50,12
2,62,45,12
2,59,47,12
2,67,50,12
2,72,50,1068
2,74,46,108
2,76,50,108
2,79,49,110
2,81,46,110
2,88,46,110
2,86,41,14
2,84,46,206
2,81,50,12
2,79,52,1160
2,77,40,12
2,79,47,108
2,81,23,10
2,79,46,108
2,77,38,12
2,74,50,108
2,69,49,12
2,67,53,588
2,65,49,8
2,67,36,12
2,72,54,12
2,72,37,300
2,63,47,16
2,66,43,110
2,70,52,104
2,75,45,108
2,72,54,780
2,75,57,12
2,63,50,12
2,68,52,12
2,68,43,12
2,63,36,12
2,60,45,12
2,68,53,12
2,65,40,876
2,68,42,108
2,73,47,110
2,77,43,108
2,75,54,300
2,75,45,204
2,77,34,108
2,77,46,12
2,77,52,110
2,63,56,1260
2,66,46,108
2,70,50,108
2,75,50,110
2,72,50,792
2,75,41,12
2,63,29,12
2,68,24,10
2,68,45,12
2,63,49,12
2,60,45,12
2,68,53,12
2,82,49,876
2,80,48,108
2,77,48,108
2,75,49,108
2,77,42,108
2,70,49,8
2,82,50,206
2,80,50,110
2,77,32,108
2,75,43,108
2,77,42,108
2,70,53,14
2,63,54,970
2,66,49,104
2,70,51,106
2,75,57,108
2,72,49,780
2,75,24,14
2,63,50,14
2,68,50,0
2,68,50,12
2,63,45,6
2,60,47,12
2,68,50,12
2,73,50,1068
2,75,46,106
2,77,50,108
2,80,49,108
2,82,46,106
2,89,46,108
2,87,41,12
2,85,46,200
2,82,50,12
2,80,52,1158
2,78,40,12
2,80,47,108
2,82,23,12
2,80,46,108
2,78,38,12
2,75,50,104
2,70,49,12
2,68,53,586
2,66,49,12
2,68,36,12
2,73,54,10
2,73,37,298
2,64,47,3946
2,67,43,108
2,71,52,108
2,76,45,108
2,73,54,778
2,76,57,12
2,64,50,12
2,69,52,14
2,69,43,12
2,64,36,14
2,61,45,12
2,69,53,12
2,66,40,878
2,69,42,108
2,74,47,108
2,78,43,108
2,76,54,296
2,76,45,204
2,78,34,108
2,78,46,12
2,78,52,108
2,64,56,1260
2,67,46,108
2,71,50,110
2,76,50,110
2,73,50,778
2,76,41,14
2,64,29,14
2,69,24,10
2,69,45,12
2,64,49,12
2,61,45,12
2,69,53,8
2,83,49,878
2,81,48,104
2,78,48,110
2,76,49,108
2,78,42,110
2,71,49,12
2,83,50,200
2,81,50,108
2,78,32,106
2,76,43,104
2,78,42,110
2,71,53,12
2,64,54,972
2,67,49,104
2,71,51,108
2,76,57,108
2,73,49,780
2,76,24,12
2,64,50,12
2,69,50,6
2,69,50,12
2,64,45,12
2,61,47,12
2,69,50,12
2,74,50,1066
2,76,46,104
2,78,50,108
2,81,49,108
2,83,46,108
2,90,46,104
2,88,41,12
2,86,46,204
2,83,50,12
2,81,52,1162
2,79,40,12
2,81,47,110
2,83,23,10
2,81,46,104
2,79,38,12
2,76,50,108
2,71,49,12
2,69,53,590
2,67,49,12
2,69,36,10
2,74,54,10
2,74,37,298
3,74,46,18
3,77,42,106
3,81,51,108
3,86,44,108
3,83,53,780
3,86,56,12
3,74,49,12
3,79,51,12
3,79,42,12
3,74,35,12
3,71,44,12
3,79,52,12
3,76,39,876
3,79,41,108
3,84,46,108
3,88,42,110
3,86,53,298
3,83,44,204
3,86,44,0
3,88,33,108
3,84,24,0
3,88,45,14
3,84,44,0
3,84,44,102
3,88,51,0
3,74,55,1256
3,77,45,110
3,81,49,108
3,86,49,108
3,83,49,780
3,86,40,14
3,74,28,12
3,79,23,10
3,79,44,14
3,74,48,14
3,71,44,12
3,79,52,12
3,93,48,876
3,91,47,110
3,88,47,108
3,86,48,108
3,88,41,110
3,81,48,14
3,93,49,202
3,91,49,108
3,88,31,108
3,86,42,108
3,88,41,110
3,81,52,14
3,74,53,974
3,77,48,110
3,81,50,110
3,86,56,110
3,83,48,782
3,86,23,14
3,74,49,12
3,79,49,0
3,79,49,12
3,74,44,12
3,71,46,12
3,79,49,12
3,84,49,1068
3,86,45,108
3,88,49,108
3,91,48,110
3,93,45,110
3,100,45,110
3,98,40,14
3,96,45,206
3,93,49,12
3,91,51,1160
3,89,39,12
3,91,46,108
3,93,22,10
3,91,45,108
3,89,37,12
3,86,49,108
3,81,48,12
3,79,52,588
3,79,35,108
3,84,53,12
3,84,36,300
3,75,46,16
3,78,42,110
3,82,51,108
3,87,44,108
3,84,53,776
3,87,56,12
3,75,49,8
3,80,51,12
3,80,42,12
3,75,35,12
3,72,44,12
3,80,52,12
3,77,39,876
3,80,41,104
3,85,46,110
3,89,42,108
3,87,53,300
3,84,44,200
3,87,44,0
3,89,33,108
3,85,24,0
3,89,45,12
3,85,44,0
3,85,44,110
3,89,51,0
3,75,55,1260
3,78,45,108
3,82,49,108
3,87,49,110
3,84,49,780
3,87,40,12
3,75,28,12
3,80,23,4
3,80,44,12
3,75,48,12
3,72,44,12
3,80,52,12
3,94,48,876
3,92,47,108
3,89,47,108
3,87,48,108
3,89,41,104
3,82,48,14
3,94,49,200
3,92,49,110
3,89,31,108
3,87,42,108
3,89,41,108
3,82,52,14
3,75,53,970
3,78,48,104
