track,note,velocity,time
0,76,109,480
0,57,70,0
0,76,70,0
0,57,0,29
0,61,75,1
0,61,0,29
0,76,0,1
0,64,68,0
0,76,109,30
0,76,0,90
0,74,74,0
0,74,0,29
0,73,62,1
0,73,0,29
0,74,81,1
0,74,0,29
0,73,85,1
0,73,0,29
0,76,94,1
0,64,0,30
0,76,0,30
0,76,91,0
0,56,96,2
0,59,80,27
0,56,0,7
0,59,0,22
0,64,97,3
0,76,0,29
0,54,109,30
0,76,102,0
0,76,0,60
0,64,0,4
0,76,109,26
0,76,0,60
0,74,69,30
0,74,0,29
0,73,71,1
0,73,0,29
0,74,86,1
0,74,0,29
0,73,73,1
0,73,0,29
0,69,96,1
0,69,0,29
0,54,0,1
0,69,96,2
0,71,80,1
0,71,0,29
0,72,73,1
0,72,0,29
0,74,68,1
0,69,64,18
0,48,90,1
0,76,91,0
0,55,55,1
0,55,0,29
0,76,0,1
0,60,87,0
0,74,71,0
0,67,82,22
0,69,0,1
0,74,0,6
0,74,104,1
0,74,0,60
0,60,0,0
0,72,97,0
0,67,0,28
0,64,79,0
0,72,0,32
0,71,92,0
0,55,95,1
0,71,100,0
0,59,57,1
0,59,0,29
0,71,0,1
0,62,84,0
0,71,97,30
0,71,0,29
0,64,0,26
0,62,88,0
0,71,87,5
0,71,0,29
0,62,0,1
0,62,0,25
0,71,76,5
0,62,90,21
0,71,0,8
0,57,84,1
0,69,96,0
0,61,85,21
0,62,0,5
0,57,0,3
0,61,74,1
0,61,0,29
0,64,78,1
0,69,0,30
0,71,91,0
0,71,0,60
0,69,85,0
0,64,0,60
0,64,77,30
0,64,0,29
0,69,0,61
0,61,0,67
0,62,72,64
0,76,0,2
0,38,75,1
0,50,63,0
0,62,83,0
0,66,72,0
0,69,79,0
0,70,63,0
0,36,79,0
0,70,54,1
0,70,0,14
0,69,78,13
0,66,0,3
0,69,0,0
0,62,66,0
0,70,54,0
0,62,0,1
0,70,0,13
0,69,0,3
0,66,65,13
0,69,80,0
0,70,54,0
0,70,0,14
0,66,0,15
0,69,83,1
0,70,56,0
0,70,0,14
0,38,0,16
0,62,0,0
0,50,0,0
0,66,76,0
0,36,0,0
0,70,54,0
0,70,0,14
0,70,55,16
0,62,66,6
0,69,0,2
0,70,0,6
0,69,0,16
0,70,57,0
0,36,96,0
0,62,0,2
0,69,61,8
0,70,0,4
0,50,64,16
0,36,0,0
0,36,109,0
0,70,62,0
0,70,0,14
0,50,0,15
0,70,55,1
0,70,0,14
0,54,54,16
0,36,0,0
0,70,56,0
0,68,75,5
0,69,0,3
0,70,0,6
0,68,0,5
0,54,0,10
0,57,71,1
0,70,56,0
0,68,75,4
0,70,0,10
0,57,0,15
0,66,0,1
0,62,67,0
0,37,102,0
0,70,56,0
0,70,0,14
0,66,61,16
0,37,0,0
0,70,52,0
0,70,0,14
0,62,0,16
0,70,54,0
0,64,56,2
0,68,0,2
0,70,0,10
0,64,0,11
0,66,0,5
0,70,51,0
0,64,80,5
0,70,0,9
0,69,85,16
0,64,81,0
0,70,55,0
0,36,85,0
0,70,0,14
0,45,53,16
0,70,52,0
0,70,0,14
0,64,0,14
0,45,0,1
0,57,79,1
0,70,50,0
0,62,65,1
0,70,0,13
0,62,0,5
0,64,0,11
0,69,0,0
0,61,64,0
0,70,52,0
0,62,90,1
0,70,0,13
0,64,81,16
0,70,54,0
0,70,0,14
0,62,0,15
0,57,0,1
0,52,74,0
0,36,0,0
0,70,50,0
0,64,77,3
0,70,0,11
0,70,52,16
0,70,0,14
0,64,0,6
0,36,97,10
0,70,50,0
0,64,81,3
0,70,0,11
0,61,0,16
0,57,71,0
0,36,0,0
0,36,109,0
0,70,51,0
0,64,0,3
0,61,85,3
0,70,0,8
0,36,0,16
0,70,50,0
0,70,0,14
0,64,0,16
0,61,54,0
0,70,50,0
0,70,0,14
0,61,0,15
0,52,0,1
0,64,77,0
0,70,51,0
0,70,0,14
0,64,0,15
0,57,0,1
0,69,68,0
0,37,96,0
0,70,51,0
0,70,0,14
0,37,0,16
0,70,50,0
0,70,0,14
0,69,0,16
0,66,58,0
0,70,50,0
0,61,0,9
0,70,0,5
0,70,51,1
0,62,77,2
0,50,85,4
0,62,87,0
0,69,87,0
0,70,50,0
0,36,96,0
0,70,50,1
0,70,0,14
0,62,0,7
0,64,71,5
0,54,56,4
0,70,50,0
0,64,0,12
0,70,0,2
0,64,84,13
0,54,0,2
0,62,0,1
0,57,76,0
0,70,50,0
0,70,0,14
0,69,0,16
0,36,0,0
0,70,50,0
0,70,0,14
0,70,50,16
0,70,0,14
0,64,0,10
0,69,77,1
0,66,0,5
0,62,57,0
0,70,50,0
0,70,0,14
0,69,0,8
0,68,87,5
0,66,57,3
0,70,50,0
0,36,102,0
0,70,0,14
0,57,0,16
0,57,72,0
0,36,0,0
0,36,109,0
0,70,50,0
0,62,0,30
0,36,0,0
0,70,54,0
0,70,0,14
0,70,0,1
0,68,0,5
0,69,69,4
0,66,0,6
0,62,54,0
0,70,52,0
0,70,0,14
0,69,0,14
0,64,81,0
0,57,0,2
0,66,61,0
0,70,51,0
0,70,0,14
0,70,53,16
0,37,102,0
0,70,0,14
0,64,0,7
0,66,0,9
0,62,0,0
0,69,73,0
0,37,0,0
0,70,52,0
0,64,80,2
0,70,0,12
0,70,52,16
0,70,0,14
0,69,0,16
0,62,57,0
0,70,52,0
0,70,0,14
0,64,0,12
0,62,0,3
0,69,88,1
0,45,87,0
0,64,89,0
0,36,91,0
0,70,55,0
0,69,79,0
0,70,54,18
0,70,0,14
0,69,0,12
0,64,0,4
0,69,0,0
0,61,59,0
0,70,54,0
0,69,60,3
0,70,0,11
0,70,0,1
0,69,0,6
0,64,92,9
0,69,86,0
0,68,85,0
0,70,53,0
0,69,76,3
0,70,0,11
0,36,0,16
0,70,50,0
0,70,54,30
0,70,0,14
0,70,0,1
0,69,0,10
0,71,70,2
0,57,82,3
0,70,54,0
0,70,0,14
0,71,0,6
0,36,102,10
0,70,52,0
0,70,0,14
0,73,94,15
0,36,0,1
0,70,51,0
0,36,109,0
0,70,0,14
0,71,66,9
0,73,0,6
0,68,0,1
0,69,0,0
0,61,0,0
0,36,0,0
0,70,54,0
0,70,0,14
0,71,0,12
0,69,84,0
0,64,0,4
0,61,56,0
0,70,51,0
0,70,0,14
0,61,0,15
0,70,51,1
0,70,0,14
0,69,87,16
0,37,104,0
0,70,53,0
0,70,0,14
0,45,0,16
0,57,0,0
0,37,0,0
0,70,53,0
0,70,0,14
0,69,0,16
0,66,68,0
0,70,51,0
0,70,0,14
0,66,0,15
0,70,55,1
0,70,0,14
0,69,0,3
0,62,84,1
0,50,83,2
0,62,83,0
0,66,75,0
0,69,83,0
0,70,56,0
0,36,104,0
0,70,56,1
0,70,0,14
0,69,0,16
0,66,0,0
0,62,57,0
0,62,0,0
0,70,55,0
0,64,79,2
0,70,0,12
0,64,0,6
0,66,57,10
0,70,55,0
0,64,87,2
0,70,0,12
0,36,0,16
0,70,52,0
0,70,0,14
0,70,53,16
0,70,0,14
0,64,0,10
0,69,70,3
0,66,0,3
0,69,76,0
0,70,55,0
0,70,0,14
0,69,0,4
0,69,80,11
0,50,0,1
0,36,102,0
0,70,52,0
0,70,0,14
0,50,69,16
0,36,0,0
0,36,111,0
0,70,54,0
0,70,0,14
0,62,0,16
0,36,0,0
0,70,50,0
0,70,0,14
0,68,73,11
0,69,0,1
0,57,64,4
0,70,54,0
0,70,0,14
0,68,0,11
0,50,0,5
0,70,54,0
0,69,81,1
0,70,0,13
0,69,0,16
0,62,62,0
0,70,53,0
0,37,104,0
0,70,0,14
0,57,0,16
0,37,0,0
0,70,54,0
0,69,0,5
0,71,80,2
0,70,0,7
0,62,0,16
0,66,69,0
0,70,54,0
0,70,0,14
0,66,0,15
0,70,54,1
0,70,0,14
0,71,0,10
0,73,78,2
0,54,92,3
0,69,88,0
0,61,81,0
0,64,92,0
0,66,79,0
0,36,106,0
0,70,56,0
0,70,54,1
0,70,0,14
0,64,0,16
0,66,0,0
0,69,0,0
0,36,0,0
0,70,52,0
0,71,65,1
0,73,0,8
0,70,0,5
0,71,0,4
0,61,69,12
0,70,53,0
0,71,82,3
0,70,0,11
0,61,0,15
0,64,83,1
0,70,52,0
0,70,0,14
0,70,53,16
0,69,62,4
0,71,0,5
0,70,0,5
0,69,0,10
0,69,85,6
0,61,56,0
0,70,53,0
0,69,80,3
0,70,0,11
0,54,0,16
0,66,50,0
0,70,55,0
0,36,100,0
0,70,0,14
0,42,62,16
0,61,50,0
0,66,50,0
0,64,53,0
0,69,53,0
0,36,0,0
0,36,109,0
0,70,55,0
0,70,0,14
0,36,0,16
0,70,54,0
0,70,0,14
0,42,0,16
0,61,0,0
0,66,0,0
0,54,51,0
0,70,53,0
0,70,0,14
0,69,0,16
0,70,56,0
0,70,0,14
0,64,0,16
0,61,65,0
0,70,56,0
0,37,111,0
0,70,0,14
0,61,0,15
0,37,0,1
0,70,54,0
0,70,0,14
0,54,0,16
0,64,78,0
0,70,57,0
0,70,0,14
0,64,0,15
0,70,56,1
0,73,80,2
0,55,81,2
0,43,90,0
0,62,97,0
0,67,94,0
0,71,95,0
0,62,62,0
0,67,72,0
0,71,69,0
0,36,109,0
0,70,57,0
0,70,56,1
0,70,0,14
0,71,71,10
0,73,0,5
0,55,0,1
0,43,80,0
0,36,0,0
0,70,54,0
0,70,0,14
0,71,0,4
0,71,80,9
0,70,57,3
0,70,0,14
0,55,87,16
0,70,57,0
0,70,0,14
0,67,0,16
0,62,0,0
0,70,56,0
0,69,72,4
0,71,0,1
0,70,0,9
0,71,0,16
0,62,62,0
0,70,56,0
0,69,0,14
0,70,0,0
0,69,79,16
0,36,97,0
0,70,56,0
0,70,0,14
0,67,83,16
0,36,0,0
0,70,56,0
0,36,111,0
0,68,77,14
0,43,0,2
0,36,0,0
0,70,55,0
0,69,0,1
0,70,0,13
0,55,0,16
0,43,77,0
0,70,55,0
0,70,0,14
0,68,0,11
0,69,79,2
0,70,57,3
0,70,0,14
0,62,0,16
0,55,90,0
0,71,0,0
0,70,57,0
0,37,118,0
0,70,0,14
0,71,79,12
0,69,0,1
0,43,0,3
0,37,0,0
0,70,54,0
0,70,0,14
0,55,0,16
0,67,0,0
0,62,70,0
0,70,57,0
0,70,0,14
0,62,0,15
0,70,56,1
0,70,0,14
0,71,0,7
0,73,80,3
0,42,80,5
0,69,88,0
0,54,109,0
0,61,96,0
0,66,92,0
0,64,97,0
0,67,0,0
0,62,0,0
0,69,69,0
0,64,76,0
0,61,57,0
0,70,57,0
0,36,111,0
0,70,56,1
0,70,0,14
0,73,0,12
0,71,72,3
0,66,0,1
0,61,70,0
0,36,0,0
0,70,55,0
0,70,0,14
0,71,0,2
0,61,0,13
0,71,83,0
0,70,55,1
0,70,0,14
0,61,0,15
0,64,0,0
0,69,0,0
0,61,88,1
0,64,97,0
0,66,89,0
0,69,94,0
0,66,50,0
0,70,55,0
0,70,0,14
0,69,0,15
0,61,0,0
0,66,0,0
0,54,0,1
0,42,0,0
0,70,56,0
0,69,63,2
0,71,0,4
0,70,0,8
0,64,0,16
0,42,52,0
0,54,93,0
0,70,56,0
0,69,0,14
0,70,0,0
0,54,0,15
0,42,0,0
0,36,100,1
0,70,55,0
0,64,90,1
0,68,116,0
0,52,104,0
0,71,113,0
0,40,93,0
0,64,80,0
0,68,58,0
0,71,78,0
0,36,0,0
0,36,113,0
0,70,57,0
0,69,94,3
0,70,57,0
0,70,0,14
0,71,0,16
0,68,0,0
0,64,66,0
0,70,57,0
0,37,97,0
0,69,0,1
0,68,76,1
0,70,0,12
0,37,0,16
0,70,57,0
0,70,0,14
0,68,0,15
0,71,0,0
0,64,0,1
0,64,94,0
0,68,111,0
0,71,109,0
0,69,85,0
0,70,57,0
0,43,102,0
0,70,0,14
0,71,0,15
0,68,0,0
0,52,0,1
0,43,0,0
0,45,94,0
0,70,56,0
0,70,0,14
0,69,0,9
0,64,0,7
0,40,0,0
0,52,90,0
0,69,90,0
0,45,0,0
0,41,93,0
0,70,57,0
0,70,0,14
0,52,0,15
0,41,0,1
0,70,55,0
0,43,91,0
0,45,111,16
0,69,96,0
0,45,92,0
0,64,116,0
0,61,104,0
0,57,111,0
0,64,106,0
0,68,0,0
0,64,0,0
0,61,84,0
0,69,84,0
0,64,94,0
0,43,0,0
0,70,58,0
0,36,111,0
0,70,55,1
0,70,0,14
0,64,0,16
0,69,0,0
0,61,58,0
0,64,0,0
0,70,54,0
0,70,0,14
0,64,111,16
0,70,57,0
0,70,0,14
0,64,85,16
0,36,0,0
0,70,55,0
0,70,0,14
0,45,0,16
0,64,0,0
0,70,55,0
0,69,0,6
0,70,0,8
0,57,0,16
0,45,79,0
0,62,109,0
0,70,55,0
0,70,0,14
0,62,0,15
0,61,0,1
0,57,76,0
0,61,96,0
0,36,100,0
0,70,54,0
0,70,0,14
0,61,0,15
0,64,0,1
0,61,80,0
0,62,97,0
0,64,0,0
0,69,0,0
0,61,0,0
0,36,0,0
0,36,109,0
0,70,55,0
0,70,0,14
0,62,0,15
0,61,102,1
0,36,0,0
0,70,53,0
0,70,0,14
0,61,0,15
0,61,0,1
0,57,0,0
0,45,0,0
0,64,83,0
0,64,109,0
0,70,54,0
0,70,0,14
0,64,0,15
0,45,0,1
0,70,55,0
0,44,111,10
0,56,93,0
0,44,90,0
0,68,106,0
0,71,93,0
0,64,95,0
0,73,96,0
0,68,80,0
0,64,87,0
0,71,87,0
0,70,56,0
0,37,116,0
0,70,52,0
0,71,67,4
0,70,0,5
0,68,0,16
0,56,0,0
0,44,0,0
0,71,0,0
0,64,71,0
0,64,0,0
0,70,55,0
0,73,0,5
0,69,81,3
0,71,0,1
0,70,0,5
0,64,0,15
0,44,0,1
0,70,52,0
0,42,109,1
0,42,83,0
0,69,87,0
0,54,109,0
0,61,92,0
0,66,90,0
0,64,96,0
0,64,109,0
0,66,74,0
0,69,85,0
0,64,93,0
0,61,77,0
0,70,52,0
0,36,111,0
0,69,65,6
0,64,0,9
0,69,0,0
0,61,0,0
0,36,0,1
0,70,52,0
0,70,0,14
0,66,0,16
0,61,65,0
0,64,0,0
0,70,50,0
0,70,0,14
0,64,109,16
0,70,51,0
0,70,0,14
0,61,0,15
0,66,0,0
0,69,0,0
0,64,0,0
0,61,0,1
0,42,0,0
0,61,67,0
0,64,94,0
0,66,82,0
0,69,85,0
0,70,51,0
0,70,0,14
0,54,0,16
0,70,51,0
0,70,0,14
0,69,0,2
0,42,70,14
0,64,0,0
0,62,104,0
0,70,54,0
0,70,0,14
0,42,0,15
0,62,0,0
0,69,0,1
0,61,0,0
0,64,0,0
0,54,85,0
0,61,87,0
0,70,52,0
0,36,104,0
0,70,0,14
0,61,0,15
0,66,0,1
0,61,74,0
0,62,100,0
0,36,0,0
0,36,111,0
0,70,55,0
0,70,0,14
0,62,0,15
0,61,96,1
0,36,0,0
0,70,54,0
0,70,0,14
0,61,0,15
0,64,82,1
0,71,89,0
0,57,104,0
0,70,51,0
0,70,0,14
0,57,0,15
0,42,0,1
0,70,52,0
0,42,106,2
0,54,0,0
0,42,75,0
0,57,102,0
0,70,54,0
0,37,111,0
0,70,0,14
0,42,0,15
0,57,0,0
0,64,0,1
0,61,0,0
0,59,87,0
0,60,82,0
0,37,0,0
0,70,51,0
0,70,0,14
0,71,0,12
0,69,78,0
0,60,0,3
0,59,0,0
0,61,67,1
0,60,104,0
0,70,53,0
0,70,0,14
0,61,0,15
0,60,0,0
0,42,0,1
0,62,97,0
0,70,54,0
0,70,0,14
0,36,109,1
0,36,87,0
0,48,94,0
0,60,96,0
0,64,106,0
0,67,100,0
0,64,102,0
0,67,59,0
0,60,66,0
0,64,62,0
0,36,111,0
0,70,54,0
0,70,54,0
0,70,0,14
0,64,0,16
0,36,0,0
0,48,0,0
0,67,0,0
0,36,83,0
0,64,0,0
0,62,100,0
0,70,53,0
