track,note,velocity,time
1,64,104,0
1,67,104,0
1,72,94,0
1,69,104,0
1,67,94,114
1,69,104,0
1,64,104,0
1,72,94,0
1,69,86,138
1,64,94,0
1,67,86,0
1,72,94,0
1,69,94,136
1,64,94,0
1,67,86,0
1,72,104,0
1,69,94,138
1,64,94,0
1,72,94,0
1,67,86,0
1,69,94,138
1,64,94,0
1,67,86,0
1,72,94,0
1,72,94,141
1,64,94,0
1,69,94,0
1,67,79,0
1,67,73,142
1,64,86,0
1,69,94,0
1,72,94,0
1,65,79,138
1,67,86,0
1,74,86,0
1,70,94,0
1,67,94,129
1,74,94,0
1,70,94,0
1,65,86,0
1,74,94,138
1,65,94,0
1,67,94,0
1,70,115,0
1,65,86,140
1,67,86,0
1,74,86,0
1,70,94,0
1,65,86,137
1,67,86,0
1,74,86,0
1,70,104,0
1,65,86,138
1,74,94,0
1,67,86,0
1,70,104,0
1,74,104,140
1,67,86,0
1,65,86,0
1,70,104,0
1,70,104,136
1,74,104,0
1,65,94,0
1,67,104,0
1,64,104,139
1,67,104,0
1,72,94,0
1,69,104,0
1,67,94,114
1,69,104,0
1,64,104,0
1,72,94,0
1,69,86,138
1,64,94,0
1,67,86,0
1,72,94,0
1,69,94,136
1,64,94,0
1,67,86,0
1,72,104,0
1,69,94,138
1,64,94,0
1,72,94,0
1,67,86,0
1,69,94,138
1,64,94,0
1,67,86,0
1,72,94,0
1,72,94,141
1,64,94,0
1,69,94,0
1,67,79,0
1,67,73,142
1,64,86,0
1,69,94,0
1,72,94,0
1,65,79,138
1,67,86,0
1,74,86,0
1,70,94,0
1,67,94,129
1,74,94,0
1,70,94,0
1,65,86,0
1,74,94,138
1,65,94,0
1,67,94,0
1,70,115,0
1,65,86,140
1,67,86,0
1,74,86,0
1,70,94,0
1,65,86,137
1,67,86,0
1,74,86,0
1,70,104,0
1,65,86,138
1,74,94,0
1,67,86,0
1,70,104,0
1,74,104,140
1,67,86,0
1,65,86,0
1,70,104,0
1,70,104,136
1,74,104,0
1,65,94,0
1,67,104,0
1,64,104,0
1,67,104,0
1,72,94,0
1,69,104,0
1,67,94,114
1,69,104,0
1,64,104,0
1,72,94,0
1,69,86,138
1,64,94,0
1,67,86,0
1,72,94,0
1,69,94,136
1,64,94,0
1,67,86,0
1,72,104,0
1,69,94,138
1,64,94,0
1,72,94,0
1,67,86,0
1,69,94,138
1,64,94,0
1,67,86,0
1,72,94,0
1,72,94,141
1,64,94,0
1,69,94,0
1,67,79,0
1,67,73,142
1,64,86,0
1,69,94,0
1,72,94,0
1,65,79,138
1,67,86,0
1,74,86,0
1,70,94,0
1,67,94,129
1,74,94,0
1,70,94,0
1,65,86,0
1,74,94,138
1,65,94,0
1,67,94,0
1,70,115,0
1,65,86,140
1,67,86,0
1,74,86,0
1,70,94,0
1,65,86,137
1,67,86,0
1,74,86,0
1,70,104,0
1,65,86,138
1,74,94,0
1,67,86,0
1,70,104,0
1,74,104,140
1,67,86,0
1,65,86,0
1,70,104,0
1,70,104,136
1,74,104,0
1,65,94,0
1,67,104,0
1,64,104,139
1,67,104,0
1,72,94,0
1,69,104,0
1,67,94,114
1,69,104,0
1,64,104,0
1,72,94,0
1,69,86,138
1,64,94,0
1,67,86,0
1,72,94,0
1,69,94,136
1,64,94,0
1,67,86,0
1,72,104,0
1,69,94,138
1,64,94,0
1,72,94,0
1,67,86,0
1,69,94,138
1,64,94,0
1,67,86,0
1,72,94,0
1,72,94,141
1,64,94,0
1,69,94,0
1,67,79,0
1,67,73,142
1,64,86,0
1,69,94,0
1,72,94,0
1,65,79,138
1,67,86,0
1,74,86,0
1,70,94,0
1,67,94,129
1,74,94,0
1,70,94,0
1,65,86,0
1,74,94,138
1,65,94,0
1,67,94,0
1,70,115,0
1,65,86,140
1,67,86,0
1,74,86,0
1,70,94,0
1,65,86,137
1,67,86,0
1,74,86,0
1,70,104,0
1,65,86,138
1,74,94,0
1,67,86,0
1,70,104,0
1,74,104,140
1,67,86,0
1,65,86,0
1,70,104,0
1,70,104,136
1,74,104,0
1,65,94,0
1,67,104,0
1,64,104,139
1,67,104,0
1,72,94,0
1,69,104,0
1,67,94,114
1,69,104,0
1,64,104,0
1,72,94,0
1,69,86,138
1,64,94,0
1,67,86,0
1,72,94,0
1,69,94,136
1,64,94,0
1,67,86,0
1,72,104,0
1,69,94,138
1,64,94,0
1,72,94,0
1,67,86,0
1,69,94,138
1,64,94,0
1,67,86,0
1,72,94,0
1,72,94,141
1,64,94,0
1,69,94,0
1,67,79,0
1,67,73,142
1,64,86,0
1,69,94,0
1,72,94,0
1,65,79,138
1,67,86,0
1,74,86,0
1,70,94,0
1,67,94,129
1,74,94,0
1,70,94,0
1,65,86,0
1,74,94,138
1,65,94,0
1,67,94,0
1,70,115,0
1,65,86,140
1,67,86,0
1,74,86,0
1,70,94,0
1,65,86,137
1,67,86,0
1,74,86,0
1,70,104,0
1,65,86,138
1,74,94,0
1,67,86,0
1,70,104,0
1,74,104,140
1,67,86,0
1,65,86,0
1,70,104,0
1,70,104,136
1,74,104,0
1,65,94,0
1,67,104,0
1,64,104,139
1,67,104,0
1,72,94,0
1,69,104,0
1,67,94,114
1,69,104,0
1,64,104,0
1,72,94,0
1,69,86,138
1,64,94,0
1,67,86,0
1,72,94,0
1,69,94,136
1,64,94,0
1,67,86,0
1,72,104,0
1,69,94,138
1,64,94,0
1,72,94,0
1,67,86,0
1,69,94,138
1,64,94,0
1,67,86,0
1,72,94,0
1,72,94,141
1,64,94,0
1,69,94,0
1,67,79,0
1,67,73,142
1,64,86,0
1,69,94,0
1,72,94,0
1,65,79,138
1,67,86,0
1,74,86,0
1,70,94,0
1,67,94,129
1,74,94,0
1,70,94,0
1,65,86,0
1,74,94,138
1,65,94,0
1,67,94,0
1,70,115,0
1,65,86,140
1,67,86,0
1,74,86,0
1,70,94,0
1,65,86,137
1,67,86,0
1,74,86,0
1,70,104,0
1,65,86,138
1,74,94,0
1,67,86,0
1,70,104,0
1,74,104,140
1,67,86,0
1,65,86,0
1,70,104,0
1,70,104,136
1,74,104,0
1,65,94,0
1,67,104,0
1,68,115,0
1,60,115,0
1,63,115,0
1,67,104,25
1,65,115,24
1,58,104,140
1,63,104,0
1,67,104,0
1,58,94,100
1,63,104,0
1,56,104,2
1,60,104,0
1,60,115,13
1,56,115,0
1,61,104,39
1,58,94,0
1,60,127,5
1,63,104,0
1,60,115,16
1,68,104,0
1,63,115,0
1,67,115,3
1,65,115,53
1,67,115,3
1,63,104,0
1,58,115,0
1,58,104,178
1,63,104,0
1,56,115,6
1,60,115,0
1,58,86,122
1,60,94,11
1,63,86,4
1,65,104,92
1,63,104,259
1,64,104,0
1,67,104,0
1,72,94,0
1,69,104,0
1,67,94,114
1,69,104,0
1,64,104,0
1,72,94,0
1,69,86,138
1,64,94,0
1,67,86,0
1,72,94,0
1,69,94,136
1,64,94,0
1,67,86,0
1,72,104,0
1,69,94,138
1,64,94,0
1,72,94,0
1,67,86,0
1,69,94,138
1,64,94,0
1,67,86,0
1,72,94,0
1,72,94,141
1,64,94,0
1,69,94,0
1,67,79,0
1,67,73,142
1,64,86,0
1,69,94,0
1,72,94,0
1,65,79,138
1,67,86,0
1,74,86,0
1,70,94,0
1,67,94,129
1,74,94,0
1,70,94,0
1,65,86,0
1,74,94,138
1,65,94,0
1,67,94,0
1,70,115,0
1,65,86,140
1,67,86,0
1,74,86,0
1,70,94,0
1,65,86,137
1,67,86,0
1,74,86,0
1,70,104,0
1,65,86,138
1,74,94,0
1,67,86,0
1,70,104,0
1,74,104,140
1,67,86,0
1,65,86,0
1,70,104,0
1,70,104,136
1,74,104,0
1,65,94,0
1,67,104,0
1,64,104,139
1,67,104,0
1,72,94,0
1,69,104,0
1,67,94,114
1,69,104,0
1,64,104,0
1,72,94,0
1,69,86,138
1,64,94,0
1,67,86,0
1,72,94,0
1,69,94,136
1,64,94,0
1,67,86,0
1,72,104,0
1,69,94,138
1,64,94,0
1,72,94,0
1,67,86,0
1,69,94,138
1,64,94,0
1,67,86,0
1,72,94,0
1,72,94,141
1,64,94,0
1,69,94,0
1,67,79,0
1,67,73,142
1,64,86,0
1,69,94,0
1,72,94,0
1,65,79,138
1,67,86,0
1,74,86,0
1,70,94,0
1,67,94,129
1,74,94,0
1,70,94,0
1,65,86,0
1,74,94,138
1,65,94,0
1,67,94,0
1,70,115,0
1,65,86,140
1,67,86,0
1,74,86,0
1,70,94,0
1,65,86,137
1,67,86,0
1,74,86,0
1,70,104,0
1,65,86,138
1,74,94,0
1,67,86,0
1,70,104,0
1,74,104,140
1,67,86,0
1,65,86,0
1,70,104,0
1,70,104,136
1,74,104,0
1,65,94,0
1,67,104,0
1,64,104,139
1,67,104,0
1,72,94,0
1,69,104,0
1,67,94,114
1,69,104,0
1,64,104,0
1,72,94,0
1,69,86,138
1,64,94,0
1,67,86,0
1,72,94,0
1,69,94,136
1,64,94,0
1,67,86,0
1,72,104,0
1,69,94,138
1,64,94,0
1,72,94,0
1,67,86,0
1,69,94,138
1,64,94,0
1,67,86,0
1,72,94,0
1,72,94,141
1,64,94,0
1,69,94,0
1,67,79,0
1,67,73,142
1,64,86,0
1,69,94,0
1,72,94,0
1,65,79,138
1,67,86,0
1,74,86,0
1,70,94,0
1,67,94,129
1,74,94,0
1,70,94,0
1,65,86,0
1,74,94,138
1,65,94,0
1,67,94,0
1,70,115,0
1,65,86,140
1,67,86,0
1,74,86,0
1,70,94,0
1,65,86,137
1,67,86,0
1,74,86,0
1,70,104,0
1,65,86,138
1,74,94,0
1,67,86,0
1,70,104,0
1,74,104,140
1,67,86,0
1,65,86,0
1,70,104,0
1,70,104,136
1,74,104,0
1,65,94,0
1,67,104,0
1,64,104,139
1,67,104,0
1,72,94,0
1,69,104,0
1,67,94,114
1,69,104,0
1,64,104,0
1,72,94,0
1,69,86,138
1,64,94,0
1,67,86,0
1,72,94,0
1,69,94,136
1,64,94,0
1,67,86,0
1,72,104,0
1,69,94,138
1,64,94,0
1,72,94,0
1,67,86,0
1,69,94,138
1,64,94,0
1,67,86,0
1,72,94,0
1,72,94,141
1,64,94,0
1,69,94,0
1,67,79,0
1,67,73,142
1,64,86,0
1,69,94,0
1,72,94,0
1,65,79,138
1,67,86,0
1,74,86,0
1,70,94,0
1,67,94,129
1,74,94,0
1,70,94,0
1,65,86,0
1,74,94,138
1,65,94,0
1,67,94,0
1,70,115,0
1,65,86,140
1,67,86,0
1,74,86,0
1,70,94,0
1,65,86,137
1,67,86,0
1,74,86,0
1,70,104,0
1,65,86,138
1,74,94,0
1,67,86,0
1,70,104,0
1,74,104,140
1,67,86,0
1,65,86,0
1,70,104,0
1,70,104,136
1,74,104,0
1,65,94,0
1,67,104,0
1,68,115,0
1,60,115,0
1,63,115,0
1,67,104,25
1,65,115,24
1,58,104,140
1,63,104,0
1,67,104,0
1,58,94,100
1,63,104,0
1,56,104,2
1,60,104,0
1,60,115,13
1,56,115,0
1,61,104,39
1,58,94,0
1,60,127,5
1,63,104,0
1,63,127,16
1,68,115,0
1,60,115,0
1,67,115,33
1,65,104,0
1,63,104,85
1,67,115,0
1,58,104,0
1,58,94,114
1,63,115,0
1,56,104,20
1,60,115,0
1,63,104,86
1,68,94,148
1,60,104,0
1,56,104,0
1,64,104,0
1,67,104,0
1,72,94,0
1,69,104,0
1,67,94,114
1,69,104,0
1,64,104,0
1,72,94,0
1,69,86,138
1,64,94,0
1,67,86,0
1,72,94,0
1,69,94,136
1,64,94,0
1,67,86,0
1,72,104,0
1,69,94,138
1,64,94,0
1,72,94,0
1,67,86,0
1,69,94,138
1,64,94,0
1,67,86,0
1,72,94,0
1,72,94,141
1,64,94,0
1,69,94,0
1,67,79,0
1,67,73,142
1,64,86,0
1,69,94,0
1,72,94,0
1,65,79,138
1,67,86,0
1,74,86,0
1,70,94,0
1,67,94,129
1,74,94,0
1,70,94,0
1,65,86,0
1,74,94,138
1,65,94,0
1,67,94,0
1,70,115,0
1,65,86,140
1,67,86,0
1,74,86,0
1,70,94,0
1,84,104,41
1,65,86,26
1,67,86,0
1,74,86,0
1,70,104,0
1,81,86,0
1,65,86,138
1,74,94,0
1,67,86,0
1,70,104,0
1,77,94,0
1,74,104,140
1,67,86,0
1,65,86,0
1,70,104,0
1,77,104,0
1,70,104,102
1,74,104,0
1,65,94,0
1,67,104,0
1,74,104,0
1,64,104,99
1,67,104,0
1,72,94,0
1,69,104,0
1,74,94,0
1,76,85,18
1,67,94,96
1,69,104,0
1,64,104,0
1,72,94,0
1,72,86,0
1,69,86,138
1,64,94,0
1,67,86,0
1,72,94,0
1,69,94,136
1,64,94,0
1,67,86,0
1,72,104,0
1,69,94,110
1,64,94,0
1,72,94,0
1,67,86,0
1,69,94,138
1,64,94,0
1,67,86,0
1,72,94,0
1,72,94,141
1,64,94,0
1,69,94,0
1,67,79,0
1,74,104,0
1,76,79,5
1,67,73,136
1,64,86,0
1,69,94,0
1,72,94,0
1,65,79,53
1,67,86,0
1,74,86,0
1,70,94,0
1,67,94,129
1,74,94,0
1,70,94,0
1,65,86,0
1,74,94,138
1,65,94,0
1,67,94,0
1,70,115,0
1,65,86,140
1,67,86,0
1,74,86,0
1,70,94,0
1,65,86,137
1,67,86,0
1,74,86,0
1,70,104,0
1,65,86,138
1,74,94,0
1,67,86,0
1,70,104,0
1,74,104,140
1,67,86,0
1,65,86,0
1,70,104,0
1,70,104,136
1,74,104,0
1,65,94,0
1,67,104,0
1,64,104,139
1,67,104,0
1,72,94,0
1,69,104,0
1,67,94,114
1,69,104,0
1,64,104,0
1,72,94,0
1,69,86,138
1,64,94,0
1,67,86,0
1,72,94,0
1,69,94,136
1,64,94,0
1,67,86,0
1,72,104,0
1,69,94,138
1,64,94,0
1,72,94,0
1,67,86,0
1,55,79,42
1,60,104,0
1,69,94,96
1,64,94,0
1,67,86,0
1,72,94,0
1,57,86,0
1,62,94,0
1,60,104,45
1,65,94,0
1,55,79,0
1,72,94,73
1,64,94,0
1,69,94,0
1,67,79,0
1,67,73,142
1,64,86,0
1,69,94,0
1,72,94,0
1,65,79,138
1,67,86,0
1,74,86,0
1,70,94,0
1,67,94,47
1,74,94,0
1,70,94,0
1,65,86,0
1,74,94,138
1,65,94,0
1,67,94,0
1,70,115,0
1,65,86,140
1,67,86,0
1,74,86,0
1,70,94,0
1,65,86,137
1,67,86,0
1,74,86,0
1,70,104,0
1,65,86,138
1,74,94,0
1,67,86,0
1,70,104,0
1,55,36,44
1,74,104,80
1,67,86,0
1,65,86,0
1,70,104,0
1,55,79,0
1,60,86,40
1,70,104,96
1,74,104,0
1,65,94,0
1,67,104,0
1,62,86,0
1,65,73,16
1,64,104,3
1,67,104,0
1,72,94,0
1,69,104,0
1,67,68,0
1,65,86,0
1,67,94,41
1,69,104,0
1,64,104,0
1,72,94,0
1,65,79,0
1,69,86,138
1,64,94,0
1,67,86,0
1,72,94,0
1,69,94,136
1,64,94,0
1,67,86,0
1,72,104,0
1,69,94,138
1,64,94,0
1,72,94,0
1,67,86,0
1,69,94,138
1,64,94,0
1,67,86,0
1,72,94,0
1,55,79,45
1,72,94,96
1,64,94,0
1,69,94,0
1,67,79,0
1,72,94,0
1,67,79,0
1,74,73,17
1,67,73,2
1,64,86,0
1,69,94,0
1,72,94,0
1,72,104,0
1,65,79,138
1,67,86,0
1,74,86,0
1,70,94,0
1,67,94,129
1,74,94,0
1,70,94,0
1,65,86,0
1,62,38,42
1,74,94,62
1,65,94,0
1,67,94,0
1,70,115,0
1,67,94,0
1,72,94,0
1,69,79,44
1,65,86,96
1,67,86,0
1,74,86,0
1,70,94,0
1,67,86,0
1,65,86,137
1,67,86,0
1,74,86,0
1,70,104,0
1,65,86,138
1,74,94,0
1,67,86,0
1,70,104,0
1,74,104,140
1,67,86,0
1,65,86,0
1,70,104,0
1,70,104,136
1,74,104,0
1,65,94,0
1,67,104,0
