track,note,velocity,time
0,39,85,0
0,51,116,0
0,51,93,0
0,58,46,0
0,56,49,0
0,66,61,0
0,63,53,0
0,51,45,0
0,56,57,24
0,56,67,0
0,58,51,17
0,58,69,0
0,66,101,18
0,66,116,0
0,65,86,42
0,63,93,6
0,32,64,0
0,44,74,0
0,82,93,0
0,60,78,0
0,56,63,19
0,58,64,15
0,61,85,17
0,60,83,18
0,39,74,0
0,51,101,0
0,51,109,0
0,51,64,0
0,66,67,0
0,56,66,0
0,58,67,0
0,56,58,24
0,56,67,0
0,58,64,17
0,58,64,0
0,66,109,17
0,66,116,0
0,65,86,19
0,63,85,2
0,32,69,0
0,44,93,0
0,68,69,0
0,60,78,0
0,56,58,24
0,58,58,16
0,61,71,16
0,60,89,18
0,61,33,13
0,65,53,0
0,56,39,0
0,58,39,0
0,34,50,0
0,46,56,0
0,61,43,12
0,65,55,0
0,58,41,0
0,56,47,0
0,48,60,25
0,63,41,0
0,60,38,0
0,58,50,0
0,55,37,0
0,36,55,0
0,55,44,11
0,58,50,0
0,60,41,0
0,63,53,0
0,61,29,15
0,63,30,0
0,65,41,0
0,56,46,0
0,53,34,0
0,37,47,0
0,49,56,0
0,53,43,10
0,61,31,0
0,56,51,0
0,63,46,0
0,65,45,0
0,39,50,15
0,51,53,0
0,63,47,0
0,56,35,0
0,58,41,0
0,54,40,0
0,58,37,13
0,54,42,0
0,63,42,0
0,56,26,0
0,42,56,32
0,54,37,0
0,58,35,0
0,61,51,0
0,58,38,15
0,61,47,0
0,54,47,0
0,44,46,0
0,63,43,0
0,60,39,0
0,56,50,0
0,32,48,0
0,60,37,9
0,56,51,0
0,63,48,0
0,53,49,22
0,41,44,0
0,60,40,0
0,53,41,0
0,56,39,0
0,56,43,18
0,60,49,0
0,53,38,0
0,61,40,19
0,65,48,0
0,58,47,0
0,56,38,0
0,34,56,0
0,46,56,0
0,61,34,17
0,58,45,0
0,65,47,0
0,56,31,0
0,39,64,25
0,51,31,0
0,56,34,0
0,58,40,0
0,54,35,0
0,61,42,0
0,58,13,7
0,51,30,0
0,61,32,0
0,56,38,0
0,54,45,0
0,39,57,23
0,41,32,1
0,42,50,19
0,54,45,0
0,58,33,0
0,61,42,0
0,54,53,0
0,54,45,20
0,58,22,0
0,61,42,0
0,32,61,0
0,51,47,0
0,44,18,0
0,51,15,0
0,63,12,0
0,56,23,0
0,58,16,0
0,60,25,0
0,44,57,2
0,51,24,20
0,51,33,21
0,56,45,3
0,51,27,4
0,58,50,0
0,63,45,1
0,53,50,39
0,68,57,3
0,51,44,15
0,68,40,11
0,51,44,3
0,59,47,14
0,53,62,0
0,68,30,0
0,60,56,0
0,51,32,24
0,51,30,4
0,61,33,16
0,65,53,0
0,56,39,0
0,58,39,0
0,34,50,0
0,46,56,0
0,53,63,0
0,58,34,0
0,65,27,0
0,61,22,0
0,70,52,65
0,61,43,9
0,65,55,0
0,58,41,0
0,56,47,0
0,73,49,0
0,77,68,18
0,48,60,10
0,63,41,0
0,60,38,0
0,58,50,0
0,55,37,0
0,36,55,0
0,55,29,0
0,63,64,0
0,60,34,0
0,55,44,11
0,58,50,0
0,60,41,0
0,63,53,0
0,61,29,4
0,63,30,0
0,65,41,0
0,56,46,0
0,53,34,0
0,37,47,0
0,49,56,0
0,56,33,0
0,61,3,0
0,65,17,0
0,53,43,10
0,61,31,0
0,56,51,0
0,63,46,0
0,65,45,0
0,39,50,9
0,51,53,0
0,63,47,0
0,56,35,0
0,58,41,0
0,54,40,0
0,58,18,0
0,63,12,0
0,51,14,0
0,54,1,0
0,70,44,68
0,58,37,13
0,54,42,0
0,63,42,0
0,56,26,0
0,75,67,0
0,63,63,18
0,42,56,32
0,54,37,0
0,58,35,0
0,61,51,0
0,61,56,0
0,58,38,15
0,61,47,0
0,54,47,0
0,44,46,0
0,63,43,0
0,60,39,0
0,56,50,0
0,32,48,0
0,56,51,0
0,60,37,0
0,63,56,0
0,60,37,9
0,56,51,0
0,63,48,0
0,68,39,22
0,72,49,16
0,75,101,1
0,53,49,17
0,41,44,0
0,60,40,0
0,53,41,0
0,56,39,0
0,56,43,18
0,60,49,0
0,53,38,0
0,61,40,19
0,65,48,0
0,58,47,0
0,56,38,0
0,34,56,0
0,46,56,0
0,65,10,0
0,58,6,0
0,61,1,0
0,61,34,17
0,58,45,0
0,65,47,0
0,56,31,0
0,39,64,3
0,51,31,0
0,56,34,0
0,58,40,0
0,54,35,0
0,61,42,0
0,54,23,0
0,58,32,0
0,51,42,0
0,63,43,24
0,66,36,24
0,70,57,14
0,58,13,7
0,51,30,0
0,61,32,0
0,56,38,0
0,54,45,0
0,63,38,24
0,39,57,23
0,41,32,1
0,42,50,7
0,54,45,0
0,58,33,0
0,61,42,0
0,54,53,0
0,66,47,0
0,70,49,0
0,73,56,0
0,42,66,0
0,54,61,0
0,58,66,0
0,54,45,20
0,58,22,0
0,61,42,0
0,56,34,1
0,44,85,0
0,72,34,0
0,68,50,0
0,51,39,0
0,60,11,0
0,63,19,0
0,51,60,9
0,56,74,24
0,60,83,24
0,63,101,0
0,51,42,0
0,80,55,13
0,61,93,7
0,63,93,0
0,56,74,0
0,44,61,0
0,53,48,0
0,51,60,1
0,68,25,0
0,51,60,7
0,51,48,0
0,60,72,0
0,53,62,0
0,103,46,2
0,102,35,6
0,101,35,9
0,100,33,9
0,99,33,9
0,44,71,1
0,98,41,7
0,97,40,9
0,96,51,4
0,95,44,8
0,94,44,9
0,56,74,0
0,51,40,0
0,93,49,1
0,92,49,1
0,44,57,7
0,51,43,0
0,91,40,2
0,90,41,0
0,51,64,1
0,53,47,0
0,89,36,1
0,88,39,2
0,87,42,4
0,48,70,3
0,86,42,6
0,85,24,11
0,61,56,0
0,56,61,0
0,65,61,0
0,37,69,0
0,49,74,0
0,25,116,0
0,65,65,0
0,61,52,0
0,56,66,0
0,51,56,3
0,61,55,15
0,65,62,0
0,56,56,0
0,32,85,8
0,32,93,0
0,68,63,0
0,56,56,0
0,37,85,0
0,61,55,0
0,65,65,0
0,25,101,0
0,51,41,2
0,37,78,15
0,44,63,9
0,53,37,0
0,49,74,0
0,61,66,0
0,65,70,0
0,56,66,0
0,51,42,27
0,37,101,16
0,67,65,0
0,63,52,0
0,58,56,0
0,61,52,0
0,55,68,0
0,63,66,0
0,58,50,0
0,51,43,2
0,51,64,62
0,63,36,7
0,58,48,0
0,67,51,0
0,61,41,0
0,53,28,4
0,49,67,61
0,63,36,6
0,58,45,0
0,67,56,0
0,61,50,0
0,68,64,0
0,46,69,48
0,32,85,0
0,51,41,0
0,58,49,14
0,63,45,0
0,67,59,0
0,61,49,0
0,34,67,0
0,53,50,1
0,37,109,11
0,44,71,0
0,46,78,5
0,34,78,0
0,58,56,0
0,65,58,0
0,61,57,0
0,34,85,0
0,58,53,0
0,65,59,0
0,61,50,0
0,53,33,2
0,34,85,4
0,41,58,22
0,53,40,1
0,46,78,16
0,58,60,0
0,65,68,0
0,61,63,0
0,54,53,18
0,58,55,0
0,61,56,0
0,30,74,0
0,42,93,0
0,30,66,0
0,58,51,0
0,61,53,0
0,66,63,0
0,53,43,1
0,61,52,20
0,58,51,0
0,54,64,0
0,51,52,1
0,51,50,8
0,61,51,15
0,66,50,0
0,51,41,0
0,58,60,0
0,39,78,0
0,51,85,0
0,27,85,0
0,51,63,0
0,63,71,0
0,66,85,19
0,61,74,0
0,51,64,0
0,58,67,0
0,56,52,36
0,63,53,0
0,60,47,0
0,32,74,0
0,44,71,0
0,32,85,0
0,56,71,0
0,60,78,0
0,51,50,14
0,51,48,20
0,51,29,0
0,63,66,11
0,56,63,0
0,60,63,0
0,39,67,0
0,68,67,0
0,53,33,3
0,52,25,1
0,44,69,14
0,51,43,1
0,39,66,16
0,51,61,1
0,51,56,2
0,61,56,1
0,56,61,0
0,65,61,0
0,37,69,0
0,49,74,0
0,32,61,0
0,56,63,0
0,65,55,0
0,61,60,0
0,53,70,1
0,61,55,15
0,65,62,0
0,56,56,0
0,32,85,47
0,44,60,20
0,68,60,0
0,56,56,2
0,37,85,0
0,61,55,0
0,65,65,0
0,56,56,24
0,51,42,2
0,51,45,5
0,37,78,15
0,44,63,9
0,51,67,0
0,53,50,2
0,49,74,0
0,61,66,0
0,65,70,0
0,56,66,0
0,44,50,0
0,51,49,0
0,51,34,23
0,37,101,16
0,67,65,0
0,63,52,0
0,58,56,0
0,61,52,0
0,51,53,0
0,55,66,0
0,58,45,0
0,63,63,0
0,63,36,20
0,58,48,0
0,67,51,0
0,61,41,0
0,63,36,11
0,58,45,0
0,67,56,0
0,61,50,0
0,68,51,0
0,53,41,1
0,32,85,0
0,58,49,21
0,63,45,0
0,67,59,0
0,61,49,0
0,34,67,0
0,53,40,2
0,37,109,14
0,46,78,21
0,34,78,0
0,58,56,0
0,65,58,0
0,61,57,0
0,34,69,0
0,65,70,0
0,61,56,0
0,58,64,0
0,53,38,1
0,34,85,19
0,41,58,22
0,53,51,1
0,46,78,3
0,58,60,0
0,65,68,0
0,61,63,0
0,34,48,2
0,32,64,5
0,54,53,1
0,58,55,0
0,61,56,0
0,30,74,0
0,42,93,0
0,30,85,0
0,66,74,0
0,53,43,1
0,61,52,20
0,58,51,0
0,54,64,0
0,53,45,49
0,61,51,2
0,66,50,0
0,51,41,0
0,58,60,0
0,39,78,0
0,51,85,0
0,27,78,0
0,63,67,0
0,51,53,1
0,66,85,19
0,61,74,0
0,51,64,0
0,58,67,0
0,51,36,2
0,51,44,0
0,56,78,0
0,61,71,0
0,63,101,0
0,44,78,0
0,32,66,0
0,32,67,0
0,51,56,0
0,63,38,0
0,68,55,0
0,61,53,0
0,61,66,86
0,63,64,0
0,32,60,0
0,56,66,0
0,44,67,0
0,63,85,65
0,61,74,0
0,56,74,0
0,44,71,0
0,32,63,42
0,44,64,0
0,61,109,2
0,63,121,0
0,56,116,0
0,56,69,0
0,44,63,42
0,32,66,0
0,56,78,14
0,63,85,0
0,61,67,0
0,32,60,18
0,44,53,0
0,60,83,5
0,32,74,0
0,44,93,0
0,63,74,0
0,56,74,0
0,44,63,0
0,38,127,0
0,31,127,0
0,43,127,0
0,47,127,0
0,63,45,0
0,68,48,0
0,60,40,0
0,40,127,32
0,40,127,4
0,48,127,14
0,48,127,4
0,47,127,14
0,47,127,4
0,61,46,20
0,68,46,0
0,70,49,0
0,65,28,0
0,32,85,16
0,50,127,0
0,39,78,24
0,47,127,0
0,44,116,16
0,45,127,0
0,39,78,6
0,43,127,0
0,32,78,23
0,41,127,0
0,61,33,2
0,65,53,0
0,56,39,0
0,58,39,0
0,34,50,0
0,46,56,0
0,34,109,0
0,57,90,0
0,36,78,0
0,61,47,0
0,65,63,0
0,58,60,0
0,56,58,0
0,44,57,18
0,61,43,12
0,65,55,0
0,58,41,0
0,56,47,0
0,40,127,0
0,44,60,0
0,34,69,18
0,36,60,0
0,44,57,0
0,34,85,1
0,48,60,10
0,63,41,0
0,60,38,0
0,58,50,0
0,55,37,0
0,36,55,0
0,24,115,0
0,36,80,0
0,44,56,0
0,55,70,0
0,58,67,0
0,63,53,0
0,60,45,0
0,44,55,18
0,55,44,11
0,58,50,0
0,60,41,0
0,63,53,0
0,54,110,0
0,40,127,0
0,44,63,0
0,24,74,18
0,46,74,0
0,24,83,11
0,61,29,0
0,63,30,0
0,65,41,0
0,56,46,0
0,53,34,0
0,37,47,0
0,49,56,0
0,25,109,0
0,36,90,0
0,44,56,0
0,61,64,0
0,65,68,0
0,56,61,0
0,44,57,14
0,53,43,10
0,61,31,0
0,56,51,0
0,63,46,0
0,65,45,0
0,44,66,0
0,40,127,0
0,25,101,18
0,44,55,0
0,36,60,0
0,32,85,2
0,39,50,2
0,51,53,0
0,63,47,0
0,56,35,0
0,58,41,0
0,54,40,0
0,27,121,0
0,36,90,0
0,44,58,0
0,58,61,0
0,63,61,0
0,66,63,0
0,44,57,18
0,58,37,13
0,54,42,0
0,63,42,0
0,56,26,0
0,54,110,0
0,40,127,0
0,44,61,0
0,27,121,18
0,44,60,0
0,46,74,0
0,29,83,1
0,42,56,24
0,54,37,0
0,58,35,0
0,61,51,0
0,61,67,0
0,30,109,0
0,44,61,0
0,36,90,0
0,61,35,0
0,58,41,0
0,66,56,0
0,66,71,18
0,44,57,0
0,70,85,17
0,58,38,15
0,61,47,0
0,54,47,0
0,40,127,0
0,44,60,0
0,73,101,15
0,61,64,13
0,30,85,0
0,36,60,0
0,44,57,0
0,44,46,0
0,63,43,0
0,60,39,0
0,56,50,0
0,32,48,0
0,63,67,0
0,32,116,0
0,36,80,0
0,44,56,0
0,68,30,0
0,63,63,0
0,60,52,0
0,68,48,16
0,70,57,18
0,44,55,0
0,72,89,17
0,60,37,9
0,56,51,0
0,63,48,0
0,54,110,0
0,40,127,0
0,44,63,0
0,75,109,6
0,72,70,18
0,32,101,0
0,46,74,0
0,30,66,1
0,53,49,2
0,41,44,0
0,60,40,0
0,53,41,0
0,56,39,0
0,65,66,0
0,29,110,0
0,36,90,0
0,44,56,0
0,65,37,0
0,68,52,18
0,44,57,0
0,72,83,18
0,56,43,18
0,60,49,0
0,53,38,0
0,44,66,0
0,40,127,0
0,75,101,12
0,65,70,18
0,29,92,0
0,44,55,0
0,36,60,0
0,29,100,1
0,61,40,3
0,65,48,0
0,58,47,0
0,56,38,0
0,34,56,0
0,46,56,0
0,73,71,0
0,34,116,0
0,36,90,0
0,44,58,0
0,58,56,0
0,61,18,0
0,65,63,15
0,44,57,9
0,73,101,17
0,61,34,17
0,58,45,0
0,65,47,0
0,56,31,0
0,54,110,0
0,40,127,0
0,44,61,0
0,70,66,1
0,65,70,17
0,34,101,0
0,44,60,0
0,46,74,0
0,32,85,1
0,39,64,2
0,51,31,0
0,56,34,0
0,58,40,0
0,54,35,0
0,61,42,0
0,63,61,0
0,66,56,0
0,70,48,0
0,27,116,0
0,44,61,0
0,36,90,0
0,63,27,0
0,66,34,0
0,58,32,0
0,66,46,18
0,44,57,0
0,70,93,17
0,58,13,7
0,51,30,0
0,61,32,0
0,56,38,0
0,54,45,0
0,40,127,0
0,44,60,0
0,63,57,6
0,39,57,16
0,27,109,0
0,36,60,0
0,44,57,0
0,41,32,1
0,29,92,0
0,42,50,2
0,54,45,0
0,58,33,0
0,61,42,0
0,54,53,0
0,66,61,0
0,73,61,0
0,70,52,0
0,30,109,0
0,36,80,0
0,44,56,0
0,61,51,0
0,68,57,18
0,44,55,0
0,70,93,17
0,54,45,18
0,58,22,0
0,61,42,0
0,54,110,0
0,40,127,0
0,44,63,0
0,66,71,16
0,68,67,18
0,30,101,0
0,46,74,0
0,44,85,0
0,61,57,0
0,68,64,0
0,32,116,0
0,36,90,0
0,44,56,0
0,56,63,0
0,51,60,15
0,56,74,18
0,44,57,0
0,60,83,18
0,63,101,0
0,68,93,0
0,49,100,16
0,40,127,0
0,61,93,7
0,63,93,0
0,56,74,0
0,61,61,0
0,39,109,10
0,44,55,0
0,36,60,17
0,60,72,2
0,60,70,0
0,63,66,0
0,68,60,0
0,36,105,0
0,40,127,0
0,68,67,0
0,63,58,0
0,60,54,0
0,40,127,0
0,63,61,4
0,39,93,0
0,48,127,0
0,48,127,4
0,68,85,18
0,44,93,14
0,39,93,2
0,45,110,0
0,36,105,1
0,43,127,0
0,61,56,5
0,56,61,0
0,65,61,0
0,37,69,0
0,49,74,0
0,37,116,0
0,57,76,0
0,36,90,0
0,65,68,0
0,61,60,0
0,56,66,0
0,44,57,18
0,65,83,17
0,61,55,15
0,65,62,0
0,56,56,0
0,54,90,0
0,40,120,0
0,44,60,0
0,56,53,5
0,32,85,18
0,61,49,0
0,37,78,0
0,36,60,0
0,44,57,0
0,65,80,16
0,32,85,0
0,56,56,2
0,37,85,0
0,61,55,0
0,65,65,0
0,25,109,0
0,36,80,0
0,44,56,0
0,68,39,16
0,68,71,18
0,44,55,0
0,46,71,0
0,37,78,15
0,61,66,0
