track,note,velocity,time
1,66,127,1536
1,75,127,0
1,75,0,768
1,66,0,4
1,73,127,8
1,66,127,0
1,71,127,756
1,66,0,8
1,63,127,0
1,73,0,16
1,71,0,744
1,63,0,8
1,70,127,4
1,63,127,0
1,63,0,384
1,70,0,16
1,63,127,68
1,66,127,96
1,63,0,12
1,66,0,88
1,71,127,16
1,59,127,76
1,64,127,4
1,68,127,0
1,71,0,32
1,64,0,732
1,59,0,8
1,68,0,0
1,63,127,8
1,66,127,0
1,59,127,0
1,71,127,368
1,66,0,28
1,71,0,356
1,66,127,0
1,71,127,0
1,73,127,0
1,63,0,16
1,59,0,8
1,66,127,648
1,70,127,20
1,73,127,0
1,66,0,72
1,73,0,4
1,71,0,12
1,66,0,292
1,70,0,4
1,73,0,4
1,66,127,168
1,61,127,96
1,66,0,8
1,61,0,180
1,75,127,4
1,71,127,0
1,71,0,768
1,75,0,0
1,78,127,16
1,73,127,0
1,66,127,752
1,75,127,12
1,73,0,16
1,78,0,0
1,64,127,68
1,73,127,8
1,66,0,12
1,75,0,8
1,64,0,68
1,73,0,8
1,63,127,0
1,71,127,4
1,64,127,80
1,63,0,12
1,73,127,0
1,71,0,16
1,64,0,272
1,66,127,84
1,75,127,0
1,73,0,24
1,66,0,72
1,63,127,4
1,71,127,0
1,75,0,4
1,63,0,292
1,71,127,88
1,63,127,4
1,71,0,8
1,71,0,368
1,64,127,12
1,68,127,0
1,63,0,12
1,71,127,748
1,78,127,0
1,64,0,4
1,80,127,8
1,68,0,12
1,78,0,552
1,80,0,12
1,71,0,8
1,73,127,188
1,78,127,0
1,71,127,0
1,71,0,764
1,78,127,372
1,78,0,16
1,73,0,0
1,78,0,80
1,73,127,0
1,66,127,92
1,73,0,4
1,66,0,96
1,73,127,0
1,73,0,108
1,75,127,0
1,71,127,0
1,75,0,192
1,71,0,580
1,73,127,0
1,78,127,0
1,80,127,0
1,80,0,392
1,78,0,4
1,71,127,356
1,74,127,12
1,73,0,16
1,74,0,80
1,71,0,672
1,73,127,0
1,63,127,468
1,63,0,96
1,71,127,0
1,64,127,192
1,68,127,0
1,71,0,8
1,73,0,0
1,71,127,4
1,68,0,380
1,64,0,4
1,71,127,372
1,71,0,8
1,78,127,4
1,71,0,756
1,71,127,0
1,73,127,0
1,78,0,24
1,71,0,744
1,61,127,0
1,61,0,380
1,71,127,0
1,63,127,16
1,71,0,80
1,70,127,4
1,70,0,92
1,66,127,4
1,66,0,196
1,64,127,4
1,68,127,12
1,59,127,0
1,68,127,564
1,71,127,0
1,68,0,12
1,64,0,0
1,61,127,172
1,68,0,8
1,66,127,0
1,70,127,0
1,61,0,568
1,63,127,0
1,66,0,4
1,70,0,0
1,59,0,24
1,63,0,80
1,63,0,0
1,68,127,8
1,66,127,76
1,73,0,4
1,61,127,4
1,71,0,12
1,68,0,0
1,61,0,180
1,66,127,4
1,66,0,4
1,66,127,80
1,66,0,8
1,62,127,96
1,66,0,8
1,61,127,80
1,62,0,24
1,61,127,80
1,61,0,4
1,59,127,88
1,61,0,16
1,59,127,76
1,56,127,0
1,59,0,12
1,59,0,372
1,56,0,12
1,59,127,184
1,66,127,92
1,59,0,20
1,68,127,80
1,59,127,0
1,66,0,4
1,66,127,84
1,68,0,28
1,66,0,80
1,64,127,12
1,73,127,368
1,64,0,16
1,59,0,180
1,70,127,0
1,61,127,0
1,73,0,4
1,68,127,92
1,70,0,4
1,68,0,92
1,66,127,0
1,66,0,392
1,66,127,80
1,76,127,96
1,61,0,8
1,75,127,184
1,75,0,60
1,76,0,32
1,73,127,4
1,73,0,48
1,71,127,52
1,71,0,184
1,73,127,4
1,73,0,196
1,71,127,0
1,71,0,92
1,75,127,0
1,71,127,12
1,68,127,0
1,73,127,276
1,70,127,0
1,66,127,0
1,68,0,8
1,71,0,0
1,75,0,4
1,73,0,76
1,70,0,0
1,66,0,4
1,66,0,0
1,71,127,12
1,71,0,92
1,71,127,8
1,71,0,88
1,71,127,4
1,68,127,88
1,59,127,0
1,71,0,4
1,68,0,100
1,66,127,0
1,64,127,88
1,66,0,4
1,73,127,380
1,64,0,4
1,73,0,180
1,70,127,4
1,61,127,12
1,70,0,76
1,68,127,24
1,66,127,84
1,68,0,8
1,66,0,372
1,64,127,112
1,61,0,88
1,63,127,8
1,64,0,8
1,66,127,76
1,63,0,8
1,68,127,88
1,66,0,16
1,68,0,88
1,63,127,4
1,63,0,56
1,61,127,36
1,61,0,44
1,56,127,44
1,61,127,96
1,56,0,92
1,61,0,116
1,51,127,0
1,59,127,0
1,59,0,368
1,51,0,8
1,70,127,4
1,59,0,12
1,68,127,72
1,70,0,8
1,68,0,84
1,63,127,4
1,63,0,92
1,59,127,16
1,61,127,84
1,52,127,0
1,63,127,384
1,61,0,8
1,52,0,8
1,66,127,80
1,63,0,4
1,66,0,96
1,66,127,8
1,66,0,92
1,63,127,0
1,63,0,92
1,68,127,4
1,64,127,0
1,59,127,0
1,66,127,184
1,68,0,4
1,61,127,572
1,59,127,0
1,59,0,4
1,64,0,0
1,66,0,0
1,66,127,0
1,59,0,4
1,66,0,376
1,63,127,0
1,63,0,92
1,66,127,0
1,66,0,92
1,66,127,8
1,66,0,92
1,63,127,4
1,59,0,88
1,68,127,8
1,61,0,4
1,63,0,12
1,68,0,96
1,70,127,4
1,68,127,76
1,70,0,16
1,66,127,80
1,68,0,4
1,66,0,88
1,63,127,192
1,71,127,16
1,63,0,84
1,71,0,8
1,73,127,8
1,64,127,0
1,71,127,472
1,63,127,0
1,71,0,92
1,73,0,8
1,66,127,0
1,64,0,4
1,75,127,80
1,66,0,12
1,75,0,88
1,78,127,12
1,66,127,80
1,73,127,0
1,78,0,20
1,66,0,752
1,73,0,4
1,64,127,8
1,68,127,0
1,71,127,0
1,71,127,376
1,68,0,4
1,64,0,0
1,66,127,4
1,63,127,0
1,71,0,8
1,66,127,360
1,71,0,4
1,68,127,4
1,71,127,0
1,63,0,4
1,66,0,0
1,63,0,12
1,66,0,164
1,68,0,8
1,66,127,8
1,71,0,4
1,71,127,92
1,66,0,4
1,59,127,96
1,64,127,0
1,68,127,0
1,71,0,4
1,59,0,376
1,75,127,4
1,71,127,0
1,68,0,4
1,64,0,8
1,75,0,756
1,71,0,0
1,78,127,0
1,73,127,0
1,78,0,768
1,66,127,0
1,75,127,0
1,73,0,12
1,64,127,72
1,73,127,0
1,75,0,12
1,66,0,12
1,64,0,68
1,63,127,0
1,71,127,0
1,73,0,12
1,71,0,84
1,63,0,12
1,64,127,0
1,73,127,0
1,64,0,284
1,66,127,92
1,75,127,0
1,73,0,24
1,63,127,68
1,71,127,0
1,75,0,4
1,66,0,0
1,63,0,288
1,71,127,92
1,63,127,0
1,71,0,12
1,63,0,372
1,71,0,8
1,64,127,4
1,68,127,4
1,71,127,748
1,78,127,12
1,80,127,4
1,68,0,4
1,64,0,0
1,71,0,556
1,80,0,16
1,78,0,4
1,73,127,176
1,78,127,0
1,71,127,0
1,71,0,768
1,78,0,384
1,73,0,0
1,78,127,0
1,73,127,108
1,66,127,84
1,73,0,8
1,66,0,88
1,73,127,0
1,73,0,96
1,75,127,12
1,71,127,0
1,75,0,208
1,75,127,68
1,75,0,76
1,78,0,0
1,78,127,20
1,78,0,128
1,83,127,76
1,73,127,180
1,78,127,0
1,90,127,0
1,80,127,0
1,71,0,12
1,90,0,368
1,78,0,16
1,73,0,372
1,71,127,0
1,74,127,0
1,74,0,92
1,75,127,208
1,75,0,72
1,80,127,12
1,80,0,128
1,83,127,80
1,80,0,112
1,83,0,8
1,83,0,20
1,73,127,36
1,82,127,16
1,71,0,4
1,82,0,396
1,63,127,64
1,63,0,100
1,71,127,8
1,64,127,184
1,68,127,0
1,71,127,0
1,73,0,4
1,71,0,4
1,76,127,276
1,76,0,72
1,64,0,24
1,68,0,8
1,80,127,4
1,80,0,124
1,83,127,56
1,83,0,128
1,71,127,72
1,78,127,0
1,71,0,4
1,71,127,756
1,73,127,0
1,71,0,16
1,78,0,0
1,61,127,748
1,71,0,4
1,61,0,380
1,71,127,4
1,63,127,12
1,70,127,84
1,71,0,16
1,66,127,76
1,70,0,12
1,66,0,176
1,64,127,16
1,68,127,4
1,59,127,0
1,68,127,568
1,71,127,0
1,68,0,4
1,64,0,8
1,68,0,176
1,61,127,0
1,66,127,8
1,70,127,0
1,61,0,568
1,63,127,0
1,66,0,8
1,59,0,4
1,70,0,4
1,63,0,76
1,68,127,16
1,63,0,12
1,71,0,76
1,66,127,4
1,61,127,0
1,73,0,4
1,68,0,0
1,61,0,188
1,66,127,0
1,66,0,8
1,66,0,88
1,66,127,4
1,62,127,96
1,66,0,8
1,61,127,80
1,62,0,4
1,61,0,96
1,61,127,12
1,59,127,92
1,61,0,4
1,59,127,88
1,59,0,4
1,56,127,4
1,59,0,392
1,56,0,8
1,59,127,160
1,66,127,88
1,59,0,16
1,66,0,76
1,68,127,8
1,59,127,16
1,68,0,76
1,66,127,4
1,66,0,100
1,64,127,8
1,73,127,372
1,64,0,24
1,70,127,168
1,61,127,0
1,73,0,8
1,59,0,12
1,70,0,84
1,68,127,8
1,66,127,80
1,68,0,16
1,66,0,368
1,66,127,96
1,61,0,96
1,76,127,0
1,75,127,204
1,75,0,44
1,76,0,36
1,73,127,16
1,73,0,44
1,71,127,52
1,73,127,180
1,71,0,24
1,73,0,160
1,71,127,8
1,75,127,104
1,71,127,4
1,68,127,0
1,71,0,4
1,75,0,272
1,73,127,0
1,70,127,0
1,66,127,4
1,71,0,8
1,68,0,8
1,73,0,76
1,66,0,4
1,66,0,8
1,70,0,0
1,71,127,4
1,71,127,88
1,71,0,20
1,71,127,80
1,71,0,4
1,71,0,100
1,68,127,0
1,59,127,0
1,66,127,76
1,68,0,16
1,66,0,80
1,64,127,16
1,73,127,364
1,64,0,16
1,73,0,172
1,70,127,16
1,61,127,0
1,70,0,88
1,68,127,16
1,66,127,76
1,68,0,16
1,66,0,368
1,64,127,100
1,64,0,92
1,61,0,8
1,63,127,4
1,66,127,96
1,63,0,12
1,66,0,80
1,68,127,4
1,68,0,88
1,63,127,0
1,63,0,44
1,61,127,48
1,61,0,60
1,56,127,48
1,61,127,88
1,56,0,108
1,61,0,80
1,51,127,12
1,59,127,4
1,59,0,380
1,70,127,0
1,51,0,4
1,59,0,0
1,68,127,84
1,70,0,4
1,63,127,92
1,68,0,4
1,63,0,96
1,59,127,8
1,61,127,96
1,52,127,0
1,63,127,376
1,52,0,4
1,61,0,0
1,66,127,84
1,63,0,12
1,66,0,80
1,66,127,8
1,63,127,96
1,66,0,4
1,63,0,88
1,68,127,16
1,64,127,0
1,59,127,0
1,66,127,192
1,68,0,8
1,66,0,560
1,61,127,0
1,59,0,4
1,59,0,0
1,64,0,0
1,59,127,0
1,66,127,0
1,63,127,376
1,66,0,8
1,66,127,96
1,63,0,8
1,66,0,80
1,66,127,0
1,66,0,88
1,63,127,20
1,59,0,84
1,68,127,0
1,63,0,4
1,61,0,8
1,68,0,80
1,70,127,4
1,70,0,92
1,68,127,12
1,68,0,100
1,66,127,8
1,66,0,92
1,63,127,176
1,71,127,8
1,63,0,80
1,73,127,8
1,71,0,4
1,64,127,8
1,63,127,468
1,71,127,4
1,73,0,92
1,63,0,92
1,66,127,4
1,71,0,12
1,66,0,80
1,75,127,4
1,76,127,96
1,71,127,0
1,67,127,0
1,75,0,188
1,76,0,8
1,75,127,8
1,76,127,88
1,75,0,12
1,67,0,76
1,71,0,8
1,76,0,8
1,78,127,0
1,75,127,0
1,71,127,0
1,78,0,184
1,75,0,4
1,71,127,0
1,71,0,16
1,68,127,168
1,70,127,8
1,73,127,0
1,68,127,376
1,68,0,136
1,64,0,0
1,70,0,56
1,68,0,8
1,73,0,4
1,71,127,0
1,71,0,120
1,67,127,72
1,61,127,0
1,73,127,0
1,71,0,44
1,71,127,36
1,73,0,16
1,71,127,468
1,71,0,104
1,71,0,0
1,70,127,4
1,70,0,88
1,67,0,4
1,63,127,4
1,68,127,0
1,73,127,0
1,61,0,4
1,73,0,184
1,71,127,0
1,73,127,396
1,73,0,60
1,75,127,16
1,63,127,92
1,71,0,8
1,68,127,0
1,71,127,0
1,63,0,4
1,68,0,8
1,63,127,464
1,68,127,12
1,71,127,0
1,71,0,84
1,63,0,4
1,68,0,4
1,61,127,184
1,71,127,0
1,63,0,4
1,71,0,4
1,68,0,4
1,73,127,0
1,75,0,312
1,75,127,64
1,75,0,128
1,61,0,52
1,73,127,4
1,71,0,12
1,73,0,8
1,73,0,124
1,67,127,56
1,73,127,0
1,67,0,44
1,73,0,8
1,71,127,48
1,71,0,56
1,68,127,36
1,68,0,200
1,66,127,84
1,66,0,104
1,68,127,4
1,68,0,88
1,73,127,4
1,73,0,192
1,71,127,0
1,71,0,284
1,73,127,8
1,73,0,60
1,71,127,24
1,71,0,72
1,68,127,24
1,68,0,68
1,68,127,124
1,63,127,8
1,71,127,0
1,68,0,572
1,63,127,0
1,63,0,12
1,71,0,0
1,68,127,0
1,71,127,0
1,63,0,176
1,61,127,0
1,71,127,8
1,71,0,4
1,68,0,0
1,73,127,8
1,61,0,364
1,71,0,12
1,80,127,0
1,73,0,12
1,78,127,180
1,74,127,188
1,74,0,64
1,73,127,28
1,73,0,68
1,71,127,32
1,71,0,60
1,68,127,40
1,71,127,196
1,67,127,0
1,61,127,0
1,68,0,4
1,70,127,72
1,71,0,48
1,70,0,76
1,73,127,72
1,68,127,0
1,63,127,0
1,67,0,20
1,61,0,4
1,73,0,176
1,71,127,0
1,68,0,180
1,63,0,0
1,71,0,8
1,71,127,88
1,71,0,92
1,78,127,16
1,78,0,196
1,74,127,0
1,80,0,8
1,74,0,52
1,74,127,20
1,74,0,68
1,71,127,32
1,71,0,72
1,71,127,128
1,68,127,0
1,63,127,0
1,71,0,184
1,70,127,12
1,70,0,120
1,73,127,68
1,68,127,0
1,64,127,0
1,68,0,4
1,63,0,0
1,73,0,128
1,71,127,48
1,71,0,188
1,70,127,4
1,70,0,120
1,73,127,72
1,73,0,132
1,64,0,68
1,71,127,8
1,68,0,4
1,71,0,116
1,71,127,60
1,71,0,124
1,73,127,64
1,68,127,4
1,64,127,0
1,73,0,136
1,71,127,64
1,71,0,124
1,70,127,56
1,68,0,4
1,64,0,8
1,70,0,112
1,73,127,84
1,68,127,0
1,64,127,0
1,73,0,200
1,64,0,180
1,71,127,0
1,68,0,16
1,71,0,104
1,75,127,80
1,75,0,132
1,75,127,44
1,75,0,144
1,73,127,48
1,73,0,96
1,71,127,0
1,71,0,300
1,73,127,0
1,73,0,52
1,75,127,40
1,75,0,44
1,75,127,44
1,78,0,4
1,75,0,56
1,73,127,44
1,73,0,60
1,71,127,36
1,71,0,68
1,68,127,20
1,68,0,188
1,66,127,288
1,66,0,136
1,68,127,76
1,68,0,136
1,71,127,40
1,71,0,188
1,63,127,4
1,73,127,16
1,64,127,0
1,68,127,0
1,59,127,0
1,68,127,556
1,71,127,16
1,68,0,12
1,64,0,0
1,68,0,180
1,61,127,0
1,66,127,0
1,70,127,0
1,63,127,572
1,59,0,4
1,66,0,4
1,61,0,8
1,70,0,0
1,63,0,80
1,63,0,0
1,68,127,4
1,66,127,84
1,61,127,12
1,68,0,8
1,71,0,0
1,73,0,8
1,66,0,164
1,61,0,20
1,66,127,0
1,66,127,76
1,66,0,20
1,62,127,76
1,66,0,16
1,62,0,96
1,61,127,4
1,61,127,84
1,61,0,16
1,59,127,72
1,61,0,28
1,59,0,68
1,59,127,8
1,56,127,0
1,56,0,384
1,59,0,12
1,59,127,184
1,66,127,80
1,59,0,16
1,66,0,84
1,68,127,16
1,59,127,0
1,66,127,80
1,68,0,16
1,64,127,96
1,66,0,4
1,73,127,372
1,64,0,8
1,73,0,180
1,70,127,4
1,61,127,0
1,59,0,20
1,70,0,76
1,68,127,8
1,66,127,80
1,68,0,28
1,66,0,356
1,66,127,112
1,76,127,88
1,61,0,20
