track,note,velocity,time
1,69,100,6528
1,70,100,0
1,69,100,0
1,70,100,0
1,72,100,0
1,67,98,0
1,67,98,0
1,65,99,0
1,67,99,0
1,65,99,0
1,67,101,0
1,69,101,0
1,64,101,0
1,64,101,0
1,58,101,768
1,62,101,0
1,65,101,192
1,70,101,0
1,69,101,0
1,58,101,0
1,62,101,0
1,62,101,124
1,65,101,0
1,65,101,0
1,69,112,1920
1,70,112,0
1,69,112,0
1,70,112,0
1,72,112,0
1,67,112,0
1,67,112,0
1,69,112,384
1,69,112,128
1,70,112,64
1,69,112,64
1,67,111,96
1,69,111,0
1,60,112,0
1,60,112,0
1,62,114,768
1,65,114,480
1,70,114,0
1,69,114,0
1,60,113,480
1,62,113,0
1,65,112,0
1,67,112,0
1,75,102,2496
1,75,102,0
1,75,102,0
1,72,103,0
1,75,103,0
1,72,103,0
1,75,103,0
1,70,103,288
1,74,103,0
1,74,103,0
1,77,103,0
1,74,104,0
1,77,104,0
1,74,104,0
1,77,104,0
1,74,104,0
1,72,104,128
1,74,104,128
1,75,104,64
1,72,105,0
1,72,105,0
1,74,105,0
1,74,105,0
1,65,105,0
1,75,105,384
1,75,105,0
1,75,105,0
1,70,108,0
1,72,108,0
1,75,108,0
1,77,108,0
1,75,108,0
1,70,108,288
1,74,108,0
1,75,108,0
1,77,108,96
1,72,109,288
1,74,109,0
1,72,109,0
1,74,109,0
1,77,109,192
1,74,109,0
1,74,109,0
1,89,100,384
1,86,100,0
1,84,100,0
1,81,100,0
1,84,100,0
1,81,100,96
1,77,100,0
1,84,100,0
1,86,100,0
1,84,100,0
1,79,100,0
1,77,100,288
1,77,100,0
1,79,100,0
1,77,100,0
1,77,100,288
1,79,100,0
1,81,100,0
1,76,100,0
1,77,100,0
1,76,100,96
1,74,100,0
1,72,100,0
1,74,99,768
1,77,99,0
1,82,99,0
1,81,99,0
1,72,99,288
1,74,99,0
1,77,99,0
1,77,100,0
1,69,112,1536
1,70,112,0
1,69,112,0
1,70,112,0
1,72,112,0
1,67,112,0
1,67,112,0
1,69,112,384
1,69,112,128
1,70,112,64
1,69,112,64
1,67,111,96
1,69,111,0
1,60,112,0
1,60,112,0
1,62,114,768
1,65,114,480
1,70,114,0
1,69,114,0
1,60,113,480
1,62,113,0
1,65,112,0
1,67,112,0
1,75,87,2496
1,75,87,0
1,75,87,0
1,72,87,0
1,75,87,0
1,72,87,0
1,75,87,0
1,70,89,288
1,74,89,0
1,74,89,0
1,77,89,0
1,74,90,0
1,77,90,0
1,74,88,0
1,77,88,0
1,74,88,0
1,72,90,128
1,74,90,128
1,75,90,64
1,72,90,0
1,72,90,0
1,74,90,0
1,74,90,0
1,65,90,0
1,75,90,384
1,75,90,0
1,75,90,0
1,70,90,0
1,72,90,0
1,75,90,0
1,77,90,0
1,75,90,0
1,70,89,0
1,74,89,0
1,75,89,0
1,77,89,96
1,72,89,288
1,74,89,0
1,72,89,0
1,74,89,0
1,77,89,96
1,74,89,0
1,81,89,0
1,84,89,192
1,89,100,192
1,86,100,0
1,84,100,0
1,81,100,0
1,84,100,0
1,81,100,96
1,77,100,0
1,84,100,0
1,86,100,0
1,84,100,0
1,79,100,0
1,77,100,288
1,77,100,0
1,79,100,0
1,77,100,0
1,77,100,288
1,79,100,0
1,81,100,0
1,76,99,0
1,77,99,0
1,76,99,96
1,74,99,0
1,72,99,0
1,74,100,768
1,77,100,0
1,82,100,0
1,81,100,0
1,72,100,288
1,74,100,0
1,65,100,0
1,67,100,0
1,77,127,384
1,74,127,0
1,72,127,0
1,72,127,0
1,74,127,0
1,67,127,0
1,65,127,0
1,69,127,0
1,67,127,0
1,69,127,0
1,72,127,0
1,74,127,0
1,76,127,768
1,72,127,0
1,72,127,0
1,74,127,0
1,62,127,768
1,65,127,0
1,70,127,0
1,69,127,0
1,60,127,96
1,62,127,0
1,65,127,0
1,67,127,0
1,67,127,1536
1,65,127,0
1,69,127,0
1,67,127,0
1,69,127,0
1,72,127,0
1,74,127,0
1,76,127,768
1,72,127,0
1,72,127,0
1,74,127,0
1,62,127,768
1,65,127,0
1,70,127,0
1,69,127,0
1,60,127,96
1,62,127,0
1,65,127,0
1,67,127,0
1,72,127,192
1,77,127,0
1,77,127,0
1,77,127,0
1,74,127,0
1,77,127,0
1,74,127,0
1,72,100,768
1,70,100,0
1,69,100,0
1,69,100,0
1,67,100,0
1,60,100,0
1,62,100,0
1,65,100,0
1,67,100,0
2,72,94,18432
2,67,94,0
2,60,94,0
2,65,94,0
2,65,94,192
2,60,94,0
2,65,94,0
2,60,94,0
2,67,94,0
2,60,94,0
2,64,94,0
2,67,94,0
2,60,94,0
2,64,94,0
2,60,94,0
2,64,94,0
2,60,93,0
2,62,93,0
2,57,93,0
2,62,93,0
2,62,93,192
2,57,93,0
2,62,93,0
2,57,93,0
2,60,93,0
2,60,93,192
2,60,93,0
2,62,93,0
2,60,93,0
2,57,93,0
2,60,93,0
2,57,92,0
2,62,92,0
2,53,92,0
2,60,92,0
2,58,92,0
2,62,92,0
2,53,92,0
2,58,92,0
2,53,92,0
2,58,92,480
2,62,92,0
2,60,92,288
2,53,93,0
2,58,93,0
2,60,93,0
2,60,93,192
2,57,93,0
2,62,93,0
2,60,93,0
2,57,93,0
2,62,93,192
2,58,93,0
2,60,93,0
2,65,93,0
2,53,93,0
2,58,93,0
2,60,93,0
2,57,91,0
2,60,91,0
2,53,91,0
2,60,98,0
2,57,98,0
2,58,94,23616
2,60,94,0
2,53,94,0
2,58,94,0
2,62,94,0
2,53,94,0
2,57,94,0
2,60,94,0
2,62,94,0
2,65,94,0
2,72,94,0
2,67,94,0
2,60,94,0
2,65,94,0
2,65,94,192
2,60,94,0
2,65,94,0
2,60,94,0
2,67,94,0
2,60,94,0
2,64,94,0
2,60,94,0
2,64,94,0
2,60,94,0
2,64,94,0
2,60,93,0
2,62,93,0
2,57,93,0
2,62,93,0
2,62,93,192
2,57,93,0
2,62,93,0
2,57,93,0
2,60,93,0
2,64,93,0
2,64,93,0
2,60,93,0
2,60,93,0
2,62,93,0
2,64,93,0
2,60,93,0
2,57,93,0
2,60,93,0
2,57,92,0
2,62,92,0
2,53,92,0
2,60,92,0
2,58,92,0
2,62,92,0
2,60,92,0
2,53,92,0
2,58,92,0
2,62,92,0
2,53,92,0
2,65,92,0
2,70,92,0
2,58,92,0
2,69,92,0
2,62,92,0
2,67,92,0
2,65,92,0
2,62,90,0
2,60,92,0
2,53,93,0
2,58,93,0
2,60,93,0
2,62,93,0
2,60,93,192
2,57,93,0
2,65,93,0
2,67,93,0
2,65,93,0
2,62,93,0
2,60,93,0
2,57,93,0
2,65,93,0
2,58,93,0
2,60,93,0
2,62,93,0
2,65,93,0
2,53,93,0
2,58,93,0
2,60,93,0
2,57,91,0
2,60,91,0
2,53,91,0
2,60,91,0
2,57,91,0
2,65,91,0
2,68,91,0
2,63,91,0
2,72,91,0
2,68,105,0
2,63,105,0
2,72,105,0
2,75,105,576
2,63,105,0
2,70,105,0
2,67,105,0
2,63,105,0
2,70,105,0
2,67,105,0
2,70,105,0
2,70,105,288
2,74,105,0
2,77,105,0
2,74,105,96
2,70,105,0
2,77,105,0
2,70,105,0
2,74,105,0
2,77,105,0
2,74,105,0
2,72,105,0
2,70,105,0
2,69,105,0
2,65,105,0
2,72,105,128
2,69,105,0
2,65,105,0
2,69,105,0
2,65,105,0
2,57,105,288
2,60,105,0
2,65,105,0
2,63,105,0
2,68,105,0
2,72,105,0
2,63,105,0
2,68,105,0
2,72,105,0
2,70,105,192
2,67,105,0
2,70,104,192
2,67,104,0
2,63,104,0
2,70,104,0
2,67,104,0
2,70,104,384
2,74,104,0
2,77,104,0
2,74,104,0
2,72,104,0
2,70,105,0
2,62,105,0
2,65,105,0
2,72,105,0
2,70,105,0
2,74,105,0
2,65,105,0
2,72,105,0
2,74,105,0
2,70,120,0
2,65,120,0
2,62,120,0
2,70,100,14016
2,74,100,0
2,77,100,0
2,70,100,0
2,65,100,0
2,74,100,0
2,70,100,0
2,72,100,0
2,65,100,0
2,70,100,0
2,72,100,0
2,65,100,0
2,74,100,0
2,67,100,0
2,57,100,0
2,60,100,0
2,65,100,0
2,69,100,0
2,65,100,0
2,60,100,0
2,67,100,0
2,69,100,0
2,65,100,0
2,60,100,0
2,72,100,0
2,69,100,0
2,65,100,0
2,74,100,0
2,67,100,0
2,64,100,0
2,64,100,0
2,67,100,0
2,76,100,0
2,74,100,0
2,72,100,0
2,64,100,0
2,67,100,0
2,74,100,0
2,72,100,0
2,64,100,0
2,67,100,0
2,74,100,0
2,60,100,0
2,57,100,0
2,65,100,0
2,57,100,0
2,60,100,0
2,65,100,0
2,76,100,0
2,69,100,0
2,65,100,0
2,72,100,0
2,69,100,0
2,65,100,0
2,72,100,0
2,69,100,0
2,64,100,0
2,67,100,0
2,74,100,0
2,64,100,0
2,67,100,0
2,69,100,0
2,72,100,0
2,69,100,0
2,60,100,0
2,64,100,0
2,70,100,0
2,72,100,0
2,67,100,0
2,60,100,0
2,57,100,0
2,65,100,0
2,62,100,0
2,53,100,0
2,60,100,0
2,58,100,0
2,53,100,0
2,62,100,0
2,60,100,0
2,58,100,0
2,62,100,0
2,53,100,0
2,65,99,0
2,70,99,0
2,58,99,0
2,62,99,0
2,69,99,0
2,67,99,0
2,65,99,0
2,62,99,0
2,60,99,0
2,53,99,0
2,58,99,0
2,60,99,0
2,62,99,0
2,57,99,192
2,60,99,0
2,65,99,0
2,67,99,0
2,65,99,0
2,57,99,0
2,60,99,0
2,62,99,0
2,65,99,0
2,57,99,0
2,60,99,0
2,62,99,0
2,65,99,0
2,72,99,0
2,70,99,0
2,74,99,0
2,74,99,0
2,77,99,0
2,72,99,192
2,70,99,0
2,72,99,0
2,74,99,0
2,77,99,0
2,72,99,192
2,70,99,0
2,77,99,0
2,74,99,0
2,72,99,0
2,67,99,0
2,57,99,0
2,60,99,0
2,65,99,0
2,69,99,0
2,65,99,0
2,60,99,0
2,67,99,0
2,69,101,0
2,65,101,0
2,60,101,0
2,72,101,0
2,69,101,0
2,65,101,0
2,74,101,0
2,67,101,0
2,64,101,0
2,64,83,0
2,67,83,0
2,76,83,0
2,74,83,0
2,72,83,0
2,64,83,0
2,67,83,0
2,74,83,0
2,72,83,0
2,64,83,0
2,67,83,0
2,74,83,0
2,60,83,0
2,57,83,0
2,65,83,0
2,57,83,0
2,60,83,0
2,65,83,0
2,76,83,0
2,69,83,0
2,65,83,0
2,72,83,0
2,69,83,0
2,65,83,0
2,72,83,0
2,69,83,0
2,64,83,0
2,67,83,0
2,74,83,0
2,64,83,0
2,67,83,0
2,69,83,0
2,72,83,0
2,69,83,0
2,60,83,0
2,64,83,0
2,70,83,0
2,72,83,0
2,67,83,0
2,60,83,0
2,57,83,0
2,65,83,0
2,62,83,0
2,53,83,0
2,60,83,0
2,58,83,0
2,53,83,0
2,62,83,0
2,60,83,0
2,58,83,0
2,62,83,0
2,53,83,0
2,65,83,0
2,70,82,0
2,58,82,0
2,62,82,0
2,69,82,0
2,67,82,0
2,65,82,0
2,62,82,0
2,60,82,0
2,53,82,0
2,58,82,0
2,60,82,0
2,62,82,0
2,57,82,192
2,60,82,0
2,65,82,0
2,67,82,0
2,65,82,0
2,67,82,0
2,65,82,0
2,60,82,0
2,72,82,0
2,77,81,0
2,69,81,0
2,77,81,0
2,77,81,0
2,74,81,0
2,70,81,0
2,77,81,0
2,69,80,0
2,74,80,0
2,72,80,0
2,69,80,0
2,67,80,0
2,65,80,0
2,67,80,0
2,69,80,0
2,60,60,0
2,62,60,0
2,65,60,0
2,72,61,768
2,70,61,0
2,69,61,0
2,69,61,0
2,67,61,0
2,65,61,0
2,62,61,0
2,65,61,0
2,62,61,0
2,60,61,0
2,57,61,0
2,55,61,0
2,53,61,0
2,60,61,0
2,62,61,0
2,65,61,0
2,67,61,0
2,65,61,0
2,60,61,0
2,65,61,0
2,69,61,0
2,69,61,0
2,65,61,0
2,60,61,0
2,60,64,0
2,70,64,0
2,65,64,0
2,60,64,0
2,69,64,0
2,65,64,0
2,60,64,0
2,69,64,0
2,65,64,0
2,60,64,0
2,68,64,0
2,63,64,0
2,58,64,0
2,63,64,0
2,58,64,0
2,67,64,0
2,58,64,0
2,65,64,0
2,62,64,0
2,69,60,0
2,65,60,0
2,60,60,0
2,69,60,0
2,65,60,0
2,60,60,0
2,60,61,0
2,70,61,0
2,65,61,0
2,60,61,0
2,69,61,0
2,65,61,0
2,60,61,0
2,69,61,0
2,65,61,0
2,60,61,0
2,68,61,0
2,58,61,0
2,63,61,0
2,58,61,0
2,63,61,0
2,67,61,0
2,58,62,0
2,65,62,0
2,62,62,0
2,82,59,0
2,84,58,48
2,86,58,48
2,89,58,48
3,53,80,0
3,51,81,4
3,46,81,0
3,46,82,0
3,48,82,0
3,50,82,0
3,53,82,0
3,41,83,0
3,36,79,0
3,41,60,384
3,53,79,0
3,53,81,0
3,52,81,0
3,52,82,0
3,53,82,44
3,52,82,0
3,50,82,0
3,50,82,0
3,48,82,0
3,46,77,0
3,48,80,0
3,50,80,0
3,48,81,0
3,53,78,192
3,58,78,0
3,53,80,0
3,58,80,0
3,53,80,0
3,58,81,0
3,53,81,96
3,55,81,0
3,53,81,0
3,53,81,0
3,48,79,0
3,53,77,0
3,52,75,0
3,53,75,0
3,52,79,0
3,48,79,0
3,45,84,0
3,48,92,0
3,41,95,0
3,41,94,0
3,41,94,0
3,40,94,0
3,40,94,0
3,40,94,0
3,38,94,0
3,36,94,0
3,36,94,0
3,33,94,0
3,33,94,0
3,33,94,0
3,34,93,0
3,34,93,0
3,34,93,0
3,36,93,0
3,36,93,0
3,36,91,0
3,41,91,0
3,41,91,0
3,41,92,0
3,36,93,0
3,38,93,0
3,41,93,0
3,41,93,0
3,41,93,0
3,29,94,0
3,31,101,0
3,32,109,0
3,33,106,0
3,36,106,0
3,37,106,0
3,38,106,0
3,39,106,0
3,39,106,0
3,31,106,0
3,32,106,0
3,33,106,0
3,35,106,0
3,35,106,0
3,38,106,0
3,39,106,0
3,40,106,0
3,41,106,0
3,36,106,0
3,29,106,0
3,36,106,0
3,41,106,0
3,33,106,0
3,36,106,0
3,32,106,0
3,32,106,0
3,34,106,0
3,37,106,0
3,38,106,0
3,39,106,0
3,39,106,0
3,31,106,0
3,32,106,0
3,33,106,0
3,34,106,0
3,34,106,0
3,34,106,0
3,36,106,0
3,41,90,0
3,41,90,0
3,41,90,0
3,40,93,0
3,40,93,0
3,40,93,0
3,38,93,0
3,36,93,0
3,36,93,0
3,33,93,0
3,33,92,0
3,33,92,0
3,34,91,0
3,33,90,0
3,31,90,0
3,36,90,0
3,36,90,0
3,36,89,0
3,38,89,0
3,41,89,0
3,41,88,0
3,41,88,0
3,45,88,0
3,48,88,0
3,53,88,0
3,53,88,0
3,50,88,0
3,48,88,0
3,45,88,0
3,48,88,0
3,41,91,0
3,41,94,0
3,41,94,0
3,40,94,0
3,40,94,0
3,40,94,0
3,38,94,0
3,36,94,0
3,36,94,0
3,33,94,0
3,33,94,0
3,33,94,0
3,34,93,0
3,34,93,0
3,34,93,0
3,36,93,0
3,36,93,0
3,36,91,0
3,41,91,0
3,41,91,0
3,41,92,0
3,36,93,0
3,38,93,0
3,41,93,0
3,41,93,0
3,41,93,0
3,29,94,0
3,31,94,0
3,32,109,0
3,33,106,0
3,36,106,0
3,37,106,0
3,38,106,0
3,39,106,0
3,39,106,0
3,31,106,0
3,32,106,0
3,33,106,0
3,35,106,0
3,35,106,0
3,38,106,0
3,39,106,0
3,40,106,0
3,41,106,0
3,36,106,0
3,29,106,0
3,36,106,0
3,41,106,0
3,33,106,0
3,36,106,0
3,32,106,0
3,32,106,0
3,34,106,0
3,37,106,0
3,38,106,0
3,39,106,0
3,39,106,0
3,31,106,0
3,32,106,0
3,33,106,0
3,34,106,0
3,34,106,0
3,34,106,0
3,36,100,0
3,36,100,0
