track,note,velocity,time
0,37,84,0
0,37,0,120
0,37,84,120
0,37,0,120
0,37,64,120
0,37,0,120
0,37,84,0
0,37,0,120
0,37,64,0
0,37,0,120
0,37,84,0
0,38,76,120
0,37,0,0
0,35,60,0
0,42,70,0
0,62,60,0
0,54,60,0
0,57,60,0
0,42,0,25
0,35,0,0
0,42,90,95
0,37,70,0
0,62,73,0
0,54,47,0
0,37,0,25
0,42,0,0
0,54,0,6
0,62,0,0
0,42,40,57
0,42,0,25
0,45,61,7
0,35,60,0
0,42,80,0
0,38,0,14
0,42,0,11
0,35,0,0
0,42,90,95
0,37,80,0
0,62,70,0
0,54,52,0
0,37,0,25
0,42,0,0
0,62,0,8
0,54,0,4
0,42,50,51
0,42,0,25
0,45,0,7
0,38,76,0
0,35,60,0
0,42,80,0
0,57,0,0
0,54,0,0
0,62,0,0
0,62,60,0
0,54,60,0
0,69,60,0
0,42,0,25
0,35,0,0
0,42,90,95
0,37,70,0
0,62,73,0
0,54,47,0
0,37,0,25
0,42,0,0
0,54,0,6
0,62,0,0
0,38,0,22
0,42,40,34
0,38,84,1
0,42,0,24
0,45,68,8
0,35,60,0
0,42,80,0
0,38,0,18
0,42,0,7
0,35,0,0
0,42,90,95
0,37,85,0
0,62,70,0
0,54,52,0
0,37,0,25
0,42,0,0
0,62,0,8
0,54,0,4
0,45,0,11
0,57,64,0
0,35,50,27
0,42,50,0
0,45,65,1
0,42,0,24
0,35,0,0
0,45,0,3
0,38,78,0
0,35,60,0
0,42,70,0
0,69,0,0
0,54,0,0
0,62,0,0
0,62,60,0
0,54,60,0
0,57,60,0
0,57,0,0
0,66,64,0
0,42,0,25
0,35,0,0
0,42,90,95
0,37,70,0
0,62,73,0
0,54,47,0
0,37,0,25
0,42,0,0
0,54,0,6
0,62,0,0
0,42,40,57
0,42,0,25
0,38,0,2
0,45,82,5
0,35,60,0
0,42,80,0
0,42,0,25
0,35,0,0
0,66,0,0
0,57,64,0
0,42,90,0
0,37,80,0
0,62,70,0
0,54,52,0
0,57,0,0
0,66,64,0
0,37,0,25
0,42,0,0
0,62,0,8
0,54,0,4
0,66,0,0
0,57,64,0
0,26,60,28
0,42,50,0
0,45,0,7
0,26,0,4
0,42,0,14
0,37,69,0
0,35,60,0
0,42,70,0
0,57,0,0
0,54,0,0
0,62,0,0
0,54,60,0
0,66,60,0
0,57,60,0
0,61,60,0
0,57,0,0
0,66,64,0
0,42,0,25
0,35,0,0
0,42,90,95
0,37,70,0
0,61,73,0
0,54,47,0
0,37,0,25
0,42,0,0
0,54,0,6
0,61,0,0
0,37,0,2
0,37,69,53
0,42,40,2
0,42,0,25
0,49,68,7
0,35,60,0
0,42,80,0
0,37,0,18
0,42,0,7
0,35,0,0
0,49,0,29
0,66,0,0
0,57,64,0
0,49,78,26
0,34,77,0
0,42,90,0
0,37,80,0
0,61,70,0
0,54,52,0
0,57,0,0
0,66,64,0
0,49,0,8
0,37,0,17
0,42,0,0
0,61,0,8
0,54,0,4
0,66,0,0
0,64,64,0
0,61,0,15
0,54,0,0
0,66,0,0
0,57,0,0
0,54,60,10
0,69,60,0
0,60,60,0
0,64,60,0
0,35,50,3
0,42,50,0
0,42,0,25
0,35,0,0
0,34,0,0
0,36,85,0
0,35,60,0
0,42,70,0
0,64,0,0
0,66,64,0
0,42,0,25
0,35,0,0
0,42,90,95
0,37,70,0
0,54,73,0
0,48,47,0
0,37,0,25
0,42,0,0
0,48,0,6
0,54,0,0
0,42,40,57
0,42,0,25
0,36,0,7
0,36,85,0
0,35,60,0
0,42,80,0
0,42,0,25
0,35,0,0
0,66,0,0
0,57,64,0
0,42,90,0
0,37,80,0
0,54,70,0
0,48,52,0
0,57,0,0
0,66,64,0
0,37,0,25
0,42,0,0
0,54,0,8
0,48,0,4
0,66,0,0
0,64,64,0
0,36,0,6
0,36,80,22
0,42,50,0
0,42,0,25
0,64,0,5
0,54,0,0
0,69,0,0
0,60,0,0
0,36,0,0
0,35,76,0
0,35,60,0
0,42,70,0
0,57,60,0
0,72,60,0
0,63,60,0
0,67,60,0
0,64,0,0
0,64,64,0
0,42,0,25
0,35,0,0
0,64,0,0
0,63,64,0
0,42,90,60
0,37,70,0
0,57,73,0
0,51,47,0
0,37,0,25
0,42,0,0
0,51,0,6
0,57,0,0
0,35,0,22
0,35,84,35
0,42,40,0
0,42,0,25
0,42,68,7
0,35,60,0
0,42,80,0
0,35,0,18
0,42,0,7
0,35,0,0
0,42,90,95
0,37,80,0
0,57,70,0
0,51,52,0
0,63,0,0
0,37,0,25
0,42,0,0
0,57,0,8
0,51,0,4
0,42,0,11
0,59,64,0
0,42,65,28
0,42,50,0
0,42,0,25
0,42,0,2
0,40,85,0
0,35,60,0
0,42,70,0
0,67,0,0
0,57,0,0
0,72,0,0
0,63,0,0
0,64,60,0
0,55,60,0
0,59,60,0
0,59,0,0
0,67,64,0
0,42,0,25
0,35,0,0
0,42,80,95
0,37,70,0
0,59,73,0
0,52,47,0
0,37,0,25
0,42,0,0
0,52,0,6
0,59,0,0
0,42,40,57
0,42,0,25
0,40,0,7
0,35,85,0
0,35,60,0
0,42,80,0
0,42,0,25
0,35,0,0
0,67,0,0
0,59,64,0
0,42,80,0
0,37,80,0
0,59,70,0
0,52,52,0
0,59,0,0
0,67,64,0
0,37,0,25
0,42,0,0
0,59,0,8
0,52,0,4
0,67,0,0
0,66,64,0
0,35,0,6
0,44,80,22
0,42,50,0
0,42,0,25
0,44,0,0
0,38,87,0
0,46,54,0
0,59,0,0
0,55,0,0
0,64,0,0
0,67,60,0
0,59,60,0
0,62,60,0
0,66,0,0
0,67,64,0
0,46,0,25
0,50,70,95
0,42,70,0
0,37,80,0
0,62,73,0
0,55,47,0
0,38,0,9
0,37,0,16
0,42,0,0
0,55,0,6
0,62,0,0
0,42,40,55
0,42,0,25
0,50,82,9
0,35,60,0
0,42,80,0
0,50,0,14
0,42,0,11
0,35,0,0
0,67,0,0
0,59,64,0
0,47,88,0
0,35,60,0
0,42,80,0
0,62,70,0
0,55,52,0
0,59,0,0
0,67,64,0
0,50,0,3
0,42,0,22
0,35,0,0
0,62,0,8
0,55,0,4
0,67,0,0
0,66,64,0
0,42,50,26
0,42,0,25
0,47,0,0
0,37,82,0
0,35,60,0
0,42,80,0
0,62,0,0
0,59,0,0
0,67,0,0
0,67,60,0
0,70,60,0
0,61,60,0
0,77,60,0
0,66,0,0
0,67,64,0
0,42,0,25
0,35,0,0
0,42,90,95
0,37,70,0
0,55,73,0
0,49,47,0
0,37,0,25
0,42,0,0
0,49,0,6
0,55,0,0
0,42,40,56
0,42,0,25
0,40,85,8
0,35,60,0
0,42,80,0
0,37,0,9
0,42,0,16
0,35,0,0
0,67,0,0
0,67,64,0
0,42,90,0
0,37,85,0
0,55,70,0
0,49,52,0
0,67,0,0
0,69,64,0
0,37,0,25
0,42,0,0
0,55,0,8
0,49,0,4
0,69,0,0
0,64,64,0
0,42,50,27
0,40,0,1
0,37,82,0
0,37,0,22
0,42,0,2
0,38,76,0
0,35,60,0
0,42,70,0
0,77,0,0
0,67,0,0
0,70,0,0
0,61,0,0
0,62,60,0
0,74,60,0
0,66,60,0
0,69,60,0
0,64,0,0
0,67,64,0
0,42,0,25
0,35,0,0
0,67,0,0
0,66,64,0
0,42,90,60
0,37,70,0
0,62,73,0
0,54,47,0
0,37,0,25
0,42,0,0
0,54,0,6
0,62,0,0
0,42,40,57
0,42,0,25
0,45,61,7
0,35,60,0
0,42,80,0
0,38,0,14
0,42,0,11
0,35,0,0
0,42,90,95
0,37,80,0
0,62,70,0
0,54,52,0
0,66,0,0
0,37,0,25
0,42,0,0
0,62,0,8
0,54,0,4
0,62,64,0
0,42,50,28
0,42,0,25
0,45,0,0
0,38,85,0
0,35,60,0
0,42,80,0
0,69,0,0
0,62,0,0
0,74,0,0
0,66,0,0
0,62,60,0
0,66,60,0
0,69,60,0
0,62,0,0
0,69,64,0
0,42,0,25
0,35,0,0
0,42,90,95
0,37,70,0
0,62,73,0
0,54,47,0
0,37,0,25
0,42,0,0
0,54,0,6
0,62,0,0
0,26,47,9
0,38,0,10
0,26,0,17
0,38,82,13
0,42,40,7
0,38,0,5
0,42,0,20
0,38,82,8
0,35,60,0
0,42,80,0
0,69,0,0
0,66,0,0
0,62,0,0
0,60,60,0
0,74,60,0
0,66,60,0
0,70,60,0
0,42,0,25
0,35,0,0
0,69,0,0
0,68,64,0
0,42,90,0
0,37,85,0
0,60,73,0
0,54,47,0
0,68,0,0
0,69,64,0
0,37,0,25
0,42,0,0
0,54,0,6
0,60,0,0
0,69,0,0
0,68,64,0
0,42,50,27
0,42,0,25
0,38,0,0
0,38,85,0
0,35,60,0
0,42,80,0
0,70,0,0
0,60,0,0
0,74,0,0
0,66,0,0
0,67,60,0
0,71,60,0
0,60,60,0
0,76,60,0
0,68,0,0
0,69,64,0
0,42,0,25
0,35,0,0
0,42,90,95
0,37,70,0
0,55,68,0
0,37,0,25
0,42,0,0
0,55,0,3
0,26,47,12
0,38,0,10
0,26,0,17
0,38,82,13
0,42,40,6
0,38,0,6
0,42,0,19
0,40,82,9
0,35,60,0
0,42,80,0
0,76,0,0
0,67,0,0
0,71,0,0
0,60,0,0
0,62,60,0
0,64,60,0
0,68,60,0
0,71,60,0
0,42,0,25
0,35,0,0
0,69,0,0
0,67,64,0
0,38,50,26
0,38,0,25
0,35,80,0
0,38,60,0
0,42,90,0
0,37,85,0
0,56,68,0
0,67,0,0
0,69,64,0
0,37,0,25
0,35,0,0
0,38,0,0
0,42,0,0
0,56,0,3
0,69,0,0
0,71,64,0
0,42,50,26
0,42,0,25
0,40,0,0
0,43,76,0
0,35,60,0
0,42,70,0
0,71,0,0
0,62,0,0
0,64,0,0
0,68,0,0
0,67,60,0
0,59,60,0
0,74,60,0
0,71,0,0
0,69,64,0
0,42,0,25
0,35,0,0
0,42,90,95
0,37,80,0
0,62,73,0
0,55,47,0
0,37,0,25
0,42,0,0
0,55,0,6
0,62,0,0
0,42,40,55
0,42,0,25
0,50,61,0
0,35,60,0
0,42,70,0
0,69,0,0
0,67,64,0
0,43,0,14
0,42,0,11
0,35,0,0
0,42,90,0
0,37,78,0
0,62,70,0
0,55,52,0
0,67,0,0
0,67,64,0
0,37,0,25
0,42,0,0
0,62,0,8
0,55,0,4
0,67,0,0
0,66,64,0
0,42,50,26
0,42,0,25
0,50,0,0
0,44,76,0
0,35,60,0
0,42,70,0
0,74,0,0
0,59,0,0
0,67,0,0
0,62,60,0
0,66,60,0
0,55,60,0
0,71,60,0
0,66,0,0
0,69,64,0
0,42,0,25
0,35,0,0
0,69,0,0
0,67,64,0
0,42,90,60
0,37,80,0
0,55,73,0
0,50,47,0
0,37,0,25
0,42,0,0
0,50,0,6
0,55,0,0
0,42,40,55
0,42,0,25
0,47,61,9
0,35,60,0
0,42,70,0
0,44,0,14
0,42,0,11
0,35,0,0
0,42,90,0
0,37,78,0
0,55,70,0
0,50,52,0
0,67,0,0
0,69,64,0
0,37,0,25
0,42,0,0
0,55,0,8
0,50,0,4
0,42,50,49
0,42,0,25
0,47,0,0
0,33,78,0
0,46,54,0
0,71,0,0
0,62,0,0
0,66,0,0
0,55,0,0
0,62,60,0
0,54,60,0
0,57,60,0
0,69,0,0
0,66,64,0
0,46,0,25
0,42,70,95
0,37,80,0
0,62,73,0
0,54,47,0
0,37,0,25
0,42,0,0
0,54,0,6
0,62,0,0
0,42,40,55
0,42,0,25
0,33,0,4
0,33,82,5
0,35,60,0
0,42,80,0
0,42,0,25
0,35,0,0
0,66,0,0
0,57,64,0
0,35,60,0
0,42,80,0
0,62,70,0
0,54,52,0
0,57,0,0
0,67,64,0
0,42,0,25
0,35,0,0
0,62,0,8
0,54,0,4
0,67,0,0
0,66,64,0
0,42,50,26
0,21,60,2
0,33,0,7
0,21,0,4
0,42,0,12
0,33,76,0
0,35,60,0
0,42,70,0
0,57,0,0
0,54,0,0
0,62,0,0
0,62,60,0
0,66,60,0
0,55,60,0
0,71,60,0
0,66,0,0
0,64,64,0
0,42,0,25
0,35,0,0
0,42,80,95
0,37,70,0
0,55,68,0
0,37,0,25
0,42,0,0
0,55,0,3
0,33,0,60
0,34,78,0
0,42,40,0
0,42,0,25
0,34,0,0
0,33,70,0
0,35,60,0
0,42,80,0
0,71,0,0
0,62,0,0
0,66,0,0
0,55,0,0
0,55,60,0
0,57,60,0
0,61,60,0
0,64,60,0
0,64,0,0
0,61,64,0
0,42,0,25
0,35,0,0
0,42,80,0
0,37,80,0
0,55,68,0
0,61,0,0
0,62,64,0
0,37,0,25
0,42,0,0
0,55,0,3
0,62,0,0
0,64,64,0
0,42,50,28
0,42,0,25
0,33,0,7
0,38,76,0
0,35,60,0
0,42,80,0
0,64,0,0
0,55,0,0
0,57,0,0
0,61,0,0
0,62,60,0
0,64,60,0
0,55,60,0
0,59,60,0
0,64,0,0
0,42,0,25
0,35,0,0
0,42,90,0
0,37,70,0
0,55,73,0
0,50,47,0
0,64,64,0
0,37,0,25
0,42,0,0
0,50,0,6
0,55,0,0
0,42,40,56
0,42,0,25
0,47,61,8
0,35,60,0
0,42,80,0
0,38,0,14
0,42,0,11
0,35,0,0
0,42,90,95
0,37,85,0
0,55,70,0
0,50,52,0
0,37,0,25
0,42,0,0
0,55,0,8
0,50,0,4
0,59,0,38
0,62,0,0
0,64,0,0
0,55,0,0
0,62,60,10
0,54,60,0
0,69,60,0
0,42,50,2
0,42,0,25
0,47,0,0
0,38,85,0
0,35,60,0
0,42,60,0
0,64,0,0
0,62,64,0
0,42,0,25
0,35,0,0
0,42,60,95
0,62,73,0
0,54,47,0
0,42,0,25
0,54,0,6
0,62,0,0
0,38,40,56
0,42,40,0
0,42,0,25
0,38,0,0
0,38,0,8
0,45,85,0
0,35,60,0
0,42,60,0
0,42,0,25
0,35,0,0
0,38,40,62
0,38,0,25
0,35,70,8
0,42,70,0
0,62,70,0
0,54,52,0
0,62,0,0
0,42,0,25
0,35,0,0
0,62,0,8
0,54,0,4
0,57,64,0
0,45,0,6
0,38,40,21
0,42,40,0
0,39,80,1
0,42,0,24
0,38,0,0
0,69,0,6
0,54,0,0
0,62,0,0
0,39,0,0
0,38,85,0
0,49,50,0
0,62,60,0
0,54,60,0
0,69,60,0
0,62,48,0
0,54,41,0
0,57,0,0
0,66,64,0
0,49,0,25
0,38,0,19
0,38,50,41
0,38,73,4
0,38,0,21
0,62,0,8
0,40,64,2
0,42,80,0
0,37,70,0
0,51,90,0
0,54,0,0
0,62,79,0
0,54,57,0
0,38,0,21
0,51,0,4
0,37,0,0
0,42,0,0
0,54,0,16
0,62,0,0
0,51,70,44
0,51,0,25
0,40,0,10
0,42,75,0
0,38,40,0
0,51,70,0
0,62,30,0
0,54,25,0
0,51,0,25
0,38,0,0
0,66,0,0
0,69,64,0
0,54,0,52
0,62,0,0
0,42,0,7
0,45,67,0
0,42,100,0
0,37,70,0
0,51,90,0
0,62,86,0
0,54,52,0
0,69,0,0
0,66,64,0
0,51,0,25
0,37,0,0
0,42,0,0
0,54,0,22
0,62,0,0
0,66,0,0
0,64,64,0
0,69,0,15
0,54,0,0
0,62,0,0
0,51,70,10
0,54,60,0
0,57,60,0
0,61,60,0
0,51,0,25
0,45,0,0
0,37,71,0
0,51,80,0
0,61,54,0
0,54,39,0
0,64,0,0
0,66,64,0
0,51,0,25
0,61,0,34
0,54,0,8
0,44,73,53
0,42,70,0
0,37,70,0
0,51,90,0
0,61,78,0
0,54,51,0
0,37,0,20
0,51,0,5
0,37,0,0
0,42,0,0
0,61,0,7
0,54,0,6
0,51,70,49
0,51,0,25
0,45,68,8
0,51,90,0
0,61,33,0
0,44,0,11
0,51,0,14
0,61,0,20
0,66,0,0
0,57,64,0
0,49,69,0
0,42,100,0
0,51,90,0
0,61,80,0
0,54,65,0
0,57,0,0
0,66,64,0
0,45,0,20
0,51,0,5
