track,note,velocity,time
1,73,80,960
1,73,80,12
1,73,80,12
1,73,80,12
1,75,80,252
1,75,80,12
1,75,80,12
1,75,80,12
1,72,80,252
1,72,80,12
1,72,80,12
1,72,80,12
1,73,80,252
1,73,80,12
1,73,80,12
1,73,80,12
1,73,80,252
1,73,80,12
1,73,80,12
1,73,80,12
1,75,80,252
1,75,80,12
1,75,80,12
1,75,80,12
1,72,80,252
1,72,80,12
1,72,80,12
1,72,80,12
1,73,80,252
1,73,80,12
1,73,80,12
1,73,80,12
1,73,80,252
1,73,80,12
1,73,80,12
1,73,80,12
1,75,80,252
1,75,80,12
1,75,80,12
1,75,80,12
1,72,80,252
1,72,80,12
1,72,80,12
1,72,80,12
1,73,80,252
1,73,80,12
1,73,80,12
1,73,80,12
1,73,80,252
1,73,80,12
1,73,80,12
1,73,80,12
1,75,80,252
1,75,80,12
1,75,80,12
1,75,80,12
1,72,80,252
1,72,80,12
1,72,80,12
1,72,80,12
1,73,80,252
1,73,80,12
1,73,80,12
1,73,80,12
1,73,80,7932
1,75,80,96
1,72,80,96
1,73,80,96
1,73,80,216
1,72,80,24
1,75,80,24
1,72,80,24
1,70,80,24
1,68,80,24
1,65,80,168
1,65,80,24
1,63,80,24
1,65,80,24
1,68,80,24
1,63,80,24
1,70,80,24
1,72,80,12
1,73,80,12
1,75,80,96
1,72,80,96
1,70,80,48
1,68,80,24
1,75,80,24
1,73,80,24
1,72,80,192
1,68,80,24
1,73,80,24
1,72,80,24
1,68,80,24
1,65,80,24
1,70,80,24
1,72,80,12
1,73,80,12
1,75,80,48
1,77,80,48
1,78,80,24
1,82,80,48
1,80,80,24
1,77,80,48
1,75,80,84
1,70,80,24
1,70,80,12
1,70,80,0
1,73,80,24
1,75,80,24
1,77,80,24
1,73,80,84
1,75,80,24
1,70,80,144
1,73,80,24
1,75,80,24
1,77,80,132
1,77,80,144
1,75,80,144
1,73,80,24
1,73,80,24
1,75,80,24
1,77,80,24
1,73,80,36
1,75,80,24
1,77,80,144
1,80,80,24
1,77,80,24
1,73,80,24
1,77,80,192
1,80,80,24
1,75,80,24
1,73,80,24
1,73,80,24
1,75,80,24
1,77,80,24
1,73,80,36
1,75,80,24
1,70,80,144
1,73,80,24
1,75,80,24
1,77,80,84
1,77,80,144
1,77,80,144
1,77,80,144
1,77,80,144
1,77,80,144
1,77,80,144
1,77,80,24
1,73,80,24
1,75,80,24
1,75,80,24
1,73,80,48
1,72,80,144
1,72,80,12
1,72,80,12
1,72,80,12
1,73,80,252
1,73,80,12
1,73,80,12
1,73,80,12
1,73,80,252
1,73,80,12
1,73,80,12
1,73,80,12
1,75,80,252
1,75,80,12
1,75,80,12
1,75,80,12
1,72,80,252
1,72,80,12
1,72,80,12
1,72,80,12
1,73,80,252
1,73,80,12
1,73,80,12
1,73,80,12
1,73,80,7932
1,75,80,96
1,72,80,96
1,73,80,96
1,73,80,216
1,72,80,24
1,75,80,24
1,72,80,24
1,70,80,24
1,68,80,24
1,65,80,168
1,65,80,24
1,63,80,24
1,65,80,24
1,68,80,24
1,63,80,24
1,70,80,24
1,72,80,12
1,73,80,12
1,75,80,96
1,72,80,96
1,70,80,48
1,68,80,24
1,75,80,24
1,73,80,24
1,72,80,192
1,68,80,24
1,73,80,24
1,72,80,24
1,68,80,24
1,65,80,24
1,70,80,24
1,72,80,12
1,73,80,12
1,75,80,48
1,77,80,48
1,78,80,24
1,82,80,48
1,80,80,24
1,77,80,48
1,75,80,84
1,70,80,24
1,70,80,12
1,70,80,0
1,73,80,24
1,75,80,24
1,77,80,24
1,73,80,84
1,75,80,24
1,70,80,144
1,73,80,24
1,75,80,24
1,77,80,132
1,77,80,144
1,75,80,144
1,73,80,24
1,73,80,24
1,75,80,24
1,77,80,24
1,73,80,36
1,75,80,24
1,77,80,144
1,80,80,24
1,77,80,24
1,73,80,24
1,77,80,192
1,80,80,24
1,75,80,24
1,73,80,24
1,73,80,24
1,75,80,24
1,77,80,24
1,73,80,36
1,75,80,24
1,70,80,144
1,73,80,24
1,75,80,24
1,77,80,84
1,77,80,144
1,77,80,144
1,77,80,144
1,77,80,144
1,77,80,144
1,77,80,144
1,77,80,24
1,73,80,24
1,75,80,24
1,75,80,24
1,73,80,48
1,77,80,144
1,73,80,84
1,75,80,24
1,70,80,144
1,73,80,24
1,75,80,24
1,77,80,132
1,77,80,144
1,75,80,144
1,73,80,24
1,73,80,24
1,75,80,24
1,77,80,24
1,73,80,36
1,75,80,24
1,77,80,144
1,80,80,24
1,77,80,24
1,73,80,24
1,77,80,192
1,80,80,24
1,75,80,24
1,73,80,24
1,73,80,24
1,75,80,24
1,77,80,24
1,73,80,36
1,75,80,24
1,70,80,144
1,73,80,24
1,75,80,24
1,77,80,84
1,77,80,144
1,77,80,144
1,77,80,144
1,77,80,144
1,77,80,144
1,77,80,144
1,77,80,24
1,73,80,24
1,75,80,24
1,75,80,24
1,73,80,48
1,77,80,144
1,73,80,84
1,75,80,24
1,70,80,144
1,73,80,24
1,75,80,24
1,77,80,132
1,77,80,144
1,75,80,144
1,73,80,24
1,73,80,24
1,75,80,24
1,77,80,24
1,73,80,36
1,75,80,24
1,77,80,144
1,80,80,24
1,77,80,24
1,73,80,24
1,77,80,192
1,80,80,24
1,75,80,24
1,73,80,24
1,73,80,24
1,75,80,24
1,77,80,24
1,73,80,36
1,75,80,24
1,70,80,144
1,73,80,24
1,75,80,24
1,77,80,84
1,77,80,144
1,77,80,144
1,77,80,144
1,77,80,144
1,77,80,144
1,77,80,144
1,77,80,24
1,73,80,24
1,75,80,24
1,75,80,24
1,73,80,48
2,61,80,960
2,61,80,12
2,61,80,12
2,61,80,12
2,63,80,252
2,63,80,12
2,63,80,12
2,63,80,12
2,60,80,252
2,60,80,12
2,60,80,12
2,60,80,12
2,61,80,252
2,61,80,12
2,61,80,12
2,61,80,12
2,61,80,252
2,61,80,12
2,61,80,12
2,61,80,12
2,63,80,252
2,63,80,12
2,63,80,12
2,63,80,12
2,60,80,252
2,60,80,12
2,60,80,12
2,60,80,12
2,61,80,252
2,61,80,12
2,61,80,12
2,61,80,12
2,61,80,252
2,61,80,12
2,61,80,12
2,61,80,12
2,63,80,252
2,63,80,12
2,63,80,12
2,63,80,12
2,60,80,252
2,60,80,12
2,60,80,12
2,60,80,12
2,61,80,252
2,61,80,12
2,61,80,12
2,61,80,12
2,61,80,252
2,61,80,12
2,61,80,12
2,61,80,12
2,63,80,252
2,63,80,12
2,63,80,12
2,63,80,12
2,60,80,252
2,60,80,12
2,60,80,12
2,60,80,12
2,61,80,252
2,61,80,12
2,61,80,12
2,61,80,12
2,61,80,15612
2,61,80,12
2,61,80,12
2,61,80,12
2,63,80,252
2,63,80,12
2,63,80,12
2,63,80,12
2,60,80,252
2,60,80,12
2,60,80,12
2,60,80,12
2,61,80,252
2,61,80,12
2,61,80,12
2,61,80,12
2,61,80,252
2,61,80,12
2,61,80,12
2,61,80,12
2,63,80,252
2,63,80,12
2,63,80,12
2,63,80,12
2,60,80,252
2,60,80,12
2,60,80,12
2,60,80,12
2,61,80,252
2,61,80,12
2,61,80,12
2,61,80,12
2,61,80,252
2,61,80,12
2,61,80,12
2,61,80,12
2,63,80,252
2,63,80,12
2,63,80,12
2,63,80,12
2,60,80,252
2,60,80,12
2,60,80,12
2,60,80,12
2,61,80,252
2,61,80,12
2,61,80,12
2,61,80,12
2,61,80,252
2,61,80,12
2,61,80,12
2,61,80,12
2,63,80,252
2,63,80,12
2,63,80,12
2,63,80,12
2,60,80,252
2,60,80,12
2,60,80,12
2,60,80,12
2,61,80,252
2,61,80,12
2,61,80,12
2,61,80,12
2,61,80,252
2,61,80,12
2,61,80,12
2,61,80,12
2,63,80,252
2,63,80,12
2,63,80,12
2,63,80,12
2,60,80,252
2,60,80,12
2,60,80,12
2,60,80,12
2,61,80,252
2,61,80,12
2,61,80,12
2,61,80,12
2,61,80,252
2,61,80,12
2,61,80,12
2,61,80,12
2,63,80,252
2,63,80,12
2,63,80,12
2,63,80,12
2,60,80,252
2,60,80,12
2,60,80,12
2,60,80,12
2,61,80,252
2,61,80,12
2,61,80,12
2,61,80,12
2,61,80,15612
2,61,80,12
2,61,80,12
2,61,80,12
2,63,80,252
2,63,80,12
2,63,80,12
2,63,80,12
2,60,80,252
2,60,80,12
2,60,80,12
2,60,80,12
2,61,80,252
2,61,80,12
2,61,80,12
2,61,80,12
2,61,80,252
2,61,80,12
2,61,80,12
2,61,80,12
2,63,80,252
2,63,80,12
2,63,80,12
2,63,80,12
2,60,80,252
2,60,80,12
2,60,80,12
2,60,80,12
2,61,80,252
2,61,80,12
2,61,80,12
2,61,80,12
2,61,80,252
2,61,80,12
2,61,80,12
2,61,80,12
2,63,80,252
2,63,80,12
2,63,80,12
2,63,80,12
2,60,80,252
2,60,80,12
2,60,80,12
2,60,80,12
2,61,80,252
2,61,80,12
2,61,80,12
2,61,80,12
2,61,80,252
2,61,80,12
2,61,80,12
2,61,80,12
2,63,80,252
2,63,80,12
2,63,80,12
2,63,80,12
2,60,80,252
2,60,80,12
2,60,80,12
2,60,80,12
2,61,80,252
2,61,80,12
2,61,80,12
2,61,80,12
2,61,80,252
2,61,80,12
2,61,80,12
2,61,80,12
2,63,80,252
2,63,80,12
2,63,80,12
2,63,80,12
2,60,80,252
2,60,80,12
2,60,80,12
2,60,80,12
2,61,80,252
2,61,80,12
2,61,80,12
2,61,80,12
2,61,80,252
2,61,80,12
2,61,80,12
2,61,80,12
2,63,80,252
2,63,80,12
2,63,80,12
2,63,80,12
2,60,80,252
2,60,80,12
2,60,80,12
2,60,80,12
2,61,80,252
2,61,80,12
2,61,80,12
2,61,80,12
2,61,80,252
2,61,80,12
2,61,80,12
2,61,80,12
2,63,80,252
2,63,80,12
2,63,80,12
2,63,80,12
2,60,80,252
2,60,80,12
2,60,80,12
2,60,80,12
2,61,80,252
2,61,80,12
2,61,80,12
2,61,80,12
2,61,80,252
2,61,80,12
2,61,80,12
2,61,80,12
2,63,80,252
2,63,80,12
2,63,80,12
2,63,80,12
2,60,80,252
2,60,80,12
2,60,80,12
2,60,80,12
2,61,80,252
2,61,80,12
2,61,80,12
2,61,80,12
2,61,80,252
2,61,80,12
2,61,80,12
2,61,80,12
2,63,80,252
2,63,80,12
2,63,80,12
2,63,80,12
2,60,80,252
2,60,80,12
2,60,80,12
2,60,80,12
2,61,80,252
2,61,80,12
2,61,80,12
2,61,80,12
2,61,80,252
2,61,80,12
2,61,80,12
2,61,80,12
2,63,80,252
2,63,80,12
2,63,80,12
2,63,80,12
2,60,80,252
2,60,80,12
2,60,80,12
2,60,80,12
2,61,80,252
2,61,80,12
2,61,80,12
2,61,80,12
2,61,80,252
2,61,80,12
2,61,80,12
2,61,80,12
2,63,80,252
2,63,80,12
2,63,80,12
2,63,80,12
2,60,80,252
2,60,80,12
2,60,80,12
2,60,80,12
2,61,80,252
2,61,80,12
2,61,80,12
2,61,80,12
2,61,80,252
2,61,80,12
2,61,80,12
2,61,80,12
2,63,80,252
2,63,80,12
2,63,80,12
2,63,80,12
2,60,80,252
2,60,80,12
2,60,80,12
2,60,80,12
2,61,80,252
2,61,80,12
2,61,80,12
2,61,80,12
2,61,80,252
2,61,80,12
2,61,80,12
2,61,80,12
2,63,80,252
2,63,80,12
2,63,80,12
2,63,80,12
2,60,80,252
2,60,80,12
2,60,80,12
2,60,80,12
2,61,80,252
2,61,80,12
2,61,80,12
2,61,80,12
3,37,80,960
3,37,80,72
3,39,80,384
3,36,80,24
3,36,80,72
3,37,80,384
3,37,80,24
3,37,80,72
3,39,80,384
3,36,80,24
3,36,80,72
3,37,80,384
3,37,80,24
3,37,80,72
3,39,80,384
3,36,80,24
3,36,80,72
3,37,80,384
3,37,80,24
3,37,80,72
3,39,80,384
3,36,80,24
3,36,80,72
3,37,80,384
3,37,80,24
3,37,80,72
3,39,80,384
3,34,80,24
3,34,80,72
3,37,80,384
3,37,80,24
3,37,80,72
3,39,80,384
3,34,80,24
3,34,80,72
3,37,80,384
3,37,80,24
3,37,80,72
3,39,80,384
3,34,80,24
3,34,80,72
3,37,80,384
3,37,80,24
3,37,80,72
3,39,80,384
3,36,80,24
3,36,80,72
3,37,80,384
3,37,80,24
3,37,80,72
3,39,80,384
3,36,80,24
3,36,80,72
3,37,80,384
3,37,80,24
3,37,80,72
3,39,80,384
3,36,80,24
3,36,80,72
3,37,80,384
3,37,80,24
3,37,80,72
3,39,80,384
3,36,80,24
3,36,80,72
3,37,80,384
3,37,80,24
3,37,80,72
3,39,80,384
3,36,80,24
3,36,80,72
3,37,80,384
3,37,80,24
3,37,80,72
3,39,80,384
3,36,80,24
3,36,80,72
3,37,80,384
3,37,80,24
3,37,80,72
3,39,80,384
3,36,80,24
3,36,80,72
3,37,80,384
3,37,80,24
3,37,80,72
3,39,80,384
3,36,80,24
3,36,80,72
3,37,80,384
3,37,80,24
3,37,80,72
3,39,80,384
3,36,80,24
3,36,80,72
3,37,80,384
3,37,80,24
3,37,80,72
3,39,80,384
3,36,80,24
3,36,80,72
3,37,80,384
3,37,80,24
3,37,80,72
3,39,80,384
3,36,80,24
3,36,80,72
3,37,80,384
3,37,80,24
3,37,80,72
3,39,80,384
3,34,80,24
3,34,80,72
3,37,80,384
3,37,80,24
3,37,80,72
3,39,80,384
3,34,80,24
3,34,80,72
3,37,80,384
3,37,80,24
3,37,80,72
3,39,80,384
3,34,80,24
3,34,80,72
3,37,80,384
3,37,80,24
3,37,80,72
3,39,80,384
3,34,80,24
3,34,80,72
3,37,80,384
3,37,80,24
3,37,80,72
3,39,80,384
3,36,80,24
3,36,80,72
3,37,80,384
3,37,80,24
3,37,80,72
3,39,80,384
3,36,80,24
3,36,80,72
3,37,80,384
3,37,80,24
3,37,80,72
3,39,80,384
3,36,80,24
3,36,80,72
3,37,80,384
3,37,80,24
3,37,80,72
3,39,80,384
3,36,80,24
3,36,80,72
3,37,80,384
3,37,80,24
3,37,80,72
3,39,80,384
3,36,80,24
3,36,80,72
3,37,80,384
3,37,80,24
3,37,80,72
3,39,80,384
3,36,80,24
3,36,80,72
3,37,80,384
3,37,80,24
3,37,80,72
3,39,80,384
3,36,80,24
3,36,80,72
3,37,80,384
3,37,80,24
3,37,80,72
3,39,80,384
3,36,80,24
3,36,80,72
3,37,80,384
3,37,80,24
3,37,80,72
3,39,80,384
3,36,80,24
3,36,80,72
3,37,80,384
3,37,80,24
3,37,80,72
3,39,80,384
3,36,80,24
3,36,80,72
3,37,80,384
3,37,80,24
3,37,80,72
3,39,80,384
3,36,80,24
3,36,80,72
3,37,80,384
3,37,80,24
3,37,80,72
3,39,80,384
3,36,80,24
3,36,80,72
3,37,80,384
4,65,80,960
4,65,80,12
4,65,80,12
4,65,80,12
4,66,80,252
4,66,80,12
4,66,80,12
4,66,80,12
4,63,80,252
4,63,80,12
4,63,80,12
4,63,80,12
4,65,80,252
4,65,80,12
4,65,80,12
4,65,80,12
4,65,80,252
4,65,80,12
4,65,80,12
4,65,80,12
4,66,80,252
4,66,80,12
4,66,80,12
4,66,80,12
4,63,80,252
4,63,80,12
4,63,80,12
4,63,80,12
4,65,80,252
4,65,80,12
4,65,80,12
4,65,80,12
4,65,80,252
4,65,80,12
4,65,80,12
4,65,80,12
4,66,80,252
4,66,80,12
4,66,80,12
4,66,80,12
4,63,80,252
4,63,80,12
4,63,80,12
4,63,80,12
4,65,80,252
4,65,80,12
4,65,80,12
4,65,80,12
4,65,80,252
4,65,80,12
4,65,80,12
4,65,80,12
4,66,80,252
4,66,80,12
4,66,80,12
4,66,80,12
4,63,80,252
4,63,80,12
4,63,80,12
4,63,80,12
4,65,80,252
4,65,80,12
4,65,80,12
4,65,80,12
4,65,80,15612
4,65,80,12
4,65,80,12
4,65,80,12
4,66,80,252
4,66,80,12
4,66,80,12
4,66,80,12
4,63,80,252
4,63,80,12
4,63,80,12
4,63,80,12
