track,note,velocity,time
1,76,100,1536
1,81,100,0
1,85,100,0
1,85,0,1532
1,81,0,0
1,76,0,0
1,74,100,4
1,78,100,0
1,81,100,0
1,81,100,0
1,81,0,764
1,74,0,0
1,78,0,0
1,81,0,0
1,81,100,4
1,81,100,0
1,77,100,0
1,74,100,0
1,74,0,764
1,81,0,0
1,81,0,0
1,77,0,0
1,81,100,4
1,73,100,0
1,76,100,0
1,76,0,1532
1,73,0,0
1,81,0,0
1,78,100,4
1,75,100,0
1,71,100,0
1,71,0,572
1,75,0,0
1,78,0,0
1,76,100,4
1,71,100,0
1,71,100,0
1,80,100,0
1,80,100,576
1,71,100,0
1,71,0,188
1,76,0,0
1,71,0,0
1,80,0,0
1,71,0,192
1,80,0,0
1,76,100,12292
1,67,100,0
1,72,100,0
1,72,0,1148
1,67,0,0
1,76,0,0
1,74,100,4
1,69,100,0
1,66,100,0
1,66,0,380
1,69,0,0
1,74,0,0
1,66,100,4
1,71,100,0
1,74,100,0
1,74,0,764
1,71,0,0
1,66,0,0
1,67,100,4
1,62,100,0
1,59,100,0
1,59,0,380
1,62,0,0
1,67,0,0
1,66,100,4
1,62,100,0
1,57,100,0
1,57,0,188
1,62,0,0
1,66,0,0
1,67,100,4
1,67,100,0
1,62,100,0
1,59,100,0
1,59,0,188
1,67,0,0
1,67,0,0
1,62,0,0
1,67,100,4
1,72,100,0
1,64,100,0
1,64,0,1148
1,72,0,0
1,67,0,0
1,66,100,4
1,69,100,0
1,74,100,0
1,74,0,380
1,69,0,0
1,66,0,0
1,65,100,4
1,69,100,0
1,72,100,0
1,72,0,764
1,69,0,0
1,65,0,0
1,67,100,4
1,71,100,0
1,74,100,0
1,74,0,764
1,71,0,0
1,67,0,0
1,64,100,4
1,67,100,0
1,72,100,0
1,72,0,764
1,67,0,0
1,64,0,0
1,71,100,4
1,74,100,0
1,66,100,0
1,66,0,764
1,74,0,0
1,71,0,0
1,75,100,4
1,69,100,0
1,66,100,0
1,66,0,764
1,69,0,0
1,75,0,0
1,67,100,4
1,71,100,0
1,76,100,0
1,76,0,380
1,71,0,0
1,67,0,0
1,67,100,4
1,74,100,0
1,71,100,0
1,71,0,380
1,74,0,0
1,67,0,0
1,73,100,4
1,67,100,0
1,76,100,0
1,76,0,764
1,67,0,0
1,73,0,0
1,72,100,4
1,75,100,0
1,67,100,0
1,67,0,380
1,75,0,0
1,72,0,0
1,67,100,4
1,72,100,0
1,76,100,0
1,76,0,380
1,72,0,0
1,67,0,0
1,67,100,4
1,71,100,0
1,74,100,0
1,74,0,764
1,71,0,0
1,67,0,0
1,74,100,4
1,69,100,0
1,66,100,0
1,66,0,380
1,69,0,0
1,74,0,0
1,68,100,4
1,71,100,0
1,76,100,0
1,76,0,380
1,71,0,0
1,68,0,0
1,76,100,12292
1,67,100,0
1,72,100,0
1,72,0,1148
1,67,0,0
1,76,0,0
1,74,100,4
1,69,100,0
1,66,100,0
1,66,0,380
1,69,0,0
1,74,0,0
1,66,100,4
1,71,100,0
1,74,100,0
1,74,0,764
1,71,0,0
1,66,0,0
1,67,100,4
1,62,100,0
1,59,100,0
1,59,0,380
1,62,0,0
1,67,0,0
1,66,100,4
1,62,100,0
1,57,100,0
1,57,0,188
1,62,0,0
1,66,0,0
1,67,100,4
1,67,100,0
1,62,100,0
1,59,100,0
1,59,0,188
1,67,0,0
1,67,0,0
1,62,0,0
1,67,100,4
1,72,100,0
1,64,100,0
1,64,0,1148
1,72,0,0
1,67,0,0
1,66,100,4
1,69,100,0
1,74,100,0
1,74,0,380
1,69,0,0
1,66,0,0
1,65,100,4
1,69,100,0
1,72,100,0
1,72,0,764
1,69,0,0
1,65,0,0
1,67,100,4
1,71,100,0
1,74,100,0
1,74,0,764
1,71,0,0
1,67,0,0
1,64,100,4
1,67,100,0
1,72,100,0
1,72,0,764
1,67,0,0
1,64,0,0
1,71,100,4
1,74,100,0
1,66,100,0
1,66,0,764
1,74,0,0
1,71,0,0
1,75,100,4
1,69,100,0
1,66,100,0
1,66,0,764
1,69,0,0
1,75,0,0
1,67,100,4
1,71,100,0
1,76,100,0
1,76,0,380
1,71,0,0
1,67,0,0
1,67,100,4
1,74,100,0
1,71,100,0
1,71,0,380
1,74,0,0
1,67,0,0
1,73,100,4
1,67,100,0
1,76,100,0
1,76,0,764
1,67,0,0
1,73,0,0
1,72,100,4
1,75,100,0
1,67,100,0
1,67,0,380
1,75,0,0
1,72,0,0
1,67,100,4
1,72,100,0
1,76,100,0
1,76,0,380
1,72,0,0
1,67,0,0
1,67,100,4
1,71,100,0
1,74,100,0
1,74,0,764
1,71,0,0
1,67,0,0
1,74,100,12292
1,78,100,0
1,69,100,0
1,62,100,0
1,62,0,92
1,62,100,4
1,62,0,92
1,66,100,4
1,66,0,92
1,66,100,4
1,66,0,92
1,69,100,4
1,69,100,0
1,69,0,92
1,69,0,0
1,69,100,4
1,69,0,92
1,74,100,4
1,74,0,92
1,74,100,4
1,74,0,92
1,69,0,0
1,78,0,0
1,74,0,0
1,67,100,4
1,72,100,0
1,76,100,0
1,76,0,1532
1,72,0,0
1,67,0,0
1,71,100,4
1,74,100,0
1,66,100,0
1,66,0,764
1,74,0,0
1,71,0,0
1,67,100,4
1,71,100,0
1,76,100,0
1,76,0,764
1,71,0,0
1,67,0,0
1,72,100,4
1,67,100,0
1,76,100,0
1,76,0,1532
1,67,0,0
1,72,0,0
1,69,100,4
1,72,100,0
1,77,100,0
1,77,0,764
1,72,0,0
1,69,0,0
1,71,100,4
1,74,100,0
1,67,100,0
1,67,0,764
1,74,0,0
1,71,0,0
1,72,100,4
1,67,100,0
1,76,100,0
1,76,0,764
1,67,0,0
1,72,0,0
1,75,100,4
1,71,100,0
1,66,100,0
1,66,0,764
1,71,0,0
1,75,0,0
1,75,100,4
1,69,100,0
1,66,100,0
1,66,0,764
1,69,0,0
1,75,0,0
1,76,100,4
1,76,100,0
1,71,100,0
1,71,100,0
1,67,100,0
1,67,0,380
1,71,0,0
1,76,0,0
1,76,0,0
1,71,0,0
1,74,100,4
1,71,100,0
1,67,100,0
1,67,100,0
1,67,0,380
1,74,0,0
1,71,0,0
1,67,0,0
1,73,100,4
1,76,100,0
1,67,100,0
1,67,0,764
1,76,0,0
1,73,0,0
1,75,100,4
1,72,100,0
1,67,100,0
1,67,100,0
1,67,0,764
1,75,0,0
1,72,0,0
1,67,0,0
1,74,100,4
1,69,100,0
1,69,100,0
1,77,100,0
1,77,0,764
1,74,0,0
1,69,0,0
1,69,0,0
1,76,100,4
1,71,100,0
1,68,100,0
1,68,0,380
1,71,0,0
1,76,0,0
1,76,100,4
1,71,100,0
1,68,100,0
1,68,0,380
1,71,0,0
1,76,0,0
1,69,100,4
1,72,100,0
1,64,100,0
1,64,0,764
1,72,0,0
1,69,0,0
1,64,100,4
1,64,100,0
1,69,100,0
1,69,100,0
1,72,100,0
1,69,100,576
1,66,100,0
1,66,100,0
1,74,100,0
1,74,0,188
1,69,0,0
1,64,0,0
1,72,0,0
1,64,0,0
1,69,0,0
1,66,0,0
1,69,0,0
1,66,0,0
1,71,100,4
1,71,100,0
1,67,100,0
1,67,0,1532
1,71,0,0
1,71,0,0
1,67,100,4
1,72,100,0
1,72,100,0
1,60,100,0
1,60,100,0
1,60,0,764
1,72,0,0
1,67,0,0
1,72,0,0
1,60,0,0
1,72,100,4
1,60,100,0
1,67,100,0
1,67,0,572
1,69,100,4
1,69,0,188
1,60,0,0
1,72,0,0
1,67,100,4
1,67,100,0
1,71,100,0
1,62,100,0
1,62,100,0
1,62,0,1532
1,71,0,0
1,67,0,0
1,67,0,0
1,62,0,0
2,69,78,1536
2,69,0,764
2,67,78,4
2,67,0,764
2,66,78,4
2,66,0,764
2,65,78,4
2,65,0,764
2,64,78,4
2,64,0,1532
2,63,78,4
2,63,0,572
2,64,78,4
2,64,0,764
2,71,78,49348
2,75,78,0
2,78,78,0
2,78,0,512
2,75,0,0
2,71,0,0
2,71,78,256
2,74,78,0
2,78,78,0
2,78,0,512
2,74,0,0
2,71,0,0
2,73,78,256
2,76,78,0
2,81,78,0
2,81,0,764
2,76,0,0
2,73,0,0
2,72,78,4
2,76,78,0
2,81,78,0
2,81,0,764
2,76,0,0
2,72,0,0
2,71,78,4
2,74,78,0
2,79,78,0
2,79,0,764
2,74,0,0
2,71,0,0
2,76,78,4
2,72,78,0
2,79,78,0
2,79,0,764
2,72,0,0
2,76,0,0
2,79,78,4
2,74,78,0
2,71,78,0
2,71,0,1532
2,74,0,0
2,79,0,0
2,75,78,4
2,78,78,0
2,71,78,0
2,71,0,764
2,78,0,0
2,75,0,0
2,78,78,4
2,75,78,0
2,71,78,0
2,71,0,764
2,75,0,0
2,78,0,0
2,75,78,4
2,78,78,0
2,69,78,0
2,69,0,764
2,78,0,0
2,75,0,0
2,76,78,4
2,71,78,0
2,79,78,0
2,79,0,764
2,71,0,0
2,76,0,0
2,76,78,4
2,72,78,0
2,72,0,1532
2,76,0,0
2,76,78,4
2,72,78,0
2,69,78,0
2,69,0,764
2,72,0,0
2,76,0,0
2,74,78,4
2,78,78,0
2,69,78,0
2,62,78,0
2,62,0,92
2,62,78,4
2,62,0,92
2,66,78,4
2,66,0,92
2,66,78,4
2,66,0,92
2,69,78,4
2,69,78,0
2,69,0,92
2,69,0,0
2,69,78,4
2,69,0,92
2,74,78,4
2,74,0,92
2,74,78,4
2,74,0,92
2,69,0,0
2,78,0,0
2,74,0,0
2,67,78,4
2,72,78,0
2,76,78,0
2,76,0,1532
2,72,0,0
2,67,0,0
2,71,78,4
2,74,78,0
2,66,78,0
2,66,0,764
2,74,0,0
2,71,0,0
2,67,78,4
2,71,78,0
2,76,78,0
2,76,0,764
2,71,0,0
2,67,0,0
2,72,78,4
2,67,78,0
2,76,78,0
2,76,0,1532
2,67,0,0
2,72,0,0
2,69,78,4
2,72,78,0
2,77,78,0
2,77,0,764
2,72,0,0
2,69,0,0
2,71,78,4
2,74,78,0
2,67,78,0
2,67,0,764
2,74,0,0
2,71,0,0
2,72,78,4
2,67,78,0
2,76,78,0
2,76,0,764
2,67,0,0
2,72,0,0
2,75,78,4
2,71,78,0
2,66,78,0
2,66,0,764
2,71,0,0
2,75,0,0
2,75,78,4
2,69,78,0
2,66,78,0
2,66,0,764
2,69,0,0
2,75,0,0
2,76,78,4
2,76,78,0
2,71,78,0
2,71,78,0
2,67,78,0
2,67,0,380
2,71,0,0
2,76,0,0
2,76,0,0
2,71,0,0
2,74,78,4
2,71,78,0
2,67,78,0
2,67,78,0
2,67,0,380
2,74,0,0
2,71,0,0
2,67,0,0
2,73,78,4
2,76,78,0
2,67,78,0
2,67,0,764
2,76,0,0
2,73,0,0
2,75,78,4
2,72,78,0
2,67,78,0
2,67,78,0
2,67,0,764
2,75,0,0
2,72,0,0
2,67,0,0
2,74,78,4
2,69,78,0
2,69,78,0
2,77,78,0
2,77,0,764
2,74,0,0
2,69,0,0
2,69,0,0
2,76,78,4
2,71,78,0
2,68,78,0
2,68,0,380
2,71,0,0
2,76,0,0
2,76,78,4
2,71,78,0
2,68,78,0
2,68,0,380
2,71,0,0
2,76,0,0
2,69,78,4
2,69,78,0
2,69,78,0
2,62,78,1344
2,62,0,188
2,69,0,0
2,69,0,0
2,69,0,0
2,67,78,4
2,67,78,0
2,67,78,0
2,67,0,1532
2,67,0,0
2,67,0,0
2,60,78,4
2,60,78,0
2,60,0,764
2,60,0,0
2,67,78,4
2,67,0,572
2,69,78,4
2,69,0,188
2,67,78,4
2,67,78,0
2,67,0,1532
2,67,0,0
3,81,99,3072
3,81,0,188
3,83,99,4
3,83,0,188
3,81,99,4
3,81,0,188
3,76,99,4
3,76,0,188
3,74,99,4
3,69,99,0
3,74,0,188
3,81,99,4
3,81,0,188
3,69,0,384
3,64,72,4
3,69,81,0
3,73,81,0
3,73,0,764
3,69,0,0
3,64,0,0
3,69,99,388
3,69,0,188
3,73,99,4
3,73,99,0
3,73,0,188
3,73,0,0
3,78,79,4
3,75,76,0
3,81,99,0
3,81,0,188
3,75,0,0
3,78,0,0
3,83,99,4
3,83,0,188
3,85,99,4
3,85,0,188
3,83,99,4
3,81,99,0
3,74,99,0
3,74,0,572
3,81,0,0
3,80,99,4
3,71,99,0
3,83,0,188
3,71,0,192
3,80,0,0
3,57,82,4
3,64,76,0
3,64,0,764
3,57,0,0
3,56,92,4
3,64,82,0
3,64,0,764
3,56,0,0
3,55,85,4
3,64,84,0
3,64,0,764
3,55,0,0
3,62,76,4
3,54,74,0
3,54,0,764
3,62,0,0
3,53,78,4
3,62,78,0
3,62,0,764
3,53,0,0
3,61,72,4
3,52,78,0
3,52,0,764
3,61,0,0
3,69,70,4
3,63,81,0
3,63,0,572
3,69,0,0
3,69,74,4
3,64,81,0
3,69,0,572
3,68,84,4
3,64,0,188
3,68,0,192
3,57,82,4
3,64,76,0
3,64,0,764
3,57,0,0
3,56,92,4
3,64,82,0
3,64,0,764
3,56,0,0
3,55,85,4
3,64,84,0
3,64,0,764
3,55,0,0
3,62,76,4
3,54,74,0
3,54,0,764
3,62,0,0
3,53,78,4
3,62,78,0
3,62,0,764
3,53,0,0
3,61,72,4
3,52,78,0
3,52,0,764
3,61,0,0
3,69,70,4
3,63,81,0
3,63,0,572
3,69,0,0
3,69,74,4
3,64,81,0
3,69,0,572
3,68,84,4
3,64,0,188
3,68,0,192
3,67,99,4
3,60,99,0
3,60,0,512
3,67,0,0
3,62,99,256
3,67,99,0
3,67,0,256
3,69,99,128
3,62,0,128
3,60,99,64
3,60,0,64
3,69,0,0
3,62,99,32
3,59,99,96
3,66,99,0
3,69,99,0
3,62,0,160
3,59,99,32
3,59,0,128
3,69,0,444
3,66,0,0
3,59,0,0
3,52,99,4
3,67,99,0
3,62,99,0
3,59,99,0
3,59,0,380
3,62,0,0
3,67,0,0
3,66,99,4
3,62,99,0
3,57,99,0
3,57,0,188
3,62,0,0
3,66,0,0
3,67,99,4
3,67,99,0
3,62,99,0
3,59,99,0
3,59,0,188
3,67,0,0
3,52,0,0
3,67,0,0
3,62,0,0
3,60,99,4
3,67,99,0
3,67,0,764
3,60,0,0
3,62,99,4
3,67,99,0
3,67,0,380
3,69,99,4
3,69,0,380
3,62,0,0
3,55,99,4
3,65,99,0
3,69,99,384
3,65,99,0
3,60,99,0
3,60,0,256
3,69,0,0
3,65,0,0
3,65,0,124
3,55,0,0
3,55,99,4
3,62,99,0
3,67,99,0
3,71,99,0
3,55,0,380
3,59,99,4
3,62,0,128
3,71,0,0
3,67,0,0
3,59,0,60
3,59,99,4
3,59,0,188
3,60,99,4
3,64,99,0
3,64,0,256
3,64,99,128
3,60,99,0
3,60,0,128
3,64,0,0
3,60,0,252
3,59,99,4
3,64,99,0
3,64,0,256
3,63,99,128
3,59,99,0
3,59,0,256
3,63,0,0
3,59,0,124
3,63,99,4
3,69,99,0
3,69,0,764
3,63,0,0
3,64,99,4
3,64,0,380
3,62,99,4
3,62,0,380
3,61,99,4
3,67,99,0
3,67,0,764
3,61,0,0
3,60,99,4
3,60,0,380
3,62,99,4
3,62,0,380
3,55,99,4
3,55,0,764
3,52,99,4
3,74,99,0
3,69,99,0
3,66,99,0
3,66,0,380
3,69,0,0
3,74,0,0
3,68,99,4
3,71,99,0
3,76,99,0
3,76,0,380
3,52,0,0
3,68,0,0
3,71,0,0
3,57,82,4
3,64,76,0
3,64,0,764
3,57,0,0
3,56,92,4
3,64,82,0
3,64,0,764
3,56,0,0
3,55,85,4
3,64,84,0
3,64,0,764
3,55,0,0
3,62,76,4
3,54,74,0
3,54,0,764
3,62,0,0
3,53,78,4
3,62,78,0
3,62,0,764
3,53,0,0
3,61,72,4
3,52,78,0
3,52,0,764
3,61,0,0
3,69,70,4
3,63,81,0
3,63,0,572
3,69,0,0
3,69,74,4
3,64,81,0
3,69,0,572
3,68,84,4
3,64,0,188
3,68,0,192
3,57,82,4
3,64,76,0
3,64,0,764
3,57,0,0
