track,note,velocity,time
0,51,113,708
0,69,98,0
0,65,99,0
0,60,97,0
0,51,110,32
0,69,97,0
0,65,99,0
0,60,99,0
0,69,100,36
0,51,112,0
0,70,100,0
0,65,100,0
0,60,98,0
0,51,109,0
0,69,98,0
0,51,112,36
0,69,99,0
0,65,97,0
0,60,99,0
0,79,80,0
0,51,111,36
0,80,99,0
0,68,101,0
0,75,98,0
0,63,101,0
0,58,100,0
0,68,97,0
0,63,100,0
0,58,99,0
0,68,98,0
0,51,111,24
0,79,97,0
0,67,100,0
0,75,98,0
0,67,98,0
0,67,100,0
0,51,110,188
0,51,112,24
0,62,98,0
0,46,100,0
0,53,100,0
0,58,97,0
0,62,98,0
0,58,97,0
0,65,97,0
0,62,101,0
0,58,99,0
0,65,98,0
0,46,101,36
0,48,98,0
0,50,100,0
0,53,100,0
0,77,100,20
0,79,98,12
0,81,101,24
0,83,98,24
0,84,101,4
0,86,101,0
0,51,111,0
0,69,100,0
0,41,98,0
0,60,98,0
0,65,101,0
0,65,87,0
0,69,87,0
0,88,99,0
0,89,99,0
0,51,110,36
0,69,101,0
0,65,100,0
0,60,101,0
0,65,87,0
0,69,87,0
0,51,110,12
0,65,98,0
0,65,87,0
0,69,88,0
0,51,111,0
0,70,98,0
0,60,98,0
0,65,99,0
0,70,85,0
0,51,111,0
0,69,97,0
0,69,89,0
0,46,77,36
0,51,77,0
0,69,98,0
0,60,99,0
0,65,98,0
0,65,85,0
0,69,86,0
0,46,83,44
0,46,89,44
0,46,94,44
0,46,100,44
0,36,110,0
0,46,106,44
0,46,111,8
0,46,117,8
0,57,123,12
0,41,113,0
0,72,101,0
0,41,98,0
0,53,100,0
0,58,99,0
0,65,98,0
0,70,101,0
0,63,100,0
0,58,88,0
0,63,88,0
0,65,85,0
0,79,76,0
0,42,89,8
0,65,99,0
0,77,101,16
0,65,100,8
0,42,90,8
0,72,97,0
0,60,99,8
0,53,110,0
0,65,101,0
0,69,99,0
0,53,101,0
0,60,100,20
0,69,97,20
0,65,101,0
0,69,113,0
0,60,101,12
0,70,111,0
0,65,99,12
0,69,97,0
0,69,110,0
0,60,97,20
0,65,97,20
0,69,101,0
0,53,109,12
0,60,100,0
0,70,111,0
0,52,109,12
0,64,100,0
0,67,98,0
0,52,97,0
0,72,110,0
0,60,101,20
0,67,101,20
0,64,99,0
0,60,98,12
0,67,109,0
0,67,97,12
0,72,99,0
0,67,111,0
0,60,99,20
0,64,99,20
0,67,100,0
0,52,113,20
0,60,99,0
0,50,111,20
0,65,100,0
0,62,98,0
0,50,100,0
0,57,97,12
0,62,101,20
0,65,100,0
0,65,113,0
0,57,100,12
0,67,110,0
0,62,100,12
0,65,101,0
0,65,111,0
0,57,97,20
0,65,101,20
0,62,101,0
0,50,110,12
0,57,99,0
0,67,112,0
0,48,113,12
0,60,99,0
0,64,100,0
0,48,99,0
0,69,109,0
0,57,100,20
0,60,100,20
0,64,98,0
0,57,98,12
0,64,112,0
0,67,99,12
0,64,101,0
0,64,112,0
0,62,109,12
0,57,99,12
0,60,112,0
0,62,109,12
0,60,97,12
0,64,99,0
0,64,112,0
0,57,97,20
0,77,76,0
0,46,111,0
0,58,98,0
0,62,97,0
0,46,98,0
0,81,77,0
0,53,97,20
0,58,101,20
0,62,101,0
0,53,101,0
0,58,99,20
0,62,101,0
0,62,109,0
0,53,100,20
0,65,100,12
0,65,111,0
0,42,89,20
0,48,111,0
0,58,98,0
0,62,97,0
0,70,100,0
0,53,100,0
0,70,112,0
0,48,110,0
0,65,99,0
0,48,97,0
0,69,113,0
0,69,100,20
0,62,100,0
0,42,89,20
0,69,97,0
0,65,98,0
0,67,113,12
0,58,98,12
0,65,109,0
0,62,109,12
0,65,97,8
0,69,99,0
0,60,109,0
0,60,98,20
0,42,92,20
0,69,98,0
0,72,100,0
0,60,99,20
0,62,109,0
0,41,113,20
0,65,98,0
0,57,101,0
0,60,97,0
0,53,97,0
0,53,100,0
0,65,110,0
0,42,90,12
0,65,97,0
0,57,98,0
0,60,100,0
0,65,109,0
0,53,99,20
0,57,101,20
0,65,98,0
0,60,100,0
0,62,100,4
0,62,97,0
0,53,100,20
0,65,99,12
0,65,97,0
0,42,92,8
0,65,101,0
0,60,98,0
0,57,98,0
0,48,113,20
0,53,100,0
0,72,78,0
0,65,100,0
0,65,97,0
0,53,109,0
0,60,101,0
0,58,99,0
0,41,98,0
0,79,80,0
0,52,111,96
0,60,101,0
0,58,99,0
0,42,88,20
0,65,98,0
0,50,113,20
0,60,100,0
0,58,100,0
0,81,97,76
0,83,97,32
0,84,97,20
0,86,98,8
0,60,100,0
0,58,99,0
0,89,99,8
0,45,111,4
0,48,112,0
0,60,101,0
0,58,101,0
0,45,110,20
0,45,110,0
0,65,100,0
0,69,87,0
0,70,87,12
0,41,112,12
0,36,111,0
0,60,100,0
0,58,101,0
0,72,85,0
0,74,86,12
0,35,109,0
0,42,89,0
0,70,86,0
0,41,109,0
0,65,97,0
0,69,100,0
0,53,98,0
0,69,89,0
0,60,97,0
0,65,100,0
0,69,100,0
0,60,100,0
0,65,101,0
0,69,100,0
0,42,90,20
0,70,88,0
0,60,99,0
0,70,87,92
0,37,113,20
0,42,92,0
0,54,87,0
0,70,87,0
0,69,97,0
0,65,101,0
0,69,111,0
0,35,109,12
0,42,91,0
0,70,89,0
0,41,110,0
0,60,97,0
0,70,111,0
0,35,109,12
0,42,91,0
0,70,88,0
0,41,113,0
0,65,97,0
0,69,97,0
0,69,111,0
0,42,90,12
0,70,87,0
0,60,101,0
0,70,87,92
0,37,111,20
0,42,92,0
0,70,85,0
0,65,100,0
0,69,97,0
0,42,91,12
0,70,87,0
0,60,100,0
0,70,111,0
0,35,110,12
0,42,89,0
0,70,89,0
0,40,110,0
0,64,99,0
0,67,101,0
0,52,100,0
0,67,100,0
0,64,97,0
0,67,101,0
0,64,99,0
0,72,109,0
0,42,88,20
0,70,87,0
0,60,101,0
0,70,89,92
0,37,112,20
0,42,89,0
0,54,87,0
0,70,88,0
0,67,97,0
0,64,100,0
0,35,113,12
0,42,88,0
0,70,87,0
0,40,113,0
0,60,97,0
0,67,112,0
0,35,112,12
0,42,90,0
0,70,88,0
0,40,111,0
0,67,98,0
0,72,100,0
0,67,110,0
0,42,89,20
0,70,87,0
0,60,98,0
0,70,85,92
0,37,113,20
0,42,89,0
0,70,86,0
0,64,97,0
0,67,99,0
0,42,92,20
0,70,89,0
0,60,101,0
0,35,112,20
0,42,88,0
0,70,86,0
0,38,109,0
0,65,98,0
0,62,99,0
0,50,101,0
0,65,89,0
0,65,99,0
0,57,100,0
0,62,99,0
0,65,99,0
0,57,98,0
0,62,98,0
0,72,88,12
0,42,92,12
0,70,85,0
0,57,101,0
0,69,89,0
0,70,86,92
0,37,109,20
0,42,89,0
0,54,87,0
0,70,88,0
0,62,98,0
0,65,98,0
0,65,111,0
0,35,113,12
0,42,91,0
0,70,89,0
0,38,113,0
0,57,99,0
0,67,110,0
0,35,110,12
0,42,92,0
0,70,87,0
0,36,112,0
0,62,98,0
0,65,100,0
0,65,112,0
0,42,90,20
0,70,86,0
0,57,97,0
0,70,89,92
0,37,113,20
0,42,91,0
0,70,89,0
0,65,100,0
0,62,99,0
0,42,89,12
0,70,89,0
0,57,100,0
0,67,112,0
0,35,112,12
0,42,91,0
0,70,87,0
0,33,113,0
0,60,97,0
0,64,97,0
0,45,101,0
0,57,100,0
0,60,98,0
0,64,98,0
0,57,99,0
0,60,101,0
0,64,97,0
0,69,111,0
0,42,90,20
0,70,85,0
0,57,100,0
0,70,88,92
0,37,109,20
0,42,88,0
0,54,85,0
0,70,89,0
0,60,98,0
0,64,99,0
0,35,110,12
0,42,90,0
0,70,88,0
0,33,113,0
0,57,101,0
0,64,111,0
0,35,111,12
0,42,89,0
0,70,88,0
0,67,101,0
0,64,99,0
0,64,112,0
0,62,112,12
0,42,90,12
0,70,86,0
0,57,99,0
0,64,86,0
0,60,111,0
0,70,88,12
0,62,111,0
0,37,109,12
0,42,88,0
0,70,87,0
0,60,101,0
0,64,101,0
0,60,86,0
0,64,113,0
0,62,88,12
0,42,91,12
0,70,89,0
0,57,101,0
0,60,86,0
0,35,110,12
0,42,89,0
0,70,88,0
0,34,112,0
0,58,100,0
0,62,98,0
0,46,99,0
0,65,97,0
0,70,99,0
0,74,98,0
0,65,97,0
0,70,101,0
0,74,98,0
0,42,89,20
0,70,86,0
0,53,97,0
0,69,100,0
0,65,100,0
0,72,97,0
0,69,100,0
0,65,101,0
0,72,100,0
0,70,86,92
0,37,111,20
0,42,89,0
0,54,89,0
0,70,85,0
0,58,101,0
0,62,97,0
0,62,86,0
0,62,97,0
0,67,98,0
0,70,98,0
0,62,101,0
0,67,99,0
0,70,97,0
0,35,112,20
0,42,88,0
0,70,85,0
0,34,110,0
0,53,101,0
0,60,97,0
0,65,97,0
0,69,101,0
0,60,100,0
0,65,98,0
0,69,100,0
0,35,111,12
0,42,91,0
0,70,87,0
0,31,113,0
0,58,100,0
0,62,100,0
0,60,89,0
0,62,99,0
0,58,97,0
0,67,99,0
0,62,99,0
0,58,100,0
0,67,101,0
0,62,113,0
0,42,89,20
0,70,87,0
0,53,97,0
0,70,89,12
0,65,98,0
0,65,113,0
0,37,113,20
0,42,89,0
0,70,89,0
0,58,99,0
0,62,97,0
0,42,91,12
0,70,87,0
0,70,100,0
0,53,99,0
0,70,109,0
0,35,112,0
0,42,92,0
0,70,85,0
0,36,110,0
0,65,98,0
0,48,99,0
0,60,99,0
0,65,101,0
0,69,99,0
0,60,98,0
0,65,101,0
0,69,97,0
0,69,110,0
0,42,88,20
0,70,86,0
0,69,98,0
0,62,100,0
0,70,87,92
0,37,111,20
0,42,91,0
0,54,88,0
0,70,89,0
0,69,101,0
0,65,99,0
0,67,110,12
0,35,113,12
0,42,91,0
0,70,88,0
0,36,112,0
0,58,99,0
0,65,111,0
0,62,112,12
0,35,113,8
0,42,88,0
0,70,85,0
0,36,113,0
0,65,100,0
0,69,101,0
0,65,89,0
0,60,111,0
0,42,89,12
0,70,88,0
0,60,97,0
0,60,87,0
0,70,88,92
0,37,110,12
0,42,92,0
0,70,86,0
0,69,99,0
0,72,98,0
0,72,89,0
0,42,91,20
0,70,86,0
0,60,100,0
0,86,100,0
0,62,113,0
0,35,111,12
0,42,88,0
0,70,89,0
0,41,113,0
0,65,97,0
0,57,98,0
0,60,97,0
0,53,100,0
0,42,91,0
0,70,88,0
0,53,100,0
0,89,99,0
0,65,109,0
0,70,87,92
0,37,112,12
0,42,91,0
0,54,87,0
0,70,86,0
0,65,100,0
0,57,99,0
0,60,100,0
0,89,97,0
0,67,113,0
0,35,111,12
0,42,92,0
0,70,89,0
0,41,111,0
0,53,101,0
0,69,112,0
0,67,109,12
0,35,111,12
0,42,88,0
0,70,85,0
0,41,110,0
0,57,99,0
0,65,100,0
0,60,100,0
0,62,99,0
0,62,98,0
0,65,111,0
0,42,90,20
0,70,89,0
0,53,97,0
0,70,87,92
0,37,111,20
0,42,89,0
0,70,85,0
0,65,98,0
0,60,101,0
0,57,99,0
0,65,97,0
0,65,99,0
0,42,91,20
0,70,85,0
0,36,109,0
0,53,98,0
0,65,100,0
0,65,98,0
0,38,109,12
0,35,113,12
0,42,91,0
0,70,85,0
0,41,112,0
0,70,97,0
0,60,97,0
0,58,99,0
0,41,101,0
0,42,89,20
0,70,87,0
0,41,111,0
0,60,99,0
0,58,98,0
0,70,86,92
0,37,112,12
0,42,88,0
0,54,88,0
0,70,88,0
0,69,98,0
0,65,99,0
0,35,111,20
0,42,90,0
0,70,85,0
0,41,111,0
0,60,99,0
0,58,101,0
0,42,89,20
0,70,86,0
0,67,98,0
0,60,98,0
0,58,98,0
0,42,92,20
0,45,112,0
0,70,88,0
0,41,110,0
0,60,101,0
0,58,97,0
0,70,87,92
0,42,90,20
0,45,112,0
0,70,88,0
0,65,98,0
0,41,112,20
0,42,89,0
0,70,85,0
0,31,110,0
0,60,100,0
0,58,100,0
0,35,110,20
0,42,88,0
0,49,110,0
0,32,111,0
0,63,100,0
0,68,100,0
0,56,97,0
0,68,98,0
0,72,97,0
0,42,90,20
0,60,99,0
0,37,111,20
0,42,92,0
0,63,97,0
0,68,97,0
0,63,110,0
0,56,86,0
0,60,89,4
0,63,86,0
0,35,112,12
0,42,90,0
0,32,113,0
0,60,99,0
0,56,100,0
0,63,112,0
0,35,113,20
0,42,91,0
0,32,109,0
0,63,98,0
0,68,99,0
0,56,97,0
0,35,113,20
0,42,91,0
0,36,110,0
0,60,99,0
0,56,85,16
0,60,88,0
0,63,86,0
0,37,112,4
0,42,91,0
0,63,98,0
0,68,101,0
0,68,98,0
0,72,100,0
0,36,113,16
0,35,111,12
0,46,101,0
0,37,109,0
0,60,100,0
0,67,98,0
0,70,99,0
0,63,109,0
0,38,112,12
0,35,110,12
0,42,90,0
0,39,110,0
0,63,101,0
0,67,97,0
0,51,100,0
0,63,110,0
0,63,110,12
0,42,91,12
0,58,97,0
0,63,109,0
0,37,111,20
0,42,90,0
0,67,98,0
0,63,98,0
0,58,87,0
0,55,87,4
0,63,89,0
0,35,109,20
0,42,88,0
0,39,110,0
0,58,101,0
0,51,99,0
0,35,111,20
0,42,88,0
0,31,112,0
0,63,100,0
0,67,100,0
0,35,110,12
0,42,92,0
0,58,99,0
0,42,89,60
0,32,113,0
0,62,112,0
0,58,87,4
0,63,88,0
0,55,87,4
0,37,111,4
0,42,90,0
0,63,100,0
0,67,101,0
0,62,112,0
0,32,112,16
0,35,109,12
0,42,89,0
0,33,109,0
0,58,100,0
0,51,99,0
0,63,113,0
0,65,111,12
0,35,112,12
0,42,91,0
0,34,112,0
0,62,97,0
0,65,97,0
0,46,99,0
0,70,98,0
0,62,99,0
0,65,97,0
0,65,113,0
0,58,101,20
0,63,113,12
0,37,112,12
0,42,90,0
0,62,100,0
0,70,98,0
0,65,97,0
0,65,111,0
0,53,89,0
0,58,89,4
0,62,87,0
0,63,110,4
0,35,109,12
0,42,89,0
0,65,100,0
0,65,109,0
0,34,109,0
0,62,101,0
0,70,100,0
0,65,101,0
0,35,110,12
0,42,91,0
0,38,110,0
0,62,109,0
0,35,112,96
0,42,90,0
0,39,110,36
0,53,88,72
0,58,86,4
0,62,88,4
0,37,112,12
0,42,88,0
0,62,100,0
0,58,98,0
0,65,97,0
0,46,100,0
0,42,88,28
0,39,112,0
0,35,109,12
0,46,97,0
0,40,112,0
0,35,109,40
0,42,91,0
0,41,111,0
0,57,99,0
0,60,97,0
0,65,97,0
0,53,100,0
0,69,100,0
0,65,99,0
0,60,97,0
0,60,110,92
0,53,97,0
0,62,113,0
0,63,113,12
0,37,110,20
0,42,91,0
0,57,100,0
0,65,98,0
0,60,101,0
0,53,88,8
0,60,87,0
0,58,87,4
0,35,112,12
0,46,98,0
0,53,98,0
0,60,110,0
0,36,113,60
0,35,111,12
0,42,92,0
0,29,111,0
0,57,98,0
0,62,110,0
0,36,110,0
0,55,99,0
0,35,112,0
0,42,92,0
0,41,109,0
0,53,97,0
0,63,110,0
0,53,87,4
0,60,85,0
0,58,86,8
0,37,113,4
0,41,110,0
0,42,92,0
0,29,111,0
0,57,100,0
0,53,100,0
0,57,111,0
0,30,112,0
0,58,99,0
0,55,112,0
0,35,113,0
0,42,90,0
0,31,113,0
0,60,99,0
0,53,112,0
0,29,113,0
0,57,99,0
0,35,109,0
0,42,92,0
0,49,112,0
0,32,109,0
0,63,101,0
0,68,100,0
0,56,98,0
0,68,98,0
0,63,101,0
0,72,99,0
0,42,92,20
0,60,97,0
0,37,113,20
0,42,88,0
0,63,100,0
0,68,99,0
0,60,86,0
0,63,87,0
0,63,111,0
0,56,88,0
0,35,109,12
0,42,91,0
0,60,100,0
0,63,113,0
0,32,110,60
0,35,109,12
0,42,92,0
0,36,112,0
0,63,100,0
0,68,99,0
0,35,112,20
0,42,90,0
0,60,100,0
