track,note,velocity,time
1,68,127,0
1,59,127,50
1,64,127,96
1,66,127,16
1,64,127,38
1,59,127,4
1,64,127,120
1,66,127,22
1,64,127,86
1,59,127,70
1,59,127,58
1,61,127,76
1,64,127,40
1,66,127,6
1,64,127,26
1,61,127,192
1,64,127,92
1,66,127,6
1,64,127,90
1,66,127,4
1,68,127,80
1,59,127,32
1,64,127,96
1,66,127,8
1,64,127,50
1,59,127,4
1,64,127,72
1,66,127,26
1,64,127,86
1,59,127,68
1,59,127,64
1,61,127,82
1,64,127,48
1,66,127,6
1,64,127,96
1,61,127,188
1,64,127,74
1,66,127,4
1,64,127,90
1,66,127,86
1,68,127,164
1,59,127,50
1,64,127,96
1,66,127,16
1,64,127,38
1,59,127,4
1,64,127,120
1,66,127,22
1,64,127,86
1,59,127,70
1,59,127,58
1,61,127,76
1,64,127,40
1,66,127,6
1,64,127,26
1,61,127,192
1,64,127,92
1,66,127,6
1,64,127,90
1,66,127,4
1,68,127,80
1,59,127,32
1,64,127,96
1,66,127,8
1,64,127,50
1,59,127,4
1,64,127,72
1,66,127,26
1,64,127,86
1,59,127,68
1,59,127,64
1,61,127,82
1,64,127,48
1,66,127,6
1,64,127,96
1,61,127,188
1,64,127,74
1,66,127,4
1,64,127,90
1,66,127,86
1,68,127,164
1,59,127,48
1,64,127,88
1,66,127,18
1,64,127,36
1,59,127,182
1,64,127,124
1,66,127,16
1,64,127,94
1,59,127,76
1,59,127,56
1,61,127,82
1,64,127,32
1,66,127,12
1,64,127,24
1,61,127,190
1,64,127,104
1,66,127,4
1,64,127,88
1,66,127,78
1,68,127,96
1,59,127,30
1,64,127,88
1,66,127,8
1,64,127,48
1,59,127,182
1,64,127,76
1,66,127,18
1,64,127,94
1,59,127,72
1,59,127,64
1,61,127,90
1,64,127,38
1,66,127,12
1,64,127,96
1,61,127,186
1,64,127,84
1,66,127,0
1,64,127,88
1,66,127,78
1,68,127,180
1,59,127,48
1,64,127,88
1,66,127,18
1,64,127,36
1,59,127,182
1,64,127,124
1,66,127,16
1,64,127,94
1,59,127,76
1,59,127,56
1,61,127,82
1,64,127,32
1,66,127,12
1,64,127,24
1,61,127,190
1,64,127,104
1,66,127,4
1,64,127,88
1,66,127,78
1,68,127,96
1,59,127,30
1,64,127,88
1,66,127,8
1,64,127,48
1,59,127,182
1,64,127,76
1,66,127,18
1,64,127,94
1,59,127,72
1,59,127,64
1,61,127,90
1,64,127,38
1,66,127,12
1,64,127,96
1,61,127,186
1,64,127,84
1,66,127,0
1,64,127,88
1,66,127,78
2,40,127,16
2,32,127,1122
2,33,127,380
2,35,127,722
2,37,127,736
2,32,127,1150
2,33,127,378
2,35,127,742
2,40,127,766
2,32,127,1106
2,33,127,364
2,35,127,774
2,37,127,726
2,32,127,1120
2,33,127,392
2,35,127,742
2,40,127,22
2,32,127,26
2,33,127,90
2,35,127,16
2,37,127,60
2,39,127,180
2,37,127,182
2,32,127,20
2,32,127,118
2,33,127,90
2,35,127,14
2,40,127,50
2,32,127,26
2,33,127,90
2,35,127,16
2,37,127,60
2,39,127,180
2,37,127,182
2,32,127,20
2,32,127,118
2,33,127,90
2,35,127,14
2,40,127,16
2,39,127,492
2,37,127,60
2,32,127,30
2,33,127,34
2,30,127,202
2,35,127,110
2,35,127,64
2,40,127,64
2,39,127,144
2,37,127,68
2,35,127,8
2,33,127,54
2,30,127,6
2,35,127,48
2,35,127,38
2,40,127,60
2,32,127,26
2,33,127,90
2,35,127,16
2,37,127,60
2,39,127,180
2,37,127,182
2,32,127,20
2,32,127,118
2,33,127,90
2,35,127,14
2,40,127,50
2,32,127,26
2,33,127,90
2,35,127,16
2,37,127,60
2,39,127,180
2,37,127,182
2,32,127,20
2,32,127,118
2,33,127,90
2,35,127,14
2,40,127,2
2,32,127,80
2,33,127,68
2,35,127,42
2,40,127,184
2,32,127,30
2,33,127,64
2,35,127,28
2,40,127,46
2,39,127,492
2,37,127,60
2,32,127,30
2,33,127,34
2,30,127,202
2,35,127,110
2,35,127,64
2,40,127,64
2,39,127,144
2,37,127,68
2,35,127,8
2,33,127,54
2,30,127,6
2,35,127,48
2,35,127,38
2,40,127,60
2,32,127,26
2,33,127,90
2,35,127,16
2,37,127,60
2,39,127,180
2,37,127,182
2,32,127,20
2,32,127,118
2,33,127,90
2,35,127,14
2,40,127,50
2,32,127,26
2,33,127,90
2,35,127,16
2,37,127,60
2,39,127,180
2,37,127,182
2,32,127,20
2,32,127,118
2,33,127,90
2,35,127,14
2,41,127,12306
2,33,127,6
2,34,127,48
2,36,127,64
2,38,127,182
2,39,127,10
2,40,127,30
2,38,127,42
2,32,127,32
2,33,127,2
2,33,127,106
2,39,127,16
2,37,127,0
2,34,127,52
2,36,127,68
2,41,127,72
2,33,127,92
2,34,127,54
2,36,127,58
2,38,127,42
2,40,127,26
2,38,127,182
2,33,127,16
2,33,127,288
2,34,127,32
2,36,127,38
2,41,127,40
2,33,127,184
2,34,127,36
2,36,127,56
2,38,127,0
2,40,127,36
2,38,127,0
2,33,127,16
2,33,127,0
2,34,127,0
2,36,127,0
2,41,127,10
2,33,127,68
2,34,127,44
2,36,127,40
2,38,127,12
2,40,127,166
2,38,127,166
2,33,127,20
2,33,127,32
2,34,127,42
2,36,127,40
2,41,127,32
3,68,127,12288
3,64,127,0
3,59,127,0
3,40,127,0
3,59,127,192
3,59,127,190
3,73,127,26
3,64,127,0
3,69,127,0
3,64,127,26
3,61,127,0
3,57,127,0
3,63,127,0
3,60,127,0
3,57,127,0
3,66,127,0
3,63,127,0
3,71,127,0
3,59,127,0
3,64,127,0
3,68,127,0
3,63,127,116
3,73,127,56
3,64,127,0
3,69,127,0
3,47,127,218
3,64,127,192
3,61,127,0
3,57,127,0
3,40,127,0
3,71,127,0
3,59,127,0
3,68,127,0
3,64,127,0
3,59,127,48
3,64,127,14
3,69,127,384
3,73,127,192
3,64,127,68
3,61,127,0
3,57,127,0
3,63,127,0
3,60,127,0
3,57,127,0
3,66,127,0
3,68,127,0
3,49,127,0
3,64,127,0
3,61,127,0
3,59,127,0
3,76,127,248
3,80,127,96
3,83,127,74
3,85,127,0
3,73,127,52
3,64,127,0
3,69,127,0
3,64,127,444
3,61,127,0
3,57,127,0
3,68,127,0
3,59,127,0
3,64,127,0
3,64,127,26
3,59,127,0
3,56,127,0
3,63,127,0
3,59,127,0
3,54,127,0
3,68,127,0
3,59,127,0
3,64,127,0
3,61,127,0
3,64,127,26
3,61,127,0
3,59,127,0
3,68,127,0
3,66,127,0
3,63,127,0
3,59,127,0
3,68,127,0
3,71,127,0
3,68,127,0
3,64,127,0
3,61,127,0
3,45,127,960
3,68,127,4
3,71,127,0
3,61,127,0
3,64,127,0
3,66,127,176
3,57,127,0
3,64,127,0
3,61,127,0
3,66,127,26
3,64,127,0
3,61,127,0
3,69,127,0
3,63,127,0
3,59,127,0
3,54,127,0
3,68,127,0
3,59,127,0
3,64,127,0
3,64,127,26
3,59,127,0
3,56,127,0
3,63,127,0
3,59,127,0
3,54,127,0
3,68,127,0
3,59,127,0
3,64,127,0
3,61,127,0
3,64,127,26
3,61,127,0
3,59,127,0
3,68,127,0
3,66,127,0
3,63,127,0
3,59,127,0
3,68,127,0
3,71,127,0
3,68,127,0
3,64,127,0
3,61,127,0
3,45,127,0
3,61,127,192
3,64,127,190
3,66,127,26
3,57,127,0
3,64,127,0
3,61,127,0
3,66,127,26
3,64,127,0
3,61,127,0
3,69,127,0
3,63,127,0
3,59,127,0
3,54,127,0
3,68,127,0
3,40,127,0
3,64,127,0
3,59,127,0
3,76,127,282
3,80,127,96
3,83,127,74
3,73,127,96
3,64,127,0
3,69,127,0
3,64,127,26
3,61,127,0
3,57,127,0
3,63,127,0
3,60,127,0
3,57,127,0
3,66,127,0
3,68,127,0
3,59,127,0
3,64,127,0
3,61,127,0
3,44,127,218
3,66,127,192
3,63,127,0
3,59,127,0
3,68,127,0
3,73,127,0
3,64,127,0
3,69,127,0
3,64,127,444
3,61,127,0
3,57,127,0
3,40,127,0
3,71,127,0
3,59,127,0
3,68,127,0
3,64,127,0
3,59,127,48
3,73,127,14
3,64,127,0
3,69,127,0
3,64,127,26
3,61,127,0
3,57,127,0
3,63,127,0
3,60,127,0
3,57,127,0
3,66,127,0
3,68,127,0
3,59,127,0
3,64,127,0
3,61,127,0
3,66,127,444
3,63,127,0
3,59,127,0
3,68,127,0
3,73,127,0
3,64,127,0
3,69,127,0
3,64,127,444
3,61,127,0
3,57,127,0
3,68,127,0
3,64,127,0
3,59,127,0
3,40,127,0
3,59,127,192
3,59,127,190
3,64,127,26
3,69,127,384
3,73,127,192
3,47,127,260
3,64,127,192
3,61,127,0
3,57,127,0
3,59,127,0
3,71,127,0
3,64,127,0
3,68,127,0
3,59,127,116
3,73,127,58
3,64,127,0
3,69,127,0
3,47,127,218
3,64,127,192
3,61,127,0
3,57,127,0
3,68,127,0
3,59,127,0
3,64,127,0
3,64,127,26
3,59,127,0
3,56,127,0
3,63,127,0
3,59,127,0
3,54,127,0
3,68,127,0
3,59,127,0
3,64,127,0
3,61,127,0
3,64,127,26
3,61,127,0
3,59,127,0
3,68,127,0
3,66,127,0
3,63,127,0
3,59,127,0
3,68,127,0
3,71,127,0
3,68,127,0
3,64,127,0
3,61,127,0
3,45,127,960
3,68,127,4
3,71,127,0
3,61,127,0
3,64,127,0
3,66,127,176
3,57,127,0
3,64,127,0
3,61,127,0
3,66,127,26
3,64,127,0
3,61,127,0
3,69,127,0
3,63,127,0
3,59,127,0
3,54,127,0
3,68,127,0
3,59,127,0
3,64,127,0
3,64,127,26
3,59,127,0
3,56,127,0
3,63,127,0
3,59,127,0
3,54,127,0
3,68,127,0
3,59,127,0
3,64,127,0
3,61,127,0
3,64,127,26
3,61,127,0
3,59,127,0
3,68,127,0
3,66,127,0
3,63,127,0
3,59,127,0
3,68,127,0
3,45,127,0
3,76,127,0
3,61,127,0
3,71,127,0
3,68,127,0
3,61,127,48
3,66,127,14
3,57,127,0
3,64,127,0
3,61,127,0
3,66,127,26
3,64,127,0
3,61,127,0
3,69,127,0
3,66,127,0
3,63,127,0
3,59,127,0
3,68,127,0
3,64,127,0
3,59,127,0
3,40,127,0
3,59,127,192
3,59,127,190
3,73,127,26
3,64,127,0
3,69,127,0
3,64,127,26
3,61,127,0
3,57,127,0
3,63,127,0
3,60,127,0
3,57,127,0
3,66,127,0
3,68,127,0
3,59,127,0
3,64,127,0
3,61,127,0
3,44,127,218
3,66,127,192
3,63,127,0
3,59,127,0
3,68,127,0
3,73,127,0
3,64,127,0
3,69,127,0
3,47,127,218
3,64,127,192
3,61,127,0
3,57,127,0
3,68,127,0
3,64,127,0
3,59,127,0
3,40,127,0
3,59,127,192
3,59,127,190
3,73,127,26
3,64,127,0
3,69,127,0
3,64,127,26
3,61,127,0
3,57,127,0
3,63,127,0
3,60,127,0
3,57,127,0
3,66,127,0
3,68,127,0
3,59,127,0
3,64,127,0
3,61,127,0
3,44,127,218
3,66,127,192
3,63,127,0
3,59,127,0
3,68,127,0
3,73,127,0
3,64,127,0
3,69,127,0
3,64,127,444
3,61,127,0
3,57,127,0
3,68,127,0
3,59,127,0
3,64,127,0
3,61,127,0
3,70,127,444
3,66,127,0
3,64,127,0
3,73,127,0
3,66,127,0
3,58,127,0
3,64,127,0
3,61,127,0
3,44,127,218
3,66,127,192
3,63,127,0
3,60,127,0
3,68,127,0
3,73,127,0
3,64,127,0
3,69,127,0
3,64,127,26
3,61,127,0
3,57,127,0
3,66,127,0
3,63,127,0
3,59,127,0
3,68,127,0
3,63,127,0
3,59,127,0
3,66,127,0
3,63,127,116
3,68,127,56
3,64,127,0
3,61,127,0
3,59,127,0
3,59,127,30
3,61,127,20
3,64,127,192
3,68,127,144
3,66,127,56
3,58,127,0
3,64,127,0
3,61,127,0
3,64,127,26
3,61,127,0
3,58,127,0
3,66,127,0
3,66,127,0
3,63,127,0
3,60,127,0
3,68,127,0
3,73,127,0
3,45,127,0
3,69,127,0
3,64,127,0
3,81,127,282
3,85,127,96
3,88,127,74
3,75,127,96
3,66,127,0
3,71,127,0
3,48,127,218
3,64,127,192
3,60,127,0
3,55,127,0
3,41,127,0
3,72,127,0
3,60,127,0
3,69,127,0
3,65,127,0
3,60,127,48
3,74,127,14
3,65,127,0
3,70,127,0
3,65,127,26
3,62,127,0
3,58,127,0
3,64,127,0
3,61,127,0
3,58,127,0
3,67,127,0
3,69,127,0
3,60,127,0
3,65,127,0
3,62,127,0
3,65,127,26
3,62,127,0
3,60,127,0
3,69,127,0
3,67,127,0
3,64,127,0
3,60,127,0
3,69,127,0
3,74,127,0
3,65,127,0
3,70,127,0
3,48,127,218
3,65,127,192
3,62,127,0
3,58,127,0
3,65,127,0
3,60,127,0
3,57,127,0
3,65,127,58
3,70,127,384
3,74,127,192
3,62,127,68
3,58,127,0
3,53,127,0
3,64,127,0
3,61,127,0
3,58,127,0
3,67,127,0
3,69,127,0
3,60,127,0
3,65,127,0
3,62,127,0
3,65,127,26
3,62,127,0
3,60,127,0
3,69,127,0
3,67,127,0
3,64,127,0
3,60,127,0
3,69,127,0
3,74,127,0
3,65,127,0
3,70,127,0
3,65,127,18
3,62,127,0
3,58,127,0
3,41,127,0
3,72,127,0
3,60,127,0
3,69,127,0
3,65,127,0
3,60,127,48
3,74,127,0
3,65,127,0
3,70,127,0
3,65,127,26
3,62,127,0
3,58,127,0
3,64,127,0
3,61,127,0
3,58,127,0
3,67,127,0
3,69,127,0
3,60,127,0
3,65,127,0
3,62,127,0
3,65,127,26
3,62,127,0
3,60,127,0
3,69,127,0
3,67,127,0
3,64,127,0
3,60,127,0
3,69,127,0
3,74,127,0
3,65,127,0
3,70,127,0
3,48,127,0
3,65,127,10
3,62,127,0
3,58,127,0
3,65,127,0
3,60,127,0
3,57,127,0
3,65,127,58
3,70,127,142
3,74,127,136
3,62,127,40
3,58,127,0
3,53,127,0
3,64,127,0
3,61,127,0
3,58,127,0
3,67,127,0
3,69,127,0
3,60,127,0
3,65,127,0
3,62,127,0
3,65,127,26
3,62,127,0
3,60,127,0
3,69,127,0
3,67,127,0
3,64,127,0
3,60,127,0
3,69,127,0
3,74,127,0
3,65,127,0
3,70,127,0
3,65,127,214
3,62,127,0
3,58,127,0
4,76,127,12306
4,76,127,110
4,76,127,94
4,76,127,112
4,76,127,106
4,76,127,106
4,76,127,106
4,76,127,112
4,76,127,100
4,76,127,102
4,76,127,102
4,76,127,112
4,76,127,108
4,76,127,100
4,75,127,104
4,75,127,100
4,76,127,92
4,76,127,102
4,76,127,108
4,76,127,112
4,76,127,110
4,76,127,112
4,76,127,112
4,76,127,112
4,76,127,118
4,76,127,122
4,76,127,106
4,76,127,112
4,76,127,110
4,76,127,116
4,76,127,112
4,76,127,110
4,76,127,108
4,76,127,110
4,76,127,118
4,76,127,120
4,76,127,122
4,76,127,112
4,76,127,110
4,76,127,118
4,76,127,108
4,76,127,114
4,76,127,114
4,76,127,108
4,76,127,106
4,76,127,102
4,75,127,106
4,75,127,108
4,76,127,88
4,76,127,102
4,76,127,110
4,76,127,106
4,76,127,106
4,76,127,104
4,76,127,104
4,76,127,112
4,76,127,110
4,76,127,118
4,76,127,110
4,76,127,114
4,76,127,118
4,76,127,108
4,76,127,110
4,76,127,112
4,76,127,12438
4,76,127,110
4,76,127,94
4,76,127,112
4,76,127,106
4,76,127,106
4,76,127,106
4,76,127,112
4,76,127,100
4,76,127,102
4,76,127,102
4,76,127,112
4,76,127,108
4,76,127,100
4,75,127,104
4,75,127,100
4,76,127,92
4,76,127,102
4,76,127,108
4,76,127,112
4,76,127,110
4,76,127,112
4,76,127,112
4,76,127,112
4,76,127,118
4,76,127,122
4,76,127,106
4,76,127,112
4,76,127,110
4,76,127,116
4,76,127,112
4,76,127,110
4,76,127,108
4,76,127,110
4,76,127,118
4,76,127,120
4,76,127,122
4,76,127,112
4,76,127,110
