track,note,velocity,time
0,58,64,0
0,70,51,0
0,51,75,0
0,65,70,0
0,63,59,0
0,67,66,0
0,51,86,0
0,63,64,0
0,70,79,0
0,67,75,0
0,65,88,0
0,63,50,19
0,70,58,30
0,63,0,15
0,70,0,10
0,75,104,5
0,75,0,23
0,74,88,7
0,63,70,3
0,77,122,0
0,77,0,50
0,75,83,10
0,75,0,12
0,75,113,18
0,51,0,6
0,51,57,24
0,63,0,34
0,58,0,6
0,51,0,16
0,75,0,1
0,74,97,3
0,74,0,24
0,75,117,6
0,75,68,0
0,72,62,0
0,67,55,0
0,60,86,0
0,48,63,6
0,63,50,0
0,72,50,0
0,70,51,0
0,67,50,0
0,55,44,38
0,67,0,10
0,63,0,3
0,70,0,10
0,72,0,5
0,75,0,10
0,60,49,22
0,55,0,10
0,70,55,20
0,70,0,26
0,75,88,4
0,55,38,0
0,60,0,19
0,75,0,8
0,74,73,3
0,74,0,29
0,60,67,1
0,77,127,0
0,55,0,12
0,77,0,39
0,75,108,9
0,75,0,13
0,75,127,3
0,70,81,0
0,58,88,0
0,60,0,3
0,72,0,2
0,60,63,1
0,58,0,17
0,60,0,18
0,67,0,5
0,48,0,8
0,75,0,6
0,74,97,6
0,74,0,25
0,75,113,5
0,56,56,0
0,68,70,0
0,63,71,0
0,72,77,0
0,44,70,7
0,63,67,0
0,70,61,0
0,68,67,0
0,72,49,0
0,56,49,0
0,74,75,14
0,56,49,9
0,75,108,0
0,75,0,57
0,68,127,3
0,56,53,15
0,72,94,0
0,58,51,60
0,74,91,0
0,72,0,3
0,63,0,11
0,56,0,16
0,60,75,0
0,75,0,0
0,56,0,3
0,72,0,1
0,68,0,4
0,74,0,19
0,56,60,3
0,75,86,0
0,63,75,30
0,68,0,1
0,58,0,19
0,68,101,10
0,75,0,0
0,68,83,0
0,44,0,3
0,60,0,6
0,56,0,17
0,58,51,4
0,68,63,0
0,65,63,0
0,72,63,0
0,60,70,0
0,53,73,0
0,58,0,13
0,68,0,0
0,56,75,0
0,53,73,0
0,63,62,0
0,60,73,0
0,65,64,0
0,56,17,4
0,55,48,6
0,63,67,0
0,72,0,1
0,55,0,22
0,56,70,7
0,56,0,27
0,60,73,3
0,65,91,0
0,63,0,10
0,63,101,20
0,53,1,0
0,60,0,2
0,56,97,1
0,60,94,0
0,46,94,0
0,68,73,0
0,63,63,0
0,58,94,0
0,72,81,0
0,63,66,0
0,53,75,17
0,74,127,0
0,58,61,17
0,58,0,27
0,65,94,2
0,62,88,0
0,60,70,0
0,56,61,0
0,72,0,0
0,65,81,0
0,62,79,0
0,70,77,0
0,63,0,2
0,68,0,7
0,46,0,10
0,53,0,5
0,56,0,2
0,65,0,12
0,70,0,3
0,62,0,1
0,58,0,6
0,60,0,9
0,65,0,1
0,62,0,2
0,58,63,0
0,63,53,30
0,67,66,0
0,65,66,0
0,70,67,0
0,63,0,1
0,58,0,13
0,51,71,10
0,67,79,0
0,58,68,0
0,63,83,0
0,55,83,0
0,65,81,0
0,58,77,0
0,51,75,0
0,82,87,2
0,94,83,1
0,57,70,2
0,63,61,21
0,65,75,0
0,70,70,0
0,67,79,0
0,65,0,33
0,63,0,3
0,67,0,3
0,70,0,5
0,70,81,76
0,63,73,0
0,67,81,0
0,65,88,0
0,63,0,32
0,65,0,20
0,63,59,8
0,67,0,18
0,70,0,6
0,65,0,5
0,63,0,3
0,63,0,0
0,67,0,1
0,70,0,2
0,51,0,23
0,70,97,2
0,63,88,0
0,67,104,0
0,58,0,2
0,63,0,36
0,70,0,19
0,63,67,3
0,67,0,1
0,55,0,1
0,51,0,7
0,63,0,9
0,65,59,12
0,73,37,0
0,68,75,0
0,63,63,0
0,61,73,2
0,65,97,0
0,49,76,0
0,68,88,0
0,63,97,0
0,56,94,0
0,61,73,0
0,61,30,19
0,63,0,7
0,68,0,18
0,65,0,6
0,68,86,29
0,63,97,0
0,65,91,0
0,61,0,28
0,61,30,32
0,63,0,24
0,65,0,2
0,68,0,5
0,68,83,29
0,63,97,0
0,65,91,0
0,61,0,8
0,56,0,28
0,63,0,22
0,65,0,1
0,61,61,1
0,61,0,25
0,68,0,6
0,68,0,23
0,73,0,0
0,63,0,1
0,65,0,2
0,63,97,3
0,56,88,0
0,68,91,0
0,61,0,18
0,65,81,12
0,63,0,5
0,56,0,25
0,61,76,0
0,49,0,14
0,56,58,16
0,63,63,0
0,68,73,0
0,72,79,0
0,60,86,0
0,61,0,2
0,68,0,5
0,60,83,2
0,63,101,0
0,48,81,0
0,68,75,0
0,60,47,16
0,63,0,15
0,68,0,0
0,60,0,6
0,60,81,39
0,68,86,0
0,63,88,0
0,56,63,0
0,60,0,36
0,60,49,24
0,63,0,3
0,68,0,4
0,60,0,8
0,60,81,41
0,68,88,0
0,63,91,0
0,56,61,0
0,56,0,39
0,63,0,22
0,60,0,1
0,68,0,1
0,60,101,52
0,56,52,0
0,68,97,0
0,63,101,0
0,60,0,17
0,72,0,10
0,56,0,3
0,63,0,1
0,68,0,3
0,48,0,12
0,63,0,10
0,68,0,1
0,56,59,3
0,60,0,1
0,56,0,11
0,63,66,18
0,70,79,0
0,65,86,0
0,58,79,0
0,58,77,11
0,65,94,0
0,70,104,0
0,63,97,0
0,46,86,0
0,53,83,0
0,58,50,25
0,63,0,11
0,58,86,2
0,70,91,0
0,63,94,0
0,65,91,0
0,63,0,3
0,58,0,45
0,58,53,12
0,63,0,13
0,65,0,4
0,70,0,1
0,58,0,1
0,62,75,11
0,65,88,0
0,62,86,3
0,70,91,0
0,65,91,0
0,58,83,0
0,58,60,1
0,53,0,15
0,70,0,10
0,65,0,3
0,62,0,2
0,58,0,11
0,53,88,9
0,58,79,27
0,46,0,17
0,53,0,10
0,60,70,3
0,58,0,8
0,60,0,15
0,62,67,7
0,51,66,0
0,58,59,0
0,63,58,0
0,67,77,0
0,70,64,0
0,65,81,0
0,62,0,18
0,58,101,7
0,63,83,0
0,65,77,0
0,70,91,0
0,51,94,0
0,67,79,0
0,63,41,21
0,65,0,9
0,67,0,0
0,70,0,8
0,63,0,4
0,63,64,21
0,65,79,0
0,67,73,0
0,70,77,0
0,63,0,37
0,65,0,18
0,67,0,2
0,70,0,3
0,63,52,0
0,63,0,29
0,70,97,31
0,65,83,0
0,67,88,0
0,63,71,0
0,63,0,34
0,58,0,23
0,65,0,3
0,63,58,0
0,67,0,2
0,70,0,2
0,63,0,11
0,65,0,6
0,63,0,1
0,67,0,2
0,51,0,0
0,58,0,1
0,70,0,2
0,58,88,33
0,63,97,0
0,65,97,0
0,67,97,0
0,58,0,37
0,51,0,10
0,63,0,7
0,67,0,1
0,65,0,3
0,58,53,2
0,58,0,18
0,63,71,12
0,61,73,0
0,68,70,0
0,65,73,0
0,63,67,0
0,73,35,0
0,68,81,7
0,61,57,0
0,63,97,0
0,53,94,0
0,65,91,0
0,61,35,4
0,61,0,21
0,61,68,39
0,68,86,0
0,63,101,0
0,65,94,0
0,61,0,34
0,63,0,14
0,65,0,1
0,61,36,11
0,68,0,4
0,73,0,15
0,61,0,6
0,61,73,35
0,63,94,0
0,68,88,0
0,65,104,0
0,73,80,0
0,63,0,18
0,61,0,6
0,65,0,20
0,68,0,6
0,61,37,10
0,68,0,3
0,65,0,10
0,63,0,1
0,61,0,19
0,61,71,27
0,68,88,0
0,63,101,0
0,65,101,0
0,68,71,0
0,65,63,0
0,63,62,0
0,61,0,17
0,53,0,9
0,61,0,1
0,73,0,10
0,65,0,1
0,68,0,3
0,63,0,0
0,68,0,5
0,61,63,14
0,65,0,1
0,63,0,0
0,61,0,11
0,63,70,18
0,71,68,0
0,59,76,0
0,66,76,0
0,59,87,13
0,66,87,0
0,63,104,0
0,54,68,0
0,47,65,0
0,59,36,4
0,59,0,19
0,54,0,5
0,54,50,36
0,59,91,0
0,63,104,0
0,66,83,0
0,59,0,40
0,66,0,8
0,63,0,1
0,59,50,11
0,59,0,11
0,59,95,49
0,63,113,0
0,66,87,0
0,59,0,31
0,66,0,1
0,63,0,2
0,59,46,26
0,59,0,19
0,59,95,41
0,66,91,0
0,63,108,0
0,59,0,22
0,63,0,1
0,66,0,3
0,66,0,10
0,71,0,2
0,63,0,11
0,59,0,7
0,59,63,4
0,47,0,4
0,54,0,5
0,59,0,5
0,58,104,21
0,63,101,0
0,65,97,0
0,46,81,0
0,53,97,0
0,58,88,0
0,63,64,0
0,70,81,0
0,65,91,0
0,58,43,20
0,58,97,39
0,63,113,0
0,65,101,0
0,58,0,33
0,63,0,4
0,65,0,2
0,58,51,21
0,62,91,30
0,65,91,0
0,65,0,1
0,58,88,3
0,53,83,0
0,62,94,0
0,65,94,0
0,70,94,0
0,62,0,7
0,58,53,18
0,62,0,36
0,65,0,5
0,53,0,2
0,58,0,4
0,53,94,13
0,58,83,0
0,62,113,0
0,65,104,0
0,74,91,0
0,58,0,23
0,58,0,12
0,62,0,15
0,70,0,8
0,46,0,0
0,65,0,1
0,53,0,1
0,58,64,0
0,58,0,14
0,67,97,6
0,63,104,0
0,58,108,0
0,51,97,0
0,65,94,0
0,39,127,0
0,65,79,0
0,67,73,0
0,70,75,0
0,51,81,0
0,63,70,0
0,75,83,0
0,36,127,0
0,58,61,20
0,63,94,37
0,67,91,0
0,58,91,0
0,65,83,0
0,42,127,0
0,42,0,13
0,58,0,20
0,65,0,10
0,67,0,2
0,63,0,1
0,58,57,14
0,58,0,23
0,58,86,37
0,63,108,0
0,65,104,0
0,67,101,0
0,58,0,37
0,65,0,3
0,63,0,3
0,67,0,2
0,51,0,4
0,51,0,6
0,63,0,4
0,58,57,1
0,70,0,0
0,65,0,7
0,67,0,1
0,58,0,20
0,75,0,17
0,67,104,6
0,58,97,0
0,50,104,0
0,62,113,0
0,38,127,0
0,74,108,0
0,54,127,0
0,39,0,4
0,54,0,5
0,58,71,8
0,58,0,17
0,60,66,13
0,63,73,0
0,67,83,0
0,72,91,0
0,75,94,0
0,60,101,3
0,63,97,0
0,67,91,0
0,55,94,0
0,48,71,0
0,38,0,0
0,36,127,0
0,36,127,0
0,74,0,2
0,36,0,13
0,60,51,20
0,60,0,20
0,67,97,40
0,60,101,0
0,63,97,0
0,42,127,0
0,42,0,9
0,60,0,15
0,63,0,1
0,67,0,1
0,60,58,34
0,60,0,15
0,67,101,28
0,60,113,0
0,63,108,0
0,60,0,34
0,67,0,3
0,63,0,2
0,60,70,21
0,60,0,6
0,60,0,14
0,74,101,10
0,58,79,0
0,70,79,0
0,75,0,1
0,67,97,25
0,60,104,0
0,55,83,0
0,63,104,0
0,38,127,0
0,38,0,8
0,67,0,5
0,63,0,2
0,60,71,9
0,67,0,2
0,48,0,3
0,55,0,5
0,60,0,3
0,74,0,25
0,44,88,19
0,60,97,0
0,51,86,0
0,68,91,0
0,63,94,0
0,56,79,0
0,32,127,0
0,68,81,0
0,72,88,0
0,60,81,0
0,63,86,0
0,56,75,0
0,75,67,0
0,36,127,0
0,36,0,1
0,56,54,0
0,60,94,14
0,63,101,0
0,68,101,0
0,42,127,0
0,42,0,9
0,56,0,3
0,60,0,46
0,56,59,2
0,68,0,3
0,63,0,1
0,60,101,4
0,63,108,0
0,68,104,0
0,56,0,9
0,51,0,14
0,44,0,2
0,63,0,22
0,60,0,1
0,68,0,2
0,56,60,10
0,60,97,2
0,63,97,0
0,68,97,0
0,55,64,0
0,43,79,0
0,32,0,0
0,31,127,0
0,54,127,0
0,54,0,10
0,56,57,8
0,56,0,8
0,53,86,3
0,41,86,0
0,60,97,0
0,65,101,0
0,68,101,0
0,29,127,0
0,65,71,0
0,72,88,0
0,53,73,0
0,67,88,0
0,60,88,0
0,36,127,0
0,60,62,1
0,60,0,18
0,53,0,2
0,41,0,4
0,60,94,11
0,68,97,0
0,65,108,0
0,68,88,0
0,42,127,0
0,67,0,1
0,60,68,3
0,60,0,15
0,60,0,7
0,53,0,4
0,53,94,2
0,46,88,0
0,60,104,0
0,58,91,0
0,65,104,0
0,62,104,0
0,34,127,0
0,65,63,0
0,58,88,0
0,70,81,0
0,68,0,1
0,74,86,10
0,77,97,30
0,53,101,30
0,38,127,0
0,74,0,2
0,38,0,8
0,58,91,20
0,74,81,0
0,46,0,2
0,53,0,5
0,60,77,9
0,60,0,19
0,62,81,11
0,58,97,7
0,51,94,0
0,63,86,0
0,70,97,0
0,65,97,0
0,67,97,0
0,39,127,0
0,65,101,0
0,63,79,0
0,75,104,0
0,67,94,0
0,70,73,0
0,36,127,0
0,63,61,2
0,70,0,1
0,67,0,7
0,63,0,10
0,63,91,4
0,70,97,0
0,67,101,0
0,42,127,0
0,42,0,10
0,63,0,21
0,70,0,22
0,67,0,4
0,63,53,3
0,63,0,19
0,70,101,41
0,63,101,0
0,67,117,0
0,63,0,33
0,63,57,27
0,67,0,1
0,70,0,3
0,51,0,6
0,63,0,18
0,65,97,2
0,50,97,8
0,70,97,0
0,65,94,0
0,63,86,0
0,67,97,0
0,38,127,0
0,70,79,0
0,74,101,0
0,62,91,0
0,54,127,0
0,39,0,3
0,75,0,0
0,63,67,3
0,58,0,6
0,63,0,6
0,65,0,12
0,67,86,6
0,63,94,0
0,60,81,0
0,62,0,13
0,48,94,0
0,55,94,0
0,67,101,0
0,60,91,0
0,63,97,0
0,36,127,0
0,72,94,0
0,75,86,0
0,36,127,0
0,74,0,2
0,70,0,5
0,36,0,3
0,60,0,20
0,67,0,22
0,63,0,0
0,60,48,8
0,60,0,11
0,60,108,49
0,67,113,0
0,63,122,0
0,42,127,0
0,42,0,9
0,60,0,29
0,67,0,15
0,55,0,2
0,63,0,2
0,60,55,3
0,48,0,4
0,60,0,13
0,58,97,17
0,65,104,0
0,62,108,0
0,53,97,0
0,46,101,0
0,34,127,0
0,36,0,6
0,58,56,10
0,60,0,1
0,58,77,29
0,70,83,0
0,58,0,9
0,65,0,1
0,62,0,9
0,60,127,11
0,65,117,0
0,63,0,0
0,38,127,0
0,72,0,2
0,38,0,7
0,62,79,21
0,60,0,3
0,58,0,11
0,58,83,16
0,53,0,6
0,46,0,10
0,65,0,5
0,67,0,1
0,70,0,5
0,68,101,1
0,63,88,0
0,72,101,0
0,56,101,0
0,58,0,4
0,34,0,19
0,62,0,1
0,75,0,0
0,56,108,6
0,60,108,0
0,51,101,0
0,44,101,0
0,63,97,0
0,32,127,0
0,36,127,0
0,36,0,9
0,56,50,0
0,60,0,4
0,56,0,35
0,60,108,21
0,56,101,0
0,63,104,0
0,42,127,0
0,42,0,10
0,56,0,32
0,56,59,18
0,60,0,15
0,63,0,2
0,56,0,17
0,60,108,26
0,56,97,0
0,63,108,0
0,56,0,40
0,44,0,5
0,60,0,15
0,56,52,0
0,51,0,4
0,63,0,1
0,56,0,10
0,55,104,15
0,60,104,0
0,43,94,0
0,63,108,0
0,31,127,0
0,54,127,0
0,54,0,7
0,55,0,31
0,60,0,13
0,43,0,1
0,63,0,0
0,55,63,8
0,55,0,12
0,56,0,19
0,72,0,12
0,63,0,1
0,41,91,10
0,53,104,0
0,60,113,0
0,65,101,0
0,56,108,0
0,29,127,0
0,53,86,0
0,65,97,0
0,60,97,0
0,36,127,0
0,31,0,2
0,36,0,7
0,56,50,0
0,60,0,1
0,56,0,21
0,65,97,38
0,56,101,0
0,60,113,0
0,42,127,0
0,42,0,10
0,41,0,7
0,53,0,12
0,56,0,3
0,60,0,17
0,65,0,3
0,56,62,8
0,56,0,15
0,58,101,15
0,65,0,18
0,68,0,0
0,58,101,1
0,62,117,0
0,65,113,0
0,46,94,0
0,53,108,0
0,34,127,0
0,65,75,0
0,62,77,0
0,70,88,0
0,58,64,1
0,58,0,18
0,65,113,5
0,60,127,0
0,38,127,0
0,38,0,9
0,46,0,18
0,62,0,2
0,62,83,1
0,53,0,1
0,60,0,5
0,65,0,15
0,62,0,3
0,65,0,2
0,70,0,3
0,58,77,1
0,58,0,11
0,67,88,19
0,70,91,0
0,75,86,0
0,51,59,0
0,58,79,4
