track,note,velocity,time
1,69,127,0
1,53,127,0
1,60,127,0
1,65,127,0
1,65,0,59
1,69,0,30
1,65,127,31
1,69,127,0
1,69,0,89
1,65,0,0
1,70,127,31
1,65,127,0
1,70,0,29
1,60,0,0
1,65,0,30
1,69,127,1
1,60,127,0
1,65,127,0
1,53,0,29
1,65,0,30
1,53,127,1
1,60,0,29
1,69,0,30
1,53,0,30
1,58,127,31
1,65,127,0
1,68,127,0
1,63,127,0
1,51,127,0
1,51,0,29
1,68,0,0
1,58,0,0
1,65,0,0
1,63,0,0
1,63,127,31
1,51,127,0
1,58,127,0
1,67,127,0
1,51,0,29
1,63,0,0
1,58,0,30
1,67,0,0
1,46,127,61
1,65,127,0
1,62,127,0
1,53,127,0
1,53,0,269
1,46,0,0
1,65,0,0
1,62,0,0
1,53,127,31
1,65,127,0
1,69,127,0
1,60,127,0
1,69,0,89
1,65,0,0
1,65,127,31
1,69,127,0
1,60,0,59
1,69,0,30
1,65,0,0
1,60,127,1
1,60,0,29
1,70,127,1
1,65,127,0
1,60,127,0
1,60,0,29
1,65,0,0
1,70,0,0
1,65,127,31
1,60,127,0
1,69,127,0
1,53,0,29
1,65,0,30
1,53,127,1
1,60,0,29
1,69,0,0
1,53,0,30
1,70,127,61
1,60,127,0
1,53,127,0
1,65,127,0
1,65,0,419
1,70,0,0
1,60,0,0
1,53,0,30
1,48,127,1
1,48,0,29
1,53,127,1
1,60,127,60
1,65,127,60
1,69,127,0
1,69,0,29
1,70,127,31
1,65,0,29
1,70,0,30
1,60,0,0
1,65,127,1
1,60,127,0
1,69,127,0
1,53,0,89
1,53,127,31
1,65,0,59
1,69,0,0
1,70,127,1
1,70,0,29
1,60,0,0
1,53,0,30
1,64,127,1
1,67,127,0
1,52,127,0
1,72,127,0
1,67,0,89
1,64,0,30
1,72,0,0
1,67,127,1
1,67,0,29
1,60,127,31
1,67,127,0
1,64,127,0
1,52,0,179
1,50,127,1
1,50,0,59
1,48,127,1
1,64,0,29
1,67,0,0
1,60,0,30
1,48,0,0
1,50,127,1
1,57,127,60
1,62,127,60
1,65,127,0
1,62,0,59
1,67,127,1
1,65,0,29
1,67,0,30
1,65,127,1
1,62,127,0
1,50,0,149
1,50,127,1
1,67,127,30
1,67,0,29
1,62,0,0
1,50,0,0
1,65,0,0
1,57,0,30
1,48,127,1
1,69,127,0
1,69,0,119
1,64,127,1
1,64,0,29
1,60,127,31
1,64,127,0
1,57,127,0
1,48,0,149
1,48,127,31
1,48,0,59
1,47,127,1
1,47,0,29
1,60,0,0
1,64,0,0
1,57,0,30
1,46,127,1
1,58,127,120
1,62,127,0
1,53,127,0
1,45,127,60
1,53,0,29
1,62,0,0
1,46,0,0
1,58,0,0
1,45,0,30
1,58,127,1
1,62,127,0
1,43,127,0
1,53,127,0
1,65,127,60
1,53,0,29
1,62,0,0
1,58,0,0
1,65,0,30
1,46,127,1
1,70,127,60
1,58,127,0
1,58,0,29
1,70,0,0
1,46,0,30
1,43,0,0
1,62,127,1
1,58,127,0
1,48,127,0
1,69,127,0
1,62,0,89
1,62,127,31
1,69,0,29
1,48,0,90
1,52,127,1
1,62,0,89
1,65,127,31
1,55,127,0
1,52,0,29
1,58,0,30
1,65,0,30
1,55,0,0
1,60,127,31
1,53,127,0
1,57,127,0
1,67,127,0
1,64,127,0
1,67,0,89
1,64,0,30
1,69,127,1
1,57,0,29
1,60,0,0
1,57,127,31
1,60,127,0
1,64,127,0
1,53,0,89
1,53,127,91
1,53,0,59
1,50,127,1
1,50,0,29
1,60,0,0
1,64,0,0
1,57,0,0
1,69,0,30
1,48,127,1
1,48,0,119
1,72,127,1
1,58,127,0
1,65,127,0
1,62,127,0
1,58,0,59
1,48,127,61
1,62,0,29
1,65,0,0
1,72,0,90
1,48,0,0
1,58,127,1
1,62,127,0
1,65,127,0
1,58,0,29
1,65,0,30
1,62,0,0
1,48,127,1
1,48,0,29
1,41,127,31
1,48,127,60
1,57,127,60
1,60,127,0
1,64,127,0
1,53,127,0
1,69,127,0
1,69,0,29
1,41,0,30
1,64,0,0
1,70,127,1
1,70,0,29
1,48,0,0
1,60,0,0
1,57,0,30
1,60,127,1
1,64,127,0
1,69,127,0
1,57,127,0
1,57,0,89
1,64,0,0
1,60,0,0
1,69,0,30
1,41,127,1
1,48,127,0
1,70,127,60
1,70,0,29
1,53,0,0
1,41,0,0
1,48,0,0
1,72,127,31
1,60,127,0
1,64,127,0
1,67,127,0
1,40,127,0
1,52,127,0
1,67,0,89
1,64,0,0
1,40,0,30
1,72,0,0
1,67,127,1
1,67,0,29
1,60,0,0
1,67,127,31
1,55,127,0
1,60,127,0
1,52,0,29
1,55,0,150
1,52,127,1
1,52,0,59
1,50,127,1
1,67,0,29
1,48,127,1
1,48,0,29
1,50,0,0
1,60,0,0
1,50,127,1
1,57,127,60
1,62,127,60
1,65,127,0
1,65,0,59
1,62,0,0
1,67,127,1
1,67,0,59
1,62,127,1
1,65,127,0
1,65,0,179
1,67,127,1
1,67,0,29
1,62,0,0
1,50,0,0
1,57,0,30
1,69,127,1
1,48,127,0
1,69,0,119
1,64,127,1
1,64,0,29
1,64,127,31
1,57,127,0
1,60,127,0
1,48,0,149
1,50,127,31
1,50,0,59
1,48,127,1
1,60,0,29
1,64,0,0
1,57,0,30
1,48,0,0
1,46,127,1
1,62,127,120
1,58,127,0
1,53,127,0
1,45,127,60
1,53,0,29
1,58,0,0
1,62,0,0
1,46,0,30
1,45,0,0
1,62,127,1
1,43,127,0
1,58,127,0
1,53,127,0
1,53,0,59
1,65,127,1
1,65,0,29
1,58,0,0
1,62,0,0
1,46,127,31
1,70,127,60
1,70,0,29
1,46,0,30
1,43,0,0
1,62,127,1
1,48,127,0
1,69,127,0
1,58,127,0
1,62,0,89
1,69,0,30
1,62,127,1
1,62,0,59
1,58,0,0
1,62,127,1
1,58,127,0
1,36,127,0
1,48,0,89
1,36,0,90
1,48,127,1
1,65,127,60
1,65,0,29
1,62,0,0
1,58,0,0
1,48,0,30
1,67,127,1
1,48,127,0
1,60,127,0
1,65,127,0
1,65,0,29
1,67,0,0
1,60,0,30
1,69,127,61
1,60,127,0
1,65,127,0
1,65,0,59
1,60,0,0
1,60,127,1
1,60,0,29
1,69,0,0
1,48,0,0
1,53,127,1
1,53,0,29
1,60,127,1
1,69,127,0
1,53,127,0
1,65,127,0
1,60,0,59
1,69,0,60
1,60,127,1
1,53,0,29
1,65,0,0
1,60,0,30
1,55,127,1
1,55,0,29
1,58,127,31
1,72,127,0
1,65,127,0
1,48,127,0
1,62,127,0
1,62,0,89
1,58,0,0
1,65,0,30
1,72,0,60
1,48,0,0
1,58,127,1
1,72,127,0
1,62,127,0
1,65,127,0
1,65,0,89
1,62,0,0
1,62,127,31
1,72,0,29
1,65,127,31
1,72,127,0
1,65,0,29
1,62,0,0
1,58,0,30
1,72,0,0
1,48,127,1
1,48,0,29
1,44,127,31
1,56,127,0
1,63,127,60
1,44,0,29
1,63,0,30
1,75,127,1
1,72,127,0
1,68,127,0
1,68,0,29
1,72,0,0
1,75,0,30
1,75,127,1
1,72,127,0
1,68,127,0
1,68,0,29
1,56,0,0
1,75,0,0
1,72,0,0
1,68,127,31
1,72,127,0
1,75,127,0
1,56,127,0
1,75,0,89
1,68,0,0
1,72,0,0
1,68,127,31
1,72,127,0
1,75,127,0
1,72,0,29
1,56,0,0
1,68,0,30
1,75,0,0
1,56,127,1
1,56,0,29
1,51,127,31
1,67,127,0
1,75,127,0
1,79,127,0
1,70,127,0
1,75,0,89
1,79,0,30
1,70,0,0
1,70,127,1
1,75,127,0
1,75,0,29
1,70,0,0
1,67,0,0
1,51,0,30
1,70,127,1
1,75,127,0
1,67,127,0
1,55,127,0
1,67,0,89
1,75,0,0
1,70,0,30
1,70,127,1
1,67,127,0
1,75,127,0
1,75,0,59
1,55,0,0
1,70,0,0
1,67,0,0
1,51,127,1
1,74,127,0
1,70,127,0
1,70,0,29
1,74,0,30
1,75,127,1
1,75,0,29
1,51,0,0
1,70,127,31
1,74,127,0
1,77,127,0
1,65,127,0
1,53,127,0
1,53,0,29
1,77,0,60
1,74,0,0
1,74,127,31
1,77,127,0
1,53,127,0
1,53,0,29
1,74,0,30
1,77,0,60
1,74,127,1
1,53,127,0
1,53,0,29
1,77,127,31
1,74,0,29
1,65,0,0
1,77,0,1
1,70,0,29
1,53,127,1
1,53,0,29
1,53,127,91
1,79,127,0
1,64,127,0
1,72,127,0
1,76,127,0
1,69,127,0
1,76,0,89
1,79,0,0
1,81,127,31
1,72,0,29
1,69,0,0
1,81,0,30
1,81,127,1
1,72,127,0
1,76,127,0
1,69,127,0
1,69,0,89
1,72,0,30
1,69,127,1
1,72,127,0
1,69,0,29
1,72,0,30
1,72,127,1
1,69,127,0
1,60,127,0
1,72,0,29
1,76,0,0
1,53,0,0
1,81,0,0
1,64,0,0
1,60,0,30
1,69,0,0
1,58,127,1
1,58,0,59
1,56,127,1
1,63,127,60
1,75,127,60
1,68,127,0
1,72,127,0
1,72,0,29
1,75,0,0
1,68,0,0
1,72,127,31
1,75,127,0
1,68,127,0
1,68,0,29
1,72,0,0
1,75,0,0
1,72,127,31
1,75,127,0
1,68,127,0
1,68,0,89
1,72,0,0
1,75,0,0
1,63,0,0
1,63,127,31
1,72,127,0
1,75,127,0
1,68,127,0
1,68,0,29
1,56,0,0
1,72,0,0
1,63,0,0
1,75,0,30
1,56,127,1
1,56,0,29
1,70,127,31
1,75,127,0
1,67,127,0
1,51,127,0
1,79,127,0
1,79,0,89
1,70,0,0
1,75,0,0
1,75,127,31
1,67,0,29
1,75,0,30
1,70,127,1
1,75,127,0
1,67,127,0
1,58,127,60
1,75,0,29
1,51,0,0
1,74,127,31
1,74,0,59
1,70,0,0
1,75,127,1
1,51,127,0
1,58,0,29
1,67,0,0
1,51,0,60
1,75,0,30
1,58,127,1
1,74,127,0
1,77,127,0
1,65,127,0
1,70,127,0
1,77,0,89
1,74,0,0
1,74,127,31
1,77,127,0
1,58,0,29
1,58,127,31
1,58,0,29
1,74,0,0
1,77,0,30
1,58,127,1
1,74,127,0
1,70,0,29
1,65,0,0
1,65,127,31
1,70,127,0
1,77,127,0
1,77,0,29
1,65,0,0
1,74,0,0
1,58,0,0
1,70,0,0
1,58,127,31
1,58,0,29
1,70,127,91
1,58,127,0
1,77,127,0
1,84,127,0
1,65,127,0
1,65,0,29
1,77,0,0
1,70,0,0
1,58,0,0
1,84,0,0
1,70,127,151
1,60,127,0
1,77,127,0
1,67,127,0
1,84,127,0
1,84,0,29
1,77,0,0
1,70,0,0
1,60,0,0
1,67,0,0
1,70,127,151
1,77,127,0
1,84,127,0
1,60,127,0
1,67,127,0
1,67,0,29
1,84,0,0
1,70,0,0
1,77,0,0
1,60,0,0
1,53,127,91
1,65,127,60
1,69,127,60
1,72,127,0
1,77,127,0
1,77,0,59
1,69,0,0
1,72,0,0
1,74,127,1
1,74,0,59
1,57,127,1
1,72,127,0
1,72,0,59
1,65,0,0
1,57,0,60
1,72,127,1
1,60,127,0
1,53,0,29
1,60,0,30
1,72,0,0
1,69,127,1
1,69,0,59
1,52,127,1
1,67,127,0
1,72,127,0
1,64,127,0
1,72,0,89
1,67,0,30
1,74,127,1
1,74,0,29
1,67,127,31
1,69,127,0
1,67,0,29
1,64,0,0
1,67,127,91
1,52,0,59
1,60,127,1
1,67,0,59
1,69,0,0
1,52,127,1
1,52,0,29
1,60,0,0
1,50,127,31
1,57,127,60
1,62,127,60
1,65,127,0
1,65,0,59
1,67,127,1
1,62,0,29
1,57,0,0
1,67,0,30
1,65,127,1
1,57,127,0
1,62,127,0
1,50,0,89
1,67,127,31
1,50,127,0
1,65,0,29
1,62,0,0
1,67,0,90
1,50,0,0
1,69,127,1
1,48,127,0
1,57,0,29
1,69,0,90
1,64,127,1
1,64,0,59
1,64,127,1
1,60,127,0
1,57,127,0
1,48,0,179
1,50,127,1
1,50,0,59
1,48,127,1
1,64,0,29
1,60,0,0
1,57,0,30
1,48,0,0
1,46,127,1
1,62,127,120
1,53,127,0
1,58,127,0
1,58,0,59
1,45,127,1
1,46,0,29
1,53,0,0
1,62,0,0
1,45,0,30
1,62,127,1
1,53,127,0
1,58,127,0
1,43,127,0
1,65,127,60
1,65,0,29
1,62,0,0
1,58,0,0
1,53,0,0
1,43,0,30
1,46,127,1
1,70,127,60
1,70,0,29
1,46,0,30
1,62,127,1
1,48,127,0
1,58,127,0
1,69,127,0
1,69,0,89
1,62,0,0
1,62,127,31
1,62,0,29
1,62,127,31
1,36,127,0
1,48,0,59
1,48,127,61
1,36,0,29
1,65,127,31
1,48,0,59
1,48,127,1
1,48,0,29
1,65,0,0
1,62,0,0
1,67,127,31
1,52,127,0
1,41,127,0
1,58,0,59
1,67,0,60
1,69,127,1
1,60,127,60
1,57,127,0
1,64,127,0
1,41,0,29
1,57,0,150
1,60,0,0
1,52,0,0
1,64,0,0
1,48,127,1
1,69,0,29
1,48,0,30
1,52,127,1
1,52,0,29
1,48,127,31
1,72,127,0
1,65,127,0
1,58,127,0
1,62,127,0
1,48,0,29
1,58,0,30
1,62,0,0
1,65,0,0
1,72,0,30
1,48,127,31
1,72,127,60
1,62,127,0
1,65,127,0
1,58,127,0
1,58,0,89
1,65,0,30
1,55,127,1
1,48,0,29
1,62,0,0
1,72,0,0
1,65,127,31
1,72,127,0
1,58,127,0
1,62,127,0
1,55,0,29
1,58,0,30
1,65,0,0
1,72,0,0
1,62,0,0
1,48,127,1
1,48,0,29
1,41,127,31
1,48,127,60
1,41,0,59
1,53,127,1
1,65,127,0
1,69,127,0
1,60,127,0
1,69,0,29
1,48,0,0
1,70,127,31
1,70,0,29
1,60,0,0
1,65,0,0
1,53,0,30
1,57,127,1
1,60,127,0
1,69,127,0
1,65,127,0
1,57,0,119
1,53,127,1
1,69,0,59
1,70,127,1
1,70,0,29
1,53,0,0
1,65,0,0
1,52,127,31
1,72,127,0
1,72,0,89
1,60,0,30
1,74,127,1
1,74,0,29
1,64,127,31
1,72,127,0
1,67,127,0
1,60,127,0
1,55,127,0
1,52,0,29
1,67,0,60
1,64,0,0
1,72,0,30
1,69,127,1
1,55,0,59
1,67,127,1
1,52,127,0
1,60,0,29
1,69,0,30
1,67,0,0
1,55,127,1
1,55,0,29
1,52,0,0
1,50,127,31
1,57,127,60
1,62,127,60
1,62,0,59
1,67,127,1
1,67,0,59
1,53,127,1
1,65,127,0
1,62,127,0
1,50,0,29
1,65,0,60
1,62,0,0
1,57,0,30
1,67,127,1
1,50,127,60
1,50,0,29
1,67,0,0
1,53,0,0
1,69,127,31
1,45,127,0
1,64,127,120
1,64,0,29
1,69,0,0
1,45,0,30
1,52,127,1
1,64,127,0
1,57,127,0
1,60,127,0
1,57,0,179
1,57,127,1
1,48,127,0
1,52,0,29
1,57,0,30
1,48,0,0
1,45,127,1
1,45,0,29
1,64,0,0
1,60,0,0
1,46,127,31
1,58,127,120
1,62,127,0
1,53,127,0
1,46,0,59
1,45,127,1
1,46,127,0
1,46,0,29
1,53,0,0
1,58,0,0
1,62,0,0
1,45,0,30
1,43,127,1
1,53,127,0
1,58,127,0
1,62,127,0
1,53,0,59
1,65,127,1
1,65,0,29
1,62,0,0
1,58,0,0
1,46,127,31
1,43,0,29
1,70,127,31
1,70,0,29
1,46,0,30
1,48,127,1
1,58,127,0
1,62,127,0
1,69,127,0
1,58,0,89
1,62,0,30
1,58,127,1
1,69,0,29
1,62,127,31
1,36,127,0
1,48,0,59
1,48,127,61
1,65,127,60
1,48,0,29
1,36,0,0
1,62,0,30
1,48,127,1
1,48,0,29
1,58,0,0
1,65,0,0
1,57,127,31
1,60,127,0
1,67,127,0
1,52,127,0
1,41,127,0
1,67,0,89
1,60,0,30
1,69,127,1
1,57,0,29
1,52,0,0
1,52,127,31
1,69,0,59
1,60,127,1
1,57,127,0
1,64,127,0
1,52,0,29
