track,note,velocity,time
1,59,85,0
1,52,85,0
1,64,85,4
1,68,85,6
1,64,0,24
1,64,85,26
1,68,85,30
1,64,0,30
1,59,0,0
1,64,85,0
1,68,0,10
1,68,0,20
1,59,85,30
1,59,85,30
1,52,0,30
1,64,0,0
1,64,85,0
1,66,85,30
1,59,0,30
1,64,85,0
1,59,0,30
1,59,85,0
1,64,0,30
1,44,85,0
1,66,0,30
1,64,0,30
1,59,85,0
1,59,0,30
1,61,85,0
1,44,0,30
1,45,85,0
1,59,0,60
1,64,85,0
1,61,0,30
1,66,85,0
1,64,85,0
1,64,0,60
1,64,0,0
1,59,85,0
1,66,0,30
1,59,85,0
1,45,0,30
1,47,85,0
1,64,85,0
1,66,85,30
1,59,0,30
1,64,85,0
1,59,0,30
1,59,85,0
1,63,85,0
1,66,85,0
1,64,0,30
1,66,0,30
1,64,0,30
1,59,0,60
1,63,0,0
1,66,0,0
1,47,0,0
1,49,85,0
1,68,85,0
1,68,0,60
1,64,85,0
1,64,0,30
1,66,85,0
1,64,85,30
1,59,85,60
1,66,0,30
1,59,85,0
1,59,0,30
1,64,0,0
1,64,85,0
1,64,0,30
1,66,85,0
1,66,0,30
1,59,0,0
1,64,85,0
1,64,0,30
1,59,85,0
1,49,0,30
1,44,85,0
1,44,0,60
1,59,0,0
1,59,85,0
1,59,0,30
1,61,85,0
1,45,85,0
1,61,0,60
1,64,85,0
1,64,0,30
1,66,85,0
1,66,0,30
1,64,85,0
1,64,0,60
1,59,85,0
1,59,0,30
1,59,85,0
1,59,0,30
1,45,0,0
1,47,85,0
1,64,85,0
1,64,0,30
1,66,85,0
1,66,0,30
1,64,85,0
1,64,0,30
1,59,85,0
1,59,0,150
1,47,0,0
1,52,85,0
1,68,85,3
1,64,85,56
1,68,85,30
1,64,0,30
1,64,85,0
1,68,0,3
1,68,0,27
1,59,85,30
1,59,85,30
1,52,0,30
1,64,0,0
1,64,85,0
1,66,85,30
1,59,0,30
1,64,85,0
1,59,0,30
1,59,85,0
1,64,0,30
1,44,85,0
1,66,0,30
1,64,0,30
1,59,85,0
1,59,0,30
1,61,85,0
1,44,0,30
1,45,85,0
1,59,0,60
1,64,85,0
1,61,0,30
1,66,85,0
1,64,85,0
1,64,0,60
1,64,0,0
1,59,85,0
1,66,0,30
1,59,85,0
1,45,0,30
1,47,85,0
1,64,85,0
1,66,85,30
1,59,0,30
1,64,85,0
1,59,0,30
1,59,85,0
1,63,85,0
1,66,85,0
1,64,0,30
1,66,0,30
1,64,0,30
1,59,0,60
1,63,0,0
1,66,0,0
1,47,0,0
1,49,85,0
1,68,85,0
1,68,0,60
1,64,85,0
1,64,0,30
1,66,85,0
1,64,85,30
1,59,85,60
1,66,0,30
1,59,85,0
1,59,0,30
1,64,0,0
1,64,85,0
1,64,0,30
1,66,85,0
1,66,0,30
1,59,0,0
1,64,85,0
1,64,0,30
1,59,85,0
1,49,0,30
1,44,85,0
1,44,0,60
1,59,0,0
1,59,85,0
1,59,0,30
1,61,85,0
1,45,85,0
1,61,0,60
1,64,85,0
1,64,0,30
1,66,85,0
1,66,0,30
1,64,85,0
1,64,0,60
1,59,85,0
1,59,0,30
1,59,85,0
1,59,0,30
1,45,0,0
1,47,85,0
1,64,85,0
1,64,0,30
1,66,85,0
1,66,0,30
1,64,85,0
1,64,0,30
1,59,85,0
1,59,0,150
1,47,0,0
1,52,85,0
1,68,85,3
1,64,85,56
1,68,85,30
1,64,0,30
1,64,85,0
1,68,0,3
1,68,0,27
1,59,85,30
1,59,85,30
1,52,0,30
1,64,0,0
1,64,85,0
1,66,85,30
1,59,0,30
1,64,85,0
1,59,0,30
1,59,85,0
1,64,0,30
1,44,85,0
1,66,0,30
1,64,0,30
1,59,85,0
1,59,0,30
1,61,85,0
1,44,0,30
1,45,85,0
1,59,0,60
1,64,85,0
1,61,0,30
1,66,85,0
1,64,85,0
1,64,0,60
1,64,0,0
1,59,85,0
1,66,0,30
1,59,85,0
1,45,0,30
1,47,85,0
1,64,85,0
1,66,85,30
1,59,0,30
1,64,85,0
1,59,0,30
1,59,85,0
1,63,85,0
1,66,85,0
1,64,0,30
1,66,0,30
1,64,0,30
1,59,0,60
1,63,0,0
1,66,0,0
1,47,0,0
1,49,85,0
1,68,85,0
1,68,0,60
1,64,85,0
1,64,0,30
1,66,85,0
1,64,85,30
1,59,85,60
1,66,0,30
1,59,85,0
1,59,0,30
1,64,0,0
1,64,85,0
1,64,0,30
1,66,85,0
1,66,0,30
1,59,0,0
1,64,85,0
1,64,0,30
1,59,85,0
1,49,0,30
1,44,85,0
1,44,0,60
1,59,0,0
1,59,85,0
1,59,0,30
1,61,85,0
1,45,85,0
1,61,0,60
1,64,85,0
1,64,0,30
1,66,85,0
1,66,0,30
1,64,85,0
1,64,0,60
1,59,85,0
1,59,0,30
1,59,85,0
1,59,0,30
1,45,0,0
1,47,85,0
1,64,85,0
1,64,0,30
1,66,85,0
1,66,0,30
1,64,85,0
1,64,0,30
1,59,85,0
1,59,0,150
1,47,0,0
1,52,71,0
1,68,71,3
1,64,71,56
1,68,71,30
1,64,0,30
1,64,71,0
1,68,0,3
1,68,0,27
1,59,71,30
1,59,71,30
1,52,0,30
1,64,0,0
1,64,71,0
1,66,71,30
1,59,0,30
1,64,71,0
1,59,0,30
1,59,71,0
1,64,0,30
1,44,71,0
1,66,0,30
1,64,0,30
1,59,71,0
1,59,0,30
1,61,71,0
1,44,0,30
1,45,71,0
1,59,0,60
1,64,71,0
1,61,0,30
1,66,71,0
1,64,71,0
1,64,0,60
1,64,0,0
1,59,71,0
1,66,0,30
1,59,71,0
1,45,0,30
1,47,71,0
1,64,71,0
1,66,71,30
1,59,0,30
1,64,71,0
1,59,0,30
1,59,71,0
1,63,71,0
1,66,71,0
1,64,0,30
1,66,0,30
1,64,0,30
1,59,0,60
1,63,0,0
1,66,0,0
1,47,0,0
1,49,71,0
1,68,71,0
1,68,0,60
1,64,71,0
1,64,0,30
1,66,71,0
1,64,71,30
1,59,71,60
1,66,0,30
1,59,71,0
1,59,0,30
1,64,0,0
1,64,71,0
1,64,0,30
1,66,71,0
1,66,0,30
1,59,0,0
1,64,71,0
1,64,0,30
1,59,71,0
1,49,0,30
1,44,71,0
1,44,0,60
1,59,0,0
1,59,71,0
1,59,0,30
1,61,71,0
1,45,71,0
1,61,0,60
1,64,71,0
1,64,0,30
1,66,71,0
1,66,0,30
1,64,71,0
1,64,0,60
1,59,71,0
1,59,0,30
1,59,71,0
1,59,0,30
1,45,0,0
1,47,71,0
1,64,71,0
1,64,0,30
1,66,71,0
1,66,0,30
1,64,71,0
1,64,0,30
1,59,71,0
1,59,0,150
1,47,0,0
1,52,71,0
1,68,71,3
1,64,71,56
1,68,71,30
1,64,0,30
1,64,71,0
1,68,0,3
1,68,0,27
1,59,71,30
1,59,71,30
1,52,0,30
1,64,0,0
1,64,71,0
1,66,71,30
1,59,0,30
1,64,71,0
1,59,0,30
1,59,71,0
1,64,0,30
1,44,71,0
1,66,0,30
1,64,0,30
1,59,71,0
1,59,0,30
1,61,71,0
1,44,0,30
1,45,71,0
1,59,0,60
1,64,71,0
1,61,0,30
1,66,71,0
1,64,71,0
1,64,0,60
1,64,0,0
1,59,71,0
1,66,0,30
1,59,71,0
1,45,0,30
1,47,71,0
1,64,71,0
1,66,71,30
1,59,0,30
1,64,71,0
1,59,0,30
1,59,71,0
1,63,71,0
1,66,71,0
1,64,0,30
1,66,0,30
1,64,0,30
1,59,0,60
1,63,0,0
1,66,0,0
1,47,0,0
1,49,71,0
1,68,71,0
1,68,0,60
1,64,71,0
1,64,0,30
1,66,71,0
1,64,71,30
1,59,71,60
1,66,0,30
1,59,71,0
1,59,0,30
1,64,0,0
1,64,71,0
1,64,0,30
1,66,71,0
1,66,0,30
1,59,0,0
1,64,71,0
1,64,0,30
1,59,71,0
1,49,0,30
1,44,71,0
1,44,0,60
1,59,0,0
1,59,71,0
1,59,0,30
1,61,71,0
1,45,71,0
1,61,0,60
1,64,71,0
1,64,0,30
1,66,71,0
1,66,0,30
1,64,71,0
1,64,0,60
1,59,71,0
1,59,0,30
1,59,71,0
1,59,0,30
1,45,0,0
1,47,71,0
1,64,71,0
1,64,0,30
1,66,71,0
1,66,0,30
1,64,71,0
1,64,0,30
1,59,71,0
1,59,0,150
1,47,0,0
1,52,71,7680
1,68,71,3
1,64,71,56
1,68,71,30
1,64,0,30
1,64,71,0
1,68,0,3
1,68,0,27
1,59,71,30
1,59,71,30
1,52,0,30
1,64,0,0
1,64,71,0
1,66,71,30
1,59,0,30
1,64,71,0
1,59,0,30
1,59,71,0
1,64,0,30
1,44,71,0
1,66,0,30
1,64,0,30
1,59,71,0
1,59,0,30
1,61,71,0
1,44,0,30
1,45,71,0
1,59,0,60
1,64,71,0
1,61,0,30
1,66,71,0
1,64,71,0
1,64,0,60
1,64,0,0
1,59,71,0
1,66,0,30
1,59,71,0
1,45,0,30
1,47,71,0
1,64,71,0
1,66,71,30
1,59,0,30
1,64,71,0
1,59,0,30
1,59,71,0
1,63,71,0
1,66,71,0
1,64,0,30
1,66,0,30
1,64,0,30
1,59,0,60
1,63,0,0
1,66,0,0
1,47,0,0
1,49,71,0
1,68,71,0
1,68,0,60
1,64,71,0
1,64,0,30
1,66,71,0
1,64,71,30
1,59,71,60
1,66,0,30
1,59,71,0
1,59,0,30
1,64,0,0
1,64,71,0
1,64,0,30
1,66,71,0
1,66,0,30
1,59,0,0
1,64,71,0
1,64,0,30
1,59,71,0
1,49,0,30
1,44,71,0
1,44,0,60
1,59,0,0
1,59,71,0
1,59,0,30
1,61,71,0
1,45,71,0
1,61,0,60
1,64,71,0
1,64,0,30
1,66,71,0
1,66,0,30
1,64,71,0
1,64,0,60
1,59,71,0
1,59,0,30
1,59,71,0
1,59,0,30
1,45,0,0
1,47,71,0
1,64,71,0
1,64,0,30
1,66,71,0
1,66,0,30
1,64,71,0
1,64,0,30
1,59,71,0
1,59,0,150
1,47,0,0
1,52,71,7680
1,68,71,3
1,64,71,56
1,68,71,30
1,64,0,30
1,64,71,0
1,68,0,3
1,68,0,27
1,59,71,30
1,59,71,30
1,52,0,30
1,64,0,0
1,64,71,0
1,66,71,30
1,59,0,30
1,64,71,0
1,59,0,30
1,59,71,0
1,64,0,30
1,44,71,0
1,66,0,30
1,64,0,30
1,59,71,0
1,59,0,30
1,61,71,0
1,44,0,30
1,45,71,0
1,59,0,60
1,64,71,0
1,61,0,30
1,66,71,0
1,64,71,0
1,64,0,60
1,64,0,0
1,59,71,0
1,66,0,30
1,59,71,0
1,45,0,30
1,47,71,0
1,64,71,0
1,66,71,30
1,59,0,30
1,64,71,0
1,59,0,30
1,59,71,0
1,63,71,0
1,66,71,0
1,64,0,30
1,66,0,30
1,64,0,30
1,59,0,60
1,63,0,0
1,66,0,0
1,47,0,0
1,49,71,0
1,68,71,0
1,68,0,60
1,64,71,0
1,64,0,30
1,66,71,0
1,64,71,30
1,59,71,60
1,66,0,30
1,59,71,0
1,59,0,30
1,64,0,0
1,64,71,0
1,64,0,30
1,66,71,0
1,66,0,30
1,59,0,0
1,64,71,0
1,64,0,30
1,59,71,0
1,49,0,30
1,44,71,0
1,44,0,60
1,59,0,0
1,59,71,0
1,59,0,30
1,61,71,0
1,45,71,0
1,61,0,60
1,64,71,0
1,64,0,30
1,66,71,0
1,66,0,30
1,64,71,0
1,64,0,60
1,59,71,0
1,59,0,30
1,59,71,0
1,59,0,30
1,45,0,0
1,47,71,0
1,64,71,0
1,64,0,30
1,66,71,0
1,66,0,30
1,64,71,0
1,64,0,30
1,59,71,0
1,59,0,150
1,47,0,0
1,54,71,0
1,70,71,3
1,66,71,56
1,70,71,30
1,66,0,30
1,66,71,0
1,70,0,3
1,70,0,27
1,61,71,30
1,61,71,30
1,54,0,30
1,66,0,0
1,66,71,0
1,68,71,30
1,61,0,30
1,66,71,0
1,61,0,30
1,61,71,0
1,66,0,30
1,46,71,0
1,68,0,30
1,66,0,30
1,61,71,0
1,61,0,30
1,63,71,0
1,46,0,30
1,47,71,0
1,61,0,60
1,66,71,0
1,63,0,30
1,68,71,0
1,66,71,0
1,66,0,60
1,66,0,0
1,61,71,0
1,68,0,30
1,61,71,0
1,47,0,30
1,49,71,0
1,66,71,0
1,68,71,30
1,61,0,30
1,66,71,0
1,61,0,30
1,61,71,0
1,65,71,0
1,68,71,0
1,66,0,30
1,68,0,30
1,66,0,30
1,61,0,60
1,65,0,0
1,68,0,0
1,49,0,0
1,51,71,0
1,70,71,0
1,70,0,60
1,66,71,0
1,66,0,30
1,68,71,0
1,66,71,30
1,61,71,60
1,68,0,30
1,61,71,0
1,61,0,30
1,66,0,0
1,66,71,0
1,66,0,30
1,68,71,0
1,68,0,30
1,61,0,0
1,66,71,0
1,66,0,30
1,61,71,0
1,51,0,30
1,46,71,0
1,46,0,60
1,61,0,0
1,61,71,0
1,61,0,30
1,63,71,0
1,47,71,0
1,63,0,60
1,66,71,0
1,66,0,30
1,68,71,0
1,68,0,30
1,66,71,0
1,66,0,60
1,61,71,0
1,61,0,30
1,61,71,0
1,61,0,30
1,47,0,0
1,49,71,0
1,66,71,0
1,66,0,30
1,68,71,0
1,68,0,30
1,66,71,0
1,66,0,30
1,61,71,0
1,61,0,150
1,49,0,0
1,54,71,7680
1,70,71,3
1,66,71,56
1,70,71,30
1,66,0,30
1,66,71,0
1,70,0,3
1,70,0,27
1,61,71,30
1,61,71,30
1,54,0,30
1,66,0,0
1,66,71,0
1,68,71,30
1,61,0,30
1,66,71,0
1,61,0,30
1,61,71,0
1,66,0,30
1,46,71,0
1,68,0,30
1,66,0,30
1,61,71,0
1,61,0,30
1,63,71,0
1,46,0,30
1,47,71,0
1,61,0,60
1,66,71,0
1,63,0,30
1,68,71,0
1,66,71,0
1,66,0,60
1,66,0,0
1,61,71,0
1,68,0,30
1,61,71,0
1,47,0,30
1,49,71,0
1,66,71,0
1,68,71,30
1,61,0,30
1,66,71,0
1,61,0,30
1,61,71,0
1,65,71,0
1,68,71,0
1,66,0,30
1,68,0,30
1,66,0,30
1,61,0,60
1,65,0,0
1,68,0,0
1,49,0,0
1,51,71,0
1,70,71,0
1,70,0,60
1,66,71,0
1,66,0,30
1,68,71,0
1,66,71,30
1,61,71,60
1,68,0,30
1,61,71,0
1,61,0,30
1,66,0,0
1,66,71,0
1,66,0,30
1,68,71,0
1,68,0,30
1,61,0,0
1,66,71,0
1,66,0,30
1,61,71,0
1,51,0,30
1,46,71,0
1,46,0,60
1,61,0,0
1,61,71,0
1,61,0,30
1,63,71,0
1,47,71,0
1,63,0,60
1,66,71,0
1,66,0,30
1,68,71,0
1,68,0,30
1,66,71,0
1,66,0,60
1,61,71,0
1,61,0,30
1,61,71,0
1,61,0,30
1,47,0,0
1,49,71,0
1,66,71,0
1,66,0,30
1,68,71,0
1,68,0,30
1,66,71,0
1,66,0,30
1,61,71,0
1,61,0,150
1,49,0,0
1,59,85,0
1,66,85,0
1,64,85,0
1,64,0,480
1,66,0,0
1,59,0,0
1,56,85,0
1,61,85,0
1,66,85,0
1,66,0,480
1,61,0,0
1,56,0,0
2,64,100,0
2,68,100,0
2,56,100,360
2,56,0,120
2,68,0,0
2,64,0,0
2,61,100,0
2,64,100,0
2,64,0,240
2,61,0,0
2,59,100,0
2,63,100,0
2,63,0,240
2,59,0,0
2,61,100,0
2,64,100,0
2,64,0,360
2,61,0,0
2,56,100,0
2,56,0,120
2,61,100,0
2,64,100,0
2,64,0,240
2,61,0,0
2,59,100,0
2,63,100,0
2,63,0,240
2,59,0,0
2,64,100,0
2,68,100,0
2,56,100,360
2,56,0,120
2,68,0,0
2,64,0,0
2,61,100,0
2,64,100,0
2,64,0,240
2,61,0,0
2,59,100,0
2,63,100,0
2,63,0,240
2,59,0,0
2,61,100,0
2,64,100,0
2,64,0,360
2,61,0,0
2,56,100,0
2,56,0,120
