track,note,velocity,time
0,60,81,219
0,67,66,0
0,72,82,0
0,74,71,0
0,79,58,0
0,36,99,0
0,48,95,0
0,62,57,384
0,48,99,0
0,74,121,7
0,63,69,8
0,79,119,16
0,67,57,11
0,55,85,7
0,84,105,0
0,70,76,1
0,67,93,6
0,72,101,0
0,79,86,0
0,55,95,3
0,57,95,24
0,60,85,25
0,55,95,1
0,60,105,0
0,64,103,0
0,36,117,0
0,62,101,0
0,36,121,0
0,42,84,0
0,49,103,0
0,70,87,0
0,42,42,19
0,42,37,32
0,64,90,21
0,67,90,0
0,72,90,0
0,60,92,1
0,42,82,0
0,85,127,0
0,73,80,1
0,82,25,6
0,42,39,1
0,82,28,12
0,82,37,8
0,24,111,1
0,36,95,0
0,42,76,0
0,24,121,15
0,36,113,0
0,42,74,0
0,70,82,0
0,42,52,32
0,42,51,21
0,42,68,10
0,64,90,5
0,67,90,0
0,72,90,0
0,64,103,1
0,37,127,0
0,42,80,0
0,31,92,1
0,65,81,0
0,42,48,0
0,33,93,1
0,67,89,0
0,42,58,0
0,58,90,19
0,62,97,0
0,67,89,0
0,36,107,0
0,69,95,0
0,36,121,0
0,42,80,0
0,70,87,0
0,42,42,3
0,42,41,32
0,58,90,10
0,62,90,0
0,67,90,0
0,67,85,1
0,42,84,0
0,85,127,0
0,73,80,1
0,82,35,16
0,42,42,1
0,24,87,23
0,36,92,0
0,42,66,0
0,24,109,10
0,36,121,0
0,42,80,0
0,70,82,0
0,42,38,1
0,42,42,3
0,42,58,10
0,58,90,1
0,62,90,0
0,67,90,0
0,67,101,1
0,37,127,0
0,42,86,0
0,82,30,16
0,58,101,1
0,62,97,0
0,67,89,0
0,65,86,0
0,42,43,0
0,82,35,16
0,82,32,3
0,36,95,1
0,64,85,0
0,42,72,0
0,57,82,1
0,60,92,0
0,65,90,0
0,29,115,0
0,67,87,0
0,36,121,0
0,42,80,0
0,70,87,0
0,63,95,9
0,42,41,0
0,62,81,32
0,42,46,0
0,57,90,28
0,60,90,0
0,65,90,0
0,60,86,1
0,42,88,0
0,85,127,0
0,73,80,1
0,82,25,3
0,42,42,0
0,82,28,5
0,82,37,7
0,29,92,1
0,36,99,0
0,42,72,0
0,29,113,4
0,36,117,0
0,42,78,0
0,70,82,0
0,57,53,4
0,42,43,0
0,42,36,14
0,60,82,10
0,42,66,0
0,57,90,31
0,60,90,0
0,65,90,0
0,65,109,1
0,37,127,0
0,42,84,0
0,60,75,5
0,26,90,0
0,42,40,0
0,57,62,1
0,27,99,0
0,42,54,0
0,56,90,4
0,60,95,0
0,64,92,0
0,28,109,0
0,36,121,0
0,42,82,0
0,70,87,0
0,42,40,2
0,42,47,32
0,56,90,31
0,60,90,0
0,64,90,0
0,63,97,1
0,42,82,0
0,85,127,0
0,73,80,1
0,82,35,6
0,62,77,1
0,42,40,0
0,28,90,13
0,60,75,0
0,36,103,0
0,42,68,0
0,28,105,2
0,67,99,0
0,36,113,0
0,42,78,0
0,70,82,0
0,63,90,13
0,42,42,0
0,42,45,17
0,62,90,10
0,42,54,0
0,56,90,27
0,60,90,0
0,64,90,0
0,60,86,1
0,37,127,0
0,42,72,0
0,82,30,2
0,56,93,1
0,60,90,0
0,64,90,0
0,31,87,0
0,42,62,0
0,82,35,4
0,82,32,5
0,33,89,1
0,46,50,0
0,55,89,3
0,60,95,0
0,64,99,0
0,36,105,0
0,36,117,0
0,42,78,0
0,57,113,0
0,70,87,0
0,42,39,15
0,42,34,32
0,64,90,31
0,67,90,0
0,72,90,0
0,55,90,1
0,42,80,0
0,85,127,0
0,73,80,1
0,82,25,0
0,57,86,1
0,42,31,0
0,82,28,17
0,82,37,10
0,24,89,1
0,60,68,0
0,36,109,0
0,42,66,0
0,24,107,1
0,62,93,0
0,36,115,0
0,42,70,0
0,70,82,0
0,42,39,14
0,42,29,21
0,42,57,10
0,64,90,3
0,67,90,0
0,72,90,0
0,60,78,1
0,37,127,0
0,42,78,0
0,36,103,1
0,42,47,0
0,35,83,19
0,42,57,0
0,58,101,1
0,62,105,0
0,67,95,0
0,34,117,0
0,36,119,0
0,42,78,0
0,70,87,0
0,42,39,20
0,42,34,32
0,64,90,31
0,67,90,0
0,72,90,0
0,64,92,1
0,42,88,0
0,85,127,0
0,73,80,1
0,82,35,6
0,65,83,1
0,42,30,0
0,34,90,3
0,67,86,0
0,36,105,0
0,42,64,0
0,34,113,4
0,69,92,0
0,36,113,0
0,42,78,0
0,70,82,0
0,42,42,17
0,42,17,21
0,42,58,10
0,58,90,13
0,62,90,0
0,67,90,0
0,37,127,1
0,42,88,0
0,82,30,0
0,58,95,1
0,62,99,0
0,67,85,0
0,28,93,0
0,67,87,0
0,42,50,0
0,82,35,3
0,82,32,6
0,46,60,1
0,57,85,2
0,60,93,0
0,65,92,0
0,29,103,0
0,36,115,0
0,42,76,0
0,70,87,0
0,42,42,15
0,42,31,32
0,57,90,31
0,60,90,0
0,65,90,0
0,67,95,1
0,42,86,0
0,85,127,0
0,73,80,1
0,82,25,6
0,65,71,1
0,42,42,0
0,82,28,6
0,82,37,10
0,29,76,1
0,64,81,0
0,36,103,0
0,42,62,0
0,29,107,3
0,67,87,0
0,36,111,0
0,42,70,0
0,70,82,0
0,57,42,16
0,63,90,0
0,42,35,0
0,42,35,4
0,60,69,10
0,62,80,0
0,42,52,0
0,57,90,30
0,60,90,0
0,65,90,0
0,65,111,1
0,60,78,0
0,37,127,0
0,42,80,0
0,60,68,3
0,26,87,0
0,42,43,0
0,57,60,3
0,27,97,0
0,42,55,0
0,56,90,2
0,60,95,0
0,64,90,0
0,28,103,0
0,36,117,0
0,42,84,0
0,70,87,0
0,56,83,29
0,42,39,0
0,60,82,2
0,42,46,0
0,56,90,31
0,60,90,0
0,64,90,0
0,64,86,1
0,42,84,0
0,85,127,0
0,73,80,1
0,82,35,6
0,62,63,1
0,42,36,0
0,35,78,1
0,60,77,0
0,36,107,0
0,42,58,0
0,40,109,3
0,67,95,0
0,36,115,0
0,42,84,0
0,70,82,0
0,63,85,16
0,42,43,0
0,42,38,20
0,62,89,10
0,42,62,0
0,56,90,3
0,60,90,0
0,64,90,0
0,60,80,1
0,40,125,0
0,42,84,0
0,82,30,2
0,28,113,1
0,40,125,0
0,42,54,0
0,82,35,0
0,82,32,1
0,46,55,1
0,63,94,2
0,67,103,0
0,72,92,0
0,27,103,0
0,51,70,0
0,55,70,0
0,60,70,0
0,36,125,0
0,42,84,0
0,49,94,0
0,59,77,0
0,63,77,0
0,67,81,0
0,72,80,0
0,42,42,17
0,59,43,0
0,42,37,23
0,59,47,0
0,60,97,6
0,40,125,0
0,42,82,0
0,59,83,0
0,58,87,19
0,42,39,0
0,59,38,0
0,27,103,2
0,55,62,0
0,36,107,0
0,42,76,0
0,59,61,0
0,62,87,1
0,66,97,0
0,72,84,0
0,26,93,0
0,60,81,0
0,50,70,0
0,54,70,0
0,36,123,0
0,42,74,0
0,59,69,0
0,62,86,0
0,66,31,0
0,63,87,20
0,42,52,0
0,59,41,0
0,42,51,3
0,62,87,5
0,42,68,0
0,59,41,0
0,60,86,23
0,40,123,0
0,42,80,0
0,59,75,0
0,26,74,13
0,86,127,0
0,42,48,0
0,59,43,0
0,28,75,4
0,84,127,0
0,42,58,0
0,59,51,0
0,60,77,2
0,65,92,0
0,69,87,0
0,29,95,0
0,53,70,0
0,57,70,0
0,89,127,0
0,36,125,0
0,42,80,0
0,59,67,0
0,60,63,0
0,65,72,0
0,42,42,20
0,59,50,0
0,42,41,0
0,59,52,0
0,60,87,24
0,40,125,0
0,42,84,0
0,59,89,0
0,29,66,9
0,62,82,0
0,42,42,0
0,59,41,0
0,30,87,17
0,64,82,0
0,36,78,0
0,42,66,0
0,59,51,0
0,60,84,2
0,65,91,0
0,69,87,0
0,72,80,0
0,31,101,0
0,67,95,0
0,60,70,0
0,36,123,0
0,42,80,0
0,59,70,0
0,67,53,0
0,64,83,12
0,42,38,0
0,59,33,0
0,42,42,11
0,62,85,2
0,42,58,0
0,59,46,0
0,60,77,24
0,84,119,0
0,40,126,0
0,42,86,0
0,59,75,0
0,62,81,6
0,86,93,0
0,42,43,0
0,59,42,0
0,31,83,3
0,64,87,0
0,88,103,0
0,42,72,0
0,59,51,0
0,60,85,1
0,64,95,0
0,67,91,0
0,24,93,0
0,60,86,0
0,55,70,0
0,60,70,0
0,64,70,0
0,84,109,0
0,36,126,0
0,42,80,0
0,57,89,0
0,59,72,0
0,60,75,0
0,67,86,0
0,42,41,22
0,59,46,0
0,42,46,8
0,59,48,0
0,40,121,2
0,42,88,0
0,59,79,0
0,42,42,3
0,59,50,0
0,24,67,14
0,36,92,0
0,42,72,0
0,59,54,0
0,60,73,1
0,64,84,0
0,68,89,0
0,24,99,0
0,56,70,0
0,36,123,0
0,42,78,0
0,59,79,0
0,56,84,0
0,64,60,0
0,68,89,0
0,42,43,21
0,59,43,0
0,42,36,10
0,42,66,5
0,59,46,0
0,40,125,23
0,42,84,0
0,59,81,0
0,42,40,15
0,59,40,0
0,31,92,1
0,42,54,0
0,59,44,0
0,60,76,1
0,64,88,0
0,67,82,0
0,36,105,0
0,55,70,0
0,36,121,0
0,42,82,0
0,59,75,0
0,55,65,0
0,60,83,0
0,64,78,0
0,67,93,0
0,72,73,0
0,42,40,21
0,59,42,0
0,42,47,8
0,59,45,0
0,40,119,15
0,42,82,0
0,59,81,0
0,36,87,6
0,42,40,0
0,59,33,0
0,35,81,22
0,36,61,0
0,42,68,0
0,59,66,0
0,56,95,1
0,60,97,0
0,64,101,0
0,34,97,0
0,40,126,0
0,67,99,8
0,40,126,0
0,69,90,1
0,36,123,0
0,72,90,1
0,55,95,1
0,60,105,0
0,64,103,0
0,36,117,0
0,74,92,0
0,55,89,0
0,60,95,0
0,64,96,0
0,36,121,0
0,42,84,0
0,49,103,0
0,70,87,0
0,42,42,16
0,42,37,32
0,64,90,18
0,67,90,0
0,72,90,0
0,72,86,1
0,76,110,0
0,79,110,0
0,84,110,0
0,37,127,0
0,42,82,0
0,60,127,0
0,82,25,6
0,42,39,1
0,82,28,1
0,82,37,10
0,24,103,1
0,36,95,0
0,42,76,0
0,24,117,3
0,36,113,0
0,42,74,0
0,70,82,0
0,55,67,4
0,42,52,0
0,42,51,0
0,60,32,7
0,42,68,0
0,64,90,1
0,67,90,0
0,72,90,0
0,64,99,1
0,76,110,0
0,79,110,0
0,84,110,0
0,55,95,0
0,60,93,0
0,64,87,0
0,67,85,0
0,40,127,0
0,42,80,0
0,65,89,3
0,60,79,0
0,42,48,0
0,67,89,1
0,55,50,0
0,42,58,0
0,58,90,4
0,62,97,0
0,67,89,0
0,24,121,0
0,69,90,0
0,53,89,0
0,58,96,0
0,62,83,0
0,65,77,0
0,36,121,0
0,42,80,0
0,70,87,0
0,42,42,18
0,42,41,32
0,58,90,10
0,62,90,0
0,67,90,0
0,67,86,1
0,76,110,0
0,79,110,0
0,84,110,0
0,37,127,0
0,42,84,0
0,60,127,0
0,82,35,11
0,42,42,1
0,24,95,12
0,36,92,0
0,42,66,0
0,24,117,1
0,36,121,0
0,42,80,0
0,70,82,0
0,53,56,13
0,58,97,0
0,62,91,0
0,65,87,0
0,42,38,0
0,42,42,19
0,53,43,1
0,42,58,0
0,58,90,6
0,62,90,0
0,67,90,0
0,67,95,1
0,76,110,0
0,79,110,0
0,84,110,0
0,58,95,0
0,65,77,0
0,40,127,0
0,42,86,0
0,82,30,4
0,58,101,1
0,62,97,0
0,67,89,0
0,31,93,0
0,65,92,0
0,53,83,0
0,42,43,0
0,82,35,7
0,82,32,1
0,33,95,1
0,64,80,0
0,58,51,0
0,42,72,0
0,57,82,1
0,60,92,0
0,65,90,0
0,29,123,0
0,67,95,0
0,53,87,0
0,57,95,0
0,60,89,0
0,65,81,0
0,36,121,0
0,42,80,0
0,70,87,0
0,63,80,15
0,42,41,0
0,62,77,24
0,42,46,0
0,57,90,2
0,60,90,0
0,65,90,0
0,60,82,1
0,81,110,0
0,84,110,0
0,89,110,0
0,37,127,0
0,42,88,0
0,60,127,0
0,82,25,3
0,57,74,0
0,53,33,0
0,42,42,0
0,82,28,8
0,82,37,1
0,29,105,1
0,57,51,0
0,36,99,0
0,42,72,0
0,29,121,15
0,57,83,0
0,65,77,0
0,36,117,0
0,42,78,0
0,70,82,0
0,57,53,4
0,53,36,0
0,42,43,0
0,42,36,9
0,60,82,7
0,57,69,0
0,42,66,0
0,57,90,8
0,60,90,0
0,65,90,0
0,65,109,1
0,81,110,0
0,84,110,0
0,89,110,0
0,57,83,0
0,65,79,0
0,40,127,0
0,42,84,0
0,60,75,3
0,26,97,0
0,60,79,0
0,42,40,0
0,57,62,1
0,27,109,0
0,42,54,0
0,56,90,4
0,60,95,0
0,64,92,0
0,28,119,0
0,56,91,0
0,60,85,0
0,64,85,0
0,36,121,0
0,42,82,0
0,70,87,0
0,56,81,1
0,42,40,0
0,60,83,32
0,42,47,0
0,56,90,3
0,60,90,0
0,64,90,0
0,63,97,1
0,80,110,0
0,84,110,0
0,88,110,0
0,37,127,0
0,42,82,0
0,60,127,0
0,82,35,3
0,62,82,1
0,56,57,0
0,42,40,0
0,35,90,2
0,60,76,0
0,60,56,0
0,36,103,0
0,42,68,0
0,40,117,1
0,67,97,0
0,60,85,0
0,64,79,0
0,36,113,0
0,42,78,0
0,70,82,0
0,63,80,13
0,56,56,0
0,42,42,0
0,42,45,10
0,62,90,10
0,60,57,0
0,42,54,0
0,56,90,29
0,60,90,0
0,64,90,0
0,60,86,1
0,80,110,0
0,84,110,0
0,88,110,0
0,64,73,0
0,40,127,0
0,42,72,0
0,82,30,3
0,56,93,1
0,60,90,0
0,64,90,0
0,28,113,0
0,56,93,0
0,42,62,0
0,82,35,3
0,82,32,0
0,46,50,0
0,55,89,3
0,60,95,0
0,64,99,0
0,24,117,0
0,55,91,0
0,60,96,0
0,64,96,0
0,36,117,0
0,42,78,0
0,57,113,0
0,70,87,0
0,69,90,2
0,42,39,0
0,67,83,15
0,42,34,0
0,64,90,2
0,67,90,0
0,72,90,0
0,69,89,1
0,76,110,0
0,79,110,0
0,84,110,0
0,37,127,0
0,42,80,0
0,60,126,0
0,82,25,0
0,42,31,1
0,82,28,2
0,82,37,1
0,24,93,1
0,60,30,0
0,36,109,0
0,42,66,0
0,24,115,7
0,60,55,0
0,67,56,0
0,36,115,0
0,42,70,0
0,70,82,0
0,60,85,2
0,55,32,0
0,42,39,0
0,42,29,17
0,64,99,1
0,60,50,0
0,42,57,0
0,64,90,3
0,67,90,0
0,72,90,0
0,76,110,1
0,79,110,0
0,84,110,0
0,60,93,0
0,64,87,0
0,67,83,0
0,40,127,0
0,42,78,0
0,36,105,1
0,55,52,0
0,42,47,0
0,35,111,9
0,42,57,0
0,58,101,1
0,62,105,0
0,67,95,0
0,34,126,0
0,53,73,0
0,58,91,0
0,62,69,0
0,65,65,0
0,36,119,0
0,42,78,0
0,70,87,0
0,72,99,26
0,42,39,0
0,42,34,11
0,64,90,31
0,67,90,0
0,72,90,0
0,76,110,1
0,79,110,0
0,84,110,0
0,37,127,0
0,42,88,0
0,60,127,0
0,82,35,6
0,69,86,1
0,53,30,0
0,42,30,0
0,34,92,1
0,67,82,0
0,58,41,0
0,36,105,0
0,42,64,0
0,34,123,5
0,69,89,0
0,36,113,0
0,42,78,0
0,70,82,0
0,53,56,17
0,42,42,0
0,42,17,21
0,58,77,2
0,42,58,0
0,58,90,17
0,62,90,0
0,67,90,0
0,67,92,1
0,76,110,0
0,79,110,0
0,84,110,0
0,58,97,0
0,62,85,0
0,65,83,0
0,40,127,0
0,42,88,0
0,82,30,1
0,58,95,1
0,62,99,0
0,67,85,0
0,27,103,0
0,53,79,0
0,42,50,0
0,82,35,3
0,82,32,4
0,28,95,1
0,58,79,0
0,46,60,0
0,57,85,4
0,60,93,0
0,65,92,0
0,29,121,0
0,57,89,0
0,60,83,0
