track,note,velocity,time
1,40,80,960
1,40,0,156
1,40,91,24
1,40,0,42
1,42,82,18
1,42,0,180
1,42,89,0
1,42,0,31
1,43,82,29
1,43,0,180
1,35,89,0
1,35,0,31
1,33,82,29
1,33,0,180
1,41,89,0
1,41,0,31
1,35,85,29
1,35,0,174
1,35,80,6
1,35,0,40
1,35,80,20
1,35,0,156
1,35,91,24
1,35,0,42
1,35,80,18
1,35,0,156
1,35,91,24
1,35,0,42
1,35,82,18
1,35,0,180
1,35,89,0
1,35,0,31
1,40,85,29
1,40,0,154
1,40,95,26
1,40,0,43
1,42,80,17
1,42,0,156
1,42,91,24
1,42,0,42
1,43,85,18
1,43,0,174
1,35,80,6
1,35,0,40
1,35,85,20
1,35,0,174
1,30,80,6
1,30,0,40
1,40,85,20
1,40,0,154
1,40,95,26
1,40,0,43
1,42,87,17
1,42,0,120
1,38,87,0
1,38,0,120
1,43,85,0
1,43,0,154
1,43,95,26
1,43,0,43
1,43,82,17
1,43,0,180
1,43,89,0
1,43,0,31
1,33,85,29
1,33,0,174
1,28,80,6
1,28,0,40
1,35,87,20
1,35,0,120
1,35,87,0
1,35,0,120
1,40,85,0
1,40,0,154
1,40,95,26
1,40,0,43
1,38,87,17
1,38,0,120
1,37,87,0
1,37,0,120
1,36,85,0
1,36,0,154
1,36,95,26
1,36,0,43
1,35,87,17
1,35,0,120
1,35,87,0
1,35,0,120
1,40,80,0
1,40,0,156
1,40,91,24
1,40,0,42
1,42,85,18
1,42,0,154
1,42,95,26
1,42,0,43
1,43,85,17
1,43,0,174
1,35,80,6
1,35,0,40
1,33,82,20
1,33,0,180
1,33,89,0
1,33,0,31
1,35,80,29
1,35,0,156
1,35,91,24
1,35,0,42
1,35,85,18
1,35,0,174
1,37,80,6
1,37,0,40
1,35,82,20
1,35,0,180
1,35,89,0
1,35,0,31
1,35,80,29
1,35,0,156
1,35,91,24
1,35,0,42
1,40,82,18
1,40,0,180
1,40,89,0
1,40,0,31
1,40,87,29
1,40,0,120
1,40,87,0
1,40,0,120
1,40,85,0
1,40,0,174
1,35,80,6
1,35,0,40
1,33,87,20
1,33,0,120
1,35,87,0
1,35,0,120
1,40,80,0
1,40,0,156
1,40,91,24
1,40,0,42
1,42,87,18
1,42,0,120
1,38,87,0
1,38,0,120
1,43,80,0
1,43,0,156
1,43,91,24
1,43,0,42
1,43,80,18
1,43,0,156
1,43,91,24
1,43,0,42
1,33,85,18
1,33,0,154
1,33,95,26
1,33,0,43
1,35,87,17
1,35,0,120
1,35,87,0
1,35,0,120
1,40,87,0
1,40,0,120
1,38,87,0
1,38,0,120
1,37,80,0
1,37,0,156
1,37,91,24
1,37,0,42
1,36,80,18
1,36,0,156
1,36,91,24
1,36,0,42
1,35,87,18
1,35,0,120
1,35,87,0
1,35,0,120
1,40,87,0
1,40,0,120
1,38,87,0
1,38,0,120
1,37,80,0
1,37,0,156
1,37,91,24
1,37,0,42
1,36,85,18
1,36,0,154
1,36,95,26
1,36,0,43
1,35,87,17
1,35,0,120
1,35,87,0
1,35,0,120
1,40,91,0
1,40,0,142
1,40,87,0
1,40,0,8
1,40,89,5
1,40,0,9
1,40,74,0
1,40,0,2
1,40,48,17
1,40,0,7
1,45,88,18
1,43,90,239
1,45,0,5
1,42,90,118
1,43,0,5
1,40,93,112
1,42,0,1
1,46,100,244
1,40,0,6
1,45,93,234
1,46,0,2
1,45,0,234
1,43,91,0
1,42,93,126
1,43,0,6
1,40,88,113
1,42,0,1
1,46,103,236
1,40,0,6
1,46,0,236
1,45,93,0
1,45,0,240
1,43,93,1
1,42,98,122
1,43,0,6
1,40,96,115
1,42,0,2
1,42,105,234
1,40,0,5
1,42,0,305
1,42,91,8
1,43,84,81
1,42,0,6
1,43,0,25
1,42,91,2
1,42,0,38
1,52,84,78
1,40,80,4
1,40,0,51
1,40,91,24
1,40,0,7
1,40,87,17
1,40,0,120
1,40,87,0
1,52,0,61
1,40,0,9
1,40,82,0
1,40,0,5
1,40,89,0
1,40,0,13
1,33,87,29
1,33,0,103
1,35,87,0
1,35,0,4
1,40,80,0
1,40,0,150
1,40,91,24
1,40,0,42
1,42,87,18
1,42,0,120
1,38,87,0
1,38,0,120
1,43,85,0
1,43,0,154
1,43,95,26
1,43,0,43
1,43,80,17
1,43,0,156
1,43,91,24
1,43,0,42
1,33,80,18
1,33,0,156
1,33,91,24
1,33,0,42
1,35,87,0
1,35,0,120
1,35,87,0
1,35,0,120
1,40,87,0
1,40,0,120
1,38,87,0
1,38,0,120
1,37,80,0
1,37,0,156
1,37,91,24
1,37,0,42
1,36,80,18
1,36,0,156
1,36,91,24
1,36,0,42
1,35,87,18
1,35,0,120
1,35,87,0
1,35,0,120
1,40,87,0
1,40,0,120
1,38,87,0
1,38,0,120
1,37,85,0
1,37,0,154
1,37,95,26
1,37,0,43
1,36,80,17
1,36,0,156
1,36,91,24
1,36,0,42
1,35,87,18
1,35,0,120
1,35,87,0
1,35,0,50
1,40,87,0
1,40,0,120
1,38,87,0
1,38,0,104
1,37,85,0
1,37,0,9
1,37,95,26
1,37,0,43
1,36,80,17
1,36,0,41
1,36,91,24
1,36,0,42
1,35,80,5
1,35,0,156
1,35,91,24
1,35,0,42
1,40,85,18
1,40,0,109
1,35,80,6
1,35,0,40
1,42,80,20
1,42,0,156
1,42,91,5
1,42,0,36
1,43,80,18
1,43,0,66
1,43,91,24
1,43,0,32
1,33,85,5
1,33,0,124
1,33,95,26
1,33,0,24
1,40,91,17
1,40,0,2
1,40,87,35
1,40,0,18
1,40,89,15
1,40,0,18
1,40,74,11
1,40,0,13
1,40,48,0
1,40,0,14
1,40,89,11
1,40,0,29
1,40,89,25
1,40,0,18
1,40,98,20
1,40,0,6
1,43,80,5
1,43,0,5
1,40,89,6
1,40,0,17
1,40,87,20
1,40,0,17
1,40,85,15
1,40,0,176
1,35,91,4
1,35,0,26
2,37,84,0
2,37,0,120
2,37,84,120
2,37,0,120
2,37,64,120
2,37,0,120
2,37,84,0
2,37,0,120
2,37,64,0
2,37,0,120
2,37,84,0
2,37,0,120
2,35,90,0
2,42,90,0
2,49,60,0
2,49,0,25
2,42,0,0
2,35,0,0
2,42,40,5
2,42,0,25
2,42,90,5
2,62,70,0
2,62,0,25
2,42,0,0
2,42,40,5
2,62,60,0
2,62,0,25
2,42,0,0
2,38,70,5
2,42,90,0
2,54,115,0
2,39,80,0
2,39,0,25
2,38,0,0
2,42,0,0
2,54,0,0
2,42,40,5
2,42,0,25
2,35,80,5
2,42,90,0
2,42,0,25
2,35,0,0
2,42,40,5
2,42,0,25
2,35,90,5
2,42,90,0
2,42,0,25
2,35,0,0
2,42,40,5
2,42,0,25
2,42,90,5
2,42,0,25
2,42,40,5
2,63,80,0
2,63,0,25
2,42,0,0
2,38,70,5
2,42,90,0
2,39,90,0
2,39,0,25
2,42,0,0
2,38,0,0
2,42,40,5
2,63,60,0
2,63,0,25
2,42,0,0
2,42,90,5
2,63,70,0
2,63,0,25
2,42,0,0
2,35,80,5
2,42,40,0
2,63,60,0
2,63,0,25
2,42,0,0
2,35,0,0
2,35,90,5
2,42,90,0
2,42,0,25
2,35,0,0
2,42,50,5
2,42,0,25
2,42,90,5
2,62,70,0
2,62,0,25
2,42,0,0
2,42,40,5
2,62,60,0
2,62,0,25
2,42,0,0
2,38,70,5
2,42,90,0
2,54,115,0
2,39,80,0
2,39,0,25
2,38,0,0
2,42,0,0
2,54,0,0
2,42,90,5
2,42,0,25
2,35,80,5
2,42,90,0
2,42,0,25
2,35,0,0
2,42,50,5
2,42,0,25
2,35,90,5
2,42,90,0
2,42,0,25
2,35,0,0
2,42,40,5
2,42,0,25
2,42,90,5
2,42,0,25
2,42,50,5
2,63,80,0
2,63,0,25
2,42,0,0
2,38,70,5
2,42,90,0
2,39,90,0
2,39,0,25
2,42,0,0
2,38,0,0
2,42,60,5
2,63,60,0
2,63,0,25
2,42,0,0
2,46,54,5
2,63,70,0
2,63,0,25
2,46,0,0
2,35,80,5
2,46,72,0
2,63,60,0
2,63,0,25
2,46,0,0
2,35,0,0
2,35,90,5
2,42,90,0
2,42,0,25
2,35,0,0
2,42,40,5
2,42,0,25
2,42,90,5
2,62,70,0
2,62,0,25
2,42,0,0
2,42,50,5
2,62,60,0
2,62,0,25
2,42,0,0
2,38,70,5
2,42,90,0
2,54,115,0
2,39,80,0
2,39,0,25
2,38,0,0
2,42,0,0
2,54,0,0
2,42,50,5
2,42,0,25
2,35,80,5
2,42,90,0
2,42,0,25
2,35,0,0
2,42,40,5
2,42,0,25
2,35,90,5
2,42,90,0
2,42,0,25
2,35,0,0
2,42,40,5
2,42,0,25
2,42,90,5
2,42,0,25
2,42,40,5
2,63,80,0
2,63,0,25
2,42,0,0
2,38,70,5
2,42,90,0
2,39,90,0
2,39,0,25
2,42,0,0
2,38,0,0
2,42,40,5
2,63,60,0
2,63,0,25
2,42,0,0
2,46,54,5
2,63,70,0
2,63,0,25
2,46,0,0
2,35,80,5
2,42,50,0
2,63,60,0
2,63,0,25
2,42,0,0
2,35,0,0
2,35,90,5
2,42,90,0
2,42,0,25
2,35,0,0
2,42,40,5
2,42,0,25
2,42,90,5
2,62,70,0
2,62,0,25
2,42,0,0
2,42,40,5
2,62,60,0
2,62,0,25
2,42,0,0
2,38,70,5
2,42,90,0
2,54,115,0
2,39,80,0
2,39,0,25
2,38,0,0
2,42,0,0
2,54,0,0
2,42,40,5
2,42,0,25
2,35,80,5
2,42,90,0
2,42,0,25
2,35,0,0
2,42,40,5
2,42,0,25
2,35,90,5
2,42,90,0
2,42,0,25
2,35,0,0
2,42,40,5
2,42,0,25
2,42,90,5
2,42,0,25
2,42,40,5
2,63,80,0
2,63,0,25
2,42,0,0
2,38,70,5
2,42,90,0
2,39,90,0
2,39,0,25
2,42,0,0
2,38,0,0
2,42,40,5
2,63,60,0
2,63,0,25
2,42,0,0
2,42,90,5
2,63,70,0
2,63,0,25
2,42,0,0
2,35,80,5
2,46,72,0
2,63,60,0
2,63,0,25
2,46,0,0
2,35,0,0
2,35,90,5
2,42,100,0
2,42,0,25
2,35,0,0
2,42,60,5
2,42,0,25
2,42,100,5
2,62,70,0
2,62,0,25
2,42,0,0
2,42,70,5
2,62,60,0
2,62,0,25
2,42,0,0
2,38,70,5
2,42,100,0
2,54,115,0
2,39,80,0
2,39,0,25
2,38,0,0
2,42,0,0
2,54,0,0
2,42,60,5
2,42,0,25
2,35,80,5
2,42,100,0
2,42,0,25
2,35,0,0
2,42,70,5
2,42,0,25
2,35,90,5
2,42,100,0
2,48,80,0
2,48,0,25
2,42,0,0
2,35,0,0
2,42,60,5
2,42,0,25
2,42,100,5
2,42,0,25
2,45,90,5
2,63,80,0
2,63,0,25
2,45,0,0
2,38,70,5
2,39,90,0
2,39,0,25
2,38,0,0
2,41,80,5
2,63,60,0
2,63,0,25
2,41,0,0
2,41,90,5
2,63,70,0
2,63,0,25
2,41,0,0
2,35,80,5
2,63,60,0
2,63,0,25
2,35,0,0
2,35,90,5
2,42,90,0
2,49,60,0
2,49,0,25
2,42,0,0
2,35,0,0
2,42,40,5
2,42,0,25
2,42,90,5
2,62,70,0
2,62,0,25
2,42,0,0
2,42,40,5
2,62,60,0
2,62,0,25
2,42,0,0
2,38,70,5
2,42,90,0
2,54,115,0
2,39,80,0
2,39,0,25
2,38,0,0
2,42,0,0
2,54,0,0
2,42,40,5
2,42,0,25
2,35,80,5
2,42,90,0
2,42,0,25
2,35,0,0
2,42,40,5
2,42,0,25
2,35,90,5
2,42,90,0
2,42,0,25
2,35,0,0
2,42,40,5
2,42,0,25
2,42,90,5
2,42,0,25
2,42,40,5
2,63,80,0
2,63,0,25
2,42,0,0
2,38,70,5
2,42,90,0
2,39,90,0
2,39,0,25
2,42,0,0
2,38,0,0
2,42,40,5
2,63,60,0
2,63,0,25
2,42,0,0
2,42,90,5
2,63,70,0
2,63,0,25
2,42,0,0
2,35,80,5
2,46,72,0
2,63,60,0
2,63,0,25
2,46,0,0
2,35,0,0
2,35,90,5
2,42,90,0
2,42,0,25
2,35,0,0
2,42,50,5
2,42,0,25
2,42,90,5
2,62,70,0
2,62,0,25
2,42,0,0
2,42,40,5
2,62,60,0
2,62,0,25
2,42,0,0
2,38,70,5
2,42,90,0
2,54,115,0
2,39,80,0
2,39,0,25
2,38,0,0
2,42,0,0
2,54,0,0
2,42,50,5
2,42,0,25
2,35,80,5
2,42,90,0
2,42,0,25
2,35,0,0
2,42,50,5
2,42,0,25
2,35,90,5
2,42,90,0
2,42,0,25
2,35,0,0
2,42,40,5
2,42,0,25
2,42,90,5
2,42,0,25
2,42,50,5
2,63,80,0
2,63,0,25
2,42,0,0
2,38,70,5
2,42,90,0
2,39,90,0
2,39,0,25
2,42,0,0
2,38,0,0
2,42,60,5
2,63,60,0
2,63,0,25
2,42,0,0
2,46,54,5
2,63,70,0
2,63,0,25
2,46,0,0
2,35,80,5
2,46,72,0
2,63,60,0
2,63,0,25
2,46,0,0
2,35,0,0
2,35,90,5
2,42,90,0
2,42,0,25
2,35,0,0
2,42,50,5
2,42,0,25
2,42,90,5
2,62,70,0
2,62,0,25
2,42,0,0
2,42,40,5
2,62,60,0
2,62,0,25
2,42,0,0
2,38,70,5
2,42,90,0
2,54,115,0
2,39,80,0
2,39,0,25
2,38,0,0
2,42,0,0
2,54,0,0
2,42,90,5
2,42,0,25
2,35,80,5
2,42,90,0
2,42,0,25
2,35,0,0
2,42,50,5
2,42,0,25
2,35,90,5
2,42,90,0
2,42,0,25
2,35,0,0
2,42,40,5
2,42,0,25
2,42,90,5
2,42,0,25
2,42,50,5
2,63,80,0
2,63,0,25
2,42,0,0
2,38,70,5
2,42,90,0
2,39,90,0
2,39,0,25
2,42,0,0
2,38,0,0
2,42,60,5
2,63,60,0
2,63,0,25
2,42,0,0
2,42,90,5
2,63,70,0
2,63,0,25
2,42,0,0
2,35,80,5
2,46,72,0
2,63,60,0
2,63,0,25
2,46,0,0
2,35,0,0
2,35,90,5
2,42,90,0
2,42,0,25
2,35,0,0
2,42,40,5
2,42,0,25
2,42,90,5
2,62,70,0
2,62,0,25
2,42,0,0
2,42,50,5
2,62,60,0
2,62,0,25
2,42,0,0
2,38,70,5
2,42,90,0
2,54,115,0
2,39,80,0
2,39,0,25
2,38,0,0
2,42,0,0
2,54,0,0
2,42,50,5
2,42,0,25
2,35,80,5
2,42,90,0
2,42,0,25
2,35,0,0
2,42,40,5
2,42,0,25
2,35,90,5
2,42,90,0
2,42,0,25
2,35,0,0
2,42,40,5
2,42,0,25
2,42,90,5
2,42,0,25
2,42,40,5
2,63,80,0
2,63,0,25
2,42,0,0
2,38,70,5
2,42,90,0
2,39,90,0
2,39,0,25
2,42,0,0
2,38,0,0
2,42,40,5
2,63,60,0
2,63,0,25
2,42,0,0
2,42,90,5
2,63,70,0
2,63,0,25
2,42,0,0
2,35,80,5
2,42,50,0
2,63,60,0
2,63,0,25
2,42,0,0
2,35,0,0
2,35,90,5
2,42,90,0
2,42,0,25
2,35,0,0
2,42,40,5
2,42,0,25
2,42,90,5
2,62,70,0
2,62,0,25
2,42,0,0
2,42,50,5
2,62,60,0
2,62,0,25
2,42,0,0
2,38,70,5
2,42,90,0
2,54,115,0
2,39,80,0
2,39,0,25
2,38,0,0
2,42,0,0
2,54,0,0
2,42,50,5
2,42,0,25
2,35,80,5
2,42,90,0
2,42,0,25
2,35,0,0
2,42,40,5
2,42,0,25
2,35,90,5
2,42,90,0
2,42,0,25
2,35,0,0
2,42,40,5
2,42,0,25
2,42,90,5
2,42,0,25
2,42,40,5
2,63,80,0
2,63,0,25
2,42,0,0
2,38,70,5
2,42,90,0
2,39,90,0
2,39,0,25
2,42,0,0
2,38,0,0
2,42,40,5
2,63,60,0
2,63,0,25
2,42,0,0
2,42,90,5
2,63,70,0
2,63,0,25
2,42,0,0
2,38,54,5
2,42,50,0
