track,note,velocity,time
1,48,100,384
1,48,100,30
1,43,100,9
1,43,100,31
1,39,100,8
1,39,100,28
1,36,100,6
1,48,100,148
1,43,100,9
1,46,100,11
1,46,100,29
1,41,100,0
1,46,100,7
1,44,100,19
1,44,100,34
1,39,100,5
1,36,100,32
1,39,100,30
1,36,100,30
1,39,100,28
1,36,100,1
1,32,100,0
1,44,100,138
1,39,100,14
1,43,100,11
1,43,100,26
1,38,100,0
1,35,100,3
1,38,100,33
1,41,100,29
1,41,100,36
1,36,100,0
1,33,100,34
1,36,100,2
1,41,100,2
1,36,100,18
1,41,100,0
1,41,100,157
1,39,100,17
1,41,100,6
1,39,100,10
1,36,100,32
1,34,100,0
1,36,100,6
1,36,100,20
1,43,100,13
1,43,100,24
1,36,100,12
1,34,100,106
1,34,100,22
1,41,100,12
1,41,100,29
1,34,100,5
1,48,100,129
1,48,100,22
1,43,100,14
1,43,100,25
1,39,100,6
1,36,100,30
1,39,100,31
1,36,100,0
1,48,100,153
1,43,100,11
1,46,100,11
1,46,100,30
1,41,100,32
1,46,100,7
1,44,100,20
1,44,100,34
1,39,100,12
1,36,100,2
1,39,100,2
1,36,100,3
1,36,100,33
1,32,100,4
1,44,100,145
1,39,100,14
1,43,100,11
1,43,100,25
1,38,100,4
1,35,100,1
1,38,100,32
1,41,100,29
1,41,100,33
1,36,100,1
1,33,100,1
1,36,100,0
1,41,100,4
1,36,100,17
1,41,100,0
1,41,100,157
1,39,100,17
1,41,100,6
1,39,100,10
1,36,100,32
1,34,100,0
1,36,100,6
1,36,100,20
1,43,100,14
1,43,100,21
1,36,100,11
1,34,100,106
1,34,100,23
1,41,100,9
1,41,100,29
1,34,100,4
1,48,100,129
1,48,100,23
1,43,100,14
1,43,100,25
1,39,100,6
1,36,100,33
1,39,100,30
1,36,100,0
1,48,100,154
1,43,100,10
1,46,100,12
1,46,100,29
1,41,100,1
1,46,100,8
1,44,100,18
1,44,100,33
1,39,100,9
1,36,100,2
1,39,100,0
1,36,100,4
1,36,100,30
1,32,100,5
1,44,100,145
1,39,100,14
1,43,100,11
1,43,100,27
1,38,100,1
1,35,100,1
1,38,100,1
1,41,100,31
1,41,100,34
1,36,100,0
1,33,100,34
1,36,100,0
1,41,100,4
1,36,100,18
1,41,100,0
1,41,100,157
1,39,100,18
1,41,100,6
1,39,100,12
1,36,100,31
1,34,100,0
1,36,100,6
1,36,100,20
1,43,100,14
1,43,100,21
1,36,100,10
1,34,100,105
1,34,100,22
1,41,100,9
1,41,100,30
1,34,100,5
1,36,100,129
1,36,100,23
1,31,100,9
1,31,100,24
1,36,100,12
1,31,100,130
1,31,100,23
1,29,100,5
1,31,100,7
1,38,100,10
1,38,100,17
1,31,100,0
1,30,100,4
1,29,100,18
1,29,100,17
1,36,100,5
1,36,100,14
1,41,100,10
1,29,100,22
1,36,100,32
1,39,100,30
1,41,100,17
1,43,100,19
1,43,100,30
1,41,100,14
1,41,100,26
1,39,100,8
1,36,100,32
1,39,100,0
1,36,100,31
1,34,100,32
1,36,100,29
1,36,100,46
1,31,100,0
1,31,100,21
1,36,100,14
1,31,100,141
1,31,100,19
1,38,100,13
1,38,100,21
1,31,100,7
1,29,100,112
1,29,100,22
1,36,100,1
1,36,100,17
1,41,100,8
1,29,100,18
1,36,100,31
1,39,100,28
1,41,100,22
1,43,100,2
1,43,100,25
1,41,100,13
1,41,100,25
1,39,100,31
1,36,100,26
1,39,100,2
1,36,100,31
1,34,100,1
1,36,100,33
1,34,100,159
1,36,100,6
1,39,100,2
1,36,100,5
1,39,100,27
1,41,100,27
1,43,100,20
1,41,100,31
1,39,100,19
1,36,100,8
1,34,100,6
1,36,100,5
1,31,100,9
1,34,100,3
1,36,100,10
1,34,100,23
1,36,100,12
1,39,100,10
1,36,100,8
1,39,100,27
1,41,100,25
1,43,100,4
1,41,100,32
1,39,100,19
1,36,100,4
1,39,100,33
1,41,100,1
1,43,100,0
1,41,100,0
1,39,100,23
1,36,100,1
1,34,100,1
1,36,100,3
1,48,100,6
1,48,100,22
1,43,100,14
1,43,100,25
1,39,100,4
1,36,100,33
1,39,100,32
1,36,100,2
1,48,100,154
1,43,100,10
1,46,100,12
1,46,100,30
1,41,100,31
1,46,100,7
1,44,100,19
1,44,100,34
1,39,100,9
1,36,100,2
1,39,100,0
1,36,100,3
1,36,100,28
1,32,100,5
1,44,100,146
1,39,100,15
1,43,100,11
1,43,100,24
1,38,100,1
1,35,100,3
1,38,100,34
1,41,100,29
1,41,100,37
1,36,100,0
1,33,100,34
1,36,100,3
1,41,100,4
1,36,100,18
1,41,100,2
1,41,100,157
1,39,100,17
1,41,100,6
1,39,100,10
1,36,100,32
1,34,100,0
1,36,100,7
1,36,100,26
1,31,100,11
1,31,100,17
1,36,100,16
1,43,100,57
1,43,100,27
1,34,100,20
1,34,100,24
1,29,100,17
1,29,100,21
1,34,100,20
1,34,100,26
1,41,100,17
1,41,100,25
1,48,100,12
1,48,100,22
1,43,100,14
1,43,100,27
1,39,100,5
1,36,100,32
1,39,100,29
1,36,100,0
1,48,100,154
1,43,100,10
1,46,100,11
1,46,100,30
1,41,100,31
1,46,100,7
1,44,100,20
1,44,100,34
1,39,100,9
1,36,100,2
1,39,100,3
1,36,100,4
1,36,100,30
1,32,100,5
1,44,100,145
1,39,100,14
1,43,100,12
1,43,100,27
1,38,100,4
1,35,100,1
1,38,100,32
1,41,100,30
1,41,100,34
1,36,100,0
1,33,100,34
1,36,100,3
1,41,100,1
1,36,100,18
1,41,100,2
1,41,100,159
1,39,100,17
1,41,100,6
1,39,100,10
1,36,100,32
1,34,100,0
1,36,100,6
1,36,100,26
1,43,100,18
1,43,100,25
1,36,100,8
1,34,100,132
1,32,100,2
1,29,100,4
1,34,100,9
1,46,100,50
1,44,100,31
1,46,100,6
1,34,100,1
1,32,100,9
1,34,100,33
1,36,100,2
1,36,100,23
1,31,100,11
1,31,100,22
1,36,100,12
1,31,100,130
1,31,100,25
1,29,100,8
1,31,100,7
1,38,100,9
1,38,100,17
1,31,100,0
1,30,100,3
1,29,100,18
1,29,100,18
1,36,100,6
1,36,100,15
1,41,100,9
1,29,100,22
1,36,100,32
1,39,100,30
1,41,100,18
1,43,100,18
1,43,100,41
1,41,100,12
1,41,100,39
1,39,100,17
1,36,100,6
1,39,100,6
1,36,100,0
1,34,100,33
1,36,100,4
1,36,100,5
1,36,100,42
1,31,100,13
1,29,100,7
1,31,100,0
1,36,100,0
1,36,100,41
1,31,100,14
1,31,100,53
1,31,100,34
1,38,100,10
1,38,100,41
1,43,100,18
1,43,100,41
1,38,100,11
1,35,100,2
1,31,100,32
1,29,100,29
1,29,100,23
1,36,100,0
1,41,100,14
1,29,100,59
1,36,100,31
1,39,100,29
1,41,100,25
1,43,100,23
1,43,100,26
1,41,100,10
1,41,100,25
1,39,100,31
1,36,100,28
1,39,100,26
1,36,100,29
1,34,100,2
1,36,100,33
1,34,100,157
1,36,100,4
1,39,100,1
1,36,100,5
1,39,100,32
1,41,100,29
1,43,100,1
1,41,100,32
1,39,100,1
1,36,100,4
1,34,100,4
1,36,100,1
1,31,100,128
1,34,100,0
1,36,100,1
1,34,100,5
1,36,100,13
1,39,100,31
1,36,100,10
1,39,100,32
1,41,100,27
1,43,100,17
1,41,100,23
1,39,100,27
1,36,100,9
1,39,100,0
1,43,100,35
1,41,100,22
1,43,100,4
1,46,100,32
1,43,100,24
1,46,100,1
1,48,100,0
1,46,100,25
1,48,100,4
1,51,100,32
1,48,100,32
1,46,100,13
1,43,100,6
1,46,100,33
1,48,100,0
1,51,100,2
1,46,100,25
1,48,100,5
1,51,100,1
1,48,100,32
1,46,100,10
1,48,100,4
1,46,100,33
1,43,100,9
1,46,100,6
1,43,100,5
1,41,100,8
1,43,100,13
1,41,100,32
1,39,100,4
1,43,100,12
1,41,100,32
1,39,100,4
1,41,100,10
1,39,100,0
1,36,100,13
1,39,100,6
1,36,100,0
1,34,100,3
1,36,100,4
1,34,100,33
1,31,100,9
1,36,100,5
1,36,100,18
1,48,100,10
1,48,100,26
1,36,100,197
1,36,100,25
1,48,100,19
1,48,100,27
1,34,100,18
1,34,100,26
1,46,100,11
1,46,100,30
1,32,100,17
1,32,100,22
1,44,100,13
1,44,104,18
1,32,100,200
1,32,100,25
1,44,100,17
1,44,100,26
1,31,100,18
1,31,100,24
1,43,100,16
1,43,100,33
1,29,100,13
1,29,100,26
1,41,100,13
1,41,100,29
1,29,100,198
1,29,100,28
1,41,100,14
1,41,100,33
1,29,100,15
1,29,100,26
1,41,100,13
1,41,100,33
1,36,100,19
1,36,100,26
1,48,100,11
1,48,100,31
1,34,100,198
1,34,100,26
1,46,101,14
1,46,113,29
1,48,100,189
1,48,100,23
1,43,100,14
1,43,100,25
1,39,100,6
1,36,100,32
1,39,100,31
1,36,100,0
1,48,100,154
1,43,100,10
1,46,100,11
1,46,100,29
1,41,100,32
1,46,100,8
1,44,100,19
1,44,100,34
1,39,100,9
1,36,100,2
1,39,100,1
1,36,100,3
1,36,100,30
1,32,100,5
1,44,100,145
1,39,100,14
1,43,100,12
1,43,100,29
1,38,100,0
1,35,100,1
1,38,100,33
1,41,100,28
1,41,100,33
1,36,100,0
1,33,100,33
1,36,100,0
1,41,100,3
1,36,100,18
1,41,100,0
1,41,100,160
1,39,100,17
1,41,100,8
1,39,100,12
1,36,100,31
1,34,100,2
1,36,100,7
1,36,100,20
1,43,100,13
1,43,100,21
1,36,100,10
1,34,100,106
1,34,100,21
1,41,100,9
1,41,100,29
1,34,100,6
1,48,100,132
1,48,100,23
1,43,100,16
1,43,100,25
1,39,100,6
1,36,100,0
1,39,100,32
1,36,100,0
1,48,100,153
1,43,100,9
1,46,100,11
1,46,100,29
1,41,100,32
1,46,100,7
1,44,100,19
1,44,100,34
1,39,100,9
1,36,100,3
1,39,100,0
1,36,100,4
1,36,100,33
1,32,100,5
1,44,100,145
1,39,100,14
1,43,100,12
1,43,100,27
1,38,100,1
1,35,100,1
1,38,100,33
1,41,100,29
1,41,100,34
1,36,100,0
1,33,100,34
1,36,100,3
1,41,100,0
1,36,100,18
1,41,100,0
1,41,100,157
1,39,100,18
1,41,100,6
1,39,100,12
1,36,100,31
1,34,100,1
1,36,100,6
1,36,100,26
1,43,100,17
1,43,100,25
1,36,100,12
1,34,100,131
1,32,100,2
1,29,100,4
1,34,100,9
1,46,100,50
1,44,100,32
1,46,100,6
1,34,100,2
1,32,100,10
1,34,100,32
1,36,100,2
1,36,100,25
1,31,100,11
1,31,100,21
1,36,100,11
1,31,100,130
1,31,100,22
1,29,100,5
1,31,100,7
1,38,100,13
1,38,100,18
1,31,100,0
1,30,100,3
1,29,100,18
1,29,100,18
1,36,100,7
1,36,100,15
1,41,100,10
1,29,100,21
1,36,100,1
1,39,100,31
1,41,100,20
1,43,100,19
1,43,100,15
1,43,100,13
1,41,100,18
1,41,100,31
1,39,100,19
1,39,100,11
1,39,100,16
1,36,100,13
1,34,100,2
1,36,100,10
1,36,100,64
1,31,100,11
1,31,100,37
1,36,100,14
1,31,100,165
1,31,100,22
1,29,100,5
1,31,100,7
1,38,100,16
1,38,100,17
1,31,100,3
1,30,100,4
1,29,100,20
1,29,100,17
1,36,100,5
1,36,100,15
1,41,100,10
1,29,100,23
1,36,100,32
1,39,100,30
1,41,100,17
1,43,100,19
1,43,100,15
1,43,100,14
1,41,100,15
1,41,100,33
1,39,100,18
1,39,100,10
1,39,100,16
1,36,100,16
1,34,100,2
1,36,100,10
1,36,100,65
1,31,100,11
1,31,100,37
1,36,100,15
1,31,100,165
1,31,100,23
1,29,100,5
1,31,100,6
1,38,100,10
1,38,100,17
1,31,100,1
1,30,100,3
1,29,100,17
1,29,100,18
1,36,100,6
1,36,100,14
1,41,100,11
1,29,100,22
1,36,100,31
1,39,100,31
1,41,100,17
1,43,100,18
1,43,100,15
1,43,100,16
1,41,100,15
1,41,100,29
1,39,100,21
1,39,100,11
1,39,100,16
1,36,100,15
1,34,100,2
1,36,100,11
1,36,100,67
1,31,100,11
1,31,100,37
1,36,100,17
1,31,100,165
1,31,100,22
1,29,100,5
1,31,100,8
1,38,100,9
1,38,100,18
1,31,100,1
1,30,100,3
1,29,100,20
1,29,100,16
1,36,100,5
1,36,100,14
1,41,100,10
1,29,100,22
1,36,100,1
1,39,100,32
1,41,100,17
1,43,100,19
1,43,100,27
1,41,100,12
1,41,100,29
1,39,100,31
1,36,100,28
1,39,100,26
1,36,100,30
1,34,100,2
1,36,100,32
1,34,100,158
1,36,100,6
1,39,100,1
1,36,100,5
1,39,100,0
1,41,100,32
1,43,100,1
1,41,100,30
1,39,100,1
1,36,100,4
1,34,100,5
1,36,100,1
1,31,100,0
1,34,100,31
1,36,100,29
1,34,100,4
1,36,100,12
1,39,100,33
1,36,100,9
1,39,100,34
1,41,100,25
1,43,100,18
1,41,100,21
1,39,100,28
1,36,100,9
1,39,100,1
1,43,100,0
1,41,100,21
1,43,100,4
1,46,100,33
1,43,100,24
1,46,100,1
1,48,100,32
1,46,100,25
1,48,100,6
1,51,100,32
1,48,100,32
1,46,100,13
1,43,100,5
1,46,100,33
1,48,100,25
1,51,100,1
1,46,100,25
1,48,100,6
1,51,100,31
1,48,100,32
1,46,100,10
1,48,100,4
1,46,100,0
1,43,100,9
1,46,100,4
1,43,100,5
1,41,100,9
1,43,100,13
1,41,100,32
1,39,100,4
1,43,100,12
1,41,100,33
1,39,100,5
1,41,100,10
1,39,100,32
1,36,100,12
1,39,100,8
1,36,100,34
1,34,100,5
1,36,100,6
1,34,100,33
1,31,100,9
1,36,100,5
1,36,100,19
1,48,100,10
1,48,100,26
2,87,90,570
2,79,105,0
2,84,112,0
2,87,89,629
2,84,106,0
2,80,93,2
2,84,105,663
2,81,101,0
2,77,100,1
2,87,90,661
2,84,115,0
2,79,110,0
2,82,90,281
2,86,99,0
2,77,103,0
2,84,104,3335
2,87,86,0
2,79,98,1
2,84,104,637
2,87,89,0
2,80,99,0
2,81,105,651
2,84,106,0
2,77,108,1
2,87,90,628
2,84,110,0
2,79,103,0
2,86,104,273
2,82,96,0
2,77,103,2
2,72,127,3102
2,70,116,159
2,72,113,9
2,75,119,32
2,72,118,7
2,75,111,32
2,77,110,29
2,79,109,17
2,77,97,34
2,75,114,26
2,72,120,4
2,70,114,5
2,72,127,1
2,67,124,6
2,70,126,4
2,72,122,5
2,70,119,25
2,72,112,14
2,75,122,5
2,72,118,7
2,75,119,32
2,77,108,26
2,79,108,1
2,77,101,32
2,75,105,0
2,72,118,5
2,75,116,32
2,77,110,30
2,79,106,0
2,77,101,1
2,75,109,1
2,72,118,33
2,70,116,0
2,72,127,1
2,72,112,34
2,75,122,0
2,79,124,0
2,75,127,23
2,79,127,0
2,84,104,3074
2,87,86,0
2,79,98,0
2,84,104,638
2,87,89,0
2,80,99,0
2,81,105,655
2,84,106,0
2,77,108,0
2,87,90,630
2,84,110,0
2,79,103,0
2,86,104,275
2,82,96,0
2,77,103,1
2,72,127,3103
2,70,114,11
2,72,115,7
2,75,122,2
2,72,110,5
2,75,111,32
2,77,105,29
2,79,103,2
2,77,95,31
2,75,107,1
2,72,116,4
2,70,114,4
2,72,118,1
2,67,113,128
2,70,116,2
2,72,115,1
2,70,122,6
2,72,112,14
2,75,116,31
2,72,110,11
2,75,116,33
2,77,109,27
2,79,106,17
2,77,106,23
2,75,111,28
2,72,112,10
2,75,111,3
2,79,116,33
2,77,120,23
2,79,120,5
2,82,114,1
2,79,113,25
2,82,119,1
2,84,116,2
2,82,122,25
2,84,120,7
2,87,119,1
2,84,118,33
2,82,114,13
2,79,105,7
2,82,101,33
2,84,109,0
2,87,99,3
2,82,111,25
2,84,113,6
2,87,107,1
2,84,113,32
2,82,107,11
2,84,103,4
2,82,109,33
2,79,115,10
2,82,116,7
2,79,116,5
2,77,120,10
2,79,109,13
2,77,102,32
2,75,105,5
2,79,120,13
