track,note,velocity,time
0,72,99,416
0,73,75,22
0,72,0,2
0,73,0,23
0,72,121,4
0,69,32,0
0,53,70,3
0,69,0,15
0,58,33,33
0,69,16,3
0,69,0,24
0,60,66,10
0,69,32,1
0,58,0,5
0,69,0,2
0,61,60,34
0,69,16,2
0,60,0,2
0,69,0,22
0,69,32,36
0,65,76,1
0,69,0,15
0,69,16,36
0,72,0,6
0,69,0,2
0,69,32,36
0,70,84,0
0,70,0,12
0,69,0,2
0,53,0,2
0,65,0,12
0,61,0,7
0,69,16,6
0,69,0,2
0,72,61,4
0,73,92,9
0,54,54,2
0,69,32,3
0,75,104,8
0,69,0,13
0,58,39,34
0,69,16,2
0,69,0,14
0,69,32,2
0,61,58,1
0,69,0,12
0,69,16,16
0,69,0,24
0,69,32,36
0,69,0,24
0,69,16,36
0,69,0,24
0,69,32,2
0,69,0,24
0,72,0,12
0,75,0,5
0,73,0,3
0,54,0,0
0,61,0,11
0,69,16,5
0,58,0,7
0,72,100,11
0,69,0,6
0,73,93,1
0,72,0,1
0,53,73,1
0,73,0,3
0,82,99,0
0,69,48,0
0,72,117,1
0,82,0,5
0,69,0,7
0,58,37,32
0,82,119,4
0,69,32,0
0,82,0,16
0,69,0,8
0,89,117,36
0,69,48,0
0,60,46,2
0,58,0,5
0,69,0,17
0,94,95,6
0,89,0,3
0,94,0,25
0,89,111,2
0,69,32,0
0,61,65,3
0,60,0,13
0,69,0,8
0,94,112,6
0,89,0,4
0,94,0,17
0,82,101,9
0,94,81,0
0,69,48,0
0,72,0,5
0,77,90,1
0,82,0,8
0,94,0,5
0,69,0,5
0,77,0,3
0,82,114,33
0,69,32,0
0,82,0,14
0,53,0,9
0,69,0,1
0,70,75,32
0,89,119,4
0,94,77,0
0,94,0,0
0,94,86,0
0,69,48,0
0,61,0,4
0,94,0,12
0,70,0,1
0,69,0,7
0,94,70,6
0,89,0,1
0,94,0,25
0,89,104,1
0,69,32,0
0,69,0,24
0,89,0,5
0,94,97,1
0,72,84,6
0,54,53,11
0,73,104,1
0,94,0,1
0,82,101,6
0,94,54,0
0,94,0,0
0,94,86,0
0,69,48,0
0,75,107,7
0,82,0,8
0,94,0,3
0,69,0,6
0,82,114,36
0,69,32,0
0,58,5,3
0,82,0,11
0,69,0,10
0,61,58,30
0,89,119,6
0,94,53,0
0,94,0,0
0,94,76,0
0,94,0,0
0,94,61,0
0,69,48,0
0,69,0,24
0,94,0,2
0,89,0,4
0,94,90,0
0,94,0,28
0,89,113,2
0,69,32,0
0,69,0,24
0,94,71,6
0,89,0,8
0,75,0,7
0,72,0,4
0,94,0,1
0,73,0,1
0,82,106,9
0,94,92,0
0,94,0,0
0,94,75,0
0,69,48,0
0,77,91,1
0,82,0,17
0,69,0,6
0,94,0,12
0,77,0,0
0,89,116,24
0,69,32,0
0,69,0,24
0,89,0,6
0,94,85,0
0,61,0,13
0,54,0,2
0,94,0,11
0,77,97,3
0,89,109,1
0,94,86,0
0,69,48,0
0,58,0,6
0,69,0,18
0,94,0,6
0,94,95,0
0,89,0,6
0,77,0,2
0,73,69,19
0,94,0,2
0,89,109,1
0,69,32,0
0,69,0,24
0,94,102,6
0,89,0,3
0,73,0,6
0,94,0,9
0,72,93,10
0,82,99,1
0,94,66,0
0,94,0,0
0,94,91,0
0,69,64,0
0,53,71,3
0,82,0,1
0,69,0,11
0,94,0,8
0,82,119,26
0,69,48,0
0,58,18,2
0,82,0,14
0,69,0,8
0,89,117,36
0,94,66,0
0,94,0,0
0,94,92,0
0,69,64,0
0,60,21,17
0,69,0,7
0,94,0,5
0,94,95,1
0,89,0,3
0,94,0,25
0,89,111,2
0,69,48,0
0,69,0,24
0,94,112,6
0,89,0,4
0,94,0,17
0,82,101,9
0,94,69,0
0,94,0,0
0,94,89,0
0,69,64,0
0,70,76,7
0,82,0,7
0,69,0,10
0,94,0,1
0,72,0,8
0,82,114,27
0,69,48,0
0,82,0,14
0,53,0,10
0,69,0,0
0,60,0,17
0,58,0,9
0,89,119,10
0,94,78,0
0,94,0,0
0,94,94,0
0,69,64,0
0,77,95,2
0,70,0,1
0,70,106,8
0,94,0,12
0,69,0,1
0,94,70,6
0,89,0,1
0,70,0,3
0,94,0,22
0,89,104,3
0,69,48,0
0,69,0,24
0,89,0,5
0,94,97,1
0,72,65,13
0,94,0,10
0,73,93,3
0,54,60,2
0,82,101,2
0,94,79,0
0,94,0,0
0,94,89,0
0,69,64,0
0,77,0,1
0,75,117,4
0,75,55,1
0,82,0,2
0,94,0,8
0,69,0,1
0,82,114,36
0,69,48,0
0,58,14,3
0,82,0,11
0,69,0,10
0,89,119,36
0,94,84,0
0,94,0,0
0,94,88,0
0,69,64,0
0,61,70,1
0,94,0,19
0,69,0,4
0,89,0,6
0,94,90,0
0,94,0,28
0,89,113,2
0,69,48,0
0,69,0,24
0,94,71,6
0,89,0,8
0,94,0,12
0,82,106,10
0,94,79,0
0,94,0,0
0,94,85,0
0,69,64,0
0,82,0,18
0,94,0,3
0,69,0,3
0,89,116,36
0,69,48,0
0,69,0,24
0,89,0,6
0,94,85,0
0,54,0,22
0,94,0,4
0,89,109,4
0,94,79,0
0,94,0,0
0,94,87,0
0,69,64,0
0,61,0,2
0,72,62,0
0,75,0,1
0,58,0,3
0,72,0,3
0,75,0,1
0,94,0,10
0,69,0,4
0,73,0,5
0,94,95,1
0,89,0,6
0,94,0,23
0,89,109,1
0,73,65,0
0,69,48,0
0,72,94,4
0,72,0,1
0,73,71,18
0,69,0,1
0,72,0,1
0,94,102,5
0,89,0,3
0,73,0,10
0,72,113,4
0,94,0,2
0,82,99,2
0,94,77,0
0,94,0,0
0,94,92,0
0,69,80,0
0,53,88,7
0,82,0,6
0,94,0,7
0,70,57,0
0,73,0,3
0,69,0,1
0,82,119,36
0,69,64,0
0,58,57,1
0,82,0,15
0,69,0,8
0,89,117,36
0,94,79,0
0,94,0,0
0,94,88,0
0,94,0,0
0,94,84,0
0,69,80,0
0,60,63,2
0,58,0,10
0,94,0,9
0,69,0,3
0,94,95,6
0,89,0,3
0,94,0,25
0,89,111,2
0,69,64,0
0,61,61,2
0,60,0,9
0,69,0,13
0,94,112,6
0,89,0,4
0,94,0,17
0,82,101,9
0,94,95,0
0,69,80,0
0,65,63,4
0,82,0,10
0,94,0,4
0,69,0,6
0,82,114,36
0,69,64,0
0,82,0,14
0,69,0,10
0,89,119,36
0,94,88,0
0,94,0,0
0,94,95,0
0,69,80,0
0,94,0,20
0,69,0,4
0,94,70,6
0,89,0,1
0,94,0,25
0,89,104,4
0,69,64,0
0,53,0,11
0,61,0,7
0,65,0,4
0,69,0,2
0,89,0,5
0,94,97,1
0,72,0,20
0,94,0,3
0,30,72,7
0,30,0,0
0,30,93,0
0,82,101,0
0,94,88,0
0,94,0,0
0,94,98,0
0,36,127,0
0,42,96,0
0,70,100,6
0,58,102,2
0,42,84,1
0,36,0,4
0,82,0,2
0,94,0,3
0,30,0,0
0,82,85,1
0,42,0,5
0,70,0,4
0,30,127,32
0,82,114,0
0,36,112,0
0,42,80,0
0,54,62,2
0,36,0,11
0,82,0,1
0,42,0,10
0,54,0,31
0,58,73,1
0,89,119,4
0,94,87,0
0,94,0,0
0,94,99,0
0,40,127,0
0,42,80,0
0,37,127,0
0,72,100,8
0,58,0,1
0,70,0,0
0,60,100,0
0,94,0,10
0,42,0,5
0,89,0,6
0,94,90,0
0,40,0,18
0,37,0,0
0,61,65,8
0,94,0,2
0,89,113,2
0,42,96,0
0,30,0,1
0,58,0,1
0,42,0,22
0,30,71,6
0,94,71,0
0,36,112,0
0,58,67,2
0,89,0,6
0,36,0,5
0,30,0,1
0,61,0,3
0,94,0,3
0,63,86,4
0,61,100,3
0,73,100,1
0,30,114,2
0,82,106,0
0,94,97,0
0,94,0,0
0,94,102,0
0,36,127,0
0,42,80,0
0,60,0,2
0,72,0,4
0,36,0,7
0,82,0,5
0,94,0,2
0,42,0,4
0,30,0,7
0,89,116,29
0,42,80,0
0,42,0,24
0,89,0,6
0,94,85,0
0,94,0,26
0,32,125,4
0,89,109,0
0,94,95,0
0,94,0,0
0,94,94,0
0,40,127,0
0,42,96,0
0,37,127,0
0,77,100,1
0,65,98,1
0,61,0,3
0,73,0,2
0,94,0,16
0,42,0,1
0,94,95,6
0,89,0,6
0,40,0,12
0,37,0,0
0,94,0,11
0,32,0,0
0,89,109,1
0,42,112,0
0,42,0,5
0,63,0,7
0,57,61,9
0,42,0,3
0,34,67,6
0,94,102,0
0,36,112,0
0,89,0,3
0,36,0,10
0,94,0,6
0,34,0,0
0,70,88,1
0,58,84,0
0,34,95,1
0,82,99,0
0,94,91,0
0,94,0,0
0,94,104,0
0,36,127,0
0,42,96,0
0,46,79,2
0,77,0,4
0,65,0,1
0,82,0,6
0,36,0,0
0,42,0,0
0,34,0,5
0,94,0,0
0,58,0,5
0,53,83,33
0,34,127,2
0,82,119,0
0,36,112,0
0,42,80,0
0,42,0,13
0,36,0,0
0,82,0,3
0,53,0,31
0,58,82,9
0,89,117,4
0,94,94,0
0,94,0,0
0,94,104,0
0,40,127,0
0,42,80,0
0,37,127,0
0,42,0,13
0,94,0,3
0,94,95,14
0,89,0,3
0,40,0,15
0,37,0,0
0,61,79,5
0,94,0,5
0,89,111,2
0,42,96,0
0,58,0,5
0,57,0,7
0,42,0,1
0,34,0,7
0,94,112,10
0,36,112,0
0,89,0,4
0,36,0,9
0,61,0,8
0,94,0,0
0,72,95,4
0,63,83,2
0,34,119,3
0,34,0,0
0,34,99,0
0,82,101,0
0,94,102,0
0,94,0,0
0,94,107,0
0,36,127,0
0,42,80,0
0,42,0,13
0,36,0,0
0,82,0,1
0,94,0,5
0,34,0,7
0,82,114,34
0,46,96,0
0,82,0,14
0,46,0,10
0,70,0,31
0,72,77,2
0,60,86,1
0,89,119,2
0,94,95,0
0,94,0,0
0,94,102,0
0,73,104,0
0,40,127,0
0,42,96,0
0,37,127,0
0,72,0,3
0,58,0,0
0,42,0,10
0,94,0,6
0,94,70,11
0,89,0,1
0,40,0,17
0,37,0,0
0,73,0,8
0,94,0,0
0,53,89,2
0,89,104,2
0,72,91,0
0,42,112,0
0,42,0,1
0,63,0,2
0,53,0,1
0,46,0,1
0,89,0,1
0,30,92,1
0,94,97,0
0,30,0,3
0,61,84,1
0,94,0,1
0,73,93,0
0,42,75,3
0,60,0,1
0,30,117,1
0,82,101,0
0,94,101,0
0,94,0,0
0,94,101,0
0,36,127,0
0,42,96,0
0,54,91,2
0,72,0,4
0,36,0,7
0,82,0,2
0,94,0,1
0,30,0,0
0,42,0,8
0,72,0,22
0,30,127,14
0,82,114,0
0,36,112,0
0,42,80,0
0,36,0,13
0,82,0,1
0,54,0,4
0,42,0,6
0,58,85,10
0,89,119,26
0,94,106,0
0,94,0,0
0,94,109,0
0,40,127,0
0,42,80,0
0,37,127,0
0,94,0,15
0,42,0,9
0,89,0,6
0,94,90,0
0,40,0,18
0,37,0,0
0,58,0,4
0,94,0,6
0,63,84,0
0,89,113,2
0,42,96,0
0,30,0,1
0,42,0,23
0,30,95,6
0,94,71,0
0,36,112,0
0,30,0,8
0,89,0,0
0,36,0,5
0,94,0,7
0,30,125,10
0,82,106,0
0,94,95,0
0,94,0,0
0,94,102,0
0,36,127,0
0,42,80,0
0,36,0,13
0,94,0,3
0,82,0,2
0,42,0,6
0,30,0,1
0,61,75,32
0,70,97,0
0,89,116,3
0,42,80,0
0,63,0,3
0,73,101,20
0,42,0,1
0,70,0,2
0,89,0,4
0,94,85,0
0,80,81,17
0,73,0,1
0,68,81,0
0,73,0,5
0,61,0,1
0,94,0,2
0,72,73,2
0,61,0,2
0,32,127,0
0,89,109,0
0,94,99,0
0,94,0,0
0,94,102,0
0,40,127,0
0,42,96,0
0,37,127,0
0,60,101,2
0,94,0,14
0,42,0,8
0,70,106,1
0,61,98,4
0,94,95,1
0,60,0,2
0,89,0,4
0,72,0,0
0,40,0,12
0,37,0,0
0,32,0,8
0,94,0,3
0,89,109,1
0,42,112,0
0,73,101,3
0,70,0,1
0,42,0,20
0,34,99,6
0,94,102,0
0,36,112,0
0,89,0,3
0,34,0,7
0,36,0,3
0,94,0,6
0,42,0,5
0,77,95,0
0,61,0,3
0,65,105,1
0,34,104,2
0,82,99,0
0,94,88,0
0,94,0,0
0,94,99,0
0,36,127,0
0,42,96,0
0,46,79,2
0,80,0,1
0,68,0,0
0,36,0,10
0,82,0,0
0,94,0,8
0,42,0,3
0,34,0,2
0,73,0,16
0,53,83,16
0,34,127,2
0,82,119,0
0,75,102,0
0,36,112,0
0,42,80,0
0,36,0,13
0,82,0,3
0,42,0,8
0,53,0,23
0,58,82,9
0,89,117,4
0,94,98,0
0,94,0,0
0,94,102,0
0,40,127,0
0,42,80,0
0,37,127,0
0,94,0,18
0,42,0,6
0,94,95,6
0,89,0,3
0,40,0,15
0,37,0,0
0,61,79,5
0,94,0,5
0,89,111,2
0,42,96,0
0,58,0,5
0,34,0,0
0,42,0,19
0,34,106,6
0,94,112,0
0,36,112,0
0,89,0,4
0,34,0,4
0,36,0,5
0,61,0,8
0,94,0,0
0,63,83,6
0,34,127,3
0,82,101,0
0,94,93,0
0,94,0,0
0,94,107,0
0,36,127,0
0,42,80,0
0,36,0,13
0,82,0,1
0,94,0,4
0,42,0,6
0,34,0,29
0,75,0,2
0,82,114,5
0,42,80,0
0,82,0,14
0,42,0,10
0,89,119,36
0,94,97,0
0,94,0,0
0,94,102,0
0,40,127,0
0,42,96,0
0,37,127,0
0,94,0,16
0,42,0,8
0,94,70,6
0,89,0,1
0,40,0,17
0,37,0,0
0,94,0,8
0,53,89,2
0,89,104,2
0,42,112,0
0,63,0,15
0,53,0,4
0,46,0,4
0,42,0,1
0,89,0,5
0,30,107,1
0,94,97,0
0,36,112,0
0,30,0,8
0,36,0,5
0,94,0,10
0,42,75,5
0,30,119,2
0,82,101,0
0,94,94,0
0,94,0,0
0,94,109,0
0,36,127,0
0,42,96,0
0,54,91,2
0,36,0,11
0,82,0,2
0,30,0,3
0,94,0,1
0,42,0,5
0,30,127,36
0,82,114,0
0,36,112,0
0,42,80,0
0,36,0,13
0,82,0,1
0,54,0,4
0,42,0,6
0,58,85,10
0,89,119,26
0,94,101,0
0,94,0,0
0,94,112,0
0,40,127,0
0,42,80,0
0,37,127,0
0,94,0,16
0,42,0,8
0,89,0,6
0,94,90,0
0,30,0,16
0,40,0,2
0,37,0,0
0,58,0,4
0,94,0,6
0,63,84,0
0,89,113,2
0,42,96,0
0,42,0,24
0,30,106,6
0,94,71,0
0,36,112,0
0,30,0,8
0,89,0,0
0,36,0,5
0,94,0,7
0,30,125,10
0,82,106,0
0,94,99,0
0,94,0,0
0,94,107,0
0,36,127,0
0,42,80,0
0,36,0,13
0,94,0,1
0,82,0,4
0,42,0,6
0,61,75,33
0,75,83,0
0,89,116,3
0,42,80,0
0,63,0,3
0,30,0,0
0,42,0,21
0,89,0,6
0,94,85,0
0,75,0,6
0,80,75,18
0,94,0,2
0,61,0,4
0,32,125,0
0,89,109,0
0,94,112,0
0,94,0,0
0,94,117,0
0,94,0,0
0,94,112,0
0,40,127,0
0,42,96,0
0,37,127,0
0,60,101,2
0,94,0,16
0,42,0,6
0,61,98,5
0,94,95,1
0,60,0,2
0,89,0,4
0,80,0,7
0,40,0,5
0,37,0,0
0,32,0,2
0,77,73,5
0,94,0,4
0,89,109,1
0,42,112,0
0,42,0,24
0,34,87,6
0,94,102,0
0,36,112,0
0,89,0,3
0,34,0,5
0,36,0,5
0,94,0,6
0,42,0,5
0,70,112,0
0,77,0,1
0,61,0,2
0,58,90,0
0,65,0,2
0,34,119,1
0,82,99,0
0,94,119,0
0,36,127,0
0,42,96,0
0,46,79,2
0,42,0,11
0,36,0,0
0,82,0,0
0,94,0,2
0,34,0,8
0,77,0,20
0,75,91,14
0,53,83,1
0,34,127,2
0,82,119,0
