track,note,velocity,time
1,55,95,7280
1,60,105,0
1,64,103,0
1,58,90,248
1,62,97,0
1,67,89,0
1,58,101,96
1,62,97,0
1,67,89,0
1,57,82,12
1,60,92,0
1,65,90,0
1,57,53,16
1,60,82,100
1,65,109,128
1,60,75,20
1,57,62,4
1,56,90,88
1,60,95,0
1,64,92,0
1,56,93,84
1,60,90,0
1,64,90,0
1,55,89,12
1,60,95,0
1,64,99,0
1,58,101,4
1,62,105,0
1,67,95,0
1,58,95,116
1,62,99,0
1,67,85,0
1,57,85,156
1,60,93,0
1,65,92,0
1,57,42,88
1,60,69,60
1,65,111,128
1,60,68,12
1,57,60,0
1,56,90,88
1,60,95,0
1,64,90,0
1,63,94,80
1,67,103,0
1,72,92,0
1,62,87,160
1,66,97,0
1,72,84,0
1,60,77,200
1,65,92,0
1,69,87,0
1,60,84,196
1,65,91,0
1,69,87,0
1,72,80,0
1,60,85,8
1,64,95,0
1,67,91,0
1,60,73,184
1,64,84,0
1,68,89,0
1,60,76,188
1,64,88,0
1,67,82,0
1,56,95,4
1,60,97,0
1,64,101,0
1,55,95,644
1,60,105,0
1,64,103,0
1,58,90,248
1,62,97,0
1,67,89,0
1,58,101,96
1,62,97,0
1,67,89,0
1,57,82,12
1,60,92,0
1,65,90,0
1,57,53,16
1,60,82,100
1,65,109,128
1,60,75,20
1,57,62,4
1,56,90,88
1,60,95,0
1,64,92,0
1,56,93,84
1,60,90,0
1,64,90,0
1,55,89,12
1,60,95,0
1,64,99,0
1,58,101,4
1,62,105,0
1,67,95,0
1,58,95,116
1,62,99,0
1,67,85,0
1,57,85,156
1,60,93,0
1,65,92,0
1,57,42,88
1,60,69,60
1,65,111,128
1,60,68,12
1,57,60,0
1,56,90,88
1,60,95,0
1,64,90,0
1,63,94,80
1,67,103,0
1,72,92,0
1,62,87,160
1,66,97,0
1,72,84,0
1,60,77,200
1,65,92,0
1,69,87,0
1,60,84,196
1,65,91,0
1,69,87,0
1,72,80,0
1,51,99,8
1,63,107,0
1,67,103,0
1,72,91,0
1,63,97,108
1,51,74,40
1,50,85,48
1,62,84,0
1,66,107,0
1,72,87,0
1,53,91,196
1,60,82,0
1,65,91,0
1,69,89,0
1,72,79,0
1,43,89,252
1,55,85,0
1,60,95,0
1,65,107,0
1,69,94,0
1,72,84,0
1,45,101,364
1,53,99,0
1,57,103,0
1,60,97,0
1,65,95,0
1,62,103,12
1,65,111,0
1,70,113,0
1,62,53,68
1,65,73,116
1,62,90,76
1,65,97,0
1,70,113,0
1,62,46,44
1,70,70,32
1,64,103,88
1,67,103,0
1,72,87,0
1,67,99,288
1,76,107,0
1,69,97,144
1,77,101,0
1,67,92,104
1,76,105,0
1,72,85,40
1,62,89,96
1,65,99,0
1,70,113,0
1,62,89,240
1,65,101,0
1,70,101,0
1,62,82,4
1,70,109,44
1,64,99,28
1,67,99,0
1,72,93,0
1,67,90,4
1,76,105,0
1,69,90,8
1,73,60,0
1,77,89,0
1,70,103,16
1,79,92,0
1,62,97,196
1,65,103,0
1,70,117,0
1,62,101,160
1,65,105,0
1,70,105,0
1,62,80,20
1,70,107,60
1,64,103,60
1,67,109,0
1,72,92,0
1,64,87,60
1,67,47,4
1,64,95,108
1,67,90,0
1,72,90,0
1,64,90,92
1,60,90,4
1,65,99,0
1,69,95,0
1,60,87,56
1,65,97,0
1,69,97,0
1,60,73,60
1,65,83,0
1,69,82,0
1,60,95,4
1,65,109,0
1,69,103,0
1,60,83,28
1,65,92,0
1,69,87,0
1,60,101,68
1,55,76,72
1,60,82,0
1,65,87,0
1,69,85,0
1,55,56,32
1,55,83,76
1,60,86,0
1,65,92,0
1,69,93,0
1,55,82,76
1,55,64,84
1,60,87,0
1,65,95,0
1,69,93,0
1,55,78,96
1,55,115,72
1,60,105,0
1,65,115,0
1,69,111,0
1,55,95,660
1,60,105,0
1,64,103,0
1,58,90,248
1,62,97,0
1,67,89,0
1,58,101,96
1,62,97,0
1,67,89,0
1,57,82,12
1,60,92,0
1,65,90,0
1,57,53,16
1,60,82,100
1,65,109,128
1,60,75,20
1,57,62,4
1,56,90,88
1,60,95,0
1,64,92,0
1,56,93,84
1,60,90,0
1,64,90,0
1,55,89,12
1,60,95,0
1,64,99,0
1,58,101,4
1,62,105,0
1,67,95,0
1,58,95,116
1,62,99,0
1,67,85,0
1,57,85,156
1,60,93,0
1,65,92,0
1,57,42,88
1,60,69,60
1,65,111,128
1,60,68,12
1,57,60,0
1,56,90,88
1,60,95,0
1,64,90,0
1,63,94,80
1,67,103,0
1,72,92,0
1,62,87,160
1,66,97,0
1,72,84,0
1,60,77,200
1,65,92,0
1,69,87,0
1,60,84,196
1,65,91,0
1,69,87,0
1,72,80,0
1,63,94,8
1,67,103,0
1,72,92,0
1,62,87,160
1,66,97,0
1,72,84,0
1,60,77,200
1,65,92,0
1,69,87,0
1,60,84,196
1,65,91,0
1,69,87,0
1,72,80,0
1,51,121,8
1,63,111,0
1,67,107,0
1,72,92,0
1,63,113,88
1,51,87,28
1,50,83,36
1,62,109,0
1,66,115,0
1,72,91,0
1,43,103,252
1,55,105,0
1,60,115,0
1,65,117,0
1,69,105,0
1,72,103,0
1,48,109,2936
1,60,103,0
1,64,115,0
1,67,113,0
1,67,111,84
1,64,67,60
1,48,86,88
1,60,93,0
1,64,107,0
1,68,115,0
1,60,86,48
1,48,92,96
1,60,95,0
1,64,105,0
1,67,95,0
1,64,95,68
1,60,54,96
1,48,87,76
1,60,93,0
1,64,101,0
1,68,115,0
1,60,93,0
1,48,66,20
1,48,107,76
1,60,107,0
1,64,111,0
1,67,103,0
1,60,121,148
1,48,97,4
1,59,85,8
1,47,74,8
1,46,107,52
1,56,105,0
1,60,101,0
1,64,95,0
1,55,61,252
1,43,52,16
1,60,80,0
1,48,70,20
1,62,92,0
1,64,89,4
1,36,90,4
1,67,93,4
2,36,117,7260
2,24,111,36
2,24,121,60
2,31,92,4
2,33,93,92
2,36,107,108
2,24,87,628
2,24,109,60
2,36,95,16
2,29,115,80
2,29,92,68
2,29,113,80
2,26,90,0
2,27,99,128
2,28,109,120
2,28,90,52
2,28,105,64
2,31,87,12
2,33,89,92
2,36,105,116
2,24,89,628
2,24,107,40
2,36,103,12
2,35,83,76
2,34,117,4
2,34,90,40
2,34,113,80
2,28,93,4
2,29,103,256
2,29,76,68
2,29,107,88
2,26,87,512
2,27,97,108
2,28,103,8
2,35,78,8
2,40,109,52
2,28,113,12
2,27,103,0
2,27,103,44
2,26,93,128
2,26,74,52
2,28,75,128
2,29,95,0
2,29,66,36
2,30,87,128
2,31,101,116
2,31,83,12
2,24,93,8
2,24,67,56
2,24,99,76
2,31,92,4
2,36,105,92
2,36,87,60
2,35,81,128
2,34,97,8
2,36,117,144
2,24,103,640
2,24,117,52
2,24,121,60
2,24,95,48
2,24,117,72
2,31,93,20
2,33,95,72
2,29,123,0
2,29,105,88
2,29,121,88
2,26,97,12
2,27,109,128
2,28,119,16
2,35,90,8
2,40,117,80
2,28,113,16
2,24,117,12
2,24,93,88
2,24,115,72
2,36,105,12
2,35,111,72
2,34,126,12
2,34,92,60
2,34,123,88
2,27,103,8
2,28,95,20
2,29,121,128
2,29,105,68
2,29,117,100
2,26,83,4
2,27,97,128
2,28,117,16
2,35,93,16
2,40,115,48
2,28,117,12
2,27,103,0
2,27,103,44
2,26,93,128
2,26,74,52
2,28,75,128
2,29,95,0
2,29,66,36
2,30,87,128
2,31,101,116
2,31,83,12
2,27,113,8
2,39,105,4
2,27,92,92
2,26,89,20
2,38,89,512
2,26,78,8
2,29,113,4
2,29,87,56
2,30,101,128
2,31,109,4
2,33,127,388
2,34,121,0
2,29,105,24
2,34,121,128
2,29,89,8
2,34,107,128
2,36,111,116
2,36,92,12
2,35,90,104
2,33,107,4
2,33,115,52
2,34,121,8
2,29,97,24
2,34,126,128
2,29,89,8
2,34,113,96
2,36,113,120
2,36,103,16
2,35,89,88
2,33,115,108
2,33,113,72
2,34,119,256
2,50,105,12
2,48,108,84
2,46,112,104
2,31,105,20
2,31,95,40
2,35,85,128
2,36,115,108
2,40,95,4
2,43,89,80
2,45,101,0
2,33,109,256
2,33,111,60
2,38,103,0
2,38,97,40
2,38,82,76
2,38,109,68
2,38,107,32
2,38,105,36
2,31,113,256
2,31,101,60
2,31,109,52
2,31,125,44
2,31,117,12
2,24,121,20
2,24,107,80
2,24,111,56
2,31,105,20
2,36,107,80
2,34,123,104
2,34,111,72
2,34,121,76
2,34,117,40
2,27,117,128
2,28,92,16
2,29,121,128
2,36,95,8
2,41,107,76
2,36,105,240
2,29,99,16
2,27,109,0
2,28,111,12
2,35,90,0
2,45,93,4
2,44,107,8
2,40,97,88
2,35,93,0
2,24,119,16
2,24,92,56
2,24,117,68
2,36,107,16
2,35,113,84
2,34,126,8
2,34,93,48
2,34,123,72
2,27,121,512
2,28,107,16
2,29,125,128
2,29,109,48
2,29,115,48
2,41,109,8
2,36,107,76
2,27,119,24
2,28,119,24
2,35,101,20
2,40,105,100
2,35,111,240
2,28,119,8
2,27,103,0
2,27,103,44
2,26,93,128
2,26,74,52
2,28,75,128
2,29,95,0
2,29,66,36
2,30,87,128
2,31,101,116
2,31,83,12
2,27,103,0
2,27,103,44
2,26,93,128
2,26,74,52
2,28,75,128
2,29,95,0
2,29,66,36
2,30,87,128
2,31,101,116
2,31,83,12
2,27,123,8
2,39,117,256
2,39,115,108
2,27,107,128
2,26,111,36
2,27,103,8
2,28,107,8
2,29,113,128
2,31,126,80
2,24,121,4
2,24,85,32
2,24,109,44
2,31,93,640
2,36,109,124
2,31,99,8
2,24,113,128
2,31,97,632
2,36,115,108
2,36,105,24
2,35,99,92
2,34,121,12
2,31,90,0
2,24,107,128
3,64,90,7620
3,67,90,0
3,72,90,0
3,64,90,704
3,67,90,0
3,72,90,0
3,58,90,704
3,62,90,0
3,67,90,0
3,58,90,704
3,62,90,0
3,67,90,0
3,57,90,704
3,60,90,0
3,65,90,0
3,57,90,704
3,60,90,0
3,65,90,0
3,56,90,704
3,60,90,0
3,64,90,0
3,56,90,704
3,60,90,0
3,64,90,0
3,64,90,704
3,67,90,0
3,72,90,0
3,64,90,704
3,67,90,0
3,72,90,0
3,64,90,704
3,67,90,0
3,72,90,0
3,58,90,704
3,62,90,0
3,67,90,0
3,57,90,704
3,60,90,0
3,65,90,0
3,57,90,704
3,60,90,0
3,65,90,0
3,56,90,704
3,60,90,0
3,64,90,0
3,56,90,704
3,60,90,0
3,64,90,0
3,64,90,6848
3,67,90,0
3,72,90,0
3,64,90,704
3,67,90,0
3,72,90,0
3,58,90,704
3,62,90,0
3,67,90,0
3,58,90,704
3,62,90,0
3,67,90,0
3,57,90,704
3,60,90,0
3,65,90,0
3,57,90,704
3,60,90,0
3,65,90,0
3,56,90,704
3,60,90,0
3,64,90,0
3,56,90,704
3,60,90,0
3,64,90,0
3,64,90,704
3,67,90,0
3,72,90,0
3,64,90,704
3,67,90,0
3,72,90,0
3,64,90,704
3,67,90,0
3,72,90,0
3,58,90,704
3,62,90,0
3,67,90,0
3,57,90,704
3,60,90,0
3,65,90,0
3,57,90,704
3,60,90,0
3,65,90,0
3,56,90,704
3,60,90,0
3,64,90,0
3,56,90,704
3,60,90,0
3,64,90,0
3,64,90,19136
3,67,90,0
3,72,90,0
3,64,90,704
3,67,90,0
3,72,90,0
3,58,90,704
3,62,90,0
3,67,90,0
3,58,90,704
3,62,90,0
3,67,90,0
3,57,90,704
3,60,90,0
3,65,90,0
3,57,90,704
3,60,90,0
3,65,90,0
3,56,90,704
3,60,90,0
3,64,90,0
3,56,90,704
3,60,90,0
3,64,90,0
3,64,90,704
3,67,90,0
3,72,90,0
3,64,90,704
3,67,90,0
3,72,90,0
3,64,90,704
3,67,90,0
3,72,90,0
3,58,90,704
3,62,90,0
3,67,90,0
3,57,90,704
3,60,90,0
3,65,90,0
3,57,90,704
3,60,90,0
3,65,90,0
3,56,90,704
3,60,90,0
3,64,90,0
3,56,90,704
3,60,90,0
3,64,90,0
4,55,95,6836
4,57,95,128
4,60,85,100
4,62,101,4
4,60,92,332
4,64,103,736
4,65,81,116
4,67,89,104
4,69,95,0
4,67,85,68
4,67,101,8
4,65,86,68
4,64,85,108
4,67,87,4
4,63,95,0
4,62,81,128
4,60,86,116
4,63,97,400
4,62,77,128
4,60,75,120
4,67,99,8
4,63,90,76
4,62,90,112
4,60,86,0
4,55,90,456
4,57,86,128
4,60,68,112
4,62,93,4
4,60,78,328
4,64,92,336
4,65,83,124
4,67,86,12
4,69,92,0
4,67,87,184
4,67,95,368
4,65,71,128
4,64,81,120
4,67,87,12
4,63,90,64
4,62,80,100
4,60,78,0
4,56,83,124
4,60,82,8
4,64,86,4
4,62,63,128
4,60,77,4
4,67,95,12
4,63,85,64
4,62,89,124
4,60,80,4
4,60,97,24
4,58,87,84
4,55,62,8
4,60,81,128
4,63,87,116
4,62,87,36
4,60,86,116
4,60,87,356
4,62,82,128
4,64,82,104
4,67,95,0
4,64,83,72
4,62,85,96
4,60,77,112
4,62,81,116
4,64,87,100
4,60,86,108
4,67,99,2152
4,69,90,128
4,72,90,4
4,74,92,4
4,72,86,320
4,64,99,4
4,65,89,92
4,67,89,96
4,69,90,16
4,67,86,76
4,67,95,28
4,65,92,88
4,64,80,104
4,67,95,4
4,63,80,60
4,62,77,96
4,60,82,116
4,57,74,124
4,56,81,564
4,60,83,0
4,63,97,16
4,62,82,76
4,60,76,16
4,67,97,4
4,63,80,64
4,62,90,84
4,60,86,120
4,69,90,8
4,67,83,0
4,69,89,12
4,60,85,8
4,64,99,4
4,72,99,256
4,69,86,300
4,67,82,112
4,69,89,20
4,67,92,324
4,67,99,8
4,65,82,68
4,64,72,16
4,67,97,4
4,63,81,68
4,62,86,124
4,62,87,36
4,60,87,128
4,56,87,80
4,60,87,12
4,63,97,8
4,62,83,64
4,60,75,20
4,67,101,12
4,63,83,76
4,62,83,100
4,60,86,4
4,60,85,20
4,58,92,60
4,55,78,116
4,60,77,124
4,63,95,0
4,62,82,4
4,60,85,128
4,60,83,16
4,62,89,68
4,64,85,104
4,67,87,4
4,64,82,76
4,62,81,104
4,60,81,112
4,62,83,112
4,64,90,0
4,60,90,12
4,58,85,56
4,55,74,0
4,60,82,128
4,63,86,104
4,62,85,48
4,60,87,116
4,60,87,452
4,62,83,128
4,64,82,108
4,67,97,20
4,64,81,72
4,62,77,100
4,60,81,108
4,62,89,116
4,64,93,116
4,70,105,8
4,69,93,68
4,67,83,104
4,65,95,116
4,67,92,176
4,69,97,8
4,67,97,204
4,63,103,8
4,62,89,80
4,60,95,0
4,58,90,616
4,70,109,12
4,69,89,8
4,67,90,128
4,65,103,120
4,67,92,208
4,69,99,12
4,67,97,188
4,63,97,4
4,62,90,72
4,60,97,4
4,65,97,404
4,75,113,8
4,74,101,52
4,72,109,108
4,67,95,24
4,69,103,16
4,67,109,204
4,63,113,244
4,62,99,68
4,60,111,0
4,60,81,68
4,62,111,128
4,62,113,68
4,62,95,48
4,74,109,8
4,70,117,208
4,69,107,20
4,72,113,8
4,72,107,56
4,72,105,36
4,72,115,32
4,67,85,148
4,75,125,16
4,74,78,4
4,72,93,128
4,74,111,12
4,72,105,36
4,67,105,20
4,79,105,4
4,75,103,192
4,74,95,8
4,72,86,116
4,74,105,4
4,72,101,72
4,67,101,652
4,65,80,128
4,64,90,100
4,67,93,8
4,63,86,60
4,62,92,4
4,62,90,20
4,60,93,128
4,56,73,124
4,60,87,0
4,63,103,4
4,62,82,68
4,60,85,20
4,67,101,8
4,63,83,68
4,62,82,100
4,67,92,20
4,69,101,128
4,72,87,0
4,72,103,28
4,76,103,0
4,77,115,16
4,75,113,4
4,74,97,76
4,72,109,0
4,67,115,872
4,65,90,128
4,64,89,104
4,67,103,8
4,63,90,56
4,62,81,32
4,62,103,24
4,60,92,128
4,56,92,132
4,60,87,128
4,63,113,4
4,62,89,84
