track,note,velocity,time
1,65,127,1536
1,68,127,16
1,72,127,24
1,65,0,344
1,68,0,12
1,72,0,32
1,70,127,148
1,70,0,64
1,68,127,32
1,68,0,80
1,63,127,24
1,67,127,8
1,70,127,24
1,63,0,356
1,67,0,4
1,70,0,24
1,68,127,160
1,68,0,64
1,67,127,32
1,68,127,20
1,67,0,8
1,68,0,20
1,65,127,16
1,67,127,24
1,65,0,4
1,67,0,380
1,68,127,196
1,68,0,124
1,65,127,64
1,65,0,252
1,63,127,172
1,63,0,64
1,67,127,8
1,67,0,60
1,63,127,32
1,63,0,64
1,58,127,36
1,58,0,80
1,65,127,0
1,61,127,0
1,56,127,4
1,61,0,248
1,56,0,20
1,65,0,0
1,65,127,568
1,65,0,32
1,68,127,36
1,68,0,40
1,72,127,12
1,72,0,40
1,73,127,8
1,75,127,44
1,73,0,16
1,75,0,28
1,80,127,8
1,79,127,48
1,80,0,8
1,77,127,44
1,79,0,8
1,75,127,40
1,77,0,20
1,73,127,32
1,75,0,12
1,72,127,40
1,73,0,12
1,72,0,52
1,70,127,4
1,70,0,68
1,65,127,44
1,72,127,16
1,65,0,376
1,72,0,8
1,61,127,172
1,61,0,128
1,65,120,72
1,65,0,128
1,61,100,72
1,61,0,140
1,64,91,44
1,64,0,144
1,89,127,60
1,87,127,0
1,85,127,8
1,84,127,0
1,82,127,4
1,80,127,0
1,79,127,0
1,77,127,4
1,75,127,0
1,73,127,4
1,72,127,4
1,70,127,4
1,68,127,4
1,67,127,8
1,65,127,0
1,87,0,20
1,63,127,0
1,61,127,0
1,60,127,0
1,58,127,0
1,89,0,4
1,84,0,8
1,82,0,0
1,85,0,0
1,77,0,4
1,80,0,0
1,56,127,0
1,73,0,8
1,70,0,4
1,79,0,0
1,72,0,4
1,75,0,4
1,65,0,8
1,68,0,4
1,67,0,8
1,60,0,4
1,61,0,4
1,63,0,0
1,56,0,16
1,58,0,0
1,77,127,44
1,77,0,268
1,65,127,1068
1,68,127,4
1,65,0,508
1,68,0,4
1,60,127,1212
1,65,127,20
1,60,0,108
1,65,0,24
1,65,127,44
1,68,127,4
1,68,0,128
1,65,0,8
1,67,127,68
1,70,127,0
1,67,0,128
1,70,0,8
1,68,127,36
1,72,127,8
1,68,0,120
1,72,0,24
1,65,127,40
1,60,127,8
1,60,0,132
1,65,0,0
1,65,127,52
1,68,127,12
1,65,0,116
1,68,0,20
1,67,127,44
1,70,127,20
1,67,0,108
1,70,0,20
1,65,127,40
1,60,127,16
1,65,0,112
1,60,0,16
1,65,127,7732
1,68,127,4
1,65,0,132
1,68,0,8
1,65,127,256
1,68,127,0
1,72,127,0
1,72,0,128
1,65,0,0
1,68,0,8
1,63,127,40
1,67,127,0
1,70,127,0
1,70,0,256
1,67,0,8
1,63,0,4
1,63,127,508
1,67,127,0
1,70,127,0
1,60,127,376
1,65,127,0
1,68,127,0
1,63,0,4
1,70,0,4
1,67,0,4
1,68,0,112
1,65,0,4
1,60,0,4
1,60,127,252
1,65,127,8
1,68,127,0
1,60,0,120
1,65,0,12
1,68,0,4
1,60,127,240
1,63,127,8
1,60,0,128
1,63,0,8
1,61,127,440
1,65,127,0
1,68,127,0
1,68,0,128
1,65,0,0
1,61,0,8
1,63,127,60
1,67,127,0
1,70,127,0
1,67,0,128
1,63,0,0
1,70,0,4
1,60,127,64
1,65,127,0
1,68,127,0
1,68,0,128
1,60,0,0
1,65,0,8
1,60,127,36
1,63,127,12
1,68,127,4
1,60,0,124
1,68,0,4
1,63,0,4
1,61,127,832
1,65,127,4
1,68,127,0
1,61,0,124
1,65,0,4
1,68,0,8
1,63,127,40
1,67,127,12
1,70,127,0
1,70,0,128
1,63,0,4
1,67,0,4
1,60,127,40
1,65,127,0
1,68,127,8
1,60,0,120
1,68,0,8
1,65,0,0
1,63,127,56
1,67,127,20
1,72,127,0
1,63,0,236
1,67,0,16
1,64,127,120
1,67,127,4
1,72,0,144
1,67,0,240
1,64,0,8
1,68,127,180
1,72,127,0
1,77,127,0
1,77,0,128
1,72,0,12
1,68,0,0
1,65,127,240
1,68,127,0
1,72,127,0
1,65,0,128
1,72,0,12
1,68,0,4
1,63,127,56
1,67,127,0
1,70,127,0
1,67,0,256
1,63,0,0
1,70,0,16
1,63,127,500
1,67,127,0
1,70,127,0
1,60,127,380
1,65,127,0
1,68,127,0
1,70,0,4
1,67,0,12
1,63,0,8
1,60,0,104
1,68,0,0
1,65,0,12
1,60,127,232
1,65,127,4
1,68,127,0
1,60,0,124
1,68,0,4
1,65,0,0
1,63,127,252
1,60,127,12
1,63,0,128
1,60,0,8
1,61,127,436
1,65,127,0
1,68,127,4
1,65,0,124
1,61,0,8
1,68,0,4
1,63,127,56
1,67,127,0
1,70,127,0
1,70,0,124
1,67,0,0
1,63,0,4
1,60,127,72
1,65,127,0
1,68,127,0
1,68,0,124
1,65,0,4
1,60,0,4
1,68,127,44
1,63,127,8
1,58,127,0
1,68,0,120
1,58,0,8
1,63,0,0
1,61,127,824
1,65,127,4
1,68,127,0
1,68,0,128
1,65,0,0
1,61,0,16
1,63,127,48
1,67,127,0
1,70,127,0
1,63,0,124
1,67,0,16
1,70,0,8
1,60,127,48
1,65,127,0
1,68,127,0
1,68,0,136
1,65,0,0
1,60,0,8
1,63,127,36
1,67,127,0
1,70,127,0
1,67,0,256
1,63,0,12
1,70,0,4
1,64,127,112
1,60,127,0
1,60,0,384
1,64,0,0
1,65,127,960
1,68,127,8
1,72,127,4
1,72,0,128
1,68,0,0
1,65,0,4
1,60,127,432
1,64,127,8
1,67,127,0
1,70,127,0
1,70,0,768
1,67,0,0
1,60,0,4
1,64,0,12
1,68,127,752
1,72,127,4
1,63,127,0
1,68,0,388
1,72,0,4
1,63,0,648
1,62,127,676
1,60,127,0
1,62,0,1040
1,60,0,4
1,61,127,500
1,65,127,0
1,68,127,0
1,61,0,384
1,65,0,8
1,68,0,8
1,61,127,376
1,65,127,0
1,61,0,392
1,65,0,8
1,63,127,172
1,68,127,0
1,63,0,384
1,68,0,16
1,58,127,164
1,63,127,12
1,68,127,4
1,58,0,368
1,68,0,16
1,63,0,0
1,58,127,176
1,63,127,0
1,68,127,4
1,63,0,120
1,58,0,4
1,68,0,16
1,61,127,448
1,61,0,520
1,61,127,228
1,65,127,16
1,68,127,0
1,61,0,116
1,68,0,12
1,65,0,0
1,63,127,52
1,67,127,0
1,70,127,0
1,63,0,124
1,70,0,4
1,67,0,0
1,61,127,72
1,65,127,0
1,68,127,4
1,68,0,124
1,61,0,12
1,65,0,8
1,61,127,48
1,65,127,0
1,68,127,0
1,68,0,764
1,64,127,0
1,67,127,0
1,70,127,0
1,61,0,12
1,65,0,8
1,70,0,364
1,64,0,0
1,67,0,4
1,68,127,564
1,72,127,16
1,72,0,384
1,68,0,0
1,65,127,372
1,68,127,4
1,72,127,0
1,72,0,128
1,68,0,12
1,65,0,240
1,60,127,200
1,64,127,0
1,67,127,0
1,64,0,768
1,60,0,0
1,67,0,12
1,65,127,936
1,68,127,8
1,65,0,504
1,68,0,4
1,65,127,252
1,65,0,508
1,62,127,276
1,60,127,0
1,60,0,508
1,62,0,8
1,60,127,816
1,65,127,12
1,68,127,0
1,60,0,1016
1,68,0,12
1,65,0,12
1,63,127,488
1,67,127,0
1,67,0,768
1,63,0,16
1,65,127,936
1,68,127,0
1,60,127,0
1,68,0,256
1,65,0,16
1,60,0,508
1,61,127,576
1,65,127,8
1,68,127,0
1,72,127,0
1,65,0,764
1,61,0,0
1,68,0,4
1,64,127,172
1,67,127,16
1,70,127,0
1,67,0,508
1,64,0,0
1,70,0,12
1,72,0,64
1,65,127,168
1,68,127,0
1,65,0,124
1,68,0,4
1,65,127,264
1,68,127,0
1,72,127,4
1,68,0,120
1,65,0,4
1,72,0,4
1,63,127,48
1,67,127,4
1,70,127,0
1,70,0,252
1,67,0,4
1,63,0,12
1,63,127,520
1,67,127,0
1,70,127,0
1,60,127,372
1,65,127,12
1,68,127,0
1,70,0,8
1,63,0,0
1,67,0,4
1,60,0,108
1,68,0,8
1,65,0,0
1,60,127,240
1,65,127,4
1,68,127,0
1,68,0,128
1,65,0,4
1,60,0,0
1,60,127,260
1,63,127,0
1,63,0,136
1,60,0,4
1,61,127,420
1,65,127,4
1,68,127,8
1,65,0,128
1,61,0,0
1,68,0,12
1,63,127,40
1,67,127,0
1,70,127,0
1,70,0,128
1,67,0,4
1,63,0,8
1,60,127,60
1,65,127,4
1,68,127,0
1,68,0,128
1,65,0,12
1,60,0,0
1,60,127,36
1,63,127,4
1,68,127,16
1,63,0,108
1,60,0,8
1,68,0,8
1,61,127,836
1,65,127,0
1,68,127,0
1,65,0,124
1,68,0,16
1,61,0,8
1,63,127,24
1,67,127,0
1,70,127,4
1,67,0,124
1,63,0,0
1,70,0,4
1,60,127,76
1,65,127,0
1,68,127,0
1,68,0,128
1,65,0,0
1,60,0,20
1,63,127,32
1,67,127,12
1,72,127,0
1,63,0,244
1,67,0,24
1,64,127,116
1,67,127,0
1,72,0,140
1,67,0,244
1,64,0,12
1,68,127,188
1,72,127,0
1,77,127,0
1,68,0,128
1,72,0,8
1,77,0,4
1,65,127,224
1,68,127,0
1,72,127,0
1,72,0,124
1,68,0,0
1,65,0,12
1,63,127,52
1,67,127,4
1,70,127,0
1,63,0,260
1,70,0,8
1,67,0,4
1,63,127,492
1,67,127,0
1,70,127,12
1,67,0,372
1,63,0,12
1,70,0,8
1,60,127,0
1,65,127,0
1,68,127,0
1,60,0,128
1,68,0,4
1,65,0,12
1,60,127,236
1,65,127,4
1,68,127,0
1,65,0,128
1,60,0,4
1,68,0,12
1,63,127,240
1,60,127,0
1,60,0,124
1,63,0,0
1,61,127,440
1,65,127,0
1,68,127,4
1,65,0,132
1,61,0,0
1,68,0,4
1,63,127,64
1,67,127,0
1,70,127,0
1,67,0,124
1,63,0,4
1,70,0,12
1,60,127,36
1,65,127,12
1,68,127,0
1,60,0,112
1,65,0,24
1,68,0,4
1,68,127,48
1,63,127,0
1,58,127,0
1,58,0,128
1,63,0,0
1,68,0,8
1,61,127,816
1,65,127,4
1,68,127,4
1,68,0,128
1,61,0,8
1,65,0,4
1,63,127,56
1,67,127,0
1,70,127,0
1,67,0,124
1,70,0,4
1,63,0,4
1,60,127,48
1,65,127,12
1,68,127,0
1,60,0,116
1,68,0,12
1,65,0,12
1,63,127,44
1,67,127,0
1,70,127,12
1,63,0,256
1,70,0,4
1,67,0,0
1,64,127,108
1,60,127,0
1,60,0,384
1,64,0,12
1,60,127,180
1,56,127,4
1,60,0,1524
1,56,0,16
1,61,127,1544
1,65,127,4
1,58,127,0
1,61,0,124
1,58,0,4
1,65,0,12
1,63,127,44
1,60,127,0
1,67,127,0
1,67,0,128
1,63,0,0
1,60,0,8
1,61,127,56
1,65,127,8
1,68,127,0
1,61,0,120
1,68,0,8
1,65,0,8
1,63,127,36
1,60,127,8
1,55,127,8
1,60,0,504
1,63,0,4
1,55,0,8
1,65,127,2732
1,68,127,12
1,72,127,0
1,65,0,116
1,72,0,12
1,68,0,0
1,60,127,436
1,64,127,0
1,67,127,12
1,70,127,0
1,64,0,756
1,60,0,0
1,70,0,20
1,67,0,4
1,68,127,740
1,72,127,4
1,63,127,8
1,72,0,384
1,68,0,0
1,63,0,644
1,62,127,692
1,60,127,12
1,60,0,1028
1,62,0,0
1,61,127,496
1,65,127,0
1,68,127,0
1,68,0,384
1,65,0,0
1,61,0,8
1,61,127,376
1,65,127,0
1,61,0,396
1,65,0,4
1,63,127,180
1,68,127,0
1,68,0,384
1,63,0,8
1,58,127,180
1,63,127,0
1,68,127,0
1,58,0,380
1,63,0,4
1,68,0,12
1,58,127,196
1,63,127,0
1,68,127,0
1,63,0,128
1,58,0,12
1,68,0,4
1,61,127,428
1,61,0,520
1,61,127,240
1,65,127,0
1,68,127,0
1,68,0,124
1,65,0,4
1,61,0,20
1,63,127,36
1,67,127,4
1,70,127,12
1,67,0,112
1,63,0,8
1,70,0,8
1,61,127,52
1,65,127,0
1,68,127,12
1,68,0,124
1,65,0,4
1,61,0,0
1,61,127,68
1,65,127,0
1,68,127,0
1,64,127,752
1,67,127,4
1,70,127,8
1,61,0,4
1,68,0,8
1,65,0,8
1,64,0,348
1,70,0,12
1,67,0,0
1,68,127,568
1,72,127,0
1,72,0,392
1,68,0,0
1,65,127,376
1,68,127,0
1,72,127,16
1,68,0,124
1,72,0,12
1,65,0,232
1,60,127,192
1,64,127,12
1,67,127,0
1,60,0,764
1,67,0,4
1,64,0,12
1,65,127,936
1,68,127,0
1,68,0,512
1,65,0,0
1,65,127,256
1,65,0,524
1,62,127,244
1,60,127,0
1,62,0,512
1,60,0,8
1,60,127,832
1,65,127,0
1,68,127,0
1,68,0,1028
1,65,0,16
1,60,0,0
1,63,127,484
1,67,127,0
1,67,0,768
1,63,0,12
1,65,127,948
1,68,127,0
1,60,127,0
1,68,0,268
1,65,0,0
1,60,0,508
1,61,127,568
1,65,127,0
1,68,127,12
1,72,127,0
1,61,0,760
1,65,0,4
1,68,0,16
1,64,127,180
1,67,127,0
1,70,127,0
1,70,0,508
1,64,0,0
1,67,0,8
1,72,0,80
1,65,127,168
1,68,127,0
1,68,0,128
1,65,0,0
1,65,127,256
1,68,127,0
1,72,127,4
1,65,0,124
1,72,0,8
1,68,0,0
1,63,127,56
1,67,127,0
1,70,127,4
1,70,0,260
1,63,0,0
1,67,0,4
1,63,127,492
1,67,127,0
1,70,127,16
1,63,0,368
1,60,127,0
1,65,127,0
1,67,0,12
1,70,0,4
1,68,127,0
1,60,0,108
1,65,0,16
1,68,0,12
1,60,127,232
1,65,127,0
1,68,127,12
1,65,0,116
1,60,0,0
1,68,0,8
1,60,127,256
1,63,127,8
1,60,0,116
1,63,0,16
1,61,127,428
1,65,127,0
1,68,127,8
1,65,0,120
1,68,0,12
1,61,0,0
1,63,127,48
1,67,127,4
1,70,127,0
1,67,0,124
1,63,0,0
1,70,0,12
1,60,127,68
1,65,127,0
1,68,127,0
1,68,0,128
1,60,0,4
1,65,0,8
1,60,127,36
1,63,127,16
1,68,127,4
1,60,0,116
1,63,0,16
1,68,0,16
1,61,127,796
1,65,127,4
1,68,127,0
1,61,0,124
1,68,0,4
1,65,0,0
1,63,127,56
1,67,127,4
1,70,127,8
1,70,0,128
1,67,0,0
1,63,0,4
1,60,127,64
1,65,127,0
1,68,127,0
1,68,0,128
1,65,0,8
1,60,0,0
1,63,127,52
1,67,127,0
1,72,127,0
1,63,0,260
1,67,0,12
1,64,127,116
1,67,127,0
1,72,0,124
1,64,0,256
1,67,0,20
1,68,127,164
1,72,127,0
1,77,127,0
1,72,0,128
1,68,0,8
1,77,0,8
1,65,127,256
1,68,127,0
1,72,127,0
1,65,0,124
1,72,0,16
1,68,0,0
1,63,127,36
1,67,127,0
1,70,127,0
1,63,0,252
1,70,0,12
1,67,0,4
1,63,127,512
1,67,127,0
1,70,127,0
1,60,127,372
1,67,0,12
1,65,127,4
1,68,127,0
1,63,0,8
1,70,0,4
1,60,0,100
1,68,0,16
1,65,0,0
1,60,127,236
1,65,127,4
1,68,127,0
1,60,0,124
1,68,0,4
1,65,0,8
1,63,127,256
1,60,127,0
1,60,0,124
1,63,0,12
1,61,127,444
1,65,127,0
1,68,127,0
1,65,0,132
1,61,0,8
1,68,0,4
1,63,127,44
1,67,127,0
1,70,127,0
1,63,0,124
1,67,0,4
1,70,0,16
1,60,127,48
1,65,127,4
1,68,127,0
1,68,0,124
1,60,0,8
1,65,0,4
1,68,127,48
1,63,127,0
1,58,127,4
1,63,0,124
1,68,0,16
1,58,0,4
1,61,127,816
1,65,127,0
1,68,127,8
1,65,0,128
1,61,0,0
1,68,0,20
1,63,127,24
1,67,127,4
1,70,127,12
1,67,0,112
1,63,0,8
1,70,0,20
1,60,127,52
1,65,127,0
1,68,127,0
1,68,0,128
1,65,0,0
1,60,0,20
1,63,127,36
1,67,127,0
