track,note,velocity,time
0,64,106,12
0,66,94,0
0,69,97,0
0,74,41,0
0,86,61,0
0,62,85,10
0,69,60,7
0,74,96,36
0,69,0,5
0,73,95,2
0,76,115,2
0,74,71,2
0,74,108,2
0,61,81,48
0,69,86,24
0,73,82,42
0,73,88,0
0,74,0,6
0,74,96,2
0,59,82,6
0,73,0,4
0,66,70,6
0,59,0,10
0,66,0,84
0,69,101,2
0,69,64,0
0,74,95,2
0,74,0,94
0,73,116,2
0,76,124,2
0,74,80,2
0,74,0,94
0,74,115,0
0,57,82,0
0,66,46,94
0,73,58,2
0,73,76,0
0,66,0,146
0,57,0,12
0,55,81,0
0,62,102,0
0,67,98,0
0,71,72,0
0,73,103,2
0,55,0,42
0,67,0,16
0,62,0,28
0,74,108,2
0,74,0,190
0,67,76,2
0,71,70,0
0,73,86,6
0,54,81,2
0,62,90,0
0,74,89,0
0,69,75,0
0,67,57,2
0,74,103,0
0,74,0,6
0,52,62,2
0,59,69,0
0,62,69,0
0,67,92,0
0,62,71,0
0,64,83,0
0,45,86,2
0,55,90,0
0,59,89,0
0,62,102,0
0,69,60,0
0,62,74,0
0,86,0,2
0,61,85,0
0,57,93,0
0,61,62,0
0,62,89,0
0,64,104,0
0,50,80,12
0,62,87,0
0,64,84,0
0,66,91,0
0,69,83,0
0,51,71,0
0,69,0,2
0,67,0,0
0,51,0,0
0,62,72,0
0,69,0,12
0,64,0,4
0,50,0,12
0,62,0,0
0,66,0,2
0,62,79,56
0,64,67,0
0,66,76,0
0,69,75,0
0,62,79,318
0,64,56,0
0,66,80,0
0,69,67,0
0,69,0,52
0,62,0,0
0,64,0,4
0,62,0,10
0,66,0,10
0,62,83,308
0,64,55,0
0,66,76,0
0,69,60,0
0,64,0,58
0,69,0,18
0,66,0,2
0,62,0,0
0,57,64,0
0,57,0,82
0,62,93,0
0,62,0,82
0,48,79,0
0,62,83,0
0,64,80,0
0,66,75,0
0,69,79,0
0,64,109,0
0,64,73,0
0,64,0,36
0,48,0,4
0,64,109,0
0,62,83,96
0,64,83,0
0,66,75,0
0,69,79,0
0,64,0,56
0,62,0,10
0,69,0,2
0,66,0,2
0,64,0,24
0,66,92,0
0,66,0,176
0,64,101,0
0,62,83,96
0,64,71,0
0,66,68,0
0,69,96,0
0,69,0,52
0,64,0,2
0,66,0,8
0,62,0,4
0,64,0,18
0,62,61,0
0,62,84,288
0,64,83,0
0,66,79,0
0,69,79,0
0,54,75,0
0,54,0,2
0,64,0,52
0,66,0,4
0,69,0,2
0,62,0,4
0,62,0,16
0,57,57,0
0,57,0,94
0,62,80,0
0,62,0,84
0,47,80,0
0,62,83,0
0,64,83,0
0,66,64,0
0,69,76,0
0,64,109,0
0,64,65,0
0,64,0,36
0,64,96,0
0,62,71,96
0,64,79,0
0,66,75,0
0,69,60,0
0,64,0,38
0,69,0,18
0,64,0,8
0,66,0,4
0,62,0,4
0,62,69,0
0,62,0,40
0,62,77,0
0,62,79,192
0,64,72,0
0,66,63,0
0,69,75,0
0,66,0,50
0,64,0,0
0,69,0,8
0,62,0,8
0,62,0,82
0,61,64,0
0,61,0,42
0,62,83,0
0,64,83,0
0,66,63,0
0,69,71,0
0,62,92,0
0,62,0,42
0,66,0,8
0,69,0,2
0,64,0,2
0,62,0,6
0,64,101,0
0,64,0,178
0,59,93,0
0,45,91,0
0,62,91,0
0,64,96,0
0,69,91,0
0,57,64,28
0,59,0,2
0,62,87,0
0,64,87,0
0,69,72,0
0,69,0,54
0,62,0,0
0,64,0,4
0,61,80,2
0,64,83,0
0,69,91,0
0,61,80,0
0,64,84,0
0,69,84,0
0,57,81,0
0,54,75,0
0,54,0,2
0,61,0,40
0,69,0,4
0,64,0,6
0,57,0,110
0,62,60,0
0,62,0,44
0,64,117,0
0,50,83,18
0,64,103,0
0,69,103,0
0,62,75,4
0,64,76,0
0,69,0,10
0,64,0,20
0,62,0,18
0,64,105,0
0,50,0,78
0,64,67,18
0,69,95,0
0,64,0,62
0,62,80,0
0,64,0,2
0,69,0,60
0,62,75,226
0,66,71,0
0,66,0,80
0,62,0,12
0,62,0,4
0,62,75,288
0,66,63,0
0,69,80,0
0,66,0,44
0,62,0,8
0,69,0,14
0,57,60,0
0,57,0,88
0,62,92,0
0,40,76,4
0,55,83,36
0,62,100,30
0,64,113,8
0,64,108,0
0,62,103,0
0,64,93,0
0,62,0,38
0,64,0,2
0,64,104,0
0,67,100,96
0,67,0,82
0,64,0,4
0,66,76,0
0,66,0,88
0,55,44,0
0,67,89,0
0,55,0,74
0,60,84,118
0,60,0,88
0,55,68,104
0,67,0,10
0,55,0,34
0,60,84,148
0,54,74,0
0,54,0,2
0,60,0,52
0,57,69,0
0,57,0,86
0,62,92,0
0,62,0,62
0,46,84,0
0,60,103,0
0,62,100,0
0,65,95,0
0,67,108,0
0,53,68,0
0,65,76,0
0,46,0,10
0,62,0,2
0,65,0,10
0,65,0,2
0,53,0,58
0,65,109,0
0,60,80,96
0,62,75,0
0,65,79,0
0,65,0,34
0,64,89,0
0,64,0,86
0,53,68,0
0,62,76,0
0,62,0,26
0,65,0,26
0,53,0,24
0,58,72,116
0,62,35,0
0,65,76,0
0,65,0,182
0,62,0,10
0,58,0,0
0,53,51,0
0,62,0,12
0,53,0,32
0,62,60,0
0,62,0,34
0,65,99,0
0,62,85,0
0,62,0,42
0,65,0,28
0,64,84,0
0,64,112,0
0,64,0,54
0,62,108,42
0,62,0,38
0,64,0,16
0,64,96,0
0,45,101,10
0,45,88,0
0,52,83,0
0,55,95,0
0,62,108,0
0,52,76,6
0,55,0,8
0,52,0,78
0,55,88,106
0,62,88,0
0,62,0,128
0,55,0,42
0,52,75,22
0,64,0,24
0,55,67,6
0,61,84,0
0,69,84,212
0,54,74,0
0,54,0,2
0,69,0,44
0,45,0,301
0,26,125,6
0,62,76,0
0,69,83,0
0,76,91,0
0,78,88,0
0,81,83,0
0,62,60,0
0,50,74,0
0,54,74,0
0,57,73,0
0,62,73,0
0,36,125,0
0,57,69,0
0,57,0,2
0,36,0,0
0,69,64,94
0,69,0,2
0,76,88,190
0,78,76,0
0,81,80,0
0,42,125,0
0,81,0,2
0,78,0,0
0,76,0,0
0,42,0,0
0,57,68,0
0,57,0,68
0,69,52,0
0,62,92,0
0,69,0,2
0,62,0,86
0,61,104,0
0,61,0,86
0,76,83,0
0,78,84,0
0,81,83,0
0,64,112,0
0,81,0,2
0,78,0,0
0,76,0,0
0,64,0,140
0,69,56,0
0,62,76,0
0,69,0,2
0,62,0,38
0,62,112,0
0,26,0,21
0,62,0,57
0,37,120,2
0,61,92,0
0,69,80,0
0,76,99,0
0,64,60,0
0,49,73,0
0,61,74,0
0,42,121,0
0,54,74,0
0,54,0,2
0,42,0,0
0,81,88,0
0,61,85,0
0,81,0,2
0,61,0,78
0,62,109,0
0,35,120,2
0,59,82,0
0,69,77,0
0,74,89,0
0,76,77,0
0,81,93,0
0,62,61,0
0,47,74,0
0,62,74,0
0,36,125,0
0,36,0,2
0,69,62,8
0,69,0,64
0,62,0,56
0,69,65,72
0,74,77,0
0,76,76,0
0,81,70,0
0,42,124,0
0,42,0,2
0,59,0,48
0,81,0,18
0,74,0,82
0,69,0,24
0,76,0,4
0,69,65,0
0,62,113,0
0,62,0,80
0,61,76,0
0,69,0,8
0,61,0,24
0,69,66,0
0,74,75,0
0,76,73,0
0,81,77,0
0,66,116,0
0,81,0,64
0,66,0,88
0,69,0,36
0,76,0,2
0,74,0,0
0,69,73,0
0,64,100,0
0,64,0,40
0,62,113,0
0,69,0,26
0,35,0,47
0,33,124,2
0,57,85,0
0,69,77,0
0,76,94,0
0,78,97,0
0,45,74,0
0,42,120,0
0,69,95,0
0,69,0,2
0,42,0,0
0,81,86,0
0,64,100,0
0,81,0,14
0,57,0,2
0,69,0,26
0,64,0,2
0,66,120,0
0,33,0,71
0,54,0,9
0,31,125,10
0,55,50,0
0,69,85,0
0,71,86,0
0,74,70,0
0,43,73,0
0,59,74,0
0,36,124,0
0,36,0,2
0,45,0,8
0,64,85,0
0,69,0,6
0,74,0,8
0,71,0,12
0,55,0,28
0,64,0,26
0,69,73,0
0,62,85,0
0,69,0,46
0,71,85,146
0,74,78,0
0,42,124,0
0,42,0,2
0,62,0,28
0,71,0,28
0,74,0,8
0,69,61,0
0,62,100,0
0,69,0,46
0,62,0,28
0,61,76,0
0,61,0,44
0,71,74,0
0,74,61,0
0,64,112,0
0,74,0,52
0,71,0,8
0,64,0,82
0,69,65,0
0,62,89,0
0,62,0,20
0,69,0,28
0,62,120,0
0,31,0,37
0,30,105,2
0,54,82,0
0,69,85,0
0,76,81,0
0,81,98,0
0,61,61,0
0,42,74,0
0,64,74,0
0,42,121,0
0,54,75,0
0,54,0,2
0,42,0,0
0,43,0,16
0,61,77,0
0,62,0,6
0,61,0,28
0,79,66,38
0,62,112,0
0,78,59,32
0,79,0,8
0,78,0,20
0,57,0,0
0,28,117,2
0,52,73,0
0,71,78,0
0,74,89,0
0,79,90,0
0,59,61,0
0,40,73,0
0,55,74,0
0,62,74,0
0,36,124,0
0,36,0,2
0,61,84,0
0,62,0,10
0,71,0,72
0,74,0,2
0,79,0,6
0,67,53,0
0,61,0,0
0,59,72,0
0,67,0,54
0,59,0,118
0,67,69,20
0,71,69,0
0,74,85,0
0,42,125,0
0,42,0,2
0,52,0,60
0,67,0,62
0,74,0,18
0,64,45,0
0,62,112,0
0,71,0,2
0,64,0,46
0,61,84,0
0,62,0,12
0,33,121,0
0,57,81,0
0,71,82,0
0,74,86,0
0,79,73,0
0,59,100,0
0,45,73,0
0,28,0,17
0,67,61,0
0,61,92,0
0,74,0,2
0,79,0,0
0,67,0,52
0,61,0,36
0,62,104,0
0,59,0,94
0,62,0,0
0,71,78,2
0,74,94,0
0,81,98,0
0,57,61,0
0,64,74,0
0,42,121,0
0,69,95,0
0,69,0,2
0,42,0,0
0,62,0,60
0,69,105,0
0,81,0,26
0,71,0,54
0,74,0,2
0,21,108,14
0,69,86,0
0,33,0,3
0,69,0,31
0,21,0,59
0,28,101,0
0,66,116,0
0,69,0,8
0,26,125,2
0,62,74,0
0,74,94,0
0,76,105,0
0,78,86,0
0,66,60,0
0,54,74,0
0,57,73,0
0,62,73,0
0,36,124,0
0,36,0,2
0,64,92,0
0,74,0,54
0,62,0,36
0,78,0,2
0,64,0,2
0,69,69,0
0,62,84,0
0,76,0,10
0,69,0,38
0,62,0,132
0,74,78,12
0,76,82,0
0,78,50,0
0,42,125,0
0,42,0,2
0,74,0,56
0,57,81,0
0,78,0,10
0,76,0,26
0,57,0,50
0,69,77,0
0,66,117,0
0,69,0,34
0,64,92,0
0,66,0,2
0,64,0,64
0,62,78,0
0,69,90,0
0,74,98,0
0,76,102,0
0,79,97,0
0,67,116,0
0,67,61,0
0,55,74,0
0,69,77,0
0,66,93,0
0,66,0,26
0,74,0,28
0,62,0,12
0,67,0,28
0,74,86,0
0,78,102,0
0,66,121,0
0,66,61,0
0,26,0,53
0,37,125,4
0,61,86,0
0,61,74,0
0,64,73,0
0,42,120,0
0,54,75,0
0,54,0,2
0,42,0,0
0,76,89,0
0,64,89,0
0,64,61,0
0,69,0,26
0,76,0,16
0,64,0,44
0,66,116,0
0,35,120,2
0,59,69,0
0,69,58,0
0,74,90,0
0,78,82,0
0,81,90,0
0,62,60,0
0,54,74,0
0,62,73,0
0,36,125,0
0,36,0,2
0,64,84,0
0,81,0,14
0,66,0,0
0,64,0,68
0,59,0,2
0,74,0,2
0,69,0,2
0,78,0,6
0,69,65,0
0,62,88,0
0,69,0,62
0,62,0,96
0,74,85,34
0,78,65,0
0,81,78,0
0,42,125,0
0,42,0,2
0,81,0,78
0,74,0,98
0,78,0,4
0,69,82,0
0,66,84,0
0,66,0,30
0,69,0,48
0,66,88,0
0,66,0,32
0,35,0,37
0,33,121,0
0,57,94,0
0,74,90,0
0,78,69,0
0,81,86,0
0,71,120,0
0,69,66,0
0,69,88,0
0,74,0,2
0,81,0,6
0,78,0,4
0,69,0,4
0,69,0,22
0,57,0,12
0,66,112,0
0,74,90,96
0,78,69,0
0,81,90,0
0,42,121,0
0,69,94,0
0,69,0,2
0,42,0,0
0,74,0,74
0,81,0,42
0,66,0,42
0,78,0,24
0,69,86,0
0,69,80,0
0,69,0,28
0,69,0,8
0,66,116,0
0,36,81,0
0,36,0,2
0,31,121,2
0,55,41,0
0,67,66,0
0,71,98,0
0,74,97,0
0,71,61,0
0,59,74,0
0,36,125,0
0,36,0,2
0,64,93,0
0,67,0,26
0,55,0,4
0,74,0,20
0,71,0,4
0,64,0,34
0,69,77,0
0,62,81,0
0,69,0,38
0,62,0,142
0,71,82,12
0,74,78,0
0,42,125,0
0,42,0,2
0,74,0,84
0,71,0,8
0,69,73,0
0,62,88,0
0,69,0,32
0,62,0,52
0,61,69,0
0,61,0,42
0,71,78,0
0,74,81,0
0,64,116,0
0,74,0,68
0,71,0,0
0,64,0,74
0,69,62,0
0,62,88,0
0,69,0,30
0,62,0,0
0,62,113,0
0,31,0,59
0,30,124,2
0,54,77,0
0,61,82,0
0,64,81,0
0,71,77,0
0,69,61,0
0,64,73,0
0,42,120,0
0,54,75,0
0,54,0,2
0,42,0,0
0,69,93,0
0,64,101,0
0,64,0,28
0,69,0,12
0,66,121,0
0,28,117,2
0,52,65,0
0,67,86,0
0,71,93,0
0,74,97,0
0,79,90,0
0,67,60,0
0,55,74,0
0,62,73,0
0,36,125,0
0,36,0,2
0,30,0,19
0,64,85,0
0,52,0,40
0,67,0,12
0,71,0,28
0,74,0,0
0,64,0,12
0,67,62,0
0,62,73,0
0,67,0,46
0,62,0,132
0,71,73,14
0,74,97,0
0,79,85,0
0,42,125,0
0,42,0,2
0,79,0,128
0,71,0,46
0,74,0,4
0,67,82,0
0,62,101,0
0,67,0,58
0,62,0,24
0,61,72,0
0,28,0,65
0,61,0,3
0,33,121,0
0,57,90,0
0,71,65,0
0,74,85,0
0,79,78,0
0,66,109,0
0,78,85,0
0,64,96,0
0,66,61,0
0,78,0,50
0,64,0,4
0,62,105,0
0,66,0,94
0,76,69,2
0,64,61,0
0,42,121,0
0,69,94,0
0,69,0,2
0,42,0,0
0,21,96,3
0,21,108,0
0,74,73,0
0,64,81,0
0,62,60,0
0,66,108,0
0,62,0,10
0,26,121,4
0,50,65,0
0,64,69,0
0,66,81,0
0,69,77,0
0,74,70,0
0,36,124,0
0,36,0,2
0,64,80,0
0,66,0,2
0,57,69,4
0,62,77,0
0,66,0,2
0,64,58,10
0,66,62,0
0,69,58,0
0,69,40,26
0,57,41,8
0,74,87,0
0,73,104,8
0,64,33,2
0,66,15,0
0,69,37,0
0,62,61,0
0,76,115,0
0,62,0,36
0,57,42,4
0,74,76,0
0,74,0,36
0,57,0,12
0,74,119,44
0,57,69,6
0,61,65,0
0,64,66,0
0,66,58,0
0,62,0,0
0,69,70,0
0,54,63,0
0,54,0,2
0,73,72,11
0,74,0,4
0,74,103,0
0,66,0,52
0,64,0,0
0,57,0,12
0,61,0,2
0,59,85,10
0,86,71,0
0,59,86,0
0,74,58,0
0,69,0,4
0,66,45,4
0,61,95,0
0,69,69,60
0,62,107,0
0,61,0,2
0,59,82,16
0,57,71,0
0,74,83,0
0,62,0,2
0,57,57,4
0,73,107,0
0,59,0,2
0,74,0,4
0,66,0,20
0,55,66,2
0,55,63,0
0,73,0,0
0,71,63,0
0,57,0,2
0,43,97,26
0,43,65,0
0,57,97,0
0,62,97,0
0,67,89,0
0,38,125,0
0,38,0,2
0,42,108,0
0,69,121,0
0,45,101,0
0,45,0,2
0,42,0,81
0,40,101,13
0,45,125,0
0,45,0,2
0,69,0,22
0,38,112,0
0,66,100,0
0,66,0,38
0,67,0,4
0,57,0,16
0,55,0,22
0,62,0,4
0,86,0,8
0,26,125,0
0,38,89,0
0,50,93,0
0,57,97,0
0,62,101,0
0,64,98,0
0,66,117,0
