track,note,velocity,time
0,72,82,219
0,60,81,0
0,67,66,0
0,74,71,0
0,48,95,0
0,36,99,0
0,79,58,0
0,62,57,384
0,48,99,0
0,74,121,7
0,63,69,8
0,79,119,16
0,67,57,11
0,55,85,7
0,84,105,0
0,70,76,1
0,48,0,4
0,55,0,0
0,79,0,9
0,74,0,6
0,84,0,5
0,72,101,6
0,67,93,0
0,79,86,0
0,48,0,25
0,62,0,1
0,72,0,50
0,74,0,0
0,67,0,0
0,79,0,0
0,60,0,0
0,55,95,3
0,70,0,3
0,63,0,3
0,67,0,2
0,57,95,24
0,55,0,7
0,60,85,25
0,57,0,4
0,79,0,10
0,67,0,0
0,72,0,0
0,60,0,3
0,55,95,1
0,42,84,0
0,64,103,0
0,62,101,0
0,36,117,0
0,36,121,0
0,60,105,0
0,49,103,0
0,70,87,0
0,42,0,1
0,36,0,1
0,42,42,19
0,42,0,1
0,42,37,31
0,42,0,10
0,64,90,21
0,72,90,0
0,67,90,0
0,60,92,1
0,85,127,0
0,42,82,0
0,73,80,1
0,42,0,0
0,62,0,7
0,67,0,7
0,72,0,0
0,64,0,0
0,70,0,10
0,82,25,6
0,42,39,1
0,82,0,0
0,42,0,1
0,36,0,8
0,82,28,12
0,82,0,1
0,36,0,1
0,82,37,8
0,36,95,1
0,42,76,0
0,24,111,0
0,42,0,1
0,82,0,5
0,36,0,6
0,24,0,5
0,24,121,15
0,70,82,0
0,42,74,0
0,36,113,0
0,42,0,1
0,42,52,31
0,42,0,1
0,42,51,20
0,42,0,1
0,42,68,10
0,42,0,1
0,64,90,5
0,72,90,0
0,67,90,0
0,64,103,1
0,42,80,0
0,37,127,0
0,42,0,1
0,60,0,2
0,64,0,12
0,72,0,0
0,67,0,0
0,55,0,2
0,60,0,0
0,24,0,2
0,31,92,1
0,42,48,0
0,65,81,0
0,42,0,1
0,64,0,1
0,70,0,1
0,64,0,2
0,36,0,22
0,42,58,1
0,33,93,0
0,67,89,0
0,42,0,1
0,65,0,2
0,31,0,2
0,49,0,8
0,36,107,19
0,69,95,0
0,42,80,0
0,67,89,0
0,70,87,0
0,58,90,0
0,62,97,0
0,36,121,0
0,42,0,1
0,67,0,1
0,85,0,0
0,33,0,1
0,73,0,0
0,37,0,10
0,42,42,3
0,42,0,1
0,42,41,31
0,42,0,1
0,70,0,6
0,67,90,10
0,58,90,0
0,62,90,0
0,67,85,1
0,42,84,0
0,85,127,0
0,73,80,1
0,42,0,0
0,69,0,3
0,58,0,11
0,62,0,0
0,67,0,0
0,82,35,16
0,42,42,1
0,42,0,1
0,82,0,7
0,36,0,1
0,24,87,23
0,36,92,0
0,42,66,0
0,42,0,1
0,36,0,2
0,36,0,7
0,24,0,4
0,24,109,10
0,36,121,0
0,42,80,0
0,70,82,0
0,42,0,1
0,42,38,1
0,42,0,1
0,42,42,3
0,42,0,1
0,42,58,10
0,42,0,1
0,67,0,18
0,62,90,1
0,67,90,0
0,58,90,0
0,37,127,1
0,67,101,0
0,42,86,0
0,42,0,1
0,67,0,5
0,58,0,0
0,62,0,0
0,67,0,0
0,62,0,0
0,58,0,0
0,82,30,16
0,58,101,1
0,67,89,0
0,62,97,0
0,42,43,0
0,65,86,0
0,82,0,0
0,42,0,1
0,70,0,2
0,67,0,2
0,82,35,16
0,82,0,1
0,62,0,3
0,67,0,0
0,58,0,1
0,82,32,3
0,42,72,1
0,64,85,0
0,36,95,0
0,42,0,0
0,36,0,0
0,65,0,1
0,24,0,3
0,82,0,0
0,64,0,1
0,29,115,1
0,70,87,0
0,65,90,0
0,57,82,0
0,42,80,0
0,67,87,0
0,60,92,0
0,36,121,0
0,42,0,1
0,85,0,1
0,73,0,0
0,36,0,1
0,37,0,8
0,63,95,9
0,42,41,0
0,67,0,0
0,42,0,1
0,42,46,31
0,62,81,0
0,42,0,1
0,63,0,2
0,57,90,28
0,60,90,0
0,65,90,0
0,42,88,1
0,85,127,0
0,60,86,0
0,73,80,1
0,42,0,0
0,62,0,1
0,57,0,13
0,65,0,0
0,60,0,0
0,70,0,10
0,36,0,3
0,82,25,3
0,42,42,1
0,82,0,0
0,42,0,1
0,29,0,14
0,82,28,5
0,82,0,1
0,82,37,7
0,36,99,1
0,42,72,0
0,29,92,0
0,42,0,0
0,82,0,5
0,29,0,1
0,36,0,3
0,36,117,4
0,42,78,0
0,70,82,0
0,29,113,0
0,42,0,1
0,57,0,6
0,65,0,17
0,57,53,4
0,42,43,0
0,42,0,1
0,60,0,6
0,42,36,14
0,42,0,1
0,42,66,10
0,60,82,0
0,42,0,1
0,57,90,30
0,60,90,0
0,65,90,0
0,42,84,1
0,37,127,0
0,65,109,0
0,42,0,1
0,60,0,11
0,65,0,3
0,60,0,0
0,57,0,0
0,57,0,12
0,42,40,5
0,26,90,0
0,60,75,0
0,29,0,0
0,42,0,1
0,70,0,2
0,65,0,6
0,36,0,14
0,60,0,8
0,42,54,1
0,57,62,0
0,27,99,0
0,42,0,1
0,26,0,1
0,57,0,8
0,60,0,18
0,64,92,4
0,56,90,0
0,42,82,0
0,60,95,0
0,28,109,0
0,70,87,0
0,36,121,0
0,42,0,1
0,27,0,0
0,85,0,0
0,73,0,1
0,37,0,27
0,42,40,2
0,42,0,1
0,42,47,31
0,42,0,1
0,56,90,30
0,64,90,0
0,60,90,0
0,63,97,1
0,85,127,0
0,42,82,0
0,73,80,1
0,42,0,0
0,64,0,14
0,56,0,0
0,60,0,0
0,70,0,10
0,82,35,6
0,42,40,1
0,62,77,0
0,42,0,1
0,63,0,1
0,82,0,6
0,36,0,2
0,28,0,9
0,28,90,13
0,42,68,0
0,36,103,0
0,60,75,0
0,42,0,1
0,62,0,1
0,36,0,12
0,28,0,2
0,60,0,1
0,42,78,2
0,36,113,0
0,28,105,0
0,70,82,0
0,67,99,0
0,42,0,0
0,63,90,13
0,42,42,0
0,42,0,1
0,67,0,3
0,42,45,17
0,42,0,1
0,42,54,10
0,62,90,0
0,42,0,1
0,63,0,3
0,60,90,27
0,56,90,0
0,64,90,0
0,60,86,1
0,42,72,0
0,37,127,0
0,62,0,0
0,42,0,1
0,64,0,5
0,56,0,3
0,60,0,2
0,56,0,0
0,60,0,0
0,64,0,0
0,82,30,2
0,64,90,1
0,60,90,0
0,31,87,0
0,56,93,0
0,42,62,0
0,82,0,0
0,28,0,2
0,70,0,0
0,42,0,4
0,82,35,4
0,82,0,1
0,64,0,1
0,60,0,0
0,56,0,0
0,82,32,5
0,46,50,1
0,33,89,0
0,36,0,0
0,31,0,1
0,82,0,2
0,60,0,4
0,60,95,3
0,36,117,0
0,64,99,0
0,70,87,0
0,57,113,0
0,42,78,0
0,55,89,0
0,36,105,0
0,85,0,2
0,33,0,1
0,73,0,0
0,46,0,3
0,42,0,11
0,37,0,0
0,42,39,15
0,42,0,1
0,42,34,31
0,42,0,1
0,72,90,30
0,67,90,0
0,64,90,0
0,55,90,1
0,42,80,0
0,85,127,0
0,73,80,1
0,42,0,0
0,67,0,14
0,72,0,0
0,64,0,0
0,70,0,10
0,82,25,6
0,36,0,0
0,57,86,1
0,42,31,0
0,82,0,0
0,42,0,1
0,55,0,3
0,82,28,17
0,82,0,1
0,82,37,9
0,36,109,1
0,42,66,0
0,60,68,0
0,24,89,0
0,42,0,1
0,57,0,0
0,36,0,0
0,82,0,5
0,36,0,6
0,24,0,10
0,60,0,2
0,70,82,1
0,62,93,0
0,42,70,0
0,24,107,0
0,36,115,0
0,42,0,1
0,42,39,14
0,42,0,1
0,42,29,20
0,42,0,1
0,42,57,10
0,42,0,10
0,57,0,18
0,64,90,3
0,67,90,0
0,72,90,0
0,37,127,1
0,42,78,0
0,60,78,0
0,42,0,1
0,62,0,3
0,67,0,11
0,64,0,0
0,72,0,0
0,55,0,4
0,60,0,1
0,64,0,1
0,42,47,1
0,36,103,0
0,42,0,1
0,24,0,0
0,70,0,1
0,35,83,19
0,42,57,0
0,42,0,1
0,36,0,0
0,36,0,3
0,35,0,0
0,67,95,1
0,58,101,0
0,70,87,0
0,62,105,0
0,34,117,0
0,42,78,0
0,36,119,0
0,37,0,0
0,42,0,1
0,85,0,0
0,73,0,1
0,42,39,20
0,42,0,1
0,42,34,31
0,42,0,1
0,72,90,30
0,64,90,0
0,67,90,0
0,85,127,1
0,42,88,0
0,64,92,0
0,73,80,1
0,42,0,0
0,60,0,0
0,67,0,14
0,72,0,0
0,64,0,0
0,70,0,10
0,82,35,6
0,65,83,1
0,42,30,0
0,42,0,1
0,64,0,2
0,36,0,5
0,82,0,0
0,34,0,14
0,65,0,7
0,42,64,3
0,34,90,0
0,67,86,0
0,36,105,0
0,42,0,1
0,34,0,11
0,36,0,1
0,34,113,0
0,36,113,0
0,70,82,0
0,69,92,0
0,42,78,0
0,67,0,0
0,42,0,1
0,42,42,17
0,42,0,1
0,42,17,20
0,42,0,1
0,42,58,10
0,42,0,0
0,58,90,13
0,62,90,0
0,67,90,0
0,42,88,1
0,37,127,0
0,42,0,1
0,67,0,0
0,58,0,2
0,62,0,0
0,62,0,12
0,58,0,0
0,67,0,0
0,82,30,16
0,34,0,0
0,42,50,1
0,67,87,0
0,62,99,0
0,67,85,0
0,58,95,0
0,28,93,0
0,82,0,0
0,70,0,3
0,69,0,1
0,42,0,14
0,82,35,3
0,82,0,1
0,62,0,0
0,67,0,3
0,58,0,0
0,82,32,6
0,46,60,1
0,36,0,0
0,82,0,1
0,36,115,2
0,57,85,0
0,29,103,0
0,70,87,0
0,60,93,0
0,42,76,0
0,65,92,0
0,46,0,0
0,85,0,0
0,73,0,1
0,37,0,0
0,28,0,1
0,67,0,0
0,42,0,13
0,42,42,15
0,42,0,1
0,42,31,31
0,42,0,1
0,65,90,30
0,60,90,0
0,57,90,0
0,67,95,1
0,42,86,0
0,85,127,0
0,73,80,1
0,42,0,0
0,57,0,14
0,65,0,0
0,60,0,0
0,70,0,10
0,82,25,6
0,42,42,1
0,65,71,0
0,82,0,0
0,42,0,1
0,67,0,1
0,36,0,5
0,29,0,8
0,82,28,6
0,82,0,1
0,82,37,9
0,29,76,1
0,42,62,0
0,36,103,0
0,64,81,0
0,42,0,1
0,65,0,2
0,82,0,3
0,29,0,0
0,36,0,4
0,64,0,1
0,67,87,3
0,42,70,0
0,29,107,0
0,70,82,0
0,36,111,0
0,42,0,0
0,57,0,4
0,42,35,16
0,63,90,0
0,57,42,0
0,42,0,1
0,67,0,6
0,60,0,2
0,65,0,8
0,42,35,4
0,42,0,1
0,62,80,10
0,60,69,0
0,42,52,0
0,42,0,1
0,63,0,0
0,60,90,30
0,65,90,0
0,57,90,0
0,65,111,1
0,60,78,0
0,37,127,0
0,42,80,0
0,62,0,0
0,42,0,1
0,60,0,10
0,60,0,4
0,57,0,0
0,65,0,0
0,57,0,14
0,26,87,3
0,60,68,0
0,42,43,0
0,42,0,1
0,70,0,0
0,29,0,2
0,65,0,0
0,36,0,3
0,27,97,3
0,57,60,0
0,42,55,0
0,60,0,0
0,42,0,1
0,26,0,1
0,57,0,8
0,37,0,20
0,27,0,0
0,36,117,2
0,28,103,0
0,64,90,0
0,56,90,0
0,42,84,0
0,70,87,0
0,60,95,0
0,42,0,1
0,60,0,0
0,85,0,0
0,73,0,1
0,56,83,29
0,42,39,0
0,42,0,1
0,56,0,29
0,60,82,2
0,42,46,0
0,42,0,1
0,60,90,30
0,56,90,0
0,64,90,0
0,60,0,0
0,42,84,1
0,64,86,0
0,85,127,0
0,73,80,1
0,42,0,0
0,64,0,14
0,60,0,0
0,56,0,0
0,70,0,10
0,82,35,6
0,62,63,1
0,42,36,0
0,42,0,1
0,36,0,1
0,64,0,1
0,82,0,5
0,28,0,3
0,62,0,1
0,35,78,1
0,42,58,0
0,36,107,0
0,60,77,0
0,42,0,1
0,36,0,3
0,60,0,9
0,67,95,3
0,70,82,0
0,40,109,0
0,36,115,0
0,42,84,0
0,42,0,1
0,35,0,6
0,42,43,16
0,63,85,0
0,42,0,1
0,67,0,0
0,42,38,20
0,42,0,1
0,62,89,10
0,42,62,0
0,42,0,1
0,63,0,3
0,64,90,3
0,60,90,0
0,56,90,0
0,62,0,0
0,60,80,1
0,42,84,0
0,40,125,0
0,42,0,1
0,40,0,12
0,64,0,2
0,56,0,0
0,60,0,0
0,40,0,3
0,82,30,2
0,40,125,1
0,42,54,0
0,28,113,0
0,82,0,0
0,70,0,2
0,42,0,5
0,56,0,0
0,60,0,2
0,64,0,0
0,82,35,1
0,36,0,0
0,82,0,1
0,82,32,1
0,46,55,1
0,60,0,3
0,82,0,0
0,40,0,4
0,46,0,6
0,28,0,8
0,60,70,2
0,55,70,0
0,72,92,0
0,67,103,0
0,72,80,0
0,42,84,0
0,51,70,0
0,27,103,0
0,67,81,0
0,63,94,0
0,36,125,0
0,63,77,0
0,59,77,0
0,49,94,0
0,42,0,1
0,85,0,1
0,73,0,1
0,59,0,12
0,59,43,17
0,42,42,0
0,42,0,1
0,59,0,8
0,59,47,23
0,42,37,0
0,59,0,8
0,42,0,2
0,60,97,6
0,42,82,0
0,59,83,0
0,40,125,0
0,42,0,1
0,59,0,2
0,58,87,19
0,59,38,0
0,42,39,0
0,42,0,1
0,60,0,5
0,36,0,0
0,59,0,3
0,63,0,6
0,67,0,3
0,51,0,2
0,27,0,1
0,55,0,2
0,72,0,1
0,58,0,6
0,36,107,2
0,27,103,0
0,55,62,0
0,59,61,0
0,42,76,0
0,42,0,1
0,59,0,9
0,36,0,0
0,63,0,2
0,62,86,1
0,60,81,0
0,66,31,0
0,42,74,0
0,59,69,0
0,36,123,0
0,72,84,0
0,26,93,0
0,66,97,0
0,54,70,0
0,62,87,0
0,50,70,0
0,42,0,1
0,27,0,0
0,55,0,1
0,67,0,0
0,59,0,9
0,42,52,20
0,59,41,0
0,63,87,0
0,42,0,1
0,60,0,0
0,59,0,3
0,42,51,3
0,42,0,1
0,40,0,4
0,59,41,5
0,62,87,0
0,42,68,0
0,42,0,1
0,63,0,2
0,59,0,6
0,42,80,23
0,60,86,0
0,40,123,0
0,59,75,0
0,42,0,1
0,62,0,1
0,59,0,7
0,26,0,7
0,86,127,13
0,26,74,0
0,59,43,0
0,42,48,0
0,42,0,1
0,50,0,3
0,59,0,6
0,54,0,0
0,62,0,1
0,72,0,0
0,66,0,3
0,36,0,3
0,42,58,4
0,84,127,0
0,59,51,0
0,28,75,0
0,42,0,1
0,26,0,0
0,59,0,6
0,86,0,2
0,66,0,1
0,60,0,1
0,42,80,2
0,60,77,0
0,36,125,0
0,29,95,0
0,65,92,0
0,69,87,0
0,53,70,0
0,60,63,0
0,59,67,0
0,57,70,0
0,89,127,0
0,65,72,0
0,28,0,0
0,42,0,1
0,84,0,0
0,72,0,4
0,62,0,3
0,59,0,2
0,59,50,20
0,42,42,0
0,42,0,1
0,59,0,9
0,59,52,22
0,42,41,0
0,40,0,0
0,42,0,1
0,49,0,6
0,59,0,1
0,59,89,24
0,42,84,0
0,40,125,0
0,60,87,0
0,42,0,1
0,89,0,2
0,59,0,7
0,29,0,7
0,62,82,9
0,29,66,0
0,59,41,0
0,42,42,0
0,42,0,1
0,60,0,5
0,60,0,3
0,36,0,0
0,59,0,1
0,65,0,4
0,69,0,1
0,59,51,17
0,42,66,0
0,30,87,0
0,64,82,0
0,36,78,0
0,60,0,0
0,42,0,1
0,29,0,2
0,62,0,1
0,59,0,5
0,36,0,0
0,67,53,2
0,42,80,0
0,59,70,0
0,36,123,0
0,67,95,0
0,72,80,0
0,31,101,0
0,60,84,0
0,69,87,0
0,65,91,0
0,60,70,0
0,64,0,0
0,42,0,1
0,30,0,0
0,65,0,1
0,59,0,2
0,59,33,12
0,64,83,0
0,42,38,0
0,42,0,1
0,67,0,7
0,59,0,2
0,42,42,11
0,42,0,1
0,40,0,8
0,59,46,2
0,42,58,0
0,62,85,0
0,42,0,1
0,64,0,3
0,59,0,4
0,40,126,24
0,59,75,0
0,84,119,0
0,42,86,0
