track,note,velocity,time
0,88,93,120
0,68,93,0
0,76,99,0
0,71,89,0
0,66,102,0
0,64,107,60
0,71,0,89
0,71,102,1
0,71,0,29
0,76,100,1
0,76,0,29
0,75,96,1
0,75,0,29
0,78,109,1
0,78,0,59
0,76,108,1
0,76,0,29
0,76,106,1
0,64,0,29
0,68,0,0
0,66,0,0
0,63,92,1
0,76,0,29
0,71,109,1
0,71,0,29
0,75,105,1
0,75,0,29
0,76,100,1
0,63,0,29
0,61,95,1
0,61,0,30
0,68,89,0
0,76,0,30
0,71,91,0
0,71,0,89
0,71,97,1
0,71,0,29
0,76,91,1
0,76,0,29
0,75,92,1
0,75,0,29
0,78,111,1
0,78,0,59
0,76,98,1
0,76,0,29
0,76,91,1
0,68,0,29
0,59,89,1
0,59,0,30
0,68,89,0
0,76,0,29
0,75,97,1
0,75,0,29
0,76,100,1
0,76,0,29
0,68,0,0
0,57,102,1
0,69,102,0
0,73,102,0
0,73,0,59
0,75,92,1
0,75,0,59
0,76,104,1
0,69,0,59
0,69,98,1
0,76,0,59
0,61,92,1
0,61,91,0
0,73,96,0
0,73,0,59
0,61,0,0
0,61,0,1
0,75,89,0
0,63,103,0
0,63,105,0
0,63,0,59
0,69,0,0
0,57,0,0
0,75,0,0
0,63,0,1
0,56,107,0
0,64,102,0
0,76,102,0
0,64,109,0
0,64,0,59
0,64,0,1
0,71,107,0
0,59,102,0
0,59,105,0
0,59,0,59
0,56,0,0
0,76,0,0
0,71,0,0
0,59,0,1
0,69,95,0
0,54,100,0
0,57,99,0
0,57,111,0
0,64,109,120
0,64,109,0
0,64,0,59
0,64,0,0
0,66,92,1
0,66,105,0
0,66,0,59
0,57,0,0
0,54,0,0
0,69,0,0
0,57,0,0
0,84,55,1
0,47,101,0
0,64,111,0
0,57,111,0
0,64,0,119
0,66,0,0
0,59,100,1
0,59,0,59
0,64,98,1
0,64,0,59
0,76,0,0
0,84,0,0
0,88,0,0
0,57,0,0
0,47,0,0
0,71,93,1
0,64,92,0
0,52,97,0
0,51,100,0
0,68,100,0
0,66,96,0
0,66,93,0
0,66,0,59
0,64,100,1
0,68,0,59
0,51,0,0
0,71,0,0
0,64,0,0
0,66,0,0
0,68,100,1
0,71,101,0
0,66,99,0
0,64,101,0
0,64,0,119
0,64,0,0
0,68,0,0
0,71,0,0
0,66,0,0
0,71,93,1
0,66,95,0
0,64,97,0
0,68,94,0
0,68,0,119
0,66,0,0
0,64,0,0
0,71,0,0
0,66,91,1
0,68,92,0
0,71,100,0
0,64,95,0
0,59,102,60
0,59,0,29
0,64,106,1
0,64,0,29
0,64,0,0
0,68,0,0
0,52,0,0
0,66,0,0
0,71,0,0
0,71,91,1
0,66,91,0
0,62,101,0
0,50,96,0
0,66,102,0
0,66,0,59
0,66,106,1
0,66,0,29
0,66,97,1
0,62,0,29
0,71,0,0
0,66,0,0
0,71,94,1
0,62,94,0
0,66,97,0
0,66,0,29
0,68,100,1
0,68,0,59
0,64,97,1
0,66,0,29
0,62,0,0
0,71,0,0
0,66,100,1
0,62,98,0
0,71,98,0
0,71,0,119
0,66,0,0
0,62,0,0
0,64,0,0
0,62,93,1
0,66,99,0
0,51,104,0
0,71,96,0
0,59,105,60
0,59,0,29
0,64,100,1
0,64,0,29
0,71,0,0
0,66,0,0
0,50,0,0
0,62,0,0
0,51,0,0
0,49,103,1
0,71,92,0
0,68,101,0
0,66,98,0
0,64,96,0
0,61,99,0
0,66,0,59
0,66,100,1
0,66,0,29
0,66,101,1
0,61,0,29
0,64,0,0
0,68,0,0
0,71,0,0
0,61,99,1
0,68,95,0
0,64,97,0
0,71,97,0
0,66,0,29
0,64,98,1
0,64,0,29
0,64,98,1
0,71,0,59
0,64,0,0
0,68,0,0
0,61,0,0
0,61,92,1
0,64,93,0
0,68,97,0
0,71,94,0
0,64,0,59
0,63,96,1
0,63,0,59
0,71,0,0
0,64,0,0
0,68,0,0
0,61,0,0
0,64,95,1
0,61,99,0
0,64,97,0
0,71,101,0
0,68,96,0
0,64,0,29
0,66,96,1
0,66,0,59
0,61,105,1
0,68,0,29
0,71,0,0
0,61,0,0
0,49,0,0
0,64,0,0
0,64,92,1
0,47,103,0
0,71,99,0
0,54,94,0
0,57,98,0
0,61,0,60
0,59,103,0
0,54,0,59
0,64,0,0
0,71,0,0
0,57,0,0
0,57,92,1
0,54,98,0
0,59,91,0
0,64,96,0
0,64,0,119
0,59,0,0
0,57,0,0
0,54,0,0
0,59,0,0
0,54,92,1
0,63,98,0
0,59,101,0
0,57,100,0
0,57,0,119
0,63,0,0
0,59,0,0
0,54,0,0
0,59,94,1
0,54,95,0
0,59,104,0
0,63,101,0
0,51,101,0
0,57,91,0
0,59,0,59
0,64,102,1
0,64,0,29
0,66,102,1
0,57,0,29
0,63,0,0
0,59,0,0
0,54,0,0
0,47,0,0
0,51,0,0
0,40,107,1
0,66,100,0
0,40,91,0
0,68,97,0
0,71,93,0
0,64,100,0
0,40,0,30
0,47,99,0
0,47,0,30
0,66,0,0
0,56,102,0
0,68,97,0
0,68,0,59
0,64,0,0
0,71,0,0
0,68,0,0
0,66,0,0
0,66,92,1
0,64,96,0
0,71,99,0
0,66,103,0
0,68,96,0
0,66,0,30
0,64,94,0
0,64,0,89
0,68,0,0
0,64,0,0
0,66,0,0
0,71,0,0
0,71,98,1
0,68,94,0
0,66,97,0
0,64,95,0
0,64,0,119
0,68,0,0
0,71,0,0
0,66,0,0
0,64,99,1
0,66,98,0
0,68,96,0
0,71,92,0
0,59,103,60
0,59,0,29
0,64,105,1
0,64,0,29
0,71,0,0
0,40,0,0
0,64,0,0
0,56,0,0
0,68,0,0
0,66,0,0
0,62,100,1
0,66,91,0
0,66,98,0
0,42,99,0
0,69,96,0
0,66,0,59
0,66,94,1
0,66,0,29
0,66,100,1
0,69,0,29
0,62,0,0
0,66,0,0
0,69,92,1
0,66,98,0
0,62,95,0
0,66,0,29
0,68,94,1
0,68,0,29
0,69,104,1
0,62,0,59
0,66,0,0
0,69,0,0
0,66,101,1
0,62,97,0
0,69,101,0
0,69,0,119
0,66,0,0
0,62,0,0
0,69,0,0
0,51,97,1
0,62,96,0
0,66,94,0
0,69,95,0
0,59,102,60
0,59,0,29
0,64,101,1
0,64,0,29
0,69,0,0
0,62,0,0
0,42,0,0
0,51,0,0
0,66,0,0
0,69,101,1
0,64,101,0
0,60,93,0
0,67,94,0
0,62,96,0
0,48,106,0
0,69,0,59
0,67,101,1
0,67,0,29
0,67,104,1
0,60,0,29
0,64,0,0
0,67,0,0
0,62,0,0
0,62,97,1
0,60,99,0
0,64,93,0
0,67,94,0
0,67,0,29
0,66,102,1
0,66,0,29
0,67,103,1
0,67,0,30
0,64,103,0
0,62,0,29
0,64,0,0
0,60,0,0
0,67,0,0
0,64,96,1
0,67,100,0
0,62,95,0
0,60,99,0
0,64,0,89
0,62,105,1
0,62,0,29
0,60,0,0
0,67,0,0
0,62,0,0
0,64,0,0
0,64,100,1
0,64,96,0
0,60,101,0
0,64,91,0
0,62,97,0
0,67,91,0
0,64,0,29
0,64,0,0
0,66,96,1
0,66,99,0
0,66,0,29
0,64,93,1
0,64,0,29
0,66,0,0
0,57,100,1
0,66,104,0
0,57,0,29
0,64,0,0
0,62,0,0
0,60,0,0
0,48,0,0
0,67,0,0
0,47,92,1
0,59,105,0
0,57,101,0
0,66,100,0
0,71,106,0
0,64,108,0
0,64,0,119
0,66,0,0
0,57,0,0
0,59,0,0
0,71,0,0
0,64,109,1
0,66,101,0
0,59,102,0
0,57,97,0
0,47,0,59
0,47,98,1
0,47,0,59
0,57,0,0
0,66,0,0
0,59,0,0
0,64,0,0
0,59,95,1
0,63,98,0
0,47,102,0
0,84,53,0
0,57,108,0
0,66,108,0
0,66,0,119
0,63,0,0
0,59,0,0
0,66,0,0
0,57,0,0
0,51,94,1
0,71,97,0
0,71,0,119
0,84,0,0
0,47,0,0
0,51,0,0
0,64,92,1
0,52,100,0
0,40,94,0
0,71,99,0
0,40,99,0
0,66,91,0
0,36,105,0
0,68,91,0
0,68,0,119
0,36,0,0
0,71,0,0
0,64,0,0
0,66,0,0
0,42,103,1
0,64,93,0
0,68,92,0
0,66,100,0
0,71,97,0
0,59,99,30
0,59,0,29
0,64,94,1
0,64,0,29
0,63,100,1
0,63,0,29
0,71,0,0
0,66,0,0
0,64,0,0
0,42,0,0
0,68,0,0
0,66,91,1
0,64,92,0
0,66,97,0
0,71,99,0
0,68,95,0
0,66,0,59
0,64,94,1
0,64,0,29
0,64,97,1
0,66,0,29
0,40,0,0
0,64,0,0
0,52,0,0
0,40,0,0
0,68,0,0
0,71,0,0
0,51,106,1
0,71,91,0
0,64,95,0
0,39,94,0
0,51,102,0
0,68,96,0
0,51,98,0
0,64,0,59
0,63,106,1
0,63,0,29
0,64,100,1
0,39,0,29
0,51,0,0
0,51,0,0
0,71,0,0
0,64,0,0
0,51,0,0
0,68,0,0
0,68,98,1
0,49,94,0
0,49,103,0
0,37,103,0
0,61,94,0
0,64,93,0
0,71,95,0
0,36,97,0
0,36,0,119
0,64,0,0
0,71,0,0
0,68,0,0
0,64,0,0
0,61,0,0
0,42,96,1
0,68,97,0
0,64,92,0
0,61,97,0
0,71,96,0
0,64,102,60
0,64,0,29
0,63,94,1
0,63,0,29
0,61,0,0
0,42,0,0
0,68,0,0
0,71,0,0
0,64,0,0
0,64,101,1
0,71,101,0
0,61,98,0
0,68,98,0
0,68,96,0
0,68,0,59
0,66,106,1
0,66,0,29
0,64,105,1
0,64,0,29
0,37,0,0
0,71,0,0
0,49,0,0
0,49,0,0
0,68,0,0
0,61,0,0
0,64,92,1
0,47,96,0
0,71,101,0
0,46,63,0
0,40,98,0
0,35,96,0
0,47,99,0
0,68,94,0
0,64,0,59
0,66,98,1
0,66,0,29
0,64,97,1
0,47,0,29
0,46,0,0
0,68,0,0
0,40,0,0
0,47,0,0
0,71,0,0
0,64,0,0
0,35,0,0
0,69,101,1
0,61,97,0
0,64,92,0
0,33,102,0
0,59,92,0
0,45,94,0
0,36,105,0
0,45,103,0
0,36,0,119
0,59,0,0
0,61,0,0
0,64,0,0
0,69,0,0
0,64,0,0
0,59,101,1
0,64,91,0
0,61,95,0
0,42,97,0
0,69,100,0
0,64,97,60
0,64,0,29
0,63,94,1
0,63,0,29
0,42,0,0
0,59,0,0
0,64,0,0
0,69,0,0
0,61,0,0
0,66,106,1
0,64,95,0
0,61,94,0
0,59,99,0
0,69,93,0
0,66,0,59
0,64,96,1
0,64,0,29
0,64,94,1
0,64,0,29
0,33,0,0
0,61,0,0
0,45,0,0
0,45,0,0
0,69,0,0
0,59,0,0
0,44,94,1
0,32,98,0
0,66,95,0
0,63,97,0
0,68,93,0
0,59,96,0
0,51,99,0
0,44,99,0
0,64,0,59
0,63,96,1
0,63,0,29
0,61,97,1
0,51,0,29
0,63,0,0
0,44,0,0
0,68,0,0
0,32,0,0
0,66,0,0
0,44,0,0
0,59,0,0
0,69,97,1
0,36,95,0
0,42,110,0
0,30,104,0
0,64,97,0
0,66,100,0
0,61,97,0
0,42,103,0
0,61,0,119
0,66,0,0
0,61,0,0
0,36,0,0
0,69,0,0
0,64,0,0
0,66,95,1
0,64,98,0
0,69,93,0
0,61,97,0
0,42,105,0
0,64,104,60
0,64,0,29
0,63,102,1
0,63,0,29
0,61,0,0
0,42,0,0
0,64,0,0
0,30,0,0
0,42,0,0
0,42,0,0
0,69,0,0
0,66,0,0
0,61,95,1
0,47,108,0
0,47,99,0
0,64,93,0
0,69,100,0
0,35,106,0
0,61,97,0
0,61,0,59
0,63,97,1
0,63,0,29
0,64,95,1
0,61,0,29
0,64,0,0
0,69,0,0
0,61,97,1
0,69,93,0
0,40,97,0
0,64,98,0
0,46,67,0
0,64,0,29
0,71,96,1
0,71,0,59
0,68,101,1
0,64,0,29
0,61,0,0
0,46,0,0
0,69,0,0
0,47,0,0
0,35,0,0
0,47,0,0
0,40,0,0
0,52,102,1
0,40,105,0
0,64,94,0
0,36,96,0
0,66,96,0
0,68,91,0
0,71,99,0
0,40,97,0
0,71,0,119
0,68,0,0
0,64,0,0
0,36,0,0
0,68,0,0
0,66,0,0
0,68,99,1
0,71,98,0
0,64,97,0
0,66,97,0
0,42,99,0
0,59,96,30
0,59,0,29
0,68,102,1
0,68,0,29
0,66,95,1
0,66,0,29
0,42,0,0
0,66,0,0
0,71,0,0
0,68,0,0
0,64,0,0
0,66,100,1
0,71,97,0
0,69,99,0
0,64,92,0
0,68,101,0
0,69,0,59
0,68,103,1
0,68,0,29
0,68,98,1
0,66,0,29
0,52,0,0
0,71,0,0
0,40,0,0
0,40,0,0
0,68,0,0
0,64,0,0
0,39,105,1
0,51,99,0
0,51,100,0
0,68,98,0
0,71,99,0
0,64,91,0
0,51,103,0
0,68,0,59
0,66,94,1
0,66,0,29
0,64,97,1
0,68,0,29
0,39,0,0
0,71,0,0
0,51,0,0
0,51,0,0
0,51,0,0
0,64,0,0
0,49,106,1
0,49,95,0
0,71,92,0
0,36,99,0
0,37,95,0
0,61,97,0
0,68,94,0
0,64,94,0
0,64,0,119
0,71,0,0
0,68,0,0
0,61,0,0
0,64,0,0
0,36,0,0
0,61,99,1
0,64,92,0
0,68,100,0
0,42,102,0
0,71,100,0
0,68,103,60
0,68,0,29
0,66,105,1
0,66,0,29
0,42,0,0
0,49,0,0
0,64,0,0
0,37,0,0
0,49,0,0
0,71,0,0
0,68,0,0
0,61,0,0
0,71,91,1
0,47,95,0
0,47,101,0
0,64,91,0
0,73,101,0
0,68,94,0
0,35,95,0
0,73,0,59
0,68,105,1
0,68,0,29
0,68,95,1
0,68,0,29
0,71,0,0
0,64,0,0
0,71,96,1
0,46,70,0
0,64,100,0
0,68,98,0
0,40,99,0
0,68,0,59
0,71,104,1
0,71,0,29
0,64,106,1
0,68,0,29
0,71,0,0
0,40,0,0
0,46,0,0
0,47,0,0
0,35,0,0
0,47,0,0
0,64,0,0
0,33,98,1
0,64,96,0
0,45,104,0
0,36,98,0
0,59,96,0
0,45,105,0
0,69,94,0
0,61,95,0
0,61,0,119
0,64,0,0
0,69,0,0
0,59,0,0
0,64,0,0
0,36,0,0
0,69,92,1
0,59,94,0
0,61,94,0
0,64,99,0
0,42,106,0
0,64,102,60
0,64,0,29
0,63,102,1
0,63,0,29
0,64,0,0
0,69,0,0
0,59,0,0
0,42,0,0
0,61,0,0
0,59,100,1
0,64,98,0
0,61,101,0
0,66,101,0
0,69,100,0
0,66,0,59
0,64,101,1
0,64,0,29
0,64,96,1
0,59,0,29
0,45,0,0
0,64,0,0
0,33,0,0
0,45,0,0
0,69,0,0
0,61,0,0
0,68,92,1
0,59,94,0
0,44,102,0
0,32,104,0
0,64,91,0
0,44,98,0
0,51,103,0
0,64,0,59
0,66,106,1
0,66,0,29
0,64,97,1
0,32,0,29
0,68,0,0
0,64,0,0
0,59,0,0
0,44,0,0
0,51,0,0
0,44,0,0
0,57,99,1
0,36,96,0
0,64,96,0
0,30,104,0
0,42,103,0
0,42,94,0
0,66,97,0
0,66,0,119
0,64,0,0
0,64,0,0
0,36,0,0
0,57,0,0
0,57,91,1
0,64,100,0
0,42,105,0
0,66,98,0
0,64,94,60
0,64,0,29
0,63,97,1
0,63,0,29
0,57,0,0
0,64,0,0
0,30,0,0
0,42,0,0
0,66,0,0
0,42,0,0
0,42,0,0
0,57,93,1
0,64,92,0
0,35,105,0
0,59,94,0
0,47,95,0
0,68,97,0
0,68,96,0
0,47,97,0
0,68,0,59
0,66,99,1
0,66,0,29
0,64,104,1
0,64,0,29
0,57,0,0
0,59,0,0
0,68,0,0
0,57,97,1
0,68,92,0
0,59,101,0
0,64,98,0
0,46,60,0
0,40,98,0
0,64,0,59
0,66,97,1
0,66,0,29
0,68,105,1
0,46,0,29
0,47,0,0
0,57,0,0
0,64,0,0
0,68,0,0
0,35,0,0
0,40,0,0
0,47,0,0
