track,note,velocity,time
0,89,96,120
0,41,80,0
0,67,74,0
0,69,71,0
0,69,82,0
0,53,73,0
0,72,74,0
0,67,94,0
0,60,64,0
0,65,70,0
0,77,76,0
0,60,58,0
0,65,83,0
0,69,0,32
0,67,0,60
0,65,0,0
0,60,0,0
0,96,93,1
0,69,65,0
0,72,93,0
0,89,0,14
0,69,0,45
0,72,0,0
0,96,0,54
0,70,108,7
0,94,82,0
0,67,0,58
0,70,0,1
0,69,99,1
0,93,83,0
0,94,0,8
0,65,0,2
0,60,0,5
0,69,0,44
0,91,102,1
0,57,83,0
0,67,81,0
0,93,0,9
0,91,0,44
0,67,0,6
0,53,0,0
0,57,0,0
0,41,0,0
0,65,83,1
0,89,108,0
0,53,70,0
0,53,0,59
0,69,0,0
0,72,0,0
0,77,0,0
0,65,0,0
0,74,89,1
0,58,88,0
0,70,72,0
0,79,81,0
0,62,80,0
0,55,88,0
0,91,117,0
0,67,64,0
0,55,70,0
0,58,66,0
0,43,76,0
0,62,82,0
0,65,82,0
0,89,0,6
0,55,0,106
0,58,0,10
0,62,0,0
0,58,87,31
0,58,0,18
0,55,0,41
0,67,0,0
0,58,0,0
0,43,0,0
0,62,0,0
0,65,0,0
0,57,85,1
0,58,60,0
0,57,0,14
0,58,0,1
0,57,83,45
0,58,64,0
0,55,82,0
0,55,0,14
0,58,0,0
0,57,0,1
0,53,89,45
0,58,73,0
0,58,0,17
0,53,0,0
0,91,0,18
0,79,0,24
0,74,0,0
0,70,0,0
0,60,71,1
0,41,86,0
0,67,84,0
0,77,68,0
0,53,80,0
0,67,84,0
0,65,90,0
0,65,86,0
0,72,72,0
0,69,64,0
0,89,96,0
0,60,84,0
0,65,0,50
0,67,0,0
0,60,0,0
0,96,93,1
0,72,101,0
0,89,0,14
0,72,0,45
0,96,0,54
0,70,101,7
0,94,82,0
0,67,0,58
0,70,0,1
0,93,83,1
0,69,97,0
0,94,0,8
0,65,0,2
0,60,0,5
0,69,0,44
0,67,88,1
0,57,83,0
0,91,102,0
0,93,0,9
0,91,0,44
0,53,0,6
0,41,0,0
0,57,0,0
0,67,0,0
0,65,79,1
0,53,70,0
0,89,108,0
0,53,0,59
0,65,0,0
0,77,0,0
0,69,0,0
0,72,0,0
0,79,68,1
0,58,83,0
0,53,59,0
0,65,58,0
0,70,47,0
0,74,70,0
0,55,76,0
0,62,84,0
0,43,83,0
0,91,117,0
0,58,83,0
0,67,90,0
0,62,85,0
0,89,0,6
0,65,0,78
0,74,0,60
0,70,0,0
0,79,0,0
0,62,0,0
0,58,0,0
0,67,0,0
0,79,62,1
0,70,67,0
0,84,59,0
0,74,55,0
0,58,0,57
0,53,0,13
0,43,0,49
0,55,0,0
0,58,103,1
0,62,0,7
0,91,0,88
0,70,0,24
0,74,0,0
0,84,0,0
0,58,0,0
0,79,0,0
0,41,76,1
0,53,83,0
0,67,79,0
0,67,80,0
0,60,81,0
0,65,91,0
0,60,84,0
0,53,62,0
0,89,96,0
0,65,68,0
0,69,94,0
0,65,90,0
0,72,79,0
0,76,80,0
0,88,88,0
0,41,66,0
0,67,94,0
0,60,0,13
0,67,0,60
0,65,0,0
0,96,93,1
0,72,101,0
0,89,0,14
0,72,0,45
0,96,0,54
0,70,105,7
0,94,82,0
0,67,0,58
0,69,0,0
0,70,0,1
0,93,83,1
0,69,97,0
0,94,0,8
0,65,0,2
0,60,0,5
0,69,0,44
0,91,102,1
0,57,83,0
0,67,84,0
0,93,0,9
0,91,0,44
0,41,0,6
0,53,0,0
0,67,0,0
0,57,0,0
0,65,82,1
0,53,70,0
0,89,108,0
0,53,0,59
0,65,0,0
0,76,0,0
0,41,0,0
0,53,0,0
0,65,0,0
0,67,0,0
0,72,0,0
0,88,0,0
0,74,83,1
0,67,67,0
0,62,94,0
0,91,117,0
0,77,84,0
0,58,93,0
0,55,57,0
0,43,70,0
0,89,99,0
0,67,90,0
0,43,68,0
0,58,76,0
0,70,79,0
0,55,65,0
0,53,79,0
0,62,90,0
0,65,14,0
0,89,0,6
0,65,0,103
0,62,0,0
0,67,0,0
0,58,0,0
0,89,0,60
0,77,0,0
0,81,77,1
0,93,102,0
0,58,0,57
0,43,0,2
0,53,0,11
0,55,0,49
0,58,99,1
0,62,0,7
0,91,0,88
0,43,0,24
0,70,0,0
0,55,0,0
0,93,0,0
0,58,0,0
0,74,0,0
0,81,0,0
0,67,0,0
0,96,108,1
0,72,86,0
0,79,78,0
0,41,70,0
0,89,96,0
0,69,76,0
0,60,65,0
0,65,88,0
0,67,85,0
0,65,90,0
0,60,84,0
0,84,93,0
0,53,77,0
0,53,74,0
0,77,72,0
0,41,77,0
0,67,94,0
0,96,101,0
0,89,108,1
0,96,117,19
0,67,0,77
0,65,0,0
0,60,0,0
0,72,97,1
0,96,93,0
0,89,0,14
0,72,0,45
0,72,45,1
0,96,0,53
0,72,0,6
0,70,110,1
0,94,82,0
0,67,0,58
0,70,0,1
0,69,108,1
0,93,83,0
0,94,0,8
0,65,0,2
0,60,0,5
0,69,0,44
0,57,83,1
0,91,102,0
0,67,97,0
0,93,0,9
0,91,0,44
0,67,0,6
0,41,0,0
0,53,0,0
0,89,108,1
0,65,79,0
0,65,0,59
0,57,0,0
0,77,0,0
0,96,0,0
0,79,0,0
0,41,0,0
0,69,0,0
0,72,0,0
0,53,0,0
0,55,78,1
0,62,80,0
0,67,73,0
0,77,89,0
0,43,72,0
0,70,67,0
0,62,84,0
0,82,79,0
0,43,68,0
0,58,73,0
0,65,101,0
0,89,108,0
0,58,83,0
0,55,72,0
0,53,59,0
0,91,117,0
0,89,0,6
0,43,0,59
0,55,0,0
0,65,0,60
0,67,0,0
0,58,0,0
0,62,0,0
0,58,0,58
0,89,0,10
0,53,0,3
0,62,0,57
0,48,85,47
0,50,79,4
0,48,0,1
0,52,90,3
0,50,0,2
0,53,93,2
0,52,0,2
0,55,94,2
0,53,0,1
0,55,0,3
0,57,96,0
0,59,80,3
0,57,0,1
0,59,0,3
0,60,72,1
0,60,0,2
0,62,96,0
0,62,0,4
0,64,76,0
0,64,0,3
0,65,89,0
0,65,0,4
0,91,0,0
0,67,72,0
0,69,94,2
0,67,0,2
0,71,73,2
0,69,0,2
0,72,85,1
0,71,0,1
0,96,0,0
0,74,86,1
0,72,0,2
0,76,72,2
0,74,0,2
0,76,0,2
0,79,50,4
0,81,71,0
0,96,0,1
0,43,0,0
0,70,0,0
0,82,0,0
0,89,0,0
0,84,0,0
0,55,0,0
0,77,0,0
0,79,0,1
0,42,97,0
0,29,120,0
0,65,96,0
0,53,97,0
0,89,96,0
0,35,120,0
0,81,0,3
0,35,0,3
0,42,0,3
0,42,88,0
0,42,0,3
0,60,99,0
0,72,93,0
0,69,91,0
0,38,120,0
0,42,87,0
0,64,101,0
0,96,93,0
0,89,0,2
0,38,0,2
0,42,0,2
0,42,90,1
0,29,0,2
0,35,104,1
0,29,104,0
0,69,0,2
0,60,0,3
0,64,0,1
0,96,0,3
0,72,0,0
0,29,0,2
0,35,0,0
0,42,0,0
0,35,96,1
0,29,110,0
0,70,82,0
0,60,91,0
0,42,92,0
0,94,82,0
0,65,108,0
0,60,0,2
0,65,0,2
0,35,0,0
0,29,0,0
0,42,0,2
0,69,83,1
0,29,120,0
0,35,97,0
0,93,83,0
0,42,92,0
0,67,108,0
0,60,80,0
0,70,0,3
0,94,0,0
0,60,0,1
0,67,0,1
0,35,0,1
0,42,0,1
0,38,117,1
0,69,106,0
0,65,115,0
0,42,101,0
0,91,102,0
0,67,102,0
0,60,110,0
0,93,0,4
0,69,0,0
0,38,0,1
0,67,0,2
0,91,0,0
0,42,0,1
0,29,0,0
0,42,103,1
0,65,108,0
0,89,108,0
0,69,0,2
0,60,0,1
0,65,0,3
0,53,0,4
0,65,0,0
0,42,0,0
0,58,97,1
0,58,95,0
0,31,112,0
0,35,120,0
0,42,97,0
0,65,85,0
0,62,102,0
0,67,90,0
0,62,89,0
0,67,110,0
0,67,117,0
0,91,117,0
0,65,0,6
0,89,0,0
0,35,0,23
0,58,0,14
0,62,0,1
0,67,0,8
0,65,0,7
0,62,0,0
0,58,0,0
0,67,0,0
0,42,0,0
0,42,88,1
0,62,89,0
0,58,97,0
0,65,96,0
0,42,0,59
0,42,87,0
0,38,120,0
0,38,0,29
0,42,0,30
0,65,0,0
0,62,0,0
0,58,0,0
0,42,90,1
0,58,87,0
0,62,89,0
0,31,0,29
0,31,94,1
0,35,104,0
0,35,0,29
0,58,0,0
0,62,0,0
0,42,0,0
0,31,0,0
0,58,70,1
0,55,77,0
0,60,84,0
0,35,96,0
0,42,92,0
0,31,102,0
0,31,0,29
0,35,0,0
0,60,0,30
0,55,0,0
0,58,0,0
0,42,0,0
0,35,97,1
0,60,70,0
0,62,86,0
0,42,92,0
0,58,79,0
0,31,117,0
0,35,0,29
0,62,0,30
0,42,0,0
0,60,0,0
0,58,0,0
0,62,74,1
0,38,117,0
0,65,65,0
0,57,62,0
0,60,56,0
0,42,101,0
0,38,0,29
0,62,0,30
0,42,0,0
0,65,0,0
0,60,0,0
0,31,0,0
0,57,0,0
0,62,72,1
0,70,86,0
0,58,72,0
0,65,80,0
0,42,103,0
0,67,0,35
0,91,0,0
0,62,0,24
0,58,0,0
0,70,0,0
0,42,0,0
0,65,0,0
0,64,70,1
0,29,120,0
0,65,66,0
0,69,79,0
0,42,97,0
0,62,101,0
0,35,120,0
0,89,96,0
0,62,0,12
0,64,0,0
0,35,0,17
0,42,0,30
0,42,88,1
0,42,0,59
0,42,87,1
0,72,93,0
0,96,93,0
0,38,120,0
0,89,0,14
0,38,0,15
0,42,0,30
0,42,90,1
0,29,0,29
0,35,104,1
0,29,104,0
0,72,0,23
0,96,0,0
0,35,0,6
0,42,0,0
0,29,0,0
0,42,92,1
0,70,82,0
0,94,82,0
0,29,110,0
0,35,96,0
0,35,0,29
0,29,0,0
0,42,0,30
0,29,120,1
0,93,83,0
0,69,83,0
0,35,97,0
0,42,92,0
0,70,0,8
0,94,0,0
0,65,0,12
0,35,0,9
0,69,0,3
0,42,0,27
0,42,101,1
0,67,102,0
0,38,117,0
0,91,102,0
0,69,0,9
0,93,0,0
0,38,0,20
0,67,0,24
0,91,0,0
0,29,0,6
0,42,0,0
0,62,93,1
0,42,103,0
0,67,97,0
0,89,108,0
0,65,96,0
0,60,94,0
0,58,101,0
0,65,108,0
0,60,0,16
0,42,0,43
0,35,120,1
0,31,112,0
0,91,117,0
0,42,97,0
0,67,117,0
0,65,0,6
0,89,0,0
0,65,0,18
0,62,0,0
0,67,0,3
0,35,0,2
0,58,0,9
0,42,0,21
0,64,76,1
0,58,82,0
0,65,99,0
0,53,96,0
0,62,99,0
0,60,88,0
0,42,88,0
0,64,0,1
0,60,0,11
0,42,0,47
0,38,120,1
0,42,87,0
0,38,0,29
0,42,0,30
0,42,90,1
0,58,75,0
0,67,94,0
0,62,89,0
0,31,0,29
0,35,104,1
0,31,94,0
0,31,0,29
0,42,0,0
0,35,0,0
0,31,102,1
0,42,92,0
0,35,96,0
0,67,0,19
0,58,0,1
0,62,0,2
0,31,0,7
0,35,0,0
0,42,0,30
0,62,91,1
0,64,82,0
0,42,92,0
0,58,82,0
0,65,77,0
0,31,117,0
0,35,97,0
0,64,0,9
0,35,0,20
0,42,0,30
0,38,117,1
0,42,101,0
0,38,0,29
0,31,0,30
0,42,0,0
0,42,103,1
0,58,0,16
0,62,0,6
0,53,0,1
0,65,0,2
0,91,0,10
0,67,0,0
0,42,0,24
0,89,96,1
0,42,97,0
0,29,120,0
0,35,120,0
0,65,0,18
0,62,0,3
0,58,0,4
0,35,0,4
0,42,0,30
0,42,88,1
0,42,0,59
0,38,120,1
0,42,87,0
0,64,101,0
0,60,99,0
0,69,91,0
0,96,93,0
0,72,93,0
0,89,0,14
0,38,0,15
0,42,0,30
0,42,90,1
0,29,0,29
0,29,104,1
0,35,104,0
0,69,0,6
0,60,0,5
0,64,0,1
0,96,0,11
0,72,0,0
0,29,0,6
0,35,0,0
0,42,0,0
0,65,108,1
0,29,110,0
0,60,91,0
0,42,92,0
0,94,82,0
0,35,96,0
0,70,82,0
0,60,0,26
0,65,0,3
0,29,0,0
0,35,0,0
0,42,0,30
0,60,80,1
0,29,120,0
0,93,83,0
0,35,97,0
0,42,92,0
0,69,83,0
0,67,108,0
0,94,0,8
0,70,0,0
0,60,0,2
0,67,0,7
0,35,0,12
0,42,0,30
0,69,106,1
0,91,102,0
0,42,101,0
0,60,110,0
0,65,115,0
0,38,117,0
0,67,102,0
0,69,0,9
0,93,0,0
0,38,0,20
0,91,0,24
0,67,0,0
0,29,0,6
0,42,0,0
0,65,108,1
0,42,103,0
0,89,108,0
0,69,0,8
0,60,0,2
0,65,0,10
0,42,0,39
0,62,102,1
0,67,110,0
0,67,90,0
0,67,117,0
0,65,85,0
0,31,112,0
0,35,120,0
0,42,97,0
0,58,97,0
0,58,95,0
0,91,117,0
0,62,89,0
0,89,0,6
0,65,0,0
0,35,0,23
0,58,0,14
0,62,0,1
0,67,0,8
0,62,0,7
0,67,0,0
0,58,0,0
0,42,0,0
0,65,0,0
0,62,89,1
0,65,96,0
0,58,97,0
0,42,88,0
0,42,0,59
0,42,87,1
0,38,120,0
0,38,0,29
0,42,0,30
0,58,0,0
0,62,0,0
0,65,0,0
0,42,90,1
0,58,87,0
0,62,89,0
0,31,0,29
0,31,94,1
0,35,104,0
0,35,0,29
0,58,0,0
0,62,0,0
0,42,0,0
0,31,0,0
0,58,70,1
0,55,77,0
0,60,84,0
0,42,92,0
0,31,102,0
0,35,96,0
0,35,0,29
0,31,0,0
0,60,0,30
0,55,0,0
0,58,0,0
0,42,0,0
0,42,92,1
0,62,86,0
0,31,117,0
0,60,70,0
0,35,97,0
0,58,79,0
0,35,0,29
0,58,0,30
0,62,0,0
0,42,0,0
0,60,0,0
0,60,56,1
0,65,65,0
0,42,101,0
0,57,62,0
0,38,117,0
0,62,74,0
0,38,0,29
0,60,0,30
0,62,0,0
0,65,0,0
0,57,0,0
0,31,0,0
0,42,0,0
0,42,103,1
0,62,72,0
0,65,80,0
0,58,72,0
0,70,86,0
0,91,0,35
0,67,0,0
0,42,0,24
0,65,0,0
0,62,0,0
0,70,0,0
0,58,0,0
0,64,70,1
0,35,120,0
0,89,96,0
0,29,120,0
0,69,79,0
0,62,101,0
0,42,97,0
0,65,66,0
0,62,0,12
0,64,0,0
0,35,0,17
0,42,0,30
0,42,88,1
0,42,0,59
0,96,93,1
0,42,87,0
0,38,120,0
0,72,93,0
0,89,0,14
0,38,0,15
0,42,0,30
0,42,90,1
0,29,0,29
0,29,104,1
0,35,104,0
0,72,0,23
0,96,0,0
0,42,0,6
0,29,0,0
0,35,0,0
0,35,96,1
0,70,82,0
0,29,110,0
0,42,92,0
0,94,82,0
0,29,0,29
0,35,0,0
0,42,0,30
0,35,97,1
0,42,92,0
0,29,120,0
0,69,83,0
0,93,83,0
0,70,0,8
0,94,0,0
0,65,0,12
0,35,0,9
0,69,0,3
0,42,0,27
0,38,117,1
0,91,102,0
0,42,101,0
0,67,102,0
0,69,0,9
0,93,0,0
0,38,0,20
0,91,0,24
0,67,0,0
0,29,0,6
0,42,0,0
0,89,108,1
0,65,96,0
0,67,97,0
0,42,103,0
0,60,94,0
0,62,93,0
0,58,101,0
0,65,108,0
0,60,0,16
0,42,0,43
0,67,117,1
0,91,117,0
0,42,97,0
0,31,112,0
0,35,85,0
0,65,0,6
0,89,0,0
0,35,0,17
0,65,0,1
0,62,0,0
0,67,0,3
0,42,0,1
0,58,0,10
0,65,99,22
0,64,76,0
0,42,84,0
0,60,88,0
0,62,99,0
0,53,96,0
0,58,82,0
0,64,0,1
0,60,0,11
0,42,0,12
0,38,104,36
0,42,108,0
0,38,0,26
0,42,0,5
0,74,85,29
0,35,68,0
0,42,88,0
0,67,99,2
0,35,0,9
0,42,0,5
0,31,0,13
