track,note,velocity,time
0,97,90,480
0,82,107,0
0,42,56,0
0,82,0,8
0,42,0,5
0,89,65,17
0,82,55,0
0,97,0,8
0,82,0,2
0,92,91,20
0,82,94,0
0,89,0,1
0,82,0,14
0,92,0,15
0,94,98,0
0,92,88,30
0,94,0,5
0,94,88,25
0,42,44,0
0,92,0,4
0,42,0,6
0,94,0,10
0,97,70,10
0,82,82,0
0,82,0,10
0,89,75,20
0,42,59,0
0,82,85,0
0,97,0,3
0,82,0,7
0,42,0,0
0,89,0,20
0,92,98,0
0,82,72,0
0,82,0,5
0,92,0,24
0,94,78,1
0,82,76,0
0,82,0,8
0,92,98,22
0,82,97,0
0,94,0,4
0,82,0,9
0,94,88,17
0,48,87,0
0,42,74,0
0,92,0,6
0,42,0,2
0,48,0,2
0,94,0,5
0,97,74,15
0,42,63,0
0,42,0,8
0,97,0,22
0,89,72,0
0,42,52,0
0,42,0,8
0,89,0,22
0,94,94,0
0,42,61,0
0,42,0,10
0,92,117,20
0,48,97,0
0,46,86,0
0,94,0,6
0,48,0,4
0,46,0,3
0,92,0,2
0,97,101,15
0,82,109,0
0,42,56,0
0,82,0,8
0,42,0,5
0,97,0,17
0,89,85,0
0,82,61,0
0,82,0,8
0,89,0,21
0,92,102,1
0,82,92,0
0,82,0,13
0,94,86,17
0,92,0,1
0,92,106,29
0,94,0,5
0,94,94,25
0,42,44,0
0,92,0,3
0,42,0,7
0,94,0,5
0,97,91,15
0,82,86,0
0,82,0,10
0,97,0,11
0,89,93,9
0,42,59,0
0,82,75,0
0,82,0,10
0,42,0,0
0,61,67,17
0,58,66,1
0,65,74,1
0,89,0,1
0,92,106,0
0,82,45,0
0,82,0,10
0,92,0,19
0,94,93,1
0,82,48,0
0,82,0,10
0,92,86,20
0,82,84,0
0,94,0,3
0,82,0,10
0,94,94,17
0,48,96,0
0,42,74,0
0,92,0,3
0,42,0,5
0,48,0,2
0,94,0,8
0,97,92,12
0,42,63,0
0,42,0,8
0,97,0,10
0,89,94,12
0,42,52,0
0,42,0,8
0,89,0,20
0,94,93,2
0,42,61,0
0,45,93,0
0,42,0,10
0,45,0,3
0,92,122,17
0,46,86,0
0,94,0,6
0,92,0,4
0,46,0,3
0,70,112,15
0,82,92,2
0,42,56,0
0,41,106,0
0,46,65,3
0,70,92,4
0,82,0,1
0,42,0,5
0,82,61,17
0,82,0,10
0,82,75,20
0,41,0,5
0,82,0,8
0,85,114,47
0,85,0,10
0,42,44,20
0,42,0,10
0,97,56,17
0,82,62,3
0,82,0,13
0,97,0,2
0,41,94,15
0,42,59,0
0,82,75,0
0,82,0,10
0,42,0,0
0,41,0,3
0,41,107,17
0,82,55,0
0,89,78,2
0,82,0,8
0,41,0,3
0,89,0,12
0,92,71,5
0,82,63,0
0,82,0,8
0,92,0,11
0,94,84,9
0,82,94,2
0,82,0,10
0,94,0,1
0,48,96,19
0,42,74,0
0,42,0,8
0,48,0,2
0,42,63,20
0,54,119,0
0,42,0,8
0,61,0,2
0,54,0,3
0,46,0,15
0,58,0,0
0,42,52,2
0,42,0,8
0,42,61,22
0,45,93,0
0,46,39,1
0,42,0,9
0,70,0,1
0,45,0,2
0,65,0,7
0,46,86,10
0,46,0,13
0,60,98,2
0,65,95,0
0,56,81,2
0,70,0,7
0,68,92,0
0,70,71,3
0,82,107,3
0,42,56,0
0,41,106,0
0,46,0,5
0,44,41,1
0,82,0,2
0,42,0,5
0,82,55,17
0,70,0,8
0,68,70,0
0,82,0,2
0,68,0,17
0,65,67,1
0,70,77,2
0,73,65,0
0,82,94,0
0,41,0,5
0,73,0,3
0,70,0,1
0,82,0,6
0,63,68,12
0,65,0,5
0,97,77,19
0,85,114,9
0,97,0,4
0,85,0,6
0,63,0,6
0,61,58,1
0,73,65,13
0,70,32,0
0,42,44,0
0,70,0,4
0,73,0,5
0,42,0,1
0,89,85,20
0,82,82,0
0,82,0,10
0,89,0,10
0,41,94,10
0,42,59,0
0,82,85,0
0,92,17,5
0,61,0,2
0,82,0,3
0,42,0,0
0,92,0,1
0,41,0,2
0,41,107,17
0,82,72,0
0,94,86,2
0,82,0,3
0,41,0,8
0,94,0,3
0,61,57,12
0,82,76,2
0,82,0,8
0,70,71,22
0,77,72,0
0,82,97,0
0,61,0,2
0,77,0,3
0,60,62,0
0,82,0,8
0,70,0,2
0,48,87,15
0,42,74,0
0,42,0,8
0,48,0,2
0,70,63,20
0,75,65,0
0,42,63,0
0,54,109,0
0,42,0,8
0,54,0,5
0,70,0,2
0,75,0,0
0,44,0,5
0,70,83,10
0,77,103,0
0,42,52,0
0,42,0,8
0,77,0,1
0,70,0,0
0,42,61,21
0,44,35,8
0,42,0,2
0,65,0,0
0,60,0,3
0,56,0,3
0,48,97,14
0,46,86,0
0,48,0,10
0,46,0,3
0,68,0,17
0,54,85,0
0,82,109,0
0,42,56,0
0,41,106,0
0,66,89,1
0,61,79,1
0,58,93,2
0,78,95,1
0,82,0,3
0,42,26,1
0,44,0,2
0,42,0,2
0,78,0,11
0,82,61,6
0,82,0,8
0,60,0,5
0,70,75,17
0,73,79,0
0,82,92,0
0,78,83,0
0,41,0,5
0,73,0,3
0,70,0,1
0,82,0,4
0,80,75,19
0,78,0,1
0,85,94,27
0,85,0,13
0,73,79,17
0,70,71,0
0,42,44,0
0,80,0,1
0,78,69,1
0,70,0,4
0,73,0,2
0,42,0,2
0,97,84,11
0,82,86,9
0,78,0,3
0,80,79,2
0,97,0,1
0,82,0,4
0,41,94,20
0,42,59,0
0,82,75,0
0,78,98,8
0,82,0,2
0,42,0,0
0,80,0,1
0,41,0,2
0,89,70,15
0,73,81,2
0,70,73,0
0,41,107,0
0,82,45,0
0,70,0,8
0,82,0,2
0,73,0,1
0,41,0,2
0,89,0,4
0,92,62,13
0,82,48,0
0,82,0,10
0,92,0,6
0,82,84,14
0,94,47,1
0,82,0,12
0,94,0,3
0,48,96,14
0,42,74,0
0,42,0,8
0,48,0,2
0,42,63,20
0,54,102,0
0,42,0,8
0,54,0,2
0,42,0,7
0,54,0,7
0,42,52,6
0,78,0,1
0,42,0,7
0,58,0,16
0,42,44,0
0,70,76,6
0,77,89,0
0,42,61,0
0,45,93,0
0,58,53,4
0,77,0,5
0,42,0,1
0,61,0,3
0,45,0,0
0,70,0,1
0,70,67,16
0,73,87,0
0,46,86,0
0,70,0,9
0,73,0,4
0,46,0,0
0,65,93,10
0,68,85,1
0,56,27,0
0,60,98,1
0,66,0,1
0,42,0,3
0,58,0,1
0,44,58,0
0,70,69,0
0,75,85,0
0,73,48,0
0,82,92,0
0,42,56,0
0,41,106,0
0,73,0,4
0,56,63,1
0,82,0,3
0,70,0,0
0,75,0,3
0,42,0,2
0,77,95,17
0,70,60,0
0,82,61,0
0,70,0,6
0,82,0,4
0,77,0,0
0,73,112,20
0,70,79,0
0,82,75,0
0,41,0,5
0,70,0,1
0,73,0,5
0,82,0,2
0,85,106,47
0,85,0,8
0,42,44,22
0,42,0,10
0,77,95,16
0,82,62,4
0,82,0,13
0,41,94,17
0,42,59,0
0,82,75,0
0,82,0,10
0,42,0,0
0,41,0,3
0,56,0,6
0,77,0,10
0,41,107,1
0,82,55,0
0,75,94,2
0,82,0,8
0,41,0,3
0,82,63,17
0,48,90,2
0,82,0,6
0,48,0,4
0,82,94,18
0,82,0,10
0,42,74,20
0,42,0,8
0,42,63,22
0,54,98,0
0,42,0,8
0,54,0,2
0,75,0,10
0,42,52,10
0,48,98,0
0,42,0,8
0,48,0,5
0,42,61,17
0,45,87,2
0,42,0,8
0,44,0,3
0,45,0,14
0,41,95,0
0,46,86,3
0,46,0,13
0,68,0,0
0,41,0,2
0,60,0,4
0,65,0,3
0,56,0,5
0,58,75,3
0,77,82,0
0,73,76,0
0,70,73,0
0,82,109,0
0,42,56,0
0,41,106,0
0,46,29,1
0,70,59,0
0,82,0,3
0,42,0,3
0,82,47,17
0,82,0,13
0,58,101,14
0,82,59,3
0,41,0,5
0,82,0,8
0,58,0,42
0,60,77,4
0,85,97,1
0,85,0,10
0,61,93,19
0,42,44,1
0,60,0,4
0,42,0,6
0,82,89,20
0,82,0,15
0,41,94,15
0,42,59,0
0,82,53,0
0,61,0,2
0,65,95,2
0,82,0,6
0,42,0,0
0,41,0,3
0,41,107,17
0,82,51,0
0,82,0,10
0,41,0,3
0,82,55,17
0,48,100,0
0,48,0,8
0,82,0,2
0,61,91,19
0,82,78,1
0,58,0,1
0,65,0,1
0,82,0,6
0,77,0,12
0,70,0,1
0,73,0,2
0,46,0,6
0,42,74,1
0,42,0,8
0,61,0,9
0,46,25,1
0,60,95,1
0,42,63,1
0,54,97,0
0,42,0,8
0,54,0,5
0,42,52,17
0,48,92,0
0,42,0,8
0,48,0,2
0,61,99,19
0,42,61,1
0,45,90,0
0,60,0,4
0,42,0,6
0,45,0,3
0,46,86,17
0,41,96,0
0,46,0,13
0,41,0,2
0,70,0,5
0,46,0,4
0,68,57,1
0,61,0,4
0,44,29,1
0,68,98,0
0,77,100,0
0,56,97,0
0,72,111,0
0,82,107,0
0,42,56,0
0,41,106,0
0,82,0,8
0,42,0,3
0,82,55,17
0,82,0,10
0,60,101,19
0,82,94,1
0,41,0,5
0,82,0,10
0,60,0,42
0,85,102,3
0,60,77,2
0,85,0,6
0,42,44,22
0,61,93,2
0,60,0,5
0,42,0,3
0,82,82,20
0,82,0,10
0,41,94,20
0,42,59,0
0,82,85,0
0,61,0,5
0,65,95,2
0,82,0,3
0,42,0,0
0,41,0,3
0,41,107,17
0,82,72,0
0,82,0,5
0,41,0,8
0,48,95,17
0,82,76,0
0,82,0,8
0,48,0,0
0,82,97,22
0,82,0,13
0,44,0,12
0,42,74,5
0,42,0,8
0,42,63,22
0,54,107,0
0,44,25,3
0,42,0,5
0,54,0,5
0,42,52,17
0,48,89,0
0,65,0,1
0,42,0,7
0,56,0,0
0,48,0,7
0,72,0,4
0,68,0,7
0,45,88,4
0,42,61,0
0,77,0,3
0,45,0,7
0,42,0,0
0,48,100,20
0,46,86,0
0,48,0,8
0,68,0,3
0,46,0,2
0,66,52,13
0,44,0,2
0,42,32,2
0,73,90,0
0,70,82,0
0,77,98,0
0,54,101,0
0,82,109,0
0,42,56,0
0,41,106,0
0,82,0,1
0,42,0,5
0,82,61,17
0,82,0,8
0,58,106,21
0,82,92,1
0,41,0,5
0,82,0,8
0,58,0,39
0,60,86,5
0,85,104,3
0,85,0,13
0,61,106,16
0,60,0,1
0,42,44,0
0,42,0,10
0,82,86,20
0,82,0,10
0,61,0,12
0,65,73,5
0,41,94,3
0,42,59,0
0,82,75,0
0,82,0,10
0,42,0,0
0,41,0,3
0,41,107,17
0,82,45,0
0,82,0,10
0,41,0,3
0,82,48,17
0,82,0,10
0,65,0,5
0,61,80,12
0,82,84,3
0,42,0,9
0,82,0,4
0,61,0,8
0,60,80,6
0,48,96,3
0,42,74,0
0,42,0,8
0,48,0,2
0,42,63,20
0,54,102,0
0,77,0,1
0,42,25,3
0,42,0,4
0,54,0,2
0,73,0,11
0,70,0,4
0,42,52,5
0,54,0,4
0,42,0,4
0,60,0,2
0,61,89,12
0,42,61,8
0,45,93,0
0,42,0,10
0,45,0,3
0,46,86,0
0,46,0,13
0,42,0,11
0,61,0,1
0,60,83,4
0,70,84,1
0,65,89,0
0,72,100,0
0,53,94,0
0,82,92,0
0,42,56,0
0,41,106,0
0,66,0,1
0,65,60,2
0,41,27,1
0,82,0,4
0,42,0,5
0,82,61,17
0,82,0,10
0,60,0,7
0,57,87,12
0,82,75,1
0,41,0,5
0,82,0,8
0,58,94,46
0,85,106,1
0,57,0,2
0,85,0,8
0,42,44,20
0,42,0,10
0,58,0,9
0,60,95,8
0,82,62,3
0,82,0,13
0,41,94,17
0,42,59,0
0,82,75,0
0,82,0,5
0,42,0,0
0,41,0,3
0,70,0,2
0,65,0,5
0,72,0,1
0,65,82,9
0,72,91,0
0,69,84,0
0,41,107,0
0,82,55,0
0,82,0,2
0,41,0,3
0,82,63,17
0,82,0,8
0,82,94,22
0,82,0,10
0,41,0,9
0,48,96,11
0,42,74,0
0,42,0,8
0,48,0,2
0,42,63,20
0,54,109,0
0,42,0,8
0,41,29,0
0,54,0,12
0,60,0,7
0,42,52,3
0,42,0,8
0,53,80,21
0,42,61,1
0,45,93,0
0,65,0,4
0,69,0,5
0,42,0,1
0,72,0,0
0,45,0,3
0,53,0,7
0,53,0,3
0,54,80,6
0,46,86,1
0,46,0,13
0,65,0,14
0,66,84,1
0,70,90,0
0,73,87,0
0,54,85,0
0,66,37,0
0,82,109,0
0,42,56,0
0,41,106,0
0,41,0,2
0,42,29,1
0,82,0,7
0,42,0,3
0,82,47,15
0,82,0,13
0,54,0,4
0,54,80,12
0,82,59,1
0,41,0,5
0,82,0,8
0,54,0,34
0,58,80,12
0,85,109,1
0,85,0,13
0,42,44,17
0,42,0,10
0,58,0,7
0,61,80,12
0,82,89,1
0,82,0,15
0,61,0,8
0,63,80,6
0,41,94,1
0,42,59,0
0,82,53,0
0,82,0,10
0,42,0,0
0,41,0,3
0,41,107,17
0,82,51,0
0,82,0,10
0,41,0,3
0,82,55,17
0,48,95,0
0,48,0,8
0,82,0,2
0,63,0,7
0,61,80,12
0,82,78,1
0,82,0,8
0,42,0,3
0,61,0,12
0,60,80,6
0,42,74,1
0,42,0,8
0,42,63,22
0,54,112,0
0,42,27,1
0,42,0,7
0,54,0,2
0,73,0,20
0,42,52,0
0,48,89,0
0,42,0,8
0,66,0,0
0,70,0,1
0,54,0,5
0,48,0,1
0,60,0,2
0,61,80,12
0,45,88,1
0,42,61,0
0,42,0,10
0,45,0,0
0,48,100,0
0,46,86,0
0,61,0,4
0,48,0,4
0,46,0,5
0,42,0,6
0,66,0,9
0,43,25,0
0,67,27,0
0,70,82,2
0,67,92,0
0,55,79,0
0,75,83,0
0,82,107,0
0,42,56,0
0,41,106,0
0,82,0,2
0,42,0,5
0,82,55,17
0,82,0,10
0,58,80,19
0,82,94,1
0,41,0,5
0,82,0,10
0,58,0,32
0,58,80,12
0,85,101,1
0,85,0,10
0,42,44,20
0,42,0,10
0,58,0,7
0,61,80,12
0,82,82,1
0,82,0,10
0,41,94,20
0,42,59,0
0,82,85,0
0,82,0,10
0,42,0,0
0,41,0,3
0,61,0,4
0,65,80,12
0,41,107,1
0,82,72,0
0,82,0,5
0,41,0,8
0,48,95,17
0,82,76,0
0,82,0,8
0,48,0,0
0,65,0,9
0,63,80,12
0,82,97,1
0,82,0,13
0,63,0,10
0,43,0,5
0,61,80,1
0,42,74,1
0,42,0,8
0,42,63,22
0,54,97,0
0,42,0,8
0,43,28,0
0,54,0,5
0,42,52,17
0,48,89,0
0,67,0,6
0,42,0,2
0,75,0,1
0,70,0,5
0,48,0,1
0,61,0,2
0,55,0,1
0,60,80,11
0,45,88,1
0,42,61,0
0,42,0,10
0,45,0,0
0,48,100,3
0,46,86,0
0,48,0,8
0,46,0,5
0,60,0,4
0,43,0,6
0,66,37,4
0,42,23,2
0,73,84,0
0,70,90,0
0,54,76,0
0,66,74,0
0,82,109,0
0,42,56,0
0,41,106,0
0,67,0,1
0,82,0,7
0,42,0,5
0,82,61,17
0,82,0,8
0,54,80,21
0,82,92,1
0,41,0,5
0,82,0,8
0,54,0,34
0,54,80,12
0,85,102,1
0,85,0,10
0,54,0,13
0,54,80,6
0,70,0,1
0,42,44,0
0,42,0,10
0,73,0,5
0,66,0,11
0,82,86,4
0,82,0,10
0,54,0,6
0,54,0,1
0,57,80,12
0,41,94,1
0,42,59,0
0,82,75,0
0,82,0,10
0,42,0,0
0,41,0,3
0,42,0,13
0,53,89,2
0,65,85,0
0,69,85,0
0,72,90,0
0,41,107,0
0,82,45,0
0,65,63,2
0,66,0,2
0,41,29,0
0,82,0,5
0,41,0,3
0,82,48,17
0,82,0,10
0,57,0,7
0,57,80,12
0,82,84,1
0,82,0,13
0,57,0,10
