track,note,velocity,time
0,36,104,0
0,42,68,0
0,49,88,0
0,42,86,3
0,46,94,52
0,40,94,149
0,42,74,0
0,54,104,0
0,36,84,0
0,39,79,0
0,42,79,202
0,36,104,75
0,42,79,0
0,42,104,26
0,46,94,70
0,40,104,153
0,42,76,0
0,54,104,0
0,36,84,0
0,39,76,0
0,42,86,196
0,36,104,72
0,42,68,0
0,42,86,3
0,46,94,74
0,40,94,149
0,42,74,0
0,54,104,0
0,36,84,0
0,39,79,0
0,42,79,202
0,36,104,75
0,42,79,0
0,42,104,26
0,46,94,70
0,40,104,153
0,42,76,0
0,54,104,0
0,36,84,0
0,39,76,0
0,40,73,196
0,42,86,0
0,36,104,31
0,42,68,0
0,42,86,3
0,46,94,74
0,40,94,149
0,42,74,0
0,54,104,0
0,36,84,0
0,39,79,0
0,42,79,202
0,36,104,75
0,42,79,0
0,42,104,26
0,46,94,70
0,40,104,153
0,42,76,0
0,54,104,0
0,36,84,0
0,39,76,0
0,42,86,196
0,36,104,72
0,42,68,0
0,42,86,3
0,46,94,74
0,40,94,149
0,42,74,0
0,54,104,0
0,36,84,0
0,39,79,0
0,42,79,202
0,40,78,0
0,36,104,27
0,42,79,0
0,42,104,26
0,46,94,70
0,86,118,57
0,40,104,48
0,42,76,0
0,54,104,0
0,36,84,0
0,39,76,0
0,87,80,100
0,42,86,52
0,60,115,0
0,57,115,0
0,64,115,0
0,38,104,0
0,36,104,0
0,42,68,0
0,49,88,0
0,69,66,0
0,42,86,3
0,38,94,52
0,46,94,0
0,69,59,0
0,33,94,82
0,40,94,0
0,42,74,0
0,54,104,0
0,36,84,0
0,39,79,0
0,69,38,0
0,33,104,106
0,69,25,0
0,42,79,23
0,29,104,75
0,36,104,0
0,42,79,0
0,69,64,0
0,42,104,8
0,28,104,70
0,46,94,0
0,69,55,0
0,60,115,99
0,26,104,0
0,40,104,0
0,42,76,0
0,54,104,0
0,36,84,0
0,39,76,0
0,69,55,0
0,57,104,16
0,69,28,17
0,34,104,56
0,42,86,0
0,62,86,8
0,65,94,6
0,58,104,2
0,36,104,72
0,42,68,0
0,69,66,0
0,42,86,3
0,34,104,74
0,46,94,0
0,69,59,0
0,33,104,101
0,40,94,0
0,42,74,0
0,54,104,0
0,36,84,0
0,39,79,0
0,69,38,0
0,33,94,106
0,69,25,0
0,42,79,8
0,58,104,73
0,62,115,1
0,31,86,1
0,36,104,0
0,42,79,0
0,69,64,0
0,67,104,2
0,42,104,18
0,31,86,70
0,46,94,0
0,69,55,0
0,67,104,114
0,62,115,0
0,58,104,0
0,29,115,0
0,40,104,0
0,42,76,0
0,54,104,0
0,36,84,0
0,39,76,0
0,69,55,0
0,29,94,15
0,69,28,0
0,60,115,21
0,38,115,4
0,42,86,0
0,57,104,3
0,64,115,2
0,36,104,72
0,42,68,0
0,69,66,0
0,42,86,3
0,38,94,74
0,46,94,0
0,69,59,0
0,33,104,92
0,40,94,0
0,42,74,0
0,54,104,0
0,36,84,0
0,39,79,0
0,69,38,0
0,33,94,106
0,69,25,0
0,42,79,19
0,29,104,75
0,36,104,0
0,42,79,0
0,69,64,0
0,42,104,7
0,28,104,70
0,46,94,0
0,69,55,0
0,60,127,84
0,57,115,6
0,26,115,3
0,40,104,0
0,42,76,0
0,54,104,0
0,36,84,0
0,39,76,0
0,69,55,0
0,69,28,75
0,34,104,56
0,42,86,0
0,65,94,10
0,62,104,0
0,58,104,3
0,36,104,72
0,42,68,0
0,69,66,0
0,42,86,3
0,34,104,69
0,46,94,0
0,69,59,0
0,33,94,84
0,40,94,0
0,42,74,0
0,54,104,0
0,36,84,0
0,39,79,0
0,69,38,0
0,33,94,93
0,69,25,0
0,42,79,13
0,40,78,0
0,29,104,27
0,36,104,0
0,42,79,0
0,69,64,0
0,67,104,9
0,62,115,0
0,58,94,0
0,42,104,6
0,29,104,2
0,46,94,0
0,69,55,0
0,86,118,7
0,31,104,48
0,40,104,0
0,42,76,0
0,54,104,0
0,36,84,0
0,39,76,0
0,69,55,0
0,67,104,8
0,62,127,0
0,58,104,0
0,31,86,7
0,87,80,0
0,69,28,0
0,60,115,31
0,57,115,3
0,64,115,0
0,38,104,0
0,42,86,0
0,67,104,34
0,64,115,0
0,38,104,0
0,36,104,0
0,42,68,0
0,69,66,0
0,42,86,3
0,38,94,74
0,46,94,0
0,69,59,0
0,33,94,82
0,40,94,0
0,42,74,0
0,54,104,0
0,36,84,0
0,39,79,0
0,69,38,0
0,33,104,106
0,69,25,0
0,42,79,23
0,64,94,56
0,60,104,8
0,29,104,10
0,36,104,0
0,42,79,0
0,69,64,0
0,42,104,8
0,28,104,70
0,46,94,0
0,69,55,0
0,62,94,11
0,65,94,7
0,26,104,12
0,40,104,0
0,42,76,0
0,54,104,0
0,36,84,0
0,39,76,0
0,69,55,0
0,60,115,3
0,57,115,17
0,67,73,15
0,64,86,0
0,69,28,46
0,65,86,6
0,62,104,1
0,34,104,10
0,42,86,0
0,65,94,17
0,62,94,0
0,58,104,2
0,36,104,72
0,42,68,0
0,69,66,0
0,42,86,3
0,34,104,74
0,46,94,0
0,69,59,0
0,33,104,101
0,40,94,0
0,42,74,0
0,54,104,0
0,36,84,0
0,39,79,0
0,69,38,0
0,33,94,106
0,69,25,0
0,42,79,11
0,62,115,48
0,65,115,18
0,67,94,8
0,62,127,0
0,58,104,0
0,31,86,1
0,36,104,0
0,42,79,0
0,69,64,0
0,42,104,18
0,31,86,70
0,46,94,0
0,69,55,0
0,65,115,65
0,69,104,9
0,58,104,2
0,29,115,0
0,40,104,0
0,42,76,0
0,54,104,0
0,36,84,0
0,39,76,0
0,69,55,0
0,67,115,6
0,62,127,0
0,67,73,3
0,64,86,2
0,29,94,15
0,69,28,0
0,62,104,12
0,65,94,6
0,60,115,3
0,64,115,4
0,57,104,0
0,38,115,0
0,42,86,0
0,64,94,40
0,67,86,9
0,36,104,0
0,42,68,0
0,69,66,0
0,42,86,3
0,38,94,74
0,46,94,0
0,69,59,0
0,33,104,92
0,40,94,0
0,42,74,0
0,54,104,0
0,36,84,0
0,39,79,0
0,69,38,0
0,33,94,106
0,69,25,0
0,42,79,19
0,64,104,9
0,60,104,7
0,29,104,15
0,36,104,0
0,42,79,0
0,69,64,0
0,42,104,7
0,28,104,70
0,46,94,0
0,69,55,0
0,65,79,3
0,62,94,7
0,60,127,1
0,57,115,4
0,26,115,1
0,40,104,0
0,42,76,0
0,54,104,0
0,36,84,0
0,39,76,0
0,69,55,0
0,67,86,24
0,64,86,0
0,69,28,8
0,62,104,2
0,65,104,5
0,34,104,1
0,42,86,0
0,65,94,4
0,62,104,0
0,58,115,14
0,36,104,72
0,42,68,0
0,69,66,0
0,42,86,3
0,34,104,69
0,46,94,0
0,69,59,0
0,33,94,84
0,40,94,0
0,42,74,0
0,54,104,0
0,36,84,0
0,39,79,0
0,69,38,0
0,33,94,93
0,69,25,0
0,42,79,20
0,40,78,0
0,29,104,27
0,36,104,0
0,42,79,0
0,69,64,0
0,67,115,8
0,58,104,0
0,62,115,0
0,42,104,6
0,29,104,3
0,46,94,0
0,69,55,0
0,86,118,7
0,31,104,48
0,40,104,0
0,42,76,0
0,54,104,0
0,36,84,0
0,39,76,0
0,69,55,0
0,67,104,2
0,58,104,0
0,62,127,0
0,31,86,2
0,87,80,0
0,69,28,0
0,64,115,34
0,60,115,0
0,57,115,0
0,64,94,0
0,67,86,0
0,60,104,0
0,38,104,0
0,42,86,0
0,64,104,10
0,67,104,13
0,38,104,4
0,36,104,0
0,49,88,0
0,42,68,0
0,69,66,0
0,60,94,3
0,64,94,0
0,67,94,0
0,42,86,0
0,38,94,20
0,46,94,0
0,69,59,0
0,33,94,82
0,42,74,0
0,54,104,0
0,39,79,0
0,36,84,0
0,40,94,0
0,69,38,0
0,33,104,106
0,69,25,0
0,42,79,23
0,64,94,19
0,60,104,3
0,29,104,8
0,36,104,0
0,42,79,0
0,69,64,0
0,42,104,8
0,28,104,70
0,46,94,0
0,69,55,0
0,62,94,12
0,65,68,10
0,60,115,5
0,26,104,0
0,39,76,0
0,42,76,0
0,54,104,0
0,36,84,0
0,40,104,0
0,69,55,0
0,57,104,16
0,64,86,0
0,67,79,2
0,69,28,17
0,62,94,6
0,65,86,0
0,65,94,4
0,62,94,0
0,69,84,0
0,34,104,0
0,42,86,0
0,62,86,8
0,65,94,6
0,58,104,2
0,36,104,34
0,42,68,0
0,69,66,0
0,62,94,3
0,65,104,0
0,69,76,0
0,42,86,0
0,34,104,37
0,46,94,0
0,69,59,0
0,33,104,101
0,42,74,0
0,54,104,0
0,39,79,0
0,36,84,0
0,40,94,0
0,69,38,0
0,33,94,21
0,69,25,0
0,42,79,8
0,65,104,57
0,62,104,7
0,31,86,11
0,36,104,0
0,42,79,0
0,69,64,0
0,66,73,11
0,58,104,8
0,67,94,1
0,62,115,0
0,42,104,18
0,31,86,37
0,46,94,0
0,69,55,0
0,65,104,35
0,62,86,6
0,58,86,0
0,65,73,0
0,29,115,0
0,39,76,0
0,42,76,0
0,54,104,0
0,36,84,0
0,40,104,0
0,69,55,0
0,69,94,23
0,67,104,2
0,58,104,0
0,62,127,0
0,64,86,6
0,67,79,1
0,29,94,3
0,69,28,0
0,62,104,6
0,65,94,14
0,67,79,0
0,60,94,0
0,64,86,0
0,38,115,0
0,42,86,0
0,57,115,19
0,64,115,0
0,60,115,0
0,64,94,1
0,67,79,0
0,36,104,12
0,42,68,0
0,69,66,0
0,64,104,3
0,60,94,0
0,67,86,0
0,42,86,0
0,38,94,36
0,46,94,0
0,69,59,0
0,33,104,92
0,42,74,0
0,54,104,0
0,39,79,0
0,36,84,0
0,40,94,0
0,69,38,0
0,33,94,106
0,69,25,0
0,42,79,19
0,60,104,12
0,64,94,6
0,29,104,13
0,36,104,0
0,42,79,0
0,69,64,0
0,42,104,7
0,28,104,70
0,46,94,0
0,69,55,0
0,62,104,1
0,65,94,5
0,26,115,2
0,39,76,0
0,42,76,0
0,54,104,0
0,36,84,0
0,40,104,0
0,69,55,0
0,60,127,5
0,57,115,14
0,67,79,7
0,64,86,4
0,69,28,12
0,65,94,4
0,62,104,0
0,65,104,1
0,62,94,0
0,34,104,0
0,42,86,0
0,57,73,0
0,58,104,17
0,65,115,0
0,62,127,0
0,36,104,33
0,42,68,0
0,69,66,0
0,65,104,3
0,62,94,0
0,42,86,0
0,34,104,34
0,46,94,0
0,69,59,0
0,86,115,28
0,33,94,38
0,42,74,0
0,54,104,0
0,39,79,0
0,36,84,0
0,40,94,0
0,69,38,0
0,33,94,93
0,87,104,0
0,69,25,0
0,42,79,20
0,57,68,0
0,40,78,0
0,67,115,7
0,62,127,0
0,58,115,0
0,29,104,6
0,36,104,0
0,42,79,0
0,69,64,0
0,42,104,6
0,29,104,70
0,46,94,0
0,69,55,0
0,86,118,7
0,31,104,48
0,39,76,0
0,42,76,0
0,54,104,0
0,36,84,0
0,40,104,0
0,69,55,0
0,87,80,4
0,69,28,4
0,86,104,56
0,42,86,0
0,60,115,0
0,64,104,0
0,57,94,0
0,38,104,0
0,36,104,0
0,42,68,0
0,49,88,0
0,69,66,0
0,42,86,3
0,64,115,52
0,38,94,0
0,46,94,0
0,69,59,0
0,64,115,82
0,33,94,0
0,40,94,0
0,42,74,0
0,54,104,0
0,36,84,0
0,39,79,0
0,69,38,0
0,64,104,92
0,33,104,0
0,69,25,0
0,42,79,13
0,64,115,75
0,29,104,0
0,36,104,0
0,42,79,0
0,69,64,0
0,42,104,1
0,64,104,70
0,28,104,0
0,46,94,0
0,69,55,0
0,67,115,102
0,26,104,0
0,40,104,0
0,42,76,0
0,54,104,0
0,36,84,0
0,39,76,0
0,69,55,0
0,67,79,93
0,69,28,0
0,62,104,32
0,65,104,4
0,58,104,0
0,65,127,1
0,34,104,0
0,42,86,0
0,36,104,72
0,42,68,0
0,69,66,0
0,42,86,3
0,65,115,74
0,34,104,0
0,46,94,0
0,69,59,0
0,65,127,86
0,33,104,0
0,40,94,0
0,42,74,0
0,54,104,0
0,36,84,0
0,39,79,0
0,69,38,0
0,65,115,95
0,33,94,0
0,69,25,0
0,42,79,11
0,65,115,75
0,31,86,0
0,36,104,0
0,42,79,0
0,69,64,0
0,42,104,18
0,65,115,31
0,31,86,0
0,46,94,0
0,69,55,0
0,67,104,112
0,29,115,0
0,40,104,0
0,42,76,0
0,54,104,0
0,36,84,0
0,39,76,0
0,69,55,0
0,67,104,32
0,29,94,0
0,69,28,0
0,60,104,12
0,57,94,4
0,64,104,0
0,64,127,9
0,38,115,0
0,42,86,0
0,36,104,72
0,42,68,0
0,69,66,0
0,42,86,3
0,64,104,74
0,38,94,0
0,46,94,0
0,69,59,0
0,64,104,92
0,33,104,0
0,40,94,0
0,42,74,0
0,54,104,0
0,36,84,0
0,39,79,0
0,69,38,0
0,64,104,100
0,33,94,0
0,69,25,0
0,42,79,19
0,64,115,75
0,29,104,0
0,36,104,0
0,42,79,0
0,69,64,0
0,64,104,7
0,42,104,0
0,28,104,26
0,46,94,0
0,69,55,0
0,67,104,9
0,26,115,73
0,40,104,0
0,42,76,0
0,54,104,0
0,36,84,0
0,39,76,0
0,69,55,0
0,67,104,4
0,69,28,4
0,65,127,56
0,34,104,0
0,42,86,0
0,62,94,2
0,58,94,11
0,65,94,0
0,36,104,72
0,42,68,0
0,69,66,0
0,42,86,3
0,65,115,69
0,34,104,0
0,46,94,0
0,69,59,0
0,65,127,84
0,33,94,0
0,40,94,0
0,42,74,0
0,54,104,0
0,36,84,0
0,39,79,0
0,69,38,0
0,65,115,93
0,33,94,0
0,69,25,0
0,42,79,20
0,40,78,0
0,65,115,27
0,29,104,0
0,36,104,0
0,42,79,0
0,69,64,0
0,42,104,0
0,65,115,70
0,29,104,0
0,46,94,0
0,69,55,0
0,86,118,7
0,67,115,44
0,31,104,0
0,40,104,0
0,42,76,0
0,54,104,0
0,36,84,0
0,39,76,0
0,69,55,0
0,67,94,32
0,31,86,0
0,87,80,0
0,69,28,0
0,62,115,23
0,64,94,0
0,67,86,0
0,60,104,0
0,38,104,0
0,42,86,0
0,60,104,0
0,57,94,1
0,64,94,3
0,64,115,17
0,36,104,0
0,42,68,0
0,69,66,0
0,60,94,3
0,64,94,0
0,67,94,0
0,42,86,0
0,64,127,20
0,38,94,0
0,46,94,0
0,69,59,0
0,64,127,82
0,33,94,0
0,40,94,0
0,42,74,0
0,54,104,0
0,36,84,0
0,39,79,0
0,69,38,0
0,64,115,106
0,33,104,0
0,69,25,0
0,42,79,23
0,64,127,75
0,29,104,0
0,36,104,0
0,42,79,0
0,69,64,0
0,42,104,8
0,64,127,70
0,28,104,0
0,46,94,0
0,69,55,0
0,62,127,10
0,26,104,6
0,40,104,0
0,42,76,0
0,54,104,0
0,36,84,0
0,39,76,0
0,69,55,0
0,64,127,4
0,69,28,1
0,62,104,55
0,65,127,1
0,65,94,0
0,62,94,0
0,69,84,0
0,34,104,0
0,42,86,0
0,58,104,1
0,65,86,0
0,36,104,34
0,42,68,0
0,69,66,0
0,62,94,3
0,65,104,0
0,69,76,0
0,42,86,0
0,69,127,37
0,34,104,0
0,46,94,0
0,69,59,0
0,69,127,101
0,33,104,0
0,40,94,0
0,42,74,0
0,54,104,0
0,36,84,0
0,39,79,0
0,69,38,0
0,69,115,106
0,33,94,0
0,69,25,0
0,42,79,11
0,72,127,75
0,31,86,0
0,36,104,0
0,42,79,0
0,69,64,0
0,69,127,14
0,42,104,0
0,31,86,41
0,46,94,0
0,69,55,0
0,67,127,18
0,62,86,28
0,58,86,0
0,65,73,0
0,29,115,0
0,40,104,0
0,42,76,0
0,54,104,0
0,36,84,0
0,39,76,0
0,69,55,0
0,65,115,4
0,29,94,1
0,69,28,0
0,60,104,24
0,68,115,1
0,67,115,0
0,67,79,0
0,60,94,0
0,64,86,0
0,38,115,0
0,42,86,0
0,64,94,3
0,57,94,0
0,67,115,17
0,36,104,0
