track,note,velocity,time
0,54,86,300
0,42,86,0
0,73,93,0
0,80,86,0
0,70,86,0
0,70,0,97
0,73,0,0
0,80,0,0
0,80,86,1
0,73,90,0
0,70,83,0
0,70,0,59
0,80,0,0
0,73,0,0
0,78,86,61
0,70,80,0
0,73,86,0
0,73,0,59
0,78,0,0
0,70,0,0
0,70,86,61
0,78,86,0
0,73,90,0
0,73,0,59
0,70,0,0
0,78,0,0
0,70,86,61
0,80,90,0
0,73,93,0
0,73,0,59
0,70,0,0
0,80,0,0
0,70,86,61
0,73,93,0
0,80,90,0
0,80,0,59
0,70,0,0
0,73,0,0
0,78,86,61
0,73,90,0
0,70,80,0
0,70,0,59
0,78,0,0
0,73,0,0
0,78,86,61
0,70,80,0
0,73,93,0
0,58,74,0
0,58,0,29
0,61,86,1
0,42,0,29
0,70,0,0
0,78,0,0
0,54,0,0
0,73,0,0
0,61,0,1
0,63,86,1
0,54,83,0
0,73,93,0
0,80,93,0
0,42,83,0
0,70,83,0
0,70,0,38
0,63,0,0
0,73,0,0
0,80,0,0
0,63,90,1
0,63,0,59
0,63,93,1
0,70,83,0
0,80,86,0
0,73,93,0
0,73,0,59
0,70,0,0
0,63,0,0
0,80,0,0
0,61,83,1
0,61,0,29
0,61,83,1
0,70,77,30
0,78,83,0
0,73,86,0
0,73,0,59
0,70,0,0
0,61,0,0
0,78,0,0
0,58,83,1
0,58,0,59
0,78,86,1
0,58,83,0
0,70,83,0
0,73,86,0
0,58,0,29
0,61,86,1
0,54,0,29
0,70,0,0
0,78,0,0
0,42,0,0
0,73,0,0
0,61,0,60
0,46,86,1
0,63,86,0
0,70,77,0
0,80,86,0
0,58,83,0
0,73,93,0
0,73,0,19
0,63,0,0
0,70,0,0
0,80,0,0
0,63,90,1
0,63,0,59
0,73,93,1
0,63,86,0
0,70,83,0
0,80,86,0
0,80,0,59
0,63,0,0
0,73,0,0
0,70,0,0
0,65,86,1
0,65,0,29
0,61,93,1
0,78,90,30
0,70,90,0
0,73,83,0
0,73,0,59
0,78,0,0
0,61,0,0
0,70,0,0
0,58,86,1
0,58,0,59
0,78,93,1
0,73,86,0
0,58,83,0
0,70,90,0
0,58,0,29
0,61,80,1
0,46,0,29
0,73,0,0
0,78,0,0
0,58,0,0
0,70,0,0
0,61,0,60
0,68,83,1
0,44,83,0
0,80,93,0
0,75,86,0
0,56,80,0
0,71,93,0
0,61,81,0
0,61,0,17
0,75,0,0
0,68,0,0
0,80,0,0
0,71,0,0
0,59,86,1
0,59,0,59
0,71,93,1
0,80,93,0
0,75,86,0
0,68,83,0
0,59,90,0
0,59,0,59
0,75,0,0
0,80,0,0
0,71,0,0
0,68,0,0
0,58,86,1
0,58,0,29
0,58,89,1
0,75,83,30
0,78,77,0
0,71,83,0
0,68,63,0
0,68,0,59
0,78,0,0
0,75,0,0
0,58,0,0
0,71,0,0
0,56,80,1
0,56,0,59
0,78,83,1
0,56,83,0
0,71,90,0
0,75,86,0
0,68,83,0
0,68,0,59
0,71,0,0
0,44,0,0
0,78,0,0
0,56,0,0
0,75,0,0
0,56,0,0
0,54,80,1
0,54,0,59
0,77,90,1
0,73,90,0
0,58,77,0
0,70,77,0
0,58,86,0
0,46,83,0
0,70,0,23
0,73,0,0
0,77,0,0
0,70,83,61
0,73,93,0
0,77,90,0
0,77,0,59
0,46,0,0
0,58,0,0
0,70,0,0
0,73,0,0
0,70,93,61
0,46,83,0
0,77,93,0
0,74,97,0
0,58,77,0
0,74,0,22
0,77,0,0
0,70,0,0
0,58,0,0
0,58,101,1
0,58,0,58
0,58,0,0
0,46,0,0
0,74,97,1
0,70,86,0
0,77,90,0
0,58,113,0
0,58,0,59
0,74,0,0
0,70,0,0
0,77,0,0
0,46,83,1
0,56,97,0
0,56,0,59
0,46,0,0
0,54,109,1
0,78,90,0
0,51,68,0
0,70,83,0
0,75,93,0
0,39,93,0
0,75,0,15
0,70,0,0
0,78,0,0
0,54,0,0
0,58,93,1
0,58,0,29
0,58,101,1
0,39,0,29
0,51,0,0
0,78,93,1
0,75,86,0
0,70,101,0
0,70,0,59
0,58,0,0
0,78,0,0
0,75,0,0
0,63,105,1
0,39,86,0
0,63,0,29
0,63,109,1
0,39,0,29
0,70,93,1
0,49,86,0
0,75,93,0
0,37,90,0
0,78,93,0
0,78,0,11
0,70,0,0
0,63,0,0
0,75,0,0
0,66,93,1
0,66,0,29
0,66,93,1
0,49,0,29
0,37,0,0
0,75,93,1
0,70,90,0
0,78,86,0
0,78,0,59
0,66,0,0
0,75,0,0
0,70,0,0
0,37,74,1
0,63,95,0
0,63,0,29
0,63,90,1
0,37,0,29
0,78,90,1
0,75,86,0
0,70,90,0
0,48,83,0
0,36,83,0
0,70,0,16
0,75,0,0
0,78,0,0
0,36,0,60
0,78,86,1
0,70,93,0
0,75,93,0
0,75,0,59
0,78,0,0
0,70,0,0
0,48,0,0
0,36,93,1
0,36,0,59
0,78,93,1
0,70,93,0
0,75,93,0
0,36,105,0
0,48,90,0
0,75,0,59
0,70,0,0
0,63,0,0
0,78,0,0
0,66,90,1
0,66,0,59
0,36,0,0
0,70,101,1
0,66,86,0
0,78,90,0
0,75,74,0
0,75,0,59
0,66,0,0
0,48,0,0
0,70,0,0
0,78,0,0
0,58,83,1
0,36,101,0
0,58,0,29
0,63,86,1
0,36,0,15
0,80,93,1
0,73,86,0
0,70,86,0
0,42,90,0
0,54,86,0
0,70,0,50
0,73,0,0
0,63,0,0
0,80,0,0
0,61,83,1
0,80,97,60
0,70,101,0
0,73,97,0
0,73,0,59
0,80,0,0
0,54,0,0
0,42,0,0
0,70,0,0
0,54,101,3
0,42,74,0
0,73,93,0
0,70,86,0
0,78,93,0
0,78,0,22
0,73,0,0
0,70,0,0
0,73,86,61
0,78,93,0
0,70,86,0
0,70,0,59
0,54,0,0
0,61,0,0
0,73,0,0
0,78,0,0
0,58,71,1
0,58,0,29
0,56,59,1
0,56,0,29
0,42,0,0
0,78,86,1
0,49,77,0
0,70,83,0
0,73,86,0
0,58,80,0
0,37,80,0
0,58,0,29
0,61,80,1
0,73,0,29
0,70,0,0
0,78,0,0
0,49,0,60
0,37,0,0
0,70,77,1
0,73,93,0
0,78,86,0
0,78,0,59
0,73,0,0
0,70,0,0
0,37,71,1
0,77,97,60
0,73,93,0
0,68,86,0
0,49,74,0
0,68,0,29
0,73,0,0
0,77,0,0
0,61,0,60
0,68,83,1
0,73,90,0
0,70,105,0
0,77,93,0
0,70,0,29
0,73,90,1
0,37,0,29
0,73,0,0
0,68,0,0
0,49,0,0
0,77,0,0
0,73,0,60
0,73,93,1
0,42,93,0
0,70,83,0
0,75,113,0
0,54,83,0
0,42,83,0
0,36,93,0
0,42,105,0
0,80,93,0
0,42,0,14
0,36,0,0
0,70,0,21
0,73,0,0
0,80,0,0
0,75,0,0
0,75,101,1
0,42,97,0
0,42,0,29
0,75,0,30
0,73,93,1
0,80,86,0
0,42,97,0
0,40,86,0
0,75,109,0
0,70,83,0
0,40,0,29
0,42,0,0
0,70,0,30
0,80,0,0
0,75,0,0
0,42,0,0
0,73,0,0
0,42,93,1
0,42,90,0
0,73,105,0
0,36,83,0
0,36,0,29
0,42,0,0
0,73,0,0
0,73,105,1
0,42,0,29
0,78,83,1
0,70,77,0
0,36,101,0
0,42,90,0
0,73,86,0
0,42,97,0
0,42,0,29
0,36,0,0
0,73,0,30
0,78,0,0
0,73,0,0
0,70,0,0
0,42,83,1
0,70,109,0
0,42,0,29
0,70,0,30
0,78,86,1
0,42,86,0
0,73,86,0
0,70,109,0
0,70,83,0
0,40,105,0
0,40,0,29
0,70,0,0
0,42,0,0
0,73,105,1
0,73,0,29
0,78,0,0
0,70,0,0
0,42,0,0
0,54,0,0
0,42,80,1
0,42,0,29
0,73,0,30
0,42,0,0
0,70,77,1
0,58,83,0
0,73,93,0
0,46,86,0
0,80,86,0
0,46,97,0
0,75,113,0
0,42,101,0
0,36,101,0
0,36,0,25
0,42,0,0
0,73,0,19
0,70,0,0
0,75,0,0
0,80,0,0
0,75,93,1
0,42,83,0
0,42,0,29
0,75,0,30
0,40,93,1
0,73,93,0
0,80,86,0
0,70,83,0
0,75,109,0
0,42,101,0
0,42,0,29
0,40,0,0
0,73,0,30
0,80,0,0
0,75,0,0
0,46,0,0
0,70,0,0
0,77,101,1
0,36,83,0
0,46,93,0
0,42,80,0
0,42,0,29
0,77,0,0
0,36,0,0
0,73,113,1
0,46,0,29
0,70,90,1
0,78,90,0
0,42,86,0
0,36,97,0
0,46,101,0
0,73,83,0
0,36,0,29
0,42,0,0
0,73,0,30
0,70,0,0
0,73,0,0
0,78,0,0
0,70,105,1
0,42,77,0
0,42,0,29
0,70,0,30
0,70,90,1
0,78,93,0
0,40,101,0
0,70,105,0
0,73,86,0
0,42,105,0
0,42,0,29
0,70,0,0
0,40,0,0
0,73,113,1
0,78,0,29
0,70,0,0
0,73,0,0
0,58,0,0
0,46,0,0
0,42,83,1
0,42,0,29
0,73,0,30
0,46,0,0
0,44,101,1
0,42,109,0
0,44,83,0
0,75,86,0
0,56,80,0
0,80,93,0
0,73,109,0
0,36,101,0
0,71,93,0
0,68,83,0
0,36,0,19
0,42,0,0
0,71,0,17
0,75,0,0
0,80,0,0
0,68,0,0
0,73,0,0
0,42,93,1
0,71,97,0
0,42,0,29
0,71,0,30
0,71,93,1
0,68,83,0
0,75,86,0
0,80,93,0
0,40,113,0
0,71,105,0
0,42,109,0
0,42,0,29
0,40,0,0
0,71,0,30
0,44,0,0
0,68,0,0
0,80,0,0
0,71,0,0
0,75,0,0
0,44,109,1
0,36,66,0
0,70,109,0
0,42,71,0
0,42,0,29
0,36,0,0
0,70,0,0
0,70,118,1
0,44,0,29
0,71,83,1
0,42,97,0
0,68,63,0
0,44,97,0
0,36,93,0
0,75,83,0
0,78,77,0
0,36,0,29
0,42,0,0
0,71,0,30
0,70,0,0
0,75,0,0
0,78,0,0
0,68,0,0
0,42,61,1
0,68,109,0
0,42,0,29
0,68,0,30
0,78,83,1
0,71,90,0
0,75,86,0
0,42,83,0
0,68,113,0
0,68,83,0
0,40,90,0
0,40,0,29
0,42,0,0
0,78,0,30
0,56,0,0
0,71,0,0
0,44,0,0
0,68,0,0
0,68,0,0
0,75,0,0
0,44,0,0
0,44,105,1
0,66,105,0
0,42,71,0
0,42,0,29
0,66,0,30
0,44,0,0
0,70,77,1
0,73,90,0
0,36,83,0
0,46,105,0
0,58,77,0
0,77,90,0
0,70,109,0
0,42,66,0
0,46,83,0
0,42,0,19
0,36,0,0
0,70,0,23
0,77,0,0
0,73,0,0
0,42,66,1
0,42,0,29
0,70,83,31
0,40,101,0
0,42,77,0
0,77,90,0
0,73,93,0
0,42,0,29
0,40,0,0
0,46,0,30
0,70,0,0
0,73,0,0
0,58,0,0
0,77,0,0
0,46,0,0
0,42,80,1
0,46,109,0
0,36,90,0
0,36,0,29
0,42,0,0
0,46,0,30
0,70,0,0
0,46,83,1
0,77,93,0
0,74,97,0
0,36,109,0
0,58,77,0
0,70,93,0
0,42,80,0
0,46,118,0
0,42,0,29
0,36,0,0
0,77,0,22
0,70,0,0
0,42,74,1
0,70,113,0
0,42,0,28
0,74,0,30
0,46,0,0
0,46,0,0
0,70,0,0
0,58,0,0
0,40,101,1
0,70,109,0
0,70,86,0
0,77,90,0
0,74,97,0
0,42,74,0
0,42,0,29
0,40,0,0
0,77,0,30
0,70,0,0
0,70,0,0
0,74,0,0
0,68,109,1
0,46,61,0
0,34,109,0
0,46,83,0
0,46,0,29
0,68,0,30
0,34,0,0
0,46,0,0
0,36,77,1
0,66,109,0
0,75,93,0
0,66,61,0
0,70,83,0
0,42,80,0
0,39,113,0
0,51,68,0
0,78,90,0
0,39,93,0
0,42,0,23
0,36,0,0
0,66,0,15
0,78,0,0
0,70,0,0
0,66,0,0
0,75,0,0
0,42,71,1
0,70,77,0
0,70,113,0
0,70,0,29
0,42,0,0
0,70,0,0
0,70,113,1
0,70,90,0
0,39,0,29
0,51,0,0
0,40,90,1
0,75,86,0
0,78,93,0
0,70,101,0
0,42,71,0
0,42,0,29
0,40,0,0
0,70,0,30
0,70,0,0
0,39,0,0
0,75,0,0
0,78,0,0
0,75,93,1
0,75,113,0
0,36,97,0
0,39,86,0
0,39,109,0
0,42,63,0
0,42,0,29
0,75,0,0
0,75,0,0
0,36,0,0
0,75,97,1
0,75,113,0
0,70,0,29
0,39,0,0
0,39,0,0
0,36,105,1
0,70,93,0
0,75,93,0
0,78,93,0
0,37,113,0
0,49,86,0
0,42,77,0
0,37,90,0
0,42,0,19
0,36,0,0
0,75,0,11
0,75,0,0
0,70,0,0
0,75,0,0
0,78,0,0
0,78,105,1
0,78,105,0
0,42,71,0
0,42,0,29
0,78,0,0
0,78,0,0
0,78,109,1
0,78,109,0
0,49,0,29
0,37,0,0
0,75,93,1
0,40,105,0
0,42,93,0
0,78,86,0
0,70,90,0
0,42,0,29
0,40,0,0
0,78,0,30
0,78,0,0
0,37,0,0
0,75,0,0
0,78,0,0
0,70,0,0
0,37,113,1
0,42,68,0
0,75,105,0
0,37,74,0
0,75,105,0
0,42,0,29
0,37,0,30
0,37,0,0
0,75,0,0
0,75,0,0
0,48,83,1
0,36,83,0
0,82,83,0
0,36,105,0
0,70,90,0
0,78,90,0
0,75,86,0
0,42,74,0
0,82,83,0
0,36,105,0
0,36,0,25
0,42,0,0
0,75,0,16
0,82,0,0
0,70,0,0
0,82,0,0
0,78,0,0
0,80,109,1
0,80,109,0
0,42,71,0
0,42,0,29
0,36,0,30
0,78,86,1
0,40,90,0
0,42,74,0
0,75,93,0
0,70,93,0
0,42,0,29
0,40,0,0
0,48,0,30
0,36,0,0
0,36,101,1
0,36,109,0
0,36,93,0
0,42,77,0
0,42,0,29
0,36,0,0
0,36,0,30
0,36,0,0
0,36,113,1
0,42,66,0
0,36,105,0
0,48,90,0
0,36,105,0
0,36,0,29
0,42,0,0
0,75,0,30
0,70,0,0
0,78,0,0
0,80,0,0
0,80,0,0
0,75,109,1
0,75,109,0
0,42,63,0
0,42,0,29
0,75,0,30
0,36,0,0
0,75,0,0
0,42,77,1
0,75,105,0
0,40,109,0
0,78,90,0
0,70,101,0
0,75,74,0
0,75,105,0
0,40,0,29
0,42,0,0
0,75,0,30
0,78,0,0
0,48,0,0
0,75,0,0
0,75,0,0
0,70,0,0
0,78,93,1
0,78,93,0
0,42,66,0
0,36,101,0
0,42,0,29
0,78,0,0
0,78,0,0
0,75,109,1
0,75,109,0
0,36,0,15
0,36,0,0
0,42,63,1
0,80,93,0
0,42,90,0
0,36,105,0
0,73,86,0
0,70,66,0
0,42,113,0
0,54,86,0
0,36,0,20
0,42,0,0
0,70,0,30
0,80,0,0
0,73,0,0
0,75,0,0
0,75,0,0
0,42,52,1
0,73,105,0
0,73,105,0
0,42,0,29
0,70,101,31
0,42,83,0
0,80,97,0
0,40,105,0
0,73,97,0
0,40,0,29
0,42,0,0
0,80,0,30
0,42,0,0
0,42,0,0
0,54,0,0
0,73,0,0
0,70,0,0
0,42,74,1
0,42,109,0
0,36,97,0
0,36,0,29
0,42,0,0
0,42,0,2
0,42,109,1
0,36,113,0
0,73,93,0
0,42,86,0
0,54,101,0
0,70,86,0
0,42,74,0
0,78,93,0
0,42,0,29
0,36,0,0
0,78,0,22
0,73,0,0
0,70,0,0
0,42,74,1
0,42,0,29
0,73,0,30
0,40,101,1
0,73,86,0
0,78,93,0
0,42,90,0
0,70,86,0
0,42,0,29
0,40,0,0
0,54,0,30
0,73,0,0
0,70,0,0
0,73,0,0
0,78,0,0
0,42,83,1
0,70,109,0
0,42,74,0
0,42,0,29
0,70,0,0
0,68,86,1
0,68,0,29
0,42,0,0
0,42,0,0
0,42,0,0
0,49,77,1
0,78,86,0
0,70,97,0
0,73,86,0
0,70,83,0
0,42,90,0
0,36,105,0
0,37,109,0
0,37,80,0
0,36,0,29
