track,note,velocity,time
0,30,84,480
0,64,83,0
0,57,79,0
0,61,71,0
0,42,54,0
0,35,127,0
0,46,80,0
0,70,107,0
0,81,57,0
0,70,0,10
0,35,0,3
0,46,0,11
0,81,0,19
0,42,80,17
0,70,101,0
0,70,0,10
0,42,0,14
0,35,112,6
0,70,45,0
0,70,0,3
0,35,0,10
0,42,80,17
0,37,127,0
0,70,112,0
0,70,0,9
0,42,0,15
0,37,0,24
0,42,64,12
0,70,104,0
0,70,0,6
0,64,0,9
0,57,0,3
0,61,0,6
0,42,0,0
0,70,70,6
0,70,0,4
0,42,0,20
0,32,84,2
0,81,70,1
0,30,0,3
0,54,67,0
0,63,80,0
0,44,78,0
0,59,92,0
0,68,106,0
0,56,106,0
0,35,127,0
0,42,112,0
0,70,107,0
0,70,0,8
0,35,0,5
0,70,101,2
0,70,0,8
0,42,0,1
0,81,0,2
0,70,90,4
0,56,0,4
0,70,0,4
0,68,0,1
0,68,95,21
0,56,107,0
0,42,80,0
0,70,78,0
0,70,0,10
0,42,0,14
0,70,61,6
0,70,0,8
0,56,0,7
0,68,0,5
0,66,101,10
0,54,109,0
0,42,96,0
0,37,127,0
0,70,95,0
0,70,0,10
0,42,0,14
0,37,0,24
0,42,80,12
0,70,104,0
0,59,0,5
0,70,0,1
0,63,0,12
0,54,0,1
0,42,0,5
0,44,0,29
0,32,0,1
0,33,79,1
0,81,70,2
0,45,71,3
0,61,77,0
0,64,85,0
0,56,72,0
0,35,127,0
0,42,80,0
0,70,106,0
0,67,41,1
0,70,0,5
0,35,0,7
0,81,0,7
0,42,0,4
0,42,96,36
0,70,89,0
0,70,0,6
0,42,0,18
0,35,112,6
0,70,72,0
0,70,0,5
0,35,0,8
0,42,96,17
0,37,127,0
0,70,119,0
0,70,0,9
0,70,97,6
0,70,0,9
0,42,0,0
0,70,91,6
0,70,0,6
0,37,0,12
0,66,0,6
0,42,80,6
0,70,94,0
0,70,0,6
0,42,0,18
0,54,0,2
0,70,83,4
0,70,0,5
0,68,86,25
0,56,112,0
0,35,127,0
0,42,80,0
0,70,53,0
0,70,0,5
0,56,0,6
0,68,0,0
0,35,0,2
0,66,102,2
0,54,112,0
0,42,0,9
0,54,0,4
0,66,0,1
0,68,104,1
0,56,112,0
0,70,60,0
0,70,0,9
0,56,0,5
0,68,0,1
0,66,99,0
0,54,104,0
0,68,114,15
0,56,114,0
0,46,96,0
0,70,101,0
0,54,0,1
0,66,0,4
0,70,0,5
0,46,0,14
0,56,0,0
0,68,0,1
0,71,86,5
0,59,97,0
0,70,51,0
0,70,0,11
0,59,0,17
0,68,101,2
0,56,107,0
0,42,96,0
0,37,127,0
0,70,80,0
0,71,0,1
0,70,0,8
0,42,0,15
0,68,0,2
0,66,106,4
0,54,127,0
0,35,112,0
0,70,72,0
0,56,0,1
0,70,0,4
0,35,0,8
0,56,0,3
0,37,0,2
0,61,0,8
0,64,0,4
0,42,64,0
0,70,91,0
0,70,0,9
0,45,0,0
0,33,0,15
0,42,0,0
0,54,0,4
0,70,77,2
0,66,0,4
0,70,0,1
0,30,83,22
0,42,83,3
0,61,79,0
0,57,77,0
0,64,81,0
0,35,127,0
0,46,96,0
0,81,56,7
0,46,0,17
0,67,0,1
0,81,0,1
0,70,73,4
0,70,0,5
0,64,0,6
0,35,0,7
0,42,96,12
0,70,94,0
0,61,0,3
0,70,0,2
0,57,0,1
0,42,0,18
0,57,73,6
0,61,57,0
0,66,68,0
0,70,65,0
0,70,0,3
0,69,49,0
0,42,96,27
0,37,127,0
0,70,102,0
0,70,0,5
0,66,0,5
0,70,78,5
0,70,0,6
0,42,0,3
0,70,95,6
0,70,0,8
0,61,0,0
0,70,88,7
0,37,0,3
0,70,0,3
0,61,53,9
0,64,97,0
0,42,80,0
0,57,0,14
0,61,0,4
0,64,0,2
0,42,0,4
0,70,102,6
0,42,0,1
0,70,0,7
0,81,65,19
0,54,78,3
0,44,84,0
0,63,51,0
0,59,69,0
0,68,106,0
0,56,106,0
0,35,127,0
0,42,80,0
0,70,81,0
0,32,83,2
0,30,0,4
0,70,0,2
0,81,0,12
0,42,0,4
0,70,90,6
0,56,0,4
0,70,0,5
0,68,0,0
0,35,0,9
0,68,95,12
0,56,107,0
0,42,64,0
0,70,89,0
0,70,0,9
0,42,0,15
0,70,85,6
0,70,0,5
0,56,0,10
0,68,0,5
0,66,101,10
0,54,109,0
0,42,80,0
0,37,127,0
0,70,104,0
0,70,0,10
0,42,0,14
0,70,93,6
0,70,0,8
0,59,0,10
0,37,0,0
0,42,96,12
0,70,84,0
0,54,0,3
0,63,0,0
0,70,0,2
0,42,0,19
0,44,0,5
0,64,90,31
0,56,81,0
0,45,76,0
0,61,80,0
0,35,127,0
0,42,80,0
0,70,114,0
0,33,82,5
0,35,0,1
0,32,0,1
0,81,58,1
0,70,0,1
0,70,86,6
0,70,0,6
0,81,0,2
0,42,0,1
0,70,89,6
0,70,0,10
0,64,0,8
0,42,96,12
0,70,104,0
0,56,0,8
0,70,0,2
0,61,0,5
0,42,0,9
0,61,52,6
0,56,71,0
0,63,74,0
0,35,112,0
0,70,93,0
0,35,0,6
0,70,0,10
0,42,112,14
0,37,127,0
0,70,85,0
0,63,0,4
0,61,0,1
0,70,0,3
0,56,0,1
0,42,0,15
0,70,94,6
0,69,0,8
0,64,67,4
0,70,0,1
0,37,0,5
0,66,0,6
0,52,89,6
0,56,80,0
0,61,71,0
0,42,80,0
0,70,93,0
0,70,0,8
0,42,0,16
0,54,0,2
0,70,74,4
0,70,0,4
0,68,86,26
0,56,112,0
0,35,112,0
0,42,80,0
0,70,119,0
0,70,0,6
0,35,0,0
0,68,0,5
0,56,0,0
0,66,102,4
0,54,112,0
0,70,82,0
0,70,0,8
0,42,0,1
0,54,0,4
0,66,0,1
0,68,104,1
0,56,112,0
0,70,97,0
0,70,0,8
0,56,0,6
0,68,0,1
0,66,99,0
0,54,104,0
0,35,127,0
0,70,117,0
0,35,0,6
0,70,0,3
0,68,114,6
0,56,114,0
0,46,96,0
0,54,0,1
0,66,0,4
0,56,0,19
0,46,0,0
0,68,0,1
0,71,86,5
0,59,97,0
0,70,119,0
0,70,0,10
0,59,0,18
0,68,101,2
0,56,107,0
0,42,96,0
0,37,127,0
0,70,94,0
0,71,0,1
0,70,0,8
0,42,0,15
0,68,0,2
0,66,106,4
0,54,127,0
0,35,112,0
0,70,71,0
0,56,0,1
0,52,0,2
0,56,0,2
0,35,0,1
0,61,0,3
0,70,0,4
0,37,0,5
0,45,0,11
0,42,96,1
0,70,93,0
0,70,0,9
0,33,0,14
0,42,0,1
0,54,0,4
0,70,82,2
0,66,0,4
0,70,0,1
0,30,91,23
0,64,83,2
0,57,79,0
0,61,71,0
0,42,54,0
0,35,127,0
0,46,80,0
0,70,114,0
0,81,68,6
0,70,0,4
0,35,0,3
0,46,0,11
0,81,0,1
0,70,45,5
0,70,0,4
0,42,80,26
0,70,112,0
0,70,0,9
0,42,0,15
0,35,112,6
0,70,81,0
0,70,0,4
0,35,0,9
0,42,80,17
0,37,127,0
0,70,114,0
0,70,0,9
0,70,99,6
0,70,0,9
0,42,0,0
0,70,101,6
0,70,0,9
0,37,0,9
0,42,64,12
0,70,92,0
0,70,0,8
0,64,0,7
0,57,0,3
0,61,0,6
0,42,0,0
0,70,93,6
0,70,0,9
0,42,0,15
0,54,67,6
0,63,80,0
0,44,78,0
0,59,92,0
0,68,106,0
0,56,106,0
0,35,127,0
0,42,112,0
0,32,83,3
0,30,0,1
0,81,62,1
0,35,0,8
0,70,88,2
0,70,0,9
0,42,0,0
0,81,0,5
0,56,0,5
0,68,0,5
0,68,95,21
0,56,107,0
0,42,80,0
0,70,104,0
0,70,0,10
0,42,0,14
0,68,109,6
0,70,57,0
0,64,0,1
0,70,0,4
0,67,62,4
0,56,0,6
0,68,0,5
0,66,101,10
0,54,109,0
0,66,97,0
0,42,96,0
0,37,127,0
0,70,119,0
0,68,0,9
0,70,0,2
0,42,0,13
0,66,0,4
0,64,105,0
0,70,60,2
0,70,0,5
0,37,0,13
0,42,80,12
0,70,104,0
0,61,107,2
0,59,0,3
0,64,0,1
0,70,0,3
0,63,0,9
0,54,0,1
0,42,0,5
0,70,76,6
0,61,0,3
0,70,0,2
0,57,98,2
0,44,0,16
0,45,71,7
0,61,77,0
0,64,85,0
0,56,72,0
0,35,127,0
0,42,80,0
0,70,119,0
0,32,0,1
0,33,82,0
0,59,100,2
0,35,0,3
0,57,0,0
0,81,67,1
0,70,0,1
0,70,95,7
0,70,0,8
0,42,0,1
0,61,63,6
0,70,97,0
0,81,0,1
0,59,0,3
0,70,0,6
0,61,0,16
0,42,96,4
0,70,101,0
0,64,100,1
0,70,0,9
0,42,0,14
0,35,112,6
0,70,72,0
0,66,89,2
0,35,0,4
0,70,0,2
0,64,0,1
0,42,112,21
0,37,127,0
0,70,93,0
0,70,0,11
0,42,0,13
0,70,69,6
0,70,0,6
0,66,0,9
0,37,0,3
0,68,95,4
0,66,0,2
0,42,80,6
0,70,98,0
0,70,0,8
0,42,0,16
0,54,0,2
0,70,85,4
0,70,0,5
0,68,0,10
0,66,122,13
0,68,86,2
0,56,112,0
0,35,112,0
0,42,80,0
0,70,106,0
0,70,0,6
0,35,0,0
0,56,0,5
0,68,0,0
0,66,102,4
0,54,112,0
0,42,0,9
0,54,0,4
0,66,0,1
0,68,104,1
0,56,112,0
0,70,82,0
0,70,0,4
0,56,0,10
0,68,0,1
0,66,99,0
0,54,104,0
0,35,127,0
0,35,0,6
0,68,114,9
0,56,114,0
0,46,96,0
0,70,102,0
0,54,0,1
0,66,0,4
0,70,0,1
0,66,0,8
0,64,124,4
0,56,0,6
0,46,0,0
0,68,0,1
0,71,86,5
0,59,97,0
0,70,72,0
0,70,0,4
0,59,0,24
0,68,101,2
0,56,107,0
0,42,96,0
0,37,127,0
0,70,125,0
0,71,0,1
0,70,0,7
0,70,79,7
0,70,0,4
0,42,0,5
0,68,0,2
0,66,106,4
0,54,127,0
0,35,112,0
0,70,104,0
0,56,0,1
0,35,0,5
0,70,0,4
0,56,0,6
0,37,0,2
0,61,0,8
0,64,0,4
0,42,96,0
0,70,91,0
0,67,0,2
0,70,0,6
0,45,0,1
0,42,0,15
0,64,0,4
0,54,0,0
0,70,119,2
0,66,0,4
0,70,0,6
0,33,0,4
0,67,54,0
0,30,89,14
0,42,83,2
0,61,79,0
0,57,77,0
0,64,81,0
0,35,127,0
0,46,96,0
0,70,99,0
0,70,0,6
0,81,58,0
0,46,0,18
0,70,94,6
0,81,0,1
0,70,0,5
0,64,0,5
0,35,0,7
0,42,96,12
0,70,94,0
0,61,0,3
0,57,0,3
0,70,0,3
0,42,0,15
0,68,102,1
0,57,73,5
0,61,57,0
0,66,68,0
0,70,84,0
0,70,0,5
0,66,98,23
0,42,96,2
0,37,127,0
0,70,125,0
0,68,0,5
0,70,0,5
0,66,0,0
0,70,101,5
0,70,0,9
0,42,0,0
0,66,0,4
0,64,105,0
0,70,88,2
0,70,0,6
0,61,0,2
0,37,0,10
0,61,53,12
0,64,97,0
0,61,106,0
0,42,80,0
0,70,119,0
0,64,0,6
0,70,0,3
0,57,0,5
0,61,0,4
0,64,0,2
0,61,0,4
0,42,0,0
0,70,84,6
0,42,0,1
0,70,0,4
0,54,78,25
0,44,84,0
0,63,51,0
0,59,69,0
0,68,106,0
0,56,106,0
0,66,101,0
0,35,127,0
0,42,80,0
0,70,117,0
0,81,69,1
0,32,88,4
0,30,0,2
0,70,0,1
0,42,0,16
0,68,91,4
0,66,0,1
0,81,0,1
0,70,91,0
0,56,0,4
0,70,0,1
0,68,0,4
0,35,0,9
0,68,0,11
0,68,95,1
0,56,107,0
0,42,64,0
0,70,102,0
0,66,114,1
0,70,0,3
0,42,0,20
0,70,87,6
0,70,0,6
0,56,0,9
0,68,0,5
0,66,101,10
0,54,109,0
0,42,80,0
0,37,127,0
0,70,114,0
0,70,0,9
0,70,104,6
0,70,0,9
0,42,0,0
0,70,109,6
0,70,0,11
0,37,0,7
0,59,0,0
0,42,96,12
0,70,119,0
0,54,0,3
0,63,0,0
0,70,0,7
0,42,0,14
0,44,0,5
0,70,127,1
0,70,0,9
0,33,98,21
0,64,90,0
0,56,81,0
0,45,76,0
0,61,80,0
0,35,127,0
0,42,96,0
0,70,91,0
0,81,57,0
0,32,0,4
0,35,0,2
0,70,0,2
0,66,0,8
0,42,0,8
0,70,94,6
0,70,0,5
0,81,0,8
0,64,0,5
0,42,80,12
0,70,97,0
0,70,0,5
0,56,0,3
0,61,0,7
0,42,0,9
0,67,0,1
0,61,52,5
0,56,71,0
0,63,74,0
0,35,112,0
0,70,64,0
0,70,0,4
0,35,0,2
0,42,112,24
0,37,127,0
0,70,107,0
0,61,93,1
0,63,0,3
0,61,0,1
0,70,0,3
0,56,0,1
0,67,33,0
0,70,117,6
0,61,0,4
0,70,0,5
0,42,0,0
0,64,93,3
0,70,89,3
0,70,0,8
0,37,0,10
0,66,0,6
0,66,98,1
0,64,0,1
0,52,89,4
0,56,80,0
0,61,71,0
0,42,64,0
0,66,0,10
0,42,0,14
0,54,0,2
0,70,112,4
0,66,106,1
0,70,0,8
0,103,7,7
0,101,35,5
0,103,0,4
0,81,70,1
0,68,86,3
0,56,112,0
0,35,112,0
0,42,80,0
0,35,0,6
0,100,46,2
0,68,0,3
0,101,0,0
0,56,0,0
0,66,102,4
0,54,112,0
0,98,55,7
0,42,0,2
0,100,0,2
0,81,0,0
0,54,0,2
0,66,0,1
0,68,104,1
0,56,112,0
0,70,107,0
0,66,0,2
0,64,122,1
0,96,56,1
0,98,0,4
0,70,0,2
0,56,0,4
0,68,0,1
0,66,99,0
0,54,104,0
0,35,127,0
0,95,62,3
0,35,0,3
0,96,0,1
0,93,65,7
0,68,114,1
0,56,114,0
0,70,91,0
0,54,0,1
0,95,0,2
0,66,0,2
0,70,0,3
0,91,58,4
0,93,0,5
0,56,0,7
0,68,0,1
0,89,58,1
0,91,0,4
0,71,86,0
0,59,97,0
0,35,127,0
0,46,96,0
0,70,87,0
0,70,0,5
0,46,0,1
0,35,0,0
0,88,76,1
0,89,0,4
0,86,76,6
0,88,0,3
0,84,77,4
0,86,0,3
0,59,0,1
0,68,101,2
0,56,107,0
0,42,96,0
0,37,127,0
0,70,127,0
0,71,0,1
0,83,75,2
0,84,0,5
0,70,0,0
0,70,106,7
0,81,61,7
0,96,46,1
0,70,0,1
0,42,0,0
0,83,0,0
0,68,0,2
0,81,0,2
0,66,106,2
0,54,127,0
0,35,112,0
0,70,102,0
0,56,0,1
0,52,0,2
0,95,72,1
0,56,0,1
0,35,0,1
0,70,0,0
0,96,0,2
0,61,0,1
0,93,86,5
0,37,0,4
0,95,0,0
0,91,94,5
0,93,0,4
0,45,0,2
0,42,96,1
0,70,99,0
0,89,98,2
0,91,0,2
0,70,0,2
0,88,100,5
0,89,0,2
0,35,127,2
0,86,88,4
0,35,0,2
0,88,0,3
0,42,0,0
0,33,0,0
0,54,0,4
0,70,122,2
0,84,72,1
0,67,0,3
0,66,0,0
0,86,0,0
0,70,0,4
0,83,73,4
0,84,0,4
0,64,0,0
0,81,71,7
0,83,0,4
0,81,70,0
0,30,84,3
0,64,83,0
0,57,79,0
0,61,71,0
0,42,54,0
0,35,127,0
0,46,80,0
0,70,107,0
0,79,70,4
0,81,0,3
0,70,0,3
0,35,0,3
0,77,65,4
0,79,0,2
0,81,0,1
0,46,0,4
0,77,0,6
0,42,80,6
0,70,101,0
0,70,0,10
0,42,0,14
0,59,75,6
0,35,112,0
0,70,45,0
0,70,0,3
0,35,0,10
0,59,0,5
0,59,76,12
0,42,80,0
0,37,127,0
0,70,112,0
0,70,0,9
0,42,0,15
0,61,76,6
0,59,0,3
0,37,0,15
0,64,96,12
0,42,64,0
0,70,104,0
0,61,0,4
0,70,0,2
0,64,0,9
0,57,0,3
0,42,0,6
