track,note,velocity,time
3,67,99,7862
3,65,108,59
3,67,0,7
3,65,0,223
3,69,108,67
3,69,0,50
3,69,99,10
3,69,0,50
3,69,93,8
3,69,0,41
3,69,93,18
3,67,96,63
3,69,0,5
3,67,0,53
3,65,97,0
3,67,110,59
3,65,0,9
3,69,79,116
3,67,0,16
3,69,0,73
3,65,81,1
3,62,72,30
3,65,0,6
3,62,0,157
3,69,112,197
3,69,0,38
3,69,101,22
3,69,0,45
3,69,97,15
3,69,0,45
3,69,110,15
3,67,97,60
3,69,0,8
3,67,0,50
3,65,91,2
3,65,0,52
3,67,110,8
3,62,97,120
3,67,0,18
3,62,0,95
3,60,96,7
3,60,0,247
3,69,112,114
3,69,0,43
3,69,97,11
3,69,0,47
3,69,94,9
3,69,0,55
3,69,96,11
3,67,96,63
3,69,0,8
3,67,0,47
3,65,96,2
3,67,112,62
3,65,0,9
3,69,97,116
3,67,0,8
3,69,0,111
3,65,99,27
3,65,0,35
3,65,94,2
3,67,91,50
3,65,0,7
3,69,99,47
3,67,0,12
3,69,0,38
3,69,108,13
3,69,0,179
3,67,85,7
3,65,77,30
3,67,0,12
3,62,68,18
3,65,0,1
3,60,84,29
3,62,0,7
3,60,0,142
3,67,96,0
3,65,84,62
3,67,0,7
3,65,0,173
3,72,104,416
3,69,85,58
3,72,0,6
3,72,91,53
3,69,0,4
3,69,102,58
3,72,0,9
3,67,90,50
3,69,0,10
3,65,99,48
3,67,0,2
3,67,115,62
3,65,0,9
3,69,96,122
3,67,0,2
3,65,81,67
3,69,0,9
3,62,80,27
3,65,0,4
3,62,0,136
3,69,110,229
3,69,0,40
3,69,99,15
3,69,0,43
3,69,96,13
3,69,0,46
3,69,90,12
3,67,102,62
3,69,0,10
3,65,93,49
3,67,0,5
3,67,108,57
3,65,0,10
3,62,110,122
3,67,0,6
3,60,102,106
3,62,0,2
3,60,0,261
3,69,91,92
3,69,0,45
3,69,91,16
3,69,0,40
3,69,78,19
3,69,0,37
3,69,84,21
3,67,79,62
3,69,0,10
3,65,82,48
3,67,0,2
3,67,96,60
3,65,0,11
3,69,84,111
3,67,0,8
3,69,0,176
3,65,89,121
3,67,88,30
3,65,0,2
3,69,89,28
3,67,0,6
3,69,0,159
3,65,84,15
3,67,81,30
3,65,0,1
3,69,89,29
3,67,0,7
3,65,76,173
3,69,0,10
3,67,81,20
3,65,0,1
3,67,0,29
3,69,93,0
3,62,85,120
3,69,0,15
3,65,91,45
3,62,0,9
3,65,0,51
3,62,80,0
3,69,89,60
3,62,0,2
3,67,81,58
3,69,0,11
3,65,85,49
3,67,0,8
3,65,0,39
3,65,97,13
3,65,0,106
3,69,108,68
3,69,0,115
3,65,91,2
3,65,0,51
3,67,86,7
3,69,108,64
3,67,0,11
3,67,101,113
3,69,0,4
3,67,0,49
3,65,108,8
3,65,0,120
3,62,106,0
3,65,83,122
3,62,0,35
3,65,0,13
3,67,89,21
3,67,0,42
3,69,88,2
3,65,97,125
3,69,0,6
3,67,104,46
3,65,0,8
3,67,0,52
3,69,85,11
3,69,0,111
3,65,110,6
3,67,99,49
3,65,0,8
3,69,97,59
3,67,0,4
3,67,102,57
3,69,0,10
3,69,108,56
3,67,0,5
3,67,106,55
3,69,0,3
3,69,97,55
3,67,0,5
3,67,110,50
3,69,0,5
3,65,97,60
3,67,0,16
3,65,0,22
3,65,85,23
3,62,82,54
3,65,0,6
3,60,89,30
3,62,0,12
3,60,0,127
3,69,117,13
3,69,0,114
3,65,96,4
3,65,0,31
3,67,108,23
3,67,0,51
3,69,115,13
3,67,117,115
3,69,0,7
3,67,0,56
3,65,115,4
3,65,0,124
3,62,106,3
3,62,0,101
3,65,112,16
3,67,99,53
3,65,0,9
3,69,102,50
3,67,0,7
3,69,0,100
3,65,110,14
3,65,0,52
3,67,104,2
3,69,110,67
3,67,0,8
3,69,0,97
3,65,108,15
3,65,0,58
3,67,99,0
3,69,108,60
3,67,0,7
3,67,108,55
3,69,0,3
3,69,101,60
3,67,0,8
3,67,97,49
3,69,0,4
3,69,106,53
3,67,0,6
3,67,110,52
3,69,0,16
3,65,97,41
3,67,0,5
3,65,0,33
3,65,106,18
3,65,0,63
3,67,104,4
3,69,80,129
3,67,0,1
3,67,83,27
3,69,0,9
3,67,0,20
3,65,76,1
3,65,0,59
3,65,97,1
3,65,0,268
3,60,100,1502
3,60,0,30
3,69,93,3
3,69,0,43
3,69,89,11
3,69,0,39
3,69,97,19
3,69,0,42
3,69,96,19
3,67,78,54
3,69,0,10
3,65,90,54
3,67,0,1
3,67,93,58
3,65,0,1
3,69,82,133
3,67,0,2
3,65,76,60
3,69,0,7
3,65,0,20
3,62,73,0
3,62,0,175
3,69,94,204
3,69,0,50
3,69,91,12
3,69,0,45
3,69,91,16
3,69,0,43
3,69,90,13
3,67,93,57
3,69,0,6
3,65,89,58
3,67,0,10
3,65,0,42
3,67,97,7
3,62,97,120
3,67,0,7
3,60,91,108
3,62,0,2
3,60,0,236
3,69,93,137
3,69,0,42
3,69,101,9
3,69,0,44
3,69,97,12
3,69,0,45
3,69,86,14
3,67,96,65
3,69,0,12
3,65,97,42
3,67,0,3
3,67,106,64
3,65,0,10
3,69,88,108
3,67,0,2
3,69,0,151
3,65,90,36
3,67,93,57
3,65,0,7
3,69,89,46
3,67,0,6
3,69,0,47
3,69,99,12
3,69,0,173
3,67,76,9
3,65,81,30
3,67,0,1
3,65,0,29
3,62,93,0
3,62,0,20
3,60,79,10
3,67,96,147
3,60,0,23
3,65,91,38
3,67,0,14
3,65,0,333
3,72,96,252
3,69,88,56
3,72,0,5
3,72,93,59
3,69,0,6
3,69,91,50
3,72,0,5
3,67,90,54
3,69,0,17
3,65,94,44
3,67,0,5
3,67,108,63
3,65,0,9
3,69,104,111
3,67,0,7
3,69,0,81
3,65,97,1
3,62,93,31
3,65,0,22
3,62,0,140
3,69,104,196
3,69,0,54
3,69,91,10
3,69,0,48
3,69,96,8
3,69,0,50
3,69,97,11
3,67,110,60
3,69,0,7
3,67,0,48
3,65,101,2
3,65,0,54
3,67,120,9
3,62,112,120
3,67,0,10
3,60,101,98
3,62,0,1
3,60,0,323
3,69,93,59
3,69,0,44
3,69,91,8
3,69,0,41
3,69,89,16
3,69,0,41
3,69,93,18
3,67,110,59
3,69,0,20
3,67,0,31
3,65,99,9
3,65,0,58
3,67,115,3
3,69,101,113
3,67,0,14
3,69,0,169
3,65,93,125
3,67,93,29
3,65,0,8
3,69,99,21
3,67,0,5
3,69,0,172
3,65,88,4
3,67,72,29
3,65,0,5
3,69,96,25
3,67,0,6
3,69,0,138
3,65,88,34
3,65,0,20
3,67,86,14
3,69,94,29
3,67,0,4
3,62,80,116
3,69,0,4
3,65,91,56
3,62,0,3
3,65,0,49
3,62,80,6
3,69,91,61
3,62,0,5
3,69,0,50
3,67,104,5
3,65,101,54
3,67,0,13
3,65,0,12
3,65,127,41
3,65,0,129
3,69,86,52
3,69,0,116
3,65,89,5
3,65,0,59
3,67,91,0
3,67,0,54
3,69,112,9
3,69,0,104
3,67,102,14
3,67,0,54
3,65,106,12
3,65,0,105
3,62,93,9
3,62,0,104
3,65,112,17
3,65,0,44
3,67,89,9
3,69,110,67
3,67,0,6
3,69,0,96
3,65,102,20
3,67,99,58
3,65,0,4
3,69,106,56
3,67,0,5
3,69,0,84
3,65,110,28
3,67,97,60
3,65,0,3
3,69,110,57
3,67,0,4
3,67,106,58
3,69,0,2
3,69,101,52
3,67,0,10
3,69,0,58
3,67,99,1
3,67,0,52
3,69,77,2
3,67,106,63
3,69,0,5
3,65,85,54
3,67,0,8
3,65,0,18
3,65,104,35
3,65,0,39
3,65,77,21
3,65,0,24
3,62,69,5
3,62,0,29
3,60,71,2
3,60,0,59
3,69,97,58
3,69,0,110
3,65,89,13
3,67,96,57
3,65,0,13
3,67,0,34
3,69,110,16
3,69,0,98
3,67,115,18
3,67,0,59
3,65,110,8
3,62,110,117
3,65,0,5
3,62,0,114
3,65,106,0
3,67,99,53
3,65,0,8
3,69,108,56
3,67,0,10
3,69,0,83
3,65,106,23
3,67,89,59
3,65,0,7
3,69,115,58
3,67,0,7
3,69,0,98
3,65,99,15
3,67,97,55
3,65,0,7
3,69,110,54
3,67,0,7
3,67,101,56
3,69,0,1
3,69,108,55
3,67,0,10
3,67,104,53
3,69,0,6
3,69,90,54
3,67,0,12
3,67,97,42
3,69,0,16
3,67,0,44
3,65,94,9
3,65,0,33
3,65,93,25
3,65,0,59
3,67,106,7
3,67,0,119
3,69,77,0
3,67,80,30
3,69,0,10
3,65,93,20
3,67,0,1
3,65,0,58
3,65,88,1
3,65,0,340
3,69,108,3433
3,69,0,122
3,65,84,2
3,65,0,24
3,67,99,38
3,67,0,29
3,69,108,33
3,69,0,100
3,67,106,19
3,67,0,32
3,65,106,34
3,65,0,110
3,62,104,4
3,62,0,126
3,65,94,0
3,67,79,50
3,65,0,6
3,69,96,56
3,67,0,9
3,69,0,108
3,65,104,1
3,67,97,60
3,65,0,2
3,69,76,60
3,67,0,13
3,65,78,108
3,69,0,2
3,67,93,53
3,65,0,4
3,69,106,61
3,67,0,6
3,69,0,53
3,67,106,2
3,69,106,61
3,67,0,8
3,67,106,53
3,69,0,4
3,69,106,55
3,67,0,5
3,67,108,56
3,69,0,7
3,65,96,46
3,67,0,3
3,65,0,25
3,65,106,34
3,65,0,67
3,62,102,0
3,62,0,24
3,60,104,3
3,60,0,104
3,69,104,45
3,69,0,119
3,65,108,8
3,65,0,47
3,67,106,12
3,67,0,30
3,69,117,28
3,69,0,98
3,67,112,12
3,67,0,62
3,65,108,3
3,65,0,126
3,62,104,4
3,62,0,74
3,65,110,44
3,67,99,57
3,65,0,5
3,69,110,49
3,67,0,5
3,69,0,114
3,65,104,2
3,67,94,60
3,65,0,8
3,69,101,52
3,67,0,12
3,69,0,72
3,65,94,38
3,67,97,58
3,65,0,10
3,69,94,50
3,67,0,5
3,67,99,56
3,69,0,8
3,67,0,33
3,69,93,17
3,69,0,65
3,67,91,0
3,69,83,49
3,67,0,2
3,69,0,31
3,67,90,26
3,67,0,65
3,65,88,0
3,65,0,38
3,65,86,24
3,65,0,57
3,67,96,5
3,69,79,120
3,67,0,8
3,69,0,10
3,67,77,12
3,67,0,29
3,65,79,1
3,65,0,59
3,65,79,1
3,65,0,299
3,69,110,1556
3,69,0,103
3,65,108,13
3,65,0,26
3,67,115,35
3,67,0,41
3,69,117,22
3,69,0,99
3,67,115,23
3,67,0,51
3,65,108,17
3,65,0,120
3,62,101,0
3,62,0,96
3,65,106,26
3,67,96,57
3,65,0,4
3,69,94,50
3,67,0,7
3,69,0,73
3,65,104,51
3,67,94,54
3,65,0,8
3,69,102,46
3,67,0,7
3,69,0,112
3,65,88,3
3,67,97,61
3,65,0,12
3,69,94,43
3,67,0,11
3,69,0,48
3,67,106,5
3,67,0,59
3,69,106,6
3,67,106,55
3,69,0,6
3,69,96,55
3,67,0,4
3,67,110,56
3,69,0,12
3,65,89,46
3,67,0,5
3,65,0,37
3,65,96,20
3,62,85,55
3,65,0,12
3,60,101,23
3,62,0,5
3,60,0,71
3,69,123,74
3,69,0,119
3,65,88,1
3,65,0,53
3,67,99,4
3,69,115,63
3,67,0,14
3,69,0,78
3,67,108,26
3,67,0,44
3,65,106,18
3,62,94,120
3,65,0,1
3,62,0,58
3,65,99,61
3,65,0,59
3,67,89,1
3,67,0,59
3,69,94,1
3,69,0,119
3,65,89,1
3,65,0,59
3,67,81,1
3,67,0,59
3,69,81,1
3,69,0,119
3,65,108,1
3,65,0,59
3,67,94,1
3,67,0,59
3,69,82,1
3,69,0,59
3,67,96,1
3,67,0,59
3,69,84,1
3,69,0,59
3,67,93,1
3,67,0,59
3,69,94,1
3,69,0,59
3,67,102,1
3,67,0,59
3,65,86,1
3,65,0,59
3,65,86,1
3,65,0,59
3,67,106,1
3,67,0,67
3,65,85,1
3,65,0,245
4,77,76,480
4,69,71,0
4,72,74,0
4,72,0,479
4,69,0,0
4,77,0,0
4,79,81,1
4,70,72,0
4,74,89,0
4,74,0,479
4,70,0,0
4,79,0,0
4,77,68,1
4,72,72,0
4,69,64,0
4,69,0,479
4,72,0,0
4,77,0,0
4,79,68,1
4,74,70,0
4,70,47,0
4,70,0,239
4,74,0,0
4,79,0,0
4,79,62,1
4,70,67,0
4,74,55,0
4,84,59,0
4,84,0,239
4,79,0,0
4,70,0,0
4,74,0,0
4,67,79,1
4,72,79,0
4,65,68,0
4,41,66,0
4,53,62,0
4,88,88,0
4,76,80,0
4,76,0,479
4,53,0,0
4,72,0,0
4,65,0,0
4,67,0,0
4,88,0,0
4,41,0,0
4,74,83,1
4,70,79,0
4,67,67,0
4,43,70,0
4,55,65,0
4,89,99,0
4,77,84,0
4,77,0,239
4,89,0,0
4,81,77,1
4,93,102,0
4,93,0,239
4,70,0,0
4,55,0,0
4,67,0,0
4,74,0,0
4,81,0,0
4,43,0,0
4,41,77,1
4,79,78,0
4,77,72,0
4,53,77,0
4,69,76,0
4,72,86,0
4,84,93,0
4,96,101,0
4,72,0,479
4,53,0,0
4,41,0,0
4,79,0,0
4,77,0,0
4,69,0,0
4,82,79,1
4,43,68,0
4,70,67,0
4,77,89,0
4,55,72,0
4,55,0,479
4,70,0,0
4,96,0,0
4,82,0,0
4,84,0,0
4,77,0,0
4,43,0,0
4,72,84,24781
4,74,93,60
4,72,0,19
4,77,88,41
4,74,0,15
4,89,56,45
4,81,52,0
4,77,0,14
4,81,0,465
4,89,0,0
4,82,63,1
4,91,65,0
4,91,0,479
4,82,0,0
4,84,64,1
4,93,66,0
4,93,0,479
4,84,0,0
4,91,68,1
4,82,53,0
4,82,0,479
4,91,0,0
4,89,58,1
4,81,61,0
4,81,0,479
4,89,0,0
4,91,71,1
4,82,64,0
4,82,0,479
4,91,0,0
4,81,66,1
4,89,73,0
4,89,0,479
4,81,0,0
4,86,71,1
4,79,48,0
4,79,0,479
4,86,0,0
4,81,66,1
4,84,55,0
4,84,0,479
4,81,0,0
4,43,76,1
4,58,71,0
4,55,49,0
4,55,0,479
4,58,0,0
4,43,0,0
4,57,76,1
4,41,72,0
4,53,67,0
4,53,0,479
4,41,0,0
4,57,0,0
4,58,74,1
4,55,70,0
4,43,76,0
4,43,0,479
4,55,0,0
4,58,0,0
4,57,72,1
4,41,59,0
4,60,66,0
4,53,57,0
4,53,0,479
4,57,0,0
4,41,0,0
4,60,0,0
4,58,78,1
4,43,78,0
4,55,72,0
4,55,0,479
4,43,0,0
4,58,0,0
4,57,71,1
4,60,68,0
4,53,65,0
4,41,63,0
4,41,0,479
4,57,0,0
4,60,0,0
4,53,0,0
4,43,74,1
4,58,79,0
4,55,57,0
4,62,75,0
4,62,0,479
4,43,0,0
4,58,0,0
4,55,0,0
4,81,76,1
4,77,83,0
4,72,72,0
4,72,0,479
4,77,0,0
4,81,0,0
4,74,72,1
4,82,78,0
4,79,76,0
4,79,0,479
4,82,0,0
4,74,0,0
4,81,55,1
4,84,61,0
4,77,66,0
4,77,0,479
4,84,0,0
4,81,0,0
4,82,69,1
4,74,72,0
4,79,86,0
4,79,0,479
4,74,0,0
4,82,0,0
4,53,70,1
4,77,70,0
4,65,63,0
4,72,70,0
4,81,78,0
4,81,0,479
4,65,0,0
4,53,0,0
4,77,0,0
4,72,0,0
4,55,76,1
4,74,84,0
4,70,62,0
4,67,71,0
4,79,52,0
4,79,0,479
4,70,0,0
4,55,0,0
4,74,0,0
4,67,0,0
4,77,79,1
4,69,75,0
4,53,73,0
4,72,85,0
4,72,0,479
4,77,0,0
4,69,0,0
4,53,0,0
4,67,72,1
4,70,78,0
4,74,75,0
4,43,69,0
4,55,66,0
4,55,0,479
4,74,0,0
4,67,0,0
4,70,0,0
4,43,0,0
4,77,73,1
4,72,74,0
4,69,62,0
4,69,0,479
4,72,0,0
4,77,0,0
4,79,72,1
4,70,67,0
4,74,85,0
4,74,0,479
