track,note,velocity,time
0,67,36,25
0,63,33,15
0,59,65,17
0,31,20,3
0,63,0,11
0,43,75,1
0,31,0,2
0,63,84,4
0,59,0,5
0,67,0,2
0,43,0,1
0,31,67,1
0,67,76,4
0,63,0,1
0,59,85,3
0,43,78,0
0,31,0,2
0,67,0,7
0,43,0,5
0,59,0,1
0,67,84,0
0,31,86,0
0,43,70,6
0,31,0,5
0,59,66,0
0,67,0,5
0,43,0,1
0,63,68,0
0,59,0,5
0,31,83,0
0,67,89,3
0,63,0,2
0,43,75,0
0,31,0,6
0,59,72,2
0,67,0,4
0,43,0,3
0,31,95,1
0,67,70,3
0,59,0,3
0,43,92,7
0,31,0,2
0,59,77,0
0,67,0,6
0,43,0,3
0,31,99,1
0,59,0,3
0,67,87,1
0,43,82,8
0,59,70,1
0,31,0,1
0,67,0,1
0,43,0,8
0,67,82,0
0,59,0,1
0,63,26,0
0,31,99,1
0,63,0,3
0,43,81,4
0,59,77,2
0,31,0,1
0,67,0,1
0,67,67,9
0,43,0,2
0,31,103,1
0,59,0,1
0,43,79,9
0,59,65,0
0,31,0,1
0,63,84,9
0,43,0,1
0,31,102,1
0,59,0,2
0,67,0,8
0,43,89,0
0,59,83,3
0,31,0,1
0,67,92,8
0,43,0,1
0,59,0,1
0,31,98,3
0,63,0,2
0,67,0,7
0,63,65,1
0,59,85,0
0,43,99,1
0,31,0,5
0,67,97,2
0,43,0,3
0,63,0,3
0,59,0,1
0,31,74,1
0,67,0,5
0,59,83,0
0,43,109,1
0,67,92,8
0,43,0,2
0,59,0,7
0,59,87,4
0,67,0,2
0,43,103,1
0,63,90,0
0,67,90,7
0,31,0,138
0,43,0,4
0,60,83,4
0,67,0,20
0,63,0,6
0,59,0,1
0,60,64,14
0,48,84,8
0,60,0,37
0,62,81,0
0,63,73,47
0,62,0,3
0,65,84,45
0,63,0,6
0,65,0,23
0,48,0,2
0,60,0,5
0,58,69,3
0,72,74,5
0,48,60,2
0,72,0,40
0,74,91,3
0,75,66,51
0,74,0,2
0,56,77,1
0,58,0,6
0,77,80,40
0,75,0,5
0,77,0,6
0,55,73,44
0,56,0,4
0,72,67,3
0,75,84,8
0,79,86,12
0,72,0,66
0,79,0,2
0,48,0,0
0,75,0,1
0,53,68,3
0,55,0,4
0,59,54,2
0,63,62,3
0,67,74,7
0,63,0,4
0,31,87,0
0,63,39,8
0,67,0,3
0,31,0,3
0,43,58,1
0,59,0,1
0,67,54,2
0,67,0,6
0,63,0,0
0,59,79,0
0,43,0,1
0,31,62,0
0,31,0,6
0,63,6,1
0,43,58,0
0,67,80,3
0,59,0,2
0,43,0,6
0,67,0,0
0,31,100,2
0,59,72,2
0,59,0,6
0,67,82,1
0,31,0,2
0,43,66,1
0,63,0,3
0,67,0,2
0,59,82,1
0,63,23,0
0,31,89,4
0,43,0,3
0,67,69,0
0,59,0,1
0,63,0,3
0,67,0,4
0,31,0,0
0,43,92,0
0,59,80,1
0,67,83,8
0,31,105,2
0,59,0,1
0,43,0,1
0,67,0,5
0,59,76,2
0,31,0,2
0,43,90,0
0,67,73,4
0,31,91,6
0,43,0,1
0,59,0,0
0,63,53,3
0,67,0,1
0,59,52,3
0,31,0,2
0,43,109,2
0,59,0,5
0,67,76,0
0,63,0,1
0,43,0,5
0,67,0,3
0,59,95,1
0,31,91,1
0,63,63,0
0,63,0,5
0,43,67,1
0,67,85,1
0,31,0,2
0,59,0,0
0,67,0,7
0,59,81,1
0,63,74,2
0,43,0,1
0,31,102,2
0,59,0,4
0,67,81,0
0,63,0,3
0,43,88,3
0,31,0,1
0,67,0,1
0,59,86,1
0,53,0,3
0,43,0,5
0,67,84,2
0,59,0,1
0,31,103,0
0,67,0,8
0,59,80,0
0,43,95,1
0,31,0,1
0,67,95,6
0,59,0,2
0,43,0,1
0,31,101,2
0,67,0,6
0,59,82,1
0,43,97,2
0,31,0,4
0,67,90,2
0,59,0,1
0,43,0,3
0,31,106,3
0,59,80,3
0,67,0,1
0,63,68,4
0,43,86,2
0,31,0,3
0,59,0,1
0,67,88,2
0,63,0,2
0,43,0,2
0,31,102,2
0,59,89,3
0,67,0,1
0,63,21,5
0,43,86,1
0,31,0,4
0,67,79,0
0,59,0,2
0,63,0,1
0,50,105,0
0,43,0,3
0,59,80,3
0,67,0,1
0,63,85,0
0,31,110,1
0,43,71,5
0,59,0,3
0,67,93,0
0,31,0,3
0,63,0,1
0,43,0,2
0,67,0,5
0,59,70,0
0,63,61,2
0,31,98,0
0,51,93,2
0,43,100,2
0,67,76,0
0,63,0,1
0,50,0,2
0,59,0,1
0,31,0,3
0,43,0,1
0,67,0,3
0,59,75,0
0,63,69,3
0,43,95,1
0,31,52,6
0,63,0,1
0,67,92,1
0,59,0,1
0,31,0,1
0,43,0,0
0,31,42,4
0,67,0,4
0,63,81,1
0,59,74,1
0,43,85,4
0,63,0,4
0,59,0,1
0,31,0,0
0,67,102,0
0,51,0,4
0,53,92,0
0,31,98,5
0,59,83,0
0,63,84,1
0,67,0,3
0,59,0,5
0,63,0,0
0,31,0,4
0,43,0,1
0,55,114,12
0,53,0,5
0,58,102,30
0,55,0,5
0,58,0,33
0,60,102,3
0,63,127,0
0,60,0,6
0,63,122,10
0,72,119,0
0,67,127,0
0,36,103,0
0,48,116,2
0,65,114,39
0,63,0,1
0,63,0,1
0,48,0,2
0,36,0,9
0,67,0,0
0,63,67,3
0,72,0,7
0,36,70,9
0,72,95,2
0,63,0,1
0,67,58,0
0,67,112,0
0,65,0,1
0,67,0,4
0,36,0,5
0,63,59,0
0,72,0,2
0,48,67,2
0,72,85,6
0,63,0,1
0,48,0,3
0,36,79,0
0,63,67,8
0,72,0,1
0,48,79,1
0,36,0,3
0,72,94,3
0,63,0,1
0,36,94,2
0,48,0,2
0,67,0,6
0,72,123,0
0,63,63,1
0,48,70,1
0,72,0,3
0,36,0,0
0,63,0,6
0,72,80,0
0,36,92,4
0,48,0,1
0,72,0,6
0,63,69,2
0,48,75,2
0,36,0,2
0,72,87,3
0,63,0,2
0,48,0,4
0,36,99,2
0,63,69,3
0,72,0,2
0,36,0,4
0,48,89,1
0,63,0,3
0,72,7,0
0,72,0,4
0,70,110,0
0,36,91,5
0,48,0,1
0,72,0,1
0,63,69,1
0,36,0,7
0,72,73,1
0,63,0,2
0,48,68,0
0,36,47,7
0,72,0,2
0,48,0,1
0,63,61,1
0,70,0,7
0,36,0,0
0,63,0,2
0,72,87,0
0,48,78,0
0,67,127,0
0,72,0,11
0,63,66,1
0,48,0,2
0,72,82,3
0,36,93,1
0,63,0,2
0,36,0,11
0,72,0,1
0,63,78,0
0,48,90,1
0,72,75,5
0,63,0,4
0,48,0,5
0,36,87,3
0,63,82,2
0,72,0,2
0,48,98,2
0,36,0,5
0,72,89,1
0,63,0,1
0,48,0,4
0,36,101,4
0,72,0,5
0,63,79,0
0,48,71,2
0,67,0,5
0,36,0,3
0,72,87,1
0,63,0,2
0,48,0,3
0,36,94,3
0,72,0,3
0,63,79,2
0,48,80,2
0,36,0,6
0,72,100,2
0,63,0,3
0,48,0,2
0,36,92,2
0,72,0,6
0,63,74,0
0,48,57,3
0,36,0,4
0,63,0,2
0,72,98,3
0,36,97,1
0,48,0,3
0,72,123,3
0,72,0,4
0,63,85,0
0,36,0,4
0,48,92,3
0,72,100,2
0,63,0,2
0,48,0,7
0,63,74,1
0,72,0,1
0,72,0,2
0,75,124,1
0,36,68,1
0,48,109,1
0,67,32,3
0,63,0,2
0,72,86,0
0,67,0,3
0,48,0,10
0,36,0,2
0,75,0,14
0,72,0,1
0,72,31,5
0,77,127,1
0,43,124,16
0,72,0,17
0,43,0,13
0,77,0,5
0,75,127,9
0,42,104,6
0,42,0,18
0,75,0,39
0,72,106,2
0,72,0,16
0,70,98,6
0,29,101,14
0,53,107,0
0,41,90,0
0,57,113,1
0,60,107,0
0,70,0,8
0,48,107,3
0,60,116,0
0,41,0,27
0,53,0,0
0,57,0,5
0,41,74,5
0,53,72,0
0,67,122,1
0,29,0,4
0,60,0,5
0,57,79,0
0,41,0,6
0,53,0,0
0,29,65,2
0,60,73,3
0,57,0,3
0,41,79,4
0,53,64,3
0,60,0,1
0,29,0,1
0,57,82,0
0,41,0,8
0,53,0,0
0,57,0,2
0,60,67,0
0,29,88,0
0,53,76,9
0,41,82,0
0,60,0,1
0,29,0,4
0,57,71,1
0,41,0,5
0,53,0,2
0,60,75,1
0,57,0,1
0,29,70,0
0,41,91,8
0,60,0,1
0,57,74,1
0,53,56,0
0,29,0,4
0,41,0,7
0,53,0,0
0,60,70,0
0,29,95,4
0,57,0,3
0,60,0,2
0,41,82,1
0,53,79,2
0,57,20,2
0,29,0,1
0,57,0,5
0,41,0,3
0,60,80,0
0,53,0,4
0,29,88,0
0,41,67,7
0,60,0,2
0,57,59,1
0,53,65,0
0,29,0,3
0,60,86,5
0,53,0,1
0,41,0,2
0,29,95,1
0,60,0,6
0,53,63,4
0,41,82,1
0,29,0,3
0,53,0,6
0,41,0,1
0,60,77,0
0,57,0,2
0,29,89,0
0,60,0,4
0,53,69,3
0,57,12,3
0,41,86,0
0,29,0,4
0,60,62,4
0,53,0,2
0,41,0,0
0,29,86,3
0,60,0,3
0,53,76,2
0,41,85,3
0,29,0,6
0,60,89,1
0,57,0,3
0,41,0,0
0,53,0,2
0,29,92,2
0,57,61,0
0,60,0,2
0,53,16,3
0,41,43,5
0,60,78,2
0,29,0,1
0,53,0,1
0,60,0,4
0,41,0,1
0,53,69,3
0,29,92,1
0,29,0,10
0,57,0,1
0,41,67,1
0,60,68,0
0,53,0,3
0,60,0,8
0,41,0,7
0,58,97,30
0,63,87,1
0,43,79,0
0,31,103,0
0,55,76,0
0,63,0,7
0,58,0,0
0,55,0,1
0,67,0,1
0,43,0,5
0,31,0,1
0,55,77,12
0,58,65,0
0,63,63,1
0,31,89,4
0,43,85,0
0,43,0,9
0,58,0,0
0,63,0,1
0,55,0,0
0,31,0,0
0,31,84,13
0,43,89,2
0,55,78,0
0,63,81,0
0,58,70,0
0,55,0,8
0,43,0,0
0,31,0,1
0,58,0,1
0,63,0,5
0,44,91,24
0,60,105,0
0,32,87,0
0,56,101,1
0,63,89,0
0,56,0,20
0,44,0,1
0,63,0,1
0,60,0,1
0,32,0,0
0,70,102,16
0,70,0,17
0,72,104,1
0,72,0,26
0,75,117,4
0,75,0,56
0,72,104,7
0,72,0,20
0,72,127,17
0,72,0,46
0,56,84,33
0,60,72,1
0,63,58,0
0,44,87,1
0,32,75,0
0,63,0,17
0,60,0,0
0,56,0,0
0,44,0,3
0,32,0,0
0,56,82,9
0,60,92,3
0,44,78,0
0,63,69,1
0,32,79,0
0,32,0,13
0,63,0,0
0,56,0,1
0,60,0,0
0,44,0,1
0,56,73,17
0,44,71,0
0,32,71,0
0,63,70,2
0,60,93,1
0,60,0,9
0,56,0,1
0,44,0,1
0,32,0,4
0,63,0,3
0,48,0,2
0,67,116,1
0,55,97,0
0,60,0,4
0,53,95,3
0,59,101,0
0,43,75,0
0,63,86,2
0,31,99,0
0,63,0,16
0,70,106,25
0,63,11,6
0,53,0,1
0,59,0,0
0,43,0,5
0,63,0,2
0,31,0,2
0,70,0,2
0,72,108,4
0,43,24,6
0,31,46,5
0,72,0,7
0,43,0,11
0,77,127,4
0,53,42,4
0,43,72,2
0,31,0,8
0,59,65,6
0,31,54,1
0,43,0,3
0,53,0,1
0,78,109,4
0,77,0,1
0,59,0,4
0,43,73,2
0,53,51,0
0,55,31,3
0,31,0,1
0,78,0,2
0,55,0,7
0,43,0,3
0,53,0,2
0,31,66,0
0,77,127,1
0,55,55,1
0,43,70,10
0,31,0,6
0,55,0,2
0,59,87,0
0,43,0,5
0,31,51,4
0,59,0,2
0,53,76,4
0,43,65,0
0,55,36,1
0,31,0,1
0,55,0,4
0,59,66,3
0,53,0,2
0,43,0,3
0,59,0,1
0,31,80,1
0,55,20,5
0,53,64,3
0,43,80,2
0,55,0,1
0,31,0,4
0,55,51,5
0,77,0,1
0,53,0,1
0,75,127,0
0,43,0,2
0,31,92,1
0,59,47,1
0,59,0,5
0,53,61,1
0,43,64,5
0,55,0,4
0,31,0,0
0,59,79,3
0,53,0,1
0,43,0,3
0,31,75,1
0,59,0,3
0,55,44,2
0,53,56,3
0,43,84,5
0,53,0,4
0,31,0,4
0,43,0,7
0,53,39,4
0,31,36,2
0,55,0,1
0,59,89,2
0,77,113,0
0,53,0,5
0,59,0,6
0,55,64,2
0,55,0,10
0,75,0,0
0,43,89,0
0,59,65,2
0,31,0,5
0,75,122,2
0,43,0,1
0,59,0,0
0,55,79,2
0,77,0,1
0,31,69,2
0,59,86,7
0,55,0,1
0,43,81,2
0,31,0,1
0,53,79,6
0,59,0,1
0,43,0,6
0,31,93,0
0,53,0,2
0,75,0,3
0,72,113,2
0,31,0,6
0,43,77,0
0,53,47,1
0,43,0,9
0,31,83,1
0,72,0,1
0,53,0,0
0,59,70,4
0,43,73,7
0,31,0,1
0,53,58,1
0,72,109,0
0,59,0,2
0,55,36,5
0,53,0,4
0,31,87,2
0,43,0,1
0,55,0,2
0,59,58,0
0,59,0,10
0,53,33,0
0,43,70,2
0,31,0,1
0,55,46,3
0,55,0,3
0,70,72,0
0,31,97,3
0,72,0,1
0,43,84,0
0,59,66,1
0,53,0,1
0,43,0,0
0,31,82,1
0,59,0,7
0,55,58,2
0,53,9,5
0,43,76,1
0,53,0,3
0,31,0,1
0,59,82,1
0,70,0,1
0,55,0,1
0,43,0,2
0,67,114,0
0,31,60,4
0,59,0,5
0,67,0,2
0,53,60,0
0,31,0,3
0,43,72,0
0,53,0,8
0,59,66,0
0,43,0,8
0,67,104,0
0,31,79,1
0,59,0,2
0,53,31,7
0,59,55,9
0,53,0,1
0,31,0,1
0,43,48,0
0,59,0,6
0,55,41,4
0,67,0,2
0,65,103,0
0,53,20,1
0,43,0,1
0,31,84,4
0,55,0,1
0,59,80,0
0,53,0,2
0,59,0,9
0,31,0,4
0,43,73,0
0,53,34,0
0,55,50,2
0,63,110,6
0,43,0,3
0,55,0,1
0,65,0,0
0,59,65,0
0,53,0,3
0,31,58,1
0,59,0,4
0,53,50,2
0,43,73,0
0,31,0,7
0,59,67,5
0,31,56,1
0,55,33,0
0,55,0,13
0,67,0,2
0,63,0,2
0,65,101,1
0,63,90,28
0,65,0,1
0,63,0,27
0,60,99,4
0,63,69,26
0,60,0,2
0,60,86,37
0,63,0,5
0,58,72,36
0,60,0,9
0,58,0,32
0,70,101,0
0,70,0,29
0,72,103,2
0,72,0,45
0,75,111,3
0,74,105,57
0,75,0,4
0,74,0,31
0,74,118,20
0,55,0,68
0,59,0,4
0,53,0,2
0,74,0,96
0,72,96,19
0,72,0,71
0,43,0,1
0,77,106,4
0,31,0,8
0,77,0,62
0,75,102,5
0,75,0,59
0,72,98,3
0,70,111,80
0,72,0,3
0,70,0,45
0,66,91,7
0,66,0,0
0,65,114,1
0,65,0,48
0,71,71,39
0,67,89,19
0,55,82,2
0,71,0,129
0,67,98,2
0,55,0,80
0,67,0,5
0,67,0,19
0,74,114,6
0,74,0,120
0,70,110,1
0,70,0,51
0,91,98,64
0,43,0,9
0,31,0,1
0,72,108,5
0,63,97,0
0,36,108,0
0,67,108,0
0,48,102,2
0,65,115,12
0,63,0,22
0,63,34,6
0,63,109,2
0,67,0,3
0,65,0,2
0,36,0,5
0,72,0,4
0,67,58,4
0,72,76,0
0,63,0,3
0,36,84,0
0,48,0,1
0,63,0,2
0,65,87,1
0,67,0,8
0,48,52,0
0,63,56,1
0,72,0,3
0,36,0,3
0,67,42,2
0,72,76,1
0,63,0,2
0,36,48,1
0,48,0,1
0,65,0,2
0,67,101,2
0,67,0,4
0,63,61,1
0,48,72,0
0,72,0,3
0,36,0,0
0,63,0,7
0,67,31,0
0,72,89,0
0,48,0,4
0,36,90,1
0,48,64,6
0,63,59,1
0,67,0,2
