track,note,velocity,time
1,29,59,10588
1,34,83,14
1,34,74,64
1,34,89,44
1,34,85,90
1,29,85,30
1,34,77,0
1,36,85,22
1,29,92,384
1,28,89,28
1,29,77,16
1,30,85,20
1,30,89,0
1,31,87,10
1,31,85,48
1,29,85,4
1,34,87,10
1,36,81,128
1,38,81,14
1,39,87,16
1,34,87,0
1,39,87,128
1,39,83,50
1,36,87,128
1,38,87,24
1,36,83,24
1,34,85,2
1,38,83,768
1,39,83,4
1,34,79,20
1,39,85,128
1,38,83,8
1,36,85,128
1,34,83,20
1,36,75,44
1,31,79,384
1,31,85,54
1,36,78,128
1,29,87,38
1,31,83,8
1,32,87,6
1,33,87,4
1,26,87,40
1,31,85,384
1,36,83,1122
1,30,85,4
1,29,87,384
1,27,81,28
1,28,78,10
1,29,85,8
1,33,89,768
1,34,83,370
1,29,79,74
1,34,81,34
1,29,81,46
1,31,78,4
1,29,85,18
1,34,89,4
1,29,79,2
1,22,83,2
1,22,81,90
1,29,78,2
1,30,83,8
1,31,85,8
1,30,83,2
1,24,83,2
1,29,85,2
1,28,81,4
1,29,78,20
1,30,85,4
1,28,87,16
1,26,83,34
1,31,87,2
1,30,78,16
1,22,85,2
1,29,78,8
1,31,79,6
1,39,76,22
1,34,85,8
1,39,81,0
1,38,83,18
1,36,79,10
1,34,79,384
1,29,77,1022
1,34,74,106
1,36,77,10
1,38,78,14
1,39,77,2
1,34,73,1024
1,39,68,118
1,36,75,4
1,38,76,384
1,41,72,10
1,43,70,384
1,36,79,10
1,29,78,38
1,29,87,44
1,33,87,6
1,26,89,24
1,30,87,4
1,31,75,14
1,30,79,16
1,31,83,10
1,24,89,2
1,30,85,4
1,29,87,2
1,27,79,14
1,28,87,20
1,29,81,2
1,30,83,2
1,31,85,22
1,31,85,64
1,33,89,2
1,38,85,2
1,39,85,22
1,41,79,22
1,46,85,42
1,36,89,20
1,38,87,2
1,39,92,2
1,44,97,2
1,42,85,12
1,41,85,6
1,41,85,42
1,48,87,2
1,45,101,32
1,38,97,12
1,39,89,2
1,40,83,14
1,41,89,2
1,34,92,6
1,34,87,2
1,36,85,24
1,38,83,8
1,39,83,12
1,44,92,26
1,42,83,10
1,41,83,14
1,39,78,10
1,37,77,2
1,36,89,2
1,29,94,26
1,29,89,76
1,33,99,6
1,26,94,28
1,31,99,128
1,30,87,24
1,29,85,18
1,24,99,18
1,22,112,2356
1,22,114,102
2,70,71,73014
2,70,77,6722
2,70,82,962
3,77,48,2590
3,79,54,34
3,77,39,22
3,75,54,12
3,72,51,20
3,70,51,32
3,72,55,60
3,74,55,18
3,77,47,14
3,79,55,102
3,72,49,106
3,73,52,26
3,72,51,0
3,70,51,20
3,67,52,8
3,70,55,4
3,73,58,94
3,74,51,16
3,72,55,10
3,70,55,2
3,67,49,50
3,70,49,6
3,82,51,352
3,84,53,56
3,82,53,8
3,77,54,18
3,74,51,4
3,77,43,8
3,70,52,382
3,70,51,52
3,77,70,462
3,79,52,6
3,77,48,8
3,74,42,0
3,77,52,98
3,79,50,12
3,77,52,0
3,74,39,2
3,84,58,4
3,84,62,30
3,81,66,18
3,82,52,192
3,82,62,26
3,77,50,14
3,75,50,8
3,77,50,8
3,79,66,18
3,79,66,32
3,82,62,394
3,81,58,606
3,79,42,2
3,77,54,378
3,79,50,638
3,77,50,128
3,77,54,2
3,74,44,2
3,79,48,22
3,79,50,44
3,82,52,356
3,81,52,32
3,79,48,2
3,77,42,382
3,79,50,628
3,77,48,4
3,74,43,6
3,72,36,0
3,70,38,18
3,72,39,34
3,74,38,36
3,84,62,186
3,84,54,32
3,87,62,390
3,84,50,6
3,81,54,16
3,79,42,262
3,81,38,52
3,82,48,50
3,81,52,54
3,82,52,104
3,86,70,118
3,82,50,200
3,77,54,6
3,74,52,4
3,77,39,382
3,75,54,0
3,72,48,146
3,70,46,366
3,77,48,14
3,79,52,30
3,78,34,6
3,77,52,6
3,78,40,370
3,79,50,12
3,77,48,6
3,74,46,4
3,77,54,14
3,78,35,28
3,79,44,18
3,77,66,2
3,73,50,370
3,74,52,4
3,72,50,0
3,70,52,4
3,72,58,70
3,74,54,40
3,86,67,28
3,84,62,218
3,81,50,2
3,86,54,8
3,84,44,46
3,82,54,0
3,77,60,14
3,75,59,372
3,74,50,388
3,79,66,178
3,79,52,34
3,82,52,14
3,81,66,594
3,79,52,4
3,77,50,4
3,78,44,550
3,79,52,20
3,77,48,2
3,79,52,12
3,77,52,56
3,74,46,6
3,79,54,4
3,79,62,10
3,84,54,18
3,82,52,124
3,81,66,10
3,79,52,6
3,77,50,2
3,79,52,20
3,77,46,4
3,74,54,58
3,84,70,5138
3,83,46,6
3,82,54,108
3,77,62,18
3,74,62,4
3,77,50,6
3,75,52,10
3,69,54,30
3,71,48,128
3,72,52,14
3,70,52,164
3,82,54,2002
3,84,66,124
3,86,62,12
3,86,54,40
3,84,52,2
3,82,50,14
3,85,36,130
3,86,62,16
3,82,52,62
3,84,62,16
3,72,54,790
3,74,62,72
3,77,42,12
3,79,50,38
3,82,40,62
3,72,58,12
3,74,54,64
3,77,46,18
3,79,52,38
3,82,46,4
3,90,48,752
3,91,62,8
3,89,44,12
3,87,52,2
3,86,66,124
3,84,52,0
3,82,44,2
3,89,58,128
3,87,46,8
3,86,50,116
3,86,54,20
3,84,54,4
3,82,37,8
3,85,44,114
3,86,66,8
3,82,33,2
3,84,52,10
3,72,74,30
3,74,66,52
3,77,39,10
3,79,50,0
3,82,66,20
3,70,66,68
3,74,66,4
3,77,58,6
3,78,62,112
3,79,42,12
3,77,58,4
3,94,54,8
3,91,54,90
3,89,37,10
3,86,62,18
3,85,50,390
3,84,40,24
3,82,48,8
3,83,46,146
3,84,39,12
3,82,52,6
3,82,48,4
3,77,33,10
3,74,40,380
3,77,42,312
3,79,39,16
3,77,52,0
3,75,54,34
3,72,50,16
3,70,66,114
4,72,34,80288
5,55,69,8080
5,58,83,0
5,63,74,0
5,53,72,4
5,62,76,0
5,53,59,46074
5,60,70,0
5,57,65,2
5,60,67,12
5,53,65,6
5,57,65,2
5,63,67,22
5,57,70,4
5,66,65,26
5,57,65,2
5,62,63,8
5,67,61,0
5,58,79,6
5,64,67,14
5,66,79,12
5,58,65,2
5,63,75,0
5,62,59,12
5,65,65,0
5,57,67,18
5,63,63,2
5,60,67,18
5,66,57,4
5,62,61,4
5,67,63,0
5,58,75,2
5,63,61,4
5,57,63,2
5,60,75,6
5,66,65,0
5,58,84,13896
5,63,73,0
5,67,68,0
5,65,78,6
5,62,82,2
6,58,68,8248
6,63,59,0
6,67,54,0
6,62,61,4
6,65,57,0
6,62,45,16
6,65,57,2
6,58,61,2
6,63,51,20
6,67,59,2
6,62,57,8
6,65,63,0
6,53,59,22
6,62,61,2
6,58,55,2
6,58,73,54
6,62,61,0
6,65,65,2
6,63,63,22
6,67,63,2
6,62,61,18
6,65,68,0
6,53,61,24
6,62,65,2
6,58,63,2
6,69,61,78
6,63,68,2
6,72,63,0
6,69,61,26
6,72,63,2
6,63,63,4
6,69,63,18
6,60,65,2
6,66,77,0
6,66,65,18
6,69,59,0
6,60,63,2
6,67,61,4
6,70,63,2
6,62,65,0
6,70,57,24
6,67,55,2
6,62,63,2
6,60,63,0
6,56,73,0
6,65,63,4
6,60,59,16
6,65,51,2
6,58,68,2
6,58,68,56
6,63,65,0
6,67,59,0
6,63,63,28
6,67,63,2
6,58,59,4
6,63,51,12
6,67,52,2
6,70,61,6
6,63,54,28
6,67,61,0
6,62,63,14
6,65,59,6
6,63,61,20
6,67,65,2
6,62,63,10
6,65,65,2
6,53,63,32
6,58,77,2
6,62,68,2
6,63,63,208
6,58,68,2
6,67,63,0
6,63,61,16
6,67,59,4
6,63,63,28
6,67,61,4
6,63,54,28
6,67,55,0
6,58,59,12
6,58,61,26
6,62,61,2
6,65,61,2
6,63,55,18
6,67,57,2
6,65,65,16
6,62,57,2
6,53,63,24
6,58,61,2
6,62,63,2
6,53,41,46
6,60,63,224
6,65,61,2
6,69,59,0
6,72,49,0
6,63,53,2
6,67,53,0
6,62,57,6
6,66,55,6
6,67,61,12
6,70,65,4
6,60,51,12
6,64,59,2
6,58,81,434
6,70,76,0
6,53,71,0
6,65,76,4
6,50,71,2
6,62,67,0
6,53,67,6
6,65,69,6
6,63,62,6
6,51,73,2
6,48,63,128
6,60,69,2
6,46,57,4
6,58,58,2
6,53,43,754
6,58,59,4
6,62,50,0
6,63,59,24
6,55,46,0
6,62,55,18
6,53,50,4
6,58,48,92
6,65,49,4
6,63,47,4
6,67,50,14
6,65,50,0
6,62,45,4
6,55,55,14
6,65,48,12
6,64,55,18
6,60,44,0
6,65,50,2
6,57,47,22
6,60,55,44
6,57,59,0
6,66,54,2
6,67,54,0
6,62,46,2
6,58,54,8
6,57,55,14
6,61,49,6
6,66,50,0
6,60,50,2
6,56,65,0
6,65,53,2
6,56,55,10
6,62,52,0
6,63,49,96
6,67,54,6
6,58,54,4
6,63,59,42
6,70,61,0
6,69,54,748
6,72,54,2
6,74,44,6
6,65,61,2
6,70,49,4
6,69,51,4
6,72,49,2
6,63,51,2
6,65,59,4
6,74,54,0
6,70,52,6
6,67,61,6
6,75,61,6
6,74,54,402
6,68,59,0
6,77,50,0
6,70,59,6
6,75,55,2
6,79,46,2
6,67,53,1144
6,65,55,16
6,74,55,0
6,69,54,770
6,67,55,354
6,70,59,0
6,64,63,12
6,72,55,10
6,72,81,2
6,69,72,2
6,63,83,0
6,72,72,20
6,63,77,2
6,69,77,0
6,67,72,6
6,72,69,0
6,75,69,2
6,63,67,10
6,72,69,2
6,69,72,4
6,62,57,10
6,69,65,6
6,66,58,4
6,67,67,18
6,70,69,2
6,69,65,892
6,70,63,124
6,74,72,0
6,64,81,2
6,62,69,3046
6,74,63,0
6,74,63,38
6,62,69,2
6,63,69,436
6,75,67,2
6,62,62,2
6,74,65,2
6,60,63,2
6,72,65,0
6,72,69,28
6,60,67,4
6,62,65,4
6,74,67,2
6,75,65,8
6,63,59,2
6,78,61,42
6,79,69,0
6,67,69,2
6,77,71,6
6,65,76,0
6,62,71,12
6,74,76,4
6,72,73,2
6,60,69,2
6,70,76,6
6,58,61,2
6,62,73,0
6,73,69,2
6,74,69,2
6,60,81,8
6,72,71,0
6,67,69,428
6,62,76,2
6,58,76,2
6,64,81,4
6,69,73,448
6,60,76,4
6,63,81,0
6,66,71,10
6,72,81,406
6,63,81,2
6,68,85,0
6,62,81,12
6,65,76,0
6,70,71,0
6,62,71,14
6,67,76,0
6,60,76,8
6,66,71,0
6,67,69,2342
6,70,77,0
6,74,65,2
6,64,72,1124
6,63,63,2558
6,55,72,2
6,58,81,2
6,53,72,4
6,62,81,0
7,48,48,20
7,67,27,0
7,74,29,0
7,70,40,14
7,66,40,2
7,75,50,2
7,51,50,2
7,82,66,40
7,74,15,2
7,77,76,10
7,70,76,26
7,74,44,2
7,75,35,22
7,76,54,18
7,77,40,28
7,72,48,8
7,65,48,10
7,75,46,6
7,72,62,8
7,63,54,4
7,70,62,0
7,67,50,4
7,62,33,16
7,65,35,2
7,53,76,4
7,73,76,34
7,76,38,0
7,69,70,0
7,74,68,0
7,77,58,0
7,67,68,2
7,72,63,0
7,75,48,2
7,65,48,0
7,70,48,0
7,74,48,0
7,67,48,10
7,75,50,0
7,65,48,2
7,70,48,0
7,74,50,0
7,64,48,16
7,63,48,2
7,69,48,0
7,72,48,0
7,66,48,20
7,83,51,40
7,84,56,2
7,67,48,2
7,70,48,0
7,82,48,0
7,65,48,2
7,72,48,0
7,80,48,0
7,70,48,4
7,74,48,0
7,63,48,2
7,70,48,0
7,79,48,0
7,62,48,8
7,77,48,0
7,60,48,8
7,75,48,0
7,62,48,12
7,77,48,0
7,58,48,4
7,74,48,0
7,82,48,0
7,63,48,6
7,75,48,0
7,79,48,0
7,58,48,2
7,70,48,0
7,74,48,0
7,77,48,0
7,67,48,14
7,90,66,2
7,91,66,4
7,89,66,12
7,91,66,8
7,85,66,6
7,60,66,4
7,84,66,0
7,82,66,14
7,65,48,2
7,72,48,0
7,77,48,0
7,81,48,0
7,84,48,0
7,69,48,2
7,75,48,0
7,79,48,0
7,66,48,14
7,74,48,0
7,78,48,0
7,67,48,6
7,79,48,0
7,82,48,0
7,86,75,26
7,92,69,32
7,93,67,4
7,91,73,4
7,60,48,28
7,72,48,0
7,76,48,0
7,85,75,4
7,84,69,58
7,82,73,2
7,63,48,4
7,75,48,0
7,78,48,0
7,65,48,6
7,74,48,0
7,77,48,0
7,70,48,168
7,53,48,2
7,69,48,0
7,72,48,0
7,75,48,36
7,58,48,10
7,65,48,0
7,70,48,0
7,74,48,0
7,53,48,14
7,67,48,0
7,75,48,0
7,58,48,10
7,65,48,0
7,74,48,0
7,70,48,10
7,75,48,0
7,79,48,0
7,53,48,14
7,69,48,0
7,74,48,0
7,77,48,0
7,67,48,28
7,72,48,0
7,75,48,0
7,70,43,10
7,74,43,0
7,77,43,0
7,93,72,18
7,94,70,4
7,90,61,70
7,91,70,4
7,67,43,2
7,75,43,0
7,94,58,16
7,65,43,2
7,74,43,0
7,67,43,14
7,64,43,6
7,72,43,0
7,65,43,2
7,69,43,0
7,66,43,4
7,74,43,0
7,67,43,12
7,70,43,0
7,66,43,4
7,69,43,0
7,73,43,0
7,65,43,10
7,68,43,0
7,72,43,0
7,74,43,10
7,70,45,2
7,75,45,0
7,79,45,0
7,50,45,18
7,51,45,12
7,53,45,20
7,55,45,2
7,56,45,10
7,58,45,10
7,60,45,6
7,62,45,10
7,63,45,6
7,65,45,4
7,67,45,6
7,68,45,6
7,70,45,0
7,72,45,0
7,74,45,0
7,75,45,2
7,77,45,8
7,79,45,0
7,80,45,0
7,82,45,10
7,75,45,12
7,79,45,0
7,82,45,0
7,81,45,10
7,69,45,12
7,75,45,0
7,79,45,0
7,70,45,4
7,74,45,0
7,77,45,0
7,69,45,4
7,75,45,0
7,65,45,8
7,70,45,0
7,74,45,0
7,69,45,8
7,72,45,0
7,75,45,0
7,68,45,10
7,74,45,0
7,77,45,0
7,70,45,8
7,75,45,0
7,79,45,0
7,74,45,12
7,77,45,0
7,69,45,12
7,70,45,2
7,79,45,0
7,90,65,152
7,91,65,22
7,89,65,18
7,91,65,2
7,76,45,10
7,85,65,10
7,84,65,44
7,82,65,6
7,69,40,14
7,72,40,0
7,77,40,0
7,78,40,24
7,70,40,2
7,74,40,0
7,79,40,0
7,76,40,2
7,75,40,2
7,78,40,0
7,74,40,0
7,77,40,0
7,69,40,2
7,75,40,0
7,72,40,6
7,78,40,0
7,70,40,4
7,74,40,0
7,79,40,0
7,69,40,4
7,75,40,0
7,72,40,0
7,78,40,0
7,68,46,0
7,72,46,0
7,77,46,0
7,74,46,4
7,70,46,4
7,79,46,0
7,68,46,4
7,75,46,0
7,78,46,0
7,70,46,4
7,74,46,0
7,77,46,0
7,76,46,4
7,79,46,0
7,69,46,4
7,75,46,0
7,72,46,4
7,78,46,0
7,68,46,4
7,77,46,0
7,74,46,4
7,70,46,4
7,79,46,0
7,68,46,4
7,75,46,0
7,78,46,0
7,46,56,24
7,48,56,4
7,50,56,18
7,51,56,0
7,53,56,8
7,55,56,8
7,56,56,6
7,58,56,8
7,60,56,6
7,62,56,6
7,63,56,4
7,65,56,4
7,67,56,4
7,68,56,0
7,70,56,6
7,72,56,6
7,74,56,6
7,75,56,4
7,77,56,6
7,79,56,6
7,80,56,6
7,82,56,4
7,84,56,6
7,86,56,0
7,87,56,6
7,89,56,8
7,91,56,0
7,92,56,8
7,86,54,30
7,89,54,0
7,94,54,0
7,81,54,8
7,84,54,0
7,89,54,0
7,90,54,18
7,82,54,18
7,86,54,0
7,91,54,0
7,88,54,16
7,74,54,70
7,77,54,0
7,82,54,0
7,75,54,14
7,58,54,8
7,70,54,0
7,75,54,0
7,79,54,0
7,74,54,4
7,77,54,0
8,82,54,50
8,65,60,2
8,70,70,20
8,86,82,10
8,89,70,2
