track,note,velocity,time
3,68,100,0
3,71,100,0
3,66,100,0
3,64,100,60
3,71,0,90
3,71,100,0
3,71,0,30
3,76,100,0
3,75,100,30
3,76,0,2
3,75,0,28
3,78,100,5
3,76,100,55
3,78,0,5
3,76,0,25
3,76,100,0
3,64,0,30
3,68,0,0
3,66,0,0
3,63,100,0
3,76,0,30
3,71,100,0
3,71,0,30
3,75,100,0
3,75,0,30
3,76,100,0
3,63,0,30
3,61,100,0
3,68,100,30
3,76,0,30
3,71,100,2
3,71,100,87
3,71,0,3
3,76,100,26
3,71,0,1
3,76,0,29
3,75,100,2
3,75,0,30
3,78,100,0
3,61,0,40
3,78,0,20
3,76,100,0
3,76,0,30
3,76,100,0
3,68,0,30
3,59,100,0
3,59,0,30
3,76,0,0
3,68,100,0
3,75,100,30
3,75,0,29
3,76,100,1
3,76,0,7
3,68,0,0
3,57,100,0
3,69,100,0
3,73,100,0
3,73,0,43
3,75,100,0
3,75,0,59
3,76,100,1
3,69,100,59
3,69,0,1
3,76,0,60
3,73,100,0
3,73,0,60
3,75,100,5
3,57,0,55
3,56,100,0
3,76,100,1
3,75,0,4
3,69,0,1
3,71,100,57
3,54,100,6
3,56,0,2
3,76,0,1
3,69,100,0
3,71,0,2
3,64,100,105
3,64,0,58
3,66,100,2
3,66,0,55
3,57,100,3
3,54,0,2
3,64,100,0
3,69,0,1
3,47,100,2
3,64,0,104
3,59,100,0
3,47,0,57
3,59,0,3
3,64,100,0
3,57,0,58
3,52,100,0
3,66,100,0
3,64,0,2
3,59,100,0
3,66,0,39
3,64,100,5
3,59,0,24
3,64,0,1
3,66,100,37
3,68,100,0
3,71,100,0
3,66,0,59
3,71,0,1
3,68,0,0
3,64,100,0
3,64,0,60
3,71,100,0
3,68,100,0
3,66,100,0
3,66,0,60
3,71,0,0
3,64,100,0
3,68,0,1
3,64,0,59
3,68,100,0
3,66,100,0
3,71,100,2
3,66,0,58
3,68,0,0
3,59,100,0
3,71,0,2
3,59,0,28
3,64,100,0
3,52,0,2
3,50,100,1
3,64,0,1
3,66,100,0
3,59,100,2
3,59,0,29
3,66,0,0
3,66,100,24
3,66,0,30
3,59,100,0
3,66,100,0
3,66,0,60
3,59,0,0
3,68,100,2
3,68,0,60
3,64,100,0
3,59,100,0
3,64,0,82
3,59,0,8
3,59,100,0
3,59,0,60
3,71,100,0
3,66,100,0
3,71,0,40
3,66,0,3
3,59,100,17
3,64,100,27
3,59,0,3
3,64,0,27
3,50,0,1
3,49,100,1
3,59,100,0
3,66,100,0
3,59,0,27
3,66,0,28
3,66,100,3
3,59,100,27
3,66,100,0
3,66,0,3
3,59,0,47
3,66,0,10
3,64,100,0
3,64,0,30
3,59,100,0
3,64,100,0
3,64,0,120
3,59,0,0
3,63,100,0
3,63,0,60
3,64,100,0
3,64,0,30
3,66,100,0
3,66,0,51
3,61,100,9
3,57,100,1
3,49,0,29
3,47,100,0
3,59,100,58
3,61,0,2
3,57,0,1
3,59,0,57
3,57,100,2
3,64,100,0
3,64,0,120
3,57,0,0
3,63,100,0
3,57,100,0
3,57,0,120
3,63,0,0
3,59,100,0
3,47,0,53
3,59,0,7
3,64,100,0
3,64,0,30
3,66,100,0
3,59,100,1
3,40,100,29
3,47,100,30
3,68,100,29
3,47,0,1
3,66,0,0
3,56,100,0
3,68,0,59
3,66,100,1
3,64,100,30
3,66,0,3
3,64,0,87
3,59,0,1
3,68,100,0
3,66,100,1
3,71,100,1
3,59,100,57
3,66,0,2
3,71,0,1
3,68,0,1
3,64,100,56
3,59,0,3
3,64,0,57
3,59,100,0
3,64,100,30
3,59,0,1
3,40,0,29
3,56,0,0
3,64,0,0
3,42,100,0
3,66,100,0
3,62,100,3
3,57,100,1
3,66,100,49
3,66,0,1
3,66,0,29
3,66,100,1
3,66,0,60
3,68,100,0
3,68,0,30
3,57,100,0
3,69,100,0
3,62,100,0
3,62,0,3
3,57,0,1
3,57,0,176
3,69,0,0
3,62,0,0
3,57,100,0
3,62,100,2
3,57,0,58
3,59,100,1
3,62,0,1
3,64,100,27
3,59,0,3
3,64,0,27
3,42,0,1
3,69,100,0
3,64,100,0
3,62,100,0
3,48,100,0
3,62,0,52
3,69,0,0
3,64,0,0
3,67,100,1
3,67,0,29
3,67,100,1
3,62,100,0
3,64,100,0
3,64,0,59
3,62,0,0
3,67,0,0
3,66,100,1
3,66,0,29
3,67,100,1
3,67,0,29
3,64,100,1
3,64,0,29
3,64,100,1
3,60,100,0
3,67,100,0
3,60,0,59
3,64,0,0
3,67,0,30
3,62,100,1
3,62,0,29
3,64,100,1
3,66,100,30
3,66,0,29
3,64,0,0
3,57,100,31
3,66,100,0
3,64,100,0
3,48,0,30
3,47,100,0
3,57,0,103
3,64,0,0
3,66,0,0
3,57,100,0
3,66,100,0
3,64,100,0
3,47,0,60
3,47,100,0
3,47,0,60
3,64,0,0
3,66,0,0
3,57,0,0
3,47,100,0
3,66,100,0
3,63,100,0
3,57,100,0
3,57,0,120
3,63,0,0
3,66,0,0
3,71,100,0
3,71,0,10
3,47,0,0
3,40,100,0
3,68,100,0
3,71,100,0
3,66,100,0
3,66,0,59
3,71,0,0
3,68,0,0
3,64,100,1
3,64,0,60
3,68,100,0
3,66,100,0
3,71,100,0
3,66,0,29
3,68,0,0
3,71,0,1
3,59,100,0
3,59,0,29
3,64,100,1
3,64,0,29
3,63,100,1
3,63,0,29
3,66,100,1
3,59,100,0
3,66,0,59
3,59,0,1
3,64,100,0
3,64,0,29
3,64,100,1
3,59,100,0
3,40,0,30
3,51,100,0
3,59,0,60
3,64,0,0
3,63,100,0
3,63,0,29
3,64,100,1
3,51,0,30
3,49,100,0
3,59,100,0
3,59,0,60
3,64,0,0
3,56,100,0
3,56,0,60
3,59,100,0
3,64,100,0
3,64,0,60
3,59,0,0
3,64,100,0
3,64,0,30
3,63,100,0
3,63,0,30
3,59,100,0
3,64,100,0
3,68,100,0
3,68,0,32
3,59,0,1
3,64,0,26
3,66,100,1
3,59,100,28
3,66,0,2
3,56,100,0
3,64,100,0
3,49,0,30
3,47,100,0
3,59,0,58
3,64,0,2
3,56,0,0
3,66,100,0
3,66,0,30
3,61,100,1
3,59,100,0
3,64,100,0
3,45,100,29
3,47,0,3
3,57,100,50
3,64,0,1
3,61,0,0
3,59,0,0
3,61,100,57
3,59,100,0
3,68,100,0
3,57,0,2
3,64,100,0
3,68,0,53
3,61,0,1
3,59,0,4
3,64,0,2
3,64,100,0
3,64,0,27
3,63,100,1
3,63,0,30
3,66,100,2
3,66,0,60
3,64,100,0
3,64,0,30
3,54,100,0
3,59,100,0
3,64,100,0
3,45,0,30
3,44,100,0
3,54,0,60
3,64,0,0
3,59,0,0
3,63,100,2
3,57,100,28
3,61,100,0
3,63,0,2
3,42,100,28
3,44,0,3
3,61,0,57
3,57,0,0
3,54,100,0
3,54,0,60
3,61,100,0
3,64,100,0
3,57,100,0
3,57,0,60
3,64,0,0
3,61,0,0
3,64,100,0
3,42,0,10
3,64,0,15
3,63,100,5
3,61,100,28
3,47,100,0
3,57,100,1
3,63,0,1
3,57,0,29
3,61,0,27
3,63,100,4
3,63,0,30
3,64,100,0
3,57,100,0
3,61,100,0
3,61,0,60
3,57,0,0
3,64,0,0
3,61,100,0
3,64,100,0
3,71,100,0
3,71,0,60
3,64,0,0
3,61,0,0
3,68,100,0
3,66,100,0
3,64,100,0
3,47,0,18
3,40,100,12
3,68,0,60
3,64,0,0
3,66,0,0
3,59,100,0
3,59,0,60
3,68,100,0
3,66,100,0
3,71,100,0
3,71,0,29
3,66,0,0
3,68,0,0
3,59,100,1
3,59,0,30
3,68,100,0
3,68,0,29
3,66,100,1
3,66,0,29
3,59,100,1
3,69,100,0
3,40,0,29
3,69,0,31
3,59,0,0
3,68,100,0
3,68,0,29
3,59,100,1
3,68,100,0
3,51,100,30
3,68,0,60
3,59,0,0
3,66,100,0
3,66,0,29
3,59,100,1
3,64,100,0
3,51,0,29
3,49,100,0
3,64,0,60
3,59,0,0
3,59,100,0
3,59,0,60
3,68,100,0
3,64,100,0
3,59,100,0
3,59,0,60
3,64,0,0
3,68,0,0
3,68,100,0
3,68,0,29
3,66,100,1
3,66,0,29
3,49,0,0
3,68,100,1
3,73,100,0
3,64,100,0
3,47,100,0
3,64,0,60
3,68,0,0
3,73,0,0
3,68,100,0
3,68,0,29
3,68,100,1
3,64,100,0
3,59,100,0
3,47,0,89
3,68,0,1
3,64,0,0
3,59,0,0
3,71,100,0
3,71,0,29
3,64,100,1
3,59,100,0
3,61,100,0
3,45,100,30
3,61,0,49
3,64,0,0
3,59,0,0
3,57,100,0
3,57,0,59
3,59,100,1
3,61,100,0
3,64,100,0
3,64,0,59
3,61,0,0
3,59,0,0
3,64,100,1
3,64,0,29
3,63,100,1
3,63,0,29
3,66,100,1
3,66,0,59
3,64,100,1
3,59,100,0
3,59,0,29
3,64,0,0
3,59,100,1
3,64,100,0
3,45,0,30
3,44,100,0
3,64,0,60
3,59,0,0
3,66,100,0
3,66,0,29
3,57,100,1
3,64,100,0
3,44,0,3
3,42,100,0
3,64,0,60
3,57,0,0
3,54,100,0
3,54,0,59
3,64,100,1
3,57,100,0
3,69,100,0
3,69,0,59
3,57,0,0
3,64,0,0
3,64,100,1
3,64,0,29
3,63,100,1
3,63,0,29
3,42,0,0
3,68,100,1
3,64,100,0
3,57,100,0
3,47,100,0
3,57,0,59
3,68,0,0
3,64,0,0
3,66,100,1
3,66,0,29
3,57,100,1
3,64,100,0
3,64,0,89
3,57,0,0
3,66,100,1
3,66,0,29
3,59,100,1
3,68,100,0
3,47,0,30
3,52,100,0
3,68,0,60
3,66,100,0
3,66,0,29
3,64,100,1
3,64,0,60
3,71,100,0
3,71,0,29
3,76,100,1
3,76,0,29
3,75,100,1
3,75,0,29
3,59,0,1
3,78,100,0
3,78,0,60
3,76,100,0
3,76,0,29
3,76,100,1
3,52,0,30
3,63,100,0
3,76,0,30
3,71,100,0
3,71,0,30
3,75,100,0
3,75,0,29
3,76,100,1
3,63,0,1
3,61,100,1
3,61,0,59
3,63,100,1
3,63,0,59
3,64,100,1
3,76,0,60
3,76,100,0
3,76,0,29
3,64,0,0
3,75,100,1
3,59,100,0
3,59,0,29
3,75,0,0
3,64,100,1
3,57,100,0
3,47,100,0
3,73,100,0
3,47,0,119
3,64,0,1
3,57,0,0
3,73,0,0
3,57,100,0
3,57,0,29
3,71,100,1
3,64,100,0
3,56,100,0
3,56,0,29
3,64,0,0
3,71,0,0
3,54,100,1
3,68,100,30
3,52,100,0
3,52,0,29
3,68,0,0
3,54,0,0
3,59,100,1
3,64,100,46
3,64,0,29
3,59,0,0
3,68,100,31
3,66,100,0
3,71,100,0
3,71,0,29
3,66,0,30
3,68,0,0
3,64,100,1
3,64,0,59
3,68,100,1
3,66,100,0
3,71,100,0
3,71,0,59
3,66,0,0
3,68,0,0
3,64,100,1
3,64,0,59
3,66,100,1
3,68,100,0
3,71,100,0
3,71,0,29
3,68,0,0
3,66,0,0
3,59,100,31
3,59,0,29
3,64,100,1
3,64,0,3
3,50,100,1
3,66,100,0
3,59,100,2
3,59,0,29
3,66,0,0
3,66,100,24
3,66,0,14
3,59,100,16
3,66,100,0
3,59,0,58
3,68,100,26
3,66,0,6
3,68,0,23
3,59,100,3
3,64,100,1
3,59,0,51
3,64,0,31
3,59,100,11
3,66,100,59
3,71,100,1
3,59,0,8
3,71,0,32
3,66,0,2
3,50,0,19
3,59,100,1
3,64,100,27
3,59,0,10
3,64,0,14
3,49,100,6
3,66,100,1
3,59,100,1
3,59,0,27
3,66,0,8
3,66,100,23
3,66,0,13
3,66,100,15
3,59,100,2
3,59,0,50
3,64,100,39
3,66,0,2
3,64,0,8
3,59,100,17
3,64,100,2
3,59,0,62
3,63,100,38
3,64,0,2
3,63,0,43
3,64,100,4
3,66,100,33
3,64,0,5
3,66,0,46
3,61,100,4
3,57,100,3
3,47,100,31
3,49,0,4
3,57,0,6
3,61,0,17
3,59,100,29
3,59,0,19
3,57,100,43
3,64,100,0
3,57,0,59
3,64,0,15
3,63,100,46
3,57,100,0
3,57,0,56
3,63,0,7
3,59,100,60
3,59,0,43
3,47,0,9
3,64,100,5
3,64,0,21
3,66,100,10
3,59,100,0
3,40,100,29
3,66,0,23
3,47,100,2
3,40,0,1
3,59,0,28
3,47,0,1
3,56,100,3
3,68,100,1
3,66,100,55
3,68,0,2
3,64,100,27
3,66,0,4
3,64,0,47
3,68,100,47
3,66,100,1
3,71,100,1
3,66,0,50
3,59,100,7
3,68,0,4
3,71,0,38
3,64,100,18
3,59,0,3
3,64,0,36
3,56,0,18
3,59,100,3
3,64,100,28
3,59,0,3
3,64,0,6
3,66,100,23
3,57,100,0
3,42,100,0
3,62,100,3
3,66,0,31
3,66,100,19
3,66,0,17
3,66,100,13
3,62,0,37
3,66,0,2
3,68,100,21
3,57,0,5
3,68,0,7
3,57,100,18
3,62,100,0
3,69,100,0
3,57,0,84
3,62,0,1
3,69,0,50
3,57,100,46
3,62,100,1
3,57,0,30
3,62,0,23
3,42,0,4
3,59,100,2
3,64,100,28
3,59,0,3
3,64,0,6
3,48,100,25
3,69,100,1
3,64,100,1
3,62,100,0
3,62,0,39
3,69,0,5
3,64,0,1
3,67,100,11
3,67,0,13
3,67,100,14
3,62,100,0
3,64,100,1
3,62,0,57
3,66,100,2
3,67,0,3
3,64,0,3
3,67,100,22
3,66,0,6
3,64,100,22
3,67,0,2
3,64,0,14
3,64,100,16
3,60,100,1
3,67,100,0
3,60,0,56
3,64,0,12
3,62,100,23
3,67,0,11
3,62,0,19
3,64,100,0
3,64,0,30
3,66,100,0
3,66,0,31
3,57,100,29
3,64,100,0
3,66,100,0
3,48,0,6
3,47,100,24
3,57,0,2
3,64,0,19
3,66,0,3
3,57,100,79
3,64,100,0
3,66,100,0
3,47,0,28
3,47,100,32
3,64,0,3
3,57,0,1
3,66,0,2
3,47,0,5
3,57,100,49
3,63,100,0
3,66,100,0
3,47,100,0
3,57,0,38
3,63,0,20
3,66,0,3
3,71,100,56
3,71,0,62
3,47,0,3
3,40,100,6
3,66,100,3
3,68,100,1
3,71,100,0
3,66,0,48
3,71,0,3
3,68,0,7
3,64,100,2
3,64,0,33
3,71,100,27
3,68,100,0
3,66,100,0
3,71,0,13
3,66,0,1
3,68,0,0
3,59,100,16
3,64,100,30
3,59,0,9
3,63,100,14
3,64,0,5
3,63,0,29
3,66,100,3
3,59,100,0
3,59,0,38
3,66,0,19
3,64,100,5
3,40,0,2
3,64,0,9
3,59,100,17
3,64,100,0
3,64,0,30
3,51,100,0
3,59,0,10
3,63,100,50
3,63,0,28
3,64,100,2
3,51,0,30
3,59,100,0
3,49,100,0
3,64,0,4
3,59,0,28
3,56,100,28
3,56,0,59
3,59,100,1
3,64,100,0
3,64,0,29
3,59,0,0
3,64,100,31
3,64,0,29
3,63,100,1
3,63,0,29
3,59,100,1
3,64,100,0
3,68,100,0
3,68,0,29
3,59,0,0
3,64,0,30
3,49,0,0
3,66,100,1
3,66,0,29
3,56,100,1
3,64,100,0
3,59,100,0
3,59,0,29
3,64,0,0
3,47,100,1
3,56,0,29
3,66,100,31
3,66,0,29
3,61,100,1
3,59,100,0
3,64,100,0
3,47,0,29
3,45,100,1
3,61,0,19
3,64,0,0
3,59,0,0
3,57,100,31
3,57,0,23
3,61,100,35
3,59,100,0
3,68,100,0
3,64,100,2
3,64,0,28
3,68,0,25
3,61,0,1
3,64,100,6
3,59,0,12
3,64,0,15
3,63,100,1
3,63,0,25
3,66,100,6
3,66,0,24
3,45,0,36
3,64,100,1
3,64,0,11
3,54,100,13
3,64,100,1
3,59,100,0
3,44,100,32
3,59,0,9
3,54,0,1
3,64,0,10
3,63,100,45
3,63,0,21
3,61,100,4
3,57,100,1
3,44,0,32
3,42,100,0
3,57,0,3
3,61,0,0
3,54,100,57
3,54,0,60
3,61,100,0
