track,note,velocity,time
3,73,63,25586
3,77,65,22
3,84,82,15
3,73,0,26
3,77,0,15
3,84,0,42
3,73,65,263
3,77,64,23
3,82,86,21
3,77,0,20
3,73,0,0
3,82,0,36
3,73,62,297
3,77,68,19
3,81,82,20
3,77,0,24
3,73,0,9
3,81,0,34
3,73,53,271
3,77,84,24
3,80,79,21
3,73,0,19
3,77,0,2
3,80,0,31
3,75,104,136
3,75,0,47
3,73,104,15
3,73,0,27
3,72,90,13
3,72,0,47
3,70,94,11
3,70,0,30
3,68,98,19
3,68,0,130
3,70,86,27
3,71,82,11
3,70,0,7
3,71,0,10
3,72,67,1
3,72,0,106
3,67,85,67
3,67,0,185
3,55,74,12960
3,59,68,5
3,61,77,9
3,66,54,7
3,69,82,5
3,59,0,270
3,55,0,1
3,69,0,0
3,61,0,1
3,66,0,1
3,69,69,90
3,64,75,0
3,61,64,3
3,57,69,0
3,66,62,2
3,57,0,285
3,61,0,1
3,69,0,0
3,64,0,3
3,66,0,3
3,67,73,92
3,58,70,0
3,64,69,0
3,62,70,2
3,62,0,285
3,67,0,0
3,58,0,0
3,64,0,0
3,66,62,92
3,69,69,0
3,64,75,0
3,57,69,3
3,61,64,0
3,57,0,287
3,69,0,1
3,61,0,0
3,66,0,1
3,64,0,2
3,67,73,95
3,58,70,0
3,64,69,0
3,62,70,2
3,62,0,285
3,67,0,0
3,58,0,0
3,64,0,0
3,66,62,92
3,69,69,0
3,64,75,0
3,61,64,3
3,57,69,0
3,57,0,287
3,69,0,1
3,61,0,0
3,66,0,1
3,64,0,2
3,67,73,95
3,58,70,0
3,64,69,0
3,62,70,2
3,62,0,285
3,67,0,0
3,58,0,0
3,64,0,0
3,66,62,92
3,69,69,0
3,64,75,0
3,61,64,3
3,57,69,0
3,57,0,287
3,69,0,1
3,61,0,0
3,66,0,1
3,64,0,2
3,67,73,95
3,58,70,0
3,64,69,0
3,62,70,2
3,62,0,285
3,67,0,0
3,58,0,0
3,64,0,0
3,73,63,6871
3,77,65,23
3,84,82,15
3,73,0,26
3,77,0,15
3,84,0,42
3,73,65,263
3,77,64,23
3,82,86,21
3,77,0,20
3,73,0,0
3,82,0,36
3,73,62,297
3,77,68,19
3,81,82,20
3,77,0,24
3,73,0,9
3,81,0,34
3,73,53,271
3,77,84,24
3,80,79,21
3,73,0,19
3,77,0,2
3,80,0,31
3,75,104,136
3,75,0,47
3,73,104,15
3,73,0,27
3,72,90,13
3,72,0,47
3,70,94,11
3,70,0,30
3,68,98,19
3,68,0,130
3,70,86,27
3,71,82,11
3,70,0,7
3,71,0,10
3,72,67,1
3,72,0,106
3,67,85,67
3,67,0,185
4,37,101,5654
4,37,0,70
4,44,74,25
4,44,0,79
4,49,113,18
4,49,0,87
4,44,67,9
4,44,0,77
4,38,95,19
4,38,0,81
4,45,104,14
4,45,0,71
4,42,99,26
4,42,0,73
4,38,91,21
4,38,0,66
4,37,104,30
4,37,0,80
4,44,74,16
4,44,0,89
4,49,104,7
4,49,0,77
4,49,91,19
4,49,0,40
4,49,87,24
4,49,0,24
4,50,102,8
4,50,0,88
4,38,94,8
4,38,0,92
4,50,102,6
4,50,0,79
4,38,102,17
4,38,0,67
4,37,110,28
4,37,0,85
4,44,71,10
4,44,0,72
4,49,97,24
4,49,0,60
4,44,91,6
4,44,0,21
4,37,77,11
4,37,0,65
4,38,90,29
4,38,0,80
4,45,88,16
4,45,0,84
4,50,73,12
4,50,0,56
4,45,83,10
4,45,0,26
4,38,80,5
4,38,0,66
4,37,95,29
4,37,0,78
4,44,74,20
4,44,0,62
4,49,84,32
4,49,0,55
4,44,89,11
4,44,0,24
4,37,99,8
4,37,0,72
4,44,87,22
4,44,0,80
4,32,101,18
4,32,0,71
4,44,99,25
4,44,0,77
4,38,88,19
4,38,0,81
4,37,87,14
4,37,0,81
4,41,90,14
4,41,0,74
4,44,61,22
4,44,0,81
4,49,95,15
4,49,0,85
4,50,80,13
4,50,0,82
4,45,91,15
4,45,0,77
4,42,81,18
4,42,0,73
4,38,77,23
4,38,0,62
4,37,91,34
4,37,0,71
4,41,85,23
4,41,0,76
4,44,61,20
4,44,0,76
4,46,91,22
4,46,0,51
4,44,64,11
4,44,0,14
4,38,85,18
4,38,0,91
4,42,78,7
4,42,0,77
4,45,73,17
4,45,0,85
4,38,81,11
4,38,0,62
4,37,87,34
4,37,0,82
4,41,81,14
4,41,0,75
4,44,58,21
4,44,0,80
4,49,87,18
4,49,0,68
4,50,85,26
4,50,0,37
4,50,88,29
4,50,0,25
4,38,97,5
4,38,0,90
4,50,91,6
4,50,0,88
4,48,81,8
4,48,0,82
4,49,61,14
4,49,0,85
4,44,67,11
4,44,0,83
4,41,86,13
4,41,0,80
4,44,87,16
4,44,0,84
4,42,84,12
4,42,0,83
4,45,88,13
4,45,0,96
4,38,69,2
4,38,0,69
4,36,90,25
4,36,0,80
4,37,97,17
4,37,0,84
4,41,85,13
4,41,0,79
4,44,70,15
4,44,0,88
4,49,97,9
4,49,0,68
4,50,102,28
4,50,0,71
4,52,100,26
4,52,0,71
4,54,67,24
4,54,0,39
4,54,113,26
4,54,0,23
4,38,95,7
4,38,0,69
4,37,87,27
4,37,0,88
4,41,90,9
4,41,0,71
4,44,95,24
4,44,0,79
4,41,76,17
4,44,104,33
4,41,0,10
4,44,0,21
4,47,94,2
4,47,0,18
4,47,73,13
4,40,75,2
4,40,0,85
4,47,0,0
4,40,106,11
4,47,100,0
4,40,0,58
4,47,0,13
4,32,95,22
4,32,0,80
4,40,81,16
4,40,0,85
4,39,101,12
4,39,0,71
4,46,119,24
4,46,0,80
4,42,80,16
4,42,0,88
4,39,96,8
4,39,0,35
4,39,101,31
4,39,0,17
4,38,106,15
4,38,0,74
4,45,98,21
4,45,0,77
4,42,71,20
4,42,0,69
4,38,94,25
4,38,0,80
4,37,99,18
4,37,0,81
4,41,92,15
4,41,0,82
4,44,101,15
4,44,0,82
4,37,95,13
4,37,0,70
4,38,98,26
4,38,0,78
4,42,97,18
4,42,0,81
4,45,95,16
4,45,0,85
4,38,98,10
4,38,0,75
4,37,101,20
4,37,0,71
4,41,107,26
4,41,0,69
4,44,107,26
4,44,0,79
4,49,104,17
4,49,0,68
4,45,110,28
4,45,0,87
4,33,120,9
4,33,0,95
4,45,84,1
4,45,0,71
4,49,104,25
4,49,0,71
4,50,84,25
4,50,0,43
4,50,91,22
4,50,0,18
4,38,88,12
4,38,0,93
4,50,90,3
4,50,0,88
4,45,91,8
4,45,0,71
4,46,85,25
4,46,0,81
4,39,87,16
4,39,0,80
4,43,79,17
4,43,0,77
4,39,78,17
4,39,0,82
4,38,87,15
4,38,0,84
4,45,76,12
4,45,0,84
4,42,97,13
4,42,0,77
4,38,100,17
4,38,0,81
4,39,84,15
4,39,0,92
4,48,77,6
4,48,0,84
4,46,84,12
4,46,0,79
4,45,79,15
4,45,0,77
4,38,83,19
4,38,0,78
4,42,81,20
4,42,0,74
4,45,91,21
4,45,0,69
4,48,73,27
4,48,0,71
4,46,94,26
4,46,0,75
4,43,90,22
4,43,0,75
4,39,97,21
4,39,0,83
4,33,106,11
4,33,0,76
4,38,95,21
4,38,0,89
4,45,90,5
4,45,0,86
4,50,87,11
4,50,0,83
4,52,95,14
4,52,0,74
4,51,73,20
4,51,0,79
4,55,101,19
4,55,0,64
4,46,85,32
4,46,0,79
4,51,81,17
4,51,0,51
4,51,82,13
4,51,0,24
4,50,73,10
4,50,0,73
4,54,107,21
4,54,0,78
4,50,80,18
4,50,0,47
4,45,97,17
4,45,0,28
4,42,97,5
4,42,0,71
4,41,92,24
4,41,0,82
4,47,85,12
4,47,0,75
4,48,79,20
4,48,0,92
4,53,91,5
4,53,0,76
4,40,94,22
4,40,0,79
4,47,104,17
4,47,0,69
4,43,86,25
4,43,0,95
4,40,94,3
4,40,0,86
4,36,100,9
4,36,0,92
4,48,92,5
4,48,0,82
4,47,94,15
4,47,0,82
4,35,85,13
4,35,0,86
4,40,97,10
4,40,0,90
4,42,82,5
4,42,0,75
4,43,83,22
4,43,0,78
4,47,94,18
4,47,0,77
4,46,101,20
4,46,0,74
4,39,107,23
4,39,0,76
4,46,107,19
4,46,0,69
4,33,104,27
4,33,0,89
4,38,102,5
4,38,0,69
4,45,97,26
4,45,0,84
4,33,69,14
4,33,0,70
4,45,84,24
4,45,0,80
4,38,80,18
4,38,0,69
4,45,84,25
4,45,0,75
4,33,88,21
4,33,0,87
4,45,84,9
4,45,0,81
4,40,85,17
4,40,0,69
4,40,84,25
4,40,0,80
4,45,84,17
4,45,0,75
4,40,86,20
4,40,0,73
4,38,86,24
4,38,0,86
4,45,94,9
4,45,0,73
4,45,92,23
4,45,0,73
4,39,107,121
4,39,0,112
4,45,84,17
4,45,0,21
4,46,79,10
4,46,0,18
4,39,101,15
4,39,0,109
4,39,84,50
4,39,0,20
4,34,79,10
4,34,0,139
4,34,101,53
4,34,0,120
4,45,94,11
4,45,0,21
4,46,81,11
4,46,0,16
4,39,97,16
4,39,0,107
4,39,97,53
4,39,0,21
4,34,74,8
4,34,0,137
4,39,113,55
4,39,0,99
4,44,82,28
4,44,0,16
4,45,85,16
4,45,0,23
4,46,89,10
4,46,0,89
4,34,99,7
4,34,0,71
4,34,89,28
4,34,0,167
4,46,99,24
4,46,0,85
4,34,82,11
4,34,0,68
4,34,95,28
4,34,0,143
4,46,93,15
4,46,0,33
4,39,70,1
4,39,0,126
4,45,97,34
4,45,0,32
4,41,100,2
4,41,0,143
4,37,107,13
4,37,0,25
4,36,83,9
4,36,0,143
4,42,101,18
4,42,0,21
4,41,84,10
4,47,85,128
4,41,0,10
4,47,0,9
4,48,80,11
4,48,0,25
4,41,95,8
4,41,0,82
4,41,106,14
4,41,0,54
4,33,100,12
4,33,0,28
4,34,95,5
4,34,0,157
4,46,85,34
4,46,0,145
4,34,93,44
4,34,0,168
4,46,91,25
4,46,0,110
4,41,97,49
4,41,0,28
4,34,95,4
4,34,0,160
4,46,84,32
4,46,0,120
4,41,98,40
4,34,87,33
4,41,0,1
4,34,0,179
4,43,102,13
4,43,0,79
4,36,90,17
4,36,0,71
4,41,91,24
4,41,0,114
4,44,113,45
4,44,0,32
4,41,88,3
4,41,0,126
4,37,101,31
4,37,0,28
4,36,87,6
4,36,0,124
4,36,88,66
4,36,0,113
4,43,112,47
4,43,0,25
4,39,91,9
4,39,0,74
4,41,90,20
4,41,0,84
4,42,104,12
4,42,0,75
4,46,85,21
4,46,0,77
4,44,91,20
4,44,0,79
4,39,110,16
4,39,0,85
4,44,101,12
4,44,0,47
4,44,119,18
4,44,0,18
4,32,90,15
4,32,0,95
4,37,110,2
4,37,0,68
4,41,98,26
4,41,0,74
4,44,91,20
4,44,0,79
4,49,93,19
4,49,0,65
4,50,91,31
4,50,0,54
4,50,95,14
4,50,0,19
4,38,104,7
4,38,0,75
4,47,95,21
4,47,0,83
4,45,94,14
4,45,0,77
4,38,85,19
4,38,0,71
4,37,89,26
4,37,0,78
4,41,86,17
4,41,0,90
4,44,99,6
4,44,0,78
4,45,95,19
4,45,0,71
4,42,97,26
4,42,0,85
4,38,104,10
4,38,0,81
4,36,100,15
4,36,0,71
4,37,110,24
4,37,0,70
4,41,97,25
4,41,0,81
4,44,91,18
4,44,0,73
4,41,107,22
4,41,0,47
4,44,107,19
4,44,0,23
4,38,104,7
4,38,0,86
4,42,106,8
4,42,0,76
4,45,99,21
4,45,0,79
4,38,100,18
4,38,0,79
4,37,116,16
4,37,0,73
4,41,90,22
4,41,0,84
4,44,116,14
4,44,0,78
4,49,100,18
4,49,0,67
4,50,104,27
4,50,0,48
4,50,104,20
4,50,0,19
4,38,106,11
4,38,0,74
4,50,122,22
4,50,0,83
4,38,108,13
4,38,0,71
4,37,119,24
4,37,0,76
4,44,98,21
4,44,0,80
4,41,99,16
4,41,0,74
4,45,104,22
4,45,0,71
4,38,104,24
4,38,0,71
4,45,113,25
4,45,0,79
4,42,97,18
4,42,0,59
4,45,97,7
4,45,0,18
4,38,110,10
4,38,0,71
4,37,93,27
4,37,0,75
4,41,113,19
4,41,0,66
4,44,87,30
4,44,0,71
4,49,95,25
4,49,0,85
4,50,99,11
4,50,0,76
4,38,116,20
4,38,0,72
4,54,93,25
4,54,0,90
4,54,110,6
4,54,0,57
4,38,110,12
4,38,0,13
4,37,119,16
4,37,0,67
4,41,104,26
4,41,0,71
4,44,95,25
4,44,0,76
4,41,87,22
4,41,0,47
4,45,87,19
4,45,0,16
4,38,104,12
4,38,0,74
4,45,107,22
4,45,0,71
4,42,75,25
4,42,0,72
4,32,107,24
4,32,0,68
4,37,107,28
4,37,0,79
4,41,78,17
4,41,0,80
4,44,116,16
4,44,0,80
4,37,104,16
4,37,0,72
4,38,101,26
4,38,0,79
4,45,101,17
4,45,0,74
4,42,92,20
4,42,0,81
4,32,104,15
4,32,0,76
4,37,81,20
4,37,0,78
4,41,104,21
4,41,0,80
4,44,86,15
4,44,0,71
4,41,100,24
4,41,0,85
4,38,102,12
4,38,0,79
4,50,108,17
4,50,0,86
4,33,108,9
4,33,0,71
4,38,110,24
4,38,0,74
4,37,102,22
4,37,0,76
4,44,98,20
4,44,0,76
4,49,97,22
4,49,0,59
4,44,110,7
4,44,0,18
4,37,104,10
4,37,0,79
4,38,108,19
4,38,0,73
4,45,117,23
4,45,0,78
4,50,106,16
4,50,0,58
4,45,103,12
4,45,0,20
4,38,104,8
4,38,0,53
4,37,110,44
4,37,0,76
4,44,91,20
4,44,0,73
4,49,107,24
4,49,0,72
4,44,84,23
4,44,0,73
4,38,104,22
4,38,0,71
4,45,102,23
4,45,0,76
4,50,104,20
4,50,0,84
4,38,97,12
4,38,0,83
4,37,104,14
4,37,0,72
4,44,99,23
4,44,0,54
4,49,110,42
4,49,0,76
4,47,94,20
4,47,0,66
4,45,104,29
4,45,0,69
4,44,119,28
4,44,0,79
4,42,107,17
4,42,0,77
4,38,110,18
4,38,0,91
4,37,104,7
4,37,0,75
4,41,94,20
4,41,0,86
4,44,110,10
4,44,0,76
4,37,110,21
4,37,0,67
4,38,97,30
4,38,0,77
4,45,94,17
4,45,0,81
4,42,119,17
4,42,0,72
4,38,92,24
4,38,0,74
4,39,95,22
4,39,0,74
4,42,107,20
4,42,0,79
4,46,99,17
4,46,0,74
4,42,82,22
4,42,0,58
4,46,116,14
4,46,0,19
4,47,108,7
4,47,0,74
4,35,102,22
4,35,0,83
4,47,92,13
4,47,0,80
4,35,95,16
4,35,0,59
4,37,99,37
4,37,0,71
4,41,108,24
4,41,0,79
4,40,97,19
4,40,0,57
4,40,80,35
4,40,0,53
4,44,99,12
4,44,0,32
4,39,75,2
4,39,0,67
4,39,82,28
4,39,0,45
4,44,107,20
4,44,0,23
4,38,83,10
4,38,0,72
4,38,90,23
4,38,0,59
4,37,110,38
4,37,0,65
4,36,100,32
4,36,0,64
4,35,100,32
4,35,0,52
4,34,110,11
4,34,0,55
4,33,110,40
4,33,0,318
4,45,98,3
4,45,0,76
4,38,86,18
4,38,0,252
4,45,104,37
4,45,0,93
4,38,80,3
4,38,0,259
4,45,90,29
4,45,0,90
4,38,86,4
4,38,0,258
4,45,95,30
4,38,87,96
4,45,0,1
4,38,0,271
4,45,88,16
4,45,0,92
4,38,86,4
4,38,0,274
4,45,97,16
4,45,0,95
4,38,84,2
4,38,0,257
4,45,85,28
4,45,0,97
4,38,84,0
4,38,0,260
4,45,100,28
4,45,0,95
4,38,88,1
4,38,0,324
4,45,98,31
4,45,0,28
4,38,94,1
4,38,0,77
4,38,86,18
4,38,0,85
4,33,102,11
4,33,0,89
4,45,106,7
4,45,0,83
4,38,91,13
4,38,0,94
4,33,81,5
4,33,0,89
4,38,80,4
4,38,0,55
4,45,103,10
4,45,0,26
4,38,73,7
4,38,0,80
4,43,91,14
4,43,0,37
4,43,97,26
4,43,0,25
4,35,104,8
4,35,0,88
4,38,88,7
4,38,0,90
