track,note,velocity,time
1,70,84,603
1,70,0,29
1,72,80,0
1,72,0,29
1,69,73,0
1,70,65,29
1,69,0,1
1,70,0,25
1,67,87,1
1,67,0,115
1,62,80,69
1,62,0,28
1,72,98,2
1,70,81,64
1,72,0,17
1,70,0,39
1,69,91,1
1,69,0,60
1,67,65,3
1,66,77,58
1,67,0,5
1,66,0,168
1,54,79,215
1,54,0,25
1,55,78,2
1,55,0,31
1,57,70,1
1,57,0,29
1,60,91,1
1,60,0,35
1,59,100,0
1,59,0,299
1,62,105,14
1,62,0,50
1,67,89,2
1,67,0,94
1,62,113,6
1,65,114,90
1,62,0,1
1,63,117,58
1,65,0,5
1,63,0,165
1,57,103,88
1,57,0,31
1,62,92,0
1,62,0,55
1,57,108,1
1,57,0,53
1,60,105,6
1,60,0,61
1,58,101,4
1,58,0,60
1,57,83,0
1,58,81,56
1,57,0,2
1,55,94,57
1,58,0,1
1,55,0,58
1,60,95,31
1,60,0,25
1,62,100,5
1,62,0,24
1,67,102,3
1,62,119,33
1,67,0,1
1,62,0,47
1,65,107,11
1,63,122,63
1,65,0,3
1,63,0,188
1,57,89,82
1,57,0,29
1,62,103,2
1,62,0,58
1,57,108,1
1,57,0,55
1,60,104,1
1,58,91,63
1,60,0,6
1,58,0,53
1,57,86,1
1,58,101,61
1,57,0,3
1,55,100,56
1,58,0,1
1,55,0,39
1,55,92,20
1,57,98,27
1,55,0,3
1,57,0,26
1,58,80,2
1,57,97,58
1,58,0,1
1,55,83,58
1,57,0,2
1,55,0,48
1,55,92,16
1,58,93,26
1,55,0,7
1,58,0,24
1,60,89,0
1,58,89,62
1,60,0,3
1,58,0,57
1,57,101,0
1,57,0,53
1,57,99,13
1,58,98,51
1,57,0,7
1,58,0,27
1,60,86,0
1,58,101,35
1,60,0,3
1,58,0,40
1,57,97,7
1,57,0,18
1,57,101,17
1,57,0,85
1,55,95,1
1,55,0,150
1,62,116,65
1,62,0,31
1,67,119,0
1,69,113,54
1,67,0,1
1,69,0,45
1,70,127,17
1,70,0,209
1,72,92,2
1,69,108,30
1,72,0,3
1,69,0,57
1,67,100,0
1,66,114,27
1,67,0,7
1,66,0,134
1,62,100,14
1,62,0,20
1,74,114,8
1,74,0,49
1,75,117,11
1,72,113,32
1,75,0,1
1,72,0,50
1,74,108,6
1,74,0,60
1,70,122,0
1,70,0,50
1,62,83,40
1,67,104,31
1,62,0,2
1,69,100,57
1,67,0,2
1,69,0,41
1,70,119,13
1,70,0,209
1,72,93,2
1,69,88,31
1,72,0,5
1,67,98,54
1,69,0,1
1,65,106,27
1,67,0,5
1,65,0,114
1,62,96,42
1,62,0,14
1,74,127,15
1,74,0,49
1,75,97,3
1,75,0,29
1,72,119,4
1,72,0,51
1,74,113,7
1,74,0,50
1,70,106,13
1,70,0,39
1,70,109,17
1,70,0,25
1,72,103,1
1,72,0,31
1,74,86,6
1,74,0,89
1,70,82,1
1,70,0,29
1,72,103,4
1,72,0,270
1,68,92,23
1,69,76,29
1,68,0,4
1,69,0,29
1,72,111,2
1,72,0,59
1,69,98,2
1,72,92,84
1,69,0,4
1,70,92,58
1,72,0,4
1,70,0,27
1,69,92,3
1,69,0,54
1,70,95,2
1,70,0,60
1,67,103,1
1,67,0,59
1,67,76,0
1,69,86,31
1,67,0,15
1,70,55,14
1,69,0,9
1,70,0,19
1,72,95,3
1,70,69,28
1,72,0,5
1,69,75,27
1,70,0,2
1,70,92,27
1,69,0,4
1,70,0,29
1,67,100,1
1,67,0,148
1,62,104,4
1,67,82,29
1,62,0,5
1,66,84,26
1,67,0,4
1,66,0,136
1,50,72,62
1,50,0,31
1,55,97,4
1,55,0,45
1,55,84,12
1,55,0,31
1,57,70,3
1,58,71,30
1,57,0,6
1,58,0,19
1,60,91,4
1,58,71,26
1,60,0,4
1,58,0,27
1,57,88,3
1,58,70,26
1,57,0,3
1,58,0,28
1,55,105,0
1,55,0,26
1,62,113,7
1,62,0,10
1,62,114,18
1,62,0,31
1,67,114,6
1,62,106,108
1,67,0,2
1,62,0,24
1,65,109,7
1,65,0,34
1,63,117,2
1,63,0,175
1,57,58,63
1,57,0,13
1,57,101,15
1,57,0,34
1,62,92,0
1,62,0,54
1,57,95,4
1,57,0,50
1,60,104,8
1,58,99,65
1,60,0,4
1,58,0,47
1,57,93,3
1,57,0,55
1,58,114,13
1,58,0,54
1,62,121,4
1,62,0,35
1,62,90,24
1,62,0,10
1,62,101,21
1,62,0,25
1,67,109,4
1,67,0,109
1,62,100,5
1,62,0,25
1,65,110,6
1,65,0,29
1,63,122,2
1,63,0,55
1,57,98,188
1,57,0,59
1,62,99,0
1,62,0,59
1,57,99,1
1,57,0,53
1,60,100,4
1,58,107,63
1,60,0,5
1,58,0,53
1,57,97,2
1,58,125,61
1,57,0,3
1,58,0,40
1,58,125,19
1,57,103,59
1,58,0,4
1,58,64,24
1,57,0,3
1,58,0,28
1,62,108,1
1,62,0,58
1,60,106,2
1,60,0,55
1,58,84,4
1,58,0,60
1,57,95,1
1,58,69,26
1,57,0,7
1,58,0,22
1,60,81,3
1,58,95,61
1,60,0,5
1,58,0,50
1,57,100,0
1,57,0,50
1,57,97,15
1,58,104,32
1,57,0,7
1,58,0,21
1,60,103,1
1,58,101,53
1,60,0,3
1,57,99,55
1,58,0,6
1,57,0,12
1,57,105,12
1,55,103,95
1,57,0,4
1,62,127,208
1,55,0,11
1,67,127,20
1,62,0,3
1,67,0,53
1,69,127,0
1,69,0,51
1,70,122,8
1,70,0,215
1,72,92,0
1,69,108,30
1,72,0,3
1,69,0,57
1,67,100,0
1,66,114,27
1,67,0,7
1,66,0,134
1,62,100,14
1,62,0,20
1,74,114,8
1,74,0,49
1,75,117,11
1,72,113,32
1,75,0,1
1,72,0,50
1,74,108,6
1,74,0,60
1,70,122,0
1,70,0,50
1,62,83,40
1,67,104,31
1,62,0,2
1,69,100,57
1,67,0,2
1,69,0,41
1,70,119,13
1,70,0,209
1,72,93,2
1,69,88,31
1,72,0,5
1,67,98,54
1,69,0,1
1,65,106,27
1,67,0,5
1,65,0,114
1,62,96,42
1,62,0,14
1,74,127,15
1,74,0,49
1,75,97,3
1,75,0,29
1,72,119,4
1,72,0,51
1,74,113,7
1,74,0,50
1,70,106,13
1,70,0,39
1,70,109,17
1,70,0,25
1,72,103,1
1,72,0,31
1,74,86,6
1,74,0,89
1,70,82,1
1,70,0,29
1,72,103,4
1,72,0,270
1,68,92,23
1,69,76,29
1,68,0,4
1,69,0,29
1,72,111,2
1,72,0,59
1,69,98,2
1,72,92,84
1,69,0,4
1,70,92,58
1,72,0,4
1,70,0,27
1,69,92,3
1,69,0,54
1,70,95,2
1,70,0,60
1,67,103,1
1,67,0,59
1,67,76,0
1,69,86,31
1,67,0,15
1,70,55,14
1,69,0,9
1,70,0,19
1,72,95,3
1,70,69,28
1,72,0,5
1,69,75,27
1,70,0,2
1,70,92,27
1,69,0,4
1,70,0,29
1,67,100,1
1,67,0,148
1,62,104,4
1,67,82,29
1,62,0,5
1,66,84,26
1,67,0,4
1,66,0,136
1,50,72,62
1,50,0,31
1,55,97,4
1,55,0,30
1,55,110,0
1,55,0,25
1,58,92,5
1,58,0,25
1,60,86,2
1,62,108,31
1,60,0,4
1,62,0,20
1,67,103,10
1,69,96,26
1,67,0,4
1,70,80,25
1,69,0,4
1,70,0,22
1,72,103,3
1,72,0,26
1,74,127,6
1,72,95,129
1,74,0,4
1,70,85,56
1,72,0,3
1,70,0,177
1,62,127,2490
1,62,0,50
1,67,127,8
1,67,0,56
1,69,127,4
1,69,0,41
1,72,127,41
1,70,127,45
1,72,0,4
1,70,0,132
1,70,112,10
1,70,0,24
1,69,122,5
1,69,0,183
1,74,127,27
1,74,0,38
1,74,126,18
1,74,0,55
1,75,104,5
1,75,0,30
1,72,116,2
1,72,0,53
1,74,116,4
1,70,112,61
1,74,0,4
1,70,0,67
1,62,77,19
1,62,0,30
1,67,121,2
1,69,127,57
1,67,0,1
1,69,0,60
1,74,127,5
1,74,0,195
1,74,100,14
1,74,0,20
1,75,112,8
1,75,0,61
1,74,122,1
1,74,0,55
1,72,116,1
1,72,0,114
1,74,127,43
1,75,99,58
1,74,0,1
1,75,0,20
1,77,114,11
1,77,0,53
1,74,124,4
1,74,0,48
1,75,125,15
1,75,0,45
1,74,116,13
1,74,0,24
1,75,91,4
1,75,0,19
1,77,117,13
1,77,0,56
1,74,122,4
1,74,0,59
1,75,127,11
1,75,0,253
1,72,88,66
1,72,0,25
1,74,89,0
1,74,0,21
1,77,101,10
1,77,0,34
1,74,121,1
1,74,0,44
1,74,93,18
1,74,0,60
1,72,100,1
1,70,81,57
1,72,0,8
1,69,81,52
1,70,0,1
1,69,0,50
1,67,92,9
1,67,0,58
1,67,83,0
1,69,90,30
1,67,0,26
1,70,70,1
1,69,0,9
1,70,0,19
1,72,87,2
1,70,69,28
1,72,0,5
1,69,78,27
1,70,0,4
1,69,0,26
1,67,91,0
1,67,0,20
1,67,92,9
1,62,59,151
1,67,0,8
1,67,75,21
1,62,0,2
1,66,72,31
1,67,0,3
1,66,0,192
1,50,100,17
1,50,0,25
1,55,68,4
1,55,0,299
1,55,58,28
1,55,0,34
1,62,76,0
1,62,0,55
1,60,76,3
1,58,61,58
1,60,0,1
1,55,53,208
1,58,0,5
1,58,69,23
1,55,0,2
1,57,80,36
1,58,0,2
1,57,0,332
1,50,71,31
1,55,65,159
1,50,0,6
1,55,0,458
3,36,86,5760
3,36,0,186
3,36,57,24
3,38,86,30
3,36,0,1
3,38,0,188
3,38,69,21
3,43,98,30
3,38,0,1
3,41,94,119
3,43,0,3
3,41,0,102
3,39,91,15
3,39,0,164
3,39,91,16
3,39,0,29
3,38,89,1
3,38,0,28
3,36,88,2
3,36,0,174
3,36,79,36
3,41,100,30
3,36,0,5
3,41,0,136
3,41,84,9
3,41,0,28
3,43,80,2
3,41,77,30
3,43,0,3
3,41,0,21
3,34,84,6
3,34,0,184
3,34,85,26
3,34,0,29
3,39,93,1
3,39,0,135
3,39,67,15
3,41,92,30
3,39,0,4
3,39,79,26
3,41,0,4
3,39,0,12
3,33,87,14
3,33,0,179
3,33,64,31
3,32,88,30
3,33,0,1
3,32,0,184
3,32,81,25
3,31,96,30
3,32,0,1
3,31,0,119
3,29,92,0
3,29,0,111
3,27,110,9
3,27,0,111
3,36,105,129
3,36,0,190
3,36,84,20
3,38,88,30
3,36,0,3
3,38,0,188
3,38,89,19
3,38,0,30
3,31,99,0
3,31,0,239
3,31,87,211
3,31,0,26
3,36,95,4
3,36,0,186
3,36,82,24
3,36,0,29
3,38,101,1
3,38,0,194
3,38,89,16
3,38,0,30
3,31,89,0
3,31,0,200
3,31,78,10
3,31,0,16
3,31,82,14
3,29,85,150
3,31,0,1
3,29,0,27
3,31,77,2
3,31,0,29
3,29,83,1
3,36,92,30
3,29,0,5
3,36,0,180
3,36,79,25
3,36,0,29
3,38,86,1
3,38,0,193
3,38,86,17
3,31,97,30
3,38,0,5
3,31,0,184
3,31,76,21
3,31,0,15
3,31,87,15
3,31,0,206
3,41,87,4
3,39,83,30
3,41,0,5
3,39,0,188
3,39,85,17
3,39,0,30
3,38,90,0
3,38,0,188
3,38,98,22
3,38,0,28
3,31,92,2
3,31,0,195
3,31,75,15
3,31,0,15
3,31,75,15
3,31,0,45
3,36,101,195
3,36,0,188
3,36,79,22
3,36,0,24
3,38,100,6
3,38,0,175
3,38,93,35
3,43,103,30
3,38,0,4
3,43,0,114
3,41,105,2
3,41,0,104
3,39,93,16
3,39,0,158
3,39,82,22
3,39,0,28
3,38,91,2
3,38,0,30
3,36,98,0
3,36,0,184
3,36,84,26
3,41,100,30
3,36,0,6
3,41,0,123
3,41,80,21
3,43,93,30
3,41,0,1
3,41,96,29
3,43,0,1
3,41,0,9
3,34,82,20
3,34,0,188
3,34,83,22
3,34,0,26
3,39,89,4
3,39,0,130
3,39,80,20
3,39,0,28
3,41,80,2
3,39,69,30
3,41,0,3
3,39,0,10
3,33,103,17
3,33,0,183
3,33,89,27
3,33,0,21
3,32,93,9
3,32,0,181
3,32,89,29
3,32,0,30
3,31,91,0
3,31,0,115
3,41,109,5
3,41,0,119
3,39,95,1
3,39,0,193
3,39,75,17
3,39,0,18
3,36,90,12
3,36,0,189
3,36,66,21
3,38,91,30
3,36,0,3
3,38,0,187
3,38,85,20
3,31,101,30
3,38,0,3
3,31,0,188
3,31,74,19
3,31,0,15
3,31,96,15
3,31,0,36
3,41,97,144
3,39,79,30
3,41,0,3
3,39,0,27
3,36,99,0
3,36,0,194
3,36,95,16
3,36,0,25
3,38,78,5
3,38,0,163
3,38,101,17
3,36,71,30
3,38,0,1
3,31,93,29
3,36,0,6
3,31,0,194
3,38,82,10
3,38,0,26
3,31,94,4
3,38,100,150
3,31,0,5
3,38,0,25
3,43,70,0
3,41,92,30
3,43,0,5
3,41,0,21
3,36,81,4
3,36,0,185
3,36,86,25
3,36,0,23
3,38,106,7
3,38,0,198
3,38,100,12
3,38,0,16
3,31,105,14
3,31,0,194
3,31,82,16
3,31,0,13
3,31,98,17
3,41,96,120
3,31,0,3
3,41,0,105
3,39,101,12
3,39,0,183
3,39,80,27
3,39,0,30
3,38,96,0
3,38,0,186
3,38,80,24
3,38,0,29
3,31,94,1
3,31,0,0
3,31,89,0
3,31,0,190
3,31,82,20
3,31,0,0
3,31,82,0
3,31,0,16
3,31,96,14
3,31,0,0
3,31,95,0
3,31,0,45
3,36,90,195
3,36,0,178
3,36,78,32
3,36,0,25
3,38,103,5
3,38,0,163
3,38,101,17
3,38,0,29
3,36,81,1
3,31,93,30
3,36,0,3
3,31,0,117
3,41,98,0
3,39,97,120
3,41,0,4
3,39,0,144
3,39,73,32
3,39,0,29
3,38,86,1
3,36,80,30
3,38,0,1
3,36,0,177
3,36,74,32
3,41,95,30
3,36,0,1
3,41,0,140
3,41,82,9
3,43,89,30
3,41,0,1
3,41,89,29
3,43,0,1
3,41,0,10
3,34,94,19
3,34,0,180
3,34,71,30
3,34,0,26
3,39,84,4
3,39,0,130
3,39,77,20
3,39,0,26
3,41,81,4
3,39,67,30
3,41,0,3
3,33,88,27
3,39,0,1
3,33,0,187
3,33,82,22
3,33,0,23
3,32,77,7
3,32,0,179
3,38,95,1
3,38,0,28
3,36,38,2
3,31,75,30
3,33,62,0
3,36,0,4
3,33,0,7
3,31,0,109
3,29,102,0
3,29,0,118
3,39,98,2
3,39,0,188
3,36,85,52
3,36,0,193
3,36,79,17
3,36,0,21
3,38,62,9
3,38,0,159
3,38,63,21
3,38,0,29
3,36,69,1
3,31,98,30
3,36,0,3
3,29,95,117
3,31,0,8
3,28,100,112
3,29,0,4
3,28,0,225
4,62,75,300
4,62,0,30
4,67,89,0
4,67,0,55
4,62,104,5
4,62,0,60
4,65,106,0
4,48,67,30
4,51,83,30
4,63,89,60
4,65,0,6
4,51,0,105
4,48,0,4
4,49,60,27
4,50,89,8
4,49,0,5
4,63,0,33
4,57,85,22
4,57,0,30
4,62,89,0
4,62,0,59
4,57,86,1
4,57,0,60
4,60,106,0
4,50,0,13
4,43,68,17
4,46,59,30
4,60,0,148
4,55,67,2
4,43,0,6
4,55,0,20
4,46,0,0
4,57,73,4
4,43,76,30
4,58,63,0
4,57,0,11
4,46,50,19
4,50,55,30
4,62,92,0
4,58,0,4
4,67,70,26
4,62,0,5
4,67,0,53
4,62,86,2
4,43,0,53
4,62,0,6
4,65,91,1
4,46,0,3
4,50,0,2
4,48,77,25
4,51,73,30
4,63,92,0
4,65,0,6
4,51,0,108
4,48,0,27
4,57,82,9
4,57,0,0
4,57,60,0
4,55,79,30
4,55,0,0
4,55,57,0
4,57,0,4
4,63,0,10
4,54,84,16
4,54,0,0
4,54,77,0
4,55,0,5
4,50,86,25
4,57,77,30
4,54,0,6
4,57,0,24
4,57,70,0
4,62,84,0
4,62,0,60
4,57,0,0
4,57,76,0
