track,note,velocity,time
0,60,120,0
0,62,124,0
0,38,107,0
0,60,127,0
0,62,116,0
0,43,127,0
0,38,127,0
0,62,96,0
0,38,96,0
0,53,96,0
0,55,96,0
0,60,96,0
0,62,0,24
0,60,0,0
0,60,0,0
0,62,0,0
0,55,103,0
0,55,127,0
0,55,0,30
0,55,0,0
0,57,116,0
0,57,113,0
0,57,0,30
0,57,0,0
0,65,123,0
0,65,127,0
0,65,0,60
0,65,0,0
0,64,127,0
0,64,127,0
0,38,0,30
0,64,0,30
0,64,0,0
0,43,0,0
0,38,0,4
0,38,0,0
0,60,113,0
0,62,119,0
0,43,94,0
0,50,94,0
0,62,127,0
0,43,127,0
0,50,125,0
0,43,103,0
0,43,96,0
0,62,0,20
0,62,0,0
0,60,0,0
0,67,81,0
0,69,126,0
0,69,0,30
0,67,0,0
0,62,110,0
0,55,127,0
0,55,0,30
0,62,0,0
0,59,77,0
0,57,127,0
0,57,0,30
0,53,0,0
0,62,0,0
0,55,0,0
0,59,0,0
0,60,0,0
0,55,77,0
0,59,127,0
0,62,96,0
0,55,96,0
0,47,96,0
0,69,96,2
0,47,0,27
0,55,0,0
0,43,0,0
0,43,0,0
0,43,0,0
0,50,0,0
0,62,0,0
0,43,0,0
0,62,127,0
0,60,127,0
0,38,109,0
0,43,127,0
0,62,127,0
0,60,127,0
0,38,118,0
0,67,45,0
0,38,102,0
0,62,102,0
0,53,102,0
0,55,102,0
0,60,102,0
0,69,0,2
0,55,0,1
0,50,0,0
0,59,0,2
0,62,0,24
0,60,0,0
0,62,0,0
0,60,0,0
0,55,93,0
0,55,124,0
0,67,0,10
0,65,75,0
0,65,0,20
0,55,0,0
0,55,0,0
0,57,99,0
0,57,106,0
0,67,78,0
0,67,0,20
0,65,82,0
0,57,0,10
0,57,0,0
0,65,127,0
0,65,127,0
0,65,0,10
0,64,84,0
0,64,0,20
0,38,0,0
0,65,86,0
0,43,110,0
0,65,0,20
0,64,88,0
0,65,0,10
0,65,0,0
0,64,127,0
0,64,127,0
0,62,88,10
0,64,0,10
0,64,0,10
0,64,0,0
0,38,0,0
0,62,0,20
0,64,89,0
0,43,0,10
0,38,0,0
0,64,0,2
0,62,89,0
0,62,0,7
0,43,0,0
0,53,0,0
0,55,0,0
0,60,0,0
0,60,109,0
0,62,111,0
0,50,84,0
0,43,83,0
0,62,127,0
0,43,127,0
0,50,127,0
0,43,122,0
0,60,89,0
0,55,122,0
0,43,122,0
0,59,122,0
0,50,0,26
0,62,0,0
0,62,0,0
0,60,0,0
0,50,92,0
0,50,127,0
0,50,0,4
0,55,100,0
0,55,116,0
0,55,0,7
0,55,0,0
0,57,105,0
0,57,114,0
0,57,0,7
0,57,0,0
0,59,113,0
0,59,127,0
0,60,0,4
0,59,0,4
0,50,0,4
0,43,0,0
0,43,0,0
0,62,0,0
0,43,0,0
0,55,0,0
0,50,0,0
0,59,0,0
0,59,0,0
0,43,0,0
0,62,95,0
0,52,93,0
0,55,96,0
0,57,80,0
0,45,94,0
0,33,96,0
0,33,127,0
0,57,101,0
0,57,0,9
0,57,97,4
0,57,0,7
0,57,90,4
0,57,0,20
0,57,83,7
0,57,0,20
0,62,0,10
0,57,0,0
0,55,0,0
0,52,0,0
0,60,65,0
0,55,101,0
0,52,94,0
0,57,90,0
0,57,113,0
0,57,0,55
0,33,0,5
0,45,0,0
0,55,91,0
0,55,0,20
0,57,91,10
0,57,0,14
0,33,0,0
0,60,0,0
0,55,0,0
0,52,0,0
0,62,96,0
0,57,109,0
0,54,109,0
0,59,67,0
0,47,100,0
0,35,97,0
0,35,127,0
0,57,0,22
0,59,88,0
0,59,0,20
0,59,101,10
0,59,0,60
0,62,0,0
0,54,0,0
0,57,0,0
0,62,86,0
0,54,106,0
0,59,122,0
0,57,98,0
0,59,0,25
0,57,93,5
0,57,0,30
0,35,0,0
0,47,0,0
0,59,108,0
0,59,0,30
0,62,102,0
0,62,0,19
0,54,0,0
0,62,0,0
0,35,0,0
0,59,0,0
0,57,0,0
0,36,85,0
0,48,84,0
0,62,112,0
0,60,96,0
0,52,117,0
0,55,114,0
0,36,127,0
0,64,100,0
0,64,0,52
0,62,101,0
0,62,0,20
0,62,88,10
0,62,0,30
0,55,0,0
0,60,0,0
0,62,0,0
0,52,0,0
0,60,83,0
0,62,109,0
0,55,114,0
0,52,113,0
0,60,90,30
0,60,0,30
0,36,0,0
0,48,0,0
0,62,123,0
0,36,0,23
0,55,0,0
0,62,0,0
0,60,0,0
0,52,0,0
0,53,109,0
0,62,110,0
0,60,109,0
0,55,109,0
0,26,90,0
0,38,91,0
0,38,127,0
0,26,0,52
0,38,0,30
0,55,0,30
0,60,0,0
0,62,0,0
0,62,0,0
0,53,0,0
0,53,97,0
0,57,117,0
0,62,86,0
0,60,92,0
0,62,90,60
0,62,0,30
0,64,96,0
0,64,0,19
0,60,0,0
0,57,0,0
0,38,0,0
0,53,0,0
0,62,0,0
0,65,92,0
0,55,112,0
0,60,110,0
0,57,100,0
0,41,84,0
0,53,100,0
0,41,127,0
0,65,101,0
0,65,0,59
0,64,90,0
0,64,0,30
0,62,97,0
0,60,0,30
0,65,0,0
0,57,0,0
0,55,0,0
0,65,99,0
0,55,119,0
0,60,121,0
0,57,121,0
0,62,0,60
0,41,0,7
0,53,0,0
0,60,84,0
0,60,0,30
0,60,0,0
0,65,0,0
0,57,0,0
0,55,0,0
0,55,105,0
0,62,103,0
0,59,127,0
0,41,80,0
0,53,80,0
0,62,81,0
0,62,0,58
0,64,93,0
0,64,0,30
0,55,84,0
0,59,0,30
0,62,0,0
0,55,0,0
0,55,114,0
0,62,110,0
0,59,127,0
0,55,0,60
0,55,88,0
0,55,0,30
0,53,0,0
0,41,0,0
0,53,73,0
0,53,0,18
0,59,0,0
0,41,0,0
0,62,0,0
0,55,0,0
0,62,51,0
0,55,117,0
0,52,125,0
0,59,127,0
0,40,104,0
0,52,91,0
0,40,127,0
0,55,106,0
0,55,0,116
0,62,0,0
0,59,0,0
0,52,0,0
0,55,0,0
0,62,72,0
0,55,121,0
0,52,125,0
0,59,127,0
0,40,0,60
0,40,0,0
0,38,127,0
0,62,118,0
0,62,0,30
0,60,121,0
0,59,0,23
0,55,0,0
0,52,0,0
0,62,0,0
0,52,0,0
0,55,119,0
0,60,112,0
0,57,112,0
0,52,121,0
0,33,97,0
0,45,90,0
0,33,127,0
0,38,0,3
0,57,0,112
0,60,0,0
0,60,0,0
0,55,0,0
0,52,0,0
0,55,118,0
0,60,113,0
0,52,127,0
0,57,105,0
0,62,103,60
0,62,0,5
0,45,0,0
0,33,0,0
0,64,104,0
0,64,0,30
0,57,0,0
0,60,0,0
0,55,0,0
0,33,0,0
0,52,0,0
0,53,118,0
0,62,111,0
0,57,111,0
0,60,105,0
0,38,85,0
0,50,81,0
0,38,127,0
0,65,75,0
0,65,0,12
0,65,79,10
0,65,0,20
0,62,101,10
0,57,0,60
0,53,0,0
0,60,0,0
0,62,0,0
0,53,113,0
0,57,112,0
0,62,107,0
0,60,107,0
0,38,0,60
0,50,0,0
0,62,0,30
0,57,105,0
0,57,0,30
0,38,0,0
0,53,0,0
0,60,0,0
0,57,0,0
0,62,0,0
0,53,95,0
0,57,97,0
0,62,92,0
0,60,72,0
0,33,87,0
0,45,80,0
0,33,127,0
0,60,96,0
0,60,0,24
0,60,99,0
0,60,0,60
0,57,103,0
0,62,0,30
0,53,0,0
0,60,0,0
0,57,0,0
0,53,98,0
0,57,109,0
0,62,91,0
0,60,98,0
0,57,0,30
0,53,94,0
0,53,0,30
0,33,0,0
0,45,0,0
0,57,89,0
0,57,0,1
0,62,0,0
0,53,0,0
0,33,0,0
0,57,0,0
0,60,0,0
0,55,118,0
0,62,111,0
0,59,127,0
0,31,91,0
0,43,85,0
0,31,127,0
0,55,105,0
0,50,105,30
0,50,0,30
0,55,123,0
0,55,0,30
0,57,127,0
0,57,0,30
0,55,0,0
0,62,0,0
0,59,0,0
0,67,127,30
0,67,0,30
0,65,96,0
0,65,0,30
0,64,127,0
0,57,123,6
0,64,0,1
0,57,0,3
0,59,109,0
0,55,0,50
0,59,0,2
0,31,0,4
0,31,0,0
0,43,0,0
0,62,95,0
0,52,93,0
0,55,96,0
0,57,80,0
0,33,106,0
0,45,94,0
0,33,127,0
0,57,105,0
0,45,99,0
0,52,99,0
0,64,99,0
0,57,99,0
0,60,99,0
0,57,0,2
0,57,88,4
0,57,0,3
0,57,96,4
0,57,0,3
0,57,97,17
0,57,0,11
0,57,0,19
0,62,0,0
0,52,0,0
0,55,0,0
0,60,65,0
0,55,101,0
0,52,94,0
0,57,90,0
0,57,98,0
0,57,0,53
0,33,0,7
0,45,0,0
0,33,0,0
0,33,127,0
0,55,99,0
0,55,0,26
0,57,86,4
0,57,106,12
0,57,0,6
0,33,0,0
0,60,0,0
0,52,0,0
0,60,0,0
0,57,0,0
0,52,0,0
0,64,0,0
0,45,0,0
0,55,0,0
0,62,96,0
0,57,109,0
0,54,109,0
0,59,67,0
0,47,105,0
0,35,113,0
0,35,127,0
0,47,106,0
0,54,106,0
0,62,106,0
0,57,0,16
0,59,104,10
0,59,0,13
0,59,104,17
0,62,0,60
0,57,0,0
0,54,0,0
0,47,0,0
0,59,0,0
0,62,86,0
0,54,106,0
0,59,122,0
0,57,98,0
0,59,0,33
0,35,0,27
0,35,99,0
0,47,110,0
0,59,117,0
0,62,104,30
0,59,0,2
0,57,0,17
0,47,0,6
0,62,0,0
0,57,0,0
0,54,0,0
0,59,0,0
0,47,0,0
0,54,0,0
0,35,0,0
0,62,0,0
0,35,0,0
0,36,86,0
0,62,112,0
0,60,96,0
0,52,117,0
0,55,114,0
0,48,98,0
0,36,127,0
0,48,115,0
0,62,115,0
0,64,115,0
0,55,115,0
0,64,123,26
0,62,0,15
0,64,0,34
0,62,102,11
0,52,0,30
0,60,0,0
0,62,0,0
0,48,0,0
0,55,0,0
0,62,109,0
0,55,114,0
0,52,113,0
0,60,83,0
0,62,0,19
0,62,113,11
0,36,0,30
0,36,92,0
0,48,107,0
0,60,103,0
0,62,0,22
0,60,0,8
0,62,123,0
0,64,0,27
0,36,0,0
0,52,0,0
0,62,0,0
0,62,0,0
0,55,0,0
0,36,0,0
0,48,0,0
0,60,0,0
0,48,0,0
0,38,103,0
0,50,92,0
0,62,110,0
0,60,109,0
0,55,109,0
0,53,109,0
0,38,127,0
0,43,115,0
0,60,115,0
0,62,115,0
0,62,0,23
0,64,107,3
0,64,0,88
0,62,0,2
0,53,0,0
0,55,0,0
0,43,0,0
0,55,0,0
0,60,0,0
0,57,117,0
0,62,86,0
0,60,92,0
0,53,97,0
0,50,127,0
0,57,127,0
0,53,127,0
0,62,98,60
0,64,98,30
0,62,0,3
0,38,0,13
0,62,0,3
0,50,0,0
0,53,0,0
0,60,0,0
0,38,0,0
0,62,0,0
0,64,0,0
0,53,0,0
0,50,0,0
0,60,0,0
0,57,0,0
0,57,0,0
0,65,92,0
0,55,112,0
0,60,110,0
0,57,100,0
0,41,108,0
0,53,118,0
0,41,127,0
0,65,111,0
0,53,119,0
0,53,119,0
0,55,119,0
0,57,119,0
0,53,119,0
0,60,119,0
0,65,0,25
0,65,103,5
0,65,0,58
0,62,114,2
0,57,0,30
0,65,0,0
0,60,0,0
0,53,0,0
0,55,0,0
0,65,99,0
0,55,119,0
0,60,121,0
0,57,121,0
0,62,0,29
0,62,40,1
0,62,0,14
0,41,0,16
0,53,0,0
0,41,104,0
0,53,109,0
0,62,98,0
0,60,97,11
0,62,0,13
0,65,0,2
0,57,0,0
0,60,0,0
0,55,0,0
0,60,0,0
0,53,0,0
0,53,0,0
0,57,0,0
0,41,0,0
0,55,105,0
0,62,103,0
0,59,127,0
0,43,112,0
0,55,95,0
0,62,97,0
0,62,124,0
0,55,111,0
0,59,122,0
0,60,0,3
0,55,0,27
0,62,0,20
0,64,101,10
0,64,0,56
0,55,0,4
0,59,0,0
0,62,0,0
0,55,114,0
0,62,110,0
0,59,127,0
0,55,95,4
0,41,0,56
0,43,0,0
0,55,0,0
0,55,107,0
0,43,109,0
0,41,127,0
0,55,0,2
0,55,108,28
0,55,0,3
0,43,0,19
0,59,0,0
0,62,0,0
0,62,0,0
0,55,0,0
0,59,0,0
0,41,0,0
0,55,0,0
0,53,0,0
0,55,0,0
0,62,51,0
0,55,117,0
0,52,125,0
0,59,127,0
0,40,127,0
0,52,86,0
0,40,127,0
0,55,111,0
0,52,124,0
0,55,124,0
0,62,124,0
0,52,124,0
0,59,124,0
0,55,0,17
0,55,91,13
0,55,0,49
0,55,113,11
0,52,0,30
0,62,0,0
0,59,0,0
0,55,0,0
0,62,72,0
0,55,121,0
0,52,125,0
0,59,127,0
0,55,0,9
0,62,111,21
0,52,0,30
0,40,0,0
0,40,0,0
0,40,127,0
0,62,0,19
0,60,116,11
0,52,0,27
0,40,0,0
0,62,0,0
0,52,0,0
0,55,0,0
0,62,0,0
0,52,0,0
0,59,0,0
0,59,0,0
0,55,0,0
0,55,119,0
0,60,112,0
0,57,112,0
0,52,121,0
0,33,105,0
0,45,106,0
0,33,127,0
0,45,124,0
0,55,124,0
0,64,124,0
0,57,124,0
0,60,124,0
0,60,0,17
0,59,108,9
0,59,0,30
0,57,108,0
0,55,0,60
0,57,0,0
0,52,0,0
0,60,0,0
0,55,118,0
0,60,113,0
0,52,127,0
0,57,105,0
0,57,0,30
0,33,0,30
0,45,0,0
0,62,108,0
0,62,0,9
0,64,108,0
0,64,0,19
0,52,0,11
0,55,0,0
0,45,0,0
0,33,0,0
0,64,0,0
0,57,0,0
0,55,0,0
0,60,0,0
0,57,0,0
0,60,0,0
0,38,94,0
0,50,98,0
0,53,118,0
0,62,111,0
0,57,111,0
0,60,105,0
0,38,127,0
0,65,108,0
0,50,118,0
0,60,118,0
0,57,118,0
0,53,118,0
0,65,118,0
0,65,0,26
0,65,108,0
0,65,0,54
0,62,99,6
0,62,0,30
0,53,0,0
0,60,0,0
0,57,0,0
0,53,113,0
0,57,112,0
0,62,107,0
0,60,107,0
0,38,0,60
0,50,0,0
0,38,109,0
0,50,105,0
0,62,0,8
0,57,105,4
0,57,0,16
0,38,0,14
0,62,0,0
0,53,0,0
0,38,0,0
0,50,0,0
0,57,0,0
0,60,0,0
0,50,0,0
0,33,96,0
0,45,91,0
0,53,95,0
0,57,97,0
0,62,92,0
0,60,72,0
0,45,126,0
0,60,106,0
0,45,102,0
0,60,0,11
0,60,107,17
0,60,0,50
0,57,108,10
0,53,0,30
0,57,0,0
0,62,0,0
0,60,0,0
0,53,98,0
0,57,109,0
0,62,91,0
0,60,98,0
0,57,0,27
0,53,110,3
0,53,0,16
0,57,110,14
0,57,0,21
0,60,0,8
0,57,0,0
0,65,0,0
0,45,0,0
0,53,0,0
0,60,0,0
0,33,0,0
0,45,0,0
0,53,0,0
0,45,0,0
0,62,0,0
0,57,0,0
0,62,127,0
0,59,127,0
0,55,127,0
0,43,121,0
0,31,127,0
0,31,127,0
0,55,106,0
0,43,111,0
0,62,111,0
0,60,111,0
0,55,111,0
0,55,0,24
0,62,0,0
0,59,0,0
0,43,0,30
0,31,0,0
0,55,122,14
0,59,127,0
0,62,125,0
0,43,125,0
0,31,107,0
0,62,0,28
0,59,0,0
0,55,0,0
0,60,0,0
0,59,127,0
0,67,122,30
0,55,0,18
0,67,0,12
0,65,103,0
0,65,0,30
0,43,0,0
0,31,0,0
0,64,127,0
0,57,127,3
0,59,103,3
0,43,114,0
0,31,109,0
0,64,0,8
0,57,0,9
0,55,110,21
0,31,0,30
0,43,127,0
0,64,118,0
0,55,0,3
0,67,103,10
0,64,0,3
0,67,0,27
0,43,0,0
0,40,127,0
0,64,110,0
0,62,94,30
0,64,0,6
0,40,0,24
0,38,127,0
0,60,103,0
0,62,0,4
0,60,0,23
0,60,110,3
0,43,0,23
0,59,0,1
0,31,0,0
0,62,0,6
0,55,0,0
