track,note,velocity,time
1,70,127,864
1,71,127,0
1,73,127,0
1,71,127,0
1,70,127,0
1,75,127,0
1,73,127,0
1,71,127,0
1,70,127,0
1,71,127,0
1,68,127,0
1,70,127,0
1,71,127,0
1,66,127,0
1,62,127,0
1,65,127,0
1,62,127,0
1,65,127,0
1,63,127,0
1,66,127,0
1,65,127,0
1,68,127,0
1,66,127,0
1,70,127,0
1,66,127,96
1,63,127,0
1,63,127,0
1,66,127,0
1,63,127,0
1,68,127,0
1,65,127,0
1,62,127,0
1,63,127,0
1,65,127,0
1,67,127,0
1,67,127,48
1,68,127,0
1,70,127,0
1,68,127,0
1,67,127,0
1,68,127,0
1,67,127,0
1,65,127,0
1,65,127,96
1,67,127,0
1,68,127,0
1,63,127,0
1,62,127,0
1,62,127,0
1,63,127,0
1,65,127,0
1,67,127,0
1,63,127,0
1,60,127,0
1,60,127,0
1,62,127,0
1,63,127,0
1,65,127,0
1,62,127,0
1,59,127,0
1,60,127,0
1,62,127,0
1,64,127,0
1,79,127,672
1,80,127,48
1,82,127,48
1,80,127,96
1,79,127,48
1,80,127,48
1,79,127,48
1,77,127,0
1,77,127,96
1,79,127,0
1,80,127,0
1,75,127,0
1,74,127,0
1,74,127,0
1,75,127,0
1,77,127,0
1,75,127,0
1,79,127,0
1,72,127,0
1,75,127,0
1,72,127,0
1,72,127,0
1,74,127,0
1,75,127,0
1,77,127,0
1,74,127,0
1,71,127,0
1,72,127,0
1,74,127,0
1,67,127,0
1,72,127,0
1,76,127,0
1,76,127,98
1,74,127,0
1,76,127,0
1,71,127,0
1,72,127,0
1,74,127,0
1,67,127,0
1,67,127,0
1,69,127,0
1,73,127,0
1,76,127,0
1,69,127,0
1,74,127,0
1,77,127,0
1,77,127,48
1,77,127,0
1,77,127,0
1,76,127,0
1,74,127,0
1,72,127,0
1,74,127,0
1,67,127,0
1,72,127,0
1,76,127,0
1,69,127,0
1,72,127,0
1,67,127,0
1,64,127,0
1,67,127,0
1,72,127,0
1,76,127,0
1,77,127,0
1,79,127,0
1,79,127,0
1,81,127,0
1,78,127,0
1,76,127,0
1,74,127,0
1,74,127,0
1,81,127,96
1,81,127,0
1,78,127,0
1,74,127,96
1,71,127,0
1,79,127,0
1,78,127,0
1,79,127,0
1,81,127,0
1,83,127,0
1,84,127,96
1,84,127,0
1,84,127,0
1,84,127,0
1,83,127,0
1,81,127,0
1,79,127,0
1,78,127,0
1,81,127,0
1,79,127,0
1,79,127,0
1,79,127,96
1,67,127,96
1,68,127,0
1,70,127,0
1,68,127,0
1,67,127,0
1,68,127,0
1,67,127,0
1,65,127,0
1,65,127,96
1,67,127,0
1,68,127,0
1,63,127,0
1,62,127,0
1,62,127,0
1,63,127,0
1,65,127,0
1,67,127,0
1,63,127,0
1,60,127,0
1,60,127,0
1,62,127,0
1,63,127,0
1,65,127,0
1,62,127,0
1,59,127,0
1,60,127,0
1,62,127,0
1,64,127,0
1,63,127,0
1,63,127,0
1,62,127,0
1,65,127,96
1,62,127,0
1,64,127,0
1,59,127,0
1,60,127,0
1,62,127,0
1,57,127,0
1,57,127,0
1,59,127,0
1,62,127,0
1,67,127,0
1,61,127,0
1,65,127,0
1,69,127,0
1,65,127,96
1,65,127,0
1,65,127,0
1,64,127,0
1,62,127,0
1,60,127,0
1,62,127,0
1,64,127,0
1,60,127,0
1,60,127,0
1,60,127,0
1,64,127,0
1,67,127,0
1,64,127,0
1,67,127,0
1,72,127,0
1,67,127,96
1,67,127,0
1,69,127,0
1,66,127,0
1,64,127,0
1,62,127,0
1,62,127,96
1,69,127,0
1,66,127,0
1,67,127,0
1,74,127,0
1,74,127,0
1,71,127,0
1,79,127,0
1,72,127,96
1,72,127,0
1,72,127,0
1,71,127,0
1,69,127,0
1,67,127,0
1,66,127,0
1,69,127,0
1,67,127,0
1,67,127,0
1,67,127,0
1,67,127,96
1,68,127,0
1,70,127,0
1,68,127,0
1,67,127,0
1,68,127,0
1,67,127,0
1,65,127,0
1,65,127,96
1,67,127,0
1,68,127,0
1,63,127,0
1,62,127,0
1,62,127,0
1,63,127,0
1,65,127,0
1,67,127,0
1,63,127,0
1,60,127,0
1,60,127,0
1,62,127,0
1,63,127,0
1,65,127,0
1,62,127,0
1,59,127,0
1,60,127,0
1,62,127,0
1,64,127,0
1,79,127,672
1,80,127,48
1,82,127,48
1,80,127,96
1,79,127,48
1,80,127,48
1,79,127,48
1,77,127,0
1,77,127,96
1,79,127,0
1,80,127,0
1,75,127,0
1,74,127,0
1,74,127,0
1,75,127,0
1,77,127,0
1,75,127,0
1,79,127,0
1,72,127,0
1,75,127,0
1,72,127,0
1,72,127,0
1,74,127,0
1,75,127,0
1,77,127,0
1,74,127,0
1,71,127,0
1,72,127,0
1,74,127,0
1,67,127,0
1,72,127,0
1,76,127,0
1,76,127,0
1,77,127,0
1,79,127,0
1,77,127,0
1,76,127,0
1,81,127,0
1,79,127,0
1,77,127,0
1,76,127,0
1,77,127,0
1,74,127,0
1,76,127,0
1,77,127,0
1,72,127,0
1,71,127,0
1,68,127,0
1,71,127,0
1,69,127,0
1,72,127,0
1,71,127,0
1,74,127,0
1,76,127,0
1,72,127,0
1,76,127,0
1,69,127,0
1,72,127,0
1,76,127,0
1,71,127,0
1,72,127,0
1,74,127,0
1,71,127,0
1,74,127,0
1,68,127,0
1,71,127,0
1,74,127,0
1,69,127,0
1,71,127,0
1,72,127,0
1,69,127,0
1,72,127,0
1,65,127,0
1,69,127,0
1,72,127,0
1,72,127,0
1,74,127,0
1,64,127,0
1,68,127,0
1,71,127,0
1,77,127,0
2,66,127,1056
2,63,127,0
2,71,127,5856
2,67,127,0
2,74,127,96
2,70,127,0
2,77,127,0
2,73,127,0
2,80,127,0
2,75,127,0
2,75,127,0
2,74,127,0
2,72,127,0
2,71,127,0
2,75,127,0
2,72,127,0
2,67,127,0
2,63,127,0
2,67,127,0
2,74,127,0
2,71,127,0
2,65,127,0
2,62,127,0
2,65,127,0
2,65,127,2496
2,76,127,2016
2,72,127,0
2,71,127,0
2,70,127,3168
2,69,127,0
2,68,127,0
2,67,127,0
2,66,127,0
2,65,127,0
2,71,127,9312
2,67,127,0
2,74,127,96
2,70,127,0
2,77,127,0
2,73,127,0
2,80,127,0
2,75,127,0
2,75,127,0
2,74,127,0
2,72,127,0
2,71,127,0
2,75,127,0
2,72,127,0
2,67,127,0
2,63,127,0
2,67,127,0
2,74,127,0
2,71,127,0
2,65,127,0
2,62,127,0
2,65,127,0
2,52,127,3840
3,61,127,768
3,61,127,0
3,63,127,0
3,58,127,384
3,58,127,0
3,59,127,0
3,56,127,0
3,58,127,0
3,63,127,0
3,62,127,0
3,60,127,0
3,59,127,0
3,60,127,0
3,60,127,576
3,67,127,1344
3,63,127,0
3,58,127,0
3,56,127,0
3,60,127,0
3,63,127,0
3,62,127,0
3,60,127,0
3,56,127,0
3,65,127,0
3,59,127,0
3,55,127,0
3,63,127,0
3,60,127,0
3,55,127,0
3,62,127,0
3,60,127,0
3,56,127,0
3,53,127,0
3,62,127,0
3,59,127,0
3,55,127,0
3,53,127,0
3,64,127,0
3,60,127,0
3,55,127,0
3,62,127,0
3,57,127,0
3,54,127,0
3,62,127,0
3,59,127,0
3,55,127,0
3,62,127,0
3,59,127,0
3,55,127,0
3,64,127,0
3,61,127,0
3,57,127,0
3,62,127,0
3,57,127,0
3,53,127,0
3,57,127,0
3,60,127,0
3,53,127,0
3,62,127,0
3,59,127,0
3,55,127,0
3,53,127,0
3,64,127,0
3,60,127,0
3,57,127,0
3,53,127,0
3,62,127,0
3,59,127,0
3,55,127,0
3,53,127,0
3,60,127,0
3,55,127,0
3,52,127,0
3,60,127,0
3,57,127,0
3,53,127,0
3,60,127,0
3,55,127,0
3,52,127,0
3,55,127,48
3,55,127,0
3,60,127,0
3,64,127,0
3,60,127,0
3,55,127,0
3,57,127,48
3,62,127,0
3,57,127,0
3,62,127,0
3,65,127,0
3,57,127,0
3,54,127,0
3,59,127,0
3,54,127,0
3,62,127,0
3,59,127,0
3,54,127,0
3,55,127,48
3,59,127,0
3,55,127,0
3,64,127,0
3,59,127,0
3,55,127,0
3,64,127,0
3,60,127,0
3,55,127,0
3,64,127,0
3,60,127,0
3,55,127,0
3,62,127,0
3,60,127,0
3,54,127,0
3,64,127,0
3,60,127,0
3,55,127,0
3,62,127,0
3,60,127,0
3,54,127,0
3,60,127,0
3,57,127,0
3,53,127,0
3,59,127,0
3,55,127,0
3,53,127,0
3,58,127,0
3,63,127,96
3,62,127,0
3,60,127,0
3,56,127,0
3,58,127,0
3,55,127,0
3,53,127,0
3,60,127,0
3,55,127,0
3,51,127,0
3,51,127,96
3,53,127,48
3,55,127,48
3,51,127,0
3,48,127,0
3,48,127,0
3,55,127,0
3,50,127,0
3,56,127,0
3,60,127,0
3,53,127,0
3,55,127,0
3,59,127,0
3,56,127,0
3,55,127,0
3,53,127,0
3,51,127,0
3,50,127,0
3,54,127,96
3,55,127,0
3,56,127,0
3,57,127,0
3,56,127,0
3,55,127,0
3,55,127,0
3,48,127,0
3,57,127,0
3,54,127,0
3,55,127,0
3,59,127,0
3,57,127,0
3,61,127,0
3,65,127,0
3,61,127,0
3,57,127,0
3,60,127,96
3,57,127,0
3,53,127,0
3,57,127,0
3,53,127,0
3,59,127,0
3,55,127,0
3,60,127,0
3,57,127,0
3,55,127,0
3,59,127,0
3,48,127,0
3,52,127,0
3,55,127,0
3,57,127,0
3,53,127,0
3,48,127,0
3,52,127,0
3,55,127,0
3,64,127,0
3,60,127,0
3,55,127,0
3,66,127,0
3,62,127,0
3,57,127,0
3,67,127,0
3,62,127,0
3,59,127,0
3,64,127,0
3,60,127,0
3,55,127,0
3,62,127,0
3,60,127,0
3,54,127,0
3,65,127,0
3,60,127,0
3,57,127,0
3,65,127,0
3,59,127,0
3,55,127,0
3,63,127,288
3,62,127,0
3,60,127,0
3,59,127,0
3,60,127,0
3,60,127,576
3,67,127,1344
3,63,127,0
3,58,127,0
3,56,127,0
3,60,127,0
3,63,127,0
3,62,127,0
3,60,127,0
3,56,127,0
3,65,127,0
3,59,127,0
3,55,127,0
3,63,127,0
3,60,127,0
3,55,127,0
3,62,127,0
3,60,127,0
3,56,127,0
3,53,127,0
3,62,127,0
3,59,127,0
3,55,127,0
3,53,127,0
3,64,127,0
3,60,127,0
3,55,127,0
3,60,127,0
3,57,127,0
3,53,127,0
3,62,127,0
3,57,127,0
3,53,127,0
3,56,127,0
3,52,127,0
3,52,127,0
3,57,127,0
3,60,127,0
3,62,127,0
3,56,127,0
3,52,127,0
3,60,127,0
3,57,127,0
3,53,127,0
3,56,127,96
3,57,127,0
3,59,127,0
3,57,127,0
3,55,127,0
3,61,127,0
3,59,127,0
3,57,127,0
3,55,127,0
3,56,127,0
3,64,127,0
3,59,127,0
4,54,127,768
4,56,127,0
4,51,127,384
4,53,127,576
4,51,127,576
4,55,127,0
4,51,127,12672
4,55,127,0
4,48,127,2688
4,47,127,0
4,48,127,0
4,52,127,0
4,48,127,0
4,53,127,1152
5,42,127,768
5,47,127,0
5,44,127,0
5,46,127,0
5,39,127,0
5,42,127,0
5,47,127,0
5,46,127,0
5,39,127,0
5,43,127,0
5,44,127,0
5,41,127,0
5,43,127,0
5,36,127,0
5,39,127,0
5,44,127,0
5,43,127,0
5,36,127,0
5,39,127,0
5,42,127,0
5,45,127,0
5,46,127,0
5,39,127,0
5,43,127,0
5,44,127,0
5,44,127,0
5,41,127,0
5,41,127,0
5,43,127,0
5,43,127,0
5,36,127,0
5,43,127,0
5,39,127,0
5,39,127,0
5,44,127,0
5,44,127,0
5,43,127,0
5,43,127,0
5,48,127,0
5,48,127,144
5,48,127,0
5,48,127,0
5,48,127,144
5,48,127,0
5,48,127,0
5,47,127,0
5,47,127,0
5,47,127,0
5,43,127,0
5,43,127,0
5,43,127,0
5,45,127,0
5,45,127,0
5,50,127,0
5,50,127,0
5,50,127,0
5,43,127,0
5,43,127,0
5,43,127,0
5,43,127,0
5,48,127,0
5,48,127,0
5,48,127,0
5,48,127,144
5,48,127,2
5,48,127,0
5,48,127,0
5,48,127,0
5,48,127,0
5,48,127,0
5,47,127,0
5,47,127,0
5,40,127,0
5,47,127,0
5,45,127,0
5,45,127,0
5,38,127,0
5,38,127,0
5,43,127,0
5,43,127,0
5,43,127,0
5,43,127,0
5,39,127,0
5,43,127,0
5,44,127,0
5,41,127,0
5,41,127,0
5,36,127,0
5,39,127,0
5,44,127,0
5,43,127,0
5,36,127,0
5,41,127,0
5,43,127,0
5,36,127,0
5,40,127,0
5,48,127,0
5,47,127,0
5,43,127,0
5,45,127,0
5,38,127,0
5,43,127,0
5,48,127,0
5,48,127,0
5,48,127,0
5,48,127,0
5,43,127,0
5,43,127,0
5,48,127,0
5,48,127,0
5,47,127,0
5,40,127,0
5,40,127,0
5,45,127,0
5,45,127,0
5,38,127,0
5,38,127,0
5,43,127,0
5,43,127,0
5,43,127,0
5,39,127,0
5,43,127,0
5,44,127,0
5,41,127,0
5,43,127,0
5,36,127,0
5,39,127,0
5,44,127,0
5,43,127,0
5,36,127,0
5,39,127,0
5,42,127,0
5,45,127,0
5,46,127,0
5,39,127,0
5,43,127,0
5,44,127,0
5,44,127,0
5,41,127,0
5,41,127,0
5,43,127,0
5,43,127,0
5,36,127,0
5,43,127,0
5,39,127,0
5,39,127,0
5,44,127,0
5,44,127,0
5,43,127,0
5,43,127,0
5,48,127,0
5,48,127,0
5,48,127,0
5,48,127,0
5,41,127,0
5,41,127,0
5,38,127,0
5,38,127,0
5,38,127,0
5,38,127,0
5,40,127,0
5,40,127,0
5,45,127,0
5,40,127,0
5,40,127,0
5,45,127,0
5,40,127,0
5,47,127,0
5,40,127,0
5,40,127,0
5,47,127,0
5,40,127,0
5,41,127,0
5,36,127,0
5,36,127,0
5,41,127,0
5,41,127,0
5,40,127,0
6,35,64,768
6,42,80,0
6,42,70,0
6,42,70,0
6,38,74,0
6,42,80,0
6,42,70,0
6,35,64,0
6,42,20,0
6,35,64,0
6,42,80,0
6,42,63,0
6,42,20,0
6,38,64,0
6,42,90,0
6,35,64,48
6,42,54,0
6,46,64,0
6,35,64,0
6,42,80,0
6,42,70,0
6,42,70,0
6,38,74,0
6,42,80,0
6,42,70,0
6,35,64,0
6,42,20,0
6,35,64,0
6,42,80,0
6,35,64,0
6,42,63,0
6,42,64,0
6,38,64,0
6,42,90,0
6,35,64,48
6,42,54,0
6,46,64,0
6,35,64,0
6,42,80,0
6,42,70,0
6,42,70,0
6,38,74,0
6,42,80,0
6,42,70,0
6,35,64,0
6,42,20,0
6,35,64,0
6,42,80,0
6,42,63,0
6,42,20,0
6,38,64,0
6,42,90,0
6,35,64,48
6,42,54,0
6,46,64,0
6,35,64,0
6,42,80,0
6,42,70,0
6,42,70,0
6,38,74,0
6,42,80,0
6,42,70,0
6,35,64,0
6,42,20,0
6,35,64,0
6,42,80,0
6,35,64,0
6,42,63,0
6,42,64,0
6,38,64,0
6,42,90,0
6,35,64,48
6,42,54,0
6,46,64,0
6,35,64,0
6,42,80,0
6,42,70,0
6,42,70,0
6,38,74,0
6,42,80,0
6,42,70,0
6,35,64,0
6,42,20,0
6,35,64,0
6,42,80,0
6,42,63,0
6,42,20,0
6,38,64,0
6,42,90,0
6,35,64,48
6,42,54,0
6,46,64,0
6,35,64,0
6,42,80,0
6,42,70,0
6,42,70,0
6,38,74,0
6,42,80,0
6,42,70,0
6,35,64,0
6,42,20,0
6,35,64,0
6,42,80,0
6,35,64,0
6,42,63,0
6,42,64,0
6,38,64,0
6,42,90,0
6,35,64,48
6,42,54,0
6,46,64,0
6,35,64,0
6,42,80,0
6,42,70,0
6,42,70,0
6,38,74,0
6,42,80,0
6,42,70,0
6,35,64,0
6,42,20,0
6,35,64,0
6,42,80,0
6,42,63,0
6,42,20,0
6,38,64,0
6,42,90,0
6,35,64,48
6,42,54,0
6,46,64,0
