track,note,velocity,time
1,66,75,0
1,62,75,0
1,57,75,0
1,57,0,1532
1,62,0,0
1,66,0,0
1,59,75,4
1,66,75,0
1,62,75,0
1,62,0,1532
1,66,0,0
1,59,0,0
1,61,75,4
1,57,75,0
1,54,75,0
1,54,75,1344
1,57,75,0
1,62,75,0
1,57,0,188
1,54,0,0
1,61,0,0
1,57,0,2372
1,62,0,0
1,54,0,0
1,62,75,704
1,69,75,0
1,69,0,1532
1,62,0,0
1,62,75,4
1,71,75,0
1,71,0,1532
1,62,0,0
1,61,75,4
1,69,75,0
1,62,75,1440
1,67,75,0
1,69,0,92
1,61,0,0
1,62,0,1440
1,67,0,0
1,62,75,100
1,69,75,0
1,69,0,1532
1,62,0,0
1,62,75,4
1,71,75,0
1,71,0,1532
1,62,0,0
1,61,75,4
1,69,75,0
1,62,75,1440
1,67,75,0
1,69,0,92
1,61,0,0
1,62,0,1440
1,67,0,0
1,62,75,100
1,71,75,0
1,71,0,1028
1,62,0,0
1,64,75,316
1,72,75,0
1,72,0,1532
1,64,0,0
1,62,75,196
1,71,75,0
1,64,75,1344
1,72,75,0
1,71,0,188
1,62,0,0
1,64,0,1344
1,72,0,0
1,62,75,196
1,71,75,0
1,64,75,1344
1,72,75,0
1,71,0,188
1,62,0,0
1,64,0,1344
1,72,0,0
1,62,75,196
1,71,75,0
1,64,75,1344
1,72,75,0
1,71,0,188
1,62,0,0
1,64,0,1344
1,72,0,0
1,66,75,196
1,69,75,0
1,74,75,0
1,74,0,1532
1,69,0,0
1,66,0,0
1,69,75,4
1,73,75,0
1,64,75,0
1,64,0,1532
1,73,0,0
1,69,0,0
1,66,75,4
1,71,75,0
1,74,75,0
1,74,0,1532
1,71,0,0
1,66,0,0
1,66,75,4
1,69,75,0
1,73,75,0
1,73,0,1532
1,69,0,0
1,66,0,0
1,67,75,4
1,71,75,0
1,74,75,0
1,74,0,1532
1,71,0,0
1,67,0,0
1,69,75,4
1,73,75,0
1,64,75,0
1,64,0,1532
1,73,0,0
1,69,0,0
1,66,75,4
1,69,75,0
1,74,75,0
1,74,0,3068
1,69,0,0
1,66,0,0
1,66,75,4
1,69,75,0
1,74,75,0
1,74,0,1532
1,69,0,0
1,66,0,0
1,69,75,4
1,73,75,0
1,64,75,0
1,64,0,1532
1,73,0,0
1,69,0,0
1,66,75,4
1,71,75,0
1,74,75,0
1,74,0,1532
1,71,0,0
1,66,0,0
1,66,75,4
1,69,75,0
1,73,75,0
1,73,0,1532
1,69,0,0
1,66,0,0
1,67,75,4
1,71,75,0
1,74,75,0
1,74,0,1532
1,71,0,0
1,67,0,0
1,69,75,4
1,73,75,0
1,64,75,0
1,64,0,1532
1,73,0,0
1,69,0,0
1,66,75,4
1,69,75,0
1,74,75,0
1,74,0,3068
1,69,0,0
1,66,0,0
1,62,75,4
1,69,75,0
1,69,0,1532
1,62,0,0
1,62,75,4
1,71,75,0
1,71,0,1532
1,62,0,0
1,61,75,4
1,69,75,0
1,62,75,1440
1,67,75,0
1,69,0,92
1,61,0,0
1,62,0,1440
1,67,0,0
1,62,75,100
1,69,75,0
1,69,0,1532
1,62,0,0
1,62,75,4
1,71,75,0
1,71,0,1532
1,62,0,0
1,61,75,4
1,69,75,0
1,62,75,1440
1,67,75,0
1,69,0,92
1,61,0,0
1,62,0,1440
1,67,0,0
1,62,75,100
1,71,75,0
1,71,0,1028
1,62,0,0
1,64,75,316
1,72,75,0
1,72,0,1532
1,64,0,0
1,62,75,196
1,71,75,0
1,64,75,1344
1,72,75,0
1,71,0,188
1,62,0,0
1,64,0,1344
1,72,0,0
1,62,75,196
1,71,75,0
1,64,75,1344
1,72,75,0
1,71,0,188
1,62,0,0
1,64,0,1344
1,72,0,0
1,62,75,196
1,71,75,0
1,64,75,1344
1,72,75,0
1,71,0,188
1,62,0,0
1,64,0,1344
1,72,0,0
1,66,75,196
1,69,75,0
1,74,75,0
1,74,0,1532
1,69,0,0
1,66,0,0
1,69,75,4
1,73,75,0
1,64,75,0
1,64,0,1532
1,73,0,0
1,69,0,0
1,66,75,4
1,71,75,0
1,74,75,0
1,74,0,1532
1,71,0,0
1,66,0,0
1,66,75,4
1,69,75,0
1,73,75,0
1,73,0,1532
1,69,0,0
1,66,0,0
1,67,75,4
1,71,75,0
1,74,75,0
1,74,0,1532
1,71,0,0
1,67,0,0
1,69,75,4
1,73,75,0
1,64,75,0
1,64,0,1532
1,73,0,0
1,69,0,0
1,66,75,4
1,69,75,0
1,74,75,0
1,74,0,3068
1,69,0,0
1,66,0,0
1,66,75,4
1,69,75,0
1,74,75,0
1,74,0,1532
1,69,0,0
1,66,0,0
1,69,75,4
1,73,75,0
1,64,75,0
1,64,0,1532
1,73,0,0
1,69,0,0
1,66,75,4
1,71,75,0
1,74,75,0
1,74,0,1532
1,71,0,0
1,66,0,0
1,66,75,4
1,69,75,0
1,73,75,0
1,73,0,1532
1,69,0,0
1,66,0,0
1,67,75,4
1,71,75,0
1,74,75,0
1,74,0,1532
1,71,0,0
1,67,0,0
1,69,75,4
1,73,75,0
1,64,75,0
1,64,0,1532
1,73,0,0
1,69,0,0
1,66,75,4
1,69,75,0
1,74,75,0
1,74,0,3068
1,69,0,0
1,66,0,0
1,65,75,4
1,69,75,0
1,72,75,0
1,72,0,1532
1,69,0,0
1,65,0,0
1,64,75,4
1,67,75,0
1,72,75,0
1,72,0,1532
1,67,0,0
1,64,0,0
1,67,75,4
1,71,75,0
1,74,75,0
1,74,0,3068
1,71,0,0
1,67,0,0
1,65,75,4
1,69,75,0
1,72,75,0
1,72,0,1532
1,69,0,0
1,65,0,0
1,67,75,4
1,72,75,0
1,64,75,0
1,67,75,1344
1,71,75,0
1,74,75,0
1,67,0,188
1,64,0,0
1,72,0,0
1,67,0,1344
1,71,0,0
1,74,0,0
1,67,75,4
1,71,75,0
1,74,75,0
1,74,0,1532
1,71,0,0
1,67,0,0
1,66,75,196
1,69,75,0
1,74,75,0
1,74,0,1532
1,69,0,0
1,66,0,0
1,69,75,4
1,73,75,0
1,64,75,0
1,64,0,1532
1,73,0,0
1,69,0,0
1,66,75,4
1,71,75,0
1,74,75,0
1,74,0,1532
1,71,0,0
1,66,0,0
1,66,75,4
1,69,75,0
1,73,75,0
1,73,0,1532
1,69,0,0
1,66,0,0
1,67,75,4
1,71,75,0
1,74,75,0
1,74,0,1532
1,71,0,0
1,67,0,0
1,69,75,4
1,73,75,0
1,64,75,0
1,64,0,1532
1,73,0,0
1,69,0,0
1,66,75,4
1,69,75,0
1,74,75,0
1,74,0,3068
1,69,0,0
1,66,0,0
1,62,75,4
1,71,75,0
1,71,0,1028
1,62,0,0
1,64,75,316
1,72,75,0
1,72,0,1532
1,64,0,0
1,62,75,196
1,71,75,0
1,64,75,1344
1,72,75,0
1,71,0,188
1,62,0,0
1,64,0,1344
1,72,0,0
1,62,75,196
1,71,75,0
1,64,75,1344
1,72,75,0
1,71,0,188
1,62,0,0
1,64,0,1344
1,72,0,0
1,62,75,196
1,71,75,0
1,72,75,1344
1,64,75,0
1,71,0,188
1,62,0,0
1,72,0,2880
1,64,0,0
1,65,75,196
1,68,75,0
1,73,75,0
1,73,0,1532
1,68,0,0
1,65,0,0
1,72,75,4
1,76,75,0
1,67,75,0
1,67,0,1532
1,76,0,0
1,72,0,0
1,69,75,4
1,74,75,0
1,77,75,0
1,77,0,1532
1,74,0,0
1,69,0,0
1,69,75,4
1,72,75,0
1,76,75,0
1,76,0,1532
1,72,0,0
1,69,0,0
1,70,75,4
1,74,75,0
1,77,75,0
1,77,0,1532
1,74,0,0
1,70,0,0
1,72,75,4
1,76,75,0
1,67,75,0
1,67,0,1532
1,76,0,0
1,72,0,0
1,69,75,4
1,72,75,0
1,77,75,0
1,77,0,3068
1,72,0,0
1,69,0,0
1,69,75,4
1,72,75,0
1,77,75,0
1,77,0,1532
1,72,0,0
1,69,0,0
1,72,75,4
1,76,75,0
1,67,75,0
1,67,0,1532
1,76,0,0
1,72,0,0
1,69,75,4
1,74,75,0
1,77,75,0
1,77,0,1532
1,74,0,0
1,69,0,0
1,69,75,4
1,72,75,0
1,76,75,0
1,76,0,1532
1,72,0,0
1,69,0,0
1,70,75,4
1,74,75,0
1,77,75,0
1,77,0,1532
1,74,0,0
1,70,0,0
1,72,75,4
1,76,75,0
1,67,75,0
1,67,0,1532
1,76,0,0
1,72,0,0
1,69,75,4
1,72,75,0
1,77,75,0
1,77,0,3068
1,72,0,0
1,69,0,0
1,69,75,4
1,72,75,0
1,77,75,0
1,77,0,1532
1,72,0,0
1,69,0,0
1,72,75,4
1,76,75,0
1,67,75,0
1,67,0,1532
1,76,0,0
1,72,0,0
1,69,75,4
1,74,75,0
1,77,75,0
1,77,0,1532
1,74,0,0
1,69,0,0
1,69,75,4
1,72,75,0
1,76,75,0
1,76,0,1532
1,72,0,0
1,69,0,0
1,70,75,4
1,74,75,0
1,77,75,0
1,77,0,1532
1,74,0,0
1,70,0,0
1,72,75,4
1,76,75,0
1,67,75,0
1,67,0,1532
1,76,0,0
1,72,0,0
1,69,75,4
1,72,75,0
1,77,75,0
1,77,0,3068
1,72,0,0
1,69,0,0
1,69,75,4
1,72,75,0
1,77,75,0
1,77,0,1532
1,72,0,0
1,69,0,0
1,72,75,4
1,76,75,0
1,67,75,0
1,67,0,1532
1,76,0,0
1,72,0,0
1,69,75,4
1,74,75,0
1,77,75,0
1,77,0,1532
1,74,0,0
1,69,0,0
1,69,75,4
1,72,75,0
1,76,75,0
1,76,0,1532
1,72,0,0
1,69,0,0
1,70,75,4
1,74,75,0
1,77,75,0
1,77,0,1532
1,74,0,0
1,70,0,0
1,72,75,4
1,76,75,0
1,67,75,0
1,67,0,1532
1,76,0,0
1,72,0,0
1,69,75,4
1,72,75,0
1,77,75,0
1,77,0,3068
1,72,0,0
1,69,0,0
1,69,75,4
1,72,75,0
1,77,75,0
1,77,0,1532
1,72,0,0
1,69,0,0
1,72,75,4
1,76,75,0
1,67,75,0
1,67,0,1532
1,76,0,0
1,72,0,0
1,69,75,4
1,74,75,0
1,77,75,0
1,77,0,1532
1,74,0,0
1,69,0,0
1,69,75,4
1,72,75,0
1,76,75,0
1,76,0,1532
1,72,0,0
1,69,0,0
1,70,75,4
1,74,75,0
1,77,75,0
1,77,0,1532
1,74,0,0
1,70,0,0
1,72,75,4
1,76,75,0
1,67,75,0
1,67,0,1532
1,76,0,0
1,72,0,0
1,69,75,4
1,72,75,0
1,77,75,0
1,77,0,3068
1,72,0,0
1,69,0,0
1,69,75,4
1,72,75,0
1,77,75,0
1,77,0,1532
1,72,0,0
1,69,0,0
1,72,75,4
1,76,75,0
1,67,75,0
1,67,0,1532
1,76,0,0
1,72,0,0
1,69,75,4
1,74,75,0
1,77,75,0
1,77,0,1532
1,74,0,0
1,69,0,0
1,69,75,4
1,72,75,0
1,76,75,0
1,76,0,1532
1,72,0,0
1,69,0,0
1,70,75,4
1,74,75,0
1,77,75,0
1,77,0,1532
1,74,0,0
1,70,0,0
1,72,75,4
1,76,75,0
1,67,75,0
1,67,0,1532
1,76,0,0
1,72,0,0
1,69,75,4
1,72,75,0
1,77,75,0
1,77,0,3068
1,72,0,0
1,69,0,0
2,66,127,0
2,74,127,0
2,69,127,0
2,69,0,1532
2,74,0,0
2,66,0,0
2,66,127,4
2,71,127,0
2,74,127,0
2,74,0,1532
2,71,0,0
2,66,0,0
2,66,127,4
2,69,127,0
2,73,127,0
2,69,127,1344
2,66,127,0
2,62,127,0
2,66,0,188
2,69,0,0
2,73,0,0
2,66,0,2880
2,62,0,0
2,69,0,0
2,71,127,12484
2,66,127,0
2,62,127,0
2,64,127,1344
2,67,127,0
2,72,127,0
2,62,0,188
2,71,0,0
2,66,0,0
2,64,0,1344
2,67,0,0
2,72,0,0
2,71,127,196
2,66,127,0
2,62,127,0
2,62,0,1532
2,66,0,0
2,71,0,0
2,64,127,4
2,67,127,0
2,72,127,0
2,72,0,1532
2,67,0,0
2,64,0,0
2,71,127,4
2,66,127,0
2,62,127,0
2,62,0,1532
2,66,0,0
2,71,0,0
2,64,127,4
2,67,127,0
2,72,127,0
2,72,0,1532
2,67,0,0
2,64,0,0
2,71,127,4
2,66,127,0
2,62,127,0
2,62,0,1532
2,66,0,0
2,71,0,0
2,64,127,4
2,67,127,0
2,72,127,0
2,72,0,1532
2,67,0,0
2,64,0,0
2,66,127,4
2,69,127,0
2,74,127,0
2,74,0,1532
2,69,0,0
2,66,0,0
2,69,127,4
2,73,127,0
2,64,127,0
2,64,0,1532
2,73,0,0
2,69,0,0
2,66,127,4
2,71,127,0
2,74,127,0
2,74,0,1532
2,71,0,0
2,66,0,0
2,66,127,4
2,69,127,0
2,73,127,0
2,73,0,1532
2,69,0,0
2,66,0,0
2,67,127,4
2,71,127,0
2,74,127,0
2,74,0,1532
2,71,0,0
2,67,0,0
2,69,127,4
2,73,127,0
2,64,127,0
2,64,0,1532
2,73,0,0
2,69,0,0
2,66,127,4
2,69,127,0
2,74,127,0
2,74,0,3068
2,69,0,0
2,66,0,0
2,66,127,4
2,69,127,0
2,74,127,0
2,74,0,1532
2,69,0,0
2,66,0,0
2,69,127,4
2,73,127,0
2,64,127,0
2,64,0,1532
2,73,0,0
2,69,0,0
2,66,127,4
2,71,127,0
2,74,127,0
2,74,0,1532
2,71,0,0
2,66,0,0
2,66,127,4
2,69,127,0
2,73,127,0
2,73,0,1532
2,69,0,0
2,66,0,0
2,67,127,4
2,71,127,0
2,74,127,0
2,74,0,1532
2,71,0,0
2,67,0,0
2,69,127,4
2,73,127,0
2,64,127,0
2,64,0,1532
2,73,0,0
2,69,0,0
2,66,127,4
2,69,127,0
2,74,127,0
2,74,0,3068
2,69,0,0
2,66,0,0
2,71,127,12292
2,66,127,0
2,62,127,0
2,64,127,1344
2,67,127,0
2,72,127,0
2,62,0,188
2,71,0,0
2,66,0,0
2,64,0,1344
2,67,0,0
2,72,0,0
2,71,127,196
2,66,127,0
2,62,127,0
2,62,0,1532
2,66,0,0
2,71,0,0
2,64,127,4
2,67,127,0
2,72,127,0
2,72,0,1532
2,67,0,0
2,64,0,0
2,71,127,4
2,66,127,0
2,62,127,0
2,62,0,1532
2,66,0,0
2,71,0,0
2,64,127,4
2,67,127,0
2,72,127,0
2,72,0,1532
2,67,0,0
2,64,0,0
2,71,127,4
2,66,127,0
2,62,127,0
2,62,0,1532
2,66,0,0
2,71,0,0
2,64,127,4
2,67,127,0
2,72,127,0
2,72,0,1532
2,67,0,0
2,64,0,0
2,66,127,4
2,69,127,0
2,74,127,0
2,74,0,1532
2,69,0,0
2,66,0,0
2,69,127,4
2,73,127,0
2,64,127,0
2,64,0,1532
2,73,0,0
2,69,0,0
2,66,127,4
2,71,127,0
2,74,127,0
2,74,0,1532
2,71,0,0
2,66,0,0
2,66,127,4
2,69,127,0
2,73,127,0
2,73,0,1532
2,69,0,0
2,66,0,0
2,67,127,4
2,71,127,0
2,74,127,0
2,74,0,1532
2,71,0,0
2,67,0,0
2,69,127,4
2,73,127,0
2,64,127,0
2,64,0,1532
2,73,0,0
2,69,0,0
2,66,127,4
2,69,127,0
2,74,127,0
2,74,0,3068
2,69,0,0
2,66,0,0
2,66,127,4
2,69,127,0
2,74,127,0
2,74,0,1532
2,69,0,0
2,66,0,0
2,69,127,4
2,73,127,0
2,64,127,0
2,64,0,1532
2,73,0,0
2,69,0,0
2,66,127,4
2,71,127,0
2,74,127,0
2,74,0,1532
2,71,0,0
2,66,0,0
2,66,127,4
2,69,127,0
2,73,127,0
2,73,0,1532
2,69,0,0
2,66,0,0
2,67,127,4
2,71,127,0
2,74,127,0
2,74,0,1532
2,71,0,0
2,67,0,0
2,69,127,4
2,73,127,0
2,64,127,0
2,64,0,1532
2,73,0,0
2,69,0,0
2,66,127,4
2,69,127,0
2,74,127,0
2,74,0,3068
2,69,0,0
2,66,0,0
2,65,127,4
2,69,127,0
2,72,127,0
2,72,0,1532
2,69,0,0
2,65,0,0
2,64,127,4
2,67,127,0
2,72,127,0
2,72,0,1532
2,67,0,0
2,64,0,0
2,67,127,4
2,71,127,0
2,74,127,0
2,74,0,3068
2,71,0,0
2,67,0,0
2,65,127,4
2,69,127,0
2,72,127,0
2,72,0,1532
2,69,0,0
2,65,0,0
