track,note,velocity,time
0,59,127,4
0,47,80,16
0,30,100,0
0,48,127,20
0,83,127,20
0,72,100,8
0,59,99,300
0,59,96,40
0,71,91,0
0,59,110,4
0,49,44,0
0,83,127,4
0,59,86,4
0,66,61,4
0,71,74,0
0,62,48,4
0,78,91,0
0,90,127,12
0,78,106,0
0,42,104,4
0,90,127,4
0,62,74,124
0,86,127,12
0,74,86,0
0,76,102,0
0,42,110,0
0,88,127,4
0,57,79,4
0,69,64,0
0,64,67,8
0,73,63,196
0,42,105,36
0,76,79,4
0,69,74,0
0,42,106,20
0,81,127,4
0,54,91,4
0,69,82,0
0,66,36,12
0,76,96,0
0,88,127,0
0,61,63,24
0,42,104,196
0,88,127,4
0,73,36,4
0,73,106,0
0,85,127,0
0,73,91,0
0,47,79,12
0,71,86,0
0,42,110,12
0,83,127,4
0,50,82,180
0,69,74,0
0,62,57,4
0,81,127,8
0,54,85,184
0,66,91,0
0,71,76,4
0,42,105,0
0,78,127,0
0,47,76,16
0,62,72,0
0,71,86,0
0,42,106,0
0,83,127,4
0,73,99,0
0,85,127,8
0,74,91,0
0,42,104,0
0,86,127,0
0,54,75,24
0,76,96,0
0,46,103,0
0,88,127,4
0,57,67,28
0,78,106,0
0,42,110,8
0,90,127,4
0,66,69,4
0,62,69,0
0,69,67,4
0,50,82,0
0,54,75,4
0,57,79,4
0,83,86,0
0,95,127,4
0,74,76,8
0,81,106,0
0,42,105,4
0,93,127,4
0,69,69,4
0,66,51,8
0,74,86,0
0,74,102,0
0,42,106,4
0,86,127,0
0,67,38,8
0,52,79,4
0,55,64,0
0,64,51,0
0,59,79,8
0,71,74,0
0,71,79,0
0,83,127,4
0,42,104,196
0,85,127,4
0,73,106,0
0,86,127,104
0,74,102,0
0,42,110,104
0,85,127,4
0,73,114,0
0,73,63,12
0,54,91,4
0,70,39,0
0,61,80,0
0,66,91,0
0,69,57,224
0,42,105,76
0,66,56,24
0,71,86,0
0,42,106,28
0,71,96,0
0,83,127,0
0,83,127,0
0,71,79,12
0,66,91,4
0,59,72,4
0,54,91,0
0,63,91,4
0,47,91,16
0,78,99,0
0,90,127,8
0,75,75,40
0,78,106,0
0,42,104,12
0,90,127,4
0,75,85,28
0,86,127,200
0,74,91,0
0,52,76,28
0,76,106,0
0,42,110,0
0,88,127,4
0,73,58,4
0,64,91,4
0,45,79,8
0,57,64,32
0,61,106,4
0,42,105,8
0,69,38,12
0,69,86,0
0,45,79,8
0,69,91,0
0,69,76,4
0,52,91,0
0,64,76,0
0,42,106,0
0,61,106,4
0,81,127,0
0,76,102,0
0,73,85,20
0,88,127,4
0,76,110,0
0,42,104,28
0,88,127,4
0,57,82,4
0,54,91,44
0,66,106,4
0,62,82,0
0,73,80,0
0,85,127,24
0,69,32,16
0,50,96,12
0,62,82,0
0,66,72,0
0,70,38,0
0,47,86,0
0,71,96,0
0,59,110,0
0,71,91,0
0,42,110,12
0,83,127,4
0,69,86,0
0,69,69,4
0,81,127,8
0,66,91,0
0,42,105,12
0,78,127,4
0,66,22,36
0,71,86,0
0,42,106,0
0,83,127,4
0,55,91,24
0,67,86,0
0,62,91,4
0,43,102,8
0,73,99,0
0,85,127,8
0,71,55,4
0,74,91,0
0,42,104,0
0,86,127,0
0,59,91,4
0,71,86,8
0,76,96,0
0,88,127,4
0,74,79,16
0,78,106,0
0,42,110,4
0,90,127,4
0,50,106,0
0,38,110,0
0,69,79,8
0,66,91,12
0,52,49,84
0,83,86,0
0,95,127,4
0,66,66,16
0,81,106,0
0,42,105,4
0,93,127,4
0,64,82,8
0,50,106,4
0,74,86,0
0,74,102,0
0,42,106,4
0,86,127,4
0,40,96,8
0,52,102,24
0,59,72,4
0,64,82,0
0,71,79,0
0,83,127,4
0,67,62,8
0,42,104,4
0,85,127,4
0,59,86,28
0,73,106,0
0,86,127,104
0,52,86,16
0,74,102,0
0,42,110,4
0,88,127,4
0,72,100,0
0,76,114,0
0,52,96,12
0,61,66,12
0,72,127,0
0,65,127,0
0,60,127,0
0,69,67,4
0,42,105,76
0,42,106,116
0,42,104,476
0,81,96,116
0,42,110,196
0,76,96,12
0,42,105,448
0,46,99,132
0,42,110,4
0,57,45,8
0,62,53,36
0,54,51,0
0,62,55,0
0,35,108,0
0,49,70,0
0,66,35,4
0,38,98,0
0,50,46,0
0,57,127,12
0,54,127,0
0,50,127,4
0,50,51,4
0,66,106,0
0,69,53,12
0,54,53,0
0,74,96,0
0,42,71,0
0,26,105,0
0,74,106,0
0,42,104,0
0,76,114,0
0,42,69,4
0,42,110,16
0,78,99,0
0,42,70,28
0,81,57,0
0,81,102,0
0,42,105,104
0,42,74,236
0,38,89,4
0,57,43,20
0,61,61,8
0,49,66,4
0,57,49,0
0,61,56,4
0,64,48,8
0,49,127,8
0,57,127,0
0,35,108,4
0,35,105,0
0,42,106,0
0,37,93,4
0,52,127,0
0,49,38,12
0,69,49,4
0,76,114,0
0,42,71,0
0,25,105,0
0,42,104,236
0,69,79,0
0,42,69,204
0,90,127,4
0,78,106,0
0,42,110,16
0,76,110,0
0,88,127,0
0,42,70,192
0,42,105,8
0,59,53,4
0,35,68,4
0,42,74,0
0,37,94,4
0,54,56,16
0,62,41,24
0,59,56,4
0,66,41,4
0,59,62,8
0,50,127,4
0,59,127,0
0,47,43,4
0,47,51,0
0,54,127,0
0,62,64,0
0,54,45,4
0,35,108,8
0,42,106,0
0,71,38,4
0,35,105,0
0,74,102,0
0,42,71,0
0,42,104,0
0,76,114,0
0,78,106,0
0,46,69,4
0,57,46,40
0,49,127,4
0,61,66,4
0,42,63,4
0,73,114,0
0,42,110,0
0,57,29,4
0,54,127,0
0,57,127,0
0,61,45,4
0,69,62,4
0,54,63,4
0,42,70,208
0,42,105,236
0,69,86,0
0,42,74,0
0,62,22,4
0,59,27,4
0,59,39,4
0,71,102,0
0,43,74,0
0,55,57,4
0,59,127,0
0,50,127,0
0,35,105,0
0,42,106,0
0,31,96,4
0,55,127,0
0,43,64,24
0,67,59,16
0,62,53,4
0,42,71,184
0,69,82,0
0,42,104,216
0,66,80,4
0,64,74,0
0,42,69,8
0,66,80,0
0,57,49,4
0,45,30,4
0,61,58,0
0,66,53,0
0,57,41,4
0,61,63,0
0,49,127,0
0,57,127,4
0,52,127,0
0,66,99,0
0,42,110,0
0,33,115,4
0,90,127,0
0,64,59,4
0,45,49,4
0,42,70,76
0,64,51,0
0,42,105,16
0,88,127,4
0,64,86,4
0,42,74,36
0,33,85,4
0,50,67,12
0,62,69,12
0,35,108,0
0,42,106,0
0,38,98,4
0,57,127,0
0,54,127,12
0,50,127,0
0,66,91,8
0,62,29,4
0,66,53,20
0,50,74,4
0,74,69,4
0,74,106,0
0,42,71,0
0,26,105,0
0,69,86,20
0,74,102,0
0,42,104,8
0,74,69,8
0,76,110,0
0,42,69,12
0,78,106,0
0,42,110,0
0,81,91,0
0,42,70,12
0,81,102,0
0,42,105,12
0,62,62,24
0,66,61,0
0,42,74,16
0,38,89,4
0,66,80,0
0,74,74,20
0,69,64,16
0,74,72,12
0,64,82,4
0,61,56,0
0,49,56,0
0,69,67,4
0,42,106,8
0,35,108,0
0,37,93,4
0,73,75,0
0,49,127,4
0,57,127,4
0,64,59,4
0,57,57,0
0,52,127,0
0,69,64,0
0,73,38,16
0,76,106,0
0,42,71,8
0,25,105,0
0,42,104,8
0,69,86,0
0,90,127,216
0,78,106,0
0,42,69,8
0,76,102,0
0,42,110,12
0,88,127,4
0,42,70,196
0,42,105,4
0,73,85,40
0,71,74,72
0,42,74,0
0,35,68,0
0,69,53,8
0,62,39,4
0,47,57,4
0,66,49,8
0,59,35,0
0,66,29,20
0,50,127,0
0,59,127,0
0,35,105,0
0,42,106,0
0,35,102,4
0,54,127,0
0,50,55,20
0,59,55,8
0,71,59,0
0,62,53,4
0,42,71,196
0,74,96,0
0,86,127,4
0,42,104,4
0,88,127,4
0,76,106,0
0,90,127,16
0,78,106,0
0,42,69,0
0,62,32,16
0,66,45,92
0,81,96,0
0,68,53,4
0,67,24,12
0,49,85,8
0,42,110,0
0,30,115,4
0,61,61,0
0,57,127,0
0,85,127,4
0,54,127,0
0,49,127,0
0,54,61,8
0,69,55,12
0,61,36,8
0,42,70,188
0,66,91,44
0,42,105,8
0,69,96,0
0,46,74,8
0,64,82,8
0,71,106,0
0,62,82,4
0,59,43,4
0,50,10,8
0,62,57,4
0,47,127,0
0,59,23,0
0,62,64,4
0,50,127,0
0,67,62,4
0,55,127,0
0,67,33,4
0,42,106,4
0,35,105,0
0,31,107,4
0,55,62,8
0,71,69,4
0,50,41,24
0,59,76,4
0,42,71,16
0,74,110,0
0,74,110,0
0,42,104,108
0,42,69,236
0,42,110,132
0,42,70,208
0,55,64,20
0,42,105,12
0,64,69,0
0,76,82,148
0,42,74,44
0,71,67,92
0,64,69,8
0,55,127,8
0,47,127,4
0,35,105,0
0,42,106,0
0,28,110,4
0,52,41,0
0,52,127,0
0,67,64,12
0,52,59,4
0,42,71,204
0,76,96,0
0,42,104,16
0,69,91,0
0,78,99,0
0,42,69,4
0,57,53,64
0,61,72,20
0,49,58,0
0,61,58,4
0,57,49,4
0,52,127,4
0,64,67,0
0,76,114,0
0,57,127,0
0,42,110,0
0,33,110,4
0,49,127,0
0,69,72,4
0,42,70,212
0,42,105,236
0,73,106,0
0,42,74,112
0,71,91,28
0,59,55,12
0,63,61,0
0,66,69,0
0,71,96,0
0,35,108,4
0,49,61,0
0,35,119,4
0,51,72,4
0,54,66,0
0,47,59,4
0,46,58,0
0,71,59,4
0,72,127,20
0,65,127,0
0,60,127,0
0,42,71,184
0,47,60,4
0,42,104,236
0,42,69,236
0,42,110,236
0,42,70,236
0,42,105,236
0,42,74,236
0,53,100,0
0,53,81,116
0,42,106,36
0,35,104,0
0,53,111,0
0,42,71,52
0,42,104,172
0,42,69,236
0,42,110,236
0,78,89,24
0,74,79,0
0,83,79,0
0,42,70,4
0,42,105,8
0,42,69,24
0,46,85,4
0,71,91,0
0,59,25,4
0,62,36,0
0,54,127,0
0,59,127,0
0,35,108,0
0,35,105,0
0,66,36,0
0,50,127,4
0,78,91,0
0,42,71,12
0,78,106,0
0,42,104,4
0,37,125,0
0,42,69,8
0,35,70,0
0,35,98,4
0,74,86,0
0,64,40,4
0,57,38,4
0,61,50,0
0,76,102,0
0,42,110,0
0,35,105,0
0,33,105,4
0,57,63,4
0,69,51,0
0,52,127,0
0,57,127,0
0,49,127,0
0,64,53,8
0,42,70,8
0,73,50,4
0,42,105,4
0,37,122,0
0,76,63,4
0,42,74,4
0,69,74,0
0,61,52,0
0,54,42,12
0,49,127,4
0,35,107,0
0,42,106,0
0,30,105,4
0,57,127,0
0,54,127,4
0,54,72,4
0,69,82,0
0,66,28,12
0,42,71,16
0,76,96,0
0,61,50,28
0,37,125,208
0,42,104,0
0,73,28,20
0,73,106,0
0,42,69,112
0,35,70,0
0,30,98,4
0,73,91,0
0,59,30,0
0,54,39,0
0,62,38,0
0,50,127,8
0,47,63,4
0,71,86,0
0,54,127,0
0,59,127,0
0,42,110,12
0,35,105,0
0,35,105,4
0,50,65,0
0,69,74,0
0,62,45,8
0,42,70,0
0,54,68,0
0,66,91,0
0,37,122,4
0,42,105,0
0,71,60,4
0,42,74,28
0,42,98,4
0,50,45,4
0,47,60,16
0,71,86,0
0,42,106,0
0,35,108,0
0,62,57,4
0,35,105,0
0,73,99,0
0,42,71,4
0,74,91,0
0,42,104,0
0,37,125,0
0,54,60,28
0,76,96,0
0,35,70,0
0,42,69,0
0,35,98,4
0,57,53,32
0,57,57,0
0,78,106,0
0,42,110,4
0,35,105,0
0,33,105,4
0,50,127,0
0,54,127,4
0,57,127,0
0,66,55,4
0,62,55,0
0,69,53,4
0,50,65,0
0,54,60,4
0,57,63,4
0,83,86,0
0,42,70,0
0,74,60,12
0,81,106,0
0,37,122,4
0,42,105,0
0,69,55,8
0,42,74,52
0,66,40,12
0,74,86,0
0,52,23,12
0,74,102,0
0,35,107,4
0,42,106,0
0,28,105,4
0,59,36,4
0,55,45,0
0,67,30,4
0,55,127,0
0,59,127,0
0,52,127,0
0,52,63,4
0,55,51,0
0,64,40,0
0,59,63,8
0,71,59,0
0,71,79,0
0,42,71,0
0,42,104,236
0,37,125,0
0,73,106,0
0,35,70,100
0,42,69,0
0,74,102,0
0,57,45,0
0,54,31,20
0,60,27,28
0,57,127,4
0,54,127,0
0,42,110,0
0,35,105,0
0,30,105,4
0,61,127,0
0,73,114,0
0,73,50,12
0,54,72,4
0,70,31,0
0,61,64,0
0,66,72,0
0,61,40,92
0,42,70,64
0,69,45,28
0,37,122,76
0,42,105,0
0,66,44,28
0,42,74,208
0,71,86,0
0,66,35,8
0,59,43,4
0,63,31,0
0,59,127,0
0,71,25,4
0,54,127,0
0,51,127,0
0,42,106,4
0,35,108,0
0,35,105,0
0,71,96,0
0,71,63,16
0,66,72,4
0,59,57,4
0,54,72,0
0,63,72,4
0,47,72,16
0,78,99,0
0,42,71,4
0,75,60,44
0,78,106,0
0,37,125,8
0,42,104,0
0,75,68,32
0,42,69,176
0,35,70,0
0,35,98,4
0,74,91,0
0,73,18,4
0,69,33,4
0,57,48,0
0,52,60,12
0,64,53,0
0,76,106,0
0,35,105,8
0,42,110,0
0,37,105,0
0,73,46,8
0,49,127,0
0,64,72,4
0,57,127,0
0,45,63,8
0,52,127,0
0,42,70,212
0,57,51,16
0,61,84,208
0,42,105,12
0,37,122,0
0,69,30,28
0,42,74,12
0,69,86,0
0,45,63,8
0,69,91,0
0,69,60,8
0,52,72,0
0,64,60,0
0,42,106,0
0,35,107,0
0,33,105,0
0,83,127,0
0,61,84,4
0,76,102,0
0,42,71,20
0,73,68,4
0,88,127,0
0,76,110,0
0,42,104,28
0,37,125,0
0,88,127,4
0,57,65,8
0,54,72,48
0,66,84,0
0,62,65,0
0,73,80,0
0,35,70,20
0,42,69,0
0,40,100,4
0,83,127,0
0,66,31,12
0,69,25,8
0,59,49,4
0,71,59,4
0,50,76,4
0,83,96,0
0,62,65,4
0,66,57,0
0,70,30,0
0,47,68,0
0,59,88,0
0,71,72,0
0,50,127,4
0,59,127,0
0,54,127,0
0,62,15,4
0,35,105,0
0,42,110,0
0,42,105,4
0,95,127,0
0,81,86,0
0,69,55,8
0,42,70,0
0,93,127,4
0,78,91,0
0,42,105,12
0,37,122,0
0,90,127,4
0,66,17,40
0,42,74,36
0,42,98,4
0,67,51,0
0,62,43,4
0,55,76,4
0,59,127,0
0,55,127,0
0,50,127,4
0,71,86,0
0,42,106,0
0,35,108,0
0,35,105,4
0,55,72,28
0,67,68,0
0,62,72,4
0,43,81,8
0,73,99,0
0,42,71,4
0,71,44,48
0,74,91,0
0,42,104,0
0,37,125,0
0,59,72,8
0,71,68,8
0,76,96,0
0,42,69,0
0,35,70,0
0,35,98,4
0,74,63,20
0,69,46,12
0,66,56,0
0,54,63,4
0,78,106,0
0,57,127,0
0,54,127,0
0,42,110,0
0,35,105,0
0,33,105,4
0,50,127,0
0,50,84,0
0,38,88,0
0,69,63,8
0,66,72,12
0,52,39,0
0,83,86,0
0,42,70,0
0,66,52,20
0,81,106,0
0,42,105,4
0,37,122,0
0,64,65,12
0,42,74,20
0,50,84,8
0,74,86,0
0,71,64,0
0,67,37,4
0,52,74,0
0,64,49,0
0,74,102,0
0,59,127,0
0,55,127,0
0,35,107,4
0,49,49,0
0,28,105,4
0,52,127,0
0,40,76,12
0,52,81,24
0,59,57,4
0,64,65,0
0,71,79,0
0,42,71,0
0,67,49,12
0,42,104,0
0,37,125,0
0,59,68,32
0,73,106,0
0,42,69,100
0,38,98,4
0,52,68,4
0,74,102,0
0,57,127,72
0,52,127,0
0,49,127,0
0,42,110,0
0,37,105,4
0,76,114,0
0,52,76,16
0,61,52,12
0,69,53,4
0,42,70,28
0,42,105,76
0,37,122,0
0,95,91,4
0,93,102,136
0,42,74,0
