track,note,velocity,time
1,43,100,960
1,43,0,480
1,47,100,0
1,47,0,480
1,48,100,0
1,48,0,480
1,39,100,0
1,39,0,480
1,38,100,0
1,38,0,360
1,47,100,0
1,47,0,120
1,40,100,0
1,40,0,360
1,39,100,0
1,39,0,120
1,38,100,0
1,38,0,240
1,40,100,0
1,40,0,240
1,45,100,0
1,45,0,240
1,38,100,0
1,38,0,240
1,38,100,1500
1,38,0,40
1,38,100,0
1,38,0,80
1,38,100,0
1,38,0,40
1,38,100,0
1,38,0,80
1,38,100,0
1,38,0,40
1,38,100,0
1,38,0,80
1,38,100,0
1,38,0,60
1,43,100,0
1,43,0,120
1,43,100,0
1,43,0,120
1,43,100,0
1,43,0,120
1,43,100,0
1,43,0,120
1,43,100,0
1,43,0,120
1,43,100,0
1,43,0,120
1,43,100,0
1,43,0,120
1,43,100,0
1,43,0,120
1,43,100,0
1,43,0,120
1,43,100,0
1,43,0,120
1,43,100,0
1,43,0,120
1,43,100,0
1,43,0,120
1,43,100,0
1,43,0,120
1,45,100,0
1,45,0,120
1,46,100,0
1,46,0,120
1,47,100,0
1,47,0,120
1,48,100,0
1,48,0,120
1,48,100,0
1,48,0,120
1,48,100,0
1,48,0,120
1,48,100,0
1,48,0,120
1,48,100,0
1,48,0,120
1,48,100,0
1,48,0,120
1,48,100,0
1,48,0,120
1,48,100,0
1,48,0,60
1,38,100,0
1,38,0,60
1,39,100,0
1,39,0,120
1,39,100,0
1,39,0,120
1,39,100,0
1,39,0,120
1,39,100,0
1,39,0,120
1,39,100,0
1,39,0,120
1,39,100,0
1,39,0,120
1,39,100,0
1,39,0,120
1,39,100,0
1,39,0,120
1,43,100,0
1,43,0,120
1,43,100,0
1,43,0,120
1,43,100,0
1,43,0,120
1,43,100,0
1,43,0,120
1,43,100,0
1,43,0,120
1,43,100,0
1,43,0,120
1,43,100,0
1,43,0,120
1,43,100,0
1,43,0,120
1,43,100,0
1,43,0,120
1,43,100,0
1,43,0,120
1,43,100,0
1,43,0,120
1,43,100,0
1,43,0,120
1,43,100,0
1,43,0,120
1,45,100,0
1,45,0,120
1,46,100,0
1,46,0,120
1,47,100,0
1,47,0,120
1,48,100,0
1,48,0,120
1,48,100,0
1,48,0,120
1,48,100,0
1,48,0,120
1,48,100,0
1,48,0,120
1,48,100,0
1,48,0,120
1,48,100,0
1,48,0,120
1,48,100,0
1,48,0,120
1,48,100,0
1,48,0,60
1,38,100,0
1,38,0,60
1,39,100,0
1,39,0,120
1,39,100,0
1,39,0,120
1,39,100,0
1,39,0,120
1,39,100,0
1,39,0,120
1,39,100,0
1,39,0,120
1,39,100,0
1,39,0,120
1,39,100,0
1,39,0,120
1,39,100,0
1,39,0,120
1,43,100,0
1,43,0,120
1,43,100,0
1,43,0,120
1,43,100,0
1,43,0,120
1,43,100,0
1,43,0,120
1,43,100,0
1,43,0,120
1,43,100,0
1,43,0,120
1,47,100,0
1,47,0,120
1,47,100,0
1,47,0,120
1,40,100,0
1,40,0,120
1,40,100,0
1,40,0,120
1,40,100,0
1,40,0,120
1,40,100,0
1,40,0,120
1,40,100,0
1,40,0,120
1,40,100,0
1,40,0,120
1,39,100,0
1,39,0,120
1,39,100,0
1,39,0,120
1,38,100,0
1,38,0,120
1,38,100,0
1,38,0,120
1,38,100,0
1,38,0,120
1,38,100,0
1,38,0,120
1,40,100,0
1,40,0,120
1,40,100,0
1,40,0,120
1,40,100,0
1,40,0,120
1,43,100,0
1,43,0,120
1,45,100,0
1,45,0,120
1,45,100,0
1,45,0,120
1,45,100,0
1,45,0,120
1,45,100,0
1,45,0,120
1,38,100,0
1,38,0,120
1,38,100,0
1,38,0,120
1,38,100,0
1,38,0,120
1,38,100,0
1,38,0,120
1,43,100,0
1,43,0,120
1,43,100,0
1,43,0,120
1,43,100,0
1,43,0,120
1,43,100,0
1,43,0,120
1,40,100,0
1,40,0,120
1,40,100,0
1,40,0,120
1,40,100,0
1,40,0,120
1,40,100,0
1,40,0,120
1,45,100,0
1,45,0,120
1,45,100,0
1,45,0,120
1,45,100,0
1,45,0,120
1,45,100,0
1,45,0,120
1,38,100,60
1,38,0,40
1,38,100,0
1,38,0,80
1,38,100,0
1,38,0,40
1,38,100,0
1,38,0,80
1,38,100,0
1,38,0,40
1,38,100,0
1,38,0,80
1,38,100,0
1,38,0,60
1,43,100,0
1,43,0,120
1,43,100,0
1,43,0,120
1,43,100,0
1,43,0,120
1,43,100,0
1,43,0,120
1,43,100,0
1,43,0,120
1,43,100,0
1,43,0,120
1,43,100,0
1,43,0,120
1,43,100,0
1,43,0,120
1,43,100,0
1,43,0,120
1,43,100,0
1,43,0,120
1,43,100,0
1,43,0,120
1,43,100,0
1,43,0,120
1,43,100,0
1,43,0,120
1,45,100,0
1,45,0,120
1,46,100,0
1,46,0,120
1,47,100,0
1,47,0,120
1,48,100,0
1,48,0,120
1,48,100,0
1,48,0,120
1,48,100,0
1,48,0,120
1,48,100,0
1,48,0,120
1,48,100,0
1,48,0,120
1,48,100,0
1,48,0,120
1,48,100,0
1,48,0,120
1,48,100,0
1,48,0,60
1,38,100,0
1,38,0,60
1,39,100,0
1,39,0,120
1,39,100,0
1,39,0,120
1,39,100,0
1,39,0,120
1,39,100,0
1,39,0,120
1,39,100,0
1,39,0,120
1,39,100,0
1,39,0,120
1,39,100,0
1,39,0,120
1,39,100,0
1,39,0,120
1,43,100,0
1,43,0,120
1,43,100,0
1,43,0,120
1,43,100,0
1,43,0,120
1,43,100,0
1,43,0,120
1,43,100,0
1,43,0,120
1,43,100,0
1,43,0,120
1,43,100,0
1,43,0,120
1,43,100,0
1,43,0,120
1,43,100,0
1,43,0,120
1,43,100,0
1,43,0,120
1,43,100,0
1,43,0,120
1,43,100,0
1,43,0,120
1,43,100,0
1,43,0,120
1,45,100,0
1,45,0,120
1,46,100,0
1,46,0,120
1,47,100,0
1,47,0,120
1,48,100,0
1,48,0,120
1,48,100,0
1,48,0,120
1,48,100,0
1,48,0,120
1,48,100,0
1,48,0,120
1,48,100,0
1,48,0,120
1,48,100,0
1,48,0,120
1,48,100,0
1,48,0,120
1,48,100,0
1,48,0,60
1,38,100,0
1,38,0,60
1,39,100,0
1,39,0,120
1,39,100,0
1,39,0,120
1,39,100,0
1,39,0,120
1,39,100,0
1,39,0,120
1,39,100,0
1,39,0,120
1,39,100,0
1,39,0,120
1,39,100,0
1,39,0,120
1,39,100,0
1,39,0,120
1,43,100,0
1,43,0,120
1,43,100,0
1,43,0,120
1,43,100,0
1,43,0,120
1,43,100,0
1,43,0,120
1,43,100,0
1,43,0,120
1,43,100,0
1,43,0,120
1,47,100,0
1,47,0,120
1,47,100,0
1,47,0,120
1,40,100,0
1,40,0,120
1,40,100,0
1,40,0,120
1,40,100,0
1,40,0,120
1,40,100,0
1,40,0,120
1,40,100,0
1,40,0,120
1,40,100,0
1,40,0,120
1,39,100,0
1,39,0,120
1,39,100,0
1,39,0,120
1,38,100,0
1,38,0,120
1,38,100,0
1,38,0,120
1,38,100,0
1,38,0,120
1,38,100,0
1,38,0,120
1,40,100,0
1,40,0,120
1,40,100,0
1,40,0,120
1,40,100,0
1,40,0,120
1,43,100,0
1,43,0,120
1,45,100,0
1,45,0,120
1,45,100,0
1,45,0,120
1,45,100,0
1,45,0,120
1,45,100,0
1,45,0,120
1,38,100,0
1,38,0,120
1,38,100,0
1,38,0,120
1,38,100,0
1,38,0,120
1,38,100,0
1,38,0,120
1,43,100,0
1,43,0,120
1,43,100,0
1,43,0,120
1,43,100,0
1,43,0,120
1,43,100,0
1,43,0,120
1,40,100,0
1,40,0,120
1,40,100,0
1,40,0,120
1,40,100,0
1,40,0,120
1,40,100,0
1,40,0,120
1,45,100,0
1,45,0,120
1,45,100,0
1,45,0,120
1,45,100,0
1,45,0,120
1,45,100,0
1,45,0,120
1,38,100,60
1,38,0,40
1,38,100,0
1,38,0,80
1,38,100,0
1,38,0,40
1,38,100,0
1,38,0,80
1,38,100,0
1,38,0,40
1,38,100,0
1,38,0,80
1,38,100,0
1,38,0,60
1,47,100,0
1,47,0,120
1,47,100,0
1,47,0,120
1,47,100,0
1,47,0,120
1,47,100,0
1,47,0,120
1,47,100,0
1,47,0,120
1,47,100,0
1,47,0,120
1,47,100,0
1,47,0,120
1,47,100,0
1,47,0,120
1,40,100,0
1,40,0,120
1,40,100,0
1,40,0,120
1,40,100,0
1,40,0,120
1,40,100,0
1,40,0,120
1,40,100,0
1,40,0,120
1,40,100,0
1,40,0,120
1,40,100,0
1,40,0,120
1,45,100,0
1,45,0,120
1,47,100,0
1,47,0,120
1,47,100,0
1,47,0,120
1,47,100,0
1,47,0,120
1,47,100,0
1,47,0,120
1,47,100,0
1,47,0,120
1,47,100,0
1,47,0,120
1,47,100,0
1,47,0,120
1,47,100,0
1,47,0,120
1,40,100,0
1,40,0,120
1,40,100,0
1,40,0,120
1,40,100,0
1,40,0,120
1,40,100,0
1,40,0,120
1,40,100,0
1,40,0,120
1,40,100,0
1,40,0,120
1,40,100,0
1,40,0,120
1,45,100,0
1,45,0,120
1,39,100,0
1,39,0,120
1,39,100,0
1,39,0,120
1,39,100,0
1,39,0,120
1,39,100,0
1,39,0,120
1,39,100,0
1,39,0,120
1,39,100,0
1,39,0,120
1,39,100,0
1,39,0,120
1,39,100,0
1,39,0,120
1,38,100,0
1,38,0,120
1,38,100,0
1,38,0,120
1,38,100,0
1,38,0,120
1,38,100,0
1,38,0,120
1,40,100,0
1,40,0,120
1,40,100,0
1,40,0,120
1,40,100,0
1,40,0,120
1,40,100,0
1,40,0,120
1,45,100,0
1,45,0,120
1,45,100,0
1,45,0,120
1,45,100,0
1,45,0,120
1,45,100,0
1,45,0,120
1,45,100,0
1,45,0,120
1,45,100,0
1,45,0,120
1,45,100,0
1,45,0,120
1,45,100,0
1,45,0,120
1,38,100,0
1,38,0,120
1,38,100,0
1,38,0,120
1,38,100,0
1,38,0,120
1,38,100,0
1,38,0,120
1,38,100,60
1,38,0,40
1,38,100,0
1,38,0,80
1,38,100,0
1,38,0,40
1,38,100,0
1,38,0,80
1,38,100,0
1,38,0,40
1,38,100,0
1,38,0,80
1,38,100,0
1,38,0,60
1,43,100,0
1,43,0,120
1,43,100,0
1,43,0,120
1,43,100,0
1,43,0,120
1,43,100,0
1,43,0,120
1,43,100,0
1,43,0,120
1,43,100,0
1,43,0,120
1,43,100,0
1,43,0,120
1,43,100,0
1,43,0,120
1,43,100,0
1,43,0,120
1,43,100,0
1,43,0,120
1,43,100,0
1,43,0,120
1,43,100,0
1,43,0,120
1,43,100,0
1,43,0,120
1,45,100,0
1,45,0,120
1,46,100,0
1,46,0,120
1,47,100,0
1,47,0,120
1,48,100,0
1,48,0,120
1,48,100,0
1,48,0,120
1,48,100,0
1,48,0,120
1,48,100,0
1,48,0,120
1,48,100,0
1,48,0,120
1,48,100,0
1,48,0,120
1,48,100,0
1,48,0,120
1,48,100,0
1,48,0,60
1,38,100,0
1,38,0,60
1,39,100,0
1,39,0,120
1,39,100,0
1,39,0,120
1,39,100,0
1,39,0,120
1,39,100,0
1,39,0,120
1,39,100,0
1,39,0,120
1,39,100,0
1,39,0,120
1,39,100,0
1,39,0,120
1,39,100,0
1,39,0,120
1,43,100,0
1,43,0,120
1,43,100,0
1,43,0,120
1,43,100,0
1,43,0,120
1,43,100,0
1,43,0,120
1,43,100,0
1,43,0,120
1,43,100,0
1,43,0,120
1,47,100,0
1,47,0,120
1,47,100,0
1,47,0,120
1,40,100,0
1,40,0,120
1,40,100,0
1,40,0,120
1,40,100,0
1,40,0,120
1,40,100,0
1,40,0,120
1,40,100,0
1,40,0,120
1,40,100,0
1,40,0,120
1,39,100,0
1,39,0,120
1,39,100,0
1,39,0,120
1,38,100,0
1,38,0,120
1,38,100,0
1,38,0,120
1,38,100,0
1,38,0,120
1,38,100,0
1,38,0,120
1,40,100,0
1,40,0,120
1,40,100,0
1,40,0,120
1,40,100,0
1,40,0,120
1,43,100,0
1,43,0,120
1,45,100,0
1,45,0,120
1,45,100,0
1,45,0,120
1,45,100,0
1,45,0,120
1,45,100,0
1,45,0,120
1,38,100,0
1,38,0,120
1,38,100,0
1,38,0,840
1,38,100,60
1,38,0,40
1,38,100,0
1,38,0,80
1,38,100,0
1,38,0,40
1,38,100,0
1,38,0,80
1,38,100,0
1,38,0,40
1,38,100,0
1,38,0,80
1,38,100,0
1,38,0,60
1,43,100,0
1,43,0,120
1,43,100,0
1,43,0,120
1,43,100,0
1,43,0,120
1,43,100,0
1,43,0,120
1,40,100,0
1,40,0,120
1,40,100,0
1,40,0,120
1,40,100,0
1,40,0,120
1,40,100,0
1,40,0,120
1,45,100,0
1,45,0,120
1,45,100,0
1,45,0,120
1,45,100,0
1,45,0,120
1,45,100,0
1,45,0,120
1,38,100,60
1,38,0,40
1,38,100,0
1,38,0,80
1,38,100,0
1,38,0,40
1,38,100,0
1,38,0,80
1,38,100,0
1,38,0,40
1,38,100,0
1,38,0,80
1,38,100,0
1,38,0,60
1,43,100,0
1,43,0,120
1,43,100,0
1,43,0,120
1,43,100,0
1,43,0,120
1,43,100,0
1,43,0,120
1,40,100,0
1,40,0,120
1,40,100,0
1,40,0,120
1,40,100,0
1,40,0,120
1,40,100,0
1,40,0,120
1,45,100,0
1,45,0,120
1,45,100,0
1,45,0,120
1,45,100,0
1,45,0,120
1,45,100,0
1,45,0,120
1,38,100,60
1,38,0,40
1,38,100,0
1,38,0,80
1,38,100,0
1,38,0,40
1,38,100,0
1,38,0,80
1,38,100,0
1,38,0,40
1,38,100,0
1,38,0,80
1,38,100,0
1,38,0,60
1,43,100,0
1,43,0,120
1,43,100,0
1,43,0,120
1,43,100,0
1,43,0,120
1,43,100,0
1,43,0,120
1,40,100,0
1,40,0,120
1,40,100,0
1,40,0,120
1,40,100,0
1,40,0,120
1,40,100,0
1,40,0,120
1,45,100,0
1,45,0,120
1,45,100,0
1,45,0,120
1,45,100,0
1,45,0,120
1,45,100,0
1,45,0,120
1,38,100,60
1,38,0,40
1,38,100,0
1,38,0,80
1,38,100,0
1,38,0,40
1,38,100,0
1,38,0,80
1,38,100,0
1,38,0,40
1,38,100,0
1,38,0,80
1,38,100,0
1,38,0,60
1,43,100,0
1,43,0,120
1,43,99,0
1,43,0,120
1,43,97,0
1,43,0,120
1,43,96,0
1,43,0,120
1,40,94,0
1,40,0,120
1,40,93,0
1,40,0,120
1,40,91,0
1,40,0,120
1,40,90,0
1,40,0,120
1,45,88,0
1,45,0,120
1,45,86,0
1,45,0,120
1,45,85,0
1,45,0,120
1,45,83,0
1,45,0,120
1,38,81,60
1,38,0,40
1,38,80,0
1,38,0,80
1,38,79,0
1,38,0,40
1,38,79,0
1,38,0,80
1,38,78,0
1,38,0,40
1,38,77,0
1,38,0,80
1,38,76,0
1,38,0,60
1,43,75,0
1,43,0,120
1,43,74,0
1,43,0,120
1,43,72,0
1,43,0,120
1,43,71,0
1,43,0,120
1,40,69,0
1,40,0,120
1,40,68,0
1,40,0,120
1,40,66,0
1,40,0,120
1,40,65,0
1,40,0,120
1,45,63,0
1,45,0,120
1,45,61,0
1,45,0,120
1,45,60,0
1,45,0,120
1,45,58,0
1,45,0,120
1,38,56,60
1,38,0,40
1,38,55,0
1,38,0,80
1,38,54,0
1,38,0,40
1,38,54,0
1,38,0,80
1,38,53,0
1,38,0,40
1,38,52,0
1,38,0,80
1,38,51,0
1,38,0,60
1,43,50,0
1,43,0,120
1,43,49,0
1,43,0,120
1,43,47,0
1,43,0,120
1,43,46,0
1,43,0,120
1,40,44,0
1,40,0,120
1,40,43,0
1,40,0,120
1,40,41,0
1,40,0,120
1,40,40,0
1,40,0,120
1,45,38,0
1,45,0,120
1,45,36,0
1,45,0,120
1,45,35,0
1,45,0,120
1,45,33,0
1,45,0,120
1,38,31,60
1,38,0,40
1,38,30,0
1,38,0,80
1,38,29,0
1,38,0,40
