track,note,velocity,time
1,41,100,480
1,41,0,180
1,40,100,0
1,40,0,30
1,40,100,30
1,40,0,30
1,38,100,90
1,38,0,120
1,36,100,0
1,36,0,180
1,36,100,0
1,36,0,30
1,36,100,30
1,36,0,30
1,36,100,30
1,36,0,180
1,41,100,0
1,41,0,180
1,40,100,0
1,40,0,30
1,40,100,30
1,40,0,30
1,38,100,90
1,38,0,120
1,36,100,0
1,36,0,180
1,36,100,0
1,36,0,30
1,36,100,30
1,36,0,30
1,36,100,90
1,36,0,120
1,41,100,0
1,41,0,180
1,40,100,0
1,40,0,30
1,40,100,30
1,40,0,30
1,38,100,90
1,38,0,120
1,36,100,0
1,36,0,180
1,36,100,0
1,36,0,30
1,36,100,30
1,36,0,30
1,36,100,30
1,36,0,180
1,41,100,0
1,41,0,180
1,40,100,0
1,40,0,30
1,40,100,30
1,40,0,30
1,38,100,90
1,38,0,120
1,36,100,0
1,36,0,180
1,36,100,0
1,36,0,30
1,36,100,30
1,36,0,30
1,36,100,90
1,36,0,120
1,41,100,0
1,41,0,180
1,40,100,0
1,40,0,30
1,40,100,30
1,40,0,30
1,38,100,90
1,38,0,120
1,36,100,0
1,36,0,180
1,36,100,0
1,36,0,30
1,36,100,30
1,36,0,30
1,36,100,30
1,36,0,180
1,41,100,0
1,41,0,180
1,40,100,0
1,40,0,30
1,40,100,30
1,40,0,30
1,38,100,90
1,38,0,120
1,36,100,0
1,36,0,180
1,36,100,0
1,36,0,30
1,36,100,30
1,36,0,30
1,36,100,90
1,36,0,120
1,41,100,0
1,41,0,180
1,40,100,0
1,40,0,30
1,40,100,30
1,40,0,30
1,38,100,90
1,38,0,120
1,36,100,0
1,36,0,180
1,36,100,0
1,36,0,30
1,36,100,30
1,36,0,30
1,36,100,30
1,36,0,180
1,41,100,0
1,41,0,180
1,40,100,0
1,40,0,30
1,40,100,30
1,40,0,30
1,38,100,90
1,38,0,120
1,36,100,0
1,36,0,180
1,36,100,0
1,36,0,30
1,36,100,30
1,36,0,30
1,36,100,90
1,36,0,120
1,41,100,0
1,41,0,180
1,40,100,60
1,40,0,30
1,38,100,90
1,38,0,120
1,36,100,0
1,36,0,180
1,36,100,0
1,36,0,30
1,36,100,30
1,36,0,30
1,36,100,30
1,36,0,180
1,41,100,0
1,41,0,180
1,40,100,0
1,40,0,30
1,40,100,30
1,40,0,30
1,38,100,90
1,38,0,120
1,36,100,0
1,36,0,180
1,36,100,0
1,36,0,30
1,36,100,30
1,36,0,30
1,36,100,90
1,36,0,120
1,41,100,0
1,41,0,180
1,40,100,0
1,40,0,30
1,40,100,30
1,40,0,30
1,38,100,90
1,38,0,120
1,36,100,0
1,36,0,180
1,36,100,0
1,36,0,30
1,36,100,30
1,36,0,30
1,36,100,30
1,36,0,180
1,41,100,0
1,41,0,180
1,40,100,0
1,40,0,30
1,40,100,30
1,40,0,30
1,38,100,90
1,38,0,120
1,36,100,0
1,36,0,180
1,36,100,0
1,36,0,30
1,36,100,30
1,36,0,30
1,36,100,90
1,36,0,120
1,41,100,0
1,41,0,180
1,40,100,0
1,40,0,30
1,40,100,30
1,40,0,30
1,38,100,90
1,38,0,120
1,36,100,0
1,36,0,180
1,36,100,0
1,36,0,30
1,36,100,30
1,36,0,30
1,36,100,30
1,36,0,180
1,41,100,0
1,41,0,180
1,40,100,0
1,40,0,30
1,40,100,30
1,40,0,30
1,38,100,90
1,38,0,120
1,36,100,0
1,36,0,180
1,36,100,0
1,36,0,30
1,36,100,30
1,36,0,30
1,36,100,90
1,36,0,120
1,41,100,0
1,41,0,180
1,40,100,0
1,40,0,30
1,40,100,30
1,40,0,30
1,38,100,90
1,38,0,120
1,36,100,0
1,36,0,180
1,36,100,0
1,36,0,30
1,36,100,30
1,36,0,30
1,36,100,30
1,36,0,180
1,41,100,0
1,41,0,180
1,40,100,0
1,40,0,30
1,40,100,30
1,40,0,30
1,38,100,90
1,38,0,120
1,36,100,0
1,36,0,180
1,36,100,0
1,36,0,30
1,36,100,30
1,36,0,30
1,36,100,90
1,36,0,120
1,41,100,0
1,41,0,180
1,40,100,60
1,40,0,30
1,38,100,90
1,38,0,120
1,36,100,0
1,36,0,180
1,36,100,0
1,36,0,30
1,36,100,30
1,36,0,30
1,36,100,30
1,36,0,180
1,41,100,0
1,41,0,180
1,40,100,0
1,40,0,30
1,40,100,30
1,40,0,30
1,38,100,90
1,38,0,120
1,36,100,0
1,36,0,180
1,36,100,0
1,36,0,30
1,36,100,30
1,36,0,30
1,36,100,90
1,36,0,120
1,41,100,0
1,41,0,180
1,40,100,0
1,40,0,30
1,40,100,30
1,40,0,30
1,38,100,90
1,38,0,120
1,36,100,0
1,36,0,180
1,36,100,0
1,36,0,30
1,36,100,30
1,36,0,30
1,36,100,30
1,36,0,180
1,41,100,0
1,41,0,180
1,40,100,0
1,40,0,30
1,40,100,30
1,40,0,30
1,38,100,90
1,38,0,120
1,36,100,0
1,36,0,180
1,36,100,0
1,36,0,30
1,36,100,30
1,36,0,30
1,36,100,90
1,36,0,120
1,41,100,0
1,41,0,180
1,40,100,0
1,40,0,30
1,40,100,30
1,40,0,30
1,38,100,90
1,38,0,120
1,36,100,0
1,36,0,180
1,36,100,0
1,36,0,30
1,36,100,30
1,36,0,30
1,36,100,30
1,36,0,180
1,41,100,0
1,41,0,180
1,40,100,0
1,40,0,30
1,40,100,30
1,40,0,30
1,38,100,90
1,38,0,120
1,36,100,0
1,36,0,180
1,36,100,0
1,36,0,30
1,36,100,30
1,36,0,30
1,36,100,90
1,36,0,120
1,41,100,0
1,41,0,180
1,40,100,0
1,40,0,30
1,40,100,30
1,40,0,30
1,38,100,90
1,38,0,120
1,36,100,0
1,36,0,180
1,36,100,0
1,36,0,30
1,36,100,30
1,36,0,30
1,36,100,30
1,36,0,180
1,41,100,0
1,41,0,180
1,40,100,0
1,40,0,30
1,40,100,30
1,40,0,30
1,38,100,90
1,38,0,120
1,36,100,0
1,36,0,180
1,36,100,0
1,36,0,30
1,36,100,30
1,36,0,30
1,36,100,90
1,36,0,120
1,41,100,0
1,41,0,180
1,40,100,0
1,40,0,30
1,40,100,30
1,40,0,30
1,38,100,90
1,38,0,120
1,36,100,0
1,36,0,180
1,36,100,0
1,36,0,30
1,36,100,30
1,36,0,30
1,36,100,30
1,36,0,180
1,41,100,0
1,41,0,180
1,40,100,0
1,40,0,30
1,40,100,30
1,40,0,30
1,38,100,90
1,38,0,120
1,36,100,0
1,36,0,180
1,36,100,0
1,36,0,30
1,36,100,30
1,36,0,30
1,36,100,90
1,36,0,120
1,41,100,0
1,41,0,180
1,40,100,0
1,40,0,30
1,40,100,30
1,40,0,30
1,38,100,90
1,38,0,120
1,36,100,0
1,36,0,180
1,36,100,0
1,36,0,30
1,36,100,30
1,36,0,30
1,36,100,30
1,36,0,180
1,41,100,0
1,41,0,180
1,40,100,0
1,40,0,30
1,40,100,30
1,40,0,30
1,38,100,90
1,38,0,120
1,36,100,0
1,36,0,180
1,36,100,0
1,36,0,30
1,36,100,30
1,36,0,30
1,36,100,90
1,36,0,120
1,41,100,0
1,41,0,180
1,41,100,3660
1,41,0,180
1,40,100,0
1,40,0,30
1,40,100,30
1,40,0,30
1,38,100,90
1,38,0,120
1,36,100,0
1,36,0,180
1,36,100,0
1,36,0,30
1,36,100,30
1,36,0,30
1,36,100,30
1,36,0,180
1,41,100,0
1,41,0,180
1,40,100,0
1,40,0,30
1,40,100,30
1,40,0,30
1,38,100,90
1,38,0,120
1,36,100,0
1,36,0,180
1,36,100,0
1,36,0,30
1,36,100,30
1,36,0,30
1,36,100,90
1,36,0,120
1,41,100,0
1,41,0,180
1,40,100,0
1,40,0,30
1,40,100,30
1,40,0,30
1,38,100,90
1,38,0,120
1,36,100,0
1,36,0,180
1,36,100,0
1,36,0,30
1,36,100,30
1,36,0,30
1,36,100,30
1,36,0,180
1,41,100,0
1,41,0,180
1,40,100,0
1,40,0,30
1,40,100,30
1,40,0,30
1,38,100,90
1,38,0,120
1,36,100,0
1,36,0,180
1,36,100,0
1,36,0,30
1,36,100,30
1,36,0,30
1,36,100,90
1,36,0,120
1,41,100,0
1,41,0,180
1,40,100,0
1,40,0,30
1,40,100,30
1,40,0,30
1,38,100,90
1,38,0,120
1,36,100,0
1,36,0,180
1,36,100,0
1,36,0,30
1,36,100,30
1,36,0,30
1,36,100,30
1,36,0,180
1,41,100,0
1,41,0,180
1,40,100,0
1,40,0,30
1,40,100,30
1,40,0,30
1,38,100,90
1,38,0,120
1,36,100,0
1,36,0,180
1,36,100,0
1,36,0,30
1,36,100,30
1,36,0,30
1,36,100,90
1,36,0,120
1,41,100,0
1,41,0,180
1,40,100,0
1,40,0,30
1,40,100,30
1,40,0,30
1,38,100,90
1,38,0,120
1,36,100,0
1,36,0,180
1,36,100,0
1,36,0,30
1,36,100,30
1,36,0,30
1,36,100,30
1,36,0,180
1,41,100,0
1,41,0,180
1,40,100,0
1,40,0,30
1,40,100,30
1,40,0,30
1,38,100,90
1,38,0,120
1,36,100,0
1,36,0,180
1,36,100,0
1,36,0,30
1,36,100,30
1,36,0,30
1,36,100,90
1,36,0,120
1,41,100,0
1,41,0,180
1,40,96,0
1,40,0,30
1,40,94,30
1,40,0,30
1,38,91,90
1,38,0,120
1,36,88,0
1,36,0,180
1,36,83,0
1,36,0,30
1,36,82,30
1,36,0,30
1,36,80,30
1,36,0,180
1,41,75,0
1,41,0,180
1,40,71,0
1,40,0,30
1,40,69,30
1,40,0,30
1,38,66,90
1,38,0,120
1,36,63,0
1,36,0,180
1,36,58,0
1,36,0,30
1,36,57,30
1,36,0,30
1,36,54,90
1,36,0,120
1,41,50,0
1,41,0,180
1,40,46,0
1,40,0,30
1,40,44,30
1,40,0,30
1,38,41,90
1,38,0,120
1,36,38,0
1,36,0,180
1,36,33,0
1,36,0,30
1,36,32,30
1,36,0,30
1,36,30,30
1,36,0,180
1,41,25,0
1,41,0,180
1,40,21,0
1,40,0,30
1,40,19,30
1,40,0,30
1,38,16,90
1,38,0,120
1,36,13,0
1,36,0,180
1,36,8,0
1,36,0,30
1,36,7,30
1,36,0,30
1,36,4,90
1,36,0,120
2,57,100,330
2,57,0,30
2,57,100,0
2,57,0,30
2,59,100,0
2,59,0,30
2,60,100,0
2,60,0,30
2,62,100,0
2,62,0,30
2,64,100,0
2,64,0,240
2,60,100,0
2,60,0,240
2,57,100,0
2,57,0,360
2,57,100,0
2,57,0,30
2,59,100,0
2,59,0,30
2,60,100,0
2,60,0,30
2,62,100,0
2,62,0,30
2,64,100,0
2,64,0,240
2,60,100,0
2,60,0,240
2,57,100,0
2,57,0,360
2,57,100,0
2,57,0,30
2,59,100,0
2,59,0,30
2,60,100,0
2,60,0,30
2,62,100,0
2,62,0,30
2,64,100,0
2,64,0,240
2,60,100,0
2,60,0,240
2,57,100,0
2,57,0,360
2,57,100,0
2,57,0,30
2,59,100,0
2,59,0,30
2,60,100,0
2,60,0,30
2,62,100,0
2,62,0,30
2,64,100,0
2,64,0,240
2,60,100,0
2,60,0,240
2,57,100,0
2,57,0,360
2,57,100,0
2,57,0,30
2,59,100,0
2,59,0,30
2,60,100,0
2,60,0,30
2,62,100,0
2,62,0,30
2,64,100,0
2,64,0,240
2,60,100,0
2,60,0,240
2,57,100,0
2,57,0,360
2,57,100,0
2,57,0,30
2,59,100,0
2,59,0,30
2,60,100,0
2,60,0,30
2,62,100,0
2,62,0,30
2,64,100,0
2,64,0,240
2,60,100,0
2,60,0,240
2,57,100,0
2,57,0,360
2,57,100,0
2,57,0,30
2,59,100,0
2,59,0,30
2,60,100,0
2,60,0,30
2,62,100,0
2,62,0,30
2,64,100,0
2,64,0,240
2,60,100,0
2,60,0,240
2,57,100,0
2,57,0,360
2,57,100,0
2,57,0,30
2,59,100,0
2,59,0,30
2,60,100,0
2,60,0,30
2,62,100,0
2,62,0,30
2,64,100,0
2,64,0,240
2,60,100,0
2,60,0,240
2,57,100,0
2,57,0,360
2,64,100,120
2,64,0,240
2,60,100,0
2,60,0,240
2,57,100,0
2,57,0,360
2,57,100,0
2,57,0,30
2,59,100,0
2,59,0,30
2,60,100,0
2,60,0,30
2,62,100,0
2,62,0,30
2,64,100,0
2,64,0,240
2,60,100,0
2,60,0,240
2,57,100,0
2,57,0,360
2,57,100,0
2,57,0,30
2,59,100,0
2,59,0,30
2,60,100,0
2,60,0,30
2,62,100,0
2,62,0,30
2,64,100,0
2,64,0,240
2,60,100,0
2,60,0,240
2,57,100,0
2,57,0,360
2,57,100,0
2,57,0,30
2,59,100,0
2,59,0,30
2,60,100,0
2,60,0,30
2,62,100,0
2,62,0,30
2,64,100,0
2,64,0,240
2,60,100,0
2,60,0,240
2,57,100,0
2,57,0,360
2,57,100,0
2,57,0,30
2,59,100,0
2,59,0,30
2,60,100,0
2,60,0,30
2,62,100,0
2,62,0,30
2,64,100,0
2,64,0,240
2,60,100,0
2,60,0,240
2,57,100,0
2,57,0,360
2,57,100,0
2,57,0,30
2,59,100,0
2,59,0,30
2,60,100,0
2,60,0,30
2,62,100,0
2,62,0,30
2,64,100,0
2,64,0,240
2,60,100,0
2,60,0,240
2,57,100,0
2,57,0,360
2,57,100,0
2,57,0,30
2,59,100,0
2,59,0,30
2,60,100,0
2,60,0,30
2,62,100,0
2,62,0,30
2,64,100,0
2,64,0,240
2,60,100,0
2,60,0,240
2,57,100,0
2,57,0,360
2,57,100,0
2,57,0,30
2,59,100,0
2,59,0,30
2,60,100,0
2,60,0,30
2,62,100,0
2,62,0,30
2,64,100,0
2,64,0,240
2,60,100,0
2,60,0,240
2,57,100,0
2,57,0,360
2,64,100,120
2,64,0,240
2,60,100,0
2,60,0,240
2,57,100,0
2,57,0,360
2,57,100,0
2,57,0,30
2,59,100,0
2,59,0,30
2,60,100,0
2,60,0,30
2,62,100,0
2,62,0,30
2,64,100,0
2,64,0,240
2,60,100,0
2,60,0,240
2,57,100,0
2,57,0,360
2,57,100,0
2,57,0,30
2,59,100,0
2,59,0,30
2,60,100,0
2,60,0,30
2,62,100,0
2,62,0,30
2,64,100,0
2,64,0,240
2,60,100,0
2,60,0,240
2,57,100,0
2,57,0,360
2,57,100,0
2,57,0,30
2,59,100,0
2,59,0,30
2,60,100,0
2,60,0,30
2,62,100,0
2,62,0,30
2,64,100,0
2,64,0,240
2,60,100,0
2,60,0,240
2,57,100,0
2,57,0,360
2,57,100,0
2,57,0,30
2,59,100,0
2,59,0,30
2,60,100,0
2,60,0,30
2,62,100,0
2,62,0,30
2,64,100,0
2,64,0,240
2,60,100,0
2,60,0,240
2,57,100,0
2,57,0,360
2,57,100,0
2,57,0,30
2,59,100,0
2,59,0,30
2,60,100,0
2,60,0,30
2,62,100,0
2,62,0,30
2,64,100,0
2,64,0,240
2,60,100,0
2,60,0,240
2,57,100,0
2,57,0,360
2,57,100,0
2,57,0,30
2,59,100,0
2,59,0,30
2,60,100,0
2,60,0,30
2,62,100,0
2,62,0,30
2,64,100,0
2,64,0,240
2,60,100,0
2,60,0,240
2,57,100,0
2,57,0,360
2,57,100,0
2,57,0,30
2,59,100,0
2,59,0,30
2,60,100,0
2,60,0,30
2,62,100,0
2,62,0,30
2,64,100,0
2,64,0,240
2,60,100,0
2,60,0,240
2,57,100,0
2,57,0,360
2,64,100,120
2,64,0,240
2,60,100,0
2,60,0,240
2,57,100,0
2,57,0,360
2,57,100,0
2,57,0,30
2,59,100,0
2,59,0,30
2,60,100,0
2,60,0,30
2,62,100,0
2,62,0,30
2,64,100,0
2,64,0,240
2,60,100,0
2,60,0,240
2,57,100,0
2,57,0,360
2,57,100,0
2,57,0,30
2,59,100,0
2,59,0,30
2,60,100,0
2,60,0,30
2,62,100,0
2,62,0,30
2,64,100,0
2,64,0,240
2,60,100,0
2,60,0,240
2,57,100,0
2,57,0,360
2,57,100,0
2,57,0,30
2,59,100,0
2,59,0,30
2,60,100,0
2,60,0,30
