track,note,velocity,time
1,35,100,480
1,37,90,0
1,56,40,0
1,51,90,0
1,70,80,0
1,70,0,25
1,56,0,0
1,35,0,0
1,37,0,0
1,51,0,0
1,51,70,35
1,63,40,0
1,69,50,0
1,69,0,25
1,63,0,0
1,51,0,0
1,51,90,35
1,48,60,0
1,63,60,0
1,70,80,0
1,70,0,25
1,51,0,0
1,48,0,0
1,63,0,0
1,35,70,35
1,37,90,0
1,56,40,0
1,51,70,0
1,62,70,0
1,69,50,0
1,69,0,25
1,37,0,0
1,56,0,0
1,35,0,0
1,62,0,0
1,51,0,0
1,35,100,35
1,51,90,0
1,70,80,0
1,70,0,25
1,51,0,0
1,35,0,0
1,51,70,35
1,69,50,0
1,69,0,25
1,51,0,0
1,37,90,35
1,51,90,0
1,62,70,0
1,70,80,0
1,70,0,25
1,37,0,0
1,51,0,0
1,62,0,0
1,35,70,35
1,51,70,0
1,69,50,0
1,69,0,25
1,51,0,0
1,35,0,0
1,35,100,35
1,51,90,0
1,63,40,0
1,70,80,0
1,70,0,25
1,35,0,0
1,51,0,0
1,63,0,0
1,51,70,35
1,63,40,0
1,69,50,0
1,69,0,25
1,63,0,0
1,51,0,0
1,37,90,35
1,51,90,0
1,70,80,0
1,70,0,25
1,51,0,0
1,37,0,0
1,35,70,35
1,51,70,0
1,69,50,0
1,69,0,25
1,51,0,0
1,35,0,0
1,35,100,35
1,51,90,0
1,70,80,0
1,70,0,25
1,51,0,0
1,35,0,0
1,37,90,35
1,51,70,0
1,69,50,0
1,69,0,25
1,51,0,0
1,37,0,0
1,56,40,35
1,51,90,0
1,70,80,0
1,70,0,25
1,51,0,0
1,56,0,0
1,35,70,35
1,51,70,0
1,69,50,0
1,69,0,25
1,51,0,0
1,35,0,0
1,35,100,35
1,37,90,0
1,51,90,0
1,70,80,0
1,70,0,25
1,35,0,0
1,37,0,0
1,51,0,0
1,51,70,35
1,63,40,0
1,69,50,0
1,69,0,25
1,63,0,0
1,51,0,0
1,51,90,35
1,63,60,0
1,70,80,0
1,70,0,25
1,63,0,0
1,51,0,0
1,35,70,35
1,37,90,0
1,51,70,0
1,62,70,0
1,69,50,0
1,69,0,25
1,51,0,0
1,35,0,0
1,37,0,0
1,62,0,0
1,35,100,35
1,51,90,0
1,63,35,0
1,70,80,0
1,70,0,25
1,35,0,0
1,51,0,0
1,63,0,0
1,51,70,35
1,69,50,0
1,69,0,25
1,51,0,0
1,37,90,35
1,56,40,0
1,51,90,0
1,45,70,0
1,62,70,0
1,70,80,0
1,70,0,25
1,56,0,0
1,51,0,0
1,37,0,0
1,62,0,0
1,45,0,0
1,35,70,35
1,51,70,0
1,69,50,0
1,69,0,25
1,51,0,0
1,35,0,0
1,35,100,515
1,42,90,0
1,49,90,0
1,49,0,25
1,42,0,0
1,35,0,0
1,42,70,35
1,42,0,25
1,42,60,5
1,42,0,25
1,38,100,5
1,42,80,0
1,42,0,25
1,38,0,0
1,42,70,35
1,42,0,25
1,35,80,5
1,42,60,0
1,42,0,25
1,35,0,0
1,35,100,5
1,42,90,0
1,42,0,25
1,35,0,0
1,42,70,35
1,42,0,25
1,42,60,5
1,42,0,25
1,38,100,5
1,42,80,0
1,42,0,25
1,38,0,0
1,35,80,35
1,42,70,0
1,42,0,25
1,35,0,0
1,42,60,5
1,42,0,25
1,35,100,5
1,42,90,0
1,42,0,25
1,35,0,0
1,42,70,35
1,42,0,25
1,42,60,5
1,42,0,25
1,38,100,5
1,42,80,0
1,42,0,25
1,38,0,0
1,42,70,35
1,42,0,25
1,35,80,5
1,46,72,0
1,46,0,25
1,35,0,0
1,35,100,5
1,42,90,0
1,42,0,25
1,35,0,0
1,35,80,35
1,42,70,0
1,42,0,25
1,35,0,0
1,42,60,5
1,42,0,25
1,38,100,5
1,42,80,0
1,42,0,25
1,38,0,0
1,35,80,35
1,42,70,0
1,42,0,25
1,35,0,0
1,42,60,5
1,42,0,25
1,35,100,5
1,42,90,0
1,42,0,25
1,35,0,0
1,42,70,35
1,42,0,25
1,42,60,5
1,42,0,25
1,38,100,5
1,42,80,0
1,42,0,25
1,38,0,0
1,42,70,35
1,42,0,25
1,35,80,5
1,46,72,0
1,46,0,25
1,35,0,0
1,35,100,5
1,42,90,0
1,42,0,25
1,35,0,0
1,35,80,35
1,42,70,0
1,42,0,25
1,35,0,0
1,42,60,5
1,42,0,25
1,38,100,5
1,42,80,0
1,42,0,25
1,38,0,0
1,35,80,35
1,42,70,0
1,42,0,25
1,35,0,0
1,42,60,5
1,42,0,25
1,35,100,5
1,42,90,0
1,42,0,25
1,35,0,0
1,42,70,35
1,42,0,25
1,42,60,5
1,42,0,25
1,38,100,5
1,42,80,0
1,42,0,25
1,38,0,0
1,42,70,35
1,42,0,25
1,35,80,5
1,38,36,0
1,38,0,25
1,35,0,0
1,35,100,5
1,42,90,0
1,42,0,25
1,35,0,0
1,42,70,35
1,42,0,25
1,42,60,5
1,42,0,25
1,38,100,5
1,42,80,0
1,42,0,25
1,38,0,0
1,35,80,35
1,42,70,0
1,42,0,25
1,35,0,0
1,42,60,5
1,42,0,25
1,35,100,5
1,42,90,0
1,42,0,25
1,35,0,0
1,42,70,35
1,42,0,25
1,42,60,5
1,42,0,25
1,38,100,5
1,42,80,0
1,42,0,25
1,38,0,0
1,42,70,35
1,42,0,25
1,35,80,5
1,46,72,0
1,46,0,25
1,35,0,0
1,35,100,5
1,42,90,0
1,42,0,25
1,35,0,0
1,35,80,35
1,42,70,0
1,42,0,25
1,35,0,0
1,42,60,5
1,42,0,25
1,38,100,5
1,42,80,0
1,42,0,25
1,38,0,0
1,35,80,35
1,42,70,0
1,42,0,25
1,35,0,0
1,42,60,5
1,42,0,25
1,35,100,5
1,42,90,0
1,42,0,25
1,35,0,0
1,42,70,35
1,42,0,25
1,42,60,5
1,42,0,25
1,38,100,5
1,42,80,0
1,42,0,25
1,38,0,0
1,42,70,35
1,42,0,25
1,35,80,5
1,42,60,0
1,42,0,25
1,35,0,0
1,35,100,5
1,42,90,0
1,42,0,25
1,35,0,0
1,46,70,35
1,46,0,25
1,38,100,35
1,42,80,0
1,42,0,25
1,38,0,0
1,35,80,35
1,42,70,0
1,42,0,25
1,35,0,0
1,42,60,5
1,42,0,25
1,35,100,5
1,42,90,0
1,42,0,25
1,35,0,0
1,42,70,35
1,42,0,25
1,42,60,5
1,42,0,25
1,38,100,5
1,42,80,0
1,42,0,25
1,38,0,0
1,42,70,35
1,42,0,25
1,35,80,5
1,38,36,0
1,38,0,25
1,35,0,0
1,35,100,5
1,42,90,0
1,42,0,25
1,35,0,0
1,42,70,35
1,42,0,25
1,42,60,5
1,42,0,25
1,38,100,5
1,42,80,0
1,42,0,25
1,38,0,0
1,35,80,35
1,42,70,0
1,42,0,25
1,35,0,0
1,42,60,5
1,42,0,25
1,35,100,5
1,42,90,0
1,42,0,25
1,35,0,0
1,42,70,35
1,42,0,25
1,42,60,5
1,42,0,25
1,38,100,5
1,42,80,0
1,42,0,25
1,38,0,0
1,42,70,35
1,42,0,25
1,35,80,5
1,38,36,0
1,38,0,25
1,35,0,0
1,35,100,5
1,42,90,0
1,42,0,25
1,35,0,0
1,42,70,35
1,42,0,25
1,42,60,5
1,42,0,25
1,38,100,5
1,42,80,0
1,42,0,25
1,38,0,0
1,35,80,35
1,42,70,0
1,42,0,25
1,35,0,0
1,42,60,5
1,42,0,25
1,35,100,5
1,42,90,0
1,42,0,25
1,35,0,0
1,42,70,35
1,42,0,25
1,42,60,5
1,42,0,25
1,38,100,5
1,42,80,0
1,42,0,25
1,38,0,0
1,42,70,35
1,42,0,25
1,35,80,5
1,42,60,0
1,42,0,25
1,35,0,0
1,35,100,5
1,42,90,0
1,42,0,25
1,35,0,0
1,42,70,35
1,42,0,25
1,42,60,5
1,42,0,25
1,38,100,5
1,42,80,0
1,42,0,25
1,38,0,0
1,35,80,35
1,42,70,0
1,42,0,25
1,35,0,0
1,42,60,5
1,42,0,25
1,35,100,5
1,42,90,0
1,42,0,25
1,35,0,0
1,42,70,35
1,42,0,25
1,42,60,5
1,42,0,25
1,38,100,5
1,42,80,0
1,42,0,25
1,38,0,0
1,42,70,35
1,42,0,25
1,35,80,5
1,42,60,0
1,42,0,25
1,35,0,0
1,35,100,5
1,42,90,0
1,42,0,25
1,35,0,0
1,46,70,35
1,46,0,25
1,38,100,35
1,42,80,0
1,42,0,25
1,38,0,0
1,35,80,35
1,42,70,0
1,42,0,25
1,35,0,0
1,42,60,5
1,42,0,25
1,35,100,5
1,42,90,0
1,42,0,25
1,35,0,0
1,42,70,35
1,42,0,25
1,42,60,5
1,42,0,25
1,38,100,5
1,42,80,0
1,42,0,25
1,38,0,0
1,42,70,35
1,42,0,25
1,35,80,5
1,46,72,0
1,46,0,25
1,35,0,0
1,35,100,5
1,42,90,0
1,42,0,25
1,35,0,0
1,35,80,35
1,42,70,0
1,42,0,25
1,35,0,0
1,42,60,5
1,42,0,25
1,38,100,5
1,42,80,0
1,42,0,25
1,38,0,0
1,35,80,35
1,42,70,0
1,42,0,25
1,35,0,0
1,42,60,5
1,42,0,25
1,35,100,5
1,42,90,0
1,42,0,25
1,35,0,0
1,42,70,35
1,42,0,25
1,42,60,5
1,42,0,25
1,38,100,5
1,42,80,0
1,42,0,25
1,38,0,0
1,42,70,35
1,42,0,25
1,35,80,5
1,42,60,0
1,42,0,25
1,35,0,0
1,35,100,5
1,42,90,0
1,42,0,25
1,35,0,0
1,46,70,35
1,46,0,25
1,38,100,35
1,42,80,0
1,42,0,25
1,38,0,0
1,35,80,35
1,42,70,0
1,42,0,25
1,35,0,0
1,42,60,5
1,42,0,25
1,35,100,5
1,42,90,0
1,42,0,25
1,35,0,0
1,42,70,35
1,42,0,25
1,42,60,5
1,42,0,25
1,38,100,5
1,42,80,0
1,42,0,25
1,38,0,0
1,42,70,35
1,42,0,25
1,35,80,5
1,42,60,0
1,42,0,25
1,35,0,0
1,35,100,5
1,42,90,0
1,42,0,25
1,35,0,0
1,35,80,35
1,42,70,0
1,42,0,25
1,35,0,0
1,42,60,5
1,42,0,25
1,38,100,5
1,42,80,0
1,42,0,25
1,38,0,0
1,35,80,35
1,42,70,0
1,42,0,25
1,35,0,0
1,46,80,5
1,46,0,25
1,35,100,5
1,42,90,0
1,42,0,25
1,35,0,0
1,42,70,35
1,42,0,25
1,42,60,5
1,42,0,25
1,38,100,5
1,42,80,0
1,42,0,25
1,38,0,0
1,42,70,35
1,42,0,25
1,35,80,5
1,42,60,0
1,42,0,25
1,35,0,0
1,35,100,5
1,42,90,0
1,42,0,25
1,35,0,0
1,46,70,35
1,46,0,25
1,38,100,35
1,42,80,0
1,42,0,25
1,38,0,0
1,35,80,35
1,42,70,0
1,42,0,25
1,35,0,0
1,42,60,5
1,42,0,25
1,35,100,5
1,42,90,0
1,42,0,25
1,35,0,0
1,42,70,35
1,42,0,25
1,42,60,5
1,42,0,25
1,38,100,5
1,42,80,0
1,42,0,25
1,38,0,0
1,42,70,35
1,42,0,25
1,35,80,5
1,42,60,0
1,42,0,25
1,35,0,0
1,35,100,5
1,42,90,0
1,42,0,25
1,35,0,0
1,35,80,35
1,42,70,0
1,42,0,25
1,35,0,0
1,42,60,5
1,42,0,25
1,38,100,5
1,42,80,0
1,42,0,25
1,38,0,0
1,35,80,35
1,42,70,0
1,42,0,25
1,35,0,0
1,46,80,5
1,46,0,25
1,35,100,5
1,42,90,0
1,42,0,25
1,35,0,0
1,42,70,35
1,42,0,25
1,42,60,5
1,42,0,25
1,38,100,5
1,42,80,0
1,42,0,25
1,38,0,0
1,42,70,35
1,42,0,25
1,35,80,5
1,42,60,0
1,42,0,25
1,35,0,0
1,35,100,5
1,42,90,0
1,42,0,25
1,35,0,0
1,42,70,35
1,42,0,25
1,46,80,5
1,46,0,25
1,38,100,5
1,42,80,0
1,42,0,25
1,38,0,0
1,35,80,35
1,42,70,0
1,42,0,25
1,35,0,0
1,42,60,5
1,42,0,25
1,35,100,485
1,37,90,0
1,49,70,0
1,70,80,0
1,70,0,25
1,35,0,0
1,37,0,0
1,49,0,0
1,51,70,35
1,63,40,0
1,69,50,0
1,69,0,25
1,63,0,0
1,51,0,0
1,51,90,35
1,63,60,0
1,70,80,0
1,70,0,25
1,63,0,0
1,51,0,0
1,35,70,35
1,37,90,0
1,51,70,0
1,62,70,0
1,69,50,0
1,69,0,25
1,51,0,0
1,35,0,0
1,37,0,0
1,62,0,0
1,35,100,35
1,51,90,0
1,63,35,0
1,70,80,0
1,70,0,25
1,35,0,0
1,51,0,0
1,63,0,0
1,51,70,35
1,63,50,0
1,69,50,0
1,69,0,25
1,63,0,0
1,51,0,0
1,37,90,35
1,51,90,0
1,62,70,0
1,70,80,0
1,70,0,25
1,37,0,0
1,51,0,0
1,62,0,0
1,35,70,35
1,51,70,0
1,69,50,0
1,69,0,25
1,51,0,0
1,35,0,0
1,35,100,35
1,51,90,0
1,63,40,0
1,70,80,0
1,70,0,25
1,35,0,0
1,51,0,0
1,63,0,0
1,51,70,35
1,63,40,0
1,69,50,0
1,69,0,25
1,63,0,0
1,51,0,0
1,37,90,35
1,51,90,0
1,70,80,0
1,70,0,25
1,51,0,0
1,37,0,0
1,35,70,35
1,56,40,0
1,51,70,0
1,69,50,0
1,69,0,25
1,35,0,0
1,56,0,0
1,51,0,0
1,35,100,35
1,51,90,0
1,70,80,0
1,70,0,25
1,51,0,0
1,35,0,0
1,37,90,35
1,51,70,0
1,69,50,0
1,69,0,25
1,51,0,0
1,37,0,0
1,56,40,35
1,51,90,0
1,45,70,0
1,70,80,0
1,70,0,25
1,56,0,0
1,51,0,0
1,45,0,0
1,35,70,35
1,51,70,0
1,69,50,0
1,69,0,25
1,51,0,0
1,35,0,0
1,35,100,35
1,37,90,0
1,56,40,0
1,51,90,0
1,70,80,0
1,70,0,25
1,56,0,0
1,35,0,0
1,37,0,0
1,51,0,0
1,51,70,35
1,63,40,0
1,69,50,0
1,69,0,25
1,63,0,0
1,51,0,0
1,51,90,35
1,63,60,0
1,70,80,0
1,70,0,25
1,63,0,0
1,51,0,0
1,35,70,35
1,37,90,0
1,51,70,0
1,62,70,0
1,69,50,0
1,69,0,25
1,51,0,0
1,35,0,0
1,37,0,0
1,62,0,0
1,35,100,35
1,51,90,0
1,70,80,0
1,70,0,25
1,51,0,0
1,35,0,0
1,51,70,35
1,69,50,0
1,69,0,25
1,51,0,0
1,37,90,35
1,56,40,0
1,51,90,0
1,45,70,0
1,62,70,0
1,70,80,0
1,70,0,25
1,56,0,0
1,51,0,0
1,37,0,0
1,62,0,0
1,45,0,0
1,35,70,35
1,51,70,0
1,45,70,0
1,69,50,0
1,69,0,25
1,35,0,0
1,51,0,0
1,45,0,0
1,35,100,35
1,56,40,0
1,51,90,0
1,63,40,0
1,70,80,0
1,70,0,25
1,51,0,0
1,35,0,0
1,56,0,0
1,63,0,0
1,51,70,35
1,63,40,0
1,69,50,0
1,69,0,25
1,63,0,0
1,51,0,0
1,37,90,35
1,51,90,0
1,70,80,0
1,70,0,25
1,51,0,0
1,37,0,0
1,35,70,35
1,51,70,0
1,69,50,0
1,69,0,25
1,51,0,0
1,35,0,0
1,35,100,35
1,51,90,0
1,41,50,0
1,70,80,0
1,70,0,25
1,35,0,0
1,51,0,0
1,41,0,0
1,37,90,35
1,51,70,0
1,69,50,0
1,69,0,25
1,51,0,0
1,37,0,0
1,51,90,35
1,70,80,0
1,70,0,25
1,51,0,0
1,35,70,35
1,51,70,0
1,69,50,0
1,69,0,25
1,51,0,0
1,35,0,0
1,35,100,35
1,37,90,0
1,56,40,0
1,51,90,0
1,70,80,0
1,70,0,25
1,56,0,0
1,35,0,0
1,37,0,0
1,51,0,0
1,51,70,35
1,63,40,0
1,69,50,0
1,69,0,25
1,63,0,0
1,51,0,0
1,51,90,35
1,48,60,0
1,63,60,0
1,70,80,0
1,70,0,25
1,51,0,0
