track,note,velocity,time
0,42,50,0
0,42,40,93
0,42,40,93
0,42,40,93
0,42,50,93
0,42,40,93
0,42,40,93
0,42,40,93
0,64,64,93
0,62,74,0
0,59,80,1
0,40,63,0
0,62,82,1
0,59,94,0
0,83,104,93
0,81,94,6
0,76,94,90
0,79,94,11
0,81,94,1
0,59,82,0
0,62,80,1
0,79,94,0
0,64,56,0
0,59,82,1
0,60,74,0
0,57,78,0
0,64,50,1
0,33,76,0
0,60,78,1
0,57,88,0
0,72,94,43
0,76,94,0
0,79,94,0
0,81,94,24
0,79,94,0
0,60,54,38
0,57,64,1
0,64,52,0
0,67,68,95
0,74,94,1
0,33,80,0
0,76,94,1
0,79,94,0
0,62,78,0
0,66,64,1
0,38,66,0
0,62,88,1
0,81,94,0
0,79,94,24
0,76,94,120
0,81,94,1
0,79,94,0
0,76,94,1
0,66,68,0
0,62,80,1
0,74,94,0
0,38,64,1
0,64,64,0
0,59,80,1
0,67,66,0
0,36,77,0
0,59,94,1
0,64,82,0
0,76,94,1
0,71,62,168
0,67,64,1
0,64,58,23
0,59,58,1
0,67,68,12
0,59,64,1
0,59,67,0
0,64,56,1
0,64,64,1
0,62,74,0
0,59,80,1
0,40,63,0
0,62,82,0
0,42,79,1
0,42,33,41
0,62,85,1
0,62,84,20
0,83,94,21
0,42,63,1
0,64,86,0
0,42,44,44
0,61,64,1
0,42,57,0
0,81,94,2
0,42,33,43
0,63,74,1
0,76,94,44
0,42,52,1
0,64,84,0
0,42,33,44
0,61,62,1
0,79,94,1
0,42,71,0
0,81,94,1
0,42,42,0
0,62,85,1
0,62,84,19
0,42,60,21
0,64,86,1
0,79,94,0
0,42,44,1
0,61,64,0
0,42,61,0
0,67,54,43
0,64,58,0
0,59,72,1
0,42,33,0
0,63,74,0
0,42,53,44
0,64,84,1
0,40,69,0
0,42,48,1
0,61,62,0
0,60,74,0
0,57,78,1
0,33,76,0
0,60,78,0
0,57,88,1
0,42,79,0
0,72,94,41
0,42,33,1
0,62,85,0
0,62,84,20
0,74,94,2
0,42,63,0
0,64,86,1
0,76,94,0
0,42,44,1
0,61,64,0
0,42,57,44
0,79,94,24
0,42,33,1
0,63,74,0
0,42,52,44
0,64,84,1
0,79,94,0
0,42,33,1
0,61,62,0
0,42,71,45
0,76,94,44
0,42,42,1
0,62,85,0
0,62,84,19
0,42,60,0
0,64,86,1
0,60,54,40
0,57,64,1
0,64,52,0
0,42,44,1
0,61,64,0
0,42,61,43
0,67,68,45
0,74,94,1
0,42,33,0
0,63,74,0
0,33,80,0
0,76,94,1
0,42,53,0
0,64,84,1
0,79,94,1
0,42,48,0
0,61,62,1
0,62,78,0
0,38,66,1
0,62,88,0
0,81,94,1
0,42,79,0
0,66,64,1
0,42,33,43
0,62,85,0
0,62,84,20
0,42,63,2
0,64,86,0
0,42,44,44
0,61,64,1
0,42,57,45
0,42,33,44
0,63,74,1
0,42,52,44
0,64,84,1
0,42,33,44
0,61,62,1
0,81,94,45
0,42,71,0
0,42,42,44
0,62,85,1
0,62,84,20
0,79,94,0
0,42,60,1
0,64,86,0
0,76,94,0
0,42,44,1
0,61,64,0
0,42,61,45
0,74,94,0
0,42,33,1
0,63,74,0
0,66,68,2
0,62,80,2
0,38,64,0
0,42,53,1
0,64,84,0
0,42,48,44
0,61,62,1
0,36,77,1
0,59,94,0
0,64,82,1
0,76,94,0
0,59,78,1
0,42,79,0
0,67,76,0
0,64,66,0
0,71,70,0
0,42,33,41
0,62,85,1
0,62,84,20
0,42,63,21
0,64,86,1
0,42,44,44
0,61,64,1
0,42,57,0
0,42,33,45
0,63,74,1
0,42,52,44
0,64,84,1
0,64,68,22
0,59,76,2
0,42,33,1
0,61,62,1
0,42,71,45
0,67,74,44
0,42,42,1
0,62,85,0
0,62,84,20
0,40,38,21
0,42,60,1
0,64,86,0
0,40,41,20
0,40,45,21
0,42,46,1
0,61,64,0
0,40,48,20
0,42,58,1
0,40,46,21
0,42,49,0
0,40,68,21
0,42,61,0
0,40,56,20
0,46,61,1
0,63,74,0
0,40,66,20
0,40,95,0
0,42,61,1
0,64,84,0
0,40,90,44
0,46,53,1
0,61,62,0
0,67,85,1
0,28,86,0
0,62,90,1
0,79,66,1
0,74,64,0
0,71,64,1
0,79,61,0
0,64,81,1
0,36,90,0
0,42,79,0
0,49,76,0
0,42,33,7
0,62,85,0
0,62,84,0
0,28,86,3
0,40,90,1
0,42,63,0
0,64,101,0
0,39,82,0
0,42,44,0
0,61,64,1
0,28,82,7
0,69,112,1
0,36,88,0
0,42,57,0
0,26,94,0
0,42,33,1
0,63,74,0
0,28,86,0
0,40,95,1
0,42,52,0
0,64,99,1
0,39,80,0
0,31,86,0
0,42,33,1
0,61,62,0
0,28,86,1
0,36,90,1
0,42,71,0
0,28,72,6
0,42,42,1
0,62,85,0
0,62,84,20
0,40,90,0
0,42,60,1
0,64,101,0
0,62,38,1
0,39,82,0
0,67,79,35
0,62,85,0
0,42,44,1
0,61,64,0
0,64,69,1
0,28,84,44
0,36,88,1
0,42,61,0
0,64,63,15
0,62,73,0
0,67,67,0
0,26,88,1
0,42,33,0
0,63,74,1
0,28,78,0
0,40,98,1
0,42,53,0
0,64,99,1
0,39,80,0
0,67,65,24
0,31,112,0
0,42,48,1
0,61,62,0
0,60,91,3
0,33,115,1
0,60,86,0
0,57,96,0
0,69,63,1
0,72,63,0
0,36,90,1
0,42,79,0
0,64,71,1
0,42,33,1
0,62,85,0
0,62,84,20
0,33,115,21
0,40,90,1
0,42,63,0
0,64,101,1
0,39,82,0
0,64,100,1
0,42,44,0
0,61,64,0
0,33,100,11
0,71,105,1
0,36,88,0
0,42,57,0
0,31,100,0
0,42,33,1
0,63,74,0
0,72,77,0
0,71,85,0
0,33,88,1
0,69,106,1
0,40,102,0
0,42,52,0
0,64,99,1
0,39,80,0
0,36,94,0
0,42,33,1
0,61,62,0
0,33,112,1
0,36,90,1
0,42,71,0
0,33,109,0
0,42,42,1
0,62,85,0
0,62,84,20
0,40,90,0
0,42,60,1
0,64,101,0
0,39,82,1
0,42,44,11
0,67,102,1
0,61,64,0
0,64,69,1
0,33,100,5
0,36,88,1
0,42,61,0
0,64,65,16
0,67,102,0
0,31,88,1
0,42,33,0
0,63,74,1
0,36,86,0
0,40,98,1
0,42,53,0
0,64,99,1
0,39,80,0
0,33,117,0
0,42,48,1
0,61,62,0
0,78,64,2
0,38,106,1
0,62,96,0
0,74,62,1
0,78,65,1
0,36,90,0
0,42,79,0
0,62,91,0
0,66,71,0
0,42,33,0
0,62,85,1
0,62,84,20
0,38,106,21
0,40,90,1
0,42,63,0
0,64,101,0
0,39,82,1
0,42,44,0
0,69,106,1
0,61,64,0
0,38,88,3
0,36,88,1
0,42,57,0
0,71,106,1
0,33,100,1
0,42,33,0
0,63,74,1
0,36,94,0
0,40,95,1
0,42,52,0
0,64,99,1
0,39,80,0
0,74,107,1
0,38,100,0
0,42,33,1
0,61,62,0
0,36,90,1
0,69,112,1
0,42,71,0
0,38,86,16
0,42,42,1
0,62,85,0
0,62,84,17
0,40,90,0
0,42,60,1
0,64,101,0
0,39,82,1
0,71,106,6
0,62,85,0
0,38,86,1
0,42,44,0
0,66,67,1
0,69,71,0
0,61,64,0
0,62,90,21
0,36,88,0
0,42,61,1
0,38,82,11
0,42,33,0
0,63,74,0
0,66,69,1
0,69,91,0
0,62,91,0
0,40,98,0
0,42,53,1
0,64,99,0
0,39,80,1
0,38,86,2
0,42,48,1
0,61,62,0
0,62,92,1
0,76,63,10
0,43,106,0
0,59,102,1
0,64,90,1
0,71,61,0
0,76,61,1
0,79,62,0
0,62,84,1
0,36,90,0
0,42,79,0
0,64,69,1
0,67,102,0
0,71,73,1
0,64,83,28
0,42,33,0
0,62,85,0
0,64,95,8
0,62,84,12
0,43,106,21
0,40,90,1
0,42,63,0
0,64,101,0
0,39,82,1
0,42,44,0
0,61,64,0
0,43,106,44
0,36,88,1
0,42,57,0
0,31,80,1
0,42,33,0
0,63,74,1
0,33,100,0
0,40,102,1
0,42,52,0
0,64,59,1
0,64,99,0
0,39,80,1
0,36,100,0
0,42,33,1
0,61,62,0
0,67,73,1
0,71,59,1
0,36,90,1
0,42,71,1
0,31,80,44
0,42,42,0
0,62,85,1
0,62,84,19
0,33,100,1
0,40,90,0
0,42,60,1
0,64,101,0
0,39,82,0
0,36,100,0
0,42,44,1
0,61,64,0
0,64,61,1
0,67,91,0
0,36,88,0
0,42,61,1
0,33,88,9
0,42,33,1
0,63,74,0
0,67,79,1
0,64,55,0
0,36,76,1
0,40,98,0
0,42,53,1
0,61,67,0
0,39,80,1
0,61,67,15
0,38,86,0
0,42,48,1
0,61,67,0
0,61,55,10
0,28,86,0
0,62,90,1
0,36,90,0
0,42,79,1
0,42,33,0
0,28,86,45
0,36,88,1
0,40,90,0
0,42,63,1
0,39,82,0
0,42,44,0
0,28,82,45
0,36,88,1
0,42,57,0
0,79,94,1
0,26,94,1
0,42,33,0
0,79,94,1
0,28,86,1
0,40,95,0
0,79,94,1
0,42,52,0
0,36,88,1
0,39,80,0
0,31,86,1
0,42,33,0
0,78,94,0
0,28,86,1
0,36,90,1
0,42,71,0
0,28,72,24
0,42,42,0
0,76,94,1
0,36,88,2
0,40,90,0
0,42,60,0
0,39,82,2
0,78,94,41
0,42,44,1
0,28,84,45
0,36,88,1
0,42,61,0
0,79,94,42
0,26,88,0
0,42,33,1
0,28,78,0
0,40,98,1
0,42,53,0
0,36,88,1
0,39,80,1
0,31,112,0
0,42,48,1
0,33,115,0
0,60,86,0
0,57,96,1
0,36,90,0
0,42,79,1
0,42,33,1
0,33,115,44
0,36,88,1
0,40,90,0
0,42,63,1
0,39,82,0
0,42,44,1
0,76,94,1
0,33,100,44
0,36,88,1
0,42,57,0
0,79,94,0
0,31,100,0
0,42,33,1
0,79,94,21
0,33,88,0
0,40,102,1
0,42,52,0
0,36,88,1
0,39,80,1
0,78,94,1
0,36,94,0
0,42,33,1
0,33,112,1
0,36,90,1
0,42,71,0
0,76,94,41
0,33,109,0
0,42,42,1
0,36,88,0
0,40,90,1
0,42,60,0
0,39,82,1
0,78,94,39
0,42,44,2
0,33,100,45
0,36,88,1
0,42,61,0
0,79,94,3
0,31,88,0
0,42,33,1
0,36,86,0
0,40,98,1
0,42,53,0
0,36,88,1
0,39,80,1
0,33,117,0
0,42,48,1
0,38,106,1
0,62,96,0
0,36,90,1
0,42,79,0
0,42,33,0
0,38,106,45
0,36,88,1
0,40,90,0
0,42,63,1
0,39,82,0
0,76,94,1
0,42,44,0
0,38,88,24
0,76,94,1
0,36,88,0
0,42,57,1
0,76,94,0
0,33,100,0
0,42,33,1
0,36,94,1
0,76,94,0
0,40,95,1
0,42,52,0
0,36,88,1
0,39,80,0
0,38,100,0
0,76,94,1
0,42,33,0
0,36,90,1
0,42,71,0
0,38,86,1
0,74,94,0
0,42,42,1
0,36,88,0
0,40,90,1
0,42,60,0
0,39,82,1
0,38,86,24
0,74,94,1
0,42,44,0
0,36,88,1
0,42,61,0
0,38,82,44
0,42,33,1
0,40,98,0
0,42,53,1
0,36,88,1
0,39,80,0
0,38,86,42
0,42,48,0
0,43,106,0
0,59,102,1
0,64,90,0
0,36,90,1
0,42,79,0
0,42,33,0
0,43,106,45
0,36,88,1
0,40,90,0
0,42,63,1
0,39,82,0
0,69,94,0
0,42,44,1
0,43,106,0
0,71,94,1
0,36,88,0
0,42,57,1
0,31,80,1
0,42,33,0
0,33,100,1
0,69,94,0
0,40,102,1
0,42,52,0
0,36,88,1
0,39,80,0
0,36,100,0
0,67,94,0
0,42,33,1
0,36,90,1
0,42,71,0
0,31,80,0
0,42,42,1
0,33,100,0
0,36,88,1
0,40,90,0
0,42,60,1
0,39,82,0
0,36,100,0
0,42,46,1
0,42,58,20
0,36,88,0
0,42,49,1
0,42,61,21
0,33,88,20
0,46,61,1
0,39,69,0
0,36,76,0
0,40,98,1
0,42,61,0
0,36,88,1
0,39,80,1
0,38,86,0
0,46,53,1
0,28,86,0
0,62,90,1
0,36,90,0
0,42,79,1
0,42,33,0
0,28,86,45
0,36,88,1
0,40,90,0
0,42,63,1
0,39,82,0
0,42,44,0
0,28,82,45
0,79,94,1
0,36,88,0
0,42,57,1
0,26,94,0
0,79,94,0
0,42,33,1
0,28,86,1
0,79,94,0
0,40,95,1
0,42,52,0
0,36,88,1
0,39,80,0
0,31,86,1
0,78,94,0
0,42,33,1
0,28,86,1
0,36,90,0
0,42,71,1
0,28,72,0
0,76,94,1
0,42,42,0
0,36,88,0
0,40,90,1
0,42,60,0
0,39,82,1
0,78,94,0
0,42,44,1
0,28,84,44
0,36,88,1
0,42,61,0
0,26,88,1
0,79,94,0
0,42,33,1
0,28,78,0
0,40,98,1
0,42,53,0
0,36,88,1
0,39,80,1
0,31,112,0
0,42,48,1
0,33,115,1
0,60,86,0
0,57,96,1
0,36,90,0
0,42,79,1
0,42,33,0
0,33,115,45
0,76,94,1
0,36,88,0
0,40,90,1
0,42,63,0
0,39,82,1
0,81,94,0
0,42,44,0
0,33,100,44
0,36,88,1
0,42,57,0
0,31,100,0
0,79,94,1
0,42,33,0
0,33,88,0
0,40,102,1
0,42,52,0
0,36,88,1
0,39,80,1
0,36,94,1
0,79,94,0
0,42,33,1
0,33,112,1
0,36,90,0
0,42,71,1
0,33,109,0
0,76,94,1
0,42,42,0
0,36,88,0
0,40,90,1
0,42,60,0
0,39,82,1
0,74,94,8
0,42,44,1
0,33,100,44
0,36,88,1
0,42,61,0
0,31,88,1
0,76,94,0
0,42,33,1
0,36,86,0
0,40,98,1
0,42,53,0
0,36,88,1
0,39,80,1
0,33,117,0
0,74,94,1
0,42,48,0
0,38,106,1
0,62,96,1
0,36,90,0
0,42,79,1
0,42,33,0
0,38,106,45
0,36,88,1
0,40,90,0
0,42,63,0
0,39,82,1
0,42,44,0
0,38,88,45
0,36,88,1
0,42,57,0
0,33,100,0
0,42,33,1
0,36,94,0
0,40,95,1
0,42,52,0
0,36,88,1
0,39,80,1
0,38,100,0
0,42,33,1
0,76,94,1
0,36,90,1
0,42,71,0
0,38,86,1
0,74,94,0
0,42,42,1
0,71,94,1
0,36,88,0
0,40,90,1
0,42,60,0
0,39,82,1
0,38,86,42
0,74,94,1
0,42,44,0
0,36,88,0
0,42,61,1
0,38,82,9
0,71,94,1
0,42,33,0
0,74,94,0
0,40,98,1
0,42,53,0
0,36,88,1
0,39,80,0
0,38,86,0
0,74,94,1
0,42,48,0
0,43,106,1
0,59,102,0
0,64,90,1
0,36,90,0
0,42,79,0
0,76,94,1
0,42,33,0
0,43,106,44
0,36,88,1
0,40,90,0
0,42,63,1
0,39,82,0
0,76,94,0
0,42,44,1
0,43,106,44
0,36,88,1
0,42,57,0
0,31,80,0
0,69,94,1
0,42,33,0
0,33,100,0
0,71,94,1
0,40,102,0
0,42,52,1
0,36,88,0
0,39,80,1
0,36,100,0
0,42,33,1
0,69,94,1
0,36,90,0
0,42,71,1
0,31,80,44
0,42,42,0
0,33,100,0
0,67,94,1
0,36,88,0
0,40,90,1
0,42,60,0
0,39,82,0
0,36,100,0
0,42,46,1
0,42,58,20
0,67,94,0
0,36,88,1
0,42,49,0
0,42,61,4
0,33,88,21
0,40,23,1
0,46,61,0
0,40,43,20
0,36,76,0
0,40,98,1
0,42,61,0
0,36,88,1
0,39,80,1
0,42,53,18
0,38,86,0
0,42,64,1
0,42,53,20
0,67,58,1
0,64,58,0
0,28,86,1
0,62,90,0
0,36,90,1
0,42,79,0
0,49,76,1
0,42,33,40
0,62,85,1
0,62,84,2
0,28,86,20
0,83,94,1
0,40,90,0
0,42,63,0
0,64,86,1
0,39,82,0
0,42,44,0
0,61,64,1
0,28,82,1
0,81,94,0
0,36,88,1
0,42,57,0
0,26,94,0
0,42,33,1
0,63,74,0
0,28,86,0
0,76,94,1
0,40,95,0
0,42,52,0
0,64,84,1
