track,note,velocity,time
1,39,109,18651
1,39,0,474
1,41,108,3
1,41,0,473
1,38,111,9
1,38,0,355
1,39,110,5
1,39,0,598
1,39,109,1
1,39,0,479
1,41,107,2
1,41,0,353
1,34,110,6
1,34,0,1080
1,39,110,1
1,39,0,477
1,41,110,4
1,41,0,480
1,38,113,1
1,39,110,357
1,38,0,1
1,39,0,598
1,39,111,2
1,39,0,476
1,41,110,2
1,41,0,360
1,34,106,2
1,34,0,1075
1,36,113,4
1,36,0,955
1,29,109,7
1,31,111,238
1,29,0,1
1,31,0,235
1,34,106,6
1,34,0,239
1,36,107,0
1,36,0,233
1,34,108,7
1,34,0,1679
1,29,110,0
1,29,0,120
1,34,110,0
1,34,0,114
1,33,114,8
1,38,113,957
1,33,0,2
1,38,0,474
1,30,111,6
1,30,0,480
1,31,112,0
1,31,0,956
1,29,113,4
1,29,0,716
1,41,110,3
1,41,0,119
1,29,110,0
1,29,0,120
1,38,110,4
1,38,0,478
1,26,107,2
1,26,0,472
1,27,113,6
1,27,0,177
1,39,111,1
1,39,0,175
1,27,106,5
1,27,0,117
1,26,110,6
1,42,109,177
1,26,0,3
1,42,0,171
1,38,110,8
1,38,0,119
1,34,106,1
1,34,0,838
1,29,107,2
1,29,0,115
1,34,110,5
1,34,0,475
1,34,110,4
1,34,0,238
1,38,114,3
1,38,0,56
1,41,114,5
1,41,0,52
1,43,112,8
1,43,0,55
1,41,110,4
1,41,0,57
1,33,108,1
1,33,0,954
1,38,107,9
1,38,0,357
1,33,111,3
1,33,0,118
1,42,110,3
1,42,0,352
1,26,109,4
1,26,0,119
1,31,110,2
1,31,0,954
1,29,111,6
1,27,108,959
1,29,0,2
1,27,0,953
1,29,114,7
1,29,0,236
1,41,107,4
1,41,0,118
1,29,109,4
1,29,0,117
1,41,108,0
1,41,0,114
1,29,109,7
1,29,0,118
1,41,113,1
1,41,0,116
1,29,107,7
1,29,0,112
1,34,106,4
1,34,0,473
1,33,107,11
1,33,0,473
1,31,106,7
1,31,0,239
1,50,111,1
1,50,0,112
1,53,114,4
1,53,0,356
1,48,114,4
1,48,0,113
1,50,107,7
1,50,0,116
1,46,108,6
1,46,0,239
1,53,112,722
1,51,106,238
1,53,0,1
1,51,0,115
1,50,113,7
1,50,0,359
1,48,110,1
1,48,0,112
1,46,111,6
1,46,0,117
1,46,109,3
1,46,0,476
1,45,111,4
1,45,0,476
1,43,111,4
1,43,0,476
1,41,111,4
1,41,0,476
1,39,111,4
1,39,0,956
1,41,111,4
1,41,0,116
1,36,111,4
1,36,0,116
1,29,111,4
1,29,0,716
1,46,109,4
1,46,0,476
1,45,111,4
1,45,0,476
1,43,111,4
1,43,0,476
1,41,111,4
1,41,0,476
1,39,111,4
1,39,0,956
1,41,111,4
1,41,0,116
1,36,111,4
1,36,0,116
1,29,111,4
1,29,0,716
1,39,106,3
1,39,0,474
1,41,110,6
1,41,0,475
1,38,113,7
1,38,0,353
1,39,109,4
1,39,0,595
1,39,110,7
1,39,0,474
1,41,110,6
1,41,0,358
1,34,114,3
1,34,0,1078
1,39,108,1
1,39,0,478
1,41,112,2
1,41,0,479
1,38,111,3
1,38,0,355
1,39,106,2
1,39,0,592
1,39,114,10
1,41,109,480
1,39,0,1
1,41,0,356
1,34,108,2
1,34,0,1077
1,36,113,3
1,29,113,958
1,36,0,1
1,29,0,237
1,31,114,5
1,31,0,232
1,34,113,6
1,34,0,234
1,36,113,7
1,36,0,236
1,34,110,2
1,34,0,1676
1,29,113,4
1,29,0,116
1,34,113,4
1,34,0,116
1,33,110,6
1,33,0,956
1,38,109,3
1,38,0,477
1,30,112,6
1,31,114,477
1,30,0,1
1,31,0,950
1,29,107,11
1,29,0,716
1,41,114,1
1,41,0,119
1,29,114,1
1,29,0,112
1,38,110,9
1,38,0,474
1,26,110,5
1,26,0,479
1,27,112,1
1,27,0,176
1,39,107,4
1,39,0,171
1,27,114,11
1,26,106,118
1,27,0,1
1,26,0,170
1,42,109,11
1,42,0,173
1,38,111,6
1,38,0,112
1,34,114,11
1,29,107,839
1,34,0,1
1,29,0,116
1,34,107,1
1,34,0,474
1,34,106,5
1,34,0,239
1,38,114,4
1,38,0,55
1,41,110,2
1,41,0,53
1,43,111,9
1,43,0,56
1,41,113,3
1,41,0,58
1,33,110,2
1,33,0,957
1,38,110,4
1,38,0,351
1,33,110,7
1,33,0,112
1,42,110,8
1,42,0,354
1,26,113,7
1,26,0,112
1,31,110,8
1,31,0,959
1,29,114,1
1,29,0,957
1,27,111,2
1,27,0,960
1,29,112,0
1,29,0,234
1,41,107,10
1,29,111,118
1,41,0,2
1,29,0,116
1,41,110,4
1,41,0,113
1,29,111,5
1,29,0,117
1,41,106,2
1,41,0,111
1,29,107,9
1,29,0,120
1,34,114,3
1,34,0,717
1,41,106,1
1,41,0,58
1,43,110,2
1,43,0,56
1,46,113,4
1,46,0,115
1,50,107,6
1,48,110,117
1,50,0,1
1,48,0,111
1,46,107,8
1,46,0,120
1,43,108,0
1,43,0,120
1,41,113,3
1,41,0,111
1,38,109,8
1,38,0,113
1,36,110,8
1,36,0,117
1,34,114,4
1,26,109,118
1,34,0,2
1,26,0,477
1,38,108,1
1,38,0,236
1,26,113,2
1,26,0,233
1,30,109,8
1,30,0,481
1,42,108,0
1,30,110,238
1,42,0,1
1,30,0,236
1,31,114,4
1,31,0,473
1,26,114,10
1,26,0,476
1,31,107,1
1,31,0,236
1,34,113,4
1,34,0,119
1,38,107,3
1,38,0,113
1,43,109,5
1,43,0,120
1,38,109,0
1,38,0,114
1,34,111,6
1,34,0,120
1,31,114,1
1,31,0,115
1,26,114,5
1,26,0,480
1,38,110,1
1,38,0,239
1,26,110,0
1,26,0,233
1,30,114,7
1,30,0,477
1,42,109,3
1,42,0,240
1,30,113,1
1,30,0,235
1,31,112,6
1,31,0,353
1,43,110,6
1,43,0,113
1,26,113,7
1,26,0,354
1,31,108,5
1,31,0,116
1,29,114,4
1,29,0,475
1,34,109,4
1,34,0,237
1,31,108,4
1,31,0,118
1,29,106,1
1,39,112,119
1,29,0,1
1,39,0,354
1,27,112,8
1,27,0,116
1,39,112,3
1,39,0,237
1,39,111,5
1,27,110,116
1,39,0,4
1,27,0,113
1,26,108,7
1,26,0,354
1,38,106,2
1,38,0,116
1,42,112,7
1,42,0,112
1,30,111,9
1,30,0,116
1,42,110,4
1,42,0,115
1,30,110,4
1,31,111,119
1,30,0,1
1,43,113,237
1,31,0,1
1,43,0,117
1,31,112,4
1,31,0,116
1,43,113,3
1,43,0,113
1,31,106,7
1,31,0,118
1,43,110,2
1,43,0,117
1,46,112,2
1,46,0,119
1,48,108,4
1,48,0,352
1,43,108,8
1,43,0,54
1,40,108,6
1,40,0,58
1,36,113,3
1,36,0,473
1,41,110,7
1,29,113,118
1,41,0,1
1,41,109,118
1,29,0,2
1,41,0,115
1,29,110,6
1,29,114,236
1,29,0,4
1,29,0,109
1,41,109,7
1,41,0,115
1,29,110,5
1,29,0,118
1,41,110,4
1,41,0,116
1,29,107,2
1,29,0,116
1,41,108,8
1,41,0,119
1,29,107,0
1,29,0,236
1,29,114,4
1,29,0,116
1,41,110,2
1,41,0,113
1,29,106,8
1,29,0,120
1,41,112,1
1,41,0,118
1,29,111,2
1,29,0,115
1,41,112,6
1,41,0,111
1,29,108,5
1,29,0,233
1,29,113,10
1,29,0,116
1,41,114,4
1,41,0,117
1,29,107,3
1,29,0,114
1,41,108,5
1,41,0,472
1,29,113,6
1,29,0,476
1,25,110,4
1,25,0,1679
1,20,108,2
1,20,0,116
1,25,112,4
1,25,0,113
1,24,110,8
1,24,0,954
1,29,110,6
1,29,0,475
1,21,111,6
1,21,0,473
1,22,106,7
1,20,114,957
1,22,0,2
1,20,0,712
1,32,112,7
1,32,0,119
1,20,112,0
1,20,0,120
1,29,113,2
1,29,0,477
1,17,106,3
1,17,0,472
1,18,111,7
1,18,0,177
1,30,106,4
1,30,0,172
1,18,110,9
1,18,0,112
1,17,106,7
1,17,0,172
1,33,111,8
1,33,0,174
1,29,107,6
1,29,0,114
1,25,110,6
1,25,0,837
1,20,110,2
1,20,0,119
1,25,108,3
1,25,0,476
1,25,110,4
1,25,0,240
1,29,109,0
1,32,114,59
1,29,0,1
1,32,0,57
1,34,106,2
1,34,0,56
1,32,110,4
1,32,0,56
1,24,111,4
1,24,0,954
1,29,114,6
1,29,0,356
1,24,110,4
1,24,0,119
1,33,112,1
1,33,0,357
1,17,113,4
1,17,0,115
1,22,113,2
1,22,0,955
1,20,106,8
1,20,0,952
1,18,112,6
1,18,0,958
1,20,110,3
1,20,0,236
1,32,109,4
1,32,0,111
1,20,108,7
1,20,0,119
1,32,114,1
1,32,0,114
1,20,114,9
1,20,0,114
1,32,112,4
1,32,0,119
1,20,111,3
1,20,0,115
1,25,114,4
1,20,112,839
1,25,0,1
1,20,0,113
1,25,111,9
1,25,0,476
1,25,111,2
1,25,0,234
1,29,107,8
1,32,110,58
1,29,0,2
1,32,0,57
1,34,110,3
1,34,0,55
1,32,112,4
1,32,0,53
1,24,106,4
1,29,111,960
1,24,0,1
1,29,0,355
1,24,113,8
1,24,0,120
1,33,110,0
1,33,0,355
1,17,108,3
1,17,0,116
1,22,111,3
1,20,108,960
1,22,0,1
1,20,0,958
1,18,110,2
1,18,0,956
1,20,107,4
1,20,0,231
1,22,107,10
1,22,0,236
1,24,106,3
1,24,0,235
1,27,106,4
1,27,0,232
1,49,108,9
1,49,0,1191
1,53,110,7
1,53,0,237
1,51,114,3
1,51,0,113
1,49,112,9
1,49,0,116
1,44,107,3
1,44,0,232
1,48,107,9
1,48,0,960
1,41,108,0
1,41,0,478
1,45,106,2
1,45,0,474
1,46,108,4
1,46,0,956
1,44,112,6
1,44,0,959
1,42,110,1
1,42,0,956
1,44,110,2
1,44,0,241
1,48,107,2
1,46,112,237
1,48,0,3
1,46,0,237
1,44,108,1
1,44,0,240
1,49,111,2
1,49,0,1191
1,44,107,7
1,44,0,239
1,37,110,1
1,37,0,237
1,32,106,4
1,32,0,238
1,25,114,3
1,25,0,1912
2,74,119,3245
2,70,108,1
2,65,110,2
2,58,112,5
2,65,112,355
2,74,0,109
2,65,0,5
2,65,0,3
2,70,0,0
2,65,113,4
2,70,112,1
2,74,101,0
2,74,0,234
2,77,109,5
2,65,105,123
2,65,0,109
2,77,0,5
2,70,0,0
2,70,113,0
2,65,0,4
2,75,109,1
2,65,107,3
2,70,0,472
2,74,110,0
2,75,0,1
2,70,101,4
2,65,113,2
2,65,0,1
2,74,0,228
2,72,105,8
2,72,0,115
2,70,110,2
2,70,0,116
2,65,0,1
2,65,119,2
2,72,105,1
2,70,0,1
2,57,104,0
2,69,104,2
2,58,0,2
2,72,0,471
2,72,108,5
2,72,0,237
2,65,111,6
2,65,0,230
2,65,0,3
2,50,118,2
2,74,116,0
2,69,0,1
2,69,101,0
2,57,0,2
2,67,107,1
2,50,0,468
2,69,0,1
2,74,0,3
2,72,105,4
2,67,0,2
2,66,107,2
2,69,112,0
2,54,117,4
2,72,0,468
2,70,105,3
2,66,0,2
2,69,0,0
2,55,110,2
2,67,115,3
2,54,0,1
2,65,114,0
2,70,0,233
2,72,110,8
2,72,0,239
2,69,101,0
2,69,0,233
2,65,117,2
2,65,0,237
2,55,0,1
2,65,103,0
2,70,113,0
2,65,0,3
2,53,108,1
2,67,0,2
2,70,0,234
2,72,110,6
2,72,0,240
2,69,105,1
2,69,0,233
2,65,101,4
2,65,0,229
2,53,0,6
2,51,106,0
2,65,0,4
2,62,101,2
2,67,104,1
2,69,112,238
2,67,0,1
2,69,0,236
2,70,105,0
2,70,0,240
2,72,102,2
2,51,0,231
2,72,0,6
2,62,0,0
2,69,102,1
2,74,103,3
2,53,114,1
2,65,110,0
2,74,0,232
2,72,110,2
2,72,0,239
2,70,103,5
2,70,0,232
2,69,106,8
2,69,0,229
2,69,0,6
2,70,116,5
2,53,0,1
2,65,0,0
2,58,112,0
2,70,0,231
2,77,118,7
2,77,0,238
2,58,0,0
2,72,107,1
2,57,109,1
2,69,104,6
2,72,0,228
2,70,110,11
2,70,0,115
2,77,118,1
2,57,0,113
2,77,0,3
2,67,110,0
2,55,104,3
2,70,106,2
2,69,0,5
2,70,0,231
2,70,107,2
2,70,0,113
2,77,103,4
2,55,0,116
2,77,0,1
2,67,0,3
2,53,115,3
2,69,103,1
2,65,116,5
2,69,0,227
2,69,111,10
2,69,0,119
2,70,114,1
2,53,0,113
2,70,0,1
2,58,116,2
2,51,111,2
2,67,115,0
2,63,101,1
2,65,0,1
2,67,0,951
2,51,0,1
2,58,0,1
2,63,0,0
2,65,118,4
2,53,102,2
2,74,119,0
2,74,0,235
2,72,110,2
2,72,0,234
2,70,116,11
2,69,117,234
2,70,0,7
2,65,0,229
2,69,0,1
2,53,0,6
2,70,108,0
2,58,117,3
2,70,0,232
2,77,107,7
2,77,0,232
2,57,105,4
2,58,0,3
2,72,117,1
2,69,106,2
2,72,0,237
2,70,101,2
2,70,0,116
2,77,110,6
2,57,0,104
2,77,0,8
2,67,110,2
2,55,113,1
2,70,109,0
2,69,0,4
2,70,0,229
2,70,103,12
2,70,0,115
2,77,110,4
2,67,0,108
2,55,0,2
2,53,115,2
2,65,103,2
2,77,0,1
2,69,113,4
2,69,0,233
2,69,108,7
2,70,104,115
2,69,0,3
2,65,0,110
2,70,0,3
2,53,0,2
2,63,114,4
2,67,105,0
2,51,110,2
2,58,112,1
2,51,0,952
2,58,0,1
2,67,0,0
2,63,0,3
2,53,104,0
2,65,109,1
2,74,101,1
2,74,0,232
2,72,109,3
2,72,0,236
2,70,110,9
2,70,0,232
2,69,112,7
2,53,0,236
2,69,0,1
2,62,114,0
2,65,0,3
2,39,117,1
2,51,106,1
2,67,106,1
2,58,104,2
2,63,112,0
2,62,0,464
2,39,0,4
2,53,105,3
2,58,0,1
2,69,102,0
2,60,118,1
2,63,0,2
2,51,0,1
2,67,0,2
2,65,117,1
2,41,110,1
2,69,0,468
2,60,0,0
2,53,0,1
2,41,0,3
2,65,0,3
2,60,112,1
2,69,108,0
2,38,111,1
2,50,104,3
2,65,108,0
2,69,0,350
2,51,101,2
2,62,101,1
2,67,113,2
2,60,0,1
2,39,118,0
2,50,0,1
2,38,0,0
2,65,0,2
2,58,118,0
2,62,0,587
2,51,0,5
2,58,102,0
2,39,0,1
2,39,111,0
2,63,115,1
2,67,114,0
2,67,0,1
2,62,117,0
2,51,105,2
2,58,0,2
2,67,0,467
2,58,0,1
2,39,0,3
2,63,0,2
2,62,0,1
2,51,0,1
2,53,102,3
2,65,119,0
2,69,107,0
2,41,119,1
2,60,102,0
2,69,0,350
2,41,0,2
2,65,111,2
2,65,0,1
2,62,110,0
2,46,101,1
2,69,109,0
2,53,0,2
2,60,0,1
2,34,114,1
2,70,104,476
2,70,0,116
2,69,114,4
2,69,0,112
2,65,104,14
2,65,0,114
2,62,111,3
2,58,117,117
2,62,0,2
2,62,0,110
2,46,0,1
2,58,0,0
2,65,0,2
2,67,111,4
2,69,0,1
2,34,0,2
2,51,113,0
2,58,113,0
2,63,107,0
2,39,104,1
2,62,115,1
2,67,0,468
2,39,0,6
2,51,0,1
2,41,107,0
2,53,107,0
2,69,118,0
2,63,0,1
2,58,0,2
2,62,0,1
2,60,115,0
2,65,107,1
2,65,0,473
2,41,0,0
2,53,0,1
2,69,0,0
2,60,0,0
2,65,101,1
2,50,118,1
2,60,110,2
2,38,119,5
2,69,106,0
2,50,0,346
2,65,0,4
2,60,0,1
2,39,107,1
2,62,114,2
2,58,102,2
2,67,109,0
2,38,0,2
2,51,111,1
2,69,0,1
2,62,0,587
2,39,0,0
2,58,116,6
2,67,0,1
2,51,0,0
2,58,0,0
2,63,104,1
2,39,101,1
2,67,101,0
2,55,116,1
2,51,112,1
2,62,108,2
2,55,0,115
2,57,118,1
2,57,0,232
2,58,103,9
2,58,0,111
2,67,0,1
2,63,0,2
