track,note,velocity,time
1,66,100,1536
1,62,100,0
1,57,100,0
1,57,0,768
1,62,0,0
1,66,0,0
1,61,100,384
1,57,100,0
1,54,100,0
1,54,0,768
1,57,0,0
1,61,0,0
1,66,100,384
1,64,100,0
1,60,100,0
1,60,0,768
1,64,0,0
1,66,0,0
1,66,100,384
1,63,100,0
1,57,100,0
1,57,0,768
1,63,0,0
1,66,0,0
1,62,100,384
1,59,100,0
1,59,0,512
1,62,0,0
1,61,100,640
1,55,100,0
1,61,0,256
1,61,100,320
1,61,0,128
1,55,0,324
1,66,100,124
1,62,100,0
1,55,100,0
1,59,100,0
1,59,0,768
1,66,0,0
1,62,0,0
1,55,0,0
1,64,100,288
1,64,0,64
1,62,100,32
1,57,100,0
1,54,100,0
1,54,0,512
1,57,0,0
1,62,0,0
1,57,100,640
1,54,100,0
1,54,0,512
1,57,0,0
1,64,100,640
1,60,100,0
1,57,100,0
1,54,100,0
1,54,0,768
1,64,0,0
1,60,0,0
1,57,0,0
1,59,100,384
1,55,100,0
1,55,0,768
1,59,0,0
1,62,100,384
1,58,100,0
1,58,0,768
1,62,0,0
1,57,100,384
1,54,100,0
1,54,0,512
1,57,0,0
1,64,100,640
1,60,100,0
1,57,100,0
1,54,100,0
1,54,0,768
1,64,0,0
1,60,0,0
1,57,0,0
1,59,100,384
1,55,100,0
1,55,0,768
1,59,0,0
1,62,100,384
1,58,100,0
1,58,0,768
1,62,0,0
1,61,100,384
1,59,100,0
1,59,0,512
1,61,0,0
1,62,100,640
1,58,100,0
1,58,0,384
1,62,0,0
1,66,100,192
1,62,100,0
1,58,100,0
1,58,0,256
1,62,0,0
1,66,0,0
1,57,100,320
1,64,100,0
1,64,0,128
1,57,0,640
1,56,100,384
1,62,100,0
1,62,0,64
1,56,0,704
1,67,100,384
1,62,100,0
1,71,100,0
1,71,0,768
1,62,0,0
1,67,0,0
1,62,100,384
1,69,100,0
1,69,0,768
1,62,0,0
1,62,100,384
1,67,100,0
1,67,0,384
1,62,0,0
1,61,100,192
1,64,100,0
1,64,0,384
1,61,0,0
1,62,100,192
1,64,100,0
1,67,100,0
1,67,0,768
1,64,0,0
1,62,0,0
1,62,100,384
1,66,100,0
1,69,100,0
1,69,0,128
1,66,0,0
1,62,0,0
1,62,100,448
1,66,100,0
1,69,100,0
1,69,0,384
1,66,0,0
1,62,0,0
1,61,100,192
1,66,100,0
1,66,0,768
1,61,0,0
1,60,100,384
1,64,100,0
1,64,0,768
1,60,0,0
1,63,100,384
1,59,100,0
1,59,0,768
1,63,0,0
1,62,100,384
1,59,100,0
1,59,0,768
1,62,0,0
1,55,100,384
1,64,100,0
1,64,0,768
1,55,0,0
1,62,100,384
1,59,100,0
1,59,0,768
1,62,0,0
1,55,100,384
1,64,100,0
1,64,0,768
1,55,0,0
1,59,100,384
1,55,100,0
1,55,0,768
1,59,0,0
1,57,100,384
1,54,100,0
1,54,0,768
1,57,0,0
1,57,100,384
1,54,100,0
1,54,0,512
1,57,0,0
1,64,100,640
1,60,100,0
1,57,100,0
1,54,100,0
1,54,0,768
1,64,0,0
1,60,0,0
1,57,0,0
1,59,100,384
1,55,100,0
1,55,0,768
1,59,0,0
1,62,100,384
1,58,100,0
1,58,0,768
1,62,0,0
1,57,100,384
1,54,100,0
1,54,0,512
1,57,0,0
1,64,100,640
1,60,100,0
1,57,100,0
1,54,100,0
1,54,0,768
1,64,0,0
1,60,0,0
1,57,0,0
1,59,100,384
1,55,100,0
1,55,0,768
1,59,0,0
1,62,100,384
1,58,100,0
1,58,0,768
1,62,0,0
1,61,100,384
1,59,100,0
1,59,0,512
1,61,0,0
1,62,100,640
1,58,100,0
1,58,0,384
1,62,0,0
1,66,100,192
1,62,100,0
1,58,100,0
1,58,0,256
1,62,0,0
1,66,0,0
1,57,100,320
1,64,100,0
1,64,0,128
1,57,0,640
1,56,100,384
1,62,100,0
1,62,0,64
1,56,0,704
1,67,100,384
1,62,100,0
1,71,100,0
1,71,0,768
1,62,0,0
1,67,0,0
1,62,100,384
1,69,100,0
1,69,0,768
1,62,0,0
1,62,100,384
1,67,100,0
1,67,0,384
1,62,0,0
1,61,100,192
1,64,100,0
1,64,0,384
1,61,0,0
1,62,100,192
1,64,100,0
1,67,100,0
1,67,0,768
1,64,0,0
1,62,0,0
1,62,100,384
1,66,100,0
1,69,100,0
1,69,0,128
1,66,0,0
1,62,0,0
1,62,100,448
1,66,100,0
1,69,100,0
1,69,0,384
1,66,0,0
1,62,0,0
1,61,100,192
1,66,100,0
1,66,0,768
1,61,0,0
1,60,100,384
1,64,100,0
1,64,0,768
1,60,0,0
1,63,100,384
1,59,100,0
1,59,0,768
1,63,0,0
1,62,100,384
1,59,100,0
1,59,0,768
1,62,0,0
1,55,100,384
1,64,100,0
1,64,0,768
1,55,0,0
1,62,100,384
1,59,100,0
1,59,0,768
1,62,0,0
1,55,100,384
1,64,100,0
1,64,0,768
1,55,0,0
1,59,100,384
1,55,100,0
1,55,0,768
1,59,0,0
1,57,100,384
1,54,100,0
1,54,0,768
1,57,0,0
1,64,100,384
1,73,100,0
1,73,0,768
1,64,0,0
1,66,100,384
1,71,100,0
1,76,100,0
1,76,0,128
1,71,0,0
1,66,0,0
1,66,100,256
1,66,100,0
1,62,100,0
1,62,100,0
1,71,100,0
1,71,0,512
1,62,0,0
1,66,0,0
1,66,0,0
1,62,0,0
1,64,100,256
1,73,100,0
1,73,100,0
1,73,0,768
1,73,0,0
1,64,0,0
1,66,100,768
1,69,100,0
1,74,100,0
1,74,0,128
1,69,0,0
1,66,0,0
1,62,100,64
1,66,100,0
1,71,100,0
1,71,0,256
1,66,0,0
1,62,0,0
1,67,100,320
1,71,100,0
1,71,0,512
1,67,0,0
1,64,100,640
1,73,100,0
1,73,0,512
1,64,0,0
1,66,100,640
1,62,100,0
1,71,100,0
1,71,0,256
1,62,0,0
1,66,0,0
1,71,100,320
1,64,100,0
1,61,100,0
1,61,0,384
1,64,0,0
1,71,0,0
1,67,100,192
1,64,100,0
1,62,100,0
1,62,0,768
1,64,0,0
1,67,0,0
1,62,100,384
1,66,100,0
1,69,100,0
1,69,0,128
1,66,0,0
1,62,0,0
1,62,100,448
1,66,100,0
1,69,100,0
1,69,0,384
1,66,0,0
1,62,0,0
1,61,100,192
1,66,100,0
1,66,0,768
1,61,0,0
1,60,100,384
1,64,100,0
1,64,0,768
1,60,0,0
1,63,100,384
1,59,100,0
1,59,0,768
1,63,0,0
1,62,100,384
1,59,100,0
1,59,0,768
1,62,0,0
1,55,100,384
1,64,100,0
1,64,0,768
1,55,0,0
1,62,100,384
1,59,100,0
1,59,0,768
1,62,0,0
1,55,100,384
1,64,100,0
1,64,0,768
1,55,0,0
1,62,100,384
1,62,100,0
1,59,100,0
1,59,0,1148
1,62,0,0
1,62,0,0
1,55,100,4
1,64,100,0
1,64,0,1148
1,55,0,0
1,59,100,4
1,55,100,0
1,55,0,1148
1,59,0,0
1,57,100,4
1,54,100,0
1,54,0,1148
1,57,0,0
1,62,100,4
1,66,100,0
1,69,100,0
1,69,0,128
1,66,0,0
1,62,0,0
1,62,100,448
1,66,100,0
1,69,100,0
1,69,0,384
1,66,0,0
1,62,0,0
1,61,100,192
1,66,100,0
1,66,0,768
1,61,0,0
1,60,100,384
1,64,100,0
1,64,0,768
1,60,0,0
1,63,100,384
1,59,100,0
1,59,0,768
1,63,0,0
1,62,100,384
1,59,100,0
1,59,0,768
1,62,0,0
1,55,100,384
1,64,100,0
1,64,0,768
1,55,0,0
1,62,100,384
1,59,100,0
1,59,0,768
1,62,0,0
1,55,100,384
1,64,100,0
1,64,0,768
1,55,0,0
1,62,100,384
1,66,100,0
1,69,100,0
1,69,0,128
1,66,0,0
1,62,0,0
1,62,100,448
1,66,100,0
1,69,100,0
1,69,0,384
1,66,0,0
1,62,0,0
1,61,100,192
1,66,100,0
1,66,0,768
1,61,0,0
1,60,100,384
1,64,100,0
1,64,0,768
1,60,0,0
1,63,100,384
1,59,100,0
1,59,0,768
1,63,0,0
1,62,100,384
1,59,100,0
1,59,0,768
1,62,0,0
1,55,100,384
1,64,100,0
1,64,0,768
1,55,0,0
1,62,100,384
1,59,100,0
1,59,0,768
1,62,0,0
1,55,100,384
1,64,100,0
1,64,0,768
1,55,0,0
1,62,100,384
1,66,100,0
1,69,100,0
1,69,0,128
1,66,0,0
1,62,0,0
1,62,100,448
1,66,100,0
1,69,100,0
1,69,0,384
1,66,0,0
1,62,0,0
1,61,100,192
1,66,100,0
1,66,0,768
1,61,0,0
1,60,100,384
1,64,100,0
1,64,0,768
1,60,0,0
1,63,100,384
1,59,100,0
1,59,0,768
1,63,0,0
1,62,100,384
1,59,100,0
1,59,0,768
1,62,0,0
1,55,100,384
1,64,100,0
1,64,0,768
1,55,0,0
1,62,100,384
1,59,100,0
1,59,0,768
1,62,0,0
1,55,100,384
1,64,100,0
1,64,0,768
1,55,0,0
1,59,100,384
1,55,100,0
1,55,0,768
1,59,0,0
1,57,100,384
1,54,100,0
1,54,0,768
1,57,0,0
1,62,100,384
1,54,100,0
1,57,100,0
1,57,0,1148
1,54,0,0
1,62,0,0
2,66,100,1536
2,62,100,0
2,57,100,0
2,66,0,1064
2,62,0,24
2,57,0,12
2,61,100,52
2,57,100,0
2,54,100,0
2,54,0,1120
2,57,0,0
2,61,0,0
2,64,100,32
2,60,100,0
2,66,100,0
2,60,0,1116
2,64,0,4
2,66,0,4
2,66,100,28
2,63,100,0
2,57,100,0
2,66,0,1116
2,57,0,12
2,63,0,8
2,62,100,16
2,59,100,0
2,62,0,724
2,59,0,28
2,64,100,400
2,61,100,0
2,55,100,0
2,61,0,392
2,64,0,8
2,64,100,176
2,61,100,0
2,61,0,224
2,64,0,24
2,55,0,296
2,66,100,32
2,62,100,0
2,55,100,0
2,59,100,0
2,66,0,1060
2,55,0,52
2,62,0,16
2,59,0,8
2,62,100,16
2,57,100,0
2,54,100,0
2,54,0,636
2,57,0,16
2,62,0,8
2,66,100,18924
2,69,100,0
2,62,100,0
2,62,0,1148
2,69,0,0
2,66,0,0
2,64,100,4
2,62,100,0
2,69,100,0
2,69,0,1148
2,62,0,0
2,64,0,0
2,60,100,4
2,64,100,0
2,57,100,0
2,57,0,1148
2,64,0,0
2,60,0,0
2,66,100,4
2,63,100,0
2,59,100,0
2,59,0,1148
2,63,0,0
2,66,0,0
2,64,100,4
2,67,100,0
2,59,100,0
2,59,0,1148
2,67,0,0
2,64,0,0
2,64,100,4
2,61,100,0
2,57,100,0
2,57,0,1148
2,61,0,0
2,64,0,0
2,64,100,4
2,59,100,0
2,67,100,0
2,67,0,1148
2,59,0,0
2,64,0,0
2,64,100,4
2,61,100,0
2,57,100,0
2,57,0,1148
2,61,0,0
2,64,0,0
2,62,100,4
2,67,100,0
2,59,100,0
2,59,0,1148
2,67,0,0
2,62,0,0
2,66,100,4
2,62,100,0
2,57,100,0
2,57,0,1148
2,62,0,0
2,66,0,0
2,66,100,18436
2,69,100,0
2,62,100,0
2,62,0,1148
2,69,0,0
2,66,0,0
2,64,100,4
2,62,100,0
2,69,100,0
2,69,0,1148
2,62,0,0
2,64,0,0
2,60,100,4
2,64,100,0
2,57,100,0
2,57,0,1148
2,64,0,0
2,60,0,0
2,66,100,4
2,63,100,0
2,59,100,0
2,59,0,1148
2,63,0,0
2,66,0,0
2,64,100,4
2,67,100,0
2,59,100,0
2,59,0,1148
2,67,0,0
2,64,0,0
2,64,100,4
2,61,100,0
2,57,100,0
2,57,0,1148
2,61,0,0
2,64,0,0
2,64,100,4
2,59,100,0
2,67,100,0
2,67,0,1148
2,59,0,0
2,64,0,0
2,64,100,4
2,61,100,0
2,57,100,0
2,57,0,1148
2,61,0,0
2,64,0,0
2,62,100,4
2,67,100,0
2,59,100,0
2,59,0,1148
2,67,0,0
2,62,0,0
2,66,100,4
2,62,100,0
2,57,100,0
2,57,0,1148
2,62,0,0
2,66,0,0
2,54,100,4
2,57,100,0
2,61,100,0
2,61,0,1148
2,57,0,0
2,54,0,0
2,54,100,4
2,59,100,0
2,62,100,0
2,62,0,1148
2,59,0,0
2,54,0,0
2,54,100,4
2,57,100,0
2,61,100,0
2,61,0,1148
2,57,0,0
2,54,0,0
2,54,100,4
2,59,100,0
2,62,100,0
2,62,0,1148
2,59,0,0
2,54,0,0
2,55,100,4
2,59,100,0
2,62,100,0
2,62,0,1148
2,59,0,0
2,55,0,0
2,54,100,4
2,57,100,0
2,61,100,0
2,61,0,1148
2,57,0,0
2,54,0,0
2,55,100,4
2,59,100,0
2,64,100,0
2,64,0,572
2,59,0,0
2,55,0,0
2,54,100,4
2,57,100,0
2,61,100,0
2,61,0,572
2,57,0,0
2,54,0,0
2,55,100,4
2,59,100,0
2,64,100,0
2,52,100,0
2,52,0,1148
2,55,0,0
2,59,0,0
2,64,0,0
2,66,100,4
2,69,100,0
2,62,100,0
2,62,0,1148
2,69,0,0
2,66,0,0
2,64,100,4
2,62,100,0
2,69,100,0
2,69,0,1148
2,62,0,0
2,64,0,0
2,60,100,4
2,64,100,0
2,57,100,0
2,57,0,1148
2,64,0,0
2,60,0,0
2,66,100,4
2,63,100,0
2,59,100,0
2,59,0,1148
2,63,0,0
2,66,0,0
2,64,100,4
2,67,100,0
2,59,100,0
2,59,0,1148
2,67,0,0
2,64,0,0
2,64,100,4
2,61,100,0
2,57,100,0
2,57,0,1148
2,61,0,0
2,64,0,0
2,64,100,4
2,59,100,0
2,67,100,0
2,67,0,1148
2,59,0,0
2,64,0,0
2,64,100,4
2,61,100,0
2,57,100,0
2,57,0,1148
2,61,0,0
2,64,0,0
2,64,100,4
2,59,100,0
2,67,100,0
2,67,0,1148
2,59,0,0
2,64,0,0
2,64,100,4
2,61,100,0
2,69,100,0
2,69,0,1148
2,61,0,0
2,64,0,0
2,67,100,4
2,62,100,0
2,59,100,0
2,59,0,1148
2,62,0,0
2,67,0,0
2,66,100,4
2,62,100,0
2,57,100,0
2,57,0,1148
2,62,0,0
2,66,0,0
2,66,100,4
2,69,100,0
2,62,100,0
2,62,0,1148
2,69,0,0
2,66,0,0
2,64,100,4
2,62,100,0
2,69,100,0
2,69,0,1148
2,62,0,0
2,64,0,0
2,60,100,4
2,64,100,0
2,57,100,0
2,57,0,1148
2,64,0,0
2,60,0,0
2,66,100,4
2,63,100,0
2,59,100,0
2,59,0,1148
2,63,0,0
2,66,0,0
2,64,100,4
2,67,100,0
2,59,100,0
2,59,0,1148
2,67,0,0
2,64,0,0
2,64,100,4
2,61,100,0
2,57,100,0
2,57,0,1148
2,61,0,0
2,64,0,0
2,64,100,4
2,59,100,0
2,67,100,0
2,67,0,1148
2,59,0,0
2,64,0,0
2,64,100,4
2,61,100,0
2,57,100,0
2,57,0,1148
2,61,0,0
2,64,0,0
2,66,100,4
2,69,100,0
2,62,100,0
2,62,0,1148
2,69,0,0
2,66,0,0
2,64,100,4
2,62,100,0
2,69,100,0
2,69,0,1148
2,62,0,0
2,64,0,0
2,60,100,4
2,64,100,0
2,57,100,0
2,57,0,1148
2,64,0,0
2,60,0,0
2,66,100,4
2,63,100,0
2,59,100,0
2,59,0,1148
2,63,0,0
2,66,0,0
2,64,100,4
2,67,100,0
2,59,100,0
2,59,0,1148
2,67,0,0
2,64,0,0
2,64,100,4
2,61,100,0
2,57,100,0
2,57,0,1148
2,61,0,0
2,64,0,0
2,64,100,4
2,59,100,0
2,67,100,0
2,67,0,1148
2,59,0,0
2,64,0,0
2,64,100,4
2,61,100,0
2,57,100,0
2,57,0,1148
2,61,0,0
2,64,0,0
2,66,100,4
2,69,100,0
2,62,100,0
2,62,0,1148
2,69,0,0
2,66,0,0
2,64,100,4
2,62,100,0
2,69,100,0
2,69,0,1148
2,62,0,0
2,64,0,0
2,60,100,4
2,64,100,0
2,57,100,0
2,57,0,1148
2,64,0,0
2,60,0,0
2,66,100,4
2,63,100,0
2,59,100,0
2,59,0,1148
2,63,0,0
2,66,0,0
2,64,100,4
2,67,100,0
2,59,100,0
2,59,0,1148
2,67,0,0
2,64,0,0
