track,note,velocity,time
1,67,75,9216
1,68,75,0
1,67,75,0
1,68,75,0
1,70,75,0
1,67,75,0
1,68,75,0
1,67,75,0
1,68,75,0
1,67,75,0
1,68,75,0
1,70,75,0
1,65,75,0
1,70,75,288
1,67,75,0
1,68,75,0
1,67,75,0
1,68,75,0
1,70,75,0
1,67,75,0
1,68,75,0
1,63,75,0
1,70,75,0
1,70,75,0
1,68,75,0
1,70,75,0
1,72,75,0
1,72,75,0
1,73,75,0
1,70,75,0
1,68,75,0
1,68,75,11520
1,68,75,0
1,58,75,0
1,56,75,0
1,56,75,0
1,55,75,0
1,56,75,0
1,55,75,0
1,56,75,0
1,58,75,0
1,60,75,0
1,58,75,0
1,56,75,0
1,68,75,0
1,68,75,0
1,58,75,0
1,56,75,0
1,56,75,0
1,55,75,0
1,56,75,0
1,55,75,0
1,56,75,0
1,58,75,0
1,53,75,0
1,56,75,0
1,68,75,0
1,68,75,0
1,58,75,0
1,56,75,0
1,56,75,0
1,55,75,0
1,56,75,0
1,56,75,0
1,55,75,0
1,56,75,0
1,58,75,0
1,60,75,0
1,58,75,0
1,56,75,0
1,56,75,508
1,58,75,0
1,58,75,0
1,56,75,0
1,60,75,0
1,58,75,0
1,67,75,0
1,68,75,0
1,67,75,0
1,68,75,0
1,70,75,0
1,67,75,0
1,68,75,0
1,63,75,288
1,67,75,0
1,68,75,0
1,67,75,0
1,68,75,0
1,70,75,0
1,65,75,0
1,67,75,0
1,68,75,0
1,67,75,0
1,67,75,0
1,68,75,0
1,70,75,0
1,67,75,0
1,70,75,0
1,68,75,0
1,68,75,0
1,70,75,0
1,70,75,0
1,70,75,0
1,70,75,0
1,68,75,0
1,72,75,0
1,70,75,0
1,68,75,0
1,70,75,0
1,70,75,0
1,68,75,0
1,68,75,0
1,58,75,0
1,56,75,0
1,56,75,0
1,55,75,0
1,56,75,0
1,55,75,0
1,56,75,0
1,58,75,0
1,60,75,0
1,58,75,0
1,56,75,0
1,68,75,0
1,68,75,0
1,58,75,0
1,56,75,0
1,56,75,0
1,55,75,0
1,56,75,0
1,55,75,0
1,56,75,0
1,58,75,0
1,53,75,0
1,56,75,0
1,68,75,0
1,68,75,0
1,58,75,0
1,56,75,0
1,56,75,0
1,55,75,0
1,56,75,0
1,56,75,0
1,55,75,0
1,56,75,0
1,58,75,0
1,60,75,0
1,58,75,0
1,56,75,0
1,56,75,508
1,58,75,0
1,58,75,0
1,56,75,0
1,60,75,0
1,58,75,0
1,77,75,384
1,76,75,0
1,76,75,288
1,79,75,0
1,80,75,0
1,77,75,0
1,75,75,0
1,72,75,0
1,70,75,0
1,68,75,0
1,72,75,0
1,68,75,288
1,77,75,0
1,77,75,0
1,75,75,0
1,75,75,0
1,72,75,0
1,75,75,0
1,77,75,0
1,77,75,0
1,75,75,0
1,68,75,0
1,72,75,0
1,56,75,4348
1,60,75,0
1,60,75,0
1,58,75,0
1,68,75,0
1,68,75,0
1,61,75,0
1,59,75,0
1,59,75,0
1,58,75,0
1,59,75,0
1,58,75,0
1,59,75,0
1,61,75,0
1,63,75,0
1,61,75,0
1,59,75,0
1,68,75,0
1,68,75,0
1,61,75,0
1,59,75,0
1,59,75,0
1,58,75,0
1,59,75,0
1,58,75,0
1,59,75,0
1,61,75,0
1,56,75,0
1,59,75,0
1,71,75,0
1,71,75,0
1,61,75,0
1,59,75,0
1,59,75,0
1,58,75,0
1,59,75,0
1,59,75,0
1,58,75,0
1,59,75,0
1,61,75,0
1,63,75,0
1,61,75,0
1,59,75,0
1,59,75,508
1,61,75,0
1,61,75,0
1,59,75,0
1,63,75,0
1,61,75,0
1,71,75,0
1,71,75,0
1,61,75,0
1,59,75,0
1,59,75,0
1,58,75,0
1,59,75,0
1,58,75,0
1,59,75,0
1,61,75,0
1,63,75,0
1,61,75,0
1,59,75,0
1,68,75,0
1,68,75,0
1,61,75,0
1,59,75,0
1,59,75,0
1,58,75,0
1,59,75,0
1,58,75,0
1,59,75,0
1,61,75,0
1,56,75,0
1,59,75,0
1,68,75,0
1,68,75,0
1,61,75,0
1,59,75,0
1,59,75,0
1,58,75,0
1,59,75,0
1,59,75,0
1,58,75,0
1,59,75,0
1,61,75,0
1,63,75,0
1,61,75,0
1,59,75,0
1,59,75,508
1,61,75,0
1,61,75,0
1,59,75,0
1,63,75,0
1,61,75,0
1,58,75,3072
1,59,75,0
1,58,75,0
1,59,75,0
1,61,75,0
1,56,75,0
2,70,75,3072
2,68,75,0
2,67,75,0
2,68,75,0
2,70,75,0
2,70,75,2304
2,70,75,0
2,70,75,24576
2,68,75,0
2,68,75,0
2,68,75,0
2,70,75,0
2,70,75,1536
2,68,75,0
2,68,75,0
2,68,75,0
2,70,75,0
2,70,75,1536
2,68,75,0
2,68,75,0
2,68,75,0
2,70,75,0
2,56,75,768
2,60,75,0
2,61,75,0
2,70,75,15360
2,68,75,0
2,68,75,0
2,68,75,0
2,70,75,0
2,70,75,1536
2,68,75,0
2,68,75,0
2,68,75,0
2,70,75,0
2,70,75,1536
2,68,75,0
2,68,75,0
2,68,75,0
2,70,75,0
2,56,75,768
2,60,75,0
2,61,75,0
2,59,75,23808
2,63,75,0
2,64,75,0
2,59,75,11520
2,63,75,0
2,64,75,0
3,67,75,21504
3,68,75,0
3,67,75,0
3,68,75,0
3,70,75,0
3,67,75,0
3,68,75,0
3,72,75,0
3,70,75,0
3,68,75,0
3,63,75,0
3,67,75,0
3,68,75,0
3,70,75,0
3,65,75,0
3,67,75,0
3,68,75,0
3,67,75,0
3,67,75,0
3,68,75,0
3,70,75,0
3,67,75,0
3,70,75,0
3,68,75,0
3,68,75,0
3,70,75,0
3,70,75,0
3,70,75,0
3,70,75,0
3,68,75,0
3,72,75,0
3,70,75,0
3,68,75,0
3,70,75,0
3,72,75,0
3,72,75,0
3,70,75,0
3,68,75,0
3,68,75,0
3,67,75,0
3,68,75,0
3,67,75,0
3,68,75,0
3,70,75,0
3,72,75,0
3,70,75,0
3,68,75,0
3,72,75,0
3,72,75,0
3,70,75,0
3,68,75,0
3,68,75,0
3,67,75,0
3,68,75,0
3,67,75,0
3,68,75,0
3,70,75,0
3,65,75,0
3,68,75,0
3,72,75,0
3,72,75,0
3,70,75,0
3,68,75,0
3,68,75,0
3,67,75,0
3,68,75,0
3,68,75,0
3,67,75,0
3,68,75,0
3,70,75,0
3,72,75,0
3,70,75,0
3,68,75,0
3,65,75,0
3,72,75,0
3,70,75,0
3,68,75,0
3,70,75,0
3,70,75,0
3,68,75,0
3,72,75,0
3,70,75,0
3,73,75,0
3,73,75,0
3,72,75,0
3,72,75,0
3,68,75,0
3,68,75,0
3,65,75,0
3,70,75,0
3,68,75,0
3,72,75,11136
3,72,75,0
3,70,75,0
3,68,75,0
3,68,75,0
3,67,75,0
3,68,75,0
3,67,75,0
3,68,75,0
3,70,75,0
3,72,75,0
3,70,75,0
3,68,75,0
3,72,75,0
3,72,75,0
3,70,75,0
3,68,75,0
3,68,75,0
3,67,75,0
3,68,75,0
3,67,75,0
3,68,75,0
3,70,75,0
3,65,75,0
3,68,75,0
3,72,75,0
3,72,75,0
3,70,75,0
3,68,75,0
3,68,75,0
3,67,75,0
3,68,75,0
3,68,75,0
3,67,75,0
3,68,75,0
3,70,75,0
3,72,75,0
3,70,75,0
3,68,75,0
3,65,75,0
3,72,75,0
3,70,75,0
3,68,75,0
3,70,75,0
3,70,75,0
3,68,75,0
3,72,75,0
3,70,75,0
3,73,75,0
3,73,75,0
3,72,75,0
3,72,75,0
3,68,75,0
3,68,75,0
3,65,75,0
3,70,75,0
3,70,75,0
3,72,75,5952
3,68,75,0
3,72,75,0
3,70,75,0
3,72,75,0
3,67,75,0
3,68,75,0
3,70,75,0
3,70,75,0
3,68,75,0
3,67,75,0
3,70,75,0
3,68,75,0
3,65,75,0
3,68,75,0
3,68,75,0
3,72,75,0
3,72,75,0
3,70,75,0
3,68,75,0
3,68,75,0
3,72,75,0
3,72,75,0
3,70,75,0
3,75,75,0
3,75,75,0
3,73,75,0
3,71,75,0
3,71,75,0
3,70,75,0
3,71,75,0
3,70,75,0
3,71,75,0
3,73,75,0
3,75,75,0
3,73,75,0
3,71,75,0
3,75,75,0
3,75,75,0
3,73,75,0
3,71,75,0
3,71,75,0
3,70,75,0
3,71,75,0
3,70,75,0
3,71,75,0
3,73,75,0
3,68,75,0
3,71,75,0
3,75,75,0
3,75,75,0
3,73,75,0
3,71,75,0
3,71,75,0
3,70,75,0
3,71,75,0
3,71,75,0
3,70,75,0
3,71,75,0
3,73,75,0
3,75,75,0
3,73,75,0
3,71,75,0
3,71,75,508
3,73,75,0
3,73,75,0
3,71,75,0
3,75,75,0
3,73,75,0
3,75,75,0
3,75,75,0
3,73,75,0
3,71,75,0
3,71,75,0
3,70,75,0
3,71,75,0
3,70,75,0
3,71,75,0
3,73,75,0
3,75,75,0
3,73,75,0
3,71,75,0
3,75,75,0
3,75,75,0
3,73,75,0
3,71,75,0
3,71,75,0
3,70,75,0
3,71,75,0
3,70,75,0
3,71,75,0
3,73,75,0
3,68,75,0
3,71,75,0
3,75,75,0
3,75,75,0
3,73,75,0
3,71,75,0
3,71,75,0
3,70,75,0
3,71,75,0
3,71,75,0
3,70,75,0
3,71,75,0
3,73,75,0
3,75,75,0
3,73,75,0
3,71,75,0
3,73,75,0
3,71,75,0
3,71,75,0
3,71,75,124
3,73,75,0
3,73,75,0
3,71,75,0
3,75,75,0
3,73,75,0
3,76,75,0
3,76,75,0
3,75,75,0
3,75,75,0
3,71,75,0
3,71,75,0
3,68,75,0
3,73,75,0
3,70,75,0
3,71,75,0
3,70,75,0
3,71,75,0
3,73,75,0
3,70,75,0
3,71,75,0
3,68,75,0
3,70,75,0
3,71,75,0
3,70,75,0
3,71,75,0
3,73,75,0
3,68,75,0
4,24,75,2592
4,27,75,0
4,44,75,0
4,44,75,0
4,44,75,0
4,44,75,0
4,37,75,0
4,37,75,0
4,37,75,0
4,41,75,0
4,44,75,0
4,42,75,0
4,42,75,0
4,42,75,0
4,42,75,0
4,41,75,0
4,39,75,0
4,39,75,0
4,39,75,0
4,39,75,0
4,44,75,0
4,44,75,0
4,44,75,0
4,37,75,0
4,37,75,0
4,37,75,0
4,44,75,0
4,44,75,0
4,44,75,0
4,37,75,0
4,37,75,0
4,37,75,0
4,44,75,0
4,44,75,0
4,44,75,0
4,37,75,0
4,37,75,0
4,37,75,0
4,42,75,0
4,42,75,0
4,42,75,0
4,42,75,0
4,41,75,0
4,39,75,0
4,39,75,0
4,39,75,0
4,39,75,0
4,44,75,0
4,44,75,0
4,44,75,0
4,37,75,0
4,37,75,0
4,37,75,0
4,44,75,0
4,44,75,0
4,44,75,0
4,37,75,0
4,37,75,0
4,37,75,0
4,44,75,0
4,44,75,0
4,44,75,0
4,37,75,0
4,37,75,0
4,37,75,0
4,42,75,0
4,42,75,0
4,42,75,0
4,39,75,0
4,39,75,0
4,39,75,0
4,39,75,0
4,44,75,0
4,44,75,0
4,44,75,0
4,37,75,0
4,37,75,0
4,37,75,0
4,37,75,0
4,44,75,0
4,44,75,0
4,44,75,0
4,37,75,0
4,37,75,0
4,37,75,0
4,37,75,0
4,44,75,0
4,44,75,0
4,44,75,0
4,37,75,0
4,37,75,0
4,37,75,0
4,37,75,0
4,42,75,0
4,42,75,0
4,42,75,0
4,39,75,0
4,39,75,0
4,39,75,0
4,44,75,0
4,44,75,0
4,44,75,0
4,37,75,0
4,37,75,0
4,37,75,0
4,44,75,0
4,44,75,0
4,44,75,0
4,37,75,0
4,37,75,0
4,37,75,0
4,44,75,0
4,44,75,0
4,44,75,0
4,37,75,0
4,37,75,0
4,37,75,0
4,42,75,0
4,42,75,0
4,42,75,0
4,39,75,0
4,39,75,0
4,39,75,0
4,39,75,0
4,44,75,0
4,44,75,0
4,44,75,0
4,37,75,0
4,37,75,0
4,37,75,0
4,37,75,0
4,44,75,0
4,44,75,0
4,44,75,0
4,37,75,0
4,37,75,0
4,37,75,0
4,37,75,0
4,44,75,0
4,44,75,0
4,44,75,0
4,37,75,0
4,37,75,0
4,37,75,0
4,37,75,0
4,42,75,0
4,42,75,0
4,42,75,0
4,39,75,0
4,39,75,0
4,39,75,0
4,39,75,0
4,48,75,0
4,48,75,0
4,48,75,0
4,41,75,0
4,41,75,0
4,41,75,0
4,37,75,0
4,37,75,0
4,39,75,0
4,44,75,0
4,44,75,0
4,44,75,0
4,44,75,0
4,43,75,0
4,43,75,0
4,48,75,0
4,41,75,0
4,39,75,0
4,37,75,0
4,37,75,0
4,46,75,0
4,46,75,0
4,46,75,0
4,39,75,0
4,39,75,0
4,39,75,0
4,39,75,0
4,47,75,0
4,47,75,0
4,47,75,0
4,40,75,0
4,40,75,0
4,40,75,0
4,40,75,0
4,47,75,0
4,47,75,0
4,47,75,0
4,40,75,0
4,40,75,0
4,40,75,0
4,40,75,0
4,47,75,0
4,47,75,0
4,47,75,0
4,40,75,0
4,40,75,0
4,40,75,0
4,45,75,0
4,45,75,0
4,45,75,0
4,45,75,0
4,42,75,0
4,42,75,0
4,42,75,0
4,42,75,0
4,47,75,0
4,47,75,0
4,47,75,0
4,40,75,0
4,40,75,0
4,40,75,0
4,40,75,0
4,47,75,0
4,47,75,0
4,47,75,0
4,40,75,0
4,40,75,0
4,40,75,0
4,40,75,0
4,47,75,0
4,47,75,0
4,47,75,0
4,40,75,0
4,40,75,0
4,40,75,0
4,45,75,0
4,45,75,0
4,45,75,0
4,45,75,0
4,42,75,0
4,42,75,0
4,42,75,0
4,47,75,0
4,40,75,0
4,47,75,0
4,40,75,0
5,68,75,1536
5,60,75,0
5,63,75,0
5,60,75,0
5,63,75,0
5,68,75,0
5,72,75,0
5,68,75,0
5,70,75,0
5,61,75,0
5,68,75,0
5,56,75,0
5,61,75,0
5,65,75,0
5,60,75,0
5,63,75,0
5,63,75,0
5,65,75,0
5,60,75,0
5,63,75,0
5,63,75,0
5,65,75,0
5,60,75,0
5,63,75,0
5,63,75,0
5,65,75,0
5,61,75,0
5,68,75,0
5,61,75,0
5,65,75,0
5,60,75,0
5,63,75,0
5,63,75,0
5,65,75,0
5,60,75,0
5,63,75,0
5,63,75,0
5,65,75,0
5,60,75,0
5,63,75,0
5,63,75,0
5,65,75,0
5,61,75,0
5,68,75,0
5,61,75,0
5,65,75,0
5,60,75,0
5,63,75,0
5,63,75,0
5,65,75,0
5,60,75,0
5,63,75,0
5,63,75,0
5,65,75,0
5,60,75,0
5,63,75,0
5,63,75,0
5,65,75,0
5,61,75,0
5,68,75,0
5,68,75,0
5,60,75,0
5,63,75,0
5,63,75,0
5,65,75,0
5,60,75,0
5,63,75,0
5,63,75,0
5,65,75,0
5,60,75,0
5,63,75,0
5,63,75,0
5,65,75,0
5,61,75,0
5,68,75,0
5,61,75,0
5,65,75,0
5,60,75,0
5,63,75,0
5,63,75,0
5,65,75,0
5,60,75,768
5,63,75,0
5,63,75,0
5,65,75,0
5,60,75,768
5,63,75,0
5,63,75,0
5,65,75,0
5,61,75,0
5,68,75,0
5,60,75,1536
5,65,75,0
5,60,75,0
5,70,75,0
5,68,75,0
5,72,75,0
5,65,75,0
5,68,75,0
5,60,75,0
5,65,75,0
5,68,75,0
5,70,75,0
5,60,75,0
5,63,75,0
5,65,75,0
5,70,75,0
5,64,75,0
5,60,75,0
5,65,75,0
5,60,75,0
5,63,75,0
5,60,75,0
5,65,75,0
5,58,75,0
5,61,75,0
5,61,75,0
5,65,75,0
5,61,75,0
5,65,75,0
5,63,75,0
5,66,75,0
5,66,75,0
5,68,75,0
5,66,75,384
5,68,75,0
5,63,75,0
5,66,75,0
5,66,75,0
5,68,75,0
5,63,75,768
5,66,75,0
5,66,75,0
5,68,75,0
5,64,75,0
5,71,75,0
5,64,75,0
5,68,75,0
5,63,75,0
5,66,75,0
5,66,75,0
5,68,75,0
5,63,75,1152
5,66,75,0
5,66,75,0
5,68,75,0
5,63,75,0
5,66,75,0
