track,note,velocity,time
1,75,117,130
1,75,0,55
1,75,113,60
1,75,0,55
1,75,110,65
1,75,0,49
1,75,113,70
1,75,0,50
1,75,107,71
1,75,0,64
1,73,113,56
1,75,97,115
1,73,0,20
1,75,0,24
1,76,120,21
1,76,0,54
1,76,120,121
1,76,0,45
1,76,117,9
1,76,0,50
1,76,123,69
1,76,0,56
1,76,117,65
1,76,0,45
1,76,104,20
1,76,0,25
1,76,120,40
1,76,0,35
1,76,110,5
1,76,0,44
1,75,117,30
1,75,0,110
1,75,120,65
1,75,0,56
1,75,120,75
1,75,0,49
1,75,120,11
1,75,0,9
1,75,120,70
1,75,0,44
1,75,101,66
1,75,0,29
1,76,120,40
1,76,0,25
1,76,120,15
1,76,0,39
1,76,123,0
1,76,0,92
1,71,120,10
1,71,0,1
1,75,113,840
1,75,0,55
1,75,113,65
1,75,0,55
1,75,117,59
1,75,0,56
1,75,117,65
1,75,0,55
1,75,110,70
1,75,0,84
1,73,120,36
1,75,97,120
1,73,0,20
1,75,0,24
1,76,123,16
1,76,0,70
1,76,123,110
1,76,0,14
1,76,92,60
1,76,0,30
1,78,120,46
1,80,107,0
1,80,0,20
1,78,0,30
1,80,120,65
1,80,0,65
1,83,101,10
1,83,0,54
1,78,123,5
1,76,101,5
1,76,0,10
1,76,113,41
1,78,0,5
1,76,0,60
1,78,123,50
1,78,0,70
1,78,120,115
1,78,0,49
1,78,123,71
1,78,0,85
1,76,117,20
1,76,0,40
1,78,125,30
1,78,0,55
1,78,123,59
1,78,0,100
1,76,120,91
1,75,70,5
1,75,0,25
1,76,0,4
1,78,125,25
1,78,0,65
1,78,123,56
1,78,0,29
1,83,83,0
1,83,0,9
1,78,107,21
1,76,64,61
1,78,0,20
1,76,0,35
1,73,99,9
1,73,0,45
1,76,110,45
1,76,0,36
1,78,123,25
1,78,0,75
1,78,125,40
1,78,0,5
1,78,113,41
1,76,113,39
1,78,0,11
1,73,117,40
1,76,0,5
1,73,0,32
1,73,110,375
1,73,0,39
1,76,117,20
1,73,53,1
1,73,0,15
1,76,0,9
1,76,97,31
1,76,0,65
1,76,123,45
1,76,0,44
1,73,120,45
1,71,110,10
1,73,0,1
1,71,0,39
1,73,107,0
1,73,0,40
1,73,113,151
1,76,104,26
1,73,0,15
1,76,0,10
1,78,117,20
1,78,0,30
1,78,120,30
1,78,0,5
1,78,97,30
1,76,104,29
1,78,0,20
1,73,107,36
1,76,0,5
1,73,0,49
1,73,107,191
1,76,75,114
1,75,55,6
1,73,0,10
1,75,0,4
1,76,0,21
1,78,120,15
1,78,0,70
1,80,120,60
1,80,0,70
1,81,119,45
1,81,0,59
1,78,123,55
1,78,0,100
1,76,117,0
1,76,0,140
1,78,123,5
1,78,0,4
1,78,110,35
1,76,88,94
1,78,0,16
1,76,0,40
1,73,107,0
1,73,0,65
1,73,99,180
1,71,97,0
1,71,0,20
1,76,104,95
1,73,0,20
1,78,125,40
1,76,0,10
1,78,0,50
1,80,104,50
1,80,0,55
1,83,123,70
1,83,0,55
1,83,123,59
1,83,0,50
1,80,110,10
1,80,0,59
1,80,101,155
1,80,0,40
1,83,123,35
1,83,0,55
1,83,123,56
1,83,0,15
1,78,120,0
1,80,110,0
1,80,0,14
1,83,99,35
1,78,0,5
1,83,0,75
1,78,123,39
1,76,41,74
1,78,0,21
1,76,0,35
1,73,107,0
1,73,0,49
1,73,117,71
1,76,110,120
1,73,0,15
1,76,0,20
1,78,120,25
1,78,0,64
1,80,110,51
1,80,0,149
1,80,78,0
1,80,0,16
1,83,120,35
1,83,0,116
1,85,120,25
1,85,0,64
1,87,113,41
1,87,0,64
1,85,125,51
1,85,114,5
1,85,0,35
1,85,0,5
1,85,107,35
1,85,0,324
1,85,120,5
1,85,0,15
1,78,107,40
1,76,72,76
1,78,0,4
1,78,113,1
1,76,0,10
1,78,0,59
1,78,82,21
1,78,0,6
1,76,110,0
1,76,0,30
1,73,97,0
1,73,0,50
1,73,104,251
1,73,0,55
1,76,104,5
1,76,0,34
1,78,76,16
1,76,42,70
1,78,0,14
1,73,82,30
1,76,0,5
1,73,0,40
1,71,104,31
1,71,0,44
1,73,120,6
1,73,0,60
1,73,117,60
1,73,0,119
1,78,113,1275
1,78,0,4
1,78,94,35
1,76,99,39
1,78,0,6
1,76,0,40
1,73,82,4
1,73,0,41
1,76,123,24
1,73,66,6
1,73,0,10
1,76,0,44
1,78,125,56
1,78,0,170
1,76,113,60
1,76,0,141
1,76,107,10
1,76,0,90
1,73,92,64
1,73,0,46
1,73,110,60
1,73,0,50
1,78,123,74
1,78,0,116
1,83,95,182
1,83,0,48
1,83,114,65
1,85,116,65
1,83,0,21
1,85,0,49
1,88,100,45
1,88,0,15
1,87,116,5
1,87,0,9
1,85,106,15
1,85,0,6
1,85,100,29
1,85,0,59
1,78,116,35
1,78,0,20
1,78,102,3
1,78,0,6
1,76,77,9
1,77,69,1
1,77,0,25
1,76,0,4
1,78,106,18
1,78,0,91
1,76,87,26
1,76,0,39
1,78,106,21
1,78,0,24
1,83,97,43
1,83,0,3
1,78,106,44
1,78,0,33
1,76,45,18
1,76,0,40
1,73,89,4
1,73,0,47
1,73,95,263
1,76,89,60
1,73,0,9
1,76,0,22
1,78,106,18
1,78,0,202
1,83,102,48
1,83,0,108
1,78,106,56
1,78,0,59
1,76,111,5
1,76,0,45
1,76,108,48
1,76,0,20
1,78,106,30
1,78,0,17
1,83,122,28
1,83,0,3
1,78,122,41
1,78,0,63
1,87,106,13
1,87,0,38
1,88,93,18
1,88,0,48
1,87,127,8
1,87,0,53
1,88,122,60
1,88,0,39
1,88,127,30
1,88,0,24
1,88,127,33
1,88,0,51
1,87,127,56
1,87,0,52
1,85,127,74
1,85,0,47
1,83,95,65
1,83,0,39
1,85,127,34
1,85,0,52
1,83,91,57
1,83,0,39
1,85,127,22
1,85,0,38
1,76,93,82
1,78,95,52
1,76,0,9
1,78,0,25
1,76,122,33
1,85,127,72
1,85,0,43
1,76,0,19
1,88,84,1
1,88,0,13
1,90,92,18
1,90,0,63
1,88,82,6
1,85,72,42
1,88,0,2
1,85,0,37
1,87,102,27
1,87,0,39
1,88,91,22
1,87,81,56
1,88,0,30
1,87,0,27
1,85,79,8
1,85,0,35
1,83,93,31
1,84,84,1
1,84,0,34
1,83,0,4
1,85,122,26
1,85,0,52
1,83,77,5
1,83,0,31
1,80,102,5
1,79,70,57
1,80,0,17
1,78,89,23
1,79,0,30
1,78,0,18
1,76,56,21
1,77,69,2
1,77,0,11
1,76,0,4
1,78,95,13
1,78,0,42
1,76,81,10
1,76,0,34
1,73,116,22
1,73,0,48
1,76,91,22
1,76,0,38
1,78,98,22
1,78,0,31
1,78,92,30
1,78,0,43
1,78,122,74
1,78,0,46
1,83,78,3
1,78,106,2
1,83,0,21
1,76,69,3
1,77,70,1
1,78,0,4
1,77,0,13
1,76,0,5
1,73,98,17
1,73,0,69
1,76,110,112
1,76,0,36
1,78,123,25
1,78,0,75
1,78,125,40
1,78,0,5
1,78,113,41
1,76,113,39
1,78,0,11
1,73,117,40
1,76,0,5
1,73,0,45
1,73,110,375
1,73,0,39
1,76,117,20
1,73,53,1
1,73,0,15
1,76,0,9
1,76,97,31
1,76,0,65
1,76,123,55
1,76,0,64
1,73,120,45
1,71,110,34
1,73,0,1
1,71,0,39
1,73,107,16
1,73,0,50
1,73,113,425
1,76,104,50
1,73,0,15
1,76,0,20
1,78,117,20
1,78,0,30
1,78,120,6
1,84,58,26
1,84,0,0
1,83,50,0
1,83,0,0
1,84,47,0
1,84,0,0
1,83,26,0
1,83,0,0
1,88,62,0
1,88,0,0
1,78,0,5
1,78,97,30
1,76,104,29
1,78,0,20
1,73,107,36
1,76,0,5
1,73,0,49
1,73,107,16
1,76,75,74
1,75,55,6
1,73,0,10
1,75,0,4
1,76,0,21
1,78,120,15
1,78,0,70
1,80,120,60
1,80,0,135
1,81,119,2
1,81,0,55
1,78,123,55
1,78,0,100
1,76,117,36
1,76,0,140
1,78,123,25
1,78,0,4
1,78,110,35
1,76,88,94
1,78,0,16
1,76,0,40
1,73,107,0
1,73,0,65
1,73,99,180
1,71,97,0
1,71,0,20
1,76,104,95
1,73,0,20
1,78,125,40
1,76,0,10
1,78,0,50
1,80,104,50
1,80,0,55
1,83,123,70
1,83,0,55
1,83,123,59
1,83,0,50
1,83,93,195
1,83,0,73
1,85,127,18
1,85,0,52
1,86,127,16
1,86,0,230
1,88,118,28
1,85,127,6
1,88,0,18
1,85,0,43
1,83,102,47
1,80,106,63
1,83,0,18
1,80,0,26
1,80,116,498
1,80,0,69
1,83,93,44
1,83,0,90
1,85,95,31
1,85,0,59
1,87,127,56
1,87,0,176
1,87,92,57
1,87,0,3
1,87,127,34
1,87,0,55
1,85,106,17
1,85,0,3
1,87,111,41
1,87,0,64
1,85,122,13
1,85,0,923
1,78,107,7
1,76,72,76
1,78,0,4
1,78,113,1
1,76,0,10
1,78,0,59
1,78,82,21
1,78,0,6
1,76,110,0
1,76,0,30
1,73,97,0
1,73,0,50
1,73,104,251
1,73,0,55
1,76,104,5
1,76,0,34
1,78,76,16
1,76,42,70
1,78,0,14
1,73,82,30
1,76,0,5
1,73,0,40
1,71,104,31
1,71,0,44
1,73,120,6
1,73,0,60
1,73,117,60
1,73,0,119
1,78,113,1275
1,78,0,4
1,78,94,35
1,76,99,39
1,78,0,6
1,76,0,40
1,73,82,4
1,73,0,41
1,76,123,24
1,73,66,6
1,73,0,10
1,76,0,44
1,78,125,56
1,78,0,170
1,76,113,60
1,76,0,141
1,76,107,10
1,76,0,75
1,76,55,0
1,76,0,0
1,76,40,0
1,76,0,0
1,76,48,0
1,76,0,0
1,76,53,0
1,76,0,0
1,76,34,0
1,76,0,0
1,76,55,0
1,76,0,15
1,73,92,64
1,73,0,46
1,73,110,60
1,73,0,50
1,78,123,74
1,78,0,116
1,83,120,180
1,83,0,60
1,83,123,70
1,83,0,30
1,85,117,29
1,85,0,65
1,88,125,51
1,88,0,239
1,76,81,2094
1,78,79,60
1,76,0,9
1,78,0,22
1,78,89,39
1,78,0,85
1,76,97,25
1,76,0,54
1,76,89,450
1,76,0,47
1,78,89,18
1,78,0,30
1,78,86,30
1,78,0,80
1,76,102,30
1,76,0,55
1,76,97,458
1,76,0,47
1,78,92,9
1,78,0,35
1,78,102,30
1,78,0,93
1,76,108,26
1,76,0,4
1,76,100,434
1,76,0,51
1,78,98,10
1,78,0,35
1,78,106,29
1,78,0,77
1,76,127,21
1,76,0,77
1,76,95,449
1,76,0,52
1,78,89,9
1,78,0,30
1,78,122,35
1,78,0,90
1,76,127,25
1,76,0,53
1,76,97,453
1,76,0,44
1,78,127,18
1,78,0,34
1,78,106,30
1,78,0,97
1,76,110,28
1,76,126,3
1,76,0,33
1,78,123,4
1,76,0,63
1,78,0,8
1,78,125,28
1,78,0,5
1,78,113,41
1,76,113,39
1,78,0,11
1,73,117,40
1,76,0,5
1,73,0,45
1,73,110,375
1,73,0,39
1,76,117,20
1,73,53,1
1,73,0,15
1,76,0,9
1,76,97,31
1,76,0,65
1,76,123,55
1,76,0,38
1,73,120,45
1,71,110,34
1,73,0,1
1,71,0,39
1,73,107,16
1,73,0,50
1,73,113,136
1,76,104,50
1,73,0,15
1,76,0,20
1,78,117,20
1,78,0,30
1,78,120,30
1,78,0,5
1,78,97,6
1,76,104,11
1,78,0,20
1,73,107,36
1,76,0,5
1,73,0,49
1,73,107,191
1,76,75,114
1,75,55,6
1,73,0,10
1,75,0,4
1,76,0,21
1,78,120,15
1,78,0,70
1,80,120,30
1,80,0,50
1,81,119,45
1,81,0,69
1,78,123,55
1,78,0,100
1,76,117,36
1,76,0,140
1,78,123,25
1,78,0,4
1,78,110,35
1,76,88,94
1,78,0,16
1,76,0,40
1,73,107,0
1,73,0,65
1,73,99,180
1,71,97,0
1,71,0,20
1,76,104,95
1,73,0,20
1,78,125,40
1,76,0,10
1,78,0,50
1,80,104,50
1,80,0,55
1,83,123,70
1,83,0,55
1,83,123,59
1,83,0,50
1,83,93,195
1,83,0,73
1,85,127,18
1,85,0,52
1,86,127,9
1,86,0,48
1,88,118,28
1,85,127,21
1,88,0,18
1,85,0,43
1,83,102,47
1,80,106,63
1,83,0,18
1,80,0,26
1,80,116,498
1,80,0,69
1,83,93,44
1,83,0,90
1,85,95,31
1,85,0,190
1,87,127,56
1,87,0,176
1,87,92,57
1,87,0,3
1,87,127,34
1,87,0,55
1,85,106,17
1,85,0,3
1,87,111,41
1,87,0,64
1,85,122,13
1,85,0,13
1,78,107,50
1,76,72,76
1,78,0,4
1,78,113,1
1,76,0,10
1,78,0,59
1,78,82,21
1,78,0,6
1,76,110,0
1,76,0,30
1,73,97,0
1,73,0,50
1,73,104,251
1,73,0,55
1,76,104,5
1,76,0,34
1,78,76,16
1,76,42,70
1,78,0,14
1,73,82,30
1,76,0,5
1,73,0,40
1,71,104,31
1,71,0,44
1,73,120,6
1,73,0,60
1,73,117,60
1,73,0,119
1,78,94,35
1,76,99,39
1,78,0,6
1,76,0,40
1,73,82,4
1,73,0,41
1,76,123,24
1,73,66,6
1,73,0,10
1,76,0,44
1,78,125,56
1,78,0,170
1,76,113,60
1,76,0,141
1,76,107,10
1,76,0,90
1,73,92,64
1,73,0,46
1,73,110,60
1,73,0,50
1,78,123,74
1,78,0,116
1,80,79,730
1,80,0,61
1,83,81,0
1,83,0,47
1,85,102,14
1,85,0,65
1,83,102,47
1,83,0,4
1,80,122,128
1,80,0,39
1,82,35,18
1,83,82,1
1,82,0,12
1,83,0,22
1,85,98,26
1,85,0,61
1,83,97,62
1,83,0,17
1,80,127,98
1,80,0,61
1,83,82,1
1,83,0,42
1,85,106,27
1,85,0,56
1,83,102,52
1,83,0,2
1,80,102,134
1,80,0,43
1,83,95,17
1,85,106,56
1,83,0,23
1,85,0,39
1,88,108,52
1,88,0,3
1,88,111,493
1,88,0,77
1,85,111,23
1,85,0,35
1,83,89,34
1,83,0,51
1,80,106,12
1,80,0,39
1,80,127,989
1,83,82,52
1,80,0,12
1,83,0,35
1,85,102,13
1,85,0,62
1,83,108,56
1,83,0,37
1,80,127,132
1,80,0,52
1,83,95,9
1,83,0,44
1,85,102,17
1,85,0,61
1,83,108,51
1,83,0,41
1,80,127,145
1,80,0,52
1,83,71,2
1,83,0,41
1,85,102,23
1,85,0,69
1,83,97,44
1,83,0,3
1,80,127,127
1,80,0,57
1,83,97,5
1,85,102,60
1,83,0,22
1,85,0,35
1,88,118,61
1,88,0,88
1,88,102,465
1,87,127,9
1,88,0,9
1,85,127,52
1,87,0,1
1,85,0,60
1,85,106,60
1,85,0,48
1,83,81,13
1,84,93,1
1,84,0,38
1,80,127,9
1,83,0,26
1,80,0,18
1,83,127,271
1,83,0,201
1,85,106,44
1,85,0,86
1,88,127,39
1,88,0,86
1,83,127,31
1,83,0,15
1,76,81,554
1,78,79,60
1,76,0,9
1,78,0,22
1,78,89,39
1,78,0,85
1,76,97,25
1,76,0,54
1,76,89,450
1,76,0,47
1,78,89,18
1,78,0,30
1,78,86,30
1,78,0,80
1,76,102,30
1,76,0,55
1,76,97,458
1,76,0,47
1,78,92,9
1,78,0,35
1,78,102,30
1,78,0,93
1,76,108,26
1,76,0,4
1,76,100,434
1,76,0,51
1,78,98,10
1,78,0,35
1,78,106,29
1,78,0,77
1,76,127,21
1,76,0,77
1,76,95,449
1,76,0,52
1,78,89,9
1,78,0,30
1,88,120,751
1,88,0,211
1,83,90,35
1,85,80,4
1,85,0,90
1,83,0,49
1,83,101,51
1,83,0,65
1,78,120,46
1,78,0,5
1,78,120,0
1,76,90,80
1,78,0,20
1,76,0,36
1,73,104,0
1,75,83,5
1,75,0,24
1,73,0,21
1,73,110,260
1,73,0,55
1,76,110,5
1,73,45,0
1,73,0,24
1,76,0,6
1,78,117,30
1,78,0,60
1,78,123,50
1,78,0,1
1,83,66,16
1,83,0,5
