track,note,velocity,time
0,57,96,290
0,42,80,10
0,90,55,0
0,36,106,0
0,75,48,0
0,57,103,0
0,57,0,5
0,75,0,4
0,57,0,1
0,54,80,3
0,57,109,2
0,61,98,0
0,66,88,1
0,42,61,14
0,42,0,13
0,46,114,17
0,46,0,30
0,75,69,0
0,81,74,0
0,75,0,5
0,81,0,5
0,66,61,1
0,69,87,13
0,73,84,6
0,39,83,0
0,40,98,0
0,42,76,0
0,42,0,18
0,36,0,22
0,40,0,10
0,39,0,3
0,42,0,17
0,37,80,20
0,61,95,0
0,36,87,0
0,36,0,15
0,37,0,9
0,42,80,6
0,69,84,0
0,36,103,0
0,42,50,0
0,61,0,5
0,42,0,10
0,42,0,9
0,68,81,3
0,44,80,3
0,69,0,1
0,44,0,23
0,68,0,4
0,45,80,2
0,69,89,0
0,42,37,0
0,42,0,13
0,50,70,17
0,50,0,15
0,54,127,15
0,42,59,0
0,54,0,8
0,42,0,2
0,36,0,0
0,69,0,12
0,36,107,8
0,73,0,3
0,66,0,1
0,69,0,6
0,36,0,3
0,45,0,5
0,49,80,12
0,36,106,0
0,61,71,26
0,36,0,2
0,61,0,6
0,57,0,1
0,49,0,13
0,66,0,2
0,61,0,10
0,47,80,0
0,66,79,0
0,59,106,0
0,62,109,0
0,75,85,0
0,42,1,0
0,36,108,0
0,44,127,0
0,62,106,1
0,59,85,0
0,44,0,4
0,75,0,0
0,42,0,5
0,42,84,20
0,66,46,1
0,42,0,9
0,71,84,19
0,46,112,1
0,81,84,30
0,75,81,0
0,74,82,4
0,75,0,1
0,81,0,5
0,46,0,0
0,39,85,20
0,40,96,0
0,42,76,0
0,42,0,15
0,54,0,3
0,40,0,15
0,39,0,5
0,62,0,14
0,36,0,6
0,66,0,1
0,71,0,0
0,74,0,4
0,47,0,7
0,62,0,15
0,62,90,1
0,47,80,4
0,36,95,0
0,59,0,8
0,36,0,2
0,61,106,5
0,62,0,1
0,47,0,8
0,69,97,1
0,66,0,1
0,61,0,4
0,45,80,0
0,36,107,0
0,42,48,0
0,59,122,1
0,73,101,0
0,61,99,2
0,66,87,0
0,57,122,2
0,42,0,10
0,36,0,43
0,78,81,0
0,42,42,2
0,73,0,4
0,42,0,9
0,57,0,8
0,66,0,7
0,36,114,2
0,50,70,0
0,45,0,5
0,50,0,8
0,61,0,3
0,78,0,11
0,71,104,1
0,44,80,2
0,42,59,0
0,54,127,0
0,56,104,3
0,61,87,0
0,66,75,2
0,36,0,5
0,54,0,3
0,42,0,0
0,36,86,17
0,50,80,0
0,36,0,13
0,50,0,5
0,78,104,11
0,48,88,1
0,36,106,0
0,71,0,4
0,44,0,6
0,48,0,5
0,78,0,4
0,56,0,8
0,36,0,1
0,37,80,2
0,44,84,0
0,85,94,6
0,44,0,2
0,59,0,4
0,85,0,3
0,61,0,4
0,66,0,1
0,85,86,0
0,37,0,4
0,85,0,2
0,42,80,4
0,66,89,0
0,57,107,0
0,61,86,0
0,42,68,0
0,36,108,0
0,85,91,0
0,75,78,0
0,44,127,0
0,66,127,1
0,85,0,4
0,69,0,0
0,59,0,1
0,75,0,2
0,44,0,0
0,42,0,2
0,54,80,3
0,42,74,17
0,85,91,0
0,85,0,6
0,42,0,7
0,46,114,17
0,81,80,30
0,75,68,0
0,81,0,8
0,75,0,1
0,66,61,2
0,46,0,9
0,69,87,4
0,73,84,6
0,42,74,0
0,40,97,0
0,39,90,0
0,42,0,15
0,66,0,16
0,40,0,4
0,39,0,0
0,36,0,18
0,42,0,17
0,61,94,16
0,37,80,4
0,36,83,0
0,36,0,13
0,37,0,11
0,42,80,6
0,69,77,0
0,36,109,0
0,42,56,0
0,61,0,1
0,42,0,14
0,42,0,9
0,68,78,2
0,44,80,4
0,69,0,3
0,44,0,21
0,45,80,6
0,42,55,0
0,68,0,1
0,69,100,0
0,42,0,12
0,50,70,17
0,50,0,13
0,54,127,17
0,42,59,0
0,36,0,5
0,54,0,3
0,42,0,12
0,69,0,2
0,36,105,8
0,69,0,2
0,73,0,1
0,66,0,1
0,71,111,3
0,36,0,3
0,45,0,8
0,49,80,12
0,36,103,0
0,36,0,13
0,71,0,2
0,61,0,6
0,73,114,0
0,49,0,3
0,57,0,1
0,45,80,5
0,44,94,0
0,44,0,9
0,66,0,7
0,73,0,6
0,45,0,2
0,47,80,6
0,62,121,0
0,66,84,0
0,59,121,0
0,36,110,0
0,44,127,0
0,42,60,0
0,75,75,0
0,59,85,1
0,44,0,4
0,74,119,0
0,42,0,3
0,75,0,1
0,42,55,21
0,66,46,1
0,42,0,9
0,71,84,19
0,81,99,1
0,46,109,0
0,81,0,8
0,75,92,22
0,74,82,4
0,75,0,4
0,46,0,15
0,61,95,7
0,42,63,0
0,40,98,0
0,39,86,0
0,42,0,15
0,54,0,3
0,47,0,6
0,59,96,7
0,39,0,4
0,61,0,0
0,40,0,0
0,71,0,24
0,66,0,0
0,45,80,1
0,74,0,3
0,36,0,2
0,57,102,0
0,59,0,1
0,62,0,9
0,45,0,9
0,59,0,2
0,47,80,4
0,36,102,0
0,74,0,1
0,66,0,12
0,36,0,0
0,57,0,3
0,59,116,4
0,66,89,2
0,61,119,1
0,57,122,0
0,47,0,1
0,73,102,2
0,49,80,4
0,36,116,0
0,42,64,0
0,73,101,1
0,42,0,9
0,36,0,38
0,59,0,0
0,61,84,0
0,78,81,10
0,42,60,2
0,73,0,4
0,42,0,6
0,49,0,0
0,57,0,8
0,59,117,4
0,61,0,2
0,49,80,6
0,36,119,0
0,50,70,0
0,66,0,5
0,50,0,8
0,57,96,5
0,61,0,1
0,49,0,5
0,78,0,3
0,59,0,1
0,71,104,0
0,50,80,2
0,57,114,0
0,54,127,0
0,42,60,0
0,73,0,1
0,61,91,1
0,56,125,1
0,71,95,2
0,66,92,0
0,54,0,3
0,36,0,0
0,42,0,2
0,36,98,20
0,50,86,0
0,36,0,10
0,50,0,5
0,50,0,3
0,78,104,11
0,49,80,1
0,48,83,0
0,36,103,0
0,56,122,1
0,71,0,3
0,57,0,2
0,48,0,9
0,78,0,4
0,49,0,5
0,36,0,1
0,71,0,5
0,47,80,0
0,44,97,0
0,85,84,2
0,56,0,2
0,44,0,5
0,85,0,2
0,59,0,1
0,61,0,0
0,85,104,3
0,85,0,6
0,66,0,0
0,47,0,3
0,42,80,6
0,66,101,0
0,42,68,0
0,75,85,0
0,44,117,0
0,36,116,0
0,85,68,0
0,85,0,0
0,85,84,0
0,57,124,3
0,61,99,0
0,55,84,0
0,44,0,2
0,66,90,0
0,54,65,0
0,75,0,3
0,85,0,2
0,42,0,0
0,55,0,1
0,56,0,1
0,54,125,11
0,57,0,5
0,85,84,2
0,42,74,0
0,85,0,8
0,42,0,5
0,46,114,17
0,66,43,5
0,81,74,25
0,75,79,0
0,69,62,3
0,75,0,6
0,81,0,1
0,46,0,10
0,39,84,10
0,40,89,0
0,42,74,0
0,73,83,1
0,42,0,14
0,54,0,7
0,42,0,2
0,39,0,4
0,40,0,2
0,36,0,25
0,42,80,5
0,42,0,24
0,42,80,6
0,36,95,0
0,36,0,13
0,42,0,11
0,42,80,6
0,42,56,0
0,36,117,0
0,42,0,15
0,42,55,45
0,42,0,13
0,50,70,17
0,42,0,5
0,50,0,8
0,54,127,17
0,42,59,0
0,66,0,5
0,54,0,3
0,36,0,10
0,42,0,2
0,69,0,6
0,37,80,4
0,36,98,0
0,50,86,0
0,66,0,3
0,73,0,7
0,36,0,3
0,54,0,2
0,50,0,0
0,37,0,9
0,37,80,6
0,48,65,0
0,36,103,0
0,36,0,15
0,48,0,0
0,37,0,9
0,37,80,6
0,44,80,0
0,47,76,0
0,44,0,8
0,47,0,2
0,37,0,14
0,42,80,6
0,42,60,0
0,75,66,0
0,44,109,0
0,36,117,0
0,44,0,5
0,75,0,3
0,42,0,0
0,42,55,22
0,42,0,10
0,46,109,20
0,81,84,30
0,75,65,0
0,75,0,10
0,81,0,0
0,46,0,13
0,66,104,7
0,39,87,0
0,42,63,0
0,40,103,0
0,90,0,4
0,42,0,11
0,42,0,9
0,68,85,2
0,39,0,2
0,66,0,3
0,40,0,2
0,68,0,18
0,42,80,9
0,69,88,0
0,42,0,24
0,69,0,6
0,42,80,0
0,73,112,0
0,73,0,18
0,42,0,6
0,42,80,6
0,78,88,0
0,42,64,0
0,42,0,10
0,66,0,1
0,57,0,0
0,61,0,1
0,36,0,41
0,62,111,4
0,42,60,3
0,42,0,10
0,42,0,25
0,42,60,25
0,54,127,0
0,42,0,10
0,54,0,3
0,78,0,2
0,62,0,5
0,42,80,5
0,42,68,0
0,75,71,0
0,49,92,0
0,36,108,0
0,61,125,1
0,57,127,1
0,66,104,1
0,49,0,2
0,75,0,4
0,42,0,1
0,54,127,2
0,42,74,18
0,42,0,13
0,46,114,17
0,75,44,30
0,81,80,0
0,75,0,5
0,81,0,3
0,46,0,12
0,61,80,10
0,42,74,0
0,40,97,0
0,39,90,0
0,42,0,15
0,39,0,20
0,40,0,0
0,61,0,13
0,36,0,5
0,59,80,7
0,42,0,10
0,59,0,14
0,37,80,6
0,59,80,0
0,36,83,0
0,36,0,13
0,37,0,11
0,42,80,6
0,36,109,0
0,42,56,0
0,42,0,15
0,42,0,9
0,44,80,6
0,59,0,18
0,44,0,6
0,45,80,6
0,57,80,0
0,42,55,0
0,54,0,12
0,42,0,1
0,57,0,11
0,57,80,6
0,50,78,0
0,50,0,13
0,54,127,17
0,42,59,0
0,36,0,5
0,54,0,3
0,42,0,12
0,36,105,10
0,36,0,10
0,45,0,8
0,57,0,0
0,49,80,12
0,54,80,0
0,36,103,0
0,54,127,5
0,36,0,8
0,49,0,11
0,54,0,0
0,42,80,6
0,59,80,0
0,44,76,0
0,57,0,2
0,56,112,0
0,61,0,2
0,54,0,1
0,44,0,3
0,62,111,5
0,59,100,2
0,42,0,9
0,56,0,2
0,47,80,4
0,36,110,0
0,44,117,0
0,75,84,0
0,42,60,0
0,57,121,1
0,44,0,4
0,42,0,3
0,75,0,0
0,42,55,22
0,42,0,10
0,59,0,8
0,61,80,12
0,46,109,0
0,81,99,0
0,81,0,8
0,75,76,22
0,75,0,8
0,61,0,10
0,46,0,5
0,59,80,7
0,40,98,0
0,42,63,0
0,39,86,0
0,42,0,15
0,39,0,20
0,40,0,0
0,57,0,4
0,36,0,26
0,47,0,5
0,47,80,20
0,36,102,0
0,59,0,6
0,62,0,3
0,36,0,4
0,61,117,9
0,57,114,1
0,47,0,1
0,45,80,6
0,42,64,0
0,36,116,0
0,61,93,1
0,42,0,9
0,36,0,38
0,66,75,12
0,42,60,0
0,61,0,1
0,42,0,9
0,59,0,0
0,57,0,12
0,36,119,8
0,45,0,5
0,61,0,8
0,66,0,3
0,61,95,11
0,66,0,1
0,66,85,0
0,56,127,0
0,44,80,2
0,59,98,0
0,54,127,0
0,42,60,0
0,54,0,8
0,36,0,0
0,42,0,2
0,36,98,20
0,50,80,0
0,36,0,10
0,50,0,5
0,66,65,13
0,48,69,2
0,36,103,0
0,59,0,8
0,44,0,2
0,48,0,3
0,36,0,12
0,66,0,4
0,37,80,1
0,56,0,2
0,61,0,10
0,66,0,0
0,37,0,12
0,61,92,1
0,57,113,0
0,66,92,1
0,42,80,4
0,42,68,0
0,75,68,0
0,36,108,0
0,54,125,2
0,75,0,7
0,42,0,1
0,42,74,20
0,42,0,13
0,46,114,17
0,81,74,30
0,75,64,0
0,75,0,5
0,81,0,5
0,46,0,10
0,61,80,10
0,42,74,0
0,40,97,0
0,39,90,0
0,42,0,15
0,39,0,20
0,40,0,0
0,61,0,13
0,36,0,5
0,59,80,7
0,42,0,10
0,59,0,14
0,37,80,6
0,59,80,0
0,50,84,0
0,36,83,0
0,36,0,13
0,50,0,0
0,37,0,11
0,42,80,6
0,42,56,0
0,36,109,0
0,42,0,15
0,42,0,9
0,44,80,6
0,59,0,18
0,44,0,6
0,45,80,6
0,57,80,0
0,42,55,0
0,54,0,7
0,42,0,6
0,57,0,11
0,57,80,6
0,42,59,30
0,54,127,0
0,36,0,5
0,54,0,3
0,42,0,12
0,36,105,10
0,36,0,10
0,57,0,8
0,45,0,0
0,49,80,12
0,54,80,0
0,54,117,0
0,36,103,0
0,36,0,13
0,57,0,8
0,54,0,3
0,49,0,0
0,61,0,1
0,42,80,5
0,57,80,0
0,56,109,0
0,44,84,0
0,54,0,3
0,44,0,6
0,66,0,8
0,62,111,4
0,66,49,0
0,59,110,1
0,57,0,2
0,42,0,0
0,56,0,5
0,47,80,1
0,54,80,0
0,36,110,0
0,44,117,0
0,42,60,0
0,75,81,0
0,57,126,1
0,44,0,4
0,42,0,3
0,75,0,2
0,54,0,14
0,54,80,6
0,42,55,0
0,42,0,10
0,46,109,20
0,75,75,30
0,81,84,0
0,75,0,5
0,81,0,5
0,46,0,13
0,39,86,7
0,42,63,0
0,40,98,0
0,42,0,15
0,40,0,20
0,39,0,0
0,57,0,11
0,36,0,19
0,47,0,5
0,47,80,20
0,36,102,0
0,54,0,5
0,62,0,6
0,59,0,1
0,36,0,1
0,47,0,11
0,61,112,4
0,45,80,2
0,61,94,0
0,57,127,0
0,42,64,0
0,36,116,0
0,42,0,10
0,36,0,38
0,42,60,12
0,66,68,1
0,61,0,4
0,45,0,5
0,42,0,0
0,57,0,19
0,45,80,1
0,36,119,0
0,61,0,8
0,66,0,2
0,45,0,14
0,66,0,3
0,66,81,1
0,61,73,0
0,44,80,2
0,59,97,0
0,56,119,0
0,54,127,0
0,42,60,0
0,36,0,8
0,42,0,2
0,54,0,3
0,44,0,11
0,37,80,6
0,36,98,0
0,50,78,0
0,36,0,10
0,50,0,3
0,37,0,11
0,37,80,6
0,48,76,0
0,36,103,0
0,66,92,1
0,59,0,4
0,48,0,5
0,36,0,15
0,56,0,3
0,66,0,3
0,61,0,8
0,66,0,0
0,37,0,9
0,61,95,7
0,57,124,0
0,66,90,1
0,54,80,4
0,75,62,0
0,36,108,0
0,42,68,0
0,54,125,2
0,75,0,3
0,42,0,5
0,54,0,14
0,49,80,6
0,42,74,0
0,42,0,13
0,49,0,11
0,42,80,6
0,46,114,0
0,81,80,30
0,75,70,0
0,75,0,8
0,81,0,0
0,46,0,12
0,61,80,10
0,39,90,0
0,42,74,0
0,40,97,0
0,42,0,15
0,40,0,20
0,39,0,0
0,61,0,13
0,36,0,5
0,59,80,7
0,50,87,0
0,42,0,10
0,50,0,3
0,59,0,11
0,37,80,6
0,59,80,0
0,36,83,0
0,36,0,13
0,37,0,11
0,42,80,6
0,42,56,0
0,36,109,0
0,42,0,15
0,42,0,9
0,44,80,6
0,59,0,18
0,44,0,6
0,45,80,6
0,57,80,0
0,42,55,0
0,42,0,13
0,57,0,11
0,57,80,6
0,54,0,6
0,42,59,24
0,54,127,0
0,36,0,5
0,54,0,3
0,42,0,12
0,36,105,10
0,36,0,10
0,57,0,8
0,45,0,0
0,49,80,12
0,54,80,0
0,36,103,0
0,54,112,1
0,36,0,12
0,49,0,11
0,54,0,0
0,56,98,4
0,42,80,2
0,59,80,0
0,44,82,0
0,54,0,1
0,44,0,4
0,61,0,3
0,57,0,7
0,42,0,9
0,66,0,2
0,56,0,1
0,47,80,3
0,75,68,0
0,36,110,0
0,44,112,0
0,42,60,0
0,57,122,1
0,62,114,1
0,59,117,0
0,66,79,1
0,44,0,2
0,42,0,3
0,75,0,1
0,42,55,21
0,42,0,10
0,59,0,8
0,61,80,12
0,81,99,0
0,46,109,0
0,81,0,8
0,75,76,22
0,75,0,5
0,61,0,13
0,46,0,5
0,59,80,7
0,39,86,0
0,40,98,0
0,42,63,0
0,42,0,15
0,40,0,20
0,39,0,0
0,57,0,27
0,36,0,3
0,47,0,5
0,47,80,20
0,36,102,0
0,59,0,12
0,62,0,0
0,36,0,1
0,47,0,11
0,66,0,0
0,66,50,4
0,45,80,2
0,61,122,0
0,42,64,0
0,36,116,0
0,57,127,1
0,61,93,1
0,42,0,8
0,36,0,38
