track,note,velocity,time
1,61,120,5561
1,61,0,62
1,61,101,28
1,61,0,18
1,61,105,40
1,61,0,28
1,56,99,45
1,56,0,73
1,61,112,23
1,61,0,79
1,63,110,29
1,63,0,18
1,65,120,72
1,61,79,6
1,65,0,7
1,61,0,100
1,56,110,202
1,56,0,67
1,58,92,6
1,58,0,68
1,58,79,22
1,58,0,36
1,61,93,66
1,58,96,7
1,61,0,19
1,58,0,210
1,56,81,17
1,56,0,90
1,58,99,23
1,58,0,84
1,61,103,34
1,61,0,95
1,58,101,73
1,58,0,17
1,56,110,154
1,56,0,84
1,61,107,12
1,61,0,78
1,56,105,12
1,56,0,79
1,61,112,23
1,61,0,7
1,61,114,55
1,61,0,84
1,63,107,29
1,63,0,95
1,65,112,67
1,65,0,209
1,61,96,6
1,61,0,13
1,56,103,115
1,56,0,84
1,58,89,12
1,58,0,73
1,56,84,11
1,56,0,68
1,58,89,29
1,58,0,0
1,56,79,18
1,56,0,84
1,58,88,6
1,58,0,96
1,61,91,18
1,61,0,100
1,58,91,79
1,58,0,123
1,56,103,61
1,56,0,95
1,58,96,12
1,58,0,85
1,56,101,6
1,56,0,62
1,61,123,40
1,61,0,2
1,61,123,426
1,61,0,56
1,63,120,45
1,63,0,18
1,63,123,393
1,63,0,57
1,65,112,44
1,64,72,7
1,64,0,7
1,65,0,6
1,61,91,6
1,61,0,44
1,65,103,278
1,63,99,1
1,63,0,41
1,65,0,23
1,66,99,33
1,66,0,1
1,61,71,7
1,61,0,143
1,61,120,164
1,61,0,78
1,63,96,28
1,63,0,73
1,61,105,22
1,61,0,51
1,65,107,45
1,65,0,285
1,61,105,22
1,61,0,89
1,63,93,18
1,63,0,84
1,56,105,110
1,56,0,84
1,58,95,6
1,58,0,73
1,61,107,18
1,61,0,62
1,61,77,28
1,61,0,85
1,58,84,17
1,58,0,79
1,61,98,29
1,61,0,73
1,63,103,39
1,63,0,112
1,61,120,55
1,61,0,170
1,61,120,925
1,61,0,62
1,61,101,28
1,61,0,18
1,61,105,40
1,61,0,28
1,56,99,45
1,56,0,73
1,61,112,23
1,61,0,79
1,63,110,29
1,63,0,18
1,65,120,72
1,61,79,6
1,65,0,7
1,61,0,100
1,56,110,202
1,56,0,67
1,58,92,6
1,58,0,68
1,58,79,22
1,58,0,36
1,61,93,66
1,58,96,7
1,61,0,19
1,58,0,210
1,56,81,17
1,56,0,90
1,58,99,23
1,58,0,84
1,61,103,34
1,61,0,95
1,58,101,73
1,58,0,17
1,56,110,154
1,56,0,84
1,61,107,12
1,61,0,78
1,56,105,12
1,56,0,79
1,61,112,23
1,61,0,7
1,61,114,55
1,61,0,84
1,63,107,29
1,63,0,95
1,65,112,67
1,65,0,209
1,61,96,6
1,61,0,13
1,56,103,115
1,56,0,84
1,58,89,12
1,58,0,73
1,56,84,11
1,56,0,68
1,58,89,29
1,58,0,18
1,56,79,18
1,56,0,84
1,58,88,6
1,58,0,96
1,61,91,18
1,61,0,100
1,58,91,79
1,58,0,123
1,56,103,61
1,56,0,95
1,58,96,12
1,58,0,85
1,56,101,6
1,56,0,62
1,61,123,40
1,61,0,2
1,61,123,426
1,61,0,56
1,63,120,45
1,63,0,18
1,63,123,393
1,63,0,57
1,65,112,44
1,64,72,7
1,64,0,7
1,65,0,6
1,61,91,6
1,61,0,44
1,65,103,278
1,63,99,1
1,63,0,41
1,65,0,23
1,66,99,33
1,66,0,1
1,61,71,7
1,61,0,143
1,61,120,164
1,61,0,78
1,63,96,28
1,63,0,73
1,61,105,22
1,61,0,51
1,65,107,45
1,65,0,285
1,61,105,22
1,61,0,89
1,63,93,18
1,63,0,84
1,56,105,110
1,56,0,84
1,58,95,6
1,58,0,73
1,61,107,18
1,61,0,62
1,61,77,28
1,61,0,85
1,58,84,17
1,58,0,79
1,61,98,29
1,61,0,73
1,63,103,39
1,63,0,112
1,61,120,55
1,61,0,170
1,70,123,926
1,70,0,1
1,73,126,34
1,73,0,230
1,70,110,17
1,70,0,62
1,73,117,28
1,73,0,12
1,75,120,40
1,75,0,29
1,76,117,66
1,76,0,12
1,73,105,1
1,73,0,138
1,68,126,236
1,68,0,66
1,68,126,83
1,68,0,51
1,68,126,82
1,68,0,12
1,70,126,72
1,70,0,12
1,73,123,39
1,72,93,1
1,72,0,1
1,73,0,56
1,70,126,78
1,70,0,1
1,70,123,299
1,70,0,12
1,73,126,72
1,73,0,203
1,70,114,45
1,70,0,56
1,77,120,40
1,77,0,111
1,77,123,87
1,77,0,1
1,75,103,33
1,75,0,17
1,73,120,45
1,73,0,12
1,75,126,224
1,75,0,18
1,75,126,88
1,75,0,12
1,77,123,72
1,77,0,13
1,78,126,72
1,78,0,72
1,77,123,61
1,77,0,39
1,75,126,67
1,75,0,17
1,61,120,279
1,61,0,62
1,61,101,28
1,61,0,18
1,61,105,40
1,61,0,28
1,56,99,45
1,56,0,73
1,61,112,23
1,61,0,79
1,63,110,29
1,63,0,18
1,65,120,72
1,61,79,6
1,65,0,7
1,61,0,100
1,56,110,202
1,56,0,67
1,58,92,6
1,58,0,68
1,58,79,22
1,58,0,36
1,61,93,66
1,58,96,7
1,61,0,19
1,58,0,210
1,56,81,17
1,56,0,90
1,58,99,23
1,58,0,84
1,61,103,34
1,61,0,95
1,58,101,73
1,58,0,17
1,56,110,154
1,56,0,84
1,61,107,12
1,61,0,78
1,56,105,12
1,56,0,79
1,61,112,23
1,61,0,7
1,61,114,55
1,61,0,84
1,63,107,29
1,63,0,95
1,65,112,67
1,65,0,209
1,61,96,6
1,61,0,13
1,56,103,115
1,56,0,84
1,58,89,12
1,58,0,73
1,56,84,11
1,56,0,68
1,58,89,29
1,58,0,18
1,56,79,18
1,56,0,84
1,58,88,6
1,58,0,96
1,61,91,18
1,61,0,100
1,58,91,79
1,58,0,123
1,56,103,61
1,56,0,95
1,58,96,12
1,58,0,85
1,56,101,6
1,56,0,62
1,61,123,40
1,61,0,2
1,61,123,426
1,61,0,56
1,63,120,45
1,63,0,18
1,63,123,393
1,63,0,57
1,65,112,44
1,64,72,7
1,64,0,7
1,65,0,6
1,61,91,6
1,61,0,44
1,65,103,278
1,63,99,1
1,63,0,41
1,65,0,23
1,66,99,33
1,66,0,1
1,61,71,7
1,61,0,143
1,61,120,164
1,61,0,78
1,63,96,28
1,63,0,73
1,61,105,22
1,61,0,51
1,65,107,45
1,65,0,285
1,61,105,22
1,61,0,89
1,63,93,18
1,63,0,84
1,56,105,110
1,56,0,84
1,58,95,6
1,58,0,73
1,61,107,18
1,61,0,62
1,61,77,28
1,61,0,85
1,58,84,17
1,58,0,79
1,61,98,29
1,61,0,73
1,63,103,39
1,63,0,112
1,61,120,55
1,61,0,170
1,61,120,13213
1,61,0,62
1,61,101,28
1,61,0,18
1,61,105,40
1,61,0,28
1,56,99,45
1,56,0,73
1,61,112,23
1,61,0,79
1,63,110,29
1,63,0,18
1,65,120,72
1,61,79,6
1,65,0,7
1,61,0,100
1,56,110,202
1,56,0,67
1,58,92,6
1,58,0,68
1,58,79,22
1,58,0,36
1,61,93,66
1,58,96,7
1,61,0,19
1,58,0,210
1,56,81,17
1,56,0,90
1,58,99,23
1,58,0,84
1,61,103,34
1,61,0,95
1,58,101,73
1,58,0,17
1,56,110,154
1,56,0,84
1,61,107,12
1,61,0,78
1,56,105,12
1,56,0,79
1,61,112,23
1,61,0,7
1,61,114,55
1,61,0,84
1,63,107,29
1,63,0,95
1,65,112,67
1,65,0,209
1,61,96,6
1,61,0,13
1,56,103,115
1,56,0,84
1,58,89,12
1,58,0,73
1,56,84,11
1,56,0,68
1,58,89,29
1,58,0,18
1,56,79,18
1,56,0,84
1,58,88,6
1,58,0,96
1,61,91,18
1,61,0,100
1,58,91,79
1,58,0,123
1,56,103,61
1,56,0,95
1,58,96,12
1,58,0,85
1,56,101,6
1,56,0,62
1,61,123,40
1,61,0,2
1,61,123,426
1,61,0,56
1,63,120,45
1,63,0,18
1,63,123,393
1,63,0,57
1,65,112,44
1,64,72,7
1,64,0,7
1,65,0,6
1,61,91,6
1,61,0,44
1,65,103,278
1,63,99,1
1,63,0,41
1,65,0,23
1,66,99,33
1,66,0,1
1,61,71,7
1,61,0,143
1,61,120,164
1,61,0,78
1,63,96,28
1,63,0,73
1,61,105,22
1,61,0,51
1,65,107,45
1,65,0,285
1,61,105,22
1,61,0,89
1,63,93,18
1,63,0,84
1,56,105,110
1,56,0,84
1,58,95,6
1,58,0,73
1,61,107,18
1,61,0,62
1,61,77,28
1,61,0,85
1,58,84,17
1,58,0,79
1,61,98,29
1,61,0,73
1,63,103,39
1,63,0,112
1,61,120,55
1,61,0,170
1,70,123,926
1,70,0,1
1,73,126,34
1,73,0,230
1,70,110,17
1,70,0,62
1,73,117,28
1,73,0,12
1,75,120,40
1,75,0,29
1,76,117,66
1,76,0,12
1,73,105,1
1,73,0,138
1,68,126,236
1,68,0,66
1,68,126,83
1,68,0,51
1,68,126,82
1,68,0,12
1,70,126,72
1,70,0,12
1,73,123,39
1,72,93,1
1,72,0,1
1,73,0,56
1,70,126,78
1,70,0,1
1,70,123,299
1,70,0,12
1,73,126,72
1,73,0,203
1,70,114,45
1,70,0,56
1,77,120,40
1,77,0,111
1,77,123,87
1,77,0,1
1,75,103,33
1,75,0,17
1,73,120,45
1,73,0,12
1,75,126,224
1,75,0,18
1,75,126,88
1,75,0,12
1,77,123,72
1,77,0,13
1,78,126,72
1,78,0,72
1,77,123,61
1,77,0,39
1,75,126,67
1,75,0,17
1,61,120,279
1,61,0,62
1,61,101,28
1,61,0,18
1,61,105,40
1,61,0,28
1,56,99,45
1,56,0,73
1,61,112,23
1,61,0,79
1,63,110,29
1,63,0,18
1,65,120,72
1,61,79,6
1,65,0,7
1,61,0,100
1,56,110,202
1,56,0,67
1,58,92,6
1,58,0,68
1,58,79,22
1,58,0,36
1,61,93,66
1,58,96,7
1,61,0,19
1,58,0,210
1,56,81,17
1,56,0,90
1,58,99,23
1,58,0,84
1,61,103,34
1,61,0,95
1,58,101,73
1,58,0,17
1,56,110,154
1,56,0,84
1,61,107,12
1,61,0,78
1,56,105,12
1,56,0,79
1,61,112,23
1,61,0,7
1,61,114,55
1,61,0,84
1,63,107,29
1,63,0,95
1,65,112,67
1,65,0,209
1,61,96,6
1,61,0,13
1,56,103,115
1,56,0,84
1,58,89,12
1,58,0,73
1,56,84,11
1,56,0,68
1,58,89,29
1,58,0,18
1,56,79,18
1,56,0,84
1,58,88,6
1,58,0,96
1,61,91,18
1,61,0,100
1,58,91,79
1,58,0,123
1,56,103,61
1,56,0,95
1,58,96,12
1,58,0,85
1,56,101,6
1,56,0,62
1,61,123,40
1,61,0,2
1,61,123,426
1,61,0,56
1,63,120,45
1,63,0,18
1,63,123,393
1,63,0,57
1,65,112,44
1,64,72,7
1,64,0,7
1,65,0,6
1,61,91,6
1,61,0,44
1,65,103,278
1,65,0,65
1,66,99,33
1,66,0,1
1,61,71,7
1,61,0,143
1,61,120,164
1,61,0,78
1,63,96,28
1,63,0,73
1,61,105,22
1,61,0,51
1,65,107,45
1,65,0,285
1,61,105,22
1,61,0,89
1,63,93,18
1,63,0,84
1,56,105,110
1,56,0,84
1,58,95,6
1,58,0,73
1,61,107,18
1,61,0,62
1,61,77,28
1,61,0,85
1,58,84,17
1,58,0,79
1,61,98,29
1,61,0,73
1,63,103,39
1,63,0,112
1,61,120,55
1,61,0,170
2,49,94,2304
2,49,0,158
2,49,100,130
2,49,0,78
2,49,94,18
2,49,0,160
2,48,93,32
2,48,0,144
2,46,95,48
2,46,0,171
2,46,103,117
2,46,0,77
2,46,88,19
2,46,0,171
2,48,93,21
2,48,0,149
2,49,93,43
2,49,0,154
2,49,99,134
2,49,0,84
2,49,88,12
2,49,0,138
2,48,93,54
2,48,0,123
2,46,97,69
2,46,0,176
2,46,107,112
2,46,0,73
2,46,93,23
2,46,0,138
2,44,94,54
2,44,0,178
2,37,92,14
2,37,0,182
2,37,98,106
2,37,0,83
2,37,90,13
2,37,0,134
2,44,98,58
2,44,0,149
2,37,95,43
2,37,0,188
2,37,99,100
2,37,0,83
2,37,91,13
2,37,0,144
2,44,93,48
2,44,0,145
2,46,92,47
2,46,0,172
2,46,104,116
2,46,0,83
2,46,100,13
2,46,0,133
2,41,97,59
2,41,0,143
2,46,100,49
2,46,0,166
2,46,107,122
2,46,0,83
2,46,95,13
2,46,0,149
2,41,98,43
2,41,0,138
2,37,101,54
2,37,0,182
2,37,101,106
2,37,0,84
2,37,91,12
2,37,0,127
2,44,101,65
2,44,0,166
2,37,98,26
2,37,0,177
2,37,101,111
2,37,0,72
2,37,92,24
2,37,0,139
2,44,98,53
2,44,0,144
2,46,96,48
2,46,0,198
2,46,110,90
2,46,0,89
2,46,100,7
2,46,0,143
2,41,98,49
2,41,0,117
2,46,106,75
2,46,0,171
2,46,111,117
2,46,0,88
2,46,103,8
2,46,0,154
2,41,103,38
2,41,0,144
2,49,111,240
2,49,0,67
2,49,108,29
2,49,0,94
2,49,115,194
2,49,0,77
2,44,117,307
2,44,0,79
2,44,103,17
2,44,0,40
2,44,115,198
2,44,0,94
2,37,115,290
2,37,0,73
2,37,103,23
2,37,0,89
2,37,118,199
2,37,0,99
2,42,117,285
2,42,0,78
2,42,99,18
2,42,0,90
2,42,118,198
2,42,0,100
2,37,108,92
2,37,0,209
2,41,95,79
2,41,0,34
2,46,99,62
2,46,0,264
2,39,103,120
2,39,0,203
2,42,98,85
2,42,0,67
2,44,95,29
2,44,0,159
2,42,95,33
2,42,0,139
2,37,98,53
2,37,0,204
2,41,98,84
2,41,0,78
2,44,95,18
2,44,0,149
2,42,94,43
2,42,0,121
2,44,109,71
2,44,0,77
2,44,110,19
2,44,0,83
2,44,94,13
2,44,0,78
2,44,101,18
2,44,0,78
2,44,90,18
2,44,0,72
2,44,94,24
2,44,0,78
2,44,89,18
2,44,0,78
2,44,97,18
2,44,0,62
2,37,92,34
2,37,0,182
2,37,98,106
2,37,0,83
2,37,90,13
2,37,0,134
2,44,98,58
2,44,0,149
2,37,95,43
2,37,0,188
2,37,99,100
2,37,0,83
2,37,91,13
2,37,0,144
2,44,93,48
2,44,0,145
2,46,92,47
2,46,0,172
2,46,104,116
2,46,0,83
2,46,100,13
2,46,0,133
2,41,97,59
2,41,0,143
2,46,100,49
2,46,0,166
2,46,107,122
2,46,0,83
2,46,95,13
2,46,0,149
2,41,98,43
2,41,0,138
2,37,101,54
2,37,0,182
2,37,101,106
2,37,0,84
2,37,91,12
2,37,0,127
2,44,101,65
2,44,0,166
2,37,98,26
2,37,0,177
2,37,101,111
2,37,0,72
2,37,92,24
2,37,0,139
2,44,98,53
2,44,0,144
2,46,96,48
2,46,0,198
2,46,110,90
2,46,0,89
2,46,100,7
2,46,0,143
2,41,98,49
2,41,0,117
2,46,106,75
2,46,0,171
2,46,111,117
2,46,0,88
2,46,103,8
2,46,0,154
2,41,103,38
2,41,0,144
2,49,111,240
2,49,0,67
2,49,108,29
2,49,0,94
2,49,115,194
2,49,0,77
2,44,117,307
2,44,0,79
2,44,103,17
2,44,0,40
2,44,115,198
2,44,0,94
2,37,115,290
2,37,0,73
2,37,103,23
2,37,0,89
2,37,118,199
2,37,0,99
2,42,117,285
2,42,0,78
2,42,99,18
2,42,0,90
2,42,118,198
2,42,0,100
2,37,108,92
2,37,0,209
2,41,95,79
2,41,0,34
2,46,99,62
2,46,0,264
2,39,103,120
2,39,0,203
2,42,98,85
2,42,0,67
2,44,95,29
2,44,0,159
2,42,95,33
2,42,0,139
2,37,98,53
2,37,0,204
2,41,98,84
2,41,0,78
2,44,95,18
2,44,0,149
2,42,94,43
2,42,0,121
2,37,109,71
2,37,0,77
2,44,110,19
2,44,0,83
2,37,94,13
2,37,0,78
2,44,101,18
2,44,0,78
2,37,90,18
2,37,0,72
2,44,94,24
2,44,0,78
2,37,89,18
2,37,0,78
2,44,97,18
2,44,0,62
