track,note,velocity,time
1,36,82,480
1,42,55,120
1,36,0,29
1,36,91,31
1,42,0,119
1,42,85,61
1,36,0,59
1,36,62,31
1,36,0,29
1,36,82,1
1,42,0,59
1,36,0,60
1,42,82,1
1,36,102,60
1,42,0,119
1,42,54,61
1,36,0,59
1,36,98,61
1,42,0,59
1,36,0,60
1,42,70,1
1,36,91,60
1,42,0,119
1,42,100,61
1,36,0,29
1,36,55,61
1,36,0,29
1,36,100,1
1,42,0,89
1,36,0,30
1,42,102,1
1,36,95,60
1,42,0,119
1,42,74,61
1,42,0,59
1,36,0,0
1,36,76,61
1,36,0,119
1,38,60,1
1,42,64,0
1,36,95,60
1,38,0,119
1,42,0,30
1,38,62,31
1,42,102,0
1,36,0,29
1,36,47,61
1,36,0,29
1,36,107,1
1,42,0,59
1,38,0,30
1,38,66,31
1,42,98,0
1,36,0,29
1,36,98,31
1,42,0,119
1,38,0,30
1,38,63,31
1,42,82,0
1,36,0,59
1,36,100,61
1,42,0,89
1,38,0,0
1,38,56,31
1,42,105,0
1,36,0,29
1,36,80,31
1,38,0,119
1,42,0,30
1,38,66,31
1,42,107,0
1,36,0,59
1,36,51,31
1,36,0,29
1,36,105,1
1,42,0,89
1,38,0,0
1,38,64,31
1,42,107,0
1,36,0,29
1,36,100,31
1,42,0,119
1,38,0,30
1,38,68,31
1,42,105,0
1,36,0,89
1,36,95,31
1,42,0,89
1,38,0,0
1,38,58,31
1,42,107,0
1,36,0,29
1,36,102,31
1,38,0,119
1,42,0,30
1,38,58,31
1,42,110,0
1,36,0,59
1,36,62,31
1,36,0,29
1,36,98,1
1,42,0,89
1,38,0,0
1,38,53,31
1,42,102,0
1,36,0,29
1,36,98,31
1,38,0,119
1,42,0,30
1,38,53,31
1,42,105,0
1,36,0,89
1,36,102,31
1,42,0,89
1,38,0,0
1,38,53,31
1,42,107,0
1,36,0,29
1,36,102,31
1,38,0,119
1,42,0,30
1,38,46,31
1,42,105,0
1,36,0,59
1,36,59,31
1,36,0,29
1,36,95,1
1,38,0,59
1,42,0,30
1,38,59,31
1,42,107,0
1,38,0,29
1,36,0,0
1,36,95,31
1,42,0,119
1,36,0,30
1,38,45,31
1,42,107,0
1,38,0,59
1,42,0,60
1,41,110,1
1,38,127,0
1,50,119,0
1,48,122,0
1,42,87,0
1,48,127,0
1,41,119,0
1,42,0,29
1,48,0,0
1,41,0,0
1,38,0,0
1,48,0,30
1,41,0,0
1,50,0,0
1,50,119,61
1,50,0,29
1,48,105,1
1,48,0,29
1,41,102,1
1,41,0,29
1,36,107,1
1,36,0,29
1,36,122,1
1,42,82,0
1,42,0,29
1,42,57,31
1,42,0,29
1,36,0,30
1,38,110,1
1,42,66,0
1,42,0,29
1,38,0,30
1,36,127,1
1,42,116,0
1,42,0,29
1,42,25,31
1,42,0,29
1,42,62,31
1,42,0,29
1,36,0,30
1,38,110,1
1,42,89,0
1,42,0,29
1,38,0,0
1,36,127,31
1,42,58,0
1,42,0,29
1,42,70,31
1,42,0,29
1,42,87,31
1,42,0,29
1,36,0,30
1,38,113,1
1,42,100,0
1,42,0,29
1,48,116,1
1,48,0,29
1,42,68,1
1,45,91,0
1,45,0,29
1,42,0,0
1,38,0,0
1,36,91,1
1,44,91,0
1,44,0,29
1,36,0,0
1,36,127,1
1,42,105,0
1,42,0,29
1,42,60,31
1,42,0,29
1,36,0,30
1,38,122,1
1,42,110,0
1,42,0,29
1,38,0,0
1,36,122,31
1,42,107,0
1,42,0,29
1,42,57,31
1,42,0,29
1,42,74,31
1,42,0,29
1,36,0,30
1,38,116,1
1,42,105,0
1,42,0,29
1,38,0,0
1,36,127,31
1,42,91,0
1,42,0,29
1,44,107,1
1,44,0,29
1,42,76,1
1,42,0,29
1,42,72,31
1,42,0,29
1,36,0,30
1,38,116,1
1,42,113,0
1,42,0,29
1,38,0,0
1,36,127,31
1,42,107,0
1,42,0,29
1,42,98,31
1,42,0,29
1,42,74,31
1,42,0,29
1,36,0,30
1,38,110,1
1,42,105,0
1,42,0,29
1,46,85,1
1,48,100,0
1,48,0,29
1,46,0,0
1,38,0,0
1,44,52,1
1,45,100,0
1,45,0,29
1,44,0,0
1,36,49,1
1,46,59,0
1,41,110,0
1,41,0,29
1,46,0,0
1,36,0,0
1,36,127,1
1,42,119,0
1,90,102,0
1,90,0,29
1,42,0,0
1,42,105,31
1,42,0,29
1,36,0,30
1,38,113,1
1,42,119,0
1,42,0,29
1,38,0,0
1,36,127,31
1,42,116,0
1,42,0,29
1,42,59,31
1,42,0,29
1,42,107,31
1,42,0,29
1,36,0,30
1,38,119,1
1,42,89,0
1,42,0,29
1,38,0,0
1,36,127,31
1,44,110,0
1,44,0,29
1,42,110,31
1,42,0,29
1,42,105,31
1,42,0,29
1,36,0,30
1,38,87,1
1,42,110,0
1,42,0,29
1,38,0,0
1,36,127,31
1,42,110,0
1,42,0,29
1,42,68,31
1,42,0,29
1,42,98,31
1,42,0,29
1,36,0,30
1,38,122,1
1,42,66,0
1,48,127,0
1,48,0,29
1,42,0,0
1,44,100,1
1,45,76,0
1,45,0,29
1,44,0,0
1,38,0,0
1,42,82,1
1,42,0,29
1,36,66,1
1,41,87,0
1,41,0,29
1,36,0,0
1,36,107,1
1,42,105,0
1,90,51,0
1,90,0,29
1,42,0,0
1,42,110,31
1,42,0,29
1,36,0,0
1,38,127,31
1,45,61,0
1,42,113,0
1,42,0,29
1,45,0,0
1,38,0,0
1,36,110,31
1,42,107,0
1,42,0,29
1,42,110,31
1,42,0,29
1,42,72,31
1,42,0,29
1,36,0,30
1,38,98,1
1,42,105,0
1,42,0,29
1,42,85,31
1,42,0,29
1,38,0,0
1,46,107,1
1,46,0,29
1,36,127,1
1,42,98,0
1,42,0,29
1,42,102,31
1,42,0,29
1,36,0,30
1,38,116,1
1,42,110,0
1,42,0,29
1,38,0,0
1,36,127,31
1,42,93,0
1,42,0,29
1,42,105,31
1,42,0,29
1,42,54,31
1,42,0,29
1,48,119,1
1,48,0,29
1,36,0,0
1,38,127,1
1,42,82,0
1,45,113,0
1,45,0,29
1,42,0,0
1,38,0,30
1,42,74,1
1,41,85,0
1,41,0,29
1,42,0,0
1,46,62,1
1,46,0,29
1,36,80,1
1,42,105,0
1,90,100,0
1,90,0,29
1,42,0,0
1,36,0,90
1,42,98,1
1,36,95,60
1,42,0,29
1,42,98,31
1,42,0,59
1,42,80,61
1,42,0,29
1,36,0,0
1,36,47,61
1,36,0,29
1,36,119,1
1,42,87,0
1,42,0,119
1,36,0,0
1,42,56,1
1,36,95,60
1,42,0,29
1,42,95,31
1,42,0,89
1,42,58,31
1,42,0,59
1,36,0,30
1,36,78,31
1,42,76,0
1,42,0,89
1,38,60,31
1,42,64,0
1,36,0,29
1,42,0,30
1,36,80,1
1,42,76,60
1,42,0,29
1,38,0,30
1,38,62,61
1,42,105,0
1,36,0,59
1,42,0,30
1,36,40,1
1,36,0,29
1,36,102,1
1,42,107,0
1,42,0,59
1,38,0,30
1,38,53,31
1,42,70,0
1,36,0,29
1,42,0,30
1,36,102,1
1,42,72,60
1,42,0,59
1,38,0,0
1,38,57,61
1,42,80,0
1,42,0,29
1,36,0,30
1,36,55,1
1,44,53,0
1,44,0,29
1,36,0,0
1,38,0,30
1,36,102,1
1,42,95,0
1,42,0,29
1,38,57,91
1,42,107,0
1,36,0,29
1,42,0,30
1,36,93,1
1,42,105,60
1,38,0,59
1,42,0,30
1,38,56,31
1,42,105,0
1,42,0,29
1,36,0,30
1,36,49,31
1,36,0,29
1,36,100,1
1,42,105,0
1,38,0,29
1,42,0,30
1,38,61,61
1,42,102,0
1,36,0,29
1,38,0,30
1,36,82,1
1,42,0,29
1,42,105,31
1,42,0,59
1,38,59,61
1,42,64,0
1,42,0,29
1,42,52,31
1,42,0,29
1,38,0,0
1,36,0,0
1,46,78,1
1,46,0,29
1,36,100,1
1,42,46,0
1,42,0,59
1,38,58,61
1,42,110,0
1,36,0,29
1,36,93,31
1,42,0,29
1,38,0,0
1,42,110,31
1,42,0,59
1,38,63,61
1,42,105,0
1,36,0,59
1,42,0,30
1,38,0,0
1,36,46,1
1,36,0,29
1,36,76,1
1,42,107,0
1,42,0,59
1,38,55,61
1,42,107,0
1,36,0,29
1,42,0,30
1,36,93,1
1,38,0,59
1,42,89,1
1,42,0,59
1,38,60,61
1,42,55,0
1,42,0,29
1,36,0,0
1,46,85,1
1,46,0,29
1,36,54,1
1,42,105,0
1,42,0,29
1,36,0,0
1,38,0,30
1,36,105,1
1,42,110,0
1,42,0,89
1,38,52,31
1,42,116,0
1,38,0,29
1,36,0,0
1,36,68,31
1,42,0,29
1,42,110,31
1,42,0,59
1,38,60,61
1,42,105,0
1,42,0,29
1,38,0,30
1,36,0,0
1,42,82,1
1,42,0,29
1,46,105,1
1,46,0,29
1,41,110,1
1,38,127,0
1,50,119,0
1,48,122,0
1,42,119,0
1,41,119,0
1,48,119,0
1,42,0,29
1,48,0,0
1,41,0,0
1,38,0,0
1,41,0,30
1,48,0,0
1,50,0,0
1,50,119,61
1,50,0,29
1,48,105,1
1,48,0,29
1,41,102,1
1,46,80,0
1,46,0,29
1,41,0,0
1,36,107,1
1,42,105,0
1,42,0,29
1,36,0,0
1,36,122,1
1,42,122,0
1,42,0,59
1,36,0,60
1,38,110,1
1,42,110,0
1,42,0,29
1,38,0,30
1,36,127,1
1,42,113,60
1,42,0,59
1,36,0,60
1,38,110,1
1,42,110,0
1,38,0,29
1,42,0,30
1,36,127,1
1,42,110,60
1,42,0,59
1,36,0,60
1,38,113,1
1,42,110,0
1,48,102,30
1,48,0,29
1,45,57,1
1,45,0,29
1,42,0,0
1,38,0,0
1,36,91,1
1,41,89,0
1,41,0,29
1,36,0,0
1,36,127,1
1,42,110,0
1,90,100,0
1,90,0,29
1,42,0,30
1,36,0,60
1,38,122,1
1,42,91,0
1,42,0,29
1,38,0,0
1,36,122,31
1,42,87,0
1,42,0,29
1,46,82,1
1,46,0,29
1,42,107,1
1,42,0,59
1,36,0,60
1,38,116,1
1,42,107,0
1,38,0,29
1,36,127,31
1,42,0,29
1,42,110,31
1,42,0,59
1,36,0,60
1,38,116,1
1,42,105,0
1,42,0,29
1,38,0,0
1,36,127,31
1,42,95,0
1,42,0,29
1,46,85,1
1,46,0,29
1,42,110,1
1,42,0,59
1,36,0,60
1,38,110,1
1,42,107,0
1,42,0,29
1,48,89,1
1,48,0,29
1,38,0,0
1,42,78,1
1,45,107,0
1,45,0,29
1,42,0,0
1,36,49,1
1,44,100,0
1,44,0,29
1,36,0,0
1,36,127,1
1,42,110,0
1,90,72,0
1,90,0,29
1,42,0,30
1,36,0,60
1,38,113,1
1,42,110,0
1,38,0,29
1,42,0,30
1,36,127,1
1,42,110,60
1,42,0,59
1,36,0,60
1,38,119,1
1,42,105,0
1,42,0,29
1,38,0,0
1,36,127,31
1,42,110,60
1,42,0,89
1,36,0,30
1,38,87,1
1,42,113,0
1,38,0,29
1,36,127,31
1,42,0,29
1,42,113,31
1,42,0,59
1,36,0,60
1,38,122,1
1,42,85,0
1,42,0,29
1,46,100,1
1,46,0,29
1,38,0,0
1,42,91,1
1,48,63,0
1,48,0,29
1,42,0,0
1,36,66,1
1,44,98,0
1,45,43,0
1,45,0,29
1,44,0,0
1,36,0,0
1,36,107,1
1,42,119,0
1,90,80,0
1,90,0,29
1,42,0,30
1,36,0,30
1,38,127,31
1,45,61,0
1,42,113,0
1,45,0,29
1,38,0,0
1,42,0,30
1,36,110,1
1,45,87,0
1,48,56,0
1,48,0,29
1,45,0,0
1,45,93,1
1,45,0,29
1,42,113,1
1,41,107,0
1,41,0,29
1,42,0,60
1,36,0,30
1,38,98,1
1,42,107,0
1,42,0,29
1,42,70,31
1,42,0,29
1,38,0,0
1,46,70,1
1,46,0,29
1,36,127,1
1,42,113,0
1,42,0,89
1,36,0,30
1,38,116,1
1,42,113,0
1,38,0,29
1,42,0,30
1,36,127,1
1,42,113,60
1,42,0,89
1,36,0,30
1,38,127,1
1,42,95,0
1,42,0,29
1,38,0,30
1,42,80,1
1,42,0,29
1,44,61,1
1,44,0,29
1,36,102,1
1,42,110,0
1,42,0,59
1,36,0,60
1,42,107,1
1,36,102,60
1,42,0,29
1,42,107,31
1,42,0,89
1,48,122,1
1,48,0,29
1,42,105,1
1,45,70,0
1,45,0,29
1,42,0,0
1,48,93,1
1,48,0,29
1,36,0,0
1,42,61,1
1,41,122,0
1,41,0,29
1,42,0,0
1,36,51,1
1,46,80,0
1,46,0,29
1,36,0,0
1,36,105,1
1,42,116,0
1,77,93,0
1,90,127,0
1,90,0,29
1,77,0,0
1,42,0,0
1,36,0,90
1,38,110,1
1,42,107,0
1,38,0,29
1,42,0,30
1,36,116,1
1,42,110,60
1,42,0,59
1,36,0,60
1,38,119,1
1,42,98,0
1,42,0,29
1,36,82,31
1,42,66,0
1,42,0,29
1,36,0,0
1,46,105,1
1,46,0,29
1,36,119,1
1,42,102,0
1,38,0,59
1,42,0,30
1,36,0,30
1,38,127,1
1,42,105,0
1,42,0,29
1,36,119,31
1,42,66,0
1,42,0,29
1,42,107,31
1,42,0,29
1,38,0,30
1,42,58,1
1,42,0,29
1,36,0,30
1,38,127,1
1,42,107,0
1,42,0,29
1,48,105,1
1,48,0,29
1,42,82,1
1,45,122,0
1,45,0,29
1,42,0,0
1,46,100,1
1,46,0,29
1,36,119,1
1,42,110,0
1,90,64,0
1,90,0,29
1,42,0,0
1,38,0,30
1,42,66,1
1,42,0,29
1,36,0,30
1,38,113,1
1,42,116,0
1,42,0,29
1,36,119,31
1,42,95,0
1,42,0,29
1,42,72,31
1,42,0,29
1,38,0,0
1,42,56,31
1,42,0,29
1,36,0,30
1,38,127,1
1,42,110,0
1,42,0,29
1,42,87,31
1,42,0,29
1,46,107,1
1,46,0,29
1,38,0,0
1,36,119,1
1,42,107,0
1,42,0,29
1,36,0,90
1,38,127,1
1,42,95,0
1,42,0,29
1,36,122,31
1,42,107,0
1,42,0,29
1,42,105,31
1,42,0,29
1,38,0,0
1,42,80,31
1,42,0,29
1,36,0,30
1,38,122,1
1,42,102,0
1,42,0,29
1,44,105,1
1,45,74,0
1,45,0,29
1,44,0,0
1,42,57,1
1,41,119,0
1,41,0,29
1,42,0,0
1,36,60,1
1,46,105,0
1,46,0,29
1,36,0,0
1,36,119,1
1,42,64,0
1,90,66,0
1,90,0,29
1,42,0,0
1,42,80,31
1,42,0,29
1,38,0,0
1,38,10,1
1,38,0,29
1,36,0,0
1,38,119,1
1,42,122,0
1,42,0,29
1,36,122,31
1,42,110,0
1,42,0,29
1,38,0,0
1,42,110,31
1,42,0,29
1,42,61,31
1,42,0,29
1,36,0,30
1,38,127,1
1,42,107,0
1,42,0,29
1,36,61,31
1,42,102,0
1,42,0,29
1,36,0,0
1,44,113,1
1,44,0,29
1,36,122,1
1,42,110,0
1,45,70,0
1,90,113,0
1,90,0,29
1,42,0,0
1,45,0,0
1,42,80,31
1,42,0,29
1,38,0,0
1,36,0,30
1,38,113,1
1,42,113,0
1,41,119,0
1,41,0,29
1,42,0,0
1,36,122,31
1,42,116,0
1,90,110,0
1,90,0,29
1,42,0,0
1,42,68,31
1,42,0,29
1,38,0,0
1,42,105,31
1,42,0,29
1,36,0,30
1,38,127,1
1,42,110,0
1,42,0,29
1,46,110,1
1,46,0,29
1,42,60,1
1,42,0,29
1,46,85,1
1,46,0,29
1,38,0,0
1,36,122,1
1,42,93,0
1,42,0,29
1,42,107,31
1,42,0,29
1,36,0,30
1,38,107,1
1,42,122,0
1,42,0,29
1,36,98,31
1,42,43,0
1,42,0,29
1,36,0,0
1,38,0,30
1,36,116,1
1,42,113,0
1,42,0,29
1,42,102,31
1,42,0,29
1,36,0,30
1,38,119,1
1,42,116,0
1,42,0,29
1,42,107,31
1,42,0,29
1,38,0,30
1,36,122,1
1,42,122,0
1,42,0,29
1,42,76,31
