track,note,velocity,time
0,33,78,407
0,60,95,0
0,33,0,29
0,35,64,1
0,62,78,0
0,35,0,29
0,36,100,1
0,64,95,0
0,36,82,0
0,36,0,52
0,64,0,0
0,62,0,0
0,60,0,0
0,45,85,1
0,69,89,0
0,69,0,59
0,64,80,1
0,42,55,0
0,64,0,29
0,36,0,0
0,45,0,30
0,35,89,1
0,62,80,0
0,57,72,0
0,59,68,0
0,36,91,0
0,59,0,31
0,57,0,0
0,62,0,0
0,42,0,60
0,42,85,61
0,36,0,59
0,36,62,31
0,35,0,29
0,36,0,0
0,32,102,1
0,62,98,0
0,52,98,0
0,59,100,0
0,36,82,0
0,59,0,28
0,52,0,0
0,62,0,0
0,42,0,0
0,32,0,30
0,38,70,1
0,38,0,29
0,36,0,0
0,40,100,1
0,42,82,0
0,40,0,59
0,33,91,1
0,52,85,0
0,60,100,0
0,57,95,0
0,36,102,0
0,52,0,27
0,57,0,30
0,60,0,0
0,42,0,30
0,42,54,61
0,33,0,59
0,36,0,0
0,33,82,1
0,60,100,0
0,33,0,29
0,60,0,0
0,35,95,1
0,62,91,0
0,35,0,29
0,62,0,0
0,36,107,1
0,64,113,0
0,36,98,0
0,64,0,59
0,42,0,0
0,69,89,1
0,69,0,59
0,36,0,0
0,64,76,1
0,42,70,0
0,64,0,29
0,36,0,30
0,35,95,1
0,62,87,0
0,57,76,0
0,59,93,0
0,36,91,0
0,59,0,42
0,57,0,0
0,62,0,0
0,42,0,30
0,42,100,61
0,36,0,29
0,36,55,61
0,35,0,29
0,36,0,0
0,32,105,1
0,62,89,0
0,52,82,0
0,59,85,0
0,36,100,0
0,59,0,31
0,52,0,0
0,62,0,0
0,42,0,30
0,36,0,30
0,42,102,1
0,32,0,59
0,33,98,1
0,60,80,0
0,57,66,0
0,52,70,0
0,36,95,0
0,52,0,24
0,57,0,30
0,60,0,0
0,42,0,30
0,42,74,61
0,33,0,29
0,28,80,1
0,57,60,0
0,28,0,29
0,57,0,0
0,42,0,0
0,36,0,0
0,33,87,1
0,60,98,0
0,33,0,29
0,60,0,0
0,35,89,1
0,62,105,0
0,35,0,29
0,62,0,0
0,36,100,0
0,64,110,0
0,36,76,0
0,64,0,29
0,69,78,31
0,63,107,0
0,69,0,3
0,36,0,0
0,64,116,1
0,64,78,0
0,38,60,0
0,42,64,0
0,63,0,1
0,64,0,28
0,64,0,24
0,36,0,6
0,35,87,1
0,62,85,0
0,59,70,0
0,57,78,0
0,36,95,0
0,64,105,0
0,64,0,16
0,64,105,0
0,57,0,29
0,59,0,0
0,62,0,0
0,64,0,26
0,62,98,0
0,38,0,33
0,42,0,30
0,69,70,0
0,38,62,0
0,42,102,0
0,69,0,0
0,36,0,0
0,57,78,1
0,57,0,1
0,57,98,0
0,35,0,0
0,57,0,0
0,33,76,0
0,36,47,0
0,33,0,19
0,36,0,0
0,32,87,1
0,62,93,0
0,52,91,0
0,59,91,0
0,36,107,0
0,62,0,7
0,59,0,30
0,52,0,0
0,62,0,0
0,42,0,0
0,38,0,30
0,59,95,0
0,38,66,26
0,42,98,0
0,59,0,2
0,62,110,0
0,36,0,24
0,64,85,0
0,32,0,1
0,33,105,1
0,60,95,0
0,52,76,0
0,57,93,0
0,36,98,0
0,62,0,1
0,62,116,0
0,64,0,5
0,57,0,46
0,52,0,0
0,60,0,0
0,60,82,6
0,62,0,2
0,42,0,22
0,38,0,30
0,38,63,3
0,42,82,0
0,33,0,0
0,57,89,1
0,57,0,3
0,36,0,0
0,33,85,1
0,60,87,0
0,33,0,0
0,60,0,0
0,35,89,1
0,62,98,0
0,35,0,3
0,62,0,0
0,36,102,1
0,64,113,0
0,36,100,0
0,60,0,5
0,64,0,24
0,69,78,31
0,64,85,0
0,42,0,5
0,38,0,0
0,64,0,17
0,64,105,0
0,69,0,3
0,64,80,1
0,38,56,0
0,42,105,0
0,64,0,29
0,36,0,0
0,64,0,23
0,64,95,0
0,35,110,1
0,59,70,0
0,57,78,0
0,62,85,0
0,36,80,0
0,64,0,15
0,36,0,7
0,64,91,0
0,62,0,27
0,57,0,0
0,59,0,0
0,64,0,0
0,62,76,0
0,38,0,26
0,42,0,1
0,38,66,0
0,42,107,0
0,36,0,11
0,36,51,31
0,35,0,29
0,36,0,0
0,32,105,1
0,62,93,0
0,52,89,0
0,59,89,0
0,36,105,0
0,62,0,6
0,59,0,35
0,52,0,0
0,62,0,0
0,42,0,30
0,38,0,0
0,62,105,0
0,62,0,24
0,62,95,0
0,38,64,0
0,42,107,0
0,36,0,29
0,32,0,30
0,64,102,0
0,33,110,0
0,57,87,0
0,52,80,0
0,60,89,0
0,36,100,0
0,62,0,5
0,65,107,0
0,64,0,3
0,60,0,24
0,52,0,0
0,57,0,0
0,64,87,31
0,65,0,5
0,42,0,24
0,38,0,30
0,38,68,31
0,42,105,0
0,62,91,29
0,33,0,0
0,28,80,1
0,64,0,4
0,28,0,25
0,33,85,1
0,60,100,0
0,60,82,1
0,62,0,2
0,33,0,26
0,60,0,0
0,36,0,0
0,35,100,1
0,62,105,0
0,35,0,29
0,62,0,0
0,36,98,1
0,64,113,0
0,36,95,0
0,60,0,11
0,64,0,48
0,69,89,1
0,42,0,29
0,38,0,0
0,63,105,0
0,69,0,3
0,64,98,1
0,38,58,0
0,42,107,0
0,64,113,1
0,63,0,1
0,64,0,27
0,36,0,0
0,64,0,21
0,64,98,0
0,36,0,1
0,35,105,1
0,62,91,0
0,59,72,0
0,57,78,0
0,36,102,0
0,64,0,15
0,64,93,0
0,57,0,58
0,59,0,0
0,62,0,0
0,62,89,0
0,64,0,2
0,38,0,24
0,42,0,30
0,57,48,1
0,57,0,29
0,69,66,1
0,38,58,0
0,42,110,0
0,69,0,29
0,57,95,1
0,57,0,16
0,36,0,0
0,57,93,0
0,57,0,0
0,36,62,1
0,35,0,1
0,36,0,0
0,31,102,1
0,62,105,0
0,55,91,0
0,59,102,0
0,36,98,0
0,62,0,4
0,59,0,30
0,55,0,0
0,62,0,30
0,42,0,0
0,38,0,0
0,55,85,0
0,38,53,27
0,42,102,0
0,67,60,0
0,55,0,1
0,36,0,23
0,31,0,30
0,36,102,1
0,55,91,0
0,60,100,0
0,64,93,0
0,36,98,0
0,69,89,0
0,67,0,1
0,64,80,0
0,62,87,1
0,69,0,8
0,62,0,12
0,64,0,4
0,60,0,0
0,55,0,0
0,38,0,60
0,42,0,30
0,36,0,0
0,30,107,0
0,58,91,0
0,52,89,0
0,62,98,0
0,38,53,0
0,42,105,0
0,62,102,8
0,64,0,5
0,62,0,24
0,52,0,0
0,58,0,0
0,60,100,3
0,62,0,1
0,36,0,26
0,30,0,0
0,29,102,1
0,60,95,0
0,52,85,0
0,57,91,0
0,36,102,0
0,60,0,1
0,57,0,26
0,52,0,0
0,60,68,0
0,60,0,8
0,42,0,0
0,38,0,0
0,64,110,0
0,38,53,2
0,42,107,0
0,60,0,1
0,36,0,28
0,64,0,23
0,64,100,0
0,29,0,0
0,35,98,1
0,62,100,0
0,57,102,0
0,59,102,0
0,36,102,0
0,64,0,18
0,64,105,0
0,64,0,0
0,62,95,0
0,38,0,27
0,59,0,30
0,57,0,0
0,62,0,0
0,42,0,0
0,38,46,7
0,42,105,0
0,35,0,24
0,36,0,0
0,35,78,1
0,36,59,0
0,35,0,0
0,36,0,0
0,28,100,1
0,62,87,0
0,59,78,0
0,52,85,0
0,56,72,0
0,36,95,0
0,62,0,8
0,56,0,24
0,52,0,0
0,62,0,0
0,38,0,0
0,59,0,30
0,42,0,0
0,52,74,0
0,52,0,27
0,62,102,0
0,38,59,0
0,42,107,0
0,38,0,29
0,36,0,0
0,28,0,30
0,33,93,1
0,57,91,0
0,60,89,0
0,52,78,0
0,36,95,0
0,60,91,0
0,62,0,6
0,59,89,0
0,60,0,1
0,52,0,27
0,60,87,28
0,59,0,1
0,60,0,1
0,57,0,0
0,59,91,13
0,60,0,1
0,57,105,13
0,42,0,3
0,59,0,2
0,36,0,28
0,33,0,30
0,35,85,1
0,38,45,0
0,42,107,0
0,35,0,7
0,36,93,1
0,36,0,3
0,38,0,0
0,35,89,0
0,35,0,17
0,33,80,1
0,57,0,2
0,33,0,22
0,42,0,0
0,71,98,0
0,31,102,0
0,71,119,0
0,62,122,0
0,67,122,0
0,43,107,0
0,55,113,0
0,41,110,0
0,38,127,0
0,50,119,0
0,48,122,0
0,42,87,0
0,48,127,0
0,41,119,0
0,71,0,14
0,71,89,0
0,41,0,2
0,42,0,0
0,38,0,0
0,48,0,0
0,71,0,21
0,71,105,0
0,31,0,2
0,55,0,0
0,67,0,0
0,71,0,0
0,62,0,0
0,43,0,0
0,41,0,0
0,48,0,0
0,50,0,0
0,71,0,22
0,71,110,0
0,71,0,20
0,71,105,0
0,50,119,2
0,50,0,29
0,48,105,1
0,72,91,0
0,48,0,1
0,29,102,1
0,41,102,0
0,71,0,2
0,72,0,23
0,69,102,0
0,29,0,1
0,41,0,0
0,28,87,1
0,36,107,0
0,28,0,29
0,36,0,0
0,26,105,1
0,38,89,0
0,60,107,0
0,69,110,0
0,50,91,0
0,65,113,0
0,36,122,0
0,42,82,0
0,60,0,4
0,42,0,0
0,50,0,7
0,65,0,0
0,69,0,0
0,42,57,1
0,42,0,29
0,50,72,1
0,69,0,9
0,38,0,2
0,36,0,0
0,74,107,1
0,38,110,0
0,42,66,0
0,69,105,0
0,74,0,25
0,50,0,0
0,42,0,0
0,67,102,0
0,26,0,0
0,38,0,0
0,28,113,1
0,52,85,0
0,72,105,0
0,64,110,0
0,40,80,0
0,67,119,0
0,36,127,0
0,42,116,0
0,69,0,2
0,42,0,0
0,42,25,31
0,64,0,2
0,42,0,0
0,67,0,30
0,72,0,0
0,64,59,1
0,42,62,0
0,64,0,18
0,42,0,0
0,67,87,1
0,72,119,0
0,67,0,2
0,52,0,0
0,40,0,0
0,36,0,0
0,76,100,1
0,38,110,0
0,42,89,0
0,67,0,2
0,76,0,27
0,42,0,0
0,38,0,0
0,71,127,0
0,28,0,0
0,31,113,1
0,43,80,0
0,62,91,0
0,74,87,0
0,67,91,0
0,55,87,0
0,71,98,0
0,36,127,0
0,42,58,0
0,72,0,2
0,42,0,23
0,71,0,27
0,74,0,0
0,67,0,0
0,42,70,1
0,69,110,26
0,62,0,3
0,42,0,0
0,72,85,1
0,71,0,2
0,67,107,26
0,72,0,1
0,55,0,0
0,69,0,1
0,71,100,0
0,42,87,0
0,71,0,29
0,42,0,0
0,55,102,1
0,36,0,29
0,71,107,1
0,62,110,0
0,67,113,0
0,38,113,0
0,42,100,0
0,67,0,1
0,71,0,0
0,62,0,0
0,42,0,0
0,69,62,0
0,48,116,0
0,31,0,4
0,69,0,0
0,55,0,0
0,48,0,0
0,26,89,1
0,67,78,0
0,42,68,0
0,45,91,0
0,62,102,0
0,26,0,0
0,67,0,0
0,43,0,0
0,45,0,0
0,42,0,0
0,38,0,0
0,28,102,1
0,62,59,0
0,36,91,0
0,44,91,0
0,67,0,2
0,28,0,27
0,62,0,0
0,44,0,0
0,36,0,0
0,31,116,1
0,62,105,0
0,67,113,0
0,43,87,0
0,71,107,0
0,36,127,0
0,42,105,0
0,71,113,0
0,62,0,2
0,71,0,17
0,42,0,9
0,71,105,0
0,71,0,24
0,71,0,5
0,62,0,0
0,67,0,0
0,62,44,1
0,42,60,0
0,71,91,0
0,71,0,21
0,71,102,0
0,62,0,0
0,42,0,0
0,67,66,1
0,71,0,21
0,67,0,8
0,36,0,0
0,71,105,0
0,67,110,0
0,55,68,0
0,71,113,0
0,62,107,0
0,38,122,0
0,42,110,0
0,31,0,29
0,55,0,0
0,43,0,0
0,42,0,0
0,38,0,0
0,33,95,1
0,33,0,29
0,67,0,0
0,71,0,0
0,62,0,0
0,29,93,1
0,72,91,0
0,36,122,0
0,42,107,0
0,72,105,0
0,71,0,1
0,69,107,0
0,29,0,2
0,72,0,0
0,42,0,0
0,72,0,1
0,28,82,0
0,65,105,0
0,60,93,0
0,69,102,0
0,28,0,3
0,26,110,1
0,38,80,0
0,42,57,0
0,60,0,29
0,42,0,0
0,65,0,30
0,69,0,0
0,60,59,1
0,42,74,0
0,60,0,29
0,42,0,0
0,50,60,1
0,74,122,0
0,38,0,0
0,36,0,0
0,69,0,1
0,74,110,0
0,38,116,0
0,42,105,0
0,74,0,29
0,50,0,0
0,42,0,0
0,38,0,0
0,74,0,26
0,72,102,0
0,28,102,3
0,29,63,0
0,52,80,0
0,40,82,0
0,72,110,0
0,64,110,0
0,67,116,0
0,36,127,0
0,42,91,0
0,29,0,4
0,26,0,0
0,42,0,0
0,44,107,1
0,44,0,29
0,42,76,1
0,64,0,29
0,52,0,0
0,42,0,0
0,67,0,30
0,72,0,0
0,64,59,1
0,42,72,0
0,64,0,29
0,42,0,0
0,52,66,1
0,75,113,0
0,76,110,2
0,72,0,1
0,75,0,3
0,52,0,0
0,40,0,0
0,36,0,0
0,76,107,1
0,38,116,0
0,42,113,0
0,76,0,29
0,42,0,0
0,38,0,0
0,76,0,29
0,28,0,1
0,74,113,0
0,31,113,0
0,55,78,0
0,43,82,0
0,67,102,0
0,74,116,0
0,71,116,0
0,36,127,0
0,42,107,0
0,42,0,9
0,67,0,30
0,42,98,1
0,74,0,29
0,71,0,0
0,42,0,0
0,72,102,1
0,67,64,0
0,74,0,2
0,67,0,27
0,55,0,0
0,72,0,1
0,71,107,0
0,72,105,0
0,69,113,0
0,42,74,0
0,69,0,29
0,72,0,0
0,42,0,0
0,71,102,1
0,67,102,0
0,67,0,29
0,71,0,0
0,36,0,0
0,55,80,1
0,38,110,0
0,42,105,0
0,69,85,28
0,31,0,1
0,42,0,0
0,31,74,1
0,62,64,0
0,46,85,0
0,48,100,0
0,71,0,2
0,67,93,27
0,31,0,0
0,62,0,0
0,48,0,0
0,46,0,0
0,38,0,0
0,26,82,1
0,69,102,0
0,44,52,0
0,45,100,0
0,69,0,2
0,26,0,27
0,69,0,0
0,55,0,0
0,43,0,0
0,45,0,0
0,44,0,0
0,28,100,1
0,67,87,0
0,36,49,0
0,46,59,0
0,41,110,0
0,67,0,22
0,71,119,0
0,28,0,2
0,67,0,0
0,41,0,0
0,46,0,0
0,36,0,0
0,31,113,1
0,62,110,0
0,71,116,0
0,43,80,0
0,67,116,0
0,36,127,0
0,42,119,0
0,90,102,0
0,71,0,22
0,71,100,0
0,67,0,0
0,90,0,0
0,42,0,0
0,71,0,24
0,71,98,0
0,62,0,0
0,67,66,1
0,42,105,0
0,71,0,22
0,67,0,7
0,71,0,0
0,42,0,0
0,71,105,0
0,62,72,0
0,71,0,20
0,62,0,9
0,36,0,0
0,71,116,0
0,62,102,0
0,67,105,0
0,71,102,0
0,55,63,0
0,38,113,0
0,42,119,0
0,55,0,29
0,67,0,0
0,43,0,0
0,62,0,0
0,71,0,0
0,42,0,0
0,38,0,0
0,62,74,1
0,31,0,29
0,62,0,0
0,72,93,0
0,29,80,0
0,72,82,0
0,36,127,0
0,42,116,0
0,71,0,3
0,72,0,26
0,29,0,0
0,72,0,0
0,42,0,0
0,69,110,0
0,28,89,0
0,69,107,0
0,65,107,0
0,60,107,0
0,28,0,1
0,26,105,1
0,38,82,0
0,42,59,0
0,60,0,29
0,42,0,0
0,69,0,30
0,65,0,0
0,60,63,1
0,42,107,0
0,60,0,29
0,42,0,0
0,50,70,1
0,50,0,29
0,38,0,0
0,36,0,0
0,74,105,0
0,74,110,0
0,38,119,0
0,42,89,0
0,69,0,5
0,74,0,24
0,42,0,0
0,38,0,0
0,74,0,14
0,72,105,0
0,26,0,6
0,28,102,1
0,52,91,0
0,64,107,0
0,40,80,0
0,72,107,0
0,67,116,0
0,36,127,0
0,44,110,0
0,44,0,1
0,42,110,31
0,64,0,29
0,42,0,0
0,72,0,30
0,52,0,0
0,67,0,0
0,64,78,1
0,42,105,0
0,64,0,29
0,40,0,0
0,42,0,0
0,67,80,1
0,75,59,0
0,76,105,0
