track,note,velocity,time
3,63,107,0
3,64,116,4
3,63,0,1
3,64,0,52
3,64,105,0
3,64,0,20
3,64,105,0
3,64,0,55
3,62,98,0
3,62,0,7
3,59,95,0
3,59,0,28
3,62,110,0
3,64,85,0
3,62,0,3
3,62,116,0
3,64,0,5
3,60,82,57
3,62,0,2
3,60,0,9
3,64,85,0
3,64,0,22
3,64,105,0
3,64,0,56
3,64,95,0
3,64,0,23
3,64,91,0
3,64,0,62
3,62,76,0
3,62,0,6
3,62,105,0
3,62,0,24
3,62,95,0
3,64,102,0
3,62,0,5
3,65,107,0
3,64,0,3
3,64,87,57
3,65,0,5
3,62,91,114
3,64,0,5
3,60,82,27
3,62,0,2
3,60,0,68
3,63,105,0
3,64,113,5
3,63,0,1
3,64,0,48
3,64,98,0
3,64,0,23
3,64,93,0
3,62,89,0
3,64,0,2
3,62,0,10
3,55,85,0
3,67,60,0
3,55,0,1
3,69,89,0
3,67,0,1
3,64,80,0
3,62,87,1
3,69,0,8
3,62,0,12
3,62,102,12
3,64,0,5
3,60,100,27
3,62,0,1
3,60,0,1
3,60,68,0
3,64,110,0
3,60,0,3
3,64,0,51
3,64,100,0
3,64,0,27
3,64,105,0
3,64,0,60
3,62,95,0
3,62,0,8
3,52,74,0
3,52,0,27
3,62,102,0
3,60,91,0
3,62,0,6
3,59,89,0
3,60,0,1
3,60,87,57
3,59,0,1
3,59,91,14
3,60,0,1
3,57,105,13
3,59,0,5
3,57,0,2
3,71,98,0
3,71,0,20
3,71,89,0
3,71,0,23
3,71,105,0
3,71,0,24
3,71,110,0
3,71,0,20
3,71,105,0
3,72,91,0
3,71,0,4
3,72,0,23
3,69,102,0
3,69,0,9
3,69,105,0
3,67,102,0
3,69,0,3
3,72,119,0
3,67,0,5
3,71,127,0
3,72,0,3
3,69,110,84
3,71,0,6
3,67,107,26
3,69,0,2
3,62,102,0
3,67,0,3
3,71,113,0
3,62,0,2
3,71,0,17
3,71,105,0
3,71,0,24
3,71,91,0
3,71,0,21
3,71,102,0
3,71,0,22
3,71,105,0
3,72,105,0
3,71,0,1
3,69,107,0
3,72,0,3
3,74,122,0
3,69,0,1
3,74,0,55
3,72,102,0
3,75,113,0
3,76,110,2
3,72,0,1
3,75,0,3
3,76,0,59
3,74,113,0
3,72,102,90
3,74,0,2
3,72,0,28
3,71,107,0
3,69,85,88
3,71,0,4
3,67,93,27
3,69,0,3
3,67,0,50
3,71,119,0
3,71,0,25
3,71,100,0
3,71,0,24
3,71,98,0
3,71,0,23
3,71,105,0
3,71,0,20
3,71,116,0
3,72,93,0
3,71,0,3
3,72,0,26
3,69,110,0
3,74,105,0
3,69,0,5
3,74,0,38
3,72,105,0
3,75,59,0
3,76,105,0
3,75,0,4
3,72,0,0
3,76,0,56
3,74,105,0
3,72,95,93
3,74,0,5
3,71,80,26
3,72,0,3
3,69,85,80
3,71,0,8
3,67,76,25
3,69,0,4
3,64,102,0
3,67,0,3
3,67,105,0
3,64,0,1
3,69,100,0
3,67,0,7
3,71,107,0
3,69,0,4
3,69,107,0
3,71,0,5
3,67,98,0
3,69,0,2
3,69,105,0
3,67,0,3
3,67,105,0
3,69,0,5
3,67,0,25
3,65,102,0
3,72,119,0
3,65,0,1
3,72,0,173
3,72,102,0
3,74,93,0
3,72,0,2
3,72,119,0
3,74,0,5
3,71,102,0
3,72,0,4
3,71,0,45
3,71,105,0
3,72,95,39
3,71,0,3
3,71,100,10
3,72,0,6
3,69,82,8
3,71,0,3
3,69,0,344
3,63,93,0
3,64,102,7
3,63,0,1
3,64,0,54
3,64,98,0
3,64,0,22
3,64,100,0
3,62,93,0
3,64,0,3
3,62,0,222
3,62,91,0
3,62,119,0
3,62,0,3
3,64,102,0
3,62,0,2
3,62,100,0
3,64,0,7
3,60,93,58
3,62,0,1
3,60,0,11
3,63,116,0
3,64,119,5
3,63,0,2
3,64,0,56
3,65,91,0
3,65,0,29
3,64,116,0
3,64,0,58
3,62,107,0
3,62,0,29
3,59,102,0
3,59,0,30
3,62,105,0
3,64,100,0
3,62,0,1
3,64,0,30
3,62,116,0
3,60,100,60
3,62,0,3
3,60,0,11
3,57,87,0
3,60,116,19
3,57,0,6
3,60,0,17
3,63,98,0
3,64,113,4
3,63,0,2
3,64,0,56
3,65,93,0
3,65,0,31
3,64,110,0
3,64,0,61
3,62,107,0
3,62,0,15
3,55,100,0
3,55,0,27
3,67,91,0
3,67,0,55
3,69,87,0
3,64,98,0
3,69,0,3
3,62,105,20
3,64,0,5
3,62,0,26
3,60,100,1
3,60,0,70
3,60,78,0
3,63,107,0
3,60,0,5
3,64,119,1
3,63,0,1
3,64,0,52
3,64,100,0
3,64,0,24
3,64,98,0
3,62,102,0
3,64,0,1
3,62,0,214
3,62,36,0
3,62,0,19
3,62,105,0
3,60,87,0
3,62,0,2
3,59,85,0
3,60,0,3
3,60,100,62
3,59,0,3
3,59,93,12
3,60,0,1
3,57,102,0
3,59,0,5
3,57,0,1
3,71,98,0
3,71,0,20
3,71,89,0
3,71,0,23
3,71,105,0
3,71,0,24
3,71,110,0
3,71,0,20
3,71,105,0
3,72,91,0
3,71,0,4
3,72,0,23
3,69,102,0
3,69,0,9
3,69,105,0
3,67,102,0
3,69,0,3
3,72,119,0
3,67,0,5
3,71,127,0
3,72,0,3
3,69,110,84
3,71,0,6
3,67,107,26
3,69,0,2
3,62,102,0
3,67,0,3
3,71,113,0
3,62,0,2
3,71,0,17
3,71,105,0
3,71,0,24
3,71,91,0
3,71,0,21
3,71,102,0
3,71,0,22
3,71,105,0
3,72,105,0
3,71,0,1
3,69,107,0
3,72,0,3
3,74,122,0
3,69,0,1
3,74,0,55
3,72,102,0
3,75,113,0
3,76,110,2
3,72,0,1
3,75,0,3
3,76,0,59
3,74,113,0
3,72,102,90
3,74,0,2
3,72,0,28
3,71,107,0
3,69,85,88
3,71,0,4
3,67,93,27
3,69,0,3
3,67,0,50
3,71,119,0
3,71,0,25
3,71,100,0
3,71,0,24
3,71,98,0
3,71,0,23
3,71,105,0
3,71,0,20
3,71,116,0
3,72,93,0
3,71,0,3
3,72,0,26
3,69,110,0
3,74,105,0
3,69,0,5
3,74,0,38
3,72,105,0
3,75,59,0
3,76,105,0
3,75,0,4
3,72,0,0
3,76,0,56
3,74,105,0
3,72,95,93
3,74,0,5
3,71,80,26
3,72,0,3
3,69,85,80
3,71,0,8
3,67,76,25
3,69,0,4
3,64,102,0
3,67,0,3
3,67,105,0
3,64,0,1
3,69,100,0
3,67,0,7
3,71,107,0
3,69,0,4
3,69,107,0
3,71,0,5
3,67,98,0
3,69,0,2
3,69,105,0
3,67,0,3
3,67,105,0
3,69,0,5
3,67,0,25
3,65,102,0
3,72,119,0
3,65,0,1
3,72,0,173
3,72,102,0
3,74,93,0
3,72,0,2
3,72,119,0
3,74,0,5
3,71,102,0
3,72,0,4
3,71,0,45
3,71,105,0
3,72,95,39
3,71,0,3
3,71,100,10
3,72,0,6
3,69,82,8
3,71,0,3
3,69,0,344
3,66,107,0
3,67,89,0
3,68,59,0
3,66,0,1
3,68,0,13
3,67,0,14
3,69,107,0
3,69,0,120
3,71,98,0
3,69,105,0
3,71,0,3
3,67,95,0
3,69,0,9
3,67,0,81
3,67,36,0
3,67,0,19
3,64,87,0
3,66,68,0
3,64,0,9
3,67,102,0
3,66,0,3
3,69,102,0
3,67,0,3
3,69,0,56
3,67,119,0
3,65,113,0
3,67,0,2
3,65,0,51
3,67,102,0
3,69,89,87
3,67,0,3
3,67,107,12
3,69,0,6
3,65,113,12
3,67,0,6
3,65,0,90
3,65,95,0
3,67,89,0
3,65,0,5
3,70,107,0
3,67,0,4
3,70,0,60
3,68,105,1
3,68,0,103
3,72,93,0
3,74,91,0
3,72,0,2
3,74,0,37
3,76,100,0
3,74,116,0
3,76,0,1
3,72,102,0
3,74,0,5
3,72,0,56
3,74,100,0
3,72,119,93
3,74,0,6
3,69,87,27
3,72,0,1
3,69,0,167
3,69,91,0
3,69,0,56
3,72,102,0
3,72,0,24
3,72,102,0
3,69,85,0
3,72,0,2
3,74,113,0
3,69,0,5
3,74,0,57
3,76,91,0
3,72,105,0
3,76,0,1
3,72,0,57
3,72,102,0
3,72,0,72
3,74,98,0
3,72,82,0
3,74,0,1
3,71,70,0
3,72,0,4
3,71,0,20
3,71,102,0
3,71,0,110
3,64,53,0
3,64,0,36
3,71,102,0
3,72,100,0
3,71,0,4
3,72,0,36
3,74,105,0
3,74,0,35
3,76,105,0
3,76,0,63
3,71,102,0
3,71,0,25
3,71,87,0
3,71,0,22
3,71,116,0
3,71,0,22
3,71,91,0
3,71,0,22
3,71,105,0
3,72,89,0
3,71,0,2
3,72,0,24
3,69,110,0
3,69,0,152
3,69,102,0
3,67,102,0
3,69,0,1
3,72,127,0
3,67,0,2
3,70,89,0
3,71,122,4
3,70,0,1
3,72,0,1
3,69,105,91
3,71,0,4
3,67,102,26
3,69,0,3
3,67,0,117
3,67,95,0
3,71,91,0
3,67,0,2
3,71,0,19
3,71,100,0
3,71,0,20
3,71,102,0
3,71,0,27
3,71,98,0
3,71,0,21
3,71,105,0
3,72,95,0
3,71,0,3
3,72,0,27
3,69,110,0
3,74,119,0
3,69,0,3
3,72,119,0
3,74,0,7
3,75,110,0
3,76,110,5
3,75,0,2
3,72,0,0
3,76,0,55
3,74,110,0
3,72,102,92
3,74,0,5
3,71,107,23
3,72,0,1
3,69,102,89
3,71,0,6
3,67,102,24
3,69,0,4
3,71,113,0
3,67,0,5
3,71,0,19
3,71,91,0
3,71,0,26
3,71,102,0
3,71,0,22
3,71,93,0
3,71,0,21
3,71,100,0
3,72,85,0
3,71,0,3
3,69,105,0
3,72,0,4
3,69,0,140
3,69,107,0
3,67,102,0
3,69,0,2
3,72,119,0
3,67,0,3
3,72,0,52
3,71,127,0
3,69,113,92
3,71,0,6
3,67,102,23
3,69,0,1
3,67,0,204
3,62,107,0
3,67,116,0
3,62,0,5
3,69,105,0
3,67,0,8
3,71,113,0
3,69,0,1
3,69,122,0
3,71,0,8
3,67,100,0
3,69,0,6
3,69,102,0
3,67,0,1
3,67,105,0
3,69,0,7
3,67,0,21
3,65,105,0
3,65,0,165
3,67,110,0
3,67,0,114
3,72,110,0
3,72,0,56
3,71,113,0
3,69,80,89
3,71,0,6
3,67,74,23
3,69,0,1
3,67,0,118
3,71,113,0
3,71,0,17
3,71,107,0
3,71,0,17
3,71,95,0
3,71,0,26
3,71,100,0
3,71,0,22
3,71,105,0
3,71,0,60
3,72,87,0
3,72,0,28
3,69,107,0
3,74,122,0
3,69,0,2
3,74,0,58
3,72,122,0
3,75,100,0
3,76,116,1
3,75,0,5
3,72,0,0
3,74,107,0
3,76,0,3
3,72,113,84
3,74,0,5
3,72,0,26
3,71,102,0
3,69,102,91
3,71,0,6
3,67,89,25
3,69,0,3
3,67,102,0
3,67,0,26
3,71,100,0
3,67,0,4
3,71,0,19
3,71,89,0
3,71,0,25
3,71,98,0
3,71,0,24
3,71,98,0
3,71,0,22
3,71,91,0
3,72,89,0
3,71,0,3
3,69,82,0
3,72,0,4
3,74,113,0
3,69,0,6
3,72,116,0
3,74,0,5
3,75,80,0
3,76,107,1
3,75,0,3
3,72,0,1
3,76,0,57
3,74,105,0
3,79,91,87
3,74,0,2
3,81,78,29
3,79,0,2
3,83,87,28
3,81,0,17
3,81,72,48
3,83,0,8
3,79,89,23
3,81,0,9
3,71,107,0
3,79,0,1
3,71,0,17
3,71,102,0
3,71,0,17
3,71,102,0
3,71,0,20
3,71,100,0
3,71,0,19
3,71,100,0
3,71,0,54
3,72,89,0
3,72,0,30
3,69,98,0
3,74,102,0
3,69,0,4
3,72,85,0
3,74,0,2
3,75,107,0
3,76,95,2
3,72,0,3
3,75,0,2
3,74,105,0
3,76,0,3
3,72,100,87
3,74,0,6
3,72,0,27
3,71,105,1
3,69,95,88
3,71,0,6
3,69,0,22
3,67,102,0
3,67,0,86
3,62,102,0
3,62,0,30
3,67,102,0
3,69,105,0
3,67,0,7
3,69,0,22
3,71,107,0
3,69,113,0
3,71,0,5
3,67,102,0
3,69,0,1
3,69,113,0
3,67,0,5
3,67,91,0
3,69,0,7
3,67,0,22
3,65,102,0
3,65,0,183
3,72,89,0
3,72,0,165
3,72,116,0
3,72,0,58
3,74,102,0
3,74,0,90
3,72,110,0
3,72,0,93
3,71,116,0
3,71,0,50
3,71,100,0
3,72,98,34
3,71,0,2
3,71,102,13
3,72,0,7
3,69,102,9
3,71,0,1
3,69,0,363
4,33,78,415
4,33,0,29
4,35,64,1
4,35,0,29
4,36,100,1
4,36,0,59
4,45,85,1
4,45,0,119
4,35,89,1
4,35,0,299
4,32,102,1
4,32,0,89
4,38,70,1
4,38,0,29
4,40,100,1
4,40,0,59
4,33,91,1
4,33,0,239
4,33,82,1
4,33,0,29
4,35,95,1
4,35,0,29
4,36,107,1
4,36,0,179
4,35,95,1
4,35,0,299
4,32,105,1
4,32,0,179
4,33,98,1
4,33,0,209
4,28,80,1
4,28,0,29
4,33,87,1
4,33,0,29
4,35,89,1
4,35,0,29
4,36,100,1
4,36,0,179
4,35,87,1
4,35,0,269
4,33,76,1
4,33,0,29
4,32,87,1
4,32,0,179
4,33,105,1
4,33,0,209
4,33,85,31
4,33,0,29
4,35,89,1
4,35,0,29
4,36,102,1
4,35,110,180
4,36,0,29
4,35,0,270
4,32,105,1
4,32,0,179
4,33,110,1
4,33,0,209
4,28,80,1
4,28,0,29
4,33,85,1
4,33,0,29
4,35,100,1
4,35,0,29
4,36,98,1
4,36,0,179
4,35,105,1
4,35,0,299
4,31,102,1
4,31,0,179
4,36,102,1
4,36,0,179
4,30,107,1
4,30,0,119
4,29,102,1
4,29,0,179
4,35,98,1
4,35,0,239
4,35,78,31
4,35,0,29
4,28,100,1
4,28,0,179
4,33,93,1
4,33,0,179
4,35,85,1
4,35,0,29
4,36,93,1
4,36,0,29
4,35,89,1
4,35,0,29
4,33,80,1
4,33,0,29
4,31,102,1
4,31,0,59
4,29,102,121
4,29,0,29
4,28,87,1
4,28,0,29
4,26,105,1
4,26,0,179
4,28,113,1
4,28,0,239
4,31,113,1
4,31,0,239
4,26,89,1
4,26,0,29
4,28,102,1
4,28,0,29
4,31,116,1
4,31,0,149
4,33,95,1
4,33,0,29
4,29,93,1
4,29,0,29
4,28,82,1
4,28,0,29
4,26,110,1
4,28,102,180
4,29,63,0
4,29,0,29
4,26,0,0
4,28,0,210
4,31,113,1
4,31,0,209
4,31,74,1
4,31,0,29
4,26,82,1
4,26,0,29
4,28,100,1
4,28,0,29
4,31,113,1
4,31,0,179
4,29,80,1
4,29,0,29
4,28,89,1
4,28,0,29
4,26,105,1
4,26,0,179
4,28,102,1
4,28,78,210
4,28,0,29
4,28,0,0
4,33,98,1
4,33,0,29
4,28,80,1
4,28,0,29
4,31,110,1
4,31,0,179
4,26,82,1
4,26,0,29
4,28,85,1
4,28,0,29
4,31,116,1
4,31,0,159
4,29,100,1
4,29,0,39
4,28,95,1
4,28,0,39
4,26,102,1
4,26,0,239
4,40,100,1
4,28,102,236
4,40,0,3
4,28,0,117
4,32,100,0
4,28,85,30
4,32,0,4
4,32,87,24
4,28,0,15
4,35,93,16
4,32,0,2
4,33,105,33
4,35,0,5
4,33,0,163
4,33,72,7
4,28,87,33
4,33,0,6
4,33,100,24
4,28,0,1
4,33,0,165
4,33,80,11
4,35,105,31
4,33,0,3
4,35,0,29
4,36,100,2
4,36,0,179
4,35,87,1
4,35,0,269
4,33,76,1
4,33,0,29
4,32,87,1
4,32,0,179
4,33,105,1
4,33,0,209
4,33,85,31
4,33,0,29
4,35,89,1
4,35,0,29
4,36,102,1
4,35,110,180
4,36,0,29
4,35,0,270
4,32,105,1
4,32,0,179
4,33,110,1
4,33,0,209
4,28,80,1
4,28,0,29
4,33,85,1
4,33,0,29
4,35,100,1
4,35,0,29
4,36,98,1
4,36,0,179
