track,note,velocity,time
1.0,45.0,127.0,0.0
1.0,45.0,0.0,384.0
1.0,44.0,127.0,0.0
1.0,44.0,0.0,384.0
1.0,43.0,127.0,0.0
1.0,43.0,0.0,384.0
1.0,42.0,127.0,0.0
1.0,42.0,0.0,384.0
1.0,38.0,127.0,0.0
1.0,38.0,0.0,768.0
1.0,40.0,127.0,0.0
1.0,40.0,0.0,768.0
2.0,76.0,127.0,0.0
2.0,72.0,127.0,0.0
2.0,69.0,127.0,0.0
2.0,69.0,0.0,288.0
2.0,72.0,0.0,0.0
2.0,76.0,0.0,0.0
2.0,76.0,127.0,0.0
2.0,72.0,127.0,0.0
2.0,69.0,127.0,0.0
2.0,69.0,0.0,96.0
2.0,72.0,0.0,0.0
2.0,76.0,0.0,0.0
2.0,76.0,127.0,0.0
2.0,72.0,127.0,0.0
2.0,69.0,127.0,0.0
2.0,69.0,0.0,288.0
2.0,72.0,0.0,0.0
2.0,76.0,0.0,0.0
2.0,76.0,127.0,0.0
2.0,72.0,127.0,0.0
2.0,69.0,127.0,0.0
2.0,69.0,0.0,96.0
2.0,72.0,0.0,0.0
2.0,76.0,0.0,0.0
2.0,76.0,127.0,0.0
2.0,72.0,127.0,0.0
2.0,69.0,127.0,0.0
2.0,69.0,0.0,288.0
2.0,72.0,0.0,0.0
2.0,76.0,0.0,0.0
2.0,76.0,127.0,0.0
2.0,72.0,127.0,0.0
2.0,69.0,127.0,0.0
2.0,69.0,0.0,96.0
2.0,72.0,0.0,0.0
2.0,76.0,0.0,0.0
2.0,76.0,127.0,0.0
2.0,72.0,127.0,0.0
2.0,69.0,127.0,0.0
2.0,69.0,0.0,384.0
2.0,72.0,0.0,0.0
2.0,76.0,0.0,0.0
2.0,76.0,127.0,0.0
2.0,72.0,127.0,0.0
2.0,69.0,127.0,0.0
2.0,65.0,127.0,0.0
2.0,65.0,0.0,192.0
2.0,76.0,0.0,0.0
2.0,72.0,0.0,0.0
2.0,69.0,0.0,0.0
2.0,74.0,127.0,0.0
2.0,62.0,127.0,0.0
2.0,62.0,0.0,96.0
2.0,74.0,0.0,0.0
2.0,77.0,127.0,0.0
2.0,65.0,127.0,0.0
2.0,65.0,0.0,96.0
2.0,77.0,0.0,0.0
2.0,81.0,127.0,0.0
2.0,69.0,127.0,0.0
2.0,69.0,0.0,96.0
2.0,81.0,0.0,0.0
2.0,84.0,127.0,0.0
2.0,72.0,127.0,0.0
2.0,72.0,0.0,96.0
2.0,84.0,0.0,0.0
2.0,74.0,127.0,96.0
2.0,86.0,127.0,0.0
2.0,86.0,0.0,96.0
2.0,74.0,0.0,0.0
2.0,88.0,127.0,0.0
2.0,76.0,127.0,0.0
2.0,76.0,0.0,96.0
2.0,88.0,0.0,0.0
2.0,72.0,127.0,0.0
2.0,84.0,127.0,0.0
2.0,84.0,0.0,96.0
2.0,72.0,0.0,0.0
2.0,80.0,127.0,0.0
2.0,68.0,127.0,0.0
2.0,68.0,0.0,96.0
2.0,80.0,0.0,0.0
2.0,76.0,127.0,0.0
2.0,64.0,127.0,0.0
2.0,64.0,0.0,96.0
2.0,76.0,0.0,0.0
2.0,72.0,127.0,0.0
2.0,60.0,127.0,0.0
2.0,60.0,0.0,96.0
2.0,72.0,0.0,0.0
2.0,68.0,127.0,0.0
2.0,56.0,127.0,0.0
2.0,56.0,0.0,96.0
2.0,68.0,0.0,0.0
2.0,64.0,127.0,0.0
2.0,64.0,0.0,48.0
2.0,68.0,127.0,0.0
2.0,68.0,0.0,48.0
2.0,72.0,127.0,0.0
2.0,76.0,127.0,0.0
2.0,68.0,127.0,0.0
2.0,68.0,0.0,48.0
2.0,76.0,0.0,0.0
2.0,72.0,0.0,0.0
2.0,68.0,127.0,0.0
2.0,68.0,0.0,48.0
2.0,72.0,127.0,0.0
2.0,69.0,127.0,0.0
2.0,64.0,127.0,0.0
2.0,64.0,0.0,192.0
2.0,69.0,0.0,0.0
2.0,72.0,0.0,0.0
2.0,60.0,127.0,0.0
2.0,57.0,127.0,0.0
2.0,64.0,127.0,0.0
2.0,64.0,0.0,192.0
2.0,57.0,0.0,0.0
2.0,60.0,0.0,0.0
2.0,64.0,127.0,0.0
2.0,60.0,127.0,0.0
2.0,57.0,127.0,0.0
2.0,57.0,0.0,384.0
2.0,60.0,0.0,0.0
2.0,60.0,127.0,0.0
2.0,57.0,127.0,0.0
2.0,57.0,0.0,384.0
2.0,60.0,0.0,0.0
2.0,64.0,0.0,0.0
2.0,62.0,127.0,0.0
2.0,57.0,127.0,0.0
2.0,65.0,127.0,0.0
2.0,65.0,0.0,192.0
2.0,57.0,0.0,0.0
2.0,62.0,0.0,0.0
2.0,62.0,127.0,0.0
2.0,56.0,127.0,0.0
2.0,52.0,127.0,0.0
2.0,52.0,0.0,192.0
2.0,56.0,0.0,0.0
2.0,62.0,0.0,0.0
2.0,57.0,127.0,0.0
2.0,52.0,127.0,0.0
2.0,52.0,0.0,192.0
2.0,57.0,0.0,0.0
2.0,60.0,127.0,0.0
2.0,57.0,127.0,0.0
2.0,64.0,127.0,0.0
2.0,64.0,0.0,192.0
2.0,57.0,0.0,0.0
2.0,60.0,0.0,0.0
2.0,64.0,127.0,0.0
2.0,60.0,127.0,0.0
2.0,57.0,127.0,0.0
2.0,57.0,0.0,384.0
2.0,60.0,0.0,0.0
2.0,60.0,127.0,0.0
2.0,57.0,127.0,0.0
2.0,57.0,0.0,384.0
2.0,60.0,0.0,0.0
2.0,64.0,0.0,0.0
2.0,62.0,127.0,0.0
2.0,57.0,127.0,0.0
2.0,65.0,127.0,0.0
2.0,65.0,0.0,192.0
2.0,57.0,0.0,0.0
2.0,62.0,0.0,0.0
2.0,62.0,127.0,0.0
2.0,56.0,127.0,0.0
2.0,52.0,127.0,0.0
2.0,52.0,0.0,192.0
2.0,56.0,0.0,0.0
2.0,62.0,0.0,0.0
2.0,55.0,127.0,0.0
2.0,52.0,127.0,0.0
2.0,52.0,0.0,384.0
2.0,55.0,0.0,0.0
2.0,60.0,127.0,0.0
2.0,57.0,127.0,0.0
2.0,53.0,127.0,0.0
2.0,53.0,0.0,384.0
2.0,57.0,0.0,0.0
2.0,60.0,0.0,0.0
2.0,59.0,127.0,0.0
2.0,56.0,127.0,0.0
2.0,64.0,127.0,192.0
2.0,64.0,0.0,192.0
2.0,56.0,0.0,0.0
2.0,59.0,0.0,0.0
2.0,62.0,127.0,0.0
2.0,57.0,127.0,0.0
2.0,53.0,127.0,0.0
2.0,53.0,0.0,384.0
2.0,57.0,0.0,0.0
2.0,62.0,0.0,0.0
2.0,64.0,127.0,0.0
2.0,60.0,127.0,0.0
2.0,57.0,127.0,0.0
2.0,57.0,0.0,384.0
2.0,60.0,0.0,0.0
2.0,64.0,0.0,0.0
2.0,60.0,127.0,0.0
2.0,64.0,127.0,0.0
2.0,71.0,127.0,0.0
2.0,71.0,0.0,384.0
2.0,64.0,0.0,0.0
2.0,60.0,0.0,0.0
2.0,66.0,127.0,0.0
2.0,63.0,127.0,0.0
2.0,63.0,0.0,384.0
2.0,66.0,0.0,0.0
2.0,66.0,127.0,0.0
2.0,63.0,127.0,0.0
2.0,63.0,0.0,384.0
2.0,66.0,0.0,0.0
2.0,64.0,127.0,0.0
2.0,60.0,127.0,0.0
2.0,60.0,0.0,384.0
2.0,64.0,0.0,0.0
2.0,62.0,127.0,0.0
2.0,58.0,127.0,0.0
2.0,58.0,0.0,384.0
2.0,62.0,0.0,0.0
2.0,67.0,127.0,0.0
2.0,64.0,127.0,0.0
2.0,57.0,127.0,0.0
2.0,61.0,127.0,0.0
2.0,61.0,0.0,384.0
2.0,67.0,0.0,0.0
2.0,64.0,0.0,0.0
2.0,57.0,0.0,0.0
2.0,61.0,127.0,0.0
2.0,64.0,127.0,0.0
2.0,64.0,0.0,384.0
2.0,61.0,0.0,0.0
2.0,64.0,127.0,0.0
2.0,60.0,127.0,0.0
2.0,57.0,127.0,0.0
2.0,57.0,0.0,384.0
2.0,60.0,0.0,0.0
2.0,64.0,0.0,0.0
2.0,57.0,127.0,0.0
2.0,53.0,127.0,0.0
2.0,53.0,0.0,384.0
2.0,57.0,0.0,0.0
2.0,64.0,127.0,0.0
2.0,57.0,127.0,0.0
2.0,53.0,127.0,0.0
2.0,53.0,0.0,384.0
2.0,57.0,0.0,0.0
2.0,64.0,0.0,0.0
2.0,60.0,127.0,0.0
2.0,52.0,127.0,0.0
2.0,56.0,127.0,0.0
2.0,56.0,0.0,384.0
2.0,52.0,0.0,0.0
2.0,60.0,0.0,0.0
2.0,64.0,127.0,0.0
2.0,60.0,127.0,0.0
2.0,60.0,0.0,384.0
2.0,64.0,0.0,0.0
2.0,66.0,127.0,0.0
2.0,59.0,127.0,0.0
2.0,59.0,0.0,384.0
2.0,66.0,0.0,0.0
2.0,64.0,127.0,0.0
2.0,60.0,127.0,0.0
2.0,60.0,0.0,384.0
2.0,64.0,0.0,0.0
2.0,64.0,127.0,0.0
2.0,60.0,127.0,0.0
2.0,60.0,0.0,384.0
2.0,64.0,0.0,0.0
2.0,65.0,127.0,0.0
2.0,60.0,127.0,0.0
2.0,60.0,0.0,384.0
2.0,65.0,0.0,0.0
2.0,64.0,127.0,384.0
2.0,60.0,127.0,0.0
2.0,60.0,0.0,384.0
2.0,64.0,0.0,0.0
2.0,64.0,127.0,0.0
2.0,58.0,127.0,0.0
2.0,55.0,127.0,0.0
2.0,55.0,0.0,384.0
2.0,58.0,0.0,0.0
2.0,64.0,0.0,0.0
2.0,65.0,127.0,0.0
2.0,62.0,127.0,0.0
2.0,57.0,127.0,0.0
2.0,57.0,0.0,384.0
2.0,62.0,0.0,0.0
2.0,65.0,0.0,0.0
2.0,65.0,127.0,0.0
2.0,62.0,127.0,0.0
2.0,62.0,0.0,384.0
2.0,65.0,0.0,0.0
2.0,59.0,127.0,0.0
2.0,59.0,0.0,384.0
2.0,64.0,127.0,0.0
2.0,59.0,127.0,0.0
2.0,56.0,127.0,0.0
2.0,56.0,0.0,384.0
2.0,59.0,0.0,0.0
2.0,64.0,0.0,0.0
2.0,72.0,127.0,0.0
2.0,69.0,127.0,0.0
2.0,64.0,127.0,0.0
2.0,64.0,0.0,192.0
2.0,69.0,0.0,0.0
2.0,72.0,0.0,0.0
2.0,60.0,127.0,0.0
2.0,57.0,127.0,0.0
2.0,64.0,127.0,0.0
2.0,64.0,0.0,192.0
2.0,57.0,0.0,0.0
2.0,60.0,0.0,0.0
2.0,64.0,127.0,0.0
2.0,60.0,127.0,0.0
2.0,57.0,127.0,0.0
2.0,57.0,0.0,384.0
2.0,60.0,0.0,0.0
2.0,60.0,127.0,0.0
2.0,57.0,127.0,0.0
2.0,57.0,0.0,384.0
2.0,60.0,0.0,0.0
2.0,64.0,0.0,0.0
2.0,62.0,127.0,0.0
2.0,57.0,127.0,0.0
2.0,65.0,127.0,0.0
2.0,65.0,0.0,192.0
2.0,57.0,0.0,0.0
2.0,62.0,0.0,0.0
2.0,62.0,127.0,0.0
2.0,56.0,127.0,0.0
2.0,52.0,127.0,0.0
2.0,52.0,0.0,192.0
2.0,56.0,0.0,0.0
2.0,62.0,0.0,0.0
2.0,57.0,127.0,0.0
2.0,52.0,127.0,0.0
2.0,52.0,0.0,192.0
2.0,57.0,0.0,0.0
2.0,60.0,127.0,0.0
2.0,57.0,127.0,0.0
2.0,64.0,127.0,0.0
2.0,64.0,0.0,192.0
2.0,57.0,0.0,0.0
2.0,60.0,0.0,0.0
2.0,64.0,127.0,0.0
2.0,60.0,127.0,0.0
2.0,57.0,127.0,0.0
2.0,57.0,0.0,384.0
2.0,60.0,0.0,0.0
2.0,60.0,127.0,0.0
2.0,57.0,127.0,0.0
2.0,57.0,0.0,384.0
2.0,60.0,0.0,0.0
2.0,64.0,0.0,0.0
2.0,62.0,127.0,0.0
2.0,57.0,127.0,0.0
2.0,65.0,127.0,0.0
2.0,65.0,0.0,192.0
2.0,57.0,0.0,0.0
2.0,62.0,0.0,0.0
2.0,62.0,127.0,0.0
2.0,56.0,127.0,0.0
2.0,52.0,127.0,0.0
2.0,52.0,0.0,192.0
2.0,56.0,0.0,0.0
2.0,62.0,0.0,0.0
2.0,55.0,127.0,0.0
2.0,52.0,127.0,0.0
2.0,52.0,0.0,384.0
2.0,55.0,0.0,0.0
2.0,60.0,127.0,0.0
2.0,57.0,127.0,0.0
2.0,53.0,127.0,0.0
2.0,53.0,0.0,384.0
2.0,57.0,0.0,0.0
2.0,60.0,0.0,0.0
2.0,59.0,127.0,0.0
2.0,56.0,127.0,0.0
2.0,64.0,127.0,192.0
2.0,64.0,0.0,192.0
2.0,56.0,0.0,0.0
2.0,59.0,0.0,0.0
2.0,62.0,127.0,0.0
2.0,57.0,127.0,0.0
2.0,53.0,127.0,0.0
2.0,53.0,0.0,384.0
2.0,57.0,0.0,0.0
2.0,62.0,0.0,0.0
2.0,64.0,127.0,0.0
2.0,60.0,127.0,0.0
2.0,57.0,127.0,0.0
2.0,57.0,0.0,384.0
2.0,60.0,0.0,0.0
2.0,64.0,0.0,0.0
2.0,60.0,127.0,0.0
2.0,64.0,127.0,0.0
2.0,71.0,127.0,0.0
2.0,71.0,0.0,384.0
2.0,64.0,0.0,0.0
2.0,60.0,0.0,0.0
2.0,66.0,127.0,0.0
2.0,63.0,127.0,0.0
2.0,63.0,0.0,384.0
2.0,66.0,0.0,0.0
2.0,66.0,127.0,0.0
2.0,63.0,127.0,0.0
2.0,63.0,0.0,384.0
2.0,66.0,0.0,0.0
2.0,64.0,127.0,0.0
2.0,60.0,127.0,0.0
2.0,60.0,0.0,384.0
2.0,64.0,0.0,0.0
2.0,62.0,127.0,0.0
2.0,58.0,127.0,0.0
2.0,58.0,0.0,384.0
2.0,62.0,0.0,0.0
2.0,67.0,127.0,0.0
2.0,64.0,127.0,0.0
2.0,57.0,127.0,0.0
2.0,61.0,127.0,0.0
2.0,61.0,0.0,384.0
2.0,67.0,0.0,0.0
2.0,64.0,0.0,0.0
2.0,57.0,0.0,0.0
2.0,61.0,127.0,0.0
2.0,64.0,127.0,0.0
2.0,64.0,0.0,384.0
2.0,61.0,0.0,0.0
2.0,64.0,127.0,0.0
2.0,60.0,127.0,0.0
2.0,57.0,127.0,0.0
2.0,57.0,0.0,384.0
2.0,60.0,0.0,0.0
2.0,64.0,0.0,0.0
2.0,57.0,127.0,0.0
2.0,53.0,127.0,0.0
2.0,53.0,0.0,384.0
2.0,57.0,0.0,0.0
2.0,64.0,127.0,0.0
2.0,57.0,127.0,0.0
2.0,53.0,127.0,0.0
2.0,53.0,0.0,384.0
2.0,57.0,0.0,0.0
2.0,64.0,0.0,0.0
2.0,60.0,127.0,0.0
2.0,52.0,127.0,0.0
2.0,56.0,127.0,0.0
2.0,56.0,0.0,384.0
2.0,52.0,0.0,0.0
2.0,60.0,0.0,0.0
2.0,64.0,127.0,0.0
2.0,60.0,127.0,0.0
2.0,60.0,0.0,384.0
2.0,64.0,0.0,0.0
2.0,47.0,127.0,0.0
2.0,47.0,0.0,48.0
2.0,48.0,127.0,0.0
2.0,48.0,0.0,48.0
2.0,51.0,127.0,0.0
2.0,51.0,0.0,48.0
2.0,54.0,127.0,0.0
2.0,54.0,0.0,48.0
2.0,57.0,127.0,0.0
2.0,57.0,0.0,192.0
2.0,62.0,127.0,0.0
2.0,65.0,127.0,0.0
2.0,65.0,0.0,768.0
2.0,62.0,0.0,0.0
2.0,64.0,127.0,384.0
2.0,60.0,127.0,0.0
2.0,69.0,127.0,384.0
2.0,57.0,127.0,0.0
2.0,69.0,0.0,384.0
2.0,64.0,0.0,0.0
2.0,60.0,0.0,0.0
2.0,57.0,0.0,65151.0
3.0,45.0,127.0,0.0
3.0,45.0,0.0,288.0
3.0,45.0,127.0,0.0
3.0,45.0,0.0,96.0
3.0,44.0,127.0,0.0
3.0,44.0,0.0,288.0
3.0,44.0,127.0,0.0
3.0,44.0,0.0,96.0
3.0,43.0,127.0,0.0
3.0,43.0,0.0,288.0
3.0,43.0,127.0,0.0
3.0,43.0,0.0,96.0
3.0,42.0,127.0,0.0
3.0,42.0,0.0,384.0
3.0,38.0,127.0,0.0
3.0,38.0,0.0,576.0
3.0,38.0,127.0,0.0
3.0,38.0,0.0,192.0
3.0,40.0,127.0,0.0
3.0,40.0,0.0,768.0
3.0,33.0,127.0,0.0
3.0,33.0,0.0,384.0
3.0,32.0,127.0,0.0
3.0,32.0,0.0,288.0
3.0,32.0,127.0,0.0
3.0,32.0,0.0,96.0
3.0,31.0,127.0,0.0
3.0,31.0,0.0,384.0
3.0,35.0,127.0,0.0
3.0,35.0,0.0,192.0
3.0,28.0,127.0,0.0
3.0,28.0,0.0,192.0
3.0,33.0,127.0,0.0
3.0,33.0,0.0,384.0
3.0,32.0,127.0,0.0
3.0,32.0,0.0,288.0
3.0,32.0,127.0,0.0
3.0,32.0,0.0,96.0
3.0,31.0,127.0,0.0
3.0,31.0,0.0,384.0
3.0,35.0,127.0,0.0
3.0,35.0,0.0,192.0
3.0,28.0,127.0,0.0
3.0,28.0,0.0,192.0
3.0,24.0,127.0,0.0
3.0,24.0,0.0,384.0
3.0,29.0,127.0,0.0
3.0,29.0,0.0,192.0
3.0,29.0,127.0,0.0
3.0,29.0,0.0,192.0
3.0,28.0,127.0,0.0
3.0,28.0,0.0,384.0
3.0,26.0,127.0,0.0
3.0,26.0,0.0,288.0
3.0,26.0,127.0,0.0
3.0,26.0,0.0,96.0
3.0,33.0,127.0,0.0
3.0,33.0,0.0,96.0
3.0,28.0,127.0,0.0
3.0,28.0,0.0,96.0
3.0,33.0,127.0,0.0
3.0,33.0,0.0,192.0
3.0,33.0,127.0,0.0
3.0,33.0,0.0,96.0
3.0,28.0,127.0,0.0
3.0,28.0,0.0,96.0
3.0,33.0,127.0,0.0
3.0,33.0,0.0,192.0
3.0,33.0,127.0,0.0
3.0,33.0,0.0,96.0
3.0,28.0,127.0,0.0
3.0,28.0,0.0,96.0
3.0,33.0,127.0,0.0
3.0,33.0,0.0,192.0
3.0,33.0,127.0,0.0
3.0,33.0,0.0,96.0
3.0,28.0,127.0,0.0
3.0,28.0,0.0,96.0
3.0,33.0,127.0,0.0
3.0,33.0,0.0,192.0
3.0,36.0,127.0,0.0
3.0,36.0,0.0,288.0
3.0,36.0,127.0,0.0
3.0,36.0,0.0,96.0
3.0,34.0,127.0,0.0
3.0,34.0,0.0,288.0
3.0,34.0,127.0,0.0
3.0,34.0,0.0,96.0
3.0,33.0,127.0,0.0
3.0,33.0,0.0,288.0
3.0,33.0,127.0,0.0
3.0,33.0,0.0,96.0
3.0,31.0,127.0,0.0
3.0,31.0,0.0,384.0
3.0,38.0,127.0,0.0
3.0,38.0,0.0,192.0
3.0,38.0,127.0,0.0
3.0,38.0,0.0,192.0
3.0,36.0,127.0,0.0
3.0,36.0,0.0,384.0
3.0,35.0,127.0,0.0
3.0,35.0,0.0,288.0
3.0,35.0,127.0,0.0
3.0,35.0,0.0,96.0
3.0,28.0,127.0,0.0
3.0,28.0,0.0,192.0
3.0,28.0,127.0,0.0
3.0,28.0,0.0,192.0
3.0,33.0,127.0,0.0
3.0,33.0,0.0,288.0
3.0,33.0,127.0,0.0
3.0,33.0,0.0,96.0
3.0,39.0,127.0,0.0
3.0,39.0,0.0,384.0
3.0,33.0,127.0,0.0
3.0,33.0,0.0,288.0
3.0,28.0,127.0,0.0
3.0,28.0,0.0,96.0
3.0,33.0,127.0,0.0
3.0,33.0,0.0,192.0
3.0,31.0,127.0,0.0
3.0,31.0,0.0,192.0
3.0,29.0,127.0,0.0
3.0,29.0,0.0,96.0
3.0,29.0,127.0,0.0
3.0,29.0,0.0,288.0
3.0,35.0,127.0,0.0
3.0,35.0,0.0,96.0
3.0,35.0,127.0,0.0
3.0,35.0,0.0,288.0
3.0,36.0,127.0,0.0
3.0,36.0,0.0,192.0
3.0,36.0,127.0,0.0
3.0,36.0,0.0,192.0
3.0,37.0,127.0,0.0
3.0,37.0,0.0,96.0
3.0,37.0,127.0,0.0
3.0,37.0,0.0,288.0
3.0,38.0,127.0,0.0
3.0,38.0,0.0,96.0
3.0,38.0,127.0,0.0
3.0,38.0,0.0,288.0
3.0,35.0,127.0,0.0
3.0,35.0,0.0,96.0
3.0,35.0,127.0,0.0
3.0,35.0,0.0,288.0
3.0,28.0,127.0,0.0
3.0,28.0,0.0,96.0
3.0,35.0,127.0,0.0
3.0,35.0,0.0,96.0
3.0,40.0,127.0,0.0
3.0,40.0,0.0,96.0
3.0,35.0,127.0,0.0
3.0,35.0,0.0,96.0
3.0,28.0,127.0,0.0
3.0,28.0,0.0,96.0
3.0,35.0,127.0,0.0
3.0,35.0,0.0,96.0
3.0,28.0,127.0,0.0
3.0,28.0,0.0,192.0
3.0,33.0,127.0,0.0
3.0,33.0,0.0,384.0
3.0,32.0,127.0,0.0
3.0,32.0,0.0,288.0
3.0,32.0,127.0,0.0
3.0,32.0,0.0,96.0
3.0,31.0,127.0,0.0
3.0,31.0,0.0,384.0
3.0,35.0,127.0,0.0
3.0,35.0,0.0,192.0
3.0,28.0,127.0,0.0
3.0,28.0,0.0,192.0
3.0,33.0,127.0,0.0
3.0,33.0,0.0,384.0
3.0,32.0,127.0,0.0
3.0,32.0,0.0,288.0
3.0,32.0,127.0,0.0
3.0,32.0,0.0,96.0
3.0,31.0,127.0,0.0
3.0,31.0,0.0,384.0
3.0,35.0,127.0,0.0
3.0,35.0,0.0,192.0
3.0,28.0,127.0,0.0
3.0,28.0,0.0,192.0
3.0,24.0,127.0,0.0
3.0,24.0,0.0,384.0
3.0,29.0,127.0,0.0
3.0,29.0,0.0,192.0
3.0,29.0,127.0,0.0
3.0,29.0,0.0,192.0
3.0,28.0,127.0,0.0
3.0,28.0,0.0,384.0
3.0,26.0,127.0,0.0
3.0,26.0,0.0,288.0
3.0,26.0,127.0,0.0
3.0,26.0,0.0,96.0
3.0,33.0,127.0,0.0
3.0,33.0,0.0,96.0
3.0,28.0,127.0,0.0
3.0,28.0,0.0,96.0
3.0,33.0,127.0,0.0
3.0,33.0,0.0,192.0
3.0,33.0,127.0,0.0
3.0,33.0,0.0,96.0
3.0,28.0,127.0,0.0
3.0,28.0,0.0,96.0
3.0,33.0,127.0,0.0
3.0,33.0,0.0,192.0
3.0,33.0,127.0,0.0
3.0,33.0,0.0,96.0
3.0,28.0,127.0,0.0
3.0,28.0,0.0,96.0
3.0,33.0,127.0,0.0
3.0,33.0,0.0,192.0
3.0,33.0,127.0,0.0
3.0,33.0,0.0,96.0
3.0,28.0,127.0,0.0
3.0,28.0,0.0,96.0
3.0,33.0,127.0,0.0
3.0,33.0,0.0,192.0
3.0,36.0,127.0,0.0
3.0,36.0,0.0,288.0
3.0,36.0,127.0,0.0
3.0,36.0,0.0,96.0
3.0,34.0,127.0,0.0
3.0,34.0,0.0,288.0
3.0,34.0,127.0,0.0
3.0,34.0,0.0,96.0
3.0,33.0,127.0,0.0
3.0,33.0,0.0,288.0
3.0,33.0,127.0,0.0
3.0,33.0,0.0,96.0
3.0,31.0,127.0,0.0
3.0,31.0,0.0,384.0
3.0,38.0,127.0,0.0
3.0,38.0,0.0,192.0
3.0,38.0,127.0,0.0
3.0,38.0,0.0,192.0
3.0,36.0,127.0,0.0
3.0,36.0,0.0,384.0
3.0,35.0,127.0,0.0
3.0,35.0,0.0,288.0
3.0,35.0,127.0,0.0
3.0,35.0,0.0,96.0
3.0,28.0,127.0,0.0
3.0,28.0,0.0,192.0
3.0,28.0,127.0,0.0
3.0,28.0,0.0,192.0
3.0,33.0,127.0,0.0
3.0,33.0,0.0,384.0
3.0,35.0,127.0,384.0
3.0,35.0,0.0,768.0
3.0,33.0,127.0,384.0
3.0,33.0,0.0,65535.0
0.0,0.0,0.0,0.0
0.0,0.0,0.0,0.0
0.0,0.0,0.0,0.0
0.0,0.0,0.0,0.0
0.0,0.0,0.0,0.0
0.0,0.0,0.0,0.0
0.0,0.0,0.0,0.0
0.0,0.0,0.0,0.0
0.0,0.0,0.0,0.0
0.0,0.0,0.0,0.0
0.0,0.0,0.0,0.0
0.0,0.0,0.0,0.0
0.0,0.0,0.0,0.0
0.0,0.0,0.0,0.0
0.0,0.0,0.0,0.0
0.0,0.0,0.0,0.0
0.0,0.0,0.0,0.0
0.0,0.0,0.0,0.0
0.0,0.0,0.0,0.0
0.0,0.0,0.0,0.0
0.0,0.0,0.0,0.0
0.0,0.0,0.0,0.0
0.0,0.0,0.0,0.0
0.0,0.0,0.0,0.0
0.0,0.0,0.0,0.0
0.0,0.0,0.0,0.0
0.0,0.0,0.0,0.0
0.0,0.0,0.0,0.0
0.0,0.0,0.0,0.0
0.0,0.0,0.0,0.0
0.0,0.0,0.0,0.0
0.0,0.0,0.0,0.0
0.0,0.0,0.0,0.0
0.0,0.0,0.0,0.0
0.0,0.0,0.0,0.0
0.0,0.0,0.0,0.0
0.0,0.0,0.0,0.0
0.0,0.0,0.0,0.0
0.0,0.0,0.0,0.0
0.0,0.0,0.0,0.0
0.0,0.0,0.0,0.0
0.0,0.0,0.0,0.0
0.0,0.0,0.0,0.0
0.0,0.0,0.0,0.0
0.0,0.0,0.0,0.0
0.0,0.0,0.0,0.0
0.0,0.0,0.0,0.0
0.0,0.0,0.0,0.0
0.0,0.0,0.0,0.0
0.0,0.0,0.0,0.0
0.0,0.0,0.0,0.0
0.0,0.0,0.0,0.0
0.0,0.0,0.0,0.0
0.0,0.0,0.0,0.0
0.0,0.0,0.0,0.0
0.0,0.0,0.0,0.0
0.0,0.0,0.0,0.0
0.0,0.0,0.0,0.0
0.0,0.0,0.0,0.0
0.0,0.0,0.0,0.0
0.0,0.0,0.0,0.0
0.0,0.0,0.0,0.0
0.0,0.0,0.0,0.0
0.0,0.0,0.0,0.0
0.0,0.0,0.0,0.0
0.0,0.0,0.0,0.0
0.0,0.0,0.0,0.0
0.0,0.0,0.0,0.0
0.0,0.0,0.0,0.0
0.0,0.0,0.0,0.0
0.0,0.0,0.0,0.0
0.0,0.0,0.0,0.0
0.0,0.0,0.0,0.0
0.0,0.0,0.0,0.0
0.0,0.0,0.0,0.0
0.0,0.0,0.0,0.0
0.0,0.0,0.0,0.0
0.0,0.0,0.0,0.0
0.0,0.0,0.0,0.0
0.0,0.0,0.0,0.0
0.0,0.0,0.0,0.0
0.0,0.0,0.0,0.0
0.0,0.0,0.0,0.0
0.0,0.0,0.0,0.0
0.0,0.0,0.0,0.0
0.0,0.0,0.0,0.0
0.0,0.0,0.0,0.0
0.0,0.0,0.0,0.0
0.0,0.0,0.0,0.0
0.0,0.0,0.0,0.0
0.0,0.0,0.0,0.0
0.0,0.0,0.0,0.0
0.0,0.0,0.0,0.0
0.0,0.0,0.0,0.0
0.0,0.0,0.0,0.0
0.0,0.0,0.0,0.0
0.0,0.0,0.0,0.0
0.0,0.0,0.0,0.0
0.0,0.0,0.0,0.0
0.0,0.0,0.0,0.0
0.0,0.0,0.0,0.0
0.0,0.0,0.0,0.0
0.0,0.0,0.0,0.0
0.0,0.0,0.0,0.0
0.0,0.0,0.0,0.0
0.0,0.0,0.0,0.0
0.0,0.0,0.0,0.0
0.0,0.0,0.0,0.0
0.0,0.0,0.0,0.0
0.0,0.0,0.0,0.0
0.0,0.0,0.0,0.0
0.0,0.0,0.0,0.0
0.0,0.0,0.0,0.0
0.0,0.0,0.0,0.0
0.0,0.0,0.0,0.0
0.0,0.0,0.0,0.0
0.0,0.0,0.0,0.0
0.0,0.0,0.0,0.0
0.0,0.0,0.0,0.0
0.0,0.0,0.0,0.0
0.0,0.0,0.0,0.0
0.0,0.0,0.0,0.0
0.0,0.0,0.0,0.0
0.0,0.0,0.0,0.0
0.0,0.0,0.0,0.0
0.0,0.0,0.0,0.0
0.0,0.0,0.0,0.0
0.0,0.0,0.0,0.0
0.0,0.0,0.0,0.0
0.0,0.0,0.0,0.0
0.0,0.0,0.0,0.0
0.0,0.0,0.0,0.0
0.0,0.0,0.0,0.0
0.0,0.0,0.0,0.0
0.0,0.0,0.0,0.0
0.0,0.0,0.0,0.0
0.0,0.0,0.0,0.0
0.0,0.0,0.0,0.0
0.0,0.0,0.0,0.0
0.0,0.0,0.0,0.0
0.0,0.0,0.0,0.0
0.0,0.0,0.0,0.0
0.0,0.0,0.0,0.0
0.0,0.0,0.0,0.0
0.0,0.0,0.0,0.0
0.0,0.0,0.0,0.0
0.0,0.0,0.0,0.0
0.0,0.0,0.0,0.0
0.0,0.0,0.0,0.0
0.0,0.0,0.0,0.0
0.0,0.0,0.0,0.0
0.0,0.0,0.0,0.0
0.0,0.0,0.0,0.0
0.0,0.0,0.0,0.0
0.0,0.0,0.0,0.0
0.0,0.0,0.0,0.0
0.0,0.0,0.0,0.0
0.0,0.0,0.0,0.0
0.0,0.0,0.0,0.0
0.0,0.0,0.0,0.0
0.0,0.0,0.0,0.0
0.0,0.0,0.0,0.0
0.0,0.0,0.0,0.0
0.0,0.0,0.0,0.0
0.0,0.0,0.0,0.0
0.0,0.0,0.0,0.0
0.0,0.0,0.0,0.0
0.0,0.0,0.0,0.0
0.0,0.0,0.0,0.0
0.0,0.0,0.0,0.0
0.0,0.0,0.0,0.0
0.0,0.0,0.0,0.0
0.0,0.0,0.0,0.0
0.0,0.0,0.0,0.0
0.0,0.0,0.0,0.0
0.0,0.0,0.0,0.0
0.0,0.0,0.0,0.0
0.0,0.0,0.0,0.0
0.0,0.0,0.0,0.0
0.0,0.0,0.0,0.0
0.0,0.0,0.0,0.0
0.0,0.0,0.0,0.0
0.0,0.0,0.0,0.0
0.0,0.0,0.0,0.0
0.0,0.0,0.0,0.0
0.0,0.0,0.0,0.0
0.0,0.0,0.0,0.0
0.0,0.0,0.0,0.0
0.0,0.0,0.0,0.0
0.0,0.0,0.0,0.0
0.0,0.0,0.0,0.0
0.0,0.0,0.0,0.0
0.0,0.0,0.0,0.0
0.0,0.0,0.0,0.0
0.0,0.0,0.0,0.0
0.0,0.0,0.0,0.0
0.0,0.0,0.0,0.0
0.0,0.0,0.0,0.0
0.0,0.0,0.0,0.0
0.0,0.0,0.0,0.0
0.0,0.0,0.0,0.0
0.0,0.0,0.0,0.0
0.0,0.0,0.0,0.0
0.0,0.0,0.0,0.0
0.0,0.0,0.0,0.0
0.0,0.0,0.0,0.0
0.0,0.0,0.0,0.0
0.0,0.0,0.0,0.0
0.0,0.0,0.0,0.0
0.0,0.0,0.0,0.0
0.0,0.0,0.0,0.0
0.0,0.0,0.0,0.0
0.0,0.0,0.0,0.0
0.0,0.0,0.0,0.0
0.0,0.0,0.0,0.0
0.0,0.0,0.0,0.0
0.0,0.0,0.0,0.0
0.0,0.0,0.0,0.0
0.0,0.0,0.0,0.0
0.0,0.0,0.0,0.0
0.0,0.0,0.0,0.0
0.0,0.0,0.0,0.0
0.0,0.0,0.0,0.0
0.0,0.0,0.0,0.0
0.0,0.0,0.0,0.0
0.0,0.0,0.0,0.0
0.0,0.0,0.0,0.0
0.0,0.0,0.0,0.0
0.0,0.0,0.0,0.0
0.0,0.0,0.0,0.0
0.0,0.0,0.0,0.0
0.0,0.0,0.0,0.0
0.0,0.0,0.0,0.0
0.0,0.0,0.0,0.0
0.0,0.0,0.0,0.0
0.0,0.0,0.0,0.0
0.0,0.0,0.0,0.0
0.0,0.0,0.0,0.0
0.0,0.0,0.0,0.0
0.0,0.0,0.0,0.0
0.0,0.0,0.0,0.0
0.0,0.0,0.0,0.0
0.0,0.0,0.0,0.0
0.0,0.0,0.0,0.0
0.0,0.0,0.0,0.0
0.0,0.0,0.0,0.0
0.0,0.0,0.0,0.0
0.0,0.0,0.0,0.0
0.0,0.0,0.0,0.0
0.0,0.0,0.0,0.0
0.0,0.0,0.0,0.0
0.0,0.0,0.0,0.0
0.0,0.0,0.0,0.0
0.0,0.0,0.0,0.0
