track,note,velocity,time
1,61,87,6144
1,57,87,0
1,57,0,192
1,61,0,0
1,69,87,0
1,64,87,0
1,61,87,0
1,57,87,0
1,57,0,192
1,69,0,0
1,64,0,0
1,61,0,0
1,68,87,0
1,64,87,0
1,61,87,0
1,57,87,0
1,57,0,192
1,68,0,0
1,64,0,0
1,61,0,0
1,57,87,0
1,61,87,0
1,64,87,0
1,69,87,0
1,69,0,192
1,57,0,0
1,61,0,0
1,64,0,0
1,71,87,0
1,64,87,0
1,61,87,0
1,61,0,288
1,64,0,0
1,71,0,0
1,69,87,0
1,69,0,96
1,69,87,0
1,64,87,0
1,61,87,0
1,57,87,0
1,57,0,384
1,69,0,0
1,64,0,0
1,61,0,0
1,66,87,0
1,62,87,0
1,57,87,0
1,57,0,384
1,62,0,0
1,66,0,0
1,69,87,0
1,66,87,0
1,62,87,0
1,62,0,192
1,66,0,0
1,69,0,0
1,66,87,0
1,62,87,0
1,62,0,192
1,66,0,0
1,64,87,0
1,59,87,0
1,56,87,0
1,56,0,192
1,59,0,0
1,64,0,0
1,68,87,0
1,64,87,0
1,59,87,0
1,59,0,192
1,64,0,0
1,68,0,0
1,73,87,0
1,68,87,0
1,64,87,0
1,64,0,192
1,68,0,0
1,73,0,0
1,71,87,0
1,68,87,0
1,64,87,0
1,64,0,192
1,68,0,0
1,71,0,0
1,61,87,0
1,69,87,0
1,64,87,0
1,64,0,192
1,69,0,0
1,61,0,0
1,69,87,96
1,69,0,96
1,68,87,0
1,64,87,0
1,61,87,0
1,57,87,0
1,57,0,192
1,68,0,0
1,64,0,0
1,61,0,0
1,57,87,0
1,61,87,0
1,64,87,0
1,69,87,0
1,69,0,192
1,57,0,0
1,61,0,0
1,64,0,0
1,71,87,0
1,64,87,0
1,61,87,0
1,61,0,288
1,64,0,0
1,71,0,0
1,69,87,0
1,69,0,96
1,69,87,0
1,64,87,0
1,61,87,0
1,57,87,0
1,57,0,384
1,69,0,0
1,64,0,0
1,61,0,0
1,66,87,192
1,62,87,0
1,57,87,0
1,57,0,192
1,62,0,0
1,66,0,0
1,57,87,0
1,62,87,0
1,66,87,0
1,66,0,192
1,62,0,0
1,57,0,0
1,61,87,192
1,59,87,0
1,56,87,0
1,65,87,0
1,65,0,96
1,61,0,0
1,59,0,0
1,56,0,0
1,65,87,0
1,65,0,96
1,65,87,0
1,65,0,96
1,66,87,0
1,61,87,0
1,59,87,0
1,56,87,0
1,56,0,192
1,66,0,0
1,61,0,0
1,59,0,0
1,68,87,0
1,68,0,192
1,69,87,0
1,66,87,0
1,61,87,0
1,61,0,288
1,66,0,0
1,69,0,0
1,61,87,0
1,66,87,0
1,69,87,0
1,69,0,96
1,66,0,0
1,61,0,0
1,69,87,0
1,69,0,96
1,69,87,0
1,66,87,0
1,61,87,0
1,61,0,192
1,66,0,0
1,69,0,0
1,69,87,0
1,69,0,192
1,68,87,0
1,59,87,0
1,63,87,0
1,63,0,192
1,59,0,0
1,68,0,0
1,66,87,0
1,66,0,96
1,63,87,0
1,66,87,0
1,59,87,0
1,59,0,192
1,66,0,0
1,63,0,0
1,68,87,0
1,68,0,96
1,69,87,0
1,69,0,192
1,69,87,192
1,66,87,0
1,61,87,0
1,61,0,96
1,66,0,0
1,69,0,0
1,69,87,0
1,69,0,96
1,69,87,0
1,66,87,0
1,61,87,0
1,61,0,192
1,66,0,0
1,69,0,0
1,68,87,0
1,68,0,96
1,68,87,0
1,59,87,0
1,63,87,0
1,63,0,288
1,59,0,0
1,68,0,0
1,66,87,0
1,66,0,96
1,68,87,0
1,64,87,0
1,59,87,0
1,59,0,288
1,64,0,0
1,68,0,0
1,68,87,0
1,68,0,96
1,66,87,0
1,66,0,96
1,61,87,9216
1,57,87,0
1,57,0,192
1,61,0,0
1,69,87,0
1,64,87,0
1,61,87,0
1,57,87,0
1,57,0,192
1,69,0,0
1,64,0,0
1,61,0,0
1,68,87,0
1,64,87,0
1,61,87,0
1,57,87,0
1,57,0,192
1,68,0,0
1,64,0,0
1,61,0,0
1,57,87,0
1,61,87,0
1,64,87,0
1,69,87,0
1,69,0,192
1,57,0,0
1,61,0,0
1,64,0,0
1,71,87,0
1,64,87,0
1,61,87,0
1,61,0,288
1,64,0,0
1,71,0,0
1,69,87,0
1,69,0,96
1,69,87,0
1,64,87,0
1,61,87,0
1,57,87,0
1,57,0,384
1,69,0,0
1,64,0,0
1,61,0,0
1,66,87,0
1,62,87,0
1,57,87,0
1,57,0,384
1,62,0,0
1,66,0,0
1,69,87,0
1,66,87,0
1,62,87,0
1,62,0,192
1,66,0,0
1,69,0,0
1,66,87,0
1,62,87,0
1,62,0,192
1,66,0,0
1,64,87,0
1,59,87,0
1,56,87,0
1,56,0,192
1,59,0,0
1,64,0,0
1,68,87,0
1,64,87,0
1,59,87,0
1,59,0,192
1,64,0,0
1,68,0,0
1,73,87,0
1,68,87,0
1,64,87,0
1,64,0,192
1,68,0,0
1,73,0,0
1,71,87,0
1,68,87,0
1,64,87,0
1,64,0,192
1,68,0,0
1,71,0,0
1,61,87,0
1,57,87,0
1,69,87,0
1,69,0,192
1,57,0,0
1,61,0,0
1,69,87,0
1,64,87,0
1,61,87,0
1,57,87,0
1,57,0,192
1,69,0,0
1,64,0,0
1,61,0,0
1,68,87,0
1,64,87,0
1,61,87,0
1,57,87,0
1,57,0,192
1,68,0,0
1,64,0,0
1,61,0,0
1,57,87,0
1,61,87,0
1,64,87,0
1,69,87,0
1,69,0,192
1,57,0,0
1,61,0,0
1,64,0,0
1,71,87,0
1,64,87,0
1,61,87,0
1,61,0,288
1,64,0,0
1,71,0,0
1,69,87,0
1,69,0,96
1,69,87,0
1,64,87,0
1,61,87,0
1,57,87,0
1,57,0,384
1,69,0,0
1,64,0,0
1,61,0,0
1,66,87,192
1,62,87,0
1,57,87,0
1,57,0,192
1,62,0,0
1,66,0,0
1,57,87,0
1,62,87,0
1,66,87,0
1,66,0,192
1,62,0,0
1,57,0,0
1,61,87,192
1,59,87,0
1,56,87,0
1,65,87,0
1,65,0,96
1,61,0,0
1,59,0,0
1,56,0,0
1,65,87,0
1,65,0,96
1,65,87,0
1,65,0,96
1,66,87,0
1,61,87,0
1,59,87,0
1,56,87,0
1,56,0,192
1,66,0,0
1,61,0,0
1,59,0,0
1,68,87,0
1,68,0,192
1,69,87,0
1,66,87,0
1,61,87,0
1,61,0,288
1,66,0,0
1,69,0,0
1,61,87,0
1,66,87,0
1,69,87,0
1,69,0,96
1,66,0,0
1,61,0,0
1,69,87,0
1,69,0,96
1,69,87,0
1,66,87,0
1,61,87,0
1,61,0,192
1,66,0,0
1,69,0,0
1,69,87,0
1,69,0,192
1,68,87,0
1,59,87,0
1,63,87,0
1,63,0,192
1,59,0,0
1,68,0,0
1,66,87,0
1,66,0,96
1,63,87,0
1,66,87,0
1,59,87,0
1,59,0,192
1,66,0,0
1,63,0,0
1,68,87,0
1,68,0,96
1,69,87,0
1,69,0,192
1,69,87,192
1,66,87,0
1,61,87,0
1,61,0,96
1,66,0,0
1,69,0,0
1,69,87,0
1,69,0,96
1,69,87,0
1,66,87,0
1,61,87,0
1,61,0,192
1,66,0,0
1,69,0,0
1,68,87,0
1,68,0,96
1,68,87,0
1,59,87,0
1,63,87,0
1,63,0,288
1,59,0,0
1,68,0,0
1,66,87,0
1,66,0,96
1,68,87,0
1,64,87,0
1,59,87,0
1,59,0,288
1,64,0,0
1,68,0,0
1,68,87,0
1,68,0,96
1,66,87,0
1,66,0,96
1,71,87,9408
1,68,87,0
1,63,87,0
1,63,0,192
1,68,0,0
1,71,0,0
1,63,87,0
1,71,87,0
1,68,87,0
1,68,0,192
1,71,0,0
1,63,0,0
1,63,87,0
1,68,87,0
1,59,87,0
1,59,0,192
1,68,0,0
1,63,0,0
1,66,87,0
1,61,87,0
1,58,87,0
1,58,0,192
1,61,0,0
1,66,0,0
1,70,87,0
1,70,0,96
1,70,87,0
1,61,87,0
1,66,87,0
1,66,0,288
1,61,0,0
1,70,0,0
1,71,87,384
1,68,87,0
1,64,87,0
1,64,0,192
1,68,0,0
1,71,0,0
1,64,87,0
1,68,87,0
1,71,87,0
1,71,0,192
1,68,0,0
1,64,0,0
1,68,87,0
1,64,87,0
1,59,87,0
1,59,0,192
1,64,0,0
1,68,0,0
1,63,87,0
1,58,87,0
1,67,87,0
1,67,0,96
1,58,0,0
1,63,0,0
1,67,87,0
1,67,0,96
1,70,87,0
1,70,0,96
1,70,87,0
1,66,87,0
1,63,87,0
1,63,0,192
1,66,0,0
1,70,0,0
1,70,87,0
1,70,0,96
1,71,87,384
1,68,87,0
1,61,87,0
1,61,0,96
1,68,0,0
1,71,0,0
1,71,87,0
1,71,0,96
1,65,87,0
1,61,87,0
1,71,87,0
1,71,0,192
1,61,0,0
1,65,0,0
1,68,87,0
1,68,0,192
1,66,87,0
1,61,87,0
1,58,87,0
1,58,0,96
1,61,0,0
1,66,0,0
1,70,87,0
1,70,0,192
1,61,87,0
1,66,87,0
1,70,87,0
1,70,0,288
1,66,0,0
1,61,0,0
1,71,87,192
1,68,87,0
1,64,87,0
1,64,0,192
1,68,0,0
1,71,0,0
1,71,87,0
1,71,0,96
1,71,87,0
1,68,87,0
1,64,87,0
1,64,0,192
1,68,0,0
1,71,0,0
1,70,87,0
1,70,0,96
1,68,87,0
1,68,0,192
1,66,87,0
1,61,87,0
1,58,87,0
1,58,0,192
1,61,0,0
1,66,0,0
1,61,87,0
1,66,87,0
1,70,87,0
1,70,0,192
1,66,0,0
1,61,0,0
1,66,87,0
1,61,87,0
1,70,87,0
1,70,0,192
1,61,0,0
1,66,0,0
1,58,87,0
1,66,87,0
1,61,87,0
1,61,0,96
1,66,0,0
1,58,0,0
1,66,87,0
1,66,0,96
1,71,87,0
1,68,87,0
1,64,87,0
1,64,0,192
1,68,0,0
1,71,0,0
1,64,87,0
1,68,87,0
1,71,87,0
1,71,0,96
1,68,0,0
1,64,0,0
1,71,87,0
1,71,0,96
1,71,87,0
1,68,87,0
1,68,0,96
1,71,0,0
1,70,87,0
1,70,0,96
1,68,87,0
1,68,0,96
1,66,87,0
1,66,0,96
1,66,87,0
1,61,87,0
1,58,87,0
1,58,0,192
1,61,0,0
1,66,0,0
1,70,87,0
1,70,0,96
1,70,87,0
1,70,0,96
1,70,87,0
1,66,87,0
1,61,87,0
1,61,0,96
1,66,0,0
1,70,0,0
1,71,87,0
1,71,0,96
1,66,87,0
1,61,87,0
1,70,87,0
1,70,0,960
1,61,0,0
1,66,0,0
1,63,87,0
1,59,87,0
1,59,0,192
1,63,0,0
1,71,87,0
1,66,87,0
1,63,87,0
1,59,87,0
1,59,0,192
1,71,0,0
1,66,0,0
1,63,0,0
1,70,87,0
1,66,87,0
1,63,87,0
1,59,87,0
1,59,0,192
1,70,0,0
1,66,0,0
1,63,0,0
1,59,87,0
1,63,87,0
1,66,87,0
1,71,87,0
1,71,0,192
1,59,0,0
1,63,0,0
1,66,0,0
1,73,87,0
1,66,87,0
1,63,87,0
1,63,0,288
1,66,0,0
1,73,0,0
1,71,87,0
1,71,0,96
1,71,87,0
1,66,87,0
1,63,87,0
1,59,87,0
1,59,0,384
1,71,0,0
1,66,0,0
1,63,0,0
1,68,87,0
1,64,87,0
1,59,87,0
1,59,0,384
1,64,0,0
1,68,0,0
1,71,87,0
1,68,87,0
1,64,87,0
1,64,0,192
1,68,0,0
1,71,0,0
1,68,87,0
1,64,87,0
1,64,0,192
1,68,0,0
1,66,87,0
1,61,87,0
1,58,87,0
1,58,0,192
1,61,0,0
1,66,0,0
1,70,87,0
1,66,87,0
1,61,87,0
1,61,0,192
1,66,0,0
1,70,0,0
1,75,87,0
1,70,87,0
1,66,87,0
1,66,0,192
1,70,0,0
1,75,0,0
1,73,87,0
1,70,87,0
1,66,87,0
1,66,0,192
1,70,0,0
1,73,0,0
1,63,87,0
1,71,87,0
1,66,87,0
1,66,0,192
1,71,0,0
1,63,0,0
1,71,87,96
1,71,0,96
1,70,87,0
1,66,87,0
1,63,87,0
1,59,87,0
1,59,0,192
1,70,0,0
1,66,0,0
1,63,0,0
1,59,87,0
1,63,87,0
1,66,87,0
1,71,87,0
1,71,0,192
1,59,0,0
1,63,0,0
1,66,0,0
1,73,87,0
1,66,87,0
1,63,87,0
1,63,0,288
1,66,0,0
1,73,0,0
1,71,87,0
1,71,0,96
1,71,87,0
1,66,87,0
1,63,87,0
1,59,87,0
1,59,0,384
1,71,0,0
1,66,0,0
1,63,0,0
1,68,87,192
1,64,87,0
1,59,87,0
1,59,0,192
1,64,0,0
1,68,0,0
1,59,87,0
1,64,87,0
1,68,87,0
1,68,0,192
1,64,0,0
1,59,0,0
1,63,87,192
1,61,87,0
1,58,87,0
1,67,87,0
1,67,0,96
1,63,0,0
1,61,0,0
1,58,0,0
1,67,87,0
1,67,0,96
1,67,87,0
1,67,0,96
1,68,87,0
1,63,87,0
1,61,87,0
1,58,87,0
1,58,0,192
1,68,0,0
1,63,0,0
1,61,0,0
1,70,87,0
1,70,0,192
1,71,87,0
1,68,87,0
1,63,87,0
1,63,0,288
1,68,0,0
1,71,0,0
1,63,87,0
1,68,87,0
1,71,87,0
1,71,0,96
1,68,0,0
1,63,0,0
1,71,87,0
1,71,0,96
1,71,87,0
1,68,87,0
1,63,87,0
1,63,0,192
1,68,0,0
1,71,0,0
1,71,87,0
1,71,0,192
1,70,87,0
1,61,87,0
1,65,87,0
1,65,0,192
1,61,0,0
1,70,0,0
1,68,87,0
1,68,0,96
1,65,87,0
1,68,87,0
1,61,87,0
1,61,0,192
1,68,0,0
1,65,0,0
1,70,87,0
1,70,0,96
1,71,87,0
1,71,0,192
1,71,87,192
1,68,87,0
1,63,87,0
1,63,0,96
1,68,0,0
1,71,0,0
1,71,87,0
1,71,0,96
1,71,87,0
1,68,87,0
1,63,87,0
1,63,0,192
1,68,0,0
1,71,0,0
1,70,87,0
1,70,0,96
1,70,87,0
1,61,87,0
1,65,87,0
1,65,0,288
1,61,0,0
1,70,0,0
1,68,87,0
1,68,0,96
1,70,87,0
1,66,87,0
1,61,87,0
1,61,0,288
1,66,0,0
1,70,0,0
1,70,87,0
1,70,0,96
1,68,87,0
1,68,0,96
2,33,87,0
2,33,0,288
2,33,87,0
2,33,0,96
2,37,87,0
2,37,0,192
2,40,87,0
2,40,0,192
2,45,87,0
2,45,0,288
2,45,87,0
2,45,0,96
2,44,87,0
2,44,0,96
2,42,87,0
2,42,0,96
2,33,87,0
2,33,0,96
2,42,87,0
2,42,0,96
2,38,87,0
2,38,0,288
2,38,87,0
2,38,0,96
2,37,87,0
2,37,0,288
2,37,87,0
2,37,0,96
2,35,87,0
2,35,0,192
2,35,87,96
2,35,0,96
2,40,87,0
2,40,0,192
2,40,87,96
2,40,0,96
2,33,87,0
2,33,0,288
2,33,87,0
2,33,0,96
2,37,87,0
2,37,0,192
2,40,87,0
2,40,0,192
2,45,87,0
2,45,0,288
2,45,87,0
2,45,0,96
2,44,87,0
2,44,0,96
2,42,87,0
2,42,0,96
2,33,87,0
2,33,0,96
2,42,87,0
2,42,0,96
2,38,87,0
2,38,0,288
2,38,87,0
2,38,0,96
2,37,87,0
2,37,0,288
2,37,87,0
2,37,0,96
2,35,87,0
2,35,0,192
2,35,87,96
2,35,0,96
2,40,87,0
2,40,0,192
2,40,87,96
2,40,0,96
2,33,87,0
2,33,0,288
2,33,87,0
2,33,0,96
2,37,87,0
2,37,0,192
2,40,87,0
2,40,0,192
2,45,87,0
2,45,0,288
2,45,87,0
2,45,0,96
2,44,87,0
2,44,0,96
2,42,87,0
2,42,0,96
2,33,87,0
2,33,0,96
2,42,87,0
2,42,0,96
2,38,87,0
2,38,0,288
2,38,87,0
2,38,0,96
2,37,87,0
2,37,0,288
2,37,87,0
2,37,0,96
2,35,87,0
2,35,0,288
2,35,87,0
2,35,0,96
2,40,87,0
2,40,0,288
2,40,87,0
2,40,0,96
