track,note,velocity,time
1,82,101,730
1,82,0,94
1,82,97,2
1,82,0,94
1,81,100,2
1,81,0,46
1,81,98,2
1,81,0,46
1,81,106,2
1,81,0,46
1,81,97,2
1,81,0,46
1,79,97,2
1,79,0,94
1,79,103,2
1,79,0,94
1,77,106,2
1,77,0,94
1,77,105,2
1,77,0,46
1,76,96,2
1,76,0,142
1,76,104,2
1,76,0,94
1,77,99,2
1,77,0,94
1,76,104,2
1,76,0,94
1,72,101,2
1,72,0,190
1,77,96,2
1,77,0,94
1,76,104,2
1,76,0,46
1,72,101,2
1,72,0,238
1,72,99,1202
1,72,0,46
1,72,100,2
1,72,0,94
1,82,101,2
1,82,0,94
1,82,106,2
1,82,0,46
1,82,99,2
1,82,0,46
1,81,104,2
1,81,0,94
1,81,99,2
1,81,0,46
1,81,101,2
1,81,0,46
1,79,105,2
1,70,101,0
1,79,0,46
1,79,99,2
1,79,0,46
1,79,102,2
1,79,0,94
1,70,0,0
1,77,102,2
1,69,99,0
1,69,0,190
1,77,0,0
1,76,105,2
1,67,105,0
1,76,0,94
1,76,98,2
1,76,0,46
1,77,105,2
1,74,98,0
1,67,0,46
1,74,0,96
1,77,0,0
1,76,96,2
1,76,0,94
1,72,99,2
1,72,0,190
1,77,99,2
1,77,0,94
1,76,98,2
1,76,0,46
1,72,102,50
1,72,0,1342
1,79,105,50
1,79,0,46
1,81,100,2
1,81,0,94
1,79,100,2
1,79,0,190
1,77,103,50
1,77,0,46
1,76,105,2
1,76,0,94
1,72,100,2
1,72,0,190
1,72,100,50
1,72,0,46
1,72,96,2
1,72,0,94
1,82,99,2
1,82,0,94
1,82,97,2
1,82,0,46
1,82,96,2
1,82,0,46
1,81,101,2
1,81,0,46
1,81,100,2
1,81,0,46
1,81,100,2
1,81,0,94
1,79,101,2
1,79,0,94
1,79,105,2
1,79,0,190
1,77,99,2
1,77,0,286
1,77,101,290
1,77,0,46
1,77,106,2
1,77,0,46
1,77,98,2
1,74,99,0
1,70,103,0
1,70,0,94
1,74,0,0
1,77,0,0
1,77,105,2
1,77,0,46
1,77,96,2
1,74,100,0
1,70,103,0
1,70,0,142
1,74,0,0
1,77,0,0
1,79,99,2
1,79,0,94
1,81,101,2
1,77,101,0
1,72,101,0
1,72,0,94
1,77,0,0
1,81,0,0
1,81,105,2
1,81,0,46
1,81,104,2
1,81,0,46
1,81,98,2
1,77,105,0
1,72,101,0
1,72,0,46
1,77,0,0
1,81,0,0
1,82,100,2
1,82,0,46
1,81,102,2
1,81,0,46
1,81,98,2
1,81,0,46
1,79,98,674
1,79,0,46
1,77,99,2
1,77,0,46
1,77,96,2
1,77,0,46
1,77,96,2
1,77,0,142
1,77,104,2
1,77,0,94
1,79,100,2
1,79,0,94
1,81,102,2
1,81,0,94
1,81,101,2
1,81,0,46
1,82,97,2
1,82,0,142
1,81,101,2
1,81,0,94
1,81,96,2
1,79,105,48
1,81,0,46
1,79,0,480
1,79,100,146
1,79,0,46
1,79,96,2
1,79,0,94
1,77,99,2
1,77,0,94
1,77,96,2
1,77,0,94
1,79,103,2
1,79,0,94
1,81,96,2
1,81,0,94
1,81,96,2
1,81,0,94
1,82,106,2
1,82,0,94
1,81,101,2
1,81,0,94
1,81,97,2
1,81,0,94
1,79,101,2
1,79,0,286
1,72,97,290
1,72,0,94
1,82,100,2
1,82,0,94
1,82,105,2
1,82,0,94
1,81,104,2
1,81,0,46
1,81,106,2
1,81,0,46
1,81,101,2
1,81,0,46
1,81,101,2
1,81,0,46
1,79,101,2
1,79,0,94
1,79,101,2
1,79,0,94
1,77,96,2
1,77,0,94
1,77,98,2
1,77,0,46
1,76,106,2
1,76,0,142
1,76,102,2
1,76,0,94
1,77,102,2
1,77,0,94
1,76,103,2
1,76,0,94
1,72,104,2
1,72,0,190
1,77,99,2
1,77,0,94
1,76,99,2
1,76,0,46
1,72,106,2
1,72,0,238
1,72,105,1202
1,72,0,46
1,72,101,2
1,72,0,94
1,82,101,2
1,82,0,94
1,82,98,2
1,82,0,46
1,82,104,2
1,82,0,46
1,81,97,2
1,81,0,94
1,81,106,2
1,81,0,46
1,81,99,2
1,81,0,46
1,79,106,2
1,70,101,0
1,79,0,46
1,79,103,2
1,79,0,46
1,79,103,2
1,79,0,94
1,70,0,0
1,77,102,2
1,69,99,0
1,69,0,190
1,77,0,0
1,76,106,2
1,67,105,0
1,76,0,94
1,76,101,2
1,76,0,46
1,77,98,2
1,74,98,0
1,67,0,46
1,74,0,96
1,77,0,0
1,76,100,2
1,76,0,94
1,72,100,2
1,72,0,190
1,77,96,2
1,77,0,94
1,76,99,2
1,76,0,46
1,72,104,50
1,72,0,1342
1,79,97,50
1,79,0,46
1,81,101,2
1,81,0,94
1,79,97,2
1,79,0,190
1,77,100,50
1,77,0,46
1,76,101,2
1,76,0,94
1,72,102,2
1,72,0,190
1,72,99,50
1,72,0,46
1,72,104,2
1,72,0,94
1,82,100,2
1,82,0,94
1,82,104,2
1,82,0,46
1,82,106,2
1,82,0,46
1,81,106,2
1,81,0,46
1,81,100,2
1,81,0,46
1,81,104,2
1,81,0,94
1,79,96,2
1,79,0,94
1,79,96,2
1,79,0,190
1,77,100,2
1,77,0,286
1,77,104,290
1,77,0,46
1,77,96,2
1,77,0,46
1,77,98,2
1,77,0,94
1,77,102,2
1,77,0,46
1,77,100,2
1,77,0,142
1,79,105,2
1,79,0,94
1,81,99,2
1,81,0,94
1,81,101,2
1,81,0,46
1,81,99,2
1,81,0,46
1,81,103,2
1,81,0,46
1,82,99,2
1,82,0,46
1,81,97,2
1,81,0,46
1,79,101,2
1,79,0,46
1,65,105,866
1,65,0,46
1,64,102,2
1,64,0,46
1,65,103,2
1,65,0,46
1,65,104,2
1,65,0,46
1,65,101,2
1,65,0,46
1,67,98,2
1,67,0,46
1,69,102,2
1,69,0,190
1,65,98,2
1,65,0,94
1,60,104,2
1,60,0,94
1,65,106,50
1,65,0,46
1,65,105,2
1,65,0,46
1,65,101,2
1,65,0,46
1,65,102,2
1,65,0,46
1,64,101,2
1,64,0,46
1,65,106,2
1,65,0,46
1,67,100,2
1,67,0,46
1,69,101,2
1,69,0,94
1,65,101,2
1,65,0,46
1,60,98,2
1,60,0,238
1,65,101,98
1,65,0,46
1,65,101,2
1,65,0,46
1,65,98,2
1,65,0,46
1,65,100,2
1,65,0,46
1,67,98,2
1,67,0,94
1,69,97,2
1,69,0,94
1,70,103,2
1,70,0,46
1,69,97,2
1,69,0,46
1,67,96,2
1,67,0,94
1,65,100,2
1,65,0,46
1,65,105,2
1,65,0,46
1,67,97,2
1,67,0,46
1,67,102,2
1,67,0,46
1,67,99,2
1,67,0,46
1,67,98,2
1,67,0,46
1,67,100,2
1,67,0,46
1,69,96,2
1,69,0,46
1,67,101,2
1,67,0,94
1,65,98,2
1,65,0,190
1,81,97,50
1,81,0,46
1,81,101,2
1,81,0,94
1,79,106,2
1,76,102,0
1,76,0,190
1,79,0,0
1,77,102,50
1,77,0,46
1,76,99,2
1,76,0,94
1,72,104,2
1,72,0,190
1,72,97,50
1,72,0,46
1,72,99,2
1,72,0,94
1,82,97,2
1,82,0,94
1,82,101,2
1,82,0,46
1,82,101,2
1,82,0,46
1,81,101,2
1,81,0,46
1,81,97,2
1,81,0,46
1,81,100,2
1,81,0,94
1,79,101,2
1,79,0,94
1,79,105,2
1,79,0,94
1,79,106,2
1,79,0,43
1,77,103,2
1,77,0,190
1,77,100,437
1,77,0,46
1,77,102,2
1,77,0,46
1,77,101,2
1,77,0,94
1,77,100,2
1,77,0,46
1,77,104,2
1,77,0,142
1,82,103,2
1,82,0,94
1,81,101,2
1,81,0,94
1,72,101,2
1,72,0,46
1,72,101,2
1,72,0,46
1,77,100,2
1,77,0,46
1,81,96,2
1,81,0,142
1,79,103,2
1,79,0,46
1,79,105,2
1,79,0,142
1,67,101,482
1,67,0,46
1,67,97,2
1,67,0,46
1,65,103,2
1,65,0,94
1,65,97,2
1,65,0,46
1,65,97,2
1,65,0,142
1,67,98,2
1,67,0,94
1,69,100,2
1,69,0,94
1,69,101,2
1,69,0,46
1,70,102,2
1,70,0,142
1,69,96,2
1,69,0,94
1,67,97,2
1,67,0,94
1,65,105,2
1,65,0,94
1,69,96,2
1,69,0,94
1,69,104,2
1,69,0,46
1,67,99,2
1,67,0,142
1,65,101,2
1,65,0,94
1,65,101,290
1,65,0,94
1,65,97,2
1,65,0,94
1,67,99,2
1,67,0,94
1,69,101,2
1,69,0,94
1,69,97,2
1,69,0,46
1,70,106,2
1,70,0,142
1,69,100,2
1,69,0,94
1,65,105,2
1,65,0,94
1,65,99,2
1,65,0,46
1,69,103,2
1,69,0,142
1,69,96,2
1,69,0,94
1,67,106,2
1,67,0,94
1,65,99,2
1,65,0,94
1,81,98,50
1,81,0,46
1,81,101,2
1,81,0,94
1,79,101,2
1,79,0,190
1,77,106,50
1,77,0,46
1,76,100,2
1,76,0,94
1,72,100,2
1,72,0,190
1,72,101,50
1,72,0,46
1,72,101,2
1,72,0,94
1,82,102,2
1,82,0,94
1,82,99,2
1,82,0,46
1,82,101,2
1,82,0,46
1,81,96,2
1,81,0,46
1,81,102,2
1,81,0,46
1,81,97,2
1,81,0,94
1,79,104,2
1,79,0,94
1,79,105,2
1,79,0,190
1,77,98,2
1,77,0,286
1,77,101,290
1,77,0,46
1,77,101,2
1,77,0,46
1,77,104,2
1,77,0,94
1,77,104,2
1,77,0,46
1,77,97,2
1,77,0,142
1,79,106,2
1,79,0,94
1,81,97,2
1,81,0,94
1,81,104,2
1,81,0,46
1,81,101,2
1,81,0,46
1,81,106,2
1,81,0,46
1,82,98,2
1,82,0,46
1,81,99,2
1,81,0,46
1,81,101,2
1,81,0,46
1,77,106,674
1,77,0,46
1,77,102,2
1,77,0,46
1,77,97,2
1,77,0,94
1,77,103,2
1,77,0,46
1,77,101,2
1,77,0,142
1,79,103,2
1,79,0,94
1,81,100,2
1,81,0,94
1,81,106,2
1,81,0,46
1,81,101,2
1,81,0,46
1,81,101,2
1,81,0,46
1,82,101,2
1,82,0,46
1,81,98,2
1,81,0,46
1,81,105,2
1,81,0,46
1,77,100,674
1,77,0,46
1,77,98,2
1,77,0,46
1,77,104,2
1,77,0,94
1,77,99,2
1,77,0,46
1,77,97,2
1,77,0,142
1,79,103,2
1,79,0,94
1,81,104,2
1,81,0,94
1,81,104,2
1,81,0,46
1,81,97,2
1,81,0,46
1,81,105,2
1,81,0,46
1,82,98,2
1,82,0,46
1,81,100,2
1,81,0,46
1,81,96,2
1,81,0,46
1,52,106,2
1,52,0,189
2,48,49,533
2,55,52,2
2,55,0,1539
2,53,67,1
2,55,67,1533
2,53,0,10
2,55,0,1509
2,53,44,12
2,55,71,1536
2,53,0,6
2,55,0,385
2,53,82,1
2,48,0,355
2,53,0,2
2,58,85,20
2,53,89,2
2,58,0,156
2,57,68,33
2,55,69,192
2,53,0,4
2,48,35,2
2,57,0,4
2,53,76,192
2,55,0,8
2,48,0,733
2,58,74,17
2,58,0,356
2,57,71,28
2,53,0,381
2,55,66,3
2,48,38,0
2,57,0,4
2,58,72,764
2,48,0,5
2,53,87,1
2,55,0,13
2,58,0,348
2,57,75,26
2,57,0,364
2,53,0,6
2,55,67,5
2,48,36,0
2,48,0,772
2,53,68,1
2,58,76,5
2,55,0,20
2,58,0,336
2,57,74,18
2,57,0,394
2,50,75,0
2,55,77,0
2,53,0,7
2,50,0,739
2,48,46,12
2,53,71,1536
2,55,0,4
2,55,73,1532
2,53,0,2
2,53,75,1534
2,55,0,7
2,55,77,1529
2,53,0,11
2,53,73,373
2,55,0,8
2,48,0,360
2,58,89,16
2,58,0,178
2,57,80,14
2,57,0,179
2,53,0,11
2,55,73,2
2,48,39,3
2,55,0,194
2,53,80,2
2,48,0,753
2,58,66,8
2,58,0,377
2,57,74,7
2,57,0,382
2,53,0,3
2,48,51,1
2,55,62,2
2,48,0,688
2,55,0,4
2,62,81,78
2,65,71,2
2,58,78,2
2,58,0,357
2,62,0,0
2,60,64,17
2,57,63,0
2,57,0,351
2,60,0,30
2,62,85,3
2,58,80,0
2,58,0,369
2,62,0,0
2,60,66,15
2,57,58,0
2,57,0,359
2,58,89,30
2,62,75,3
2,60,0,16
2,62,0,356
2,58,0,9
2,60,75,1
2,57,67,2
2,60,0,354
2,57,0,5
2,65,0,7
2,60,83,20
2,67,99,0
2,64,80,0
2,64,0,330
2,67,0,32
2,65,99,22
2,69,92,0
2,69,0,285
2,65,0,3
2,60,0,4
2,62,71,3740
2,70,95,0
2,65,87,0
2,62,0,328
2,70,0,23
2,69,89,23
2,60,71,0
2,65,0,343
2,64,76,41
2,67,83,0
2,69,0,3
2,64,0,340
2,65,92,41
2,69,86,4
2,67,0,17
2,65,0,56
2,65,95,29
2,69,0,15
2,67,83,33
2,65,0,29
2,69,90,19
2,67,0,4
2,65,82,41
2,69,0,8
2,67,89,43
2,67,0,37
2,69,82,1
2,60,0,15
2,65,0,12
2,69,0,12
2,65,76,15
2,70,92,3
2,62,66,1
2,62,0,324
2,70,0,13
2,60,66,37
2,69,90,0
2,65,0,344
2,69,0,37
2,64,82,7
2,67,78,6
2,67,0,361
2,65,75,13
2,69,89,4
2,64,0,8
2,65,0,36
2,64,76,0
2,67,82,0
2,69,0,8
2,65,87,40
2,69,82,0
2,64,0,11
2,67,0,5
2,65,0,31
2,64,81,1
2,67,89,2
2,69,0,14
2,67,0,28
2,64,0,4
2,69,101,9
2,65,86,1
2,65,0,59
2,69,0,14
2,60,0,11
2,60,76,98
2,67,71,0
2,64,73,1
2,64,0,361
2,67,0,21
2,69,93,1
2,65,66,0
2,60,0,354
2,69,0,5
2,70,105,25
2,62,76,0
2,62,0,165
2,70,0,9
2,69,95,18
2,60,78,0
2,69,0,163
2,65,0,9
2,67,92,20
2,64,86,0
2,64,0,167
2,67,0,16
2,65,83,9
2,57,69,1
2,57,0,724
2,60,0,27
2,62,81,16
2,58,73,10
2,58,0,342
2,62,0,28
2,60,71,11
2,69,76,3
2,65,0,364
2,69,0,1
2,67,69,9
2,64,60,0
2,64,0,726
2,60,0,9
2,67,0,10
2,65,78,29
2,58,82,4
2,62,83,0
2,58,0,343
2,62,0,24
2,60,74,15
2,69,82,2
2,69,0,363
2,65,0,2
2,64,76,15
2,67,71,2
2,60,0,727
2,67,0,26
2,64,0,1
2,65,75,12
2,62,81,2
2,58,82,2
2,58,0,346
2,62,0,23
2,65,0,3
2,65,64,12
2,69,86,0
2,60,80,0
2,69,0,356
2,65,0,2
2,64,75,16
2,67,78,1
2,60,0,1408
2,72,50,33
2,64,0,763
2,76,69,3
2,67,0,748
2,79,35,20
2,72,0,739
2,84,27,29
2,76,0,729
2,88,64,39
2,79,0,89
2,88,0,4
2,84,0,4
3,65,71,5281
3,69,66,0
3,60,49,0
3,69,0,1514
3,65,0,6
3,64,66,6
3,67,74,2
3,64,0,340
3,67,0,43
3,65,71,1
3,69,75,7
3,60,0,343
3,69,0,15
3,70,76,18
3,74,50,6
3,70,0,151
3,74,0,8
3,69,58,26
3,72,56,7
3,65,0,181
3,69,0,7
3,72,0,2
3,67,60,1
3,72,96,0
3,64,68,4
3,72,0,150
3,64,0,31
3,67,0,0
3,60,58,1
3,65,74,3
3,69,69,7
3,60,0,683
3,69,0,52
3,62,49,23
3,70,74,0
3,70,0,366
3,62,0,15
3,69,73,7
3,60,71,2
3,65,0,361
3,69,0,7
3,67,69,12
3,64,66,4
3,64,0,737
3,60,0,3
3,70,83,27
3,65,58,2
3,62,59,3
3,67,0,12
3,62,0,317
3,60,72,45
3,69,85,0
3,70,0,1
3,65,0,379
3,69,0,3
3,64,66,1
3,67,72,1
3,64,0,726
3,60,0,13
3,67,0,27
3,65,55,1
3,70,73,2
3,62,57,2
3,62,0,340
3,70,0,30
3,60,62,15
3,69,73,3
3,60,0,331
3,69,0,45
3,62,52,0
3,59,67,0
3,67,85,0
3,65,0,7
3,67,0,736
