track,note,velocity,time
1,79,71,0
1,84,71,0
1,88,71,0
1,48,71,0
1,79,0,192
1,84,0,0
1,88,0,0
1,48,0,0
1,84,71,0
1,79,71,0
1,76,71,0
1,43,71,0
1,84,0,192
1,79,0,0
1,76,0,0
1,43,0,0
1,79,71,0
1,76,71,0
1,72,71,0
1,40,71,0
1,79,0,192
1,76,0,0
1,72,0,0
1,40,0,0
1,76,71,0
1,72,71,0
1,67,71,0
1,36,71,0
1,76,0,96
1,72,0,0
1,67,0,0
1,60,71,0
1,60,0,48
1,60,71,0
1,60,0,48
1,36,0,0
1,48,71,0
1,36,71,0
1,60,71,0
1,48,0,48
1,48,71,0
1,48,0,48
1,48,71,0
1,48,0,48
1,48,71,0
1,48,0,48
1,36,0,0
1,48,71,0
1,36,71,0
1,48,0,48
1,48,71,0
1,48,0,48
1,48,71,0
1,48,0,48
1,48,71,0
1,48,0,48
1,36,0,0
1,48,71,0
1,36,71,0
1,48,0,48
1,48,71,0
1,48,0,48
1,48,71,0
1,48,0,48
1,48,71,0
1,48,0,48
1,36,0,0
1,48,71,0
1,36,71,0
1,48,0,48
1,48,71,0
1,48,0,48
1,48,71,0
1,48,0,48
1,48,71,0
1,48,0,48
1,36,0,0
1,60,0,0
1,48,71,0
1,36,71,0
1,48,0,48
1,48,71,0
1,48,0,48
1,48,71,0
1,48,0,48
1,48,71,0
1,48,0,48
1,36,0,0
1,48,71,0
1,36,71,0
1,48,0,48
1,48,71,0
1,48,0,48
1,48,71,0
1,48,0,48
1,48,71,0
1,48,0,48
1,36,0,0
1,48,71,0
1,36,71,0
1,48,0,48
1,48,71,0
1,48,0,48
1,48,71,0
1,48,0,48
1,48,71,0
1,48,0,48
1,36,0,0
1,48,71,0
1,36,71,0
1,48,0,48
1,48,71,0
1,48,0,48
1,48,71,0
1,48,0,48
1,48,71,0
1,48,0,48
1,36,0,0
1,48,71,0
1,41,71,0
1,48,0,48
1,48,71,0
1,48,0,48
1,48,71,0
1,48,0,48
1,48,71,0
1,48,0,48
1,48,71,0
1,48,0,48
1,48,71,0
1,48,0,48
1,48,71,0
1,48,0,48
1,48,71,0
1,48,0,48
1,48,71,0
1,48,0,48
1,48,71,0
1,48,0,48
1,48,71,0
1,48,0,48
1,48,71,0
1,48,0,48
1,41,0,0
1,41,71,0
1,41,0,48
1,41,71,0
1,41,0,48
1,41,71,0
1,41,0,48
1,41,71,0
1,41,0,48
1,48,71,0
1,41,71,0
1,48,0,48
1,48,71,0
1,48,0,48
1,48,71,0
1,48,0,48
1,48,71,0
1,48,0,48
1,48,71,0
1,48,0,48
1,48,71,0
1,48,0,48
1,48,71,0
1,48,0,48
1,48,71,0
1,48,0,48
1,48,71,0
1,48,0,48
1,48,71,0
1,48,0,48
1,48,71,0
1,48,0,48
1,48,71,0
1,48,0,48
1,48,71,0
1,48,0,48
1,48,71,0
1,48,0,48
1,48,71,0
1,48,0,48
1,48,71,0
1,48,0,48
1,41,0,0
1,48,71,0
1,36,71,0
1,60,71,0
1,48,0,48
1,48,71,0
1,48,0,48
1,48,71,0
1,48,0,48
1,48,71,0
1,48,0,48
1,36,0,0
1,48,71,0
1,36,71,0
1,48,0,48
1,48,71,0
1,48,0,48
1,48,71,0
1,48,0,48
1,48,71,0
1,48,0,48
1,36,0,0
1,48,71,0
1,36,71,0
1,48,0,48
1,48,71,0
1,48,0,48
1,48,71,0
1,48,0,48
1,48,71,0
1,48,0,48
1,36,0,0
1,48,71,0
1,36,71,0
1,48,0,48
1,48,71,0
1,48,0,48
1,48,71,0
1,48,0,48
1,48,71,0
1,48,0,48
1,36,0,0
1,60,0,0
1,48,71,0
1,36,71,0
1,48,0,48
1,48,71,0
1,48,0,48
1,48,71,0
1,48,0,48
1,48,71,0
1,48,0,48
1,36,0,0
1,48,71,0
1,36,71,0
1,48,0,48
1,48,71,0
1,48,0,48
1,48,71,0
1,48,0,48
1,48,71,0
1,48,0,48
1,36,0,0
1,48,71,0
1,36,71,0
1,48,0,48
1,48,71,0
1,48,0,48
1,48,71,0
1,48,0,48
1,48,71,0
1,48,0,48
1,36,0,0
1,48,71,0
1,36,71,0
1,48,0,48
1,48,71,0
1,48,0,48
1,48,71,0
1,48,0,48
1,48,71,0
1,48,0,48
1,36,0,0
1,48,71,0
1,41,71,0
1,48,0,48
1,48,71,0
1,48,0,48
1,48,71,0
1,48,0,48
1,48,71,0
1,48,0,48
1,48,71,0
1,48,0,48
1,48,71,0
1,48,0,48
1,48,71,0
1,48,0,48
1,48,71,0
1,48,0,48
1,48,71,0
1,48,0,48
1,48,71,0
1,48,0,48
1,48,71,0
1,48,0,48
1,48,71,0
1,48,0,48
1,41,0,0
1,41,71,0
1,41,0,48
1,41,71,0
1,41,0,48
1,41,71,0
1,41,0,48
1,41,71,0
1,41,0,48
1,48,71,0
1,41,71,0
1,48,0,48
1,48,71,0
1,48,0,48
1,48,71,0
1,48,0,48
1,48,71,0
1,48,0,48
1,48,71,0
1,48,0,48
1,48,71,0
1,48,0,48
1,48,71,0
1,48,0,48
1,48,71,0
1,48,0,48
1,48,71,0
1,48,0,48
1,48,71,0
1,48,0,48
1,48,71,0
1,48,0,48
1,48,71,0
1,48,0,48
1,48,71,0
1,48,0,48
1,48,71,0
1,48,0,48
1,48,71,0
1,48,0,48
1,48,71,0
1,48,0,48
1,41,0,0
1,43,71,0
1,43,0,192
1,43,71,0
1,43,0,48
1,38,71,0
1,38,0,48
1,40,71,0
1,40,0,48
1,43,71,0
1,43,0,48
1,45,71,0
1,45,0,384
1,46,71,0
1,46,0,192
1,45,71,0
1,45,0,192
1,43,71,0
1,43,0,192
1,48,71,0
1,41,71,0
1,48,0,48
1,48,71,0
1,48,0,48
1,48,71,0
1,48,0,48
1,48,71,0
1,48,0,48
1,48,71,0
1,48,0,48
1,48,71,0
1,48,0,48
1,48,71,0
1,48,0,48
1,48,71,0
1,48,0,48
1,48,71,0
1,48,0,48
1,48,71,0
1,48,0,48
1,48,71,0
1,48,0,48
1,48,71,0
1,48,0,48
1,48,71,0
1,48,0,48
1,48,71,0
1,48,0,48
1,48,71,0
1,48,0,48
1,48,71,0
1,48,0,48
1,41,0,0
1,46,71,0
1,46,0,384
1,41,71,0
1,41,0,384
1,36,71,0
1,84,71,96
1,84,0,48
1,83,71,0
1,83,0,48
1,36,0,0
1,84,71,0
1,36,71,0
1,84,0,48
1,84,71,0
1,84,0,48
1,84,71,0
1,84,0,48
1,83,71,0
1,83,0,48
1,36,0,0
1,84,71,0
1,36,71,0
1,84,0,48
1,84,71,0
1,84,0,48
1,84,71,0
1,84,0,48
1,83,71,0
1,83,0,48
1,36,0,0
1,84,71,0
1,36,71,0
1,84,0,96
1,36,0,96
1,46,71,0
1,46,0,192
1,45,71,0
1,45,0,96
1,43,71,0
1,43,0,96
1,41,71,0
1,41,0,192
1,40,71,0
1,40,0,96
1,38,71,0
1,38,0,96
1,48,71,0
1,36,71,0
1,48,0,48
1,36,0,0
1,48,71,0
1,48,0,48
1,48,71,0
1,48,0,48
1,48,71,0
1,48,0,48
1,48,71,0
1,36,71,0
1,48,0,48
1,36,0,0
1,48,71,0
1,48,0,48
1,48,71,0
1,48,0,48
1,48,71,0
1,48,0,48
1,48,71,0
1,36,71,0
1,48,0,48
1,36,0,0
1,48,71,0
1,48,0,48
1,48,71,0
1,48,0,48
1,48,71,0
1,48,0,48
1,48,71,0
1,36,71,0
1,48,0,48
1,36,0,0
1,48,71,0
1,48,0,48
1,48,71,0
1,48,0,48
1,48,71,0
1,48,0,48
1,46,71,0
1,46,0,192
1,45,71,0
1,45,0,96
1,43,71,0
1,43,0,96
1,41,71,0
1,41,0,384
1,43,71,0
1,43,0,192
1,43,71,0
1,43,0,192
1,43,71,0
1,43,0,192
1,43,71,0
1,43,0,192
1,48,71,0
1,36,71,0
1,60,71,0
1,48,0,48
1,48,71,0
1,48,0,48
1,48,71,0
1,48,0,48
1,48,71,0
1,48,0,48
1,36,0,0
1,48,71,0
1,36,71,0
1,48,0,48
1,48,71,0
1,48,0,48
1,48,71,0
1,48,0,48
1,48,71,0
1,48,0,48
1,36,0,0
1,48,71,0
1,36,71,0
1,48,0,48
1,48,71,0
1,48,0,48
1,48,71,0
1,48,0,48
1,48,71,0
1,48,0,48
1,36,0,0
1,48,71,0
1,36,71,0
1,48,0,48
1,48,71,0
1,48,0,48
1,48,71,0
1,48,0,48
1,48,71,0
1,48,0,48
1,36,0,0
1,60,0,0
1,48,71,0
1,36,71,0
1,48,0,48
1,48,71,0
1,48,0,48
1,48,71,0
1,48,0,48
1,48,71,0
1,48,0,48
1,36,0,0
1,48,71,0
1,36,71,0
1,48,0,48
1,48,71,0
1,48,0,48
1,48,71,0
1,48,0,48
1,48,71,0
1,48,0,48
1,36,0,0
1,48,71,0
1,36,71,0
1,48,0,48
1,48,71,0
1,48,0,48
1,48,71,0
1,48,0,48
1,48,71,0
1,48,0,48
1,36,0,0
1,48,71,0
1,36,71,0
1,48,0,48
1,48,71,0
1,48,0,48
1,48,71,0
1,48,0,48
1,48,71,0
1,48,0,48
1,36,0,0
1,48,71,0
1,41,71,0
1,48,0,48
1,48,71,0
1,48,0,48
1,48,71,0
1,48,0,48
1,48,71,0
1,48,0,48
1,48,71,0
1,48,0,48
1,48,71,0
1,48,0,48
1,48,71,0
1,48,0,48
1,48,71,0
1,48,0,48
1,48,71,0
1,48,0,48
1,48,71,0
1,48,0,48
1,48,71,0
1,48,0,48
1,48,71,0
1,48,0,48
1,41,0,0
1,41,71,0
1,41,0,48
1,41,71,0
1,41,0,48
1,41,71,0
1,41,0,48
1,41,71,0
1,41,0,48
1,48,71,0
1,41,71,0
1,48,0,48
1,48,71,0
1,48,0,48
1,48,71,0
1,48,0,48
1,48,71,0
1,48,0,48
1,48,71,0
1,48,0,48
1,48,71,0
1,48,0,48
1,48,71,0
1,48,0,48
1,48,71,0
1,48,0,48
1,48,71,0
1,48,0,48
1,48,71,0
1,48,0,48
1,48,71,0
1,48,0,48
1,48,71,0
1,48,0,48
1,48,71,0
1,48,0,48
1,48,71,0
1,48,0,48
1,48,71,0
1,48,0,48
1,48,71,0
1,48,0,48
1,41,0,0
1,48,71,0
1,36,71,0
1,60,71,0
1,48,0,48
1,48,71,0
1,48,0,48
1,48,71,0
1,48,0,48
1,48,71,0
1,48,0,48
1,36,0,0
1,48,71,0
1,36,71,0
1,48,0,48
1,48,71,0
1,48,0,48
1,48,71,0
1,48,0,48
1,48,71,0
1,48,0,48
1,36,0,0
1,48,71,0
1,36,71,0
1,48,0,48
1,48,71,0
1,48,0,48
1,48,71,0
1,48,0,48
1,48,71,0
1,48,0,48
1,36,0,0
1,48,71,0
1,36,71,0
1,48,0,48
1,48,71,0
1,48,0,48
1,48,71,0
1,48,0,48
1,48,71,0
1,48,0,48
1,36,0,0
1,60,0,0
1,48,71,0
1,36,71,0
1,48,0,48
1,48,71,0
1,48,0,48
1,48,71,0
1,48,0,48
1,48,71,0
1,48,0,48
1,36,0,0
1,48,71,0
1,36,71,0
1,48,0,48
1,48,71,0
1,48,0,48
1,48,71,0
1,48,0,48
1,48,71,0
1,48,0,48
1,36,0,0
1,48,71,0
1,36,71,0
1,48,0,48
1,48,71,0
1,48,0,48
1,48,71,0
1,48,0,48
1,48,71,0
1,48,0,48
1,36,0,0
1,48,71,0
1,36,71,0
1,48,0,48
1,48,71,0
1,48,0,48
1,48,71,0
1,48,0,48
1,48,71,0
1,48,0,48
1,36,0,0
1,48,71,0
1,41,71,0
1,48,0,48
1,48,71,0
1,48,0,48
1,48,71,0
1,48,0,48
1,48,71,0
1,48,0,48
1,48,71,0
1,48,0,48
1,48,71,0
1,48,0,48
1,48,71,0
1,48,0,48
1,48,71,0
1,48,0,48
1,48,71,0
1,48,0,48
1,48,71,0
1,48,0,48
1,48,71,0
1,48,0,48
1,48,71,0
1,48,0,48
1,41,0,0
1,41,71,0
1,41,0,48
1,41,71,0
1,41,0,48
1,41,71,0
1,41,0,48
1,41,71,0
1,41,0,48
1,48,71,0
1,41,71,0
1,48,0,48
1,48,71,0
1,48,0,48
1,48,71,0
1,48,0,48
1,48,71,0
1,48,0,48
1,48,71,0
1,48,0,48
1,48,71,0
1,48,0,48
1,48,71,0
1,48,0,48
1,48,71,0
1,48,0,48
1,48,71,0
1,48,0,48
1,48,71,0
1,48,0,48
1,48,71,0
1,48,0,48
1,48,71,0
1,48,0,48
1,48,71,0
1,48,0,48
1,48,71,0
1,48,0,48
1,48,71,0
1,48,0,48
1,48,71,0
1,48,0,48
1,41,0,0
1,43,71,0
1,43,0,192
1,43,71,0
1,43,0,48
1,38,71,0
1,38,0,48
1,40,71,0
1,40,0,48
1,43,71,0
1,43,0,48
1,45,71,0
1,45,0,384
1,46,71,0
1,46,0,192
1,45,71,0
1,45,0,192
1,43,71,0
1,43,0,192
1,48,71,0
1,41,71,0
1,48,0,48
1,48,71,0
1,48,0,48
1,48,71,0
1,48,0,48
1,48,71,0
1,48,0,48
1,48,71,0
1,48,0,48
1,48,71,0
1,48,0,48
1,48,71,0
1,48,0,48
1,48,71,0
1,48,0,48
1,48,71,0
1,48,0,48
1,48,71,0
1,48,0,48
1,48,71,0
1,48,0,48
1,48,71,0
1,48,0,48
1,48,71,0
1,48,0,48
1,48,71,0
1,48,0,48
1,48,71,0
1,48,0,48
1,48,71,0
1,48,0,48
1,41,0,0
1,46,71,0
1,46,0,384
1,41,71,0
1,41,0,384
1,48,71,0
1,36,71,0
1,48,0,48
1,48,71,0
1,48,0,48
1,48,71,0
1,48,0,48
1,48,71,0
1,48,0,48
1,48,71,0
1,48,0,48
1,48,71,0
1,48,0,48
1,48,71,0
1,48,0,48
1,48,71,0
1,48,0,48
1,48,71,0
1,48,0,48
1,48,71,0
1,48,0,48
1,48,71,0
1,48,0,48
1,48,71,0
1,48,0,48
1,48,71,0
1,48,0,48
1,48,71,0
1,48,0,48
1,48,71,0
1,48,0,48
1,48,71,0
1,48,0,48
1,36,0,0
1,48,71,3072
1,48,0,576
1,48,71,0
1,48,0,192
1,48,71,0
1,48,0,192
1,60,71,0
1,60,0,192
1,58,71,0
1,58,0,192
1,57,71,0
1,57,0,384
1,53,71,0
1,53,0,96
1,48,71,0
1,48,0,96
1,45,71,0
1,45,0,96
1,41,71,0
1,41,0,96
1,46,71,0
1,46,0,192
1,50,71,0
1,50,0,192
1,53,71,96
1,48,71,288
1,53,0,192
1,48,0,576
1,43,71,3072
1,43,0,192
1,43,71,0
1,43,0,48
1,38,71,0
1,38,0,48
1,40,71,0
1,40,0,48
1,43,71,0
1,43,0,48
1,45,71,0
1,45,0,384
1,46,71,0
1,46,0,192
1,45,71,0
1,45,0,192
1,43,71,0
1,43,0,192
1,48,71,0
1,41,71,0
1,48,0,48
1,48,71,0
1,48,0,48
1,48,71,0
1,48,0,48
1,48,71,0
1,48,0,48
1,48,71,0
1,48,0,48
1,48,71,0
1,48,0,48
1,48,71,0
1,48,0,48
1,48,71,0
1,48,0,48
1,48,71,0
1,48,0,48
1,48,71,0
1,48,0,48
1,48,71,0
1,48,0,48
1,48,71,0
1,48,0,48
1,48,71,0
1,48,0,48
1,48,71,0
1,48,0,48
1,48,71,0
1,48,0,48
1,48,71,0
1,48,0,48
1,41,0,0
1,46,71,0
1,46,0,384
1,41,71,0
1,41,0,384
1,79,71,0
1,72,71,0
1,67,71,0
1,40,71,0
1,79,0,192
1,72,0,0
1,67,0,0
1,40,0,0
1,72,71,0
1,36,71,0
1,72,0,48
1,71,71,0
1,71,0,48
1,72,71,0
1,72,0,96
1,36,0,0
1,72,71,0
1,36,71,0
1,72,0,48
1,71,71,0
1,71,0,48
1,72,71,0
1,72,0,96
1,36,0,0
1,36,71,0
1,36,0,192
1,46,71,0
1,46,0,384
1,41,71,0
1,41,0,384
1,79,71,0
1,72,71,0
1,67,71,0
1,40,71,0
1,79,0,192
1,72,0,0
