track,note,velocity,time
1,60,127,0
1,55,127,0
1,55,0,288
1,60,0,0
1,55,127,0
1,55,0,96
1,48,127,0
1,48,0,384
1,48,127,0
1,36,127,0
1,36,0,48
1,48,0,0
1,48,127,0
1,36,127,0
1,36,0,48
1,48,0,0
1,36,127,192
1,48,127,0
1,48,0,48
1,36,0,0
1,36,127,0
1,48,127,0
1,48,0,48
1,36,0,0
1,48,127,864
1,36,127,0
1,36,0,96
1,48,0,0
1,51,127,0
1,39,127,0
1,39,0,96
1,51,0,0
1,56,127,0
1,44,127,0
1,44,0,96
1,56,0,0
1,55,127,0
1,43,127,0
1,43,0,768
1,55,0,0
1,48,127,480
1,36,127,0
1,36,0,96
1,48,0,0
1,51,127,0
1,39,127,0
1,39,0,96
1,51,0,0
1,56,127,0
1,44,127,0
1,44,0,96
1,56,0,0
1,55,127,0
1,43,127,0
1,43,0,768
1,55,0,0
1,60,127,0
1,55,127,0
1,51,127,0
1,48,127,0
1,36,127,0
1,36,0,48
1,51,0,0
1,60,0,0
1,55,0,0
1,48,0,0
1,55,127,0
1,60,127,0
1,48,127,0
1,36,127,0
1,51,127,0
1,51,0,48
1,48,0,0
1,55,0,0
1,60,0,0
1,36,0,0
1,48,127,384
1,36,127,0
1,36,0,96
1,48,0,0
1,51,127,0
1,39,127,0
1,39,0,96
1,51,0,0
1,56,127,0
1,44,127,0
1,44,0,96
1,56,0,0
1,55,127,0
1,43,127,0
1,43,0,768
1,55,0,0
1,60,127,0
1,55,127,0
1,51,127,0
1,48,127,0
1,36,127,0
1,36,0,48
1,51,0,0
1,60,0,0
1,55,0,0
1,48,0,0
1,55,127,0
1,60,127,0
1,48,127,0
1,36,127,0
1,51,127,0
1,51,0,48
1,48,0,0
1,55,0,0
1,60,0,0
1,36,0,0
1,48,127,384
1,36,127,0
1,36,0,96
1,48,0,0
1,51,127,0
1,39,127,0
1,39,0,96
1,51,0,0
1,56,127,0
1,44,127,0
1,44,0,96
1,56,0,0
1,55,127,0
1,43,127,0
1,43,0,768
1,55,0,0
1,60,127,0
1,55,127,0
1,51,127,0
1,48,127,0
1,36,127,0
1,36,0,48
1,51,0,0
1,60,0,0
1,55,0,0
1,48,0,0
1,55,127,0
1,60,127,0
1,48,127,0
1,36,127,0
1,51,127,0
1,51,0,48
1,48,0,0
1,55,0,0
1,60,0,0
1,36,0,0
1,48,127,384
1,36,127,0
1,36,0,96
1,48,0,0
1,51,127,0
1,39,127,0
1,39,0,96
1,51,0,0
1,56,127,0
1,44,127,0
1,44,0,96
1,56,0,0
1,55,127,0
1,43,127,0
1,43,0,768
1,55,0,0
1,60,127,0
1,55,127,0
1,51,127,0
1,48,127,0
1,36,127,0
1,36,0,48
1,51,0,0
1,60,0,0
1,55,0,0
1,48,0,0
1,55,127,0
1,60,127,0
1,48,127,0
1,36,127,0
1,51,127,0
1,51,0,48
1,48,0,0
1,55,0,0
1,60,0,0
1,36,0,0
1,48,127,384
1,36,127,0
1,36,0,96
1,48,0,0
1,51,127,0
1,39,127,0
1,39,0,96
1,51,0,0
1,56,127,0
1,44,127,0
1,44,0,96
1,56,0,0
1,55,127,0
1,43,127,0
1,43,0,1536
1,55,0,0
1,75,127,0
1,72,127,0
1,67,127,0
1,48,127,0
1,48,0,192
1,75,0,0
1,72,0,0
1,67,0,0
1,74,127,96
1,70,127,0
1,67,127,0
1,48,127,0
1,48,0,480
1,74,0,0
1,70,0,0
1,67,0,0
1,75,127,0
1,72,127,0
1,67,127,0
1,48,127,0
1,48,0,192
1,75,0,0
1,72,0,0
1,67,0,0
1,74,127,96
1,70,127,0
1,67,127,0
1,48,127,0
1,48,0,480
1,74,0,0
1,70,0,0
1,67,0,0
1,41,127,0
1,53,127,96
1,53,0,96
1,65,127,0
1,60,127,0
1,56,127,0
1,56,0,192
1,41,0,0
1,65,0,0
1,60,0,0
1,43,127,0
1,55,127,96
1,55,0,96
1,67,127,0
1,62,127,0
1,58,127,0
1,58,0,192
1,43,0,0
1,67,0,0
1,62,0,0
1,65,127,0
1,62,127,0
1,59,127,0
1,47,127,0
1,47,0,288
1,65,0,0
1,62,0,0
1,59,0,0
1,48,127,0
1,58,127,0
1,62,127,0
1,65,127,0
1,65,0,192
1,62,0,0
1,58,0,0
1,55,127,0
1,55,0,96
1,63,127,0
1,62,127,0
1,62,0,96
1,63,0,0
1,62,127,0
1,63,127,0
1,63,0,96
1,62,0,0
1,48,0,0
1,41,127,0
1,53,127,96
1,53,0,96
1,65,127,0
1,60,127,0
1,56,127,0
1,56,0,192
1,41,0,0
1,65,0,0
1,60,0,0
1,43,127,0
1,55,127,96
1,55,0,96
1,67,127,0
1,62,127,0
1,58,127,0
1,58,0,192
1,43,0,0
1,67,0,0
1,62,0,0
1,65,127,0
1,62,127,0
1,59,127,0
1,47,127,0
1,47,0,288
1,65,0,0
1,62,0,0
1,59,0,0
1,48,127,0
1,58,127,0
1,62,127,0
1,65,127,0
1,65,0,192
1,62,0,0
1,58,0,0
1,55,127,0
1,55,0,96
1,63,127,0
1,62,127,0
1,62,0,96
1,63,0,0
1,62,127,0
1,63,127,0
1,63,0,96
1,62,0,0
1,48,0,0
1,41,127,0
1,53,127,96
1,53,0,96
1,65,127,0
1,60,127,0
1,56,127,0
1,56,0,192
1,41,0,0
1,65,0,0
1,60,0,0
1,43,127,0
1,55,127,96
1,55,0,96
1,67,127,0
1,62,127,0
1,58,127,0
1,58,0,192
1,43,0,0
1,67,0,0
1,62,0,0
1,65,127,0
1,62,127,0
1,59,127,0
1,47,127,0
1,47,0,288
1,65,0,0
1,62,0,0
1,59,0,0
1,48,127,0
1,58,127,0
1,62,127,0
1,65,127,0
1,65,0,192
1,62,0,0
1,58,0,0
1,55,127,0
1,55,0,96
1,63,127,0
1,62,127,0
1,62,0,96
1,63,0,0
1,62,127,0
1,63,127,0
1,63,0,96
1,62,0,0
1,48,0,0
1,41,127,0
1,53,127,96
1,53,0,96
1,65,127,0
1,60,127,0
1,56,127,0
1,56,0,192
1,41,0,0
1,65,0,0
1,60,0,0
1,43,127,0
1,55,127,96
1,55,0,96
1,67,127,0
1,62,127,0
1,58,127,0
1,58,0,192
1,43,0,0
1,67,0,0
1,62,0,0
1,65,127,0
1,62,127,0
1,59,127,0
1,47,127,0
1,47,0,288
1,65,0,0
1,62,0,0
1,59,0,0
1,48,127,0
1,58,127,0
1,62,127,0
1,65,127,0
1,65,0,192
1,62,0,0
1,58,0,0
1,55,127,0
1,55,0,96
1,63,127,0
1,62,127,0
1,62,0,96
1,63,0,0
1,62,127,0
1,63,127,0
1,63,0,96
1,62,0,0
1,48,0,0
1,65,127,0
1,53,127,0
1,41,127,0
1,65,0,288
1,77,127,0
1,77,0,48
1,79,127,0
1,79,0,48
1,80,127,0
1,80,0,96
1,79,127,0
1,79,0,96
1,77,127,0
1,77,0,192
1,41,0,0
1,53,0,0
1,87,127,0
1,63,127,0
1,63,0,288
1,87,0,0
1,86,127,0
1,62,127,0
1,62,0,288
1,86,0,0
1,83,127,0
1,59,127,0
1,59,0,192
1,83,0,0
1,60,127,0
1,55,127,0
1,51,127,0
1,48,127,0
1,36,127,0
1,36,0,48
1,51,0,0
1,60,0,0
1,55,0,0
1,48,0,0
1,55,127,0
1,60,127,0
1,48,127,0
1,36,127,0
1,51,127,0
1,51,0,48
1,48,0,0
1,55,0,0
1,60,0,0
1,36,0,0
1,60,127,672
1,55,127,0
1,51,127,0
1,48,127,0
1,36,127,0
1,36,0,48
1,51,0,0
1,60,0,0
1,55,0,0
1,48,0,0
1,55,127,0
1,60,127,0
1,48,127,0
1,36,127,0
1,51,127,0
1,51,0,48
1,48,0,0
1,55,0,0
1,60,0,0
1,36,0,0
1,48,127,384
1,36,127,0
1,36,0,96
1,48,0,0
1,51,127,0
1,39,127,0
1,39,0,96
1,51,0,0
1,56,127,0
1,44,127,0
1,44,0,96
1,56,0,0
1,55,127,0
1,43,127,0
1,43,0,768
1,55,0,0
1,60,127,0
1,55,127,0
1,51,127,0
1,48,127,0
1,36,127,0
1,36,0,48
1,51,0,0
1,60,0,0
1,55,0,0
1,48,0,0
1,55,127,0
1,60,127,0
1,48,127,0
1,36,127,0
1,51,127,0
1,51,0,48
1,48,0,0
1,55,0,0
1,60,0,0
1,36,0,0
1,48,127,384
1,36,127,0
1,36,0,96
1,48,0,0
1,51,127,0
1,39,127,0
1,39,0,96
1,51,0,0
1,56,127,0
1,44,127,0
1,44,0,96
1,56,0,0
1,55,127,0
1,43,127,0
1,43,0,768
1,55,0,0
1,60,127,0
1,55,127,0
1,51,127,0
1,48,127,0
1,36,127,0
1,36,0,48
1,51,0,0
1,60,0,0
1,55,0,0
1,48,0,0
1,55,127,0
1,60,127,0
1,48,127,0
1,36,127,0
1,51,127,0
1,51,0,48
1,48,0,0
1,55,0,0
1,60,0,0
1,36,0,0
1,48,127,384
1,36,127,0
1,36,0,96
1,48,0,0
1,51,127,0
1,39,127,0
1,39,0,96
1,51,0,0
1,56,127,0
1,44,127,0
1,44,0,96
1,56,0,0
1,55,127,0
1,43,127,0
1,43,0,768
1,55,0,0
1,60,127,0
1,55,127,0
1,51,127,0
1,48,127,0
1,36,127,0
1,36,0,48
1,51,0,0
1,60,0,0
1,55,0,0
1,48,0,0
1,55,127,0
1,60,127,0
1,48,127,0
1,36,127,0
1,51,127,0
1,51,0,48
1,48,0,0
1,55,0,0
1,60,0,0
1,36,0,0
1,48,127,384
1,36,127,0
1,36,0,96
1,48,0,0
1,51,127,0
1,39,127,0
1,39,0,96
1,51,0,0
1,56,127,0
1,44,127,0
1,44,0,96
1,56,0,0
1,55,127,0
1,43,127,0
1,43,0,1536
1,55,0,0
1,75,127,0
1,72,127,0
1,67,127,0
1,48,127,0
1,48,0,192
1,75,0,0
1,72,0,0
1,67,0,0
1,74,127,96
1,70,127,0
1,67,127,0
1,48,127,0
1,48,0,480
1,74,0,0
1,70,0,0
1,67,0,0
1,75,127,0
1,72,127,0
1,67,127,0
1,48,127,0
1,48,0,192
1,75,0,0
1,72,0,0
1,67,0,0
1,74,127,96
1,70,127,0
1,67,127,0
1,48,127,0
1,48,0,480
1,74,0,0
1,70,0,0
1,67,0,0
1,41,127,0
1,53,127,96
1,53,0,96
1,65,127,0
1,60,127,0
1,56,127,0
1,56,0,192
1,41,0,0
1,65,0,0
1,60,0,0
1,43,127,0
1,55,127,96
1,55,0,96
1,67,127,0
1,62,127,0
1,58,127,0
1,58,0,192
1,43,0,0
1,67,0,0
1,62,0,0
1,65,127,0
1,62,127,0
1,59,127,0
1,47,127,0
1,47,0,288
1,65,0,0
1,62,0,0
1,59,0,0
1,48,127,0
1,58,127,0
1,62,127,0
1,65,127,0
1,65,0,192
1,62,0,0
1,58,0,0
1,55,127,0
1,55,0,96
1,63,127,0
1,62,127,0
1,62,0,96
1,63,0,0
1,62,127,0
1,63,127,0
1,63,0,96
1,62,0,0
1,48,0,0
1,41,127,0
1,53,127,96
1,53,0,96
1,65,127,0
1,60,127,0
1,56,127,0
1,56,0,192
1,41,0,0
1,65,0,0
1,60,0,0
1,43,127,0
1,55,127,96
1,55,0,96
1,67,127,0
1,62,127,0
1,58,127,0
1,58,0,192
1,43,0,0
1,67,0,0
1,62,0,0
1,65,127,0
1,62,127,0
1,59,127,0
1,47,127,0
1,47,0,288
1,65,0,0
1,62,0,0
1,59,0,0
1,48,127,0
1,58,127,0
1,62,127,0
1,65,127,0
1,65,0,192
1,62,0,0
1,58,0,0
1,55,127,0
1,55,0,96
1,63,127,0
1,62,127,0
1,62,0,96
1,63,0,0
1,62,127,0
1,63,127,0
1,63,0,96
1,62,0,0
1,48,0,0
1,41,127,0
1,53,127,96
1,53,0,96
1,65,127,0
1,60,127,0
1,56,127,0
1,56,0,192
1,41,0,0
1,65,0,0
1,60,0,0
1,43,127,0
1,55,127,96
1,55,0,96
1,67,127,0
1,62,127,0
1,58,127,0
1,58,0,192
1,43,0,0
1,67,0,0
1,62,0,0
1,65,127,0
1,62,127,0
1,59,127,0
1,47,127,0
1,47,0,288
1,65,0,0
1,62,0,0
1,59,0,0
1,48,127,0
1,58,127,0
1,62,127,0
1,65,127,0
1,65,0,192
1,62,0,0
1,58,0,0
1,55,127,0
1,55,0,96
1,63,127,0
1,62,127,0
1,62,0,96
1,63,0,0
1,62,127,0
1,63,127,0
1,63,0,96
1,62,0,0
1,48,0,0
1,41,127,0
1,53,127,96
1,53,0,96
1,65,127,0
1,60,127,0
1,56,127,0
1,56,0,192
1,41,0,0
1,65,0,0
1,60,0,0
1,43,127,0
1,55,127,96
1,55,0,96
1,67,127,0
1,62,127,0
1,58,127,0
1,58,0,192
1,43,0,0
1,67,0,0
1,62,0,0
1,65,127,0
1,62,127,0
1,59,127,0
1,47,127,0
1,47,0,288
1,65,0,0
1,62,0,0
1,59,0,0
1,48,127,0
1,58,127,0
1,62,127,0
1,65,127,0
1,65,0,192
1,62,0,0
1,58,0,0
1,55,127,0
1,55,0,96
1,63,127,0
1,62,127,0
1,62,0,96
1,63,0,0
1,62,127,0
1,63,127,0
1,63,0,96
1,62,0,0
1,48,0,0
1,61,127,0
1,65,127,0
1,58,127,0
1,46,127,0
1,46,0,384
1,61,0,0
1,65,0,0
1,58,0,0
1,65,127,0
1,61,127,0
1,58,127,0
1,46,127,0
1,46,0,128
1,65,0,0
1,61,0,0
1,58,0,0
1,65,127,0
1,61,127,0
1,58,127,0
1,46,127,0
1,46,0,128
1,65,0,0
1,61,0,0
1,58,0,0
1,65,127,0
1,60,127,0
1,57,127,0
1,45,127,0
1,45,0,128
1,65,0,0
1,60,0,0
1,57,0,0
1,65,127,0
1,59,127,0
1,56,127,0
1,44,127,0
1,44,0,480
1,65,0,0
1,59,0,0
1,56,0,0
1,46,127,0
1,82,127,0
1,82,0,96
1,46,0,0
1,44,127,0
1,80,127,0
1,80,0,96
1,44,0,0
1,41,127,0
1,77,127,0
1,77,0,192
1,53,127,0
1,53,0,96
1,41,0,0
1,65,127,0
1,60,127,0
1,56,127,0
1,56,0,192
1,60,0,0
1,65,0,0
1,67,127,0
1,62,127,0
1,58,127,0
1,43,127,0
1,43,0,384
1,67,0,0
1,62,0,0
1,58,0,0
1,65,127,0
1,62,127,0
1,59,127,0
1,47,127,0
1,47,0,288
1,65,0,0
1,62,0,0
1,59,0,0
1,48,127,0
1,65,127,0
1,62,127,0
1,58,127,0
1,58,0,192
1,62,0,0
1,65,0,0
1,55,127,0
1,55,0,96
1,63,127,0
1,63,0,192
1,48,0,0
1,60,127,0
1,38,127,288
1,38,0,48
1,39,127,0
1,39,0,48
1,40,127,0
1,40,0,96
1,41,127,0
1,41,0,96
1,60,0,0
1,42,127,0
1,61,127,0
1,42,0,96
1,43,127,0
1,43,0,96
1,61,0,0
1,58,127,0
1,38,127,288
1,38,0,48
1,39,127,0
1,39,0,48
1,58,0,0
1,40,127,0
1,40,0,96
1,41,127,0
1,41,0,96
1,42,127,0
1,63,127,0
1,42,0,96
1,43,127,0
1,43,0,96
1,63,0,0
1,60,127,0
1,38,127,288
1,38,0,48
1,39,127,0
1,39,0,48
1,40,127,0
1,40,0,96
1,41,127,0
1,41,0,96
1,60,0,0
1,42,127,0
1,61,127,0
1,42,0,96
1,43,127,0
1,43,0,96
1,61,0,0
1,58,127,0
1,38,127,288
1,38,0,48
1,39,127,0
1,39,0,48
1,40,127,0
1,40,0,96
1,41,127,0
1,41,0,96
1,58,0,0
1,42,127,0
1,56,127,0
1,42,0,96
1,43,127,0
1,43,0,96
1,56,0,0
1,41,127,0
1,53,127,0
1,77,127,288
1,77,0,48
1,79,127,0
1,79,0,48
1,80,127,0
1,80,0,96
1,79,127,0
1,79,0,96
1,77,127,0
1,77,0,96
1,80,127,0
1,80,0,96
1,53,0,0
1,84,127,0
1,84,0,768
1,41,0,0
1,75,127,0
1,70,127,0
1,51,127,0
1,51,0,288
1,70,0,0
1,75,0,0
