track,note,velocity,time
2,77,79,2832
2,77,0,32
2,77,79,16
2,77,0,32
2,80,79,16
2,80,0,112
2,77,79,32
2,77,0,64
2,77,79,128
2,77,0,64
2,73,79,32
2,73,0,64
2,73,79,272
2,73,0,32
2,75,79,16
2,75,0,32
2,75,79,16
2,75,0,32
2,75,79,16
2,75,0,32
2,75,79,16
2,75,0,80
2,73,79,16
2,73,0,32
2,75,79,16
2,75,0,32
2,77,79,16
2,77,0,174
2,77,79,114
2,77,0,32
2,77,79,16
2,77,0,32
2,77,79,16
2,77,0,32
2,80,79,16
2,80,0,64
2,77,79,32
2,77,0,64
2,73,79,176
2,73,0,32
2,75,79,16
2,75,0,32
2,75,79,16
2,75,0,32
2,75,79,16
2,75,0,64
2,73,79,176
2,73,0,32
2,75,79,16
2,75,0,32
2,73,79,16
2,73,0,32
2,75,79,16
2,75,0,32
2,73,79,16
2,73,0,32
2,75,79,16
2,75,0,32
2,73,79,16
2,73,0,32
2,75,79,16
2,75,0,32
2,70,79,16
2,70,0,32
2,70,79,16
2,70,0,126
2,77,79,114
2,77,0,32
2,77,79,16
2,77,0,32
2,77,79,16
2,77,0,32
2,80,79,16
2,80,0,64
2,77,79,32
2,77,0,160
2,77,79,32
2,77,0,64
2,73,79,32
2,73,0,126
2,75,79,258
2,75,0,32
2,73,79,16
2,73,0,32
2,75,79,16
2,75,0,32
2,73,79,16
2,73,0,32
2,75,79,16
2,75,0,32
2,73,79,16
2,73,0,80
2,77,79,16
2,77,0,174
2,77,79,114
2,77,0,32
2,77,79,16
2,77,0,32
2,80,79,16
2,80,0,112
2,77,79,32
2,77,0,32
2,77,79,16
2,77,0,32
2,73,79,16
2,73,0,64
2,70,79,32
2,70,0,32
2,73,79,16
2,73,0,32
2,75,79,16
2,75,0,64
2,75,79,32
2,75,0,32
2,73,79,16
2,73,0,32
2,75,79,16
2,75,0,64
2,77,79,176
2,77,0,32
2,75,79,16
2,75,0,32
2,73,79,16
2,73,0,32
2,75,79,16
2,75,0,32
2,73,79,16
2,73,0,32
2,75,79,16
2,75,0,32
2,73,79,16
2,73,0,32
2,77,79,16
2,77,0,64
2,77,79,32
2,77,0,32
2,73,79,16
2,73,0,80
2,73,79,16
2,73,0,80
2,75,79,16
2,75,0,112
2,75,95,32
2,75,0,32
2,75,95,16
2,75,0,32
2,73,95,16
2,73,0,96
2,75,95,48
2,75,0,112
2,75,95,32
2,75,0,32
2,75,95,16
2,75,0,32
2,73,95,16
2,73,0,126
2,77,95,66
2,77,0,64
2,75,95,32
2,75,0,64
2,73,95,32
2,73,0,32
2,75,95,16
2,75,0,32
2,73,95,16
2,73,0,32
2,77,95,16
2,77,0,80
2,77,95,16
2,77,0,80
2,70,95,16
2,70,0,32
2,73,95,16
2,73,0,32
2,73,95,16
2,73,0,32
2,75,95,16
2,75,0,32
2,73,95,16
2,73,0,32
2,77,95,16
2,77,0,32
2,70,95,16
2,70,0,32
2,73,95,16
2,73,0,32
2,70,95,16
2,70,0,32
2,73,95,16
2,73,0,32
2,73,95,16
2,73,0,32
2,70,95,16
2,70,0,32
2,73,95,16
2,73,0,80
2,68,95,16
2,68,0,32
2,68,95,16
2,68,0,160
2,77,95,128
2,77,0,64
2,75,95,32
2,75,0,64
2,73,95,32
2,73,0,32
2,77,95,16
2,77,0,32
2,73,95,16
2,73,0,32
2,77,95,16
2,77,0,80
2,77,95,16
2,77,0,112
2,75,79,80
2,75,0,32
2,77,79,16
2,77,0,32
2,80,79,16
2,80,0,112
2,77,79,32
2,77,0,64
2,77,79,128
2,77,0,64
2,73,79,32
2,73,0,64
2,73,79,272
2,73,0,32
2,75,79,16
2,75,0,32
2,75,79,16
2,75,0,32
2,75,79,16
2,75,0,32
2,75,79,16
2,75,0,80
2,73,79,16
2,73,0,32
2,75,79,16
2,75,0,32
2,77,79,16
2,77,0,174
2,77,79,114
2,77,0,32
2,77,79,16
2,77,0,32
2,77,79,16
2,77,0,32
2,80,79,16
2,80,0,64
2,77,79,32
2,77,0,64
2,73,79,176
2,73,0,32
2,75,79,16
2,75,0,32
2,75,79,16
2,75,0,32
2,75,79,16
2,75,0,64
2,73,79,176
2,73,0,32
2,75,79,16
2,75,0,32
2,73,79,16
2,73,0,32
2,75,79,16
2,75,0,32
2,73,79,16
2,73,0,32
2,75,79,16
2,75,0,32
2,73,79,16
2,73,0,32
2,75,79,16
2,75,0,32
2,70,79,16
2,70,0,32
2,70,79,16
2,70,0,126
2,77,79,114
2,77,0,32
2,77,79,16
2,77,0,32
2,77,79,16
2,77,0,32
2,80,79,16
2,80,0,64
2,77,79,32
2,77,0,160
2,77,79,32
2,77,0,64
2,73,79,32
2,73,0,126
2,75,79,258
2,75,0,32
2,73,79,16
2,73,0,32
2,75,79,16
2,75,0,32
2,73,79,16
2,73,0,32
2,75,79,16
2,75,0,32
2,73,79,16
2,73,0,80
2,77,79,16
2,77,0,174
2,77,79,114
2,77,0,32
2,77,79,16
2,77,0,32
2,80,79,16
2,80,0,112
2,77,79,32
2,77,0,32
2,77,79,16
2,77,0,32
2,73,79,16
2,73,0,64
2,70,79,32
2,70,0,32
2,73,79,16
2,73,0,32
2,75,79,16
2,75,0,64
2,75,79,32
2,75,0,32
2,73,79,16
2,73,0,32
2,75,79,16
2,75,0,64
2,77,79,176
2,77,0,32
2,75,79,16
2,75,0,32
2,73,79,16
2,73,0,32
2,75,79,16
2,75,0,32
2,73,79,16
2,73,0,32
2,75,79,16
2,75,0,32
2,73,79,16
2,73,0,32
2,77,79,16
2,77,0,64
2,77,79,32
2,77,0,32
2,73,79,16
2,73,0,80
2,73,79,16
2,73,0,80
2,75,79,16
2,75,0,112
2,75,95,32
2,75,0,32
2,75,95,16
2,75,0,32
2,73,95,16
2,73,0,96
2,75,95,48
2,75,0,112
2,75,95,32
2,75,0,32
2,75,95,16
2,75,0,32
2,73,95,16
2,73,0,126
2,77,95,66
2,77,0,64
2,75,95,32
2,75,0,64
2,73,95,32
2,73,0,32
2,75,95,16
2,75,0,32
2,73,95,16
2,73,0,32
2,77,95,16
2,77,0,80
2,77,95,16
2,77,0,80
2,70,95,16
2,70,0,32
2,73,95,16
2,73,0,32
2,73,95,16
2,73,0,32
2,75,95,16
2,75,0,32
2,73,95,16
2,73,0,32
2,77,95,16
2,77,0,32
2,70,95,16
2,70,0,32
2,73,95,16
2,73,0,32
2,70,95,16
2,70,0,32
2,73,95,16
2,73,0,32
2,73,95,16
2,73,0,32
2,70,95,16
2,70,0,32
2,73,95,16
2,73,0,80
2,68,95,16
2,68,0,32
2,68,95,16
2,68,0,160
2,77,95,128
2,77,0,64
2,75,95,32
2,75,0,64
2,73,95,32
2,73,0,32
2,77,95,16
2,77,0,32
2,73,95,16
2,73,0,32
2,77,95,16
2,77,0,80
2,77,95,16
2,77,0,32
2,73,95,16
2,73,0,64
2,73,95,32
2,73,0,64
2,73,95,32
2,73,0,64
2,77,79,1568
2,77,0,62
2,77,79,34
2,77,0,62
2,73,79,226
2,73,0,62
2,73,79,34
2,73,0,62
2,79,79,34
2,79,0,62
2,80,79,34
2,80,0,32
2,79,79,16
2,79,0,32
2,82,79,16
2,82,0,48
2,80,79,0
2,80,0,48
2,79,79,0
2,79,0,32
2,77,79,16
2,77,0,174
2,77,79,6306
2,77,0,32
2,73,79,16
2,73,0,32
2,73,79,16
2,73,0,32
2,73,79,16
2,73,0,64
2,75,79,32
2,75,0,112
2,75,95,32
2,75,0,32
2,75,95,16
2,75,0,32
2,73,95,16
2,73,0,96
2,75,95,48
2,75,0,112
2,75,95,32
2,75,0,32
2,75,95,16
2,75,0,32
2,73,95,16
2,73,0,126
2,77,95,66
2,77,0,64
2,75,95,32
2,75,0,64
2,73,95,32
2,73,0,32
2,75,95,16
2,75,0,32
2,73,95,16
2,73,0,32
2,77,95,16
2,77,0,80
2,77,95,16
2,77,0,80
2,70,95,16
2,70,0,32
2,73,95,16
2,73,0,32
2,73,95,16
2,73,0,32
2,75,95,16
2,75,0,32
2,73,95,16
2,73,0,32
2,77,95,16
2,77,0,32
2,70,95,16
2,70,0,32
2,73,95,16
2,73,0,32
2,70,95,16
2,70,0,32
2,73,95,16
2,73,0,32
2,73,95,16
2,73,0,32
2,70,95,16
2,70,0,32
2,73,95,16
2,73,0,80
2,68,95,16
2,68,0,32
2,68,95,16
2,68,0,160
2,77,95,128
2,77,0,64
2,75,95,32
2,75,0,64
2,73,95,32
2,73,0,32
2,77,95,16
2,77,0,32
2,73,95,16
2,73,0,32
2,77,95,16
2,77,0,48
2,77,95,0
2,77,0,32
2,77,95,16
2,77,0,112
2,75,79,80
2,75,0,32
2,77,79,16
2,77,0,32
2,80,79,16
2,80,0,112
2,77,79,32
2,77,0,64
2,77,79,128
2,77,0,64
2,73,79,32
2,73,0,64
2,73,79,272
2,73,0,32
2,75,79,16
2,75,0,32
2,75,79,16
2,75,0,32
2,75,79,16
2,75,0,32
2,75,79,16
2,75,0,80
2,73,79,16
2,73,0,32
2,75,79,16
2,75,0,32
2,77,79,16
2,77,0,174
2,77,79,114
2,77,0,32
2,77,79,16
2,77,0,32
2,77,79,16
2,77,0,32
2,80,79,16
2,80,0,64
2,77,79,32
2,77,0,64
2,73,79,176
2,73,0,32
2,75,79,16
2,75,0,32
2,75,79,16
2,75,0,32
2,75,79,16
2,75,0,64
2,73,79,176
2,73,0,32
2,75,79,16
2,75,0,32
2,73,79,16
2,73,0,32
2,75,79,16
2,75,0,32
2,73,79,16
2,73,0,32
2,75,79,16
2,75,0,32
2,73,79,16
2,73,0,32
2,75,79,16
2,75,0,32
2,70,79,16
2,70,0,32
2,70,79,16
2,70,0,126
2,77,79,114
2,77,0,32
2,77,79,16
2,77,0,32
2,77,79,16
2,77,0,32
2,80,79,16
2,80,0,64
2,77,79,32
2,77,0,160
2,77,79,32
2,77,0,64
2,73,79,32
2,73,0,126
2,75,79,258
2,75,0,32
2,73,79,16
2,73,0,32
2,75,79,16
2,75,0,32
2,73,79,16
2,73,0,32
2,75,79,16
2,75,0,32
2,73,79,16
2,73,0,80
2,77,79,16
2,77,0,174
2,77,79,114
2,77,0,32
2,77,79,16
2,77,0,32
2,80,79,16
2,80,0,112
2,77,79,32
2,77,0,32
2,77,79,16
2,77,0,32
2,73,79,16
2,73,0,64
2,70,79,32
2,70,0,32
2,73,79,16
2,73,0,32
2,75,79,16
2,75,0,64
2,75,79,32
2,75,0,32
2,73,79,16
2,73,0,32
2,75,79,16
2,75,0,64
2,77,79,176
2,77,0,32
2,75,79,16
2,75,0,32
2,73,79,16
2,73,0,32
2,75,79,16
2,75,0,32
2,73,79,16
2,73,0,32
2,75,79,16
2,75,0,32
2,73,79,16
2,73,0,32
2,77,79,16
2,77,0,64
2,77,79,32
2,77,0,32
2,73,79,16
2,73,0,80
2,73,79,16
2,73,0,80
2,75,79,16
2,75,0,112
2,75,95,32
2,75,0,32
2,75,95,16
2,75,0,32
2,73,95,16
2,73,0,96
2,75,95,48
2,75,0,112
2,75,95,32
2,75,0,32
2,75,95,16
2,75,0,32
2,73,95,16
2,73,0,126
2,77,95,66
2,77,0,64
2,75,95,32
2,75,0,64
2,73,95,32
2,73,0,32
2,75,95,16
2,75,0,32
2,73,95,16
2,73,0,32
2,77,95,16
2,77,0,80
2,77,95,16
2,77,0,80
2,70,95,16
2,70,0,32
2,73,95,16
2,73,0,32
2,73,95,16
2,73,0,32
2,75,95,16
2,75,0,32
2,73,95,16
2,73,0,32
2,77,95,16
2,77,0,32
2,70,95,16
2,70,0,32
2,73,95,16
2,73,0,32
2,70,95,16
2,70,0,32
2,73,95,16
2,73,0,32
2,73,95,16
2,73,0,32
2,70,95,16
2,70,0,32
2,73,95,16
2,73,0,80
2,68,95,16
2,68,0,32
2,68,95,16
2,68,0,160
2,77,95,128
2,77,0,64
2,75,95,32
2,75,0,64
2,73,95,32
2,73,0,32
2,77,95,16
2,77,0,32
2,73,95,16
2,73,0,32
2,77,95,16
2,77,0,80
2,77,95,16
2,77,0,32
2,73,95,16
2,73,0,64
2,73,95,32
2,73,0,64
2,77,79,128
2,77,0,62
2,77,79,34
2,77,0,62
2,73,79,226
2,73,0,62
2,73,79,34
2,73,0,62
2,79,79,34
2,79,0,62
2,80,79,34
2,80,0,32
2,79,79,16
2,79,0,32
2,82,79,16
2,82,0,48
2,80,79,0
2,80,0,48
2,79,79,0
2,79,0,32
2,77,79,16
2,77,0,174
2,77,79,0
2,77,0,2
2,77,79,12
2,77,0,2
2,73,79,12
2,73,0,2
2,73,79,12
2,73,0,2
2,79,79,12
2,79,0,2
2,80,79,12
2,80,0,20
2,79,79,12
2,79,0,20
2,82,79,12
2,82,0,12
2,80,79,0
2,80,0,12
2,79,79,0
2,79,0,20
2,77,79,12
2,77,0,18
2,77,79,12
2,77,0,14
2,77,79,0
2,77,0,14
2,73,79,0
2,73,0,14
2,73,79,0
2,73,0,14
2,79,79,0
2,79,0,14
2,80,79,0
2,80,0,8
2,79,79,0
2,79,0,8
2,82,79,0
2,82,0,24
2,80,79,0
2,80,0,24
2,79,79,0
2,79,0,8
2,77,79,0
2,77,0,6
3,68,95,172
3,65,95,0
3,61,95,0
3,70,95,0
3,61,0,64
3,65,0,0
3,68,0,0
3,70,0,0
3,68,95,32
3,65,95,0
3,61,95,0
3,70,95,0
3,61,0,32
3,65,0,0
3,68,0,0
3,70,0,0
3,68,95,112
3,65,95,0
3,61,95,0
3,70,95,0
3,61,0,32
3,65,0,0
3,68,0,0
3,70,0,0
3,65,95,64
3,61,95,0
3,68,95,0
3,61,0,112
3,65,0,0
3,68,0,0
3,67,95,32
3,67,0,64
3,65,95,32
3,61,95,0
3,68,95,0
3,61,0,32
3,65,0,0
3,68,0,0
3,67,95,16
3,67,0,80
3,68,95,16
3,65,95,0
3,61,95,0
3,70,95,0
3,61,0,112
3,65,0,0
3,68,0,0
3,70,0,0
3,68,95,32
3,65,95,0
3,61,95,0
3,70,95,0
3,61,0,32
3,65,0,0
3,68,0,0
3,70,0,0
3,68,95,112
3,65,95,0
3,61,95,0
3,70,95,0
3,61,0,32
3,65,0,0
3,68,0,0
3,70,0,0
3,68,95,64
3,65,95,0
3,61,95,0
3,70,95,0
3,61,0,112
3,65,0,0
3,68,0,0
3,70,0,0
3,68,95,32
3,65,95,0
3,61,95,0
3,70,95,0
3,61,0,32
3,65,0,0
3,68,0,0
3,70,0,0
3,68,95,112
3,65,95,0
3,61,95,0
3,70,95,0
3,61,0,32
3,65,0,0
3,68,0,0
3,70,0,0
3,68,95,64
3,65,95,0
3,61,95,0
3,70,95,0
3,61,0,112
3,65,0,0
3,68,0,0
3,70,0,0
3,68,95,32
3,65,95,0
3,61,95,0
3,70,95,0
3,61,0,32
3,65,0,0
3,68,0,0
3,70,0,0
3,68,95,112
3,65,95,0
3,61,95,0
3,70,95,0
3,61,0,32
3,65,0,0
3,68,0,0
3,70,0,0
3,65,95,64
3,61,95,0
3,68,95,0
3,61,0,112
3,65,0,0
3,68,0,0
3,67,95,32
3,67,0,64
3,65,95,32
3,61,95,0
3,68,95,0
3,61,0,32
3,65,0,0
3,68,0,0
3,67,95,16
3,67,0,80
3,68,95,16
3,65,95,0
3,61,95,0
3,70,95,0
3,61,0,112
3,65,0,0
3,68,0,0
3,70,0,0
3,68,95,32
3,65,95,0
3,61,95,0
3,70,95,0
3,61,0,32
3,65,0,0
3,68,0,0
3,70,0,0
3,68,95,112
3,65,95,0
3,61,95,0
3,70,95,0
3,61,0,32
3,65,0,0
3,68,0,0
3,70,0,0
3,68,95,64
3,65,95,0
3,61,95,0
3,70,95,0
3,61,0,112
3,65,0,0
3,68,0,0
3,70,0,32
3,68,95,0
3,65,95,0
3,61,95,0
3,70,95,0
3,61,0,32
3,65,0,0
3,68,0,0
3,70,0,0
3,65,79,112
3,65,0,32
3,65,79,16
3,65,0,32
3,65,79,16
3,61,79,0
3,68,79,0
3,61,0,112
