track,note,velocity,time
1,79,72,390
1,85,72,30
1,88,77,30
1,94,79,30
1,79,0,150
1,85,0,30
1,88,0,30
1,94,0,30
1,74,68,630
1,80,69,30
1,83,71,30
1,89,73,30
1,74,0,150
1,80,0,30
1,83,0,30
1,89,0,30
1,69,59,675
1,75,61,15
1,78,64,15
1,84,66,15
1,69,0,195
1,75,0,15
1,78,0,15
1,84,0,15
1,64,59,195
1,70,60,15
1,73,63,15
1,79,64,15
1,64,0,195
1,70,0,15
1,73,0,15
1,79,0,15
1,59,59,195
1,65,62,15
1,68,65,15
1,74,68,15
1,59,0,195
1,65,0,15
1,68,0,15
1,74,0,15
1,54,62,195
1,60,65,15
1,63,68,15
1,69,71,15
1,54,0,195
1,60,0,15
1,63,0,15
1,69,0,15
1,55,65,195
1,61,67,15
1,64,69,15
1,70,71,15
1,55,0,195
1,61,0,15
1,64,0,15
1,70,0,15
1,56,69,210
1,59,73,15
1,65,77,15
1,56,0,210
1,59,0,15
1,65,0,15
1,53,70,210
1,56,73,15
1,62,76,15
1,53,0,210
1,56,0,15
1,62,0,15
1,57,70,195
1,62,74,15
1,65,77,15
1,69,78,15
1,57,0,195
1,62,0,15
1,65,0,15
1,69,0,15
1,81,84,720
1,69,71,0
1,77,71,0
1,74,71,0
1,74,0,240
1,81,0,0
1,69,0,0
1,77,0,0
1,79,71,720
1,93,84,0
1,85,71,0
1,88,71,0
1,81,71,0
1,81,0,240
1,85,0,0
1,79,0,0
1,93,0,0
1,88,0,0
1,45,39,1800
1,46,42,120
1,45,0,60
1,49,43,60
1,46,0,60
1,53,46,60
1,49,0,60
1,52,45,36
1,53,0,48
1,50,44,48
1,52,0,48
1,49,43,48
1,50,0,48
1,46,41,48
1,49,0,48
1,45,43,48
1,46,0,48
1,46,43,32
1,45,0,41
1,49,44,39
1,46,0,40
1,50,45,40
1,49,0,40
1,52,47,40
1,50,0,40
1,53,48,40
1,52,0,40
1,58,50,40
1,53,0,40
1,57,49,40
1,58,0,40
1,55,48,40
1,57,0,40
1,53,47,40
1,55,0,40
1,52,45,40
1,53,0,40
1,50,44,40
1,52,0,40
1,49,45,40
1,50,0,40
1,50,44,20
1,49,0,30
1,52,45,30
1,50,0,30
1,53,46,30
1,52,0,30
1,55,48,30
1,53,0,30
1,57,48,30
1,55,0,30
1,58,49,30
1,57,0,30
1,61,49,30
1,58,0,30
1,65,51,30
1,61,0,30
1,64,51,66
1,65,0,48
1,62,50,48
1,64,0,48
1,61,50,48
1,62,0,48
1,58,50,48
1,61,0,48
1,57,50,48
1,58,0,48
1,58,51,32
1,57,0,40
1,61,52,40
1,58,0,40
1,62,53,40
1,61,0,40
1,64,54,40
1,62,0,40
1,65,56,40
1,64,0,40
1,70,57,40
1,65,0,40
1,69,57,40
1,70,0,40
1,67,56,40
1,69,0,40
1,65,54,40
1,67,0,40
1,64,53,40
1,65,0,40
1,62,52,40
1,64,0,40
1,61,53,40
1,62,0,40
1,62,54,20
1,61,0,30
1,64,56,30
1,62,0,30
1,65,56,30
1,64,0,30
1,67,57,30
1,65,0,30
1,69,57,30
1,67,0,30
1,70,59,30
1,69,0,30
1,73,60,30
1,70,0,30
1,77,61,30
1,73,0,30
1,76,61,66
1,77,0,48
1,74,60,48
1,76,0,48
1,73,59,48
1,74,0,48
1,70,58,48
1,73,0,48
1,69,58,48
1,70,0,48
1,70,58,32
1,69,0,40
1,73,60,40
1,70,0,40
1,74,61,40
1,73,0,40
1,76,62,40
1,74,0,40
1,77,63,40
1,76,0,40
1,82,63,40
1,77,0,40
1,81,63,40
1,82,0,40
1,79,62,40
1,81,0,40
1,77,61,40
1,79,0,40
1,76,60,40
1,77,0,40
1,74,59,40
1,76,0,40
1,73,58,40
1,74,0,40
1,74,58,20
1,73,0,30
1,76,59,30
1,74,0,30
1,77,60,30
1,76,0,30
1,79,62,30
1,77,0,30
1,81,63,30
1,79,0,30
1,82,64,30
1,81,0,30
1,85,65,30
1,82,0,30
1,89,66,30
1,85,0,30
1,88,66,66
1,89,0,48
1,86,65,48
1,88,0,48
1,85,65,48
1,86,0,48
1,82,64,48
1,85,0,48
1,81,65,48
1,82,0,48
1,82,68,48
1,81,0,48
1,85,70,48
1,82,0,48
1,86,71,48
1,85,0,48
1,88,72,48
1,86,0,48
1,89,74,48
1,88,0,48
1,91,76,48
1,89,0,48
1,93,78,48
1,91,0,48
1,94,80,48
1,93,0,48
1,97,81,48
1,94,0,48
1,101,85,48
1,97,0,48
1,101,0,12
1,100,85,0
1,100,0,60
1,98,84,0
1,98,0,60
1,97,84,0
1,97,0,60
1,94,83,0
1,94,0,60
1,93,83,0
1,93,0,60
1,91,83,0
1,91,0,60
1,89,82,0
1,89,0,60
1,88,82,0
1,88,0,60
1,86,81,0
1,86,0,60
1,85,81,0
1,85,0,60
1,82,80,0
1,82,0,60
1,81,80,0
1,81,0,60
1,79,80,0
1,79,0,60
1,77,79,0
1,77,0,60
1,76,79,0
1,76,0,60
1,74,79,0
1,74,0,60
1,73,79,0
1,73,0,60
1,70,78,0
1,70,0,60
1,69,78,0
1,69,0,60
1,67,78,0
1,67,0,60
1,65,77,0
1,65,0,60
1,64,77,0
1,64,0,60
1,62,77,0
1,62,0,60
1,61,78,0
1,61,0,60
1,58,78,0
1,58,0,60
1,57,79,0
1,57,0,60
1,55,80,0
1,55,0,60
1,53,81,0
1,53,0,60
1,52,82,0
1,52,0,60
1,50,82,0
1,50,0,60
1,49,82,0
1,49,0,60
1,46,80,0
1,46,0,48
1,45,80,0
1,45,0,48
1,43,82,0
1,43,0,48
1,41,83,0
1,41,0,48
1,40,84,0
1,40,0,48
1,86,97,0
1,77,76,0
1,74,76,0
1,52,48,240
1,56,60,0
1,56,0,120
1,52,0,0
1,57,63,0
1,53,50,0
1,53,0,120
1,57,0,0
1,64,65,0
1,61,51,0
1,61,0,120
1,64,0,0
1,62,54,0
1,65,67,0
1,65,0,120
1,62,0,0
1,64,55,0
1,68,69,0
1,68,0,120
1,64,0,0
1,65,56,0
1,69,71,0
1,69,0,120
1,86,0,0
1,74,0,0
1,77,0,0
1,65,0,0
1,77,79,0
1,74,75,0
1,86,101,0
1,52,48,240
1,56,60,0
1,56,0,120
1,52,0,0
1,53,50,0
1,57,63,0
1,57,0,120
1,77,0,0
1,86,0,0
1,74,0,0
1,53,0,0
1,61,51,0
1,64,65,0
1,64,0,120
1,61,0,0
1,62,54,0
1,65,67,0
1,65,0,120
1,62,0,0
1,64,69,0
1,68,69,0
1,68,0,120
1,64,0,0
1,65,56,0
1,69,71,0
1,84,89,60
1,72,70,0
1,72,0,60
1,65,0,0
1,69,0,0
1,84,0,0
1,70,75,0
1,76,77,0
1,82,100,0
1,54,48,240
1,57,60,0
1,57,0,120
1,54,0,0
1,58,63,0
1,55,50,0
1,55,0,120
1,58,0,0
1,63,51,0
1,66,65,0
1,66,0,120
1,63,0,0
1,64,54,0
1,67,67,0
1,67,0,120
1,64,0,0
1,69,69,0
1,66,55,0
1,66,0,120
1,69,0,0
1,70,71,0
1,67,56,0
1,67,0,120
1,70,0,0
1,82,0,0
1,76,0,0
1,70,0,0
1,76,72,0
1,82,92,0
1,70,72,0
1,57,60,240
1,54,48,0
1,54,0,120
1,57,0,0
1,58,63,0
1,55,50,0
1,55,0,120
1,76,0,0
1,70,0,0
1,82,0,0
1,58,0,0
1,63,51,0
1,66,65,0
1,66,0,120
1,63,0,0
1,67,67,0
1,64,54,0
1,64,0,120
1,67,0,0
1,69,69,0
1,66,69,0
1,66,0,120
1,69,0,0
1,70,71,0
1,67,56,0
1,67,0,60
1,70,0,0
1,70,70,0
1,82,89,0
1,82,0,60
1,70,0,0
1,81,95,0
1,76,75,0
1,69,75,0
1,51,48,240
1,54,60,0
1,54,0,120
1,51,0,0
1,52,50,0
1,55,63,0
1,55,0,120
1,81,0,0
1,69,0,0
1,76,0,0
1,52,0,0
1,60,51,0
1,63,65,0
1,63,0,120
1,60,0,0
1,61,54,0
1,64,67,0
1,64,0,120
1,61,0,0
1,66,69,0
1,63,69,0
1,63,0,120
1,66,0,0
1,64,56,0
1,67,71,0
1,69,70,60
1,81,89,0
1,81,0,60
1,64,0,0
1,67,0,0
1,69,0,0
1,79,75,0
1,88,95,0
1,76,75,0
1,51,48,240
1,54,60,0
1,54,0,120
1,51,0,0
1,52,50,0
1,55,63,0
1,55,0,120
1,79,0,0
1,76,0,0
1,88,0,0
1,52,0,0
1,60,51,0
1,63,65,0
1,63,0,120
1,60,0,0
1,64,67,0
1,61,54,0
1,61,0,120
1,64,0,0
1,66,69,0
1,63,69,0
1,63,0,120
1,66,0,0
1,67,71,0
1,64,56,0
1,64,0,60
1,67,0,0
1,79,80,0
1,67,62,0
1,67,0,60
1,79,0,0
1,65,67,0
1,69,67,0
1,77,85,0
1,56,50,240
1,52,38,0
1,52,0,120
1,56,0,0
1,53,41,0
1,57,51,0
1,57,0,120
1,65,0,0
1,77,0,0
1,69,0,0
1,53,0,0
1,64,53,0
1,61,41,0
1,61,0,120
1,64,0,0
1,62,43,0
1,65,54,0
1,65,0,120
1,62,0,0
1,68,55,0
1,64,55,0
1,64,0,120
1,68,0,0
1,69,56,0
1,65,44,0
1,65,0,60
1,69,0,0
1,69,64,0
1,81,82,0
1,81,0,60
1,69,0,0
1,62,70,0
1,74,88,0
1,65,70,0
1,56,49,240
1,52,38,0
1,52,0,120
1,56,0,0
1,57,50,0
1,53,39,0
1,53,0,120
1,62,0,0
1,65,0,0
1,74,0,0
1,57,0,0
1,61,41,0
1,64,51,0
1,64,0,120
1,61,0,0
1,65,52,0
1,62,42,0
1,62,0,120
1,65,0,0
1,68,53,0
1,64,53,0
1,64,0,120
1,68,0,0
1,69,54,0
1,65,43,0
1,65,0,120
1,69,0,0
1,72,65,0
1,76,65,0
1,84,83,0
1,59,51,240
1,54,40,0
1,54,0,120
1,59,0,0
1,55,42,0
1,60,52,0
1,60,0,120
1,55,0,0
1,63,55,0
1,59,43,0
1,59,0,120
1,63,0,0
1,64,57,0
1,60,44,0
1,60,0,120
1,72,0,0
1,84,0,0
1,76,0,0
1,64,0,0
1,66,46,0
1,71,58,0
1,71,0,120
1,66,0,0
1,67,47,0
1,72,59,0
1,72,0,120
1,67,0,0
1,79,58,0
1,72,58,0
1,84,73,0
1,54,40,240
1,59,51,0
1,59,0,120
1,54,0,0
1,60,52,0
1,55,42,0
1,55,0,120
1,79,0,0
1,84,0,0
1,72,0,0
1,60,0,0
1,59,43,0
1,63,55,0
1,63,0,120
1,59,0,0
1,60,44,0
1,64,57,0
1,64,0,120
1,60,0,0
1,66,58,0
1,63,58,0
1,63,0,120
1,66,0,0
1,64,47,0
1,67,59,0
1,70,54,60
1,82,69,0
1,82,0,60
1,64,0,0
1,67,0,0
1,70,0,0
1,77,58,0
1,81,73,0
1,69,58,0
1,56,40,240
1,59,51,0
1,59,0,120
1,56,0,0
1,60,52,0
1,57,42,0
1,57,0,120
1,77,0,0
1,69,0,0
1,81,0,0
1,60,0,0
1,59,43,0
1,64,55,0
1,64,0,120
1,59,0,0
1,60,44,0
1,65,57,0
1,65,0,120
1,60,0,0
1,71,58,0
1,68,58,0
1,68,0,120
1,71,0,0
1,69,47,0
1,72,59,0
1,72,54,60
1,84,69,0
1,84,0,60
1,69,0,0
1,72,0,0
1,72,0,0
1,77,73,0
1,69,58,0
1,65,58,0
1,59,51,240
1,56,40,0
1,56,0,120
1,59,0,0
1,60,52,0
1,57,42,0
1,57,0,120
1,77,0,0
1,65,0,0
1,69,0,0
1,60,0,0
1,64,55,0
1,59,43,0
1,59,0,120
1,64,0,0
1,60,44,0
1,65,57,0
1,65,0,120
1,60,0,0
1,68,58,0
1,64,58,0
1,64,0,120
1,68,0,0
1,69,59,0
1,65,47,0
1,65,0,120
1,69,0,0
1,76,65,0
1,88,90,0
1,80,69,0
1,58,48,240
1,55,37,0
1,55,0,120
1,58,0,0
1,59,50,0
1,56,40,0
1,56,0,120
1,59,0,0
1,63,41,0
1,67,52,0
1,67,0,120
1,63,0,0
1,68,55,0
1,64,43,0
1,64,0,120
1,68,0,0
1,67,43,0
1,70,56,0
1,70,0,120
1,67,0,0
1,71,58,0
1,68,46,0
1,68,0,120
1,76,0,0
1,80,0,0
1,88,0,0
1,71,0,0
1,83,65,0
1,76,65,0
1,88,82,0
1,55,40,240
1,58,50,0
1,58,0,120
1,55,0,0
1,59,52,0
1,56,42,0
1,56,0,120
1,83,0,0
1,88,0,0
1,76,0,0
1,59,0,0
1,67,55,0
1,63,43,0
1,63,0,120
1,67,0,0
1,68,57,0
1,64,44,0
1,64,0,120
1,68,0,0
1,67,58,0
1,70,58,0
1,70,0,120
1,67,0,0
1,68,51,0
1,71,65,0
1,86,74,60
1,74,58,0
1,74,0,60
1,68,0,0
1,71,0,0
1,86,0,0
1,73,63,0
1,81,63,0
1,85,79,0
1,60,42,240
1,63,52,0
1,63,0,120
1,60,0,0
1,64,55,0
1,61,43,0
1,61,0,120
1,73,0,0
1,85,0,0
1,81,0,0
1,64,0,0
1,68,44,0
1,72,57,0
1,72,0,120
1,68,0,0
1,69,47,0
1,73,59,0
1,73,0,120
1,69,0,0
1,72,62,0
1,75,62,0
1,75,0,120
1,72,0,0
1,73,52,0
1,76,66,0
1,76,0,60
1,73,0,0
1,88,78,0
1,76,60,0
1,76,0,60
1,88,0,0
1,73,65,0
1,69,65,0
1,81,82,0
1,60,46,240
1,63,58,0
1,63,0,120
1,60,0,0
1,61,48,0
1,64,60,0
1,64,0,120
1,73,0,0
1,81,0,0
1,69,0,0
1,61,0,0
1,68,50,0
1,72,63,0
1,72,0,120
1,68,0,0
1,69,52,0
1,73,65,0
1,73,0,120
1,69,0,0
1,72,67,0
1,75,67,0
1,75,0,120
1,72,0,0
1,76,70,0
1,73,55,0
1,69,63,60
1,81,80,0
1,81,0,60
1,76,0,0
1,73,0,0
1,69,0,0
1,85,78,0
1,79,78,0
1,91,98,0
1,63,48,240
1,66,60,0
1,66,0,120
1,63,0,0
1,67,63,0
1,64,50,0
1,64,0,120
1,67,0,0
1,72,51,0
1,75,65,0
1,75,0,120
1,72,0,0
1,73,54,0
1,76,67,0
1,76,0,120
1,85,0,0
1,91,0,0
1,79,0,0
1,73,0,0
1,78,69,0
1,75,55,0
1,75,0,120
1,78,0,0
1,76,56,0
1,79,71,0
1,79,0,120
1,76,0,0
1,69,69,0
1,81,87,0
1,63,48,240
1,66,60,0
1,66,0,120
1,63,0,0
1,64,50,0
1,67,63,0
1,67,0,120
1,69,0,0
1,81,0,0
1,64,0,0
1,75,65,0
1,72,51,0
1,72,0,120
1,75,0,0
1,73,54,0
1,76,67,0
1,76,0,120
1,73,0,0
1,78,69,0
1,75,69,0
1,75,0,120
1,78,0,0
1,76,56,0
1,79,71,0
1,81,81,60
1,69,64,0
1,69,0,60
1,76,0,0
1,79,0,0
1,81,0,0
1,78,78,0
1,84,78,0
1,90,98,0
1,62,48,240
1,65,60,0
1,65,0,120
1,62,0,0
1,63,50,0
1,66,63,0
1,66,0,120
1,63,0,0
1,71,51,0
1,74,65,0
1,74,0,120
1,71,0,0
1,72,54,0
1,75,67,0
1,75,0,120
1,78,0,0
1,90,0,0
1,84,0,0
1,72,0,0
1,77,69,0
1,74,55,0
1,74,0,120
1,77,0,0
1,78,71,0
1,75,56,0
1,75,0,120
1,78,0,0
1,69,69,0
1,81,87,0
1,62,48,240
1,65,60,0
1,65,0,120
1,62,0,0
1,63,50,0
1,66,63,0
1,66,0,120
1,69,0,0
1,81,0,0
1,63,0,0
1,74,65,0
1,71,51,0
1,71,0,120
1,74,0,0
1,72,54,0
1,75,67,0
1,75,0,120
1,72,0,0
1,77,69,0
1,74,69,0
1,74,0,120
1,77,0,0
1,75,56,0
1,78,71,0
1,69,64,60
1,81,81,0
1,81,0,60
1,75,0,0
1,78,0,0
1,69,0,0
1,80,69,0
1,77,69,0
