track,note,velocity,time
1,62,100,17280
1,61,100,5
1,59,100,5
1,57,100,5
1,59,100,5
1,61,100,5
1,59,100,245
1,61,100,5
1,57,100,90
1,57,100,5
1,59,100,5
1,59,100,5
1,61,100,15
1,62,100,1010
1,61,100,5
1,59,100,5
1,57,100,5
1,59,100,5
1,61,100,5
1,61,100,10
1,56,100,75
1,57,100,5
1,57,100,5
1,59,100,5
1,59,100,5
1,61,100,55
1,57,100,520
1,61,100,5
1,64,100,5
1,64,100,20
1,64,100,10
1,64,100,5
1,61,100,5
1,57,100,485
1,61,100,5
1,64,100,5
1,64,100,20
1,64,100,10
1,64,100,5
1,61,100,5
1,54,100,490
1,57,100,5
1,59,100,5
1,61,100,5
1,54,100,5
1,57,100,5
1,59,100,5
1,61,100,5
1,54,100,5
1,57,100,10
1,69,85,85
1,66,85,0
1,62,85,0
1,68,85,5
1,64,85,0
1,62,85,0
1,57,100,1685
1,59,100,5
1,52,100,5
1,57,100,965
1,59,100,5
1,52,100,5
1,57,100,5
1,59,100,5
1,52,100,5
1,57,100,965
1,59,100,5
1,52,100,5
1,55,100,5
1,55,100,485
1,52,100,5
1,62,100,1925
1,61,100,20
1,59,100,65
1,57,100,5
1,59,100,5
1,61,100,5
1,59,100,245
1,61,100,5
1,57,100,90
1,57,100,5
1,59,100,5
1,59,100,5
1,61,100,15
1,61,100,1500
1,62,100,15
1,61,100,20
1,59,100,5
1,57,100,5
1,59,100,5
1,61,100,5
1,59,100,245
1,61,100,5
1,57,100,245
1,57,100,45
1,59,100,50
1,59,100,15
1,61,100,160
1,64,100,965
1,64,100,30
1,64,100,80
1,61,100,55
1,64,100,50
1,64,100,115
1,61,100,5
1,57,100,485
1,61,100,5
1,64,100,5
1,64,100,70
1,64,100,55
1,64,100,10
1,61,100,10
1,54,100,490
1,57,100,5
1,59,100,5
1,61,100,5
1,54,100,5
1,57,100,5
1,59,100,5
1,61,100,5
1,54,100,5
1,57,100,10
1,59,85,85
1,69,85,0
1,66,85,0
1,68,85,5
1,64,85,0
1,62,85,0
1,57,100,1685
1,59,100,5
1,52,100,5
1,57,100,965
1,59,100,5
1,52,100,5
1,57,100,5
1,59,100,5
1,52,100,5
1,57,100,965
1,59,100,5
1,52,100,5
1,55,100,5
1,55,100,485
1,52,100,5
1,64,100,17285
1,64,100,10
1,64,100,50
1,64,100,10
1,64,100,50
1,64,100,5
1,61,100,5
1,57,100,485
1,61,100,5
1,64,100,5
1,64,100,10
1,64,100,10
1,64,100,10
1,61,100,10
1,54,100,490
1,57,100,5
1,59,100,5
1,61,100,5
1,54,100,5
1,57,100,5
1,59,100,5
1,61,100,5
1,54,100,5
1,57,100,10
1,59,85,85
1,69,85,0
1,66,85,0
1,68,85,5
1,64,85,0
1,62,85,0
1,57,100,1685
1,59,100,5
1,52,100,5
1,57,100,965
1,59,100,5
1,52,100,5
1,57,100,5
1,59,100,5
1,52,100,5
1,57,100,965
1,59,100,5
1,52,100,5
1,55,100,5
1,55,100,485
1,52,100,5
1,57,100,1925
1,59,100,5
1,52,100,5
1,57,100,965
1,59,92,5
1,52,84,5
1,57,67,5
1,59,59,5
1,52,50,5
1,57,34,965
1,59,25,5
1,52,17,5
2,62,100,15339
2,61,100,5
2,59,100,5
2,57,100,5
2,59,100,5
2,61,100,5
2,59,100,245
2,61,100,5
2,57,100,90
2,57,100,5
2,59,100,5
2,59,100,5
2,61,100,15
2,62,100,1010
2,61,100,5
2,59,100,5
2,57,100,5
2,59,100,5
2,61,100,5
2,61,100,10
2,56,100,75
2,57,100,5
2,57,100,5
2,59,100,5
2,59,100,5
2,61,100,55
2,57,100,520
2,61,100,5
2,64,100,5
2,64,100,20
2,64,100,10
2,64,100,5
2,61,100,5
2,57,100,485
2,61,100,5
2,64,100,5
2,64,100,20
2,64,100,10
2,64,100,5
2,61,100,5
2,54,100,490
2,57,100,5
2,59,100,5
2,61,100,5
2,54,100,5
2,57,100,5
2,59,100,5
2,61,100,5
2,54,100,5
2,57,100,10
2,59,85,85
2,69,85,0
2,66,85,0
2,68,85,5
2,64,85,0
2,57,100,1685
2,59,100,5
2,52,100,5
2,57,100,965
2,59,100,5
2,52,100,5
2,57,100,5
2,59,100,5
2,52,100,5
2,57,100,965
2,59,100,5
2,52,100,5
2,55,100,5
2,55,100,485
2,52,100,5
2,62,100,1925
2,61,100,20
2,59,100,65
2,57,100,5
2,59,100,5
2,61,100,5
2,59,100,245
2,61,100,5
2,57,100,90
2,57,100,5
2,59,100,5
2,59,100,5
2,61,100,15
2,61,100,1500
2,62,100,15
2,61,100,20
2,59,100,5
2,57,100,5
2,59,100,5
2,61,100,5
2,59,100,245
2,61,100,5
2,57,100,245
2,57,100,45
2,59,100,50
2,59,100,15
2,61,100,160
2,64,100,965
2,64,100,30
2,64,100,80
2,61,100,55
2,64,100,50
2,64,100,115
2,61,100,5
2,57,100,485
2,61,100,5
2,64,100,5
2,64,100,70
2,64,100,55
2,64,100,10
2,61,100,10
2,54,100,490
2,57,100,5
2,59,100,5
2,61,100,5
2,54,100,5
2,57,100,5
2,59,100,5
2,61,100,5
2,54,100,5
2,57,100,10
2,59,85,85
2,69,85,0
2,66,85,0
2,68,85,5
2,62,85,0
2,57,100,1685
2,59,100,5
2,52,100,5
2,57,100,965
2,59,100,5
2,52,100,5
2,57,100,5
2,59,100,5
2,52,100,5
2,57,100,965
2,59,100,5
2,52,100,5
2,55,100,5
2,55,100,485
2,52,100,5
2,64,100,17285
2,64,100,10
2,64,100,50
2,64,100,10
2,64,100,50
2,64,100,5
2,61,100,5
2,57,100,485
2,61,100,5
2,64,100,5
2,64,100,10
2,64,100,10
2,64,100,10
2,61,100,10
2,54,100,490
2,57,100,5
2,59,100,5
2,61,100,5
2,54,100,5
2,57,100,5
2,59,100,5
2,61,100,5
2,54,100,5
2,57,100,10
2,59,85,85
2,69,85,0
2,66,85,0
2,68,85,5
2,64,85,0
2,57,100,1685
2,59,100,5
2,52,100,5
2,57,100,965
2,59,100,5
2,52,100,5
2,57,100,5
2,59,100,5
2,52,100,5
2,57,100,965
2,59,100,5
2,52,100,5
2,55,100,5
2,55,100,485
2,52,100,5
2,57,100,1925
2,59,100,5
2,52,100,5
2,57,100,965
2,59,92,5
2,52,84,5
2,57,67,5
2,59,59,5
2,52,50,5
2,57,34,965
2,59,25,5
2,52,17,5
3,69,125,38379
3,62,125,0
3,66,125,0
3,69,100,5
3,66,100,0
3,62,100,0
3,68,125,5
3,64,125,0
3,62,125,0
3,52,125,965
3,61,125,0
3,69,100,0
3,62,100,5
3,54,100,0
3,69,100,0
3,52,125,5
3,61,125,0
3,69,100,0
3,69,125,965
3,54,125,0
3,62,125,0
3,69,125,5
3,62,125,0
3,52,100,0
3,69,125,5
3,54,125,0
3,62,125,0
3,69,125,965
3,64,125,0
3,61,125,0
3,69,125,5
3,64,125,0
3,62,100,0
3,69,125,5
3,64,125,0
3,61,125,0
3,69,125,965
3,66,125,0
3,62,125,0
3,69,125,5
3,66,125,0
3,62,125,0
3,69,125,5
3,66,125,0
3,62,125,0
3,59,100,5
3,62,100,0
3,67,100,0
3,59,100,5
3,62,100,0
3,67,100,0
3,59,100,1440
3,62,100,0
3,67,100,0
3,68,100,5
3,64,100,0
3,62,100,0
3,59,100,0
3,62,125,24005
3,66,125,0
3,69,125,0
3,69,125,5
3,66,125,0
3,62,125,0
3,68,125,5
3,64,125,0
3,62,125,0
3,52,125,1600
3,61,125,0
3,69,100,0
3,62,100,5
3,54,100,0
3,69,100,0
3,52,125,5
3,61,125,0
3,69,100,0
3,69,125,965
3,54,125,0
3,62,125,0
3,69,125,5
3,54,125,0
3,62,125,0
3,69,125,5
3,54,125,0
3,62,125,0
3,52,125,5
3,61,125,0
3,69,100,0
3,62,100,5
3,54,100,0
3,69,100,0
3,52,125,5
3,61,125,0
3,69,100,0
3,69,125,965
3,66,125,0
3,62,125,0
3,69,125,5
3,66,125,0
3,62,125,0
3,69,125,5
3,66,125,0
3,62,125,0
3,59,100,5
3,62,100,0
3,67,100,0
3,59,100,5
3,62,100,0
3,67,100,0
3,59,100,1440
3,62,100,0
3,67,100,0
3,68,100,5
3,64,100,0
3,62,100,0
3,59,100,0
3,62,125,24005
3,66,125,0
3,69,125,0
3,69,125,5
3,66,125,0
3,62,125,0
3,68,125,5
3,64,125,0
3,62,125,0
3,69,125,1600
3,52,125,0
3,61,125,0
3,69,125,5
3,54,125,0
3,62,125,0
3,69,125,5
3,52,125,0
3,61,125,0
3,69,125,965
3,54,125,0
3,61,125,0
3,69,125,5
3,54,125,0
3,62,125,0
3,69,125,5
3,54,125,0
3,64,125,0
3,69,125,5
3,64,125,0
3,61,125,0
3,69,125,5
3,64,125,0
3,61,125,0
3,69,125,5
3,64,125,0
3,61,125,0
3,69,125,965
3,66,125,0
3,62,125,0
3,69,125,5
3,66,125,0
3,62,125,0
3,69,125,5
3,66,125,0
3,62,125,0
3,59,100,5
3,62,100,0
3,67,100,0
3,59,100,5
3,62,100,0
3,67,100,0
3,59,100,1680
3,62,100,0
3,67,100,0
3,59,100,5
3,62,100,0
3,64,100,0
3,68,100,0
3,69,125,1925
3,64,125,0
3,61,125,0
3,69,125,5
3,64,125,0
3,61,125,0
3,69,125,5
3,64,125,0
3,61,125,0
3,69,100,965
3,66,100,0
3,62,100,0
3,69,92,5
3,66,92,0
3,62,92,0
3,69,84,5
3,66,84,0
3,62,84,0
3,69,67,5
3,64,67,0
3,61,67,0
3,69,59,5
3,64,59,0
3,61,59,0
3,69,50,5
3,64,50,0
3,61,50,0
3,69,34,965
3,66,34,0
3,62,34,0
3,69,25,5
3,66,25,0
3,62,25,0
3,69,17,5
3,66,17,0
3,62,17,0
3,52,17,0
4,49,125,44499
4,47,125,5
4,44,125,120
4,40,125,5
4,42,125,5
4,40,125,5
4,45,125,5
4,45,125,5
4,49,125,365
4,47,125,5
4,45,125,120
4,40,125,5
4,42,125,5
4,40,125,5
4,45,125,5
4,45,125,5
4,49,125,365
4,47,125,5
4,45,125,120
4,40,125,5
4,42,125,5
4,40,125,5
4,45,125,5
4,45,125,5
4,49,90,365
4,47,90,5
4,45,90,120
4,40,90,5
4,42,90,5
4,40,90,5
4,49,90,2285
4,47,90,5
4,45,90,120
4,40,90,5
4,42,90,5
4,40,90,5
4,49,125,36845
4,47,125,5
4,44,125,120
4,40,125,5
4,42,125,5
4,40,125,5
4,49,125,2285
4,47,125,5
4,45,125,120
4,40,125,5
4,42,125,5
4,40,125,5
4,49,125,2285
4,47,125,5
4,45,125,120
4,40,125,5
4,42,125,5
4,40,125,5
4,49,125,2285
4,47,125,5
4,45,125,120
4,40,125,5
4,42,125,5
4,40,125,5
4,49,125,2285
4,47,125,5
4,45,125,120
4,40,125,5
4,42,125,5
4,40,125,5
4,49,125,36845
4,47,125,5
4,44,125,120
4,40,125,5
4,42,125,5
4,40,125,5
4,45,125,5
4,45,125,840
5,49,125,44499
5,47,125,5
5,44,125,120
5,40,125,5
5,42,125,5
5,40,125,5
5,45,125,5
5,45,125,840
5,49,125,485
5,47,125,5
5,45,125,120
5,40,125,5
5,42,125,5
5,40,125,5
5,45,125,5
5,45,125,5
5,49,125,365
5,47,125,5
5,45,125,120
5,40,125,5
5,42,125,5
5,40,125,5
5,45,125,5
5,45,125,5
5,49,125,365
5,47,125,5
5,45,125,120
5,40,125,5
5,42,125,5
5,40,125,5
5,45,125,5
5,45,125,5
5,49,125,365
5,47,125,5
5,45,125,120
5,40,125,5
5,42,125,5
5,40,125,5
5,43,125,5
5,43,125,485
5,40,125,5
5,49,125,30605
5,47,125,5
5,44,125,120
5,40,125,5
5,42,125,5
5,40,125,5
5,45,125,5
5,45,125,840
5,49,125,485
5,47,125,5
5,45,125,120
5,40,125,5
5,42,125,5
5,40,125,5
5,45,125,5
5,45,125,5
5,49,125,365
5,47,125,5
5,45,125,120
5,40,125,5
5,42,125,5
5,40,125,5
5,45,125,5
5,45,125,5
5,49,125,365
5,47,125,5
5,45,125,120
5,40,125,5
5,42,125,5
5,40,125,5
5,45,125,5
5,45,125,5
5,49,125,365
5,47,125,5
5,45,125,120
5,40,125,5
5,42,125,5
5,40,125,5
5,49,125,36845
5,47,125,5
5,44,125,120
5,40,125,5
5,42,125,5
5,40,125,5
5,45,125,5
5,45,125,840
5,49,125,485
5,47,125,5
5,45,125,120
5,40,125,5
5,42,125,5
5,40,125,5
5,45,125,5
5,45,125,5
5,49,125,365
5,47,125,5
5,45,125,120
5,40,125,5
5,42,125,5
5,40,125,5
5,45,125,5
5,45,125,5
5,49,125,365
5,47,125,5
5,45,125,120
5,40,125,5
5,42,125,5
5,40,125,5
5,45,125,5
5,45,125,5
5,49,125,365
5,47,125,5
5,45,125,120
5,40,125,5
5,42,125,5
5,40,125,5
5,43,125,5
5,43,125,485
5,40,125,5
5,49,125,2280
5,47,125,5
5,45,125,120
5,40,125,5
5,42,125,5
5,40,125,5
5,45,125,5
5,45,125,840
5,49,125,485
5,47,125,5
5,45,125,120
5,40,125,5
5,42,125,5
5,40,125,5
5,45,100,5
5,45,92,5
5,49,81,365
5,47,77,5
5,45,75,120
5,40,72,5
5,42,71,5
5,40,68,5
5,45,67,5
5,45,59,5
5,49,47,365
5,47,43,5
5,45,42,120
5,40,39,5
5,42,38,5
5,40,35,5
5,45,34,5
5,45,25,5
5,49,14,365
5,47,10,5
5,45,9,120
5,40,6,5
5,42,5,5
5,40,1,5
6,83,85,5
6,74,85,40
6,79,85,5
6,86,85,5
6,83,85,5
6,74,85,40
6,79,85,5
6,84,85,5
6,74,85,45
6,79,85,5
6,84,85,5
6,74,85,45
6,79,85,5
6,83,85,5
6,74,85,45
6,79,85,5
6,83,85,5
6,86,85,0
6,74,85,45
6,79,85,5
6,84,85,5
6,74,85,45
6,79,85,5
6,84,85,5
6,74,85,45
6,79,85,5
6,80,85,5
6,71,85,45
6,76,85,5
6,80,85,5
6,71,85,45
6,76,85,5
6,81,85,5
6,71,85,45
6,76,85,5
6,81,85,5
6,71,85,45
6,76,85,5
6,80,85,5
6,71,85,40
6,76,85,5
6,80,85,5
6,71,85,45
6,76,85,5
6,81,85,5
6,71,85,45
6,76,85,5
6,81,85,5
6,71,85,45
6,76,85,5
6,83,85,5
6,74,85,45
6,79,85,5
6,83,85,5
6,86,85,0
6,74,85,45
6,79,85,5
6,84,85,5
6,74,85,45
6,79,85,5
6,84,85,5
6,74,85,45
6,79,85,5
6,83,85,5
6,74,85,40
6,79,85,5
6,83,85,5
6,86,85,0
6,74,85,45
6,79,85,5
6,84,85,5
6,74,85,45
6,79,85,5
6,84,85,5
6,74,85,45
6,79,85,5
6,80,85,5
6,71,85,45
6,76,85,5
6,80,85,5
6,83,85,0
6,71,85,45
6,76,85,5
6,81,85,5
6,71,85,45
6,76,85,5
6,81,85,5
6,71,85,45
6,76,85,5
6,80,85,5
6,71,85,40
6,76,85,5
6,80,85,5
6,83,85,0
6,71,85,45
6,76,85,5
6,81,85,5
6,71,85,45
6,76,85,5
6,81,85,5
6,71,85,45
6,76,85,5
6,71,127,5
6,76,127,0
6,71,127,5
6,76,127,10
6,71,127,20
6,76,127,5
6,71,127,5
6,76,127,0
6,71,127,120
6,69,127,5
6,74,127,10
6,74,127,0
6,74,127,0
6,74,127,0
6,74,127,5
6,74,127,45
6,71,127,1205
6,76,127,0
6,71,127,5
6,76,127,10
6,71,127,20
6,76,127,5
6,71,127,5
6,76,127,0
6,71,127,120
6,69,127,5
6,74,127,5
6,74,127,5
6,74,127,5
6,69,127,75
6,69,127,160
6,71,127,60
6,76,127,5
6,71,127,5
6,69,127,65
6,69,127,10
6,83,85,5
6,74,85,45
6,79,85,5
6,83,85,5
6,86,85,0
6,74,85,45
6,79,85,5
6,84,85,5
6,74,85,45
6,79,85,5
6,84,85,5
6,74,85,45
6,79,85,5
6,83,85,5
6,74,85,40
6,79,85,5
6,83,85,5
6,86,85,0
6,74,85,45
6,79,85,5
6,84,85,5
6,74,85,45
