track,note,velocity,time
1,64,127,1536
1,57,127,0
1,60,127,0
1,57,127,184
1,60,127,0
1,64,127,0
1,57,127,176
1,64,127,0
1,60,127,0
1,57,127,100
1,64,127,0
1,60,127,0
1,57,127,176
1,65,127,0
1,60,127,0
1,57,127,156
1,60,127,0
1,65,127,0
1,57,127,192
1,65,127,0
1,60,127,0
1,60,127,152
1,64,127,0
1,57,127,0
1,57,127,68
1,60,127,0
1,65,127,0
1,64,127,88
1,57,127,0
1,60,127,0
1,59,127,108
1,62,127,0
1,55,127,0
1,62,127,156
1,59,127,0
1,55,127,0
1,59,127,140
1,62,127,0
1,55,127,0
1,55,127,120
1,62,127,0
1,59,127,0
1,64,127,132
1,55,127,0
1,59,127,0
1,59,127,120
1,64,127,0
1,55,127,0
1,64,127,152
1,55,127,0
1,59,127,0
1,59,127,124
1,62,127,0
1,55,127,0
1,64,127,76
1,55,127,0
1,59,127,0
1,59,127,76
1,62,127,0
1,55,127,0
1,64,127,80
1,57,127,0
1,60,127,0
1,57,127,184
1,60,127,0
1,64,127,0
1,57,127,176
1,64,127,0
1,60,127,0
1,57,127,100
1,64,127,0
1,60,127,0
1,57,127,176
1,65,127,0
1,60,127,0
1,57,127,156
1,60,127,0
1,65,127,0
1,57,127,192
1,65,127,0
1,60,127,0
1,60,127,152
1,64,127,0
1,57,127,0
1,57,127,68
1,60,127,0
1,65,127,0
1,64,127,88
1,57,127,0
1,60,127,0
1,59,127,108
1,62,127,0
1,55,127,0
1,62,127,156
1,59,127,0
1,55,127,0
1,59,127,140
1,62,127,0
1,55,127,0
1,55,127,120
1,62,127,0
1,59,127,0
1,64,127,132
1,55,127,0
1,59,127,0
1,59,127,120
1,64,127,0
1,55,127,0
1,64,127,152
1,55,127,0
1,59,127,0
1,59,127,124
1,62,127,0
1,55,127,0
1,64,127,76
1,55,127,0
1,59,127,0
1,59,127,76
1,62,127,0
1,55,127,0
1,64,127,80
1,57,127,0
1,60,127,0
1,57,127,184
1,60,127,0
1,64,127,0
1,57,127,176
1,64,127,0
1,60,127,0
1,57,127,100
1,64,127,0
1,60,127,0
1,57,127,176
1,65,127,0
1,60,127,0
1,57,127,156
1,60,127,0
1,65,127,0
1,57,127,192
1,65,127,0
1,60,127,0
1,60,127,152
1,64,127,0
1,57,127,0
1,57,127,68
1,60,127,0
1,65,127,0
1,64,127,88
1,57,127,0
1,60,127,0
1,59,127,108
1,62,127,0
1,55,127,0
1,62,127,156
1,59,127,0
1,55,127,0
1,59,127,140
1,62,127,0
1,55,127,0
1,55,127,120
1,62,127,0
1,59,127,0
1,64,127,132
1,55,127,0
1,59,127,0
1,59,127,120
1,64,127,0
1,55,127,0
1,64,127,152
1,55,127,0
1,59,127,0
1,59,127,124
1,62,127,0
1,55,127,0
1,64,127,76
1,55,127,0
1,59,127,0
1,59,127,76
1,62,127,0
1,55,127,0
1,64,127,80
1,57,127,0
1,60,127,0
1,57,127,184
1,60,127,0
1,64,127,0
1,57,127,176
1,64,127,0
1,60,127,0
1,57,127,100
1,64,127,0
1,60,127,0
1,57,127,176
1,65,127,0
1,60,127,0
1,57,127,156
1,60,127,0
1,65,127,0
1,57,127,192
1,65,127,0
1,60,127,0
1,60,127,152
1,64,127,0
1,57,127,0
1,57,127,68
1,60,127,0
1,65,127,0
1,64,127,88
1,57,127,0
1,60,127,0
1,59,127,108
1,62,127,0
1,55,127,0
1,62,127,156
1,59,127,0
1,55,127,0
1,59,127,140
1,62,127,0
1,55,127,0
1,55,127,120
1,62,127,0
1,59,127,0
1,64,127,132
1,55,127,0
1,59,127,0
1,59,127,120
1,64,127,0
1,55,127,0
1,64,127,152
1,55,127,0
1,59,127,0
1,59,127,124
1,62,127,0
1,55,127,0
1,64,127,76
1,55,127,0
1,59,127,0
1,59,127,76
1,62,127,0
1,55,127,0
1,64,127,80
1,57,127,0
1,60,127,0
1,57,127,184
1,60,127,0
1,64,127,0
1,57,127,176
1,64,127,0
1,60,127,0
1,57,127,100
1,64,127,0
1,60,127,0
1,57,127,176
1,65,127,0
1,60,127,0
1,57,127,156
1,60,127,0
1,65,127,0
1,57,127,192
1,65,127,0
1,60,127,0
1,60,127,152
1,64,127,0
1,57,127,0
1,57,127,68
1,60,127,0
1,65,127,0
1,64,127,88
1,57,127,0
1,60,127,0
1,59,127,108
1,62,127,0
1,55,127,0
1,62,127,156
1,59,127,0
1,55,127,0
1,59,127,140
1,62,127,0
1,55,127,0
1,55,127,120
1,62,127,0
1,59,127,0
1,64,127,132
1,55,127,0
1,59,127,0
1,59,127,120
1,64,127,0
1,55,127,0
1,64,127,152
1,55,127,0
1,59,127,0
1,59,127,124
1,62,127,0
1,55,127,0
1,64,127,76
1,55,127,0
1,59,127,0
1,59,127,76
1,62,127,0
1,55,127,0
1,64,127,80
1,57,127,0
1,60,127,0
1,57,127,184
1,60,127,0
1,64,127,0
1,57,127,176
1,64,127,0
1,60,127,0
1,57,127,100
1,64,127,0
1,60,127,0
1,57,127,176
1,65,127,0
1,60,127,0
1,57,127,156
1,60,127,0
1,65,127,0
1,57,127,192
1,65,127,0
1,60,127,0
1,60,127,152
1,64,127,0
1,57,127,0
1,57,127,68
1,60,127,0
1,65,127,0
1,64,127,88
1,57,127,0
1,60,127,0
1,59,127,108
1,62,127,0
1,55,127,0
1,62,127,156
1,59,127,0
1,55,127,0
1,59,127,140
1,62,127,0
1,55,127,0
1,55,127,120
1,62,127,0
1,59,127,0
1,64,127,132
1,55,127,0
1,59,127,0
1,59,127,120
1,64,127,0
1,55,127,0
1,64,127,152
1,55,127,0
1,59,127,0
1,59,127,124
1,62,127,0
1,55,127,0
1,64,127,76
1,55,127,0
1,59,127,0
1,59,127,76
1,62,127,0
1,55,127,0
1,64,127,30800
1,57,127,0
1,60,127,0
1,57,127,184
1,60,127,0
1,64,127,0
1,57,127,176
1,64,127,0
1,60,127,0
1,57,127,100
1,64,127,0
1,60,127,0
1,57,127,176
1,65,127,0
1,60,127,0
1,57,127,156
1,60,127,0
1,65,127,0
1,57,127,192
1,65,127,0
1,60,127,0
1,60,127,152
1,64,127,0
1,57,127,0
1,57,127,68
1,60,127,0
1,65,127,0
1,64,127,88
1,57,127,0
1,60,127,0
1,59,127,108
1,62,127,0
1,55,127,0
1,62,127,156
1,59,127,0
1,55,127,0
1,59,127,140
1,62,127,0
1,55,127,0
1,55,127,120
1,62,127,0
1,59,127,0
1,64,127,132
1,55,127,0
1,59,127,0
1,59,127,120
1,64,127,0
1,55,127,0
1,64,127,152
1,55,127,0
1,59,127,0
1,59,127,124
1,62,127,0
1,55,127,0
1,64,127,76
1,55,127,0
1,59,127,0
1,59,127,76
1,62,127,0
1,55,127,0
1,64,127,80
1,57,127,0
1,60,127,0
1,57,127,184
1,60,127,0
1,64,127,0
1,57,127,176
1,64,127,0
1,60,127,0
1,57,127,100
1,64,127,0
1,60,127,0
1,57,127,176
1,65,127,0
1,60,127,0
1,57,127,156
1,60,127,0
1,65,127,0
1,57,127,192
1,65,127,0
1,60,127,0
1,60,127,152
1,64,127,0
1,57,127,0
1,57,127,68
1,60,127,0
1,65,127,0
1,64,127,88
1,57,127,0
1,60,127,0
1,59,127,108
1,62,127,0
1,55,127,0
1,62,127,156
1,59,127,0
1,55,127,0
1,59,127,140
1,62,127,0
1,55,127,0
1,55,127,120
1,62,127,0
1,59,127,0
1,64,127,132
1,55,127,0
1,59,127,0
1,59,127,120
1,64,127,0
1,55,127,0
1,64,127,152
1,55,127,0
1,59,127,0
1,59,127,124
1,62,127,0
1,55,127,0
1,64,127,76
1,55,127,0
1,59,127,0
1,59,127,76
1,62,127,0
1,55,127,0
1,64,127,80
1,57,127,0
1,60,127,0
1,57,127,184
1,60,127,0
1,64,127,0
1,57,127,176
1,64,127,0
1,60,127,0
1,57,127,100
1,64,127,0
1,60,127,0
1,57,127,176
1,65,127,0
1,60,127,0
1,57,127,156
1,60,127,0
1,65,127,0
1,57,127,192
1,65,127,0
1,60,127,0
1,60,127,152
1,64,127,0
1,57,127,0
1,57,127,68
1,60,127,0
1,65,127,0
1,64,127,88
1,57,127,0
1,60,127,0
1,59,127,108
1,62,127,0
1,55,127,0
1,62,127,156
1,59,127,0
1,55,127,0
1,59,127,140
1,62,127,0
1,55,127,0
1,55,127,120
1,62,127,0
1,59,127,0
1,64,127,132
1,55,127,0
1,59,127,0
1,59,127,120
1,64,127,0
1,55,127,0
1,64,127,152
1,55,127,0
1,59,127,0
1,59,127,124
1,62,127,0
1,55,127,0
1,64,127,76
1,55,127,0
1,59,127,0
1,59,127,76
1,62,127,0
1,55,127,0
1,64,127,80
1,57,127,0
1,60,127,0
1,57,127,184
1,60,127,0
1,64,127,0
1,57,127,176
1,64,127,0
1,60,127,0
1,57,127,100
1,64,127,0
1,60,127,0
1,57,127,176
1,65,127,0
1,60,127,0
1,57,127,156
1,60,127,0
1,65,127,0
1,57,127,192
1,65,127,0
1,60,127,0
1,60,127,152
1,64,127,0
1,57,127,0
1,57,127,68
1,60,127,0
1,65,127,0
1,64,127,88
1,57,127,0
1,60,127,0
1,59,127,108
1,62,127,0
1,55,127,0
1,62,127,156
1,59,127,0
1,55,127,0
1,59,127,140
1,62,127,0
1,55,127,0
1,55,127,120
1,62,127,0
1,59,127,0
1,64,127,132
1,55,127,0
1,59,127,0
1,59,127,120
1,64,127,0
1,55,127,0
1,64,127,152
1,55,127,0
1,59,127,0
1,59,127,124
1,62,127,0
1,55,127,0
1,64,127,76
1,55,127,0
1,59,127,0
1,59,127,76
1,62,127,0
1,55,127,0
1,64,127,30800
1,57,127,0
1,60,127,0
1,57,127,184
1,60,127,0
1,64,127,0
1,57,127,176
1,64,127,0
1,60,127,0
1,57,127,100
1,64,127,0
1,60,127,0
1,57,127,176
1,65,127,0
1,60,127,0
1,57,127,156
1,60,127,0
1,65,127,0
1,57,127,192
1,65,127,0
1,60,127,0
1,60,127,152
1,64,127,0
1,57,127,0
1,57,127,68
1,60,127,0
1,65,127,0
1,64,127,88
1,57,127,0
1,60,127,0
1,59,127,108
1,62,127,0
1,55,127,0
1,62,127,156
1,59,127,0
1,55,127,0
1,59,127,140
1,62,127,0
1,55,127,0
1,55,127,120
1,62,127,0
1,59,127,0
1,64,127,132
1,55,127,0
1,59,127,0
1,59,127,120
1,64,127,0
1,55,127,0
1,64,127,152
1,55,127,0
1,59,127,0
1,59,127,124
1,62,127,0
1,55,127,0
1,64,127,76
1,55,127,0
1,59,127,0
1,59,127,76
1,62,127,0
1,55,127,0
1,64,127,80
1,57,127,0
1,60,127,0
1,57,127,184
1,60,127,0
1,64,127,0
1,57,127,176
1,64,127,0
1,60,127,0
1,57,127,100
1,64,127,0
1,60,127,0
1,57,127,176
1,65,127,0
1,60,127,0
1,57,127,156
1,60,127,0
1,65,127,0
1,57,127,192
1,65,127,0
1,60,127,0
1,60,127,152
1,64,127,0
1,57,127,0
1,57,127,68
1,60,127,0
1,65,127,0
1,64,127,88
1,57,127,0
1,60,127,0
1,59,127,108
1,62,127,0
1,55,127,0
1,62,127,156
1,59,127,0
1,55,127,0
1,59,127,140
1,62,127,0
1,55,127,0
1,55,127,120
1,62,127,0
1,59,127,0
1,64,127,132
1,55,127,0
1,59,127,0
1,59,127,120
1,64,127,0
1,55,127,0
1,64,127,152
1,55,127,0
1,59,127,0
1,59,127,124
1,62,127,0
1,55,127,0
1,64,127,76
1,55,127,0
1,59,127,0
1,59,127,76
1,62,127,0
1,55,127,0
1,64,127,80
1,57,127,0
1,60,127,0
1,57,127,184
1,60,127,0
1,64,127,0
1,57,127,176
1,64,127,0
1,60,127,0
1,57,127,100
1,64,127,0
1,60,127,0
1,57,127,176
1,65,127,0
1,60,127,0
1,57,127,156
1,60,127,0
1,65,127,0
1,57,127,192
1,65,127,0
1,60,127,0
1,60,127,152
1,64,127,0
1,57,127,0
1,57,127,68
1,60,127,0
1,65,127,0
1,64,127,88
1,57,127,0
1,60,127,0
1,59,127,108
1,62,127,0
1,55,127,0
1,62,127,156
1,59,127,0
1,55,127,0
1,59,127,140
1,62,127,0
1,55,127,0
1,55,127,120
1,62,127,0
1,59,127,0
1,64,127,132
1,55,127,0
1,59,127,0
1,59,127,120
1,64,127,0
1,55,127,0
1,64,127,152
1,55,127,0
1,59,127,0
1,59,127,124
1,62,127,0
1,55,127,0
1,64,127,76
1,55,127,0
1,59,127,0
1,59,127,76
1,62,127,0
1,55,127,0
1,64,127,80
1,57,127,0
1,60,127,0
1,57,127,184
1,60,127,0
1,64,127,0
1,57,127,176
1,64,127,0
1,60,127,0
1,57,127,100
1,64,127,0
1,60,127,0
1,57,127,176
1,65,127,0
1,60,127,0
1,57,127,156
1,60,127,0
1,65,127,0
1,57,127,192
1,65,127,0
1,60,127,0
1,60,127,152
1,64,127,0
1,57,127,0
1,57,127,68
1,60,127,0
1,65,127,0
1,64,127,88
1,57,127,0
1,60,127,0
1,59,127,108
1,62,127,0
1,55,127,0
1,62,127,156
1,59,127,0
1,55,127,0
1,59,127,140
1,62,127,0
1,55,127,0
1,55,127,120
1,62,127,0
1,59,127,0
1,64,127,132
1,55,127,0
1,59,127,0
1,64,127,50616
1,57,127,0
1,60,127,0
1,57,127,184
1,60,127,0
1,64,127,0
1,57,127,176
1,64,127,0
1,60,127,0
1,57,127,100
1,64,127,0
1,60,127,0
1,57,127,176
1,65,127,0
1,60,127,0
1,57,127,156
1,60,127,0
1,65,127,0
1,57,127,192
1,65,127,0
1,60,127,0
1,60,127,152
1,64,127,0
1,57,127,0
1,57,127,68
1,60,127,0
1,65,127,0
1,64,127,88
1,57,127,0
1,60,127,0
1,59,127,108
1,62,127,0
1,55,127,0
1,62,127,156
1,59,127,0
1,55,127,0
1,59,127,140
1,62,127,0
1,55,127,0
1,55,127,120
1,62,127,0
1,59,127,0
1,64,127,132
1,55,127,0
1,59,127,0
1,59,127,120
1,64,127,0
1,55,127,0
1,64,127,152
1,55,127,0
1,59,127,0
1,59,127,124
1,62,127,0
1,55,127,0
1,64,127,76
1,55,127,0
1,59,127,0
1,59,127,76
1,62,127,0
1,55,127,0
1,64,124,80
1,57,124,0
1,60,124,0
1,57,116,184
1,60,116,0
1,64,116,0
1,57,108,176
1,64,108,0
1,60,108,0
1,57,104,100
1,64,104,0
1,60,104,0
1,57,96,176
1,65,96,0
1,60,96,0
1,57,88,156
1,60,88,0
1,65,88,0
1,57,80,192
1,65,80,0
1,60,80,0
1,60,72,152
1,64,72,0
1,57,72,0
1,57,68,68
1,60,68,0
1,65,68,0
1,64,64,88
1,57,64,0
1,60,64,0
1,59,60,108
1,62,60,0
1,55,60,0
1,62,52,156
1,59,52,0
1,55,52,0
1,59,44,140
1,62,44,0
1,55,44,0
1,55,40,120
1,62,40,0
1,59,40,0
1,64,32,132
1,55,32,0
1,59,32,0
1,59,24,120
1,64,24,0
1,55,24,0
1,64,16,152
1,55,16,0
1,59,16,0
1,59,9,124
1,62,9,0
1,55,9,0
1,64,5,76
1,55,5,0
1,59,5,0
1,59,1,76
1,62,1,0
1,55,1,0
2,76,127,1536
2,72,127,0
2,69,127,0
2,69,127,96
2,72,127,0
2,65,127,0
2,74,127,108
2,67,127,0
2,71,127,0
2,71,127,160
2,64,127,0
2,67,127,0
2,76,127,92
2,72,127,0
2,69,127,0
2,69,127,96
2,72,127,0
2,65,127,0
2,74,127,108
2,67,127,0
2,71,127,0
2,71,127,160
2,64,127,0
2,67,127,0
2,76,127,92
2,72,127,0
2,69,127,0
2,69,127,96
2,72,127,0
2,65,127,0
2,74,127,108
2,67,127,0
2,71,127,0
2,71,127,160
2,64,127,0
2,67,127,0
2,76,127,92
2,72,127,0
2,69,127,0
2,69,127,96
2,72,127,0
2,65,127,0
2,74,127,108
2,67,127,0
2,71,127,0
2,71,127,160
2,64,127,0
2,67,127,0
2,76,127,92
2,72,127,0
2,69,127,0
2,69,127,96
2,72,127,0
2,65,127,0
2,74,127,108
