track,note,velocity,time
1,31,120,0
1,31,0,117
1,36,120,5
1,36,0,91
1,38,120,102
1,40,120,52
1,38,0,3
1,43,120,65
1,40,0,1
1,45,120,47
1,43,0,5
1,45,0,63
1,29,120,58
1,29,0,75
1,31,120,118
1,33,120,47
1,31,0,6
1,33,0,55
1,36,120,7
1,38,120,50
1,36,0,10
1,38,0,73
1,36,120,37
1,36,0,79
1,38,120,107
1,40,120,44
1,38,0,9
1,40,0,66
1,43,120,0
1,45,120,53
1,43,0,5
1,45,0,64
1,36,120,50
1,36,0,69
1,38,120,119
1,40,120,53
1,38,0,6
1,43,120,59
1,40,0,5
1,45,120,48
1,43,0,9
1,45,0,61
1,29,120,55
1,29,0,64
1,31,120,120
1,33,120,52
1,31,0,13
1,33,0,57
1,36,120,0
1,38,120,51
1,36,0,10
1,38,0,62
1,29,120,52
1,29,0,91
1,31,120,93
1,33,120,54
1,31,0,15
1,33,0,50
1,36,120,0
1,38,120,48
1,36,0,13
1,38,0,60
1,36,120,56
1,36,0,95
1,38,120,94
1,40,120,45
1,38,0,10
1,43,120,57
1,40,0,1
1,45,120,51
1,43,0,5
1,45,0,70
1,36,120,45
1,36,0,63
1,38,120,132
1,38,0,46
1,40,120,0
1,40,0,68
1,43,120,3
1,45,120,49
1,43,0,11
1,45,0,56
1,31,120,53
1,31,0,73
1,33,120,126
1,35,120,41
1,33,0,7
1,35,0,53
1,38,120,9
1,38,0,48
1,40,120,3
1,40,0,67
1,29,120,55
1,29,0,88
1,31,120,104
1,33,120,38
1,31,0,6
1,33,0,68
1,36,120,9
1,36,0,44
1,38,120,3
1,38,0,75
1,36,120,45
1,36,0,77
1,38,120,113
1,40,120,43
1,38,0,4
1,40,0,66
1,43,120,0
1,43,0,49
1,45,120,0
1,45,0,68
1,36,120,532
1,36,0,40
1,36,118,40
1,36,0,21
1,40,120,17
1,40,0,54
1,36,114,33
1,36,0,19
1,43,120,24
1,43,0,47
1,43,120,28
1,43,0,30
1,40,120,13
1,40,0,72
1,43,120,3
1,43,0,27
1,41,120,20
1,41,0,24
1,41,120,48
1,41,0,26
1,45,120,20
1,45,0,68
1,41,114,3
1,41,0,18
1,48,120,35
1,48,0,49
1,50,120,68
1,50,0,64
1,48,120,7
1,48,0,24
1,36,120,24
1,36,0,38
1,36,120,41
1,36,0,23
1,40,120,17
1,40,0,59
1,36,114,14
1,36,0,25
1,43,120,27
1,43,0,50
1,45,120,63
1,45,0,60
1,43,120,15
1,43,0,27
1,36,120,20
1,36,0,36
1,36,120,42
1,36,0,24
1,38,120,16
1,38,0,49
1,38,114,23
1,38,0,31
1,39,120,19
1,39,0,46
1,39,120,30
1,39,0,35
1,40,120,7
1,40,0,57
1,40,116,23
1,40,0,28
1,41,120,15
1,41,0,50
1,41,114,29
1,41,0,26
1,45,120,21
1,45,0,55
1,41,114,13
1,41,0,29
1,48,120,21
1,48,0,38
1,48,120,37
1,48,0,23
1,45,120,15
1,46,120,45
1,45,0,8
1,48,120,30
1,46,0,4
1,48,0,30
1,41,120,10
1,41,0,44
1,41,120,34
1,41,0,27
1,45,120,21
1,45,0,57
1,48,120,58
1,48,0,57
1,46,120,59
1,46,0,65
1,48,120,9
1,48,0,34
1,36,120,83
1,36,0,24
1,40,120,23
1,40,0,71
1,43,120,54
1,43,0,83
1,45,120,34
1,45,0,49
1,43,120,19
1,43,0,35
1,36,120,15
1,36,0,39
1,36,117,37
1,36,0,27
1,40,120,19
1,40,0,49
1,36,114,24
1,36,0,19
1,41,120,24
1,41,0,53
1,41,120,34
1,41,0,30
1,42,120,5
1,42,0,49
1,42,115,18
1,42,0,34
1,43,120,16
1,43,0,35
1,43,120,44
1,43,0,20
1,47,120,20
1,47,0,72
1,50,120,52
1,50,0,53
1,43,114,30
1,43,0,20
1,52,120,19
1,52,0,60
1,50,120,16
1,50,0,30
1,41,120,13
1,41,0,19
1,41,120,61
1,41,0,15
1,45,120,27
1,45,0,57
1,41,114,20
1,41,0,21
1,46,120,24
1,46,0,60
1,47,120,57
1,47,0,64
1,48,120,5
1,48,0,30
1,36,120,24
1,36,0,54
1,36,120,22
1,36,0,19
1,40,120,20
1,40,0,63
1,36,114,15
1,36,0,25
1,43,120,20
1,43,0,53
1,45,120,69
1,45,0,56
1,43,120,9
1,43,0,30
1,36,120,11
1,36,0,53
1,36,120,31
1,36,0,29
1,40,120,16
1,40,0,53
1,36,120,18
1,36,0,20
1,43,120,31
1,43,0,45
1,36,120,19
1,36,0,23
1,45,120,31
1,45,0,53
1,43,120,19
1,43,0,34
1,36,120,14
1,36,0,53
1,36,120,25
1,36,0,37
1,40,120,11
1,40,0,47
1,40,120,19
1,40,0,41
1,43,120,10
1,43,0,35
1,43,120,32
1,43,0,41
1,40,120,11
1,40,0,55
1,43,120,15
1,43,0,36
1,41,120,12
1,41,0,43
1,41,120,32
1,41,0,30
1,45,120,13
1,45,0,43
1,45,120,39
1,45,0,30
1,48,120,10
1,48,0,43
1,48,120,30
1,48,0,34
1,45,120,15
1,45,0,45
1,46,120,25
1,46,0,33
1,48,120,12
1,48,0,39
1,48,120,31
1,48,0,39
1,45,120,10
1,45,0,42
1,45,120,32
1,45,0,43
1,43,120,8
1,43,0,38
1,43,120,33
1,43,0,34
1,40,120,14
1,40,0,46
1,40,120,24
1,40,0,43
1,36,120,7
1,36,0,44
1,36,120,26
1,36,0,39
1,38,120,14
1,38,0,53
1,38,120,20
1,38,0,35
1,39,120,15
1,39,0,48
1,39,120,22
1,39,0,37
1,40,120,13
1,40,0,49
1,40,120,21
1,40,0,38
1,41,120,4
1,41,0,54
1,41,120,21
1,41,0,49
1,45,120,1
1,45,0,44
1,45,120,25
1,45,0,34
1,48,120,16
1,48,0,35
1,48,120,31
1,48,0,43
1,45,120,5
1,45,0,63
1,48,120,12
1,48,0,35
1,41,120,9
1,41,0,48
1,41,120,29
1,41,0,30
1,45,120,18
1,45,0,53
1,41,120,20
1,41,0,32
1,48,120,17
1,48,0,45
1,48,120,24
1,48,0,40
1,45,120,10
1,45,0,45
1,46,120,25
1,46,0,32
1,48,120,12
1,48,0,41
1,48,120,35
1,48,0,38
1,45,120,9
1,45,0,48
1,45,120,30
1,43,120,42
1,45,0,1
1,43,0,43
1,43,120,38
1,43,0,41
1,40,120,0
1,40,0,38
1,40,120,32
1,40,0,35
1,36,120,15
1,36,0,48
1,36,120,23
1,36,0,35
1,40,120,14
1,40,0,60
1,36,120,16
1,36,0,24
1,43,120,20
1,43,0,52
1,43,120,24
1,43,0,43
1,45,120,6
1,45,0,54
1,40,120,20
1,40,0,29
1,43,120,16
1,43,0,43
1,43,120,25
1,43,0,25
1,47,120,23
1,47,0,44
1,47,120,22
1,47,0,41
1,50,120,9
1,50,0,39
1,50,120,31
1,50,0,30
1,43,120,19
1,43,0,50
1,42,120,24
1,42,0,45
1,41,120,2
1,41,0,49
1,41,120,32
1,41,0,32
1,45,120,10
1,45,0,61
1,41,120,14
1,41,0,21
1,48,120,24
1,48,0,44
1,48,120,23
1,48,0,40
1,45,120,13
1,45,0,51
1,46,120,25
1,46,0,29
1,48,120,13
1,48,0,42
1,48,120,36
1,48,0,42
1,45,120,4
1,45,0,50
1,45,120,25
1,45,0,36
1,43,120,9
1,43,0,50
1,43,120,29
1,43,0,35
1,40,120,5
1,40,0,63
1,40,120,16
1,40,0,35
1,36,120,7
1,36,0,66
1,34,120,10
1,34,0,395
1,36,120,3
1,36,0,47
1,36,114,28
1,36,0,33
1,40,116,14
1,40,0,72
1,36,114,3
1,36,0,22
1,43,120,22
1,43,0,35
1,43,120,40
1,43,0,21
1,45,120,24
1,45,0,70
1,43,114,6
1,43,0,27
1,41,120,22
1,41,0,41
1,41,118,30
1,41,0,32
1,45,120,20
1,45,0,60
1,41,114,10
1,41,0,23
1,48,120,22
1,48,0,38
1,48,120,35
1,48,0,40
1,45,120,5
1,45,0,77
1,48,120,5
1,48,0,103
1,48,120,17
1,48,0,33
1,45,120,12
1,45,0,45
1,45,115,25
1,45,0,40
1,43,120,3
1,43,0,43
1,43,114,32
1,43,0,32
1,40,116,16
1,40,0,64
1,43,119,10
1,43,0,33
1,36,114,8
1,36,0,55
1,36,114,26
1,36,0,29
1,38,118,17
1,38,0,50
1,38,114,22
1,38,0,38
1,39,117,9
1,39,0,48
1,39,114,23
1,39,0,44
1,40,114,0
1,40,0,64
1,40,114,15
1,40,0,39
1,41,120,8
1,41,0,47
1,41,120,21
1,45,120,50
1,41,0,4
1,45,0,60
1,41,114,7
1,41,0,19
1,48,120,26
1,48,0,35
1,48,120,44
1,48,0,40
1,45,114,0
1,48,120,81
1,45,0,3
1,48,0,30
1,41,120,11
1,41,0,49
1,41,114,22
1,41,0,25
1,45,120,19
1,45,0,70
1,41,114,4
1,41,0,26
1,48,120,25
1,48,0,53
1,45,115,22
1,48,120,6
1,45,0,9
1,48,0,21
1,45,120,4
1,45,0,64
1,48,120,11
1,48,0,107
1,48,120,20
1,48,0,34
1,45,120,14
1,45,0,50
1,45,120,21
1,45,0,33
1,43,120,11
1,43,0,43
1,43,120,28
1,43,0,40
1,40,120,11
1,40,0,60
1,43,120,13
1,43,0,28
1,36,120,11
1,36,0,60
1,36,116,18
1,36,0,33
1,40,120,11
1,40,0,54
1,40,120,21
1,40,0,36
1,43,119,14
1,43,0,40
1,43,120,25
1,43,0,44
1,45,120,10
1,45,0,58
1,43,120,17
1,43,0,23
1,43,120,24
1,43,0,50
1,43,120,22
1,43,0,39
1,47,120,8
1,47,0,66
1,43,114,5
1,43,0,18
1,50,120,30
1,50,0,43
1,50,120,27
1,50,0,40
1,47,120,0
1,47,0,78
1,50,120,3
1,50,0,30
1,41,114,14
1,41,0,52
1,41,114,30
1,41,0,23
1,45,116,21
1,45,0,60
1,41,114,8
1,41,0,21
1,48,120,29
1,48,0,64
1,41,114,7
1,41,0,15
1,45,120,36
1,45,0,58
1,48,120,21
1,48,0,33
1,48,120,11
1,48,0,56
1,48,117,19
1,48,0,33
1,45,120,14
1,45,0,49
1,45,120,26
1,45,0,35
1,43,120,9
1,43,0,49
1,43,114,20
1,43,0,35
1,40,120,7
1,40,0,60
1,43,120,19
1,43,0,29
1,36,120,7
1,36,0,64
1,36,114,15
1,36,0,28
1,38,120,18
1,38,0,50
1,38,117,25
1,38,0,29
1,39,120,19
1,39,0,53
1,39,116,17
1,39,0,36
1,40,116,7
1,40,0,64
1,40,120,15
1,40,0,41
1,29,120,7
1,29,0,386
1,28,120,47
1,29,120,43
1,28,0,14
1,29,0,364
1,28,120,48
1,29,120,44
1,28,0,7
1,29,0,402
1,28,120,33
1,28,0,35
1,29,120,5
1,29,0,403
1,28,120,45
1,29,120,27
1,28,0,11
1,29,0,382
1,28,120,55
1,28,0,44
1,29,120,1
1,29,0,388
1,28,120,51
1,29,120,38
1,28,0,2
1,29,0,377
1,28,120,55
1,29,120,43
1,28,0,5
1,29,0,84
1,43,120,398
1,43,0,41
1,43,120,32
1,43,0,30
1,41,120,23
1,41,0,43
1,41,120,25
1,41,0,39
1,38,120,11
1,38,0,39
1,38,120,30
1,38,0,35
1,43,120,15
1,43,0,39
1,43,120,29
1,43,0,32
1,41,120,18
1,41,0,39
1,41,120,34
1,41,0,30
1,38,120,20
1,38,0,35
1,38,120,32
1,38,0,35
1,36,120,13
1,36,0,34
1,36,120,33
1,36,0,32
1,33,120,18
1,33,0,48
1,34,120,30
1,34,0,34
1,36,120,12
1,36,0,43
1,36,120,30
1,36,0,30
1,40,120,18
1,40,0,47
1,36,120,30
1,36,0,24
1,43,120,23
1,43,0,35
1,43,120,38
1,43,0,34
1,45,120,16
1,45,0,38
1,43,120,34
1,43,0,26
1,36,120,17
1,36,0,78
1,36,120,418
1,36,0,40
1,36,118,39
1,36,0,21
1,40,120,17
1,40,0,54
1,36,114,33
1,36,0,19
1,43,120,23
1,43,0,39
1,43,120,37
1,43,0,30
1,40,120,13
1,40,0,72
1,43,120,3
1,43,0,19
1,41,120,27
1,41,0,35
1,41,120,38
1,41,0,26
1,45,120,20
1,45,0,67
1,41,114,4
1,41,0,18
1,48,120,35
1,48,0,49
1,50,120,67
1,50,0,65
1,48,120,7
1,48,0,22
1,36,120,26
1,36,0,38
1,36,120,41
1,36,0,24
1,40,120,14
1,40,0,60
1,36,114,15
1,36,0,25
1,43,120,25
1,43,0,63
1,45,120,52
1,45,0,60
1,43,120,15
1,43,0,22
1,36,120,25
1,36,0,26
1,36,120,52
1,36,0,24
1,38,120,16
1,38,0,49
1,38,114,23
1,38,0,30
1,39,120,20
1,39,0,46
1,39,120,30
1,39,0,35
1,40,120,7
1,40,0,47
1,40,116,33
1,40,0,17
1,41,120,26
1,41,0,50
1,41,114,29
1,41,0,16
1,45,120,30
1,45,0,57
1,41,114,12
1,41,0,19
1,48,120,29
1,48,0,59
1,48,120,18
1,48,0,24
1,45,120,14
1,46,120,45
1,45,0,9
1,48,120,29
1,46,0,4
1,48,0,31
1,41,120,1
1,41,0,54
1,41,120,25
1,41,0,27
1,45,120,27
1,45,0,56
1,48,120,60
1,48,0,57
1,46,120,55
1,46,0,65
1,48,120,9
1,48,0,46
1,36,120,75
1,36,0,34
1,40,120,13
1,40,0,71
1,43,120,46
1,43,0,81
1,45,120,40
1,45,0,49
1,43,120,23
1,43,0,25
1,36,120,18
1,36,0,38
1,36,117,45
1,36,0,28
1,40,120,14
1,40,0,50
1,36,114,27
1,36,0,19
1,41,120,27
1,41,0,53
1,41,120,22
1,41,0,32
1,42,120,12
1,42,0,49
1,42,115,18
1,42,0,28
1,43,120,22
1,43,0,44
1,43,120,35
1,43,0,19
1,47,120,21
1,47,0,72
1,50,120,48
1,50,0,54
1,43,114,27
1,43,0,21
1,52,120,20
1,52,0,60
1,50,120,20
1,50,0,32
1,41,120,7
1,41,0,49
1,41,120,34
1,41,0,16
1,45,120,24
1,45,0,56
1,41,114,22
1,41,0,23
1,46,120,16
1,46,0,64
1,47,120,57
1,47,0,64
1,48,120,9
1,48,0,24
1,36,120,22
1,36,0,65
1,38,120,131
1,40,120,43
1,38,0,6
1,40,0,76
1,43,120,0
1,45,120,42
1,43,0,8
1,45,0,61
1,36,120,49
1,36,0,67
1,38,120,127
1,38,0,49
1,40,120,1
1,40,0,66
1,43,120,0
1,43,0,49
1,45,120,0
1,45,0,70
1,36,120,50
1,36,0,50
1,38,120,146
1,38,0,52
1,40,120,0
1,40,0,64
1,43,120,9
1,43,0,39
1,45,120,6
1,45,0,65
1,36,120,50
1,36,0,63
1,38,120,139
1,40,120,38
1,38,0,6
1,40,0,63
1,43,120,6
1,45,120,44
1,43,0,4
1,45,0,66
1,36,120,51
1,36,0,79
1,38,120,114
1,40,120,49
1,38,0,14
1,40,0,51
1,43,120,5
1,45,120,45
1,43,0,4
1,45,0,71
1,36,120,51
1,36,0,75
1,38,120,122
1,40,120,40
1,38,0,9
1,40,0,54
1,43,120,9
1,43,0,49
1,45,120,1
1,45,0,71
1,36,120,44
1,36,0,70
1,37,120,541
1,37,0,79
1,36,120,5
1,36,0,1064
1,36,120,11
1,36,0,90
2,48,96,961
2,55,105,0
2,55,0,43
2,48,0,27
2,51,81,119
2,55,100,0
2,52,77,50
2,55,0,5
2,51,0,9
2,60,112,56
2,55,94,0
2,52,0,10
2,57,78,37
2,55,0,13
2,60,0,50
2,56,48,1
2,57,0,4
2,56,0,4
2,55,48,0
2,55,0,11
2,54,47,1
2,54,0,9
2,55,103,2
2,48,84,3
2,55,0,55
2,48,0,12
2,51,87,122
2,55,110,0
2,52,80,39
2,55,0,4
2,51,0,6
2,60,123,67
2,55,98,0
2,52,0,11
2,57,79,1
2,55,0,14
2,60,0,36
2,57,0,15
2,56,48,2
2,56,0,6
2,55,48,0
2,55,0,10
2,54,47,0
2,54,0,9
2,55,107,23
2,48,92,4
2,48,0,53
2,55,0,5
2,55,113,129
2,51,90,4
2,55,0,43
2,52,75,8
