track,note,velocity,time
1,81,57,580
1,83,71,4
1,78,57,4
1,76,79,4
1,74,57,3
1,81,66,206
1,76,57,0
2,81,29,579
2,93,35,25
2,83,24,159
2,95,44,17
2,78,32,250
2,90,14,12
2,76,21,240
2,88,28,3
2,74,23,296
2,78,25,10
2,86,42,12
2,62,38,958
2,59,37,5
2,67,22,18
2,69,15,13
2,55,32,853
2,59,27,2
2,62,13,12
2,64,23,7
3,50,29,2112
3,52,15,0
3,54,24,0
3,55,51,0
3,57,49,0
3,59,35,0
3,54,28,0
3,57,42,0
3,59,39,0
3,62,48,0
3,64,48,0
3,66,42,0
3,57,49,0
3,59,45,0
3,62,39,0
3,64,27,0
3,66,28,0
3,69,36,0
3,59,40,0
3,62,48,0
3,64,44,0
3,66,33,0
3,69,44,0
3,71,26,0
3,74,12,0
3,71,46,0
3,69,31,0
3,66,22,0
3,64,22,0
3,76,48,0
3,74,33,0
3,71,48,0
3,69,43,0
3,66,32,0
3,71,43,0
3,69,38,0
3,66,42,0
3,64,37,0
3,62,37,0
3,69,62,0
3,66,27,0
3,64,32,0
3,62,35,0
3,59,23,0
4,81,11,579
4,93,12,3
4,95,18,390
4,83,18,2
4,90,31,339
4,78,25,2
4,88,37,353
4,76,15,21
4,86,47,0
4,74,37,0
4,38,72,0
4,78,33,0
5,57,43,2112
5,50,38,0
5,62,45,0
6,45,32,3648
6,57,28,0
6,47,28,96
6,59,18,0
6,62,36,58
6,50,35,0
6,45,32,1315
6,57,32,0
6,47,28,96
6,59,30,0
6,50,32,74
6,62,32,0
6,64,28,48
6,52,28,0
6,62,28,32
6,50,30,0
6,38,38,512
6,45,33,96
6,50,33,72
6,54,19,72
6,57,28,72
6,62,36,72
6,50,38,72
6,54,24,72
6,45,33,72
6,52,31,72
6,55,28,72
6,57,29,72
6,61,28,72
6,64,32,72
6,45,24,72
6,38,39,168
6,45,35,48
6,50,36,72
6,54,22,72
6,57,35,72
6,50,31,72
6,54,28,72
6,50,32,72
6,45,32,72
6,52,36,72
6,55,35,72
6,57,36,72
6,61,30,72
6,64,41,72
6,45,40,72
6,36,38,0
6,43,38,0
6,48,29,0
6,52,20,0
6,55,29,0
6,60,34,0
6,48,34,0
6,52,20,0
6,47,43,0
6,51,32,96
6,54,26,72
6,57,35,72
6,59,34,72
6,54,29,72
6,57,32,72
6,54,28,72
6,40,32,72
6,47,38,72
6,52,23,72
6,55,33,72
6,59,20,72
6,64,31,72
6,52,29,72
6,55,30,72
6,43,28,72
6,50,30,72
6,55,32,72
6,57,30,72
6,59,29,72
6,62,33,72
6,55,35,72
6,59,28,72
6,45,35,72
6,52,32,72
6,57,32,72
6,61,32,72
6,62,36,72
6,64,41,72
6,57,36,72
6,50,40,72
6,43,44,72
6,50,39,72
6,55,35,72
6,59,26,72
6,62,29,72
6,67,39,72
6,55,31,72
6,59,29,72
6,38,36,72
6,45,24,72
6,50,34,72
6,54,25,72
6,57,33,72
6,62,38,72
6,50,39,72
6,54,32,72
6,47,25,72
6,54,28,72
6,59,35,72
6,61,25,72
6,62,36,72
6,61,29,72
6,59,35,72
6,54,34,72
6,42,37,72
6,49,34,72
6,54,34,72
6,57,32,72
6,61,35,72
6,66,28,72
6,57,29,72
6,61,31,72
6,43,39,72
6,50,39,72
6,55,34,72
6,57,31,72
6,59,28,72
6,62,36,72
6,55,36,72
6,59,33,72
6,38,36,72
6,45,38,72
6,50,36,72
6,54,19,72
6,57,31,72
6,62,34,72
6,64,34,72
6,62,35,72
6,45,34,72
6,50,36,72
6,52,36,72
6,55,31,72
6,57,28,72
6,55,18,72
6,57,33,72
6,55,26,72
6,45,34,72
6,52,37,72
6,55,34,72
6,57,32,72
6,55,33,72
6,52,38,72
6,45,39,72
6,38,39,72
6,43,44,72
6,50,40,0
6,50,39,72
6,55,35,72
6,59,26,72
6,62,29,72
6,67,39,72
6,55,31,72
6,59,29,72
6,45,24,72
6,50,34,96
6,54,25,72
6,57,33,72
6,62,38,72
6,50,39,72
6,54,32,72
6,47,25,72
6,54,28,72
6,59,35,72
6,61,25,72
6,62,36,72
6,61,29,72
6,59,35,72
6,54,34,72
6,42,37,72
6,49,34,72
6,54,34,72
6,57,32,72
6,61,35,72
6,66,28,72
6,57,29,72
6,61,31,72
6,43,39,72
6,50,39,72
6,55,34,72
6,57,31,72
6,59,28,72
6,62,36,72
6,55,36,72
6,59,33,72
6,45,38,72
6,50,36,96
6,54,19,72
6,57,31,72
6,62,34,72
6,64,34,72
6,62,35,72
6,45,36,0
6,52,35,96
6,55,35,72
6,57,29,72
6,61,31,72
6,62,34,72
6,64,38,72
6,61,28,72
6,57,29,72
6,52,38,72
6,55,38,72
6,57,33,72
6,55,32,72
6,52,39,72
6,49,32,72
6,45,41,72
6,43,37,72
6,50,39,72
6,55,38,72
6,59,32,72
6,62,35,72
6,67,36,72
6,71,33,72
6,67,38,72
6,55,36,72
6,59,30,72
6,62,33,72
6,59,38,72
6,67,41,72
6,59,27,72
6,62,36,72
6,55,34,72
6,45,36,72
6,50,38,96
6,54,22,72
6,57,32,72
6,62,41,72
6,54,28,72
6,57,35,72
6,50,40,72
6,54,26,72
6,57,39,72
6,62,37,72
6,57,39,72
6,54,34,72
6,50,41,72
6,45,41,72
6,41,35,72
6,48,36,72
6,53,36,72
6,57,30,72
6,60,36,72
6,65,29,72
6,60,24,72
6,53,32,72
6,41,39,72
6,48,32,72
6,53,39,72
6,57,35,72
6,60,38,72
6,65,37,72
6,53,38,72
6,57,28,72
6,41,46,72
6,48,38,72
6,53,38,72
6,57,32,72
6,60,32,72
6,65,36,72
6,65,39,0
6,60,33,96
6,53,36,72
6,57,19,72
6,60,34,72
6,65,36,72
6,65,35,0
6,57,26,96
6,60,31,72
6,53,36,72
6,41,41,72
6,48,39,72
6,53,40,72
6,57,32,72
6,60,35,72
6,65,41,72
6,60,36,72
6,53,39,72
6,57,32,95
6,60,35,96
6,65,32,72
6,65,38,0
6,60,38,96
6,53,40,72
6,57,28,72
6,45,40,72
6,52,36,72
6,57,38,72
6,60,34,72
6,64,34,72
6,60,30,72
6,64,32,72
6,60,33,72
6,57,38,72
6,52,36,72
6,57,36,72
6,60,30,72
6,57,33,72
6,52,38,72
6,48,37,72
6,45,46,72
6,41,44,72
6,48,36,72
6,53,36,72
6,57,33,72
6,60,32,72
6,65,35,72
6,60,32,72
6,53,36,72
6,41,43,72
6,48,41,72
6,53,41,72
6,57,32,72
6,60,32,72
6,65,30,72
6,53,36,72
6,57,29,72
6,45,44,72
6,52,38,72
6,57,36,72
6,60,32,72
6,64,36,72
6,57,35,72
6,60,36,72
6,64,34,72
6,45,38,72
6,50,39,96
6,54,29,72
6,57,36,72
6,62,35,72
6,64,39,72
6,62,38,72
6,40,41,72
6,47,41,72
6,52,37,72
6,56,25,72
6,59,33,72
6,64,33,72
6,56,28,72
6,59,33,72
6,52,34,72
6,56,25,72
6,59,31,72
6,64,30,72
6,59,28,72
6,64,39,72
6,56,23,72
6,59,32,72
6,45,34,72
6,50,33,96
6,54,28,72
6,57,39,72
6,62,36,72
6,64,36,72
6,62,34,72
6,50,35,72
6,54,24,72
6,57,36,72
6,62,25,72
6,62,39,0
6,57,36,96
6,54,29,72
6,57,33,72
6,40,39,72
6,47,38,72
6,52,35,72
6,56,26,72
6,59,35,72
6,45,28,1224
6,50,35,96
6,54,22,0
6,57,34,72
6,62,40,72
6,50,35,72
6,54,25,72
6,45,34,72
6,52,34,72
6,55,33,72
6,57,28,72
6,61,29,72
6,64,32,72
6,45,39,72
6,45,39,48
6,50,37,96
6,54,26,72
6,57,33,72
6,50,38,72
6,54,31,72
6,50,32,72
6,45,39,72
6,52,36,72
6,55,36,72
6,57,27,72
6,61,30,72
6,64,33,72
6,45,38,72
6,36,38,168
6,43,41,48
6,48,35,72
6,52,32,72
6,55,32,72
6,60,33,72
6,48,38,72
6,52,35,72
6,47,41,72
6,51,34,72
6,54,22,72
6,57,35,72
6,59,35,72
6,54,22,72
6,57,25,72
6,54,21,72
6,40,39,72
6,47,34,72
6,52,31,72
6,55,35,72
6,59,28,72
6,64,34,72
6,52,28,72
6,55,32,72
6,43,41,72
6,50,36,72
6,55,33,72
6,57,30,72
6,59,32,72
6,62,31,72
6,55,33,72
6,59,28,72
6,45,38,72
6,52,36,72
6,57,37,72
6,61,31,72
6,62,40,72
6,64,38,72
6,57,36,72
6,50,41,72
6,43,44,72
6,50,39,72
6,55,35,72
6,59,26,72
6,62,29,72
6,67,39,72
6,55,31,72
6,59,29,72
6,45,24,72
6,50,34,96
6,54,25,72
6,57,33,72
6,62,38,72
6,50,39,72
6,54,32,72
6,47,25,72
6,54,28,72
6,59,35,72
6,61,25,72
6,62,36,72
6,61,29,72
6,59,35,72
6,54,34,72
6,42,37,72
6,49,34,72
6,54,34,72
6,57,32,72
6,61,35,72
6,66,28,72
6,57,29,72
6,61,31,72
6,43,39,72
6,50,39,72
6,55,34,72
6,57,31,72
6,59,28,72
6,62,36,72
6,55,36,72
6,59,33,72
6,45,38,72
6,50,36,96
6,54,19,72
6,57,31,72
6,62,34,72
6,64,34,72
6,62,35,72
6,45,34,72
6,50,36,72
6,52,36,72
6,55,31,72
6,57,28,72
6,55,18,72
6,57,33,72
6,55,26,72
6,45,34,72
6,52,37,72
6,55,34,72
6,57,32,72
6,55,33,72
6,52,38,72
6,45,39,72
6,38,39,72
6,43,34,72
6,50,32,0
6,55,30,0
6,59,24,0
6,62,16,0
6,67,19,0
6,71,16,0
6,67,19,0
6,55,28,0
6,59,18,0
6,62,32,0
6,59,16,0
6,67,36,0
6,59,12,0
6,62,28,0
6,55,27,0
6,45,35,95
6,50,36,96
6,54,23,72
6,57,29,72
6,62,35,72
6,64,32,72
6,62,10,72
6,50,36,72
6,54,20,72
6,57,23,72
6,55,28,72
6,54,18,72
6,57,30,72
6,50,31,72
6,45,32,72
6,43,36,72
6,50,36,72
6,55,34,72
6,59,25,72
6,62,21,72
6,67,29,72
6,71,32,72
6,67,16,72
6,55,32,72
6,59,25,72
6,62,30,72
6,67,32,72
6,62,29,72
6,67,32,72
6,59,32,72
6,55,32,72
6,45,38,72
6,50,35,96
6,54,25,72
6,57,28,72
6,62,30,72
6,66,24,72
6,69,9,72
6,74,34,72
6,81,34,168
6,86,31,96
6,86,31,0
7,45,62,3648
7,57,56,0
7,47,54,96
7,59,39,0
7,62,68,58
7,50,66,0
7,45,62,1315
7,57,62,0
7,47,56,96
7,59,58,0
7,50,62,74
7,62,62,0
7,64,55,48
7,52,54,0
7,62,55,32
7,50,58,0
7,38,71,512
7,45,63,96
7,50,63,72
7,54,41,72
7,57,55,72
7,62,67,72
7,50,70,72
7,54,49,72
7,45,63,72
7,52,59,72
7,55,55,72
7,57,57,72
7,61,56,72
7,64,60,72
7,45,48,72
7,38,72,168
7,45,66,48
7,50,67,72
7,54,45,72
7,57,66,72
7,50,59,72
7,54,56,72
7,50,62,72
7,45,62,72
7,52,68,72
7,55,66,72
7,57,67,72
7,61,58,72
7,64,76,72
7,45,73,72
7,36,58,0
7,43,58,0
7,48,47,0
7,52,36,0
7,55,47,0
7,60,53,0
7,48,53,0
7,52,36,0
7,47,78,0
7,51,61,96
7,54,52,72
7,57,65,72
7,59,64,72
7,54,57,72
7,57,61,72
7,54,55,72
7,40,62,72
7,47,71,72
7,52,47,72
7,55,63,72
7,59,42,72
7,64,59,72
7,52,57,72
7,55,58,72
7,43,55,72
7,50,58,72
7,55,62,72
7,57,58,72
7,59,57,72
7,62,63,72
7,55,65,72
7,59,56,72
7,45,65,72
7,52,62,72
7,57,61,72
7,61,61,72
7,62,68,72
7,64,76,72
7,57,68,72
7,50,74,72
7,43,81,72
7,50,72,72
7,55,65,72
7,59,52,72
7,62,57,72
7,67,72,72
7,55,59,72
7,59,57,72
7,38,68,72
7,45,48,72
7,50,64,72
7,54,51,72
7,57,63,72
7,62,70,72
7,50,72,72
7,54,61,72
7,47,50,72
7,54,54,72
7,59,66,72
7,61,51,72
7,62,68,72
7,61,57,72
7,59,65,72
7,54,64,72
7,42,69,72
7,49,64,72
7,54,64,72
7,57,60,72
7,61,65,72
7,66,54,72
7,57,57,72
7,61,59,72
7,43,72,72
7,50,72,72
7,55,64,72
7,57,59,72
7,59,55,72
7,62,67,72
7,55,68,72
7,59,63,72
7,38,67,72
7,45,70,72
7,50,67,72
7,54,40,72
7,57,59,72
7,62,64,72
7,64,64,72
7,62,65,72
7,45,64,72
7,50,68,72
7,52,68,72
7,55,59,72
7,57,56,72
7,55,39,72
7,57,63,72
7,55,52,72
7,45,64,72
7,52,69,72
7,55,64,72
7,57,61,72
7,55,63,72
7,52,70,72
7,45,72,72
7,38,72,72
7,43,81,72
7,50,72,96
7,55,65,72
7,59,52,72
7,62,57,72
7,67,72,72
7,55,59,72
7,59,57,72
7,45,48,72
7,50,64,96
7,54,51,72
7,57,63,72
7,62,70,72
7,50,72,72
7,54,61,72
7,47,50,72
7,54,54,72
7,59,66,72
7,61,51,72
7,62,68,72
7,61,57,72
7,59,65,72
7,54,64,72
7,42,69,72
7,49,64,72
7,54,64,72
7,57,60,72
7,61,65,72
7,66,54,72
7,57,57,72
7,61,59,72
7,43,72,72
7,50,72,72
7,55,64,72
7,57,59,72
7,59,55,72
7,62,67,72
7,55,68,72
7,59,63,72
7,45,70,72
7,50,67,96
7,54,40,72
7,57,59,72
7,62,64,72
7,64,64,72
7,62,65,72
7,45,68,0
7,52,65,96
7,55,65,72
7,57,57,72
7,61,59,72
7,62,64,72
7,64,70,72
7,61,56,72
7,57,57,72
7,52,71,72
7,55,70,72
7,57,63,72
7,55,61,72
7,52,72,72
7,49,61,72
7,45,76,72
7,43,69,72
7,50,72,72
7,55,71,72
7,59,62,72
7,62,65,72
7,67,67,72
7,71,63,72
7,67,71,72
7,55,67,72
7,59,58,72
7,62,63,72
7,59,70,72
7,67,75,72
7,59,53,72
7,62,67,72
7,55,64,72
7,45,68,72
7,50,70,96
7,54,45,72
7,57,60,72
7,62,76,72
7,54,54,72
7,57,65,72
7,50,73,72
7,54,52,72
7,57,72,72
7,62,69,72
7,57,72,72
7,54,64,72
7,50,76,72
7,45,76,72
7,41,65,72
7,48,68,72
7,53,68,72
7,57,58,72
7,60,67,72
7,65,57,72
7,60,49,72
7,53,61,72
7,41,72,72
7,48,60,72
7,53,72,72
7,57,65,72
7,60,70,72
7,65,69,72
7,53,71,72
7,57,55,72
7,41,83,72
7,48,71,72
7,53,71,72
7,57,62,72
7,60,62,72
7,65,67,72
7,65,72,0
7,60,63,96
7,53,67,72
7,57,40,72
7,60,64,72
7,65,67,72
7,65,65,0
7,57,52,96
7,60,59,72
7,53,68,72
7,41,76,72
7,48,72,72
7,53,73,72
7,57,60,72
7,60,65,72
7,65,76,72
7,60,67,72
7,53,72,72
7,57,61,95
7,60,66,96
7,65,60,72
7,65,71,0
7,60,71,96
7,53,73,72
7,57,56,72
7,45,73,72
7,52,67,72
7,57,70,72
7,60,64,72
7,64,64,72
7,60,58,72
7,64,61,72
7,60,63,72
7,57,70,72
7,52,67,72
7,57,67,72
7,60,58,72
7,57,63,72
7,52,70,72
7,48,69,72
7,45,83,72
7,41,81,72
7,48,68,72
7,53,68,72
7,57,63,72
7,60,60,72
7,65,65,72
7,60,61,72
7,53,68,72
7,41,78,72
7,48,75,72
7,53,76,72
7,57,61,72
7,60,61,72
7,65,58,72
7,53,67,72
7,57,57,72
7,45,79,72
7,52,70,72
7,57,67,72
7,60,60,72
7,64,68,72
7,57,66,72
7,60,67,72
7,64,64,72
7,45,71,72
7,50,72,96
7,54,57,72
7,57,68,72
7,62,65,72
7,64,72,72
7,62,71,72
7,40,75,72
7,47,76,72
7,52,69,72
7,56,51,72
7,59,63,72
7,64,63,72
7,56,54,72
7,59,63,72
7,52,64,72
7,56,50,72
7,59,59,72
7,64,58,72
7,59,55,72
7,64,72,72
7,56,47,72
7,59,61,72
