track,note,velocity,time
0,35,111,0
0,34,94,0
0,46,43,0
0,49,65,0
0,57,61,0
0,58,98,0
0,61,104,0
0,65,93,0
0,70,106,0
0,82,101,0
0,42,42,14
0,42,41,4
0,42,68,15
0,38,114,0
0,34,94,0
0,46,44,0
0,77,92,0
0,73,87,0
0,70,88,0
0,42,68,15
0,42,62,4
0,42,94,15
0,35,113,0
0,34,97,0
0,46,47,0
0,42,38,15
0,42,51,15
0,42,58,15
0,38,115,0
0,77,92,0
0,70,81,0
0,73,85,0
0,42,45,9
0,42,71,13
0,35,113,0
0,34,95,0
0,46,45,0
0,42,94,15
0,42,42,9
0,42,54,15
0,35,111,0
0,34,96,0
0,46,46,0
0,42,64,15
0,38,116,0
0,77,92,0
0,73,86,0
0,70,77,0
0,42,74,6
0,42,45,13
0,35,110,0
0,34,97,0
0,46,47,0
0,68,87,1
0,60,105,0
0,63,100,0
0,42,94,1
0,35,113,0
0,32,98,0
0,44,48,0
0,56,118,0
0,80,101,0
0,42,51,15
0,42,56,15
0,42,64,15
0,38,116,0
0,75,92,0
0,72,84,0
0,68,81,0
0,42,48,1
0,42,66,13
0,35,111,0
0,32,96,0
0,44,46,0
0,65,89,1
0,61,102,0
0,58,104,0
0,54,104,0
0,77,101,0
0,42,94,1
0,35,113,0
0,30,96,0
0,42,46,0
0,42,46,15
0,42,54,1
0,42,66,15
0,38,116,0
0,30,96,0
0,42,46,0
0,77,93,0
0,73,85,0
0,70,70,0
0,42,54,1
0,42,58,2
0,42,94,15
0,35,113,0
0,30,91,0
0,42,41,0
0,42,52,15
0,42,60,15
0,70,70,14
0,77,91,0
0,73,87,0
0,42,80,1
0,38,116,0
0,42,62,3
0,42,74,15
0,35,113,0
0,30,91,0
0,42,41,0
0,42,94,15
0,42,51,9
0,42,62,15
0,35,113,0
0,30,96,0
0,42,46,0
0,42,71,15
0,38,116,0
0,77,93,0
0,73,84,0
0,70,70,0
0,42,62,3
0,42,77,13
0,35,110,0
0,30,97,0
0,42,47,0
0,42,94,2
0,35,113,0
0,29,100,0
0,41,50,0
0,75,101,0
0,53,88,0
0,56,121,0
0,63,72,0
0,60,109,0
0,42,51,15
0,42,60,15
0,42,68,15
0,38,114,0
0,75,92,0
0,80,101,0
0,68,102,0
0,72,89,0
0,68,77,0
0,42,71,3
0,42,74,13
0,35,89,0
0,29,96,0
0,41,46,0
0,42,94,1
0,35,113,0
0,27,98,0
0,39,48,0
0,54,96,0
0,51,89,0
0,58,100,0
0,65,99,0
0,61,104,0
0,77,101,0
0,42,52,11
0,42,68,4
0,73,92,14
0,42,77,1
0,38,116,0
0,27,97,0
0,39,47,0
0,70,87,0
0,66,74,0
0,42,66,15
0,42,74,3
0,42,94,15
0,35,113,0
0,27,98,0
0,39,48,0
0,42,49,15
0,42,66,15
0,73,92,14
0,70,87,0
0,66,70,0
0,42,77,1
0,38,116,0
0,42,77,1
0,53,102,2
0,56,112,0
0,60,109,0
0,63,77,0
0,75,101,0
0,42,74,1
0,35,113,0
0,29,94,0
0,41,44,0
0,42,94,15
0,42,64,9
0,42,62,15
0,35,113,0
0,29,94,0
0,41,44,0
0,42,64,15
0,38,111,0
0,75,93,0
0,72,85,0
0,68,79,0
0,42,77,1
0,35,94,0
0,42,71,12
0,35,103,0
0,29,94,0
0,41,44,0
0,63,55,5
0,42,90,1
0,35,113,0
0,29,96,0
0,41,46,0
0,68,109,0
0,60,86,0
0,56,102,0
0,80,101,0
0,42,66,13
0,42,64,15
0,42,66,11
0,38,116,0
0,29,95,0
0,41,45,0
0,75,92,0
0,72,87,0
0,68,78,0
0,42,66,2
0,42,71,3
0,35,110,0
0,32,98,0
0,44,48,0
0,58,104,0
0,42,94,1
0,35,113,0
0,34,96,0
0,46,46,0
0,65,100,0
0,61,102,0
0,77,101,0
0,42,66,15
0,42,77,2
0,42,80,15
0,38,116,0
0,34,97,0
0,46,47,0
0,77,91,0
0,73,87,0
0,70,74,0
0,42,68,10
0,42,83,4
0,42,94,15
0,35,113,0
0,34,93,0
0,46,43,0
0,42,66,15
0,42,66,15
0,77,92,14
0,70,70,0
0,42,68,1
0,38,116,0
0,73,84,0
0,42,80,9
0,42,86,14
0,35,113,0
0,27,95,0
0,39,45,0
0,75,101,0
0,42,94,1
0,54,100,0
0,58,106,0
0,51,94,0
0,63,96,0
0,42,74,15
0,42,77,9
0,35,113,0
0,27,89,0
0,39,39,0
0,42,77,8
0,38,116,0
0,27,92,0
0,39,42,0
0,75,92,0
0,70,87,0
0,66,64,0
0,42,80,7
0,35,110,0
0,27,95,0
0,39,45,0
0,42,86,7
0,35,110,0
0,27,97,0
0,39,47,0
0,63,71,1
0,56,104,0
0,65,97,0
0,60,97,0
0,53,88,0
0,77,101,0
0,42,94,1
0,35,110,0
0,29,98,0
0,41,48,0
0,42,71,15
0,42,83,15
0,38,113,0
0,77,114,0
0,75,93,0
0,42,83,0
0,38,116,0
0,29,98,0
0,41,48,0
0,72,88,0
0,68,75,0
0,42,77,2
0,42,90,1
0,32,96,0
0,44,46,0
0,82,101,2
0,35,113,1
0,34,98,0
0,46,48,0
0,70,78,1
0,82,81,0
0,49,75,0
0,57,61,0
0,65,92,0
0,70,94,0
0,61,100,0
0,58,100,0
0,42,68,2
0,42,71,1
0,42,86,15
0,38,116,0
0,34,103,0
0,46,53,0
0,70,113,0
0,58,79,0
0,70,79,0
0,77,92,0
0,70,58,0
0,73,87,0
0,42,71,1
0,42,86,3
0,42,94,0
0,35,113,0
0,34,94,0
0,46,44,0
0,70,105,0
0,58,73,0
0,70,73,0
0,42,74,15
0,42,68,15
0,42,83,1
0,38,116,0
0,77,93,0
0,70,68,0
0,73,86,0
0,42,80,15
0,70,104,0
0,58,72,0
0,70,72,0
0,42,80,1
0,35,111,0
0,34,97,0
0,46,47,0
0,42,94,15
0,42,77,4
0,42,52,0
0,35,111,0
0,34,100,0
0,46,50,0
0,70,109,0
0,58,76,0
0,70,76,0
0,42,80,15
0,38,116,0
0,77,92,0
0,73,86,0
0,70,84,0
0,42,80,4
0,73,109,0
0,61,76,0
0,73,76,0
0,42,83,0
0,35,111,0
0,34,93,0
0,46,43,0
0,68,96,1
0,56,106,0
0,80,101,0
0,72,109,0
0,60,76,0
0,72,76,0
0,68,76,0
0,42,94,0
0,35,113,0
0,32,94,0
0,44,44,0
0,60,111,0
0,63,102,0
0,80,68,1
0,42,74,10
0,70,109,0
0,58,76,0
0,70,76,0
0,42,77,1
0,75,92,14
0,68,109,0
0,56,76,0
0,68,76,0
0,42,86,0
0,38,116,0
0,72,87,0
0,68,78,0
0,42,80,2
0,42,86,1
0,35,110,0
0,32,96,0
0,44,46,0
0,77,64,1
0,65,77,0
0,58,104,0
0,54,109,0
0,61,100,0
0,65,85,0
0,77,101,0
0,42,94,1
0,35,113,0
0,30,97,0
0,42,47,0
0,42,77,6
0,42,62,3
0,68,109,0
0,56,76,0
0,68,76,0
0,77,93,0
0,70,84,0
0,42,80,1
0,38,116,0
0,30,97,0
0,42,47,0
0,73,86,0
0,42,86,1
0,42,86,9
0,70,107,0
0,58,74,0
0,70,74,0
0,42,94,1
0,35,113,0
0,30,99,0
0,42,49,0
0,42,77,15
0,68,106,0
0,56,74,0
0,68,74,0
0,42,80,1
0,77,93,14
0,70,87,0
0,73,86,0
0,42,80,1
0,38,116,0
0,42,64,5
0,70,104,0
0,58,72,0
0,70,72,0
0,42,86,1
0,35,113,0
0,30,97,0
0,42,47,0
0,42,94,15
0,35,113,0
0,42,71,9
0,70,108,0
0,58,75,0
0,70,75,0
0,42,77,1
0,35,113,0
0,30,98,0
0,42,48,0
0,77,92,14
0,70,82,0
0,42,86,1
0,38,116,0
0,73,84,0
0,42,66,1
0,73,99,0
0,61,69,0
0,73,69,0
0,42,86,1
0,35,113,0
0,30,95,0
0,42,45,0
0,72,100,0
0,60,70,0
0,72,70,0
0,63,76,0
0,42,94,1
0,35,113,0
0,29,94,0
0,41,44,0
0,53,93,0
0,75,101,0
0,75,67,1
0,56,109,0
0,63,80,0
0,60,105,0
0,42,77,11
0,70,100,0
0,58,70,0
0,70,70,0
0,42,71,1
0,80,69,1
0,75,92,0
0,72,87,0
0,68,80,0
0,80,101,0
0,68,100,0
0,56,70,0
0,68,70,0
0,68,81,0
0,42,80,0
0,38,116,0
0,68,104,0
0,42,74,7
0,42,80,5
0,35,113,0
0,29,92,0
0,41,42,0
0,77,71,1
0,65,68,0
0,42,94,1
0,35,113,0
0,27,97,0
0,39,47,0
0,77,101,0
0,54,109,0
0,51,98,0
0,65,100,0
0,58,104,0
0,61,102,0
0,42,77,12
0,42,71,4
0,68,107,0
0,56,74,0
0,68,74,0
0,73,92,0
0,42,83,1
0,38,116,0
0,27,91,0
0,39,41,0
0,70,87,0
0,66,88,0
0,42,77,15
0,42,83,2
0,70,107,0
0,58,74,0
0,70,74,0
0,42,94,1
0,35,113,0
0,27,97,0
0,39,47,0
0,42,74,15
0,68,96,0
0,56,67,0
0,68,67,0
0,42,83,1
0,73,92,14
0,70,88,0
0,66,86,0
0,42,83,1
0,38,116,0
0,42,83,1
0,68,101,0
0,56,70,0
0,68,70,0
0,75,66,0
0,63,79,0
0,53,102,0
0,56,109,0
0,63,86,0
0,60,109,0
0,75,101,0
0,42,90,1
0,35,113,0
0,29,94,0
0,41,44,0
0,42,94,15
0,42,80,9
0,68,104,0
0,56,72,0
0,68,72,0
0,42,80,1
0,35,113,0
0,29,94,0
0,41,44,0
0,75,91,13
0,68,74,1
0,72,72,0
0,42,71,1
0,38,116,0
0,42,83,1
0,73,103,0
0,61,72,0
0,73,72,0
0,42,86,1
0,35,113,0
0,29,93,0
0,41,43,0
0,80,69,4
0,63,55,0
0,56,62,0
0,68,104,0
0,60,105,0
0,72,106,0
0,60,74,0
0,72,74,0
0,68,79,0
0,42,94,0
0,35,113,0
0,29,94,0
0,41,44,0
0,80,101,0
0,42,74,11
0,70,107,0
0,58,74,0
0,70,74,0
0,42,71,1
0,68,107,0
0,56,74,0
0,68,74,0
0,42,86,1
0,38,116,0
0,29,95,0
0,41,45,0
0,75,93,0
0,72,81,0
0,68,78,0
0,42,80,2
0,65,97,0
0,53,67,0
0,65,67,0
0,42,86,1
0,35,113,0
0,32,94,0
0,44,44,0
0,68,107,0
0,56,74,0
0,68,74,0
0,65,67,0
0,58,102,0
0,65,100,0
0,61,104,0
0,77,101,0
0,42,94,1
0,35,113,0
0,34,95,0
0,46,45,0
0,77,70,1
0,42,80,9
0,70,107,0
0,58,74,0
0,70,74,0
0,42,77,0
0,42,80,15
0,38,116,0
0,34,93,0
0,46,43,0
0,77,92,0
0,73,87,0
0,70,72,0
0,42,80,6
0,70,104,0
0,58,72,0
0,70,72,0
0,42,80,1
0,42,94,15
0,35,113,0
0,34,93,0
0,46,43,0
0,42,64,15
0,42,71,15
0,77,93,14
0,70,80,0
0,73,85,0
0,42,77,0
0,38,116,0
0,42,94,6
0,42,83,12
0,35,113,0
0,27,91,0
0,39,41,0
0,42,94,2
0,35,113,0
0,58,98,0
0,54,106,0
0,51,98,0
0,63,84,0
0,75,101,0
0,63,97,0
0,58,89,0
0,51,87,0
0,54,95,0
0,42,77,8
0,42,58,15
0,35,113,0
0,30,92,0
0,42,42,0
0,42,80,15
0,38,116,0
0,29,92,0
0,41,42,0
0,75,92,0
0,70,88,0
0,66,80,0
0,42,94,15
0,27,93,0
0,39,43,0
0,42,86,12
0,35,113,0
0,32,93,0
0,44,43,0
0,77,109,0
0,63,66,2
0,56,100,0
0,60,97,0
0,65,99,0
0,53,102,0
0,42,94,1
0,35,113,0
0,29,93,0
0,41,43,0
0,77,101,0
0,75,105,0
0,56,95,0
0,53,97,0
0,60,97,0
0,65,96,0
0,47,115,9
0,42,77,0
0,42,66,5
0,47,115,15
0,42,86,0
0,38,116,0
0,75,92,0
0,73,106,0
0,72,86,0
0,68,71,0
0,42,86,2
0,42,94,1
0,70,104,0
0,35,111,0
0,34,97,0
0,58,85,0
0,70,85,0
0,65,85,0
0,61,85,0
0,49,65,0
0,57,61,0
0,61,89,0
0,65,85,0
0,58,78,0
0,70,86,0
0,82,101,0
0,42,42,14
0,42,41,0
0,42,68,1
0,38,114,0
0,34,100,0
0,77,99,0
0,77,95,0
0,73,91,0
0,70,86,0
0,42,68,1
0,75,103,0
0,42,62,1
0,42,94,2
0,35,113,0
0,34,99,0
0,42,38,2
0,73,96,0
0,42,51,1
0,77,93,2
0,73,91,0
0,42,58,1
0,38,114,0
0,46,84,0
0,70,80,0
0,42,45,1
0,70,101,0
0,42,71,1
0,35,113,0
0,34,104,0
0,42,94,1
0,42,42,0
0,42,54,1
0,35,111,0
0,34,104,0
0,77,94,5
0,70,86,0
0,73,91,0
0,42,64,1
0,38,116,0
0,34,104,0
0,42,74,1
0,77,109,0
0,42,45,0
0,35,110,0
0,42,94,4
0,35,113,0
0,32,105,0
0,75,106,0
0,68,86,0
0,63,92,0
0,56,94,0
0,60,103,0
0,42,51,8
0,42,56,5
0,73,106,0
0,42,64,1
0,38,116,0
0,44,91,0
0,75,94,0
0,72,90,0
0,68,82,0
0,42,48,15
0,42,66,4
0,35,111,0
0,70,106,0
0,42,94,1
0,35,113,0
0,30,106,0
0,54,92,0
0,65,89,0
0,58,96,0
0,61,96,0
0,42,46,15
0,42,54,1
0,77,101,0
0,42,66,1
0,38,116,0
0,30,106,0
0,77,95,0
0,70,84,0
0,73,91,0
0,42,54,15
0,75,104,0
0,42,58,1
0,42,94,15
0,35,113,0
0,30,106,0
0,42,52,15
0,73,105,0
0,42,60,1
0,77,95,6
0,70,84,0
0,73,91,0
0,42,80,1
0,38,116,0
0,42,80,0
0,42,62,15
0,70,105,0
0,42,74,1
0,35,113,0
0,30,106,0
0,42,94,15
0,35,113,0
0,42,51,3
0,42,62,8
0,35,113,0
0,30,106,0
0,70,107,0
0,77,94,0
0,42,71,1
0,38,116,0
0,30,106,0
0,70,67,0
0,73,90,0
0,42,62,15
0,65,102,0
0,42,77,1
0,35,110,0
0,70,113,0
0,42,94,0
0,35,113,0
0,29,106,0
0,53,78,0
0,56,100,0
0,63,84,0
0,60,99,0
0,42,51,15
0,65,106,0
0,42,60,1
0,75,93,0
0,72,86,0
0,68,55,0
0,70,112,0
0,42,68,0
0,38,114,0
0,29,106,0
0,58,86,0
0,42,71,4
0,60,96,3
0,72,103,0
0,42,74,0
0,35,89,0
0,42,94,2
0,35,113,0
0,27,106,0
0,54,83,0
0,51,72,0
0,58,94,0
0,61,98,0
0,73,110,0
0,42,52,11
0,42,68,15
0,42,77,15
0,38,116,0
0,27,106,0
0,73,94,0
0,70,92,0
0,66,84,0
0,42,66,9
0,42,74,9
0,42,94,15
0,35,113,0
0,27,106,0
0,42,49,15
0,42,66,15
0,73,94,13
0,70,104,0
0,70,92,0
0,66,70,0
0,42,77,1
0,38,116,0
0,42,77,1
0,42,74,4
0,35,113,0
0,29,106,0
0,72,111,0
0,56,92,0
0,63,94,0
0,53,89,0
0,60,89,0
0,42,94,1
0,42,64,3
0,42,62,15
0,35,113,0
0,29,106,0
0,42,64,0
0,38,111,0
0,75,94,0
0,72,91,0
0,68,66,0
0,42,77,4
0,42,71,11
0,35,103,0
0,29,106,0
0,68,101,0
0,42,90,1
0,35,113,0
0,29,106,0
0,42,66,15
0,42,64,15
0,75,94,14
0,42,66,1
0,38,116,0
0,72,89,0
0,68,86,0
0,42,66,2
0,42,71,13
0,35,110,0
0,63,87,4
0,56,89,0
0,42,94,1
0,35,113,0
0,32,106,0
0,60,96,0
0,68,105,0
0,42,66,15
0,70,104,0
0,61,67,0
0,58,78,0
0,65,82,0
0,42,77,1
0,34,106,0
0,77,93,14
0,42,80,1
0,38,116,0
0,70,68,0
0,73,91,0
0,42,68,3
0,61,92,9
0,65,93,0
0,58,96,0
0,42,83,1
0,34,106,0
0,42,94,3
0,35,113,0
0,34,106,0
0,42,66,0
