track,note,velocity,time
0,60,74,1345
0,60,79,61
0,62,74,4
0,59,73,5
0,60,78,12
0,63,76,5
0,63,78,16
0,60,70,4
0,65,74,0
0,58,72,5
0,62,73,0
0,56,75,0
0,63,76,0
0,60,74,5
0,67,78,0
0,67,82,11
0,60,80,1
0,56,78,4
0,63,80,0
0,55,74,9
0,62,74,0
0,65,74,4
0,70,75,3
0,63,78,8
0,51,75,4
0,67,75,0
0,72,78,3
0,51,78,8
0,63,82,5
0,72,82,3
0,67,81,1
0,62,82,7
0,67,80,1
0,50,75,3
0,58,73,0
0,35,127,24
0,36,111,3
0,42,60,0
0,63,77,1
0,55,73,3
0,60,82,0
0,60,107,1
0,42,40,61
0,60,59,4
0,63,63,0
0,60,93,3
0,55,53,0
0,55,84,96
0,63,86,0
0,60,84,3
0,40,118,1
0,42,60,0
0,54,70,1
0,36,96,60
0,60,69,1
0,55,55,3
0,63,58,0
0,35,117,1
0,62,107,3
0,42,40,0
0,36,113,40
0,55,64,1
0,60,76,3
0,63,69,0
0,35,127,1
0,42,60,0
0,62,99,3
0,60,92,4
0,55,65,5
0,42,40,4
0,60,68,3
0,63,61,0
0,60,92,7
0,59,30,3
0,40,118,8
0,42,60,0
0,54,70,1
0,55,89,3
0,60,97,1
0,63,95,0
0,58,83,8
0,62,87,0
0,38,96,4
0,42,40,4
0,55,55,1
0,60,69,3
0,63,56,0
0,62,107,1
0,39,111,8
0,35,127,4
0,42,60,0
0,55,64,4
0,58,76,0
0,63,58,0
0,60,107,4
0,55,81,3
0,58,86,0
0,63,88,1
0,42,40,1
0,63,66,4
0,55,63,3
0,58,66,0
0,58,93,1
0,58,102,1
0,40,118,4
0,42,60,3
0,54,70,0
0,55,100,3
0,58,95,0
0,63,92,1
0,55,102,8
0,39,97,4
0,35,117,4
0,58,69,3
0,42,40,0
0,55,58,1
0,63,68,0
0,39,113,29
0,35,127,1
0,42,60,0
0,55,45,4
0,63,58,0
0,58,61,3
0,58,116,1
0,55,30,9
0,42,40,13
0,55,75,3
0,63,80,0
0,58,76,1
0,40,118,17
0,42,60,3
0,54,73,1
0,55,84,3
0,58,84,0
0,63,86,0
0,60,89,7
0,41,96,5
0,42,40,4
0,55,44,4
0,58,60,0
0,63,54,3
0,53,96,1
0,31,111,4
0,35,127,4
0,42,60,3
0,53,69,1
0,59,74,0
0,55,76,3
0,62,65,1
0,42,40,4
0,62,71,4
0,53,55,3
0,55,60,0
0,59,74,0
0,53,93,4
0,53,89,1
0,40,118,8
0,55,84,3
0,42,60,0
0,53,82,1
0,59,82,0
0,62,79,3
0,54,73,1
0,34,96,65
0,35,117,4
0,42,40,0
0,53,64,4
0,59,74,0
0,55,66,3
0,55,93,1
0,62,58,0
0,36,112,1
0,35,127,4
0,42,60,3
0,55,51,1
0,48,116,4
0,55,76,112
0,60,84,3
0,63,74,0
0,42,40,1
0,55,84,103
0,60,92,1
0,63,86,0
0,40,118,4
0,42,60,0
0,54,73,0
0,55,102,73
0,34,96,4
0,60,74,0
0,55,64,3
0,63,75,0
0,42,40,1
0,31,112,20
0,53,63,4
0,59,79,0
0,35,127,1
0,42,60,3
0,55,70,1
0,62,76,0
0,53,107,4
0,62,80,4
0,42,40,4
0,53,66,3
0,59,70,0
0,55,68,1
0,53,93,3
0,55,89,65
0,53,102,3
0,53,82,0
0,59,95,0
0,62,97,0
0,40,118,4
0,42,60,0
0,54,71,1
0,31,96,5
0,62,70,0
0,35,117,4
0,59,68,3
0,42,40,0
0,53,41,1
0,55,47,0
0,55,93,4
0,36,113,21
0,35,127,4
0,48,102,3
0,42,60,0
0,55,76,1
0,60,84,0
0,63,73,3
0,42,40,116
0,55,77,3
0,63,77,1
0,60,74,3
0,54,71,1
0,55,95,3
0,60,97,0
0,63,97,0
0,40,118,1
0,42,60,0
0,43,97,52
0,55,66,4
0,60,77,0
0,63,75,0
0,42,40,1
0,35,127,17
0,42,60,0
0,36,111,3
0,60,82,1
0,63,77,0
0,55,73,3
0,60,107,1
0,42,40,61
0,63,63,4
0,55,53,3
0,60,59,0
0,60,93,1
0,55,84,93
0,63,86,0
0,60,84,3
0,40,118,1
0,42,60,0
0,54,73,3
0,36,96,81
0,60,69,0
0,55,55,3
0,63,58,0
0,35,117,1
0,62,107,3
0,42,40,0
0,36,113,48
0,55,64,1
0,60,76,0
0,63,69,3
0,35,127,1
0,62,99,3
0,42,60,0
0,60,101,5
0,55,65,8
0,42,40,4
0,60,68,3
0,63,61,0
0,60,95,7
0,40,118,17
0,42,60,0
0,54,73,4
0,55,89,3
0,60,97,0
0,63,95,1
0,38,96,12
0,62,83,1
0,42,40,0
0,55,55,3
0,60,69,1
0,63,56,0
0,62,107,4
0,58,80,3
0,39,111,1
0,35,127,4
0,42,60,3
0,55,64,1
0,58,76,0
0,63,58,3
0,60,107,1
0,55,80,3
0,58,88,0
0,63,82,1
0,39,103,35
0,42,40,5
0,63,66,3
0,58,66,1
0,55,63,3
0,58,93,1
0,58,102,33
0,40,118,4
0,42,60,3
0,55,100,1
0,54,73,0
0,58,95,3
0,63,92,1
0,55,102,5
0,39,97,3
0,35,117,5
0,42,40,0
0,58,69,3
0,55,58,1
0,63,68,0
0,39,113,1
0,35,127,4
0,42,60,3
0,55,45,1
0,63,58,0
0,58,61,3
0,58,116,1
0,42,40,32
0,55,75,3
0,58,76,0
0,63,80,0
0,40,118,9
0,42,60,0
0,54,71,1
0,55,84,3
0,58,84,1
0,63,86,0
0,60,89,13
0,41,96,4
0,42,40,4
0,55,44,4
0,58,60,0
0,63,54,3
0,53,96,1
0,43,111,4
0,35,127,4
0,42,60,0
0,53,69,4
0,55,76,3
0,59,74,0
0,62,65,0
0,43,103,16
0,42,40,1
0,62,71,4
0,53,55,3
0,59,74,0
0,55,60,1
0,53,93,3
0,53,89,4
0,54,73,3
0,33,108,1
0,40,118,4
0,55,84,3
0,42,60,0
0,53,82,1
0,59,82,0
0,62,79,0
0,35,96,16
0,35,117,5
0,42,40,3
0,53,64,1
0,59,74,0
0,55,66,3
0,62,58,1
0,55,93,3
0,36,112,1
0,35,127,4
0,42,60,0
0,55,51,4
0,48,116,3
0,55,76,113
0,60,84,0
0,63,74,3
0,42,40,1
0,55,84,103
0,60,92,1
0,63,86,0
0,40,118,4
0,42,60,3
0,54,73,0
0,55,102,73
0,43,96,4
0,55,64,3
0,60,74,0
0,63,75,0
0,42,40,1
0,43,111,12
0,53,63,4
0,59,79,0
0,35,127,1
0,42,60,3
0,55,70,1
0,62,76,0
0,53,107,4
0,41,107,3
0,62,80,4
0,53,66,1
0,42,40,0
0,55,68,3
0,59,70,0
0,53,93,5
0,39,107,12
0,55,89,1
0,62,97,0
0,53,102,3
0,53,82,0
0,59,95,0
0,40,118,1
0,42,60,3
0,54,71,0
0,38,96,5
0,62,70,0
0,35,117,4
0,59,68,3
0,42,40,0
0,53,41,1
0,55,47,0
0,55,93,4
0,36,113,20
0,35,127,4
0,48,102,3
0,42,60,0
0,55,76,1
0,60,84,3
0,63,73,1
0,42,40,116
0,55,77,4
0,63,77,0
0,60,74,3
0,63,97,1
0,55,95,3
0,60,97,0
0,40,118,1
0,42,60,3
0,54,74,1
0,43,97,53
0,55,66,0
0,60,77,3
0,63,75,0
0,40,115,1
0,40,93,24
0,35,127,17
0,48,111,3
0,42,60,0
0,55,75,1
0,60,73,0
0,64,77,3
0,60,107,1
0,55,90,3
0,60,98,0
0,64,90,1
0,42,40,61
0,55,65,4
0,64,69,0
0,60,63,3
0,60,107,1
0,55,98,3
0,60,88,0
0,64,86,1
0,40,118,85
0,42,60,3
0,54,74,1
0,55,86,3
0,64,92,0
0,60,84,0
0,43,96,57
0,57,92,0
0,35,117,4
0,62,95,3
0,42,40,0
0,65,92,1
0,64,73,3
0,55,71,1
0,60,69,0
0,62,107,3
0,40,111,12
0,35,127,5
0,42,60,3
0,55,73,1
0,60,70,0
0,64,70,3
0,62,102,1
0,64,90,3
0,67,95,0
0,60,86,1
0,43,107,8
0,42,40,5
0,55,68,3
0,64,65,1
0,60,65,3
0,48,111,11
0,40,118,5
0,42,60,3
0,55,82,1
0,54,72,0
0,64,79,3
0,60,82,1
0,65,83,53
0,69,88,0
0,60,82,3
0,42,40,1
0,55,66,4
0,60,60,3
0,64,64,0
0,65,107,1
0,46,111,4
0,35,127,5
0,42,60,0
0,58,76,3
0,53,75,1
0,62,79,3
0,64,107,1
0,60,83,0
0,64,85,3
0,67,92,0
0,62,61,45
0,42,40,0
0,58,63,3
0,53,50,1
0,62,96,4
0,58,77,3
0,62,90,0
0,65,92,0
0,53,80,45
0,40,118,4
0,42,60,0
0,58,92,3
0,62,92,0
0,62,102,1
0,54,73,3
0,62,83,1
0,58,83,0
0,65,86,1
0,46,98,45
0,53,50,0
0,58,65,3
0,35,117,1
0,62,55,3
0,42,40,0
0,60,93,1
0,65,88,3
0,57,86,1
0,60,90,0
0,38,110,13
0,62,107,0
0,35,127,4
0,42,60,0
0,53,68,3
0,58,61,1
0,62,73,0
0,58,95,4
0,62,90,0
0,65,88,3
0,39,103,25
0,42,40,4
0,53,64,3
0,58,64,1
0,62,69,0
0,41,109,9
0,40,118,4
0,42,60,0
0,54,73,4
0,53,84,3
0,58,84,0
0,62,95,1
0,34,97,12
0,42,40,5
0,60,93,3
0,58,64,1
0,62,71,0
0,53,59,3
0,41,111,12
0,53,75,1
0,35,127,4
0,65,107,3
0,42,60,0
0,57,76,1
0,60,75,3
0,65,95,1
0,60,90,3
0,69,95,0
0,42,40,52
0,53,55,4
0,57,65,0
0,60,56,3
0,65,84,1
0,65,92,3
0,69,90,0
0,60,88,1
0,40,118,113
0,42,60,3
0,53,80,1
0,54,73,0
0,57,86,3
0,60,80,1
0,62,64,0
0,62,86,29
0,67,95,0
0,70,82,3
0,41,97,1
0,35,117,4
0,42,40,0
0,53,68,4
0,60,73,0
0,57,74,3
0,67,107,1
0,45,110,57
0,35,127,1
0,69,98,3
0,42,60,0
0,65,92,1
0,72,101,0
0,53,68,3
0,57,74,1
0,60,75,0
0,67,107,3
0,42,40,56
0,53,63,4
0,57,71,0
0,60,69,3
0,48,111,9
0,40,118,4
0,42,60,3
0,54,73,1
0,53,89,3
0,57,95,1
0,60,92,0
0,53,98,0
0,42,40,4
0,60,92,3
0,65,90,0
0,53,60,1
0,57,95,0
0,57,68,3
0,60,102,1
0,60,38,0
0,41,111,5
0,53,89,0
0,57,88,3
0,60,95,0
0,65,90,0
0,35,127,1
0,42,63,3
0,57,92,1
0,60,97,0
0,60,107,4
0,60,87,52
0,60,87,3
0,65,80,0
0,53,49,1
0,57,77,0
0,57,59,0
0,42,36,1
0,60,33,3
0,62,107,9
0,59,95,68
0,62,92,0
0,67,101,0
0,31,111,4
0,59,95,0
0,40,118,4
0,55,86,3
0,42,63,0
0,62,97,1
0,54,73,0
0,59,87,41
0,62,85,3
0,67,90,0
0,55,71,1
0,59,66,0
0,62,63,3
0,62,102,1
0,36,111,48
0,35,127,5
0,42,63,0
0,55,76,4
0,60,79,0
0,64,92,0
0,55,87,4
0,60,92,0
0,62,107,3
0,64,86,0
0,55,61,73
0,60,70,0
0,64,69,3
0,48,111,97
0,40,125,4
0,49,55,3
0,54,73,1
0,55,89,3
0,60,86,0
0,64,92,0
0,43,97,13
0,35,107,4
0,55,40,4
0,60,47,0
0,64,41,3
0,60,107,25
0,35,127,8
0,48,111,3
0,42,60,0
0,64,75,1
0,55,73,3
0,60,63,1
0,55,82,0
0,60,107,3
0,60,90,1
0,64,90,0
0,42,40,61
0,55,54,4
0,64,48,0
0,60,56,3
0,55,92,1
0,64,87,0
0,60,107,3
0,60,98,0
0,40,118,9
0,55,84,3
0,42,60,0
0,60,86,1
0,54,73,3
0,64,86,1
0,57,88,61
0,65,95,0
0,62,82,3
0,43,96,1
0,35,117,4
0,42,40,0
0,55,65,4
0,60,60,3
0,64,56,0
0,62,99,1
0,40,111,17
0,35,127,4
0,42,60,3
0,55,63,1
0,60,65,0
0,64,64,3
0,62,107,1
0,64,92,3
0,67,90,0
0,60,77,1
0,62,70,0
0,43,107,33
0,64,64,3
0,42,40,1
0,55,55,3
0,60,61,0
0,54,73,21
0,48,111,3
0,55,89,0
0,60,86,0
0,64,86,0
0,40,118,1
0,42,60,3
0,60,87,57
0,69,90,0
0,65,85,3
0,42,40,5
0,55,68,4
0,60,64,0
0,64,66,3
0,65,99,1
0,46,111,21
0,35,127,4
0,42,60,3
0,53,74,1
0,58,76,0
0,62,75,3
0,64,102,1
0,60,98,3
0,64,90,0
0,67,101,1
0,42,40,41
0,58,61,4
0,62,65,0
0,53,55,3
0,62,82,1
0,62,87,21
0,65,92,0
0,58,69,3
0,40,118,9
0,42,60,3
0,54,74,1
0,53,84,3
0,58,86,0
0,62,92,0
0,62,102,3
0,62,103,1
0,58,101,3
0,65,98,0
0,46,98,9
0,35,117,4
0,42,40,3
0,53,63,1
0,58,73,0
0,62,63,3
0,60,91,1
0,57,80,3
0,60,86,0
0,65,95,1
0,38,110,12
0,35,127,5
0,53,74,3
0,42,60,0
0,58,73,1
0,62,76,0
0,62,107,4
0,58,92,3
0,62,95,0
0,65,83,1
0,39,103,24
0,62,54,1
0,53,53,3
0,58,61,0
0,42,40,1
0,41,109,8
0,40,118,5
0,42,60,3
0,54,73,1
0,53,84,3
0,58,80,0
0,62,92,1
0,34,97,12
0,42,40,5
0,58,70,3
0,53,60,1
0,62,59,0
0,65,122,9
0,41,111,3
0,35,127,5
0,42,60,0
0,53,74,3
0,57,77,1
0,60,75,0
0,65,88,4
0,69,98,0
0,60,88,3
0,65,102,53
0,42,40,8
0,53,64,4
0,60,65,0
0,57,60,3
0,60,87,1
0,69,87,0
0,65,85,3
0,40,118,101
0,42,60,0
0,54,74,3
0,53,84,1
0,57,95,3
0,60,86,0
0,62,86,56
0,67,95,0
0,70,86,3
0,41,97,1
0,35,117,4
0,42,40,3
0,53,56,1
0,57,60,0
0,60,54,3
0,67,107,1
0,72,95,56
0,65,86,1
0,69,90,0
0,45,110,4
0,35,127,1
0,42,60,3
0,53,64,1
0,60,68,0
0,57,68,3
0,67,99,1
0,42,40,57
0,53,63,4
0,60,59,0
0,57,65,3
0,48,111,1
0,40,118,4
0,42,60,0
0,54,73,4
0,53,86,3
0,57,86,0
0,60,81,1
0,65,88,64
0,57,79,3
0,60,85,0
0,53,98,1
0,60,102,0
0,42,40,1
0,60,73,3
0,53,58,1
0,57,63,0
0,57,88,1
0,65,92,0
0,60,92,3
0,41,111,1
0,35,127,4
0,42,63,3
0,53,81,1
0,57,92,0
0,60,82,3
0,60,107,1
0,57,77,53
0,60,85,3
0,65,82,0
0,42,37,1
0,57,71,3
0,53,66,1
0,60,65,0
0,60,87,4
0,59,92,61
0,67,109,0
0,31,111,4
0,55,84,0
0,59,82,3
0,62,92,0
0,62,85,0
0,35,127,1
0,40,118,0
0,42,63,3
0,62,107,1
0,54,71,0
0,59,83,1
0,67,82,0
0,62,82,3
0,59,65,4
0,55,54,1
0,62,44,0
0,59,102,4
0,36,111,49
0,35,127,4
0,55,92,3
0,42,63,0
0,60,82,1
0,64,79,0
0,60,113,4
0,55,103,3
0,60,95,0
0,64,92,1
0,60,53,72
0,55,36,1
0,64,35,3
0,48,111,9
0,54,73,0
0,55,86,3
0,40,125,1
0,64,92,3
0,49,55,0
0,60,81,1
0,43,97,12
0,55,80,9
0,60,69,3
0,64,80,0
0,35,127,33
0,42,60,0
0,36,111,3
0,63,77,1
0,55,73,3
0,60,82,0
0,60,107,1
0,42,40,61
0,60,59,4
0,63,63,0
0,55,53,3
0,60,93,1
0,55,84,93
0,63,86,0
0,60,84,0
0,40,118,1
0,42,60,0
0,54,74,3
0,36,96,8
0,60,69,0
0,55,55,3
0,63,58,0
0,35,117,1
0,62,107,3
0,42,40,0
0,36,113,3
0,55,64,1
0,60,76,0
0,63,69,3
0,35,127,1
0,62,99,3
