track,note,velocity,time
0,42,54,240
0,42,0,5
0,42,30,39
0,42,0,6
0,42,56,43
0,40,106,0
0,40,0,6
0,42,0,0
0,42,46,43
0,40,108,2
0,42,0,4
0,40,0,2
0,42,44,41
0,42,0,6
0,42,48,42
0,42,0,6
0,42,56,43
0,40,108,0
0,40,0,6
0,42,0,0
0,42,54,42
0,42,0,6
0,42,54,43
0,63,127,2
0,42,0,1
0,42,56,1
0,42,0,3
0,63,0,2
0,64,127,0
0,69,127,0
0,40,97,35
0,42,62,4
0,40,0,2
0,42,0,4
0,40,110,40
0,42,56,3
0,40,0,3
0,42,0,3
0,64,0,28
0,69,0,1
0,42,56,2
0,63,127,3
0,42,0,1
0,42,58,3
0,42,0,1
0,63,0,5
0,60,127,0
0,57,118,0
0,40,106,1
0,42,58,1
0,40,0,5
0,42,0,1
0,60,0,10
0,42,62,15
0,57,0,1
0,60,115,0
0,42,0,1
0,60,0,1
0,42,62,14
0,63,127,1
0,42,0,5
0,42,58,2
0,42,0,6
0,63,0,4
0,64,127,0
0,69,127,0
0,40,93,30
0,42,62,3
0,40,0,3
0,42,0,3
0,40,109,39
0,42,56,2
0,40,0,4
0,42,0,2
0,64,0,29
0,42,56,3
0,69,0,1
0,63,127,0
0,42,0,2
0,42,58,2
0,42,0,4
0,63,0,3
0,60,127,1
0,42,62,6
0,40,106,0
0,57,123,0
0,40,0,3
0,42,0,0
0,60,0,17
0,57,0,1
0,42,60,0
0,42,0,6
0,57,72,40
0,45,87,2
0,45,97,0
0,45,87,0
0,42,56,0
0,35,105,0
0,52,76,0
0,52,76,0
0,61,89,3
0,35,0,2
0,42,0,0
0,64,106,2
0,69,87,5
0,52,0,28
0,52,0,0
0,42,58,6
0,52,102,1
0,52,102,0
0,45,0,1
0,45,0,0
0,45,83,1
0,45,83,0
0,42,0,3
0,45,0,18
0,45,0,21
0,45,0,0
0,42,58,3
0,45,76,1
0,45,86,0
0,45,76,0
0,40,101,0
0,52,0,2
0,52,0,0
0,61,0,1
0,52,82,0
0,52,82,0
0,61,75,1
0,42,0,1
0,40,0,1
0,64,0,0
0,64,111,2
0,69,0,1
0,69,113,2
0,52,0,31
0,52,0,0
0,42,56,5
0,52,98,2
0,52,98,0
0,40,107,0
0,45,0,1
0,45,0,0
0,45,80,1
0,45,80,0
0,42,0,2
0,40,0,2
0,45,0,19
0,42,58,21
0,45,90,1
0,52,0,1
0,52,0,0
0,35,103,0
0,52,86,2
0,52,86,0
0,42,0,2
0,35,0,2
0,52,0,38
0,52,0,0
0,42,62,2
0,69,0,1
0,52,92,2
0,52,92,0
0,42,0,3
0,69,84,3
0,45,0,12
0,61,0,28
0,45,91,0
0,42,62,0
0,45,0,1
0,45,0,0
0,52,0,1
0,52,0,0
0,40,106,0
0,45,68,1
0,52,79,0
0,45,68,0
0,52,79,0
0,61,71,0
0,64,0,2
0,42,0,1
0,64,102,0
0,40,0,2
0,69,0,1
0,69,107,2
0,52,0,31
0,52,0,0
0,42,62,6
0,69,0,3
0,52,86,0
0,52,86,0
0,42,0,3
0,69,85,5
0,45,0,13
0,45,0,22
0,45,0,0
0,42,54,1
0,52,0,1
0,52,0,0
0,45,89,0
0,61,0,1
0,45,82,0
0,45,82,0
0,35,113,0
0,61,75,1
0,52,92,1
0,52,92,0
0,64,0,1
0,42,0,1
0,64,107,1
0,35,0,1
0,69,0,0
0,69,109,2
0,52,0,34
0,52,0,0
0,69,0,4
0,42,60,0
0,52,97,2
0,52,97,0
0,45,0,1
0,45,0,0
0,45,84,1
0,45,84,0
0,42,0,2
0,64,0,1
0,64,75,1
0,61,0,2
0,69,82,0
0,45,0,9
0,45,0,28
0,45,0,0
0,45,92,2
0,42,62,0
0,40,98,0
0,52,0,2
0,52,0,0
0,45,94,0
0,45,94,0
0,64,0,1
0,52,96,0
0,52,96,0
0,64,109,2
0,40,0,1
0,69,0,0
0,42,0,0
0,69,113,2
0,61,78,1
0,52,0,31
0,52,0,0
0,42,60,8
0,52,101,2
0,52,101,0
0,69,0,1
0,40,108,0
0,69,106,2
0,42,0,1
0,40,0,3
0,45,0,10
0,45,0,28
0,45,0,0
0,45,89,1
0,42,56,0
0,52,0,1
0,52,0,0
0,45,91,0
0,45,91,0
0,35,103,1
0,52,93,1
0,52,93,0
0,42,0,3
0,35,0,2
0,52,0,33
0,52,0,0
0,42,56,6
0,52,88,2
0,52,88,0
0,42,0,4
0,69,0,0
0,69,111,1
0,64,0,2
0,64,101,2
0,61,0,2
0,61,82,1
0,45,0,2
0,45,0,27
0,45,0,0
0,57,0,3
0,45,91,3
0,45,91,0
0,45,91,0
0,57,66,0
0,42,62,0
0,61,0,1
0,52,0,0
0,52,0,0
0,40,109,0
0,52,90,1
0,52,90,0
0,61,92,1
0,64,0,1
0,42,0,2
0,64,113,0
0,40,0,1
0,69,0,0
0,69,113,2
0,52,0,30
0,52,0,0
0,52,98,9
0,52,98,0
0,45,0,1
0,45,0,0
0,42,62,0
0,45,84,1
0,45,84,0
0,69,0,3
0,69,100,1
0,42,0,1
0,45,0,3
0,45,0,33
0,45,0,0
0,57,0,1
0,57,69,2
0,52,0,2
0,52,0,0
0,45,92,0
0,61,0,1
0,52,92,0
0,45,91,0
0,45,107,0
0,52,91,0
0,42,60,0
0,64,116,1
0,35,107,0
0,61,88,0
0,64,0,2
0,64,111,1
0,42,0,1
0,69,0,0
0,35,0,1
0,69,104,1
0,52,0,32
0,52,0,0
0,52,96,7
0,52,95,1
0,42,64,1
0,42,0,6
0,45,0,3
0,45,0,35
0,45,0,1
0,52,0,1
0,45,88,0
0,45,90,0
0,40,94,0
0,52,0,1
0,45,95,0
0,52,81,1
0,52,88,0
0,42,68,0
0,64,0,2
0,40,0,2
0,64,107,0
0,69,0,1
0,42,0,1
0,69,113,1
0,52,0,30
0,52,0,5
0,52,89,4
0,52,99,1
0,40,108,0
0,45,0,1
0,42,64,0
0,45,86,1
0,40,0,4
0,42,0,1
0,69,0,0
0,69,97,2
0,64,0,3
0,64,88,1
0,45,0,3
0,45,0,27
0,45,0,1
0,52,0,2
0,45,93,1
0,45,89,0
0,52,0,1
0,45,80,0
0,52,91,1
0,42,60,0
0,35,107,0
0,52,87,1
0,61,0,1
0,64,0,0
0,61,108,0
0,35,0,4
0,42,0,0
0,64,0,3
0,64,93,2
0,69,0,2
0,69,91,2
0,52,0,22
0,61,0,1
0,52,0,1
0,45,0,7
0,52,96,0
0,52,86,0
0,45,0,1
0,45,74,1
0,45,70,0
0,61,106,0
0,42,64,0
0,69,0,4
0,69,96,1
0,42,0,1
0,45,0,2
0,45,0,33
0,45,0,1
0,61,0,2
0,52,0,0
0,45,88,1
0,45,81,0
0,52,0,2
0,45,86,0
0,52,96,0
0,52,83,1
0,42,58,0
0,40,105,0
0,64,0,2
0,62,103,0
0,64,95,2
0,69,0,1
0,42,0,1
0,40,0,0
0,69,111,1
0,52,0,30
0,52,0,3
0,62,0,1
0,52,88,5
0,45,0,1
0,52,98,0
0,45,84,1
0,64,111,0
0,42,62,0
0,69,0,4
0,42,0,2
0,69,102,0
0,45,0,6
0,61,60,6
0,64,0,23
0,45,0,1
0,45,85,2
0,45,0,1
0,52,0,0
0,45,91,1
0,45,92,0
0,61,0,1
0,52,0,0
0,42,60,0
0,35,107,0
0,52,85,1
0,52,90,1
0,73,111,0
0,64,0,3
0,61,78,0
0,35,0,1
0,42,0,0
0,64,107,1
0,69,0,2
0,69,102,1
0,52,0,26
0,52,0,1
0,52,98,11
0,52,98,0
0,42,52,0
0,45,0,1
0,45,0,0
0,45,78,1
0,45,88,0
0,42,0,4
0,45,0,6
0,73,0,21
0,45,0,10
0,45,0,1
0,45,85,1
0,73,112,0
0,40,100,1
0,52,0,2
0,45,89,0
0,45,97,0
0,42,64,0
0,61,0,1
0,52,0,0
0,52,87,1
0,52,88,0
0,64,0,1
0,61,79,0
0,40,0,1
0,64,114,1
0,42,0,1
0,69,0,0
0,69,115,2
0,52,0,28
0,52,0,1
0,42,54,10
0,40,110,0
0,52,99,1
0,45,0,1
0,45,0,0
0,52,93,0
0,45,81,1
0,45,63,0
0,69,0,3
0,42,0,0
0,40,0,0
0,69,101,2
0,45,0,5
0,73,0,19
0,45,0,11
0,45,0,1
0,52,0,3
0,45,89,0
0,45,73,1
0,42,60,0
0,52,0,1
0,45,81,0
0,52,91,1
0,69,115,0
0,35,111,0
0,52,83,1
0,42,0,3
0,35,0,2
0,52,0,27
0,52,0,4
0,69,0,9
0,52,93,0
0,42,58,0
0,45,0,1
0,52,99,0
0,45,0,1
0,45,76,0
0,45,85,1
0,42,0,3
0,64,0,0
0,45,0,2
0,64,106,0
0,69,104,2
0,61,0,1
0,61,70,2
0,45,0,31
0,45,0,0
0,45,89,4
0,45,91,0
0,42,62,0
0,52,0,1
0,52,0,0
0,69,0,0
0,45,98,0
0,40,108,0
0,52,78,1
0,64,0,1
0,52,97,0
0,64,108,2
0,42,0,1
0,69,0,0
0,40,0,1
0,69,114,1
0,52,0,28
0,52,0,3
0,57,0,1
0,61,0,6
0,52,101,2
0,42,58,0
0,69,0,1
0,45,0,0
0,64,0,0
0,52,101,0
0,45,70,1
0,42,0,4
0,45,0,9
0,45,0,6
0,45,0,0
0,52,0,0
0,52,0,1
0,50,102,26
0,38,88,0
0,50,102,0
0,42,58,0
0,35,105,1
0,69,115,1
0,57,75,1
0,57,79,1
0,42,0,2
0,62,97,0
0,35,0,1
0,66,111,3
0,57,0,25
0,57,0,2
0,69,0,6
0,57,85,5
0,42,60,0
0,50,0,1
0,57,83,0
0,69,107,0
0,50,75,1
0,50,0,2
0,42,0,2
0,38,0,17
0,50,0,17
0,40,105,6
0,62,0,2
0,57,0,0
0,50,89,0
0,50,92,0
0,57,0,1
0,57,79,0
0,38,90,0
0,42,64,0
0,57,89,1
0,69,0,1
0,40,0,1
0,69,113,0
0,62,84,1
0,66,0,1
0,42,0,1
0,66,111,1
0,69,115,3
0,57,0,27
0,69,0,5
0,57,0,1
0,57,89,3
0,50,0,1
0,50,0,0
0,57,94,0
0,50,83,1
0,50,81,0
0,42,50,0
0,40,110,0
0,69,107,2
0,69,0,1
0,69,109,2
0,40,0,1
0,42,0,0
0,66,0,1
0,66,103,2
0,38,0,7
0,50,0,23
0,50,0,0
0,69,0,4
0,50,88,3
0,50,98,0
0,57,0,1
0,38,89,0
0,57,0,1
0,57,91,0
0,42,56,0
0,57,77,1
0,35,103,0
0,71,114,1
0,42,0,4
0,35,0,1
0,57,0,28
0,57,0,5
0,69,0,6
0,57,98,0
0,57,95,1
0,42,56,1
0,50,0,2
0,69,101,1
0,42,0,3
0,66,0,0
0,50,73,1
0,66,95,0
0,38,0,1
0,62,0,3
0,62,66,1
0,50,0,18
0,71,0,0
0,50,0,10
0,57,0,5
0,50,99,0
0,62,0,1
0,57,0,0
0,38,83,0
0,57,48,0
0,57,95,1
0,69,115,0
0,50,83,1
0,57,88,0
0,42,56,0
0,62,88,2
0,40,108,0
0,66,0,1
0,66,110,2
0,42,0,1
0,69,0,0
0,40,0,2
0,69,113,0
0,69,0,27
0,66,0,1
0,62,0,3
0,57,0,0
0,57,0,3
0,57,92,5
0,57,99,0
0,42,50,0
0,50,0,1
0,57,0,0
0,50,76,1
0,42,0,4
0,64,84,0
0,59,51,4
0,38,0,5
0,57,0,6
0,50,0,0
0,50,0,1
0,57,0,2
0,69,0,4
0,64,0,3
0,59,0,3
0,45,100,13
0,45,91,1
0,45,103,1
0,52,101,0
0,66,113,0
0,42,56,0
0,52,76,1
0,35,109,0
0,42,0,5
0,35,0,1
0,64,112,0
0,69,112,2
0,52,0,27
0,52,0,3
0,66,0,3
0,52,101,5
0,52,99,0
0,45,0,1
0,42,56,0
0,45,85,1
0,69,112,0
0,69,0,1
0,42,0,4
0,69,101,0
0,45,0,3
0,45,0,31
0,52,0,4
0,45,0,1
0,52,0,1
0,45,88,0
0,45,84,0
0,45,82,1
0,40,97,0
0,52,91,1
0,52,95,0
0,61,65,0
0,42,52,0
0,64,0,2
0,64,102,2
0,69,0,1
0,40,0,0
0,42,0,1
0,69,109,1
0,52,0,30
0,52,0,1
0,69,0,0
0,45,0,9
0,52,100,0
0,40,107,0
0,52,103,1
0,45,78,0
0,64,113,0
0,42,42,0
0,69,0,2
0,45,0,0
0,45,82,1
0,40,0,2
0,69,115,0
0,42,0,1
0,64,0,2
0,64,101,1
0,61,0,1
0,61,78,2
0,45,0,2
0,45,0,24
0,45,0,4
0,52,0,3
0,52,0,0
0,45,86,1
0,45,88,1
0,45,79,0
0,42,60,0
0,52,90,1
0,35,109,0
0,52,89,1
0,42,0,4
0,35,0,1
0,52,0,30
0,52,0,1
0,52,101,9
0,45,0,1
0,45,0,0
0,52,94,0
0,42,50,0
0,45,68,1
0,45,82,0
0,69,0,3
0,42,0,2
0,69,110,3
0,45,0,2
0,64,0,0
0,64,100,3
0,57,26,3
0,64,0,11
0,45,0,14
0,45,0,0
0,52,0,5
0,45,97,0
0,42,50,0
0,52,0,1
0,45,89,0
0,45,97,1
0,52,88,0
0,52,86,0
0,40,108,0
0,61,0,1
0,61,77,2
0,42,0,1
0,64,0,1
0,40,0,1
0,64,115,0
0,69,0,2
0,69,115,1
0,52,0,26
0,52,0,3
0,52,96,8
0,42,60,0
0,52,97,2
0,42,0,4
0,69,0,3
0,69,107,2
0,64,0,1
0,45,0,2
0,64,104,0
0,45,0,31
0,45,0,1
0,52,0,2
0,52,0,0
0,45,85,0
0,45,91,1
0,45,89,0
0,52,95,0
0,64,113,0
0,42,58,0
0,61,0,1
0,35,109,0
0,52,95,1
0,61,82,1
0,64,0,2
0,42,0,1
0,35,0,1
0,64,113,0
0,69,0,2
0,69,113,1
0,52,0,29
0,52,0,0
0,52,99,8
0,45,0,1
0,45,0,1
0,52,98,0
0,45,73,0
0,42,58,0
0,45,0,2
0,45,65,1
0,42,0,3
0,45,0,33
0,45,0,1
0,64,0,5
0,45,97,0
0,52,0,1
0,45,83,0
0,52,0,1
0,61,0,0
0,45,88,0
0,52,99,0
0,40,103,0
0,42,52,1
0,52,86,1
0,61,88,0
0,64,114,1
0,64,0,1
0,40,0,2
0,69,0,0
0,64,111,0
0,42,0,1
0,69,113,1
0,52,0,30
0,52,0,0
0,52,99,9
0,45,0,1
0,52,98,0
0,45,77,1
0,42,56,0
0,40,108,0
0,45,0,1
0,45,76,1
0,42,0,4
0,40,0,0
0,45,0,15
0,64,0,16
0,45,0,4
0,45,0,0
0,52,0,5
0,52,0,0
0,45,96,0
0,45,97,0
0,45,89,1
0,52,83,1
0,42,60,0
0,35,105,0
0,52,82,1
0,61,111,1
0,35,0,4
0,42,0,0
0,69,0,7
0,69,98,1
0,52,0,22
0,52,0,1
0,61,0,6
0,45,0,3
0,52,99,1
0,45,85,0
0,52,98,1
0,45,0,1
0,42,52,0
0,45,78,1
0,61,100,2
0,69,0,2
0,42,0,1
0,45,0,2
0,64,0,3
0,69,104,2
0,64,91,1
0,61,0,1
0,61,76,2
0,45,0,22
0,45,0,0
0,61,0,2
0,52,0,1
0,45,79,2
0,52,0,1
0,57,0,1
0,45,88,0
0,45,91,0
0,52,88,0
0,42,54,1
0,40,106,0
0,57,70,1
0,52,83,1
0,62,99,1
0,61,0,1
0,64,0,1
0,61,92,0
0,40,0,1
0,42,0,0
0,64,111,2
0,69,0,1
0,69,115,1
0,52,0,28
0,62,0,2
0,52,0,0
0,45,0,7
0,52,92,0
0,52,99,1
0,45,72,0
0,42,60,0
0,45,0,1
0,64,111,0
0,45,68,1
0,45,0,2
0,69,0,0
0,42,0,2
0,69,102,0
0,64,0,31
0,45,0,2
0,45,0,2
0,52,0,4
0,45,91,1
0,52,0,1
0,45,85,0
0,45,90,0
0,52,83,1
0,42,54,0
0,61,0,1
0,52,86,0
0,73,111,1
0,61,101,0
0,35,99,0
0,64,0,2
0,64,113,1
0,42,0,1
0,69,0,0
