track,note,velocity,time
1,20,126,1536
1,17,124,134
1,13,117,118
1,15,109,162
1,32,113,90
1,32,109,126
1,29,100,86
1,29,107,126
1,25,109,126
1,25,106,106
1,27,106,110
1,27,109,122
1,32,117,182
1,32,113,64
1,29,107,48
1,29,100,64
1,22,94,66
1,22,98,74
1,27,113,28
1,31,116,56
1,32,106,76
1,32,113,72
1,29,95,70
1,29,96,104
1,22,103,36
1,22,98,64
1,27,106,26
1,31,109,88
1,32,103,88
1,32,109,80
1,29,99,92
1,29,93,86
1,25,101,80
1,25,103,86
1,27,98,78
1,27,86,96
1,32,109,102
1,29,116,136
1,22,126,100
1,27,106,40
1,32,117,170
1,32,113,64
1,29,107,48
1,29,100,64
1,22,94,66
1,22,98,74
1,27,113,28
1,31,116,56
1,32,106,76
1,32,113,72
1,29,95,70
1,29,96,104
1,22,103,36
1,22,98,64
1,27,106,26
1,31,109,88
1,32,103,88
1,32,109,80
1,29,99,92
1,29,93,86
1,25,101,80
1,25,103,86
1,27,98,78
1,27,86,96
1,32,109,102
1,29,116,136
1,22,127,100
1,27,127,134
1,32,127,160
1,32,117,236
1,32,113,64
1,29,107,48
1,29,100,64
1,22,94,66
1,22,98,74
1,27,113,28
1,31,116,56
1,32,106,76
1,32,113,72
1,29,95,70
1,29,96,104
1,22,103,36
1,22,98,64
1,27,106,26
1,31,109,88
1,32,117,88
1,32,113,64
1,29,107,48
1,29,100,64
1,22,94,66
1,22,98,74
1,27,113,28
1,31,116,56
1,32,106,76
1,32,113,72
1,29,95,70
1,29,96,104
1,22,103,36
1,22,98,64
1,27,106,26
1,31,109,88
1,32,117,88
1,32,113,64
1,29,107,48
1,29,100,64
1,22,94,66
1,22,98,74
1,27,113,28
1,31,116,56
1,20,126,76
1,17,124,134
1,13,117,118
1,15,109,162
1,33,113,90
1,33,109,126
1,30,100,86
1,30,107,126
1,26,109,126
1,26,106,106
1,28,106,110
1,28,109,122
1,33,117,182
1,33,113,64
1,30,107,48
1,30,100,64
1,23,94,66
1,23,98,74
1,28,113,28
1,32,116,56
1,33,106,76
1,33,113,72
1,30,95,70
1,30,96,104
1,23,103,36
1,23,98,64
1,28,106,26
1,32,109,88
1,33,103,88
1,33,109,80
1,30,99,92
1,30,93,86
1,26,101,80
1,26,103,86
1,28,98,78
1,28,86,96
1,33,109,102
1,30,116,136
1,23,126,100
1,28,106,40
1,33,117,170
1,33,113,64
1,30,107,48
1,30,100,64
1,23,94,66
1,23,98,74
1,28,113,28
1,32,116,56
1,33,106,76
1,33,113,72
1,30,95,70
1,30,96,104
1,23,103,36
1,23,98,64
1,28,106,26
1,32,109,88
1,33,103,88
1,33,109,80
1,30,99,92
1,30,93,86
1,26,101,80
1,26,103,86
1,28,98,78
1,28,86,96
1,33,109,102
1,30,116,136
1,23,127,100
1,28,127,134
1,33,127,160
1,33,117,236
1,33,113,64
1,30,107,48
1,30,100,64
1,23,94,66
1,23,98,74
1,28,113,28
1,32,116,56
1,33,106,76
1,33,113,72
1,30,95,70
1,30,96,104
1,23,103,36
1,23,98,64
1,28,106,26
1,32,109,88
1,33,117,88
1,33,113,64
1,30,107,48
1,30,100,64
1,23,94,66
1,23,98,74
1,28,113,28
1,32,116,56
1,33,106,76
1,33,113,72
1,30,95,70
1,30,96,104
1,23,103,36
1,23,98,64
1,28,106,26
1,32,109,88
1,21,127,88
2,63,93,1536
2,56,95,0
2,60,104,0
2,44,104,0
2,60,97,96
2,53,97,0
2,56,109,0
2,56,87,62
2,68,88,0
2,49,91,0
2,65,95,0
2,61,87,0
2,70,87,80
2,58,74,0
2,63,81,0
2,67,80,0
2,51,81,0
2,44,93,86
2,63,88,0
2,56,87,0
2,60,97,0
2,44,85,256
2,60,90,0
2,56,83,0
2,63,83,0
2,60,87,216
2,53,87,0
2,56,97,0
2,56,91,226
2,60,85,0
2,53,84,0
2,56,76,240
2,49,83,0
2,68,79,0
2,65,88,0
2,61,80,0
2,68,84,214
2,65,91,0
2,61,83,0
2,56,78,0
2,49,80,0
2,58,78,238
2,70,79,0
2,51,85,0
2,63,78,0
2,67,82,0
2,58,72,200
2,51,84,0
2,67,84,0
2,63,84,0
2,70,85,0
2,60,90,240
2,56,83,0
2,63,83,0
2,63,87,186
2,60,95,0
2,56,87,0
2,60,87,196
2,53,87,0
2,56,97,0
2,56,95,200
2,53,84,0
2,60,85,0
2,49,79,220
2,68,79,0
2,61,77,0
2,65,88,0
2,65,90,202
2,61,80,0
2,68,83,0
2,49,78,0
2,51,84,214
2,58,76,0
2,70,85,0
2,63,81,0
2,67,78,0
2,51,88,198
2,63,85,0
2,67,82,0
2,70,87,0
2,58,78,0
2,56,83,270
2,60,90,0
2,63,81,0
2,60,93,258
2,56,85,0
2,63,83,0
2,53,77,240
2,56,88,0
2,60,81,0
2,53,81,242
2,56,91,0
2,60,85,0
2,49,75,256
2,56,73,0
2,61,76,0
2,65,85,0
2,56,79,200
2,61,83,0
2,65,91,0
2,49,80,0
2,70,81,240
2,58,70,0
2,51,83,0
2,63,77,0
2,67,82,0
2,58,74,184
2,51,81,0
2,63,83,0
2,70,85,0
2,67,82,0
2,56,85,214
2,60,90,0
2,63,77,0
2,56,87,220
2,60,95,0
2,63,84,0
2,56,93,224
2,53,84,0
2,60,83,0
2,53,81,224
2,56,90,0
2,60,83,0
2,56,78,238
2,49,84,0
2,65,88,0
2,61,81,0
2,61,83,204
2,65,90,0
2,56,78,0
2,49,80,0
2,51,85,184
2,63,74,0
2,58,71,0
2,70,77,0
2,67,78,0
2,51,78,186
2,58,77,0
2,67,76,0
2,63,78,0
2,70,81,0
2,63,88,230
2,60,93,0
2,56,91,0
2,60,93,220
2,53,90,0
2,56,99,0
2,68,87,206
2,65,95,0
2,61,88,0
2,56,85,0
2,49,83,0
2,51,85,162
2,58,80,0
2,67,84,0
2,63,83,0
2,70,90,0
2,60,90,202
2,56,83,0
2,63,83,0
2,63,87,186
2,60,95,0
2,56,87,0
2,60,87,196
2,53,87,0
2,56,97,0
2,56,95,200
2,53,84,0
2,60,85,0
2,49,79,220
2,68,79,0
2,61,77,0
2,65,88,0
2,65,90,202
2,61,80,0
2,68,83,0
2,49,78,0
2,51,84,214
2,58,76,0
2,70,85,0
2,63,81,0
2,67,78,0
2,51,88,198
2,63,85,0
2,67,82,0
2,70,87,0
2,58,78,0
2,56,83,270
2,60,90,0
2,63,81,0
2,60,93,258
2,56,85,0
2,63,83,0
2,53,77,240
2,56,88,0
2,60,81,0
2,53,81,242
2,56,91,0
2,60,85,0
2,49,75,256
2,56,73,0
2,61,76,0
2,65,85,0
2,56,79,200
2,61,83,0
2,65,91,0
2,49,80,0
2,70,81,240
2,58,70,0
2,51,83,0
2,63,77,0
2,67,82,0
2,58,74,184
2,51,81,0
2,63,83,0
2,70,85,0
2,67,82,0
2,56,85,214
2,60,90,0
2,63,77,0
2,56,87,220
2,60,95,0
2,63,84,0
2,56,93,224
2,53,84,0
2,60,83,0
2,53,81,224
2,56,90,0
2,60,83,0
2,56,78,238
2,49,84,0
2,65,88,0
2,61,81,0
2,61,83,204
2,65,90,0
2,56,78,0
2,49,80,0
2,51,85,184
2,63,74,0
2,58,71,0
2,70,77,0
2,67,78,0
2,51,78,186
2,58,77,0
2,67,76,0
2,63,78,0
2,70,81,0
2,63,88,230
2,60,93,0
2,56,91,0
2,60,93,220
2,53,90,0
2,56,99,0
2,58,87,206
2,61,95,0
2,65,84,0
2,46,102,0
2,55,84,238
2,63,87,0
2,58,95,0
2,44,97,256
2,56,87,0
2,60,99,0
2,63,87,0
2,60,90,198
2,56,83,0
2,63,83,0
2,63,87,186
2,60,95,0
2,56,87,0
2,60,87,196
2,53,87,0
2,56,97,0
2,56,95,200
2,53,84,0
2,60,85,0
2,49,79,220
2,68,79,0
2,61,77,0
2,65,88,0
2,65,90,202
2,61,80,0
2,68,83,0
2,49,78,0
2,51,84,214
2,58,76,0
2,70,85,0
2,63,81,0
2,67,78,0
2,51,88,198
2,63,85,0
2,67,82,0
2,70,87,0
2,58,78,0
2,56,83,270
2,60,90,0
2,63,81,0
2,60,93,258
2,56,85,0
2,63,83,0
2,53,77,240
2,56,88,0
2,60,81,0
2,53,81,242
2,56,91,0
2,60,85,0
2,49,75,256
2,56,73,0
2,61,76,0
2,65,85,0
2,56,79,200
2,61,83,0
2,65,91,0
2,49,80,0
2,70,81,240
2,58,70,0
2,51,83,0
2,63,77,0
2,67,82,0
2,58,74,184
2,51,81,0
2,63,83,0
2,70,85,0
2,67,82,0
2,60,90,214
2,56,83,0
2,63,83,0
2,63,87,186
2,60,95,0
2,56,87,0
2,60,87,196
2,53,87,0
2,56,97,0
2,56,95,200
2,53,84,0
2,60,85,0
2,49,79,220
2,68,79,0
2,61,77,0
2,65,88,0
2,65,90,202
2,61,80,0
2,68,83,0
2,49,78,0
2,51,84,214
2,58,76,0
2,70,85,0
2,63,81,0
2,67,78,0
2,51,88,198
2,63,85,0
2,67,82,0
2,70,87,0
2,58,78,0
2,56,83,270
2,60,90,0
2,63,81,0
2,60,93,258
2,56,85,0
2,63,83,0
2,53,77,240
2,56,88,0
2,60,81,0
2,53,81,242
2,56,91,0
2,60,85,0
2,49,75,256
2,56,73,0
2,61,76,0
2,65,85,0
2,56,79,200
2,61,83,0
2,65,91,0
2,49,80,0
2,70,81,240
2,58,70,0
2,51,83,0
2,63,77,0
2,67,82,0
2,58,74,184
2,51,81,0
2,63,83,0
2,70,85,0
2,67,82,0
2,60,90,214
2,56,83,0
2,63,83,0
2,63,87,186
2,60,95,0
2,56,87,0
2,60,87,196
2,53,87,0
2,56,97,0
2,56,95,200
2,53,84,0
2,60,85,0
2,49,79,220
2,68,79,0
2,61,77,0
2,65,88,0
2,65,90,202
2,61,80,0
2,68,83,0
2,49,78,0
2,51,84,214
2,58,76,0
2,70,85,0
2,63,81,0
2,67,78,0
2,51,88,198
2,63,85,0
2,67,82,0
2,70,87,0
2,58,78,0
2,63,93,270
2,56,95,0
2,60,104,0
2,44,104,0
2,60,97,96
2,53,97,0
2,56,109,0
2,56,87,62
2,68,88,0
2,49,91,0
2,65,95,0
2,61,87,0
2,70,87,80
2,58,74,0
2,63,81,0
2,67,80,0
2,51,81,0
2,61,97,86
2,57,87,0
2,64,88,0
2,45,93,0
2,64,83,256
2,57,83,0
2,61,90,0
2,45,85,0
2,57,97,216
2,54,87,0
2,61,87,0
2,54,84,226
2,61,85,0
2,57,91,0
2,62,80,240
2,66,88,0
2,69,79,0
2,50,83,0
2,57,76,0
2,50,80,214
2,57,78,0
2,62,83,0
2,66,91,0
2,69,84,0
2,68,82,238
2,64,78,0
2,52,85,0
2,71,79,0
2,59,78,0
2,71,85,200
2,64,84,0
2,68,84,0
2,52,84,0
2,59,72,0
2,64,83,240
2,57,83,0
2,61,90,0
2,57,87,186
2,61,95,0
2,64,87,0
2,57,97,196
2,54,87,0
2,61,87,0
2,61,85,200
2,54,84,0
2,57,95,0
2,66,88,220
2,62,77,0
2,69,79,0
2,50,79,0
2,50,78,202
2,69,83,0
2,62,80,0
2,66,90,0
2,68,78,214
2,64,81,0
2,71,85,0
2,59,76,0
2,52,84,0
2,59,78,198
2,71,87,0
2,68,82,0
2,64,85,0
2,52,88,0
2,64,81,270
2,61,90,0
2,57,83,0
2,64,83,258
2,57,85,0
2,61,93,0
2,61,81,240
2,57,88,0
2,54,77,0
2,61,85,242
2,57,91,0
2,54,81,0
2,66,85,256
2,62,76,0
2,57,73,0
2,50,75,0
2,50,80,200
2,66,91,0
2,62,83,0
2,57,79,0
2,68,82,240
2,64,77,0
2,52,83,0
2,59,70,0
2,71,81,0
2,68,82,184
2,71,85,0
2,64,83,0
2,52,81,0
2,59,74,0
2,64,77,214
2,61,90,0
2,57,85,0
2,64,84,220
2,61,95,0
2,57,87,0
2,61,83,224
2,54,84,0
2,57,93,0
2,61,83,224
2,57,90,0
2,54,81,0
2,62,81,238
2,66,88,0
2,50,84,0
2,57,78,0
2,50,80,204
2,57,78,0
2,66,90,0
2,62,83,0
2,68,78,184
2,71,77,0
2,59,71,0
2,64,74,0
2,52,85,0
2,71,81,186
2,64,78,0
2,68,76,0
2,59,77,0
2,52,78,0
2,57,91,230
2,61,93,0
2,64,88,0
2,57,99,220
2,54,90,0
2,61,93,0
2,50,83,206
2,57,85,0
2,62,88,0
2,66,95,0
2,69,87,0
2,71,90,162
2,64,83,0
2,68,84,0
2,59,80,0
2,52,85,0
2,64,83,202
2,57,83,0
2,61,90,0
2,57,87,186
2,61,95,0
2,64,87,0
2,57,97,196
2,54,87,0
2,61,87,0
2,61,85,200
2,54,84,0
2,57,95,0
2,66,88,220
2,62,77,0
2,69,79,0
2,50,79,0
2,50,78,202
2,69,83,0
2,62,80,0
2,66,90,0
2,68,78,214
2,64,81,0
2,71,85,0
2,59,76,0
2,52,84,0
2,59,78,198
2,71,87,0
2,68,82,0
2,64,85,0
2,52,88,0
2,64,81,270
2,61,90,0
2,57,83,0
2,64,83,258
2,57,85,0
2,61,93,0
2,61,81,240
2,57,88,0
2,54,77,0
2,61,85,242
2,57,91,0
2,54,81,0
2,66,85,256
2,62,76,0
2,57,73,0
2,50,75,0
2,50,80,200
2,66,91,0
2,62,83,0
2,57,79,0
2,68,82,240
2,64,77,0
2,52,83,0
2,59,70,0
2,71,81,0
2,68,82,184
2,71,85,0
2,64,83,0
2,52,81,0
2,59,74,0
2,64,77,214
2,61,90,0
2,57,85,0
2,64,84,220
2,61,95,0
2,57,87,0
2,61,83,224
2,54,84,0
2,57,93,0
2,61,83,224
2,57,90,0
2,54,81,0
2,62,81,238
2,66,88,0
2,50,84,0
2,57,78,0
2,50,80,204
2,57,78,0
2,66,90,0
2,62,83,0
2,68,78,184
2,71,77,0
2,59,71,0
2,64,74,0
2,52,85,0
2,71,81,186
2,64,78,0
2,68,76,0
2,59,77,0
2,52,78,0
2,57,91,230
2,61,93,0
2,64,88,0
2,57,99,220
2,54,90,0
2,61,93,0
2,47,102,206
2,66,84,0
2,62,95,0
2,59,87,0
2,59,95,238
2,64,87,0
2,56,84,0
2,64,87,256
2,61,99,0
2,57,87,0
2,45,97,0
2,64,83,198
2,57,83,0
2,61,90,0
2,57,87,186
2,61,95,0
2,64,87,0
2,57,97,196
2,54,87,0
2,61,87,0
2,61,85,200
2,54,84,0
2,57,95,0
2,66,88,220
2,62,77,0
2,69,79,0
2,50,79,0
2,50,78,202
2,69,83,0
2,62,80,0
2,66,90,0
2,68,78,214
2,64,81,0
2,71,85,0
2,59,76,0
2,52,84,0
2,59,78,198
2,71,87,0
2,68,82,0
2,64,85,0
2,52,88,0
2,64,81,270
2,61,90,0
2,57,83,0
2,64,83,258
2,57,85,0
2,61,93,0
2,61,81,240
2,57,88,0
2,54,77,0
2,61,85,242
2,57,91,0
2,54,81,0
2,66,85,256
2,62,76,0
2,57,73,0
2,50,75,0
2,50,80,200
2,66,91,0
2,62,83,0
2,57,79,0
2,68,82,240
2,64,77,0
2,52,83,0
2,59,70,0
2,71,81,0
2,68,82,184
2,71,85,0
2,64,83,0
2,52,81,0
2,59,74,0
2,64,83,214
2,57,83,0
2,61,90,0
2,57,87,186
2,61,95,0
2,64,87,0
2,57,97,196
2,54,87,0
2,61,87,0
2,61,85,200
2,54,84,0
2,57,95,0
2,66,88,220
2,62,77,0
2,69,79,0
2,50,79,0
2,50,78,202
2,69,83,0
2,62,80,0
2,66,90,0
2,68,78,214
2,64,81,0
2,71,85,0
2,59,76,0
2,52,84,0
2,59,78,198
2,71,87,0
2,68,82,0
2,64,85,0
2,52,88,0
2,64,81,270
2,61,90,0
2,57,83,0
2,64,83,258
2,57,85,0
2,61,93,0
2,61,81,240
2,57,88,0
2,54,77,0
2,61,85,242
2,57,91,0
2,54,81,0
2,66,85,256
2,62,76,0
2,57,73,0
2,50,75,0
2,50,80,200
2,66,91,0
2,62,83,0
2,57,79,0
2,68,82,240
