track,note,velocity,time
1,33,117,384
1,33,108,56
1,26,112,32
1,38,110,12
1,33,112,12
1,33,112,48
1,26,112,0
1,38,112,12
1,33,110,32
1,33,115,52
1,26,115,32
1,38,115,16
1,33,112,32
1,33,110,64
1,26,112,0
1,38,117,12
1,33,112,28
1,33,110,60
1,26,112,32
1,38,123,8
1,33,112,16
1,33,115,52
1,26,115,0
1,38,115,8
1,33,112,32
1,33,108,68
1,26,112,4
1,38,117,16
1,33,108,28
1,33,115,60
1,35,115,16
1,37,112,28
1,38,105,32
1,42,90,4
1,45,101,8
1,42,112,16
1,38,108,12
1,42,112,4
1,45,103,8
1,42,101,8
1,33,112,24
1,37,110,8
1,26,110,12
1,38,110,12
1,33,112,20
1,28,112,8
1,33,112,4
1,37,108,16
1,28,108,28
1,32,110,4
1,35,108,8
1,32,112,16
1,26,95,16
1,30,97,4
1,33,108,4
1,30,115,8
1,33,112,36
1,33,112,48
1,26,112,32
1,38,110,12
1,33,115,8
1,33,112,52
1,26,115,32
1,38,120,8
1,33,112,40
1,33,110,60
1,26,112,32
1,38,123,8
1,33,112,16
1,33,115,52
1,26,115,0
1,38,115,8
1,33,112,32
1,33,108,68
1,26,112,4
1,38,117,16
1,33,108,28
1,33,115,60
1,35,115,16
1,37,112,28
1,38,105,32
1,42,90,4
1,45,101,8
1,42,112,16
1,38,108,12
1,42,112,4
1,45,103,8
1,42,101,8
1,33,112,24
1,37,110,8
1,26,110,12
1,38,110,12
1,33,112,20
1,28,112,8
1,33,112,4
1,37,108,16
1,28,108,28
1,32,110,4
1,35,108,8
1,32,112,16
1,26,95,16
1,30,97,4
1,33,108,4
1,30,115,8
1,33,112,36
1,33,112,48
1,26,112,32
1,38,110,12
1,33,115,8
1,33,112,52
1,26,115,32
1,38,120,8
1,28,108,40
1,28,108,24
1,40,97,0
1,28,105,64
1,38,101,8
1,28,101,64
1,37,105,8
1,35,103,8
1,28,95,32
1,28,108,20
1,40,101,0
1,28,103,64
1,38,110,8
1,28,108,64
1,37,103,20
1,28,101,64
1,33,99,12
1,33,115,16
1,26,110,8
1,26,103,16
1,38,97,8
1,26,112,64
1,33,112,8
1,28,117,12
1,33,112,8
1,37,115,8
1,28,108,48
1,28,108,24
1,40,97,0
1,28,105,64
1,38,101,8
1,28,101,64
1,37,105,8
1,35,103,8
1,28,95,32
1,28,108,20
1,40,101,0
1,28,103,64
1,38,110,8
1,28,108,64
1,37,103,20
1,28,101,64
1,35,123,12
1,35,115,20
1,32,115,12
1,30,115,12
1,30,120,32
1,42,117,20
1,28,117,8
1,28,112,28
1,28,110,24
1,40,115,8
1,35,117,8
1,35,117,20
1,40,115,16
1,28,126,8
1,33,112,32
1,33,110,60
1,26,112,32
1,38,123,8
1,33,112,16
1,33,115,52
1,26,115,0
1,38,115,8
1,33,112,32
1,33,108,68
1,26,112,4
1,38,117,16
1,33,108,28
1,33,115,60
1,35,115,16
1,37,112,28
1,38,105,32
1,42,90,4
1,45,101,8
1,42,112,16
1,38,108,12
1,42,112,4
1,45,103,8
1,42,101,8
1,33,112,24
1,37,110,8
1,26,110,12
1,38,110,12
1,33,112,20
1,28,112,8
1,33,112,4
1,37,108,16
1,28,108,28
1,32,110,4
1,35,108,8
1,32,112,16
1,26,95,16
1,30,97,4
1,33,108,4
1,30,115,8
1,33,112,36
1,33,112,48
1,26,112,32
1,38,110,12
1,33,115,8
1,33,112,52
1,26,115,32
1,38,120,8
1,33,112,40
1,33,112,48
1,26,112,32
1,38,110,12
1,33,115,8
1,33,112,52
1,26,115,32
1,38,120,8
1,28,127,40
1,32,110,4
1,35,110,8
1,32,112,8
1,28,120,4
1,32,112,8
1,35,110,12
1,32,112,16
1,28,108,40
1,28,108,24
1,40,97,0
1,28,105,64
1,38,101,8
1,28,101,64
1,37,105,8
1,35,103,8
1,28,95,32
1,28,108,20
1,40,101,0
1,28,103,64
1,38,110,8
1,28,108,64
1,37,103,20
1,28,101,64
1,33,99,12
1,33,115,16
1,26,110,8
1,26,103,16
1,38,97,8
1,26,112,64
1,33,112,8
1,28,117,12
1,33,112,8
1,37,115,8
1,28,108,48
1,28,108,24
1,40,97,0
1,28,105,64
1,38,101,8
1,28,101,64
1,37,105,8
1,35,103,8
1,28,95,32
1,28,108,20
1,40,101,0
1,28,103,64
1,38,110,8
1,28,108,64
1,37,103,20
1,28,101,64
1,35,123,12
1,35,115,20
1,32,115,12
1,30,115,12
1,30,120,32
1,42,117,20
1,28,117,8
1,28,112,28
1,33,112,24
1,33,110,60
1,26,112,32
1,38,123,8
1,33,112,16
1,33,115,52
1,26,115,0
1,38,115,8
1,33,112,32
1,33,108,68
1,26,112,4
1,38,117,16
1,33,108,28
1,33,115,60
1,35,115,16
1,37,112,28
1,38,105,32
1,42,90,4
1,45,101,8
1,42,112,16
1,38,108,12
1,42,112,4
1,45,103,8
1,42,101,8
1,33,112,24
1,37,110,8
1,26,110,12
1,38,110,12
1,33,112,20
1,28,112,8
1,33,112,4
1,37,108,16
1,28,108,28
1,32,110,4
1,35,108,8
1,32,112,16
1,26,95,16
1,30,97,4
1,33,108,4
1,30,115,8
1,33,112,36
1,33,112,48
1,26,112,32
1,38,110,12
1,33,115,8
1,33,112,52
1,26,115,32
1,38,120,8
1,28,108,40
1,32,110,4
1,35,108,8
1,32,112,16
1,26,95,16
1,30,97,4
1,33,108,4
1,30,115,8
1,33,112,36
1,33,112,48
1,26,112,32
1,38,110,12
1,33,115,8
1,33,112,52
1,26,115,32
1,38,120,8
1,28,108,40
1,32,110,4
1,35,108,8
1,32,112,16
1,26,95,16
1,30,97,4
1,33,108,4
1,30,115,8
1,33,112,36
1,33,112,48
1,26,112,32
1,38,110,12
1,33,115,8
1,33,112,52
1,26,115,32
1,38,120,8
1,28,108,40
1,32,110,4
1,35,108,8
1,32,112,16
1,26,95,16
1,30,97,4
1,33,108,4
1,30,115,8
1,33,112,36
1,33,112,48
1,26,112,32
1,38,110,12
1,33,115,8
1,33,112,52
1,26,115,32
1,38,120,8
1,33,127,40
2,45,105,4
2,57,91,0
2,52,102,0
2,61,100,0
2,57,100,52
2,61,107,0
2,45,102,44
2,50,85,16
2,54,95,0
2,57,80,0
2,54,95,16
2,50,85,0
2,57,100,0
2,45,89,4
2,52,93,0
2,61,100,0
2,57,93,0
2,57,107,16
2,61,102,0
2,45,107,48
2,54,91,16
2,57,93,0
2,50,82,0
2,38,91,4
2,57,98,12
2,54,100,0
2,50,87,0
2,52,100,28
2,45,105,0
2,57,95,8
2,61,100,0
2,61,102,24
2,57,93,0
2,57,95,16
2,54,98,0
2,50,85,0
2,38,85,0
2,54,93,24
2,50,80,0
2,57,95,0
2,61,98,16
2,57,95,0
2,52,91,0
2,45,87,0
2,57,91,8
2,61,98,0
2,38,102,44
2,57,76,12
2,50,66,0
2,54,98,0
2,57,107,12
2,50,89,0
2,54,105,0
2,61,91,52
2,57,91,0
2,52,87,0
2,45,85,0
2,61,107,8
2,57,100,0
2,38,98,48
2,54,95,12
2,50,80,0
2,57,87,0
2,57,102,24
2,54,105,0
2,50,91,0
2,61,93,16
2,57,91,0
2,45,91,0
2,57,98,4
2,61,102,0
2,45,102,48
2,50,87,8
2,54,95,0
2,57,87,0
2,38,87,64
2,57,102,8
2,50,87,0
2,54,100,0
2,61,105,8
2,57,91,0
2,45,78,0
2,52,72,0
2,57,98,16
2,61,102,0
2,38,85,28
2,57,87,32
2,54,85,0
2,50,80,0
2,54,102,28
2,50,93,0
2,57,105,0
2,45,91,12
2,57,91,0
2,52,89,0
2,61,105,0
2,57,95,12
2,61,102,0
2,52,105,28
2,45,89,0
2,57,72,16
2,61,82,0
2,45,91,0
2,52,100,0
2,57,95,12
2,61,100,0
2,38,105,8
2,57,87,96
2,54,102,0
2,50,91,0
2,45,66,8
2,57,91,24
2,54,91,0
2,50,72,0
2,45,102,64
2,57,91,12
2,54,87,0
2,50,78,0
2,57,98,28
2,54,105,0
2,50,91,0
2,45,100,4
2,57,89,16
2,50,85,0
2,54,98,0
2,45,95,64
2,54,82,20
2,50,76,0
2,57,89,0
2,45,105,52
2,54,98,16
2,50,89,0
2,57,98,0
2,57,87,52
2,61,102,0
2,45,98,0
2,52,102,0
2,61,102,40
2,57,98,0
2,38,95,48
2,54,68,8
2,50,60,0
2,57,62,0
2,54,102,20
2,50,89,0
2,57,107,0
2,45,87,12
2,61,80,0
2,57,74,0
2,52,93,0
2,57,87,16
2,61,89,0
2,45,80,12
2,52,93,0
2,57,82,20
2,45,70,8
2,52,91,0
2,57,100,16
2,52,102,4
2,45,95,0
2,57,100,12
2,40,95,12
2,52,87,0
2,59,89,0
2,56,89,0
2,52,85,16
2,59,91,0
2,56,87,0
2,40,85,48
2,59,70,4
2,56,70,0
2,52,68,0
2,56,91,36
2,52,87,0
2,59,89,0
2,40,87,32
2,50,82,4
2,54,85,0
2,57,85,0
2,50,82,4
2,54,87,0
2,57,89,0
2,38,87,32
2,50,56,48
2,54,68,0
2,57,66,0
2,50,74,20
2,54,89,0
2,57,89,0
2,38,72,0
2,54,100,16
2,50,87,0
2,57,98,0
2,52,91,32
2,45,85,0
2,61,95,0
2,57,82,0
2,57,95,12
2,61,102,0
2,54,95,12
2,57,91,0
2,50,85,0
2,54,100,20
2,50,85,0
2,57,102,0
2,45,113,4
2,52,110,0
2,52,110,28
2,61,100,12
2,57,93,0
2,38,102,24
2,57,68,28
2,50,74,0
2,54,89,0
2,38,87,56
2,54,98,4
2,57,98,0
2,50,93,0
2,61,91,64
2,57,91,0
2,52,87,0
2,45,85,0
2,61,107,8
2,57,100,0
2,38,98,48
2,54,95,12
2,50,80,0
2,57,87,0
2,57,102,24
2,54,105,0
2,50,91,0
2,61,93,16
2,57,91,0
2,45,91,0
2,57,98,4
2,61,102,0
2,45,102,48
2,50,87,8
2,54,95,0
2,57,87,0
2,38,87,64
2,57,102,8
2,50,87,0
2,54,100,0
2,61,105,8
2,57,91,0
2,45,78,0
2,52,72,0
2,57,98,16
2,61,102,0
2,38,85,28
2,57,87,32
2,54,85,0
2,50,80,0
2,54,102,28
2,50,93,0
2,57,105,0
2,45,91,12
2,57,91,0
2,52,89,0
2,61,105,0
2,57,95,12
2,61,102,0
2,52,105,28
2,45,89,0
2,57,72,16
2,61,82,0
2,45,91,0
2,52,100,0
2,57,95,12
2,61,100,0
2,38,105,8
2,57,87,96
2,54,102,0
2,50,91,0
2,45,66,8
2,57,91,24
2,54,91,0
2,50,72,0
2,45,102,64
2,57,91,12
2,54,87,0
2,50,78,0
2,57,98,28
2,54,105,0
2,50,91,0
2,45,100,4
2,57,89,16
2,50,85,0
2,54,98,0
2,45,95,64
2,54,82,20
2,50,76,0
2,57,89,0
2,45,105,52
2,54,98,16
2,50,89,0
2,57,98,0
2,57,87,52
2,61,102,0
2,45,98,0
2,52,102,0
2,61,102,40
2,57,98,0
2,38,95,48
2,54,68,8
2,50,60,0
2,57,62,0
2,54,102,20
2,50,89,0
2,57,107,0
2,45,87,12
2,61,80,0
2,57,74,0
2,52,93,0
2,57,87,16
2,61,89,0
2,45,80,12
2,52,93,0
2,57,82,20
2,45,70,8
2,52,91,0
2,57,100,16
2,52,102,4
2,45,95,0
2,57,100,12
2,40,95,12
2,52,87,0
2,59,89,0
2,56,89,0
2,52,85,16
2,59,91,0
2,56,87,0
2,40,85,48
2,59,70,4
2,56,70,0
2,52,68,0
2,56,91,36
2,52,87,0
2,59,89,0
2,40,87,32
2,50,82,4
2,54,85,0
2,57,85,0
2,50,82,4
2,54,87,0
2,57,89,0
2,38,87,32
2,50,56,48
2,54,68,0
2,57,66,0
2,50,74,20
2,54,89,0
2,57,89,0
2,38,72,0
2,54,100,16
2,50,87,0
2,57,98,0
2,52,91,32
2,45,85,0
2,61,95,0
2,57,82,0
2,57,95,12
2,61,102,0
2,54,95,12
2,57,91,0
2,50,85,0
2,54,100,20
2,50,85,0
2,57,102,0
2,45,113,4
2,52,110,0
2,52,110,28
2,61,100,12
2,57,93,0
2,38,102,24
2,57,68,28
2,50,74,0
2,54,89,0
2,38,87,56
2,54,98,4
2,57,98,0
2,50,93,0
2,59,91,64
2,52,76,0
2,62,89,0
2,40,95,0
2,40,95,8
2,57,95,8
2,52,68,0
2,61,100,0
2,40,82,0
2,52,68,16
2,59,82,0
2,56,87,0
2,40,100,0
2,52,102,4
2,52,93,36
2,62,105,0
2,59,102,0
2,40,100,96
2,52,58,12
2,57,89,0
2,61,87,0
2,40,85,64
2,52,66,20
2,56,85,0
2,59,68,0
2,40,100,4
2,52,98,12
2,45,100,24
2,61,87,24
2,57,91,0
2,61,100,24
2,57,95,0
2,62,87,16
2,50,91,0
2,57,87,0
2,57,89,4
2,62,100,0
2,45,87,4
2,61,78,20
2,57,76,0
2,45,74,64
2,61,85,20
2,57,82,0
2,45,105,64
2,61,100,12
2,57,100,0
2,62,82,32
2,59,91,0
2,52,60,0
2,40,100,0
2,61,91,28
2,57,89,0
2,52,63,0
2,40,85,0
2,52,72,12
2,59,89,0
2,56,91,0
2,40,100,0
2,52,100,4
2,40,100,0
2,64,68,4
2,62,52,0
2,59,91,0
2,52,80,0
2,40,98,0
2,52,68,16
2,57,95,0
2,61,93,0
2,56,95,32
2,59,93,0
2,52,91,0
2,40,100,0
2,59,91,12
2,52,87,0
2,56,95,0
2,47,102,56
2,51,82,0
2,54,93,0
2,59,93,0
2,47,102,0
2,51,68,20
2,54,95,0
2,59,100,0
2,47,107,16
2,61,107,8
2,47,102,4
2,63,102,20
2,47,105,56
2,50,89,0
2,59,98,0
2,54,100,0
2,54,102,16
2,50,95,0
2,59,102,0
2,52,89,16
2,40,89,0
2,56,100,0
2,59,95,0
2,56,100,24
2,59,102,0
2,52,95,0
2,40,89,0
2,56,91,16
2,52,93,0
2,59,93,0
2,40,85,64
2,56,105,12
2,52,95,0
2,59,100,0
2,51,85,16
2,54,102,0
2,59,100,0
2,47,105,64
2,59,102,4
2,54,105,0
2,51,82,0
2,52,98,20
2,59,107,0
2,56,110,0
2,40,100,96
2,56,110,4
2,52,105,0
2,59,107,0
2,61,91,64
2,57,91,0
2,52,87,0
2,45,85,0
2,61,107,8
2,57,100,0
2,38,98,48
2,54,95,12
2,50,80,0
2,57,87,0
2,57,102,24
2,54,105,0
2,50,91,0
2,61,93,16
2,57,91,0
2,45,91,0
2,57,98,4
2,61,102,0
2,45,102,48
2,50,87,8
2,54,95,0
2,57,87,0
2,38,87,64
2,57,102,8
2,50,87,0
2,54,100,0
2,61,105,8
2,57,91,0
2,45,78,0
2,52,72,0
2,57,98,16
2,61,102,0
2,38,85,28
2,57,87,32
2,54,85,0
2,50,80,0
2,54,102,28
2,50,93,0
2,57,105,0
2,45,91,12
2,57,91,0
2,52,89,0
2,61,105,0
2,57,95,12
2,61,102,0
2,52,105,28
2,45,89,0
2,57,72,16
2,61,82,0
2,45,91,0
2,52,100,0
2,57,95,12
2,61,100,0
2,38,105,8
2,57,87,96
2,54,102,0
2,50,91,0
2,45,66,8
2,57,91,24
2,54,91,0
2,50,72,0
2,45,102,64
2,57,91,12
2,54,87,0
2,50,78,0
2,50,91,28
2,54,105,0
2,57,98,0
2,45,100,4
2,57,89,16
2,50,85,0
2,54,98,0
2,45,95,64
2,54,82,20
2,50,76,0
2,57,89,0
2,45,105,52
2,54,98,16
2,50,89,0
2,57,98,0
2,57,87,52
2,61,102,0
2,45,98,0
2,52,102,0
2,61,102,40
2,57,98,0
2,38,95,48
2,54,68,8
2,50,60,0
2,57,62,0
2,54,102,20
2,50,89,0
2,57,107,0
2,45,87,12
2,61,80,0
2,57,74,0
2,52,93,0
2,57,87,16
2,61,89,0
2,45,80,12
2,52,93,0
2,57,82,20
2,45,70,8
2,52,91,0
2,57,100,16
2,52,102,4
2,45,95,0
2,57,100,12
2,40,95,12
2,52,87,0
2,59,89,0
2,56,89,0
2,52,85,16
2,59,91,0
2,56,87,0
