track,note,velocity,time
1,59,110,2240
1,62,111,0
1,60,110,72
1,64,120,0
1,59,101,24
1,62,108,0
1,59,110,144
1,62,113,0
1,64,103,48
1,67,117,72
1,69,110,24
1,67,113,72
1,70,119,24
1,67,110,96
1,59,97,500
1,62,110,0
1,60,119,72
1,64,111,0
1,59,103,24
1,62,109,0
1,59,110,144
1,62,97,0
1,64,105,48
1,67,103,72
1,69,120,24
1,64,102,72
1,67,105,24
1,67,114,96
1,62,100,500
1,64,102,72
1,62,111,24
1,62,109,144
1,64,118,48
1,67,108,72
1,69,114,24
1,67,124,72
1,70,109,24
1,67,120,96
1,71,105,500
1,71,97,72
1,69,116,24
1,69,109,144
1,67,109,48
1,69,107,72
1,67,110,24
1,64,121,72
1,67,107,24
1,67,110,96
1,62,119,500
1,64,118,72
1,62,107,24
1,62,112,144
1,64,110,48
1,67,109,72
1,69,121,24
1,67,104,72
1,70,112,24
1,67,98,96
1,71,125,500
1,71,108,72
1,69,112,24
1,69,110,144
1,67,104,48
1,69,113,72
1,67,99,24
1,64,109,72
1,67,99,24
1,67,108,96
1,69,111,500
1,64,103,72
1,67,117,24
1,69,107,48
1,69,121,144
1,67,102,72
1,64,124,24
1,67,105,48
1,69,113,860
1,71,110,24
1,66,116,72
1,69,113,24
1,71,103,48
1,69,101,96
1,74,121,48
1,69,103,72
1,71,96,24
1,69,116,48
1,74,106,96
1,62,106,500
1,64,110,72
1,62,110,24
1,62,103,144
1,64,115,48
1,67,114,72
1,69,106,24
1,67,97,72
1,70,114,24
1,67,108,96
1,62,114,500
1,62,119,72
1,64,107,24
1,67,116,48
1,67,97,96
1,66,105,240
1,62,112,500
1,62,124,72
1,64,98,24
1,67,124,48
1,67,117,96
1,62,110,912
1,64,111,72
1,62,116,24
1,62,114,144
1,64,102,48
1,67,97,72
1,69,101,24
1,67,118,72
1,70,112,24
1,67,122,96
1,71,109,500
1,71,99,72
1,69,115,24
1,69,110,144
1,67,110,48
1,69,110,72
1,67,116,24
1,64,117,72
1,67,104,24
1,67,122,96
1,62,107,500
1,64,116,72
1,62,114,24
1,62,111,144
1,64,113,48
1,67,111,72
1,69,119,24
1,67,108,72
1,70,116,24
1,67,110,96
1,71,109,500
1,71,116,72
1,69,110,24
1,69,111,144
1,67,100,48
1,69,125,72
1,67,111,24
1,64,114,72
1,67,120,24
1,67,100,96
1,69,108,500
1,64,107,72
1,67,105,24
1,69,99,48
1,69,120,144
1,67,116,72
1,64,106,24
1,67,110,48
1,69,104,860
1,71,112,24
1,66,106,72
1,69,110,24
1,71,95,48
1,69,110,96
1,74,109,48
1,69,105,72
1,71,98,24
1,69,120,48
1,74,97,96
1,62,98,500
1,64,114,72
1,62,107,24
1,62,105,144
1,64,95,48
1,67,114,72
1,69,95,24
1,67,100,72
1,70,110,24
1,67,123,96
1,62,122,500
1,62,111,72
1,64,110,24
1,67,110,48
1,67,109,96
1,66,105,240
1,62,110,500
1,62,118,72
1,64,110,24
1,67,109,48
1,67,110,96
1,62,101,912
1,64,107,72
1,62,110,24
1,62,111,144
1,64,120,48
1,67,100,72
1,69,110,24
1,67,109,72
1,70,109,24
1,67,98,96
1,71,110,500
1,71,110,72
1,69,110,24
1,69,122,144
1,67,115,48
1,69,111,72
1,67,121,24
1,64,105,72
1,67,124,24
1,67,110,96
1,62,114,500
1,64,117,72
1,62,111,24
1,62,117,144
1,64,121,48
1,67,121,72
1,69,110,24
1,67,109,72
1,70,101,24
1,67,110,96
1,71,108,500
1,71,104,72
1,69,113,24
1,69,98,144
1,67,97,48
1,69,98,72
1,67,120,24
1,64,113,72
1,67,109,24
1,67,111,96
1,69,106,500
1,64,104,72
1,67,114,24
1,69,97,48
1,69,123,144
1,67,110,72
1,64,110,24
1,67,103,48
1,69,111,860
1,71,115,24
1,66,110,72
1,69,108,24
1,71,100,48
1,69,102,96
1,74,110,48
1,69,110,72
1,71,120,24
1,69,110,48
1,74,99,96
1,62,110,500
1,64,109,72
1,62,116,24
1,62,110,144
1,64,119,48
1,67,102,72
1,69,111,24
1,67,108,72
1,70,109,24
1,67,106,96
1,62,116,500
1,62,123,72
1,64,112,24
1,67,96,48
1,67,110,96
1,66,124,240
1,62,119,500
1,62,118,72
1,64,109,24
1,67,125,48
1,67,109,96
1,66,108,240
1,62,106,500
1,62,103,72
1,64,114,24
1,67,110,48
1,67,102,96
1,66,104,240
1,62,111,500
1,62,119,72
1,64,116,24
1,67,107,48
1,67,109,96
2,47,121,2240
2,50,108,0
2,48,114,72
2,52,111,0
2,47,108,24
2,50,110,0
2,47,111,144
2,50,97,0
2,52,111,48
2,55,110,72
2,57,111,24
2,55,114,72
2,58,98,24
2,55,97,96
2,47,123,500
2,50,124,0
2,48,96,72
2,52,111,0
2,47,122,24
2,50,105,0
2,47,110,144
2,50,104,0
2,52,125,48
2,55,95,72
2,57,111,24
2,52,111,72
2,55,108,24
2,55,105,96
2,50,101,500
2,52,110,72
2,50,106,24
2,50,110,144
2,52,108,48
2,55,107,72
2,57,113,24
2,55,110,72
2,58,99,24
2,55,104,96
2,59,124,500
2,59,104,72
2,57,99,24
2,57,103,144
2,55,117,48
2,57,103,72
2,55,110,24
2,52,103,72
2,55,104,24
2,55,101,96
2,50,113,500
2,52,117,72
2,50,106,24
2,50,100,144
2,52,109,48
2,55,105,72
2,57,115,24
2,55,102,72
2,58,98,24
2,55,118,96
2,59,100,500
2,59,103,72
2,57,115,24
2,57,110,144
2,55,115,48
2,57,115,72
2,55,111,24
2,52,110,72
2,55,110,24
2,55,99,96
2,57,107,500
2,52,110,72
2,55,119,24
2,57,116,48
2,57,102,144
2,55,97,72
2,52,107,24
2,55,110,48
2,57,113,860
2,59,101,24
2,54,114,72
2,57,115,24
2,59,113,48
2,57,101,96
2,62,124,48
2,57,110,72
2,59,108,24
2,57,122,48
2,62,121,96
2,50,125,500
2,52,108,72
2,50,116,24
2,50,112,144
2,52,115,48
2,55,124,72
2,57,108,24
2,55,109,72
2,58,109,24
2,55,103,96
2,50,110,500
2,50,97,72
2,52,125,24
2,55,110,48
2,55,119,96
2,54,111,240
2,50,111,500
2,50,112,72
2,52,113,24
2,55,112,48
2,55,117,96
2,50,110,912
2,52,102,72
2,50,110,24
2,50,108,144
2,52,102,48
2,55,100,72
2,57,108,24
2,55,110,72
2,58,110,24
2,55,99,96
2,59,110,500
2,59,105,72
2,57,110,24
2,57,116,144
2,55,110,48
2,57,111,72
2,55,112,24
2,52,121,72
2,55,101,24
2,55,121,96
2,50,117,500
2,52,102,72
2,50,115,24
2,50,108,144
2,52,110,48
2,55,104,72
2,57,96,24
2,55,104,72
2,58,98,24
2,55,108,96
2,59,96,500
2,59,107,72
2,57,122,24
2,57,110,144
2,55,113,48
2,57,115,72
2,55,110,24
2,52,121,72
2,55,111,24
2,55,100,96
2,57,113,500
2,52,107,72
2,55,105,24
2,57,106,48
2,57,107,144
2,55,116,72
2,52,122,24
2,55,110,48
2,57,117,860
2,59,100,24
2,54,113,72
2,57,118,24
2,59,119,48
2,57,113,96
2,62,100,48
2,57,108,72
2,59,113,24
2,57,98,48
2,62,112,96
2,50,114,500
2,52,121,72
2,50,111,24
2,50,109,144
2,52,109,48
2,55,117,72
2,57,115,24
2,55,111,72
2,58,99,24
2,55,112,96
2,50,108,500
2,50,110,72
2,52,114,24
2,55,104,48
2,55,108,96
2,54,110,240
2,50,105,500
2,50,109,72
2,52,106,24
2,55,116,48
2,55,114,96
2,50,105,912
2,52,113,72
2,50,112,24
2,50,110,144
2,52,120,48
2,55,108,72
2,57,111,24
2,55,111,72
2,58,110,24
2,55,106,96
2,59,117,500
2,59,110,72
2,57,109,24
2,57,114,144
2,55,97,48
2,57,116,72
2,55,121,24
2,52,101,72
2,55,122,24
2,55,117,96
2,50,100,500
2,52,110,72
2,50,109,24
2,50,105,144
2,52,112,48
2,55,120,72
2,57,107,24
2,55,103,72
2,58,103,24
2,55,101,96
2,59,121,500
2,59,111,72
2,57,110,24
2,57,112,144
2,55,96,48
2,57,116,72
2,55,124,24
2,52,108,72
2,55,96,24
2,55,99,96
2,57,104,500
2,52,110,72
2,55,108,24
2,57,102,48
2,57,96,144
2,55,110,72
2,52,109,24
2,55,113,48
2,57,121,860
2,59,95,24
2,54,98,72
2,57,110,24
2,59,110,48
2,57,105,96
2,62,108,48
2,57,110,72
2,59,122,24
2,57,119,48
2,62,109,96
2,50,116,500
2,52,109,72
2,50,120,24
2,50,106,144
2,52,114,48
2,55,109,72
2,57,120,24
2,55,110,72
2,58,113,24
2,55,110,96
2,50,118,500
2,50,107,72
2,52,115,24
2,55,96,48
2,55,113,96
2,54,111,240
2,50,110,500
2,50,113,72
2,52,104,24
2,55,96,48
2,55,110,96
2,54,109,240
2,50,118,500
2,50,96,72
2,52,108,24
2,55,123,48
2,55,114,96
2,54,105,240
2,50,116,500
2,50,112,72
2,52,99,24
2,55,95,48
2,55,112,96
3,59,104,2240
3,62,112,0
3,60,121,72
3,64,107,0
3,59,109,24
3,62,109,0
3,59,110,144
3,62,114,0
3,60,110,48
3,62,110,192
3,59,110,96
3,62,105,0
3,59,101,500
3,62,111,0
3,60,122,72
3,64,116,0
3,59,115,24
3,62,110,0
3,59,111,144
3,62,111,0
3,60,114,48
3,59,105,192
3,59,110,96
3,62,107,0
3,59,102,480
3,62,123,0
3,60,106,72
3,64,115,0
3,59,110,24
3,62,107,0
3,59,107,144
3,62,102,0
3,60,99,48
3,62,97,192
3,59,107,96
3,62,108,0
3,62,116,480
3,67,96,0
3,71,124,0
3,62,109,72
3,67,121,0
3,71,104,0
3,60,112,24
3,66,97,0
3,69,110,0
3,69,105,144
3,60,102,48
3,59,110,192
3,62,97,0
3,59,123,96
3,62,103,0
3,59,99,480
3,62,110,0
3,60,110,72
3,64,98,0
3,59,102,24
3,62,122,0
3,59,104,144
3,62,111,0
3,60,107,48
3,62,114,192
3,59,110,96
3,62,116,0
3,62,107,480
3,67,95,0
3,71,98,0
3,62,114,72
3,67,110,0
3,71,103,0
3,60,120,24
3,66,114,0
3,69,112,0
3,69,112,144
3,60,111,48
3,59,110,192
3,62,107,0
3,59,102,96
3,62,108,0
3,60,111,500
3,60,108,96
3,64,110,0
3,60,108,192
3,60,110,144
3,64,97,0
3,62,115,360
3,66,108,0
3,69,110,0
3,62,110,24
3,66,114,0
3,71,107,0
3,62,122,72
3,66,109,0
3,66,124,24
3,69,110,0
3,62,121,48
3,66,121,0
3,71,108,0
3,69,109,96
3,66,125,48
3,66,112,144
3,66,110,96
3,69,99,0
3,59,102,480
3,62,111,0
3,60,116,72
3,64,97,0
3,59,106,24
3,62,103,0
3,59,118,144
3,62,117,0
3,60,111,48
3,62,106,192
3,59,121,96
3,62,125,0
3,59,102,96
3,59,123,96
3,59,120,72
3,60,104,24
3,60,111,48
3,59,110,96
3,62,109,0
3,57,112,240
3,60,112,0
3,59,110,192
3,59,110,96
3,59,109,72
3,60,110,24
3,60,115,48
3,59,115,96
3,62,105,0
3,59,114,912
3,62,120,0
3,60,106,72
3,64,111,0
3,59,101,24
3,62,97,0
3,59,115,144
3,62,125,0
3,60,113,48
3,62,107,192
3,59,109,96
3,62,115,0
3,62,122,500
3,67,113,0
3,71,100,0
3,62,123,72
3,67,102,0
3,71,111,0
3,60,122,24
3,66,113,0
3,69,113,0
3,69,112,144
3,60,124,48
3,59,108,192
3,62,112,0
3,59,109,96
3,62,108,0
3,59,124,500
3,62,110,0
3,60,108,72
3,64,110,0
3,59,106,24
3,62,122,0
3,59,110,144
3,62,105,0
3,60,111,48
3,62,109,192
3,59,109,96
3,62,110,0
3,62,114,500
3,67,114,0
3,71,110,0
3,62,110,72
3,67,104,0
3,71,124,0
3,60,103,24
3,66,110,0
3,69,112,0
3,69,101,144
3,60,124,48
3,59,120,192
3,62,110,0
3,59,116,96
3,62,110,0
3,60,102,500
3,60,112,96
3,64,117,0
3,60,122,192
3,60,113,144
3,64,110,0
3,62,113,380
3,66,113,0
3,69,104,0
3,62,113,24
3,66,112,0
3,71,108,0
3,62,110,72
3,66,107,0
3,66,107,24
3,69,118,0
3,62,104,48
3,66,99,0
3,71,109,0
3,69,114,96
3,66,110,48
3,66,125,144
3,66,118,96
3,69,111,0
3,59,112,500
3,62,101,0
3,60,114,72
3,64,110,0
3,59,113,24
3,62,109,0
3,59,110,144
3,62,96,0
3,60,118,48
3,62,116,192
3,59,105,96
3,62,110,0
3,59,112,96
3,59,113,96
3,59,110,72
3,60,125,24
3,60,112,48
3,59,109,96
3,62,105,0
3,57,101,240
3,60,117,0
3,59,113,192
3,59,114,96
3,59,111,72
3,60,111,24
3,60,104,48
3,59,111,96
3,62,111,0
3,59,102,912
3,62,108,0
3,60,109,72
3,64,124,0
3,59,98,24
3,62,118,0
3,59,116,144
3,62,110,0
3,60,104,48
3,62,116,192
3,59,106,96
3,62,110,0
3,62,110,480
3,67,104,0
3,71,99,0
3,62,110,72
3,67,100,0
3,71,121,0
3,60,104,24
3,66,122,0
3,69,109,0
3,69,110,144
3,60,120,48
3,59,104,192
3,62,102,0
3,59,103,96
3,62,110,0
3,59,111,480
3,62,117,0
3,60,121,72
3,64,123,0
3,59,114,24
3,62,112,0
3,59,107,144
3,62,122,0
3,60,123,48
3,62,102,192
3,59,121,96
3,62,108,0
3,62,97,480
3,67,97,0
3,71,111,0
3,62,117,72
3,67,102,0
3,71,98,0
3,60,121,24
3,66,114,0
3,69,113,0
3,69,117,144
3,60,103,48
3,59,103,192
3,62,103,0
3,59,102,96
3,62,123,0
3,60,108,500
3,60,99,96
3,64,96,0
3,60,118,192
3,60,112,144
3,64,109,0
3,62,110,360
3,66,111,0
3,69,114,0
3,62,97,24
3,66,109,0
3,71,120,0
3,62,111,72
3,66,97,0
3,66,119,24
3,69,121,0
3,62,110,48
3,66,106,0
3,71,120,0
3,69,111,96
3,66,124,48
3,66,101,144
3,66,110,96
3,69,111,0
3,59,119,480
3,62,109,0
3,60,111,72
3,64,110,0
3,59,108,24
3,62,121,0
3,59,100,144
3,62,101,0
3,60,105,48
3,62,110,192
3,59,99,96
3,62,100,0
3,59,109,96
3,59,107,96
3,59,107,72
3,60,102,24
3,60,112,48
3,59,114,96
3,62,110,0
3,57,110,240
3,60,105,0
3,59,109,192
3,59,113,96
3,59,95,72
3,60,109,24
3,60,110,48
3,59,108,96
3,62,110,0
3,57,122,240
3,60,103,0
3,59,111,192
3,59,109,96
3,59,101,72
3,60,116,24
3,60,100,48
3,59,108,96
3,62,105,0
3,57,110,240
3,60,117,0
3,59,116,192
3,59,109,96
3,59,112,72
3,60,116,24
3,60,102,48
3,62,111,96
3,59,102,0
4,67,60,1760
4,71,74,0
4,59,49,0
4,74,76,320
4,55,61,56
4,64,59,0
4,67,66,0
4,60,80,480
4,65,72,0
4,62,72,0
4,58,72,0
4,62,72,24
4,59,72,0
4,55,72,0
4,67,60,24
4,71,74,0
4,59,49,0
4,74,76,320
4,55,61,56
4,64,59,0
4,67,66,0
4,60,80,480
4,71,53,0
4,62,44,0
4,59,58,0
4,67,57,0
4,59,58,132
4,62,48,136
4,62,66,0
4,67,70,0
4,43,64,0
4,59,54,0
4,71,63,1280
4,67,70,312
4,55,57,32
4,64,57,0
4,67,56,0
4,60,46,0
4,55,62,108
4,60,56,216
4,65,72,0
4,62,72,0
4,58,72,0
4,62,72,24
4,59,72,0
4,55,72,0
4,71,53,24
4,62,44,0
4,59,58,0
4,67,57,0
4,59,58,132
4,62,48,136
4,66,57,0
4,62,57,0
4,60,57,0
4,69,57,0
4,64,57,188
4,60,57,0
4,55,57,0
4,71,53,188
4,62,44,0
4,59,58,0
4,67,57,0
4,59,58,132
4,62,48,136
4,71,57,0
4,62,55,0
4,67,57,0
4,59,58,0
4,43,46,0
4,43,61,20
4,59,68,160
4,71,70,0
4,67,74,0
4,62,68,0
4,55,57,192
4,64,57,0
4,67,56,0
4,60,46,0
4,55,62,108
