track,note,velocity,time
1,45,87,5744
1,52,76,0
1,52,102,28
1,45,83,4
1,45,76,16
1,52,82,4
1,52,98,28
1,45,80,4
1,52,86,8
1,52,92,20
1,45,68,4
1,52,79,0
1,52,86,36
1,45,82,4
1,52,92,8
1,52,97,24
1,45,84,4
1,45,94,0
1,52,96,4
1,52,101,40
1,45,91,0
1,52,93,8
1,52,88,32
1,45,91,24
1,52,90,4
1,52,98,36
1,45,84,4
1,45,92,0
1,52,92,4
1,52,96,28
1,45,88,0
1,52,81,8
1,52,89,36
1,45,93,4
1,52,91,8
1,52,96,36
1,45,74,4
1,45,86,0
1,52,83,4
1,52,88,36
1,45,91,4
1,52,85,4
1,52,98,48
1,45,78,4
1,45,89,0
1,52,87,8
1,52,99,48
1,45,81,4
1,45,81,0
1,52,83,8
1,52,93,52
1,45,76,4
1,45,89,16
1,52,78,4
1,52,101,48
1,45,70,4
1,50,102,108
1,57,75,12
1,57,85,44
1,50,75,4
1,50,89,0
1,57,79,4
1,57,94,0
1,50,83,4
1,50,88,28
1,57,77,4
1,57,95,28
1,50,73,20
1,50,83,12
1,57,88,0
1,57,92,32
1,45,103,108
1,52,76,4
1,52,101,44
1,45,85,4
1,45,82,4
1,52,91,4
1,52,103,44
1,45,82,4
1,45,88,8
1,52,89,8
1,52,94,0
1,45,68,4
1,45,97,8
1,52,88,0
1,52,97,40
1,45,91,4
1,52,95,8
1,52,98,40
1,45,65,4
1,45,88,0
1,52,86,8
1,52,98,40
1,45,76,4
1,45,89,4
1,52,82,8
1,52,98,44
1,45,78,4
1,45,88,4
1,52,83,12
1,52,99,40
1,45,68,4
1,45,85,8
1,52,86,8
1,52,102,40
1,45,76,4
1,45,93,8
1,52,92,8
1,52,101,40
1,45,86,4
1,45,88,8
1,52,82,4
1,52,100,0
1,45,82,8
1,45,91,4
1,52,83,12
1,52,97,0
1,45,83,4
1,47,99,120
1,54,95,8
1,54,101,44
1,47,93,4
1,47,91,4
1,54,83,8
1,54,96,40
1,47,67,4
1,47,92,4
1,54,79,8
1,54,94,44
1,47,97,0
1,54,91,4
1,54,98,40
1,40,79,112
1,47,91,4
1,47,99,40
1,40,85,0
1,47,99,192
1,40,78,4
1,40,79,12
1,47,81,4
1,47,98,32
1,40,95,0
1,47,81,8
1,47,88,36
1,45,101,8
1,52,102,192
1,52,83,12
1,52,95,32
1,45,81,4
1,45,76,8
1,52,90,8
1,52,103,44
1,45,82,4
1,45,97,4
1,52,89,4
1,52,98,32
1,40,84,104
1,47,84,8
1,47,99,32
1,40,80,8
1,47,92,192
1,40,89,8
1,47,89,8
1,47,100,36
1,40,70,4
1,40,77,16
1,47,87,4
1,47,91,28
1,50,96,32
1,57,83,8
1,57,94,0
1,50,76,4
1,50,84,4
1,57,75,8
1,57,92,0
1,50,73,8
1,50,85,4
1,57,88,8
1,57,96,0
1,50,82,4
1,50,92,20
1,57,80,4
1,57,97,24
1,40,101,124
1,47,88,4
1,47,99,28
1,40,91,0
1,47,85,4
1,47,94,32
1,47,89,20
1,47,103,36
1,40,85,4
1,40,97,4
1,47,88,8
1,47,105,40
1,45,99,8
1,52,91,8
1,52,102,36
1,45,88,8
1,52,85,8
1,52,97,44
1,49,91,112
1,56,93,8
1,56,99,28
1,49,92,8
1,56,85,4
1,56,98,32
1,50,101,100
1,57,89,8
1,57,101,0
1,50,70,4
1,50,98,0
1,57,99,4
1,57,101,36
1,42,89,132
1,49,95,4
1,42,92,12
1,49,97,4
1,49,83,20
1,47,101,96
1,54,79,12
1,54,100,32
1,47,93,4
1,54,85,8
1,54,95,0
1,47,64,4
1,40,97,52
1,47,92,12
1,47,95,40
1,40,82,8
1,47,96,8
1,40,67,4
1,45,102,12
1,52,101,12
1,45,107,4408
1,52,91,0
1,52,95,32
1,45,95,0
1,52,88,4
1,52,99,20
1,45,86,4
1,45,80,0
1,52,87,8
1,52,86,0
1,45,70,8
1,45,81,4
1,52,96,8
1,52,98,0
1,45,84,4
1,45,92,4
1,52,90,12
1,52,98,44
1,45,88,4
1,45,97,16
1,52,88,4
1,52,93,0
1,45,63,4
1,45,73,4
1,52,91,8
1,52,99,40
1,45,85,4
1,45,98,0
1,52,97,8
1,52,101,40
1,50,102,104
1,57,79,16
1,57,83,56
1,50,92,176
1,57,89,4
1,57,89,36
1,50,81,4
1,50,98,28
1,57,91,4
1,57,98,44
1,50,99,20
1,57,95,4
1,57,99,20
1,50,76,4
1,45,100,92
1,52,101,8
1,52,99,32
1,45,84,4
1,52,95,8
1,52,100,0
1,45,78,4
1,45,79,8
1,52,90,4
1,52,101,36
1,45,82,4
1,45,97,20
1,52,86,4
1,52,96,44
1,45,85,0
1,52,95,4
1,52,99,32
1,45,73,4
1,45,97,20
1,52,99,4
1,52,99,36
1,45,77,4
1,45,97,0
1,52,83,8
1,52,99,4
1,45,85,0
1,45,79,8
1,52,88,8
1,52,92,0
1,45,72,4
1,45,91,28
1,52,83,4
1,52,92,32
1,45,60,4
1,45,92,0
1,52,88,8
1,52,98,44
1,45,85,4
1,45,98,4
1,52,96,8
1,52,103,44
1,45,95,4
1,45,93,4
1,52,92,8
1,52,101,36
1,47,98,4
1,54,83,12
1,54,95,48
1,47,94,8
1,54,81,8
1,54,95,44
1,47,73,4
1,47,94,8
1,54,92,8
1,54,99,44
1,47,87,4
1,47,102,4
1,54,94,8
1,54,97,36
1,47,73,4
1,40,69,128
1,47,98,12
1,47,92,4
1,40,73,0
1,40,93,20
1,47,76,12
1,47,98,0
1,40,87,4
1,40,101,12
1,47,84,20
1,47,97,52
1,40,89,8
1,47,99,12
1,47,97,36
1,45,99,4
1,52,33,24
1,52,95,76
1,45,81,4
1,45,95,0
1,52,89,8
1,52,99,36
1,45,74,4
1,45,95,16
1,52,81,8
1,52,92,36
1,45,95,8
1,52,92,4
1,52,101,36
1,40,99,100
1,47,88,4
1,47,104,0
1,40,85,4
1,40,83,0
1,47,92,4
1,47,96,28
1,40,79,4
1,47,85,8
1,47,101,36
1,40,74,4
1,40,88,4
1,47,94,12
1,47,96,0
1,50,101,112
1,57,97,8
1,57,91,28
1,50,89,8
1,57,60,8
1,57,99,48
1,50,81,4
1,50,88,4
1,57,95,8
1,57,99,32
1,50,89,4
1,50,91,28
1,57,85,4
1,57,99,28
1,40,95,92
1,47,99,12
1,47,104,4
1,40,70,0
1,40,72,8
1,47,85,16
1,47,101,64
1,40,91,16
1,47,95,12
1,47,96,0
1,40,85,4
1,40,95,16
1,47,83,12
1,47,107,56
1,45,102,28
1,52,94,4
1,52,105,28
1,45,96,8
1,52,79,4
1,52,77,40
1,56,78,292
1,49,97,196
1,56,84,4
1,56,100,0
1,49,78,4
1,50,103,72
1,57,93,8
1,57,99,36
1,50,79,4
1,50,97,4
1,57,95,8
1,57,99,28
1,42,93,116
1,49,86,8
1,49,78,12
1,42,85,4
1,49,89,8
1,49,99,32
1,47,94,92
1,54,99,8
1,54,99,28
1,47,78,4
1,47,91,36
1,54,83,4
1,54,97,36
1,40,98,60
1,47,33,4
1,47,101,28
1,40,88,0
1,47,91,4
1,47,95,24
1,45,103,8
1,52,65,0
1,45,103,2836
1,52,93,4
1,52,100,28
1,45,87,4
1,45,95,0
1,52,89,4
1,52,88,28
1,45,92,0
1,52,87,8
1,52,81,4
1,45,81,4
1,45,78,8
1,52,81,4
1,52,94,32
1,45,87,4
1,45,98,4
1,52,83,8
1,52,78,44
1,45,88,0
1,52,74,8
1,52,97,48
1,45,80,4
1,45,88,12
1,52,84,4
1,52,88,36
1,45,89,0
1,52,92,4
1,52,93,4
1,45,79,0
1,57,86,112
1,57,95,40
1,50,88,8
1,50,78,4
1,57,80,8
1,57,91,48
1,50,81,4
1,50,86,28
1,57,74,4
1,57,88,36
1,50,78,4
1,50,88,32
1,57,80,4
1,57,99,36
1,50,79,4
1,45,101,84
1,52,93,8
1,52,97,36
1,45,89,8
1,52,92,8
1,52,99,36
1,45,78,4
1,45,88,4
1,52,81,8
1,52,100,52
1,45,84,4
1,45,83,4
1,52,79,12
1,52,97,48
1,45,77,4
1,45,97,16
1,52,85,4
1,52,95,44
1,45,77,4
1,45,79,16
1,52,85,8
1,52,95,36
1,45,78,4
1,45,87,28
1,52,74,4
1,52,81,4
1,45,73,0
1,45,75,8
1,52,86,4
1,52,93,40
1,45,74,4
1,45,83,0
1,52,76,8
1,52,90,48
1,45,70,4
1,45,88,4
1,52,86,4
1,52,99,28
1,45,72,4
1,45,90,0
1,52,81,8
1,52,98,36
1,45,86,4
1,52,83,4
1,52,99,36
1,47,97,108
1,54,88,4
1,54,92,40
1,47,89,4
1,54,86,8
1,54,102,36
1,47,76,4
1,47,96,0
1,54,87,8
1,54,105,36
1,47,70,4
1,47,79,4
1,54,90,8
1,54,101,36
1,40,79,108
1,47,85,12
1,47,103,72
1,40,58,4
1,40,78,16
1,47,83,12
1,47,85,56
1,40,91,8
1,47,84,12
1,47,99,52
1,40,79,12
1,47,97,12
1,47,97,52
1,45,101,8
1,52,83,8
1,52,98,48
1,45,88,20
1,52,76,8
1,52,92,52
1,45,72,4
1,45,88,0
1,52,86,12
1,52,95,44
1,45,68,4
1,45,94,24
1,52,86,4
1,52,99,36
1,40,92,108
1,47,89,4
1,47,96,40
1,40,92,4
1,47,70,8
1,47,97,40
1,40,91,4
1,47,89,4
1,47,101,36
1,40,88,4
1,47,88,12
1,47,96,52
1,40,86,24
1,50,101,16
1,57,77,12
1,57,101,12
1,50,89,0
1,57,87,8
1,57,91,28
1,50,59,4
1,50,81,4
1,57,86,8
1,57,91,32
1,50,72,4
1,50,98,12
1,57,95,4
1,57,101,0
1,50,81,4
1,40,95,108
1,47,85,12
1,47,99,52
1,40,79,12
1,47,89,8
1,47,80,40
1,40,99,24
1,47,97,8
1,40,85,20
1,47,106,20
1,40,86,4
1,47,91,4
1,45,102,28
1,52,95,8
1,52,102,32
1,45,101,8
1,52,84,4
1,52,99,44
1,49,105,96
1,56,96,8
1,56,94,44
1,49,93,24
1,56,97,4
1,56,88,28
1,50,102,72
1,57,99,12
1,57,92,36
1,50,93,8
1,57,92,8
1,57,94,28
1,42,87,108
1,49,103,188
1,42,80,4
1,42,76,4
1,49,88,0
1,49,92,44
1,47,100,100
1,54,92,8
1,54,89,32
1,47,89,8
1,54,82,4
1,54,84,36
1,40,99,20
1,47,87,12
1,47,101,44
1,40,86,8
1,47,97,16
1,47,96,48
1,45,99,136
1,52,98,0
1,45,102,2848
1,52,95,0
1,52,89,28
1,45,57,4
1,45,101,12
1,52,94,4
1,52,82,32
1,45,98,4
1,52,85,4
1,52,100,28
1,45,68,4
1,52,96,4
1,52,86,28
1,45,101,0
1,52,95,4
1,52,94,20
1,45,93,4
1,45,92,0
1,52,95,8
1,52,99,36
1,45,74,4
1,45,91,0
1,52,86,8
1,52,102,40
1,45,82,4
1,45,88,16
1,52,96,4
1,52,89,24
1,50,99,112
1,57,89,8
1,57,87,32
1,50,76,4
1,50,93,0
1,57,90,4
1,57,89,32
1,50,95,180
1,57,84,4
1,57,95,32
1,50,80,4
1,50,92,36
1,57,93,4
1,57,97,28
1,45,102,100
1,52,96,8
1,52,99,32
1,45,95,4
1,52,81,8
1,52,101,48
1,45,85,4
1,45,94,16
1,52,89,4
1,52,86,32
1,45,91,0
1,52,86,8
1,52,95,0
1,45,80,4
1,45,92,20
1,52,89,4
1,52,101,40
1,45,83,4
1,45,85,0
1,52,88,12
1,52,89,40
1,45,82,4
1,52,89,8
1,52,83,24
1,45,79,12
1,52,89,4
1,52,97,0
1,45,68,4
1,45,85,20
1,52,81,4
1,52,91,24
1,45,86,4
1,52,83,8
1,52,98,28
1,45,78,4
1,45,95,12
1,52,82,4
1,52,99,40
1,45,91,4
1,45,89,8
1,52,95,8
1,52,97,28
1,45,49,4
1,47,97,112
1,54,47,0
1,54,102,36
1,47,88,4
1,47,78,4
1,54,85,4
1,54,103,44
1,47,72,4
1,47,86,16
1,54,90,4
1,54,102,36
1,47,68,4
1,47,83,0
1,54,90,4
1,54,105,8
1,47,88,4
1,40,97,128
1,47,98,12
1,47,88,48
1,40,97,8
1,47,85,16
1,47,96,48
1,47,78,20
1,47,98,0
1,40,85,4
1,40,85,16
1,47,85,12
1,47,100,4
1,40,85,0
1,45,92,20
1,52,97,4
1,52,89,32
1,45,68,4
1,45,89,4
1,52,75,8
1,52,88,40
1,45,85,4
1,52,83,8
1,52,102,32
1,45,79,4
1,45,95,4
1,52,97,8
1,52,94,24
1,40,85,104
1,47,85,12
1,47,94,40
1,40,85,4
1,47,86,12
1,47,86,28
1,40,59,12
1,47,89,4
1,47,99,0
1,40,83,4
1,47,91,12
1,47,93,20
1,50,92,8
1,57,88,8
1,57,82,44
1,50,92,4
1,57,78,0
1,57,83,8
1,50,97,188
1,57,81,4
1,57,99,28
1,50,79,4
1,50,99,32
1,57,89,4
1,57,94,32
1,50,76,4
1,40,98,108
1,47,97,8
1,47,99,48
1,40,89,12
1,47,88,12
1,47,93,48
1,40,89,12
1,47,81,12
1,47,94,44
1,40,66,4
1,40,90,0
1,47,86,4
1,47,101,28
1,45,96,24
1,52,88,8
1,52,99,40
1,45,94,4
1,52,76,8
1,52,97,40
1,56,72,104
1,56,98,36
1,49,78,8
1,49,95,28
1,56,90,4
1,56,94,32
1,57,89,68
1,50,94,0
1,57,91,20
1,50,95,28
1,57,89,4
1,57,86,28
1,42,80,120
1,49,85,0
1,49,95,28
1,42,72,4
1,42,92,0
1,49,75,12
1,49,97,32
1,47,88,84
1,54,21,0
1,54,86,16
1,47,85,4
1,54,80,4
1,54,91,24
1,40,97,76
1,47,89,12
1,47,93,40
1,40,74,20
1,47,94,12
1,47,79,36
1,45,102,0
1,52,84,12
1,52,102,60
1,45,97,4
1,45,96,0
1,52,97,8
1,52,92,32
1,45,56,4
1,45,88,4
1,52,98,4
1,52,97,32
1,45,74,4
1,45,82,8
1,52,89,8
1,52,92,28
1,45,70,4
1,52,92,8
1,52,101,36
1,45,75,4
1,45,94,20
1,52,86,4
1,52,101,44
1,45,85,4
1,45,99,8
1,52,99,12
1,52,99,40
1,45,80,4
1,45,85,12
1,52,98,8
1,52,102,0
1,45,79,4
1,45,88,4
1,52,90,4
1,52,87,40
1,45,81,12
1,52,92,8
1,52,91,40
1,45,93,0
1,52,83,12
1,52,92,48
1,45,76,4
1,45,83,8
1,52,92,8
1,52,100,40
1,45,92,8
1,52,99,4
1,52,96,36
1,45,60,4
1,45,84,8
1,52,88,12
1,52,98,32
1,45,70,4
1,45,72,4
1,52,92,4
1,52,95,28
1,52,89,12
1,52,98,32
1,42,99,0
1,49,89,20
1,49,103,48
1,42,92,4
1,49,94,8
1,49,95,8
1,42,68,8
1,49,92,12
1,49,99,28
1,49,91,12
1,42,78,0
1,49,92,32
1,47,95,108
1,54,101,4
1,54,97,28
1,47,61,0
1,54,91,4
1,54,95,24
1,40,97,52
1,47,98,8
1,47,92,40
1,47,98,36
1,47,83,20
1,40,57,4
1,45,92,52
1,52,98,8
1,52,99,52
1,45,86,4
1,45,99,0
1,52,85,4
1,52,95,40
1,42,97,72
1,49,89,8
1,49,102,52
1,42,72,4
1,42,92,24
1,49,85,4
1,49,96,40
1,47,99,64
1,54,101,4
1,54,94,28
1,47,81,164
1,54,91,4
1,54,99,36
1,40,97,52
1,47,41,4
1,47,96,20
1,47,98,16
1,47,99,32
1,45,101,0
1,52,101,4
1,52,105,1368
1,45,102,0
1,61,66,968
1,64,102,4
1,69,39,0
1,69,105,0
1,64,103,4
1,61,78,0
1,57,94,4
1,61,98,0
1,64,101,0
1,69,100,4
2,45,97,5724
2,45,86,100
2,45,90,88
2,45,91,112
2,45,89,96
2,45,92,120
2,45,89,116
2,45,91,132
2,45,91,156
2,45,90,148
2,45,89,124
2,45,88,148
2,45,85,128
2,45,85,132
2,45,89,136
2,45,91,160
2,38,88,108
2,38,90,104
2,38,89,124
2,38,83,152
2,45,91,132
