track,note,velocity,time
2,34,109,0
2,34,0,180
2,34,88,0
2,34,0,60
2,34,110,0
2,34,0,57
2,31,90,3
2,31,0,60
2,29,88,0
2,29,0,60
2,31,91,0
2,31,0,60
2,34,110,0
2,34,0,180
2,34,89,0
2,34,0,60
2,34,108,0
2,34,0,117
2,34,88,3
2,34,0,60
2,29,88,0
2,29,0,60
2,34,108,0
2,34,0,180
2,34,91,0
2,34,0,60
2,41,109,0
2,41,0,117
2,34,89,3
2,34,0,120
2,38,108,0
2,38,0,180
2,45,88,0
2,45,0,60
2,45,111,0
2,45,0,57
2,36,90,3
2,36,0,120
2,33,88,0
2,33,0,60
2,31,110,0
2,31,0,180
2,31,88,0
2,31,0,60
2,38,108,0
2,38,0,177
2,31,91,3
2,31,0,60
2,34,108,0
2,34,0,180
2,34,89,0
2,34,0,60
2,34,111,0
2,34,0,177
2,38,91,3
2,38,0,60
2,39,111,0
2,39,0,180
2,46,89,0
2,46,0,60
2,46,111,0
2,46,0,117
2,31,88,3
2,31,0,120
2,29,109,0
2,29,0,180
2,36,88,0
2,36,0,60
2,36,109,0
2,36,0,117
2,33,90,3
2,33,0,120
2,34,109,0
2,34,0,180
2,41,90,0
2,41,0,60
2,41,111,0
2,41,0,57
2,36,90,3
2,36,0,60
2,34,88,0
2,34,0,60
2,31,91,0
2,31,0,60
2,29,109,0
2,29,0,180
2,29,91,0
2,29,0,60
2,36,110,0
2,36,0,57
2,33,90,3
2,33,0,60
2,29,89,0
2,29,0,60
2,33,88,0
2,33,0,60
2,34,111,0
2,34,0,180
2,34,91,0
2,34,0,60
2,34,111,0
2,34,0,57
2,29,89,3
2,29,0,120
2,34,89,0
2,34,0,60
2,38,108,0
2,38,0,180
2,38,88,0
2,38,0,60
2,45,109,0
2,45,0,177
2,33,90,3
2,33,0,60
2,31,108,0
2,31,0,180
2,31,91,0
2,31,0,60
2,38,110,0
2,38,0,117
2,31,90,3
2,31,0,120
2,34,111,0
2,34,0,180
2,34,88,0
2,34,0,60
2,41,110,0
2,41,0,117
2,38,91,3
2,38,0,120
2,39,108,0
2,39,0,180
2,39,89,0
2,39,0,60
2,39,110,0
2,39,0,57
2,34,88,3
2,34,0,120
2,31,89,0
2,31,0,60
2,29,108,0
2,29,0,180
2,29,91,0
2,29,0,60
2,36,111,0
2,36,0,117
2,33,89,3
2,33,0,120
2,34,110,0
2,34,0,180
2,34,91,0
2,34,0,60
2,34,109,0
2,34,0,57
2,34,91,3
2,34,0,120
2,29,91,0
2,29,0,60
2,34,111,0
2,34,0,180
2,34,89,0
2,34,0,60
2,34,111,0
2,34,0,57
2,34,88,3
2,34,0,120
2,38,91,0
2,38,0,60
2,39,109,0
2,39,0,180
2,39,91,0
2,39,0,60
2,39,110,0
2,39,0,117
2,36,88,3
2,36,0,120
2,39,110,0
2,39,0,180
2,39,91,0
2,39,0,60
2,46,109,0
2,46,0,177
2,36,88,3
2,36,0,60
2,39,108,0
2,39,0,180
2,39,90,0
2,39,0,60
2,46,110,0
2,46,0,117
2,38,88,3
2,38,0,120
2,39,108,0
2,39,0,180
2,39,88,0
2,39,0,60
2,46,109,0
2,46,0,117
2,31,89,3
2,31,0,120
2,34,111,0
2,34,0,180
2,41,89,0
2,41,0,60
2,41,111,0
2,41,0,117
2,31,88,3
2,31,0,120
2,34,108,0
2,34,0,180
2,41,90,0
2,41,0,60
2,41,109,0
2,41,0,57
2,29,88,3
2,29,0,60
2,31,91,0
2,31,0,120
2,34,109,0
2,34,0,180
2,34,88,0
2,34,0,60
2,41,111,0
2,41,0,57
2,31,90,3
2,31,0,60
2,29,89,0
2,29,0,60
2,31,89,0
2,31,0,60
2,34,109,0
2,34,0,180
2,41,90,0
2,41,0,60
2,41,111,0
2,41,0,117
2,38,91,3
2,38,0,120
2,39,110,0
2,39,0,180
2,46,88,0
2,46,0,60
2,46,110,0
2,46,0,177
2,36,89,3
2,36,0,60
2,39,108,0
2,39,0,180
2,46,90,0
2,46,0,60
2,46,108,0
2,46,0,117
2,36,90,3
2,36,0,120
2,39,110,0
2,39,0,180
2,39,91,0
2,39,0,60
2,39,108,0
2,39,0,177
2,36,89,3
2,36,0,60
2,39,108,0
2,39,0,180
2,39,89,0
2,39,0,60
2,46,108,0
2,46,0,57
2,34,89,3
2,34,0,120
2,31,89,0
2,31,0,60
2,29,110,0
2,29,0,180
2,29,90,0
2,29,0,60
2,36,110,0
2,36,0,117
2,33,91,3
2,33,0,60
2,31,91,0
2,31,0,60
2,29,111,0
2,29,0,180
2,29,89,0
2,29,0,60
2,29,110,0
2,29,0,57
2,36,88,3
2,36,0,120
2,33,89,0
2,33,0,60
2,29,109,0
2,29,0,180
2,36,90,0
2,36,0,60
2,36,109,0
2,36,0,117
2,33,91,3
2,33,0,120
2,29,110,0
2,29,0,60
2,36,110,120
2,36,0,80
2,29,108,100
2,29,0,120
2,34,109,0
2,34,0,180
2,34,90,0
2,34,0,60
2,34,109,0
2,34,0,57
2,29,89,3
2,29,0,120
2,34,89,0
2,34,0,60
2,38,111,0
2,38,0,180
2,38,89,0
2,38,0,60
2,45,108,0
2,45,0,117
2,33,88,3
2,33,0,120
2,31,111,0
2,31,0,180
2,31,89,0
2,31,0,60
2,38,108,0
2,38,0,177
2,31,89,3
2,31,0,60
2,34,110,0
2,34,0,180
2,41,89,0
2,41,0,60
2,41,111,0
2,41,0,117
2,38,88,3
2,38,0,120
2,39,110,0
2,39,0,180
2,39,89,0
2,39,0,60
2,46,110,0
2,46,0,177
2,31,89,3
2,31,0,60
2,29,111,0
2,29,0,180
2,36,88,0
2,36,0,60
2,36,111,0
2,36,0,57
2,29,88,3
2,29,0,60
2,31,90,0
2,31,0,60
2,33,89,0
2,33,0,60
2,34,111,0
2,34,0,180
2,41,90,0
2,41,0,60
2,41,110,0
2,41,0,117
2,29,91,3
2,29,0,120
2,34,108,0
2,34,0,180
2,34,89,0
2,34,0,60
2,34,110,0
2,34,0,57
2,29,88,3
2,29,0,120
2,31,88,0
2,31,0,60
2,34,109,0
2,34,0,180
2,34,90,0
2,34,0,60
2,34,109,0
2,34,0,117
2,34,90,3
2,34,0,60
2,29,90,0
2,29,0,60
2,34,108,0
2,34,0,180
2,34,89,0
2,34,0,60
2,34,110,0
2,34,0,117
2,29,90,3
2,29,0,60
2,34,90,0
2,34,0,60
2,38,111,0
2,38,0,180
2,38,88,0
2,38,0,60
2,38,110,0
2,38,0,57
2,28,91,3
2,28,0,120
2,30,89,0
2,30,0,60
2,31,109,0
2,31,0,180
2,31,91,0
2,31,0,60
2,38,109,0
2,38,0,57
2,38,88,3
2,38,0,120
2,36,91,0
2,36,0,60
2,34,109,0
2,34,0,180
2,41,88,0
2,41,0,60
2,41,109,0
2,41,0,117
2,38,89,3
2,38,0,120
2,39,110,0
2,39,0,180
2,39,89,0
2,39,0,60
2,39,109,0
2,39,0,177
2,31,89,3
2,31,0,60
2,29,110,0
2,29,0,180
2,36,89,0
2,36,0,60
2,36,109,0
2,36,0,117
2,33,88,3
2,33,0,120
2,34,111,0
2,34,0,180
2,34,91,0
2,34,0,60
2,34,108,0
2,34,0,117
2,31,88,3
2,31,0,120
2,29,110,0
2,29,0,180
2,36,88,0
2,36,0,60
2,36,111,0
2,36,0,117
2,31,91,3
2,31,0,60
2,33,89,0
2,33,0,60
2,34,111,0
2,34,0,180
2,34,88,0
2,34,0,60
2,34,110,0
2,34,0,117
2,36,91,3
2,36,0,120
2,38,110,0
2,38,0,180
2,38,89,0
2,38,0,60
2,45,108,0
2,45,0,117
2,35,89,3
2,35,0,60
2,33,88,0
2,33,0,60
2,31,109,0
2,31,0,180
2,31,89,0
2,31,0,60
2,31,108,0
2,31,0,57
2,36,91,3
2,36,0,60
2,38,89,0
2,38,0,60
2,36,88,0
2,36,0,60
2,34,111,0
2,34,0,180
2,41,89,0
2,41,0,60
2,41,110,0
2,41,0,117
2,38,90,3
2,38,0,120
2,39,110,0
2,39,0,180
2,46,90,0
2,46,0,60
2,46,111,0
2,46,0,57
2,34,90,3
2,34,0,60
2,31,91,0
2,31,0,120
2,29,109,0
2,29,0,180
2,29,88,0
2,29,0,60
2,29,110,0
2,29,0,57
2,36,91,3
2,36,0,60
2,38,89,0
2,38,0,60
2,36,89,0
2,36,0,60
2,34,110,0
2,34,0,180
2,34,91,0
2,34,0,60
2,34,111,0
2,34,0,57
2,34,90,3
2,34,0,60
2,29,91,0
2,29,0,120
2,34,110,0
2,34,0,180
2,41,90,0
2,41,0,60
2,41,108,0
2,41,0,117
2,36,91,3
2,36,0,60
2,38,90,0
2,38,0,60
2,39,109,0
2,39,0,180
2,46,88,0
2,46,0,60
2,46,108,0
2,46,0,117
2,36,89,3
2,36,0,120
2,39,111,0
2,39,0,180
2,39,90,0
2,39,0,60
2,46,111,0
2,46,0,57
2,34,90,3
2,34,0,120
2,36,88,0
2,36,0,60
2,39,109,0
2,39,0,180
2,46,91,0
2,46,0,60
2,46,110,0
2,46,0,57
2,34,88,3
2,34,0,120
2,38,88,0
2,38,0,60
2,39,110,0
2,39,0,180
2,46,91,0
2,46,0,60
2,46,108,0
2,46,0,177
2,31,91,3
2,31,0,60
2,34,109,0
2,34,0,180
2,41,89,0
2,41,0,60
2,41,111,0
2,41,0,57
2,29,88,3
2,29,0,120
2,31,90,0
2,31,0,60
2,34,108,0
2,34,0,180
2,34,90,0
2,34,0,60
2,41,108,0
2,41,0,177
2,31,90,3
2,31,0,60
2,34,108,0
2,34,0,180
2,41,91,0
2,41,0,60
2,41,110,0
2,41,0,117
2,36,90,3
2,36,0,120
2,34,109,0
2,34,0,180
2,34,89,0
2,34,0,60
2,41,108,0
2,41,0,57
2,36,89,3
2,36,0,60
2,38,88,0
2,38,0,120
2,39,109,0
2,39,0,180
2,39,90,0
2,39,0,60
2,39,110,0
2,39,0,117
2,36,90,3
2,36,0,120
2,39,109,0
2,39,0,180
2,39,88,0
2,39,0,60
2,39,109,0
2,39,0,117
2,36,91,3
2,36,0,120
2,39,109,0
2,39,0,180
2,46,91,0
2,46,0,60
2,46,108,0
2,46,0,117
2,36,88,3
2,36,0,120
2,39,111,0
2,39,0,180
2,39,90,0
2,39,0,60
2,46,110,0
2,46,0,57
2,36,90,3
2,36,0,60
2,34,91,0
2,34,0,60
2,31,88,0
2,31,0,60
2,29,111,0
2,29,0,180
2,29,90,0
2,29,0,60
2,36,110,0
2,36,0,57
2,36,90,3
2,36,0,120
2,33,91,0
2,33,0,60
2,29,110,0
2,29,0,180
2,29,89,0
2,29,0,60
2,36,110,0
2,36,0,57
2,33,90,3
2,33,0,120
2,31,90,0
2,31,0,60
2,29,111,0
2,29,0,180
2,36,91,0
2,36,0,60
2,36,110,0
2,36,0,117
2,33,91,3
2,33,0,120
2,29,108,0
2,29,0,180
2,36,91,0
2,36,0,60
2,36,109,0
2,36,0,177
2,33,88,3
2,33,0,60
2,34,108,0
2,34,0,180
2,41,90,0
2,41,0,60
2,41,110,0
2,41,0,117
2,29,88,3
2,29,0,60
2,34,88,0
2,34,0,60
2,38,109,0
2,38,0,180
2,45,90,0
2,45,0,60
2,45,109,0
2,45,0,117
2,28,88,3
2,28,0,60
2,30,91,0
2,30,0,60
2,31,110,0
2,31,0,180
2,38,88,0
2,38,0,60
2,38,108,0
2,38,0,117
2,31,90,3
2,31,0,120
2,34,109,0
2,34,0,180
2,34,89,0
2,34,0,60
2,41,109,0
2,41,0,117
2,38,90,3
2,38,0,120
2,39,109,0
2,39,0,180
2,39,89,0
2,39,0,60
2,46,108,0
2,46,0,177
2,31,88,3
2,31,0,60
2,29,108,0
2,29,0,180
2,29,89,0
2,29,0,60
2,29,108,0
2,29,0,57
2,38,90,3
2,38,0,120
2,36,91,0
2,36,0,60
2,34,108,0
2,34,0,180
2,34,89,0
2,34,0,60
2,41,109,0
2,41,0,57
2,38,91,3
2,38,0,120
2,36,89,0
2,36,0,60
2,34,111,0
2,34,0,480
2,34,111,0
2,34,0,479
3,62,85,840
3,62,0,59
3,63,85,1
3,65,100,60
3,63,0,59
3,65,0,120
3,65,85,1
3,65,0,59
3,65,85,1
3,65,0,119
3,74,85,301
3,74,0,59
3,72,85,1
3,72,0,59
3,70,85,1
3,70,0,59
3,69,85,1
3,69,0,59
3,67,85,1
3,67,0,299
3,67,85,121
3,67,0,59
3,68,85,1
3,68,0,179
3,74,85,61
3,74,0,59
3,72,85,1
3,72,0,59
3,70,85,1
3,70,0,59
3,68,85,1
3,68,0,59
3,67,85,1
3,67,0,179
3,67,85,1
3,67,0,59
3,63,85,1
3,63,0,59
3,67,85,1
3,67,0,59
3,70,85,1
3,70,0,119
3,69,85,1
3,69,0,179
3,69,85,61
3,69,0,59
3,69,85,1
3,69,0,59
3,70,85,1
3,70,0,59
3,72,85,1
3,72,0,59
3,65,85,1
3,65,0,179
3,65,85,301
3,65,0,59
3,75,85,1
3,75,0,59
3,74,85,1
3,74,0,59
3,75,85,1
3,75,0,59
3,72,85,1
3,72,0,179
3,62,85,1
3,62,0,59
3,63,85,1
3,65,85,60
3,63,0,59
3,65,0,120
3,65,85,1
3,65,0,59
3,65,85,1
3,65,0,119
3,74,85,301
3,74,0,59
3,72,85,1
3,72,0,59
3,70,85,1
3,70,0,59
3,69,85,1
3,69,0,59
3,67,85,1
3,67,0,299
3,67,85,121
3,67,0,59
3,68,85,1
3,68,0,189
3,74,85,51
3,74,0,59
3,72,85,1
3,72,0,59
3,70,85,1
3,70,0,59
3,68,85,1
3,68,0,59
3,67,85,1
3,67,0,179
3,67,85,1
3,67,0,59
3,63,85,1
3,63,0,59
3,67,85,1
3,67,0,59
3,70,85,1
3,70,0,119
3,69,85,1
3,69,0,239
3,65,85,1
3,65,0,59
3,69,85,1
3,69,0,59
3,70,85,1
3,70,0,59
3,72,85,1
3,72,0,119
3,70,85,1
3,70,0,479
3,67,85,361
3,67,0,119
3,70,85,1
3,70,0,119
3,67,85,1
3,67,0,119
3,67,85,1
3,67,0,119
3,70,85,1
3,70,0,59
3,72,85,1
3,72,0,179
3,67,85,1
3,67,0,59
3,67,85,1
3,67,0,179
3,74,85,121
3,74,0,119
3,67,85,1
3,67,0,59
3,67,85,1
3,67,0,179
3,74,85,1
3,74,0,59
3,72,85,1
3,72,0,179
3,67,85,1
3,67,0,59
3,67,85,1
3,65,85,120
3,67,0,9
3,65,0,50
3,63,85,1
3,63,0,59
3,65,85,1
3,65,0,299
3,65,85,421
3,65,0,59
3,67,85,1
3,67,0,59
3,65,85,1
3,65,0,59
3,63,85,1
3,63,0,59
3,65,85,1
3,65,0,179
3,67,85,721
3,67,0,119
3,70,85,1
3,70,0,119
3,67,85,1
3,67,0,119
3,67,85,1
3,67,0,119
3,70,85,1
3,72,85,120
3,70,0,9
3,72,0,50
3,67,85,1
3,67,0,119
3,67,85,1
3,67,0,179
3,72,85,61
3,72,0,59
3,74,85,1
3,74,0,119
3,67,85,1
3,67,0,119
3,67,85,1
3,72,85,180
3,67,0,9
3,72,0,50
3,72,85,1
3,72,0,59
3,67,85,1
3,67,0,119
3,67,85,1
3,65,85,120
3,67,0,9
3,65,0,50
3,63,85,1
3,63,0,59
3,65,85,1
3,65,0,299
3,65,85,361
3,65,0,119
3,75,85,1
3,75,0,59
3,74,85,1
3,74,0,59
3,75,85,1
3,74,85,60
3,75,0,9
3,74,0,50
3,72,85,1
3,72,0,239
3,62,85,601
3,62,0,59
3,63,85,1
3,63,0,119
3,65,85,1
3,65,0,119
3,65,85,1
3,65,0,59
3,65,85,1
3,65,0,119
3,74,85,301
3,74,0,59
3,72,85,1
3,72,0,59
3,70,85,1
3,70,0,59
3,69,85,1
3,69,0,59
3,67,85,1
3,67,0,299
3,67,85,121
3,67,0,59
3,68,85,1
3,68,0,189
3,74,85,51
3,74,0,59
3,72,85,1
3,72,0,59
3,70,85,1
3,70,0,59
3,68,85,1
3,68,0,59
3,67,85,1
3,67,0,179
