track,note,velocity,time
1,36,87,0
1,36,0,84
1,36,78,44
1,36,0,40
1,36,83,0
1,36,0,84
1,43,76,44
1,43,0,40
1,40,101,24
1,40,0,84
1,40,74,44
1,40,0,40
1,40,84,24
1,40,0,84
1,40,75,44
1,40,0,40
1,38,101,24
1,38,0,84
1,38,71,44
1,38,0,40
1,38,78,24
1,38,0,84
1,38,68,44
1,38,0,40
1,31,101,24
1,31,0,84
1,31,70,44
1,31,0,40
1,31,94,24
1,31,0,84
1,38,82,44
1,38,0,40
1,36,101,24
1,36,0,84
1,36,73,44
1,36,0,40
1,36,82,24
1,36,0,84
1,36,69,44
1,36,0,40
1,40,99,24
1,40,0,84
1,40,76,44
1,40,0,40
1,40,75,24
1,40,0,84
1,47,69,44
1,47,0,40
1,38,101,24
1,38,0,84
1,38,76,44
1,38,0,40
1,38,83,24
1,38,0,84
1,38,78,44
1,38,0,40
1,31,94,24
1,31,0,84
1,31,84,44
1,31,0,40
1,31,82,24
1,31,0,84
1,38,79,44
1,38,0,40
1,36,100,24
1,36,0,84
1,36,69,44
1,36,0,40
1,36,77,24
1,36,0,84
1,36,67,44
1,36,0,40
1,40,103,24
1,40,0,84
1,40,68,44
1,40,0,40
1,40,92,24
1,40,0,84
1,47,79,44
1,47,0,40
1,38,86,24
1,38,0,84
1,38,84,44
1,38,0,40
1,38,94,24
1,38,0,84
1,38,83,44
1,38,0,40
1,31,97,24
1,31,0,84
1,31,80,44
1,31,0,40
1,31,75,24
1,31,0,84
1,38,66,44
1,38,0,40
1,36,96,24
1,36,0,84
1,36,76,44
1,36,0,40
1,36,89,24
1,36,0,84
1,36,81,44
1,36,0,40
1,40,89,24
1,40,0,84
1,40,65,44
1,40,0,40
1,40,85,24
1,40,0,84
1,47,79,44
1,47,0,40
1,38,90,24
1,38,0,84
1,38,68,44
1,38,0,40
1,38,90,24
1,38,0,84
1,38,72,44
1,38,0,40
1,31,88,24
1,31,0,84
1,31,68,44
1,31,0,40
1,31,94,24
1,31,0,84
1,31,77,44
1,31,0,40
1,36,94,24
1,36,0,84
1,36,71,44
1,36,0,40
1,36,89,24
1,36,0,84
1,36,66,44
1,36,0,40
1,40,101,24
1,40,0,84
1,40,71,44
1,40,0,40
1,40,79,24
1,40,0,84
1,47,72,44
1,47,0,40
1,38,93,24
1,38,0,84
1,38,67,44
1,38,0,40
1,38,76,24
1,38,0,84
1,38,84,44
1,38,0,40
1,31,88,24
1,31,0,84
1,31,72,44
1,31,0,40
1,31,90,24
1,31,0,84
1,31,68,44
1,31,0,40
1,33,95,24
1,33,0,84
1,33,83,44
1,33,0,40
1,33,92,24
1,33,0,84
1,33,78,44
1,33,0,40
1,33,90,24
1,33,0,84
1,33,80,44
1,33,0,40
1,33,85,24
1,33,0,84
1,35,83,44
1,35,0,40
1,36,98,24
1,36,0,84
1,36,81,44
1,36,0,40
1,36,86,24
1,36,0,84
1,36,78,44
1,36,0,40
1,36,95,24
1,36,0,84
1,36,77,44
1,36,0,40
1,36,88,24
1,36,0,84
1,35,70,44
1,35,0,40
1,33,93,24
1,33,0,84
1,33,82,44
1,33,0,40
1,33,94,24
1,33,0,84
1,33,77,44
1,33,0,40
1,33,96,24
1,33,0,84
1,33,83,44
1,33,0,40
1,33,86,24
1,33,0,84
1,35,78,44
1,35,0,40
1,36,85,24
1,36,0,84
1,36,84,44
1,36,0,40
1,36,86,24
1,36,0,84
1,36,77,44
1,36,0,40
1,36,99,24
1,36,0,84
1,36,78,44
1,36,0,40
1,36,83,24
1,36,0,84
1,31,75,44
1,31,0,40
1,33,99,24
1,33,0,84
1,33,70,44
1,33,0,40
1,33,94,24
1,33,0,84
1,33,72,44
1,33,0,40
1,33,97,24
1,33,0,84
1,33,73,44
1,33,0,40
1,33,84,24
1,33,0,84
1,35,70,44
1,35,0,40
1,36,92,24
1,36,0,84
1,36,73,44
1,36,0,40
1,36,79,24
1,36,0,84
1,36,74,44
1,36,0,40
1,36,100,24
1,36,0,84
1,36,72,44
1,36,0,40
1,40,84,24
1,40,0,128
1,36,90,64
1,36,0,84
1,36,68,44
1,36,0,40
1,36,78,24
1,36,0,84
1,36,83,44
1,36,0,40
1,36,94,24
1,36,0,84
1,36,76,44
1,36,0,40
1,36,80,24
1,36,0,84
1,41,72,44
1,41,0,40
1,31,103,24
1,31,0,84
1,31,82,44
1,31,0,40
1,31,75,24
1,31,0,84
1,31,74,44
1,31,0,40
1,31,88,24
1,31,0,84
1,31,69,44
1,31,0,40
1,31,80,24
1,31,0,84
1,31,78,44
1,31,0,40
1,31,78,24
1,31,0,84
1,31,83,44
1,31,0,40
1,31,82,24
1,31,0,84
1,31,76,44
1,31,0,40
1,31,91,24
1,31,0,84
1,31,80,44
1,31,0,40
1,31,93,24
1,31,0,84
1,35,76,44
1,35,0,40
1,36,90,24
1,36,0,84
1,36,72,44
1,36,0,40
1,36,79,24
1,36,0,84
1,36,77,44
1,36,0,40
1,40,92,24
1,40,0,84
1,40,78,44
1,40,0,40
1,40,92,24
1,40,0,84
1,40,68,44
1,40,0,40
1,38,96,24
1,38,0,84
1,38,77,44
1,38,0,40
1,38,93,24
1,38,0,84
1,38,73,44
1,38,0,40
1,31,93,24
1,31,0,84
1,31,69,44
1,31,0,40
1,31,89,24
1,31,0,84
1,38,81,44
1,38,0,40
1,36,104,24
1,36,0,84
1,36,76,44
1,36,0,40
1,36,92,24
1,36,0,84
1,36,65,44
1,36,0,40
1,40,86,24
1,40,0,84
1,40,72,44
1,40,0,40
1,40,77,24
1,40,0,84
1,40,74,44
1,40,0,40
1,38,92,24
1,38,0,84
1,38,75,44
1,38,0,40
1,38,90,24
1,38,0,84
1,38,73,44
1,38,0,40
1,31,91,24
1,31,0,84
1,31,83,44
1,31,0,40
1,31,83,24
1,31,0,84
1,38,70,44
1,38,0,40
1,36,87,24
1,36,0,84
1,36,70,44
1,36,0,40
1,36,84,24
1,36,0,84
1,36,77,44
1,36,0,40
1,40,100,24
1,40,0,84
1,40,75,44
1,40,0,40
1,40,94,24
1,40,0,84
1,47,77,44
1,47,0,40
1,38,90,24
1,38,0,84
1,38,78,44
1,38,0,40
1,38,87,24
1,38,0,84
1,38,83,44
1,38,0,40
1,31,97,24
1,31,0,84
1,31,78,44
1,31,0,40
1,31,75,24
1,31,0,84
1,38,67,44
1,38,0,40
1,36,92,24
1,36,0,84
1,36,74,44
1,36,0,40
1,36,86,24
1,36,0,84
1,36,73,44
1,36,0,40
1,40,92,24
1,40,0,84
1,40,65,44
1,40,0,40
1,40,88,24
1,40,0,84
1,40,77,44
1,40,0,40
1,38,85,24
1,38,0,84
1,38,72,44
1,38,0,40
1,38,80,24
1,38,0,84
1,38,69,44
1,38,0,40
1,31,100,24
1,31,0,84
1,31,82,44
1,31,0,40
1,31,81,24
1,31,0,84
1,38,76,44
1,38,0,40
1,33,91,24
1,33,0,84
1,33,73,44
1,33,0,40
1,33,87,24
1,33,0,84
1,33,79,44
1,33,0,40
1,33,99,24
1,33,0,84
1,33,74,44
1,33,0,40
1,33,88,24
1,33,0,84
1,37,76,44
1,37,0,40
1,36,93,24
1,36,0,84
1,36,78,44
1,36,0,40
1,36,82,24
1,36,0,84
1,36,74,44
1,36,0,40
1,36,103,24
1,36,0,84
1,36,74,44
1,36,0,40
1,36,87,24
1,36,0,84
1,35,79,44
1,35,0,40
1,33,92,24
1,33,0,84
1,33,73,44
1,33,0,40
1,33,90,24
1,33,0,84
1,33,66,44
1,33,0,40
1,33,90,24
1,33,0,84
1,33,66,44
1,33,0,40
1,33,78,24
1,33,0,84
1,37,72,44
1,37,0,40
1,36,89,24
1,36,0,84
1,36,71,44
1,36,0,40
1,36,89,24
1,36,0,84
1,36,75,44
1,36,0,40
1,36,99,24
1,36,0,84
1,36,76,44
1,36,0,40
1,36,77,24
1,36,0,84
1,35,75,44
1,35,0,40
1,33,96,24
1,33,0,84
1,33,75,44
1,33,0,40
1,33,88,24
1,33,0,84
1,33,70,44
1,33,0,40
1,33,102,24
1,33,0,84
1,33,65,44
1,33,0,40
1,33,92,24
1,33,0,84
1,37,72,44
1,37,0,40
1,36,104,24
1,36,0,84
1,36,74,44
1,36,0,40
1,36,88,24
1,36,0,84
1,36,70,44
1,36,0,40
1,36,95,24
1,36,0,84
1,36,72,44
1,36,0,40
1,40,80,24
1,40,0,128
1,36,89,64
1,36,0,84
1,36,80,44
1,36,0,40
1,36,86,24
1,36,0,84
1,36,82,44
1,36,0,40
1,36,93,24
1,36,0,84
1,36,79,44
1,36,0,40
1,36,86,24
1,36,0,84
1,42,80,44
1,42,0,40
1,31,104,24
1,31,0,84
1,31,75,44
1,31,0,40
1,31,82,24
1,31,0,84
1,31,67,44
1,31,0,40
1,31,103,24
1,31,0,84
1,31,68,44
1,31,0,40
1,31,83,24
1,31,0,84
1,33,74,44
1,33,0,40
1,34,90,24
1,34,0,104
1,34,99,24
1,34,0,80
1,29,72,112
1,29,0,64
1,34,91,0
1,34,0,96
1,34,92,32
1,34,0,80
1,36,82,48
1,36,0,48
1,38,87,16
1,38,0,48
1,39,89,16
1,39,0,104
1,39,108,24
1,39,0,80
1,39,82,112
1,39,0,64
1,39,93,0
1,39,0,4
1,39,91,124
1,39,0,80
1,33,83,48
1,33,0,48
1,30,85,16
1,30,0,48
1,31,87,16
1,31,0,104
1,31,99,24
1,31,0,80
1,26,75,112
1,26,0,64
1,31,89,0
1,31,0,96
1,31,97,32
1,31,0,80
1,34,71,48
1,34,0,48
1,31,84,16
1,31,0,48
1,32,94,16
1,32,0,104
1,32,103,24
1,32,0,80
1,27,69,112
1,27,0,64
1,32,97,0
1,32,0,96
1,32,102,32
1,32,0,80
1,36,74,48
1,36,0,48
1,35,99,16
1,35,0,48
1,34,83,16
1,34,0,104
1,34,94,24
1,34,0,80
1,34,78,112
1,34,0,64
1,34,94,0
1,34,0,4
1,34,99,124
1,34,0,80
1,32,74,48
1,32,0,48
1,31,91,16
1,31,0,48
1,30,90,16
1,30,0,104
1,30,107,24
1,30,0,80
1,30,66,112
1,30,0,64
1,30,81,0
1,30,0,4
1,30,103,124
1,30,0,80
1,36,77,48
1,36,0,48
1,35,94,16
1,35,0,48
1,34,97,16
1,34,0,104
1,34,104,24
1,34,0,80
1,29,66,112
1,29,0,64
1,34,99,0
1,34,0,96
1,34,97,32
1,34,0,80
1,36,74,48
1,36,0,48
1,35,96,16
1,35,0,48
1,34,93,16
1,34,0,104
1,34,94,24
1,34,0,80
1,34,80,112
1,34,0,64
1,34,96,0
1,34,0,4
1,34,101,124
1,34,0,80
1,34,78,48
1,34,0,48
1,29,80,16
1,29,0,48
1,31,92,16
1,31,0,104
1,31,109,24
1,31,0,80
1,26,68,112
1,26,0,64
1,31,90,0
1,31,0,96
1,31,98,32
1,31,0,80
1,33,87,48
1,33,0,48
1,35,83,16
1,35,0,48
1,36,86,16
1,36,0,84
1,36,73,44
1,36,0,40
1,36,85,24
1,36,0,84
1,36,76,44
1,36,0,40
1,40,101,24
1,40,0,84
1,40,66,44
1,40,0,40
1,40,76,24
1,40,0,84
1,40,79,44
1,40,0,40
1,38,95,24
1,38,0,84
1,38,75,44
1,38,0,40
1,38,91,24
1,38,0,84
1,38,78,44
1,38,0,40
1,31,93,24
1,31,0,84
1,31,79,44
1,31,0,40
1,31,85,24
1,31,0,84
1,33,69,44
1,33,0,40
1,36,103,24
1,36,0,84
1,36,79,44
1,36,0,40
1,36,81,24
1,36,0,84
1,36,70,44
1,36,0,40
1,40,86,24
1,40,0,84
1,40,77,44
1,40,0,40
1,40,88,24
1,40,0,84
1,40,83,44
1,40,0,40
1,38,97,24
1,38,0,84
1,38,70,44
1,38,0,40
1,38,84,24
1,38,0,84
1,38,67,44
1,38,0,40
1,31,86,24
1,31,0,84
1,31,81,44
1,31,0,40
1,31,83,24
1,31,0,84
1,33,74,44
1,33,0,40
1,36,93,24
1,36,0,84
1,36,83,44
1,36,0,40
1,36,77,24
1,36,0,84
1,36,70,44
1,36,0,40
1,40,93,24
1,40,0,84
1,40,81,44
1,40,0,40
1,40,80,24
1,40,0,84
1,40,75,44
1,40,0,40
1,38,88,24
1,38,0,84
1,38,69,44
1,38,0,40
1,38,79,24
1,38,0,84
1,38,77,44
1,38,0,40
1,31,95,24
1,31,0,84
1,31,82,44
1,31,0,40
1,31,89,24
1,31,0,84
1,31,84,44
1,31,0,40
1,36,101,24
1,36,0,84
1,36,73,44
1,36,0,40
1,36,79,24
1,36,0,84
1,36,84,44
1,36,0,40
1,40,86,24
1,40,0,84
1,40,65,44
1,40,0,40
1,40,89,24
1,40,0,84
1,40,79,44
1,40,0,40
1,38,96,24
1,38,0,84
1,38,72,44
1,38,0,40
1,38,80,24
1,38,0,84
1,38,71,44
1,38,0,40
1,31,98,24
1,31,0,84
1,31,71,44
1,31,0,40
1,31,92,24
1,31,0,84
1,33,66,44
1,33,0,40
1,33,92,24
1,33,0,84
1,33,70,44
1,33,0,40
1,33,77,24
1,33,0,84
1,33,68,44
1,33,0,40
1,33,96,24
1,33,0,84
1,33,84,44
1,33,0,40
1,33,79,24
1,33,0,84
1,35,66,44
1,35,0,40
1,36,103,24
1,36,0,84
1,36,82,44
1,36,0,40
1,36,84,24
1,36,0,84
1,36,83,44
1,36,0,40
1,36,93,24
1,36,0,84
1,36,80,44
1,36,0,40
1,36,83,24
1,36,0,84
1,31,71,44
1,31,0,40
1,33,103,24
1,33,0,84
1,33,73,44
1,33,0,40
1,33,92,24
1,33,0,84
1,33,70,44
1,33,0,40
1,33,95,24
1,33,0,84
1,33,67,44
1,33,0,40
1,33,83,24
1,33,0,84
1,37,75,44
1,37,0,40
1,36,88,24
1,36,0,84
1,36,67,44
1,36,0,40
1,36,80,24
1,36,0,84
1,36,70,44
1,36,0,40
1,36,97,24
1,36,0,84
1,36,69,44
1,36,0,40
1,36,94,24
1,36,0,84
1,31,77,44
1,31,0,40
1,33,91,24
1,33,0,84
1,33,82,44
1,33,0,40
1,33,87,24
1,33,0,84
1,33,69,44
1,33,0,40
1,33,102,24
1,33,0,84
1,33,79,44
1,33,0,40
1,33,94,24
1,33,0,84
1,35,74,44
1,35,0,40
1,36,97,24
1,36,0,84
1,36,69,44
1,36,0,40
1,36,82,24
1,36,0,84
1,36,72,44
1,36,0,40
1,36,96,24
1,36,0,84
1,36,83,44
1,36,0,40
1,40,84,24
1,40,0,128
1,36,98,64
1,36,0,84
1,36,70,44
1,36,0,40
1,36,79,24
1,36,0,84
1,36,81,44
1,36,0,40
1,36,104,24
1,36,0,84
1,36,71,44
1,36,0,40
1,36,80,24
1,36,0,84
1,42,72,44
1,42,0,40
1,31,88,24
1,31,0,84
1,31,82,44
1,31,0,40
1,31,83,24
1,31,0,84
1,31,70,44
1,31,0,40
1,31,101,24
1,31,0,84
1,31,80,44
1,31,0,40
1,31,93,24
1,31,0,84
1,31,70,44
1,31,0,40
1,31,70,24
1,31,0,84
1,31,68,44
1,31,0,40
1,31,87,24
1,31,0,84
1,31,77,44
1,31,0,40
1,31,94,24
1,31,0,84
1,31,83,44
1,31,0,40
1,31,92,24
1,31,0,84
1,35,65,44
1,35,0,40
1,36,100,24
1,36,0,84
1,36,82,44
1,36,0,40
1,36,83,24
1,36,0,84
1,36,82,44
1,36,0,40
1,40,103,24
1,40,0,84
1,40,73,44
1,40,0,40
1,40,86,24
1,40,0,84
1,42,83,44
1,42,0,40
1,38,100,24
1,38,0,84
1,38,78,44
1,38,0,40
1,38,90,24
1,38,0,84
1,38,74,44
1,38,0,40
1,31,92,24
1,31,0,84
1,31,72,44
1,31,0,40
1,31,84,24
1,31,0,84
1,33,65,44
1,33,0,40
1,36,87,24
1,36,0,84
1,36,75,44
1,36,0,40
1,36,75,24
1,36,0,84
1,36,73,44
1,36,0,40
1,36,103,24
1,36,0,84
1,36,80,44
1,36,0,40
1,36,75,24
1,36,0,84
1,37,83,44
1,37,0,40
