track,note,velocity,time
1,47,77,0
1,47,0,90
1,47,92,30
1,47,0,360
1,49,48,0
1,49,0,60
1,51,50,0
1,51,0,60
1,52,51,0
1,52,0,60
1,54,52,0
1,54,0,60
1,56,53,0
1,56,0,60
1,57,54,0
1,57,0,60
1,59,55,0
1,59,0,60
1,61,56,0
1,61,0,60
1,63,57,0
1,63,0,60
1,64,58,0
1,64,0,60
1,66,59,0
1,66,0,60
1,68,61,0
1,68,0,60
1,69,62,0
1,69,0,60
1,71,63,0
1,71,0,60
1,73,63,0
1,73,0,60
1,75,64,0
1,75,0,60
1,76,66,0
1,76,0,60
1,78,67,0
1,78,0,60
1,80,68,0
1,80,0,60
1,81,69,0
1,81,0,60
1,83,70,0
1,83,0,60
1,85,72,0
1,85,0,60
1,87,72,0
1,87,0,60
1,88,73,0
1,88,0,60
1,90,74,0
1,90,0,60
1,92,75,0
1,92,0,60
1,93,77,0
1,93,0,60
1,95,98,0
1,95,0,180
1,49,77,120
1,47,64,0
1,47,0,90
1,49,0,0
1,49,92,30
1,47,78,0
1,47,0,360
1,49,0,0
1,51,48,0
1,51,0,60
1,52,50,0
1,52,0,60
1,54,51,0
1,54,0,60
1,56,52,0
1,56,0,60
1,57,53,0
1,57,0,60
1,59,54,0
1,59,0,60
1,61,55,0
1,61,0,60
1,63,56,0
1,63,0,60
1,64,57,0
1,64,0,60
1,66,58,0
1,66,0,60
1,68,59,0
1,68,0,60
1,69,61,0
1,69,0,60
1,71,62,0
1,71,0,60
1,73,63,0
1,73,0,60
1,75,63,0
1,75,0,60
1,76,64,0
1,76,0,60
1,78,66,0
1,78,0,60
1,80,67,0
1,80,0,60
1,81,68,0
1,81,0,60
1,83,69,0
1,83,0,60
1,85,70,0
1,85,0,60
1,87,72,0
1,87,0,60
1,88,72,0
1,88,0,60
1,90,73,0
1,90,0,60
1,92,74,0
1,92,0,60
1,93,75,0
1,93,0,60
1,95,77,0
1,95,0,60
1,97,98,0
1,97,0,180
1,54,77,120
1,52,64,0
1,52,0,90
1,54,0,0
1,54,92,30
1,52,78,0
1,52,0,360
1,54,0,0
1,56,52,0
1,56,0,60
1,57,53,0
1,57,0,60
1,59,55,0
1,59,0,60
1,61,56,0
1,61,0,60
1,63,57,0
1,63,0,60
1,64,59,0
1,64,0,60
1,66,60,0
1,66,0,60
1,68,61,0
1,68,0,60
1,69,62,0
1,69,0,60
1,71,64,0
1,71,0,60
1,73,65,0
1,73,0,60
1,75,66,0
1,75,0,60
1,76,68,0
1,76,0,60
1,78,69,0
1,78,0,60
1,80,70,0
1,80,0,60
1,81,72,0
1,81,0,60
1,83,73,0
1,83,0,60
1,85,74,0
1,85,0,60
1,87,76,0
1,87,0,60
1,88,77,0
1,88,0,60
1,90,78,0
1,90,0,60
1,92,80,0
1,92,0,60
1,93,81,0
1,93,0,60
1,95,82,0
1,95,0,60
1,97,83,0
1,97,0,60
1,99,85,0
1,99,0,60
1,100,86,0
1,100,0,60
1,102,98,0
1,102,0,420
1,64,66,330
1,69,68,10
1,73,70,10
1,78,72,10
1,78,0,170
1,64,0,0
1,69,0,0
1,73,0,0
1,76,70,40
1,81,72,10
1,84,73,10
1,90,75,10
1,90,0,220
1,76,0,0
1,81,0,0
1,84,0,0
1,71,76,20
1,57,64,0
1,63,64,0
1,63,0,100
1,57,0,0
1,71,0,0
1,83,79,20
1,75,67,0
1,69,67,0
1,69,0,100
1,75,0,0
1,83,0,0
1,95,95,20
1,87,80,0
1,81,80,0
1,81,0,120
1,87,0,0
1,95,0,0
1,71,77,540
1,59,65,0
1,59,0,45
1,71,0,0
1,71,77,15
1,59,65,0
1,64,65,0
1,64,0,240
1,59,0,0
1,71,0,0
1,73,61,0
1,61,52,0
1,61,0,60
1,73,0,0
1,75,63,60
1,63,53,0
1,63,0,60
1,75,0,0
1,76,65,60
1,64,55,0
1,64,0,60
1,76,0,0
1,78,67,60
1,66,57,0
1,66,0,60
1,78,0,0
1,80,69,60
1,68,58,0
1,68,0,60
1,80,0,0
1,69,71,60
1,81,71,0
1,81,0,60
1,69,0,0
1,83,73,60
1,71,61,0
1,71,0,120
1,83,0,0
1,78,65,240
1,81,65,0
1,69,55,0
1,69,0,60
1,81,0,0
1,78,0,0
1,80,71,60
1,68,59,0
1,76,59,0
1,76,0,90
1,68,0,0
1,80,0,0
1,78,65,150
1,66,55,0
1,71,55,0
1,71,0,90
1,66,0,0
1,78,0,0
1,71,73,150
1,78,73,0
1,66,61,0
1,66,0,240
1,78,0,0
1,76,66,0
1,64,56,0
1,64,0,180
1,76,0,0
1,78,65,0
1,78,0,60
1,71,0,0
1,71,73,0
1,76,73,0
1,64,61,0
1,64,0,90
1,76,0,0
1,71,0,0
1,75,62,150
1,63,53,0
1,63,0,90
1,75,0,0
1,76,68,150
1,64,57,0
1,71,57,0
1,71,0,240
1,64,0,0
1,76,0,0
1,68,65,600
1,72,77,0
1,60,65,0
1,60,0,120
1,72,0,0
1,68,0,0
1,73,77,0
1,61,65,0
1,69,65,0
1,69,0,240
1,61,0,0
1,73,0,0
1,71,52,0
1,75,61,0
1,63,52,0
1,63,0,60
1,75,0,0
1,71,0,0
1,73,53,60
1,76,63,0
1,64,53,0
1,64,0,60
1,76,0,0
1,73,0,0
1,75,55,60
1,78,65,0
1,66,55,0
1,66,0,60
1,78,0,0
1,75,0,0
1,76,57,60
1,80,67,0
1,68,57,0
1,68,0,60
1,80,0,0
1,76,0,0
1,78,58,60
1,81,69,0
1,69,58,0
1,69,0,60
1,81,0,0
1,78,0,0
1,80,71,60
1,71,71,0
1,83,71,0
1,83,0,60
1,71,0,0
1,80,0,0
1,81,61,60
1,85,73,0
1,73,61,0
1,73,0,120
1,85,0,0
1,81,0,0
1,80,65,240
1,83,65,0
1,71,55,0
1,71,0,60
1,83,0,0
1,80,0,0
1,81,71,60
1,69,59,0
1,78,59,0
1,78,0,90
1,69,0,0
1,81,0,0
1,80,65,150
1,68,55,0
1,76,55,0
1,76,0,90
1,68,0,0
1,80,0,0
1,76,61,150
1,80,73,0
1,68,61,0
1,68,0,240
1,80,0,0
1,76,0,0
1,75,56,0
1,78,66,0
1,66,56,0
1,66,0,180
1,78,0,0
1,75,0,0
1,80,65,0
1,80,0,60
1,75,61,0
1,78,73,0
1,66,61,0
1,66,0,90
1,78,0,0
1,75,0,0
1,74,53,150
1,77,62,0
1,65,53,0
1,65,0,90
1,77,0,0
1,74,0,0
1,78,68,150
1,66,57,0
1,75,57,0
1,75,0,240
1,66,0,0
1,78,0,0
1,79,62,600
1,70,52,0
1,67,52,0
1,67,0,120
1,70,0,0
1,79,0,0
1,80,62,0
1,68,52,0
1,71,52,0
1,71,0,240
1,68,0,0
1,80,0,0
1,81,57,0
1,73,48,0
1,69,48,0
1,69,0,60
1,73,0,0
1,81,0,0
1,75,49,60
1,83,58,0
1,71,49,0
1,71,0,60
1,83,0,0
1,75,0,0
1,85,60,60
1,76,51,0
1,73,51,0
1,73,0,60
1,76,0,0
1,85,0,0
1,87,61,60
1,78,51,0
1,75,51,0
1,75,0,60
1,78,0,0
1,87,0,0
1,88,62,60
1,80,52,0
1,76,52,0
1,76,0,60
1,80,0,0
1,88,0,0
1,90,63,60
1,81,53,0
1,78,53,0
1,78,0,60
1,81,0,0
1,90,0,0
1,92,65,60
1,84,55,0
1,80,55,0
1,80,0,120
1,84,0,0
1,92,0,0
1,90,59,240
1,81,50,0
1,78,50,0
1,78,0,40
1,81,0,0
1,90,0,0
1,90,53,20
1,78,45,0
1,81,45,0
1,81,0,60
1,78,0,0
1,90,0,0
1,88,62,0
1,76,52,0
1,80,52,0
1,80,0,120
1,76,0,0
1,88,0,0
1,87,62,120
1,75,52,0
1,78,52,0
1,78,0,120
1,75,0,0
1,87,0,0
1,88,58,120
1,76,49,0
1,80,49,0
1,80,0,120
1,76,0,0
1,88,0,0
1,84,56,120
1,72,47,0
1,75,47,0
1,75,0,120
1,72,0,0
1,84,0,0
1,85,58,120
1,73,49,0
1,76,49,0
1,76,0,120
1,73,0,0
1,85,0,0
1,87,60,120
1,75,51,0
1,78,51,0
1,78,0,120
1,75,0,0
1,87,0,0
1,88,62,120
1,76,52,0
1,80,52,0
1,80,0,120
1,76,0,0
1,88,0,0
1,90,63,120
1,78,53,0
1,81,53,0
1,81,0,120
1,78,0,0
1,90,0,0
1,92,65,120
1,80,55,0
1,83,55,0
1,83,0,120
1,80,0,0
1,92,0,0
1,93,67,120
1,81,56,0
1,84,56,0
1,84,0,120
1,81,0,0
1,93,0,0
1,80,65,60
1,88,68,30
1,95,72,30
1,95,0,120
1,88,0,0
1,80,0,0
1,88,63,240
1,80,53,0
1,76,53,0
1,76,0,120
1,80,0,0
1,88,0,0
1,90,65,0
1,81,55,0
1,78,55,0
1,78,0,90
1,81,0,0
1,90,0,0
1,92,68,150
1,83,57,0
1,80,57,0
1,80,0,90
1,83,0,0
1,92,0,0
1,93,71,150
1,85,60,0
1,81,60,0
1,81,0,120
1,85,0,0
1,93,0,0
1,83,63,240
1,75,53,0
1,71,53,0
1,71,0,120
1,75,0,0
1,83,0,0
1,85,65,0
1,76,55,0
1,73,55,0
1,73,0,90
1,76,0,0
1,85,0,0
1,87,68,150
1,78,57,0
1,75,57,0
1,75,0,90
1,78,0,0
1,87,0,0
1,90,73,150
1,81,62,0
1,78,62,0
1,78,0,240
1,81,0,0
1,90,0,0
1,88,66,0
1,80,56,0
1,76,56,0
1,76,0,180
1,80,0,0
1,88,0,0
1,90,60,0
1,78,51,0
1,81,51,0
1,81,0,60
1,78,0,0
1,90,0,0
1,88,67,0
1,80,56,0
1,76,56,0
1,76,0,90
1,80,0,0
1,88,0,0
1,87,62,150
1,78,52,0
1,75,52,0
1,75,0,90
1,78,0,0
1,87,0,0
1,88,66,150
1,76,56,0
1,80,56,0
1,80,0,240
1,76,0,0
1,88,0,0
1,59,80,600
1,56,80,0
1,56,0,90
1,59,0,0
1,59,86,30
1,56,72,0
1,56,0,240
1,59,0,0
1,61,73,0
1,57,61,0
1,57,0,120
1,61,0,0
1,63,76,0
1,59,65,0
1,59,0,60
1,63,0,0
1,64,79,60
1,61,67,0
1,61,0,60
1,64,0,0
1,73,66,540
1,73,0,60
1,75,66,0
1,75,0,60
1,76,67,0
1,76,0,60
1,78,68,0
1,78,0,60
1,80,69,0
1,80,0,60
1,81,69,0
1,81,0,60
1,83,70,0
1,83,0,60
1,85,71,0
1,85,0,60
1,87,72,0
1,87,0,60
1,88,72,0
1,88,0,60
1,90,73,0
1,90,0,60
1,92,74,0
1,92,0,60
1,93,75,0
1,93,0,60
1,94,75,0
1,94,0,60
1,95,75,0
1,95,0,60
1,97,69,0
1,97,0,60
1,95,72,0
1,95,0,60
1,97,69,0
1,95,72,60
1,95,0,60
1,97,0,0
1,97,68,0
1,97,0,60
1,95,72,0
1,95,0,60
1,97,69,0
1,97,0,60
1,95,72,0
1,95,0,60
1,97,70,0
1,97,0,60
1,95,72,0
1,95,0,60
1,97,70,0
1,95,72,60
1,97,0,60
1,95,0,20
1,94,70,0
1,94,0,80
1,95,71,0
1,88,73,60
1,92,76,10
1,95,0,10
1,100,80,0
1,100,0,120
1,92,0,0
1,88,0,0
1,60,80,720
1,56,80,0
1,56,0,120
1,60,0,0
1,61,86,0
1,57,72,0
1,57,0,240
1,61,0,0
1,63,73,0
1,59,61,0
1,59,0,120
1,63,0,0
1,64,76,0
1,61,65,0
1,61,0,60
1,64,0,0
1,66,79,60
1,63,67,0
1,63,0,60
1,66,0,0
1,75,66,540
1,75,0,60
1,76,66,0
1,76,0,60
1,78,67,0
1,78,0,60
1,80,68,0
1,80,0,60
1,81,69,0
1,81,0,60
1,83,69,0
1,83,0,60
1,85,70,0
1,85,0,60
1,87,71,0
1,87,0,60
1,88,72,0
1,88,0,60
1,90,72,0
1,90,0,60
1,92,73,0
1,92,0,60
1,94,74,0
1,94,0,60
1,95,75,0
1,95,0,60
1,96,75,0
1,96,0,60
1,97,75,0
1,97,0,60
1,99,69,0
1,99,0,60
1,97,72,0
1,97,0,60
1,99,69,0
1,97,72,60
1,97,0,60
1,99,0,0
1,99,68,0
1,99,0,60
1,97,72,0
1,97,0,60
1,99,69,0
1,99,0,60
1,97,72,0
1,97,0,60
1,99,70,0
1,99,0,60
1,97,72,0
1,97,0,60
1,99,70,0
1,99,0,60
1,97,72,0
1,97,0,60
1,96,70,0
1,96,0,60
1,97,70,0
1,97,0,60
1,102,71,0
1,102,0,60
1,95,80,0
1,90,73,0
1,95,0,120
1,90,0,20
1,79,60,700
1,70,46,0
1,70,0,120
1,79,0,0
1,80,60,0
1,71,46,0
1,71,0,240
1,80,0,0
1,81,56,0
1,73,43,0
1,73,0,120
1,81,0,0
1,75,44,0
1,83,57,0
1,83,0,120
1,75,0,0
1,85,59,0
1,76,45,0
1,76,0,120
1,85,0,0
1,87,59,0
1,78,45,0
1,78,0,120
1,87,0,0
1,88,60,0
1,80,46,0
1,80,0,120
1,88,0,0
1,90,61,0
1,81,47,0
1,81,0,120
1,90,0,0
1,92,63,0
1,84,49,0
1,84,0,120
1,92,0,0
1,81,47,0
1,90,47,0
1,90,0,60
1,92,47,0
1,92,0,60
1,90,53,0
1,90,0,60
1,81,0,0
1,80,52,60
1,88,57,0
1,88,0,60
1,90,52,0
1,90,0,60
1,88,55,0
1,80,0,60
1,88,0,60
1,78,51,0
1,87,56,0
1,87,0,60
1,86,51,0
1,86,0,60
1,87,60,0
1,78,0,60
1,87,0,60
1,80,49,0
1,87,49,0
1,87,0,60
1,88,49,0
1,88,0,60
1,88,57,0
1,80,0,60
1,88,0,60
1,75,47,0
1,84,47,0
1,84,0,60
1,83,47,0
1,83,0,60
1,84,55,0
1,75,0,60
1,84,0,60
1,76,48,0
1,85,48,0
1,85,0,60
1,84,48,0
1,84,0,60
1,85,57,0
1,76,0,60
1,85,0,60
1,78,51,0
1,87,51,0
1,87,0,60
1,85,51,0
1,85,0,60
1,87,59,0
1,78,0,60
1,87,0,60
1,80,50,0
1,88,50,0
1,88,0,60
1,87,50,0
1,87,0,60
1,88,60,0
1,80,0,60
1,88,0,60
1,81,53,0
1,90,53,0
1,90,0,60
1,88,53,0
1,88,0,60
1,90,61,0
1,81,0,60
1,90,0,60
1,83,53,0
1,92,53,0
1,92,0,60
1,90,53,0
1,90,0,60
1,92,63,0
1,83,0,60
1,92,0,60
1,84,52,0
1,93,57,0
1,93,0,60
1,92,52,0
1,92,0,60
1,93,60,0
1,84,0,60
1,93,0,60
1,80,58,60
1,88,61,30
1,95,70,30
1,70,41,60
1,70,0,60
1,80,0,0
1,88,0,0
1,95,0,0
1,71,41,0
1,71,0,60
1,73,42,0
1,73,0,60
1,75,43,0
1,75,0,60
1,76,44,0
1,76,0,60
1,78,45,0
1,78,0,60
1,80,45,0
1,80,0,60
1,81,45,0
1,81,0,60
1,83,45,0
1,83,0,60
1,85,46,0
1,85,0,60
1,87,47,0
1,87,0,60
1,88,47,0
1,88,0,60
1,90,48,0
1,90,0,60
1,92,49,0
1,92,0,60
1,95,52,0
1,95,0,60
1,93,42,0
1,70,42,96
1,93,0,24
1,70,0,24
1,71,43,0
1,71,0,48
1,73,44,0
1,73,0,48
1,75,45,0
1,75,0,48
1,76,45,0
1,76,0,48
1,78,45,0
1,78,0,48
1,80,45,0
1,81,45,48
1,80,0,12
1,81,0,36
1,83,46,0
1,83,0,48
1,85,47,0
1,85,0,48
1,87,48,0
1,87,0,48
1,88,48,0
1,88,0,48
1,90,49,0
1,90,0,48
1,92,50,0
1,92,0,48
1,93,50,0
1,93,0,48
1,95,50,0
1,95,0,48
1,97,51,0
1,97,0,48
1,99,51,0
1,99,0,48
1,102,64,0
1,95,50,0
1,90,50,0
1,90,0,240
1,95,0,0
1,102,0,0
1,100,55,0
1,88,42,0
1,102,50,180
1,102,0,60
1,88,0,0
1,100,0,0
1,100,60,0
1,95,46,0
