track,note,velocity,time
1,63,127,1189
1,63,127,28
1,63,127,12
1,62,127,0
1,63,127,48
1,58,127,189
1,60,127,20
1,63,127,2
1,63,127,10
1,60,127,48
1,58,127,44
1,63,127,46
1,63,127,7
1,65,127,6
1,66,127,8
1,65,127,0
1,63,127,48
1,60,127,47
1,63,127,0
1,63,127,2
1,63,127,12
1,63,127,5
1,63,127,24
1,63,127,10
1,63,127,13
1,65,127,48
1,63,127,188
1,65,127,3
1,67,127,3
1,68,127,64
1,70,127,48
1,72,127,47
1,70,127,3
1,67,127,5
1,63,127,10
1,67,127,7
1,65,127,3
1,65,127,28
1,66,127,48
1,65,127,2
1,63,127,48
1,61,127,45
1,63,127,45
1,63,127,7
1,66,127,0
1,66,127,5
1,65,127,48
1,63,127,20
1,61,127,47
1,62,127,10
1,63,127,0
1,43,127,17
1,55,127,0
1,58,127,5
1,46,127,0
1,62,127,6
1,50,127,0
1,65,127,91
1,53,127,0
1,43,127,84
1,55,127,0
1,58,127,89
1,46,127,0
1,50,127,92
1,62,127,0
1,53,127,91
1,65,127,0
1,51,127,764
1,51,127,28
1,51,127,12
1,50,127,0
1,51,127,48
1,46,127,189
1,48,127,20
1,51,127,2
1,51,127,10
1,48,127,48
1,46,127,44
1,51,127,46
1,51,127,7
1,53,127,6
1,54,127,8
1,53,127,0
1,51,127,48
1,48,127,47
1,51,127,0
1,51,127,2
1,51,127,12
1,51,127,5
1,51,127,24
1,51,127,10
1,51,127,13
1,53,127,48
1,51,127,188
1,53,127,3
1,55,127,3
1,56,127,64
1,58,127,48
1,60,127,47
1,58,127,3
1,55,127,5
1,51,127,10
1,55,127,7
1,53,127,3
1,53,127,28
1,54,127,48
1,53,127,2
1,51,127,48
1,49,127,45
1,51,127,45
1,51,127,7
1,54,127,0
1,54,127,5
1,53,127,48
1,51,127,20
1,49,127,47
1,50,127,10
1,51,127,0
1,43,127,17
1,55,127,0
1,58,127,5
1,46,127,0
1,62,127,6
1,50,127,0
1,65,127,91
1,53,127,0
1,43,127,84
1,55,127,0
1,58,127,89
1,46,127,0
1,50,127,92
1,62,127,0
1,53,127,91
1,65,127,0
1,43,127,764
1,55,127,0
1,58,127,5
1,46,127,0
1,62,127,6
1,50,127,0
1,65,127,91
1,53,127,0
1,43,127,84
1,55,127,0
1,58,127,89
1,46,127,0
1,50,127,92
1,62,127,0
1,53,127,91
1,65,127,0
1,53,127,788
1,65,127,72
1,53,127,28
1,65,127,0
1,63,127,89
1,51,127,0
1,65,127,1
1,53,127,0
1,55,127,24
1,67,127,0
1,53,127,3
1,65,127,0
1,53,127,80
1,65,127,0
1,53,127,34
1,65,127,0
1,63,127,63
1,51,127,0
1,53,127,3
1,65,127,0
1,55,127,18
1,67,127,0
1,53,127,1
1,65,127,0
1,63,127,0
1,63,127,28
1,63,127,12
1,62,127,0
1,63,127,48
1,58,127,189
1,60,127,20
1,63,127,2
1,63,127,10
1,60,127,48
1,58,127,44
1,63,127,46
1,63,127,7
1,65,127,6
1,66,127,8
1,65,127,0
1,63,127,48
1,60,127,47
1,63,127,0
1,63,127,2
1,63,127,12
1,63,127,5
1,63,127,24
1,63,127,10
1,63,127,13
1,65,127,48
1,63,127,188
1,65,127,3
1,67,127,3
1,68,127,64
1,70,127,48
1,72,127,47
1,70,127,3
1,67,127,5
1,63,127,10
1,67,127,7
1,65,127,3
1,65,127,28
1,66,127,48
1,65,127,2
1,63,127,48
1,61,127,45
1,63,127,45
1,63,127,7
1,66,127,0
1,66,127,5
1,65,127,48
1,63,127,20
1,61,127,47
1,62,127,10
1,63,127,0
1,43,127,17
1,55,127,0
1,58,127,5
1,46,127,0
1,62,127,6
1,50,127,0
1,65,127,91
1,53,127,0
1,43,127,84
1,55,127,0
1,58,127,89
1,46,127,0
1,50,127,92
1,62,127,0
1,53,127,91
1,65,127,0
1,43,127,764
1,55,127,0
1,58,127,5
1,46,127,0
1,62,127,6
1,50,127,0
1,65,127,91
1,53,127,0
1,43,127,84
1,55,127,0
1,58,127,89
1,46,127,0
1,50,127,92
1,62,127,0
1,53,127,91
1,65,127,0
1,53,127,788
1,65,127,72
1,53,127,28
1,65,127,0
1,63,127,89
1,51,127,0
1,65,127,1
1,53,127,0
1,55,127,24
1,67,127,0
1,53,127,3
1,65,127,0
1,53,127,80
1,65,127,0
1,53,127,34
1,65,127,0
1,63,127,63
1,51,127,0
1,53,127,3
1,65,127,0
1,55,127,18
1,67,127,0
1,53,127,1
1,65,127,0
1,53,127,858
1,65,127,72
1,53,127,28
1,65,127,0
1,63,127,89
1,51,127,0
1,65,127,1
1,53,127,0
1,55,127,24
1,67,127,0
1,53,127,3
1,65,127,0
1,53,127,80
1,65,127,0
1,53,127,34
1,65,127,0
1,63,127,63
1,51,127,0
1,53,127,3
1,65,127,0
1,55,127,18
1,67,127,0
1,53,127,1
1,65,127,0
2,63,101,1536
2,63,118,28
2,63,105,12
2,62,109,0
2,63,105,48
2,58,100,189
2,60,100,20
2,63,109,2
2,63,88,10
2,60,107,48
2,58,101,44
2,63,94,46
2,63,103,7
2,65,80,6
2,66,96,8
2,65,86,0
2,63,94,48
2,60,98,47
2,63,90,0
2,63,94,2
2,63,89,12
2,63,98,5
2,63,101,24
2,63,86,10
2,63,80,13
2,65,100,48
2,63,100,188
2,65,101,3
2,67,109,3
2,68,103,64
2,70,101,48
2,72,92,47
2,70,94,3
2,67,94,5
2,63,100,10
2,67,101,7
2,65,109,3
2,65,111,4
2,66,109,48
2,65,107,2
2,63,105,48
2,61,101,45
2,63,101,45
2,63,94,7
2,66,103,0
2,66,103,5
2,65,98,48
2,63,101,20
2,61,118,47
2,62,116,10
2,63,100,0
2,43,111,17
2,55,101,0
2,58,96,5
2,46,101,0
2,62,88,6
2,50,92,0
2,65,107,91
2,53,96,0
2,43,92,84
2,55,96,0
2,58,105,89
2,46,98,0
2,50,98,92
2,62,98,0
2,53,103,91
2,65,103,0
2,51,101,764
2,51,118,28
2,51,105,12
2,50,109,0
2,51,105,48
2,46,100,189
2,48,100,20
2,51,109,2
2,51,88,10
2,48,107,48
2,46,101,44
2,51,94,46
2,51,103,7
2,53,80,6
2,54,96,8
2,53,86,0
2,51,94,48
2,48,98,47
2,51,90,0
2,51,94,2
2,51,89,12
2,51,98,5
2,51,101,24
2,51,86,10
2,51,80,13
2,53,100,48
2,51,100,188
2,53,101,3
2,55,109,3
2,56,103,64
2,58,101,48
2,60,92,47
2,58,94,3
2,55,94,5
2,51,100,10
2,55,101,7
2,53,109,3
2,53,111,28
2,54,109,48
2,53,107,2
2,51,105,48
2,49,101,45
2,51,101,45
2,51,94,7
2,54,103,0
2,54,103,5
2,53,98,48
2,51,101,20
2,49,118,47
2,50,116,10
2,51,100,0
2,43,111,17
2,55,101,0
2,58,96,5
2,46,101,0
2,62,88,6
2,50,92,0
2,65,107,91
2,53,96,0
2,43,92,84
2,55,96,0
2,58,105,89
2,46,98,0
2,50,98,92
2,62,98,0
2,53,103,91
2,65,103,0
2,43,111,764
2,55,101,0
2,58,96,5
2,46,101,0
2,62,88,6
2,50,92,0
2,65,107,91
2,53,96,0
2,43,92,84
2,55,96,0
2,58,105,89
2,46,98,0
2,50,98,92
2,62,98,0
2,53,103,91
2,65,103,0
2,53,113,788
2,65,127,72
2,53,114,28
2,65,116,0
2,63,105,89
2,51,113,0
2,65,85,1
2,53,98,0
2,55,98,24
2,67,96,0
2,53,107,3
2,65,101,0
2,53,114,80
2,65,114,0
2,53,107,34
2,65,111,0
2,63,113,63
2,51,111,0
2,53,94,3
2,65,105,0
2,55,96,18
2,67,92,0
2,53,107,1
2,65,100,0
2,63,101,0
2,63,118,28
2,63,105,12
2,62,109,0
2,63,105,48
2,58,100,189
2,60,100,20
2,63,109,2
2,63,88,10
2,60,107,48
2,58,101,44
2,63,94,46
2,63,103,7
2,65,80,6
2,66,96,8
2,65,86,0
2,63,94,48
2,60,98,47
2,63,90,0
2,63,94,2
2,63,89,12
2,63,98,5
2,63,101,24
2,63,86,10
2,63,80,13
2,65,100,48
2,63,100,188
2,65,101,3
2,67,109,3
2,68,103,64
2,70,101,48
2,72,92,47
2,70,94,3
2,67,94,5
2,63,100,10
2,67,101,7
2,65,109,3
2,65,111,28
2,66,109,48
2,65,107,2
2,63,105,48
2,61,101,45
2,63,101,45
2,63,94,7
2,66,103,0
2,66,103,5
2,65,98,48
2,63,101,20
2,61,118,47
2,62,116,10
2,63,100,0
2,43,111,17
2,55,101,0
2,58,96,5
2,46,101,0
2,62,88,6
2,50,92,0
2,65,107,91
2,53,96,0
2,43,92,84
2,55,96,0
2,58,105,89
2,46,98,0
2,50,98,92
2,62,98,0
2,53,103,91
2,65,103,0
2,43,111,764
2,55,101,0
2,58,96,5
2,46,101,0
2,62,88,6
2,50,92,0
2,65,107,91
2,53,96,0
2,43,92,84
2,55,96,0
2,58,105,89
2,46,98,0
2,50,98,92
2,62,98,0
2,53,103,91
2,65,103,0
2,53,113,788
2,65,127,72
2,53,114,28
2,65,116,0
2,63,105,89
2,51,113,0
2,65,85,1
2,53,98,0
2,55,98,24
2,67,96,0
2,53,107,3
2,65,101,0
2,53,114,80
2,65,114,0
2,53,107,34
2,65,111,0
2,63,113,63
2,51,111,0
2,53,94,3
2,65,105,0
2,55,96,18
2,67,92,0
2,53,107,1
2,65,100,0
2,53,113,858
2,65,127,72
2,53,114,28
2,65,116,0
2,63,105,89
2,51,113,0
2,65,85,1
2,53,98,0
2,55,98,24
2,67,96,0
2,53,107,3
2,65,101,0
2,53,114,80
2,65,114,0
2,53,107,34
2,65,111,0
2,63,113,63
2,51,111,0
2,53,94,3
2,65,105,0
2,55,96,18
2,67,92,0
2,53,107,1
2,65,100,0
3,63,127,1027
3,63,127,28
3,63,127,12
3,62,127,0
3,63,127,48
3,58,127,189
3,60,127,20
3,63,127,2
3,63,127,10
3,60,127,48
3,58,127,44
3,63,127,46
3,63,127,7
3,65,127,6
3,66,127,8
3,65,127,0
3,63,127,48
3,60,127,47
3,63,127,0
3,63,127,2
3,63,127,12
3,63,127,5
3,63,127,24
3,63,127,10
3,63,127,13
3,65,127,48
3,63,127,188
3,65,127,3
3,67,127,3
3,68,127,64
3,70,127,48
3,72,127,47
3,70,127,3
3,67,127,5
3,63,127,10
3,67,127,7
3,65,127,3
3,65,127,28
3,66,127,48
3,65,127,2
3,63,127,48
3,61,127,45
3,63,127,45
3,63,127,7
3,66,127,0
3,66,127,5
3,65,127,48
3,63,127,20
3,61,127,47
3,62,127,10
3,63,127,0
3,43,127,17
3,55,127,0
3,58,127,5
3,46,127,0
3,62,127,6
3,50,127,0
3,65,127,91
3,53,127,0
3,43,127,84
3,55,127,0
3,58,127,89
3,46,127,0
3,50,127,92
3,62,127,0
3,53,127,91
3,65,127,0
3,51,127,764
3,51,127,28
3,51,127,12
3,50,127,0
3,51,127,48
3,46,127,189
3,48,127,20
3,51,127,2
3,51,127,10
3,48,127,48
3,46,127,44
3,51,127,46
3,51,127,7
3,53,127,6
3,54,127,8
3,53,127,0
3,51,127,48
3,48,127,47
3,51,127,0
3,51,127,2
3,51,127,12
3,51,127,5
3,51,127,24
3,51,127,10
3,51,127,13
3,53,127,48
3,51,127,188
3,53,127,3
3,55,127,3
3,56,127,64
3,58,127,48
3,60,127,47
3,58,127,3
3,55,127,5
3,51,127,10
3,55,127,7
3,53,127,3
3,53,127,28
3,54,127,48
3,53,127,2
3,51,127,48
3,49,127,45
3,51,127,45
3,51,127,7
3,54,127,0
3,54,127,5
3,53,127,48
3,51,127,20
3,49,127,47
3,50,127,10
3,51,127,0
3,43,127,17
3,55,127,0
3,58,127,5
3,46,127,0
3,62,127,6
3,50,127,0
3,65,127,91
3,53,127,0
3,43,127,84
3,55,127,0
3,58,127,89
3,46,127,0
3,50,127,92
3,62,127,0
3,53,127,91
3,65,127,0
3,43,127,764
3,55,127,0
3,58,127,5
3,46,127,0
3,62,127,6
3,50,127,0
3,65,127,91
3,53,127,0
3,43,127,84
3,55,127,0
3,58,127,89
3,46,127,0
3,50,127,92
3,62,127,0
3,53,127,91
3,65,127,0
3,53,127,788
3,65,127,72
3,53,127,28
3,65,127,0
3,63,127,89
3,51,127,0
3,65,127,1
3,53,127,0
3,55,127,24
3,67,127,0
3,53,127,3
3,65,127,0
3,53,127,80
3,65,127,0
3,53,127,34
3,65,127,0
3,63,127,63
3,51,127,0
3,53,127,3
3,65,127,0
3,55,127,18
3,67,127,0
3,53,127,1
3,65,127,0
3,63,127,0
3,63,127,28
3,63,127,12
3,62,127,0
3,63,127,48
3,58,127,189
3,60,127,20
3,63,127,2
3,63,127,10
3,60,127,48
3,58,127,44
3,63,127,46
3,63,127,7
3,65,127,6
3,66,127,8
3,65,127,0
3,63,127,48
3,60,127,47
3,63,127,0
3,63,127,2
3,63,127,12
3,63,127,5
3,63,127,24
3,63,127,10
3,63,127,13
3,65,127,48
3,63,127,188
3,65,127,3
3,67,127,3
3,68,127,64
3,70,127,48
3,72,127,47
3,70,127,3
3,67,127,5
3,63,127,10
3,67,127,7
3,65,127,3
3,65,127,28
3,66,127,48
3,65,127,2
3,63,127,48
3,61,127,45
3,63,127,45
3,63,127,7
3,66,127,0
3,66,127,5
3,65,127,48
3,63,127,20
3,61,127,47
3,62,127,10
3,63,127,0
3,43,127,17
3,55,127,0
3,58,127,5
3,46,127,0
3,62,127,6
3,50,127,0
3,65,127,91
3,53,127,0
3,43,127,84
3,55,127,0
3,58,127,89
3,46,127,0
3,50,127,92
3,62,127,0
3,53,127,91
3,65,127,0
3,43,127,764
3,55,127,0
3,58,127,5
3,46,127,0
3,62,127,6
3,50,127,0
3,65,127,91
3,53,127,0
3,43,127,84
3,55,127,0
3,58,127,89
3,46,127,0
3,50,127,92
3,62,127,0
3,53,127,91
3,65,127,0
3,53,127,788
3,65,127,72
3,53,127,28
3,65,127,0
3,63,127,89
3,51,127,0
3,65,127,1
3,53,127,0
3,55,127,24
3,67,127,0
3,53,127,3
3,65,127,0
3,53,127,80
3,65,127,0
3,53,127,34
3,65,127,0
3,63,127,63
3,51,127,0
3,53,127,3
3,65,127,0
3,55,127,18
3,67,127,0
3,53,127,1
3,65,127,0
3,53,127,858
3,65,127,72
3,53,127,28
3,65,127,0
3,63,127,89
3,51,127,0
3,65,127,1
3,53,127,0
3,55,127,24
3,67,127,0
3,53,127,3
3,65,127,0
3,53,127,80
3,65,127,0
3,53,127,34
3,65,127,0
3,63,127,63
3,51,127,0
3,53,127,3
3,65,127,0
3,55,127,18
3,67,127,0
3,53,127,1
3,65,127,0
4,53,100,8154
4,65,98,1
4,53,101,29
4,65,111,1
4,55,105,189
4,67,100,2
4,53,86,137
4,65,88,1
4,51,80,24
4,63,89,0
4,50,89,7
4,62,94,1
4,53,101,94
4,65,101,0
4,53,101,28
4,65,90,0
4,55,98,2
4,67,105,2
4,53,80,134
4,65,96,0
4,63,89,8
4,51,77,0
4,50,86,2
4,62,74,1
4,53,100,867
4,65,98,1
4,53,101,29
4,65,111,1
4,55,105,189
4,67,100,2
4,53,86,137
4,65,88,1
4,51,80,24
4,63,89,0
4,50,89,7
4,62,94,1
4,53,101,94
4,65,101,0
4,53,101,28
4,65,90,0
4,55,98,2
4,67,105,2
4,53,80,134
4,65,96,0
4,63,89,8
4,51,77,0
4,50,86,2
4,62,74,1
5,77,88,8158
5,65,85,0
5,77,96,26
5,65,90,1
5,67,89,192
5,79,89,2
5,77,80,179
5,65,86,1
5,77,96,86
5,65,100,3
5,65,103,29
5,77,94,0
5,67,98,190
5,79,100,1
5,79,113,5
5,67,100,3
5,77,101,38
5,65,98,0
5,77,88,912
5,65,85,0
5,77,96,26
5,65,90,1
5,67,89,192
5,79,89,2
5,77,80,179
5,65,86,1
5,77,96,86
5,65,100,3
5,65,103,29
5,77,94,0
5,67,98,190
5,79,100,1
5,79,113,5
5,67,100,3
5,77,101,38
5,65,98,0
6,68,111,96
