track,note,velocity,time
5,82,108,1
5,84,101,1
5,86,109,0
5,82,93,1
5,84,95,173
5,82,95,1
5,79,98,1
5,79,97,2
5,82,77,0
5,81,72,1
5,79,60,1
5,79,93,1
5,82,107,1
5,84,101,0
5,84,98,1
5,82,97,0
5,82,112,0
5,79,62,1
5,72,107,1
5,74,127,1
5,77,127,1
5,77,127,1
5,74,90,1
5,74,127,1
5,82,114,1
5,79,92,1
5,82,127,1
5,84,76,1
5,79,127,1
5,82,127,1
5,84,84,2
5,79,127,2
5,79,127,1
5,72,127,0
5,72,127,1
5,70,127,0
5,69,127,1
5,70,127,1
5,81,17,1
5,82,127,1
5,83,95,0
5,79,127,1
5,82,127,2
5,83,78,0
5,79,127,1
5,70,127,24032
5,72,114,2
5,72,117,0
5,74,106,1
5,77,106,0
5,77,127,0
5,74,85,0
5,74,127,2
5,74,19,1
5,74,127,1
5,74,127,0
5,77,101,1
5,77,90,0
5,74,83,1
5,74,127,1
5,77,127,26
5,75,127,1
5,74,22,1
5,74,127,1
5,74,127,1
5,72,127,0
5,70,127,0
5,70,127,0
5,67,127,0
5,67,127,4
5,79,127,1
5,79,123,1
5,82,117,0
5,82,123,1
5,82,106,1
5,81,127,0
5,79,127,1
5,79,127,1
5,81,127,1
5,81,127,0
5,79,127,2
5,79,116,0
5,74,30,9
5,70,127,1
5,69,127,1
5,68,127,0
5,67,127,1
5,70,68,1
5,72,81,0
5,72,84,1
5,70,95,1
5,69,90,0
5,70,62,1
5,69,82,0
5,71,19,1
5,70,82,0
5,72,60,0
5,74,79,1
5,77,59,2
5,77,44,1
5,77,70,1
5,75,59,1
5,74,71,1
6,77,87,2
6,77,90,234
6,76,93,1
6,76,92,0
6,75,98,0
6,75,87,2
6,74,95,1
6,77,106,1
6,79,106,1
6,79,106,7
6,77,113,0
6,79,113,31
6,77,95,1
6,79,91,2
6,77,122,1
6,77,95,1
6,74,78,0
6,74,123,0
6,76,19,0
6,74,101,2
6,76,88,1
6,77,105,0
6,76,23,0
6,75,19,1
6,77,90,2
6,77,93,1
6,74,86,1
6,74,117,0
6,77,101,0
6,77,85,0
6,79,111,1
6,77,93,1
6,77,127,1
6,77,42,0
6,77,82,1
6,74,94,1
6,74,127,0
6,65,107,1
6,70,127,1
6,70,97,1
6,67,107,10
6,77,58,1
6,74,90,1
6,77,127,1
6,77,120,2
6,77,127,2
6,77,127,1
6,77,127,0
6,77,127,0
6,65,127,0
6,67,127,0
6,65,127,1
6,67,127,0
6,65,127,1
6,71,52,1
6,76,49,2
6,77,127,1
6,77,54,1
6,77,127,1
6,69,26,2
6,65,105,1
6,66,117,1
6,67,121,1
6,65,126,1
6,65,127,1
6,70,101,0
6,71,40,2
6,72,68,0
6,72,74,1
6,72,106,1
6,70,98,1
6,69,125,2
6,69,127,1
6,70,118,0
6,69,127,1
6,68,19,0
6,69,127,1
6,69,127,0
6,72,95,0
6,72,112,0
6,70,96,1
6,69,123,2
6,69,106,1
6,65,78,1
6,67,111,0
6,67,106,10
6,65,99,1
6,65,125,1
6,62,82,1
6,62,127,1
6,77,116,1
6,75,45,0
6,77,13,1
6,77,111,0
6,73,83,1
6,74,127,1
6,74,127,0
6,77,63,1
6,77,127,1
6,74,73,0
6,74,123,1
6,74,119,2379
6,74,114,1
6,74,117,1
6,74,113,1
6,65,127,0
6,67,106,1
6,64,108,0
6,61,119,1
6,65,97,1
6,67,75,0
6,65,88,1
6,67,75,0
6,65,88,2
6,65,95,1
6,70,75,1
6,72,82,1
6,70,68,1
6,69,68,1
6,69,53,0
6,70,55,0
7,70,127,1
7,72,22,1
7,72,127,9
7,70,127,0
7,72,104,1
7,70,107,1
7,70,111,1
7,70,127,1
7,72,102,0
7,70,123,584
7,72,101,1
7,70,90,1
7,70,108,1
7,71,113,1
7,74,71,0
7,73,81,0
7,72,68,1
7,72,98,1
7,70,88,2
7,70,90,1
7,69,98,0
7,72,82,1
7,74,15,4
7,74,98,1
7,72,28,0
7,72,106,0
7,73,123,1
7,72,100,1
7,70,111,1
7,70,111,1
7,70,23,1
7,70,116,1
7,70,127,1
7,72,90,1
7,73,101,1
7,70,17,1
7,72,125,32
7,73,105,1
7,70,127,0
7,71,108,1
7,74,109,1
7,74,108,1
7,72,119,1
7,73,19,1
7,73,119,1
7,72,127,1
7,71,106,1
7,67,110,1
7,58,100,480
7,67,127,1
7,72,127,1
7,70,88,0
7,72,82,0
7,70,104,1
7,72,100,1
7,72,100,1
7,70,100,1
7,72,75,1
7,70,92,0
7,72,44,1
7,73,86,1
7,71,93,0
7,72,86,0
7,72,100,2
7,72,103,1
7,70,109,1
7,70,98,1
7,62,34,1
7,55,34,1
7,72,127,1
7,74,127,1
7,74,127,1
7,74,127,1
7,70,127,2
7,71,127,2
7,70,127,0
7,62,115,1
7,61,127,1
7,62,31,1
7,62,117,2
7,72,127,0
7,74,127,0
7,70,127,1
7,72,127,1
7,70,127,0
7,72,127,0
7,70,127,0
7,64,19,2
7,70,127,0
7,72,127,1
7,70,127,1
7,72,127,0
7,70,127,1
7,70,127,1
7,72,127,0
7,74,127,1
7,70,127,0
7,70,127,1
7,72,49,0
7,73,127,1
7,72,127,10
7,70,126,1
7,72,127,0
7,71,121,0
7,67,50,1
7,73,127,1
7,70,127,1
7,72,127,1
7,71,127,1
7,67,127,1
7,61,101,1
7,60,36,1
7,60,31,0
7,62,123,1
7,60,127,2
7,58,127,1
7,60,127,1
7,60,127,1
7,58,127,1
7,58,127,1
7,60,127,1
7,58,117,1
7,60,108,0
7,58,121,0
7,58,127,1
7,60,127,1
7,58,126,1
7,60,118,10
7,58,121,1
7,58,125,1
7,60,126,0
7,60,125,1
7,62,113,1
7,62,124,1
7,61,127,2
7,61,127,0
7,60,127,1
7,60,121,1
7,58,127,1
7,58,127,1
7,60,48,1
7,59,127,1
7,62,21,1
7,66,14,0
7,67,75,1
7,67,31,1
7,67,79,1
7,67,14,0
7,67,83,1
7,67,101,1
7,67,110,1
7,67,23,0
7,67,86,1
7,79,23,0
7,67,123,1
7,65,90,1
7,62,73,1
7,61,23,0
7,57,23,1
7,60,117,1
7,61,118,1
7,59,35,1
7,70,127,0
7,72,127,1
7,57,42,1
7,70,127,1
7,72,127,1
7,55,15,0
7,74,125,1
7,72,127,1
7,70,116,1
7,70,127,1
7,70,93,1
7,70,103,1
7,72,118,0
7,73,121,1
7,55,77,1
7,71,98,1
7,73,39,0
7,73,112,0
7,72,117,1
7,70,126,1
7,70,108,1
7,72,98,1
7,73,98,1
7,73,19,0
7,73,111,0
7,72,119,2
7,72,127,1
7,70,21,0
7,70,127,1
7,70,127,1
7,69,48,1
7,58,127,1
7,60,116,2
7,58,127,1
7,60,121,1
7,58,121,0
7,58,121,1
7,60,127,0
7,58,127,1
7,59,126,1
7,58,123,0
7,58,127,2
7,59,125,0
7,59,123,0
7,60,127,1
7,58,118,1
7,60,118,1
7,60,95,1
7,62,85,0
7,62,96,1
7,58,103,1
7,60,110,0
7,60,99,1
7,58,94,1
7,60,82,4
7,60,102,2
7,58,113,1
7,60,101,1
7,67,64,2
7,67,66,0
7,67,56,1
8,67,127,1
8,67,103,2
8,67,127,1
8,65,118,1
8,67,127,1
8,67,127,0
8,67,123,1
8,67,21,1
8,67,114,1
8,65,108,1
8,67,118,1
8,67,127,1
8,67,27,0
8,67,109,1
8,65,121,0
8,67,127,1
8,62,23,0
8,62,117,0
8,67,97,1
8,64,30,1
8,67,127,1
8,67,118,0
8,65,103,0
8,67,111,9
8,65,127,0
8,65,127,0
8,67,52,1
8,67,123,1
8,67,33,1
8,67,102,0
8,66,116,1
8,67,127,1
8,67,127,249
8,65,114,1
8,58,52,1
8,67,52,6594
8,67,75,0
8,65,90,2
8,67,97,21
8,67,97,1
8,65,90,1
8,67,85,1
8,65,95,1
8,67,92,1
8,67,48,1
8,67,120,1
8,67,111,1
8,55,111,1
8,53,88,0
8,55,104,1
8,53,109,1
8,67,110,3613
8,67,108,1
8,65,115,1
8,67,127,0
8,65,123,1
8,67,106,1
8,67,121,1
8,65,127,2
8,67,127,1
8,65,112,1
8,65,101,2
8,67,111,1
8,65,105,59
8,65,112,1
8,67,127,1
8,67,127,6242
8,65,127,0
8,58,23,1
8,55,127,2
8,53,127,1
8,53,53,1
8,55,123,2
8,55,88,11
8,55,101,1
8,53,121,1
8,55,127,1
8,53,107,1
8,55,98,1
8,55,107,1
8,53,119,1
8,55,127,0
8,55,18,1
8,55,116,1
8,59,24,0
8,55,127,0
8,53,127,1
8,53,127,1
8,55,127,1
8,61,27,1
8,63,103,1
8,62,69,1
8,60,112,0
8,56,119,1
8,55,108,0
8,53,65,9
8,55,126,1
8,53,111,1
8,52,19,0
8,60,112,1
8,65,119,2
8,67,126,1
8,67,123,1
8,65,127,11
8,67,118,1
8,67,103,0
8,65,85,1
8,67,122,0
8,65,78,1
8,62,76,0
8,65,127,1
8,67,27,1
8,67,72,0
8,67,106,3239
8,67,88,1
8,67,109,1
8,65,78,1
8,67,116,1
8,65,115,1
8,67,127,0
8,55,104,2
8,55,101,1
8,55,111,1
8,53,112,0
8,55,127,0
8,55,127,10
8,55,110,1
8,55,126,0
8,53,127,0
8,55,127,1
8,55,113,1
8,55,124,0
8,53,95,1
8,53,107,2
8,54,87,0
9,62,33,0
9,62,90,1
9,61,30,1
9,61,110,0
9,62,78,1
9,62,127,1
9,58,118,1
9,60,95,0
9,60,113,8
9,45,33,1
9,50,44,1
9,50,109,1
9,48,102,1
9,62,17,1
9,62,111,1
9,59,111,0
9,60,27,1
9,62,71,2
9,62,127,0
9,58,127,1
9,55,83,1
9,54,31,1
9,50,127,0
9,46,127,0
9,45,81,1
9,45,86,1
9,58,82,0
9,56,77,1
9,57,124,1
9,55,96,1
9,55,127,1
9,49,111,1
9,50,82,0
9,50,101,0
9,46,65,1
9,48,124,1
9,46,88,1
9,46,31,1
9,47,39,1
9,48,83,1
9,60,126,1
9,61,99,1
9,62,90,0
9,58,79,1
9,60,112,1
9,58,98,1
9,58,127,1
9,60,111,1
9,49,39,1
10,55,56,1
10,43,127,1
10,55,127,14893
10,55,127,1
10,43,75,2
10,41,127,2
10,43,127,0
10,43,101,45298
10,41,123,1
10,43,127,1
10,52,26,1
10,55,95,1
11,70,67,3214
11,74,76,7
11,67,69,8
11,67,72,32
11,70,76,3
11,74,86,5
11,75,71,1
11,72,76,0
11,67,75,0
11,67,75,0
11,70,76,0
11,74,84,0
11,70,50,19
11,77,68,7
11,74,64,4
11,69,66,11
11,73,65,14
11,76,67,3
11,75,64,9
11,72,76,3
11,68,69,5
11,67,69,32
11,70,71,9
11,74,80,4
11,70,78,84
11,74,87,3
11,67,77,2
11,65,81,89
11,69,95,3
11,72,93,3
11,65,79,120
11,69,87,2
11,72,92,3
11,70,93,101
11,67,83,2
11,74,106,3
11,70,67,1713
11,74,76,7
11,67,69,8
11,67,72,32
11,70,76,3
11,74,86,5
11,75,71,1
11,72,76,0
11,67,75,0
11,67,75,0
11,70,76,0
11,74,84,0
11,70,50,19
11,77,68,7
11,74,64,4
11,69,66,11
11,73,65,14
11,76,67,3
11,75,64,9
11,72,76,3
11,68,69,5
11,67,69,32
11,70,71,9
11,74,80,4
11,70,78,84
11,74,87,3
11,67,77,2
11,65,81,89
11,69,95,3
11,72,93,3
11,65,79,120
11,69,87,2
11,72,92,3
11,70,93,101
11,67,83,2
11,74,106,3
11,70,67,1713
11,74,76,7
11,67,69,8
11,67,72,32
11,70,76,3
11,74,86,5
11,75,71,1
11,72,76,0
11,67,75,0
11,67,75,0
11,70,76,0
11,74,84,0
11,70,50,19
11,77,68,7
11,74,64,4
11,69,66,11
11,73,65,14
11,76,67,3
11,75,64,9
11,72,76,3
11,68,69,5
11,67,69,32
11,70,71,9
11,74,80,4
11,70,78,84
11,74,87,3
11,67,77,2
11,65,81,89
11,69,95,3
11,72,93,3
11,65,79,120
11,69,87,2
11,72,92,3
11,70,93,101
11,67,83,2
11,74,106,3
11,70,67,1713
11,74,76,7
11,67,69,8
11,67,72,32
11,70,76,3
11,74,86,5
11,75,71,1
11,72,76,0
11,67,75,0
11,67,75,0
11,70,76,0
11,74,84,0
11,70,50,19
11,77,68,7
11,74,64,4
11,69,66,11
11,73,65,14
11,76,67,3
11,75,64,9
11,72,76,3
11,68,69,5
11,67,69,32
11,70,71,9
11,74,80,4
11,70,78,84
11,74,87,3
11,67,77,2
11,65,81,89
11,69,95,3
11,72,93,3
11,65,79,120
11,69,87,2
11,72,92,3
11,70,93,101
11,67,83,2
11,74,106,3
11,70,67,1713
11,74,76,7
11,67,69,8
11,67,72,32
11,70,76,3
11,74,86,5
11,75,71,1
11,72,76,0
11,67,75,0
11,67,75,0
11,70,76,0
11,74,84,0
11,70,50,19
11,77,68,7
11,74,64,4
11,69,66,11
11,73,65,14
11,76,67,3
11,75,64,9
11,72,76,3
11,68,69,5
11,67,69,32
11,70,71,9
11,74,80,4
11,70,78,84
11,74,87,3
11,67,77,2
11,65,81,89
11,69,95,3
11,72,93,3
11,65,79,120
11,69,87,2
11,72,92,3
11,70,93,101
11,67,83,2
11,74,106,3
11,70,67,1713
11,74,76,7
11,67,69,8
11,67,72,32
11,70,76,3
11,74,86,5
11,75,71,1
11,72,76,0
11,67,75,0
11,67,75,0
11,70,76,0
11,74,84,0
11,70,50,19
11,77,68,7
11,74,64,4
11,69,66,11
11,73,65,14
11,76,67,3
11,75,64,9
11,72,76,3
11,68,69,5
11,67,69,32
11,70,71,9
11,74,80,4
11,70,78,84
11,74,87,3
11,67,77,2
11,65,81,89
11,69,95,3
11,72,93,3
11,65,79,120
11,69,87,2
11,72,92,3
11,70,93,101
11,67,83,2
11,74,106,3
11,70,67,1713
11,74,76,7
11,67,69,8
11,67,72,32
11,70,76,3
11,74,86,5
11,75,71,1
11,72,76,0
11,67,75,0
11,67,75,0
11,70,76,0
11,74,84,0
11,70,50,19
11,77,68,7
11,74,64,4
11,69,66,11
11,73,65,14
11,76,67,3
11,75,64,9
11,72,76,3
11,68,69,5
11,67,69,32
11,70,71,9
11,74,80,4
11,70,78,84
11,74,87,3
11,67,77,2
11,65,81,89
11,69,95,3
11,72,93,3
11,65,79,120
11,69,87,2
11,72,92,3
11,70,93,101
11,67,83,2
11,74,106,3
11,70,67,1713
11,74,76,7
11,67,69,8
11,67,72,32
11,70,76,3
11,74,86,5
11,75,71,1
11,72,76,0
11,67,75,0
11,67,75,0
11,70,76,0
11,74,84,0
11,70,50,19
11,77,68,7
11,74,64,4
11,69,66,11
11,73,65,14
11,76,67,3
11,75,64,9
11,72,76,3
11,68,69,5
11,67,69,32
11,70,71,9
11,74,80,4
11,70,78,84
11,74,87,3
11,67,77,2
11,65,81,89
11,69,95,3
11,72,93,3
11,65,79,120
11,69,87,2
11,72,92,3
11,70,93,101
11,67,83,2
11,74,106,3
11,70,67,1713
11,74,76,7
11,67,69,8
11,67,72,32
11,70,76,3
11,74,86,5
11,75,71,1
11,72,76,0
11,67,75,0
11,67,75,0
11,70,76,0
11,74,84,0
11,70,50,19
11,77,68,7
11,74,64,4
11,69,66,11
11,73,65,14
11,76,67,3
11,75,64,9
11,72,76,3
11,68,69,5
11,67,69,32
11,70,71,9
11,74,80,4
11,70,78,84
11,74,87,3
11,67,77,2
11,65,81,89
11,69,95,3
11,72,93,3
11,65,79,120
11,69,87,2
11,72,92,3
11,70,93,101
11,67,83,2
11,74,106,3
11,70,67,1713
11,74,76,7
11,67,69,8
11,67,72,32
11,70,76,3
11,74,86,5
11,75,71,1
11,72,76,0
11,67,75,0
11,67,75,0
11,70,76,0
11,74,84,0
11,70,50,19
11,77,68,7
11,74,64,4
11,69,66,11
11,73,65,14
11,76,67,3
11,75,64,9
11,72,76,3
11,68,69,5
11,67,69,32
11,70,71,9
11,74,80,4
11,70,78,84
11,74,87,3
11,67,77,2
11,65,81,89
11,69,95,3
11,72,93,3
11,65,79,120
11,69,87,2
11,72,92,3
