track,note,velocity,time
1,38,107,24204
1,38,110,116
1,36,105,28
1,36,105,96
1,35,102,36
1,35,107,96
1,31,105,24
1,33,114,32
1,33,114,100
1,33,114,100
1,33,114,100
1,33,114,100
1,28,114,100
1,31,114,4
1,28,114,4
1,28,84,100
1,28,114,100
1,28,84,100
1,28,114,100
1,28,84,100
1,28,114,100
1,28,94,100
1,28,114,12
1,33,114,100
1,33,114,100
1,33,114,100
1,33,114,100
1,33,114,100
1,28,114,100
1,31,114,4
1,28,114,4
1,28,84,100
1,28,114,100
1,28,84,100
1,28,114,100
1,28,84,100
1,28,114,100
1,28,94,100
1,28,114,12
1,33,114,100
1,33,114,100
1,33,114,100
1,33,114,100
1,33,114,100
1,28,114,100
1,31,114,4
1,28,114,4
1,28,84,100
1,28,114,100
1,28,84,100
1,28,114,100
1,28,84,100
1,28,114,100
1,28,94,100
1,28,114,8
1,33,114,100
1,33,114,100
1,33,114,100
1,33,114,100
1,33,114,100
1,28,114,100
1,31,114,4
1,28,114,4
1,28,84,100
1,28,114,100
1,28,84,100
1,28,114,100
1,28,84,100
1,28,114,100
1,28,94,100
1,28,114,12
1,33,114,100
1,33,114,196
1,33,114,196
1,33,114,100
1,36,114,4
1,38,114,4
1,28,114,4
1,28,114,196
1,28,114,196
1,28,114,100
1,31,114,4
1,28,114,4
1,33,114,4
1,33,114,196
1,33,114,196
1,33,114,100
1,36,114,4
1,38,114,4
1,28,114,4
1,28,114,196
1,28,114,196
1,28,114,100
1,31,114,4
1,28,114,4
1,33,114,4
1,33,114,196
1,33,114,196
1,33,114,100
1,36,114,4
1,38,114,4
1,28,114,4
1,28,114,196
1,28,114,196
1,28,114,100
1,31,114,4
1,28,114,4
1,33,114,4
1,33,114,196
1,33,114,196
1,33,114,100
1,36,114,4
1,38,114,4
1,28,114,4
1,28,114,196
1,28,114,196
1,28,114,100
1,31,114,4
1,28,114,4
1,33,114,4
1,33,114,196
1,33,114,196
1,33,114,100
1,36,114,4
1,38,114,4
1,28,114,4
1,28,114,196
1,28,114,196
1,28,114,100
1,31,114,8
1,28,114,4
1,33,114,4
1,33,114,196
1,33,114,196
1,33,114,100
1,36,114,4
1,38,114,4
1,28,114,4
1,28,114,196
1,28,114,196
1,33,114,580
1,33,114,100
1,33,114,100
1,33,114,100
1,33,114,100
1,33,114,100
1,33,114,100
1,31,114,100
1,31,84,4
1,31,114,100
1,31,84,100
1,31,114,100
1,31,84,100
1,31,114,112
1,31,84,100
1,28,114,100
1,33,114,4
1,33,114,100
1,33,114,100
1,33,114,100
1,33,114,100
1,28,114,100
1,31,114,4
1,28,114,4
1,28,84,112
1,28,114,100
1,28,84,100
1,28,114,100
1,28,84,100
1,28,114,100
1,28,94,100
1,28,114,8
1,33,114,100
1,33,114,100
1,33,114,100
1,33,114,100
1,33,114,100
1,33,114,100
1,33,114,100
1,31,114,100
1,31,84,4
1,31,114,100
1,31,84,100
1,31,114,100
1,31,84,100
1,31,114,112
1,31,84,100
1,28,114,100
1,33,114,4
1,33,114,100
1,33,114,100
1,33,114,100
1,33,114,100
1,28,114,100
1,31,114,4
1,28,114,4
1,28,84,112
1,28,114,100
1,28,84,100
1,28,114,100
1,28,84,100
1,28,114,100
1,28,94,100
1,28,114,12
1,33,114,100
1,33,114,100
1,33,114,100
1,33,114,100
1,33,114,100
1,33,114,100
1,33,114,100
1,31,114,100
1,31,84,4
1,31,114,104
1,31,84,100
1,31,114,100
1,31,84,100
1,31,114,100
1,31,84,100
1,28,114,100
1,33,114,4
1,33,114,100
1,33,114,100
1,33,114,100
1,33,114,100
1,28,114,100
1,31,114,4
1,28,114,4
1,28,84,100
1,28,114,104
1,28,84,100
1,28,114,100
1,28,84,100
1,28,114,100
1,28,94,100
1,28,114,16
1,33,114,100
1,33,114,100
1,33,114,100
1,33,114,100
1,33,114,100
1,33,114,100
1,33,114,100
1,31,114,100
1,31,84,4
1,31,114,104
1,31,84,100
1,31,114,100
1,31,84,100
1,31,114,100
1,31,84,100
1,28,114,100
1,33,114,4
1,33,114,100
1,33,114,100
1,33,114,100
1,33,114,100
1,28,114,100
1,31,114,4
1,28,114,4
1,28,84,100
1,28,114,104
1,28,84,100
1,28,114,100
1,28,84,100
1,28,114,100
1,28,94,100
1,28,114,16
1,33,114,100
1,33,114,196
1,33,114,196
1,33,114,100
1,36,114,4
1,38,114,4
1,28,114,4
1,28,114,196
1,28,114,196
1,28,114,100
1,31,114,4
1,28,114,4
1,33,114,4
1,33,114,196
1,33,114,196
1,33,114,100
1,36,114,4
1,38,114,4
1,28,114,4
1,28,114,196
1,28,114,196
1,28,114,100
1,31,114,4
1,28,114,4
1,33,114,4
1,33,114,196
1,33,114,196
1,33,114,100
1,36,114,4
1,38,114,4
1,28,114,4
1,28,114,196
1,28,114,196
1,28,114,100
1,31,114,4
1,28,114,4
1,33,114,4
1,33,114,196
1,33,114,196
1,33,114,100
1,36,114,4
1,38,114,4
1,28,114,4
1,28,114,196
1,28,114,196
1,28,114,100
1,31,114,4
1,28,114,4
1,33,114,4
1,33,114,196
1,33,114,196
1,33,114,100
1,36,114,4
1,38,114,4
1,28,114,4
1,28,114,196
1,28,114,196
1,28,114,100
1,31,114,8
1,28,114,4
1,33,114,4
1,33,114,196
1,33,114,196
1,33,114,100
1,36,114,4
1,38,114,4
1,28,114,4
1,28,114,196
1,28,114,196
1,33,114,580
1,33,114,100
1,33,114,100
1,33,114,100
1,33,114,100
1,33,114,100
1,33,114,100
1,31,114,100
1,31,84,4
1,31,114,100
1,31,84,100
1,31,114,100
1,31,84,100
1,31,114,112
1,31,84,100
1,28,114,100
1,33,114,4
1,33,114,100
1,33,114,100
1,33,114,100
1,33,114,100
1,28,114,100
1,31,114,4
1,28,114,4
1,28,84,112
1,28,114,100
1,28,84,100
1,28,114,100
1,28,84,100
1,28,114,100
1,28,94,100
1,28,114,8
1,33,114,100
1,33,114,100
1,33,114,100
1,33,114,100
1,33,114,100
1,33,114,100
1,33,114,100
1,31,114,100
1,31,84,4
1,31,114,100
1,31,84,100
1,31,114,100
1,31,84,100
1,31,114,112
1,31,84,100
1,28,114,100
1,33,114,4
1,33,114,100
1,33,114,100
1,33,114,100
1,33,114,100
1,28,114,100
1,31,114,4
1,28,114,4
1,28,84,112
1,28,114,100
1,28,84,100
1,28,114,100
1,28,84,100
1,28,114,100
1,28,94,100
1,28,114,12
1,33,114,100
1,33,114,100
1,33,114,100
1,33,114,100
1,33,114,100
1,33,114,100
1,33,114,100
1,31,114,100
1,31,84,4
1,31,114,104
1,31,84,100
1,31,114,100
1,31,84,100
1,31,114,100
1,31,84,100
1,28,114,100
1,33,114,4
1,33,114,100
1,33,114,100
1,33,114,100
1,33,114,100
1,28,114,100
1,31,114,4
1,28,114,4
1,28,84,100
1,28,114,104
1,28,84,100
1,28,114,100
1,28,84,100
1,28,114,100
1,28,94,100
1,28,114,16
1,33,114,100
1,33,114,100
1,33,114,100
1,33,114,100
1,33,114,100
1,33,114,100
1,33,114,100
1,31,114,100
1,31,84,4
1,31,114,104
1,31,84,100
1,31,114,100
1,31,84,100
1,31,114,100
1,31,84,100
1,28,114,100
1,33,114,4
1,33,114,100
1,33,114,100
1,33,114,100
1,33,114,100
1,28,114,100
1,31,114,4
1,28,114,4
1,28,84,100
1,28,114,104
1,28,84,100
1,28,114,100
1,28,84,100
1,28,114,100
1,28,94,100
1,28,114,16
1,33,94,100
1,33,94,44
1,33,94,44
1,33,94,44
1,33,94,44
1,33,94,44
1,33,94,44
1,33,94,44
1,31,94,44
1,31,94,44
1,31,94,44
1,31,94,44
1,31,94,48
1,31,94,56
1,31,94,44
1,31,94,44
1,30,94,44
1,30,94,44
1,30,94,44
1,30,94,44
1,30,94,44
1,30,94,44
1,30,94,44
1,30,94,44
1,29,94,44
1,29,94,44
1,29,94,44
1,29,94,44
1,31,94,44
1,31,94,44
1,31,94,44
1,31,94,44
1,33,94,44
1,33,94,44
1,33,94,44
1,33,94,44
1,33,94,44
1,33,94,44
1,33,94,44
1,33,94,44
1,31,94,44
1,31,94,44
1,31,94,44
1,31,94,44
1,31,94,48
1,31,94,56
1,31,94,44
1,31,94,44
1,30,94,48
1,30,94,56
1,30,94,44
1,30,94,44
1,30,94,48
1,30,94,56
1,30,94,44
1,30,94,44
1,29,94,48
1,29,94,56
1,29,94,44
1,29,94,44
1,31,94,48
1,31,94,56
1,31,94,44
1,31,94,44
1,36,114,44
1,36,114,100
1,36,114,100
1,36,114,100
1,36,114,100
1,36,114,100
1,36,114,100
1,34,114,100
1,34,74,4
1,34,114,100
1,34,74,100
1,34,114,100
1,34,74,100
1,34,114,100
1,34,74,100
1,31,114,100
1,36,114,4
1,36,114,100
1,36,114,100
1,36,114,100
1,36,114,100
1,31,114,100
1,34,114,4
1,31,114,4
1,31,74,100
1,31,114,104
1,31,74,100
1,31,114,100
1,31,74,100
1,31,114,100
1,31,94,100
1,31,114,12
1,36,114,100
1,36,114,100
1,36,114,100
1,36,114,100
1,36,114,100
1,36,114,100
1,36,114,100
1,34,114,100
1,34,74,4
1,34,114,100
1,34,74,100
1,34,114,100
1,34,74,100
1,34,114,112
1,34,74,100
1,31,114,100
1,36,114,8
1,36,114,112
1,36,114,100
1,36,114,100
1,36,114,100
1,31,114,112
1,34,114,4
1,31,114,4
1,31,74,100
1,31,114,112
1,31,74,100
1,31,114,100
1,31,74,100
1,31,114,100
1,31,94,100
1,31,114,12
1,36,114,100
1,36,114,100
1,36,114,100
1,36,114,100
1,36,114,100
1,36,114,100
1,36,114,100
1,34,114,100
1,34,74,4
1,34,114,100
1,34,74,100
1,34,114,100
1,34,74,100
1,34,114,100
1,34,74,100
1,31,114,100
1,36,114,4
1,36,114,100
1,36,114,100
1,36,114,100
1,36,114,100
1,31,114,100
1,34,114,4
1,31,114,4
1,31,74,100
1,31,114,104
1,31,74,100
1,31,114,100
1,31,74,100
1,31,114,100
1,31,94,100
1,31,114,16
1,36,114,100
1,36,114,100
1,36,114,100
1,36,114,100
1,36,114,100
1,36,114,100
1,36,114,100
1,31,114,100
1,34,114,196
1,34,114,292
1,34,114,292
1,31,114,292
2,57,99,13216
2,57,99,196
2,57,99,196
2,57,99,100
2,60,99,4
2,50,99,4
2,52,99,4
2,52,99,196
2,52,99,196
2,52,99,112
2,64,99,4
2,52,99,4
2,55,99,4
2,57,99,4
2,57,99,196
2,57,99,196
2,57,99,100
2,60,99,4
2,50,99,4
2,52,99,4
2,52,99,196
2,52,99,196
2,52,99,100
2,64,99,4
2,52,99,4
2,55,99,4
2,57,99,4
2,57,99,196
2,57,99,196
2,57,99,100
2,60,99,4
2,50,99,4
2,52,99,4
2,52,99,196
2,52,99,196
2,52,99,112
2,64,99,4
2,52,99,4
2,55,99,4
2,57,99,8
2,57,99,208
2,57,99,196
2,57,99,112
2,60,99,4
2,50,99,4
2,57,99,13832
2,57,99,196
2,57,99,196
2,57,99,100
2,60,99,4
2,50,99,4
2,52,99,4
2,52,99,196
2,52,99,196
2,52,99,100
2,64,99,4
2,52,99,4
2,55,99,4
2,57,99,4
2,57,99,196
2,57,99,196
2,57,99,100
2,60,99,4
2,50,99,4
2,52,99,4
2,52,99,196
2,52,99,196
2,52,99,100
2,64,99,4
2,52,99,4
2,55,99,4
2,57,99,4
2,57,99,196
2,57,99,196
2,57,99,100
2,60,99,4
2,50,99,4
2,52,99,4
2,52,99,196
2,52,99,196
2,52,99,100
2,64,99,4
2,52,99,4
2,55,99,4
2,57,99,4
2,57,99,196
2,57,99,196
2,57,99,100
2,60,99,4
2,50,99,4
2,52,99,4
2,52,99,196
2,52,99,196
2,52,99,100
2,64,99,4
2,52,99,4
2,55,99,4
2,57,99,4
2,57,99,196
2,57,99,196
2,57,99,100
2,60,99,4
2,50,99,4
2,52,99,4
2,52,99,196
2,52,99,196
2,52,99,100
2,64,99,8
2,52,99,4
2,55,99,4
2,57,99,4
2,57,99,196
2,57,99,196
2,57,99,100
2,60,99,4
2,50,99,4
2,57,99,26116
2,57,99,196
2,57,99,196
2,57,99,100
2,60,99,4
2,50,99,4
2,52,99,4
2,52,99,196
2,52,99,196
2,52,99,100
2,64,99,4
2,52,99,4
2,55,99,4
2,57,99,4
2,57,99,196
2,57,99,196
2,57,99,100
2,60,99,4
2,50,99,4
2,52,99,4
2,52,99,196
2,52,99,196
2,52,99,100
2,64,99,4
2,52,99,4
2,55,99,4
2,57,99,4
2,57,99,196
2,57,99,196
2,57,99,100
2,60,99,4
2,50,99,4
2,52,99,4
2,52,99,196
2,52,99,196
2,52,99,100
2,64,99,4
2,52,99,4
2,55,99,4
2,57,99,4
2,57,99,196
2,57,99,196
2,57,99,100
2,60,99,4
2,50,99,4
2,52,99,4
2,52,99,196
2,52,99,196
2,52,99,100
2,64,99,4
2,52,99,4
2,55,99,4
2,57,99,4
2,57,99,196
2,57,99,196
2,57,99,100
2,60,99,4
2,50,99,4
2,52,99,4
2,52,99,196
2,52,99,196
2,52,99,100
2,64,99,8
2,52,99,4
2,55,99,4
2,57,99,4
2,57,99,196
2,57,99,196
2,57,99,100
2,60,99,4
2,50,99,4
3,69,104,1056
3,71,104,196
3,72,104,196
3,71,104,196
3,67,104,196
3,69,104,4
3,69,104,3164
3,71,104,196
3,72,104,196
3,71,104,196
3,67,104,196
3,69,104,4
3,69,104,3164
3,71,104,196
3,72,104,196
3,71,104,196
3,67,104,196
3,69,104,4
3,69,104,3164
3,71,104,196
3,72,104,196
3,71,104,196
3,67,104,196
3,69,104,4
3,72,104,20
3,69,99,4
3,72,91,20
3,69,88,4
3,72,79,20
3,69,76,4
3,72,67,24
3,69,76,16
3,60,104,12480
3,57,104,4
3,57,104,100
3,57,104,100
3,57,104,100
3,57,104,100
3,57,104,100
3,57,104,100
3,57,104,100
3,57,104,100
3,55,104,100
3,52,104,100
3,60,104,288
3,57,104,4
3,57,104,100
3,57,104,100
3,57,104,100
3,57,104,100
3,57,104,100
3,57,104,100
3,57,104,100
3,57,104,100
3,57,104,100
3,55,104,100
3,52,104,4
3,60,104,292
3,57,104,4
3,57,104,196
3,57,104,196
3,57,104,100
3,57,104,100
3,57,104,100
3,57,104,100
3,57,104,100
3,55,104,100
3,52,104,4
3,60,104,100
3,60,104,100
3,60,104,100
3,57,104,100
3,57,104,196
3,57,104,196
3,57,104,100
3,57,104,100
3,57,104,100
3,57,104,100
3,57,104,100
3,55,104,100
3,52,104,4
3,60,104,388
3,57,104,100
3,57,104,100
3,57,104,100
3,57,104,196
3,57,104,100
3,57,104,100
3,57,104,100
3,57,104,100
3,57,104,100
3,57,104,100
3,55,104,100
3,52,104,100
3,60,104,224
3,57,104,100
3,57,104,100
3,57,104,100
3,57,104,100
3,57,104,100
3,57,104,196
3,57,104,196
3,57,104,100
3,55,104,100
3,52,104,4
3,69,104,356
3,71,104,196
3,72,104,196
3,71,104,196
3,67,104,196
3,69,104,4
3,69,104,92
3,71,104,196
3,72,104,196
3,71,104,196
3,67,104,4
3,69,104,200
3,71,104,196
3,72,104,196
3,71,104,196
3,67,104,196
3,69,104,4
3,69,104,92
3,71,104,196
3,72,104,196
3,71,104,196
3,67,104,4
3,62,109,1548
3,62,109,124
3,60,109,160
3,59,109,88
3,60,109,1584
3,60,109,124
3,59,109,160
3,57,109,88
3,62,109,1588
3,62,109,124
3,60,109,160
3,59,109,88
3,60,109,1584
3,60,109,124
3,59,109,160
3,57,109,88
3,60,104,52
3,57,104,4
3,57,104,100
3,57,104,100
3,57,104,100
3,57,104,100
3,57,104,100
3,57,104,100
3,57,104,100
3,57,104,100
3,55,104,100
3,52,104,100
3,60,104,288
3,57,104,4
3,57,104,100
3,57,104,100
3,57,104,100
3,57,104,100
3,57,104,100
3,57,104,100
3,57,104,100
3,57,104,100
3,57,104,100
3,55,104,100
3,52,104,4
3,60,104,292
3,57,104,4
3,57,104,196
3,57,104,196
3,57,104,100
3,57,104,100
3,57,104,100
3,57,104,100
