track,note,velocity,time
1,29,107,1132
1,41,49,0
1,29,107,92
1,41,49,0
1,29,107,346
1,41,49,0
1,34,107,4
1,46,49,0
1,36,89,28
1,48,49,0
1,32,107,12
1,44,49,0
1,34,107,192
1,46,49,0
1,25,107,0
1,37,49,0
1,25,107,92
1,37,49,0
1,27,107,326
1,39,49,0
1,29,107,28
1,41,49,0
1,34,107,48
1,46,49,0
1,32,107,10
1,44,49,0
1,31,107,6
1,43,49,0
1,29,107,24
1,41,49,0
1,29,107,68
1,41,49,0
1,29,107,358
1,41,49,0
1,34,107,96
1,46,49,0
1,36,107,26
1,48,49,0
1,32,107,4
1,44,49,0
1,34,107,192
1,46,49,0
1,25,107,0
1,37,49,0
1,27,107,2
1,39,49,0
1,27,107,5976
1,29,107,30
1,29,107,90
1,29,107,56
1,41,107,18
1,39,107,40
1,41,107,22
1,29,107,14
1,29,107,110
1,29,107,56
1,41,107,20
1,39,107,18
1,41,107,18
1,29,107,6
1,29,107,120
1,29,107,50
1,41,107,26
1,39,107,18
1,41,107,20
1,29,107,16
1,29,107,114
1,29,107,46
1,41,107,26
1,41,107,46
1,39,107,14
1,41,107,32
1,29,107,14
1,29,107,114
1,29,107,48
1,41,107,20
1,39,107,20
1,41,107,34
1,29,107,0
1,29,107,120
1,29,107,44
1,41,107,20
1,39,107,30
1,41,107,28
1,29,107,22
1,29,107,104
1,29,107,52
1,29,107,54
1,29,107,78
1,29,107,44
1,29,107,52
1,29,107,84
1,29,107,480
1,29,107,92
1,29,107,346
1,34,107,4
1,36,107,28
1,32,107,12
1,34,107,192
1,25,107,0
1,25,107,92
1,27,107,326
1,29,107,28
1,34,107,48
1,32,107,10
1,31,107,6
1,29,107,24
1,29,107,92
1,29,107,346
1,34,107,4
1,36,107,28
1,32,107,12
1,34,107,192
1,25,107,0
1,25,107,92
1,27,107,326
1,29,107,28
1,34,107,48
1,36,107,10
1,32,107,6
1,29,107,24
1,29,107,92
1,29,107,346
1,34,107,4
1,36,107,28
1,32,107,12
1,34,107,192
1,25,107,0
1,25,107,92
1,27,107,326
1,29,107,28
1,34,107,48
1,32,107,10
1,31,107,6
1,29,107,24
1,29,107,92
1,29,107,346
1,34,107,4
1,36,107,28
1,32,107,12
1,34,107,192
1,25,107,0
1,25,107,92
1,27,107,326
1,29,107,28
1,34,107,48
1,36,107,10
1,32,107,6
1,29,107,24
1,29,107,76
1,29,107,342
1,32,107,96
1,34,107,90
1,36,107,14
1,32,107,0
1,34,107,192
1,25,107,44
1,25,107,66
1,25,107,334
1,32,107,24
1,34,107,96
1,36,107,70
1,34,107,0
1,32,107,192
1,29,107,6
1,29,107,54
1,29,107,358
1,32,107,0
1,34,107,2
1,36,107,8
1,32,107,192
1,34,107,190
1,25,107,32
1,25,107,66
1,25,107,368
1,32,107,18
1,34,107,96
1,36,107,64
1,37,107,184
1,36,107,2
1,29,107,36
1,29,107,90
1,29,107,56
1,41,107,18
1,39,107,40
1,41,107,22
1,29,107,14
1,29,107,110
1,29,107,56
1,41,107,20
1,39,107,18
1,41,107,18
1,29,107,6
1,29,107,120
1,29,107,50
1,41,107,26
1,39,107,18
1,41,107,20
1,29,107,16
1,29,107,114
1,29,107,46
1,41,107,26
1,41,107,46
1,39,107,14
1,41,107,32
1,29,107,14
1,29,107,90
1,29,107,56
1,41,107,18
1,39,107,40
1,41,107,22
1,29,107,14
1,29,107,110
1,29,107,56
1,41,107,20
1,39,107,18
1,41,107,18
1,29,107,6
1,29,107,120
1,29,107,50
1,41,107,26
1,39,107,18
1,41,107,20
1,29,107,16
1,29,107,114
1,29,107,46
1,41,107,26
1,41,107,46
1,39,107,14
1,41,107,32
1,29,107,14
1,29,107,90
1,29,107,56
1,41,107,18
1,39,107,40
1,41,107,22
1,29,107,14
1,29,107,110
1,29,107,56
1,41,107,20
1,39,107,18
1,41,107,18
1,29,107,6
1,29,107,120
1,29,107,50
1,41,107,26
1,39,107,18
1,41,107,20
1,29,107,16
1,29,107,114
1,29,107,46
1,41,107,26
1,41,107,46
1,39,107,14
1,41,107,32
1,29,107,14
1,29,107,90
1,29,107,56
1,41,107,18
1,39,107,40
1,41,107,22
1,29,107,14
1,29,107,110
1,29,107,56
1,41,107,20
1,39,107,18
1,41,107,18
1,29,107,6
1,29,107,120
1,29,107,50
1,41,107,26
1,39,107,18
1,41,107,20
1,29,107,16
1,29,107,114
1,29,107,6636
1,29,107,92
1,29,107,346
1,34,107,4
1,36,107,28
1,32,107,12
1,34,107,192
1,25,107,0
1,25,107,92
1,27,107,326
1,29,107,28
1,34,107,48
1,32,107,10
1,31,107,6
1,29,107,24
1,29,107,92
1,29,107,346
1,34,107,4
1,36,107,28
1,32,107,12
1,34,107,192
1,25,107,0
1,25,107,92
1,27,107,326
1,29,107,28
1,34,107,48
1,36,107,10
1,32,107,6
1,29,107,24
1,29,107,92
1,29,107,346
1,34,107,4
1,36,107,28
1,32,107,12
1,34,107,192
1,25,107,0
1,25,107,92
1,27,107,326
1,29,107,28
1,34,107,48
1,32,107,10
1,31,107,6
1,29,107,24
1,29,107,92
1,29,107,346
1,34,107,4
1,36,107,28
1,32,107,12
1,34,107,192
1,25,107,0
1,25,107,92
1,27,107,326
1,29,107,28
1,34,107,48
1,36,107,10
1,32,107,6
1,29,107,24
1,29,107,76
1,29,107,342
1,32,107,96
1,34,107,90
1,36,107,14
1,32,107,0
1,34,107,192
1,25,107,44
1,25,107,66
1,25,107,334
1,32,107,24
1,34,107,96
1,36,107,70
1,34,107,0
1,32,107,192
1,29,107,6
1,29,107,54
1,29,107,358
1,32,107,0
1,34,107,2
1,36,107,8
1,32,107,192
1,34,107,190
1,25,107,32
1,25,107,66
1,25,107,368
1,32,107,18
1,34,107,96
1,36,107,64
1,37,107,184
1,36,107,2
1,29,107,36
1,29,107,90
1,29,107,56
1,41,107,18
1,39,107,40
1,41,107,22
1,29,107,14
1,29,107,110
1,29,107,56
1,41,107,20
1,39,107,18
1,41,107,18
1,29,107,6
1,29,107,120
1,29,107,50
1,41,107,26
1,39,107,18
1,41,107,20
1,29,107,16
1,29,107,114
1,29,107,46
1,41,107,26
1,41,107,46
1,39,107,14
1,41,107,32
1,29,107,14
1,29,107,90
1,29,107,56
1,41,107,18
1,39,107,40
1,41,107,22
1,29,107,14
1,29,107,110
1,29,107,56
1,41,107,20
1,39,107,18
1,41,107,18
1,29,107,6
1,29,107,120
1,29,107,50
1,41,107,26
1,39,107,18
1,41,107,20
1,29,107,16
1,29,107,114
1,29,107,46
1,41,107,26
1,41,107,46
1,39,107,14
1,41,107,32
1,29,107,14
1,29,107,90
1,29,107,56
1,41,107,18
1,39,107,40
1,41,107,22
1,29,107,14
1,29,107,110
1,29,107,56
1,41,107,20
1,39,107,18
1,41,107,18
1,29,107,6
1,29,107,120
1,29,107,50
1,41,107,26
1,39,107,18
1,41,107,20
1,29,107,16
1,29,107,114
1,29,107,46
1,41,107,26
1,41,107,46
1,39,107,14
1,41,107,32
1,29,107,14
1,29,107,90
1,29,107,56
1,41,107,18
1,39,107,40
1,41,107,22
1,29,107,14
1,29,107,110
1,29,107,56
1,41,107,20
1,39,107,18
1,41,107,18
1,29,107,6
1,29,107,120
1,29,107,50
1,41,107,26
1,39,107,18
1,41,107,20
1,29,107,16
1,29,107,114
1,29,107,18924
1,29,107,90
1,29,107,56
1,41,107,18
1,39,107,40
1,41,107,22
1,29,107,14
1,29,107,110
1,29,107,56
1,41,107,20
1,39,107,18
1,41,107,18
1,29,107,6
1,29,107,120
1,29,107,50
1,41,107,26
1,39,107,18
1,41,107,20
1,29,107,16
1,29,107,114
1,29,107,46
1,41,107,26
1,41,107,46
1,39,107,14
1,41,107,32
1,29,107,14
1,29,107,90
1,29,107,56
1,41,107,18
1,39,107,40
1,41,107,22
1,29,107,14
1,29,107,110
1,29,107,56
1,41,107,20
1,39,107,18
1,41,107,18
1,29,107,6
1,29,107,120
1,29,107,50
1,41,107,26
1,39,107,18
1,41,107,20
1,29,107,16
1,29,107,114
1,29,107,46
1,41,107,26
1,41,107,46
1,39,107,14
1,41,107,32
1,29,107,14
1,29,107,90
1,29,107,56
1,41,107,18
1,39,107,40
1,41,107,22
1,29,107,14
1,29,107,110
1,29,107,56
1,41,107,20
1,39,107,18
1,41,107,18
1,29,107,6
1,29,107,120
1,29,107,50
1,41,107,26
1,39,107,18
1,41,107,20
1,29,107,16
1,29,107,114
1,29,107,46
1,41,107,26
1,41,107,46
1,39,107,14
1,41,107,32
1,29,107,14
1,29,107,90
1,29,107,56
1,41,107,18
1,39,107,40
1,41,107,22
1,29,107,14
1,29,107,110
1,29,107,56
1,41,107,20
1,39,107,18
1,41,107,18
1,29,107,6
1,29,107,120
1,29,107,50
1,41,107,26
1,39,107,18
1,41,107,20
1,29,107,16
1,29,107,114
2,53,127,764
2,65,127,0
2,68,127,0
2,72,127,0
2,49,127,4
2,65,127,0
2,68,127,0
2,73,127,0
2,51,127,4
2,67,127,0
2,70,127,0
2,75,127,0
2,53,127,4
2,65,127,0
2,68,127,0
2,72,127,0
2,49,127,4
2,65,127,0
2,68,127,0
2,73,127,0
2,51,127,4
2,63,127,0
2,67,127,0
2,70,127,0
2,53,127,6148
2,65,127,0
2,68,127,0
2,72,127,0
2,49,127,4
2,65,127,0
2,68,127,0
2,73,127,0
2,51,127,4
2,67,127,0
2,70,127,0
2,75,127,0
2,53,127,4
2,65,127,0
2,68,127,0
2,72,127,0
2,49,127,4
2,65,127,0
2,68,127,0
2,73,127,0
2,51,127,4
2,63,127,0
2,67,127,0
2,70,127,0
2,53,127,12292
2,65,127,0
2,68,127,0
2,72,127,0
2,49,127,4
2,65,127,0
2,68,127,0
2,73,127,0
2,51,127,4
2,67,127,0
2,70,127,0
2,75,127,0
2,53,127,4
2,65,127,0
2,68,127,0
2,72,127,0
2,49,127,4
2,65,127,0
2,68,127,0
2,73,127,0
2,51,127,4
2,63,127,0
2,67,127,0
2,70,127,0
2,53,127,4
2,65,127,0
2,68,127,0
2,72,127,0
2,49,127,4
2,65,127,0
2,68,127,0
2,73,127,0
2,51,127,4
2,67,127,0
2,70,127,0
2,75,127,0
2,53,127,4
2,65,127,0
2,68,127,0
2,72,127,0
2,49,127,4
2,65,127,0
2,68,127,0
2,73,127,0
2,51,127,4
2,63,127,0
2,67,127,0
2,70,127,0
2,53,127,4
2,65,127,0
2,68,127,0
2,72,127,0
2,49,127,4
2,65,127,0
2,68,127,0
2,73,127,0
2,51,127,4
2,67,127,0
2,70,127,0
2,75,127,0
2,53,127,4
2,65,127,0
2,68,127,0
2,72,127,0
2,49,127,4
2,65,127,0
2,68,127,0
2,73,127,0
2,51,127,4
2,63,127,0
2,67,127,0
2,70,127,0
2,53,127,4
2,65,127,0
2,68,127,0
2,72,127,0
2,49,127,4
2,65,127,0
2,68,127,0
2,73,127,0
2,51,127,4
2,67,127,0
2,70,127,0
2,75,127,0
2,53,127,4
2,65,127,0
2,68,127,0
2,72,127,0
2,49,127,4
2,65,127,0
2,68,127,0
2,73,127,0
2,51,127,4
2,63,127,0
2,67,127,0
2,70,127,0
2,53,127,12292
2,65,127,0
2,68,127,0
2,72,127,0
2,49,127,4
2,65,127,0
2,68,127,0
2,73,127,0
2,51,127,4
2,67,127,0
2,70,127,0
2,75,127,0
2,53,127,4
2,65,127,0
2,68,127,0
2,72,127,0
2,49,127,4
2,65,127,0
2,68,127,0
2,73,127,0
2,51,127,4
2,63,127,0
2,67,127,0
2,70,127,0
2,53,127,4
2,65,127,0
2,68,127,0
2,72,127,0
2,49,127,4
2,65,127,0
2,68,127,0
2,73,127,0
2,51,127,4
2,67,127,0
2,70,127,0
2,75,127,0
2,53,127,4
2,65,127,0
2,68,127,0
2,72,127,0
2,49,127,4
2,65,127,0
2,68,127,0
2,73,127,0
2,51,127,4
2,63,127,0
2,67,127,0
2,70,127,0
2,53,127,4
2,65,127,0
2,68,127,0
2,72,127,0
2,49,127,4
2,65,127,0
2,68,127,0
2,73,127,0
2,51,127,4
2,67,127,0
2,70,127,0
2,75,127,0
2,53,127,4
2,65,127,0
2,68,127,0
2,72,127,0
2,49,127,4
2,65,127,0
2,68,127,0
2,73,127,0
2,51,127,4
2,63,127,0
2,67,127,0
2,70,127,0
2,53,127,4
2,65,127,0
2,68,127,0
2,72,127,0
2,49,127,4
2,65,127,0
2,68,127,0
2,73,127,0
2,51,127,4
2,67,127,0
2,70,127,0
2,75,127,0
2,53,127,4
2,65,127,0
2,68,127,0
2,72,127,0
2,49,127,4
2,65,127,0
2,68,127,0
2,73,127,0
2,51,127,4
2,63,127,0
2,67,127,0
2,70,127,0
2,53,127,6148
2,65,127,0
2,68,127,0
2,72,127,0
2,49,127,4
2,65,127,0
2,68,127,0
2,73,127,0
2,51,127,4
2,67,127,0
2,70,127,0
2,75,127,0
2,53,127,4
2,65,127,0
2,68,127,0
2,72,127,0
2,49,127,4
2,65,127,0
2,68,127,0
2,73,127,0
2,51,127,4
2,63,127,0
2,67,127,0
2,70,127,0
2,53,127,4
2,65,127,0
2,68,127,0
2,72,127,0
2,49,127,4
2,65,127,0
2,68,127,0
2,73,127,0
2,51,127,4
2,67,127,0
2,70,127,0
2,75,127,0
2,53,127,4
2,65,127,0
2,68,127,0
2,72,127,0
2,49,127,4
2,65,127,0
2,68,127,0
2,73,127,0
2,51,127,4
2,63,127,0
2,67,127,0
2,70,127,0
2,53,127,4
2,65,127,0
2,68,127,0
2,72,127,0
2,49,127,4
2,65,127,0
2,68,127,0
2,73,127,0
2,51,127,4
2,67,127,0
2,70,127,0
2,75,127,0
2,53,127,4
2,65,127,0
2,68,127,0
2,72,127,0
2,49,127,4
2,65,127,0
2,68,127,0
2,73,127,0
2,51,127,4
2,63,127,0
2,67,127,0
2,70,127,0
2,53,127,4
2,68,127,6
2,65,127,2
2,72,127,2
3,60,88,19622
3,60,88,54
3,60,91,48
3,60,94,48
3,60,94,78
3,60,92,46
3,58,82,8
3,56,85,62
3,53,80,34
3,60,87,1840
3,60,91,48
3,60,97,46
3,60,87,28
3,60,94,118
3,58,85,0
3,56,81,12
3,53,71,14
3,60,86,1918
3,60,86,48
3,60,97,50
3,60,92,50
3,58,81,196
3,56,84,60
3,53,86,52
3,53,92,38
3,60,81,1742
3,60,82,132
3,60,83,58
3,60,84,52
3,60,85,52
3,60,85,62
3,60,90,62
3,58,87,34
3,58,86,56
3,56,95,46
3,53,72,60
3,60,88,1870
3,60,87,58
3,60,88,56
3,60,100,50
3,60,98,70
3,58,84,56
3,58,87,54
3,56,87,38
3,53,97,56
3,60,92,1948
3,60,86,52
3,60,91,54
3,60,91,52
3,60,87,52
3,60,85,60
3,58,78,62
3,58,85,64
3,58,73,66
3,56,78,54
3,53,78,46
3,60,88,1944
3,60,88,54
3,60,91,48
3,60,94,48
3,60,94,78
3,60,92,46
3,58,82,8
3,56,85,62
3,53,80,34
3,60,87,1840
3,60,91,48
3,60,97,46
3,60,87,28
3,60,94,118
3,58,85,0
3,56,81,12
3,53,71,14
3,60,88,1826
3,60,88,54
3,60,91,48
3,60,94,48
3,60,94,78
3,60,92,46
3,58,82,8
3,56,85,62
3,53,80,34
3,60,86,11062
3,60,104,62
3,60,102,58
3,60,106,72
3,58,91,50
3,58,93,116
3,56,85,32
3,53,91,38
3,60,88,1866
3,60,98,56
3,60,98,48
3,60,104,42
3,60,94,84
3,60,94,48
3,58,77,38
3,58,85,86
3,56,77,24
3,53,79,28
3,60,84,1834
3,60,92,60
3,60,95,102
3,60,91,128
3,60,94,56
3,58,95,32
3,58,93,126
3,56,91,32
3,53,90,42
3,60,91,1902
3,60,90,52
3,60,80,58
3,60,94,70
3,60,100,118
3,58,81,24
3,58,84,54
3,58,89,58
3,56,89,58
3,53,95,58
3,53,86,48
3,60,83,1932
3,60,84,52
3,60,84,54
3,60,78,52
3,60,85,60
3,58,81,42
3,58,78,98
3,56,81,38
3,53,80,18
3,60,80,1844
3,60,87,66
