track,note,velocity,time
1,36,73,0
1,36,82,10
1,36,99,10
1,36,127,42
1,36,127,146
1,36,127,252
1,36,124,260
1,36,124,252
1,36,127,276
1,36,127,252
1,36,124,260
1,36,124,252
1,36,127,276
1,36,127,252
1,36,124,260
1,36,124,252
1,36,127,276
1,36,127,252
1,36,124,260
1,36,124,252
1,36,127,276
1,36,127,252
1,36,124,260
1,36,124,252
1,36,127,276
1,36,127,252
1,36,124,260
1,36,124,252
1,36,127,276
1,36,127,252
1,36,124,260
1,36,124,252
1,36,127,276
1,36,127,252
1,36,124,260
1,36,124,252
1,36,127,276
1,36,127,252
1,36,124,260
1,36,124,252
1,36,127,276
1,36,127,252
1,36,124,260
1,36,124,252
1,36,127,276
1,36,127,252
1,36,124,260
1,36,124,252
1,36,127,276
1,36,127,252
1,36,124,260
1,36,124,252
1,36,127,276
1,36,127,252
1,36,124,260
1,36,124,252
1,36,127,276
1,36,127,252
1,36,124,260
1,36,124,252
1,36,127,276
1,36,127,252
1,36,124,260
1,36,124,252
1,36,127,276
1,36,127,1404
1,36,127,252
1,36,124,260
1,36,124,252
1,36,127,276
1,36,127,252
1,36,124,260
1,36,124,252
1,36,127,276
1,36,127,252
1,36,124,260
1,36,124,252
1,36,127,276
1,36,127,252
1,36,124,260
1,36,124,252
1,36,127,276
1,36,127,252
1,36,124,260
1,36,124,252
1,36,127,276
1,36,127,252
1,36,124,260
1,36,124,252
1,36,127,276
1,36,127,252
1,36,124,260
1,36,124,252
1,36,127,276
1,36,127,252
1,36,124,260
1,36,124,252
1,36,127,276
1,36,127,252
1,36,124,260
1,36,124,252
1,36,127,276
1,36,127,252
1,36,124,260
1,36,124,252
1,36,127,276
1,36,127,252
1,36,124,260
1,36,124,252
1,36,127,276
1,36,127,252
1,36,124,260
1,36,124,252
1,36,127,276
1,36,127,252
1,36,124,260
1,36,124,252
1,36,127,276
1,36,127,252
1,36,124,260
1,36,124,252
1,36,127,276
1,36,127,252
1,36,124,260
1,36,124,252
1,36,127,276
1,36,73,1020
1,36,82,10
1,36,99,10
1,36,127,42
1,36,127,146
1,36,127,252
1,36,124,260
1,36,124,252
1,36,127,276
1,36,127,252
1,36,124,260
1,36,124,252
1,36,127,276
1,36,127,252
1,36,124,260
1,36,124,252
1,36,127,276
1,36,127,252
1,36,124,260
1,36,124,252
1,36,127,276
1,36,127,252
1,36,124,260
1,36,124,252
1,36,127,276
1,36,127,252
1,36,124,260
1,36,124,252
1,36,127,276
1,36,127,252
1,36,124,260
1,36,124,252
1,36,127,276
1,36,127,1404
1,36,127,252
1,36,124,260
1,36,124,252
1,36,127,276
1,36,127,252
1,36,124,260
1,36,124,252
1,36,127,276
1,36,127,252
1,36,124,260
1,36,124,252
1,36,127,276
1,36,127,252
1,36,124,260
1,36,124,252
1,36,127,276
1,36,127,252
1,36,124,260
1,36,124,252
1,36,127,276
1,36,127,252
1,36,124,260
1,36,124,252
1,36,127,276
1,36,127,252
1,36,124,260
1,36,124,252
1,36,127,276
1,36,127,252
1,36,124,260
1,36,124,252
1,36,127,276
1,36,127,252
1,36,124,260
1,36,124,252
1,36,127,276
1,36,127,252
1,36,124,260
1,36,124,252
1,36,127,276
1,36,127,252
1,36,124,260
1,36,124,252
1,36,127,276
1,36,127,252
1,36,124,260
1,36,124,252
1,36,127,276
1,36,127,252
1,36,124,260
1,36,124,252
1,36,127,276
1,36,127,252
1,36,124,260
1,36,124,252
1,36,127,276
1,36,127,252
1,36,124,260
1,36,124,252
1,36,127,276
1,36,73,1020
1,36,82,10
1,36,99,10
1,36,127,42
1,36,127,146
1,36,127,252
1,36,124,260
1,36,124,252
1,36,127,276
1,36,127,252
1,36,124,260
1,36,124,252
1,36,127,276
1,36,127,252
1,36,124,260
1,36,124,252
1,36,127,276
1,36,127,252
1,36,124,260
1,36,124,252
1,36,127,276
1,36,127,252
1,36,124,260
1,36,124,252
1,36,127,276
1,36,127,252
1,36,124,260
1,36,124,252
1,36,127,276
1,36,127,252
1,36,124,260
1,36,124,252
1,36,127,276
1,36,124,1404
1,36,121,242
1,36,121,238
1,36,124,240
1,36,127,234
1,36,127,246
1,36,124,232
1,36,124,226
1,36,127,236
1,36,124,238
1,36,121,244
1,36,127,232
1,36,127,228
1,36,121,244
1,36,124,234
1,36,124,224
1,36,121,234
1,36,124,228
1,36,124,240
1,36,127,238
1,36,124,226
1,36,124,246
1,36,124,228
1,36,124,228
1,36,121,222
1,36,121,128
1,36,124,126
1,36,121,112
1,36,124,116
1,36,124,116
1,36,127,126
1,36,127,284
1,36,121,116
1,36,121,122
1,36,124,114
1,36,124,126
1,36,127,672
1,36,127,252
1,36,124,260
1,36,124,252
1,36,127,276
1,36,127,252
1,36,124,260
1,36,124,252
1,36,127,276
1,36,127,252
1,36,124,260
1,36,124,252
1,36,127,276
1,36,127,252
1,36,124,260
1,36,124,252
1,36,127,276
1,36,127,252
1,36,124,260
1,36,124,252
1,36,127,276
1,36,127,252
1,36,124,260
1,36,124,252
1,36,127,276
1,36,127,252
1,36,124,260
1,36,124,252
1,36,127,276
1,36,127,252
1,36,124,260
1,36,124,252
1,36,127,276
1,36,127,252
1,36,124,260
1,36,124,86
1,36,127,26
1,36,127,16
1,36,124,88
1,36,124,104
1,36,127,54
1,36,127,94
1,36,124,26
1,36,124,22
1,36,127,130
1,36,127,108
1,36,124,88
1,36,124,8
1,36,127,16
1,36,127,52
1,36,124,50
1,36,124,12
1,36,127,48
1,36,127,14
1,36,124,40
1,36,124,36
1,36,127,64
1,36,127,26
1,36,124,18
1,36,124,16
2,38,121,14784
2,38,124,872
2,38,127,656
2,38,124,688
2,38,127,656
2,38,124,688
2,38,127,656
2,38,124,688
2,38,127,656
2,38,124,688
2,38,127,656
2,38,124,688
2,38,127,656
2,38,124,688
2,38,127,656
2,38,124,688
2,38,127,656
2,38,124,688
2,38,127,656
2,38,124,688
2,38,127,656
2,38,124,688
2,38,127,656
2,38,124,688
2,38,127,656
2,38,124,688
2,38,127,656
2,38,124,688
2,38,127,656
2,38,124,688
2,38,127,656
2,38,104,14128
2,38,84,30
2,38,64,38
2,38,104,5900
2,38,84,34
2,38,64,38
2,38,121,5328
2,38,124,872
2,38,127,656
2,38,124,688
2,38,127,656
2,38,124,688
2,38,127,656
2,38,124,688
2,38,127,656
2,38,124,688
2,38,127,656
2,38,124,688
2,38,127,656
2,38,124,688
2,38,127,656
2,38,104,1840
2,38,84,30
2,38,64,38
2,38,104,2832
2,38,84,30
2,38,64,38
2,38,104,2832
2,38,84,30
2,38,64,38
2,38,104,2832
2,38,84,30
2,38,64,38
2,38,104,2832
2,38,84,30
2,38,64,38
2,38,104,5900
2,38,84,34
2,38,64,38
2,38,121,5328
2,38,117,488
2,38,97,30
2,38,77,38
2,38,124,144
2,38,127,656
2,38,124,688
2,38,127,656
2,38,124,688
2,38,127,656
2,38,124,688
2,38,127,656
2,38,117,300
2,38,97,34
2,38,77,38
2,38,124,144
2,38,127,656
2,38,124,688
2,38,127,656
2,38,124,688
2,38,127,656
2,38,117,14128
2,38,97,30
2,38,77,38
2,38,124,144
2,38,127,656
2,38,124,688
2,38,127,656
2,38,124,688
2,38,127,656
2,38,124,688
2,38,127,656
2,38,117,300
2,38,117,2
2,38,97,34
2,38,77,38
2,38,124,144
2,38,127,656
2,38,124,688
2,38,127,656
2,38,124,688
2,38,127,656
2,38,124,688
2,38,127,656
2,38,117,304
2,38,97,30
2,38,77,38
2,38,124,144
2,38,127,656
2,38,124,688
2,38,127,656
2,38,124,688
2,38,127,656
2,38,124,688
2,38,127,656
2,38,117,300
2,38,117,2
2,38,97,34
2,38,77,38
2,38,124,144
2,38,127,656
2,38,124,688
2,38,127,656
2,38,124,688
2,38,127,656
3,42,121,15360
3,42,118,140
3,42,124,140
3,42,118,134
3,42,118,138
3,42,118,132
3,42,124,138
3,42,121,136
3,42,121,132
3,42,118,140
3,42,124,140
3,42,118,134
3,42,118,138
3,42,118,132
3,42,124,138
3,42,121,136
3,42,121,132
3,42,118,140
3,42,124,140
3,42,118,134
3,42,118,138
3,42,118,132
3,42,124,138
3,42,121,136
3,42,121,132
3,42,118,140
3,42,124,140
3,42,118,134
3,42,118,138
3,42,118,132
3,42,124,138
3,42,121,136
3,42,121,132
3,42,118,140
3,42,124,140
3,42,118,134
3,42,118,138
3,42,118,132
3,42,124,138
3,42,121,136
3,42,121,132
3,42,118,140
3,42,124,140
3,42,118,134
3,42,118,138
3,42,118,132
3,42,124,138
3,42,121,136
3,42,121,132
3,42,118,140
3,42,124,140
3,42,118,134
3,42,118,138
3,42,118,132
3,42,124,138
3,42,121,136
3,42,121,132
3,42,118,140
3,42,124,140
3,42,118,134
3,42,118,138
3,42,118,132
3,42,124,138
3,42,121,136
3,42,121,132
3,42,118,140
3,42,124,140
3,42,118,134
3,42,118,138
3,42,118,132
3,42,124,138
3,42,121,136
3,42,121,132
3,42,118,140
3,42,124,140
3,42,118,134
3,42,118,138
3,42,118,132
3,42,124,138
3,42,121,136
3,42,121,132
3,42,118,140
3,42,124,140
3,42,118,134
3,42,118,138
3,42,118,132
3,42,124,138
3,42,121,136
3,42,121,132
3,42,118,140
3,42,124,140
3,42,118,134
3,42,118,138
3,42,118,132
3,42,124,138
3,42,121,136
3,42,121,132
3,42,118,140
3,42,124,140
3,42,118,134
3,42,118,138
3,42,118,132
3,42,124,138
3,42,121,136
3,42,121,132
3,42,118,140
3,42,124,140
3,42,118,134
3,42,118,138
3,42,118,132
3,42,124,138
3,42,121,136
3,42,121,132
3,42,118,140
3,42,124,140
3,42,118,134
3,42,118,138
3,42,118,132
3,42,124,138
3,42,121,136
3,42,121,132
3,42,121,26060
3,42,118,140
3,42,124,140
3,42,118,134
3,42,118,138
3,42,118,132
3,42,124,138
3,42,121,136
3,42,121,132
3,42,118,140
3,42,124,140
3,42,118,134
3,42,118,138
3,42,118,132
3,42,124,138
3,42,121,136
3,42,121,132
3,42,118,140
3,42,124,140
3,42,118,134
3,42,118,138
3,42,118,132
3,42,124,138
3,42,121,136
3,42,121,132
3,42,118,140
3,42,124,140
3,42,118,134
3,42,118,138
3,42,118,132
3,42,124,138
3,42,121,136
3,42,121,132
3,42,118,140
3,42,124,140
3,42,118,134
3,42,118,138
3,42,118,132
3,42,124,138
3,42,121,136
3,42,121,132
3,42,118,140
3,42,124,140
3,42,118,134
3,42,118,138
3,42,118,132
3,42,124,138
3,42,121,136
3,42,121,132
3,42,118,140
3,42,124,140
3,42,118,134
3,42,118,138
3,42,118,132
3,42,124,138
3,42,121,136
3,42,121,132
3,42,121,26060
3,42,118,140
3,42,124,140
3,42,118,134
3,42,118,138
3,42,118,132
3,42,124,138
3,42,121,136
3,42,121,132
3,42,118,140
3,42,124,140
3,42,118,134
3,42,118,138
3,42,118,132
3,42,124,138
3,42,121,136
3,42,121,132
3,42,118,140
3,42,124,140
3,42,118,134
3,42,118,138
3,42,118,132
3,42,124,138
3,42,121,136
3,42,121,132
3,42,118,140
3,42,124,140
3,42,118,134
3,42,118,138
3,42,118,132
3,42,124,138
3,42,121,136
3,42,121,132
3,42,118,140
3,42,124,140
3,42,118,134
3,42,118,138
3,42,118,132
3,42,124,138
3,42,121,136
3,42,121,132
3,42,118,140
3,42,124,140
3,42,118,134
3,42,118,138
3,42,118,132
3,42,124,138
3,42,121,136
3,42,121,132
3,42,118,140
3,42,124,140
3,42,118,134
3,42,118,138
3,42,118,132
3,42,124,138
3,42,121,136
3,42,121,132
3,42,121,13772
3,42,118,140
3,42,124,140
3,42,118,134
3,42,118,138
3,42,118,132
3,42,124,138
3,42,121,136
3,42,121,132
3,42,118,140
3,42,124,140
3,42,118,134
3,42,118,138
3,42,118,132
3,42,124,138
3,42,121,136
3,42,121,132
3,42,118,140
3,42,124,140
3,42,118,134
3,42,118,138
3,42,118,132
3,42,124,138
3,42,121,136
3,42,121,132
3,42,118,140
3,42,124,140
3,42,118,134
3,42,118,138
3,42,118,132
3,42,124,138
3,42,121,136
3,42,121,132
3,42,118,140
3,42,124,140
3,42,118,134
3,42,118,138
3,42,118,132
3,42,124,138
3,42,121,136
3,42,121,132
3,42,118,140
3,42,124,140
3,42,118,134
3,42,118,138
3,42,118,132
3,42,124,138
3,42,121,136
3,42,121,132
3,42,118,140
3,42,124,140
3,42,118,134
3,42,118,138
3,42,118,132
3,42,124,138
3,42,121,136
3,42,121,132
3,42,118,140
3,42,124,140
3,42,118,134
3,42,118,138
3,42,118,132
3,42,124,138
3,42,121,136
3,42,121,132
3,42,118,140
3,42,124,140
3,42,118,134
3,42,118,138
3,42,118,132
3,42,124,138
3,42,121,136
3,42,121,132
3,42,118,140
3,42,124,140
3,42,118,134
3,42,118,138
3,42,118,132
3,42,124,138
3,42,121,136
3,42,121,132
3,42,118,140
3,42,124,140
3,42,118,134
3,42,118,138
3,42,118,132
3,42,124,138
3,42,121,136
3,42,121,132
3,42,118,140
3,42,124,140
3,42,118,134
3,42,118,138
3,42,118,132
3,42,124,138
3,42,121,136
3,42,121,132
3,42,118,140
3,42,124,140
3,42,118,134
3,42,118,138
3,42,118,132
3,42,124,138
3,42,121,136
3,42,121,132
3,42,118,140
3,42,124,140
3,42,118,134
3,42,118,138
3,42,118,132
3,42,124,138
3,42,121,136
3,42,121,132
3,42,118,140
3,42,124,140
3,42,118,134
3,42,118,138
3,42,118,132
3,42,124,138
3,42,121,136
4,37,92,3072
4,37,92,254
4,37,95,244
4,37,89,328
4,37,92,240
4,37,76,58
4,37,89,144
4,37,92,234
4,37,89,238
4,37,92,330
4,37,87,230
4,37,81,58
4,37,87,140
4,37,89,234
4,37,89,240
4,37,92,328
4,37,89,232
4,37,83,58
4,37,92,140
4,37,89,230
4,37,89,242
4,37,92,332
4,37,89,230
4,37,76,54
4,37,89,144
4,37,92,234
4,37,92,236
4,37,95,328
4,37,89,230
4,37,76,60
4,37,89,146
4,37,89,236
4,37,89,244
4,37,95,328
4,37,92,228
4,37,83,58
4,37,89,130
4,37,89,226
4,37,92,232
4,37,89,326
4,37,92,230
4,37,85,60
4,37,92,140
4,37,92,236
4,37,89,236
4,37,92,906
4,37,92,252
4,37,89,242
4,37,92,238
4,37,81,56
4,37,89,238
4,37,92,54
4,37,95,144
4,37,92,234
4,37,92,242
4,37,95,238
4,37,89,60
4,37,92,240
4,37,92,56
4,37,92,144
4,37,95,234
4,37,95,238
4,37,95,230
4,37,87,54
4,37,92,238
4,37,92,54
4,37,92,144
4,37,95,238
4,37,95,238
4,37,92,232
4,37,85,58
4,37,89,240
4,37,89,52
4,37,95,144
4,37,95,234
4,37,92,238
4,37,95,236
4,37,83,56
4,37,95,244
4,37,87,60
4,37,95,148
4,37,92,240
4,37,95,238
4,37,92,236
4,37,87,64
4,37,95,242
4,37,89,62
4,37,95,144
4,37,92,238
4,37,98,238
4,37,95,236
4,37,89,60
4,37,92,244
4,37,89,60
4,37,95,140
4,37,98,236
4,37,95,236
4,37,95,238
4,37,89,62
4,37,92,240
4,37,92,56
4,37,92,152
4,37,92,252
4,37,89,242
4,37,92,238
4,37,81,56
4,37,89,238
4,37,92,54
4,37,95,144
4,37,92,234
4,37,92,242
4,37,95,238
4,37,89,60
4,37,92,240
4,37,92,56
4,37,92,144
4,37,95,234
4,37,95,238
4,37,95,230
4,37,87,54
4,37,92,238
4,37,92,54
4,37,92,144
4,37,95,238
4,37,95,238
4,37,92,232
4,37,85,58
4,37,89,240
4,37,89,52
4,37,95,144
4,37,95,234
4,37,92,238
4,37,95,236
4,37,83,56
4,37,95,244
4,37,87,60
4,37,95,148
4,37,92,240
4,37,95,238
4,37,92,236
4,37,87,64
4,37,95,242
4,37,89,62
4,37,95,144
4,37,92,238
4,37,98,238
4,37,95,236
4,37,89,60
4,37,92,244
4,37,89,60
4,37,95,140
4,37,92,1484
4,37,92,254
4,37,95,244
4,37,89,328
4,37,92,240
4,37,76,58
4,37,89,144
4,37,92,234
4,37,89,238
4,37,92,330
