track,note,velocity,time
0,27,110,24
0,29,107,0
0,32,52,0
0,41,49,0
0,53,127,0
0,65,127,0
0,68,127,0
0,72,127,0
0,29,107,46
0,32,52,0
0,41,49,0
0,27,110,40
0,32,52,0
0,32,52,77
0,27,110,40
0,32,52,0
0,29,107,40
0,41,49,0
0,72,107,46
0,27,110,2
0,32,52,0
0,34,107,0
0,46,49,0
0,73,103,38
0,72,95,11
0,32,52,1
0,36,89,0
0,48,49,0
0,70,111,37
0,27,110,3
0,32,52,0
0,72,95,3
0,32,107,3
0,44,49,0
0,32,52,44
0,27,110,40
0,32,52,0
0,34,107,0
0,46,49,0
0,25,107,0
0,27,110,0
0,32,52,0
0,37,49,0
0,49,127,0
0,65,127,0
0,68,127,0
0,73,127,0
0,72,44,40
0,25,107,46
0,32,52,0
0,37,49,0
0,27,110,40
0,32,52,0
0,32,52,0
0,27,110,40
0,32,52,0
0,72,27,0
0,27,107,40
0,39,49,0
0,27,110,2
0,29,107,0
0,32,52,0
0,41,49,0
0,51,127,0
0,67,127,0
0,70,127,0
0,75,127,0
0,32,52,24
0,34,107,0
0,46,49,0
0,27,110,0
0,32,52,0
0,32,107,5
0,44,49,0
0,32,52,48
0,27,110,3
0,31,107,0
0,32,52,0
0,43,49,0
0,27,110,2
0,29,107,0
0,32,52,0
0,41,49,0
0,53,127,0
0,65,127,0
0,68,127,0
0,72,127,0
0,29,107,34
0,32,52,0
0,41,49,0
0,27,110,40
0,32,52,0
0,32,52,83
0,27,110,40
0,32,52,0
0,29,107,40
0,41,49,0
0,27,110,48
0,32,52,0
0,34,107,0
0,46,49,0
0,72,103,1
0,73,107,41
0,32,52,13
0,36,107,0
0,48,49,0
0,72,95,1
0,27,110,40
0,32,52,0
0,70,103,1
0,32,107,2
0,44,49,0
0,72,103,1
0,32,52,42
0,61,60,39
0,27,110,1
0,32,52,0
0,34,107,0
0,46,49,0
0,65,111,1
0,41,61,0
0,53,97,0
0,25,107,2
0,27,110,0
0,32,52,0
0,65,44,0
0,37,49,0
0,49,127,0
0,65,127,0
0,68,127,0
0,73,127,0
0,49,59,1
0,61,95,0
0,65,57,2
0,32,52,1
0,65,92,0
0,27,110,40
0,32,52,0
0,65,37,40
0,32,52,48
0,65,95,0
0,27,110,1
0,32,52,0
0,46,57,1
0,58,93,0
0,65,54,1
0,68,49,8
0,27,107,1
0,27,110,0
0,32,52,0
0,39,49,0
0,51,127,0
0,63,127,0
0,65,30,0
0,65,94,0
0,67,127,0
0,70,127,0
0,51,59,1
0,63,95,0
0,65,90,49
0,66,87,40
0,67,57,11
0,49,43,10
0,61,86,0
0,66,99,1
0,27,110,2
0,32,52,0
0,36,102,0
0,44,87,0
0,48,33,0
0,49,89,0
0,60,88,0
0,65,54,0
0,81,58,0
0,49,51,9
0,61,88,0
0,32,52,1
0,44,87,0
0,69,72,0
0,67,59,9
0,27,110,31
0,32,52,0
0,36,102,0
0,81,58,0
0,35,68,40
0,38,110,0
0,44,87,0
0,48,49,1
0,60,86,0
0,65,54,2
0,32,52,40
0,35,68,0
0,27,110,40
0,32,52,0
0,36,102,0
0,69,68,0
0,81,58,0
0,35,68,40
0,81,58,0
0,72,107,38
0,27,110,2
0,32,52,0
0,36,102,0
0,44,87,0
0,81,58,0
0,73,103,38
0,81,58,2
0,72,95,37
0,32,52,1
0,44,87,0
0,69,67,0
0,81,58,0
0,70,111,17
0,27,110,3
0,32,52,0
0,36,102,0
0,72,95,37
0,35,68,3
0,38,110,0
0,44,87,0
0,32,52,40
0,35,68,0
0,48,122,37
0,27,110,3
0,32,52,0
0,69,65,0
0,81,58,0
0,48,106,32
0,35,68,3
0,48,127,33
0,27,110,0
0,32,52,0
0,36,102,0
0,44,87,0
0,81,58,0
0,72,44,40
0,48,102,34
0,32,52,3
0,44,87,0
0,69,63,0
0,48,118,27
0,27,110,1
0,32,52,0
0,36,102,0
0,81,58,0
0,35,68,40
0,38,110,0
0,44,87,0
0,48,98,36
0,32,52,0
0,35,68,0
0,27,110,35
0,32,52,0
0,36,102,0
0,69,65,0
0,72,27,0
0,81,58,0
0,48,118,1
0,35,68,40
0,81,58,0
0,48,78,32
0,27,110,1
0,32,52,0
0,36,102,0
0,44,87,0
0,81,58,0
0,81,58,37
0,48,114,1
0,32,52,40
0,44,87,0
0,69,63,0
0,81,58,0
0,48,106,26
0,27,110,0
0,32,52,0
0,36,102,0
0,48,127,28
0,35,68,1
0,38,110,0
0,44,87,0
0,32,52,40
0,35,68,0
0,48,110,38
0,27,119,2
0,27,110,0
0,32,52,0
0,69,63,0
0,81,58,0
0,48,90,31
0,35,68,3
0,27,110,0
0,32,52,0
0,36,102,0
0,44,87,0
0,54,74,0
0,81,58,0
0,48,126,1
0,54,85,40
0,48,102,25
0,32,52,3
0,44,87,0
0,54,74,0
0,69,72,0
0,48,127,3
0,27,110,1
0,32,52,0
0,36,102,0
0,54,96,0
0,81,58,0
0,35,68,40
0,38,110,0
0,44,87,0
0,54,99,0
0,48,106,33
0,32,52,2
0,35,68,0
0,54,87,0
0,48,126,33
0,27,110,1
0,32,52,0
0,36,102,0
0,54,73,0
0,69,68,0
0,81,58,0
0,35,68,40
0,54,99,0
0,81,58,0
0,48,98,29
0,27,110,3
0,32,52,0
0,36,102,0
0,44,87,0
0,54,102,0
0,81,58,0
0,72,103,1
0,48,118,33
0,54,89,2
0,81,58,0
0,73,107,1
0,32,52,36
0,44,87,0
0,54,81,0
0,69,67,0
0,81,58,0
0,72,95,1
0,48,98,22
0,27,110,1
0,32,52,0
0,36,102,0
0,54,102,0
0,70,103,1
0,35,68,27
0,38,110,0
0,44,87,0
0,54,102,0
0,48,127,1
0,72,103,0
0,32,52,40
0,35,68,0
0,54,102,0
0,27,110,40
0,32,52,0
0,54,71,0
0,69,65,0
0,81,58,0
0,65,111,1
0,48,45,37
0,35,68,3
0,54,105,0
0,27,110,35
0,32,52,0
0,36,102,0
0,44,87,0
0,54,108,0
0,65,44,0
0,81,58,0
0,48,127,1
0,54,93,40
0,48,98,38
0,32,52,1
0,44,87,0
0,54,65,0
0,65,90,0
0,69,63,0
0,27,110,34
0,32,52,0
0,36,102,0
0,54,99,0
0,65,90,0
0,81,58,0
0,48,127,1
0,35,68,40
0,38,110,0
0,44,87,0
0,54,102,0
0,65,37,0
0,48,106,37
0,32,52,3
0,35,68,0
0,54,99,0
0,65,90,0
0,48,127,33
0,27,110,1
0,32,52,0
0,36,102,0
0,54,74,0
0,69,65,0
0,81,58,0
0,31,90,40
0,35,68,0
0,54,91,0
0,81,58,0
0,48,70,35
0,27,110,3
0,32,52,0
0,36,102,0
0,44,87,0
0,54,115,0
0,65,30,0
0,81,58,0
0,48,118,34
0,54,96,1
0,66,87,0
0,81,58,0
0,32,52,1
0,44,87,0
0,54,71,0
0,69,63,0
0,81,58,0
0,48,86,31
0,27,110,3
0,32,52,0
0,36,102,0
0,54,105,0
0,66,87,0
0,48,127,33
0,35,68,2
0,38,110,0
0,44,87,0
0,54,105,0
0,66,87,0
0,32,52,40
0,35,68,0
0,54,102,0
0,27,107,39
0,27,110,0
0,32,52,0
0,54,76,0
0,66,92,0
0,69,63,0
0,81,58,0
0,35,68,40
0,54,89,0
0,27,108,15
0,29,107,0
0,36,122,0
0,44,87,0
0,53,127,0
0,54,74,0
0,65,127,0
0,68,127,0
0,69,52,0
0,72,127,0
0,81,58,0
0,54,85,40
0,29,107,40
0,44,87,0
0,54,74,0
0,69,72,0
0,29,107,28
0,35,68,0
0,54,96,0
0,81,58,0
0,27,108,9
0,36,122,0
0,38,110,0
0,41,107,0
0,44,87,0
0,54,99,0
0,69,48,0
0,35,68,40
0,54,87,0
0,39,107,20
0,54,73,0
0,69,68,0
0,81,58,0
0,35,68,11
0,41,107,0
0,54,99,0
0,81,58,0
0,27,108,7
0,29,107,0
0,36,122,0
0,44,87,0
0,54,102,0
0,69,47,0
0,81,58,0
0,54,89,7
0,81,58,0
0,29,107,40
0,44,87,0
0,54,81,0
0,69,67,0
0,81,58,0
0,29,107,28
0,35,68,0
0,54,102,0
0,27,108,10
0,36,122,0
0,38,110,0
0,41,107,0
0,44,87,0
0,54,102,0
0,69,45,0
0,35,68,40
0,54,102,0
0,39,107,9
0,54,71,0
0,69,65,0
0,81,58,0
0,35,68,9
0,41,107,0
0,54,105,0
0,27,108,2
0,29,107,0
0,36,122,0
0,44,87,0
0,49,127,0
0,54,108,0
0,65,127,0
0,68,127,0
0,69,43,0
0,73,127,0
0,81,58,0
0,54,93,12
0,29,107,40
0,44,87,0
0,54,65,0
0,69,63,0
0,29,107,25
0,35,68,0
0,54,99,0
0,81,58,0
0,27,108,13
0,36,122,0
0,38,110,0
0,41,107,0
0,44,87,0
0,54,102,0
0,69,45,0
0,35,68,40
0,54,99,0
0,39,107,9
0,54,74,0
0,69,65,0
0,81,58,0
0,35,68,10
0,41,107,0
0,54,91,0
0,81,58,0
0,27,108,2
0,29,107,0
0,36,122,0
0,44,87,0
0,51,127,0
0,54,115,0
0,67,127,0
0,69,43,0
0,70,127,0
0,75,127,0
0,81,58,0
0,54,96,9
0,81,58,0
0,29,107,40
0,44,87,0
0,54,71,0
0,69,63,0
0,81,58,0
0,29,107,23
0,35,68,0
0,54,105,0
0,27,108,13
0,36,122,0
0,38,110,0
0,41,107,0
0,44,87,0
0,54,105,0
0,69,43,0
0,35,68,23
0,41,107,0
0,54,102,0
0,39,107,7
0,54,76,0
0,69,63,0
0,81,58,0
0,35,68,16
0,41,107,0
0,54,89,0
0,27,108,2
0,29,107,0
0,36,122,0
0,44,87,0
0,53,127,0
0,54,74,0
0,65,127,0
0,68,127,0
0,69,52,0
0,72,127,0
0,81,58,0
0,54,85,9
0,29,107,40
0,44,87,0
0,54,74,0
0,69,72,0
0,29,107,24
0,35,68,0
0,54,96,0
0,81,58,0
0,27,108,10
0,36,122,0
0,38,110,0
0,41,107,0
0,44,87,0
0,54,99,0
0,69,48,0
0,35,68,40
0,54,87,0
0,39,107,10
0,54,73,0
0,69,68,0
0,81,58,0
0,35,68,17
0,41,107,0
0,54,99,0
0,81,58,0
0,27,108,40
0,29,107,0
0,36,122,0
0,44,87,0
0,54,102,0
0,69,47,0
0,81,58,0
0,54,89,12
0,81,58,0
0,29,107,40
0,44,87,0
0,54,81,0
0,69,67,0
0,81,58,0
0,29,107,22
0,35,68,0
0,54,102,0
0,27,108,10
0,36,122,0
0,38,110,0
0,41,107,0
0,44,87,0
0,54,102,0
0,69,45,0
0,35,68,40
0,54,102,0
0,39,107,15
0,54,71,0
0,69,65,0
0,81,58,0
0,35,68,14
0,41,107,0
0,54,105,0
0,27,108,2
0,29,107,0
0,32,95,0
0,36,122,0
0,44,87,0
0,49,127,0
0,54,108,0
0,65,127,0
0,68,127,0
0,69,43,0
0,73,127,0
0,81,58,0
0,29,107,52
0,32,95,0
0,65,95,0
0,29,107,26
0,32,95,0
0,65,102,0
0,29,107,27
0,32,94,0
0,65,100,40
0,69,92,0
0,29,107,39
0,32,94,0
0,29,107,22
0,32,94,0
0,66,91,0
0,29,107,2
0,32,93,0
0,51,127,0
0,63,127,0
0,67,127,0
0,70,127,0
0,31,94,40
0,65,104,0
0,29,107,40
0,32,93,0
0,66,89,0
0,27,108,40
0,31,104,0
0,36,122,0
0,38,110,0
0,41,98,0
0,55,102,0
0,65,104,0
0,66,104,88
0,27,110,2
0,29,107,0
0,29,107,0
0,36,122,0
0,46,64,0
0,49,89,0
0,54,74,0
0,69,72,0
0,81,58,0
0,54,85,40
0,60,88,1
0,42,12,2
0,29,107,16
0,29,107,0
0,46,64,0
0,54,74,0
0,65,120,0
0,68,116,0
0,72,127,0
0,60,88,1
0,27,110,23
0,35,68,0
0,54,96,0
0,81,58,0
0,60,91,1
0,42,12,5
0,36,122,16
0,38,110,0
0,46,64,0
0,54,99,0
0,69,68,0
0,60,94,1
0,35,68,40
0,54,87,0
0,42,12,14
0,27,110,16
0,46,64,0
0,54,73,0
0,65,120,0
0,68,116,0
0,72,127,0
0,81,58,0
0,60,94,1
0,29,107,22
0,29,107,0
0,35,68,0
0,54,99,0
0,81,58,0
0,60,92,1
0,42,12,16
0,27,110,2
0,34,107,0
0,34,107,0
0,36,122,0
0,46,64,0
0,54,102,0
0,69,67,0
0,81,58,0
0,58,82,1
0,54,89,40
0,81,58,0
0,42,12,6
0,36,89,14
0,36,107,0
0,46,64,0
0,54,81,0
0,65,108,0
0,68,112,0
0,72,116,0
0,81,58,0
0,56,85,1
0,27,110,24
0,35,68,0
0,54,102,0
0,42,12,16
0,32,107,6
0,32,107,0
0,36,122,0
0,38,110,0
0,46,64,0
0,54,102,0
0,69,65,0
0,53,80,1
0,35,68,40
0,54,102,0
0,42,12,16
0,27,110,9
0,34,107,0
0,34,107,0
0,46,64,0
0,54,71,0
0,65,116,0
0,68,116,0
0,72,120,0
0,81,58,0
0,35,68,24
0,54,105,0
0,42,12,16
0,25,107,16
0,25,107,0
0,27,110,0
0,36,122,0
0,46,64,0
0,54,108,0
0,69,63,0
0,81,58,0
0,54,93,40
0,42,12,16
0,65,119,14
0,25,107,2
0,25,107,0
0,46,64,0
0,54,65,0
0,65,120,0
0,68,116,0
0,73,120,0
0,27,110,22
0,35,68,0
0,54,99,0
0,81,58,0
0,42,12,16
0,65,67,15
0,36,122,1
0,38,110,0
0,46,64,0
0,54,102,0
0,69,65,0
0,35,68,31
0,54,99,0
0,42,12,16
0,27,110,16
0,46,64,0
0,54,74,0
0,65,120,0
0,68,120,0
0,73,116,0
0,81,58,0
0,27,107,24
0,27,107,0
0,35,68,0
0,54,91,0
0,81,58,0
0,42,12,16
0,27,110,14
0,29,107,0
0,29,107,0
0,36,122,0
0,46,64,0
0,54,115,0
0,69,63,0
0,81,58,0
0,54,96,40
0,81,58,0
0,42,12,0
0,67,127,13
0,34,107,3
0,34,107,0
0,46,64,0
0,54,71,0
0,67,112,0
0,70,120,0
0,75,120,0
0,81,58,0
0,27,110,24
0,35,68,0
0,54,105,0
0,42,12,16
0,32,107,5
0,32,107,0
0,36,122,0
0,38,110,0
0,46,64,0
0,54,105,0
0,69,63,0
0,35,68,40
0,54,102,0
0,42,12,16
0,27,110,3
0,31,107,0
0,31,107,0
0,36,122,0
0,46,64,0
0,54,76,0
0,65,93,0
0,70,93,0
0,73,93,0
0,81,58,0
0,54,89,40
0,42,12,16
0,27,110,12
0,29,107,0
0,29,107,0
0,36,122,0
0,46,64,0
0,54,74,0
0,69,72,0
0,81,58,0
0,60,87,39
0,54,85,1
0,42,12,1
0,60,91,15
0,29,107,1
0,29,107,0
0,46,64,0
0,54,74,0
0,65,116,0
0,68,116,0
0,72,120,0
0,60,97,23
0,27,110,1
0,35,68,0
0,54,96,0
0,81,58,0
0,42,12,5
0,60,87,14
0,36,122,1
0,38,110,0
0,46,64,0
0,54,99,0
0,69,68,0
0,35,68,11
0,54,87,0
0,42,12,16
0,27,110,16
0,46,64,0
0,54,73,0
0,60,94,0
0,65,116,0
0,68,116,0
0,72,124,0
0,81,58,0
0,29,107,24
0,29,107,0
0,35,68,0
0,54,99,0
0,81,58,0
0,42,12,16
0,58,85,1
0,27,110,1
0,34,107,0
0,34,107,0
0,36,122,0
0,46,64,0
0,54,102,0
0,69,67,0
0,81,58,0
0,54,89,40
0,81,58,0
0,42,12,16
0,36,89,5
0,36,107,0
0,46,64,0
0,54,81,0
0,65,108,0
0,68,112,0
0,72,120,0
0,81,58,0
0,56,81,1
0,27,110,24
0,35,68,0
0,54,102,0
0,42,12,16
0,53,71,5
0,32,107,1
0,32,107,0
0,36,122,0
0,38,110,0
0,46,64,0
0,54,102,0
0,69,65,0
0,35,68,40
0,54,102,0
0,42,12,16
0,27,110,16
0,34,107,0
0,34,107,0
0,46,64,0
0,65,120,0
0,68,116,0
0,72,116,0
0,54,71,0
0,81,58,0
0,35,68,24
0,54,105,0
0,42,12,16
0,25,107,16
