track,note,velocity,time
0,57,80,2614
0,60,80,0
0,64,80,0
0,57,92,12
0,60,92,0
0,64,92,0
0,69,96,14
0,72,96,0
0,76,96,0
0,69,91,4
0,72,91,0
0,76,91,0
0,69,96,76
0,72,96,0
0,76,96,0
0,69,91,4
0,72,91,0
0,76,91,0
0,69,96,82
0,72,96,0
0,76,96,0
0,69,91,4
0,72,91,0
0,76,91,0
0,69,96,220
0,72,96,0
0,76,96,0
0,69,91,4
0,72,91,0
0,76,91,0
0,69,96,154
0,72,96,0
0,76,96,0
0,69,91,4
0,72,91,0
0,76,91,0
0,53,80,6
0,57,80,0
0,60,80,0
0,65,92,4
0,69,96,14
0,72,96,0
0,77,96,0
0,69,91,4
0,72,91,0
0,77,91,0
0,69,96,50
0,72,96,0
0,77,96,0
0,69,91,4
0,72,91,0
0,77,91,0
0,69,96,78
0,72,96,0
0,77,96,0
0,69,91,4
0,72,91,0
0,77,91,0
0,69,96,216
0,72,96,0
0,77,96,0
0,69,91,4
0,72,91,0
0,77,91,0
0,69,96,136
0,72,96,0
0,76,96,0
0,69,91,4
0,72,91,0
0,76,91,0
0,55,80,6
0,59,80,0
0,62,80,0
0,55,92,4
0,59,92,0
0,62,92,0
0,67,96,14
0,71,96,0
0,74,96,0
0,67,91,4
0,71,91,0
0,74,91,0
0,67,96,72
0,71,96,0
0,74,96,0
0,67,91,4
0,71,91,0
0,74,91,0
0,67,96,96
0,71,96,0
0,74,96,0
0,67,91,4
0,71,91,0
0,74,91,0
0,67,96,206
0,71,96,0
0,74,96,0
0,67,91,4
0,71,91,0
0,74,91,0
0,67,96,140
0,71,96,0
0,74,96,0
0,67,91,4
0,71,91,0
0,74,91,0
0,64,80,6
0,64,92,4
0,67,96,14
0,71,96,0
0,76,96,0
0,67,91,4
0,71,91,0
0,76,91,0
0,67,96,66
0,71,96,0
0,76,96,0
0,67,91,4
0,71,91,0
0,76,91,0
0,67,96,74
0,71,96,0
0,76,96,0
0,67,91,4
0,71,91,0
0,76,91,0
0,67,96,208
0,71,96,0
0,76,96,0
0,67,91,4
0,71,91,0
0,76,91,0
0,64,96,150
0,67,96,0
0,71,96,0
0,64,91,4
0,67,91,0
0,71,91,0
0,57,80,6
0,57,92,4
0,60,92,0
0,64,92,0
0,69,96,14
0,72,96,0
0,76,96,0
0,74,97,2
0,69,91,2
0,72,91,0
0,76,91,0
0,74,67,2
0,74,75,0
0,69,96,48
0,72,96,0
0,76,96,0
0,74,94,2
0,69,91,2
0,72,91,0
0,76,91,0
0,74,62,130
0,69,96,42
0,72,96,0
0,76,96,0
0,74,86,2
0,69,91,2
0,72,91,0
0,76,91,0
0,74,68,46
0,74,97,16
0,74,67,2
0,69,96,52
0,72,96,0
0,76,96,0
0,74,75,2
0,69,91,2
0,72,91,0
0,76,91,0
0,74,94,50
0,69,96,128
0,72,96,0
0,76,96,0
0,74,62,2
0,69,91,2
0,72,91,0
0,76,91,0
0,74,86,44
0,74,68,34
0,53,80,6
0,65,92,4
0,69,96,14
0,72,96,0
0,77,96,0
0,74,97,2
0,69,91,2
0,72,91,0
0,77,91,0
0,74,67,2
0,74,75,54
0,69,96,48
0,72,96,0
0,77,96,0
0,74,94,2
0,69,91,2
0,72,91,0
0,77,91,0
0,74,62,0
0,69,96,42
0,72,96,0
0,77,96,0
0,74,86,2
0,69,91,2
0,72,91,0
0,77,91,0
0,74,68,46
0,74,97,16
0,74,67,2
0,69,96,52
0,72,96,0
0,77,96,0
0,74,75,2
0,69,91,2
0,72,91,0
0,77,91,0
0,74,94,50
0,69,96,128
0,72,96,0
0,76,96,0
0,74,62,2
0,69,91,2
0,72,91,0
0,76,91,0
0,74,86,44
0,74,68,38
0,55,80,6
0,55,92,4
0,59,92,0
0,62,92,0
0,67,96,14
0,71,96,0
0,74,96,0
0,74,97,2
0,67,91,2
0,71,91,0
0,74,91,0
0,74,67,2
0,74,75,54
0,67,96,48
0,71,96,0
0,74,96,0
0,74,94,2
0,67,91,2
0,71,91,0
0,74,91,0
0,74,62,2
0,67,96,42
0,71,96,0
0,74,96,0
0,74,86,2
0,67,91,2
0,71,91,0
0,74,91,0
0,74,68,46
0,74,97,16
0,74,67,2
0,67,96,52
0,71,96,0
0,74,96,0
0,74,75,2
0,67,91,2
0,71,91,0
0,74,91,0
0,74,94,50
0,67,96,128
0,71,96,0
0,74,96,0
0,74,62,2
0,67,91,2
0,71,91,0
0,74,91,0
0,74,86,44
0,74,68,46
0,64,80,6
0,64,92,4
0,67,96,14
0,71,96,0
0,76,96,0
0,74,97,2
0,67,91,2
0,71,91,0
0,76,91,0
0,74,67,2
0,74,75,0
0,67,96,48
0,71,96,0
0,76,96,0
0,74,94,2
0,67,91,2
0,71,91,0
0,76,91,0
0,74,62,130
0,67,96,42
0,71,96,0
0,76,96,0
0,74,86,2
0,67,91,2
0,71,91,0
0,76,91,0
0,74,68,46
0,74,97,16
0,74,67,2
0,67,96,52
0,71,96,0
0,76,96,0
0,74,75,2
0,67,91,2
0,71,91,0
0,76,91,0
0,74,94,50
0,31,93,128
0,64,96,0
0,67,96,0
0,71,96,0
0,74,62,2
0,64,91,2
0,67,91,0
0,71,91,0
0,74,86,44
0,74,68,46
0,57,104,4
0,60,104,0
0,64,117,0
0,33,93,2
0,69,96,0
0,72,96,0
0,76,96,0
0,74,97,2
0,69,91,2
0,72,91,0
0,76,91,0
0,74,67,2
0,74,75,0
0,33,81,36
0,69,96,0
0,72,96,0
0,76,96,0
0,74,94,2
0,69,91,2
0,72,91,0
0,76,91,0
0,33,93,22
0,74,62,98
0,31,93,2
0,69,96,0
0,72,96,0
0,76,96,0
0,74,86,2
0,69,91,2
0,72,91,0
0,76,91,0
0,74,68,46
0,33,93,2
0,74,97,2
0,74,67,2
0,69,96,22
0,72,96,0
0,76,96,0
0,74,75,2
0,69,91,2
0,72,91,0
0,76,91,0
0,33,81,48
0,74,94,2
0,33,93,22
0,69,96,96
0,72,96,0
0,76,96,0
0,74,62,2
0,69,91,2
0,72,91,0
0,76,91,0
0,31,93,16
0,74,86,2
0,74,68,34
0,65,126,4
0,33,95,10
0,69,96,0
0,72,96,0
0,77,96,0
0,74,97,2
0,69,91,2
0,72,91,0
0,77,91,0
0,74,67,2
0,74,75,54
0,33,81,36
0,69,96,0
0,72,96,0
0,77,96,0
0,74,94,2
0,69,91,2
0,72,91,0
0,77,91,0
0,33,93,22
0,74,62,0
0,31,93,2
0,69,96,0
0,72,96,0
0,77,96,0
0,74,86,2
0,69,91,2
0,72,91,0
0,77,91,0
0,74,68,46
0,64,122,4
0,29,93,2
0,74,97,2
0,74,67,2
0,69,96,22
0,72,96,0
0,77,96,0
0,74,75,2
0,69,91,2
0,72,91,0
0,77,91,0
0,29,81,48
0,74,94,2
0,29,93,22
0,69,96,96
0,72,96,0
0,76,96,0
0,74,62,2
0,69,91,2
0,72,91,0
0,76,91,0
0,36,93,16
0,74,86,2
0,74,68,38
0,55,107,14
0,59,104,0
0,62,114,0
0,33,93,2
0,67,96,0
0,71,96,0
0,74,96,0
0,74,97,2
0,67,91,2
0,71,91,0
0,74,91,0
0,74,67,2
0,74,75,54
0,33,81,36
0,67,96,0
0,71,96,0
0,74,96,0
0,74,94,2
0,67,91,2
0,71,91,0
0,74,91,0
0,33,93,22
0,74,62,2
0,31,93,2
0,67,96,0
0,71,96,0
0,74,96,0
0,74,86,2
0,67,91,2
0,71,91,0
0,74,91,0
0,74,68,46
0,33,93,2
0,74,97,2
0,74,67,2
0,67,96,22
0,71,96,0
0,74,96,0
0,74,75,2
0,67,91,2
0,71,91,0
0,74,91,0
0,33,81,48
0,74,94,2
0,33,93,22
0,67,96,96
0,71,96,0
0,74,96,0
0,74,62,2
0,67,91,2
0,71,91,0
0,74,91,0
0,31,93,16
0,74,86,2
0,74,68,46
0,64,109,26
0,76,117,0
0,33,95,10
0,67,96,0
0,71,96,0
0,76,96,0
0,74,97,2
0,67,91,2
0,71,91,0
0,76,91,0
0,74,67,2
0,74,75,0
0,33,81,36
0,67,96,0
0,71,96,0
0,76,96,0
0,74,94,2
0,67,91,2
0,71,91,0
0,76,91,0
0,33,93,22
0,74,62,98
0,31,93,2
0,67,96,0
0,71,96,0
0,76,96,0
0,74,86,2
0,67,91,2
0,71,91,0
0,76,91,0
0,74,68,46
0,62,96,2
0,74,103,0
0,29,93,2
0,74,97,2
0,74,67,2
0,67,96,22
0,71,96,0
0,76,96,0
0,74,75,2
0,67,91,2
0,71,91,0
0,76,91,0
0,29,81,48
0,74,94,2
0,29,93,22
0,64,96,96
0,67,96,0
0,71,96,0
0,74,62,2
0,64,91,2
0,67,91,0
0,71,91,0
0,36,93,16
0,74,86,2
0,74,68,46
0,72,79,18
0,84,87,0
0,57,104,8
0,60,104,0
0,64,117,0
0,42,73,4
0,54,40,0
0,75,50,0
0,33,93,2
0,69,96,0
0,72,96,0
0,76,96,0
0,74,97,2
0,69,91,2
0,72,91,0
0,76,91,0
0,54,16,18
0,74,67,2
0,42,45,48
0,54,26,0
0,74,75,0
0,54,9,32
0,75,50,0
0,33,81,4
0,69,96,0
0,72,96,0
0,76,96,0
0,74,94,2
0,69,91,2
0,72,91,0
0,76,91,0
0,42,71,18
0,54,40,0
0,33,93,4
0,54,16,76
0,74,62,6
0,42,47,38
0,54,26,0
0,75,50,0
0,31,93,2
0,69,96,0
0,72,96,0
0,76,96,0
0,74,86,2
0,69,91,2
0,72,91,0
0,76,91,0
0,54,9,40
0,74,68,6
0,42,73,10
0,54,40,0
0,75,50,0
0,33,93,2
0,74,97,2
0,54,16,18
0,74,67,2
0,42,45,18
0,54,26,0
0,69,96,4
0,72,96,0
0,76,96,0
0,74,75,2
0,69,91,2
0,72,91,0
0,76,91,0
0,54,9,44
0,75,50,0
0,33,81,4
0,74,94,2
0,42,71,18
0,54,40,0
0,33,93,4
0,54,16,76
0,69,96,4
0,72,96,0
0,76,96,0
0,74,62,2
0,69,91,2
0,72,91,0
0,76,91,0
0,71,79,6
0,83,87,0
0,42,47,12
0,54,26,0
0,75,50,0
0,31,93,4
0,74,86,2
0,54,9,28
0,74,68,6
0,69,83,6
0,81,91,0
0,65,126,4
0,42,73,6
0,54,40,0
0,75,50,0
0,33,95,4
0,69,96,0
0,72,96,0
0,77,96,0
0,74,97,2
0,69,91,2
0,72,91,0
0,77,91,0
0,54,16,18
0,74,67,2
0,42,45,48
0,54,26,0
0,74,75,6
0,54,9,32
0,75,50,0
0,33,81,4
0,69,96,0
0,72,96,0
0,77,96,0
0,74,94,2
0,69,91,2
0,72,91,0
0,77,91,0
0,42,71,18
0,54,40,0
0,33,93,4
0,54,16,76
0,74,62,0
0,42,47,38
0,54,26,0
0,75,50,0
0,31,93,2
0,69,96,0
0,72,96,0
0,77,96,0
0,74,86,2
0,69,91,2
0,72,91,0
0,77,91,0
0,54,9,40
0,74,68,6
0,64,122,4
0,42,73,10
0,54,40,0
0,75,50,0
0,29,93,2
0,74,97,2
0,54,16,18
0,74,67,2
0,42,45,18
0,54,26,0
0,69,96,4
0,72,96,0
0,77,96,0
0,74,75,2
0,69,91,2
0,72,91,0
0,77,91,0
0,54,9,44
0,75,50,0
0,29,81,4
0,74,94,2
0,71,83,0
0,83,91,0
0,42,71,18
0,54,40,0
0,29,93,4
0,54,16,76
0,69,96,4
0,72,96,0
0,76,96,0
0,74,62,2
0,69,91,2
0,72,91,0
0,76,91,0
0,72,83,6
0,84,91,0
0,42,47,12
0,54,26,0
0,75,50,0
0,36,93,4
0,74,86,2
0,54,9,32
0,74,68,6
0,71,77,6
0,83,85,0
0,55,107,8
0,59,104,0
0,62,114,0
0,42,73,10
0,54,40,0
0,75,50,0
0,33,93,2
0,67,96,0
0,71,96,0
0,74,96,0
0,74,97,2
0,67,91,2
0,71,91,0
0,74,91,0
0,54,16,18
0,74,67,2
0,42,45,48
0,54,26,0
0,74,75,6
0,54,9,32
0,75,50,0
0,33,81,4
0,67,96,0
0,71,96,0
0,74,96,0
0,74,94,2
0,67,91,2
0,71,91,0
0,74,91,0
0,42,71,18
0,54,40,0
0,33,93,4
0,54,16,0
0,74,62,2
0,42,47,38
0,54,26,0
0,75,50,0
0,31,93,2
0,67,96,0
0,71,96,0
0,74,96,0
0,74,86,2
0,67,91,2
0,71,91,0
0,74,91,0
0,54,9,40
0,74,68,6
0,42,73,10
0,54,40,0
0,75,50,0
0,33,93,2
0,74,97,2
0,54,16,18
0,74,67,2
0,42,45,18
0,54,26,0
0,67,96,4
0,71,96,0
0,74,96,0
0,74,75,2
0,67,91,2
0,71,91,0
0,74,91,0
0,54,9,44
0,75,50,0
0,33,81,4
0,74,94,2
0,42,71,18
0,54,40,0
0,33,93,4
0,54,16,76
0,67,96,4
0,71,96,0
0,74,96,0
0,74,62,2
0,67,91,2
0,71,91,0
0,74,91,0
0,42,47,12
0,54,26,0
0,75,50,0
0,31,93,4
0,74,86,2
0,54,9,24
0,74,68,6
0,76,77,6
0,88,85,0
0,55,104,8
0,59,111,0
0,64,110,0
0,42,73,6
0,54,40,0
0,75,50,0
0,33,95,4
0,67,96,0
0,71,96,0
0,76,96,0
0,74,97,2
0,64,91,2
0,67,91,0
0,71,91,0
0,54,16,18
0,74,67,2
0,42,45,48
0,54,26,0
0,74,75,0
0,54,9,32
0,75,50,0
0,33,81,4
0,67,96,0
0,71,96,0
0,76,96,0
0,74,94,2
0,64,91,2
0,67,91,0
0,71,91,0
0,42,71,18
0,54,40,0
0,33,93,4
0,54,16,76
0,74,62,6
0,42,47,38
0,54,26,0
0,75,50,0
0,31,93,2
0,67,96,0
0,71,96,0
0,76,96,0
0,74,86,2
0,64,91,2
0,67,91,0
0,71,91,0
0,54,9,40
0,74,68,6
0,42,73,10
0,54,40,0
0,75,50,0
0,29,93,2
0,74,97,2
0,54,16,18
0,74,67,2
0,29,81,118
0,29,93,22
0,36,93,16
0,35,106,76
0,42,75,0
0,54,57,0
0,69,36,0
0,33,42,2
0,33,93,0
0,33,120,0
0,61,82,2
0,96,90,2
0,69,26,50
0,33,43,2
0,39,72,48
0,42,55,0
0,54,47,0
0,69,46,2
0,33,44,2
0,69,26,34
0,33,45,2
0,33,81,0
0,61,70,2
0,35,106,16
0,38,103,0
0,42,69,0
0,54,57,0
0,69,36,2
0,33,47,2
0,33,93,0
0,33,120,0
0,61,82,2
0,69,26,50
0,33,48,2
0,42,55,48
0,54,47,0
0,69,46,0
0,31,93,0
0,33,49,0
0,59,82,2
0,69,26,38
0,33,51,2
0,35,106,16
0,39,76,0
0,42,75,0
0,54,57,0
0,69,36,0
0,33,52,0
0,33,93,0
0,61,82,2
0,69,26,12
0,33,53,2
0,42,55,16
0,54,47,0
0,69,46,2
0,33,55,2
0,39,68,48
0,69,26,2
0,33,56,2
0,33,81,0
0,61,70,2
0,35,106,16
0,38,103,0
0,42,69,0
0,54,57,0
0,69,36,2
0,33,58,2
0,33,93,0
0,61,82,2
0,69,26,18
0,33,59,2
0,42,55,10
0,54,47,0
0,69,46,2
0,31,93,2
0,33,60,0
0,59,82,2
0,69,26,34
0,33,61,2
0,35,106,4
0,42,75,0
0,54,57,0
0,69,36,2
0,33,63,2
0,33,95,0
0,61,84,2
0,69,26,50
0,33,64,2
0,39,72,14
0,42,55,0
0,54,47,0
0,69,46,2
0,33,65,2
0,69,26,34
0,33,67,2
0,33,81,0
0,61,70,2
0,35,106,16
0,38,103,0
0,42,69,0
0,54,57,0
0,69,36,2
0,33,68,2
0,33,93,0
0,61,82,2
0,69,26,28
0,33,69,2
0,42,55,48
0,54,47,0
0,69,46,0
0,31,93,0
0,33,71,0
0,59,82,2
0,69,26,16
0,33,72,2
0,35,106,8
0,39,76,0
0,42,75,0
0,54,57,0
0,69,36,0
0,29,93,0
0,33,74,0
0,57,82,2
0,69,26,4
0,33,75,2
0,42,55,16
0,54,47,0
0,69,46,2
0,33,76,2
0,39,68,18
0,69,26,2
