track,note,velocity,time
1,67,127,56068
1,72,121,124
1,69,127,100
1,69,127,1196
1,72,127,168
1,71,127,148
1,67,127,1588
1,72,125,120
1,69,127,108
1,69,127,1808
1,72,127,200
1,71,127,224
1,67,127,1852
1,72,127,148
1,69,127,84
1,67,127,17420
1,72,112,104
1,69,127,104
1,69,127,1540
1,72,127,156
1,71,127,160
1,67,127,1636
1,72,127,120
1,69,127,92
1,69,127,1336
1,72,127,116
1,71,127,104
1,67,127,1384
1,72,125,128
1,69,121,136
1,67,127,16864
1,72,121,160
1,69,127,212
1,69,127,1272
1,72,125,120
1,71,125,108
1,67,127,1544
1,72,127,120
1,69,127,156
1,69,127,1632
1,72,127,212
1,71,127,200
1,67,127,1704
1,72,127,156
1,69,127,236
1,69,127,1576
1,72,127,244
1,71,127,208
1,67,127,1268
1,72,127,128
1,69,127,104
1,69,127,1236
1,72,127,256
1,71,127,216
1,67,127,1300
1,72,127,148
1,67,125,23876
1,72,125,104
1,69,127,168
1,69,127,1640
1,72,125,156
1,71,114,148
1,67,127,1616
1,72,127,112
1,69,127,136
1,69,127,1672
1,72,127,164
1,71,127,204
1,67,127,1512
1,72,127,128
1,69,127,104
1,69,127,1668
1,72,127,128
1,71,127,112
1,67,127,1600
1,72,127,120
1,69,127,56
1,69,121,1496
1,72,117,160
1,71,121,128
2,64,125,57416
2,64,127,244
2,65,127,184
2,60,125,164
2,60,127,200
2,64,125,120
2,62,125,384
2,62,127,328
2,62,127,224
2,64,127,168
2,62,125,384
2,64,127,120
2,67,127,120
2,64,127,720
2,64,127,224
2,65,127,140
2,60,120,112
2,60,127,164
2,64,120,100
2,62,115,24
2,62,127,316
2,62,127,252
2,64,125,188
2,62,125,0
2,64,127,144
2,67,127,152
2,64,127,19136
2,64,127,212
2,65,127,168
2,60,120,152
2,60,127,160
2,64,115,96
2,62,95,20
2,62,127,268
2,62,125,200
2,64,127,144
2,62,127,8
2,64,127,124
2,67,107,76
2,64,125,764
2,64,127,208
2,65,125,200
2,60,120,148
2,60,125,148
2,64,127,120
2,62,90,120
2,62,115,120
2,62,127,172
2,64,120,164
2,62,125,64
2,64,120,144
2,67,127,128
2,64,127,19124
2,64,125,212
2,65,127,188
2,60,127,168
2,60,125,176
2,64,125,84
2,62,99,48
2,62,127,312
2,62,127,236
2,64,125,124
2,62,127,88
2,64,127,148
2,67,127,152
2,64,120,756
2,64,125,232
2,65,127,156
2,60,120,96
2,60,115,168
2,64,107,84
2,62,95,20
2,62,125,284
2,62,127,220
2,64,125,208
2,62,127,152
2,64,125,168
2,67,127,156
2,69,127,768
2,69,127,188
2,69,127,200
2,72,127,384
2,71,115,16
2,72,127,0
2,71,127,0
2,72,127,188
2,71,127,180
2,72,127,8
2,67,127,652
2,67,127,184
2,67,127,220
2,71,127,1076
2,72,127,192
2,71,127,184
2,69,127,4
2,71,127,468
2,72,127,196
2,71,127,0
2,72,127,188
2,69,127,176
2,72,127,28044
2,72,127,268
2,71,125,16
2,69,125,16
2,72,127,332
2,72,127,260
2,71,125,188
2,69,111,4
2,72,127,516
2,72,127,268
2,69,115,32
2,67,95,4
2,72,127,96
2,72,127,280
2,72,127,144
2,69,115,20
2,67,125,8
2,72,127,768
2,72,127,244
2,72,127,264
2,71,127,1664
2,71,127,280
2,71,127,280
2,72,127,1288
2,72,127,276
2,71,107,8
2,69,120,8
2,72,127,512
2,72,127,296
2,71,127,80
2,69,107,4
2,72,127,460
2,72,127,300
2,69,97,12
2,67,115,8
2,72,127,500
2,72,127,304
2,69,88,36
2,67,99,12
2,72,127,500
2,72,127,284
2,71,94,192
2,69,115,188
3,1,1,0
3,64,89,12300
3,57,89,0
3,60,92,4
3,65,95,16
3,64,97,24
3,62,92,28
3,59,104,0
3,55,102,4
3,64,104,16
3,62,102,772
3,57,107,88
3,60,107,0
3,64,102,4
3,65,107,24
3,64,102,24
3,62,88,48
3,59,104,0
3,55,102,4
3,64,102,28
3,62,97,12
3,64,102,30860
3,60,104,0
3,57,107,0
3,65,104,24
3,64,102,1148
3,62,89,20
3,59,107,12
3,55,102,0
3,64,104,24
3,62,107,756
3,64,84,8
3,60,99,0
3,57,95,4
3,65,107,28
3,64,115,52
3,62,87,36
3,59,102,0
3,55,97,4
3,64,107,28
3,62,107,768
3,64,97,18568
3,60,102,4
3,57,95,0
3,65,102,20
3,64,99,48
3,59,90,8
3,62,85,12
3,55,92,0
3,62,104,0
3,64,104,20
3,64,82,20
3,60,95,0
3,57,102,0
3,65,102,8
3,64,102,44
3,62,82,12
3,59,94,4
3,55,92,0
3,64,94,12
3,62,99,772
3,64,95,18580
3,60,102,4
3,57,95,0
3,65,97,16
3,64,99,1152
3,55,99,8
3,62,85,0
3,59,94,4
3,64,102,12
3,62,102,756
3,64,82,84
3,57,99,20
3,60,97,0
3,65,99,16
3,64,95,1148
3,59,95,12
3,62,85,4
3,55,97,0
3,64,94,12
3,62,102,768
3,64,95,112
3,60,102,0
3,57,97,4
3,65,102,12
3,64,97,1160
3,62,86,24
3,59,94,4
3,55,97,0
3,64,102,16
3,62,99,768
3,64,95,112
3,60,107,0
3,57,97,4
3,65,104,28
3,64,97,28
3,62,89,28
3,55,94,0
3,59,94,0
3,64,90,12
3,62,102,776
3,64,78,112
3,60,92,20
3,57,92,0
3,65,102,12
3,64,92,1184
3,62,92,12
3,59,104,0
3,55,107,0
3,64,97,16
3,62,92,764
3,64,85,0
3,57,104,16
3,60,99,0
3,65,107,1508
3,64,95,1164
3,62,87,60
3,59,95,0
3,55,94,24
3,64,85,16
3,64,92,12716
3,60,102,0
3,57,94,0
3,65,97,8
3,64,97,1156
3,62,85,24
3,59,94,0
3,55,90,4
3,64,95,12
3,62,99,756
3,64,77,8
3,60,89,0
3,57,94,0
3,65,97,8
3,64,99,1148
3,62,86,8
3,55,90,0
3,59,94,4
3,64,94,12
3,62,92,752
3,64,85,24
3,60,102,20
3,57,107,0
3,65,97,24
3,64,90,8
3,62,86,44
3,59,94,0
3,55,97,0
3,64,90,28
3,62,92,748
3,57,90,24
3,60,94,4
3,64,85,0
3,65,97,8
3,64,99,48
3,62,86,24
3,55,95,16
3,59,95,4
3,52,92,8
3,64,87,0
3,57,89,112
3,69,79,0
3,60,78,4
4,57,127,26116
4,57,127,124
4,57,127,5356
4,57,127,132
4,57,127,35984
4,57,127,176
4,57,127,29764
4,57,127,160
4,57,127,42044
4,57,127,192
4,57,127,5052
4,57,127,232
4,52,127,40372
4,52,127,116
4,57,127,116
5,85,83,26212
5,85,90,524
5,85,85,140
5,85,83,536
5,85,83,128
5,85,85,524
5,85,83,132
5,85,87,520
5,85,81,120
5,85,90,524
5,85,85,132
5,85,80,524
5,85,81,120
5,85,78,524
5,85,83,128
5,85,83,524
5,85,83,120
5,85,83,524
5,85,85,124
5,85,85,512
5,85,90,132
5,85,87,512
5,85,83,128
5,85,87,512
5,85,87,128
5,85,87,512
5,85,87,128
5,85,83,524
5,85,83,108
5,85,85,500
5,85,85,128
5,85,81,500
5,85,87,120
5,85,87,524
5,85,83,136
5,85,81,532
5,85,81,140
5,85,83,524
5,85,87,140
5,85,85,524
5,85,83,128
5,85,85,524
5,85,85,132
5,85,85,512
5,85,80,104
5,85,85,512
5,85,81,132
5,85,87,512
5,85,83,140
5,85,85,524
5,85,85,140
5,85,87,512
5,85,83,120
5,85,83,504
5,85,85,120
5,85,83,500
5,85,83,120
5,85,83,512
5,85,83,132
5,85,85,512
5,85,87,132
5,85,87,524
5,85,81,120
5,85,81,492
5,85,80,120
5,85,81,500
5,85,83,120
5,85,90,516
5,85,85,132
5,85,90,500
5,85,85,120
5,85,90,480
5,85,85,112
5,85,83,512
5,85,85,120
5,85,83,504
5,85,87,128
5,85,85,512
5,85,83,116
5,85,87,12988
5,85,87,524
5,85,83,136
5,85,81,532
5,85,81,140
5,85,83,524
5,85,87,140
5,85,85,524
5,85,83,128
5,85,85,524
5,85,85,132
5,85,85,512
5,85,80,104
5,85,85,512
5,85,81,132
5,85,87,512
5,85,83,140
5,85,85,524
5,85,85,140
5,85,87,512
5,85,83,120
5,85,83,504
5,85,85,120
5,85,83,500
5,85,83,120
5,85,83,512
5,85,83,132
5,85,85,512
5,85,87,132
5,85,87,524
5,85,81,120
5,85,81,492
5,85,80,120
5,85,81,500
5,85,83,120
5,85,90,516
5,85,85,132
5,85,90,500
5,85,85,120
5,85,90,480
5,85,85,112
5,85,83,512
5,85,85,120
5,85,83,504
5,85,87,128
5,85,85,512
5,85,83,116
5,85,87,12992
5,85,87,524
5,85,83,136
5,85,81,532
5,85,81,140
5,85,83,524
5,85,87,140
5,85,85,524
5,85,83,128
5,85,85,524
5,85,85,132
5,85,85,512
5,85,80,104
5,85,85,512
5,85,81,132
5,85,87,512
5,85,83,140
5,85,85,524
5,85,85,140
5,85,87,512
5,85,83,120
5,85,83,504
5,85,85,120
5,85,83,500
5,85,83,120
5,85,83,512
5,85,83,132
5,85,85,512
5,85,87,132
5,85,87,524
5,85,81,120
5,85,81,492
5,85,80,120
5,85,81,500
5,85,83,120
5,85,90,516
5,85,85,132
5,85,90,500
5,85,85,120
5,85,90,480
5,85,85,112
5,85,83,512
5,85,85,120
5,85,83,504
5,85,87,128
5,85,85,512
5,85,83,116
5,85,90,37472
5,85,60,224
5,85,83,212
5,85,98,140
5,85,83,208
5,85,85,236
5,85,94,128
5,85,83,216
5,85,98,224
5,85,108,128
5,85,85,212
5,85,90,224
5,85,108,136
5,85,87,228
5,85,90,224
5,85,108,156
5,85,94,224
5,85,35,132
5,85,102,64
5,85,115,136
5,85,87,236
5,85,108,216
5,85,102,148
5,85,87,244
5,85,102,244
5,85,115,160
5,85,94,244
5,85,102,244
5,85,115,160
5,85,87,244
5,85,102,248
5,85,108,160
5,85,87,244
5,85,94,248
5,85,115,160
5,85,90,248
5,85,98,228
5,85,98,152
5,85,85,236
5,85,102,236
5,85,108,160
5,85,94,236
5,85,102,232
5,85,102,160
5,85,90,236
5,85,87,224
5,85,108,160
5,85,85,320
6,76,127,1536
6,69,127,4
6,72,127,0
6,76,127,212
6,69,127,0
6,72,127,4
6,72,127,224
6,76,127,0
6,69,127,0
6,76,127,324
6,72,127,0
6,69,127,0
6,76,127,216
6,69,127,0
6,72,127,4
6,77,127,208
6,69,127,4
6,72,127,0
6,72,127,208
6,77,127,0
6,69,127,0
6,69,127,228
6,77,127,0
6,72,127,0
6,77,127,304
6,69,127,0
6,72,127,4
6,76,127,208
6,72,127,0
6,69,127,0
6,71,127,156
6,67,127,4
6,74,127,0
6,74,127,208
6,71,127,0
6,67,127,4
6,67,127,212
6,71,127,0
6,74,127,4
6,71,127,304
6,74,127,0
6,67,127,0
6,74,127,228
6,67,127,0
6,71,127,0
6,71,127,212
6,64,127,0
6,67,127,0
6,64,127,224
6,67,127,0
6,71,127,4
6,64,127,224
6,71,127,0
6,67,127,4
6,71,127,320
6,67,127,0
6,64,127,4
6,64,127,228
6,67,127,0
6,71,127,0
6,72,127,224
6,76,127,4
6,69,127,0
6,72,127,224
6,69,127,0
6,76,127,4
6,72,127,224
6,76,127,0
6,69,127,4
6,69,127,320
6,76,127,0
6,72,127,4
6,72,127,212
6,76,127,0
6,69,127,4
6,69,127,208
6,72,127,4
6,77,127,0
6,69,127,224
6,77,127,0
6,72,127,4
6,72,127,224
6,77,127,0
6,69,127,4
6,77,127,320
6,69,127,0
6,72,127,4
6,76,127,228
6,72,127,0
6,69,127,4
6,74,127,212
6,71,127,4
6,67,127,0
6,71,127,212
6,74,127,0
6,67,127,0
6,71,127,224
6,74,127,0
6,67,127,0
6,71,127,320
6,67,127,0
6,74,127,0
6,74,127,228
6,71,127,0
6,67,127,4
6,64,127,224
6,71,127,4
6,67,127,0
6,67,127,220
6,71,127,0
6,64,127,0
6,71,127,228
6,64,127,0
6,67,127,4
6,71,127,320
6,67,127,0
6,64,127,4
6,71,127,224
6,67,127,0
6,64,127,0
6,72,127,228
6,76,127,0
6,69,127,0
6,72,127,224
6,69,127,0
6,76,127,0
6,76,127,228
6,72,127,0
6,69,127,0
6,76,127,320
6,72,127,4
6,69,127,0
6,76,127,228
6,72,127,0
6,69,127,0
6,77,127,228
6,72,127,0
6,69,127,0
6,72,127,224
6,69,127,0
6,77,127,0
6,72,127,228
6,77,127,0
6,69,127,0
6,77,127,324
6,72,127,0
6,69,127,0
6,76,127,220
6,72,127,4
6,69,127,0
6,71,127,212
6,74,127,0
6,67,127,0
6,71,127,224
6,67,127,0
6,74,127,0
6,71,127,228
6,74,127,0
6,67,127,0
6,71,127,324
6,67,127,0
6,74,127,0
6,74,127,228
6,71,127,0
6,67,127,0
6,64,127,228
6,71,127,0
6,67,127,0
6,64,127,224
6,67,127,0
6,71,127,0
6,67,127,228
6,71,127,0
6,64,127,0
6,71,127,324
6,64,127,0
6,67,127,0
6,71,127,224
6,67,127,0
6,64,127,4
6,76,127,212
6,69,127,0
6,72,127,0
6,76,127,232
6,72,127,0
6,69,127,0
6,76,127,232
6,72,127,0
6,69,127,0
6,76,127,324
6,72,127,0
6,69,127,0
6,76,127,228
6,72,127,0
6,69,127,0
6,69,127,228
6,77,127,0
6,72,127,0
6,77,127,228
6,72,127,0
6,69,127,0
6,77,127,224
6,72,127,0
6,69,127,0
6,77,127,324
6,72,127,0
6,69,127,0
6,76,127,224
6,72,127,0
6,69,127,0
6,71,127,216
6,74,127,0
6,67,127,0
6,71,127,216
6,74,127,0
6,67,127,0
6,74,127,224
6,71,127,0
6,67,127,0
6,74,127,316
6,71,127,0
6,67,127,0
6,74,127,228
6,71,127,0
6,67,127,0
6,71,127,220
6,64,127,0
6,67,127,0
6,67,127,228
6,64,127,0
6,71,127,0
6,71,127,232
6,64,127,0
6,67,127,0
6,71,127,308
6,64,127,0
6,67,127,4
6,71,127,224
6,64,127,0
6,67,127,4
6,69,127,30920
6,72,127,0
6,76,127,4
6,76,127,216
6,72,127,0
6,69,127,0
6,69,127,224
6,72,127,0
6,76,127,0
6,76,127,324
6,72,127,0
6,69,127,0
6,76,127,228
6,72,127,0
6,69,127,0
6,77,127,216
6,69,127,4
6,72,127,0
6,69,127,232
6,72,127,0
6,77,127,0
6,69,127,228
6,77,127,0
6,72,127,0
6,77,127,324
6,69,127,0
6,72,127,0
6,76,127,228
6,72,127,0
6,69,127,0
6,74,127,212
6,67,127,4
6,71,127,0
6,67,127,212
6,71,127,0
6,74,127,0
6,67,127,224
6,71,127,0
6,74,127,0
6,74,127,324
6,67,127,0
6,71,127,0
6,71,127,220
6,67,127,0
6,74,127,0
6,71,127,224
6,64,127,4
6,67,127,0
6,64,127,224
6,71,127,0
6,67,127,0
6,64,127,228
6,71,127,0
6,67,127,0
6,71,127,324
6,64,127,0
6,67,127,0
6,67,127,228
6,71,127,0
6,64,127,0
6,72,127,228
6,76,127,0
6,69,127,4
6,76,127,228
6,69,127,0
6,72,127,0
6,76,127,228
6,69,127,0
6,72,127,0
6,76,127,320
6,72,127,0
6,69,127,0
6,76,127,228
6,72,127,0
6,69,127,0
6,72,127,216
6,69,127,4
6,77,127,0
6,72,127,216
6,69,127,0
6,77,127,0
6,69,127,216
6,72,127,0
6,77,127,0
6,69,127,324
6,72,127,0
6,77,127,0
6,76,127,212
6,72,127,0
6,69,127,0
6,71,127,228
6,67,127,4
6,74,127,0
6,71,127,228
6,67,127,0
6,74,127,0
6,71,127,224
6,74,127,0
6,67,127,0
6,71,127,320
6,74,127,0
6,67,127,0
6,71,127,228
6,67,127,0
6,74,127,0
6,64,127,228
6,67,127,0
6,71,127,4
6,64,127,228
6,67,127,0
6,71,127,0
6,67,127,224
6,64,127,0
6,71,127,0
6,64,127,324
6,67,127,0
6,71,127,0
6,64,127,228
6,67,127,0
6,71,127,0
6,69,127,18660
6,72,127,4
6,76,127,0
6,76,127,216
6,72,127,0
6,69,127,0
6,69,127,224
6,72,127,0
6,76,127,0
6,76,127,324
6,72,127,0
6,69,127,0
6,76,127,228
6,72,127,0
6,69,127,0
6,77,127,216
6,69,127,4
6,72,127,0
