track,note,velocity,time
0,42,100,234
0,42,85,92
0,42,85,92
0,42,85,92
0,33,118,92
0,33,118,56
0,33,118,12
0,33,118,32
0,33,118,36
0,33,118,56
0,33,118,12
0,33,118,32
0,33,118,36
0,33,118,56
0,33,118,12
0,33,118,32
0,33,118,36
0,33,118,12
0,33,118,12
0,33,118,36
0,33,118,32
0,33,118,36
0,33,118,56
0,33,118,12
0,33,118,32
0,33,118,36
0,33,118,56
0,33,118,12
0,33,118,32
0,33,118,36
0,33,118,56
0,33,118,12
0,33,118,32
0,33,118,36
0,33,118,12
0,33,118,12
0,33,118,36
0,33,118,32
0,36,124,36
0,44,42,0
0,33,118,0
0,46,92,32
0,33,118,18
0,36,124,12
0,44,42,0
0,33,118,0
0,46,92,32
0,33,118,0
0,36,124,36
0,44,42,0
0,33,118,0
0,46,92,32
0,33,118,18
0,36,124,12
0,44,42,0
0,33,118,0
0,46,92,32
0,33,118,0
0,36,124,36
0,44,42,0
0,33,118,0
0,46,92,32
0,33,118,18
0,36,124,12
0,44,42,0
0,33,118,0
0,46,92,32
0,33,118,0
0,44,32,24
0,36,124,6
0,46,92,0
0,33,118,0
0,44,32,0
0,46,92,6
0,33,118,0
0,44,32,0
0,46,92,6
0,33,118,0
0,44,32,0
0,36,124,30
0,46,92,0
0,33,118,0
0,44,32,6
0,46,92,30
0,33,118,0
0,36,124,36
0,44,42,0
0,33,118,0
0,46,92,32
0,33,118,18
0,36,124,12
0,44,42,0
0,33,118,0
0,46,92,32
0,33,118,0
0,36,124,36
0,44,42,0
0,33,118,0
0,46,92,32
0,33,118,18
0,36,124,12
0,44,42,0
0,33,118,0
0,46,92,32
0,33,118,0
0,36,124,36
0,44,42,0
0,33,118,0
0,46,92,32
0,33,118,18
0,36,124,12
0,44,42,0
0,33,118,0
0,46,92,32
0,33,118,0
0,44,32,24
0,36,124,6
0,46,92,0
0,33,118,0
0,44,32,0
0,46,92,6
0,33,118,0
0,44,32,0
0,46,92,6
0,33,118,0
0,44,32,0
0,36,124,30
0,46,92,0
0,33,118,0
0,44,32,6
0,46,92,30
0,33,118,0
0,36,124,36
0,44,42,0
0,55,52,0
0,33,118,0
0,46,92,32
0,55,53,0
0,33,118,15
0,36,124,12
0,44,42,0
0,55,53,0
0,33,118,0
0,46,92,32
0,55,53,0
0,33,118,0
0,36,124,36
0,44,42,0
0,55,53,0
0,33,118,0
0,46,92,32
0,55,53,0
0,33,118,15
0,36,124,12
0,44,42,0
0,55,53,0
0,33,118,0
0,46,92,32
0,55,53,0
0,33,118,0
0,36,124,36
0,44,42,0
0,55,52,0
0,33,118,0
0,46,92,32
0,55,53,0
0,33,118,15
0,36,124,12
0,44,42,0
0,55,53,0
0,33,118,0
0,46,92,32
0,55,53,0
0,33,118,0
0,44,32,24
0,36,124,6
0,46,92,0
0,33,118,0
0,44,32,0
0,46,92,6
0,33,118,0
0,44,32,0
0,46,92,6
0,55,53,0
0,33,118,0
0,44,32,0
0,36,124,30
0,46,92,0
0,55,53,0
0,33,118,0
0,44,32,3
0,46,92,30
0,55,53,0
0,33,118,0
0,36,124,36
0,44,42,0
0,55,52,0
0,33,118,0
0,46,92,32
0,55,53,0
0,33,118,15
0,36,124,12
0,44,42,0
0,55,53,0
0,33,118,0
0,46,92,32
0,55,53,0
0,33,118,0
0,36,124,36
0,44,42,0
0,55,53,0
0,33,118,0
0,46,92,32
0,55,53,0
0,33,118,15
0,36,124,12
0,44,42,0
0,55,53,0
0,33,118,0
0,46,92,32
0,55,53,0
0,33,118,0
0,36,124,36
0,44,42,0
0,55,52,0
0,33,118,0
0,46,92,32
0,55,53,0
0,33,118,15
0,36,124,12
0,44,42,0
0,55,53,0
0,33,118,0
0,46,92,32
0,55,53,0
0,33,118,0
0,44,32,24
0,36,124,6
0,46,92,0
0,33,118,0
0,44,32,0
0,46,92,6
0,33,118,0
0,44,32,0
0,46,92,6
0,55,53,0
0,33,118,0
0,44,32,0
0,36,124,30
0,46,92,0
0,55,53,0
0,33,118,0
0,44,32,3
0,46,92,30
0,55,53,0
0,33,118,0
0,36,124,36
0,44,42,0
0,55,52,0
0,33,118,0
0,46,92,32
0,55,53,0
0,54,91,0
0,33,118,15
0,36,124,12
0,44,42,0
0,55,53,0
0,33,118,0
0,46,92,32
0,55,53,0
0,54,91,0
0,33,118,0
0,36,124,36
0,44,42,0
0,55,53,0
0,33,118,0
0,46,92,32
0,55,53,0
0,54,91,0
0,33,118,15
0,36,124,12
0,44,42,0
0,55,53,0
0,33,118,0
0,46,92,32
0,55,53,0
0,54,91,0
0,33,118,0
0,36,124,36
0,44,42,0
0,55,52,0
0,33,118,0
0,46,92,32
0,55,53,0
0,54,91,0
0,33,118,15
0,36,124,12
0,44,42,0
0,55,53,0
0,33,118,0
0,46,92,32
0,55,53,0
0,54,91,0
0,33,118,0
0,44,32,24
0,36,124,6
0,46,92,0
0,33,118,0
0,44,32,0
0,46,92,6
0,33,118,0
0,44,32,0
0,46,92,6
0,55,53,0
0,54,91,0
0,33,118,0
0,44,32,0
0,36,124,30
0,46,92,0
0,55,53,0
0,33,118,0
0,44,32,3
0,46,92,30
0,55,53,0
0,54,91,0
0,33,118,0
0,36,124,36
0,44,42,0
0,55,52,0
0,33,118,0
0,46,92,32
0,55,53,0
0,54,91,0
0,33,118,15
0,36,124,12
0,44,42,0
0,55,53,0
0,33,118,0
0,60,100,0
0,46,92,32
0,55,53,0
0,54,91,0
0,33,118,0
0,36,124,36
0,44,42,0
0,55,53,0
0,33,118,0
0,46,92,32
0,55,53,0
0,54,91,0
0,33,118,15
0,36,124,12
0,44,42,0
0,55,53,0
0,33,118,0
0,46,92,32
0,55,53,0
0,54,91,0
0,33,118,0
0,44,42,36
0,33,118,0
0,64,127,28
0,35,127,4
0,33,118,24
0,33,118,12
0,60,127,28
0,33,118,3
0,31,127,0
0,64,127,32
0,33,118,2
0,35,127,0
0,33,118,12
0,33,118,12
0,60,52,2
0,31,52,2
0,64,127,0
0,33,118,1
0,35,127,0
0,33,118,32
0,36,124,9
0,44,42,0
0,55,52,0
0,54,63,0
0,49,72,0
0,57,82,0
0,33,118,0
0,54,49,8
0,46,92,20
0,55,53,0
0,54,91,0
0,64,73,0
0,54,49,15
0,33,118,0
0,36,124,12
0,44,42,0
0,55,53,0
0,54,63,0
0,33,118,0
0,57,82,1
0,54,49,8
0,46,92,1
0,55,53,0
0,54,91,0
0,62,64,0
0,33,118,0
0,54,49,12
0,53,73,1
0,36,124,18
0,44,42,0
0,55,53,0
0,54,63,0
0,29,118,0
0,54,49,8
0,53,82,2
0,46,92,20
0,55,53,0
0,54,91,0
0,60,82,2
0,54,49,15
0,29,118,0
0,36,124,1
0,44,42,0
0,55,53,0
0,54,63,0
0,29,118,0
0,53,73,1
0,54,49,8
0,46,92,20
0,55,53,0
0,54,91,0
0,29,118,0
0,60,82,1
0,54,49,12
0,36,124,20
0,44,42,0
0,55,52,0
0,54,63,0
0,31,118,0
0,55,82,1
0,54,49,12
0,31,118,0
0,62,73,1
0,46,92,1
0,55,53,0
0,54,91,0
0,31,118,0
0,54,49,12
0,31,118,0
0,55,82,11
0,36,124,1
0,44,42,0
0,55,53,0
0,54,63,0
0,31,118,0
0,54,49,8
0,62,64,19
0,46,92,1
0,55,53,0
0,54,91,0
0,31,118,0
0,54,49,12
0,57,73,0
0,44,32,3
0,36,124,6
0,46,92,0
0,54,63,0
0,33,118,0
0,44,32,6
0,46,92,6
0,54,49,0
0,57,82,0
0,44,32,6
0,46,92,6
0,55,53,0
0,54,91,0
0,64,82,1
0,44,32,3
0,54,49,6
0,33,118,0
0,36,124,1
0,46,92,0
0,55,53,0
0,54,63,0
0,57,73,0
0,33,118,0
0,44,32,3
0,54,49,6
0,46,92,20
0,55,53,0
0,54,91,0
0,64,82,0
0,33,118,0
0,54,49,12
0,36,124,20
0,44,42,0
0,55,52,0
0,54,63,0
0,57,82,0
0,33,118,0
0,54,49,8
0,46,92,20
0,55,53,0
0,54,91,0
0,64,73,0
0,54,49,15
0,33,118,0
0,36,124,12
0,44,42,0
0,55,53,0
0,54,63,0
0,33,118,0
0,57,82,1
0,54,49,8
0,46,92,1
0,55,53,0
0,54,91,0
0,62,64,0
0,33,118,0
0,54,49,12
0,53,73,1
0,36,124,18
0,44,42,0
0,55,53,0
0,54,63,0
0,29,118,0
0,54,49,8
0,53,82,2
0,46,92,20
0,55,53,0
0,54,91,0
0,60,82,2
0,54,49,15
0,29,118,0
0,36,124,1
0,44,42,0
0,55,53,0
0,54,63,0
0,29,118,0
0,53,73,1
0,54,49,8
0,46,92,20
0,55,53,0
0,54,91,0
0,29,118,0
0,60,82,1
0,54,49,12
0,36,124,20
0,44,42,0
0,55,52,0
0,54,63,0
0,31,118,0
0,55,82,1
0,54,49,12
0,31,118,0
0,62,73,1
0,46,92,1
0,55,53,0
0,54,91,0
0,31,118,0
0,54,49,12
0,31,118,0
0,55,82,11
0,36,124,1
0,44,42,0
0,55,53,0
0,54,63,0
0,31,118,0
0,54,49,8
0,62,64,19
0,46,92,1
0,55,53,0
0,54,91,0
0,31,118,0
0,54,49,12
0,57,73,0
0,44,32,3
0,36,124,6
0,46,92,0
0,54,63,0
0,33,118,0
0,44,32,6
0,46,92,6
0,54,49,0
0,57,82,0
0,44,32,6
0,46,92,6
0,55,53,0
0,54,91,0
0,64,82,1
0,44,32,3
0,54,49,6
0,33,118,0
0,36,124,1
0,46,92,0
0,55,53,0
0,54,63,0
0,57,73,0
0,33,118,0
0,44,32,3
0,54,49,6
0,46,92,20
0,55,53,0
0,54,91,0
0,64,82,0
0,33,118,0
0,54,49,12
0,36,124,20
0,44,42,0
0,55,52,0
0,54,63,0
0,57,82,0
0,33,118,0
0,54,49,8
0,46,92,20
0,55,53,0
0,54,91,0
0,64,73,0
0,54,49,15
0,33,118,0
0,36,124,12
0,44,42,0
0,55,53,0
0,54,63,0
0,33,118,0
0,57,82,1
0,54,49,8
0,46,92,1
0,55,53,0
0,54,91,0
0,62,64,0
0,33,118,0
0,54,49,12
0,53,73,1
0,36,124,18
0,44,42,0
0,55,53,0
0,54,63,0
0,29,118,0
0,54,49,8
0,53,82,2
0,46,92,20
0,55,53,0
0,54,91,0
0,60,82,2
0,54,49,15
0,29,118,0
0,36,124,1
0,44,42,0
0,55,53,0
0,54,63,0
0,29,118,0
0,53,73,1
0,54,49,8
0,46,92,20
0,55,53,0
0,54,91,0
0,29,118,0
0,60,82,1
0,54,49,12
0,36,124,20
0,44,42,0
0,55,52,0
0,54,63,0
0,31,118,0
0,55,82,1
0,54,49,12
0,31,118,0
0,62,73,1
0,46,92,1
0,55,53,0
0,54,91,0
0,31,118,0
0,54,49,12
0,31,118,0
0,55,82,11
0,36,124,1
0,44,42,0
0,55,53,0
0,54,63,0
0,31,118,0
0,54,49,8
0,62,64,19
0,46,92,1
0,55,53,0
0,54,91,0
0,31,118,0
0,54,49,12
0,57,73,0
0,44,32,3
0,36,124,6
0,46,92,0
0,54,63,0
0,33,118,0
0,44,32,6
0,46,92,6
0,54,49,0
0,57,82,0
0,44,32,6
0,46,92,6
0,55,53,0
0,54,91,0
0,64,82,1
0,44,32,3
0,54,49,6
0,33,118,0
0,36,124,1
0,46,92,0
0,55,53,0
0,54,63,0
0,57,73,0
0,33,118,0
0,44,32,3
0,54,49,6
0,46,92,20
0,55,53,0
0,54,91,0
0,64,82,0
0,33,118,0
0,54,49,12
0,36,124,20
0,44,42,0
0,55,52,0
0,54,63,0
0,57,82,0
0,33,118,0
0,54,49,8
0,46,92,20
0,55,53,0
0,54,91,0
0,64,73,0
0,54,49,15
0,33,118,0
0,36,124,12
0,44,42,0
0,55,53,0
0,54,63,0
0,33,118,0
0,57,82,1
0,54,49,8
0,46,92,1
0,55,53,0
0,54,91,0
0,62,64,0
0,33,118,0
0,54,49,12
0,53,73,1
0,36,124,18
0,44,42,0
0,55,53,0
0,54,63,0
0,29,118,0
0,54,49,8
0,53,82,2
0,46,92,20
0,55,53,0
0,54,91,0
0,60,82,2
0,54,49,15
0,29,118,0
0,36,124,1
0,44,42,0
0,55,53,0
0,54,63,0
0,29,118,0
0,53,73,1
0,54,49,8
0,46,92,20
0,55,53,0
0,54,91,0
0,29,118,0
0,60,82,1
0,54,49,12
0,36,124,20
0,44,42,0
0,55,52,0
0,54,63,0
0,31,118,0
0,55,82,1
0,54,49,12
0,31,118,0
0,62,73,1
0,46,92,1
0,55,53,0
0,54,91,0
0,31,118,0
0,54,49,12
0,31,118,0
0,55,82,11
0,36,124,1
0,44,42,0
0,55,53,0
0,54,63,0
0,31,118,0
0,54,49,8
0,62,64,19
0,46,92,1
0,55,53,0
0,54,91,0
0,31,118,0
0,54,49,12
0,57,73,0
0,44,32,3
0,36,124,6
0,46,92,0
0,54,63,0
0,33,118,0
0,44,32,6
0,46,92,6
0,54,49,0
0,57,82,0
0,44,32,6
0,46,92,6
0,55,53,0
0,54,91,0
0,64,82,1
0,44,32,3
0,54,49,6
0,33,118,0
0,36,124,1
0,46,92,0
0,55,53,0
0,54,63,0
0,57,73,0
0,33,118,0
0,44,32,3
0,54,49,6
0,46,92,20
0,55,53,0
0,54,91,0
0,64,82,0
0,33,118,0
0,54,49,12
0,36,124,20
0,38,58,0
0,44,42,0
0,55,52,0
0,54,63,0
0,57,82,0
0,33,118,0
0,54,49,2
0,38,31,20
0,46,92,0
0,55,53,0
0,54,91,0
0,64,73,0
0,38,46,5
0,54,49,0
0,33,118,0
0,36,124,5
0,38,58,0
0,44,42,0
0,55,53,0
0,54,63,0
0,33,118,0
0,57,82,1
0,54,49,2
0,38,31,1
0,46,92,0
0,55,53,0
0,54,91,0
0,62,64,0
0,33,118,0
0,38,43,2
0,54,49,0
0,53,73,1
0,36,124,5
0,38,37,0
0,44,42,0
0,55,53,0
0,54,63,0
0,29,118,0
0,38,43,5
0,54,49,0
0,53,82,2
0,38,58,5
0,46,92,0
0,55,53,0
0,54,91,0
0,60,82,2
0,54,49,2
0,29,118,0
0,36,124,1
0,38,31,0
0,44,42,0
0,55,53,0
0,54,63,0
0,29,118,0
0,53,73,1
0,38,49,5
0,54,49,0
0,38,58,5
0,46,92,0
0,55,53,0
0,54,91,0
0,29,118,0
0,60,82,1
0,54,49,5
0,36,124,20
0,38,58,0
0,44,42,0
0,55,52,0
0,54,63,0
0,31,118,0
0,55,82,1
0,54,49,2
0,31,118,0
0,62,73,1
0,38,31,1
0,46,92,0
0,55,53,0
0,54,91,0
0,31,118,0
0,38,46,5
0,54,49,0
0,31,118,0
0,55,82,4
0,36,124,1
0,38,58,0
0,44,42,0
0,55,53,0
0,54,63,0
0,31,118,0
0,54,49,2
0,62,64,19
0,38,31,1
0,46,92,0
0,55,53,0
0,54,91,0
0,31,118,0
0,38,43,2
0,54,49,0
0,57,73,0
0,44,32,3
0,36,124,5
0,38,37,0
0,46,92,0
0,54,63,0
0,33,118,0
0,44,32,6
0,38,43,5
0,46,92,0
0,54,49,0
0,57,82,0
0,44,32,6
0,38,58,5
0,46,92,0
0,55,53,0
0,54,91,0
0,64,82,1
0,44,32,3
0,54,49,2
0,33,118,0
0,36,124,1
0,38,31,0
0,46,92,0
0,55,53,0
0,54,63,0
0,57,73,0
0,33,118,0
0,44,32,3
0,38,49,5
0,54,49,0
0,38,58,5
0,46,92,0
0,55,53,0
0,54,91,0
0,64,82,0
0,33,118,0
0,54,49,5
0,36,124,20
0,38,58,0
0,44,42,0
0,55,52,0
0,54,63,0
0,57,82,0
0,33,118,0
0,54,49,2
0,38,31,20
0,46,92,0
0,55,53,0
0,54,91,0
0,64,73,0
0,38,46,5
0,54,49,0
0,33,118,0
0,36,124,5
0,38,58,0
0,44,42,0
0,55,53,0
0,54,63,0
0,33,118,0
0,57,82,1
0,54,49,2
0,38,31,1
0,46,92,0
0,55,53,0
0,54,91,0
0,62,64,0
0,33,118,0
0,38,43,2
