track,note,velocity,time
1,60,127,13660
1,62,127,32
1,62,127,160
1,62,127,156
1,62,127,188
1,62,127,76
1,62,127,48
1,62,127,72
1,62,127,156
1,60,127,176
1,62,127,16
1,65,127,0
1,65,127,212
1,65,127,188
1,65,127,188
1,62,127,60
1,65,127,16
1,65,127,64
1,65,127,160
1,65,127,156
1,65,127,144
1,67,127,32
1,67,127,156
1,67,127,204
1,65,127,108
1,67,127,32
1,67,127,132
1,67,127,264
1,65,127,236
1,67,127,52
1,67,127,84
1,65,127,156
1,70,127,268
1,70,127,204
1,70,127,208
1,67,127,48
1,69,127,256
1,69,127,220
1,69,127,224
1,69,127,52
1,69,127,164
1,62,127,16
1,62,127,224
1,62,127,204
1,62,127,220
1,62,127,164
1,62,127,144
1,62,127,204
1,60,127,236
1,62,127,128
1,65,127,32
1,65,127,240
1,65,127,228
1,65,127,220
1,62,127,32
1,65,127,0
1,67,127,116
1,65,127,224
1,65,127,224
1,65,127,256
1,67,127,36
1,67,127,204
1,67,127,224
1,67,127,188
1,65,127,68
1,67,127,64
1,67,127,84
1,67,127,192
1,65,127,236
1,67,127,32
1,69,127,228
1,69,127,204
1,69,127,196
1,69,127,204
1,69,127,228
1,69,127,56
1,69,127,200
1,69,127,216
1,69,127,492
1,69,127,148
1,69,127,380
1,71,127,20
1,69,127,24
1,66,127,16
1,64,127,32
1,64,127,136
1,69,127,1316
1,69,127,192
1,71,127,632
1,69,127,40
1,66,127,152
1,64,127,16
1,64,127,152
1,66,127,1008
1,67,127,12
1,67,127,180
1,67,127,192
1,67,127,156
1,68,127,60
1,69,127,52
1,69,127,60
1,69,127,196
1,69,127,272
1,68,127,344
1,67,127,0
1,68,127,28
1,67,127,232
1,67,127,244
1,68,127,340
1,69,127,36
1,69,127,196
1,69,127,816
1,68,127,20
1,67,127,52
1,67,127,200
1,67,127,228
1,68,127,48
1,69,127,48
1,69,127,788
1,67,127,12
1,66,127,16
1,67,127,16
1,66,127,220
1,69,127,2292
1,69,127,192
1,71,127,972
1,69,127,148
1,66,127,16
1,64,127,216
1,64,127,204
1,69,127,1788
1,69,127,308
1,71,127,892
1,69,127,132
1,66,127,16
1,64,127,80
1,64,127,264
1,67,127,1412
1,67,127,0
1,67,127,296
1,67,127,232
1,67,127,260
1,67,127,100
1,69,127,84
1,69,127,84
1,69,127,236
1,69,127,440
1,68,127,208
1,67,127,88
1,67,127,228
1,67,127,284
1,68,127,240
1,69,127,240
1,69,127,1004
1,68,127,208
1,67,127,32
1,67,127,228
1,67,127,260
1,68,127,52
1,69,127,176
1,69,127,776
1,67,127,16
1,66,127,140
1,67,127,20
1,66,127,124
1,62,127,27176
1,62,127,360
1,62,127,192
1,60,127,28
1,62,127,68
1,62,127,80
1,62,127,212
1,62,127,612
1,65,127,48
1,65,127,188
1,65,127,192
1,65,127,204
1,62,127,32
1,65,127,48
1,65,127,96
1,65,127,208
1,65,127,608
1,67,127,48
1,67,127,156
1,67,127,176
1,65,127,392
1,67,127,52
1,67,127,68
1,67,127,208
1,65,127,236
1,67,127,32
1,70,127,220
1,70,127,200
1,70,127,200
1,70,127,240
1,70,127,68
1,69,127,16
1,69,127,84
1,69,127,224
1,69,127,232
1,69,127,56
1,62,127,200
1,62,127,272
1,62,127,220
1,62,127,96
1,60,127,252
1,62,127,228
1,60,127,240
1,62,127,32
1,62,127,52
1,60,127,128
1,65,127,16
1,65,127,256
1,65,127,216
1,65,127,236
1,65,127,268
1,65,127,100
1,65,127,240
1,62,127,240
1,65,127,156
1,67,127,24
1,67,127,240
1,67,127,232
1,67,127,240
1,65,127,68
1,67,127,48
1,67,127,84
1,67,127,208
1,65,127,252
1,67,127,36
1,69,127,224
1,69,127,268
1,69,127,104
1,69,127,72
1,69,127,72
1,69,127,216
1,69,127,208
1,69,127,68
1,69,127,176
1,69,127,240
1,69,127,240
1,69,127,164
1,71,127,500
1,69,127,24
1,66,127,140
1,64,127,20
1,64,127,112
1,69,127,1432
1,69,127,220
1,71,127,636
1,69,127,24
1,66,127,20
1,64,127,20
1,64,127,148
1,66,127,1296
1,67,127,44
1,67,127,184
1,67,127,180
1,68,127,164
1,69,127,36
1,69,127,408
1,69,127,384
1,68,127,224
1,67,127,32
1,67,127,168
1,67,127,176
1,68,127,36
1,69,127,72
1,69,127,200
1,69,127,432
1,69,127,240
1,68,127,36
1,67,127,64
1,67,127,180
1,67,127,212
1,68,127,48
1,69,127,16
1,69,127,748
1,67,127,32
1,66,127,124
1,67,127,32
1,66,127,208
1,69,127,1992
1,69,127,396
1,71,127,704
1,69,127,24
1,66,127,0
1,64,127,20
1,64,127,116
1,69,127,1608
1,69,127,208
1,71,127,716
1,69,127,40
1,66,127,24
1,64,127,20
1,64,127,132
1,66,127,1336
1,67,127,120
1,67,127,216
1,67,127,196
1,68,127,112
1,69,127,24
1,69,127,180
1,69,127,780
1,68,127,204
1,67,127,32
1,67,127,212
1,67,127,216
1,68,127,24
1,69,127,200
1,69,127,1124
1,68,127,248
1,67,127,44
1,67,127,184
1,67,127,248
1,68,127,36
1,69,127,40
1,69,127,272
1,69,127,248
1,67,127,232
1,66,127,152
1,67,127,32
1,66,127,208
1,69,127,14528
1,69,127,284
1,71,127,460
1,69,127,40
1,66,127,0
1,64,127,36
1,64,127,196
1,69,127,1608
1,69,127,276
1,71,127,856
1,69,127,352
1,66,127,0
1,64,127,48
1,64,127,144
1,66,127,1276
1,67,127,404
1,67,127,228
1,67,127,248
1,68,127,0
1,69,127,24
1,69,127,164
1,69,127,416
1,69,127,52
1,68,127,48
1,67,127,36
1,67,127,168
1,67,127,244
1,67,127,48
1,68,127,164
1,69,127,48
1,69,127,916
1,68,127,20
1,67,127,32
1,67,127,264
1,67,127,260
1,68,127,16
1,69,127,36
1,69,127,752
1,67,127,44
1,66,127,124
1,67,127,32
1,66,127,252
1,69,127,1592
1,69,127,148
1,71,127,520
1,69,127,36
1,66,127,16
1,64,127,16
1,64,127,124
1,69,127,1508
1,69,127,160
1,71,127,740
1,69,127,24
1,66,127,0
1,64,127,40
1,64,127,152
1,66,127,1244
1,67,127,36
1,67,127,228
1,67,127,220
1,67,127,88
1,68,127,168
1,69,127,64
1,69,127,72
1,69,127,208
1,69,127,216
1,68,127,132
1,67,127,48
1,67,127,208
1,67,127,228
1,68,127,40
1,69,127,208
1,69,127,332
1,69,127,616
1,68,127,220
1,67,127,48
1,67,127,196
1,67,127,228
1,68,127,24
1,69,127,52
1,69,127,720
1,67,127,16
1,66,127,124
1,67,127,20
1,66,127,208
2,38,127,1536
2,38,127,32
2,35,127,192
2,33,127,184
2,38,127,168
2,38,127,52
2,35,127,188
2,33,127,180
2,38,127,12
2,38,127,52
2,35,127,32
2,33,127,192
2,38,127,12
2,38,127,80
2,35,127,16
2,38,127,16
2,33,127,32
2,33,127,64
2,30,127,4
2,28,127,192
2,33,127,64
2,33,127,64
2,30,127,192
2,28,127,188
2,33,127,60
2,33,127,80
2,30,127,192
2,28,127,188
2,33,127,48
2,33,127,64
2,30,127,16
2,28,127,16
2,38,127,20
2,38,127,32
2,35,127,192
2,33,127,0
2,38,127,4
2,38,127,48
2,35,127,16
2,33,127,16
2,38,127,20
2,38,127,48
2,35,127,32
2,33,127,16
2,38,127,32
2,38,127,96
2,35,127,188
2,33,127,12
2,33,127,60
2,33,127,64
2,30,127,20
2,28,127,192
2,33,127,28
2,33,127,60
2,30,127,4
2,28,127,16
2,33,127,32
2,34,127,192
2,35,127,120
2,36,127,80
2,37,127,140
2,38,127,100
2,38,127,168
2,41,127,4
2,41,127,96
2,31,127,28
2,31,127,208
2,34,127,384
2,33,127,216
2,33,127,180
2,33,127,64
2,33,127,156
2,33,127,84
2,38,127,100
2,38,127,68
2,29,127,12
2,29,127,168
2,31,127,12
2,33,127,228
2,33,127,276
2,33,127,224
2,33,127,124
2,33,127,44
2,33,127,172
2,33,127,80
2,38,127,88
2,38,127,80
2,35,127,192
2,33,127,132
2,38,127,28
2,38,127,48
2,35,127,16
2,33,127,196
2,38,127,16
2,38,127,64
2,35,127,20
2,33,127,192
2,38,127,32
2,38,127,80
2,35,127,192
2,38,127,16
2,33,127,32
2,33,127,44
2,30,127,12
2,28,127,12
2,33,127,64
2,33,127,64
2,30,127,192
2,28,127,180
2,33,127,60
2,33,127,68
2,30,127,192
2,28,127,0
2,33,127,52
2,33,127,64
2,30,127,36
2,28,127,192
2,38,127,152
2,38,127,44
2,35,127,192
2,33,127,164
2,38,127,16
2,38,127,64
2,35,127,64
2,33,127,4
2,38,127,32
2,38,127,80
2,35,127,52
2,33,127,0
2,38,127,64
2,38,127,96
2,35,127,48
2,35,127,32
2,33,127,108
2,33,127,20
2,30,127,16
2,28,127,192
2,33,127,48
2,33,127,80
2,30,127,12
2,28,127,0
2,33,127,48
2,33,127,96
2,30,127,20
2,28,127,12
2,33,127,36
2,33,127,80
2,30,127,192
2,28,127,164
2,31,127,188
2,31,127,76
2,28,127,192
2,26,127,0
2,31,127,192
2,31,127,76
2,28,127,192
2,33,127,208
2,33,127,32
2,30,127,192
2,28,127,28
2,33,127,36
2,33,127,64
2,30,127,192
2,28,127,12
2,31,127,20
2,31,127,76
2,28,127,20
2,26,127,4
2,31,127,20
2,31,127,92
2,28,127,192
2,26,127,188
2,33,127,32
2,33,127,64
2,30,127,192
2,28,127,164
2,33,127,48
2,33,127,60
2,30,127,188
2,28,127,160
2,31,127,32
2,31,127,64
2,28,127,20
2,26,127,32
2,31,127,48
2,31,127,96
2,28,127,192
2,26,127,116
2,33,127,44
2,33,127,216
2,38,127,3220
2,38,127,48
2,35,127,16
2,33,127,16
2,38,127,44
2,38,127,80
2,35,127,20
2,33,127,192
2,38,127,32
2,38,127,64
2,35,127,192
2,33,127,12
2,38,127,64
2,38,127,68
2,35,127,20
2,33,127,32
2,33,127,32
2,33,127,36
2,30,127,92
2,28,127,32
2,33,127,52
2,33,127,80
2,30,127,36
2,28,127,48
2,33,127,52
2,33,127,80
2,30,127,48
2,28,127,4
2,33,127,64
2,33,127,80
2,30,127,192
2,28,127,188
2,38,127,32
2,38,127,80
2,35,127,32
2,33,127,36
2,38,127,48
2,38,127,68
2,35,127,48
2,33,127,36
2,38,127,64
2,38,127,60
2,35,127,48
2,33,127,48
2,38,127,48
2,38,127,80
2,35,127,52
2,38,127,48
2,33,127,36
2,33,127,64
2,30,127,20
2,28,127,192
2,33,127,80
2,33,127,80
2,30,127,4
2,28,127,12
2,33,127,48
2,33,127,64
2,30,127,4
2,28,127,36
2,33,127,48
2,33,127,64
2,30,127,20
2,28,127,20
2,31,127,68
2,31,127,72
2,28,127,24
2,26,127,20
2,31,127,8
2,31,127,80
2,28,127,192
2,26,127,164
2,33,127,64
2,33,127,72
2,30,127,28
2,28,127,24
2,33,127,68
2,33,127,84
2,30,127,40
2,33,127,8
2,31,127,24
2,31,127,80
2,28,127,8
2,26,127,4
2,31,127,24
2,31,127,52
2,28,127,8
2,26,127,20
2,33,127,52
2,33,127,56
2,30,127,192
2,28,127,20
2,33,127,40
2,33,127,84
2,30,127,192
2,28,127,4
2,31,127,20
2,31,127,84
2,28,127,192
2,26,127,140
2,31,127,8
2,31,127,84
2,28,127,192
2,26,127,168
2,33,127,20
2,33,127,172
2,38,127,2212
2,40,127,384
2,41,127,372
2,42,127,24
2,43,127,52
2,43,127,0
2,43,127,68
2,40,127,188
2,38,127,156
2,43,127,68
2,43,127,40
2,40,127,28
2,38,127,188
2,43,127,36
2,43,127,52
2,40,127,40
2,38,127,192
2,43,127,36
2,43,127,56
2,40,127,24
2,43,127,28
2,38,127,40
2,38,127,52
2,35,127,192
2,33,127,8
2,38,127,192
2,38,127,52
2,35,127,192
2,33,127,164
2,38,127,184
2,38,127,52
2,35,127,196
2,33,127,24
2,38,127,192
2,38,127,52
2,35,127,192
2,33,127,24
2,43,127,20
2,43,127,64
2,40,127,192
2,38,127,8
2,43,127,40
2,43,127,52
2,40,127,24
2,38,127,4
2,43,127,40
2,43,127,52
2,40,127,36
2,38,127,28
2,43,127,56
2,43,127,68
2,40,127,40
2,38,127,192
2,45,127,84
2,38,127,2832
2,38,127,28
2,35,127,16
2,33,127,192
2,38,127,172
2,38,127,36
2,35,127,192
2,33,127,156
2,38,127,184
2,38,127,80
2,35,127,192
2,33,127,164
2,38,127,20
2,38,127,68
2,35,127,192
2,38,127,188
2,33,127,36
2,33,127,52
2,30,127,188
2,28,127,16
2,33,127,68
2,33,127,56
2,30,127,56
2,28,127,192
2,33,127,52
2,33,127,68
2,30,127,24
2,28,127,8
2,33,127,40
2,33,127,64
2,30,127,40
2,33,127,192
2,38,127,24
2,38,127,68
2,35,127,192
2,33,127,140
2,38,127,168
2,38,127,52
2,35,127,192
2,33,127,176
2,38,127,168
2,38,127,76
2,35,127,8
2,33,127,192
2,38,127,4
2,38,127,52
2,35,127,52
2,33,127,192
2,33,127,80
2,33,127,60
2,30,127,8
2,28,127,16
2,33,127,44
2,33,127,72
2,30,127,192
2,28,127,12
2,33,127,44
2,34,127,192
2,35,127,4
2,36,127,20
2,37,127,20
2,39,127,4
2,38,127,24
2,38,127,172
2,29,127,380
2,29,127,232
2,31,127,388
2,31,127,176
2,34,127,384
2,33,127,40
2,33,127,152
2,33,127,28
2,33,127,156
2,33,127,64
2,38,127,20
2,38,127,100
2,29,127,384
2,29,127,112
2,31,127,44
2,31,127,148
2,33,127,32
2,33,127,356
2,33,127,296
2,33,127,168
2,33,127,64
2,33,127,168
2,33,127,84
2,38,127,56
2,38,127,88
2,35,127,4
2,33,127,192
2,38,127,24
2,38,127,72
2,35,127,192
2,33,127,16
2,38,127,44
2,38,127,76
2,35,127,192
2,33,127,12
2,38,127,192
2,38,127,84
2,35,127,28
2,38,127,192
2,33,127,56
2,33,127,56
2,30,127,192
2,28,127,172
2,33,127,56
2,33,127,64
2,30,127,16
2,28,127,16
2,33,127,28
2,33,127,60
2,30,127,192
2,28,127,152
2,33,127,40
2,33,127,60
2,30,127,32
2,28,127,192
2,38,127,28
2,38,127,44
2,35,127,192
2,33,127,152
2,38,127,28
2,38,127,76
2,35,127,16
2,33,127,0
2,38,127,20
2,38,127,68
2,35,127,20
2,33,127,16
2,38,127,16
2,38,127,72
2,35,127,16
2,38,127,16
2,33,127,40
2,33,127,48
2,30,127,192
2,28,127,184
2,33,127,52
2,33,127,56
2,30,127,12
2,28,127,192
2,33,127,44
2,33,127,56
2,30,127,192
2,28,127,172
2,33,127,28
2,33,127,60
2,30,127,192
2,28,127,152
2,31,127,188
2,31,127,56
2,28,127,192
2,26,127,188
2,31,127,176
2,31,127,100
2,28,127,192
2,33,127,104
2,33,127,56
2,30,127,192
2,28,127,172
2,33,127,28
2,33,127,60
2,30,127,192
2,33,127,12
2,31,127,44
2,31,127,76
2,28,127,192
2,26,127,32
2,31,127,192
2,31,127,100
2,28,127,192
2,26,127,12
2,33,127,40
2,33,127,60
2,30,127,192
2,28,127,28
2,33,127,44
2,33,127,92
2,30,127,32
2,33,127,192
2,31,127,4
2,31,127,56
2,28,127,192
2,26,127,168
2,31,127,188
2,31,127,88
2,28,127,192
2,26,127,148
2,33,127,144
2,33,127,200
2,38,127,3116
2,38,127,44
2,35,127,12
2,33,127,192
2,38,127,28
2,38,127,36
2,35,127,8
2,33,127,196
2,38,127,44
2,38,127,60
2,35,127,16
2,33,127,192
2,38,127,12
2,38,127,56
2,35,127,192
2,38,127,12
2,33,127,4
2,33,127,56
2,30,127,16
2,28,127,28
2,33,127,16
2,33,127,44
2,30,127,192
2,28,127,12
2,33,127,16
2,33,127,44
2,30,127,192
2,28,127,136
2,33,127,16
2,33,127,76
2,30,127,192
2,33,127,160
2,38,127,32
2,38,127,64
2,35,127,4
2,33,127,16
2,38,127,16
2,38,127,76
2,35,127,4
2,33,127,192
2,38,127,16
2,38,127,72
2,35,127,4
2,33,127,4
2,38,127,24
2,38,127,100
2,35,127,12
2,38,127,196
2,33,127,44
2,33,127,0
