track,note,velocity,time
3,66,37,18436
3,74,39,0
3,76,39,1
3,78,39,767
3,77,39,1513
3,69,37,1
3,78,39,1481
3,79,39,12
3,70,39,0
3,78,39,2
3,71,39,400
3,66,39,3
3,76,39,0
3,74,39,9
3,71,39,768
3,69,39,0
3,77,39,3
3,76,39,754
3,74,39,352
3,66,10,379
3,73,19,747
3,72,11,716
3,74,27,16082
3,66,26,0
3,76,31,758
3,78,39,758
3,77,39,2
3,69,37,0
3,78,39,1479
3,70,39,1
3,79,39,3
3,78,39,3
3,71,39,385
3,66,39,737
3,76,39,0
3,74,39,1
3,71,39,779
3,77,39,4
3,69,39,0
3,76,39,761
3,74,39,0
3,66,10,383
3,73,23,754
3,72,11,710
3,74,27,9940
3,66,26,0
3,76,31,757
3,78,39,761
3,77,39,0
3,69,37,2
3,78,39,1480
3,70,23,753
3,79,23,0
3,78,23,1
3,71,23,386
3,76,23,747
3,66,23,0
3,74,23,0
3,71,23,776
3,77,23,4
3,69,23,0
3,76,23,761
3,74,23,2
3,45,20,352
3,66,10,31
3,73,11,758
3,72,11,707
4,38,91,0
4,38,91,65
4,33,91,65
4,38,91,9
4,38,91,41
4,33,91,56
4,38,91,3
4,38,91,51
4,33,91,58
4,38,91,10
4,38,91,67
4,33,91,59
4,43,91,27
4,43,91,96
4,38,91,59
4,42,91,384
4,42,91,65
4,37,91,57
4,40,91,27
4,40,91,44
4,35,91,66
4,40,91,50
4,40,91,60
4,35,91,60
4,38,91,28
4,38,91,52
4,33,91,58
4,38,91,384
4,38,91,51
4,33,91,59
4,38,91,385
4,38,91,58
4,33,91,0
4,38,91,384
4,38,91,67
4,33,91,73
4,43,91,28
4,43,91,66
4,38,91,60
4,42,91,387
4,42,91,50
4,37,91,58
4,40,91,27
4,40,91,68
4,35,91,67
4,40,91,35
4,40,91,67
4,35,91,20
4,31,91,2
4,38,91,35
4,38,91,49
4,33,91,66
4,38,91,384
4,38,91,49
4,33,91,67
4,38,91,384
4,38,91,44
4,33,91,59
4,38,91,18
4,38,91,66
4,33,91,12
4,30,91,193
4,31,91,11
4,31,91,70
4,31,91,58
4,30,91,385
4,30,91,69
4,30,91,66
4,40,91,43
4,40,91,59
4,40,91,75
4,40,91,59
4,40,91,59
4,35,91,82
4,33,91,9
4,35,91,28
4,35,91,58
4,30,91,73
4,42,91,18
4,42,91,69
4,37,91,60
4,43,91,17
4,43,91,67
4,38,91,68
4,35,91,26
4,35,91,66
4,30,91,64
4,34,91,63
4,34,91,75
4,29,91,59
4,34,91,384
4,34,91,58
4,29,91,59
4,38,91,60
4,38,91,82
4,33,91,59
4,42,91,0
4,42,91,74
4,42,91,75
4,34,91,10
4,35,91,27
4,35,91,59
4,35,91,83
4,42,91,385
4,42,91,86
4,37,91,65
4,43,91,36
4,43,91,66
4,38,91,58
4,35,91,32
4,35,91,93
4,30,91,57
4,34,91,3
4,34,91,59
4,29,91,68
4,34,91,20
4,34,91,68
4,34,91,67
4,38,91,44
4,38,91,44
4,33,91,66
4,38,91,11
4,38,91,42
4,33,91,59
4,38,91,0
4,38,91,50
4,33,91,59
4,38,91,11
4,38,91,74
4,33,91,60
4,43,91,30
4,43,91,97
4,38,91,58
4,42,91,384
4,42,91,67
4,37,91,58
4,40,91,28
4,40,91,45
4,35,91,58
4,40,91,51
4,40,91,58
4,35,91,59
4,38,91,29
4,38,91,50
4,33,91,58
4,38,91,386
4,38,91,50
4,33,91,58
4,38,91,386
4,38,91,60
4,33,91,66
4,38,91,384
4,38,91,67
4,33,91,72
4,43,91,27
4,43,91,66
4,38,91,59
4,42,91,384
4,42,91,52
4,37,91,59
4,40,91,26
4,40,91,66
4,35,91,67
4,40,91,34
4,40,91,66
4,35,91,18
4,31,91,2
4,38,91,33
4,38,91,51
4,33,91,67
4,38,91,383
4,38,91,52
4,33,91,66
4,38,91,384
4,38,91,42
4,33,91,59
4,38,91,19
4,38,91,66
4,33,91,11
4,30,91,194
4,31,91,10
4,31,91,66
4,31,91,60
4,30,91,384
4,30,91,67
4,30,91,66
4,40,91,42
4,40,91,57
4,40,91,75
4,40,91,59
4,40,91,58
4,35,91,75
4,33,91,10
4,35,91,35
4,35,91,59
4,30,91,73
4,42,91,18
4,42,91,67
4,37,91,57
4,43,91,19
4,43,91,69
4,38,91,66
4,35,91,26
4,35,91,67
4,30,91,66
4,34,91,57
4,34,91,76
4,29,91,57
4,34,91,386
4,34,91,60
4,29,91,57
4,38,91,50
4,38,91,84
4,33,91,59
4,42,91,1
4,42,91,74
4,42,91,75
4,34,91,11
4,35,91,28
4,35,91,60
4,35,91,81
4,42,91,388
4,42,91,84
4,37,91,65
4,43,91,36
4,43,91,76
4,38,91,58
4,35,91,27
4,35,91,92
4,30,91,58
4,34,91,1
4,34,91,61
4,29,91,67
4,34,91,20
4,34,91,67
4,34,91,66
4,38,91,44
4,38,91,42
4,33,91,67
4,38,91,10
4,38,91,43
4,33,91,59
4,38,91,3
4,38,91,52
4,33,91,60
4,38,91,0
4,38,91,75
4,33,91,60
4,43,91,27
4,43,91,101
4,38,91,56
4,42,91,387
4,42,91,67
4,37,91,58
4,40,91,29
4,40,91,43
4,35,91,67
4,40,91,48
4,40,91,59
4,35,91,58
4,38,91,26
4,38,91,51
4,33,91,59
4,38,91,383
4,38,91,51
4,33,91,58
4,38,91,385
4,38,91,60
4,33,91,67
4,38,91,385
4,38,91,66
4,33,91,75
4,43,91,28
4,43,91,66
4,38,91,58
4,42,91,385
4,42,91,50
4,37,91,59
4,40,91,27
4,40,91,68
4,35,91,67
4,40,91,34
4,40,91,67
4,35,91,17
4,31,91,2
4,35,91,37
4,35,91,60
4,30,91,75
4,42,91,17
4,42,91,66
4,37,91,48
4,43,91,20
4,43,91,59
4,38,91,65
4,35,91,27
4,35,91,66
4,30,91,64
4,34,91,59
4,34,91,74
4,29,91,58
4,34,91,384
4,34,91,61
4,29,91,58
4,38,91,58
4,38,91,91
4,33,91,59
4,42,91,1
4,42,91,73
4,42,91,74
4,34,91,11
4,35,91,26
4,35,91,59
4,35,91,83
4,42,91,386
4,42,91,83
4,37,91,65
4,43,91,34
4,43,91,76
4,38,91,59
4,35,91,29
4,35,91,92
4,30,91,58
4,34,91,2
4,34,91,58
4,29,91,65
4,34,91,21
4,34,91,67
4,34,91,66
4,38,91,42
4,38,91,42
4,33,91,65
4,38,91,15
4,38,91,42
4,33,91,57
4,38,91,0
4,38,91,52
4,33,91,58
4,38,91,13
4,38,91,74
4,33,91,59
4,43,91,27
4,43,91,95
4,38,91,57
4,42,91,387
4,42,91,67
4,37,91,56
4,40,91,25
4,40,91,43
4,35,91,66
4,40,91,51
4,40,91,59
4,35,91,57
4,38,91,27
4,38,91,50
4,33,91,59
4,38,91,384
4,38,91,50
4,33,91,58
4,38,91,385
4,38,91,57
4,33,91,68
4,38,91,384
4,38,91,68
4,33,91,74
4,43,91,28
4,43,91,68
4,38,91,55
4,42,91,387
4,42,91,50
4,37,91,60
4,40,91,26
4,40,91,67
4,35,91,65
4,40,91,35
4,40,91,68
4,35,91,11
4,31,91,0
4,38,91,40
4,26,91,664
5,66,87,0
5,57,35,91
5,62,55,31
5,66,75,28
5,57,11,169
5,62,43,94
5,66,75,11
5,57,31,73
5,61,59,94
5,66,87,10
5,57,55,264
5,66,79,0
5,57,23,80
5,60,43,96
5,66,79,83
5,64,51,169
5,66,67,3
5,67,71,19
5,67,75,49
5,66,67,97
5,64,55,130
5,66,63,2
5,59,31,10
5,62,43,95
5,66,75,3
5,59,39,162
5,71,71,2
5,59,47,10
5,64,35,19
5,57,31,89
5,61,31,11
5,64,47,11
5,57,39,184
5,61,59,3
5,67,75,18
5,59,23,56
5,62,39,98
5,66,79,52
5,59,27,178
5,62,43,58
5,67,79,3
5,59,35,187
5,62,43,92
5,55,35,96
5,59,51,2
5,62,83,97
5,66,71,28
5,57,35,86
5,62,31,97
5,66,75,84
5,57,51,170
5,62,43,10
5,69,87,96
5,57,31,104
5,61,43,96
5,66,51,0
5,57,39,184
5,61,59,97
5,57,19,88
5,66,67,11
5,57,35,89
5,60,19,96
5,66,67,10
5,57,23,191
5,60,35,97
5,66,83,67
5,57,39,26
5,60,47,97
5,62,79,52
5,50,43,89
5,54,55,96
5,57,59,9
5,59,75,3
5,50,35,96
5,55,31,28
5,62,75,19
5,54,67,192
5,61,67,2
5,52,43,92
5,57,47,16
5,64,83,27
5,52,47,172
5,57,39,10
5,61,55,83
5,62,67,17
5,55,39,96
5,59,39,12
5,62,75,11
5,55,39,10
5,59,31,96
5,66,95,19
5,55,31,33
5,59,43,99
5,67,79,22
5,55,51,189
5,59,43,27
5,62,59,97
5,64,75,51
5,57,35,2
5,66,83,27
5,57,51,193
5,62,55,95
5,69,87,10
5,57,35,120
5,61,43,97
5,66,99,2
5,57,39,192
5,61,75,96
5,57,39,89
5,66,83,18
5,57,35,88
5,60,35,0
5,66,91,2
5,57,39,192
5,66,79,89
5,57,43,83
5,60,43,1
5,57,43,3
5,66,59,11
5,57,47,42
5,69,83,192
5,57,39,84
5,60,55,19
5,66,75,10
5,59,39,95
5,62,43,96
5,66,91,2
5,59,27,192
5,69,75,10
5,59,31,96
5,64,75,21
5,57,39,89
5,61,63,95
5,66,87,3
5,57,31,187
5,61,23,7
5,64,67,10
5,57,35,95
5,62,67,65
5,55,35,87
5,59,23,8
5,62,59,18
5,54,71,192
5,55,43,11
5,59,63,28
5,62,75,193
5,55,35,75
5,59,71,0
5,64,83,193
5,59,15,32
5,55,35,2
5,55,27,25
5,59,43,0
5,66,87,11
5,59,11,93
5,62,59,0
5,71,95,28
5,59,39,179
5,62,47,19
5,66,55,96
5,66,79,44
5,57,43,81
5,61,63,0
5,69,95,12
5,57,39,190
5,61,55,96
5,66,55,0
5,61,63,9
5,66,83,20
5,59,31,92
5,62,39,27
5,69,87,11
5,59,47,191
5,62,43,11
5,66,59,2
5,66,83,34
5,59,35,92
5,62,47,98
5,66,79,20
5,59,39,184
5,62,47,97
5,59,43,82
5,65,79,20
5,57,43,92
5,58,63,97
5,62,83,43
5,57,55,154
5,58,63,98
5,65,95,9
5,53,47,122
5,58,75,34
5,62,83,10
5,57,59,171
5,58,67,92
5,62,63,1
5,64,83,11
5,54,55,176
5,62,83,96
5,54,75,171
5,57,51,2
5,62,71,1
5,61,75,74
5,54,71,80
5,58,75,11
5,64,95,20
5,62,83,287
5,61,67,73
5,62,79,11
5,54,43,86
5,59,55,35
5,66,99,12
5,54,55,190
5,59,51,97
5,62,71,17
5,64,79,11
5,57,43,86
5,61,63,10
5,64,83,3
5,69,79,191
5,57,39,91
5,61,55,97
5,66,75,0
5,59,31,93
5,62,59,9
5,71,91,9
5,59,39,193
5,62,47,26
5,66,75,96
5,66,87,9
5,59,39,94
5,62,47,49
5,71,91,14
5,59,47,188
5,62,59,82
5,66,79,95
5,65,71,3
5,58,51,92
5,62,31,98
5,65,91,11
5,58,63,192
5,62,55,94
5,64,83,1
5,58,43,130
5,62,59,11
5,65,79,3
5,58,75,8
5,69,95,11
5,58,43,95
5,66,83,20
5,57,39,73
5,62,59,35
5,69,103,17
5,57,43,179
5,62,51,96
5,66,99,73
5,57,27,78
5,61,51,96
5,69,87,2
5,57,19,190
5,61,79,98
5,57,55,35
5,66,83,28
5,57,51,79
5,60,43,97
5,69,95,11
5,57,35,192
5,60,43,96
5,66,95,4
5,57,27,122
5,60,43,3
5,66,63,35
5,54,75,0
5,60,59,192
5,66,79,3
5,54,63,95
5,55,79,19
5,59,35,83
5,62,63,9
5,54,87,100
5,59,59,66
5,62,63,96
5,54,63,3
5,61,87,82
5,54,63,86
5,57,59,27
5,64,91,4
5,54,51,189
5,57,55,98
5,61,67,10
5,62,79,11
5,55,43,87
5,59,47,90
5,62,75,2
5,55,31,169
5,59,47,83
5,66,99,2
5,59,27,190
5,62,35,25
5,71,91,0
5,59,43,97
5,62,59,18
5,69,67,95
5,67,79,2
5,66,83,11
5,57,27,73
5,62,47,94
5,69,75,19
5,57,35,10
5,66,55,191
5,66,83,68
5,57,23,90
5,61,51,94
5,69,83,82
5,57,43,180
5,61,59,96
5,61,39,57
5,66,79,8
5,57,31,73
5,60,31,40
5,66,103,98
5,57,27,182
5,60,47,99
5,69,83,10
5,57,51,20
5,60,35,94
5,66,79,20
5,54,59,188
5,60,55,0
5,66,79,26
5,54,75,9
5,59,55,95
5,62,63,1
5,66,95,19
5,59,47,287
5,62,47,35
5,64,51,10
5,57,43,95
5,61,63,95
5,69,95,11
5,57,51,190
5,61,59,97
5,64,59,25
5,67,63,17
5,59,43,95
5,62,39,96
5,66,79,10
5,59,47,183
5,62,47,82
5,67,95,12
5,59,43,138
5,62,55,20
5,71,87,20
5,59,75,27
5,69,67,19
5,67,75,10
5,66,79,74
5,57,15,80
5,62,47,75
5,66,91,28
5,57,39,185
5,64,63,96
5,57,35,43
5,61,59,74
5,57,51,153
5,61,67,99
5,69,75,18
5,57,31,97
5,61,63,94
5,64,79,10
5,57,11,41
5,60,47,98
5,66,83,20
5,57,39,191
5,60,35,96
5,69,99,18
5,57,43,114
5,60,47,96
5,57,67,122
5,59,67,51
5,60,63,18
5,62,75,9
5,55,47,96
5,59,31,192
5,66,83,163
5,59,51,83
5,62,67,83
5,64,71,10
5,57,43,94
5,61,43,98
5,64,71,11
5,54,63,191
5,57,55,4
5,62,67,10
5,52,59,93
5,55,51,96
5,59,79,99
5,52,39,11
5,55,51,97
5,59,79,2
5,62,71,192
5,55,63,89
5,59,63,89
5,62,79,192
5,55,67,89
5,59,43,95
5,62,75,49
5,54,31,89
5,66,99,35
5,54,67,184
5,59,63,98
5,62,63,3
5,64,75,0
5,57,35,96
5,61,55,50
5,64,75,106
5,57,39,178
5,69,87,96
5,57,43,67
5,66,79,80
5,59,51,82
5,62,47,96
5,66,103,0
5,59,51,185
5,69,87,11
5,59,35,96
5,66,83,10
5,59,35,89
5,62,47,33
5,71,99,11
5,59,47,193
5,62,63,72
5,66,63,96
5,65,75,42
5,53,27,88
5,58,71,94
5,62,83,2
5,65,31,28
5,57,55,0
5,58,55,81
5,62,87,1
5,53,47,168
5,58,83,4
5,62,67,156
5,65,63,11
5,67,67,10
5,69,87,9
5,57,51,96
5,62,55,12
5,66,103,20
5,67,83,185
5,66,71,82
5,64,79,83
5,66,87,1
5,58,43,93
5,61,75,95
5,64,79,27
5,58,55,182
5,64,23,41
5,61,67,7
5,64,43,27
5,66,83,9
5,54,67,95
5,59,55,96
5,62,83,0
5,54,59,192
5,59,59,9
5,62,67,43
5,66,95,19
5,54,51,95
5,57,59,19
5,61,83,68
5,54,71,11
5,57,55,95
5,66,99,9
5,54,63,94
5,59,51,4
5,54,71,0
5,59,63,99
5,62,87,66
5,59,51,3
5,62,43,97
5,66,79,95
5,62,39,6
5,66,79,11
5,59,27,80
5,64,83,194
5,59,47,74
5,62,59,2
5,66,95,19
5,59,47,80
5,65,87,7
5,57,15,94
5,58,67,97
5,62,91,12
5,57,47,171
5,58,71,96
5,65,95,3
5,57,43,112
5,58,59,50
5,69,91,35
5,57,23,192
5,58,83,74
5,65,63,2
5,66,71,3
5,57,47,95
5,62,47,2
5,66,79,0
5,57,47,191
5,69,71,10
5,57,47,90
5,66,67,8
5,57,31,89
5,61,51,9
5,66,99,1
5,57,51,185
5,61,51,93
5,66,35,82
5,66,75,23
5,57,31,81
5,60,43,19
5,66,75,10
5,57,27,191
5,60,31,96
5,69,79,20
5,57,39,190
5,60,43,26
5,66,103,3
5,57,47,190
5,64,79,91
5,62,67,0
5,62,67,9
5,55,51,95
5,59,31,96
5,62,79,3
5,54,51,186
5,59,47,4
5,62,59,25
5,61,63,10
5,52,51,83
5,57,55,82
5,64,63,12
5,57,39,191
5,61,59,90
5,64,63,2
5,66,43,18
5,59,43,84
5,62,43,98
5,67,87,11
5,59,47,191
5,62,43,96
5,66,99,0
5,59,43,129
5,62,51,97
5,71,95,35
