track,note,velocity,time
1,69,92,1008
1,60,86,0
1,63,82,0
1,66,70,0
1,59,82,0
1,62,82,0
1,64,82,0
1,67,82,0
1,66,70,0
1,74,72,0
1,69,82,0
1,64,74,0
1,72,82,144
1,66,76,0
1,63,66,0
1,69,82,0
1,62,74,0
1,64,88,0
1,67,88,0
1,71,86,0
1,69,80,0
1,66,72,0
1,64,72,0
1,74,70,0
1,69,100,96
1,60,88,0
1,63,94,0
1,66,86,0
1,67,72,0
1,59,74,0
1,62,80,0
1,64,90,0
1,67,98,0
1,74,80,48
1,72,82,0
1,80,80,0
1,76,90,0
1,72,82,0
1,81,86,48
1,76,86,48
1,74,64,0
1,71,88,0
1,64,92,0
1,60,86,0
1,69,94,0
1,72,82,48
1,63,78,0
1,66,82,0
1,71,60,0
1,66,80,0
1,63,86,0
1,69,88,0
1,60,82,0
1,67,80,48
1,59,80,0
1,62,80,0
1,64,88,0
1,79,86,240
1,71,88,0
1,72,86,0
1,79,86,144
1,74,90,48
1,74,98,48
1,69,70,96
1,71,86,0
1,76,88,96
1,71,78,336
1,72,82,96
1,76,76,96
1,79,90,0
1,75,80,48
1,74,70,0
1,65,70,0
1,63,80,0
1,74,62,0
1,82,49,0
1,77,80,0
1,81,82,48
1,78,90,0
1,76,92,48
1,79,88,0
1,79,86,48
1,83,96,0
1,81,90,48
1,78,98,0
1,78,72,48
1,81,72,0
1,76,82,0
1,79,80,0
1,69,100,96
1,60,88,0
1,63,94,0
1,66,86,0
1,67,72,0
1,59,74,0
1,62,80,0
1,64,90,0
1,67,98,0
1,74,80,48
1,72,82,0
1,80,80,0
1,76,90,0
1,72,82,0
1,81,86,48
1,76,86,48
1,74,64,0
1,71,88,192
1,64,92,0
1,60,86,0
1,69,94,0
1,72,82,48
1,63,78,0
1,66,82,0
1,71,60,0
1,66,80,0
1,63,86,0
1,69,88,0
1,60,82,0
1,67,80,48
1,59,80,0
1,62,80,0
1,64,88,0
1,79,86,240
1,71,88,0
1,72,86,0
1,79,86,144
1,74,90,48
1,74,98,48
1,69,70,96
1,71,86,0
1,76,88,96
1,71,78,288
1,72,82,96
1,76,76,96
1,79,90,0
1,75,80,48
1,74,70,0
1,65,70,0
1,63,80,0
1,74,62,0
1,82,70,0
1,77,80,0
1,81,82,48
1,78,90,0
1,76,92,48
1,79,88,0
1,79,86,48
1,83,96,0
1,81,90,48
1,78,98,0
1,78,72,48
1,81,72,0
1,79,80,0
1,76,82,0
1,67,88,96
1,72,88,0
1,64,80,0
1,69,94,48
1,74,92,0
1,66,76,0
1,67,86,48
1,76,86,0
1,72,90,0
1,71,82,144
1,68,78,0
1,64,90,0
1,60,80,0
1,69,70,0
1,74,88,0
1,71,90,0
1,67,78,0
1,66,82,0
1,76,86,48
1,69,88,0
1,72,88,0
1,65,86,0
1,76,86,96
1,71,86,0
1,65,90,0
1,74,70,0
1,79,82,48
1,74,86,0
1,76,88,0
1,71,86,0
1,78,78,96
1,81,72,0
1,74,72,0
1,71,80,0
1,74,74,0
1,81,94,0
1,74,86,0
1,78,86,0
1,76,79,48
1,71,73,0
1,68,79,0
1,79,76,10
1,72,86,0
1,71,76,0
1,76,86,0
1,81,80,48
1,78,68,0
1,74,68,0
1,76,76,0
1,67,72,48
1,74,72,0
1,81,90,0
1,78,98,0
1,76,86,48
1,79,88,0
1,79,88,48
1,83,88,0
1,81,82,48
1,78,92,0
1,74,70,0
1,67,72,0
1,78,86,0
1,81,80,0
1,76,72,96
1,79,86,0
1,72,86,96
1,69,86,0
1,63,90,0
1,66,98,0
1,71,90,48
1,62,78,0
1,67,94,0
1,64,86,0
1,74,90,240
1,74,78,48
1,79,106,0
1,71,82,0
1,72,88,48
1,79,70,96
1,76,90,0
1,72,86,0
1,80,100,0
1,81,100,0
1,81,102,0
1,76,98,48
1,74,72,0
1,76,94,0
1,71,74,96
1,69,102,240
1,66,108,0
1,73,68,0
1,69,88,0
1,64,106,0
1,69,92,0
1,66,66,0
1,69,78,0
1,72,72,0
1,63,72,0
1,71,62,192
1,66,80,48
1,63,86,0
1,69,88,0
1,60,82,0
1,67,80,48
1,59,80,0
1,62,80,0
1,64,88,0
1,79,86,240
1,71,88,0
1,72,86,0
1,79,86,144
1,74,90,48
1,74,98,48
1,69,70,96
1,71,86,0
1,76,88,96
1,71,78,336
1,72,82,96
1,79,90,96
1,76,76,0
1,75,80,48
1,74,70,0
1,65,70,0
1,77,80,0
1,82,70,0
1,74,62,0
1,63,80,0
1,81,82,48
1,78,90,0
1,76,92,48
1,79,88,0
1,79,86,0
1,83,96,0
1,78,98,48
1,81,90,0
1,78,72,48
1,81,72,0
1,76,82,0
1,79,80,0
1,67,88,96
1,72,88,0
1,64,80,0
1,69,94,48
1,74,92,0
1,66,76,0
1,67,86,48
1,76,86,0
1,72,90,0
1,71,82,144
1,68,78,0
1,64,90,0
1,60,80,0
1,69,70,0
1,74,88,0
1,71,90,0
1,67,78,0
1,66,82,0
1,76,86,48
1,69,88,0
1,72,88,0
1,65,86,0
1,76,86,48
1,71,86,0
1,65,90,0
1,74,70,0
1,79,82,48
1,74,86,0
1,76,88,0
1,71,86,0
1,78,78,96
1,81,72,0
1,74,72,0
1,74,74,0
1,71,80,0
1,78,86,0
1,74,86,0
1,81,94,0
1,76,73,48
1,71,76,0
1,68,82,0
1,79,76,14
1,72,86,0
1,71,76,0
1,76,86,0
1,81,80,48
1,78,68,0
1,74,68,0
1,76,76,0
1,67,72,48
1,74,72,0
1,81,90,0
1,78,98,0
1,76,86,48
1,79,88,0
1,79,88,48
1,83,88,0
1,81,82,48
1,78,92,0
1,74,70,0
1,67,72,0
1,78,86,0
1,81,80,0
1,76,72,96
1,79,86,0
1,66,98,96
1,63,90,0
1,69,86,0
1,72,86,0
1,71,90,48
1,62,78,0
1,67,94,0
1,64,86,0
1,74,90,240
1,74,78,48
1,79,106,0
1,71,82,0
1,72,88,48
1,79,70,96
1,76,90,0
1,72,86,0
1,80,100,0
1,81,100,0
1,81,102,0
1,76,98,48
1,74,72,0
1,76,94,0
1,71,74,96
1,69,102,240
1,66,108,0
1,64,106,0
1,69,88,0
1,73,68,0
1,69,92,0
1,66,66,0
1,69,78,0
1,72,72,0
1,63,72,0
1,71,62,192
1,66,80,48
1,63,86,0
1,69,88,0
1,60,82,0
1,67,80,48
1,59,80,0
1,62,80,0
1,64,88,0
1,79,86,240
1,71,88,0
1,72,86,0
1,79,86,144
1,74,90,48
1,74,98,48
1,69,70,96
1,71,86,0
1,76,88,96
1,71,78,288
1,72,82,96
1,76,76,96
1,79,90,0
1,75,80,48
1,74,70,0
1,65,70,0
1,63,80,0
1,74,62,0
1,82,70,0
1,77,80,0
1,78,90,48
1,81,82,0
1,79,88,48
1,76,92,0
1,79,86,48
1,83,96,0
1,81,90,48
1,78,98,0
1,78,72,48
1,81,72,0
1,79,80,0
1,76,82,0
1,69,88,96
1,66,78,0
1,60,76,0
1,63,80,0
1,60,74,0
1,69,64,0
1,63,60,0
1,66,58,0
1,59,80,48
1,67,68,0
1,62,76,0
1,64,86,0
1,62,76,0
1,57,70,0
1,66,68,0
1,57,62,48
1,62,70,0
1,66,64,0
1,66,72,0
1,57,66,0
1,62,72,0
1,59,64,0
1,68,74,0
1,64,82,0
1,76,78,480
2,28,114,804
2,28,114,48
2,28,111,38
2,28,109,190
2,28,110,60
2,28,114,26
2,28,114,94
2,33,111,0
2,38,112,14
2,33,112,192
2,31,112,18
2,30,114,12
2,35,110,2
2,28,115,18
2,28,115,16
2,33,115,8
2,33,115,32
2,30,114,0
2,29,112,12
2,29,112,40
2,28,114,6
2,33,110,18
2,33,113,40
2,36,111,18
2,36,110,26
2,31,114,0
2,31,109,18
2,31,111,42
2,31,111,22
2,31,112,24
2,28,114,26
2,28,111,18
2,33,114,14
2,26,110,0
2,26,113,28
2,31,110,48
2,30,115,16
2,35,112,20
2,35,111,48
2,28,114,18
2,28,109,20
2,33,113,6
2,33,112,26
2,30,111,2
2,30,115,50
2,29,111,6
2,28,110,0
2,28,109,30
2,33,111,48
2,31,114,144
2,36,115,2
2,36,113,16
2,36,115,28
2,38,109,2
2,31,110,2
2,31,111,46
2,31,111,30
2,31,109,28
2,36,111,40
2,36,115,46
2,35,111,0
2,35,109,44
2,33,113,6
2,33,110,58
2,30,112,10
2,30,110,36
2,28,113,6
2,28,114,20
2,28,115,18
2,28,111,38
2,31,111,48
2,33,109,0
2,26,113,48
2,26,115,68
2,31,114,10
2,36,113,0
2,35,115,4
2,36,109,48
2,37,110,2
2,30,111,0
2,35,110,6
2,35,114,36
2,28,115,48
2,28,115,38
2,33,110,48
2,30,110,378
2,31,111,6
2,31,114,16
2,31,114,30
2,31,113,16
2,38,110,0
2,31,110,48
2,31,114,46
2,31,111,18
2,28,113,40
2,28,109,14
2,35,109,48
2,33,111,12
2,33,115,18
2,26,111,48
2,31,109,0
2,31,110,20
2,38,111,0
2,30,112,384
2,30,112,48
2,35,115,48
2,28,114,30
2,28,114,6
2,35,113,2
2,33,111,28
2,33,113,4
2,30,111,0
2,30,109,50
2,29,109,6
2,29,110,0
2,28,110,0
2,33,113,0
2,33,115,24
2,40,109,48
2,45,114,0
2,36,115,2
2,36,109,22
2,43,110,4
2,31,110,14
2,31,115,28
2,31,113,18
2,31,111,56
2,31,114,20
2,31,109,18
2,36,111,28
2,36,111,44
2,35,115,48
2,35,112,42
2,33,111,6
2,33,111,56
2,30,109,8
2,30,113,34
2,28,111,6
2,28,110,20
2,28,115,18
2,28,112,38
2,31,110,48
2,33,113,2
2,26,113,48
2,26,114,70
2,31,114,10
2,36,115,8
2,35,110,6
2,36,112,48
2,37,114,0
2,30,110,0
2,35,109,8
2,35,113,36
2,28,110,0
2,28,113,38
2,33,114,0
2,30,109,0
2,31,109,0
2,31,113,16
2,31,112,30
2,31,114,14
2,38,115,0
2,31,110,0
2,31,113,44
2,31,114,18
2,28,114,38
2,28,115,70
2,33,111,2
2,33,114,24
2,26,112,0
2,26,114,30
2,31,113,0
2,31,114,44
2,30,112,0
2,35,111,4
2,28,115,0
2,28,109,24
2,33,113,2
2,33,112,26
2,30,112,0
2,30,109,40
2,29,115,8
2,29,114,48
2,28,110,6
2,33,112,0
2,31,113,16
2,36,111,48
2,36,111,20
2,36,112,48
2,38,113,2
2,31,109,0
2,31,111,24
2,31,114,22
2,31,110,24
2,28,112,20
2,28,113,48
2,28,115,42
2,28,110,16
2,28,110,42
3,59,86,720
3,64,86,0
3,66,72,12
3,69,64,6
3,69,70,36
3,69,90,36
3,67,82,12
3,59,56,240
3,67,54,94
3,59,48,90
3,62,54,20
3,59,68,26
3,64,62,96
3,66,72,96
3,69,70,14
3,69,74,18
3,69,74,32
3,67,72,96
3,67,60,0
3,64,60,0
3,67,24,28
3,59,62,0
3,67,54,16
3,59,48,90
3,62,56,0
3,59,60,0
3,59,62,0
3,64,64,8
3,66,76,96
3,69,68,8
3,69,68,0
3,67,78,0
3,59,80,240
3,67,62,0
3,57,80,16
3,60,68,0
3,67,70,240
3,64,90,8
3,60,90,0
3,54,80,24
3,60,94,0
3,59,58,18
3,54,96,0
3,59,46,0
3,64,90,0
3,59,62,0
3,54,70,32
3,59,74,38
3,64,82,96
3,59,54,86
3,54,102,6
3,60,100,144
3,57,88,96
3,63,94,48
3,59,94,96
3,64,82,16
3,66,86,96
3,69,86,0
3,69,70,0
3,67,64,0
3,64,60,0
3,67,64,0
3,59,90,92
3,60,82,48
3,67,80,96
3,62,80,144
3,50,64,96
3,57,60,74
3,62,68,86
3,50,86,30
3,57,72,28
3,62,72,92
3,64,90,4
3,52,86,92
3,59,68,48
3,62,60,4
3,60,88,14
3,60,96,16
3,60,70,0
3,64,80,0
3,60,78,24
3,63,94,0
3,58,68,4
3,62,68,0
3,55,78,10
3,63,68,0
3,65,90,80
3,53,82,0
3,70,82,0
3,50,52,122
3,50,52,20
3,50,54,18
3,50,74,16
3,50,70,14
3,52,68,48
3,59,72,112
3,52,72,90
3,54,86,14
3,59,60,144
3,54,60,86
3,52,30,96
3,59,72,0
3,64,88,0
3,66,80,96
3,69,68,0
3,69,68,0
3,67,78,0
3,59,80,240
3,67,62,0
3,57,80,24
3,60,68,0
3,67,70,240
3,64,90,0
3,60,90,0
3,54,80,22
3,60,94,0
3,59,58,18
3,54,96,0
3,59,46,0
3,64,90,0
3,59,62,0
3,54,70,30
3,59,74,38
3,64,82,96
3,59,54,84
3,54,102,6
3,60,100,144
3,57,88,96
3,63,94,136
3,59,94,96
3,64,82,14
3,66,86,96
3,69,86,2
3,69,82,0
3,67,72,0
3,64,30,192
3,59,62,0
3,62,64,96
3,67,62,0
3,59,62,96
3,60,82,48
3,67,80,96
3,62,82,0
3,50,86,86
3,57,76,24
3,57,54,8
3,62,86,0
3,62,92,28
3,50,90,32
3,57,86,48
3,62,86,74
3,62,80,34
3,50,70,30
3,56,66,48
3,62,58,78
3,60,78,2
3,52,82,96
3,55,68,48
3,60,66,80
3,64,58,96
3,57,54,0
3,71,86,0
3,64,88,0
3,69,80,16
3,64,44,0
3,57,56,0
3,72,78,0
3,67,66,0
3,74,78,16
3,75,57,24
3,74,55,0
3,55,56,0
3,75,53,0
3,63,80,0
3,58,86,0
3,55,82,0
3,65,86,0
3,62,102,0
3,67,58,0
3,50,20,48
3,67,46,26
3,50,54,0
3,50,106,12
3,67,54,10
3,50,76,0
3,52,82,34
3,67,52,38
3,59,66,66
3,67,48,44
3,67,30,20
3,52,46,0
3,54,86,6
3,67,32,42
3,67,28,66
3,59,60,0
3,54,60,54
3,67,26,48
3,52,30,2
3,67,30,96
3,67,28,24
3,67,64,82
3,62,68,0
3,60,44,96
3,55,18,0
3,62,70,2
3,67,72,74
3,57,46,96
3,57,88,36
3,67,44,34
3,57,54,24
3,57,66,26
3,62,44,114
3,67,52,96
3,50,60,74
3,57,74,48
3,62,80,96
3,54,64,22
3,55,52,48
3,62,60,96
3,54,78,10
3,55,62,48
3,62,80,96
3,52,70,94
3,53,94,2
3,64,60,96
3,60,64,0
3,54,54,18
3,55,88,6
3,64,72,96
3,59,80,0
3,62,78,0
3,54,72,96
3,55,76,4
3,62,80,60
3,55,56,8
3,59,88,6
3,57,70,0
3,66,66,144
3,57,54,6
3,66,92,14
3,62,70,0
3,57,74,48
3,66,72,10
3,64,82,22
3,56,86,92
3,59,66,6
3,64,86,8
3,60,80,4
3,55,68,96
3,64,60,34
3,60,62,8
3,57,70,10
3,54,66,82
3,62,64,0
3,57,72,96
3,50,50,96
3,50,66,14
3,50,80,18
3,50,108,8
3,50,62,6
3,50,106,18
3,52,90,10
3,52,76,30
3,52,82,26
3,54,78,2
3,54,72,12
3,59,74,0
3,54,72,10
3,52,60,42
3,59,64,96
3,64,86,96
3,66,76,96
3,69,68,14
3,69,68,0
3,67,78,0
3,59,80,240
3,67,62,0
3,57,80,74
3,60,68,0
3,67,70,240
3,64,90,82
3,60,90,0
3,54,80,22
3,60,94,0
3,59,58,20
3,54,96,0
3,59,46,0
3,64,90,0
3,59,62,0
3,54,70,30
3,59,74,38
3,64,82,96
3,59,54,88
3,54,102,6
3,60,100,144
3,57,88,96
3,63,94,138
3,59,94,96
3,64,82,18
3,66,86,96
3,69,86,0
3,69,82,0
3,67,68,0
3,64,60,0
3,67,64,0
3,59,68,88
3,60,66,48
3,67,70,96
3,62,68,2
3,50,62,92
3,57,54,32
3,62,58,96
3,62,66,28
3,50,78,28
3,57,50,6
3,62,60,96
3,64,90,14
3,52,86,96
3,59,68,48
3,62,60,2
3,60,88,14
3,60,96,14
3,60,70,0
3,64,80,0
3,60,78,24
3,63,94,0
3,58,68,4
3,62,68,0
3,55,78,2
3,65,90,22
3,53,82,0
3,70,82,0
3,50,52,122
3,50,52,22
3,50,54,16
3,50,74,16
3,50,70,14
3,52,68,48
3,59,72,142
3,52,72,92
3,54,86,14
3,59,60,144
3,54,60,86
3,52,30,96
