track,note,velocity,time
0,35,113,0
0,49,64,0
0,42,98,0
0,42,66,185
0,42,98,0
0,40,100,0
0,42,68,185
0,35,102,65
0,35,107,0
0,42,98,0
0,35,113,185
0,42,67,0
0,42,98,0
0,40,100,0
0,35,113,170
0,42,68,0
0,35,113,0
0,42,98,0
0,42,66,185
0,42,98,0
0,40,100,0
0,42,68,185
0,35,102,65
0,35,107,0
0,42,98,0
0,35,113,185
0,42,67,0
0,42,98,0
0,40,100,0
0,35,113,170
0,42,68,0
0,35,113,0
0,42,98,0
0,42,66,0
0,42,98,0
0,40,100,0
0,42,68,185
0,35,102,65
0,35,107,0
0,42,98,0
0,35,113,185
0,42,67,0
0,42,98,0
0,40,100,0
0,35,113,170
0,42,68,0
0,35,113,0
0,42,98,0
0,42,66,0
0,42,98,0
0,40,100,0
0,42,68,185
0,40,30,5
0,40,38,5
0,40,52,5
0,35,107,5
0,39,105,0
0,44,113,0
0,35,113,185
0,46,106,0
0,40,30,5
0,40,50,5
0,40,65,5
0,42,98,5
0,40,85,0
0,40,108,65
0,35,113,305
0,49,64,0
0,42,98,0
0,67,68,185
0,42,66,0
0,79,82,5
0,67,82,0
0,77,70,128
0,65,70,0
0,65,68,7
0,54,64,0
0,42,98,0
0,40,100,0
0,76,58,170
0,64,58,0
0,64,70,0
0,42,68,0
0,77,82,133
0,65,82,0
0,65,70,17
0,42,98,0
0,77,68,7
0,65,68,0
0,65,68,20
0,42,67,0
0,54,64,147
0,42,98,0
0,40,100,0
0,76,55,168
0,64,55,0
0,64,60,17
0,42,68,0
0,77,70,147
0,65,70,0
0,65,80,15
0,42,98,0
0,76,50,5
0,64,50,0
0,64,58,7
0,42,66,0
0,77,70,153
0,65,70,0
0,65,70,7
0,54,64,0
0,42,98,0
0,40,100,0
0,79,56,30
0,67,56,0
0,67,70,17
0,42,77,0
0,42,63,19
0,79,92,53
0,67,92,0
0,67,96,12
0,44,96,0
0,42,52,47
0,79,96,170
0,67,96,0
0,67,84,15
0,54,64,0
0,42,98,0
0,40,100,0
0,42,68,10
0,42,98,0
0,79,66,90
0,67,66,0
0,67,78,0
0,42,66,0
0,77,66,90
0,65,66,0
0,65,70,0
0,54,64,0
0,42,98,0
0,40,100,0
0,76,56,50
0,64,56,0
0,64,60,7
0,42,68,0
0,77,68,138
0,65,68,0
0,65,74,17
0,42,98,0
0,76,66,3
0,64,66,0
0,64,48,4
0,42,67,0
0,77,68,125
0,65,68,0
0,65,78,25
0,54,64,0
0,42,98,0
0,40,100,0
0,79,64,87
0,67,64,0
0,67,74,0
0,42,68,0
0,79,69,98
0,67,69,0
0,42,98,0
0,67,92,0
0,78,19,15
0,66,19,0
0,77,23,0
0,65,23,0
0,76,23,2
0,64,23,0
0,42,66,0
0,75,27,10
0,63,27,0
0,74,24,2
0,62,24,0
0,73,25,7
0,61,25,0
0,54,64,0
0,42,98,0
0,40,100,0
0,42,68,185
0,40,35,5
0,40,50,5
0,40,67,5
0,67,102,5
0,43,106,0
0,79,102,0
0,42,98,0
0,40,100,0
0,31,61,70
0,41,61,10
0,67,100,0
0,43,109,0
0,79,109,0
0,54,64,0
0,49,64,0
0,40,100,0
0,29,61,25
0,35,113,0
0,57,53,0
0,42,98,0
0,31,42,185
0,42,66,0
0,67,59,0
0,65,65,0
0,60,75,0
0,70,71,172
0,60,79,0
0,65,71,0
0,74,64,0
0,79,88,0
0,42,98,0
0,40,100,0
0,74,66,5
0,79,68,0
0,74,68,0
0,79,78,0
0,65,59,0
0,67,59,0
0,60,73,0
0,42,68,0
0,31,42,2
0,35,67,0
0,74,101,0
0,79,92,0
0,29,53,37
0,60,75,0
0,70,73,0
0,65,67,0
0,35,107,0
0,42,98,0
0,31,61,185
0,35,113,0
0,42,67,0
0,65,63,0
0,67,65,0
0,60,73,0
0,34,61,180
0,70,71,0
0,60,67,0
0,65,81,0
0,54,64,0
0,42,98,0
0,40,100,0
0,36,46,185
0,35,113,0
0,42,68,0
0,65,69,0
0,67,69,0
0,60,87,0
0,29,61,175
0,70,67,0
0,65,65,0
0,60,71,0
0,35,113,0
0,42,98,0
0,31,61,185
0,42,66,0
0,67,65,0
0,65,63,0
0,60,77,0
0,70,75,182
0,65,71,0
0,60,89,0
0,74,58,0
0,79,74,0
0,42,98,0
0,40,100,0
0,74,78,5
0,79,74,0
0,74,74,5
0,79,88,0
0,60,85,0
0,65,69,0
0,67,69,0
0,42,68,0
0,31,58,2
0,35,67,0
0,74,114,0
0,79,90,0
0,29,56,32
0,70,85,0
0,60,81,0
0,65,65,0
0,35,107,0
0,42,98,0
0,30,52,185
0,35,113,0
0,42,67,0
0,65,69,0
0,67,69,0
0,60,85,0
0,31,61,180
0,70,67,0
0,60,73,0
0,65,69,0
0,54,64,0
0,42,98,0
0,40,100,0
0,35,113,185
0,42,68,0
0,67,69,0
0,60,87,0
0,65,73,0
0,29,61,182
0,60,87,0
0,65,71,0
0,70,75,0
0,35,113,0
0,42,98,0
0,31,61,185
0,42,66,0
0,65,69,0
0,67,67,0
0,60,81,0
0,67,65,150
0,62,65,0
0,57,65,0
0,72,66,0
0,77,74,0
0,42,98,0
0,40,100,0
0,77,66,2
0,72,66,0
0,72,70,5
0,77,78,0
0,65,69,0
0,60,77,0
0,67,67,0
0,42,68,0
0,31,48,12
0,35,67,0
0,72,98,0
0,77,88,0
0,29,58,42
0,62,77,0
0,57,77,0
0,67,81,0
0,35,107,0
0,42,98,0
0,31,52,22
0,35,113,0
0,42,67,0
0,67,67,0
0,60,77,0
0,65,69,0
0,34,59,117
0,62,69,0
0,57,77,0
0,67,75,0
0,54,64,0
0,42,98,0
0,40,100,0
0,36,49,185
0,35,113,0
0,42,68,0
0,60,73,0
0,65,67,0
0,67,59,0
0,29,61,0
0,67,79,0
0,57,77,0
0,62,69,0
0,35,113,0
0,42,98,0
0,31,52,0
0,42,66,0
0,65,65,0
0,67,59,0
0,60,67,0
0,34,59,120
0,72,85,0
0,62,77,0
0,67,69,0
0,77,88,0
0,72,86,0
0,42,98,0
0,40,100,0
0,77,68,2
0,72,76,0
0,72,60,5
0,77,82,0
0,67,65,0
0,60,75,0
0,65,69,0
0,42,68,0
0,35,67,5
0,77,88,0
0,72,98,0
0,29,61,22
0,72,77,0
0,62,67,0
0,67,63,0
0,35,107,0
0,42,98,0
0,40,66,65
0,31,61,32
0,35,113,0
0,40,60,0
0,48,111,0
0,67,53,0
0,60,63,0
0,65,55,0
0,40,66,10
0,36,61,65
0,72,85,0
0,62,69,0
0,67,65,0
0,42,98,0
0,40,92,0
0,40,100,65
0,35,113,65
0,42,75,0
0,67,37,0
0,60,57,0
0,65,41,0
0,72,58,10
0,62,58,0
0,67,58,0
0,67,92,2
0,29,61,0
0,35,113,0
0,49,64,0
0,42,98,0
0,31,42,185
0,42,66,0
0,72,113,0
0,77,109,0
0,67,119,0
0,65,88,2
0,42,98,0
0,40,100,0
0,62,36,0
0,67,60,0
0,62,38,5
0,67,40,0
0,64,66,2
0,62,40,0
0,67,50,0
0,42,68,0
0,69,97,0
0,74,105,0
0,79,105,0
0,31,42,15
0,35,67,0
0,62,80,0
0,67,81,0
0,29,53,37
0,65,80,0
0,35,107,0
0,42,98,0
0,31,61,112
0,65,78,0
0,35,113,0
0,42,67,0
0,77,101,0
0,72,99,0
0,67,101,0
0,34,61,132
0,42,98,0
0,40,100,0
0,36,46,185
0,64,66,0
0,35,113,0
0,42,68,0
0,76,71,0
0,72,101,0
0,82,103,0
0,29,61,177
0,65,84,0
0,35,113,0
0,42,98,0
0,31,61,2
0,64,58,0
0,42,66,0
0,82,103,0
0,72,97,0
0,77,101,0
0,65,92,157
0,42,98,0
0,40,100,0
0,62,30,0
0,67,46,0
0,62,50,5
0,67,46,0
0,67,78,5
0,62,46,0
0,67,60,0
0,42,68,0
0,72,87,0
0,77,97,0
0,82,91,0
0,31,58,5
0,35,67,0
0,62,86,0
0,67,82,0
0,29,56,32
0,65,92,0
0,35,107,0
0,42,98,0
0,30,52,185
0,64,56,0
0,35,113,0
0,42,67,0
0,72,101,0
0,77,105,0
0,82,91,0
0,62,32,30
0,31,61,7
0,64,78,0
0,42,98,0
0,40,100,0
0,35,113,20
0,42,68,0
0,72,83,0
0,82,79,0
0,77,83,0
0,29,61,185
0,35,113,0
0,42,98,0
0,31,61,185
0,62,66,0
0,42,66,0
0,79,93,0
0,74,83,0
0,69,87,0
0,60,88,115
0,42,98,0
0,40,100,0
0,60,38,0
0,65,46,0
0,65,38,2
0,60,38,0
0,58,44,5
0,60,42,0
0,65,50,0
0,42,68,0
0,79,105,0
0,69,101,0
0,74,97,0
0,31,48,27
0,35,67,0
0,60,90,0
0,65,80,0
0,29,58,42
0,60,92,0
0,35,107,0
0,42,98,0
0,31,52,22
0,60,80,0
0,35,113,0
0,42,67,0
0,79,101,0
0,69,97,0
0,74,101,0
0,34,59,127
0,42,98,0
0,40,100,0
0,36,49,185
0,58,44,0
0,35,113,0
0,42,68,0
0,74,105,0
0,79,105,0
0,69,97,0
0,29,61,167
0,60,92,0
0,35,113,0
0,42,98,0
0,31,52,5
0,58,14,0
0,42,66,0
0,79,101,0
0,84,101,0
0,74,97,0
0,34,59,155
0,60,92,0
0,42,98,0
0,40,100,0
0,65,60,0
0,60,58,0
0,65,40,2
0,60,48,0
0,58,10,5
0,60,32,0
0,65,54,0
0,42,68,0
0,84,91,0
0,79,105,0
0,74,101,0
0,60,68,35
0,35,67,0
0,65,80,0
0,60,90,0
0,29,61,22
0,35,107,0
0,42,94,0
0,58,44,35
0,31,61,32
0,35,113,0
0,42,68,0
0,79,113,0
0,74,101,0
0,36,61,130
0,42,98,0
0,40,100,0
0,35,113,155
0,46,75,0
0,79,119,0
0,74,119,0
0,84,113,0
0,67,92,12
0,29,61,3
0,35,113,0
0,42,98,0
0,72,113,182
0,77,109,0
0,67,119,0
0,31,42,3
0,42,66,0
0,65,84,182
0,42,98,3
0,40,100,0
0,62,36,0
0,67,60,0
0,62,38,5
0,67,40,0
0,64,70,4
0,79,105,0
0,69,97,0
0,74,105,0
0,62,40,2
0,67,50,0
0,42,68,0
0,31,42,15
0,35,67,0
0,62,80,0
0,67,81,0
0,65,92,34
0,29,53,3
0,35,107,0
0,42,98,0
0,65,78,85
0,67,101,0
0,72,99,0
0,77,101,0
0,31,61,3
0,35,113,0
0,42,67,0
0,34,61,135
0,42,98,0
0,40,100,0
0,64,60,182
0,76,71,0
0,72,101,0
0,82,103,0
0,36,46,3
0,35,113,0
0,42,68,0
0,65,92,165
0,29,61,3
0,35,113,0
0,42,98,0
0,64,74,20
0,82,103,0
0,72,97,0
0,77,101,0
0,31,61,3
0,42,66,0
0,65,88,155
0,42,98,3
0,40,100,0
0,62,30,0
0,67,46,0
0,62,50,5
0,67,46,0
0,67,66,2
0,72,87,0
0,77,97,0
0,82,91,0
0,62,46,3
0,67,60,0
0,42,68,0
0,31,58,13
0,35,67,0
0,62,86,0
0,67,82,0
0,65,88,29
0,29,56,3
0,35,107,0
0,42,98,0
0,64,56,182
0,72,101,0
0,77,105,0
0,82,91,0
0,30,52,3
0,35,113,0
0,42,67,0
0,62,66,80
0,31,61,3
0,42,98,0
0,40,100,0
0,64,66,22
0,72,83,120
0,82,79,0
0,77,83,0
0,35,113,3
0,42,68,0
0,29,61,73
0,35,113,0
0,42,98,0
0,62,88,182
0,79,93,0
0,74,83,0
0,69,87,0
0,31,61,3
0,42,66,0
0,60,88,137
0,42,98,3
0,40,100,0
0,60,38,0
0,65,46,0
0,65,38,2
0,60,38,0
0,58,28,2
0,79,105,0
0,69,101,0
0,74,97,0
0,60,42,3
0,65,50,0
0,42,68,0
0,31,48,27
0,35,67,0
0,60,90,0
0,65,80,0
0,29,58,42
0,35,107,0
0,42,98,0
0,62,88,19
0,79,101,0
0,69,97,0
0,74,101,0
0,31,52,3
0,35,113,0
0,42,67,0
0,60,84,137
0,34,59,3
0,42,98,0
0,40,100,0
0,58,8,47
0,74,105,0
0,79,105,0
0,69,97,0
0,36,49,3
0,35,113,0
0,42,68,0
0,60,96,0
0,29,61,3
0,35,113,0
0,42,98,0
0,58,28,0
0,79,101,0
0,84,101,0
0,74,97,0
0,31,52,3
0,42,66,0
0,60,96,120
0,34,59,3
0,42,98,0
0,40,100,0
0,65,60,0
0,60,58,0
0,65,40,2
0,60,48,0
0,58,24,2
0,84,91,0
0,79,105,0
0,74,101,0
0,60,32,3
0,65,54,0
0,42,68,0
0,60,92,42
0,35,67,3
0,65,80,0
0,60,90,0
0,29,61,22
0,35,107,0
0,42,98,0
0,58,48,52
0,79,113,29
0,74,101,0
0,31,61,3
0,35,113,0
0,42,67,0
0,40,86,58
0,36,61,20
0,42,98,0
0,40,104,0
0,79,119,182
0,74,119,0
0,69,113,0
0,35,113,3
0,38,59,9
0,67,100,0
0,35,113,0
0,49,64,0
0,42,98,0
0,69,125,0
0,57,83,5
0,42,66,185
0,65,92,0
0,42,98,0
0,40,100,0
0,60,83,0
0,71,125,0
0,53,73,5
0,42,68,2
0,64,62,0
0,35,67,42
0,62,92,0
0,35,107,0
0,42,98,0
0,72,121,0
0,31,56,0
0,60,93,140
0,35,113,12
0,42,67,0
0,33,44,5
0,64,84,57
0,53,37,13
0,36,56,5
0,42,98,0
0,40,100,0
0,71,121,0
0,38,44,10
0,35,113,17
0,46,81,0
0,57,51,68
0,60,61,32
0,34,33,29
0,67,65,5
0,35,113,0
0,42,98,0
0,60,66,0
0,72,127,0
0,29,44,0
0,57,63,20
0,65,66,40
0,42,66,0
0,60,67,3
0,42,98,17
0,40,100,0
0,64,76,0
0,65,76,2
0,42,68,0
0,55,57,10
0,35,67,22
0,59,73,10
0,64,85,14
0,36,38,13
0,35,107,0
0,42,98,0
0,62,72,0
0,67,121,0
0,31,52,0
0,62,63,10
0,67,68,42
0,35,113,0
0,42,67,0
0,55,67,145
0,57,53,20
0,42,98,0
0,40,100,0
0,64,72,0
0,59,43,175
0,67,72,10
0,35,113,0
0,42,68,0
0,67,100,0
0,35,113,0
0,42,98,0
0,69,127,0
0,38,56,3
0,57,83,3
0,42,66,22
0,60,89,85
0,42,98,27
0,40,100,0
0,65,88,0
0,71,125,0
0,53,75,163
0,64,46,2
0,42,68,0
0,35,67,65
0,62,88,7
0,35,107,0
0,42,98,0
0,72,127,0
0,31,52,10
0,60,79,158
0,33,44,22
0,35,113,5
0,42,67,0
0,64,70,47
0,53,53,0
0,42,98,2
0,40,100,0
0,71,121,0
0,36,56,3
0,38,44,0
0,35,113,9
0,46,80,0
0,57,51,25
0,60,75,93
0,34,44,29
0,35,113,5
0,42,98,0
0,60,64,0
0,72,127,0
0,67,61,10
0,65,63,3
0,29,44,0
0,65,66,49
0,42,66,0
0,57,51,13
0,42,98,7
0,40,100,0
0,64,68,0
0,65,66,64
0,44,86,0
0,55,71,30
0,59,61,40
0,64,89,82
0,36,44,22
0,35,107,0
0,42,98,0
0,62,66,0
0,67,107,0
0,31,52,10
0,48,98,37
0,62,73,3
0,45,93,47
0,67,76,0
0,41,82,10
0,55,79,33
0,40,84,7
0,40,106,20
0,64,74,0
0,59,73,160
0,67,68,25
0,35,113,0
0,29,61,0
0,67,96,0
0,35,113,0
0,49,64,0
0,42,98,0
0,72,116,120
0,77,112,0
0,67,122,0
0,31,42,0
0,42,66,0
0,65,92,77
0,42,98,0
0,40,100,0
0,62,41,0
0,67,65,0
0,62,43,5
0,67,45,0
0,64,46,2
0,62,45,0
0,67,55,0
0,42,68,0
0,79,108,0
0,69,100,0
0,74,108,0
0,31,42,15
0,35,67,0
0,62,85,0
0,67,86,0
0,29,53,37
0,65,88,0
0,35,107,0
0,42,98,0
0,31,61,65
0,64,68,0
0,35,113,0
0,42,67,0
0,67,101,0
0,72,99,0
0,77,101,0
0,34,61,172
0,65,80,0
0,42,98,0
0,40,100,0
0,36,46,102
0,35,113,0
0,42,68,0
0,76,74,0
