track,note,velocity,time
0,31,77,88
0,43,98,0
0,55,67,0
0,55,102,0
0,62,69,20
0,62,94,0
0,55,0,55
0,44,99,3
0,67,102,0
0,67,107,0
0,62,0,2
0,44,0,8
0,62,81,28
0,62,87,0
0,43,77,8
0,55,81,0
0,55,104,0
0,62,0,12
0,43,0,48
0,62,85,13
0,62,80,0
0,67,0,0
0,31,0,95
0,62,0,122
0,62,0,20
0,44,79,3
0,67,102,0
0,67,107,0
0,44,0,10
0,55,0,210
0,62,87,20
0,62,100,0
0,67,0,25
0,28,81,3
0,40,92,0
0,55,81,0
0,55,102,0
0,62,85,0
0,62,85,0
0,44,99,3
0,67,102,0
0,67,107,0
0,44,0,10
0,40,0,25
0,28,0,17
0,62,94,10
0,62,88,0
0,24,84,20
0,36,94,0
0,55,85,0
0,55,98,0
0,62,0,2
0,62,76,8
0,62,87,0
0,24,0,135
0,36,0,37
0,62,0,50
0,62,0,13
0,44,79,5
0,67,96,0
0,67,110,0
0,44,0,10
0,67,0,205
0,55,0,12
0,62,92,13
0,62,96,0
0,31,85,8
0,43,94,0
0,55,81,0
0,55,102,0
0,62,87,20
0,62,94,0
0,67,0,10
0,62,0,217
0,44,99,13
0,67,92,0
0,67,104,0
0,44,0,10
0,62,0,12
0,62,90,3
0,67,0,0
0,62,92,0
0,62,0,225
0,43,77,15
0,55,75,0
0,55,104,0
0,62,0,7
0,43,0,53
0,62,87,10
0,62,87,0
0,62,0,215
0,31,0,20
0,44,79,5
0,67,102,0
0,67,107,0
0,44,0,10
0,62,0,0
0,55,0,185
0,67,0,25
0,62,94,20
0,62,96,0
0,28,87,20
0,40,92,0
0,55,81,0
0,55,102,0
0,62,0,27
0,62,76,18
0,62,90,0
0,62,0,207
0,62,0,30
0,44,99,3
0,67,98,0
0,67,107,0
0,44,0,10
0,40,0,105
0,28,0,20
0,55,0,65
0,67,0,27
0,62,94,13
0,62,100,0
0,24,80,8
0,36,90,0
0,55,82,0
0,55,102,0
0,62,0,37
0,62,87,10
0,62,94,0
0,24,0,210
0,62,0,12
0,36,0,10
0,62,0,3
0,44,79,5
0,67,94,0
0,67,107,0
0,44,0,10
0,55,0,195
0,67,0,7
0,62,98,28
0,62,98,0
0,31,87,10
0,43,100,0
0,55,80,0
0,55,107,0
0,62,0,25
0,62,74,3
0,62,90,0
0,62,0,195
0,62,0,32
0,44,99,13
0,67,94,0
0,67,102,0
0,44,0,10
0,43,0,22
0,67,0,203
0,55,0,2
0,62,87,3
0,62,90,0
0,43,107,33
0,55,75,0
0,55,104,0
0,62,0,57
0,43,0,20
0,55,0,98
0,62,75,13
0,62,96,0
0,67,0,0
0,31,0,115
0,62,0,105
0,44,79,20
0,67,98,0
0,67,100,0
0,62,0,7
0,44,0,3
0,55,0,175
0,83,125,22
0,62,94,5
0,62,96,0
0,28,82,20
0,40,92,0
0,55,92,0
0,55,100,0
0,62,0,7
0,55,0,203
0,62,88,8
0,62,92,0
0,62,0,212
0,62,0,20
0,44,99,8
0,67,90,0
0,67,102,0
0,44,0,10
0,62,90,5
0,62,96,0
0,28,0,2
0,24,85,3
0,36,96,0
0,55,85,0
0,55,100,0
0,81,87,13
0,67,0,0
0,83,0,5
0,62,78,10
0,62,92,0
0,79,91,95
0,81,0,15
0,79,0,77
0,62,0,13
0,78,95,7
0,24,0,23
0,44,79,10
0,67,88,0
0,62,0,0
0,67,106,0
0,44,0,10
0,36,0,12
0,78,0,48
0,76,95,20
0,76,0,70
0,55,0,25
0,67,0,35
0,67,0,2
0,74,114,3
0,62,94,15
0,62,100,0
0,31,94,8
0,43,104,0
0,55,78,0
0,55,104,0
0,62,0,30
0,74,0,112
0,62,75,30
0,62,100,0
0,44,99,8
0,67,88,0
0,67,100,0
0,44,0,10
0,43,0,152
0,55,0,58
0,67,0,15
0,62,88,5
0,62,96,0
0,43,96,25
0,55,84,0
0,55,100,0
0,62,0,95
0,71,110,50
0,62,92,5
0,62,94,0
0,67,0,7
0,71,0,28
0,71,97,70
0,71,0,62
0,43,0,15
0,62,0,10
0,72,110,28
0,44,79,20
0,31,0,0
0,67,92,0
0,62,0,0
0,67,106,0
0,44,0,10
0,72,0,25
0,72,110,67
0,72,0,55
0,55,0,45
0,67,0,23
0,72,112,12
0,62,88,3
0,62,98,0
0,28,87,18
0,40,102,0
0,55,87,0
0,55,107,0
0,62,0,27
0,67,0,5
0,72,0,48
0,71,95,20
0,62,88,28
0,62,107,0
0,71,0,97
0,44,99,5
0,67,96,0
0,67,106,0
0,44,0,10
0,40,0,152
0,28,0,28
0,55,0,30
0,62,84,20
0,62,102,0
0,67,0,105
0,24,78,18
0,36,90,0
0,55,90,0
0,55,107,0
0,62,87,18
0,62,96,0
0,67,104,5
0,67,0,40
0,67,104,62
0,67,0,65
0,62,0,25
0,24,0,15
0,36,0,8
0,69,110,5
0,44,79,15
0,67,85,0
0,67,112,0
0,62,0,2
0,44,0,8
0,69,0,32
0,69,102,63
0,69,0,55
0,55,0,32
0,67,0,38
0,69,117,7
0,62,88,3
0,62,100,0
0,31,87,10
0,43,100,0
0,55,80,0
0,55,107,0
0,67,111,15
0,62,0,10
0,67,0,0
0,62,74,28
0,62,90,0
0,67,0,165
0,62,0,30
0,62,0,32
0,44,99,13
0,67,94,0
0,67,102,0
0,44,0,10
0,43,0,22
0,67,0,203
0,55,0,2
0,62,87,3
0,62,90,0
0,43,107,33
0,55,75,0
0,55,104,0
0,62,0,57
0,43,0,20
0,55,0,98
0,62,75,13
0,62,96,0
0,67,0,0
0,31,0,115
0,62,0,105
0,76,125,20
0,44,79,0
0,67,98,0
0,67,100,0
0,62,0,7
0,44,0,3
0,76,0,67
0,55,0,108
0,79,125,50
0,67,0,0
0,62,94,5
0,62,96,0
0,46,75,120
0,46,0,10
0,42,55,20
0,28,82,0
0,40,92,0
0,55,92,0
0,55,100,0
0,62,0,7
0,42,0,3
0,83,125,10
0,62,88,8
0,62,92,0
0,44,99,8
0,54,97,0
0,67,90,0
0,67,102,0
0,44,0,10
0,54,0,0
0,55,0,175
0,40,0,37
0,67,0,13
0,62,90,5
0,62,96,0
0,28,0,2
0,24,85,3
0,36,96,0
0,55,85,0
0,55,100,0
0,81,88,12
0,62,78,10
0,62,92,0
0,83,0,7
0,79,88,100
0,81,0,20
0,62,0,73
0,79,0,10
0,78,93,10
0,24,0,10
0,44,79,10
0,67,88,0
0,62,0,0
0,67,106,0
0,44,0,10
0,36,0,12
0,78,0,50
0,76,98,15
0,76,0,68
0,55,0,30
0,67,0,35
0,74,112,2
0,67,0,0
0,62,94,18
0,62,100,0
0,31,94,8
0,43,104,0
0,55,78,0
0,55,104,0
0,62,0,30
0,74,0,47
0,62,75,30
0,62,100,0
0,44,99,8
0,67,88,0
0,67,100,0
0,44,0,10
0,43,0,152
0,55,0,58
0,67,0,15
0,62,88,5
0,62,96,0
0,43,96,25
0,55,84,0
0,55,100,0
0,62,0,95
0,62,92,55
0,62,94,0
0,71,97,5
0,67,0,2
0,71,0,38
0,71,97,62
0,71,0,60
0,43,0,15
0,62,0,10
0,72,106,30
0,44,79,18
0,31,0,0
0,67,92,0
0,62,0,0
0,67,106,0
0,44,0,10
0,72,0,22
0,72,108,65
0,72,0,55
0,55,0,50
0,67,0,23
0,72,120,5
0,62,88,10
0,62,98,0
0,28,87,18
0,40,102,0
0,55,87,0
0,55,107,0
0,71,97,10
0,62,88,28
0,62,107,0
0,71,0,32
0,44,99,5
0,54,97,0
0,67,96,0
0,67,106,0
0,44,0,10
0,54,0,0
0,40,0,152
0,28,0,28
0,55,0,30
0,62,84,20
0,62,102,0
0,67,0,105
0,54,67,18
0,24,78,0
0,36,90,0
0,55,90,0
0,55,107,0
0,54,0,10
0,67,102,15
0,62,87,3
0,62,96,0
0,67,0,40
0,67,92,62
0,67,0,58
0,62,0,37
0,24,0,15
0,69,104,3
0,36,0,5
0,44,79,20
0,67,85,0
0,67,112,0
0,62,0,2
0,44,0,8
0,69,0,22
0,69,100,58
0,69,0,57
0,55,0,45
0,69,120,30
0,67,0,8
0,62,88,10
0,62,100,0
0,31,87,15
0,43,100,0
0,55,80,0
0,55,107,0
0,62,0,25
0,67,0,0
0,67,97,5
0,62,74,28
0,62,90,0
0,67,0,27
0,62,0,168
0,62,0,32
0,44,99,13
0,67,94,0
0,67,102,0
0,44,0,10
0,43,0,22
0,67,0,203
0,55,0,2
0,62,87,3
0,62,90,0
0,43,107,33
0,55,75,0
0,55,104,0
0,62,0,57
0,43,0,20
0,55,0,98
0,62,75,13
0,62,96,0
0,67,0,0
0,31,0,115
0,67,91,35
0,67,0,65
0,62,0,5
0,44,79,20
0,67,98,0
0,67,100,0
0,67,98,5
0,62,0,2
0,44,0,3
0,67,0,57
0,67,95,50
0,67,0,50
0,55,0,18
0,67,98,50
0,67,0,0
0,46,75,5
0,62,94,0
0,62,96,0
0,46,0,10
0,67,0,57
0,67,102,38
0,71,117,15
0,42,61,5
0,81,65,0
0,55,96,0
0,67,86,0
0,28,82,0
0,40,92,0
0,55,92,0
0,55,100,0
0,62,0,7
0,42,0,3
0,81,0,0
0,71,0,190
0,55,0,10
0,62,88,8
0,74,78,0
0,62,88,0
0,62,92,0
0,71,117,22
0,55,0,3
0,67,0,0
0,44,99,8
0,54,97,0
0,67,90,0
0,79,80,0
0,67,90,0
0,67,102,0
0,44,0,10
0,54,0,0
0,62,0,5
0,74,0,0
0,71,120,58
0,55,0,50
0,40,0,37
0,67,0,13
0,67,0,2
0,79,0,0
0,62,88,3
0,74,78,0
0,62,90,0
0,62,96,0
0,28,0,2
0,71,0,33
0,71,100,82
0,72,122,10
0,62,0,0
0,54,74,3
0,55,94,0
0,67,84,0
0,24,85,0
0,36,96,0
0,55,85,0
0,55,100,0
0,54,0,10
0,62,88,10
0,74,78,0
0,62,78,0
0,62,92,0
0,72,0,7
0,55,0,5
0,67,0,0
0,74,120,70
0,62,0,118
0,24,0,30
0,44,79,10
0,54,54,0
0,67,88,0
0,79,78,0
0,67,88,0
0,62,0,0
0,67,106,0
0,44,0,10
0,54,0,0
0,62,0,2
0,74,0,0
0,36,0,10
0,55,0,163
0,67,0,35
0,67,0,2
0,62,90,18
0,67,0,0
0,74,80,0
0,79,0,0
0,62,94,0
0,62,100,0
0,55,96,8
0,67,86,0
0,31,94,0
0,43,104,0
0,55,78,0
0,55,104,0
0,62,0,2
0,74,0,0
0,62,0,28
0,62,88,30
0,74,78,0
0,62,75,0
0,62,100,0
0,55,0,25
0,67,0,0
0,44,99,8
0,67,90,0
0,79,80,0
0,67,88,0
0,67,100,0
0,44,0,10
0,62,0,5
0,74,0,0
0,43,0,147
0,55,0,58
0,67,0,15
0,67,0,2
0,79,0,0
0,62,88,3
0,74,78,0
0,62,88,0
0,62,96,0
0,55,94,13
0,67,84,0
0,43,96,0
0,55,84,0
0,55,100,0
0,62,0,95
0,62,88,55
0,74,78,0
0,62,92,0
0,62,94,0
0,67,0,7
0,55,0,5
0,67,0,0
0,67,98,133
0,43,0,37
0,62,0,10
0,67,0,18
0,44,79,30
0,67,88,0
0,79,78,0
0,31,0,0
0,67,92,0
0,62,0,0
0,67,106,0
0,67,95,7
0,44,0,3
0,62,0,2
0,74,0,0
0,67,0,50
0,67,98,63
0,67,0,52
0,55,0,25
0,46,75,13
0,46,0,10
0,67,0,0
0,67,98,7
0,62,90,8
0,67,0,0
0,74,80,0
0,79,0,0
0,62,88,0
0,62,98,0
0,67,0,60
0,67,100,45
0,42,61,45
0,62,0,7
0,42,0,3
0,71,122,2
0,55,96,13
0,67,86,0
0,28,87,0
0,40,102,0
0,55,87,0
0,55,107,0
0,62,0,2
0,74,0,0
0,62,0,25
0,67,0,5
0,62,88,28
0,74,78,0
0,62,88,0
0,62,107,0
0,55,0,25
0,67,0,0
0,71,122,7
0,44,99,5
0,54,97,0
0,67,90,0
0,79,80,0
0,67,96,0
0,67,106,0
0,44,0,10
0,54,0,0
0,62,0,5
0,74,0,0
0,71,0,30
0,69,120,85
0,40,0,32
0,28,0,28
0,55,0,30
0,67,0,17
0,79,0,0
0,62,88,3
0,74,78,0
0,62,84,0
0,62,102,0
0,69,0,40
0,67,0,65
0,67,108,7
0,67,0,55
0,54,74,13
0,55,94,0
0,67,84,0
0,24,78,0
0,36,90,0
0,55,90,0
0,55,107,0
0,69,117,2
0,62,88,18
0,74,78,0
0,62,87,0
0,62,96,0
0,55,0,12
0,67,0,0
0,69,0,28
0,67,106,55
0,62,0,102
0,24,0,15
0,36,0,8
0,44,79,20
0,54,54,0
0,67,88,0
0,79,78,0
0,67,85,0
0,67,112,0
0,62,0,2
0,44,0,8
0,54,0,0
0,62,0,2
0,74,0,0
0,55,0,180
0,67,0,38
0,62,90,10
0,67,0,0
0,74,80,0
0,79,0,0
0,62,88,0
0,62,100,0
0,55,96,15
0,67,86,0
0,31,87,0
0,43,100,0
0,55,80,0
0,55,107,0
0,62,0,2
0,74,0,0
0,62,0,23
0,67,0,0
0,62,88,28
0,74,78,0
0,62,74,0
0,62,90,0
0,55,0,25
0,67,0,0
0,62,0,170
0,62,0,32
0,44,99,13
0,67,90,0
0,79,80,0
0,67,94,0
0,67,102,0
0,44,0,10
0,62,0,5
0,74,0,0
0,43,0,17
0,67,0,33
0,67,0,170
0,67,0,2
0,79,0,0
0,55,0,0
0,62,88,3
0,74,78,0
0,62,87,0
0,62,90,0
0,41,55,7
0,41,0,10
0,41,73,68
0,41,0,10
0,41,91,70
0,41,0,10
0,41,109,13
0,55,94,0
0,67,84,0
0,43,107,0
0,55,75,0
0,55,104,0
0,41,0,10
0,62,0,47
0,43,0,20
0,55,0,98
0,62,88,13
0,74,78,0
0,62,75,0
0,62,96,0
0,67,0,0
0,55,0,12
0,67,0,0
0,31,0,103
0,62,0,105
0,76,120,17
0,44,79,3
0,67,88,0
0,79,78,0
0,67,98,0
0,67,100,0
0,62,0,7
0,44,0,3
0,62,0,2
0,74,0,0
0,46,67,108
0,76,0,7
0,46,0,3
0,55,0,55
0,67,0,50
0,46,75,5
0,62,90,0
0,67,0,0
0,74,80,0
0,79,0,0
0,62,94,0
0,62,96,0
0,79,122,2
0,46,0,8
0,42,66,20
0,55,96,0
0,67,86,0
0,28,82,0
0,40,92,0
0,55,92,0
0,55,100,0
0,62,0,2
0,74,0,0
0,62,0,5
0,42,0,3
0,79,0,102
0,55,0,98
0,62,88,8
0,74,78,0
0,62,88,0
0,62,92,0
0,55,0,25
0,67,0,0
0,62,0,187
0,44,99,8
0,54,97,0
0,67,90,0
0,79,80,0
0,67,90,0
0,67,102,0
0,83,127,7
0,44,0,3
0,54,0,0
0,62,88,3
0,74,78,0
0,62,90,0
0,62,96,0
0,28,0,2
0,54,74,3
0,55,94,0
0,67,84,0
0,24,85,0
0,36,96,0
0,55,85,0
0,55,100,0
0,81,97,10
0,62,88,0
0,74,78,0
0,62,78,0
0,62,92,0
0,83,0,7
0,55,0,5
0,67,0,0
0,79,91,103
0,81,0,20
0,62,0,65
0,79,0,25
0,24,0,5
0,78,104,2
0,44,79,8
0,54,54,0
0,67,88,0
0,79,78,0
0,67,88,0
0,62,0,0
0,67,106,0
0,44,0,10
0,54,0,0
0,62,0,2
0,74,0,0
0,36,0,10
0,78,0,60
0,76,86,25
0,76,0,78
0,55,0,0
0,67,0,35
0,67,0,2
0,74,120,15
0,62,90,3
0,67,0,0
0,74,80,0
0,79,0,0
0,62,94,0
0,62,100,0
0,55,96,8
0,67,86,0
0,31,94,0
0,43,104,0
0,55,78,0
0,55,104,0
0,62,0,2
0,74,0,0
0,62,0,28
0,62,88,30
0,74,78,0
0,62,75,0
0,62,100,0
0,55,0,25
0,67,0,0
0,44,99,8
0,67,90,0
0,79,80,0
0,67,88,0
0,67,100,0
0,44,0,10
0,62,0,5
0,74,0,0
0,43,0,147
0,55,0,58
0,67,0,15
0,67,0,2
0,79,0,0
0,62,88,3
0,74,78,0
