track,note,velocity,time
1,45,98,6
1,33,98,9
1,45,0,18
1,33,0,4
1,33,100,13
1,33,0,117
1,35,87,170
1,35,0,81
1,36,105,15
1,36,0,83
1,38,81,104
1,40,93,18
1,38,0,8
1,40,0,73
1,38,91,3
1,38,0,328
1,36,93,55
1,36,0,74
1,38,95,22
1,38,0,104
1,40,97,14
1,40,0,6
1,33,94,6
1,33,0,154
1,35,95,132
1,35,0,79
1,36,100,17
1,36,0,75
1,38,95,104
1,40,90,19
1,38,0,8
1,40,0,73
1,38,94,9
1,38,0,160
1,38,79,32
1,38,0,52
1,38,94,44
1,38,0,52
1,38,88,44
1,38,0,54
1,38,88,43
1,38,0,47
1,38,93,48
1,38,0,55
1,43,81,35
1,45,87,17
1,43,0,11
1,45,0,63
1,43,78,10
1,40,87,49
1,43,0,2
1,40,0,40
1,33,100,7
1,33,0,117
1,35,87,169
1,35,0,81
1,36,105,15
1,36,0,84
1,38,81,104
1,40,93,18
1,38,0,8
1,40,0,73
1,38,91,4
1,38,0,328
1,36,93,53
1,36,0,74
1,38,95,22
1,38,0,104
1,40,97,13
1,40,0,5
1,33,94,1
1,33,0,154
1,35,95,131
1,35,0,80
1,36,100,17
1,36,0,75
1,38,95,104
1,40,90,19
1,38,0,8
1,40,0,73
1,38,94,9
1,38,0,159
1,38,84,34
1,38,0,48
1,38,88,49
1,38,0,49
1,38,76,47
1,38,0,47
1,38,81,48
1,38,0,46
1,38,76,50
1,38,0,41
1,38,83,56
1,38,0,41
1,38,82,53
1,38,0,36
1,40,78,11
1,40,0,43
1,33,100,8
1,33,0,205
1,33,87,79
1,33,0,93
1,36,94,4
1,36,0,228
1,36,77,60
1,36,0,87
1,38,93,9
1,38,0,243
1,38,86,45
1,38,0,61
1,38,83,35
1,38,0,243
1,38,86,45
1,38,0,96
1,33,93,3
1,33,0,217
1,33,83,68
1,33,0,93
1,36,84,4
1,36,0,232
1,36,83,55
1,36,0,93
1,38,89,5
1,38,0,232
1,38,80,54
1,38,0,64
1,38,82,33
1,38,0,271
1,43,76,16
1,43,0,45
1,45,73,3
1,45,0,46
1,33,88,4
1,33,0,196
1,33,75,89
1,33,0,90
1,36,86,6
1,36,0,238
1,36,73,52
1,36,0,86
1,38,88,11
1,38,0,228
1,38,78,59
1,38,0,53
1,38,78,43
1,38,0,238
1,38,83,50
1,38,0,89
1,33,90,9
1,33,0,223
1,33,86,63
1,33,0,92
1,36,89,6
1,36,0,219
1,36,83,67
1,36,0,91
1,38,81,6
1,38,0,235
1,38,80,52
1,38,0,54
1,38,83,42
1,38,0,90
1,29,73,7
1,30,85,97
1,29,0,1
1,31,90,95
1,30,0,2
1,31,0,81
1,33,100,12
1,33,0,190
1,35,87,97
1,35,0,81
1,36,105,15
1,36,0,83
1,38,81,104
1,40,93,18
1,38,0,8
1,40,0,73
1,38,91,3
1,38,0,328
1,36,93,55
1,36,0,74
1,38,95,22
1,38,0,104
1,40,97,14
1,40,0,6
1,33,94,6
1,33,0,188
1,35,95,97
1,35,0,79
1,36,100,17
1,36,0,75
1,38,95,104
1,40,90,19
1,38,0,8
1,40,0,73
1,38,94,9
1,38,0,160
1,38,84,33
1,38,0,48
1,38,88,49
1,38,0,48
1,38,76,47
1,38,0,48
1,38,81,48
1,38,0,46
1,38,76,50
1,38,0,41
1,38,83,55
1,38,0,41
1,35,76,54
1,35,0,45
1,31,89,4
1,31,0,27
1,36,83,22
1,36,0,232
1,48,62,7
1,43,69,47
1,48,0,6
1,43,0,41
1,36,70,1
1,36,0,35
1,35,79,14
1,35,0,286
1,40,78,2
1,35,69,47
1,40,0,3
1,35,0,34
1,33,95,13
1,33,0,243
1,33,87,43
1,33,0,23
1,33,79,25
1,33,0,40
1,31,93,9
1,31,0,232
1,31,89,55
1,31,0,42
1,28,81,6
1,28,0,42
1,30,90,7
1,30,0,59
1,30,96,37
1,30,0,61
1,30,92,35
1,30,0,55
1,30,85,41
1,30,0,52
1,30,85,44
1,30,0,56
1,30,90,40
1,30,0,55
1,30,87,41
1,30,0,51
1,30,81,44
1,30,0,45
1,28,90,3
1,28,0,38
1,29,83,11
1,29,0,74
1,29,86,23
1,29,0,58
1,29,90,37
1,29,0,59
1,29,83,38
1,29,0,51
1,29,86,45
1,29,0,46
1,29,88,49
1,29,0,74
1,35,83,21
1,35,0,44
1,31,73,4
1,33,84,48
1,31,0,1
1,33,0,38
1,31,67,9
1,36,89,49
1,31,0,1
1,36,0,256
1,36,88,31
1,36,0,45
1,31,83,3
1,31,0,41
1,35,84,8
1,35,0,240
1,35,83,46
1,35,0,44
1,31,73,5
1,31,0,41
1,33,89,8
1,33,0,249
1,33,84,39
1,33,0,45
1,28,77,3
1,28,0,37
1,31,83,11
1,31,0,203
1,31,83,37
1,31,0,20
1,31,89,28
1,31,0,30
1,28,73,16
1,28,0,40
1,30,81,8
1,30,0,57
1,30,85,40
1,30,0,50
1,30,82,46
1,30,0,53
1,30,82,43
1,30,0,52
1,30,80,43
1,30,0,55
1,30,81,41
1,30,0,45
1,30,75,51
1,30,0,45
1,30,70,51
1,30,0,40
1,28,83,8
1,28,0,36
1,29,95,13
1,29,0,61
1,29,83,36
1,29,0,54
1,29,83,41
1,29,0,59
1,29,83,37
1,29,0,58
1,29,83,38
1,29,0,50
1,29,83,46
1,29,0,66
1,33,98,1
1,33,0,2
1,33,100,15
1,33,0,117
1,33,78,122
1,33,0,19
1,35,87,29
1,35,0,81
1,36,105,15
1,36,0,83
1,38,81,104
1,40,93,18
1,38,0,8
1,40,0,73
1,38,91,3
1,38,0,328
1,33,94,8
1,33,0,21
1,36,93,26
1,36,0,74
1,38,95,22
1,38,0,104
1,45,86,14
1,45,0,6
1,33,94,6
1,33,0,153
1,33,87,86
1,33,0,18
1,35,95,28
1,35,0,79
1,36,100,17
1,36,0,75
1,38,95,104
1,40,90,19
1,38,0,8
1,40,0,73
1,38,94,9
1,38,0,160
1,38,79,32
1,38,0,52
1,36,86,42
1,38,103,14
1,36,0,9
1,38,0,71
1,36,83,3
1,36,0,48
1,33,100,1
1,28,90,67
1,28,0,27
1,33,0,4
1,31,84,16
1,31,0,34
1,28,83,13
1,28,0,35
1,33,98,13
1,33,0,33
1,28,89,15
1,28,0,42
1,31,83,6
1,31,0,38
1,28,90,10
1,28,0,39
1,33,100,10
1,33,0,16
1,35,87,79
1,35,0,81
1,36,105,15
1,36,0,83
1,38,81,104
1,40,93,18
1,38,0,8
1,40,0,73
1,38,91,3
1,38,0,284
1,33,82,52
1,33,0,27
1,36,81,20
1,36,0,37
1,33,69,11
1,33,0,41
1,38,86,7
1,38,0,128
1,33,76,16
1,33,0,3
1,40,97,13
1,40,0,8
1,33,94,4
1,33,0,153
1,33,82,85
1,33,0,19
1,35,95,28
1,35,0,79
1,36,100,17
1,36,0,75
1,38,95,104
1,40,90,19
1,38,0,8
1,40,0,73
1,38,94,9
1,38,0,160
1,38,84,33
1,38,0,48
1,38,88,49
1,38,0,48
1,38,76,47
1,38,0,48
1,38,81,48
1,38,0,46
1,38,76,50
1,38,0,41
1,38,83,55
1,38,0,41
1,31,82,54
1,31,0,36
1,28,78,12
1,28,0,42
1,33,100,7
1,33,0,206
1,33,87,81
1,33,0,93
1,36,94,3
1,36,0,228
1,36,77,60
1,36,0,87
1,38,93,9
1,38,0,244
1,38,86,44
1,38,0,61
1,38,83,35
1,38,0,368
1,33,93,17
1,33,0,217
1,33,83,70
1,33,0,93
1,36,84,3
1,36,0,232
1,36,83,56
1,36,0,93
1,38,89,4
1,38,0,333
1,28,74,2
1,28,0,28
1,30,81,20
1,30,0,57
1,30,98,39
1,30,0,77
1,31,90,20
1,31,0,87
1,32,77,8
1,28,82,49
1,32,0,2
1,33,88,46
1,28,0,5
1,33,0,233
1,33,75,49
1,33,0,90
1,36,86,6
1,36,0,238
1,36,73,50
1,36,0,86
1,38,88,11
1,38,0,228
1,38,78,59
1,38,0,53
1,38,78,43
1,38,0,145
1,45,68,11
1,45,0,31
1,33,90,1
1,33,0,223
1,33,86,64
1,33,0,93
1,36,89,4
1,36,0,219
1,36,83,68
1,36,0,92
1,38,75,5
1,38,0,64
1,38,68,32
1,38,0,44
1,38,67,52
1,38,0,40
1,38,68,56
1,38,0,48
1,38,75,48
1,38,0,42
1,38,78,55
1,38,0,44
1,38,76,51
1,38,0,39
1,40,65,10
1,40,0,35
1,43,65,12
1,43,0,39
1,40,75,9
1,40,0,26
1,33,100,22
1,33,0,190
1,35,87,97
1,35,0,81
1,36,105,15
1,36,0,83
1,38,81,104
1,40,93,18
1,38,0,8
1,40,0,73
1,38,91,3
1,38,0,328
1,33,83,7
1,33,0,23
1,36,93,25
1,36,0,74
1,38,95,22
1,38,0,104
1,40,97,14
1,40,0,6
1,33,94,6
1,33,0,154
1,33,90,85
1,33,0,25
1,35,95,22
1,35,0,79
1,36,100,17
1,36,0,75
1,38,95,104
1,40,90,19
1,38,0,8
1,40,0,73
1,38,94,9
1,38,0,160
1,38,84,33
1,38,0,48
1,38,88,49
1,38,0,48
1,38,76,47
1,38,0,48
1,38,81,48
1,43,84,97
1,38,0,2
1,43,0,46
1,45,76,0
1,45,0,45
1,43,74,3
1,43,0,44
1,40,77,4
1,38,80,48
1,40,0,4
1,38,0,41
1,43,68,3
1,43,0,38
1,36,83,11
1,36,0,238
1,36,77,48
1,36,0,59
1,35,78,38
1,35,0,248
1,35,72,40
1,35,0,48
1,33,83,48
1,33,0,235
1,33,80,52
1,33,0,49
1,31,83,48
1,31,0,237
1,31,89,49
1,31,0,42
1,28,81,6
1,28,0,42
1,30,90,7
1,30,0,59
1,30,96,37
1,30,0,61
1,30,92,35
1,30,0,55
1,30,85,41
1,30,0,52
1,30,85,44
1,30,0,56
1,30,90,40
1,30,0,55
1,30,87,41
1,30,0,51
1,30,81,44
1,30,0,45
1,28,90,3
1,28,0,38
1,29,83,11
1,29,0,74
1,29,86,23
1,29,0,58
1,29,90,37
1,29,0,59
1,29,83,38
1,29,0,51
1,29,86,45
1,29,0,46
1,29,88,49
1,29,0,74
1,29,83,21
1,29,0,44
1,31,73,4
1,33,84,48
1,31,0,1
1,33,0,38
1,31,67,9
1,31,0,50
1,36,83,1
1,36,0,238
1,36,77,48
1,36,0,59
1,35,78,38
1,35,0,248
1,35,72,40
1,35,0,48
1,33,83,48
1,33,0,235
1,33,80,52
1,33,0,49
1,31,83,48
1,31,0,237
1,31,89,49
1,31,0,42
1,28,81,6
1,28,0,42
1,30,90,7
1,30,0,59
1,30,96,37
1,30,0,61
1,30,92,35
1,30,0,55
1,30,85,41
1,30,0,52
1,30,85,44
1,30,0,56
1,30,90,40
1,30,0,55
1,30,87,41
1,30,0,51
1,30,81,44
1,30,0,45
1,28,90,3
1,28,0,38
1,29,83,11
1,29,0,74
1,29,86,23
1,29,0,58
1,29,90,37
1,29,0,59
1,29,83,38
1,29,0,51
1,29,86,45
1,29,0,46
1,33,88,49
1,33,0,74
1,45,74,2
1,45,0,2
1,33,84,15
1,33,0,190
1,35,87,97
1,35,0,81
1,36,105,15
1,36,0,83
1,38,81,104
1,40,93,18
1,38,0,8
1,40,0,73
1,38,91,3
1,38,0,328
1,33,94,8
1,33,0,21
1,36,93,26
1,36,0,74
1,38,95,22
1,38,0,104
1,40,86,14
1,40,0,6
1,33,94,6
1,33,0,152
1,33,87,86
1,33,0,18
1,35,95,28
1,35,0,79
1,36,100,17
1,36,0,75
1,38,95,104
1,40,90,19
1,38,0,8
1,40,0,73
1,38,94,9
1,38,0,160
1,38,79,32
1,38,0,52
1,38,83,44
1,38,0,45
1,38,84,52
1,38,0,41
1,38,84,55
1,38,0,42
1,38,77,53
1,38,0,85
1,43,76,13
1,43,0,29
1,45,73,18
1,45,0,46
1,43,76,2
1,43,0,42
1,40,72,6
1,40,0,23
1,33,91,25
1,33,0,238
1,35,87,49
1,35,0,81
1,36,105,15
1,36,0,147
1,38,81,40
1,40,93,18
1,38,0,8
1,40,0,73
1,38,91,3
1,38,0,175
1,38,64,16
1,38,0,49
1,38,73,48
1,38,0,62
1,36,93,33
1,36,0,74
1,38,95,22
1,38,0,104
1,40,97,14
1,40,0,6
1,33,94,6
1,33,0,92
1,35,95,51
1,35,0,78
1,36,100,17
1,36,0,97
1,38,95,33
1,40,90,5
1,38,0,8
1,40,0,73
1,38,94,9
1,38,0,111
1,38,79,32
1,38,0,51
1,38,94,44
1,38,0,3
1,38,88,44
1,38,0,54
1,38,88,43
1,38,0,47
1,38,93,48
1,38,0,6
1,38,81,42
1,38,0,55
1,38,83,41
1,38,0,67
1,33,100,29
1,33,0,46
1,35,87,49
1,35,0,32
1,36,105,15
1,36,0,83
1,38,81,90
1,40,93,18
1,38,0,8
1,40,0,45
1,38,91,3
1,38,0,232
1,33,88,9
1,33,0,18
1,36,93,28
1,36,0,73
1,38,95,22
1,38,0,55
1,38,70,41
1,38,0,6
1,40,97,14
1,40,0,6
1,33,94,6
1,33,0,188
1,35,95,3
1,35,0,79
1,36,100,17
1,36,0,75
1,38,95,34
1,40,90,19
1,38,0,8
1,40,0,73
1,38,94,9
1,38,0,159
1,38,84,33
1,38,0,48
1,38,88,49
1,38,0,1
2,45,13,7315
2,52,21,98
2,55,61,93
2,57,33,100
2,45,0,9
2,52,0,7
2,55,0,76
2,48,26,1
2,57,0,1
2,55,45,88
2,59,49,94
2,60,57,103
2,48,0,2
2,55,0,3
2,59,0,29
2,60,0,6
2,50,26,53
2,57,49,88
2,62,45,43
2,57,0,96
2,66,45,2
2,57,57,24
2,57,0,20
2,57,26,10
2,57,0,24
2,62,0,16
2,66,0,0
2,62,26,4
2,65,61,50
2,62,0,34
2,65,0,11
2,64,61,3
2,50,0,6
2,64,0,31
2,60,41,9
2,57,37,48
2,45,26,35
2,60,0,70
2,57,0,12
2,52,35,14
2,55,43,98
2,57,41,96
2,52,0,7
2,45,0,5
2,48,26,2
2,55,0,0
2,57,0,6
2,55,41,94
2,57,45,95
2,60,37,95
2,55,0,6
2,48,0,2
2,57,0,20
2,60,0,14
2,50,35,4
2,57,45,77
2,62,49,93
2,66,57,97
2,57,0,32
2,57,53,60
2,57,0,28
2,66,0,4
2,57,41,42
2,62,0,26
2,65,61,24
2,57,0,44
2,64,52,4
2,65,0,8
2,50,0,12
2,64,0,23
2,60,41,5
2,57,33,49
2,45,26,49
2,60,0,12
2,57,0,5
2,52,33,78
2,55,49,93
2,60,45,96
2,52,0,7
2,45,0,2
2,55,0,49
2,48,26,5
2,60,0,3
2,55,53,78
2,59,49,95
2,60,41,99
2,55,0,3
2,48,0,5
2,50,26,3
2,60,0,4
2,59,0,2
2,57,41,88
2,62,53,102
2,66,41,96
2,57,0,11
2,57,29,71
2,66,0,70
2,59,6,8
2,57,0,13
2,57,33,41
2,59,0,13
2,62,0,6
2,65,70,6
2,64,52,48
2,65,0,12
2,57,0,13
2,60,43,21
2,50,0,12
2,64,0,26
2,57,53,2
2,45,26,36
2,60,0,66
2,57,0,9
2,52,25,17
2,55,57,98
2,57,53,4
2,55,0,7
2,45,0,1
2,52,0,2
2,48,26,4
2,57,0,4
2,55,6,95
2,60,49,95
2,65,41,4
2,65,0,79
2,60,0,9
2,62,53,3
2,57,6,1
2,55,0,5
2,48,0,10
2,57,0,4
2,50,26,6
2,62,0,8
2,57,45,88
2,62,57,103
2,66,41,93
2,57,0,25
2,66,0,132
2,57,8,9
2,62,0,15
2,57,0,12
2,65,61,9
2,50,0,18
2,64,52,31
2,65,0,1
2,60,37,45
2,64,0,14
2,60,0,85
2,57,32,3072
2,67,60,98
2,62,88,102
2,57,0,120
2,57,20,65
2,67,0,4
2,67,56,93
2,62,0,12
2,62,68,82
2,57,0,115
2,67,0,40
2,62,0,44
2,57,6,6
2,57,0,68
2,62,68,19
2,57,16,93
2,62,0,186
2,62,64,87
2,57,0,16
2,57,56,89
2,62,0,179
2,60,64,122
2,57,0,58
2,57,56,39
