track,note,velocity,time
0,37,112,24
0,37,112,48
0,37,112,48
0,37,112,48
0,60,91,48
0,65,83,0
0,60,87,43
0,65,76,0
0,57,83,2
0,62,81,0
0,57,66,41
0,62,79,0
0,55,91,8
0,60,99,0
0,36,91,97
0,41,107,0
0,48,103,0
0,36,79,43
0,41,99,0
0,48,89,0
0,38,83,18
0,41,104,0
0,50,83,0
0,38,81,48
0,41,98,0
0,50,91,0
0,36,88,20
0,41,112,0
0,48,96,0
0,36,65,31
0,41,97,0
0,48,94,0
0,38,92,1
0,41,117,0
0,50,85,0
0,38,82,43
0,41,114,0
0,48,88,0
0,29,77,19
0,34,101,0
0,41,100,0
0,29,87,39
0,34,89,0
0,41,85,0
0,31,94,22
0,34,107,0
0,43,89,0
0,31,79,42
0,34,94,0
0,43,83,0
0,29,85,23
0,34,109,0
0,41,89,0
0,29,77,27
0,34,112,0
0,41,84,0
0,31,91,22
0,34,117,0
0,43,92,0
0,29,83,4
0,34,87,0
0,41,74,0
0,38,89,20
0,38,120,0
0,45,87,0
0,38,80,48
0,38,95,0
0,45,80,0
0,38,89,11
0,38,118,0
0,46,94,0
0,38,81,47
0,38,108,0
0,46,84,0
0,38,85,11
0,38,109,0
0,45,87,0
0,38,73,46
0,38,100,0
0,45,87,0
0,38,95,19
0,38,118,0
0,46,77,0
0,38,68,4
0,38,110,0
0,45,85,0
0,37,91,2
0,37,113,0
0,44,91,0
0,37,90,48
0,37,121,0
0,44,84,0
0,39,89,4
0,37,124,0
0,46,85,0
0,39,88,48
0,37,119,0
0,46,87,0
0,37,95,1
0,37,121,0
0,44,92,0
0,37,76,45
0,37,115,0
0,44,96,0
0,39,97,1
0,37,126,0
0,46,86,0
0,37,96,39
0,37,119,8
0,44,87,0
0,29,99,13
0,41,117,0
0,48,106,0
0,29,93,46
0,41,103,0
0,48,97,0
0,41,104,15
0,50,91,0
0,31,83,51
0,41,101,0
0,50,98,0
0,29,84,0
0,41,105,0
0,48,95,0
0,29,81,48
0,41,101,0
0,48,97,0
0,31,86,0
0,41,113,0
0,50,101,0
0,29,78,2
0,41,105,0
0,48,91,0
0,31,79,19
0,36,105,0
0,43,101,0
0,31,74,43
0,36,91,0
0,43,83,0
0,34,94,23
0,36,112,0
0,45,91,0
0,34,80,47
0,36,97,0
0,45,91,0
0,31,85,2
0,36,100,0
0,43,97,0
0,31,85,49
0,36,94,0
0,43,90,0
0,34,105,2
0,36,102,0
0,45,91,0
0,31,84,35
0,36,109,2
0,43,81,0
0,29,93,1
0,34,106,0
0,41,96,0
0,29,86,44
0,34,99,0
0,41,94,0
0,31,90,12
0,34,91,0
0,43,91,0
0,31,91,47
0,34,100,0
0,43,93,0
0,29,88,1
0,34,89,0
0,41,94,0
0,29,78,46
0,34,94,0
0,41,94,0
0,31,97,4
0,34,100,0
0,43,104,0
0,29,93,5
0,34,94,0
0,41,88,0
0,29,101,2
0,41,94,0
0,48,81,0
0,41,91,47
0,48,75,0
0,41,87,8
0,50,83,0
0,29,98,6
0,41,83,14
0,50,80,0
0,24,108,1
0,36,102,0
0,38,59,26
0,38,80,31
0,38,112,31
0,38,115,31
0,38,122,31
0,29,127,22
0,41,107,0
0,48,103,0
0,60,74,0
0,77,59,0
0,81,66,0
0,84,54,0
0,35,117,0
0,38,127,0
0,49,118,0
0,44,117,0
0,29,101,36
0,41,99,0
0,48,89,0
0,60,72,0
0,35,90,0
0,53,74,7
0,29,123,0
0,41,104,0
0,50,83,0
0,53,87,0
0,62,66,0
0,38,127,0
0,44,115,3
0,29,108,40
0,41,98,0
0,50,91,0
0,53,81,0
0,62,74,0
0,35,80,0
0,29,110,8
0,41,112,0
0,48,96,0
0,53,95,0
0,60,79,0
0,35,89,0
0,44,113,0
0,29,100,31
0,41,97,0
0,48,94,0
0,53,80,0
0,60,77,0
0,35,112,0
0,29,124,8
0,41,117,0
0,50,85,0
0,53,100,0
0,62,68,0
0,38,124,0
0,40,124,0
0,44,119,3
0,29,123,30
0,41,114,0
0,48,88,0
0,53,97,0
0,60,71,0
0,35,98,0
0,34,123,0
0,34,101,0
0,41,100,0
0,46,84,0
0,53,83,0
0,74,51,0
0,77,59,0
0,82,48,0
0,35,105,0
0,44,110,0
0,34,108,40
0,34,89,0
0,41,85,0
0,46,72,0
0,53,68,0
0,35,95,0
0,34,117,8
0,34,107,0
0,43,89,0
0,46,90,0
0,55,72,0
0,38,121,0
0,40,121,0
0,44,119,0
0,34,111,40
0,34,94,0
0,43,83,0
0,46,77,0
0,55,66,0
0,35,101,0
0,34,114,8
0,34,109,0
0,41,89,0
0,46,92,0
0,53,72,0
0,35,94,0
0,44,110,1
0,34,113,27
0,34,112,0
0,41,84,0
0,46,95,0
0,53,67,0
0,35,104,0
0,34,122,8
0,34,117,0
0,43,92,0
0,46,100,0
0,55,75,0
0,38,122,0
0,40,122,0
0,44,121,1
0,34,115,4
0,34,87,0
0,41,74,0
0,46,70,0
0,53,57,0
0,35,92,0
0,29,127,8
0,38,120,0
0,45,87,0
0,50,103,0
0,57,70,0
0,74,51,0
0,77,58,0
0,81,53,0
0,35,98,0
0,44,112,0
0,29,114,40
0,38,95,0
0,45,80,0
0,50,78,0
0,57,63,0
0,35,106,0
0,29,127,8
0,38,118,0
0,46,94,0
0,50,101,0
0,58,77,0
0,38,124,0
0,40,124,0
0,44,115,0
0,29,122,38
0,38,108,0
0,46,84,0
0,50,91,0
0,58,67,0
0,35,98,0
0,44,99,7
0,29,127,0
0,38,109,0
0,45,87,0
0,50,92,0
0,57,70,0
0,35,105,0
0,29,118,38
0,38,100,0
0,45,87,0
0,50,83,0
0,57,70,0
0,35,108,0
0,29,127,8
0,38,118,0
0,46,77,0
0,50,101,0
0,58,60,0
0,38,124,0
0,40,124,0
0,44,112,0
0,29,127,4
0,38,110,0
0,45,85,0
0,50,93,0
0,57,68,0
0,35,101,0
0,32,127,2
0,37,113,0
0,44,91,0
0,49,96,0
0,56,74,0
0,73,48,0
0,80,39,0
0,35,106,0
0,44,105,2
0,32,115,34
0,37,121,0
0,44,84,0
0,49,104,0
0,56,67,0
0,35,103,0
0,32,120,4
0,37,124,0
0,46,85,0
0,49,107,0
0,58,68,0
0,38,122,0
0,40,122,0
0,44,113,0
0,32,115,40
0,37,119,0
0,46,87,0
0,49,102,0
0,58,70,0
0,35,103,0
0,37,109,8
0,37,121,0
0,44,92,0
0,49,104,0
0,56,75,0
0,35,103,0
0,44,107,1
0,37,108,37
0,37,115,0
0,44,96,0
0,49,98,0
0,56,79,0
0,35,104,0
0,37,98,1
0,37,126,0
0,46,86,0
0,49,109,0
0,58,69,0
0,38,127,0
0,40,127,0
0,44,115,1
0,37,100,27
0,37,119,0
0,44,87,0
0,49,102,0
0,56,70,0
0,35,108,0
0,29,127,8
0,41,117,0
0,48,106,0
0,53,100,0
0,60,89,0
0,72,47,0
0,81,55,0
0,35,107,0
0,44,105,1
0,29,119,40
0,41,103,0
0,48,97,0
0,53,86,0
0,60,80,0
0,35,107,0
0,29,115,8
0,41,104,0
0,50,91,0
0,53,87,0
0,62,74,0
0,38,126,0
0,40,126,0
0,44,108,1
0,29,110,40
0,41,101,0
0,50,98,0
0,53,84,0
0,62,81,0
0,35,106,0
0,29,117,8
0,41,105,0
0,48,95,0
0,53,88,0
0,60,78,0
0,35,102,0
0,44,98,1
0,29,114,31
0,41,101,0
0,48,97,0
0,53,84,0
0,60,80,0
0,35,108,0
0,29,127,8
0,41,113,0
0,50,101,0
0,53,96,0
0,62,84,0
0,38,127,0
0,40,127,0
0,44,112,1
0,29,125,2
0,41,105,0
0,48,91,0
0,53,88,0
0,60,74,0
0,35,92,0
0,36,120,7
0,36,105,0
0,43,101,0
0,48,88,0
0,55,84,0
0,72,47,0
0,76,44,0
0,79,53,0
0,82,39,0
0,35,99,0
0,44,97,0
0,36,105,32
0,36,91,0
0,43,83,0
0,48,74,0
0,55,66,0
0,35,101,0
0,36,119,8
0,36,112,0
0,45,91,0
0,48,95,0
0,57,74,0
0,38,126,0
0,40,126,0
0,44,107,0
0,36,97,39
0,36,97,0
0,45,91,0
0,48,80,0
0,57,74,0
0,35,91,0
0,36,104,2
0,36,100,0
0,43,97,0
0,48,83,0
0,55,80,0
0,35,89,0
0,44,97,0
0,36,104,36
0,36,94,0
0,43,90,0
0,48,77,0
0,55,73,0
0,35,106,0
0,44,107,0
0,36,111,1
0,36,102,0
0,45,91,0
0,48,85,0
0,57,74,0
0,38,126,0
0,40,126,0
0,36,109,2
0,36,109,0
0,43,81,0
0,48,92,0
0,55,64,0
0,35,88,0
0,44,97,4
0,62,103,0
0,34,116,1
0,34,106,0
0,41,96,0
0,46,89,0
0,53,79,0
0,74,58,0
0,77,57,0
0,82,40,0
0,35,101,0
0,70,77,10
0,34,106,0
0,34,99,0
0,41,94,0
0,46,82,0
0,53,77,0
0,35,100,0
0,62,77,0
0,60,90,0
0,34,120,1
0,34,91,0
0,43,91,0
0,46,74,0
0,55,74,0
0,38,121,0
0,40,121,0
0,44,107,0
0,70,80,7
0,60,85,22
0,34,111,1
0,34,100,0
0,43,93,0
0,46,83,0
0,55,76,0
0,35,96,0
0,59,86,0
0,34,111,2
0,34,89,0
0,41,94,0
0,46,72,0
0,53,77,0
0,74,46,0
0,77,53,0
0,80,59,0
0,35,100,0
0,44,97,0
0,38,12,4
0,68,75,0
0,38,16,5
0,38,24,5
0,38,28,3
0,38,36,5
0,38,40,5
0,59,90,1
0,34,110,2
0,34,94,0
0,41,94,0
0,46,77,0
0,53,77,0
0,35,110,0
0,38,52,1
0,38,72,5
0,38,80,5
0,38,96,4
0,38,116,0
0,58,81,0
0,34,117,2
0,34,100,0
0,43,104,0
0,46,83,0
0,55,87,0
0,38,124,0
0,40,124,0
0,44,107,0
0,55,88,8
0,67,77,0
0,58,83,0
0,34,119,3
0,34,94,0
0,41,88,0
0,46,77,0
0,53,71,0
0,35,98,0
0,33,127,2
0,74,45,0
0,77,54,0
0,81,39,0
0,35,107,0
0,44,99,0
0,45,85,2
0,57,68,0
0,38,94,1
0,50,77,0
0,33,117,36
0,35,105,0
0,45,91,0
0,57,74,0
0,38,93,1
0,50,76,0
0,33,124,6
0,38,126,0
0,40,126,0
0,44,112,0
0,46,104,2
0,58,87,0
0,38,105,3
0,50,88,0
0,33,127,34
0,46,93,0
0,58,76,0
0,38,100,2
0,50,83,0
0,32,127,4
0,73,58,0
0,77,59,0
0,80,56,0
0,35,107,0
0,44,108,4
0,44,93,0
0,56,76,0
0,37,105,0
0,49,88,0
0,35,84,2
0,36,113,0
0,55,104,0
0,32,125,31
0,35,87,0
0,44,92,1
0,56,75,0
0,37,107,1
0,49,90,0
0,32,127,1
0,35,118,0
0,38,127,0
0,40,127,0
0,44,113,1
0,46,103,2
0,58,86,0
0,37,113,2
0,49,96,0
0,35,76,0
0,32,127,7
0,35,87,0
0,46,93,0
0,58,76,0
0,37,112,0
0,49,95,0
0,31,108,5
0,72,1,0
0,76,50,0
0,79,51,0
0,82,46,0
0,35,103,0
0,36,102,3
0,48,85,0
0,44,105,0
0,43,107,0
0,55,90,0
0,31,100,3
0,35,78,0
0,36,98,0
0,38,127,0
0,55,98,0
0,31,108,20
0,43,94,0
0,55,77,0
0,35,91,0
0,36,89,0
0,48,72,0
0,31,125,7
0,35,106,0
0,38,126,0
0,44,113,0
0,36,84,4
0,45,112,0
0,48,67,0
0,57,95,0
0,44,67,1
0,56,50,0
0,31,111,1
0,35,95,0
0,36,104,0
0,55,94,0
0,45,98,17
0,57,81,0
0,36,90,1
0,48,73,0
0,31,119,2
0,35,94,0
0,38,126,0
0,31,114,2
0,36,101,0
0,36,106,0
0,43,118,0
0,48,89,0
0,55,101,0
0,35,103,0
0,44,108,0
0,31,98,8
0,36,91,0
0,35,91,0
0,38,127,0
0,31,111,20
0,36,104,0
0,35,97,0
0,31,113,20
0,36,115,0
0,35,109,0
0,36,110,0
0,38,127,0
0,40,127,0
0,55,113,0
0,44,119,0
0,31,111,20
0,36,108,0
0,35,98,0
0,38,126,0
0,31,116,19
0,36,108,0
0,35,105,0
0,38,127,0
0,33,127,0
0,38,124,0
0,74,91,0
0,77,84,0
0,81,91,0
0,35,121,0
0,38,127,0
0,40,127,0
0,40,115,62
0,38,127,1
0,40,112,29
0,38,127,1
0,40,114,29
0,38,127,1
0,34,127,95
0,82,92,0
0,86,92,0
0,89,92,0
0,36,122,0
0,57,122,0
0,59,120,0
0,59,113,31
0,59,94,15
0,59,98,15
0,38,127,31
0,59,124,0
0,59,99,31
0,34,127,11
0,36,104,0
0,59,103,0
0,33,127,10
0,81,92,0
0,84,92,0
0,88,92,0
0,36,109,0
0,59,115,0
0,59,104,31
0,59,87,15
0,59,89,15
0,38,127,31
0,59,126,0
0,59,106,31
0,33,127,12
0,36,112,0
0,59,109,0
0,31,127,7
0,79,92,0
0,82,92,0
0,86,92,0
0,36,113,0
0,59,112,0
0,59,86,63
0,38,127,31
0,59,120,0
0,59,106,31
0,31,108,9
0,36,110,0
0,59,106,0
0,31,119,17
0,36,109,0
0,59,117,0
0,59,112,31
0,59,93,15
0,59,92,15
0,59,121,31
0,31,127,17
0,36,108,0
0,38,91,0
0,49,100,0
0,59,115,0
0,32,125,9
0,36,113,0
0,38,92,0
0,57,100,0
0,59,115,0
0,33,127,3
0,81,92,0
0,84,92,0
0,88,92,0
0,36,115,0
0,38,100,0
0,49,100,0
0,59,117,0
0,59,113,31
0,59,98,15
0,59,94,15
0,38,127,31
0,59,122,0
0,59,114,31
0,33,115,16
0,36,105,0
0,59,113,0
0,36,127,11
0,38,127,0
0,79,92,0
0,36,118,0
0,59,117,0
0,59,112,22
0,59,81,15
0,59,89,15
0,36,127,15
0,38,127,0
0,59,121,0
0,60,124,0
0,59,110,9
0,62,121,0
0,60,94,15
0,65,113,11
0,36,107,1
0,59,113,0
0,62,91,3
0,29,127,2
0,41,107,0
0,48,103,0
0,53,74,0
0,60,74,0
0,77,59,0
0,81,66,0
0,84,54,0
0,35,117,0
0,36,118,0
0,38,127,0
0,49,118,0
0,59,120,0
0,69,114,0
0,44,117,0
0,65,83,0
0,69,84,1
0,29,101,4
0,41,99,0
0,48,89,0
0,60,72,0
0,35,90,0
0,53,74,3
0,29,123,0
0,41,104,0
0,50,83,0
0,53,87,0
0,62,66,0
0,38,127,0
0,44,115,3
0,29,108,40
0,41,98,0
0,50,91,0
0,53,81,0
0,62,74,0
0,35,80,0
0,29,110,8
0,41,112,0
0,48,96,0
0,53,95,0
0,60,79,0
0,35,89,0
0,44,113,0
0,29,100,4
0,41,97,0
0,48,94,0
0,53,80,0
0,60,77,0
0,35,112,0
0,29,124,5
0,41,117,0
0,50,85,0
0,53,100,0
0,62,68,0
0,38,124,0
0,40,124,0
0,44,119,0
0,67,115,1
0,29,123,29
0,41,114,0
0,48,88,0
0,53,97,0
0,60,71,0
0,35,98,0
0,65,106,0
0,67,85,6
0,34,123,0
0,34,101,0
0,41,100,0
0,46,84,0
0,53,83,0
0,74,51,0
0,77,59,0
0,82,48,0
0,35,105,0
0,44,110,0
0,65,76,0
0,34,108,40
0,34,89,0
0,41,85,0
0,46,72,0
0,53,68,0
0,35,95,0
0,34,117,8
0,34,107,0
0,43,89,0
0,46,90,0
0,55,72,0
0,38,121,0
0,40,121,0
0,44,119,0
0,34,111,2
0,34,94,0
0,43,83,0
0,46,77,0
0,55,66,0
0,35,101,0
0,34,114,3
0,34,109,0
0,41,89,0
0,46,92,0
0,53,72,0
0,35,94,0
0,44,110,0
0,34,113,8
0,34,112,0
0,41,84,0
0,46,95,0
0,53,67,0
0,35,104,0
0,60,118,7
0,34,122,1
0,34,117,0
0,43,92,0
0,46,100,0
0,55,75,0
0,38,122,0
0,40,122,0
0,44,121,1
0,62,114,6
0,60,88,10
0,65,113,2
0,34,115,2
0,34,87,0
0,41,74,0
0,46,70,0
0,53,57,0
0,35,92,0
