track,note,velocity,time
2,38,106,6856
2,40,109,16
2,43,114,0
2,43,96,32
2,40,105,0
2,45,117,56
2,38,114,64
2,40,106,12
2,33,100,304
2,35,98,0
2,38,108,0
2,38,100,32
2,35,103,0
2,38,117,80
2,38,108,112
2,40,103,32
2,38,108,128
2,40,111,16
2,43,114,0
2,43,96,32
2,40,105,0
2,45,117,56
2,38,114,64
2,40,106,12
2,33,100,304
2,35,98,0
2,38,108,0
2,38,100,32
2,35,103,0
2,38,117,80
2,38,108,112
2,40,103,0
2,38,100,128
2,40,98,0
2,43,114,0
2,43,96,32
2,40,105,0
2,45,117,56
2,38,114,64
2,40,106,12
2,33,100,304
2,35,98,0
2,38,108,0
2,38,100,32
2,35,103,0
2,38,117,80
2,38,108,112
2,40,103,32
2,38,108,128
2,40,111,16
2,43,114,0
2,43,96,32
2,40,105,0
2,45,117,56
2,38,114,64
2,40,106,12
2,33,100,304
2,35,98,0
2,38,108,0
2,38,100,32
2,35,103,0
2,38,117,80
2,38,108,112
2,40,103,0
2,38,100,128
2,40,98,0
2,43,114,0
2,43,96,32
2,40,105,0
2,45,117,56
2,38,114,64
2,40,106,12
2,33,100,304
2,35,98,0
2,38,108,0
2,38,100,32
2,35,103,0
2,38,117,80
2,38,108,112
2,40,103,40
2,38,108,120
2,40,111,16
2,43,114,0
2,43,96,32
2,40,105,0
2,45,117,56
2,38,114,64
2,40,106,12
2,33,100,304
2,35,98,0
2,38,108,0
2,38,100,32
2,35,103,0
2,38,117,80
2,38,108,112
2,40,103,0
2,38,100,128
2,40,98,0
2,43,114,0
2,43,96,32
2,40,105,0
2,45,117,56
2,38,114,64
2,40,106,12
2,33,100,304
2,35,98,0
2,38,108,0
2,38,100,32
2,35,103,0
2,38,117,80
2,38,103,112
2,40,110,32
2,38,108,128
2,40,111,16
2,43,114,0
2,43,96,32
2,40,105,0
2,45,117,56
2,38,114,64
2,40,106,12
2,33,100,304
2,35,98,0
2,38,108,0
2,38,100,32
2,35,103,0
2,38,117,80
2,38,112,112
2,40,103,32
2,38,100,48
2,33,111,16
2,31,104,20
2,33,107,16
2,31,66,32
2,28,112,32
2,31,102,16
2,33,111,64
2,31,104,20
2,33,107,16
2,28,86,60
2,33,99,8
2,38,106,0
2,31,114,80
2,38,112,40
2,31,110,0
2,29,82,288
2,29,116,32
2,30,116,28
2,31,113,56
2,29,80,0
2,31,116,0
2,28,99,152
2,31,113,12
2,32,119,80
2,33,111,76
2,31,104,20
2,28,88,0
2,33,107,32
2,28,88,128
2,28,112,32
2,31,102,0
2,33,111,64
2,31,104,20
2,33,107,16
2,28,86,60
2,33,99,8
2,34,106,48
2,35,114,48
2,33,112,40
2,35,110,0
2,35,86,56
2,45,102,4
2,35,104,20
2,35,110,120
2,35,110,124
2,35,113,120
2,35,116,120
2,38,99,460
2,40,96,128
2,43,114,8
2,43,96,32
2,40,105,0
2,45,117,56
2,38,114,64
2,40,106,12
2,33,100,304
2,35,98,0
2,38,108,0
2,38,100,32
2,35,103,0
2,38,117,80
2,38,108,112
2,40,103,32
2,38,108,128
2,40,111,16
2,43,114,0
2,43,96,32
2,40,105,0
2,45,117,56
2,38,114,64
2,40,106,12
2,33,100,304
2,35,98,0
2,38,108,0
2,38,100,32
2,35,103,0
2,38,117,80
2,38,108,112
2,40,103,0
2,38,100,128
2,40,98,0
2,43,114,0
2,43,96,32
2,40,105,0
2,45,117,56
2,38,114,64
2,40,106,12
2,33,100,304
2,35,98,0
2,38,108,0
2,38,100,32
2,35,103,0
2,38,117,80
2,38,108,112
2,40,103,32
2,38,108,128
2,40,111,16
2,43,114,0
2,43,96,32
2,40,105,0
2,45,117,56
2,38,114,64
2,40,106,12
2,33,100,304
2,35,98,0
2,38,108,0
2,38,100,32
2,35,103,0
2,38,117,80
2,38,108,112
2,40,103,0
2,38,100,128
2,40,98,0
2,43,114,0
2,43,96,32
2,40,105,0
2,45,117,56
2,38,114,64
2,40,106,12
2,33,100,304
2,35,98,0
2,38,108,0
2,38,100,32
2,35,103,0
2,38,117,80
2,38,108,112
2,40,103,40
2,38,108,120
2,40,111,16
2,43,114,0
2,43,96,32
2,40,105,0
2,45,117,56
2,38,114,64
2,40,106,12
2,33,100,304
2,35,98,0
2,38,108,0
2,38,100,32
2,35,103,0
2,38,117,80
2,38,108,112
2,40,103,0
2,38,100,128
2,40,98,0
2,43,114,0
2,43,96,32
2,40,105,0
2,45,117,56
2,38,114,64
2,40,106,12
2,33,100,304
2,35,98,0
2,38,108,0
2,38,100,32
2,35,103,0
2,38,117,80
2,38,103,112
2,40,110,32
2,38,108,128
2,40,111,16
2,43,114,0
2,43,96,32
2,40,105,0
2,45,117,56
2,38,114,64
2,40,106,12
2,33,100,304
2,35,98,0
2,38,108,0
2,38,100,32
2,35,103,0
2,38,117,80
2,38,112,112
2,40,103,32
2,38,100,48
2,43,114,16
2,43,96,32
2,40,105,0
2,45,117,56
2,38,114,64
2,40,106,12
2,33,100,304
2,35,98,0
2,38,108,0
2,38,100,32
2,35,103,0
2,38,117,80
2,38,103,112
2,40,110,32
2,38,108,128
2,40,111,16
2,43,114,0
2,43,96,32
2,40,105,0
2,45,117,56
2,38,114,64
2,40,106,12
2,33,100,304
2,35,98,0
2,38,108,0
2,38,100,32
2,35,103,0
2,38,117,80
2,38,112,112
2,40,103,32
2,38,82,64
2,35,99,0
2,33,111,64
2,31,104,20
2,33,107,16
2,31,66,32
2,28,112,32
2,31,102,16
2,33,111,64
2,31,104,20
2,33,107,16
2,28,86,60
2,33,99,8
2,38,106,0
2,31,114,80
2,38,112,40
2,31,110,0
2,29,82,288
2,29,116,32
2,30,116,28
2,31,113,56
2,29,80,0
2,31,116,0
2,28,99,152
2,31,113,12
2,32,119,80
2,33,111,76
2,31,104,20
2,28,88,0
2,33,107,32
2,28,88,128
2,28,112,32
2,31,102,0
2,33,111,64
2,31,104,20
2,33,107,16
2,28,86,60
2,33,99,8
2,34,106,48
2,35,114,48
2,33,112,40
2,35,110,0
2,35,86,56
2,45,102,4
2,35,104,20
2,35,110,120
2,35,110,124
2,35,113,120
2,35,116,120
2,38,99,460
2,40,96,128
2,43,114,8
2,43,96,32
2,40,105,0
2,45,117,56
2,38,114,64
2,40,106,12
2,33,100,304
2,35,98,0
2,38,108,0
2,38,100,32
2,35,103,0
2,38,117,80
2,38,108,112
2,40,103,32
2,38,108,128
2,40,111,16
2,43,114,0
2,43,96,32
2,40,105,0
2,45,117,56
2,38,114,64
2,40,106,12
2,33,100,304
2,35,98,0
2,38,108,0
2,38,100,32
2,35,103,0
2,38,117,80
2,38,108,112
2,40,103,0
2,38,100,128
2,40,98,0
2,43,114,0
2,43,96,32
2,40,105,0
2,45,117,56
2,38,114,64
2,40,106,12
2,33,100,304
2,35,98,0
2,38,108,0
2,38,100,32
2,35,103,0
2,38,117,80
2,38,108,112
2,40,103,32
2,38,108,128
2,40,111,16
2,43,114,0
2,43,96,32
2,40,105,0
2,45,117,56
2,38,114,64
2,40,106,12
2,33,100,304
2,35,98,0
2,38,108,0
2,38,100,32
2,35,103,0
2,38,117,80
2,38,108,112
2,40,103,0
2,38,100,128
2,40,98,0
2,43,114,0
2,43,96,32
2,40,105,0
2,45,117,56
2,38,114,64
2,40,106,12
2,33,100,304
2,35,98,0
2,38,108,0
2,38,100,32
2,35,103,0
2,38,117,80
2,38,108,112
2,40,103,32
2,38,108,128
2,40,111,16
2,43,114,0
2,43,96,32
2,40,105,0
2,45,117,56
2,38,114,64
2,40,106,12
2,33,100,304
2,35,98,0
2,38,108,0
2,38,100,32
2,35,103,0
2,38,117,80
2,38,108,112
2,40,103,0
2,38,100,128
2,40,98,0
2,43,114,0
2,43,96,32
2,40,105,0
2,45,117,56
2,38,114,64
2,40,106,12
2,33,100,304
2,35,98,0
2,38,108,0
2,38,100,32
2,35,103,0
2,38,117,80
2,38,108,112
2,40,103,32
2,38,108,128
2,40,111,16
2,43,114,0
2,43,96,32
2,40,105,0
2,45,117,56
2,38,114,64
2,40,106,12
2,33,100,304
2,35,98,0
2,38,108,0
2,38,100,32
2,35,103,0
2,38,117,80
2,38,108,112
2,40,103,0
2,35,95,64
2,33,111,0
2,31,104,20
2,33,107,16
2,31,66,32
2,28,112,32
2,31,102,16
2,33,111,64
2,31,104,20
2,33,107,16
2,28,86,60
2,33,99,8
2,38,106,0
2,31,114,80
2,38,112,40
2,31,110,0
2,29,82,288
2,29,116,32
2,30,116,28
2,31,113,56
2,29,80,0
2,31,116,0
2,28,99,152
2,31,113,12
2,32,119,80
2,33,111,76
2,31,104,20
2,28,88,0
2,33,107,32
2,28,88,128
2,28,112,32
2,31,102,0
2,33,111,64
2,31,104,20
2,33,107,16
2,28,86,60
2,33,99,8
2,34,106,48
2,35,114,48
2,33,112,40
2,35,110,0
2,35,86,56
2,45,102,4
2,35,104,20
2,35,110,96
2,35,110,96
2,35,113,64
2,35,116,64
3,62,87,668
3,67,75,4
3,64,91,0
3,69,79,8
3,71,89,4
3,60,91,80
3,62,87,4
3,64,67,8
3,67,91,4
3,71,89,12
3,60,89,264
3,67,90,12
3,64,86,0
3,71,87,8
3,59,87,96
3,62,88,12
3,66,90,0
3,69,87,4
3,64,78,0
3,60,86,388
3,64,80,12
3,67,89,4
3,71,84,12
3,60,84,264
3,64,81,4
3,67,80,8
3,71,82,8
3,59,82,100
3,62,83,12
3,66,85,0
3,69,82,4
3,59,77,8
3,66,60,8
3,62,77,4
3,69,60,8
3,60,81,84
3,64,77,12
3,67,81,4
3,71,84,12
3,60,84,264
3,64,81,4
3,67,80,8
3,71,82,8
3,59,78,100
3,62,79,12
3,66,80,0
3,69,79,4
3,59,77,16
3,66,60,8
3,62,77,4
3,69,60,8
3,60,80,80
3,64,79,16
3,67,86,4
3,71,84,12
3,60,84,264
3,64,81,4
3,67,80,8
3,71,82,8
3,59,82,100
3,62,83,12
3,66,85,0
3,69,82,4
3,59,77,16
3,66,60,8
3,62,77,4
3,69,60,8
3,60,77,88
3,64,77,8
3,67,88,4
3,71,80,12
3,60,80,264
3,64,76,4
3,67,80,8
3,71,78,8
3,59,78,100
3,62,83,12
3,66,80,0
3,69,80,4
3,71,91,388
3,69,87,8
3,64,93,20
3,62,72,4
3,74,81,92
3,69,81,0
3,67,79,0
3,64,75,0
3,69,81,176
3,71,86,0
3,64,92,4
3,62,72,4
3,69,81,96
3,71,81,0
3,64,92,4
3,62,72,12
3,76,88,104
3,71,79,0
3,69,81,0
3,64,75,0
3,69,77,156
3,71,82,0
3,64,83,4
3,62,68,4
3,64,83,96
3,59,80,4
3,57,65,12
3,53,49,0
3,69,86,144
3,65,81,0
3,64,78,0
3,59,74,0
3,57,65,176
3,64,81,0
3,59,80,4
3,53,49,4
3,73,80,124
3,66,85,0
3,61,89,0
3,74,82,168
3,67,85,0
3,62,92,0
3,76,85,140
3,71,77,0
3,69,70,0
3,64,86,0
3,71,82,20
3,69,76,4
3,64,91,12
3,62,69,4
3,64,71,92
3,76,82,0
3,71,77,0
3,69,75,0
3,81,81,176
3,76,76,0
3,71,85,0
3,69,88,0
3,76,88,128
3,71,82,8
3,69,77,0
3,64,75,8
3,64,71,336
3,76,82,0
3,71,75,0
3,69,77,0
3,69,77,176
3,81,84,0
3,76,88,0
3,71,87,0
3,71,79,112
3,66,80,0
3,64,78,0
3,59,76,0
3,74,86,136
3,69,80,0
3,67,88,0
3,62,85,0
3,60,80,384
3,64,80,4
3,67,96,4
3,71,84,12
3,60,84,264
3,64,81,4
3,67,80,8
3,71,82,8
3,59,82,100
3,62,83,12
3,66,85,0
3,69,82,4
3,59,77,8
3,66,60,8
3,62,77,4
3,69,60,8
3,60,90,84
3,64,80,12
3,67,96,4
3,71,84,12
3,60,84,264
3,64,81,4
3,67,80,8
3,71,82,8
3,59,82,100
3,62,83,12
3,66,85,0
3,69,82,4
3,59,77,16
3,66,60,8
3,62,77,4
3,69,60,8
3,60,80,80
3,64,80,16
3,67,96,4
3,71,84,12
3,60,84,264
3,64,81,4
3,67,80,8
3,71,82,8
3,59,82,100
3,62,83,12
3,66,85,0
3,69,82,4
3,59,77,16
3,66,60,8
3,62,77,4
3,69,60,8
3,60,80,88
3,64,80,8
3,67,96,4
3,71,84,12
3,60,84,264
3,64,81,4
3,67,80,8
3,71,82,8
3,59,82,100
3,62,83,12
3,66,85,0
3,69,82,4
3,64,80,408
3,67,96,4
3,60,76,4
3,71,84,8
3,60,84,264
3,64,81,4
3,67,80,8
3,71,82,8
3,59,82,100
3,62,83,12
3,66,85,0
3,69,82,4
3,71,83,116
3,69,76,8
3,64,86,20
3,62,69,4
3,74,86,92
3,69,81,0
3,67,79,0
3,64,75,0
3,69,81,176
3,71,86,0
3,64,92,4
3,62,72,4
3,71,86,96
3,64,92,4
3,69,81,4
3,62,72,8
3,76,86,96
3,71,79,0
3,69,81,0
3,64,75,0
3,69,81,156
3,71,86,0
3,64,92,4
3,62,72,4
3,59,80,92
3,64,81,4
3,57,65,8
3,53,49,8
3,69,86,144
3,65,81,0
3,64,76,0
3,59,77,0
3,57,65,176
3,64,81,0
3,59,80,4
3,53,49,4
3,73,80,124
3,66,85,0
3,61,89,0
3,74,82,168
3,67,85,0
3,62,92,0
3,76,85,140
3,71,77,0
3,69,70,0
3,64,86,0
3,69,81,0
3,71,83,4
3,62,69,0
3,64,91,4
3,64,75,92
3,76,86,0
3,71,81,0
3,69,79,0
3,81,85,176
3,76,80,0
3,71,89,0
3,69,92,0
3,76,92,128
3,71,86,8
3,69,81,0
3,64,79,8
3,64,75,336
3,76,86,0
3,71,79,0
3,69,81,0
3,69,81,176
3,81,88,0
3,76,92,0
3,71,91,0
3,71,79,112
3,66,80,0
3,64,78,0
3,59,76,0
3,74,86,136
3,69,80,0
3,67,83,0
3,62,85,0
3,60,81,384
3,64,81,4
3,67,90,4
3,71,91,12
3,60,84,264
3,64,81,4
3,67,80,8
3,71,82,8
3,59,77,100
3,62,83,12
3,66,85,0
3,69,82,4
3,59,77,8
3,66,60,8
3,62,77,4
3,69,60,8
3,60,86,84
3,64,80,8
3,67,89,4
3,71,85,8
3,60,84,272
3,64,81,4
3,67,80,8
3,71,82,8
3,59,82,100
3,62,83,12
3,66,85,0
3,69,82,4
3,59,77,8
3,66,60,8
3,62,77,4
3,69,60,8
3,60,84,84
3,64,83,8
3,67,89,4
3,71,88,8
3,60,84,284
3,64,81,4
3,67,80,8
3,71,82,8
3,59,82,100
3,62,83,12
3,66,85,0
3,69,82,4
3,59,77,16
3,66,60,8
3,62,77,4
3,69,60,8
3,60,86,84
3,64,86,8
3,67,89,4
3,71,88,8
3,60,84,272
3,64,81,4
3,67,80,8
3,71,82,8
3,59,82,100
3,62,83,12
3,66,85,0
3,69,82,4
3,69,81,136
3,64,92,12
3,62,72,4
3,71,86,0
3,74,86,92
3,69,81,0
3,67,79,0
3,64,75,0
3,69,81,176
3,71,86,0
3,64,92,4
3,62,72,4
3,69,81,88
3,71,86,8
3,64,92,4
3,62,72,12
3,76,86,104
3,71,79,0
3,69,81,0
3,64,75,0
3,69,81,156
3,71,86,0
3,64,92,4
3,62,72,4
3,59,80,92
3,64,81,4
3,57,65,8
3,53,49,8
3,69,82,144
3,65,69,0
3,64,82,0
3,59,74,0
3,57,65,176
3,64,81,0
3,59,80,4
3,53,49,4
3,73,84,124
3,66,89,0
3,61,93,0
3,74,86,180
3,67,89,0
3,62,96,0
3,76,89,176
3,71,81,0
3,69,74,0
3,64,90,0
3,69,81,32
3,71,83,4
3,62,69,4
3,64,91,4
3,64,75,92
3,76,86,0
3,71,81,0
3,69,79,0
3,81,85,176
3,76,80,0
3,71,89,0
3,69,92,0
3,76,92,128
3,71,86,8
3,69,81,0
3,64,79,8
3,64,75,336
3,76,86,0
3,71,79,0
3,69,81,0
3,69,81,176
3,81,81,0
3,76,92,0
3,71,91,0
3,71,86,112
3,66,80,0
3,64,78,8
