track,note,velocity,time
0,40,89,1730
0,52,70,182
0,57,87,6
0,61,93,6
0,33,89,2
0,64,82,0
0,76,100,364
0,57,48,24
0,62,68,12
0,71,93,6
0,66,85,0
0,69,68,2
0,54,85,156
0,66,87,0
0,52,89,66
0,64,82,0
0,62,78,8
0,62,87,0
0,66,85,2
0,50,89,2
0,69,91,2
0,73,89,12
0,49,91,16
0,61,85,0
0,62,91,6
0,50,87,2
0,61,72,0
0,64,91,4
0,68,85,2
0,61,78,2
0,49,89,2
0,71,87,0
0,68,82,24
0,64,93,4
0,49,95,4
0,61,91,6
0,59,82,10
0,50,82,4
0,62,91,2
0,67,91,4
0,62,82,0
0,71,80,6
0,52,85,2
0,64,80,8
0,47,93,4
0,59,91,8
0,55,78,4
0,59,98,2
0,62,87,4
0,57,87,14
0,45,87,6
0,61,86,0
0,45,85,0
0,56,78,0
0,49,95,2
0,61,87,0
0,64,87,2
0,64,98,16
0,76,100,4
0,49,95,4
0,61,91,0
0,50,89,8
0,62,89,2
0,62,91,0
0,66,91,6
0,71,98,4
0,52,89,14
0,64,89,2
0,47,100,8
0,59,91,2
0,65,93,4
0,68,85,6
0,73,87,4
0,57,91,8
0,45,95,2
0,56,80,0
0,44,89,2
0,56,93,0
0,59,86,6
0,66,78,4
0,63,80,0
0,66,87,10
0,59,78,28
0,54,62,100
0,49,78,12
0,67,80,0
0,59,82,2
0,62,82,2
0,62,85,30
0,59,74,0
0,54,76,6
0,45,57,2
0,42,98,6
0,49,80,0
0,54,85,2
0,57,74,74
0,45,95,0
0,57,93,16
0,45,91,6
0,57,82,82
0,57,82,22
0,61,95,2
0,64,87,8
0,69,95,88
0,71,98,100
0,52,88,14
0,58,78,2
0,59,93,10
0,72,89,0
0,61,88,4
0,45,76,2
0,64,70,2
0,73,82,2
0,69,82,4
0,57,89,8
0,72,82,8
0,76,96,2
0,73,85,0
0,61,89,4
0,64,100,4
0,71,85,4
0,49,98,2
0,61,93,2
0,69,64,2
0,52,95,84
0,64,87,8
0,57,66,0
0,54,100,4
0,50,78,0
0,61,74,4
0,66,92,0
0,66,72,6
0,57,89,0
0,69,85,8
0,57,102,20
0,69,100,4
0,57,68,28
0,61,80,6
0,66,63,4
0,62,89,10
0,47,80,6
0,63,98,2
0,51,68,0
0,54,78,2
0,71,85,78
0,61,91,0
0,69,85,2
0,59,100,4
0,68,85,12
0,57,89,14
0,52,95,28
0,66,85,6
0,76,88,2
0,52,100,6
0,61,87,0
0,64,85,4
0,40,87,0
0,52,85,2
0,76,95,2
0,49,93,172
0,73,91,0
0,49,97,6
0,73,91,8
0,66,64,100
0,45,93,6
0,69,94,4
0,45,97,12
0,78,91,0
0,69,91,6
0,81,87,90
0,42,90,2
0,56,68,0
0,76,91,0
0,66,84,4
0,59,93,4
0,64,82,4
0,80,91,4
0,66,89,20
0,42,90,2
0,56,87,14
0,59,87,28
0,62,78,22
0,68,80,94
0,76,89,18
0,66,96,2
0,33,94,26
0,45,72,2
0,57,78,0
0,69,85,0
0,61,84,0
0,64,70,12
0,61,70,2
0,64,85,2
0,69,66,2
0,37,86,20
0,56,76,4
0,61,87,6
0,64,91,4
0,68,82,2
0,69,86,4
0,66,85,2
0,69,76,8
0,64,66,16
0,67,85,16
0,61,91,0
0,63,82,2
0,58,82,0
0,60,100,2
0,36,82,6
0,60,76,76
0,66,80,4
0,59,85,0
0,59,100,4
0,57,89,2
0,62,100,0
0,35,84,4
0,58,62,78
0,57,85,4
0,57,89,26
0,53,68,4
0,54,72,48
0,62,85,2
0,66,76,42
0,57,57,4
0,69,100,72
0,59,66,6
0,74,85,26
0,57,76,4
0,57,85,8
0,66,78,2
0,62,95,0
0,59,100,2
0,54,62,0
0,78,87,2
0,40,82,2
0,52,56,64
0,57,52,18
0,59,85,12
0,62,85,14
0,65,78,4
0,68,80,0
0,66,80,0
0,33,87,0
0,56,70,0
0,64,80,0
0,61,66,6
0,45,70,0
0,64,72,4
0,64,78,12
0,61,63,2
0,76,80,0
0,74,80,0
0,73,80,0
0,52,82,12
0,40,93,2
0,57,70,0
0,66,56,0
0,62,82,2
0,57,70,12
0,66,82,8
0,62,95,2
0,69,80,0
0,57,53,4
0,71,80,0
0,45,66,4
0,56,82,2
0,33,90,4
0,68,80,0
0,61,80,0
0,64,85,2
0,64,80,0
0,64,80,0
0,61,68,4
0,64,70,2
0,61,80,0
0,64,80,0
0,57,64,0
0,50,82,2
0,40,96,4
0,62,89,0
0,66,72,4
0,69,100,188
0,52,94,18
0,62,78,6
0,68,80,0
0,68,87,4
0,66,80,0
0,45,64,16
0,56,78,0
0,64,80,0
0,33,91,4
0,61,68,0
0,64,82,2
0,56,57,16
0,61,80,4
0,64,80,4
0,76,80,0
0,74,80,0
0,56,66,20
0,73,80,0
0,66,64,24
0,57,85,0
0,52,85,0
0,62,91,4
0,40,98,2
0,57,70,14
0,69,80,0
0,66,82,6
0,62,95,4
0,71,80,0
0,73,80,0
0,57,66,6
0,56,68,2
0,44,64,0
0,44,89,4
0,59,87,4
0,63,64,2
0,56,66,16
0,59,100,6
0,63,82,2
0,75,91,102
0,78,82,2
0,49,80,2
0,61,64,6
0,65,95,2
0,37,80,2
0,74,87,8
0,67,82,0
0,79,87,10
0,73,87,6
0,49,62,0
0,71,80,0
0,77,100,6
0,79,68,10
0,71,80,0
0,71,80,0
0,37,58,6
0,42,64,0
0,54,82,4
0,69,80,0
0,42,78,4
0,57,82,2
0,61,91,6
0,64,82,10
0,57,64,34
0,61,98,28
0,64,93,6
0,69,87,94
0,71,89,80
0,55,80,32
0,73,93,0
0,45,90,2
0,57,87,6
0,66,80,0
0,61,70,0
0,73,107,76
0,72,100,4
0,76,78,8
0,73,80,0
0,64,93,6
0,71,93,74
0,71,80,0
0,69,82,48
0,71,80,0
0,57,68,16
0,50,66,2
0,61,72,2
0,38,72,2
0,69,80,0
0,66,64,2
0,54,82,194
0,57,85,12
0,61,85,28
0,64,80,68
0,66,74,42
0,75,80,92
0,62,74,4
0,63,90,14
0,59,80,2
0,47,85,2
0,71,85,186
0,68,80,0
0,69,70,8
0,66,80,0
0,66,80,0
0,57,64,16
0,40,82,4
0,47,82,0
0,62,82,4
0,66,68,8
0,64,80,0
0,66,87,34
0,69,72,26
0,62,66,4
0,78,85,102
0,81,89,72
0,59,68,2
0,40,80,8
0,71,82,10
0,76,98,6
0,80,93,4
0,78,80,0
0,76,80,0
0,73,80,0
0,71,80,0
0,62,58,4
0,69,80,0
0,76,82,16
0,45,76,8
0,52,67,4
0,69,60,2
0,57,78,2
0,61,61,4
0,45,82,2
0,73,70,2
0,64,67,0
0,81,85,2
0,69,52,0
0,57,80,0
0,76,85,2
0,52,61,0
0,57,67,2
0,61,58,0
0,64,58,0
0,69,50,2
0,69,40,2
0,64,50,2
0,61,38,2
0,57,64,0
0,52,38,4
0,52,67,0
0,57,78,0
0,61,73,0
0,64,58,0
0,69,70,2
0,59,72,84
0,78,80,0
0,71,87,2
0,52,52,6
0,61,74,2
0,73,78,2
0,57,58,0
0,61,55,2
0,45,78,2
0,64,64,0
0,69,52,4
0,69,44,0
0,64,55,0
0,64,85,4
0,61,40,0
0,76,87,4
0,57,64,0
0,76,80,0
0,52,40,0
0,52,76,4
0,56,73,0
0,61,73,4
0,37,82,2
0,64,70,0
0,73,58,4
0,52,46,4
0,56,50,0
0,52,93,2
0,61,52,2
0,64,64,0
0,73,50,4
0,49,68,2
0,73,44,0
0,64,50,0
0,61,40,4
0,56,50,4
0,56,66,2
0,52,44,0
0,52,73,0
0,59,91,2
0,56,73,0
0,61,64,0
0,64,70,0
0,73,68,4
0,66,72,82
0,68,82,0
0,71,104,6
0,52,55,6
0,55,66,2
0,55,55,0
0,36,66,4
0,60,55,0
0,66,78,4
0,63,58,0
0,72,50,2
0,72,38,0
0,63,52,4
0,58,82,4
0,60,46,0
0,55,48,2
0,64,78,2
0,52,42,2
0,54,61,0
0,66,87,0
0,59,73,4
0,35,60,2
0,62,61,0
0,54,64,0
0,57,82,0
0,66,64,0
0,69,64,2
0,69,87,6
0,54,44,0
0,59,55,0
0,62,52,6
0,66,58,2
0,69,50,2
0,69,46,0
0,74,82,2
0,66,44,0
0,62,42,0
0,59,46,4
0,54,44,4
0,54,64,0
0,59,78,4
0,62,70,0
0,66,61,0
0,69,58,2
0,54,52,0
0,59,58,0
0,62,52,2
0,42,95,2
0,66,46,0
0,69,46,2
0,69,42,2
0,66,52,0
0,62,42,4
0,59,48,2
0,54,44,2
0,47,74,8
0,54,67,0
0,57,64,4
0,59,70,2
0,40,98,2
0,62,61,0
0,62,82,2
0,66,66,4
0,66,64,0
0,69,46,6
0,54,48,0
0,59,50,4
0,62,44,2
0,66,61,0
0,69,48,4
0,69,40,0
0,66,52,0
0,62,46,0
0,59,46,4
0,54,42,4
0,53,58,0
0,59,64,0
0,62,52,0
0,57,57,4
0,65,64,0
0,62,76,4
0,69,74,0
0,65,60,14
0,73,80,0
0,53,42,4
0,59,48,2
0,62,50,2
0,76,80,0
0,65,58,0
0,69,48,4
0,69,44,0
0,65,46,4
0,62,42,0
0,59,46,4
0,78,80,0
0,53,42,2
0,52,61,2
0,33,82,0
0,76,80,0
0,57,76,0
0,56,84,2
0,61,88,2
0,61,64,0
0,45,91,0
0,64,97,2
0,64,74,2
0,68,74,2
0,69,52,2
0,52,42,6
0,61,95,4
0,57,40,0
0,61,44,4
0,64,52,0
0,69,46,6
0,64,88,6
0,69,42,4
0,64,38,0
0,61,40,0
0,57,48,4
0,52,46,6
0,68,102,6
0,52,64,0
0,57,70,0
0,61,61,0
0,64,64,0
0,69,58,4
0,73,100,76
0,52,50,0
0,57,58,0
0,33,76,4
0,76,106,0
0,61,52,0
0,64,64,4
0,69,48,2
0,69,40,2
0,64,50,0
0,61,40,0
0,57,42,4
0,52,42,2
0,52,70,0
0,55,67,0
0,61,58,0
0,34,87,2
0,64,58,2
0,58,91,2
0,46,86,2
0,73,55,0
0,61,99,2
0,64,106,4
0,52,52,0
0,55,61,4
0,61,58,2
0,64,64,0
0,73,52,2
0,73,40,2
0,64,48,0
0,64,86,2
0,61,42,0
0,55,50,0
0,52,46,4
0,52,61,0
0,55,70,0
0,61,58,0
0,64,76,4
0,70,97,2
0,73,56,2
0,73,99,82
0,73,80,0
0,52,52,0
0,76,104,0
0,73,80,0
0,34,85,2
0,55,64,0
0,61,52,4
0,64,58,2
0,73,55,2
0,64,46,0
0,76,80,0
0,61,44,0
0,55,58,0
0,52,40,6
0,54,58,0
0,57,74,0
0,47,84,4
0,59,73,0
0,62,93,2
0,76,80,0
0,62,61,2
0,35,89,2
0,66,70,0
0,66,74,4
0,69,55,0
0,74,80,0
0,54,48,0
0,59,50,0
0,62,50,0
0,73,80,0
0,66,58,0
0,69,52,4
0,69,40,0
0,66,48,0
0,62,46,0
0,59,52,0
0,74,80,0
0,54,38,2
0,54,58,0
0,59,76,4
0,57,86,2
0,62,61,0
0,66,61,0
0,69,55,4
0,62,84,22
0,73,80,0
0,54,61,0
0,66,80,2
0,59,58,0
0,62,55,0
0,66,67,0
0,71,80,0
0,69,50,0
0,30,85,4
0,69,46,2
0,66,52,0
0,62,40,0
0,59,58,4
0,54,46,4
0,57,76,2
0,52,78,0
0,57,67,0
0,62,104,2
0,47,86,2
0,62,70,0
0,66,82,4
0,66,67,0
0,28,87,2
0,71,58,0
0,52,52,4
0,59,55,2
0,64,48,2
0,68,64,2
0,69,106,2
0,71,52,2
0,71,42,0
0,68,52,0
0,64,40,0
0,68,88,6
0,59,58,0
0,52,40,4
0,52,70,0
0,52,84,2
0,59,64,0
0,64,58,2
0,68,70,2
0,71,55,2
0,64,80,0
0,59,91,2
0,64,95,2
0,52,44,4
0,59,42,2
0,64,44,2
0,68,50,2
0,64,80,0
0,71,48,2
0,71,42,0
0,68,52,0
0,64,46,0
0,59,64,4
0,34,82,2
0,76,80,0
0,52,48,2
0,47,86,4
0,57,74,0
0,62,93,2
0,54,70,0
0,35,89,4
0,59,76,0
0,66,80,2
0,62,52,0
0,66,61,4
0,69,52,4
0,74,80,0
0,54,40,6
0,59,50,0
0,73,80,0
0,62,52,0
0,66,58,0
0,69,48,4
0,69,38,0
0,66,44,4
0,62,42,0
0,74,80,0
0,59,44,0
0,62,65,2
0,54,44,2
0,54,63,0
0,59,72,0
0,62,69,0
0,66,88,2
0,66,72,0
0,69,54,4
0,73,80,0
0,69,70,2
0,54,48,0
0,59,67,0
0,62,50,4
0,66,58,2
0,30,82,2
0,71,80,0
0,69,50,0
0,74,93,4
0,69,40,0
0,66,52,0
0,62,38,0
0,59,55,4
0,54,38,4
0,52,67,4
0,67,97,2
0,52,70,2
0,59,73,2
0,56,74,2
0,64,50,2
0,28,91,2
0,68,67,0
0,71,64,2
0,64,70,4
0,68,106,0
0,59,72,4
0,52,50,0
0,59,55,0
0,64,52,0
0,68,61,0
0,71,48,0
0,69,88,0
0,71,44,4
0,68,61,0
0,64,42,0
0,59,70,0
0,71,95,6
0,52,46,0
0,52,58,0
0,59,78,0
0,59,84,4
0,64,70,0
0,56,65,2
0,68,67,0
0,64,70,2
0,71,61,2
0,76,97,82
0,69,80,0
0,52,55,0
0,59,58,0
0,64,55,0
0,74,88,0
0,71,80,0
0,68,64,0
0,71,50,2
0,71,44,4
0,68,58,0
0,64,44,0
0,59,70,0
0,52,42,2
0,69,80,0
0,42,74,2
0,66,86,4
0,54,76,2
0,69,95,2
0,73,86,2
0,57,73,0
0,73,80,0
0,54,76,2
0,61,58,0
0,30,84,2
0,73,88,0
0,66,67,2
0,69,55,2
0,76,80,0
0,54,50,0
0,57,61,0
0,78,80,0
0,61,55,0
0,66,64,0
0,69,55,4
0,69,52,0
0,66,55,0
0,61,46,0
0,76,80,0
0,57,70,0
0,54,46,4
0,69,104,0
0,54,79,0
0,73,80,0
0,57,79,0
0,61,73,0
0,66,73,2
0,69,58,2
0,71,97,2
0,71,80,0
0,54,46,0
0,73,99,4
0,57,73,0
0,69,80,0
0,61,58,0
0,66,64,0
0,69,55,4
0,69,38,0
0,66,58,4
0,61,48,0
0,57,64,0
0,54,42,4
0,52,70,2
0,57,78,4
0,33,85,2
0,57,86,0
0,61,55,2
0,67,64,4
0,61,96,2
0,45,88,0
0,69,55,4
0,64,77,4
0,52,67,2
0,57,64,0
0,61,61,0
0,67,61,2
0,69,50,2
0,57,99,8
0,69,50,6
0,67,64,4
0,61,46,0
0,57,76,4
0,52,48,4
0,69,84,2
0,61,84,4
0,72,94,4
0,52,70,0
0,57,82,0
0,73,101,2
0,61,73,0
0,67,67,0
0,76,114,2
0,69,67,0
0,64,112,8
0,71,92,70
0,52,52,0
0,69,101,4
0,57,67,0
0,61,52,0
0,67,64,0
0,69,52,4
0,69,52,0
0,67,70,0
0,61,48,0
0,81,80,0
0,57,64,0
0,52,46,4
0,38,90,2
0,57,99,0
0,62,105,4
0,50,73,0
0,78,80,0
0,57,78,0
0,38,85,2
0,66,99,0
0,62,78,0
0,50,92,2
0,66,61,0
0,69,52,2
0,57,90,4
0,50,46,0
0,57,50,0
0,62,52,0
0,66,64,0
0,69,50,4
0,69,55,0
0,66,61,0
0,62,55,0
0,62,110,0
0,78,80,0
0,57,73,0
0,50,52,4
0,50,80,0
0,57,82,0
0,62,56,0
0,66,71,0
0,69,56,4
0,57,71,4
0,62,112,0
0,81,80,0
0,66,88,4
0,69,110,2
0,50,61,0
0,57,70,2
0,62,58,0
0,66,64,0
0,69,50,4
0,69,42,2
0,66,58,6
0,62,42,4
0,57,70,2
0,80,80,0
0,50,44,4
0,44,80,0
0,66,88,4
0,51,64,0
0,56,91,0
0,32,82,2
0,63,86,0
0,56,67,0
0,60,91,2
0,60,61,0
0,66,73,4
0,72,58,2
0,51,55,0
0,78,80,0
0,56,61,0
0,60,50,0
0,56,76,2
0,66,67,0
0,72,50,4
0,72,40,0
0,66,52,4
0,60,46,0
