track,note,velocity,time
0,35,107,287
0,60,39,48
0,67,71,0
0,64,89,0
0,60,105,1
0,57,81,0
0,59,117,0
0,67,117,4
0,60,117,0
0,64,51,4
0,67,31,0
0,35,103,5
0,38,91,0
0,67,85,24
0,60,85,0
0,59,77,0
0,67,47,13
0,64,85,0
0,60,93,0
0,57,81,0
0,67,55,12
0,67,77,0
0,60,93,0
0,59,81,0
0,35,99,12
0,59,77,24
0,67,81,0
0,60,93,0
0,60,39,17
0,56,59,0
0,59,97,1
0,60,105,0
0,64,81,0
0,64,55,1
0,37,43,0
0,35,103,0
0,59,85,1
0,60,113,0
0,67,93,0
0,56,59,37
0,64,89,0
0,60,105,0
0,59,93,1
0,59,93,0
0,67,105,3
0,60,117,0
0,56,31,9
0,35,103,12
0,67,67,25
0,60,85,0
0,57,77,0
0,64,81,1
0,59,93,0
0,60,93,0
0,67,47,12
0,60,81,0
0,59,37,0
0,67,49,1
0,35,99,13
0,38,79,0
0,59,117,23
0,67,89,1
0,60,117,0
0,67,55,16
0,57,73,0
0,60,81,1
0,64,73,0
0,67,47,12
0,67,117,0
0,60,117,0
0,59,117,0
0,35,95,7
0,64,55,25
0,62,89,0
0,57,45,0
0,55,45,1
0,56,63,9
0,67,85,0
0,62,77,0
0,57,73,0
0,56,11,5
0,35,103,16
0,37,43,1
0,62,105,0
0,57,85,0
0,64,51,8
0,56,39,17
0,67,85,0
0,62,85,0
0,57,61,1
0,62,117,0
0,59,69,0
0,57,97,0
0,35,99,25
0,60,39,48
0,67,59,0
0,57,73,0
0,60,85,1
0,64,81,0
0,59,117,0
0,60,117,0
0,67,117,0
0,64,51,5
0,67,55,0
0,60,45,0
0,59,41,1
0,35,99,3
0,38,91,1
0,67,65,24
0,60,85,0
0,59,73,0
0,67,55,12
0,64,77,0
0,60,81,0
0,57,73,1
0,67,59,11
0,67,57,1
0,60,93,0
0,59,73,0
0,35,95,12
0,67,105,24
0,60,117,0
0,59,117,0
0,60,39,5
0,56,47,0
0,59,85,0
0,60,93,1
0,64,81,0
0,64,55,1
0,37,43,1
0,35,107,0
0,67,61,0
0,60,97,0
0,59,81,0
0,56,47,37
0,64,81,0
0,60,93,0
0,59,77,1
0,67,97,0
0,60,113,0
0,59,89,0
0,56,27,8
0,35,127,17
0,67,47,21
0,64,77,0
0,60,85,0
0,57,77,0
0,67,57,0
0,60,97,0
0,59,85,1
0,67,47,11
0,67,33,0
0,60,57,0
0,59,65,0
0,38,87,12
0,35,127,0
0,59,73,24
0,67,45,0
0,60,81,0
0,67,47,0
0,60,85,0
0,57,73,0
0,64,89,1
0,67,47,13
0,67,105,0
0,60,117,0
0,59,105,1
0,35,127,12
0,64,55,24
0,56,39,0
0,49,79,0
0,40,127,1
0,62,93,0
0,59,21,0
0,57,81,0
0,67,85,1
0,62,77,0
0,57,69,0
0,56,55,12
0,37,43,17
0,56,79,0
0,35,127,0
0,62,93,1
0,57,77,0
0,69,112,3
0,64,51,9
0,72,88,1
0,56,43,20
0,67,89,0
0,62,65,0
0,67,89,0
0,62,85,0
0,57,73,0
0,62,105,1
0,57,85,0
0,74,92,1
0,56,51,1
0,69,53,0
0,64,53,0
0,76,80,1
0,74,100,4
0,35,107,0
0,42,91,0
0,33,108,0
0,62,13,0
0,67,21,4
0,42,31,8
0,60,39,5
0,67,71,0
0,44,79,0
0,64,89,0
0,60,105,0
0,57,81,0
0,67,117,0
0,60,117,1
0,59,117,0
0,64,51,4
0,67,31,0
0,42,31,0
0,33,64,0
0,38,91,4
0,35,103,0
0,42,31,0
0,33,72,1
0,42,103,9
0,67,85,0
0,60,85,1
0,59,77,0
0,67,5,0
0,67,47,8
0,44,71,0
0,31,72,0
0,57,81,1
0,60,93,0
0,64,85,0
0,67,55,11
0,42,43,0
0,67,77,0
0,60,93,1
0,59,81,0
0,35,99,12
0,42,3,0
0,28,112,0
0,42,47,17
0,60,93,0
0,59,77,0
0,67,81,1
0,56,59,3
0,44,91,0
0,60,39,1
0,59,97,0
0,60,105,0
0,64,81,0
0,64,17,0
0,69,13,0
0,42,47,1
0,64,55,0
0,28,112,0
0,37,43,1
0,35,103,0
0,28,112,0
0,67,13,0
0,62,1,0
0,67,93,1
0,60,113,0
0,59,85,0
0,72,108,1
0,42,103,8
0,44,75,5
0,56,59,1
0,31,88,0
0,67,13,0
0,62,5,0
0,64,89,0
0,60,105,0
0,59,93,0
0,67,105,0
0,60,117,1
0,59,93,0
0,56,31,1
0,42,43,0
0,64,5,0
0,69,88,0
0,35,103,7
0,33,88,1
0,62,9,0
0,67,29,1
0,42,31,1
0,67,67,4
0,44,67,0
0,64,81,0
0,60,85,1
0,57,77,0
0,60,93,3
0,59,93,0
0,67,47,8
0,42,31,0
0,33,84,0
0,59,37,1
0,60,81,0
0,64,21,0
0,69,21,0
0,67,49,0
0,42,31,4
0,38,79,1
0,35,99,0
0,33,84,1
0,42,99,4
0,59,117,0
0,67,89,1
0,60,117,0
0,62,13,0
0,67,29,0
0,67,55,8
0,44,75,0
0,31,88,0
0,64,73,0
0,60,81,0
0,57,73,0
0,67,47,1
0,42,43,0
0,59,117,0
0,60,117,1
0,67,117,0
0,42,3,4
0,35,95,1
0,28,112,0
0,64,55,12
0,42,47,0
0,62,89,0
0,57,45,0
0,55,45,0
0,56,63,4
0,44,75,0
0,28,112,0
0,67,85,1
0,62,77,0
0,57,73,0
0,42,47,3
0,56,11,1
0,37,43,13
0,35,103,0
0,28,112,0
0,57,85,0
0,62,112,1
0,62,105,0
0,65,108,8
0,64,51,0
0,42,103,0
0,67,108,16
0,56,39,0
0,44,67,0
0,31,92,0
0,67,85,0
0,62,85,0
0,57,61,1
0,62,117,2
0,59,69,0
0,57,97,0
0,62,25,0
0,67,45,1
0,69,92,1
0,42,43,0
0,64,13,0
0,35,99,12
0,33,108,0
0,67,25,0
0,62,13,1
0,67,112,3
0,42,31,8
0,67,59,4
0,44,67,0
0,60,39,1
0,57,73,0
0,60,85,0
0,64,81,0
0,59,117,0
0,60,117,1
0,67,117,0
0,64,51,1
0,67,55,0
0,42,31,0
0,33,76,0
0,69,29,0
0,64,21,0
0,60,45,0
0,59,41,1
0,35,99,5
0,42,31,0
0,38,91,1
0,33,88,0
0,42,99,4
0,67,29,0
0,62,21,0
0,67,65,1
0,60,85,0
0,59,73,0
0,44,75,1
0,67,55,0
0,31,80,0
0,57,73,0
0,60,81,0
0,64,77,1
0,67,59,11
0,42,43,0
0,60,93,0
0,59,73,0
0,67,57,1
0,35,95,4
0,42,3,0
0,28,112,0
0,42,47,12
0,59,117,1
0,60,117,0
0,67,105,0
0,60,39,3
0,56,47,0
0,44,75,0
0,59,85,1
0,60,93,0
0,64,81,0
0,64,29,0
0,69,17,0
0,64,55,1
0,42,47,0
0,28,100,1
0,63,108,0
0,37,43,0
0,35,107,0
0,28,108,0
0,62,112,1
0,67,25,0
0,62,5,0
0,67,61,0
0,60,97,0
0,59,81,0
0,42,103,9
0,60,32,1
0,56,47,0
0,44,67,0
0,31,84,1
0,59,77,0
0,60,93,1
0,64,81,0
0,59,89,0
0,60,113,0
0,62,25,0
0,67,41,0
0,67,97,1
0,62,80,8
0,56,27,0
0,42,43,0
0,64,21,0
0,35,127,8
0,33,88,1
0,62,13,0
0,67,29,0
0,42,31,0
0,60,56,4
0,44,67,13
0,67,47,0
0,57,77,0
0,60,85,1
0,64,77,0
0,59,85,3
0,67,57,0
0,60,97,0
0,67,47,8
0,42,31,0
0,33,76,0
0,69,25,1
0,64,21,0
0,67,33,0
0,60,57,0
0,59,65,0
0,38,87,7
0,35,127,0
0,42,31,0
0,33,100,1
0,42,99,4
0,67,25,0
0,62,21,0
0,67,45,1
0,60,81,0
0,59,73,0
0,67,47,1
0,44,75,0
0,31,80,1
0,57,73,0
0,60,85,0
0,64,89,0
0,67,47,12
0,42,43,0
0,67,105,1
0,60,117,0
0,59,105,0
0,42,3,7
0,35,127,1
0,28,112,0
0,64,55,16
0,56,39,0
0,42,47,0
0,57,81,1
0,59,21,0
0,62,93,0
0,44,75,1
0,28,112,0
0,62,77,0
0,57,69,0
0,67,85,1
0,56,55,9
0,42,47,0
0,37,43,5
0,56,79,0
0,35,127,0
0,31,92,1
0,62,93,0
0,57,77,0
0,69,112,3
0,42,103,8
0,64,51,1
0,72,88,0
0,56,43,17
0,44,67,0
0,31,88,1
0,57,73,0
0,62,85,0
0,67,89,0
0,74,92,1
0,67,41,0
0,62,25,0
0,62,105,0
0,57,85,0
0,56,51,4
0,42,43,0
0,64,9,0
0,76,80,1
0,35,107,9
0,33,108,0
0,67,21,0
0,62,9,0
0,74,112,4
0,42,31,8
0,60,39,12
0,67,59,0
0,44,67,0
0,57,73,1
0,60,81,0
0,64,81,0
0,59,105,0
0,60,117,0
0,67,93,1
0,64,51,6
0,67,47,0
0,42,31,0
0,33,72,0
0,59,49,1
0,64,29,0
0,60,29,0
0,67,13,0
0,69,25,1
0,42,31,4
0,38,83,1
0,35,103,0
0,33,88,1
0,42,99,4
0,67,57,0
0,60,73,0
0,59,57,1
0,67,33,0
0,62,21,0
0,67,47,1
0,44,75,0
0,31,88,1
0,57,73,0
0,60,81,0
0,64,81,0
0,67,55,8
0,42,43,0
0,59,77,0
0,60,89,1
0,67,57,0
0,42,3,9
0,35,99,0
0,28,112,0
0,42,47,17
0,67,69,0
0,60,89,0
0,59,77,1
0,56,67,8
0,44,75,0
0,60,39,1
0,59,81,0
0,60,89,0
0,64,85,0
0,64,25,0
0,69,17,0
0,42,47,1
0,64,55,1
0,56,43,0
0,28,112,0
0,37,43,1
0,35,103,0
0,28,112,0
0,67,41,0
0,62,13,0
0,67,77,0
0,60,117,1
0,59,93,0
0,72,100,2
0,42,103,8
0,56,63,9
0,44,67,0
0,31,92,0
0,64,89,1
0,60,93,0
0,59,85,0
0,67,89,0
0,60,113,0
0,59,93,0
0,67,25,3
0,62,21,0
0,56,43,5
0,42,43,0
0,64,9,1
0,69,1,0
0,69,88,1
0,35,103,4
0,33,88,1
0,62,17,0
0,67,29,1
0,42,31,0
0,67,39,4
0,44,67,0
0,57,85,1
0,60,93,0
0,64,81,0
0,59,81,0
0,60,93,0
0,67,65,0
0,67,19,3
0,42,31,0
0,33,76,0
0,69,29,1
0,64,29,0
0,67,45,0
0,60,73,0
0,59,69,0
0,42,31,8
0,35,99,0
0,38,87,0
0,33,92,0
0,42,99,4
0,60,113,0
0,59,89,0
0,67,13,1
0,62,13,0
0,67,49,0
0,67,63,0
0,44,75,0
0,31,84,1
0,64,81,0
0,60,81,0
0,57,73,0
0,67,31,12
0,42,43,0
0,67,97,0
0,60,117,1
0,59,117,0
0,35,95,5
0,42,3,0
0,28,112,0
0,64,55,1
0,42,47,0
0,57,69,0
0,62,77,1
0,44,75,5
0,28,112,0
0,57,61,1
0,62,77,0
0,67,81,0
0,42,47,8
0,35,103,4
0,37,43,1
0,31,108,0
0,57,85,0
0,62,97,0
0,62,112,3
0,42,103,9
0,64,51,0
0,65,92,0
0,44,67,17
0,31,84,1
0,62,81,0
0,57,73,0
0,67,85,0
0,57,117,0
0,62,17,1
0,67,33,0
0,62,117,0
0,67,100,0
0,69,80,1
0,42,43,1
0,64,5,0
0,67,112,9
0,35,99,0
0,33,112,0
0,67,33,1
0,62,13,0
0,42,31,8
0,67,63,8
0,44,67,0
0,60,39,1
0,57,73,0
0,60,77,0
0,64,69,0
0,60,73,3
0,59,57,0
0,67,35,4
0,42,31,0
0,64,51,1
0,33,76,0
0,69,25,0
0,64,25,0
0,67,41,0
0,60,53,0
0,59,61,1
0,38,83,4
0,35,99,0
0,42,31,0
0,33,84,1
0,42,99,5
0,60,93,0
0,59,81,0
0,67,29,1
0,62,17,0
0,67,69,0
0,67,43,4
0,44,75,0
0,31,92,0
0,64,73,1
0,60,97,0
0,57,81,0
0,42,43,11
0,67,59,1
0,67,57,0
0,60,85,1
0,59,77,0
0,35,95,8
0,42,3,1
0,28,112,0
0,42,47,12
0,59,93,1
0,67,73,0
0,60,117,0
0,56,75,9
0,44,75,0
0,60,39,1
0,69,29,0
0,64,29,0
0,64,85,0
0,60,93,0
0,59,85,0
0,64,55,1
0,42,47,0
0,28,100,0
0,63,112,1
0,35,107,0
0,37,43,0
0,28,112,0
0,59,73,0
0,60,93,0
0,67,65,0
0,67,17,3
0,62,13,0
0,62,72,0
0,64,72,1
0,42,103,9
0,44,67,16
0,56,71,1
0,31,108,0
0,64,81,1
0,60,93,0
0,59,85,0
0,67,89,0
0,60,117,0
0,59,93,1
0,67,29,1
0,62,25,0
0,56,51,5
0,42,43,0
0,63,88,1
0,64,9,0
0,62,112,1
0,35,127,7
0,33,92,1
0,67,29,0
0,62,13,0
0,42,31,4
0,60,88,5
0,67,83,0
0,44,67,0
0,64,65,1
0,60,77,0
0,57,77,0
0,67,53,0
0,60,81,0
0,59,73,0
0,42,31,8
0,67,59,1
0,33,84,0
0,64,13,1
0,67,41,0
0,60,49,0
0,59,61,0
0,69,25,3
0,42,31,7
0,38,83,1
0,35,127,0
0,33,92,1
0,42,99,7
0,59,81,1
0,60,93,0
0,67,77,0
0,62,21,1
0,67,29,0
0,67,59,1
0,44,75,0
0,31,92,0
0,57,77,1
0,60,85,0
0,64,85,0
0,42,43,11
0,67,51,1
0,67,97,0
0,60,117,0
0,59,105,1
0,42,3,1
0,35,127,0
0,28,112,1
0,42,47,17
0,64,55,0
0,56,47,0
0,57,77,1
0,62,85,0
0,44,75,4
0,28,112,1
0,67,93,0
0,62,85,1
0,57,77,0
0,42,47,8
0,35,127,12
0,49,71,1
0,37,43,0
0,56,51,0
0,32,112,1
0,62,93,0
0,57,85,0
0,42,103,11
0,64,51,1
0,44,67,1
0,32,88,0
0,57,85,1
0,67,25,0
0,62,9,0
0,67,117,0
0,62,93,0
0,62,117,0
0,57,85,1
0,42,43,9
0,56,31,0
0,69,1,0
0,35,107,0
0,42,91,0
0,33,108,1
0,62,13,0
0,67,21,0
0,42,31,8
0,44,79,16
0,60,39,1
0,67,71,0
0,64,89,1
0,60,105,0
0,57,81,0
0,67,117,0
0,60,117,0
0,59,117,0
0,42,31,4
0,64,51,1
0,67,31,0
0,33,64,1
0,42,31,4
0,38,91,1
0,35,103,0
0,33,72,0
0,42,103,13
0,67,5,0
0,62,1,0
0,67,85,1
0,60,85,0
0,59,77,0
0,44,71,9
0,67,47,0
0,31,72,0
0,64,85,1
0,60,93,0
0,57,81,0
0,67,55,12
0,42,43,0
0,59,81,0
0,60,93,1
0,67,77,0
0,35,99,11
0,42,3,1
0,28,112,0
0,42,47,16
0,67,81,1
0,60,93,0
0,59,77,0
0,60,39,16
0,56,59,0
0,44,91,0
0,59,97,0
0,60,105,1
0,64,81,0
0,64,21,0
0,69,17,0
0,42,47,0
0,64,55,1
0,28,112,0
0,37,43,1
0,35,103,0
0,28,112,1
0,59,85,0
0,62,5,0
0,60,113,0
0,67,93,0
0,67,13,1
0,42,103,9
0,44,75,5
0,56,59,0
0,31,88,0
0,64,89,1
0,60,105,0
0,59,93,0
0,67,105,3
0,60,117,0
0,59,93,0
0,62,9,1
0,67,17,0
0,56,31,9
0,42,43,0
0,64,5,1
0,35,103,8
0,33,88,1
0,67,29,0
0,62,9,1
0,42,31,1
0,44,67,16
0,67,67,1
0,64,81,0
0,60,85,0
0,57,77,0
0,60,93,0
0,59,93,1
0,42,31,8
0,67,47,1
0,33,84,0
0,59,37,1
0,60,81,0
0,67,49,0
0,69,21,0
0,64,21,1
0,42,31,8
0,38,79,0
0,35,99,0
0,33,84,1
0,42,99,13
0,67,29,0
0,62,17,0
0,67,89,1
0,60,117,0
0,59,117,0
0,44,75,4
0,67,55,1
0,31,88,0
0,64,73,1
0,60,81,0
0,57,73,0
0,42,43,11
0,67,47,1
0,59,117,0
0,60,117,1
0,67,117,0
0,42,3,4
0,35,95,1
0,28,112,0
0,42,47,16
0,64,55,1
0,57,45,0
