track,note,velocity,time
1,49,112,26
1,47,110,2
1,44,113,12
1,40,110,2
1,49,110,2
1,47,111,68
1,47,111,128
1,47,108,34
1,49,109,14
1,52,109,22
1,54,107,2
1,49,110,2
1,47,111,68
1,47,111,128
1,47,108,34
1,49,109,14
1,47,109,22
1,40,110,60
1,49,110,2
1,47,111,68
1,47,111,128
1,47,108,34
1,49,109,14
1,52,109,22
1,54,107,2
1,49,110,2
1,47,111,68
1,44,111,128
1,47,109,2
1,49,109,6
1,47,107,2
1,47,110,68
1,44,110,4
1,42,111,68
1,42,111,128
1,44,111,2
1,47,109,2
1,44,109,6
1,47,107,2
1,47,110,68
1,44,110,2
1,42,111,68
1,49,111,2
1,47,109,2
1,44,109,6
1,40,110,2
1,49,110,2
1,47,111,68
1,47,111,128
1,47,108,34
1,49,109,14
1,52,109,22
1,54,107,2
1,49,110,2
1,47,111,68
1,47,111,128
1,47,108,34
1,49,109,14
1,47,109,22
1,40,110,60
1,49,110,2
1,47,111,68
1,47,111,128
1,47,108,34
1,49,109,14
1,52,109,22
1,54,107,2
1,49,110,2
1,47,111,68
1,47,111,128
1,47,108,34
1,49,109,14
1,47,109,22
1,40,110,60
1,49,110,2
1,47,111,68
1,47,111,128
1,47,108,34
1,49,109,14
1,52,109,22
1,54,107,2
1,49,110,2
1,47,111,68
1,44,111,128
1,47,109,2
1,49,109,6
1,47,107,2
1,47,110,68
1,44,110,4
1,42,111,68
1,42,111,128
1,44,111,2
1,47,109,2
1,44,109,6
1,47,107,2
1,47,110,68
1,44,110,2
1,42,111,68
1,49,111,2
1,47,109,2
1,44,109,6
1,40,110,2
1,49,110,2
1,47,111,68
1,47,111,128
1,47,108,34
1,49,109,14
1,52,109,22
1,54,107,2
1,47,110,164
1,52,111,68
1,47,108,128
1,44,109,14
1,47,109,22
1,45,111,60
1,45,105,86
1,42,110,24
1,40,107,76
1,42,109,44
1,45,105,82
1,42,111,30
1,45,107,116
1,45,105,98
1,42,108,24
1,40,106,92
1,40,103,90
1,40,106,2
1,42,104,18
1,37,107,2
1,40,107,2
1,40,102,72
1,37,107,22
1,35,104,70
1,37,107,50
1,40,104,108
1,37,107,2
1,40,105,122
1,40,103,22
1,37,109,16
1,35,102,108
1,32,108,54
1,33,106,54
1,34,103,14
1,35,104,34
1,35,96,38
1,32,107,14
1,30,106,72
1,30,110,82
1,32,106,12
1,33,107,60
1,35,107,14
1,35,104,70
1,32,106,2
1,30,109,34
1,32,107,66
1,35,107,90
1,37,111,2
1,40,112,34
1,49,114,2
1,52,111,2
1,49,109,42
1,47,109,2
1,49,111,12
1,44,114,2
1,47,110,2
1,52,111,14
1,47,109,28
1,44,108,2
1,47,106,14
1,45,111,2
1,45,105,86
1,42,110,24
1,40,107,76
1,42,109,44
1,45,105,82
1,42,111,30
1,45,107,116
1,45,105,98
1,42,108,24
1,40,106,92
1,40,103,90
1,40,106,2
1,42,104,18
1,37,107,2
1,40,107,2
1,40,102,72
1,37,107,22
1,35,104,70
1,37,107,50
1,40,104,108
1,37,107,2
1,40,105,122
1,40,103,22
1,37,109,16
1,35,102,108
1,32,108,54
1,33,106,54
1,34,103,14
1,35,104,34
1,35,96,38
1,32,107,14
1,30,106,72
1,30,110,82
1,32,106,12
1,33,107,60
1,35,107,14
1,35,104,70
1,32,106,2
1,30,109,34
1,32,107,66
1,35,107,90
1,37,111,2
1,40,111,2
1,49,113,2
1,47,113,40
1,44,115,2
1,42,114,2
1,40,110,4
1,49,110,2
1,47,111,68
1,47,111,128
1,47,108,34
1,49,109,14
1,52,109,22
1,54,107,2
1,49,110,2
1,47,111,68
1,47,111,128
1,47,108,34
1,49,109,14
1,47,109,22
1,40,110,60
1,49,110,2
1,47,111,68
1,47,111,128
1,47,108,34
1,49,109,14
1,52,109,22
1,54,107,2
1,49,110,2
1,47,111,68
1,44,111,128
1,47,109,2
1,49,109,6
1,47,107,2
1,47,110,68
1,44,110,4
1,42,111,68
1,42,111,128
1,44,111,2
1,47,109,2
1,44,109,6
1,47,107,2
1,47,110,68
1,44,110,2
1,42,111,68
1,49,111,2
1,47,109,2
1,44,109,6
1,40,110,2
1,49,110,2
1,47,111,68
1,47,111,128
1,47,108,34
1,49,109,14
1,52,109,22
1,54,107,2
1,49,110,2
1,47,111,68
1,47,111,128
1,47,108,34
1,49,109,14
1,47,109,22
1,40,110,60
1,49,110,2
1,47,111,68
1,47,111,128
1,47,108,34
1,49,109,14
1,52,109,22
1,54,107,2
1,49,110,2
1,47,111,68
1,47,111,128
1,47,108,34
1,49,109,14
1,47,109,22
1,40,110,60
1,49,110,2
1,47,111,68
1,47,111,128
1,47,108,34
1,49,109,14
1,52,109,22
1,54,107,2
1,49,110,2
1,47,111,68
1,44,111,128
1,47,109,2
1,49,109,6
1,47,107,2
1,47,110,68
1,44,110,4
1,42,111,68
1,42,111,128
1,44,111,2
1,47,109,2
1,44,109,6
1,47,107,2
1,47,110,68
1,44,110,2
1,42,111,68
1,49,111,2
1,47,109,2
1,44,109,6
1,40,110,2
1,49,110,2
1,47,111,68
1,47,111,128
1,47,108,34
1,49,109,14
1,52,109,22
1,54,107,2
1,47,110,164
1,52,111,68
1,47,108,128
1,44,109,14
1,47,109,22
1,45,111,60
1,45,105,86
1,42,110,24
1,40,107,76
1,42,109,44
1,45,105,82
1,42,111,30
1,45,107,116
1,45,105,98
1,42,108,24
1,40,106,92
1,40,103,90
1,40,106,2
1,42,104,18
1,37,107,2
1,40,107,2
1,40,102,72
1,37,107,22
1,35,104,70
1,37,107,50
1,40,104,108
1,37,107,2
1,40,105,122
1,40,103,22
1,37,109,16
1,35,102,108
1,32,108,54
1,33,106,54
1,34,103,14
1,35,104,34
1,35,96,38
1,32,107,14
1,30,106,72
1,30,110,82
1,32,106,12
1,33,107,60
1,35,107,14
1,35,104,70
1,32,106,2
1,30,109,34
1,32,107,66
1,35,107,90
1,37,111,2
1,40,112,34
1,49,114,2
1,52,111,2
1,49,109,42
1,47,109,2
1,49,111,12
1,44,114,2
1,47,110,2
1,52,111,14
1,47,109,28
1,44,108,2
1,47,106,14
1,45,111,2
1,45,105,86
1,42,110,24
1,40,107,76
1,42,109,44
1,45,105,82
1,42,111,30
1,45,107,116
1,45,105,98
1,42,108,24
1,40,106,92
1,40,103,90
1,40,106,2
1,42,104,18
1,37,107,2
1,40,107,2
1,40,102,72
1,37,107,22
1,35,104,70
1,37,107,50
1,40,104,108
1,37,107,2
1,40,105,122
1,40,103,22
1,37,109,16
1,35,102,108
1,32,108,54
1,33,106,54
1,34,103,14
1,35,104,34
1,35,96,38
1,32,107,14
1,30,106,72
1,30,110,82
1,32,106,12
1,33,107,60
1,35,107,14
1,35,104,70
1,32,106,2
1,30,109,34
1,32,107,66
1,35,107,90
1,37,111,2
1,40,112,34
1,49,114,2
1,52,111,2
1,49,109,42
1,47,109,2
1,49,111,12
1,44,114,2
1,47,110,2
1,52,111,14
1,47,109,28
1,44,108,2
1,47,106,14
1,45,111,2
1,45,105,86
1,42,110,24
1,40,107,76
1,42,109,44
1,45,105,82
1,42,111,30
1,45,107,116
1,45,105,98
1,42,108,24
1,40,106,92
1,40,103,90
1,40,106,2
1,42,104,18
1,37,107,2
1,40,107,2
1,40,102,72
1,37,107,22
1,35,104,70
1,37,107,50
1,40,104,108
1,37,107,2
1,40,105,122
1,40,103,22
1,37,109,16
1,35,102,108
1,32,108,54
1,33,106,54
1,34,103,14
1,35,104,34
1,35,96,38
1,32,107,14
1,30,106,72
1,30,110,82
1,32,106,12
1,33,107,60
1,35,107,14
1,35,104,70
1,32,106,2
1,30,109,34
1,32,107,66
1,35,107,90
1,37,111,2
1,40,112,34
1,49,114,2
1,52,111,2
1,49,109,42
1,47,109,2
1,49,111,12
1,44,114,2
1,47,110,2
1,52,111,14
1,47,109,28
1,44,108,2
1,47,106,14
1,45,111,2
1,45,105,86
1,42,110,24
1,40,107,76
1,42,109,44
1,45,105,82
1,42,111,30
1,45,107,116
1,45,105,98
1,42,108,24
1,40,106,92
1,40,103,90
1,40,106,2
1,42,104,18
1,37,107,2
1,40,107,2
1,40,102,72
1,37,107,22
1,35,104,70
1,37,107,50
1,40,104,108
1,37,107,2
1,40,105,122
1,40,103,22
1,37,109,16
1,35,102,108
1,32,108,54
1,33,106,54
1,34,103,14
1,35,104,34
1,35,96,38
1,32,107,14
1,30,106,72
1,30,110,82
1,32,106,12
1,33,107,60
1,35,107,14
1,35,104,70
1,32,106,2
1,30,109,34
1,32,107,66
1,35,107,90
1,37,111,2
1,40,112,34
1,49,114,2
1,52,111,2
1,49,109,42
1,47,109,2
1,49,111,12
1,44,114,2
1,47,110,2
1,52,111,14
1,47,109,28
1,44,108,2
1,47,106,14
1,45,111,2
1,45,105,86
1,42,110,24
1,40,107,76
1,42,109,44
1,45,105,82
1,42,111,30
1,45,107,116
1,45,105,98
1,42,108,24
1,40,106,92
1,42,104,90
1,45,104,2
1,42,107,2
1,40,107,2
1,40,102,72
1,37,107,22
1,35,104,70
1,37,107,50
1,40,104,108
1,37,107,2
1,40,113,122
1,47,101,38
1,49,109,16
1,52,102,108
1,49,108,54
1,47,106,2
1,44,103,6
1,45,111,2
1,45,105,86
1,42,110,24
1,40,107,76
1,42,109,44
1,45,105,82
1,42,111,30
1,45,107,116
1,45,105,98
1,42,108,24
1,40,106,92
1,42,104,90
1,45,104,2
1,42,107,2
1,40,107,2
1,40,102,72
1,37,107,22
1,35,104,70
1,37,107,50
1,40,104,108
1,37,107,2
1,40,112,122
1,47,112,2
1,52,111,2
1,56,113,2
1,54,110,2
1,52,108,2
1,45,111,2
1,45,105,86
1,42,110,24
1,40,107,76
1,42,109,44
1,45,105,82
1,42,111,30
1,45,107,116
1,45,105,72
1,42,108,24
1,40,106,92
1,42,104,90
1,45,104,2
1,42,107,2
1,40,107,2
1,40,102,72
1,37,107,22
1,35,104,70
1,37,107,50
1,40,104,108
1,37,107,2
1,40,113,122
1,47,101,38
1,49,109,16
1,52,102,108
1,49,108,54
1,47,106,2
1,44,103,6
1,45,111,2
1,45,105,26
1,42,110,24
1,40,107,76
2,76,113,23428
2,76,115,102
2,80,118,82
2,80,119,76
2,78,121,22
2,76,118,28
2,75,109,2206
2,75,111,72
2,76,110,112
2,71,111,132
2,76,108,22
2,76,108,36
2,76,108,36
2,80,121,2190
2,81,119,48
2,81,119,30
2,81,119,32
2,78,118,10
2,81,116,322
2,81,117,46
2,81,118,64
2,81,117,56
2,83,120,26
2,81,119,80
2,81,121,40
2,81,119,42
2,80,120,54
2,78,119,6
2,76,118,386
2,76,119,48
2,76,118,66
2,80,120,44
2,76,119,24
2,76,120,66
2,76,115,92
2,76,119,102
2,73,115,20
2,75,116,36
2,73,116,272
2,71,118,348
2,75,118,40
2,75,121,92
2,75,121,108
2,76,119,88
2,71,118,84
2,75,116,68
2,75,115,88
2,75,119,64
2,69,114,6
2,80,123,54
2,80,121,66
2,81,119,48
2,81,119,30
2,81,119,32
2,78,118,10
2,81,116,322
2,81,117,46
2,81,118,64
2,81,117,56
2,83,120,26
2,81,121,274
2,81,119,42
2,80,120,54
2,78,119,6
2,76,118,386
2,76,119,48
2,76,118,66
2,80,120,44
2,76,119,24
2,76,120,66
2,76,115,92
2,76,119,102
2,73,115,20
2,75,116,36
2,73,116,272
2,71,118,348
2,75,118,40
2,75,121,92
2,75,121,108
2,76,119,88
2,71,118,84
2,75,116,68
2,75,115,88
2,75,119,64
2,69,114,6
2,76,113,18964
2,76,115,102
2,80,118,82
2,80,119,76
2,78,121,22
2,76,118,28
2,75,109,2206
2,75,111,72
2,76,110,112
2,71,111,132
2,76,108,22
2,76,108,36
2,76,108,36
2,80,121,2190
2,81,119,48
2,81,119,30
2,81,119,32
2,78,118,10
2,81,116,322
2,81,117,46
2,81,118,64
2,81,117,56
2,83,120,26
2,81,119,80
2,81,121,40
2,81,119,42
2,80,120,54
2,78,119,6
2,76,118,386
2,76,119,48
2,76,118,66
2,80,120,44
2,76,119,24
2,76,120,66
2,76,115,92
2,76,119,102
2,73,115,20
2,75,116,36
2,73,116,272
2,71,118,348
2,75,118,40
2,75,121,92
2,75,121,108
2,76,119,88
2,71,118,84
2,75,116,68
2,75,115,88
2,75,119,64
2,69,114,6
2,80,123,54
2,80,121,66
2,81,119,48
2,81,119,30
2,81,119,32
2,78,118,10
2,81,116,322
2,81,117,46
2,81,118,64
2,81,117,56
2,83,120,26
2,81,121,274
2,81,119,42
2,80,120,54
2,78,119,6
2,76,118,386
2,76,119,48
2,76,118,66
2,80,120,44
2,76,119,24
2,76,120,66
2,76,115,92
2,76,119,102
2,73,115,20
2,75,116,36
2,73,116,272
2,71,118,348
2,75,118,40
2,75,121,92
2,75,121,108
2,76,119,88
2,71,118,84
2,75,116,68
2,75,115,88
2,75,119,64
2,69,114,6
2,80,123,54
2,80,121,66
2,81,119,48
2,81,119,30
2,81,119,32
2,78,118,10
2,81,116,322
2,81,117,46
2,81,118,64
2,81,117,56
2,83,120,26
2,81,121,274
2,81,119,42
2,80,120,54
2,78,119,6
2,76,118,386
2,76,119,48
2,76,118,66
2,80,120,44
2,76,119,24
2,76,120,66
2,76,115,92
2,76,119,102
2,73,115,20
2,75,116,36
2,73,116,272
2,71,118,348
2,75,118,40
2,75,121,92
2,75,121,108
2,76,119,88
2,71,118,84
2,75,116,68
2,75,115,88
2,75,119,64
2,69,114,6
2,80,123,54
2,80,121,66
2,81,119,48
2,81,119,30
2,81,119,32
2,78,118,10
2,81,116,322
2,81,117,46
2,81,118,64
2,81,117,56
2,83,120,26
2,81,121,274
2,81,119,42
2,80,120,54
2,78,119,6
2,76,118,386
2,76,119,48
2,76,118,66
2,80,120,44
2,76,119,24
2,76,120,66
2,76,115,92
2,76,119,102
2,73,115,20
2,75,116,36
2,73,116,272
2,71,118,348
2,75,118,40
2,75,121,92
2,75,121,108
2,76,119,88
2,71,118,84
2,75,116,68
2,75,115,88
2,75,119,64
2,69,114,6
2,80,120,1904
2,80,123,98
2,80,125,94
2,80,125,100
2,76,112,6
2,80,122,1778
2,80,124,122
2,80,125,116
2,80,124,116
2,78,116,280
2,80,120,1632
2,80,123,98
2,80,125,94
2,80,125,100
2,76,112,6
2,80,122,1778
2,80,124,122
2,80,125,116
2,80,124,116
2,78,116,280
2,80,120,304
2,80,123,98
2,80,125,94
2,80,125,100
2,76,112,6
2,80,122,738
2,80,124,122
2,80,125,116
2,80,124,116
2,78,116,280
2,80,120,150
2,80,123,98
2,80,125,94
2,80,125,24
2,76,112,6
3,68,117,6340
3,68,118,28
3,71,121,20
3,73,121,68
3,73,122,4
3,66,119,504
3,68,119,2
3,71,120,42
3,73,120,58
3,71,115,22
3,73,120,50
3,68,120,66
3,68,120,160
3,71,121,50
3,73,120,64
3,73,120,2
3,71,118,416
3,71,119,64
3,71,118,60
3,76,120,70
3,76,120,66
3,75,120,22
3,73,120,84
3,73,119,68
3,71,116,28
3,68,116,2
3,71,115,6
3,73,119,2
3,71,115,764
3,71,115,14
3,71,115,38
3,71,115,38
3,71,117,104
3,68,116,6
3,71,115,34
3,71,116,64
3,71,107,50
3,66,114,10
3,68,117,1884
3,68,118,28
3,71,121,20
3,73,121,68
3,73,122,4
3,66,119,504
3,68,119,2
3,71,120,42
3,73,120,58
3,71,115,22
3,73,120,50
3,68,120,66
3,68,120,160
3,71,121,50
3,73,120,64
3,73,120,2
3,71,118,416
3,71,119,64
3,71,118,60
3,76,120,70
3,76,120,66
3,75,120,22
3,73,120,84
3,71,116,470
3,68,116,2
3,71,119,2
3,71,119,30
3,73,119,30
3,71,115,808
3,71,115,38
3,71,117,104
3,68,116,6
3,71,115,34
3,71,116,64
3,71,107,50
3,66,114,10
3,76,121,1884
3,76,119,44
3,76,119,26
3,76,119,28
3,73,118,2
3,73,116,458
3,76,117,42
3,76,118,60
3,76,117,52
3,78,120,22
3,76,119,76
3,76,121,36
3,73,119,38
3,76,120,50
