track,note,velocity,time
3,67,127,23761
3,67,127,584
3,66,127,39
3,67,127,2224
3,67,127,608
3,66,127,48
3,67,127,20673
3,67,127,584
3,66,127,39
3,67,127,2224
3,67,127,608
3,66,127,48
4,47,119,1537
4,42,119,2
4,47,119,42
4,42,127,41
4,47,111,40
4,47,127,58
4,42,127,41
4,47,127,41
4,42,127,41
4,47,111,192
4,47,119,58
4,42,127,42
4,47,127,42
4,42,127,33
4,47,127,41
4,42,127,49
4,47,127,2
4,47,127,65
4,42,127,57
4,47,127,41
4,42,127,32
4,47,111,2
4,47,127,65
4,42,127,48
4,47,127,2
4,42,127,25
4,47,111,2
4,47,127,65
4,42,127,41
4,47,127,1
4,42,127,1
4,47,123,193
4,47,127,64
4,42,127,49
4,47,127,64
4,42,127,24
4,47,111,3
4,47,127,63
4,42,127,41
4,47,127,0
4,42,127,0
4,47,123,194
4,47,127,64
4,42,127,49
4,43,127,65
4,38,127,65
4,43,87,193
4,43,115,49
4,38,119,40
4,43,127,40
4,38,119,40
4,43,95,27
4,43,127,56
4,38,107,41
4,42,127,49
4,37,127,48
4,42,107,51
4,42,127,57
4,37,127,57
4,42,127,57
4,37,127,57
4,42,103,42
4,42,127,65
4,37,127,49
4,40,127,48
4,35,127,32
4,40,127,18
4,35,127,8
4,40,123,97
4,43,115,16
4,55,127,10
4,42,127,8
4,54,127,9
4,42,127,144
4,52,127,10
4,47,111,49
4,47,127,58
4,42,127,42
4,47,127,42
4,42,127,41
4,47,111,193
4,47,119,58
4,42,127,41
4,47,127,42
4,42,127,33
4,47,127,41
4,42,127,48
4,47,127,194
4,47,127,65
4,42,127,56
4,47,127,41
4,42,127,33
4,47,111,2
4,47,127,65
4,42,127,48
4,47,127,1
4,42,127,24
4,47,111,2
4,47,127,64
4,42,127,41
4,47,127,1
4,42,127,1
4,47,123,193
4,47,127,65
4,42,127,49
4,43,127,65
4,38,127,64
4,43,87,195
4,43,115,49
4,38,119,41
4,43,127,41
4,38,119,41
4,43,95,26
4,43,127,56
4,38,107,40
4,42,127,49
4,37,127,49
4,42,107,51
4,42,127,56
4,37,127,57
4,42,127,55
4,37,127,56
4,42,103,42
4,42,127,65
4,37,127,49
4,40,127,48
4,35,127,32
4,40,127,19
4,35,127,9
4,40,123,97
4,43,115,16
4,55,127,9
4,42,127,8
4,54,127,9
4,42,127,145
4,52,127,9
4,47,111,49
4,47,127,58
4,42,127,42
4,47,127,41
4,42,127,41
4,47,111,193
4,47,119,58
4,42,127,42
4,47,127,42
4,42,127,33
4,35,127,1239
4,37,127,9
4,38,111,16
4,40,123,48
4,41,127,40
4,43,127,1
4,41,127,17
4,40,127,56
4,35,127,1936
4,37,115,48
4,38,103,1
4,40,99,1
4,42,127,0
4,43,127,1
4,41,127,46
4,40,127,32
4,37,127,336
4,38,127,8
4,47,127,81
4,42,127,49
4,47,127,193
4,47,127,65
4,42,127,56
4,47,127,41
4,42,127,32
4,47,111,2
4,47,127,64
4,42,127,49
4,47,127,1
4,42,127,24
4,47,111,2
4,47,127,64
4,42,127,40
4,47,127,1
4,42,127,1
4,47,123,193
4,47,127,65
4,42,127,50
4,43,127,65
4,38,127,65
4,43,87,2
4,43,115,48
4,38,119,41
4,43,127,41
4,38,119,41
4,43,95,27
4,43,127,57
4,38,107,41
4,42,127,49
4,37,127,49
4,42,107,50
4,42,127,56
4,37,127,57
4,42,127,57
4,37,127,56
4,42,103,43
4,42,127,65
4,37,127,49
4,40,127,48
4,35,127,32
4,40,127,19
4,35,127,9
4,40,123,96
4,43,115,17
4,55,127,10
4,42,127,8
4,54,127,9
4,42,127,145
4,52,127,10
4,47,127,49
4,42,127,49
4,47,127,2
4,47,127,65
4,42,127,56
4,47,127,41
4,42,127,33
4,47,111,2
4,47,127,64
4,42,127,49
4,47,127,1
4,42,127,24
4,47,111,2
4,47,127,65
4,42,127,41
4,47,127,1
4,42,127,1
4,47,123,193
4,47,127,64
4,42,127,49
4,47,127,64
4,42,127,24
4,47,111,3
4,47,127,64
4,42,127,40
4,47,127,0
4,42,127,1
4,47,123,193
4,47,127,64
4,42,127,49
4,43,127,65
4,38,127,64
4,43,87,1
4,43,115,49
4,38,119,40
4,43,127,41
4,38,119,40
4,43,95,26
4,43,127,57
4,38,107,41
4,42,127,49
4,37,127,48
4,42,107,50
4,42,127,57
4,37,127,57
4,42,127,56
4,37,127,57
4,42,103,42
4,42,127,65
4,37,127,49
4,40,127,48
4,35,127,33
4,40,127,25
4,35,127,9
4,40,123,96
4,43,115,16
4,55,127,10
4,42,127,9
4,54,127,10
4,42,127,143
4,52,127,10
4,47,111,49
4,47,127,58
4,42,127,42
4,47,127,42
4,42,127,41
4,47,111,193
4,47,119,58
4,42,127,42
4,47,127,42
4,42,127,33
4,35,127,1239
4,37,127,9
4,38,111,16
4,40,123,48
4,41,127,40
4,43,127,1
4,41,127,17
4,40,127,56
4,35,127,1936
4,37,115,48
4,38,103,1
4,40,99,1
4,42,127,0
4,43,127,1
4,41,127,46
4,40,127,32
4,37,127,336
4,38,127,8
4,47,127,80
4,42,127,51
4,47,127,2
4,47,127,65
4,42,127,57
4,47,127,41
4,42,127,34
4,47,111,1
4,47,127,65
4,42,127,48
4,47,127,1
4,42,127,27
4,47,111,191
4,47,127,64
4,42,127,41
4,47,127,1
4,42,127,2
4,47,123,192
4,47,127,64
4,42,127,49
4,47,127,65
4,42,127,51
4,47,127,2
4,47,127,65
4,42,127,57
4,47,127,39
4,42,127,34
4,47,111,3
4,47,127,65
4,42,127,49
4,47,127,1
4,42,127,26
4,47,111,192
4,47,127,65
4,42,127,42
4,47,127,1
4,42,127,3
4,47,123,190
4,47,127,64
4,42,127,49
4,47,127,65
4,42,127,50
4,47,127,2
4,47,127,64
4,42,127,56
4,47,127,40
4,42,127,34
4,47,111,2
4,47,127,66
4,42,127,49
4,47,127,1
4,42,127,27
4,47,111,191
4,47,127,65
4,42,127,41
4,47,127,0
4,42,127,3
4,47,123,192
4,47,127,65
4,42,127,50
4,47,127,16
5,50,83,23761
5,54,87,0
5,55,71,0
5,59,87,0
5,81,83,311
5,78,91,32
5,74,71,24
5,69,79,24
5,49,79,32
5,57,71,0
5,52,71,0
5,83,71,296
5,80,87,24
5,76,83,25
5,71,75,16
5,52,79,32
5,57,83,8
5,48,59,1
5,79,75,167
5,76,63,24
5,71,67,24
5,67,39,25
5,50,83,32
5,54,79,0
5,47,79,1
5,55,99,0
5,54,99,1
5,50,87,7
5,59,95,0
5,81,83,296
5,78,91,32
5,74,71,24
5,69,79,24
5,49,79,31
5,52,71,0
5,57,71,0
5,83,71,296
5,80,87,24
5,76,83,24
5,71,75,16
5,52,79,31
5,48,59,8
5,57,83,0
5,79,75,168
5,76,63,24
5,71,67,32
5,67,39,17
5,47,79,32
5,50,83,0
5,54,79,0
5,50,83,18424
5,54,87,0
5,55,71,0
5,59,87,0
5,81,83,312
5,78,91,32
5,74,71,25
5,69,79,23
5,49,79,32
5,52,71,0
5,57,71,0
5,83,71,296
5,80,87,24
5,76,83,24
5,71,75,16
5,52,79,31
5,48,59,8
5,57,83,0
5,79,75,168
5,76,63,24
5,71,67,24
5,67,39,25
5,50,83,32
5,54,79,0
5,47,79,1
5,54,99,0
5,55,99,0
5,50,87,8
5,59,95,1
5,81,83,295
5,78,91,32
5,74,71,24
5,69,79,24
5,49,79,31
5,52,71,0
5,57,71,0
5,83,71,296
5,80,87,24
5,76,83,24
5,71,75,15
5,52,79,32
5,48,59,8
5,57,83,0
5,79,75,168
5,76,63,24
5,71,67,24
5,67,39,25
5,54,79,32
5,47,79,1
5,50,83,0
6,54,16,758
6,57,24,0
6,59,46,0
6,62,31,1
6,57,75,9412
6,62,91,0
6,66,83,0
6,35,107,1488
6,42,63,0
6,47,19,0
6,57,75,7633
6,62,91,1
6,66,83,0
6,35,107,1487
6,42,63,1
6,47,19,0
6,57,75,23041
6,62,91,1
6,66,83,0
6,35,107,1487
6,42,63,0
6,47,19,0
7,55,127,23762
7,55,127,624
7,54,127,7
7,54,127,56
7,47,127,440
7,49,127,49
7,50,127,40
7,52,127,8
7,54,119,0
7,52,127,47
7,54,127,72
7,52,127,561
7,54,127,63
7,55,127,16
7,57,127,8
7,59,127,40
7,55,127,560
7,54,127,48
7,47,127,432
7,49,123,0
7,50,127,0
7,52,127,1
7,54,107,97
7,52,127,40
7,59,95,1064
7,52,99,1
7,61,127,0
7,71,123,1
7,66,127,152
7,69,127,0
7,73,127,9
7,76,127,0
7,71,127,207
7,69,127,16
7,66,91,1
7,65,127,0
7,64,115,1
7,62,111,0
7,59,107,17
7,71,127,128
7,69,127,1
7,71,119,0
7,69,127,0
7,71,127,0
7,69,123,25
7,71,123,2
7,69,127,31
7,71,115,8
7,69,127,31
7,71,119,1
7,69,127,40
7,71,111,0
7,69,127,16
7,66,111,8
7,65,111,0
7,64,87,1
7,62,119,8
7,59,111,8
7,57,123,9
7,71,59,112
7,71,127,9
7,71,127,16
7,71,127,8
7,71,127,17
7,69,115,16
7,66,99,0
7,62,119,0
7,59,99,1
7,58,71,0
7,58,83,0
7,57,95,8
7,57,99,0
7,58,99,8
7,58,51,0
7,59,91,1
7,59,51,0
7,60,119,9
7,60,47,0
7,61,99,16
7,62,123,0
7,64,111,0
7,66,103,0
7,67,115,0
7,69,103,0
7,71,123,23
7,73,115,0
7,74,103,24
7,73,111,0
7,71,91,17
7,69,107,7
7,67,99,0
7,66,59,8
7,64,67,9
7,62,95,0
7,61,95,1
7,69,123,8
7,55,127,9360
7,55,127,625
7,54,127,7
7,54,127,57
7,47,127,440
7,49,127,48
7,50,127,40
7,52,127,8
7,54,119,0
7,52,127,46
7,54,127,72
7,52,127,561
7,54,127,63
7,55,127,17
7,57,127,8
7,59,127,40
7,55,127,560
7,54,127,49
7,47,127,431
7,49,123,1
7,50,127,0
7,52,127,1
7,54,107,96
7,52,127,41
7,57,127,873
7,59,127,194
7,62,127,63
7,64,127,9
7,66,127,9
7,57,127,80
7,59,127,34
7,62,127,41
7,64,119,2
7,66,127,47
7,57,127,152
7,59,127,27
7,62,127,48
7,64,127,9
7,66,127,2
7,74,127,161
7,71,119,8
7,57,123,71
7,59,127,1
7,62,127,64
7,64,127,17
7,66,127,41
7,57,127,160
7,59,127,10
7,62,127,57
7,64,119,25
7,66,127,42
7,57,127,144
7,59,127,16
7,62,127,48
7,64,127,17
7,66,127,41
7,69,127,136
7,74,127,33
7,57,127,17
7,59,127,25
7,62,127,64
7,64,127,9
7,66,127,2
7,57,127,160
7,59,127,2
7,62,127,56
7,64,115,1
7,66,127,1
7,57,127,152
7,59,127,11
7,62,127,48
7,64,127,9
7,66,127,2
7,74,127,136
7,71,119,8
7,69,99,1
7,71,103,10
7,69,119,8
7,66,95,9
7,71,127,9
8,81,91,23763
8,71,91,237
8,78,91,120
8,74,91,161
8,80,91,25
8,68,91,240
8,76,91,105
8,73,91,192
8,79,91,26
8,76,91,48
8,71,91,193
8,78,91,64
8,69,91,8
8,74,91,193
8,71,91,177
8,81,91,9
8,71,91,1
8,78,91,192
8,74,91,161
8,80,91,25
8,68,91,239
8,76,91,104
8,73,91,194
8,79,91,26
8,76,91,48
8,71,91,192
8,78,91,65
8,69,91,8
8,66,91,191
8,81,91,18386
8,71,91,238
8,78,91,120
8,74,91,161
8,80,91,25
8,68,91,240
8,76,91,105
8,73,91,192
8,79,91,26
8,76,91,49
8,71,91,192
8,78,91,65
8,69,91,8
8,74,91,192
8,71,91,177
8,81,91,9
8,71,91,0
8,78,91,193
8,74,91,160
8,80,91,24
8,68,91,240
8,76,91,104
8,73,91,194
8,79,91,26
8,76,91,49
8,71,91,191
8,78,91,64
8,69,91,8
8,66,91,193
9,54,97,769
9,57,117,0
9,59,117,0
9,62,113,1
9,54,105,72
9,57,105,0
9,59,117,0
9,62,117,0
9,54,69,160
9,57,69,1
9,59,73,0
9,62,77,0
9,54,117,72
9,57,105,0
9,59,117,0
9,62,117,1
9,56,97,47
9,59,117,0
9,61,97,1
9,64,105,0
9,54,117,72
9,57,117,1
9,59,117,0
9,62,113,0
9,54,73,33
9,57,73,0
9,59,81,1
9,62,81,0
9,54,113,152
9,57,113,0
9,59,117,0
9,62,117,1
9,56,105,48
9,59,113,0
9,61,105,0
9,64,105,1
9,54,117,73
9,57,117,0
9,59,117,0
9,62,117,1
9,54,73,57
9,57,69,0
9,59,77,0
9,62,85,0
9,54,117,159
9,57,117,0
9,59,117,1
9,62,117,0
9,56,117,48
9,59,117,0
9,61,113,0
9,64,113,1
9,54,89,81
9,57,77,0
9,59,89,0
9,62,85,1
9,54,117,65
9,57,117,0
9,59,117,0
9,62,113,1
9,54,113,152
9,57,117,0
9,59,117,0
9,62,117,1
9,56,117,47
9,59,117,0
9,61,117,0
9,64,117,0
9,47,81,24
9,47,93,80
9,54,117,33
9,57,117,0
9,61,117,0
9,62,117,0
9,47,53,154
9,47,89,89
9,54,117,0
9,57,117,1
9,61,117,0
9,62,117,0
9,47,113,40
9,56,117,0
9,59,117,0
9,64,117,1
9,47,93,160
9,47,89,64
9,54,117,33
9,57,117,0
9,61,117,0
9,62,117,0
9,47,85,145
9,47,105,73
9,54,117,0
9,57,117,1
9,61,117,0
9,62,117,0
9,47,93,40
9,56,117,0
9,59,117,0
9,64,117,1
9,47,117,168
9,47,117,56
9,54,117,1
9,57,117,0
9,61,117,1
9,62,117,0
9,47,85,145
9,47,113,73
9,54,117,0
9,57,117,0
9,61,117,0
9,62,117,1
9,47,113,32
9,56,117,0
9,59,117,0
9,64,117,1
9,47,85,160
9,47,97,48
9,54,117,32
9,57,117,1
9,61,117,0
9,62,117,0
9,47,85,145
9,47,89,73
9,54,117,0
9,57,117,1
9,61,117,0
9,62,117,0
9,47,105,32
9,56,117,0
9,59,117,0
9,64,117,1
9,47,89,64
9,47,117,160
9,54,117,1
9,57,117,0
9,61,117,0
9,62,117,1
9,47,85,145
9,47,113,73
9,54,117,1
9,57,117,0
9,61,117,0
9,62,117,0
9,47,113,31
9,56,117,0
9,59,117,0
9,64,117,1
9,47,85,160
9,47,97,48
9,54,117,33
9,57,117,0
9,61,117,0
9,62,117,0
9,47,85,146
9,47,89,73
9,54,117,0
9,57,117,0
9,61,117,1
9,62,117,0
9,47,105,33
9,56,117,0
9,59,117,0
9,64,117,0
9,47,89,65
9,43,61,168
9,43,73,16
9,54,113,0
9,57,117,1
9,59,117,0
9,62,117,0
9,69,117,1
9,43,61,145
9,43,81,73
9,54,117,0
9,57,117,1
9,59,117,0
9,62,117,0
9,69,117,0
9,52,117,24
9,55,117,0
9,59,117,0
9,62,117,1
9,69,117,0
9,43,93,15
9,43,61,191
9,43,69,17
9,54,117,0
9,55,73,0
9,57,117,1
9,59,117,0
9,62,117,0
9,69,117,0
9,43,69,153
9,43,93,73
9,54,117,0
9,57,117,1
9,59,117,0
9,62,117,0
9,69,117,1
9,52,117,24
9,55,117,0
9,59,117,0
9,62,93,1
9,69,117,0
9,43,85,15
9,42,117,191
9,42,81,25
9,52,117,0
9,59,117,0
9,64,117,0
9,68,117,1
9,71,117,0
9,42,81,145
9,42,97,89
9,52,117,0
9,59,117,1
9,64,117,0
9,68,117,0
9,71,117,0
9,51,117,16
9,59,117,0
9,63,117,0
9,66,117,0
9,71,117,1
9,42,117,16
9,42,49,57
9,42,117,25
9,42,81,120
9,42,93,25
9,52,117,1
9,59,117,0
9,64,117,0
9,68,117,0
9,71,117,1
9,42,77,152
9,42,97,88
9,52,117,1
9,59,117,0
9,64,117,0
9,68,117,0
9,71,117,1
9,51,117,23
9,59,117,1
9,63,117,0
9,66,117,0
9,71,117,0
9,42,93,15
9,40,61,167
9,40,77,24
9,47,117,1
9,55,117,0
9,59,117,0
9,62,117,1
9,64,117,0
9,67,105,0
9,40,85,120
9,40,73,105
9,47,117,0
9,55,117,1
9,59,117,0
9,62,117,0
9,64,117,0
9,67,117,0
9,45,117,32
9,55,117,0
9,57,117,0
