track,note,velocity,time
2,33,112,4155
2,33,0,119
2,33,113,25
2,33,0,130
2,31,113,14
2,31,0,64
2,28,113,32
2,28,0,111
2,28,109,33
2,28,0,128
2,31,113,16
2,31,0,64
2,33,113,32
2,33,0,112
2,33,113,32
2,33,0,127
2,31,113,17
2,31,0,51
2,28,113,45
2,28,0,77
2,28,113,19
2,28,0,93
2,31,114,3
2,31,0,66
2,32,110,30
2,32,0,68
2,33,112,28
2,33,0,119
2,33,113,25
2,33,0,130
2,31,113,14
2,31,0,64
2,28,113,32
2,28,0,111
2,28,109,33
2,28,0,128
2,31,113,16
2,31,0,64
2,33,113,32
2,33,0,112
2,33,113,32
2,33,0,127
2,31,113,17
2,31,0,51
2,28,113,45
2,28,0,77
2,28,113,19
2,28,0,93
2,31,114,3
2,31,0,66
2,32,110,30
2,32,0,68
2,33,112,28
2,33,0,119
2,33,113,25
2,33,0,130
2,31,113,14
2,31,0,64
2,28,113,32
2,28,0,111
2,28,109,33
2,28,0,128
2,31,113,16
2,31,0,64
2,33,113,32
2,33,0,112
2,33,113,32
2,33,0,127
2,31,113,17
2,31,0,51
2,28,113,45
2,28,0,77
2,28,113,19
2,28,0,93
2,31,114,3
2,31,0,66
2,32,110,30
2,32,0,68
2,33,112,28
2,33,0,119
2,33,113,25
2,33,0,130
2,31,113,14
2,31,0,64
2,28,113,32
2,28,0,111
2,28,109,33
2,28,0,128
2,31,113,16
2,31,0,64
2,33,113,32
2,33,0,112
2,33,113,32
2,33,0,127
2,31,113,17
2,31,0,51
2,28,113,45
2,28,0,77
2,28,113,19
2,28,0,93
2,31,114,3
2,31,0,66
2,32,110,30
2,32,0,68
2,33,112,28
2,33,0,119
2,33,113,25
2,33,0,130
2,31,113,14
2,31,0,64
2,28,113,32
2,28,0,111
2,28,109,33
2,28,0,128
2,31,113,16
2,31,0,64
2,33,113,32
2,33,0,112
2,33,113,32
2,33,0,127
2,31,113,17
2,31,0,51
2,28,113,45
2,28,0,77
2,28,113,19
2,28,0,93
2,31,114,3
2,31,0,66
2,32,110,30
2,32,0,68
2,33,112,28
2,33,0,119
2,33,113,25
2,33,0,130
2,31,113,14
2,31,0,64
2,28,113,32
2,28,0,111
2,28,109,33
2,28,0,128
2,31,113,16
2,31,0,64
2,33,113,32
2,33,0,112
2,33,113,32
2,33,0,127
2,31,113,17
2,31,0,51
2,28,113,45
2,28,0,77
2,28,113,19
2,28,0,93
2,31,114,3
2,31,0,66
2,32,110,30
2,32,0,68
2,33,112,28
2,33,0,119
2,33,113,25
2,33,0,130
2,31,113,14
2,31,0,64
2,28,113,32
2,28,0,111
2,28,109,33
2,28,0,128
2,31,113,16
2,31,0,64
2,33,113,32
2,33,0,112
2,33,113,32
2,33,0,127
2,31,113,17
2,31,0,51
2,28,113,45
2,28,0,77
2,28,113,19
2,28,0,93
2,31,114,3
2,31,0,66
2,32,110,30
2,32,0,68
2,33,112,28
2,33,0,119
2,33,113,25
2,33,0,130
2,31,113,14
2,31,0,64
2,28,113,32
2,28,0,111
2,28,109,33
2,28,0,128
2,31,113,16
2,31,0,64
2,33,113,32
2,33,0,112
2,33,113,32
2,33,0,127
2,31,113,17
2,31,0,51
2,28,113,45
2,28,0,77
2,28,113,19
2,28,0,93
2,31,114,3
2,31,0,66
2,32,110,30
2,32,0,68
2,33,112,28
2,33,0,119
2,33,113,25
2,33,0,130
2,31,113,14
2,31,0,64
2,28,113,32
2,28,0,111
2,28,109,33
2,28,0,128
2,31,113,16
2,31,0,64
2,33,113,32
2,33,0,112
2,33,113,32
2,33,0,127
2,31,113,17
2,31,0,51
2,28,113,45
2,28,0,77
2,28,113,19
2,28,0,93
2,31,114,3
2,31,0,66
2,32,110,30
2,32,0,68
2,33,112,28
2,33,0,119
2,33,113,25
2,33,0,130
2,31,113,14
2,31,0,64
2,28,113,32
2,28,0,111
2,28,109,33
2,28,0,128
2,31,113,16
2,31,0,64
2,33,113,32
2,33,0,112
2,33,113,32
2,33,0,127
2,31,113,17
2,31,0,51
2,28,113,45
2,28,0,77
2,28,113,19
2,28,0,93
2,31,114,3
2,31,0,66
2,32,110,30
2,32,0,68
2,35,112,28
2,35,0,119
2,35,113,25
2,35,0,130
2,33,113,14
2,33,0,64
2,30,113,80
2,30,0,95
2,30,109,1
2,30,0,15
2,33,113,129
2,33,0,64
2,35,113,32
2,35,0,112
2,35,113,32
2,35,0,127
2,33,113,17
2,33,0,51
2,30,113,45
2,30,0,77
2,30,113,19
2,30,0,93
2,33,114,3
2,33,0,66
2,34,110,30
2,34,0,68
2,35,112,28
2,35,0,56
2,35,113,25
2,35,0,130
2,33,113,14
2,33,0,64
2,30,113,80
2,30,0,95
2,30,109,1
2,30,0,15
2,33,113,129
2,33,0,64
2,35,113,32
2,35,0,112
2,35,113,32
2,35,0,11
2,33,113,17
2,33,0,51
2,30,113,45
2,30,0,1
2,30,113,19
2,30,0,93
2,33,114,3
2,33,0,66
2,34,110,17
2,34,0,68
2,33,112,28
2,33,0,119
2,33,113,25
2,33,0,130
2,31,113,14
2,31,0,64
2,28,113,32
2,28,0,111
2,28,109,33
2,28,0,128
2,31,113,16
2,31,0,64
2,33,113,32
2,33,0,112
2,33,113,32
2,33,0,127
2,31,113,17
2,31,0,51
2,28,113,45
2,28,0,77
2,28,113,19
2,28,0,93
2,31,114,3
2,31,0,66
2,32,110,30
2,32,0,68
2,33,112,28
2,33,0,119
2,33,113,25
2,33,0,130
2,31,113,14
2,31,0,64
2,28,113,32
2,28,0,111
2,28,109,33
2,28,0,128
2,31,113,16
2,31,0,64
2,33,113,32
2,33,0,112
2,33,113,32
2,33,0,127
2,31,113,17
2,31,0,51
2,28,113,45
2,28,0,77
2,28,113,19
2,28,0,93
2,31,114,3
2,31,0,66
2,32,110,30
2,32,0,68
2,33,112,28
2,33,0,119
2,33,113,25
2,33,0,130
2,31,113,14
2,31,0,64
2,28,113,32
2,28,0,111
2,28,109,33
2,28,0,128
2,31,113,16
2,31,0,64
2,33,113,32
2,33,0,112
2,33,113,32
2,33,0,127
2,31,113,17
2,31,0,51
2,28,113,45
2,28,0,77
2,28,113,19
2,28,0,93
2,31,114,3
2,31,0,66
2,32,110,30
2,32,0,68
2,33,112,28
2,33,0,119
2,33,113,25
2,33,0,130
2,31,113,14
2,31,0,64
2,28,113,32
2,28,0,111
2,28,109,33
2,28,0,128
2,31,113,16
2,31,0,64
2,33,113,32
2,33,0,112
2,33,113,32
2,33,0,127
2,31,113,17
2,31,0,51
2,28,113,45
2,28,0,77
2,28,113,19
2,28,0,93
2,31,114,3
2,31,0,66
2,32,110,30
2,32,0,68
2,35,113,28
2,35,0,141
2,42,113,3
2,42,0,132
2,35,107,12
2,35,0,46
2,31,114,50
2,31,0,137
2,38,114,7
2,38,0,130
2,31,113,14
2,31,0,52
2,30,116,44
2,30,0,47
2,30,115,49
2,30,0,54
2,37,113,42
2,37,0,45
2,37,112,51
2,37,0,78
2,35,114,18
2,35,0,93
2,35,108,51
2,35,0,45
2,42,108,3
2,42,0,88
2,38,114,8
2,38,0,68
2,35,113,28
2,35,0,141
2,42,113,3
2,42,0,132
2,35,107,12
2,35,0,46
2,31,114,50
2,31,0,137
2,38,114,7
2,38,0,130
2,31,113,14
2,31,0,52
2,30,116,44
2,30,0,47
2,30,115,49
2,30,0,54
2,25,113,42
2,25,0,45
2,25,112,51
2,25,0,78
2,35,114,18
2,35,0,93
2,35,108,51
2,35,0,45
2,42,108,3
2,42,0,88
2,38,114,8
2,38,0,68
2,35,113,28
2,35,0,141
2,42,113,3
2,42,0,132
2,35,107,12
2,35,0,46
2,31,114,50
2,31,0,137
2,38,114,7
2,38,0,130
2,31,113,14
2,31,0,52
2,30,116,44
2,30,0,47
2,30,115,49
2,30,0,54
2,25,113,42
2,25,0,45
2,25,112,51
2,25,0,78
2,35,114,18
2,35,0,93
2,35,108,51
2,35,0,45
2,42,108,3
2,42,0,88
2,38,114,8
2,38,0,68
2,35,113,28
2,35,0,141
2,42,113,3
2,42,0,132
2,35,107,12
2,35,0,46
2,31,114,50
2,31,0,137
2,38,114,7
2,38,0,130
2,31,113,14
2,31,0,52
2,30,116,44
2,30,0,47
2,30,115,49
2,30,0,54
2,25,113,42
2,25,0,45
2,25,112,51
2,25,0,78
2,35,114,18
2,35,0,93
2,35,108,51
2,35,0,45
2,42,108,3
2,42,0,88
2,38,114,8
2,38,0,68
2,33,117,28
2,33,0,119
2,33,117,25
2,33,0,130
2,31,117,14
2,31,0,64
2,28,117,32
2,28,0,111
2,28,114,33
2,28,0,128
2,31,117,16
2,31,0,64
2,33,117,32
2,33,0,112
2,33,117,32
2,33,0,127
2,31,117,17
2,31,0,51
2,28,117,45
2,28,0,77
2,28,117,19
2,28,0,93
2,31,117,3
2,31,0,66
2,32,115,30
2,32,0,68
2,33,117,28
2,33,0,119
2,33,117,25
2,33,0,130
2,31,117,14
2,31,0,64
2,28,117,32
2,28,0,111
2,28,114,33
2,28,0,128
2,31,117,16
2,31,0,64
2,33,117,32
2,33,0,112
2,33,117,32
2,33,0,127
2,31,117,17
2,31,0,51
2,28,117,45
2,28,0,77
2,28,117,19
2,28,0,93
2,31,117,3
2,31,0,66
2,32,115,30
2,32,0,68
2,33,117,28
2,33,0,119
2,33,117,25
2,33,0,130
2,31,117,14
2,31,0,64
2,28,117,32
2,28,0,111
2,28,114,33
2,28,0,128
2,31,117,16
2,31,0,64
2,33,117,32
2,33,0,112
2,33,117,32
2,33,0,127
2,31,117,17
2,31,0,51
2,28,117,45
2,28,0,77
2,28,117,19
2,28,0,93
2,31,117,3
2,31,0,66
2,32,115,30
2,32,0,68
2,35,117,28
2,35,0,119
2,35,117,25
2,35,0,130
2,33,117,14
2,33,0,64
2,30,117,80
2,30,0,95
2,30,114,1
2,30,0,15
2,33,117,129
2,33,0,64
2,35,117,32
2,35,0,112
2,35,117,32
2,35,0,127
2,33,117,17
2,33,0,51
2,30,117,45
2,30,0,77
2,30,117,19
2,30,0,93
2,33,117,3
2,33,0,66
2,34,115,30
2,34,0,68
2,35,117,28
2,35,0,119
2,35,117,25
2,35,0,130
2,33,117,14
2,33,0,64
2,30,117,80
2,30,0,95
2,30,114,1
2,30,0,15
2,33,117,129
2,33,0,64
2,35,117,32
2,35,0,112
2,35,117,32
2,35,0,127
2,33,117,17
2,33,0,51
2,30,117,45
2,30,0,77
2,30,117,19
2,30,0,93
2,33,117,3
2,33,0,66
2,34,115,30
2,34,0,68
2,33,117,28
2,33,0,119
2,33,117,25
2,33,0,130
2,31,117,14
2,31,0,64
2,28,117,32
2,28,0,111
2,28,114,33
2,28,0,128
2,31,117,16
2,31,0,64
2,33,117,32
2,33,0,112
2,33,117,32
2,33,0,127
2,31,117,17
2,31,0,51
2,28,117,45
2,28,0,77
2,28,117,19
2,28,0,93
2,31,117,3
2,31,0,66
2,32,115,30
2,32,0,68
2,33,117,28
2,33,0,119
2,33,117,25
2,33,0,130
2,31,117,14
2,31,0,64
2,28,117,32
2,28,0,111
2,28,114,33
2,28,0,128
2,31,117,16
2,31,0,64
2,33,117,32
2,33,0,112
2,33,117,32
2,33,0,127
2,31,117,17
2,31,0,51
2,28,117,45
2,28,0,77
2,28,117,19
2,28,0,93
2,31,117,3
2,31,0,66
2,32,115,30
2,32,0,68
2,33,117,28
2,33,0,119
2,33,117,25
2,33,0,130
2,31,117,14
2,31,0,64
2,28,117,32
2,28,0,111
2,28,114,33
2,28,0,128
2,31,117,16
2,31,0,64
2,33,117,32
2,33,0,112
2,33,117,32
2,33,0,127
2,31,117,17
2,31,0,51
2,28,117,45
2,28,0,77
2,28,117,19
2,28,0,93
2,31,117,3
2,31,0,66
2,32,115,30
2,32,0,68
2,33,117,28
2,33,0,119
2,33,117,25
2,33,0,130
2,31,117,14
2,31,0,64
2,28,117,32
2,28,0,111
2,28,114,33
2,28,0,128
2,31,117,16
2,31,0,64
2,33,117,32
2,33,0,112
2,33,117,32
2,33,0,127
2,31,117,17
2,31,0,51
2,28,117,45
2,28,0,77
2,28,117,19
2,28,0,93
2,31,117,3
2,31,0,66
2,32,115,30
2,32,0,68
2,35,117,28
2,35,0,141
2,42,117,3
2,42,0,132
2,35,112,12
2,35,0,46
2,31,117,50
2,31,0,137
2,38,117,7
2,38,0,130
2,31,117,14
2,31,0,52
2,30,117,44
2,30,0,47
2,30,117,49
2,30,0,54
2,37,117,42
2,37,0,45
2,37,117,51
2,37,0,78
2,35,117,18
2,35,0,93
2,35,113,51
2,35,0,45
2,42,113,3
2,42,0,88
2,38,117,8
2,38,0,68
2,35,117,28
2,35,0,141
2,42,117,3
2,42,0,132
2,35,112,12
2,35,0,46
2,31,117,50
2,31,0,137
2,38,117,7
2,38,0,130
2,31,117,14
2,31,0,52
2,30,117,44
2,30,0,47
2,30,117,49
2,30,0,54
2,25,117,42
2,25,0,45
2,25,117,51
2,25,0,78
2,35,117,18
2,35,0,93
2,35,113,51
2,35,0,45
2,42,113,3
2,42,0,88
2,38,117,8
2,38,0,68
2,35,117,28
2,35,0,141
2,42,117,3
2,42,0,132
2,35,112,12
2,35,0,46
2,31,117,50
2,31,0,137
2,38,117,7
2,38,0,130
2,31,117,14
2,31,0,52
2,30,117,44
2,30,0,47
2,30,117,49
2,30,0,54
2,25,117,42
2,25,0,45
2,25,117,51
2,25,0,78
2,35,117,18
2,35,0,93
2,35,113,51
2,35,0,45
2,42,113,3
2,42,0,88
2,38,117,8
2,38,0,68
2,35,117,28
2,35,0,141
2,42,117,3
2,42,0,132
2,35,112,12
2,35,0,46
2,31,117,50
2,31,0,137
2,38,117,7
2,38,0,130
2,31,117,14
2,31,0,52
2,30,117,44
2,30,0,47
2,30,117,49
2,30,0,54
2,25,117,42
2,25,0,45
2,25,117,51
2,25,0,78
2,35,117,18
2,35,0,93
2,35,113,51
2,35,0,45
2,42,113,3
2,42,0,88
2,38,117,8
2,38,0,68
2,33,117,28
2,33,0,119
2,33,117,25
2,33,0,130
2,31,117,14
2,31,0,64
2,28,117,32
2,28,0,111
2,28,114,33
2,28,0,128
2,31,117,16
2,31,0,64
2,33,117,32
2,33,0,112
2,33,117,32
2,33,0,127
2,31,117,17
2,31,0,51
2,28,117,45
2,28,0,77
2,28,117,19
2,28,0,93
2,31,117,3
2,31,0,66
2,32,115,30
2,32,0,68
2,33,117,28
2,33,0,119
2,33,117,25
2,33,0,130
2,31,117,14
2,31,0,64
2,28,117,32
2,28,0,111
2,28,114,33
2,28,0,128
2,31,117,16
2,31,0,64
2,33,117,32
2,33,0,112
2,33,117,32
2,33,0,127
2,31,117,17
2,31,0,51
2,28,117,45
2,28,0,77
2,28,117,19
2,28,0,93
2,31,117,3
2,31,0,66
2,32,115,30
2,32,0,68
2,33,117,28
2,33,0,119
2,33,117,25
2,33,0,130
2,31,117,14
2,31,0,64
2,28,117,32
2,28,0,111
2,28,114,33
2,28,0,128
2,31,117,16
2,31,0,64
2,33,117,32
2,33,0,112
2,33,117,32
2,33,0,127
2,31,117,17
2,31,0,51
2,28,117,45
2,28,0,77
2,28,117,19
2,28,0,93
2,31,117,3
2,31,0,66
2,32,115,30
2,32,0,68
2,35,117,28
2,35,0,119
2,35,117,25
2,35,0,130
2,33,117,14
2,33,0,64
2,30,117,32
2,30,0,111
2,30,114,33
2,30,0,128
2,33,117,16
2,33,0,64
2,35,117,32
2,35,0,112
2,35,117,32
2,35,0,127
2,33,117,17
2,33,0,51
2,30,117,45
2,30,0,77
2,30,117,19
2,30,0,93
2,33,117,3
2,33,0,66
2,34,115,30
2,34,0,68
2,35,117,28
2,35,0,119
2,35,117,25
2,35,0,130
2,33,117,14
2,33,0,64
2,30,117,32
2,30,0,111
2,30,114,33
2,30,0,128
2,33,117,16
2,33,0,64
2,35,117,32
2,35,0,112
2,35,117,32
2,35,0,127
2,33,117,17
2,33,0,51
2,30,117,45
2,30,0,77
2,30,117,19
2,30,0,93
