track,note,velocity,time
0,66,98,239
0,64,100,0
0,35,91,0
0,35,127,0
0,35,113,0
0,47,95,0
0,71,90,0
0,59,98,0
0,59,125,0
0,59,0,1
0,35,0,0
0,66,0,10
0,64,0,3
0,59,0,1
0,71,0,0
0,35,0,1
0,35,0,1
0,47,0,1
0,70,74,30
0,59,92,0
0,59,0,1
0,70,0,0
0,35,127,23
0,59,87,0
0,59,0,1
0,35,0,0
0,47,94,1
0,66,108,0
0,59,106,0
0,35,103,0
0,35,117,0
0,64,106,0
0,71,106,0
0,59,94,22
0,59,0,1
0,70,86,47
0,59,62,0
0,59,0,1
0,70,0,0
0,59,83,23
0,59,0,1
0,59,100,23
0,59,0,1
0,59,66,47
0,70,78,0
0,70,0,1
0,59,0,0
0,59,73,23
0,59,0,1
0,59,104,23
0,59,0,1
0,59,0,17
0,66,0,2
0,71,0,1
0,47,0,1
0,35,0,0
0,64,0,1
0,70,77,14
0,40,90,0
0,59,54,0
0,59,0,1
0,70,0,0
0,35,0,10
0,59,68,13
0,59,0,1
0,42,81,1
0,70,77,0
0,70,0,1
0,40,0,0
0,35,102,12
0,59,97,0
0,64,102,0
0,35,93,0
0,35,123,0
0,59,98,0
0,66,89,0
0,71,93,0
0,47,88,0
0,35,0,1
0,59,0,0
0,42,0,6
0,66,0,6
0,59,0,2
0,71,0,0
0,64,0,0
0,35,0,5
0,47,0,1
0,35,0,12
0,70,82,15
0,59,58,0
0,59,0,1
0,70,0,0
0,59,75,23
0,35,126,0
0,35,0,1
0,59,0,0
0,47,85,1
0,66,89,0
0,59,94,0
0,71,91,0
0,35,115,0
0,64,97,0
0,35,100,0
0,59,99,22
0,59,0,1
0,59,66,47
0,70,84,0
0,70,0,1
0,59,0,0
0,59,100,23
0,59,0,1
0,59,95,47
0,35,114,0
0,35,0,1
0,59,0,0
0,70,81,23
0,70,0,1
0,59,85,23
0,59,0,1
0,55,93,3
0,55,0,1
0,59,91,19
0,52,99,0
0,35,113,0
0,35,0,1
0,52,0,0
0,59,0,0
0,59,0,7
0,35,0,1
0,66,0,2
0,71,0,1
0,47,0,0
0,64,0,2
0,59,74,22
0,70,71,0
0,70,0,1
0,59,0,0
0,59,76,23
0,35,0,0
0,59,0,1
0,70,65,1
0,70,0,1
0,59,97,11
0,66,92,0
0,35,104,0
0,64,100,0
0,47,92,0
0,59,101,0
0,35,117,0
0,59,100,0
0,35,100,0
0,71,103,0
0,59,0,1
0,35,0,0
0,66,0,13
0,59,0,1
0,35,0,0
0,64,0,1
0,59,0,3
0,35,0,1
0,71,0,0
0,47,0,2
0,70,79,26
0,35,41,0
0,59,73,0
0,59,0,1
0,35,0,0
0,70,0,0
0,35,126,23
0,59,78,0
0,59,0,1
0,35,0,0
0,59,94,1
0,66,92,0
0,64,97,0
0,71,102,0
0,47,91,0
0,35,103,0
0,35,113,0
0,59,104,2
0,59,102,20
0,59,0,1
0,59,70,47
0,70,82,0
0,70,0,1
0,59,0,0
0,59,88,23
0,59,0,1
0,59,99,23
0,59,0,1
0,35,97,23
0,35,0,1
0,53,61,3
0,53,0,1
0,70,84,19
0,59,70,0
0,59,0,1
0,70,0,0
0,59,78,23
0,59,0,1
0,59,92,23
0,35,118,0
0,53,102,0
0,53,0,1
0,35,0,0
0,59,0,0
0,59,0,17
0,71,0,3
0,66,0,2
0,35,0,1
0,47,0,1
0,64,0,1
0,35,0,6
0,70,72,6
0,40,88,0
0,64,78,0
0,59,74,0
0,59,0,1
0,70,0,0
0,59,0,10
0,59,87,13
0,59,0,1
0,70,77,1
0,42,86,0
0,70,0,1
0,66,74,1
0,40,0,9
0,64,0,1
0,35,122,9
0,64,98,0
0,59,95,0
0,71,92,0
0,66,98,0
0,59,99,0
0,47,83,0
0,35,97,0
0,35,103,0
0,59,84,0
0,59,0,1
0,35,0,0
0,66,0,3
0,42,0,0
0,71,0,9
0,59,0,1
0,64,0,1
0,66,0,1
0,47,0,3
0,59,0,1
0,35,0,1
0,35,0,9
0,59,72,18
0,70,87,0
0,70,0,1
0,59,0,0
0,35,125,23
0,59,85,0
0,59,0,1
0,35,0,0
0,59,98,1
0,66,92,0
0,64,99,0
0,35,103,0
0,71,102,0
0,47,91,0
0,35,117,0
0,59,82,2
0,59,107,20
0,59,0,1
0,59,75,47
0,70,78,0
0,70,0,1
0,59,0,0
0,59,98,23
0,59,0,1
0,35,118,14
0,59,100,0
0,59,0,1
0,35,0,0
0,48,127,1
0,48,0,1
0,59,0,10
0,64,0,6
0,35,0,1
0,66,0,1
0,71,0,1
0,70,84,2
0,70,0,1
0,47,0,0
0,59,88,23
0,59,0,1
0,59,98,23
0,35,125,0
0,43,127,0
0,43,0,1
0,59,0,0
0,35,0,0
0,83,103,25
0,70,87,9
0,78,112,0
0,59,75,0
0,59,0,1
0,70,0,0
0,83,0,9
0,59,104,14
0,59,0,1
0,76,94,1
0,78,0,7
0,35,0,2
0,59,0,10
0,49,53,3
0,69,29,0
0,71,74,0
0,35,127,0
0,46,108,0
0,71,87,0
0,64,92,0
0,66,67,0
0,28,108,0
0,46,0,1
0,69,0,0
0,35,0,0
0,49,0,0
0,76,0,5
0,69,28,22
0,69,0,1
0,69,45,19
0,42,71,0
0,70,75,0
0,70,0,1
0,42,0,0
0,69,0,0
0,28,0,10
0,42,96,13
0,42,0,1
0,35,83,1
0,69,11,2
0,69,0,1
0,35,0,7
0,35,102,12
0,69,60,0
0,46,104,0
0,46,0,1
0,69,0,0
0,69,52,27
0,69,0,1
0,69,44,19
0,70,69,0
0,42,74,0
0,42,0,1
0,70,0,0
0,69,0,0
0,42,84,23
0,42,0,1
0,70,75,1
0,28,99,0
0,70,0,1
0,69,26,1
0,69,0,1
0,35,0,0
0,69,63,19
0,46,87,0
0,46,0,1
0,69,0,0
0,71,0,18
0,73,102,7
0,70,81,22
0,71,90,0
0,42,86,0
0,69,17,0
0,69,0,1
0,42,0,0
0,70,0,0
0,28,0,6
0,73,0,5
0,42,87,12
0,42,0,1
0,35,82,1
0,69,76,0
0,71,0,1
0,69,38,1
0,69,0,1
0,35,0,6
0,46,79,13
0,69,60,0
0,35,102,0
0,73,110,0
0,69,0,1
0,46,0,0
0,69,0,4
0,73,0,19
0,76,72,2
0,69,34,2
0,69,0,1
0,42,82,19
0,83,93,0
0,69,33,0
0,70,77,0
0,70,0,1
0,69,0,0
0,42,0,0
0,76,0,7
0,83,0,11
0,42,84,5
0,42,0,1
0,85,100,1
0,69,36,2
0,69,0,1
0,69,57,19
0,46,94,0
0,83,87,0
0,28,97,0
0,46,0,1
0,69,0,0
0,85,0,2
0,35,0,0
0,83,0,20
0,85,104,3
0,69,38,2
0,69,0,1
0,70,75,19
0,83,81,0
0,69,59,0
0,42,81,0
0,85,0,0
0,42,0,1
0,69,0,0
0,70,0,0
0,83,0,21
0,28,0,1
0,42,91,1
0,42,0,1
0,81,78,1
0,70,69,0
0,35,91,0
0,70,0,1
0,35,0,8
0,35,99,13
0,78,112,0
0,46,94,0
0,69,63,0
0,69,0,1
0,46,0,0
0,81,0,1
0,78,0,18
0,83,75,6
0,69,61,2
0,69,0,1
0,70,72,19
0,69,51,0
0,78,69,0
0,42,84,0
0,42,0,1
0,69,0,0
0,70,0,0
0,83,0,5
0,42,84,18
0,42,0,1
0,76,85,1
0,28,94,0
0,78,0,0
0,69,27,2
0,35,0,0
0,69,0,1
0,76,0,18
0,69,70,1
0,71,32,0
0,46,94,0
0,46,0,1
0,69,0,0
0,71,0,22
0,73,96,3
0,69,58,2
0,69,0,1
0,42,87,19
0,71,87,0
0,70,69,0
0,69,56,0
0,69,0,1
0,70,0,0
0,42,0,0
0,73,0,5
0,28,0,13
0,42,92,5
0,71,0,0
0,42,0,1
0,69,78,1
0,70,75,0
0,35,90,0
0,70,0,1
0,69,14,1
0,69,0,1
0,35,0,6
0,69,0,10
0,69,60,3
0,46,86,0
0,35,107,0
0,66,104,0
0,46,0,1
0,69,0,0
0,66,0,18
0,71,79,7
0,69,71,2
0,69,0,1
0,70,74,6
0,66,79,0
0,69,53,0
0,42,86,0
0,42,0,1
0,69,0,0
0,70,0,0
0,71,0,3
0,66,0,19
0,42,91,1
0,42,0,1
0,64,70,1
0,69,30,2
0,69,0,0
0,64,0,7
0,60,83,8
0,35,0,2
0,28,100,2
0,69,39,0
0,46,84,0
0,61,82,0
0,64,88,0
0,60,0,0
0,59,58,1
0,46,0,0
0,69,0,0
0,59,0,17
0,69,51,10
0,69,0,1
0,42,81,19
0,69,41,0
0,70,61,0
0,70,0,1
0,69,0,0
0,42,0,0
0,61,0,21
0,28,0,0
0,42,82,2
0,42,0,1
0,35,87,1
0,70,65,0
0,59,92,0
0,70,0,1
0,69,53,1
0,69,0,1
0,35,0,6
0,69,57,13
0,35,97,0
0,46,102,0
0,46,0,1
0,69,0,0
0,69,14,27
0,69,0,1
0,69,35,19
0,70,81,0
0,42,77,0
0,42,0,1
0,70,0,0
0,69,0,0
0,42,82,23
0,42,0,1
0,50,127,1
0,28,100,0
0,35,0,0
0,50,0,1
0,69,39,1
0,69,0,1
0,46,84,19
0,69,43,0
0,69,0,1
0,46,0,0
0,69,52,27
0,69,0,1
0,70,70,19
0,69,46,0
0,42,78,0
0,42,0,1
0,69,0,0
0,70,0,0
0,42,86,23
0,42,0,1
0,70,74,1
0,35,87,0
0,28,0,0
0,70,0,1
0,69,34,1
0,69,0,1
0,35,0,6
0,69,70,13
0,35,106,0
0,46,84,0
0,46,0,1
0,69,0,0
0,69,41,27
0,69,0,1
0,69,41,19
0,42,69,0
0,70,66,0
0,70,0,1
0,42,0,0
0,69,0,0
0,42,77,23
0,42,0,1
0,47,127,1
0,47,0,1
0,69,45,1
0,69,0,1
0,35,0,14
0,28,93,5
0,46,89,0
0,69,60,0
0,69,0,1
0,46,0,0
0,69,52,27
0,69,0,1
0,70,61,19
0,69,51,0
0,45,123,0
0,42,91,0
0,42,0,1
0,45,0,0
0,70,0,0
0,69,0,0
0,42,91,23
0,42,0,1
0,70,75,1
0,35,86,0
0,28,0,0
0,70,0,1
0,69,52,1
0,69,0,1
0,35,0,6
0,35,106,13
0,69,70,0
0,46,82,0
0,46,0,1
0,69,0,0
0,43,122,25
0,43,0,1
0,69,57,1
0,69,0,1
0,42,79,19
0,69,61,0
0,70,61,0
0,70,0,1
0,69,0,0
0,42,0,0
0,35,0,19
0,42,89,4
0,42,0,1
0,43,107,1
0,28,94,0
0,43,0,1
0,69,33,1
0,69,0,1
0,69,60,19
0,46,91,0
0,43,120,0
0,43,0,1
0,46,0,0
0,69,0,0
0,69,59,27
0,69,0,1
0,40,126,19
0,70,65,0
0,69,43,0
0,42,77,0
0,43,113,0
0,43,0,1
0,70,0,0
0,42,0,0
0,40,0,0
0,69,0,0
0,42,86,23
0,42,0,1
0,28,0,0
0,70,79,1
0,35,80,0
0,70,0,1
0,69,40,1
0,69,0,1
0,35,0,5
0,46,91,14
0,69,61,0
0,40,127,0
0,35,102,0
0,43,126,0
0,43,0,1
0,40,0,0
0,69,0,0
0,46,0,0
0,69,54,27
0,69,0,1
0,40,127,19
0,69,59,0
0,43,127,0
0,70,75,0
0,42,77,0
0,42,0,1
0,69,0,0
0,70,0,0
0,40,0,0
0,43,0,0
0,64,0,2
0,59,0,6
0,35,0,11
0,42,87,4
0,42,0,1
0,70,77,1
0,70,0,1
0,69,51,1
0,69,0,1
0,71,0,14
0,66,0,2
0,64,0,0
0,35,127,3
0,64,118,0
0,59,118,0
0,67,117,0
0,59,93,0
0,64,98,0
0,48,125,0
0,36,126,0
0,64,127,0
0,42,107,0
0,57,101,0
0,69,64,0
0,67,97,0
0,69,0,1
0,42,0,0
0,35,0,0
0,57,0,0
0,69,23,3
0,76,79,0
0,42,40,0
0,42,0,1
0,69,0,0
0,76,0,0
0,42,102,5
0,77,88,0
0,69,64,0
0,69,0,1
0,42,0,0
0,77,0,0
0,42,59,22
0,69,23,0
0,77,79,0
0,77,0,1
0,42,0,0
0,69,0,0
0,43,87,1
0,36,0,0
0,43,0,5
0,48,0,6
0,67,0,4
0,76,86,1
0,42,114,0
0,43,125,0
0,69,76,0
0,40,126,0
0,59,0,0
0,42,0,1
0,40,0,0
0,69,0,0
0,76,0,0
0,64,0,6
0,59,0,0
0,67,0,0
0,64,0,1
0,76,79,16
0,42,51,0
0,69,23,0
0,69,0,1
0,76,0,0
0,42,0,0
0,42,114,23
0,69,56,0
0,76,24,0
0,76,0,1
0,42,0,0
0,69,0,0
0,64,0,1
0,43,0,2
0,63,122,1
0,76,97,3
0,69,10,0
0,66,92,0
0,46,118,0
0,63,92,0
0,59,95,0
0,46,0,1
0,69,0,0
0,76,0,0
0,63,110,1
0,66,116,0
0,57,108,0
0,35,127,0
0,47,115,0
0,35,118,0
0,35,0,1
0,42,102,21
0,69,64,0
0,69,0,1
0,42,0,0
0,76,92,23
0,69,23,0
0,42,42,0
0,42,0,1
0,76,0,0
0,69,0,0
0,77,40,23
0,42,87,0
0,69,64,0
0,69,0,1
0,77,0,0
0,42,0,0
0,35,0,21
0,42,40,2
0,69,23,0
0,77,82,0
0,77,0,1
0,69,0,0
0,42,0,0
0,42,112,1
0,42,0,11
0,64,109,7
0,59,0,0
0,63,0,1
0,76,43,3
0,42,112,0
0,69,76,0
0,42,126,0
0,40,123,0
0,40,0,1
0,42,0,0
0,76,0,0
0,69,0,0
0,63,0,0
0,66,0,3
0,47,0,4
0,66,0,3
0,64,0,2
0,63,0,0
0,57,0,1
0,69,23,4
0,76,74,0
0,42,60,0
0,42,0,1
0,76,0,0
0,69,0,0
0,42,80,11
0,42,0,1
0,66,122,8
0,77,36,3
0,42,94,0
0,69,56,0
0,69,0,1
0,77,0,0
0,42,0,0
0,42,40,11
0,42,0,1
0,66,0,8
0,77,69,3
0,42,74,0
0,69,10,0
0,69,0,1
0,42,0,0
0,77,0,0
0,42,0,6
0,66,127,1
0,66,100,3
0,59,113,0
0,62,108,0
0,42,108,0
0,35,127,0
0,69,64,0
0,71,97,0
0,40,99,0
0,55,106,0
0,28,107,0
0,74,100,0
0,78,91,0
0,69,0,1
0,35,0,0
0,42,0,0
0,42,40,23
0,69,23,0
0,76,79,0
0,76,0,1
0,69,0,0
0,42,0,0
0,42,96,23
0,77,88,0
0,69,64,0
0,69,0,1
0,77,0,0
0,42,0,0
0,77,79,2
0,69,23,0
0,42,40,0
0,42,0,1
0,69,0,0
0,77,0,0
0,35,100,1
0,78,0,3
0,74,0,2
0,71,0,2
0,28,0,1
0,35,0,3
0,66,0,4
0,76,86,4
0,69,76,0
0,35,110,0
0,42,104,0
0,40,113,0
0,40,0,1
0,42,0,0
0,69,0,0
0,76,0,0
0,62,0,2
0,59,0,1
0,55,0,1
0,40,0,15
0,46,108,4
0,76,79,0
0,69,23,0
0,69,0,1
0,46,0,0
0,76,0,0
0,35,125,1
0,35,0,1
0,66,0,17
0,62,107,2
0,76,24,1
0,42,104,0
0,69,56,0
0,69,0,1
0,76,0,0
0,42,0,0
0,35,0,17
0,57,99,6
0,62,93,0
0,46,116,0
0,54,74,0
0,69,10,0
0,76,97,0
0,62,0,0
0,59,112,1
0,69,0,0
0,46,0,0
0,76,0,0
0,35,122,1
0,54,104,0
0,30,121,0
0,42,121,0
0,62,106,0
0,57,111,0
0,35,0,0
0,69,64,21
0,42,92,0
0,42,0,1
0,69,0,0
0,76,92,23
0,69,23,0
0,42,40,0
0,42,0,1
0,76,0,0
0,69,0,0
0,69,64,23
0,77,40,0
0,42,92,0
0,42,0,1
0,69,0,0
0,77,0,0
0,30,0,21
0,77,82,2
0,69,23,0
0,42,40,0
0,42,0,1
0,69,0,0
0,77,0,0
0,59,0,3
0,54,0,1
0,57,0,1
0,64,127,1
0,42,110,2
0,38,115,0
0,69,76,0
0,40,125,0
0,76,43,0
0,76,0,1
0,42,0,0
0,40,0,0
0,69,0,0
0,54,0,1
0,62,0,1
0,42,0,2
