track,note,velocity,time
0,45,84,53
0,57,100,0
0,45,84,0
0,57,100,0
0,45,81,0
0,57,89,0
0,45,81,0
0,57,89,0
0,45,88,0
0,58,91,0
0,45,88,0
0,58,91,0
0,45,81,5
0,55,75,0
0,45,81,0
0,55,75,0
0,45,88,0
0,57,97,0
0,45,88,0
0,57,97,0
0,45,52,0
0,57,21,0
0,45,52,0
0,57,21,0
0,45,27,0
0,58,24,0
0,45,27,0
0,58,24,0
0,45,27,0
0,55,21,0
0,45,27,0
0,55,21,0
0,45,96,15
0,57,97,0
0,45,96,0
0,57,97,0
0,45,77,0
0,57,89,0
0,45,77,0
0,57,89,0
0,45,81,0
0,58,82,0
0,45,81,0
0,58,82,0
0,45,68,30
0,55,77,0
0,45,68,0
0,55,77,0
0,45,91,0
0,57,94,0
0,45,91,0
0,57,94,0
0,45,60,0
0,57,22,0
0,45,60,0
0,57,22,0
0,45,29,0
0,58,21,0
0,45,29,0
0,58,21,0
0,45,25,0
0,55,21,0
0,45,25,0
0,55,21,0
0,45,93,0
0,57,94,0
0,45,93,0
0,57,94,0
0,45,77,0
0,57,87,0
0,45,77,0
0,57,87,0
0,45,79,0
0,58,89,0
0,45,79,0
0,58,89,0
0,45,64,0
0,55,77,0
0,45,64,0
0,55,77,0
0,45,93,0
0,57,86,0
0,45,93,0
0,57,86,0
0,45,73,30
0,57,84,0
0,45,73,0
0,57,84,0
0,45,56,0
0,58,79,0
0,45,56,0
0,58,79,0
0,45,48,0
0,55,75,0
0,45,48,0
0,55,75,0
0,45,86,0
0,57,94,0
0,45,86,0
0,57,94,0
0,45,71,0
0,57,88,0
0,45,71,0
0,57,88,0
0,45,56,30
0,58,86,0
0,45,56,0
0,58,86,0
0,45,64,0
0,55,77,0
0,45,64,0
0,55,77,0
0,45,77,27
0,57,86,0
0,45,77,0
0,57,86,0
0,45,44,0
0,57,21,0
0,45,44,0
0,57,21,0
0,45,40,15
0,58,20,0
0,45,40,0
0,58,20,0
0,45,16,0
0,55,17,0
0,45,16,0
0,55,17,0
0,64,99,0
0,67,97,0
0,45,84,0
0,57,100,0
0,45,84,0
0,57,100,0
0,45,81,0
0,57,89,0
0,45,81,0
0,57,89,0
0,45,88,14
0,58,91,0
0,45,88,0
0,58,91,0
0,45,81,0
0,55,75,0
0,45,81,0
0,55,75,0
0,45,88,0
0,57,97,0
0,45,88,0
0,57,97,0
0,45,52,0
0,57,21,0
0,45,52,0
0,57,21,0
0,45,27,0
0,58,24,0
0,45,27,0
0,58,24,0
0,45,27,0
0,55,21,0
0,45,27,0
0,55,21,0
0,45,96,0
0,57,97,0
0,45,96,0
0,57,97,0
0,45,77,0
0,57,89,0
0,45,77,0
0,57,89,0
0,45,81,0
0,58,82,0
0,45,81,0
0,58,82,0
0,45,68,0
0,55,77,0
0,45,68,0
0,55,77,0
0,62,97,0
0,66,96,0
0,45,91,0
0,57,94,0
0,45,91,0
0,57,94,0
0,45,60,0
0,57,22,0
0,45,60,0
0,57,22,0
0,64,102,0
0,67,98,0
0,45,29,0
0,58,21,0
0,45,29,0
0,58,21,0
0,62,95,0
0,66,87,0
0,45,25,0
0,55,21,0
0,45,25,0
0,55,21,0
0,61,107,0
0,64,82,0
0,45,93,0
0,57,94,0
0,45,93,0
0,57,94,0
0,45,77,0
0,57,87,0
0,45,77,0
0,57,87,0
0,45,79,0
0,58,89,0
0,45,79,0
0,58,89,0
0,45,64,0
0,55,77,0
0,45,64,0
0,55,77,0
0,45,93,0
0,57,86,0
0,45,93,0
0,57,86,0
0,45,73,0
0,57,84,0
0,45,73,0
0,57,84,0
0,45,56,0
0,58,79,0
0,45,56,0
0,58,79,0
0,45,48,0
0,55,75,0
0,45,48,0
0,55,75,0
0,57,8,80
0,49,13,50
0,57,15,30
0,45,86,0
0,57,94,0
0,45,86,0
0,57,94,0
0,49,23,50
0,57,29,50
0,49,28,0
0,45,71,0
0,57,88,0
0,45,71,0
0,57,88,0
0,57,33,50
0,49,34,50
0,45,56,3
0,58,86,0
0,45,56,0
0,58,86,0
0,57,36,0
0,49,37,3
0,57,41,3
0,45,64,0
0,55,77,0
0,45,64,0
0,55,77,0
0,49,41,3
0,57,46,30
0,49,45,20
0,45,77,10
0,57,86,0
0,45,77,0
0,57,86,0
0,45,127,6
0,57,51,34
0,49,50,90
0,57,55,10
0,45,44,0
0,64,78,0
0,45,44,0
0,57,21,0
0,49,55,35
0,57,60,7
0,45,40,0
0,58,20,0
0,45,40,0
0,69,89,0
0,64,110,0
0,49,60,0
0,74,95,26
0,57,65,24
0,49,65,40
0,45,16,0
0,64,57,0
0,45,16,0
0,55,17,0
0,64,110,0
0,57,70,0
0,49,68,24
0,57,74,50
0,45,65,0
0,57,87,0
0,64,96,0
0,33,94,0
0,76,110,0
0,35,117,0
0,49,78,0
0,33,87,30
0,44,88,0
0,45,62,0
0,57,76,0
0,69,94,1
0,73,91,10
0,45,69,0
0,58,78,0
0,33,95,0
0,76,110,0
0,37,102,0
0,42,106,0
0,45,62,0
0,55,62,0
0,33,89,0
0,74,110,0
0,44,87,0
0,33,94,0
0,35,117,0
0,42,105,0
0,45,69,0
0,57,84,0
0,45,33,0
0,57,33,0
0,33,91,0
0,74,110,0
0,44,87,0
0,33,94,0
0,37,100,0
0,42,106,0
0,45,8,0
0,58,35,0
0,45,8,0
0,33,88,0
0,74,110,0
0,44,87,0
0,55,30,2
0,33,94,60
0,73,110,0
0,35,106,0
0,42,106,0
0,45,77,0
0,57,84,0
0,33,87,30
0,44,87,0
0,45,58,0
0,57,76,0
0,45,62,12
0,58,69,0
0,33,95,0
0,37,106,0
0,42,107,0
0,33,89,30
0,44,83,0
0,45,49,0
0,55,64,0
0,33,94,0
0,35,108,0
0,42,109,0
0,45,72,0
0,57,81,0
0,33,91,0
0,44,83,0
0,45,41,0
0,57,33,0
0,45,10,0
0,58,35,0
0,33,94,0
0,64,110,0
0,37,100,0
0,42,110,0
0,45,6,0
0,33,88,0
0,64,110,0
0,44,85,0
0,55,30,2
0,45,74,0
0,57,81,0
0,33,94,0
0,76,110,0
0,35,117,0
0,42,107,0
0,45,58,0
0,57,74,0
0,33,87,0
0,76,110,0
0,44,88,0
0,33,95,0
0,37,102,0
0,42,106,0
0,45,60,0
0,58,76,0
0,45,45,0
0,55,64,0
0,33,89,0
0,74,110,0
0,44,87,0
0,33,94,0
0,35,117,0
0,42,105,0
0,45,74,0
0,57,73,0
0,45,54,0
0,57,71,0
0,33,91,0
0,74,110,0
0,44,87,0
0,45,37,0
0,58,66,0
0,33,94,0
0,76,110,0
0,37,100,0
0,42,106,0
0,45,29,0
0,55,62,0
0,33,88,0
0,74,110,0
0,44,87,0
0,37,114,19
0,33,94,30
0,73,110,0
0,35,106,0
0,42,106,0
0,45,67,0
0,57,81,0
0,45,52,4
0,57,75,0
0,74,101,0
0,33,87,0
0,44,87,0
0,33,95,0
0,37,106,0
0,42,107,0
0,73,91,0
0,45,37,0
0,58,73,0
0,33,89,0
0,44,83,0
0,45,45,0
0,55,64,0
0,69,85,0
0,57,73,19
0,33,94,0
0,35,108,0
0,42,109,0
0,64,68,0
0,45,58,0
0,57,73,0
0,33,91,0
0,44,83,0
0,45,25,0
0,57,33,0
0,45,21,0
0,58,35,0
0,33,94,0
0,64,110,0
0,37,100,0
0,42,110,0
0,45,5,0
0,33,88,0
0,64,110,0
0,55,106,0
0,55,30,2
0,66,57,0
0,50,76,0
0,57,83,0
0,50,57,0
0,57,87,0
0,38,94,0
0,76,110,0
0,35,117,0
0,42,109,0
0,38,87,30
0,44,88,0
0,50,54,0
0,57,76,0
0,50,61,0
0,58,78,0
0,38,95,0
0,76,110,0
0,37,102,0
0,42,106,0
0,50,54,0
0,55,62,0
0,38,89,0
0,74,110,0
0,44,87,0
0,38,94,0
0,35,117,0
0,42,105,0
0,50,61,0
0,57,84,0
0,50,25,0
0,57,33,0
0,38,91,0
0,74,110,0
0,44,87,0
0,38,94,0
0,37,100,0
0,42,106,0
0,50,5,0
0,58,35,0
0,44,83,5
0,50,5,0
0,38,88,0
0,74,110,0
0,42,67,0
0,55,30,2
0,50,69,0
0,57,84,0
0,38,94,0
0,73,110,0
0,35,106,0
0,42,106,0
0,38,87,30
0,44,87,0
0,50,50,0
0,57,76,0
0,50,54,12
0,58,69,0
0,38,95,0
0,37,106,0
0,42,107,0
0,44,94,90
0,38,89,30
0,42,69,0
0,50,41,0
0,55,64,0
0,38,94,0
0,35,108,0
0,42,109,0
0,50,64,0
0,57,81,0
0,38,91,0
0,44,83,0
0,50,33,0
0,57,33,0
0,50,5,0
0,58,35,0
0,38,94,0
0,64,110,0
0,37,100,0
0,42,110,0
0,44,92,5
0,50,5,0
0,38,88,0
0,64,110,0
0,42,74,0
0,55,30,2
0,37,114,7
0,50,66,0
0,57,81,0
0,38,94,0
0,76,110,0
0,35,117,0
0,42,107,0
0,50,50,0
0,57,74,0
0,38,87,0
0,76,110,0
0,44,88,0
0,38,95,0
0,35,94,0
0,42,106,0
0,50,52,0
0,58,76,0
0,50,37,0
0,55,64,0
0,38,89,0
0,74,110,0
0,37,102,0
0,44,87,0
0,38,94,0
0,35,117,0
0,42,105,0
0,50,66,0
0,57,73,0
0,50,46,0
0,57,71,0
0,38,91,0
0,74,110,0
0,44,87,0
0,38,94,25
0,37,100,0
0,42,106,0
0,50,29,0
0,58,66,0
0,50,21,0
0,55,62,0
0,38,88,0
0,74,110,0
0,44,87,0
0,50,59,0
0,57,81,0
0,38,94,0
0,73,110,0
0,35,106,0
0,42,106,0
0,38,87,30
0,44,87,0
0,50,44,0
0,57,75,0
0,67,109,0
0,66,99,0
0,50,29,0
0,58,73,0
0,38,95,0
0,74,110,0
0,74,78,0
0,78,80,0
0,37,106,0
0,42,107,0
0,74,80,23
0,50,37,0
0,55,64,0
0,62,89,0
0,38,89,0
0,78,87,0
0,74,110,0
0,44,83,0
0,54,78,0
0,42,55,0
0,57,73,0
0,30,94,0
0,74,110,0
0,74,85,0
0,78,100,0
0,35,108,0
0,42,109,0
0,37,66,90
0,57,33,0
0,73,66,0
0,76,85,0
0,73,110,0
0,37,87,0
0,44,83,0
0,57,67,90
0,64,70,60
0,31,94,0
0,74,85,0
0,78,105,0
0,69,66,0
0,37,100,0
0,43,50,0
0,58,35,0
0,55,77,0
0,44,107,50
0,73,87,0
0,76,91,0
0,46,96,0
0,55,30,2
0,33,94,30
0,64,99,0
0,67,97,0
0,35,121,0
0,49,75,0
0,45,81,0
0,57,96,0
0,45,78,0
0,57,100,0
0,33,87,30
0,52,75,0
0,45,75,0
0,57,89,0
0,45,78,0
0,57,85,0
0,33,95,30
0,37,102,0
0,57,72,0
0,45,85,0
0,58,87,0
0,45,82,0
0,58,91,0
0,33,89,5
0,44,68,0
0,45,75,0
0,55,75,0
0,45,78,0
0,55,71,0
0,33,94,0
0,35,117,0
0,42,108,0
0,45,85,0
0,57,93,0
0,45,82,0
0,57,97,0
0,33,91,0
0,44,68,0
0,45,46,0
0,57,15,0
0,45,49,0
0,57,33,0
0,33,94,30
0,37,100,0
0,42,109,0
0,45,24,0
0,58,36,0
0,45,21,0
0,58,18,0
0,44,88,5
0,33,88,0
0,42,75,0
0,45,21,0
0,55,15,0
0,45,24,0
0,55,30,0
0,33,94,15
0,35,106,0
0,42,109,0
0,45,93,0
0,57,93,0
0,45,90,0
0,57,97,0
0,33,87,30
0,44,68,0
0,45,71,0
0,57,89,0
0,45,74,0
0,57,85,0
0,33,95,28
0,37,106,0
0,42,110,0
0,45,78,0
0,58,78,0
0,45,75,0
0,58,82,0
0,44,88,90
0,33,89,30
0,42,75,0
0,45,62,0
0,55,77,0
0,45,65,0
0,55,73,0
0,33,94,0
0,62,97,0
0,66,96,0
0,35,108,0
0,42,112,0
0,45,88,0
0,57,90,0
0,45,85,0
0,57,94,0
0,33,91,0
0,44,64,0
0,45,54,0
0,57,16,0
0,45,57,0
0,57,34,0
0,64,102,0
0,67,98,0
0,33,94,19
0,37,100,0
0,42,113,0
0,45,26,0
0,58,34,0
0,45,23,0
0,58,15,0
0,44,88,5
0,33,88,0
0,62,95,0
0,66,87,0
0,42,75,0
0,45,19,0
0,55,15,0
0,45,22,0
0,55,33,0
0,37,113,19
0,33,94,0
0,61,107,0
0,64,82,0
0,35,117,0
0,42,110,0
0,45,90,0
0,57,90,0
0,45,87,0
0,57,94,0
0,33,87,30
0,44,69,0
0,45,71,0
0,57,87,0
0,45,74,0
0,57,83,0
0,33,95,24
0,37,102,0
0,42,109,0
0,45,76,0
0,58,85,0
0,45,73,0
0,58,89,0
0,44,88,90
0,33,89,0
0,42,75,0
0,45,58,0
0,55,77,0
0,45,61,0
0,55,73,0
0,33,94,0
0,35,117,0
0,42,108,0
0,45,90,0
0,57,82,0
0,45,87,0
0,57,86,0
0,33,91,0
0,44,68,0
0,45,67,0
0,57,84,0
0,45,70,0
0,57,80,0
0,33,94,25
0,37,100,0
0,42,109,0
0,45,53,0
0,58,75,0
0,45,50,0
0,58,79,0
0,44,88,5
0,33,88,30
0,42,75,0
0,45,42,0
0,55,75,0
0,45,45,0
0,55,71,0
0,33,94,30
0,35,106,0
0,42,109,0
0,45,83,0
0,57,90,0
0,45,80,0
0,57,94,0
0,45,65,2
0,57,88,0
0,45,68,0
0,57,84,0
0,33,87,0
0,44,68,0
0,33,105,30
0,37,106,0
0,42,110,0
0,45,53,0
0,58,82,0
0,45,50,0
0,58,86,0
0,40,115,0
0,44,64,0
0,45,58,0
0,55,77,0
0,45,61,0
0,55,73,0
0,43,121,0
0,35,108,0
0,42,112,0
0,45,74,0
0,57,82,0
0,45,71,0
0,57,86,0
0,40,101,0
0,44,64,0
0,45,38,0
0,57,15,0
0,45,41,0
0,57,30,0
0,45,37,0
0,58,29,0
0,45,34,0
0,58,14,0
0,38,100,0
0,64,110,0
0,47,66,0
0,47,100,90
0,45,10,0
0,55,11,0
0,45,13,0
0,55,32,0
0,36,97,0
0,64,110,0
0,45,65,0
0,57,87,0
0,64,96,0
0,33,94,0
0,76,110,0
0,35,117,0
0,49,78,0
0,33,87,30
0,55,100,0
0,45,62,0
0,57,76,0
0,69,91,1
0,73,85,10
0,45,69,0
0,58,78,0
0,33,95,0
0,76,110,0
0,37,102,0
0,57,87,0
0,45,62,0
0,55,62,0
0,33,89,0
0,74,110,0
0,44,85,0
0,33,94,0
0,35,117,0
0,42,108,0
0,45,69,0
0,57,84,0
0,45,33,0
0,57,33,0
0,33,91,0
0,76,110,0
0,44,84,0
0,33,94,0
0,37,100,0
0,42,109,0
0,45,8,0
0,58,35,0
0,45,8,0
0,33,88,0
0,74,110,0
0,44,78,0
0,55,30,2
0,33,94,60
0,73,110,0
0,35,106,0
0,42,109,0
0,45,77,0
0,57,84,0
0,33,87,30
0,44,83,0
0,45,58,0
0,57,76,0
0,45,62,12
0,58,69,0
0,33,95,0
0,37,106,0
0,42,110,0
0,44,81,90
0,33,89,30
0,42,68,0
0,45,49,0
0,55,64,0
0,33,94,0
0,35,108,0
0,42,112,0
0,45,72,0
0,57,81,0
0,33,91,0
0,37,100,0
0,44,96,0
0,45,41,0
0,57,33,0
0,45,10,0
0,58,35,0
0,33,94,0
0,64,110,0
0,37,110,0
0,42,113,0
0,44,91,5
0,45,6,0
0,33,88,0
0,64,110,0
0,46,81,0
0,55,30,2
0,45,74,0
0,57,81,0
0,33,94,0
0,76,110,0
0,35,117,0
0,42,110,0
0,45,58,25
0,57,74,0
0,33,87,0
0,44,79,0
0,45,60,0
0,58,76,0
0,33,95,0
0,76,110,0
0,37,102,0
0,42,109,0
0,45,45,0
0,55,64,0
0,33,89,0
0,74,110,0
0,44,78,0
0,37,97,90
0,33,94,0
0,35,117,0
0,42,108,0
0,45,74,0
0,57,73,0
0,45,54,0
0,57,71,0
0,33,91,0
0,76,110,0
0,44,78,0
0,33,94,25
0,37,100,0
0,42,109,0
0,45,37,0
