track,note,velocity,time
1,32,86,5876
1,31,72,18
1,32,81,6
1,32,72,226
1,32,72,45
1,32,57,227
1,32,74,60
1,32,74,231
1,32,84,48
1,32,55,225
1,30,70,48
1,30,84,204
1,30,81,36
1,30,64,222
1,30,80,30
1,30,63,229
1,30,73,51
1,30,42,228
1,29,86,42
1,29,72,228
1,29,77,53
1,29,72,234
1,29,81,59
1,29,61,243
1,29,75,57
1,29,59,240
1,28,76,48
1,28,82,219
1,28,86,33
1,28,64,228
1,28,91,48
1,28,64,234
1,28,72,50
1,28,69,249
1,27,77,9
1,27,72,221
1,27,80,54
1,27,80,240
1,27,84,57
1,27,69,240
1,27,87,63
1,27,67,246
1,26,66,57
1,26,65,219
1,26,69,50
1,26,69,242
1,26,70,45
1,26,65,249
1,26,81,63
1,26,64,246
1,32,86,57
1,32,84,240
1,32,82,57
1,32,77,234
1,32,84,42
1,32,66,240
1,32,81,60
1,32,64,252
1,32,91,72
1,32,58,234
1,32,80,57
1,32,65,246
1,31,66,36
1,31,59,234
1,31,58,33
1,31,72,51
1,31,79,156
1,32,81,48
1,32,72,226
1,32,72,45
1,32,57,227
1,32,74,60
1,32,74,231
1,32,84,48
1,32,55,225
1,30,70,48
1,30,84,204
1,30,81,36
1,30,64,222
1,30,80,30
1,30,63,229
1,30,73,51
1,30,42,228
1,29,86,42
1,29,72,228
1,29,77,53
1,29,72,234
1,29,81,59
1,29,61,243
1,29,75,57
1,29,59,240
1,28,76,48
1,28,82,219
1,28,86,33
1,28,64,228
1,28,91,48
1,28,64,234
1,28,72,50
1,28,69,249
1,34,77,9
1,34,72,221
1,34,80,54
1,34,80,240
1,34,84,57
1,34,69,240
1,34,87,63
1,34,67,246
1,33,66,57
1,33,65,219
1,33,69,50
1,33,69,242
1,33,70,45
1,33,65,249
1,33,81,63
1,33,64,246
1,32,86,57
1,32,84,240
1,32,82,57
1,32,77,234
1,32,84,42
1,32,66,240
1,32,81,60
1,32,64,252
1,32,91,72
1,32,58,234
1,32,80,57
1,32,65,246
1,31,66,36
1,31,59,234
1,31,58,33
1,31,72,51
1,31,79,156
1,36,95,48
1,36,106,180
1,36,106,244
1,36,116,162
1,31,62,268
1,36,67,48
1,29,84,42
1,29,98,46
1,36,86,165
1,29,75,96
1,34,100,108
1,33,86,5
1,32,91,14
1,32,87,40
1,32,91,310
1,33,61,9
1,34,93,6
1,34,87,37
1,34,87,39
1,27,93,75
1,27,108,76
1,27,71,19
1,29,77,48
1,31,69,39
1,31,60,19
1,32,81,237
1,32,72,226
1,32,72,45
1,32,57,227
1,32,74,60
1,32,74,231
1,32,84,48
1,32,55,225
1,30,70,48
1,30,84,204
1,30,81,36
1,30,64,222
1,30,80,30
1,30,63,229
1,30,73,51
1,30,42,228
1,29,86,42
1,29,72,228
1,29,77,53
1,29,72,234
1,29,81,59
1,29,61,243
1,29,75,57
1,29,59,240
1,28,76,48
1,28,82,219
1,28,86,33
1,28,64,228
1,28,91,48
1,28,64,234
1,28,72,50
1,28,69,249
1,34,77,9
1,34,72,221
1,34,80,54
1,34,80,240
1,34,84,57
1,34,69,240
1,34,87,63
1,34,67,246
1,33,66,57
1,33,65,219
1,33,69,50
1,33,69,242
1,33,70,45
1,33,65,249
1,33,81,63
1,33,64,246
1,32,86,57
1,32,84,240
1,32,82,57
1,32,77,234
1,32,84,42
1,32,66,240
1,32,81,60
1,32,64,252
1,32,91,72
1,32,58,234
1,32,80,57
1,32,65,246
1,31,66,36
1,31,59,234
1,31,58,33
1,31,72,51
1,31,79,156
1,36,95,48
1,36,106,180
1,36,106,244
1,36,116,162
1,31,62,268
1,36,67,48
1,29,84,42
1,29,98,46
1,36,86,165
1,29,75,96
1,34,100,108
1,33,86,5
1,32,91,14
1,32,87,40
1,32,91,310
1,33,61,9
1,34,93,6
1,34,87,37
1,34,87,39
1,27,102,75
1,27,118,91
1,32,81,20
1,31,111,11
1,32,81,62
1,32,72,226
1,32,72,45
1,32,57,227
1,32,74,60
1,32,74,231
1,32,84,48
1,32,55,225
1,30,70,48
1,30,84,204
1,30,81,36
1,30,64,222
1,30,80,30
1,30,63,229
1,30,73,51
1,30,42,228
1,29,86,42
1,29,72,228
1,29,77,53
1,29,72,234
1,29,81,59
1,29,61,243
1,29,75,57
1,29,59,240
1,28,76,48
1,28,82,219
1,28,86,33
1,28,64,228
1,28,91,48
1,28,64,234
1,28,72,50
1,28,69,249
1,34,77,9
1,34,72,221
1,34,80,54
1,34,80,240
1,34,84,57
1,34,69,240
1,34,87,63
1,34,67,246
1,33,66,57
1,33,65,219
1,33,69,50
1,33,69,242
1,33,70,45
1,33,65,249
1,33,81,63
1,33,64,246
1,32,86,57
1,32,84,240
1,32,82,57
1,32,77,234
1,32,84,42
1,32,66,240
1,32,81,60
1,32,64,252
1,32,91,72
1,32,58,234
1,32,80,57
1,32,65,246
1,31,66,36
1,31,70,42
1,31,59,192
1,31,58,33
1,31,72,0
1,36,90,156
1,36,86,4129
1,36,72,18
1,36,86,6
1,31,46,75
1,36,75,33
1,36,65,48
1,36,102,90
1,36,58,54
1,29,45,126
1,31,46,16
1,36,72,12
1,36,48,40
1,36,95,99
1,36,75,36
1,32,86,128
1,31,72,18
1,29,92,29
1,28,113,410
1,26,114,22
1,37,115,3
1,36,116,9
2,36,81,475
2,55,51,3
2,60,58,2
2,63,65,0
2,62,61,13
2,54,61,2
2,60,49,1
2,62,70,30
2,53,52,3
2,56,82,1
2,59,64,782
2,36,69,11
2,48,75,1
2,60,15,2
2,55,66,4
2,63,74,1
2,60,49,39
2,54,69,3
2,63,72,1
2,43,49,63
2,62,49,1
2,53,50,3
2,59,69,1
2,44,52,28
2,55,52,0
2,60,43,0
2,63,64,0
2,42,56,23
2,54,53,4
2,62,50,1
2,60,51,5
2,41,51,2
2,53,51,4
2,62,69,1
2,56,66,2
2,40,64,69
2,55,55,1
2,60,65,1
2,65,50,42
2,39,60,3
2,54,49,1
2,58,66,0
2,61,56,1
2,57,51,84
2,63,51,1
2,60,61,3
2,38,66,743
2,44,65,6
2,55,72,3
2,60,66,1
2,63,68,3
2,54,56,15
2,60,66,2
2,62,55,0
2,59,66,12
2,53,46,3
2,44,52,95
2,55,52,0
2,60,43,0
2,63,64,0
2,42,56,23
2,54,53,4
2,62,50,1
2,60,51,5
2,41,51,2
2,53,51,4
2,62,69,1
2,56,66,2
2,40,64,69
2,55,55,1
2,60,65,1
2,65,50,42
2,39,60,3
2,54,49,1
2,58,66,0
2,61,56,1
2,57,51,84
2,63,51,1
2,60,61,3
2,38,66,743
2,44,65,6
2,55,72,3
2,60,66,1
2,63,68,3
2,54,56,15
2,60,66,2
2,62,55,0
2,59,66,12
2,53,46,3
2,79,59,115
2,72,41,3
2,73,52,4
2,72,79,30
2,70,85,51
2,72,64,51
2,73,54,263
2,68,50,24
2,75,58,1
2,70,68,386
2,68,55,354
2,73,72,158
2,77,62,1
2,72,62,134
2,76,64,1
2,75,53,117
2,66,49,3
2,71,40,3
2,68,56,97
2,74,51,0
2,65,60,2
2,63,55,3
2,67,46,1
2,62,44,2
2,70,63,4
2,67,45,60
2,59,43,3
2,65,15,159
2,62,29,225
2,44,52,20
2,55,52,0
2,60,43,0
2,63,64,0
2,42,56,23
2,54,53,4
2,62,50,1
2,60,51,5
2,41,51,2
2,53,51,4
2,62,69,1
2,56,66,2
2,40,64,69
2,55,55,1
2,60,65,1
2,65,50,42
2,39,60,3
2,54,49,1
2,58,66,0
2,61,56,1
2,57,51,84
2,63,51,1
2,60,61,3
2,38,66,743
2,44,65,6
2,55,72,3
2,60,66,1
2,63,68,3
2,54,56,15
2,60,66,2
2,62,55,0
2,59,66,12
2,53,46,3
2,79,59,115
2,72,41,3
2,73,52,4
2,72,79,30
2,70,85,51
2,72,64,51
2,73,54,263
2,68,50,24
2,75,58,1
2,70,68,386
2,68,55,354
2,73,72,158
2,77,62,1
2,72,62,134
2,76,64,1
2,75,53,117
2,66,49,3
2,71,40,3
2,68,56,97
2,74,51,0
2,65,60,2
2,63,55,3
2,67,46,1
2,62,44,2
2,70,63,4
2,67,45,60
2,59,43,3
2,65,15,159
2,62,29,225
2,44,52,20
2,55,52,0
2,60,43,0
2,63,64,0
2,42,56,23
2,54,53,4
2,62,50,1
2,60,51,5
2,41,51,2
2,53,51,4
2,62,69,1
2,56,66,2
2,40,64,69
2,55,55,1
2,60,65,1
2,65,50,42
2,39,60,3
2,54,49,1
2,58,66,0
2,61,56,1
2,57,51,84
2,63,51,1
2,60,61,3
2,38,66,743
2,44,65,6
2,55,72,3
2,60,66,1
2,63,68,3
2,54,56,15
2,60,66,2
2,62,55,0
2,59,66,12
2,53,46,3
2,36,81,105
2,55,51,3
2,60,58,2
2,63,65,0
2,36,90,6
2,62,61,7
2,54,61,2
2,60,49,1
2,62,70,30
2,56,82,4
2,59,64,782
2,36,69,11
2,48,75,1
2,60,15,2
2,55,66,4
2,63,74,1
2,60,49,39
2,54,69,3
2,63,72,1
2,43,49,63
2,62,49,1
2,53,50,3
2,59,69,1
2,36,81,38
2,55,51,3
2,60,58,2
2,63,65,0
2,48,75,1113
2,36,79,6
2,62,61,7
2,54,61,2
2,60,49,1
2,62,70,30
2,53,52,3
2,56,82,1
2,59,64,782
2,36,69,11
2,48,75,1
2,60,15,2
2,55,66,4
2,63,74,1
2,60,49,39
2,54,69,3
2,63,72,1
2,43,49,63
2,62,49,1
2,53,50,3
2,59,69,1
2,65,77,861
2,70,80,1
2,58,82,3
2,61,67,7
2,68,68,0
2,56,65,3
2,63,52,102
2,67,66,21
2,65,50,3
2,72,49,4
3,75,84,6251
3,74,86,43
3,75,61,22
3,74,69,31
3,71,82,19
3,72,89,34
3,75,79,659
3,74,72,28
3,72,78,25
3,75,75,19
3,74,72,25
3,72,78,28
3,71,46,317
3,70,57,15
3,69,62,36
3,75,98,569
3,74,86,82
3,72,81,34
3,75,75,31
3,74,77,28
3,72,81,76
3,65,78,7
3,71,67,7
3,72,68,1
3,65,55,130
3,67,77,536
3,68,77,31
3,69,82,22
3,70,81,21
3,71,80,21
3,72,72,33
3,72,84,689
3,73,77,31
3,75,74,27
3,78,41,43
3,79,63,6
3,78,67,64
3,77,80,24
3,77,97,620
3,77,82,34
3,78,92,3
3,77,78,19
3,74,93,10
3,75,84,10
3,74,56,227
3,73,66,3
3,72,76,24
3,77,86,568
3,77,80,36
3,78,95,3
3,77,77,19
3,74,86,12
3,75,89,31
3,75,81,454
3,74,81,28
3,72,77,54
3,70,49,239
3,68,70,15
3,68,81,34
3,67,72,649
3,75,95,228
3,74,84,40
3,75,79,15
3,74,76,25
3,71,87,16
3,72,93,19
3,75,81,741
3,74,77,25
3,72,81,7
3,75,79,34
3,74,82,25
3,72,77,28
3,71,60,139
3,70,57,10
3,69,72,18
3,75,98,512
3,74,87,43
3,72,80,7
3,72,76,22
3,75,72,22
3,74,69,25
3,72,74,37
3,65,78,15
3,71,60,19
3,72,80,18
3,65,62,9
3,67,73,493
3,68,81,30
3,69,72,34
3,70,77,24
3,71,74,24
3,72,74,55
3,72,72,722
3,73,72,25
3,75,72,25
3,78,44,52
3,79,69,1
3,78,60,73
3,77,78,27
3,77,97,717
3,77,86,37
3,78,89,9
3,77,78,21
3,74,91,6
3,75,98,9
3,74,58,173
3,73,62,13
3,72,70,12
3,78,86,653
3,77,87,33
3,78,89,9
3,77,74,24
3,74,89,15
3,75,79,27
3,75,111,575
3,74,89,30
3,72,74,48
3,68,84,3
3,68,79,25
3,67,60,650
3,67,74,112
3,68,74,39
3,69,82,40
3,70,81,25
3,71,87,25
3,72,97,42
3,72,87,837
3,72,95,33
3,76,91,18
3,79,87,18
3,82,102,64
3,80,64,239
3,79,71,30
3,80,92,9
3,77,93,490
3,76,97,6
3,75,89,125
3,71,93,865
3,74,93,19
3,77,84,25
3,80,92,57
3,79,69,236
3,78,67,34
3,79,84,16
3,75,98,512
3,74,82,37
3,75,79,16
3,74,87,28
3,71,87,19
3,72,86,34
3,75,122,753
3,74,82,28
3,72,80,15
3,75,74,15
3,74,81,21
3,72,76,22
3,71,56,211
3,70,56,3
3,69,80,24
3,75,122,644
3,74,76,27
3,72,77,12
3,75,70,15
3,74,80,18
3,72,67,18
3,65,91,3
3,72,80,1
3,65,58,4
3,67,36,502
3,67,56,27
3,68,77,15
3,68,65,25
3,70,81,21
3,71,86,25
3,72,81,33
3,72,89,829
3,73,79,16
3,75,81,19
3,79,74,43
3,78,67,16
3,77,93,31
3,77,91,678
3,77,80,31
3,78,81,4
3,77,73,16
3,74,86,7
3,75,95,91
3,74,55,193
3,73,53,12
3,72,70,12
3,78,122,708
3,77,68,28
3,78,79,7
3,77,78,19
3,74,82,7
3,75,77,7
3,74,67,511
3,75,69,12
3,74,80,3
3,72,82,3
3,68,77,254
3,68,75,28
3,67,70,3
3,67,80,87
3,68,72,34
3,69,84,16
3,70,79,19
3,71,89,18
3,72,91,31
3,72,84,807
3,72,95,25
3,76,86,18
3,79,86,24
3,82,98,58
3,80,55,196
3,79,69,15
3,80,92,6
3,77,87,608
3,76,93,136
3,75,106,127
3,71,91,874
3,74,95,16
3,77,86,15
3,80,95,51
3,79,66,4
3,77,73,36
3,79,86,15
4,74,105,781
4,75,93,0
4,74,77,87
4,72,73,4
4,67,82,4
4,74,91,10
4,75,85,24
4,74,79,117
4,72,84,9
4,66,94,3
4,74,96,246
4,75,88,21
4,74,88,126
4,72,59,254
4,75,83,179
4,77,124,21
4,75,102,9
4,77,58,69
4,75,68,18
4,74,73,18
4,72,84,18
4,74,91,28
4,72,81,6
4,74,84,21
4,72,84,9
4,74,84,1
4,72,84,9
4,74,56,135
4,71,80,18
4,75,75,13
4,77,109,15
4,75,94,75
4,74,77,10
4,71,91,16
4,68,93,4
4,67,123,15
4,68,76,1
4,67,77,23
4,65,79,15
4,67,79,30
4,68,85,18
4,67,76,21
4,65,99,9
4,64,88,3
4,54,89,140
4,60,74,1
4,63,93,1
4,53,58,3
4,59,77,2
4,62,66,0
4,55,50,90
4,63,56,7
4,60,40,3
4,63,91,432
4,65,88,1
4,63,91,263
4,65,93,1
4,75,94,398
4,74,124,9
4,72,82,13
4,74,56,7
4,72,77,24
4,69,86,24
4,71,88,729
4,67,86,4
4,72,84,12
4,65,82,84
4,67,72,1
4,65,71,30
4,72,101,472
4,73,111,9
4,79,106,1
4,72,106,197
4,70,109,684
4,76,87,24
4,77,99,15
4,70,91,10
4,68,80,42
4,70,78,42
4,66,89,507
4,72,87,9
4,74,86,48
4,75,103,19
4,77,96,1
4,78,91,41
4,81,124,3
4,78,86,42
4,77,96,27
4,75,93,33
4,74,106,6
4,75,80,24
4,74,82,24
4,72,63,9
4,74,80,15
4,55,81,851
4,56,89,3
4,60,84,0
4,63,94,2
4,72,74,0
4,75,122,1
4,74,88,1
4,74,89,0
4,72,92,21
4,70,87,7
4,68,98,6
4,55,86,18
4,60,88,3
4,56,91,3
4,63,91,1
4,67,96,3
4,51,87,16
4,54,81,93
4,56,87,102
4,60,98,87
4,63,104,102
4,65,111,3
4,55,88,83
4,59,90,3
4,67,92,2
4,74,106,135
4,75,113,7
4,74,124,132
4,71,103,57
4,72,103,62
4,57,87,11
4,60,89,1
4,54,91,2
4,63,95,1
4,76,83,1
4,77,124,3
4,75,108,84
4,74,103,4
4,57,75,72
4,60,73,4
4,54,77,3
4,63,76,0
4,71,88,630
4,53,84,3
4,56,94,1
4,60,77,1
4,63,92,1
4,72,124,4
4,53,78,53
4,56,92,1
4,62,84,1
4,71,104,0
4,60,75,2
4,67,92,6
4,53,83,24
4,56,91,1
4,60,88,1
4,62,79,0
4,68,106,23
4,67,89,36
4,55,80,542
4,60,77,3
4,61,86,1
4,72,94,3
4,73,98,3
4,78,86,1
4,55,88,2
4,60,88,1
4,61,87,3
4,79,124,3
4,73,99,153
4,55,83,68
4,60,86,1
4,73,106,2
4,61,87,1
4,72,91,4
