track,note,velocity,time
0,39,53,478
0,63,48,0
0,70,60,0
0,27,96,0
0,51,85,0
0,36,122,0
0,70,101,0
0,58,82,58
0,69,37,0
0,63,58,66
0,42,88,0
0,70,64,0
0,63,67,20
0,39,96,0
0,67,88,0
0,38,121,0
0,42,85,0
0,69,62,0
0,58,73,56
0,36,106,0
0,70,51,0
0,67,80,12
0,63,95,0
0,70,95,0
0,38,58,0
0,46,78,0
0,69,51,0
0,58,57,38
0,70,70,0
0,34,85,24
0,67,85,0
0,69,39,0
0,51,11,0
0,39,45,0
0,62,51,0
0,65,51,0
0,70,48,0
0,27,70,0
0,51,60,0
0,36,115,0
0,42,82,0
0,70,66,0
0,58,64,2
0,69,49,0
0,62,66,36
0,42,70,0
0,70,57,0
0,51,39,10
0,39,66,0
0,65,96,0
0,38,121,0
0,69,64,0
0,58,62,40
0,36,112,0
0,70,57,0
0,62,71,0
0,34,73,0
0,70,96,0
0,69,50,0
0,58,76,34
0,42,96,0
0,54,116,0
0,70,68,0
0,51,15,0
0,62,66,0
0,46,73,0
0,69,45,0
0,39,43,8
0,61,57,0
0,65,60,0
0,67,60,0
0,27,85,0
0,58,60,0
0,36,118,0
0,42,85,0
0,70,68,0
0,61,66,16
0,69,42,0
0,51,36,0
0,70,64,0
0,51,39,28
0,39,66,0
0,65,101,0
0,38,110,0
0,69,70,0
0,58,51,10
0,36,118,0
0,70,64,0
0,61,41,4
0,61,88,0
0,67,105,0
0,38,41,0
0,69,48,0
0,65,60,28
0,58,46,0
0,42,70,0
0,46,73,0
0,70,66,0
0,51,67,0
0,61,76,0
0,65,76,0
0,68,80,0
0,61,96,0
0,68,101,0
0,69,50,0
0,27,85,10
0,58,38,0
0,36,118,0
0,42,96,0
0,70,76,0
0,67,88,2
0,38,38,0
0,69,50,0
0,58,42,40
0,42,105,0
0,70,57,0
0,51,57,22
0,61,60,0
0,67,85,0
0,39,101,0
0,61,88,0
0,65,116,0
0,38,121,0
0,69,76,0
0,58,55,42
0,36,118,0
0,70,64,0
0,65,71,10
0,27,88,0
0,61,36,0
0,67,101,0
0,69,52,0
0,42,85,42
0,54,116,0
0,70,76,0
0,63,44,20
0,69,45,0
0,44,60,16
0,56,63,0
0,60,60,0
0,63,53,0
0,32,85,0
0,44,73,0
0,36,127,0
0,42,62,0
0,70,68,0
0,51,66,8
0,69,51,0
0,56,66,4
0,42,96,0
0,70,60,0
0,44,76,18
0,60,76,0
0,38,116,0
0,69,85,0
0,51,60,46
0,36,122,0
0,70,66,0
0,56,48,16
0,60,76,0
0,63,67,0
0,32,96,0
0,56,85,0
0,63,127,0
0,38,51,0
0,69,50,0
0,44,41,32
0,42,101,0
0,46,70,0
0,70,76,0
0,65,68,18
0,69,43,0
0,43,57,10
0,55,60,0
0,58,67,0
0,62,51,0
0,31,85,0
0,43,70,0
0,36,127,0
0,42,82,0
0,70,82,0
0,50,62,18
0,69,47,0
0,58,68,48
0,70,66,0
0,62,105,0
0,38,116,0
0,69,78,0
0,50,52,42
0,36,127,0
0,70,70,0
0,55,45,10
0,43,76,0
0,58,49,0
0,65,110,0
0,38,46,0
0,69,52,0
0,43,45,34
0,42,105,0
0,54,116,0
0,70,76,0
0,69,57,22
0,41,51,16
0,53,60,0
0,56,60,0
0,60,57,0
0,29,78,0
0,41,78,0
0,63,101,0
0,36,127,0
0,70,76,0
0,48,73,24
0,69,52,0
0,56,66,60
0,42,62,0
0,70,78,0
0,53,57,28
0,41,78,0
0,60,101,0
0,38,110,0
0,46,46,0
0,69,68,0
0,48,46,26
0,36,126,0
0,70,62,0
0,56,51,8
0,63,85,0
0,69,68,0
0,42,96,60
0,70,66,0
0,60,21,24
0,29,96,0
0,60,85,0
0,38,41,0
0,46,82,0
0,69,55,0
0,41,23,56
0,41,52,0
0,36,126,0
0,42,55,0
0,70,73,0
0,53,21,4
0,48,85,0
0,69,48,0
0,56,32,40
0,56,47,0
0,70,76,0
0,53,45,0
0,56,76,0
0,60,76,0
0,41,88,0
0,60,96,0
0,38,127,0
0,69,73,0
0,48,57,32
0,36,127,0
0,70,60,0
0,53,63,6
0,56,67,0
0,60,76,0
0,36,68,0
0,63,88,0
0,62,104,0
0,38,64,0
0,43,101,0
0,69,68,0
0,38,92,2
0,42,116,0
0,54,127,0
0,70,82,0
0,63,75,32
0,46,76,42
0,69,57,0
0,39,53,26
0,63,48,0
0,70,60,0
0,27,96,0
0,62,71,0
0,36,122,0
0,49,96,0
0,70,101,0
0,69,37,58
0,58,38,18
0,42,88,48
0,70,64,0
0,58,80,2
0,63,67,20
0,39,96,0
0,38,121,0
0,42,85,0
0,69,62,0
0,55,52,2
0,36,106,48
0,70,51,0
0,60,52,24
0,67,80,12
0,38,58,0
0,46,78,0
0,69,51,0
0,70,70,46
0,34,85,24
0,58,46,0
0,69,39,0
0,51,11,12
0,39,45,0
0,62,51,0
0,65,51,0
0,70,48,0
0,27,70,0
0,36,115,0
0,42,82,0
0,70,66,0
0,58,58,26
0,69,49,16
0,42,70,36
0,70,57,0
0,51,39,18
0,39,66,0
0,38,121,0
0,69,64,0
0,36,112,40
0,70,57,0
0,62,71,0
0,34,73,0
0,69,50,0
0,42,96,34
0,54,116,0
0,70,68,0
0,51,15,0
0,55,52,0
0,46,73,0
0,69,45,0
0,39,43,8
0,61,57,0
0,65,60,0
0,67,60,0
0,27,85,0
0,60,75,0
0,36,118,0
0,42,85,0
0,70,68,0
0,58,38,16
0,69,42,0
0,58,52,0
0,70,64,0
0,51,39,10
0,39,66,0
0,55,75,0
0,38,110,0
0,69,70,0
0,36,118,10
0,70,64,0
0,61,41,4
0,53,40,0
0,38,41,0
0,69,48,0
0,65,60,28
0,53,71,0
0,42,70,0
0,46,73,0
0,70,66,0
0,51,67,16
0,61,76,0
0,65,76,0
0,68,80,0
0,51,36,0
0,69,50,0
0,27,85,10
0,36,118,0
0,42,96,0
0,70,76,0
0,38,38,24
0,69,50,0
0,42,105,40
0,70,57,0
0,51,57,22
0,61,60,0
0,67,85,0
0,39,101,0
0,38,121,0
0,69,76,0
0,36,118,10
0,70,64,0
0,65,71,10
0,27,88,0
0,63,75,0
0,69,52,0
0,63,71,38
0,42,85,0
0,54,116,0
0,70,76,0
0,60,71,20
0,69,45,0
0,44,60,52
0,56,63,0
0,60,60,0
0,63,53,0
0,32,85,0
0,36,127,0
0,42,62,0
0,70,68,0
0,69,51,8
0,42,96,54
0,70,60,0
0,44,76,18
0,63,80,0
0,38,116,0
0,69,85,0
0,36,122,4
0,70,66,0
0,63,80,18
0,56,48,16
0,60,76,0
0,63,67,0
0,32,96,0
0,38,51,0
0,69,50,0
0,63,71,32
0,42,101,0
0,46,70,0
0,70,76,0
0,69,43,18
0,65,71,6
0,43,57,10
0,55,60,0
0,58,67,0
0,62,51,0
0,31,85,0
0,36,127,0
0,42,82,0
0,70,82,0
0,69,47,18
0,70,66,48
0,58,40,2
0,38,116,0
0,69,78,0
0,36,127,42
0,70,70,0
0,55,45,10
0,43,76,0
0,58,55,0
0,38,46,0
0,69,52,0
0,60,71,26
0,42,105,0
0,54,116,0
0,70,76,0
0,63,62,22
0,69,57,0
0,41,51,16
0,53,60,0
0,56,60,0
0,60,57,0
0,29,78,0
0,36,127,0
0,70,76,0
0,60,52,24
0,69,52,0
0,58,46,34
0,42,62,0
0,70,78,0
0,53,57,28
0,41,78,0
0,55,66,0
0,38,110,0
0,46,46,0
0,69,68,0
0,36,126,26
0,70,62,0
0,56,51,22
0,53,71,0
0,69,68,0
0,51,71,52
0,42,96,0
0,70,66,0
0,60,21,24
0,29,96,0
0,38,41,0
0,46,82,0
0,69,55,0
0,41,23,56
0,36,126,0
0,42,55,0
0,70,73,0
0,53,21,2
0,48,52,0
0,69,48,0
0,56,32,50
0,51,55,0
0,70,76,0
0,53,45,0
0,56,76,0
0,60,76,0
0,41,88,0
0,48,46,0
0,38,127,0
0,69,73,0
0,51,46,8
0,36,127,0
0,70,60,0
0,53,63,32
0,56,67,0
0,60,76,0
0,36,68,0
0,51,62,0
0,38,64,0
0,69,68,0
0,48,36,32
0,42,116,0
0,54,127,0
0,70,82,0
0,46,55,12
0,46,76,0
0,69,57,0
0,39,53,44
0,63,48,0
0,70,60,0
0,27,96,0
0,36,122,0
0,70,101,0
0,69,37,58
0,42,88,66
0,70,64,0
0,63,67,20
0,39,96,0
0,38,121,0
0,42,85,0
0,69,62,0
0,36,106,56
0,70,51,0
0,67,80,12
0,58,91,0
0,38,58,0
0,46,78,0
0,69,51,0
0,60,66,12
0,70,70,0
0,34,85,20
0,58,66,0
0,69,39,0
0,51,11,12
0,39,45,0
0,62,51,0
0,65,51,0
0,70,48,0
0,27,70,0
0,36,115,0
0,42,82,0
0,70,66,0
0,55,52,0
0,69,49,0
0,42,70,36
0,70,57,0
0,51,39,18
0,39,66,0
0,53,55,0
0,38,121,0
0,69,64,0
0,36,112,40
0,70,57,0
0,62,71,0
0,34,73,0
0,51,40,0
0,69,50,0
0,42,96,34
0,54,116,0
0,70,68,0
0,51,15,0
0,55,55,0
0,46,73,0
0,69,45,0
0,39,43,8
0,61,57,0
0,65,60,0
0,67,60,0
0,27,85,0
0,36,118,0
0,42,85,0
0,70,68,0
0,69,42,16
0,70,64,0
0,51,39,28
0,39,66,0
0,38,110,0
0,69,70,0
0,36,118,10
0,70,64,0
0,61,41,4
0,60,75,0
0,38,41,0
0,69,48,0
0,65,60,28
0,63,55,0
0,42,70,0
0,46,73,0
0,70,66,0
0,51,67,16
0,61,76,0
0,65,76,0
0,68,80,0
0,67,71,0
0,69,50,0
0,27,85,10
0,36,118,0
0,42,96,0
0,70,76,0
0,38,38,24
0,69,50,0
0,42,105,40
0,70,57,0
0,51,57,22
0,61,60,0
0,67,85,0
0,39,101,0
0,65,55,0
0,38,121,0
0,69,76,0
0,36,118,42
0,70,64,0
0,65,71,10
0,27,88,0
0,63,46,0
0,69,52,0
0,42,85,50
0,54,116,0
0,70,76,0
0,60,75,20
0,69,45,0
0,44,60,52
0,56,63,0
0,60,60,0
0,63,53,0
0,32,85,0
0,36,127,0
0,42,62,0
0,70,68,0
0,69,51,8
0,42,96,54
0,70,60,0
0,44,76,18
0,38,116,0
0,69,85,0
0,36,122,2
0,70,66,0
0,56,48,16
0,60,76,0
0,63,67,0
0,32,96,0
0,60,66,0
0,38,51,0
0,69,50,0
0,63,66,32
0,42,101,0
0,46,70,0
0,70,76,0
0,67,71,18
0,69,43,0
0,43,57,10
0,55,60,0
0,58,67,0
0,62,51,0
0,31,85,0
0,36,127,0
0,42,82,0
0,70,82,0
0,70,80,14
0,69,47,0
0,67,62,48
0,70,66,0
0,65,75,16
0,38,116,0
0,69,78,0
0,36,127,42
0,70,70,0
0,55,45,10
0,43,76,0
0,65,34,0
0,38,46,0
0,69,52,0
0,42,105,40
0,54,116,0
0,70,76,0
0,63,46,2
0,69,57,0
0,41,51,16
0,53,60,0
0,56,60,0
0,60,57,0
0,29,78,0
0,36,127,0
0,70,76,0
0,69,52,24
0,42,62,60
0,70,78,0
0,53,57,28
0,41,78,0
0,38,110,0
0,46,46,0
0,69,68,0
0,36,126,26
0,70,62,0
0,56,51,22
0,69,68,0
0,42,96,60
0,70,66,0
0,60,21,24
0,29,96,0
0,38,41,0
0,46,82,0
0,69,55,0
0,41,23,56
0,36,126,0
0,42,55,0
0,70,73,0
0,53,21,30
0,69,48,0
0,56,32,50
0,70,76,0
0,53,45,0
0,56,76,0
0,60,76,0
0,41,88,0
0,38,127,0
0,69,73,0
0,36,127,46
0,70,60,0
0,53,63,32
0,56,67,0
0,60,76,0
0,36,68,0
0,38,64,0
0,43,116,0
0,69,68,0
0,41,116,40
0,42,116,0
0,54,127,0
0,70,82,0
0,63,91,42
0,46,76,0
0,69,57,0
0,48,48,44
0,60,57,0
0,63,53,0
0,67,63,0
0,36,101,0
0,60,91,0
0,36,122,0
0,49,101,0
0,70,101,0
0,69,37,58
0,42,88,2
0,70,64,0
0,36,96,22
0,36,121,0
0,38,121,0
0,42,85,0
0,69,62,0
0,70,51,26
0,60,76,12
0,62,91,0
0,38,58,0
0,46,78,0
0,69,51,0
0,70,70,0
0,63,80,48
0,69,39,24
0,43,60,6
0,58,48,0
0,62,60,0
0,65,53,0
0,31,88,0
0,62,86,0
0,36,115,0
0,42,82,0
0,70,66,0
0,69,49,16
0,60,6,12
0,42,70,30
0,70,57,0
0,31,85,18
0,58,55,0
0,36,112,0
0,38,121,0
0,69,64,0
0,70,57,4
0,58,76,4
0,62,76,0
0,65,80,0
0,69,50,0
0,43,13,50
0,38,110,0
0,42,96,0
0,54,116,0
0,70,68,0
0,46,73,0
0,69,45,0
0,44,63,6
0,56,63,0
0,60,76,0
0,63,60,0
0,32,73,0
0,36,118,0
0,42,85,0
0,70,68,0
0,69,42,16
0,70,64,52
0,32,96,12
0,36,118,0
0,38,110,0
0,69,70,0
0,56,91,20
0,70,64,0
0,56,67,4
0,60,67,0
0,63,71,0
0,58,66,0
0,38,41,0
0,69,48,0
0,60,75,14
0,42,70,0
0,46,73,0
0,70,66,0
0,58,58,6
0,69,50,0
0,48,67,4
0,60,67,0
0,63,53,0
0,67,60,0
0,36,96,0
0,36,118,0
0,42,96,0
0,70,76,0
0,38,38,24
0,69,50,0
0,55,6,2
0,42,105,48
0,70,57,0
0,48,22,6
0,36,92,0
0,53,55,0
0,36,118,0
0,38,121,0
0,69,76,0
0,70,64,26
0,60,85,10
0,63,85,0
0,67,80,0
0,51,46,0
0,69,52,0
0,38,101,60
0,42,85,0
0,54,116,0
0,70,76,0
0,69,45,20
0,47,63,4
0,59,71,0
0,63,67,0
0,66,60,0
0,68,57,0
0,70,60,0
0,35,82,0
0,36,127,0
0,42,62,0
0,49,64,0
0,70,68,0
0,69,51,20
0,42,96,54
0,70,60,0
0,36,122,18
0,38,116,0
0,49,52,0
0,69,85,0
0,70,66,52
0,42,82,12
0,51,80,0
0,38,51,0
0,69,50,0
0,53,71,24
0,42,101,0
0,46,70,0
0,70,76,0
0,54,98,18
0,69,43,0
0,47,51,34
0,47,85,0
0,36,127,0
0,42,82,0
0,70,82,0
0,59,63,16
0,63,67,0
0,68,32,0
0,70,53,0
0,53,48,0
0,69,47,0
0,51,75,2
0,70,66,0
0,47,41,18
0,51,98,0
0,36,127,0
0,38,116,0
0,69,78,0
0,59,63,42
0,63,76,0
0,66,15,0
0,68,21,0
0,70,63,0
0,70,70,0
0,42,85,10
0,46,71,0
0,38,46,0
0,41,110,0
0,69,52,0
0,38,110,50
0,42,105,0
0,54,116,0
0,70,76,0
0,51,62,22
0,69,57,0
0,51,63,62
0,63,45,0
0,67,76,0
0,70,53,0
0,39,85,0
0,36,127,0
0,49,101,0
0,70,76,0
0,69,52,24
0,42,62,6
0,70,78,0
0,51,48,8
0,39,73,0
0,38,110,0
0,46,46,0
0,69,68,0
0,34,76,26
0,36,126,0
0,70,62,0
0,63,60,22
0,69,68,0
0,39,78,60
0,42,96,0
0,70,66,0
0,38,41,24
0,46,82,0
0,69,55,0
0,34,64,12
0,55,63,16
0,62,76,0
0,65,67,0
0,67,71,0
0,71,76,0
0,43,101,0
0,36,126,0
0,42,55,0
0,70,73,0
0,69,48,40
0,70,76,2
0,31,88,26
0,38,127,0
0,69,73,0
0,36,127,46
0,70,60,0
0,62,85,2
0,38,64,0
0,43,105,0
0,69,68,0
0,38,92,40
0,67,91,0
0,41,116,0
0,42,116,0
0,54,127,0
0,70,82,0
0,67,104,42
0,46,76,0
0,69,57,0
0,48,63,2
0,60,63,0
0,63,57,0
0,67,63,0
0,36,101,0
0,36,122,0
0,49,110,0
0,70,101,0
0,65,52,58
0,69,37,0
0,42,88,66
0,70,64,0
0,60,76,22
0,63,60,0
0,67,80,0
0,36,88,0
0,63,66,0
0,36,106,0
0,38,121,0
0,42,85,0
0,69,62,0
0,70,51,42
0,48,60,12
0,60,58,0
0,38,58,0
