track,note,velocity,time
3,32,86,5876
3,31,72,18
3,32,81,6
3,32,72,226
3,32,72,45
3,32,57,227
3,32,74,60
3,32,74,231
3,32,84,48
3,32,55,225
3,30,70,48
3,30,84,204
3,30,81,36
3,30,64,222
3,30,80,30
3,30,63,229
3,30,73,51
3,30,42,228
3,29,86,42
3,29,72,228
3,29,77,53
3,29,72,234
3,29,81,59
3,29,61,243
3,29,75,57
3,29,59,240
3,28,76,48
3,28,82,219
3,28,86,33
3,28,64,228
3,28,91,48
3,28,64,234
3,28,72,50
3,28,69,249
3,27,77,9
3,27,72,221
3,27,80,54
3,27,80,240
3,27,84,57
3,27,69,240
3,27,87,63
3,27,67,246
3,26,66,57
3,26,65,219
3,26,69,50
3,26,69,242
3,26,70,45
3,26,65,249
3,26,81,63
3,26,64,246
3,32,86,57
3,32,84,240
3,32,82,57
3,32,77,234
3,32,84,42
3,32,66,240
3,32,81,60
3,32,64,252
3,32,91,72
3,32,58,234
3,32,80,57
3,32,65,246
3,31,66,36
3,31,59,234
3,31,58,33
3,31,72,51
3,31,79,156
3,32,81,48
3,32,72,226
3,32,72,45
3,32,57,227
3,32,74,60
3,32,74,231
3,32,84,48
3,32,55,225
3,30,70,48
3,30,84,204
3,30,81,36
3,30,64,222
3,30,80,30
3,30,63,229
3,30,73,51
3,30,42,228
3,29,86,42
3,29,72,228
3,29,77,53
3,29,72,234
3,29,81,59
3,29,61,243
3,29,75,57
3,29,59,240
3,28,76,48
3,28,82,219
3,28,86,33
3,28,64,228
3,28,91,48
3,28,64,234
3,28,72,50
3,28,69,249
3,34,77,9
3,34,72,221
3,34,80,54
3,34,80,240
3,34,84,57
3,34,69,240
3,34,87,63
3,34,67,246
3,33,66,57
3,33,65,219
3,33,69,50
3,33,69,242
3,33,70,45
3,33,65,249
3,33,81,63
3,33,64,246
3,32,86,57
3,32,84,240
3,32,82,57
3,32,77,234
3,32,84,42
3,32,66,240
3,32,81,60
3,32,64,252
3,32,91,72
3,32,58,234
3,32,80,57
3,32,65,246
3,31,66,36
3,31,59,234
3,31,58,33
3,31,72,51
3,31,79,156
3,36,95,48
3,36,106,180
3,36,106,244
3,36,116,162
3,31,62,268
3,36,67,48
3,29,84,42
3,29,98,46
3,36,86,165
3,29,75,96
3,34,100,108
3,33,86,5
3,32,91,14
3,32,87,40
3,32,91,310
3,33,61,9
3,34,93,6
3,34,87,37
3,34,87,39
3,27,93,75
3,27,108,76
3,27,71,19
3,29,77,48
3,31,69,39
3,31,60,19
3,32,81,237
3,32,72,226
3,32,72,45
3,32,57,227
3,32,74,60
3,32,74,231
3,32,84,48
3,32,55,225
3,30,70,48
3,30,84,204
3,30,81,36
3,30,64,222
3,30,80,30
3,30,63,229
3,30,73,51
3,30,42,228
3,29,86,42
3,29,72,228
3,29,77,53
3,29,72,234
3,29,81,59
3,29,61,243
3,29,75,57
3,29,59,240
3,28,76,48
3,28,82,219
3,28,86,33
3,28,64,228
3,28,91,48
3,28,64,234
3,28,72,50
3,28,69,249
3,34,77,9
3,34,72,221
3,34,80,54
3,34,80,240
3,34,84,57
3,34,69,240
3,34,87,63
3,34,67,246
3,33,66,57
3,33,65,219
3,33,69,50
3,33,69,242
3,33,70,45
3,33,65,249
3,33,81,63
3,33,64,246
3,32,86,57
3,32,84,240
3,32,82,57
3,32,77,234
3,32,84,42
3,32,66,240
3,32,81,60
3,32,64,252
3,32,91,72
3,32,58,234
3,32,80,57
3,32,65,246
3,31,66,36
3,31,59,234
3,31,58,33
3,31,72,51
3,31,79,156
3,36,95,48
3,36,106,180
3,36,106,244
3,36,116,162
3,31,62,268
3,36,67,48
3,29,84,42
3,29,98,46
3,36,86,165
3,29,75,96
3,34,100,108
3,33,86,5
3,32,91,14
3,32,87,40
3,32,91,310
3,33,61,9
3,34,93,6
3,34,87,37
3,34,87,39
3,27,102,75
3,27,118,91
3,32,81,20
3,31,111,11
3,32,81,62
3,32,72,226
3,32,72,45
3,32,57,227
3,32,74,60
3,32,74,231
3,32,84,48
3,32,55,225
3,30,70,48
3,30,84,204
3,30,81,36
3,30,64,222
3,30,80,30
3,30,63,229
3,30,73,51
3,30,42,228
3,29,86,42
3,29,72,228
3,29,77,53
3,29,72,234
3,29,81,59
3,29,61,243
3,29,75,57
3,29,59,240
3,28,76,48
3,28,82,219
3,28,86,33
3,28,64,228
3,28,91,48
3,28,64,234
3,28,72,50
3,28,69,249
3,34,77,9
3,34,72,221
3,34,80,54
3,34,80,240
3,34,84,57
3,34,69,240
3,34,87,63
3,34,67,246
3,33,66,57
3,33,65,219
3,33,69,50
3,33,69,242
3,33,70,45
3,33,65,249
3,33,81,63
3,33,64,246
3,32,86,57
3,32,84,240
3,32,82,57
3,32,77,234
3,32,84,42
3,32,66,240
3,32,81,60
3,32,64,252
3,32,91,72
3,32,58,234
3,32,80,57
3,32,65,246
3,31,66,36
3,31,70,42
3,31,59,192
3,31,58,33
3,31,72,0
3,36,90,156
3,36,86,4129
3,36,72,18
3,36,86,6
3,31,46,75
3,36,75,33
3,36,65,48
3,36,102,90
3,36,58,54
3,29,45,126
3,31,46,16
3,36,72,12
3,36,48,40
3,36,95,99
3,36,75,36
3,32,86,128
3,31,72,18
3,29,92,29
3,28,113,410
3,26,114,22
3,37,115,3
3,36,116,9
4,36,81,475
4,55,51,3
4,60,58,2
4,63,65,0
4,62,61,13
4,54,61,2
4,60,49,1
4,62,70,30
4,53,52,3
4,56,82,1
4,59,64,782
4,36,69,11
4,48,75,1
4,60,15,2
4,55,66,4
4,63,74,1
4,60,49,39
4,54,69,3
4,63,72,1
4,43,49,63
4,62,49,1
4,53,50,3
4,59,69,1
4,44,52,28
4,55,52,0
4,60,43,0
4,63,64,0
4,42,56,23
4,54,53,4
4,62,50,1
4,60,51,5
4,41,51,2
4,53,51,4
4,62,69,1
4,56,66,2
4,40,64,69
4,55,55,1
4,60,65,1
4,65,50,42
4,39,60,3
4,54,49,1
4,58,66,0
4,61,56,1
4,57,51,84
4,63,51,1
4,60,61,3
4,38,66,743
4,44,65,6
4,55,72,3
4,60,66,1
4,63,68,3
4,54,56,15
4,60,66,2
4,62,55,0
4,59,66,12
4,53,46,3
4,44,52,95
4,55,52,0
4,60,43,0
4,63,64,0
4,42,56,23
4,54,53,4
4,62,50,1
4,60,51,5
4,41,51,2
4,53,51,4
4,62,69,1
4,56,66,2
4,40,64,69
4,55,55,1
4,60,65,1
4,65,50,42
4,39,60,3
4,54,49,1
4,58,66,0
4,61,56,1
4,57,51,84
4,63,51,1
4,60,61,3
4,38,66,743
4,44,65,6
4,55,72,3
4,60,66,1
4,63,68,3
4,54,56,15
4,60,66,2
4,62,55,0
4,59,66,12
4,53,46,3
4,79,59,115
4,72,41,3
4,73,52,4
4,72,79,30
4,70,85,51
4,72,64,51
4,73,54,263
4,68,50,24
4,75,58,1
4,70,68,386
4,68,55,354
4,73,72,158
4,77,62,1
4,72,62,134
4,76,64,1
4,75,53,117
4,66,49,3
4,71,40,3
4,68,56,97
4,74,51,0
4,65,60,2
4,63,55,3
4,67,46,1
4,62,44,2
4,70,63,4
4,67,45,60
4,59,43,3
4,65,15,159
4,62,29,225
4,44,52,20
4,55,52,0
4,60,43,0
4,63,64,0
4,42,56,23
4,54,53,4
4,62,50,1
4,60,51,5
4,41,51,2
4,53,51,4
4,62,69,1
4,56,66,2
4,40,64,69
4,55,55,1
4,60,65,1
4,65,50,42
4,39,60,3
4,54,49,1
4,58,66,0
4,61,56,1
4,57,51,84
4,63,51,1
4,60,61,3
4,38,66,743
4,44,65,6
4,55,72,3
4,60,66,1
4,63,68,3
4,54,56,15
4,60,66,2
4,62,55,0
4,59,66,12
4,53,46,3
4,79,59,115
4,72,41,3
4,73,52,4
4,72,79,30
4,70,85,51
4,72,64,51
4,73,54,263
4,68,50,24
4,75,58,1
4,70,68,386
4,68,55,354
4,73,72,158
4,77,62,1
4,72,62,134
4,76,64,1
4,75,53,117
4,66,49,3
4,71,40,3
4,68,56,97
4,74,51,0
4,65,60,2
4,63,55,3
4,67,46,1
4,62,44,2
4,70,63,4
4,67,45,60
4,59,43,3
4,65,15,159
4,62,29,225
4,44,52,20
4,55,52,0
4,60,43,0
4,63,64,0
4,42,56,23
4,54,53,4
4,62,50,1
4,60,51,5
4,41,51,2
4,53,51,4
4,62,69,1
4,56,66,2
4,40,64,69
4,55,55,1
4,60,65,1
4,65,50,42
4,39,60,3
4,54,49,1
4,58,66,0
4,61,56,1
4,57,51,84
4,63,51,1
4,60,61,3
4,38,66,743
4,44,65,6
4,55,72,3
4,60,66,1
4,63,68,3
4,54,56,15
4,60,66,2
4,62,55,0
4,59,66,12
4,53,46,3
4,36,81,105
4,55,51,3
4,60,58,2
4,63,65,0
4,36,90,6
4,62,61,7
4,54,61,2
4,60,49,1
4,62,70,30
4,56,82,4
4,59,64,782
4,36,69,11
4,48,75,1
4,60,15,2
4,55,66,4
4,63,74,1
4,60,49,39
4,54,69,3
4,63,72,1
4,43,49,63
4,62,49,1
4,53,50,3
4,59,69,1
4,36,81,38
4,55,51,3
4,60,58,2
4,63,65,0
4,48,75,1113
4,36,79,6
4,62,61,7
4,54,61,2
4,60,49,1
4,62,70,30
4,53,52,3
4,56,82,1
4,59,64,782
4,36,69,11
4,48,75,1
4,60,15,2
4,55,66,4
4,63,74,1
4,60,49,39
4,54,69,3
4,63,72,1
4,43,49,63
4,62,49,1
4,53,50,3
4,59,69,1
4,65,77,861
4,70,80,1
4,58,82,3
4,61,67,7
4,68,68,0
4,56,65,3
4,63,52,102
4,67,66,21
4,65,50,3
4,72,49,4
5,75,84,6251
5,74,86,43
5,75,61,22
5,74,69,31
5,71,82,19
5,72,89,34
5,75,79,659
5,74,72,28
5,72,78,25
5,75,75,19
5,74,72,25
5,72,78,28
5,71,46,317
5,70,57,15
5,69,62,36
5,75,98,569
5,74,86,82
5,72,81,34
5,75,75,31
5,74,77,28
5,72,81,76
5,65,78,7
5,71,67,7
5,72,68,1
5,65,55,130
5,67,77,536
5,68,77,31
5,69,82,22
5,70,81,21
5,71,80,21
5,72,72,33
5,72,84,689
5,73,77,31
5,75,74,27
5,78,41,43
5,79,63,6
5,78,67,64
5,77,80,24
5,77,97,620
5,77,82,34
5,78,92,3
5,77,78,19
5,74,93,10
5,75,84,10
5,74,56,227
5,73,66,3
5,72,76,24
5,77,86,568
5,77,80,36
5,78,95,3
5,77,77,19
5,74,86,12
5,75,89,31
5,75,81,454
5,74,81,28
5,72,77,54
5,70,49,239
5,68,70,15
5,68,81,34
5,67,72,649
5,75,95,228
5,74,84,40
5,75,79,15
5,74,76,25
5,71,87,16
5,72,93,19
5,75,81,741
5,74,77,25
5,72,81,7
5,75,79,34
5,74,82,25
5,72,77,28
5,71,60,139
5,70,57,10
5,69,72,18
5,75,98,512
5,74,87,43
5,72,80,7
5,72,76,22
5,75,72,22
5,74,69,25
5,72,74,37
5,65,78,15
5,71,60,19
5,72,80,18
5,65,62,9
5,67,73,493
5,68,81,30
5,69,72,34
5,70,77,24
5,71,74,24
5,72,74,55
5,72,72,722
5,73,72,25
5,75,72,25
5,78,44,52
5,79,69,1
5,78,60,73
5,77,78,27
5,77,97,717
5,77,86,37
5,78,89,9
5,77,78,21
5,74,91,6
5,75,98,9
5,74,58,173
5,73,62,13
5,72,70,12
5,78,86,653
5,77,87,33
5,78,89,9
5,77,74,24
5,74,89,15
5,75,79,27
5,75,111,575
5,74,89,30
5,72,74,48
5,68,84,3
5,68,79,25
5,67,60,650
5,67,74,112
5,68,74,39
5,69,82,40
5,70,81,25
5,71,87,25
5,72,97,42
5,72,87,837
5,72,95,33
5,76,91,18
5,79,87,18
5,82,102,64
5,80,64,239
5,79,71,30
5,80,92,9
5,77,93,490
5,76,97,6
5,75,89,125
5,71,93,865
5,74,93,19
5,77,84,25
5,80,92,57
5,79,69,236
5,78,67,34
5,79,84,16
5,75,98,512
5,74,82,37
5,75,79,16
5,74,87,28
5,71,87,19
5,72,86,34
5,75,122,753
5,74,82,28
5,72,80,15
5,75,74,15
5,74,81,21
5,72,76,22
5,71,56,211
5,70,56,3
5,69,80,24
5,75,122,644
5,74,76,27
5,72,77,12
5,75,70,15
5,74,80,18
5,72,67,18
5,65,91,3
5,72,80,1
5,65,58,4
5,67,36,502
5,67,56,27
5,68,77,15
5,68,65,25
5,70,81,21
5,71,86,25
5,72,81,33
5,72,89,829
5,73,79,16
5,75,81,19
5,79,74,43
5,78,67,16
5,77,93,31
5,77,91,678
5,77,80,31
5,78,81,4
5,77,73,16
5,74,86,7
5,75,95,91
5,74,55,193
5,73,53,12
5,72,70,12
5,78,122,708
5,77,68,28
5,78,79,7
5,77,78,19
5,74,82,7
5,75,77,7
5,74,67,511
5,75,69,12
5,74,80,3
5,72,82,3
5,68,77,254
5,68,75,28
5,67,70,3
5,67,80,87
5,68,72,34
5,69,84,16
5,70,79,19
5,71,89,18
5,72,91,31
5,72,84,807
5,72,95,25
5,76,86,18
5,79,86,24
5,82,98,58
5,80,55,196
5,79,69,15
5,80,92,6
5,77,87,608
5,76,93,136
5,75,106,127
5,71,91,874
5,74,95,16
5,77,86,15
5,80,95,51
5,79,66,4
5,77,73,36
5,79,86,15
6,74,105,781
6,75,93,0
6,74,77,87
6,72,73,4
6,67,82,4
6,74,91,10
6,75,85,24
6,74,79,117
6,72,84,9
6,66,94,3
6,74,96,246
6,75,88,21
6,74,88,126
6,72,59,254
6,75,83,179
6,77,124,21
6,75,102,9
6,77,58,69
6,75,68,18
6,74,73,18
6,72,84,18
6,74,91,28
6,72,81,6
6,74,84,21
6,72,84,9
6,74,84,1
6,72,84,9
6,74,56,135
6,71,80,18
6,75,75,13
6,77,109,15
6,75,94,75
6,74,77,10
6,71,91,16
6,68,93,4
6,67,123,15
6,68,76,1
6,67,77,23
6,65,79,15
6,67,79,30
6,68,85,18
6,67,76,21
6,65,99,9
6,64,88,3
6,54,89,140
6,60,74,1
6,63,93,1
6,53,58,3
6,59,77,2
6,62,66,0
6,55,50,90
6,63,56,7
6,60,40,3
6,63,91,432
6,65,88,1
6,63,91,263
6,65,93,1
6,75,94,398
6,74,124,9
6,72,82,13
6,74,56,7
6,72,77,24
6,69,86,24
6,71,88,729
6,67,86,4
6,72,84,12
6,65,82,84
6,67,72,1
6,65,71,30
6,72,101,472
6,73,111,9
6,79,106,1
6,72,106,197
6,70,109,684
6,76,87,24
6,77,99,15
6,70,91,10
6,68,80,42
6,70,78,42
6,66,89,507
6,72,87,9
6,74,86,48
6,75,103,19
6,77,96,1
6,78,91,41
6,81,124,3
6,78,86,42
6,77,96,27
6,75,93,33
6,74,106,6
6,75,80,24
6,74,82,24
6,72,63,9
6,74,80,15
6,55,81,851
6,56,89,3
6,60,84,0
6,63,94,2
6,72,74,0
6,75,122,1
6,74,88,1
6,74,89,0
6,72,92,21
6,70,87,7
6,68,98,6
6,55,86,18
6,60,88,3
6,56,91,3
6,63,91,1
6,67,96,3
6,51,87,16
6,54,81,93
6,56,87,102
6,60,98,87
6,63,104,102
6,65,111,3
6,55,88,83
6,59,90,3
6,67,92,2
6,74,106,135
6,75,113,7
6,74,124,132
6,71,103,57
6,72,103,62
6,57,87,11
6,60,89,1
6,54,91,2
6,63,95,1
6,76,83,1
6,77,124,3
6,75,108,84
6,74,103,4
6,57,75,72
6,60,73,4
6,54,77,3
6,63,76,0
6,71,88,630
6,53,84,3
6,56,94,1
6,60,77,1
6,63,92,1
6,72,124,4
6,53,78,53
6,56,92,1
6,62,84,1
6,71,104,0
6,60,75,2
6,67,92,6
6,53,83,24
6,56,91,1
6,60,88,1
6,62,79,0
6,68,106,23
6,67,89,36
6,55,80,542
6,60,77,3
6,61,86,1
6,72,94,3
6,73,98,3
6,78,86,1
6,55,88,2
6,60,88,1
6,61,87,3
6,79,124,3
6,73,99,153
6,55,83,68
6,60,86,1
6,73,106,2
6,61,87,1
6,72,91,4
