track,note,velocity,time
1,52,95,3070
1,47,95,2
1,52,95,86
1,47,107,82
1,52,87,82
1,52,127,114
1,47,123,86
1,52,127,82
1,47,127,78
1,52,87,386
1,52,95,116
1,47,123,82
1,52,127,80
1,47,123,66
1,52,127,82
1,47,127,96
1,52,103,0
1,52,115,132
1,47,127,114
1,52,127,84
1,47,127,62
1,52,87,0
1,52,127,130
1,47,127,98
1,52,127,0
1,47,127,52
1,52,87,0
1,52,127,130
1,47,127,78
1,52,127,0
1,47,127,2
1,52,99,384
1,52,127,128
1,47,127,98
1,52,127,128
1,47,127,50
1,52,87,4
1,52,127,128
1,47,127,84
1,52,127,0
1,47,127,2
1,52,99,384
1,52,127,130
1,47,127,98
1,48,127,128
1,43,107,132
1,48,63,382
1,48,91,102
1,43,95,80
1,48,103,82
1,43,95,80
1,48,71,50
1,48,127,112
1,43,83,82
1,47,127,96
1,42,127,96
1,47,83,98
1,47,123,112
1,42,127,112
1,47,127,114
1,42,127,112
1,47,79,82
1,47,127,126
1,42,127,96
1,45,127,96
1,40,127,68
1,45,123,34
1,40,127,16
1,45,99,192
1,48,91,32
1,60,127,16
1,47,127,20
1,59,127,18
1,47,127,288
1,57,127,18
1,52,87,102
1,52,127,114
1,47,123,82
1,52,127,80
1,47,127,82
1,52,87,386
1,52,95,116
1,47,123,86
1,52,127,82
1,47,123,64
1,52,127,82
1,47,127,98
1,52,103,384
1,52,115,130
1,47,127,110
1,52,127,84
1,47,127,64
1,52,87,2
1,52,127,128
1,47,127,98
1,52,127,0
1,47,127,50
1,52,87,2
1,52,127,128
1,47,127,80
1,52,127,4
1,47,127,2
1,52,99,384
1,52,127,128
1,47,127,98
1,48,127,132
1,43,107,130
1,48,63,388
1,48,91,96
1,43,95,80
1,48,103,82
1,43,95,82
1,48,71,56
1,48,127,114
1,43,83,80
1,47,127,98
1,42,127,96
1,47,83,104
1,47,123,112
1,42,127,114
1,47,127,114
1,42,127,114
1,47,79,82
1,47,127,130
1,42,127,98
1,45,127,96
1,40,127,66
1,45,123,34
1,40,127,20
1,45,99,190
1,48,91,32
1,60,127,16
1,47,127,16
1,59,127,18
1,47,127,292
1,57,127,16
1,52,87,100
1,52,127,118
1,47,123,86
1,52,127,84
1,47,127,82
1,52,87,384
1,52,95,116
1,47,123,88
1,52,127,82
1,47,123,66
1,72,127,194
1,72,127,1170
1,71,127,82
1,40,127,768
1,42,127,16
1,43,87,30
1,45,99,96
1,46,115,78
1,48,127,2
1,46,127,36
1,45,127,112
1,72,127,642
1,72,127,1218
1,71,127,96
1,40,115,288
1,42,91,98
1,43,79,2
1,45,75,0
1,47,127,2
1,48,107,0
1,46,127,96
1,45,127,64
1,42,127,672
1,43,127,18
1,52,127,164
1,47,127,98
1,52,103,384
1,52,115,132
1,47,127,114
1,52,127,84
1,47,127,68
1,52,87,6
1,52,127,130
1,47,127,96
1,52,127,4
1,47,127,46
1,52,87,0
1,52,127,130
1,47,127,84
1,52,127,2
1,47,127,4
1,52,99,382
1,52,127,128
1,47,127,96
1,48,127,126
1,43,107,130
1,48,63,0
1,48,91,98
1,43,95,82
1,48,103,80
1,43,95,82
1,48,71,58
1,48,127,112
1,43,83,80
1,47,127,98
1,42,127,98
1,47,83,104
1,47,123,112
1,42,127,116
1,47,127,114
1,42,127,116
1,47,79,88
1,47,127,132
1,42,127,98
1,45,127,98
1,40,127,66
1,45,123,34
1,40,127,16
1,45,99,196
1,48,91,34
1,60,127,18
1,47,127,18
1,59,127,18
1,47,127,286
1,57,127,24
1,52,127,96
1,47,127,96
1,52,103,6
1,52,115,132
1,47,127,114
1,52,127,80
1,47,127,62
1,52,87,6
1,52,127,130
1,47,127,96
1,52,127,0
1,47,127,52
1,52,87,0
1,52,127,130
1,47,127,82
1,52,127,0
1,47,127,2
1,52,99,384
1,52,127,130
1,47,127,98
1,52,127,130
1,47,127,50
1,52,87,2
1,52,127,128
1,47,127,84
1,52,127,0
1,47,127,2
1,52,99,388
1,52,127,128
1,47,127,98
1,48,127,130
1,43,107,130
1,48,63,4
1,48,91,98
1,43,95,82
1,48,103,80
1,43,95,82
1,48,71,50
1,48,127,112
1,43,83,80
1,47,127,94
1,42,127,100
1,47,83,104
1,47,123,114
1,42,127,112
1,47,127,112
1,42,127,114
1,47,79,82
1,47,127,130
1,42,127,98
1,45,127,100
1,40,127,68
1,45,123,52
1,40,127,16
1,45,99,192
1,48,91,34
1,60,127,22
1,47,127,20
1,59,127,22
1,47,127,284
1,57,127,20
1,52,87,102
1,52,127,116
1,47,123,86
1,52,127,82
1,47,127,84
1,52,87,382
1,52,95,114
1,47,123,80
1,52,127,82
1,47,123,66
1,72,127,192
1,72,127,1170
1,71,127,82
1,40,127,770
1,42,127,18
1,43,87,34
1,45,99,96
1,46,115,80
1,48,127,4
1,46,127,32
1,45,127,112
1,72,127,642
1,72,127,1216
1,71,127,94
1,40,115,290
1,42,91,98
1,43,79,2
1,45,75,2
1,47,127,0
1,48,107,0
1,46,127,96
1,45,127,62
1,42,127,672
1,43,127,14
1,52,127,160
1,47,127,98
1,52,103,0
1,52,115,130
1,47,127,110
1,52,127,80
1,47,127,66
1,52,87,0
1,52,127,130
1,47,127,98
1,52,127,0
1,47,127,56
1,52,87,382
1,52,127,128
1,47,127,78
1,52,127,4
1,47,127,0
1,52,99,384
1,52,127,128
1,47,127,100
1,52,127,130
1,47,127,106
1,52,103,0
1,52,115,132
1,47,127,112
1,52,127,80
1,47,127,64
1,52,87,0
1,52,127,132
1,47,127,98
1,52,127,2
1,47,127,58
1,52,87,376
1,52,127,128
1,47,127,82
1,52,127,0
1,47,127,0
1,52,99,384
1,52,127,128
1,47,127,96
1,52,127,128
1,47,127,108
1,52,103,6
1,52,115,128
1,47,127,114
1,52,127,80
1,47,127,66
1,52,87,6
1,52,127,130
1,47,127,96
1,52,127,2
1,47,127,58
1,52,87,376
1,52,127,128
1,47,127,80
1,52,127,2
1,47,127,6
1,52,99,386
1,52,127,128
1,47,127,100
1,52,127,32
2,67,123,1532
2,64,127,0
2,62,127,0
2,59,107,0
2,67,127,148
2,64,127,0
2,62,115,0
2,59,115,0
2,59,79,324
2,62,79,0
2,64,83,0
2,67,87,0
2,59,127,144
2,62,115,0
2,64,127,0
2,67,127,2
2,61,107,96
2,64,127,2
2,66,107,0
2,69,115,0
2,59,127,144
2,62,127,2
2,64,127,0
2,67,123,0
2,59,83,64
2,67,91,2
2,64,91,0
2,62,83,0
2,59,123,302
2,62,123,0
2,64,127,0
2,67,127,2
2,61,115,96
2,64,123,2
2,66,115,0
2,69,115,2
2,67,127,144
2,64,127,0
2,62,127,0
2,59,127,0
2,64,87,114
2,62,79,0
2,59,83,0
2,67,95,2
2,67,127,318
2,64,127,0
2,62,127,0
2,59,127,0
2,61,127,94
2,69,123,2
2,66,123,0
2,64,127,0
2,59,99,164
2,62,87,0
2,64,99,0
2,67,95,2
2,67,123,130
2,64,127,0
2,62,127,0
2,59,127,0
2,67,127,304
2,64,127,0
2,62,127,0
2,59,123,0
2,61,127,94
2,69,127,2
2,66,127,0
2,64,127,0
2,52,91,44
2,52,103,162
2,67,127,64
2,66,127,0
2,62,127,0
2,59,127,0
2,52,63,306
2,67,127,176
2,66,127,0
2,62,127,0
2,59,127,0
2,52,99,0
2,61,127,80
2,52,123,0
2,64,127,2
2,69,127,0
2,52,103,320
2,52,99,126
2,59,127,66
2,66,127,2
2,62,127,0
2,67,127,2
2,52,95,288
2,67,127,144
2,66,127,0
2,62,127,0
2,59,127,0
2,52,115,0
2,69,127,80
2,64,127,0
2,61,127,0
2,52,103,0
2,52,127,336
2,52,127,110
2,59,127,2
2,62,127,2
2,66,127,0
2,67,127,0
2,52,95,292
2,67,127,144
2,66,127,0
2,62,127,0
2,59,127,0
2,52,123,0
2,61,127,64
2,52,123,0
2,64,127,2
2,69,127,0
2,52,95,318
2,52,107,96
2,67,127,64
2,66,127,0
2,62,127,0
2,59,127,0
2,52,95,294
2,67,127,142
2,66,127,0
2,62,127,0
2,59,127,0
2,52,99,0
2,52,115,64
2,61,127,2
2,64,127,0
2,69,127,2
2,52,99,130
2,52,127,320
2,67,127,0
2,66,127,0
2,62,127,0
2,59,127,0
2,52,95,290
2,52,123,148
2,59,127,0
2,62,127,0
2,66,127,2
2,67,127,0
2,52,123,64
2,61,127,2
2,64,127,0
2,69,127,2
2,52,95,320
2,52,107,96
2,59,127,66
2,62,127,0
2,66,127,2
2,67,127,0
2,52,95,292
2,67,127,146
2,66,127,0
2,62,127,0
2,59,127,0
2,52,99,0
2,69,127,64
2,64,127,0
2,61,127,0
2,52,115,0
2,52,99,130
2,48,71,334
2,59,123,34
2,48,83,0
2,62,127,2
2,64,127,0
2,67,127,2
2,74,127,0
2,48,71,290
2,74,127,146
2,67,127,0
2,64,127,0
2,62,127,0
2,60,83,0
2,59,127,0
2,48,91,0
2,74,127,48
2,67,127,0
2,64,127,0
2,60,127,0
2,57,127,0
2,48,103,32
2,48,71,384
2,48,79,36
2,59,127,0
2,60,83,2
2,62,127,0
2,64,127,0
2,67,127,2
2,74,127,0
2,48,79,304
2,74,127,146
2,67,127,0
2,64,127,0
2,62,127,0
2,60,103,0
2,59,127,0
2,48,103,0
2,57,127,48
2,64,127,2
2,60,127,0
2,67,103,2
2,74,127,0
2,48,95,30
2,47,127,382
2,76,127,50
2,73,127,0
2,69,127,0
2,64,127,0
2,57,127,0
2,47,91,0
2,47,91,288
2,76,127,176
2,73,127,0
2,69,127,0
2,64,127,0
2,57,127,0
2,47,107,0
2,56,127,32
2,64,127,2
2,68,127,0
2,71,127,0
2,76,127,2
2,47,127,28
2,47,59,112
2,47,127,52
2,47,91,238
2,76,127,50
2,73,127,0
2,69,127,0
2,64,127,0
2,57,127,0
2,47,103,0
2,47,87,304
2,76,127,176
2,73,127,0
2,69,127,0
2,64,127,0
2,57,127,0
2,47,107,0
2,56,127,48
2,64,127,0
2,68,127,2
2,71,127,0
2,76,127,0
2,47,103,30
2,45,71,336
2,72,115,50
2,69,127,0
2,67,127,0
2,64,127,0
2,60,127,0
2,52,127,0
2,45,87,0
2,45,95,240
2,72,127,208
2,71,83,0
2,69,127,0
2,67,127,0
2,64,127,0
2,60,127,0
2,52,127,0
2,45,83,0
2,50,127,62
2,72,127,2
2,69,127,0
2,66,127,0
2,62,127,0
2,60,127,0
2,45,87,32
2,36,127,178
2,64,119,34
2,62,127,0
2,58,127,0
2,55,127,0
2,48,127,0
2,47,127,82
2,69,127,48
2,67,127,0
2,63,127,0
2,62,127,0
2,59,127,0
2,57,127,0
2,47,127,0
2,69,127,66
2,67,127,0
2,63,127,0
2,62,127,0
2,57,127,0
2,67,127,224
2,64,127,0
2,62,127,0
2,59,127,0
2,67,95,112
2,64,87,0
2,62,79,0
2,59,83,0
2,67,127,318
2,64,127,0
2,62,127,0
2,59,127,0
2,64,127,96
2,61,127,0
2,66,123,2
2,69,123,0
2,59,99,162
2,62,87,0
2,64,99,0
2,67,95,2
2,59,127,130
2,62,127,0
2,64,127,2
2,67,123,0
2,59,123,302
2,67,127,2
2,64,127,0
2,62,127,0
2,69,127,96
2,66,127,0
2,64,127,0
2,61,127,0
2,52,91,48
2,52,103,160
2,67,127,0
2,66,127,0
2,62,127,0
2,59,127,0
2,52,63,308
2,67,127,176
2,66,127,0
2,62,127,0
2,59,127,0
2,52,99,0
2,69,127,80
2,64,127,0
2,61,127,0
2,52,123,0
2,52,103,322
2,52,99,126
2,67,127,0
2,66,127,0
2,62,127,0
2,59,127,0
2,52,95,288
2,67,127,146
2,66,127,0
2,62,127,0
2,59,127,0
2,52,115,0
2,69,127,80
2,64,127,0
2,61,127,0
2,52,103,0
2,52,127,336
2,52,127,114
2,67,127,0
2,66,127,0
2,62,127,0
2,59,127,0
2,52,95,292
2,67,127,144
2,66,127,0
2,62,127,0
2,59,127,0
2,52,123,0
2,52,123,64
2,64,127,2
2,61,127,0
2,69,127,2
2,52,95,322
2,52,107,94
2,67,127,66
2,66,127,0
2,62,127,0
2,59,127,0
2,52,95,288
2,67,127,144
2,66,127,0
2,62,127,0
2,59,127,0
2,52,99,0
2,52,115,66
2,64,127,2
2,61,127,0
2,69,127,2
2,52,99,128
2,48,71,318
2,48,83,34
2,59,123,2
2,62,127,0
2,64,127,0
2,67,127,2
2,74,127,0
2,48,71,288
2,48,91,146
2,59,127,2
2,60,83,0
2,62,127,0
2,64,127,2
2,67,127,0
2,74,127,0
2,60,127,48
2,57,127,0
2,64,127,2
2,67,127,0
2,74,127,2
2,48,103,28
2,48,71,368
2,74,127,32
2,67,127,0
2,64,127,0
2,62,127,0
2,60,83,0
2,59,127,0
2,48,79,0
2,48,79,306
2,48,103,148
2,59,127,0
2,60,103,2
2,62,127,0
2,64,127,0
2,67,127,2
2,74,127,0
2,74,127,48
2,67,103,0
2,64,127,0
2,60,127,0
2,57,127,0
2,48,95,32
2,47,127,382
2,47,91,50
2,57,127,0
2,64,127,2
2,69,127,0
2,73,127,0
2,76,127,0
2,47,91,290
2,69,127,176
2,64,127,0
2,57,127,0
2,47,107,0
2,73,127,4
2,76,127,2
2,56,127,32
2,68,127,2
2,64,127,0
2,71,127,2
2,76,127,0
2,47,127,30
2,47,59,114
2,47,127,50
2,47,91,240
2,76,127,50
2,73,127,0
2,69,127,0
2,64,127,0
2,57,127,0
2,47,103,0
2,47,87,306
2,76,127,178
2,73,127,0
2,69,127,0
2,64,127,0
2,57,127,0
2,47,107,0
2,76,127,44
2,71,127,0
2,68,127,0
2,64,127,0
2,56,127,0
2,47,103,32
2,45,71,336
2,45,87,50
2,52,127,2
2,60,127,0
2,64,127,2
2,67,127,0
2,69,127,0
2,72,115,2
2,45,95,238
2,72,127,210
2,71,83,0
2,69,127,0
2,67,127,0
2,64,127,0
2,60,127,0
2,52,127,0
2,45,83,0
2,50,127,62
2,62,127,2
2,60,127,0
2,66,127,2
2,69,127,0
2,72,127,0
2,45,87,30
2,36,127,176
2,64,119,34
2,62,127,0
2,58,127,0
2,55,127,0
2,48,127,0
2,47,127,80
2,57,127,48
2,69,127,2
2,67,127,0
2,63,127,0
2,62,127,0
2,59,127,0
2,47,127,2
2,69,127,64
2,67,127,0
2,63,127,0
2,62,127,0
2,57,127,0
2,59,127,228
2,62,127,0
2,64,127,2
2,67,127,0
2,59,83,114
2,62,79,0
2,64,87,2
2,67,95,0
2,59,127,320
2,62,127,2
2,64,127,0
2,67,127,2
2,69,123,98
2,66,123,0
2,64,127,0
2,61,127,0
2,59,99,160
2,67,95,2
2,64,99,0
2,62,87,0
2,62,127,132
2,59,127,0
2,64,127,2
2,67,123,0
2,67,127,302
2,64,127,0
2,62,127,0
2,59,123,0
2,61,127,94
2,69,127,2
2,66,127,0
2,64,127,0
2,86,91,246
2,60,75,74
2,59,91,2
2,55,87,16
2,64,91,0
2,76,91,382
2,86,87,142
2,83,95,64
2,79,75,48
2,74,83,48
2,83,91,50
2,79,91,324
2,85,91,48
2,54,83,12
2,57,75,2
2,62,75,0
2,73,91,368
2,88,75,126
2,85,91,48
2,81,87,50
2,76,79,32
2,81,91,98
2,78,91,384
2,57,83,32
2,53,63,16
2,62,87,0
2,84,91,6
2,84,79,328
2,81,67,50
2,76,71,46
2,72,43,50
2,72,91,0
2,81,91,50
2,76,91,382
2,83,91,50
2,59,83,14
2,52,83,2
2,55,87,0
2,74,91,16
2,79,91,384
2,76,91,356
2,86,91,16
2,59,103,0
2,60,103,0
2,55,91,14
2,64,99,2
2,76,91,2
2,86,87,140
2,83,95,64
2,79,75,48
2,74,83,48
2,83,91,84
2,79,91,320
2,85,91,46
2,54,83,14
2,57,75,2
2,62,75,0
2,73,91,366
2,88,75,128
2,85,91,48
2,81,87,48
2,76,79,32
2,81,91,98
2,78,91,384
2,57,83,32
2,62,87,14
2,84,91,2
2,53,63,0
2,84,79,334
2,81,67,48
2,76,71,64
2,72,43,34
2,72,91,0
