track,note,velocity,time
2,36,87,13128
2,38,102,0
2,36,103,0
2,33,101,0
2,29,114,0
2,29,87,128
2,31,108,0
2,29,103,0
2,33,101,0
2,31,114,0
2,36,87,128
2,38,102,0
2,36,103,0
2,33,101,0
2,29,114,0
2,24,99,128
2,26,124,0
2,24,103,0
2,29,124,4
2,36,92,0
2,33,94,0
2,38,102,0
2,36,103,0
2,33,101,0
2,29,114,0
2,29,87,128
2,31,108,0
2,29,103,0
2,33,101,0
2,31,114,0
2,36,87,128
2,38,102,0
2,36,103,0
2,33,101,0
2,29,114,0
2,24,99,128
2,26,124,0
2,24,103,0
2,29,124,4
2,36,92,0
2,33,94,0
2,38,102,0
2,36,103,0
2,33,101,0
2,29,114,0
2,29,87,128
2,31,108,0
2,29,103,0
2,33,101,0
2,31,114,0
2,36,87,128
2,38,102,0
2,36,103,0
2,33,101,0
2,29,114,0
2,24,99,128
2,26,124,0
2,24,103,0
2,29,124,4
2,36,92,0
2,33,94,0
2,38,102,0
2,36,103,0
2,33,101,0
2,29,114,0
2,29,87,128
2,31,108,0
2,29,103,0
2,33,101,0
2,31,114,0
2,36,87,128
2,38,102,0
2,36,103,0
2,33,101,0
2,29,114,0
2,24,99,128
2,26,124,0
2,24,103,0
2,29,124,4
2,28,127,192
2,27,127,512
2,26,127,512
2,25,127,512
2,28,127,512
2,27,127,512
2,26,127,512
2,25,127,512
2,28,127,512
2,27,127,512
2,26,127,512
2,25,127,512
2,26,127,512
2,26,127,512
2,27,127,512
2,27,127,512
2,28,127,512
2,27,127,512
2,26,127,512
2,25,127,512
2,28,127,512
2,27,127,512
2,26,127,512
2,25,127,512
2,28,127,512
2,27,127,512
2,26,127,512
2,25,127,512
2,26,127,512
2,26,127,512
2,27,127,512
2,27,127,512
2,38,105,512
2,36,106,0
2,33,104,0
2,29,117,0
2,29,90,128
2,31,111,0
2,29,106,0
2,33,104,0
2,31,117,0
2,36,90,128
2,38,105,0
2,36,106,0
2,33,104,0
2,29,117,0
2,24,102,128
2,26,127,0
2,24,106,0
2,29,127,4
2,36,95,0
2,33,97,0
2,40,102,0
2,38,103,0
2,35,101,0
2,31,114,0
2,31,87,128
2,33,108,0
2,31,103,0
2,35,101,0
2,33,114,0
2,38,87,128
2,40,102,0
2,38,103,0
2,35,101,0
2,31,114,0
2,26,99,128
2,28,124,0
2,26,103,0
2,31,124,4
2,38,92,0
2,35,94,0
2,40,102,0
2,38,103,0
2,35,101,0
2,31,114,0
2,31,87,128
2,33,108,0
2,31,103,0
2,35,101,0
2,33,114,0
2,38,87,128
2,40,102,0
2,38,103,0
2,35,101,0
2,31,114,0
2,26,99,128
2,28,124,0
2,26,103,0
2,31,124,4
2,38,92,0
2,35,94,0
2,38,102,0
2,36,103,0
2,33,101,0
2,29,114,0
2,29,87,128
2,31,108,0
2,29,103,0
2,33,101,0
2,31,114,0
2,36,87,128
2,38,102,0
2,36,103,0
2,33,101,0
2,29,114,0
2,24,99,128
2,26,124,0
2,24,103,0
2,29,124,4
2,36,92,0
2,33,94,0
2,38,102,0
2,36,103,0
2,33,101,0
2,29,114,0
2,29,87,128
2,31,108,0
2,29,103,0
2,33,101,0
2,31,114,0
2,36,87,128
2,38,102,0
2,36,103,0
2,33,101,0
2,29,114,0
2,24,99,128
2,26,124,0
2,24,103,0
2,29,124,4
2,28,127,192
2,27,127,512
2,26,127,512
2,25,127,512
2,28,127,512
2,27,127,512
2,26,127,512
2,25,127,512
2,28,127,512
2,27,127,512
2,26,127,512
2,25,127,512
2,26,127,512
2,26,127,512
2,27,127,512
2,27,127,512
2,28,127,512
2,27,127,512
2,26,127,512
2,25,127,512
2,28,127,512
2,27,127,512
2,26,127,512
2,25,127,512
2,28,127,512
2,27,127,512
2,26,127,512
2,25,127,512
2,26,127,512
2,26,127,512
2,27,127,512
2,27,127,512
2,40,102,512
2,38,103,0
2,35,101,0
2,31,114,0
2,31,87,128
2,33,108,0
2,31,103,0
2,35,101,0
2,33,114,0
2,38,87,128
2,40,102,0
2,38,103,0
2,35,101,0
2,31,114,0
2,26,99,128
2,28,124,0
2,26,103,0
2,31,124,4
2,38,92,0
2,35,94,0
2,40,102,0
2,38,103,0
2,35,101,0
2,31,114,0
2,31,87,128
2,33,108,0
2,31,103,0
2,35,101,0
2,33,114,0
2,38,87,128
2,40,102,0
2,38,103,0
2,35,101,0
2,31,114,0
2,26,99,128
2,28,124,0
2,26,103,0
2,31,124,4
2,38,92,0
2,35,94,0
2,38,105,0
2,36,106,0
2,33,104,0
2,29,117,0
2,29,90,128
2,31,111,0
2,29,106,0
2,33,104,0
2,31,117,0
2,36,90,128
2,38,105,0
2,36,106,0
2,33,104,0
2,29,117,0
2,24,102,128
2,26,127,0
2,24,106,0
2,29,127,4
2,36,95,0
2,33,97,0
2,38,105,0
2,36,106,0
2,33,104,0
2,29,117,0
2,29,90,128
2,31,111,0
2,29,106,0
2,33,104,0
2,31,117,0
2,36,90,128
2,38,105,0
2,36,106,0
2,33,104,0
2,29,117,0
2,24,102,128
2,26,127,0
2,24,106,0
2,29,127,4
2,36,95,0
2,33,97,0
2,38,105,0
2,36,106,0
2,33,104,0
2,29,117,0
2,29,90,128
2,31,111,0
2,29,106,0
2,33,104,0
2,31,117,0
2,36,90,128
2,38,105,0
2,36,106,0
2,33,104,0
2,29,117,0
2,24,102,128
2,26,127,0
2,24,106,0
2,29,127,4
2,36,95,0
2,33,97,0
2,38,105,0
2,36,106,0
2,33,104,0
2,29,117,0
2,29,90,128
2,31,111,0
2,29,106,0
2,33,104,0
2,31,117,0
2,36,90,128
2,38,105,0
2,36,106,0
2,33,104,0
2,29,117,0
2,24,102,128
2,26,127,0
2,24,106,0
2,29,127,4
2,36,95,0
2,33,97,0
2,38,105,0
2,36,106,0
2,33,104,0
2,29,117,0
2,29,90,128
2,31,111,0
2,29,106,0
2,33,104,0
2,31,117,0
2,36,90,128
2,38,105,0
2,36,106,0
2,33,104,0
2,29,117,0
2,24,102,128
2,26,127,0
2,24,106,0
2,29,127,4
2,36,95,0
2,33,97,0
2,38,105,0
2,36,106,0
2,33,104,0
2,29,117,0
2,29,90,128
2,31,111,0
2,29,106,0
2,33,104,0
2,31,117,0
2,36,90,128
2,38,105,0
2,36,106,0
2,33,104,0
2,29,117,0
2,24,102,128
2,26,127,0
2,24,106,0
2,29,127,4
2,36,95,0
2,33,97,0
2,38,105,0
2,36,106,0
2,33,104,0
2,29,117,0
2,29,90,128
2,31,111,0
2,29,106,0
2,33,104,0
2,31,117,0
2,36,90,128
2,38,105,0
2,36,106,0
2,33,104,0
2,29,117,0
2,24,102,128
2,26,127,0
2,24,106,0
2,29,127,4
2,36,95,0
2,33,97,0
2,38,105,0
2,36,106,0
2,33,104,0
2,29,117,0
2,29,90,128
2,31,111,0
2,29,106,0
2,33,104,0
2,31,117,0
2,36,90,128
2,38,105,0
2,36,106,0
2,33,104,0
2,29,117,0
2,24,102,128
2,26,127,0
2,24,106,0
2,29,127,4
2,36,95,0
2,33,97,0
2,38,105,0
2,36,106,0
2,33,104,0
2,29,117,0
2,29,90,128
2,31,111,0
2,29,106,0
2,33,104,0
2,31,117,0
2,36,90,128
2,26,117,0
3,69,67,1344
3,62,67,0
3,69,111,40
3,62,111,0
3,69,87,40
3,62,87,0
3,69,73,12
3,62,73,0
3,67,87,40
3,60,87,0
3,67,111,48
3,60,111,0
3,67,73,12
3,60,73,0
3,65,88,40
3,57,88,0
3,65,111,44
3,57,111,0
3,65,73,12
3,57,73,0
3,67,87,40
3,60,87,0
3,67,108,44
3,60,108,0
3,67,79,12
3,60,79,0
3,69,67,128
3,62,67,0
3,69,111,40
3,62,111,0
3,69,87,40
3,62,87,0
3,69,73,12
3,62,73,0
3,67,87,40
3,60,87,0
3,67,111,48
3,60,111,0
3,67,73,12
3,60,73,0
3,65,88,40
3,57,88,0
3,65,111,44
3,57,111,0
3,65,73,12
3,57,73,0
3,67,87,40
3,60,87,0
3,67,108,44
3,60,108,0
3,67,79,12
3,60,79,0
3,69,67,128
3,62,67,0
3,69,111,40
3,62,111,0
3,69,87,40
3,62,87,0
3,69,73,12
3,62,73,0
3,67,87,40
3,60,87,0
3,67,111,48
3,60,111,0
3,67,73,12
3,60,73,0
3,65,88,40
3,57,88,0
3,65,111,44
3,57,111,0
3,65,73,12
3,57,73,0
3,67,87,40
3,60,87,0
3,67,108,44
3,60,108,0
3,67,79,12
3,60,79,0
3,65,88,32
3,57,88,0
3,65,111,44
3,57,111,0
3,65,73,12
3,57,73,0
3,67,87,40
3,60,87,0
3,67,108,44
3,60,108,0
3,67,79,12
3,60,79,0
3,69,67,896
3,62,67,0
3,69,111,40
3,62,111,0
3,69,87,40
3,62,87,0
3,69,73,12
3,62,73,0
3,67,87,40
3,60,87,0
3,67,111,48
3,60,111,0
3,67,73,12
3,60,73,0
3,65,88,40
3,57,88,0
3,65,111,44
3,57,111,0
3,65,73,12
3,57,73,0
3,67,87,40
3,60,87,0
3,67,108,44
3,60,108,0
3,67,79,12
3,60,79,0
3,69,67,128
3,62,67,0
3,69,111,40
3,62,111,0
3,69,87,40
3,62,87,0
3,69,73,12
3,62,73,0
3,67,87,40
3,60,87,0
3,67,111,48
3,60,111,0
3,67,73,12
3,60,73,0
3,65,88,40
3,57,88,0
3,65,111,44
3,57,111,0
3,65,73,12
3,57,73,0
3,67,87,40
3,60,87,0
3,67,108,44
3,60,108,0
3,67,79,12
3,60,79,0
3,69,67,128
3,62,67,0
3,69,111,40
3,62,111,0
3,69,87,40
3,62,87,0
3,69,73,12
3,62,73,0
3,67,87,40
3,60,87,0
3,67,111,48
3,60,111,0
3,67,73,12
3,60,73,0
3,65,88,40
3,57,88,0
3,65,111,44
3,57,111,0
3,65,73,12
3,57,73,0
3,67,87,40
3,60,87,0
3,67,108,44
3,60,108,0
3,67,79,12
3,60,79,0
3,65,88,32
3,57,88,0
3,65,111,44
3,57,111,0
3,65,73,12
3,57,73,0
3,67,87,40
3,60,87,0
3,67,108,44
3,60,108,0
3,67,79,12
3,60,79,0
3,62,94,12904
3,65,92,0
3,69,97,0
3,67,98,0
3,64,79,0
3,60,93,0
3,57,65,0
3,62,80,0
3,57,66,64
3,62,88,20
3,65,99,12
3,65,85,160
3,64,78,0
3,62,94,0
3,65,92,0
3,69,97,0
3,67,98,0
3,64,79,0
3,60,93,0
3,57,65,0
3,58,80,0
3,58,66,192
3,60,83,0
3,58,83,0
3,60,85,0
3,58,79,0
3,62,94,0
3,65,92,0
3,69,97,0
3,67,98,0
3,64,79,0
3,60,93,0
3,57,65,0
3,62,80,0
3,57,66,64
3,62,88,20
3,65,99,12
3,65,85,160
3,64,78,0
3,62,94,0
3,65,92,0
3,69,97,0
3,67,98,0
3,64,79,0
3,60,93,0
3,57,65,0
3,58,80,0
3,58,66,192
3,60,83,0
3,58,83,0
3,60,85,0
3,58,79,0
3,62,94,0
3,65,92,0
3,69,97,0
3,67,98,0
3,64,79,0
3,60,93,0
3,57,65,0
3,62,80,0
3,57,66,64
3,62,88,20
3,65,99,12
3,65,85,160
3,64,78,0
3,62,94,0
3,65,92,0
3,69,97,0
3,67,98,0
3,64,79,0
3,60,93,0
3,57,65,0
3,58,80,0
3,58,66,192
3,60,83,0
3,58,83,0
3,60,85,0
3,58,79,0
3,62,94,0
3,65,92,0
3,69,97,0
3,67,98,0
3,64,79,0
3,60,93,0
3,57,65,0
3,62,80,0
3,57,66,64
3,62,88,20
3,65,99,12
3,65,85,160
3,64,78,0
3,62,94,0
3,65,92,0
3,69,97,0
3,67,98,0
3,64,79,0
3,60,93,0
3,57,65,0
3,58,80,0
3,58,66,192
3,60,83,0
3,58,83,0
3,60,85,0
3,58,79,0
3,62,94,43008
3,65,92,0
3,69,97,0
3,67,98,0
3,64,79,0
3,60,93,0
3,57,65,0
3,62,80,0
3,57,66,64
3,62,88,20
3,65,99,12
3,65,85,160
3,64,78,0
3,62,94,0
3,65,92,0
3,69,97,0
3,67,98,0
3,64,79,0
3,60,93,0
3,57,65,0
3,58,80,0
3,58,66,192
3,60,83,0
3,58,83,0
3,60,85,0
3,58,79,0
3,62,94,0
3,65,92,0
3,69,97,0
3,67,98,0
3,64,79,0
3,60,93,0
3,57,65,0
3,62,80,0
3,57,66,64
3,62,88,20
3,65,99,12
3,65,85,160
3,64,78,0
3,62,94,0
3,65,92,0
3,69,97,0
3,67,98,0
3,64,79,0
3,60,93,0
3,57,65,0
3,58,80,0
3,58,66,192
3,60,83,0
3,58,83,0
3,60,85,0
3,58,79,0
3,62,94,0
3,65,92,0
3,69,97,0
3,67,98,0
3,64,79,0
3,60,93,0
3,57,65,0
3,62,80,0
3,57,66,64
3,62,88,20
3,65,99,12
3,65,85,160
3,64,78,0
3,62,94,0
3,65,92,0
3,69,97,0
3,67,98,0
3,64,79,0
3,60,93,0
3,57,65,0
3,58,80,0
3,58,66,192
3,60,83,0
3,58,83,0
3,60,85,0
3,58,79,0
3,62,94,0
3,65,92,0
3,69,97,0
3,67,98,0
3,64,79,0
3,60,93,0
3,57,65,0
3,62,80,0
3,57,66,64
3,62,88,20
3,65,99,12
3,65,85,160
3,64,78,0
3,62,94,0
3,65,92,0
3,69,97,0
3,67,98,0
3,64,79,0
3,60,93,0
3,57,65,0
3,58,80,0
3,58,66,192
3,60,83,0
3,58,83,0
3,60,85,0
3,58,79,0
3,69,117,61816
3,62,104,0
3,69,117,48
3,62,85,0
3,67,85,16
3,62,65,0
3,67,115,52
3,62,98,0
3,65,82,48
3,62,68,0
3,65,107,52
3,62,102,0
3,67,96,56
3,62,81,0
3,67,104,48
3,62,100,0
3,69,117,384
3,62,104,0
3,69,117,48
3,62,85,0
3,67,85,16
3,62,65,0
3,67,115,52
3,62,98,0
3,65,82,48
3,62,68,0
3,65,107,52
3,62,102,0
3,62,81,56
3,62,112,48
3,69,117,384
3,62,104,0
3,69,117,48
3,62,85,0
3,67,85,16
3,62,65,0
3,67,115,52
3,62,98,0
3,65,82,48
3,62,68,0
3,65,107,52
3,62,102,0
3,67,96,56
3,62,81,0
3,67,104,48
3,62,100,0
3,69,117,384
3,62,104,0
3,69,117,48
3,62,85,0
3,67,85,16
3,62,65,0
3,67,115,52
3,62,98,0
3,65,82,48
3,62,68,0
3,65,107,52
3,62,102,0
3,62,81,56
3,62,112,48
3,69,117,384
3,62,104,0
3,69,117,48
3,62,85,0
3,67,85,16
3,62,65,0
3,67,115,52
3,62,98,0
3,65,82,48
3,62,68,0
3,65,107,52
3,62,102,0
3,67,96,56
3,62,81,0
3,67,104,48
3,62,100,0
3,69,117,384
3,62,104,0
3,69,117,48
3,62,85,0
3,67,85,16
3,62,65,0
3,67,115,52
3,62,98,0
3,65,82,48
3,62,68,0
3,65,107,52
3,62,102,0
3,62,81,56
3,62,112,48
3,69,117,384
3,62,104,0
3,69,117,48
3,62,85,0
3,67,85,16
3,62,65,0
3,67,115,52
3,62,98,0
3,65,82,48
3,62,68,0
3,65,107,52
3,62,102,0
3,67,96,56
3,62,81,0
3,67,104,48
3,62,100,0
3,69,117,384
3,62,104,0
3,69,117,48
3,62,85,0
3,67,85,16
3,62,65,0
3,67,115,52
3,62,98,0
3,65,82,48
3,62,68,0
3,65,107,52
3,62,102,0
3,62,81,56
3,62,112,48
3,69,117,384
3,62,104,0
3,69,117,48
3,62,85,0
3,67,85,16
3,62,65,0
3,67,115,52
3,62,98,0
3,65,82,48
3,62,68,0
3,65,107,52
3,62,102,0
3,67,96,56
3,62,81,0
3,67,104,48
3,62,100,0
3,69,117,384
3,62,104,0
3,69,117,48
3,62,85,0
3,67,85,16
3,62,65,0
3,67,115,52
3,62,98,0
3,65,82,48
3,62,68,0
3,65,107,52
3,62,102,0
3,62,81,56
3,62,112,48
3,69,117,384
3,62,104,0
3,69,117,48
3,62,85,0
3,67,85,16
3,62,65,0
3,67,115,52
3,62,98,0
3,65,82,48
3,62,68,0
