track,note,velocity,time
1,53,112,970
1,60,88,0
1,55,79,1600
1,62,70,0
1,53,0,90
1,60,0,8
1,55,0,1779
1,62,0,33
1,57,94,10
1,60,88,0
1,56,85,2160
1,61,73,0
1,57,0,33
1,60,0,13
1,56,0,1822
1,61,0,18
1,53,91,34
1,60,79,0
1,55,73,1680
1,62,72,0
1,60,0,42
1,53,0,0
1,58,74,1878
1,61,71,0
1,62,0,15
1,55,0,1
1,58,0,33
1,61,0,0
1,41,60,8
1,62,60,0
1,67,60,0
1,41,0,1960
1,79,58,680
1,67,0,1195
1,79,0,5
1,62,0,0
1,60,52,0
1,72,52,0
1,77,58,0
1,77,0,3837
1,72,0,0
1,60,0,0
1,62,75,3
1,67,75,0
1,62,0,3825
1,61,75,15
1,69,56,3840
1,73,59,0
1,81,58,0
1,67,0,6
1,61,0,22
1,69,0,1892
1,67,66,0
1,67,0,1920
1,73,0,0
1,81,0,0
1,67,55,0
1,69,66,0
1,72,65,0
1,74,63,0
1,74,0,1680
1,67,0,0
1,69,0,0
1,72,0,0
1,68,55,0
1,72,66,0
1,74,65,0
1,77,63,0
1,77,0,2160
1,68,0,0
1,72,0,0
1,74,0,0
1,55,68,0
1,60,72,3
1,62,67,3
1,55,0,1674
1,54,97,0
1,53,68,2160
1,60,72,0
1,62,71,0
1,60,0,35
1,62,0,2
1,54,0,13
1,62,0,1738
1,53,0,4
1,60,0,1
1,63,95,2047
1,63,0,701
1,65,84,19
1,65,0,861
1,63,74,99
1,67,77,0
1,46,78,2160
1,56,69,0
1,61,64,0
1,65,70,0
1,67,0,8
1,63,0,0
1,46,0,35
1,56,0,8
1,61,0,0
1,65,0,0
1,41,60,23
1,62,60,0
1,67,60,0
1,41,0,1960
1,79,58,680
1,67,0,1195
1,79,0,5
1,62,0,0
1,60,52,0
1,72,52,0
1,77,58,0
1,77,0,3837
1,72,0,0
1,60,0,0
1,62,72,3
1,67,72,0
1,62,0,3825
1,61,72,15
1,69,56,3840
1,73,59,0
1,81,58,0
1,67,0,6
1,61,0,22
1,69,0,1892
1,67,66,0
1,67,0,1920
1,73,0,0
1,81,0,0
1,67,55,0
1,69,66,0
1,72,65,0
1,74,63,0
1,74,0,1680
1,67,0,0
1,69,0,0
1,72,0,0
1,68,55,0
1,72,66,0
1,74,65,0
1,77,63,0
1,77,0,2160
1,68,0,0
1,72,0,0
1,74,0,0
1,55,68,0
1,60,72,3
1,62,67,3
1,55,0,1674
1,54,97,0
1,53,68,2160
1,60,72,0
1,62,71,0
1,60,0,35
1,62,0,2
1,54,0,13
1,62,0,1738
1,53,0,4
1,60,0,1
1,63,83,2047
1,63,0,701
1,65,72,19
1,65,0,861
1,63,62,99
1,67,65,0
1,67,0,2168
1,63,0,0
1,60,53,72
1,67,53,0
1,67,0,1711
1,67,55,11
1,60,57,18
1,60,0,1
1,67,0,2061
1,61,44,38
1,69,41,0
1,60,0,80
1,69,0,1560
1,71,41,20
1,62,53,20
1,61,0,40
1,64,67,1400
1,62,0,20
1,71,0,160
1,74,35,446
1,69,53,6
1,65,46,19
1,64,0,27
1,65,0,1613
1,68,55,89
1,65,43,20
1,72,41,0
1,74,0,6
1,69,0,66
1,65,0,2008
1,68,0,20
1,72,0,20
1,71,53,15
1,59,53,1
1,64,51,0
1,58,34,1644
1,64,0,16
1,71,0,19
1,59,0,1
1,64,38,4
1,70,49,0
1,58,0,2156
1,64,0,15
1,69,64,9
1,74,63,0
1,70,0,7
1,68,76,1593
1,69,0,86
1,68,0,2019
1,67,64,55
1,72,62,0
1,74,0,48
1,66,80,1632
1,67,0,35
1,66,0,2097
1,53,116,8
1,72,0,32
1,56,96,3810
1,53,0,19
1,56,0,3826
1,41,60,13
1,62,60,0
1,67,60,0
1,41,0,1960
1,79,58,680
1,67,0,1195
1,79,0,5
1,62,0,0
1,60,52,0
1,72,52,0
1,77,58,0
1,77,0,3837
1,72,0,0
1,60,0,0
1,62,75,3
1,67,75,0
1,62,0,3825
1,61,75,15
1,69,56,3840
1,73,59,0
1,81,58,0
1,67,0,6
1,61,0,22
1,69,0,1892
1,67,66,0
1,67,0,1920
1,73,0,0
1,81,0,0
1,67,55,0
1,69,66,0
1,72,65,0
1,74,63,0
1,74,0,1680
1,67,0,0
1,69,0,0
1,72,0,0
1,68,55,0
1,72,66,0
1,74,65,0
1,77,63,0
1,77,0,2160
1,68,0,0
1,72,0,0
1,74,0,0
1,55,68,0
1,60,72,3
1,62,67,3
1,55,0,1674
1,54,97,0
1,53,68,2160
1,60,72,0
1,62,71,0
1,60,0,35
1,62,0,2
1,54,0,13
1,62,0,1738
1,53,0,4
1,60,0,1
1,63,95,2047
1,63,0,701
1,65,84,19
1,65,0,861
1,63,74,99
1,67,77,0
1,46,78,2160
1,56,69,0
1,61,64,0
1,65,70,0
1,67,0,8
1,63,0,0
1,61,0,3370
1,56,0,0
1,65,0,0
1,46,0,0
1,53,112,462
1,60,88,0
1,55,79,1680
1,62,70,0
1,53,0,10
1,60,0,8
1,55,0,1859
1,62,0,33
1,57,94,10
1,60,88,0
1,56,85,2160
1,61,73,0
1,57,0,33
1,60,0,13
1,56,0,1822
1,61,0,18
1,53,91,34
1,60,79,0
1,55,73,1680
1,62,72,0
1,60,0,42
1,53,0,0
1,58,74,1878
1,61,71,0
1,62,0,15
1,55,0,1
1,58,0,4061
1,61,0,0
2,29,121,918
2,29,0,658
2,37,127,62
2,37,0,471
2,36,121,9
2,36,0,476
2,35,118,4
2,35,0,927
2,43,108,33
2,43,0,470
2,35,119,10
2,35,0,480
2,33,125,0
2,33,0,960
2,41,121,0
2,33,121,480
2,41,0,7
2,34,122,713
2,33,0,12
2,34,0,683
2,41,121,25
2,41,0,473
2,48,99,7
2,48,0,720
2,29,121,0
2,29,0,658
2,37,127,62
2,37,0,471
2,36,121,9
2,36,0,476
2,35,118,4
2,35,0,927
2,43,91,33
2,43,0,470
2,35,127,10
2,35,0,720
2,34,125,0
2,34,0,720
2,41,125,0
2,41,0,720
2,46,96,0
2,46,0,1680
2,48,91,38
2,29,107,5
2,48,0,33
2,29,0,674
2,36,115,13
2,36,0,936
2,35,115,24
2,35,0,957
2,31,112,3
2,35,116,480
2,31,0,21
2,35,0,440
2,33,109,19
2,33,0,938
2,41,109,22
2,41,0,926
2,38,113,34
2,40,107,960
2,38,0,10
2,40,0,467
2,38,93,3
2,38,0,705
2,35,111,15
2,35,0,708
2,43,89,12
2,43,0,866
2,35,127,94
2,35,0,63
2,34,127,177
2,34,0,687
2,45,96,33
2,45,0,462
2,43,107,18
2,43,0,475
2,34,120,5
2,34,0,71
2,34,119,169
2,34,0,671
2,43,90,49
2,43,0,911
2,31,118,49
2,31,0,952
2,34,127,8
2,40,115,480
2,34,0,25
2,40,0,670
2,37,117,25
2,37,0,710
2,45,106,10
2,45,0,950
2,31,112,10
2,31,0,940
2,40,105,20
2,31,109,480
2,40,0,6
2,41,108,714
2,31,0,21
2,41,0,660
2,36,105,39
2,41,91,960
2,36,0,25
2,36,105,935
2,41,0,17
2,31,111,943
2,36,0,3
2,31,0,237
2,33,118,0
2,33,0,681
2,40,112,39
2,38,121,960
2,40,0,35
2,38,0,925
2,50,87,0
2,50,0,753
2,38,121,0
2,45,112,720
2,38,0,35
2,45,0,877
2,35,118,48
2,35,0,960
2,43,112,0
2,43,0,465
2,35,93,15
2,35,0,696
2,32,120,24
2,32,0,720
2,39,121,0
2,31,125,960
2,39,0,11
2,39,112,949
2,31,0,7
2,39,0,473
2,32,117,0
2,33,109,360
2,32,0,7
2,34,122,353
2,33,0,1
2,41,121,719
2,34,0,10
2,46,112,710
2,41,0,18
2,46,0,1248
2,43,103,205
2,29,114,10
2,43,0,2
2,29,0,705
2,36,112,13
2,36,0,936
2,35,115,24
2,35,0,957
2,31,112,3
2,35,125,480
2,31,0,21
2,35,0,440
2,33,102,19
2,33,0,938
2,41,109,22
2,41,0,926
2,38,125,34
2,40,97,960
2,38,0,10
2,40,0,467
2,38,93,3
2,38,0,705
2,35,107,15
2,35,0,708
2,43,99,12
2,43,0,866
2,35,120,94
2,35,0,63
2,34,127,177
2,34,0,687
2,45,96,33
2,45,0,462
2,43,107,18
2,43,0,475
2,34,125,5
2,34,0,71
2,34,124,169
2,34,0,671
2,43,118,49
2,43,0,911
2,31,118,49
2,31,0,952
2,34,127,8
2,40,115,480
2,34,0,25
2,40,0,670
2,37,117,25
2,37,0,710
2,45,102,10
2,45,0,950
2,31,112,10
2,31,0,940
2,40,105,20
2,31,109,480
2,40,0,6
2,41,118,714
2,31,0,21
2,41,0,660
2,36,105,39
2,41,89,960
2,36,0,25
2,36,105,935
2,41,0,17
2,31,117,943
2,36,0,3
2,33,118,237
2,31,0,20
2,33,0,661
2,40,112,39
2,38,124,960
2,40,0,35
2,38,0,925
2,50,87,0
2,50,0,753
2,38,117,0
2,45,112,720
2,38,0,35
2,45,0,877
2,35,113,48
2,35,0,960
2,43,112,0
2,43,0,465
2,35,93,15
2,35,0,696
2,32,120,24
2,32,0,720
2,39,122,0
2,44,108,960
2,39,0,11
2,48,112,1429
2,44,0,8
2,48,0,585
2,36,119,127
2,36,0,686
2,43,112,34
2,43,0,946
2,33,125,14
2,33,0,936
2,40,109,24
2,33,120,720
2,40,0,35
2,34,127,205
2,33,0,20
2,34,0,195
2,35,125,25
2,35,0,720
2,42,117,0
2,42,0,952
2,40,115,8
2,40,0,943
2,47,99,17
2,47,0,480
2,40,108,0
2,40,0,703
2,34,122,17
2,41,116,720
2,34,0,10
2,38,112,865
2,41,0,26
2,41,107,914
2,38,0,10
2,41,0,990
2,32,121,200
2,32,0,691
2,40,121,29
2,40,0,952
2,31,122,8
2,31,0,943
2,40,109,17
2,40,0,986
2,29,121,214
2,38,108,720
2,29,0,6
2,38,0,926
2,32,121,28
2,32,0,938
2,40,105,22
2,32,117,480
2,40,0,13
2,32,0,664
2,31,118,43
2,39,108,720
2,31,0,12
2,39,0,939
2,30,121,9
2,39,112,960
2,30,0,10
2,39,0,468
2,30,113,2
2,30,0,667
2,34,121,53
2,29,118,720
2,34,0,22
2,33,121,938
2,29,0,15
2,33,0,940
2,45,95,5
2,45,0,457
2,41,109,23
2,34,122,720
2,41,0,12
2,41,121,708
2,34,0,5
2,41,0,541
2,46,97,174
2,41,114,1443
2,46,0,57
2,41,0,639
2,29,111,24
2,29,0,707
2,36,114,13
2,36,0,936
2,35,116,24
2,35,0,957
2,31,115,3
2,35,115,480
2,31,0,21
2,35,0,440
2,33,102,19
2,33,0,938
2,41,109,22
2,41,0,926
2,38,114,34
2,40,107,960
2,38,0,10
2,40,0,467
2,38,93,3
2,38,0,705
2,35,107,15
2,35,0,708
2,43,100,12
2,43,0,866
2,35,119,94
2,35,0,63
2,34,127,177
2,34,0,687
2,45,96,33
2,45,0,462
2,43,107,18
2,43,0,475
2,34,122,5
2,34,0,71
2,34,123,169
2,34,0,671
2,43,91,49
2,43,0,911
2,31,118,49
2,31,0,952
2,34,116,8
2,40,115,480
2,34,0,25
2,40,0,670
2,37,117,25
2,37,0,710
2,45,95,10
2,45,0,950
2,31,112,10
2,31,0,940
2,40,105,20
2,31,109,480
2,40,0,6
2,41,118,714
2,31,0,21
2,41,0,660
2,36,105,39
2,41,89,960
2,36,0,25
2,36,105,935
2,41,0,17
2,31,115,943
2,36,0,3
2,31,0,237
2,33,118,0
2,33,0,681
2,40,112,39
2,38,123,960
2,40,0,35
2,38,0,925
2,50,87,0
2,50,0,753
2,38,122,0
2,45,102,720
2,38,0,35
2,45,0,877
2,35,118,48
2,35,0,960
2,43,102,0
2,43,0,465
2,35,93,15
2,35,0,696
2,32,127,24
2,32,0,720
2,39,109,0
2,31,120,960
2,39,0,11
2,39,112,949
2,31,0,7
2,39,0,473
2,32,117,0
2,33,109,360
2,32,0,7
2,34,122,353
2,33,0,1
2,41,121,719
2,34,0,10
2,46,92,710
2,41,0,18
2,46,0,1248
2,43,103,205
2,29,121,5
2,43,0,2
2,29,0,656
2,37,127,62
2,37,0,471
2,36,121,9
2,36,0,476
2,35,118,4
2,35,0,927
2,43,119,33
2,43,0,470
2,35,121,10
2,35,0,480
2,33,125,0
2,33,0,960
2,41,99,0
2,33,121,480
2,41,0,7
2,34,122,713
2,33,0,12
2,34,0,683
2,41,109,25
2,41,0,473
2,48,92,7
2,48,0,720
2,29,121,0
2,29,0,658
2,37,120,62
2,37,0,471
2,36,111,9
2,36,0,476
2,35,118,4
2,35,0,927
2,43,88,33
2,43,0,470
2,35,117,10
2,35,0,720
2,34,125,0
2,34,0,700
2,41,125,20
2,41,0,720
2,46,100,0
2,46,0,1680
2,48,100,240
2,48,0,5
2,29,106,0
2,29,0,30
3,60,86,1240
3,65,86,0
3,72,80,0
3,77,121,0
3,76,75,240
3,77,0,17
3,76,0,206
3,77,109,17
3,77,0,231
3,70,87,9
3,84,112,0
3,72,0,25
3,70,0,453
3,69,82,2
3,69,0,471
3,62,84,9
3,67,84,0
3,60,0,5
3,65,0,0
3,84,0,692
3,67,0,23
3,62,0,0
3,62,84,0
3,67,84,0
3,77,125,240
3,67,0,480
3,62,0,0
3,76,105,0
3,77,0,32
3,76,0,434
3,60,86,14
3,65,86,0
3,77,121,0
3,65,0,1685
3,60,0,0
3,77,0,485
3,61,93,470
3,65,84,0
3,80,112,0
3,84,115,240
3,80,0,33
3,82,112,447
3,84,0,52
3,82,0,501
3,65,0,159
3,61,0,4
3,60,86,4
3,65,86,0
3,72,101,0
3,77,121,0
3,76,75,240
3,77,0,17
3,76,0,206
3,77,109,17
3,77,0,231
3,70,87,9
3,84,112,0
3,72,0,25
3,70,0,453
3,69,82,2
3,69,0,471
3,62,84,9
3,67,84,0
3,60,0,5
3,65,0,0
3,84,0,692
3,67,0,23
3,62,0,0
3,62,84,0
3,67,84,0
3,77,125,240
3,67,0,480
3,62,0,0
3,76,105,0
3,77,0,32
3,76,0,748
3,75,112,1380
3,84,86,0
3,37,80,240
3,72,73,0
3,73,85,0
3,80,91,0
3,75,0,16
3,84,0,24
3,37,0,2042
3,80,0,35
3,73,0,15
3,72,0,0
3,68,117,30748
3,72,115,0
3,72,0,720
3,70,127,0
3,74,125,0
3,68,0,23
3,70,0,790
3,74,0,78
3,70,127,69
3,75,127,0
3,75,0,440
3,70,0,26
3,77,121,14
3,79,98,480
3,77,0,5
3,82,108,475
3,79,0,2
3,82,0,699
3,80,112,19
3,80,0,2755
3,72,115,31783
3,68,117,7
3,72,0,713
3,74,125,12
3,70,127,7
3,68,0,11
3,70,0,803
3,74,0,70
3,72,127,79
3,80,127,0
3,80,0,440
3,84,121,40
3,72,0,480
3,70,127,0
3,82,98,0
3,84,0,5
3,82,0,1135
3,70,0,0
3,60,112,0
3,67,112,30
3,79,112,30
3,45,125,1632
3,67,100,10
3,72,102,36
3,67,0,3
3,60,0,0
3,79,0,19
3,79,112,0
3,79,0,1700
3,45,0,165
3,67,0,6
3,72,0,56
3,47,118,104
3,69,86,29
3,73,89,42
3,81,92,38
3,40,102,1635
3,69,0,3
3,52,86,2
3,73,0,2
3,47,0,10
3,81,0,3
3,74,98,5
3,83,84,20
3,52,0,1396
3,74,0,2
3,76,112,42
3,46,105,512
3,69,98,60
3,74,93,54
3,83,0,10
3,77,91,15
3,40,0,9
3,76,0,18
3,69,0,1278
3,74,0,16
3,77,0,9
3,46,0,12
3,50,127,347
3,68,117,40
3,72,102,20
3,77,88,0
3,80,112,1440
3,50,0,371
3,68,0,41
3,77,0,1
3,72,0,22
3,59,98,201
3,64,96,20
3,71,98,39
3,74,118,12
3,76,118,4
3,80,0,225
3,59,0,1161
3,64,0,45
3,71,0,11
3,76,0,50
3,74,0,10
3,58,79,127
3,64,83,40
3,70,94,0
3,74,90,20
3,76,90,0
3,62,88,1980
3,74,0,60
3,69,91,13
3,74,98,72
3,58,0,11
3,64,0,15
3,86,123,12
3,70,0,4
3,76,0,16
3,69,0,42
3,69,112,176
3,74,0,30
3,74,123,219
3,69,0,1000
3,74,0,31
3,62,0,2
3,68,111,135
3,74,107,3
3,62,112,6
3,86,0,5
3,62,0,860
