track,note,velocity,time
2,79,102,18732
2,67,103,0
2,74,85,4
2,62,97,0
2,78,102,192
2,66,103,0
2,74,85,4
2,62,97,0
2,59,127,96
2,62,115,168
2,62,122,108
2,64,94,12
2,57,110,40
2,55,92,32
2,55,105,112
2,59,110,0
2,62,97,32
2,64,105,0
2,67,115,24
2,67,105,120
2,64,94,24
2,69,105,0
2,67,115,0
2,63,105,92
2,59,91,0
2,67,95,18624
2,67,122,40
2,62,64,4
2,67,106,644
2,71,106,40
2,74,106,48
2,74,113,0
2,76,127,96
2,74,113,0
2,72,113,384
2,72,113,0
2,69,104,288
2,71,101,16
2,69,112,8
2,67,100,56
2,66,104,12
2,67,101,16
2,62,92,384
2,60,86,24
2,59,80,36
2,79,100,776
2,67,101,0
2,74,83,4
2,62,95,0
2,78,100,192
2,66,101,0
2,74,83,4
2,62,95,0
2,72,91,1220
2,72,100,48
2,72,118,68
2,69,105,0
2,64,86,4276
2,64,75,16
2,66,83,16
2,66,80,16
2,67,75,16
2,67,75,16
2,69,83,16
2,69,83,16
2,71,83,16
2,71,83,16
2,72,92,16
2,72,92,16
2,74,92,16
2,74,92,16
2,76,89,16
2,74,92,4
2,76,106,96
2,74,106,0
2,69,101,556
2,69,107,100
2,67,105,52
2,67,101,20
2,66,107,1108
2,67,107,0
2,66,107,0
2,64,107,0
2,62,107,0
2,64,104,0
2,47,82,4416
2,51,87,0
2,54,87,0
2,59,91,0
2,63,83,0
2,66,95,0
2,69,82,0
2,67,87,0
2,66,83,0
2,67,95,0
2,67,127,96
2,62,127,348
2,66,125,220
2,66,122,24
2,62,122,20
2,74,112,740
2,76,123,0
2,74,101,28
2,74,116,120
2,72,100,0
2,72,125,112
2,71,107,40
2,71,119,108
2,69,112,172
2,67,118,132
3,79,105,7168
3,74,105,172
3,78,105,748
3,74,105,140
3,67,105,536
3,76,105,52
3,76,105,92
3,76,105,68
3,71,105,192
3,74,105,192
3,72,105,1524
3,67,105,180
3,67,105,28
3,67,105,136
3,67,105,100
3,70,105,56
3,70,105,84
3,69,105,68
3,67,105,84
3,63,105,216
3,62,105,76
3,71,105,384
3,79,105,2368
3,74,105,172
3,78,105,748
3,74,105,140
3,67,105,536
3,76,105,52
3,76,105,92
3,76,105,68
3,78,105,12
3,76,105,12
3,74,105,12
3,64,105,1332
3,72,105,28
3,67,105,16
3,67,105,412
3,67,105,100
3,70,105,56
3,70,105,84
3,69,105,68
3,69,105,84
3,67,105,84
3,67,105,84
3,62,105,192
3,71,105,76
3,69,105,192
3,67,105,76
3,69,105,76
3,67,105,192
3,71,105,1152
3,71,105,60
3,69,105,40
3,67,105,76
3,67,105,48
3,67,105,100
3,67,105,100
3,71,105,52
3,76,105,28
3,76,105,100
3,74,105,36
3,74,105,140
3,76,105,32
3,78,105,72
3,79,105,48
3,79,105,108
3,79,105,92
3,81,105,48
3,79,105,24
3,76,105,44
3,74,105,44
3,74,105,512
3,76,105,32
3,78,105,44
3,79,90,40
3,76,105,176
3,71,105,192
3,74,105,48
3,76,105,40
3,69,105,16
3,67,105,60
3,79,105,568
3,76,105,164
3,71,105,160
3,74,105,16
3,76,105,40
3,69,105,16
3,67,105,80
3,79,105,392
3,76,105,172
3,71,105,156
3,74,105,0
3,76,105,36
3,69,105,32
3,79,105,1144
3,76,105,180
3,71,105,180
3,74,105,24
3,76,105,40
3,69,105,16
3,69,105,144
3,69,105,56
3,67,105,80
3,71,105,96
3,69,105,64
3,79,105,6680
3,74,105,172
3,78,105,748
3,74,105,140
3,67,105,536
3,76,105,52
3,76,105,92
3,76,105,68
3,76,105,64
3,78,105,68
3,76,105,12
3,74,105,12
3,72,105,1332
3,67,105,208
3,67,105,220
3,67,105,100
3,70,105,56
3,70,105,84
3,69,105,68
3,67,105,84
3,67,105,96
3,62,105,96
3,62,105,76
3,71,105,76
3,71,105,52
3,69,105,76
3,67,105,136
3,62,105,192
3,79,105,2112
3,74,105,172
3,78,105,748
3,74,105,140
3,67,105,536
3,76,105,52
3,76,105,92
3,76,105,68
3,76,105,64
3,78,105,68
3,76,105,12
3,74,105,12
3,72,105,1332
3,67,105,208
3,67,105,28
3,67,105,100
3,67,105,100
3,70,105,56
3,70,105,84
3,69,105,68
3,69,105,84
3,67,105,84
3,63,105,96
3,62,105,76
3,71,105,36
3,71,105,2056
3,71,105,0
3,71,105,60
3,71,105,0
3,69,105,40
3,69,105,0
3,67,105,76
3,67,105,48
3,67,105,100
3,67,105,100
3,71,105,52
3,76,105,28
3,76,105,100
3,74,105,36
3,74,105,140
3,76,105,32
3,78,105,72
3,79,105,48
3,79,105,108
3,79,105,92
3,81,105,48
3,79,105,24
3,76,105,44
3,74,105,44
3,74,105,512
3,76,105,32
3,78,105,44
3,79,90,40
3,76,105,176
3,71,105,192
3,74,105,48
3,76,105,40
3,69,105,16
3,67,105,60
3,79,105,568
3,76,105,164
3,71,105,160
3,74,105,16
3,76,105,40
3,69,105,16
3,67,105,80
3,79,105,392
3,76,105,172
3,71,105,156
3,74,105,0
3,76,105,36
3,69,105,32
3,79,105,1144
3,76,105,180
3,71,105,180
3,74,105,24
3,76,105,40
3,69,105,16
3,69,105,144
3,69,105,56
3,67,105,80
3,71,105,96
3,69,105,64
4,64,82,31316
4,64,82,32
4,64,70,312
4,64,74,48
4,64,84,48
4,64,75,320
4,62,68,28
4,62,77,52
4,62,76,320
4,62,72,24
4,62,89,56
4,62,78,328
4,64,72,40
4,64,73,40
4,64,72,332
4,64,66,40
4,64,87,72
4,64,77,320
4,62,70,20
4,62,70,64
4,62,75,324
4,62,76,60
4,62,97,40
4,62,82,320
4,55,94,56
4,52,91,188
4,50,91,4
4,55,91,72
4,52,88,16
4,50,91,12
4,55,88,44
4,55,88,196
4,52,88,20
4,50,88,48
4,55,100,40
4,55,97,20
4,59,91,20
4,55,94,176
4,52,91,188
4,50,91,4
4,55,91,72
4,52,88,16
4,50,91,12
4,55,88,44
4,55,88,196
4,52,88,20
4,50,88,48
4,55,100,40
4,55,97,20
4,59,91,20
4,55,94,176
4,52,91,188
4,50,91,4
4,55,91,72
4,52,88,16
4,50,91,12
4,55,88,44
4,55,88,196
4,52,88,20
4,50,88,48
4,55,100,40
4,55,97,20
4,59,91,20
4,55,94,176
4,52,91,188
4,50,91,4
4,55,91,72
4,52,88,16
4,50,91,12
4,55,88,44
4,55,88,196
4,52,88,20
4,50,88,48
4,55,100,40
4,55,97,20
4,59,91,20
4,64,82,30896
4,64,82,32
4,64,70,312
4,64,74,48
4,64,84,48
4,64,75,320
4,62,68,28
4,62,77,52
4,62,76,320
4,62,72,24
4,62,89,56
4,62,78,328
4,64,72,40
4,64,73,40
4,64,72,332
4,64,66,40
4,64,87,72
4,64,77,320
4,62,70,20
4,62,70,64
4,62,75,324
4,62,76,60
4,62,97,40
4,62,82,320
4,55,94,56
4,52,91,188
4,50,91,4
4,55,91,72
4,52,88,16
4,50,91,12
4,55,88,44
4,55,88,196
4,52,88,20
4,50,88,48
4,55,100,40
4,55,97,20
4,59,91,20
4,55,94,176
4,52,91,188
4,50,91,4
4,55,91,72
4,52,88,16
4,50,91,12
4,55,88,44
4,55,88,196
4,52,88,20
4,50,88,48
4,55,100,40
4,55,97,20
4,59,91,20
4,55,94,176
4,52,91,188
4,50,91,4
4,55,91,72
4,52,88,16
4,50,91,12
4,55,88,44
4,55,88,196
4,52,88,20
4,50,88,48
4,55,100,40
4,55,97,20
4,59,91,20
4,55,94,176
4,52,91,188
4,50,91,4
4,55,91,72
4,52,88,16
4,50,91,12
4,55,88,44
4,55,88,196
4,52,88,20
4,50,88,48
4,55,100,40
4,55,97,20
4,59,91,20
5,39,80,38228
5,39,80,768
5,39,80,768
5,39,80,768
5,39,80,768
5,39,80,768
5,39,80,768
5,39,80,768
5,39,80,768
5,39,80,768
5,39,80,768
5,39,80,768
5,39,80,768
5,39,80,768
5,39,80,768
5,39,80,768
5,39,80,37632
5,39,80,768
5,39,80,768
5,39,80,768
5,39,80,768
5,39,80,768
5,39,80,768
5,39,80,768
5,39,80,768
5,39,80,768
5,39,80,768
5,39,80,768
5,39,80,768
5,39,80,768
5,39,80,768
5,39,80,768
6,55,66,332
6,50,54,0
6,43,72,4
6,62,45,4
6,43,79,184
6,62,59,0
6,50,50,0
6,55,49,4
6,43,56,36
6,55,79,32
6,62,70,0
6,50,77,16
6,42,56,4
6,50,77,8
6,57,74,4
6,62,72,4
6,57,84,8
6,62,82,0
6,64,62,4
6,57,44,52
6,62,59,4
6,42,55,0
6,50,82,4
6,42,54,32
6,50,54,56
6,62,67,0
6,57,82,12
6,42,50,68
6,50,59,0
6,57,45,4
6,62,66,0
6,43,40,24
6,62,60,0
6,50,52,0
6,55,48,0
6,62,75,192
6,50,82,4
6,43,83,4
6,55,66,4
6,43,80,36
6,55,42,32
6,62,71,8
6,50,46,4
6,50,58,4
6,57,54,8
6,62,76,4
6,42,56,8
6,57,51,8
6,64,41,4
6,62,51,4
6,57,42,60
6,42,77,4
6,62,55,0
6,50,62,4
6,42,62,28
6,62,60,52
6,57,68,4
6,50,54,8
6,57,57,56
6,42,51,4
6,62,43,0
6,50,45,4
6,43,71,0
6,55,44,0
6,50,67,0
6,62,81,4
6,55,47,188
6,50,54,4
6,43,45,0
6,62,47,0
6,43,72,44
6,62,73,28
6,67,53,0
6,50,49,4
6,55,64,4
6,42,55,12
6,57,74,8
6,62,69,8
6,50,53,12
6,50,41,176
6,62,45,0
6,42,74,8
6,57,65,8
6,42,58,28
6,62,67,64
6,57,70,12
6,50,44,4
6,57,78,48
6,42,65,4
6,62,75,4
6,50,64,0
6,40,69,0
6,52,76,4
6,59,67,4
6,55,42,0
6,52,52,180
6,55,73,12
6,59,81,0
6,40,60,4
6,40,47,20
6,55,79,36
6,64,70,4
6,59,55,4
6,47,60,24
6,54,62,8
6,57,41,4
6,62,64,0
6,62,41,0
6,54,66,0
6,57,44,0
6,66,74,0
6,47,70,60
6,57,64,4
6,54,74,0
6,62,50,4
6,47,43,48
6,57,74,64
6,62,53,0
6,66,52,0
6,54,59,0
6,57,67,184
6,54,53,0
6,62,64,4
6,45,83,184
6,60,62,0
6,52,44,0
6,55,83,0
6,45,50,4
6,64,70,0
6,64,75,188
6,60,47,8
6,55,77,0
6,45,73,0
6,52,60,8
6,45,78,32
6,64,62,20
6,60,43,4
6,55,48,4
6,52,51,4
6,58,43,12
6,55,70,4
6,67,59,0
6,48,70,8
6,63,69,4
6,67,44,0
6,63,72,4
6,58,80,0
6,55,53,8
6,55,46,56
6,48,60,0
6,58,48,4
6,63,67,4
6,67,73,0
6,48,45,40
6,67,73,64
6,58,50,4
6,55,66,0
6,62,50,0
6,58,61,0
6,67,78,0
6,55,66,0
6,62,75,12
6,48,76,184
6,43,69,0
6,55,65,4
6,62,53,0
6,50,73,4
6,55,81,184
6,50,80,8
6,43,52,4
6,62,57,4
6,43,51,32
6,55,72,28
6,50,60,0
6,62,62,8
6,42,66,28
6,50,69,0
6,57,48,8
6,62,76,4
6,62,70,20
6,64,57,4
6,57,81,12
6,62,57,48
6,50,40,0
6,57,45,0
6,42,58,8
6,42,58,28
6,57,52,68
6,62,62,0
6,50,81,12
6,42,59,52
6,50,73,4
6,62,80,0
6,57,61,0
6,43,66,28
6,62,40,0
6,50,43,4
6,55,43,4
6,55,53,188
6,50,42,0
6,43,68,4
6,62,45,4
6,43,45,28
6,62,67,40
6,50,48,0
6,67,61,4
6,55,48,0
6,62,62,20
6,50,52,0
6,57,46,4
6,42,52,8
6,62,77,180
6,57,69,0
6,42,50,8
6,50,79,8
6,42,52,32
6,57,73,52
6,62,52,0
6,50,46,4
6,42,49,60
6,50,73,0
6,62,75,4
6,57,55,0
6,40,77,24
6,59,43,0
6,52,61,0
6,55,68,12
6,59,84,176
6,55,66,4
6,40,51,8
6,52,81,0
6,40,61,36
6,64,61,32
6,59,49,4
6,55,46,4
6,54,80,16
6,62,46,12
6,57,50,8
6,47,53,4
6,54,62,4
6,57,70,12
6,66,60,0
6,62,67,0
6,57,56,52
6,62,48,0
6,47,50,4
6,54,49,8
6,47,59,44
6,62,65,60
6,66,82,0
6,54,81,0
6,57,57,4
6,54,82,180
6,62,40,0
6,57,82,0
6,45,73,188
6,64,76,0
6,60,46,4
6,55,46,0
6,45,68,4
6,52,57,0
6,60,62,184
6,45,40,4
6,64,48,4
6,52,68,0
6,55,49,8
6,45,64,32
6,60,44,32
6,55,55,0
6,64,42,8
6,52,74,0
6,48,72,4
6,63,81,8
6,58,53,8
6,67,82,4
6,55,67,0
6,58,84,0
6,63,77,4
6,67,44,0
6,55,42,4
6,67,67,48
6,58,58,4
6,48,59,4
6,63,45,0
6,55,66,4
6,48,64,28
6,62,82,60
6,58,55,0
6,67,45,4
6,55,46,0
6,62,60,176
6,67,74,0
6,58,68,0
6,55,75,8
6,48,47,180
6,50,64,4
6,43,50,4
6,55,70,0
6,62,73,4
6,43,67,184
6,62,58,0
6,55,69,0
6,50,51,4
6,43,57,40
6,50,79,32
6,55,49,4
6,62,51,4
6,62,53,24
6,50,79,8
6,42,45,0
6,57,70,4
6,54,69,176
6,57,41,4
6,63,50,4
6,47,51,0
6,47,50,36
6,66,42,72
6,63,79,4
6,57,60,0
6,63,78,0
6,57,69,12
6,54,83,0
6,47,79,184
6,64,60,8
6,59,66,4
6,48,45,0
6,55,75,0
6,64,69,188
6,55,63,0
6,59,41,8
6,48,62,0
6,43,83,24
6,59,67,36
6,64,50,4
6,55,62,4
6,47,44,8
6,54,53,16
6,57,44,4
6,62,79,4
6,66,44,24
6,62,70,4
6,57,58,4
6,47,51,56
6,57,49,4
6,62,82,0
6,54,55,8
6,42,52,28
6,62,73,56
6,66,56,0
6,57,61,4
6,57,63,4
6,62,71,0
6,54,44,4
6,47,65,184
6,55,57,4
6,59,80,0
6,64,84,4
6,48,58,4
6,55,56,176
6,64,62,12
6,48,48,0
6,59,46,4
6,43,78,36
6,55,73,32
6,64,81,8
6,59,77,4
6,47,48,20
6,62,74,4
6,54,81,4
6,57,70,4
6,62,76,0
6,57,42,4
6,66,79,4
6,62,49,56
6,54,70,4
6,47,80,4
6,57,69,4
6,42,44,32
6,62,64,68
6,57,81,0
6,66,58,0
6,54,55,180
6,62,71,0
6,57,46,4
6,47,52,192
6,43,72,8
6,62,52,0
6,55,62,0
6,50,58,0
6,50,45,8
6,55,41,0
6,67,42,4
6,62,62,4
6,50,43,44
6,55,64,4
6,62,67,4
6,43,54,4
6,43,47,28
6,55,64,96
6,50,63,4
6,67,40,8
6,62,82,0
6,52,79,88
6,55,74,4
6,40,58,8
6,59,49,8
6,55,50,40
6,59,43,0
6,64,62,0
6,52,57,52
6,59,65,4
6,55,80,4
6,40,77,4
6,40,76,36
6,64,59,64
6,59,77,4
6,55,44,0
6,55,46,0
6,52,83,0
6,59,79,4
6,40,72,188
6,62,50,0
6,43,55,0
6,55,63,0
6,50,64,4
6,67,84,8
6,50,81,0
6,62,73,0
6,55,49,0
6,55,80,44
6,50,49,4
6,62,53,4
6,43,51,4
6,43,42,24
6,55,84,100
6,62,75,0
6,50,48,4
6,67,47,4
6,40,49,92
6,52,84,4
6,59,57,0
6,55,77,4
6,59,61,0
6,55,61,4
6,64,80,4
6,59,57,56
6,40,69,4
6,55,41,4
6,52,76,4
6,40,73,28
6,55,50,64
6,64,83,4
6,59,60,0
6,59,57,4
6,55,70,4
6,52,40,0
6,40,41,192
6,52,56,0
6,55,40,0
6,45,44,0
6,60,41,12
6,52,46,4
6,60,43,0
6,55,74,4
6,64,62,0
6,55,75,44
6,60,45,4
6,52,63,4
6,45,56,0
6,45,61,36
6,52,68,96
6,64,46,0
6,60,79,0
6,55,51,0
6,62,41,100
6,57,43,8
6,50,82,12
6,57,68,8
6,66,53,8
6,62,63,0
6,57,59,60
6,50,69,4
6,62,45,4
6,50,45,44
6,66,55,56
6,62,49,4
6,57,46,0
6,57,42,180
6,62,72,4
6,50,73,180
