track,note,velocity,time
2,38,106,7212
2,31,105,104
2,50,94,20
2,52,105,0
2,50,102,8
2,38,106,12
2,31,74,84
2,31,98,80
2,43,78,88
2,47,105,12
2,50,105,4
2,38,106,36
2,31,105,16
2,31,105,76
2,50,94,20
2,52,105,0
2,50,102,4
2,38,106,12
2,43,74,84
2,31,98,80
2,43,78,88
2,47,105,12
2,50,105,4
2,38,106,36
2,31,105,16
2,31,105,76
2,50,94,20
2,52,105,0
2,50,102,4
2,38,106,12
2,43,74,84
2,31,98,80
2,43,78,88
2,47,105,12
2,50,105,4
2,38,106,36
2,31,105,104
2,50,94,20
2,52,105,0
2,50,102,8
2,38,106,12
2,31,74,84
2,31,98,80
2,43,78,88
2,47,105,12
2,50,105,4
2,30,104,36
2,30,104,44
2,30,104,100
2,30,104,52
2,31,104,100
2,31,106,40
2,31,100,88
2,31,107,52
2,31,106,80
2,30,102,180
2,30,106,36
2,30,108,100
2,30,108,44
2,31,105,100
2,31,105,28
2,31,104,92
2,31,106,40
2,30,104,416
2,30,105,44
2,30,104,100
2,30,106,52
2,31,104,100
2,31,103,40
2,31,104,88
2,31,104,52
2,31,104,80
2,30,106,180
2,30,106,36
2,30,108,132
2,30,102,44
2,31,105,128
2,31,105,28
2,32,104,128
2,32,105,84
2,32,106,24
2,32,104,44
2,32,106,100
2,32,104,52
2,33,105,100
2,33,107,40
2,33,105,88
2,33,104,52
2,33,107,80
2,32,107,180
2,32,107,36
2,32,108,100
2,32,103,44
2,33,103,100
2,33,104,28
2,33,104,92
2,33,108,40
2,32,102,416
2,32,104,44
2,32,104,100
2,32,106,52
2,33,104,100
2,33,104,40
2,33,108,88
2,33,104,52
2,33,105,80
2,32,107,180
2,32,104,36
2,32,108,132
2,32,106,44
2,33,105,128
2,33,104,28
2,38,106,800
2,31,105,104
2,54,99,20
2,50,99,0
2,55,100,0
2,52,88,0
2,54,95,0
2,50,95,0
2,38,106,16
2,31,82,84
2,31,98,80
2,43,88,88
2,47,105,12
2,50,105,4
2,38,106,36
2,31,105,104
2,54,94,20
2,50,94,0
2,55,99,0
2,52,100,0
2,54,102,0
2,50,102,0
2,38,106,16
2,31,74,84
2,31,98,80
2,43,78,88
2,47,105,12
2,50,105,4
2,38,106,36
2,31,105,104
2,54,91,20
2,50,91,0
2,55,88,0
2,52,88,0
2,54,98,0
2,50,98,0
2,38,106,16
2,31,74,84
2,31,98,80
2,43,78,88
2,47,105,12
2,50,105,4
2,38,106,36
2,31,105,104
2,54,94,20
2,50,94,0
2,55,89,0
2,52,89,0
2,54,102,0
2,50,102,0
2,38,106,16
2,31,74,84
2,31,98,80
2,43,90,88
2,47,105,12
2,50,105,4
2,30,107,36
2,30,105,44
2,30,104,100
2,30,107,52
2,31,104,100
2,31,102,40
2,31,105,88
2,31,105,52
2,31,105,80
2,30,107,180
2,30,107,36
2,30,103,100
2,30,107,44
2,31,105,100
2,31,105,28
2,31,104,92
2,31,105,40
2,30,101,416
2,30,105,44
2,30,104,100
2,30,107,52
2,31,104,100
2,31,102,40
2,31,105,88
2,31,105,52
2,31,105,80
2,30,107,180
2,30,107,36
2,30,103,132
2,30,107,44
2,31,105,128
2,31,105,28
2,32,104,128
2,32,105,84
2,32,101,24
2,32,105,44
2,32,104,100
2,32,107,52
2,33,104,100
2,33,102,40
2,33,105,88
2,33,105,52
2,33,105,80
2,32,107,180
2,32,107,36
2,32,103,100
2,32,107,44
2,33,105,100
2,33,105,28
2,33,104,92
2,33,105,40
2,32,101,416
2,32,105,44
2,32,104,100
2,32,107,52
2,33,104,100
2,33,102,40
2,33,105,88
2,33,105,52
2,33,105,80
2,32,107,180
2,32,107,36
2,32,103,132
2,32,107,44
2,33,105,128
2,33,105,28
2,40,102,120
2,43,106,8
2,46,102,4
2,45,101,0
2,43,107,8
2,38,106,16
2,31,105,108
2,50,94,16
2,52,105,0
2,50,102,12
2,38,106,12
2,31,74,88
2,31,98,80
2,43,78,92
2,47,105,12
2,50,105,4
2,38,106,32
2,31,105,20
2,31,105,76
2,50,94,16
2,52,105,4
2,50,102,4
2,38,106,12
2,43,74,88
2,31,98,80
2,43,91,92
2,47,105,12
2,50,105,4
2,38,106,32
2,31,105,20
2,31,105,76
2,50,94,16
2,52,105,4
2,50,102,4
2,38,106,12
2,43,74,88
2,31,98,80
2,43,78,92
2,47,105,12
2,50,105,4
2,38,106,32
2,31,105,108
2,50,94,16
2,52,105,0
2,50,102,12
2,38,106,12
2,31,74,88
2,31,98,80
2,47,78,92
2,49,98,16
2,52,98,0
2,50,102,12
2,54,102,0
2,30,110,8
2,30,105,40
2,30,108,104
2,30,102,48
2,31,102,100
2,31,103,36
2,31,105,88
2,31,105,48
2,31,105,80
2,30,107,184
2,30,107,32
2,30,103,104
2,30,107,44
2,31,105,96
2,31,105,32
2,31,104,92
2,31,105,40
2,30,101,412
2,30,105,40
2,30,104,104
2,30,107,48
2,31,104,100
2,31,102,36
2,31,105,88
2,31,105,48
2,31,105,80
2,30,107,184
2,30,107,32
2,30,103,136
2,30,107,44
2,31,105,124
2,31,105,32
2,32,104,128
2,32,105,80
2,32,101,24
2,32,105,40
2,32,104,104
2,32,107,48
2,33,104,100
2,33,102,36
2,33,105,88
2,33,105,48
2,33,105,80
2,32,107,184
2,32,107,32
2,32,103,104
2,32,107,44
2,33,105,96
2,33,105,32
2,33,104,92
2,33,105,40
2,32,101,412
2,32,105,40
2,32,104,104
2,32,107,48
2,33,104,100
2,33,102,36
2,33,105,88
2,33,105,48
2,33,105,80
2,32,107,180
2,32,107,36
2,32,103,132
2,32,107,44
2,33,105,128
2,33,105,28
2,40,102,120
2,43,106,8
2,46,102,4
2,45,101,0
2,43,107,8
2,38,106,16
2,31,105,108
2,54,99,16
2,50,99,0
2,55,99,4
2,52,99,0
2,54,102,0
2,50,102,0
2,38,106,16
2,31,74,88
2,31,98,80
2,43,78,92
2,47,105,12
2,50,105,4
2,38,106,32
2,31,105,108
2,54,93,16
2,50,93,0
2,55,101,4
2,52,101,0
2,54,102,0
2,50,102,0
2,38,106,16
2,31,74,88
2,31,98,80
2,43,78,92
2,47,105,12
2,50,105,4
2,38,106,32
2,31,105,108
2,54,94,16
2,50,94,0
2,55,101,4
2,52,97,0
2,54,98,0
2,50,98,0
2,38,100,16
2,31,81,88
2,31,98,80
2,43,92,92
2,47,97,12
2,50,105,4
2,38,106,32
2,31,105,108
2,54,94,16
2,50,94,0
2,55,94,4
2,52,100,0
2,54,102,0
2,50,102,0
2,38,106,16
2,31,88,88
2,31,98,80
2,43,94,92
2,47,105,12
2,50,105,4
2,38,106,32
2,31,105,108
2,54,94,16
2,50,94,0
2,55,98,4
2,52,98,0
2,54,102,0
2,50,102,0
2,38,106,16
2,31,74,88
2,31,98,80
2,43,78,92
2,47,99,12
2,50,105,4
2,38,106,32
2,31,105,108
2,54,94,16
2,50,94,0
2,55,102,4
2,52,100,0
2,54,102,0
2,50,102,0
2,38,106,16
2,31,74,88
2,31,98,80
2,43,78,92
2,47,105,12
2,50,105,4
2,38,106,32
2,31,105,108
2,54,94,16
2,50,94,0
2,55,101,4
2,52,101,0
2,54,102,0
2,50,102,0
2,38,106,16
2,31,74,88
2,31,98,80
2,43,78,92
2,47,105,12
2,50,105,4
2,38,106,32
2,31,105,108
2,54,93,16
2,50,93,0
2,55,100,4
2,52,100,0
2,54,102,0
2,50,102,0
2,38,106,16
2,31,74,88
2,31,98,80
2,43,78,92
2,47,105,12
2,50,105,4
2,38,106,32
2,31,105,108
2,54,94,16
2,50,94,0
2,55,105,4
2,52,105,0
2,54,102,0
2,50,102,0
2,38,106,16
2,31,74,88
2,31,98,80
2,43,78,92
2,47,102,12
2,50,108,4
2,38,106,32
2,31,105,108
2,54,94,16
2,50,94,0
2,55,98,4
2,52,98,0
2,54,102,0
2,50,102,0
2,38,106,16
2,31,74,88
2,31,98,80
2,43,78,92
2,47,105,12
2,50,105,4
2,38,106,32
2,31,105,108
2,54,94,16
2,50,94,0
2,55,105,4
2,52,105,0
2,54,102,0
2,50,102,0
2,38,106,16
2,31,74,88
2,31,98,80
2,43,78,92
2,47,105,12
2,50,105,4
2,38,106,32
2,31,105,108
2,54,94,16
2,50,94,0
2,55,105,4
2,52,105,0
2,54,102,0
2,50,102,0
2,38,106,16
2,31,74,88
2,31,98,80
2,43,78,92
2,47,105,12
2,50,105,4
3,69,100,1048
3,61,100,0
3,66,100,0
3,66,72,204
3,61,72,0
3,69,72,0
3,66,49,208
3,69,49,0
3,62,49,0
3,66,43,204
3,69,43,0
3,62,43,0
3,66,90,1404
3,69,90,0
3,62,90,0
3,59,90,0
3,69,100,332
3,61,100,0
3,66,100,0
3,66,72,204
3,61,72,0
3,69,72,0
3,66,49,208
3,69,49,0
3,62,49,0
3,66,43,204
3,69,43,0
3,62,43,0
3,66,85,1404
3,62,85,0
3,59,85,0
3,69,85,0
3,61,92,320
3,69,92,0
3,66,92,0
3,66,68,228
3,61,68,0
3,69,68,0
3,61,44,216
3,66,44,0
3,69,44,0
3,66,21,220
3,69,21,0
3,61,21,0
3,74,95,1232
3,62,95,0
3,73,93,156
3,61,93,0
3,69,46,156
3,74,46,0
3,73,78,144
3,69,82,0
3,66,74,0
3,69,68,232
3,66,68,0
3,73,68,0
3,69,45,220
3,73,45,0
3,66,45,0
3,69,21,232
3,66,21,0
3,73,21,0
3,66,99,1400
3,73,99,0
3,69,99,0
3,66,94,348
3,61,94,0
3,69,94,0
3,66,56,252
3,61,56,0
3,69,56,0
3,61,40,292
3,66,40,0
3,69,40,0
3,69,31,324
3,66,31,0
3,61,31,0
3,74,95,1284
3,62,95,0
3,73,94,152
3,61,94,0
3,73,82,348
3,69,82,0
3,66,82,0
3,73,50,220
3,69,50,0
3,66,50,0
3,73,36,236
3,69,36,0
3,66,36,0
3,66,23,260
3,73,23,0
3,71,91,1460
3,66,91,0
3,74,91,0
3,69,73,348
3,61,73,0
3,64,73,4
3,69,80,8
3,61,80,0
3,64,82,4
3,69,89,660
3,66,89,0
3,69,80,240
3,66,80,0
3,69,76,172
3,64,76,0
3,61,76,0
3,69,83,12
3,64,83,0
3,61,83,0
3,69,75,196
3,64,75,0
3,61,75,0
3,69,76,456
3,66,76,0
3,61,76,0
3,69,80,224
3,66,80,0
3,61,80,0
3,69,73,188
3,61,73,0
3,64,73,4
3,69,80,8
3,61,80,0
3,64,82,4
3,69,89,660
3,66,89,0
3,69,80,240
3,66,80,0
3,69,69,172
3,64,69,0
3,69,72,16
3,64,72,0
3,69,66,116
3,64,66,0
3,69,67,248
3,64,67,0
3,69,62,252
3,64,62,0
3,71,68,8
3,66,68,0
3,71,49,96
3,66,49,0
3,71,25,132
3,66,25,0
3,71,73,56
3,63,73,0
3,66,73,4
3,71,80,8
3,63,80,0
3,66,82,4
3,71,89,660
3,68,89,0
3,71,80,240
3,68,80,0
3,71,76,172
3,63,76,0
3,71,83,12
3,63,83,0
3,71,75,196
3,63,75,0
3,71,76,456
3,64,76,0
3,71,80,224
3,64,80,0
3,71,73,188
3,63,73,0
3,71,80,12
3,63,80,0
3,71,75,660
3,68,75,0
3,71,54,144
3,68,54,0
3,71,82,12
3,68,82,0
3,71,68,12
3,68,68,0
3,71,69,192
3,66,69,0
3,71,79,16
3,66,79,0
3,71,51,20
3,66,51,0
3,71,42,60
3,66,42,0
3,71,81,12
3,66,81,0
3,61,92,1068
3,69,92,0
3,66,92,0
3,66,68,228
3,61,68,0
3,69,68,0
3,61,44,216
3,66,44,0
3,69,44,0
3,66,21,220
3,69,21,0
3,61,21,0
3,74,95,1232
3,62,95,0
3,73,93,156
3,61,93,0
3,69,46,156
3,74,46,0
3,73,78,144
3,69,82,0
3,66,74,0
3,69,68,232
3,66,68,0
3,73,68,0
3,69,45,220
3,73,45,0
3,66,45,0
3,69,21,232
3,66,21,0
3,73,21,0
3,66,99,1400
3,73,99,0
3,69,99,0
3,66,94,348
3,61,94,0
3,69,94,0
3,66,56,252
3,61,56,0
3,69,56,0
3,61,40,292
3,66,40,0
3,69,40,0
3,69,31,324
3,66,31,0
3,61,31,0
3,74,95,1284
3,62,95,0
3,73,94,152
3,61,94,0
3,73,82,348
3,69,82,0
3,66,82,0
3,73,50,220
3,69,50,0
3,66,50,0
3,73,36,236
3,69,36,0
3,66,36,0
3,66,23,260
3,73,23,0
3,71,91,1460
3,66,91,0
3,74,91,0
3,69,73,348
3,61,73,0
3,64,73,4
3,69,80,8
3,61,80,0
3,64,82,4
3,69,89,660
3,66,89,0
3,69,80,240
3,66,80,0
3,69,76,172
3,64,76,0
3,61,76,0
3,69,83,12
3,64,83,0
3,61,83,0
3,69,75,196
3,64,75,0
3,61,75,0
3,69,76,456
3,66,76,0
3,61,76,0
3,69,80,224
3,66,80,0
3,61,80,0
3,69,73,188
3,61,73,0
3,64,73,4
3,69,80,8
3,61,80,0
3,64,82,4
3,69,89,660
3,66,89,0
3,69,80,240
3,66,80,0
3,69,69,172
3,64,69,0
3,69,72,16
3,64,72,0
3,69,66,116
3,64,66,0
3,69,67,248
3,64,67,0
3,69,62,252
3,64,62,0
3,71,68,8
3,66,68,0
3,71,49,96
3,66,49,0
3,71,25,132
3,66,25,0
3,71,73,56
3,63,73,0
3,66,73,4
3,71,80,8
3,63,80,0
3,66,82,4
3,71,89,660
3,68,89,0
3,71,80,240
3,68,80,0
3,71,76,172
3,63,76,0
3,71,83,12
3,63,83,0
3,71,75,196
3,63,75,0
3,71,76,456
3,64,76,0
3,71,80,224
3,64,80,0
3,71,73,188
3,63,73,0
3,71,80,12
3,63,80,0
3,71,75,660
3,68,75,0
3,71,54,144
3,68,54,0
3,71,82,12
3,68,82,0
3,71,68,12
3,68,68,0
3,71,69,192
3,66,69,0
3,71,79,16
3,66,79,0
3,71,51,20
3,66,51,0
3,71,42,60
3,66,42,0
3,71,81,12
3,66,81,0
3,71,42,124
3,66,42,0
3,71,81,12
3,66,81,0
3,70,96,384
3,70,42,16
3,69,88,4
3,61,92,108
3,69,92,0
3,66,92,0
3,66,68,228
3,61,68,0
3,69,68,0
3,61,44,216
3,66,44,0
3,69,44,0
3,66,21,216
3,69,21,0
3,61,21,0
3,74,95,1228
3,62,95,0
3,73,93,152
3,61,93,0
3,69,46,156
3,74,46,0
3,73,78,144
3,69,82,0
3,66,74,0
3,69,68,232
3,66,68,0
3,73,68,0
3,69,45,220
3,73,45,0
3,66,45,0
3,69,21,232
3,66,21,0
3,73,21,0
3,66,99,1396
3,73,99,0
3,69,99,0
3,66,94,344
3,61,94,0
3,69,94,0
3,66,56,248
3,61,56,0
3,69,56,0
3,61,40,288
3,66,40,0
3,69,40,0
3,69,31,324
3,66,31,0
3,61,31,0
3,74,95,1284
3,62,95,0
3,73,94,152
3,61,94,0
3,73,82,348
3,69,82,0
3,66,82,0
3,73,50,220
3,69,50,0
3,66,50,0
3,73,36,236
3,69,36,0
3,66,36,0
3,66,23,260
3,73,23,0
3,71,91,1460
3,66,91,0
3,74,91,0
3,69,73,348
3,61,73,0
3,64,73,4
3,69,80,4
3,61,80,0
3,64,82,4
3,69,89,660
3,66,89,0
3,69,75,240
3,66,75,0
3,69,89,12
3,66,89,0
3,69,76,104
3,64,76,0
3,61,76,0
3,69,83,8
3,64,83,0
3,61,83,0
3,69,75,192
3,64,75,0
3,61,75,0
3,69,76,456
3,66,76,0
3,61,76,0
3,69,80,224
3,66,80,0
3,61,80,0
3,69,73,188
3,61,73,0
3,64,73,4
3,69,80,4
3,61,80,0
3,64,82,4
3,69,89,660
3,66,89,0
3,69,80,240
3,66,80,0
3,69,69,172
3,64,69,0
3,69,72,12
3,64,72,0
3,69,66,112
3,64,66,0
3,69,67,248
3,64,67,0
3,69,62,252
3,64,62,0
3,71,68,8
3,66,68,0
3,71,49,96
3,66,49,0
3,71,25,132
3,66,25,0
3,71,73,56
3,63,73,0
3,66,73,4
3,71,80,4
3,63,80,0
3,66,82,4
3,71,89,660
