track,note,velocity,time
3,55,100,1932
3,43,100,0
3,62,100,221
3,67,100,26
3,62,100,233
3,43,100,25
3,55,100,0
3,62,100,221
3,67,100,26
3,62,100,233
3,43,100,25
3,55,100,0
3,62,100,221
3,67,100,26
3,62,100,233
3,43,100,25
3,55,100,0
3,62,100,221
3,67,100,26
3,62,100,233
3,43,100,25
3,55,100,0
3,62,100,221
3,50,100,0
3,67,100,26
3,55,100,0
3,62,100,233
3,50,100,0
3,43,100,25
3,55,100,0
3,62,100,221
3,50,100,0
3,67,100,26
3,55,100,0
3,62,100,233
3,50,100,0
3,43,100,25
3,55,100,0
3,62,100,221
3,50,100,0
3,67,100,26
3,55,100,0
3,62,100,233
3,50,100,0
3,43,100,25
3,55,100,0
3,62,100,221
3,50,100,0
3,67,100,26
3,55,100,0
3,62,100,233
3,50,100,0
3,40,100,25
3,55,100,0
3,62,100,221
3,50,100,0
3,67,100,14
3,55,100,0
3,62,100,233
3,50,100,12
3,36,100,13
3,55,100,0
3,62,100,221
3,50,100,0
3,67,100,14
3,55,100,0
3,62,100,233
3,50,100,12
3,43,100,13
3,55,100,0
3,62,100,221
3,50,100,0
3,67,100,14
3,55,100,0
3,62,100,233
3,50,100,12
3,43,100,13
3,55,100,0
3,62,100,221
3,50,100,0
3,67,100,14
3,55,100,0
3,62,100,233
3,50,100,12
3,40,100,13
3,55,100,0
3,62,100,221
3,50,100,0
3,67,100,26
3,55,100,0
3,62,100,233
3,50,100,0
3,36,100,25
3,55,100,0
3,62,100,221
3,50,100,0
3,67,100,26
3,55,100,0
3,62,100,233
3,50,100,0
3,43,100,25
3,55,100,0
3,62,100,221
3,50,100,0
3,67,100,26
3,55,100,0
3,62,100,233
3,50,100,0
3,43,100,25
3,55,100,0
3,62,100,221
3,50,100,0
3,67,100,26
3,55,100,0
3,62,100,233
3,50,100,0
3,40,100,25
3,55,100,0
3,62,100,221
3,50,100,0
3,67,100,26
3,55,100,0
3,62,100,233
3,50,100,0
3,36,100,25
3,55,100,0
3,62,100,221
3,50,100,0
3,67,100,26
3,55,100,0
3,62,100,233
3,50,100,0
3,43,100,25
3,55,100,0
3,62,100,221
3,50,100,0
3,67,100,26
3,55,100,0
3,62,100,233
3,50,100,0
3,43,100,25
3,55,100,0
3,62,100,221
3,50,100,0
3,67,100,26
3,55,100,0
3,62,100,233
3,50,100,0
3,40,100,25
3,55,100,0
3,62,100,221
3,50,100,0
3,67,100,26
3,55,100,0
3,62,100,233
3,50,100,0
3,36,100,25
3,55,100,0
3,62,100,221
3,50,100,0
3,67,100,26
3,55,100,0
3,62,100,233
3,50,100,0
3,43,100,25
3,55,100,0
3,62,100,221
3,50,100,0
3,67,100,26
3,55,100,0
3,62,100,233
3,50,100,0
3,43,100,25
3,55,100,0
3,62,100,221
3,50,100,0
3,67,100,26
3,55,100,0
3,62,100,233
3,50,100,0
3,40,100,25
3,55,100,0
3,62,100,221
3,50,100,0
3,67,100,26
3,55,100,0
3,62,100,233
3,50,100,0
3,36,100,25
3,55,100,0
3,62,100,221
3,50,100,0
3,67,100,26
3,55,100,0
3,62,100,233
3,50,100,0
3,43,100,25
3,55,100,0
3,62,100,221
3,50,100,0
3,67,100,26
3,55,100,0
3,62,100,233
3,50,100,0
3,43,100,25
3,55,100,0
3,62,100,221
3,50,100,0
3,67,100,26
3,55,100,0
3,62,100,233
3,50,100,0
3,40,100,25
3,55,100,0
3,62,100,221
3,50,100,0
3,67,100,26
3,55,100,0
3,62,100,233
3,50,100,0
3,36,100,25
3,55,100,0
3,62,100,221
3,50,100,0
3,67,100,26
3,55,100,0
3,62,100,233
3,50,100,0
3,43,100,25
3,55,100,0
3,62,100,221
3,50,100,0
3,67,100,26
3,55,100,0
3,62,100,233
3,50,100,0
3,43,100,25
3,55,100,0
3,62,100,221
3,50,100,0
3,67,100,26
3,55,100,0
3,62,100,233
3,50,100,0
3,40,100,25
3,55,100,0
3,62,100,221
3,50,100,0
3,67,100,26
3,55,100,0
3,62,100,233
3,50,100,0
3,36,100,25
3,55,100,0
3,62,100,221
3,50,100,0
3,67,100,26
3,55,100,0
3,62,100,233
3,50,100,0
3,43,100,25
3,55,100,0
3,62,100,221
3,50,100,0
3,67,100,26
3,55,100,0
3,62,100,233
3,50,100,0
3,43,100,25
3,55,100,0
3,62,100,221
3,50,100,0
3,67,100,26
3,55,100,0
3,62,100,233
3,50,100,0
3,40,100,25
3,55,100,0
3,62,100,221
3,50,100,0
3,67,100,26
3,55,100,0
3,62,100,233
3,50,100,0
3,36,100,25
3,55,100,0
3,62,100,221
3,50,100,0
3,67,100,26
3,55,100,0
3,62,100,233
3,50,100,0
3,43,100,25
3,55,100,0
3,62,100,221
3,50,100,0
3,67,100,26
3,55,100,0
3,62,100,233
3,50,100,0
3,43,100,25
3,55,100,0
3,62,100,221
3,50,100,0
3,67,100,26
3,55,100,0
3,62,100,233
3,50,100,0
4,55,64,1932
4,62,64,221
4,67,64,26
4,79,64,0
4,62,64,233
4,55,64,25
4,62,64,221
4,67,64,26
4,79,64,0
4,62,64,233
4,55,64,25
4,62,64,221
4,67,64,26
4,79,64,0
4,62,64,233
4,55,64,25
4,62,64,221
4,67,64,26
4,79,64,0
4,62,64,233
4,55,64,25
4,62,64,221
4,67,64,26
4,79,64,0
4,62,64,233
4,55,64,25
4,62,64,221
4,67,64,26
4,79,64,0
4,62,64,233
4,55,64,25
4,62,64,221
4,67,64,26
4,79,64,0
4,62,64,233
4,55,64,25
4,62,64,221
4,67,64,26
4,79,64,0
4,62,64,233
4,55,64,25
4,62,64,221
4,67,64,26
4,79,64,0
4,62,64,233
4,55,64,25
4,62,64,221
4,67,64,26
4,79,64,0
4,62,64,233
4,55,64,25
4,62,64,221
4,67,64,26
4,79,64,0
4,62,64,233
4,55,64,25
4,62,64,221
4,67,64,26
4,79,64,0
4,62,64,233
4,55,64,25
4,62,64,221
4,67,64,26
4,79,64,0
4,62,64,233
4,55,64,25
4,62,64,221
4,67,64,26
4,79,64,0
4,62,64,233
4,55,64,25
4,62,64,221
4,67,64,26
4,79,64,0
4,62,64,233
4,55,64,25
4,62,64,221
4,67,64,26
4,79,64,0
4,62,64,233
4,55,64,25
4,62,64,221
4,67,64,26
4,79,64,0
4,62,64,233
4,55,64,25
4,62,64,221
4,67,64,26
4,79,64,0
4,62,64,233
4,55,64,25
4,62,64,221
4,67,64,26
4,79,64,0
4,62,64,233
4,55,64,25
4,62,64,221
4,67,64,26
4,79,64,0
4,62,64,233
4,55,64,25
4,62,64,221
4,67,64,26
4,79,64,0
4,62,64,233
4,55,64,25
4,62,64,221
4,67,64,26
4,79,64,0
4,62,64,233
4,55,64,25
4,62,64,221
4,67,64,26
4,79,64,0
4,62,64,233
4,55,64,25
4,62,64,221
4,67,64,26
4,79,64,0
4,62,64,233
4,55,64,25
4,62,64,221
4,67,64,26
4,79,64,0
4,62,64,233
4,55,64,25
4,62,64,221
4,67,64,26
4,79,64,0
4,62,64,233
4,55,64,25
4,62,64,221
4,67,64,26
4,79,64,0
4,62,64,233
4,55,64,25
4,62,64,221
4,67,64,26
4,79,64,0
4,62,64,233
4,55,64,25
4,62,64,221
4,67,64,26
4,79,64,0
4,62,64,233
4,55,64,25
4,62,64,221
4,67,64,26
4,79,64,0
4,62,64,233
4,55,64,25
4,62,64,221
4,67,64,26
4,79,64,0
4,62,64,233
4,55,64,25
4,62,64,221
4,67,64,26
4,79,64,0
4,62,64,233
4,55,64,25
4,62,64,221
4,67,64,26
4,79,64,0
4,62,64,233
4,55,64,25
4,62,64,221
4,67,64,26
4,79,64,0
4,62,64,233
4,55,64,25
4,62,64,221
4,67,64,26
4,79,64,0
4,62,64,233
4,55,64,25
4,62,64,221
4,67,64,26
4,79,64,0
4,62,64,233
4,55,64,25
4,62,64,221
4,67,64,26
4,79,64,0
4,62,64,233
4,55,64,25
4,62,64,221
4,67,64,26
4,79,64,0
4,62,64,233
4,55,64,25
4,62,64,221
4,67,64,26
4,79,64,0
4,62,64,233
4,55,64,25
4,62,64,221
4,67,64,26
4,79,64,0
4,62,64,233
4,47,90,15
4,50,91,5
4,55,86,5
4,59,92,5
4,59,74,3
4,55,76,0
4,50,75,10
4,43,82,0
4,47,83,3
4,50,85,5
4,55,80,3
4,59,87,5
4,55,73,12
4,43,84,0
4,48,89,5
4,52,89,2
4,55,88,5
4,60,88,5
4,60,68,5
4,55,72,3
4,52,69,2
4,48,68,8
4,43,76,5
4,48,82,0
4,52,74,3
4,55,75,5
4,60,80,5
4,60,72,10
4,55,70,7
4,52,69,0
4,48,68,7
4,43,67,5
4,43,76,5
4,48,78,3
4,52,77,5
4,55,76,2
4,60,75,8
4,60,73,0
4,55,69,5
4,52,73,2
4,48,74,5
4,43,72,8
4,43,81,0
4,48,76,0
4,52,75,0
4,55,80,5
4,60,75,7
4,60,72,3
4,55,72,5
4,52,70,5
4,48,64,5
4,43,69,7
4,43,94,8
4,47,87,7
4,50,87,8
4,55,79,7
4,59,88,5
4,43,92,5
4,47,91,2
4,50,90,3
4,55,83,5
4,59,87,7
4,55,77,12
4,43,83,0
4,47,86,0
4,50,89,0
4,55,80,8
4,59,87,5
4,59,71,3
4,55,69,10
4,50,71,5
4,47,71,10
4,43,75,3
4,47,79,5
4,50,80,0
4,55,78,8
4,59,80,7
4,59,72,0
4,55,70,5
4,50,70,5
4,47,72,10
4,47,80,5
4,50,77,0
4,55,76,7
4,59,78,5
4,59,72,0
4,55,68,5
4,50,66,2
4,47,72,10
4,47,74,2
4,50,77,5
4,55,75,5
4,59,80,7
4,59,76,0
4,55,76,5
4,50,82,5
4,47,73,8
4,47,90,2
4,40,90,0
4,50,91,2
4,55,86,5
4,59,92,5
4,59,74,3
4,55,76,0
4,50,75,10
4,43,82,0
4,47,83,3
4,40,83,0
4,50,85,5
4,55,80,3
4,59,87,5
4,55,73,12
4,43,84,0
4,48,89,5
4,52,89,2
4,55,88,5
4,60,88,5
4,60,68,5
4,55,72,3
4,52,69,2
4,48,68,8
4,43,76,5
4,48,82,0
4,52,74,3
4,55,75,5
4,60,80,5
4,60,72,10
4,55,70,7
4,52,69,0
4,48,68,7
4,43,67,5
4,43,76,5
4,48,78,3
4,52,77,5
4,55,76,2
4,60,75,8
4,60,73,0
4,55,69,5
4,52,73,2
4,48,74,5
4,43,72,8
4,43,81,0
4,48,76,0
4,52,75,0
4,55,80,5
4,60,75,7
4,60,72,3
4,55,72,5
4,52,70,5
4,48,64,5
4,43,69,7
4,43,94,8
4,47,87,7
4,50,87,8
4,55,79,7
4,59,88,5
4,43,92,5
4,47,91,2
4,50,90,3
4,55,83,5
4,59,87,7
4,55,77,12
4,43,83,0
4,47,86,0
4,50,89,0
4,55,80,8
4,59,87,5
4,59,71,3
4,55,69,10
4,50,71,5
4,47,71,10
4,43,75,3
4,47,79,5
4,50,80,0
4,55,78,8
4,59,80,7
4,59,72,0
4,55,70,5
4,50,70,5
4,47,72,10
4,47,80,5
4,50,77,0
4,55,76,7
4,59,78,5
4,59,72,0
4,55,68,5
4,50,66,2
4,47,72,10
4,47,74,2
4,50,77,5
4,55,75,5
4,59,80,7
4,59,76,0
4,55,76,5
4,50,82,5
4,47,73,8
4,47,90,2
4,40,90,0
4,50,91,2
4,55,86,5
4,59,92,5
4,59,74,3
4,55,76,0
4,50,75,10
4,43,82,0
4,47,83,3
4,40,83,0
4,50,85,5
4,55,80,3
4,59,87,5
4,55,73,12
4,43,84,0
4,48,89,5
4,52,89,2
4,55,88,5
4,60,88,5
4,60,68,5
4,55,72,3
4,52,69,2
4,48,68,8
4,43,76,5
4,48,82,0
4,52,74,3
4,55,75,5
4,60,80,5
4,60,72,10
4,55,70,7
4,52,69,0
4,48,68,7
4,43,67,5
4,43,76,5
4,48,78,3
4,52,77,5
4,55,76,2
4,60,75,8
4,60,73,0
4,55,69,5
4,52,73,2
4,48,74,5
4,43,72,8
4,43,81,0
4,48,76,0
4,52,75,0
4,55,80,5
4,60,75,7
4,60,72,3
4,55,72,5
4,52,70,5
4,48,64,5
4,43,69,7
4,43,94,8
4,47,87,7
4,50,87,8
4,55,79,7
4,59,88,5
4,43,92,5
4,47,91,2
4,50,90,3
4,55,83,5
4,59,87,7
4,55,77,12
4,43,83,0
4,47,86,0
4,50,89,0
4,55,80,8
4,59,87,5
4,59,71,3
4,55,69,10
4,50,71,5
4,47,71,10
4,43,75,3
4,47,79,5
4,50,80,0
4,55,78,8
4,59,80,7
4,59,72,0
4,55,70,5
4,50,70,5
4,47,72,10
4,47,80,5
4,50,77,0
4,55,76,7
4,59,78,5
4,59,72,0
4,55,68,5
4,50,66,2
4,47,72,10
4,47,74,2
4,50,77,5
4,55,75,5
4,59,80,7
4,59,76,0
4,55,76,5
4,50,82,5
4,47,73,8
4,47,90,2
4,40,90,0
4,50,91,2
4,55,86,5
4,59,92,5
4,59,74,3
4,55,76,0
4,50,75,10
4,43,82,0
4,47,83,3
4,40,83,0
4,50,85,5
4,55,80,3
4,59,87,5
4,55,73,12
4,43,84,0
4,48,89,5
4,52,89,2
4,55,88,5
4,60,88,5
4,60,68,5
4,55,72,3
4,52,69,2
4,48,68,8
4,43,76,5
4,48,82,0
4,52,74,3
4,55,75,5
4,60,80,5
4,60,72,10
4,55,70,7
4,52,69,0
4,48,68,7
4,43,67,5
4,43,76,5
4,48,78,3
4,52,77,5
4,55,76,2
4,60,75,8
4,60,73,0
4,55,69,5
4,52,73,2
4,48,74,5
4,43,72,8
4,43,81,0
4,48,76,0
4,52,75,0
4,55,80,5
4,60,75,7
4,60,72,3
4,55,72,5
4,52,70,5
4,48,64,5
4,43,69,7
4,43,94,8
4,47,87,7
4,50,87,8
4,55,79,7
4,59,88,5
4,43,92,5
4,47,91,2
4,50,90,3
4,55,83,5
4,59,87,7
4,55,77,12
4,43,83,0
4,47,86,0
4,50,89,0
4,55,80,8
4,59,87,5
4,59,71,3
4,55,69,10
4,50,71,5
4,47,71,10
4,43,75,3
4,47,79,5
4,50,80,0
4,55,78,8
4,59,80,7
4,59,72,0
4,55,70,5
4,50,70,5
4,47,72,10
4,47,80,5
4,50,77,0
4,55,76,7
4,59,78,5
4,59,72,0
4,55,68,5
4,50,66,2
4,47,72,10
4,47,74,2
4,50,77,5
4,55,75,5
4,59,80,7
4,59,76,0
4,55,76,5
4,50,82,5
4,47,73,8
4,47,90,2
4,40,90,0
4,50,91,2
4,55,86,5
4,59,92,5
4,59,74,3
4,55,76,0
4,50,75,10
4,43,82,0
4,47,83,3
4,40,83,0
4,50,85,5
4,55,80,3
4,59,87,5
4,55,73,12
4,43,84,0
4,48,89,5
4,52,89,2
4,55,88,5
4,60,88,5
4,60,68,5
4,55,72,3
4,52,69,2
4,48,68,8
4,43,76,5
4,48,82,0
4,52,74,3
4,55,75,5
4,60,80,5
4,60,72,10
4,55,70,7
4,52,69,0
4,48,68,7
4,43,67,5
4,43,76,5
4,48,78,3
4,52,77,5
4,55,76,2
4,60,75,8
4,60,73,0
4,55,69,5
4,52,73,2
4,48,74,5
4,43,72,8
4,43,81,0
4,48,76,0
4,52,75,0
4,55,80,5
4,60,75,7
4,60,72,3
4,55,72,5
4,52,70,5
4,48,64,5
4,43,69,7
4,43,94,8
4,47,87,7
4,50,87,8
4,55,79,7
4,59,88,5
4,43,92,5
4,47,91,2
4,50,90,3
4,55,83,5
4,59,87,7
4,55,77,12
4,43,83,0
4,47,86,0
4,50,89,0
4,55,80,8
4,59,87,5
4,59,71,3
4,55,69,10
4,50,71,5
4,47,71,10
4,43,75,3
4,47,79,5
4,50,80,0
4,55,78,8
4,59,80,7
4,59,72,0
4,55,70,5
4,50,70,5
4,47,72,10
4,47,80,5
4,50,77,0
4,55,76,7
4,59,78,5
4,59,72,0
4,55,68,5
4,50,66,2
4,47,72,10
4,47,74,2
4,50,77,5
4,55,75,5
4,59,80,7
4,59,76,0
4,55,76,5
4,50,82,5
