track,note,velocity,time
1,64,44,870
1,69,48,30
1,72,53,30
1,81,61,30
1,81,0,120
1,64,0,0
1,69,0,0
1,72,0,0
1,69,48,300
1,69,0,55
1,69,57,5
1,69,0,120
1,72,54,0
1,72,0,120
1,71,57,0
1,71,0,120
1,69,54,0
1,69,0,120
1,71,45,150
1,76,49,30
1,80,53,30
1,88,59,30
1,88,0,120
1,71,0,0
1,76,0,0
1,80,0,0
1,64,48,300
1,64,0,55
1,64,57,5
1,64,0,120
1,68,54,0
1,68,0,120
1,66,57,0
1,66,0,120
1,64,54,0
1,64,0,120
1,64,44,150
1,69,47,30
1,72,51,30
1,81,59,30
1,81,0,120
1,64,0,0
1,69,0,0
1,72,0,0
1,69,48,300
1,69,0,55
1,69,57,5
1,69,0,120
1,72,54,0
1,72,0,120
1,71,57,0
1,71,0,120
1,69,54,0
1,69,0,120
1,71,48,150
1,80,51,30
1,88,54,30
1,76,63,30
1,88,0,120
1,71,0,0
1,80,0,0
1,76,0,360
1,64,62,0
1,64,0,120
1,64,36,510
1,69,40,30
1,72,42,30
1,81,45,30
1,81,0,120
1,64,0,0
1,69,0,0
1,72,0,0
1,69,36,300
1,69,0,55
1,69,43,5
1,69,0,120
1,72,40,0
1,72,0,120
1,71,43,0
1,71,0,120
1,69,40,0
1,69,0,120
1,71,36,150
1,76,39,30
1,80,41,30
1,88,44,30
1,88,0,120
1,71,0,0
1,76,0,0
1,80,0,0
1,64,36,300
1,64,0,55
1,64,43,5
1,64,0,120
1,68,40,0
1,68,0,120
1,66,43,0
1,66,0,120
1,64,40,0
1,64,0,120
1,64,36,150
1,69,39,30
1,72,41,30
1,81,44,30
1,81,0,120
1,64,0,0
1,69,0,0
1,72,0,0
1,69,36,300
1,69,0,55
1,69,43,5
1,69,0,120
1,72,40,0
1,72,0,120
1,71,43,0
1,71,0,120
1,69,40,0
1,69,0,120
1,71,36,150
1,80,41,30
1,88,43,30
1,76,53,30
1,88,0,120
1,71,0,0
1,80,0,0
1,76,0,360
1,64,53,0
1,64,0,120
1,76,46,510
1,81,50,30
1,85,53,30
1,93,61,30
1,93,0,120
1,76,0,0
1,81,0,0
1,85,0,0
1,81,48,300
1,81,0,55
1,81,57,5
1,81,0,120
1,82,54,0
1,82,0,120
1,81,57,0
1,81,0,120
1,79,54,0
1,79,0,120
1,69,45,150
1,77,49,30
1,81,52,30
1,89,61,30
1,89,0,120
1,69,0,0
1,77,0,0
1,81,0,0
1,74,48,300
1,74,0,55
1,74,57,5
1,74,0,120
1,77,54,0
1,77,0,120
1,76,57,0
1,76,0,120
1,74,54,0
1,74,0,120
1,74,45,150
1,79,48,30
1,83,52,30
1,91,61,30
1,91,0,120
1,74,0,0
1,79,0,0
1,83,0,0
1,79,48,300
1,79,0,55
1,79,57,5
1,79,0,120
1,81,54,0
1,81,0,120
1,79,57,0
1,79,0,120
1,77,54,0
1,77,0,120
1,67,45,150
1,76,48,30
1,79,52,30
1,88,61,30
1,88,0,120
1,67,0,0
1,76,0,0
1,79,0,0
1,72,48,300
1,72,0,55
1,72,51,5
1,72,0,120
1,76,48,0
1,76,0,120
1,74,50,0
1,74,0,120
1,72,47,0
1,72,0,120
1,71,39,150
1,77,42,30
1,83,45,30
1,89,53,30
1,89,0,120
1,71,0,0
1,77,0,0
1,83,0,0
1,71,40,300
1,71,0,55
1,71,47,5
1,71,0,120
1,74,45,0
1,74,0,120
1,72,47,0
1,72,0,120
1,71,44,0
1,71,0,120
1,69,36,150
1,76,39,30
1,81,42,30
1,88,48,30
1,88,0,120
1,69,0,0
1,76,0,0
1,81,0,0
1,69,40,300
1,69,0,55
1,69,48,5
1,69,0,120
1,72,45,0
1,72,0,120
1,71,48,0
1,71,0,120
1,69,45,0
1,69,0,120
1,65,52,0
1,75,40,360
1,75,0,120
1,65,0,0
1,64,46,0
1,76,40,120
1,76,0,120
1,74,46,0
1,74,0,120
1,71,40,0
1,71,0,120
1,64,0,0
1,64,45,0
1,69,45,0
1,69,0,480
1,64,0,0
1,81,40,0
1,72,40,0
1,72,0,120
1,81,0,0
1,76,36,510
1,81,40,30
1,85,42,30
1,93,45,30
1,93,0,120
1,76,0,0
1,81,0,0
1,85,0,0
1,81,36,300
1,81,0,55
1,81,43,5
1,81,0,120
1,82,40,0
1,82,0,120
1,81,43,0
1,81,0,120
1,79,40,0
1,79,0,120
1,69,36,150
1,77,40,30
1,81,42,30
1,89,45,30
1,89,0,120
1,69,0,0
1,77,0,0
1,81,0,0
1,74,36,300
1,74,0,55
1,74,43,5
1,74,0,120
1,77,40,0
1,77,0,120
1,76,43,0
1,76,0,120
1,74,40,0
1,74,0,120
1,74,36,150
1,79,40,30
1,83,42,30
1,91,45,30
1,91,0,120
1,74,0,0
1,79,0,0
1,83,0,0
1,79,36,300
1,79,0,55
1,79,43,5
1,79,0,120
1,81,40,0
1,81,0,120
1,79,43,0
1,79,0,120
1,77,40,0
1,77,0,120
1,67,36,150
1,76,40,30
1,79,42,30
1,88,45,30
1,88,0,120
1,67,0,0
1,76,0,0
1,79,0,0
1,72,36,300
1,72,0,55
1,72,46,5
1,72,0,120
1,76,44,0
1,76,0,120
1,74,46,0
1,74,0,120
1,72,44,0
1,72,0,120
1,70,40,180
1,77,44,30
1,89,50,30
1,89,0,120
1,77,0,0
1,70,0,0
1,70,39,300
1,70,0,55
1,70,46,5
1,70,0,120
1,74,44,0
1,74,0,120
1,72,46,0
1,72,0,120
1,70,44,0
1,70,0,120
1,69,40,180
1,76,44,30
1,88,50,30
1,88,0,120
1,76,0,0
1,69,0,0
1,69,37,300
1,69,0,55
1,69,45,5
1,69,0,120
1,72,42,0
1,72,0,120
1,71,45,0
1,71,0,120
1,69,42,0
1,69,0,120
1,65,45,0
1,75,37,360
1,75,0,120
1,65,0,0
1,64,44,0
1,76,37,120
1,76,0,120
1,74,44,0
1,74,0,120
1,71,37,0
1,71,0,120
1,64,0,0
1,64,43,0
1,69,43,0
1,69,0,480
1,64,0,0
1,81,37,0
1,72,37,0
1,72,0,120
1,81,0,0
1,72,41,280
1,72,0,40
1,81,45,0
1,81,0,40
1,88,58,0
1,88,0,90
1,84,49,70
1,84,0,120
1,81,49,40
1,81,0,120
1,76,52,40
1,76,0,120
1,72,48,40
1,72,0,120
1,69,48,40
1,69,0,80
1,68,41,0
1,68,0,40
1,76,45,0
1,76,0,40
1,83,61,0
1,83,0,90
1,80,54,70
1,80,0,120
1,76,53,40
1,76,0,120
1,71,52,40
1,71,0,120
1,68,45,40
1,68,0,120
1,64,45,40
1,64,0,80
1,72,41,0
1,72,0,40
1,81,45,0
1,81,0,40
1,88,58,0
1,88,0,90
1,84,49,70
1,84,0,120
1,81,49,40
1,81,0,120
1,76,52,40
1,76,0,120
1,72,48,40
1,72,0,120
1,69,48,40
1,69,0,120
1,68,49,200
1,76,49,0
1,76,0,120
1,68,0,0
1,71,46,40
1,80,46,0
1,80,0,120
1,71,0,0
1,88,44,40
1,76,44,0
1,76,0,120
1,88,0,0
1,72,32,280
1,72,0,40
1,81,36,0
1,81,0,40
1,88,46,0
1,88,0,90
1,84,39,70
1,84,0,120
1,81,39,40
1,81,0,120
1,76,41,40
1,76,0,120
1,72,38,40
1,72,0,120
1,69,38,40
1,69,0,80
1,68,32,0
1,68,0,40
1,76,36,0
1,76,0,40
1,83,48,0
1,83,0,90
1,80,43,70
1,80,0,120
1,76,42,40
1,76,0,120
1,71,41,40
1,71,0,120
1,68,36,40
1,68,0,120
1,64,36,40
1,64,0,80
1,72,32,0
1,72,0,40
1,81,36,0
1,81,0,40
1,88,46,0
1,88,0,90
1,84,39,70
1,84,0,120
1,81,39,40
1,81,0,120
1,76,41,40
1,76,0,120
1,72,38,40
1,72,0,120
1,69,38,40
1,69,0,120
1,68,39,200
1,76,39,0
1,76,0,120
1,68,0,0
1,71,36,40
1,80,36,0
1,80,0,120
1,71,0,0
1,88,35,40
1,76,35,0
1,76,0,120
1,88,0,0
1,81,41,300
1,85,45,30
1,93,58,30
1,93,0,90
1,85,0,0
1,81,0,0
1,88,49,70
1,88,0,120
1,85,49,40
1,85,0,120
1,81,52,40
1,81,0,120
1,76,48,40
1,76,0,120
1,73,48,40
1,73,0,120
1,69,45,200
1,74,54,0
1,74,0,120
1,69,0,0
1,74,45,40
1,77,53,0
1,77,0,120
1,74,0,0
1,77,44,40
1,81,52,0
1,81,0,120
1,77,0,0
1,81,40,40
1,86,48,0
1,86,0,120
1,81,0,0
1,86,41,40
1,89,49,0
1,89,0,120
1,86,0,0
1,79,47,184
1,83,50,48
1,91,58,48
1,91,0,90
1,83,0,0
1,79,0,0
1,86,49,70
1,86,0,120
1,83,49,40
1,83,0,120
1,79,52,40
1,79,0,120
1,74,48,40
1,74,0,120
1,71,48,40
1,71,0,120
1,67,45,200
1,72,54,0
1,72,0,120
1,67,0,0
1,72,45,40
1,76,53,0
1,76,0,120
1,72,0,0
1,76,44,40
1,79,52,0
1,79,0,120
1,76,0,0
1,79,40,40
1,84,48,0
1,84,0,120
1,79,0,0
1,84,41,40
1,88,49,0
1,88,0,120
1,84,0,0
1,83,39,40
1,89,46,0
1,89,0,90
1,83,0,0
1,80,33,70
1,86,39,0
1,86,0,120
1,80,0,0
1,77,33,40
1,83,39,0
1,83,0,120
1,77,0,0
1,74,35,40
1,80,41,0
1,80,0,120
1,74,0,0
1,71,32,40
1,77,38,0
1,77,0,120
1,71,0,0
1,74,38,40
1,74,0,80
1,76,32,0
1,76,0,40
1,81,36,0
1,81,0,40
1,88,48,0
1,88,0,90
1,84,43,70
1,84,0,120
1,81,42,40
1,81,0,120
1,76,41,40
1,76,0,120
1,72,38,40
1,72,0,120
1,69,39,40
1,69,0,120
1,63,33,200
1,71,39,0
1,71,0,120
1,63,0,0
1,75,36,40
1,69,36,0
1,69,0,120
1,75,0,0
1,76,39,200
1,68,33,0
1,68,0,120
1,76,0,0
1,80,36,40
1,71,30,0
1,71,0,120
1,80,0,0
1,81,39,200
1,72,33,0
1,72,0,120
1,81,0,0
1,76,30,40
1,84,36,0
1,84,0,120
1,76,0,0
1,81,38,40
1,93,45,0
1,93,0,120
1,81,0,0
1,46,54,780
1,45,58,60
1,46,0,10
1,47,48,110
1,45,0,10
1,48,51,110
1,47,0,10
1,50,47,110
1,48,0,10
1,50,0,110
1,53,52,420
1,52,56,60
1,53,0,10
1,50,48,110
1,52,0,10
1,48,51,110
1,50,0,10
1,47,47,110
1,48,0,10
1,47,0,110
1,46,48,420
1,45,50,60
1,46,0,10
1,47,41,110
1,45,0,10
1,48,44,110
1,47,0,10
1,50,40,110
1,48,0,10
1,50,0,110
1,53,40,420
1,52,36,60
1,53,0,10
1,52,0,170
1,58,53,720
1,57,56,60
1,58,0,10
1,59,48,110
1,57,0,10
1,60,51,110
1,59,0,10
1,62,47,110
1,60,0,10
1,62,0,110
1,65,50,420
1,64,54,60
1,65,0,10
1,62,48,110
1,64,0,10
1,60,51,110
1,62,0,10
1,59,47,110
1,60,0,10
1,59,0,110
1,58,48,420
1,57,53,60
1,58,0,10
1,59,41,110
1,57,0,10
1,60,44,110
1,59,0,10
1,62,40,110
1,60,0,10
1,62,0,110
1,65,40,420
1,65,0,60
1,64,36,0
1,64,0,180
1,70,50,720
1,69,54,60
1,70,0,10
1,67,48,110
1,69,0,10
1,65,51,110
1,67,0,10
1,64,47,110
1,65,0,10
1,64,0,110
1,63,47,420
1,62,54,60
1,63,0,10
1,64,48,110
1,62,0,10
1,65,51,110
1,64,0,10
1,62,47,110
1,65,0,10
1,62,0,110
1,68,51,420
1,67,54,60
1,68,0,10
1,65,45,110
1,67,0,10
1,64,48,110
1,65,0,10
1,62,44,110
1,64,0,10
1,62,0,110
1,61,47,420
1,60,52,60
1,61,0,10
1,62,48,110
1,60,0,10
1,64,51,110
1,62,0,10
1,60,47,110
1,64,0,10
1,60,0,110
1,67,48,420
1,65,52,60
1,67,0,10
1,62,48,110
1,65,0,10
1,60,51,110
1,62,0,10
1,59,47,110
1,60,0,10
1,59,0,110
1,65,51,420
1,64,54,60
1,65,0,10
1,60,48,110
1,64,0,10
1,59,51,110
1,60,0,10
1,57,47,110
1,59,0,10
1,57,0,110
1,60,47,420
1,59,51,60
1,60,0,10
1,65,41,110
1,59,0,10
1,64,44,110
1,65,0,10
1,56,40,110
1,64,0,10
1,56,0,110
1,50,41,240
1,53,41,0
1,53,0,60
1,50,0,0
1,48,41,180
1,52,41,0
1,52,0,60
1,48,0,0
1,61,43,900
1,52,36,0
1,55,36,0
1,55,0,480
1,52,0,0
1,61,0,0
1,65,43,480
1,53,36,0
1,57,36,0
1,57,0,480
1,53,0,0
1,65,0,0
1,59,43,480
1,50,36,0
1,53,36,0
1,53,0,480
1,50,0,0
1,59,0,0
1,64,43,480
1,52,36,0
1,55,36,0
1,55,0,480
1,52,0,0
1,64,0,0
1,59,43,480
1,50,36,0
1,56,36,0
1,56,0,480
1,50,0,0
1,59,0,0
1,60,43,480
1,52,36,0
1,57,36,0
1,57,0,480
1,52,0,0
1,60,0,0
1,62,43,0
1,53,36,0
1,57,36,0
1,62,0,240
1,63,43,0
1,63,0,240
1,57,0,0
1,53,0,0
1,64,43,0
1,52,36,0
1,56,36,0
1,56,0,240
1,52,0,0
1,64,0,0
1,62,36,720
1,53,30,0
1,57,30,0
1,57,0,240
1,53,0,0
1,62,0,0
1,52,30,240
1,57,30,0
1,60,36,0
1,60,0,240
1,57,0,0
1,52,0,0
1,50,26,240
1,53,26,0
1,57,32,0
1,57,0,240
1,53,0,0
1,50,0,0
1,48,24,240
1,52,24,0
1,57,29,0
1,57,0,240
1,52,0,0
1,48,0,0
1,50,20,240
1,53,25,0
1,53,0,240
1,50,0,0
1,48,15,240
1,52,15,0
1,57,18,0
1,57,0,240
1,52,0,0
1,48,0,0
1,69,70,720
1,57,61,0
1,57,0,120
1,69,0,0
1,63,43,0
1,66,52,0
1,66,0,60
1,63,0,0
1,57,47,180
1,69,54,0
1,69,0,120
1,57,0,0
1,69,66,0
1,57,58,0
1,57,0,120
1,69,0,0
1,72,62,0
1,60,54,0
1,60,0,120
1,72,0,0
1,71,66,0
1,59,58,0
1,59,0,120
1,71,0,0
1,69,62,0
1,57,54,0
1,57,0,120
1,69,0,0
1,76,70,0
1,64,61,0
1,64,0,120
1,76,0,0
1,68,43,0
1,71,52,0
1,71,0,60
1,68,0,0
1,64,47,180
1,76,54,0
1,76,0,120
1,64,0,0
1,76,66,0
1,64,58,0
1,64,0,120
1,76,0,0
1,79,62,0
1,67,54,0
1,67,0,120
1,79,0,0
1,77,66,0
1,65,58,0
1,65,0,120
1,77,0,0
1,76,62,0
1,64,54,0
1,64,0,120
1,76,0,0
1,69,72,0
1,57,63,0
1,57,0,120
1,69,0,0
1,63,46,0
1,66,54,0
1,66,0,60
1,63,0,0
1,57,50,180
1,69,58,0
1,69,0,120
1,57,0,0
1,69,68,0
1,57,60,0
1,57,0,120
1,69,0,0
1,72,64,0
1,60,56,0
1,60,0,120
1,72,0,0
1,71,68,0
1,59,60,0
1,59,0,120
1,71,0,0
1,69,64,0
1,57,56,0
1,57,0,120
1,69,0,0
1,68,72,0
1,56,63,0
1,56,0,120
1,68,0,0
1,59,68,0
1,59,0,60
1,63,64,180
1,63,0,120
1,56,63,0
1,65,73,0
1,59,63,0
1,59,0,240
1,65,0,0
1,56,0,0
1,64,70,0
1,64,0,120
1,81,77,120
1,69,66,0
1,69,0,120
1,81,0,0
1,75,48,0
1,78,57,0
1,78,0,60
1,75,0,0
1,69,52,180
1,81,61,0
1,81,0,120
1,69,0,0
1,81,72,0
1,69,63,0
1,69,0,120
1,81,0,0
1,84,67,0
1,72,60,0
1,72,0,120
1,84,0,0
1,83,72,0
1,71,63,0
1,71,0,120
1,83,0,0
1,81,67,0
1,69,60,0
1,69,0,120
1,81,0,0
1,88,77,0
1,76,66,0
1,76,0,120
1,88,0,0
