track,note,velocity,time
0,34,99,48
0,35,116,0
0,36,84,0
0,44,83,0
0,53,61,0
0,57,78,0
0,62,102,0
0,35,0,4
0,36,0,0
0,44,0,0
0,62,0,46
0,44,60,2
0,65,93,0
0,82,50,0
0,44,0,4
0,82,0,0
0,39,53,92
0,44,80,0
0,62,93,0
0,39,0,4
0,44,0,0
0,65,0,11
0,34,0,7
0,53,0,37
0,57,0,0
0,29,100,37
0,35,115,0
0,36,80,0
0,44,62,0
0,51,62,0
0,55,47,0
0,60,104,0
0,62,0,0
0,35,0,4
0,36,0,0
0,44,0,0
0,44,79,92
0,85,43,0
0,44,0,4
0,85,0,0
0,44,63,92
0,82,51,0
0,44,0,4
0,82,0,0
0,39,56,92
0,44,83,0
0,39,0,4
0,44,0,0
0,63,100,44
0,60,0,11
0,44,65,37
0,44,0,4
0,29,0,18
0,51,0,55
0,55,0,4
0,34,100,15
0,35,109,0
0,36,79,0
0,44,85,0
0,53,77,0
0,57,81,0
0,62,102,0
0,63,0,2
0,35,0,2
0,36,0,0
0,44,0,0
0,44,61,92
0,82,43,0
0,44,0,4
0,82,0,0
0,39,53,92
0,44,86,0
0,39,0,4
0,44,0,0
0,34,0,18
0,62,0,28
0,57,0,17
0,53,0,2
0,29,100,6
0,35,111,0
0,36,82,0
0,44,60,0
0,55,89,0
0,58,91,0
0,63,90,0
0,67,89,0
0,35,0,4
0,36,0,0
0,44,0,0
0,44,82,92
0,85,44,0
0,44,0,4
0,85,0,0
0,44,60,92
0,82,48,0
0,44,0,4
0,82,0,0
0,39,61,92
0,44,83,0
0,39,0,4
0,44,0,0
0,44,59,92
0,44,0,4
0,67,0,28
0,63,0,2
0,55,0,3
0,58,0,0
0,29,0,3
0,34,100,56
0,53,63,0
0,57,83,0
0,62,117,0
0,62,103,0
0,70,46,0
0,74,44,0
0,74,120,0
0,77,41,0
0,35,110,0
0,36,85,0
0,44,82,0
0,35,0,4
0,36,0,0
0,44,0,0
0,62,0,46
0,62,0,1
0,74,0,0
0,65,99,1
0,65,91,0
0,77,99,0
0,44,60,0
0,82,44,0
0,44,0,4
0,82,0,0
0,39,53,92
0,44,82,0
0,62,118,0
0,62,94,0
0,74,123,0
0,65,0,1
0,77,0,0
0,39,0,3
0,44,0,0
0,65,0,11
0,34,0,7
0,62,0,9
0,74,0,0
0,53,0,28
0,57,0,0
0,29,100,6
0,35,116,0
0,36,86,0
0,44,65,0
0,51,59,0
0,55,48,0
0,60,119,0
0,60,106,0
0,62,0,0
0,72,121,0
0,75,47,0
0,79,46,0
0,35,0,3
0,36,0,0
0,44,0,0
0,77,0,1
0,75,0,1
0,44,79,62
0,85,45,0
0,44,0,4
0,85,0,0
0,44,59,92
0,82,44,0
0,44,0,4
0,82,0,0
0,39,56,92
0,44,84,0
0,39,0,4
0,44,0,0
0,60,0,12
0,72,0,0
0,63,100,32
0,60,0,11
0,44,60,37
0,58,112,0
0,70,116,0
0,44,0,4
0,29,0,18
0,58,0,18
0,70,0,0
0,60,113,8
0,72,113,0
0,51,0,29
0,55,0,4
0,74,0,11
0,79,0,1
0,34,102,3
0,35,110,0
0,36,86,0
0,44,81,0
0,53,78,0
0,57,82,0
0,62,110,0
0,62,102,0
0,74,46,0
0,74,111,0
0,77,61,0
0,60,0,2
0,63,0,0
0,72,0,0
0,35,0,2
0,36,0,0
0,44,0,0
0,44,62,92
0,65,115,0
0,77,115,0
0,82,50,0
0,44,0,4
0,82,0,0
0,62,0,7
0,74,0,0
0,39,56,85
0,44,79,0
0,62,126,0
0,74,127,0
0,39,0,4
0,44,0,0
0,65,0,0
0,77,0,0
0,34,0,18
0,62,0,6
0,74,0,0
0,62,0,43
0,57,0,3
0,53,0,2
0,29,100,3
0,35,113,0
0,36,83,0
0,44,63,0
0,55,94,0
0,58,90,0
0,60,118,0
0,63,89,0
0,67,91,0
0,72,116,0
0,75,54,0
0,79,44,0
0,35,0,0
0,36,0,0
0,44,0,0
0,75,0,2
0,77,0,9
0,44,79,70
0,85,49,0
0,44,0,4
0,85,0,0
0,60,0,85
0,72,0,0
0,44,60,7
0,58,108,0
0,70,108,0
0,82,44,0
0,44,0,4
0,82,0,0
0,58,0,24
0,70,0,0
0,39,61,68
0,44,85,0
0,55,114,0
0,67,109,0
0,39,0,4
0,44,0,0
0,44,66,92
0,58,84,0
0,70,80,0
0,44,0,4
0,55,0,0
0,67,0,0
0,67,0,28
0,58,0,1
0,70,0,0
0,63,0,1
0,55,0,3
0,58,0,0
0,29,0,3
0,74,0,8
0,79,0,6
0,34,95,4
0,35,115,0
0,36,84,0
0,44,86,0
0,53,56,0
0,57,83,0
0,62,113,0
0,62,100,0
0,74,40,0
0,74,114,0
0,77,54,0
0,35,0,1
0,36,0,0
0,44,0,0
0,62,0,66
0,44,64,2
0,65,112,0
0,65,97,0
0,77,115,0
0,82,47,0
0,62,0,3
0,74,0,0
0,44,0,1
0,82,0,0
0,39,60,92
0,44,84,0
0,62,125,0
0,62,90,0
0,74,118,0
0,39,0,4
0,44,0,0
0,65,0,0
0,77,0,0
0,65,0,11
0,34,0,7
0,62,0,4
0,74,0,0
0,53,0,33
0,57,0,0
0,29,101,1
0,35,114,0
0,36,82,0
0,44,64,0
0,51,63,0
0,55,50,0
0,60,125,0
0,60,104,0
0,62,0,0
0,72,125,0
0,75,39,0
0,79,39,0
0,35,0,4
0,36,0,0
0,44,0,0
0,75,0,5
0,77,0,7
0,44,83,72
0,85,41,0
0,44,0,4
0,85,0,0
0,44,66,92
0,82,49,0
0,44,0,4
0,82,0,0
0,39,54,92
0,44,86,0
0,39,0,4
0,44,0,0
0,60,0,19
0,72,0,0
0,63,97,25
0,60,0,11
0,44,61,37
0,58,106,0
0,70,107,0
0,44,0,4
0,29,0,18
0,58,0,17
0,70,0,0
0,60,114,9
0,72,112,0
0,51,0,29
0,60,0,2
0,72,0,0
0,55,0,2
0,74,0,9
0,79,0,3
0,34,98,3
0,35,109,0
0,36,83,0
0,44,80,0
0,53,73,0
0,57,79,0
0,62,120,0
0,62,103,0
0,74,39,0
0,74,121,0
0,77,53,0
0,63,0,2
0,35,0,2
0,36,0,0
0,44,0,0
0,62,0,86
0,74,0,0
0,44,62,6
0,65,84,0
0,77,80,0
0,82,44,0
0,44,0,4
0,82,0,0
0,39,59,92
0,44,80,0
0,67,111,0
0,79,116,0
0,39,0,4
0,44,0,0
0,65,0,0
0,77,0,0
0,34,0,18
0,67,0,1
0,79,0,0
0,62,0,48
0,57,0,7
0,53,0,2
0,74,0,2
0,29,95,1
0,35,116,0
0,36,82,0
0,44,64,0
0,55,92,0
0,58,96,0
0,63,96,0
0,67,90,0
0,70,124,0
0,75,42,0
0,79,41,0
0,82,119,0
0,35,0,4
0,36,0,0
0,44,0,0
0,77,0,3
0,44,85,73
0,70,115,0
0,85,49,0
0,44,0,4
0,85,0,0
0,70,101,23
0,44,59,11
0,70,95,0
0,72,110,0
0,82,44,0
0,84,111,0
0,44,0,4
0,82,0,0
0,70,0,6
0,82,0,0
0,72,0,11
0,84,0,0
0,70,105,37
0,39,55,1
0,44,80,0
0,55,93,0
0,72,107,0
0,39,0,4
0,44,0,0
0,55,0,0
0,74,85,1
0,44,63,32
0,44,0,4
0,67,0,19
0,63,0,2
0,55,0,3
0,58,0,0
0,29,0,3
0,74,95,24
0,75,0,11
0,79,0,1
0,70,0,11
0,34,100,9
0,35,113,0
0,36,81,0
0,44,80,0
0,53,62,0
0,57,78,0
0,62,101,0
0,35,0,4
0,36,0,0
0,44,0,0
0,62,0,85
0,44,62,2
0,65,97,0
0,82,44,0
0,44,0,4
0,82,0,0
0,39,60,92
0,44,80,0
0,62,95,0
0,39,0,4
0,44,0,0
0,65,0,11
0,34,0,7
0,53,0,37
0,57,0,0
0,29,101,37
0,35,116,0
0,36,82,0
0,44,61,0
0,51,58,0
0,55,51,0
0,60,107,0
0,62,0,0
0,35,0,4
0,36,0,0
0,44,0,0
0,44,79,92
0,85,48,0
0,44,0,4
0,85,0,0
0,44,59,92
0,82,48,0
0,44,0,4
0,82,0,0
0,39,53,92
0,44,84,0
0,70,105,0
0,39,0,4
0,44,0,0
0,63,100,5
0,60,0,11
0,70,84,5
0,44,66,1
0,72,112,0
0,44,0,4
0,29,0,18
0,74,95,12
0,51,0,13
0,55,0,4
0,34,102,15
0,35,111,0
0,36,84,0
0,44,85,0
0,53,79,0
0,57,79,0
0,62,97,0
0,63,0,2
0,35,0,2
0,36,0,0
0,44,0,0
0,74,85,26
0,44,60,1
0,72,105,0
0,82,43,0
0,44,0,4
0,82,0,0
0,72,65,14
0,39,53,32
0,44,82,0
0,39,0,4
0,44,0,0
0,34,0,18
0,70,84,9
0,62,0,7
0,57,0,17
0,53,0,2
0,29,102,6
0,35,115,0
0,36,86,0
0,44,64,0
0,55,92,0
0,58,92,0
0,63,95,0
0,67,93,0
0,35,0,4
0,36,0,0
0,44,0,0
0,44,82,75
0,70,104,0
0,85,45,0
0,44,0,4
0,85,0,0
0,70,81,24
0,44,61,11
0,70,101,0
0,82,49,0
0,44,0,4
0,82,0,0
0,70,84,15
0,39,53,9
0,44,86,0
0,70,72,0
0,39,0,4
0,44,0,0
0,44,60,21
0,72,98,0
0,44,0,4
0,67,0,28
0,63,0,2
0,55,0,3
0,58,0,0
0,29,0,3
0,74,85,1
0,34,95,32
0,35,115,0
0,36,86,0
0,44,84,0
0,53,57,0
0,57,83,0
0,62,105,0
0,35,0,4
0,36,0,0
0,44,0,0
0,62,0,86
0,44,66,2
0,65,97,0
0,82,44,0
0,44,0,4
0,82,0,0
0,39,54,92
0,44,79,0
0,62,93,0
0,39,0,4
0,44,0,0
0,65,0,11
0,34,0,7
0,53,0,37
0,57,0,0
0,29,99,37
0,35,113,0
0,36,85,0
0,44,64,0
0,51,59,0
0,55,52,0
0,60,107,0
0,62,0,0
0,35,0,4
0,36,0,0
0,44,0,0
0,44,83,92
0,85,46,0
0,44,0,4
0,85,0,0
0,44,63,92
0,82,49,0
0,44,0,4
0,82,0,0
0,39,61,92
0,44,79,0
0,70,107,0
0,39,0,4
0,44,0,0
0,63,101,4
0,60,0,11
0,72,104,5
0,44,63,4
0,74,97,0
0,44,0,4
0,29,0,18
0,77,104,21
0,51,0,13
0,55,0,4
0,34,100,15
0,35,114,0
0,36,83,0
0,44,80,0
0,53,72,0
0,57,84,0
0,62,99,0
0,63,0,2
0,35,0,2
0,36,0,0
0,44,0,0
0,77,98,45
0,44,59,1
0,74,97,0
0,82,44,0
0,44,0,4
0,82,0,0
0,72,110,15
0,39,54,32
0,44,80,0
0,39,0,4
0,44,0,0
0,34,0,18
0,74,97,40
0,62,0,7
0,57,0,17
0,53,0,2
0,29,97,6
0,35,114,0
0,36,84,0
0,44,61,0
0,55,93,0
0,58,95,0
0,63,94,0
0,67,93,0
0,35,0,4
0,36,0,0
0,44,0,0
0,44,82,81
0,85,47,0
0,44,0,4
0,85,0,0
0,44,62,92
0,82,48,0
0,44,0,4
0,82,0,0
0,39,60,92
0,44,85,0
0,77,117,0
0,39,0,4
0,44,0,0
0,77,89,34
0,29,0,30
0,34,95,1
0,44,61,0
0,74,91,0
0,44,0,4
0,67,0,28
0,63,0,2
0,55,0,3
0,58,0,0
0,77,94,16
0,34,0,2
0,79,85,1
0,77,78,1
0,81,84,0
0,84,83,0
0,34,101,0
0,35,114,0
0,36,86,0
0,44,80,0
0,53,59,0
0,57,83,0
0,62,105,0
0,35,0,4
0,36,0,0
0,44,0,0
0,77,0,12
0,81,0,0
0,84,0,0
0,77,105,22
0,62,0,30
0,44,61,2
0,65,98,0
0,77,70,0
0,81,75,0
0,82,45,0
0,84,77,0
0,44,0,4
0,82,0,0
0,77,0,12
0,81,0,0
0,84,0,0
0,77,119,42
0,39,60,32
0,44,79,0
0,62,94,0
0,77,67,0
0,81,67,0
0,84,69,0
0,39,0,4
0,44,0,0
0,65,0,2
0,77,0,1
0,81,0,0
0,84,0,0
0,34,0,6
0,53,0,37
0,57,0,0
0,29,97,37
0,35,111,0
0,36,82,0
0,44,64,0
0,51,60,0
0,55,52,0
0,60,111,0
0,62,0,0
0,75,84,0
0,79,85,0
0,82,81,0
0,35,0,4
0,36,0,0
0,44,0,0
0,75,0,12
0,79,0,0
0,82,0,0
0,44,81,80
0,75,80,0
0,79,75,0
0,82,74,0
0,85,45,0
0,44,0,4
0,85,0,0
0,75,0,12
0,79,0,0
0,82,0,0
0,44,61,80
0,75,68,0
0,79,71,0
0,82,73,0
0,82,49,0
0,44,0,4
0,82,0,0
0,75,0,12
0,79,0,0
0,82,0,0
0,39,60,80
0,44,83,0
0,74,101,0
0,75,81,0
0,79,79,0
0,82,80,0
0,39,0,4
0,44,0,0
0,75,0,12
0,79,0,0
0,82,0,0
0,63,99,15
0,60,0,11
0,72,94,5
0,44,61,1
0,70,107,0
0,75,69,0
0,79,75,0
0,82,72,0
0,44,0,4
0,75,0,12
0,79,0,0
0,82,0,0
0,29,0,6
0,67,95,1
0,51,0,13
0,55,0,4
0,34,99,8
0,35,110,0
0,36,82,0
0,44,84,0
0,53,75,0
0,57,84,0
0,62,103,0
0,70,112,0
0,77,79,0
0,81,84,0
0,84,84,0
0,63,0,2
0,35,0,2
0,36,0,0
0,44,0,0
0,77,0,12
0,81,0,0
0,84,0,0
0,70,84,20
0,44,66,32
0,77,76,0
0,81,76,0
0,82,45,0
0,84,73,0
0,44,0,4
0,82,0,0
0,77,0,12
0,81,0,0
0,84,0,0
0,70,68,46
0,39,61,32
0,44,84,0
0,77,65,0
0,81,64,0
0,84,67,0
0,39,0,4
0,44,0,0
0,77,0,12
0,81,0,0
0,84,0,0
0,34,0,6
0,67,107,39
0,62,0,7
0,57,0,17
0,53,0,2
0,29,95,6
0,35,116,0
0,36,81,0
0,44,61,0
0,55,89,0
0,58,97,0
0,63,92,0
0,67,90,0
0,75,80,0
0,79,78,0
0,82,80,0
0,35,0,4
0,36,0,0
0,44,0,0
0,75,0,11
0,79,0,0
0,82,0,0
0,65,86,48
0,44,85,32
0,75,73,0
0,79,69,0
0,82,72,0
0,85,50,0
0,44,0,4
0,85,0,0
0,75,0,12
0,79,0,0
0,82,0,0
0,44,62,60
0,75,61,0
0,79,62,0
0,82,61,0
0,82,45,0
0,44,0,4
0,82,0,0
0,75,0,12
0,79,0,0
0,82,0,0
0,77,104,48
0,39,58,13
0,44,80,0
0,75,82,0
0,77,86,0
0,79,80,0
0,82,79,0
0,39,0,4
0,44,0,0
0,75,0,12
0,79,0,0
0,82,0,0
0,77,99,27
0,44,66,1
0,74,82,0
0,75,66,0
0,79,67,0
0,82,65,0
0,44,0,4
0,75,0,12
0,79,0,0
0,82,0,0
0,67,0,16
0,63,0,2
0,55,0,3
0,58,0,0
0,29,0,3
0,77,93,23
0,34,99,11
0,35,115,0
0,36,81,0
0,44,84,0
0,53,58,0
0,57,78,0
0,62,101,0
0,77,78,0
0,79,91,0
0,81,82,0
0,84,79,0
0,35,0,4
0,36,0,0
0,44,0,0
0,77,0,12
0,81,0,0
0,84,0,0
0,77,94,12
0,62,0,30
0,44,65,2
0,65,91,0
0,77,71,0
0,81,71,0
0,82,48,0
0,84,73,0
0,44,0,4
0,82,0,0
0,77,0,3
0,81,0,0
0,84,0,0
0,77,105,48
0,39,60,32
0,44,84,0
0,62,96,0
0,77,62,0
0,81,66,0
0,84,63,0
0,39,0,4
0,44,0,0
0,65,0,9
0,77,0,1
0,81,0,0
0,84,0,0
0,34,0,6
0,53,0,37
0,57,0,0
0,29,96,37
0,35,113,0
0,36,83,0
0,44,60,0
0,51,59,0
0,55,45,0
0,60,105,0
0,62,0,0
0,75,82,0
0,79,80,0
0,82,83,0
0,35,0,4
0,36,0,0
0,44,0,0
0,75,0,12
0,79,0,0
0,82,0,0
0,44,80,80
0,75,80,0
0,79,73,0
0,82,78,0
0,85,42,0
0,44,0,4
0,85,0,0
0,75,0,12
