track,note,velocity,time
1,72,102,304
1,79,102,0
1,76,102,0
1,79,102,96
1,72,98,0
1,76,102,1
1,71,102,96
1,79,106,1
1,74,102,0
1,71,102,96
1,79,102,0
1,74,102,1
1,72,102,96
1,79,102,0
1,76,102,1
1,79,102,96
1,72,98,0
1,76,102,1
1,71,102,96
1,79,106,0
1,74,102,1
1,71,102,96
1,79,102,0
1,74,102,1
1,72,102,102
1,79,102,0
1,76,102,1
1,79,102,96
1,72,98,0
1,76,102,1
1,71,102,96
1,79,106,1
1,74,102,0
1,71,102,96
1,79,102,1
1,74,102,0
1,72,102,96
1,79,102,0
1,76,102,1
1,79,102,96
1,72,98,0
1,76,102,1
1,71,102,96
1,79,106,0
1,74,102,1
1,71,102,96
1,79,102,1
1,74,102,0
1,72,102,96
1,79,102,1
1,76,102,0
1,79,102,96
1,72,98,0
1,76,102,1
1,71,102,96
1,79,106,0
1,74,102,1
1,71,102,100
1,79,102,1
1,74,102,0
1,72,102,96
1,79,102,1
1,76,102,0
1,79,102,97
1,72,98,0
1,76,102,1
1,71,102,96
1,79,106,1
1,74,102,1
1,71,102,100
1,79,102,0
1,74,102,1
1,72,102,96
1,79,102,0
1,76,102,1
1,79,102,93
1,72,98,0
1,76,102,0
1,71,102,96
1,79,106,0
1,74,102,1
1,71,102,96
1,79,102,0
1,74,102,1
1,72,102,96
1,79,102,0
1,76,102,1
1,79,102,0
1,72,98,0
1,76,102,0
1,71,102,96
1,79,106,0
1,74,102,1
1,71,102,96
1,79,102,0
1,74,102,1
1,60,102,97
1,67,102,0
1,64,102,0
1,67,102,98
1,60,98,0
1,64,102,0
1,59,102,97
1,67,106,0
1,62,102,1
1,59,102,96
1,67,102,2
1,62,102,0
1,60,102,98
1,67,102,0
1,64,102,1
1,67,102,97
1,60,98,0
1,64,102,0
1,59,102,97
1,67,106,1
1,62,102,0
1,59,102,98
1,67,102,0
1,62,102,0
1,60,102,97
1,67,102,0
1,64,102,0
1,67,102,98
1,60,98,0
1,64,102,0
1,59,102,97
1,67,106,0
1,62,102,1
1,59,102,98
1,67,102,0
1,62,102,0
1,60,102,98
1,67,102,1
1,64,102,0
1,67,102,98
1,60,98,0
1,64,102,0
1,59,102,97
1,67,106,0
1,62,102,1
1,59,102,96
1,67,102,0
1,62,102,1
1,60,102,97
1,67,102,0
1,64,102,0
1,67,102,98
1,60,98,0
1,64,102,0
1,59,102,97
1,67,106,1
1,62,102,0
1,59,102,98
1,67,102,0
1,62,102,0
1,60,102,98
1,67,102,0
1,64,102,1
1,67,102,98
1,60,98,0
1,64,102,0
1,59,102,97
1,67,106,0
1,62,102,1
1,59,102,96
1,67,102,0
1,62,102,2
1,60,102,97
1,67,102,0
1,64,102,0
1,67,102,98
1,60,98,0
1,64,102,0
1,59,102,96
1,67,106,2
1,62,102,0
1,59,102,97
1,67,102,1
1,62,102,0
1,60,102,98
1,67,102,0
1,64,102,2
1,67,102,98
1,60,98,0
1,64,102,0
1,59,102,95
1,67,106,0
1,62,102,0
1,59,102,96
1,67,102,0
1,62,102,0
1,60,102,97
1,67,102,0
1,64,102,0
1,67,102,98
1,60,98,0
1,64,102,0
1,59,102,97
1,67,106,1
1,62,102,2
1,59,102,96
1,67,102,2
1,62,102,0
1,60,102,98
1,67,102,1
1,64,102,0
1,67,102,98
1,60,98,0
1,64,102,0
1,59,102,97
1,67,106,0
1,62,102,0
1,59,102,97
1,67,102,0
1,62,102,0
1,60,102,97
1,67,102,0
1,64,102,0
1,67,102,98
1,60,98,0
1,64,102,0
1,59,102,97
1,67,106,1
1,62,102,0
1,59,102,97
1,67,102,0
1,62,102,1
1,60,102,98
1,67,102,1
1,64,102,0
1,67,102,97
1,60,98,0
1,64,102,1
1,59,102,98
1,67,106,0
1,62,102,0
1,59,102,96
1,67,102,1
1,62,102,0
1,60,102,97
1,67,102,0
1,64,102,0
1,67,102,98
1,60,98,0
1,64,102,0
1,59,102,97
1,67,106,1
1,62,102,0
1,59,102,97
1,67,102,0
1,62,102,1
1,60,102,98
1,67,102,1
1,64,102,0
1,67,102,97
1,60,98,0
1,64,102,0
1,59,102,98
1,67,106,0
1,62,102,0
1,59,102,98
1,67,102,0
1,62,102,0
1,60,102,97
1,67,102,1
1,64,102,1
1,67,102,98
1,60,98,0
1,64,102,0
1,59,102,97
1,67,106,1
1,62,102,0
1,59,102,96
1,67,102,2
1,62,102,0
1,60,102,98
1,67,102,1
1,64,102,0
1,67,102,97
1,60,98,0
1,64,102,1
1,59,102,97
1,67,106,1
1,62,102,0
1,59,102,97
1,67,102,0
1,62,102,0
1,67,112,1
1,64,112,0
1,60,112,0
1,62,104,31
1,59,112,0
1,57,112,190
1,67,108,1
1,60,100,0
1,64,112,0
1,67,112,52
1,62,112,0
1,59,116,0
1,55,120,0
1,67,100,3
1,60,84,0
1,64,92,0
1,59,92,143
1,62,104,1
1,67,96,102
1,64,84,0
1,60,84,0
1,57,92,0
1,67,100,28
1,59,100,0
1,62,96,0
1,55,96,2
1,67,96,85
1,60,88,0
1,64,84,0
1,62,92,130
1,59,112,1
1,67,100,126
1,64,92,0
1,60,92,0
1,57,96,0
1,62,96,22
1,59,88,0
1,55,88,0
1,64,84,112
1,67,96,1
1,60,88,0
1,59,108,170
1,62,92,0
1,67,104,97
1,64,92,0
1,60,76,0
1,57,88,0
1,67,84,72
1,62,92,0
1,55,100,0
1,59,112,2
1,60,102,16
1,67,102,0
1,64,102,0
1,67,102,98
1,60,98,0
1,64,102,0
1,59,102,97
1,67,106,0
1,62,102,0
1,59,102,97
1,67,102,0
1,62,102,1
1,60,102,97
1,67,102,0
1,64,102,1
1,67,102,98
1,60,98,0
1,64,102,0
1,59,102,98
1,67,106,0
1,62,102,0
1,59,102,98
1,67,102,0
1,62,102,0
1,60,102,97
1,67,102,0
1,64,102,0
1,67,102,98
1,60,98,0
1,64,102,0
1,59,102,103
1,67,106,0
1,62,102,1
1,59,102,97
1,67,102,0
1,62,102,1
1,60,102,97
1,67,102,0
1,64,102,1
1,67,102,98
1,60,98,0
1,64,102,0
1,59,102,98
1,67,106,0
1,62,102,0
1,59,102,98
1,67,102,0
1,62,102,0
1,60,102,97
1,67,102,0
1,64,102,0
1,67,102,98
1,60,98,0
1,64,102,0
1,59,102,97
1,67,106,0
1,62,102,0
1,59,102,97
1,67,102,0
1,62,102,1
1,60,102,98
1,67,102,1
1,64,102,0
1,67,102,98
1,60,98,0
1,64,102,0
1,59,102,98
1,67,106,1
1,62,102,0
1,59,102,104
1,67,102,1
1,62,102,1
1,60,102,97
1,67,102,0
1,64,102,0
1,67,102,98
1,60,98,0
1,64,102,0
1,59,102,98
1,67,106,0
1,62,102,0
1,59,102,97
1,67,102,1
1,62,102,0
1,60,102,98
1,67,102,1
1,64,102,0
1,67,102,98
1,60,98,0
1,64,102,0
1,59,102,97
1,67,106,1
1,62,102,0
1,59,102,98
1,67,102,0
1,62,102,0
1,60,102,97
1,67,102,0
1,64,102,0
1,67,102,97
1,60,98,0
1,64,102,0
1,59,102,97
1,67,106,1
1,62,102,0
1,59,102,91
1,67,102,1
1,62,102,0
1,60,102,98
1,67,102,2
1,64,102,0
1,67,102,96
1,60,98,1
1,64,102,0
1,59,102,98
1,67,106,0
1,62,102,1
1,59,102,95
1,67,102,1
1,62,102,0
1,60,102,98
1,67,101,1
1,64,102,0
1,67,102,97
1,60,98,1
1,64,102,0
1,59,102,97
1,67,106,1
1,62,102,0
1,59,102,96
1,67,102,1
1,62,102,0
1,60,102,98
1,67,102,1
1,64,102,0
1,67,102,96
1,60,98,0
1,64,102,0
1,59,102,98
1,67,106,0
1,62,102,0
1,59,102,96
1,67,102,0
1,62,102,0
1,60,102,98
1,67,102,1
1,64,102,0
1,67,102,97
1,60,98,0
1,64,102,1
1,59,102,97
1,67,106,1
1,62,102,0
1,59,102,96
1,67,102,1
1,62,102,0
1,60,102,98
1,67,102,1
1,64,102,0
1,67,102,96
1,60,98,0
1,64,102,0
1,59,102,98
1,67,106,0
1,62,102,1
1,59,102,96
1,67,102,0
1,62,102,0
1,60,102,98
1,67,102,0
1,64,102,1
1,67,102,97
1,60,98,0
1,64,102,0
1,59,102,98
1,67,106,0
1,62,102,0
1,59,102,96
1,67,102,0
1,62,102,0
1,60,102,98
1,67,102,1
1,64,102,0
1,67,102,60
1,60,98,0
1,64,102,0
1,59,102,98
1,67,106,0
1,62,102,0
1,59,102,53
1,67,102,0
1,62,102,1
1,60,102,68
1,67,102,0
1,64,102,0
1,59,107,111
1,62,107,0
1,67,107,1
1,67,107,129
1,57,107,0
1,60,107,2
1,64,107,0
1,67,107,71
1,55,107,0
1,62,107,0
1,59,107,0
1,60,107,157
1,64,107,0
1,67,107,0
1,62,107,129
1,67,107,0
1,59,107,1
1,67,107,149
1,64,107,1
1,57,107,0
1,60,107,1
1,55,107,78
1,67,107,0
1,62,107,0
1,59,107,2
1,60,107,122
1,64,107,0
1,67,107,0
1,59,107,121
1,62,107,0
1,67,107,1
1,67,107,138
1,60,107,0
1,57,107,0
1,64,107,2
1,67,107,72
1,55,107,0
1,62,107,0
1,59,107,0
1,60,107,143
1,67,107,0
1,64,107,1
1,67,107,93
1,62,107,0
1,59,107,0
1,67,107,8
1,64,107,1
1,57,107,0
1,60,107,2
1,55,107,83
1,62,107,0
1,67,107,0
1,59,107,1
1,60,112,12192
1,67,112,0
1,64,116,0
1,62,104,131
1,67,104,0
1,59,92,1
1,67,104,141
1,60,92,0
1,64,96,0
1,57,104,2
1,67,116,62
1,55,116,0
1,62,116,1
1,59,116,1
1,60,84,10
1,64,92,0
1,67,100,0
1,59,92,143
1,62,104,2
1,64,84,102
1,60,84,0
1,67,96,0
1,57,92,2
1,67,100,32
1,59,100,0
1,62,96,0
1,55,96,2
1,60,88,86
1,64,84,1
1,67,96,0
1,62,92,132
1,59,112,1
1,64,92,126
1,60,92,0
1,57,96,0
1,67,100,2
1,62,96,1
1,59,88,0
1,55,88,0
1,64,84,129
1,60,88,0
1,67,96,0
1,59,108,168
1,62,92,1
1,64,92,108
1,67,104,0
1,60,76,0
1,57,88,2
1,67,84,16
1,62,92,0
1,55,100,1
1,59,112,1
1,79,102,0
1,76,102,0
1,72,102,0
1,79,102,96
1,72,98,0
1,76,102,0
1,71,102,97
1,79,106,0
1,74,102,0
1,71,102,95
1,79,102,0
1,74,102,0
1,72,102,96
1,79,102,0
1,76,102,0
1,79,102,96
1,72,98,0
1,76,102,0
1,71,102,96
1,79,106,0
1,74,102,0
1,71,102,96
1,79,102,0
1,74,102,0
1,72,102,100
1,79,102,0
1,76,102,0
1,79,102,90
1,72,98,0
1,76,102,0
1,71,102,96
1,79,106,0
1,74,102,0
1,71,102,96
1,79,102,0
1,74,102,0
1,72,102,96
1,79,102,0
1,76,102,0
1,79,102,96
1,72,98,0
1,76,102,0
1,71,102,96
1,79,106,0
1,74,102,0
1,71,102,100
1,79,102,0
1,74,102,0
1,72,102,97
1,79,102,0
1,76,102,0
1,79,102,96
1,72,98,0
1,76,102,0
1,71,102,96
1,79,106,0
1,74,102,0
2,36,75,307
2,31,75,1022
2,33,75,4
2,35,75,13
2,31,75,380
2,35,75,8
2,36,75,992
2,31,75,158
2,35,75,99
2,33,75,254
2,31,75,255
2,33,75,13
2,35,75,28
2,36,75,26
2,31,75,296
2,35,75,99
2,33,75,253
2,31,75,254
2,33,75,14
2,35,75,27
2,36,75,25
2,31,75,295
2,35,75,100
2,33,75,253
2,31,75,255
2,33,75,14
2,35,75,27
2,36,75,26
2,31,75,296
2,35,75,100
2,33,75,254
2,31,75,253
2,33,75,14
2,35,75,28
2,36,75,27
2,36,75,9
2,31,75,155
2,35,75,100
2,33,75,253
2,31,75,256
2,33,75,15
2,35,75,27
2,36,75,26
2,31,75,295
2,35,75,100
2,33,75,254
2,31,75,256
2,33,75,15
2,35,75,27
2,36,75,26
2,31,75,296
2,35,75,98
2,33,75,255
2,31,75,255
2,33,75,15
2,35,75,28
2,36,75,25
2,31,75,296
2,35,75,9
2,33,75,236
2,31,75,202
2,33,75,2
2,35,75,18
2,36,75,25
2,35,75,478
2,33,75,15
2,31,75,5
2,36,75,482
2,35,75,6
2,33,75,386
2,31,75,8
2,36,75,482
2,35,75,14
2,33,75,386
2,31,75,283
2,36,75,19
2,35,75,381
2,33,75,377
2,31,75,14
2,33,75,3
2,35,75,5
2,36,75,40
2,31,75,289
2,35,75,98
2,33,75,251
2,31,75,257
2,33,75,13
2,35,75,27
2,36,75,26
2,31,75,290
2,35,75,105
2,33,75,254
2,31,75,256
2,33,75,15
2,35,75,27
2,36,75,26
2,31,75,296
2,35,75,97
2,33,75,254
2,31,75,255
2,33,75,11
2,35,75,29
2,36,75,27
2,31,75,294
2,35,75,100
2,33,75,254
2,31,75,254
2,33,75,13
2,35,75,27
2,36,75,26
2,36,75,10
2,31,75,158
2,35,75,99
2,33,75,261
2,31,75,256
2,33,75,14
2,35,75,28
2,36,75,26
2,31,75,295
2,35,75,101
2,33,75,254
2,31,75,257
2,33,75,14
2,35,75,28
2,36,75,26
2,31,75,295
2,35,75,101
2,33,75,254
2,31,75,257
2,33,75,15
2,35,75,27
2,36,75,25
2,31,75,295
2,35,75,10
2,33,75,235
2,31,75,204
2,33,75,3
2,35,75,18
2,36,75,25
2,35,75,482
2,33,75,15
2,31,75,4
2,36,75,480
2,35,75,9
2,33,75,385
2,31,75,6
2,36,75,480
2,35,75,16
2,33,75,385
2,31,75,284
2,36,75,17
2,35,75,384
2,33,75,379
2,31,75,14
2,33,75,2
2,35,75,4
2,36,75,40
2,31,75,289
2,35,75,100
2,33,75,252
2,31,75,256
2,33,75,9
2,35,75,27
2,36,75,27
2,31,75,295
2,35,75,99
2,33,75,252
2,31,75,255
2,33,75,15
2,35,75,27
2,36,75,26
2,31,75,295
2,35,75,100
2,33,75,253
2,31,75,256
2,33,75,15
2,35,75,27
2,36,75,27
2,31,75,295
2,35,75,99
2,33,75,253
2,31,75,253
2,33,75,14
2,35,75,28
2,36,75,27
2,36,75,12
2,31,75,158
2,35,75,100
2,33,75,253
2,31,75,257
2,33,75,15
2,35,75,29
2,36,75,26
2,31,75,296
2,35,75,98
2,33,75,253
2,31,75,257
2,33,75,14
2,35,75,29
2,36,75,25
2,31,75,296
2,35,75,99
2,33,75,254
2,31,75,254
2,33,75,14
2,35,75,28
2,36,75,25
2,31,75,295
2,35,75,9
2,33,75,235
2,31,75,204
2,33,75,2
2,35,75,18
2,36,75,25
2,35,75,480
2,33,75,16
2,31,75,5
2,36,75,481
2,35,75,9
2,33,75,383
2,31,75,8
2,36,75,480
2,35,75,14
2,33,75,387
2,31,75,284
2,36,75,18
2,35,75,385
2,33,75,378
2,31,75,14
2,33,75,2
2,35,75,5
2,36,75,38
2,36,75,1542
2,31,75,1022
2,33,75,1
2,35,75,14
2,31,75,381
2,35,75,6
3,67,99,3572
3,64,99,0
3,72,92,0
3,64,90,129
3,72,87,0
3,67,97,0
3,59,94,117
3,62,95,0
3,67,88,0
3,62,97,127
3,59,92,0
3,67,87,0
3,60,94,116
3,64,97,0
3,67,94,0
3,60,94,127
3,67,95,0
3,64,97,0
3,59,78,134
3,62,90,0
3,67,90,0
3,62,87,41
3,67,99,0
3,71,102,0
3,62,97,130
3,67,100,0
3,71,95,0
3,64,92,29
3,67,95,0
3,72,90,0
3,67,95,119
3,72,92,0
3,64,92,0
3,59,87,128
3,62,97,0
3,67,95,0
3,59,88,128
3,62,95,0
3,67,88,0
3,60,87,126
3,64,95,0
3,67,92,0
3,60,88,128
3,64,100,0
3,67,95,0
3,59,77,125
3,62,97,0
3,67,94,0
3,62,81,49
3,67,95,0
3,71,100,0
3,62,90,131
3,71,90,0
3,67,97,0
3,64,94,29
3,67,97,0
3,72,88,0
3,64,92,131
3,72,90,0
3,67,97,0
3,59,92,133
3,62,99,0
3,67,92,0
3,67,94,132
3,59,92,0
3,62,97,0
