track,note,velocity,time
0,55,34,65
0,60,83,8
0,59,58,3
0,62,82,12
0,60,58,1
0,63,82,4
0,41,74,89
0,35,64,0
0,42,32,0
0,60,62,2
0,56,58,1
0,67,58,0
0,63,68,1
0,42,32,2
0,42,32,16
0,54,64,16
0,42,32,11
0,41,55,13
0,35,64,2
0,42,32,0
0,35,64,4
0,42,32,0
0,36,60,0
0,42,32,16
0,42,32,16
0,54,64,4
0,41,68,1
0,42,32,31
0,42,32,7
0,62,66,9
0,34,66,3
0,35,64,3
0,42,32,0
0,42,32,16
0,42,32,16
0,51,56,3
0,54,64,16
0,55,62,2
0,60,72,7
0,42,32,3
0,61,89,6
0,34,66,6
0,35,64,4
0,42,32,0
0,62,86,1
0,65,68,12
0,59,73,0
0,35,64,3
0,42,32,0
0,46,53,2
0,42,32,16
0,42,32,16
0,58,72,1
0,41,62,2
0,51,64,2
0,54,64,0
0,56,66,1
0,42,32,10
0,55,70,2
0,42,32,14
0,54,47,2
0,55,63,0
0,58,69,0
0,39,60,7
0,35,64,1
0,42,32,0
0,55,60,6
0,42,32,13
0,55,62,9
0,42,32,4
0,54,64,16
0,42,32,22
0,39,61,15
0,35,64,1
0,42,32,0
0,35,64,4
0,42,32,0
0,34,60,3
0,42,32,16
0,42,32,16
0,54,64,16
0,42,32,0
0,34,53,10
0,42,32,6
0,61,58,13
0,35,64,2
0,42,32,0
0,36,69,0
0,42,32,16
0,42,32,16
0,51,50,1
0,54,64,3
0,55,55,2
0,58,56,8
0,42,32,3
0,36,60,9
0,61,89,5
0,35,64,2
0,42,32,0
0,64,77,4
0,35,64,8
0,42,32,0
0,40,60,1
0,42,32,2
0,60,72,1
0,61,56,7
0,60,54,7
0,42,32,6
0,58,43,2
0,51,64,3
0,54,64,0
0,43,67,2
0,56,52,3
0,42,32,14
0,55,55,0
0,42,32,16
0,56,66,0
0,60,63,3
0,63,61,1
0,56,52,2
0,35,64,2
0,42,32,0
0,41,62,0
0,58,54,3
0,42,32,1
0,56,55,5
0,42,32,9
0,54,64,16
0,42,32,15
0,41,48,15
0,35,64,1
0,42,32,0
0,53,58,2
0,36,53,3
0,35,64,1
0,42,32,0
0,42,32,16
0,42,32,16
0,41,71,9
0,54,64,1
0,42,32,26
0,42,32,1
0,55,60,12
0,35,64,2
0,42,32,0
0,43,65,1
0,43,64,14
0,42,32,1
0,47,47,12
0,42,32,4
0,50,60,13
0,54,64,0
0,55,66,17
0,42,32,1
0,59,47,11
0,43,70,1
0,35,64,2
0,42,32,0
0,59,51,4
0,62,58,0
0,35,64,5
0,42,32,0
0,38,68,0
0,65,62,1
0,42,32,6
0,63,69,1
0,65,73,8
0,42,32,1
0,63,66,10
0,62,66,0
0,62,66,1
0,51,64,0
0,54,64,0
0,38,72,9
0,60,60,3
0,42,32,3
0,42,32,7
0,59,42,3
0,58,55,0
0,65,66,0
0,35,64,3
0,42,32,0
0,36,62,0
0,60,55,1
0,42,32,15
0,59,57,9
0,42,32,7
0,60,51,5
0,54,64,16
0,42,32,22
0,36,51,8
0,35,64,8
0,42,32,0
0,31,62,6
0,35,64,6
0,42,32,0
0,42,32,16
0,42,32,16
0,54,64,3
0,34,62,2
0,42,32,30
0,42,32,1
0,60,53,0
0,36,60,5
0,35,64,4
0,42,32,0
0,42,32,6
0,42,32,16
0,54,64,16
0,42,32,15
0,35,64,13
0,42,32,0
0,36,64,3
0,35,64,2
0,42,32,0
0,40,64,3
0,42,32,16
0,42,32,16
0,51,64,16
0,54,64,0
0,42,32,21
0,40,52,14
0,42,32,2
0,35,64,6
0,42,32,0
0,41,54,2
0,42,32,16
0,42,32,16
0,54,64,16
0,42,32,20
0,41,50,13
0,35,64,3
0,42,32,0
0,36,52,4
0,35,64,1
0,42,32,0
0,42,32,16
0,42,32,16
0,54,64,3
0,41,60,3
0,42,32,29
0,42,32,16
0,35,64,3
0,42,32,0
0,46,63,4
0,42,32,16
0,42,32,16
0,54,64,16
0,42,32,23
0,46,64,9
0,35,64,7
0,42,32,0
0,41,62,9
0,35,64,1
0,42,32,0
0,42,32,16
0,42,32,16
0,51,64,16
0,54,64,0
0,42,32,22
0,41,43,10
0,42,32,6
0,39,52,8
0,35,64,8
0,42,32,0
0,42,32,16
0,42,32,16
0,54,64,16
0,42,32,21
0,39,46,11
0,35,64,5
0,42,32,0
0,34,57,9
0,35,64,3
0,42,32,0
0,42,32,16
0,42,32,16
0,54,64,4
0,39,53,3
0,42,32,29
0,42,32,16
0,35,64,6
0,42,32,0
0,36,60,1
0,42,32,16
0,42,32,16
0,54,64,16
0,42,32,16
0,36,57,12
0,35,64,4
0,42,32,0
0,35,64,13
0,42,32,0
0,40,60,0
0,42,32,16
0,42,32,16
0,51,64,16
0,54,64,0
0,42,32,21
0,40,54,9
0,42,32,7
0,41,57,14
0,35,64,1
0,42,32,0
0,42,32,16
0,42,32,16
0,54,64,16
0,42,32,21
0,41,52,12
0,35,64,4
0,42,32,0
0,36,55,5
0,35,64,2
0,42,32,0
0,42,32,16
0,42,32,16
0,54,64,12
0,41,57,0
0,42,32,32
0,42,32,16
0,35,64,4
0,42,32,0
0,43,62,0
0,42,32,16
0,42,32,16
0,54,64,16
0,42,32,24
0,35,64,16
0,42,32,0
0,43,58,1
0,35,64,2
0,42,32,0
0,38,66,3
0,42,32,16
0,42,32,16
0,51,64,16
0,54,64,0
0,42,32,27
0,38,47,10
0,42,32,6
0,35,64,10
0,42,32,0
0,36,57,0
0,42,32,16
0,42,32,16
0,54,64,16
0,42,32,18
0,36,52,13
0,35,64,3
0,42,32,0
0,31,62,4
0,35,64,1
0,42,32,0
0,42,32,16
0,42,32,16
0,54,64,7
0,34,58,2
0,42,32,30
0,42,32,16
0,35,64,3
0,42,32,0
0,36,55,2
0,42,32,16
0,42,32,16
0,54,64,16
0,42,32,7
0,35,64,16
0,42,32,0
0,35,64,16
0,42,32,0
0,36,64,1
0,42,32,16
0,42,32,16
0,51,64,5
0,54,64,0
0,40,64,4
0,42,32,28
0,42,32,16
0,63,55,0
0,60,49,3
0,56,37,0
0,67,46,0
0,35,64,3
0,42,32,0
0,41,64,3
0,42,32,16
0,42,32,16
0,54,64,16
0,42,32,22
0,41,60,13
0,35,64,3
0,42,32,0
0,36,57,5
0,35,64,2
0,42,32,0
0,42,32,16
0,42,32,16
0,54,64,7
0,41,64,0
0,42,32,32
0,42,32,9
0,62,50,0
0,34,67,7
0,35,64,2
0,42,32,0
0,42,32,16
0,42,32,16
0,54,64,16
0,42,32,13
0,34,52,1
0,35,64,1
0,42,32,0
0,59,47,6
0,65,55,1
0,46,60,6
0,35,64,3
0,42,32,0
0,42,32,16
0,42,32,16
0,41,61,3
0,51,64,3
0,54,64,0
0,42,32,32
0,42,32,3
0,58,55,0
0,55,49,0
0,39,57,2
0,35,64,7
0,42,32,0
0,42,32,16
0,42,32,16
0,54,64,16
0,42,32,22
0,39,50,12
0,35,64,4
0,42,32,0
0,34,58,5
0,35,64,4
0,42,32,0
0,42,32,16
0,42,32,16
0,54,64,16
0,39,65,3
0,42,32,24
0,42,32,2
0,60,60,6
0,35,64,0
0,42,32,0
0,36,57,3
0,42,32,16
0,42,32,16
0,54,64,16
0,42,32,32
0,35,64,1
0,42,32,0
0,64,59,6
0,61,81,0
0,35,64,5
0,42,32,0
0,40,54,0
0,42,32,16
0,42,32,16
0,51,64,16
0,54,64,0
0,42,32,19
0,40,57,7
0,42,32,3
0,63,59,8
0,53,58,1
0,60,57,0
0,56,63,1
0,41,60,5
0,35,64,1
0,42,32,0
0,42,32,16
0,42,32,16
0,54,64,16
0,42,32,26
0,41,53,12
0,35,64,0
0,42,32,0
0,36,55,5
0,35,64,4
0,42,32,0
0,42,32,16
0,42,32,16
0,54,64,6
0,41,62,2
0,42,32,30
0,42,32,12
0,55,57,11
0,59,54,0
0,35,64,0
0,42,32,0
0,43,66,5
0,42,32,16
0,42,32,16
0,54,64,16
0,42,32,20
0,35,64,16
0,42,32,0
0,43,55,1
0,53,54,0
0,62,66,0
0,38,62,3
0,35,64,0
0,42,32,0
0,42,32,16
0,42,32,16
0,43,64,4
0,51,64,1
0,54,64,0
0,42,32,32
0,42,32,16
0,55,52,2
0,36,58,3
0,60,61,0
0,51,51,0
0,35,64,4
0,42,32,0
0,42,32,16
0,42,32,16
0,54,64,16
0,42,32,21
0,36,60,13
0,35,64,3
0,42,32,0
0,43,65,5
0,35,64,1
0,42,32,0
0,42,32,16
0,42,32,16
0,54,64,8
0,39,56,1
0,42,32,31
0,42,32,16
0,36,57,7
0,35,64,2
0,42,32,0
0,42,32,16
0,42,32,16
0,51,64,16
0,54,64,0
0,42,32,27
0,42,32,16
0,42,32,16
0,42,32,16
0,35,64,16
0,42,32,0
0,40,51,7
0,40,64,3
0,51,64,0
0,54,64,0
0,42,32,32
0,42,32,16
0,44,69,5
0,35,64,3
0,42,32,0
0,87,58,0
0,82,66,0
0,79,56,0
0,84,62,0
0,63,58,0
0,58,66,0
0,55,56,0
0,60,62,0
0,42,32,16
0,42,32,16
0,54,64,16
0,42,32,20
0,44,66,10
0,35,64,6
0,42,32,0
0,39,60,7
0,35,64,2
0,42,32,0
0,42,32,16
0,42,32,16
0,40,64,0
0,54,64,0
0,44,66,2
0,42,32,4
0,42,32,16
0,81,54,0
0,57,54,0
0,78,62,4
0,54,62,0
0,79,62,7
0,55,62,0
0,35,64,6
0,42,32,0
0,45,63,1
0,78,51,12
0,54,51,0
0,42,32,16
0,42,32,16
0,54,64,16
0,42,32,22
0,45,41,10
0,35,64,6
0,42,32,0
0,86,67,4
0,62,67,0
0,38,60,2
0,35,64,3
0,42,32,0
0,42,32,6
0,42,32,16
0,40,64,9
0,51,64,0
0,54,64,0
0,42,68,2
0,42,32,30
0,42,32,8
0,82,44,10
0,79,35,0
0,58,44,0
0,55,35,0
0,77,53,4
0,53,53,0
0,35,64,9
0,42,32,0
0,43,62,0
0,42,32,16
0,42,32,16
0,54,64,16
0,42,32,19
0,43,48,15
0,35,64,1
0,42,32,0
0,38,56,6
0,35,64,1
0,42,32,0
0,42,32,16
0,42,32,16
0,40,64,11
0,54,64,0
0,43,66,2
0,42,32,30
0,42,32,16
0,85,51,2
0,61,51,0
0,35,64,5
0,42,32,0
0,36,53,2
0,42,32,16
0,42,32,16
0,54,64,16
0,42,32,15
0,36,57,13
0,35,64,3
0,42,32,0
0,76,53,8
0,52,53,0
0,40,58,1
0,35,64,1
0,42,32,0
0,42,32,16
0,42,32,16
0,40,64,16
0,51,64,0
0,54,64,0
0,42,32,22
0,40,47,0
0,42,32,2
0,75,42,5
0,51,42,0
0,84,27,3
0,60,27,0
0,80,57,4
0,56,57,0
0,77,52,1
0,53,52,0
0,35,64,6
0,42,32,0
0,41,53,1
0,42,32,16
0,42,32,16
0,54,64,16
0,42,32,25
0,41,49,14
0,35,64,2
0,42,32,0
0,35,64,5
0,42,32,0
0,36,54,0
0,42,32,16
0,42,32,16
0,41,58,13
0,40,64,1
0,54,64,0
0,42,32,32
0,42,32,16
0,74,52,8
0,50,52,0
0,35,64,3
0,42,32,0
0,79,63,0
0,55,63,0
0,43,64,5
0,42,32,16
0,42,32,16
0,54,64,16
0,42,32,27
0,43,55,8
0,35,64,8
0,42,32,0
0,83,51,0
0,59,51,0
0,77,66,3
0,53,66,0
0,38,57,7
0,35,64,3
0,42,32,0
0,42,32,16
0,42,32,16
0,40,64,16
0,51,64,0
0,54,64,0
0,42,32,32
0,42,32,3
0,86,45,6
0,79,46,0
0,62,45,0
0,55,46,0
0,75,52,0
0,51,52,0
0,82,62,5
0,58,62,0
0,35,64,1
0,42,32,0
0,36,45,0
0,34,50,3
0,42,32,16
0,42,32,16
0,54,64,16
0,42,32,16
0,36,57,13
0,35,64,3
0,42,32,0
0,31,62,4
0,35,64,3
0,42,32,0
0,42,32,16
0,42,32,16
0,40,64,5
0,54,64,0
0,34,58,2
0,42,32,30
0,42,32,16
0,84,35,1
0,60,35,0
0,36,57,4
0,35,64,4
0,42,32,0
0,42,32,16
0,42,32,16
0,54,64,16
0,42,32,10
0,35,64,16
0,42,32,0
0,40,51,11
0,35,64,5
0,42,32,0
0,42,32,16
0,42,32,16
0,40,64,6
0,51,64,0
0,54,64,0
0,42,32,32
0,42,32,16
0,82,51,7
0,58,51,0
0,44,68,1
0,79,52,0
0,84,51,0
0,55,52,0
0,60,51,0
0,87,59,1
0,63,59,0
0,35,64,1
0,42,32,0
0,42,32,16
0,42,32,16
0,54,64,16
0,42,32,13
0,44,58,11
0,35,64,5
0,42,32,0
0,39,58,9
0,35,64,1
0,42,32,0
0,80,58,0
0,77,58,0
0,56,58,0
0,53,58,0
0,42,32,16
0,42,32,16
0,44,63,4
0,40,64,1
0,54,64,0
0,42,32,32
0,42,32,16
0,45,55,6
0,81,49,0
0,57,49,0
0,35,64,4
0,42,32,0
0,78,51,0
0,54,51,0
0,42,32,16
0,42,32,16
0,54,64,16
0,42,32,22
0,45,43,9
0,35,64,7
0,42,32,0
0,86,66,6
0,62,66,0
0,35,64,6
0,42,32,0
0,38,62,1
0,42,32,16
0,42,32,16
0,42,54,13
0,40,64,2
0,51,64,0
0,54,64,0
0,42,32,32
0,42,32,4
0,79,16,10
0,55,16,0
0,82,51,3
0,58,51,0
0,77,34,2
0,53,34,0
0,35,64,7
0,42,32,0
0,43,61,4
0,42,32,16
0,42,32,16
0,54,64,16
0,42,32,19
0,43,51,11
0,35,64,5
0,42,32,0
0,35,64,10
0,42,32,0
0,38,57,0
0,42,32,16
0,42,32,16
0,40,64,15
0,54,64,0
0,43,65,3
0,42,32,29
0,42,32,16
0,85,51,0
0,61,51,0
0,35,64,11
0,42,32,0
0,36,57,2
0,42,32,16
0,42,32,16
0,54,64,16
0,42,32,15
0,36,53,9
0,35,64,7
0,42,32,0
0,40,49,11
0,76,62,1
0,52,62,0
0,35,64,2
0,42,32,0
0,42,32,16
0,42,32,16
0,40,64,16
0,51,64,0
0,54,64,0
0,42,32,30
0,40,11,1
0,75,46,2
0,51,46,0
0,42,32,2
0,84,11,1
0,60,11,0
0,80,51,6
0,56,51,0
0,77,54,3
0,53,54,0
0,41,58,3
0,35,64,1
0,42,32,0
0,42,32,16
0,42,32,16
0,54,64,16
0,42,32,23
0,35,64,16
0,42,32,0
0,41,50,2
0,35,64,16
0,42,32,0
0,36,52,3
0,42,32,16
0,42,32,16
0,40,64,6
0,54,64,0
0,41,57,3
0,42,32,29
0,42,32,16
0,35,64,2
0,42,32,0
0,43,63,1
0,74,43,1
0,50,43,0
0,42,32,16
0,42,32,16
0,54,64,16
0,42,32,24
0,43,48,12
0,35,64,4
0,42,32,0
0,83,20,7
0,59,20,0
0,35,64,5
0,42,32,0
0,38,68,0
0,42,32,16
0,42,32,16
0,40,64,16
0,51,64,0
0,54,64,0
0,42,32,28
0,38,46,1
0,42,32,7
0,79,17,2
0,55,17,0
0,72,21,0
0,48,21,0
0,75,37,3
0,51,37,0
0,36,51,6
0,84,28,1
0,60,28,0
0,35,64,2
0,42,32,0
0,42,32,16
0,42,32,16
0,54,64,16
0,42,32,24
0,36,55,11
0,35,64,5
0,42,32,0
0,31,66,2
0,35,64,1
0,42,32,0
0,42,32,16
0,42,32,16
0,54,64,7
0,34,61,0
0,42,32,32
0,42,32,16
0,36,70,7
0,35,64,2
0,42,32,0
0,42,32,3
0,42,32,16
0,55,52,0
0,51,64,3
0,54,64,0
0,60,88,2
0,42,32,30
0,42,32,5
0,59,75,0
0,42,32,5
0,62,97,3
0,42,32,16
0,60,71,7
0,35,64,4
0,42,32,0
0,40,58,4
0,40,64,1
0,51,64,0
0,54,64,0
0,63,92,2
0,42,32,12
0,42,32,16
0,35,64,10
0,42,32,0
0,41,65,0
0,60,62,2
0,56,58,1
0,67,58,0
0,63,68,1
0,42,32,2
0,42,32,16
0,60,48,0
0,54,64,16
0,60,64,0
0,42,32,16
0,35,64,16
