track,note,velocity,time
0,67,111,1128
0,80,105,24
0,68,94,7
0,79,105,28
0,67,117,1
0,66,45,118
0,65,45,18
0,64,45,30
0,75,94,0
0,63,105,2
0,60,104,3
0,72,97,0
0,63,35,3
0,70,40,2
0,60,49,5
0,67,54,3
0,44,102,2
0,32,75,0
0,70,106,0
0,35,127,0
0,51,100,64
0,70,74,8
0,75,100,0
0,70,88,0
0,55,101,1
0,75,96,70
0,60,104,42
0,63,91,21
0,67,105,2
0,32,75,5
0,70,76,0
0,35,127,0
0,70,91,0
0,70,79,190
0,75,108,2
0,63,99,3
0,70,112,0
0,54,119,0
0,69,86,0
0,59,81,0
0,70,109,4
0,58,110,4
0,70,79,0
0,69,76,50
0,65,51,1
0,61,43,2
0,44,109,24
0,32,75,0
0,70,116,0
0,35,127,0
0,53,95,63
0,70,75,32
0,75,96,0
0,56,93,40
0,70,112,0
0,75,92,70
0,61,88,21
0,65,86,23
0,68,105,6
0,32,75,5
0,70,72,0
0,35,127,0
0,70,112,0
0,70,74,190
0,62,90,120
0,63,100,0
0,70,116,0
0,54,119,0
0,75,101,0
0,69,101,0
0,72,108,0
0,60,114,0
0,70,88,0
0,69,94,55
0,67,51,22
0,63,35,10
0,44,105,11
0,32,75,0
0,70,106,0
0,35,127,0
0,51,96,22
0,70,74,19
0,75,100,0
0,55,86,60
0,70,88,0
0,75,96,70
0,60,89,37
0,63,104,28
0,67,104,34
0,32,75,4
0,70,76,0
0,35,127,0
0,68,44,23
0,70,91,0
0,63,45,110
0,64,40,30
0,77,86,23
0,65,95,5
0,70,79,2
0,58,110,37
0,70,105,1
0,70,112,8
0,54,119,0
0,69,86,4
0,68,91,26
0,56,99,1
0,70,79,7
0,58,100,1
0,70,94,13
0,69,76,12
0,65,57,37
0,61,45,0
0,44,102,3
0,32,75,5
0,70,116,0
0,35,127,0
0,53,96,1
0,70,75,27
0,75,96,0
0,56,102,2
0,70,112,0
0,75,92,1
0,61,86,2
0,65,93,1
0,68,109,8
0,32,75,5
0,70,72,0
0,35,127,0
0,70,112,0
0,70,74,0
0,60,105,146
0,70,116,34
0,54,119,0
0,63,105,15
0,69,101,51
0,65,105,11
0,70,88,10
0,69,94,70
0,70,109,1
0,75,87,2
0,65,101,0
0,70,106,2
0,35,127,0
0,63,105,98
0,70,74,5
0,75,100,0
0,70,88,190
0,75,96,70
0,70,76,70
0,35,127,0
0,70,91,190
0,70,79,190
0,60,105,5
0,70,112,20
0,54,119,0
0,69,86,70
0,63,105,18
0,70,79,10
0,69,76,70
0,68,105,47
0,70,116,7
0,35,127,0
0,63,108,13
0,68,87,1
0,58,102,2
0,68,105,135
0,70,75,18
0,75,96,0
0,67,105,2
0,70,112,25
0,75,92,34
0,67,105,24
0,70,72,46
0,35,127,0
0,63,105,3
0,70,112,172
0,70,74,190
0,60,105,25
0,70,116,15
0,54,119,0
0,69,101,70
0,65,105,10
0,70,88,10
0,69,94,70
0,37,75,65
0,65,91,2
0,70,85,1
0,60,107,2
0,70,106,0
0,35,127,0
0,70,74,132
0,75,100,0
0,70,88,190
0,75,96,70
0,72,94,29
0,77,94,16
0,82,97,19
0,70,76,6
0,35,127,0
0,70,91,5
0,70,79,190
0,60,105,187
0,70,112,3
0,54,119,0
0,69,86,70
0,63,105,2
0,70,79,10
0,65,105,8
0,69,76,25
0,36,75,2
0,63,105,1
0,70,93,1
0,70,116,2
0,35,127,0
0,63,105,14
0,70,75,13
0,75,96,0
0,63,105,5
0,70,112,136
0,61,105,67
0,75,92,3
0,70,72,10
0,35,127,0
0,61,105,30
0,68,109,148
0,70,112,12
0,60,105,35
0,70,74,151
0,60,105,27
0,82,86,153
0,75,86,2
0,70,116,8
0,54,119,0
0,69,101,70
0,58,105,14
0,70,88,10
0,69,94,70
0,56,105,18
0,34,75,2
0,70,116,0
0,35,127,0
0,68,94,7
0,61,83,0
0,70,75,190
0,75,96,0
0,70,112,190
0,65,105,62
0,75,92,4
0,70,72,10
0,35,127,0
0,63,105,0
0,70,75,1
0,39,75,1
0,70,112,0
0,70,74,0
0,60,105,28
0,39,105,3
0,70,116,0
0,54,119,0
0,63,105,12
0,69,101,12
0,65,105,10
0,70,88,0
0,69,94,0
0,42,96,9
0,60,83,6
0,56,77,2
0,32,105,1
0,70,106,0
0,35,127,0
0,75,84,6
0,65,88,1
0,70,109,2
0,56,51,3
0,60,62,2
0,58,69,18
0,56,56,1
0,63,105,1
0,42,104,10
0,70,74,0
0,60,83,49
0,56,75,3
0,42,100,8
0,37,127,0
0,70,88,0
0,42,92,52
0,58,77,61
0,56,55,5
0,46,124,4
0,70,76,0
0,35,127,0
0,32,105,0
0,56,63,54
0,60,75,0
0,70,91,13
0,70,79,130
0,42,89,34
0,37,127,0
0,70,112,0
0,54,119,0
0,60,105,60
0,32,105,10
0,69,86,0
0,63,105,4
0,32,105,10
0,42,100,0
0,70,79,0
0,70,105,21
0,32,105,19
0,46,109,0
0,69,76,0
0,68,81,54
0,63,109,1
0,58,96,2
0,44,104,3
0,70,116,0
0,35,127,0
0,29,105,0
0,58,77,1
0,53,62,3
0,53,46,43
0,58,51,0
0,56,69,25
0,70,75,5
0,58,77,166
0,53,62,1
0,37,127,7
0,70,112,0
0,68,105,69
0,29,105,15
0,46,96,0
0,70,72,0
0,35,127,0
0,56,77,0
0,58,77,34
0,53,74,2
0,44,73,8
0,70,112,0
0,67,105,36
0,46,104,4
0,70,74,0
0,68,105,27
0,67,105,19
0,44,104,21
0,37,127,0
0,70,116,0
0,54,119,0
0,65,105,70
0,69,101,0
0,70,88,10
0,29,105,70
0,69,94,0
0,27,105,5
0,65,94,50
0,70,69,0
0,60,99,0
0,51,69,3
0,56,69,1
0,42,96,1
0,70,106,0
0,35,127,0
0,25,105,0
0,51,59,51
0,56,61,3
0,51,75,47
0,42,79,9
0,70,74,0
0,51,67,172
0,56,75,2
0,37,105,0
0,42,104,0
0,37,127,0
0,70,88,0
0,42,89,55
0,65,92,5
0,25,105,16
0,70,96,0
0,46,119,0
0,70,76,0
0,35,127,0
0,51,71,0
0,75,109,18
0,51,75,18
0,56,77,1
0,70,91,10
0,46,100,70
0,46,81,70
0,70,79,0
0,63,105,182
0,44,100,8
0,37,127,0
0,70,112,0
0,54,119,0
0,61,105,15
0,69,86,25
0,65,105,39
0,70,79,10
0,37,105,70
0,69,76,0
0,58,77,48
0,53,61,2
0,70,92,0
0,63,89,1
0,68,62,5
0,42,89,0
0,70,116,0
0,35,127,0
0,36,105,0
0,63,105,13
0,58,77,32
0,55,54,1
0,53,68,15
0,42,92,11
0,70,75,0
0,58,76,159
0,55,66,2
0,42,96,7
0,37,127,0
0,70,112,0
0,53,77,65
0,46,96,9
0,70,72,0
0,35,127,0
0,36,105,0
0,55,68,57
0,58,86,1
0,68,92,22
0,42,92,2
0,70,112,0
0,42,75,70
0,46,89,70
0,70,74,0
0,56,105,79
0,58,105,38
0,44,109,2
0,37,127,0
0,70,116,0
0,54,119,0
0,60,105,8
0,69,101,12
0,70,88,10
0,60,105,8
0,41,105,70
0,69,94,0
0,61,100,11
0,56,96,2
0,60,69,4
0,56,81,1
0,42,100,0
0,70,116,0
0,35,127,0
0,34,105,0
0,60,62,62
0,56,57,0
0,61,105,15
0,55,82,21
0,42,92,2
0,70,75,0
0,60,105,26
0,60,67,130
0,56,75,2
0,42,92,0
0,37,127,0
0,70,112,0
0,61,105,8
0,22,105,12
0,55,79,9
0,46,89,1
0,70,72,0
0,35,127,0
0,24,105,0
0,60,105,22
0,25,105,19
0,61,77,0
0,58,72,0
0,27,105,57
0,42,104,0
0,70,112,0
0,70,92,1
0,58,105,53
0,58,54,0
0,61,41,1
0,56,77,30
0,42,86,1
0,70,74,0
0,22,105,2
0,27,105,51
0,42,104,0
0,43,100,0
0,70,116,0
0,54,119,0
0,61,75,1
0,58,86,0
0,69,101,2
0,61,46,0
0,56,77,0
0,70,88,2
0,27,105,2
0,69,94,0
0,56,76,2
0,60,68,0
0,75,84,0
0,35,127,2
0,52,71,0
0,70,106,0
0,32,105,0
0,65,92,1
0,70,109,0
0,56,46,0
0,60,63,2
0,63,105,65
0,58,66,3
0,55,68,1
0,42,86,0
0,70,74,0
0,63,105,117
0,60,67,14
0,56,80,1
0,42,92,5
0,37,127,0
0,70,88,0
0,25,105,21
0,63,105,93
0,55,52,1
0,58,71,2
0,29,105,5
0,42,77,0
0,70,76,0
0,56,77,22
0,60,83,0
0,35,73,5
0,31,105,0
0,63,105,13
0,32,105,5
0,35,100,0
0,42,96,0
0,70,91,0
0,63,105,97
0,42,79,7
0,70,79,0
0,42,92,0
0,37,127,0
0,70,112,0
0,54,119,0
0,63,105,3
0,69,86,10
0,63,105,17
0,42,79,13
0,70,79,0
0,61,105,39
0,32,105,15
0,35,127,0
0,69,76,0
0,58,83,5
0,61,61,2
0,73,77,6
0,77,78,1
0,68,109,1
0,42,96,70
0,70,116,0
0,61,51,6
0,58,68,1
0,61,105,74
0,42,77,2
0,70,75,0
0,56,57,1
0,61,105,107
0,58,94,21
0,61,66,1
0,42,89,4
0,37,127,0
0,70,112,0
0,61,105,121
0,56,56,2
0,42,86,6
0,70,72,0
0,61,105,35
0,58,94,6
0,61,61,1
0,35,73,0
0,32,105,0
0,32,105,17
0,35,100,0
0,42,86,0
0,70,112,0
0,61,105,68
0,42,86,122
0,70,74,0
0,65,105,50
0,27,110,5
0,27,105,0
0,42,92,0
0,37,127,0
0,70,116,0
0,54,119,0
0,63,105,0
0,69,101,10
0,60,105,0
0,42,81,20
0,70,88,0
0,32,105,8
0,35,127,0
0,46,79,0
0,69,94,0
0,77,90,10
0,72,99,1
0,82,92,0
0,56,73,0
0,60,74,1
0,70,106,70
0,56,54,0
0,60,60,2
0,63,105,90
0,70,74,9
0,55,68,3
0,58,77,2
0,63,105,107
0,60,67,15
0,56,77,1
0,42,92,4
0,37,127,0
0,70,88,0
0,63,105,106
0,55,46,19
0,58,61,1
0,42,64,1
0,70,76,0
0,56,73,23
0,60,67,0
0,35,73,2
0,32,105,0
0,63,105,60
0,32,105,10
0,35,100,0
0,42,84,0
0,70,91,0
0,63,105,124
0,42,73,17
0,70,79,0
0,63,105,4
0,42,92,0
0,37,127,0
0,70,112,0
0,54,119,0
0,34,105,3
0,69,86,0
0,63,105,31
0,39,105,23
0,42,79,0
0,70,79,0
0,63,105,47
0,39,105,11
0,35,127,0
0,69,76,0
0,73,104,1
0,80,77,0
0,61,86,4
0,58,90,2
0,42,89,8
0,70,116,0
0,58,51,34
0,61,42,2
0,42,75,27
0,70,75,0
0,60,71,1
0,56,71,0
0,42,86,113
0,37,127,0
0,70,112,0
0,63,105,5
0,65,105,17
0,39,115,0
0,42,96,0
0,68,105,39
0,36,105,10
0,42,89,0
0,70,72,0
0,70,105,47
0,34,105,5
0,35,73,0
0,72,104,65
0,77,85,1
0,32,105,2
0,35,100,0
0,42,100,0
0,70,112,0
0,42,75,9
0,42,84,10
0,42,96,0
0,72,105,29
0,42,104,10
0,70,74,0
0,70,105,15
0,43,105,145
0,42,89,0
0,37,127,0
0,70,116,0
0,54,119,0
0,68,105,0
0,69,101,0
0,70,88,0
0,69,94,0
0,72,84,4
0,60,76,1
0,25,105,0
0,65,82,0
0,54,104,0
0,35,127,0
0,42,96,0
0,70,106,0
0,72,68,0
0,68,68,0
0,65,68,0
0,60,99,2
0,72,68,1
0,68,68,0
0,65,68,0
0,56,109,1
0,54,46,20
0,54,47,19
0,42,84,0
0,70,74,0
0,54,49,70
0,68,105,56
0,54,109,14
0,42,86,0
0,37,127,0
0,70,88,0
0,60,38,0
0,72,95,0
0,54,51,0
0,67,105,3
0,54,31,3
0,42,86,0
0,70,76,0
0,70,86,65
0,58,76,5
0,37,105,0
0,54,42,0
0,35,80,0
0,63,86,7
0,58,109,2
0,55,85,1
0,54,114,3
0,35,100,0
0,42,89,0
0,70,91,0
0,67,68,0
0,63,68,0
0,36,105,0
0,67,68,3
0,63,68,0
0,54,64,70
0,54,37,70
0,42,89,0
0,70,79,0
0,54,46,0
0,70,105,0
0,41,105,10
0,54,114,0
0,42,92,0
0,37,127,0
0,70,112,0
0,72,86,70
0,54,60,0
0,69,86,0
0,63,105,1
0,53,83,3
0,56,104,2
0,61,96,2
0,34,105,2
0,54,45,0
0,35,127,0
0,46,75,0
0,70,79,0
0,65,68,0
0,73,68,0
0,68,68,0
0,65,68,2
0,73,68,0
0,68,68,0
0,56,48,60
0,68,86,10
0,54,46,0
0,69,76,0
0,54,114,70
0,42,89,0
0,70,116,0
0,54,69,70
0,63,105,41
0,54,42,29
0,42,73,0
0,70,75,0
0,54,46,1
0,54,119,0
0,42,96,0
0,37,127,0
0,70,112,0
0,54,62,0
0,46,115,0
0,72,68,4
0,54,51,0
0,42,73,0
0,70,72,0
0,35,105,0
0,72,68,0
0,73,68,3
0,54,49,0
0,35,80,0
0,36,105,0
0,73,68,3
0,63,90,1
0,56,109,2
0,56,71,0
0,68,75,1
0,39,105,0
0,54,109,0
0,35,100,0
0,42,92,0
0,70,112,0
0,70,68,0
0,75,68,0
0,70,68,3
0,75,68,0
0,54,46,3
0,54,42,0
0,42,73,0
0,70,74,0
0,70,75,2
0,58,82,2
0,54,47,0
0,39,105,0
0,27,105,5
0,54,114,0
0,42,89,0
0,37,127,0
0,70,116,0
0,72,86,1
0,60,79,2
0,54,56,35
0,69,101,0
0,65,82,1
0,60,90,2
0,56,96,1
0,72,89,5
0,60,74,1
0,25,105,0
0,54,39,0
0,35,127,0
0,46,77,0
0,70,88,0
0,54,50,20
0,69,94,0
0,72,76,3
0,60,61,0
0,68,68,0
0,72,68,0
0,65,68,0
0,54,114,0
0,42,89,0
0,70,106,0
0,68,68,3
0,72,68,0
0,65,68,0
0,54,60,0
0,54,48,0
0,42,66,0
0,70,74,0
0,54,40,0
0,68,105,0
0,54,109,0
0,42,89,0
0,37,127,0
0,70,88,0
0,67,105,2
0,54,54,0
0,73,90,6
0,61,57,2
0,54,47,2
0,42,40,0
0,70,76,0
0,60,71,59
0,72,86,1
0,37,105,9
0,54,54,0
0,35,80,0
0,63,77,1
0,58,96,1
0,55,70,0
0,58,59,1
0,70,86,1
0,36,105,4
0,54,114,0
0,35,100,0
0,42,86,0
0,70,91,0
0,67,68,0
0,63,68,0
0,67,68,3
0,63,68,0
0,54,64,70
0,54,37,70
0,42,69,0
0,70,79,0
0,54,49,70
0,70,105,32
0,29,105,0
0,54,114,0
0,42,92,0
0,37,127,0
0,70,112,0
0,34,105,0
0,72,90,0
0,54,66,0
0,69,86,0
0,63,105,0
0,34,105,10
0,54,46,0
0,35,127,0
0,46,68,0
0,70,79,0
0,56,73,65
0,68,87,5
0,54,51,0
0,69,76,0
0,61,92,3
0,56,100,1
0,53,85,0
0,73,68,0
0,54,109,0
0,42,89,0
0,70,116,0
0,73,68,1
0,54,57,0
0,72,68,0
0,54,50,0
0,42,59,0
0,70,75,0
0,72,68,3
0,65,105,0
0,54,50,0
0,70,68,0
0,54,114,0
0,42,86,0
0,37,127,0
0,70,112,0
0,70,68,0
0,54,49,0
0,22,105,0
0,68,68,7
0,54,47,0
0,42,84,0
0,70,72,0
0,24,105,0
0,68,68,3
0,60,105,6
0,54,54,12
0,25,105,0
0,65,98,1
0,70,73,0
0,61,105,1
0,27,105,3
0,61,91,0
0,54,109,0
0,35,127,0
0,42,89,0
0,70,112,0
0,63,68,0
0,51,61,1
0,63,75,2
0,63,68,0
0,54,57,2
0,60,105,20
0,54,47,14
0,35,127,0
0,46,51,0
0,70,74,0
0,27,105,0
0,58,105,12
0,54,62,8
0,54,109,0
0,41,102,0
0,42,86,0
0,37,127,0
0,70,116,0
0,56,105,0
0,54,75,0
0,69,101,0
0,54,54,10
0,84,67,0
0,70,88,0
0,27,105,20
0,54,69,0
0,69,94,0
0,75,90,4
0,63,80,3
0,35,127,2
0,52,92,0
0,32,105,0
0,48,86,5
