track,note,velocity,time
0,59,48,14
0,42,48,2
0,61,54,7
0,54,60,1
0,64,57,12
0,66,52,4
0,71,73,9
0,75,120,358
0,75,0,39
0,76,113,33
0,76,0,34
0,75,119,17
0,75,0,45
0,73,110,40
0,73,0,43
0,71,101,24
0,54,0,18
0,64,0,11
0,61,0,1
0,66,0,1
0,42,0,1
0,71,0,0
0,59,0,2
0,35,75,1
0,54,79,0
0,58,87,0
0,61,81,0
0,63,93,0
0,35,85,0
0,54,99,0
0,58,107,0
0,61,101,0
0,63,113,0
0,66,96,12
0,66,0,15
0,75,126,19
0,75,0,28
0,76,114,27
0,75,108,10
0,73,103,25
0,71,90,26
0,44,75,4
0,54,77,0
0,59,94,0
0,63,83,0
0,44,85,0
0,54,87,0
0,59,104,0
0,63,93,0
0,71,0,109
0,71,100,82
0,71,0,32
0,59,0,8
0,59,0,0
0,63,0,1
0,63,0,0
0,73,124,5
0,54,0,1
0,54,0,0
0,44,0,16
0,44,0,0
0,73,0,19
0,68,109,8
0,39,71,18
0,54,75,0
0,58,75,0
0,61,93,0
0,39,81,0
0,54,85,0
0,58,85,0
0,61,103,0
0,66,72,5
0,66,0,208
0,44,91,13
0,56,91,0
0,61,100,0
0,66,94,0
0,44,101,0
0,56,101,0
0,61,110,0
0,66,104,0
0,76,122,1
0,60,85,4
0,66,75,0
0,60,95,0
0,66,85,0
0,76,0,47
0,78,119,41
0,78,0,38
0,76,113,26
0,75,109,42
0,60,0,0
0,60,0,0
0,66,0,2
0,66,0,0
0,56,0,16
0,56,0,0
0,44,0,3
0,44,0,0
0,75,0,26
0,73,115,5
0,37,77,12
0,56,75,0
0,59,90,0
0,64,84,0
0,37,97,0
0,56,95,0
0,59,110,0
0,64,104,0
0,68,92,263
0,68,0,15
0,76,116,37
0,76,0,34
0,78,124,20
0,76,114,38
0,59,0,26
0,59,0,0
0,64,0,4
0,64,0,0
0,37,0,3
0,37,0,0
0,56,0,1
0,56,0,0
0,76,0,7
0,75,121,26
0,75,0,48
0,73,110,4
0,42,72,0
0,54,77,0
0,59,102,0
0,64,90,0
0,42,82,0
0,54,87,0
0,59,112,0
0,64,100,0
0,66,103,4
0,59,0,13
0,66,0,5
0,59,0,16
0,64,0,0
0,58,89,2
0,64,89,0
0,58,99,0
0,64,99,0
0,73,122,15
0,73,0,43
0,73,127,18
0,73,0,34
0,73,124,40
0,71,102,19
0,42,0,1
0,42,0,0
0,64,0,4
0,64,0,0
0,58,0,3
0,58,0,0
0,71,0,22
0,75,118,7
0,35,77,66
0,54,85,0
0,58,75,0
0,61,72,0
0,63,87,0
0,35,87,0
0,54,95,0
0,58,85,0
0,61,82,0
0,63,97,0
0,78,102,95
0,78,0,8
0,75,0,21
0,75,77,96
0,73,68,132
0,75,121,70
0,75,0,17
0,75,124,14
0,54,0,6
0,54,0,0
0,58,0,1
0,58,0,0
0,61,0,1
0,61,0,0
0,63,0,5
0,63,0,0
0,35,0,3
0,35,0,0
0,75,0,5
0,56,58,12
0,61,77,0
0,66,78,0
0,32,85,0
0,44,72,0
0,56,89,0
0,61,100,0
0,66,97,0
0,32,95,0
0,44,82,0
0,56,99,0
0,61,110,0
0,66,107,0
0,78,124,5
0,78,118,20
0,78,0,25
0,78,121,1
0,78,0,24
0,78,124,24
0,66,0,5
0,66,0,0
0,56,0,4
0,56,0,0
0,61,0,4
0,61,0,0
0,78,0,15
0,75,118,24
0,60,65,8
0,56,79,0
0,60,85,0
0,66,87,0
0,56,89,0
0,60,95,0
0,66,97,0
0,75,109,20
0,75,0,25
0,78,124,11
0,78,0,34
0,32,0,7
0,32,0,0
0,75,114,5
0,44,0,4
0,44,0,0
0,60,0,2
0,60,0,0
0,66,0,2
0,66,0,0
0,56,0,5
0,56,0,0
0,75,0,11
0,78,124,22
0,64,56,1
0,71,56,0
0,76,60,0
0,59,57,0
0,64,70,0
0,37,75,0
0,49,85,0
0,56,83,0
0,59,104,0
0,64,102,0
0,37,85,0
0,49,95,0
0,56,93,0
0,59,114,0
0,64,112,0
0,64,96,42
0,71,96,0
0,64,106,0
0,71,106,0
0,64,0,12
0,64,0,0
0,71,0,3
0,71,0,0
0,78,0,17
0,49,89,18
0,51,77,0
0,49,79,3
0,59,85,99
0,59,95,0
0,73,115,18
0,61,109,5
0,61,119,0
0,73,0,25
0,75,118,17
0,61,0,4
0,61,0,0
0,51,75,2
0,49,0,10
0,52,80,2
0,67,43,0
0,74,42,0
0,76,112,0
0,55,66,0
0,62,58,0
0,40,81,0
0,55,80,0
0,59,88,0
0,62,94,0
0,64,94,0
0,40,91,0
0,55,90,0
0,59,98,0
0,62,104,0
0,64,104,0
0,76,114,20
0,76,0,32
0,76,122,21
0,76,0,59
0,76,122,22
0,78,115,7
0,64,43,3
0,67,65,8
0,71,70,10
0,74,74,8
0,76,102,9
0,71,96,9
0,44,84,14
0,44,0,3
0,71,0,13
0,75,127,21
0,55,0,0
0,55,0,3
0,55,0,0
0,67,0,1
0,74,0,0
0,59,0,0
0,59,0,0
0,62,0,1
0,62,0,0
0,71,0,1
0,64,0,0
0,64,0,0
0,64,0,1
0,40,0,1
0,40,0,0
0,71,0,1
0,44,75,2
0,68,47,0
0,71,78,0
0,75,56,0
0,56,66,0
0,63,53,0
0,67,0,1
0,62,0,1
0,44,81,0
0,63,85,0
0,44,91,0
0,63,95,0
0,59,98,1
0,59,108,0
0,74,0,8
0,75,0,20
0,73,124,5
0,73,0,28
0,73,124,7
0,73,0,40
0,71,98,9
0,42,85,12
0,56,89,0
0,42,95,0
0,56,99,0
0,44,0,1
0,54,87,0
0,59,104,0
0,63,97,0
0,54,97,0
0,59,114,0
0,63,107,0
0,42,70,4
0,71,88,33
0,71,0,14
0,71,103,30
0,71,0,24
0,75,127,21
0,56,95,3
0,78,127,3
0,56,0,18
0,78,0,9
0,54,0,21
0,54,0,0
0,80,127,6
0,42,0,0
0,63,0,0
0,42,0,0
0,63,0,0
0,59,106,29
0,59,0,17
0,40,82,4
0,40,92,0
0,63,87,2
0,56,0,2
0,63,0,0
0,28,83,2
0,80,61,0
0,59,72,0
0,63,61,0
0,68,71,0
0,56,91,0
0,56,101,0
0,68,82,3
0,52,110,0
0,59,110,0
0,52,120,0
0,59,120,0
0,63,103,2
0,63,113,0
0,63,0,7
0,68,0,4
0,78,109,11
0,73,107,13
0,71,81,7
0,45,54,2
0,59,83,0
0,63,67,0
0,66,71,0
0,33,98,0
0,45,90,0
0,59,96,0
0,63,106,0
0,66,109,0
0,59,110,0
0,33,108,0
0,45,100,0
0,59,106,0
0,63,116,0
0,66,119,0
0,51,11,0
0,66,120,4
0,59,13,2
0,59,0,4
0,75,0,2
0,71,0,1
0,80,0,7
0,51,14,2
0,51,0,4
0,59,16,12
0,59,0,4
0,51,18,12
0,51,0,4
0,59,20,12
0,75,121,12
0,51,22,0
0,51,0,4
0,59,24,12
0,59,0,4
0,51,25,8
0,59,27,12
0,59,0,4
0,75,0,8
0,51,29,4
0,51,0,4
0,59,31,12
0,59,0,4
0,51,33,12
0,75,127,3
0,51,0,1
0,59,34,4
0,59,0,4
0,51,36,12
0,51,0,4
0,59,38,12
0,59,0,4
0,75,0,12
0,51,40,0
0,51,0,4
0,59,42,12
0,59,0,4
0,75,127,12
0,51,44,0
0,51,0,4
0,59,45,12
0,59,0,4
0,51,47,12
0,59,49,12
0,59,0,4
0,75,0,12
0,51,51,0
0,51,0,4
0,59,53,12
0,59,0,4
0,75,127,9
0,51,54,3
0,66,0,4
0,51,0,0
0,59,0,5
0,59,56,7
0,59,0,4
0,51,58,12
0,51,0,4
0,59,60,0
0,59,0,4
0,51,62,12
0,75,0,1
0,59,64,12
0,59,0,4
0,76,127,6
0,51,64,6
0,51,0,4
0,59,66,12
0,59,0,4
0,51,67,9
0,51,0,4
0,59,68,12
0,59,0,4
0,51,70,12
0,51,0,4
0,76,0,2
0,59,71,10
0,59,0,4
0,78,127,4
0,66,104,1
0,75,127,0
0,51,72,1
0,51,0,4
0,59,74,12
0,59,0,4
0,51,75,4
0,51,0,4
0,33,0,4
0,33,0,0
0,59,0,5
0,63,0,0
0,59,0,0
0,63,0,0
0,59,76,0
0,66,0,1
0,66,0,0
0,59,0,3
0,78,0,3
0,45,0,5
0,45,0,0
0,51,77,4
0,51,0,4
0,59,79,12
0,83,127,2
0,51,80,5
0,59,81,7
0,59,0,4
0,51,83,12
0,51,0,4
0,63,0,8
0,59,84,4
0,59,0,4
0,51,85,12
0,51,0,4
0,44,68,5
0,64,71,0
0,71,72,0
0,44,79,0
0,59,100,0
0,64,98,0
0,71,98,0
0,44,89,0
0,59,110,0
0,64,108,0
0,71,108,0
0,57,59,0
0,57,0,4
0,75,0,2
0,66,0,4
0,76,122,1
0,68,107,1
0,78,127,3
0,78,127,9
0,78,0,50
0,76,122,15
0,53,68,24
0,53,0,4
0,68,127,20
0,76,127,0
0,76,0,1
0,64,92,0
0,68,106,0
0,64,102,0
0,68,116,0
0,59,70,4
0,59,107,1
0,59,117,0
0,76,0,2
0,59,0,1
0,66,97,4
0,75,123,0
0,51,62,37
0,51,0,4
0,68,0,7
0,68,0,0
0,59,0,24
0,59,0,0
0,64,115,15
0,64,125,0
0,59,77,2
0,66,0,4
0,59,0,0
0,44,0,4
0,64,95,0
0,73,110,0
0,44,0,0
0,75,0,2
0,64,0,5
0,64,0,0
0,59,0,50
0,44,0,3
0,64,0,2
0,71,0,4
0,42,64,1
0,59,70,0
0,64,65,0
0,42,94,0
0,54,103,0
0,59,115,0
0,64,104,0
0,42,104,0
0,54,113,0
0,59,125,0
0,64,114,0
0,51,54,0
0,51,0,4
0,59,37,12
0,59,0,4
0,51,30,8
0,51,0,4
0,59,24,12
0,59,0,4
0,51,26,12
0,51,0,4
0,59,28,12
0,59,0,4
0,51,30,12
0,51,0,4
0,59,32,12
0,59,0,4
0,51,34,12
0,51,0,4
0,73,99,6
0,59,36,6
0,59,0,4
0,51,38,12
0,51,0,4
0,73,0,8
0,59,40,4
0,59,0,4
0,73,127,10
0,51,42,2
0,51,0,4
0,59,44,12
0,59,0,4
0,73,0,4
0,51,46,1
0,51,0,4
0,73,127,8
0,59,48,4
0,59,0,4
0,51,50,12
0,51,0,4
0,73,0,6
0,59,52,6
0,59,0,4
0,80,127,3
0,51,54,0
0,51,0,4
0,59,56,9
0,64,0,3
0,64,0,0
0,51,58,0
0,51,0,4
0,59,60,12
0,59,0,4
0,80,0,10
0,78,121,10
0,58,70,8
0,54,62,0
0,58,103,0
0,64,92,0
0,54,72,0
0,58,113,0
0,64,102,0
0,51,80,0
0,59,0,1
0,51,0,3
0,78,107,4
0,59,51,24
0,78,0,3
0,59,0,1
0,78,127,20
0,51,58,25
0,51,0,4
0,78,0,8
0,73,127,11
0,42,0,20
0,42,70,1
0,59,69,2
0,54,0,2
0,54,0,0
0,59,0,2
0,44,65,2
0,42,0,5
0,64,0,36
0,44,0,6
0,47,80,1
0,63,74,0
0,47,70,0
0,54,89,0
0,58,87,0
0,61,83,0
0,63,97,0
0,47,80,0
0,54,99,0
0,58,97,0
0,61,93,0
0,63,107,0
0,53,53,9
0,53,0,4
0,54,0,33
0,58,0,0
0,54,0,0
0,58,0,0
0,61,0,1
0,61,0,0
0,63,0,5
0,63,0,0
0,63,118,6
0,54,77,6
0,73,0,14
0,66,91,9
0,59,60,21
0,59,0,4
0,61,113,6
0,63,97,0
0,66,100,0
0,61,123,0
0,63,107,0
0,66,110,0
0,64,111,1
0,51,52,1
0,90,93,1
0,54,0,0
0,56,87,2
0,51,0,1
0,59,29,8
0,59,0,4
0,64,0,22
0,66,127,5
0,57,98,0
0,51,48,2
0,51,0,4
0,59,44,42
0,59,0,4
0,66,0,23
0,57,0,5
0,47,0,5
0,45,78,1
0,57,72,0
0,66,72,0
0,45,80,0
0,61,97,0
0,63,79,0
0,66,85,0
0,45,90,0
0,61,107,0
0,63,89,0
0,66,95,0
0,66,123,3
0,58,0,2
0,59,60,2
0,57,102,2
0,53,60,2
0,59,0,0
0,53,0,4
0,56,99,1
0,64,112,0
0,63,110,2
0,54,75,1
0,51,63,1
0,51,0,4
0,59,59,52
0,59,69,0
0,54,0,3
0,63,0,0
0,59,50,2
0,52,73,3
0,59,0,1
0,61,113,1
0,59,0,7
0,59,0,0
0,44,74,3
0,61,106,0
0,61,116,0
0,51,48,3
0,51,0,4
0,44,0,15
0,45,66,2
0,61,0,5
0,61,0,0
0,45,0,17
0,44,74,2
0,59,69,0
0,44,83,0
0,54,89,0
0,59,102,0
0,63,109,0
0,44,93,0
0,54,99,0
0,59,112,0
0,63,119,0
0,59,77,0
0,59,80,2
0,59,0,2
0,63,101,3
0,61,0,2
0,71,112,34
0,71,127,29
0,53,64,15
0,53,0,4
0,71,122,28
0,54,0,19
0,54,0,0
0,59,0,2
0,59,0,0
0,63,0,1
0,63,0,0
0,44,0,1
0,44,0,0
0,71,0,37
0,71,127,10
0,44,0,3
0,51,59,3
0,42,62,1
0,42,91,0
0,56,83,0
0,59,100,0
0,63,100,0
0,42,101,0
0,56,93,0
0,59,110,0
0,63,110,0
0,51,0,3
0,71,0,77
0,73,127,10
0,59,81,3
0,59,0,4
0,75,127,16
0,78,127,22
0,68,85,21
0,68,100,0
0,68,110,0
0,51,85,0
0,40,73,2
0,61,76,0
0,68,72,0
0,71,86,0
0,40,100,0
0,71,104,0
0,40,110,0
0,71,114,0
0,51,0,2
0,63,0,2
0,76,108,4
0,71,0,30
0,71,0,0
0,68,0,3
0,68,0,0
0,76,0,8
0,75,121,15
0,63,87,8
0,68,89,0
0,63,97,0
0,68,99,0
0,68,0,11
0,68,0,0
0,63,0,1
0,63,0,0
0,73,113,7
0,63,99,3
0,59,65,8
0,59,0,4
0,66,64,3
0,63,0,10
0,59,73,9
0,63,71,10
0,66,65,0
0,71,74,3
0,66,89,14
0,59,80,1
0,63,77,0
0,59,0,30
0,63,0,6
0,59,41,6
0,59,0,4
0,53,67,8
0,53,0,4
0,63,84,43
0,66,78,0
0,66,0,12
0,63,0,3
0,59,42,27
0,59,0,4
0,51,38,30
0,40,0,3
0,51,0,1
0,59,75,2
0,37,71,1
0,54,76,0
0,59,72,0
0,61,0,0
0,64,71,0
0,59,79,0
0,64,70,0
0,37,71,0
0,49,87,0
0,56,85,0
0,59,104,0
0,64,98,0
0,37,81,0
0,49,97,0
0,56,95,0
0,59,114,0
0,64,108,0
0,59,0,3
0,68,0,4
0,49,2,0
0,49,0,4
0,57,3,12
0,57,0,4
0,66,80,3
0,49,5,0
0,49,0,4
0,57,6,12
0,66,0,1
0,57,0,3
0,90,0,10
0,71,107,0
0,71,117,0
0,49,8,0
0,49,0,4
0,71,110,2
0,57,10,10
0,57,0,4
0,49,11,12
0,49,0,4
0,71,0,6
0,57,13,6
0,57,0,4
0,71,0,4
0,71,0,0
0,73,127,1
0,49,14,7
0,49,0,4
0,37,0,4
0,37,0,0
0,49,0,5
0,49,0,0
0,57,16,3
0,57,0,4
0,59,107,12
0,59,117,0
0,49,17,0
0,49,0,4
0,59,54,0
0,59,0,4
0,73,0,1
0,57,19,7
0,57,0,4
0,59,0,6
0,59,0,0
0,49,20,6
0,49,0,4
0,75,127,3
0,57,22,1
0,57,0,4
0,49,23,0
0,49,0,4
0,57,25,12
0,57,0,4
0,71,45,10
0,30,70,2
0,37,0,0
0,83,72,0
0,42,85,0
0,54,89,0
0,64,117,0
0,42,95,0
0,54,99,0
0,64,127,0
0,49,26,0
0,51,58,3
0,49,0,1
0,51,0,3
0,57,28,9
0,57,0,4
0,49,29,0
0,49,0,4
0,75,0,1
0,73,124,10
0,57,31,1
0,57,0,4
0,49,32,0
0,49,0,4
0,57,34,12
0,57,0,4
0,49,36,0
0,49,0,4
0,59,50,4
0,59,0,4
0,73,0,3
0,57,37,1
0,57,0,4
0,49,39,0
0,49,0,4
0,71,120,9
0,57,40,3
0,57,0,4
0,49,42,0
