track,note,velocity,time
0,75,60,0
0,63,59,0
0,55,59,2
0,58,59,0
0,36,127,0
0,42,103,0
0,58,89,0
0,58,67,0
0,67,66,0
0,63,68,0
0,63,91,2
0,49,115,0
0,58,65,108
0,67,65,0
0,63,66,2
0,36,127,0
0,42,104,0
0,67,64,62
0,58,60,0
0,63,68,0
0,63,92,2
0,58,91,0
0,36,127,126
0,42,102,0
0,67,64,0
0,58,60,0
0,63,70,2
0,69,127,16
0,69,109,38
0,36,127,44
0,42,105,0
0,67,56,2
0,63,63,0
0,58,57,0
0,69,127,0
0,58,93,20
0,60,77,10
0,36,127,96
0,58,66,2
0,67,66,0
0,63,70,0
0,42,108,0
0,63,86,0
0,58,95,0
0,67,75,184
0,58,69,0
0,63,67,2
0,36,127,28
0,42,104,0
0,58,67,16
0,68,68,0
0,56,59,0
0,68,97,2
0,58,99,0
0,63,95,0
0,63,69,0
0,36,127,124
0,42,104,2
0,58,68,16
0,63,70,0
0,68,67,0
0,69,107,22
0,69,107,44
0,68,76,40
0,36,127,0
0,42,107,0
0,58,66,2
0,63,65,0
0,69,119,0
0,55,59,4
0,67,71,2
0,58,71,0
0,36,127,0
0,42,108,0
0,63,92,2
0,58,97,0
0,63,69,0
0,58,63,204
0,67,63,0
0,63,62,2
0,36,127,28
0,42,107,0
0,58,60,96
0,67,62,0
0,63,92,2
0,58,93,0
0,63,66,0
0,36,127,124
0,42,104,2
0,63,67,32
0,58,62,0
0,67,65,0
0,69,105,20
0,69,111,36
0,67,64,46
0,36,127,0
0,42,104,0
0,58,61,2
0,63,67,0
0,69,111,0
0,58,97,32
0,60,77,0
0,36,127,0
0,63,71,2
0,58,66,0
0,67,68,0
0,42,101,0
0,63,84,2
0,58,91,0
0,63,71,200
0,67,73,0
0,58,68,0
0,36,127,40
0,42,105,0
0,67,64,96
0,56,59,0
0,68,89,2
0,58,92,0
0,63,63,0
0,58,60,0
0,63,86,2
0,36,127,124
0,38,122,0
0,42,103,2
0,58,68,14
0,63,71,0
0,68,60,2
0,39,104,0
0,36,127,0
0,69,109,2
0,69,112,0
0,38,125,46
0,42,110,0
0,36,90,2
0,68,78,0
0,58,77,0
0,63,75,0
0,55,106,0
0,69,124,0
0,34,101,12
0,36,127,0
0,48,127,2
0,58,87,6
0,41,121,22
0,67,59,8
0,63,59,2
0,58,59,0
0,36,127,0
0,42,111,0
0,39,101,2
0,67,74,0
0,58,71,0
0,60,80,2
0,63,68,0
0,49,115,0
0,58,72,44
0,39,106,4
0,42,86,0
0,67,73,44
0,63,68,0
0,58,70,0
0,36,127,4
0,38,120,0
0,36,97,2
0,42,120,0
0,34,95,0
0,42,85,0
0,58,60,2
0,63,66,0
0,67,58,0
0,36,127,132
0,42,111,0
0,67,63,40
0,58,61,0
0,63,69,2
0,34,99,4
0,42,85,0
0,36,127,148
0,38,120,0
0,42,113,0
0,36,94,2
0,58,62,0
0,67,66,0
0,63,66,0
0,55,92,4
0,34,94,52
0,42,86,0
0,58,81,0
0,60,82,0
0,36,127,4
0,39,93,2
0,63,69,0
0,58,71,0
0,42,110,0
0,67,71,2
0,39,102,60
0,42,80,0
0,67,70,12
0,58,63,0
0,63,64,0
0,60,84,20
0,36,127,8
0,38,117,0
0,42,109,0
0,36,92,2
0,68,59,8
0,42,81,0
0,34,98,2
0,58,59,0
0,63,65,0
0,67,60,0
0,58,79,2
0,36,127,126
0,42,109,0
0,58,72,4
0,68,72,0
0,63,68,0
0,34,96,22
0,42,93,0
0,36,127,140
0,38,122,0
0,42,110,0
0,36,93,2
0,58,79,0
0,68,80,0
0,63,75,0
0,55,80,16
0,34,94,48
0,44,103,0
0,58,82,4
0,67,59,0
0,39,99,2
0,36,127,0
0,42,98,0
0,67,72,2
0,63,67,0
0,58,62,0
0,60,80,4
0,39,100,84
0,42,87,0
0,58,77,8
0,63,73,52
0,67,73,0
0,58,70,2
0,36,127,28
0,38,115,0
0,42,113,0
0,36,95,2
0,34,98,12
0,42,84,0
0,63,67,2
0,58,65,0
0,67,71,0
0,36,127,126
0,42,110,2
0,67,70,0
0,63,64,0
0,58,61,0
0,34,98,32
0,42,78,0
0,58,93,2
0,36,127,148
0,38,117,0
0,42,113,0
0,36,97,2
0,58,71,0
0,63,74,0
0,67,75,0
0,58,81,52
0,34,99,8
0,42,88,0
0,63,85,4
0,36,127,4
0,42,108,0
0,27,110,2
0,63,72,0
0,67,74,2
0,58,68,0
0,27,119,84
0,42,91,0
0,63,71,40
0,67,71,0
0,58,68,0
0,62,80,20
0,36,127,8
0,38,118,0
0,42,110,0
0,36,102,0
0,68,59,8
0,42,89,0
0,34,101,2
0,58,60,0
0,67,65,0
0,60,85,2
0,63,66,0
0,36,127,124
0,42,110,2
0,68,73,0
0,58,71,0
0,63,71,0
0,36,95,0
0,42,88,0
0,58,80,4
0,36,127,140
0,38,118,0
0,42,110,0
0,39,101,2
0,58,71,0
0,63,76,0
0,68,75,0
0,58,76,72
0,36,93,4
0,44,88,0
0,65,59,0
0,70,59,0
0,62,59,2
0,36,127,0
0,42,103,0
0,34,104,2
0,58,60,0
0,62,68,0
0,65,63,0
0,58,93,4
0,34,107,88
0,42,87,0
0,53,80,4
0,70,60,20
0,65,73,0
0,36,127,24
0,38,122,0
0,31,101,2
0,62,59,0
0,42,108,0
0,29,92,12
0,42,92,0
0,70,66,2
0,65,69,0
0,62,64,0
0,36,127,124
0,42,110,0
0,70,70,2
0,65,71,0
0,62,63,0
0,31,105,32
0,42,92,0
0,36,127,140
0,38,118,0
0,42,109,0
0,34,104,2
0,62,67,0
0,65,73,0
0,70,71,0
0,58,71,2
0,31,104,8
0,42,88,0
0,58,91,8
0,36,127,140
0,42,105,0
0,34,101,2
0,65,65,0
0,70,61,0
0,62,55,2
0,58,91,72
0,34,119,4
0,42,90,0
0,65,72,40
0,70,62,0
0,62,62,0
0,55,79,8
0,36,127,4
0,38,120,0
0,42,110,0
0,31,102,2
0,58,93,44
0,29,98,4
0,42,97,0
0,65,72,2
0,62,63,0
0,70,67,0
0,36,127,128
0,42,103,0
0,65,77,14
0,70,73,0
0,62,67,2
0,31,101,28
0,42,92,0
0,60,87,2
0,36,127,140
0,38,115,0
0,42,108,0
0,34,103,2
0,70,77,0
0,65,78,0
0,62,71,0
0,58,80,16
0,36,99,8
0,44,100,0
0,58,82,14
0,63,59,4
0,67,59,2
0,58,59,0
0,36,127,0
0,42,101,0
0,39,102,2
0,58,76,0
0,67,79,0
0,63,72,0
0,63,92,2
0,58,90,0
0,39,108,20
0,42,93,0
0,55,80,4
0,58,71,44
0,63,67,0
0,67,73,0
0,36,127,26
0,38,125,0
0,42,111,0
0,36,102,2
0,34,104,4
0,42,93,0
0,63,91,2
0,58,67,0
0,63,73,0
0,67,75,0
0,58,91,2
0,36,127,132
0,42,103,0
0,67,75,8
0,58,65,0
0,63,70,0
0,36,100,28
0,42,91,0
0,36,127,140
0,38,125,0
0,39,103,2
0,58,74,0
0,67,76,0
0,42,109,0
0,63,70,2
0,36,98,0
0,42,89,0
0,58,99,2
0,60,81,44
0,36,127,80
0,39,99,2
0,63,86,0
0,58,102,0
0,42,103,0
0,39,108,108
0,42,93,0
0,58,71,44
0,67,77,0
0,63,68,2
0,36,127,12
0,38,122,0
0,42,108,0
0,36,99,2
0,68,59,16
0,42,93,0
0,34,104,2
0,67,75,0
0,58,66,0
0,63,66,0
0,68,87,2
0,58,90,0
0,63,85,0
0,36,127,128
0,42,99,0
0,68,83,8
0,58,78,0
0,63,71,0
0,36,99,28
0,42,96,0
0,36,127,128
0,38,118,0
0,39,98,2
0,68,83,0
0,58,82,0
0,42,102,0
0,63,74,2
0,55,92,4
0,36,97,8
0,58,85,60
0,34,104,4
0,44,107,0
0,70,62,52
0,60,83,16
0,67,59,8
0,39,99,2
0,63,67,0
0,36,127,0
0,42,99,0
0,58,71,2
0,67,73,0
0,39,108,4
0,42,95,0
0,58,77,4
0,63,71,44
0,67,74,0
0,58,65,2
0,36,127,20
0,38,115,0
0,42,111,0
0,36,100,2
0,54,111,0
0,34,100,28
0,42,93,0
0,67,69,2
0,58,65,0
0,63,67,0
0,36,127,20
0,42,105,2
0,63,72,10
0,67,74,0
0,58,65,0
0,36,100,32
0,42,94,0
0,36,127,140
0,38,115,0
0,42,110,0
0,39,99,2
0,63,77,0
0,58,70,0
0,55,94,2
0,67,73,0
0,54,111,0
0,58,81,12
0,36,101,8
0,42,96,0
0,60,81,8
0,36,127,4
0,42,105,0
0,27,114,2
0,67,72,0
0,63,69,0
0,58,68,2
0,27,123,104
0,42,90,0
0,63,69,12
0,58,65,0
0,67,66,0
0,36,127,40
0,38,118,0
0,36,105,2
0,42,108,0
0,54,111,0
0,60,80,12
0,68,59,4
0,42,95,0
0,34,106,2
0,63,71,0
0,58,67,0
0,67,73,0
0,58,82,2
0,36,127,136
0,42,95,0
0,68,78,28
0,58,80,0
0,63,69,0
0,36,101,12
0,42,93,0
0,36,127,140
0,38,115,0
0,42,107,0
0,39,103,2
0,68,79,0
0,58,80,0
0,63,73,0
0,54,111,2
0,55,90,0
0,36,94,84
0,44,103,0
0,58,80,0
0,75,43,36
0,58,59,0
0,39,96,2
0,67,59,0
0,36,127,0
0,42,100,0
0,63,73,2
0,67,79,0
0,58,75,0
0,60,80,4
0,42,95,0
0,39,101,2
0,58,77,6
0,58,71,52
0,63,71,0
0,67,71,0
0,36,127,30
0,38,122,0
0,36,95,2
0,42,105,0
0,54,111,0
0,58,81,36
0,34,99,0
0,42,95,0
0,58,71,2
0,63,71,0
0,67,77,0
0,36,127,132
0,42,104,0
0,63,66,10
0,58,65,0
0,67,66,2
0,36,96,0
0,42,94,0
0,36,127,44
0,38,122,0
0,42,108,0
0,39,100,2
0,63,71,0
0,58,72,0
0,67,73,0
0,54,111,2
0,36,90,20
0,34,99,52
0,42,93,0
0,58,85,4
0,36,127,16
0,39,104,2
0,58,71,0
0,63,71,0
0,42,107,0
0,63,78,2
0,67,69,0
0,39,107,104
0,42,91,0
0,67,70,56
0,58,63,0
0,63,67,0
0,36,127,24
0,38,120,0
0,42,107,0
0,36,98,2
0,54,111,0
0,62,74,6
0,68,59,0
0,42,94,0
0,34,102,2
0,63,68,0
0,67,72,0
0,58,63,0
0,60,81,10
0,36,127,126
0,42,108,0
0,58,67,12
0,68,71,0
0,63,66,2
0,36,97,8
0,42,93,0
0,58,86,8
0,36,127,140
0,38,122,0
0,42,102,0
0,39,106,2
0,68,76,0
0,58,69,0
0,63,69,2
0,54,111,0
0,44,96,28
0,55,85,16
0,70,69,16
0,65,59,4
0,70,59,2
0,62,59,0
0,36,127,0
0,42,94,0
0,34,102,2
0,65,74,0
0,62,70,0
0,58,66,0
0,58,87,8
0,34,110,112
0,42,95,0
0,65,65,44
0,62,66,0
0,58,60,2
0,36,127,8
0,38,125,0
0,42,108,0
0,31,110,2
0,54,111,0
0,53,87,0
0,29,101,4
0,42,94,0
0,65,66,2
0,58,56,0
0,62,66,0
0,36,127,124
0,42,101,0
0,65,66,28
0,58,59,0
0,62,68,0
0,31,106,32
0,42,96,0
0,36,127,32
0,38,125,0
0,34,109,2
0,65,70,0
0,62,71,0
0,42,104,0
0,58,91,2
0,58,63,0
0,54,111,0
0,31,103,12
0,42,99,0
0,55,83,8
0,36,127,22
0,34,100,2
0,65,67,0
0,62,66,0
0,42,104,0
0,58,63,0
0,58,93,4
0,34,110,112
0,42,96,0
0,65,65,40
0,58,63,0
0,62,70,2
0,36,127,4
0,38,127,0
0,42,102,0
0,31,101,2
0,54,111,0
0,29,104,70
0,58,67,0
0,42,97,0
0,65,68,2
0,62,71,0
0,58,87,2
0,36,127,136
0,42,100,2
0,58,63,28
0,65,69,0
0,62,72,0
0,31,108,6
0,42,96,0
0,60,82,12
0,36,127,44
0,38,118,0
0,42,108,0
0,34,110,2
0,58,70,0
0,65,73,0
0,62,74,2
0,54,111,0
0,58,91,8
0,31,102,8
0,44,105,0
0,55,81,12
0,58,86,16
0,67,59,4
0,63,59,0
0,58,59,2
0,36,127,0
0,42,103,0
0,39,108,2
0,58,68,0
0,67,68,0
0,63,67,0
0,58,89,2
0,63,92,0
0,39,109,104
0,42,100,0
0,55,80,28
0,58,78,44
0,67,76,0
0,63,74,2
0,36,127,4
0,38,127,0
0,36,103,2
0,42,104,0
0,54,111,0
0,68,59,68
0,42,99,0
0,34,109,2
0,58,68,0
0,67,68,0
0,63,99,2
0,63,71,0
0,36,127,124
0,42,104,0
0,68,78,16
0,58,80,0
0,63,80,0
0,36,95,8
0,42,103,0
0,36,127,140
0,38,125,0
0,42,107,0
0,39,104,2
0,68,82,0
0,63,75,0
0,58,76,0
0,54,111,2
0,36,98,20
0,42,96,0
0,58,99,2
0,60,84,0
0,75,64,80
0,67,59,0
0,39,107,2
0,63,59,0
0,36,127,0
0,42,105,0
0,67,77,2
0,58,80,0
0,63,77,0
0,63,102,2
0,39,110,100
0,42,96,0
0,58,78,44
0,67,76,0
0,63,77,0
0,36,127,0
0,38,127,0
0,36,99,2
0,65,89,0
0,42,107,0
0,54,111,2
0,61,59,12
0,42,95,0
0,27,119,2
0,58,77,0
0,67,73,0
0,63,73,0
0,67,101,0
0,36,127,112
0,42,110,0
0,63,78,30
0,61,78,0
0,67,75,2
0,39,108,16
0,42,105,0
0,70,106,2
0,63,95,2
0,36,127,112
0,38,115,0
0,42,109,0
0,36,101,2
0,61,76,0
0,63,73,0
0,67,71,0
0,72,98,2
0,54,111,0
0,63,95,4
0,38,113,28
0,38,122,0
0,44,100,0
0,34,108,2
0,75,97,0
0,60,90,2
0,38,115,4
0,87,52,68
0,68,59,0
0,32,112,2
0,60,59,0
0,36,127,0
0,42,107,0
0,68,77,2
0,60,75,0
0,63,70,0
0,75,90,2
0,49,115,0
0,63,87,10
0,42,103,0
0,32,112,40
0,42,96,0
0,63,72,52
0,42,99,0
0,68,75,2
0,60,77,0
0,60,70,16
0,36,127,16
0,38,125,0
0,29,108,2
0,42,115,0
0,54,111,0
0,42,95,0
0,27,109,12
0,42,97,0
0,63,77,2
0,68,79,0
0,60,74,0
0,42,95,30
0,36,127,2
0,42,109,0
0,63,76,22
0,42,92,0
0,68,78,2
0,60,72,0
0,63,91,28
0,29,104,4
0,42,97,0
0,69,111,2
0,42,96,32
0,69,106,0
0,36,127,32
0,38,127,0
0,42,111,0
0,32,106,2
0,68,77,0
0,63,80,0
0,60,77,0
0,54,111,2
0,69,124,0
0,42,94,12
0,60,80,4
0,29,101,4
0,42,96,0
0,42,97,56
0,63,91,40
0,36,127,0
0,32,107,2
0,68,79,0
0,42,108,0
0,63,83,2
0,60,69,0
0,42,93,16
0,32,119,56
0,42,99,0
0,63,78,2
0,63,82,54
0,68,76,0
0,42,97,0
0,60,63,2
0,36,127,8
0,38,118,0
0,42,113,0
0,60,80,2
0,29,100,0
0,54,111,0
0,42,92,32
0,27,110,0
0,42,98,0
0,63,82,2
0,68,76,0
0,60,72,0
0,63,89,2
0,42,99,38
0,36,127,32
0,42,107,0
0,63,83,30
0,68,78,0
0,42,96,0
0,60,73,2
0,29,99,40
0,42,100,0
0,69,109,2
0,63,86,6
0,84,41,0
0,42,101,4
0,69,105,0
0,36,127,22
0,38,120,0
0,42,110,0
0,32,104,2
0,63,84,0
0,68,79,0
0,60,77,2
0,54,111,0
0,69,124,0
0,63,87,8
0,42,99,0
0,29,95,0
0,42,103,0
0,63,80,4
0,44,98,2
0,63,89,4
0,58,59,32
0,63,59,0
0,67,59,2
0,36,127,0
0,42,102,0
0,39,112,2
0,58,82,0
0,67,78,0
0,63,76,0
0,82,51,8
0,42,100,24
0,39,109,32
0,42,99,0
0,58,86,12
0,58,77,52
0,42,98,0
0,63,72,2
0,67,76,0
0,36,127,36
0,38,115,0
0,42,108,0
0,36,104,2
0,54,111,0
0,42,93,42
0,34,108,0
0,42,93,0
0,58,73,2
0,63,67,0
0,67,69,0
