track,note,velocity,time
3,37,81,56
3,37,0,257
3,37,80,31
3,37,0,35
3,32,77,61
3,32,0,158
3,32,81,34
3,32,0,168
3,37,77,24
3,37,0,332
3,32,75,52
3,32,0,344
3,35,83,40
3,35,0,257
3,35,77,31
3,35,0,32
3,30,84,64
3,30,0,157
3,30,83,35
3,30,0,161
3,35,82,31
3,35,0,268
3,36,82,20
3,36,0,338
3,37,81,46
3,37,0,354
3,37,76,30
3,37,0,29
3,32,76,67
3,32,0,158
3,32,81,34
3,32,0,164
3,37,80,28
3,37,0,345
3,32,78,39
3,32,0,270
3,37,87,18
3,37,0,21
3,35,79,75
3,35,0,261
3,35,80,27
3,35,0,39
3,30,81,57
3,30,0,158
3,30,90,34
3,30,0,174
3,35,83,18
3,35,0,277
3,36,84,11
3,36,0,345
3,32,89,39
3,32,0,21
3,37,81,75
3,37,0,257
3,37,80,31
3,37,0,35
3,32,77,61
3,32,0,158
3,32,81,34
3,32,0,168
3,37,77,24
3,37,0,332
3,32,75,52
3,32,0,344
3,35,83,40
3,35,0,257
3,35,77,31
3,35,0,32
3,30,84,64
3,30,0,157
3,30,83,35
3,30,0,161
3,35,82,31
3,35,0,268
3,36,82,20
3,36,0,338
3,37,81,46
3,37,0,354
3,37,76,30
3,37,0,29
3,32,76,67
3,32,0,158
3,32,81,34
3,32,0,164
3,37,80,28
3,37,0,345
3,32,78,39
3,32,0,270
3,37,87,18
3,37,0,21
3,35,79,75
3,35,0,261
3,35,80,27
3,35,0,39
3,30,81,57
3,30,0,158
3,30,90,34
3,30,0,174
3,35,90,18
3,35,0,245
3,35,94,43
3,35,0,72
3,30,86,24
3,30,0,147
3,30,94,45
3,30,0,92
3,28,98,4
3,28,0,75
3,33,96,21
3,33,0,239
3,33,94,49
3,33,0,78
3,28,98,18
3,28,0,146
3,28,99,46
3,28,0,162
3,33,92,30
3,33,0,262
3,33,90,26
3,33,0,91
3,28,95,5
3,28,0,142
3,28,103,50
3,28,0,158
3,33,94,34
3,33,0,240
3,33,94,48
3,33,0,88
3,28,99,8
3,28,0,152
3,28,98,40
3,28,0,178
3,33,91,14
3,33,0,230
3,33,90,58
3,33,0,30
3,33,96,66
3,33,0,146
3,33,95,46
3,33,0,184
3,40,95,8
3,40,0,252
3,40,87,36
3,40,0,65
3,35,92,31
3,35,0,184
3,35,100,8
3,35,0,188
3,30,89,4
3,30,0,233
3,30,100,55
3,30,0,84
3,37,91,12
3,37,0,165
3,37,98,27
3,37,0,171
3,32,87,21
3,32,0,252
3,32,89,36
3,32,0,91
3,39,98,5
3,39,0,169
3,39,98,23
3,39,0,168
3,33,99,24
3,33,0,243
3,33,95,45
3,33,0,78
3,40,98,18
3,40,0,181
3,40,98,11
3,40,0,168
3,33,95,24
3,33,0,229
3,33,95,59
3,33,0,26
3,33,98,70
3,33,0,158
3,33,97,34
3,33,0,152
3,35,101,40
3,35,0,239
3,35,92,49
3,35,0,42
3,30,88,54
3,30,0,165
3,30,85,27
3,30,0,142
3,35,95,50
3,35,0,265
3,35,96,23
3,35,0,84
3,36,95,12
3,36,0,171
3,36,89,21
3,36,0,165
3,34,90,27
3,34,0,249
3,34,91,39
3,34,0,27
3,29,108,69
3,29,0,158
3,29,103,34
3,29,0,168
3,34,93,24
3,34,0,236
3,34,91,52
3,34,0,26
3,29,105,70
3,29,0,165
3,29,109,27
3,29,0,136
3,33,103,56
3,33,0,243
3,33,101,45
3,33,0,36
3,28,112,60
3,28,0,165
3,28,103,27
3,28,0,152
3,33,106,40
3,33,0,227
3,33,100,61
3,33,0,29
3,28,103,67
3,28,0,152
3,28,102,40
3,28,0,159
3,32,91,33
3,32,0,236
3,32,91,52
3,32,0,39
3,39,99,57
3,39,0,168
3,39,93,24
3,39,0,162
3,32,96,30
3,32,0,214
3,32,91,74
3,32,0,46
3,39,93,50
3,39,0,162
3,39,104,30
3,39,0,8
3,31,98,17
3,31,0,252
3,31,91,36
3,31,0,26
3,38,108,70
3,38,0,168
3,38,95,24
3,38,0,175
3,31,95,17
3,31,0,227
3,31,89,61
3,31,0,26
3,38,108,70
3,38,0,185
3,31,101,7
3,31,0,4
3,30,105,5
3,30,0,249
3,30,91,39
3,30,0,26
3,37,96,70
3,37,0,275
3,42,101,13
3,42,0,81
3,40,108,15
3,40,0,249
3,40,94,39
3,40,0,65
3,35,95,31
3,35,0,177
3,35,87,15
3,35,0,117
3,38,103,75
3,38,0,252
3,38,91,36
3,38,0,23
3,33,102,73
3,33,0,158
3,33,96,34
3,33,0,158
3,38,103,34
3,38,0,256
3,38,93,32
3,38,0,27
3,33,99,69
3,33,0,155
3,33,95,37
3,33,0,117
3,35,86,75
3,35,0,249
3,35,81,39
3,35,0,26
3,30,95,70
3,30,0,155
3,30,93,37
3,30,0,155
3,35,79,37
3,35,0,236
3,35,73,52
3,35,0,26
3,30,86,70
3,30,0,336
3,36,81,48
3,36,0,233
3,36,86,55
3,36,0,23
3,31,86,73
3,31,0,155
3,31,85,37
3,31,0,168
3,36,73,24
3,36,0,259
3,36,67,29
3,36,0,20
3,31,85,76
3,31,0,323
3,37,81,61
3,37,0,257
3,37,80,31
3,37,0,35
3,32,77,61
3,32,0,158
3,32,81,34
3,32,0,168
3,37,77,24
3,37,0,332
3,32,75,52
3,32,0,276
3,35,83,12
3,35,0,354
3,35,77,30
3,35,0,32
3,30,84,64
3,30,0,157
3,30,83,35
3,30,0,161
3,35,82,31
3,35,0,268
3,36,82,20
3,36,0,338
3,37,81,46
3,37,0,354
3,37,76,30
3,37,0,29
3,32,76,67
3,32,0,158
3,32,81,34
3,32,0,164
3,37,80,28
3,37,0,345
3,32,78,39
3,32,0,270
3,37,87,18
3,37,0,21
3,35,79,75
3,35,0,261
3,35,80,27
3,35,0,39
3,30,81,57
3,30,0,158
3,30,90,34
3,30,0,174
3,35,90,18
3,35,0,245
3,35,94,43
3,35,0,72
3,30,86,24
3,30,0,147
3,30,94,45
3,30,0,92
3,28,98,4
3,28,0,75
3,33,96,21
3,33,0,239
3,33,94,49
3,33,0,78
3,28,98,18
3,28,0,146
3,28,99,46
3,28,0,162
3,33,92,30
3,33,0,262
3,33,90,26
3,33,0,91
3,28,95,5
3,28,0,142
3,28,103,50
3,28,0,158
3,33,94,34
3,33,0,240
3,33,94,48
3,33,0,88
3,28,99,8
3,28,0,152
3,28,98,40
3,28,0,178
3,33,91,14
3,33,0,230
3,33,90,58
3,33,0,30
3,33,96,66
3,33,0,146
3,33,95,46
3,33,0,48
3,40,95,8
3,40,0,243
3,40,87,36
3,40,0,65
3,35,92,31
3,35,0,184
3,35,100,8
3,35,0,188
3,30,89,4
3,30,0,233
3,30,100,55
3,30,0,84
3,37,91,12
3,37,0,165
3,37,98,27
3,37,0,171
3,32,87,21
3,32,0,252
3,32,89,36
3,32,0,91
3,39,98,5
3,39,0,169
3,39,98,23
3,39,0,168
3,33,99,24
3,33,0,243
3,33,95,45
3,33,0,78
3,40,98,18
3,40,0,181
3,40,98,11
3,40,0,168
3,33,95,24
3,33,0,229
3,33,95,59
3,33,0,26
3,33,98,70
3,33,0,158
3,33,97,34
3,33,0,152
3,35,101,40
3,35,0,239
3,35,92,49
3,35,0,42
3,30,88,54
3,30,0,165
3,30,85,27
3,30,0,142
3,35,95,50
3,35,0,265
3,35,96,23
3,35,0,84
3,36,95,12
3,36,0,171
3,36,89,21
3,36,0,165
3,34,90,27
3,34,0,249
3,34,91,39
3,34,0,27
3,29,108,69
3,29,0,158
3,29,103,34
3,29,0,168
3,34,93,24
3,34,0,236
3,34,91,52
3,34,0,26
3,29,105,70
3,29,0,165
3,29,109,27
3,29,0,136
3,33,103,56
3,33,0,243
3,33,101,45
3,33,0,36
3,28,112,60
3,28,0,165
3,28,103,27
3,28,0,152
3,33,106,40
3,33,0,227
3,33,100,61
3,33,0,29
3,28,103,67
3,28,0,152
3,28,102,40
3,28,0,159
3,32,91,33
3,32,0,236
3,32,91,52
3,32,0,39
3,39,99,57
3,39,0,168
3,39,93,24
3,39,0,162
3,32,96,30
3,32,0,214
3,32,91,74
3,32,0,46
3,39,93,50
3,39,0,162
3,39,104,30
3,39,0,8
3,31,98,17
3,31,0,252
3,31,91,36
3,31,0,26
3,38,108,70
3,38,0,168
3,38,95,24
3,38,0,175
3,31,95,17
3,31,0,227
3,31,89,61
3,31,0,26
3,38,108,70
3,38,0,185
3,31,101,7
3,31,0,4
3,30,105,5
3,30,0,249
3,30,91,39
3,30,0,26
3,37,96,70
3,37,0,275
3,42,101,13
3,42,0,81
3,40,108,15
3,40,0,249
3,40,94,39
3,40,0,65
3,35,95,31
3,35,0,177
3,35,87,15
3,35,0,117
3,38,111,75
3,38,0,252
3,38,91,36
3,38,0,23
3,33,102,73
3,33,0,158
3,33,96,34
3,33,0,158
3,38,103,34
3,38,0,256
3,38,93,32
3,38,0,27
3,33,99,69
3,33,0,155
3,33,95,37
3,33,0,117
3,35,86,75
3,35,0,249
3,35,81,39
3,35,0,26
3,30,95,70
3,30,0,155
3,30,93,37
3,30,0,155
3,35,79,37
3,35,0,236
3,35,73,52
3,35,0,26
3,30,86,70
3,30,0,336
3,35,86,48
3,35,0,249
3,35,81,39
3,35,0,26
3,30,95,70
3,30,0,155
3,30,93,37
3,30,0,155
3,35,79,37
3,35,0,236
3,35,73,52
3,35,0,26
3,30,86,70
3,30,0,336
3,36,81,48
3,36,0,233
3,36,86,55
3,36,0,23
3,31,86,73
3,31,0,155
3,31,85,37
3,31,0,168
3,36,73,24
3,36,0,259
3,36,67,29
3,36,0,20
3,31,85,76
3,31,0,323
3,36,81,61
3,36,0,233
3,36,86,55
3,36,0,23
3,31,86,73
3,31,0,155
3,31,85,37
3,31,0,168
3,36,73,24
3,36,0,259
3,36,67,29
3,36,0,20
3,31,85,76
3,31,0,323
3,37,81,61
3,37,0,257
3,32,77,127
3,32,0,158
3,32,81,34
3,32,0,168
3,37,77,24
3,37,0,332
3,32,75,52
3,32,0,344
3,35,83,40
3,35,0,257
3,30,84,127
3,30,0,157
3,30,83,35
3,30,0,161
3,35,82,31
3,35,0,268
3,36,82,20
3,36,0,172
3,37,81,212
3,37,0,172
3,37,80,212
3,37,0,35
3,32,77,61
3,32,0,158
3,32,81,34
3,32,0,168
3,37,77,24
3,37,0,332
3,32,75,52
3,32,0,344
3,35,83,40
3,35,0,257
3,30,84,127
3,30,0,157
3,30,83,35
3,30,0,161
3,35,82,31
3,35,0,268
3,36,82,20
3,36,0,338
3,37,81,46
3,37,0,354
3,37,80,30
3,37,0,35
3,32,77,61
3,32,0,158
3,32,81,34
3,32,0,168
3,37,77,24
3,37,0,332
3,32,75,52
3,32,0,344
3,35,83,40
3,35,0,257
3,30,84,127
3,30,0,157
3,30,83,35
3,30,0,161
3,35,82,31
3,35,0,268
3,36,82,20
3,36,0,184
3,37,81,200
3,37,0,354
3,37,80,30
3,37,0,35
3,32,77,61
3,32,0,158
3,32,81,34
3,32,0,8
3,29,97,24
3,29,0,174
3,30,99,4
3,30,0,182
3,29,99,10
3,29,0,78
3,32,109,18
3,32,0,92
3,37,92,4
3,37,0,84
3,36,86,12
3,36,0,87
3,35,83,9
3,35,0,257
3,35,77,31
3,35,0,32
3,30,84,64
3,30,0,157
3,30,83,35
3,30,0,161
3,35,82,31
3,35,0,268
3,36,82,20
3,36,0,338
3,37,81,46
3,37,0,92
3,37,81,4
3,37,0,257
3,32,77,96
3,32,0,62
3,32,81,34
3,32,0,72
3,37,77,24
3,37,0,97
3,37,76,92
3,37,0,17
3,37,95,84
3,37,0,80
3,44,80,4
3,44,0,85
3,37,80,3
3,37,0,82
3,35,83,11
3,35,0,257
3,30,84,96
3,30,0,61
3,30,83,35
3,30,0,65
3,35,82,31
3,35,0,172
3,36,82,20
3,36,0,184
3,37,81,192
3,37,0,25
3,37,80,167
3,37,0,35
3,32,77,61
3,32,0,62
3,32,81,34
3,32,0,72
3,37,77,24
3,37,0,44
3,32,75,52
3,32,0,56
3,35,83,40
3,35,0,257
3,30,84,96
3,30,0,61
3,30,83,35
3,30,0,65
3,35,82,31
3,35,0,172
3,36,82,20
3,36,0,146
4,71,60,12360
4,74,69,0
4,71,0,765
4,74,0,0
4,72,71,3
4,76,65,0
4,72,0,765
4,76,0,0
4,69,63,3
4,74,73,0
4,69,0,765
4,74,0,0
4,72,69,3
4,76,77,0
4,72,0,765
4,76,0,0
4,71,71,3
4,75,81,0
4,71,0,765
4,75,0,0
4,73,70,3
4,76,75,0
4,73,0,765
4,76,0,0
4,71,77,3
4,75,79,0
4,71,0,36
4,75,0,0
4,73,91,48
4,78,82,1
4,76,94,3
4,81,85,1
4,73,0,5
4,76,0,0
4,78,0,3
4,81,0,0
4,67,74,19
4,72,69,0
4,76,97,1
4,69,76,2
4,67,0,517
4,76,0,2
4,69,0,3
4,72,0,0
4,64,61,150
4,68,63,0
4,73,76,0
4,64,0,93
4,68,0,0
4,73,0,0
4,71,54,7668
4,74,63,0
4,71,0,765
4,74,0,0
4,72,65,3
4,76,59,0
4,72,0,765
4,76,0,0
4,69,57,3
4,74,67,0
4,69,0,765
4,74,0,0
4,72,63,3
4,76,71,0
4,72,0,765
4,76,0,0
4,71,60,3
4,75,65,0
4,71,0,765
4,75,0,0
4,73,64,3
4,76,69,0
4,73,0,765
4,76,0,0
4,71,77,3
4,75,79,0
4,71,0,108
4,75,0,0
4,73,91,48
4,78,82,1
4,76,94,3
4,81,85,1
4,73,0,5
4,76,0,0
4,78,0,3
4,81,0,0
4,67,74,19
4,72,69,0
4,76,97,1
4,69,76,2
4,67,0,485
4,76,0,2
4,69,0,3
4,72,0,0
4,64,57,150
4,68,59,0
4,73,72,0
4,64,0,93
4,68,0,0
4,73,0,0
4,75,51,764
4,78,55,1
4,81,64,170
4,75,0,4
4,77,55,0
4,78,0,7
4,76,60,191
4,80,51,1
4,77,0,13
4,81,0,3
4,77,64,158
4,81,64,1
4,76,0,10
4,80,0,3
4,78,56,173
4,82,66,0
4,77,0,13
4,81,0,1
4,76,64,71
4,80,55,4
4,78,0,10
4,82,0,3
4,77,60,172
4,81,61,1
4,76,0,6
4,80,0,10
4,77,0,178
4,81,0,7
5,71,95,6311
5,71,0,35
5,73,104,65
5,73,0,61
5,74,64,4
5,74,0,26
5,75,113,4
5,75,0,49
5,75,118,39
5,75,0,6
5,71,112,12
5,71,0,75
5,68,127,20
5,68,0,68
5,74,100,20
5,74,0,22
5,75,108,4
5,75,0,75
5,73,103,10
5,73,0,164
5,73,84,506
5,73,0,62
5,73,103,35
5,73,0,56
5,73,113,32
5,73,0,68
5,74,103,20
5,74,0,11
5,76,108,14
5,76,0,24
5,73,99,17
5,73,0,201
5,68,102,567
5,68,0,23
5,75,108,68
5,75,0,62
5,75,105,32
5,75,0,49
5,75,118,46
5,75,0,12
5,71,106,13
5,71,0,75
5,68,113,16
5,68,0,56
5,74,74,19
5,74,0,33
5,75,116,4
5,75,0,84
5,73,99,6
5,73,0,226
5,73,108,224
5,73,0,36
5,73,105,62
5,73,0,54
5,73,104,25
5,73,0,58
5,73,105,29
5,73,0,66
5,73,101,12
5,73,0,54
5,74,106,19
5,74,0,38
5,76,106,9
5,76,0,88
5,73,102,10
5,73,0,239
5,72,116,664
5,72,0,77
5,74,119,27
5,74,0,50
5,76,116,4
5,76,0,61
5,72,91,183
5,72,0,91
5,74,101,16
5,74,0,78
5,76,103,10
5,76,0,75
5,74,111,22
5,74,0,17
5,72,113,4
5,72,0,88
5,71,110,7
5,71,0,84
5,69,95,10
5,69,0,68
5,72,101,124
5,72,0,20
5,72,110,78
5,72,0,29
5,74,127,75
5,74,0,8
5,76,116,7
5,76,0,84
5,72,91,163
5,72,0,19
5,74,113,33
5,74,0,36
5,76,116,23
5,76,0,39
5,74,113,36
5,74,0,34
5,72,108,8
5,72,0,49
5,71,110,39
5,71,0,46
5,69,122,13
5,69,0,62
5,71,119,29
5,71,0,359
