track,note,velocity,time
0,52,77,48
0,56,76,0
0,59,72,0
0,64,77,0
0,40,111,1
0,47,104,0
0,52,100,6
0,59,72,0
0,56,119,2
0,64,119,3
0,64,0,28
0,59,0,4
0,56,0,3
0,52,0,3
0,64,89,2
0,59,89,3
0,56,89,2
0,52,89,2
0,52,0,24
0,52,0,3
0,56,0,1
0,40,0,1
0,47,0,1
0,59,0,2
0,52,77,1
0,47,88,2
0,64,0,0
0,40,84,1
0,59,80,2
0,56,0,1
0,64,72,1
0,52,78,1
0,59,0,1
0,56,80,1
0,64,0,0
0,59,82,1
0,64,112,2
0,64,0,28
0,59,0,2
0,64,0,4
0,59,0,4
0,64,95,1
0,56,0,1
0,52,0,1
0,59,92,0
0,59,86,1
0,64,89,0
0,52,0,1
0,56,111,2
0,52,94,2
0,40,0,1
0,52,87,1
0,40,86,3
0,52,0,21
0,40,0,1
0,40,79,5
0,59,0,1
0,52,75,2
0,64,0,0
0,47,0,1
0,52,0,3
0,59,78,0
0,54,78,1
0,47,80,0
0,56,0,1
0,64,75,0
0,52,73,1
0,59,0,1
0,54,0,1
0,56,91,1
0,64,0,1
0,59,96,1
0,64,100,2
0,64,0,27
0,59,0,5
0,52,0,8
0,59,78,3
0,52,127,5
0,52,0,25
0,64,0,6
0,59,0,0
0,40,0,1
0,52,95,0
0,47,0,1
0,57,89,0
0,42,118,1
0,59,0,0
0,52,0,1
0,49,97,1
0,56,0,0
0,52,77,2
0,57,114,1
0,61,89,1
0,61,90,1
0,66,118,2
0,66,93,3
0,52,0,76
0,66,0,7
0,61,0,1
0,52,72,3
0,66,72,3
0,57,0,1
0,57,74,4
0,66,0,28
0,61,0,1
0,61,102,4
0,66,101,0
0,57,0,1
0,57,0,0
0,52,0,2
0,52,0,1
0,57,99,1
0,52,73,2
0,42,0,2
0,66,0,1
0,42,88,2
0,52,95,4
0,66,92,3
0,61,86,3
0,57,92,2
0,42,0,19
0,52,0,3
0,57,0,0
0,52,75,2
0,61,0,2
0,69,107,4
0,66,0,0
0,57,79,2
0,52,0,2
0,61,76,1
0,66,75,2
0,52,77,2
0,66,0,27
0,61,0,3
0,68,78,1
0,52,0,0
0,57,0,1
0,61,77,2
0,57,84,2
0,66,0,1
0,61,0,4
0,52,94,5
0,68,87,3
0,61,87,2
0,49,0,22
0,52,0,3
0,49,90,1
0,57,0,1
0,52,62,1
0,61,0,0
0,57,88,1
0,61,0,0
0,61,87,2
0,68,0,0
0,68,0,0
0,57,0,2
0,68,118,2
0,52,0,0
0,61,79,2
0,57,78,1
0,54,79,1
0,54,0,4
0,52,73,0
0,68,0,27
0,61,0,2
0,57,0,2
0,68,104,0
0,52,0,2
0,61,89,0
0,52,0,1
0,57,101,1
0,52,82,2
0,61,0,9
0,57,0,3
0,68,92,0
0,52,90,1
0,61,94,4
0,57,89,3
0,52,0,16
0,49,0,1
0,49,77,2
0,57,0,0
0,57,0,0
0,52,78,2
0,61,0,1
0,68,0,5
0,52,0,3
0,57,72,0
0,61,77,2
0,66,72,3
0,69,0,1
0,69,113,1
0,52,80,0
0,68,0,24
0,61,0,2
0,61,79,2
0,52,0,1
0,66,118,0
0,49,0,3
0,57,93,1
0,52,87,2
0,52,0,1
0,40,90,2
0,66,0,2
0,61,0,3
0,68,92,2
0,57,0,2
0,69,0,2
0,52,92,3
0,66,93,2
0,61,89,2
0,57,91,2
0,40,0,15
0,47,98,4
0,40,118,1
0,57,0,2
0,61,0,1
0,56,121,2
0,66,0,0
0,52,0,1
0,59,121,1
0,57,0,0
0,64,118,1
0,52,0,0
0,61,0,0
0,66,0,0
0,56,72,7
0,52,72,1
0,59,77,1
0,64,72,5
0,68,0,3
0,64,0,31
0,59,0,6
0,64,104,2
0,56,0,2
0,64,85,4
0,59,92,3
0,56,93,2
0,40,0,19
0,47,0,2
0,40,86,2
0,56,0,1
0,47,93,1
0,56,0,1
0,52,95,2
0,59,0,1
0,56,76,1
0,59,0,0
0,64,0,1
0,52,0,0
0,59,77,1
0,64,107,3
0,52,75,0
0,64,0,0
0,56,77,3
0,59,79,3
0,64,0,1
0,64,77,1
0,64,0,24
0,59,0,3
0,64,87,1
0,56,0,1
0,59,78,2
0,52,0,1
0,56,101,2
0,52,70,2
0,64,0,1
0,40,0,1
0,40,84,3
0,59,0,1
0,59,89,1
0,56,0,3
0,64,91,4
0,59,93,3
0,56,93,2
0,40,0,15
0,40,75,4
0,56,0,8
0,59,0,4
0,52,0,1
0,54,72,3
0,64,0,0
0,52,73,1
0,54,0,3
0,56,77,0
0,59,78,2
0,64,78,2
0,64,0,22
0,59,0,3
0,59,93,3
0,64,72,1
0,56,0,1
0,52,0,2
0,56,92,2
0,64,0,0
0,52,86,1
0,40,0,1
0,59,0,2
0,40,81,1
0,56,0,3
0,64,87,5
0,59,87,2
0,56,88,2
0,59,0,11
0,40,0,9
0,56,0,0
0,59,0,1
0,64,0,0
0,47,0,2
0,42,122,1
0,52,0,0
0,49,105,2
0,56,0,0
0,52,115,2
0,59,0,0
0,52,0,0
0,64,0,1
0,57,119,1
0,61,123,1
0,57,94,0
0,66,119,1
0,61,88,1
0,66,87,1
0,52,92,2
0,57,0,91
0,66,0,2
0,52,0,7
0,57,76,1
0,61,0,0
0,66,77,0
0,52,75,1
0,66,0,25
0,61,0,2
0,61,93,4
0,66,66,0
0,57,0,1
0,52,0,2
0,57,82,2
0,52,68,2
0,52,0,5
0,57,0,1
0,57,92,5
0,66,93,0
0,52,91,1
0,61,90,4
0,57,79,2
0,66,0,0
0,61,0,1
0,61,82,0
0,68,114,1
0,66,0,3
0,52,0,3
0,57,72,0
0,61,77,2
0,66,79,2
0,52,73,3
0,68,87,1
0,57,0,2
0,52,0,0
0,61,75,1
0,57,84,2
0,66,0,1
0,61,0,7
0,52,92,2
0,57,0,3
0,68,88,0
0,61,92,5
0,57,91,2
0,66,99,8
0,49,95,2
0,42,123,1
0,52,0,0
0,61,0,0
0,52,102,1
0,61,0,0
0,68,0,1
0,68,0,0
0,57,121,1
0,61,117,1
0,68,118,2
0,54,73,0
0,52,0,0
0,57,78,0
0,61,74,2
0,54,0,2
0,68,76,0
0,52,72,1
0,68,98,0
0,61,90,2
0,52,0,1
0,57,85,1
0,52,0,0
0,52,66,1
0,42,0,1
0,42,74,3
0,68,0,0
0,61,0,4
0,57,0,3
0,52,93,1
0,68,92,2
0,61,88,2
0,57,94,2
0,42,0,16
0,49,0,3
0,57,0,0
0,42,96,1
0,52,0,1
0,61,0,1
0,49,75,1
0,57,0,1
0,52,77,1
0,61,0,1
0,68,0,0
0,57,96,1
0,68,0,1
0,61,85,1
0,66,121,1
0,52,0,0
0,57,77,2
0,61,74,3
0,66,77,2
0,52,72,2
0,66,0,26
0,61,0,3
0,57,0,3
0,61,82,0
0,66,88,0
0,52,0,1
0,57,87,3
0,66,0,1
0,61,0,4
0,52,92,4
0,66,94,2
0,61,94,2
0,64,114,5
0,66,0,9
0,52,0,15
0,57,0,2
0,61,0,1
0,52,123,1
0,66,0,0
0,61,0,0
0,66,0,0
0,56,121,1
0,52,0,0
0,59,117,1
0,64,122,1
0,42,0,2
0,40,97,2
0,57,0,0
0,52,78,5
0,56,75,1
0,59,73,2
0,64,76,1
0,64,0,9
0,64,0,29
0,59,0,2
0,56,0,6
0,52,0,4
0,59,89,0
0,64,90,0
0,56,87,5
0,59,53,2
0,52,91,0
0,52,0,17
0,49,0,2
0,52,0,2
0,56,0,0
0,47,100,2
0,56,0,1
0,52,76,1
0,59,0,0
0,59,0,1
0,56,93,2
0,64,0,0
0,64,0,1
0,59,73,1
0,52,76,0
0,64,117,2
0,56,78,1
0,59,73,2
0,64,78,2
0,59,0,3
0,64,0,25
0,59,0,3
0,59,95,3
0,64,72,0
0,64,0,0
0,56,0,2
0,59,0,2
0,56,92,1
0,56,0,4
0,64,91,4
0,59,93,3
0,56,94,2
0,40,0,7
0,40,79,14
0,47,0,3
0,52,0,2
0,47,80,1
0,56,0,1
0,52,73,1
0,59,0,0
0,56,0,1
0,56,111,1
0,64,0,0
0,59,79,2
0,59,0,1
0,64,123,1
0,52,0,0
0,64,0,2
0,54,78,2
0,52,78,0
0,56,78,2
0,54,0,2
0,59,76,0
0,64,73,2
0,64,0,32
0,59,0,3
0,56,0,6
0,59,92,4
0,64,85,1
0,56,91,5
0,40,0,24
0,47,0,2
0,52,0,1
0,42,122,1
0,56,0,0
0,52,81,1
0,56,0,0
0,49,114,1
0,59,0,0
0,64,0,0
0,57,97,1
0,59,0,0
0,64,0,1
0,61,121,1
0,66,123,1
0,57,91,1
0,66,91,1
0,52,0,1
0,61,90,0
0,52,89,3
0,57,0,87
0,52,0,1
0,61,0,1
0,66,0,0
0,57,77,2
0,66,75,0
0,52,73,1
0,61,77,1
0,66,0,36
0,61,0,3
0,57,0,2
0,66,84,0
0,52,0,0
0,52,0,2
0,61,82,0
0,57,0,0
0,49,0,2
0,57,88,0
0,52,84,2
0,66,0,0
0,42,0,1
0,49,63,1
0,42,90,2
0,52,92,0
0,61,0,2
0,66,90,1
0,61,90,2
0,61,0,25
0,66,0,4
0,57,0,4
0,52,0,0
0,57,73,2
0,61,0,1
0,57,95,1
0,61,75,1
0,61,81,1
0,66,0,0
0,66,74,1
0,68,106,1
0,52,77,1
0,52,0,32
0,68,0,1
0,61,0,2
0,68,91,1
0,57,0,1
0,66,0,0
0,61,77,2
0,57,98,2
0,61,0,0
0,42,0,3
0,52,92,2
0,42,66,1
0,68,89,2
0,61,89,2
0,61,0,26
0,68,0,1
0,42,0,1
0,49,0,1
0,52,0,2
0,57,0,0
0,49,74,1
0,52,0,0
0,42,119,1
0,57,0,1
0,52,104,2
0,61,0,0
0,57,123,1
0,68,0,0
0,61,116,2
0,68,122,1
0,57,77,0
0,68,77,1
0,61,75,1
0,54,75,3
0,52,78,0
0,54,0,4
0,68,0,30
0,61,0,1
0,52,0,0
0,57,0,2
0,68,83,0
0,52,0,2
0,61,77,0
0,68,0,0
0,57,90,1
0,61,0,1
0,52,73,1
0,42,0,1
0,42,83,2
0,57,0,0
0,52,91,7
0,68,95,3
0,61,87,2
0,57,93,2
0,57,0,18
0,49,0,2
0,61,0,1
0,42,0,1
0,52,0,0
0,42,96,2
0,57,0,0
0,68,0,1
0,49,77,1
0,61,0,0
0,57,93,2
0,68,0,0
0,52,0,1
0,61,74,1
0,66,110,1
0,57,72,0
0,61,74,3
0,66,77,2
0,52,73,2
0,66,0,29
0,61,0,3
0,57,0,2
0,66,101,0
0,49,0,2
0,61,76,0
0,52,0,1
0,57,102,1
0,42,0,2
0,52,81,0
0,66,0,2
0,42,74,1
0,61,0,3
0,57,0,3
0,52,89,1
0,66,91,3
0,61,93,2
0,57,95,1
0,42,0,21
0,52,0,2
0,47,96,3
0,57,0,1
0,61,0,1
0,52,106,1
0,66,0,0
0,56,117,1
0,59,121,2
0,64,117,1
0,57,0,2
0,61,0,1
0,66,0,0
0,52,0,1
0,52,76,2
0,59,77,0
0,64,75,0
0,64,0,40
0,59,0,4
0,52,0,6
0,64,91,2
0,59,87,3
0,56,88,2
0,52,94,2
0,52,0,20
0,56,0,3
0,52,0,2
0,56,0,2
0,59,0,0
0,52,80,2
0,59,0,0
0,64,0,1
0,56,82,1
0,64,0,1
0,52,73,1
0,59,115,1
0,56,78,1
0,64,114,1
0,59,80,2
0,64,74,2
0,64,0,28
0,59,0,3
0,59,75,3
0,64,0,0
0,64,109,1
0,56,0,1
0,59,0,0
0,52,0,2
0,56,92,2
0,52,70,2
0,47,0,1
0,56,0,0
0,40,66,3
0,52,0,1
0,59,92,0
0,64,87,1
0,56,92,5
0,52,94,2
0,52,0,21
0,40,0,1
0,56,0,2
0,52,0,2
0,40,116,2
0,59,0,0
0,64,0,2
0,47,84,1
0,56,0,0
0,52,74,2
0,52,76,0
0,59,0,1
0,56,88,1
0,56,73,0
0,59,75,2
0,59,80,0
0,54,75,1
0,64,0,0
0,64,77,1
0,64,106,1
0,54,0,2
0,64,0,25
0,59,0,4
0,64,107,2
0,56,0,1
0,64,0,0
0,59,87,2
0,52,0,1
0,56,97,1
0,59,0,1
0,52,57,1
0,40,0,2
0,56,0,1
0,40,60,2
0,52,0,2
0,64,91,1
0,59,88,2
0,56,91,3
0,52,93,2
0,52,0,18
0,56,0,1
0,59,0,0
0,64,0,0
0,40,0,6
0,47,0,1
0,52,0,2
0,49,110,1
0,56,0,0
0,42,114,1
0,52,89,1
0,59,0,0
0,57,121,1
0,64,0,1
0,61,119,1
0,66,112,1
0,61,91,0
0,57,93,1
0,66,89,1
0,52,97,1
0,52,0,93
0,52,78,7
0,66,0,1
0,57,0,1
0,61,0,0
0,66,73,1
0,61,74,2
0,57,79,3
0,52,0,27
0,66,0,2
0,61,0,3
0,66,78,2
0,57,0,0
0,57,0,1
0,61,83,1
0,61,0,2
0,57,87,1
0,52,94,2
0,66,0,0
0,42,0,1
0,66,92,2
0,42,85,2
0,61,86,1
0,57,88,2
0,57,0,22
0,61,0,4
0,66,0,4
0,52,0,4
0,57,77,1
0,61,73,3
0,66,78,2
0,52,74,2
0,66,0,31
0,52,0,0
0,61,0,3
0,68,106,2
0,57,0,1
0,66,0,0
0,52,0,2
0,61,92,0
0,49,0,2
0,57,89,0
0,61,0,0
0,42,0,2
0,52,91,0
0,49,74,2
0,52,91,1
0,42,74,1
0,68,89,2
0,61,93,2
0,61,0,27
0,68,0,3
0,42,0,1
0,57,0,2
0,49,0,1
0,52,0,0
0,52,0,0
0,42,113,1
0,52,76,1
0,49,108,1
0,57,0,0
0,61,0,0
0,61,76,0
0,57,79,1
0,54,74,1
0,68,79,0
0,57,122,1
0,61,77,0
0,68,0,0
0,54,0,3
0,52,77,0
0,68,120,1
0,52,0,33
0,68,0,3
0,61,0,3
0,68,0,0
0,57,0,2
0,68,80,0
0,52,0,2
0,61,87,0
0,57,85,1
0,61,0,1
0,52,80,1
0,42,0,1
0,57,0,1
0,68,90,0
0,52,93,1
0,42,75,1
0,61,91,3
0,57,90,3
0,57,0,16
0,61,0,4
0,68,0,4
0,49,0,3
0,52,0,0
0,52,0,1
0,49,64,2
0,57,0,0
0,57,77,0
0,52,76,2
0,61,75,0
0,61,0,1
0,57,86,1
0,68,0,0
0,66,73,1
0,61,89,1
0,52,77,1
0,66,109,1
0,66,0,35
0,52,0,0
0,61,0,3
0,66,0,1
0,57,0,1
0,66,72,0
0,61,78,2
0,61,0,0
0,57,85,1
0,57,0,3
0,52,93,2
0,66,90,2
0,61,88,2
0,57,90,2
0,78,88,27
0,42,0,0
0,49,0,1
0,52,0,0
0,57,0,5
0,66,0,2
0,57,0,1
0,61,0,1
0,52,0,0
0,61,0,0
0,66,0,0
0,71,113,2
0,52,74,0
0,56,77,0
0,59,76,0
0,64,72,0
0,40,107,1
0,47,107,0
0,52,107,6
0,59,75,0
0,56,119,2
0,64,118,3
0,78,0,6
0,64,0,22
0,59,0,4
0,56,0,3
0,52,0,3
0,64,93,2
0,59,92,3
0,56,87,2
0,52,93,2
0,71,0,18
0,52,0,6
0,52,0,3
0,56,0,1
0,71,94,1
0,40,0,0
0,47,0,1
0,59,0,2
0,52,74,1
0,47,88,2
0,64,0,0
0,40,82,1
0,59,80,2
0,56,0,1
0,71,110,1
0,64,72,0
0,52,78,1
0,59,0,1
0,56,80,1
0,64,0,0
0,59,80,1
0,64,112,2
0,71,0,25
0,71,0,0
0,64,0,3
0,59,0,2
0,64,0,4
0,59,0,4
0,64,96,1
0,56,0,1
0,52,0,1
0,59,94,0
0,59,84,1
0,64,88,0
0,52,0,1
0,56,109,2
0,52,91,2
0,40,0,1
0,52,94,1
0,71,113,1
0,40,89,2
0,52,0,21
0,40,0,1
0,76,89,2
0,40,79,3
0,59,0,1
0,52,77,2
0,64,0,0
0,47,0,1
0,52,0,3
0,59,74,0
0,54,75,1
0,47,82,0
0,56,0,1
0,64,74,0
0,52,72,1
