track,note,velocity,time
3,72,102,304
3,79,102,0
3,76,102,0
3,76,0,94
3,79,0,1
3,72,0,0
3,79,102,96
3,72,98,0
3,76,102,1
3,76,0,95
3,72,0,0
3,79,0,0
3,71,102,96
3,79,106,1
3,74,102,0
3,74,0,95
3,79,0,0
3,71,0,0
3,71,102,96
3,79,102,0
3,74,102,1
3,74,0,95
3,79,0,0
3,71,0,0
3,72,102,96
3,79,102,0
3,76,102,1
3,76,0,95
3,79,0,0
3,72,0,0
3,79,102,96
3,72,98,0
3,76,102,1
3,76,0,95
3,72,0,0
3,79,0,0
3,71,102,96
3,79,106,0
3,74,102,1
3,74,0,95
3,79,0,0
3,71,0,0
3,71,102,96
3,79,102,0
3,74,102,1
3,74,0,89
3,79,0,0
3,71,0,0
3,72,102,102
3,79,102,0
3,76,102,1
3,76,0,95
3,79,0,0
3,72,0,0
3,79,102,96
3,72,98,0
3,76,102,1
3,76,0,95
3,72,0,0
3,79,0,0
3,71,102,96
3,79,106,1
3,74,102,0
3,74,0,95
3,79,0,0
3,71,0,0
3,71,102,96
3,79,102,1
3,74,102,0
3,74,0,94
3,79,0,1
3,71,0,0
3,72,102,96
3,79,102,0
3,76,102,1
3,76,0,95
3,79,0,0
3,72,0,0
3,79,102,96
3,72,98,0
3,76,102,1
3,76,0,94
3,72,0,1
3,79,0,0
3,71,102,96
3,79,106,0
3,74,102,1
3,74,0,94
3,79,0,1
3,71,0,0
3,71,102,96
3,79,102,1
3,74,102,0
3,74,0,95
3,79,0,0
3,71,0,0
3,72,102,96
3,79,102,1
3,76,102,0
3,76,0,95
3,79,0,0
3,72,0,0
3,79,102,96
3,72,98,0
3,76,102,1
3,76,0,94
3,72,0,1
3,79,0,0
3,71,102,96
3,79,106,0
3,74,102,1
3,74,0,90
3,79,0,1
3,71,0,0
3,71,102,100
3,79,102,1
3,74,102,0
3,74,0,95
3,79,0,0
3,71,0,0
3,72,102,96
3,79,102,1
3,76,102,0
3,76,0,95
3,79,0,0
3,72,0,0
3,79,102,97
3,72,98,0
3,76,102,1
3,76,0,94
3,72,0,0
3,79,0,0
3,71,102,96
3,79,106,1
3,74,102,1
3,74,0,89
3,79,0,1
3,71,0,0
3,71,102,100
3,79,102,0
3,74,102,1
3,74,0,95
3,79,0,0
3,71,0,0
3,72,102,96
3,79,102,0
3,76,102,1
3,76,0,95
3,79,0,0
3,72,0,0
3,79,102,93
3,72,98,0
3,76,102,0
3,76,0,98
3,72,0,1
3,79,0,0
3,71,102,96
3,79,106,0
3,74,102,1
3,74,0,95
3,79,0,0
3,71,0,0
3,71,102,96
3,79,102,0
3,74,102,1
3,74,0,95
3,79,0,0
3,71,0,0
3,72,102,96
3,79,102,0
3,76,102,1
3,76,0,94
3,79,0,1
3,72,0,0
3,79,102,0
3,72,98,0
3,76,102,0
3,76,0,35
3,72,0,0
3,79,0,0
3,71,102,96
3,79,106,0
3,74,102,1
3,74,0,95
3,79,0,0
3,71,0,0
3,71,102,96
3,79,102,0
3,74,102,1
3,74,0,94
3,79,0,1
3,71,0,0
3,60,102,97
3,67,102,0
3,64,102,0
3,64,0,95
3,67,0,0
3,60,0,0
3,67,102,98
3,60,98,0
3,64,102,0
3,64,0,93
3,60,0,1
3,67,0,0
3,59,102,97
3,67,106,0
3,62,102,1
3,62,0,93
3,67,0,1
3,59,0,0
3,59,102,96
3,67,102,2
3,62,102,0
3,62,0,94
3,67,0,0
3,59,0,0
3,60,102,98
3,67,102,0
3,64,102,1
3,64,0,93
3,67,0,0
3,60,0,0
3,67,102,97
3,60,98,0
3,64,102,0
3,64,0,95
3,60,0,0
3,67,0,0
3,59,102,97
3,67,106,1
3,62,102,0
3,62,0,94
3,67,0,0
3,59,0,0
3,59,102,98
3,67,102,0
3,62,102,0
3,62,0,93
3,67,0,1
3,59,0,0
3,60,102,97
3,67,102,0
3,64,102,0
3,64,0,95
3,67,0,0
3,60,0,0
3,67,102,98
3,60,98,0
3,64,102,0
3,64,0,94
3,60,0,0
3,67,0,0
3,59,102,97
3,67,106,0
3,62,102,1
3,62,0,93
3,67,0,1
3,59,0,0
3,59,102,98
3,67,102,0
3,62,102,0
3,62,0,94
3,67,0,0
3,59,0,0
3,60,102,98
3,67,102,1
3,64,102,0
3,64,0,93
3,67,0,0
3,60,0,0
3,67,102,98
3,60,98,0
3,64,102,0
3,64,0,94
3,60,0,0
3,67,0,0
3,59,102,97
3,67,106,0
3,62,102,1
3,62,0,94
3,67,0,0
3,59,0,0
3,59,102,96
3,67,102,0
3,62,102,1
3,62,0,94
3,67,0,1
3,59,0,0
3,60,102,97
3,67,102,0
3,64,102,0
3,64,0,95
3,67,0,0
3,60,0,0
3,67,102,98
3,60,98,0
3,64,102,0
3,64,0,94
3,60,0,0
3,67,0,0
3,59,102,97
3,67,106,1
3,62,102,0
3,62,0,93
3,67,0,1
3,59,0,0
3,59,102,98
3,67,102,0
3,62,102,0
3,62,0,94
3,67,0,0
3,59,0,0
3,60,102,98
3,67,102,0
3,64,102,1
3,64,0,93
3,67,0,0
3,60,0,0
3,67,102,98
3,60,98,0
3,64,102,0
3,64,0,93
3,60,0,1
3,67,0,0
3,59,102,97
3,67,106,0
3,62,102,1
3,62,0,94
3,67,0,0
3,59,0,0
3,59,102,96
3,67,102,0
3,62,102,2
3,62,0,94
3,67,0,0
3,59,0,0
3,60,102,97
3,67,102,0
3,64,102,0
3,64,0,94
3,67,0,1
3,60,0,0
3,67,102,98
3,60,98,0
3,64,102,0
3,64,0,94
3,60,0,0
3,67,0,0
3,59,102,96
3,67,106,2
3,62,102,0
3,62,0,93
3,67,0,1
3,59,0,0
3,59,102,97
3,67,102,1
3,62,102,0
3,62,0,93
3,67,0,1
3,59,0,0
3,60,102,98
3,67,102,0
3,64,102,2
3,64,0,92
3,67,0,0
3,60,0,0
3,67,102,98
3,60,98,0
3,64,102,0
3,64,0,93
3,60,0,1
3,67,0,0
3,59,102,95
3,67,106,0
3,62,102,0
3,62,0,97
3,67,0,1
3,59,0,0
3,59,102,96
3,67,102,0
3,62,102,0
3,62,0,95
3,67,0,0
3,59,0,0
3,60,102,97
3,67,102,0
3,64,102,0
3,64,0,95
3,67,0,0
3,60,0,0
3,67,102,98
3,60,98,0
3,64,102,0
3,64,0,94
3,60,0,0
3,67,0,0
3,59,102,97
3,67,106,1
3,62,102,2
3,62,0,92
3,67,0,0
3,59,0,0
3,59,102,96
3,67,102,2
3,62,102,0
3,62,0,93
3,67,0,1
3,59,0,0
3,60,102,98
3,67,102,1
3,64,102,0
3,64,0,93
3,67,0,0
3,60,0,0
3,67,102,98
3,60,98,0
3,64,102,0
3,64,0,94
3,60,0,0
3,67,0,0
3,59,102,97
3,67,106,0
3,62,102,0
3,62,0,95
3,67,0,0
3,59,0,0
3,59,102,97
3,67,102,0
3,62,102,0
3,62,0,95
3,67,0,0
3,59,0,0
3,60,102,97
3,67,102,0
3,64,102,0
3,64,0,95
3,67,0,0
3,60,0,0
3,67,102,98
3,60,98,0
3,64,102,0
3,64,0,94
3,60,0,0
3,67,0,0
3,59,102,97
3,67,106,1
3,62,102,0
3,62,0,94
3,67,0,0
3,59,0,0
3,59,102,97
3,67,102,0
3,62,102,1
3,62,0,93
3,67,0,1
3,59,0,0
3,60,102,98
3,67,102,1
3,64,102,0
3,64,0,93
3,67,0,0
3,60,0,0
3,67,102,97
3,60,98,0
3,64,102,1
3,64,0,94
3,60,0,0
3,67,0,0
3,59,102,98
3,67,106,0
3,62,102,0
3,62,0,93
3,67,0,1
3,59,0,0
3,59,102,96
3,67,102,1
3,62,102,0
3,62,0,95
3,67,0,0
3,59,0,0
3,60,102,97
3,67,102,0
3,64,102,0
3,64,0,95
3,67,0,0
3,60,0,0
3,67,102,98
3,60,98,0
3,64,102,0
3,64,0,93
3,60,0,1
3,67,0,0
3,59,102,97
3,67,106,1
3,62,102,0
3,62,0,94
3,67,0,0
3,59,0,0
3,59,102,97
3,67,102,0
3,62,102,1
3,62,0,94
3,67,0,0
3,59,0,0
3,60,102,98
3,67,102,1
3,64,102,0
3,64,0,92
3,67,0,1
3,60,0,0
3,67,102,97
3,60,98,0
3,64,102,0
3,64,0,95
3,60,0,0
3,67,0,0
3,59,102,98
3,67,106,0
3,62,102,0
3,62,0,94
3,67,0,0
3,59,0,0
3,59,102,98
3,67,102,0
3,62,102,0
3,62,0,94
3,67,0,0
3,59,0,0
3,60,102,97
3,67,102,1
3,64,102,1
3,64,0,93
3,67,0,0
3,60,0,0
3,67,102,98
3,60,98,0
3,64,102,0
3,64,0,93
3,60,0,1
3,67,0,0
3,59,102,97
3,67,106,1
3,62,102,0
3,62,0,93
3,67,0,1
3,59,0,0
3,59,102,96
3,67,102,2
3,62,102,0
3,62,0,94
3,67,0,0
3,59,0,0
3,60,102,98
3,67,102,1
3,64,102,0
3,64,0,92
3,67,0,1
3,60,0,0
3,67,102,97
3,60,98,0
3,64,102,1
3,64,0,94
3,60,0,0
3,67,0,0
3,59,102,97
3,67,106,1
3,62,102,0
3,62,0,94
3,67,0,0
3,59,0,1
3,59,102,97
3,67,102,0
3,62,102,0
3,62,0,93
3,67,0,1
3,59,0,0
3,67,112,1
3,64,112,0
3,60,112,0
3,64,0,448
3,62,104,31
3,59,112,0
3,60,0,8
3,67,0,185
3,57,112,190
3,67,108,1
3,60,100,0
3,64,112,0
3,59,0,26
3,62,0,3
3,67,0,164
3,67,112,52
3,62,112,0
3,59,116,0
3,55,120,0
3,57,0,4
3,60,0,4
3,64,0,14
3,67,0,329
3,55,0,125
3,59,0,0
3,62,0,0
3,67,100,3
3,60,84,0
3,64,92,0
3,59,92,143
3,62,104,1
3,60,0,11
3,64,0,12
3,67,0,123
3,59,0,31
3,62,0,21
3,67,96,102
3,64,84,0
3,60,84,0
3,57,92,0
3,67,0,107
3,60,0,38
3,57,0,38
3,64,0,1
3,67,100,28
3,59,100,0
3,62,96,0
3,55,96,2
3,67,0,249
3,59,0,42
3,55,0,6
3,62,0,24
3,67,96,85
3,60,88,0
3,64,84,0
3,62,92,130
3,59,112,1
3,64,0,9
3,60,0,3
3,67,0,110
3,59,0,34
3,62,0,10
3,67,100,126
3,64,92,0
3,60,92,0
3,57,96,0
3,57,0,76
3,62,96,22
3,59,88,0
3,55,88,0
3,60,0,10
3,64,0,6
3,67,0,211
3,55,0,27
3,59,0,1
3,62,0,17
3,64,84,112
3,67,96,1
3,60,88,0
3,59,108,170
3,62,92,0
3,60,0,3
3,64,0,0
3,67,0,149
3,59,0,59
3,62,0,15
3,67,104,97
3,64,92,0
3,60,76,0
3,57,88,0
3,67,0,133
3,67,84,72
3,62,92,0
3,55,100,0
3,59,112,2
3,67,0,1
3,57,0,18
3,60,0,29
3,64,0,3
3,59,0,412
3,55,0,0
3,62,0,0
3,60,102,16
3,67,102,0
3,64,102,0
3,64,0,95
3,67,0,0
3,60,0,0
3,67,102,98
3,60,98,0
3,64,102,0
3,64,0,93
3,60,0,1
3,67,0,0
3,59,102,97
3,67,106,0
3,62,102,0
3,62,0,95
3,67,0,0
3,59,0,0
3,59,102,97
3,67,102,0
3,62,102,1
3,62,0,93
3,67,0,1
3,59,0,0
3,60,102,97
3,67,102,0
3,64,102,1
3,64,0,94
3,67,0,0
3,60,0,0
3,67,102,98
3,60,98,0
3,64,102,0
3,64,0,94
3,60,0,0
3,67,0,0
3,59,102,98
3,67,106,0
3,62,102,0
3,62,0,93
3,67,0,1
3,59,0,0
3,59,102,98
3,67,102,0
3,62,102,0
3,62,0,94
3,67,0,0
3,59,0,0
3,60,102,97
3,67,102,0
3,64,102,0
3,64,0,95
3,67,0,0
3,60,0,0
3,67,102,98
3,60,98,0
3,64,102,0
3,64,0,88
3,60,0,0
3,67,0,0
3,59,102,103
3,67,106,0
3,62,102,1
3,62,0,93
3,67,0,1
3,59,0,0
3,59,102,97
3,67,102,0
3,62,102,1
3,62,0,94
3,67,0,0
3,59,0,0
3,60,102,97
3,67,102,0
3,64,102,1
3,64,0,93
3,67,0,1
3,60,0,0
3,67,102,98
3,60,98,0
3,64,102,0
3,64,0,94
3,60,0,0
3,67,0,0
3,59,102,98
3,67,106,0
3,62,102,0
3,62,0,94
3,67,0,0
3,59,0,0
3,59,102,98
3,67,102,0
3,62,102,0
3,62,0,94
3,67,0,0
3,59,0,0
3,60,102,97
3,67,102,0
3,64,102,0
3,64,0,95
3,67,0,0
3,60,0,0
3,67,102,98
3,60,98,0
3,64,102,0
3,64,0,93
3,60,0,1
3,67,0,0
3,59,102,97
3,67,106,0
3,62,102,0
3,62,0,94
3,67,0,1
3,59,0,0
3,59,102,97
3,67,102,0
3,62,102,1
3,62,0,94
3,67,0,0
3,59,0,0
3,60,102,98
3,67,102,1
3,64,102,0
3,64,0,92
3,67,0,1
3,60,0,0
3,67,102,98
3,60,98,0
3,64,102,0
3,64,0,94
3,60,0,0
3,67,0,0
3,59,102,98
3,67,106,1
3,62,102,0
3,62,0,87
3,67,0,0
3,59,0,0
3,59,102,104
3,67,102,1
3,62,102,1
3,62,0,91
3,67,0,1
3,59,0,0
3,60,102,97
3,67,102,0
3,64,102,0
3,64,0,95
3,67,0,0
3,60,0,0
3,67,102,98
3,60,98,0
3,64,102,0
3,64,0,93
3,60,0,1
3,67,0,0
3,59,102,98
3,67,106,0
3,62,102,0
3,62,0,94
3,67,0,0
3,59,0,0
3,59,102,97
3,67,102,1
3,62,102,0
3,62,0,94
3,67,0,0
3,59,0,0
3,60,102,98
3,67,102,1
3,64,102,0
3,64,0,93
3,67,0,0
3,60,0,0
3,67,102,98
3,60,98,0
3,64,102,0
3,64,0,93
3,60,0,1
3,67,0,0
3,59,102,97
3,67,106,1
3,62,102,0
3,62,0,94
3,67,0,0
3,59,0,0
3,59,102,98
3,67,102,0
3,62,102,0
3,62,0,94
3,67,0,0
3,59,0,0
3,60,102,97
3,67,102,0
3,64,102,0
3,64,0,95
3,67,0,0
3,60,0,0
3,67,102,97
3,60,98,0
3,64,102,0
3,64,0,95
3,60,0,0
3,67,0,0
3,59,102,97
3,67,106,1
3,62,102,0
3,62,0,93
3,67,0,1
3,59,0,0
3,59,102,91
3,67,102,1
3,62,102,0
3,62,0,100
3,67,0,0
3,59,0,0
3,60,102,98
3,67,102,2
3,64,102,0
3,64,0,92
3,67,0,0
3,60,0,0
3,67,102,96
3,60,98,1
3,64,102,0
3,64,0,95
3,60,0,0
3,67,0,0
3,59,102,98
3,67,106,0
3,62,102,1
3,62,0,92
3,67,0,1
3,59,0,0
3,59,102,95
3,67,102,1
3,62,102,0
3,62,0,96
3,67,0,0
3,59,0,0
3,60,102,98
3,67,101,1
3,64,102,0
3,64,0,92
3,67,0,1
3,60,0,0
3,67,102,97
3,60,98,1
3,64,102,0
3,64,0,94
3,60,0,0
3,67,0,0
3,59,102,97
3,67,106,1
3,62,102,0
3,62,0,93
3,67,0,1
3,59,0,0
3,59,102,96
3,67,102,1
3,62,102,0
3,62,0,94
3,67,0,1
3,59,0,0
3,60,102,98
3,67,102,1
3,64,102,0
3,64,0,93
3,67,0,0
3,60,0,0
3,67,102,96
3,60,98,0
3,64,102,0
3,64,0,95
3,60,0,1
3,67,0,0
3,59,102,98
3,67,106,0
3,62,102,0
3,62,0,94
3,67,0,0
3,59,0,0
3,59,102,96
3,67,102,0
3,62,102,0
3,62,0,96
3,67,0,0
3,59,0,0
3,60,102,98
3,67,102,1
3,64,102,0
3,64,0,92
3,67,0,1
3,60,0,0
3,67,102,97
3,60,98,0
3,64,102,1
3,64,0,94
3,60,0,0
3,67,0,0
3,59,102,97
3,67,106,1
3,62,102,0
3,62,0,93
3,67,0,1
3,59,0,0
3,59,102,96
3,67,102,1
3,62,102,0
3,62,0,95
3,67,0,0
3,59,0,0
3,60,102,98
3,67,102,1
3,64,102,0
3,64,0,93
3,67,0,0
3,60,0,0
3,67,102,96
3,60,98,0
3,64,102,0
3,64,0,95
