track,note,velocity,time
3,34,99,288
3,34,0,214
3,29,100,74
3,29,0,406
3,34,100,74
3,34,0,214
3,29,100,74
3,29,0,424
3,34,100,56
3,34,0,214
3,29,100,74
3,29,0,406
3,34,102,74
3,34,0,214
3,29,100,74
3,29,0,424
3,34,95,56
3,34,0,214
3,29,101,74
3,29,0,406
3,34,98,74
3,34,0,214
3,29,95,74
3,29,0,424
3,34,100,56
3,34,0,214
3,29,101,74
3,29,0,406
3,34,102,74
3,34,0,214
3,29,102,74
3,29,0,424
3,34,95,56
3,34,0,214
3,29,99,74
3,29,0,406
3,34,100,74
3,34,0,214
3,29,97,74
3,29,0,382
3,34,95,2
3,34,0,46
3,34,101,0
3,34,0,214
3,29,97,74
3,29,0,406
3,34,99,74
3,34,0,214
3,29,95,74
3,29,0,424
3,34,99,56
3,34,0,214
3,29,96,74
3,29,0,406
3,34,98,74
3,34,0,214
3,29,97,74
3,29,0,424
3,34,98,56
3,34,0,214
3,29,102,74
3,29,0,406
3,34,96,74
3,34,0,214
3,29,95,74
3,29,0,382
3,31,99,2
3,31,0,46
3,29,101,2
3,29,0,46
3,34,102,2
3,34,0,214
3,29,97,74
3,29,0,406
3,34,98,74
3,34,0,214
3,29,98,74
3,29,0,424
3,34,101,56
3,34,0,214
3,29,99,74
3,29,0,406
3,34,97,74
3,34,0,214
3,29,96,74
3,29,0,424
3,34,100,56
3,34,0,214
3,29,101,74
3,29,0,406
3,34,100,74
3,34,0,214
3,29,100,74
3,29,0,382
3,29,101,2
3,29,0,46
3,31,98,2
3,31,0,46
3,29,127,2
3,29,0,286
3,41,127,2
3,41,0,170
3,41,127,22
3,41,0,161
3,29,127,31
3,41,127,384
3,29,0,14
3,41,0,158
3,34,127,27
3,34,0,194
3,34,127,94
3,34,0,284
3,38,107,4
3,34,109,96
3,38,0,1
3,34,0,85
3,39,127,10
3,39,0,219
3,32,127,69
3,32,0,353
3,36,127,31
3,36,0,37
3,37,100,11
3,37,0,48
3,38,126,0
3,38,0,260
3,31,127,28
3,31,0,415
3,29,127,65
3,29,0,286
3,41,127,2
3,41,0,170
3,41,127,22
3,41,0,161
3,29,127,31
3,41,127,384
3,29,0,14
3,41,0,158
3,34,127,27
3,34,0,194
3,34,127,94
3,34,0,284
3,38,105,4
3,34,115,96
3,38,0,1
3,34,0,85
3,39,125,10
3,39,0,219
3,32,127,69
3,32,0,353
3,36,127,31
3,36,0,37
3,37,101,11
3,37,0,48
3,38,127,0
3,38,0,260
3,31,127,28
3,31,0,415
3,36,127,65
3,36,0,187
3,29,127,197
3,29,0,190
3,29,126,2
3,29,0,190
3,34,99,2
3,34,0,214
3,29,100,74
3,29,0,406
3,34,102,74
3,34,0,214
3,29,96,74
3,29,0,424
3,36,96,56
3,36,0,214
3,31,98,74
3,31,0,406
3,36,100,74
3,36,0,214
3,31,97,74
3,31,0,424
3,36,98,56
3,36,0,214
3,31,98,74
3,31,0,406
3,36,96,74
3,36,0,214
3,31,95,74
3,31,0,382
3,33,96,2
3,33,0,46
3,31,101,2
3,31,0,46
3,36,99,2
3,36,0,214
3,31,98,74
3,31,0,406
3,36,99,74
3,36,0,214
3,31,99,74
3,31,0,424
3,36,95,56
3,36,0,214
3,31,97,74
3,31,0,406
3,36,96,74
3,36,0,214
3,31,95,74
3,31,0,424
3,36,95,56
3,36,0,214
3,31,98,74
3,31,0,406
3,36,97,74
3,36,0,214
3,31,102,74
3,31,0,382
3,31,99,2
3,31,0,46
3,33,100,2
3,33,0,46
3,29,127,2
3,29,0,286
3,41,127,2
3,41,0,170
3,41,127,22
3,41,0,161
3,29,127,31
3,41,127,384
3,29,0,14
3,41,0,158
3,34,127,27
3,34,0,194
3,34,127,94
3,34,0,284
3,38,111,4
3,34,115,96
3,38,0,1
3,34,0,85
3,39,127,10
3,39,0,219
3,32,127,69
3,32,0,353
3,36,127,31
3,36,0,37
3,37,99,11
3,37,0,48
3,38,127,0
3,38,0,260
3,31,127,28
3,31,0,415
3,29,127,65
3,29,0,286
3,41,127,2
3,41,0,170
3,41,127,22
3,41,0,161
3,29,127,31
3,41,127,384
3,29,0,14
3,41,0,158
3,34,127,27
3,34,0,194
3,34,127,94
3,34,0,284
3,38,106,4
3,34,109,96
3,38,0,1
3,34,0,85
3,39,126,10
3,39,0,219
3,32,127,69
3,32,0,353
3,36,127,31
3,36,0,37
3,37,96,11
3,37,0,48
3,38,127,0
3,38,0,260
3,31,127,28
3,31,0,415
3,36,127,65
3,36,0,187
3,29,127,197
3,29,0,190
3,29,127,2
3,29,0,190
3,34,101,2
3,34,0,214
3,29,102,74
3,29,0,406
3,34,96,74
3,34,0,214
3,29,101,74
3,29,0,424
3,34,98,56
3,34,0,214
3,29,97,74
3,29,0,406
3,34,95,74
3,34,0,214
3,29,98,74
3,29,0,424
3,34,101,56
3,34,0,214
3,29,102,74
3,29,0,406
3,34,99,74
3,34,0,214
3,29,97,74
3,29,0,424
3,34,101,56
3,34,0,214
3,29,98,74
3,29,0,406
3,34,95,74
3,34,0,214
3,29,102,74
3,29,0,424
3,34,102,56
3,34,0,214
3,29,100,74
3,29,0,406
3,34,102,74
3,34,0,214
3,29,101,74
3,29,0,424
3,34,100,56
3,34,0,214
3,29,98,74
3,29,0,406
3,34,99,74
3,34,0,214
3,29,98,74
3,29,0,424
3,34,101,56
3,34,0,214
3,29,95,74
3,29,0,406
3,34,95,74
3,34,0,214
3,29,95,74
3,29,0,424
3,34,101,56
3,34,0,214
3,29,101,74
3,29,0,406
3,34,95,74
3,34,0,214
3,29,98,74
3,29,0,424
3,34,97,56
3,34,0,214
3,29,101,74
3,29,0,406
3,34,101,74
3,34,0,214
3,29,101,74
3,29,0,424
3,34,102,56
3,34,0,214
3,29,98,74
3,29,0,406
3,34,99,74
3,34,0,214
3,29,102,74
3,29,0,424
4,77,78,7872
4,81,84,0
4,84,83,0
4,81,0,16
4,77,0,0
4,84,0,0
4,77,70,80
4,81,75,0
4,84,77,0
4,84,0,16
4,81,0,0
4,77,0,0
4,77,67,80
4,81,67,0
4,84,69,0
4,84,0,16
4,77,0,0
4,81,0,0
4,75,84,80
4,79,85,0
4,82,81,0
4,82,0,16
4,79,0,0
4,75,0,0
4,75,80,80
4,79,75,0
4,82,74,0
4,82,0,16
4,75,0,0
4,79,0,0
4,75,68,80
4,79,71,0
4,82,73,0
4,82,0,16
4,75,0,0
4,79,0,0
4,75,81,80
4,79,79,0
4,82,80,0
4,82,0,16
4,79,0,0
4,75,0,0
4,75,69,80
4,79,75,0
4,82,72,0
4,82,0,16
4,79,0,0
4,75,0,0
4,77,79,80
4,81,84,0
4,84,84,0
4,84,0,16
4,81,0,0
4,77,0,0
4,77,76,80
4,81,76,0
4,84,73,0
4,81,0,16
4,84,0,0
4,77,0,0
4,77,65,80
4,81,64,0
4,84,67,0
4,81,0,16
4,84,0,0
4,77,0,0
4,75,80,80
4,79,78,0
4,82,80,0
4,82,0,16
4,79,0,0
4,75,0,0
4,75,73,80
4,79,69,0
4,82,72,0
4,79,0,16
4,75,0,0
4,82,0,0
4,75,61,80
4,79,62,0
4,82,61,0
4,79,0,16
4,82,0,0
4,75,0,0
4,75,82,80
4,79,80,0
4,82,79,0
4,79,0,16
4,82,0,0
4,75,0,0
4,75,66,80
4,79,67,0
4,82,65,0
4,82,0,16
4,79,0,0
4,75,0,0
4,77,78,80
4,81,82,0
4,84,79,0
4,81,0,16
4,77,0,0
4,84,0,0
4,77,71,80
4,81,71,0
4,84,73,0
4,77,0,16
4,81,0,0
4,84,0,0
4,77,62,80
4,81,66,0
4,84,63,0
4,84,0,16
4,77,0,0
4,81,0,0
4,75,82,80
4,79,80,0
4,82,83,0
4,82,0,16
4,79,0,0
4,75,0,0
4,75,80,80
4,79,73,0
4,82,78,0
4,82,0,16
4,75,0,0
4,79,0,0
4,75,70,80
4,79,71,0
4,82,67,0
4,82,0,16
4,75,0,0
4,79,0,0
4,75,79,80
4,79,78,0
4,82,81,0
4,82,0,16
4,79,0,0
4,75,0,0
4,75,72,80
4,79,68,0
4,82,73,0
4,82,0,16
4,79,0,0
4,75,0,0
4,77,81,80
4,81,85,0
4,84,81,0
4,84,0,16
4,81,0,0
4,77,0,0
4,77,76,80
4,81,73,0
4,84,78,0
4,81,0,16
4,84,0,0
4,77,0,0
4,77,68,80
4,81,68,0
4,84,67,0
4,84,0,16
4,77,0,0
4,81,0,0
4,75,77,80
4,79,78,0
4,82,77,0
4,82,0,16
4,79,0,0
4,75,0,0
4,75,70,80
4,79,72,0
4,82,71,0
4,79,0,16
4,82,0,0
4,75,0,0
4,75,63,80
4,79,64,0
4,82,65,0
4,79,0,16
4,82,0,0
4,75,0,0
4,75,82,80
4,79,76,0
4,82,80,0
4,79,0,16
4,82,0,0
4,75,0,0
4,75,70,80
4,79,67,0
4,82,70,0
4,82,0,16
4,79,0,0
4,75,0,0
4,77,78,3152
4,81,83,0
4,84,82,0
4,81,0,16
4,77,0,0
4,84,0,0
4,77,73,80
4,81,72,0
4,84,75,0
4,77,0,16
4,81,0,0
4,84,0,0
4,77,68,80
4,81,62,0
4,84,66,0
4,77,0,16
4,84,0,0
4,81,0,0
4,75,82,80
4,79,82,0
4,82,86,0
4,79,0,16
4,75,0,0
4,82,0,0
4,75,77,80
4,79,76,0
4,82,77,0
4,79,0,16
4,75,0,0
4,82,0,0
4,75,68,80
4,79,72,0
4,82,70,0
4,82,0,16
4,79,0,0
4,75,0,0
4,75,84,80
4,79,85,0
4,82,78,0
4,82,0,16
4,79,0,0
4,75,0,0
4,75,73,80
4,79,72,0
4,82,70,0
4,82,0,16
4,79,0,0
4,75,0,0
4,77,84,80
4,81,81,0
4,84,85,0
4,81,0,16
4,77,0,0
4,84,0,0
4,77,75,80
4,81,74,0
4,84,72,0
4,84,0,16
4,77,0,0
4,81,0,0
4,77,65,80
4,81,67,0
4,84,68,0
4,84,0,16
4,81,0,0
4,77,0,0
4,75,76,80
4,79,77,0
4,82,81,0
4,79,0,16
4,82,0,0
4,75,0,0
4,75,71,80
4,79,72,0
4,82,74,0
4,75,0,16
4,82,0,0
4,79,0,0
4,75,60,80
4,79,59,0
4,82,64,0
4,82,0,16
4,79,0,0
4,75,0,0
4,75,80,80
4,79,81,0
4,82,77,0
4,79,0,16
4,82,0,0
4,75,0,0
4,75,72,80
4,79,71,0
4,82,70,0
4,82,0,16
4,79,0,0
4,75,0,0
4,77,79,80
4,81,85,0
4,84,83,0
4,81,0,16
4,77,0,0
4,84,0,0
4,77,74,80
4,81,70,0
4,84,75,0
4,84,0,16
4,77,0,0
4,81,0,0
4,77,68,80
4,81,69,0
4,84,69,0
4,77,0,16
4,84,0,0
4,81,0,0
4,75,84,80
4,79,82,0
4,82,88,0
4,79,0,16
4,75,0,0
4,82,0,0
4,75,79,80
4,79,77,0
4,82,79,0
4,79,0,16
4,75,0,0
4,82,0,0
4,75,70,80
4,79,73,0
4,82,68,0
4,82,0,16
4,79,0,0
4,75,0,0
4,75,79,80
4,79,83,0
4,82,80,0
4,82,0,16
4,79,0,0
4,75,0,0
4,75,72,80
4,79,70,0
4,82,70,0
4,82,0,16
4,79,0,0
4,75,0,0
4,77,79,80
4,81,86,0
4,84,80,0
4,84,0,16
4,81,0,0
4,77,0,0
4,77,75,80
4,81,72,0
4,84,73,0
4,84,0,16
4,81,0,0
4,77,0,0
4,77,64,80
4,81,62,0
4,84,62,0
4,84,0,16
4,81,0,0
4,77,0,0
4,75,77,80
4,79,83,0
4,82,76,0
4,82,0,16
4,79,0,0
4,75,0,0
4,75,70,80
4,79,70,0
4,82,70,0
4,79,0,16
4,82,0,0
4,75,0,0
4,75,62,80
4,79,63,0
4,82,64,0
4,79,0,16
4,82,0,0
4,75,0,0
4,75,77,80
4,79,77,0
4,82,80,0
4,79,0,16
4,82,0,0
4,75,0,0
4,75,72,80
4,79,69,0
4,82,67,0
4,82,0,16
4,79,0,0
4,75,0,0
4,79,81,14672
4,83,81,0
4,86,83,0
4,83,0,16
4,79,0,0
4,86,0,0
4,79,75,80
4,83,72,0
4,86,72,0
4,79,0,16
4,83,0,0
4,86,0,0
4,79,63,80
4,83,64,0
4,86,65,0
4,79,0,16
4,86,0,0
4,83,0,0
4,77,80,80
4,81,81,0
4,84,81,0
4,81,0,16
4,77,0,0
4,84,0,0
4,77,77,80
4,81,76,0
4,84,75,0
4,81,0,16
4,77,0,0
4,84,0,0
4,77,67,80
4,81,67,0
4,84,67,0
4,84,0,16
4,81,0,0
4,77,0,0
4,77,82,80
4,81,82,0
4,84,78,0
4,84,0,16
4,81,0,0
4,77,0,0
4,77,69,80
4,81,72,0
4,84,74,0
4,84,0,16
4,81,0,0
4,77,0,0
4,79,83,80
4,83,85,0
4,86,81,0
4,83,0,16
4,79,0,0
4,86,0,0
4,79,73,80
4,83,75,0
4,86,71,0
4,86,0,16
4,79,0,0
4,83,0,0
4,79,67,80
4,83,68,0
4,86,64,0
4,86,0,16
4,83,0,0
4,79,0,0
4,77,79,80
4,81,79,0
4,84,80,0
4,81,0,16
4,84,0,0
4,77,0,0
4,77,73,80
4,81,74,0
4,84,70,0
4,77,0,16
4,84,0,0
4,81,0,0
4,77,59,80
4,81,60,0
4,84,66,0
4,84,0,16
4,81,0,0
4,77,0,0
4,77,80,80
4,81,82,0
4,84,79,0
4,81,0,16
4,84,0,0
4,77,0,0
4,77,69,80
4,81,69,0
4,84,66,0
4,84,0,16
4,81,0,0
4,77,0,0
4,79,84,80
4,83,79,0
4,86,82,0
4,83,0,16
4,79,0,0
4,86,0,0
4,79,76,80
4,83,71,0
4,86,75,0
4,86,0,16
4,79,0,0
4,83,0,0
4,79,69,80
4,83,62,0
4,86,62,0
4,79,0,16
4,86,0,0
4,83,0,0
4,77,85,80
4,81,87,0
4,84,82,0
4,81,0,16
4,77,0,0
4,84,0,0
4,77,73,80
4,81,73,0
4,84,74,0
4,81,0,16
4,77,0,0
4,84,0,0
4,77,68,80
4,81,70,0
4,84,68,0
4,84,0,16
4,81,0,0
4,77,0,0
4,77,83,80
4,81,80,0
4,84,82,0
4,84,0,16
4,81,0,0
4,77,0,0
4,77,71,80
4,81,68,0
4,84,74,0
4,84,0,16
4,81,0,0
4,77,0,0
4,79,81,80
4,83,85,0
4,86,82,0
4,86,0,16
4,83,0,0
4,79,0,0
4,79,72,80
4,83,75,0
4,86,75,0
4,86,0,16
4,83,0,0
4,79,0,0
4,79,64,80
4,83,63,0
4,86,67,0
4,86,0,16
4,83,0,0
4,79,0,0
4,77,83,80
4,81,83,0
4,84,83,0
4,84,0,16
4,81,0,0
4,77,0,0
4,77,72,80
4,81,67,0
4,84,72,0
4,81,0,16
4,84,0,0
4,77,0,0
4,77,60,80
4,81,65,0
4,84,62,0
4,81,0,16
4,84,0,0
4,77,0,0
4,77,83,80
4,81,77,0
4,84,82,0
4,81,0,16
4,84,0,0
4,77,0,0
4,77,72,80
4,81,65,0
4,84,70,0
4,84,0,16
4,81,0,0
4,77,0,0
4,77,79,14672
4,81,78,0
4,84,79,0
4,84,0,16
4,81,0,0
4,77,0,0
4,77,76,80
4,81,75,0
4,84,76,0
4,77,0,16
4,81,0,0
4,84,0,0
4,77,62,80
4,81,64,0
4,84,67,0
4,77,0,16
4,81,0,0
4,84,0,0
4,75,84,80
4,79,84,0
4,82,84,0
4,82,0,16
4,79,0,0
4,75,0,0
4,75,73,80
4,79,75,0
4,82,76,0
4,82,0,16
4,75,0,0
4,79,0,0
4,75,73,80
4,79,66,0
4,82,71,0
4,82,0,16
4,75,0,0
4,79,0,0
4,75,83,80
4,79,85,0
4,82,82,0
4,82,0,16
4,75,0,0
4,79,0,0
4,75,71,80
4,79,75,0
4,82,69,0
4,82,0,16
4,75,0,0
4,79,0,0
4,77,86,80
4,81,79,0
4,84,81,0
4,84,0,16
4,81,0,0
4,77,0,0
4,77,78,80
4,81,71,0
4,84,76,0
4,84,0,16
