track,note,velocity,time
3,40,89,1730
3,33,89,196
3,54,85,156
3,52,89,66
3,50,89,4
3,49,91,16
3,50,87,10
3,49,89,66
3,49,95,24
3,50,82,92
3,52,85,2
3,47,93,10
3,45,87,584
3,49,95,4
3,49,95,36
3,50,89,8
3,52,89,14
3,47,100,8
3,45,95,2
3,44,89,2
3,42,98,16
3,45,95,0
3,45,91,28
3,49,98,2
3,52,95,84
3,54,100,8
3,57,89,0
3,57,102,22
3,52,95,160
3,52,100,18
3,49,93,190
3,49,97,14
3,45,93,6
3,45,97,24
3,42,90,6
3,42,90,22
3,33,94,26
3,37,86,22
3,36,82,586
3,35,84,14
3,40,82,26
3,33,87,46
3,40,93,44
3,33,90,22
3,40,96,22
3,52,94,18
3,33,91,28
3,40,98,42
3,44,89,60
3,37,80,32
3,49,62,28
3,37,58,6
3,42,78,180
3,45,90,30
3,38,72,26
3,47,85,50
3,40,82,56
3,40,80,82
3,45,82,22
3,45,78,46
3,37,82,192
3,49,68,6
3,36,66,6
3,35,60,6
3,42,95,4
3,40,98,168
3,33,82,10
3,33,76,88
3,34,87,60
3,34,85,40
3,35,89,62
3,30,85,24
3,28,87,32
3,34,82,10
3,35,89,34
3,30,82,30
3,28,91,58
3,30,84,56
3,33,85,56
3,38,85,46
3,32,82,54
3,32,78,52
3,37,93,48
3,32,62,20
3,30,85,46
3,35,70,70
3,38,64,92
3,38,62,64
3,37,78,82
3,44,100,4
3,43,87,60
3,42,82,14
3,30,89,120
3,35,80,46
3,34,82,38
3,28,70,54
3,33,87,8
3,40,93,44
3,33,90,22
3,40,96,22
3,33,91,24
3,40,96,38
3,33,84,14
3,32,82,22
3,32,80,66
3,25,80,28
3,37,88,14
3,25,90,194
3,30,90,190
3,32,94,36
3,33,96,2
3,33,85,68
3,26,85,50
3,34,72,74
3,35,85,48
3,51,89,32
3,50,93,62
3,28,80,18
3,40,82,196
3,33,85,48
3,37,78,42
3,36,82,8
3,35,80,22
3,30,70,24
3,29,70,10
3,28,84,68
3,33,82,40
3,33,76,88
3,34,87,60
3,34,85,40
3,35,89,60
3,42,85,8
3,40,87,34
3,28,89,22
3,28,87,22
3,32,82,4
3,35,89,34
3,42,93,6
3,40,87,20
3,28,84,26
3,30,84,32
3,33,85,60
3,45,84,24
3,38,85,2
3,45,85,18
3,44,82,10
3,44,89,46
3,37,66,96
3,37,87,38
3,49,82,2
3,44,88,36
3,43,85,96
3,42,85,36
3,30,66,26
3,37,76,98
3,35,70,34
3,37,80,58
3,38,76,34
3,50,82,30
3,37,78,46
3,44,100,4
3,43,87,60
3,42,82,14
3,30,89,38
3,35,80,42
3,34,82,42
4,52,70,1912
4,57,87,6
4,61,93,6
4,64,82,2
4,76,100,374
4,57,48,24
4,62,68,12
4,71,93,6
4,66,85,0
4,69,68,2
4,62,78,8
4,66,85,10
4,69,91,4
4,73,89,14
4,61,72,0
4,64,91,8
4,68,85,2
4,71,87,4
4,68,82,24
4,64,93,4
4,59,82,10
4,62,91,6
4,67,91,6
4,71,80,6
4,55,78,22
4,59,98,8
4,62,87,8
4,45,85,0
4,56,78,0
4,61,87,2
4,64,87,2
4,64,98,16
4,76,100,96
4,62,89,44
4,66,91,6
4,71,98,4
4,65,93,10
4,68,85,8
4,73,87,8
4,56,80,8
4,59,86,8
4,66,78,4
4,63,80,0
4,66,87,10
4,59,78,28
4,54,62,100
4,49,78,12
4,67,80,0
4,59,82,2
4,62,82,2
4,62,85,30
4,59,74,0
4,45,57,18
4,49,80,6
4,54,85,4
4,57,82,278
4,57,82,22
4,61,95,2
4,64,87,8
4,69,95,88
4,71,98,100
4,52,88,14
4,58,78,64
4,59,93,10
4,72,89,0
4,61,88,4
4,45,76,2
4,64,70,2
4,73,82,2
4,69,82,4
4,57,89,96
4,72,82,8
4,76,96,2
4,73,85,0
4,61,89,6
4,64,100,6
4,71,85,78
4,69,64,92
4,57,66,0
4,50,78,4
4,61,74,4
4,66,72,6
4,57,68,28
4,61,80,6
4,66,63,4
4,62,89,364
4,47,80,6
4,63,98,2
4,51,68,0
4,54,78,2
4,71,85,78
4,61,91,0
4,69,85,2
4,59,100,4
4,68,85,12
4,57,89,14
4,66,85,34
4,61,87,6
4,64,85,4
4,40,87,0
4,52,85,2
4,66,64,374
4,78,91,182
4,81,87,96
4,56,68,0
4,76,91,0
4,59,93,8
4,64,82,4
4,80,91,4
4,56,87,14
4,59,87,28
4,62,78,22
4,68,80,94
4,76,89,62
4,45,72,180
4,57,78,0
4,61,84,0
4,64,70,12
4,61,70,18
4,64,85,6
4,69,66,10
4,56,76,24
4,61,87,6
4,64,91,4
4,68,82,2
4,67,85,16
4,63,82,2
4,58,82,0
4,60,100,2
4,66,80,12
4,59,100,4
4,57,89,2
4,62,100,0
4,57,89,26
4,62,85,50
4,66,76,42
4,69,100,94
4,74,85,98
4,57,85,12
4,66,78,2
4,62,95,0
4,59,100,2
4,78,87,2
4,57,52,18
4,59,85,12
4,62,85,14
4,65,78,4
4,56,70,8
4,61,66,6
4,45,70,0
4,64,72,4
4,64,78,12
4,61,63,2
4,52,82,12
4,57,70,2
4,66,56,0
4,62,82,2
4,57,70,12
4,66,82,8
4,62,95,2
4,57,53,8
4,45,66,4
4,56,82,2
4,61,80,0
4,64,85,6
4,61,68,20
4,64,70,2
4,57,64,0
4,50,82,2
4,62,89,4
4,66,72,4
4,69,100,188
4,62,78,32
4,68,87,192
4,45,64,16
4,56,78,4
4,61,68,6
4,64,82,2
4,56,57,16
4,61,80,10
4,64,80,4
4,56,66,20
4,66,64,24
4,57,85,0
4,52,85,0
4,62,91,4
4,57,70,14
4,66,82,18
4,62,95,4
4,57,66,18
4,56,68,2
4,44,64,0
4,59,87,8
4,63,64,2
4,56,66,16
4,59,100,6
4,63,82,2
4,75,91,102
4,78,82,104
4,49,80,2
4,61,64,6
4,65,95,2
4,74,87,10
4,67,82,0
4,79,87,10
4,73,87,6
4,77,100,8
4,79,68,10
4,42,64,0
4,54,82,4
4,57,82,10
4,61,91,8
4,64,82,10
4,57,64,34
4,61,98,28
4,64,93,6
4,69,87,94
4,71,89,80
4,55,80,32
4,73,93,0
4,57,87,8
4,61,70,0
4,73,107,76
4,72,100,6
4,76,78,8
4,64,93,8
4,71,93,74
4,69,82,96
4,57,68,20
4,50,66,2
4,61,72,2
4,66,64,6
4,54,82,194
4,57,85,12
4,61,85,28
4,64,80,92
4,66,74,42
4,75,80,92
4,62,74,4
4,63,90,14
4,59,80,2
4,71,85,186
4,69,70,296
4,57,64,16
4,47,82,4
4,62,82,4
4,66,68,8
4,66,87,34
4,69,72,26
4,62,66,4
4,78,85,102
4,81,89,86
4,59,68,2
4,71,82,18
4,76,98,6
4,80,93,4
4,62,58,362
4,76,82,16
4,45,76,8
4,69,60,6
4,73,70,10
4,81,85,2
4,57,80,0
4,76,85,2
4,59,72,122
4,71,87,6
4,61,74,36
4,73,78,2
4,64,85,38
4,76,87,4
4,52,93,196
4,56,66,104
4,59,91,98
4,66,72,92
4,68,82,0
4,71,104,6
4,55,66,38
4,66,78,8
4,58,82,4
4,64,78,6
4,66,87,0
4,54,64,0
4,57,82,0
4,69,87,172
4,74,82,92
4,47,74,8
4,57,64,4
4,62,82,8
4,66,66,4
4,57,57,10
4,62,76,4
4,65,60,14
4,56,84,18
4,61,88,2
4,45,91,0
4,64,97,2
4,68,74,4
4,61,95,44
4,64,88,12
4,68,102,22
4,73,100,92
4,76,106,96
4,58,91,14
4,46,86,2
4,61,99,2
4,64,106,4
4,64,86,2
4,70,97,102
4,73,99,84
4,76,104,102
4,57,74,0
4,47,84,4
4,62,93,2
4,66,74,10
4,57,86,26
4,62,84,22
4,66,80,12
4,57,76,6
4,62,104,4
4,47,86,2
4,66,82,4
4,69,106,190
4,68,88,94
4,52,84,2
4,59,91,10
4,64,95,2
4,47,86,12
4,57,74,0
4,62,93,2
4,66,80,8
4,62,65,30
4,66,88,26
4,69,70,100
4,74,93,98
4,52,67,4
4,67,97,2
4,56,74,6
4,64,70,10
4,68,106,0
4,59,72,4
4,69,88,0
4,71,95,90
4,59,84,20
4,56,65,2
4,64,70,2
4,76,97,94
4,74,88,98
4,42,74,2
4,66,86,4
4,69,95,6
4,73,86,2
4,54,76,2
4,73,88,2
4,69,104,0
4,71,97,90
4,73,99,44
4,57,86,8
4,61,96,8
4,45,88,0
4,64,77,8
4,57,99,28
4,69,84,2
4,61,84,4
4,72,94,14
4,73,101,6
4,76,114,6
4,64,112,8
4,71,92,70
4,69,101,26
4,38,90,14
4,57,99,0
4,62,105,4
4,66,99,6
4,50,92,2
4,57,90,30
4,62,110,12
4,57,71,4
4,62,112,8
4,66,88,4
4,69,110,2
4,44,80,0
4,66,88,4
4,56,91,0
4,63,86,2
4,60,91,4
4,56,76,34
4,66,86,8
4,63,78,4
4,60,84,2
4,72,91,8
4,75,70,96
4,56,78,0
4,80,101,2
4,49,93,0
4,64,95,2
4,68,91,2
4,76,97,4
4,71,101,2
4,61,106,6
4,64,76,28
4,66,74,14
4,71,108,6
4,68,97,2
4,66,66,68
4,64,84,20
4,42,78,4
4,58,88,0
4,61,95,2
4,54,86,2
4,64,104,0
4,70,74,0
4,66,91,280
4,70,97,32
4,73,80,92
4,78,88,94
4,47,88,0
4,66,76,8
4,59,76,6
4,69,88,2
4,74,84,2
4,74,86,8
4,74,76,36
4,81,95,14
4,57,67,20
4,62,69,12
4,65,74,2
4,77,101,8
4,81,91,12
4,76,93,0
4,79,91,8
4,74,82,112
4,77,74,20
4,71,93,30
4,76,91,0
4,61,78,474
4,64,91,6
4,68,78,0
4,58,86,70
4,67,91,2
4,61,95,2
4,58,82,168
4,66,74,2
4,61,91,0
4,57,68,0
4,47,88,2
4,62,89,4
4,66,72,10
4,69,100,390
4,66,61,10
4,62,61,18
4,69,63,4
4,74,91,10
4,79,84,22
4,56,58,1056
4,40,78,2
4,59,78,16
4,64,97,12
4,52,88,4
4,65,108,10
4,56,70,0
4,61,66,6
4,45,70,0
4,64,72,4
4,64,78,12
4,61,63,2
4,52,82,12
4,57,70,2
4,66,56,0
4,62,82,2
4,57,70,12
4,66,82,8
4,62,95,2
4,57,53,8
4,45,66,4
4,56,82,2
4,61,80,0
4,64,85,6
4,61,68,20
4,64,70,2
4,57,64,0
4,50,82,2
4,62,89,4
4,66,72,4
4,69,100,188
4,62,78,32
4,68,87,192
4,45,64,16
4,56,78,4
4,61,68,6
4,64,82,2
4,56,57,16
4,61,80,10
4,64,80,4
4,56,66,20
4,66,64,24
4,57,85,0
4,52,85,0
4,62,91,4
4,57,70,14
4,66,82,18
4,62,95,4
4,57,66,18
4,56,68,2
4,44,64,0
4,59,87,8
4,63,64,2
4,56,66,16
4,59,100,6
4,63,82,2
4,75,91,102
4,78,82,104
4,49,80,2
4,61,64,6
4,65,95,2
4,74,87,10
4,67,82,0
4,79,87,10
4,73,87,6
4,77,100,8
4,79,68,10
4,42,64,0
4,54,82,4
4,57,82,10
4,61,91,8
4,64,82,10
4,57,64,34
4,61,98,28
4,64,93,6
4,69,87,94
4,71,89,80
4,55,80,32
4,73,93,0
4,57,87,8
4,61,70,0
4,73,107,76
4,72,100,6
4,76,78,8
4,64,93,8
4,71,93,74
4,69,82,96
4,57,68,20
4,50,66,2
4,61,72,2
4,66,64,6
4,54,82,194
4,57,85,12
4,61,85,28
4,64,80,92
4,66,74,42
4,75,80,92
4,62,74,4
4,63,90,14
4,59,80,2
4,71,85,186
4,69,70,296
4,57,64,16
4,47,82,4
4,62,82,4
4,66,68,8
4,66,87,34
4,69,72,26
4,62,66,4
4,78,85,102
4,81,89,86
4,59,68,2
4,71,82,18
4,76,98,6
4,80,93,4
4,62,58,362
4,76,82,16
4,45,76,8
4,69,60,6
4,73,70,10
4,81,85,2
4,57,80,0
4,76,85,2
4,59,72,122
4,71,87,6
4,61,74,36
4,73,78,2
4,64,85,38
4,76,87,4
4,52,93,196
4,56,66,104
4,59,91,98
4,66,72,92
4,68,82,0
4,71,104,6
4,55,66,38
4,66,78,8
4,58,82,4
4,64,78,6
4,66,87,0
4,54,64,0
4,57,82,0
4,69,87,172
4,74,82,92
4,47,74,8
4,57,64,4
4,62,82,8
4,66,66,4
4,57,57,10
4,62,76,4
4,65,60,14
4,56,84,18
4,61,88,2
4,45,91,0
4,64,97,2
4,68,74,4
4,61,95,44
4,64,88,12
4,58,91,16
4,46,86,2
4,61,99,2
4,64,106,4
4,64,86,2
4,70,97,102
4,57,74,2
4,47,84,4
4,62,93,2
4,66,74,10
4,57,86,26
4,62,84,22
4,66,80,12
4,57,76,6
4,62,104,4
4,47,86,2
4,66,82,4
4,69,106,190
4,68,88,94
4,52,84,2
4,59,91,10
4,64,95,2
4,47,86,12
4,57,74,0
4,62,93,2
4,66,80,8
4,62,65,30
4,66,88,26
4,69,70,100
4,74,93,98
4,52,67,4
4,67,97,2
4,56,74,6
4,64,70,10
4,68,106,0
4,59,72,4
4,69,88,0
4,71,95,90
4,59,84,20
4,56,65,2
4,64,70,2
4,76,88,192
4,42,74,2
4,66,86,4
4,69,95,6
4,73,86,2
4,54,76,4
4,73,88,2
4,69,104,0
4,71,97,90
4,73,99,44
4,57,86,8
4,61,96,8
4,45,88,0
4,64,77,8
4,57,99,28
4,69,84,2
4,61,84,4
4,72,94,14
4,73,101,6
4,76,114,6
4,64,112,8
4,71,92,70
4,69,101,26
4,38,90,14
4,57,99,0
4,62,105,4
4,66,99,6
4,50,92,2
4,57,90,30
4,62,110,12
4,57,71,4
4,62,112,8
4,66,88,4
4,69,110,2
4,44,80,0
4,66,88,4
4,56,91,0
4,63,86,2
4,60,91,4
4,56,76,34
4,66,86,8
4,63,78,4
4,60,84,2
4,72,91,8
4,75,70,96
4,56,78,0
4,80,101,2
4,49,93,0
4,64,95,2
4,68,91,2
4,76,97,4
4,71,101,2
4,61,106,6
4,64,76,28
4,66,74,14
4,71,108,6
4,68,97,2
4,66,66,68
4,64,84,20
4,42,78,4
4,58,88,0
4,61,95,2
4,54,86,2
4,64,104,0
4,70,74,0
4,66,91,280
4,70,97,32
4,73,80,92
4,78,88,94
4,47,88,0
4,66,76,8
4,59,76,6
4,69,88,2
4,74,84,2
4,74,86,8
4,74,76,36
4,81,95,14
4,57,67,20
4,62,69,12
4,65,74,2
4,77,101,8
4,81,91,12
4,76,93,0
4,79,91,8
4,74,82,112
4,77,74,20
4,71,93,30
4,76,91,0
4,61,78,474
4,64,91,6
4,68,78,0
4,58,86,70
4,67,91,2
4,61,95,2
4,58,82,168
4,66,74,2
4,61,91,0
4,57,68,0
4,47,88,2
4,62,89,4
4,66,72,10
4,69,100,390
4,66,61,10
4,62,61,18
4,69,63,4
4,74,91,10
4,79,84,22
5,68,80,15552
5,66,80,96
5,64,80,8
5,76,80,22
5,74,80,4
5,73,80,8
5,69,80,160
5,71,80,10
5,68,80,96
5,64,80,14
5,64,80,64
5,61,80,8
5,64,80,2
5,68,80,342
5,66,80,16
5,64,80,96
5,76,80,10
5,74,80,96
5,73,80,0
5,69,80,26
5,71,80,96
5,73,80,0
5,71,80,564
5,71,80,44
5,71,80,56
5,69,80,18
5,66,80,366
5,73,80,14
5,71,80,8
5,71,80,58
5,69,80,6
5,68,80,832
5,66,80,6
5,66,80,66
5,64,80,12
5,78,80,262
5,76,80,96
5,73,80,16
5,71,80,8
5,69,80,2
5,78,80,96
5,76,80,20
5,73,80,1628
5,76,80,18
5,78,80,10
5,76,80,96
5,73,80,544
5,73,80,32
5,76,80,4
5,76,80,24
5,74,80,6
5,73,80,2
5,74,80,96
5,73,80,188
5,71,80,92
5,64,80,104
5,64,80,40
5,76,80,8
5,74,80,192
5,73,80,6
5,74,80,6
5,73,80,192
5,71,80,2
5,69,80,84
5,71,80,96
5,69,80,4
5,73,80,96
5,76,80,4
5,78,80,8
5,76,80,12
5,73,80,20
5,71,80,10
5,69,80,96
5,81,80,152
5,78,80,2
