track,note,velocity,time
2.0,71.0,110.0,108.0
2.0,78.0,110.0,20.0
2.0,71.0,110.0,116.0
2.0,71.0,110.0,20.0
2.0,71.0,110.0,116.0
2.0,71.0,110.0,20.0
2.0,71.0,110.0,20.0
2.0,71.0,110.0,20.0
2.0,71.0,110.0,20.0
2.0,71.0,110.0,20.0
2.0,71.0,110.0,20.0
2.0,71.0,110.0,20.0
2.0,71.0,110.0,20.0
2.0,71.0,110.0,116.0
2.0,71.0,110.0,1268.0
2.0,71.0,110.0,20.0
2.0,71.0,110.0,20.0
2.0,71.0,110.0,20.0
2.0,71.0,110.0,20.0
2.0,71.0,110.0,20.0
2.0,71.0,110.0,20.0
2.0,71.0,110.0,20.0
2.0,71.0,110.0,20.0
2.0,71.0,110.0,20.0
2.0,71.0,110.0,116.0
2.0,71.0,110.0,20.0
2.0,71.0,110.0,20.0
2.0,71.0,110.0,20.0
2.0,71.0,110.0,20.0
2.0,71.0,110.0,20.0
2.0,71.0,110.0,20.0
2.0,71.0,110.0,20.0
2.0,71.0,110.0,20.0
2.0,71.0,110.0,20.0
2.0,66.0,110.0,20.0
2.0,69.0,110.0,20.0
2.0,66.0,110.0,20.0
2.0,69.0,110.0,20.0
2.0,73.0,110.0,404.0
2.0,71.0,110.0,20.0
2.0,69.0,110.0,20.0
2.0,71.0,110.0,20.0
2.0,71.0,110.0,20.0
2.0,71.0,110.0,692.0
2.0,71.0,110.0,116.0
2.0,71.0,110.0,20.0
2.0,71.0,110.0,20.0
2.0,71.0,110.0,20.0
2.0,71.0,110.0,20.0
2.0,71.0,110.0,20.0
2.0,71.0,110.0,116.0
2.0,71.0,110.0,20.0
2.0,71.0,110.0,20.0
2.0,71.0,110.0,20.0
2.0,71.0,110.0,20.0
2.0,71.0,110.0,692.0
2.0,71.0,110.0,20.0
2.0,71.0,110.0,20.0
2.0,71.0,110.0,20.0
2.0,71.0,110.0,20.0
2.0,71.0,110.0,20.0
2.0,71.0,110.0,20.0
2.0,71.0,110.0,20.0
2.0,71.0,110.0,20.0
2.0,71.0,110.0,20.0
2.0,71.0,110.0,20.0
2.0,71.0,110.0,20.0
2.0,71.0,110.0,20.0
2.0,71.0,110.0,20.0
2.0,71.0,110.0,20.0
2.0,71.0,110.0,20.0
2.0,71.0,110.0,20.0
2.0,71.0,110.0,308.0
2.0,71.0,110.0,116.0
2.0,71.0,110.0,20.0
2.0,71.0,110.0,20.0
2.0,71.0,110.0,20.0
2.0,71.0,110.0,20.0
2.0,71.0,110.0,20.0
2.0,71.0,110.0,20.0
2.0,71.0,110.0,20.0
2.0,71.0,110.0,116.0
2.0,71.0,110.0,20.0
2.0,71.0,110.0,20.0
2.0,71.0,110.0,116.0
3.0,87.0,127.0,740.0
3.0,83.0,31.0,0.0
3.0,64.0,121.0,0.0
3.0,83.0,31.0,52.0
3.0,83.0,31.0,52.0
3.0,66.0,61.0,0.0
3.0,83.0,31.0,68.0
3.0,66.0,101.0,0.0
3.0,65.0,115.0,0.0
3.0,83.0,31.0,12.0
3.0,66.0,45.0,0.0
3.0,83.0,31.0,20.0
3.0,65.0,68.0,0.0
3.0,83.0,31.0,52.0
3.0,66.0,97.0,0.0
3.0,65.0,92.0,0.0
3.0,83.0,31.0,56.0
3.0,66.0,41.0,0.0
3.0,83.0,31.0,8.0
3.0,66.0,113.0,0.0
3.0,83.0,31.0,44.0
3.0,66.0,98.0,0.0
3.0,65.0,108.0,0.0
3.0,83.0,31.0,40.0
3.0,66.0,41.0,0.0
3.0,83.0,31.0,20.0
3.0,66.0,87.0,0.0
3.0,65.0,94.0,0.0
3.0,87.0,119.0,52.0
3.0,83.0,31.0,0.0
3.0,64.0,113.0,0.0
3.0,83.0,31.0,64.0
3.0,87.0,116.0,40.0
3.0,83.0,31.0,0.0
3.0,64.0,110.0,0.0
3.0,83.0,31.0,64.0
3.0,87.0,127.0,44.0
3.0,64.0,121.0,0.0
3.0,83.0,31.0,0.0
3.0,83.0,31.0,52.0
3.0,83.0,31.0,52.0
3.0,66.0,61.0,0.0
3.0,83.0,31.0,68.0
3.0,66.0,101.0,0.0
3.0,65.0,115.0,0.0
3.0,83.0,31.0,12.0
3.0,66.0,45.0,0.0
3.0,83.0,31.0,20.0
3.0,65.0,68.0,0.0
3.0,83.0,31.0,52.0
3.0,66.0,97.0,0.0
3.0,65.0,92.0,0.0
3.0,83.0,31.0,56.0
3.0,66.0,41.0,0.0
3.0,83.0,31.0,20.0
3.0,66.0,113.0,0.0
3.0,83.0,31.0,44.0
3.0,66.0,98.0,0.0
3.0,65.0,108.0,0.0
3.0,83.0,31.0,40.0
3.0,66.0,41.0,0.0
3.0,83.0,31.0,20.0
3.0,66.0,87.0,0.0
3.0,65.0,94.0,0.0
3.0,87.0,119.0,52.0
3.0,64.0,113.0,0.0
3.0,83.0,31.0,0.0
3.0,83.0,31.0,64.0
3.0,87.0,116.0,40.0
3.0,64.0,110.0,0.0
3.0,83.0,31.0,0.0
3.0,83.0,31.0,64.0
3.0,87.0,127.0,44.0
3.0,83.0,31.0,0.0
3.0,69.0,95.0,0.0
3.0,68.0,80.0,0.0
3.0,64.0,121.0,0.0
3.0,83.0,31.0,12.0
3.0,69.0,58.0,0.0
3.0,83.0,31.0,40.0
3.0,82.0,95.0,0.0
3.0,81.0,70.0,0.0
3.0,69.0,67.0,0.0
3.0,66.0,61.0,0.0
3.0,83.0,31.0,4.0
3.0,69.0,54.0,0.0
3.0,66.0,101.0,0.0
3.0,65.0,115.0,0.0
3.0,83.0,31.0,12.0
3.0,69.0,95.0,0.0
3.0,68.0,80.0,0.0
3.0,66.0,45.0,0.0
3.0,83.0,31.0,20.0
3.0,69.0,58.0,0.0
3.0,65.0,68.0,0.0
3.0,83.0,31.0,40.0
3.0,82.0,95.0,0.0
3.0,81.0,70.0,0.0
3.0,69.0,67.0,0.0
3.0,66.0,97.0,0.0
3.0,65.0,92.0,0.0
3.0,83.0,31.0,52.0
3.0,69.0,54.0,0.0
3.0,66.0,41.0,0.0
3.0,83.0,31.0,20.0
3.0,69.0,95.0,0.0
3.0,68.0,80.0,0.0
3.0,66.0,113.0,0.0
3.0,83.0,31.0,24.0
3.0,69.0,58.0,0.0
3.0,66.0,98.0,0.0
3.0,65.0,108.0,0.0
3.0,83.0,31.0,40.0
3.0,82.0,95.0,0.0
3.0,81.0,70.0,0.0
3.0,69.0,67.0,0.0
3.0,66.0,41.0,0.0
3.0,83.0,31.0,8.0
3.0,69.0,54.0,0.0
3.0,66.0,87.0,0.0
3.0,65.0,94.0,0.0
3.0,87.0,119.0,52.0
3.0,83.0,31.0,0.0
3.0,69.0,95.0,0.0
3.0,68.0,80.0,0.0
3.0,64.0,113.0,0.0
3.0,83.0,31.0,12.0
3.0,69.0,58.0,0.0
3.0,87.0,116.0,40.0
3.0,83.0,31.0,0.0
3.0,82.0,95.0,0.0
3.0,81.0,70.0,0.0
3.0,69.0,67.0,0.0
3.0,64.0,110.0,0.0
3.0,83.0,31.0,36.0
3.0,69.0,54.0,0.0
3.0,87.0,127.0,44.0
3.0,83.0,31.0,0.0
3.0,69.0,95.0,0.0
3.0,68.0,80.0,0.0
3.0,64.0,121.0,0.0
3.0,83.0,31.0,12.0
3.0,69.0,58.0,0.0
3.0,83.0,31.0,40.0
3.0,82.0,95.0,0.0
3.0,81.0,70.0,0.0
3.0,69.0,67.0,0.0
3.0,66.0,61.0,0.0
3.0,83.0,31.0,4.0
3.0,69.0,54.0,0.0
3.0,66.0,101.0,0.0
3.0,65.0,115.0,0.0
3.0,83.0,31.0,12.0
3.0,69.0,95.0,0.0
3.0,68.0,80.0,0.0
3.0,66.0,45.0,0.0
3.0,83.0,31.0,20.0
3.0,69.0,58.0,0.0
3.0,65.0,68.0,0.0
3.0,83.0,31.0,40.0
3.0,82.0,95.0,0.0
3.0,81.0,70.0,0.0
3.0,69.0,67.0,0.0
3.0,66.0,97.0,0.0
3.0,65.0,92.0,0.0
3.0,83.0,31.0,52.0
3.0,69.0,54.0,0.0
3.0,66.0,41.0,0.0
3.0,83.0,31.0,20.0
3.0,69.0,95.0,0.0
3.0,68.0,80.0,0.0
3.0,66.0,113.0,0.0
3.0,83.0,31.0,24.0
3.0,69.0,58.0,0.0
3.0,66.0,98.0,0.0
3.0,65.0,108.0,0.0
3.0,83.0,31.0,40.0
3.0,82.0,95.0,0.0
3.0,81.0,70.0,0.0
3.0,69.0,67.0,0.0
3.0,66.0,41.0,0.0
3.0,83.0,31.0,8.0
3.0,69.0,54.0,0.0
3.0,66.0,87.0,0.0
3.0,65.0,94.0,0.0
3.0,87.0,119.0,52.0
3.0,83.0,31.0,0.0
3.0,69.0,95.0,0.0
3.0,68.0,80.0,0.0
3.0,64.0,113.0,0.0
3.0,83.0,31.0,12.0
3.0,69.0,58.0,0.0
3.0,87.0,116.0,40.0
3.0,83.0,31.0,0.0
3.0,82.0,95.0,0.0
3.0,81.0,70.0,0.0
3.0,69.0,67.0,0.0
3.0,64.0,110.0,0.0
3.0,83.0,31.0,36.0
3.0,69.0,54.0,0.0
3.0,87.0,127.0,44.0
3.0,83.0,31.0,0.0
3.0,69.0,95.0,0.0
3.0,68.0,80.0,0.0
3.0,64.0,121.0,0.0
3.0,83.0,31.0,12.0
3.0,69.0,58.0,0.0
3.0,83.0,31.0,40.0
3.0,82.0,95.0,0.0
3.0,81.0,70.0,0.0
3.0,69.0,67.0,0.0
3.0,66.0,61.0,0.0
3.0,83.0,31.0,4.0
3.0,69.0,54.0,0.0
3.0,66.0,101.0,0.0
3.0,65.0,115.0,0.0
3.0,83.0,31.0,12.0
3.0,69.0,95.0,0.0
3.0,68.0,80.0,0.0
3.0,66.0,45.0,0.0
3.0,83.0,31.0,20.0
3.0,69.0,58.0,0.0
3.0,65.0,68.0,0.0
3.0,83.0,31.0,40.0
3.0,82.0,95.0,0.0
3.0,81.0,70.0,0.0
3.0,69.0,67.0,0.0
3.0,66.0,97.0,0.0
3.0,65.0,92.0,0.0
3.0,83.0,31.0,52.0
3.0,69.0,54.0,0.0
3.0,66.0,41.0,0.0
3.0,83.0,31.0,20.0
3.0,69.0,95.0,0.0
3.0,68.0,80.0,0.0
3.0,66.0,113.0,0.0
3.0,83.0,31.0,24.0
3.0,69.0,58.0,0.0
3.0,66.0,98.0,0.0
3.0,65.0,108.0,0.0
3.0,83.0,31.0,40.0
3.0,82.0,95.0,0.0
3.0,81.0,70.0,0.0
3.0,69.0,67.0,0.0
3.0,66.0,41.0,0.0
3.0,83.0,31.0,8.0
3.0,69.0,54.0,0.0
3.0,66.0,87.0,0.0
3.0,65.0,94.0,0.0
3.0,87.0,119.0,52.0
3.0,83.0,31.0,0.0
3.0,69.0,95.0,0.0
3.0,68.0,80.0,0.0
3.0,64.0,113.0,0.0
3.0,83.0,31.0,12.0
3.0,69.0,58.0,0.0
3.0,87.0,116.0,40.0
3.0,83.0,31.0,0.0
3.0,82.0,95.0,0.0
3.0,81.0,70.0,0.0
3.0,69.0,67.0,0.0
3.0,64.0,110.0,0.0
3.0,83.0,31.0,36.0
3.0,69.0,54.0,0.0
3.0,87.0,127.0,44.0
3.0,83.0,31.0,0.0
3.0,69.0,95.0,0.0
3.0,68.0,80.0,0.0
3.0,64.0,121.0,0.0
3.0,83.0,31.0,12.0
3.0,69.0,58.0,0.0
3.0,83.0,31.0,40.0
3.0,82.0,95.0,0.0
3.0,81.0,70.0,0.0
3.0,69.0,67.0,0.0
3.0,66.0,61.0,0.0
3.0,83.0,31.0,4.0
3.0,69.0,54.0,0.0
3.0,66.0,101.0,0.0
3.0,65.0,115.0,0.0
3.0,83.0,31.0,12.0
3.0,69.0,95.0,0.0
3.0,68.0,80.0,0.0
3.0,66.0,45.0,0.0
3.0,83.0,31.0,20.0
3.0,69.0,58.0,0.0
3.0,65.0,68.0,0.0
3.0,83.0,31.0,40.0
3.0,82.0,95.0,0.0
3.0,81.0,70.0,0.0
3.0,69.0,67.0,0.0
3.0,66.0,97.0,0.0
3.0,65.0,92.0,0.0
3.0,83.0,31.0,52.0
3.0,69.0,54.0,0.0
3.0,66.0,41.0,0.0
3.0,83.0,31.0,20.0
3.0,69.0,95.0,0.0
3.0,68.0,80.0,0.0
3.0,66.0,113.0,0.0
3.0,83.0,31.0,24.0
3.0,69.0,58.0,0.0
3.0,66.0,98.0,0.0
3.0,65.0,108.0,0.0
3.0,83.0,31.0,40.0
3.0,82.0,95.0,0.0
3.0,81.0,70.0,0.0
3.0,69.0,67.0,0.0
3.0,66.0,41.0,0.0
3.0,83.0,31.0,8.0
3.0,69.0,54.0,0.0
3.0,66.0,87.0,0.0
3.0,65.0,94.0,0.0
3.0,87.0,119.0,52.0
3.0,83.0,31.0,0.0
3.0,69.0,95.0,0.0
3.0,68.0,80.0,0.0
3.0,64.0,113.0,0.0
3.0,83.0,31.0,12.0
3.0,69.0,58.0,0.0
3.0,87.0,116.0,40.0
3.0,83.0,31.0,0.0
3.0,82.0,95.0,0.0
3.0,81.0,70.0,0.0
3.0,69.0,67.0,0.0
3.0,64.0,110.0,0.0
3.0,83.0,31.0,36.0
3.0,69.0,54.0,0.0
3.0,87.0,127.0,44.0
3.0,83.0,31.0,0.0
3.0,69.0,95.0,0.0
3.0,68.0,80.0,0.0
3.0,64.0,121.0,0.0
3.0,41.0,90.0,0.0
3.0,83.0,31.0,12.0
3.0,69.0,58.0,0.0
3.0,83.0,31.0,40.0
3.0,82.0,95.0,0.0
3.0,81.0,70.0,0.0
3.0,69.0,67.0,0.0
3.0,66.0,61.0,0.0
3.0,83.0,31.0,4.0
3.0,69.0,54.0,0.0
3.0,66.0,101.0,0.0
3.0,65.0,115.0,0.0
3.0,41.0,66.0,0.0
3.0,83.0,31.0,12.0
3.0,69.0,95.0,0.0
3.0,68.0,80.0,0.0
3.0,66.0,45.0,0.0
3.0,41.0,90.0,0.0
3.0,83.0,31.0,12.0
3.0,69.0,58.0,0.0
3.0,65.0,68.0,0.0
3.0,83.0,31.0,40.0
3.0,82.0,95.0,0.0
3.0,81.0,70.0,0.0
3.0,69.0,67.0,0.0
3.0,66.0,97.0,0.0
3.0,65.0,92.0,0.0
3.0,83.0,31.0,52.0
3.0,69.0,54.0,0.0
3.0,66.0,41.0,0.0
3.0,41.0,66.0,0.0
3.0,83.0,31.0,20.0
3.0,69.0,95.0,0.0
3.0,68.0,80.0,0.0
3.0,66.0,113.0,0.0
3.0,41.0,90.0,0.0
3.0,83.0,31.0,24.0
3.0,69.0,58.0,0.0
3.0,66.0,98.0,0.0
3.0,65.0,108.0,0.0
3.0,83.0,31.0,40.0
3.0,82.0,95.0,0.0
3.0,81.0,70.0,0.0
3.0,69.0,67.0,0.0
3.0,66.0,41.0,0.0
3.0,83.0,31.0,8.0
3.0,69.0,54.0,0.0
3.0,66.0,87.0,0.0
3.0,65.0,94.0,0.0
3.0,41.0,66.0,0.0
3.0,87.0,119.0,52.0
3.0,83.0,31.0,0.0
3.0,69.0,95.0,0.0
3.0,68.0,80.0,0.0
3.0,64.0,113.0,0.0
3.0,41.0,90.0,0.0
3.0,83.0,31.0,12.0
3.0,69.0,58.0,0.0
3.0,87.0,116.0,40.0
3.0,83.0,31.0,0.0
3.0,82.0,95.0,0.0
3.0,81.0,70.0,0.0
3.0,69.0,67.0,0.0
3.0,64.0,110.0,0.0
3.0,83.0,31.0,36.0
3.0,69.0,54.0,0.0
3.0,41.0,66.0,0.0
3.0,87.0,127.0,44.0
3.0,83.0,31.0,0.0
3.0,69.0,95.0,0.0
3.0,68.0,80.0,0.0
3.0,64.0,121.0,0.0
3.0,41.0,90.0,0.0
3.0,83.0,31.0,12.0
3.0,69.0,58.0,0.0
3.0,83.0,31.0,40.0
3.0,82.0,95.0,0.0
3.0,81.0,70.0,0.0
3.0,69.0,67.0,0.0
3.0,66.0,61.0,0.0
3.0,83.0,31.0,4.0
3.0,69.0,54.0,0.0
3.0,66.0,101.0,0.0
3.0,65.0,115.0,0.0
3.0,41.0,66.0,0.0
3.0,83.0,31.0,12.0
3.0,69.0,95.0,0.0
3.0,68.0,80.0,0.0
3.0,66.0,45.0,0.0
3.0,41.0,90.0,0.0
3.0,83.0,31.0,12.0
3.0,69.0,58.0,0.0
3.0,65.0,68.0,0.0
3.0,83.0,31.0,40.0
3.0,82.0,95.0,0.0
3.0,81.0,70.0,0.0
3.0,69.0,67.0,0.0
3.0,66.0,97.0,0.0
3.0,65.0,92.0,0.0
3.0,83.0,31.0,52.0
3.0,69.0,54.0,0.0
3.0,66.0,41.0,0.0
3.0,41.0,66.0,0.0
3.0,83.0,31.0,20.0
3.0,69.0,95.0,0.0
3.0,68.0,80.0,0.0
3.0,66.0,113.0,0.0
3.0,41.0,90.0,0.0
3.0,83.0,31.0,24.0
3.0,69.0,58.0,0.0
3.0,66.0,98.0,0.0
3.0,65.0,108.0,0.0
3.0,83.0,31.0,40.0
3.0,82.0,95.0,0.0
3.0,81.0,70.0,0.0
3.0,69.0,67.0,0.0
3.0,66.0,41.0,0.0
3.0,83.0,31.0,8.0
3.0,69.0,54.0,0.0
3.0,66.0,87.0,0.0
3.0,65.0,94.0,0.0
3.0,41.0,66.0,0.0
3.0,87.0,119.0,52.0
3.0,83.0,31.0,0.0
3.0,69.0,95.0,0.0
3.0,68.0,80.0,0.0
3.0,64.0,113.0,0.0
3.0,41.0,90.0,0.0
3.0,83.0,31.0,12.0
3.0,69.0,58.0,0.0
3.0,87.0,116.0,40.0
3.0,83.0,31.0,0.0
3.0,82.0,95.0,0.0
3.0,81.0,70.0,0.0
3.0,69.0,67.0,0.0
3.0,64.0,110.0,0.0
3.0,83.0,31.0,36.0
3.0,69.0,54.0,0.0
3.0,41.0,66.0,0.0
3.0,87.0,127.0,44.0
3.0,83.0,31.0,0.0
3.0,69.0,95.0,0.0
3.0,68.0,80.0,0.0
3.0,64.0,121.0,0.0
3.0,41.0,90.0,0.0
3.0,83.0,31.0,12.0
3.0,69.0,58.0,0.0
3.0,83.0,31.0,40.0
3.0,82.0,95.0,0.0
3.0,81.0,70.0,0.0
3.0,69.0,67.0,0.0
3.0,66.0,61.0,0.0
3.0,83.0,31.0,4.0
3.0,69.0,54.0,0.0
3.0,66.0,101.0,0.0
3.0,65.0,115.0,0.0
3.0,41.0,66.0,0.0
3.0,83.0,31.0,12.0
3.0,69.0,95.0,0.0
3.0,68.0,80.0,0.0
3.0,66.0,45.0,0.0
3.0,41.0,90.0,0.0
3.0,83.0,31.0,12.0
3.0,69.0,58.0,0.0
3.0,65.0,68.0,0.0
3.0,83.0,31.0,40.0
3.0,82.0,95.0,0.0
3.0,81.0,70.0,0.0
3.0,69.0,67.0,0.0
3.0,66.0,97.0,0.0
3.0,65.0,92.0,0.0
3.0,83.0,31.0,52.0
3.0,69.0,54.0,0.0
3.0,66.0,41.0,0.0
3.0,41.0,66.0,0.0
3.0,83.0,31.0,20.0
3.0,69.0,95.0,0.0
3.0,68.0,80.0,0.0
3.0,66.0,113.0,0.0
3.0,41.0,90.0,0.0
3.0,83.0,31.0,24.0
3.0,69.0,58.0,0.0
3.0,66.0,98.0,0.0
3.0,65.0,108.0,0.0
3.0,83.0,31.0,40.0
3.0,82.0,95.0,0.0
3.0,81.0,70.0,0.0
3.0,69.0,67.0,0.0
3.0,66.0,41.0,0.0
3.0,83.0,31.0,8.0
3.0,69.0,54.0,0.0
3.0,66.0,87.0,0.0
3.0,65.0,94.0,0.0
3.0,41.0,66.0,0.0
3.0,87.0,119.0,52.0
3.0,83.0,31.0,0.0
3.0,69.0,95.0,0.0
3.0,68.0,80.0,0.0
3.0,64.0,113.0,0.0
3.0,41.0,90.0,0.0
3.0,83.0,31.0,12.0
3.0,69.0,58.0,0.0
3.0,87.0,116.0,40.0
3.0,83.0,31.0,0.0
3.0,82.0,95.0,0.0
3.0,81.0,70.0,0.0
3.0,69.0,67.0,0.0
3.0,64.0,110.0,0.0
3.0,83.0,31.0,36.0
3.0,69.0,54.0,0.0
3.0,41.0,66.0,0.0
3.0,87.0,127.0,44.0
3.0,83.0,31.0,0.0
3.0,69.0,95.0,0.0
3.0,68.0,80.0,0.0
3.0,64.0,121.0,0.0
3.0,41.0,90.0,0.0
3.0,83.0,31.0,12.0
3.0,69.0,58.0,0.0
3.0,83.0,31.0,40.0
3.0,82.0,95.0,0.0
3.0,81.0,70.0,0.0
3.0,69.0,67.0,0.0
3.0,66.0,61.0,0.0
3.0,83.0,31.0,4.0
3.0,69.0,54.0,0.0
3.0,66.0,101.0,0.0
3.0,65.0,115.0,0.0
3.0,41.0,66.0,0.0
3.0,83.0,31.0,12.0
3.0,69.0,95.0,0.0
3.0,68.0,80.0,0.0
3.0,66.0,45.0,0.0
3.0,41.0,90.0,0.0
3.0,83.0,31.0,12.0
3.0,69.0,58.0,0.0
3.0,65.0,68.0,0.0
3.0,83.0,31.0,40.0
3.0,82.0,95.0,0.0
3.0,81.0,70.0,0.0
3.0,69.0,67.0,0.0
3.0,66.0,97.0,0.0
3.0,65.0,92.0,0.0
3.0,83.0,31.0,52.0
3.0,69.0,54.0,0.0
3.0,66.0,41.0,0.0
3.0,41.0,66.0,0.0
3.0,83.0,31.0,20.0
3.0,69.0,95.0,0.0
3.0,68.0,80.0,0.0
3.0,66.0,113.0,0.0
3.0,41.0,90.0,0.0
3.0,83.0,31.0,24.0
3.0,69.0,58.0,0.0
3.0,66.0,98.0,0.0
3.0,65.0,108.0,0.0
3.0,83.0,31.0,40.0
3.0,82.0,95.0,0.0
3.0,81.0,70.0,0.0
3.0,69.0,67.0,0.0
3.0,66.0,41.0,0.0
3.0,83.0,31.0,8.0
3.0,69.0,54.0,0.0
3.0,66.0,87.0,0.0
3.0,65.0,94.0,0.0
3.0,41.0,66.0,0.0
3.0,87.0,119.0,52.0
3.0,83.0,31.0,0.0
3.0,69.0,95.0,0.0
3.0,68.0,80.0,0.0
3.0,64.0,113.0,0.0
3.0,41.0,90.0,0.0
3.0,83.0,31.0,12.0
3.0,69.0,58.0,0.0
3.0,87.0,116.0,40.0
3.0,83.0,31.0,0.0
3.0,82.0,95.0,0.0
3.0,81.0,70.0,0.0
3.0,69.0,67.0,0.0
3.0,64.0,110.0,0.0
3.0,83.0,31.0,36.0
3.0,69.0,54.0,0.0
3.0,41.0,66.0,0.0
3.0,87.0,127.0,44.0
3.0,83.0,31.0,0.0
3.0,69.0,95.0,0.0
3.0,68.0,80.0,0.0
3.0,64.0,121.0,0.0
3.0,41.0,90.0,0.0
3.0,83.0,31.0,12.0
3.0,69.0,58.0,0.0
3.0,83.0,31.0,40.0
3.0,82.0,95.0,0.0
3.0,81.0,70.0,0.0
3.0,69.0,67.0,0.0
3.0,66.0,61.0,0.0
3.0,83.0,31.0,4.0
3.0,69.0,54.0,0.0
3.0,66.0,101.0,0.0
3.0,65.0,115.0,0.0
3.0,41.0,66.0,0.0
3.0,83.0,31.0,12.0
3.0,69.0,95.0,0.0
3.0,68.0,80.0,0.0
3.0,66.0,45.0,0.0
3.0,41.0,90.0,0.0
3.0,83.0,31.0,12.0
3.0,69.0,58.0,0.0
3.0,65.0,68.0,0.0
3.0,83.0,31.0,40.0
3.0,82.0,95.0,0.0
3.0,81.0,70.0,0.0
3.0,69.0,67.0,0.0
3.0,66.0,97.0,0.0
3.0,65.0,92.0,0.0
3.0,83.0,31.0,52.0
3.0,69.0,54.0,0.0
3.0,66.0,41.0,0.0
3.0,41.0,66.0,0.0
3.0,83.0,31.0,20.0
3.0,69.0,95.0,0.0
3.0,68.0,80.0,0.0
3.0,66.0,113.0,0.0
3.0,41.0,90.0,0.0
3.0,83.0,31.0,24.0
3.0,69.0,58.0,0.0
3.0,66.0,98.0,0.0
3.0,65.0,108.0,0.0
3.0,83.0,31.0,40.0
3.0,82.0,95.0,0.0
3.0,81.0,70.0,0.0
3.0,69.0,67.0,0.0
3.0,66.0,41.0,0.0
3.0,83.0,31.0,8.0
3.0,69.0,54.0,0.0
3.0,66.0,87.0,0.0
3.0,65.0,94.0,0.0
3.0,41.0,66.0,0.0
3.0,87.0,119.0,52.0
3.0,83.0,31.0,0.0
3.0,69.0,95.0,0.0
3.0,68.0,80.0,0.0
3.0,64.0,113.0,0.0
3.0,41.0,90.0,0.0
3.0,83.0,31.0,12.0
3.0,69.0,58.0,0.0
3.0,87.0,116.0,40.0
3.0,83.0,31.0,0.0
3.0,82.0,95.0,0.0
3.0,81.0,70.0,0.0
3.0,69.0,67.0,0.0
3.0,64.0,110.0,0.0
3.0,83.0,31.0,36.0
3.0,69.0,54.0,0.0
3.0,41.0,66.0,0.0
3.0,87.0,127.0,44.0
3.0,83.0,31.0,0.0
3.0,69.0,95.0,0.0
3.0,68.0,80.0,0.0
3.0,64.0,121.0,0.0
3.0,41.0,90.0,0.0
3.0,83.0,31.0,12.0
3.0,69.0,58.0,0.0
3.0,83.0,31.0,40.0
3.0,82.0,95.0,0.0
3.0,81.0,70.0,0.0
3.0,69.0,67.0,0.0
3.0,66.0,61.0,0.0
3.0,83.0,31.0,4.0
3.0,69.0,54.0,0.0
3.0,66.0,101.0,0.0
3.0,65.0,115.0,0.0
3.0,41.0,66.0,0.0
3.0,83.0,31.0,12.0
3.0,69.0,95.0,0.0
3.0,68.0,80.0,0.0
3.0,66.0,45.0,0.0
3.0,41.0,90.0,0.0
3.0,83.0,31.0,12.0
3.0,69.0,58.0,0.0
3.0,65.0,68.0,0.0
3.0,83.0,31.0,40.0
3.0,82.0,95.0,0.0
3.0,81.0,70.0,0.0
3.0,69.0,67.0,0.0
3.0,66.0,97.0,0.0
3.0,65.0,92.0,0.0
3.0,83.0,31.0,52.0
3.0,69.0,54.0,0.0
3.0,66.0,41.0,0.0
3.0,41.0,66.0,0.0
3.0,83.0,31.0,20.0
3.0,69.0,95.0,0.0
3.0,68.0,80.0,0.0
3.0,66.0,113.0,0.0
3.0,41.0,90.0,0.0
3.0,83.0,31.0,24.0
3.0,69.0,58.0,0.0
3.0,66.0,98.0,0.0
3.0,65.0,108.0,0.0
3.0,83.0,31.0,40.0
3.0,82.0,95.0,0.0
3.0,81.0,70.0,0.0
3.0,69.0,67.0,0.0
3.0,66.0,41.0,0.0
3.0,83.0,31.0,8.0
3.0,69.0,54.0,0.0
3.0,66.0,87.0,0.0
3.0,65.0,94.0,0.0
3.0,41.0,66.0,0.0
3.0,87.0,119.0,52.0
3.0,83.0,31.0,0.0
3.0,69.0,95.0,0.0
3.0,68.0,80.0,0.0
3.0,64.0,113.0,0.0
3.0,41.0,90.0,0.0
0.0,0.0,0.0,0.0
0.0,0.0,0.0,0.0
0.0,0.0,0.0,0.0
0.0,0.0,0.0,0.0
0.0,0.0,0.0,0.0
0.0,0.0,0.0,0.0
0.0,0.0,0.0,0.0
0.0,0.0,0.0,0.0
0.0,0.0,0.0,0.0
0.0,0.0,0.0,0.0
0.0,0.0,0.0,0.0
0.0,0.0,0.0,0.0
0.0,0.0,0.0,0.0
0.0,0.0,0.0,0.0
0.0,0.0,0.0,0.0
0.0,0.0,0.0,0.0
0.0,0.0,0.0,0.0
0.0,0.0,0.0,0.0
0.0,0.0,0.0,0.0
0.0,0.0,0.0,0.0
0.0,0.0,0.0,0.0
0.0,0.0,0.0,0.0
0.0,0.0,0.0,0.0
0.0,0.0,0.0,0.0
0.0,0.0,0.0,0.0
0.0,0.0,0.0,0.0
0.0,0.0,0.0,0.0
0.0,0.0,0.0,0.0
0.0,0.0,0.0,0.0
0.0,0.0,0.0,0.0
0.0,0.0,0.0,0.0
0.0,0.0,0.0,0.0
0.0,0.0,0.0,0.0
0.0,0.0,0.0,0.0
0.0,0.0,0.0,0.0
0.0,0.0,0.0,0.0
0.0,0.0,0.0,0.0
0.0,0.0,0.0,0.0
0.0,0.0,0.0,0.0
0.0,0.0,0.0,0.0
0.0,0.0,0.0,0.0
0.0,0.0,0.0,0.0
0.0,0.0,0.0,0.0
0.0,0.0,0.0,0.0
0.0,0.0,0.0,0.0
0.0,0.0,0.0,0.0
0.0,0.0,0.0,0.0
0.0,0.0,0.0,0.0
0.0,0.0,0.0,0.0
0.0,0.0,0.0,0.0
0.0,0.0,0.0,0.0
0.0,0.0,0.0,0.0
0.0,0.0,0.0,0.0
0.0,0.0,0.0,0.0
0.0,0.0,0.0,0.0
0.0,0.0,0.0,0.0
0.0,0.0,0.0,0.0
0.0,0.0,0.0,0.0
0.0,0.0,0.0,0.0
0.0,0.0,0.0,0.0
0.0,0.0,0.0,0.0
0.0,0.0,0.0,0.0
0.0,0.0,0.0,0.0
0.0,0.0,0.0,0.0
0.0,0.0,0.0,0.0
0.0,0.0,0.0,0.0
0.0,0.0,0.0,0.0
0.0,0.0,0.0,0.0
0.0,0.0,0.0,0.0
0.0,0.0,0.0,0.0
0.0,0.0,0.0,0.0
0.0,0.0,0.0,0.0
0.0,0.0,0.0,0.0
0.0,0.0,0.0,0.0
0.0,0.0,0.0,0.0
0.0,0.0,0.0,0.0
0.0,0.0,0.0,0.0
0.0,0.0,0.0,0.0
0.0,0.0,0.0,0.0
0.0,0.0,0.0,0.0
0.0,0.0,0.0,0.0
0.0,0.0,0.0,0.0
0.0,0.0,0.0,0.0
0.0,0.0,0.0,0.0
0.0,0.0,0.0,0.0
0.0,0.0,0.0,0.0
0.0,0.0,0.0,0.0
0.0,0.0,0.0,0.0
0.0,0.0,0.0,0.0
0.0,0.0,0.0,0.0
0.0,0.0,0.0,0.0
0.0,0.0,0.0,0.0
0.0,0.0,0.0,0.0
0.0,0.0,0.0,0.0
0.0,0.0,0.0,0.0
0.0,0.0,0.0,0.0
0.0,0.0,0.0,0.0
0.0,0.0,0.0,0.0
0.0,0.0,0.0,0.0
0.0,0.0,0.0,0.0
0.0,0.0,0.0,0.0
0.0,0.0,0.0,0.0
0.0,0.0,0.0,0.0
0.0,0.0,0.0,0.0
0.0,0.0,0.0,0.0
0.0,0.0,0.0,0.0
0.0,0.0,0.0,0.0
0.0,0.0,0.0,0.0
0.0,0.0,0.0,0.0
0.0,0.0,0.0,0.0
0.0,0.0,0.0,0.0
0.0,0.0,0.0,0.0
0.0,0.0,0.0,0.0
0.0,0.0,0.0,0.0
0.0,0.0,0.0,0.0
0.0,0.0,0.0,0.0
0.0,0.0,0.0,0.0
0.0,0.0,0.0,0.0
0.0,0.0,0.0,0.0
0.0,0.0,0.0,0.0
0.0,0.0,0.0,0.0
0.0,0.0,0.0,0.0
0.0,0.0,0.0,0.0
0.0,0.0,0.0,0.0
0.0,0.0,0.0,0.0
0.0,0.0,0.0,0.0
0.0,0.0,0.0,0.0
0.0,0.0,0.0,0.0
0.0,0.0,0.0,0.0
0.0,0.0,0.0,0.0
0.0,0.0,0.0,0.0
0.0,0.0,0.0,0.0
0.0,0.0,0.0,0.0
0.0,0.0,0.0,0.0
0.0,0.0,0.0,0.0
0.0,0.0,0.0,0.0
0.0,0.0,0.0,0.0
0.0,0.0,0.0,0.0
0.0,0.0,0.0,0.0
0.0,0.0,0.0,0.0
0.0,0.0,0.0,0.0
0.0,0.0,0.0,0.0
0.0,0.0,0.0,0.0
0.0,0.0,0.0,0.0
0.0,0.0,0.0,0.0
0.0,0.0,0.0,0.0
0.0,0.0,0.0,0.0
0.0,0.0,0.0,0.0
0.0,0.0,0.0,0.0
0.0,0.0,0.0,0.0
0.0,0.0,0.0,0.0
0.0,0.0,0.0,0.0
0.0,0.0,0.0,0.0
0.0,0.0,0.0,0.0
0.0,0.0,0.0,0.0
0.0,0.0,0.0,0.0
0.0,0.0,0.0,0.0
0.0,0.0,0.0,0.0
0.0,0.0,0.0,0.0
0.0,0.0,0.0,0.0
0.0,0.0,0.0,0.0
0.0,0.0,0.0,0.0
0.0,0.0,0.0,0.0
0.0,0.0,0.0,0.0
0.0,0.0,0.0,0.0
0.0,0.0,0.0,0.0
