track,note,velocity,time
1,66,88,0
1,62,100,0
1,57,112,0
1,47,100,0
1,66,0,106
1,62,0,1
1,57,0,4
1,47,0,1
1,42,112,29
1,61,88,0
1,64,88,1
1,57,100,0
1,57,0,166
1,61,0,5
1,64,0,5
1,42,0,29
1,59,100,26
1,68,88,0
1,40,88,1
1,64,88,0
1,69,100,46
1,68,0,25
1,69,0,6
1,64,0,11
1,71,68,7
1,40,0,34
1,59,0,0
1,71,0,4
1,66,77,14
1,38,100,1
1,57,100,0
1,62,112,1
1,64,77,92
1,62,0,6
1,66,0,7
1,57,0,10
1,62,88,27
1,64,0,13
1,57,88,38
1,62,0,1
1,38,0,13
1,57,0,9
1,62,100,28
1,47,112,1
1,57,100,1
1,54,88,0
1,57,0,109
1,62,0,7
1,54,0,2
1,47,0,5
1,42,88,15
1,61,77,1
1,57,100,0
1,52,88,1
1,52,0,138
1,57,0,3
1,61,0,8
1,42,0,63
1,68,100,22
1,59,100,0
1,64,100,1
1,40,100,0
1,64,0,76
1,64,51,16
1,68,0,12
1,64,0,14
1,59,0,3
1,40,0,19
1,38,88,8
1,66,77,0
1,57,100,1
1,62,100,1
1,57,0,193
1,62,0,8
1,38,0,2
1,66,0,2
1,54,51,37
1,57,100,1
1,47,100,1
1,62,112,0
1,57,0,318
1,62,0,25
1,47,0,3
1,54,0,4
1,42,88,34
1,61,60,1
1,52,88,1
1,57,100,0
1,57,0,315
1,52,0,1
1,61,0,14
1,42,0,19
1,54,60,25
1,62,100,1
1,47,100,0
1,57,100,1
1,57,0,327
1,62,0,20
1,54,0,4
1,47,0,5
1,61,60,31
1,42,77,0
1,52,68,2
1,57,100,1
1,52,0,320
1,57,0,11
1,61,0,0
1,42,0,15
1,62,88,32
1,47,100,1
1,57,100,1
1,54,60,0
1,47,0,308
1,57,0,2
1,62,0,9
1,54,0,9
1,42,68,51
1,61,60,0
1,57,112,1
1,52,77,1
1,61,0,58
1,57,0,5
1,52,0,3
1,42,0,2
1,56,77,27
1,40,100,1
1,52,77,1
1,59,88,0
1,59,0,55
1,56,0,1
1,52,0,5
1,40,0,3
1,38,100,33
1,54,88,1
1,57,112,1
1,50,100,0
1,50,0,111
1,54,0,3
1,57,0,2
1,38,0,1
1,57,125,28
1,62,112,0
1,38,100,1
1,54,88,0
1,54,0,320
1,57,0,10
1,62,0,9
1,38,0,5
1,61,112,34
1,57,112,1
1,64,88,1
1,38,112,0
1,61,0,401
1,57,0,1
1,64,0,0
1,38,0,2
1,47,112,28
1,57,100,0
1,62,112,0
1,66,77,0
1,42,100,145
1,61,112,1
1,57,100,0
1,64,88,1
1,66,0,141
1,62,0,0
1,47,0,37
1,57,0,0
1,64,0,9
1,61,0,4
1,42,0,6
1,47,112,35
1,57,100,0
1,62,112,1
1,66,88,1
1,57,0,53
1,42,88,95
1,61,112,1
1,57,100,1
1,64,100,0
1,64,0,64
1,61,0,1
1,52,100,25
1,47,0,46
1,57,112,0
1,66,0,2
1,62,0,3
1,52,0,3
1,42,0,54
1,57,0,8
1,54,100,25
1,47,112,1
1,57,112,0
1,62,112,1
1,54,0,108
1,61,77,39
1,42,88,0
1,52,88,1
1,57,112,0
1,61,0,181
1,57,0,4
1,42,0,2
1,52,0,6
1,57,0,8
1,40,112,31
1,52,88,0
1,55,112,1
1,59,112,0
1,52,0,113
1,55,0,4
1,40,0,0
1,59,0,3
1,47,0,25
1,45,112,6
1,57,112,1
1,61,100,0
1,52,77,1
1,52,0,207
1,57,0,0
1,45,0,1
1,61,0,3
1,62,0,24
1,57,0,3
1,47,112,0
1,57,100,1
1,66,88,1
1,62,100,0
1,42,88,138
1,61,100,0
1,57,100,1
1,64,100,0
1,61,0,208
1,64,0,1
1,42,0,4
1,57,0,29
1,47,100,0
1,57,112,1
1,62,100,1
1,66,88,0
1,42,100,144
1,61,88,0
1,57,112,1
1,64,88,0
1,57,0,176
1,66,0,1
1,57,0,5
1,61,0,2
1,64,0,1
1,42,0,3
1,62,0,37
1,47,0,5
1,40,100,4
1,55,125,1
1,59,112,0
1,62,112,1
1,55,0,99
1,40,0,4
1,59,0,2
1,62,0,32
1,38,112,11
1,57,100,0
1,62,112,1
1,66,100,0
1,57,0,133
1,62,0,2
1,66,0,1
1,38,0,10
1,57,0,2
1,62,0,38
1,57,0,1
1,38,100,0
1,50,112,0
1,54,100,1
1,57,112,0
1,62,100,1
1,66,0,40
1,47,0,7
1,57,0,324
1,50,0,24
1,54,0,3
1,38,0,2
1,62,0,21
1,47,100,14
1,54,68,42
1,57,88,51
1,62,100,1
1,54,0,38
1,61,68,6
1,57,68,1
1,42,60,2
1,52,77,2
1,57,0,63
1,57,0,67
1,62,0,11
1,52,0,8
1,61,0,6
1,42,0,15
1,68,51,64
1,40,88,2
1,59,88,1
1,64,77,0
1,69,112,47
1,68,0,23
1,69,0,4
1,47,0,14
1,40,0,1
1,71,88,4
1,64,0,11
1,59,0,20
1,71,0,5
1,66,68,13
1,62,88,2
1,38,88,1
1,57,77,0
1,62,0,133
1,66,0,10
1,57,0,0
1,38,0,39
1,47,100,51
1,66,88,0
1,57,100,1
1,62,100,1
1,47,0,101
1,57,0,23
1,61,100,26
1,64,88,0
1,42,88,1
1,57,88,0
1,66,0,36
1,62,0,6
1,61,0,128
1,64,0,0
1,57,0,0
1,42,0,2
1,68,51,60
1,40,68,0
1,59,88,1
1,64,77,0
1,64,0,70
1,64,60,27
1,68,0,16
1,40,0,4
1,59,0,19
1,64,0,11
1,38,77,0
1,66,15,0
1,62,68,1
1,57,100,2
1,57,0,133
1,66,0,5
1,38,0,89
1,66,88,12
1,47,112,0
1,57,100,0
1,62,100,0
1,62,0,31
1,57,0,160
1,66,0,34
1,62,0,15
1,47,0,78
1,61,100,70
1,64,60,0
1,57,100,1
1,42,100,0
1,57,0,184
1,64,0,54
1,57,112,3
1,61,0,9
1,59,100,56
1,42,0,59
1,59,0,3
1,62,100,1
1,57,112,1
1,66,68,0
1,47,100,1
1,57,0,4
1,62,0,145
1,66,0,4
1,57,0,3
1,47,0,61
1,42,68,172
1,61,68,1
1,64,77,2
1,57,100,0
1,57,0,140
1,52,88,100
1,61,0,135
1,52,0,1
1,64,0,2
1,66,77,2
1,62,100,1
1,47,112,1
1,57,112,0
1,42,0,2
1,57,0,124
1,62,0,2
1,66,0,15
1,47,0,65
1,61,100,174
1,57,112,1
1,42,100,0
1,64,88,1
1,61,0,59
1,64,0,2
1,42,0,29
1,68,100,6
1,59,100,1
1,64,88,0
1,40,88,1
1,57,0,37
1,59,0,23
1,64,0,8
1,68,0,5
1,40,0,4
1,38,88,19
1,66,100,1
1,69,100,0
1,62,100,1
1,62,0,110
1,66,0,12
1,69,0,1
1,38,0,4
1,62,112,16
1,66,100,1
1,38,100,0
1,57,100,3
1,62,0,144
1,66,0,8
1,57,0,0
1,38,0,198
1,57,112,26
1,62,125,1
1,66,112,0
1,38,125,1
1,50,112,1
1,57,0,163
1,38,0,11
1,50,0,70
1,66,0,6
1,62,0,5
1,47,112,177
1,57,100,0
1,62,112,0
1,66,77,0
1,47,0,111
1,42,100,34
1,61,112,1
1,57,100,0
1,64,88,1
1,62,0,66
1,66,0,1
1,64,0,120
1,61,0,4
1,42,0,6
1,47,112,35
1,57,100,0
1,62,112,1
1,66,88,1
1,47,0,123
1,42,88,25
1,61,112,1
1,57,100,1
1,64,100,0
1,62,0,55
1,64,0,9
1,61,0,1
1,52,100,25
1,57,0,20
1,66,0,23
1,57,112,3
1,52,0,8
1,42,0,54
1,57,0,8
1,54,100,25
1,47,112,1
1,57,112,0
1,62,112,1
1,57,0,17
1,57,0,87
1,54,0,4
1,61,77,39
1,42,88,0
1,52,88,1
1,57,112,0
1,57,0,9
1,62,0,26
1,47,0,12
1,57,0,116
1,61,0,18
1,57,0,4
1,42,0,2
1,52,0,6
1,40,112,39
1,52,88,0
1,55,112,1
1,59,112,0
1,52,0,113
1,40,0,4
1,55,0,0
1,59,0,3
1,45,112,31
1,57,112,1
1,61,100,0
1,52,77,1
1,52,0,207
1,45,0,1
1,61,0,3
1,47,112,27
1,57,100,1
1,66,88,1
1,62,100,0
1,42,88,138
1,61,100,0
1,57,100,1
1,64,100,0
1,62,0,2
1,57,0,41
1,57,0,54
1,66,0,1
1,47,0,42
1,61,0,68
1,64,0,1
1,42,0,4
1,47,100,29
1,57,112,1
1,62,100,1
1,66,88,0
1,62,0,132
1,57,0,2
1,42,100,10
1,61,88,0
1,57,112,1
1,64,88,0
1,57,0,161
1,66,0,10
1,57,0,11
1,61,0,2
1,64,0,1
1,42,0,3
1,40,100,46
1,55,125,1
1,59,112,0
1,62,112,1
1,47,0,97
1,55,0,2
1,40,0,4
1,59,0,2
1,62,0,35
1,38,112,8
1,57,100,0
1,62,112,1
1,66,100,0
1,57,0,102
1,38,0,44
1,62,0,26
1,38,100,15
1,50,112,0
1,54,100,1
1,57,112,0
1,62,100,1
1,62,0,141
1,57,0,41
1,38,0,1
1,66,0,152
1,50,0,45
1,47,112,52
1,54,68,46
1,62,100,52
1,57,100,0
1,54,0,29
1,61,68,17
1,57,112,2
1,52,100,0
1,42,100,1
1,57,0,72
1,62,0,3
1,57,0,49
1,52,0,24
1,61,0,26
1,42,0,51
1,40,88,11
1,68,88,1
1,59,112,1
1,64,100,0
1,69,100,48
1,68,0,14
1,69,0,14
1,64,0,8
1,47,0,5
1,71,88,8
1,40,0,18
1,71,0,9
1,59,0,1
1,66,77,20
1,62,100,1
1,38,112,1
1,57,88,0
1,57,0,179
1,47,112,51
1,62,0,4
1,38,0,44
1,54,88,0
1,62,100,49
1,57,100,3
1,54,0,31
1,42,88,17
1,61,77,0
1,57,100,2
1,52,100,0
1,66,0,44
1,54,0,47
1,52,0,83
1,42,0,3
1,61,0,0
1,62,0,10
1,57,0,19
1,47,0,28
1,40,100,2
1,55,112,1
1,59,100,0
1,62,100,1
1,57,0,4
1,45,112,142
1,52,100,1
1,61,100,0
1,57,100,1
1,59,0,9
1,55,0,36
1,40,0,1
1,62,0,46
1,52,0,125
1,61,0,5
1,45,0,0
1,50,112,18
1,57,112,1
1,62,112,0
1,66,112,1
1,57,0,40
1,57,0,193
1,50,0,2
1,62,0,48
1,49,112,100
1,56,100,0
1,61,88,1
1,65,100,1
1,66,0,92
1,65,0,226
1,61,0,2
1,49,0,12
1,56,0,1
1,49,100,46
1,56,88,0
1,59,100,1
1,64,88,1
1,64,0,340
1,56,0,14
1,49,0,4
1,42,77,22
1,61,88,0
1,57,125,1
1,64,100,0
1,57,0,96
1,42,0,253
1,61,0,1
1,64,0,1
1,59,0,33
1,62,112,0
1,55,112,1
1,59,112,0
1,40,100,1
1,61,100,143
1,64,100,0
1,57,112,1
1,45,112,0
1,62,0,42
1,40,0,92
1,55,0,1
1,59,0,0
1,64,0,1
1,61,0,3
1,45,0,21
1,57,0,20
1,38,112,6
1,54,100,1
1,62,112,0
1,57,112,1
1,50,112,0
1,57,0,141
1,62,0,1
1,50,0,146
1,38,0,56
1,54,0,41
1,38,100,0
1,57,112,0
1,62,112,1
1,54,77,0
1,50,125,1
1,57,0,163
1,62,0,78
1,50,0,108
1,38,0,32
1,54,0,1
1,47,112,50
1,57,100,0
1,62,112,0
1,66,77,0
1,42,100,145
1,61,112,1
1,57,100,0
1,64,88,1
1,47,0,44
1,66,0,1
1,62,0,0
1,64,0,142
1,61,0,4
1,42,0,6
1,47,112,35
1,57,100,0
1,62,112,1
1,66,88,1
1,47,0,97
1,42,88,51
1,61,112,1
1,57,100,1
1,64,100,0
1,62,0,42
1,64,0,22
1,61,0,1
1,52,100,25
1,57,0,20
1,66,0,23
1,57,112,3
1,52,0,8
1,42,0,54
1,57,0,8
1,57,0,25
1,54,100,0
1,47,112,1
1,57,112,0
1,62,112,1
1,61,77,147
1,42,88,0
1,52,88,1
1,57,112,0
1,57,0,9
1,62,0,26
1,47,0,13
1,54,0,31
1,57,0,64
1,61,0,38
1,57,0,4
1,42,0,2
1,52,0,6
1,40,112,39
1,52,88,0
1,55,112,1
1,59,112,0
1,40,0,98
1,55,0,1
1,59,0,0
1,45,112,52
1,57,112,1
1,61,100,0
1,52,77,1
1,52,0,207
1,45,0,1
1,61,0,3
1,57,0,27
1,47,112,0
1,57,100,1
1,66,88,1
1,62,100,0
1,52,0,16
1,42,88,122
1,61,100,0
1,57,100,1
1,64,100,0
1,62,0,2
1,57,0,41
1,57,0,54
1,66,0,43
1,47,0,5
1,61,0,63
1,64,0,1
1,42,0,4
1,47,100,29
1,57,112,1
1,62,100,1
1,66,88,0
1,62,0,132
1,57,0,6
1,42,100,6
1,61,88,0
1,57,112,1
1,64,88,0
1,47,0,91
1,66,0,53
1,57,0,19
1,57,0,19
1,61,0,2
1,64,0,1
1,42,0,3
1,40,100,46
1,55,125,1
1,59,112,0
1,62,112,1
1,59,0,98
1,40,0,0
1,38,112,50
1,57,100,0
1,62,112,1
1,66,100,0
1,62,0,4
1,55,0,5
1,38,0,91
1,62,0,5
1,66,0,3
1,57,0,16
1,38,100,63
1,50,112,0
1,54,100,1
1,57,112,0
1,62,100,1
1,57,0,95
1,50,0,62
1,54,0,16
1,62,0,7
1,38,0,17
1,47,112,236
1,54,88,44
1,62,100,49
1,57,112,1
1,61,60,46
1,57,68,2
1,42,88,0
1,52,100,1
1,54,0,1
1,62,0,49
1,47,0,90
1,61,0,30
1,42,0,59
1,68,68,10
1,40,88,2
1,59,100,0
1,64,88,1
1,69,100,45
1,69,0,29
1,71,88,16
1,71,0,30
1,66,88,20
1,38,112,1
1,57,100,1
1,62,100,0
1,68,0,42
1,64,68,59
1,66,0,10
1,62,88,31
1,57,0,4
1,64,0,15
1,38,0,8
1,62,0,13
1,57,100,10
1,47,112,47
1,54,77,47
1,62,0,1
1,62,100,48
1,57,100,2
1,57,0,40
1,61,68,3
1,57,88,3
1,42,100,1
1,52,77,1
1,57,0,60
1,62,0,42
1,57,0,39
1,57,0,26
1,52,0,0
1,61,0,10
1,59,0,57
1,42,0,0
1,56,68,0
1,40,0,1
1,64,0,0
1,59,100,0
1,64,77,1
1,40,88,0
1,56,0,96
1,38,100,52
1,57,112,0
1,54,88,1
1,62,100,1
1,38,0,94
1,47,112,146
1,54,88,42
1,47,0,18
1,62,100,32
1,57,112,0
1,54,0,32
1,57,0,7
1,42,68,10
1,61,68,0
1,57,88,1
1,52,88,2
1,52,0,151
1,61,0,15
1,42,0,48
1,40,0,18
1,68,60,0
1,59,0,1
1,40,88,0
1,64,0,1
1,59,100,0
1,64,88,1
1,69,112,45
1,47,0,20
1,69,0,9
1,71,88,19
1,71,0,36
1,38,68,10
1,66,77,1
1,62,88,2
1,57,77,1
1,62,0,18
1,54,0,47
1,64,77,32
1,62,88,43
1,64,0,13
1,57,0,37
1,57,88,1
1,47,100,49
1,54,88,49
1,62,100,50
1,57,100,1
1,54,0,23
1,62,0,13
1,57,0,4
1,61,77,6
1,57,100,1
1,42,88,0
1,52,88,2
1,57,0,13
1,66,0,0
1,62,0,0
1,68,0,95
1,38,0,47
1,57,0,5
1,52,0,1
1,61,0,11
1,42,0,5
1,62,0,28
1,57,0,0
1,40,0,30
1,59,0,1
1,64,0,0
1,56,77,0
1,40,112,0
1,59,88,1
1,64,77,0
1,47,0,59
1,38,88,88
1,54,100,1
1,57,112,0
1,62,100,1
1,57,0,6
1,62,0,1
1,57,0,4
1,54,0,47
1,50,68,128
1,45,77,1
1,52,0,8
1,57,0,195
1,40,0,1
1,62,0,0
1,59,0,1
1,56,0,94
1,64,0,7
1,38,0,44
1,54,0,1
1,50,0,191
1,45,0,97
2,44,80,1440
2,51,72,0
2,46,50,0
2,46,0,24
2,51,0,0
2,44,0,0
2,42,72,72
2,35,100,0
2,42,0,4
2,35,0,20
2,42,48,24
2,42,0,4
2,42,72,44
2,40,115,0
2,42,0,4
2,40,0,20
2,42,50,24
2,42,0,4
2,42,72,44
2,35,84,0
