track,note,velocity,time
2,69,127,4470
2,72,127,27
2,69,0,5
2,69,127,25
2,72,0,7
2,74,127,21
2,69,0,2
2,74,0,14
2,74,127,15
2,74,0,13
2,74,127,17
2,72,127,158
2,74,0,5
2,74,127,21
2,72,0,6
2,72,127,27
2,74,0,3
2,72,0,16
2,74,127,10
2,74,0,134
2,74,127,9
2,72,126,10
2,74,0,6
2,74,127,20
2,72,0,7
2,72,127,22
2,74,0,3
2,74,127,28
2,72,0,8
2,74,0,81
2,69,127,240
2,72,127,27
2,69,0,5
2,69,127,25
2,72,0,7
2,74,127,21
2,69,0,2
2,74,0,14
2,74,127,15
2,74,0,13
2,74,127,17
2,74,0,163
2,69,127,655
2,72,127,29
2,69,0,6
2,69,127,23
2,72,0,4
2,74,127,19
2,69,0,2
2,74,0,14
2,74,127,16
2,74,0,14
2,74,127,16
2,74,0,159
2,72,127,1
2,74,127,24
2,72,0,2
2,72,127,27
2,74,0,5
2,74,127,24
2,72,0,3
2,72,127,147
2,74,0,6
2,74,127,21
2,72,0,5
2,72,127,26
2,74,0,5
2,74,127,28
2,72,0,5
2,74,0,107
2,72,127,227
2,74,127,27
2,72,0,5
2,72,127,23
2,74,0,6
2,72,0,23
2,74,127,1
2,74,0,24
2,72,127,3
2,74,127,30
2,72,0,2
2,74,0,126
2,69,127,539
2,69,0,37
2,76,127,23
2,76,0,39
2,76,127,16
2,75,127,27
2,76,0,5
2,76,127,27
2,75,0,6
2,76,0,25
2,75,127,0
2,75,0,19
2,76,127,11
2,75,106,1
2,75,0,5
2,79,127,47
2,76,0,1
2,76,118,33
2,79,0,4
2,76,0,196
2,67,127,4
2,67,0,25
2,67,127,31
2,67,0,19
2,67,127,14
2,72,127,68
2,74,127,2
2,67,0,2
2,72,0,8
2,72,127,175
2,74,0,1
2,71,127,26
2,72,0,6
2,71,0,14
2,72,127,9
2,69,127,71
2,72,0,2
2,76,127,190
2,69,0,6
2,74,127,239
2,76,0,9
2,74,0,224
2,74,127,9
2,76,127,298
2,74,0,9
2,76,0,28
2,76,127,24
2,75,127,32
2,76,0,8
2,76,127,24
2,75,0,9
2,76,0,13
2,75,127,6
2,76,127,28
2,75,0,6
2,79,127,29
2,76,0,4
2,76,127,55
2,79,0,6
2,76,0,200
2,67,127,0
2,67,0,40
2,67,127,22
2,67,0,15
2,67,127,17
2,72,127,58
2,74,127,4
2,67,0,9
2,72,0,7
2,72,127,161
2,74,0,8
2,71,127,23
2,72,0,7
2,72,127,19
2,71,0,9
2,69,127,65
2,72,0,1
2,76,127,198
2,69,0,8
2,76,0,220
2,74,127,5
2,74,0,216
2,74,127,30
2,74,0,230
2,69,127,155
2,72,127,27
2,69,0,5
2,69,127,25
2,72,0,7
2,74,127,21
2,69,0,2
2,74,0,14
2,74,127,15
2,74,0,13
2,74,127,17
2,72,127,158
2,74,0,5
2,74,127,21
2,72,0,6
2,72,127,27
2,74,0,3
2,72,0,16
2,74,127,10
2,74,0,134
2,74,127,9
2,72,126,10
2,74,0,6
2,74,127,20
2,72,0,7
2,72,127,22
2,74,0,3
2,74,127,28
2,72,0,8
2,74,0,81
2,69,127,240
2,72,127,27
2,69,0,5
2,69,127,25
2,72,0,7
2,74,127,21
2,69,0,2
2,74,0,14
2,74,127,15
2,74,0,13
2,74,127,17
2,74,0,163
2,69,127,655
2,72,127,29
2,69,0,6
2,69,127,23
2,72,0,4
2,74,127,19
2,69,0,2
2,74,0,14
2,74,127,16
2,74,0,14
2,74,127,16
2,74,0,159
2,72,127,1
2,74,127,24
2,72,0,2
2,72,127,27
2,74,0,5
2,74,127,24
2,72,0,3
2,72,127,147
2,74,0,6
2,74,127,21
2,72,0,5
2,72,127,26
2,74,0,5
2,74,127,28
2,72,0,5
2,74,0,107
2,72,127,227
2,74,127,27
2,72,0,5
2,72,127,23
2,74,0,6
2,72,0,23
2,74,127,1
2,74,0,24
2,72,127,3
2,74,127,30
2,72,0,2
2,74,0,126
2,74,127,297
2,76,127,31
2,74,0,4
2,76,0,38
2,79,127,17
2,79,0,47
2,79,114,10
2,81,127,8
2,79,0,7
2,81,0,71
2,76,127,69
2,76,0,39
2,76,127,16
2,75,127,27
2,76,0,5
2,76,127,27
2,75,0,6
2,76,0,25
2,75,127,0
2,75,0,19
2,76,127,11
2,75,106,1
2,75,0,5
2,79,127,47
2,76,0,1
2,76,118,33
2,79,0,4
2,76,0,196
2,67,127,4
2,67,0,25
2,67,127,31
2,67,0,19
2,67,127,14
2,72,127,68
2,74,127,2
2,67,0,2
2,72,0,8
2,72,127,175
2,74,0,1
2,71,127,26
2,72,0,6
2,71,0,14
2,72,127,9
2,69,127,71
2,72,0,2
2,76,127,190
2,69,0,6
2,74,127,239
2,76,0,9
2,74,0,224
2,74,127,9
2,76,127,298
2,74,0,9
2,76,0,28
2,76,127,24
2,75,127,32
2,76,0,8
2,76,127,24
2,75,0,9
2,76,0,13
2,75,127,6
2,76,127,28
2,75,0,6
2,79,127,29
2,76,0,4
2,76,127,55
2,79,0,6
2,76,0,200
2,67,127,0
2,67,0,40
2,67,127,22
2,67,0,15
2,67,127,17
2,72,127,58
2,74,127,4
2,67,0,9
2,72,0,7
2,72,127,161
2,74,0,8
2,71,127,23
2,72,0,7
2,72,127,19
2,71,0,9
2,69,127,65
2,72,0,1
2,76,127,198
2,69,0,8
2,76,0,220
2,74,127,5
2,74,0,216
2,74,127,30
2,74,0,230
2,72,127,2084
2,74,127,27
2,72,0,5
2,72,127,23
2,74,0,6
2,72,0,23
2,74,127,1
2,74,0,24
2,72,127,3
2,74,127,30
2,72,0,2
2,74,0,126
2,72,127,690
2,74,127,27
2,72,0,5
2,72,127,23
2,74,0,6
2,72,0,23
2,74,127,1
2,74,0,24
2,72,127,3
2,74,127,30
2,72,0,2
2,74,0,126
2,74,127,297
2,76,127,31
2,74,0,4
2,76,0,38
2,79,127,17
2,79,0,47
2,79,114,10
2,81,127,8
2,79,0,7
2,81,0,71
2,76,127,69
2,76,0,39
2,76,127,16
2,75,127,27
2,76,0,5
2,76,127,27
2,75,0,6
2,76,0,25
2,75,127,0
2,75,0,19
2,76,127,11
2,75,106,1
2,75,0,5
2,79,127,47
2,76,0,1
2,76,118,33
2,79,0,4
2,76,0,196
2,67,127,4
2,67,0,25
2,67,127,31
2,67,0,19
2,67,127,14
2,72,127,68
2,74,127,2
2,67,0,2
2,72,0,8
2,72,127,175
2,74,0,1
2,71,127,26
2,72,0,6
2,71,0,14
2,72,127,9
2,69,127,71
2,72,0,2
2,76,127,190
2,69,0,6
2,74,127,239
2,76,0,9
2,74,0,224
2,74,127,9
2,76,127,298
2,74,0,9
2,76,0,28
2,76,127,24
2,75,127,32
2,76,0,8
2,76,127,24
2,75,0,9
2,76,0,13
2,75,127,6
2,76,127,28
2,75,0,6
2,79,127,29
2,76,0,4
2,76,127,55
2,79,0,6
2,76,0,200
2,67,127,0
2,67,0,40
2,67,127,22
2,67,0,15
2,67,127,17
2,72,127,58
2,74,127,4
2,67,0,9
2,72,0,7
2,72,127,161
2,74,0,8
2,71,127,23
2,72,0,7
2,72,127,19
2,71,0,9
2,69,127,65
2,72,0,1
2,76,127,198
2,69,0,8
2,76,0,220
2,74,127,5
2,74,0,216
2,74,127,30
2,74,0,230
2,76,127,73
2,76,0,39
2,76,127,16
2,75,127,27
2,76,0,5
2,76,127,27
2,75,0,6
2,76,0,25
2,75,127,0
2,75,0,19
2,76,127,11
2,75,106,1
2,75,0,5
2,79,127,47
2,76,0,1
2,76,118,33
2,79,0,4
2,76,0,196
2,67,127,4
2,67,0,25
2,67,127,31
2,67,0,19
2,67,127,14
2,72,127,68
2,74,127,2
2,67,0,2
2,72,0,8
2,72,127,175
2,74,0,1
2,71,127,26
2,72,0,6
2,71,0,14
2,72,127,9
2,69,127,71
2,72,0,2
2,76,127,190
2,69,0,6
2,74,127,239
2,76,0,9
2,74,0,224
2,74,127,9
2,76,127,298
2,74,0,9
2,76,0,28
2,76,127,24
2,75,127,32
2,76,0,8
2,76,127,24
2,75,0,9
2,76,0,13
2,75,127,6
2,76,127,28
2,75,0,6
2,79,127,29
2,76,0,4
2,76,127,55
2,79,0,6
2,76,0,200
2,67,127,0
2,67,0,40
2,67,127,22
2,67,0,15
2,67,127,17
2,72,127,58
2,74,127,4
2,67,0,9
2,72,0,7
2,72,127,161
2,74,0,8
2,71,127,23
2,72,0,7
2,72,127,19
2,71,0,9
2,69,127,65
2,72,0,1
2,76,127,198
2,69,0,8
2,76,0,220
2,74,127,5
2,74,0,216
2,74,127,30
2,74,0,230
2,76,127,73
2,76,0,39
2,76,127,16
2,75,127,27
2,76,0,5
2,76,127,27
2,75,0,6
2,76,0,25
2,75,127,0
2,75,0,19
2,76,127,11
2,75,106,1
2,75,0,5
2,79,127,47
2,76,0,1
2,76,118,33
2,79,0,4
2,76,0,196
2,67,127,4
2,67,0,25
2,67,127,31
2,67,0,19
2,67,127,14
2,72,127,68
2,74,127,2
2,67,0,2
2,72,0,8
2,72,127,175
2,74,0,1
2,71,127,26
2,72,0,6
2,71,0,14
2,72,127,9
2,69,127,71
2,72,0,2
2,76,127,190
2,69,0,6
2,74,127,239
2,76,0,9
2,74,0,224
2,74,127,9
2,76,127,298
2,74,0,9
2,76,0,28
2,76,127,24
2,75,127,32
2,76,0,8
2,76,127,24
2,75,0,9
2,76,0,13
2,75,127,6
2,76,127,28
2,75,0,6
2,79,127,29
2,76,0,4
2,76,127,55
2,79,0,6
2,76,0,200
2,67,127,0
2,67,0,40
2,67,127,22
2,67,0,15
2,67,127,17
2,72,127,58
2,74,127,4
2,67,0,9
2,72,0,7
2,72,127,161
2,74,0,8
2,71,127,23
2,72,0,7
2,72,127,19
2,71,0,9
2,69,127,65
2,72,0,1
2,76,127,198
2,69,0,8
2,76,0,220
2,74,127,5
2,74,0,216
2,74,127,30
2,74,127,1
2,76,127,31
2,74,0,4
2,76,0,38
2,79,127,17
2,79,0,47
2,79,114,10
2,81,127,8
2,79,0,7
2,74,0,67
2,81,0,4
2,79,127,1
2,79,0,30
3,60,100,660
3,60,0,14
3,58,100,226
3,58,0,14
3,60,100,226
3,60,0,14
3,63,100,226
3,63,0,14
3,60,100,226
3,60,0,14
3,58,100,226
3,58,0,14
3,60,100,226
3,60,0,14
3,63,100,226
3,63,0,14
3,60,100,226
3,60,0,14
3,58,100,226
3,58,0,14
3,60,100,226
3,60,0,14
3,63,100,226
3,63,0,14
3,60,100,226
3,60,0,14
3,58,100,226
3,58,0,14
3,60,100,226
3,60,0,14
3,63,100,226
3,63,0,14
3,60,100,4066
3,60,0,14
3,58,100,226
3,58,0,14
3,60,100,226
3,60,0,14
3,63,100,226
3,63,0,14
3,60,100,226
3,60,0,14
3,58,100,226
3,58,0,14
3,60,100,226
3,60,0,14
3,63,100,226
3,63,0,14
3,60,100,226
3,60,0,14
3,58,100,226
3,58,0,14
3,60,100,226
3,60,0,14
3,63,100,226
3,63,0,14
3,60,100,226
3,60,0,14
3,58,100,226
3,58,0,14
3,60,100,226
3,60,0,14
3,63,100,226
3,63,0,14
3,60,100,226
3,60,0,14
3,58,100,226
3,58,0,14
3,60,100,226
3,60,0,14
3,63,100,226
3,63,0,14
3,60,100,226
3,60,0,14
3,58,100,226
3,58,0,14
3,60,100,226
3,60,0,14
3,63,100,226
3,63,0,14
3,60,100,226
3,60,0,14
3,58,100,226
3,58,0,14
3,60,100,226
3,60,0,14
3,63,100,226
3,63,0,14
3,60,100,226
3,60,0,14
3,58,100,226
3,58,0,14
3,60,100,226
3,60,0,14
3,63,100,226
3,63,0,14
3,60,100,226
3,60,0,14
3,58,100,226
3,58,0,14
3,60,100,226
3,60,0,14
3,63,100,226
3,63,0,14
3,60,100,226
3,60,0,14
3,58,100,226
3,58,0,14
3,60,100,226
3,60,0,14
3,63,100,226
3,63,0,14
3,60,100,226
3,60,0,14
3,58,100,226
3,58,0,14
3,60,100,226
3,60,0,14
3,63,100,226
3,63,0,14
3,60,100,226
3,60,0,14
3,58,100,226
3,58,0,14
3,60,100,226
3,60,0,14
3,63,100,226
3,63,0,14
3,60,100,4066
3,60,0,14
3,58,100,226
3,58,0,14
3,60,100,226
3,60,0,14
3,63,100,226
3,63,0,14
3,60,100,226
3,60,0,14
3,58,100,226
3,58,0,14
3,60,100,226
3,60,0,14
3,63,100,226
3,63,0,14
3,60,100,226
3,60,0,14
3,58,100,226
3,58,0,14
3,60,100,226
3,60,0,14
3,63,100,226
3,63,0,14
3,60,100,226
3,60,0,14
3,58,100,226
3,58,0,14
3,60,100,226
3,60,0,14
3,63,100,226
3,63,0,14
3,60,100,226
3,60,0,14
3,58,100,226
3,58,0,14
3,60,100,226
3,60,0,14
3,63,100,226
3,63,0,14
3,60,100,226
3,60,0,14
3,58,100,226
3,58,0,14
3,60,100,226
3,60,0,14
3,63,100,226
3,63,0,14
3,60,100,226
3,60,0,14
3,58,100,226
3,58,0,14
3,60,100,226
3,60,0,14
3,63,100,226
3,63,0,14
3,60,100,226
3,60,0,14
3,58,100,226
3,58,0,14
3,60,100,226
3,60,0,14
3,63,100,226
3,63,0,14
3,60,100,226
3,60,0,14
3,58,100,226
3,58,0,14
3,60,100,226
3,60,0,14
3,63,100,226
3,63,0,14
3,60,100,226
3,60,0,14
3,58,100,226
3,58,0,14
3,60,100,226
3,60,0,14
3,63,100,226
3,63,0,14
3,60,100,226
3,60,0,14
3,58,100,226
3,58,0,14
3,60,100,226
3,60,0,14
3,63,100,226
3,63,0,14
3,60,100,226
3,60,0,14
3,58,100,226
3,58,0,14
3,60,100,226
3,60,0,14
3,63,100,226
3,63,0,14
4,57,100,2402
4,45,100,0
4,45,0,60
4,57,0,0
4,45,100,0
4,57,100,0
4,57,0,30
4,45,0,0
4,45,100,0
4,57,100,0
4,57,0,30
4,45,0,0
4,45,100,0
4,57,100,0
4,57,0,30
4,45,0,0
4,45,100,0
4,57,100,0
4,57,0,30
4,45,0,0
4,47,100,0
4,59,100,0
4,59,0,30
4,47,0,0
4,55,80,0
4,55,0,30
4,48,100,0
4,60,100,0
4,60,0,60
4,48,0,0
4,48,100,0
4,60,100,0
4,60,0,30
4,48,0,0
4,48,100,0
4,60,100,0
4,60,0,30
4,48,0,0
4,48,100,0
4,60,100,0
4,60,0,30
4,48,0,0
4,48,100,0
4,60,100,0
4,60,0,30
4,48,0,0
4,52,80,30
4,52,0,30
4,43,100,0
4,55,100,0
4,55,0,60
4,43,0,0
4,43,100,0
4,55,100,0
4,55,0,30
4,43,0,0
4,43,100,0
4,55,100,0
4,55,0,30
4,43,0,0
4,43,100,0
4,55,100,0
4,55,0,30
4,43,0,0
4,43,100,0
4,55,100,0
4,55,0,30
4,43,0,0
4,50,80,30
4,50,0,30
4,50,100,0
4,62,100,0
4,62,0,60
4,50,0,0
4,50,100,0
4,62,100,0
4,62,0,30
4,50,0,0
4,50,100,0
4,62,100,0
4,62,0,30
4,50,0,0
4,50,100,0
4,62,100,0
4,62,0,30
4,50,0,0
4,50,100,0
4,62,100,0
4,62,0,30
4,50,0,0
4,55,80,30
4,55,0,30
4,57,100,0
4,45,100,0
4,45,0,60
4,57,0,0
4,45,100,0
4,57,100,0
4,57,0,30
4,45,0,0
4,45,100,0
4,57,100,0
4,57,0,30
4,45,0,0
4,45,100,0
4,57,100,0
4,57,0,30
4,45,0,0
4,45,100,0
4,57,100,0
4,57,0,30
4,45,0,0
4,47,100,0
4,59,100,0
4,59,0,30
4,47,0,0
4,55,80,0
4,55,0,30
4,48,100,0
4,60,100,0
4,60,0,60
4,48,0,0
4,48,100,0
4,60,100,0
4,60,0,30
4,48,0,0
4,48,100,0
4,60,100,0
4,60,0,30
4,48,0,0
4,48,100,0
4,60,100,0
4,60,0,30
4,48,0,0
4,48,100,0
4,60,100,0
4,60,0,30
4,48,0,0
4,52,80,30
4,52,0,30
4,43,100,0
4,55,100,0
4,55,0,60
4,43,0,0
