track,note,velocity,time
1,50,97,3925
1,50,91,30
1,50,109,29
1,50,89,32
1,40,103,6
1,40,97,27
1,40,85,13
1,38,97,3
1,40,109,6
1,40,97,27
1,40,91,14
1,40,83,17
1,38,114,22
1,40,97,50
1,38,103,45
1,35,109,7
1,40,103,54
1,40,97,27
1,40,85,13
1,38,97,3
1,40,109,6
1,38,97,4
1,40,97,7
1,40,98,14
1,40,91,4
1,40,83,15
1,38,114,22
1,40,97,50
1,38,103,45
1,35,109,7
1,40,103,55
1,40,97,27
1,40,85,13
1,38,97,3
1,40,109,6
1,40,97,28
1,40,91,15
1,40,83,17
1,38,114,22
1,40,97,50
1,38,103,44
1,35,109,7
1,40,103,54
1,40,97,27
1,40,85,13
1,38,97,4
1,40,109,6
1,38,97,4
1,40,97,7
1,40,98,13
1,40,91,4
1,40,83,15
1,38,114,22
1,40,97,50
1,38,103,45
1,35,109,7
1,40,95,54
1,40,94,49
1,40,94,49
1,35,93,1
1,40,93,25
1,38,93,2
1,40,93,2
1,40,89,49
1,35,89,2
1,40,88,2
1,35,87,4
1,40,87,48
1,38,86,3
1,40,95,2
1,40,94,50
1,40,94,49
1,35,93,2
1,40,93,25
1,38,93,2
1,40,93,1
1,40,89,49
1,35,89,1
1,40,88,2
1,35,87,4
1,40,87,48
1,38,86,3
1,40,95,2
1,40,94,49
1,40,94,49
1,35,93,1
1,40,93,25
1,38,93,2
1,40,93,2
1,40,89,50
1,35,89,1
1,40,88,2
1,35,87,4
1,40,87,48
1,38,86,3
1,40,95,2
1,40,94,49
1,40,94,49
1,35,93,1
1,40,93,25
1,38,93,2
1,40,93,1
1,40,89,49
1,35,89,2
1,40,88,2
1,35,87,4
1,40,87,48
1,38,86,3
1,43,95,4
1,43,94,49
1,41,94,59
1,43,94,2
1,41,94,49
1,38,94,8
1,43,94,8
1,43,94,69
1,41,93,65
1,43,93,6
1,41,93,1
1,38,93,8
1,43,93,7
1,43,93,67
1,41,92,65
1,43,92,4
1,41,92,1
1,38,92,12
1,43,92,14
1,41,91,49
1,40,90,49
1,41,90,49
1,43,89,49
1,40,95,25
1,40,94,50
1,40,94,49
1,35,93,1
1,40,93,25
1,38,93,1
1,40,93,2
1,40,89,49
1,35,89,2
1,40,88,2
1,35,87,4
1,40,87,48
1,38,86,4
1,40,95,2
1,40,94,49
1,40,94,50
1,35,93,2
1,40,93,25
1,38,93,2
1,40,93,1
1,40,89,49
1,35,89,2
1,40,88,2
1,35,87,4
1,40,87,48
1,38,86,3
1,43,89,3
1,43,89,2
1,43,88,1
1,43,88,0
1,43,88,1
1,43,88,0
1,43,88,1
1,43,88,0
1,42,87,1
1,42,87,1
1,42,87,0
1,42,87,0
1,41,87,0
1,41,86,1
1,41,86,0
1,41,86,0
1,40,92,3
1,40,91,54
1,40,91,54
1,35,91,44
1,38,91,47
1,35,91,2
1,40,90,5
1,40,90,45
1,40,90,46
1,43,90,5
1,40,90,3
1,35,89,11
1,43,89,20
1,43,89,1
1,43,88,0
1,43,88,0
1,43,88,1
1,43,88,1
1,42,88,48
1,50,97,1342
1,50,91,30
1,50,109,29
1,50,89,31
1,40,103,6
1,40,97,27
1,40,85,13
1,38,97,3
1,40,109,6
1,40,97,28
1,40,91,15
1,40,83,17
1,38,114,22
1,40,97,50
1,38,103,45
1,35,109,7
1,40,103,54
1,40,97,27
1,40,85,13
1,38,97,3
1,40,109,6
1,38,97,4
1,40,97,7
1,40,98,13
1,40,91,3
1,40,83,15
1,38,114,22
1,40,97,50
1,38,103,45
1,35,109,7
1,40,95,54
1,40,94,49
1,40,94,49
1,35,93,1
1,40,93,25
1,38,93,2
1,40,93,1
1,40,89,49
1,35,89,2
1,40,88,2
1,35,87,4
1,40,87,48
1,38,86,3
1,40,95,2
1,40,94,49
1,40,94,49
1,35,93,2
1,40,93,25
1,38,93,2
1,40,93,1
1,40,89,49
1,35,89,2
1,40,88,2
1,35,87,4
1,40,87,48
1,38,86,3
1,40,95,2
1,40,94,49
1,40,94,49
1,35,93,1
1,40,93,25
1,38,93,2
1,40,93,1
1,40,89,49
1,35,89,2
1,40,88,2
1,35,87,4
1,40,87,48
1,38,86,3
1,40,95,2
1,40,94,49
1,40,94,49
1,35,93,1
1,40,93,25
1,38,93,2
1,40,93,1
1,40,89,49
1,35,89,2
1,40,88,2
1,35,87,4
1,40,87,48
1,38,86,3
1,43,95,4
1,43,94,49
1,41,94,59
1,43,94,2
1,41,94,49
1,38,94,8
1,43,94,8
1,43,94,70
1,41,93,65
1,43,93,6
1,41,93,1
1,38,93,8
1,43,93,7
1,43,93,67
1,41,92,65
1,43,92,4
1,41,92,1
1,38,92,12
1,43,92,14
1,41,91,49
1,40,90,50
1,41,90,50
1,43,89,50
1,41,81,25
1,40,95,49
1,40,94,50
1,40,94,49
1,35,93,1
1,40,93,25
1,38,93,2
1,40,93,1
1,40,89,49
1,35,89,2
1,40,88,2
1,35,87,4
1,40,87,48
1,38,86,3
1,40,95,2
1,40,94,50
1,40,94,50
1,35,93,2
1,40,93,25
1,38,93,2
1,40,93,1
1,40,89,49
1,35,89,2
1,40,88,2
1,35,87,4
1,40,87,48
1,38,86,3
1,43,89,3
1,43,89,2
1,43,88,1
1,43,88,0
1,43,88,0
1,43,88,0
1,43,88,0
1,43,88,0
1,42,87,1
1,42,87,0
1,42,87,0
1,42,87,1
1,41,87,0
1,41,86,0
1,41,86,0
1,41,86,0
1,40,92,3
1,40,91,54
1,40,91,54
1,35,91,44
1,38,91,47
1,35,91,2
1,40,90,5
1,40,90,45
1,40,90,46
1,43,90,5
1,40,90,3
1,35,89,11
1,43,89,20
1,43,89,0
1,43,88,2
1,43,88,1
1,43,88,1
1,43,88,1
1,42,88,48
1,56,95,2322
1,54,77,1
1,56,77,1
1,54,77,1
1,54,77,6
1,52,77,1
1,54,77,1
1,52,77,1
1,47,97,2
1,47,96,2
1,47,95,0
1,40,89,3
1,35,89,1
1,40,89,1
1,38,88,1
1,37,89,1
1,40,88,1
1,42,88,2
1,43,88,2
1,40,88,1
1,43,87,1
1,45,87,2
1,35,87,2
1,38,86,2
1,39,86,1
1,40,89,2
1,35,89,1
1,40,89,2
1,38,88,1
1,37,89,1
1,40,88,1
1,42,88,1
1,43,88,1
1,40,88,1
1,43,87,1
1,45,87,2
1,35,87,2
1,38,86,2
1,39,86,1
1,40,89,2
1,35,89,1
1,40,89,1
1,38,88,1
1,37,89,1
1,31,88,1
1,32,88,1
1,33,88,2
1,35,88,2
1,37,87,3
1,38,87,2
1,33,87,2
1,37,86,2
1,38,86,1
1,40,89,2
1,35,89,1
1,40,89,1
1,38,88,1
1,37,89,1
1,40,88,1
1,42,88,1
1,43,88,1
1,40,88,1
1,43,87,2
1,45,87,2
1,35,87,2
1,38,86,2
1,39,86,1
1,40,89,3
1,35,89,1
1,40,89,1
1,38,88,1
1,37,89,1
1,40,88,1
1,42,88,1
1,43,88,1
1,40,88,1
1,43,87,1
1,45,87,2
1,35,87,2
1,38,86,2
1,39,86,1
1,40,89,3
1,35,89,1
1,40,89,1
1,38,88,1
1,37,89,1
1,40,88,1
1,42,88,1
1,43,88,1
1,40,88,2
1,43,87,1
1,45,87,2
1,35,87,2
1,38,86,2
1,39,86,1
1,40,89,2
1,35,89,1
1,40,89,1
1,38,88,1
1,37,89,1
1,31,88,1
1,32,88,1
1,33,88,1
1,35,88,2
1,37,87,2
1,38,87,2
1,33,87,2
1,37,86,2
1,38,86,1
1,40,89,3
1,35,89,2
1,40,89,1
1,38,88,1
1,37,89,2
1,40,88,1
1,42,88,1
1,33,88,3
1,40,103,194
1,40,97,27
1,40,85,13
1,38,97,3
1,40,109,6
1,40,97,28
1,40,91,15
1,40,83,17
1,38,114,22
1,40,97,50
1,38,103,45
1,35,109,7
1,40,103,54
1,40,97,27
1,40,85,13
1,38,97,3
1,40,109,6
1,38,97,3
1,40,97,7
1,40,98,13
1,40,91,3
1,40,83,15
1,38,114,22
1,40,97,50
1,38,103,45
1,35,109,7
1,40,103,55
1,40,97,27
1,40,85,13
1,38,97,3
1,40,109,6
1,40,97,28
1,40,91,15
1,40,83,17
1,38,114,22
1,40,97,50
1,38,103,44
1,35,109,7
1,40,103,54
1,40,97,27
1,40,85,13
1,38,97,3
1,40,109,6
1,38,97,4
1,40,97,7
1,40,98,14
1,40,91,3
1,40,83,15
1,38,114,22
1,40,97,50
1,38,103,45
1,35,109,7
1,43,89,55
1,43,89,2
1,43,88,2
1,43,88,0
1,43,88,0
1,43,88,0
1,43,88,0
1,43,88,0
1,42,87,1
1,42,87,0
1,42,87,0
1,42,87,0
1,43,87,1
1,43,86,0
1,43,86,0
1,43,86,0
1,43,89,0
1,43,89,0
1,43,88,0
1,42,88,25
1,40,92,3
1,40,91,54
1,40,91,54
1,35,91,44
1,38,91,47
1,35,91,2
1,40,90,5
1,40,90,45
1,40,90,46
1,43,90,5
1,40,90,3
1,35,89,11
1,43,89,21
1,43,89,1
1,43,88,0
1,43,88,0
1,43,88,0
1,43,88,0
1,42,88,49
2,71,101,2579
2,67,80,1
2,64,66,2
2,59,70,2
2,62,104,26
2,64,70,26
2,67,60,20
2,67,64,2
2,52,60,2
2,62,60,1
2,69,104,25
2,67,80,1
2,64,66,2
2,59,70,2
2,62,104,26
2,64,70,26
2,62,59,1
2,52,60,0
2,69,101,35
2,67,80,1
2,64,66,2
2,59,70,2
2,62,104,26
2,64,70,26
2,67,60,18
2,67,64,2
2,52,60,1
2,62,60,1
2,69,104,25
2,67,80,2
2,64,66,2
2,59,70,2
2,62,104,26
2,64,70,26
2,62,59,1
2,52,60,0
2,69,101,37
2,67,80,2
2,64,66,2
2,59,70,2
2,62,104,25
2,64,70,25
2,67,60,48
2,67,64,2
2,52,60,1
2,62,60,1
2,69,104,25
2,67,80,1
2,64,66,2
2,59,70,2
2,62,104,25
2,64,70,25
2,62,59,1
2,52,60,1
2,69,101,35
2,67,80,1
2,64,66,3
2,59,70,2
2,62,104,25
2,64,70,25
2,67,60,48
2,67,64,1
2,52,60,2
2,62,60,1
2,69,104,25
2,67,80,1
2,64,66,2
2,59,70,2
2,62,104,25
2,64,70,25
2,62,59,1
2,52,60,1
2,69,101,37
2,67,80,2
2,64,66,3
2,59,70,1
2,62,104,25
2,64,70,25
2,67,60,48
2,67,64,1
2,52,60,2
2,62,60,1
2,69,104,25
2,67,80,1
2,64,66,2
2,59,70,2
2,62,104,25
2,64,70,25
2,62,59,1
2,52,60,0
2,69,101,35
2,67,80,2
2,64,66,3
2,59,70,2
2,62,104,25
2,64,70,25
2,67,60,48
2,67,64,2
2,52,60,2
2,62,60,1
2,69,104,25
2,67,80,1
2,64,66,2
2,59,70,1
2,62,104,25
2,64,70,25
2,62,59,1
2,52,60,1
2,72,101,3108
2,70,80,1
2,67,66,2
2,62,70,1
2,65,104,25
2,67,70,25
2,70,60,48
2,70,64,2
2,55,60,2
2,65,60,1
2,72,104,25
2,70,80,0
2,67,66,1
2,62,70,1
2,65,104,24
2,67,70,24
2,65,59,1
2,55,60,0
2,72,101,35
2,70,80,1
2,67,66,2
2,62,70,2
2,65,104,26
2,67,70,25
2,70,60,48
2,70,64,1
2,55,60,2
2,65,60,1
2,67,98,26
2,67,66,25
2,65,97,13
2,65,66,25
2,64,96,13
2,64,66,24
2,65,94,13
2,65,66,24
2,67,93,13
2,67,78,1
2,64,54,2318
2,71,59,0
2,68,45,2
2,71,54,0
2,64,43,9
2,68,54,2
2,64,54,0
2,66,54,24
2,62,54,1
2,64,54,46
2,68,56,0
2,52,48,125
2,64,54,0
2,71,54,0
2,68,54,2
2,71,54,0
2,64,48,2
2,68,54,2
2,64,54,1
2,74,72,23
2,67,54,1
2,71,54,45
2,64,54,1
2,68,54,0
2,69,101,1652
2,67,80,1
2,64,66,2
2,59,70,2
2,62,104,25
2,64,70,25
2,67,60,48
2,67,64,2
2,52,60,2
2,62,60,1
2,69,104,25
2,67,80,1
2,64,66,3
2,59,70,2
2,62,104,25
2,64,70,25
2,62,59,1
2,52,60,0
2,69,101,37
2,67,80,1
2,64,66,2
2,59,70,2
2,62,104,25
2,64,70,25
2,67,60,48
2,67,64,2
2,52,60,1
2,62,60,1
2,69,104,25
2,67,80,1
2,64,66,2
2,59,70,2
2,62,104,25
2,64,70,25
2,62,59,1
2,52,60,1
2,69,101,35
2,67,80,1
2,64,66,2
2,59,70,2
2,62,104,26
2,64,70,25
2,67,60,48
2,67,64,1
2,52,60,3
2,62,60,0
2,69,104,25
2,67,80,1
2,64,66,2
2,59,70,2
2,62,104,25
2,64,70,25
2,62,59,1
2,52,60,1
2,72,101,3108
2,70,80,1
2,67,66,2
2,62,70,2
2,65,104,26
2,67,70,25
2,70,60,48
2,70,64,2
2,55,60,2
2,65,60,1
2,72,104,25
2,70,80,0
2,67,66,1
2,62,70,1
2,65,104,24
2,67,70,24
2,65,59,1
2,55,60,0
2,72,101,35
2,70,80,1
2,67,66,2
2,62,70,2
2,65,104,26
2,67,70,25
2,70,60,48
2,70,64,2
2,55,60,2
2,65,60,1
2,72,98,25
2,72,66,1
2,72,66,0
2,72,66,2
2,72,66,0
2,71,97,1
2,71,66,1
2,71,66,0
2,71,66,1
2,71,66,0
2,70,96,1
2,70,66,1
2,70,66,0
2,70,66,1
2,70,66,0
2,69,94,1
2,69,66,1
2,69,66,0
2,69,66,1
2,69,66,0
2,71,93,1
2,71,66,1
2,71,66,0
2,64,45,2306
2,71,50,0
2,68,36,18
2,71,45,1
2,64,34,9
2,68,45,1
2,64,45,1
2,66,45,0
2,62,45,2
2,64,45,1
2,68,47,1
2,52,39,120
2,64,45,3
2,71,45,1
2,68,45,17
2,71,45,1
2,64,39,2
2,68,45,1
2,64,45,1
2,74,63,0
2,67,45,2
2,71,45,0
2,64,45,2
2,68,45,1
2,62,115,3956
2,64,95,5
2,67,98,1
2,69,80,5
2,67,115,10
2,64,98,43
2,64,86,38
2,62,100,20
2,59,86,20
2,62,94,17
2,64,94,23
2,59,80,1
2,55,104,2
2,56,95,61
2,52,78,6
2,52,86,7
2,52,92,4
2,52,87,13
2,54,101,6
2,59,90,22
2,61,102,71
2,59,82,23
2,56,108,5
2,59,90,23
2,61,114,22
2,64,82,20
2,66,96,18
2,66,112,13
2,64,69,4
2,61,87,5
2,64,79,5
2,66,91,23
2,64,87,20
2,64,85,7
2,67,87,1
2,68,83,4
2,71,89,2
2,76,80,1
2,71,98,21
2,76,104,7
2,76,104,3
2,76,64,9
2,79,76,19
2,76,98,17
2,76,104,1
2,79,86,11
2,81,92,0
2,79,74,21
2,83,95,13
2,81,86,4
2,79,70,7
2,76,92,2
2,76,80,12
2,77,78,5
2,79,98,14
2,76,74,1
2,71,98,12
2,74,86,52
2,76,99,2
2,71,115,91
2,69,78,1
2,67,73,2
2,64,85,0
2,67,65,21
2,69,78,23
2,67,93,20
2,69,81,3
2,70,101,0
2,71,104,3
2,71,101,8
2,76,104,2
2,71,92,5
2,74,98,25
2,76,87,4
2,74,90,9
2,71,84,10
2,69,98,4
2,71,115,6
2,69,90,1
2,71,66,24
2,64,78,0
2,71,81,2
2,69,78,22
2,71,92,2
2,69,84,7
2,71,95,0
2,76,104,8
2,74,78,2
2,71,74,25
2,74,98,19
2,76,98,8
2,74,98,2
2,76,80,3
2,74,80,7
2,71,80,7
2,70,80,23
2,69,104,23
2,67,98,6
2,66,80,1
2,64,80,1
2,64,74,24
2,67,104,5
2,69,72,12
2,67,95,18
2,69,101,192
2,67,80,1
2,64,66,2
2,59,70,2
2,62,104,25
2,64,70,25
2,67,60,48
2,67,64,1
2,52,60,2
2,62,60,1
2,69,104,25
2,67,80,1
2,64,66,2
2,59,70,1
2,62,104,25
2,64,70,25
2,62,59,1
2,52,60,1
2,69,101,35
2,67,80,1
2,64,66,3
2,59,70,2
2,62,104,25
2,64,70,25
2,67,60,48
2,67,64,2
2,52,60,2
2,62,60,1
2,69,104,25
2,67,80,1
