track,note,velocity,time
0,69,127,139
0,62,70,0
0,55,70,0
0,43,127,0
0,43,55,0
0,71,100,11
0,67,105,3
0,55,100,0
0,62,90,85
0,55,90,179
0,67,90,89
0,55,90,3
0,43,110,41
0,71,127,96
0,67,90,0
0,62,85,0
0,69,127,29
0,66,120,0
0,62,100,0
0,55,83,55
0,67,95,5
0,64,90,0
0,60,95,0
0,43,100,0
0,43,55,0
0,55,83,192
0,60,92,5
0,55,92,17
0,67,90,192
0,55,90,187
0,67,100,187
0,62,120,0
0,60,110,7
0,55,85,96
0,59,110,96
0,43,90,5
0,43,55,0
0,55,90,191
0,57,89,192
0,59,102,3
0,62,114,27
0,55,105,1
0,69,127,3
0,67,127,0
0,62,127,0
0,43,90,0
0,71,127,3
0,62,110,85
0,55,80,1
0,43,100,0
0,67,103,3
0,62,82,0
0,55,97,0
0,66,93,3
0,55,97,83
0,67,71,3
0,64,90,0
0,60,90,0
0,40,100,0
0,40,55,0
0,52,75,107
0,60,75,3
0,52,75,5
0,67,69,5
0,62,80,0
0,38,85,0
0,38,55,0
0,67,96,97
0,50,45,0
0,55,72,20
0,69,100,3
0,67,70,0
0,62,85,0
0,57,60,0
0,67,96,6
0,55,72,20
0,62,65,3
0,69,96,14
0,57,72,19
0,71,96,3
0,59,72,3
0,67,85,5
0,62,70,0
0,43,95,0
0,43,55,0
0,71,96,97
0,59,72,3
0,50,70,27
0,71,100,3
0,67,100,0
0,62,90,0
0,71,96,22
0,59,72,20
0,67,93,1
0,62,80,0
0,55,90,0
0,71,96,10
0,59,72,20
0,69,96,19
0,57,72,19
0,71,96,4
0,59,72,7
0,64,110,5
0,60,110,0
0,36,90,0
0,48,55,0
0,69,96,15
0,57,72,15
0,48,90,9
0,69,96,93
0,57,72,20
0,64,106,9
0,60,103,0
0,55,85,0
0,67,96,47
0,55,72,20
0,48,90,5
0,48,55,0
0,71,96,17
0,59,72,20
0,62,95,7
0,55,85,0
0,43,95,0
0,43,55,0
0,50,65,29
0,59,86,113
0,55,65,1
0,67,95,192
0,55,71,113
0,43,110,17
0,71,120,17
0,67,100,0
0,62,76,0
0,74,96,9
0,62,72,20
0,69,95,15
0,66,90,0
0,62,90,0
0,76,96,6
0,64,72,20
0,78,96,25
0,66,72,7
0,71,70,5
0,67,70,0
0,64,70,0
0,40,92,0
0,40,55,0
0,79,96,39
0,67,72,20
0,79,96,29
0,67,72,20
0,79,96,33
0,67,72,20
0,71,70,29
0,67,70,0
0,64,70,0
0,79,96,79
0,67,72,20
0,52,76,1
0,78,96,15
0,66,72,20
0,71,85,3
0,67,85,0
0,62,87,0
0,38,97,0
0,38,55,0
0,78,96,67
0,66,72,20
0,78,96,29
0,71,90,8
0,67,90,0
0,62,80,0
0,66,72,12
0,79,96,19
0,67,72,19
0,50,90,46
0,76,96,13
0,64,72,20
0,64,97,5
0,60,92,0
0,55,85,0
0,36,90,0
0,36,55,0
0,60,80,3
0,55,80,61
0,48,80,192
0,36,70,96
0,36,110,75
0,55,80,77
0,64,127,99
0,60,120,0
0,55,100,0
0,48,100,77
0,64,96,68
0,52,72,20
0,60,80,5
0,57,65,0
0,52,65,0
0,45,95,0
0,45,55,0
0,72,96,4
0,60,72,20
0,72,96,1
0,60,72,7
0,45,70,3
0,72,96,51
0,60,72,20
0,60,80,46
0,57,70,0
0,52,70,0
0,74,96,31
0,62,72,20
0,45,80,5
0,45,55,0
0,71,96,28
0,59,72,20
0,59,70,23
0,55,60,0
0,52,60,0
0,40,80,0
0,40,55,0
0,52,60,63
0,59,87,89
0,52,70,71
0,69,96,12
0,57,72,20
0,71,96,3
0,59,72,20
0,60,80,5
0,57,65,0
0,52,65,0
0,45,95,0
0,45,55,0
0,72,96,18
0,60,72,20
0,52,75,21
0,72,96,16
0,60,72,20
0,72,96,35
0,60,72,20
0,69,109,3
0,64,94,0
0,60,88,0
0,57,85,0
0,45,106,0
0,74,96,17
0,62,72,20
0,71,90,53
0,71,96,75
0,59,72,20
0,67,75,5
0,64,60,0
0,59,70,0
0,40,80,0
0,40,55,0
0,52,75,7
0,69,96,5
0,57,72,20
0,69,96,43
0,57,72,20
0,59,87,26
0,67,96,21
0,55,72,20
0,52,70,42
0,71,96,61
0,59,72,20
0,69,65,5
0,67,95,0
0,62,65,0
0,38,95,0
0,38,55,0
0,69,96,1
0,57,72,17
0,50,55,54
0,62,80,3
0,50,55,167
0,69,80,37
0,66,105,0
0,62,65,0
0,38,95,0
0,50,55,139
0,62,95,183
0,50,55,1
0,38,100,1
0,72,88,5
0,67,100,0
0,64,110,0
0,60,100,0
0,38,127,0
0,38,55,0
0,50,65,153
0,67,70,3
0,60,95,0
0,50,65,163
0,72,95,13
0,67,85,0
0,64,85,0
0,60,80,0
0,38,90,0
0,67,96,190
0,50,80,2
0,55,72,7
0,72,112,47
0,67,105,0
0,64,110,0
0,60,110,0
0,60,90,0
0,67,96,14
0,55,72,20
0,69,96,5
0,57,72,5
0,62,80,6
0,50,65,0
0,67,96,3
0,55,72,9
0,71,85,5
0,67,80,0
0,62,70,0
0,43,85,0
0,43,55,0
0,71,96,8
0,59,72,20
0,50,70,53
0,71,96,2
0,59,72,20
0,71,96,25
0,71,111,2
0,67,113,0
0,62,108,0
0,59,90,0
0,59,72,18
0,71,96,63
0,55,80,14
0,59,72,6
0,71,96,53
0,59,72,3
0,64,75,5
0,60,60,0
0,55,75,0
0,48,90,0
0,48,55,0
0,69,96,19
0,57,72,19
0,64,94,17
0,60,87,0
0,55,97,0
0,69,96,8
0,57,72,20
0,67,96,7
0,55,72,7
0,48,70,5
0,48,55,0
0,71,96,1
0,59,72,19
0,62,85,17
0,59,94,0
0,55,81,0
0,43,70,0
0,43,55,0
0,50,79,59
0,59,87,3
0,55,82,1
0,79,88,31
0,74,82,0
0,71,56,0
0,55,76,169
0,43,97,11
0,71,127,5
0,67,110,0
0,62,100,0
0,74,96,96
0,62,72,20
0,69,127,11
0,66,96,0
0,62,90,0
0,76,96,50
0,64,72,20
0,78,96,3
0,66,72,9
0,67,79,5
0,64,69,0
0,59,71,0
0,40,99,0
0,40,55,0
0,79,96,31
0,67,72,20
0,52,53,59
0,67,99,101
0,64,105,0
0,59,127,0
0,79,96,55
0,67,72,20
0,52,80,13
0,40,85,0
0,79,96,34
0,67,72,20
0,79,96,9
0,67,72,20
0,71,61,1
0,66,65,0
0,62,64,0
0,59,53,0
0,38,80,0
0,38,55,0
0,78,96,39
0,66,72,20
0,50,80,47
0,76,96,1
0,64,72,11
0,78,96,27
0,71,88,18
0,66,102,0
0,62,106,0
0,59,127,0
0,66,72,2
0,79,96,35
0,67,72,20
0,50,80,1
0,76,96,43
0,64,72,20
0,64,74,5
0,60,71,0
0,55,67,0
0,36,70,0
0,36,55,0
0,48,70,43
0,69,70,23
0,70,80,9
0,54,80,9
0,69,63,75
0,70,73,9
0,54,73,9
0,48,90,23
0,69,56,0
0,70,66,5
0,54,66,9
0,36,105,45
0,69,49,0
0,70,59,3
0,54,59,9
0,64,96,3
0,60,85,0
0,55,106,0
0,48,82,0
0,36,120,0
0,69,42,0
0,70,52,9
0,54,52,3
0,69,35,23
0,70,45,3
0,54,45,5
0,36,100,3
0,69,28,0
0,70,38,1
0,54,38,9
0,69,20,17
0,70,30,7
0,54,30,7
0,72,116,3
0,67,100,0
0,64,100,0
0,69,13,0
0,70,23,9
0,54,23,9
0,69,6,27
0,70,16,1
0,54,16,9
0,71,115,17
0,67,100,0
0,64,100,0
0,69,1,0
0,70,9,9
0,69,96,5
0,54,9,4
0,57,72,15
0,69,1,3
0,70,2,3
0,54,2,1
0,71,96,13
0,59,72,20
0,69,69,5
0,64,68,0
0,60,62,0
0,45,90,0
0,45,55,0
0,72,96,37
0,60,72,20
0,57,63,43
0,72,96,2
0,60,72,20
0,72,96,3
0,60,72,11
0,69,88,32
0,64,81,0
0,60,86,0
0,74,96,35
0,62,72,20
0,71,85,5
0,45,55,0
0,71,96,30
0,59,72,20
0,67,89,21
0,64,74,0
0,59,71,0
0,40,90,0
0,40,55,0
0,52,60,127
0,59,96,3
0,67,96,5
0,55,72,20
0,64,102,3
0,69,96,13
0,57,72,20
0,71,96,21
0,59,72,7
0,69,87,5
0,64,83,0
0,60,64,0
0,45,90,0
0,45,55,0
0,72,96,35
0,60,72,20
0,72,96,43
0,52,75,16
0,60,72,1
0,72,96,43
0,60,72,5
0,69,106,55
0,64,110,0
0,60,98,0
0,57,107,0
0,74,96,49
0,62,72,20
0,71,97,29
0,71,96,67
0,59,72,20
0,67,87,5
0,64,55,0
0,59,77,0
0,52,49,0
0,40,85,0
0,40,55,0
0,69,96,15
0,57,72,20
0,69,96,47
0,57,72,20
0,71,75,32
0,67,96,43
0,55,72,20
0,40,70,49
0,69,96,45
0,71,96,16
0,57,72,4
0,59,72,5
0,69,80,1
0,67,84,0
0,62,75,0
0,38,90,0
0,38,55,0
0,69,96,29
0,57,72,15
0,50,60,84
0,50,50,77
0,38,95,77
0,69,106,37
0,66,120,0
0,62,94,0
0,38,127,0
0,50,67,83
0,50,85,3
0,62,90,3
0,50,80,177
0,72,127,5
0,67,127,0
0,64,127,0
0,38,90,0
0,38,55,0
0,62,75,17
0,50,85,0
0,60,80,3
0,62,85,31
0,50,87,0
0,38,95,51
0,72,127,23
0,67,127,0
0,64,127,0
0,38,127,0
0,62,127,15
0,50,110,0
0,38,115,79
0,72,127,39
0,67,127,0
0,64,127,0
0,38,127,0
0,62,127,55
0,50,127,0
0,71,89,5
0,67,85,0
0,62,66,0
0,43,105,0
0,31,55,0
0,79,96,10
0,67,72,20
0,79,96,19
0,67,72,20
0,50,90,30
0,79,96,55
0,67,72,20
0,71,93,41
0,67,102,0
0,62,101,0
0,59,90,0
0,55,90,5
0,31,55,0
0,79,96,5
0,67,72,20
0,64,85,5
0,60,74,0
0,55,64,0
0,48,89,0
0,36,55,0
0,78,96,20
0,66,72,20
0,79,96,19
0,67,72,20
0,64,104,39
0,60,108,0
0,55,111,0
0,48,106,5
0,36,55,0
0,76,96,68
0,64,72,1
0,78,96,7
0,66,72,20
0,71,90,1
0,67,90,0
0,64,90,0
0,59,90,0
0,52,90,0
0,40,90,0
0,28,55,0
0,79,96,16
0,67,72,20
0,79,96,23
0,67,72,20
0,79,96,49
0,67,72,20
0,71,115,37
0,67,115,0
0,64,115,0
0,59,115,0
0,78,96,7
0,66,72,20
0,52,90,5
0,40,90,0
0,28,55,0
0,78,96,7
0,66,72,9
0,69,90,5
0,66,90,0
0,62,90,0
0,57,90,0
0,50,90,0
0,38,90,0
0,26,55,0
0,50,90,71
0,69,115,49
0,66,115,0
0,62,115,0
0,57,90,0
0,62,80,3
0,50,101,0
0,71,90,5
0,67,90,0
0,62,90,0
0,59,90,0
0,43,105,0
0,31,55,0
0,79,96,8
0,67,72,20
0,79,96,59
0,67,72,20
0,50,90,14
0,79,96,61
0,67,72,20
0,71,115,35
0,67,111,0
0,62,106,0
0,59,112,0
0,59,90,0
0,69,80,5
0,55,90,0
0,31,55,0
0,79,96,22
0,67,72,20
0,78,96,15
0,66,72,15
0,67,90,5
0,64,90,0
0,60,90,0
0,55,97,0
0,48,89,0
0,36,89,0
0,36,55,0
0,79,96,35
0,67,72,20
0,67,110,39
0,64,112,0
0,60,110,0
0,55,112,0
0,48,106,5
0,36,106,0
0,36,55,0
0,76,96,8
0,64,72,20
0,78,96,1
0,66,72,11
0,71,90,3
0,67,90,0
0,64,90,0
0,59,90,0
0,52,115,0
0,40,115,0
0,28,55,0
0,79,96,14
0,67,72,20
0,79,96,33
0,67,72,20
0,64,80,3
0,79,96,47
0,67,72,20
0,71,111,39
0,67,113,0
0,64,112,0
0,59,115,0
0,78,96,1
0,66,72,15
0,52,80,5
0,40,80,0
0,28,55,0
0,78,96,7
0,66,72,11
0,69,90,5
0,66,90,0
0,62,90,0
0,57,90,0
0,50,115,0
0,38,115,0
0,26,55,0
0,76,96,17
0,64,72,17
0,74,96,21
0,62,72,20
0,62,80,3
0,69,127,37
0,66,125,0
0,62,106,0
0,57,100,0
0,48,127,5
0,36,127,0
0,36,55,0
0,74,96,3
0,62,72,20
0,71,90,5
0,67,90,0
0,62,90,0
0,59,90,0
0,47,127,0
0,35,127,0
0,35,55,0
0,79,96,16
0,67,72,20
0,79,96,45
0,67,72,20
0,59,75,3
0,79,96,51
0,67,72,20
0,71,115,35
0,67,111,0
0,62,106,0
0,59,112,0
0,79,96,31
0,59,70,10
0,67,72,10
0,78,96,35
0,66,72,1
0,67,90,5
0,64,90,0
0,60,90,0
0,55,97,0
0,48,115,0
0,36,115,0
0,36,55,0
0,79,96,53
0,67,72,11
0,60,65,3
0,67,110,39
0,64,112,0
0,60,110,0
0,55,112,0
0,60,60,5
0,48,65,0
0,36,92,0
0,36,55,0
0,79,96,6
0,67,72,20
0,78,96,1
0,66,72,9
0,71,90,5
0,67,90,0
0,62,90,0
0,59,90,0
0,50,127,0
0,38,127,0
0,38,55,0
0,79,96,20
0,67,72,20
0,78,96,27
0,66,72,20
0,59,75,3
0,79,96,45
0,67,72,20
0,71,115,35
0,67,111,0
0,62,106,0
0,59,112,0
0,78,96,41
0,66,72,20
0,59,70,5
0,38,55,0
0,81,96,14
0,69,72,20
0,79,96,3
0,71,107,5
0,67,105,0
0,64,87,0
0,61,115,0
0,49,127,0
0,37,127,0
0,37,55,0
0,67,72,14
0,76,96,11
0,71,66,5
0,67,89,0
0,62,85,0
0,50,70,0
0,38,95,0
0,38,55,0
0,64,72,6
0,74,96,15
0,62,72,20
0,74,96,47
0,62,72,20
0,55,70,79
0,67,96,19
0,55,72,20
0,60,85,0
0,64,95,5
0,38,85,0
0,26,55,0
0,67,65,35
0,69,96,2
0,57,72,11
0,67,96,1
0,55,72,19
0,69,96,45
0,57,72,20
0,67,96,5
0,55,72,9
0,43,85,5
0,31,55,0
0,79,127,0
0,43,80,0
0,31,60,0
0,67,96,18
0,55,72,17
0,50,70,25
0,55,75,21
0,59,80,15
0,59,40,9
0,55,75,75
0,71,49,11
0,67,35,0
0,62,28,0
0,69,82,27
0,66,76,0
0,62,38,0
0,43,56,0
0,55,90,55
0,43,105,51
0,67,103,3
0,64,106,0
0,60,87,0
0,43,70,0
0,31,75,0
0,55,100,0
0,55,1,9
0,43,20,7
0,55,45,1
0,43,20,13
0,55,60,1
0,62,79,3
0,55,76,0
0,43,20,0
0,60,85,7
0,55,70,3
0,59,103,1
0,55,77,0
0,43,80,3
0,31,55,0
0,50,70,17
0,55,70,3
0,57,92,15
0,59,106,3
0,62,106,27
0,67,127,3
0,62,90,0
0,69,97,3
0,62,97,27
0,55,87,37
0,67,102,1
0,62,95,0
0,59,53,0
0,43,85,0
0,66,121,9
0,62,109,0
0,57,94,0
0,55,80,0
0,43,86,3
0,40,89,11
0,64,89,5
0,60,62,0
0,55,71,0
0,40,90,0
0,40,85,0
0,28,65,0
0,52,68,37
0,60,78,47
0,52,66,49
0,69,76,5
0,67,67,0
0,62,59,0
0,38,70,0
0,38,50,0
0,38,85,0
0,26,65,0
0,67,96,25
0,55,72,20
0,69,46,5
0,67,23,0
0,62,22,0
0,74,100,0
0,67,96,10
0,55,72,20
0,69,96,15
0,57,72,15
0,62,35,5
0,59,72,0
0,55,56,0
0,35,55,0
0,71,100,0
0,35,110,0
0,71,96,9
0,59,72,20
0,71,96,39
0,50,52,18
0,59,72,2
0,62,78,45
0,59,127,0
0,55,112,0
0,71,96,49
0,59,72,20
0,50,88,30
0,71,96,51
0,59,72,20
0,64,37,5
0,60,54,0
0,55,60,0
0,36,55,0
0,72,90,0
0,36,110,0
0,71,96,19
0,59,72,20
0,69,96,15
0,57,72,15
0,52,52,12
0,69,96,49
0,57,72,1
0,64,79,49
0,60,127,0
0,55,127,0
0,67,96,29
0,55,72,20
0,52,82,11
0,71,96,24
0,59,72,20
0,43,90,5
0,38,55,0
0,38,127,0
0,62,85,0
