track,note,velocity,time
0,55,37,326
0,55,0,30
0,46,37,15
0,46,0,30
0,55,38,22
0,55,0,30
0,64,111,7
0,46,40,11
0,46,0,30
0,55,43,25
0,64,0,24
0,55,0,6
0,65,110,24
0,46,47,11
0,46,0,30
0,55,47,16
0,55,0,30
0,46,53,33
0,46,0,30
0,55,50,21
0,65,0,10
0,55,0,20
0,46,58,25
0,64,111,14
0,46,0,16
0,55,57,26
0,55,0,30
0,46,63,21
0,46,0,30
0,55,62,9
0,64,0,25
0,55,0,5
0,46,68,33
0,46,0,30
0,29,111,0
0,65,111,0
0,53,97,0
0,57,92,0
0,60,97,0
0,65,91,0
0,55,66,7
0,55,0,30
0,46,72,13
0,46,0,30
0,65,0,100
0,65,110,60
0,65,0,195
0,65,111,45
0,65,0,191
0,65,110,49
0,65,0,100
0,67,110,20
0,65,0,70
0,60,0,18
0,53,0,2
0,29,0,7
0,57,0,3
0,62,88,15
0,59,95,3
0,31,110,2
0,55,96,1
0,67,82,10
0,67,0,49
0,67,111,60
0,67,0,170
0,67,111,70
0,67,0,183
0,67,110,57
0,67,0,90
0,69,110,30
0,62,0,57
0,55,0,4
0,67,0,35
0,59,0,2
0,57,97,14
0,60,89,0
0,31,0,3
0,33,111,5
0,64,86,0
0,69,84,0
0,69,0,75
0,69,111,45
0,69,0,171
0,69,111,69
0,69,0,177
0,69,110,63
0,69,0,180
0,64,110,60
0,57,0,55
0,60,0,0
0,64,0,15
0,33,0,50
0,69,0,0
0,28,111,0
0,64,81,0
0,67,89,0
0,52,98,1
0,59,96,1
0,64,0,68
0,64,111,50
0,64,0,330
0,64,110,270
0,64,0,80
0,64,111,40
0,64,0,31
0,59,0,31
0,52,0,29
0,67,0,6
0,64,0,8
0,29,110,15
0,65,111,0
0,53,97,0
0,57,92,0
0,60,97,0
0,65,93,0
0,28,0,6
0,65,0,184
0,65,110,50
0,65,0,82
0,65,111,38
0,65,0,165
0,65,110,75
0,65,0,90
0,67,110,30
0,67,0,177
0,60,0,31
0,57,0,12
0,62,88,15
0,59,95,3
0,29,0,2
0,31,105,0
0,67,111,0
0,67,84,0
0,55,96,1
0,65,0,7
0,53,0,10
0,67,0,150
0,67,111,90
0,67,0,80
0,67,110,40
0,67,0,82
0,67,110,38
0,67,0,180
0,69,111,60
0,62,0,57
0,55,0,4
0,59,0,37
0,31,0,8
0,60,99,6
0,52,85,5
0,33,108,3
0,64,86,0
0,57,88,1
0,67,0,7
0,69,0,82
0,67,111,30
0,67,0,216
0,69,110,24
0,57,0,78
0,55,65,34
0,59,83,5
0,60,0,21
0,69,0,72
0,67,110,30
0,59,0,106
0,60,78,7
0,55,0,5
0,57,68,2
0,67,0,90
0,69,111,30
0,64,0,70
0,57,0,20
0,52,0,11
0,33,0,19
0,57,93,0
0,52,70,240
0,69,0,30
0,69,110,50
0,35,79,0
0,35,0,30
0,60,0,33
0,57,0,27
0,69,0,10
0,40,126,20
0,72,111,0
0,40,113,0
0,59,83,0
0,40,0,30
0,48,113,90
0,48,0,30
0,52,0,3
0,72,0,23
0,69,111,64
0,43,77,0
0,52,69,0
0,43,0,4
0,41,91,12
0,41,0,10
0,69,0,10
0,52,0,16
0,59,0,6
0,40,0,7
0,29,117,0
0,72,110,0
0,53,71,0
0,35,116,0
0,49,89,0
0,41,106,0
0,53,77,0
0,57,56,0
0,60,64,1
0,82,65,4
0,49,0,25
0,35,0,0
0,82,0,5
0,41,0,35
0,60,0,20
0,53,0,7
0,29,0,23
0,70,69,10
0,70,0,30
0,72,0,50
0,29,123,30
0,69,111,0
0,35,115,0
0,82,58,2
0,41,102,0
0,60,79,6
0,53,73,3
0,46,93,1
0,35,0,18
0,82,0,2
0,46,0,10
0,53,0,78
0,70,68,3
0,60,0,3
0,70,0,27
0,69,0,33
0,53,0,41
0,57,0,1
0,82,61,9
0,72,110,3
0,40,116,0
0,29,0,1
0,46,103,4
0,57,117,0
0,60,107,0
0,53,106,1
0,60,92,1
0,65,95,1
0,53,88,2
0,82,0,17
0,40,0,3
0,46,0,5
0,70,69,90
0,70,0,30
0,72,0,25
0,69,110,60
0,82,59,1
0,46,96,4
0,82,0,26
0,46,0,4
0,53,0,26
0,60,0,1
0,65,0,3
0,69,0,25
0,29,92,30
0,74,111,0
0,40,105,0
0,53,82,1
0,60,75,1
0,65,75,1
0,70,73,0
0,40,0,27
0,70,0,3
0,53,0,15
0,60,0,18
0,57,0,0
0,41,0,7
0,29,0,9
0,60,0,5
0,65,0,8
0,53,0,6
0,43,106,17
0,35,117,2
0,46,102,2
0,31,122,1
0,82,62,2
0,62,68,1
0,55,54,2
0,35,0,22
0,46,0,2
0,82,0,3
0,31,0,47
0,62,0,3
0,55,0,10
0,74,0,6
0,43,0,0
0,72,111,19
0,59,105,1
0,55,93,1
0,62,98,0
0,62,67,3
0,67,69,1
0,70,68,2
0,55,54,2
0,70,0,28
0,62,0,17
0,67,0,21
0,59,0,1
0,55,0,1
0,55,0,0
0,62,0,9
0,55,64,20
0,62,71,4
0,31,119,6
0,35,118,3
0,46,103,0
0,43,102,1
0,82,63,5
0,46,0,24
0,35,0,0
0,82,0,6
0,72,0,36
0,70,73,56
0,70,0,30
0,55,0,49
0,62,0,14
0,82,60,17
0,62,103,0
0,40,117,2
0,46,109,0
0,55,102,0
0,67,98,1
0,59,111,0
0,55,95,1
0,62,101,1
0,82,0,25
0,40,0,2
0,46,0,0
0,72,110,90
0,70,68,6
0,70,0,30
0,72,0,54
0,46,104,28
0,72,110,2
0,82,58,5
0,31,0,2
0,46,0,21
0,82,0,7
0,55,0,55
0,59,0,1
0,62,0,7
0,67,0,13
0,43,0,9
0,35,79,0
0,31,101,5
0,70,60,0
0,62,0,1
0,59,91,0
0,62,86,0
0,55,87,1
0,55,0,1
0,62,82,14
0,55,65,1
0,67,74,2
0,35,0,5
0,70,0,5
0,72,0,25
0,67,0,3
0,55,0,2
0,31,0,1
0,55,0,5
0,62,0,1
0,59,0,10
0,62,0,3
0,33,118,32
0,64,70,1
0,74,111,2
0,57,73,0
0,35,116,0
0,46,102,0
0,45,106,0
0,82,69,5
0,46,0,25
0,35,0,0
0,82,0,5
0,74,0,55
0,45,0,12
0,72,111,18
0,33,0,2
0,70,71,8
0,57,0,5
0,64,0,1
0,70,0,24
0,33,116,75
0,64,49,5
0,35,114,0
0,82,59,2
0,45,102,0
0,46,93,10
0,57,54,3
0,64,0,11
0,35,0,4
0,72,0,0
0,82,0,2
0,46,0,10
0,57,0,8
0,74,110,70
0,70,71,3
0,70,0,30
0,82,60,84
0,40,116,3
0,57,111,3
0,64,98,2
0,46,102,0
0,52,107,0
0,60,106,0
0,69,95,1
0,57,91,2
0,82,0,19
0,40,0,3
0,46,0,5
0,74,0,25
0,76,110,60
0,70,70,5
0,70,0,30
0,33,0,63
0,82,58,23
0,46,97,4
0,82,0,26
0,46,0,4
0,57,0,7
0,69,0,6
0,64,0,0
0,76,0,12
0,57,0,23
0,60,0,2
0,52,0,20
0,33,109,15
0,71,111,0
0,40,105,0
0,45,0,1
0,57,88,0
0,70,66,2
0,52,83,0
0,60,91,0
0,64,74,2
0,69,76,1
0,57,73,1
0,40,0,23
0,70,0,3
0,33,0,27
0,60,0,12
0,57,0,4
0,52,0,2
0,64,0,8
0,57,0,1
0,69,0,1
0,28,118,32
0,35,117,0
0,40,106,0
0,46,103,2
0,55,68,1
0,59,59,2
0,82,63,0
0,35,0,25
0,46,0,2
0,82,0,3
0,71,0,25
0,59,0,25
0,28,0,5
0,40,0,12
0,55,88,10
0,52,83,1
0,59,92,0
0,64,79,4
0,40,85,3
0,71,110,0
0,67,68,1
0,59,65,1
0,55,0,4
0,70,65,2
0,40,0,22
0,70,0,8
0,67,0,9
0,52,0,9
0,59,0,1
0,64,0,0
0,55,0,8
0,59,0,5
0,59,72,48
0,28,123,2
0,35,119,0
0,46,102,0
0,40,103,2
0,82,63,4
0,46,0,24
0,35,0,0
0,82,0,6
0,71,0,54
0,71,111,30
0,70,71,8
0,70,0,30
0,71,0,52
0,59,0,8
0,28,0,12
0,82,60,8
0,71,111,2
0,40,116,0
0,46,109,0
0,55,105,2
0,59,102,0
0,40,122,1
0,52,103,0
0,64,86,2
0,59,85,2
0,67,85,1
0,82,0,20
0,46,0,2
0,40,0,0
0,70,72,96
0,70,0,30
0,71,0,25
0,46,104,57
0,71,110,2
0,82,58,5
0,46,0,23
0,82,0,7
0,52,0,18
0,59,0,7
0,59,0,4
0,64,0,0
0,67,0,4
0,55,0,2
0,35,78,3
0,40,0,1
0,55,88,2
0,70,68,2
0,52,84,0
0,59,89,1
0,64,62,4
0,67,58,5
0,71,0,9
0,35,0,4
0,70,0,5
0,64,0,3
0,67,0,4
0,59,0,2
0,55,0,1
0,52,0,3
0,40,0,10
0,29,121,8
0,72,111,0
0,35,116,0
0,46,100,0
0,41,107,0
0,60,81,3
0,82,67,2
0,65,55,1
0,57,66,1
0,46,0,23
0,35,0,0
0,82,0,5
0,65,0,47
0,57,0,6
0,29,0,4
0,60,0,4
0,41,0,6
0,70,69,24
0,70,0,30
0,72,0,65
0,29,122,19
0,71,110,0
0,35,115,0
0,82,58,2
0,41,102,0
0,60,82,8
0,57,75,1
0,46,93,1
0,65,56,13
0,35,0,5
0,82,0,2
0,46,0,10
0,65,0,46
0,71,0,2
0,72,110,30
0,70,68,0
0,70,0,30
0,57,0,41
0,60,0,41
0,82,61,5
0,41,122,3
0,40,116,0
0,29,0,1
0,57,104,1
0,60,103,0
0,53,93,1
0,46,103,2
0,60,111,12
0,53,83,4
0,65,94,0
0,82,0,6
0,40,0,3
0,46,0,5
0,72,0,55
0,71,111,30
0,70,69,1
0,70,0,30
0,71,0,59
0,72,111,30
0,82,59,1
0,46,96,4
0,82,0,26
0,46,0,4
0,41,0,27
0,53,0,6
0,65,0,0
0,60,0,8
0,60,0,5
0,57,0,1
0,53,0,1
0,41,115,37
0,60,69,0
0,40,105,0
0,70,73,0
0,41,0,1
0,57,88,0
0,53,82,1
0,60,85,1
0,65,52,5
0,57,56,4
0,40,0,18
0,70,0,0
0,60,0,22
0,53,0,0
0,60,0,4
0,57,0,0
0,57,0,0
0,41,0,6
0,65,0,36
0,29,121,22
0,35,117,0
0,41,106,0
0,46,102,2
0,53,49,1
0,82,62,2
0,35,0,25
0,46,0,2
0,82,0,3
0,72,0,18
0,53,0,10
0,29,0,29
0,41,0,10
0,36,78,18
0,60,89,1
0,65,66,0
0,70,68,4
0,57,67,1
0,57,68,1
0,53,43,4
0,53,0,19
0,36,0,2
0,70,0,3
0,57,0,3
0,60,0,23
0,57,0,4
0,65,0,18
0,53,71,30
0,29,118,7
0,35,118,0
0,46,103,0
0,41,98,2
0,57,57,4
0,82,63,0
0,46,0,24
0,35,0,0
0,82,0,6
0,70,73,89
0,70,0,30
0,53,0,68
0,65,100,7
0,57,0,3
0,82,60,5
0,40,117,2
0,46,109,0
0,57,87,3
0,60,98,0
0,53,90,2
0,53,86,1
0,60,77,0
0,82,0,22
0,40,0,2
0,46,0,0
0,29,0,2
0,29,111,88
0,71,110,0
0,70,68,2
0,70,0,30
0,29,0,0
0,60,0,81
0,53,0,0
0,60,74,2
0,46,104,3
0,29,121,2
0,57,57,0
0,82,58,5
0,46,0,23
0,82,0,7
0,65,0,23
0,71,0,28
0,60,0,4
0,57,0,8
0,60,81,13
0,69,110,9
0,53,74,0
0,65,81,0
0,35,78,0
0,41,0,1
0,70,60,0
0,35,0,29
0,70,0,1
0,53,0,14
0,60,0,6
0,53,0,9
0,65,0,0
0,57,0,7
0,60,0,4
0,69,0,19
0,28,118,30
0,71,111,0
0,52,58,0
0,59,58,0
0,35,117,0
0,46,102,0
0,40,107,0
0,29,0,2
0,82,71,3
0,64,53,3
0,46,0,22
0,35,0,0
0,82,0,5
0,52,0,40
0,64,0,8
0,71,0,7
0,40,0,12
0,59,0,18
0,71,111,0
0,70,71,6
0,28,0,5
0,70,0,11
0,71,0,55
0,28,122,25
0,71,110,0
0,35,114,0
0,82,59,2
0,40,103,0
0,64,85,9
0,46,93,1
0,56,56,4
0,62,56,0
0,35,0,14
0,82,0,2
0,46,0,10
0,56,0,25
0,62,0,0
0,64,0,16
0,71,0,12
0,71,110,25
0,70,71,0
0,70,0,30
0,82,60,87
0,40,116,3
0,56,90,1
0,52,100,1
0,59,103,0
0,46,102,3
0,56,91,2
0,62,91,0
0,64,102,0
0,82,0,20
0,40,0,3
0,46,0,5
0,71,0,51
0,71,111,34
0,70,70,1
0,70,0,30
0,82,58,90
0,46,97,4
0,82,0,26
0,46,0,4
0,64,0,6
0,56,0,24
0,62,0,0
0,52,0,11
0,71,0,2
0,56,0,2
0,59,0,3
0,28,0,3
0,26,109,34
0,71,110,0
0,40,104,0
0,70,66,0
0,40,0,1
0,56,61,2
0,56,68,2
0,62,69,0
0,64,76,0
0,59,58,1
0,52,80,2
0,40,0,22
0,70,0,0
0,56,0,35
0,62,0,11
0,56,0,0
0,26,0,4
0,52,0,7
0,64,0,6
0,59,0,9
0,28,90,18
0,35,117,0
0,40,77,0
0,46,103,2
0,82,63,3
0,35,0,25
0,46,0,2
0,82,0,3
0,28,0,41
0,40,0,26
0,56,73,15
0,62,73,0
0,64,84,1
0,26,85,2
0,56,78,3
0,70,65,2
0,52,83,0
0,59,71,1
0,70,0,29
0,26,0,10
0,56,0,11
0,52,0,2
0,62,0,3
0,59,0,0
0,56,0,0
0,64,0,32
0,71,0,27
0,28,119,0
0,40,113,0
0,40,92,1
0,82,63,5
0,40,0,24
0,82,0,6
0,71,111,84
0,70,71,5
0,70,0,30
0,71,0,56
0,56,95,27
0,62,94,0
0,82,48,0
0,28,0,2
0,35,122,0
0,72,111,0
0,40,121,0
0,56,99,3
0,52,104,2
0,59,104,0
0,64,98,7
0,40,0,6
0,82,0,10
0,40,0,2
0,47,105,90
0,70,62,2
0,47,0,28
0,70,0,2
0,72,0,35
0,71,110,53
0,43,96,0
0,82,48,5
0,43,0,4
0,82,0,5
0,64,0,3
0,52,0,5
0,56,0,8
0,59,0,2
0,62,0,7
0,56,0,0
0,56,57,12
0,64,57,0
0,35,73,0
0,70,56,1
0,56,73,0
0,59,83,2
0,52,72,2
0,71,0,5
0,35,0,15
0,70,0,1
0,64,0,20
0,56,0,0
0,52,0,1
0,59,0,5
0,56,0,1
0,35,0,32
0,29,117,17
0,72,111,0
0,53,70,0
0,35,116,0
0,49,88,0
0,41,106,0
0,53,77,0
0,57,57,0
0,60,64,1
0,82,65,4
0,49,0,25
0,35,0,0
0,82,0,5
0,41,0,35
0,60,0,20
0,53,0,7
0,29,0,23
0,70,69,10
0,70,0,30
0,72,0,20
0,29,122,60
0,69,110,0
0,35,115,0
0,82,58,2
0,41,102,0
0,60,79,6
0,53,73,3
0,46,92,1
0,35,0,18
0,82,0,2
0,46,0,10
0,53,0,78
0,70,68,3
0,60,0,3
0,70,0,27
0,69,0,33
0,53,0,41
0,57,0,1
0,82,61,9
0,41,116,3
0,72,110,0
0,40,116,0
0,29,0,1
0,46,103,4
0,57,116,0
0,60,107,0
0,53,106,1
0,60,92,1
0,65,94,1
0,53,89,2
0,82,0,17
0,40,0,3
0,46,0,5
0,70,69,90
0,70,0,30
0,72,0,25
0,41,0,30
0,69,111,30
0,82,59,1
0,46,96,4
0,82,0,26
0,46,0,4
0,53,0,26
0,60,0,1
0,65,0,3
0,69,0,25
0,41,107,30
0,74,111,0
0,40,104,0
0,53,82,1
0,60,75,1
0,65,75,1
0,70,73,0
0,40,0,27
0,41,0,0
0,70,0,3
0,53,0,15
0,60,0,18
0,57,0,0
0,41,0,7
0,60,0,14
0,65,0,8
0,53,0,6
0,43,107,17
0,35,116,2
0,46,102,2
0,31,125,1
0,82,62,2
0,62,68,1
0,55,55,2
0,35,0,22
0,46,0,2
0,82,0,3
0,62,0,50
0,74,0,5
0,31,0,3
0,55,0,2
0,43,0,6
