track,note,velocity,time
3,31,125,3060
3,31,0,323
3,31,126,157
3,31,0,396
3,31,115,84
3,31,0,182
3,33,115,58
3,33,0,197
3,35,120,43
3,35,0,213
3,36,121,27
3,36,0,371
3,36,108,109
3,36,0,146
3,36,112,94
3,36,0,370
3,36,115,110
3,36,0,201
3,35,113,39
3,35,0,202
3,36,108,38
3,36,0,211
3,38,114,29
3,38,0,236
3,40,127,4
3,40,0,321
3,40,127,159
3,40,0,297
3,40,126,183
3,40,0,172
3,35,120,68
3,35,0,236
3,40,115,4
3,40,0,182
3,38,114,58
3,38,0,120
3,38,127,120
3,38,0,106
3,38,125,134
3,38,0,106
3,38,126,134
3,38,0,321
3,38,113,159
3,38,0,98
3,38,120,142
3,38,0,110
3,38,126,130
3,38,0,448
3,36,125,32
3,36,0,323
3,36,113,157
3,36,0,367
3,36,102,113
3,36,0,211
3,28,114,29
3,28,0,216
3,30,113,24
3,30,0,182
3,31,121,58
3,31,0,341
3,31,106,139
3,31,0,113
3,31,114,127
3,31,0,356
3,31,107,124
3,31,0,232
3,33,114,8
3,33,0,236
3,35,115,4
3,35,0,228
3,36,121,12
3,36,0,236
3,38,124,4
3,38,0,127
3,38,115,113
3,38,0,125
3,38,96,115
3,38,0,117
3,38,120,123
3,38,0,113
3,38,115,127
3,38,0,112
3,38,121,128
3,38,0,117
3,38,114,123
3,38,0,117
3,38,114,123
3,38,0,122
3,38,121,118
3,38,0,125
3,38,103,115
3,38,0,117
3,38,120,123
3,38,0,156
3,36,124,84
3,36,0,127
3,36,113,113
3,36,0,221
3,35,114,19
3,35,0,226
3,33,113,14
3,33,0,211
3,35,125,29
3,35,0,227
3,31,126,13
3,31,0,323
3,31,109,157
3,31,0,350
3,31,102,130
3,31,0,190
3,33,108,50
3,33,0,163
3,35,115,77
3,35,0,211
3,36,125,29
3,36,0,338
3,36,120,142
3,36,0,112
3,36,112,128
3,36,0,370
3,36,113,110
3,36,0,236
3,35,115,4
3,35,0,203
3,36,114,37
3,36,0,230
3,38,120,10
3,38,0,227
3,40,125,13
3,40,0,333
3,40,126,147
3,40,0,321
3,40,125,159
3,40,0,172
3,35,115,68
3,35,0,230
3,40,114,10
3,40,0,236
3,38,125,4
3,38,0,316
3,38,120,164
3,38,0,110
3,38,124,130
3,38,0,300
3,38,115,180
3,38,0,91
3,38,121,149
3,38,0,128
3,38,112,112
3,38,0,138
3,38,120,102
3,38,0,216
3,36,127,24
3,36,0,343
3,36,115,137
3,36,0,341
3,36,102,139
3,36,0,207
3,28,114,33
3,28,0,226
3,30,115,14
3,30,0,202
3,31,114,38
3,31,0,317
3,31,121,163
3,31,0,113
3,31,115,127
3,31,0,355
3,31,102,125
3,31,0,220
3,33,115,20
3,33,0,230
3,35,114,10
3,35,0,213
3,36,124,27
3,36,0,236
3,38,127,4
3,38,0,317
3,38,125,163
3,38,0,302
3,38,126,178
3,38,0,110
3,38,126,130
3,38,0,313
3,38,127,167
3,38,0,318
3,38,121,162
3,38,0,117
3,38,120,123
3,38,0,320
3,38,120,160
3,38,0,115
3,38,121,125
3,38,0,120
3,38,114,120
3,38,0,110
3,38,113,130
3,38,0,186
3,31,127,54
3,38,126,5248
3,43,127,35
3,43,114,62
3,37,120,15
3,36,127,55
3,36,0,1888
3,35,127,32
3,35,0,1916
3,33,126,4
3,33,0,300
3,33,124,180
3,33,0,340
3,33,125,140
3,33,0,293
3,33,125,187
3,33,0,323
3,38,126,157
3,38,0,336
3,38,126,144
3,38,0,306
3,38,127,174
3,38,0,308
3,38,126,172
3,38,0,335
3,33,127,145
3,33,0,360
3,33,125,120
3,33,0,351
3,33,124,129
3,33,0,321
3,33,115,159
3,33,0,378
3,38,124,102
3,38,0,180
3,38,114,60
3,38,0,180
3,38,125,60
3,38,0,180
3,38,115,60
3,38,0,180
3,38,108,60
3,38,0,180
3,38,114,60
3,38,0,180
3,38,113,60
3,38,0,180
3,38,115,60
3,38,0,180
3,38,108,60
3,38,0,180
3,38,112,60
3,38,0,180
3,38,125,60
3,38,0,180
3,38,108,60
3,38,0,180
3,38,103,60
3,38,0,180
3,38,121,60
3,38,0,180
3,38,112,60
3,38,0,180
3,38,103,60
3,38,0,180
3,31,124,60
3,31,0,367
3,31,112,113
3,31,0,372
3,31,109,108
3,31,0,177
3,33,113,63
3,33,0,211
3,35,114,29
3,35,0,218
3,36,124,22
3,36,0,367
3,36,97,113
3,36,0,127
3,36,115,113
3,36,0,351
3,36,108,129
3,36,0,226
3,35,114,14
3,35,0,221
3,36,113,19
3,36,0,230
3,38,114,10
3,38,0,235
3,40,125,5
3,40,0,351
3,40,125,129
3,40,0,351
3,40,114,129
3,40,0,153
3,35,115,87
3,35,0,236
3,40,120,4
3,40,0,228
3,38,120,12
3,38,0,331
3,38,121,149
3,38,0,85
3,38,125,155
3,38,0,317
3,38,124,163
3,38,0,342
3,38,120,138
3,38,0,130
3,38,115,110
3,38,0,236
3,36,125,4
3,36,0,367
3,36,112,113
3,36,0,318
3,36,94,162
3,36,0,203
3,28,121,37
3,28,0,236
3,30,106,4
3,30,0,211
3,31,121,29
3,31,0,318
3,31,107,162
3,31,0,128
3,31,108,112
3,31,0,370
3,31,109,110
3,31,0,213
3,33,108,27
3,33,0,195
3,35,114,45
3,35,0,236
3,36,125,4
3,36,0,236
3,38,125,4
3,38,0,326
3,38,120,154
3,38,0,348
3,38,102,132
3,38,0,120
3,38,121,120
3,38,0,117
3,38,115,123
3,38,0,138
3,38,112,102
3,38,0,360
3,38,108,120
3,38,0,195
3,26,121,45
3,26,0,133
3,26,102,107
3,26,0,220
3,28,121,20
3,28,0,127
3,28,113,113
3,28,0,216
3,30,112,24
3,30,0,125
3,30,121,115
3,30,0,236
3,31,124,4
3,31,0,367
3,31,112,113
3,31,0,372
3,31,109,108
3,31,0,177
3,33,113,63
3,33,0,211
3,35,114,29
3,35,0,218
3,36,124,22
3,36,0,367
3,36,97,113
3,36,0,127
3,36,115,113
3,36,0,351
3,36,108,129
3,36,0,226
3,35,114,14
3,35,0,221
3,36,113,19
3,36,0,230
3,38,114,10
3,38,0,235
3,40,125,5
3,40,0,351
3,40,125,129
3,40,0,351
3,40,114,129
3,40,0,153
3,35,115,87
3,35,0,236
3,40,120,4
3,40,0,228
3,38,120,12
3,38,0,331
3,38,121,149
3,38,0,85
3,38,125,155
3,38,0,317
3,38,124,163
3,38,0,342
3,38,120,138
3,38,0,130
3,38,115,110
3,38,0,236
3,36,125,4
3,36,0,367
3,36,112,113
3,36,0,318
3,36,94,162
3,36,0,203
3,28,121,37
3,28,0,236
3,30,106,4
3,30,0,211
3,31,121,29
3,31,0,318
3,31,107,162
3,31,0,128
3,31,108,112
3,31,0,370
3,31,109,110
3,31,0,213
3,33,108,27
3,33,0,195
3,35,114,45
3,35,0,236
3,36,125,4
3,36,0,236
3,38,127,4
3,38,0,336
3,38,126,144
3,38,0,326
3,38,124,154
3,38,0,115
3,38,115,125
3,38,0,115
3,38,115,125
3,38,0,120
3,38,114,120
3,38,0,122
3,38,114,118
3,38,0,127
3,38,125,113
3,38,0,112
3,38,112,128
3,38,0,117
3,38,113,123
3,38,0,108
3,38,125,132
3,38,0,117
3,38,112,123
3,38,0,115
3,38,113,125
3,38,0,115
3,38,112,125
3,38,0,166
3,36,126,74
3,36,0,1620
3,28,121,60
3,28,0,188
3,31,127,52
3,31,0,115
3,31,126,365
3,31,0,941
3,33,120,19
3,33,0,190
3,35,121,50
3,35,0,236
3,36,127,4
3,36,0,1620
3,28,120,60
3,28,0,188
3,31,126,52
3,31,0,115
3,31,127,365
3,31,0,941
3,33,120,19
3,33,0,190
3,35,121,50
3,35,0,236
3,36,127,4
3,36,0,1620
3,28,120,60
3,28,0,188
3,31,127,52
3,31,0,115
3,31,126,365
3,31,0,941
3,33,120,19
3,33,0,190
3,35,121,50
3,35,0,236
3,38,125,4
3,38,0,152
3,38,112,88
3,38,0,152
3,38,106,88
3,38,0,152
3,38,113,88
3,38,0,152
3,38,113,88
3,38,0,152
3,38,124,88
3,38,0,152
3,38,106,88
3,38,0,152
3,38,115,88
3,38,0,152
3,38,106,88
3,38,0,152
3,38,115,88
3,38,0,152
3,38,107,88
3,38,0,152
3,38,124,88
3,38,0,152
3,38,113,88
3,38,0,152
3,38,124,88
3,38,0,152
3,38,114,88
3,38,0,152
3,38,121,88
3,38,0,152
3,38,125,88
3,38,0,152
3,38,112,88
3,38,0,152
3,38,106,88
3,38,0,152
3,38,113,88
3,38,0,152
3,38,113,88
3,38,0,152
3,38,124,88
3,38,0,152
3,38,106,88
3,38,0,152
3,38,115,88
3,38,0,152
3,38,106,88
3,38,0,152
3,38,115,88
3,38,0,152
3,38,107,88
3,38,0,152
3,38,124,88
3,38,0,152
3,38,113,88
3,38,0,152
3,38,124,88
3,38,0,152
3,38,114,88
3,38,0,152
3,38,121,88
3,38,0,152
3,31,125,88
3,31,0,323
3,31,126,157
3,31,0,396
3,31,114,84
3,31,0,182
3,33,115,58
3,33,0,197
3,35,121,43
3,35,0,213
3,36,120,27
3,36,0,371
3,36,108,109
3,36,0,146
3,36,113,94
3,36,0,370
3,36,114,110
3,36,0,201
3,35,113,39
3,35,0,202
3,36,109,38
3,36,0,211
3,38,114,29
3,38,0,236
3,40,127,4
3,40,0,321
3,40,126,159
3,40,0,297
3,40,126,183
3,40,0,172
3,35,121,68
3,35,0,236
3,40,115,4
3,40,0,182
3,38,114,58
3,38,0,120
3,38,126,120
3,38,0,106
3,38,125,134
3,38,0,106
3,38,127,134
3,38,0,321
3,38,112,159
3,38,0,98
3,38,120,142
3,38,0,110
3,38,127,130
3,38,0,448
3,36,124,32
3,36,0,323
3,36,113,157
3,36,0,367
3,36,103,113
3,36,0,211
3,28,114,29
3,28,0,216
3,30,113,24
3,30,0,182
3,31,120,58
3,31,0,341
3,31,106,139
3,31,0,113
3,31,115,127
3,31,0,356
3,31,107,124
3,31,0,232
3,33,114,8
3,33,0,236
3,35,114,4
3,35,0,228
3,36,121,12
3,36,0,236
3,38,125,4
3,38,0,127
3,38,114,113
3,38,0,125
3,38,96,115
3,38,0,117
3,38,121,123
3,38,0,113
3,38,114,127
3,38,0,112
3,38,121,128
3,38,0,117
3,38,115,123
3,38,0,117
3,38,114,123
3,38,0,122
3,38,121,118
3,38,0,125
3,38,102,115
3,38,0,117
3,38,120,123
3,38,0,156
3,36,125,84
3,36,0,127
3,36,113,113
3,36,0,221
3,35,114,19
3,35,0,226
3,33,112,14
3,33,0,211
3,35,125,29
3,35,0,227
3,31,127,13
3,31,0,323
3,31,108,157
3,31,0,350
3,31,102,130
3,31,0,190
3,33,109,50
3,33,0,163
3,35,114,77
3,35,0,211
3,36,125,29
3,36,0,338
3,36,121,142
3,36,0,112
3,36,112,128
3,36,0,370
3,36,113,110
3,36,0,236
3,35,114,4
3,35,0,203
3,36,114,37
3,36,0,230
3,38,121,10
3,38,0,227
3,40,125,13
3,40,0,333
3,40,126,147
3,40,0,321
3,40,124,159
3,40,0,172
3,35,115,68
3,35,0,230
3,40,115,10
3,40,0,236
3,38,124,4
3,38,0,316
3,38,120,164
3,38,0,110
3,38,125,130
3,38,0,300
3,38,114,180
3,38,0,91
3,38,121,149
3,38,0,128
3,38,113,112
3,38,0,138
3,38,120,102
3,38,0,216
3,36,127,24
3,36,0,343
3,36,114,137
3,36,0,341
3,36,102,139
3,36,0,207
3,28,115,33
3,28,0,226
3,30,115,14
3,30,0,202
3,31,114,38
3,31,0,317
3,31,120,163
3,31,0,113
3,31,115,127
3,31,0,355
3,31,103,125
3,31,0,220
3,33,114,20
3,33,0,230
3,35,114,10
3,35,0,213
3,36,125,27
3,36,0,236
3,38,126,4
3,38,0,317
3,38,125,163
3,38,0,302
3,38,127,178
3,38,0,110
3,38,126,130
3,38,0,313
3,38,127,167
3,38,0,318
3,38,120,162
3,38,0,117
3,38,120,123
3,38,0,320
3,38,121,160
3,38,0,115
3,38,121,125
3,38,0,120
3,38,114,120
3,38,0,110
3,38,112,130
3,38,0,186
3,31,127,54
3,38,127,5248
3,43,126,35
3,43,114,62
3,37,121,15
3,36,126,55
3,36,0,1888
3,35,127,32
3,35,0,1916
3,33,127,4
3,33,0,300
3,33,124,180
3,33,0,340
3,33,125,140
3,33,0,293
3,33,124,187
3,33,0,323
3,38,126,157
3,38,0,336
3,38,127,144
3,38,0,306
3,38,127,174
3,38,0,308
3,38,126,172
3,38,0,335
3,33,126,145
3,33,0,360
3,33,125,120
3,33,0,351
3,33,125,129
3,33,0,321
3,33,114,159
3,33,0,378
3,38,124,102
3,38,0,180
3,38,115,60
3,38,0,180
3,38,124,60
3,38,0,180
3,38,115,60
3,38,0,180
3,38,109,60
3,38,0,180
3,38,114,60
3,38,0,180
3,38,113,60
3,38,0,180
3,38,114,60
3,38,0,180
3,38,108,60
3,38,0,180
3,38,113,60
3,38,0,180
3,38,125,60
3,38,0,180
3,38,108,60
3,38,0,180
3,38,102,60
3,38,0,180
3,38,121,60
3,38,0,180
3,40,113,60
3,40,0,180
3,42,102,60
3,42,0,180
3,31,124,60
3,31,0,367
3,31,113,113
3,31,0,372
3,31,108,108
3,31,0,177
3,33,113,63
3,33,0,211
3,35,115,29
3,35,0,218
3,36,124,22
3,36,0,367
3,36,97,113
3,36,0,127
3,36,114,113
3,36,0,351
3,36,108,129
3,36,0,226
3,35,115,14
3,35,0,221
3,36,113,19
3,36,0,230
3,38,114,10
3,38,0,235
3,40,124,5
3,40,0,351
3,40,125,129
3,40,0,351
3,40,115,129
3,40,0,153
3,35,114,87
3,35,0,236
3,40,120,4
3,40,0,228
3,38,121,12
3,38,0,331
3,38,120,149
3,38,0,85
3,38,125,155
3,38,0,317
3,38,125,163
3,38,0,342
3,38,120,138
3,38,0,130
3,38,115,110
3,38,0,236
3,36,124,4
3,36,0,367
3,36,112,113
3,36,0,318
3,36,95,162
3,36,0,203
3,28,121,37
3,28,0,236
3,30,106,4
3,30,0,211
3,31,120,29
3,31,0,318
3,31,107,162
3,31,0,128
3,31,109,112
3,31,0,370
3,31,108,110
3,31,0,213
3,33,108,27
3,33,0,195
3,35,115,45
3,35,0,236
3,36,124,4
3,36,0,236
3,38,125,4
3,38,0,326
3,38,121,154
3,38,0,348
3,38,102,132
3,38,0,120
3,38,121,120
3,38,0,117
3,38,114,123
3,38,0,138
3,38,112,102
3,38,0,360
3,38,109,120
3,38,0,195
3,26,121,45
3,26,0,133
3,26,102,107
3,26,0,220
3,28,120,20
3,28,0,127
3,28,113,113
3,28,0,216
3,30,113,24
3,30,0,125
3,30,120,115
3,30,0,236
3,31,124,4
3,31,0,367
3,31,113,113
3,31,0,372
3,31,108,108
3,31,0,177
3,33,113,63
3,33,0,211
3,35,115,29
3,35,0,218
3,36,124,22
3,36,0,367
3,36,97,113
3,36,0,127
3,36,114,113
3,36,0,351
3,36,108,129
3,36,0,226
3,35,115,14
3,35,0,221
3,36,113,19
3,36,0,230
3,38,114,10
3,38,0,235
3,40,124,5
3,40,0,351
3,40,125,129
3,40,0,351
3,40,115,129
3,40,0,153
3,35,114,87
3,35,0,236
3,40,120,4
3,40,0,228
3,38,121,12
3,38,0,331
3,38,120,149
3,38,0,85
3,38,125,155
3,38,0,317
3,38,125,163
3,38,0,342
3,38,120,138
3,38,0,130
3,38,115,110
3,38,0,236
3,36,124,4
3,36,0,367
3,36,112,113
3,36,0,318
3,36,95,162
3,36,0,203
3,28,121,37
3,28,0,236
3,30,106,4
3,30,0,211
3,31,120,29
3,31,0,318
3,31,107,162
3,31,0,128
3,31,109,112
3,31,0,370
3,31,108,110
3,31,0,213
3,33,108,27
3,33,0,195
3,35,115,45
3,35,0,236
3,36,124,4
3,36,0,236
3,38,127,4
3,38,0,336
3,38,127,144
3,38,0,326
3,38,124,154
3,38,0,115
3,38,115,125
3,38,0,115
3,38,114,125
3,38,0,120
3,38,114,120
3,38,0,122
3,38,115,118
3,38,0,127
