track,note,velocity,time
1.0,66.0,46.0,0.0
1.0,70.0,46.0,0.0
1.0,73.0,55.0,0.0
1.0,73.0,0.0,480.0
1.0,70.0,0.0,0.0
1.0,66.0,0.0,0.0
1.0,61.0,35.0,0.0
1.0,61.0,0.0,480.0
1.0,66.0,46.0,0.0
1.0,70.0,46.0,0.0
1.0,73.0,55.0,0.0
1.0,73.0,0.0,480.0
1.0,70.0,0.0,0.0
1.0,66.0,0.0,0.0
1.0,61.0,35.0,0.0
1.0,66.0,44.0,480.0
1.0,70.0,44.0,0.0
1.0,73.0,52.0,0.0
1.0,73.0,0.0,480.0
1.0,70.0,0.0,0.0
1.0,72.0,47.0,0.0
1.0,75.0,56.0,0.0
1.0,75.0,0.0,300.0
1.0,61.0,0.0,0.0
1.0,66.0,0.0,0.0
1.0,72.0,0.0,0.0
1.0,65.0,39.0,90.0
1.0,68.0,41.0,30.0
1.0,73.0,46.0,30.0
1.0,77.0,52.0,30.0
1.0,77.0,0.0,780.0
1.0,65.0,0.0,0.0
1.0,68.0,0.0,0.0
1.0,73.0,0.0,0.0
1.0,58.0,35.0,120.0
1.0,61.0,40.0,30.0
1.0,63.0,46.0,30.0
1.0,70.0,46.0,0.0
1.0,70.0,0.0,480.0
1.0,58.0,0.0,0.0
1.0,61.0,0.0,0.0
1.0,63.0,0.0,0.0
1.0,69.0,49.0,0.0
1.0,69.0,0.0,480.0
1.0,68.0,51.0,0.0
1.0,75.0,62.0,480.0
1.0,75.0,0.0,480.0
1.0,73.0,61.0,0.0
1.0,73.0,0.0,480.0
1.0,68.0,0.0,0.0
1.0,72.0,59.0,0.0
1.0,68.0,52.0,0.0
1.0,72.0,0.0,360.0
1.0,73.0,58.0,0.0
1.0,73.0,0.0,60.0
1.0,72.0,53.0,0.0
1.0,72.0,0.0,60.0
1.0,68.0,0.0,0.0
1.0,66.0,49.0,0.0
1.0,70.0,55.0,0.0
1.0,70.0,0.0,480.0
1.0,66.0,0.0,0.0
1.0,62.0,49.0,0.0
1.0,68.0,55.0,0.0
1.0,68.0,0.0,480.0
1.0,62.0,0.0,0.0
1.0,63.0,52.0,0.0
1.0,66.0,59.0,0.0
1.0,66.0,0.0,480.0
1.0,63.0,0.0,0.0
1.0,60.0,49.0,0.0
1.0,70.0,56.0,0.0
1.0,70.0,0.0,480.0
1.0,60.0,0.0,0.0
1.0,61.0,49.0,0.0
1.0,68.0,56.0,0.0
1.0,68.0,0.0,360.0
1.0,66.0,47.0,0.0
1.0,66.0,0.0,60.0
1.0,68.0,42.0,0.0
1.0,68.0,0.0,60.0
1.0,66.0,55.0,0.0
1.0,66.0,0.0,240.0
1.0,65.0,47.0,0.0
1.0,65.0,0.0,240.0
1.0,61.0,0.0,0.0
1.0,58.0,49.0,0.0
1.0,61.0,47.0,0.0
1.0,63.0,52.0,0.0
1.0,58.0,0.0,480.0
1.0,57.0,39.0,0.0
1.0,57.0,0.0,480.0
1.0,63.0,0.0,0.0
1.0,61.0,0.0,0.0
1.0,60.0,42.0,0.0
1.0,68.0,48.0,0.0
1.0,68.0,0.0,960.0
1.0,60.0,0.0,0.0
1.0,61.0,49.0,0.0
1.0,68.0,56.0,0.0
1.0,68.0,0.0,480.0
1.0,61.0,0.0,0.0
1.0,77.0,59.0,0.0
1.0,65.0,53.0,0.0
1.0,65.0,0.0,480.0
1.0,77.0,0.0,0.0
1.0,61.0,55.0,0.0
1.0,75.0,61.0,0.0
1.0,75.0,0.0,360.0
1.0,73.0,57.0,0.0
1.0,73.0,0.0,60.0
1.0,75.0,52.0,0.0
1.0,75.0,0.0,60.0
1.0,73.0,64.0,0.0
1.0,73.0,0.0,240.0
1.0,72.0,57.0,0.0
1.0,72.0,0.0,240.0
1.0,61.0,0.0,0.0
1.0,65.0,57.0,0.0
1.0,70.0,63.0,0.0
1.0,70.0,0.0,480.0
1.0,65.0,56.0,0.0
1.0,65.0,0.0,480.0
1.0,65.0,0.0,0.0
1.0,58.0,52.0,0.0
1.0,66.0,59.0,0.0
1.0,66.0,0.0,480.0
1.0,65.0,56.0,0.0
1.0,65.0,0.0,480.0
1.0,58.0,0.0,0.0
1.0,63.0,59.0,0.0
1.0,58.0,52.0,0.0
1.0,63.0,0.0,240.0
1.0,65.0,56.0,0.0
1.0,65.0,0.0,240.0
1.0,66.0,59.0,0.0
1.0,66.0,0.0,480.0
1.0,63.0,55.0,0.0
1.0,65.0,55.0,0.0
1.0,58.0,0.0,480.0
1.0,57.0,39.0,0.0
1.0,57.0,0.0,480.0
1.0,65.0,0.0,0.0
1.0,63.0,0.0,0.0
1.0,62.0,52.0,0.0
1.0,65.0,52.0,0.0
1.0,59.0,36.0,480.0
1.0,59.0,0.0,480.0
1.0,58.0,33.0,0.0
1.0,58.0,0.0,960.0
1.0,65.0,0.0,0.0
1.0,62.0,0.0,0.0
1.0,71.0,62.0,0.0
1.0,65.0,50.0,0.0
1.0,68.0,50.0,0.0
1.0,71.0,0.0,360.0
1.0,70.0,57.0,0.0
1.0,70.0,0.0,60.0
1.0,71.0,52.0,0.0
1.0,71.0,0.0,60.0
1.0,70.0,62.0,0.0
1.0,70.0,0.0,240.0
1.0,69.0,56.0,0.0
1.0,69.0,0.0,240.0
1.0,68.0,0.0,0.0
1.0,65.0,0.0,0.0
1.0,66.0,50.0,0.0
1.0,70.0,62.0,0.0
1.0,70.0,0.0,240.0
1.0,75.0,58.0,0.0
1.0,75.0,0.0,240.0
1.0,73.0,63.0,0.0
1.0,73.0,0.0,240.0
1.0,72.0,60.0,0.0
1.0,72.0,0.0,240.0
1.0,66.0,0.0,0.0
1.0,63.0,52.0,0.0
1.0,66.0,52.0,0.0
1.0,70.0,64.0,0.0
1.0,70.0,0.0,480.0
1.0,69.0,59.0,0.0
1.0,69.0,0.0,480.0
1.0,66.0,0.0,0.0
1.0,63.0,0.0,0.0
1.0,65.0,52.0,0.0
1.0,68.0,64.0,0.0
1.0,68.0,0.0,480.0
1.0,73.0,66.0,0.0
1.0,73.0,0.0,480.0
1.0,65.0,0.0,0.0
1.0,65.0,52.0,0.0
1.0,68.0,52.0,0.0
1.0,71.0,64.0,0.0
1.0,71.0,0.0,360.0
1.0,70.0,56.0,0.0
1.0,70.0,0.0,60.0
1.0,71.0,57.0,0.0
1.0,71.0,0.0,60.0
1.0,70.0,59.0,0.0
1.0,70.0,0.0,240.0
1.0,69.0,57.0,0.0
1.0,69.0,0.0,240.0
1.0,68.0,0.0,0.0
1.0,65.0,0.0,0.0
1.0,66.0,50.0,0.0
1.0,70.0,62.0,0.0
1.0,70.0,0.0,100.0
1.0,75.0,63.0,60.0
1.0,75.0,0.0,100.0
1.0,74.0,58.0,60.0
1.0,74.0,0.0,100.0
1.0,73.0,63.0,60.0
1.0,73.0,0.0,100.0
1.0,72.0,61.0,60.0
1.0,72.0,0.0,100.0
1.0,71.0,58.0,60.0
1.0,71.0,0.0,100.0
1.0,66.0,0.0,60.0
1.0,63.0,47.0,0.0
1.0,66.0,47.0,0.0
1.0,70.0,64.0,0.0
1.0,70.0,0.0,480.0
1.0,69.0,61.0,0.0
1.0,69.0,0.0,480.0
1.0,66.0,0.0,0.0
1.0,63.0,0.0,0.0
1.0,65.0,52.0,0.0
1.0,68.0,64.0,0.0
1.0,68.0,0.0,480.0
1.0,77.0,67.0,0.0
1.0,77.0,0.0,480.0
1.0,65.0,0.0,0.0
1.0,75.0,71.0,0.0
1.0,66.0,63.0,0.0
1.0,75.0,0.0,360.0
1.0,73.0,67.0,0.0
1.0,73.0,0.0,60.0
1.0,75.0,61.0,0.0
1.0,75.0,0.0,60.0
1.0,73.0,71.0,0.0
1.0,73.0,0.0,240.0
1.0,72.0,64.0,0.0
1.0,72.0,0.0,240.0
1.0,66.0,0.0,0.0
1.0,65.0,62.0,0.0
1.0,70.0,70.0,0.0
1.0,70.0,0.0,480.0
1.0,65.0,0.0,0.0
1.0,65.0,64.0,0.0
1.0,65.0,0.0,480.0
1.0,65.0,59.0,0.0
1.0,69.0,67.0,0.0
1.0,61.0,57.0,480.0
1.0,58.0,51.0,420.0
1.0,61.0,56.0,30.0
1.0,61.0,0.0,30.0
1.0,65.0,0.0,0.0
1.0,69.0,0.0,0.0
1.0,63.0,60.0,0.0
1.0,70.0,60.0,0.0
1.0,63.0,0.0,480.0
1.0,61.0,0.0,0.0
1.0,58.0,0.0,0.0
1.0,70.0,0.0,240.0
1.0,62.0,61.0,0.0
1.0,63.0,62.0,120.0
1.0,63.0,0.0,60.0
1.0,62.0,0.0,0.0
1.0,65.0,59.0,0.0
1.0,65.0,0.0,60.0
1.0,63.0,66.0,0.0
1.0,63.0,0.0,240.0
1.0,62.0,63.0,0.0
1.0,62.0,0.0,240.0
1.0,63.0,67.0,0.0
1.0,63.0,0.0,720.0
1.0,62.0,57.0,0.0
1.0,62.0,0.0,240.0
1.0,63.0,61.0,0.0
1.0,63.0,0.0,240.0
1.0,65.0,56.0,0.0
1.0,65.0,0.0,240.0
1.0,61.0,56.0,0.0
1.0,66.0,62.0,0.0
1.0,66.0,0.0,480.0
1.0,61.0,0.0,0.0
1.0,65.0,58.0,0.0
1.0,60.0,51.0,0.0
1.0,60.0,0.0,480.0
1.0,65.0,0.0,0.0
1.0,56.0,47.0,0.0
1.0,61.0,52.0,0.0
1.0,61.0,0.0,960.0
1.0,56.0,0.0,0.0
1.0,58.0,47.0,0.0
1.0,63.0,51.0,0.0
1.0,66.0,51.0,0.0
1.0,58.0,0.0,240.0
1.0,57.0,41.0,0.0
1.0,57.0,0.0,240.0
1.0,58.0,46.0,0.0
1.0,58.0,0.0,240.0
1.0,57.0,39.0,0.0
1.0,57.0,0.0,240.0
1.0,66.0,0.0,0.0
1.0,63.0,0.0,0.0
1.0,56.0,45.0,0.0
1.0,61.0,49.0,0.0
1.0,65.0,49.0,0.0
1.0,56.0,0.0,240.0
1.0,55.0,39.0,0.0
1.0,55.0,0.0,240.0
1.0,56.0,42.0,0.0
1.0,56.0,0.0,480.0
1.0,65.0,0.0,0.0
1.0,61.0,0.0,0.0
1.0,58.0,47.0,0.0
1.0,63.0,51.0,0.0
1.0,66.0,51.0,0.0
1.0,58.0,0.0,240.0
1.0,57.0,41.0,0.0
1.0,57.0,0.0,240.0
1.0,58.0,46.0,0.0
1.0,58.0,0.0,240.0
1.0,57.0,39.0,0.0
1.0,57.0,0.0,240.0
1.0,66.0,0.0,0.0
1.0,63.0,0.0,0.0
1.0,56.0,45.0,0.0
1.0,61.0,49.0,0.0
1.0,65.0,49.0,0.0
1.0,56.0,0.0,240.0
1.0,55.0,39.0,0.0
1.0,55.0,0.0,240.0
1.0,56.0,42.0,0.0
1.0,56.0,0.0,480.0
1.0,65.0,0.0,0.0
1.0,61.0,0.0,0.0
1.0,58.0,49.0,0.0
1.0,63.0,49.0,0.0
1.0,55.0,45.0,0.0
1.0,55.0,0.0,240.0
1.0,54.0,39.0,11.0
1.0,55.0,42.0,229.0
1.0,54.0,0.0,11.0
1.0,58.0,0.0,469.0
1.0,63.0,0.0,0.0
1.0,55.0,0.0,0.0
1.0,54.0,45.0,0.0
1.0,58.0,49.0,0.0
1.0,63.0,49.0,0.0
1.0,54.0,0.0,240.0
1.0,53.0,39.0,0.0
1.0,53.0,0.0,240.0
1.0,54.0,42.0,0.0
1.0,54.0,0.0,480.0
1.0,63.0,0.0,0.0
1.0,58.0,0.0,0.0
1.0,54.0,42.0,0.0
1.0,58.0,48.0,0.0
1.0,65.0,48.0,0.0
1.0,65.0,0.0,480.0
1.0,60.0,42.0,0.0
1.0,60.0,0.0,480.0
1.0,58.0,0.0,0.0
1.0,54.0,0.0,0.0
1.0,53.0,34.0,0.0
1.0,56.0,34.0,0.0
1.0,61.0,38.0,0.0
1.0,61.0,0.0,960.0
1.0,56.0,0.0,0.0
1.0,53.0,0.0,0.0
1.0,66.0,46.0,0.0
1.0,70.0,46.0,0.0
1.0,73.0,55.0,0.0
1.0,73.0,0.0,480.0
1.0,70.0,0.0,0.0
1.0,66.0,0.0,0.0
1.0,61.0,35.0,0.0
1.0,61.0,0.0,480.0
1.0,66.0,46.0,0.0
1.0,70.0,46.0,0.0
1.0,73.0,55.0,0.0
1.0,73.0,0.0,480.0
1.0,70.0,0.0,0.0
1.0,66.0,0.0,0.0
1.0,61.0,35.0,0.0
1.0,73.0,52.0,480.0
1.0,66.0,44.0,0.0
1.0,70.0,44.0,0.0
1.0,70.0,0.0,480.0
1.0,73.0,0.0,0.0
1.0,72.0,47.0,0.0
1.0,75.0,56.0,0.0
1.0,75.0,0.0,300.0
1.0,61.0,0.0,0.0
1.0,66.0,0.0,0.0
1.0,72.0,0.0,0.0
1.0,65.0,39.0,90.0
1.0,68.0,41.0,30.0
1.0,73.0,46.0,30.0
1.0,77.0,52.0,30.0
1.0,77.0,0.0,960.0
1.0,65.0,0.0,0.0
1.0,68.0,0.0,0.0
1.0,73.0,0.0,0.0
1.0,68.0,36.0,1440.0
1.0,68.0,0.0,240.0
1.0,73.0,36.0,240.0
1.0,73.0,0.0,240.0
1.0,80.0,37.0,240.0
1.0,80.0,0.0,1920.0
2.0,63.0,45.0,0.0
2.0,58.0,37.0,0.0
2.0,54.0,37.0,0.0
2.0,54.0,0.0,480.0
2.0,58.0,0.0,0.0
2.0,63.0,0.0,0.0
2.0,49.0,27.0,0.0
2.0,49.0,0.0,480.0
2.0,54.0,37.0,0.0
2.0,58.0,37.0,0.0
2.0,63.0,44.0,0.0
2.0,63.0,0.0,480.0
2.0,58.0,0.0,0.0
2.0,54.0,0.0,0.0
2.0,49.0,26.0,0.0
2.0,58.0,45.0,480.0
2.0,58.0,0.0,480.0
2.0,57.0,48.0,0.0
2.0,57.0,0.0,300.0
2.0,49.0,0.0,0.0
2.0,49.0,34.0,0.0
2.0,56.0,36.0,30.0
2.0,61.0,38.0,21.0
2.0,37.0,38.0,589.0
2.0,37.0,0.0,35.0
2.0,49.0,0.0,0.0
2.0,56.0,0.0,0.0
2.0,61.0,0.0,0.0
2.0,42.0,26.0,0.0
2.0,49.0,29.0,30.0
2.0,51.0,33.0,14.0
2.0,54.0,35.0,30.0
2.0,54.0,0.0,570.0
2.0,42.0,0.0,0.0
2.0,49.0,0.0,0.0
2.0,51.0,0.0,0.0
2.0,61.0,39.0,0.0
2.0,61.0,0.0,20.0
2.0,60.0,37.0,0.0
2.0,54.0,41.0,340.0
2.0,54.0,0.0,220.0
2.0,60.0,0.0,0.0
2.0,61.0,49.0,0.0
2.0,53.0,44.0,0.0
2.0,61.0,0.0,448.0
2.0,61.0,41.0,0.0
2.0,53.0,0.0,480.0
2.0,54.0,45.0,0.0
2.0,54.0,0.0,424.0
2.0,61.0,0.0,0.0
2.0,53.0,36.0,0.0
2.0,58.0,40.0,0.0
2.0,58.0,0.0,60.0
2.0,53.0,0.0,0.0
2.0,51.0,42.0,0.0
2.0,58.0,48.0,0.0
2.0,58.0,0.0,353.0
2.0,54.0,41.0,0.0
2.0,54.0,0.0,71.0
2.0,51.0,0.0,0.0
2.0,53.0,40.0,0.0
2.0,56.0,46.0,0.0
2.0,53.0,0.0,353.0
2.0,49.0,36.0,0.0
2.0,49.0,0.0,99.0
2.0,56.0,0.0,0.0
2.0,42.0,45.0,0.0
2.0,42.0,0.0,240.0
2.0,44.0,35.0,0.0
2.0,56.0,39.0,0.0
2.0,56.0,0.0,280.0
2.0,54.0,33.0,0.0
2.0,54.0,0.0,340.0
2.0,44.0,0.0,0.0
2.0,49.0,36.0,0.0
2.0,53.0,45.0,0.0
2.0,53.0,0.0,353.0
2.0,56.0,41.0,0.0
2.0,56.0,0.0,71.0
2.0,57.0,46.0,0.0
2.0,49.0,0.0,353.0
2.0,49.0,31.0,0.0
2.0,57.0,0.0,99.0
2.0,58.0,41.0,0.0
2.0,49.0,0.0,293.0
2.0,49.0,37.0,0.0
2.0,49.0,0.0,240.0
2.0,58.0,0.0,0.0
2.0,51.0,40.0,0.0
2.0,51.0,0.0,133.0
2.0,49.0,31.0,0.0
2.0,53.0,36.0,0.0
2.0,53.0,0.0,133.0
2.0,49.0,0.0,0.0
2.0,54.0,46.0,0.0
2.0,48.0,40.0,0.0
2.0,54.0,0.0,141.0
2.0,53.0,37.0,0.0
2.0,53.0,0.0,240.0
2.0,51.0,42.0,0.0
2.0,51.0,0.0,85.0
2.0,48.0,0.0,0.0
2.0,53.0,46.0,0.0
2.0,53.0,0.0,381.0
2.0,41.0,39.0,0.0
2.0,41.0,0.0,71.0
2.0,34.0,39.0,0.0
2.0,34.0,0.0,366.0
2.0,46.0,27.0,0.0
2.0,46.0,0.0,183.0
2.0,62.0,46.0,0.0
2.0,49.0,38.0,457.0
2.0,62.0,0.0,480.0
2.0,63.0,46.0,0.0
2.0,49.0,0.0,377.0
2.0,49.0,38.0,0.0
2.0,63.0,0.0,80.0
2.0,60.0,46.0,0.0
2.0,49.0,0.0,320.0
2.0,49.0,34.0,0.0
2.0,60.0,0.0,100.0
2.0,61.0,46.0,0.0
2.0,49.0,0.0,360.0
2.0,49.0,37.0,0.0
2.0,61.0,0.0,340.0
2.0,62.0,46.0,0.0
2.0,49.0,0.0,480.0
2.0,49.0,37.0,0.0
2.0,62.0,0.0,94.0
2.0,63.0,46.0,0.0
2.0,49.0,0.0,437.0
2.0,49.0,39.0,0.0
2.0,49.0,0.0,43.0
2.0,63.0,0.0,0.0
2.0,49.0,40.0,0.0
2.0,60.0,40.0,0.0
2.0,49.0,0.0,320.0
2.0,49.0,37.0,0.0
2.0,60.0,0.0,180.0
2.0,61.0,39.0,0.0
2.0,61.0,0.0,440.0
2.0,56.0,42.0,0.0
2.0,56.0,0.0,140.0
2.0,57.0,49.0,0.0
2.0,49.0,0.0,462.0
2.0,49.0,40.0,0.0
2.0,57.0,0.0,85.0
2.0,58.0,46.0,0.0
2.0,49.0,0.0,424.0
2.0,49.0,40.0,0.0
2.0,58.0,0.0,74.0
2.0,59.0,52.0,0.0
2.0,49.0,0.0,462.0
2.0,49.0,41.0,0.0
2.0,49.0,0.0,78.0
2.0,59.0,0.0,0.0
2.0,42.0,37.0,0.0
2.0,49.0,40.0,19.0
2.0,51.0,44.0,30.0
2.0,54.0,46.0,30.0
2.0,42.0,0.0,90.0
2.0,49.0,0.0,480.0
2.0,51.0,0.0,0.0
2.0,54.0,0.0,0.0
2.0,49.0,49.0,0.0
2.0,61.0,49.0,0.0
2.0,46.0,44.0,78.0
2.0,61.0,0.0,480.0
2.0,49.0,0.0,0.0
2.0,49.0,50.0,0.0
2.0,61.0,50.0,0.0
2.0,46.0,0.0,78.0
2.0,45.0,46.0,0.0
2.0,61.0,0.0,389.0
2.0,49.0,0.0,0.0
2.0,49.0,50.0,0.0
2.0,61.0,50.0,0.0
2.0,61.0,0.0,137.0
2.0,49.0,0.0,0.0
2.0,45.0,0.0,0.0
2.0,58.0,50.0,0.0
2.0,44.0,50.0,0.0
2.0,58.0,0.0,56.0
2.0,56.0,48.0,0.0
2.0,56.0,0.0,212.0
2.0,54.0,38.0,0.0
2.0,54.0,0.0,71.0
2.0,53.0,41.0,0.0
2.0,44.0,0.0,240.0
2.0,44.0,35.0,0.0
2.0,44.0,0.0,184.0
2.0,53.0,0.0,0.0
2.0,32.0,47.0,50.0
2.0,32.0,0.0,50.0
2.0,32.0,39.0,0.0
2.0,32.0,0.0,60.0
2.0,32.0,47.0,0.0
2.0,32.0,0.0,110.0
2.0,32.0,38.0,0.0
2.0,32.0,0.0,46.0
2.0,32.0,39.0,0.0
2.0,32.0,0.0,46.0
2.0,32.0,39.0,0.0
2.0,32.0,0.0,960.0
2.0,32.0,36.0,0.0
2.0,32.0,0.0,480.0
2.0,37.0,39.0,0.0
2.0,37.0,0.0,960.0
2.0,63.0,45.0,0.0
2.0,58.0,37.0,0.0
2.0,54.0,37.0,0.0
2.0,54.0,0.0,293.0
2.0,58.0,0.0,0.0
2.0,63.0,0.0,0.0
2.0,49.0,27.0,0.0
2.0,49.0,0.0,480.0
2.0,54.0,37.0,0.0
2.0,58.0,37.0,0.0
2.0,63.0,44.0,0.0
2.0,63.0,0.0,480.0
2.0,58.0,0.0,0.0
2.0,54.0,0.0,0.0
2.0,49.0,26.0,0.0
2.0,58.0,45.0,480.0
2.0,58.0,0.0,480.0
2.0,57.0,48.0,0.0
2.0,57.0,0.0,300.0
2.0,49.0,0.0,0.0
2.0,49.0,34.0,0.0
2.0,56.0,36.0,30.0
2.0,61.0,38.0,21.0
2.0,37.0,34.0,589.0
2.0,37.0,0.0,480.0
2.0,49.0,0.0,0.0
2.0,56.0,0.0,0.0
2.0,61.0,0.0,0.0
2.0,53.0,31.0,0.0
2.0,53.0,0.0,240.0
2.0,61.0,34.0,240.0
2.0,61.0,0.0,240.0
2.0,65.0,34.0,240.0
2.0,65.0,0.0,240.0
0.0,0.0,0.0,0.0
0.0,0.0,0.0,0.0
0.0,0.0,0.0,0.0
0.0,0.0,0.0,0.0
0.0,0.0,0.0,0.0
0.0,0.0,0.0,0.0
0.0,0.0,0.0,0.0
0.0,0.0,0.0,0.0
0.0,0.0,0.0,0.0
0.0,0.0,0.0,0.0
0.0,0.0,0.0,0.0
0.0,0.0,0.0,0.0
0.0,0.0,0.0,0.0
0.0,0.0,0.0,0.0
0.0,0.0,0.0,0.0
0.0,0.0,0.0,0.0
0.0,0.0,0.0,0.0
0.0,0.0,0.0,0.0
0.0,0.0,0.0,0.0
0.0,0.0,0.0,0.0
0.0,0.0,0.0,0.0
0.0,0.0,0.0,0.0
0.0,0.0,0.0,0.0
0.0,0.0,0.0,0.0
0.0,0.0,0.0,0.0
0.0,0.0,0.0,0.0
0.0,0.0,0.0,0.0
0.0,0.0,0.0,0.0
0.0,0.0,0.0,0.0
0.0,0.0,0.0,0.0
0.0,0.0,0.0,0.0
0.0,0.0,0.0,0.0
0.0,0.0,0.0,0.0
0.0,0.0,0.0,0.0
0.0,0.0,0.0,0.0
0.0,0.0,0.0,0.0
0.0,0.0,0.0,0.0
0.0,0.0,0.0,0.0
0.0,0.0,0.0,0.0
0.0,0.0,0.0,0.0
0.0,0.0,0.0,0.0
0.0,0.0,0.0,0.0
0.0,0.0,0.0,0.0
0.0,0.0,0.0,0.0
0.0,0.0,0.0,0.0
0.0,0.0,0.0,0.0
0.0,0.0,0.0,0.0
0.0,0.0,0.0,0.0
0.0,0.0,0.0,0.0
0.0,0.0,0.0,0.0
0.0,0.0,0.0,0.0
0.0,0.0,0.0,0.0
0.0,0.0,0.0,0.0
0.0,0.0,0.0,0.0
0.0,0.0,0.0,0.0
0.0,0.0,0.0,0.0
0.0,0.0,0.0,0.0
0.0,0.0,0.0,0.0
0.0,0.0,0.0,0.0
0.0,0.0,0.0,0.0
0.0,0.0,0.0,0.0
0.0,0.0,0.0,0.0
0.0,0.0,0.0,0.0
0.0,0.0,0.0,0.0
0.0,0.0,0.0,0.0
0.0,0.0,0.0,0.0
0.0,0.0,0.0,0.0
0.0,0.0,0.0,0.0
0.0,0.0,0.0,0.0
0.0,0.0,0.0,0.0
0.0,0.0,0.0,0.0
0.0,0.0,0.0,0.0
0.0,0.0,0.0,0.0
0.0,0.0,0.0,0.0
0.0,0.0,0.0,0.0
0.0,0.0,0.0,0.0
0.0,0.0,0.0,0.0
0.0,0.0,0.0,0.0
0.0,0.0,0.0,0.0
0.0,0.0,0.0,0.0
0.0,0.0,0.0,0.0
0.0,0.0,0.0,0.0
0.0,0.0,0.0,0.0
0.0,0.0,0.0,0.0
0.0,0.0,0.0,0.0
0.0,0.0,0.0,0.0
0.0,0.0,0.0,0.0
0.0,0.0,0.0,0.0
0.0,0.0,0.0,0.0
0.0,0.0,0.0,0.0
0.0,0.0,0.0,0.0
0.0,0.0,0.0,0.0
0.0,0.0,0.0,0.0
0.0,0.0,0.0,0.0
0.0,0.0,0.0,0.0
0.0,0.0,0.0,0.0
0.0,0.0,0.0,0.0
0.0,0.0,0.0,0.0
0.0,0.0,0.0,0.0
0.0,0.0,0.0,0.0
0.0,0.0,0.0,0.0
0.0,0.0,0.0,0.0
0.0,0.0,0.0,0.0
0.0,0.0,0.0,0.0
0.0,0.0,0.0,0.0
0.0,0.0,0.0,0.0
0.0,0.0,0.0,0.0
0.0,0.0,0.0,0.0
0.0,0.0,0.0,0.0
0.0,0.0,0.0,0.0
0.0,0.0,0.0,0.0
0.0,0.0,0.0,0.0
0.0,0.0,0.0,0.0
0.0,0.0,0.0,0.0
0.0,0.0,0.0,0.0
0.0,0.0,0.0,0.0
0.0,0.0,0.0,0.0
0.0,0.0,0.0,0.0
0.0,0.0,0.0,0.0
0.0,0.0,0.0,0.0
0.0,0.0,0.0,0.0
0.0,0.0,0.0,0.0
0.0,0.0,0.0,0.0
0.0,0.0,0.0,0.0
0.0,0.0,0.0,0.0
0.0,0.0,0.0,0.0
0.0,0.0,0.0,0.0
0.0,0.0,0.0,0.0
0.0,0.0,0.0,0.0
0.0,0.0,0.0,0.0
0.0,0.0,0.0,0.0
0.0,0.0,0.0,0.0
0.0,0.0,0.0,0.0
0.0,0.0,0.0,0.0
0.0,0.0,0.0,0.0
0.0,0.0,0.0,0.0
0.0,0.0,0.0,0.0
0.0,0.0,0.0,0.0
0.0,0.0,0.0,0.0
0.0,0.0,0.0,0.0
0.0,0.0,0.0,0.0
0.0,0.0,0.0,0.0
0.0,0.0,0.0,0.0
0.0,0.0,0.0,0.0
0.0,0.0,0.0,0.0
0.0,0.0,0.0,0.0
0.0,0.0,0.0,0.0
0.0,0.0,0.0,0.0
0.0,0.0,0.0,0.0
0.0,0.0,0.0,0.0
0.0,0.0,0.0,0.0
0.0,0.0,0.0,0.0
0.0,0.0,0.0,0.0
0.0,0.0,0.0,0.0
0.0,0.0,0.0,0.0
0.0,0.0,0.0,0.0
0.0,0.0,0.0,0.0
0.0,0.0,0.0,0.0
0.0,0.0,0.0,0.0
0.0,0.0,0.0,0.0
0.0,0.0,0.0,0.0
0.0,0.0,0.0,0.0
0.0,0.0,0.0,0.0
0.0,0.0,0.0,0.0
0.0,0.0,0.0,0.0
0.0,0.0,0.0,0.0
0.0,0.0,0.0,0.0
0.0,0.0,0.0,0.0
0.0,0.0,0.0,0.0
0.0,0.0,0.0,0.0
0.0,0.0,0.0,0.0
0.0,0.0,0.0,0.0
0.0,0.0,0.0,0.0
0.0,0.0,0.0,0.0
0.0,0.0,0.0,0.0
0.0,0.0,0.0,0.0
0.0,0.0,0.0,0.0
0.0,0.0,0.0,0.0
0.0,0.0,0.0,0.0
0.0,0.0,0.0,0.0
0.0,0.0,0.0,0.0
0.0,0.0,0.0,0.0
0.0,0.0,0.0,0.0
0.0,0.0,0.0,0.0
0.0,0.0,0.0,0.0
0.0,0.0,0.0,0.0
0.0,0.0,0.0,0.0
0.0,0.0,0.0,0.0
0.0,0.0,0.0,0.0
0.0,0.0,0.0,0.0
0.0,0.0,0.0,0.0
0.0,0.0,0.0,0.0
0.0,0.0,0.0,0.0
0.0,0.0,0.0,0.0
0.0,0.0,0.0,0.0
0.0,0.0,0.0,0.0
0.0,0.0,0.0,0.0
0.0,0.0,0.0,0.0
0.0,0.0,0.0,0.0
0.0,0.0,0.0,0.0
0.0,0.0,0.0,0.0
0.0,0.0,0.0,0.0
0.0,0.0,0.0,0.0
0.0,0.0,0.0,0.0
0.0,0.0,0.0,0.0
0.0,0.0,0.0,0.0
0.0,0.0,0.0,0.0
0.0,0.0,0.0,0.0
0.0,0.0,0.0,0.0
0.0,0.0,0.0,0.0
0.0,0.0,0.0,0.0
0.0,0.0,0.0,0.0
0.0,0.0,0.0,0.0
0.0,0.0,0.0,0.0
0.0,0.0,0.0,0.0
0.0,0.0,0.0,0.0
0.0,0.0,0.0,0.0
0.0,0.0,0.0,0.0
0.0,0.0,0.0,0.0
0.0,0.0,0.0,0.0
0.0,0.0,0.0,0.0
0.0,0.0,0.0,0.0
0.0,0.0,0.0,0.0
0.0,0.0,0.0,0.0
0.0,0.0,0.0,0.0
0.0,0.0,0.0,0.0
0.0,0.0,0.0,0.0
0.0,0.0,0.0,0.0
0.0,0.0,0.0,0.0
0.0,0.0,0.0,0.0
0.0,0.0,0.0,0.0
0.0,0.0,0.0,0.0
0.0,0.0,0.0,0.0
0.0,0.0,0.0,0.0
0.0,0.0,0.0,0.0
0.0,0.0,0.0,0.0
0.0,0.0,0.0,0.0
0.0,0.0,0.0,0.0
0.0,0.0,0.0,0.0
0.0,0.0,0.0,0.0
0.0,0.0,0.0,0.0
0.0,0.0,0.0,0.0
0.0,0.0,0.0,0.0
0.0,0.0,0.0,0.0
0.0,0.0,0.0,0.0
0.0,0.0,0.0,0.0
0.0,0.0,0.0,0.0
0.0,0.0,0.0,0.0
0.0,0.0,0.0,0.0
0.0,0.0,0.0,0.0
0.0,0.0,0.0,0.0
0.0,0.0,0.0,0.0
0.0,0.0,0.0,0.0
0.0,0.0,0.0,0.0
0.0,0.0,0.0,0.0
0.0,0.0,0.0,0.0
0.0,0.0,0.0,0.0
0.0,0.0,0.0,0.0
0.0,0.0,0.0,0.0
0.0,0.0,0.0,0.0
0.0,0.0,0.0,0.0
0.0,0.0,0.0,0.0
0.0,0.0,0.0,0.0
0.0,0.0,0.0,0.0
0.0,0.0,0.0,0.0
0.0,0.0,0.0,0.0
0.0,0.0,0.0,0.0
0.0,0.0,0.0,0.0
0.0,0.0,0.0,0.0
0.0,0.0,0.0,0.0
0.0,0.0,0.0,0.0
0.0,0.0,0.0,0.0
0.0,0.0,0.0,0.0
0.0,0.0,0.0,0.0
0.0,0.0,0.0,0.0
0.0,0.0,0.0,0.0
0.0,0.0,0.0,0.0
0.0,0.0,0.0,0.0
0.0,0.0,0.0,0.0
0.0,0.0,0.0,0.0
0.0,0.0,0.0,0.0
0.0,0.0,0.0,0.0
0.0,0.0,0.0,0.0
0.0,0.0,0.0,0.0
0.0,0.0,0.0,0.0
0.0,0.0,0.0,0.0
0.0,0.0,0.0,0.0
0.0,0.0,0.0,0.0
0.0,0.0,0.0,0.0
0.0,0.0,0.0,0.0
0.0,0.0,0.0,0.0
0.0,0.0,0.0,0.0
0.0,0.0,0.0,0.0
0.0,0.0,0.0,0.0
0.0,0.0,0.0,0.0
0.0,0.0,0.0,0.0
0.0,0.0,0.0,0.0
0.0,0.0,0.0,0.0
0.0,0.0,0.0,0.0
0.0,0.0,0.0,0.0
0.0,0.0,0.0,0.0
0.0,0.0,0.0,0.0
0.0,0.0,0.0,0.0
0.0,0.0,0.0,0.0
0.0,0.0,0.0,0.0
0.0,0.0,0.0,0.0
0.0,0.0,0.0,0.0
0.0,0.0,0.0,0.0
0.0,0.0,0.0,0.0
0.0,0.0,0.0,0.0
0.0,0.0,0.0,0.0
0.0,0.0,0.0,0.0
0.0,0.0,0.0,0.0
0.0,0.0,0.0,0.0
0.0,0.0,0.0,0.0
0.0,0.0,0.0,0.0
0.0,0.0,0.0,0.0
0.0,0.0,0.0,0.0
0.0,0.0,0.0,0.0
0.0,0.0,0.0,0.0
0.0,0.0,0.0,0.0
0.0,0.0,0.0,0.0
0.0,0.0,0.0,0.0
0.0,0.0,0.0,0.0
0.0,0.0,0.0,0.0
0.0,0.0,0.0,0.0
0.0,0.0,0.0,0.0
0.0,0.0,0.0,0.0
0.0,0.0,0.0,0.0
0.0,0.0,0.0,0.0
0.0,0.0,0.0,0.0
0.0,0.0,0.0,0.0
0.0,0.0,0.0,0.0
0.0,0.0,0.0,0.0
0.0,0.0,0.0,0.0
0.0,0.0,0.0,0.0
0.0,0.0,0.0,0.0
0.0,0.0,0.0,0.0
0.0,0.0,0.0,0.0
0.0,0.0,0.0,0.0
0.0,0.0,0.0,0.0
0.0,0.0,0.0,0.0
0.0,0.0,0.0,0.0
0.0,0.0,0.0,0.0
0.0,0.0,0.0,0.0
0.0,0.0,0.0,0.0
