track,note,velocity,time
1,43,73,12576
1,69,97,0
1,62,82,0
1,71,74,96
1,50,63,90
1,67,97,0
1,55,72,54
1,62,70,0
1,50,60,44
1,67,72,0
1,43,64,70
1,71,69,0
1,50,69,78
1,62,84,0
1,67,80,70
1,55,80,90
1,69,62,0
1,43,80,0
1,62,45,0
1,66,106,0
1,69,32,0
1,50,54,30
1,43,80,40
1,60,72,0
1,64,76,0
1,67,80,0
1,48,64,182
1,55,74,174
1,43,70,94
1,48,65,110
1,60,97,0
1,64,70,50
1,55,71,76
1,67,65,0
1,55,79,86
1,62,86,0
1,60,92,0
1,43,58,96
1,43,92,0
1,62,72,0
1,59,88,0
1,62,77,16
1,50,79,6
1,67,95,0
1,55,79,22
1,59,73,0
1,43,58,140
1,62,61,0
1,50,60,146
1,67,72,0
1,59,95,90
1,55,77,10
1,62,66,0
1,43,77,96
1,67,64,0
1,43,95,18
1,71,92,0
1,48,71,28
1,59,55,0
1,55,86,34
1,69,95,0
1,71,100,38
1,40,68,0
1,71,70,0
1,60,103,0
1,64,65,168
1,67,88,192
1,60,92,106
1,38,66,32
1,66,64,0
1,62,64,0
1,69,69,0
1,50,58,38
1,62,64,0
1,66,60,132
1,50,53,146
1,69,69,0
1,71,79,0
1,62,65,0
1,67,80,0
1,43,86,8
1,62,65,30
1,67,74,82
1,71,62,90
1,67,67,166
1,71,56,4
1,64,60,0
1,48,92,0
1,60,54,2
1,60,73,20
1,71,71,178
1,43,77,6
1,62,70,0
1,71,73,0
1,67,80,2
1,50,74,116
1,55,69,138
1,57,60,190
1,59,68,14
1,55,56,156
1,62,59,0
1,43,98,0
1,55,98,0
1,71,88,8
1,62,86,0
1,67,106,0
1,69,77,2
1,66,86,4
1,42,95,2
1,54,95,6
1,40,80,0
1,52,79,0
1,67,88,4
1,64,86,0
1,59,82,0
1,67,53,14
1,59,63,10
1,64,56,22
1,50,88,8
1,67,80,4
1,62,74,0
1,59,57,2
1,59,70,2
1,62,82,184
1,67,80,24
1,64,76,0
1,60,80,4
1,48,66,4
1,55,77,252
1,60,62,190
1,48,77,58
1,67,76,2
1,55,66,72
1,57,63,72
1,60,76,0
1,64,73,0
1,45,76,2
1,57,80,10
1,60,84,192
1,64,84,36
1,52,76,156
1,59,59,0
1,64,67,2
1,67,59,2
1,59,32,58
1,59,63,12
1,59,12,86
1,64,71,6
1,64,67,4
1,52,72,78
1,45,86,0
1,64,74,2
1,57,71,0
1,60,79,0
1,57,82,10
1,60,86,18
1,64,72,12
1,67,76,16
1,64,70,0
1,52,79,6
1,59,47,4
1,59,72,50
1,59,69,10
1,64,64,174
1,64,70,0
1,67,79,42
1,52,73,2
1,59,51,8
1,38,70,10
1,59,77,2
1,62,86,2
1,67,90,2
1,50,63,0
1,59,84,4
1,62,92,190
1,55,70,20
1,62,47,162
1,67,86,8
1,62,79,8
1,66,71,0
1,57,90,2
1,57,62,14
1,57,79,2
1,50,50,6
1,62,92,140
1,57,71,8
1,66,112,134
1,62,71,0
1,38,98,72
1,38,101,28
1,64,97,2
1,55,97,2
1,60,113,0
1,55,77,2
1,50,92,10
1,57,89,22
1,55,48,2
1,60,84,4
1,60,100,34
1,55,95,0
1,64,103,0
1,62,80,4
1,55,80,42
1,50,74,2
1,60,60,34
1,57,80,16
1,55,67,68
1,67,97,8
1,50,80,12
1,55,52,44
1,71,79,22
1,62,65,0
1,67,80,0
1,43,86,8
1,62,65,30
1,67,74,82
1,71,62,90
1,67,67,166
1,71,56,4
1,64,60,0
1,48,92,0
1,60,54,2
1,60,73,20
1,71,71,178
1,43,77,6
1,62,70,0
1,71,73,0
1,67,80,2
1,50,74,116
1,55,69,138
1,57,60,190
1,59,68,14
1,55,56,156
1,62,59,0
1,43,98,0
1,55,98,0
1,71,88,8
1,62,86,0
1,67,106,0
1,69,77,2
1,66,86,4
1,42,95,2
1,54,95,6
1,40,80,0
1,52,79,0
1,67,88,4
1,64,86,0
1,59,82,0
1,67,53,14
1,59,63,10
1,64,56,22
1,50,88,8
1,67,80,4
1,62,74,0
1,59,57,2
1,59,70,2
1,62,82,184
1,67,80,24
1,64,76,0
1,60,80,4
1,48,66,4
1,55,77,252
1,60,62,190
1,48,77,58
1,67,76,2
1,55,66,72
1,57,63,72
1,60,76,0
1,64,73,0
1,45,76,2
1,57,80,10
1,60,84,192
1,64,84,36
1,52,76,156
1,59,59,0
1,64,67,2
1,67,59,2
1,59,32,58
1,59,63,12
1,59,12,86
1,64,71,6
1,64,67,4
1,71,72,54
1,52,72,24
1,45,86,0
1,64,74,2
1,57,71,0
1,69,68,0
1,60,79,0
1,57,82,10
1,60,86,18
1,64,72,12
1,67,76,16
1,64,70,0
1,52,79,6
1,59,47,4
1,59,72,50
1,59,69,10
1,64,64,174
1,64,70,0
1,67,79,42
1,52,73,2
1,59,51,8
1,71,62,4
1,38,70,10
1,59,77,2
1,62,86,2
1,67,90,2
1,50,63,0
1,59,84,4
1,62,92,190
1,55,70,20
1,62,47,96
1,67,86,8
1,62,79,8
1,66,71,0
1,57,90,2
1,57,62,14
1,57,79,2
1,50,50,6
1,62,92,140
1,57,71,8
1,66,112,134
1,62,71,0
1,38,98,72
1,38,101,28
1,67,92,16
1,64,89,2
1,72,89,0
1,50,92,18
1,57,89,156
1,62,80,30
1,67,86,106
1,72,85,2
1,64,85,2
1,50,74,40
1,67,83,2
1,72,83,0
1,64,77,2
1,57,80,150
1,67,77,70
1,72,77,2
1,64,74,2
1,50,80,14
1,43,103,46
1,67,78,0
1,71,74,0
1,62,67,0
1,50,69,102
1,71,80,180
1,67,85,0
1,62,70,0
1,55,92,18
1,48,92,14
1,64,80,12
1,67,87,0
1,60,76,2
1,55,88,36
1,60,82,200
1,67,82,0
1,64,72,0
1,60,70,2
1,40,79,0
1,67,85,12
1,71,76,2
1,64,69,0
1,52,59,6
1,59,79,204
1,67,76,4
1,71,69,0
1,64,60,2
1,66,73,10
1,69,82,2
1,62,66,2
1,50,72,6
1,54,57,48
1,57,74,196
1,66,76,4
1,69,85,2
1,62,67,0
1,43,103,14
1,67,85,14
1,59,76,0
1,62,85,0
1,50,69,46
1,59,80,194
1,62,90,0
1,67,85,2
1,55,92,2
1,48,92,14
1,60,76,22
1,64,82,0
1,67,78,2
1,55,88,38
1,60,82,200
1,60,70,0
1,64,78,0
1,67,76,2
1,40,79,0
1,64,76,10
1,71,78,0
1,67,90,0
1,52,59,62
1,67,76,190
1,64,57,2
1,71,66,0
1,59,79,12
1,66,85,12
1,62,72,2
1,69,87,0
1,50,72,6
1,54,57,120
1,66,80,190
1,62,66,2
1,69,80,0
1,57,74,4
1,36,86,90
1,48,86,0
1,47,106,0
1,62,90,0
1,59,80,0
1,67,87,2
1,67,80,176
1,62,85,2
1,59,74,0
1,59,48,36
1,48,106,4
1,60,78,2
1,64,93,0
1,67,85,2
1,64,93,154
1,60,80,0
1,67,85,2
1,62,87,6
1,67,76,0
1,59,78,2
1,50,100,12
1,67,80,186
1,62,87,0
1,59,80,4
1,59,83,188
1,61,86,36
1,64,89,8
1,49,75,16
1,67,101,6
1,50,72,126
1,38,95,2
1,62,70,22
1,67,82,0
1,59,52,2
1,60,67,104
1,64,85,30
1,67,58,22
1,43,73,42
1,69,97,0
1,62,82,0
1,71,74,96
1,50,63,90
1,67,97,0
1,55,72,54
1,62,70,0
1,50,60,44
1,67,72,0
1,43,64,70
1,71,69,0
1,50,69,78
1,62,84,0
1,67,80,70
1,55,80,90
1,69,62,0
1,43,80,0
1,62,45,0
1,66,106,0
1,69,32,0
1,50,54,30
1,43,80,40
1,60,72,0
1,64,76,0
1,67,80,0
1,48,64,182
1,55,74,174
1,43,70,94
1,48,65,110
1,60,97,0
1,64,70,50
1,55,71,76
1,67,65,0
1,55,79,86
1,62,86,0
1,60,92,0
1,43,58,96
1,43,92,0
1,62,72,0
1,59,88,0
1,62,77,16
1,50,79,6
1,67,95,0
1,55,79,22
1,59,73,0
1,43,58,140
1,62,61,0
1,50,60,146
1,67,72,0
1,59,95,90
1,55,77,10
1,62,66,0
1,43,77,96
1,67,64,0
1,43,95,18
1,71,92,0
1,48,71,28
1,59,55,0
1,55,86,34
1,69,95,0
1,71,100,38
1,40,68,0
1,71,70,0
1,60,103,0
1,64,65,168
1,67,88,192
1,60,92,106
1,38,66,32
1,66,64,0
1,62,64,0
1,69,69,0
1,50,58,38
1,62,64,0
1,66,60,132
1,50,53,146
1,69,69,0
1,71,79,0
1,62,65,0
1,67,80,0
1,43,86,8
1,62,65,30
1,67,74,82
1,71,62,90
1,67,67,166
1,71,56,4
1,64,60,0
1,48,92,0
1,60,54,2
1,60,73,20
1,71,71,178
1,43,77,6
1,62,70,0
1,71,73,0
1,67,80,2
1,50,74,116
1,55,69,138
1,57,60,190
1,59,68,14
1,55,56,156
1,62,59,0
1,43,98,0
1,55,98,0
1,71,88,8
1,62,86,0
1,67,106,0
1,69,77,2
1,66,86,4
1,42,95,2
1,54,95,6
1,40,80,0
1,52,79,0
1,67,88,4
1,64,86,0
1,59,82,0
1,67,53,14
1,59,63,10
1,64,56,22
1,50,88,8
1,67,80,4
1,62,74,0
1,59,57,2
1,59,70,2
1,62,82,184
1,67,80,24
1,64,76,0
1,60,80,4
1,48,66,4
1,55,77,252
1,60,62,190
1,48,77,58
1,67,76,2
1,55,66,72
1,57,63,72
1,60,76,0
1,64,73,0
1,45,76,2
1,57,80,10
1,60,84,192
1,64,84,36
1,52,76,156
1,59,59,0
1,64,67,2
1,67,59,2
1,59,32,58
1,59,63,12
1,59,12,86
1,64,71,6
1,64,67,4
1,52,72,78
1,45,86,0
1,64,74,2
1,57,71,0
1,60,79,0
1,57,82,10
1,60,86,18
1,64,72,12
1,67,76,16
1,64,70,0
1,52,79,6
1,59,47,4
1,59,72,50
1,59,69,10
1,64,64,174
1,64,70,0
1,67,79,42
1,52,73,2
1,59,51,8
1,38,70,10
1,59,77,2
1,62,86,2
1,67,90,2
1,50,63,0
1,59,84,4
1,62,92,190
1,55,70,20
1,62,47,162
1,67,86,8
1,62,79,8
1,66,71,0
1,57,90,2
1,57,62,14
1,57,79,2
1,50,50,6
1,62,92,140
1,57,71,8
1,66,112,134
1,62,71,0
1,38,98,72
1,38,101,28
1,64,97,2
1,55,97,2
1,60,113,0
1,55,77,2
1,50,92,10
1,57,89,22
1,55,48,2
1,60,84,4
1,60,100,34
1,55,95,0
1,64,103,0
1,62,80,4
1,50,74,44
1,66,83,0
1,62,83,0
1,57,80,158
1,50,80,88
1,50,52,8
1,62,77,0
1,66,77,0
1,71,79,46
1,62,65,0
1,67,80,0
1,43,86,8
1,62,65,30
1,67,74,82
1,71,62,90
1,67,67,166
1,71,56,4
1,64,60,0
1,48,92,0
1,60,54,2
1,60,73,20
1,71,71,178
1,43,77,6
1,62,70,0
1,71,73,0
1,67,80,2
1,50,74,116
1,55,69,138
1,57,60,190
1,59,68,14
1,55,56,156
1,62,59,0
1,43,98,0
1,55,98,0
1,71,88,8
1,62,86,0
1,67,106,0
1,69,77,2
1,66,86,4
1,42,95,2
1,54,95,6
1,40,80,0
1,52,79,0
1,67,88,4
1,64,86,0
1,59,82,0
1,67,53,14
1,59,63,10
1,64,56,22
1,50,88,8
1,67,80,4
1,62,74,0
1,59,57,2
1,59,70,2
1,62,82,184
1,67,80,24
1,64,76,0
1,60,80,4
1,48,66,4
1,55,77,252
1,60,62,190
1,48,77,58
1,67,76,2
1,55,66,72
1,57,63,72
1,60,76,0
1,64,73,0
1,45,76,2
1,57,80,10
1,60,84,192
1,64,84,36
1,52,76,156
1,59,59,0
1,64,67,2
1,67,59,2
1,59,32,58
1,59,63,12
1,59,12,86
1,64,71,6
1,64,67,4
1,71,72,54
1,52,72,24
1,45,86,0
1,64,74,2
1,57,71,0
1,69,68,0
1,60,79,0
1,57,82,10
1,60,86,18
1,64,72,12
1,67,76,16
1,64,70,0
1,52,79,6
1,59,47,4
1,59,72,50
1,59,69,10
1,64,64,174
1,64,70,0
1,67,79,42
1,52,73,2
1,59,51,8
1,71,62,4
1,38,70,10
1,59,77,2
1,62,86,2
1,67,90,2
1,50,63,0
1,59,84,4
1,62,92,190
1,55,70,20
1,62,47,96
1,67,86,8
1,62,79,8
1,66,71,0
1,57,90,2
1,57,62,14
1,57,79,2
1,50,50,6
1,62,92,140
1,57,71,8
1,66,112,134
1,62,71,0
1,38,98,72
1,38,101,28
1,67,92,16
1,64,89,2
1,72,89,0
1,50,92,18
1,57,89,156
1,62,80,30
1,67,86,106
1,72,85,2
1,64,85,2
1,50,74,40
1,67,83,2
1,72,83,0
1,64,77,2
1,57,80,150
1,67,77,70
1,72,77,2
1,64,74,2
1,50,80,14
1,43,103,46
1,67,88,0
1,71,84,0
1,62,77,0
1,50,69,102
1,71,90,180
1,67,95,0
1,62,80,0
1,55,92,18
1,48,92,14
1,64,90,12
1,67,97,0
1,60,86,2
1,55,88,36
1,60,82,200
1,67,92,0
1,64,82,0
1,60,80,2
1,40,79,0
1,67,95,12
1,71,86,2
1,64,79,0
1,52,59,6
1,59,79,204
1,67,86,4
1,71,79,0
1,64,70,2
1,66,83,10
1,69,92,2
1,62,76,2
1,50,72,6
1,54,57,48
1,57,74,196
1,66,86,4
1,69,95,2
1,62,77,0
1,43,103,14
1,67,95,14
1,59,86,0
1,62,95,0
1,50,69,46
1,59,90,194
1,62,100,0
1,67,95,2
1,55,92,2
1,48,92,14
1,60,86,22
1,64,92,0
1,67,88,2
1,55,88,38
1,60,82,200
1,60,80,0
1,64,88,0
1,67,86,2
1,40,79,0
1,64,86,10
1,71,88,0
1,67,100,0
1,52,59,62
1,67,86,190
1,64,67,2
1,71,76,0
1,59,79,12
1,66,95,12
1,62,82,2
1,69,97,0
1,50,72,6
1,54,57,120
1,66,90,190
1,62,76,2
1,69,90,0
1,57,74,4
1,36,86,90
1,48,86,0
1,47,106,0
1,62,100,0
1,59,90,0
1,67,97,2
1,67,90,176
1,62,95,2
1,59,84,0
1,59,58,36
1,48,106,4
1,60,88,2
1,64,103,0
1,67,95,2
1,64,103,154
1,60,90,0
1,67,95,2
1,62,97,6
1,67,86,0
1,59,88,2
1,50,100,12
1,67,90,186
1,62,97,0
1,59,90,4
1,59,67,188
1,61,65,36
1,64,49,8
1,49,75,16
1,67,86,6
1,50,72,126
1,38,95,2
1,62,80,22
1,67,92,0
1,59,62,2
1,60,77,104
1,64,95,30
1,67,68,22
1,43,73,42
1,69,97,0
1,62,82,0
1,71,74,96
1,50,63,90
1,67,97,0
1,55,72,54
1,62,70,0
1,50,60,44
1,67,72,0
1,43,64,70
1,71,69,0
1,50,69,78
1,62,84,0
1,67,80,70
1,55,80,90
1,69,62,0
1,43,80,0
1,62,45,0
1,66,106,0
1,69,32,0
1,50,54,30
1,43,80,40
1,60,72,0
1,64,76,0
1,67,80,0
1,48,64,182
1,55,74,174
1,43,70,94
1,48,65,110
1,60,97,0
1,64,70,50
1,55,71,76
1,67,65,0
1,55,79,86
1,62,86,0
1,60,92,0
1,43,58,96
1,43,92,0
1,62,72,0
1,59,88,0
1,62,77,16
1,50,79,6
1,67,95,0
1,55,79,22
1,59,73,0
1,43,58,140
1,62,61,0
1,50,60,146
1,67,72,0
1,59,95,90
1,55,77,10
1,62,66,0
1,43,77,96
1,67,64,0
1,43,95,18
1,71,92,0
1,48,71,28
1,59,55,0
1,55,86,34
1,69,95,0
1,71,100,38
1,40,68,0
1,71,70,0
1,60,103,0
1,64,65,168
1,67,88,192
1,60,92,106
1,38,66,32
1,66,64,0
1,62,64,0
1,69,69,0
1,50,58,38
1,62,64,0
1,66,60,132
1,50,53,146
1,69,69,0
1,71,79,0
1,62,65,0
1,67,80,0
1,43,86,8
1,62,65,30
1,67,74,82
1,71,62,90
1,67,67,166
1,71,56,4
1,64,60,0
1,48,92,0
1,60,54,2
1,60,73,20
1,71,71,178
1,43,77,6
1,62,70,0
1,71,73,0
