track,note,velocity,time
3,44,83,4896
3,42,73,384
3,44,0,5
3,42,0,361
3,40,89,18
3,40,0,573
3,39,84,3
3,37,87,192
3,39,0,3
3,42,90,381
3,37,0,14
3,42,0,368
3,47,100,2
3,47,0,238
3,47,90,50
3,47,0,94
3,46,90,2
3,46,0,238
3,46,69,50
3,46,0,94
3,44,98,2
3,44,0,286
3,44,65,2
3,44,0,94
3,42,99,2
3,42,0,238
3,42,69,50
3,42,0,94
3,40,84,2
3,40,0,574
3,39,82,2
3,39,0,190
3,37,90,2
3,37,0,382
3,30,102,2
3,30,0,286
3,35,81,2
3,35,0,94
3,37,110,2
3,37,0,670
3,39,76,2
3,39,0,94
3,41,98,2
3,41,0,622
3,41,85,50
3,41,0,94
3,37,98,2
3,37,0,670
3,39,69,2
3,39,0,94
3,41,99,2
3,41,0,622
3,41,83,50
3,41,0,94
3,37,95,2
3,37,0,670
3,39,78,2
3,39,0,94
3,41,90,2
3,41,0,574
3,39,63,2
3,39,0,94
3,41,95,2
3,41,0,94
3,42,79,2
3,42,0,286
3,37,85,2
3,37,0,94
3,30,105,2
3,30,0,286
3,37,60,2
3,37,0,46
3,42,83,2
3,42,0,46
3,44,85,2
3,44,0,286
3,39,80,2
3,39,0,94
3,32,91,2
3,32,0,46
3,32,92,50
3,32,0,190
3,39,56,2
3,39,0,46
3,44,89,2
3,44,0,46
3,37,93,2
3,37,0,670
3,39,67,2
3,39,0,94
3,41,88,2
3,41,0,574
3,39,84,2
3,39,0,94
3,41,76,2
3,41,0,94
3,42,98,2
3,42,0,478
3,41,67,2
3,41,0,46
3,37,96,2
3,37,0,46
3,34,79,2
3,34,0,46
3,32,81,2
3,32,0,46
3,29,90,2
3,29,0,46
3,30,74,2
3,30,0,46
3,32,95,2
3,32,0,273
3,39,81,15
3,39,0,89
3,44,85,7
3,44,0,94
3,44,77,2
3,44,0,94
3,44,89,2
3,44,0,94
3,44,79,2
3,44,0,94
3,37,89,2
3,25,92,768
3,37,0,3
3,25,0,771
3,44,87,762
3,42,78,384
3,44,0,5
3,42,0,361
3,40,89,18
3,40,0,573
3,39,87,3
3,37,85,192
3,39,0,3
3,42,84,381
3,37,0,14
3,42,0,368
3,47,95,2
3,47,0,238
3,47,87,50
3,47,0,94
3,46,91,2
3,46,0,238
3,46,62,50
3,46,0,94
3,44,97,2
3,44,0,286
3,44,61,2
3,44,0,94
3,42,96,2
3,42,0,238
3,42,65,50
3,42,0,94
3,40,88,2
3,40,0,574
3,39,87,2
3,39,0,190
3,37,89,2
3,37,0,382
3,30,102,2
3,30,0,286
3,35,83,2
3,35,0,94
3,35,103,2
3,35,0,626
3,39,95,46
3,39,0,23
3,40,80,25
3,40,0,32
3,42,104,16
3,42,0,727
3,37,105,41
3,37,0,670
3,39,76,2
3,39,0,94
3,41,98,2
3,41,0,622
3,41,81,50
3,41,0,94
3,37,96,2
3,37,0,670
3,39,68,2
3,39,0,94
3,41,98,2
3,41,0,622
3,41,81,50
3,41,0,94
3,37,93,2
3,37,0,670
3,39,74,2
3,39,0,94
3,41,92,2
3,41,0,574
3,39,58,2
3,39,0,94
3,41,98,2
3,41,0,94
3,42,79,2
3,42,0,286
3,37,84,2
3,37,0,94
3,30,105,2
3,30,0,286
3,37,63,2
3,37,0,46
3,42,81,2
3,42,0,46
3,44,82,2
3,44,0,286
3,39,86,2
3,39,0,94
3,32,89,2
3,32,0,46
3,32,94,50
3,32,0,190
3,39,50,2
3,39,0,46
3,44,84,2
3,44,0,46
3,37,87,2
3,37,0,670
3,39,66,2
3,39,0,94
3,41,86,2
3,41,0,574
3,39,83,2
3,39,0,94
3,41,75,2
3,41,0,94
3,42,97,2
3,42,0,478
3,41,68,2
3,41,0,46
3,37,95,2
3,37,0,46
3,34,81,2
3,34,0,46
3,32,79,2
3,32,0,46
3,29,90,2
3,29,0,46
3,30,78,2
3,30,0,46
3,32,100,2
3,32,0,273
3,39,80,15
3,39,0,89
3,44,89,7
3,44,0,94
3,44,80,2
3,44,0,94
3,44,86,2
3,44,0,94
3,44,84,2
3,44,0,94
3,37,91,2
3,42,87,768
3,37,0,3
3,42,0,43
3,42,59,50
3,42,0,94
3,42,84,2
3,42,0,46
3,42,67,50
3,42,0,94
3,42,88,2
3,42,0,94
3,42,63,2
3,42,0,46
3,42,87,50
3,42,0,94
3,37,64,2
3,37,0,94
3,30,90,2
3,30,0,94
3,30,73,2
3,30,0,94
3,30,84,2
3,30,0,94
3,30,69,2
3,30,0,94
3,30,87,2
3,30,0,94
3,30,65,2
3,30,0,94
3,30,79,2
3,30,0,46
3,37,71,2
3,37,0,46
3,42,91,2
3,42,0,46
3,44,73,2
3,44,0,46
3,45,92,2
3,45,0,94
3,45,72,2
3,45,0,94
3,45,91,2
3,45,0,46
3,45,68,50
3,45,0,94
3,45,87,2
3,45,0,46
3,45,68,50
3,45,0,46
3,45,89,50
3,45,0,94
3,40,72,2
3,40,0,46
3,33,91,50
3,33,0,94
3,33,71,2
3,33,0,94
3,33,87,2
3,33,0,94
3,33,68,2
3,33,0,94
3,45,92,2
3,45,0,94
3,45,66,2
3,45,0,46
3,45,93,50
3,45,0,94
3,44,72,2
3,44,0,46
3,42,83,2
3,42,0,46
3,37,84,2
3,37,0,46
3,37,70,50
3,37,0,46
3,37,90,50
3,37,0,46
3,37,74,50
3,37,0,94
3,37,89,2
3,37,0,46
3,37,77,50
3,37,0,46
3,49,93,50
3,49,0,46
3,49,79,50
3,49,0,46
3,44,70,2
3,44,0,46
3,37,89,2
3,37,0,46
3,37,73,50
3,37,0,94
3,37,85,2
3,37,0,94
3,37,64,2
3,37,0,94
3,37,91,2
3,37,0,94
3,37,71,2
3,37,0,46
3,37,81,50
3,37,0,94
3,39,67,2
3,39,0,94
3,42,86,2
3,42,0,46
3,42,68,50
3,42,0,94
3,42,89,2
3,42,0,46
3,42,71,50
3,42,0,46
3,42,83,50
3,42,0,46
3,42,74,50
3,42,0,46
3,42,71,50
3,42,0,46
3,37,74,2
3,37,0,46
3,34,74,2
3,34,0,46
3,37,77,2
3,37,0,46
3,30,89,2
3,30,0,94
3,30,65,2
3,30,0,94
3,30,91,2
3,30,0,46
3,30,64,50
3,30,0,94
3,30,88,2
3,30,0,94
3,30,91,2
3,30,0,94
3,30,94,2
3,30,0,94
3,30,75,2
3,30,0,46
3,37,80,2
3,37,0,46
3,42,77,2
3,42,0,46
3,42,64,50
3,42,0,94
3,42,79,2
3,42,0,46
3,42,76,50
3,42,0,94
3,42,92,2
3,42,0,94
3,42,61,2
3,42,0,94
3,42,87,2
3,42,0,46
3,42,78,50
3,42,0,94
3,44,75,2
3,44,0,46
3,44,79,50
3,44,0,46
3,44,68,50
3,44,0,94
3,39,78,2
3,39,0,94
3,32,74,2
3,32,0,94
3,32,87,2
3,32,0,94
3,32,81,2
3,32,0,94
3,32,68,2
3,32,0,94
3,35,85,2
3,35,0,94
3,35,77,2
3,35,0,46
3,35,83,50
3,35,0,94
3,35,72,2
3,35,0,46
3,39,85,2
3,39,0,46
3,42,73,2
3,42,0,46
3,47,88,2
3,47,0,46
3,42,79,2
3,42,0,46
3,39,79,2
3,39,0,46
3,35,69,2
3,35,0,46
3,30,82,2
3,30,0,46
3,27,74,2
3,27,0,46
3,28,79,2
3,28,0,46
3,30,75,2
3,30,0,94
3,30,80,2
3,30,0,94
3,30,74,2
3,30,0,94
3,30,73,2
3,30,0,94
3,37,92,2
3,37,0,94
3,42,80,2
3,42,0,94
3,30,77,2
3,30,0,94
3,36,67,2
3,36,0,94
3,37,74,2
3,37,0,766
3,25,76,2
3,25,0,766
3,44,87,770
3,42,72,384
3,44,0,5
3,42,0,361
3,40,87,18
3,40,0,573
3,39,86,3
3,37,86,192
3,39,0,3
3,42,88,381
3,37,0,14
3,42,0,368
3,47,96,2
3,47,0,238
3,47,88,50
3,47,0,94
3,46,93,2
3,46,0,238
3,46,63,50
3,46,0,94
3,44,102,2
3,44,0,286
3,44,61,2
3,44,0,94
3,42,100,2
3,42,0,238
3,42,62,50
3,42,0,94
3,40,82,2
3,40,0,574
3,39,82,2
3,39,0,190
3,37,89,2
3,37,0,382
3,30,99,2
3,30,0,286
3,35,84,2
3,35,0,94
3,37,107,2
3,37,0,670
3,39,71,2
3,39,0,94
3,41,100,2
3,41,0,622
3,41,84,50
3,41,0,94
3,37,96,2
3,37,0,670
3,39,67,2
3,39,0,94
3,41,100,2
3,41,0,622
3,41,78,50
3,41,0,94
3,37,92,2
3,37,0,670
3,39,75,2
3,39,0,94
3,41,96,2
3,41,0,574
3,39,61,2
3,39,0,94
3,41,101,2
3,41,0,94
3,42,79,2
3,42,0,286
3,37,83,2
3,37,0,94
3,30,103,2
3,30,0,286
3,37,64,2
3,37,0,46
3,42,82,2
3,42,0,46
3,44,86,2
3,44,0,286
3,39,82,2
3,39,0,94
3,32,92,2
3,32,0,46
3,32,90,50
3,32,0,190
3,39,51,2
3,39,0,46
3,44,83,2
3,44,0,46
3,37,94,2
3,37,0,670
3,39,67,2
3,39,0,94
3,41,87,2
3,41,0,574
3,39,80,2
3,39,0,94
3,41,75,2
3,41,0,94
3,42,99,2
3,42,0,478
3,41,68,2
3,41,0,46
3,37,96,2
3,37,0,46
3,34,84,2
3,34,0,46
3,32,74,2
3,32,0,46
3,29,85,2
3,29,0,46
3,30,78,2
3,30,0,46
3,32,102,2
3,32,0,273
3,39,79,15
3,39,0,89
3,44,85,7
3,44,0,94
3,44,76,2
3,44,0,94
3,44,89,2
3,44,0,94
3,44,80,2
3,44,0,94
3,35,95,2
3,30,94,768
3,35,0,0
3,37,94,768
3,30,0,2
3,25,100,766
3,37,0,2
3,25,0,768
4,66,83,24
4,66,0,22
4,63,83,0
4,63,0,22
4,61,82,2
4,61,0,22
4,59,90,0
4,59,0,22
4,66,78,24
4,66,0,22
4,63,85,0
4,63,0,22
4,59,82,2
4,59,0,22
4,58,96,0
4,58,0,22
4,66,81,24
4,66,0,22
4,63,86,0
4,63,0,22
4,59,82,2
4,59,0,22
4,56,97,0
4,56,0,22
4,66,74,24
4,66,0,22
4,63,80,0
4,63,0,22
4,59,76,2
4,59,0,22
4,54,93,2
4,54,0,22
4,52,88,362
4,52,0,31
4,52,59,65
4,52,0,30
4,52,87,66
4,52,0,32
4,52,60,64
4,52,0,32
4,52,88,64
4,52,0,32
4,52,64,64
4,52,0,34
4,52,84,62
4,52,0,31
4,52,61,65
4,52,0,32
4,49,87,64
4,49,0,37
4,49,63,59
4,49,0,34
4,49,82,62
4,49,0,33
4,49,65,63
4,49,0,32
4,54,90,64
4,54,0,27
4,54,63,69
4,54,0,26
4,47,59,262
4,59,63,0
4,63,62,0
4,66,59,0
4,66,0,25
4,63,0,4
4,59,0,1
4,47,0,15
4,59,39,51
4,63,42,0
4,66,36,0
4,63,0,24
4,59,0,4
4,66,0,4
4,59,63,64
4,63,60,0
4,66,59,0
4,66,0,25
4,63,0,4
4,59,0,1
4,59,36,66
4,63,42,0
4,66,41,0
4,63,0,24
4,59,0,4
4,66,0,4
4,46,68,64
4,58,58,0
4,63,59,0
4,66,58,0
4,58,0,25
4,63,0,3
4,66,0,2
4,46,0,7
4,58,41,59
4,63,37,0
4,66,39,0
4,66,0,24
4,58,0,3
4,63,0,9
4,58,59,60
4,63,63,0
4,66,57,0
4,58,0,25
4,63,0,3
4,66,0,2
4,58,39,66
4,63,39,0
4,66,39,0
4,66,0,24
4,58,0,3
4,63,0,9
4,44,69,60
4,56,56,0
4,63,58,0
4,66,60,0
4,56,0,22
4,66,0,2
4,63,0,4
4,44,0,14
4,56,40,54
4,63,42,0
4,66,40,0
4,63,0,25
4,66,0,3
4,56,0,3
4,56,59,65
4,63,61,0
4,66,59,0
4,56,0,22
4,66,0,2
4,63,0,4
4,56,37,68
4,63,41,0
4,66,36,0
4,63,0,25
4,66,0,3
4,56,0,3
4,42,68,65
4,54,61,0
4,58,59,0
4,61,61,0
4,66,57,0
4,58,0,22
4,54,0,3
4,61,0,3
4,42,0,1
4,66,0,0
4,54,43,67
4,58,38,0
4,61,39,0
4,66,40,0
4,58,0,22
4,54,0,1
4,61,0,7
4,66,0,0
4,54,58,66
4,58,58,0
4,61,60,0
4,66,57,0
4,58,0,22
4,54,0,3
4,61,0,3
4,66,0,1
4,54,36,67
4,58,36,0
4,61,40,0
4,66,39,0
4,58,0,22
4,54,0,1
4,61,0,7
4,66,0,0
4,40,66,66
4,56,60,0
4,59,63,0
4,64,57,0
4,56,0,23
4,64,0,7
4,59,0,2
4,40,0,3
4,56,39,61
4,59,41,0
4,64,37,0
4,56,0,17
4,64,0,6
4,59,0,2
4,56,61,71
4,59,60,0
4,64,57,0
4,56,0,23
4,64,0,7
4,59,0,2
4,56,40,64
4,59,42,0
4,64,42,0
4,56,0,17
4,64,0,6
4,59,0,2
4,56,63,71
4,59,63,0
4,64,56,0
4,56,0,23
4,64,0,7
4,59,0,2
4,56,41,64
4,59,42,0
4,64,38,0
4,56,0,17
4,64,0,6
4,59,0,2
4,39,63,71
4,54,63,0
4,59,60,0
4,63,60,0
4,54,0,22
4,59,0,7
4,63,0,0
4,39,0,6
4,54,37,61
4,59,38,0
4,63,38,0
4,63,0,22
4,54,0,6
4,59,0,1
4,37,65,67
4,56,58,0
4,61,60,0
4,64,59,0
4,56,0,23
4,64,0,1
4,37,0,5
4,61,0,0
4,56,43,67
4,61,43,0
4,64,38,0
4,56,0,18
4,64,0,4
4,61,0,1
4,56,57,73
4,61,63,0
4,64,61,0
4,56,0,23
4,64,0,1
4,61,0,5
4,56,39,67
4,61,37,0
4,64,41,0
4,56,0,18
4,64,0,4
4,61,0,1
4,42,68,73
4,54,59,0
4,58,59,0
4,61,58,0
4,66,61,0
4,58,0,23
4,54,0,2
4,61,0,2
4,42,0,1
4,66,0,1
4,54,38,67
4,58,40,0
4,61,40,0
4,66,36,0
4,58,0,19
4,54,0,1
4,61,0,5
4,66,0,4
4,54,60,67
4,58,61,0
4,61,61,0
4,66,57,0
4,58,0,23
4,54,0,2
4,61,0,2
4,66,0,2
4,54,43,67
4,58,38,0
4,61,39,0
4,66,36,0
4,58,0,19
4,54,0,1
4,61,0,5
4,66,0,4
4,47,57,67
4,59,61,0
4,63,63,0
4,66,62,0
4,66,0,25
4,63,0,4
4,59,0,1
4,47,0,15
4,59,36,51
4,63,37,0
4,66,36,0
4,63,0,24
4,59,0,4
4,66,0,4
4,59,61,64
4,63,57,0
4,66,57,0
4,66,0,25
4,63,0,4
4,59,0,1
4,59,42,66
4,63,39,0
4,66,39,0
4,63,0,24
4,59,0,4
4,66,0,4
4,46,66,64
4,58,56,0
4,63,60,0
4,66,57,0
4,58,0,25
4,63,0,3
4,66,0,2
4,46,0,7
4,58,43,59
4,63,43,0
4,66,42,0
4,66,0,24
4,58,0,3
4,63,0,9
4,58,61,60
4,63,60,0
4,66,57,0
4,58,0,25
4,63,0,3
4,66,0,2
4,58,40,66
4,63,37,0
4,66,42,0
4,66,0,24
4,58,0,3
4,63,0,9
4,44,63,60
4,56,61,0
4,63,62,0
4,66,59,0
4,56,0,22
4,66,0,2
4,63,0,4
4,44,0,14
4,56,38,54
4,63,39,0
4,66,42,0
4,63,0,25
4,66,0,3
4,56,0,3
4,56,59,65
4,63,56,0
4,66,61,0
4,56,0,22
4,66,0,2
4,63,0,4
4,56,38,68
4,63,39,0
4,66,36,0
4,63,0,25
4,66,0,3
4,56,0,3
4,42,72,65
4,54,62,0
4,58,59,0
4,61,60,0
4,66,61,0
4,58,0,22
4,54,0,3
4,61,0,3
4,42,0,1
4,66,0,0
4,54,37,67
4,58,38,0
4,61,37,0
4,66,40,0
4,58,0,22
4,54,0,1
4,61,0,7
4,66,0,0
4,54,63,66
4,58,63,0
4,61,58,0
4,66,59,0
4,58,0,22
4,54,0,3
4,61,0,3
4,66,0,1
4,54,43,67
4,58,42,0
4,61,40,0
4,66,39,0
