track,note,velocity,time
0,52,127,980
0,64,127,8
0,67,126,0
0,60,93,0
0,55,126,0
0,48,82,1
0,36,113,0
0,64,77,0
0,72,127,1
0,67,89,1
0,72,98,0
0,60,127,0
0,64,127,4
0,52,110,4
0,55,111,6
0,60,75,5
0,60,110,4
0,64,110,1
0,64,80,23
0,74,84,2
0,67,83,1
0,52,127,6
0,55,127,2
0,60,77,3
0,60,126,8
0,64,126,4
0,64,74,13
0,76,68,4
0,52,95,3
0,55,95,4
0,60,89,5
0,60,94,2
0,64,94,3
0,64,111,3
0,60,110,3
0,74,85,2
0,68,114,1
0,55,111,3
0,52,111,0
0,52,126,4
0,56,127,3
0,40,112,1
0,68,127,0
0,52,74,2
0,71,126,2
0,59,126,0
0,64,126,2
0,68,105,11
0,71,96,3
0,52,111,4
0,56,111,3
0,64,79,2
0,59,110,8
0,64,110,3
0,52,127,3
0,56,127,5
0,68,125,2
0,72,98,2
0,59,126,5
0,64,126,2
0,64,75,69
0,52,95,3
0,56,94,6
0,74,90,1
0,68,106,2
0,59,95,3
0,64,95,6
0,64,110,3
0,59,111,8
0,56,110,8
0,52,110,2
0,53,127,6
0,57,127,4
0,41,117,2
0,65,127,0
0,69,97,0
0,69,126,1
0,53,101,0
0,72,98,0
0,65,88,1
0,72,126,2
0,60,126,1
0,65,126,5
0,53,111,2
0,57,111,4
0,65,77,6
0,53,51,1
0,72,94,0
0,69,80,1
0,60,110,0
0,65,110,4
0,69,91,9
0,65,80,1
0,74,89,0
0,53,127,5
0,57,126,2
0,53,81,7
0,60,127,4
0,65,127,1
0,69,88,32
0,76,97,0
0,65,80,1
0,53,94,2
0,53,90,5
0,57,95,0
0,60,94,5
0,65,94,5
0,65,111,1
0,60,111,3
0,65,91,1
0,76,93,0
0,69,94,1
0,57,110,3
0,53,110,3
0,50,127,5
0,55,127,3
0,31,117,1
0,69,127,0
0,71,127,0
0,74,126,1
0,55,88,1
0,65,126,2
0,62,126,3
0,67,126,2
0,67,111,4
0,62,110,7
0,74,91,1
0,69,89,2
0,65,84,1
0,55,111,2
0,50,111,6
0,50,110,6
0,55,111,5
0,55,90,1
0,62,110,4
0,67,110,5
0,65,87,44
0,69,90,0
0,72,95,2
0,50,127,3
0,71,127,7
0,55,127,0
0,55,89,1
0,62,126,3
0,67,126,5
0,50,95,1
0,55,95,5
0,55,102,1
0,71,105,1
0,65,104,1
0,62,94,4
0,67,94,5
0,67,111,4
0,62,110,1
0,55,111,7
0,50,111,5
0,52,126,4
0,72,127,4
0,48,92,0
0,55,127,0
0,24,118,1
0,64,91,0
0,67,126,1
0,67,101,0
0,72,100,0
0,64,126,1
0,60,126,2
0,64,126,3
0,52,111,4
0,55,111,6
0,60,80,6
0,60,110,4
0,64,110,0
0,64,91,23
0,67,99,1
0,74,90,0
0,52,127,1
0,55,127,7
0,60,72,4
0,60,126,1
0,64,126,6
0,67,95,19
0,76,100,1
0,72,97,1
0,52,95,3
0,55,94,6
0,60,91,2
0,60,95,4
0,64,95,5
0,64,110,5
0,60,111,5
0,68,116,2
0,74,97,2
0,55,110,5
0,52,110,1
0,52,127,4
0,56,127,6
0,40,113,1
0,71,127,2
0,68,126,1
0,52,84,0
0,59,126,2
0,64,126,2
0,68,118,17
0,72,103,0
0,52,111,8
0,56,111,2
0,64,93,3
0,59,110,4
0,64,110,6
0,52,127,5
0,56,126,4
0,68,118,4
0,74,90,0
0,59,127,4
0,64,127,3
0,76,99,1
0,68,85,2
0,52,94,0
0,68,126,5
0,56,95,0
0,74,96,1
0,64,83,2
0,59,94,4
0,64,94,5
0,64,111,5
0,59,111,2
0,56,110,9
0,52,110,2
0,53,127,1
0,57,127,3
0,53,92,4
0,69,101,0
0,69,127,1
0,72,127,1
0,72,103,0
0,41,112,2
0,65,126,0
0,60,126,4
0,65,126,0
0,53,111,4
0,57,110,7
0,65,100,4
0,60,111,3
0,65,111,3
0,69,99,19
0,74,96,0
0,53,126,2
0,57,127,1
0,65,84,0
0,60,126,3
0,65,126,8
0,72,115,109
0,69,109,1
0,76,114,0
0,53,95,0
0,57,95,7
0,65,84,5
0,60,94,2
0,65,94,1
0,65,111,7
0,60,111,1
0,41,112,8
0,57,110,0
0,53,110,8
0,50,127,4
0,55,126,3
0,62,85,2
0,31,113,2
0,71,89,0
0,74,90,0
0,67,127,1
0,71,126,0
0,74,126,1
0,55,82,0
0,59,127,2
0,67,127,2
0,67,110,2
0,59,111,4
0,67,95,7
0,55,110,2
0,50,110,0
0,50,111,6
0,71,86,5
0,55,111,0
0,59,110,7
0,67,110,1
0,74,69,69
0,50,127,8
0,55,127,4
0,67,99,2
0,79,102,1
0,59,126,5
0,67,126,2
0,67,95,1
0,59,94,5
0,55,95,6
0,50,95,4
0,50,110,6
0,55,111,2
0,62,59,3
0,55,30,1
0,59,110,5
0,67,110,3
0,50,127,2
0,55,127,5
0,62,58,4
0,59,126,1
0,67,126,3
0,67,111,5
0,59,111,4
0,67,84,4
0,77,97,0
0,74,85,1
0,71,84,2
0,55,110,0
0,50,110,8
0,50,111,3
0,55,110,8
0,62,64,4
0,59,111,0
0,67,111,0
0,71,89,12
0,76,97,0
0,67,100,2
0,50,126,7
0,55,127,2
0,62,62,6
0,59,126,1
0,67,126,7
0,67,95,0
0,59,95,4
0,74,97,4
0,67,112,3
0,71,103,0
0,55,94,2
0,50,94,6
0,50,111,7
0,55,111,2
0,62,89,3
0,59,110,8
0,67,110,4
0,67,95,5
0,59,94,1
0,55,95,8
0,50,95,6
0,52,126,1
0,55,127,6
0,67,106,1
0,48,85,1
0,36,115,0
0,54,95,0
0,64,94,0
0,72,106,1
0,60,97,1
0,60,126,4
0,64,126,1
0,54,64,3
0,52,111,4
0,54,63,7
0,55,111,0
0,60,105,0
0,60,110,2
0,64,110,4
0,72,104,0
0,54,67,1
0,52,127,7
0,55,127,4
0,54,94,1
0,60,95,1
0,60,126,6
0,64,126,5
0,72,105,0
0,64,68,1
0,54,65,1
0,52,95,3
0,55,94,4
0,54,62,2
0,67,72,0
0,60,95,6
0,64,95,4
0,64,110,2
0,60,111,4
0,71,75,1
0,54,66,1
0,74,101,0
0,71,105,0
0,68,114,1
0,64,88,1
0,55,110,2
0,52,110,1
0,52,127,5
0,56,127,3
0,40,112,2
0,54,95,2
0,59,75,0
0,52,38,1
0,59,126,3
0,64,126,1
0,68,22,0
0,54,67,3
0,52,111,4
0,56,111,2
0,52,55,3
0,54,54,2
0,59,57,0
0,59,110,3
0,64,110,6
0,71,94,19
0,68,104,0
0,54,56,0
0,68,115,0
0,64,94,0
0,52,127,1
0,56,126,4
0,69,105,0
0,52,58,0
0,59,69,0
0,54,95,1
0,59,127,4
0,64,127,4
0,64,105,13
0,69,104,0
0,54,65,0
0,71,96,0
0,68,118,2
0,74,103,0
0,52,94,3
0,56,95,3
0,54,62,1
0,69,104,0
0,59,94,1
0,64,94,1
0,64,111,3
0,59,111,3
0,54,66,7
0,56,110,4
0,52,110,1
0,53,127,7
0,57,127,2
0,41,114,3
0,69,103,0
0,72,104,0
0,54,95,2
0,60,100,0
0,65,97,0
0,53,86,1
0,60,126,2
0,65,126,6
0,54,64,6
0,53,111,3
0,57,110,4
0,53,69,1
0,54,63,2
0,60,69,1
0,60,111,2
0,65,111,3
0,69,106,92
0,72,109,0
0,69,105,0
0,65,100,1
0,54,67,1
0,53,126,0
0,57,127,4
0,72,105,0
0,54,94,0
0,60,126,2
0,65,126,8
0,65,106,19
0,72,104,0
0,74,103,1
0,54,65,1
0,69,109,0
0,53,95,1
0,57,95,2
0,60,68,1
0,53,66,1
0,54,62,1
0,60,94,4
0,65,94,3
0,65,111,5
0,60,111,1
0,54,66,4
0,71,109,0
0,71,104,0
0,67,107,2
0,57,110,0
0,53,110,1
0,50,127,5
0,55,126,3
0,55,74,1
0,62,88,1
0,31,115,3
0,54,95,0
0,59,127,4
0,67,127,1
0,67,110,2
0,59,111,5
0,71,105,0
0,54,67,1
0,55,110,2
0,50,110,7
0,50,111,2
0,55,111,7
0,54,54,1
0,55,79,3
0,62,82,1
0,59,110,0
0,67,110,6
0,31,119,15
0,54,56,0
0,65,105,0
0,71,105,0
0,69,109,2
0,50,127,2
0,55,127,1
0,55,76,4
0,54,95,1
0,41,110,1
0,62,71,0
0,59,126,3
0,67,126,1
0,54,65,18
0,67,104,1
0,72,104,0
0,40,79,2
0,71,108,0
0,40,74,1
0,39,73,4
0,38,74,1
0,37,79,4
0,50,95,4
0,55,94,3
0,72,104,0
0,40,98,0
0,62,73,0
0,54,62,1
0,55,73,0
0,59,95,1
0,67,95,2
0,36,75,5
0,35,72,1
0,34,75,2
0,33,74,9
0,32,76,1
0,67,110,1
0,59,111,7
0,40,117,1
0,54,66,0
0,55,110,3
0,50,110,6
0,31,71,1
0,30,73,2
0,29,72,4
0,28,74,4
0,27,73,8
0,52,127,0
0,55,127,4
0,35,127,2
0,48,82,1
0,67,106,0
0,36,117,1
0,49,85,0
0,64,97,0
0,60,89,1
0,54,95,1
0,72,108,0
0,60,126,2
0,64,126,4
0,54,64,33
0,52,111,2
0,55,111,2
0,54,63,1
0,60,78,2
0,46,93,2
0,60,110,2
0,64,110,5
0,67,113,19
0,67,105,0
0,64,92,1
0,54,67,1
0,52,127,3
0,55,126,3
0,46,98,3
0,54,94,1
0,72,104,0
0,40,127,0
0,60,30,2
0,60,127,1
0,64,127,5
0,72,105,0
0,54,65,1
0,52,94,6
0,55,95,2
0,46,89,5
0,54,62,0
0,60,97,0
0,60,94,3
0,64,94,5
0,64,111,0
0,60,111,7
0,40,74,1
0,71,105,0
0,54,66,1
0,67,93,1
0,55,110,1
0,52,110,7
0,52,127,7
0,56,127,3
0,68,102,2
0,28,118,1
0,35,126,0
0,52,79,0
0,54,95,1
0,46,101,1
0,76,86,1
0,59,126,1
0,64,126,5
0,68,112,17
0,74,85,1
0,71,104,0
0,54,67,0
0,52,111,3
0,56,110,5
0,46,86,4
0,35,127,1
0,54,54,0
0,28,114,1
0,64,27,0
0,59,111,0
0,64,111,7
0,68,123,18
0,54,56,1
0,71,105,0
0,74,92,2
0,52,126,2
0,56,127,5
0,64,80,2
0,40,127,4
0,46,105,0
0,54,95,0
0,59,126,0
0,64,126,5
0,71,104,0
0,54,65,1
0,52,95,6
0,56,95,2
0,46,94,4
0,54,62,0
0,71,104,0
0,64,77,1
0,59,94,5
0,64,94,2
0,64,111,2
0,59,111,6
0,54,66,1
0,40,74,1
0,69,105,0
0,68,123,2
0,74,96,0
0,56,110,0
0,52,110,5
0,53,127,4
0,57,126,3
0,72,102,5
0,35,127,1
0,60,99,0
0,69,98,0
0,29,119,1
0,46,92,0
0,54,95,0
0,65,91,0
0,53,89,1
0,60,127,3
0,65,127,1
0,54,64,7
0,53,110,7
0,57,111,2
0,54,63,2
0,53,64,1
0,46,89,2
0,60,77,0
0,60,110,1
0,65,110,5
0,65,105,0
0,54,67,2
0,53,127,5
0,57,127,4
0,40,126,2
0,72,112,0
0,54,94,1
0,72,104,0
0,65,104,0
0,46,97,2
0,60,126,3
0,65,126,5
0,72,104,0
0,65,109,1
0,72,123,0
0,54,65,1
0,53,95,1
0,57,95,6
0,46,98,1
0,54,62,3
0,60,108,1
0,60,94,0
0,65,94,6
0,65,111,6
0,40,75,5
0,54,66,0
0,60,110,0
0,71,105,0
0,55,94,2
0,62,99,0
0,57,111,1
0,53,111,2
0,50,126,1
0,55,127,5
0,35,126,4
0,31,116,1
0,46,100,2
0,54,95,0
0,59,126,4
0,67,126,1
0,67,111,8
0,59,111,3
0,71,105,0
0,74,97,1
0,54,67,1
0,67,96,0
0,55,110,1
0,50,110,3
0,50,111,3
0,55,111,3
0,31,115,2
0,46,95,0
0,35,127,2
0,54,54,2
0,59,110,2
0,67,110,6
0,54,56,19
0,71,104,0
0,74,104,1
0,69,109,1
0,50,127,0
0,55,126,7
0,54,95,4
0,40,127,1
0,46,97,0
0,59,127,3
0,67,127,5
0,67,106,19
0,74,99,0
0,72,104,0
0,54,65,0
0,50,94,4
0,55,95,0
0,54,62,1
0,46,98,1
0,72,105,0
0,59,94,4
0,67,94,6
0,67,111,0
0,40,74,8
0,59,111,0
0,54,66,3
0,55,110,3
0,50,110,3
0,52,127,4
0,55,127,5
0,36,119,3
0,35,126,1
0,54,95,1
0,48,95,0
0,60,96,0
0,67,103,0
0,72,102,0
0,49,84,1
0,64,98,0
0,60,126,1
0,64,126,5
0,54,64,89
0,52,111,6
0,55,110,4
0,46,92,1
0,54,63,1
0,72,104,0
0,60,111,5
0,64,111,2
0,72,105,0
0,54,67,0
0,52,126,6
0,55,127,2
0,60,93,5
0,46,99,1
0,40,126,1
0,54,94,0
0,60,126,2
0,64,126,3
0,54,65,18
0,67,85,1
0,72,105,0
0,52,95,7
0,55,95,2
0,46,88,2
0,54,62,0
0,72,74,2
0,60,94,5
0,64,94,2
0,64,111,0
0,60,111,5
0,40,75,5
0,68,122,0
0,54,66,1
0,74,85,0
0,55,110,1
0,52,110,8
0,52,127,8
0,28,114,4
0,46,101,0
0,56,126,0
0,71,104,0
0,52,73,0
0,35,126,1
0,54,95,1
0,64,78,0
0,59,127,1
0,64,127,6
0,68,96,15
0,71,93,1
0,54,67,1
0,52,110,1
0,56,111,1
0,46,87,5
0,28,115,0
0,71,105,0
0,35,127,1
0,54,54,0
0,64,58,1
0,59,110,1
0,64,110,4
0,54,56,14
0,68,127,0
0,71,104,0
0,74,101,0
0,52,127,4
0,56,127,6
0,46,104,3
0,64,72,1
0,40,127,1
0,54,95,0
0,59,126,3
0,64,126,1
0,54,65,18
0,71,104,0
0,52,95,6
0,68,127,6
0,56,95,0
0,71,105,0
0,54,62,0
0,46,95,1
0,64,84,0
0,72,106,1
0,59,94,0
0,64,94,5
0,64,111,4
0,59,110,5
0,54,66,1
0,69,105,0
0,71,97,0
0,40,74,2
0,56,111,2
0,52,111,6
0,53,126,2
0,57,127,6
0,29,110,2
0,65,97,0
0,46,92,1
0,54,95,0
0,53,82,0
0,35,127,1
0,72,96,0
0,69,101,1
0,60,126,1
0,65,126,7
0,54,64,102
0,53,111,1
0,57,111,7
0,46,88,1
0,54,63,0
0,60,110,6
0,65,110,2
0,72,104,0
0,54,67,2
0,53,127,6
0,57,127,2
0,54,94,4
0,60,105,1
0,72,104,0
0,40,126,0
0,46,97,1
0,60,126,1
0,65,126,5
0,54,65,18
0,65,68,1
0,72,105,0
0,53,95,7
0,57,94,4
0,46,99,1
0,54,62,0
0,69,82,3
0,60,95,1
0,65,95,4
0,65,110,0
0,60,111,1
0,40,75,3
0,71,105,0
0,54,66,2
0,67,117,0
0,71,112,0
0,57,110,1
0,53,110,5
0,50,127,8
0,55,127,1
0,54,95,1
0,55,89,0
0,46,100,3
0,31,114,1
0,35,126,0
0,59,126,1
0,67,126,7
0,67,111,3
0,59,111,3
0,54,67,3
0,71,104,0
0,67,91,0
0,55,110,6
0,50,110,4
0,50,111,3
0,55,110,5
0,31,111,1
0,54,54,1
0,35,126,3
0,46,94,0
0,59,111,2
0,67,111,5
0,54,56,18
0,71,98,0
0,71,104,0
0,77,107,0
0,67,94,1
0,50,126,5
0,62,90,0
0,55,127,0
0,40,126,1
0,46,97,2
0,54,95,0
0,59,126,1
0,67,126,5
0,54,65,19
0,31,113,0
0,72,105,0
0,67,97,2
0,71,101,0
0,74,100,0
0,50,95,7
0,55,95,3
0,72,104,0
0,31,118,1
0,46,99,0
0,54,62,0
0,59,94,2
0,67,94,3
0,67,111,1
0,59,111,5
0,33,118,2
0,54,66,1
0,40,75,3
0,55,110,1
0,50,110,7
0,52,127,5
0,55,126,2
0,49,85,4
0,54,95,0
0,48,68,1
0,72,95,0
0,60,65,1
0,64,88,0
0,36,119,1
0,35,127,0
0,67,98,1
0,60,127,1
0,64,127,3
0,54,64,65
0,52,110,8
0,55,111,2
0,46,92,4
0,54,63,2
0,60,110,2
0,64,110,6
