track,note,velocity,time
0,66,83,24
0,66,0,22
0,63,83,0
0,63,0,22
0,61,82,2
0,61,0,22
0,59,69,2
0,63,74,0
0,66,74,0
0,59,90,0
0,59,0,22
0,59,0,15
0,63,0,4
0,66,0,0
0,59,44,48
0,63,43,0
0,66,52,0
0,59,0,28
0,66,0,5
0,63,0,6
0,59,65,48
0,63,63,0
0,66,78,0
0,59,0,34
0,66,0,1
0,63,0,3
0,59,37,48
0,63,34,0
0,66,48,0
0,66,78,24
0,59,0,4
0,66,0,8
0,63,0,4
0,66,0,6
0,63,85,0
0,63,0,22
0,59,82,2
0,59,0,22
0,58,56,2
0,63,76,0
0,66,77,0
0,58,96,0
0,58,0,22
0,58,0,3
0,66,0,2
0,63,0,2
0,58,53,41
0,63,38,0
0,66,42,0
0,66,0,37
0,58,0,1
0,63,0,9
0,58,77,48
0,63,65,0
0,66,81,0
0,66,0,36
0,58,0,2
0,63,0,2
0,58,55,2
0,63,54,0
0,66,52,0
0,66,81,24
0,63,0,16
0,66,0,2
0,66,0,4
0,63,86,0
0,58,0,6
0,63,0,16
0,59,82,2
0,59,0,22
0,56,54,1
0,63,52,0
0,66,54,0
0,56,74,1
0,63,61,0
0,66,81,0
0,56,97,0
0,56,0,22
0,66,0,5
0,56,0,1
0,63,0,4
0,63,0,2
0,56,0,3
0,66,0,2
0,56,55,31
0,63,52,0
0,66,53,0
0,56,0,42
0,66,0,0
0,63,0,3
0,56,85,48
0,63,87,0
0,66,82,0
0,63,0,3
0,66,0,0
0,56,0,1
0,56,46,44
0,63,51,0
0,66,50,0
0,66,74,24
0,56,0,9
0,63,0,3
0,66,0,6
0,66,0,4
0,63,80,0
0,63,0,22
0,59,76,2
0,59,0,22
0,54,60,2
0,54,35,0
0,58,59,0
0,58,79,0
0,61,62,0
0,61,75,0
0,66,59,0
0,66,70,0
0,54,93,0
0,54,0,10
0,54,0,22
0,61,0,12
0,58,0,1
0,66,0,4
0,58,0,4
0,61,0,3
0,54,0,2
0,66,0,6
0,54,43,9
0,58,43,0
0,61,42,0
0,66,48,0
0,54,0,31
0,58,0,15
0,66,0,1
0,61,0,1
0,54,78,46
0,58,81,0
0,61,81,0
0,66,79,0
0,58,0,41
0,61,0,1
0,54,0,4
0,66,0,1
0,54,45,48
0,58,47,0
0,61,43,0
0,66,42,0
0,58,0,20
0,54,0,11
0,66,0,6
0,61,0,7
0,28,89,41
0,40,85,0
0,56,53,0
0,56,81,0
0,59,76,0
0,59,80,0
0,64,74,0
0,64,79,0
0,52,88,0
0,52,0,7
0,56,0,10
0,64,0,10
0,59,0,1
0,56,0,19
0,59,0,1
0,64,0,1
0,52,59,21
0,56,50,0
0,59,45,0
0,64,51,0
0,52,0,30
0,56,0,4
0,64,0,2
0,59,0,6
0,52,87,54
0,56,84,0
0,59,86,0
0,64,86,0
0,52,0,32
0,56,0,4
0,59,0,19
0,64,0,0
0,52,60,41
0,56,47,0
0,59,47,0
0,64,42,0
0,52,0,32
0,56,0,2
0,64,0,8
0,59,0,4
0,52,88,50
0,56,56,0
0,59,81,0
0,64,87,0
0,52,0,32
0,56,0,13
0,59,0,5
0,64,0,1
0,52,64,45
0,56,51,0
0,59,44,0
0,64,44,0
0,40,0,24
0,56,0,4
0,52,0,6
0,59,0,12
0,28,0,7
0,64,0,7
0,27,85,1
0,39,84,0
0,52,84,0
0,54,84,0
0,59,88,0
0,63,88,0
0,52,0,31
0,54,0,14
0,59,0,8
0,63,0,1
0,52,61,41
0,54,46,0
0,59,47,0
0,63,51,0
0,27,0,23
0,39,0,0
0,52,0,9
0,54,0,19
0,63,0,3
0,59,0,11
0,25,73,31
0,37,84,0
0,49,87,0
0,56,65,0
0,56,89,0
0,61,66,0
0,61,85,0
0,64,77,0
0,64,88,0
0,49,0,13
0,56,0,8
0,64,0,10
0,61,0,8
0,64,0,1
0,56,0,5
0,61,0,9
0,49,63,18
0,56,53,0
0,61,52,0
0,64,52,0
0,56,0,33
0,61,0,0
0,49,0,1
0,64,0,0
0,49,82,62
0,56,84,0
0,61,87,0
0,64,84,0
0,49,0,33
0,61,0,6
0,64,0,0
0,56,0,5
0,25,0,35
0,37,0,0
0,49,65,17
0,56,42,0
0,61,45,0
0,64,43,0
0,49,0,32
0,64,0,0
0,56,0,2
0,61,0,5
0,54,79,56
0,66,82,0
0,30,89,1
0,42,81,0
0,54,56,0
0,54,90,0
0,58,76,0
0,58,78,0
0,61,79,0
0,61,63,0
0,66,79,0
0,54,0,3
0,54,0,19
0,58,0,0
0,61,0,0
0,66,0,0
0,54,0,9
0,58,0,2
0,61,0,4
0,66,0,4
0,54,42,31
0,54,63,0
0,58,43,0
0,61,48,0
0,66,46,0
0,54,0,26
0,42,0,18
0,54,0,2
0,58,0,0
0,61,0,0
0,66,0,0
0,30,0,6
0,30,76,44
0,42,98,0
0,54,57,0
0,58,79,0
0,61,64,0
0,66,81,0
0,42,0,21
0,30,0,2
0,54,0,23
0,58,0,0
0,61,0,0
0,66,0,0
0,32,70,2
0,44,85,0
0,32,0,28
0,44,0,6
0,34,101,14
0,46,100,0
0,46,0,73
0,34,0,1
0,47,73,13
0,47,59,0
0,59,59,0
0,59,70,0
0,59,63,0
0,63,64,0
0,63,70,0
0,63,62,0
0,66,60,0
0,66,74,0
0,66,59,0
0,66,0,25
0,63,0,4
0,59,0,1
0,59,0,7
0,63,0,4
0,66,0,0
0,47,0,4
0,47,0,46
0,59,51,2
0,59,39,0
0,63,50,0
0,63,42,0
0,66,51,0
0,66,36,0
0,66,0,8
0,59,0,6
0,63,0,8
0,63,0,2
0,59,0,4
0,59,0,0
0,66,0,4
0,66,0,1
0,63,0,6
0,51,74,9
0,51,0,22
0,54,83,26
0,59,64,0
0,59,63,0
0,63,64,0
0,63,60,0
0,66,78,0
0,66,59,0
0,66,0,25
0,63,0,4
0,59,0,1
0,59,0,4
0,66,0,1
0,63,0,3
0,51,75,10
0,54,0,15
0,59,47,33
0,59,36,0
0,63,45,0
0,63,42,0
0,66,47,0
0,66,41,0
0,51,0,1
0,63,0,23
0,59,0,4
0,59,0,0
0,66,0,4
0,66,0,4
0,63,0,4
0,54,85,8
0,46,77,4
0,46,68,0
0,58,60,0
0,58,54,0
0,58,58,0
0,63,61,0
0,63,73,0
0,63,59,0
0,66,60,0
0,66,79,0
0,66,58,0
0,54,0,9
0,58,0,1
0,63,0,3
0,66,0,2
0,46,0,7
0,51,79,11
0,58,0,3
0,66,0,2
0,63,0,2
0,46,0,35
0,66,0,0
0,58,43,2
0,58,41,0
0,63,45,0
0,63,37,0
0,66,43,0
0,66,39,0
0,63,0,4
0,58,0,1
0,51,0,12
0,66,0,7
0,58,0,3
0,63,0,9
0,66,0,1
0,58,0,1
0,63,0,9
0,54,82,49
0,58,80,0
0,58,59,0
0,63,69,0
0,63,63,0
0,66,75,0
0,66,57,0
0,58,0,25
0,63,0,3
0,66,0,2
0,66,0,6
0,58,0,2
0,63,0,2
0,54,0,49
0,51,76,7
0,58,49,0
0,58,39,0
0,63,46,0
0,63,39,0
0,66,46,0
0,66,39,0
0,66,0,24
0,58,0,3
0,63,0,9
0,51,0,4
0,63,0,0
0,66,0,2
0,58,79,6
0,58,0,6
0,36,103,1
0,42,85,0
0,44,83,0
0,44,75,0
0,44,69,0
0,54,68,0
0,56,61,0
0,56,76,0
0,56,56,0
0,57,51,0
0,63,64,0
0,63,59,0
0,63,58,0
0,66,64,0
0,66,79,0
0,66,60,0
0,36,0,4
0,42,0,0
0,54,0,0
0,57,0,0
0,58,0,11
0,56,0,7
0,66,0,0
0,63,0,4
0,44,0,14
0,54,37,6
0,56,87,0
0,54,0,4
0,56,0,2
0,63,0,2
0,66,0,7
0,66,0,5
0,63,0,6
0,56,0,9
0,44,0,9
0,42,44,2
0,54,44,0
0,56,50,0
0,56,40,0
0,63,47,0
0,63,42,0
0,66,51,0
0,66,40,0
0,42,0,4
0,54,0,0
0,63,0,21
0,66,0,3
0,56,0,3
0,56,0,11
0,66,0,0
0,63,0,3
0,54,37,3
0,54,0,4
0,40,118,44
0,42,95,0
0,54,60,0
0,56,86,0
0,56,59,0
0,63,87,0
0,63,61,0
0,66,83,0
0,66,59,0
0,40,0,4
0,42,0,0
0,54,0,0
0,56,0,18
0,66,0,2
0,63,0,4
0,54,34,20
0,63,0,3
0,66,0,0
0,54,0,1
0,56,0,0
0,42,47,44
0,54,49,0
0,56,46,0
0,56,37,0
0,63,50,0
0,63,41,0
0,66,52,0
0,66,36,0
0,42,0,4
0,54,0,0
0,63,0,21
0,66,0,3
0,56,0,3
0,56,0,2
0,63,0,3
0,66,0,6
0,54,27,6
0,54,0,4
0,42,73,3
0,42,72,0
0,54,58,0
0,54,31,0
0,58,64,0
0,58,80,0
0,61,59,0
0,61,77,0
0,66,63,0
0,66,68,0
0,36,114,0
0,42,68,0
0,42,90,0
0,54,61,0
0,54,70,0
0,58,59,0
0,61,61,0
0,66,57,0
0,36,0,4
0,42,0,0
0,54,0,0
0,44,0,1
0,58,0,17
0,54,0,1
0,61,0,3
0,42,0,1
0,66,0,0
0,54,0,17
0,54,37,0
0,54,0,4
0,61,0,6
0,58,0,1
0,66,0,4
0,58,0,7
0,54,0,3
0,66,0,4
0,61,0,4
0,42,0,11
0,54,43,2
0,58,46,0
0,61,43,0
0,66,47,0
0,36,63,0
0,42,60,0
0,54,43,0
0,54,50,0
0,58,38,0
0,61,39,0
0,66,40,0
0,36,0,4
0,42,0,0
0,54,0,0
0,58,0,18
0,54,0,1
0,61,0,7
0,66,0,0
0,54,0,1
0,56,0,8
0,58,0,7
0,54,28,0
0,66,0,1
0,61,0,1
0,54,0,2
0,54,84,44
0,58,79,0
0,61,80,0
0,66,80,0
0,40,103,0
0,42,88,0
0,54,58,0
0,54,78,0
0,58,58,0
0,61,60,0
0,66,57,0
0,40,0,4
0,42,0,0
0,54,0,0
0,58,0,18
0,54,0,3
0,61,0,3
0,66,0,1
0,58,0,12
0,61,0,1
0,54,0,4
0,66,0,1
0,54,29,0
0,54,0,4
0,54,46,44
0,58,50,0
0,61,50,0
0,66,48,0
0,42,46,0
0,54,36,0
0,54,49,0
0,58,36,0
0,61,40,0
0,66,39,0
0,42,0,4
0,54,0,0
0,58,0,16
0,58,0,2
0,54,0,1
0,61,0,7
0,66,0,0
0,54,0,1
0,66,0,6
0,54,35,0
0,54,0,4
0,61,0,3
0,42,0,23
0,40,89,4
0,40,86,0
0,56,62,0
0,56,82,0
0,59,63,0
0,59,85,0
0,64,65,0
0,64,81,0
0,36,123,0
0,40,66,0
0,42,90,0
0,54,75,0
0,56,60,0
0,59,81,0
0,59,63,0
0,64,57,0
0,36,0,4
0,42,0,0
0,54,0,0
0,56,0,19
0,64,0,6
0,59,0,2
0,59,0,2
0,40,0,1
0,56,0,6
0,54,39,7
0,59,84,0
0,64,0,3
0,54,0,1
0,59,0,0
0,56,0,10
0,59,0,4
0,64,0,1
0,42,53,23
0,54,44,0
0,56,50,0
0,56,39,0
0,59,48,0
0,59,41,0
0,64,44,0
0,64,37,0
0,42,0,4
0,54,0,0
0,59,0,1
0,56,0,12
0,64,0,6
0,59,0,2
0,56,0,9
0,64,0,2
0,59,0,6
0,54,37,6
0,59,87,0
0,54,0,4
0,40,99,44
0,42,90,0
0,54,58,0
0,56,85,0
0,56,61,0
0,59,87,0
0,59,60,0
0,64,81,0
0,64,57,0
0,40,0,4
0,42,0,0
0,54,0,0
0,56,0,19
0,59,0,6
0,64,0,1
0,59,0,2
0,56,0,4
0,54,32,12
0,58,87,0
0,54,0,4
0,59,0,3
0,64,0,0
0,42,41,41
0,54,47,0
0,56,47,0
0,56,40,0
0,59,44,0
0,59,42,0
0,64,49,0
0,64,42,0
0,42,0,4
0,54,0,0
0,56,0,13
0,58,0,2
0,64,0,4
0,59,0,2
0,56,0,9
0,64,0,8
0,59,0,4
0,36,52,2
0,52,83,0
0,54,34,0
0,36,0,4
0,54,0,0
0,36,107,44
0,42,96,0
0,54,65,0
0,56,54,0
0,56,63,0
0,59,76,0
0,59,63,0
0,64,80,0
0,64,56,0
0,36,0,4
0,42,0,0
0,54,0,0
0,56,0,19
0,64,0,7
0,59,0,2
0,56,0,13
0,40,92,3
0,54,35,0
0,59,0,2
0,64,0,1
0,40,0,1
0,54,0,0
0,36,80,44
0,46,46,0
0,54,46,0
0,56,49,0
0,56,41,0
0,59,47,0
0,59,42,0
0,64,44,0
0,64,38,0
0,36,0,4
0,46,0,0
0,54,0,0
0,56,0,13
0,64,0,6
0,40,0,1
0,59,0,1
0,56,0,3
0,52,0,1
0,59,0,17
0,54,31,2
0,54,0,4
0,64,0,8
0,40,0,33
0,39,84,1
0,39,81,0
0,39,63,0
0,40,112,0
0,42,93,0
0,54,85,0
0,54,63,0
0,54,74,0
0,59,84,0
0,59,60,0
0,63,79,0
0,63,60,0
0,40,0,4
0,42,0,0
0,54,0,0
0,54,0,18
0,59,0,7
0,63,0,0
0,39,0,3
0,54,0,11
0,54,32,2
0,54,0,4
0,59,0,2
0,63,0,1
0,42,37,41
0,54,52,0
0,54,37,0
0,54,51,0
0,59,47,0
0,59,38,0
0,63,53,0
0,63,38,0
0,42,0,4
0,54,0,0
0,63,0,18
0,39,0,1
0,54,0,5
0,59,0,1
0,52,78,19
0,54,33,0
0,54,0,3
0,54,0,1
0,63,0,2
0,59,0,11
0,52,0,9
0,36,124,22
0,37,87,0
0,37,80,0
0,37,65,0
0,42,90,0
0,54,86,0
0,54,70,0
0,56,63,0
0,56,85,0
0,56,58,0
0,61,60,0
0,61,86,0
0,61,60,0
0,64,60,0
0,64,84,0
0,64,59,0
0,39,0,3
0,36,0,1
0,42,0,0
0,54,0,0
0,56,0,19
0,64,0,0
0,37,0,5
0,61,0,0
0,54,0,11
0,56,0,5
0,54,73,3
0,54,32,0
0,54,0,4
0,64,0,3
0,61,0,4
0,64,0,13
0,61,0,6
0,56,0,3
0,42,49,11
0,54,47,0
0,56,50,0
0,56,43,0
0,61,48,0
0,61,43,0
0,64,50,0
0,64,38,0
0,42,0,4
0,54,0,0
0,54,0,8
0,56,0,6
0,64,0,4
0,61,0,1
0,56,0,10
0,61,0,0
0,64,0,1
0,54,88,14
0,54,34,0
0,54,0,4
0,40,105,44
0,42,93,0
0,54,58,0
0,56,79,0
0,56,57,0
0,61,86,0
0,61,63,0
0,64,84,0
0,64,61,0
0,40,0,4
0,42,0,0
0,54,0,0
0,54,0,7
0,56,0,12
0,64,0,1
0,61,0,5
0,61,0,10
0,64,0,0
0,56,0,5
0,54,34,4
0,56,91,0
0,54,0,4
0,37,0,27
0,42,40,17
0,54,49,0
0,56,49,0
0,56,39,0
0,61,54,0
0,61,37,0
0,64,50,0
0,64,41,0
0,42,0,4
0,54,0,0
0,56,0,4
0,56,0,10
0,64,0,4
0,61,0,1
0,64,0,9
0,56,0,2
0,61,0,5
0,36,67,9
0,54,31,0
0,56,83,0
0,36,0,4
0,54,0,0
0,36,95,8
0,42,90,0
0,42,82,0
0,42,68,0
0,42,89,0
0,54,58,0
0,54,56,0
0,54,59,0
0,54,67,0
0,58,58,0
0,58,84,0
0,58,59,0
0,61,59,0
0,61,69,0
0,61,58,0
0,66,63,0
0,66,81,0
0,66,61,0
0,36,0,4
0,42,0,0
0,54,0,0
0,37,0,10
0,56,0,5
0,58,0,4
0,54,0,1
0,61,0,2
0,42,0,1
0,66,0,1
0,54,0,17
0,58,0,0
0,61,0,0
0,66,0,0
0,40,86,2
0,54,37,0
0,58,88,0
0,40,0,4
0,54,0,0
0,36,86,39
0,46,65,0
0,54,50,0
0,54,38,0
0,54,49,0
0,58,48,0
0,58,40,0
0,61,48,0
0,61,40,0
0,66,49,0
0,66,36,0
0,36,0,4
0,46,0,0
0,54,0,0
0,66,0,4
0,58,0,1
0,54,0,4
0,61,0,0
0,58,0,6
0,58,0,0
0,54,0,1
0,61,0,5
0,66,0,4
