track,note,velocity,time
1,39,127,8
1,43,127,0
1,39,127,20
1,46,127,22
1,39,127,22
1,48,127,10
1,46,127,140
1,39,127,20
1,39,127,62
1,43,127,10
1,39,127,2
1,46,127,16
1,39,127,0
1,48,127,48
1,46,127,140
1,34,127,0
1,34,127,80
1,38,127,32
1,34,127,204
1,41,127,68
1,34,127,22
1,43,127,60
1,41,127,206
1,34,127,48
1,34,127,96
1,38,127,38
1,34,127,0
1,41,127,58
1,34,127,10
1,43,127,28
1,39,127,40
1,43,127,20
1,39,127,38
1,46,127,10
1,39,127,20
1,48,127,28
1,46,127,204
1,39,127,10
1,39,127,60
1,43,127,8
1,39,127,30
1,46,127,20
1,39,127,14
1,48,127,176
1,46,127,184
1,41,127,42
1,41,127,68
1,45,127,20
1,41,127,30
1,48,127,38
1,41,127,18
1,50,127,40
1,48,127,192
1,41,127,314
1,39,127,36
1,38,127,238
1,36,127,218
1,34,127,198
1,34,127,86
1,38,127,48
1,34,127,0
1,41,127,60
1,34,127,48
1,43,127,56
1,41,127,206
1,34,127,48
1,34,127,100
1,38,127,40
1,34,127,28
1,41,127,58
1,34,127,40
1,43,127,42
1,41,127,0
1,34,127,48
1,34,127,100
1,38,127,38
1,34,127,20
1,41,127,66
1,34,127,30
1,43,127,52
1,41,127,204
1,34,127,58
1,34,127,96
1,38,127,30
1,34,127,0
1,41,127,42
1,34,127,10
1,43,127,38
1,41,127,204
1,41,127,66
1,41,127,88
1,45,127,42
1,41,127,10
1,48,127,48
1,41,127,28
1,50,127,60
1,48,127,216
1,41,127,58
1,41,127,96
1,45,127,28
1,41,127,12
1,48,127,32
1,41,127,0
1,50,127,56
1,48,127,206
1,34,127,58
1,34,127,90
1,38,127,22
1,34,127,8
1,41,127,48
1,34,127,28
1,43,127,48
1,41,127,10
1,34,127,42
1,34,127,100
1,38,127,38
1,34,127,206
1,41,127,38
1,34,127,50
1,43,127,50
1,41,127,216
1,34,127,58
1,34,127,116
1,38,127,48
1,34,127,20
1,41,127,60
1,34,127,48
1,43,127,58
1,41,127,204
1,34,127,58
1,34,127,90
1,38,127,38
1,34,127,0
1,41,127,38
1,34,127,8
1,43,127,32
1,41,127,214
1,34,127,48
1,34,127,58
1,38,127,28
1,34,127,0
1,41,127,32
1,34,127,18
1,43,127,20
1,41,127,196
1,34,127,30
1,34,127,88
1,38,127,32
1,34,127,204
1,41,127,38
1,34,127,10
1,43,127,10
1,41,127,208
1,41,127,70
1,41,127,62
1,45,127,38
1,41,127,10
1,48,127,38
1,41,127,18
1,50,127,18
1,48,127,196
1,41,127,38
1,41,127,66
1,45,127,30
1,41,127,208
1,48,127,28
1,41,127,196
1,50,127,30
1,48,127,204
1,34,127,18
1,34,127,80
1,38,127,28
1,34,127,10
1,41,127,38
1,34,127,10
1,43,127,32
1,41,127,206
1,34,127,38
1,34,127,96
1,38,127,38
1,34,127,0
1,41,127,52
1,34,127,20
1,43,127,30
1,39,127,32
1,43,127,556
1,39,127,28
1,46,127,10
1,39,127,10
1,48,127,0
1,46,127,208
1,39,127,30
1,39,127,90
1,43,127,28
1,39,127,28
1,46,127,58
1,39,127,0
1,48,127,50
1,46,127,196
1,34,127,86
1,34,127,86
1,38,127,38
1,34,127,0
1,41,127,48
1,34,127,10
1,43,127,38
1,41,127,218
1,34,127,52
1,34,127,90
1,38,127,30
1,34,127,0
1,41,127,40
1,34,127,18
1,43,127,50
1,39,127,8
1,43,127,32
1,39,127,42
1,46,127,28
1,39,127,28
1,48,127,40
1,46,127,224
1,39,127,30
1,39,127,80
1,43,127,20
1,39,127,28
1,46,127,48
1,39,127,0
1,48,127,32
1,46,127,214
1,41,127,10
1,41,127,76
1,45,127,28
1,42,127,10
1,41,127,126
1,48,127,52
1,41,127,20
1,50,127,48
1,48,127,190
1,41,127,296
1,39,127,30
1,38,127,228
1,36,127,238
1,34,127,224
1,34,127,86
1,38,127,48
1,34,127,0
1,41,127,60
1,34,127,48
1,43,127,56
1,41,127,206
1,34,127,48
1,34,127,100
1,38,127,40
1,34,127,28
1,41,127,58
1,34,127,40
1,43,127,42
1,41,127,0
1,34,127,48
1,34,127,100
1,38,127,38
1,34,127,20
1,41,127,66
1,34,127,30
1,43,127,52
1,41,127,204
1,34,127,58
1,34,127,96
1,38,127,30
1,34,127,0
1,41,127,42
1,34,127,10
1,43,127,38
1,41,127,204
1,41,127,66
1,41,127,88
1,45,127,42
1,41,127,10
1,48,127,48
1,41,127,28
1,50,127,60
1,48,127,216
1,41,127,58
1,41,127,96
1,45,127,28
1,41,127,12
1,48,127,32
1,41,127,0
1,50,127,56
1,48,127,206
1,34,127,58
1,34,127,90
1,38,127,22
1,34,127,8
1,41,127,48
1,34,127,28
1,43,127,48
1,41,127,10
1,34,127,42
1,34,127,100
1,38,127,38
1,34,127,206
1,41,127,38
1,34,127,50
1,43,127,50
1,41,127,216
1,34,127,58
1,34,127,116
1,38,127,48
1,34,127,20
1,41,127,60
1,34,127,48
1,43,127,58
1,41,127,204
1,34,127,58
1,34,127,90
1,38,127,38
1,34,127,0
1,41,127,38
1,34,127,8
1,43,127,32
1,41,127,214
1,34,127,48
1,34,127,58
1,38,127,28
1,34,127,0
1,41,127,32
1,34,127,18
1,43,127,20
1,41,127,196
1,34,127,30
1,34,127,88
1,38,127,32
1,34,127,204
1,41,127,38
1,34,127,10
1,43,127,10
1,41,127,208
1,41,127,70
1,41,127,62
1,45,127,38
1,41,127,10
1,48,127,38
1,41,127,18
1,50,127,18
1,48,127,196
1,41,127,38
1,41,127,66
1,45,127,30
1,41,127,208
1,48,127,28
1,41,127,196
1,50,127,30
1,48,127,204
1,34,127,18
1,34,127,80
1,38,127,28
1,34,127,10
1,41,127,38
1,34,127,10
1,43,127,32
1,41,127,206
1,34,127,38
1,34,127,96
1,38,127,38
1,34,127,0
1,41,127,52
1,34,127,20
1,43,127,30
1,39,127,32
1,43,127,556
1,39,127,28
1,46,127,10
1,39,127,10
1,48,127,0
1,46,127,208
1,39,127,30
1,39,127,90
1,43,127,28
1,39,127,28
1,46,127,58
1,39,127,0
1,48,127,50
1,46,127,196
1,34,127,86
1,34,127,86
1,38,127,38
1,34,127,0
1,41,127,48
1,34,127,10
1,43,127,38
1,41,127,218
1,34,127,52
1,34,127,90
1,38,127,30
1,34,127,0
1,41,127,40
1,34,127,18
1,43,127,50
1,39,127,8
1,43,127,32
1,39,127,42
1,46,127,28
1,39,127,28
1,48,127,40
1,46,127,224
1,39,127,30
1,39,127,80
1,43,127,20
1,39,127,28
1,46,127,48
1,39,127,0
1,48,127,32
1,46,127,214
1,41,127,10
1,41,127,76
1,45,127,28
1,42,127,10
1,41,127,126
1,48,127,52
1,41,127,20
1,50,127,48
1,48,127,190
1,41,127,296
1,39,127,30
1,38,127,228
1,36,127,238
1,34,127,224
1,34,127,86
1,38,127,48
1,34,127,0
1,41,127,60
1,34,127,48
1,43,127,56
1,41,127,206
1,34,127,48
1,34,127,100
1,38,127,40
1,34,127,28
1,41,127,58
1,34,127,40
1,43,127,42
1,41,127,0
1,34,127,48
1,34,127,100
1,38,127,38
1,34,127,20
1,41,127,66
1,34,127,30
1,43,127,52
1,41,127,204
1,34,127,58
1,34,127,96
1,38,127,30
1,34,127,0
1,41,127,42
1,34,127,10
1,43,127,38
1,41,127,204
1,41,127,66
1,41,127,88
1,45,127,42
1,41,127,10
1,48,127,48
1,41,127,28
1,50,127,60
1,48,127,216
1,41,127,58
1,41,127,96
1,45,127,28
1,41,127,12
1,48,127,32
1,41,127,0
1,50,127,56
1,48,127,206
1,34,127,58
1,34,127,90
1,38,127,22
1,34,127,8
1,41,127,48
1,34,127,28
1,43,127,48
1,41,127,10
1,34,127,42
1,34,127,100
1,38,127,38
1,34,127,206
1,41,127,38
1,34,127,50
1,43,127,50
1,41,127,216
1,34,127,58
1,34,127,116
1,38,127,48
1,34,127,20
1,41,127,60
1,34,127,48
1,43,127,58
1,41,127,204
1,34,127,58
1,34,127,90
1,38,127,38
1,34,127,0
1,41,127,38
1,34,127,8
1,43,127,32
1,41,127,214
1,34,127,48
1,34,127,58
1,38,127,28
1,34,127,0
1,41,127,32
1,34,127,18
1,43,127,20
1,41,127,196
1,34,127,30
1,34,127,88
1,38,127,32
1,34,127,204
1,41,127,38
1,34,127,10
1,43,127,10
1,41,127,208
1,41,127,70
1,41,127,62
1,45,127,38
1,41,127,10
1,48,127,38
1,41,127,18
1,50,127,18
1,48,127,196
1,41,127,38
1,41,127,66
1,45,127,30
1,41,127,208
1,48,127,28
1,41,127,196
1,50,127,30
1,48,127,204
1,34,127,18
1,34,127,80
1,38,127,28
1,34,127,10
1,41,127,38
1,34,127,10
1,43,127,32
1,41,127,206
1,34,127,38
1,34,127,96
1,38,127,38
1,34,127,0
1,41,127,52
1,34,127,20
1,43,127,30
1,39,127,32
1,43,127,556
1,39,127,28
1,46,127,10
1,39,127,10
1,48,127,0
1,46,127,208
1,39,127,30
1,39,127,90
1,43,127,28
1,39,127,28
1,46,127,58
1,39,127,0
1,48,127,50
1,46,127,196
1,34,127,86
1,34,127,86
1,38,127,38
1,34,127,0
1,41,127,48
1,34,127,10
1,43,127,38
1,41,127,218
1,34,127,52
1,34,127,90
1,38,127,30
1,34,127,0
1,41,127,40
1,34,127,18
1,43,127,50
1,39,127,8
1,43,127,32
1,39,127,42
1,46,127,28
1,39,127,28
1,48,127,40
1,46,127,224
1,39,127,30
1,39,127,80
1,43,127,20
1,39,127,28
1,46,127,48
1,39,127,0
1,48,127,32
1,46,127,214
1,41,127,10
1,41,127,76
1,45,127,28
1,42,127,10
1,41,127,126
1,48,127,52
1,41,127,20
1,50,127,48
1,48,127,190
1,41,127,296
1,39,127,30
1,38,127,228
1,36,127,238
1,34,127,224
1,34,127,86
1,38,127,48
1,34,127,0
1,41,127,60
1,34,127,48
1,43,127,56
1,41,127,206
1,34,127,48
1,34,127,100
1,38,127,40
1,34,127,28
1,41,127,58
1,34,127,40
1,43,127,42
1,41,127,0
1,34,127,48
1,34,127,100
1,38,127,38
1,34,127,20
1,41,127,66
1,34,127,30
1,43,127,52
1,41,127,204
1,34,127,58
1,34,127,96
1,38,127,30
1,34,127,0
1,41,127,42
1,34,127,10
1,43,127,38
1,41,127,204
1,41,127,66
1,41,127,88
1,45,127,42
1,41,127,10
1,48,127,48
1,41,127,28
1,50,127,60
1,48,127,216
1,41,127,58
1,41,127,96
1,45,127,28
1,41,127,12
1,48,127,32
1,41,127,0
1,50,127,56
1,48,127,206
1,34,127,58
1,34,127,90
1,38,127,22
1,34,127,8
1,41,127,48
1,34,127,28
1,43,127,48
1,41,127,10
1,34,127,42
1,34,127,96
1,38,127,38
1,34,127,10
1,41,127,68
1,38,127,38
1,39,127,154
1,40,127,66
1,41,127,40
1,41,127,72
1,45,127,42
1,41,127,10
1,48,127,48
1,41,127,28
1,50,127,60
1,48,127,216
1,41,127,58
1,41,127,96
1,45,127,28
1,41,127,12
1,48,127,32
1,41,127,0
1,50,127,56
1,48,127,206
1,34,127,58
1,34,127,90
1,38,127,22
1,34,127,8
1,41,127,48
1,34,127,28
1,43,127,48
1,41,127,10
1,34,127,426
1,34,127,196
2,63,127,18
2,66,127,0
2,70,127,0
2,67,127,0
2,58,127,0
2,72,127,38
2,63,127,0
2,66,127,10
2,70,127,0
2,67,127,0
2,63,127,20
2,60,127,118
2,58,127,16
2,70,127,48
2,66,127,0
2,63,127,0
2,67,127,0
2,58,127,10
2,72,127,58
2,63,127,18
2,70,127,2
2,66,127,10
2,67,127,0
2,63,127,68
2,60,127,30
2,58,127,150
2,73,127,18
2,77,127,0
2,74,127,0
2,70,127,0
2,79,127,108
2,75,127,0
2,77,127,100
2,73,127,8
2,74,127,0
2,70,127,80
2,65,127,10
2,63,127,208
2,65,127,60
2,61,127,0
2,62,127,10
2,58,127,8
2,55,127,186
2,53,127,10
2,65,127,0
2,58,127,10
2,55,127,214
2,53,127,108
2,63,127,66
2,51,127,0
2,65,127,0
2,72,127,0
2,63,127,0
2,68,127,0
2,70,127,80
2,66,127,0
2,67,127,18
2,58,127,10
2,72,127,30
2,63,127,10
2,70,127,70
2,66,127,0
2,70,127,18
2,67,127,58
2,63,127,90
2,58,127,20
2,72,127,58
2,63,127,10
2,70,127,58
2,66,127,0
2,67,127,124
2,63,127,0
2,67,127,18
2,72,127,206
2,68,127,0
2,69,127,20
2,65,127,0
2,60,127,10
2,74,127,38
2,70,127,0
2,68,127,100
2,72,127,0
2,69,127,10
2,65,127,18
2,62,127,176
2,60,127,174
2,77,127,336
2,65,127,0
2,63,127,58
2,75,127,0
2,74,127,200
2,62,127,0
2,72,127,190
2,60,127,0
2,62,127,218
2,70,127,10
2,62,127,60
2,70,127,58
2,62,127,80
2,70,127,48
2,62,127,80
2,62,127,42
2,70,127,52
2,62,127,8
2,63,127,246
2,72,127,10
2,73,127,156
2,64,127,10
2,65,127,146
2,74,127,0
2,73,127,148
2,64,127,8
2,63,127,128
2,72,127,0
2,70,127,38
2,62,127,10
2,58,127,20
2,70,127,78
2,62,127,0
2,70,127,108
2,62,127,10
2,58,127,10
2,82,127,166
2,74,127,0
2,70,127,280
2,82,127,138
2,74,127,0
2,70,127,20
2,84,127,138
2,75,127,0
2,85,127,146
2,76,127,10
2,77,127,96
2,86,127,0
2,85,127,156
2,76,127,0
2,75,127,18
2,84,127,0
2,82,127,90
2,74,127,10
2,74,127,80
2,82,127,60
2,69,127,38
2,65,127,10
2,82,127,28
2,74,127,0
2,82,127,76
2,74,127,0
2,65,127,38
2,81,127,138
2,72,127,0
2,65,127,276
2,81,127,96
2,72,127,0
2,80,127,156
2,71,127,0
2,79,127,70
2,70,127,0
2,65,127,0
2,77,127,98
2,69,127,0
2,65,127,20
2,76,127,58
2,68,127,0
2,67,127,168
2,75,127,0
2,65,127,18
2,67,127,156
2,70,127,156
2,77,127,144
2,73,127,0
2,74,127,10
2,79,127,90
2,75,127,10
2,77,127,18
2,73,127,72
2,74,127,124
2,70,127,60
2,65,127,8
2,63,127,176
2,65,127,70
2,61,127,0
2,65,127,72
2,62,127,28
2,58,127,0
2,53,127,58
2,67,127,78
2,63,127,0
2,65,127,68
2,61,127,12
2,62,127,0
2,58,127,30
2,55,127,176
2,53,127,108
2,77,127,78
2,70,127,50
2,74,127,48
2,79,127,156
2,70,127,10
2,77,127,70
2,73,127,10
2,74,127,0
2,70,127,28
2,67,127,0
2,82,127,128
2,77,127,206
2,70,127,40
2,65,127,48
2,79,127,98
2,75,127,0
2,73,127,66
2,77,127,0
2,74,127,0
2,70,127,22
2,67,127,10
2,65,127,28
2,82,127,214
2,76,127,10
2,77,127,48
2,82,127,90
2,77,127,0
2,77,127,80
2,82,127,18
2,82,127,118
2,77,127,0
2,82,127,110
2,77,127,0
2,82,127,80
2,94,127,186
2,88,127,0
2,94,127,106
2,89,127,12
2,94,127,108
2,89,127,0
2,87,127,118
2,91,127,10
2,85,127,100
2,89,127,10
2,86,127,28
2,82,127,18
2,79,127,18
2,80,127,42
2,84,127,0
2,84,127,8
2,81,127,96
2,77,127,40
2,72,127,8
2,86,127,30
2,82,127,0
2,84,127,106
2,80,127,0
2,81,127,228
2,77,127,78
2,72,127,38
2,70,127,186
2,72,127,48
2,68,127,0
2,69,127,38
2,65,127,148
2,60,127,24
2,74,127,38
2,70,127,0
2,72,127,70
2,68,127,0
2,69,127,0
2,65,127,196
2,67,127,156
2,70,127,10
2,77,127,166
2,73,127,0
2,74,127,0
2,79,127,90
2,75,127,0
2,77,127,58
2,73,127,0
2,74,127,0
2,70,127,0
2,65,127,50
2,63,127,196
2,65,127,58
2,61,127,8
2,62,127,0
2,58,127,48
2,55,127,146
2,65,127,20
2,58,127,8
2,65,127,96
2,58,127,0
2,53,127,40
2,51,127,78
2,72,127,52
2,63,127,0
2,68,127,0
2,58,127,20
2,70,127,86
2,63,127,0
2,66,127,0
2,67,127,48
