track,note,velocity,time
3,61,127,0
3,61,0,16
3,63,118,0
3,63,0,4
3,63,127,0
3,63,0,18
3,63,127,0
3,63,0,2
3,66,127,0
3,66,0,24
3,63,127,0
3,63,0,52
3,61,94,13
3,61,0,53
3,58,89,0
3,58,0,35
3,61,122,0
3,61,0,14
3,58,127,0
3,58,0,8
3,56,127,0
3,56,0,10
3,54,108,0
3,54,0,4
3,56,127,0
3,56,0,4
3,54,118,0
3,54,0,26
3,61,127,0
3,61,0,32
3,63,120,0
3,63,0,18
3,63,127,0
3,63,0,6
3,63,126,0
3,63,0,16
3,66,127,0
3,66,0,32
3,63,127,0
3,63,0,16
3,61,102,1
3,61,0,39
3,58,100,29
3,58,0,41
3,63,127,0
3,63,0,10
3,61,127,0
3,61,0,37
3,56,127,0
3,56,0,18
3,56,127,0
3,56,0,8
3,54,90,0
3,54,0,19
3,56,127,0
3,56,0,12
3,54,113,0
3,54,0,10
3,61,127,0
3,61,0,22
3,63,81,0
3,63,0,17
3,63,127,0
3,63,0,4
3,63,124,0
3,63,0,12
3,66,127,0
3,66,0,14
3,63,127,0
3,63,0,20
3,61,108,31
3,61,0,51
3,58,98,0
3,58,0,23
3,61,127,0
3,61,0,29
3,56,127,0
3,56,0,12
3,56,124,0
3,56,0,26
3,54,95,0
3,54,0,25
3,56,127,0
3,56,0,8
3,54,112,0
3,54,0,44
3,68,127,0
3,68,0,4
3,68,117,0
3,68,0,101
3,68,120,0
3,68,0,10
3,68,126,0
3,68,0,2
3,66,119,0
3,66,0,2
3,63,127,0
3,63,0,2
3,63,127,7
3,63,0,10
3,61,96,3
3,61,0,20
3,58,118,23
3,58,0,26
3,61,127,11
3,61,0,20
3,63,126,0
3,63,0,10
3,58,122,0
3,61,127,0
3,58,0,25
3,61,0,8
3,58,127,0
3,58,0,20
3,56,127,0
3,56,0,22
3,54,102,0
3,54,0,8
3,56,127,0
3,56,0,8
3,54,119,0
3,54,0,2
3,58,127,0
3,58,0,33
3,58,127,0
3,58,0,8
3,58,119,0
3,58,0,16
3,65,127,0
3,65,0,6
3,65,127,0
3,65,0,12
3,63,109,0
3,63,0,35
3,65,124,0
3,65,0,8
3,58,127,0
3,58,0,53
3,65,127,0
3,65,0,4
3,65,127,0
3,65,0,4
3,63,122,0
3,63,0,2
3,63,122,0
3,63,0,10
3,61,127,0
3,61,0,6
3,63,127,0
3,63,0,16
3,66,127,0
3,66,0,2
3,63,127,0
3,63,0,12
3,61,123,31
3,61,0,6
3,58,112,0
3,58,0,8
3,56,116,19
3,54,127,1
3,56,0,1
3,54,0,6
3,56,123,0
3,56,0,32
3,66,120,0
3,66,0,2
3,66,126,0
3,66,0,10
3,63,127,0
3,63,0,6
3,57,127,0
3,57,0,4
3,56,127,0
3,56,0,12
3,54,86,0
3,54,0,20
3,56,127,0
3,56,0,65
3,63,127,15
3,63,0,20
3,61,108,31
3,61,0,51
3,58,98,0
3,58,0,23
3,61,126,0
3,61,0,4
3,63,126,0
3,63,0,18
3,63,127,0
3,63,0,18
3,63,126,0
3,63,0,50
3,66,127,0
3,66,0,10
3,63,127,0
3,63,0,52
3,61,94,13
3,61,0,53
3,58,89,0
3,58,0,35
3,61,122,0
3,61,0,14
3,58,127,0
3,58,0,8
3,56,127,0
3,56,0,10
3,54,108,0
3,54,0,4
3,56,127,0
3,56,0,4
3,54,118,0
3,54,0,26
3,61,127,0
3,61,0,32
3,63,120,0
3,63,0,18
3,63,127,0
3,63,0,6
3,63,126,0
3,63,0,16
3,66,127,0
3,66,0,32
3,63,127,0
3,63,0,16
3,61,102,1
3,61,0,39
3,58,100,29
3,58,0,41
3,63,127,0
3,63,0,10
3,61,127,0
3,61,0,37
3,56,127,0
3,56,0,18
3,56,127,0
3,56,0,8
3,54,90,0
3,54,0,19
3,56,127,0
3,56,0,12
3,54,113,0
3,54,0,10
3,68,127,0
3,68,0,26
3,66,127,0
3,66,0,79
3,68,127,0
3,68,127,0
3,68,0,12
3,66,127,0
3,68,0,15
3,66,0,2
3,61,127,0
3,61,0,4
3,63,121,29
3,63,0,16
3,61,116,39
3,61,0,57
3,58,95,61
3,58,0,17
3,63,121,0
3,63,0,14
3,61,127,0
3,61,0,29
3,56,127,0
3,56,0,12
3,56,124,0
3,56,0,26
3,54,95,0
3,54,0,25
3,56,127,0
3,56,0,8
3,54,112,0
3,54,0,44
3,68,127,0
3,68,0,4
3,68,117,0
3,68,0,101
3,68,120,0
3,68,0,10
3,68,126,0
3,68,0,2
3,66,119,0
3,66,0,2
3,63,127,0
3,63,0,2
3,63,127,7
3,63,0,10
3,61,96,3
3,61,0,20
3,58,118,23
3,58,0,26
3,61,127,11
3,61,0,20
3,63,126,0
3,63,0,10
3,61,127,0
3,61,0,33
3,58,127,71
3,58,0,20
3,56,127,0
3,56,0,22
3,54,102,0
3,54,0,8
3,56,127,0
3,56,0,8
3,54,119,0
3,54,0,2
3,58,127,0
3,58,0,33
3,58,127,0
3,58,0,8
3,58,119,0
3,58,0,16
3,65,127,0
3,65,0,6
3,65,127,0
3,65,0,12
3,63,109,9
3,63,0,35
3,65,124,0
3,65,0,8
3,58,127,0
3,58,0,53
3,65,127,0
3,65,0,4
3,65,127,0
3,65,0,4
3,63,122,0
3,63,0,2
3,63,122,0
3,63,0,10
3,61,127,0
3,61,0,6
3,63,127,0
3,63,0,16
3,66,127,0
3,66,0,2
3,63,127,0
3,63,0,12
3,61,123,31
3,61,0,6
3,58,112,0
3,58,0,8
3,56,116,19
3,54,127,1
3,56,0,1
3,54,0,6
3,56,123,0
3,56,0,32
3,66,120,0
3,66,0,2
3,66,126,0
3,66,0,10
3,63,127,0
3,63,0,6
3,57,127,0
3,57,0,4
3,56,127,0
3,56,0,12
3,54,86,0
3,54,0,20
3,56,127,0
3,56,0,65
3,63,127,27
3,63,0,20
3,61,108,31
3,61,0,51
3,58,98,0
3,58,0,23
3,63,127,15
3,63,0,32
3,61,108,31
3,61,0,51
3,58,98,0
3,58,0,23
3,61,126,0
3,61,0,4
3,63,126,0
3,63,0,18
3,63,127,0
3,63,0,18
3,63,126,0
3,63,0,50
3,66,127,0
3,66,0,22
3,63,127,0
3,63,0,52
3,61,94,13
3,61,0,53
3,58,89,0
3,58,0,35
3,61,122,0
3,61,0,14
3,58,127,0
3,58,0,20
3,56,127,0
3,56,0,10
3,54,108,0
3,54,0,4
3,56,127,0
3,56,0,4
3,54,118,0
3,54,0,26
3,61,127,0
3,61,0,48
3,63,120,0
3,63,0,26
3,63,127,0
3,63,0,6
3,63,126,0
3,63,0,16
3,66,127,0
3,66,0,32
3,63,127,0
3,63,0,16
3,61,102,1
3,61,0,39
3,58,100,29
3,58,0,41
3,63,127,0
3,63,0,24
3,58,122,0
3,58,0,4
3,61,127,0
3,61,0,37
3,56,127,0
3,56,0,30
3,56,127,0
3,56,0,8
3,54,90,0
3,54,0,19
3,56,127,0
3,56,0,12
3,54,113,0
3,54,0,10
3,68,127,0
3,68,0,26
3,66,127,0
3,66,0,79
3,68,127,0
3,66,127,0
3,68,0,12
3,66,0,23
3,66,127,0
3,61,127,17
3,66,0,15
3,61,0,1
3,63,121,0
3,63,0,16
3,61,116,39
3,61,0,57
3,58,95,61
3,58,0,17
3,63,121,0
3,63,0,14
3,61,127,0
3,61,0,29
3,56,127,0
3,56,0,12
3,56,124,0
3,56,0,26
3,54,95,0
3,54,0,25
3,56,127,0
3,56,0,24
3,54,112,0
3,54,0,44
3,68,127,0
3,68,0,4
3,68,117,0
3,68,0,101
3,68,120,0
3,68,0,22
3,68,126,0
3,68,0,2
3,66,119,0
3,66,0,2
3,63,127,0
3,63,0,2
3,63,127,7
3,63,0,10
3,61,96,3
3,61,0,28
3,58,118,23
3,58,0,32
3,61,127,11
3,61,0,20
3,63,126,0
3,63,0,10
3,58,127,0
3,61,127,0
3,61,0,33
3,58,0,7
3,58,127,0
3,58,0,20
3,56,127,0
3,56,0,22
3,54,102,0
3,54,0,8
3,56,127,0
3,56,0,12
3,54,119,0
3,54,0,2
3,58,127,0
3,58,0,33
3,58,127,0
3,58,0,8
3,58,119,0
3,58,0,16
3,65,127,0
3,65,0,6
3,65,127,0
3,65,0,28
3,63,109,9
3,63,0,35
3,65,124,0
3,65,0,8
3,58,127,0
3,58,0,53
3,65,127,0
3,65,0,4
3,65,127,0
3,65,0,4
3,63,122,0
3,63,0,2
3,63,122,0
3,63,0,10
3,61,127,0
3,61,0,6
3,63,127,0
3,63,0,30
3,66,127,0
3,66,0,2
3,63,127,0
3,63,0,28
3,61,123,31
3,61,0,6
3,58,112,0
3,58,0,8
3,56,116,19
3,54,127,1
3,56,0,1
3,54,0,6
3,56,123,0
3,56,0,32
3,66,120,0
3,66,0,2
3,66,126,0
3,66,0,10
3,63,127,0
3,63,0,12
3,57,127,0
3,57,0,16
3,56,127,0
3,56,0,12
3,54,86,0
3,54,0,20
3,56,127,0
3,56,0,65
3,63,127,27
3,63,0,32
3,61,108,31
3,61,0,51
3,58,98,23
3,58,0,23
3,61,126,9
3,61,0,4
3,63,126,29
3,63,0,18
3,63,127,29
3,63,0,18
3,63,126,67
3,63,0,50
3,63,127,27
3,63,0,20
3,61,108,31
3,61,0,51
3,58,98,23
3,58,0,23
3,61,126,9
3,61,0,4
3,63,126,15
3,63,0,18
3,63,127,29
3,63,0,18
3,63,126,67
3,63,0,50
3,63,127,27
3,63,0,20
3,61,108,31
3,61,0,51
3,58,98,23
3,58,0,23
3,61,126,9
3,61,0,4
3,63,126,15
3,63,0,18
3,63,127,29
3,63,0,18
3,63,126,67
3,63,0,50
4,44,103,8175
4,46,120,64
4,44,0,13
4,46,0,28
4,49,127,151
4,49,0,53
4,51,126,139
4,51,0,63
4,27,125,129
4,39,102,128
4,27,0,29
4,39,0,12
4,51,121,23
4,51,0,43
4,39,116,85
4,39,0,37
4,49,118,27
4,49,0,99
4,51,104,29
4,51,0,31
4,27,116,33
4,27,0,45
4,54,127,147
4,49,117,0
4,49,0,47
4,54,0,4
4,39,95,141
4,39,0,15
4,54,127,113
4,49,107,0
4,39,106,192
4,49,0,3
4,39,0,24
4,54,0,18
4,49,112,19
4,49,0,41
4,27,121,151
4,27,0,153
4,51,127,39
4,51,0,45
4,39,98,83
4,39,0,27
4,49,126,37
4,49,0,65
4,51,122,63
4,51,0,33
4,39,107,31
4,39,0,19
4,54,124,365
4,49,106,0
4,49,0,17
4,54,0,22
4,56,121,153
4,51,118,0
4,51,0,77
4,56,0,58
4,54,114,57
4,49,110,0
4,49,0,35
4,54,0,6
4,54,127,87
4,49,112,0
4,49,0,25
4,54,0,18
4,27,110,21
4,27,0,89
4,39,96,39
4,39,0,31
4,51,125,33
4,51,0,41
4,39,84,87
4,39,0,19
4,49,126,45
4,49,0,59
4,51,127,69
4,51,0,45
4,51,121,211
4,54,123,0
4,54,0,13
4,51,0,20
4,54,125,287
4,49,118,0
4,49,0,23
4,54,0,10
4,39,103,159
4,39,0,45
4,54,121,19
4,49,119,0
4,49,0,67
4,54,0,10
4,27,116,115
4,27,0,91
4,66,125,101
4,61,118,0
4,66,0,29
4,61,0,4
4,39,99,159
4,39,0,35
4,27,113,157
4,27,0,69
4,39,91,59
4,39,0,19
4,66,127,45
4,61,118,0
4,61,0,23
4,66,0,16
4,39,108,153
4,39,0,43
4,66,106,85
4,66,0,17
4,39,98,175
4,39,0,51
4,56,118,13
4,56,0,77
4,58,116,51
4,58,0,37
4,27,103,27
4,27,0,75
4,54,106,117
4,54,0,27
4,54,121,357
4,49,118,0
4,49,0,25
4,54,0,12
4,51,127,475
4,51,0,37
4,39,108,155
4,49,120,64
4,39,0,3
4,49,0,74
4,51,118,51
4,51,0,47
4,27,118,17
4,54,123,192
4,49,114,0
4,49,0,23
4,54,0,12
4,27,0,0
4,54,127,157
4,49,120,0
4,49,0,123
4,54,0,10
4,39,104,59
4,39,0,41
4,39,81,279
4,39,0,33
4,39,110,159
4,39,0,41
4,39,89,151
4,39,0,21
4,56,121,43
4,51,107,0
4,51,0,53
4,56,0,36
4,54,102,39
4,54,0,29
4,27,115,35
4,27,0,99
4,39,93,29
4,39,0,27
4,54,121,37
4,49,112,0
4,49,0,35
4,54,0,8
4,49,96,149
4,49,0,27
4,54,127,165
4,49,120,0
4,49,0,35
4,54,0,14
4,39,93,271
4,39,0,25
4,51,124,167
4,51,0,45
4,39,99,147
4,39,0,43
4,49,119,21
4,49,0,57
4,51,110,71
4,51,0,33
4,27,118,31
4,27,0,107
4,49,117,85
4,54,123,0
4,54,0,21
4,49,0,22
4,54,127,149
4,49,121,0
4,49,0,27
4,54,0,12
4,54,123,345
4,49,114,0
4,49,0,23
4,54,0,12
4,49,89,285
4,49,0,11
4,54,121,245
4,49,93,0
4,49,0,15
4,54,0,20
4,49,107,93
4,49,0,27
4,27,117,37
4,54,118,192
4,49,113,0
4,27,0,19
4,49,0,8
4,54,0,12
4,54,127,153
4,49,124,0
4,49,0,41
4,54,0,10
4,39,107,141
4,39,0,51
4,49,115,461
4,49,0,37
4,39,97,155
4,39,0,51
4,51,124,13
4,51,0,113
4,49,120,15
4,49,0,43
4,27,110,21
4,27,0,83
4,39,98,45
4,39,0,47
4,54,127,17
4,49,108,0
4,49,0,21
4,54,0,20
4,54,127,151
4,49,123,0
4,49,0,37
4,54,0,14
4,39,105,141
4,39,0,45
4,54,118,147
4,49,114,0
4,49,0,23
4,54,0,6
4,56,123,291
4,51,118,0
4,51,0,173
4,39,102,19
4,56,0,23
4,39,0,32
4,54,123,9
4,49,112,0
4,49,0,37
4,54,0,8
4,27,117,147
4,27,0,187
4,49,117,5
4,54,111,0
4,54,0,19
4,49,0,28
4,54,116,273
4,49,107,0
4,49,0,19
4,54,0,12
4,27,112,33
4,27,0,69
4,39,93,251
4,39,0,31
4,49,96,33
4,49,0,25
4,51,127,167
4,51,0,69
4,39,103,59
4,39,0,59
4,49,127,5
4,49,0,109
4,51,125,19
4,51,0,45
4,27,118,19
4,27,0,167
4,54,122,25
4,49,88,0
4,49,0,19
4,54,0,22
4,39,95,151
4,39,0,61
4,54,121,67
4,49,110,0
4,49,0,25
4,54,0,18
4,27,105,21
4,27,0,55
4,58,127,137
4,57,127,0
4,56,125,0
4,61,118,0
4,56,0,31
4,57,0,8
4,58,0,70
4,56,111,83
4,61,0,7
4,56,0,54
4,54,127,131
4,54,0,75
4,56,125,117
4,56,0,73
4,54,115,55
4,54,0,29
4,27,114,35
4,27,0,89
4,54,124,487
4,49,107,0
4,49,0,11
4,54,0,20
4,54,127,161
4,49,122,0
4,49,0,67
4,54,0,28
4,39,104,97
4,39,0,43
4,54,118,85
4,49,109,0
4,49,0,29
4,54,0,8
4,39,108,155
4,56,120,64
4,51,112,0
4,39,0,9
4,51,0,40
4,56,0,32
4,54,113,47
4,51,99,0
4,51,0,15
4,54,0,24
4,27,112,25
4,27,0,83
4,54,102,109
4,49,104,0
4,49,0,25
4,54,0,4
4,39,101,163
4,39,0,59
4,54,109,69
4,49,90,0
4,49,0,13
4,54,0,24
4,27,108,27
4,27,0,67
4,39,93,61
4,39,0,29
4,54,127,35
4,49,115,0
4,49,0,23
4,54,0,22
4,39,95,147
4,39,0,47
4,51,127,145
4,56,127,0
4,51,0,127
4,56,0,12
4,49,111,53
4,54,119,0
4,54,0,55
4,49,0,52
4,27,120,85
4,27,0,113
4,39,110,15
4,39,0,31
4,54,127,33
4,49,127,0
4,49,0,33
4,54,0,8
4,49,114,343
4,54,109,0
4,54,0,9
4,49,0,18
4,54,125,165
4,49,118,0
4,49,0,55
4,54,0,4
4,39,110,133
4,39,0,45
4,51,125,83
4,56,126,0
4,39,112,192
4,51,0,1
4,56,0,8
4,39,0,40
4,54,127,15
4,49,118,64
4,54,0,75
4,27,124,53
4,49,0,9
4,27,0,180
4,54,114,3
4,49,100,0
4,49,0,15
4,54,0,18
4,54,127,159
4,49,124,0
4,49,0,23
4,54,0,8
