track,note,velocity,time
1,76,102,1136
1,68,87,0
1,76,96,532
1,69,81,0
1,76,73,336
1,69,58,0
1,76,75,148
1,69,60,0
1,76,84,148
1,69,69,0
1,78,96,156
1,71,81,0
1,80,104,340
1,73,89,0
1,80,101,340
1,73,86,0
1,80,113,720
1,71,98,0
1,81,104,528
1,73,89,0
1,80,109,340
1,71,94,0
1,78,102,148
1,69,87,0
1,76,95,148
1,68,80,0
1,78,94,148
1,69,79,0
1,78,98,340
1,69,83,0
1,76,94,340
1,68,79,0
1,76,98,724
1,68,83,0
1,76,100,532
1,69,85,0
1,76,77,340
1,69,62,0
1,76,81,152
1,69,66,0
1,76,88,144
1,69,73,0
1,78,97,148
1,71,82,0
1,80,107,340
1,73,92,0
1,80,110,340
1,73,95,0
1,80,110,720
1,71,95,0
1,81,108,536
1,73,93,0
1,80,104,336
1,71,89,0
1,78,97,148
1,69,82,0
1,76,90,148
1,68,75,0
1,78,100,148
1,69,85,0
1,78,107,344
1,69,92,0
1,76,91,340
1,68,76,0
1,80,117,724
1,71,102,0
1,81,104,536
1,73,89,0
1,80,107,336
1,71,92,0
1,78,89,148
1,69,74,0
1,76,87,148
1,68,72,0
1,78,98,144
1,69,83,0
1,78,110,344
1,69,95,0
1,76,102,340
1,68,87,0
1,76,96,532
1,69,81,0
1,76,73,336
1,69,58,0
1,76,75,148
1,69,60,0
1,76,84,148
1,69,69,0
1,78,96,156
1,71,81,0
1,80,104,340
1,73,89,0
1,73,86,336
1,80,101,0
1,80,113,724
1,71,98,0
1,81,104,528
1,73,89,0
1,80,109,340
1,71,94,0
1,78,102,148
1,69,87,0
1,76,95,148
1,68,80,0
1,78,94,148
1,69,79,0
1,78,98,340
1,69,83,0
1,76,94,340
1,68,79,0
1,76,98,724
1,68,83,0
1,76,100,532
1,69,85,0
1,76,77,340
1,69,62,0
1,76,81,152
1,69,66,0
1,76,88,144
1,69,73,0
1,78,97,148
1,71,82,0
1,80,107,340
1,73,92,0
1,80,110,340
1,73,95,0
1,80,110,720
1,71,95,0
1,81,108,536
1,73,93,0
1,80,104,336
1,71,89,0
1,78,97,148
1,69,82,0
1,76,90,148
1,68,75,0
1,78,100,148
1,69,85,0
1,78,107,344
1,69,92,0
1,76,91,340
1,68,76,0
1,76,106,27608
1,76,100,532
1,76,76,336
1,76,78,148
1,76,87,148
1,78,100,156
1,80,108,340
1,80,105,340
1,80,117,720
1,81,108,528
1,80,113,340
1,78,106,148
1,76,99,148
1,78,98,148
1,78,102,340
1,76,98,340
1,76,102,724
1,76,104,532
1,76,80,340
1,76,84,152
1,76,91,144
1,78,101,148
1,80,111,340
1,80,114,340
1,80,114,720
1,81,112,536
1,80,108,336
1,78,101,148
1,76,93,148
1,78,104,148
1,78,111,344
1,76,94,340
1,80,114,720
1,81,112,536
1,80,108,336
1,78,101,148
1,76,93,148
1,78,104,148
1,78,111,344
1,76,94,340
1,76,106,27608
1,76,100,532
1,76,76,336
1,76,78,148
1,76,87,148
1,78,100,156
1,80,108,340
1,80,105,340
1,80,117,720
1,81,108,528
1,80,113,340
1,78,106,148
1,76,99,148
1,78,98,148
1,78,102,340
1,76,98,340
1,76,102,724
1,76,104,532
1,76,80,340
1,76,84,152
1,76,91,144
1,78,101,148
1,80,111,340
1,80,114,340
1,80,114,720
1,81,112,536
1,80,108,336
1,78,101,148
1,76,93,148
1,78,104,148
1,78,111,344
1,76,94,340
1,80,114,720
1,81,112,536
1,80,108,336
1,78,101,148
1,76,93,148
1,78,104,148
1,78,111,344
1,76,94,340
1,80,106,36824
1,76,100,532
1,76,87,720
1,78,100,156
1,80,108,340
1,80,105,340
1,80,117,720
1,81,108,528
1,80,113,340
1,78,106,148
1,76,99,148
1,78,98,148
1,78,102,340
1,76,98,340
1,80,102,724
1,76,104,532
1,76,91,724
1,78,101,148
1,80,81,340
1,80,84,340
1,80,84,720
1,81,112,536
1,80,108,336
1,78,101,148
1,76,93,148
1,78,104,148
1,78,106,732
1,78,100,532
1,78,76,336
1,78,78,148
1,78,87,148
1,80,100,156
1,82,108,340
1,82,105,340
1,82,117,720
1,83,108,528
1,82,113,340
1,80,106,148
1,78,99,148
1,80,98,148
1,80,102,340
1,78,98,340
1,78,102,724
1,78,104,532
1,78,80,340
1,78,84,152
1,78,91,144
1,80,101,148
1,82,111,340
1,82,114,340
1,82,114,720
1,83,112,536
1,82,108,336
1,80,101,148
1,78,93,148
1,80,104,148
1,80,111,344
1,78,94,340
1,82,114,720
1,83,112,536
1,82,108,336
1,80,101,148
1,78,93,148
1,80,104,148
1,80,111,344
1,78,94,340
1,82,114,720
1,83,112,536
1,82,108,336
1,80,101,148
1,78,93,148
1,80,104,148
1,80,111,344
1,78,94,340
1,82,114,720
1,83,112,536
1,82,108,336
1,80,101,148
1,78,93,148
1,80,104,148
1,80,111,344
1,78,94,340
1,82,114,720
1,83,112,536
1,82,108,336
1,80,101,148
1,78,93,148
1,80,104,148
1,80,111,344
1,78,94,340
1,82,114,720
1,83,112,124
1,82,108,88
1,80,101,24
1,78,93,120
1,80,104,56
1,80,111,28
1,78,94,92
1,82,114,120
1,83,112,28
1,82,108,56
1,80,101,24
1,78,93,24
1,80,104,148
1,80,111,28
1,78,94,92
1,82,114,24
1,83,112,28
1,82,108,152
1,80,101,88
1,78,93,24
1,80,104,56
1,80,111,124
1,78,94,92
1,82,114,24
1,83,112,92
1,82,108,56
1,80,101,148
1,78,93,24
1,80,104,148
1,80,111,344
1,78,94,340
1,82,114,720
2,49,124,1256
2,37,127,12
2,49,127,5384
2,37,127,4
2,30,127,8
2,32,122,4
2,33,127,4
2,33,121,72
2,33,110,88
2,32,118,4
2,30,105,4
2,35,118,4
2,35,103,84
2,35,110,104
2,36,110,4
2,37,120,4
2,37,104,48
2,37,110,96
2,39,122,32
2,40,111,0
2,35,117,8
2,32,120,20
2,33,123,4
2,33,113,92
2,33,117,104
2,32,120,4
2,30,108,4
2,35,121,4
2,35,110,80
2,35,110,88
2,35,110,88
2,37,107,4
2,37,127,100
2,35,127,4
2,32,120,4
2,37,127,40
2,30,124,8
2,32,122,4
2,33,127,4
2,33,121,72
2,33,110,88
2,32,118,4
2,30,105,4
2,35,118,4
2,35,103,84
2,35,110,104
2,36,110,4
2,37,120,4
2,37,104,48
2,37,110,96
2,39,122,32
2,40,111,0
2,35,117,8
2,32,120,20
2,33,123,4
2,33,113,92
2,33,117,104
2,32,120,4
2,30,108,4
2,35,121,4
2,35,110,80
2,35,110,88
2,35,110,88
2,37,110,0
2,49,105,196
2,37,74,176
2,49,98,136
2,37,77,160
2,49,90,144
2,37,77,168
2,49,91,156
2,37,85,160
2,49,66,136
2,49,84,100
2,49,101,116
2,37,88,104
2,49,72,164
2,49,85,92
2,49,94,108
2,28,127,0
2,28,117,76
2,28,120,104
2,28,111,76
2,28,114,80
2,28,115,88
2,28,108,100
2,28,120,96
2,35,115,112
2,35,95,76
2,35,102,100
2,35,108,76
2,35,103,104
2,35,100,80
2,35,109,92
2,35,111,88
2,33,117,4
2,33,97,64
2,33,106,88
2,33,111,72
2,33,106,88
2,33,114,84
2,33,118,104
2,33,111,96
2,35,114,4
2,35,108,72
2,35,110,92
2,35,107,84
2,35,106,96
2,35,106,96
2,35,117,108
2,47,109,12
2,28,120,8
2,28,113,76
2,28,114,100
2,28,114,96
2,28,115,92
2,28,111,80
2,28,125,96
2,28,127,104
2,35,114,48
2,35,108,76
2,35,113,92
2,35,103,88
2,35,107,84
2,35,106,92
2,35,111,88
2,35,114,92
2,33,108,24
2,33,117,48
2,33,108,84
2,33,108,88
2,33,111,92
2,33,117,96
2,33,121,104
2,33,127,108
2,35,108,32
2,35,96,64
2,35,102,88
2,35,93,68
2,35,103,88
2,35,102,84
2,35,113,92
2,35,113,96
2,31,127,4
2,31,113,68
2,31,113,88
2,31,106,84
2,31,111,92
2,31,106,84
2,31,123,96
2,31,111,96
2,33,118,16
2,33,115,76
2,33,114,88
2,33,107,88
2,33,113,96
2,33,115,96
2,33,114,100
2,33,127,100
2,31,121,4
2,31,108,72
2,31,111,84
2,31,107,72
2,31,109,92
2,31,108,100
2,31,123,96
2,31,121,112
2,33,104,4
2,33,117,80
2,33,117,100
2,33,110,100
2,33,118,104
2,33,118,100
2,33,127,112
2,31,121,40
2,30,127,4
2,30,120,88
2,30,124,92
2,30,112,76
2,30,110,84
2,30,110,88
2,30,120,88
2,30,110,100
2,31,125,4
2,31,115,92
2,31,108,84
2,31,121,76
2,31,115,80
2,31,115,84
2,31,108,96
2,31,118,88
2,28,127,4
2,28,108,80
2,28,117,64
2,28,103,88
2,30,127,4
2,30,124,64
2,30,127,92
2,30,124,100
2,31,125,4
2,31,110,76
2,31,123,80
2,31,120,92
2,33,127,28
2,33,125,104
2,33,127,88
2,33,127,92
2,37,127,12
2,30,127,8
2,32,122,4
2,33,127,4
2,33,110,44
2,32,118,4
2,30,105,4
2,35,118,4
2,35,103,44
2,35,110,104
2,36,110,4
2,37,120,4
2,37,104,48
2,39,122,44
2,40,111,0
2,35,117,8
2,32,120,20
2,33,123,4
2,33,113,92
2,33,117,36
2,32,120,4
2,30,108,4
2,35,121,4
2,35,110,44
2,35,110,88
2,35,110,88
2,37,107,4
2,37,127,100
2,35,127,4
2,32,120,4
2,37,127,40
2,30,124,8
2,32,122,4
2,33,127,4
2,33,110,36
2,32,118,4
2,30,105,4
2,35,118,4
2,35,103,84
2,35,110,104
2,36,110,4
2,37,120,4
2,37,104,48
2,39,122,40
2,40,111,0
2,35,117,8
2,32,120,20
2,33,123,4
2,33,113,92
2,33,117,36
2,32,120,4
2,30,108,4
2,35,118,0
2,35,103,84
2,35,110,104
2,36,110,4
2,37,120,4
2,37,104,48
2,39,122,40
2,40,111,0
2,35,117,8
2,32,120,20
2,33,123,4
2,33,113,92
2,33,117,36
2,32,120,4
2,30,108,4
2,35,121,4
2,35,110,80
2,35,110,88
2,35,110,88
2,37,110,0
2,37,105,4
2,37,74,4
2,37,98,4
2,37,77,4
2,37,90,4
2,37,77,4
2,44,91,4
2,37,85,4
2,37,66,12
2,37,84,16
2,44,101,48
2,37,88,4
2,37,72,4
2,37,85,16
2,44,94,4
2,28,127,0
2,28,117,76
2,28,120,104
2,28,111,76
2,28,114,80
2,28,115,88
2,28,108,100
2,28,120,96
2,35,115,112
2,35,95,76
2,35,102,100
2,35,108,76
2,35,103,104
2,35,100,80
2,35,109,92
2,35,111,88
2,33,117,4
2,33,97,64
2,33,106,88
2,33,111,72
2,33,106,88
2,33,114,84
2,33,118,104
2,33,111,96
2,35,114,4
2,35,108,72
2,35,110,92
2,35,107,84
2,35,106,96
2,35,106,96
2,35,117,108
2,47,109,12
2,28,120,4
2,28,113,80
2,28,114,100
2,28,114,96
2,28,115,92
2,28,111,80
2,28,125,92
2,28,127,108
2,35,114,48
2,35,108,76
2,35,113,96
2,35,103,84
2,35,107,84
2,35,106,92
2,35,111,88
2,35,114,92
2,33,108,24
2,33,117,48
2,33,108,84
2,33,108,88
2,33,111,92
2,33,117,96
2,33,121,104
2,33,127,108
2,35,108,32
2,35,96,64
2,35,102,88
2,35,93,68
2,35,103,88
2,35,102,84
2,35,113,92
2,35,113,96
2,31,127,4
2,31,113,68
2,31,113,88
2,31,106,84
2,31,111,92
2,31,106,84
2,31,123,96
2,31,111,96
2,33,118,12
2,33,115,80
2,33,114,88
2,33,107,88
2,33,113,96
2,33,115,96
2,33,114,100
2,33,127,100
2,31,121,4
2,31,108,72
2,31,111,84
2,31,107,72
2,31,109,92
2,31,108,100
2,31,123,96
2,31,121,112
2,33,104,4
2,33,117,80
2,33,117,100
2,33,110,100
2,33,118,104
2,33,118,100
2,33,127,112
2,31,121,40
2,30,127,8
2,30,120,84
2,30,124,92
2,30,112,76
2,30,110,84
2,30,110,88
2,30,120,88
2,30,110,100
2,31,125,4
2,31,115,92
2,31,108,84
2,31,121,76
2,31,115,80
2,31,115,84
2,31,108,96
2,31,118,88
2,28,127,4
2,28,108,80
2,28,117,64
2,28,103,88
2,30,127,4
2,30,124,64
2,30,127,92
2,30,124,100
2,31,125,4
2,31,110,76
2,31,123,80
2,31,120,92
2,33,127,28
2,33,125,104
2,33,127,88
2,33,127,92
2,37,127,12
2,30,127,8
2,32,122,4
2,33,127,4
2,33,110,44
2,32,118,4
2,30,105,4
2,35,118,4
2,35,103,44
2,35,110,104
2,36,110,4
2,37,120,4
2,37,104,48
2,39,122,44
2,40,111,0
2,35,117,8
2,32,120,20
2,33,123,4
2,33,113,92
2,33,117,36
2,32,120,4
2,30,108,4
2,35,121,4
2,35,110,44
2,35,110,88
2,35,110,88
2,37,107,4
2,37,127,100
2,35,127,4
2,32,120,4
2,37,127,40
2,30,124,8
2,32,122,4
2,33,127,4
2,33,110,36
2,32,118,4
2,30,105,4
2,35,118,4
2,35,103,28
2,35,110,104
2,36,110,4
2,37,120,4
2,37,104,48
2,39,122,40
2,40,111,0
2,35,117,8
2,32,120,20
2,33,123,4
2,33,113,92
2,33,117,36
2,32,120,4
2,30,108,4
2,35,118,0
2,35,103,32
2,35,110,104
2,36,110,4
2,37,120,4
2,37,104,48
2,39,122,40
2,40,111,0
2,35,117,8
2,32,120,20
2,33,123,4
2,33,113,92
2,33,117,36
2,32,120,4
2,30,108,4
2,35,121,4
2,35,110,32
2,35,110,88
2,35,110,88
2,28,127,192
2,28,115,56
2,28,117,80
2,28,110,80
2,28,109,88
2,28,108,68
2,28,109,88
2,28,103,72
2,28,119,84
2,28,108,76
2,28,98,76
2,28,100,76
2,28,104,84
2,28,103,76
2,28,111,88
2,28,111,80
2,37,114,8
2,37,107,44
2,37,100,68
2,37,101,72
2,37,108,88
2,37,88,84
2,37,105,80
2,37,85,68
2,37,95,72
2,37,85,68
2,37,91,68
2,37,87,72
2,37,88,68
2,37,83,68
2,37,105,76
2,37,107,84
2,33,118,4
2,33,102,68
2,33,104,76
2,33,103,92
2,33,98,76
2,33,104,80
2,33,107,84
2,33,99,76
2,33,98,92
2,33,100,80
2,33,100,72
2,33,96,64
2,33,98,72
2,33,110,88
2,33,110,96
2,33,99,88
2,35,103,4
2,35,101,56
2,35,96,72
2,35,94,64
2,35,92,68
2,35,93,72
2,35,100,76
2,35,96,60
2,35,96,76
2,35,93,60
2,35,103,68
2,35,91,68
2,35,93,60
2,35,98,80
2,35,96,56
2,35,114,76
2,28,114,56
2,28,107,64
2,28,111,72
2,28,111,64
2,28,111,68
2,28,103,76
2,28,107,64
2,28,103,68
2,28,107,88
2,28,108,72
2,28,114,84
2,28,111,80
2,28,98,56
2,30,100,4
2,32,104,4
2,35,107,4
2,37,109,4
2,37,98,80
2,37,108,88
2,37,107,76
2,37,105,80
2,37,110,88
2,37,107,84
2,37,104,80
2,37,108,88
2,37,104,92
2,37,105,96
2,37,110,92
2,37,124,76
2,35,117,32
2,30,113,8
2,32,120,4
2,33,121,4
2,33,100,48
2,33,115,68
2,33,104,84
2,33,113,60
2,33,103,80
2,33,109,76
2,33,102,76
2,33,108,52
2,33,99,80
2,33,109,84
2,33,108,88
2,33,103,92
2,33,108,80
2,33,111,96
2,33,114,112
2,35,114,16
2,35,110,84
2,35,106,84
2,35,98,80
2,35,96,88
2,35,103,76
2,35,103,84
2,35,103,88
2,35,102,92
2,35,103,84
2,35,102,84
2,35,100,84
2,35,102,80
2,35,103,80
2,35,103,80
2,35,111,80
2,31,127,56
2,31,113,64
2,31,113,88
2,31,106,84
2,31,111,92
2,31,106,84
2,31,123,96
2,31,111,96
2,33,118,12
2,33,115,80
2,33,114,88
2,33,107,88
2,33,113,96
2,33,115,96
2,33,114,100
2,33,127,100
2,31,121,4
2,31,108,72
2,31,111,84
2,31,107,72
2,31,109,92
2,31,108,100
2,31,123,96
2,31,121,112
2,33,104,4
2,33,117,80
2,33,117,100
2,33,110,100
2,33,118,104
2,33,118,100
2,33,127,112
2,31,121,40
2,30,127,4
2,30,120,88
