track,note,velocity,time
0,76,102,224
0,68,87,0
0,68,107,0
0,76,112,0
0,41,111,0
0,41,0,1
0,76,101,0
0,64,79,0
0,43,111,0
0,43,0,1
0,68,0,9
0,76,0,0
0,76,0,107
0,76,0,18
0,68,0,5
0,64,0,1
0,76,101,1
0,64,79,0
0,76,96,1
0,69,81,0
0,76,106,0
0,69,101,0
0,69,0,11
0,76,0,0
0,76,0,67
0,64,0,16
0,76,73,1
0,69,58,0
0,76,83,0
0,64,61,0
0,69,0,11
0,76,0,0
0,76,0,22
0,69,60,15
0,76,75,0
0,64,0,1
0,76,100,1
0,64,78,0
0,69,0,9
0,76,0,0
0,76,0,29
0,64,0,7
0,76,84,1
0,69,69,0
0,76,96,0
0,64,74,0
0,69,0,11
0,76,0,0
0,76,0,21
0,69,0,13
0,76,0,0
0,71,101,4
0,64,0,1
0,78,96,0
0,71,81,0
0,78,82,0
0,66,60,0
0,78,106,0
0,71,0,11
0,78,0,0
0,78,0,27
0,66,0,7
0,78,98,1
0,66,76,0
0,78,0,47
0,71,0,0
0,78,0,0
0,66,0,1
0,80,93,0
0,68,71,0
0,80,104,2
0,73,89,0
0,73,109,0
0,80,114,0
0,73,0,11
0,80,0,0
0,80,0,55
0,68,0,29
0,80,101,1
0,73,86,0
0,80,102,0
0,68,80,0
0,73,0,11
0,80,0,0
0,43,99,133
0,43,0,1
0,80,0,9
0,73,0,32
0,80,0,2
0,68,0,2
0,71,98,1
0,80,113,0
0,80,106,0
0,68,84,0
0,71,90,0
0,80,123,0
0,71,118,0
0,41,111,0
0,41,0,1
0,43,127,0
0,43,0,1
0,80,0,9
0,71,0,0
0,80,0,110
0,80,0,20
0,71,0,1
0,81,104,1
0,73,89,0
0,73,109,0
0,81,114,0
0,71,0,1
0,68,0,0
0,69,78,0
0,73,84,0
0,81,100,1
0,73,0,9
0,81,0,0
0,73,0,82
0,81,0,0
0,81,0,1
0,80,100,1
0,80,109,1
0,71,94,0
0,71,114,0
0,80,119,0
0,73,0,1
0,69,0,0
0,71,84,0
0,68,78,0
0,80,0,10
0,71,0,0
0,80,0,35
0,80,0,0
0,71,0,1
0,78,94,0
0,78,102,1
0,69,87,0
0,78,112,0
0,69,107,0
0,71,0,1
0,68,0,0
0,69,78,0
0,66,72,0
0,78,0,10
0,69,0,0
0,78,0,35
0,69,0,0
0,78,0,1
0,76,95,1
0,68,80,0
0,76,94,0
0,68,100,0
0,76,105,0
0,69,0,1
0,66,0,0
0,68,78,0
0,64,72,0
0,68,0,10
0,76,0,0
0,76,0,35
0,76,0,1
0,68,0,0
0,69,79,1
0,78,94,0
0,78,110,0
0,78,104,0
0,69,99,0
0,64,0,1
0,68,0,0
0,66,88,0
0,69,94,0
0,78,0,10
0,69,0,0
0,78,0,39
0,78,103,33
0,66,0,1
0,69,0,0
0,78,98,0
0,69,83,0
0,66,88,1
0,69,94,0
0,69,0,10
0,78,0,0
0,66,0,38
0,78,0,0
0,69,0,0
0,68,74,0
0,64,68,0
0,76,96,1
0,76,0,31
0,69,0,13
0,78,0,1
0,68,79,1
0,76,94,0
0,78,102,0
0,68,99,0
0,76,104,0
0,68,0,1
0,64,0,0
0,69,86,0
0,66,80,0
0,76,0,10
0,68,0,0
0,78,0,33
0,76,92,4
0,69,0,1
0,66,0,0
0,68,76,0
0,64,70,0
0,76,0,65
0,68,0,31
0,64,0,0
0,49,124,0
0,73,100,0
0,61,78,0
0,73,0,26
0,68,0,13
0,76,0,2
0,49,0,2
0,76,98,3
0,68,83,0
0,37,127,0
0,68,103,0
0,76,108,0
0,36,127,0
0,36,0,1
0,61,0,1
0,76,108,0
0,64,86,0
0,76,0,9
0,68,0,0
0,76,0,29
0,64,0,9
0,64,79,1
0,76,101,2
0,76,0,5
0,76,0,15
0,68,0,0
0,69,85,1
0,76,100,0
0,69,105,0
0,76,110,0
0,64,0,1
0,64,89,1
0,76,111,2
0,76,0,3
0,69,0,0
0,76,0,8
0,64,0,2
0,69,62,1
0,76,77,0
0,76,106,0
0,64,84,0
0,76,0,5
0,69,0,0
0,69,66,5
0,76,81,0
0,76,0,2
0,69,0,0
0,69,73,2
0,76,88,0
0,76,0,1
0,69,0,2
0,76,0,0
0,76,0,1
0,69,0,2
0,78,94,1
0,64,0,1
0,78,97,0
0,71,82,0
0,66,83,0
0,71,102,0
0,78,107,0
0,71,0,2
0,78,0,0
0,37,0,31
0,78,0,26
0,78,0,20
0,71,0,1
0,80,101,0
0,66,0,1
0,73,92,0
0,80,107,0
0,68,86,0
0,73,112,0
0,80,117,0
0,80,0,11
0,73,0,0
0,80,0,56
0,68,0,3
0,73,95,1
0,80,110,0
0,80,99,0
0,68,87,0
0,80,0,11
0,73,0,0
0,43,83,51
0,43,0,1
0,80,0,4
0,80,0,37
0,73,0,3
0,71,95,1
0,80,110,0
0,71,115,0
0,80,120,0
0,68,0,1
0,68,77,1
0,71,83,0
0,41,111,0
0,41,0,1
0,80,99,0
0,43,127,0
0,43,0,1
0,80,0,7
0,71,0,0
0,80,0,23
0,68,0,15
0,71,0,0
0,68,72,1
0,71,78,0
0,80,94,2
0,80,0,67
0,80,0,25
0,71,0,0
0,73,93,1
0,81,108,0
0,73,113,0
0,81,118,0
0,68,0,1
0,71,0,0
0,81,98,0
0,69,76,0
0,73,82,0
0,81,0,10
0,73,0,0
0,81,0,80
0,81,0,1
0,73,0,2
0,80,96,0
0,80,104,1
0,71,89,0
0,71,109,0
0,80,114,0
0,73,0,2
0,69,0,0
0,71,80,0
0,68,74,0
0,80,0,9
0,71,0,0
0,80,0,34
0,71,0,2
0,80,0,1
0,78,97,0
0,69,82,0
0,78,107,0
0,69,102,0
0,78,92,1
0,71,0,1
0,68,0,0
0,69,76,0
0,66,70,0
0,69,0,9
0,78,0,0
0,78,0,30
0,78,0,3
0,69,0,2
0,68,75,2
0,76,90,0
0,76,89,0
0,68,95,0
0,76,100,0
0,66,0,2
0,69,0,0
0,64,67,0
0,68,73,0
0,76,0,9
0,68,0,0
0,76,0,30
0,76,0,5
0,68,0,0
0,78,101,1
0,78,100,1
0,69,85,0
0,78,110,0
0,69,105,0
0,68,0,2
0,64,0,0
0,59,104,0
0,66,79,0
0,69,85,0
0,59,101,0
0,78,0,6
0,69,0,0
0,78,0,7
0,78,102,1
0,69,0,1
0,66,0,0
0,78,107,0
0,69,92,0
0,69,86,0
0,66,80,0
0,69,0,2
0,78,0,0
0,78,0,2
0,66,0,1
0,69,0,0
0,76,92,0
0,64,60,0
0,68,66,0
0,59,0,3
0,76,0,6
0,78,0,3
0,69,0,3
0,68,76,1
0,76,91,0
0,78,104,0
0,76,101,0
0,68,96,0
0,61,104,0
0,64,0,1
0,68,0,0
0,61,90,0
0,69,88,0
0,66,82,0
0,59,0,1
0,68,0,2
0,76,0,0
0,78,0,2
0,64,82,1
0,69,0,1
0,66,0,0
0,68,78,0
0,64,72,0
0,76,94,0
0,64,110,1
0,64,0,1
0,66,113,0
0,66,88,0
0,64,0,3
0,66,0,6
0,66,0,2
0,64,96,1
0,64,91,0
0,43,99,1
0,43,0,1
0,61,0,10
0,76,0,1
0,64,0,14
0,68,0,0
0,76,0,1
0,56,78,3
0,68,0,1
0,71,102,0
0,80,117,0
0,80,106,0
0,71,122,0
0,80,127,0
0,56,103,0
0,64,0,1
0,68,84,0
0,71,90,0
0,41,105,0
0,41,0,1
0,43,122,0
0,43,0,1
0,61,0,2
0,71,0,2
0,80,0,0
0,64,0,9
0,68,110,2
0,68,81,1
0,68,0,12
0,64,112,3
0,64,79,0
0,80,0,4
0,68,0,1
0,56,0,4
0,56,0,2
0,80,0,1
0,57,90,2
0,81,94,0
0,71,0,1
0,57,97,0
0,68,0,1
0,71,0,0
0,73,89,0
0,81,104,0
0,73,78,0
0,69,72,0
0,81,114,0
0,73,109,0
0,64,0,2
0,64,0,0
0,73,0,3
0,81,0,0
0,64,82,13
0,64,112,1
0,73,0,13
0,81,0,2
0,80,100,1
0,81,0,1
0,71,92,1
0,80,107,0
0,61,90,0
0,71,112,0
0,80,117,0
0,61,71,0
0,69,0,1
0,73,0,0
0,68,78,0
0,71,84,0
0,80,0,2
0,71,0,0
0,80,0,7
0,80,0,1
0,78,95,1
0,71,0,1
0,69,74,1
0,78,89,0
0,69,113,0
0,69,94,0
0,78,99,0
0,68,0,1
0,71,0,0
0,66,73,0
0,69,79,0
0,69,83,0
0,64,0,1
0,78,0,7
0,69,0,0
0,61,0,6
0,64,0,0
0,57,0,3
0,57,0,7
0,78,0,3
0,78,0,2
0,76,94,1
0,69,0,1
0,68,72,1
0,76,87,0
0,59,81,0
0,68,92,0
0,76,97,0
0,66,0,1
0,69,0,0
0,68,78,0
0,64,72,0
0,59,98,1
0,69,0,1
0,61,0,0
0,76,0,2
0,68,0,0
0,69,0,10
0,76,0,4
0,76,0,0
0,68,0,1
0,78,100,0
0,69,83,1
0,78,98,0
0,69,103,0
0,78,108,0
0,71,78,0
0,64,0,0
0,68,0,0
0,66,83,0
0,69,89,0
0,71,115,1
0,43,127,0
0,43,0,1
0,69,0,5
0,78,0,0
0,66,87,29
0,66,113,2
0,71,0,5
0,78,0,10
0,71,0,2
0,59,0,1
0,59,0,18
0,66,0,1
0,40,82,1
0,40,0,1
0,66,0,1
0,66,0,0
0,69,0,0
0,78,110,0
0,69,95,0
0,49,127,0
0,61,97,0
0,78,105,0
0,52,105,0
0,38,87,0
0,38,0,1
0,69,96,0
0,66,90,0
0,61,101,0
0,69,0,1
0,78,0,0
0,52,0,5
0,51,90,1
0,51,0,5
0,50,88,0
0,78,0,2
0,76,92,1
0,68,109,1
0,69,0,1
0,66,0,0
0,64,75,0
0,68,81,0
0,68,90,0
0,50,0,3
0,47,79,0
0,47,0,3
0,44,61,0
0,44,0,2
0,41,48,0
0,78,0,2
0,68,0,1
0,69,0,2
0,76,0,0
0,49,0,0
0,61,0,1
0,76,102,0
0,68,87,0
0,78,109,0
0,76,112,0
0,68,107,0
0,64,0,0
0,41,0,0
0,68,0,0
0,37,127,0
0,69,98,0
0,66,92,0
0,54,84,0
0,36,115,0
0,36,0,1
0,54,0,0
0,49,104,0
0,49,104,0
0,49,0,1
0,56,88,0
0,68,0,9
0,76,0,0
0,54,56,12
0,54,0,1
0,78,0,18
0,37,0,4
0,76,94,1
0,54,31,0
0,54,0,1
0,69,0,0
0,66,0,0
0,30,127,0
0,68,87,0
0,64,81,0
0,36,107,1
0,36,0,1
0,54,36,21
0,54,0,1
0,30,0,23
0,38,90,0
0,42,118,0
0,42,0,1
0,38,0,0
0,32,122,0
0,54,88,1
0,54,0,1
0,49,0,14
0,56,0,0
0,54,42,7
0,54,0,1
0,61,0,13
0,68,0,0
0,32,0,10
0,52,101,0
0,45,104,0
0,43,102,0
0,43,0,1
0,69,81,0
0,76,96,0
0,33,127,0
0,69,107,0
0,54,37,0
0,54,0,1
0,68,0,2
0,76,0,8
0,69,0,0
0,54,40,13
0,54,0,1
0,33,0,6
0,42,84,16
0,36,107,0
0,36,0,1
0,42,0,0
0,33,121,1
0,54,84,0
0,54,0,1
0,54,29,21
0,54,0,1
0,33,0,1
0,76,73,22
0,69,58,0
0,33,110,0
0,36,97,0
0,54,34,0
0,54,0,1
0,36,0,0
0,69,0,10
0,76,0,0
0,54,36,13
0,54,0,1
0,45,0,20
0,52,0,1
0,33,0,1
0,69,60,1
0,76,75,0
0,32,118,0
0,45,107,0
0,52,91,0
0,54,84,0
0,38,90,0
0,42,118,0
0,42,0,1
0,38,0,0
0,54,0,0
0,76,0,10
0,69,0,0
0,54,36,13
0,54,0,1
0,32,0,22
0,69,69,1
0,76,84,0
0,30,105,0
0,43,109,0
0,43,0,1
0,54,34,1
0,54,0,1
0,76,0,8
0,69,0,0
0,54,37,15
0,54,0,1
0,76,0,3
0,69,0,3
0,45,0,2
0,52,0,0
0,76,0,4
0,30,0,8
0,35,118,1
0,47,101,0
0,42,87,0
0,42,0,1
0,68,0,0
0,64,0,0
0,71,101,0
0,54,94,0
0,36,99,0
0,36,0,1
0,71,81,0
0,78,96,0
0,78,106,0
0,54,91,0
0,54,0,1
0,78,0,10
0,71,0,0
0,54,29,13
0,54,0,1
0,35,0,1
0,36,89,20
0,36,0,1
0,35,103,0
0,54,37,1
0,54,0,1
0,35,0,19
0,54,34,2
0,54,0,1
0,71,0,22
0,78,0,0
0,47,0,1
0,54,0,0
0,35,110,0
0,38,88,0
0,42,118,0
0,54,84,0
0,54,0,1
0,42,0,0
0,38,0,0
0,80,104,1
0,73,89,0
0,73,109,0
0,80,114,0
0,47,107,0
0,54,92,0
0,73,0,11
0,80,0,0
0,54,53,11
0,54,0,1
0,35,0,22
0,36,110,1
0,54,49,0
0,43,107,0
0,43,0,1
0,54,0,0
0,54,0,4
0,47,0,9
0,54,36,10
0,54,0,1
0,36,0,22
0,49,102,0
0,56,94,0
0,37,120,1
0,42,82,0
0,36,100,0
0,54,84,0
0,54,0,1
0,36,0,0
0,42,0,0
0,73,86,0
0,80,101,0
0,80,0,11
0,73,0,0
0,54,30,12
0,54,0,1
0,37,0,12
0,54,42,11
0,36,93,0
0,36,0,1
0,54,0,0
0,37,104,0
0,37,0,23
0,54,31,0
0,54,0,1
0,37,110,23
0,38,81,0
0,42,118,0
0,54,88,0
0,54,0,1
0,42,0,0
0,38,0,0
0,54,44,24
0,54,0,1
0,37,0,14
0,43,113,7
0,43,0,1
0,39,122,0
0,54,28,0
0,54,0,1
0,54,40,23
0,54,0,1
0,56,0,1
0,49,0,4
0,73,0,14
0,80,0,2
0,52,110,2
0,59,103,0
0,54,88,0
0,42,86,0
0,42,0,1
0,39,0,0
0,54,0,0
0,71,98,0
0,80,113,0
0,40,111,0
0,80,123,0
0,71,118,0
0,36,93,0
0,36,0,1
0,80,0,10
0,71,0,0
0,54,44,12
0,54,0,1
0,52,0,19
0,59,0,3
0,40,0,1
0,59,102,0
0,52,109,0
0,54,49,0
0,36,91,0
0,36,0,1
0,54,0,0
0,35,117,1
0,54,46,22
0,54,0,1
0,35,0,18
0,32,120,5
0,42,118,0
0,54,91,0
0,38,86,0
0,38,0,1
0,54,0,0
0,42,0,0
0,52,0,5
0,59,0,1
0,54,44,18
0,54,0,1
0,80,0,20
0,71,0,1
0,32,0,0
0,43,109,0
0,43,0,1
0,81,104,0
0,73,89,0
0,33,123,0
0,73,109,0
0,81,114,0
0,54,42,0
0,54,0,1
0,52,105,2
0,45,105,0
0,81,0,8
0,73,0,0
0,54,46,13
0,54,0,1
0,33,0,1
0,36,99,22
0,54,91,0
0,42,90,0
0,42,0,1
0,36,0,0
0,54,0,0
0,33,113,0
0,33,0,21
0,54,40,2
0,54,0,1
0,73,0,20
0,81,0,0
0,71,94,3
0,80,109,0
0,33,117,0
0,71,114,0
0,80,119,0
0,54,56,0
0,36,95,0
0,36,0,1
0,54,0,0
0,71,0,10
0,80,0,0
0,54,36,13
0,54,0,1
0,52,0,20
0,80,0,1
0,45,0,0
0,71,0,1
0,33,0,0
0,78,102,1
0,69,87,0
0,32,120,0
0,69,107,0
0,78,112,0
0,38,88,0
0,42,118,0
0,54,95,0
0,54,0,1
0,42,0,0
0,38,0,0
0,52,100,0
0,45,112,0
0,78,0,10
0,69,0,0
0,54,46,13
0,54,0,1
0,78,0,21
0,69,0,0
0,32,0,1
0,68,80,1
0,76,95,0
0,30,108,0
0,68,100,0
0,76,105,0
0,54,46,0
0,43,109,0
0,43,0,1
0,54,0,0
0,68,0,10
0,76,0,0
0,52,0,3
0,45,0,3
0,54,48,7
0,54,0,1
0,76,0,21
0,68,0,1
0,30,0,1
0,69,79,0
0,78,94,0
0,69,99,0
0,78,104,0
0,54,84,0
0,42,92,0
0,42,0,1
0,54,0,0
0,35,121,0
0,36,92,0
0,36,0,1
0,64,127,1
0,47,103,0
0,54,101,1
0,78,0,3
0,69,0,0
0,54,36,2
0,54,0,1
0,35,0,4
0,36,93,1
