track,note,velocity,time
1,69,51,384
1,69,0,94
1,72,48,2
1,74,55,97
1,72,0,3
1,77,59,91
1,74,0,41
1,74,64,57
1,77,0,18
1,74,0,229
1,74,60,40
1,69,53,96
1,74,0,5
1,69,0,353
1,62,61,22
1,62,0,262
1,62,58,28
1,69,60,97
1,62,0,2
1,69,0,175
1,72,58,12
1,72,0,184
1,62,50,9
1,62,0,266
1,62,59,24
1,69,61,97
1,62,0,3
1,69,0,369
1,74,62,10
1,74,0,257
1,74,53,32
1,69,55,96
1,74,0,4
1,69,0,184
1,72,50,5
1,72,0,183
1,74,58,7
1,74,0,261
1,74,60,28
1,74,0,93
1,69,67,2
1,62,59,386
1,69,0,9
1,62,0,237
1,62,42,41
1,69,60,97
1,62,0,10
1,69,0,170
1,72,59,10
1,72,0,190
1,62,64,3
1,62,0,240
1,62,74,49
1,62,0,96
1,69,61,0
1,74,62,384
1,69,0,14
1,74,0,226
1,74,49,49
1,69,62,98
1,74,0,18
1,69,0,156
1,72,58,15
1,72,0,181
1,62,84,10
1,62,0,249
1,62,59,40
1,62,0,32
1,62,84,65
1,62,0,340
1,62,74,43
1,62,0,241
1,62,62,45
1,62,0,38
1,62,75,58
1,62,0,377
1,70,56,7
1,70,0,259
1,70,62,30
1,72,59,96
1,70,0,1
1,72,0,378
1,74,61,3
1,74,0,262
1,74,60,29
1,74,0,38
1,74,60,57
1,74,0,189
1,69,58,2
1,69,0,191
1,62,75,2
1,62,0,245
1,62,75,44
1,62,0,31
1,62,69,64
1,62,0,342
1,62,74,41
1,62,0,237
1,62,64,50
1,62,0,43
1,62,72,54
1,62,0,381
1,70,58,3
1,70,0,257
1,70,54,32
1,70,0,95
1,72,60,2
1,72,0,368
1,74,65,12
1,74,0,248
1,74,50,43
1,74,0,35
1,74,60,60
1,74,0,91
1,62,75,4
1,62,0,90
1,67,75,5
1,68,69,95
1,67,0,3
1,69,58,94
1,68,0,1
1,69,0,266
1,69,62,25
1,69,0,32
1,69,65,63
1,69,0,381
1,70,62,1
1,70,0,266
1,70,65,24
1,70,0,32
1,70,72,64
1,70,0,384
1,67,62,0
1,67,0,261
1,67,72,28
1,67,0,36
1,67,65,60
1,67,0,359
1,72,59,20
1,72,0,254
1,72,75,36
1,72,0,477
1,69,62,4
1,69,0,258
1,69,65,31
1,69,0,49
1,69,74,46
1,70,59,387
1,69,0,6
1,70,0,243
1,70,72,38
1,70,0,27
1,70,65,69
1,70,0,366
1,67,59,16
1,67,0,248
1,67,64,40
1,67,0,33
1,67,75,63
1,72,64,384
1,67,0,2
1,72,0,1117
1,69,69,34
1,69,0,94
1,72,62,2
1,74,59,95
1,72,0,6
1,77,51,88
1,74,0,6
1,74,59,94
1,77,0,11
1,74,0,232
1,74,58,45
1,74,0,89
1,69,60,7
1,69,0,369
1,74,64,14
1,74,0,265
1,74,67,23
1,74,0,92
1,69,67,3
1,69,0,177
1,72,56,15
1,72,0,174
1,74,60,16
1,74,0,264
1,74,63,25
1,74,0,94
1,69,75,4
1,69,0,385
1,74,62,0
1,74,0,241
1,74,59,46
1,74,0,93
1,69,64,3
1,69,0,178
1,72,60,12
1,72,0,186
1,70,61,9
1,70,0,248
1,70,67,39
1,70,0,41
1,70,67,55
1,70,0,295
1,70,79,90
1,70,0,232
1,70,75,55
1,70,0,17
1,70,74,78
1,70,0,87
1,58,75,8
1,58,0,129
1,58,87,64
1,58,0,85
1,70,72,13
1,70,0,236
1,70,69,52
1,70,0,42
1,70,84,54
1,70,0,336
1,72,60,45
1,72,0,376
1,69,57,11
1,72,59,96
1,69,0,4
1,72,0,91
1,74,62,1
1,74,0,93
1,77,58,3
1,77,0,61
1,74,63,35
1,74,0,257
1,74,57,30
1,69,61,97
1,74,0,7
1,69,0,177
1,72,60,6
1,72,0,178
1,74,62,16
1,74,0,92
1,62,60,0
1,62,0,168
1,62,65,26
1,69,64,96
1,62,0,7
1,69,0,175
1,72,62,10
1,72,0,179
1,74,61,15
1,74,0,218
1,74,49,69
1,69,69,97
1,74,0,6
1,69,0,175
1,72,59,12
1,72,0,175
1,74,61,16
1,74,0,91
1,62,52,4
1,62,0,159
1,62,67,32
1,62,0,93
1,69,65,3
1,72,64,193
1,69,0,1
1,72,0,71
1,62,84,121
1,62,0,247
1,62,59,41
1,62,0,32
1,62,84,65
1,62,0,340
1,62,74,43
1,62,0,241
1,62,62,45
1,62,0,38
1,62,75,58
1,62,0,377
1,70,56,7
1,70,0,259
1,70,62,30
1,72,59,96
1,70,0,1
1,72,0,378
1,74,61,3
1,74,0,262
1,74,60,29
1,74,0,38
1,74,60,57
1,74,0,189
1,69,58,2
1,69,0,191
1,62,75,2
1,62,0,245
1,62,75,44
1,62,0,31
1,62,69,64
1,62,0,342
1,62,74,41
1,62,0,237
1,62,64,50
1,62,0,43
1,62,72,54
1,62,0,381
1,70,58,3
1,70,0,257
1,70,54,32
1,70,0,95
1,72,60,2
1,72,0,368
1,74,65,12
1,74,0,248
1,74,50,43
1,74,0,35
1,74,60,60
1,74,0,91
1,62,75,4
1,62,0,90
1,67,75,5
1,68,69,95
1,67,0,3
1,69,58,94
1,68,0,1
1,69,0,266
1,69,62,25
1,69,0,32
1,69,65,63
1,69,0,381
1,70,62,1
1,70,0,266
1,70,65,24
1,70,0,32
1,70,72,64
1,70,0,384
1,67,62,0
1,67,0,261
1,67,72,28
1,67,0,36
1,67,65,60
1,67,0,359
1,72,59,20
1,72,0,254
1,72,75,36
1,72,0,477
1,69,62,4
1,69,0,258
1,69,65,31
1,69,0,49
1,69,74,46
1,70,59,387
1,69,0,6
1,70,0,243
1,70,72,38
1,70,0,27
1,70,65,69
1,70,0,366
1,67,59,16
1,67,0,248
1,67,64,40
1,67,0,33
1,67,75,63
1,72,64,384
1,67,0,2
1,72,0,1117
1,69,69,34
1,69,0,94
1,72,62,2
1,74,59,95
1,72,0,6
1,77,51,88
1,74,0,6
1,74,59,94
1,77,0,11
1,74,0,232
1,74,58,45
1,74,0,89
1,69,60,7
1,69,0,369
1,74,64,14
1,74,0,265
1,74,67,23
1,74,0,92
1,69,67,3
1,69,0,177
1,72,56,15
1,72,0,174
1,74,60,16
1,74,0,264
1,74,63,25
1,74,0,94
1,69,75,4
1,69,0,385
1,74,62,0
1,74,0,241
1,74,59,46
1,74,0,93
1,69,64,3
1,69,0,178
1,72,60,12
1,72,0,186
1,70,61,9
1,70,0,248
1,70,67,39
1,70,0,41
1,70,67,55
1,70,0,295
1,70,79,90
1,70,0,232
1,70,75,55
1,70,0,17
1,70,74,78
1,70,0,87
1,58,75,8
1,58,0,129
1,58,87,64
1,58,0,85
1,70,72,13
1,70,0,236
1,70,69,52
1,70,0,42
1,70,84,54
1,70,0,336
1,72,60,45
1,72,0,376
1,69,57,11
1,72,59,96
1,69,0,4
1,72,0,91
1,74,62,1
1,74,0,93
1,77,58,3
1,77,0,61
1,74,63,35
1,74,0,257
1,74,57,30
1,69,61,97
1,74,0,7
1,69,0,177
1,72,60,6
1,72,0,178
1,74,62,16
1,74,0,92
1,62,60,0
1,62,0,168
1,62,65,26
1,69,64,96
1,62,0,7
1,69,0,175
1,72,62,10
1,72,0,179
1,74,61,15
1,74,0,218
1,74,49,69
1,69,69,97
1,74,0,6
1,69,0,175
1,72,59,12
1,72,0,175
1,74,61,16
1,74,0,91
1,62,52,4
1,62,0,159
1,62,67,32
1,62,0,93
1,69,65,3
1,72,64,193
1,69,0,1
1,72,0,71
1,74,72,121
1,74,0,265
1,70,100,24
1,70,0,258
1,72,74,28
1,72,0,936
1,72,63,25
1,72,0,271
1,70,79,17
1,70,0,266
1,62,100,21
1,62,0,942
1,74,75,18
1,74,0,267
1,70,94,22
1,70,0,267
1,72,65,20
1,72,0,922
1,72,94,40
1,72,0,279
1,70,87,9
1,70,0,265
1,62,87,20
1,62,0,864
1,62,114,98
1,62,0,170
1,62,100,314
1,62,0,245
1,62,84,40
1,62,0,126
1,62,100,640
1,62,0,206
1,62,94,275
1,62,0,206
1,62,94,81
1,62,0,109
1,69,72,660
1,69,0,247
1,69,100,42
1,69,0,53
1,69,100,43
1,70,84,386
1,69,0,4
1,70,0,241
1,70,87,41
1,70,0,34
1,70,100,62
1,70,0,373
1,67,100,11
1,67,0,234
1,67,84,52
1,67,0,36
1,67,65,59
1,72,62,386
1,67,0,2
1,72,0,243
1,72,84,44
1,72,0,76
1,67,87,19
1,67,0,84
1,72,87,11
1,72,0,253
1,69,75,36
1,69,0,235
1,69,114,53
1,69,0,40
1,69,100,55
1,69,0,360
1,70,87,25
1,70,0,239
1,70,100,49
1,70,0,34
1,70,94,63
1,67,87,385
1,70,0,1
1,67,0,231
1,67,87,52
1,67,0,34
1,67,94,61
1,67,0,380
1,60,94,7
1,60,0,712
1,60,74,54
1,72,64,0
1,60,0,694
1,72,0,5
1,72,69,71
1,60,75,0
1,48,84,0
1,72,0,652
1,60,0,6
1,48,0,5
1,48,74,100
1,72,61,0
1,60,67,1
1,48,0,126
1,60,0,8
1,72,0,11
1,48,94,48
1,60,84,0
1,72,65,0
1,48,0,58
1,60,0,34
1,72,0,17
1,69,87,86
1,72,72,96
1,69,0,5
1,74,58,91
1,72,0,5
1,77,65,90
1,74,0,2
1,74,59,95
1,77,0,1
1,74,0,242
1,74,58,45
1,74,0,89
1,69,60,7
1,69,0,369
1,74,64,14
1,74,0,265
1,74,67,23
1,74,0,92
1,69,67,3
1,69,0,177
1,72,56,15
1,72,0,174
1,74,60,16
1,74,0,264
1,74,63,25
1,74,0,94
1,69,75,4
1,69,0,385
1,74,62,0
1,74,0,241
1,74,59,46
1,74,0,93
1,69,64,3
1,69,0,178
1,72,60,12
1,72,0,186
1,70,61,9
1,70,0,248
1,70,67,39
1,70,0,41
1,70,67,55
1,70,0,295
1,70,79,90
1,70,0,232
1,70,75,56
1,70,0,48
1,70,74,48
1,70,0,96
1,58,75,0
1,58,0,144
1,58,87,48
1,58,0,85
1,70,72,11
1,70,0,236
1,70,69,52
1,70,0,42
1,70,84,54
1,70,0,336
1,72,60,45
1,72,0,376
1,69,57,11
1,72,59,96
1,69,0,4
1,72,0,91
1,74,62,1
1,74,0,93
1,77,58,3
1,77,0,61
1,74,63,35
1,74,0,257
1,74,57,30
1,69,61,97
1,74,0,7
1,69,0,177
1,72,60,6
1,72,0,178
1,74,62,16
1,74,0,92
1,62,60,0
1,62,0,168
1,62,65,26
1,69,64,96
1,62,0,7
1,69,0,175
1,72,62,10
1,72,0,179
1,74,75,15
1,74,0,250
1,74,63,40
1,74,0,81
1,69,87,14
1,72,75,193
1,69,0,9
1,72,0,177
1,74,64,4
1,62,59,96
1,74,0,6
1,62,0,150
1,62,75,36
1,62,0,89
1,69,65,7
1,69,0,192
1,72,62,0
1,72,0,185
1,74,72,5
1,74,0,261
1,74,64,29
1,69,63,96
1,74,0,7
1,72,74,184
1,69,0,7
1,72,0,176
1,74,72,7
1,62,100,98
1,74,0,1
1,62,0,144
1,62,87,45
1,62,0,91
1,69,75,6
1,72,62,193
1,69,0,8
1,72,0,182
1,76,65,1
1,74,67,0
1,76,0,7
1,74,0,247
1,74,74,36
1,69,79,96
1,74,0,1
1,72,59,191
1,69,0,13
1,72,0,178
1,74,67,0
1,62,65,98
1,74,0,6
1,62,0,146
1,62,72,38
1,69,69,99
1,62,0,9
1,69,0,231
1,72,60,11
1,72,0,217
1,62,65,154
1,62,0,1101
2,74,87,6912
2,74,0,382
2,72,62,2
2,72,0,373
2,74,74,10
2,74,0,152
2,74,100,41
2,74,0,184
2,69,87,8
2,69,0,362
2,74,84,18
2,76,67,95
2,74,0,4
2,74,94,92
2,76,0,1
2,74,0,91
2,72,63,9
2,69,79,93
2,72,0,16
2,69,0,160
2,67,84,16
2,67,0,93
2,69,75,2
2,69,0,62
2,69,110,35
2,69,0,699
2,74,87,69
2,72,84,388
2,74,0,8
2,72,0,134
2,72,72,47
2,72,0,47
2,72,87,49
2,72,0,94
2,74,87,2
2,74,0,160
2,74,84,33
2,74,0,173
2,69,72,16
2,69,0,380
2,74,87,3
2,76,84,97
2,74,0,2
2,76,0,92
2,74,94,2
2,74,0,95
2,72,59,0
2,69,69,99
2,72,0,19
2,69,0,128
2,69,87,43
2,69,0,85
2,72,64,10
2,72,0,81
2,74,87,15
2,74,0,766
2,69,100,7
2,69,0,160
2,72,72,32
2,74,72,189
2,72,0,22
2,74,0,126
2,74,72,43
2,77,67,95
2,74,0,7
2,77,0,89
2,79,75,5
2,79,0,166
2,77,64,21
2,74,69,195
2,77,0,6
2,74,0,173
2,72,75,12
2,74,94,96
2,72,0,9
2,74,0,57
2,74,100,30
2,74,0,662
2,81,63,12
2,81,0,177
2,79,69,16
2,79,0,64
2,79,84,32
2,79,0,92
2,77,87,4
2,77,0,73
2,79,87,23
2,79,0,156
2,79,79,36
2,79,0,90
2,81,65,6
2,81,0,96
2,69,63,0
2,72,87,192
2,69,0,5
2,74,84,186
2,72,0,19
2,74,0,128
2,74,87,45
2,74,0,89
2,77,65,7
2,77,0,87
2,79,87,10
2,77,87,192
2,79,0,7
2,77,0,174
2,74,87,11
2,74,0,264
2,81,75,23
2,81,0,183
2,79,84,7
2,79,0,58
2,79,72,38
2,79,0,92
2,77,94,5
2,77,0,75
2,79,87,20
2,79,0,151
2,79,87,44
2,81,69,91
2,79,0,12
2,79,87,858
2,81,0,28
2,79,0,260
2,86,107,672
2,86,0,382
2,84,82,2
2,84,0,373
2,86,94,10
2,86,0,152
2,86,120,41
2,86,0,184
2,81,107,8
2,81,0,362
2,86,104,18
2,88,87,95
2,86,0,4
2,86,114,92
2,88,0,1
2,86,0,91
2,84,83,9
2,81,99,93
2,84,0,16
2,81,0,160
2,79,104,16
2,79,0,93
2,81,95,2
2,81,0,62
2,81,127,35
2,81,0,699
2,86,107,69
2,84,104,388
2,86,0,8
2,84,0,134
2,86,107,239
2,86,0,160
2,86,104,33
2,86,0,173
2,81,92,16
2,81,0,380
2,86,107,3
2,88,104,97
2,86,0,2
2,88,0,92
2,86,114,2
2,86,0,95
2,84,79,0
2,81,89,99
2,84,0,19
2,81,0,128
2,81,107,43
2,81,0,85
2,84,84,10
2,84,0,81
2,86,107,15
2,86,0,407
2,81,120,366
2,81,0,160
2,84,92,32
2,86,92,189
2,84,0,22
2,86,0,126
2,86,92,43
2,89,87,95
2,86,0,7
2,89,0,89
2,91,95,5
2,91,0,166
2,89,84,21
2,86,89,195
2,89,0,6
2,86,0,173
2,84,95,12
2,86,114,96
2,84,0,9
2,86,0,57
2,86,120,30
2,86,0,480
2,93,83,194
2,93,0,177
2,91,89,16
2,91,0,64
2,91,104,32
2,91,0,92
2,89,107,4
2,89,0,73
2,91,107,23
2,91,0,156
2,91,99,36
2,91,0,90
2,93,85,6
2,93,0,96
2,81,83,0
2,84,107,192
2,81,0,5
2,86,104,186
2,84,0,1
2,86,0,146
2,86,107,45
2,86,0,89
2,89,85,7
2,89,0,87
2,91,107,10
2,89,107,192
2,91,0,7
2,89,0,174
2,86,107,11
2,86,0,264
2,93,95,23
2,93,0,183
2,91,104,7
2,91,0,58
2,91,92,38
2,91,0,92
2,89,114,5
2,89,0,75
2,91,107,20
2,91,0,151
2,91,107,44
2,93,89,96
2,91,0,7
2,93,0,857
2,91,69,0
2,91,0,199
2,81,104,576
2,81,0,180
2,84,107,10
2,86,99,195
2,84,0,11
2,86,0,148
2,86,120,31
2,86,0,95
2,89,80,2
2,91,89,98
2,89,0,2
2,91,0,187
2,89,92,2
2,89,0,187
2,86,84,4
2,86,0,184
2,84,107,8
2,86,127,96
2,84,0,4
2,86,0,44
2,86,127,49
2,86,0,637
2,93,84,32
2,91,95,194
2,93,0,1
2,91,0,52
2,91,107,44
2,91,0,89
2,89,104,5
2,91,114,97
2,89,0,10
2,91,0,146
2,91,107,37
2,93,87,96
2,91,0,14
2,93,0,74
2,98,78,8
2,96,87,98
2,98,0,15
2,96,0,55
