track,note,velocity,time
0,59,51,1148
0,62,54,0
0,67,50,0
0,61,50,2
0,64,50,0
0,69,51,0
0,33,107,0
0,35,119,0
0,42,95,0
0,61,51,24
0,64,53,0
0,69,52,0
0,45,103,0
0,42,65,0
0,73,79,26
0,76,79,0
0,81,79,0
0,61,52,0
0,64,55,0
0,69,54,0
0,43,103,0
0,38,104,0
0,42,95,0
0,61,53,20
0,64,53,0
0,69,50,0
0,42,103,0
0,42,65,0
0,40,106,16
0,35,113,0
0,42,95,0
0,59,52,54
0,62,52,0
0,67,50,0
0,38,105,0
0,35,118,0
0,42,65,0
0,73,79,36
0,76,79,0
0,81,79,0
0,36,102,0
0,38,104,0
0,42,95,0
0,43,126,12
0,73,79,0
0,76,79,0
0,81,79,0
0,61,52,0
0,64,54,0
0,69,50,0
0,33,105,0
0,42,71,0
0,45,110,10
0,35,120,0
0,42,95,0
0,64,118,36
0,67,119,0
0,72,113,0
0,67,79,0
0,72,79,0
0,76,79,0
0,36,107,0
0,42,70,0
0,38,106,22
0,42,95,0
0,66,115,188
0,69,118,0
0,74,116,0
0,69,79,0
0,74,79,0
0,78,79,0
0,38,102,0
0,42,68,0
0,35,112,20
0,42,95,0
0,64,113,188
0,67,120,0
0,72,112,0
0,67,79,0
0,72,79,0
0,76,79,0
0,36,107,0
0,35,116,0
0,42,69,0
0,38,107,22
0,42,95,0
0,59,50,188
0,62,50,0
0,67,52,0
0,31,107,0
0,42,65,0
0,81,86,2
0,61,53,0
0,64,52,0
0,69,52,0
0,33,103,0
0,35,115,0
0,42,95,0
0,61,54,24
0,64,52,0
0,69,54,0
0,45,107,0
0,42,71,0
0,73,79,26
0,76,79,0
0,81,79,0
0,61,53,0
0,64,51,0
0,69,51,0
0,43,107,0
0,38,109,0
0,42,95,0
0,61,51,20
0,64,52,0
0,69,52,0
0,42,104,0
0,42,70,0
0,40,106,16
0,35,114,0
0,42,95,0
0,59,52,54
0,62,51,0
0,67,54,0
0,38,102,0
0,35,119,0
0,42,73,0
0,73,79,36
0,76,79,0
0,81,79,0
0,36,102,0
0,38,108,0
0,42,95,0
0,43,126,12
0,73,79,0
0,76,79,0
0,81,79,0
0,61,53,0
0,64,54,0
0,69,52,0
0,33,105,0
0,42,69,0
0,45,110,10
0,35,117,0
0,42,95,0
0,64,113,36
0,67,114,0
0,72,116,0
0,67,79,0
0,72,79,0
0,76,79,0
0,36,103,0
0,42,66,0
0,38,107,22
0,42,95,0
0,66,115,188
0,69,117,0
0,74,112,0
0,69,79,0
0,74,79,0
0,78,79,0
0,38,106,0
0,42,70,0
0,35,112,20
0,42,95,0
0,64,112,188
0,67,114,0
0,72,115,0
0,67,79,0
0,72,79,0
0,76,79,0
0,36,107,0
0,35,115,0
0,42,65,0
0,38,107,22
0,42,95,0
0,55,90,188
0,67,90,0
0,59,52,0
0,62,52,0
0,67,54,0
0,31,106,0
0,42,66,0
0,57,90,2
0,69,90,0
0,61,53,0
0,64,51,0
0,69,51,0
0,33,102,0
0,35,118,0
0,42,95,0
0,69,90,24
0,81,90,0
0,61,51,0
0,64,52,0
0,69,50,0
0,45,102,0
0,42,70,0
0,67,87,26
0,79,87,0
0,73,79,0
0,76,79,0
0,81,79,0
0,61,53,0
0,64,51,0
0,69,54,0
0,43,104,0
0,38,107,0
0,42,95,0
0,66,91,20
0,78,91,0
0,61,54,0
0,64,54,0
0,69,54,0
0,42,103,0
0,42,65,0
0,64,91,16
0,76,91,0
0,40,107,0
0,35,119,0
0,42,95,0
0,62,88,36
0,74,88,0
0,59,52,0
0,62,50,0
0,67,53,0
0,38,102,0
0,35,112,0
0,42,69,0
0,60,87,36
0,72,87,0
0,73,79,0
0,76,79,0
0,81,79,0
0,61,52,0
0,64,53,0
0,69,50,0
0,36,102,0
0,38,107,0
0,42,95,0
0,43,126,12
0,57,89,0
0,69,89,0
0,73,79,0
0,76,79,0
0,81,79,0
0,61,52,0
0,64,54,0
0,69,53,0
0,33,103,0
0,42,70,0
0,45,110,10
0,35,113,0
0,42,95,0
0,64,111,36
0,67,119,0
0,72,117,0
0,67,79,0
0,72,79,0
0,76,79,0
0,36,106,0
0,42,72,0
0,38,106,22
0,42,95,0
0,66,112,188
0,69,112,0
0,74,113,0
0,69,79,0
0,74,79,0
0,78,79,0
0,38,106,0
0,42,70,0
0,35,113,20
0,42,95,0
0,64,115,188
0,67,117,0
0,72,119,0
0,67,79,0
0,72,79,0
0,76,79,0
0,36,106,0
0,35,119,0
0,42,66,0
0,38,107,22
0,42,95,0
0,55,90,166
0,67,90,0
0,59,51,0
0,62,52,0
0,67,51,0
0,31,105,0
0,42,70,0
0,57,88,2
0,69,88,0
0,61,50,0
0,64,54,0
0,69,52,0
0,33,105,0
0,35,115,0
0,42,95,0
0,69,90,24
0,81,90,0
0,61,53,0
0,64,51,0
0,69,51,0
0,45,104,0
0,42,70,0
0,67,91,26
0,79,91,0
0,73,79,0
0,76,79,0
0,81,79,0
0,61,54,0
0,64,52,0
0,69,51,0
0,43,102,0
0,38,108,0
0,42,95,0
0,66,88,20
0,78,88,0
0,61,54,0
0,64,54,0
0,69,51,0
0,42,107,0
0,42,67,0
0,64,87,16
0,76,87,0
0,40,105,0
0,35,115,0
0,42,95,0
0,62,88,26
0,74,88,0
0,59,54,0
0,62,50,0
0,67,51,0
0,38,107,0
0,35,117,0
0,42,71,0
0,60,87,36
0,72,87,0
0,73,79,0
0,76,79,0
0,81,79,0
0,61,53,0
0,64,53,0
0,69,50,0
0,36,107,0
0,38,106,0
0,42,95,0
0,43,126,4
0,57,91,0
0,69,91,0
0,73,79,0
0,76,79,0
0,81,79,0
0,61,51,0
0,64,52,0
0,69,51,0
0,33,103,0
0,42,65,0
0,45,110,4
0,73,79,0
0,76,79,0
0,81,79,0
0,61,51,0
0,64,52,0
0,69,54,0
0,35,113,0
0,42,95,0
0,36,103,36
0,42,70,0
0,38,105,188
0,42,95,0
0,55,120,60
0,67,113,0
0,31,105,0
0,42,70,0
0,57,112,44
0,69,118,0
0,33,106,0
0,35,116,0
0,42,95,0
0,59,117,32
0,71,112,0
0,35,104,0
0,38,106,0
0,42,72,0
0,61,116,66
0,73,113,0
0,37,102,0
0,38,104,0
0,42,95,0
0,66,112,98
0,69,118,0
0,74,112,0
0,74,79,0
0,78,79,0
0,81,79,0
0,38,103,0
0,35,113,0
0,42,69,0
0,35,121,188
0,42,95,0
0,60,118,188
0,42,70,0
0,60,120,12
0,38,108,0
0,42,95,0
0,60,123,20
0,38,105,0
0,42,68,0
0,57,122,22
0,38,102,0
0,35,118,0
0,42,95,0
0,54,124,14
0,38,105,0
0,35,112,0
0,42,69,0
0,38,105,54
0,42,95,0
0,73,74,10
0,78,74,0
0,81,74,0
0,42,103,0
0,42,71,0
0,42,106,90
0,35,116,0
0,42,95,0
0,66,118,188
0,42,69,0
0,60,124,8
0,38,107,0
0,42,95,0
0,59,121,10
0,42,103,0
0,42,68,0
0,57,119,22
0,42,102,0
0,35,119,0
0,42,95,0
0,54,118,20
0,42,104,0
0,35,114,0
0,42,67,0
0,38,105,76
0,42,95,0
0,61,126,48
0,61,124,0
0,73,74,0
0,77,74,0
0,80,74,0
0,37,104,0
0,42,70,0
0,37,106,86
0,35,114,0
0,42,95,0
0,62,126,2
0,62,124,0
0,42,71,0
0,61,126,2
0,61,119,0
0,38,108,0
0,42,95,0
0,62,126,2
0,62,124,0
0,37,104,0
0,42,68,0
0,61,126,42
0,61,124,0
0,37,103,0
0,35,115,0
0,42,95,0
0,37,107,22
0,35,116,0
0,42,72,0
0,59,126,2
0,59,124,0
0,38,104,0
0,42,95,0
0,59,126,46
0,59,122,0
0,71,74,0
0,75,74,0
0,78,74,0
0,35,104,0
0,42,72,0
0,57,126,2
0,57,121,0
0,35,105,0
0,35,118,0
0,42,95,0
0,42,68,188
0,38,106,188
0,42,95,0
0,35,105,4
0,42,65,0
0,35,103,22
0,35,115,0
0,42,95,0
0,35,102,46
0,35,117,0
0,42,66,0
0,38,106,44
0,42,95,0
0,59,126,6
0,59,118,0
0,35,103,0
0,42,67,0
0,71,74,92
0,74,74,0
0,78,74,0
0,35,104,0
0,35,117,0
0,42,95,0
0,57,126,2
0,57,118,0
0,42,65,0
0,57,126,92
0,57,123,0
0,38,108,0
0,42,95,0
0,35,107,142
0,42,67,0
0,35,106,112
0,35,113,0
0,42,95,0
0,62,126,12
0,62,118,0
0,35,107,0
0,35,117,0
0,42,71,0
0,35,107,70
0,38,109,0
0,42,95,0
0,61,126,22
0,61,118,0
0,74,74,0
0,78,74,0
0,81,74,0
0,38,107,0
0,42,68,0
0,57,122,20
0,35,113,0
0,42,95,0
0,42,69,188
0,61,126,86
0,61,118,0
0,38,105,0
0,42,95,0
0,62,126,14
0,62,120,0
0,38,107,0
0,42,69,0
0,61,126,16
0,61,124,0
0,38,103,0
0,35,116,0
0,42,95,0
0,38,104,74
0,35,117,0
0,42,70,0
0,57,126,36
0,57,121,0
0,38,105,0
0,38,108,0
0,42,95,0
0,57,126,78
0,57,119,0
0,33,106,0
0,42,66,0
0,73,74,90
0,76,74,0
0,81,74,0
0,33,103,0
0,35,120,0
0,42,95,0
0,42,68,56
0,38,107,50
0,42,95,0
0,33,106,10
0,42,72,0
0,33,102,18
0,35,118,0
0,42,95,0
0,59,113,34
0,62,116,0
0,67,113,0
0,71,74,0
0,74,74,0
0,79,74,0
0,31,106,0
0,35,120,0
0,42,68,0
0,31,106,6
0,38,105,0
0,42,95,0
0,61,117,96
0,64,111,0
0,69,112,0
0,73,74,0
0,76,74,0
0,81,74,0
0,33,102,0
0,42,66,0
0,33,105,104
0,35,114,0
0,42,95,0
0,33,103,36
0,42,70,0
0,38,109,54
0,42,95,0
0,67,88,8
0,55,113,0
0,67,113,0
0,31,102,0
0,42,72,0
0,69,87,104
0,57,120,0
0,69,118,0
0,33,103,0
0,35,120,0
0,42,95,0
0,71,89,4
0,59,115,0
0,71,120,0
0,35,104,0
0,35,114,0
0,42,71,0
0,73,91,114
0,61,113,0
0,73,114,0
0,37,105,0
0,38,106,0
0,42,95,0
0,66,53,112
0,69,52,0
0,74,52,0
0,66,114,0
0,69,116,0
0,74,114,0
0,74,74,0
0,78,74,0
0,81,74,0
0,38,106,0
0,42,67,0
0,35,116,188
0,42,95,0
0,60,124,188
0,42,72,0
0,60,118,2
0,38,104,0
0,42,95,0
0,57,121,2
0,38,107,0
0,42,68,0
0,57,120,82
0,38,106,0
0,35,118,0
0,42,95,0
0,54,121,14
0,38,102,0
0,35,116,0
0,42,69,0
0,57,119,44
0,38,104,0
0,42,95,0
0,66,51,20
0,69,54,0
0,73,53,0
0,73,74,0
0,78,74,0
0,81,74,0
0,30,102,0
0,42,67,0
0,30,106,16
0,35,113,0
0,42,95,0
0,60,118,0
0,42,72,0
0,59,119,74
0,38,107,0
0,42,95,0
0,57,120,32
0,30,106,0
0,42,65,0
0,57,124,90
0,30,102,0
0,35,120,0
0,42,95,0
0,30,107,36
0,35,115,0
0,42,68,0
0,54,119,6
0,38,106,0
0,42,95,0
0,57,119,2
0,65,52,0
0,68,54,0
0,71,53,0
0,73,74,0
0,77,74,0
0,80,74,0
0,37,107,0
0,42,72,0
0,61,126,92
0,61,121,0
0,37,106,0
0,35,120,0
0,42,95,0
0,62,126,2
0,62,124,0
0,42,68,0
0,61,126,8
0,61,121,0
0,38,108,0
0,42,95,0
0,62,126,6
0,62,123,0
0,37,107,0
0,42,70,0
0,61,126,4
0,61,119,0
0,37,103,0
0,35,112,0
0,42,95,0
0,37,105,34
0,35,117,0
0,42,67,0
0,59,126,30
0,59,123,0
0,38,104,0
0,42,95,0
0,59,126,46
0,59,118,0
0,63,55,0
0,66,52,0
0,69,51,0
0,71,74,0
0,75,74,0
0,78,74,0
0,35,106,0
0,42,71,0
0,57,126,10
0,57,120,0
0,35,107,0
0,35,119,0
0,42,95,0
0,42,66,188
0,38,110,20
0,42,95,0
0,35,107,50
0,42,65,0
0,73,86,68
0,35,106,0
0,35,120,0
0,42,95,0
0,71,85,14
0,35,103,0
0,35,118,0
0,42,71,0
0,66,88,54
0,38,108,0
0,42,95,0
0,59,126,14
0,59,120,0
0,69,87,0
0,35,104,0
0,42,71,0
0,71,74,48
0,74,74,0
0,78,74,0
0,35,103,0
0,35,121,0
0,42,95,0
0,57,126,8
0,57,121,0
0,42,65,0
0,57,126,112
0,57,122,0
0,38,106,0
0,42,95,0
0,71,79,16
0,35,105,0
0,42,72,0
0,35,103,14
0,35,115,0
0,42,95,0
0,62,126,50
0,62,121,0
0,66,76,0
0,35,107,0
0,35,120,0
0,42,70,0
0,69,79,32
0,38,107,0
0,42,95,0
0,61,126,12
0,61,118,0
0,74,74,0
0,78,74,0
0,81,74,0
0,38,106,0
0,42,70,0
0,38,103,92
0,35,114,0
0,42,95,0
0,42,70,188
0,61,126,70
0,61,121,0
0,38,105,0
0,42,95,0
0,62,126,4
0,62,118,0
0,38,103,0
0,42,72,0
0,61,126,12
0,61,121,0
0,38,105,0
0,35,116,0
0,42,95,0
0,38,106,64
0,35,121,0
0,42,70,0
0,57,126,2
0,57,121,0
0,66,78,0
0,38,105,0
0,38,107,0
0,42,95,0
0,57,126,76
0,57,124,0
0,69,76,0
0,33,102,0
0,42,65,0
0,73,74,96
0,76,74,0
0,81,74,0
0,33,107,0
0,35,120,0
0,42,95,0
0,33,107,52
0,42,70,0
0,38,109,0
0,42,95,0
0,33,107,16
0,42,72,0
0,33,104,8
0,35,115,0
0,42,95,0
0,59,90,72
0,62,90,0
0,67,86,0
0,71,74,0
0,74,74,0
0,79,74,0
0,31,107,0
0,35,118,0
0,42,69,0
0,38,108,42
0,42,95,0
0,61,91,50
0,64,88,0
0,69,88,0
0,69,74,0
0,73,74,0
0,76,74,0
0,33,105,0
0,42,71,0
0,33,103,84
0,35,120,0
0,42,95,0
0,61,126,188
0,42,66,0
0,38,105,188
0,42,95,0
0,59,126,106
0,33,107,0
0,42,70,0
0,33,104,18
0,35,115,0
0,42,95,0
0,57,126,72
0,61,86,0
0,64,89,0
0,69,85,0
0,33,104,0
0,35,113,0
0,42,65,0
0,69,76,72
0,33,106,0
0,38,105,0
0,42,95,0
0,71,76,2
0,73,78,0
0,55,126,2
0,74,79,0
0,59,91,0
0,62,85,0
0,67,86,0
0,55,57,0
0,59,57,0
0,62,55,0
0,31,103,0
0,42,70,0
0,76,77,2
0,78,78,2
0,79,71,2
0,67,74,0
0,71,74,0
0,74,74,0
0,31,104,0
0,35,120,0
0,42,95,0
0,55,58,28
0,59,55,0
0,62,56,0
0,42,69,0
0,59,123,2
0,55,57,0
0,59,58,0
0,64,59,0
0,38,108,0
0,42,95,0
0,62,125,2
0,55,58,0
0,59,59,0
0,62,56,0
0,31,104,0
0,42,71,0
0,59,124,2
0,55,55,0
0,59,57,0
0,64,55,0
0,31,104,0
0,35,113,0
0,42,95,0
0,55,124,2
0,81,73,0
0,55,58,0
0,59,56,0
0,62,55,0
0,31,104,0
0,35,113,0
0,42,65,0
0,55,124,2
0,84,73,0
0,38,104,0
0,42,95,0
0,58,126,10
0,82,71,0
0,62,92,0
0,65,91,0
0,70,90,0
0,70,74,0
0,74,74,0
0,77,74,0
0,58,57,0
0,62,57,0
0,65,58,0
0,34,104,0
0,42,67,0
0,34,105,20
0,35,112,0
0,42,95,0
0,58,58,2
0,62,57,0
0,65,57,0
0,34,104,0
0,42,70,0
0,62,121,2
0,58,57,0
0,62,55,0
0,67,55,0
0,38,109,0
0,42,95,0
0,65,124,2
0,58,55,0
0,62,56,0
0,65,58,0
0,34,107,0
0,42,66,0
0,62,125,2
0,58,57,0
0,62,58,0
0,67,56,0
0,34,105,0
0,35,119,0
0,42,95,0
0,58,124,2
0,58,58,0
0,62,58,0
0,65,55,0
0,29,102,0
0,35,120,0
0,42,66,0
0,58,122,2
0,84,73,0
0,29,106,0
0,38,106,0
0,42,95,0
