track,note,velocity,time
1,50,127,23753
1,50,0,838
1,47,127,2
1,50,127,120
1,47,0,13
1,47,127,107
1,50,0,1
1,47,0,123
1,45,127,116
1,45,0,166
1,47,127,74
1,45,127,120
1,47,0,10
1,45,0,106
1,40,127,4
1,40,0,848
1,38,127,352
1,38,0,116
1,40,127,124
1,40,0,157
1,38,127,83
1,38,0,114
1,40,127,6
1,38,127,120
1,40,0,7
1,38,0,93
1,31,127,20
1,31,0,768
1,43,127,72
1,43,0,125
1,43,127,115
1,43,0,154
1,43,127,86
1,43,0,181
1,42,127,59
1,42,0,120
1,40,127,0
1,40,0,130
1,38,127,110
1,38,0,89
1,38,127,31
1,38,0,129
1,38,127,111
1,38,0,165
1,38,127,75
1,38,0,126
1,38,127,114
1,38,0,200
1,35,127,40
1,33,127,120
1,35,0,4
1,33,0,87
1,38,127,29
1,38,0,179
1,38,127,61
1,35,127,120
1,38,0,8
1,33,127,112
1,35,0,5
1,33,0,89
1,38,127,26
1,38,0,252
1,38,127,108
1,38,0,96
1,38,127,144
1,38,0,135
1,38,127,105
1,38,0,146
1,38,127,94
1,33,127,120
1,38,0,25
1,33,0,81
1,38,127,14
1,38,0,199
1,38,127,41
1,38,0,114
1,35,127,6
1,33,127,120
1,35,0,10
1,33,0,103
1,40,127,7
1,40,0,199
1,40,127,41
1,40,0,53
1,40,127,67
1,35,127,120
1,40,0,8
1,40,127,112
1,35,0,2
1,28,127,118
1,40,0,11
1,28,0,33
1,28,127,76
1,28,0,157
1,29,127,83
1,29,0,139
1,30,127,101
1,30,0,126
1,30,127,114
1,30,0,132
1,31,127,108
1,31,0,346
1,43,127,14
1,43,0,131
1,43,127,109
1,43,0,200
1,40,127,40
1,40,0,110
1,38,127,10
1,38,0,125
1,31,127,115
1,31,0,126
1,31,127,114
1,43,127,120
1,31,0,22
1,31,127,98
1,43,0,21
1,31,0,90
1,43,127,9
1,31,127,120
1,43,0,7
1,31,0,113
1,38,127,0
1,38,0,83
1,38,127,37
1,38,0,137
1,38,127,103
1,38,0,207
1,35,127,33
1,35,0,120
1,33,127,0
1,33,0,120
1,38,127,0
1,38,0,175
1,38,127,65
1,35,127,120
1,38,0,18
1,35,0,86
1,38,127,16
1,38,0,177
1,38,127,63
1,35,127,120
1,38,0,5
1,35,0,107
1,33,127,8
1,33,0,85
1,38,127,35
1,38,0,187
1,38,127,53
1,38,0,117
1,35,127,3
1,33,127,120
1,35,0,18
1,33,0,58
1,35,127,44
1,33,127,120
1,35,0,41
1,33,0,11
1,38,127,68
1,38,0,195
1,38,127,45
1,38,0,116
1,35,127,4
1,35,0,96
1,33,127,24
1,33,0,101
1,38,127,19
1,38,0,62
1,38,127,58
1,35,127,120
1,38,0,12
1,35,0,80
1,38,127,28
1,38,0,118
1,33,127,2
1,33,0,63
1,33,127,57
1,33,0,142
1,33,127,98
1,33,0,214
1,28,127,26
1,30,127,120
1,28,0,4
1,30,0,68
1,33,127,48
1,33,0,166
1,33,127,74
1,28,127,120
1,33,0,9
1,28,0,91
1,33,127,20
1,33,0,174
1,33,127,66
1,33,0,118
1,36,127,122
1,36,0,221
1,36,127,19
1,36,0,169
1,36,127,71
1,36,0,231
1,33,127,9
1,33,0,91
1,31,127,29
1,31,0,104
1,36,127,16
1,36,0,159
1,36,127,81
1,36,0,137
1,36,127,103
1,36,0,172
1,36,127,68
1,36,0,170
1,38,127,70
1,38,0,166
1,38,127,74
1,38,0,107
1,35,127,13
1,33,127,120
1,35,0,6
1,33,0,106
1,38,127,8
1,38,0,58
1,38,127,62
1,35,127,120
1,38,0,8
1,35,0,54
1,38,127,58
1,38,0,129
1,38,127,111
1,35,127,120
1,38,0,20
1,35,0,45
1,38,127,55
1,38,0,163
1,40,127,77
1,42,127,120
1,40,0,3
1,42,0,95
1,45,127,22
1,45,0,91
1,38,127,29
1,38,0,187
1,38,127,53
1,38,0,145
1,35,127,95
1,33,127,120
1,35,0,6
1,38,127,114
1,33,0,5
1,38,0,66
1,38,127,49
1,38,0,139
1,38,127,101
1,38,0,120
1,35,127,0
1,35,0,102
1,38,127,18
1,38,0,124
1,38,127,116
1,35,127,120
1,38,0,5
1,35,0,61
1,38,127,54
1,38,0,74
1,33,127,46
1,33,0,168
1,33,127,72
1,33,0,219
1,28,127,21
1,30,127,120
1,28,0,1
1,28,127,119
1,30,0,18
1,28,0,61
1,33,127,41
1,33,0,174
1,33,127,66
1,33,0,150
1,33,127,90
1,33,0,50
1,33,127,70
1,33,0,60
1,35,127,60
1,35,0,134
1,36,127,106
1,36,0,292
1,36,127,68
1,36,0,138
1,36,127,102
1,33,127,120
1,36,0,14
1,33,0,94
1,31,127,12
1,31,0,103
1,36,127,17
1,36,0,127
1,36,127,113
1,36,0,122
1,36,127,118
1,33,127,240
1,36,0,9
1,31,127,111
1,33,0,16
1,31,0,93
1,38,127,11
1,38,0,155
1,38,127,85
1,38,0,131
1,38,127,109
1,38,0,162
1,42,127,78
1,42,0,125
1,43,127,115
1,43,0,127
1,44,127,113
1,44,0,116
1,44,127,124
1,44,0,61
1,45,127,59
1,45,0,99
1,33,127,141
1,33,0,703
1,38,127,17
1,38,0,359
1,33,127,1
1,33,0,323
1,38,127,37
1,33,127,360
1,38,0,11
1,33,0,327
1,38,127,22
1,33,127,240
1,38,0,29
1,33,0,183
1,34,127,28
1,46,127,360
1,34,0,16
1,46,0,337
1,41,127,7
1,34,127,360
1,41,0,24
1,34,0,334
1,46,127,2
1,41,127,240
1,46,0,5
1,38,127,235
1,41,0,1
1,33,127,359
1,38,0,10
1,33,0,327
1,38,127,23
1,33,127,360
1,38,0,11
1,33,0,334
1,38,127,15
1,33,127,240
1,38,0,68
1,33,0,85
1,34,127,87
1,34,0,357
1,46,127,3
1,46,0,318
1,45,127,42
1,33,127,360
1,45,0,8
1,33,0,175
1,33,127,57
1,33,0,117
1,45,127,3
1,40,127,120
1,45,0,7
1,33,127,113
1,40,0,11
1,33,0,89
1,50,127,140
1,50,0,838
1,47,127,2
1,50,127,120
1,47,0,13
1,47,127,107
1,50,0,1
1,47,0,123
1,45,127,116
1,45,0,166
1,47,127,74
1,45,127,120
1,47,0,10
1,45,0,106
1,40,127,4
1,40,0,848
1,38,127,352
1,38,0,116
1,40,127,124
1,40,0,157
1,38,127,83
1,38,0,114
1,40,127,6
1,38,127,120
1,40,0,7
1,38,0,93
1,31,127,20
1,31,0,768
1,43,127,72
1,43,0,125
1,43,127,115
1,43,0,154
1,43,127,86
1,43,0,181
1,42,127,59
1,42,0,120
1,40,127,0
1,40,0,130
1,38,127,110
1,38,0,89
1,38,127,31
1,38,0,129
1,38,127,111
1,38,0,165
1,38,127,75
1,38,0,126
1,38,127,114
1,38,0,200
1,35,127,40
1,33,127,120
1,35,0,4
1,33,0,87
1,38,127,29
1,38,0,179
1,38,127,61
1,35,127,120
1,38,0,8
1,33,127,112
1,35,0,5
1,33,0,89
1,38,127,26
1,38,0,252
1,38,127,108
1,38,0,96
1,38,127,144
1,38,0,135
1,38,127,105
1,38,0,146
1,38,127,94
1,33,127,120
1,38,0,25
1,33,0,81
1,38,127,14
1,38,0,199
1,38,127,41
1,38,0,114
1,35,127,6
1,33,127,120
1,35,0,10
1,33,0,103
1,40,127,7
1,40,0,199
1,40,127,41
1,40,0,53
1,40,127,67
1,35,127,120
1,40,0,8
1,40,127,112
1,35,0,2
1,28,127,118
1,40,0,11
1,28,0,33
1,28,127,76
1,28,0,157
1,29,127,83
1,29,0,139
1,30,127,101
1,30,0,126
1,30,127,114
1,30,0,132
1,31,127,108
1,31,0,346
1,43,127,14
1,43,0,131
1,43,127,109
1,43,0,200
1,40,127,40
1,40,0,110
1,38,127,10
1,38,0,125
1,31,127,115
1,31,0,126
1,31,127,114
1,43,127,120
1,31,0,22
1,31,127,98
1,43,0,21
1,31,0,90
1,43,127,9
1,31,127,120
1,43,0,7
1,31,0,113
1,38,127,0
1,38,0,83
1,38,127,37
1,38,0,137
1,38,127,103
1,38,0,207
1,35,127,33
1,35,0,120
1,33,127,0
1,33,0,120
1,38,127,0
1,38,0,175
1,38,127,65
1,35,127,120
1,38,0,18
1,35,0,86
1,38,127,16
1,38,0,177
1,38,127,63
1,35,127,120
1,38,0,5
1,35,0,107
1,33,127,8
1,33,0,85
1,38,127,35
1,38,0,187
1,38,127,53
1,38,0,117
1,35,127,3
1,33,127,120
1,35,0,18
1,33,0,58
1,35,127,44
1,33,127,120
1,35,0,41
1,33,0,11
1,38,127,68
1,38,0,195
1,38,127,45
1,38,0,116
1,35,127,4
1,35,0,96
1,33,127,24
1,33,0,101
1,38,127,19
1,38,0,62
1,38,127,58
1,35,127,120
1,38,0,12
1,35,0,80
1,38,127,28
1,38,0,118
1,33,127,2
1,33,0,63
1,33,127,57
1,33,0,142
1,33,127,98
1,33,0,214
1,28,127,26
1,30,127,120
1,28,0,4
1,30,0,68
1,33,127,48
1,33,0,166
1,33,127,74
1,28,127,120
1,33,0,9
1,28,0,91
1,33,127,20
1,33,0,174
1,33,127,66
1,33,0,118
1,36,127,122
1,36,0,221
1,36,127,19
1,36,0,169
1,36,127,71
1,36,0,231
1,33,127,9
1,33,0,91
1,31,127,29
1,31,0,104
1,36,127,16
1,36,0,159
1,36,127,81
1,36,0,137
1,36,127,103
1,36,0,172
1,36,127,68
1,36,0,170
1,38,127,70
1,38,0,166
1,38,127,74
1,38,0,107
1,35,127,13
1,33,127,120
1,35,0,6
1,33,0,106
1,38,127,8
1,38,0,58
1,38,127,62
1,35,127,120
1,38,0,8
1,35,0,54
1,38,127,58
1,38,0,129
1,38,127,111
1,35,127,120
1,38,0,20
1,35,0,45
1,38,127,55
1,38,0,163
1,40,127,77
1,42,127,120
1,40,0,3
1,42,0,95
1,45,127,22
1,45,0,91
1,38,127,29
1,38,0,187
1,38,127,53
1,38,0,117
1,35,127,3
1,33,127,120
1,35,0,18
1,33,0,58
1,35,127,44
1,33,127,120
1,35,0,41
1,33,0,11
1,38,127,68
1,38,0,195
1,38,127,45
1,38,0,116
1,35,127,4
1,35,0,96
1,33,127,24
1,33,0,101
1,38,127,19
1,38,0,62
1,38,127,58
1,35,127,120
1,38,0,12
1,35,0,80
1,38,127,28
1,38,0,118
1,33,127,2
1,33,0,63
1,33,127,57
1,33,0,142
1,33,127,98
1,33,0,214
1,28,127,26
1,30,127,120
1,28,0,4
1,30,0,68
1,33,127,48
1,33,0,166
1,33,127,74
1,28,127,120
1,33,0,9
1,28,0,91
1,33,127,20
1,33,0,174
1,33,127,66
1,33,0,118
1,36,127,122
1,36,0,221
1,36,127,19
1,36,0,169
1,36,127,71
1,36,0,231
1,33,127,9
1,33,0,91
1,31,127,29
1,31,0,104
1,36,127,16
1,36,0,159
1,36,127,81
1,36,0,137
1,36,127,103
1,36,0,172
1,36,127,68
1,36,0,170
1,38,127,70
1,38,0,166
1,38,127,74
1,38,0,107
1,35,127,13
1,33,127,120
1,35,0,6
1,33,0,106
1,38,127,8
1,38,0,58
1,38,127,62
1,35,127,120
1,38,0,8
1,35,0,54
1,38,127,58
1,38,0,129
1,38,127,111
1,35,127,120
1,38,0,20
1,35,0,45
1,38,127,55
1,38,0,163
1,40,127,77
1,42,127,120
1,40,0,3
1,42,0,95
1,45,127,22
1,45,0,91
1,38,127,29
1,38,0,187
1,38,127,53
1,38,0,145
1,35,127,95
1,33,127,120
1,35,0,6
1,38,127,114
1,33,0,5
1,38,0,66
1,38,127,49
1,38,0,139
1,38,127,101
1,38,0,120
1,35,127,0
1,35,0,102
1,38,127,18
1,38,0,124
1,38,127,116
1,35,127,120
1,38,0,5
1,35,0,61
1,38,127,54
1,38,0,74
1,33,127,46
1,33,0,168
1,33,127,72
1,33,0,219
1,28,127,21
1,30,127,120
1,28,0,1
1,28,127,119
1,30,0,18
1,28,0,61
1,33,127,41
1,33,0,174
1,33,127,66
1,33,0,150
1,33,127,90
1,33,0,50
1,33,127,70
1,33,0,60
1,35,127,60
1,35,0,134
1,36,127,106
1,36,0,292
1,36,127,68
1,36,0,138
1,36,127,102
1,33,127,120
1,36,0,14
1,33,0,94
1,31,127,12
1,31,0,103
1,36,127,17
1,36,0,127
1,36,127,113
1,36,0,122
1,36,127,118
1,33,127,240
1,36,0,9
1,31,127,111
1,33,0,16
1,31,0,93
1,38,127,11
1,38,0,155
1,38,127,85
1,38,0,131
1,38,127,109
1,38,0,162
1,42,127,78
1,42,0,125
1,43,127,115
1,43,0,127
1,44,127,113
1,44,0,116
1,44,127,124
1,44,0,61
1,45,127,59
1,45,0,99
1,33,127,141
1,33,0,703
1,38,127,17
1,38,0,2276
2,57,70,713
2,50,90,0
2,62,90,0
2,81,112,0
2,76,108,0
2,74,112,0
2,54,82,0
2,76,0,44
2,74,0,8
2,81,0,3
2,69,99,5
2,69,0,46
2,81,69,14
2,76,74,0
2,74,95,0
2,81,0,35
2,76,0,7
2,74,0,4
2,69,99,14
2,69,0,54
2,81,112,6
2,74,112,0
2,76,108,0
2,76,0,55
2,81,0,3
2,74,0,0
2,69,99,2
2,69,0,50
2,81,50,10
2,76,74,0
2,74,86,0
2,81,0,19
2,54,0,0
2,76,0,30
2,74,0,6
2,69,90,5
2,69,0,53
2,74,103,7
2,81,108,0
2,76,103,0
2,74,0,53
2,76,0,6
2,69,90,1
2,81,0,5
2,69,0,47
2,81,69,8
2,74,82,0
2,76,82,0
2,81,0,33
2,74,0,9
2,76,0,5
2,69,95,3
2,69,0,53
2,81,108,7
2,76,103,0
2,74,117,0
2,81,0,55
2,74,0,2
2,76,0,2
2,69,95,1
2,69,0,49
2,81,58,11
2,76,86,0
2,74,82,0
2,81,0,22
2,74,0,23
2,76,0,2
2,69,99,13
2,69,0,49
2,81,108,11
2,74,108,0
2,76,99,0
2,74,0,53
2,81,0,7
2,76,0,0
2,69,95,0
2,69,0,55
2,81,74,5
2,76,86,0
2,74,90,0
2,81,0,43
2,76,0,7
2,74,0,1
2,69,90,9
2,69,0,57
2,81,112,3
2,76,108,0
2,74,108,0
2,76,0,51
2,74,0,4
2,81,0,1
2,69,99,4
2,69,0,60
2,81,69,0
2,74,70,0
2,76,82,0
2,81,0,39
2,74,0,7
2,76,0,4
2,69,95,10
2,69,0,53
2,81,117,7
2,76,103,0
2,74,112,0
2,57,0,24
2,76,0,28
2,81,0,4
2,74,0,0
2,69,99,4
2,50,0,35
2,69,0,22
2,81,60,3
2,76,82,0
2,74,95,0
2,81,0,22
2,76,0,16
2,74,0,10
2,69,99,12
2,62,0,17
2,69,0,37
2,81,112,6
2,76,112,0
2,74,123,0
2,76,0,52
2,74,0,3
2,81,0,3
2,69,99,2
2,69,0,53
2,81,99,7
2,76,99,0
2,74,103,0
2,81,0,39
2,76,0,6
2,74,0,5
2,69,99,10
2,69,0,37
2,60,103,23
2,48,72,0
2,55,72,0
2,79,112,0
2,74,112,0
2,52,72,0
2,72,117,0
2,67,99,60
2,72,0,9
2,79,0,1
2,74,0,2
2,67,0,40
2,79,62,8
2,72,74,0
2,74,82,0
2,79,0,28
2,72,0,18
2,74,0,3
2,67,72,11
2,67,0,48
2,79,112,12
2,74,108,0
2,72,103,0
2,74,0,51
2,72,0,5
2,79,0,3
2,67,95,1
2,67,0,53
2,74,86,7
2,72,86,0
2,74,0,40
2,72,0,10
2,67,95,10
2,52,0,15
2,67,0,38
2,79,103,7
2,74,108,0
2,72,108,0
2,74,0,52
2,79,0,5
2,72,0,0
2,67,103,3
2,67,0,51
2,74,82,9
2,72,95,0
2,74,0,38
2,72,0,17
2,67,99,5
2,67,0,51
2,79,112,9
2,74,108,0
2,72,108,0
2,72,0,55
2,67,99,5
2,74,0,1
2,79,0,14
2,67,0,45
2,72,86,0
2,72,0,48
2,67,99,12
2,67,0,51
2,79,108,9
2,72,103,0
2,74,112,0
2,72,0,57
2,67,99,3
2,79,0,2
2,74,0,3
2,67,0,45
2,74,86,10
2,72,82,0
2,74,0,39
