track,note,velocity,time
1,77,100,0
1,77,0,60
1,70,100,0
1,70,0,60
1,77,100,0
1,77,0,60
1,76,100,0
1,76,0,60
1,70,100,60
1,70,0,60
1,76,100,0
1,76,0,60
1,77,100,0
1,77,0,60
1,82,100,60
1,82,0,60
1,77,100,0
1,77,0,60
1,76,100,0
1,76,0,60
1,77,100,240
1,77,0,60
1,70,100,0
1,70,0,60
1,77,100,0
1,77,0,60
1,76,100,0
1,76,0,60
1,70,100,60
1,70,0,60
1,76,100,0
1,76,0,60
1,77,100,0
1,77,0,60
1,82,100,60
1,82,0,60
1,77,100,0
1,77,0,60
1,76,100,0
1,76,0,60
1,77,100,240
1,77,0,60
1,70,100,0
1,70,0,60
1,77,100,0
1,77,0,60
1,76,100,0
1,76,0,60
1,70,100,60
1,70,0,60
1,76,100,0
1,76,0,60
1,77,100,0
1,77,0,60
1,82,100,60
1,82,0,60
1,77,100,0
1,77,0,60
1,76,100,0
1,76,0,60
1,77,100,240
1,77,0,60
1,70,100,0
1,70,0,60
1,77,100,0
1,77,0,60
1,76,100,0
1,76,0,60
1,70,100,60
1,70,0,60
1,76,100,0
1,76,0,60
1,77,100,0
1,77,0,60
1,82,100,60
1,82,0,60
1,77,100,0
1,77,0,60
1,76,100,0
1,76,0,60
1,77,100,240
1,77,0,60
1,70,100,0
1,70,0,60
1,77,100,0
1,77,0,60
1,76,100,0
1,76,0,60
1,70,100,60
1,70,0,60
1,76,100,0
1,76,0,60
1,77,100,0
1,77,0,60
1,82,100,60
1,82,0,60
1,77,100,0
1,77,0,60
1,76,100,0
1,76,0,60
1,77,100,240
1,77,0,60
1,70,100,0
1,70,0,60
1,77,100,0
1,77,0,60
1,76,100,0
1,76,0,60
1,70,100,60
1,70,0,60
1,76,100,0
1,76,0,60
1,77,100,0
1,77,0,60
1,82,100,60
1,82,0,60
1,77,100,0
1,77,0,60
1,76,100,0
1,76,0,60
1,77,100,240
1,77,0,60
1,70,100,0
1,70,0,60
1,77,100,0
1,77,0,60
1,76,100,0
1,76,0,60
1,70,100,60
1,70,0,60
1,76,100,0
1,76,0,60
1,77,100,0
1,77,0,60
1,82,100,60
1,82,0,60
1,77,100,0
1,77,0,60
1,76,100,0
1,76,0,60
1,77,100,240
1,77,0,60
1,70,100,0
1,70,0,60
1,77,100,0
1,77,0,60
1,76,100,0
1,76,0,60
1,70,100,60
1,70,0,60
1,76,100,0
1,76,0,60
1,77,100,0
1,77,0,60
1,82,100,60
1,82,0,60
1,77,100,0
1,77,0,60
1,76,100,0
1,76,0,60
1,77,100,240
1,77,0,60
1,70,100,0
1,70,0,60
1,77,100,0
1,77,0,60
1,76,100,0
1,76,0,60
1,70,100,60
1,70,0,60
1,76,100,0
1,76,0,60
1,77,100,0
1,77,0,60
1,82,100,60
1,82,0,60
1,77,100,0
1,77,0,60
1,76,100,0
1,76,0,60
1,77,100,240
1,77,0,60
1,70,100,0
1,70,0,60
1,77,100,0
1,77,0,60
1,76,100,0
1,76,0,60
1,70,100,60
1,70,0,60
1,76,100,0
1,76,0,60
1,77,100,0
1,77,0,60
1,63,100,8160
1,70,100,0
1,70,0,480
1,63,0,0
1,66,100,0
1,70,100,0
1,70,0,480
1,66,0,0
1,61,100,0
1,68,100,0
1,68,0,480
1,61,0,0
1,59,100,0
1,66,100,0
1,66,0,480
1,59,0,0
1,63,100,0
1,70,100,0
1,70,0,480
1,63,0,0
1,66,100,0
1,70,100,0
1,70,0,480
1,66,0,0
1,61,100,0
1,68,100,0
1,68,0,480
1,61,0,0
1,59,100,0
1,66,100,0
1,66,0,480
1,59,0,0
1,63,100,0
1,70,100,0
1,70,0,480
1,63,0,0
1,66,100,0
1,70,100,0
1,70,0,480
1,66,0,0
1,61,100,0
1,68,100,0
1,68,0,480
1,61,0,0
1,59,100,0
1,66,100,0
1,66,0,480
1,59,0,0
1,63,100,0
1,70,100,0
1,70,0,480
1,63,0,0
1,66,100,0
1,70,100,0
1,70,0,480
1,66,0,0
1,61,100,0
1,68,100,0
1,68,0,480
1,61,0,0
1,59,100,0
1,66,100,0
1,66,0,480
1,59,0,0
1,77,100,0
1,77,0,60
1,70,100,0
1,70,0,60
1,77,100,0
1,77,0,60
1,76,100,0
1,76,0,60
1,70,100,60
1,70,0,60
1,76,100,0
1,76,0,60
1,77,100,0
1,77,0,60
1,82,100,60
1,82,0,60
1,77,100,0
1,77,0,60
1,76,100,0
1,76,0,60
1,77,100,240
1,77,0,60
1,70,100,0
1,70,0,60
1,77,100,0
1,77,0,60
1,76,100,0
1,76,0,60
1,70,100,60
1,70,0,60
1,76,100,0
1,76,0,60
1,77,100,0
1,77,0,60
1,82,100,60
1,82,0,60
1,77,100,0
1,77,0,60
1,76,100,0
1,76,0,60
1,77,100,240
1,77,0,60
1,70,100,0
1,70,0,60
1,77,100,0
1,77,0,60
1,76,100,0
1,76,0,60
1,70,100,60
1,70,0,60
1,76,100,0
1,76,0,60
1,77,100,0
1,77,0,60
1,82,100,60
1,82,0,60
1,77,100,0
1,77,0,60
1,76,100,0
1,76,0,60
1,77,100,240
1,77,0,60
1,70,100,0
1,70,0,60
1,77,100,0
1,77,0,60
1,76,100,0
1,76,0,60
1,70,100,60
1,70,0,60
1,76,100,0
1,76,0,60
1,77,100,0
1,77,0,60
1,82,100,60
1,82,0,60
1,77,100,0
1,77,0,60
1,76,100,0
1,76,0,60
1,77,100,240
1,77,0,60
1,70,100,0
1,70,0,60
1,77,100,0
1,77,0,60
1,76,100,0
1,76,0,60
1,70,100,60
1,70,0,60
1,76,100,0
1,76,0,60
1,77,100,0
1,77,0,60
1,63,100,8160
1,70,100,0
1,70,0,480
1,63,0,0
1,66,100,0
1,70,100,0
1,70,0,480
1,66,0,0
1,61,100,0
1,68,100,0
1,68,0,480
1,61,0,0
1,59,100,0
1,66,100,0
1,66,0,480
1,59,0,0
1,63,100,0
1,70,100,0
1,70,0,480
1,63,0,0
1,66,100,0
1,70,100,0
1,70,0,480
1,66,0,0
1,61,100,0
1,68,100,0
1,68,0,480
1,61,0,0
1,59,100,0
1,66,100,0
1,66,0,480
1,59,0,0
1,63,100,0
1,70,100,0
1,70,0,480
1,63,0,0
1,66,100,0
1,70,100,0
1,70,0,480
1,66,0,0
1,61,100,0
1,68,100,0
1,68,0,480
1,61,0,0
1,59,100,0
1,66,100,0
1,66,0,480
1,59,0,0
1,63,100,0
1,70,100,0
1,70,0,480
1,63,0,0
1,66,100,0
1,70,100,0
1,70,0,480
1,66,0,0
1,61,100,0
1,68,100,0
1,68,0,480
1,61,0,0
1,59,100,0
1,66,100,0
1,66,0,480
1,59,0,0
1,63,100,0
1,70,100,0
1,70,0,480
1,63,0,0
1,66,100,0
1,70,100,0
1,70,0,480
1,66,0,0
1,61,100,0
1,68,100,0
1,68,0,480
1,61,0,0
1,59,100,0
1,66,100,0
1,66,0,480
1,59,0,0
1,63,100,0
1,70,100,0
1,70,0,480
1,63,0,0
1,66,100,0
1,70,100,0
1,70,0,480
1,66,0,0
1,61,100,0
1,68,100,0
1,68,0,480
1,61,0,0
1,59,100,0
1,66,100,0
1,66,0,480
1,59,0,0
1,82,100,0
1,63,100,0
1,70,100,0
1,82,0,60
1,75,100,0
1,75,0,60
1,82,100,0
1,82,0,60
1,81,100,0
1,81,0,120
1,75,100,0
1,75,0,60
1,81,100,0
1,81,0,60
1,82,100,0
1,70,0,60
1,63,0,0
1,66,100,0
1,70,100,0
1,82,0,60
1,87,100,0
1,87,0,60
1,82,100,0
1,82,0,60
1,81,100,0
1,81,0,180
1,70,0,120
1,66,0,0
1,82,100,0
1,61,100,0
1,68,100,0
1,82,0,60
1,75,100,0
1,75,0,60
1,82,100,0
1,82,0,60
1,81,100,0
1,81,0,120
1,75,100,0
1,75,0,60
1,81,100,0
1,81,0,60
1,82,100,0
1,68,0,60
1,61,0,0
1,59,100,0
1,66,100,0
1,82,0,60
1,87,100,0
1,87,0,60
1,82,100,0
1,82,0,60
1,81,100,0
1,81,0,180
1,66,0,120
1,59,0,0
1,82,100,0
1,63,100,0
1,70,100,0
1,82,0,60
1,75,100,0
1,75,0,60
1,82,100,0
1,82,0,60
1,81,100,0
1,81,0,120
1,75,100,0
1,75,0,60
1,81,100,0
1,81,0,60
1,82,100,0
1,70,0,60
1,63,0,0
1,66,100,0
1,70,100,0
1,82,0,60
1,87,100,0
1,87,0,60
1,82,100,0
1,82,0,60
1,81,100,0
1,81,0,180
1,70,0,120
1,66,0,0
1,82,100,0
1,61,100,0
1,68,100,0
1,82,0,60
1,75,100,0
1,75,0,60
1,82,100,0
1,82,0,60
1,81,100,0
1,81,0,120
1,75,100,0
1,75,0,60
1,81,100,0
1,81,0,60
1,82,100,0
1,68,0,60
1,61,0,0
1,59,100,0
1,66,100,0
1,82,0,60
1,87,100,0
1,87,0,60
1,82,100,0
1,82,0,60
1,81,100,0
1,81,0,180
1,66,0,120
1,59,0,0
1,82,100,0
1,63,100,0
1,70,100,0
1,82,0,60
1,75,100,0
1,75,0,60
1,82,100,0
1,82,0,60
1,81,100,0
1,81,0,120
1,75,100,0
1,75,0,60
1,81,100,0
1,81,0,60
1,82,100,0
1,70,0,60
1,63,0,0
1,66,100,0
1,70,100,0
1,82,0,60
1,87,100,0
1,87,0,60
1,82,100,0
1,82,0,60
1,81,100,0
1,81,0,180
1,70,0,120
1,66,0,0
1,82,100,0
1,61,100,0
1,68,100,0
1,82,0,60
1,75,100,0
1,75,0,60
1,82,100,0
1,82,0,60
1,81,100,0
1,81,0,120
1,75,100,0
1,75,0,60
1,81,100,0
1,81,0,60
1,82,100,0
1,68,0,60
1,61,0,0
1,59,100,0
1,66,100,0
1,82,0,60
1,87,100,0
1,87,0,60
1,82,100,0
1,82,0,60
1,81,100,0
1,81,0,180
1,66,0,120
1,59,0,0
1,82,100,0
1,63,100,0
1,70,100,0
1,82,0,60
1,75,100,0
1,75,0,60
1,82,100,0
1,82,0,60
1,81,100,0
1,81,0,120
1,75,100,0
1,75,0,60
1,81,100,0
1,81,0,60
1,82,100,0
1,70,0,60
1,63,0,0
1,66,100,0
1,70,100,0
1,82,0,60
1,87,100,0
1,87,0,60
1,82,100,0
1,82,0,60
1,81,100,0
1,81,0,180
1,70,0,120
1,66,0,0
1,82,100,0
1,61,100,0
1,68,100,0
1,82,0,60
1,75,100,0
1,75,0,60
1,82,100,0
1,82,0,60
1,81,100,0
1,81,0,120
1,75,100,0
1,75,0,60
1,81,100,0
1,81,0,60
1,82,100,0
1,68,0,60
1,61,0,0
1,59,100,0
1,66,100,0
1,82,0,60
1,87,100,0
1,87,0,60
1,82,100,0
1,82,0,60
1,81,100,0
1,81,0,180
1,66,0,120
1,59,0,0
1,63,100,0
1,70,100,0
1,70,0,480
1,63,0,0
1,66,100,0
1,70,100,0
1,70,0,480
1,66,0,0
1,61,100,0
1,68,100,0
1,68,0,480
1,61,0,0
1,59,100,0
1,66,100,0
1,66,0,480
1,59,0,0
1,63,100,0
1,70,100,0
1,70,0,480
1,63,0,0
1,66,100,0
1,70,100,0
1,70,0,480
1,66,0,0
1,61,100,0
1,68,100,0
1,68,0,480
1,61,0,0
1,59,100,0
1,66,100,0
1,66,0,480
1,59,0,0
2,89,100,0
2,89,0,60
2,82,100,0
2,82,0,60
2,89,100,0
2,89,0,60
2,88,100,0
2,88,0,60
2,82,100,60
2,82,0,60
2,88,100,0
2,88,0,60
2,89,100,0
2,89,0,60
2,94,100,60
2,94,0,60
2,89,100,0
2,89,0,60
2,88,100,0
2,88,0,60
2,89,100,240
2,89,0,60
2,82,100,0
2,82,0,60
2,89,100,0
2,89,0,60
2,88,100,0
2,88,0,60
2,82,100,60
2,82,0,60
2,88,100,0
2,88,0,60
2,89,100,0
2,89,0,60
2,94,100,60
2,94,0,60
2,89,100,0
2,89,0,60
2,88,100,0
2,88,0,60
2,89,100,240
2,89,0,60
2,82,100,0
2,82,0,60
2,89,100,0
2,89,0,60
2,88,100,0
2,88,0,60
2,82,100,60
2,82,0,60
2,88,100,0
2,88,0,60
2,89,100,0
2,89,0,60
2,94,100,60
2,94,0,60
2,89,100,0
2,89,0,60
2,88,100,0
2,88,0,60
2,89,100,240
2,89,0,60
2,82,100,0
2,82,0,60
2,89,100,0
2,89,0,60
2,88,100,0
2,88,0,60
2,82,100,60
2,82,0,60
2,88,100,0
2,88,0,60
2,89,100,0
2,89,0,60
2,94,100,60
2,94,0,60
2,89,100,0
2,89,0,60
2,88,100,0
2,88,0,60
2,89,100,240
2,89,0,60
2,82,100,0
2,82,0,60
2,89,100,0
2,89,0,60
2,88,100,0
2,88,0,60
2,82,100,60
2,82,0,60
2,88,100,0
2,88,0,60
2,89,100,0
2,89,0,60
2,94,100,60
2,94,0,60
2,89,100,0
2,89,0,60
2,88,100,0
2,88,0,60
2,89,100,240
2,89,0,60
2,82,100,0
2,82,0,60
2,89,100,0
2,89,0,60
2,88,100,0
2,88,0,60
2,82,100,60
2,82,0,60
2,88,100,0
2,88,0,60
2,89,100,0
2,89,0,60
2,94,100,60
2,94,0,60
2,89,100,0
2,89,0,60
2,88,100,0
2,88,0,60
2,89,100,240
2,89,0,60
2,82,100,0
2,82,0,60
2,89,100,0
2,89,0,60
2,88,100,0
2,88,0,60
2,82,100,60
2,82,0,60
2,88,100,0
2,88,0,60
2,89,100,0
2,89,0,60
2,94,100,60
2,94,0,60
2,89,100,0
2,89,0,60
2,88,100,0
2,88,0,60
2,89,100,240
2,89,0,60
2,82,100,0
2,82,0,60
2,89,100,0
2,89,0,60
2,88,100,0
2,88,0,60
2,82,100,60
2,82,0,60
2,88,100,0
2,88,0,60
2,89,100,0
2,89,0,60
2,94,100,60
2,94,0,60
2,89,100,0
2,89,0,60
2,88,100,0
2,88,0,60
2,89,100,240
2,89,0,60
2,82,100,0
2,82,0,60
2,89,100,0
2,89,0,60
2,88,100,0
2,88,0,60
2,82,100,60
2,82,0,60
2,88,100,0
2,88,0,60
2,89,100,0
2,89,0,60
2,94,100,60
2,94,0,60
2,89,100,0
2,89,0,60
2,88,100,0
2,88,0,60
2,89,100,240
2,89,0,60
2,82,100,0
2,82,0,60
2,89,100,0
2,89,0,60
2,88,100,0
2,88,0,60
2,82,100,60
2,82,0,60
2,88,100,0
2,88,0,60
2,89,100,0
2,89,0,60
2,89,100,15840
2,89,0,60
2,82,100,0
2,82,0,60
2,89,100,0
2,89,0,60
2,88,100,0
2,88,0,60
2,82,100,60
2,82,0,60
2,88,100,0
2,88,0,60
2,89,100,0
2,89,0,60
2,94,100,60
2,94,0,60
2,89,100,0
2,89,0,60
2,88,100,0
2,88,0,60
2,89,100,240
2,89,0,60
2,82,100,0
2,82,0,60
2,89,100,0
2,89,0,60
2,88,100,0
2,88,0,60
2,82,100,60
2,82,0,60
2,88,100,0
2,88,0,60
2,89,100,0
2,89,0,60
2,94,100,60
2,94,0,60
2,89,100,0
2,89,0,60
2,88,100,0
2,88,0,60
2,89,100,240
2,89,0,60
2,82,100,0
2,82,0,60
2,89,100,0
2,89,0,60
2,88,100,0
2,88,0,60
2,82,100,60
2,82,0,60
2,88,100,0
2,88,0,60
2,89,100,0
2,89,0,60
2,94,100,60
2,94,0,60
2,89,100,0
2,89,0,60
2,88,100,0
2,88,0,60
2,89,100,240
2,89,0,60
2,82,100,0
2,82,0,60
2,89,100,0
2,89,0,60
2,88,100,0
2,88,0,60
2,82,100,60
2,82,0,60
2,88,100,0
2,88,0,60
2,89,100,0
2,89,0,60
2,94,100,60
2,94,0,60
2,89,100,0
2,89,0,60
2,88,100,0
2,88,0,60
2,89,100,240
2,89,0,60
2,82,100,0
2,82,0,60
2,89,100,0
2,89,0,60
2,88,100,0
2,88,0,60
2,82,100,60
2,82,0,60
2,88,100,0
2,88,0,60
2,89,100,0
2,89,0,60
2,82,100,19680
2,82,0,60
2,75,100,0
2,75,0,60
2,82,100,0
2,82,0,60
2,81,100,0
2,81,0,120
