track,note,velocity,time
1,62,110,960
1,61,110,8
1,59,110,8
1,61,110,8
1,59,110,8
1,61,110,8
1,59,110,8
1,56,110,8
1,59,110,0
1,63,110,0
1,54,110,96
1,58,110,0
1,61,110,0
1,62,110,8
1,61,110,8
1,59,110,8
1,61,110,8
1,59,110,8
1,61,110,8
1,59,110,8
1,52,110,8
1,56,110,0
1,63,110,0
1,56,110,64
1,59,110,8
1,61,110,64
1,52,110,64
1,56,110,0
1,61,110,0
1,63,110,8
1,61,110,8
1,59,110,8
1,61,110,8
1,59,110,8
1,61,110,8
1,59,110,8
1,52,110,8
1,56,110,0
1,63,110,0
1,56,110,64
1,59,110,8
1,61,110,64
1,54,110,64
1,58,110,0
1,61,110,0
1,63,110,8
1,61,110,8
1,59,110,8
1,61,110,8
1,59,110,8
1,61,110,8
1,59,110,8
1,56,110,8
1,59,110,0
1,56,110,96
1,54,110,96
1,58,110,0
1,61,110,0
1,63,110,8
1,61,110,8
1,59,110,8
1,61,110,8
1,59,110,8
1,61,110,8
1,59,110,8
1,52,110,8
1,56,110,0
1,62,110,0
1,62,110,64
1,61,110,64
1,59,110,8
1,52,110,64
1,56,110,0
1,59,110,192
1,61,110,8
1,59,110,8
1,61,110,8
1,59,110,8
1,61,110,8
1,59,110,8
1,52,110,8
1,56,110,0
1,62,110,0
1,62,110,64
1,61,110,64
1,59,110,8
1,54,110,64
1,58,110,0
1,61,110,0
1,63,110,8
1,61,110,8
1,59,110,8
1,61,110,8
1,59,110,8
1,61,110,8
1,59,110,8
1,54,110,8
1,59,110,0
1,63,110,0
1,59,110,96
1,54,110,96
1,59,110,0
1,63,110,0
1,54,110,64
1,59,110,0
1,63,110,0
1,54,110,64
1,59,110,0
1,63,110,0
1,54,110,8
1,59,110,0
1,63,110,0
1,54,110,8
1,59,110,0
1,63,110,0
1,56,110,64
1,61,110,0
1,65,110,0
1,56,110,96
1,61,110,0
1,65,110,0
1,56,110,64
1,59,110,0
1,63,110,0
1,61,110,8
1,59,110,8
1,65,110,8
1,57,110,448
1,61,110,0
1,57,110,64
1,61,110,0
1,64,110,0
1,57,110,96
1,61,110,0
1,64,110,0
1,54,110,64
1,59,110,0
1,63,110,0
1,61,110,8
1,59,110,8
1,65,110,8
1,61,110,64
1,58,110,64
1,56,110,8
1,56,110,8
1,61,110,0
1,65,110,0
1,56,110,96
1,61,110,0
1,65,110,0
1,56,110,64
1,59,110,0
1,63,110,0
1,61,110,8
1,59,110,8
1,65,110,8
1,57,110,448
1,61,110,0
1,57,110,64
1,61,110,0
1,64,110,0
1,57,110,96
1,61,110,0
1,64,110,0
1,54,110,64
1,59,110,0
1,63,110,0
1,61,110,8
1,59,110,8
1,65,110,8
1,61,110,64
1,58,110,64
1,56,110,8
1,54,110,392
1,58,110,0
1,61,110,0
1,54,110,8
1,58,110,0
1,61,110,0
1,54,110,8
1,58,110,0
1,61,110,0
1,54,110,64
1,58,110,0
1,61,110,0
1,62,110,8
1,61,110,8
1,59,110,8
1,61,110,8
1,59,110,8
1,61,110,8
1,59,110,8
1,56,110,8
1,59,110,0
1,63,110,0
1,54,110,96
1,58,110,0
1,61,110,0
1,59,110,8
1,61,110,8
1,59,110,8
1,61,110,8
1,59,110,8
1,61,110,8
1,59,110,8
1,52,110,8
1,56,110,0
1,62,110,0
1,62,110,64
1,61,110,64
1,59,110,8
1,52,110,64
1,56,110,0
1,61,110,0
1,62,110,8
1,61,110,8
1,59,110,8
1,61,110,8
1,59,110,8
1,61,110,8
1,59,110,8
1,52,110,8
1,56,110,0
1,62,110,0
1,62,110,64
1,61,110,64
1,59,110,8
1,54,110,64
1,58,110,0
1,61,110,0
1,62,110,8
1,61,110,8
1,59,110,8
1,61,110,8
1,59,110,8
1,61,110,8
1,59,110,8
1,59,110,8
1,54,110,96
1,59,110,0
1,63,110,0
1,54,110,96
1,59,110,0
1,63,110,0
1,54,110,64
1,59,110,0
1,63,110,0
1,54,110,64
1,59,110,0
1,63,110,0
1,54,110,8
1,59,110,0
1,63,110,0
1,54,110,8
1,59,110,0
1,63,110,0
1,61,110,64
1,66,110,0
1,68,110,8
1,69,110,8
1,68,110,8
1,68,110,8
1,73,110,0
1,61,110,64
1,66,110,0
1,68,110,8
1,69,110,8
1,68,110,8
1,68,110,8
1,71,110,0
1,75,110,0
1,61,110,64
1,66,110,0
1,68,110,8
1,69,110,8
1,68,110,8
1,69,110,8
1,73,110,0
1,76,110,0
1,61,110,64
1,66,110,0
1,68,110,8
1,69,110,8
1,68,110,8
1,71,110,8
1,75,110,0
1,80,110,0
1,61,110,64
1,66,110,0
1,68,110,8
1,69,110,8
1,68,110,8
1,68,110,8
1,73,110,0
1,61,110,64
1,66,110,0
1,68,110,8
1,69,110,8
1,68,110,8
1,68,110,8
1,71,110,0
1,75,110,0
1,61,110,64
1,66,110,0
1,68,110,8
1,69,110,8
1,68,110,8
1,69,110,8
1,73,110,0
1,76,110,0
1,61,110,64
1,66,110,0
1,68,110,8
1,69,110,8
1,68,110,8
1,71,110,8
1,75,110,0
1,80,110,0
1,62,110,256
1,61,110,8
1,59,110,8
1,61,110,8
1,59,110,8
1,61,110,8
1,59,110,8
1,56,110,8
1,59,110,0
1,63,110,0
1,54,110,96
1,58,110,0
1,61,110,0
1,62,110,8
1,61,110,8
1,59,110,8
1,61,110,8
1,59,110,8
1,61,110,8
1,59,110,8
1,52,110,8
1,56,110,0
1,63,110,0
1,56,110,64
1,59,110,8
1,61,110,64
1,52,110,64
1,56,110,0
1,61,110,0
1,63,110,8
1,61,110,8
1,59,110,8
1,61,110,8
1,59,110,8
1,61,110,8
1,59,110,8
1,52,110,8
1,56,110,0
1,63,110,0
1,56,110,64
1,59,110,8
1,61,110,64
1,54,110,64
1,58,110,0
1,61,110,0
1,63,110,8
1,61,110,8
1,59,110,8
1,61,110,8
1,59,110,8
1,61,110,8
1,59,110,8
1,56,110,8
1,59,110,0
1,56,110,96
1,54,110,96
1,58,110,0
1,61,110,0
1,63,110,8
1,61,110,8
1,59,110,8
1,61,110,8
1,59,110,8
1,61,110,8
1,59,110,8
1,52,110,8
1,56,110,0
1,62,110,0
1,62,110,64
1,61,110,64
1,59,110,8
1,52,110,64
1,56,110,0
1,59,110,192
1,61,110,8
1,59,110,8
1,61,110,8
1,59,110,8
1,61,110,8
1,59,110,8
1,52,110,8
1,56,110,0
1,62,110,0
1,62,110,64
1,61,110,64
1,59,110,8
1,54,110,64
1,58,110,0
1,61,110,0
1,63,110,8
1,61,110,8
1,59,110,8
1,61,110,8
1,59,110,8
1,61,110,8
1,59,110,8
1,54,110,8
1,59,110,0
1,63,110,0
1,59,110,96
1,54,110,96
1,59,110,0
1,63,110,0
1,54,110,64
1,59,110,0
1,63,110,0
1,54,110,64
1,59,110,0
1,63,110,0
1,54,110,8
1,59,110,0
1,63,110,0
1,54,110,8
1,59,110,0
1,63,110,0
1,56,110,64
1,61,110,0
1,65,110,0
1,56,110,96
1,61,110,0
1,65,110,0
1,56,110,64
1,59,110,0
1,63,110,0
1,61,110,8
1,59,110,8
1,65,110,8
1,57,110,448
1,61,110,0
1,57,110,64
1,61,110,0
1,64,110,0
1,57,110,96
1,61,110,0
1,64,110,0
1,54,110,64
1,59,110,0
1,63,110,0
1,61,110,8
1,59,110,8
1,65,110,8
1,61,110,64
1,58,110,64
1,56,110,8
1,56,110,8
1,61,110,0
1,65,110,0
1,56,110,96
1,61,110,0
1,65,110,0
1,56,110,64
1,59,110,0
1,63,110,0
1,61,110,8
1,59,110,8
1,65,110,8
1,57,110,448
1,61,110,0
1,57,110,64
1,61,110,0
1,64,110,0
1,57,110,96
1,61,110,0
1,64,110,0
1,54,110,64
1,59,110,0
1,63,110,0
1,61,110,8
1,59,110,8
1,65,110,8
1,61,110,64
1,58,110,64
1,56,110,8
1,56,110,8
1,61,110,0
1,65,110,0
1,56,110,96
1,61,110,0
1,65,110,0
1,56,110,64
1,59,110,0
1,63,110,0
1,61,110,8
1,59,110,8
1,65,110,8
1,57,110,448
1,61,110,0
1,57,110,64
1,61,110,0
1,64,110,0
1,57,110,96
1,61,110,0
1,64,110,0
1,54,110,64
1,59,110,0
1,63,110,0
1,61,110,8
1,59,110,8
1,65,110,8
1,61,110,64
1,58,110,64
1,56,110,8
1,56,110,8
1,61,110,0
1,65,110,0
1,56,110,96
1,61,110,0
1,65,110,0
1,56,110,64
1,59,110,0
1,63,110,0
1,61,110,8
1,59,110,8
1,65,110,8
1,57,110,448
1,61,110,0
1,63,110,8
1,61,110,64
1,59,110,64
1,57,110,64
1,59,110,64
1,57,110,64
1,61,110,0
1,57,110,64
1,61,110,0
1,64,110,0
1,54,110,64
1,59,110,0
1,63,110,0
1,61,110,8
1,59,110,64
1,61,110,64
1,63,110,64
1,54,110,8
1,58,110,0
1,61,110,0
1,54,110,96
1,58,110,0
1,61,110,0
1,54,110,8
1,58,110,0
1,61,110,0
1,54,110,8
1,58,110,0
1,61,110,0
1,54,110,8
1,58,110,0
1,61,110,0
1,54,110,8
1,58,110,0
1,61,110,0
1,62,110,8
1,61,110,8
1,59,110,8
1,61,110,8
1,59,110,8
1,61,110,8
1,59,110,8
1,56,110,8
1,59,110,0
1,63,110,0
1,54,110,96
1,58,110,0
1,61,110,0
1,62,110,8
1,61,110,8
1,59,110,8
1,61,110,8
1,59,110,8
1,61,110,8
1,59,110,8
1,52,110,8
1,56,110,0
1,63,110,0
1,56,110,64
1,59,110,8
1,61,110,64
1,52,110,64
1,56,110,0
1,61,110,0
1,63,110,8
1,61,110,8
1,59,110,8
1,61,110,8
1,59,110,8
1,61,110,8
1,59,110,8
1,52,110,8
1,56,110,0
1,63,110,0
1,63,110,64
1,61,110,8
1,59,110,64
1,54,110,64
1,58,110,0
1,66,110,192
1,66,110,8
1,66,110,8
1,66,110,8
1,64,110,8
1,64,110,8
1,63,110,8
1,56,110,8
1,59,110,0
1,64,110,0
1,63,110,8
1,56,110,8
1,59,110,0
1,56,110,96
1,59,110,0
1,58,110,64
1,56,110,8
1,54,110,8
1,52,110,8
1,56,110,0
1,59,110,0
1,58,110,64
1,58,110,64
1,56,110,8
1,66,110,0
1,66,110,8
1,66,110,8
1,66,110,8
1,64,110,8
1,64,110,8
1,63,110,8
1,56,110,8
1,59,110,0
1,64,110,0
1,63,110,8
1,56,110,8
1,59,110,0
1,56,110,96
1,59,110,0
1,58,110,64
1,56,110,8
1,54,110,8
1,52,110,8
1,56,110,0
1,59,110,0
1,58,110,64
1,58,110,64
1,56,110,8
1,66,110,0
1,66,110,8
1,66,110,8
1,66,110,8
1,64,110,8
1,64,110,8
1,63,110,8
1,56,110,8
1,59,110,0
1,64,110,0
1,63,110,8
1,56,110,0
1,59,110,0
1,56,110,96
1,59,110,0
1,58,110,64
1,56,110,8
1,54,110,8
1,52,110,8
1,56,110,0
1,59,110,0
1,58,110,64
1,58,110,64
1,56,110,8
1,66,110,0
1,66,110,8
1,66,110,8
1,66,110,8
1,64,110,8
1,64,110,8
1,63,110,8
1,56,110,8
1,59,110,0
1,64,110,0
1,63,110,8
1,56,110,0
1,59,110,0
1,56,110,96
1,59,110,0
1,58,110,64
1,56,110,8
1,54,110,8
1,52,110,8
1,56,110,0
1,59,110,0
1,58,110,64
1,58,110,64
1,56,110,8
1,66,110,0
1,66,110,8
1,66,110,8
1,66,110,8
1,64,110,8
1,64,110,8
1,63,110,8
1,56,110,8
1,59,110,0
1,64,110,0
1,63,110,8
1,56,110,0
1,59,110,0
1,56,110,96
1,59,110,0
1,58,110,64
1,56,110,8
1,54,110,8
1,52,110,8
1,56,110,0
1,59,110,0
1,58,110,64
1,58,110,64
1,56,110,8
1,66,110,0
1,66,110,8
1,66,110,8
1,66,110,8
1,64,110,8
1,64,110,8
1,63,110,8
1,56,110,8
1,59,110,0
1,64,110,0
1,63,110,8
1,56,110,0
1,59,110,0
1,56,110,96
1,59,110,0
1,58,110,64
1,56,110,8
1,54,110,8
1,52,110,8
1,56,110,0
1,59,110,0
1,58,110,64
1,58,110,64
1,56,110,8
1,66,110,0
1,66,110,8
1,66,110,8
1,66,110,8
1,64,110,8
1,64,110,8
1,63,110,8
1,56,110,8
1,59,110,0
1,64,110,0
1,63,110,8
1,56,110,0
1,59,110,0
1,56,110,96
1,59,110,0
1,58,110,64
1,56,110,8
1,54,110,8
1,52,110,8
1,56,110,0
1,59,110,0
1,58,110,64
1,58,110,64
1,56,110,8
1,66,110,0
1,66,110,8
1,66,110,8
1,66,110,8
1,64,110,8
1,64,110,8
1,63,110,8
1,56,110,8
1,59,110,0
1,64,110,0
1,63,110,8
1,56,110,0
1,59,110,0
1,56,110,96
1,59,110,0
1,58,110,64
1,56,110,8
1,54,110,8
1,52,110,8
1,56,110,0
1,59,110,0
1,58,110,64
1,58,110,64
1,56,110,8
1,66,110,0
1,66,110,8
1,66,110,8
1,66,110,8
1,64,110,8
1,64,110,8
1,63,110,8
1,56,110,8
1,59,110,0
1,64,110,0
1,63,110,8
1,56,110,0
1,59,110,0
1,56,110,96
1,59,110,0
1,58,110,64
1,56,110,8
1,54,110,8
1,52,110,8
1,56,110,0
1,59,110,0
1,58,110,64
1,58,110,64
1,56,110,8
1,66,110,0
1,66,110,8
1,66,110,8
1,66,110,8
1,64,110,8
1,64,110,8
1,63,110,8
1,56,110,8
1,59,110,0
1,64,110,0
1,63,110,8
1,56,110,0
1,59,110,0
1,56,110,96
1,59,110,0
1,58,110,64
1,56,110,8
1,54,110,8
1,52,110,8
1,56,110,0
1,59,110,0
1,58,110,64
1,58,110,64
1,56,110,8
1,66,110,0
1,66,110,8
1,66,110,8
1,66,110,8
1,64,110,8
1,64,110,8
1,63,110,8
1,56,110,8
1,59,110,0
1,64,110,0
1,63,110,8
1,56,110,0
1,59,110,0
1,56,110,96
1,59,110,0
1,58,110,64
1,56,110,8
1,54,110,8
1,52,110,8
1,56,110,0
1,59,110,0
1,58,110,64
1,58,110,64
1,56,110,8
1,66,110,0
1,66,110,8
1,66,110,8
1,66,110,8
1,64,110,8
1,64,110,8
1,63,110,8
1,56,110,8
1,59,110,0
1,64,110,0
1,63,110,8
1,56,110,8
1,59,110,0
1,56,110,96
1,59,110,0
1,58,110,64
1,56,110,8
1,54,110,8
1,52,110,8
1,56,110,0
1,59,110,0
1,58,110,64
1,58,110,64
1,56,110,8
1,66,110,0
1,66,110,8
1,66,110,8
1,66,110,8
1,64,110,8
1,64,110,8
1,63,110,8
1,56,110,8
1,59,110,0
1,64,110,0
1,63,110,8
2,44,110,2304
2,44,110,64
2,44,110,64
2,42,110,8
2,44,110,8
2,47,110,8
2,42,110,8
2,42,110,64
2,42,110,64
2,42,110,8
2,44,110,8
2,42,110,8
2,40,110,8
2,40,110,64
2,40,110,64
2,42,110,8
2,44,110,8
2,47,110,8
2,49,110,8
2,49,110,64
2,49,110,64
2,47,110,8
2,44,110,8
2,42,110,8
2,40,110,8
2,40,110,64
2,40,110,64
2,40,110,8
2,42,110,8
2,40,110,8
2,42,110,8
2,42,110,64
2,42,110,64
2,40,110,8
2,42,110,8
2,44,110,8
2,44,110,8
2,44,110,64
2,44,110,64
2,42,110,8
2,44,110,8
2,47,110,8
2,42,110,8
2,42,110,64
2,42,110,64
2,40,110,8
2,42,110,8
2,44,110,8
2,40,110,8
2,40,110,64
2,40,110,64
2,42,110,8
2,44,110,8
2,47,110,8
2,49,110,8
2,49,110,64
2,49,110,64
2,47,110,8
2,44,110,8
2,42,110,8
2,40,110,8
2,40,110,64
2,40,110,64
2,44,110,8
2,47,110,8
2,44,110,8
2,42,110,8
2,42,110,64
2,42,110,64
2,40,110,8
2,42,110,8
2,44,110,8
2,47,110,8
2,47,110,64
2,47,110,64
2,47,110,8
2,47,110,8
2,47,110,64
2,47,110,64
2,47,110,64
2,47,110,8
2,47,110,8
2,47,110,8
2,49,110,8
2,49,110,64
2,49,110,64
2,49,110,8
2,49,110,8
