track,note,velocity,time
1,54,100,6336
1,64,100,0
1,54,100,0
1,64,100,0
1,54,100,0
1,64,100,0
1,54,100,0
1,63,100,0
1,54,100,188
1,64,100,0
1,54,100,0
1,64,100,0
1,54,100,0
1,64,100,0
1,54,100,0
1,63,100,0
1,54,100,188
1,64,100,0
1,54,100,0
1,64,100,0
1,54,100,0
1,64,100,0
1,54,100,0
1,63,100,0
1,54,100,188
1,64,100,0
1,54,100,0
1,64,100,0
1,54,100,0
1,64,100,0
1,54,100,0
1,63,100,0
1,49,100,30716
1,42,100,0
1,54,100,0
1,63,100,2304
1,64,100,576
1,63,100,2300
1,64,100,576
1,63,100,2300
1,64,100,576
1,63,100,2300
1,64,100,576
1,54,100,192
1,64,100,0
1,54,100,0
1,64,100,0
1,54,100,0
1,64,100,0
1,54,100,0
1,63,100,0
1,54,100,188
1,64,100,0
1,54,100,0
1,64,100,0
1,54,100,0
1,64,100,0
1,54,100,0
1,63,100,0
1,54,100,188
1,64,100,0
1,54,100,0
1,64,100,0
1,54,100,0
1,64,100,0
1,54,100,0
1,63,100,0
1,54,100,188
1,64,100,0
1,54,100,0
1,64,100,0
1,54,100,0
1,64,100,0
1,54,100,0
1,63,100,0
1,49,100,24572
1,42,100,0
1,54,100,0
1,63,100,2304
1,64,100,576
1,63,100,2300
1,64,100,576
1,63,100,2300
1,64,100,576
1,63,100,2300
1,64,100,576
1,54,100,192
1,64,100,0
1,54,100,0
1,64,100,0
1,54,100,0
1,64,100,0
1,54,100,0
1,63,100,0
1,54,100,188
1,64,100,0
1,54,100,0
1,64,100,0
1,54,100,0
1,64,100,0
1,54,100,0
1,63,100,0
1,54,100,188
1,64,100,0
1,54,100,0
1,64,100,0
1,54,100,0
1,64,100,0
1,54,100,0
1,63,100,0
1,54,100,188
1,64,100,0
1,54,100,0
1,64,100,0
1,54,100,0
1,64,100,0
1,54,100,0
1,63,100,0
1,42,100,1536
1,49,100,0
1,52,100,0
1,54,100,288
1,52,100,116
1,42,100,0
1,45,100,36
1,42,100,0
1,45,100,0
1,42,100,1536
1,49,100,0
1,52,100,0
1,54,100,288
1,52,100,116
1,42,100,0
1,45,100,36
1,42,100,0
1,45,100,0
1,42,100,1536
1,49,100,0
1,52,100,0
1,54,100,288
1,52,100,116
1,42,100,0
1,45,100,36
1,42,100,0
1,45,100,0
1,42,100,1536
1,49,100,0
1,52,100,0
1,54,100,288
1,52,100,116
1,42,100,0
1,45,100,36
1,42,100,0
1,45,100,0
1,49,100,12284
1,42,100,0
1,54,100,0
1,63,100,2304
1,64,100,576
1,63,100,2300
1,64,100,576
1,63,100,2300
1,64,100,576
1,63,100,2300
1,64,100,576
1,49,100,0
1,42,100,0
1,54,100,0
1,63,100,2304
1,64,100,576
1,63,100,2300
1,64,100,576
1,63,100,2300
1,64,100,576
1,63,100,2300
1,64,100,576
1,49,100,0
1,42,100,0
1,54,100,0
1,54,100,192
1,64,100,0
1,54,100,0
1,64,100,0
1,54,100,0
1,64,100,0
1,54,100,0
1,63,100,0
1,63,100,768
1,64,100,576
1,54,100,188
1,64,100,0
1,54,100,0
1,64,100,0
1,54,100,0
1,64,100,0
1,54,100,0
1,63,100,0
1,63,100,768
1,64,100,576
1,54,100,188
1,64,100,0
1,54,100,0
1,64,100,0
1,54,100,0
1,64,100,0
1,54,100,0
1,63,100,0
1,63,100,768
1,64,100,576
1,54,100,188
1,64,100,0
1,54,100,0
1,64,100,0
1,54,100,0
1,64,100,0
1,54,100,0
1,63,100,0
1,63,100,768
1,64,100,576
1,42,100,0
1,49,100,0
1,52,100,0
1,54,100,288
1,52,100,116
1,42,100,0
1,45,100,36
1,42,100,0
1,45,100,0
1,42,100,1536
1,49,100,0
1,52,100,0
1,54,100,288
1,52,100,116
1,42,100,0
1,45,100,36
1,42,100,0
1,45,100,0
1,42,100,1536
1,49,100,0
1,52,100,0
1,54,100,288
1,52,100,116
1,42,100,0
1,45,100,36
1,42,100,0
1,45,100,0
1,42,100,1536
1,49,100,0
1,52,100,0
1,54,100,288
1,52,100,116
1,42,100,0
1,45,100,36
1,42,100,0
1,45,100,0
2,54,70,6336
2,64,70,0
2,54,70,0
2,64,70,0
2,54,70,0
2,64,70,0
2,54,70,0
2,63,70,0
2,54,70,188
2,64,70,0
2,54,70,0
2,64,70,0
2,54,70,0
2,64,70,0
2,54,70,0
2,63,70,0
2,54,70,188
2,64,70,0
2,54,70,0
2,64,70,0
2,54,70,0
2,64,70,0
2,54,70,0
2,63,70,0
2,54,70,188
2,64,70,0
2,54,70,0
2,64,70,0
2,54,70,0
2,64,70,0
2,54,70,0
2,63,70,0
2,54,70,30716
2,49,70,0
2,42,70,0
2,63,70,2304
2,64,70,576
2,63,70,2300
2,64,70,576
2,63,70,2300
2,64,70,576
2,63,70,2300
2,64,70,576
2,54,70,192
2,64,70,0
2,54,70,0
2,64,70,0
2,54,70,0
2,64,70,0
2,54,70,0
2,63,70,0
2,54,70,188
2,64,70,0
2,54,70,0
2,64,70,0
2,54,70,0
2,64,70,0
2,54,70,0
2,63,70,0
2,54,70,188
2,64,70,0
2,54,70,0
2,64,70,0
2,54,70,0
2,64,70,0
2,54,70,0
2,63,70,0
2,54,70,188
2,64,70,0
2,54,70,0
2,64,70,0
2,54,70,0
2,64,70,0
2,54,70,0
2,63,70,0
2,54,70,24572
2,49,70,0
2,42,70,0
2,63,70,2304
2,64,70,576
2,63,70,2300
2,64,70,576
2,63,70,2300
2,64,70,576
2,63,70,2300
2,64,70,576
2,54,70,192
2,64,70,0
2,54,70,0
2,64,70,0
2,54,70,0
2,64,70,0
2,54,70,0
2,63,70,0
2,54,70,188
2,64,70,0
2,54,70,0
2,64,70,0
2,54,70,0
2,64,70,0
2,54,70,0
2,63,70,0
2,54,70,188
2,64,70,0
2,54,70,0
2,64,70,0
2,54,70,0
2,64,70,0
2,54,70,0
2,63,70,0
2,54,70,188
2,64,70,0
2,54,70,0
2,64,70,0
2,54,70,0
2,64,70,0
2,54,70,0
2,63,70,0
2,42,100,1536
2,49,100,0
2,52,100,0
2,54,100,288
2,52,100,116
2,42,100,0
2,45,100,36
2,42,100,0
2,45,100,0
2,42,100,1536
2,49,100,0
2,52,100,0
2,54,100,288
2,52,100,116
2,42,100,0
2,45,100,36
2,42,100,0
2,45,100,0
2,42,100,1536
2,49,100,0
2,52,100,0
2,54,100,288
2,52,100,116
2,42,100,0
2,45,100,36
2,42,100,0
2,45,100,0
2,42,100,1536
2,49,100,0
2,52,100,0
2,54,100,288
2,52,100,116
2,42,100,0
2,45,100,36
2,42,100,0
2,45,100,0
2,54,70,12284
2,49,70,0
2,42,70,0
2,63,70,2304
2,64,70,576
2,63,70,2300
2,64,70,576
2,63,70,2300
2,64,70,576
2,63,70,2300
2,64,70,576
2,54,70,0
2,49,70,0
2,42,70,0
2,63,70,2304
2,64,70,576
2,63,70,2300
2,64,70,576
2,63,70,2300
2,64,70,576
2,63,70,2300
2,64,70,576
2,54,70,0
2,49,70,0
2,42,70,0
2,54,70,192
2,64,70,0
2,54,70,0
2,64,70,0
2,54,70,0
2,64,70,0
2,54,70,0
2,63,70,0
2,63,70,768
2,64,70,576
2,54,70,188
2,64,70,0
2,54,70,0
2,64,70,0
2,54,70,0
2,64,70,0
2,54,70,0
2,63,70,0
2,63,70,768
2,64,70,576
2,54,70,188
2,64,70,0
2,54,70,0
2,64,70,0
2,54,70,0
2,64,70,0
2,54,70,0
2,63,70,0
2,63,70,768
2,64,70,576
2,54,70,188
2,64,70,0
2,54,70,0
2,64,70,0
2,54,70,0
2,64,70,0
2,54,70,0
2,63,70,0
2,63,70,768
2,64,70,576
2,42,100,0
2,49,100,0
2,52,100,0
2,54,100,288
2,52,100,116
2,42,100,0
2,45,100,36
2,42,100,0
2,45,100,0
2,42,100,1536
2,49,100,0
2,52,100,0
2,54,100,288
2,52,100,116
2,42,100,0
2,45,100,36
2,42,100,0
2,45,100,0
2,42,100,1536
2,49,100,0
2,52,100,0
2,54,100,288
2,52,100,116
2,42,100,0
2,45,100,36
2,42,100,0
2,45,100,0
2,42,100,1536
2,49,100,0
2,52,100,0
2,54,100,288
2,52,100,116
2,42,100,0
2,45,100,36
2,42,100,0
2,45,100,0
3,30,100,6144
3,30,100,0
3,42,100,0
3,40,100,192
3,37,100,0
3,33,100,192
3,35,100,0
3,35,100,128
3,33,100,128
3,35,100,0
3,35,100,0
3,33,100,0
3,30,100,0
3,30,100,0
3,42,100,0
3,40,100,192
3,37,100,0
3,33,100,192
3,35,100,0
3,35,100,128
3,33,100,128
3,35,100,0
3,35,100,0
3,33,100,0
3,30,100,0
3,30,100,0
3,42,100,0
3,40,100,192
3,37,100,0
3,33,100,192
3,35,100,0
3,35,100,128
3,33,100,128
3,35,100,0
3,35,100,0
3,33,100,0
3,30,100,0
3,30,100,0
3,42,100,0
3,40,100,192
3,37,100,0
3,33,100,192
3,35,100,0
3,35,100,128
3,33,100,128
3,35,100,0
3,35,100,0
3,33,100,0
3,30,100,0
3,30,100,0
3,42,100,0
3,40,100,192
3,37,100,0
3,33,100,192
3,35,100,0
3,35,100,128
3,33,100,128
3,35,100,0
3,35,100,0
3,33,100,0
3,30,100,0
3,30,100,0
3,42,100,0
3,40,100,192
3,37,100,0
3,33,100,192
3,35,100,0
3,35,100,128
3,33,100,128
3,35,100,0
3,35,100,0
3,33,100,0
3,30,100,0
3,30,100,0
3,42,100,0
3,40,100,192
3,37,100,0
3,33,100,192
3,35,100,0
3,35,100,128
3,33,100,128
3,35,100,0
3,35,100,0
3,33,100,0
3,30,100,0
3,30,100,0
3,42,100,0
3,40,100,192
3,37,100,0
3,33,100,192
3,35,100,0
3,35,100,128
3,33,100,128
3,35,100,0
3,35,100,0
3,33,100,0
3,30,100,0
3,30,100,0
3,42,100,0
3,40,100,192
3,37,100,0
3,33,100,192
3,35,100,0
3,35,100,128
3,33,100,128
3,35,100,0
3,35,100,0
3,33,100,0
3,30,100,0
3,30,100,0
3,42,100,0
3,40,100,192
3,37,100,0
3,33,100,192
3,35,100,0
3,35,100,128
3,33,100,128
3,35,100,0
3,35,100,0
3,33,100,0
3,30,100,12288
3,30,100,0
3,42,100,0
3,40,100,192
3,37,100,0
3,33,100,192
3,35,100,0
3,35,100,128
3,33,100,128
3,35,100,0
3,35,100,0
3,33,100,0
3,30,100,0
3,30,100,0
3,42,100,0
3,40,100,192
3,37,100,0
3,33,100,192
3,35,100,0
3,35,100,128
3,33,100,128
3,35,100,0
3,35,100,0
3,33,100,0
3,30,100,0
3,30,100,0
3,42,100,0
3,40,100,192
3,37,100,0
3,33,100,192
3,35,100,0
3,35,100,128
3,33,100,128
3,35,100,0
3,35,100,0
3,33,100,0
3,30,100,0
3,30,100,0
3,42,100,0
3,40,100,192
3,37,100,0
3,33,100,192
3,35,100,0
3,35,100,128
3,33,100,128
3,35,100,0
3,35,100,0
3,33,100,0
3,30,100,0
3,30,100,0
3,42,100,0
3,40,100,192
3,37,100,0
3,33,100,192
3,35,100,0
3,35,100,128
3,33,100,128
3,35,100,0
3,35,100,0
3,33,100,0
3,30,100,0
3,30,100,0
3,42,100,0
3,40,100,192
3,37,100,0
3,33,100,192
3,35,100,0
3,35,100,128
3,33,100,128
3,35,100,0
3,35,100,0
3,33,100,0
3,30,100,0
3,30,100,0
3,42,100,0
3,40,100,192
3,37,100,0
3,33,100,192
3,35,100,0
3,35,100,128
3,33,100,128
3,35,100,0
3,35,100,0
3,33,100,0
3,30,100,0
3,30,100,0
3,42,100,0
3,40,100,192
3,37,100,0
3,33,100,192
3,35,100,0
3,35,100,128
3,33,100,128
3,35,100,0
3,35,100,0
3,33,100,0
3,30,100,0
3,30,100,0
3,42,100,0
3,40,100,192
3,37,100,0
3,33,100,192
3,35,100,0
3,35,100,128
3,33,100,128
3,35,100,0
3,35,100,0
3,33,100,0
3,30,100,0
3,30,100,0
3,42,100,0
3,40,100,192
3,37,100,0
3,33,100,192
3,35,100,0
3,35,100,128
3,33,100,128
3,35,100,0
3,35,100,0
3,33,100,0
3,30,100,0
3,30,100,0
3,42,100,0
3,40,100,192
3,37,100,0
3,33,100,192
3,35,100,0
3,35,100,128
3,33,100,128
3,35,100,0
3,35,100,0
3,33,100,0
3,30,100,0
3,30,100,0
3,42,100,0
3,40,100,192
3,37,100,0
3,33,100,192
3,35,100,0
3,35,100,128
3,33,100,128
3,35,100,0
3,35,100,0
3,33,100,0
3,30,100,12288
3,30,100,0
3,42,100,0
3,40,100,192
3,37,100,0
3,33,100,192
3,35,100,0
3,35,100,128
3,33,100,128
3,35,100,0
3,35,100,0
3,33,100,0
3,30,100,0
3,30,100,0
3,42,100,0
3,40,100,192
3,37,100,0
3,33,100,192
3,35,100,0
3,35,100,128
3,33,100,128
3,35,100,0
3,35,100,0
3,33,100,0
3,30,100,0
3,30,100,0
3,42,100,0
3,40,100,192
3,37,100,0
3,33,100,192
3,35,100,0
3,35,100,128
3,33,100,128
3,35,100,0
3,35,100,0
3,33,100,0
3,30,100,0
3,30,100,0
3,42,100,0
3,40,100,192
3,37,100,0
3,33,100,192
3,35,100,0
3,35,100,128
3,33,100,128
3,35,100,0
3,35,100,0
3,33,100,0
3,30,100,0
3,30,100,0
3,42,100,0
3,40,100,192
3,37,100,0
3,33,100,192
3,35,100,0
3,35,100,128
3,33,100,128
3,35,100,0
3,35,100,0
3,33,100,0
3,30,100,0
3,30,100,0
3,42,100,0
3,40,100,192
3,37,100,0
3,33,100,192
3,35,100,0
3,35,100,128
3,33,100,128
3,35,100,0
3,35,100,0
3,33,100,0
3,30,100,0
3,30,100,0
3,42,100,0
3,40,100,192
3,37,100,0
3,33,100,192
3,35,100,0
3,35,100,128
3,33,100,128
3,35,100,0
3,35,100,0
3,33,100,0
3,30,100,0
3,30,100,0
3,42,100,0
3,40,100,192
3,37,100,0
3,33,100,192
3,35,100,0
3,35,100,128
3,33,100,128
3,35,100,0
3,35,100,0
3,33,100,0
3,30,100,0
3,30,100,0
3,42,100,0
3,40,100,192
3,37,100,0
3,33,100,192
3,35,100,0
3,35,100,128
3,33,100,128
3,35,100,0
3,35,100,0
3,33,100,0
3,30,100,0
3,30,100,0
3,42,100,0
3,40,100,192
3,37,100,0
3,33,100,192
3,35,100,0
3,35,100,128
3,33,100,128
3,35,100,0
3,35,100,0
3,33,100,0
3,30,100,0
3,30,100,0
3,42,100,0
3,40,100,192
3,37,100,0
3,33,100,192
3,35,100,0
3,35,100,128
3,33,100,128
3,35,100,0
3,35,100,0
3,33,100,0
3,30,100,0
3,30,100,0
3,42,100,0
3,40,100,192
3,37,100,0
3,33,100,192
3,35,100,0
3,35,100,128
3,33,100,128
3,35,100,0
3,35,100,0
3,33,100,0
3,30,100,12288
3,30,100,0
3,42,100,0
3,40,100,192
3,37,100,0
3,33,100,192
3,35,100,0
3,35,100,128
3,33,100,128
3,35,100,0
3,35,100,0
3,33,100,0
3,30,100,0
3,30,100,0
3,42,100,0
3,40,100,192
3,37,100,0
3,33,100,192
3,35,100,0
3,35,100,128
3,33,100,128
3,35,100,0
3,35,100,0
3,33,100,0
3,30,100,0
3,30,100,0
3,42,100,0
3,40,100,192
3,37,100,0
3,33,100,192
3,35,100,0
3,35,100,128
3,33,100,128
3,35,100,0
3,35,100,0
3,33,100,0
3,30,100,0
3,30,100,0
3,42,100,0
3,40,100,192
3,37,100,0
3,33,100,192
3,35,100,0
3,35,100,128
3,33,100,128
3,35,100,0
3,35,100,0
3,33,100,0
3,30,100,0
3,30,100,0
3,42,100,0
3,40,100,192
3,37,100,0
3,33,100,192
3,35,100,0
3,35,100,128
3,33,100,128
3,35,100,0
3,35,100,0
3,33,100,0
3,30,100,0
3,30,100,0
3,42,100,0
3,40,100,192
3,37,100,0
3,33,100,192
3,35,100,0
3,35,100,128
3,33,100,128
3,35,100,0
3,35,100,0
3,33,100,0
3,30,100,0
3,30,100,0
3,42,100,0
3,40,100,192
3,37,100,0
3,33,100,192
3,35,100,0
3,35,100,128
3,33,100,128
3,35,100,0
