track,note,velocity,time
1,45,100,0
1,52,100,0
1,57,100,0
1,64,100,0
1,45,94,169
1,52,114,0
1,52,125,120
1,45,112,0
1,57,125,64
1,64,117,0
1,52,127,0
1,45,112,0
1,45,95,45
1,52,125,0
1,45,114,120
1,52,127,0
1,64,127,64
1,57,127,0
1,45,114,0
1,52,127,0
1,45,80,55
1,52,87,0
1,45,97,48
1,52,100,0
1,64,125,0
1,57,127,0
1,45,120,0
1,52,127,0
1,52,97,6
1,45,87,0
1,45,88,113
1,52,104,0
1,64,127,38
1,57,127,0
1,45,97,0
1,52,110,0
1,52,108,6
1,45,87,0
1,45,58,120
1,52,87,51
1,45,97,0
1,64,127,0
1,57,127,0
1,45,86,45
1,52,100,0
1,45,88,120
1,52,86,0
1,64,125,51
1,57,120,0
1,45,106,0
1,52,125,0
1,52,112,32
1,45,91,0
1,57,84,0
1,64,90,0
1,45,70,35
1,64,100,0
1,57,100,0
1,52,108,0
1,53,117,51
1,46,94,0
1,58,102,0
1,65,100,0
1,46,100,6
1,53,112,0
1,58,117,0
1,65,117,0
1,64,127,194
1,57,125,0
1,45,106,0
1,52,117,0
1,52,102,20
1,45,92,0
1,52,114,120
1,45,87,0
1,64,127,52
1,57,127,0
1,45,92,0
1,52,127,0
1,52,104,7
1,45,92,0
1,45,97,120
1,52,104,0
1,64,117,52
1,57,127,0
1,45,112,0
1,52,127,0
1,45,88,20
1,52,95,0
1,45,70,120
1,52,102,0
1,64,127,65
1,57,122,0
1,52,110,0
1,45,120,0
1,52,73,20
1,45,59,0
1,45,90,101
1,52,104,0
1,45,88,52
1,57,127,0
1,64,127,0
1,52,110,0
1,52,94,20
1,45,84,0
1,45,88,120
1,52,110,0
1,64,104,65
1,57,97,0
1,52,108,0
1,45,88,0
1,45,85,20
1,52,106,0
1,45,86,114
1,52,117,0
1,57,125,52
1,64,127,0
1,45,87,0
1,52,91,0
1,52,110,20
1,45,81,0
1,45,84,120
1,52,102,0
1,53,117,65
1,46,110,0
1,58,127,0
1,65,127,0
1,46,108,7
1,65,114,0
1,58,112,0
1,53,122,0
1,57,120,13
1,64,127,0
1,45,110,0
1,52,125,0
1,45,94,20
1,52,112,0
1,45,80,120
1,52,104,0
1,64,127,65
1,57,127,0
1,45,127,0
1,52,122,0
1,52,102,7
1,45,81,0
1,45,100,78
1,52,112,0
1,57,112,0
1,64,127,0
1,45,92,33
1,52,114,0
1,45,98,49
1,52,110,0
1,57,117,78
1,64,127,0
1,45,102,0
1,52,106,0
1,52,97,33
1,45,74,0
1,52,97,120
1,45,95,0
1,57,125,78
1,64,127,0
1,45,97,0
1,52,117,0
1,52,100,46
1,45,86,0
1,45,92,120
1,52,110,0
1,64,122,78
1,57,125,0
1,45,84,176
1,52,88,0
1,57,106,120
1,64,114,0
1,45,88,0
1,52,92,0
1,64,114,78
1,57,127,0
1,52,104,0
1,45,108,0
1,52,100,20
1,45,67,0
1,52,98,101
1,45,100,0
1,53,117,65
1,46,114,0
1,58,122,0
1,65,127,0
1,53,120,20
1,46,110,0
1,58,120,0
1,65,120,0
1,57,120,0
1,64,127,0
1,45,110,0
1,52,125,0
1,45,94,20
1,52,112,0
1,45,80,120
1,52,104,0
1,64,127,65
1,57,127,0
1,45,127,0
1,52,122,0
1,52,102,7
1,45,81,0
1,45,100,78
1,52,112,0
1,57,112,0
1,64,127,0
1,45,92,33
1,52,114,0
1,45,98,49
1,52,110,0
1,57,117,78
1,64,127,0
1,45,102,0
1,52,106,0
1,52,97,33
1,45,74,0
1,52,97,120
1,45,95,0
1,57,125,78
1,64,127,0
1,45,97,0
1,52,117,0
1,52,100,46
1,45,86,0
1,45,92,120
1,52,110,0
1,64,122,78
1,57,125,0
1,45,84,176
1,52,88,0
1,57,106,120
1,64,114,0
1,45,88,0
1,52,92,0
1,64,114,78
1,57,127,0
1,52,104,0
1,45,108,0
1,52,100,20
1,45,67,0
1,52,98,101
1,45,100,0
1,53,117,65
1,46,114,0
1,58,122,0
1,65,127,0
1,53,120,20
1,46,110,0
1,58,120,0
1,65,120,0
1,45,100,23040
1,52,100,0
1,57,100,0
1,64,100,0
1,45,94,169
1,52,114,0
1,52,125,120
1,45,112,0
1,57,125,64
1,64,117,0
1,52,127,0
1,45,112,0
1,45,95,45
1,52,125,0
1,45,114,120
1,52,127,0
1,64,127,64
1,57,127,0
1,45,114,0
1,52,127,0
1,45,80,55
1,52,87,0
1,45,97,48
1,52,100,0
1,64,125,0
1,57,127,0
1,45,120,0
1,52,127,0
1,52,97,6
1,45,87,0
1,45,88,113
1,52,104,0
1,64,127,38
1,57,127,0
1,45,97,0
1,52,110,0
1,52,108,6
1,45,87,0
1,45,58,120
1,52,87,51
1,45,97,0
1,64,127,0
1,57,127,0
1,45,86,45
1,52,100,0
1,45,88,120
1,52,86,0
1,64,125,51
1,57,120,0
1,45,106,0
1,52,125,0
1,52,112,32
1,45,91,0
1,57,84,0
1,64,90,0
1,45,70,35
1,64,100,0
1,57,100,0
1,52,108,0
1,53,117,51
1,46,94,0
1,58,102,0
1,65,100,0
1,46,100,6
1,53,112,0
1,58,117,0
1,65,117,0
1,64,127,194
1,57,125,0
1,45,106,0
1,52,117,0
1,52,102,20
1,45,92,0
1,52,114,120
1,45,87,0
1,64,127,52
1,57,127,0
1,45,92,0
1,52,127,0
1,52,104,7
1,45,92,0
1,45,97,120
1,52,104,0
1,64,117,52
1,57,127,0
1,45,112,0
1,52,127,0
1,45,88,20
1,52,95,0
1,45,70,120
1,52,102,0
1,64,127,65
1,57,122,0
1,52,110,0
1,45,120,0
1,52,73,20
1,45,59,0
1,45,90,101
1,52,104,0
1,45,88,52
1,57,127,0
1,64,127,0
1,52,110,0
1,52,94,20
1,45,84,0
1,45,88,120
1,52,110,0
1,64,104,65
1,57,97,0
1,52,108,0
1,45,88,0
1,45,85,20
1,52,106,0
1,45,86,114
1,52,117,0
1,57,125,52
1,64,127,0
1,45,87,0
1,52,91,0
1,52,110,20
1,45,81,0
1,45,84,120
1,52,102,0
1,53,117,65
1,46,110,0
1,58,127,0
1,65,127,0
1,46,108,7
1,65,114,0
1,58,112,0
1,53,122,0
1,57,120,13
1,64,127,0
1,45,110,0
1,52,125,0
1,45,94,20
1,52,112,0
1,45,80,120
1,52,104,0
1,64,127,65
1,57,127,0
1,45,127,0
1,52,122,0
1,52,102,7
1,45,81,0
1,45,100,78
1,52,112,0
1,57,112,0
1,64,127,0
1,45,92,33
1,52,114,0
1,45,98,49
1,52,110,0
1,57,117,78
1,64,127,0
1,45,102,0
1,52,106,0
1,52,97,33
1,45,74,0
1,52,97,120
1,45,95,0
1,57,125,78
1,64,127,0
1,45,97,0
1,52,117,0
1,52,100,46
1,45,86,0
1,45,92,120
1,52,110,0
1,64,122,78
1,57,125,0
1,45,84,176
1,52,88,0
1,57,106,120
1,64,114,0
1,45,88,0
1,52,92,0
1,64,114,78
1,57,127,0
1,52,104,0
1,45,108,0
1,52,100,20
1,45,67,0
1,52,98,101
1,45,100,0
1,53,117,65
1,46,114,0
1,58,122,0
1,65,127,0
1,53,120,20
1,46,110,0
1,58,120,0
1,65,120,0
1,57,120,0
1,64,127,0
1,45,110,0
1,52,125,0
1,45,94,20
1,52,112,0
1,45,80,120
1,52,104,0
1,64,127,65
1,57,127,0
1,45,127,0
1,52,122,0
1,52,102,7
1,45,81,0
1,45,100,78
1,52,112,0
1,57,112,0
1,64,127,0
1,45,92,33
1,52,114,0
1,45,98,49
1,52,110,0
1,57,117,78
1,64,127,0
1,45,102,0
1,52,106,0
1,52,97,33
1,45,74,0
1,52,97,120
1,45,95,0
1,57,125,78
1,64,127,0
1,45,97,0
1,52,117,0
1,52,100,46
1,45,86,0
1,45,92,120
1,52,110,0
1,64,122,78
1,57,125,0
1,45,84,176
1,52,88,0
1,57,106,120
1,64,114,0
1,45,88,0
1,52,92,0
1,64,114,78
1,57,127,0
1,52,104,0
1,45,108,0
1,52,100,20
1,45,67,0
1,52,98,101
1,45,100,0
1,53,117,65
1,46,114,0
1,58,122,0
1,65,127,0
1,53,120,20
1,46,110,0
1,58,120,0
1,65,120,0
1,45,100,23040
1,52,100,0
1,57,100,0
1,64,100,0
1,45,94,169
1,52,114,0
1,52,125,120
1,45,112,0
1,57,125,64
1,64,117,0
1,52,127,0
1,45,112,0
1,45,95,45
1,52,125,0
1,45,114,120
1,52,127,0
1,64,127,64
1,57,127,0
1,45,114,0
1,52,127,0
1,45,80,55
1,52,87,0
1,45,97,48
1,52,100,0
1,64,125,0
1,57,127,0
1,45,120,0
1,52,127,0
1,52,97,6
1,45,87,0
1,45,88,113
1,52,104,0
1,64,127,38
1,57,127,0
1,45,97,0
1,52,110,0
1,52,108,6
1,45,87,0
1,45,58,120
1,52,87,51
1,45,97,0
1,64,127,0
1,57,127,0
1,45,86,45
1,52,100,0
1,45,88,120
1,52,86,0
1,64,125,51
1,57,120,0
1,45,106,0
1,52,125,0
1,52,112,32
1,45,91,0
1,57,84,0
1,64,90,0
1,45,70,35
1,64,100,0
1,57,100,0
1,52,108,0
1,53,117,51
1,46,94,0
1,58,102,0
1,65,100,0
1,46,100,6
1,53,112,0
1,58,117,0
1,65,117,0
1,64,127,194
1,57,125,0
1,45,106,0
1,52,117,0
1,52,102,20
1,45,92,0
1,52,114,120
1,45,87,0
1,64,127,52
1,57,127,0
1,45,92,0
1,52,127,0
1,52,104,7
1,45,92,0
1,45,97,120
1,52,104,0
1,64,117,52
1,57,127,0
1,45,112,0
1,52,127,0
1,45,88,20
1,52,95,0
1,45,70,120
1,52,102,0
1,64,127,65
1,57,122,0
1,52,110,0
1,45,120,0
1,52,73,20
1,45,59,0
1,45,90,101
1,52,104,0
1,45,88,52
1,57,127,0
1,64,127,0
1,52,110,0
1,52,94,20
1,45,84,0
1,45,88,120
1,52,110,0
1,64,104,65
1,57,97,0
1,52,108,0
1,45,88,0
1,45,85,20
1,52,106,0
1,45,86,114
1,52,117,0
1,57,125,52
1,64,127,0
1,45,87,0
1,52,91,0
1,52,110,20
1,45,81,0
1,45,84,120
1,52,102,0
1,53,117,65
1,46,110,0
1,58,127,0
1,65,127,0
1,46,108,7
1,65,114,0
1,58,112,0
1,53,122,0
1,57,120,13
1,64,127,0
1,45,110,0
1,52,125,0
1,45,94,20
1,52,112,0
1,45,80,120
1,52,104,0
1,64,127,65
1,57,127,0
1,45,127,0
1,52,122,0
1,52,102,7
1,45,81,0
1,45,100,78
1,52,112,0
1,57,112,0
1,64,127,0
1,45,92,33
1,52,114,0
1,45,98,49
1,52,110,0
1,57,117,78
1,64,127,0
1,45,102,0
1,52,106,0
1,52,97,33
1,45,74,0
1,52,97,120
1,45,95,0
1,57,125,78
1,64,127,0
1,45,97,0
1,52,117,0
1,52,100,46
1,45,86,0
1,45,92,120
1,52,110,0
1,64,122,78
1,57,125,0
1,45,84,176
1,52,88,0
1,57,106,120
1,64,114,0
1,45,88,0
1,52,92,0
1,64,114,78
1,57,127,0
1,52,104,0
1,45,108,0
1,52,100,20
1,45,67,0
1,52,98,101
1,45,100,0
1,53,117,65
1,46,114,0
1,58,122,0
1,65,127,0
1,53,120,20
1,46,110,0
1,58,120,0
1,65,120,0
1,57,120,0
1,64,127,0
1,45,110,0
1,52,125,0
1,45,94,20
1,52,112,0
1,45,80,120
1,52,104,0
1,64,127,65
1,57,127,0
1,45,127,0
1,52,122,0
1,52,102,7
1,45,81,0
1,45,100,78
1,52,112,0
1,57,112,0
1,64,127,0
1,45,92,33
1,52,114,0
1,45,98,49
1,52,110,0
1,57,117,78
1,64,127,0
1,45,102,0
1,52,106,0
1,52,97,33
1,45,74,0
1,52,97,120
1,45,95,0
1,57,125,78
1,64,127,0
1,45,97,0
1,52,117,0
1,52,100,46
1,45,86,0
1,45,92,120
1,52,110,0
1,64,122,78
1,57,125,0
1,45,84,176
1,52,88,0
1,57,106,120
1,64,114,0
1,45,88,0
1,52,92,0
1,64,114,78
1,57,127,0
1,52,104,0
1,45,108,0
1,52,100,20
1,45,67,0
1,52,98,101
1,45,100,0
1,53,117,65
1,46,114,0
1,58,122,0
1,65,127,0
1,53,120,20
1,46,110,0
1,58,120,0
1,65,120,0
1,53,127,39
1,60,127,3
1,57,127,1
1,48,127,202
1,48,127,84
1,53,127,75
1,60,127,2
1,57,127,5
1,48,127,233
1,53,127,87
1,57,127,3
1,60,127,1
1,48,127,83
1,60,127,109
1,57,127,3
1,52,127,5
1,53,127,1
1,55,127,2
1,48,127,37
1,48,127,122
1,53,127,121
1,60,127,3
1,57,127,2
1,59,127,15
1,48,127,207
1,53,127,99
1,60,127,4
1,57,127,9
1,48,127,112
1,48,127,211
1,48,127,97
1,53,127,99
1,60,127,3
1,57,127,5
1,48,127,219
1,60,127,100
1,53,127,2
1,57,127,3
1,48,127,77
1,53,127,115
1,60,127,1
1,57,127,5
1,48,127,80
1,48,127,99
1,53,127,106
1,60,127,2
1,57,127,2
1,48,127,211
1,53,127,96
1,60,127,1
1,57,127,6
1,48,127,118
1,48,127,192
1,48,127,112
1,53,127,132
1,60,127,1
1,57,127,1
1,48,127,213
1,53,127,72
1,60,127,6
1,57,127,5
1,48,127,84
1,53,127,131
1,60,127,1
1,57,127,5
1,59,127,4
1,48,127,57
1,48,127,122
1,53,127,113
1,60,127,1
1,57,127,0
1,59,127,0
1,48,127,196
1,53,127,104
1,57,127,7
1,60,127,4
1,48,127,81
1,48,127,201
1,48,127,124
1,53,127,110
1,57,127,3
1,60,127,5
1,62,127,2
1,59,127,5
1,48,127,190
1,60,127,95
1,53,127,1
1,57,127,2
1,48,127,94
1,57,127,109
1,53,127,3
1,60,127,1
1,48,127,74
1,48,127,114
1,53,127,123
1,57,127,3
1,60,127,1
1,48,127,233
1,53,127,93
1,57,127,4
1,48,127,92
1,48,127,231
1,48,127,93
1,53,127,116
1,57,127,4
1,60,127,0
1,48,127,213
1,60,127,92
1,53,127,1
1,57,127,0
1,48,127,69
1,60,127,119
1,57,127,1
1,53,127,2
1,48,127,71
1,48,127,116
1,53,127,108
1,57,127,1
1,60,127,0
1,48,127,240
1,60,127,100
1,57,127,4
1,53,127,5
1,48,127,93
1,48,127,231
1,48,127,112
1,57,127,125
1,60,127,2
1,53,127,0
1,59,127,12
1,48,127,219
1,60,127,109
1,57,127,3
1,53,127,2
1,48,127,81
1,53,127,136
1,60,127,1
1,57,127,0
1,48,127,64
1,48,127,138
1,48,127,135
1,53,127,12
1,60,127,1
1,57,127,4
1,48,127,119
1,53,127,111
1,60,127,1
1,57,127,3
1,48,127,82
1,53,127,132
1,60,127,2
1,57,127,2
1,48,127,231
1,48,127,133
1,60,127,82
1,53,127,1
1,57,127,3
1,59,127,3
1,55,127,1
1,48,127,217
1,53,127,102
1,60,127,0
1,57,127,1
1,48,127,82
1,60,127,140
1,53,127,0
1,57,127,0
1,48,127,67
1,48,127,131
1,53,127,127
1,60,127,0
1,57,127,2
1,48,127,58
1,53,127,126
1,60,127,3
1,57,127,3
1,48,127,6
1,48,127,272
1,48,127,229
1,48,127,118
1,53,127,106
1,60,127,0
1,57,127,1
1,59,127,5
1,48,127,204
1,53,127,100
1,60,127,1
1,57,127,0
1,48,127,117
1,53,127,137
1,60,127,0
1,57,127,0
1,62,127,1
1,59,127,0
1,48,127,78
1,48,127,134
1,60,127,128
1,53,127,1
1,57,127,1
1,48,127,230
1,53,127,135
1,60,127,1
1,57,127,1
1,48,127,98
1,48,127,228
1,48,127,120
1,60,127,130
1,53,127,2
1,57,127,5
1,48,127,224
1,60,127,106
1,57,127,0
1,53,127,1
1,48,127,73
1,53,127,145
1,60,127,4
1,57,127,1
1,48,127,57
1,48,127,151
1,48,127,120
1,53,127,32
1,60,127,2
1,57,127,0
1,53,127,506
1,60,127,3
1,57,127,1
1,48,127,202
1,48,127,84
1,53,127,75
1,60,127,2
1,57,127,5
1,48,127,233
1,53,127,87
1,57,127,3
1,60,127,1
