track,note,velocity,time
1,30,100,180
1,30,0,60
1,42,100,35
1,42,0,60
1,30,100,25
1,30,0,60
1,28,100,60
1,28,0,60
1,30,100,120
1,30,0,60
1,42,100,35
1,42,0,60
1,30,100,25
1,30,0,60
1,28,100,60
1,28,0,60
1,30,100,120
1,30,0,60
1,42,100,35
1,42,0,60
1,30,100,25
1,30,0,60
1,28,100,60
1,28,0,60
1,30,100,120
1,30,0,60
1,42,100,35
1,42,0,60
1,30,100,25
1,30,0,60
1,28,100,60
1,28,0,60
1,30,100,120
1,30,0,60
1,42,100,35
1,42,0,60
1,30,100,25
1,30,0,60
1,28,100,60
1,28,0,60
1,30,100,120
1,30,0,60
1,42,100,35
1,42,0,60
1,30,100,25
1,30,0,60
1,28,100,60
1,28,0,60
1,30,100,120
1,30,0,60
1,42,100,35
1,42,0,60
1,30,100,25
1,30,0,60
1,28,100,60
1,28,0,60
1,30,100,120
1,30,0,60
1,42,100,35
1,42,0,60
1,30,100,25
1,30,0,60
1,28,100,60
1,28,0,60
1,30,100,120
1,30,0,60
1,42,100,35
1,42,0,60
1,30,100,25
1,30,0,60
1,28,100,60
1,28,0,60
1,30,100,120
1,30,0,60
1,42,100,35
1,42,0,60
1,30,100,25
1,30,0,60
1,28,100,60
1,28,0,60
1,30,100,120
1,30,0,60
1,42,100,35
1,42,0,60
1,30,100,25
1,30,0,60
1,28,100,60
1,28,0,60
1,30,100,120
1,30,0,60
1,42,100,35
1,42,0,60
1,30,100,25
1,30,0,60
1,28,100,60
1,28,0,60
1,30,100,120
1,30,0,60
1,42,100,35
1,42,0,60
1,52,100,25
1,30,100,0
1,30,0,60
1,52,0,0
1,54,100,0
1,28,100,60
1,28,0,60
1,54,0,60
1,30,100,60
1,30,0,60
1,42,100,35
1,42,0,60
1,54,100,25
1,30,100,0
1,30,0,60
1,54,0,0
1,52,100,0
1,28,100,60
1,28,0,60
1,52,0,60
1,30,100,60
1,30,0,60
1,42,100,35
1,42,0,60
1,52,100,25
1,30,100,0
1,30,0,60
1,52,0,0
1,54,100,0
1,28,100,60
1,28,0,60
1,54,0,60
1,30,100,60
1,30,0,60
1,42,100,35
1,42,0,60
1,54,100,25
1,30,100,0
1,30,0,60
1,54,0,0
1,52,100,0
1,28,100,60
1,28,0,60
1,52,0,60
1,30,100,60
1,30,0,60
1,42,100,35
1,42,0,60
1,52,100,25
1,30,100,0
1,30,0,60
1,52,0,0
1,54,100,0
1,28,100,60
1,28,0,60
1,54,0,60
1,30,100,60
1,30,0,60
1,42,100,35
1,42,0,60
1,54,100,25
1,30,100,0
1,30,0,60
1,54,0,0
1,52,100,0
1,28,100,60
1,28,0,60
1,52,0,60
1,30,100,60
1,30,0,60
1,42,100,35
1,42,0,60
1,52,100,25
1,30,100,0
1,30,0,60
1,52,0,0
1,54,100,0
1,28,100,60
1,28,0,60
1,54,0,60
1,30,100,60
1,30,0,60
1,42,100,35
1,42,0,60
1,54,100,25
1,30,100,0
1,30,0,60
1,54,0,0
1,52,100,0
1,28,100,60
1,28,0,60
1,52,0,60
1,30,100,60
1,30,0,60
1,42,100,35
1,42,0,60
1,52,100,25
1,30,100,0
1,30,0,60
1,52,0,0
1,54,100,0
1,28,100,60
1,28,0,60
1,54,0,60
1,30,100,60
1,30,0,60
1,42,100,35
1,42,0,60
1,54,100,25
1,30,100,0
1,30,0,60
1,54,0,0
1,52,100,0
1,28,100,60
1,28,0,60
1,52,0,60
1,30,100,60
1,30,0,60
1,42,100,35
1,42,0,60
1,52,100,25
1,30,100,0
1,30,0,60
1,52,0,0
1,54,100,0
1,28,100,60
1,28,0,60
1,54,0,60
1,30,100,60
1,30,0,60
1,42,100,35
1,42,0,60
1,54,100,25
1,30,100,0
1,30,0,60
1,54,0,0
1,52,100,0
1,28,100,60
1,28,0,60
1,52,0,60
1,30,100,60
1,30,0,60
1,42,100,35
1,42,0,60
1,52,100,25
1,30,100,0
1,30,0,60
1,52,0,0
1,54,100,0
1,28,100,60
1,28,0,60
1,54,0,60
1,30,100,60
1,30,0,60
1,42,100,35
1,42,0,60
1,54,100,25
1,30,100,0
1,30,0,60
1,54,0,0
1,52,100,0
1,28,100,60
1,28,0,60
1,52,0,60
1,30,100,60
1,30,0,60
1,42,100,35
1,42,0,60
1,52,100,25
1,30,100,0
1,30,0,60
1,52,0,0
1,54,100,0
1,28,100,60
1,28,0,60
1,54,0,60
1,30,100,60
1,30,0,60
1,42,100,35
1,42,0,60
1,54,100,25
1,30,100,0
1,30,0,60
1,54,0,0
1,52,100,0
1,28,100,60
1,28,0,60
1,52,0,60
1,30,100,0
1,42,100,0
1,30,100,60
1,30,0,60
1,42,100,35
1,42,0,60
1,30,100,25
1,30,0,60
1,28,100,60
1,28,0,60
1,42,0,60
1,30,0,0
1,30,100,60
1,30,0,60
1,42,100,35
1,42,0,60
1,30,100,25
1,30,0,60
1,28,100,60
1,28,0,60
1,30,100,120
1,30,0,60
1,42,100,35
1,42,0,60
1,30,100,25
1,30,0,60
1,28,100,60
1,28,0,60
1,30,100,120
1,30,0,60
1,42,100,35
1,42,0,60
1,30,100,25
1,30,0,60
1,28,100,60
1,28,0,60
1,61,100,3900
1,61,0,15
1,61,100,0
1,61,0,15
1,61,100,0
1,61,0,15
1,61,100,0
1,61,0,15
1,61,100,60
1,61,0,60
1,60,100,0
1,60,0,60
1,61,100,0
1,61,0,60
1,60,100,60
1,60,0,60
1,61,100,0
1,61,0,60
1,54,100,60
1,54,0,180
1,54,100,300
1,54,0,60
1,61,100,0
1,61,0,60
1,60,100,0
1,60,0,60
1,61,100,0
1,61,0,60
1,59,100,0
1,59,0,60
1,57,100,0
1,57,0,60
1,61,100,0
1,61,0,270
1,54,100,330
1,54,0,60
1,61,100,0
1,61,0,60
1,60,100,0
1,60,0,60
1,61,100,0
1,61,0,60
1,60,100,60
1,60,0,60
1,61,100,0
1,61,0,60
1,54,100,60
1,54,0,180
1,54,100,300
1,54,0,60
1,61,100,0
1,61,0,60
1,60,100,0
1,60,0,60
1,61,100,0
1,61,0,60
1,59,100,0
1,59,0,60
1,57,100,0
1,57,0,60
1,61,100,0
1,61,0,60
1,61,100,60
1,61,0,60
1,61,100,58
1,61,0,120
1,30,100,242
1,30,0,60
1,42,100,35
1,42,0,60
1,52,100,25
1,30,100,0
1,30,0,60
1,52,0,0
1,54,100,0
1,28,100,60
1,28,0,60
1,54,0,60
1,30,100,60
1,30,0,60
1,42,100,35
1,42,0,60
1,54,100,25
1,30,100,0
1,30,0,60
1,54,0,0
1,52,100,0
1,28,100,60
1,28,0,60
1,52,0,60
1,30,100,60
1,30,0,60
1,42,100,35
1,42,0,60
1,52,100,25
1,30,100,0
1,30,0,60
1,52,0,0
1,54,100,0
1,28,100,60
1,28,0,60
1,54,0,60
1,30,100,60
1,30,0,60
1,42,100,35
1,42,0,60
1,54,100,25
1,30,100,0
1,30,0,60
1,54,0,0
1,52,100,0
1,28,100,60
1,28,0,60
1,52,0,60
1,30,100,60
1,30,0,60
1,42,100,35
1,42,0,60
1,52,100,25
1,30,100,0
1,30,0,60
1,52,0,0
1,54,100,0
1,28,100,60
1,28,0,60
1,54,0,60
1,30,100,60
1,30,0,60
1,42,100,35
1,42,0,60
1,54,100,25
1,30,100,0
1,30,0,60
1,54,0,0
1,52,100,0
1,28,100,60
1,28,0,60
1,52,0,60
1,30,100,60
1,30,0,60
1,42,100,35
1,42,0,60
1,52,100,25
1,30,100,0
1,30,0,60
1,52,0,0
1,54,100,0
1,28,100,60
1,28,0,60
1,54,0,60
1,30,100,60
1,30,0,60
1,42,100,35
1,42,0,60
1,54,100,25
1,30,100,0
1,30,0,60
1,54,0,0
1,52,100,0
1,28,100,60
1,28,0,60
1,52,0,60
1,30,100,0
1,42,100,0
1,30,100,60
1,30,0,60
1,42,100,35
1,42,0,60
1,30,100,25
1,30,0,60
1,28,100,60
1,28,0,60
1,42,0,60
1,30,0,0
1,30,100,60
1,30,0,60
1,42,100,35
1,42,0,60
1,30,100,25
1,30,0,60
1,28,100,60
1,28,0,60
1,30,100,120
1,30,0,60
1,42,100,35
1,42,0,60
1,30,100,25
1,30,0,60
1,28,100,60
1,28,0,60
1,30,100,120
1,30,0,60
1,42,100,35
1,42,0,60
1,30,100,25
1,30,0,60
1,28,100,60
1,28,0,60
1,42,100,3900
1,42,0,480
1,40,100,0
1,40,0,480
1,38,100,0
1,38,0,480
1,47,100,0
1,47,0,480
1,42,100,0
1,42,0,480
1,40,100,0
1,40,0,480
1,38,100,0
1,38,0,480
1,47,100,0
1,47,0,480
1,42,100,0
1,42,0,480
1,40,100,0
1,40,0,480
1,38,100,0
1,38,0,480
1,47,100,0
1,47,0,480
1,42,100,0
1,42,0,480
1,40,100,0
1,40,0,480
1,38,100,0
1,38,0,480
1,47,100,0
1,47,0,480
1,42,100,0
1,42,0,1620
1,30,100,2280
1,30,0,60
1,42,100,35
1,42,0,60
1,52,100,25
1,30,100,0
1,30,0,60
1,52,0,0
1,54,100,0
1,28,100,60
1,28,0,60
1,54,0,60
1,30,100,60
1,30,0,60
1,42,100,35
1,42,0,60
1,54,100,25
1,30,100,0
1,30,0,60
1,54,0,0
1,52,100,0
1,28,100,60
1,28,0,60
1,52,0,60
1,30,100,60
1,30,0,60
1,42,100,35
1,42,0,60
1,52,100,25
1,30,100,0
1,30,0,60
1,52,0,0
1,54,100,0
1,28,100,60
1,28,0,60
1,54,0,60
1,30,100,60
1,30,0,60
1,42,100,35
1,42,0,60
1,54,100,25
1,30,100,0
1,30,0,60
1,54,0,0
1,52,100,0
1,28,100,60
1,28,0,60
1,52,0,60
1,30,100,60
1,30,0,60
1,42,100,35
1,42,0,60
1,52,100,25
1,30,100,0
1,30,0,60
1,52,0,0
1,54,100,0
1,28,100,60
1,28,0,60
1,54,0,60
1,30,100,60
1,30,0,60
1,42,100,35
1,42,0,60
1,54,100,25
1,30,100,0
1,30,0,60
1,54,0,0
1,52,100,0
1,28,100,60
1,28,0,60
1,52,0,60
1,30,100,60
1,30,0,60
1,42,100,35
1,42,0,60
1,52,100,25
1,30,100,0
1,30,0,60
1,52,0,0
1,54,100,0
1,28,100,60
1,28,0,60
1,54,0,60
1,30,100,60
1,30,0,60
1,42,100,35
1,42,0,60
1,54,100,25
1,30,100,0
1,30,0,60
1,54,0,0
1,52,100,0
1,28,100,60
1,28,0,60
1,52,0,60
1,30,100,60
1,30,0,60
1,42,100,35
1,42,0,60
1,52,100,25
1,30,100,0
1,30,0,60
1,52,0,0
1,54,100,0
1,28,100,60
1,28,0,60
1,54,0,60
1,30,100,60
1,30,0,60
1,42,100,35
1,42,0,60
1,54,100,25
1,30,100,0
1,30,0,60
1,54,0,0
1,52,100,0
1,28,100,60
1,28,0,60
1,52,0,60
1,30,100,60
1,30,0,60
1,42,100,35
1,42,0,60
1,52,100,25
1,30,100,0
1,30,0,60
1,52,0,0
1,54,100,0
1,28,100,60
1,28,0,60
1,54,0,60
1,30,100,60
1,30,0,60
1,42,100,35
1,42,0,60
1,54,100,25
1,30,100,0
1,30,0,60
1,54,0,0
1,52,100,0
1,28,100,60
1,28,0,60
1,52,0,60
1,30,100,60
1,30,0,60
1,42,100,35
1,42,0,60
1,52,100,25
1,30,100,0
1,30,0,60
1,52,0,0
1,54,100,0
1,28,100,60
1,28,0,60
1,54,0,60
1,30,100,60
1,30,0,60
1,42,100,35
1,42,0,60
1,54,100,25
1,30,100,0
1,30,0,60
1,54,0,0
1,52,100,0
1,28,100,60
1,28,0,60
1,52,0,60
1,30,100,60
1,30,0,60
1,42,100,35
1,42,0,60
1,52,100,25
1,30,100,0
1,30,0,60
1,52,0,0
1,54,100,0
1,28,100,60
1,28,0,60
1,54,0,60
1,30,100,60
1,30,0,60
1,42,100,35
1,42,0,60
1,54,100,25
1,30,100,0
1,30,0,60
1,54,0,0
1,52,100,0
1,28,100,60
1,28,0,60
1,52,0,60
1,30,100,60
1,30,0,60
1,42,100,35
1,42,0,60
1,52,100,25
1,30,100,0
1,30,0,60
1,52,0,0
1,54,100,0
1,28,100,60
1,28,0,60
1,54,0,60
1,30,100,60
1,30,0,60
1,42,100,35
1,42,0,60
1,54,100,25
1,30,100,0
1,30,0,60
1,54,0,0
1,52,100,0
1,28,100,60
1,28,0,60
1,52,0,60
1,30,100,60
1,30,0,60
1,42,100,35
1,42,0,60
1,52,100,25
1,30,100,0
1,30,0,60
1,52,0,0
1,54,100,0
1,28,100,60
1,28,0,60
1,54,0,60
1,30,100,60
1,30,0,60
1,42,100,35
1,42,0,60
1,54,100,25
1,30,100,0
1,30,0,60
1,54,0,0
1,52,100,0
1,28,100,60
1,28,0,60
1,52,0,60
1,30,100,60
1,30,0,60
1,42,100,35
1,42,0,60
1,52,100,25
1,30,100,0
1,30,0,60
1,52,0,0
1,54,100,0
1,28,100,60
1,28,0,60
1,54,0,60
1,30,100,60
1,30,0,60
1,42,100,35
1,42,0,60
1,54,100,25
1,30,100,0
1,30,0,60
1,54,0,0
1,52,100,0
1,28,100,60
1,28,0,60
1,52,0,60
1,30,100,60
1,30,0,60
1,42,100,35
1,42,0,60
1,52,100,25
1,30,100,0
1,30,0,60
1,52,0,0
1,54,100,0
1,28,100,60
1,28,0,60
1,54,0,60
1,30,100,60
1,30,0,60
1,42,100,35
1,42,0,60
1,54,100,25
1,30,100,0
1,30,0,60
1,54,0,0
1,52,100,0
1,28,100,60
1,28,0,60
1,52,0,60
1,30,100,60
1,30,0,60
1,42,100,35
1,42,0,60
1,52,100,25
1,30,100,0
1,30,0,60
1,52,0,0
1,54,100,0
1,28,100,60
1,28,0,60
1,54,0,60
1,30,100,60
1,30,0,60
1,42,100,35
1,42,0,60
1,54,100,25
1,30,100,0
1,30,0,60
1,54,0,0
1,52,100,0
1,28,100,60
1,28,0,60
1,52,0,60
1,30,100,60
1,30,0,60
1,42,100,35
1,42,0,60
1,52,100,25
1,30,100,0
1,30,0,60
1,52,0,0
1,54,100,0
1,28,100,60
1,28,0,60
1,54,0,60
1,30,100,60
1,30,0,60
1,42,100,35
1,42,0,60
1,54,100,25
1,30,100,0
1,30,0,60
1,54,0,0
1,52,100,0
1,28,100,60
1,28,0,60
1,52,0,60
1,30,100,60
1,30,0,60
1,42,100,35
1,42,0,60
1,52,100,25
1,30,100,0
1,30,0,60
1,52,0,0
1,54,100,0
1,28,100,60
1,28,0,60
1,54,0,60
1,30,100,60
1,30,0,60
1,42,100,35
1,42,0,60
1,54,100,25
1,30,100,0
1,30,0,60
1,54,0,0
1,52,100,0
1,28,100,60
1,28,0,60
1,52,0,60
1,30,100,60
1,30,0,60
1,42,100,35
1,42,0,60
1,52,100,25
1,30,100,0
1,30,0,60
1,52,0,0
1,54,100,0
1,28,100,60
1,28,0,60
1,54,0,60
1,30,100,60
1,30,0,60
1,42,100,35
1,42,0,60
1,54,100,25
1,30,100,0
1,30,0,60
1,54,0,0
1,52,100,0
1,28,100,60
1,28,0,60
1,52,0,60
1,30,100,60
1,30,0,60
1,42,100,35
1,42,0,60
1,52,100,25
1,30,100,0
1,30,0,60
1,52,0,0
1,54,100,0
1,28,100,60
1,28,0,60
1,54,0,60
1,30,100,60
1,30,0,60
1,42,100,35
1,42,0,60
1,54,100,25
1,30,100,0
1,30,0,60
1,54,0,0
1,52,100,0
1,28,100,60
1,28,0,60
1,52,0,60
1,30,100,60
1,30,0,60
1,42,100,35
1,42,0,60
1,52,100,25
1,30,100,0
1,30,0,60
1,52,0,0
1,54,100,0
1,28,100,60
1,28,0,60
1,54,0,60
1,30,100,60
1,30,0,60
1,42,100,35
1,42,0,60
1,54,100,25
1,30,100,0
1,30,0,60
1,54,0,0
1,52,100,0
1,28,100,60
1,28,0,60
1,52,0,60
1,30,100,60
1,30,0,60
1,42,100,35
1,42,0,60
1,52,100,25
1,30,100,0
1,30,0,60
1,52,0,0
1,54,100,0
1,28,100,60
1,28,0,60
1,54,0,60
