track,note,velocity,time
1,67,100,120
1,67,0,120
1,69,100,0
1,69,0,60
1,70,100,0
1,70,0,120
1,74,100,0
1,74,0,180
1,67,100,0
1,67,0,120
1,69,100,0
1,69,0,60
1,70,100,0
1,70,0,120
1,67,100,0
1,67,0,180
1,67,100,0
1,67,0,120
1,69,100,0
1,69,0,60
1,70,100,0
1,70,0,120
1,74,100,0
1,74,0,300
1,67,100,360
1,67,0,120
1,69,100,0
1,69,0,60
1,70,100,0
1,70,0,120
1,74,100,0
1,74,0,180
1,67,100,0
1,67,0,120
1,69,100,0
1,69,0,60
1,70,100,0
1,70,0,120
1,67,100,0
1,67,0,180
1,67,100,0
1,67,0,120
1,69,100,0
1,69,0,60
1,70,100,0
1,70,0,120
1,74,100,0
1,74,0,300
2,39,100,0
2,46,100,0
2,46,0,480
2,39,0,0
2,39,100,0
2,46,100,0
2,46,0,480
2,39,0,0
2,43,100,0
2,50,100,0
2,50,0,480
2,43,0,0
2,43,100,0
2,50,100,0
2,50,0,480
2,43,0,0
2,39,100,0
2,46,100,0
2,46,0,480
2,39,0,0
2,39,100,0
2,46,100,0
2,46,0,480
2,39,0,0
2,50,100,0
2,43,100,0
2,43,0,480
2,50,0,0
2,50,100,0
2,43,100,0
2,43,0,480
2,50,0,0
2,58,100,0
2,46,100,0
2,46,0,480
2,58,0,0
2,55,100,0
2,43,100,0
2,43,0,480
2,55,0,0
2,53,100,0
2,41,100,0
2,41,0,480
2,53,0,0
2,51,100,0
2,39,100,0
2,39,0,480
2,51,0,0
2,58,100,0
2,46,100,0
2,46,0,480
2,58,0,0
2,55,100,0
2,43,100,0
2,43,0,480
2,55,0,0
2,53,100,0
2,41,100,0
2,41,0,480
2,53,0,0
2,51,100,0
2,39,100,0
2,39,0,480
2,51,0,0
2,58,100,0
2,62,100,0
2,62,0,480
2,58,0,0
2,55,100,0
2,62,100,0
2,62,0,480
2,55,0,0
2,63,100,0
2,51,100,0
2,51,0,480
2,63,0,0
2,51,100,0
2,63,100,0
2,63,0,480
2,51,0,0
2,62,100,0
2,58,100,0
2,58,0,480
2,62,0,0
2,62,100,0
2,55,100,0
2,55,0,480
2,62,0,0
2,53,100,0
2,60,100,0
2,60,0,480
2,53,0,0
2,53,100,0
2,60,100,0
2,60,0,480
2,53,0,0
2,58,100,0
2,62,100,0
2,62,0,480
2,58,0,0
2,55,100,0
2,62,100,0
2,62,0,480
2,55,0,0
2,63,100,0
2,51,100,0
2,51,0,480
2,63,0,0
2,51,100,0
2,63,100,0
2,63,0,480
2,51,0,0
2,62,100,0
2,58,100,0
2,58,0,480
2,62,0,0
2,62,100,0
2,55,100,0
2,55,0,480
2,62,0,0
2,60,100,0
2,53,100,0
2,53,0,480
2,60,0,0
2,58,100,4320
2,62,100,0
2,62,0,480
2,58,0,0
2,55,100,0
2,62,100,0
2,62,0,480
2,55,0,0
2,63,100,0
2,51,100,0
2,51,0,480
2,63,0,0
2,51,100,0
2,63,100,0
2,63,0,480
2,51,0,0
2,62,100,0
2,58,100,0
2,58,0,480
2,62,0,0
2,62,100,0
2,55,100,0
2,55,0,480
2,62,0,0
2,60,100,0
2,53,100,0
2,53,0,480
2,60,0,0
2,46,100,4320
2,46,0,480
2,43,100,0
2,43,0,480
2,41,100,0
2,41,0,480
2,39,100,0
2,39,0,480
2,46,100,0
2,46,0,480
2,43,100,0
2,43,0,480
2,41,100,0
2,41,0,480
2,39,100,0
2,39,0,480
2,51,100,3840
2,39,100,0
2,39,0,480
2,51,0,0
2,51,100,0
2,39,100,0
2,39,0,480
2,51,0,0
2,43,100,0
2,55,100,0
2,55,0,480
2,43,0,0
2,43,100,0
2,55,100,0
2,55,0,480
2,43,0,0
2,39,100,0
2,51,100,0
2,51,0,480
2,39,0,0
2,39,100,0
2,51,100,0
2,51,0,480
2,39,0,0
2,41,100,0
2,53,100,0
2,53,0,480
2,41,0,0
2,41,100,0
2,53,100,0
2,53,0,480
2,41,0,0
2,39,100,0
2,51,100,0
2,51,0,480
2,39,0,0
2,51,100,0
2,39,100,0
2,39,0,480
2,51,0,0
2,43,100,0
2,55,100,0
2,55,0,480
2,43,0,0
2,43,100,0
2,55,100,0
2,55,0,480
2,43,0,0
2,44,100,0
2,56,100,0
2,56,0,480
2,44,0,0
2,44,100,0
2,56,100,0
2,56,0,480
2,44,0,0
2,41,100,0
2,53,100,0
2,53,0,480
2,41,0,0
2,41,100,0
2,53,100,0
2,53,0,480
2,41,0,0
2,46,100,0
2,46,0,480
2,43,100,0
2,43,0,480
2,41,100,0
2,41,0,480
2,39,100,0
2,39,0,480
2,46,100,0
2,46,0,480
2,43,100,0
2,43,0,480
2,41,100,0
2,41,0,480
2,44,100,0
2,44,0,480
2,46,100,0
2,46,0,480
2,43,100,0
2,43,0,480
2,41,100,0
2,41,0,480
2,39,100,0
2,39,0,480
2,46,100,0
2,46,0,480
2,43,100,0
2,43,0,480
2,41,100,0
2,41,0,480
2,44,100,0
2,44,0,480
2,46,100,0
2,46,0,480
2,43,100,0
2,43,0,480
2,41,100,0
2,41,0,480
2,39,100,0
2,39,0,480
2,46,100,0
2,46,0,480
2,43,100,0
2,43,0,480
2,41,100,0
2,41,0,480
2,44,100,0
2,44,0,480
3,67,100,3480
3,67,0,360
4,69,100,3360
4,69,0,480
5,70,100,3960
5,70,0,120
5,72,100,0
5,72,0,60
5,74,100,0
5,74,0,120
5,77,100,0
5,77,0,180
5,70,100,0
5,70,0,120
5,72,100,0
5,72,0,60
5,74,100,0
5,74,0,120
5,79,100,0
5,79,0,180
5,70,100,0
5,70,0,120
5,72,100,0
5,72,0,60
5,74,100,0
5,74,0,120
5,77,100,0
5,77,0,180
5,70,100,0
5,70,0,60
5,72,100,0
5,72,0,60
5,74,100,60
5,74,0,60
5,72,100,0
5,72,0,60
5,70,100,0
5,70,0,60
5,70,100,120
5,70,0,120
5,72,100,0
5,72,0,60
5,74,100,0
5,74,0,120
5,77,100,0
5,77,0,180
5,70,100,0
5,70,0,120
5,72,100,0
5,72,0,60
5,74,100,0
5,74,0,120
5,79,100,0
5,79,0,180
5,70,100,0
5,70,0,120
5,72,100,0
5,72,0,60
5,74,100,0
5,74,0,120
5,77,100,0
5,77,0,180
5,70,100,0
5,70,0,60
5,72,100,0
5,72,0,60
5,74,100,60
5,74,0,60
5,72,100,0
5,72,0,60
5,70,100,0
5,70,0,60
5,70,100,19320
5,70,0,120
5,72,100,0
5,72,0,60
5,74,100,0
5,74,0,120
5,77,100,0
5,77,0,180
5,70,100,0
5,70,0,120
5,72,100,0
5,72,0,60
5,74,100,0
5,74,0,120
5,79,100,0
5,79,0,180
5,70,100,0
5,70,0,120
5,72,100,0
5,72,0,60
5,74,100,0
5,74,0,120
5,77,100,0
5,77,0,180
5,70,100,0
5,70,0,60
5,72,100,0
5,72,0,60
5,74,100,60
5,74,0,60
5,72,100,0
5,72,0,60
5,70,100,0
5,70,0,60
5,70,100,120
5,70,0,120
5,72,100,0
5,72,0,60
5,74,100,0
5,74,0,120
5,77,100,0
5,77,0,180
5,70,100,0
5,70,0,120
5,72,100,0
5,72,0,60
5,74,100,0
5,74,0,120
5,79,100,0
5,79,0,180
5,70,100,0
5,70,0,120
5,72,100,0
5,72,0,60
5,74,100,0
5,74,0,120
5,77,100,0
5,77,0,180
5,70,100,0
5,70,0,60
5,72,100,0
5,72,0,60
5,74,100,60
5,74,0,60
5,72,100,0
5,72,0,60
5,70,100,0
5,70,0,60
5,70,100,11640
5,70,0,120
5,72,100,0
5,72,0,60
5,74,100,0
5,74,0,120
5,77,100,0
5,77,0,180
5,70,100,0
5,70,0,120
5,72,100,0
5,72,0,60
5,74,100,0
5,74,0,120
5,79,100,0
5,79,0,180
5,70,100,0
5,70,0,120
5,72,100,0
5,72,0,60
5,74,100,0
5,74,0,120
5,77,100,0
5,77,0,180
5,70,100,0
5,70,0,60
5,72,100,0
5,72,0,60
5,74,100,60
5,74,0,60
5,72,100,0
5,72,0,60
5,70,100,0
5,70,0,60
5,70,100,120
5,70,0,120
5,72,100,0
5,72,0,60
5,74,100,0
5,74,0,120
5,77,100,0
5,77,0,180
5,70,100,0
5,70,0,120
5,72,100,0
5,72,0,60
5,74,100,0
5,74,0,120
5,79,100,0
5,79,0,180
5,70,100,0
5,70,0,120
5,72,100,0
5,72,0,60
5,74,100,0
5,74,0,120
5,77,100,0
5,77,0,180
5,70,100,0
5,70,0,60
5,72,100,0
5,72,0,60
5,74,100,60
5,74,0,60
5,72,100,0
5,72,0,60
5,70,100,0
5,70,0,60
5,70,100,120
5,70,0,120
5,72,100,0
5,72,0,60
5,74,100,0
5,74,0,120
5,77,100,0
5,77,0,180
5,70,100,0
5,70,0,120
5,72,100,0
5,72,0,60
5,74,100,0
5,74,0,120
5,79,100,0
5,79,0,180
5,70,100,0
5,70,0,120
5,72,100,0
5,72,0,60
5,74,100,0
5,74,0,120
5,77,100,0
5,77,0,180
5,70,100,0
5,70,0,60
5,72,100,0
5,72,0,60
5,74,100,60
5,74,0,60
5,72,100,0
5,72,0,60
5,70,100,0
5,70,0,60
5,70,100,120
5,70,0,120
5,72,100,0
5,72,0,60
5,74,100,0
5,74,0,120
5,77,100,0
5,77,0,180
5,70,100,0
5,70,0,120
5,72,100,0
5,72,0,60
5,74,100,0
5,74,0,120
5,79,100,0
5,79,0,180
5,70,100,0
5,70,0,120
5,72,100,0
5,72,0,60
5,74,100,0
5,74,0,120
5,77,100,0
5,77,0,180
5,70,100,0
5,70,0,60
5,72,100,0
5,72,0,60
5,74,100,60
5,74,0,60
5,72,100,0
5,72,0,60
5,70,100,0
5,70,0,60
5,70,100,120
5,70,0,120
5,72,100,0
5,72,0,60
5,74,100,0
5,74,0,120
5,77,100,0
5,77,0,180
5,70,100,0
5,70,0,120
5,72,100,0
5,72,0,60
5,74,100,0
5,74,0,120
5,79,100,0
5,79,0,180
5,70,100,0
5,70,0,120
5,72,100,0
5,72,0,60
5,74,100,0
5,74,0,120
5,77,100,0
5,77,0,180
5,70,100,0
5,70,0,60
5,72,100,0
5,72,0,60
5,74,100,60
5,74,0,60
5,72,100,0
5,72,0,60
5,70,100,0
5,70,0,60
5,70,100,120
5,70,0,120
5,72,100,0
5,72,0,60
5,74,100,0
5,74,0,120
5,77,100,0
5,77,0,180
5,70,100,0
5,70,0,120
5,72,100,0
5,72,0,60
5,74,100,0
5,74,0,120
5,79,100,0
5,79,0,180
5,70,100,0
5,70,0,120
5,72,100,0
5,72,0,60
5,74,100,0
5,74,0,120
5,77,100,0
5,77,0,180
5,70,100,0
5,70,0,60
5,72,100,0
5,72,0,60
5,74,100,60
5,74,0,60
5,72,100,0
5,72,0,60
5,70,100,0
5,70,0,60
6,70,100,3960
6,70,100,30
6,70,0,90
6,72,100,0
6,70,0,30
6,72,100,0
6,72,0,30
6,74,100,0
6,72,0,30
6,74,100,0
6,74,0,90
6,77,100,0
6,74,0,30
6,77,100,0
6,77,0,150
6,70,100,0
6,77,0,30
6,70,100,0
6,70,0,90
6,72,100,0
6,70,0,30
6,72,100,0
6,72,0,30
6,74,100,0
6,72,0,30
6,74,100,0
6,74,0,90
6,79,100,0
6,74,0,30
6,79,100,0
6,79,0,150
6,70,100,0
6,79,0,30
6,70,100,0
6,70,0,90
6,72,100,0
6,70,0,30
6,72,100,0
6,72,0,30
6,74,100,0
6,72,0,30
6,74,100,0
6,74,0,90
6,77,100,0
6,74,0,30
6,77,100,0
6,77,0,150
6,70,100,0
6,77,0,30
6,70,100,0
6,70,0,30
6,72,100,0
6,70,0,30
6,72,100,0
6,72,0,30
6,72,0,30
6,74,100,30
6,74,100,30
6,74,0,30
6,72,100,0
6,74,0,30
6,72,100,0
6,72,0,30
6,70,100,0
6,72,0,30
6,70,100,0
6,70,0,30
6,70,0,30
6,70,100,90
6,70,0,120
6,72,100,0
6,72,0,60
6,74,100,0
6,74,0,120
6,77,100,0
6,77,0,180
6,70,100,0
6,70,0,120
6,72,100,0
6,72,0,60
6,74,100,0
6,74,0,120
6,79,100,0
6,79,0,180
6,70,100,0
6,70,0,120
6,72,100,0
6,72,0,60
6,74,100,0
6,74,0,120
6,77,100,0
6,77,0,180
6,70,100,0
6,70,0,60
6,72,100,0
6,72,0,60
6,74,100,60
6,74,0,60
6,72,100,0
6,72,0,60
6,70,100,0
6,70,0,60
6,74,100,7560
6,74,0,120
6,79,100,0
6,79,0,240
6,77,100,0
6,79,100,195
6,79,0,15
6,79,100,0
6,79,0,15
6,79,100,0
6,79,0,15
6,77,0,0
6,75,100,0
6,79,100,0
6,79,0,90
6,77,100,105
6,77,0,15
6,77,100,0
6,77,0,15
6,77,100,0
6,77,0,15
6,75,0,0
6,74,100,0
6,77,100,0
6,77,0,90
6,74,0,30
6,74,100,0
6,75,100,75
6,75,0,15
6,75,100,0
6,75,0,15
6,75,100,0
6,75,0,15
6,74,0,0
6,75,100,0
6,75,0,90
6,77,100,30
6,77,0,120
6,75,100,195
6,75,0,15
6,75,100,0
6,75,0,15
6,75,100,0
6,75,0,15
6,75,100,0
6,75,0,90
6,74,100,105
6,74,0,15
6,74,100,0
6,74,0,15
6,74,100,0
6,74,0,15
6,74,100,0
6,74,0,90
6,74,100,30
6,70,100,75
6,70,0,15
6,70,100,0
6,70,0,15
6,70,100,0
6,70,0,15
6,74,0,0
6,70,100,0
6,79,100,0
6,70,0,90
6,79,0,150
6,77,100,0
6,79,100,195
6,79,0,15
6,79,100,0
6,79,0,15
6,79,100,0
6,79,0,15
6,77,0,0
6,75,100,0
6,79,100,0
6,79,0,90
6,77,100,105
6,77,0,15
6,77,100,0
6,77,0,15
6,77,100,0
6,77,0,15
6,75,0,0
6,74,100,0
6,77,100,0
6,77,0,90
6,74,0,30
6,74,100,0
6,75,100,75
6,75,0,15
6,75,100,0
6,75,0,15
6,75,100,0
6,75,0,15
6,74,0,0
6,75,100,0
6,75,0,90
6,77,100,30
6,77,0,120
6,75,100,195
6,75,0,15
6,75,100,0
6,75,0,15
6,75,100,0
6,75,0,15
6,75,100,0
6,75,0,90
6,74,100,105
6,74,0,15
6,74,100,0
6,74,0,15
6,74,100,0
6,74,0,15
6,74,100,0
6,74,0,90
6,70,100,105
6,70,0,15
6,70,100,0
6,70,0,15
6,70,100,0
6,70,0,15
6,70,100,0
6,70,0,90
6,74,100,3630
6,74,0,120
6,79,100,0
6,79,0,240
6,77,100,0
6,79,100,195
6,79,0,15
6,79,100,0
6,79,0,15
6,79,100,0
6,79,0,15
6,77,0,0
6,75,100,0
6,79,100,0
6,79,0,90
6,77,100,105
6,77,0,15
6,77,100,0
6,77,0,15
6,77,100,0
6,77,0,15
6,75,0,0
6,74,100,0
6,77,100,0
6,77,0,90
6,74,0,30
6,74,100,0
6,75,100,75
6,75,0,15
6,75,100,0
6,75,0,15
6,75,100,0
6,75,0,15
6,74,0,0
6,75,100,0
6,75,0,90
6,77,100,30
6,77,0,120
6,75,100,195
6,75,0,15
6,75,100,0
6,75,0,15
6,75,100,0
6,75,0,15
6,75,100,0
6,75,0,90
6,74,100,105
6,74,0,15
6,74,100,0
6,74,0,15
6,74,100,0
6,74,0,15
6,74,100,0
6,74,0,90
6,74,100,30
6,70,100,75
6,70,0,15
6,70,100,0
6,70,0,15
6,70,100,0
6,70,0,15
6,74,0,0
6,70,100,0
6,79,100,0
6,70,0,90
6,79,0,150
6,77,100,0
6,79,100,195
6,79,0,15
6,79,100,0
6,79,0,15
6,79,100,0
6,79,0,15
6,77,0,0
6,75,100,0
6,79,100,0
6,79,0,90
6,77,100,105
6,77,0,15
6,77,100,0
6,77,0,15
6,77,100,0
6,77,0,15
6,75,0,0
6,74,100,0
6,77,100,0
6,77,0,90
6,74,0,30
6,74,100,0
6,75,100,75
6,75,0,15
6,75,100,0
6,75,0,15
6,75,100,0
6,75,0,15
6,74,0,0
6,75,100,0
6,75,0,90
6,77,100,30
6,77,0,120
6,75,100,195
6,75,0,15
