track,note,velocity,time
1,62,110,480
1,62,0,94
1,61,110,2
1,61,0,94
1,59,110,2
1,59,0,94
1,61,110,2
1,61,0,94
1,59,110,2
1,59,0,94
1,61,110,2
1,61,0,94
1,59,110,2
1,59,0,94
1,56,110,2
1,59,110,0
1,63,110,0
1,56,0,720
1,59,0,0
1,63,0,0
1,54,110,48
1,58,110,0
1,61,110,0
1,54,0,94
1,58,0,0
1,61,0,0
1,62,110,2
1,62,0,94
1,61,110,2
1,61,0,94
1,59,110,2
1,59,0,94
1,61,110,2
1,61,0,94
1,59,110,2
1,59,0,94
1,61,110,2
1,61,0,94
1,59,110,2
1,59,0,94
1,52,110,2
1,56,110,0
1,63,110,0
1,52,0,160
1,56,0,0
1,63,0,0
1,56,110,32
1,56,0,94
1,59,110,2
1,59,0,160
1,61,110,32
1,61,0,256
1,52,110,32
1,56,110,0
1,61,110,0
1,52,0,94
1,56,0,0
1,61,0,0
1,63,110,2
1,63,0,94
1,61,110,2
1,61,0,94
1,59,110,2
1,59,0,94
1,61,110,2
1,61,0,94
1,59,110,2
1,59,0,94
1,61,110,2
1,61,0,94
1,59,110,2
1,59,0,94
1,52,110,2
1,56,110,0
1,63,110,0
1,52,0,160
1,56,0,0
1,63,0,0
1,56,110,32
1,56,0,94
1,59,110,2
1,59,0,160
1,61,110,32
1,61,0,256
1,54,110,32
1,58,110,0
1,61,110,0
1,54,0,94
1,58,0,0
1,61,0,0
1,63,110,2
1,63,0,94
1,61,110,2
1,61,0,94
1,59,110,2
1,59,0,94
1,61,110,2
1,61,0,94
1,59,110,2
1,59,0,94
1,61,110,2
1,61,0,94
1,59,110,2
1,59,0,94
1,56,110,2
1,59,110,0
1,56,0,336
1,59,0,0
1,56,110,48
1,56,0,336
1,54,110,48
1,58,110,0
1,61,110,0
1,54,0,94
1,58,0,0
1,61,0,0
1,63,110,2
1,63,0,94
1,61,110,2
1,61,0,94
1,59,110,2
1,59,0,94
1,61,110,2
1,61,0,94
1,59,110,2
1,59,0,94
1,61,110,2
1,61,0,94
1,59,110,2
1,59,0,94
1,52,110,2
1,56,110,0
1,62,110,0
1,62,0,160
1,62,110,32
1,52,0,160
1,56,0,0
1,62,0,0
1,61,110,32
1,61,0,94
1,59,110,2
1,59,0,256
1,52,110,32
1,56,110,0
1,59,110,96
1,59,0,94
1,61,110,2
1,61,0,94
1,59,110,2
1,52,0,94
1,56,0,0
1,59,0,0
1,61,110,2
1,61,0,94
1,59,110,2
1,59,0,94
1,61,110,2
1,61,0,94
1,59,110,2
1,59,0,94
1,52,110,2
1,56,110,0
1,62,110,0
1,62,0,160
1,62,110,32
1,52,0,160
1,56,0,0
1,62,0,0
1,61,110,32
1,61,0,94
1,59,110,2
1,59,0,256
1,54,110,32
1,58,110,0
1,61,110,0
1,54,0,94
1,58,0,0
1,61,0,0
1,63,110,2
1,63,0,94
1,61,110,2
1,61,0,94
1,59,110,2
1,59,0,94
1,61,110,2
1,61,0,94
1,59,110,2
1,59,0,94
1,61,110,2
1,61,0,94
1,59,110,2
1,59,0,94
1,54,110,2
1,59,110,0
1,63,110,0
1,54,0,336
1,59,0,0
1,63,0,0
1,59,110,48
1,59,0,336
1,54,110,48
1,59,110,0
1,63,110,0
1,54,0,160
1,59,0,0
1,63,0,0
1,54,110,32
1,59,110,0
1,63,110,0
1,54,0,160
1,59,0,0
1,63,0,0
1,54,110,32
1,59,110,0
1,63,110,0
1,54,0,94
1,59,0,0
1,63,0,0
1,54,110,2
1,59,110,0
1,63,110,0
1,54,0,94
1,59,0,0
1,63,0,0
1,54,110,2
1,59,110,0
1,63,110,0
1,54,0,160
1,59,0,0
1,63,0,0
1,56,110,32
1,61,110,0
1,65,110,0
1,56,0,528
1,61,0,0
1,65,0,0
1,56,110,48
1,61,110,0
1,65,110,0
1,56,0,160
1,61,0,0
1,65,0,0
1,56,110,32
1,59,110,0
1,63,110,0
1,56,0,94
1,59,0,0
1,63,0,0
1,61,110,2
1,61,0,94
1,59,110,2
1,59,0,94
1,65,110,2
1,65,0,256
1,57,110,224
1,61,110,0
1,57,0,160
1,61,0,0
1,57,110,32
1,61,110,0
1,64,110,0
1,57,0,336
1,61,0,0
1,64,0,0
1,57,110,48
1,61,110,0
1,64,110,0
1,57,0,160
1,61,0,0
1,64,0,0
1,54,110,32
1,59,110,0
1,63,110,0
1,54,0,94
1,59,0,0
1,63,0,0
1,61,110,2
1,61,0,94
1,59,110,2
1,59,0,94
1,65,110,2
1,65,0,256
1,61,110,32
1,61,0,160
1,58,110,32
1,58,0,94
1,56,110,2
1,56,0,94
1,56,110,2
1,61,110,0
1,65,110,0
1,56,0,336
1,61,0,0
1,65,0,0
1,56,110,48
1,61,110,0
1,65,110,0
1,56,0,160
1,61,0,0
1,65,0,0
1,56,110,32
1,59,110,0
1,63,110,0
1,56,0,94
1,59,0,0
1,63,0,0
1,61,110,2
1,61,0,94
1,59,110,2
1,59,0,94
1,65,110,2
1,65,0,256
1,57,110,224
1,61,110,0
1,57,0,160
1,61,0,0
1,57,110,32
1,61,110,0
1,64,110,0
1,57,0,336
1,61,0,0
1,64,0,0
1,57,110,48
1,61,110,0
1,64,110,0
1,57,0,160
1,61,0,0
1,64,0,0
1,54,110,32
1,59,110,0
1,63,110,0
1,54,0,94
1,59,0,0
1,63,0,0
1,61,110,2
1,61,0,94
1,59,110,2
1,59,0,94
1,65,110,2
1,65,0,256
1,61,110,32
1,61,0,160
1,58,110,32
1,58,0,94
1,56,110,2
1,56,0,94
1,54,110,194
1,58,110,0
1,61,110,0
1,54,0,94
1,58,0,0
1,61,0,0
1,54,110,2
1,58,110,0
1,61,110,0
1,54,0,94
1,58,0,0
1,61,0,0
1,54,110,2
1,58,110,0
1,61,110,0
1,54,0,160
1,58,0,0
1,61,0,0
1,54,110,32
1,58,110,0
1,61,110,0
1,54,0,94
1,58,0,0
1,61,0,0
1,62,110,2
1,62,0,94
1,61,110,2
1,61,0,94
1,59,110,2
1,59,0,94
1,61,110,2
1,61,0,94
1,59,110,2
1,59,0,94
1,61,110,2
1,61,0,94
1,59,110,2
1,59,0,94
1,56,110,2
1,59,110,0
1,63,110,0
1,56,0,720
1,59,0,0
1,63,0,0
1,54,110,48
1,58,110,0
1,61,110,0
1,54,0,94
1,58,0,0
1,61,0,0
1,59,110,2
1,59,0,94
1,61,110,2
1,61,0,94
1,59,110,2
1,59,0,94
1,61,110,2
1,61,0,94
1,59,110,2
1,59,0,94
1,61,110,2
1,61,0,94
1,59,110,2
1,59,0,94
1,52,110,2
1,56,110,0
1,62,110,0
1,62,0,160
1,62,110,32
1,52,0,160
1,56,0,0
1,62,0,0
1,61,110,32
1,61,0,94
1,59,110,2
1,59,0,256
1,52,110,32
1,56,110,0
1,61,110,0
1,52,0,94
1,56,0,0
1,61,0,0
1,62,110,2
1,62,0,94
1,61,110,2
1,61,0,94
1,59,110,2
1,59,0,94
1,61,110,2
1,61,0,94
1,59,110,2
1,59,0,94
1,61,110,2
1,61,0,94
1,59,110,2
1,59,0,94
1,52,110,2
1,56,110,0
1,62,110,0
1,62,0,160
1,62,110,32
1,52,0,160
1,56,0,0
1,62,0,0
1,61,110,32
1,61,0,94
1,59,110,2
1,59,0,256
1,54,110,32
1,58,110,0
1,61,110,0
1,54,0,94
1,58,0,0
1,61,0,0
1,62,110,2
1,62,0,94
1,61,110,2
1,61,0,94
1,59,110,2
1,59,0,94
1,61,110,2
1,61,0,94
1,59,110,2
1,59,0,94
1,61,110,2
1,61,0,94
1,59,110,2
1,59,0,94
1,59,110,2
1,59,0,336
1,54,110,48
1,59,110,0
1,63,110,0
1,54,0,336
1,59,0,0
1,63,0,0
1,54,110,48
1,59,110,0
1,63,110,0
1,54,0,160
1,59,0,0
1,63,0,0
1,54,110,32
1,59,110,0
1,63,110,0
1,54,0,160
1,59,0,0
1,63,0,0
1,54,110,32
1,59,110,0
1,63,110,0
1,54,0,94
1,59,0,0
1,63,0,0
1,54,110,2
1,59,110,0
1,63,110,0
1,54,0,94
1,59,0,0
1,63,0,0
1,54,110,2
1,59,110,0
1,63,110,0
1,54,0,160
1,59,0,0
1,63,0,0
1,61,110,32
1,66,110,0
1,66,0,94
1,68,110,2
1,68,0,94
1,69,110,2
1,69,0,94
1,68,110,2
1,61,0,94
1,68,0,96
1,68,110,2
1,73,110,0
1,68,0,256
1,73,0,0
1,61,110,32
1,66,110,0
1,66,0,94
1,68,110,2
1,68,0,94
1,69,110,2
1,69,0,94
1,68,110,2
1,61,0,94
1,68,0,96
1,68,110,2
1,71,110,0
1,75,110,0
1,68,0,256
1,71,0,0
1,75,0,0
1,61,110,32
1,66,110,0
1,66,0,94
1,68,110,2
1,68,0,94
1,69,110,2
1,69,0,94
1,68,110,2
1,61,0,94
1,68,0,96
1,69,110,2
1,73,110,0
1,76,110,0
1,69,0,256
1,73,0,0
1,76,0,0
1,61,110,32
1,66,110,0
1,66,0,94
1,68,110,2
1,68,0,94
1,69,110,2
1,69,0,94
1,68,110,2
1,61,0,94
1,68,0,96
1,71,110,2
1,75,110,0
1,80,110,0
1,71,0,256
1,75,0,0
1,80,0,0
1,61,110,32
1,66,110,0
1,66,0,94
1,68,110,2
1,68,0,94
1,69,110,2
1,69,0,94
1,68,110,2
1,61,0,94
1,68,0,96
1,68,110,2
1,73,110,0
1,68,0,256
1,73,0,0
1,61,110,32
1,66,110,0
1,66,0,94
1,68,110,2
1,68,0,94
1,69,110,2
1,69,0,94
1,68,110,2
1,61,0,94
1,68,0,96
1,68,110,2
1,71,110,0
1,75,110,0
1,68,0,256
1,71,0,0
1,75,0,0
1,61,110,32
1,66,110,0
1,66,0,94
1,68,110,2
1,68,0,94
1,69,110,2
1,69,0,94
1,68,110,2
1,61,0,94
1,68,0,96
1,69,110,2
1,73,110,0
1,76,110,0
1,69,0,256
1,73,0,0
1,76,0,0
1,61,110,32
1,66,110,0
1,66,0,94
1,68,110,2
1,68,0,94
1,69,110,2
1,69,0,94
1,68,110,2
1,61,0,94
1,68,0,96
1,71,110,2
1,75,110,0
1,80,110,0
1,71,0,256
1,75,0,0
1,80,0,0
1,62,110,128
1,62,0,94
1,61,110,2
1,61,0,94
1,59,110,2
1,59,0,94
1,61,110,2
1,61,0,94
1,59,110,2
1,59,0,94
1,61,110,2
1,61,0,94
1,59,110,2
1,59,0,94
1,56,110,2
1,59,110,0
1,63,110,0
1,56,0,720
1,59,0,0
1,63,0,0
1,54,110,48
1,58,110,0
1,61,110,0
1,54,0,94
1,58,0,0
1,61,0,0
1,62,110,2
1,62,0,94
1,61,110,2
1,61,0,94
1,59,110,2
1,59,0,94
1,61,110,2
1,61,0,94
1,59,110,2
1,59,0,94
1,61,110,2
1,61,0,94
1,59,110,2
1,59,0,94
1,52,110,2
1,56,110,0
1,63,110,0
1,52,0,160
1,56,0,0
1,63,0,0
1,56,110,32
1,56,0,94
1,59,110,2
1,59,0,160
1,61,110,32
1,61,0,256
1,52,110,32
1,56,110,0
1,61,110,0
1,52,0,94
1,56,0,0
1,61,0,0
1,63,110,2
1,63,0,94
1,61,110,2
1,61,0,94
1,59,110,2
1,59,0,94
1,61,110,2
1,61,0,94
1,59,110,2
1,59,0,94
1,61,110,2
1,61,0,94
1,59,110,2
1,59,0,94
1,52,110,2
1,56,110,0
1,63,110,0
1,52,0,160
1,56,0,0
1,63,0,0
1,56,110,32
1,56,0,94
1,59,110,2
1,59,0,160
1,61,110,32
1,61,0,256
1,54,110,32
1,58,110,0
1,61,110,0
1,54,0,94
1,58,0,0
1,61,0,0
1,63,110,2
1,63,0,94
1,61,110,2
1,61,0,94
1,59,110,2
1,59,0,94
1,61,110,2
1,61,0,94
1,59,110,2
1,59,0,94
1,61,110,2
1,61,0,94
1,59,110,2
1,59,0,94
1,56,110,2
1,59,110,0
1,56,0,336
1,59,0,0
1,56,110,48
1,56,0,336
1,54,110,48
1,58,110,0
1,61,110,0
1,54,0,94
1,58,0,0
1,61,0,0
1,63,110,2
1,63,0,94
1,61,110,2
1,61,0,94
1,59,110,2
1,59,0,94
1,61,110,2
1,61,0,94
1,59,110,2
1,59,0,94
1,61,110,2
1,61,0,94
1,59,110,2
1,59,0,94
1,52,110,2
1,56,110,0
1,62,110,0
1,62,0,160
1,62,110,32
1,52,0,160
1,56,0,0
1,62,0,0
1,61,110,32
1,61,0,94
1,59,110,2
1,59,0,256
1,52,110,32
1,56,110,0
1,59,110,96
1,59,0,94
1,61,110,2
1,61,0,94
1,59,110,2
1,52,0,94
1,56,0,0
1,59,0,0
1,61,110,2
1,61,0,94
1,59,110,2
1,59,0,94
1,61,110,2
1,61,0,94
1,59,110,2
1,59,0,94
1,52,110,2
1,56,110,0
1,62,110,0
1,62,0,160
1,62,110,32
1,52,0,160
1,56,0,0
1,62,0,0
1,61,110,32
1,61,0,94
1,59,110,2
1,59,0,256
1,54,110,32
1,58,110,0
1,61,110,0
1,54,0,94
1,58,0,0
1,61,0,0
1,63,110,2
1,63,0,94
1,61,110,2
1,61,0,94
1,59,110,2
1,59,0,94
1,61,110,2
1,61,0,94
1,59,110,2
1,59,0,94
1,61,110,2
1,61,0,94
1,59,110,2
1,59,0,94
1,54,110,2
1,59,110,0
1,63,110,0
1,54,0,336
1,59,0,0
1,63,0,0
1,59,110,48
1,59,0,336
1,54,110,48
1,59,110,0
1,63,110,0
1,54,0,160
1,59,0,0
1,63,0,0
1,54,110,32
1,59,110,0
1,63,110,0
1,54,0,160
1,59,0,0
1,63,0,0
1,54,110,32
1,59,110,0
1,63,110,0
1,54,0,94
1,59,0,0
1,63,0,0
1,54,110,2
1,59,110,0
1,63,110,0
1,54,0,94
1,59,0,0
1,63,0,0
1,54,110,2
1,59,110,0
1,63,110,0
1,54,0,160
1,59,0,0
1,63,0,0
1,56,110,32
1,61,110,0
1,65,110,0
1,56,0,528
1,61,0,0
1,65,0,0
1,56,110,48
1,61,110,0
1,65,110,0
1,56,0,160
1,61,0,0
1,65,0,0
1,56,110,32
1,59,110,0
1,63,110,0
1,56,0,94
1,59,0,0
1,63,0,0
1,61,110,2
1,61,0,94
1,59,110,2
1,59,0,94
1,65,110,2
1,65,0,256
1,57,110,224
1,61,110,0
1,57,0,160
1,61,0,0
1,57,110,32
1,61,110,0
1,64,110,0
1,57,0,336
1,61,0,0
1,64,0,0
1,57,110,48
1,61,110,0
1,64,110,0
1,57,0,160
1,61,0,0
1,64,0,0
1,54,110,32
1,59,110,0
1,63,110,0
1,54,0,94
1,59,0,0
1,63,0,0
1,61,110,2
1,61,0,94
1,59,110,2
1,59,0,94
1,65,110,2
1,65,0,256
1,61,110,32
1,61,0,160
1,58,110,32
1,58,0,94
1,56,110,2
1,56,0,94
1,56,110,2
1,61,110,0
1,65,110,0
1,56,0,336
1,61,0,0
1,65,0,0
1,56,110,48
1,61,110,0
1,65,110,0
1,56,0,160
1,61,0,0
1,65,0,0
1,56,110,32
1,59,110,0
1,63,110,0
1,56,0,94
1,59,0,0
1,63,0,0
1,61,110,2
1,61,0,94
1,59,110,2
1,59,0,94
1,65,110,2
1,65,0,256
1,57,110,224
1,61,110,0
1,57,0,160
1,61,0,0
1,57,110,32
1,61,110,0
1,64,110,0
1,57,0,336
1,61,0,0
1,64,0,0
1,57,110,48
1,61,110,0
1,64,110,0
1,57,0,160
1,61,0,0
1,64,0,0
1,54,110,32
1,59,110,0
1,63,110,0
1,54,0,94
1,59,0,0
1,63,0,0
1,61,110,2
1,61,0,94
1,59,110,2
1,59,0,94
1,65,110,2
1,65,0,256
1,61,110,32
1,61,0,160
1,58,110,32
1,58,0,94
1,56,110,2
1,56,0,94
1,56,110,2
1,61,110,0
1,65,110,0
1,56,0,336
1,61,0,0
1,65,0,0
1,56,110,48
1,61,110,0
1,65,110,0
1,56,0,160
1,61,0,0
1,65,0,0
1,56,110,32
1,59,110,0
1,63,110,0
1,56,0,94
1,59,0,0
1,63,0,0
