track,note,velocity,time
0,45,64,6
0,52,64,0
0,57,64,0
0,59,64,0
0,64,64,0
0,64,0,240
0,59,0,0
0,57,0,0
0,52,0,0
0,45,0,0
0,48,64,0
0,52,64,0
0,55,64,0
0,59,64,0
0,64,64,0
0,64,0,240
0,59,0,0
0,55,0,0
0,52,0,0
0,48,0,0
0,45,64,240
0,52,64,0
0,57,64,0
0,59,64,0
0,64,64,0
0,45,0,240
0,52,0,0
0,57,0,0
0,59,0,0
0,64,0,0
0,48,64,0
0,52,64,0
0,55,64,0
0,59,64,0
0,64,64,0
0,48,0,240
0,52,0,0
0,55,0,0
0,59,0,0
0,64,0,0
0,48,64,240
0,52,64,0
0,55,64,0
0,59,64,0
0,64,64,0
0,64,0,240
0,59,0,0
0,55,0,0
0,52,0,0
0,48,0,0
0,48,64,240
0,52,64,0
0,55,64,0
0,59,64,0
0,64,64,0
0,48,0,240
0,52,0,0
0,55,0,0
0,59,0,0
0,64,0,0
0,64,64,0
0,60,64,0
0,57,64,0
0,53,64,0
0,41,64,0
0,64,0,240
0,60,0,0
0,57,0,0
0,53,0,0
0,41,0,0
0,48,64,240
0,52,64,0
0,55,64,0
0,59,64,0
0,64,64,0
0,64,0,240
0,59,0,0
0,55,0,0
0,52,0,0
0,48,0,0
0,64,64,0
0,60,64,0
0,57,64,0
0,53,64,0
0,41,64,0
0,41,0,240
0,53,0,0
0,57,0,0
0,60,0,0
0,64,0,0
0,64,64,240
0,60,64,0
0,57,64,0
0,53,64,0
0,41,64,0
0,41,0,240
0,53,0,0
0,57,0,0
0,60,0,0
0,64,0,0
0,64,64,240
0,60,64,0
0,57,64,0
0,53,64,0
0,41,64,0
0,41,0,240
0,53,0,0
0,57,0,0
0,60,0,0
0,64,0,0
0,64,64,0
0,60,64,0
0,57,64,0
0,53,64,0
0,41,64,0
0,64,0,240
0,60,0,0
0,57,0,0
0,53,0,0
0,41,0,0
0,64,64,240
0,60,64,0
0,57,64,0
0,53,64,0
0,41,64,0
0,41,0,240
0,53,0,0
0,57,0,0
0,60,0,0
0,64,0,0
0,64,64,0
0,60,64,0
0,57,64,0
0,53,64,0
0,41,64,0
0,41,0,240
0,53,0,0
0,57,0,0
0,60,0,0
0,64,0,0
0,64,64,240
0,60,64,0
0,57,64,0
0,53,64,0
0,41,64,0
0,64,0,240
0,60,0,0
0,57,0,0
0,53,0,0
0,41,0,0
0,64,64,240
0,60,64,0
0,57,64,0
0,53,64,0
0,41,64,0
0,64,0,240
0,60,0,0
0,57,0,0
0,53,0,0
0,41,0,0
0,64,64,0
0,60,64,0
0,57,64,0
0,53,64,0
0,41,64,0
0,41,0,240
0,53,0,0
0,57,0,0
0,60,0,0
0,64,0,0
0,64,64,240
0,60,64,0
0,57,64,0
0,53,64,0
0,41,64,0
0,64,0,240
0,60,0,0
0,57,0,0
0,53,0,0
0,41,0,0
0,64,64,0
0,60,64,0
0,57,64,0
0,53,64,0
0,41,64,0
0,64,0,240
0,60,0,0
0,57,0,0
0,53,0,0
0,41,0,0
0,64,64,240
0,60,64,0
0,57,64,0
0,53,64,0
0,41,64,0
0,41,0,240
0,53,0,0
0,57,0,0
0,60,0,0
0,64,0,0
0,69,64,240
0,45,64,0
0,52,64,0
0,57,64,0
0,59,64,0
0,64,64,0
0,45,0,240
0,52,0,0
0,57,0,0
0,59,0,0
0,64,0,0
0,48,64,0
0,52,64,0
0,55,64,0
0,59,64,0
0,64,64,0
0,69,0,240
0,48,0,0
0,52,0,0
0,55,0,0
0,59,0,0
0,64,0,0
0,69,64,0
0,45,64,240
0,52,64,0
0,57,64,0
0,59,64,0
0,64,64,0
0,69,0,240
0,64,0,0
0,59,0,0
0,57,0,0
0,52,0,0
0,45,0,0
0,69,64,0
0,48,64,0
0,52,64,0
0,55,64,0
0,59,64,0
0,64,64,0
0,64,0,240
0,59,0,0
0,55,0,0
0,52,0,0
0,48,0,0
0,69,0,240
0,67,64,0
0,48,64,0
0,52,64,0
0,55,64,0
0,59,64,0
0,64,64,0
0,67,0,240
0,48,0,0
0,52,0,0
0,55,0,0
0,59,0,0
0,64,0,0
0,64,64,0
0,64,0,240
0,67,64,0
0,48,64,0
0,52,64,0
0,55,64,0
0,59,64,0
0,64,64,0
0,64,0,240
0,59,0,0
0,55,0,0
0,52,0,0
0,48,0,0
0,64,64,0
0,60,64,0
0,57,64,0
0,53,64,0
0,41,64,0
0,67,0,240
0,41,0,0
0,53,0,0
0,57,0,0
0,60,0,0
0,64,0,0
0,67,64,0
0,67,0,240
0,67,64,0
0,48,64,0
0,52,64,0
0,55,64,0
0,59,64,0
0,64,64,0
0,48,0,240
0,52,0,0
0,55,0,0
0,59,0,0
0,64,0,0
0,64,64,0
0,60,64,0
0,57,64,0
0,53,64,0
0,41,64,0
0,64,0,240
0,60,0,0
0,57,0,0
0,53,0,0
0,41,0,0
0,64,64,240
0,60,64,0
0,57,64,0
0,53,64,0
0,41,64,0
0,64,0,240
0,60,0,0
0,57,0,0
0,53,0,0
0,41,0,0
0,67,0,240
0,64,64,0
0,60,64,0
0,57,64,0
0,53,64,0
0,41,64,0
0,64,0,240
0,60,0,0
0,57,0,0
0,53,0,0
0,41,0,0
0,64,64,0
0,60,64,0
0,57,64,0
0,53,64,0
0,41,64,0
0,41,0,240
0,53,0,0
0,57,0,0
0,60,0,0
0,64,0,0
0,64,64,240
0,60,64,0
0,57,64,0
0,53,64,0
0,41,64,0
0,64,0,240
0,60,0,0
0,57,0,0
0,53,0,0
0,41,0,0
0,64,64,0
0,60,64,0
0,57,64,0
0,53,64,0
0,41,64,0
0,64,0,240
0,60,0,0
0,57,0,0
0,53,0,0
0,41,0,0
0,64,64,240
0,60,64,0
0,57,64,0
0,53,64,0
0,41,64,0
0,41,0,240
0,53,0,0
0,57,0,0
0,60,0,0
0,64,0,0
0,64,64,240
0,60,64,0
0,57,64,0
0,53,64,0
0,41,64,0
0,41,0,176
0,53,0,0
0,57,0,0
0,60,0,0
0,64,0,0
0,64,64,0
0,60,64,0
0,57,64,0
0,53,64,0
0,41,64,0
0,64,0,240
0,60,0,0
0,57,0,0
0,53,0,0
0,41,0,0
0,64,64,240
0,60,64,0
0,57,64,0
0,53,64,0
0,41,64,0
0,41,0,240
0,53,0,0
0,57,0,0
0,60,0,0
0,64,0,0
0,64,64,0
0,60,64,0
0,57,64,0
0,53,64,0
0,41,64,0
0,41,0,240
0,53,0,0
0,57,0,0
0,60,0,0
0,64,0,0
0,64,64,240
0,60,64,0
0,57,64,0
0,53,64,0
0,41,64,0
0,64,0,240
0,60,0,0
0,57,0,0
0,53,0,0
0,41,0,0
0,67,64,0
0,67,0,240
0,69,64,0
0,45,64,0
0,52,64,0
0,57,64,0
0,59,64,0
0,64,64,0
0,69,0,240
0,45,0,0
0,52,0,0
0,57,0,0
0,59,0,0
0,64,0,0
0,67,64,0
0,48,64,0
0,52,64,0
0,55,64,0
0,59,64,0
0,64,64,0
0,48,0,240
0,52,0,0
0,55,0,0
0,59,0,0
0,64,0,0
0,67,0,240
0,67,64,0
0,45,64,0
0,52,64,0
0,57,64,0
0,59,64,0
0,64,64,0
0,64,0,240
0,59,0,0
0,57,0,0
0,52,0,0
0,45,0,0
0,48,64,0
0,52,64,0
0,55,64,0
0,59,64,0
0,64,64,0
0,64,0,240
0,59,0,0
0,55,0,0
0,52,0,0
0,48,0,0
0,67,0,113
0,64,64,0
0,48,64,0
0,52,64,0
0,55,64,0
0,59,64,0
0,64,64,0
0,64,0,240
0,48,0,0
0,52,0,0
0,55,0,0
0,59,0,0
0,64,0,0
0,64,64,0
0,64,0,240
0,64,64,0
0,48,64,0
0,52,64,0
0,55,64,0
0,59,64,0
0,64,64,0
0,64,0,240
0,59,0,0
0,55,0,0
0,52,0,0
0,48,0,0
0,64,64,0
0,60,64,0
0,57,64,0
0,53,64,0
0,41,64,0
0,64,0,240
0,41,0,0
0,53,0,0
0,57,0,0
0,60,0,0
0,64,0,0
0,64,64,0
0,64,0,240
0,64,64,0
0,48,64,0
0,52,64,0
0,55,64,0
0,59,64,0
0,64,64,0
0,48,0,240
0,52,0,0
0,55,0,0
0,59,0,0
0,64,0,0
0,64,64,0
0,60,64,0
0,57,64,0
0,53,64,0
0,41,64,0
0,64,0,240
0,60,0,0
0,57,0,0
0,53,0,0
0,41,0,0
0,64,0,240
0,64,64,0
0,60,64,0
0,57,64,0
0,53,64,0
0,41,64,0
0,64,0,240
0,60,0,0
0,57,0,0
0,53,0,0
0,41,0,0
0,64,64,240
0,60,64,0
0,57,64,0
0,53,64,0
0,41,64,0
0,64,0,240
0,60,0,0
0,57,0,0
0,53,0,0
0,41,0,0
0,64,64,0
0,60,64,0
0,57,64,0
0,53,64,0
0,41,64,0
0,41,0,240
0,53,0,0
0,57,0,0
0,60,0,0
0,64,0,0
0,64,64,240
0,60,64,0
0,57,64,0
0,53,64,0
0,41,64,0
0,64,0,240
0,60,0,0
0,57,0,0
0,53,0,0
0,41,0,0
0,64,64,0
0,60,64,0
0,57,64,0
0,53,64,0
0,41,64,0
0,64,0,240
0,60,0,0
0,57,0,0
0,53,0,0
0,41,0,0
0,64,64,240
0,60,64,0
0,57,64,0
0,53,64,0
0,41,64,0
0,41,0,112
0,53,0,0
0,57,0,0
0,60,0,0
0,64,0,0
0,64,64,240
0,60,64,0
0,57,64,0
0,53,64,0
0,41,64,0
0,41,0,240
0,53,0,0
0,57,0,0
0,60,0,0
0,64,0,0
0,64,64,0
0,60,64,0
0,57,64,0
0,53,64,0
0,41,64,0
0,64,0,240
0,60,0,0
0,57,0,0
0,53,0,0
0,41,0,0
0,64,64,240
0,60,64,0
0,57,64,0
0,53,64,0
0,41,64,0
0,41,0,240
0,53,0,0
0,57,0,0
0,60,0,0
0,64,0,0
0,64,64,0
0,60,64,0
0,57,64,0
0,53,64,0
0,41,64,0
0,41,0,240
0,53,0,0
0,57,0,0
0,60,0,0
0,64,0,0
0,64,64,208
0,60,64,0
0,57,64,0
0,53,64,0
0,41,64,0
0,64,0,240
0,60,0,0
0,57,0,0
0,53,0,0
0,41,0,0
0,76,64,0
0,76,0,1
0,76,64,0
0,52,64,0
0,64,64,0
0,45,64,0
0,57,64,0
0,59,64,0
0,64,64,0
0,59,64,0
0,57,64,0
0,52,64,0
0,45,64,0
0,45,64,0
0,52,64,0
0,57,64,0
0,59,64,0
0,64,64,0
0,64,0,224
0,59,0,0
0,57,0,0
0,52,0,0
0,45,0,0
0,48,64,0
0,52,64,0
0,55,64,0
0,59,64,0
0,64,64,0
0,76,0,240
0,64,0,0
0,59,0,0
0,55,0,0
0,52,0,0
0,48,0,0
0,76,64,0
0,76,0,240
0,76,64,0
0,45,64,0
0,52,64,0
0,57,64,0
0,59,64,0
0,64,64,0
0,45,0,240
0,52,0,0
0,57,0,0
0,59,0,0
0,64,0,0
0,48,64,0
0,52,64,0
0,55,64,0
0,59,64,0
0,64,64,0
0,48,0,240
0,52,0,0
0,55,0,0
0,59,0,0
0,64,0,0
0,76,0,240
0,76,64,0
0,48,64,0
0,52,64,0
0,55,64,0
0,59,64,0
0,64,64,0
0,76,0,240
0,64,0,0
0,59,0,0
0,55,0,0
0,52,0,0
0,48,0,0
0,76,64,0
0,76,0,240
0,52,0,0
0,64,0,0
0,45,0,0
0,57,0,0
0,59,0,0
0,64,0,0
0,59,0,0
0,57,0,0
0,52,0,0
0,45,0,0
0,76,64,0
0,48,64,0
0,52,64,0
0,55,64,0
0,59,64,0
0,64,64,0
0,52,64,0
0,55,64,0
0,59,64,0
0,64,64,0
0,48,64,0
0,48,64,0
0,52,64,0
0,55,64,0
0,59,64,0
0,64,64,0
0,76,0,240
0,48,0,0
0,52,0,0
0,55,0,0
0,59,0,0
0,64,0,0
0,76,64,0
0,64,64,0
0,60,64,0
0,57,64,0
0,53,64,0
0,41,64,0
0,76,0,240
0,64,0,0
0,60,0,0
0,57,0,0
0,53,0,0
0,41,0,0
0,79,64,0
0,48,64,240
0,52,64,0
0,55,64,0
0,59,64,0
0,64,64,0
0,79,0,240
0,64,0,0
0,59,0,0
0,55,0,0
0,52,0,0
0,48,0,0
0,76,64,0
0,64,64,0
0,60,64,0
0,57,64,0
0,53,64,0
0,41,64,0
0,41,0,240
0,53,0,0
0,57,0,0
0,60,0,0
0,64,0,0
0,64,64,240
0,60,64,0
0,57,64,0
0,53,64,0
0,41,64,0
0,41,0,240
0,53,0,0
0,57,0,0
0,60,0,0
0,64,0,0
0,76,0,240
0,48,0,0
0,52,0,0
0,55,0,0
0,59,0,0
0,64,0,0
0,52,0,0
0,55,0,0
0,59,0,0
0,64,0,0
0,48,0,0
0,53,64,0
0,57,64,0
0,60,64,0
0,64,64,0
0,41,64,0
0,64,64,0
0,60,64,0
0,57,64,0
0,53,64,0
0,41,64,0
0,64,64,0
0,60,64,0
0,57,64,0
0,53,64,0
0,41,64,0
0,41,0,240
0,53,0,0
0,57,0,0
0,60,0,0
0,64,0,0
0,64,64,0
0,60,64,0
0,57,64,0
0,53,64,0
0,41,64,0
0,64,0,240
0,60,0,0
0,57,0,0
0,53,0,0
0,41,0,0
0,64,64,240
0,60,64,0
0,57,64,0
0,53,64,0
0,41,64,0
0,41,0,240
0,53,0,0
0,57,0,0
0,60,0,0
0,64,0,0
0,64,64,0
0,60,64,0
0,57,64,0
0,53,64,0
0,41,64,0
0,41,0,240
0,53,0,0
0,57,0,0
0,60,0,0
0,64,0,0
0,64,64,240
0,60,64,0
0,57,64,0
0,53,64,0
0,41,64,0
0,64,0,240
0,60,0,0
0,57,0,0
0,53,0,0
0,41,0,0
0,64,64,240
0,60,64,0
0,57,64,0
0,53,64,0
0,41,64,0
0,64,0,240
0,60,0,0
0,57,0,0
0,53,0,0
0,41,0,0
0,64,64,0
0,60,64,0
0,57,64,0
0,53,64,0
0,41,64,0
0,41,0,240
0,53,0,0
0,57,0,0
0,60,0,0
0,64,0,0
0,64,64,240
0,60,64,0
0,57,64,0
0,53,64,0
0,41,64,0
0,64,0,240
0,60,0,0
0,57,0,0
0,53,0,0
0,41,0,0
0,64,64,0
0,60,64,0
0,57,64,0
0,53,64,0
0,41,64,0
0,64,0,240
0,60,0,0
0,57,0,0
0,53,0,0
0,41,0,0
0,64,64,240
0,60,64,0
0,57,64,0
0,53,64,0
0,41,64,0
0,41,0,240
0,53,0,0
0,57,0,0
0,60,0,0
0,64,0,0
0,67,64,0
0,64,64,230
0,59,64,0
0,45,64,0
0,52,64,0
0,57,64,0
0,67,0,10
0,53,0,0
0,57,0,0
0,60,0,0
0,64,0,0
0,41,0,0
0,64,0,0
0,60,0,0
0,57,0,0
0,53,0,0
0,41,0,0
0,76,64,0
0,64,64,0
0,59,64,0
0,57,64,0
0,52,64,0
0,45,64,0
0,76,0,240
0,74,64,0
0,74,0,480
0,74,64,0
0,74,0,720
0,72,64,0
0,72,0,240
0,69,64,0
0,64,0,230
0,59,0,0
0,45,0,0
0,52,0,0
0,57,0,0
0,64,64,0
0,59,64,0
0,55,64,0
0,52,64,0
0,48,64,0
0,69,0,10
0,64,0,0
0,59,0,0
0,57,0,0
0,52,0,0
0,45,0,0
0,72,64,0
0,52,64,0
0,55,64,0
0,59,64,0
0,64,64,0
0,48,64,0
0,72,0,480
0,72,64,0
0,72,0,240
0,67,64,0
0,67,0,720
0,64,0,470
0,59,0,0
0,55,0,0
0,52,0,0
0,48,0,0
0,64,64,0
0,53,64,0
0,41,64,0
0,52,0,10
0,55,0,0
0,59,0,0
0,64,0,0
0,48,0,0
0,64,64,0
0,60,64,0
0,57,64,0
0,53,64,0
0,41,64,0
0,60,64,6
0,57,64,0
0,76,64,2873
0,76,0,240
0,76,64,0
0,64,0,231
0,53,0,0
0,41,0,0
0,76,0,9
0,76,64,0
0,64,64,0
0,60,64,0
0,57,64,0
0,53,64,0
0,41,64,0
0,64,0,1
0,60,0,0
0,57,0,0
0,53,0,0
0,41,0,0
