track,note,velocity,time
1,62,60,0
1,62,0,188
1,59,60,4
1,59,0,188
1,67,60,4
1,67,0,188
1,55,60,4
1,55,0,188
1,65,60,4
1,65,0,188
1,55,60,4
1,55,0,188
1,60,60,4
1,60,0,188
1,62,60,4
1,62,0,188
1,55,60,4
1,55,0,188
1,67,60,4
1,67,0,188
1,55,60,4
1,55,0,188
1,59,60,4
1,59,0,188
1,65,60,4
1,65,0,188
1,55,60,4
1,55,0,188
1,60,60,4
1,60,0,188
1,62,60,4
1,62,0,188
1,62,60,4
1,62,0,188
1,59,60,4
1,59,0,188
1,67,60,4
1,67,0,188
1,55,60,4
1,55,0,188
1,65,60,4
1,65,0,188
1,55,60,4
1,55,0,188
1,60,60,4
1,60,0,188
1,62,60,4
1,62,0,188
1,55,60,4
1,55,0,188
1,67,60,4
1,67,0,188
1,55,60,4
1,55,0,188
1,59,60,4
1,59,0,188
1,65,60,4
1,65,0,188
1,55,60,4
1,55,0,188
1,60,60,4
1,60,0,188
1,62,60,4
1,62,0,188
1,62,60,4
1,62,0,188
1,59,60,4
1,59,0,188
1,67,60,4
1,67,0,188
1,55,60,4
1,55,0,188
1,65,60,4
1,65,0,188
1,55,60,4
1,55,0,188
1,60,60,4
1,60,0,188
1,62,60,4
1,62,0,188
1,55,60,4
1,55,0,188
1,67,60,4
1,67,0,188
1,55,60,4
1,55,0,188
1,59,60,4
1,59,0,188
1,65,60,4
1,65,0,188
1,55,60,4
1,55,0,188
1,60,60,4
1,60,0,188
1,62,60,4
1,62,0,188
1,62,60,4
1,62,0,188
1,59,60,4
1,59,0,188
1,67,60,4
1,67,0,188
1,55,60,4
1,55,0,188
1,65,60,4
1,65,0,188
1,55,60,4
1,55,0,188
1,60,60,4
1,60,0,188
1,62,60,4
1,62,0,188
1,55,60,4
1,55,0,188
1,67,60,4
1,67,0,188
1,55,60,4
1,55,0,188
1,59,60,4
1,59,0,188
1,65,60,4
1,65,0,188
1,55,60,4
1,55,0,188
1,60,60,4
1,60,0,188
1,62,60,4
1,62,0,188
1,62,60,4
1,62,0,188
1,59,60,4
1,59,0,188
1,67,60,4
1,67,0,188
1,55,60,4
1,55,0,188
1,65,60,4
1,65,0,188
1,55,60,4
1,55,0,188
1,60,60,4
1,60,0,188
1,62,60,4
1,62,0,188
1,55,60,4
1,55,0,188
1,67,60,4
1,67,0,188
1,55,60,4
1,55,0,188
1,59,60,4
1,59,0,188
1,65,60,4
1,65,0,188
1,55,60,4
1,55,0,188
1,60,60,4
1,60,0,188
1,62,60,4
1,62,0,188
1,63,100,13828
1,63,0,380
1,69,100,4
1,69,0,380
1,70,100,4
1,70,0,380
1,63,100,4
1,63,0,188
1,69,100,4
1,69,0,380
1,70,100,4
1,70,0,380
1,63,100,4
1,63,0,188
1,69,100,4
1,69,0,380
1,70,100,4
1,70,0,380
1,64,100,4
1,64,0,380
1,65,100,4
1,65,0,380
1,64,100,4
1,64,0,380
1,65,100,4
1,65,0,188
1,64,100,4
1,64,0,380
1,65,100,4
1,65,0,188
1,64,100,4
1,64,0,188
1,65,100,4
1,65,0,188
1,64,100,4
1,64,0,380
1,65,100,4
1,65,0,380
1,64,100,4
1,64,0,380
1,65,100,4
1,65,0,380
1,64,100,4
1,64,0,380
1,65,100,4
1,65,0,188
1,62,100,4
1,62,0,380
1,64,100,4
1,64,0,188
1,64,100,4
1,64,0,188
1,64,100,4
1,64,0,188
1,64,100,4
1,64,0,188
1,64,100,4
1,64,0,188
1,64,100,4
1,64,0,188
1,64,100,4
1,64,0,188
1,64,100,4
1,64,0,380
1,65,100,4
1,65,0,380
1,64,100,4
1,64,0,380
1,65,100,4
1,65,0,188
1,64,100,4
1,64,0,380
1,65,100,4
1,65,0,188
1,64,100,4
1,64,0,188
1,65,100,4
1,65,0,188
1,64,100,4
1,64,0,380
1,65,100,4
1,65,0,380
1,64,100,4
1,64,0,380
1,65,100,4
1,65,0,380
1,64,100,4
1,64,0,380
1,65,100,4
1,65,0,188
1,62,100,4
1,62,0,380
1,62,100,4
1,62,0,188
1,62,100,4
1,62,0,188
1,62,100,4
1,62,0,188
1,62,100,4
1,62,0,188
1,62,100,4
1,62,0,188
1,62,100,4
1,62,0,188
1,62,100,4
1,62,0,188
1,62,100,4
1,62,0,188
1,62,100,4
1,62,0,188
1,62,100,4
1,62,0,188
1,62,100,4
1,62,0,188
1,62,100,4
1,62,0,188
1,62,100,4
1,62,0,188
1,62,100,4
1,62,0,188
1,62,100,4
1,62,0,188
1,62,60,4
1,62,0,188
1,59,60,4
1,59,0,188
1,67,60,4
1,67,0,188
1,55,60,4
1,55,0,188
1,65,60,4
1,65,0,188
1,55,60,4
1,55,0,188
1,60,60,4
1,60,0,188
1,62,60,4
1,62,0,188
1,55,60,4
1,55,0,188
1,67,60,4
1,67,0,188
1,55,60,4
1,55,0,188
1,59,60,4
1,59,0,188
1,65,60,4
1,65,0,188
1,55,60,4
1,55,0,188
1,60,60,4
1,60,0,188
1,62,60,4
1,62,0,188
1,62,60,4
1,62,0,188
1,59,60,4
1,59,0,188
1,67,60,4
1,67,0,188
1,55,60,4
1,55,0,188
1,65,60,4
1,65,0,188
1,55,60,4
1,55,0,188
1,60,60,4
1,60,0,188
1,62,60,4
1,62,0,188
1,55,60,4
1,55,0,188
1,67,60,4
1,67,0,188
1,55,60,4
1,55,0,188
1,59,60,4
1,59,0,188
1,65,60,4
1,65,0,188
1,55,60,4
1,55,0,188
1,60,60,4
1,60,0,188
1,62,60,4
1,62,0,188
1,62,60,4
1,62,0,188
1,59,60,4
1,59,0,188
1,67,60,4
1,67,0,188
1,55,60,4
1,55,0,188
1,65,60,4
1,65,0,188
1,55,60,4
1,55,0,188
1,60,60,4
1,60,0,188
1,62,60,4
1,62,0,188
1,55,60,4
1,55,0,188
1,67,60,4
1,67,0,188
1,55,60,4
1,55,0,188
1,59,60,4
1,59,0,188
1,65,60,4
1,65,0,188
1,55,60,4
1,55,0,188
1,60,60,4
1,60,0,188
1,62,60,4
1,62,0,188
1,62,60,4
1,62,0,188
1,59,60,4
1,59,0,188
1,67,60,4
1,67,0,188
1,55,60,4
1,55,0,188
1,65,60,4
1,65,0,188
1,55,60,4
1,55,0,188
1,60,60,4
1,60,0,188
1,62,60,4
1,62,0,188
1,55,60,4
1,55,0,188
1,67,60,4
1,67,0,188
1,55,60,4
1,55,0,188
1,59,60,4
1,59,0,188
1,65,60,4
1,65,0,188
1,55,60,4
1,55,0,188
1,60,60,4
1,60,0,188
1,62,60,4
1,62,0,188
1,62,60,4
1,62,0,188
1,59,60,4
1,59,0,188
1,67,60,4
1,67,0,188
1,55,60,4
1,55,0,188
1,65,60,4
1,65,0,188
1,55,60,4
1,55,0,188
1,60,60,4
1,60,0,188
1,62,60,4
1,62,0,188
1,55,60,4
1,55,0,188
1,67,60,4
1,67,0,188
1,55,60,4
1,55,0,188
1,59,60,4
1,59,0,188
1,65,60,4
1,65,0,188
1,55,60,4
1,55,0,188
1,60,60,4
1,60,0,188
1,62,60,4
1,62,0,188
1,63,100,13828
1,63,0,380
1,69,100,4
1,69,0,380
1,70,100,4
1,70,0,380
1,63,100,4
1,63,0,188
1,69,100,4
1,69,0,380
1,70,100,4
1,70,0,380
1,63,100,4
1,63,0,188
1,69,100,4
1,69,0,380
1,70,100,4
1,70,0,380
1,64,100,4
1,64,0,380
1,65,100,4
1,65,0,380
1,64,100,4
1,64,0,380
1,65,100,4
1,65,0,188
1,64,100,4
1,64,0,380
1,65,100,4
1,65,0,188
1,64,100,4
1,64,0,188
1,65,100,4
1,65,0,188
1,64,100,4
1,64,0,380
1,65,100,4
1,65,0,380
1,64,100,4
1,64,0,380
1,65,100,4
1,65,0,380
1,64,100,4
1,64,0,380
1,65,100,4
1,65,0,188
1,62,100,4
1,62,0,380
1,64,100,4
1,64,0,188
1,64,100,4
1,64,0,188
1,64,100,4
1,64,0,188
1,64,100,4
1,64,0,188
1,64,100,4
1,64,0,188
1,64,100,4
1,64,0,188
1,64,100,4
1,64,0,188
1,64,100,4
1,64,0,380
1,65,100,4
1,65,0,380
1,64,100,4
1,64,0,380
1,65,100,4
1,65,0,188
1,64,100,4
1,64,0,380
1,65,100,4
1,65,0,188
1,64,100,4
1,64,0,188
1,65,100,4
1,65,0,188
1,64,100,4
1,64,0,380
1,65,100,4
1,65,0,380
1,64,100,4
1,64,0,380
1,65,100,4
1,65,0,380
1,64,100,4
1,64,0,380
1,65,100,4
1,65,0,188
1,62,100,4
1,62,0,380
1,62,100,4
1,62,0,188
1,62,100,4
1,62,0,188
1,62,100,4
1,62,0,188
1,62,100,4
1,62,0,188
1,62,100,4
1,62,0,188
1,62,100,4
1,62,0,188
1,62,100,4
1,62,0,188
1,62,100,4
1,62,0,188
1,62,100,4
1,62,0,188
1,62,100,4
1,62,0,188
1,62,100,4
1,62,0,188
1,62,100,4
1,62,0,188
1,62,100,4
1,62,0,188
1,62,100,4
1,62,0,188
1,62,100,4
1,62,0,188
1,63,100,10756
1,63,0,380
1,69,100,4
1,69,0,380
1,70,100,4
1,70,0,380
1,63,100,4
1,63,0,188
1,69,100,4
1,69,0,380
1,70,100,4
1,70,0,380
1,63,100,4
1,63,0,188
1,69,100,4
1,69,0,32
1,64,100,4
1,64,0,380
1,65,100,4
1,65,0,380
1,64,100,4
1,64,0,380
1,65,100,4
1,65,0,188
1,64,100,4
1,64,0,380
1,65,100,4
1,65,0,188
1,64,100,4
1,64,0,188
1,65,100,4
1,65,0,188
1,64,100,4
1,64,0,380
1,65,100,4
1,65,0,380
1,64,100,4
1,64,0,380
1,65,100,4
1,65,0,380
1,64,100,4
1,64,0,380
1,65,100,4
1,65,0,188
1,62,100,4
1,62,0,380
1,64,100,4
1,64,0,188
1,64,100,4
1,64,0,188
1,64,100,4
1,64,0,188
1,64,100,4
1,64,0,188
1,64,100,4
1,64,0,188
1,64,100,4
1,64,0,188
1,64,100,4
1,64,0,188
1,64,100,4
1,64,0,380
1,65,100,4
1,65,0,380
1,64,100,4
1,64,0,380
1,65,100,4
1,65,0,188
1,64,100,4
1,64,0,380
1,65,100,4
1,65,0,188
1,64,100,4
1,64,0,188
1,65,100,4
1,65,0,188
1,64,100,4
1,64,0,380
1,65,100,4
1,65,0,380
1,64,100,4
1,64,0,380
1,65,100,4
1,65,0,380
1,64,100,4
1,64,0,380
1,65,100,4
1,65,0,188
1,62,100,4
1,62,0,380
1,62,100,4
1,62,0,188
1,62,100,4
1,62,0,188
1,62,100,4
1,62,0,188
1,62,100,4
1,62,0,188
1,62,100,4
1,62,0,188
1,62,100,4
1,62,0,188
1,62,100,4
1,62,0,188
1,62,100,4
1,62,0,188
1,62,100,4
1,62,0,188
1,62,100,4
1,62,0,188
1,62,100,4
1,62,0,188
1,62,100,4
1,62,0,188
1,62,100,4
1,62,0,188
1,62,100,4
1,62,0,188
1,62,100,4
1,62,0,188
1,62,60,24580
1,62,0,188
1,59,60,4
1,59,0,188
1,67,60,4
1,67,0,188
1,55,60,4
1,55,0,188
1,65,60,4
1,65,0,188
1,55,60,4
1,55,0,188
1,60,60,4
1,60,0,188
1,62,60,4
1,62,0,188
1,55,60,4
1,55,0,188
1,67,60,4
1,67,0,188
1,55,60,4
1,55,0,188
1,59,60,4
1,59,0,188
1,65,60,4
1,65,0,188
1,55,60,4
1,55,0,188
1,60,60,4
1,60,0,188
1,62,60,4
1,62,0,188
1,62,60,4
1,62,0,188
1,59,60,4
1,59,0,188
1,67,60,4
1,67,0,188
1,55,60,4
1,55,0,188
1,65,60,4
1,65,0,188
1,55,60,4
1,55,0,188
1,60,60,4
1,60,0,188
1,62,60,4
1,62,0,188
1,55,60,4
1,55,0,188
1,67,60,4
1,67,0,188
1,55,60,4
1,55,0,188
1,59,60,4
1,59,0,188
1,65,60,4
1,65,0,188
1,55,60,4
1,55,0,188
1,60,60,4
1,60,0,188
1,62,60,4
1,62,0,188
1,62,60,4
1,62,0,188
1,59,60,4
1,59,0,188
1,67,60,4
1,67,0,188
1,55,60,4
1,55,0,188
1,65,60,4
1,65,0,188
1,55,60,4
1,55,0,188
1,60,60,4
1,60,0,188
1,62,60,4
1,62,0,188
1,55,60,4
1,55,0,188
1,67,60,4
1,67,0,188
1,55,60,4
1,55,0,188
1,59,60,4
1,59,0,188
1,65,60,4
1,65,0,188
1,55,60,4
1,55,0,188
1,60,60,4
1,60,0,188
1,62,60,4
1,62,0,188
1,62,60,4
1,62,0,188
1,59,60,4
1,59,0,188
1,67,60,4
1,67,0,188
1,55,60,4
1,55,0,188
1,65,60,4
1,65,0,188
1,55,60,4
1,55,0,188
1,60,60,4
1,60,0,188
1,62,60,4
1,62,0,188
2,67,80,0
2,67,0,380
2,71,80,4
2,71,0,188
2,67,80,4
2,67,0,188
2,69,80,4
2,69,0,380
2,65,80,4
2,65,0,188
2,60,80,4
2,60,0,188
2,62,80,4
2,62,0,188
2,67,80,4
2,67,0,188
2,62,80,196
2,62,0,188
2,65,80,4
2,65,0,380
2,69,80,4
2,69,0,380
2,67,80,4
2,67,0,380
2,71,80,4
2,71,0,188
2,67,80,4
2,67,0,188
2,69,80,4
2,69,0,380
2,65,80,4
2,65,0,188
2,60,80,4
2,60,0,188
2,62,80,4
2,62,0,188
2,67,80,4
2,67,0,188
2,62,80,196
2,62,0,188
2,65,80,4
2,65,0,380
2,69,80,4
2,69,0,380
2,67,80,4
2,67,0,380
2,71,80,4
2,71,0,188
2,67,80,4
2,67,0,188
2,69,80,4
2,69,0,380
2,65,80,4
2,65,0,188
2,60,80,4
2,60,0,188
2,62,80,4
2,62,0,188
2,67,80,4
2,67,0,188
2,62,80,196
2,62,0,188
2,65,80,4
2,65,0,380
2,69,80,4
2,69,0,380
2,67,80,4
2,67,0,380
2,71,80,4
2,71,0,188
2,67,80,4
2,67,0,188
2,69,80,4
2,69,0,380
2,65,80,4
2,65,0,188
2,60,80,4
2,60,0,188
2,62,80,4
2,62,0,188
2,67,80,4
2,67,0,188
2,62,80,196
2,62,0,188
2,65,80,4
2,65,0,380
2,69,80,4
2,69,0,380
2,67,80,4
2,67,0,380
2,71,80,4
2,71,0,188
2,67,80,4
2,67,0,188
2,69,80,4
2,69,0,380
2,65,80,4
2,65,0,188
2,60,80,4
2,60,0,188
2,62,80,4
2,62,0,188
2,67,80,4
2,67,0,188
2,62,80,196
2,62,0,188
2,65,80,4
2,65,0,380
2,69,80,4
2,69,0,380
2,63,100,13828
2,63,0,380
2,69,100,4
2,69,0,380
2,70,100,4
2,70,0,380
2,63,100,4
2,63,0,188
2,69,100,4
2,69,0,380
2,70,100,4
2,70,0,380
2,63,100,4
2,63,0,188
2,69,100,4
2,69,0,380
2,70,100,4
2,70,0,380
2,64,100,4
2,64,0,380
2,65,100,4
2,65,0,380
2,64,100,4
2,64,0,380
2,65,100,4
2,65,0,188
2,64,100,4
2,64,0,380
2,65,100,4
2,65,0,188
2,64,100,4
2,64,0,188
2,65,100,4
2,65,0,188
2,64,100,4
2,64,0,380
2,65,100,4
2,65,0,380
2,64,100,4
2,64,0,380
2,65,100,4
2,65,0,380
2,64,100,4
2,64,0,380
2,65,100,4
2,65,0,188
2,62,100,4
2,62,0,380
2,64,100,4
2,64,0,188
2,64,100,4
2,64,0,188
2,64,100,4
2,64,0,188
2,64,100,4
2,64,0,188
2,64,100,4
2,64,0,188
2,64,100,4
2,64,0,188
2,64,100,4
2,64,0,188
2,64,100,4
2,64,0,380
2,65,100,4
2,65,0,380
2,64,100,4
2,64,0,380
2,65,100,4
2,65,0,188
2,64,100,4
2,64,0,380
2,65,100,4
2,65,0,188
2,64,100,4
2,64,0,188
2,65,100,4
2,65,0,188
2,64,100,4
2,64,0,380
2,65,100,4
2,65,0,380
2,64,100,4
2,64,0,380
2,65,100,4
2,65,0,380
2,64,100,4
2,64,0,380
2,65,100,4
2,65,0,188
2,62,100,4
2,62,0,380
2,62,100,4
2,62,0,188
