track,note,velocity,time
1,31,127,1920
1,31,127,0
1,31,127,0
1,31,127,0
1,27,127,0
1,27,127,0
1,27,127,0
1,27,127,0
1,36,127,0
1,36,127,0
1,36,127,0
1,36,127,0
1,29,127,0
1,29,127,0
1,29,127,0
1,29,127,0
1,31,127,0
1,31,127,0
1,31,127,0
1,31,127,0
1,27,127,0
1,27,127,0
1,27,127,0
1,27,127,0
1,36,127,0
1,36,127,0
1,36,127,0
1,36,127,0
1,29,127,0
1,29,127,0
1,29,127,0
1,29,127,0
1,31,127,15360
1,31,127,0
1,31,127,0
1,31,127,0
1,27,127,0
1,27,127,0
1,27,127,0
1,27,127,0
1,36,127,0
1,36,127,0
1,36,127,0
1,36,127,0
1,29,127,0
1,29,127,0
1,29,127,0
1,29,127,0
1,31,127,0
1,31,127,0
1,31,127,0
1,31,127,0
1,27,127,0
1,27,127,0
1,27,127,0
1,27,127,0
1,36,127,0
1,36,127,0
1,36,127,0
1,36,127,0
1,29,127,0
1,29,127,0
1,29,127,0
1,29,127,0
1,31,127,3840
1,31,127,0
1,31,127,0
1,31,127,0
1,27,127,0
1,27,127,0
1,27,127,0
1,27,127,0
1,36,127,0
1,36,127,0
1,36,127,0
1,36,127,0
1,29,127,0
1,29,127,0
1,29,127,0
1,29,127,0
1,31,127,0
1,31,127,0
1,31,127,0
1,31,127,0
1,27,127,0
1,27,127,0
1,27,127,0
1,27,127,0
1,36,127,0
1,36,127,0
1,36,127,0
1,36,127,0
1,29,127,0
1,29,127,0
1,29,127,0
1,29,127,0
1,31,127,0
1,31,127,0
1,31,127,0
1,31,127,0
1,27,127,0
1,27,127,0
1,27,127,0
1,27,127,0
1,31,127,0
1,31,127,0
1,31,127,0
1,31,127,0
1,27,127,0
1,27,127,0
1,27,127,0
1,27,127,0
1,31,127,0
1,31,127,0
1,31,127,0
1,31,127,0
1,27,127,0
1,27,127,0
1,27,127,0
1,27,127,0
1,31,127,0
1,31,127,0
1,31,127,0
1,31,127,0
1,27,127,0
1,27,127,0
1,27,127,0
1,27,127,0
1,31,127,0
1,31,127,0
1,31,127,0
1,31,127,0
1,27,127,0
1,27,127,0
1,27,127,0
1,27,127,0
1,36,127,0
1,36,127,0
1,36,127,0
1,36,127,0
1,29,127,0
1,29,127,0
1,29,127,0
1,29,127,0
1,31,127,0
1,31,127,0
1,31,127,0
1,31,127,0
1,27,127,0
1,27,127,0
1,27,127,0
1,27,127,0
1,36,127,0
1,36,127,0
1,36,127,0
1,36,127,0
1,29,127,0
1,29,127,0
1,29,127,0
1,29,127,0
1,34,127,3840
1,34,127,0
1,34,127,0
1,34,127,0
1,27,127,0
1,27,127,0
1,27,127,0
1,27,127,0
1,34,127,0
1,34,127,0
1,34,127,0
1,34,127,0
1,27,127,0
1,27,127,0
1,27,127,0
1,27,127,0
1,34,127,0
1,34,127,0
1,34,127,0
1,34,127,0
1,27,127,0
1,27,127,0
1,27,127,0
1,27,127,0
1,34,127,0
1,34,127,0
1,34,127,0
1,34,127,0
1,27,127,0
1,27,127,0
1,27,127,0
1,27,127,0
1,34,127,0
1,34,127,0
1,34,127,0
1,34,127,0
1,27,127,0
1,27,127,0
1,27,127,0
1,27,127,0
1,34,127,0
1,34,127,0
1,34,127,0
1,34,127,0
1,27,127,0
1,27,127,0
1,27,127,0
1,27,127,0
1,34,127,0
1,34,127,0
1,34,127,0
1,34,127,0
1,27,127,0
1,27,127,0
1,27,127,0
1,27,127,0
1,34,127,0
1,34,127,0
1,34,127,0
1,34,127,0
1,31,127,1920
1,31,127,0
1,31,127,0
1,31,127,0
1,27,127,0
1,27,127,0
1,27,127,0
1,27,127,0
1,36,127,0
1,36,127,0
1,36,127,0
1,36,127,0
1,29,127,0
1,29,127,0
1,29,127,0
1,29,127,0
1,31,127,0
1,31,127,0
1,31,127,0
1,31,127,0
1,27,127,0
1,27,127,0
1,27,127,0
1,27,127,0
1,36,127,0
1,36,127,0
1,36,127,0
1,36,127,0
1,29,127,0
1,29,127,0
1,29,127,0
1,29,127,0
1,31,127,0
1,31,127,0
1,31,127,0
1,31,127,0
1,27,127,0
1,27,127,0
1,27,127,0
1,27,127,0
1,36,127,0
1,36,127,0
1,36,127,0
1,36,127,0
1,29,127,0
1,29,127,0
1,29,127,0
1,29,127,0
1,31,127,0
1,31,127,0
1,31,127,0
1,31,127,0
1,27,127,0
1,27,127,0
1,27,127,0
1,27,127,0
1,36,127,0
1,36,127,0
1,36,127,0
1,36,127,0
1,29,127,0
1,29,127,0
1,29,127,0
1,29,127,0
1,31,127,1920
1,31,127,0
1,31,127,0
1,31,127,0
1,27,127,0
1,27,127,0
1,27,127,0
1,27,127,0
1,31,127,0
1,31,127,0
1,31,127,0
1,31,127,0
1,27,127,0
1,27,127,0
1,27,127,0
1,27,127,0
1,31,127,0
1,31,127,0
1,31,127,0
1,31,127,0
1,27,127,0
1,27,127,0
1,27,127,0
1,27,127,0
1,31,127,0
1,31,127,0
1,31,127,0
1,31,127,0
1,27,127,0
1,27,127,0
1,27,127,0
1,27,127,0
1,31,127,0
1,31,127,0
1,31,127,0
1,31,127,0
1,27,127,0
1,27,127,0
1,27,127,0
1,27,127,0
1,31,127,0
1,31,127,0
1,31,127,0
1,31,127,0
1,27,127,0
1,27,127,0
1,27,127,0
1,27,127,0
1,31,127,0
1,31,127,0
1,31,127,0
1,31,127,0
1,27,127,0
1,27,127,0
1,27,127,0
1,27,127,0
1,31,127,0
1,31,127,0
1,31,127,0
1,31,127,0
1,27,127,0
1,27,127,0
1,27,127,0
1,27,127,0
1,31,127,0
1,31,127,0
1,31,127,0
1,31,127,0
1,27,127,0
1,27,127,0
1,27,127,0
1,27,127,0
2,55,127,2640
2,67,127,0
2,70,127,0
2,58,127,0
2,72,127,0
2,60,127,0
2,72,127,120
2,60,127,0
2,70,127,0
2,58,127,0
2,67,127,720
2,55,127,0
2,70,127,0
2,58,127,0
2,72,127,0
2,60,127,0
2,72,127,120
2,60,127,0
2,70,127,0
2,58,127,0
2,67,127,720
2,55,127,0
2,70,127,0
2,58,127,0
2,72,127,0
2,60,127,0
2,72,127,120
2,60,127,0
2,70,127,0
2,58,127,0
2,67,127,720
2,55,127,0
2,70,127,0
2,58,127,0
2,72,127,0
2,60,127,0
2,72,127,120
2,60,127,0
2,70,127,0
2,58,127,0
2,67,127,720
2,55,127,0
2,70,127,0
2,58,127,0
2,72,127,0
2,60,127,0
2,72,127,120
2,60,127,0
2,70,127,0
2,58,127,0
2,67,127,720
2,55,127,0
2,70,127,0
2,58,127,0
2,72,127,0
2,60,127,0
2,72,127,120
2,60,127,0
2,70,127,0
2,58,127,0
2,67,127,720
2,55,127,0
2,70,127,0
2,58,127,0
2,72,127,0
2,60,127,0
2,72,127,120
2,60,127,0
2,70,127,0
2,58,127,0
2,67,127,720
2,55,127,0
2,70,127,0
2,58,127,0
2,72,127,0
2,60,127,0
2,72,127,120
2,60,127,0
2,70,127,0
2,58,127,0
2,67,127,4560
2,55,127,0
2,70,127,0
2,58,127,0
2,72,127,0
2,60,127,0
2,72,127,120
2,60,127,0
2,70,127,0
2,58,127,0
2,67,127,720
2,55,127,0
2,70,127,0
2,58,127,0
2,72,127,0
2,60,127,0
2,72,127,120
2,60,127,0
2,70,127,0
2,58,127,0
2,67,127,4560
2,55,127,0
2,70,127,0
2,58,127,0
2,72,127,0
2,60,127,0
2,72,127,120
2,60,127,0
2,70,127,0
2,58,127,0
2,67,127,2640
2,55,127,0
2,70,127,0
2,58,127,0
2,72,127,0
2,60,127,0
2,72,127,120
2,60,127,0
2,70,127,0
2,58,127,0
2,67,127,720
2,55,127,0
2,70,127,0
2,58,127,0
2,72,127,0
2,60,127,0
2,72,127,120
2,60,127,0
2,70,127,0
2,58,127,0
2,67,127,720
2,55,127,0
2,70,127,0
2,58,127,0
2,72,127,0
2,60,127,0
2,72,127,120
2,60,127,0
2,70,127,0
2,58,127,0
2,67,127,720
2,55,127,0
2,70,127,0
2,58,127,0
2,72,127,0
2,60,127,0
2,72,127,120
2,60,127,0
2,70,127,0
2,58,127,0
2,67,127,720
2,55,127,0
2,70,127,0
2,58,127,0
2,72,127,0
2,60,127,0
2,72,127,120
2,60,127,0
2,70,127,0
2,58,127,0
2,67,127,720
2,55,127,0
2,70,127,0
2,58,127,0
2,72,127,0
2,60,127,0
2,72,127,120
2,60,127,0
2,70,127,0
2,58,127,0
2,67,127,720
2,55,127,0
2,70,127,0
2,58,127,0
2,72,127,0
2,60,127,0
2,72,127,120
2,60,127,0
2,70,127,0
2,58,127,0
2,67,127,720
2,55,127,0
2,70,127,0
2,58,127,0
2,72,127,0
2,60,127,0
2,72,127,120
2,60,127,0
2,70,127,0
2,58,127,0
2,67,127,4560
2,55,127,0
2,70,127,0
2,58,127,0
2,72,127,0
2,60,127,0
2,72,127,120
2,60,127,0
2,70,127,0
2,58,127,0
2,67,127,720
2,55,127,0
2,70,127,0
2,58,127,0
2,72,127,0
2,60,127,0
2,72,127,120
2,60,127,0
2,70,127,0
2,58,127,0
2,67,127,720
2,55,127,0
2,70,127,0
2,58,127,0
2,72,127,0
2,60,127,0
2,72,127,120
2,60,127,0
2,70,127,0
2,58,127,0
2,67,127,720
2,55,127,0
2,70,127,0
2,58,127,0
2,72,127,0
2,60,127,0
2,72,127,120
2,60,127,0
2,70,127,0
2,58,127,0
2,67,127,720
2,55,127,0
2,70,127,0
2,58,127,0
2,72,127,0
2,60,127,0
2,72,127,120
2,60,127,0
2,70,127,0
2,58,127,0
2,67,127,720
2,55,127,0
2,70,127,0
2,58,127,0
2,72,127,0
2,60,127,0
2,72,127,120
2,60,127,0
2,70,127,0
2,58,127,0
2,67,127,720
2,55,127,0
2,70,127,0
2,58,127,0
2,72,127,0
2,60,127,0
2,72,127,120
2,60,127,0
2,70,127,0
2,58,127,0
2,67,127,720
2,55,127,0
2,70,127,0
2,58,127,0
2,72,127,0
2,60,127,0
2,72,127,120
2,60,127,0
2,70,127,0
2,58,127,0
2,67,127,4560
2,55,127,0
2,70,127,0
2,58,127,0
2,72,127,0
2,60,127,0
2,72,127,120
2,60,127,0
2,70,127,0
2,58,127,0
2,67,127,720
2,55,127,0
2,70,127,0
2,58,127,0
2,72,127,0
2,60,127,0
2,72,127,120
2,60,127,0
2,70,127,0
2,58,127,0
2,67,127,4560
2,55,127,0
2,70,127,0
2,58,127,0
2,72,127,0
2,60,127,0
2,72,127,120
2,60,127,0
2,70,127,0
2,58,127,0
2,67,127,2640
2,55,127,0
2,70,127,0
2,58,127,0
2,72,127,0
2,60,127,0
2,72,127,120
2,60,127,0
2,70,127,0
2,58,127,0
2,67,127,720
2,55,127,0
2,70,127,0
2,58,127,0
2,72,127,0
2,60,127,0
2,72,127,120
2,60,127,0
2,70,127,0
2,58,127,0
2,67,127,720
2,55,127,0
2,70,127,0
2,58,127,0
2,72,127,0
2,60,127,0
2,72,127,120
2,60,127,0
2,70,127,0
2,58,127,0
2,67,127,720
2,55,127,0
2,70,127,0
2,58,127,0
2,72,127,0
2,60,127,0
2,72,127,120
2,60,127,0
2,70,127,0
2,58,127,0
2,67,127,720
2,55,127,0
2,70,127,0
2,58,127,0
2,72,127,0
2,60,127,0
2,72,127,120
2,60,127,0
2,70,127,0
2,58,127,0
2,67,127,720
2,55,127,0
2,70,127,0
2,58,127,0
2,72,127,0
2,60,127,0
2,72,127,120
2,60,127,0
2,70,127,0
2,58,127,0
2,67,127,720
2,55,127,0
2,70,127,0
2,58,127,0
2,72,127,0
2,60,127,0
2,72,127,120
2,60,127,0
2,70,127,0
2,58,127,0
2,67,127,720
2,55,127,0
2,70,127,0
2,58,127,0
2,72,127,0
2,60,127,0
2,72,127,120
2,60,127,0
2,70,127,0
2,58,127,0
2,70,127,21840
2,58,127,0
2,70,127,0
2,58,127,0
2,70,127,0
2,58,127,0
2,68,127,0
2,56,127,0
2,65,127,0
2,53,127,0
2,68,127,0
2,56,127,0
2,70,127,0
2,58,127,0
2,70,127,2280
2,58,127,0
2,68,127,0
2,56,127,0
2,65,127,0
2,53,127,0
2,68,127,0
2,56,127,0
2,70,127,0
2,58,127,0
2,70,127,2160
2,58,127,0
2,70,127,0
2,58,127,0
2,70,127,0
2,58,127,0
2,68,127,0
2,56,127,0
2,65,127,0
2,53,127,0
2,68,127,0
2,56,127,0
2,70,127,0
2,58,127,0
2,67,127,4320
2,55,127,0
2,70,127,0
2,58,127,0
2,72,127,0
2,60,127,0
2,72,127,120
2,60,127,0
2,70,127,0
2,58,127,0
2,67,127,720
2,55,127,0
2,70,127,0
2,58,127,0
2,72,127,0
2,60,127,0
2,72,127,120
2,60,127,0
2,70,127,0
2,58,127,0
2,67,127,720
2,55,127,0
2,70,127,0
2,58,127,0
2,72,127,0
2,60,127,0
2,72,127,120
2,60,127,0
2,70,127,0
2,58,127,0
2,67,127,720
2,55,127,0
2,70,127,0
2,58,127,0
2,72,127,0
2,60,127,0
2,72,127,120
2,60,127,0
2,70,127,0
2,58,127,0
2,67,127,720
2,55,127,0
2,70,127,0
2,58,127,0
2,72,127,0
2,60,127,0
2,72,127,120
2,60,127,0
2,70,127,0
2,58,127,0
2,67,127,720
2,55,127,0
2,70,127,0
2,58,127,0
2,72,127,0
2,60,127,0
2,72,127,120
2,60,127,0
2,70,127,0
2,58,127,0
2,67,127,720
2,55,127,0
2,70,127,0
2,58,127,0
2,72,127,0
2,60,127,0
2,72,127,120
2,60,127,0
2,70,127,0
2,58,127,0
2,67,127,720
2,55,127,0
2,70,127,0
2,58,127,0
2,72,127,0
2,60,127,0
2,72,127,120
2,60,127,0
2,70,127,0
2,58,127,0
2,55,127,720
2,67,127,0
2,70,127,0
2,58,127,0
2,72,127,0
2,60,127,0
2,72,127,120
2,60,127,0
2,70,127,0
2,58,127,0
2,67,127,720
2,55,127,0
2,70,127,0
2,58,127,0
2,72,127,0
2,60,127,0
2,72,127,120
2,60,127,0
2,70,127,0
2,58,127,0
2,67,127,720
2,55,127,0
2,70,127,0
2,58,127,0
2,72,127,0
2,60,127,0
2,72,127,120
2,60,127,0
2,70,127,0
2,58,127,0
2,67,127,720
2,55,127,0
2,70,127,0
2,58,127,0
2,72,127,0
2,60,127,0
2,72,127,120
2,60,127,0
2,70,127,0
2,58,127,0
2,67,127,720
2,55,127,0
2,70,127,0
2,58,127,0
2,72,127,0
2,60,127,0
2,72,127,120
2,60,127,0
2,70,127,0
2,58,127,0
2,67,127,720
2,55,127,0
2,70,127,0
2,58,127,0
2,72,127,0
2,60,127,0
2,72,127,120
2,60,127,0
2,70,127,0
2,58,127,0
2,67,127,720
2,55,127,0
2,70,127,0
2,58,127,0
2,72,127,0
2,60,127,0
2,72,127,120
2,60,127,0
2,70,127,0
2,58,127,0
2,67,127,720
2,55,127,0
2,70,127,0
2,58,127,0
2,72,127,0
2,60,127,0
2,72,127,120
2,60,127,0
2,70,127,0
2,58,127,0
2,67,127,4560
2,55,127,0
2,70,127,0
2,58,127,0
2,72,127,0
2,60,127,0
2,72,127,120
2,60,127,0
2,70,127,0
2,58,127,0
2,67,127,2640
2,55,127,0
2,70,127,0
2,58,127,0
2,72,127,0
2,60,127,0
2,72,127,120
2,60,127,0
2,70,127,0
2,58,127,0
2,67,127,2640
2,55,127,0
2,70,127,0
2,58,127,0
2,72,127,0
2,60,127,0
2,72,127,120
2,60,127,0
2,70,127,0
2,58,127,0
2,67,127,2640
2,55,127,0
2,70,127,0
2,58,127,0
2,72,127,0
2,60,127,0
2,72,127,120
2,60,127,0
2,70,127,0
2,58,127,0
2,67,127,4560
2,55,127,0
2,70,127,0
2,58,127,0
2,72,127,0
2,60,127,0
2,72,127,120
2,60,127,0
2,70,127,0
2,58,127,0
2,67,127,720
2,55,127,0
2,70,127,0
2,58,127,0
2,72,127,0
2,60,127,0
2,72,127,120
2,60,127,0
2,70,127,0
2,58,127,0
2,67,127,720
2,55,127,0
2,70,127,0
2,58,127,0
2,72,127,0
2,60,127,0
