track,note,velocity,time
0,68,91,2226
0,77,95,0
0,35,108,14
0,38,101,0
0,42,79,0
0,39,103,4
0,54,77,0
0,68,93,0
0,77,97,0
0,65,102,4
0,68,108,0
0,70,99,4
0,78,103,0
0,70,101,4
0,78,105,0
0,66,97,4
0,70,101,0
0,68,73,4
0,77,77,0
0,68,75,4
0,77,79,0
0,65,99,4
0,68,103,0
0,66,76,4
0,75,80,0
0,66,78,4
0,75,82,0
0,63,95,4
0,66,99,0
0,70,84,38
0,82,98,0
0,75,94,136
0,87,108,0
0,38,97,130
0,42,73,0
0,39,100,4
0,54,73,0
0,66,92,98
0,75,96,0
0,35,108,14
0,38,101,0
0,42,78,0
0,34,103,4
0,54,77,0
0,66,94,0
0,75,98,0
0,63,102,4
0,66,106,0
0,68,86,4
0,77,90,0
0,68,88,4
0,77,92,0
0,65,97,4
0,68,101,0
0,66,86,4
0,75,90,0
0,66,88,4
0,75,92,0
0,63,99,4
0,66,103,0
0,65,65,4
0,73,69,0
0,65,67,4
0,73,71,0
0,61,92,4
0,65,96,0
0,65,84,24
0,77,98,0
0,70,93,136
0,82,107,0
0,34,100,134
0,54,73,0
0,65,89,98
0,73,93,0
0,35,108,14
0,38,101,0
0,42,76,0
0,29,103,4
0,54,77,0
0,65,91,0
0,73,95,0
0,61,90,4
0,65,94,0
0,66,90,4
0,75,94,0
0,66,92,4
0,75,96,0
0,63,90,4
0,66,94,0
0,65,86,4
0,73,90,0
0,65,88,0
0,73,92,0
0,61,92,4
0,65,96,0
0,63,90,4
0,72,94,0
0,63,92,4
0,72,96,0
0,60,88,4
0,63,92,0
0,38,97,16
0,60,82,140
0,65,82,0
0,69,82,0
0,63,79,18
0,65,83,0
0,69,79,0
0,38,99,14
0,41,103,4
0,63,81,0
0,65,85,0
0,69,81,0
0,60,103,4
0,63,94,0
0,69,101,0
0,38,95,76
0,38,98,76
0,61,82,4
0,65,82,0
0,70,82,0
0,61,95,4
0,65,101,0
0,70,99,0
0,35,108,0
0,42,79,0
0,49,79,0
0,34,100,2
0,54,69,0
0,61,97,0
0,65,103,0
0,70,101,0
0,61,94,4
0,65,97,0
0,70,101,0
0,69,33,8
0,61,90,28
0,65,95,0
0,70,89,0
0,35,108,14
0,42,73,0
0,34,100,4
0,61,92,0
0,65,97,0
0,70,91,0
0,61,86,4
0,65,97,0
0,70,97,0
0,69,30,10
0,61,90,2
0,65,92,0
0,70,88,0
0,35,108,14
0,42,77,0
0,34,100,4
0,61,92,0
0,65,94,0
0,70,90,0
0,61,92,4
0,65,99,0
0,70,99,0
0,41,100,24
0,69,34,0
0,65,113,18
0,35,108,52
0,42,74,0
0,42,103,2
0,61,92,4
0,65,94,0
0,70,97,0
0,38,101,36
0,46,61,0
0,41,100,2
0,69,32,0
0,61,104,2
0,61,103,28
0,65,91,0
0,70,93,0
0,61,88,18
0,65,90,0
0,70,97,0
0,58,82,4
0,61,82,0
0,65,82,0
0,35,108,0
0,42,79,0
0,34,103,2
0,54,69,0
0,61,97,0
0,65,103,0
0,70,101,0
0,61,94,4
0,65,97,0
0,70,101,0
0,60,111,14
0,69,33,62
0,35,108,168
0,42,73,0
0,34,100,4
0,61,92,0
0,65,97,0
0,70,91,0
0,61,86,4
0,65,97,0
0,70,97,0
0,58,85,2
0,69,30,68
0,65,88,2
0,77,102,0
0,35,108,130
0,42,77,0
0,34,100,4
0,61,92,0
0,65,94,0
0,70,90,0
0,70,88,2
0,82,102,0
0,61,92,2
0,65,99,0
0,70,99,0
0,65,127,64
0,69,34,0
0,35,108,168
0,42,74,0
0,34,100,4
0,61,92,4
0,65,94,0
0,70,97,0
0,38,101,94
0,46,61,0
0,29,100,2
0,69,32,0
0,61,116,2
0,61,103,32
0,65,91,0
0,70,93,0
0,61,88,20
0,65,90,0
0,70,97,0
0,35,108,0
0,42,79,0
0,34,103,2
0,54,69,0
0,61,97,0
0,65,103,0
0,70,101,0
0,61,94,4
0,65,97,0
0,70,101,0
0,60,98,2
0,69,33,60
0,35,108,16
0,42,73,0
0,34,100,4
0,61,92,0
0,65,97,0
0,70,91,0
0,61,86,4
0,65,97,0
0,70,97,0
0,58,102,8
0,69,30,60
0,65,88,2
0,77,102,0
0,35,108,42
0,42,77,0
0,34,100,4
0,61,92,0
0,65,94,0
0,70,90,0
0,70,88,2
0,82,102,0
0,61,92,2
0,65,99,0
0,70,99,0
0,69,34,66
0,58,109,166
0,35,108,2
0,42,74,0
0,34,100,4
0,61,92,0
0,65,92,0
0,70,96,0
0,61,92,4
0,65,94,0
0,70,97,0
0,38,101,62
0,46,61,0
0,29,100,2
0,58,102,0
0,69,32,0
0,61,103,28
0,65,91,0
0,70,93,0
0,61,88,18
0,65,90,0
0,70,97,0
0,62,82,4
0,35,108,6
0,42,79,0
0,58,95,0
0,34,103,2
0,54,69,0
0,62,92,0
0,65,92,0
0,70,96,0
0,58,111,2
0,62,94,2
0,65,97,0
0,70,101,0
0,69,33,62
0,35,108,46
0,42,73,0
0,62,104,0
0,34,100,4
0,62,83,0
0,65,87,0
0,70,79,0
0,62,86,4
0,65,97,0
0,70,97,0
0,65,100,2
0,69,30,8
0,35,108,0
0,42,77,0
0,34,100,4
0,62,79,0
0,65,92,0
0,70,105,0
0,70,83,0
0,62,92,4
0,65,99,0
0,70,99,0
0,70,115,6
0,69,34,64
0,35,108,168
0,42,74,0
0,34,100,4
0,62,100,0
0,65,96,0
0,70,100,0
0,62,92,4
0,65,94,0
0,70,97,0
0,68,101,18
0,38,101,18
0,46,61,0
0,38,100,2
0,69,32,0
0,68,116,2
0,58,82,2
0,63,82,0
0,66,82,0
0,68,92,6
0,35,108,22
0,42,79,0
0,68,103,0
0,39,103,2
0,54,69,0
0,63,79,0
0,66,69,0
0,70,83,0
0,63,94,4
0,66,97,0
0,70,101,0
0,69,33,60
0,35,108,0
0,42,73,0
0,66,82,2
0,39,100,2
0,63,79,0
0,66,79,0
0,70,87,0
0,63,86,4
0,66,97,0
0,70,97,0
0,66,96,2
0,69,30,60
0,70,88,2
0,82,102,0
0,35,108,4
0,42,77,0
0,39,100,4
0,63,87,0
0,66,92,0
0,70,92,0
0,75,88,2
0,87,102,0
0,63,92,2
0,66,99,0
0,70,99,0
0,34,100,2
0,69,34,0
0,35,108,48
0,42,74,0
0,39,100,2
0,63,92,4
0,66,94,0
0,70,97,0
0,63,102,10
0,66,110,0
0,66,117,0
0,38,101,0
0,46,61,0
0,61,80,0
0,65,88,0
0,34,100,2
0,63,91,0
0,66,97,0
0,69,32,0
0,70,98,0
0,65,93,0
0,56,82,4
0,60,82,0
0,63,82,0
0,35,108,8
0,42,79,0
0,32,100,2
0,54,69,0
0,60,85,0
0,63,84,0
0,68,84,0
0,63,97,2
0,60,94,2
0,63,97,0
0,68,101,0
0,60,97,2
0,63,105,0
0,69,33,56
0,35,108,168
0,42,73,0
0,32,100,4
0,60,83,0
0,63,85,0
0,68,83,0
0,60,86,4
0,63,97,0
0,68,97,0
0,63,102,2
0,66,110,0
0,69,30,20
0,66,117,2
0,66,97,4
0,70,105,0
0,35,108,2
0,42,77,0
0,32,100,2
0,60,81,0
0,63,87,0
0,68,84,0
0,70,117,0
0,60,92,4
0,63,99,0
0,68,99,0
0,69,34,60
0,35,108,168
0,42,74,0
0,32,100,4
0,60,83,0
0,63,84,0
0,68,85,0
0,60,92,4
0,63,94,0
0,68,97,0
0,65,97,2
0,68,105,0
0,38,101,14
0,46,61,0
0,69,32,4
0,68,117,2
0,60,99,34
0,63,99,0
0,68,99,0
0,60,97,38
0,63,106,0
0,68,106,0
0,56,82,4
0,61,82,0
0,65,82,0
0,63,98,2
0,66,106,0
0,35,108,20
0,42,79,0
0,37,100,0
0,54,69,0
0,61,92,0
0,65,92,0
0,68,96,0
0,66,111,2
0,61,88,0
0,65,87,0
0,68,93,0
0,69,33,56
0,61,76,2
0,65,84,0
0,35,108,24
0,42,73,0
0,37,100,4
0,61,84,0
0,65,92,0
0,68,85,0
0,61,89,0
0,65,91,0
0,68,96,0
0,65,89,2
0,69,30,50
0,68,88,2
0,80,102,0
0,35,108,30
0,42,77,0
0,37,100,4
0,61,85,0
0,65,92,0
0,68,83,0
0,73,88,0
0,85,102,0
0,61,93,2
0,65,97,0
0,68,93,0
0,69,34,34
0,35,108,110
0,42,74,0
0,37,100,4
0,65,101,0
0,61,93,4
0,65,97,0
0,68,93,0
0,38,101,56
0,46,61,0
0,65,97,0
0,61,87,4
0,65,90,0
0,68,91,0
0,69,32,0
0,58,82,4
0,63,82,0
0,66,82,0
0,58,98,0
0,63,106,0
0,66,98,0
0,35,108,2
0,42,79,0
0,39,103,2
0,54,69,0
0,63,92,0
0,66,97,0
0,70,95,0
0,63,96,4
0,66,96,0
0,70,93,0
0,69,33,60
0,35,108,6
0,42,73,0
0,39,100,4
0,63,101,0
0,66,99,0
0,70,93,0
0,63,102,4
0,66,93,0
0,70,93,0
0,69,30,4
0,61,106,2
0,35,108,26
0,42,77,0
0,39,100,4
0,63,95,0
0,66,95,0
0,70,93,0
0,63,92,4
0,66,97,0
0,70,93,0
0,60,112,2
0,34,100,2
0,69,34,0
0,35,108,12
0,42,74,0
0,39,100,2
0,63,97,0
0,66,95,0
0,70,93,0
0,63,93,4
0,66,97,0
0,70,93,0
0,38,101,4
0,46,61,0
0,34,100,2
0,63,103,0
0,66,101,0
0,69,32,0
0,70,99,0
0,58,112,2
0,57,82,4
0,60,82,0
0,65,82,0
0,35,108,4
0,42,79,0
0,57,99,0
0,41,100,2
0,54,69,0
0,60,101,0
0,65,92,0
0,65,97,0
0,69,103,0
0,60,95,4
0,65,99,0
0,69,98,0
0,60,92,2
0,69,24,40
0,66,107,46
0,58,101,14
0,35,108,2
0,46,61,0
0,47,92,0
0,42,100,4
0,54,65,0
0,61,106,0
0,66,93,0
0,70,87,0
0,78,88,2
0,90,102,0
0,70,100,2
0,73,105,0
0,47,87,24
0,65,108,0
0,57,107,2
0,35,108,2
0,42,77,0
0,43,95,0
0,41,103,2
0,54,71,0
0,60,101,0
0,65,88,0
0,69,95,0
0,77,88,0
0,89,102,0
0,69,97,0
0,72,100,0
0,65,112,266
0,46,58,192
0,29,100,2
0,54,55,0
0,61,101,0
0,58,82,136
0,61,82,0
0,65,82,0
0,35,108,32
0,42,79,0
0,34,103,2
0,54,65,0
0,61,97,0
0,65,103,0
0,70,101,0
0,61,94,4
0,65,97,0
0,70,101,0
0,60,111,14
0,69,33,62
0,35,108,168
0,42,73,0
0,34,100,4
0,61,92,0
0,65,97,0
0,70,91,0
0,61,86,4
0,65,97,0
0,70,97,0
0,58,85,2
0,69,30,68
0,72,96,2
0,76,92,0
0,35,108,166
0,42,77,0
0,34,100,0
0,61,92,0
0,65,94,0
0,70,90,0
0,73,88,2
0,77,88,0
0,61,92,2
0,65,99,0
0,70,99,0
0,65,127,64
0,69,34,0
0,35,108,168
0,42,74,0
0,34,100,4
0,61,92,4
0,65,94,0
0,70,97,0
0,38,101,94
0,46,61,0
0,29,100,2
0,69,32,0
0,61,116,2
0,61,103,32
0,65,91,0
0,70,93,0
0,61,88,20
0,65,90,0
0,70,97,0
0,35,108,0
0,42,79,0
0,34,103,2
0,54,69,0
0,61,97,0
0,65,103,0
0,70,101,0
0,61,94,4
0,65,97,0
0,70,101,0
0,60,98,2
0,69,33,60
0,35,108,16
0,42,73,0
0,34,100,4
0,61,92,0
0,65,97,0
0,70,91,0
0,61,86,4
0,65,97,0
0,70,97,0
0,58,102,8
0,69,30,60
0,72,92,2
0,76,98,0
0,35,108,42
0,42,77,0
0,34,100,0
0,61,92,0
0,65,94,0
0,70,90,0
0,73,86,2
0,77,87,0
0,61,92,2
0,65,99,0
0,70,99,0
0,69,34,66
0,70,105,10
0,35,108,168
0,42,74,0
0,34,100,4
0,61,92,0
0,65,92,0
0,70,96,0
0,61,92,4
0,65,94,0
0,70,97,0
0,38,101,44
0,46,61,0
0,29,100,2
0,69,32,0
0,70,105,4
0,61,103,28
0,65,91,0
0,70,93,0
0,61,88,18
0,65,90,0
0,70,97,0
0,62,82,4
0,35,108,6
0,42,79,0
0,34,103,2
0,54,69,0
0,62,92,0
0,65,92,0
0,70,96,0
0,62,94,4
0,65,97,0
0,70,101,0
0,70,100,4
0,69,33,62
0,35,108,168
0,42,73,0
0,34,100,4
0,62,83,0
0,65,87,0
0,70,79,0
0,62,86,4
0,65,97,0
0,70,97,0
0,69,30,68
0,65,109,2
0,35,108,36
0,42,77,0
0,34,100,4
0,62,79,0
0,65,92,0
0,70,83,0
0,62,92,4
0,65,99,0
0,70,99,0
0,65,109,8
0,69,34,64
0,35,108,168
0,42,74,0
0,34,100,4
0,62,100,0
0,65,96,0
0,70,100,0
0,62,92,4
0,65,94,0
0,70,97,0
0,38,101,10
0,46,61,0
0,38,100,2
0,69,32,0
0,68,114,4
0,58,82,4
0,63,82,0
0,66,82,0
0,35,108,28
0,42,79,0
0,68,114,0
0,39,103,2
0,54,69,0
0,63,79,0
0,66,69,0
0,70,83,0
0,63,94,4
0,66,97,0
0,70,101,0
0,69,33,60
0,35,108,0
0,42,73,0
0,66,99,2
0,39,100,2
0,63,79,0
0,66,79,0
0,70,87,0
0,63,86,4
0,66,97,0
0,70,97,0
0,69,30,60
0,65,97,2
0,69,96,0
0,70,88,0
0,82,102,0
0,35,108,0
0,42,77,0
0,39,100,4
0,63,87,0
0,66,92,0
0,70,92,0
0,66,93,2
0,70,96,0
0,75,88,0
0,87,102,0
0,63,92,2
0,66,99,0
0,70,99,0
0,34,100,2
0,69,34,0
0,66,104,8
0,35,108,48
0,42,74,0
0,39,100,2
0,63,92,4
0,66,94,0
0,70,97,0
0,66,110,6
0,38,101,14
0,46,61,0
0,34,100,2
0,63,91,0
0,65,104,0
0,66,97,0
0,69,32,0
0,70,98,0
0,56,82,4
0,60,82,0
0,63,82,0
0,35,108,16
0,42,79,0
0,32,100,2
0,54,69,0
0,60,85,0
0,63,84,0
0,68,84,0
0,60,94,0
0,63,97,0
0,68,101,0
0,60,97,2
0,63,105,0
0,63,110,0
0,69,33,56
0,65,110,14
0,35,108,94
0,42,73,0
0,32,100,4
0,60,83,0
0,63,85,0
0,68,83,0
0,60,86,4
0,63,97,0
0,68,97,0
0,66,110,2
0,63,102,2
0,66,110,0
0,69,30,20
0,66,97,4
0,70,105,0
0,35,108,2
0,42,77,0
0,32,100,4
0,60,81,0
0,63,87,0
0,68,84,0
0,60,92,4
0,63,99,0
0,68,99,0
0,70,110,0
0,69,34,60
0,35,108,168
0,42,74,0
0,32,100,4
0,60,83,0
0,63,84,0
0,68,85,0
0,60,92,4
0,63,94,0
0,68,97,0
0,65,97,2
0,68,105,0
0,38,101,2
0,46,61,0
0,36,100,2
0,69,32,0
0,68,110,4
0,60,99,34
0,63,99,0
0,68,99,0
0,60,97,40
0,63,106,0
0,68,106,0
0,56,82,0
0,61,82,0
0,65,82,0
0,63,98,2
0,66,106,0
0,35,108,0
0,42,79,0
0,66,95,0
0,37,103,2
0,54,69,0
0,61,86,0
0,65,84,0
0,68,85,0
0,61,88,4
0,65,87,0
0,68,93,0
0,69,33,56
0,61,76,2
0,65,84,0
0,35,108,24
0,42,73,0
0,37,100,4
0,61,92,0
0,65,92,0
0,68,87,0
0,61,89,4
0,65,91,0
0,68,96,0
0,65,92,2
0,69,30,40
0,68,88,2
0,80,102,0
0,35,108,6
0,42,77,0
0,37,103,4
0,61,87,0
0,65,92,0
0,68,92,0
0,73,88,2
0,85,102,0
0,61,93,2
0,65,97,0
0,68,93,0
0,32,100,2
0,69,34,0
0,35,108,110
0,42,74,0
0,37,102,2
0,61,89,0
0,65,92,0
0,68,83,0
0,61,93,4
0,65,97,0
0,65,110,0
0,68,93,0
0,38,101,30
0,46,61,0
0,32,100,2
0,61,91,0
0,65,97,0
0,68,98,0
0,69,32,0
0,65,103,0
0,55,82,4
0,60,82,0
0,64,82,0
