track,note,velocity,time
1,38,65,2416
1,45,83,30
1,38,76,84
1,39,79,4
1,40,88,12
1,35,71,56
1,35,85,26
1,40,83,54
1,33,79,42
1,45,83,14
1,33,74,36
1,32,78,26
1,30,81,32
1,42,83,48
1,42,86,34
1,30,74,24
1,33,78,22
1,35,88,32
1,42,71,56
1,35,83,28
1,40,88,42
1,40,88,56
1,28,60,4
1,32,83,4
1,33,79,4
1,40,83,48
1,28,76,18
1,33,78,32
1,40,90,4
1,28,76,4
1,32,76,12
1,33,82,14
1,40,87,30
1,28,87,84
1,33,92,42
1,40,81,56
1,40,79,122
1,33,78,54
1,32,82,26
1,30,83,32
1,42,87,14
1,40,78,36
1,42,82,26
1,30,85,32
1,42,87,48
1,42,80,130
1,37,85,24
1,42,82,22
1,38,92,32
1,38,81,56
1,33,81,28
1,35,77,4
1,38,87,4
1,38,88,56
1,33,64,4
1,38,87,4
1,40,83,4
1,40,87,48
1,35,78,18
1,37,79,4
1,40,87,4
1,44,87,4
1,42,87,4
1,40,94,4
1,40,86,4
1,40,80,24
1,33,79,24
1,40,87,30
1,28,78,84
1,30,82,26
1,33,82,32
1,40,79,56
1,40,80,122
1,33,78,54
1,32,82,26
1,30,83,32
1,42,87,14
1,40,78,36
1,42,82,26
1,30,85,32
1,42,87,48
1,42,74,130
1,37,88,24
1,42,82,22
1,38,92,32
1,38,75,56
1,33,81,28
1,35,77,4
1,38,92,4
1,38,92,56
1,33,64,4
1,38,87,4
1,40,83,4
1,40,87,48
1,38,86,114
1,35,78,24
1,28,83,24
1,40,88,48
1,40,86,100
1,40,78,24
1,33,84,24
1,40,89,30
1,28,89,84
1,28,89,22
1,33,94,22
1,40,83,54
1,40,81,26
1,33,80,54
1,38,85,26
1,33,89,14
1,33,81,36
1,35,80,54
1,33,84,26
1,38,87,32
1,38,89,48
1,33,87,34
1,38,84,22
1,40,94,32
1,35,83,56
1,35,83,28
1,35,79,4
1,40,89,4
1,40,90,56
1,40,80,4
1,28,66,4
1,32,89,4
1,33,85,4
1,40,89,48
1,28,80,18
1,28,81,4
1,33,85,4
1,40,96,48
1,40,88,4
1,28,82,24
1,33,84,24
1,40,89,30
1,28,89,22
1,28,89,22
1,33,94,22
1,40,83,54
1,40,81,26
1,33,80,54
1,38,85,26
1,45,89,14
1,33,80,36
1,33,84,26
1,38,87,32
1,45,89,48
1,45,84,34
1,38,81,32
1,39,77,22
1,40,88,32
1,40,83,56
1,35,83,28
1,35,79,4
1,28,89,4
1,40,90,56
1,40,80,4
1,40,81,42
1,33,85,24
1,40,89,48
1,28,80,18
1,33,85,26
1,40,96,48
1,40,88,4
1,28,82,28
1,33,85,24
1,40,89,48
1,28,80,18
1,33,85,26
1,42,81,26
1,40,89,6
1,40,79,4
1,37,74,28
1,33,82,24
1,40,87,30
1,28,87,84
1,33,92,42
1,40,81,56
1,40,79,122
1,33,78,54
1,32,82,26
1,30,83,32
1,42,87,14
1,40,78,36
1,42,82,26
1,30,85,32
1,42,87,48
1,42,80,130
1,37,85,24
1,42,82,22
1,38,92,32
1,38,81,56
1,33,81,28
1,35,77,4
1,38,87,4
1,38,88,56
1,33,64,4
1,38,87,4
1,40,83,4
1,40,87,48
1,35,78,18
1,37,79,4
1,40,87,4
1,44,87,4
1,42,87,4
1,40,94,4
1,40,86,4
1,40,80,24
1,33,79,24
1,40,87,30
1,28,78,84
1,30,82,26
1,33,82,32
1,40,79,56
1,40,80,122
1,33,78,54
1,32,82,26
1,30,83,32
1,42,87,14
1,40,78,36
1,42,82,26
1,30,85,32
1,42,87,48
1,42,74,130
1,37,88,24
1,42,82,22
1,38,92,32
1,38,75,56
1,33,81,28
1,35,77,4
1,38,92,4
1,38,92,56
1,33,64,4
1,38,87,4
1,40,83,4
1,40,87,48
1,38,86,114
1,35,78,24
1,28,83,24
1,40,88,48
1,40,86,100
1,40,78,24
1,33,86,24
1,40,91,30
1,28,91,84
1,28,91,22
1,33,96,22
1,40,85,54
1,40,83,26
1,33,82,54
1,38,87,26
1,33,91,14
1,33,83,36
1,35,82,54
1,33,86,26
1,38,89,32
1,38,91,48
1,33,89,34
1,38,86,22
1,40,96,32
1,35,85,56
1,35,85,28
1,35,81,4
1,40,91,4
1,40,92,56
1,40,82,4
1,28,68,4
1,32,91,4
1,33,87,4
1,40,91,48
1,28,82,18
1,28,83,4
1,33,87,4
1,40,98,48
1,40,90,4
1,28,84,24
1,33,86,24
1,40,91,30
1,28,91,22
1,28,91,22
1,33,96,22
1,40,85,54
1,40,83,26
1,33,82,54
1,38,87,26
1,45,91,14
1,33,82,36
1,33,86,26
1,38,89,32
1,45,91,48
1,45,86,34
1,38,83,32
1,39,79,22
1,40,90,32
1,40,85,56
1,35,85,28
1,35,81,4
1,28,91,4
1,40,92,56
1,40,82,4
1,40,83,42
1,33,87,24
1,40,91,48
1,28,82,18
1,33,87,26
1,40,98,48
1,40,90,4
1,28,84,28
1,40,85,24
1,40,90,30
1,35,82,24
1,38,90,22
1,40,90,22
1,38,85,22
1,38,90,30
1,33,82,24
1,35,90,22
1,38,90,22
1,33,86,22
1,40,90,14
1,28,81,36
1,30,85,26
1,33,85,32
1,40,90,30
1,40,82,120
1,33,88,22
1,32,85,22
1,30,85,32
1,42,90,30
1,30,90,24
1,33,90,22
1,35,85,22
1,35,90,30
1,30,90,24
1,35,90,22
1,40,86,22
1,40,90,14
1,37,81,36
1,35,81,26
1,37,85,26
1,40,85,32
1,40,82,22
1,40,88,64
1,33,88,22
1,40,93,30
1,28,93,84
1,28,93,22
1,33,98,22
1,40,87,54
1,40,85,26
1,33,84,54
1,38,89,26
1,33,93,14
1,33,85,36
1,35,84,54
1,33,88,26
1,38,91,32
1,38,93,48
1,33,91,34
1,38,88,22
1,40,98,32
1,35,87,56
1,35,87,28
1,35,83,4
1,40,93,4
1,40,94,56
1,40,84,4
1,28,70,4
1,32,93,4
1,33,89,4
1,40,93,48
1,28,84,18
1,28,85,4
1,33,89,4
1,40,100,48
1,40,92,4
1,28,86,24
1,33,88,24
1,40,93,30
1,28,93,22
1,28,93,22
1,33,98,22
1,40,87,54
1,40,85,26
1,33,84,54
1,38,89,26
1,45,93,14
1,33,84,36
1,33,88,26
1,38,91,32
1,45,93,48
1,45,88,34
1,38,85,32
1,39,81,22
1,40,92,32
1,40,87,56
1,35,87,28
1,35,83,4
1,28,93,4
1,40,94,56
1,40,84,4
1,40,85,42
1,33,89,24
1,40,93,48
1,28,84,18
1,33,89,26
1,40,100,48
1,40,92,4
1,28,86,28
1,40,92,24
1,40,87,56
1,35,87,28
1,35,83,4
1,28,93,4
1,33,93,24
1,33,93,24
1,33,93,24
1,33,93,24
2,57,74,2158
2,62,67,56
2,66,76,42
2,69,79,50
2,57,79,2
2,62,67,2
2,66,82,2
2,62,61,326
2,57,79,152
2,62,70,130
2,56,74,96
2,59,73,44
2,64,76,10
2,68,78,36
2,59,63,2
2,64,79,2
2,68,81,2
2,64,79,92
2,59,70,156
2,64,65,44
2,57,74,14
2,61,73,44
2,64,76,4
2,69,78,54
2,57,75,2
2,61,82,2
2,64,79,2
2,61,79,250
2,57,74,192
2,61,79,136
2,54,74,94
2,57,73,44
2,61,76,2
2,66,78,54
2,57,74,2
2,61,74,20
2,66,72,2
2,61,81,94
2,57,75,12
2,61,75,14
2,54,74,94
2,59,73,44
2,62,76,34
2,66,78,48
2,59,65,2
2,62,72,2
2,66,84,2
2,62,70,312
2,59,75,192
2,62,68,10
2,56,74,94
2,59,73,44
2,64,76,34
2,68,78,48
2,59,77,2
2,64,72,2
2,68,79,2
2,64,68,24
2,59,79,154
2,64,75,14
2,57,74,94
2,61,73,44
2,64,76,6
2,69,78,54
2,61,74,2
2,64,77,2
2,69,79,2
2,64,82,300
2,61,82,84
2,64,77,14
2,57,72,4
2,61,72,192
2,64,79,192
2,69,86,192
2,64,70,96
2,61,75,192
2,64,76,58
2,57,78,2
2,61,71,2
2,64,80,2
2,69,83,18
2,57,83,178
2,61,71,192
2,64,86,192
2,61,65,326
2,57,83,152
2,61,74,130
2,52,71,28
2,57,67,0
2,61,83,192
2,64,85,192
2,61,83,92
2,57,74,156
2,64,69,44
2,54,78,14
2,57,77,44
2,61,80,4
2,66,82,54
2,57,79,2
2,61,86,2
2,66,83,2
2,61,83,252
2,57,78,192
2,61,74,20
2,54,72,192
2,57,78,116
2,61,78,192
2,66,76,192
2,61,85,94
2,57,79,12
2,61,79,14
2,54,78,96
2,57,77,44
2,62,80,34
2,66,82,48
2,57,69,2
2,62,76,2
2,66,88,2
2,62,74,312
2,57,79,192
2,62,72,10
2,54,79,190
2,57,81,108
2,62,76,192
2,66,83,192
2,62,72,14
2,57,83,154
2,62,79,14
2,52,78,96
2,56,77,44
2,59,80,6
2,64,82,54
2,56,78,2
2,59,81,2
2,64,83,2
2,59,78,300
2,56,79,84
2,59,81,14
2,52,76,4
2,56,76,192
2,59,83,192
2,64,90,192
2,59,74,96
2,56,79,192
2,59,80,58
2,57,78,58
2,61,71,56
2,64,80,2
2,69,83,18
2,57,83,2
2,61,71,2
2,64,86,192
2,61,65,326
2,57,83,152
2,61,74,130
2,52,71,28
2,57,67,0
2,61,83,192
2,64,85,192
2,61,83,92
2,57,74,156
2,64,69,44
2,54,78,14
2,57,77,44
2,61,80,4
2,66,82,54
2,57,79,2
2,61,86,2
2,66,83,2
2,61,83,252
2,57,78,192
2,61,74,20
2,54,72,192
2,57,78,116
2,61,78,192
2,66,76,192
2,61,85,94
2,57,79,12
2,61,79,14
2,54,78,96
2,57,77,44
2,62,80,34
2,66,82,48
2,57,69,2
2,62,76,2
2,66,88,2
2,62,74,312
2,57,79,192
2,62,72,10
2,54,79,190
2,57,81,108
2,62,76,192
2,66,83,192
2,62,72,14
2,57,83,154
2,62,79,14
2,56,78,96
2,59,77,44
2,64,80,6
2,68,82,54
2,59,78,2
2,64,81,2
2,68,83,2
2,64,78,300
2,59,79,84
2,64,81,14
2,52,76,4
2,59,76,192
2,64,83,192
2,71,90,192
2,64,74,96
2,59,79,192
2,64,80,58
2,57,80,58
2,61,73,56
2,64,82,2
2,69,85,18
2,57,85,2
2,61,73,2
2,64,88,192
2,61,67,326
2,57,85,152
2,61,76,130
2,52,73,28
2,57,69,0
2,61,85,192
2,64,87,192
2,61,85,92
2,57,76,156
2,64,71,44
2,54,80,14
2,57,79,44
2,62,82,4
2,66,84,54
2,57,81,2
2,62,88,2
2,66,85,2
2,62,85,252
2,57,80,192
2,62,76,20
2,54,74,192
2,57,80,116
2,62,80,192
2,66,78,192
2,62,87,94
2,57,81,12
2,61,81,14
2,52,80,96
2,56,79,44
2,59,82,34
2,64,84,48
2,56,71,2
2,59,78,2
2,64,90,2
2,59,76,312
2,56,81,192
2,59,74,10
2,52,81,190
2,56,83,108
2,59,78,192
2,64,85,192
2,59,74,14
2,56,85,154
2,59,81,14
2,52,80,96
2,57,79,44
2,61,82,6
2,64,84,54
2,57,80,2
2,61,83,2
2,64,85,2
2,61,80,300
2,57,81,84
2,61,83,14
2,52,78,4
2,57,78,192
2,61,85,192
2,64,92,192
2,61,76,96
2,57,81,192
2,61,82,58
2,57,80,2
2,61,73,2
2,64,82,2
2,69,85,18
2,57,85,2
2,61,73,2
2,64,88,192
2,61,67,326
2,57,85,152
2,61,76,130
2,52,73,28
2,57,69,0
2,61,85,192
2,64,87,192
2,61,85,92
2,57,76,156
2,64,71,44
2,54,80,14
2,57,79,44
2,62,82,4
2,66,84,54
2,57,81,2
2,62,88,2
2,66,85,2
2,62,85,252
2,57,80,192
2,62,76,20
2,54,74,192
2,57,80,116
2,62,80,192
2,66,78,192
2,62,87,94
2,57,81,12
2,62,81,14
2,52,80,96
2,56,79,44
2,59,82,34
2,64,84,48
2,56,71,2
2,59,78,2
2,64,90,2
2,59,76,312
2,56,81,192
2,59,74,10
2,52,81,190
2,56,83,108
2,59,78,192
2,64,85,192
2,59,74,14
2,56,85,154
2,59,81,142
2,57,80,58
2,61,73,20
2,64,82,18
2,69,85,50
2,57,85,2
2,61,73,2
2,64,88,2
2,61,67,326
2,57,85,152
2,61,76,130
2,52,73,28
2,57,69,0
2,61,85,192
2,64,87,192
2,61,85,92
2,57,76,156
2,64,71,44
2,57,80,2
2,61,73,32
2,64,82,2
2,69,85,36
2,57,85,178
2,61,73,2
2,64,88,192
2,61,67,326
2,57,85,152
2,61,76,130
2,52,73,28
2,57,69,0
2,61,85,192
2,64,87,192
2,61,85,92
2,57,76,156
2,64,71,44
2,57,78,2
2,61,71,32
2,64,80,2
2,69,83,36
2,57,83,178
2,61,71,2
2,64,86,192
2,61,65,326
2,57,83,152
2,61,74,130
2,52,71,28
2,57,67,0
2,61,83,192
2,64,85,192
2,61,83,92
2,57,74,156
2,64,69,44
2,54,78,14
2,57,77,44
2,61,80,4
2,66,82,54
2,57,79,2
2,61,86,2
2,66,83,2
2,61,83,252
2,57,78,192
2,61,74,20
2,54,72,192
2,57,78,116
2,61,78,192
2,66,76,192
2,61,85,94
2,57,79,12
2,61,79,14
2,54,78,96
2,57,77,44
2,62,80,34
2,66,82,48
2,57,69,2
2,62,76,2
2,66,88,2
2,62,74,312
2,57,79,192
2,62,72,10
2,54,79,190
2,57,81,108
2,62,76,192
2,66,83,192
2,62,72,14
2,57,83,154
2,62,79,14
2,52,78,96
2,56,77,44
2,59,80,6
2,64,82,54
2,56,78,2
2,59,81,2
2,64,83,2
2,59,78,300
2,56,79,84
2,59,81,14
2,52,76,4
2,56,76,192
2,59,83,192
2,64,90,192
2,59,74,96
2,56,79,192
2,59,80,58
2,57,78,58
2,61,71,56
2,64,80,2
2,69,83,18
2,57,83,2
2,61,71,2
2,64,86,192
2,61,65,326
2,57,83,152
2,61,74,130
2,52,71,28
2,57,67,0
2,61,83,192
2,64,85,192
2,61,83,92
2,57,74,156
2,64,69,44
2,54,78,14
2,57,77,44
2,61,80,4
2,66,82,54
2,57,79,2
2,61,86,2
2,66,83,2
2,61,83,252
2,57,78,192
2,61,74,20
2,54,72,192
2,57,78,116
2,61,78,192
2,66,76,192
2,61,85,94
2,57,79,12
2,61,79,14
2,54,78,96
2,57,77,44
2,62,80,34
2,66,82,48
2,57,69,2
2,62,76,2
2,66,88,2
2,62,74,312
2,57,79,192
2,62,72,10
2,54,79,190
2,57,81,108
2,62,76,192
2,66,83,192
2,62,72,14
2,57,83,154
2,62,79,14
2,56,78,96
2,59,77,44
2,64,80,6
2,68,82,54
2,59,78,2
2,64,81,2
2,68,83,2
2,64,78,300
2,59,79,84
2,64,81,14
2,52,76,4
2,59,76,192
2,64,83,192
2,71,90,192
2,64,74,96
2,59,79,192
2,64,80,58
2,57,82,58
2,61,75,56
2,64,84,2
2,69,87,18
2,57,87,2
2,61,75,2
2,64,90,192
2,61,69,326
2,57,87,152
2,61,78,130
2,52,75,28
2,57,71,0
2,61,87,192
2,64,89,192
2,61,87,92
2,57,78,156
2,64,73,44
2,54,82,14
2,57,81,44
2,62,84,4
2,66,86,54
2,57,83,2
2,62,90,2
2,66,87,2
2,62,87,252
2,57,82,192
2,62,78,20
2,54,76,192
2,57,82,116
2,62,82,192
2,66,80,192
2,62,89,94
2,57,83,12
2,61,83,14
2,52,82,96
2,56,81,44
2,59,84,34
2,64,86,48
2,56,73,2
2,59,80,2
2,64,92,2
2,59,78,312
2,56,83,192
2,59,76,10
2,52,83,190
2,56,85,108
2,59,80,192
2,64,87,192
2,59,76,14
2,56,87,154
2,59,83,14
2,52,82,96
2,57,81,44
2,61,84,6
2,64,86,54
2,57,82,2
2,61,85,2
2,64,87,2
2,61,82,300
2,57,83,84
2,61,85,14
2,52,80,4
2,57,80,192
2,61,87,192
2,64,94,192
2,61,78,96
2,57,83,192
2,61,84,58
2,57,82,2
2,61,75,2
2,64,84,2
2,69,87,18
2,57,87,2
2,61,75,2
2,64,90,192
2,61,69,326
2,57,87,152
2,61,78,130
2,52,75,28
