track,note,velocity,time
0,65,108,1768
0,65,120,0
0,77,127,0
0,70,108,34
0,70,120,0
0,82,127,0
0,73,108,116
0,73,120,0
0,85,127,0
0,65,65,110
0,70,65,0
0,73,65,0
0,65,95,0
0,70,95,0
0,73,95,0
0,65,60,0
0,70,60,0
0,73,60,0
0,77,108,0
0,77,120,0
0,89,127,0
0,34,110,0
0,36,127,0
0,42,125,0
0,49,127,0
0,70,125,0
0,42,110,6
0,53,90,46
0,58,90,0
0,61,90,0
0,42,125,0
0,65,95,28
0,70,95,0
0,73,95,0
0,34,110,0
0,42,110,0
0,70,125,0
0,65,95,16
0,70,95,0
0,73,95,0
0,29,110,0
0,36,127,0
0,38,125,0
0,42,125,0
0,70,125,0
0,42,110,12
0,53,90,10
0,58,90,0
0,61,90,0
0,31,110,0
0,42,125,0
0,42,110,26
0,65,95,36
0,70,95,0
0,73,95,0
0,34,110,0
0,36,127,0
0,42,125,0
0,70,125,0
0,65,95,34
0,70,95,0
0,73,95,0
0,42,110,0
0,70,125,0
0,53,90,6
0,58,90,0
0,61,90,0
0,77,108,0
0,77,120,0
0,89,127,0
0,42,125,0
0,65,95,28
0,70,95,0
0,73,95,0
0,34,110,0
0,42,110,0
0,70,125,0
0,65,95,18
0,70,95,0
0,73,95,0
0,75,108,0
0,75,120,0
0,87,127,0
0,29,110,0
0,36,127,0
0,38,125,0
0,42,125,0
0,70,125,0
0,42,110,20
0,53,90,28
0,58,90,0
0,61,90,0
0,65,95,0
0,70,95,0
0,73,95,0
0,73,108,0
0,73,120,0
0,85,127,0
0,31,110,0
0,42,125,0
0,42,110,4
0,65,65,64
0,69,65,0
0,72,65,0
0,65,95,0
0,69,95,0
0,72,95,0
0,65,60,0
0,69,60,0
0,72,60,0
0,72,108,0
0,72,120,0
0,84,127,0
0,41,110,0
0,36,127,0
0,42,125,0
0,70,125,0
0,42,110,40
0,53,90,50
0,57,90,0
0,63,90,0
0,42,125,0
0,65,95,28
0,69,95,0
0,70,95,0
0,72,95,0
0,41,110,0
0,42,110,0
0,70,125,0
0,65,95,18
0,69,95,0
0,72,95,0
0,36,110,0
0,36,127,0
0,38,125,0
0,42,125,0
0,70,125,0
0,42,110,18
0,53,90,16
0,57,90,0
0,63,90,0
0,38,110,0
0,42,125,0
0,42,110,24
0,65,95,34
0,69,95,0
0,70,95,0
0,72,95,0
0,41,110,0
0,36,127,0
0,42,125,0
0,70,125,0
0,65,95,46
0,69,95,0
0,72,95,0
0,42,110,0
0,70,125,0
0,53,90,6
0,57,90,0
0,63,90,0
0,65,108,0
0,65,120,0
0,77,127,0
0,42,125,0
0,65,95,22
0,69,95,0
0,72,95,0
0,41,110,0
0,42,110,0
0,70,125,0
0,65,95,18
0,69,95,0
0,72,95,0
0,66,108,0
0,66,120,0
0,78,127,0
0,36,110,0
0,36,127,0
0,38,125,0
0,42,125,0
0,70,125,0
0,42,110,28
0,53,90,10
0,57,90,0
0,63,90,0
0,65,95,0
0,69,95,0
0,72,95,0
0,65,108,0
0,65,120,0
0,77,127,0
0,38,110,0
0,42,125,0
0,42,110,12
0,75,65,64
0,65,95,0
0,69,95,0
0,72,95,0
0,75,60,0
0,66,108,0
0,66,120,0
0,78,127,0
0,41,110,0
0,36,127,0
0,42,125,0
0,49,127,0
0,70,125,0
0,42,110,32
0,53,90,64
0,57,90,0
0,63,90,0
0,65,108,0
0,65,120,0
0,77,127,0
0,42,125,0
0,65,95,32
0,69,95,0
0,72,95,0
0,41,110,0
0,42,110,0
0,70,125,0
0,65,95,12
0,69,95,0
0,72,95,0
0,36,110,0
0,36,127,0
0,38,125,0
0,42,125,0
0,70,125,0
0,42,110,26
0,53,90,26
0,57,90,0
0,63,90,0
0,38,110,0
0,42,125,0
0,42,110,34
0,65,95,44
0,69,95,0
0,72,95,0
0,41,110,0
0,36,127,0
0,42,125,0
0,70,125,0
0,65,95,46
0,69,95,0
0,72,95,0
0,42,110,0
0,70,125,0
0,53,90,6
0,57,90,0
0,63,90,0
0,65,108,0
0,65,120,0
0,77,127,0
0,42,125,0
0,65,95,28
0,69,95,0
0,70,95,0
0,72,95,0
0,41,110,0
0,42,110,0
0,70,125,0
0,65,95,24
0,69,95,0
0,72,95,0
0,73,108,0
0,73,120,0
0,85,127,0
0,36,110,0
0,36,127,0
0,38,125,0
0,42,125,0
0,70,125,0
0,42,110,0
0,53,90,34
0,57,90,0
0,63,90,0
0,65,95,0
0,69,95,0
0,72,95,0
0,72,108,0
0,72,120,0
0,84,127,0
0,41,110,0
0,42,125,0
0,42,110,28
0,70,65,28
0,73,65,0
0,65,95,0
0,70,95,0
0,73,95,0
0,70,60,0
0,73,60,0
0,70,108,0
0,70,120,0
0,82,127,0
0,34,110,0
0,36,127,0
0,42,125,0
0,70,125,0
0,42,110,18
0,53,90,30
0,58,90,0
0,61,90,0
0,42,125,0
0,65,95,30
0,70,95,0
0,73,95,0
0,34,110,0
0,42,110,0
0,70,125,0
0,65,95,22
0,70,95,0
0,73,95,0
0,29,110,0
0,36,127,0
0,38,125,0
0,42,125,0
0,70,125,0
0,42,110,14
0,53,90,10
0,58,90,0
0,61,90,0
0,31,110,0
0,42,125,0
0,42,110,38
0,65,95,48
0,70,95,0
0,73,95,0
0,34,110,0
0,36,127,0
0,42,125,0
0,70,125,0
0,65,95,46
0,70,95,0
0,73,95,0
0,42,110,0
0,70,125,0
0,53,90,6
0,58,90,0
0,61,90,0
0,65,108,0
0,65,120,0
0,77,127,0
0,42,125,0
0,65,95,36
0,70,95,0
0,73,95,0
0,34,110,0
0,42,110,0
0,70,125,0
0,65,95,16
0,70,95,0
0,73,95,0
0,70,108,0
0,70,120,0
0,82,127,0
0,29,110,0
0,36,127,0
0,38,125,0
0,42,125,0
0,70,125,0
0,42,110,20
0,53,90,8
0,58,90,0
0,61,90,0
0,65,95,0
0,70,95,0
0,73,95,0
0,73,108,0
0,73,120,0
0,85,127,0
0,31,110,0
0,42,125,0
0,42,110,4
0,65,95,38
0,70,95,0
0,73,95,0
0,77,108,0
0,77,120,0
0,89,127,0
0,34,110,0
0,36,127,0
0,42,125,0
0,49,127,0
0,70,125,0
0,42,110,6
0,53,90,24
0,58,90,0
0,61,90,0
0,42,125,0
0,65,95,32
0,70,95,0
0,73,95,0
0,34,110,0
0,42,110,0
0,70,125,0
0,65,95,22
0,70,95,0
0,73,95,0
0,29,110,0
0,36,127,0
0,38,125,0
0,42,125,0
0,70,125,0
0,42,110,6
0,53,90,30
0,58,90,0
0,61,90,0
0,31,110,0
0,42,125,0
0,42,110,30
0,65,95,44
0,70,95,0
0,73,95,0
0,34,110,0
0,36,127,0
0,42,125,0
0,70,125,0
0,65,95,38
0,70,95,0
0,73,95,0
0,42,110,0
0,70,125,0
0,53,90,6
0,58,90,0
0,61,90,0
0,77,108,0
0,77,120,0
0,89,127,0
0,42,125,0
0,65,95,36
0,70,95,0
0,73,95,0
0,34,110,0
0,42,110,0
0,70,125,0
0,65,95,10
0,70,95,0
0,73,95,0
0,75,108,0
0,75,120,0
0,87,127,0
0,29,110,0
0,36,127,0
0,38,125,0
0,42,125,0
0,70,125,0
0,42,110,24
0,53,90,34
0,58,90,0
0,61,90,0
0,65,95,0
0,70,95,0
0,73,95,0
0,73,108,0
0,73,120,0
0,85,127,0
0,31,110,0
0,42,125,0
0,42,110,2
0,65,65,50
0,69,65,0
0,72,65,0
0,65,95,0
0,69,95,0
0,72,95,0
0,65,60,0
0,69,60,0
0,72,60,0
0,72,108,0
0,72,120,0
0,84,127,0
0,41,110,0
0,36,127,0
0,42,125,0
0,70,125,0
0,42,110,28
0,53,90,14
0,57,90,0
0,63,90,0
0,42,125,0
0,65,95,34
0,69,95,0
0,41,110,0
0,42,110,0
0,70,125,0
0,65,95,20
0,69,95,0
0,72,95,0
0,36,110,0
0,36,127,0
0,38,125,0
0,42,125,0
0,70,125,0
0,42,110,2
0,53,90,26
0,57,90,0
0,63,90,0
0,38,110,0
0,42,125,0
0,42,110,28
0,65,95,56
0,69,95,0
0,72,95,0
0,41,110,0
0,36,127,0
0,42,125,0
0,70,125,0
0,65,95,46
0,69,95,0
0,72,95,0
0,42,110,0
0,70,125,0
0,53,90,6
0,57,90,0
0,63,90,0
0,65,108,0
0,65,120,0
0,77,127,0
0,42,125,0
0,65,95,16
0,69,95,0
0,72,95,0
0,41,110,0
0,42,110,0
0,70,125,0
0,65,95,14
0,69,95,0
0,72,95,0
0,66,108,0
0,66,120,0
0,78,127,0
0,36,110,0
0,36,127,0
0,38,125,0
0,42,125,0
0,70,125,0
0,42,110,6
0,53,90,14
0,57,90,0
0,63,90,0
0,65,95,0
0,69,95,0
0,72,95,0
0,65,108,0
0,65,120,0
0,77,127,0
0,38,110,0
0,42,125,0
0,42,110,10
0,65,95,34
0,69,95,0
0,72,95,0
0,66,108,0
0,66,120,0
0,78,127,0
0,41,110,0
0,36,127,0
0,42,125,0
0,70,125,0
0,42,110,6
0,53,90,0
0,57,90,0
0,63,90,0
0,65,108,0
0,65,120,0
0,77,127,0
0,42,125,0
0,65,95,30
0,69,95,0
0,72,95,0
0,41,110,0
0,42,110,0
0,70,125,0
0,65,95,18
0,69,95,0
0,72,95,0
0,36,110,0
0,36,127,0
0,38,125,0
0,42,125,0
0,70,125,0
0,42,110,8
0,53,90,64
0,57,90,0
0,63,90,0
0,38,110,0
0,42,125,0
0,42,110,28
0,75,65,38
0,65,95,0
0,69,95,0
0,72,95,0
0,75,60,0
0,41,110,0
0,36,127,0
0,42,125,0
0,70,125,0
0,65,95,36
0,69,95,0
0,72,95,0
0,42,110,0
0,70,125,0
0,53,90,6
0,57,90,0
0,63,90,0
0,65,108,0
0,65,120,0
0,77,127,0
0,42,125,0
0,65,95,26
0,69,95,0
0,72,95,0
0,41,110,0
0,42,110,0
0,70,125,0
0,65,95,4
0,69,95,0
0,72,95,0
0,73,108,0
0,73,120,0
0,85,127,0
0,36,110,0
0,36,127,0
0,38,125,0
0,42,125,0
0,70,125,0
0,42,110,10
0,53,90,4
0,57,90,0
0,63,90,0
0,65,95,0
0,69,95,0
0,70,95,0
0,72,95,0
0,72,108,0
0,72,120,0
0,84,127,0
0,41,110,0
0,42,125,0
0,42,110,32
0,70,65,2
0,73,65,0
0,65,95,0
0,70,95,0
0,73,95,0
0,70,60,0
0,73,60,0
0,70,108,0
0,70,120,0
0,82,127,0
0,34,110,0
0,36,127,0
0,42,125,0
0,70,125,0
0,42,110,4
0,53,90,30
0,58,90,0
0,61,90,0
0,42,125,0
0,65,95,26
0,70,95,0
0,73,95,0
0,34,110,0
0,42,110,0
0,70,125,0
0,65,95,14
0,70,95,0
0,73,95,0
0,29,110,0
0,36,127,0
0,38,125,0
0,42,125,0
0,70,125,0
0,42,110,12
0,53,90,20
0,58,90,0
0,61,90,0
0,31,110,0
0,42,125,0
0,48,125,0
0,42,110,24
0,48,125,0
0,65,95,28
0,70,95,0
0,73,95,0
0,34,110,0
0,36,127,0
0,42,125,0
0,48,125,0
0,70,125,0
0,65,95,42
0,70,95,0
0,73,95,0
0,42,110,0
0,70,125,0
0,53,90,2
0,58,90,0
0,61,90,0
0,42,125,0
0,45,125,0
0,65,95,30
0,70,95,0
0,73,95,0
0,34,110,0
0,42,110,0
0,70,125,0
0,65,95,8
0,70,95,0
0,73,95,0
0,29,110,0
0,36,127,0
0,38,125,0
0,42,125,0
0,45,125,0
0,70,125,0
0,42,110,18
0,43,125,0
0,53,90,10
0,58,90,0
0,61,90,0
0,65,95,0
0,70,95,0
0,73,95,0
0,31,110,0
0,41,125,0
0,42,125,0
0,42,110,18
0,65,65,2
0,70,65,0
0,73,65,0
0,65,90,0
0,70,90,0
0,73,90,0
0,65,60,0
0,70,60,0
0,73,60,0
0,58,127,0
0,34,110,0
0,36,127,0
0,42,125,0
0,49,127,0
0,70,125,0
0,65,95,114
0,70,95,0
0,73,95,0
0,42,110,0
0,65,90,6
0,70,90,0
0,73,90,0
0,34,110,0
0,70,125,0
0,65,90,4
0,70,90,0
0,73,90,0
0,29,110,0
0,36,127,0
0,38,125,0
0,42,125,0
0,70,125,0
0,65,95,32
0,70,95,0
0,73,95,0
0,31,110,0
0,42,110,0
0,65,90,10
0,70,90,0
0,73,90,0
0,34,110,0
0,36,127,0
0,42,125,0
0,70,125,0
0,65,90,18
0,70,90,0
0,73,90,0
0,70,125,0
0,65,95,16
0,70,95,0
0,73,95,0
0,58,127,0
0,42,110,0
0,65,90,52
0,70,90,0
0,73,90,0
0,34,110,0
0,70,125,0
0,65,90,4
0,70,90,0
0,73,90,0
0,61,127,0
0,29,110,0
0,36,127,0
0,38,125,0
0,42,125,0
0,70,125,0
0,65,95,0
0,70,95,0
0,73,95,0
0,65,127,0
0,34,110,0
0,42,110,0
0,63,65,12
0,66,65,0
0,70,65,0
0,63,60,0
0,66,60,0
0,70,60,0
0,63,90,60
0,66,90,0
0,70,90,0
0,39,110,0
0,36,127,0
0,42,125,0
0,70,125,0
0,63,95,36
0,66,95,0
0,70,95,0
0,63,127,0
0,42,110,0
0,63,90,64
0,66,90,0
0,70,90,0
0,39,110,0
0,70,125,0
0,63,90,14
0,66,90,0
0,70,90,0
0,61,127,0
0,34,110,0
0,36,127,0
0,38,125,0
0,42,125,0
0,70,125,0
0,63,95,4
0,66,95,0
0,70,95,0
0,60,127,0
0,39,110,0
0,42,110,0
0,63,65,6
0,68,65,0
0,72,65,0
0,63,60,0
0,68,60,0
0,72,60,0
0,63,90,68
0,68,90,0
0,72,90,0
0,32,110,0
0,36,127,0
0,42,125,0
0,70,125,0
0,63,90,32
0,68,90,0
0,72,90,0
0,70,125,0
0,63,95,16
0,68,95,0
0,72,95,0
0,61,127,0
0,42,110,0
0,63,90,4
0,68,90,0
0,72,90,0
0,32,110,0
0,70,125,0
0,63,90,6
0,68,90,0
0,72,90,0
0,60,127,0
0,27,110,0
0,36,127,0
0,38,125,0
0,42,125,0
0,70,125,0
0,63,95,24
0,68,95,0
0,72,95,0
0,58,127,0
0,29,110,0
0,44,125,0
0,65,65,0
0,73,65,0
0,65,60,0
0,73,60,0
0,70,65,70
0,65,90,0
0,70,90,0
0,73,90,0
0,70,60,0
0,34,110,0
0,36,127,0
0,42,125,0
0,70,125,0
0,65,95,100
0,70,95,0
0,73,95,0
0,42,110,0
0,65,90,64
0,70,90,0
0,73,90,0
0,34,110,0
0,70,125,0
0,65,90,4
0,70,90,0
0,73,90,0
0,29,110,0
0,36,127,0
0,38,125,0
0,42,125,0
0,70,125,0
0,65,95,16
0,70,95,0
0,73,95,0
0,31,110,0
0,42,110,0
0,65,90,38
0,70,90,0
0,73,90,0
0,34,110,0
0,36,127,0
0,42,125,0
0,70,125,0
0,65,90,12
0,70,90,0
0,73,90,0
0,70,125,0
0,65,95,16
0,70,95,0
0,73,95,0
0,58,127,0
0,42,110,0
0,65,90,64
0,70,90,0
0,73,90,0
0,34,110,0
0,70,125,0
0,65,90,16
0,70,90,0
0,73,90,0
0,61,127,0
0,29,110,0
0,36,127,0
0,38,125,0
0,42,125,0
0,70,125,0
0,65,95,8
0,70,95,0
0,73,95,0
0,65,127,0
0,34,110,0
0,42,110,0
0,63,65,52
0,66,65,0
0,63,90,0
0,66,90,0
0,70,90,0
0,63,60,0
0,66,60,0
0,39,110,0
0,36,127,0
0,42,125,0
0,70,125,0
0,63,95,64
0,66,95,0
0,70,95,0
0,63,127,0
0,42,110,0
0,63,90,64
0,66,90,0
0,70,90,0
0,39,110,0
0,70,125,0
0,63,90,12
0,66,90,0
0,70,90,0
0,61,127,0
0,34,110,0
0,36,127,0
0,38,125,0
0,42,125,0
0,70,125,0
0,63,95,6
0,66,95,0
0,70,95,0
0,60,127,0
0,39,110,0
0,42,110,0
0,63,65,18
0,68,65,0
0,72,65,0
0,63,60,0
0,68,60,0
0,72,60,0
0,63,90,20
0,68,90,0
0,72,90,0
0,32,110,0
0,36,127,0
