track,note,velocity,time
0,68,80,2936
0,56,101,8
0,68,106,4
0,59,43,36
0,57,106,0
0,36,111,0
0,35,93,0
0,51,123,0
0,69,113,0
0,55,124,0
0,69,69,0
0,48,33,0
0,52,43,0
0,72,71,40
0,60,92,12
0,72,113,4
0,51,119,12
0,44,127,0
0,69,72,0
0,57,101,4
0,69,96,0
0,72,87,60
0,51,104,12
0,72,127,0
0,40,71,0
0,60,113,4
0,60,48,24
0,53,52,0
0,50,40,0
0,51,111,4
0,38,111,0
0,74,86,4
0,44,127,4
0,74,115,0
0,51,115,0
0,62,117,4
0,51,84,8
0,76,78,8
0,51,108,0
0,76,127,0
0,64,115,0
0,62,52,0
0,40,119,0
0,55,44,0
0,52,32,0
0,69,69,44
0,69,101,8
0,57,97,4
0,51,117,0
0,44,127,0
0,69,68,128
0,69,123,4
0,40,59,0
0,57,109,0
0,51,88,0
0,50,33,12
0,60,41,0
0,53,43,0
0,51,106,4
0,38,107,0
0,51,117,4
0,44,127,0
0,68,83,20
0,35,49,4
0,35,90,4
0,68,115,0
0,56,115,4
0,48,45,4
0,57,96,0
0,69,104,0
0,36,106,0
0,59,48,0
0,51,113,0
0,69,77,0
0,35,108,0
0,52,48,4
0,72,78,56
0,72,117,4
0,60,113,4
0,57,81,0
0,69,89,0
0,44,127,0
0,51,119,0
0,69,80,0
0,72,83,56
0,60,109,8
0,51,93,4
0,72,127,0
0,53,49,56
0,51,102,0
0,50,32,0
0,60,51,0
0,38,117,4
0,62,111,36
0,74,87,0
0,51,119,0
0,44,127,0
0,74,119,8
0,39,121,140
0,63,112,0
0,51,121,0
0,51,42,0
0,61,43,4
0,75,84,0
0,54,51,0
0,75,127,4
0,68,68,44
0,56,121,8
0,68,121,4
0,51,117,16
0,44,127,0
0,68,63,104
0,51,106,4
0,56,125,4
0,68,127,4
0,54,29,24
0,51,30,0
0,60,37,4
0,51,106,60
0,40,96,0
0,46,119,4
0,44,127,12
0,44,94,0
0,51,123,0
0,39,104,32
0,68,82,56
0,35,57,4
0,51,89,0
0,56,119,4
0,32,108,0
0,68,121,8
0,36,124,8
0,69,77,0
0,35,103,0
0,52,47,0
0,51,121,0
0,57,102,0
0,69,98,0
0,48,37,0
0,59,40,0
0,72,81,36
0,60,109,0
0,72,121,4
0,57,85,16
0,69,83,0
0,69,77,0
0,51,123,4
0,44,127,0
0,72,93,48
0,60,123,8
0,72,127,4
0,51,92,0
0,51,47,24
0,57,49,4
0,47,52,0
0,35,119,4
0,51,115,0
0,74,91,20
0,51,123,4
0,74,111,0
0,44,127,0
0,62,101,4
0,51,82,60
0,50,66,32
0,46,54,0
0,76,96,0
0,35,88,0
0,56,53,0
0,51,119,0
0,34,125,0
0,64,117,8
0,76,119,0
0,75,80,28
0,75,94,0
0,63,94,0
0,74,86,16
0,79,89,0
0,51,123,4
0,62,91,0
0,74,89,0
0,44,127,0
0,79,91,4
0,73,96,0
0,35,105,12
0,73,112,0
0,51,102,0
0,61,123,0
0,40,109,0
0,33,126,4
0,55,49,100
0,51,117,0
0,45,41,0
0,49,51,0
0,40,107,28
0,79,104,28
0,44,127,4
0,51,123,0
0,79,123,4
0,50,57,28
0,77,97,84
0,51,100,4
0,77,127,4
0,47,79,0
0,62,95,28
0,56,106,0
0,35,111,4
0,46,115,0
0,76,107,0
0,62,69,0
0,56,53,0
0,67,55,0
0,76,91,0
0,72,87,12
0,72,82,8
0,46,77,4
0,69,77,12
0,42,80,4
0,69,78,0
0,66,53,0
0,61,69,0
0,55,53,0
0,55,82,4
0,44,127,0
0,61,96,0
0,45,117,4
0,35,78,16
0,72,115,24
0,40,78,4
0,65,58,0
0,54,61,0
0,72,92,0
0,60,75,0
0,54,97,4
0,44,123,0
0,60,86,4
0,53,67,44
0,74,99,0
0,64,67,0
0,59,67,0
0,40,101,8
0,59,95,4
0,53,88,0
0,74,113,0
0,43,117,0
0,52,72,16
0,62,78,0
0,57,65,0
0,72,107,0
0,35,93,8
0,55,127,4
0,57,102,0
0,52,93,0
0,72,123,4
0,36,127,0
0,67,104,228
0,44,127,68
0,67,93,4
0,67,105,100
0,35,46,352
0,35,103,60
0,44,127,80
0,40,127,4
0,68,71,228
0,56,110,0
0,68,123,4
0,31,72,4
0,57,106,8
0,51,123,8
0,69,74,0
0,35,113,0
0,36,107,0
0,59,34,0
0,52,45,0
0,48,26,0
0,69,62,4
0,72,71,32
0,60,107,12
0,72,126,0
0,57,77,4
0,69,58,4
0,69,84,0
0,51,123,4
0,44,127,0
0,72,78,16
0,60,117,8
0,72,127,0
0,51,100,4
0,60,45,52
0,53,49,0
0,51,117,0
0,50,39,0
0,38,92,4
0,74,77,4
0,51,123,4
0,44,127,0
0,74,115,0
0,62,102,0
0,51,84,20
0,40,113,4
0,51,117,0
0,62,39,0
0,76,64,0
0,52,35,0
0,55,45,0
0,76,127,4
0,64,123,0
0,69,66,16
0,57,96,12
0,69,107,0
0,51,117,48
0,44,127,0
0,69,62,116
0,40,46,12
0,51,100,0
0,69,113,4
0,57,111,0
0,50,30,0
0,60,42,0
0,51,117,4
0,53,42,0
0,38,102,0
0,40,78,60
0,51,119,52
0,44,127,0
0,50,42,36
0,47,70,100
0,56,119,4
0,68,84,0
0,51,89,4
0,68,119,0
0,35,37,0
0,57,95,12
0,69,96,0
0,52,50,8
0,35,102,0
0,48,41,0
0,59,48,0
0,36,127,0
0,51,119,0
0,69,73,0
0,72,80,4
0,72,115,12
0,60,119,4
0,69,73,4
0,69,85,4
0,51,117,0
0,57,83,0
0,44,127,0
0,72,97,52
0,60,123,8
0,51,93,4
0,72,123,0
0,53,58,12
0,60,56,0
0,51,121,0
0,50,37,0
0,38,126,4
0,74,88,36
0,44,127,4
0,62,97,0
0,51,121,0
0,74,113,4
0,39,123,12
0,51,90,0
0,54,49,0
0,75,93,0
0,61,43,0
0,51,32,0
0,63,121,4
0,75,123,0
0,68,71,8
0,40,71,8
0,51,123,0
0,68,115,8
0,56,108,4
0,35,57,12
0,68,62,112
0,47,67,8
0,51,117,4
0,68,125,0
0,44,123,4
0,56,117,4
0,51,36,24
0,60,47,0
0,54,37,0
0,50,65,0
0,40,96,28
0,32,123,4
0,44,127,0
0,51,104,12
0,68,75,56
0,40,77,4
0,51,90,0
0,34,110,0
0,68,121,0
0,56,123,4
0,69,72,4
0,51,123,0
0,35,88,0
0,48,39,0
0,59,52,0
0,52,49,0
0,57,93,0
0,36,127,0
0,69,81,0
0,72,87,16
0,60,111,0
0,72,119,4
0,69,74,24
0,51,123,0
0,44,127,0
0,57,84,0
0,69,90,4
0,72,102,44
0,60,123,8
0,51,97,4
0,72,127,0
0,57,56,8
0,47,54,0
0,51,60,4
0,51,123,0
0,35,121,4
0,74,103,20
0,51,123,4
0,74,117,0
0,44,127,0
0,62,113,0
0,50,69,4
0,56,65,0
0,34,123,0
0,51,123,0
0,46,58,0
0,76,99,0
0,76,127,0
0,64,123,8
0,75,78,32
0,75,108,4
0,63,102,4
0,79,90,12
0,74,73,0
0,74,92,0
0,51,123,4
0,44,127,0
0,62,77,4
0,79,99,8
0,73,102,0
0,51,108,12
0,61,119,4
0,33,126,0
0,73,119,4
0,45,54,24
0,55,61,4
0,49,65,0
0,51,113,0
0,40,123,0
0,79,103,4
0,44,127,4
0,79,121,12
0,35,47,12
0,77,98,48
0,77,111,12
0,35,54,0
0,56,104,48
0,62,96,4
0,46,125,0
0,35,114,0
0,67,62,0
0,62,73,0
0,56,53,0
0,76,98,0
0,76,100,0
0,51,98,76
0,72,86,28
0,72,73,12
0,40,58,4
0,69,74,28
0,55,67,4
0,69,90,0
0,66,54,0
0,44,127,0
0,61,69,0
0,51,119,4
0,45,119,0
0,55,89,4
0,61,106,0
0,40,32,8
0,40,70,8
0,72,96,52
0,65,47,0
0,60,73,0
0,54,60,0
0,54,99,4
0,44,127,0
0,72,127,0
0,60,84,4
0,55,122,12
0,59,68,52
0,74,99,0
0,64,56,0
0,53,68,0
0,59,88,8
0,40,101,0
0,53,78,0
0,43,115,0
0,74,106,8
0,44,127,108
0,50,71,0
0,47,64,68
0,62,71,96
0,52,73,0
0,57,65,0
0,72,107,0
0,36,127,12
0,72,127,0
0,55,116,0
0,52,91,4
0,35,120,0
0,57,98,0
0,44,127,308
0,72,62,224
0,69,74,48
0,67,75,60
0,69,87,220
0,72,83,64
0,44,127,4
0,74,91,180
0,62,88,24
0,57,89,0
0,74,86,4
0,69,95,0
0,52,60,4
0,28,123,0
0,62,68,0
0,35,97,0
0,55,118,0
0,57,70,0
0,76,99,12
0,44,127,132
0,51,123,0
0,57,67,0
0,52,56,0
0,62,69,0
0,52,124,0
0,62,71,4
0,57,77,0
0,71,66,44
0,40,57,12
0,51,123,0
0,62,53,0
0,52,52,0
0,56,57,0
0,76,87,0
0,50,83,4
0,68,77,0
0,56,99,4
0,62,72,4
0,47,77,0
0,44,88,40
0,52,56,48
0,56,56,0
0,51,123,0
0,71,85,0
0,62,54,0
0,44,127,4
0,38,82,0
0,56,101,4
0,62,85,0
0,51,123,8
0,40,106,0
0,68,89,0
0,62,88,0
0,62,60,0
0,57,59,0
0,52,56,0
0,74,91,4
0,57,93,0
0,69,84,4
0,71,90,12
0,62,54,16
0,57,58,0
0,52,50,0
0,38,104,4
0,44,127,0
0,51,123,0
0,57,96,4
0,62,86,0
0,76,94,40
0,40,72,12
0,68,86,0
0,52,50,0
0,56,48,0
0,62,50,0
0,51,123,4
0,35,98,4
0,56,94,4
0,62,73,4
0,40,34,40
0,52,58,4
0,62,49,0
0,56,60,4
0,51,123,0
0,32,97,0
0,44,127,0
0,56,117,4
0,62,102,0
0,40,52,0
0,50,55,36
0,47,60,60
0,51,59,92
0,56,54,0
0,61,63,0
0,56,85,0
0,35,52,0
0,51,119,0
0,61,85,0
0,39,115,0
0,73,88,0
0,68,80,0
0,75,102,32
0,56,46,140
0,61,81,0
0,44,127,0
0,51,50,0
0,56,101,0
0,61,51,0
0,51,123,0
0,41,102,4
0,70,74,68
0,51,41,24
0,61,49,0
0,61,72,0
0,51,123,0
0,55,67,0
0,75,88,0
0,67,88,0
0,55,59,0
0,42,102,0
0,55,65,12
0,51,42,0
0,61,48,0
0,70,81,0
0,55,71,4
0,61,73,0
0,43,101,0
0,51,123,0
0,44,127,0
0,61,52,12
0,73,90,0
0,46,110,0
0,51,40,0
0,56,72,0
0,67,84,0
0,68,80,0
0,51,123,0
0,56,59,0
0,61,71,0
0,70,87,36
0,56,53,92
0,51,45,0
0,51,123,0
0,61,75,0
0,61,48,0
0,48,104,4
0,44,127,0
0,56,77,0
0,75,90,60
0,40,71,16
0,61,46,4
0,67,73,0
0,51,37,0
0,55,61,4
0,51,123,0
0,55,65,4
0,61,79,0
0,49,97,0
0,40,97,40
0,55,64,0
0,51,94,0
0,51,50,0
0,51,123,0
0,61,54,0
0,61,101,0
0,55,89,0
0,44,127,0
0,35,40,68
0,51,117,0
0,67,71,76
0,55,65,4
0,50,64,0
0,60,60,0
0,60,73,0
0,51,123,0
0,50,104,0
0,55,69,0
0,72,80,0
0,35,103,0
0,74,107,4
0,55,64,16
0,60,100,0
0,55,102,0
0,60,65,0
0,50,51,0
0,51,123,4
0,44,127,0
0,48,100,0
0,69,76,24
0,66,89,4
0,74,86,4
0,50,42,4
0,51,123,0
0,54,52,0
0,60,55,0
0,45,97,4
0,54,73,4
0,60,66,0
0,60,93,16
0,54,49,0
0,50,41,0
0,69,87,0
0,60,44,0
0,54,101,4
0,44,127,0
0,51,123,0
0,42,92,0
0,60,78,28
0,60,47,0
0,66,87,0
0,55,61,0
0,51,123,0
0,38,93,0
0,67,85,0
0,50,42,0
0,72,93,4
0,55,55,0
0,69,79,16
0,55,58,136
0,60,51,0
0,50,47,4
0,36,109,0
0,51,123,0
0,60,95,0
0,55,96,0
0,44,127,0
0,74,91,64
0,60,51,0
0,54,77,4
0,66,89,0
0,54,48,0
0,50,46,0
0,51,123,0
0,33,109,4
0,60,71,0
0,40,101,24
0,54,68,4
0,60,64,0
0,74,95,0
0,50,43,0
0,54,90,8
0,30,97,0
0,51,123,0
0,44,127,0
0,50,35,4
0,60,91,0
0,50,69,72
0,74,93,4
0,35,52,12
0,47,74,12
0,66,102,20
0,32,127,0
0,72,89,0
0,54,60,4
0,65,69,0
0,51,123,0
0,75,95,0
0,35,104,0
0,60,75,0
0,54,112,4
0,60,95,0
0,75,77,72
0,40,123,12
0,75,90,28
0,35,72,60
0,60,73,24
0,65,65,0
0,75,98,0
0,54,56,0
0,40,58,4
0,44,127,0
0,54,76,48
0,60,76,0
0,65,82,0
0,77,103,0
0,40,101,12
0,74,100,12
0,64,71,4
0,53,73,0
0,59,70,0
0,55,127,8
0,35,124,0
0,53,96,0
0,59,102,0
0,71,91,0
0,65,81,4
0,43,121,0
0,73,72,4
0,50,33,0
0,74,83,16
0,50,109,4
0,79,102,0
0,67,92,0
0,47,127,4
0,59,71,28
0,53,71,0
0,49,68,0
0,35,78,12
0,34,106,4
0,43,72,16
0,37,119,0
0,68,65,40
0,35,57,4
0,68,117,4
0,56,106,4
0,59,40,24
0,35,99,0
0,36,111,0
0,69,104,0
0,69,58,0
0,52,54,0
0,57,92,0
0,51,123,0
0,48,41,4
0,72,45,40
0,72,109,4
0,60,98,4
0,51,123,24
0,57,59,0
0,44,127,0
0,69,41,0
0,69,77,0
0,72,80,52
0,72,121,8
0,51,97,4
0,60,117,4
0,60,40,36
0,50,44,0
0,53,56,0
0,38,98,8
0,51,108,0
0,74,75,4
0,74,113,0
0,51,123,0
0,44,127,0
0,62,102,4
0,76,55,12
0,51,123,0
0,55,39,0
0,76,127,0
0,52,39,0
0,62,50,0
0,40,117,0
0,64,124,0
0,69,65,16
0,69,101,16
0,57,109,0
0,51,123,0
0,44,127,4
0,69,57,124
0,57,117,4
0,69,101,4
0,60,49,4
0,51,123,0
0,50,31,0
0,53,47,0
0,38,95,0
0,40,113,156
0,44,127,44
0,51,123,0
0,68,81,56
0,68,117,4
0,35,44,0
0,51,98,0
0,31,100,4
0,56,117,4
0,69,96,4
0,52,52,8
0,35,92,0
0,57,97,0
0,51,123,0
0,59,53,0
0,36,123,0
0,48,41,0
0,69,72,4
0,72,85,24
0,60,111,4
0,72,109,0
0,69,74,0
0,51,123,0
0,44,127,4
0,57,89,0
0,69,86,4
0,72,87,24
0,72,127,8
0,60,121,4
0,60,60,8
0,50,43,0
0,53,58,0
0,51,123,4
0,38,104,0
0,74,104,0
0,74,85,0
0,44,127,4
0,51,123,0
0,62,102,4
0,54,46,0
0,51,121,0
0,75,78,0
0,39,112,0
0,51,40,0
0,61,50,0
0,75,121,4
0,63,110,0
0,68,77,36
0,68,104,8
0,56,115,4
0,51,123,12
0,44,127,0
0,68,70,36
0,40,73,4
0,51,100,0
0,46,104,4
0,56,115,0
0,68,127,0
0,51,113,28
0,51,30,8
0,54,36,0
0,60,40,0
0,35,59,0
0,44,53,4
0,39,57,32
0,51,123,0
0,44,127,0
0,36,76,72
0,68,80,68
0,51,77,12
0,35,52,0
0,56,121,4
0,68,119,0
0,32,85,0
0,36,124,16
0,35,96,0
0,57,101,0
0,69,75,0
0,52,53,0
0,69,98,0
0,48,41,0
0,51,121,0
0,59,55,0
0,72,95,20
0,60,109,16
0,72,124,0
0,69,83,20
0,57,86,0
0,44,127,4
0,69,70,0
0,51,123,0
0,72,99,44
0,72,127,8
0,60,127,4
0,51,52,48
0,57,55,0
0,47,51,0
0,51,96,4
0,35,123,0
0,74,96,8
0,74,109,4
0,44,127,0
0,62,106,0
0,51,123,0
0,76,99,20
0,51,106,0
0,56,63,0
0,46,61,0
0,34,125,0
0,50,71,0
0,76,124,0
0,64,123,8
0,75,78,12
0,75,108,0
0,63,74,0
0,74,89,12
0,44,127,0
0,74,73,0
0,79,88,0
0,51,123,0
0,62,92,4
0,79,100,4
0,73,99,0
0,73,115,12
0,51,116,0
0,40,98,0
