track,note,velocity,time
1,39,95,1152
1,34,95,28
1,39,100,32
1,34,68,28
1,39,87,36
1,34,89,4
1,39,93,8
1,34,98,8
1,39,85,38
1,34,93,18
1,39,85,38
1,34,85,24
1,43,82,48
1,38,85,8
1,43,87,14
1,38,87,36
1,44,89,36
1,39,93,30
1,41,98,14
1,36,98,16
1,34,87,36
1,29,85,24
1,34,95,16
1,29,102,384
1,43,89,156
1,38,91,18
1,31,93,14
1,38,91,24
1,36,87,80
1,31,82,30
1,36,93,64
1,34,93,52
1,41,87,100
1,36,89,40
1,41,93,70
1,36,89,36
1,44,91,68
1,35,89,8
1,34,100,78
1,41,91,24
1,46,85,22
1,39,85,92
1,34,93,18
1,39,85,38
1,34,85,24
1,43,82,48
1,38,85,8
1,43,87,14
1,38,87,36
1,44,89,36
1,39,93,30
1,41,98,14
1,36,98,16
1,43,100,36
1,38,85,22
1,31,95,56
1,38,100,48
1,36,91,124
1,36,85,82
1,34,91,48
1,34,85,72
1,32,98,70
1,32,98,72
1,41,82,104
1,41,85,74
1,39,87,98
1,36,93,50
1,41,87,56
1,34,91,28
1,39,87,74
1,34,95,50
1,35,102,108
1,35,102,102
1,37,82,34
1,39,100,42
1,40,85,80
1,35,93,18
1,40,85,38
1,35,85,24
1,44,82,48
1,39,85,8
1,44,87,14
1,39,87,36
1,45,89,36
1,40,93,30
1,42,98,14
1,37,98,16
1,35,87,36
1,30,85,24
1,35,95,16
1,30,102,384
1,44,89,156
1,39,91,18
1,32,93,14
1,39,91,24
1,37,87,80
1,32,82,30
1,37,93,64
1,35,93,52
1,42,87,100
1,37,89,40
1,42,93,70
1,37,89,36
1,45,91,68
1,36,89,8
1,35,100,78
1,42,91,24
1,47,85,22
1,40,85,92
1,35,93,18
1,40,85,38
1,35,85,24
1,44,82,48
1,39,85,8
1,44,87,14
1,39,87,36
1,45,89,36
1,40,93,30
1,42,98,14
1,37,98,16
1,44,100,36
1,39,85,22
1,32,95,56
1,39,100,48
1,37,91,124
1,37,85,82
1,35,91,48
1,35,85,72
1,33,98,70
1,33,98,72
1,42,82,104
1,42,85,74
1,40,87,98
1,37,93,50
1,42,87,56
1,35,91,28
1,40,87,74
1,35,95,50
1,40,105,108
1,32,110,24
1,37,91,110
1,37,85,82
1,35,91,48
1,35,85,72
1,33,98,70
1,33,98,72
1,42,82,104
1,42,85,74
1,40,107,98
1,37,107,12
1,42,107,8
1,35,105,20
1,40,105,162
1,35,95,38
1,40,91,18
1,35,102,16
1,40,102,28
2,39,102,1152
2,63,85,192
2,58,74,0
2,67,87,0
2,63,85,34
2,58,70,0
2,67,87,0
2,34,87,28
2,58,59,192
2,67,74,0
2,63,87,0
2,63,89,40
2,58,72,0
2,67,85,0
2,39,82,30
2,63,85,192
2,58,64,0
2,67,85,0
2,58,70,38
2,63,82,0
2,67,85,0
2,34,82,24
2,63,78,192
2,58,68,0
2,67,82,0
2,67,91,40
2,63,89,0
2,58,78,0
2,39,91,40
2,67,87,192
2,63,87,0
2,58,72,0
2,67,87,40
2,58,80,0
2,63,91,0
2,34,72,30
2,58,66,192
2,63,80,0
2,67,82,0
2,67,87,40
2,58,80,0
2,63,95,0
2,39,85,40
2,58,61,192
2,63,82,0
2,67,87,0
2,58,68,42
2,63,87,0
2,67,82,0
2,34,78,38
2,58,59,192
2,63,74,0
2,67,80,0
2,63,87,46
2,58,74,0
2,67,85,0
2,39,89,44
2,67,76,192
2,58,66,0
2,63,80,0
2,63,87,42
2,58,72,0
2,67,91,0
2,34,80,26
2,67,85,192
2,58,74,0
2,63,85,0
2,63,93,40
2,58,78,0
2,67,87,0
2,39,87,32
2,60,91,192
2,58,66,0
2,63,82,0
2,67,87,0
2,60,100,42
2,58,68,0
2,63,82,0
2,67,82,0
2,34,85,22
2,60,102,192
2,58,70,0
2,63,89,0
2,67,85,0
2,60,93,40
2,63,91,0
2,58,80,0
2,67,89,0
2,67,89,234
2,55,85,0
2,58,74,0
2,62,87,0
2,55,93,54
2,58,72,0
2,67,85,0
2,62,80,0
2,58,82,230
2,62,89,0
2,67,91,0
2,55,89,0
2,67,89,54
2,58,80,0
2,62,85,0
2,55,87,0
2,58,70,240
2,55,95,0
2,67,85,0
2,62,87,0
2,58,78,54
2,67,91,0
2,62,87,0
2,55,93,0
2,58,76,238
2,67,89,0
2,62,87,0
2,55,100,0
2,58,68,42
2,67,85,0
2,62,80,0
2,55,89,0
2,60,82,230
2,68,87,0
2,63,102,0
2,63,85,48
2,60,68,0
2,68,80,0
2,63,98,226
2,60,82,0
2,68,89,0
2,60,82,46
2,68,87,0
2,63,93,0
2,65,87,236
2,60,76,0
2,68,93,0
2,65,89,52
2,60,82,0
2,68,85,0
2,65,89,244
2,60,85,0
2,68,89,0
2,60,74,48
2,65,93,0
2,68,91,0
2,58,89,244
2,65,89,0
2,62,87,0
2,62,95,52
2,58,82,0
2,65,93,0
2,58,85,240
2,62,91,0
2,65,91,0
2,65,95,52
2,62,91,0
2,58,85,0
2,58,82,236
2,65,87,0
2,62,89,0
2,62,87,54
2,58,85,0
2,65,89,0
2,58,89,240
2,65,87,0
2,62,98,0
2,58,70,50
2,62,82,0
2,65,91,0
2,59,61,236
2,62,87,0
2,65,89,0
2,59,55,44
2,62,87,0
2,65,87,0
2,59,60,222
2,65,89,0
2,62,89,0
2,59,58,56
2,65,89,0
2,62,89,0
2,59,53,242
2,65,87,0
2,62,87,0
2,59,53,52
2,62,87,0
2,65,87,0
2,59,60,232
2,62,93,0
2,65,91,0
2,59,64,48
2,65,89,0
2,62,93,0
2,60,82,232
2,67,91,0
2,63,95,0
2,60,78,44
2,63,93,0
2,67,91,0
2,63,91,238
2,60,85,0
2,67,82,0
2,60,80,50
2,67,89,0
2,63,95,0
2,60,80,238
2,63,91,0
2,67,89,0
2,60,85,52
2,67,91,0
2,63,93,0
2,58,80,246
2,63,89,0
2,67,91,0
2,63,95,46
2,58,85,0
2,67,93,0
2,57,60,240
2,63,85,0
2,60,85,0
2,65,87,0
2,63,93,36
2,65,68,0
2,57,66,0
2,60,85,0
2,63,85,234
2,65,78,0
2,57,60,0
2,60,85,0
2,63,82,46
2,60,80,0
2,57,64,0
2,65,72,0
2,65,60,242
2,57,60,0
2,63,78,0
2,60,82,0
2,63,87,54
2,57,66,0
2,65,72,0
2,60,82,0
2,65,60,244
2,60,74,0
2,57,63,0
2,63,80,0
2,63,85,54
2,60,80,0
2,57,64,0
2,65,82,0
2,63,91,238
2,56,70,0
2,59,80,0
2,63,93,46
2,56,80,0
2,59,85,0
2,56,82,238
2,63,95,0
2,59,82,0
2,56,76,52
2,59,82,0
2,63,93,0
2,62,82,232
2,65,91,0
2,58,82,0
2,62,87,48
2,65,87,0
2,58,82,0
2,62,91,242
2,58,89,0
2,65,98,0
2,39,89,146
2,67,76,192
2,58,66,0
2,63,80,0
2,63,87,42
2,58,72,0
2,67,91,0
2,34,80,26
2,67,85,192
2,58,74,0
2,63,85,0
2,63,93,40
2,58,78,0
2,67,87,0
2,39,87,32
2,60,91,192
2,58,66,0
2,63,82,0
2,67,87,0
2,60,100,42
2,58,68,0
2,63,82,0
2,67,82,0
2,34,85,22
2,60,102,192
2,58,70,0
2,63,89,0
2,67,85,0
2,60,93,40
2,63,91,0
2,58,80,0
2,67,89,0
2,67,89,234
2,55,85,0
2,58,74,0
2,62,87,0
2,55,93,54
2,58,72,0
2,67,85,0
2,62,80,0
2,58,82,230
2,62,89,0
2,67,91,0
2,55,89,0
2,67,89,54
2,58,80,0
2,62,85,0
2,55,87,0
2,58,70,240
2,55,95,0
2,67,85,0
2,62,87,0
2,58,78,54
2,67,91,0
2,62,87,0
2,55,93,0
2,58,76,238
2,67,89,0
2,62,87,0
2,55,100,0
2,58,68,42
2,67,85,0
2,62,80,0
2,55,89,0
2,60,82,230
2,68,87,0
2,63,102,0
2,63,85,48
2,60,68,0
2,68,80,0
2,63,98,226
2,60,82,0
2,68,89,0
2,60,82,46
2,68,87,0
2,63,93,0
2,65,87,236
2,60,76,0
2,68,93,0
2,65,89,52
2,60,82,0
2,68,85,0
2,65,89,244
2,60,85,0
2,68,89,0
2,60,74,48
2,65,93,0
2,68,91,0
2,59,85,244
2,62,91,0
2,53,87,0
2,62,89,52
2,59,82,0
2,53,74,0
2,53,87,240
2,59,85,0
2,62,89,0
2,53,78,50
2,59,89,0
2,62,89,0
2,53,89,240
2,62,89,0
2,59,85,0
2,53,72,50
2,59,78,0
2,62,89,0
2,53,85,238
2,59,89,0
2,62,98,0
2,63,93,322
2,67,89,0
2,60,85,0
2,63,89,48
2,60,85,0
2,67,89,0
2,67,82,236
2,63,85,0
2,60,89,0
2,63,93,48
2,60,82,0
2,67,87,0
2,63,95,238
2,58,74,0
2,67,87,0
2,63,93,48
2,58,76,0
2,67,89,0
2,67,87,234
2,63,95,0
2,58,80,0
2,58,80,48
2,63,95,0
2,67,89,0
2,56,82,238
2,63,87,0
2,60,91,0
2,63,82,48
2,56,66,0
2,60,87,0
2,63,85,238
2,60,89,0
2,56,80,0
2,60,93,40
2,63,93,0
2,56,70,0
2,57,52,240
2,63,85,0
2,60,80,0
2,65,82,0
2,63,72,40
2,60,72,0
2,57,60,0
2,65,91,0
2,63,89,230
2,60,82,0
2,57,70,0
2,65,82,0
2,63,76,42
2,60,78,0
2,57,64,0
2,65,76,0
2,67,85,232
2,63,89,0
2,58,72,0
2,63,95,48
2,67,89,0
2,58,82,0
2,60,82,232
2,67,87,0
2,63,93,0
2,63,95,46
2,60,85,0
2,67,89,0
2,65,91,236
2,60,80,0
2,68,87,0
2,60,85,36
2,65,100,0
2,68,89,0
2,58,80,236
2,65,89,0
2,62,87,0
2,58,85,48
2,65,89,0
2,62,95,0
2,67,91,240
2,63,95,0
2,58,82,0
2,63,95,50
2,58,87,0
2,67,95,0
2,67,87,238
2,63,98,0
2,58,82,0
2,63,100,52
2,67,93,0
2,58,82,0
2,47,80,54
2,54,89,0
2,59,89,0
2,63,68,80
2,59,89,0
2,47,85,0
2,64,89,8
2,61,80,0
2,66,89,26
2,63,89,0
2,40,89,72
2,68,76,192
2,59,66,0
2,64,80,0
2,64,87,42
2,59,72,0
2,68,91,0
2,35,80,26
2,68,85,192
2,59,74,0
2,64,85,0
2,64,93,40
2,59,78,0
2,68,87,0
2,40,87,32
2,61,91,192
2,59,66,0
2,64,82,0
2,68,87,0
2,61,100,42
2,59,68,0
2,64,82,0
2,68,82,0
2,35,85,22
2,61,102,192
2,59,70,0
2,64,89,0
2,68,85,0
2,61,93,40
2,64,91,0
2,59,80,0
2,68,89,0
2,68,89,234
2,56,85,0
2,59,74,0
2,63,87,0
2,56,93,54
2,59,72,0
2,68,85,0
2,63,80,0
2,59,82,230
2,63,89,0
2,68,91,0
2,56,89,0
2,68,89,54
2,59,80,0
2,63,85,0
2,56,87,0
2,59,70,240
2,56,95,0
2,68,85,0
2,63,87,0
2,59,78,54
2,68,91,0
2,63,87,0
2,56,93,0
2,59,76,238
2,68,89,0
2,63,87,0
2,56,100,0
2,59,68,42
2,68,85,0
2,63,80,0
2,56,89,0
2,61,82,230
2,69,87,0
2,64,102,0
2,64,85,48
2,61,68,0
2,69,80,0
2,64,98,226
2,61,82,0
2,69,89,0
2,61,82,46
2,69,87,0
2,64,93,0
2,66,87,236
2,61,76,0
2,69,93,0
2,66,89,52
2,61,82,0
2,69,85,0
2,66,89,244
2,61,85,0
2,69,89,0
2,61,74,48
2,66,93,0
2,69,91,0
2,59,89,244
2,66,89,0
2,63,87,0
2,63,95,52
2,59,82,0
2,66,93,0
2,59,85,240
2,63,91,0
2,66,91,0
2,66,95,52
2,63,91,0
2,59,85,0
2,59,82,236
2,66,87,0
2,63,89,0
2,63,87,54
2,59,85,0
2,66,89,0
2,59,89,240
2,66,87,0
2,63,98,0
2,59,70,50
2,63,82,0
2,66,91,0
2,60,61,236
2,63,87,0
2,66,89,0
2,60,55,44
2,63,87,0
2,66,87,0
2,60,60,222
2,66,89,0
2,63,89,0
2,60,58,56
2,66,89,0
2,63,89,0
2,60,53,242
2,66,87,0
2,63,87,0
2,60,53,52
2,63,87,0
2,66,87,0
2,60,60,232
2,63,93,0
2,66,91,0
2,60,64,48
2,66,89,0
2,63,93,0
2,61,82,232
2,68,91,0
2,64,95,0
2,61,78,44
2,64,93,0
2,68,91,0
2,64,91,238
2,61,85,0
2,68,82,0
2,61,80,50
2,68,89,0
2,64,95,0
2,61,80,238
2,64,91,0
2,68,89,0
2,61,85,52
2,68,91,0
2,64,93,0
2,59,80,246
2,64,89,0
2,68,91,0
2,64,95,46
2,59,85,0
2,68,93,0
2,58,60,240
2,64,85,0
2,61,85,0
2,66,87,0
2,64,93,36
2,66,68,0
2,58,66,0
2,61,85,0
2,64,85,234
2,66,78,0
2,58,60,0
2,61,85,0
2,64,82,46
2,61,80,0
2,58,64,0
2,66,72,0
2,66,60,242
2,58,60,0
2,64,78,0
2,61,82,0
2,64,87,54
2,58,66,0
2,66,72,0
2,61,82,0
2,66,60,244
2,61,74,0
2,58,63,0
2,64,80,0
2,64,85,54
2,61,80,0
2,58,64,0
2,66,82,0
2,64,91,238
2,57,70,0
2,60,80,0
2,64,93,46
2,57,80,0
2,60,85,0
2,57,82,238
2,64,95,0
2,60,82,0
2,57,76,52
2,60,82,0
2,64,93,0
2,63,82,232
2,66,91,0
2,59,82,0
2,63,87,48
2,66,87,0
2,59,82,0
2,63,91,242
2,59,89,0
2,66,98,0
2,40,89,146
2,68,76,192
2,59,66,0
2,64,80,0
2,64,87,42
2,59,72,0
2,68,91,0
2,35,80,26
2,68,85,192
2,59,74,0
2,64,85,0
2,64,93,40
2,59,78,0
2,68,87,0
2,40,87,32
2,61,91,192
2,59,66,0
2,64,82,0
2,68,87,0
2,61,100,42
2,59,68,0
2,64,82,0
2,68,82,0
2,35,85,22
2,61,102,192
2,59,70,0
2,64,89,0
2,68,85,0
2,61,93,40
2,64,91,0
2,59,80,0
2,68,89,0
2,68,89,234
2,56,85,0
2,59,74,0
2,63,87,0
2,56,93,54
2,59,72,0
2,68,85,0
2,63,80,0
2,59,82,230
2,63,89,0
2,68,91,0
2,56,89,0
2,68,89,54
2,59,80,0
2,63,85,0
2,56,87,0
2,59,70,240
2,56,95,0
2,68,85,0
2,63,87,0
2,59,78,54
2,68,91,0
2,63,87,0
2,56,93,0
2,59,76,238
2,68,89,0
2,63,87,0
2,56,100,0
2,59,68,42
2,68,85,0
2,63,80,0
2,56,89,0
2,61,82,230
2,69,87,0
2,64,102,0
2,64,85,48
2,61,68,0
2,69,80,0
2,64,98,226
2,61,82,0
2,69,89,0
2,61,82,46
2,69,87,0
2,64,93,0
2,66,87,236
2,61,76,0
2,69,93,0
2,66,89,52
2,61,82,0
2,69,85,0
2,66,89,244
2,61,85,0
2,69,89,0
2,61,74,48
2,66,93,0
2,69,91,0
2,60,85,244
2,63,91,0
2,54,87,0
2,63,89,52
2,60,82,0
2,54,74,0
2,54,87,240
2,60,85,0
2,63,89,0
2,54,78,50
2,60,89,0
2,63,89,0
2,54,89,240
2,63,89,0
2,60,85,0
2,54,72,50
2,60,78,0
2,63,89,0
2,54,85,238
2,60,89,0
2,63,98,0
2,64,93,322
2,68,89,0
2,61,85,0
2,64,89,48
2,61,85,0
2,68,89,0
2,68,82,236
2,64,85,0
2,61,89,0
2,64,93,48
2,61,82,0
2,68,87,0
2,64,95,238
2,59,74,0
2,68,87,0
2,64,93,48
2,59,76,0
2,68,89,0
2,68,87,234
2,64,95,0
2,59,80,0
2,59,80,48
2,64,95,0
2,68,89,0
2,57,82,238
2,64,87,0
2,61,91,0
2,64,82,48
2,57,66,0
2,61,87,0
2,64,85,238
2,61,89,0
2,57,80,0
2,61,93,40
2,64,93,0
2,57,70,0
2,58,52,240
2,64,85,0
2,61,80,0
2,66,82,0
2,64,72,40
2,61,72,0
2,58,60,0
2,66,91,0
2,64,89,230
