track,note,velocity,time
4,24,127,480
4,24,0,140
4,24,127,40
4,24,0,90
4,24,127,30
4,24,0,105
4,24,127,15
4,24,0,40
4,31,127,20
4,31,0,145
4,31,127,35
4,31,0,195
4,31,127,45
4,31,0,45
4,35,127,15
4,35,0,140
4,35,127,40
4,35,0,205
4,35,127,35
4,35,0,45
4,28,127,15
4,28,0,145
4,28,127,35
4,28,0,80
4,28,127,40
4,28,0,60
4,35,127,0
4,35,0,45
4,28,127,15
4,28,0,45
4,36,127,15
4,36,0,140
4,36,127,40
4,36,0,85
4,36,127,35
4,36,0,85
4,36,127,35
4,36,0,45
4,38,127,15
4,38,0,140
4,38,127,40
4,38,0,195
4,38,127,45
4,38,0,50
4,31,127,10
4,31,0,145
4,31,127,35
4,31,0,205
4,38,127,35
4,38,0,60
4,31,127,0
4,31,0,150
4,31,127,30
4,31,0,205
4,38,127,35
4,38,0,55
4,31,127,5
4,31,0,145
4,31,127,35
4,31,0,205
4,31,127,35
4,31,0,50
4,36,127,10
4,36,0,155
4,36,127,25
4,36,0,195
4,36,127,45
4,36,0,55
4,31,127,5
4,31,0,145
4,31,127,35
4,31,0,155
4,31,127,25
4,31,0,105
4,36,127,15
4,36,0,130
4,36,127,50
4,36,0,55
4,38,127,5
4,38,0,150
4,38,127,30
4,38,0,50
4,31,127,10
4,31,0,140
4,31,127,40
4,31,0,205
4,31,127,35
4,31,0,45
4,36,127,15
4,36,0,145
4,36,127,35
4,36,0,200
4,36,127,40
4,36,0,50
4,38,127,10
4,38,0,145
4,38,127,35
4,38,0,200
4,38,127,40
4,38,0,50
4,30,127,10
4,30,0,145
4,30,127,35
4,30,0,200
4,30,127,40
4,30,0,45
4,36,127,15
4,36,0,145
4,36,127,35
4,36,0,210
4,36,127,30
4,36,0,50
4,31,127,10
4,31,0,160
4,38,127,20
4,38,0,160
4,31,127,20
4,31,0,50
4,38,127,10
4,38,0,45
4,35,127,15
4,35,0,150
4,35,127,30
4,35,0,90
4,35,127,30
4,35,0,95
4,35,127,25
4,35,0,50
4,28,127,10
4,28,0,150
4,28,127,30
4,28,0,165
4,35,127,15
4,35,0,60
4,28,127,0
4,28,0,40
4,36,127,20
4,36,0,130
4,36,127,50
4,36,0,200
4,36,127,40
4,36,0,55
4,33,127,5
4,33,0,155
4,40,127,25
4,40,0,160
4,33,127,20
4,33,0,40
4,40,127,20
4,40,0,40
4,38,127,20
4,38,0,150
4,38,127,30
4,38,0,210
4,33,127,30
4,33,0,50
4,38,127,10
4,38,0,155
4,38,127,25
4,38,0,145
4,33,127,35
4,33,0,50
4,38,127,10
4,38,0,25
4,31,127,35
4,31,0,145
4,31,127,35
4,31,0,205
4,31,127,35
4,31,0,50
4,36,127,10
4,36,0,155
4,36,127,25
4,36,0,195
4,36,127,45
4,36,0,55
4,31,127,5
4,31,0,145
4,31,127,35
4,31,0,155
4,31,127,25
4,31,0,105
4,36,127,15
4,36,0,130
4,36,127,50
4,36,0,55
4,38,127,5
4,38,0,150
4,38,127,30
4,38,0,50
4,31,127,10
4,31,0,140
4,31,127,40
4,31,0,205
4,31,127,35
4,31,0,45
4,36,127,15
4,36,0,145
4,36,127,35
4,36,0,200
4,36,127,40
4,36,0,50
4,38,127,10
4,38,0,145
4,38,127,35
4,38,0,200
4,38,127,40
4,38,0,50
4,30,127,10
4,30,0,145
4,30,127,35
4,30,0,200
4,30,127,40
4,30,0,45
4,36,127,15
4,36,0,145
4,36,127,35
4,36,0,210
4,36,127,30
4,36,0,50
4,31,127,10
4,31,0,160
4,38,127,20
4,38,0,160
4,31,127,20
4,31,0,50
4,38,127,10
4,38,0,45
4,35,127,15
4,35,0,150
4,35,127,30
4,35,0,90
4,35,127,30
4,35,0,95
4,35,127,25
4,35,0,50
4,28,127,10
4,28,0,150
4,28,127,30
4,28,0,165
4,35,127,15
4,35,0,60
4,28,127,0
4,28,0,40
4,36,127,20
4,36,0,130
4,36,127,50
4,36,0,200
4,36,127,40
4,36,0,55
4,30,127,5
4,30,0,145
4,30,127,35
4,30,0,200
4,30,127,40
4,30,0,45
4,31,127,15
4,31,0,145
4,31,127,35
4,31,0,205
4,38,127,35
4,38,0,60
4,31,127,0
4,31,0,150
4,31,127,30
4,31,0,205
4,38,127,35
4,38,0,55
4,38,127,5
4,38,0,155
4,33,127,25
4,33,0,160
4,38,127,20
4,38,0,60
4,33,127,0
4,33,0,55
4,36,127,5
4,36,0,170
4,31,127,10
4,31,0,160
4,36,127,20
4,36,0,55
4,38,127,5
4,31,127,60
4,38,0,5
4,31,0,165
4,38,127,10
4,38,0,155
4,38,127,25
4,38,0,15
4,38,127,45
4,38,0,55
4,31,127,5
4,31,0,155
4,35,127,25
4,35,0,165
4,31,127,15
4,31,0,120
4,38,127,0
4,38,0,175
4,33,127,5
4,33,0,165
4,38,127,15
4,38,0,60
4,33,127,0
4,33,0,55
4,36,127,5
4,36,0,175
4,31,127,5
4,31,0,180
4,36,127,0
4,36,0,55
4,38,127,5
4,38,0,60
4,31,127,0
4,31,0,160
4,31,127,20
4,31,0,170
4,38,127,10
4,38,0,20
4,38,127,40
4,38,0,50
4,31,127,10
4,31,0,145
4,31,127,35
4,31,0,110
4,38,127,10
4,38,0,40
4,31,127,20
4,31,0,85
4,38,127,35
4,38,0,155
4,33,127,25
4,33,0,160
4,38,127,20
4,38,0,60
4,33,127,0
4,33,0,55
4,36,127,5
4,36,0,170
4,31,127,10
4,31,0,160
4,36,127,20
4,36,0,55
4,38,127,5
4,31,127,60
4,38,0,5
4,31,0,165
4,38,127,10
4,38,0,155
4,38,127,25
4,38,0,15
4,38,127,45
4,38,0,55
4,31,127,5
4,31,0,155
4,35,127,25
4,35,0,165
4,31,127,15
4,31,0,120
4,38,127,0
4,38,0,175
4,33,127,5
4,33,0,165
4,38,127,15
4,38,0,60
4,33,127,0
4,33,0,55
4,36,127,5
4,36,0,175
4,31,127,5
4,31,0,180
4,36,127,0
4,36,0,55
4,38,127,5
4,38,0,60
4,31,127,0
4,31,0,160
4,31,127,20
4,31,0,170
4,38,127,10
4,38,0,20
4,38,127,40
4,38,0,50
4,31,127,10
4,31,0,145
4,31,127,35
4,31,0,110
4,38,127,10
4,38,0,40
4,31,127,20
4,31,0,85
4,36,127,35
4,36,0,140
4,36,127,40
4,36,0,85
4,36,127,35
4,36,0,85
4,36,127,35
4,36,0,45
4,38,127,15
4,38,0,140
4,38,127,40
4,38,0,195
4,38,127,45
4,38,0,50
4,31,127,10
4,31,0,145
4,31,127,35
4,31,0,205
4,38,127,35
4,38,0,60
4,31,127,0
4,31,0,150
4,31,127,30
4,31,0,205
4,38,127,35
4,38,0,55
4,31,127,5
4,31,0,145
4,31,127,35
4,31,0,205
4,31,127,35
4,31,0,50
4,36,127,10
4,36,0,155
4,36,127,25
4,36,0,195
4,36,127,45
4,36,0,55
4,31,127,5
4,31,0,145
4,31,127,35
4,31,0,155
4,31,127,25
4,31,0,105
4,36,127,15
4,36,0,130
4,36,127,50
4,36,0,55
4,38,127,5
4,38,0,150
4,38,127,30
4,38,0,50
4,31,127,10
4,31,0,140
4,31,127,40
4,31,0,205
4,31,127,35
4,31,0,45
4,36,127,15
4,36,0,145
4,36,127,35
4,36,0,200
4,36,127,40
4,36,0,50
4,38,127,10
4,38,0,145
4,38,127,35
4,38,0,200
4,38,127,40
4,38,0,50
4,30,127,10
4,30,0,145
4,30,127,35
4,30,0,200
4,30,127,40
4,30,0,45
4,36,127,15
4,36,0,145
4,36,127,35
4,36,0,210
4,36,127,30
4,36,0,50
4,31,127,10
4,31,0,160
4,38,127,20
4,38,0,160
4,31,127,20
4,31,0,50
4,38,127,10
4,38,0,45
4,35,127,15
4,35,0,150
4,35,127,30
4,35,0,90
4,35,127,30
4,35,0,95
4,35,127,25
4,35,0,50
4,28,127,10
4,28,0,150
4,28,127,30
4,28,0,165
4,35,127,15
4,35,0,60
4,28,127,0
4,28,0,40
4,36,127,20
4,36,0,130
4,36,127,50
4,36,0,200
4,36,127,40
4,36,0,55
4,30,127,5
4,30,0,145
4,30,127,35
4,30,0,200
4,30,127,40
4,30,0,45
4,31,127,15
4,31,0,145
4,31,127,35
4,31,0,205
4,38,127,35
4,38,0,60
4,31,127,0
4,31,0,150
4,31,127,30
4,31,0,205
4,38,127,35
4,38,0,55
4,38,127,5
4,38,0,155
4,33,127,25
4,33,0,160
4,38,127,20
4,38,0,60
4,33,127,0
4,33,0,55
4,36,127,5
4,36,0,170
4,31,127,10
4,31,0,160
4,36,127,20
4,36,0,55
4,38,127,5
4,31,127,60
4,38,0,5
4,31,0,165
4,38,127,10
4,38,0,155
4,38,127,25
4,38,0,15
4,38,127,45
4,38,0,55
4,31,127,5
4,31,0,155
4,35,127,25
4,35,0,165
4,31,127,15
4,31,0,120
4,38,127,0
4,38,0,175
4,33,127,5
4,33,0,165
4,38,127,15
4,38,0,60
4,33,127,0
4,33,0,55
4,36,127,5
4,36,0,175
4,31,127,5
4,31,0,180
4,36,127,0
4,36,0,55
4,38,127,5
4,38,0,60
4,31,127,0
4,31,0,160
4,31,127,20
4,31,0,170
4,38,127,10
4,38,0,20
4,38,127,40
4,38,0,50
4,31,127,10
4,31,0,145
4,31,127,35
4,31,0,110
4,38,127,10
4,38,0,40
4,31,127,20
4,31,0,85
4,38,127,35
4,38,0,155
4,33,127,25
4,33,0,160
4,38,127,20
4,38,0,60
4,33,127,0
4,33,0,55
4,36,127,5
4,36,0,170
4,31,127,10
4,31,0,160
4,36,127,20
4,36,0,55
4,38,127,5
4,31,127,60
4,38,0,5
4,31,0,165
4,38,127,10
4,38,0,155
4,38,127,25
4,38,0,15
4,38,127,45
4,38,0,55
4,31,127,5
4,31,0,155
4,35,127,25
4,35,0,165
4,31,127,15
4,31,0,120
4,38,127,0
4,38,0,175
4,33,127,5
4,33,0,165
4,38,127,15
4,38,0,60
4,33,127,0
4,33,0,55
4,36,127,5
4,36,0,175
4,31,127,5
4,31,0,180
4,36,127,0
4,36,0,55
4,38,127,5
4,38,0,60
4,31,127,0
4,31,0,160
4,31,127,20
4,31,0,170
4,38,127,10
4,38,0,20
4,38,127,40
4,38,0,50
4,31,127,10
4,31,0,145
4,31,127,35
4,31,0,110
4,38,127,10
4,38,0,40
4,31,127,20
4,31,0,85
4,38,127,35
4,38,0,155
4,33,127,25
4,33,0,160
4,38,127,20
4,38,0,60
4,33,127,0
4,33,0,55
4,36,127,5
4,36,0,170
4,31,127,10
4,31,0,160
4,36,127,20
4,36,0,55
4,38,127,5
4,31,127,60
4,38,0,5
4,31,0,165
4,38,127,10
4,38,0,155
4,38,127,25
4,38,0,15
4,38,127,45
4,38,0,55
4,31,127,5
4,31,0,155
4,35,127,25
4,35,0,165
4,31,127,15
4,31,0,120
4,38,127,0
4,38,0,175
4,33,127,5
4,33,0,165
4,38,127,15
4,38,0,60
4,33,127,0
4,33,0,55
4,36,127,5
4,36,0,175
4,31,127,5
4,31,0,180
4,36,127,0
4,36,0,55
4,38,127,5
4,38,0,60
4,31,127,0
4,31,0,160
4,31,127,20
4,31,0,170
4,38,127,10
4,38,0,20
4,38,127,40
4,38,0,50
4,31,127,10
4,31,0,145
4,31,127,35
4,31,0,110
4,38,127,10
4,38,0,40
4,31,127,20
4,31,0,85
4,38,127,35
4,38,0,155
4,33,127,25
4,33,0,160
4,38,127,20
4,38,0,60
4,33,127,0
4,33,0,55
4,36,127,5
4,36,0,170
4,31,127,10
4,31,0,160
4,36,127,20
4,36,0,55
4,38,127,5
4,31,127,60
4,38,0,5
4,31,0,165
4,38,127,10
4,38,0,155
4,38,127,25
4,38,0,15
4,38,127,45
4,38,0,55
4,31,127,5
4,31,0,155
4,35,127,25
4,35,0,165
4,31,127,15
4,31,0,120
4,38,127,0
4,38,0,175
4,33,127,5
4,33,0,165
4,38,127,15
4,38,0,60
4,33,127,0
4,33,0,55
4,36,127,5
4,36,0,175
4,31,127,5
4,31,0,180
4,36,127,0
4,36,0,55
4,38,127,5
4,38,0,60
4,31,127,0
4,31,0,160
4,31,127,20
4,31,0,170
4,38,127,10
4,38,0,20
4,38,127,40
4,38,0,50
4,31,127,10
4,31,0,145
4,31,127,35
4,31,0,110
4,38,127,10
4,38,0,40
4,31,127,20
4,31,0,85
4,31,127,35
4,31,0,145
4,31,127,35
4,31,0,205
4,31,127,35
4,31,0,50
4,36,127,10
4,36,0,155
4,36,127,25
4,36,0,195
4,36,127,45
4,36,0,55
4,31,127,5
4,31,0,145
4,31,127,35
4,31,0,205
4,31,127,35
4,31,0,535
5,64,127,480
5,55,127,0
5,60,127,0
5,36,127,0
5,48,127,0
5,55,0,90
5,55,127,30
5,60,0,15
5,64,0,45
5,60,127,0
5,36,0,15
5,48,0,15
5,36,127,30
5,55,0,35
5,60,0,0
5,64,127,25
5,60,127,0
5,55,127,0
5,36,0,35
5,55,0,60
5,55,127,25
5,60,0,55
5,55,0,5
5,64,0,0
5,43,127,0
5,55,127,60
5,59,127,60
5,55,0,15
5,59,0,20
5,59,127,25
5,62,127,0
5,55,127,0
5,43,0,65
5,43,127,55
5,55,0,20
5,59,0,10
5,62,0,5
5,62,127,25
5,59,127,0
5,55,127,0
5,43,0,25
5,55,0,50
5,59,0,15
5,64,127,0
5,62,0,5
5,47,127,25
5,64,0,5
5,59,127,55
5,59,0,55
5,63,127,5
5,47,0,40
5,63,0,10
5,47,127,10
5,63,127,60
5,66,127,0
5,59,127,0
5,59,0,90
5,66,0,5
5,63,0,5
5,66,127,20
5,63,127,0
5,59,127,0
5,47,0,35
5,63,0,30
5,66,0,30
5,59,0,0
5,40,127,25
5,52,127,60
5,52,0,85
5,59,127,35
5,55,127,0
5,52,127,0
5,40,0,25
5,40,127,95
5,52,0,25
5,59,0,5
5,55,0,5
5,55,127,25
5,59,127,0
5,52,127,0
5,40,0,10
5,52,0,35
5,55,0,15
5,59,0,30
5,48,127,30
5,55,127,60
5,60,127,0
5,60,0,5
5,55,0,25
5,64,127,30
5,55,127,0
5,60,127,0
5,48,0,30
5,48,127,30
5,60,0,10
5,55,0,0
5,64,0,10
5,64,127,40
5,60,127,0
5,55,127,0
5,55,0,30
5,60,0,30
5,55,127,0
5,55,0,35
5,64,0,0
5,60,127,25
5,55,127,0
5,55,0,30
5,48,0,10
5,64,127,20
5,60,0,30
5,64,0,30
5,50,127,0
5,66,127,60
5,62,127,0
5,57,127,0
5,57,0,20
5,62,0,0
5,66,0,10
5,66,127,90
5,57,127,0
5,62,127,0
5,50,0,85
5,50,127,35
5,66,0,20
5,57,0,0
5,62,0,5
5,66,127,35
5,57,127,0
5,62,127,0
5,57,0,95
5,62,0,5
5,50,0,5
5,66,0,10
5,43,127,5
5,62,127,180
5,59,127,0
5,55,127,0
5,43,0,90
5,43,127,30
5,59,0,5
5,55,0,15
5,62,0,0
5,62,127,40
5,60,127,0
5,55,127,0
5,43,0,35
5,60,0,15
5,55,0,10
5,43,127,0
5,62,0,15
5,59,127,45
5,62,127,0
5,55,127,0
5,55,0,60
5,59,0,30
5,62,0,5
5,55,127,25
5,55,0,30
5,59,127,30
5,62,127,0
5,55,127,0
5,43,0,45
5,43,127,75
5,55,0,5
5,59,0,20
5,55,127,35
5,62,0,25
5,59,127,35
5,59,0,20
5,55,0,0
5,43,0,20
5,43,127,20
5,59,127,0
5,62,127,0
5,55,127,0
5,55,0,90
5,55,127,30
5,59,0,20
5,62,0,5
5,55,0,10
5,59,127,25
5,62,127,0
5,55,127,0
5,43,0,85
5,43,127,35
5,59,0,40
5,62,0,50
5,62,127,30
5,59,127,0
5,59,0,25
5,62,0,0
5,55,0,10
5,43,0,15
5,48,127,10
5,64,127,0
5,55,127,0
5,60,127,0
5,55,0,90
5,64,0,0
5,60,0,5
5,64,127,25
5,60,127,0
5,55,127,0
5,48,0,30
5,48,127,30
5,55,0,75
5,55,127,45
5,60,0,10
5,60,127,50
5,64,0,10
5,64,127,50
