track,note,velocity,time
1,37,92,5368
1,56,104,0
1,61,104,0
1,53,99,0
1,37,84,112
1,61,100,32
1,58,100,0
1,54,86,0
1,39,100,0
1,39,96,76
1,61,104,42
1,53,92,0
1,56,104,0
1,41,110,0
1,41,90,86
1,54,81,36
1,61,96,0
1,58,104,0
1,42,96,0
1,54,92,62
1,58,104,0
1,61,109,0
1,42,109,0
1,42,89,72
1,42,104,60
1,58,104,0
1,61,114,0
1,54,86,0
1,58,109,58
1,61,109,0
1,54,89,0
1,42,100,122
1,58,109,44
1,44,109,0
1,61,109,0
1,56,92,0
1,44,92,6
1,63,109,96
1,56,96,0
1,60,107,0
1,58,96,60
1,61,114,0
1,56,86,0
1,63,104,70
1,60,104,0
1,56,92,0
1,44,100,6
1,53,94,96
1,37,86,0
1,61,104,0
1,56,100,0
1,61,109,30
1,54,92,0
1,58,100,0
1,39,96,0
1,53,92,24
1,56,104,0
1,61,104,0
1,41,107,0
1,41,94,16
1,54,89,44
1,61,109,0
1,58,96,0
1,42,100,0
1,54,79,56
1,58,100,0
1,61,109,0
1,42,104,0
1,42,62,72
1,61,114,60
1,54,89,0
1,58,104,0
1,42,104,0
1,54,92,56
1,61,114,0
1,58,109,0
1,42,96,126
1,61,114,48
1,56,96,0
1,58,114,0
1,44,104,0
1,44,96,0
1,63,114,96
1,56,96,0
1,60,104,0
1,63,109,62
1,56,92,0
1,60,107,0
1,44,73,4
1,37,92,50
1,56,104,0
1,61,104,0
1,53,99,0
1,37,84,112
1,61,100,32
1,58,100,0
1,54,86,0
1,39,100,0
1,39,96,76
1,61,104,42
1,53,92,0
1,56,104,0
1,41,110,0
1,41,90,86
1,54,81,36
1,61,96,0
1,58,104,0
1,42,96,0
1,54,92,62
1,58,104,0
1,61,109,0
1,42,109,0
1,42,89,72
1,42,104,60
1,58,104,0
1,61,114,0
1,54,86,0
1,58,109,58
1,61,109,0
1,54,89,0
1,42,100,122
1,58,109,44
1,44,109,0
1,61,109,0
1,56,92,0
1,44,92,6
1,63,109,96
1,56,96,0
1,60,107,0
1,58,96,60
1,61,114,0
1,56,86,0
1,63,104,70
1,60,104,0
1,56,92,0
1,44,100,6
1,53,94,96
1,37,86,0
1,61,104,0
1,56,100,0
1,61,109,30
1,54,92,0
1,58,100,0
1,39,96,0
1,53,92,24
1,56,104,0
1,61,104,0
1,41,107,0
1,41,94,16
1,54,89,44
1,61,109,0
1,58,96,0
1,42,100,0
1,54,79,56
1,58,100,0
1,61,109,0
1,42,104,0
1,42,62,72
1,61,114,60
1,54,89,0
1,58,104,0
1,42,104,0
1,54,92,56
1,61,114,0
1,58,109,0
1,42,96,126
1,61,114,48
1,56,96,0
1,58,114,0
1,44,104,0
1,44,96,0
1,63,114,96
1,56,96,0
1,60,104,0
1,63,109,62
1,56,92,0
1,60,107,0
1,44,73,4
1,37,92,50
1,56,104,0
1,61,104,0
1,53,99,0
1,37,84,112
1,61,100,32
1,58,100,0
1,54,86,0
1,39,100,0
1,39,96,76
1,61,104,42
1,53,92,0
1,56,104,0
1,41,110,0
1,41,90,86
1,54,81,36
1,61,96,0
1,58,104,0
1,42,96,0
1,54,92,62
1,58,104,0
1,61,109,0
1,42,109,0
1,42,89,72
1,42,104,60
1,58,104,0
1,61,114,0
1,54,86,0
1,58,109,58
1,61,109,0
1,54,89,0
1,42,100,122
1,58,109,44
1,44,109,0
1,61,109,0
1,56,92,0
1,44,92,6
1,63,109,96
1,56,96,0
1,60,107,0
1,58,96,60
1,61,114,0
1,56,86,0
1,63,104,70
1,60,104,0
1,56,92,0
1,44,100,6
1,53,94,96
1,37,86,0
1,61,104,0
1,56,100,0
1,61,109,30
1,54,92,0
1,58,100,0
1,39,96,0
1,53,92,24
1,56,104,0
1,61,104,0
1,41,107,0
1,41,94,16
1,54,89,44
1,61,109,0
1,58,96,0
1,42,100,0
1,54,79,56
1,58,100,0
1,61,109,0
1,42,104,0
1,42,62,72
1,61,114,60
1,54,89,0
1,58,104,0
1,42,104,0
1,54,92,56
1,61,114,0
1,58,109,0
1,42,96,126
1,61,114,48
1,56,96,0
1,58,114,0
1,44,104,0
1,44,96,0
1,63,114,96
1,56,96,0
1,60,104,0
1,63,109,62
1,56,92,0
1,60,107,0
1,44,73,4
1,37,92,50
1,56,104,0
1,61,104,0
1,53,99,0
1,37,84,112
1,61,100,32
1,58,100,0
1,54,86,0
1,39,100,0
1,39,96,76
1,61,104,42
1,53,92,0
1,56,104,0
1,41,110,0
1,41,90,86
1,54,81,36
1,61,96,0
1,58,104,0
1,42,96,0
1,54,92,62
1,58,104,0
1,61,109,0
1,42,109,0
1,42,89,72
1,42,104,60
1,58,104,0
1,61,114,0
1,54,86,0
1,58,109,58
1,61,109,0
1,54,89,0
1,42,100,122
1,58,109,44
1,44,109,0
1,61,109,0
1,56,92,0
1,44,92,6
1,63,109,96
1,56,96,0
1,60,107,0
1,58,96,60
1,61,114,0
1,56,86,0
1,63,104,70
1,60,104,0
1,56,92,0
1,44,100,6
1,53,94,96
1,37,86,0
1,61,104,0
1,56,100,0
1,61,109,30
1,54,92,0
1,58,100,0
1,39,96,0
1,53,92,24
1,56,104,0
1,61,104,0
1,41,107,0
1,41,94,16
1,54,89,44
1,61,109,0
1,58,96,0
1,42,100,0
1,54,79,56
1,58,100,0
1,61,109,0
1,42,104,0
1,42,62,72
1,61,114,60
1,54,89,0
1,58,104,0
1,42,104,0
1,54,92,56
1,61,114,0
1,58,109,0
1,42,96,126
1,61,114,48
1,56,96,0
1,58,114,0
1,44,104,0
1,44,96,0
1,63,114,96
1,56,96,0
1,60,104,0
1,63,109,62
1,56,92,0
1,60,107,0
1,44,73,4
1,37,92,50
1,56,104,0
1,61,104,0
1,53,99,0
1,37,84,112
1,61,100,32
1,58,100,0
1,54,86,0
1,39,100,0
1,39,96,76
1,61,104,42
1,53,92,0
1,56,104,0
1,41,110,0
1,41,90,86
1,54,81,36
1,61,96,0
1,58,104,0
1,42,96,0
1,54,92,62
1,58,104,0
1,61,109,0
1,42,109,0
1,42,89,72
1,42,104,60
1,58,104,0
1,61,114,0
1,54,86,0
1,58,109,58
1,61,109,0
1,54,89,0
1,42,100,122
1,58,109,44
1,44,109,0
1,61,109,0
1,56,92,0
1,44,92,6
1,63,109,96
1,56,96,0
1,60,107,0
1,58,96,60
1,61,114,0
1,56,86,0
1,63,104,70
1,60,104,0
1,56,92,0
1,44,100,6
1,53,94,96
1,37,86,0
1,61,104,0
1,56,100,0
1,61,109,30
1,54,92,0
1,58,100,0
1,39,96,0
1,53,92,24
1,56,104,0
1,61,104,0
1,41,107,0
1,41,94,16
1,54,89,44
1,61,109,0
1,58,96,0
1,42,100,0
1,54,79,56
1,58,100,0
1,61,109,0
1,42,104,0
1,42,62,72
1,61,114,60
1,54,89,0
1,58,104,0
1,42,104,0
1,54,92,56
1,61,114,0
1,58,109,0
1,42,96,126
1,61,114,48
1,56,96,0
1,58,114,0
1,44,104,0
1,44,96,0
1,63,114,96
1,56,96,0
1,60,104,0
1,63,109,62
1,56,92,0
1,60,107,0
1,44,73,4
1,27,73,50
1,61,104,0
1,54,81,0
1,58,86,0
1,61,100,94
1,58,96,0
1,54,86,0
1,39,86,46
1,61,81,66
1,54,68,0
1,58,75,0
1,58,104,10
1,61,109,0
1,54,84,0
1,39,92,98
1,61,104,66
1,58,100,0
1,54,84,0
1,54,81,30
1,39,100,56
1,58,84,32
1,61,96,0
1,54,86,0
1,30,96,0
1,58,100,62
1,61,114,0
1,54,86,0
1,54,86,62
1,42,100,36
1,61,100,96
1,54,89,0
1,58,89,0
1,42,92,42
1,61,104,76
1,58,96,0
1,54,75,0
1,54,86,36
1,42,96,2
1,53,90,36
1,61,96,0
1,58,89,0
1,34,75,0
1,61,96,58
1,53,86,0
1,58,96,0
1,46,84,4
1,34,62,6
1,53,63,0
1,58,75,0
1,61,75,0
1,58,96,48
1,61,92,0
1,53,73,0
1,46,84,116
1,61,104,60
1,53,99,0
1,58,104,0
1,53,101,40
1,46,89,30
1,32,69,14
1,51,100,0
1,60,99,0
1,56,92,0
1,60,101,76
1,51,96,0
1,56,96,0
1,44,92,2
1,51,81,6
1,60,75,0
1,56,81,0
1,60,90,52
1,51,58,0
1,56,73,0
1,44,96,0
1,60,107,84
1,51,96,0
1,56,100,0
1,51,92,12
1,44,92,4
1,27,69,12
1,58,96,0
1,54,96,0
1,61,109,0
1,54,77,90
1,61,79,0
1,58,79,0
1,39,86,18
1,54,68,10
1,61,104,0
1,58,89,0
1,58,92,48
1,61,109,0
1,54,69,0
1,39,81,0
1,58,104,8
1,61,109,0
1,54,77,0
1,54,89,86
1,39,96,26
1,61,114,6
1,54,92,0
1,58,104,0
1,30,100,0
1,61,109,92
1,54,81,0
1,58,96,0
1,42,96,26
1,54,71,38
1,61,109,0
1,58,92,0
1,58,75,50
1,61,81,0
1,54,52,0
1,42,96,0
1,54,92,86
1,61,114,0
1,58,100,0
1,42,92,116
1,32,79,20
1,56,100,0
1,65,104,0
1,60,113,0
1,63,109,48
1,58,96,0
1,54,89,0
1,44,96,4
1,65,101,4
1,56,92,0
1,60,107,0
1,58,81,62
1,63,104,0
1,54,96,0
1,44,104,24
1,32,89,58
1,56,96,96
1,65,104,0
1,60,101,0
1,54,100,96
1,63,109,0
1,58,96,0
1,66,114,94
1,61,104,0
1,58,104,0
1,37,92,82
1,56,104,0
1,61,104,0
1,53,99,0
1,37,84,112
1,61,100,32
1,58,100,0
1,54,86,0
1,39,100,0
1,39,96,76
1,61,104,42
1,53,92,0
1,56,104,0
1,41,110,0
1,41,90,86
1,54,81,36
1,61,96,0
1,58,104,0
1,42,96,0
1,54,92,62
1,58,104,0
1,61,109,0
1,42,109,0
1,42,89,72
1,42,104,60
1,58,104,0
1,61,114,0
1,54,86,0
1,58,109,58
1,61,109,0
1,54,89,0
1,42,100,122
1,58,109,44
1,44,109,0
1,61,109,0
1,56,92,0
1,44,92,6
1,63,109,96
1,56,96,0
1,60,107,0
1,58,96,60
1,61,114,0
1,56,86,0
1,63,104,70
1,60,104,0
1,56,92,0
1,44,100,6
1,53,94,96
1,37,86,0
1,61,104,0
1,56,100,0
1,61,109,30
1,54,92,0
1,58,100,0
1,39,96,0
1,53,92,24
1,56,104,0
1,61,104,0
1,41,107,0
1,41,94,16
1,54,89,44
1,61,109,0
1,58,96,0
1,42,100,0
1,54,79,56
1,58,100,0
1,61,109,0
1,42,104,0
1,42,62,72
1,61,114,60
1,54,89,0
1,58,104,0
1,42,104,0
1,54,92,56
1,61,114,0
1,58,109,0
1,42,96,126
1,61,114,48
1,56,96,0
1,58,114,0
1,44,104,0
1,44,96,0
1,63,114,96
1,56,96,0
1,60,104,0
1,63,109,62
1,56,92,0
1,60,107,0
1,44,73,4
1,37,92,50
1,56,104,0
1,61,104,0
1,53,99,0
1,37,84,112
1,61,100,32
1,58,100,0
1,54,86,0
1,39,100,0
1,39,96,76
1,61,104,42
1,53,92,0
1,56,104,0
1,41,110,0
1,41,90,86
1,54,81,36
1,61,96,0
1,58,104,0
1,42,96,0
1,54,92,62
1,58,104,0
1,61,109,0
1,42,109,0
1,42,89,72
1,42,104,60
1,58,104,0
1,61,114,0
1,54,86,0
1,58,109,58
1,61,109,0
1,54,89,0
1,42,100,122
1,58,109,44
1,44,109,0
1,61,109,0
1,56,92,0
1,44,92,6
1,63,109,96
1,56,96,0
1,60,107,0
1,58,96,60
1,61,114,0
1,56,86,0
1,63,104,70
1,60,104,0
1,56,92,0
1,44,100,6
1,53,94,96
1,37,86,0
1,61,104,0
1,56,100,0
1,61,109,30
1,54,92,0
1,58,100,0
1,39,96,0
1,53,92,24
1,56,104,0
1,61,104,0
1,41,107,0
1,41,94,16
1,54,89,44
1,61,109,0
1,58,96,0
1,42,100,0
1,54,79,56
1,58,100,0
1,61,109,0
1,42,104,0
1,42,62,72
1,61,114,60
1,54,89,0
1,58,104,0
1,42,104,0
1,54,92,56
1,61,114,0
1,58,109,0
1,42,96,126
1,61,114,48
1,56,96,0
1,58,114,0
1,44,104,0
1,44,96,0
1,63,114,96
1,56,96,0
1,60,104,0
1,63,109,62
1,56,92,0
1,60,107,0
1,44,73,4
1,46,89,50
1,61,79,0
1,56,86,0
1,65,88,0
1,58,79,0
1,46,92,154
1,65,85,0
1,56,81,0
1,61,79,0
1,58,77,0
1,41,73,86
1,44,75,24
1,56,77,56
1,61,73,0
1,58,77,0
1,65,79,0
1,46,96,0
1,61,81,138
1,56,81,0
1,46,104,0
1,65,86,0
1,58,81,0
1,41,80,54
1,44,89,10
1,58,79,72
1,65,88,0
1,56,79,0
1,61,81,0
1,46,89,0
1,49,96,168
1,65,92,0
1,61,84,0
1,56,86,0
1,58,81,0
1,63,89,176
1,58,81,0
1,67,85,0
1,51,89,0
1,61,84,0
1,51,104,28
1,58,77,64
1,63,81,0
1,67,79,0
1,61,77,0
1,61,86,90
1,58,86,0
1,63,92,0
1,67,86,0
1,61,81,118
1,58,73,0
1,56,86,0
1,46,77,0
1,65,79,0
1,61,75,102
1,46,89,0
1,65,82,0
1,58,77,0
1,56,77,0
1,41,79,104
1,44,92,20
1,46,92,58
1,65,80,0
1,61,73,0
1,58,73,0
1,56,75,0
1,65,82,152
1,46,100,0
1,56,73,0
1,61,64,0
1,58,66,0
1,41,80,68
1,44,100,8
1,56,64,60
1,61,66,0
1,58,68,0
1,65,80,0
1,46,96,0
1,49,96,150
1,56,75,0
1,61,81,0
1,65,86,0
1,58,77,0
1,61,73,168
1,51,96,0
1,58,77,0
1,67,78,0
1,63,79,0
1,51,100,26
1,58,77,52
1,63,81,0
1,67,80,0
1,61,77,0
1,61,86,86
1,63,96,0
1,67,86,0
1,58,81,0
1,58,75,112
1,51,77,4
1,66,96,0
1,61,84,0
1,39,66,10
1,66,84,58
1,58,63,4
1,61,79,0
1,39,64,6
1,51,79,0
1,58,84,412
1,66,96,2
1,39,68,0
1,61,89,0
1,51,89,0
1,66,100,52
1,51,81,4
1,61,92,0
1,58,81,0
1,39,77,12
1,63,100,376
1,68,92,0
1,60,90,0
1,41,88,0
1,53,75,0
1,41,82,52
1,53,80,0
1,60,70,0
1,63,92,0
1,68,84,0
1,68,89,422
1,41,90,0
1,60,90,0
1,63,104,0
1,53,82,0
1,41,83,52
1,63,96,0
1,60,75,0
1,53,71,0
1,68,86,0
1,70,96,406
1,54,79,0
1,42,71,0
1,65,94,0
1,61,89,0
1,54,66,50
1,42,63,0
1,65,94,0
1,70,89,0
1,61,79,0
1,65,72,230
1,61,51,0
1,70,54,0
1,42,62,142
1,54,81,0
1,65,97,0
1,70,100,0
1,61,84,0
1,42,56,82
1,65,94,0
1,54,84,0
1,61,81,0
1,70,92,0
1,66,81,406
1,56,81,0
1,63,96,0
1,70,96,0
1,61,89,0
1,44,63,0
1,44,63,88
1,56,79,0
1,70,71,0
1,61,84,0
1,66,92,0
1,63,86,0
1,44,75,184
1,56,89,0
1,63,100,0
1,66,96,0
1,61,89,0
1,70,86,0
1,27,73,12476
1,61,104,0
1,54,81,0
1,58,86,0
1,61,100,94
1,58,96,0
1,54,86,0
1,39,86,46
1,61,81,66
1,54,68,0
1,58,75,0
1,58,104,10
1,61,109,0
1,54,84,0
1,39,92,98
1,61,104,66
1,58,100,0
1,54,84,0
1,54,81,30
1,39,100,56
1,58,84,32
1,61,96,0
1,54,86,0
1,30,96,0
1,58,100,62
1,61,114,0
1,54,86,0
1,54,86,62
1,42,100,36
1,61,100,96
1,54,89,0
1,58,89,0
1,42,92,42
1,61,104,76
1,58,96,0
1,54,75,0
1,54,86,36
1,42,96,2
1,53,90,36
1,61,96,0
1,58,89,0
1,34,75,0
1,61,96,58
1,53,86,0
1,58,96,0
1,46,84,4
1,34,62,6
1,53,63,0
1,58,75,0
1,61,75,0
1,58,96,48
1,61,92,0
1,53,73,0
1,46,84,116
1,61,104,60
1,53,99,0
1,58,104,0
