track,note,velocity,time
1,57,114,18696
1,60,117,0
1,53,112,0
1,65,107,0
1,65,0,480
1,57,0,0
1,60,0,0
1,60,117,240
1,57,115,0
1,65,112,0
1,65,0,116
1,57,0,0
1,60,0,0
1,60,117,124
1,57,117,0
1,65,113,0
1,65,0,600
1,57,0,0
1,60,0,0
1,60,115,360
1,57,112,0
1,65,108,0
1,65,0,480
1,57,0,0
1,60,0,0
1,60,116,240
1,57,115,0
1,65,110,0
1,65,0,116
1,57,0,0
1,60,0,0
1,57,116,124
1,60,117,0
1,65,113,0
1,65,0,600
1,60,0,0
1,57,0,0
1,64,110,360
1,60,117,0
1,57,115,0
1,57,0,480
1,60,0,0
1,64,0,0
1,60,114,240
1,57,112,0
1,64,108,0
1,64,0,116
1,57,0,0
1,60,0,0
1,57,115,124
1,60,117,0
1,64,111,0
1,64,0,600
1,60,0,0
1,57,0,0
1,60,112,360
1,64,109,0
1,57,113,0
1,57,0,480
1,64,0,0
1,60,0,0
1,57,115,240
1,60,114,0
1,64,112,0
1,64,0,116
1,60,0,0
1,57,0,0
1,60,116,124
1,64,116,0
1,57,113,0
1,64,0,480
1,53,0,120
1,60,0,0
1,57,0,0
1,53,110,360
1,63,95,0
1,60,118,0
1,57,119,0
1,57,0,480
1,60,0,0
1,63,0,120
1,63,101,120
1,60,116,0
1,57,117,0
1,57,0,116
1,60,0,0
1,63,0,0
1,57,116,124
1,60,118,0
1,63,105,0
1,63,0,600
1,60,0,0
1,57,0,0
1,60,116,360
1,57,118,0
1,63,106,0
1,63,0,480
1,57,0,0
1,60,0,0
1,63,108,240
1,60,119,0
1,57,118,0
1,57,0,116
1,60,0,0
1,63,0,0
1,60,118,124
1,63,101,0
1,57,117,0
1,57,0,360
1,63,0,0
1,60,0,0
1,63,99,120
1,60,119,0
1,57,116,0
1,57,0,116
1,60,0,0
1,63,0,0
1,53,0,4
1,58,109,360
1,65,112,0
1,62,121,0
1,62,0,480
1,65,0,0
1,62,120,240
1,65,116,0
1,65,0,116
1,62,0,0
1,62,118,124
1,65,110,0
1,65,0,600
1,62,0,0
1,58,0,0
1,58,110,360
1,62,120,0
1,65,108,0
1,65,0,480
1,62,0,0
1,65,112,240
1,62,119,0
1,62,0,116
1,65,0,0
1,62,118,124
1,65,111,0
1,65,0,360
1,62,0,0
1,65,117,120
1,62,119,0
1,62,0,116
1,65,0,0
1,58,0,4
1,55,118,360
1,58,112,0
1,62,117,0
1,62,0,480
1,58,0,0
1,58,109,240
1,62,118,0
1,62,0,116
1,58,0,0
1,58,114,124
1,62,116,0
1,62,0,600
1,58,0,0
1,55,0,0
1,55,114,360
1,62,111,0
1,58,111,0
1,58,0,480
1,62,0,0
1,58,113,240
1,62,116,0
1,62,0,116
1,58,0,0
1,58,114,124
1,62,116,0
1,62,0,360
1,58,0,0
1,58,115,120
1,62,119,0
1,62,0,240
1,58,0,0
1,55,0,0
1,53,117,240
1,57,120,0
1,60,114,0
1,60,0,480
1,57,0,0
1,57,120,240
1,60,120,0
1,60,0,116
1,57,0,0
1,57,118,124
1,60,116,0
1,60,0,600
1,57,0,0
1,53,0,120
1,53,116,240
1,57,116,0
1,60,109,0
1,60,0,480
1,57,0,0
1,57,119,240
1,60,117,0
1,60,0,116
1,57,0,0
1,57,117,124
1,60,115,0
1,60,0,360
1,57,0,0
1,57,117,120
1,60,118,0
1,60,0,240
1,57,0,0
1,53,0,0
1,58,114,240
1,62,116,0
1,55,120,0
1,62,0,480
1,58,0,0
1,58,115,240
1,62,118,0
1,62,0,116
1,58,0,0
1,58,113,124
1,62,114,0
1,62,0,720
1,58,0,0
1,55,0,0
1,57,120,240
1,60,120,0
1,64,120,0
1,64,0,480
1,60,0,0
1,64,119,240
1,60,117,0
1,60,0,116
1,64,0,0
1,60,115,124
1,64,116,0
1,64,0,600
1,60,0,0
1,57,0,0
1,53,111,360
1,57,116,0
1,60,108,0
1,60,0,480
1,57,0,0
1,57,118,240
1,60,116,0
1,60,0,116
1,57,0,0
1,60,114,124
1,57,115,0
1,57,0,600
1,60,0,0
1,53,0,0
1,53,110,360
1,57,116,0
1,60,105,0
1,60,0,480
1,57,0,0
1,57,117,240
1,60,113,0
1,60,0,116
1,57,0,0
1,57,118,124
1,60,116,0
1,60,0,240
1,57,0,0
1,57,117,240
1,60,118,0
1,60,0,116
1,53,0,4
1,57,0,120
1,53,113,240
1,57,116,0
1,60,119,0
1,65,105,0
1,65,0,480
1,60,0,0
1,57,0,0
1,57,115,240
1,60,117,0
1,65,115,0
1,65,0,116
1,60,0,0
1,57,0,0
1,60,117,124
1,57,114,0
1,65,115,0
1,57,0,600
1,53,0,0
1,60,0,0
1,65,0,120
1,60,112,240
1,57,114,0
1,53,113,0
1,65,108,0
1,65,0,480
1,60,0,0
1,57,0,0
1,57,112,240
1,60,118,0
1,65,110,0
1,65,0,116
1,60,0,0
1,57,0,0
1,57,113,124
1,60,117,0
1,65,112,0
1,65,0,360
1,60,0,0
1,57,0,0
1,57,116,120
1,65,118,0
1,60,118,0
1,60,0,240
1,53,0,0
1,57,0,0
1,65,0,0
1,57,115,240
1,53,119,0
1,64,111,0
1,60,118,0
1,60,0,480
1,57,0,0
1,64,0,120
1,57,112,120
1,60,114,0
1,64,110,0
1,64,0,116
1,60,0,0
1,57,0,0
1,57,107,124
1,60,114,0
1,64,113,0
1,64,0,600
1,53,0,0
1,57,0,0
1,60,0,0
1,53,113,360
1,57,115,0
1,60,116,0
1,64,109,0
1,64,0,480
1,60,0,0
1,57,0,0
1,57,116,240
1,64,116,0
1,60,117,0
1,60,0,116
1,64,0,0
1,57,0,0
1,57,114,124
1,60,118,0
1,64,116,0
1,64,0,360
1,60,0,0
1,57,0,0
1,64,113,120
1,57,114,0
1,60,119,0
1,60,0,116
1,57,0,0
1,64,0,0
1,53,0,4
1,63,108,360
1,60,120,0
1,53,116,0
1,57,121,0
1,57,0,480
1,63,0,0
1,60,0,0
1,63,108,240
1,60,119,0
1,57,118,0
1,57,0,116
1,60,0,0
1,63,0,0
1,57,119,124
1,60,120,0
1,63,109,0
1,60,0,480
1,57,0,0
1,53,0,120
1,63,0,0
1,63,106,360
1,53,114,0
1,60,120,0
1,57,119,0
1,57,0,480
1,60,0,0
1,63,0,0
1,63,110,240
1,60,118,0
1,57,118,0
1,57,0,116
1,60,0,0
1,63,0,0
1,63,110,124
1,60,119,0
1,57,119,0
1,57,0,240
1,60,0,0
1,63,0,0
1,60,120,240
1,57,117,0
1,63,108,0
1,63,0,116
1,57,0,0
1,60,0,0
1,53,0,4
1,58,115,360
1,62,121,0
1,65,114,0
1,65,0,480
1,62,0,0
1,62,119,240
1,65,116,0
1,65,0,116
1,62,0,0
1,65,114,124
1,62,118,0
1,62,0,600
1,65,0,0
1,58,0,0
1,65,111,360
1,58,116,0
1,62,121,0
1,62,0,480
1,65,0,0
1,62,120,240
1,65,117,0
1,65,0,116
1,62,0,0
1,62,120,124
1,65,117,0
1,62,0,240
1,65,0,120
1,65,113,120
1,62,120,0
1,62,0,116
1,65,0,0
1,58,0,4
1,58,115,360
1,55,119,0
1,62,118,0
1,62,0,480
1,58,0,0
1,58,109,240
1,62,118,0
1,62,0,116
1,58,0,0
1,58,111,124
1,62,113,0
1,62,0,600
1,58,0,0
1,55,0,0
1,62,112,360
1,55,115,0
1,58,112,0
1,58,0,480
1,62,0,120
1,58,114,120
1,62,118,0
1,62,0,116
1,58,0,0
1,58,114,124
1,62,113,0
1,62,0,360
1,58,0,0
1,58,113,120
1,62,119,0
1,62,0,116
1,58,0,0
1,55,0,124
1,53,117,240
1,60,110,0
1,57,119,0
1,57,0,480
1,60,0,0
1,57,120,240
1,60,119,0
1,60,0,116
1,57,0,0
1,60,118,124
1,57,119,0
1,57,0,600
1,60,0,0
1,53,0,0
1,53,115,360
1,60,108,0
1,57,118,0
1,57,0,480
1,60,0,0
1,57,119,240
1,60,119,0
1,60,0,116
1,57,0,0
1,57,119,124
1,60,117,0
1,60,0,360
1,57,0,0
1,60,118,120
1,57,118,0
1,57,0,116
1,60,0,0
1,53,0,4
1,62,115,360
1,58,111,0
1,55,118,0
1,58,0,480
1,62,0,0
1,58,115,240
1,62,118,0
1,62,0,116
1,58,0,0
1,58,116,124
1,62,117,0
1,58,0,360
1,58,118,120
1,58,0,240
1,62,0,0
1,55,0,0
1,58,114,240
1,62,119,0
1,55,118,0
1,65,115,0
1,65,0,480
1,58,0,0
1,62,0,0
1,58,113,240
1,62,120,0
1,65,120,0
1,65,0,116
1,62,0,0
1,58,0,0
1,62,118,124
1,65,115,0
1,58,104,0
1,58,0,360
1,65,0,0
1,62,0,0
1,65,117,120
1,62,117,0
1,58,106,0
1,58,0,116
1,62,0,0
1,65,0,0
1,55,0,124
1,53,117,240
1,60,110,0
1,57,118,0
1,57,0,480
1,60,0,0
1,60,118,240
1,57,119,0
1,57,0,116
1,60,0,0
1,57,118,124
1,60,117,0
1,60,0,600
1,57,0,0
1,53,0,0
1,53,111,360
1,60,105,0
1,57,118,0
1,57,0,480
1,60,0,0
1,53,0,0
1,58,117,1428
1,62,119,0
1,55,118,4
1,58,0,640
1,55,0,20
1,62,0,4
1,58,120,324
1,62,122,4
1,55,122,8
1,55,0,616
1,58,0,8
1,62,0,20
1,58,121,304
1,55,120,8
1,62,122,0
1,58,0,504
1,55,0,4
1,62,0,16
1,58,119,168
1,55,120,4
1,62,122,0
1,58,0,264
1,62,0,16
1,55,0,12
1,58,121,192
1,62,122,0
1,55,122,4
1,58,0,328
1,62,0,4
1,55,0,4
1,53,121,372
1,60,121,4
1,57,122,0
1,57,0,608
1,53,0,4
1,60,0,8
1,57,121,364
1,60,117,4
1,53,120,0
1,57,0,604
1,53,0,4
1,60,0,8
1,53,120,336
1,60,119,4
1,57,118,4
1,57,0,484
1,53,0,4
1,60,0,12
1,53,121,180
1,60,120,8
1,57,122,0
1,57,0,264
1,60,0,8
1,53,0,0
1,60,122,228
1,53,123,0
1,57,124,4
1,57,0,272
1,53,0,8
1,60,0,4
1,53,122,176
1,60,123,0
1,57,124,0
1,57,0,40
1,53,0,4
1,60,0,8
1,62,122,176
1,58,121,0
1,55,121,12
1,58,0,624
1,62,0,12
1,55,0,8
1,58,118,296
1,62,120,4
1,55,120,0
1,58,0,672
1,55,0,12
1,62,0,8
1,58,117,252
1,62,120,4
1,55,120,0
1,58,0,528
1,62,0,8
1,55,0,4
1,55,121,196
1,58,119,8
1,62,121,4
1,58,0,240
1,55,0,12
1,62,0,4
1,55,121,224
1,62,122,4
1,58,121,0
1,58,0,284
1,62,0,8
1,55,0,4
1,58,119,172
1,62,121,0
1,55,118,4
1,62,0,48
1,58,0,0
1,55,0,4
1,53,121,188
1,60,120,0
1,57,122,8
1,53,0,572
1,57,0,8
1,60,0,16
1,53,121,332
1,57,123,4
1,60,122,0
1,57,0,308
1,60,0,4
1,53,0,28
1,60,124,168
1,53,123,4
1,57,125,0
1,60,0,152
1,57,0,16
1,53,0,24
1,60,122,264
1,57,122,8
1,65,119,0
1,53,119,4
1,55,116,12
1,55,0,164
1,53,0,2704
1,60,0,12
1,57,0,0
1,65,0,68
1,70,115,908
1,74,118,4
1,67,120,4
1,70,0,576
1,74,0,12
1,70,115,104
1,74,116,8
1,70,0,472
1,74,0,8
1,70,117,196
1,74,120,8
1,67,0,48
1,74,0,28
1,70,0,0
1,67,121,428
1,70,117,0
1,74,120,0
1,70,0,508
1,74,0,16
1,67,0,4
1,74,117,196
1,70,118,0
1,67,120,4
1,70,0,472
1,74,0,8
1,70,118,216
1,74,120,0
1,70,0,144
1,67,0,12
1,74,0,4
1,72,115,336
1,65,118,0
1,69,118,4
1,69,0,508
1,72,0,8
1,72,119,216
1,69,119,4
1,69,0,372
1,72,0,8
1,69,119,312
1,72,119,4
1,69,0,164
1,65,0,4
1,72,0,8
1,72,118,304
1,65,120,0
1,69,119,4
1,72,0,492
1,69,0,8
1,69,121,212
1,72,120,0
1,69,0,380
1,72,0,4
1,69,119,324
1,72,120,0
1,69,0,100
1,65,0,4
1,72,0,8
1,74,117,388
1,70,114,0
1,67,120,4
1,70,0,504
1,74,0,28
1,70,115,204
1,74,116,4
1,74,0,484
1,70,0,0
1,70,115,192
1,74,119,4
1,70,0,136
1,67,0,4
1,74,0,4
1,70,114,348
1,74,117,0
1,67,120,0
1,70,0,524
1,74,0,4
1,70,115,196
1,74,121,8
1,74,0,480
1,70,0,12
1,70,115,204
1,74,118,16
1,67,0,48
1,74,0,44
1,70,0,8
1,69,115,356
1,72,116,4
1,65,119,0
1,69,0,524
1,72,0,8
1,69,119,208
1,72,116,0
1,69,0,448
1,72,0,4
1,69,119,236
1,72,119,4
1,65,0,84
1,72,0,56
1,69,0,28
1,77,118,312
1,72,120,4
1,65,117,0
1,69,119,4
1,72,0,528
1,77,0,8
1,69,0,0
1,72,121,188
1,77,121,8
1,69,117,4
1,72,0,504
1,69,0,4
1,77,0,4
1,77,119,196
1,72,118,4
1,69,116,8
1,77,0,148
1,72,0,4
1,69,0,4
1,65,0,16
1,70,116,292
1,74,119,4
1,67,120,8
1,74,0,512
1,70,0,12
1,70,116,184
1,74,120,4
1,74,0,456
1,70,0,12
1,70,113,240
1,74,121,8
1,74,0,140
1,70,0,0
1,67,0,0
1,70,116,352
1,74,119,4
1,67,121,4
1,70,0,512
1,74,0,12
1,70,118,224
1,74,121,4
1,74,0,420
1,70,0,8
1,70,114,240
1,74,120,4
1,70,0,124
1,74,0,8
1,67,0,4
1,65,120,352
1,72,116,4
1,69,120,0
1,69,0,516
1,72,0,0
1,69,119,216
1,72,121,4
1,72,0,468
1,69,0,0
1,69,118,236
1,72,121,8
1,69,0,156
1,72,0,8
1,65,0,4
1,72,111,304
1,65,118,8
1,69,117,4
1,69,0,504
1,72,0,16
1,69,120,208
1,72,120,4
1,69,0,460
1,72,0,4
1,72,119,224
1,69,118,0
1,65,0,140
1,69,0,12
1,72,0,20
1,74,119,312
1,70,117,4
1,67,121,8
1,74,0,3432
1,70,0,20
1,67,0,8
1,68,106,4212
1,56,106,0
1,63,119,0
1,60,120,0
1,60,0,480
1,63,0,0
1,68,0,0
1,68,111,240
1,63,116,0
1,60,119,0
1,56,0,720
1,68,0,120
1,63,0,0
1,60,0,0
1,56,106,360
1,63,116,0
1,68,104,0
1,60,119,0
1,60,0,480
1,68,0,0
1,63,0,0
1,63,112,240
1,68,113,0
1,60,120,0
1,68,0,480
1,63,0,0
1,60,0,120
1,63,116,120
1,68,115,0
1,60,118,0
1,60,0,116
1,68,0,0
1,63,0,0
1,56,0,4
1,63,111,360
1,56,111,0
1,67,109,0
1,60,118,0
1,60,0,480
1,67,0,0
1,63,0,0
1,63,102,240
1,60,119,0
1,67,109,0
1,67,0,840
1,56,0,0
1,63,0,0
1,60,0,0
1,63,113,360
1,60,118,0
1,56,94,0
1,67,112,0
1,60,0,480
1,63,0,0
1,67,0,120
1,63,118,120
1,67,117,0
1,61,82,0
1,60,115,0
1,61,0,240
1,67,0,240
1,60,0,0
1,63,0,0
1,63,117,240
1,67,112,0
1,60,120,0
1,60,0,116
1,67,0,0
1,63,0,0
1,56,0,4
1,66,113,360
1,56,112,0
1,63,119,0
1,60,114,0
1,60,0,480
1,63,0,0
1,66,0,0
1,63,120,240
1,66,109,0
1,60,119,0
1,60,0,720
1,56,0,0
1,63,0,0
1,66,0,120
1,66,111,360
1,56,113,0
1,63,120,0
1,60,119,0
1,60,0,480
1,63,0,0
1,66,0,0
1,63,120,240
1,66,111,0
1,60,118,0
1,60,0,480
1,66,0,0
1,63,0,0
1,66,113,240
1,60,115,0
1,63,121,0
1,63,0,116
1,60,0,0
1,66,0,0
1,56,0,4
1,61,116,360
1,68,106,0
1,65,121,0
1,65,0,480
1,68,0,0
1,68,108,240
1,65,120,0
1,65,0,480
1,68,0,0
1,61,0,240
1,68,111,0
1,65,119,0
1,65,0,240
1,68,0,0
