track,note,velocity,time
3,45,83,16216
3,33,83,48
3,35,83,48
3,37,83,96
3,38,83,96
3,38,83,48
3,40,83,48
3,40,83,96
3,42,83,48
3,43,83,96
3,43,83,16
3,43,83,112
3,43,83,104
3,43,83,40
3,43,83,48
3,43,83,48
3,43,83,48
3,45,83,32
3,45,83,100
3,33,83,44
3,35,83,48
3,37,83,96
3,38,83,96
3,38,83,48
3,40,83,48
3,40,83,96
3,42,83,48
3,43,83,96
3,43,83,16
3,43,83,112
3,43,83,104
3,43,83,40
3,43,83,48
3,43,83,48
3,43,83,48
3,45,83,32
3,45,83,100
3,33,83,44
3,35,83,48
3,37,83,96
3,38,83,96
3,38,83,48
3,40,83,48
3,40,83,96
3,42,83,48
3,43,83,96
3,43,83,16
3,43,83,112
3,43,83,104
3,43,83,40
3,43,83,48
3,43,83,48
3,43,83,48
3,45,83,32
3,45,83,100
3,33,83,44
3,35,83,48
3,37,83,96
3,38,83,96
3,38,83,48
3,40,83,48
3,40,83,96
3,42,83,48
3,43,83,96
3,43,83,16
3,43,83,112
3,43,83,104
3,43,83,40
3,43,83,48
3,43,83,48
3,43,83,48
3,45,83,32
3,45,83,100
3,33,83,44
3,35,83,48
3,37,83,96
3,38,83,96
3,38,83,48
3,40,83,48
3,40,83,96
3,42,83,48
3,43,83,96
3,43,83,16
3,43,83,112
3,43,83,104
3,43,83,40
3,43,83,48
3,43,83,48
3,43,83,48
3,45,83,32
3,45,83,100
3,33,83,44
3,35,83,48
3,37,83,96
3,38,83,96
3,38,83,48
3,40,83,48
3,40,83,96
3,42,83,48
3,43,83,96
3,43,83,16
3,43,83,112
3,43,83,104
3,43,83,40
3,43,83,48
3,43,83,48
3,43,83,48
3,45,83,32
3,45,83,100
3,33,83,44
3,35,83,48
3,37,83,96
3,40,83,96
3,43,83,1344
3,45,83,16
3,47,83,16
3,50,83,112
3,45,83,16
3,47,83,112
3,45,83,16
3,42,83,16
3,45,83,112
3,47,83,112
3,40,83,112
3,40,83,112
3,42,83,16
3,43,83,16
3,45,83,112
3,45,83,112
3,40,83,16
3,33,83,112
3,45,83,112
3,40,83,16
3,33,83,208
3,45,83,112
3,40,83,112
3,33,83,208
3,33,83,112
3,35,83,16
3,37,83,112
3,38,83,112
3,38,83,48
3,40,83,48
3,40,83,96
3,42,83,48
3,43,83,96
3,43,83,16
3,43,83,112
3,43,83,104
3,43,83,40
3,43,83,48
3,43,83,48
3,43,83,48
3,45,83,32
3,45,83,100
3,33,83,44
3,35,83,48
3,37,83,96
3,38,83,96
3,38,83,48
3,40,83,48
3,40,83,96
3,42,83,48
3,43,83,96
3,43,83,16
3,43,83,112
3,43,83,104
3,43,83,40
3,43,83,48
3,43,83,48
3,43,83,48
3,45,83,32
3,45,83,100
3,33,83,44
3,35,83,48
3,37,83,96
3,38,83,96
3,38,83,48
3,40,83,48
3,40,83,96
3,42,83,48
3,43,83,96
3,43,83,16
3,43,83,112
3,43,83,104
3,43,83,40
3,43,83,48
3,43,83,48
3,43,83,48
3,45,83,32
3,45,83,100
3,33,83,44
3,35,83,48
3,37,83,96
3,38,83,96
3,38,83,48
3,40,83,48
3,40,83,96
3,42,83,48
3,43,83,96
3,43,83,16
3,43,83,112
3,43,83,104
3,43,83,40
3,43,83,48
3,43,83,48
3,43,83,48
3,45,83,32
3,45,83,100
3,33,83,44
3,35,83,48
3,37,83,96
3,35,83,96
3,35,83,96
3,35,83,48
3,30,83,96
3,33,83,32
3,35,83,112
3,35,83,96
3,35,83,48
3,30,83,96
3,33,83,32
3,35,83,112
3,35,83,96
3,38,83,48
3,38,83,96
3,40,83,48
3,52,83,100
3,50,83,28
3,52,83,32
3,50,83,28
3,47,83,32
3,35,83,132
3,35,83,96
3,35,83,48
3,30,83,96
3,33,83,16
3,35,83,96
3,35,83,96
3,35,83,48
3,30,83,96
3,33,83,16
3,35,83,96
3,35,83,96
3,38,83,48
3,38,83,96
3,40,83,48
3,52,83,100
3,50,83,28
3,52,83,32
3,50,83,28
3,47,83,32
3,40,83,132
3,40,83,96
3,40,83,384
3,40,83,96
3,42,83,384
3,42,83,96
3,42,83,384
3,42,83,96
3,43,83,384
3,43,83,96
3,43,83,384
3,43,83,96
3,45,83,384
3,47,63,0
3,49,63,32
3,52,83,32
3,54,83,16
3,49,83,16
3,52,83,16
3,54,83,16
3,57,83,16
3,59,83,112
3,60,83,16
3,61,83,16
3,38,83,192
3,38,83,48
3,40,83,48
3,40,83,96
3,42,83,48
3,43,83,96
3,43,83,16
3,43,83,112
3,43,83,104
3,43,83,40
3,43,83,48
3,43,83,48
3,43,83,48
3,45,83,32
3,45,83,100
3,33,83,44
3,35,83,48
3,37,83,96
3,38,83,96
3,38,83,48
3,40,83,48
3,40,83,96
3,42,83,48
3,43,83,96
3,43,83,16
3,43,83,112
3,43,83,104
3,43,83,40
3,43,83,48
3,43,83,48
3,43,83,48
3,45,83,32
3,45,83,100
3,33,83,44
3,35,83,48
3,37,83,96
3,38,83,96
3,38,83,48
3,40,83,48
3,40,83,96
3,42,83,48
3,43,83,96
3,43,83,16
3,43,83,112
3,43,83,104
3,43,83,40
3,43,83,48
3,43,83,48
3,43,83,48
3,45,83,32
3,45,83,100
3,33,83,44
3,35,83,48
3,37,83,96
3,38,83,96
3,38,83,48
3,40,83,48
3,40,83,96
3,42,83,48
3,43,83,96
3,43,83,16
3,43,83,112
3,43,83,104
3,43,83,40
3,43,83,48
3,43,83,48
3,43,83,48
3,45,83,32
3,45,83,100
3,33,83,44
3,35,83,48
3,37,83,96
3,40,83,96
3,43,83,1344
3,45,83,16
3,47,83,16
3,50,83,112
3,45,83,16
3,47,83,112
3,45,83,16
3,42,83,16
3,45,83,112
3,47,83,112
3,40,83,112
3,40,83,112
3,42,83,16
3,43,83,16
3,45,83,112
3,45,83,112
3,40,83,16
3,33,83,112
3,45,83,112
3,40,83,16
3,33,83,208
3,45,83,112
3,40,83,112
3,33,83,208
3,33,83,112
3,35,83,16
3,37,83,112
3,38,83,112
3,38,83,48
3,40,83,48
3,40,83,96
3,42,83,48
3,43,83,96
3,43,83,16
3,43,83,112
3,43,83,104
3,43,83,40
3,43,83,48
3,43,83,48
3,43,83,48
3,45,83,32
3,45,83,100
3,33,83,44
3,35,83,48
3,37,83,96
3,38,83,96
3,38,83,48
3,40,83,48
3,40,83,96
3,42,83,48
3,43,83,96
3,43,83,16
3,43,83,112
3,43,83,104
3,43,83,40
3,43,83,48
3,43,83,48
3,43,83,48
3,45,83,32
3,45,83,100
3,33,83,44
3,35,83,48
3,37,83,96
3,38,83,96
3,38,83,48
3,40,83,48
3,40,83,96
3,42,83,48
3,43,83,96
3,43,83,16
3,43,83,112
3,43,83,104
3,43,83,40
3,43,83,48
3,43,83,48
3,43,83,48
3,45,83,32
3,45,83,100
3,33,83,44
3,35,83,48
3,37,83,96
3,38,83,96
3,38,83,48
3,40,83,48
3,40,83,96
3,42,83,48
3,43,83,96
3,43,83,16
3,43,83,112
3,43,83,104
3,43,83,40
3,43,83,48
3,43,83,48
3,43,83,48
3,45,83,32
3,45,83,100
3,33,83,44
3,35,83,48
3,37,83,96
3,35,83,96
3,35,83,96
3,35,83,48
3,30,83,96
3,33,83,32
3,35,83,112
3,35,83,96
3,35,83,48
3,30,83,96
3,33,83,32
3,35,83,112
3,35,83,96
3,38,83,48
3,38,83,96
3,40,83,48
3,52,83,100
3,50,83,28
3,52,83,32
3,50,83,28
3,47,83,32
3,35,83,132
3,35,83,96
3,35,83,48
3,30,83,96
3,33,83,16
3,35,83,96
3,35,83,96
3,35,83,48
3,30,83,96
3,33,83,16
3,35,83,96
3,35,83,96
3,38,83,48
3,38,83,96
3,40,83,48
3,52,83,100
3,50,83,28
3,52,83,32
3,50,83,28
3,47,83,32
3,40,83,132
3,40,83,96
3,40,83,384
3,40,83,96
3,42,83,384
3,42,83,96
3,42,83,384
3,42,83,96
3,43,83,384
3,43,83,96
3,43,83,384
3,43,83,96
3,45,83,384
3,47,63,0
3,49,63,32
3,52,83,32
3,54,83,16
3,49,83,16
3,52,83,16
3,54,83,16
3,57,83,16
3,59,83,112
3,60,83,16
3,61,83,16
3,38,83,192
3,38,83,48
3,40,83,48
3,40,83,96
3,42,83,48
3,43,83,96
3,43,83,16
3,43,83,112
3,43,83,104
3,43,83,40
3,43,83,48
3,43,83,48
3,43,83,48
3,45,83,32
3,45,83,100
3,33,83,44
3,35,83,48
3,37,83,96
3,38,83,96
3,38,83,48
3,40,83,48
3,40,83,96
3,42,83,48
3,43,83,96
3,43,83,16
3,43,83,112
3,43,83,104
3,43,83,40
3,43,83,48
3,43,83,48
3,43,83,48
3,45,83,32
3,45,83,100
3,33,83,44
3,35,83,48
3,37,83,96
3,38,83,96
3,38,83,48
3,40,83,48
3,40,83,96
3,42,83,48
3,43,83,96
3,43,83,16
3,43,83,112
3,43,83,104
3,43,83,40
3,43,83,48
3,43,83,48
3,43,83,48
3,45,83,32
3,45,83,100
3,33,83,44
3,35,83,48
3,37,83,96
3,38,83,96
3,38,83,48
3,40,83,48
3,40,83,96
3,42,83,48
3,43,83,96
3,43,83,16
3,43,83,112
3,43,83,104
3,43,83,40
3,43,83,48
3,43,83,48
3,43,83,48
3,45,83,32
3,45,83,100
3,33,83,44
3,35,83,48
3,37,83,96
3,38,83,96
3,38,83,48
3,40,83,48
3,40,83,96
3,42,83,48
3,43,83,96
3,43,83,16
3,43,83,112
3,43,83,104
3,43,83,40
3,43,83,48
3,43,83,48
3,43,83,48
3,45,83,32
3,45,83,100
3,33,83,44
3,35,83,48
3,37,83,96
3,38,83,96
3,38,83,48
3,40,83,48
3,40,83,96
3,42,83,48
3,43,83,96
3,43,83,16
3,43,83,112
3,43,83,104
3,43,83,40
3,43,83,48
3,43,83,48
3,43,83,48
3,45,83,32
3,45,83,100
3,33,83,44
3,35,83,48
3,37,83,96
3,38,83,96
3,38,83,48
3,40,83,48
3,40,83,96
3,42,83,48
3,43,83,96
3,43,83,16
3,43,83,112
3,43,83,104
3,43,83,40
3,43,83,48
3,43,83,48
3,43,83,48
3,45,83,32
3,45,83,100
3,33,83,44
3,35,83,48
3,37,83,96
3,38,83,96
3,38,83,48
3,40,83,48
3,40,83,96
3,42,83,48
3,43,83,96
3,43,83,16
3,43,83,112
3,33,95,1160
3,38,95,48
3,35,95,48
3,38,105,16
4,62,97,4600
4,57,97,0
4,54,97,0
4,38,97,0
4,38,97,16
4,62,97,16
4,59,97,0
4,55,97,0
4,38,97,0
4,40,97,16
4,40,97,48
4,62,97,16
4,57,97,0
4,54,97,0
4,42,97,0
4,62,97,16
4,59,97,0
4,55,97,0
4,43,97,0
4,62,97,112
4,59,97,0
4,55,97,0
4,43,97,0
4,43,97,16
4,43,97,16
4,67,97,16
4,62,97,0
4,59,97,0
4,43,97,0
4,43,97,16
4,67,97,16
4,62,97,0
4,59,97,0
4,43,97,0
4,43,97,16
4,44,97,16
4,66,97,16
4,62,97,0
4,57,97,0
4,45,97,0
4,45,97,16
4,64,97,16
4,61,97,0
4,57,97,0
4,45,97,0
4,45,97,16
4,62,97,16
4,59,97,0
4,57,97,0
4,45,97,0
4,64,97,64
4,61,97,0
4,57,97,0
4,45,97,0
4,45,97,16
4,62,97,16
4,57,97,0
4,54,97,0
4,38,97,0
4,38,97,16
4,62,97,16
4,59,97,0
4,55,97,0
4,38,97,0
4,40,97,16
4,40,97,16
4,62,97,16
4,57,97,0
4,54,97,0
4,42,97,0
4,62,97,16
4,59,97,0
4,55,97,0
4,43,97,0
4,62,97,112
4,59,97,0
4,55,97,0
4,43,97,0
4,43,97,16
4,43,97,16
4,62,97,16
4,59,97,0
4,55,97,0
4,43,97,0
4,43,97,16
4,62,97,16
4,59,97,0
4,55,97,0
4,43,97,0
4,43,97,16
4,44,97,16
4,62,97,16
4,59,97,0
4,55,97,0
4,45,97,0
4,45,97,16
4,61,97,16
4,57,97,0
4,52,97,0
4,45,97,0
4,45,97,16
4,61,97,16
4,57,97,0
4,52,97,0
4,45,97,0
4,45,97,16
4,45,97,16
4,62,87,16
4,57,87,0
4,54,87,0
4,38,87,0
4,38,87,16
4,62,87,16
4,59,87,0
4,55,87,0
4,38,87,0
4,40,87,16
4,40,87,48
4,62,87,16
4,57,87,0
4,54,87,0
4,42,87,0
4,62,87,16
4,59,87,0
4,55,87,0
4,43,87,0
4,62,87,112
4,59,87,0
4,55,87,0
4,43,87,0
4,43,87,16
4,43,87,16
4,67,87,16
4,62,87,0
4,59,87,0
4,43,87,0
4,43,87,16
4,67,87,16
4,62,87,0
4,59,87,0
4,43,87,0
4,43,87,16
4,44,87,16
4,66,87,16
4,62,87,0
4,57,87,0
4,45,87,0
4,45,87,16
4,64,87,16
4,61,87,0
4,57,87,0
4,45,87,0
4,45,87,16
4,62,87,16
4,59,87,0
4,57,87,0
4,45,87,0
4,64,87,64
4,61,87,0
4,57,87,0
4,45,87,0
4,45,87,16
4,62,87,16
4,57,87,0
4,54,87,0
4,38,87,0
4,38,87,16
4,62,87,16
4,59,87,0
4,55,87,0
4,38,87,0
4,40,87,16
4,40,87,16
4,62,87,16
4,57,87,0
4,54,87,0
4,42,87,0
4,62,87,16
4,59,87,0
4,55,87,0
4,43,87,0
4,62,87,112
4,59,87,0
4,55,87,0
4,43,87,0
4,43,87,16
4,43,87,16
4,62,87,16
4,59,87,0
4,55,87,0
4,43,87,0
4,43,87,16
4,62,87,16
4,59,87,0
4,55,87,0
4,43,87,0
4,43,87,16
4,44,87,16
4,62,87,16
4,59,87,0
4,55,87,0
4,45,87,0
4,45,87,16
4,61,87,16
4,57,87,0
4,52,87,0
4,45,87,0
4,45,87,16
4,61,87,16
4,57,87,0
4,52,87,0
4,45,87,0
4,45,87,16
4,45,87,16
4,62,87,16
4,57,87,0
4,54,87,0
4,38,87,0
4,38,87,16
4,62,87,16
4,59,87,0
4,55,87,0
4,38,87,0
4,40,87,16
4,40,87,48
4,62,87,16
4,57,87,0
4,54,87,0
4,42,87,0
4,62,87,16
4,59,87,0
4,55,87,0
4,43,87,0
4,62,87,112
4,59,87,0
4,55,87,0
4,43,87,0
4,43,87,16
4,43,87,16
4,67,87,16
4,62,87,0
4,59,87,0
4,43,87,0
4,43,87,16
4,67,87,16
4,62,87,0
4,59,87,0
4,43,87,0
4,43,87,16
4,44,87,16
4,66,87,16
4,62,87,0
4,57,87,0
4,45,87,0
4,45,87,16
4,64,87,16
4,61,87,0
4,57,87,0
4,45,87,0
4,45,87,16
4,62,87,16
4,59,87,0
4,57,87,0
4,45,87,0
4,64,87,64
4,61,87,0
4,57,87,0
4,45,87,0
4,45,87,16
4,62,87,16
4,57,87,0
4,54,87,0
4,38,87,0
4,38,87,16
4,62,87,16
4,59,87,0
4,55,87,0
4,38,87,0
4,40,87,16
4,40,87,16
4,62,87,16
4,57,87,0
4,54,87,0
4,42,87,0
4,62,87,16
4,59,87,0
4,55,87,0
4,43,87,0
4,62,87,112
4,59,87,0
4,55,87,0
4,43,87,0
4,43,87,16
4,43,87,16
4,62,87,16
4,59,87,0
4,55,87,0
4,43,87,0
4,43,87,16
4,62,87,16
4,59,87,0
4,55,87,0
4,43,87,0
4,43,87,16
4,44,87,16
4,62,87,16
4,59,87,0
4,55,87,0
4,45,87,0
4,45,87,16
4,61,87,16
4,57,87,0
4,52,87,0
4,45,87,0
4,45,87,16
4,61,87,16
4,57,87,0
4,52,87,0
4,45,87,0
4,45,87,16
4,45,87,16
4,62,87,16
4,57,87,0
4,54,87,0
4,38,87,0
4,38,87,16
4,62,87,16
4,59,87,0
4,55,87,0
4,38,87,0
4,40,87,16
4,40,87,48
4,62,87,16
4,57,87,0
4,54,87,0
4,42,87,0
4,62,87,16
4,59,87,0
4,55,87,0
4,43,87,0
4,62,87,112
4,59,87,0
4,55,87,0
4,43,87,0
4,43,87,16
4,43,87,16
4,67,87,16
4,62,87,0
4,59,87,0
4,43,87,0
