track,note,velocity,time
1,58,127,96
1,61,127,0
1,65,127,0
1,58,127,4
1,61,127,0
1,65,127,0
1,58,127,4
1,61,127,0
1,65,127,0
1,58,127,4
1,61,127,0
1,65,127,0
1,58,127,4
1,61,127,0
1,65,127,0
1,58,127,4
1,61,127,0
1,65,127,0
1,61,127,4
1,55,127,4
1,58,127,0
1,63,127,0
1,63,127,4
1,53,127,4
1,58,127,0
1,61,127,0
1,65,127,100
1,65,127,4
1,61,127,4
1,55,127,100
1,58,127,0
1,63,127,0
1,61,127,4
1,53,127,4
1,58,127,0
1,63,127,0
1,61,127,4
1,53,127,4
1,58,127,0
1,61,127,0
1,61,127,4
1,51,127,4
1,56,127,0
1,63,127,0
1,60,127,4
1,51,127,4
1,56,127,0
1,60,127,0
1,58,127,4
1,48,127,4
1,51,127,0
1,56,127,0
1,58,127,100
1,61,127,0
1,66,127,0
1,58,127,4
1,61,127,0
1,66,127,0
1,58,127,4
1,61,127,0
1,66,127,0
1,56,127,4
1,61,127,0
1,65,127,0
1,56,127,4
1,61,127,0
1,65,127,0
1,56,127,4
1,61,127,0
1,65,127,0
1,61,127,4
1,54,127,4
1,59,127,0
1,63,127,0
1,63,127,4
1,53,127,4
1,58,127,0
1,61,127,0
1,61,127,4
1,58,127,4
1,61,127,0
1,65,127,0
1,65,127,4
1,55,127,4
1,58,127,0
1,63,127,0
1,63,127,4
1,53,127,4
1,58,127,0
1,61,127,0
1,61,127,100
1,53,127,4
1,58,127,0
1,61,127,0
1,61,127,4
1,56,127,4
1,60,127,0
1,63,127,0
1,60,127,4
1,58,127,4
1,56,127,4
1,65,127,4
1,63,127,4
1,61,127,4
1,58,127,4
1,63,127,0
1,61,127,4
1,49,127,4
1,54,127,0
1,58,127,0
1,46,127,4
1,49,127,0
1,54,127,0
1,58,127,484
1,61,127,0
1,65,127,0
1,58,127,4
1,61,127,0
1,65,127,0
1,58,127,4
1,61,127,0
1,65,127,0
1,58,127,4
1,61,127,0
1,65,127,0
1,58,127,4
1,61,127,0
1,65,127,0
1,58,127,4
1,61,127,0
1,65,127,0
1,61,127,4
1,55,127,4
1,58,127,0
1,63,127,0
1,63,127,4
1,53,127,4
1,58,127,0
1,61,127,0
1,65,127,100
1,65,127,4
1,61,127,4
1,55,127,100
1,58,127,0
1,63,127,0
1,61,127,4
1,53,127,4
1,58,127,0
1,63,127,0
1,61,127,4
1,53,127,4
1,58,127,0
1,61,127,0
1,61,127,4
1,51,127,4
1,56,127,0
1,63,127,0
1,60,127,4
1,51,127,4
1,56,127,0
1,60,127,0
1,58,127,4
1,48,127,4
1,51,127,0
1,56,127,0
1,58,127,100
1,61,127,0
1,66,127,0
1,58,127,4
1,61,127,0
1,66,127,0
1,58,127,4
1,61,127,0
1,66,127,0
1,56,127,4
1,61,127,0
1,65,127,0
1,56,127,4
1,61,127,0
1,65,127,0
1,56,127,4
1,61,127,0
1,65,127,0
1,61,127,4
1,54,127,4
1,59,127,0
1,63,127,0
1,63,127,4
1,53,127,4
1,58,127,0
1,61,127,0
1,61,127,4
1,58,127,4
1,61,127,0
1,65,127,0
1,65,127,4
1,55,127,4
1,58,127,0
1,63,127,0
1,63,127,4
1,53,127,4
1,58,127,0
1,61,127,0
1,61,127,100
1,53,127,4
1,58,127,0
1,61,127,0
1,61,127,4
1,56,127,4
1,60,127,0
1,63,127,0
1,60,127,4
1,58,127,4
1,56,127,4
1,65,127,4
1,63,127,4
1,61,127,4
1,58,127,4
1,63,127,0
1,61,127,4
1,49,127,4
1,58,127,0
1,58,127,864
1,58,127,4
1,58,127,4
1,54,127,4
1,58,127,0
1,61,127,0
1,63,127,0
1,61,127,4
1,58,127,4
1,58,127,4
1,54,127,4
1,58,127,0
1,61,127,0
1,63,127,0
1,65,127,4
1,63,127,4
1,61,127,4
1,49,127,772
1,53,127,0
1,58,127,0
1,53,127,4
1,58,127,0
1,61,127,0
1,65,127,4
1,53,127,4
1,58,127,0
1,63,127,0
1,53,127,4
1,58,127,0
1,61,127,0
1,65,127,4
1,53,127,4
1,58,127,0
1,63,127,0
1,53,127,4
1,58,127,0
1,61,127,0
1,65,127,4
1,53,127,4
1,58,127,0
1,63,127,0
1,53,127,4
1,58,127,0
1,61,127,0
1,54,127,4
1,58,127,0
1,61,127,0
1,63,127,0
1,61,127,4
1,58,127,4
1,54,127,4
1,58,127,0
1,61,127,0
1,63,127,0
1,61,127,4
1,58,127,4
1,58,127,4
1,63,127,0
1,49,127,4
1,54,127,0
1,58,127,0
1,61,127,0
1,58,127,868
1,61,127,0
1,65,127,0
1,58,127,4
1,61,127,0
1,65,127,0
1,58,127,4
1,61,127,0
1,65,127,0
1,58,127,4
1,61,127,0
1,65,127,0
1,58,127,4
1,61,127,0
1,65,127,0
1,58,127,4
1,61,127,0
1,65,127,0
1,61,127,4
1,55,127,4
1,58,127,0
1,63,127,0
1,63,127,4
1,53,127,4
1,58,127,0
1,61,127,0
1,65,127,100
1,65,127,4
1,61,127,4
1,55,127,100
1,58,127,0
1,63,127,0
1,61,127,4
1,53,127,4
1,58,127,0
1,63,127,0
1,61,127,4
1,53,127,4
1,58,127,0
1,61,127,0
1,61,127,4
1,51,127,4
1,56,127,0
1,63,127,0
1,60,127,4
1,51,127,4
1,56,127,0
1,60,127,0
1,58,127,4
1,48,127,4
1,51,127,0
1,56,127,0
1,58,127,100
1,61,127,0
1,66,127,0
1,58,127,4
1,61,127,0
1,66,127,0
1,58,127,4
1,61,127,0
1,66,127,0
1,56,127,4
1,61,127,0
1,65,127,0
1,56,127,4
1,61,127,0
1,65,127,0
1,56,127,4
1,61,127,0
1,65,127,0
1,61,127,4
1,54,127,4
1,59,127,0
1,63,127,0
1,63,127,4
1,53,127,4
1,58,127,0
1,61,127,0
1,61,127,4
1,58,127,4
1,61,127,0
1,65,127,0
1,65,127,4
1,55,127,4
1,58,127,0
1,63,127,0
1,63,127,4
1,53,127,4
1,58,127,0
1,61,127,0
1,61,127,100
1,53,127,4
1,58,127,0
1,61,127,0
1,61,127,4
1,56,127,4
1,60,127,0
1,63,127,0
1,60,127,4
1,58,127,4
1,56,127,4
1,65,127,4
1,63,127,4
1,61,127,4
1,58,127,4
1,63,127,0
1,61,127,4
1,49,127,4
1,58,127,0
1,53,127,0
1,58,127,484
1,58,127,4
1,58,127,4
1,54,127,4
1,58,127,0
1,61,127,0
1,63,127,0
1,61,127,4
1,58,127,4
1,58,127,4
1,54,127,4
1,58,127,0
1,61,127,0
1,63,127,0
1,65,127,4
1,63,127,4
1,61,127,4
1,49,127,772
1,53,127,0
1,58,127,0
1,53,127,4
1,58,127,0
1,61,127,0
1,65,127,4
1,53,127,4
1,58,127,0
1,63,127,0
1,53,127,4
1,58,127,0
1,61,127,0
1,65,127,4
1,53,127,4
1,58,127,0
1,63,127,0
1,53,127,4
1,58,127,0
1,61,127,0
1,65,127,4
1,53,127,4
1,58,127,0
1,63,127,0
1,53,127,4
1,58,127,0
1,61,127,0
1,54,127,4
1,58,127,0
1,61,127,0
1,63,127,0
1,61,127,4
1,58,127,4
1,54,127,4
1,58,127,0
1,61,127,0
1,63,127,0
1,61,127,4
1,58,127,4
1,58,127,4
1,63,127,0
1,58,127,96
1,63,127,0
1,58,127,4
1,61,127,0
1,51,127,4
1,60,127,0
1,48,127,4
1,56,127,0
1,49,127,100
1,54,127,0
1,61,127,0
1,61,127,4
1,61,127,4
1,49,127,4
1,54,127,0
1,61,127,0
1,61,127,4
1,61,127,4
1,51,127,4
1,56,127,0
1,63,127,0
1,51,127,4
1,56,127,0
1,60,127,0
1,65,127,4
1,63,127,4
1,61,127,4
1,58,127,4
1,63,127,0
1,49,127,4
1,54,127,0
1,58,127,0
1,58,127,4
1,65,127,0
1,63,127,4
1,61,127,4
1,57,127,4
1,65,127,0
1,65,127,96
1,65,127,4
1,65,127,4
1,65,127,4
1,65,127,4
1,60,127,4
1,65,127,0
1,69,127,0
1,69,127,4
1,69,127,4
1,61,127,4
1,65,127,0
1,70,127,0
1,58,127,292
1,61,127,0
1,65,127,0
1,58,127,4
1,61,127,0
1,65,127,0
1,58,127,4
1,61,127,0
1,65,127,0
1,58,127,4
1,61,127,0
1,65,127,0
1,58,127,4
1,61,127,0
1,65,127,0
1,58,127,4
1,61,127,0
1,65,127,0
1,61,127,4
1,55,127,4
1,58,127,0
1,63,127,0
1,63,127,4
1,53,127,4
1,58,127,0
1,61,127,0
1,65,127,100
1,65,127,4
1,61,127,4
1,55,127,4
1,63,127,0
1,58,127,0
1,61,127,4
1,53,127,4
1,58,127,0
1,63,127,0
1,61,127,4
1,53,127,4
1,58,127,0
1,61,127,0
1,61,127,4
1,51,127,4
1,56,127,0
1,63,127,0
1,60,127,4
1,51,127,4
1,56,127,0
1,60,127,0
1,58,127,4
1,48,127,4
1,51,127,0
1,56,127,0
1,58,127,100
1,61,127,0
1,66,127,0
1,58,127,4
1,61,127,0
1,66,127,0
1,58,127,4
1,61,127,0
1,66,127,0
1,56,127,4
1,61,127,0
1,65,127,0
1,56,127,4
1,61,127,0
1,65,127,0
1,56,127,4
1,61,127,0
1,65,127,0
1,61,127,4
1,54,127,4
1,59,127,0
1,63,127,0
1,63,127,4
1,53,127,4
1,58,127,0
1,61,127,0
1,61,127,4
1,58,127,4
1,61,127,0
1,65,127,0
1,65,127,4
1,55,127,4
1,58,127,0
1,63,127,0
1,63,127,4
1,53,127,4
1,58,127,0
1,61,127,0
1,61,127,100
1,53,127,4
1,58,127,0
1,61,127,0
1,61,127,4
1,56,127,4
1,60,127,0
1,63,127,0
1,60,127,4
1,58,127,4
1,56,127,4
1,65,127,4
1,63,127,4
1,61,127,4
1,58,127,4
1,63,127,0
1,61,127,4
1,49,127,4
1,58,127,0
1,53,127,0
1,58,127,484
1,58,127,4
1,58,127,4
1,54,127,4
1,58,127,0
1,61,127,0
1,63,127,0
1,61,127,4
1,58,127,4
1,58,127,4
1,54,127,4
1,58,127,0
1,61,127,0
1,63,127,0
1,65,127,4
1,63,127,4
1,61,127,4
1,49,127,772
1,53,127,0
1,58,127,0
1,53,127,4
1,58,127,0
1,61,127,0
1,65,127,4
1,53,127,4
1,58,127,0
1,63,127,0
1,53,127,4
1,58,127,0
1,61,127,0
1,65,127,4
1,53,127,4
1,58,127,0
1,63,127,0
1,53,127,4
1,58,127,0
1,61,127,0
1,65,127,4
1,53,127,4
1,58,127,0
1,63,127,0
1,53,127,4
1,58,127,0
1,61,127,0
1,54,127,4
1,58,127,0
1,61,127,0
1,63,127,0
1,61,127,4
1,58,127,4
1,54,127,4
1,58,127,0
1,61,127,0
1,63,127,0
1,61,127,4
1,58,127,4
1,58,127,4
1,63,127,0
1,49,127,4
1,54,127,0
1,58,127,0
1,61,127,0
1,49,127,4612
1,53,127,0
1,58,127,0
1,53,127,4
1,58,127,0
1,61,127,0
1,65,127,4
1,53,127,4
1,58,127,0
1,63,127,0
1,53,127,4
1,58,127,0
1,61,127,0
1,65,127,4
1,53,127,4
1,58,127,0
1,63,127,0
1,53,127,4
1,58,127,0
1,61,127,0
1,65,127,4
1,53,127,4
1,58,127,0
1,63,127,0
1,53,127,4
1,58,127,0
1,61,127,0
1,54,127,4
1,58,127,0
1,61,127,0
1,63,127,0
1,61,127,4
1,58,127,4
1,54,127,4
1,58,127,0
1,61,127,0
1,63,127,0
1,61,127,4
1,58,127,4
1,58,127,4
1,63,127,0
1,49,127,4
1,54,127,0
1,58,127,0
1,61,127,0
1,49,127,772
1,53,127,0
1,58,127,0
1,53,127,4
1,58,127,0
1,61,127,0
1,65,127,4
1,53,127,4
1,58,127,0
1,63,127,0
1,53,127,4
1,58,127,0
1,61,127,0
1,65,127,4
1,53,127,4
1,58,127,0
1,63,127,0
1,53,127,4
1,58,127,0
1,61,127,0
1,65,127,4
1,53,127,4
1,58,127,0
1,63,127,0
1,53,127,4
1,58,127,0
1,61,127,0
1,54,127,4
1,58,127,0
1,61,127,0
1,63,127,0
1,61,127,4
1,58,127,4
1,54,127,4
1,58,127,0
1,61,127,0
1,63,127,0
1,61,127,4
1,58,127,4
1,58,127,4
1,63,127,0
1,49,127,4
1,54,127,0
1,58,127,0
1,61,127,0
1,54,127,4
1,49,127,0
1,46,127,0
1,66,127,0
1,70,127,0
1,58,127,0
1,68,127,4
1,65,127,4
1,53,127,0
1,63,127,4
1,61,127,4
1,41,127,4
1,46,127,0
1,53,127,0
1,58,127,0
2,32,127,1
2,34,127,0
2,39,127,580
2,34,127,4
2,39,127,388
2,34,127,4
2,41,127,388
2,41,127,4
2,41,127,4
2,41,127,4
2,39,127,4
2,39,127,4
2,37,127,4
2,37,127,4
2,35,127,4
2,35,127,4
2,34,127,4
2,39,127,4
2,34,127,4
2,41,127,388
2,41,127,4
2,41,127,4
2,42,127,4
2,42,127,4
2,42,127,4
2,42,127,4
2,42,127,4
2,30,127,4
2,30,127,4
2,39,127,72
2,41,127,4
2,39,127,4
2,37,127,4
2,32,127,4
2,34,127,4
2,39,127,580
2,34,127,4
2,39,127,388
2,34,127,4
2,41,127,388
2,41,127,4
2,41,127,4
2,41,127,4
2,39,127,4
2,39,127,4
2,37,127,4
2,37,127,4
2,35,127,4
2,35,127,4
2,34,127,4
2,39,127,4
2,34,127,4
2,41,127,388
2,41,127,4
2,41,127,4
2,32,127,4
2,34,127,4
2,44,127,100
2,46,127,4
2,32,127,4
2,34,127,4
2,44,127,4
2,46,127,4
2,46,127,4
2,39,127,4
2,39,127,4
2,39,127,4
2,46,127,4
2,58,127,0
2,44,127,4
2,56,127,0
2,41,127,4
2,53,127,0
2,39,127,4
2,51,127,0
2,37,127,4
2,49,127,0
2,32,127,4
2,34,127,4
2,44,127,100
2,46,127,4
2,32,127,4
2,34,127,4
2,44,127,4
2,46,127,4
2,46,127,4
2,39,127,4
2,39,127,4
2,39,127,4
2,42,127,4
2,42,127,4
2,42,127,4
2,42,127,4
2,42,127,4
2,42,127,4
2,30,127,4
2,32,127,4
2,39,127,72
2,41,127,4
2,39,127,4
2,37,127,4
2,32,127,4
2,34,127,4
2,39,127,580
2,34,127,4
2,39,127,388
2,34,127,4
2,41,127,388
2,41,127,4
2,41,127,4
2,41,127,4
2,39,127,4
2,39,127,4
2,37,127,4
2,37,127,4
2,35,127,4
2,35,127,4
2,34,127,4
2,39,127,4
2,34,127,4
2,41,127,388
2,41,127,4
2,41,127,4
2,32,127,4
2,34,127,4
2,44,127,100
2,46,127,4
2,32,127,4
2,34,127,4
2,44,127,4
2,46,127,4
2,46,127,4
2,39,127,4
2,39,127,4
2,39,127,4
2,46,127,4
2,58,127,0
2,44,127,4
2,56,127,0
2,41,127,4
2,53,127,0
2,39,127,4
2,51,127,0
2,37,127,4
2,49,127,0
2,32,127,4
2,34,127,4
2,44,127,100
2,46,127,4
2,32,127,4
2,34,127,4
2,44,127,4
2,46,127,4
2,46,127,4
2,39,127,4
2,39,127,4
2,39,127,4
2,42,127,4
2,42,127,4
2,44,127,4
2,44,127,4
2,39,127,4
2,39,127,4
2,39,127,4
2,39,127,4
2,41,127,4
2,41,127,4
2,41,127,4
2,41,127,4
2,42,127,4
2,42,127,4
2,42,127,4
2,42,127,4
2,41,127,4
2,41,127,4
2,41,127,4
2,46,127,4
2,58,127,0
2,44,127,4
2,56,127,0
2,41,127,4
2,53,127,0
2,39,127,4
2,51,127,0
2,37,127,4
2,49,127,0
2,32,127,4
2,34,127,4
2,39,127,580
2,34,127,4
2,39,127,388
2,34,127,4
2,41,127,388
2,41,127,4
2,41,127,4
2,41,127,4
2,39,127,4
2,39,127,4
2,37,127,4
2,37,127,4
2,35,127,4
2,35,127,4
2,34,127,4
2,39,127,4
2,34,127,4
2,41,127,388
2,41,127,4
2,41,127,4
2,32,127,4
2,34,127,4
2,44,127,100
2,46,127,4
2,32,127,4
2,34,127,4
2,44,127,4
2,46,127,4
2,46,127,4
2,39,127,4
2,39,127,4
2,39,127,4
