track,note,velocity,time
1,52,127,1536
1,47,127,0
1,64,32,0
1,56,127,0
1,40,80,0
1,64,127,0
1,59,127,0
1,76,32,0
1,71,127,0
1,68,127,0
1,52,80,0
1,59,127,0
1,50,127,192
1,62,127,0
1,57,127,0
1,66,127,0
1,62,127,0
1,74,127,0
1,69,127,0
1,78,127,0
1,66,78,0
1,62,127,0
1,57,100,0
1,50,100,0
1,78,78,0
1,74,127,0
1,69,100,0
1,62,100,0
1,62,127,0
1,66,127,0
1,57,100,0
1,50,100,0
1,74,127,0
1,78,127,0
1,69,100,0
1,62,100,0
1,45,127,192
1,61,127,0
1,52,127,0
1,57,127,0
1,57,127,0
1,73,127,0
1,64,127,0
1,69,127,0
1,45,127,0
1,52,100,0
1,57,100,0
1,61,100,0
1,57,127,0
1,64,100,0
1,69,100,0
1,73,100,0
1,45,127,0
1,61,127,0
1,64,127,0
1,57,100,0
1,52,100,0
1,57,127,0
1,73,127,0
1,76,127,0
1,69,100,0
1,64,100,0
1,79,127,480
1,67,127,0
1,76,127,32
1,64,127,0
1,74,127,96
1,62,127,0
1,71,127,32
1,59,127,0
1,71,127,96
1,59,127,0
1,69,127,64
1,57,127,0
1,67,127,32
1,55,127,0
1,52,127,32
1,47,127,0
1,64,32,0
1,59,127,0
1,56,127,0
1,40,80,0
1,50,127,192
1,62,127,0
1,57,127,0
1,66,127,0
1,66,78,0
1,62,127,0
1,57,100,0
1,50,100,0
1,62,127,0
1,66,127,0
1,57,100,0
1,50,100,0
1,45,127,192
1,61,127,0
1,52,127,0
1,57,127,0
1,45,127,0
1,52,100,0
1,57,100,0
1,61,100,0
1,45,127,0
1,61,127,0
1,64,127,0
1,57,100,0
1,52,100,0
1,59,117,0
1,47,117,0
1,71,117,0
1,56,127,32
1,44,127,0
1,68,127,0
1,59,109,64
1,47,109,0
1,71,109,0
1,57,97,32
1,45,97,0
1,69,97,0
1,59,111,64
1,47,111,0
1,71,111,0
1,58,108,32
1,46,108,0
1,70,108,0
1,59,103,64
1,47,103,0
1,71,103,0
1,58,119,32
1,46,119,0
1,70,119,0
1,59,100,32
1,47,100,0
1,71,100,0
1,52,127,32
1,47,127,0
1,64,32,0
1,56,127,0
1,40,80,0
1,64,127,0
1,59,127,0
1,76,32,0
1,71,127,0
1,68,127,0
1,52,80,0
1,59,127,0
1,50,127,192
1,62,127,0
1,57,127,0
1,66,127,0
1,62,127,0
1,74,127,0
1,69,127,0
1,78,127,0
1,66,78,0
1,62,127,0
1,57,100,0
1,50,100,0
1,78,78,0
1,74,127,0
1,69,100,0
1,62,100,0
1,62,127,0
1,66,127,0
1,57,100,0
1,50,100,0
1,74,127,0
1,78,127,0
1,69,100,0
1,62,100,0
1,45,127,192
1,61,127,0
1,52,127,0
1,57,127,0
1,57,127,0
1,73,127,0
1,64,127,0
1,69,127,0
1,45,127,0
1,52,100,0
1,57,100,0
1,61,100,0
1,57,127,0
1,64,100,0
1,69,100,0
1,73,100,0
1,45,127,0
1,61,127,0
1,64,127,0
1,57,100,0
1,52,100,0
1,57,127,0
1,73,127,0
1,76,127,0
1,69,100,0
1,64,100,0
1,79,127,480
1,67,127,0
1,76,127,32
1,64,127,0
1,74,127,96
1,62,127,0
1,71,127,32
1,59,127,0
1,71,127,96
1,59,127,0
1,69,127,64
1,57,127,0
1,67,127,32
1,55,127,0
1,52,127,32
1,47,127,0
1,64,32,0
1,59,127,0
1,56,127,0
1,40,80,0
1,50,127,192
1,62,127,0
1,57,127,0
1,66,127,0
1,66,78,0
1,62,127,0
1,57,100,0
1,50,100,0
1,62,127,0
1,66,127,0
1,57,100,0
1,50,100,0
1,45,127,192
1,61,127,0
1,52,127,0
1,57,127,0
1,45,127,0
1,52,100,0
1,57,100,0
1,61,100,0
1,45,127,0
1,61,127,0
1,64,127,0
1,57,100,0
1,52,100,0
1,59,117,0
1,47,117,0
1,71,117,0
1,56,127,32
1,44,127,0
1,68,127,0
1,59,109,64
1,47,109,0
1,71,109,0
1,57,97,32
1,45,97,0
1,69,97,0
1,59,111,64
1,47,111,0
1,71,111,0
1,58,108,32
1,46,108,0
1,70,108,0
1,59,103,64
1,47,103,0
1,71,103,0
1,58,119,32
1,46,119,0
1,70,119,0
1,59,100,32
1,47,100,0
1,71,100,0
1,52,127,32
1,47,127,0
1,64,32,0
1,56,127,0
1,40,80,0
1,64,127,0
1,59,127,0
1,76,32,0
1,71,127,0
1,68,127,0
1,52,80,0
1,59,127,0
1,50,127,192
1,62,127,0
1,57,127,0
1,66,127,0
1,62,127,0
1,74,127,0
1,69,127,0
1,78,127,0
1,66,78,0
1,62,127,0
1,57,100,0
1,50,100,0
1,78,78,0
1,74,127,0
1,69,100,0
1,62,100,0
1,62,127,0
1,66,127,0
1,57,100,0
1,50,100,0
1,74,127,0
1,78,127,0
1,69,100,0
1,62,100,0
1,45,127,192
1,61,127,0
1,52,127,0
1,57,127,0
1,57,127,0
1,73,127,0
1,64,127,0
1,69,127,0
1,45,127,0
1,52,100,0
1,57,100,0
1,61,100,0
1,57,127,0
1,64,100,0
1,69,100,0
1,73,100,0
1,45,127,0
1,61,127,0
1,64,127,0
1,57,100,0
1,52,100,0
1,57,127,0
1,73,127,0
1,76,127,0
1,69,100,0
1,64,100,0
1,79,127,480
1,67,127,0
1,76,127,32
1,64,127,0
1,74,127,96
1,62,127,0
1,71,127,32
1,59,127,0
1,71,127,96
1,59,127,0
1,69,127,64
1,57,127,0
1,67,127,32
1,55,127,0
1,52,127,32
1,47,127,0
1,64,32,0
1,59,127,0
1,56,127,0
1,40,80,0
1,50,127,192
1,62,127,0
1,57,127,0
1,66,127,0
1,66,78,0
1,62,127,0
1,57,100,0
1,50,100,0
1,62,127,0
1,66,127,0
1,57,100,0
1,50,100,0
1,45,127,192
1,61,127,0
1,52,127,0
1,57,127,0
1,45,127,0
1,52,100,0
1,57,100,0
1,61,100,0
1,45,127,0
1,61,127,0
1,64,127,0
1,57,100,0
1,52,100,0
1,59,117,0
1,47,117,0
1,71,117,0
1,56,127,32
1,44,127,0
1,68,127,0
1,59,109,64
1,47,109,0
1,71,109,0
1,57,97,32
1,45,97,0
1,69,97,0
1,59,111,64
1,47,111,0
1,71,111,0
1,58,108,32
1,46,108,0
1,70,108,0
1,59,103,64
1,47,103,0
1,71,103,0
1,58,119,32
1,46,119,0
1,70,119,0
1,59,100,32
1,47,100,0
1,71,100,0
1,69,101,28
1,76,127,0
1,69,45,216
1,64,127,0
1,81,45,0
1,76,127,0
1,57,127,16
1,69,127,0
1,59,110,0
1,71,110,0
1,52,127,4
1,59,124,0
1,64,127,0
1,71,124,0
1,59,127,68
1,71,127,0
1,66,127,4
1,71,58,0
1,78,127,0
1,83,58,0
1,69,34,0
1,81,34,0
1,64,121,12
1,76,121,0
1,57,127,20
1,69,127,0
1,67,30,0
1,79,30,0
1,66,127,4
1,67,77,0
1,78,127,0
1,79,77,0
1,59,127,0
1,71,75,0
1,71,127,0
1,83,75,0
1,69,45,336
1,64,127,0
1,81,45,0
1,76,127,0
1,57,127,16
1,69,127,0
1,59,110,0
1,71,110,0
1,52,127,4
1,59,124,0
1,64,127,0
1,71,124,0
1,59,127,68
1,71,127,0
1,66,127,4
1,71,58,0
1,78,127,0
1,83,58,0
1,69,34,0
1,81,34,0
1,64,121,12
1,76,121,0
1,57,127,20
1,69,127,0
1,67,30,0
1,79,30,0
1,66,127,4
1,67,77,0
1,78,127,0
1,79,77,0
1,59,127,0
1,71,75,0
1,71,127,0
1,83,75,0
1,74,24,264
1,67,127,24
1,79,127,8
1,62,127,36
1,62,127,4
1,78,127,16
1,74,127,0
1,69,127,12
1,62,126,4
1,57,127,12
1,69,127,12
1,64,125,0
1,55,127,4
1,60,127,16
1,69,127,4
1,57,127,12
1,64,127,8
1,57,127,280
1,79,127,68
1,74,127,4
1,55,127,0
1,62,127,8
1,67,127,28
1,78,127,32
1,74,127,0
1,69,127,0
1,62,100,4
1,64,109,0
1,57,127,12
1,69,127,24
1,55,127,12
1,69,103,8
1,58,127,0
1,65,127,12
1,57,127,0
1,64,127,4
1,69,45,36
1,64,127,0
1,81,45,0
1,76,127,0
1,57,127,16
1,69,127,0
1,59,110,0
1,71,110,0
1,52,127,4
1,59,124,0
1,64,127,0
1,71,124,0
1,59,127,68
1,71,127,0
1,66,127,4
1,71,58,0
1,78,127,0
1,83,58,0
1,69,34,0
1,81,34,0
1,64,121,12
1,76,121,0
1,57,127,20
1,69,127,0
1,67,30,0
1,79,30,0
1,66,127,4
1,67,77,0
1,78,127,0
1,79,77,0
1,59,127,0
1,71,75,0
1,71,127,0
1,83,75,0
1,69,45,336
1,64,127,0
1,81,45,0
1,76,127,0
1,57,127,16
1,69,127,0
1,59,110,0
1,71,110,0
1,52,127,4
1,59,124,0
1,64,127,0
1,71,124,0
1,59,127,68
1,71,127,0
1,66,127,4
1,71,58,0
1,78,127,0
1,83,58,0
1,69,34,0
1,81,34,0
1,64,121,12
1,76,121,0
1,57,127,20
1,69,127,0
1,67,30,0
1,79,30,0
1,66,127,4
1,67,77,0
1,78,127,0
1,79,77,0
1,59,127,0
1,71,75,0
1,71,127,0
1,83,75,0
1,50,76,120
1,55,127,0
1,67,89,0
1,62,95,0
1,59,127,0
1,50,76,96
1,55,127,0
1,67,89,0
1,62,95,0
1,59,127,0
1,50,76,96
1,55,127,0
1,67,89,0
1,62,95,0
1,59,127,0
1,50,54,96
1,55,124,0
1,59,127,0
1,62,65,0
1,67,65,0
1,59,39,32
1,67,65,0
1,49,42,0
1,50,54,32
1,59,121,0
1,55,107,0
1,62,69,0
1,67,71,0
1,50,64,32
1,55,118,0
1,59,127,0
1,62,66,0
1,67,63,0
1,50,68,64
1,55,127,0
1,59,127,0
1,62,89,0
1,67,107,0
1,50,127,64
1,66,127,0
1,57,127,0
1,62,121,0
1,50,127,96
1,62,107,0
1,66,107,0
1,57,127,0
1,50,127,96
1,62,104,0
1,66,118,0
1,57,127,0
1,52,127,448
1,47,127,0
1,64,32,0
1,56,127,0
1,40,80,0
1,64,127,0
1,59,127,0
1,76,32,0
1,71,127,0
1,68,127,0
1,52,80,0
1,59,127,0
1,50,127,192
1,62,127,0
1,57,127,0
1,66,127,0
1,62,127,0
1,74,127,0
1,69,127,0
1,78,127,0
1,66,78,0
1,62,127,0
1,57,100,0
1,50,100,0
1,78,78,0
1,74,127,0
1,69,100,0
1,62,100,0
1,62,127,0
1,66,127,0
1,57,100,0
1,50,100,0
1,74,127,0
1,78,127,0
1,69,100,0
1,62,100,0
1,45,127,192
1,61,127,0
1,52,127,0
1,57,127,0
1,57,127,0
1,73,127,0
1,64,127,0
1,69,127,0
1,45,127,0
1,52,100,0
1,57,100,0
1,61,100,0
1,57,127,0
1,64,100,0
1,69,100,0
1,73,100,0
1,45,127,0
1,61,127,0
1,64,127,0
1,57,100,0
1,52,100,0
1,57,127,0
1,73,127,0
1,76,127,0
1,69,100,0
1,64,100,0
1,79,127,480
1,67,127,0
1,76,127,32
1,64,127,0
1,74,127,96
1,62,127,0
1,71,127,32
1,59,127,0
1,71,127,96
1,59,127,0
1,69,127,64
1,57,127,0
1,67,127,32
1,55,127,0
1,52,127,32
1,47,127,0
1,64,32,0
1,59,127,0
1,56,127,0
1,40,80,0
1,50,127,192
1,62,127,0
1,57,127,0
1,66,127,0
1,66,78,0
1,62,127,0
1,57,100,0
1,50,100,0
1,62,127,0
1,66,127,0
1,57,100,0
1,50,100,0
1,45,127,192
1,61,127,0
1,52,127,0
1,57,127,0
1,45,127,0
1,52,100,0
1,57,100,0
1,61,100,0
1,45,127,0
1,61,127,0
1,64,127,0
1,57,100,0
1,52,100,0
1,59,117,0
1,47,117,0
1,71,117,0
1,56,127,32
1,44,127,0
1,68,127,0
1,59,109,64
1,47,109,0
1,71,109,0
1,57,97,32
1,45,97,0
1,69,97,0
1,59,111,64
1,47,111,0
1,71,111,0
1,58,108,32
1,46,108,0
1,70,108,0
1,59,103,64
1,47,103,0
1,71,103,0
1,58,119,32
1,46,119,0
1,70,119,0
1,59,100,32
1,47,100,0
1,71,100,0
1,52,127,32
1,47,127,0
1,64,32,0
1,56,127,0
1,40,80,0
1,64,127,0
1,59,127,0
1,76,32,0
1,71,127,0
1,68,127,0
1,52,80,0
1,59,127,0
1,50,127,192
1,62,127,0
1,57,127,0
1,66,127,0
1,62,127,0
1,74,127,0
1,69,127,0
1,78,127,0
1,66,78,0
1,62,127,0
1,57,100,0
1,50,100,0
1,78,78,0
1,74,127,0
1,69,100,0
1,62,100,0
1,62,127,0
1,66,127,0
1,57,100,0
1,50,100,0
1,74,127,0
1,78,127,0
1,69,100,0
1,62,100,0
1,45,127,192
1,61,127,0
1,52,127,0
1,57,127,0
1,57,127,0
1,73,127,0
1,64,127,0
1,69,127,0
1,45,127,0
1,52,100,0
1,57,100,0
1,61,100,0
1,57,127,0
1,64,100,0
1,69,100,0
1,73,100,0
1,45,127,0
1,61,127,0
1,64,127,0
1,57,100,0
1,52,100,0
1,57,127,0
1,73,127,0
1,76,127,0
1,69,100,0
1,64,100,0
1,79,127,480
1,67,127,0
1,76,127,32
1,64,127,0
1,74,127,96
1,62,127,0
1,71,127,32
1,59,127,0
1,71,127,96
1,59,127,0
1,69,127,64
1,57,127,0
1,67,127,32
1,55,127,0
1,52,127,32
1,47,127,0
1,64,32,0
1,59,127,0
1,56,127,0
1,40,80,0
1,50,127,192
1,62,127,0
1,57,127,0
1,66,127,0
1,66,78,0
1,62,127,0
1,57,100,0
1,50,100,0
1,62,127,0
1,66,127,0
1,57,100,0
1,50,100,0
1,45,127,192
1,61,127,0
1,52,127,0
1,57,127,0
1,45,127,0
1,52,100,0
1,57,100,0
1,61,100,0
1,45,127,0
1,61,127,0
1,64,127,0
1,57,100,0
1,52,100,0
1,59,117,0
1,47,117,0
1,71,117,0
1,56,127,32
1,44,127,0
1,68,127,0
1,59,109,64
1,47,109,0
1,71,109,0
1,57,97,32
1,45,97,0
1,69,97,0
1,59,111,64
1,47,111,0
1,71,111,0
1,58,108,32
1,46,108,0
1,70,108,0
1,59,103,64
1,47,103,0
1,71,103,0
1,58,119,32
1,46,119,0
1,70,119,0
1,59,100,32
1,47,100,0
1,71,100,0
1,69,101,28
1,76,127,0
1,69,45,216
1,64,127,0
1,81,45,0
1,76,127,0
1,57,127,16
1,69,127,0
1,59,110,0
1,71,110,0
1,52,127,4
1,59,124,0
1,64,127,0
1,71,124,0
1,59,127,68
1,71,127,0
1,66,127,4
1,71,58,0
1,78,127,0
1,83,58,0
1,69,34,0
1,81,34,0
1,64,121,12
1,76,121,0
1,57,127,20
1,69,127,0
1,67,30,0
1,79,30,0
1,66,127,4
1,67,77,0
1,78,127,0
1,79,77,0
1,59,127,0
1,71,75,0
1,71,127,0
1,83,75,0
1,69,45,336
1,64,127,0
1,81,45,0
1,76,127,0
1,57,127,16
1,69,127,0
1,59,110,0
1,71,110,0
1,52,127,4
1,59,124,0
1,64,127,0
1,71,124,0
1,59,127,68
1,71,127,0
1,66,127,4
1,71,58,0
1,78,127,0
1,83,58,0
1,69,34,0
1,81,34,0
1,64,121,12
1,76,121,0
1,57,127,20
1,69,127,0
1,67,30,0
1,79,30,0
1,66,127,4
1,67,77,0
1,78,127,0
1,79,77,0
1,59,127,0
1,71,75,0
1,71,127,0
1,83,75,0
1,74,24,264
1,67,127,24
1,79,127,8
1,62,127,36
1,62,127,4
1,78,127,16
1,74,127,0
1,69,127,12
1,62,126,4
1,57,127,12
1,69,127,12
1,64,125,0
1,55,127,4
1,60,127,16
1,69,127,4
1,57,127,12
1,64,127,8
1,57,127,280
1,79,127,68
1,74,127,4
1,55,127,0
1,62,127,8
1,67,127,28
1,78,127,32
1,74,127,0
1,69,127,0
1,62,100,4
1,64,109,0
1,57,127,12
1,69,127,24
1,55,127,12
1,69,103,8
1,58,127,0
1,65,127,12
1,57,127,0
1,64,127,4
