track,note,velocity,time
1,86,80,3376
1,89,94,28
1,93,102,64
1,82,80,4
1,87,99,24
1,91,93,40
1,77,90,68
1,89,87,52
1,75,84,340
1,87,85,12
1,74,80,4
1,86,60,20
1,86,80,28
1,89,110,48
1,93,112,64
1,82,84,116
1,87,102,16
1,91,94,60
1,77,90,44
1,89,91,52
1,75,94,344
1,87,80,16
1,74,78,0
1,86,84,40
1,74,85,392
1,70,78,0
1,74,69,8
1,70,76,4
1,67,79,4
1,70,79,4
1,63,79,1012
1,65,82,12
1,67,80,8
1,72,94,16
1,60,90,304
1,63,107,0
1,67,106,16
1,70,93,12
1,63,87,0
1,67,107,4
1,74,105,0
1,70,108,4
1,65,77,12
1,69,94,0
1,72,92,8
1,69,91,24
1,72,106,12
1,75,107,8
1,78,100,32
1,72,99,20
1,75,94,0
1,78,76,20
1,81,106,32
1,70,84,12
1,69,83,4
1,77,80,0
1,74,95,8
1,86,80,68
1,89,107,36
1,93,117,48
1,82,74,52
1,87,89,28
1,91,100,36
1,81,74,84
1,84,86,20
1,87,84,24
1,89,87,36
1,79,92,4
1,87,111,36
1,77,87,336
1,81,99,12
1,86,94,28
1,86,82,64
1,89,98,28
1,93,112,68
1,82,59,60
1,87,99,16
1,91,100,40
1,81,45,16
1,84,58,16
1,87,89,16
1,89,98,36
1,87,109,52
1,77,94,0
1,82,93,20
1,86,81,52
1,69,81,8
1,70,84,0
1,74,74,32
1,77,85,20
1,70,87,40
1,74,95,8
1,69,84,0
1,63,79,60
1,72,90,0
1,67,106,4
1,70,90,4
1,72,93,512
1,75,93,24
1,78,74,36
1,81,99,36
1,70,87,120
1,82,87,8
1,77,104,0
1,74,83,4
1,77,94,68
1,86,92,0
1,82,100,4
1,79,80,20
1,87,99,12
1,82,87,0
1,74,79,184
1,77,94,28
1,82,87,28
1,78,97,1704
1,82,101,104
1,85,99,80
1,87,111,40
1,89,112,92
1,87,87,68
1,85,92,8
1,82,85,248
1,78,70,284
1,82,84,36
1,87,73,60
1,89,84,44
1,78,92,68
1,87,81,48
1,70,71,472
1,65,74,4
1,74,86,0
1,70,79,36
1,65,75,0
1,74,81,0
1,74,88,36
1,77,82,0
1,70,87,4
1,82,82,16
1,86,98,16
1,89,94,0
1,96,107,36
1,89,95,4
1,86,96,0
1,82,82,332
1,86,92,28
1,89,96,8
1,77,73,12
1,82,77,4
1,86,87,4
1,73,77,356
1,77,87,16
1,80,84,16
1,77,96,28
1,80,96,12
1,85,70,52
1,81,88,652
1,84,99,24
1,89,87,48
1,79,79,20
1,84,78,0
1,88,77,8
1,76,80,28
1,79,84,4
1,84,96,32
1,65,85,104
1,69,91,24
1,75,69,20
1,72,82,80
1,67,77,8
1,65,59,192
1,72,73,0
1,69,80,8
1,65,71,1320
1,69,86,24
1,70,53,40
1,74,94,32
1,70,66,52
1,77,73,0
1,74,90,4
1,69,71,4
1,86,68,0
1,89,105,44
1,93,105,64
1,82,74,12
1,87,84,20
1,91,110,64
1,77,87,324
1,89,106,52
1,75,84,308
1,87,108,36
1,74,85,4
1,86,98,20
1,86,67,80
1,89,91,36
1,93,105,68
1,82,74,32
1,87,89,44
1,91,100,52
1,77,86,40
1,89,92,48
1,75,87,0
1,87,93,28
1,74,77,332
1,86,72,28
1,74,89,36
1,77,89,0
1,79,85,172
1,82,86,112
1,79,86,0
1,84,92,160
1,81,99,4
1,82,88,0
1,86,89,8
1,72,73,108
1,75,84,16
1,79,57,44
1,87,121,136
1,91,107,4
1,89,98,104
1,86,94,8
1,90,107,92
1,87,111,0
1,87,84,56
1,84,88,4
1,90,93,68
1,87,99,0
1,89,78,100
1,82,59,0
1,86,84,8
1,94,82,4
1,89,84,8
1,98,77,0
1,94,86,48
1,98,90,0
1,89,87,4
1,86,92,56
1,89,99,0
1,94,93,8
1,89,91,32
1,94,87,0
1,86,83,0
1,89,72,124
1,82,72,4
1,86,95,8
1,82,64,12
1,86,64,0
1,86,84,4
1,89,81,0
1,82,79,0
1,74,76,52
1,77,82,4
1,77,81,24
1,74,84,4
1,79,95,4
1,74,77,12
1,81,85,0
1,77,83,4
1,82,87,4
1,77,71,0
1,74,71,4
1,82,104,12
1,77,102,8
1,74,78,0
1,77,104,4
1,74,83,0
1,65,82,28
1,70,84,0
1,74,80,4
1,58,78,0
1,65,84,4
1,70,87,0
1,62,72,4
1,69,72,12
1,70,80,4
1,74,86,20
1,77,61,24
1,69,68,76
1,74,89,8
1,77,81,0
1,75,73,228
1,70,70,0
1,67,67,16
1,69,82,244
1,72,85,16
1,77,72,32
1,77,75,32
1,89,90,48
1,70,77,36
1,74,93,0
1,69,75,0
1,74,75,84
1,69,70,12
1,77,76,4
1,70,77,264
1,75,80,0
1,67,82,8
1,82,97,324
1,74,82,4
1,72,75,36
1,77,94,4
1,81,69,0
1,70,76,60
1,74,90,32
1,77,92,20
1,70,77,60
1,74,88,24
1,79,80,20
1,72,77,76
1,75,82,4
1,79,87,32
1,69,68,56
1,72,94,8
1,75,82,44
1,79,78,8
1,69,72,40
1,75,78,4
1,72,87,4
1,78,87,16
1,70,68,24
1,65,77,0
1,74,80,4
1,69,97,64
1,70,99,72
1,72,106,28
1,74,99,76
1,75,93,60
1,65,82,308
1,70,84,16
1,74,78,52
1,78,93,1628
1,82,101,80
1,85,93,40
1,87,90,0
1,89,99,56
1,78,70,152
1,87,94,24
1,78,79,112
1,82,87,16
1,89,82,56
1,77,87,1764
1,82,81,24
1,86,94,56
1,82,71,4
1,86,92,4
1,89,86,0
1,82,77,8
1,86,94,12
1,89,92,20
1,93,92,48
1,77,84,104
1,81,90,20
1,82,66,36
1,86,99,32
1,61,70,52
1,68,72,0
1,65,92,4
1,68,74,316
1,61,76,0
1,65,99,0
1,61,68,68
1,68,63,0
1,65,95,0
1,61,70,76
1,68,66,0
1,65,99,0
1,61,94,84
1,68,96,0
1,65,100,8
1,61,81,316
1,65,99,4
1,68,75,0
1,61,47,96
1,65,76,8
1,68,59,0
1,61,77,64
1,68,74,4
1,65,99,4
1,69,91,80
1,65,91,0
1,60,89,12
1,65,87,312
1,69,82,0
1,60,71,0
1,65,91,68
1,69,74,0
1,60,75,0
1,65,92,64
1,60,76,0
1,69,78,0
1,64,96,84
1,60,85,0
1,67,104,0
1,60,82,308
1,64,87,0
1,67,99,0
1,64,85,60
1,67,91,4
1,60,76,0
1,64,90,72
1,67,101,4
1,60,76,4
1,79,91,112
1,72,89,4
1,69,73,0
1,72,86,84
1,69,73,0
1,79,75,0
1,79,81,76
1,72,92,0
1,69,75,0
1,79,86,80
1,72,94,0
1,69,76,0
1,79,99,80
1,69,87,0
1,72,102,0
1,69,94,72
1,72,106,4
1,79,90,0
1,72,105,68
1,78,103,8
1,69,92,4
1,72,99,64
1,78,93,0
1,69,83,4
1,78,108,80
1,72,111,0
1,69,92,0
1,78,108,72
1,72,111,0
1,69,88,0
1,78,113,80
1,72,111,0
1,69,90,4
1,78,110,68
1,69,90,8
1,72,107,0
1,72,99,56
1,77,113,0
1,69,91,4
1,74,75,1444
1,82,86,16
1,86,90,56
1,86,69,44
1,89,79,48
1,93,105,76
1,82,57,20
1,87,84,28
1,91,107,4
1,77,88,36
1,89,96,60
1,75,87,324
1,87,105,20
1,74,85,8
1,86,83,12
1,86,54,80
1,89,110,48
1,93,98,76
1,82,53,36
1,87,84,20
1,91,107,60
1,77,87,304
1,89,92,60
1,75,87,4
1,87,105,20
1,74,80,20
1,86,80,44
1,74,75,44
1,79,90,12
1,82,87,52
1,86,80,348
1,75,60,80
1,79,87,16
1,84,74,0
1,74,81,1172
1,86,88,64
1,74,75,28
1,77,96,16
1,82,81,4
1,74,84,40
1,86,77,24
1,63,78,28
1,67,96,0
1,63,77,200
1,66,91,4
1,63,82,44
1,66,86,76
1,70,89,100
1,66,93,64
1,70,91,48
1,77,91,8
1,74,79,4
1,77,94,12
1,82,98,4
1,86,78,32
1,86,71,20
1,89,91,0
1,94,69,20
1,86,73,12
1,89,94,0
1,94,91,4
1,89,94,8
1,94,88,8
1,98,88,52
2,34,84,2652
2,38,95,356
2,39,89,368
2,41,91,372
2,34,83,344
2,38,91,352
2,39,90,328
2,41,91,344
2,46,85,376
2,43,89,380
2,43,91,344
2,36,89,332
2,36,86,336
2,36,87,312
2,41,86,320
2,41,86,360
2,34,80,368
2,38,89,372
2,39,85,364
2,41,90,360
2,34,81,416
2,38,91,404
2,39,88,384
2,41,94,376
2,46,84,404
2,43,89,376
2,36,87,360
2,41,92,312
2,46,83,392
2,39,88,372
2,34,74,372
2,39,85,1304
2,39,88,388
2,39,85,356
2,44,86,380
2,45,89,280
2,46,88,116
2,41,89,408
2,34,84,352
2,34,81,384
2,37,89,376
2,37,88,376
2,36,86,368
2,36,91,344
2,41,85,368
2,36,85,368
2,41,84,348
2,34,81,1272
2,38,88,388
2,39,87,372
2,41,86,332
2,34,84,356
2,38,90,380
2,39,86,312
2,41,88,336
2,34,85,372
2,43,88,380
2,36,90,356
2,41,89,348
2,46,86,436
2,41,92,388
2,46,78,392
2,41,88,384
2,34,80,396
2,38,90,416
2,39,86,404
2,41,89,388
2,34,83,396
2,38,88,368
2,39,90,384
2,41,94,384
2,46,89,404
2,43,88,424
2,36,86,384
2,41,87,396
2,34,84,384
2,39,87,384
2,34,81,388
2,39,89,1284
2,39,85,388
2,39,92,380
2,44,86,376
2,45,89,292
2,46,88,0
2,41,90,376
2,34,84,416
2,46,85,376
2,37,85,388
2,37,82,244
2,37,83,56
2,37,87,64
2,37,87,64
2,37,85,276
2,37,85,56
2,37,86,64
2,36,89,60
2,36,90,284
2,36,90,64
2,36,91,52
2,36,93,64
2,36,92,296
2,36,92,60
2,36,90,72
2,41,86,76
2,41,80,68
2,41,88,60
2,41,83,72
2,41,88,68
2,41,88,64
2,41,89,64
2,41,87,64
2,41,88,68
2,41,88,64
2,41,89,64
2,41,88,64
2,41,92,64
2,34,76,1464
2,38,90,380
2,39,83,396
2,41,87,392
2,34,78,416
2,38,83,412
2,39,85,396
2,41,89,416
2,46,85,396
2,43,91,384
2,36,86,380
2,36,89,412
2,41,91,48
2,46,80,12
2,43,84,416
2,36,87,424
2,41,89,400
2,46,83,400
2,41,88,392
2,34,82,404
3,58,27,3004
3,53,101,0
3,62,100,12
3,65,85,4
3,50,91,644
3,62,46,4
3,57,96,0
3,65,110,8
3,51,89,636
3,55,100,12
3,58,112,0
3,63,109,4
3,53,55,632
3,57,94,12
3,60,108,4
3,65,98,4
3,53,87,620
3,62,43,4
3,58,91,4
3,65,103,12
3,50,96,656
3,57,92,4
3,62,101,4
3,65,27,8
3,55,94,640
3,51,96,4
3,58,96,0
3,53,96,608
3,57,95,4
3,60,103,8
3,65,34,4
3,53,95,608
3,62,39,4
3,58,91,8
3,50,92,620
3,58,99,4
3,55,91,4
3,62,65,4
3,50,98,644
3,58,27,4
3,55,93,0
3,62,66,12
3,48,64,628
3,53,92,4
3,58,108,8
3,62,100,4
3,48,92,628
3,55,90,4
3,58,98,4
3,63,27,24
3,55,30,648
3,48,90,4
3,58,111,8
3,63,101,0
3,53,91,632
3,63,32,4
3,57,89,4
3,53,77,628
3,63,52,4
3,57,81,0
3,66,65,12
3,58,85,620
3,53,88,4
3,62,97,0
3,65,30,8
3,50,84,640
3,62,44,4
3,57,92,0
3,65,62,12
3,51,86,620
3,58,67,4
3,55,89,4
3,63,95,8
3,53,85,632
3,57,89,4
3,60,97,8
3,65,77,12
3,53,89,620
3,58,89,4
3,62,92,8
3,50,66,648
3,57,92,4
3,62,100,8
3,65,91,4
3,51,83,628
3,55,90,4
3,58,103,8
3,63,72,4
3,57,92,624
3,60,108,4
3,65,91,8
3,53,65,616
3,62,37,4
3,58,88,4
3,65,52,8
3,50,71,616
3,55,90,8
3,62,51,0
3,58,111,4
3,48,74,628
3,55,91,4
3,58,111,8
3,63,99,4
3,53,81,624
3,57,92,8
3,63,99,8
3,66,88,4
3,53,69,584
3,58,88,4
3,65,44,4
3,62,102,0
3,51,49,604
3,63,44,8
3,55,85,0
3,58,101,0
3,53,52,240
3,58,86,1720
3,51,94,4
3,63,67,0
3,51,81,624
3,58,85,0
3,63,92,4
3,66,52,8
3,51,86,624
3,63,98,8
3,66,71,8
3,58,89,0
3,51,71,608
3,56,85,0
3,60,98,4
3,63,73,8
3,53,78,612
3,58,88,4
3,62,93,12
3,53,83,624
3,62,41,4
3,58,88,0
3,65,66,12
3,53,67,616
3,58,87,4
3,62,99,8
3,65,95,4
3,53,85,628
3,58,91,4
3,62,92,8
3,49,72,616
3,56,92,4
3,61,100,8
3,49,92,616
3,61,52,0
3,56,92,4
3,53,94,632
3,60,54,4
3,57,94,4
3,65,58,12
3,52,72,640
3,60,39,8
3,55,91,0
3,53,92,624
3,60,48,0
3,57,92,4
3,65,90,8
3,53,84,648
3,57,95,4
3,65,107,4
3,53,60,248
3,57,94,4
3,60,108,8
3,65,92,8
3,53,41,1776
3,58,89,8
3,65,27,4
3,62,102,0
3,50,39,624
3,62,27,0
3,57,94,4
3,65,107,8
3,58,102,628
3,63,110,4
3,55,81,8
3,60,30,620
3,57,85,4
3,65,81,12
3,53,92,600
3,62,37,4
3,58,89,0
3,50,88,616
3,62,30,0
3,57,92,4
3,65,85,12
3,51,80,616
3,58,37,4
3,55,92,4
3,63,81,12
3,53,92,608
3,60,34,4
3,57,92,0
3,65,65,16
3,62,64,604
3,58,92,0
3,53,93,0
3,65,94,12
3,50,81,612
3,55,94,0
3,58,103,8
3,62,76,8
3,48,34,608
3,58,32,8
3,55,91,0
3,63,110,8
3,53,74,588
3,57,94,8
3,63,98,8
3,65,72,4
3,53,73,616
3,58,90,4
3,62,99,8
3,53,92,600
3,58,88,4
3,62,83,8
3,53,98,632
3,58,94,4
3,46,35,8
3,62,90,0
3,53,83,632
3,58,91,4
3,62,102,8
3,65,74,8
3,53,98,644
3,58,97,8
3,62,100,0
3,57,91,596
3,50,83,0
3,62,98,8
3,65,65,4
3,51,72,604
3,55,92,8
3,58,105,4
3,63,94,4
3,53,90,604
3,60,32,4
3,57,91,4
3,65,41,16
3,46,32,632
3,53,98,8
3,62,35,0
3,58,87,0
3,57,89,584
3,50,98,4
3,65,32,4
3,62,99,8
3,55,92,596
3,58,112,8
3,63,110,8
3,53,91,620
3,60,44,4
3,57,92,8
3,65,27,16
3,53,96,612
3,58,97,4
3,62,104,4
3,50,99,616
3,53,101,4
3,58,112,12
3,62,96,4
3,48,96,604
3,55,94,0
3,58,111,4
3,63,92,16
3,53,80,624
3,57,92,8
3,63,102,8
3,65,104,4
3,53,83,612
3,58,89,4
3,62,101,8
3,65,60,8
3,51,92,608
3,58,87,4
3,63,98,12
3,67,74,8
3,53,86,216
3,58,91,4
3,62,98,8
3,65,92,12
3,51,92,1776
3,58,91,4
3,63,97,4
3,66,86,8
3,51,89,612
3,58,89,4
3,63,92,4
3,66,101,8
3,51,93,620
3,58,87,16
3,63,101,0
3,66,100,4
3,51,70,632
3,56,92,4
3,60,106,8
3,63,108,8
3,53,87,624
3,58,91,8
3,62,101,4
3,65,87,8
3,53,87,612
3,62,98,12
3,67,72,12
3,53,83,612
3,62,101,12
3,58,92,4
3,65,43,8
3,53,86,620
3,58,89,4
3,62,98,4
3,65,105,8
3,56,94,252
3,61,99,4
3,49,96,292
3,56,73,8
3,49,104,8
3,49,103,16
3,56,85,8
3,49,107,0
3,61,27,4
3,56,98,4
3,49,101,268
3,56,94,8
3,61,87,8
3,49,105,0
3,56,101,4
3,61,58,12
3,56,96,0
3,57,95,84
3,60,94,8
3,53,66,232
3,57,95,8
3,60,107,4
3,65,105,8
3,57,92,4
3,60,110,4
3,57,93,4
3,55,97,80
3,60,109,4
3,48,41,240
3,55,98,8
3,60,107,4
3,64,67,4
3,55,100,4
3,60,108,4
3,57,88,136
3,53,44,120
3,60,61,136
3,53,89,16
3,60,37,12
3,53,98,12
3,53,91,12
3,60,48,16
3,53,92,4
3,60,73,16
