track,note,velocity,time
1,40,39,1140
1,52,91,184
1,47,58,16
1,50,54,84
1,50,89,152
1,47,58,192
1,52,87,12
1,40,39,192
1,52,90,188
1,47,49,0
1,50,45,44
1,50,93,144
1,47,49,192
1,52,87,4
1,40,36,4
1,52,90,200
1,47,40,48
1,50,49,92
1,50,89,152
1,47,40,184
1,52,85,92
1,40,34,4
1,52,88,200
1,47,36,32
1,50,48,80
1,50,89,148
1,47,36,192
1,52,85,84
1,40,25,4
1,52,65,196
1,47,35,8
1,50,37,72
1,50,68,148
1,47,35,188
1,52,63,40
1,40,25,8
1,52,63,188
1,47,37,24
1,50,37,92
1,50,68,152
1,47,37,188
1,52,61,16
1,40,25,4
1,52,62,200
1,47,25,60
1,50,30,100
1,50,65,148
1,47,25,192
1,52,69,48
1,40,23,184
1,52,61,196
1,47,29,24
1,50,33,68
1,50,67,152
1,47,29,188
1,52,67,0
1,40,25,4
1,52,62,200
1,47,30,36
1,50,33,104
1,50,68,148
1,47,30,188
1,52,68,36
1,40,25,4
1,52,63,196
1,47,31,12
1,50,30,80
1,50,69,152
1,47,31,188
1,52,68,8
1,52,73,3068
1,57,79,12
1,61,81,4
1,64,35,4
1,64,76,20
1,61,68,44
1,57,67,52
1,52,73,148
1,56,69,8
1,59,33,8
1,59,52,40
1,56,74,20
1,64,78,40
1,64,85,4
1,59,62,8
1,52,82,52
1,56,65,4
1,52,84,36
1,57,87,8
1,61,76,8
1,64,84,0
1,61,65,4
1,61,78,4
1,57,76,16
1,59,67,40
1,55,38,12
1,40,87,76
1,52,64,12
1,64,78,4
1,59,82,72
1,52,77,40
1,56,65,12
1,61,71,48
1,52,87,0
1,57,87,4
1,61,74,68
1,64,80,48
1,52,55,32
1,61,66,52
1,57,76,44
1,61,67,8
1,64,78,16
1,61,62,28
1,57,87,4
1,61,71,8
1,57,72,4
1,66,81,4
1,64,94,4
1,61,88,0
1,64,82,2204
1,62,86,172
1,64,80,12
1,64,88,0
1,59,90,12
1,56,76,12
1,40,39,164
1,52,91,184
1,47,58,16
1,50,54,84
1,50,89,152
1,47,58,192
1,52,87,12
1,40,39,192
1,52,90,188
1,47,49,0
1,50,45,44
1,50,93,144
1,47,49,192
1,52,87,4
1,40,36,4
1,52,90,200
1,47,40,48
1,50,49,92
1,50,89,152
1,47,40,184
1,52,85,92
1,40,34,4
1,52,88,200
1,47,36,32
1,50,48,80
1,50,89,148
1,47,36,192
1,52,85,84
1,40,25,4
1,52,65,196
1,47,35,8
1,50,37,72
1,50,68,148
1,47,35,188
1,52,63,40
1,40,25,8
1,52,63,188
1,47,37,24
1,50,37,92
1,50,68,152
1,47,37,188
1,52,61,16
1,40,25,4
1,52,62,200
1,47,25,60
1,50,30,100
1,50,65,148
1,47,25,192
1,52,69,48
1,40,23,184
1,52,61,196
1,47,29,24
1,50,33,68
1,50,67,152
1,47,29,188
1,52,67,0
1,40,25,4
1,52,62,200
1,47,30,36
1,50,33,104
1,50,68,148
1,47,30,188
1,52,68,36
1,40,25,4
1,52,63,196
1,47,31,12
1,50,30,80
1,50,69,152
1,47,31,188
1,52,68,8
1,64,94,3076
1,57,49,0
1,61,80,0
1,52,38,404
1,61,70,132
1,64,85,24
1,61,68,8
1,64,48,16
1,56,76,132
1,52,74,0
1,59,69,12
1,64,76,0
1,59,39,4
1,62,82,92
1,56,42,12
1,59,31,372
1,61,72,80
1,57,76,8
1,52,40,8
1,61,47,28
1,64,44,8
1,64,84,32
1,61,56,4
1,61,74,84
1,52,78,48
1,56,80,8
1,59,68,8
1,64,88,0
1,59,65,12
1,56,51,60
1,40,34,32
1,59,64,12
1,52,45,4
1,56,55,0
1,61,78,96
1,57,76,0
1,52,76,0
1,64,73,40
1,61,67,116
1,57,46,116
1,61,58,76
1,52,79,12
1,57,28,80
1,64,78,60
1,61,58,0
1,61,68,60
1,57,84,60
1,52,76,4
1,59,90,80
1,54,65,4
1,63,86,8
1,40,39,27400
1,52,91,184
1,47,58,16
1,50,54,84
1,50,89,152
1,47,58,192
1,52,87,12
1,40,39,192
1,52,90,188
1,47,49,0
1,50,45,44
1,50,93,144
1,47,49,192
1,52,87,4
1,40,36,4
1,52,90,200
1,47,40,48
1,50,49,92
1,50,89,152
1,47,40,184
1,52,85,92
1,40,34,4
1,52,88,200
1,47,36,32
1,50,48,80
1,50,89,148
1,47,36,192
1,52,85,84
1,40,25,4
1,52,65,196
1,47,35,8
1,50,37,72
1,50,68,148
1,47,35,188
1,52,63,40
1,40,25,8
1,52,63,188
1,47,37,24
1,50,37,92
1,50,68,152
1,47,37,188
1,52,61,16
1,40,25,4
1,52,62,200
1,47,25,60
1,50,30,100
1,50,65,148
1,47,25,192
1,52,69,48
1,40,23,184
1,52,61,196
1,47,29,24
1,50,33,68
1,50,67,152
1,47,29,188
1,52,67,0
1,40,25,4
1,52,62,200
1,47,30,36
1,50,33,104
1,50,68,148
1,47,30,188
1,52,68,36
1,40,25,4
1,52,63,196
1,47,31,12
1,50,30,80
1,50,69,152
1,47,31,188
1,52,68,8
1,52,65,3068
1,57,84,8
1,61,85,8
1,64,58,4
1,64,75,28
1,61,67,56
1,52,74,36
1,59,62,0
1,56,71,4
1,64,68,20
1,59,71,40
1,52,45,0
1,52,78,8
1,57,77,4
1,61,58,12
1,64,70,20
1,61,62,64
1,57,53,92
1,61,42,48
1,52,78,12
1,59,38,20
1,56,82,4
1,59,78,60
1,56,54,144
1,64,76,32
1,52,78,8
1,57,84,12
1,61,71,4
1,61,74,44
1,64,76,40
1,57,81,36
1,61,61,0
1,52,50,48
1,64,82,12
1,61,61,4
1,61,75,72
1,52,64,24
1,57,74,8
1,54,69,64
1,59,86,8
1,63,88,8
1,64,86,2220
1,59,76,16
1,56,55,20
1,57,75,36
1,61,86,16
1,64,76,8
1,64,58,4
1,56,53,4
1,59,24,4
1,40,39,80
1,52,91,184
1,47,58,16
1,50,54,84
1,50,89,152
1,47,58,192
1,52,87,12
1,40,39,4
1,52,90,188
1,47,49,0
1,50,45,44
1,50,93,144
1,47,49,192
1,52,87,4
1,40,36,4
1,52,90,200
1,47,40,48
1,50,49,92
1,50,89,152
1,47,40,184
1,52,85,92
1,40,34,4
1,52,61,200
1,62,82,28
1,52,33,0
1,56,77,0
1,64,93,8
1,64,94,24
1,59,84,4
1,57,72,44
1,61,79,8
1,64,90,0
1,61,74,12
1,61,75,84
1,52,68,96
1,59,74,16
1,56,81,4
1,64,84,52
1,62,77,376
1,52,58,4
1,57,57,20
1,64,86,52
1,61,65,8
1,57,33,16
1,61,76,8
1,61,62,80
1,52,75,24
1,59,70,16
1,56,78,8
1,56,48,88
1,59,68,48
1,64,78,24
1,52,33,88
1,57,82,16
1,61,84,4
1,61,74,20
1,64,82,52
1,61,77,8
1,61,55,40
1,52,62,12
1,57,74,0
1,61,67,4
1,61,46,16
1,64,83,0
1,61,57,12
1,61,79,68
1,57,70,12
1,54,31,108
1,59,84,0
1,63,83,8
1,64,85,2236
1,56,44,16
1,59,71,0
1,61,80,4
1,57,62,12
1,56,43,16
1,59,67,0
1,64,81,0
1,40,39,196
1,52,91,184
1,47,58,16
1,50,54,84
1,50,89,152
1,47,58,40
1,52,87,12
1,40,39,192
1,52,90,188
1,47,49,0
1,50,45,44
1,50,93,144
1,47,49,192
1,52,87,4
1,40,36,4
1,52,90,200
1,47,40,48
1,50,49,92
1,50,89,152
1,47,40,184
1,52,85,92
1,40,34,4
2,40,93,1116
2,40,72,56
2,40,106,4
2,47,93,384
2,40,93,124
2,40,99,140
2,40,89,4
2,47,92,388
2,40,92,88
2,40,94,160
2,40,89,4
2,47,89,384
2,40,89,76
2,40,85,128
2,40,85,4
2,47,94,0
2,40,94,80
2,40,99,152
2,40,92,4
2,47,89,368
2,40,89,64
2,40,95,148
2,40,101,8
2,47,86,372
2,40,84,44
2,40,97,176
2,40,96,12
2,47,90,368
2,40,90,72
2,40,97,144
2,40,93,4
2,47,96,372
2,40,92,28
2,40,101,192
2,40,94,4
2,47,99,376
2,40,97,104
2,40,111,220
2,40,113,4
2,49,102,372
2,47,99,120
2,45,94,2812
2,45,94,276
2,40,89,188
2,40,89,300
2,45,89,272
2,45,88,236
2,40,88,284
2,40,81,244
2,45,92,248
2,45,85,280
2,45,89,296
2,45,95,320
2,47,104,344
2,40,97,2772
2,40,77,136
2,40,106,12
2,47,87,384
2,40,88,56
2,40,90,172
2,40,85,4
2,47,86,384
2,40,77,52
2,40,95,180
2,40,75,4
2,47,85,48
2,40,79,52
2,40,99,232
2,40,103,12
2,47,82,40
2,40,92,20
2,40,99,172
2,40,99,16
2,47,85,60
2,40,89,72
2,40,99,188
2,40,90,4
2,47,89,32
2,40,89,44
2,40,89,212
2,40,89,8
2,47,87,28
2,40,89,60
2,40,99,228
2,40,99,4
2,47,89,8
2,40,89,64
2,40,97,248
2,40,85,4
2,47,90,76
2,40,94,52
2,40,101,316
2,40,101,4
2,49,102,0
2,47,104,72
2,45,97,2824
2,45,89,248
2,40,92,344
2,40,89,296
2,45,92,292
2,45,95,292
2,40,90,328
2,40,97,308
2,45,90,296
2,45,89,296
2,45,89,244
2,45,89,352
2,47,107,384
2,40,93,2956
2,40,100,116
2,40,97,4
2,47,82,468
2,40,85,48
2,40,96,168
2,40,96,4
2,47,89,380
2,40,86,96
2,40,89,180
2,40,76,4
2,47,88,8
2,40,84,92
2,40,96,184
2,40,103,8
2,47,84,380
2,40,82,112
2,40,95,160
2,40,90,4
2,47,89,12
2,40,86,152
2,40,94,208
2,40,111,4
2,47,91,372
2,40,95,64
2,45,97,2888
2,45,89,272
2,40,85,340
2,40,89,316
2,45,89,332
2,45,88,436
2,40,87,272
2,40,86,300
2,45,82,288
2,45,82,304
2,40,87,256
2,40,84,312
2,47,79,336
2,47,79,268
2,40,89,308
2,40,95,240
2,40,96,4
2,47,83,384
2,40,80,152
2,40,96,208
2,40,83,12
2,47,79,384
2,40,89,116
2,40,90,188
2,40,96,12
2,47,87,380
2,40,94,168
2,40,89,212
2,40,90,8
2,47,82,376
2,40,86,136
2,40,92,208
2,40,87,8
2,47,81,380
2,40,86,148
2,40,89,200
2,40,82,4
2,47,81,0
2,40,82,124
2,40,87,208
2,40,85,4
2,47,84,384
2,40,82,132
2,40,95,192
2,40,96,4
2,47,82,380
2,40,85,112
2,40,90,196
2,40,81,4
2,47,89,392
2,40,86,132
2,40,89,208
2,40,89,8
2,47,95,380
2,40,85,128
2,40,94,200
2,40,106,4
2,49,98,376
2,47,95,72
2,45,94,2920
2,45,84,272
2,40,86,296
2,40,86,268
2,45,88,356
2,45,82,260
2,40,87,308
2,40,92,296
2,45,82,308
2,45,87,288
2,45,82,284
2,45,89,340
2,47,99,328
2,40,93,2812
2,40,92,176
2,47,84,40
2,40,79,88
2,40,94,208
2,40,80,8
2,47,86,380
2,40,84,56
2,40,92,208
2,40,86,4
2,47,87,60
2,40,82,92
2,40,92,244
2,40,86,4
2,47,89,12
2,45,77,152
2,45,92,316
2,40,82,284
2,40,86,328
2,45,84,296
2,45,84,308
2,40,85,276
2,40,92,324
2,45,82,308
2,45,84,300
2,45,87,292
2,45,93,304
2,47,100,332
2,40,88,2684
2,40,89,172
2,40,100,4
2,47,84,388
2,40,84,92
2,40,84,232
2,40,104,4
2,47,82,388
2,40,86,64
2,40,94,264
2,40,109,12
2,47,86,40
2,40,93,32
3,40,74,1096
3,43,66,176
3,44,61,184
3,47,62,344
3,40,70,200
3,43,70,200
3,44,63,184
3,47,58,0
3,40,70,188
3,43,61,188
3,44,58,188
3,47,52,360
3,40,64,140
3,43,58,236
3,44,52,184
3,47,51,376
3,40,60,172
3,43,60,264
3,44,54,188
3,47,58,344
3,40,69,156
3,43,62,236
3,44,55,188
3,47,56,360
3,40,68,156
3,43,63,240
3,44,58,200
3,47,53,0
3,40,68,196
3,43,65,248
3,44,68,188
3,47,59,352
3,40,67,148
3,43,71,316
3,44,57,4
3,47,60,368
3,40,71,128
3,43,69,288
3,44,52,184
3,47,56,368
3,40,65,100
3,40,74,15264
3,43,66,176
3,44,61,184
3,47,62,344
3,40,70,200
3,43,70,200
3,44,63,184
3,47,58,0
3,40,70,188
3,43,61,188
3,44,58,188
3,47,52,360
3,40,64,140
3,43,58,236
3,44,52,184
3,47,51,376
3,40,60,172
3,43,60,264
3,44,54,188
3,47,58,344
3,40,69,156
3,43,62,236
3,44,55,188
3,47,56,360
3,40,68,156
3,43,63,240
3,44,58,200
3,47,53,0
3,40,68,196
3,43,65,248
3,44,68,188
3,47,59,352
3,40,67,148
3,43,71,316
3,44,57,4
3,47,60,368
3,40,71,128
3,43,69,288
3,44,52,184
3,47,56,368
3,40,65,100
3,40,74,15264
3,43,66,176
3,44,61,184
3,47,62,344
3,40,70,200
3,43,70,200
3,44,63,184
3,47,58,0
3,40,70,188
3,43,61,188
3,44,58,188
3,47,52,360
3,40,64,140
3,43,58,236
3,44,52,184
3,47,51,376
3,40,60,172
3,43,60,264
3,44,54,188
3,47,58,344
3,40,69,156
3,43,62,236
3,44,55,188
3,47,56,360
3,47,68,156
3,40,74,13500
3,43,66,176
3,44,61,184
3,47,62,344
3,40,70,200
3,43,66,176
3,44,61,184
3,47,62,344
3,40,70,200
3,43,70,200
3,44,63,184
3,47,58,0
3,40,70,188
3,43,61,188
3,44,58,188
3,47,52,360
3,40,64,140
3,43,58,236
3,44,52,184
3,47,51,376
3,40,60,172
3,43,60,264
3,44,54,188
3,47,58,344
3,40,69,156
3,43,62,236
3,44,55,188
3,47,56,360
3,40,68,156
3,43,63,240
3,44,58,200
3,47,53,0
3,40,68,196
3,43,65,248
3,44,68,188
3,47,59,352
3,40,67,148
3,43,71,316
3,44,57,4
3,47,60,368
3,40,71,128
3,43,69,288
3,44,52,184
3,47,56,368
3,40,65,100
3,40,74,15264
3,43,66,176
3,44,61,184
3,47,62,344
3,40,70,200
3,43,66,176
3,44,61,184
3,47,62,344
3,40,70,200
3,43,70,200
3,44,63,184
3,47,58,0
3,40,70,188
3,43,61,188
3,44,58,188
3,47,52,360
3,40,74,12444
3,43,66,176
3,44,61,184
3,47,62,344
3,40,70,200
3,43,66,176
3,44,61,184
3,47,62,344
3,40,70,200
3,43,70,200
3,44,63,184
3,47,58,0
3,40,70,188
4,59,96,6604
4,59,85,100
4,59,94,96
4,64,104,64
4,64,90,72
4,66,99,88
4,66,91,52
4,68,114,32
4,68,95,96
4,64,100,208
4,59,84,548
4,64,90,160
4,64,80,76
4,66,91,208
4,66,87,112
4,68,95,68
4,71,90,64
4,64,96,836
4,64,82,116
4,66,97,20
4,64,92,116
4,68,85,120
4,68,99,100
4,64,83,40
4,71,114,200
4,73,105,52
4,66,84,380
4,66,84,80
4,69,107,80
4,68,92,92
4,64,86,4
4,76,112,100
4,76,105,108
4,76,90,140
4,76,90,8
4,76,102,124
4,73,95,12
4,73,80,88
4,73,84,40
4,76,97,172
4,76,96,104
4,76,100,44
4,71,108,72
4,76,114,744
4,76,110,148
4,73,89,32
4,76,108,136
4,76,105,164
4,71,110,16
4,69,101,832
4,68,97,384
4,69,105,36
4,71,102,380
4,73,114,36
4,73,103,100
4,76,107,4
4,76,118,172
4,76,110,116
4,66,117,384
4,66,117,24
4,69,101,60
4,68,109,140
4,64,83,48
4,61,97,5768
4,59,85,16
4,59,76,88
4,64,95,56
4,64,91,192
4,66,92,44
4,64,96,172
4,68,105,36
4,68,95,140
4,64,90,228
4,59,81,512
4,64,102,64
4,64,86,160
4,66,101,88
4,64,97,144
4,68,101,188
4,71,104,164
4,64,97,836
4,64,96,160
4,66,109,84
4,64,105,176
4,68,95,44
4,68,101,156
4,64,96,0
4,73,120,232
4,71,101,556
4,66,110,444
4,66,94,92
4,69,110,64
4,68,103,84
4,64,93,40
4,76,116,136
4,76,120,316
4,76,108,256
4,76,94,76
4,76,90,52
4,76,101,104
4,73,84,140
4,73,84,76
4,73,94,52
4,76,94,140
4,76,91,84
4,76,93,48
4,71,97,24
