track,note,velocity,time
1,72,60,720
1,72,0,120
1,73,55,0
1,73,0,120
1,75,60,0
1,75,0,90
1,75,61,150
1,75,0,90
1,75,63,150
1,75,0,90
1,80,69,150
1,80,0,90
1,75,61,150
1,75,0,720
1,73,57,0
1,73,0,120
1,72,54,0
1,72,0,120
1,70,60,0
1,70,0,480
1,72,59,0
1,72,0,480
1,75,59,0
1,75,0,240
1,73,51,0
1,73,0,60
1,75,46,0
1,75,0,60
1,73,51,0
1,73,0,120
1,72,59,0
1,72,0,120
1,72,60,120
1,72,0,120
1,73,55,0
1,73,0,120
1,75,60,0
1,75,0,90
1,75,59,150
1,75,0,90
1,75,64,150
1,75,0,90
1,80,66,150
1,80,0,90
1,75,61,150
1,75,0,720
1,73,57,0
1,73,0,120
1,72,54,0
1,72,0,120
1,70,60,0
1,70,0,240
1,73,51,0
1,73,0,180
1,67,59,60
1,67,0,240
1,70,50,0
1,70,0,180
1,68,60,60
1,68,0,480
1,72,60,240
1,72,0,120
1,73,55,0
1,73,0,120
1,75,60,0
1,75,0,90
1,75,58,150
1,75,0,90
1,75,64,150
1,75,0,90
1,80,66,150
1,80,0,90
1,75,61,150
1,75,0,720
1,73,57,0
1,73,0,120
1,72,54,0
1,72,0,120
1,70,60,0
1,70,0,480
1,72,59,0
1,72,0,480
1,75,59,0
1,75,0,240
1,73,51,0
1,73,0,60
1,75,46,0
1,75,0,60
1,73,51,0
1,73,0,120
1,72,59,0
1,72,0,240
1,72,60,0
1,72,0,120
1,73,55,0
1,73,0,120
1,75,60,0
1,75,0,90
1,75,61,150
1,75,0,90
1,75,61,150
1,75,0,90
1,80,66,150
1,80,0,90
1,75,61,150
1,75,0,720
1,73,57,0
1,73,0,120
1,72,54,0
1,72,0,120
1,70,60,0
1,70,0,240
1,73,51,0
1,73,0,180
1,67,59,60
1,67,0,240
1,70,50,0
1,70,0,180
1,68,60,60
1,68,0,480
1,75,53,240
1,75,0,240
1,77,59,0
1,77,0,240
1,75,56,0
1,75,0,240
1,74,56,0
1,74,0,180
1,83,59,60
1,83,0,240
1,82,59,0
1,82,0,240
1,79,53,0
1,79,0,240
1,75,53,0
1,75,0,240
1,72,59,0
1,72,0,180
1,75,53,0
1,75,0,60
1,73,61,0
1,73,0,240
1,72,55,0
1,72,0,240
1,71,55,0
1,71,0,180
1,80,59,60
1,80,0,240
1,79,59,0
1,79,0,240
1,75,53,0
1,75,0,240
1,72,53,0
1,72,0,240
1,68,59,0
1,68,0,180
1,72,53,0
1,72,0,60
1,70,61,0
1,70,0,240
1,68,53,0
1,68,0,240
1,67,53,0
1,67,0,180
1,77,59,60
1,77,0,240
1,75,59,0
1,75,0,240
1,72,53,0
1,72,0,240
1,68,53,0
1,68,0,180
1,75,59,60
1,75,0,240
1,74,59,0
1,74,0,240
1,77,51,0
1,77,0,240
1,80,53,0
1,80,0,240
1,74,50,0
1,74,0,240
1,75,59,0
1,75,0,240
1,77,49,0
1,77,0,80
1,75,47,0
1,75,0,80
1,74,47,0
1,74,0,80
1,75,59,0
1,75,0,90
1,75,56,150
1,75,0,90
1,74,59,150
1,74,0,240
1,77,48,0
1,77,0,240
1,80,51,0
1,80,0,240
1,74,43,0
1,74,0,240
1,77,53,0
1,77,0,240
1,75,47,0
1,75,0,120
1,72,60,360
1,72,0,120
1,73,55,0
1,73,0,120
1,75,60,0
1,75,0,90
1,75,61,150
1,75,0,90
1,75,63,150
1,75,0,90
1,80,66,150
1,80,0,90
1,75,61,150
1,75,0,720
1,73,57,0
1,73,0,120
1,72,54,0
1,72,0,120
1,70,60,0
1,70,0,180
1,70,53,60
1,70,0,240
1,72,59,0
1,72,0,180
1,72,53,60
1,72,0,180
1,75,59,60
1,75,0,240
1,73,51,0
1,73,0,60
1,75,46,0
1,75,0,60
1,73,51,0
1,73,0,120
1,72,59,0
1,72,0,240
1,72,60,0
1,72,0,120
1,73,55,0
1,73,0,120
1,75,60,0
1,75,0,90
1,75,57,150
1,75,0,90
1,75,59,150
1,75,0,90
1,80,66,150
1,80,0,90
1,75,61,150
1,75,0,720
1,73,57,0
1,73,0,120
1,72,54,0
1,72,0,120
1,70,62,0
1,70,0,120
1,73,43,0
1,73,0,120
1,70,55,0
1,70,0,120
1,73,43,0
1,73,0,120
1,67,59,0
1,67,0,120
1,70,50,120
1,70,0,180
1,68,60,60
1,68,0,480
1,75,53,240
1,75,0,240
1,77,59,0
1,77,0,240
1,75,56,0
1,75,0,240
1,74,56,0
1,74,0,180
1,83,59,60
1,83,0,240
1,82,59,0
1,82,0,240
1,79,53,0
1,79,0,240
1,75,53,0
1,75,0,240
1,72,59,0
1,72,0,180
1,75,53,0
1,75,0,60
1,73,61,0
1,73,0,240
1,72,55,0
1,72,0,240
1,71,55,0
1,71,0,180
1,80,59,60
1,80,0,240
1,79,59,0
1,79,0,240
1,75,53,0
1,75,0,240
1,72,53,0
1,72,0,240
1,68,59,0
1,68,0,180
1,72,53,0
1,72,0,60
1,70,61,0
1,70,0,240
1,68,53,0
1,68,0,240
1,67,53,0
1,67,0,180
1,77,59,60
1,77,0,240
1,75,59,0
1,75,0,240
1,72,53,0
1,72,0,240
1,68,53,0
1,68,0,180
1,75,59,60
1,75,0,240
1,74,59,0
1,74,0,240
1,77,51,0
1,77,0,240
1,80,53,0
1,80,0,240
1,74,50,0
1,74,0,240
1,75,59,0
1,75,0,240
1,77,49,0
1,77,0,80
1,75,47,0
1,75,0,80
1,74,47,0
1,74,0,80
1,75,59,0
1,75,0,90
1,75,56,150
1,75,0,90
1,74,59,150
1,74,0,240
1,77,48,0
1,77,0,240
1,80,51,0
1,80,0,240
1,74,43,0
1,74,0,240
1,77,53,0
1,77,0,240
1,75,47,0
1,75,0,120
1,72,60,360
1,72,0,120
1,73,55,0
1,73,0,120
1,75,60,0
1,75,0,90
1,75,61,150
1,75,0,90
1,75,63,150
1,75,0,90
1,80,66,150
1,80,0,90
1,75,61,150
1,75,0,720
1,73,57,0
1,73,0,120
1,72,54,0
1,72,0,120
1,70,60,0
1,70,0,180
1,70,53,60
1,70,0,240
1,72,59,0
1,72,0,180
1,72,53,60
1,72,0,180
1,75,59,60
1,75,0,240
1,73,51,0
1,73,0,60
1,75,46,0
1,75,0,60
1,73,51,0
1,73,0,120
1,72,59,0
1,72,0,240
1,72,60,0
1,72,0,120
1,73,55,0
1,73,0,120
1,75,60,0
1,75,0,90
1,75,57,150
1,75,0,90
1,75,59,150
1,75,0,90
1,80,66,150
1,80,0,90
1,75,61,150
1,75,0,720
1,73,57,0
1,73,0,120
1,72,54,0
1,72,0,120
1,70,62,0
1,70,0,120
1,73,43,0
1,73,0,120
1,70,55,0
1,70,0,120
1,73,43,0
1,73,0,120
1,67,59,0
1,67,0,120
1,70,50,120
1,70,0,180
1,68,60,60
1,68,0,480
1,60,57,240
1,60,0,120
1,61,52,0
1,61,0,120
1,63,57,0
1,63,0,90
1,63,57,150
1,63,0,90
1,63,59,150
1,63,0,90
1,68,65,150
1,68,0,90
1,63,57,150
1,63,0,720
1,72,59,0
1,72,0,240
1,70,70,0
1,70,0,240
1,75,62,0
1,75,0,240
1,79,68,0
1,79,0,240
1,67,63,0
1,67,0,240
1,70,68,0
1,70,0,240
1,68,59,0
1,68,0,240
1,65,59,240
1,65,0,240
1,67,70,0
1,67,0,240
1,70,62,0
1,70,0,240
1,72,70,0
1,72,0,240
1,63,66,0
1,63,0,180
1,63,72,60
1,63,0,240
1,62,62,0
1,62,0,240
1,70,59,240
1,70,0,240
1,68,70,0
1,68,0,120
1,70,63,0
1,70,0,120
1,67,70,0
1,67,0,120
1,70,62,0
1,70,0,120
1,65,70,0
1,65,0,240
1,74,75,0
1,74,0,240
1,75,81,0
1,75,0,240
1,77,77,0
1,77,0,240
1,79,82,0
1,79,0,240
1,70,75,0
1,70,0,240
1,68,70,0
1,68,0,120
1,70,63,0
1,70,0,120
1,67,70,0
1,67,0,120
1,70,62,0
1,70,0,120
1,65,70,0
1,65,0,240
1,74,75,0
1,74,0,240
1,75,81,0
1,75,0,240
1,77,77,0
1,77,0,240
1,79,82,0
1,79,0,240
1,79,75,0
1,79,0,120
1,80,73,0
1,80,0,120
1,82,81,0
1,82,0,120
1,79,72,120
1,79,0,120
1,80,69,0
1,80,0,120
1,82,80,0
1,82,0,120
1,79,73,120
1,79,0,120
1,80,69,0
1,80,0,120
1,82,78,0
1,82,0,480
1,75,60,240
1,75,0,120
1,77,58,0
1,77,0,120
1,79,64,0
1,79,0,120
1,75,57,120
1,75,0,120
1,77,55,0
1,77,0,120
1,79,64,0
1,79,0,120
1,75,58,120
1,75,0,120
1,77,55,0
1,77,0,120
1,79,62,0
1,79,0,480
1,79,75,240
1,79,0,120
1,80,73,0
1,80,0,120
1,82,81,0
1,82,0,120
1,79,72,120
1,79,0,120
1,80,69,0
1,80,0,120
1,82,80,0
1,82,0,120
1,79,73,120
1,79,0,120
1,80,69,0
1,80,0,120
1,82,78,0
1,82,0,240
1,84,72,0
1,84,0,120
1,82,65,0
1,82,0,120
1,80,69,0
1,80,0,120
1,79,64,0
1,79,0,120
1,77,62,0
1,77,0,120
1,75,61,0
1,75,0,120
1,77,78,0
1,77,0,240
1,82,72,0
1,82,0,120
1,80,65,0
1,80,0,120
1,79,69,0
1,79,0,120
1,77,64,0
1,77,0,120
1,75,62,0
1,75,0,120
1,74,61,0
1,74,0,120
1,75,77,0
1,75,0,240
1,84,72,0
1,84,0,120
1,82,65,0
1,82,0,120
1,80,69,0
1,80,0,120
1,79,64,0
1,79,0,120
1,77,62,0
1,77,0,120
1,75,65,0
1,75,0,120
1,77,73,0
1,77,0,240
1,82,64,0
1,82,0,120
1,80,58,0
1,80,0,120
1,79,62,0
1,79,0,120
1,77,57,0
1,77,0,120
1,75,56,0
1,75,0,120
1,74,55,0
1,74,0,120
1,75,69,0
1,75,0,1200
1,79,57,0
1,79,0,240
1,82,63,0
1,82,0,240
1,75,56,0
1,75,0,240
1,74,69,0
1,74,0,1200
1,77,57,0
1,77,0,240
1,80,63,0
1,80,0,240
1,74,56,0
1,74,0,240
1,75,69,0
1,75,0,1200
1,79,57,0
1,79,0,240
1,82,63,0
1,82,0,240
1,75,56,0
1,75,0,240
1,74,69,0
1,74,0,1200
1,77,62,0
1,77,0,240
1,80,69,0
1,80,0,240
1,74,70,0
1,74,0,240
1,73,81,0
1,79,65,1200
1,79,0,240
1,82,70,0
1,82,0,240
1,79,65,0
1,79,0,240
1,85,74,0
1,85,0,480
1,73,0,0
1,72,60,240
1,72,0,120
1,73,55,0
1,73,0,120
1,75,60,0
1,75,0,90
1,75,61,150
1,75,0,90
1,75,63,150
1,75,0,90
1,80,69,150
1,80,0,90
1,75,61,150
1,75,0,720
1,73,57,0
1,73,0,120
1,72,54,0
1,72,0,120
1,70,60,0
1,70,0,180
1,70,53,60
1,70,0,240
1,72,59,0
1,72,0,180
1,72,53,60
1,72,0,180
1,75,59,60
1,75,0,240
1,73,51,0
1,73,0,60
1,75,46,0
1,75,0,60
1,73,51,0
1,73,0,120
1,72,59,0
1,72,0,240
1,72,60,0
1,72,0,120
1,73,55,0
1,73,0,120
1,75,60,0
1,75,0,90
1,75,59,150
1,75,0,90
1,75,64,150
1,75,0,90
1,80,66,150
1,80,0,90
1,75,61,150
1,75,0,720
1,73,57,0
1,73,0,120
1,72,54,0
1,72,0,120
1,70,60,0
1,70,0,240
1,73,51,0
1,73,0,180
1,67,59,60
1,67,0,240
1,70,50,0
1,70,0,180
1,68,60,60
1,68,0,480
1,72,60,240
1,72,0,120
1,73,55,0
1,73,0,120
1,75,60,0
1,75,0,90
1,80,61,150
1,80,0,120
1,84,56,0
1,84,0,120
1,82,63,0
1,82,0,120
1,80,63,0
1,80,0,120
1,79,59,0
1,79,0,120
1,77,61,0
1,77,0,120
1,75,61,0
1,75,0,720
1,73,57,0
1,73,0,120
1,72,54,0
1,72,0,120
1,70,60,0
1,70,0,120
1,75,50,0
1,75,0,120
1,70,56,0
1,70,0,120
1,75,50,0
1,75,0,120
1,72,56,0
1,72,0,120
1,75,47,0
1,75,0,120
1,72,54,0
1,72,0,120
1,75,48,0
1,75,0,90
1,75,59,30
1,75,0,240
1,73,51,0
1,73,0,60
1,75,46,0
1,75,0,60
1,73,51,0
1,73,0,120
1,72,59,0
1,72,0,240
1,72,60,0
1,72,0,120
1,73,55,0
1,73,0,120
1,75,60,0
1,75,0,90
1,80,61,150
1,80,0,120
1,84,56,0
1,84,0,120
1,82,63,0
1,82,0,120
1,80,63,0
1,80,0,120
1,79,59,0
1,79,0,120
1,77,61,0
1,77,0,120
1,75,61,0
1,75,0,720
1,73,57,0
1,73,0,120
1,72,54,0
1,72,0,120
1,70,60,0
1,70,0,120
1,73,50,0
1,73,0,120
1,70,56,0
1,70,0,120
1,73,50,0
1,73,0,120
1,67,56,0
1,67,0,120
1,70,54,120
1,70,0,180
1,68,60,60
1,68,0,480
1,75,53,240
1,75,0,240
1,77,59,0
1,77,0,120
1,80,53,0
1,80,0,120
1,77,55,0
1,77,0,120
1,75,51,0
1,75,0,120
1,74,56,0
1,74,0,180
1,83,59,60
1,83,0,240
1,82,59,240
1,82,0,120
1,79,53,0
1,79,0,120
1,75,53,0
1,75,0,240
1,72,59,0
1,72,0,240
1,73,59,0
1,73,0,120
1,77,53,0
1,77,0,120
1,73,55,0
1,73,0,120
1,72,51,0
1,72,0,120
1,71,55,0
1,71,0,180
1,80,59,60
1,80,0,240
1,79,59,240
1,79,0,120
1,75,53,0
1,75,0,120
1,72,53,0
1,72,0,240
1,68,59,0
1,68,0,240
1,70,59,0
1,70,0,120
1,73,53,0
1,73,0,120
1,70,55,0
1,70,0,120
1,68,51,0
1,68,0,120
1,67,53,0
1,67,0,180
1,77,59,60
1,77,0,240
1,75,59,240
1,75,0,120
1,72,53,0
1,72,0,120
1,68,53,0
1,68,0,240
1,75,59,0
1,75,0,240
1,74,59,240
1,74,0,120
1,77,51,0
1,77,0,120
1,80,53,0
1,80,0,240
1,74,50,0
1,74,0,240
1,75,59,240
1,75,0,120
1,79,49,0
1,79,0,120
1,82,59,0
1,82,0,240
1,75,56,0
1,75,0,240
1,74,59,240
1,74,0,120
1,77,48,0
1,77,0,120
1,80,51,0
1,80,0,240
1,74,43,0
1,74,0,240
1,77,53,0
1,77,0,240
1,75,47,0
1,75,0,120
1,72,60,360
1,72,0,120
1,73,55,0
1,73,0,120
1,75,60,0
1,75,0,90
1,80,61,150
1,80,0,120
1,84,56,0
1,84,0,120
1,82,63,0
1,82,0,120
1,80,63,0
1,80,0,120
1,79,59,0
1,79,0,120
1,77,61,0
1,77,0,120
1,75,61,0
1,75,0,720
1,73,57,0
1,73,0,120
1,72,54,0
1,72,0,120
1,70,60,0
1,70,0,120
1,75,50,0
1,75,0,120
1,70,56,0
1,70,0,120
1,75,50,0
1,75,0,120
1,72,56,0
1,72,0,120
1,75,47,0
1,75,0,120
1,72,54,0
1,72,0,120
1,75,48,0
1,75,0,90
1,75,59,30
1,75,0,240
1,73,51,0
1,73,0,60
1,75,46,0
1,75,0,60
1,73,51,0
1,73,0,120
1,72,59,0
1,72,0,240
1,72,60,0
1,72,0,120
1,73,55,0
1,73,0,120
1,75,60,0
1,75,0,90
1,84,61,150
1,84,0,120
1,80,56,0
1,80,0,120
1,82,63,0
1,82,0,120
1,79,63,0
1,79,0,120
1,80,59,0
1,80,0,120
1,77,61,0
1,77,0,120
1,75,61,0
1,75,0,720
1,73,57,0
1,73,0,120
1,72,54,0
1,72,0,120
1,70,60,0
1,70,0,120
1,73,50,0
1,73,0,120
1,70,56,0
1,70,0,120
1,73,50,0
1,73,0,120
1,67,56,0
1,67,0,120
1,70,54,120
1,70,0,180
1,68,60,60
1,68,0,480
1,75,53,240
1,75,0,240
1,77,59,0
1,77,0,120
1,80,53,0
1,80,0,120
1,77,55,0
1,77,0,120
1,75,51,0
1,75,0,120
