track,note,velocity,time
1,53,107,0
1,58,107,0
1,62,100,0
1,65,105,0
1,62,107,8
1,65,108,0
1,53,101,22
1,58,109,0
1,62,109,0
1,51,87,44
1,56,110,0
1,60,107,0
1,65,106,0
1,46,80,52
1,51,108,0
1,58,107,0
1,63,97,0
1,67,109,0
1,58,106,0
1,63,107,0
1,67,107,0
1,51,99,0
1,58,109,0
1,63,107,0
1,67,108,0
1,56,106,54
1,60,109,0
1,65,109,0
1,62,77,128
1,53,107,32
1,58,107,0
1,65,77,0
1,62,108,58
1,65,108,0
1,53,100,10
1,58,110,0
1,62,110,0
1,51,91,50
1,56,106,0
1,60,106,0
1,65,108,0
1,48,76,0
1,53,106,0
1,57,110,0
1,60,106,0
1,57,107,42
1,60,108,0
1,65,109,0
1,48,77,0
1,53,108,0
1,57,110,0
1,60,108,0
1,57,107,40
1,60,108,0
1,65,109,0
1,53,109,0
1,58,109,0
1,62,99,0
1,65,103,0
1,62,106,16
1,65,107,0
1,53,98,18
1,58,106,0
1,62,109,0
1,51,88,48
1,56,109,0
1,60,110,0
1,65,110,0
1,46,76,44
1,51,106,0
1,58,109,0
1,63,95,0
1,67,110,0
1,58,105,8
1,63,110,0
1,67,108,0
1,51,96,0
1,58,109,0
1,63,110,0
1,67,106,0
1,56,107,62
1,60,107,0
1,65,110,0
1,62,77,128
1,53,108,30
1,58,107,0
1,65,80,0
1,62,110,56
1,65,106,0
1,53,101,18
1,58,110,0
1,62,108,0
1,51,90,44
1,56,106,0
1,60,107,0
1,65,110,0
1,48,77,0
1,53,110,0
1,57,109,0
1,60,109,0
1,57,108,30
1,60,106,0
1,65,108,0
1,48,79,0
1,53,108,0
1,57,110,0
1,60,110,0
1,57,109,34
1,60,109,0
1,65,106,0
1,53,110,0
1,58,107,0
1,62,99,0
1,65,104,0
1,62,107,14
1,65,106,0
1,53,106,0
1,58,109,0
1,62,99,0
1,65,101,0
1,62,110,22
1,65,106,0
1,53,109,0
1,58,110,0
1,62,99,0
1,65,104,0
1,62,109,8
1,65,106,0
1,53,109,0
1,58,110,0
1,62,100,0
1,65,103,0
1,62,108,2
1,65,106,0
1,46,80,22
1,51,110,0
1,58,108,0
1,63,96,0
1,67,107,0
1,58,109,10
1,63,109,0
1,67,107,0
1,46,81,0
1,51,107,0
1,58,106,0
1,63,93,0
1,67,106,0
1,58,109,6
1,63,107,0
1,67,106,0
1,46,79,4
1,51,106,0
1,58,106,0
1,63,94,0
1,67,109,0
1,58,105,6
1,63,109,0
1,67,108,0
1,46,79,0
1,51,106,0
1,58,108,0
1,63,96,0
1,67,106,0
1,58,105,8
1,63,109,0
1,67,110,0
1,53,109,0
1,58,110,0
1,62,101,0
1,65,101,0
1,62,106,10
1,65,106,0
1,53,97,18
1,58,107,0
1,62,108,0
1,51,88,44
1,56,106,0
1,60,108,0
1,65,106,0
1,46,78,0
1,51,109,0
1,58,107,0
1,63,93,0
1,67,106,0
1,58,108,6
1,63,107,0
1,67,106,0
1,51,95,0
1,58,106,0
1,63,110,0
1,67,110,0
1,56,110,60
1,60,109,0
1,65,108,0
1,62,80,0
1,53,109,0
1,58,107,0
1,62,99,0
1,65,104,0
1,62,109,12
1,65,109,0
1,53,109,0
1,58,106,0
1,62,102,0
1,65,104,0
1,62,107,14
1,65,108,0
1,53,106,0
1,58,108,0
1,62,100,0
1,65,104,0
1,62,110,4
1,65,108,0
1,53,108,0
1,58,110,0
1,62,101,0
1,65,104,0
1,62,106,10
1,65,106,0
1,46,80,16
1,51,106,0
1,58,107,0
1,63,95,0
1,67,109,0
1,58,106,8
1,63,106,0
1,67,106,0
1,46,76,4
1,51,107,0
1,58,106,0
1,63,94,0
1,67,108,0
1,58,109,2
1,63,110,0
1,67,109,0
1,46,80,2
1,51,110,0
1,58,106,0
1,63,97,0
1,67,109,0
1,58,106,8
1,63,109,0
1,67,108,0
1,46,76,0
1,51,108,0
1,58,108,0
1,63,97,0
1,67,108,0
1,58,105,4
1,63,110,0
1,67,107,0
1,46,79,2
1,51,107,0
1,58,108,0
1,63,95,0
1,67,107,0
1,58,106,8
1,63,108,0
1,67,109,0
1,46,77,0
1,51,108,0
1,58,109,0
1,63,93,0
1,67,106,0
1,58,106,6
1,63,106,0
1,67,108,0
1,46,78,0
1,51,107,0
1,58,109,0
1,63,95,0
1,67,107,0
1,58,106,0
1,63,108,0
1,67,109,0
1,46,77,2
1,51,106,0
1,58,108,0
1,63,95,0
1,67,106,0
1,58,109,4
1,63,108,0
1,67,109,0
1,53,107,4
1,58,110,0
1,62,99,0
1,65,105,0
1,62,110,12
1,65,108,0
1,53,101,18
1,58,108,0
1,62,107,0
1,51,88,52
1,56,110,0
1,60,107,0
1,65,108,0
1,46,77,0
1,51,106,0
1,58,110,0
1,63,93,0
1,67,106,0
1,58,106,0
1,63,108,0
1,67,109,0
1,51,99,0
1,58,107,0
1,63,107,0
1,67,107,0
1,56,106,62
1,60,106,0
1,65,108,0
1,62,78,128
1,53,110,0
1,58,106,0
1,62,100,0
1,65,105,0
1,62,110,30
1,65,108,0
1,53,109,0
1,58,106,0
1,62,98,0
1,65,101,0
1,62,110,2
1,65,107,0
1,53,108,0
1,58,106,0
1,62,101,0
1,65,105,0
1,62,108,6
1,65,106,0
1,53,108,0
1,58,108,0
1,62,98,0
1,65,104,0
1,62,106,10
1,65,106,0
1,41,107,0
1,48,106,0
1,53,90,0
1,57,105,0
1,60,104,0
1,65,97,0
1,48,79,0
1,53,103,0
1,57,107,0
1,60,94,0
1,65,106,0
1,48,77,0
1,53,107,0
1,57,108,0
1,60,109,0
1,57,108,24
1,60,107,0
1,65,106,0
1,48,78,0
1,53,107,0
1,57,110,0
1,60,107,0
1,57,110,28
1,60,106,0
1,65,107,0
1,48,80,0
1,53,108,0
1,57,110,0
1,60,110,0
1,57,110,24
1,60,110,0
1,65,107,0
1,46,80,10
1,51,108,0
1,58,109,0
1,63,93,0
1,67,106,0
1,58,106,0
1,63,107,0
1,67,110,0
1,46,76,0
1,51,109,0
1,58,109,0
1,63,95,0
1,67,106,0
1,58,105,6
1,63,107,0
1,67,108,0
1,46,79,2
1,51,106,0
1,58,109,0
1,63,97,0
1,67,109,0
1,58,105,4
1,63,107,0
1,67,106,0
1,46,77,0
1,51,108,0
1,58,110,0
1,63,93,0
1,67,110,0
1,58,105,6
1,63,106,0
1,67,107,0
1,53,108,2
1,58,110,0
1,62,99,0
1,65,104,0
1,62,106,6
1,65,109,0
1,53,99,18
1,58,110,0
1,62,108,0
1,51,90,50
1,56,110,0
1,60,109,0
1,65,106,0
1,46,79,8
1,51,106,0
1,58,108,0
1,63,95,0
1,67,110,0
1,58,105,0
1,63,108,0
1,67,110,0
1,51,100,0
1,58,110,0
1,63,106,0
1,67,109,0
1,56,106,54
1,60,109,0
1,65,107,0
1,62,76,0
1,53,106,40
1,58,108,0
1,65,102,0
1,62,108,62
1,65,106,0
1,53,99,0
1,58,107,0
1,62,108,0
1,51,91,80
1,56,110,0
1,60,110,0
1,65,111,0
1,48,79,0
1,53,107,0
1,57,109,0
1,60,109,0
1,57,107,30
1,60,107,0
1,65,108,0
1,48,79,0
1,53,109,0
1,57,110,0
1,60,106,0
1,57,108,34
1,60,109,0
1,65,106,0
1,53,110,0
1,58,108,0
1,62,99,0
1,65,105,0
1,62,106,14
1,65,110,0
1,53,106,0
1,58,108,0
1,62,97,0
1,65,105,0
1,62,107,14
1,65,106,0
1,53,109,0
1,58,107,0
1,62,97,0
1,65,103,0
1,62,109,4
1,65,110,0
1,53,109,0
1,58,106,0
1,62,100,0
1,65,103,0
1,62,109,8
1,65,106,0
1,46,77,14
1,51,107,0
1,58,107,0
1,63,93,0
1,67,108,0
1,58,107,6
1,63,107,0
1,67,108,0
1,46,79,0
1,51,108,0
1,58,110,0
1,63,94,0
1,67,106,0
1,58,109,4
1,63,110,0
1,67,110,0
1,46,80,0
1,51,109,0
1,58,107,0
1,63,97,0
1,67,106,0
1,58,107,6
1,63,106,0
1,67,109,0
1,46,77,4
1,51,107,0
1,58,107,0
1,63,94,0
1,67,107,0
1,58,109,0
1,63,110,0
1,67,106,0
1,53,110,4
1,58,106,0
1,62,100,0
1,65,103,0
1,62,109,8
1,65,110,0
1,53,100,18
1,58,107,0
1,62,107,0
1,51,87,44
1,56,106,0
1,60,107,0
1,65,109,0
1,46,77,0
1,51,108,0
1,58,108,0
1,63,94,0
1,67,109,0
1,58,106,2
1,63,106,0
1,67,107,0
1,51,99,0
1,58,106,0
1,63,107,0
1,67,110,0
1,56,106,56
1,60,106,0
1,65,110,0
1,62,76,128
1,53,108,0
1,58,110,0
1,62,98,0
1,65,102,0
1,62,108,6
1,65,106,0
1,53,108,0
1,58,110,0
1,62,100,0
1,65,101,0
1,62,108,4
1,65,109,0
1,53,106,0
1,58,106,0
1,62,99,0
1,65,102,0
1,62,106,2
1,65,106,0
1,53,108,0
1,58,110,0
1,62,98,0
1,65,101,0
1,62,109,8
1,65,107,0
1,46,80,14
1,51,110,0
1,58,106,0
1,63,94,0
1,67,106,0
1,58,107,4
1,63,110,0
1,67,108,0
1,46,78,0
1,51,110,0
1,58,106,0
1,63,96,0
1,67,106,0
1,58,106,8
1,63,109,0
1,67,109,0
1,46,79,4
1,51,107,0
1,58,106,0
1,63,93,0
1,67,107,0
1,58,105,4
1,63,106,0
1,67,109,0
1,46,77,0
1,51,108,0
1,58,106,0
1,63,93,0
1,67,106,0
1,58,108,4
1,63,109,0
1,67,107,0
1,46,76,4
1,51,108,0
1,58,108,0
1,63,95,0
1,67,108,0
1,58,109,6
1,63,107,0
1,67,110,0
1,46,80,0
1,51,109,0
1,58,107,0
1,63,93,0
1,67,107,0
1,58,106,12
1,63,108,0
1,67,109,0
1,46,77,8
1,51,107,0
1,58,106,0
1,63,94,0
1,67,110,0
1,58,109,0
1,63,106,0
1,67,106,0
1,46,80,0
1,51,110,0
1,58,110,0
1,63,94,0
1,67,108,0
1,58,106,0
1,63,106,0
1,67,106,0
1,53,110,2
1,58,110,0
1,62,97,0
1,65,104,0
1,62,108,12
1,65,106,0
1,53,101,18
1,58,107,0
1,62,109,0
1,51,89,46
1,56,109,0
1,60,106,0
1,65,109,0
1,46,77,0
1,51,108,0
1,58,107,0
1,63,93,0
1,67,107,0
1,58,107,4
1,63,108,0
1,67,110,0
1,51,97,0
1,58,108,0
1,63,107,0
1,67,110,0
1,56,110,66
1,60,106,0
1,65,108,0
1,62,76,128
1,53,109,0
1,58,110,0
1,62,100,0
1,65,105,0
1,62,107,30
1,65,106,0
1,53,109,0
1,58,109,0
1,62,98,0
1,65,101,0
1,62,107,8
1,65,109,0
1,53,106,0
1,58,109,0
1,62,97,0
1,65,103,0
1,62,106,6
1,65,110,0
1,53,106,0
1,58,107,0
1,62,97,0
1,65,102,0
1,62,108,12
1,65,107,0
1,41,104,0
1,48,103,0
1,53,90,0
1,57,105,0
1,60,103,0
1,65,96,0
1,48,77,0
1,53,100,0
1,57,110,0
1,60,96,0
1,65,107,0
1,48,77,0
1,53,109,0
1,57,108,0
1,60,109,0
1,57,107,26
1,60,107,0
1,65,108,0
1,48,77,0
1,53,107,0
1,57,109,0
1,60,110,0
1,57,106,30
1,60,109,0
1,65,110,0
1,48,79,0
1,53,108,0
1,57,110,0
1,60,110,0
1,57,107,28
1,60,107,0
1,65,106,0
1,46,78,12
1,51,108,0
1,58,107,0
1,63,97,0
1,67,110,0
1,58,107,0
1,63,106,0
1,67,107,0
1,46,76,0
1,51,108,0
1,58,109,0
1,63,93,0
1,67,109,0
1,58,106,6
1,63,108,0
1,67,106,0
1,46,76,0
1,51,107,0
1,58,107,0
1,63,93,0
1,67,110,0
1,58,107,2
1,63,109,0
1,67,107,0
1,46,78,0
1,51,110,0
1,58,110,0
1,63,97,0
1,67,107,0
1,58,108,0
1,63,106,0
1,67,107,0
1,53,110,4
1,58,110,0
1,62,97,0
1,65,101,0
1,62,109,4
1,65,110,0
1,53,101,26
1,58,106,0
1,62,106,0
1,51,88,48
1,56,106,0
1,60,107,0
1,65,109,0
1,46,78,2
1,51,106,0
1,58,108,0
1,63,97,0
1,67,108,0
1,58,105,2
1,63,108,0
1,67,107,0
1,51,97,0
1,58,108,0
1,63,106,0
1,67,110,0
1,56,108,54
1,60,106,0
1,65,107,0
1,53,110,32
1,58,109,0
1,62,79,0
1,65,105,0
1,62,106,60
1,65,110,0
1,53,101,0
1,58,108,0
1,62,108,0
1,51,89,76
1,56,108,0
1,60,107,0
1,65,106,0
1,48,78,0
1,53,106,0
1,57,110,0
1,60,109,0
1,57,106,26
1,60,109,0
1,65,107,0
1,48,78,0
1,53,106,0
1,57,109,0
1,60,106,0
1,57,107,34
1,60,110,0
1,65,110,0
1,53,108,0
1,58,107,0
1,62,98,0
1,65,102,0
1,62,110,14
1,65,106,0
1,53,110,0
1,58,106,0
1,62,100,0
1,65,101,0
1,62,106,2
1,65,108,0
1,53,107,0
1,58,110,0
1,62,100,0
1,65,105,0
1,62,109,32
1,65,110,0
1,53,106,0
1,58,107,0
1,62,100,0
1,65,103,0
1,62,110,26
1,65,106,0
1,53,107,0
1,58,106,0
1,62,97,0
1,65,102,0
1,62,106,2
1,65,107,0
1,53,109,0
1,58,107,0
1,62,97,0
1,65,103,0
1,62,109,4
1,65,107,0
1,53,106,0
1,58,107,0
1,62,99,0
1,65,103,0
1,62,111,2
1,65,106,0
1,53,109,0
1,58,110,0
1,62,99,0
1,65,102,0
1,62,106,0
1,65,106,0
1,49,91,128
1,54,108,0
1,58,106,18
1,66,106,0
1,49,80,6
1,54,93,0
1,58,107,0
1,61,107,0
1,66,79,128
1,54,107,38
1,58,107,0
1,61,108,0
1,58,97,2
1,61,106,0
1,66,109,0
1,49,90,0
1,54,106,0
1,58,109,0
1,66,107,0
1,49,80,0
1,54,95,0
1,58,108,0
1,61,108,0
1,49,91,0
1,66,79,0
1,54,110,28
1,58,110,0
1,66,107,0
1,49,80,0
1,54,96,0
1,58,110,0
1,61,107,0
1,53,110,16
1,58,110,0
1,62,99,0
1,65,105,0
1,62,109,0
1,65,108,0
1,53,110,0
1,58,108,0
1,62,100,0
1,65,104,0
1,62,106,8
1,65,110,0
1,53,107,0
1,58,110,0
1,62,98,0
1,65,104,0
1,62,109,2
1,65,108,0
1,53,108,0
1,58,110,0
1,62,99,0
1,65,103,0
1,62,109,32
1,65,109,0
1,46,79,18
1,51,108,0
1,58,106,0
1,63,95,0
1,67,111,0
1,67,110,0
1,58,105,0
1,63,108,0
1,46,78,0
1,51,107,0
1,58,106,0
1,63,96,0
1,67,109,0
1,58,109,0
1,63,110,0
1,67,108,0
1,46,80,0
1,51,109,0
1,58,106,0
1,63,93,0
1,67,107,0
1,58,107,6
1,63,106,0
1,67,109,0
1,46,78,4
1,51,108,0
1,58,110,0
1,63,95,0
1,67,109,0
1,58,106,2
1,63,108,0
1,67,109,0
1,46,76,0
1,51,106,0
1,58,110,0
1,63,95,0
1,67,107,0
1,58,109,8
1,63,109,0
1,67,108,0
1,46,78,0
1,51,109,0
1,58,107,0
1,63,93,0
1,67,106,0
1,58,106,4
1,63,107,0
1,67,108,0
1,46,78,0
1,51,109,0
1,58,109,0
1,63,93,0
1,67,110,0
1,58,109,6
1,63,108,0
1,67,108,0
1,46,79,0
1,51,106,0
1,58,109,0
1,63,97,0
1,67,107,0
1,58,109,6
1,63,108,0
1,67,108,0
1,53,110,6
1,58,108,0
1,62,97,0
1,65,103,0
1,62,106,2
1,65,110,0
1,53,99,16
1,58,107,0
1,62,110,0
1,60,110,2
1,65,110,0
1,51,90,40
1,56,110,0
1,46,77,0
1,51,106,0
1,58,107,0
1,63,94,0
1,67,109,34
1,58,107,48
1,63,110,0
1,67,109,0
1,51,96,0
1,58,106,0
1,63,107,0
1,67,106,0
1,56,109,52
1,60,110,0
1,65,107,0
1,62,77,128
1,53,108,0
1,58,106,0
1,62,98,0
