track,note,velocity,time
1,26,107,0
1,26,102,92
1,26,110,76
1,26,92,92
1,31,94,8
1,71,84,0
1,67,87,0
1,62,89,0
1,74,125,0
1,71,104,4
1,62,92,0
1,67,89,0
1,74,127,8
1,62,102,4
1,67,89,0
1,26,87,4
1,72,121,0
1,60,74,0
1,66,87,0
1,69,99,0
1,74,115,4
1,71,94,0
1,76,107,0
1,72,94,4
1,69,94,0
1,72,112,0
1,74,118,4
1,31,84,0
1,67,94,0
1,62,94,0
1,71,107,96
1,62,92,4
1,67,87,0
1,62,97,4
1,67,89,0
1,26,92,4
1,60,81,192
1,66,99,0
1,71,115,8
1,66,94,4
1,60,84,0
1,62,92,4
1,67,89,0
1,59,121,4
1,31,94,0
1,67,92,4
1,62,107,0
1,59,127,180
1,62,97,4
1,67,92,0
1,57,127,180
1,26,82,4
1,66,89,0
1,60,84,0
1,59,110,24
1,60,112,8
1,57,118,8
1,67,82,8
1,62,80,0
1,55,112,0
1,31,84,4
1,55,110,4
1,62,84,32
1,67,89,0
1,55,118,4
1,67,94,0
1,62,97,0
1,26,87,4
1,55,104,192
1,60,81,0
1,66,92,0
1,60,81,4
1,66,89,0
1,60,88,4
1,66,99,0
1,31,89,4
1,67,77,0
1,59,70,0
1,62,84,0
1,55,58,0
1,59,84,288
1,67,84,0
1,55,77,0
1,62,89,0
1,55,74,0
1,26,79,4
1,62,72,0
1,66,77,0
1,57,65,0
1,57,77,160
1,62,54,0
1,60,69,0
1,66,77,0
1,67,65,204
1,55,70,0
1,62,79,0
1,59,52,0
1,31,82,4
1,67,55,224
1,62,79,0
1,55,65,0
1,59,51,0
1,60,48,296
1,66,65,0
1,62,74,0
1,57,84,0
1,50,127,0
1,26,97,4
1,66,68,212
1,60,61,0
1,62,79,0
1,57,72,0
1,50,121,0
1,57,63,52
1,60,61,4
1,31,84,4
1,67,77,0
1,59,70,0
1,62,84,0
1,55,58,0
1,59,84,288
1,67,84,0
1,55,77,0
1,62,89,0
1,55,74,0
1,26,79,4
1,62,72,0
1,66,77,0
1,57,65,0
1,57,77,160
1,62,54,0
1,60,69,0
1,66,77,0
1,67,65,204
1,55,70,0
1,62,79,0
1,59,52,0
1,31,84,4
1,67,55,224
1,62,79,0
1,55,65,0
1,59,51,0
1,60,48,296
1,66,65,0
1,62,74,0
1,57,84,0
1,50,121,0
1,26,77,4
1,66,68,160
1,60,61,0
1,62,79,0
1,57,72,0
1,50,118,0
1,57,63,52
1,60,61,4
1,31,68,4
1,67,77,0
1,59,70,0
1,62,84,0
1,55,58,0
1,59,84,288
1,67,84,0
1,55,77,0
1,62,89,0
1,55,74,0
1,26,94,4
1,62,72,0
1,66,77,0
1,57,65,0
1,57,77,160
1,62,54,0
1,60,69,0
1,66,77,0
1,67,65,204
1,55,70,0
1,62,79,0
1,59,52,0
1,31,82,4
1,67,55,224
1,62,79,0
1,55,65,0
1,59,51,0
1,60,48,296
1,66,65,0
1,62,74,0
1,57,84,0
1,26,87,4
1,66,68,224
1,60,61,0
1,62,79,0
1,57,72,0
1,57,63,52
1,60,61,4
1,31,92,4
1,67,77,0
1,59,70,0
1,62,84,0
1,55,58,0
1,59,84,288
1,67,84,0
1,55,77,0
1,62,89,0
1,55,74,0
1,26,79,4
1,62,72,0
1,66,77,0
1,57,65,0
1,57,77,160
1,62,54,0
1,60,69,0
1,66,77,0
1,67,65,204
1,55,70,0
1,62,79,0
1,59,52,0
1,31,94,4
1,67,55,224
1,62,79,0
1,55,65,0
1,59,51,0
1,60,48,296
1,66,65,0
1,62,74,0
1,57,84,0
1,50,107,0
1,26,74,4
1,66,68,172
1,60,61,0
1,62,79,0
1,57,72,0
1,50,121,0
1,57,63,52
1,60,61,4
1,31,82,4
1,67,77,0
1,59,70,0
1,62,84,0
1,55,58,0
1,59,84,288
1,67,84,0
1,55,77,0
1,62,89,0
1,55,74,0
1,26,89,4
1,62,72,0
1,66,77,0
1,57,65,0
1,57,77,160
1,62,54,0
1,60,69,0
1,66,77,0
1,67,65,204
1,55,70,0
1,62,79,0
1,59,52,0
1,31,79,4
1,67,55,224
1,62,79,0
1,55,65,0
1,59,51,0
1,60,48,296
1,66,65,0
1,62,74,0
1,57,84,0
1,50,121,0
1,26,82,4
1,66,68,192
1,60,61,0
1,62,79,0
1,57,72,0
1,50,118,0
1,57,63,52
1,60,61,4
1,31,89,4
1,67,77,0
1,59,70,0
1,62,84,0
1,55,58,0
1,59,84,288
1,67,84,0
1,55,77,0
1,62,89,0
1,55,74,0
1,26,59,4
1,62,72,0
1,66,77,0
1,57,65,0
1,57,77,160
1,62,54,0
1,60,69,0
1,66,77,0
1,67,65,204
1,55,70,0
1,62,79,0
1,59,52,0
1,31,79,4
1,67,55,224
1,62,79,0
1,55,65,0
1,59,51,0
1,60,48,296
1,66,65,0
1,62,74,0
1,57,84,0
1,50,118,0
1,26,77,4
1,66,68,208
1,60,61,0
1,62,79,0
1,57,72,0
1,50,112,0
1,57,63,52
1,60,61,4
1,31,84,4
1,67,77,0
1,59,70,0
1,62,84,0
1,55,58,0
1,59,84,288
1,67,84,0
1,55,77,0
1,62,89,0
1,55,74,0
1,26,94,4
1,62,72,0
1,66,77,0
1,57,65,0
1,57,77,160
1,62,54,0
1,60,69,0
1,66,77,0
1,67,65,204
1,55,70,0
1,62,79,0
1,59,52,0
1,31,87,4
1,67,55,224
1,62,79,0
1,55,65,0
1,59,51,0
1,60,48,296
1,66,65,0
1,62,74,0
1,57,84,0
1,26,82,4
1,66,68,224
1,60,61,0
1,62,79,0
1,57,72,0
1,57,63,52
1,60,61,4
1,31,92,4
1,67,77,0
1,59,70,0
1,62,84,0
1,55,58,0
1,59,84,288
1,67,84,0
1,55,77,0
1,62,89,0
1,55,74,0
1,26,92,4
1,62,72,0
1,66,77,0
1,57,65,0
1,57,77,160
1,62,54,0
1,60,69,0
1,66,77,0
1,67,65,204
1,55,70,0
1,62,79,0
1,59,52,0
1,31,66,4
1,62,99,384
1,67,98,4
1,26,82,4
1,65,99,0
1,62,99,4
1,59,98,4
1,62,101,4
1,36,92,4
1,57,82,0
1,67,92,0
1,64,84,0
1,60,56,0
1,64,89,324
1,67,92,0
1,60,81,0
1,57,59,0
1,57,59,0
1,36,87,60
1,60,63,4
1,64,58,0
1,67,66,0
1,64,84,180
1,67,79,0
1,57,94,0
1,60,59,0
1,55,79,152
1,59,84,0
1,62,89,0
1,31,94,48
1,57,102,228
1,62,110,0
1,57,104,296
1,64,104,0
1,31,97,4
1,62,110,140
1,57,102,0
1,59,84,192
1,57,112,32
1,38,100,36
1,57,65,4
1,66,48,0
1,62,65,0
1,57,97,332
1,62,105,0
1,57,51,104
1,60,61,0
1,38,94,28
1,66,47,4
1,57,94,0
1,62,89,0
1,60,64,128
1,57,84,0
1,62,82,0
1,66,82,0
1,59,94,296
1,55,51,0
1,31,94,84
1,57,107,204
1,59,87,180
1,62,110,48
1,57,89,12
1,31,94,28
1,64,107,104
1,57,107,0
1,62,87,12
1,59,87,4
1,57,79,112
1,62,55,0
1,36,100,0
1,66,48,16
1,60,81,300
1,57,84,0
1,64,92,0
1,67,84,0
1,57,70,96
1,60,56,12
1,36,97,0
1,64,87,32
1,64,87,88
1,67,94,0
1,57,97,0
1,60,44,0
1,62,77,200
1,59,82,0
1,55,43,0
1,38,97,32
1,62,115,224
1,57,115,0
1,57,104,268
1,64,107,0
1,38,94,24
1,62,118,132
1,57,104,0
1,59,102,192
1,57,112,40
1,33,89,64
1,57,70,4
1,61,72,0
1,64,82,0
1,57,92,296
1,64,94,0
1,61,97,0
1,57,84,56
1,33,89,4
1,61,74,4
1,61,102,96
1,57,97,0
1,57,70,192
1,62,68,0
1,38,97,76
1,60,74,184
1,57,74,0
1,62,84,0
1,66,68,0
1,57,70,104
1,60,46,0
1,62,66,0
1,66,51,0
1,66,68,48
1,62,77,0
1,60,59,0
1,57,77,0
1,26,102,4
1,60,78,4
1,66,70,0
1,62,94,0
1,60,71,64
1,62,89,0
1,66,74,0
1,57,65,0
1,60,81,68
1,57,94,0
1,62,97,0
1,66,94,0
1,60,81,4
1,66,79,0
1,62,97,0
1,57,94,0
1,31,89,60
1,67,77,0
1,59,70,0
1,62,84,0
1,55,58,0
1,59,84,288
1,67,84,0
1,55,77,0
1,62,89,0
1,55,74,0
1,26,79,4
1,62,72,0
1,66,77,0
1,57,65,0
1,57,77,160
1,62,54,0
1,60,69,0
1,66,77,0
1,67,65,204
1,55,70,0
1,62,79,0
1,59,52,0
1,31,82,4
1,67,55,224
1,62,79,0
1,55,65,0
1,59,51,0
1,60,48,296
1,66,65,0
1,62,74,0
1,57,84,0
1,50,112,0
1,26,97,4
1,66,68,224
1,60,61,0
1,62,79,0
1,57,72,0
1,50,110,0
1,57,63,52
1,60,61,4
1,31,84,4
1,67,77,0
1,59,70,0
1,62,84,0
1,55,58,0
1,59,84,288
1,67,84,0
1,55,77,0
1,62,89,0
1,55,74,0
1,26,79,4
1,62,72,0
1,66,77,0
1,57,65,0
1,57,77,160
1,62,54,0
1,60,69,0
1,66,77,0
1,67,65,204
1,55,70,0
1,62,79,0
1,59,52,0
1,31,84,4
1,67,55,224
1,62,79,0
1,55,65,0
1,59,51,0
1,60,48,296
1,66,65,0
1,62,74,0
1,57,84,0
1,50,112,0
1,26,77,4
1,66,68,216
1,60,61,0
1,62,79,0
1,57,72,0
1,50,107,0
1,57,63,52
1,60,61,4
1,31,68,4
1,67,77,0
1,59,70,0
1,62,84,0
1,55,58,0
1,59,84,288
1,67,84,0
1,55,77,0
1,62,89,0
1,55,74,0
1,26,94,4
1,62,72,0
1,66,77,0
1,57,65,0
1,57,77,160
1,62,54,0
1,60,69,0
1,66,77,0
1,67,65,204
1,55,70,0
1,62,79,0
1,59,52,0
1,31,82,4
1,67,55,224
1,62,79,0
1,55,65,0
1,59,51,0
1,60,48,296
1,66,65,0
1,62,74,0
1,57,84,0
1,26,87,4
1,66,68,224
1,60,61,0
1,62,79,0
1,57,72,0
1,57,63,52
1,60,61,4
1,31,92,4
1,67,77,0
1,59,70,0
1,62,84,0
1,55,58,0
1,59,84,288
1,67,84,0
1,55,77,0
1,62,89,0
1,55,74,0
1,26,79,4
1,62,72,0
1,66,77,0
1,57,65,0
1,57,77,160
1,62,54,0
1,60,69,0
1,66,77,0
1,67,65,204
1,55,70,0
1,62,79,0
1,59,52,0
1,31,94,4
1,67,55,224
1,62,79,0
1,55,65,0
1,59,51,0
1,62,101,296
1,74,98,0
1,26,74,4
1,62,79,192
1,74,104,0
1,31,89,4
1,83,105,0
1,71,112,0
1,83,108,232
1,71,115,0
1,26,79,4
1,81,97,0
1,69,104,0
1,84,92,64
1,72,99,0
1,84,86,88
1,72,93,0
1,31,82,4
1,82,106,0
1,70,113,0
1,83,91,40
1,71,98,0
1,82,101,60
1,70,108,0
1,83,94,32
1,71,101,0
1,26,97,4
1,74,108,192
1,62,115,0
1,74,94,80
1,62,101,0
1,74,94,68
1,62,101,0
1,31,89,4
1,83,101,0
1,71,108,0
1,83,105,240
1,71,112,0
1,83,86,96
1,71,93,0
1,26,79,4
1,81,78,0
1,69,85,0
1,81,88,96
1,69,95,0
1,84,92,68
1,72,99,0
1,84,86,96
1,72,93,0
1,31,82,4
1,82,111,0
1,70,118,0
1,83,88,80
1,71,95,0
1,82,111,40
1,70,118,0
1,83,97,40
1,71,104,0
1,26,97,4
1,74,105,192
1,62,112,0
1,74,101,56
1,62,108,0
1,74,101,32
1,62,108,0
1,74,101,112
1,62,108,0
1,31,89,4
1,83,105,0
1,71,112,0
1,83,101,260
1,71,108,0
1,26,79,4
1,81,97,0
1,69,104,0
1,84,97,28
1,72,104,0
1,31,82,4
1,83,101,0
1,71,108,0
1,83,101,240
1,71,108,0
1,81,97,72
1,69,104,0
1,26,97,4
1,81,108,80
1,69,115,0
1,31,89,4
1,83,101,0
1,71,108,0
1,83,94,40
1,71,101,0
1,79,88,176
1,67,95,0
1,26,79,4
1,81,97,0
1,69,104,0
1,79,88,32
1,67,95,0
1,78,97,60
1,66,104,0
1,81,97,76
1,69,104,0
1,31,82,4
1,79,101,0
1,67,108,0
1,26,97,4
1,74,105,192
1,62,112,0
1,74,101,76
1,62,108,0
1,74,101,104
1,62,108,0
1,31,94,4
1,71,97,0
1,59,104,0
1,71,94,224
1,59,101,0
1,26,74,4
1,69,88,0
1,57,95,0
1,72,92,36
1,60,99,0
1,31,89,4
1,71,97,0
1,59,104,0
1,71,83,80
1,59,90,0
1,62,88,228
1,50,95,0
1,26,79,4
1,62,105,192
1,50,112,0
1,62,86,96
1,50,93,0
1,62,88,88
1,50,95,0
1,31,82,4
1,71,94,0
1,59,101,48
1,71,101,48
1,59,108,60
1,26,97,4
1,69,97,0
1,57,104,4
1,72,92,48
1,60,99,192
1,31,89,4
1,71,94,0
1,59,101,0
1,71,80,100
1,59,87,0
1,62,97,228
1,50,104,0
1,26,79,4
1,62,97,192
1,50,104,0
1,62,101,68
1,50,108,0
1,62,86,104
1,50,93,0
1,31,82,4
1,71,91,0
1,59,98,40
1,71,97,56
1,59,104,24
1,26,97,4
1,69,101,0
1,57,108,0
1,72,86,64
1,60,93,0
1,31,89,4
1,71,94,0
1,59,101,48
1,71,97,48
1,59,104,48
1,26,79,4
1,69,94,0
1,57,101,0
1,71,97,148
1,31,82,4
1,59,104,0
1,71,97,32
1,59,104,32
1,67,101,32
1,55,108,0
1,26,97,4
1,69,101,0
1,57,108,0
1,67,78,68
1,55,85,0
1,66,97,40
1,54,104,0
1,69,88,68
1,57,95,0
1,31,89,4
1,67,105,0
1,55,112,0
1,86,97,72
1,74,104,0
1,91,86,112
1,79,93,0
1,89,80,4
1,77,87,0
1,26,79,0
1,86,70,76
1,74,77,0
1,83,97,104
1,71,104,0
1,86,80,104
1,74,87,0
1,36,92,4
1,76,98,0
1,57,82,0
1,67,92,0
1,64,84,0
1,60,56,0
1,64,89,272
1,67,92,0
1,60,81,0
1,57,59,0
1,78,93,0
1,57,59,0
1,36,87,60
1,57,63,4
1,62,58,0
1,66,66,0
1,79,90,148
1,64,84,32
1,67,79,0
1,57,94,0
1,60,59,0
1,55,79,152
1,59,84,0
1,62,89,0
1,31,94,48
1,74,95,4
1,57,102,116
1,62,110,0
1,57,104,296
1,64,104,0
1,31,97,4
1,62,110,140
1,57,102,0
1,59,84,192
1,57,112,32
1,38,100,36
1,57,65,4
1,66,48,0
1,62,65,0
1,57,97,332
1,62,105,0
1,57,51,104
1,60,61,0
1,38,94,28
1,66,47,4
1,57,94,0
1,62,89,0
1,60,64,128
1,57,84,0
1,62,82,0
1,66,82,0
1,59,94,296
1,55,51,0
1,31,94,84
1,57,107,204
1,59,87,180
1,62,110,48
1,57,89,12
1,31,94,28
1,64,107,104
1,57,107,0
1,62,87,12
1,59,87,4
1,57,79,112
1,62,55,0
1,36,100,0
1,66,48,16
1,60,81,300
1,57,84,0
1,64,92,0
1,67,84,0
1,57,70,96
1,60,56,12
1,36,97,0
1,64,87,32
1,64,87,88
1,67,94,0
1,57,97,0
1,60,44,0
1,62,77,200
1,59,82,0
1,55,43,0
1,31,97,32
1,62,115,224
1,57,115,0
1,57,104,268
1,64,107,0
1,31,94,24
1,62,118,132
1,57,104,0
1,59,102,192
1,57,112,40
1,33,89,64
1,57,70,4
1,61,72,0
1,64,82,0
1,57,92,296
1,64,94,0
1,61,97,0
1,57,84,56
1,33,89,28
1,61,74,4
1,61,102,96
1,57,97,0
1,57,70,192
1,62,68,0
1,38,97,76
1,60,74,184
1,57,74,0
1,62,84,0
1,66,68,0
1,57,70,104
1,60,46,0
1,62,66,0
1,66,51,0
1,66,68,48
1,62,77,0
1,60,59,0
1,57,77,0
1,26,102,4
1,60,78,4
1,66,70,0
1,62,94,0
1,60,71,64
1,62,89,0
1,66,74,0
1,57,65,0
1,60,81,68
1,57,94,0
1,62,97,0
1,66,94,0
1,60,81,4
