track,note,velocity,time
1,96,105,66608
1,88,105,0
1,93,100,112
1,95,94,0
1,93,94,48
1,91,101,12
1,96,103,108
1,88,105,4
1,96,98,92
1,88,105,8
1,93,103,88
1,95,90,0
1,93,103,48
1,91,101,8
1,96,109,128
1,88,105,0
1,96,103,80
1,88,105,0
1,93,95,96
1,95,89,92
1,93,95,48
1,91,103,24
1,86,105,1076
1,95,105,0
1,91,100,112
1,93,94,0
1,91,94,48
1,88,101,12
1,95,103,108
1,86,105,4
1,95,98,92
1,86,105,8
1,91,103,88
1,93,90,0
1,91,103,48
1,88,101,8
1,86,105,128
1,95,109,0
1,86,105,80
1,95,103,0
1,91,95,96
1,93,89,92
1,91,95,48
1,88,103,24
1,93,105,1076
1,84,105,0
1,90,100,112
1,91,94,0
1,90,94,48
1,86,101,12
1,93,103,108
1,84,105,4
1,93,98,92
1,84,105,8
1,90,103,88
1,91,90,0
1,90,103,48
1,86,101,8
1,93,109,128
1,84,105,0
1,93,103,80
1,84,105,0
1,90,95,96
1,91,89,92
1,90,95,48
1,86,103,24
1,91,103,112
1,83,105,4
1,91,98,92
1,83,105,8
1,88,103,88
1,90,90,0
1,88,103,48
1,86,101,8
1,91,109,128
1,81,105,0
1,91,103,80
1,81,105,0
1,88,95,96
1,90,89,92
1,88,95,48
1,86,103,24
1,83,105,116
1,91,103,0
1,91,105,480
1,83,105,0
2,31,88,4188
2,31,90,60
2,31,88,36
2,31,92,4
2,31,77,36
2,31,87,4
2,31,67,4
2,31,82,44
2,31,61,36
2,31,75,12
2,31,62,4
2,31,84,12
2,31,53,16
2,31,80,4
2,31,72,16
2,31,83,8
2,36,64,120
2,36,88,60
2,36,72,16
2,36,84,16
2,36,62,28
2,36,73,4
2,36,70,60
2,36,84,28
2,31,80,184
2,31,78,4
2,31,62,4
2,31,82,4
2,31,75,8
2,31,89,16
2,31,77,4
2,31,88,32
2,38,80,124
2,38,98,28
2,38,72,8
2,38,86,52
2,38,65,40
2,38,86,28
2,38,78,32
2,38,82,4
2,31,69,104
2,31,84,8
2,36,88,128
2,36,88,8
2,31,72,176
2,38,76,52
2,38,79,48
2,38,88,16
2,38,96,4
2,38,100,12
2,38,89,12
2,31,78,68
2,31,76,48
2,31,35,8
2,31,90,56
2,31,81,12
2,31,86,4
2,31,85,24
2,31,81,4
2,31,75,20
2,31,87,20
2,31,66,4
2,31,82,48
2,31,66,60
2,31,89,4
2,31,78,4
2,31,89,36
2,36,71,112
2,36,88,16
2,36,64,36
2,36,83,52
2,36,63,52
2,36,85,28
2,36,66,36
2,36,80,12
2,31,66,136
2,31,75,32
2,31,60,4
2,31,81,20
2,31,72,8
2,31,82,32
2,31,70,4
2,31,80,24
2,38,72,140
2,38,90,4
2,38,75,4
2,38,90,36
2,38,70,20
2,38,86,20
2,38,79,20
2,38,82,4
2,31,75,188
2,31,84,20
2,36,88,172
2,36,82,28
2,31,80,116
2,31,92,44
2,33,90,52
2,35,89,96
2,36,97,20
2,36,107,352
2,36,90,172
2,36,74,28
2,36,84,52
2,36,72,24
2,36,85,32
2,31,82,144
2,31,102,200
2,31,89,20
2,31,70,32
2,31,90,20
2,31,68,20
2,31,84,28
2,38,83,116
2,38,96,248
2,38,94,28
2,38,79,52
2,38,96,28
2,38,76,12
2,38,86,36
2,31,67,80
2,31,82,12
2,36,86,116
2,36,98,16
2,31,72,148
2,31,88,16
2,33,86,0
2,35,85,36
2,36,100,100
2,36,103,4
2,36,83,300
2,36,82,36
2,36,90,20
2,36,79,36
2,36,95,24
2,31,84,144
2,31,89,24
2,31,72,368
2,31,82,20
2,31,89,24
2,31,76,4
2,31,85,12
2,38,84,160
2,38,98,28
2,38,90,276
2,38,83,16
2,38,93,32
2,38,74,28
2,38,85,16
2,31,90,100
2,31,88,8
2,36,91,108
2,36,89,20
2,31,98,116
2,31,92,28
2,33,93,4
2,35,92,48
2,36,93,128
2,36,96,12
2,36,91,228
2,36,86,52
2,36,96,16
2,36,85,24
2,36,98,4
2,31,88,140
2,31,86,4
2,31,89,312
2,31,90,44
2,31,77,56
2,31,77,4
2,31,88,4
2,38,89,104
2,38,90,24
2,38,92,272
2,38,92,56
2,38,88,44
2,38,89,8
2,38,90,4
2,31,80,52
2,31,88,4
2,36,86,132
2,36,88,28
2,31,83,140
2,31,94,40
2,33,92,32
2,35,91,28
2,36,95,124
2,36,100,4
2,36,97,328
2,36,84,12
2,36,86,32
2,36,74,20
2,36,84,36
2,31,89,160
2,31,98,4
2,31,95,352
2,31,85,32
2,31,87,4
2,31,84,4
2,31,90,8
2,38,88,56
2,38,96,4
2,38,92,320
2,38,81,24
2,38,85,28
2,38,82,8
2,38,89,4
2,31,82,52
2,31,91,12
2,36,84,140
2,36,95,36
2,31,75,124
2,31,91,24
2,33,89,4
2,35,89,12
2,36,90,100
2,36,96,4
2,36,86,288
2,36,83,28
2,36,100,48
2,36,80,4
2,36,88,20
2,31,90,152
2,31,91,4
2,31,90,332
2,31,87,36
2,31,95,16
2,31,77,4
2,31,89,12
2,38,90,76
2,38,90,4
2,38,88,304
2,38,82,28
2,38,88,32
2,38,79,32
2,38,87,52
2,31,86,56
2,36,98,92
2,31,94,128
2,38,81,120
2,38,93,48
2,38,91,16
2,38,98,24
2,38,90,24
2,38,94,16
2,38,89,24
2,31,99,28
2,36,98,144
2,31,90,152
2,38,88,160
2,38,89,12
2,38,90,4
2,38,92,4
2,38,90,16
2,38,93,16
2,38,85,40
2,31,90,44
2,36,106,200
2,31,96,128
2,38,88,4
2,38,82,16
2,38,92,20
2,38,90,4
2,38,88,32
2,38,87,12
2,38,91,60
2,31,88,4
2,36,108,160
2,31,98,156
3,43,108,4160
3,50,92,0
3,50,98,32
3,43,92,0
3,43,109,20
3,52,111,0
3,52,95,20
3,43,94,0
3,50,105,40
3,43,85,12
3,50,90,28
3,43,77,4
3,43,114,8
3,52,112,8
3,52,100,24
3,43,88,8
3,50,101,44
3,43,96,8
3,43,98,32
3,50,95,8
3,43,110,12
3,52,109,0
3,52,96,20
3,43,89,8
3,50,90,28
3,43,85,8
3,50,80,20
3,43,77,4
3,43,101,24
3,52,96,0
3,52,75,36
3,43,76,0
3,50,77,32
3,43,87,8
3,43,79,28
3,50,80,8
3,43,99,20
3,52,99,0
3,43,78,12
3,52,70,0
3,43,91,24
3,50,97,4
3,50,82,16
3,43,92,8
3,52,104,0
3,43,78,12
3,52,89,0
3,43,107,32
3,50,94,0
3,43,97,12
3,50,83,0
3,43,101,16
3,52,113,0
3,52,101,4
3,43,109,20
3,50,108,0
3,43,100,8
3,50,105,4
3,43,87,24
3,52,71,0
3,43,87,4
3,48,65,92
3,55,101,4
3,48,107,12
3,55,92,4
3,48,116,40
3,57,107,0
3,57,79,16
3,48,104,0
3,48,115,8
3,55,103,8
3,48,112,12
3,55,94,8
3,48,113,8
3,57,98,0
3,48,89,8
3,57,53,4
3,48,100,80
3,55,87,4
3,48,90,4
3,55,88,0
3,48,115,8
3,57,100,8
3,48,101,12
3,57,84,0
3,48,105,8
3,55,96,4
3,48,109,8
3,55,94,12
3,48,108,0
3,57,91,16
3,48,108,16
3,57,95,8
3,43,111,52
3,50,115,8
3,43,103,8
3,50,92,12
3,43,115,12
3,52,109,0
3,43,94,12
3,52,94,0
3,43,91,8
3,50,100,8
3,43,78,16
3,50,77,0
3,43,108,24
3,52,108,0
3,43,90,4
3,52,95,0
3,43,91,8
3,50,107,8
3,43,87,4
3,50,94,4
3,43,107,8
3,52,103,4
3,43,101,12
3,52,92,8
3,50,103,48
3,43,95,4
3,50,85,4
3,43,112,12
3,52,92,12
3,52,98,28
3,43,101,0
3,50,113,92
3,57,97,4
3,50,103,4
3,57,66,8
3,50,100,16
3,59,101,4
3,50,94,4
3,59,65,4
3,50,95,12
3,57,81,8
3,50,103,0
3,57,66,8
3,50,107,12
3,59,99,0
3,50,105,4
3,59,78,8
3,50,107,48
3,57,95,0
3,50,109,8
3,57,82,8
3,50,114,4
3,59,103,8
3,50,98,4
3,59,91,0
3,50,111,20
3,57,89,8
3,50,111,12
3,57,87,4
3,50,111,8
3,59,103,4
3,43,115,108
3,50,111,4
3,43,101,8
3,50,91,12
3,43,104,8
3,52,112,4
3,43,98,8
3,52,105,8
3,48,94,80
3,55,41,12
3,55,91,28
3,48,85,8
3,48,118,28
3,57,111,4
3,48,111,12
3,57,103,0
3,40,89,60
3,45,87,0
3,50,97,48
3,54,90,0
3,62,51,12
3,60,27,8
3,50,95,8
3,54,93,0
3,60,100,8
3,62,89,4
3,50,97,0
3,54,101,8
3,60,106,4
3,62,86,0
3,50,109,8
3,54,108,0
3,60,111,4
3,62,109,0
3,50,107,0
3,54,107,0
3,60,105,8
3,62,113,0
3,50,107,0
3,54,94,4
3,60,110,0
3,62,102,8
3,54,106,8
3,60,98,0
3,62,106,0
3,50,120,96
3,43,92,0
3,43,112,16
3,50,107,8
3,43,112,16
3,52,117,0
3,43,107,16
3,52,105,4
3,43,113,4
3,50,111,8
3,43,109,16
3,50,95,4
3,43,110,12
3,52,105,0
3,52,91,24
3,43,85,4
3,43,103,56
3,50,105,8
3,43,82,44
3,50,67,4
3,43,112,28
3,52,104,0
3,43,98,12
3,52,103,8
3,50,113,12
3,43,98,8
3,43,105,12
3,50,87,4
3,52,101,12
3,43,107,0
3,52,98,12
3,43,104,84
3,50,100,8
3,43,91,16
3,50,89,12
3,43,111,48
3,52,103,0
3,43,105,20
3,52,89,0
3,43,99,8
3,50,109,4
3,43,105,4
3,50,67,12
3,43,102,20
3,52,76,4
3,43,106,8
3,52,85,8
3,43,97,16
3,50,91,4
3,43,95,12
3,50,59,8
3,43,111,12
3,52,98,0
3,43,109,16
3,52,82,0
3,43,107,8
3,50,92,8
3,43,102,4
3,50,91,8
3,43,101,16
3,52,108,0
3,43,109,24
3,52,104,4
3,48,121,104
3,55,98,8
3,48,100,8
3,48,113,44
3,57,95,8
3,48,100,16
3,57,89,8
3,48,112,44
3,55,94,0
3,48,91,8
3,55,72,8
3,48,117,20
3,57,107,0
3,48,104,4
3,57,89,8
3,48,112,44
3,55,92,0
3,48,108,12
3,55,85,8
3,48,113,12
3,57,94,12
3,48,105,8
3,57,85,0
3,48,101,16
3,55,81,4
3,48,80,0
3,55,82,8
3,48,113,0
3,48,112,12
3,57,85,4
3,50,113,92
3,43,72,4
3,43,91,36
3,50,75,4
3,43,114,36
3,52,113,8
3,43,108,12
3,52,91,8
3,43,109,52
3,50,92,0
3,43,103,12
3,50,85,8
3,52,110,20
3,43,98,0
3,43,98,8
3,52,85,4
3,43,101,16
3,50,100,8
3,43,101,16
3,50,76,8
3,43,103,12
3,52,103,8
3,43,105,4
3,52,89,4
3,43,100,16
3,50,103,0
3,43,108,24
3,50,90,4
3,43,113,12
3,52,109,8
3,43,104,16
3,52,104,0
3,50,112,120
3,57,84,8
3,50,107,4
3,57,71,8
3,50,115,20
3,59,87,0
3,50,112,4
3,59,74,4
3,50,113,8
3,57,90,12
3,50,108,0
3,57,78,8
3,50,115,12
3,59,99,8
3,50,108,4
3,59,81,8
3,50,109,16
3,57,76,4
3,50,105,8
3,57,57,8
3,50,112,12
3,59,70,8
3,50,110,8
3,59,50,4
3,50,108,4
3,57,72,4
3,50,107,8
3,57,50,4
3,50,112,8
3,59,97,8
3,50,106,16
3,43,115,132
3,50,111,8
3,43,97,8
3,50,65,0
3,43,107,12
3,52,111,8
3,52,100,20
3,55,41,100
3,48,95,4
3,48,108,20
3,55,65,4
3,48,119,12
3,57,108,4
3,50,115,72
3,43,114,12
3,50,87,8
3,43,95,12
3,50,83,0
3,43,108,12
3,50,119,0
3,43,105,12
3,52,92,0
3,45,111,12
3,50,117,0
3,45,105,12
3,50,91,8
3,50,109,20
3,47,116,0
3,48,127,200
3,55,107,8
3,55,105,300
3,48,87,20
3,48,111,32
3,57,113,4
3,48,112,8
3,48,115,16
3,55,94,4
3,48,108,12
3,55,84,0
3,48,119,28
3,57,101,8
3,48,111,8
3,57,82,8
3,48,115,12
3,55,90,8
3,48,110,12
3,55,92,0
3,48,122,8
3,57,107,0
3,48,111,8
3,57,50,4
3,43,113,112
3,50,113,0
3,43,119,384
3,50,117,4
3,43,109,12
3,50,94,4
3,43,110,16
3,52,110,0
3,52,105,24
3,50,113,16
3,43,101,8
3,43,105,12
3,50,84,8
3,43,108,44
3,52,98,8
3,43,89,12
3,52,78,0
3,43,105,12
3,50,107,4
3,43,101,4
3,50,80,12
3,43,101,12
3,52,108,0
3,43,105,12
3,52,103,0
3,50,118,120
3,57,103,0
3,50,117,236
3,57,107,4
3,50,100,0
3,57,101,16
3,59,110,36
3,50,108,0
3,50,97,12
3,59,95,0
3,50,106,52
3,57,98,8
3,50,105,4
3,57,80,12
3,50,117,20
3,59,105,4
3,50,104,8
3,59,80,12
3,50,113,48
3,57,92,4
3,50,102,4
3,57,69,8
3,50,119,12
3,59,91,0
3,50,111,12
3,59,76,8
3,50,101,104
3,43,54,16
3,43,72,12
3,50,74,8
3,43,116,20
3,52,115,0
3,43,98,28
3,50,101,8
3,48,124,88
3,55,105,0
3,48,110,4
3,55,78,0
3,48,113,16
3,57,105,0
3,48,115,12
3,55,94,0
3,43,113,80
3,50,109,4
3,43,98,8
3,50,67,8
3,43,117,16
3,52,111,0
3,43,99,12
3,50,82,8
3,45,104,8
3,50,102,0
3,50,47,28
3,47,112,12
3,50,107,8
3,47,101,12
3,50,106,8
3,48,124,108
3,55,103,8
3,48,108,20
3,55,107,0
3,48,109,48
3,55,92,4
3,48,111,28
3,57,105,4
3,48,102,52
3,57,92,0
3,48,107,44
3,55,92,0
3,48,110,12
3,55,62,8
3,48,114,20
3,57,102,0
3,48,87,12
3,57,63,0
3,48,109,52
3,55,92,8
3,48,97,4
3,55,77,0
3,48,110,12
3,57,103,8
3,48,111,12
3,57,78,8
3,43,111,96
3,50,104,0
3,43,117,188
3,50,115,0
3,50,109,24
3,43,107,24
3,52,111,0
3,43,104,12
3,52,102,0
3,50,101,24
3,43,91,4
3,43,88,16
3,50,80,4
3,52,109,48
3,43,95,8
3,43,91,16
3,52,87,4
3,50,95,24
3,43,93,8
3,43,91,12
3,50,80,4
3,52,98,24
3,43,102,0
3,43,87,4
3,52,91,0
3,50,122,128
3,57,95,0
3,50,121,192
3,57,107,0
3,50,109,24
3,57,96,4
3,50,110,60
3,59,107,0
3,50,109,12
3,59,97,4
3,50,119,24
3,57,107,8
3,50,109,12
3,57,87,0
3,50,120,20
3,59,107,0
3,50,108,16
3,59,62,4
3,50,113,12
3,57,96,8
3,50,106,8
3,57,94,4
3,50,124,8
3,59,100,0
3,50,114,12
3,43,113,136
3,50,111,0
3,43,107,8
3,50,88,4
3,52,119,44
3,48,122,116
3,55,112,0
3,48,126,20
3,57,116,4
3,50,115,92
3,43,113,4
3,43,88,8
3,50,107,4
3,43,111,16
3,50,117,0
3,43,105,0
3,50,67,8
3,45,113,8
3,50,76,4
3,45,104,12
3,50,59,4
3,47,115,16
3,50,113,8
3,47,109,12
3,50,112,0
3,48,126,96
3,55,110,8
3,48,121,8
3,55,101,0
3,48,105,12
3,55,87,0
3,48,121,32
3,57,105,0
3,48,105,12
3,57,78,4
3,48,121,24
3,55,109,0
3,48,98,4
3,55,78,8
3,48,113,16
3,57,105,0
3,57,91,12
3,48,107,40
3,55,105,0
3,48,112,8
3,55,84,16
3,48,117,8
3,57,99,0
3,48,109,4
3,57,81,8
3,43,116,100
3,50,118,0
3,43,113,204
3,50,114,0
3,43,109,0
3,50,95,8
3,52,115,12
3,43,107,4
3,43,102,24
3,52,102,4
3,43,115,64
3,50,115,0
3,43,95,12
3,50,78,16
3,43,119,20
3,52,123,8
3,43,85,12
3,52,83,8
3,43,115,28
3,50,120,4
3,43,103,4
3,50,80,8
3,52,117,12
3,43,120,0
3,43,109,24
3,52,105,0
3,50,127,112
3,57,111,4
3,50,123,316
3,57,108,0
3,50,115,20
