track,note,velocity,time
1,54,29,240
1,58,36,0
1,49,29,0
1,49,0,240
1,58,0,0
1,54,0,0
1,49,24,120
1,54,24,0
1,58,29,0
1,58,0,120
1,54,0,0
1,49,0,0
1,54,29,240
1,61,36,0
1,58,29,0
1,49,29,0
1,49,0,240
1,54,0,0
1,61,0,0
1,58,0,0
1,61,29,120
1,58,25,0
1,54,25,0
1,49,25,0
1,49,0,120
1,61,0,0
1,58,0,0
1,54,0,0
1,53,30,240
1,56,37,0
1,49,30,0
1,49,0,240
1,56,0,0
1,53,0,0
1,49,25,120
1,53,25,0
1,56,29,0
1,56,0,120
1,53,0,0
1,49,0,0
1,49,29,240
1,61,36,0
1,53,29,0
1,53,0,240
1,61,0,0
1,49,0,0
1,61,29,120
1,53,24,0
1,49,24,0
1,49,0,120
1,53,0,0
1,61,0,0
1,49,30,240
1,54,37,0
1,51,30,0
1,51,0,240
1,54,0,0
1,49,0,0
1,51,25,120
1,49,25,0
1,54,29,0
1,54,0,120
1,49,0,0
1,51,0,0
1,61,37,240
1,54,30,0
1,51,30,0
1,49,30,0
1,49,0,240
1,61,0,0
1,54,0,0
1,51,0,0
1,54,25,120
1,61,29,0
1,51,25,0
1,49,25,0
1,49,0,120
1,54,0,0
1,61,0,0
1,51,0,0
1,61,34,240
1,53,28,0
1,49,28,0
1,49,0,240
1,53,0,0
1,61,0,0
1,53,25,240
1,61,30,0
1,49,25,0
1,49,0,240
1,61,0,0
1,53,0,0
1,61,28,240
1,53,23,0
1,49,23,0
1,49,0,240
1,53,0,0
1,61,0,0
1,49,19,240
1,61,24,0
1,53,19,0
1,53,0,240
1,61,0,0
1,49,0,0
1,61,22,240
1,53,18,0
1,49,18,0
1,49,0,240
1,53,0,0
1,61,0,0
1,54,38,1920
1,58,49,0
1,58,0,120
1,54,0,0
1,54,40,120
1,58,53,0
1,60,48,240
1,60,0,240
1,63,50,0
1,63,0,120
1,58,0,120
1,54,0,0
1,58,41,0
1,54,41,0
1,63,55,0
1,63,0,240
1,60,48,0
1,60,0,240
1,54,0,0
1,58,0,0
1,53,38,0
1,56,38,0
1,61,46,0
1,61,0,120
1,56,0,0
1,53,0,0
1,53,39,120
1,61,48,0
1,61,0,240
1,60,47,0
1,60,0,240
1,56,45,0
1,56,0,240
1,53,0,0
1,53,42,0
1,53,0,480
1,51,38,0
1,54,49,0
1,54,0,120
1,51,0,0
1,51,40,120
1,54,53,0
1,58,48,240
1,58,0,240
1,60,50,0
1,60,0,120
1,54,0,120
1,51,0,0
1,54,41,0
1,51,41,0
1,60,55,0
1,60,0,240
1,56,48,0
1,56,0,240
1,51,0,0
1,54,0,0
1,56,38,0
1,61,46,0
1,61,0,120
1,56,0,0
1,53,39,120
1,61,48,0
1,61,0,480
1,60,45,0
1,60,0,120
1,53,0,120
1,53,39,0
1,60,47,0
1,60,0,480
1,53,0,0
1,54,38,0
1,58,49,0
1,58,0,120
1,54,0,0
1,54,40,120
1,58,53,0
1,60,48,240
1,60,0,240
1,63,50,0
1,63,0,120
1,58,0,120
1,54,0,0
1,58,41,0
1,54,41,0
1,63,55,0
1,63,0,240
1,60,48,0
1,60,0,240
1,54,0,0
1,58,0,0
1,53,38,0
1,56,38,0
1,61,46,0
1,61,0,120
1,56,0,0
1,53,0,0
1,53,39,120
1,61,48,0
1,61,0,240
1,60,47,0
1,60,0,120
1,61,42,0
1,61,0,60
1,60,38,0
1,60,0,60
1,56,45,0
1,56,0,240
1,53,0,0
1,53,42,0
1,53,0,480
1,58,38,0
1,54,38,0
1,63,49,0
1,63,0,120
1,54,0,0
1,58,0,0
1,63,53,120
1,54,40,0
1,58,53,0
1,63,0,240
1,65,53,0
1,65,0,240
1,66,59,0
1,66,0,120
1,58,0,120
1,54,0,0
1,58,41,0
1,66,57,0
1,66,0,240
1,58,0,0
1,60,41,0
1,65,52,0
1,65,0,240
1,60,0,0
1,53,38,0
1,61,46,0
1,61,0,1440
1,53,0,0
1,59,56,0
1,62,56,0
1,65,56,0
1,68,72,0
1,68,0,240
1,59,0,0
1,62,0,0
1,65,0,0
1,59,60,0
1,62,60,0
1,65,60,0
1,68,79,0
1,68,0,360
1,70,71,0
1,70,0,120
1,68,73,0
1,68,0,120
1,59,0,120
1,62,0,0
1,65,0,0
1,62,55,0
1,59,55,0
1,66,72,0
1,66,0,120
1,59,0,0
1,62,0,0
1,59,55,120
1,62,57,0
1,65,71,0
1,65,0,120
1,62,0,0
1,59,0,0
1,66,68,120
1,66,0,240
1,58,57,0
1,63,57,0
1,66,71,0
1,66,0,240
1,63,0,0
1,58,0,0
1,65,61,0
1,65,0,60
1,66,55,0
1,66,0,60
1,65,61,0
1,65,0,60
1,63,52,0
1,63,0,57
1,63,66,3
1,58,51,240
1,54,48,0
1,54,0,480
1,58,0,0
1,63,0,0
1,57,72,0
1,65,72,240
1,65,0,360
1,63,66,0
1,63,0,60
1,65,57,0
1,65,0,60
1,63,73,0
1,63,0,240
1,57,0,0
1,65,57,0
1,57,55,0
1,61,69,0
1,61,0,240
1,60,69,0
1,60,0,240
1,57,0,0
1,65,0,0
1,61,68,0
1,61,0,120
1,65,52,120
1,58,52,0
1,61,71,0
1,61,0,480
1,58,0,0
1,65,0,0
1,60,66,0
1,60,0,120
1,65,53,120
1,56,51,0
1,60,69,0
1,60,0,480
1,56,0,0
1,65,0,0
1,59,56,0
1,62,56,0
1,65,56,0
1,68,72,0
1,68,0,240
1,59,0,0
1,62,0,0
1,65,0,0
1,59,60,0
1,62,60,0
1,65,60,0
1,68,79,0
1,68,0,360
1,70,71,0
1,70,0,120
1,68,73,0
1,68,0,120
1,59,0,120
1,62,0,0
1,65,0,0
1,62,55,0
1,59,55,0
1,66,72,0
1,66,0,120
1,59,0,0
1,62,0,0
1,59,55,120
1,62,57,0
1,65,71,0
1,65,0,120
1,62,0,0
1,59,0,0
1,66,68,120
1,66,0,240
1,58,57,0
1,63,57,0
1,66,71,0
1,66,0,240
1,63,0,0
1,58,0,0
1,65,61,0
1,65,0,60
1,66,55,0
1,66,0,60
1,65,61,0
1,65,0,60
1,63,52,0
1,63,0,57
1,63,66,3
1,58,51,240
1,54,48,0
1,54,0,480
1,58,0,0
1,63,0,0
1,57,72,0
1,65,73,240
1,65,0,360
1,63,66,0
1,63,0,60
1,65,57,0
1,65,0,60
1,63,73,0
1,63,0,240
1,57,0,0
1,65,57,0
1,57,55,0
1,61,69,0
1,61,0,240
1,60,69,0
1,60,0,240
1,57,0,0
1,65,0,0
1,61,68,0
1,61,0,120
1,65,52,120
1,58,52,0
1,61,71,0
1,61,0,480
1,58,0,0
1,65,0,0
1,60,66,0
1,60,0,120
1,65,53,120
1,56,51,0
1,60,69,0
1,60,0,480
1,56,0,0
1,65,0,0
1,66,50,0
1,70,64,0
1,70,0,120
1,66,0,0
1,66,52,120
1,70,69,0
1,72,62,240
1,72,0,240
1,75,66,0
1,75,0,120
1,70,0,120
1,66,0,0
1,70,53,0
1,66,53,0
1,75,72,0
1,75,0,240
1,72,62,0
1,72,0,240
1,66,0,0
1,70,0,0
1,65,50,0
1,68,50,0
1,73,60,0
1,73,0,120
1,68,0,0
1,65,0,0
1,68,51,120
1,65,51,0
1,73,62,0
1,73,0,240
1,72,56,0
1,72,0,80
1,73,52,0
1,73,0,80
1,72,52,0
1,72,0,80
1,65,0,0
1,68,0,0
1,68,58,0
1,65,55,240
1,65,0,480
1,68,0,0
1,63,50,0
1,66,64,0
1,66,0,120
1,63,0,0
1,63,52,120
1,66,69,0
1,70,62,240
1,70,0,240
1,72,66,0
1,72,0,120
1,66,0,120
1,63,0,0
1,66,53,0
1,63,53,0
1,72,69,0
1,72,0,240
1,68,62,0
1,68,0,240
1,63,0,0
1,66,0,0
1,65,50,0
1,73,60,0
1,73,0,120
1,65,0,0
1,68,51,120
1,65,51,0
1,73,62,0
1,73,0,480
1,72,58,0
1,72,0,120
1,65,0,120
1,68,0,0
1,68,51,0
1,65,51,0
1,72,61,0
1,72,0,480
1,65,0,0
1,68,0,0
1,66,50,0
1,70,64,0
1,70,0,120
1,66,0,0
1,66,52,120
1,70,69,0
1,72,62,240
1,72,0,240
1,75,66,0
1,75,0,120
1,70,0,120
1,66,0,0
1,70,53,0
1,66,53,0
1,75,71,0
1,75,0,240
1,72,62,0
1,72,0,240
1,66,0,0
1,70,0,0
1,65,50,0
1,68,50,0
1,73,60,0
1,73,0,120
1,68,0,0
1,65,0,0
1,68,51,120
1,65,51,0
1,73,62,0
1,73,0,240
1,72,56,0
1,72,0,80
1,73,52,0
1,73,0,80
1,72,52,0
1,72,0,80
1,65,0,0
1,68,0,0
1,68,58,0
1,65,55,240
1,65,0,480
1,68,0,0
1,70,50,0
1,66,50,0
1,75,64,0
1,75,0,120
1,66,0,0
1,70,0,0
1,70,52,120
1,66,52,0
1,75,70,0
1,75,0,240
1,77,70,0
1,77,0,240
1,78,72,0
1,78,0,120
1,66,0,120
1,70,0,0
1,70,53,0
1,78,72,0
1,78,0,240
1,70,0,0
1,68,51,0
1,77,66,0
1,77,0,240
1,68,0,0
1,65,50,0
1,73,60,0
1,65,37,600
1,65,0,60
1,65,0,60
1,73,0,0
1,73,51,0
1,65,40,240
1,65,0,240
1,73,0,240
1,73,46,0
1,78,46,0
1,82,55,0
1,82,0,120
1,78,0,0
1,73,0,0
1,73,47,120
1,78,47,0
1,82,57,0
1,82,0,480
1,78,0,0
1,73,0,0
1,72,47,0
1,75,47,0
1,80,53,0
1,80,0,120
1,75,0,0
1,72,0,0
1,72,47,120
1,75,47,0
1,80,56,0
1,80,0,480
1,75,0,0
1,72,0,0
1,77,55,0
1,70,46,0
1,73,46,0
1,73,0,120
1,70,0,0
1,77,0,0
1,70,47,120
1,73,47,0
1,77,57,0
1,77,0,480
1,73,0,0
1,70,0,0
1,71,47,0
1,77,47,0
1,80,53,0
1,80,0,120
1,82,51,0
1,82,0,120
1,77,0,0
1,71,0,0
1,80,53,0
1,71,47,0
1,77,47,6
1,80,0,114
1,78,50,0
1,78,0,60
1,80,50,0
1,80,0,60
1,78,53,0
1,78,0,120
1,77,51,0
1,77,0,120
1,71,0,0
1,70,46,0
1,75,46,0
1,78,55,0
1,77,0,6
1,70,0,114
1,75,0,0
1,78,0,0
1,70,47,120
1,75,47,0
1,78,57,0
1,78,0,480
1,75,0,0
1,70,0,0
1,68,47,0
1,72,47,0
1,77,53,0
1,77,0,120
1,72,0,0
1,68,0,0
1,68,47,120
1,72,47,0
1,77,56,0
1,77,0,480
1,72,0,0
1,68,0,0
1,73,55,0
1,65,46,0
1,68,46,0
1,68,0,120
1,65,0,0
1,73,0,0
1,65,47,120
1,68,47,0
1,73,57,0
1,73,0,480
1,68,0,0
1,65,0,0
1,61,56,240
1,65,62,0
1,65,0,120
1,61,0,0
1,61,52,120
1,65,52,0
1,68,59,0
1,68,0,120
1,65,0,0
1,61,0,0
1,61,55,120
1,66,55,0
1,70,66,0
1,70,0,120
1,66,0,0
1,61,0,0
1,61,56,120
1,66,56,0
1,70,68,0
1,70,0,480
1,66,0,0
1,61,0,0
1,60,57,0
1,63,57,0
1,68,64,0
1,68,0,120
1,63,0,0
1,60,0,0
1,60,58,120
1,63,58,0
1,68,70,0
1,68,0,480
1,63,0,0
1,60,0,0
1,65,70,0
1,61,58,0
1,61,0,120
1,65,0,0
1,61,58,120
1,65,71,0
1,65,0,480
1,61,0,0
1,62,63,0
1,68,72,0
1,68,0,120
1,70,70,0
1,70,0,120
1,62,0,0
1,68,72,0
1,62,63,6
1,68,0,114
1,66,69,0
1,66,0,60
1,68,64,0
1,68,0,60
1,66,69,0
1,66,0,120
1,65,66,0
1,65,0,120
1,61,57,0
1,66,64,0
1,62,0,6
1,66,0,114
1,61,0,0
1,61,58,120
1,66,64,0
1,66,0,480
1,61,0,0
1,60,46,0
1,65,53,0
1,65,0,120
1,60,0,0
1,60,44,120
1,65,52,0
1,65,0,480
1,60,0,0
1,61,46,0
1,53,38,0
1,53,0,240
1,61,0,0
1,65,30,360
1,73,41,120
1,73,0,720
1,65,0,0
1,58,36,240
1,54,29,0
1,49,29,0
1,49,0,240
1,54,0,0
1,58,0,0
1,49,24,120
1,54,24,0
1,58,29,0
1,58,0,120
1,54,0,0
1,49,0,0
1,61,36,240
1,58,29,0
1,54,29,0
1,49,29,0
1,49,0,240
1,61,0,0
1,58,0,0
1,54,0,0
1,61,29,120
1,58,25,0
1,54,25,0
1,49,25,0
1,49,0,120
1,61,0,0
1,58,0,0
1,54,0,0
1,56,37,240
1,53,30,0
1,49,30,0
1,49,0,240
1,53,0,0
1,56,0,0
1,49,25,120
1,53,25,0
1,56,29,0
1,56,0,120
1,53,0,0
1,49,0,0
1,61,36,240
1,53,29,0
1,49,29,0
1,49,0,240
1,53,0,0
1,61,0,0
1,61,29,120
1,53,24,0
1,49,24,0
1,49,0,120
1,53,0,0
1,61,0,0
1,54,37,240
1,51,30,0
1,49,30,0
1,49,0,240
1,51,0,0
1,54,0,0
1,49,25,120
1,51,25,0
1,54,29,0
1,54,0,120
1,51,0,0
1,49,0,0
1,61,37,240
1,54,30,0
1,51,30,0
1,49,30,0
1,49,0,240
1,61,0,0
1,54,0,0
1,51,0,0
1,61,29,120
1,54,25,0
1,51,25,0
1,49,25,0
1,49,0,120
1,61,0,0
1,54,0,0
1,51,0,0
1,61,34,240
1,53,28,0
1,49,28,0
1,49,0,240
1,53,0,0
1,61,0,0
1,61,30,240
1,53,25,0
1,49,25,0
1,49,0,240
1,53,0,0
1,61,0,0
1,61,28,240
1,53,23,0
1,49,23,0
1,49,0,240
1,53,0,0
1,61,0,0
1,61,24,240
1,53,19,0
1,49,19,0
1,49,0,240
1,53,0,0
1,61,0,0
1,61,22,240
1,53,18,0
1,49,18,0
1,49,0,240
1,53,0,0
1,61,0,0
2,44,29,0
2,49,35,0
2,49,0,226
2,44,0,0
2,44,26,240
2,49,31,0
2,49,0,120
2,44,0,0
2,44,29,0
2,49,35,0
2,49,0,198
2,44,0,0
2,44,27,240
2,49,33,0
2,49,0,120
2,44,0,0
2,44,29,99
2,49,35,0
2,49,0,162
2,44,0,0
2,44,26,240
2,49,31,0
2,49,0,120
2,44,0,0
2,44,29,14
2,49,35,0
2,49,0,198
2,44,0,0
2,44,26,240
2,49,31,0
2,49,0,120
2,44,0,0
2,44,29,99
2,49,35,0
2,49,0,189
2,44,0,0
2,44,27,240
2,49,33,0
2,49,0,120
2,44,0,0
2,44,29,25
2,49,35,0
2,49,0,215
2,44,0,0
2,44,27,240
2,49,33,0
2,49,0,120
2,44,0,0
2,44,29,82
2,49,35,0
2,49,0,120
2,44,0,0
2,44,26,240
2,49,30,0
2,49,0,240
2,44,0,0
2,44,23,240
2,49,28,0
2,49,0,240
2,44,0,0
2,44,20,240
2,49,26,0
2,49,0,160
2,44,0,0
2,44,19,240
2,49,23,0
2,49,0,240
2,44,0,0
2,44,17,240
2,49,19,0
2,49,0,240
2,44,0,0
2,44,34,200
2,49,41,0
2,56,33,28
2,49,0,20
2,44,0,0
2,56,0,220
2,44,31,0
2,49,38,0
2,49,0,120
2,44,0,0
2,56,34,0
2,56,0,64
2,44,34,0
2,49,41,0
2,56,34,0
2,49,0,20
2,44,0,0
2,56,0,220
2,44,31,0
2,49,38,0
2,49,0,120
2,44,0,0
2,56,33,0
2,56,0,64
2,44,34,0
2,49,41,0
2,56,33,14
2,49,0,20
2,44,0,0
2,56,0,220
2,44,31,0
2,49,39,0
2,49,0,120
2,44,0,0
2,56,34,0
2,56,0,54
2,44,30,2
2,49,37,0
2,44,0,184
2,56,29,0
2,49,0,20
2,56,0,220
2,44,28,0
2,49,34,0
2,49,0,7
2,44,0,0
2,56,31,0
2,56,0,120
2,44,34,0
2,49,41,0
2,56,33,28
2,49,0,20
2,44,0,0
2,56,0,220
2,44,31,0
2,49,38,0
2,49,0,120
2,44,0,0
2,56,34,0
2,56,0,64
