track,note,velocity,time
1,74,94,2684
1,71,96,0
1,67,94,0
1,72,110,168
1,76,112,0
1,67,94,16
1,74,88,12
1,69,64,0
1,66,91,144
1,69,95,8
1,72,76,0
1,62,85,4
1,61,85,192
1,62,101,180
1,74,91,96
1,67,88,0
1,71,92,4
1,72,99,188
1,67,91,8
1,76,108,0
1,74,68,0
1,69,85,36
1,72,85,116
1,69,95,0
1,66,83,4
1,62,104,956
1,61,82,144
1,62,92,192
1,71,85,476
1,74,85,0
1,67,83,0
1,72,90,696
1,67,85,0
1,76,96,0
1,62,74,504
1,66,88,120
1,69,95,0
1,62,74,184
1,66,91,120
1,69,98,0
1,62,72,192
1,66,93,120
1,69,106,0
1,62,87,0
1,71,87,520
1,74,88,0
1,67,83,0
1,76,91,680
1,72,85,0
1,67,84,0
1,66,83,688
1,69,95,0
1,62,61,188
1,66,88,132
1,69,101,0
1,62,72,0
1,66,89,116
1,69,99,0
1,62,71,184
1,67,84,556
1,71,77,0
1,62,72,0
1,66,77,688
1,69,83,4
1,62,74,0
1,62,81,680
1,71,89,0
1,67,94,0
1,66,88,708
1,69,90,4
1,62,82,0
1,66,88,128
1,69,90,4
1,62,79,0
1,62,83,520
1,71,89,0
1,67,95,0
1,62,70,508
1,66,86,132
1,69,96,0
1,62,83,0
1,66,75,96
1,62,70,4
1,74,104,536
1,74,104,128
1,74,102,136
1,74,83,136
1,72,82,96
1,71,89,84
1,69,104,132
1,74,83,532
1,71,82,0
1,67,81,0
1,67,80,700
1,72,84,0
1,76,81,0
1,86,89,692
1,78,83,0
1,81,82,204
1,86,91,144
1,78,86,0
1,81,79,184
1,86,96,108
1,78,88,4
1,81,94,188
1,74,87,524
1,71,87,0
1,67,78,0
1,67,77,696
1,76,79,4
1,72,87,0
1,78,88,712
1,86,94,0
1,81,85,188
1,86,98,128
1,78,88,0
1,81,84,188
1,86,98,108
1,78,88,0
1,81,87,188
1,74,87,544
1,67,80,0
1,71,84,0
1,66,79,704
1,69,84,4
1,74,85,0
1,71,89,700
1,67,82,0
1,74,84,0
1,66,86,708
1,69,87,4
1,74,92,0
1,71,90,700
1,67,84,0
1,74,85,0
1,66,89,708
1,69,87,4
1,74,94,0
1,79,99,716
1,83,112,4
1,81,85,184
1,84,89,0
1,83,94,20
1,86,104,4
1,79,92,32
1,83,101,4
1,86,104,0
1,88,82,100
1,84,84,0
1,79,73,0
1,84,74,140
1,88,69,0
1,79,69,0
1,88,84,344
1,84,88,4
1,79,74,0
1,84,89,540
1,79,72,4
1,88,82,312
1,84,79,4
1,79,68,0
1,84,89,548
1,79,72,0
1,88,76,0
1,84,89,528
1,79,73,0
1,86,84,332
1,83,84,0
1,79,75,0
1,78,78,532
1,78,74,540
1,81,80,4
1,83,83,336
1,79,61,4
1,79,99,352
1,83,110,0
1,84,83,192
1,81,91,0
1,83,101,80
1,86,102,0
1,84,76,196
1,81,95,8
1,83,116,132
1,79,98,8
1,88,88,680
1,84,91,0
1,79,84,0
1,79,75,124
1,88,72,4
1,84,79,0
1,84,89,532
1,88,85,0
1,79,77,0
1,88,84,736
1,79,74,0
1,84,83,0
1,84,89,140
1,79,75,0
1,88,81,0
1,84,90,536
1,88,89,0
1,79,82,0
1,86,84,712
1,83,84,0
1,79,74,0
1,79,74,144
1,83,84,0
1,86,89,0
1,86,89,544
1,79,84,0
1,83,89,0
1,62,101,736
1,64,90,192
1,64,106,116
1,60,99,8
1,59,84,184
1,57,88,176
1,74,85,508
1,71,87,0
1,67,84,0
1,67,84,700
1,72,91,0
1,76,95,0
1,78,91,708
1,86,101,0
1,81,77,192
1,86,104,148
1,78,95,0
1,81,82,188
1,86,101,116
1,78,99,4
1,81,85,192
1,74,92,528
1,71,95,4
1,67,92,0
1,67,84,712
1,76,92,0
1,72,92,0
1,78,93,704
1,86,104,0
1,81,70,184
1,86,98,160
1,78,88,0
1,81,72,192
1,86,98,152
1,78,89,0
1,81,80,188
1,74,83,560
1,67,79,0
1,71,84,0
1,66,82,716
1,69,85,4
1,74,89,0
1,67,85,692
1,71,92,0
1,74,83,0
1,66,88,704
1,69,92,4
1,74,91,4
1,71,95,720
1,67,84,0
1,74,84,0
1,66,82,316
1,74,79,0
1,72,72,4
1,69,84,4
1,71,72,28
1,67,64,0
1,86,111,392
1,86,86,48
1,86,103,44
1,86,115,52
1,86,117,44
1,86,124,44
1,86,115,48
1,83,117,0
1,74,85,180
1,79,105,196
1,83,111,128
1,84,114,36
1,88,118,4
1,76,86,176
1,79,107,184
1,84,107,116
1,78,101,28
1,86,110,0
1,74,104,180
1,78,104,172
1,81,99,200
1,86,107,164
1,84,105,188
1,83,104,200
1,81,108,152
1,83,101,40
1,86,100,0
1,74,88,164
1,79,82,196
1,83,97,80
1,86,105,0
1,84,99,36
1,88,111,0
1,76,86,156
1,79,88,188
1,84,99,80
1,88,93,0
1,78,81,4
1,86,105,4
1,74,94,192
1,78,102,168
1,81,97,0
1,86,100,200
1,84,101,200
1,83,103,148
1,81,100,164
1,83,110,64
1,86,110,4
1,74,90,180
1,83,103,0
1,86,104,4
1,74,93,180
1,81,110,192
1,84,111,4
1,74,88,176
1,81,87,0
1,84,93,0
1,74,93,200
1,83,103,184
1,86,106,0
1,74,91,184
1,83,101,12
1,86,104,4
1,74,105,180
1,81,108,172
1,84,107,0
1,74,112,20
1,73,104,192
1,74,108,172
1,86,112,104
1,83,114,0
1,74,88,192
1,83,106,120
1,86,111,0
1,74,90,164
1,83,117,144
1,86,118,0
1,74,99,168
1,84,112,132
1,81,114,0
1,74,100,148
1,83,114,112
1,79,114,8
1,77,117,516
1,88,87,400
1,79,77,0
1,84,88,0
1,79,82,124
1,84,92,0
1,88,87,0
1,84,89,512
1,88,79,4
1,79,65,0
1,88,92,136
1,84,91,0
1,79,79,0
1,84,91,532
1,88,96,0
1,79,82,0
1,84,84,136
1,79,75,0
1,88,77,0
1,84,88,516
1,88,84,4
1,79,66,0
1,84,87,148
1,79,70,0
1,88,80,0
1,83,84,540
1,86,84,0
1,79,76,0
1,83,84,132
1,79,73,4
1,86,80,0
1,78,78,520
1,86,80,4
1,81,77,0
1,78,78,120
1,86,89,0
1,81,83,4
1,86,104,524
1,83,104,4
1,84,78,188
1,81,85,0
1,83,99,100
1,79,76,4
1,81,84,0
1,84,84,0
1,86,104,84
1,83,102,0
1,84,77,672
1,88,74,0
1,79,66,4
1,79,62,132
1,84,74,0
1,88,52,4
1,79,74,532
1,84,77,0
1,88,75,0
1,84,91,704
1,88,83,0
1,79,70,4
1,84,90,132
1,79,71,0
1,88,84,0
1,88,79,524
1,84,83,0
1,79,72,0
1,83,77,704
1,86,77,0
1,79,70,0
1,79,65,132
1,83,74,0
1,86,70,0
1,86,84,532
1,83,84,0
1,79,74,0
1,86,101,716
1,88,90,188
1,88,99,132
1,86,126,8
1,84,84,136
1,83,96,164
1,81,96,172
1,74,88,496
1,71,88,0
1,67,77,0
1,67,90,704
1,76,94,0
1,72,91,0
1,86,90,724
1,78,91,0
1,81,83,0
1,78,97,124
1,86,101,4
1,84,89,80
1,83,102,112
1,81,94,184
1,71,88,520
1,74,89,0
1,67,84,0
1,72,92,724
1,67,92,0
1,76,85,0
1,66,95,712
1,74,104,0
1,69,82,184
1,74,99,132
1,72,96,192
1,71,104,124
1,69,99,184
1,74,87,524
1,71,88,0
1,67,81,0
1,74,85,128
1,71,87,4
1,67,82,0
1,66,71,528
1,69,82,0
1,74,81,4
1,66,71,136
1,69,84,0
1,74,66,8
1,71,91,492
1,67,84,0
1,74,82,4
1,67,83,132
1,71,89,4
1,74,80,0
1,66,82,524
1,69,88,4
1,74,87,4
1,66,85,132
1,69,85,4
1,74,81,4
1,71,89,528
1,67,77,4
1,74,81,0
1,71,90,132
1,67,76,4
1,74,77,0
1,66,78,536
1,74,88,4
1,69,82,0
1,66,88,132
1,69,89,0
1,74,89,4
1,86,75,528
1,86,88,104
1,86,102,80
1,86,106,84
1,86,108,72
1,86,110,100
1,86,114,128
1,83,104,0
1,74,74,196
1,83,112,120
1,86,118,0
1,74,84,192
1,84,118,104
1,81,112,0
1,74,77,192
1,84,126,120
1,81,110,0
1,74,94,184
1,83,116,120
1,79,106,0
1,74,82,8
1,79,106,112
1,83,116,0
1,74,96,0
1,81,127,112
1,84,127,4
1,79,72,48
1,78,64,12
1,77,96,4
1,76,70,4
1,74,46,0
1,72,67,12
1,71,73,8
1,69,60,16
1,71,81,712
1,79,85,0
1,74,84,0
1,69,75,704
1,78,83,0
1,74,92,0
1,74,110,688
1,74,99,144
1,71,104,136
1,74,104,0
1,79,104,0
2,43,96,2652
2,48,96,8
2,38,102,16
2,38,101,76
2,43,89,16
2,48,99,36
2,38,102,8
2,38,97,80
2,43,97,88
2,48,87,20
2,38,99,28
2,38,96,72
2,43,96,36
2,48,84,40
2,38,96,32
2,38,100,76
2,43,94,92
2,38,102,44
2,43,92,28
2,38,97,52
2,43,89,56
2,38,100,64
2,43,89,16
2,38,100,80
2,43,96,172
2,48,96,56
2,38,99,36
2,38,96,80
2,43,95,96
2,48,96,68
2,38,94,44
2,38,96,108
2,43,94,148
2,38,92,60
2,43,95,124
2,38,100,112
2,43,91,80
2,38,94,116
2,43,96,112
2,38,99,80
2,48,94,112
2,43,91,116
2,48,91,112
2,43,93,176
2,43,89,132
2,38,99,76
2,43,95,84
2,38,96,104
2,48,103,228
2,43,92,128
2,48,86,56
2,43,91,104
2,43,89,128
2,43,84,168
2,38,99,144
2,38,102,144
2,43,93,236
2,48,89,124
2,38,99,108
2,38,97,124
2,43,95,164
2,48,91,100
2,38,96,88
2,38,96,96
2,43,95,184
2,38,96,116
2,43,91,244
2,38,100,144
2,43,95,300
2,38,99,136
2,43,96,200
2,38,101,176
2,43,92,240
2,48,89,152
2,38,96,128
2,38,94,124
2,43,91,144
2,48,91,148
2,38,96,112
2,38,100,128
2,43,91,224
2,38,103,132
2,43,89,132
2,38,99,148
2,43,95,148
2,38,91,128
2,43,91,188
2,38,102,120
2,48,92,212
2,43,89,244
2,48,88,192
2,43,90,248
2,43,89,136
2,38,94,200
2,43,95,208
2,38,104,116
2,48,99,112
2,43,90,220
2,48,93,204
2,43,90,220
2,43,95,204
2,43,90,236
2,38,101,184
2,38,102,224
2,43,89,276
2,48,91,176
2,38,96,188
2,38,94,132
2,43,89,196
2,48,86,152
2,38,91,156
2,38,96,160
2,43,86,148
2,38,88,160
2,43,88,196
2,38,90,208
2,43,89,224
2,38,95,196
2,43,91,208
2,38,90,176
2,43,93,232
2,38,96,248
2,43,89,252
2,38,93,208
2,43,88,168
2,38,96,224
2,43,89,232
2,38,96,180
2,43,89,156
3,47,68,2632
3,50,83,0
3,55,101,0
3,59,23,0
3,67,110,0
3,67,109,4
3,59,109,0
3,55,105,4
3,50,88,8
3,47,79,0
3,50,122,0
3,55,122,4
3,59,122,4
3,67,122,4
3,67,116,0
3,59,117,0
3,55,110,4
3,52,101,4
3,55,108,8
3,60,111,0
3,64,111,4
3,64,111,0
3,60,107,4
3,55,103,4
3,48,121,0
3,52,121,0
3,55,122,4
3,60,122,4
3,64,122,4
3,64,113,0
3,60,108,0
3,55,100,4
3,50,81,12
3,57,107,8
3,60,110,4
3,66,111,0
3,66,111,4
3,60,107,4
3,57,99,4
3,50,122,0
3,57,122,4
3,60,122,0
3,66,122,4
3,66,111,8
3,60,107,0
3,57,96,4
3,50,68,4
3,50,76,8
3,57,105,4
3,60,107,0
3,66,109,4
3,66,110,4
3,60,107,4
3,57,94,4
3,50,121,4
3,57,121,0
3,60,121,8
3,66,121,0
3,66,111,0
3,60,106,4
3,47,81,32
3,50,81,8
3,55,109,0
3,59,109,4
3,67,105,0
3,67,110,4
3,59,109,4
3,47,122,0
3,55,122,4
3,50,122,0
3,67,122,4
3,67,109,0
3,59,108,4
3,55,106,4
3,48,74,0
3,52,100,4
3,55,109,4
3,60,106,4
3,64,100,4
3,64,113,0
3,60,107,0
3,55,102,0
3,52,77,4
3,48,122,8
3,52,122,0
3,55,122,4
3,60,122,0
3,64,122,4
3,64,113,0
3,60,104,8
3,45,51,4
3,57,106,0
3,60,108,4
3,50,92,4
3,66,110,4
3,66,110,0
3,60,105,8
3,50,120,0
3,57,120,0
3,60,120,8
3,66,120,0
3,66,109,0
3,60,105,4
3,57,104,4
3,60,107,4
3,50,82,0
3,66,109,4
3,66,109,8
3,60,107,4
3,50,121,12
3,57,121,0
3,60,121,4
3,66,121,4
3,66,111,4
3,60,105,0
3,50,94,8
3,55,104,0
3,47,93,4
3,59,109,0
3,67,103,8
3,67,109,8
3,59,109,4
3,55,108,4
3,47,122,0
3,50,122,0
3,55,122,4
3,59,122,4
3,67,122,4
3,67,107,4
3,59,108,0
3,55,105,4
3,52,93,4
3,48,79,0
3,55,109,4
3,60,107,4
3,64,108,4
3,64,111,0
3,60,105,0
3,55,107,4
3,48,119,0
3,52,119,4
3,55,119,0
3,60,119,4
3,64,119,4
3,64,107,4
3,60,105,4
3,55,96,0
3,52,72,4
3,45,58,24
3,50,94,8
3,57,105,0
3,60,109,4
3,66,111,4
3,66,110,4
3,60,107,4
3,57,91,4
3,50,122,0
3,57,122,4
3,60,122,0
3,66,122,4
3,66,110,4
3,60,105,0
3,57,104,4
3,45,69,8
3,50,100,0
3,57,107,4
3,60,107,4
3,66,107,0
3,66,109,8
3,60,107,4
3,57,92,4
3,45,121,4
3,50,121,4
3,57,121,4
3,60,121,4
3,66,121,4
3,66,111,0
3,60,108,0
3,57,102,0
3,50,65,0
3,55,109,36
3,59,109,4
3,67,99,4
3,47,97,4
3,67,109,0
3,59,110,0
3,50,93,8
3,55,122,8
3,59,122,0
3,67,122,4
3,67,109,0
3,59,107,4
3,55,109,4
3,48,83,0
3,52,87,4
3,55,109,4
3,64,109,8
3,60,99,4
3,64,113,8
3,60,108,4
3,55,105,4
3,52,78,4
3,48,122,0
3,52,122,0
3,55,122,4
3,60,122,8
3,64,122,0
3,64,113,0
3,60,107,4
3,55,104,0
3,52,81,4
3,45,72,4
3,50,92,4
3,57,106,0
3,60,110,4
3,66,111,8
3,66,111,0
3,60,107,0
3,57,100,4
3,45,62,4
3,50,120,0
3,57,120,0
3,60,120,4
3,66,120,4
3,66,111,4
3,60,107,4
3,45,72,28
3,50,92,0
3,57,106,4
3,60,107,4
3,66,109,4
3,66,110,0
3,60,108,8
3,57,103,4
3,50,85,8
3,50,121,4
3,57,121,0
3,60,121,0
3,66,122,4
3,66,111,0
3,60,108,0
3,57,101,4
3,50,95,4
3,55,109,0
3,59,109,0
3,67,109,8
3,47,81,4
3,59,109,0
3,67,109,0
3,55,102,4
3,50,97,4
3,47,84,0
3,47,122,8
3,50,122,4
3,55,122,0
3,59,122,0
3,67,122,4
3,67,109,4
3,59,109,0
3,55,105,4
3,57,99,8
3,60,108,0
3,66,111,8
3,66,111,0
3,60,107,4
3,57,101,4
3,50,121,8
3,57,121,4
3,60,121,0
3,66,121,4
3,66,109,0
3,60,107,4
3,57,97,8
3,50,95,4
3,43,80,0
3,55,107,0
3,59,108,0
3,47,100,4
3,67,101,4
3,67,110,0
3,59,108,8
3,47,121,12
3,43,121,0
3,55,121,0
3,50,121,0
3,59,122,4
3,67,122,0
3,67,109,0
3,59,109,4
3,55,109,0
3,50,88,4
3,50,91,12
3,57,105,0
3,60,107,4
3,66,107,4
3,66,111,8
3,60,108,4
3,57,104,4
3,45,121,0
3,50,121,4
3,57,121,0
3,60,121,4
3,66,121,0
3,66,110,4
3,60,106,0
3,57,96,4
3,43,78,0
3,55,109,0
3,50,67,0
3,59,109,4
3,67,109,0
3,47,80,4
3,67,109,8
3,59,107,4
3,50,71,8
3,47,121,8
3,50,121,0
3,55,121,0
3,59,121,0
3,67,121,4
3,67,109,0
3,59,107,0
3,55,105,4
3,50,82,8
3,57,105,4
3,60,107,4
3,66,111,8
3,66,109,0
3,60,108,4
3,57,100,4
3,45,119,172
