track,note,velocity,time
1.0,74.0,47.0,720.0
1.0,74.0,0.0,240.0
1.0,74.0,50.0,0.0
1.0,74.0,0.0,360.0
1.0,76.0,46.0,0.0
1.0,76.0,0.0,60.0
1.0,78.0,49.0,0.0
1.0,78.0,0.0,60.0
1.0,79.0,52.0,0.0
1.0,79.0,0.0,180.0
1.0,79.0,47.0,60.0
1.0,79.0,0.0,180.0
1.0,79.0,50.0,60.0
1.0,79.0,0.0,480.0
1.0,78.0,47.0,0.0
1.0,78.0,0.0,240.0
1.0,76.0,47.0,0.0
1.0,76.0,0.0,240.0
1.0,76.0,50.0,0.0
1.0,76.0,0.0,120.0
1.0,74.0,45.0,0.0
1.0,74.0,0.0,120.0
1.0,72.0,45.0,0.0
1.0,72.0,0.0,120.0
1.0,71.0,45.0,0.0
1.0,71.0,0.0,120.0
1.0,74.0,50.0,0.0
1.0,74.0,0.0,120.0
1.0,72.0,45.0,0.0
1.0,72.0,0.0,120.0
1.0,71.0,45.0,0.0
1.0,71.0,0.0,120.0
1.0,69.0,45.0,0.0
1.0,69.0,0.0,120.0
1.0,71.0,50.0,0.0
1.0,71.0,0.0,240.0
1.0,67.0,46.0,0.0
1.0,67.0,0.0,240.0
1.0,74.0,56.0,240.0
1.0,74.0,0.0,240.0
1.0,74.0,60.0,0.0
1.0,74.0,0.0,360.0
1.0,76.0,58.0,0.0
1.0,76.0,0.0,60.0
1.0,78.0,62.0,0.0
1.0,78.0,0.0,60.0
1.0,79.0,67.0,0.0
1.0,79.0,0.0,180.0
1.0,83.0,68.0,60.0
1.0,83.0,0.0,120.0
1.0,83.0,71.0,120.0
1.0,83.0,0.0,480.0
1.0,81.0,69.0,0.0
1.0,81.0,0.0,240.0
1.0,79.0,66.0,0.0
1.0,79.0,0.0,240.0
1.0,79.0,68.0,0.0
1.0,79.0,0.0,120.0
1.0,78.0,61.0,0.0
1.0,78.0,0.0,120.0
1.0,76.0,61.0,0.0
1.0,76.0,0.0,120.0
1.0,74.0,60.0,0.0
1.0,74.0,0.0,120.0
1.0,76.0,72.0,0.0
1.0,76.0,0.0,64.0
1.0,78.0,60.0,0.0
1.0,78.0,0.0,64.0
1.0,76.0,60.0,0.0
1.0,76.0,0.0,64.0
1.0,78.0,67.0,0.0
1.0,78.0,0.0,48.0
1.0,76.0,58.0,0.0
1.0,76.0,0.0,48.0
1.0,78.0,62.0,0.0
1.0,78.0,0.0,48.0
1.0,76.0,64.0,0.0
1.0,76.0,0.0,48.0
1.0,74.0,62.0,0.0
1.0,74.0,0.0,48.0
1.0,76.0,64.0,0.0
1.0,76.0,0.0,48.0
1.0,74.0,68.0,0.0
1.0,74.0,0.0,480.0
1.0,74.0,47.0,240.0
1.0,74.0,0.0,240.0
1.0,74.0,50.0,0.0
1.0,74.0,0.0,360.0
1.0,76.0,46.0,0.0
1.0,76.0,0.0,60.0
1.0,78.0,49.0,0.0
1.0,78.0,0.0,60.0
1.0,79.0,52.0,0.0
1.0,79.0,0.0,180.0
1.0,79.0,47.0,60.0
1.0,79.0,0.0,180.0
1.0,79.0,50.0,60.0
1.0,79.0,0.0,480.0
1.0,78.0,47.0,0.0
1.0,78.0,0.0,240.0
1.0,76.0,47.0,0.0
1.0,76.0,0.0,240.0
1.0,76.0,50.0,0.0
1.0,76.0,0.0,120.0
1.0,74.0,45.0,0.0
1.0,74.0,0.0,120.0
1.0,72.0,45.0,0.0
1.0,72.0,0.0,120.0
1.0,71.0,45.0,0.0
1.0,71.0,0.0,120.0
1.0,74.0,50.0,0.0
1.0,74.0,0.0,120.0
1.0,72.0,45.0,0.0
1.0,72.0,0.0,120.0
1.0,71.0,45.0,0.0
1.0,71.0,0.0,120.0
1.0,69.0,45.0,0.0
1.0,69.0,0.0,120.0
1.0,71.0,50.0,0.0
1.0,71.0,0.0,240.0
1.0,67.0,46.0,0.0
1.0,67.0,0.0,240.0
1.0,74.0,56.0,240.0
1.0,74.0,0.0,240.0
1.0,74.0,60.0,0.0
1.0,74.0,0.0,360.0
1.0,76.0,58.0,0.0
1.0,76.0,0.0,60.0
1.0,78.0,62.0,0.0
1.0,78.0,0.0,60.0
1.0,79.0,67.0,0.0
1.0,79.0,0.0,180.0
1.0,83.0,68.0,60.0
1.0,83.0,0.0,180.0
1.0,83.0,71.0,60.0
1.0,83.0,0.0,480.0
1.0,81.0,69.0,0.0
1.0,81.0,0.0,240.0
1.0,79.0,66.0,0.0
1.0,79.0,0.0,240.0
1.0,79.0,68.0,0.0
1.0,79.0,0.0,120.0
1.0,78.0,61.0,0.0
1.0,78.0,0.0,120.0
1.0,76.0,61.0,0.0
1.0,76.0,0.0,120.0
1.0,74.0,60.0,0.0
1.0,74.0,0.0,120.0
1.0,76.0,72.0,0.0
1.0,76.0,0.0,64.0
1.0,78.0,60.0,0.0
1.0,78.0,0.0,64.0
1.0,76.0,60.0,0.0
1.0,76.0,0.0,64.0
1.0,78.0,67.0,0.0
1.0,78.0,0.0,48.0
1.0,76.0,58.0,0.0
1.0,76.0,0.0,48.0
1.0,78.0,62.0,0.0
1.0,78.0,0.0,48.0
1.0,76.0,64.0,0.0
1.0,76.0,0.0,48.0
1.0,74.0,62.0,0.0
1.0,74.0,0.0,48.0
1.0,76.0,64.0,0.0
1.0,76.0,0.0,48.0
1.0,74.0,68.0,0.0
1.0,74.0,0.0,480.0
1.0,74.0,70.0,240.0
1.0,74.0,0.0,120.0
1.0,86.0,72.0,0.0
1.0,86.0,0.0,120.0
1.0,86.0,80.0,0.0
1.0,86.0,0.0,480.0
1.0,84.0,74.0,0.0
1.0,84.0,0.0,120.0
1.0,83.0,65.0,0.0
1.0,83.0,0.0,60.0
1.0,81.0,74.0,60.0
1.0,81.0,0.0,60.0
1.0,80.0,69.0,60.0
1.0,80.0,0.0,60.0
1.0,81.0,78.0,60.0
1.0,81.0,0.0,480.0
1.0,72.0,68.0,240.0
1.0,72.0,0.0,120.0
1.0,84.0,72.0,0.0
1.0,84.0,0.0,120.0
1.0,84.0,80.0,0.0
1.0,84.0,0.0,480.0
1.0,83.0,75.0,0.0
1.0,83.0,0.0,120.0
1.0,81.0,65.0,0.0
1.0,81.0,0.0,60.0
1.0,79.0,74.0,60.0
1.0,79.0,0.0,60.0
1.0,78.0,67.0,60.0
1.0,78.0,0.0,60.0
1.0,79.0,78.0,60.0
1.0,79.0,0.0,480.0
1.0,74.0,50.0,240.0
1.0,74.0,0.0,120.0
1.0,79.0,46.0,0.0
1.0,79.0,0.0,120.0
1.0,76.0,50.0,0.0
1.0,76.0,0.0,34.0
1.0,78.0,47.0,0.0
1.0,78.0,0.0,34.0
1.0,76.0,50.0,1.0
1.0,76.0,0.0,34.0
1.0,78.0,46.0,0.0
1.0,78.0,0.0,34.0
1.0,76.0,50.0,0.0
1.0,76.0,0.0,34.0
1.0,74.0,47.0,0.0
1.0,74.0,0.0,34.0
1.0,76.0,47.0,0.0
1.0,76.0,0.0,35.0
1.0,74.0,53.0,0.0
1.0,74.0,0.0,240.0
1.0,74.0,50.0,0.0
1.0,74.0,0.0,80.0
1.0,76.0,47.0,0.0
1.0,76.0,0.0,80.0
1.0,78.0,47.0,0.0
1.0,78.0,0.0,80.0
1.0,79.0,50.0,0.0
1.0,79.0,0.0,80.0
1.0,78.0,46.0,0.0
1.0,78.0,0.0,80.0
1.0,79.0,46.0,0.0
1.0,79.0,0.0,80.0
1.0,76.0,50.0,0.0
1.0,76.0,0.0,34.0
1.0,78.0,47.0,0.0
1.0,78.0,0.0,34.0
1.0,76.0,50.0,1.0
1.0,76.0,0.0,34.0
1.0,78.0,46.0,0.0
1.0,78.0,0.0,34.0
1.0,76.0,50.0,0.0
1.0,76.0,0.0,34.0
1.0,74.0,47.0,0.0
1.0,74.0,0.0,34.0
1.0,76.0,47.0,0.0
1.0,76.0,0.0,35.0
1.0,74.0,53.0,0.0
1.0,74.0,0.0,180.0
1.0,69.0,53.0,0.0
1.0,69.0,0.0,30.0
1.0,71.0,53.0,0.0
1.0,71.0,0.0,30.0
1.0,72.0,62.0,0.0
1.0,72.0,0.0,480.0
1.0,72.0,53.0,0.0
1.0,72.0,0.0,120.0
1.0,71.0,50.0,0.0
1.0,71.0,0.0,120.0
1.0,69.0,50.0,0.0
1.0,69.0,0.0,120.0
1.0,67.0,51.0,0.0
1.0,67.0,0.0,120.0
1.0,71.0,58.0,0.0
1.0,71.0,0.0,120.0
1.0,69.0,51.0,0.0
1.0,69.0,0.0,120.0
1.0,67.0,56.0,0.0
1.0,67.0,0.0,120.0
1.0,66.0,61.0,0.0
1.0,66.0,0.0,120.0
1.0,67.0,65.0,0.0
1.0,67.0,0.0,120.0
1.0,79.0,62.0,0.0
1.0,79.0,0.0,120.0
1.0,79.0,68.0,0.0
1.0,79.0,0.0,120.0
1.0,69.0,66.0,60.0
1.0,69.0,0.0,30.0
1.0,71.0,69.0,0.0
1.0,71.0,0.0,30.0
1.0,72.0,72.0,0.0
1.0,72.0,0.0,480.0
1.0,72.0,70.0,0.0
1.0,72.0,0.0,120.0
1.0,71.0,62.0,0.0
1.0,71.0,0.0,120.0
1.0,69.0,62.0,0.0
1.0,69.0,0.0,120.0
1.0,67.0,61.0,0.0
1.0,67.0,0.0,120.0
1.0,71.0,67.0,0.0
1.0,71.0,0.0,120.0
1.0,69.0,62.0,0.0
1.0,69.0,0.0,120.0
1.0,67.0,64.0,0.0
1.0,67.0,0.0,120.0
1.0,66.0,66.0,0.0
1.0,66.0,0.0,120.0
1.0,67.0,73.0,0.0
1.0,67.0,0.0,240.0
1.0,74.0,68.0,480.0
1.0,74.0,0.0,120.0
1.0,86.0,72.0,0.0
1.0,86.0,0.0,120.0
1.0,86.0,80.0,0.0
1.0,86.0,0.0,480.0
1.0,84.0,73.0,0.0
1.0,84.0,0.0,120.0
1.0,83.0,66.0,0.0
1.0,83.0,0.0,60.0
1.0,81.0,73.0,60.0
1.0,81.0,0.0,60.0
1.0,80.0,68.0,60.0
1.0,80.0,0.0,60.0
1.0,81.0,78.0,60.0
1.0,81.0,0.0,480.0
1.0,72.0,68.0,240.0
1.0,72.0,0.0,120.0
1.0,84.0,72.0,0.0
1.0,84.0,0.0,120.0
1.0,84.0,80.0,0.0
1.0,84.0,0.0,480.0
1.0,83.0,75.0,0.0
1.0,83.0,0.0,120.0
1.0,81.0,68.0,0.0
1.0,81.0,0.0,60.0
1.0,79.0,75.0,60.0
1.0,79.0,0.0,60.0
1.0,78.0,67.0,60.0
1.0,78.0,0.0,60.0
1.0,79.0,78.0,60.0
1.0,79.0,0.0,480.0
1.0,74.0,50.0,240.0
1.0,74.0,0.0,120.0
1.0,79.0,46.0,0.0
1.0,79.0,0.0,120.0
1.0,76.0,50.0,0.0
1.0,76.0,0.0,34.0
1.0,78.0,47.0,0.0
1.0,78.0,0.0,34.0
1.0,76.0,50.0,1.0
1.0,76.0,0.0,34.0
1.0,78.0,46.0,0.0
1.0,78.0,0.0,34.0
1.0,76.0,50.0,0.0
1.0,76.0,0.0,34.0
1.0,74.0,47.0,0.0
1.0,74.0,0.0,34.0
1.0,76.0,47.0,0.0
1.0,76.0,0.0,35.0
1.0,74.0,53.0,0.0
1.0,74.0,0.0,240.0
1.0,74.0,50.0,0.0
1.0,74.0,0.0,80.0
1.0,76.0,48.0,0.0
1.0,76.0,0.0,80.0
1.0,78.0,48.0,0.0
1.0,78.0,0.0,80.0
1.0,79.0,50.0,0.0
1.0,79.0,0.0,80.0
1.0,78.0,48.0,0.0
1.0,78.0,0.0,80.0
1.0,79.0,48.0,0.0
1.0,79.0,0.0,80.0
1.0,76.0,50.0,0.0
1.0,76.0,0.0,34.0
1.0,78.0,47.0,0.0
1.0,78.0,0.0,34.0
1.0,76.0,50.0,1.0
1.0,76.0,0.0,34.0
1.0,78.0,46.0,0.0
1.0,78.0,0.0,34.0
1.0,76.0,50.0,0.0
1.0,76.0,0.0,34.0
1.0,74.0,47.0,0.0
1.0,74.0,0.0,34.0
1.0,76.0,47.0,0.0
1.0,76.0,0.0,35.0
1.0,74.0,53.0,0.0
1.0,74.0,0.0,180.0
1.0,69.0,53.0,0.0
1.0,69.0,0.0,30.0
1.0,71.0,53.0,0.0
1.0,71.0,0.0,30.0
1.0,72.0,62.0,0.0
1.0,72.0,0.0,480.0
1.0,72.0,53.0,0.0
1.0,72.0,0.0,120.0
1.0,71.0,50.0,0.0
1.0,71.0,0.0,120.0
1.0,69.0,50.0,0.0
1.0,69.0,0.0,120.0
1.0,67.0,51.0,0.0
1.0,67.0,0.0,120.0
1.0,71.0,59.0,0.0
1.0,71.0,0.0,120.0
1.0,69.0,51.0,0.0
1.0,69.0,0.0,120.0
1.0,67.0,56.0,0.0
1.0,67.0,0.0,120.0
1.0,66.0,61.0,0.0
1.0,66.0,0.0,120.0
1.0,67.0,65.0,0.0
1.0,67.0,0.0,120.0
1.0,79.0,62.0,0.0
1.0,79.0,0.0,120.0
1.0,79.0,68.0,0.0
1.0,79.0,0.0,120.0
1.0,69.0,66.0,60.0
1.0,69.0,0.0,30.0
1.0,71.0,69.0,0.0
1.0,71.0,0.0,30.0
1.0,72.0,72.0,0.0
1.0,72.0,0.0,480.0
1.0,72.0,70.0,0.0
1.0,72.0,0.0,120.0
1.0,71.0,62.0,0.0
1.0,71.0,0.0,120.0
1.0,69.0,62.0,0.0
1.0,69.0,0.0,120.0
1.0,67.0,61.0,0.0
1.0,67.0,0.0,120.0
1.0,71.0,68.0,0.0
1.0,71.0,0.0,120.0
1.0,69.0,62.0,0.0
1.0,69.0,0.0,120.0
1.0,67.0,64.0,0.0
1.0,67.0,0.0,120.0
1.0,66.0,66.0,0.0
1.0,66.0,0.0,120.0
1.0,67.0,73.0,0.0
1.0,67.0,0.0,480.0
2.0,55.0,40.0,1200.0
2.0,55.0,0.0,240.0
2.0,59.0,36.0,0.0
2.0,59.0,0.0,240.0
2.0,60.0,39.0,0.0
2.0,60.0,0.0,240.0
2.0,62.0,43.0,0.0
2.0,62.0,0.0,240.0
2.0,50.0,36.0,0.0
2.0,50.0,0.0,240.0
2.0,62.0,41.0,0.0
2.0,62.0,0.0,240.0
2.0,60.0,38.0,0.0
2.0,60.0,0.0,240.0
2.0,59.0,40.0,0.0
2.0,59.0,0.0,240.0
2.0,55.0,33.0,0.0
2.0,55.0,0.0,240.0
2.0,57.0,40.0,0.0
2.0,57.0,0.0,240.0
2.0,50.0,34.0,0.0
2.0,50.0,0.0,240.0
2.0,55.0,40.0,0.0
2.0,55.0,0.0,240.0
2.0,50.0,34.0,0.0
2.0,50.0,0.0,120.0
2.0,47.0,34.0,0.0
2.0,47.0,0.0,120.0
2.0,43.0,40.0,0.0
2.0,43.0,0.0,240.0
2.0,55.0,48.0,480.0
2.0,55.0,0.0,240.0
2.0,59.0,43.0,0.0
2.0,59.0,0.0,240.0
2.0,55.0,52.0,0.0
2.0,55.0,0.0,240.0
2.0,67.0,51.0,240.0
2.0,67.0,0.0,240.0
2.0,61.0,55.0,0.0
2.0,61.0,0.0,240.0
2.0,64.0,49.0,0.0
2.0,64.0,0.0,240.0
2.0,62.0,57.0,0.0
2.0,62.0,0.0,240.0
2.0,54.0,46.0,0.0
2.0,54.0,0.0,240.0
2.0,55.0,54.0,0.0
2.0,55.0,0.0,240.0
2.0,57.0,46.0,0.0
2.0,57.0,0.0,240.0
2.0,50.0,54.0,0.0
2.0,50.0,0.0,240.0
2.0,45.0,44.0,0.0
2.0,45.0,0.0,120.0
2.0,38.0,42.0,120.0
2.0,38.0,0.0,120.0
2.0,55.0,40.0,600.0
2.0,55.0,0.0,240.0
2.0,59.0,36.0,0.0
2.0,59.0,0.0,240.0
2.0,60.0,39.0,0.0
2.0,60.0,0.0,240.0
2.0,62.0,43.0,0.0
2.0,62.0,0.0,240.0
2.0,50.0,36.0,0.0
2.0,50.0,0.0,240.0
2.0,62.0,41.0,0.0
2.0,62.0,0.0,240.0
2.0,60.0,38.0,0.0
2.0,60.0,0.0,240.0
2.0,59.0,40.0,0.0
2.0,59.0,0.0,240.0
2.0,55.0,33.0,0.0
2.0,55.0,0.0,240.0
2.0,57.0,40.0,0.0
2.0,57.0,0.0,240.0
2.0,50.0,34.0,0.0
2.0,50.0,0.0,240.0
2.0,55.0,40.0,0.0
2.0,55.0,0.0,240.0
2.0,50.0,34.0,0.0
2.0,50.0,0.0,120.0
2.0,47.0,34.0,0.0
2.0,47.0,0.0,120.0
2.0,43.0,40.0,0.0
2.0,43.0,0.0,240.0
2.0,55.0,48.0,480.0
2.0,55.0,0.0,240.0
2.0,59.0,43.0,0.0
2.0,59.0,0.0,240.0
2.0,55.0,52.0,0.0
2.0,55.0,0.0,240.0
2.0,67.0,51.0,240.0
2.0,67.0,0.0,240.0
2.0,61.0,55.0,0.0
2.0,61.0,0.0,240.0
2.0,64.0,49.0,0.0
2.0,64.0,0.0,240.0
2.0,62.0,57.0,0.0
2.0,62.0,0.0,240.0
2.0,54.0,46.0,0.0
2.0,54.0,0.0,240.0
2.0,55.0,54.0,0.0
2.0,55.0,0.0,240.0
2.0,57.0,46.0,0.0
2.0,57.0,0.0,240.0
2.0,50.0,54.0,0.0
2.0,50.0,0.0,240.0
2.0,45.0,42.0,0.0
2.0,45.0,0.0,120.0
2.0,38.0,42.0,120.0
2.0,38.0,0.0,120.0
2.0,65.0,46.0,600.0
2.0,65.0,0.0,240.0
2.0,62.0,54.0,0.0
2.0,62.0,0.0,240.0
2.0,64.0,51.0,0.0
2.0,64.0,0.0,240.0
2.0,57.0,57.0,0.0
2.0,57.0,0.0,240.0
2.0,52.0,50.0,0.0
2.0,52.0,0.0,120.0
2.0,45.0,51.0,120.0
2.0,45.0,0.0,120.0
2.0,64.0,57.0,600.0
2.0,64.0,0.0,240.0
2.0,60.0,57.0,0.0
2.0,60.0,0.0,240.0
2.0,62.0,51.0,0.0
2.0,62.0,0.0,240.0
2.0,55.0,57.0,0.0
2.0,55.0,0.0,240.0
2.0,50.0,50.0,0.0
2.0,50.0,0.0,120.0
2.0,43.0,51.0,120.0
2.0,43.0,0.0,120.0
2.0,59.0,38.0,120.0
2.0,55.0,38.0,0.0
2.0,55.0,0.0,240.0
2.0,59.0,0.0,0.0
2.0,55.0,40.0,0.0
2.0,60.0,40.0,0.0
2.0,60.0,0.0,240.0
2.0,59.0,38.0,0.0
2.0,59.0,0.0,240.0
2.0,55.0,0.0,0.0
2.0,55.0,38.0,240.0
2.0,59.0,38.0,0.0
2.0,59.0,0.0,240.0
2.0,55.0,0.0,0.0
2.0,55.0,40.0,0.0
2.0,60.0,40.0,0.0
2.0,60.0,0.0,240.0
2.0,59.0,38.0,0.0
2.0,59.0,0.0,240.0
2.0,55.0,0.0,0.0
2.0,54.0,38.0,240.0
2.0,54.0,0.0,240.0
2.0,55.0,43.0,0.0
2.0,55.0,0.0,240.0
2.0,47.0,38.0,0.0
2.0,47.0,0.0,240.0
2.0,48.0,40.0,0.0
2.0,48.0,0.0,240.0
2.0,50.0,43.0,0.0
2.0,50.0,0.0,240.0
2.0,52.0,49.0,0.0
2.0,52.0,0.0,480.0
2.0,54.0,46.0,0.0
2.0,54.0,0.0,480.0
2.0,55.0,52.0,0.0
2.0,55.0,0.0,240.0
2.0,47.0,45.0,0.0
2.0,47.0,0.0,240.0
2.0,48.0,50.0,0.0
2.0,48.0,0.0,240.0
2.0,50.0,47.0,0.0
2.0,50.0,0.0,240.0
2.0,55.0,56.0,0.0
2.0,55.0,0.0,120.0
2.0,50.0,44.0,120.0
2.0,50.0,0.0,120.0
2.0,43.0,48.0,120.0
2.0,43.0,0.0,120.0
2.0,65.0,51.0,600.0
2.0,65.0,0.0,240.0
2.0,62.0,56.0,0.0
2.0,62.0,0.0,240.0
2.0,64.0,51.0,0.0
2.0,64.0,0.0,240.0
2.0,57.0,57.0,0.0
2.0,57.0,0.0,240.0
2.0,52.0,50.0,0.0
2.0,52.0,0.0,120.0
2.0,45.0,51.0,120.0
2.0,45.0,0.0,120.0
2.0,64.0,57.0,600.0
2.0,64.0,0.0,240.0
2.0,60.0,57.0,0.0
2.0,60.0,0.0,240.0
2.0,62.0,51.0,0.0
2.0,62.0,0.0,240.0
2.0,55.0,57.0,0.0
2.0,55.0,0.0,240.0
2.0,50.0,50.0,0.0
2.0,50.0,0.0,120.0
2.0,43.0,51.0,120.0
2.0,43.0,0.0,120.0
2.0,59.0,38.0,120.0
2.0,55.0,38.0,0.0
2.0,55.0,0.0,240.0
2.0,59.0,0.0,0.0
2.0,55.0,40.0,0.0
2.0,60.0,40.0,0.0
2.0,60.0,0.0,240.0
2.0,59.0,38.0,0.0
2.0,59.0,0.0,240.0
2.0,55.0,0.0,0.0
2.0,55.0,38.0,240.0
2.0,59.0,38.0,0.0
2.0,59.0,0.0,240.0
2.0,55.0,0.0,0.0
2.0,55.0,40.0,0.0
2.0,60.0,40.0,0.0
2.0,60.0,0.0,240.0
2.0,59.0,38.0,0.0
2.0,59.0,0.0,240.0
2.0,55.0,0.0,0.0
2.0,54.0,38.0,240.0
2.0,54.0,0.0,240.0
2.0,55.0,43.0,0.0
2.0,55.0,0.0,240.0
2.0,47.0,38.0,0.0
2.0,47.0,0.0,240.0
2.0,48.0,40.0,0.0
2.0,48.0,0.0,240.0
2.0,50.0,43.0,0.0
2.0,50.0,0.0,240.0
2.0,52.0,49.0,0.0
2.0,52.0,0.0,480.0
2.0,54.0,46.0,0.0
2.0,54.0,0.0,480.0
2.0,55.0,52.0,0.0
2.0,55.0,0.0,240.0
2.0,47.0,45.0,0.0
2.0,47.0,0.0,240.0
2.0,48.0,50.0,0.0
2.0,48.0,0.0,240.0
2.0,50.0,47.0,0.0
2.0,50.0,0.0,240.0
2.0,55.0,56.0,0.0
2.0,55.0,0.0,240.0
2.0,50.0,49.0,0.0
2.0,50.0,0.0,120.0
2.0,43.0,50.0,120.0
2.0,43.0,0.0,240.0
0.0,0.0,0.0,0.0
0.0,0.0,0.0,0.0
0.0,0.0,0.0,0.0
0.0,0.0,0.0,0.0
0.0,0.0,0.0,0.0
0.0,0.0,0.0,0.0
0.0,0.0,0.0,0.0
0.0,0.0,0.0,0.0
0.0,0.0,0.0,0.0
0.0,0.0,0.0,0.0
0.0,0.0,0.0,0.0
0.0,0.0,0.0,0.0
0.0,0.0,0.0,0.0
0.0,0.0,0.0,0.0
0.0,0.0,0.0,0.0
0.0,0.0,0.0,0.0
0.0,0.0,0.0,0.0
0.0,0.0,0.0,0.0
0.0,0.0,0.0,0.0
0.0,0.0,0.0,0.0
0.0,0.0,0.0,0.0
0.0,0.0,0.0,0.0
0.0,0.0,0.0,0.0
0.0,0.0,0.0,0.0
0.0,0.0,0.0,0.0
0.0,0.0,0.0,0.0
0.0,0.0,0.0,0.0
0.0,0.0,0.0,0.0
0.0,0.0,0.0,0.0
0.0,0.0,0.0,0.0
0.0,0.0,0.0,0.0
0.0,0.0,0.0,0.0
0.0,0.0,0.0,0.0
0.0,0.0,0.0,0.0
0.0,0.0,0.0,0.0
0.0,0.0,0.0,0.0
0.0,0.0,0.0,0.0
0.0,0.0,0.0,0.0
0.0,0.0,0.0,0.0
0.0,0.0,0.0,0.0
0.0,0.0,0.0,0.0
0.0,0.0,0.0,0.0
0.0,0.0,0.0,0.0
0.0,0.0,0.0,0.0
0.0,0.0,0.0,0.0
0.0,0.0,0.0,0.0
0.0,0.0,0.0,0.0
0.0,0.0,0.0,0.0
0.0,0.0,0.0,0.0
0.0,0.0,0.0,0.0
0.0,0.0,0.0,0.0
0.0,0.0,0.0,0.0
0.0,0.0,0.0,0.0
0.0,0.0,0.0,0.0
0.0,0.0,0.0,0.0
0.0,0.0,0.0,0.0
0.0,0.0,0.0,0.0
0.0,0.0,0.0,0.0
0.0,0.0,0.0,0.0
0.0,0.0,0.0,0.0
0.0,0.0,0.0,0.0
0.0,0.0,0.0,0.0
0.0,0.0,0.0,0.0
0.0,0.0,0.0,0.0
0.0,0.0,0.0,0.0
0.0,0.0,0.0,0.0
0.0,0.0,0.0,0.0
0.0,0.0,0.0,0.0
0.0,0.0,0.0,0.0
0.0,0.0,0.0,0.0
0.0,0.0,0.0,0.0
0.0,0.0,0.0,0.0
0.0,0.0,0.0,0.0
0.0,0.0,0.0,0.0
0.0,0.0,0.0,0.0
0.0,0.0,0.0,0.0
0.0,0.0,0.0,0.0
0.0,0.0,0.0,0.0
0.0,0.0,0.0,0.0
0.0,0.0,0.0,0.0
0.0,0.0,0.0,0.0
0.0,0.0,0.0,0.0
0.0,0.0,0.0,0.0
0.0,0.0,0.0,0.0
0.0,0.0,0.0,0.0
0.0,0.0,0.0,0.0
0.0,0.0,0.0,0.0
0.0,0.0,0.0,0.0
0.0,0.0,0.0,0.0
0.0,0.0,0.0,0.0
0.0,0.0,0.0,0.0
0.0,0.0,0.0,0.0
0.0,0.0,0.0,0.0
0.0,0.0,0.0,0.0
0.0,0.0,0.0,0.0
0.0,0.0,0.0,0.0
0.0,0.0,0.0,0.0
0.0,0.0,0.0,0.0
0.0,0.0,0.0,0.0
0.0,0.0,0.0,0.0
0.0,0.0,0.0,0.0
0.0,0.0,0.0,0.0
0.0,0.0,0.0,0.0
0.0,0.0,0.0,0.0
0.0,0.0,0.0,0.0
0.0,0.0,0.0,0.0
0.0,0.0,0.0,0.0
0.0,0.0,0.0,0.0
0.0,0.0,0.0,0.0
0.0,0.0,0.0,0.0
0.0,0.0,0.0,0.0
0.0,0.0,0.0,0.0
0.0,0.0,0.0,0.0
0.0,0.0,0.0,0.0
0.0,0.0,0.0,0.0
0.0,0.0,0.0,0.0
0.0,0.0,0.0,0.0
0.0,0.0,0.0,0.0
0.0,0.0,0.0,0.0
0.0,0.0,0.0,0.0
0.0,0.0,0.0,0.0
0.0,0.0,0.0,0.0
0.0,0.0,0.0,0.0
0.0,0.0,0.0,0.0
0.0,0.0,0.0,0.0
0.0,0.0,0.0,0.0
0.0,0.0,0.0,0.0
0.0,0.0,0.0,0.0
0.0,0.0,0.0,0.0
0.0,0.0,0.0,0.0
0.0,0.0,0.0,0.0
0.0,0.0,0.0,0.0
0.0,0.0,0.0,0.0
0.0,0.0,0.0,0.0
0.0,0.0,0.0,0.0
0.0,0.0,0.0,0.0
0.0,0.0,0.0,0.0
0.0,0.0,0.0,0.0
0.0,0.0,0.0,0.0
0.0,0.0,0.0,0.0
0.0,0.0,0.0,0.0
0.0,0.0,0.0,0.0
0.0,0.0,0.0,0.0
0.0,0.0,0.0,0.0
0.0,0.0,0.0,0.0
0.0,0.0,0.0,0.0
0.0,0.0,0.0,0.0
0.0,0.0,0.0,0.0
0.0,0.0,0.0,0.0
0.0,0.0,0.0,0.0
0.0,0.0,0.0,0.0
0.0,0.0,0.0,0.0
0.0,0.0,0.0,0.0
0.0,0.0,0.0,0.0
0.0,0.0,0.0,0.0
0.0,0.0,0.0,0.0
0.0,0.0,0.0,0.0
0.0,0.0,0.0,0.0
0.0,0.0,0.0,0.0
0.0,0.0,0.0,0.0
0.0,0.0,0.0,0.0
0.0,0.0,0.0,0.0
0.0,0.0,0.0,0.0
0.0,0.0,0.0,0.0
0.0,0.0,0.0,0.0
0.0,0.0,0.0,0.0
0.0,0.0,0.0,0.0
0.0,0.0,0.0,0.0
0.0,0.0,0.0,0.0
0.0,0.0,0.0,0.0
0.0,0.0,0.0,0.0
0.0,0.0,0.0,0.0
0.0,0.0,0.0,0.0
0.0,0.0,0.0,0.0
0.0,0.0,0.0,0.0
0.0,0.0,0.0,0.0
0.0,0.0,0.0,0.0
0.0,0.0,0.0,0.0
0.0,0.0,0.0,0.0
0.0,0.0,0.0,0.0
0.0,0.0,0.0,0.0
0.0,0.0,0.0,0.0
0.0,0.0,0.0,0.0
0.0,0.0,0.0,0.0
0.0,0.0,0.0,0.0
0.0,0.0,0.0,0.0
0.0,0.0,0.0,0.0
0.0,0.0,0.0,0.0
0.0,0.0,0.0,0.0
0.0,0.0,0.0,0.0
0.0,0.0,0.0,0.0
0.0,0.0,0.0,0.0
0.0,0.0,0.0,0.0
0.0,0.0,0.0,0.0
0.0,0.0,0.0,0.0
0.0,0.0,0.0,0.0
0.0,0.0,0.0,0.0
0.0,0.0,0.0,0.0
0.0,0.0,0.0,0.0
0.0,0.0,0.0,0.0
0.0,0.0,0.0,0.0
0.0,0.0,0.0,0.0
0.0,0.0,0.0,0.0
0.0,0.0,0.0,0.0
0.0,0.0,0.0,0.0
0.0,0.0,0.0,0.0
0.0,0.0,0.0,0.0
0.0,0.0,0.0,0.0
0.0,0.0,0.0,0.0
0.0,0.0,0.0,0.0
0.0,0.0,0.0,0.0
0.0,0.0,0.0,0.0
0.0,0.0,0.0,0.0
0.0,0.0,0.0,0.0
0.0,0.0,0.0,0.0
0.0,0.0,0.0,0.0
0.0,0.0,0.0,0.0
0.0,0.0,0.0,0.0
0.0,0.0,0.0,0.0
0.0,0.0,0.0,0.0
0.0,0.0,0.0,0.0
0.0,0.0,0.0,0.0
0.0,0.0,0.0,0.0
0.0,0.0,0.0,0.0
0.0,0.0,0.0,0.0
0.0,0.0,0.0,0.0
0.0,0.0,0.0,0.0
0.0,0.0,0.0,0.0
0.0,0.0,0.0,0.0
0.0,0.0,0.0,0.0
0.0,0.0,0.0,0.0
0.0,0.0,0.0,0.0
0.0,0.0,0.0,0.0
0.0,0.0,0.0,0.0
0.0,0.0,0.0,0.0
0.0,0.0,0.0,0.0
0.0,0.0,0.0,0.0
0.0,0.0,0.0,0.0
0.0,0.0,0.0,0.0
0.0,0.0,0.0,0.0
0.0,0.0,0.0,0.0
0.0,0.0,0.0,0.0
0.0,0.0,0.0,0.0
0.0,0.0,0.0,0.0
0.0,0.0,0.0,0.0
0.0,0.0,0.0,0.0
0.0,0.0,0.0,0.0
0.0,0.0,0.0,0.0
0.0,0.0,0.0,0.0
0.0,0.0,0.0,0.0
0.0,0.0,0.0,0.0
0.0,0.0,0.0,0.0
0.0,0.0,0.0,0.0
0.0,0.0,0.0,0.0
0.0,0.0,0.0,0.0
0.0,0.0,0.0,0.0
0.0,0.0,0.0,0.0
0.0,0.0,0.0,0.0
0.0,0.0,0.0,0.0
0.0,0.0,0.0,0.0
0.0,0.0,0.0,0.0
0.0,0.0,0.0,0.0
0.0,0.0,0.0,0.0
0.0,0.0,0.0,0.0
0.0,0.0,0.0,0.0
0.0,0.0,0.0,0.0
0.0,0.0,0.0,0.0
0.0,0.0,0.0,0.0
0.0,0.0,0.0,0.0
0.0,0.0,0.0,0.0
0.0,0.0,0.0,0.0
0.0,0.0,0.0,0.0
0.0,0.0,0.0,0.0
0.0,0.0,0.0,0.0
0.0,0.0,0.0,0.0
0.0,0.0,0.0,0.0
0.0,0.0,0.0,0.0
0.0,0.0,0.0,0.0
0.0,0.0,0.0,0.0
0.0,0.0,0.0,0.0
0.0,0.0,0.0,0.0
0.0,0.0,0.0,0.0
0.0,0.0,0.0,0.0
0.0,0.0,0.0,0.0
0.0,0.0,0.0,0.0
0.0,0.0,0.0,0.0
0.0,0.0,0.0,0.0
0.0,0.0,0.0,0.0
0.0,0.0,0.0,0.0
0.0,0.0,0.0,0.0
0.0,0.0,0.0,0.0
0.0,0.0,0.0,0.0
0.0,0.0,0.0,0.0
0.0,0.0,0.0,0.0
0.0,0.0,0.0,0.0
0.0,0.0,0.0,0.0
0.0,0.0,0.0,0.0
0.0,0.0,0.0,0.0
0.0,0.0,0.0,0.0
0.0,0.0,0.0,0.0
0.0,0.0,0.0,0.0
0.0,0.0,0.0,0.0
0.0,0.0,0.0,0.0
0.0,0.0,0.0,0.0
0.0,0.0,0.0,0.0
0.0,0.0,0.0,0.0
0.0,0.0,0.0,0.0
0.0,0.0,0.0,0.0
0.0,0.0,0.0,0.0
0.0,0.0,0.0,0.0
0.0,0.0,0.0,0.0
0.0,0.0,0.0,0.0
