track,note,velocity,time
1,71,72,0
1,78,46,0
1,78,46,0
1,73,46,0
1,71,46,0
1,81,46,0
1,81,56,12
1,84,46,72
1,79,46,0
1,76,46,0
1,76,46,12
1,81,46,0
1,78,46,0
1,79,72,0
1,84,46,0
1,77,46,0
1,81,46,0
1,76,46,0
1,74,46,64
1,84,46,0
1,84,56,0
1,84,46,20
1,81,46,26
1,79,46,0
1,77,46,0
1,74,46,0
1,73,72,8
1,74,46,0
1,79,46,0
1,76,46,0
1,72,72,0
1,76,46,0
1,74,46,0
1,77,46,0
1,76,46,0
1,67,46,0
1,77,46,0
1,74,46,0
1,81,46,0
1,84,46,0
1,76,46,0
1,76,46,0
1,77,46,0
1,76,46,0
1,74,46,1
1,69,46,0
1,70,56,1
1,72,46,0
1,72,46,1
1,74,46,1
1,74,46,1
1,76,46,1
1,77,46,1
1,81,46,1
1,67,46,0
1,67,46,1
1,74,46,1
1,65,46,1
1,65,46,1
1,64,46,1
1,71,72,1
1,71,56,0
1,73,46,0
1,73,46,2
1,71,46,1
1,74,46,1
1,77,46,2
1,69,46,0
1,69,46,2
1,70,46,1
1,73,46,1
1,76,46,2
1,81,46,6
1,82,46,7
1,77,46,7
1,72,46,6
1,67,46,7
1,69,72,7
1,69,46,0
1,81,46,0
1,81,56,0
1,81,46,0
1,81,46,0
1,69,46,0
1,69,72,0
1,83,46,0
1,83,56,0
1,73,46,0
1,73,46,0
1,76,46,0
1,76,72,0
1,73,46,0
1,73,46,0
1,71,56,0
1,72,46,0
1,72,46,2
1,69,46,1
1,74,46,1
1,75,46,2
1,67,46,0
1,67,46,2
1,69,46,1
1,65,46,1
1,64,46,2
1,67,46,6
1,67,46,7
1,65,46,7
1,65,46,6
1,74,46,7
1,73,72,7
1,71,46,0
1,71,46,0
1,69,46,0
1,68,46,0
1,74,46,0
1,64,56,0
1,71,46,0
1,69,46,0
1,73,46,0
1,69,46,0
1,69,46,0
1,71,46,1
1,68,46,0
1,73,46,77
1,66,46,0
1,71,46,2
1,68,46,0
1,80,72,2
1,78,46,0
1,73,46,0
1,76,46,2
1,66,46,0
1,80,46,2
1,78,46,0
1,73,46,0
1,76,46,2
1,66,46,0
1,66,68,2
1,80,56,0
1,81,46,0
1,80,46,0
1,80,46,0
1,81,46,0
1,78,46,0
1,80,46,0
1,71,46,0
1,81,46,0
1,78,46,0
1,73,46,0
1,83,46,0
1,78,46,0
1,80,72,0
1,76,46,0
1,76,46,0
1,73,46,0
1,78,46,0
1,80,46,0
1,80,46,0
1,83,46,0
1,81,46,0
1,80,46,0
1,80,46,0
1,83,46,0
1,78,46,0
1,66,46,0
1,66,46,0
1,71,46,0
1,73,56,0
1,69,46,0
1,71,46,0
1,76,46,0
1,80,46,0
1,66,46,0
1,71,46,0
1,73,46,0
1,74,46,0
1,81,46,0
1,78,46,0
1,76,46,0
1,78,46,0
1,80,46,0
1,76,46,0
1,71,46,0
1,78,46,192
1,80,46,0
1,76,46,0
1,71,46,0
1,78,56,384
1,80,46,0
1,76,46,0
1,71,46,0
1,78,46,384
1,80,46,0
1,76,46,0
1,71,46,0
1,81,72,0
1,81,46,10
1,80,46,27
1,78,46,129
1,88,46,123
1,78,46,0
1,78,46,1
1,83,46,1
1,80,46,0
1,85,46,2
1,83,46,0
1,83,46,0
1,81,46,0
1,80,46,62
1,81,46,0
1,78,46,1
1,76,46,2
1,76,46,1
1,78,72,2
1,66,46,0
1,71,46,0
1,71,46,0
1,69,46,0
1,71,46,0
1,71,56,0
1,73,31,4
1,71,46,16
1,66,46,0
1,66,46,0
1,68,46,0
1,59,46,0
1,60,72,0
1,70,46,0
1,65,46,0
1,75,46,0
1,73,46,0
1,70,46,64
1,72,46,0
1,72,56,0
1,75,46,20
1,68,46,26
1,73,46,0
1,78,46,0
1,70,46,0
1,75,72,8
1,73,46,0
1,77,46,0
1,72,46,0
1,72,72,0
1,76,46,0
1,74,46,0
1,77,46,0
1,76,46,0
1,67,46,0
1,77,46,0
1,74,46,0
1,81,46,0
1,84,46,0
1,76,46,0
1,76,46,0
1,77,46,0
1,76,46,0
1,74,46,1
1,65,46,0
1,70,56,1
1,72,46,0
1,72,46,1
1,74,46,1
1,74,46,1
1,76,46,1
1,77,46,1
1,81,46,1
1,67,46,0
1,67,46,1
1,74,46,1
1,65,46,1
1,65,46,1
1,64,46,1
1,71,72,1
1,71,56,0
1,73,46,0
1,73,46,2
1,71,46,1
1,74,46,1
1,77,46,2
1,69,46,0
1,69,46,2
1,70,46,1
1,73,46,1
1,76,46,2
1,81,46,6
1,82,46,7
1,77,46,7
1,72,46,6
1,67,46,7
1,69,72,7
1,69,46,0
1,81,46,0
1,81,56,0
1,81,46,0
1,81,46,0
1,69,46,0
1,69,72,0
1,83,46,0
1,83,56,0
1,73,46,0
1,73,46,0
1,76,46,0
1,76,72,0
1,73,46,0
1,73,46,0
1,71,56,0
1,72,46,0
1,72,46,2
1,69,46,1
1,74,46,1
1,75,46,2
1,67,46,0
1,67,46,2
1,69,46,1
1,65,46,1
1,64,46,2
1,67,46,6
1,67,46,7
1,65,46,7
1,65,46,6
1,70,46,7
1,71,72,7
1,69,46,0
1,69,46,0
1,67,46,0
1,66,46,0
1,72,46,0
1,62,56,0
1,69,46,0
1,67,46,0
1,71,46,0
1,67,46,0
1,67,46,0
1,69,46,1
1,66,46,0
1,71,46,77
1,64,46,0
1,69,46,2
1,66,46,0
1,78,72,2
1,76,46,0
1,71,46,0
1,74,46,2
1,64,46,0
1,78,46,2
1,76,46,0
1,71,46,0
1,74,46,2
1,64,46,0
1,64,56,2
1,66,46,230
1,67,46,0
1,72,46,1
1,71,46,0
1,78,46,1
1,79,46,0
1,76,46,0
1,81,46,1
1,78,46,0
1,79,46,1
1,78,46,0
1,78,46,0
1,76,46,0
1,86,56,0
1,81,46,0
1,81,46,1
1,83,46,1
1,84,46,1
1,88,46,1
1,83,46,1
1,83,46,1
1,84,46,1
1,74,46,1
1,81,46,1
1,83,46,1
1,76,46,0
1,76,46,1
1,79,46,1
1,79,46,1
1,86,46,1
1,78,46,1
1,78,46,1
1,81,46,1
1,76,46,1
1,71,46,1
1,81,72,1
1,72,46,64
1,72,46,64
1,79,56,0
1,75,46,50
1,82,46,2
1,80,46,1
1,77,46,1
1,77,46,2
1,79,46,0
1,75,46,2
1,70,46,1
1,80,46,1
1,84,46,2
1,82,46,6
1,82,46,7
1,80,46,7
1,80,46,6
1,77,46,7
1,82,56,7
1,78,46,0
1,78,46,1
1,80,46,1
1,77,46,1
1,73,46,1
1,73,46,1
1,75,46,1
1,71,46,1
1,80,46,1
1,77,46,1
1,77,46,1
1,75,46,0
1,78,46,1
1,77,46,1
1,73,46,1
1,75,46,1
1,80,46,1
1,73,46,1
1,78,46,1
1,65,46,1
1,63,46,1
1,72,72,1
2,71,102,0
2,71,32,0
2,71,32,0
2,71,32,0
2,71,32,0
2,71,32,0
2,71,32,0
2,71,32,0
2,71,32,0
2,71,32,0
2,71,32,0
2,71,32,0
2,78,76,0
2,78,76,0
2,73,76,0
2,71,76,0
2,81,76,0
2,81,62,12
2,81,62,12
2,81,62,12
2,81,62,12
2,81,62,12
2,81,62,12
2,81,62,12
2,81,86,12
2,84,76,72
2,79,76,0
2,76,76,0
2,76,32,32
2,76,32,32
2,76,76,32
2,81,76,0
2,78,76,0
2,79,102,0
2,84,76,0
2,77,76,0
2,81,76,0
2,81,32,32
2,81,32,32
2,76,76,32
2,74,76,64
2,84,76,0
2,84,86,0
2,84,76,20
2,81,76,26
2,79,76,0
2,77,76,0
2,74,76,0
2,73,102,8
2,73,32,20
2,73,32,0
2,73,32,0
2,73,32,0
2,73,32,0
2,73,32,0
2,73,32,0
2,73,32,0
2,73,32,0
2,73,32,0
2,73,32,0
2,73,32,0
2,73,32,0
2,73,32,0
2,73,32,0
2,73,32,0
2,73,32,0
2,74,76,0
2,79,76,0
2,76,76,0
2,76,44,12
2,76,46,12
2,76,48,12
2,76,51,12
2,76,53,12
2,76,55,12
2,76,58,12
2,76,60,12
2,76,62,12
2,76,64,12
2,76,67,12
2,76,69,12
2,76,71,12
2,76,74,12
2,76,76,12
2,76,78,12
2,76,81,12
2,76,83,12
2,76,85,12
2,76,87,12
2,76,90,12
2,76,92,12
2,76,94,12
2,76,97,12
2,76,99,12
2,76,101,12
2,76,104,12
2,76,106,12
2,76,108,12
2,76,110,12
2,76,113,12
2,76,115,12
2,76,117,12
2,76,120,12
2,72,102,36
2,76,76,0
2,74,76,0
2,77,76,0
2,76,76,0
2,67,76,0
2,77,76,0
2,74,76,0
2,81,76,0
2,84,76,0
2,76,76,0
2,76,76,0
2,77,76,0
2,76,76,0
2,74,76,1
2,69,76,0
2,70,86,1
2,72,76,0
2,72,76,1
2,74,76,1
2,74,76,1
2,76,76,1
2,77,76,1
2,81,76,1
2,67,76,0
2,67,76,1
2,74,76,1
2,65,76,1
2,65,76,1
2,64,76,1
2,71,102,1
2,71,65,12
2,71,67,12
2,71,69,12
2,71,71,12
2,71,73,12
2,71,75,12
2,71,76,12
2,71,78,12
2,71,80,12
2,71,82,12
2,71,84,12
2,71,86,12
2,71,88,12
2,71,90,12
2,71,92,12
2,71,93,12
2,71,95,12
2,71,97,12
2,71,99,12
2,71,101,12
2,71,103,12
2,71,105,12
2,71,107,12
2,71,109,12
2,71,111,12
2,71,112,12
2,71,114,12
2,71,116,12
2,71,118,12
2,71,120,12
2,71,122,12
2,71,86,12
2,73,76,0
2,73,76,2
2,71,76,1
2,74,76,1
2,77,76,2
2,69,76,0
2,69,76,2
2,70,76,1
2,73,76,1
2,76,76,2
2,81,76,6
2,82,76,7
2,77,76,7
2,72,76,6
2,67,76,7
2,69,102,7
2,69,76,0
2,81,76,0
2,81,57,0
2,81,60,0
2,81,62,0
2,81,86,32
2,81,76,0
2,81,76,0
2,69,76,0
2,69,102,0
2,83,56,0
2,83,56,0
2,83,56,0
2,83,56,0
2,83,56,0
2,83,56,0
2,83,56,0
2,83,56,0
2,83,56,0
2,83,56,0
2,83,56,0
2,83,56,0
2,83,56,0
2,83,56,0
2,83,56,0
2,73,56,0
2,73,76,0
2,76,76,0
2,76,102,0
2,73,76,0
2,73,76,0
2,71,86,0
2,72,76,0
2,72,76,2
2,69,76,1
2,74,76,1
2,75,76,2
2,67,76,0
2,67,76,2
2,69,76,1
2,65,76,1
2,64,76,2
2,67,76,6
2,67,76,7
2,65,76,7
2,65,76,6
2,74,76,7
2,73,102,7
2,73,58,12
2,73,59,12
2,73,59,12
2,73,60,12
2,73,60,12
2,73,60,12
2,73,61,12
2,73,61,12
2,73,62,12
2,73,62,12
2,73,63,12
2,73,63,12
2,73,64,12
2,73,64,12
2,73,64,12
2,73,65,12
2,73,65,12
2,73,66,12
2,73,66,12
2,73,67,12
2,73,67,12
2,73,68,12
2,73,68,12
2,73,69,12
2,73,69,12
2,73,69,12
2,73,70,12
2,73,70,12
2,73,71,12
2,73,71,12
2,73,72,12
2,73,72,12
2,73,73,12
2,73,73,12
2,73,74,12
2,73,74,12
2,73,74,12
2,73,75,12
2,73,75,12
2,73,76,12
2,73,76,12
2,73,77,12
2,73,77,12
2,73,78,12
2,73,78,12
2,73,78,12
2,73,79,12
2,73,79,12
2,73,36,20
2,73,38,0
2,73,41,0
2,73,43,0
2,73,46,0
2,73,48,0
2,73,51,0
2,73,53,0
2,73,55,0
2,73,58,0
2,73,60,0
2,73,62,0
2,73,65,0
2,73,67,0
2,73,69,0
2,73,72,0
2,73,74,0
2,73,77,0
2,73,79,0
2,73,81,0
2,73,84,0
2,73,86,0
2,73,89,0
2,71,113,0
2,71,76,0
2,69,76,0
2,68,76,0
2,74,76,0
2,64,86,0
2,71,76,0
2,69,76,0
2,73,76,0
2,69,76,0
2,69,76,0
2,71,76,1
2,68,76,0
2,73,76,77
2,66,76,0
2,71,76,2
2,68,76,0
2,80,102,2
2,78,76,0
2,73,76,0
2,76,76,2
2,66,76,0
2,80,76,2
2,78,76,0
2,73,76,0
2,76,76,2
2,66,76,0
2,66,72,2
2,66,74,12
2,66,75,12
2,66,77,12
2,66,78,12
2,66,80,12
2,66,81,12
2,66,83,12
2,66,85,12
2,66,86,12
2,66,88,12
2,66,89,12
2,66,91,12
2,66,92,12
2,66,94,12
2,66,95,12
2,66,97,12
2,66,99,12
2,66,99,12
2,66,99,12
2,66,99,12
2,66,99,12
2,66,99,12
2,66,99,12
2,66,99,12
2,66,99,12
2,66,99,12
2,66,99,12
2,66,99,12
2,66,99,12
2,66,99,12
2,66,99,12
2,66,99,12
2,66,99,12
2,66,99,12
2,66,99,12
2,66,99,12
2,66,99,12
2,66,99,12
2,66,99,12
2,66,99,12
2,66,99,12
2,66,99,12
2,66,99,12
2,66,99,12
2,66,99,12
2,66,99,12
2,66,102,12
2,66,100,12
2,66,98,12
2,66,96,12
2,66,93,12
2,66,91,12
2,66,89,12
2,66,87,12
2,66,84,12
2,66,82,12
2,66,80,12
2,66,77,12
2,66,75,12
2,66,73,12
2,66,71,12
2,66,68,12
2,66,66,12
2,80,86,12
2,81,76,0
2,80,76,0
2,80,76,0
2,81,76,0
2,78,76,0
2,80,76,0
2,71,76,0
2,81,76,0
2,78,76,0
2,73,76,0
2,83,76,0
2,78,76,0
2,80,102,0
2,76,76,0
2,76,76,0
2,73,76,0
2,78,76,0
2,80,76,0
2,80,76,0
2,83,76,0
2,81,76,0
2,80,76,0
2,80,76,0
2,83,76,0
2,78,76,0
2,66,76,0
2,66,76,0
2,71,76,0
2,73,86,0
2,69,76,0
2,71,76,0
2,76,76,0
2,80,76,0
2,66,76,0
2,71,76,0
2,73,76,0
2,74,76,0
2,81,76,0
2,78,76,0
2,76,76,0
2,78,76,0
2,80,76,0
2,76,76,0
2,71,76,0
2,71,62,0
2,71,62,36
2,71,62,36
2,71,62,36
2,78,76,36
2,80,76,0
2,76,76,0
2,71,76,0
2,71,62,0
2,71,62,36
2,71,62,36
2,71,62,36
2,71,62,36
2,71,62,36
2,71,62,36
2,71,62,36
2,78,86,36
2,80,76,0
2,76,76,0
2,71,76,0
2,83,62,0
2,71,62,0
2,83,62,12
2,71,62,0
2,83,62,12
2,71,62,0
2,83,62,12
2,71,62,0
2,83,62,12
2,71,62,0
2,83,62,12
2,71,62,0
2,83,62,12
2,71,62,0
2,83,62,12
2,71,62,0
2,83,62,12
2,71,62,0
2,83,62,12
2,71,62,0
2,83,62,12
2,71,62,0
2,83,62,12
2,71,62,0
2,83,62,12
2,71,62,0
2,83,62,12
2,71,62,0
2,83,62,12
2,71,62,0
2,83,62,12
2,71,62,0
2,78,76,12
2,80,76,0
2,76,76,0
2,71,76,0
2,81,102,0
2,81,62,12
2,81,62,12
2,81,62,12
2,81,62,12
2,81,62,12
2,81,62,12
2,81,62,12
2,81,62,12
2,81,62,12
2,81,62,12
2,81,62,12
2,81,62,12
2,81,62,12
2,81,62,12
2,81,76,6
2,80,76,27
2,78,76,129
2,88,76,123
2,78,76,0
2,78,76,1
2,83,76,1
2,80,76,0
2,85,76,2
2,83,76,0
2,83,76,0
2,81,76,0
2,80,76,62
2,81,76,0
2,78,76,1
2,76,76,2
2,76,76,1
2,78,102,2
2,78,62,12
2,78,62,12
2,78,62,12
2,78,62,12
2,78,62,12
2,78,62,12
2,78,62,12
2,78,62,12
2,78,62,36
2,78,62,36
2,78,62,36
2,66,76,36
2,71,76,0
2,71,76,0
2,69,76,0
2,71,76,0
2,71,62,36
2,71,62,36
2,71,62,36
2,71,86,36
2,73,61,4
2,71,76,16
2,66,76,0
2,66,62,36
2,66,62,36
2,66,62,36
2,66,76,36
2,68,76,0
2,59,76,0
2,60,102,0
2,70,76,0
2,65,76,0
2,75,76,0
2,75,62,36
2,75,62,36
2,75,62,36
2,73,76,36
2,70,76,64
2,72,76,0
2,72,62,36
2,72,62,36
2,72,62,36
2,72,86,36
2,75,76,20
2,68,76,26
2,73,76,0
