track,note,velocity,time
1.0,81.0,64.0,2.0
1.0,79.0,64.0,16.0
1.0,77.0,64.0,8.0
1.0,74.0,64.0,9.0
1.0,79.0,64.0,15.0
1.0,77.0,64.0,15.0
1.0,74.0,64.0,7.0
1.0,72.0,64.0,7.0
1.0,77.0,64.0,15.0
1.0,74.0,64.0,16.0
1.0,72.0,64.0,7.0
1.0,71.0,64.0,9.0
1.0,74.0,64.0,15.0
1.0,72.0,64.0,16.0
1.0,71.0,64.0,9.0
1.0,69.0,64.0,8.0
1.0,59.0,64.0,113.0
1.0,62.0,64.0,15.0
1.0,60.0,64.0,16.0
1.0,65.0,64.0,39.0
1.0,62.0,64.0,15.0
1.0,67.0,64.0,16.0
1.0,65.0,64.0,39.0
1.0,69.0,64.0,16.0
1.0,72.0,64.0,16.0
1.0,67.0,64.0,16.0
1.0,74.0,64.0,15.0
1.0,69.0,64.0,16.0
1.0,77.0,64.0,16.0
1.0,72.0,64.0,17.0
1.0,79.0,64.0,16.0
1.0,74.0,64.0,16.0
1.0,81.0,64.0,16.0
1.0,79.0,64.0,17.0
1.0,77.0,64.0,16.0
1.0,74.0,64.0,8.0
1.0,72.0,64.0,7.0
1.0,77.0,64.0,15.0
1.0,76.0,64.0,16.0
1.0,79.0,64.0,8.0
1.0,77.0,64.0,8.0
1.0,76.0,64.0,16.0
1.0,74.0,64.0,15.0
1.0,77.0,64.0,7.0
1.0,76.0,64.0,9.0
1.0,74.0,64.0,16.0
1.0,72.0,64.0,16.0
1.0,76.0,64.0,7.0
1.0,74.0,64.0,7.0
1.0,72.0,64.0,16.0
1.0,74.0,64.0,8.0
1.0,71.0,64.0,8.0
1.0,72.0,64.0,7.0
1.0,69.0,64.0,7.0
1.0,65.0,64.0,8.0
1.0,67.0,64.0,9.0
1.0,72.0,64.0,111.0
1.0,74.0,64.0,0.0
1.0,76.0,64.0,0.0
1.0,77.0,64.0,0.0
1.0,79.0,64.0,1.0
1.0,81.0,64.0,0.0
1.0,83.0,64.0,0.0
1.0,83.0,64.0,40.0
1.0,86.0,64.0,16.0
1.0,83.0,64.0,15.0
1.0,81.0,64.0,223.0
1.0,83.0,64.0,7.0
1.0,81.0,64.0,40.0
1.0,79.0,64.0,15.0
1.0,77.0,64.0,9.0
1.0,74.0,64.0,9.0
1.0,79.0,64.0,16.0
1.0,77.0,64.0,15.0
1.0,74.0,64.0,8.0
1.0,72.0,64.0,8.0
1.0,77.0,64.0,16.0
1.0,74.0,64.0,16.0
1.0,72.0,64.0,8.0
1.0,71.0,64.0,8.0
1.0,74.0,64.0,16.0
1.0,72.0,64.0,16.0
1.0,71.0,64.0,8.0
1.0,69.0,64.0,8.0
1.0,59.0,64.0,111.0
1.0,62.0,64.0,16.0
1.0,60.0,64.0,16.0
1.0,65.0,64.0,40.0
1.0,62.0,64.0,16.0
1.0,67.0,64.0,16.0
1.0,65.0,64.0,41.0
1.0,69.0,64.0,16.0
1.0,72.0,64.0,16.0
1.0,67.0,64.0,16.0
1.0,74.0,64.0,15.0
1.0,69.0,64.0,16.0
1.0,77.0,64.0,16.0
1.0,72.0,64.0,16.0
1.0,79.0,64.0,16.0
1.0,74.0,64.0,15.0
1.0,81.0,64.0,16.0
1.0,79.0,64.0,16.0
1.0,77.0,64.0,16.0
1.0,74.0,64.0,8.0
1.0,72.0,64.0,8.0
1.0,77.0,64.0,15.0
1.0,76.0,64.0,15.0
1.0,79.0,64.0,7.0
1.0,77.0,64.0,8.0
1.0,76.0,64.0,16.0
1.0,74.0,64.0,15.0
1.0,77.0,64.0,7.0
1.0,76.0,64.0,8.0
1.0,74.0,64.0,15.0
1.0,72.0,64.0,16.0
1.0,76.0,64.0,9.0
1.0,74.0,64.0,7.0
1.0,72.0,64.0,15.0
1.0,74.0,64.0,9.0
1.0,71.0,64.0,8.0
1.0,72.0,64.0,8.0
1.0,69.0,64.0,7.0
1.0,65.0,64.0,8.0
1.0,67.0,64.0,8.0
1.0,72.0,64.0,113.0
1.0,74.0,64.0,1.0
1.0,76.0,64.0,1.0
1.0,77.0,64.0,1.0
1.0,79.0,64.0,0.0
1.0,81.0,64.0,0.0
1.0,83.0,64.0,0.0
1.0,83.0,64.0,39.0
1.0,86.0,64.0,16.0
1.0,83.0,64.0,16.0
1.0,81.0,64.0,224.0
1.0,83.0,64.0,8.0
2.0,69.0,64.0,2.0
2.0,67.0,64.0,17.0
2.0,65.0,64.0,8.0
2.0,62.0,64.0,8.0
2.0,67.0,64.0,16.0
2.0,65.0,64.0,16.0
2.0,62.0,64.0,9.0
2.0,60.0,64.0,7.0
2.0,65.0,64.0,16.0
2.0,62.0,64.0,15.0
2.0,60.0,64.0,7.0
2.0,59.0,64.0,7.0
2.0,62.0,64.0,16.0
2.0,60.0,64.0,16.0
2.0,59.0,64.0,8.0
2.0,57.0,64.0,8.0
2.0,47.0,64.0,112.0
2.0,50.0,64.0,17.0
2.0,48.0,64.0,17.0
2.0,53.0,64.0,40.0
2.0,50.0,64.0,17.0
2.0,55.0,64.0,17.0
2.0,53.0,64.0,41.0
2.0,57.0,64.0,16.0
2.0,60.0,64.0,16.0
2.0,55.0,64.0,16.0
2.0,62.0,64.0,16.0
2.0,57.0,64.0,16.0
2.0,65.0,64.0,16.0
2.0,60.0,64.0,16.0
2.0,67.0,64.0,16.0
2.0,62.0,64.0,16.0
2.0,69.0,64.0,16.0
2.0,67.0,64.0,16.0
2.0,65.0,64.0,16.0
2.0,62.0,64.0,9.0
2.0,60.0,64.0,8.0
2.0,65.0,64.0,16.0
2.0,64.0,64.0,16.0
2.0,67.0,64.0,7.0
2.0,65.0,64.0,8.0
2.0,64.0,64.0,16.0
2.0,62.0,64.0,16.0
2.0,65.0,64.0,9.0
2.0,64.0,64.0,8.0
2.0,62.0,64.0,16.0
2.0,60.0,64.0,16.0
2.0,64.0,64.0,8.0
2.0,62.0,64.0,8.0
2.0,60.0,64.0,15.0
2.0,62.0,64.0,8.0
2.0,59.0,64.0,7.0
2.0,60.0,64.0,7.0
2.0,57.0,64.0,8.0
2.0,53.0,64.0,8.0
2.0,55.0,64.0,8.0
2.0,57.0,64.0,112.0
2.0,59.0,64.0,0.0
2.0,60.0,64.0,0.0
2.0,62.0,64.0,0.0
2.0,64.0,64.0,0.0
2.0,65.0,64.0,0.0
2.0,67.0,64.0,0.0
2.0,67.0,64.0,40.0
2.0,71.0,64.0,16.0
2.0,67.0,64.0,15.0
2.0,65.0,64.0,224.0
2.0,67.0,64.0,9.0
2.0,69.0,64.0,40.0
2.0,67.0,64.0,16.0
2.0,65.0,64.0,8.0
2.0,62.0,64.0,8.0
2.0,67.0,64.0,16.0
2.0,65.0,64.0,16.0
2.0,62.0,64.0,8.0
2.0,60.0,64.0,7.0
2.0,65.0,64.0,16.0
2.0,62.0,64.0,16.0
2.0,60.0,64.0,8.0
2.0,59.0,64.0,8.0
2.0,62.0,64.0,15.0
2.0,60.0,64.0,17.0
2.0,59.0,64.0,8.0
2.0,57.0,64.0,9.0
2.0,47.0,64.0,112.0
2.0,50.0,64.0,16.0
2.0,48.0,64.0,16.0
2.0,53.0,64.0,40.0
2.0,50.0,64.0,16.0
2.0,55.0,64.0,16.0
2.0,53.0,64.0,41.0
2.0,57.0,64.0,17.0
2.0,60.0,64.0,16.0
2.0,55.0,64.0,17.0
2.0,62.0,64.0,16.0
2.0,57.0,64.0,16.0
2.0,65.0,64.0,16.0
2.0,60.0,64.0,16.0
2.0,67.0,64.0,16.0
2.0,62.0,64.0,16.0
2.0,69.0,64.0,17.0
2.0,67.0,64.0,16.0
2.0,65.0,64.0,16.0
2.0,62.0,64.0,7.0
2.0,60.0,64.0,8.0
2.0,65.0,64.0,16.0
2.0,64.0,64.0,16.0
2.0,67.0,64.0,7.0
2.0,65.0,64.0,8.0
2.0,64.0,64.0,16.0
2.0,62.0,64.0,16.0
2.0,65.0,64.0,8.0
2.0,64.0,64.0,8.0
2.0,62.0,64.0,16.0
2.0,60.0,64.0,15.0
2.0,64.0,64.0,8.0
2.0,62.0,64.0,8.0
2.0,60.0,64.0,17.0
2.0,62.0,64.0,8.0
2.0,59.0,64.0,8.0
2.0,60.0,64.0,8.0
2.0,57.0,64.0,8.0
2.0,53.0,64.0,8.0
2.0,55.0,64.0,9.0
2.0,57.0,64.0,112.0
2.0,59.0,64.0,1.0
2.0,60.0,64.0,0.0
2.0,62.0,64.0,0.0
2.0,64.0,64.0,0.0
2.0,65.0,64.0,0.0
2.0,67.0,64.0,0.0
2.0,67.0,64.0,41.0
2.0,71.0,64.0,16.0
2.0,67.0,64.0,17.0
2.0,65.0,64.0,223.0
2.0,67.0,64.0,8.0
3.0,50.0,64.0,2.0
3.0,50.0,64.0,40.0
3.0,57.0,64.0,15.0
3.0,55.0,64.0,16.0
3.0,50.0,64.0,40.0
3.0,50.0,64.0,40.0
3.0,57.0,64.0,16.0
3.0,55.0,64.0,16.0
3.0,50.0,64.0,40.0
3.0,50.0,64.0,39.0
3.0,57.0,64.0,16.0
3.0,55.0,64.0,16.0
3.0,50.0,64.0,40.0
3.0,50.0,64.0,40.0
3.0,57.0,64.0,16.0
3.0,55.0,64.0,16.0
3.0,50.0,64.0,39.0
3.0,50.0,64.0,40.0
3.0,57.0,64.0,16.0
3.0,55.0,64.0,16.0
3.0,50.0,64.0,40.0
3.0,50.0,64.0,40.0
3.0,57.0,64.0,16.0
3.0,55.0,64.0,16.0
3.0,50.0,64.0,40.0
3.0,50.0,64.0,40.0
3.0,57.0,64.0,16.0
3.0,55.0,64.0,16.0
3.0,50.0,64.0,40.0
3.0,50.0,64.0,40.0
3.0,57.0,64.0,16.0
3.0,55.0,64.0,16.0
3.0,50.0,64.0,40.0
3.0,50.0,64.0,40.0
3.0,57.0,64.0,15.0
3.0,55.0,64.0,17.0
3.0,50.0,64.0,40.0
3.0,50.0,64.0,40.0
3.0,57.0,64.0,16.0
3.0,55.0,64.0,16.0
3.0,50.0,64.0,40.0
3.0,50.0,64.0,39.0
3.0,57.0,64.0,16.0
3.0,55.0,64.0,16.0
3.0,50.0,64.0,40.0
3.0,50.0,64.0,40.0
3.0,57.0,64.0,16.0
3.0,55.0,64.0,16.0
3.0,50.0,64.0,40.0
3.0,50.0,64.0,40.0
3.0,57.0,64.0,16.0
3.0,55.0,64.0,16.0
3.0,50.0,64.0,40.0
3.0,50.0,64.0,40.0
3.0,57.0,64.0,16.0
3.0,55.0,64.0,16.0
3.0,50.0,64.0,39.0
3.0,50.0,64.0,40.0
3.0,57.0,64.0,17.0
3.0,55.0,64.0,16.0
3.0,50.0,64.0,2344.0
3.0,50.0,64.0,40.0
3.0,57.0,64.0,15.0
3.0,55.0,64.0,16.0
3.0,50.0,64.0,39.0
3.0,50.0,64.0,39.0
3.0,57.0,64.0,16.0
3.0,55.0,64.0,16.0
3.0,50.0,64.0,40.0
3.0,50.0,64.0,40.0
3.0,57.0,64.0,16.0
3.0,55.0,64.0,16.0
3.0,50.0,64.0,40.0
3.0,50.0,64.0,40.0
3.0,57.0,64.0,16.0
3.0,55.0,64.0,16.0
3.0,50.0,64.0,40.0
3.0,50.0,64.0,40.0
3.0,57.0,64.0,16.0
3.0,55.0,64.0,16.0
3.0,50.0,64.0,40.0
3.0,50.0,64.0,40.0
3.0,57.0,64.0,16.0
3.0,55.0,64.0,16.0
3.0,50.0,64.0,41.0
3.0,50.0,64.0,40.0
3.0,57.0,64.0,16.0
3.0,55.0,64.0,16.0
4.0,38.0,93.0,0.0
4.0,59.0,107.0,0.0
4.0,59.0,87.0,63.0
4.0,38.0,85.0,63.0
4.0,59.0,107.0,0.0
4.0,38.0,82.0,53.0
4.0,59.0,107.0,0.0
4.0,59.0,87.0,30.0
4.0,41.0,89.0,0.0
4.0,59.0,102.0,69.0
4.0,59.0,110.0,60.0
4.0,38.0,98.0,0.0
4.0,59.0,100.0,63.0
4.0,59.0,105.0,67.0
4.0,38.0,91.0,0.0
4.0,59.0,107.0,65.0
4.0,38.0,85.0,0.0
4.0,59.0,105.0,52.0
4.0,41.0,105.0,0.0
4.0,59.0,87.0,7.0
4.0,59.0,110.0,60.0
4.0,38.0,98.0,0.0
4.0,59.0,100.0,63.0
4.0,59.0,105.0,67.0
4.0,38.0,91.0,0.0
4.0,59.0,107.0,65.0
4.0,38.0,85.0,0.0
4.0,59.0,105.0,52.0
4.0,41.0,105.0,0.0
4.0,59.0,87.0,7.0
4.0,59.0,102.0,60.0
4.0,38.0,78.0,0.0
4.0,59.0,91.0,67.0
4.0,38.0,87.0,70.0
4.0,59.0,85.0,0.0
4.0,38.0,95.0,56.0
4.0,59.0,87.0,0.0
4.0,41.0,100.0,47.0
4.0,59.0,95.0,0.0
4.0,59.0,87.0,5.0
4.0,59.0,102.0,68.0
4.0,38.0,93.0,1.0
4.0,59.0,87.0,95.0
4.0,38.0,85.0,63.0
4.0,59.0,107.0,0.0
4.0,38.0,82.0,53.0
4.0,59.0,107.0,0.0
4.0,59.0,87.0,30.0
4.0,41.0,89.0,0.0
4.0,59.0,102.0,69.0
4.0,59.0,110.0,60.0
4.0,38.0,98.0,0.0
4.0,59.0,100.0,63.0
4.0,59.0,105.0,67.0
4.0,38.0,91.0,0.0
4.0,59.0,107.0,65.0
4.0,38.0,85.0,0.0
4.0,59.0,105.0,52.0
4.0,41.0,105.0,0.0
4.0,59.0,87.0,7.0
4.0,59.0,110.0,60.0
4.0,38.0,98.0,0.0
4.0,59.0,100.0,63.0
4.0,59.0,105.0,67.0
4.0,38.0,91.0,0.0
4.0,59.0,107.0,65.0
4.0,38.0,85.0,0.0
4.0,59.0,105.0,52.0
4.0,41.0,105.0,0.0
4.0,59.0,87.0,7.0
4.0,59.0,102.0,60.0
4.0,38.0,78.0,0.0
4.0,59.0,91.0,67.0
4.0,38.0,87.0,70.0
4.0,59.0,85.0,0.0
4.0,38.0,95.0,56.0
4.0,59.0,87.0,0.0
4.0,41.0,100.0,47.0
4.0,59.0,95.0,0.0
4.0,59.0,87.0,5.0
4.0,59.0,102.0,68.0
4.0,38.0,93.0,1.0
4.0,59.0,87.0,95.0
4.0,38.0,85.0,95.0
4.0,59.0,107.0,0.0
4.0,38.0,82.0,95.0
4.0,59.0,107.0,0.0
4.0,59.0,87.0,95.0
4.0,41.0,89.0,0.0
4.0,59.0,102.0,95.0
4.0,59.0,110.0,95.0
4.0,38.0,98.0,0.0
4.0,59.0,100.0,95.0
4.0,59.0,105.0,95.0
4.0,38.0,91.0,0.0
4.0,59.0,107.0,95.0
4.0,38.0,85.0,0.0
4.0,59.0,105.0,95.0
4.0,41.0,105.0,0.0
4.0,59.0,87.0,95.0
4.0,59.0,105.0,95.0
4.0,38.0,95.0,0.0
4.0,59.0,87.0,95.0
4.0,38.0,87.0,95.0
4.0,59.0,102.0,0.0
4.0,38.0,102.0,95.0
4.0,59.0,102.0,0.0
4.0,59.0,85.0,95.0
4.0,41.0,105.0,0.0
4.0,59.0,95.0,7.0
4.0,59.0,102.0,95.0
4.0,38.0,78.0,0.0
4.0,59.0,91.0,95.0
4.0,38.0,87.0,95.0
4.0,59.0,85.0,0.0
4.0,38.0,95.0,95.0
4.0,59.0,87.0,0.0
4.0,41.0,100.0,95.0
4.0,59.0,95.0,0.0
4.0,59.0,87.0,95.0
4.0,59.0,102.0,94.0
4.0,38.0,98.0,0.0
4.0,59.0,100.0,95.0
4.0,59.0,105.0,95.0
4.0,38.0,91.0,0.0
4.0,59.0,107.0,95.0
4.0,38.0,85.0,0.0
4.0,59.0,105.0,95.0
4.0,41.0,105.0,0.0
4.0,59.0,87.0,95.0
4.0,41.0,105.0,100.0
4.0,41.0,102.0,70.0
4.0,41.0,89.0,29.0
4.0,41.0,102.0,28.0
4.0,41.0,100.0,79.0
4.0,41.0,98.0,75.0
4.0,41.0,89.0,29.0
4.0,41.0,102.0,30.0
4.0,41.0,107.0,81.0
4.0,41.0,89.0,77.0
4.0,41.0,87.0,31.0
4.0,41.0,98.0,32.0
4.0,41.0,105.0,89.0
4.0,41.0,98.0,76.0
4.0,41.0,100.0,36.0
4.0,41.0,98.0,34.0
4.0,43.0,127.0,89.0
4.0,38.0,93.0,2231.0
4.0,59.0,107.0,0.0
4.0,59.0,87.0,63.0
4.0,38.0,85.0,63.0
4.0,59.0,107.0,0.0
4.0,38.0,82.0,53.0
4.0,59.0,107.0,0.0
4.0,59.0,87.0,30.0
4.0,41.0,89.0,0.0
4.0,59.0,102.0,69.0
4.0,59.0,107.0,60.0
4.0,38.0,93.0,0.0
4.0,59.0,87.0,95.0
4.0,59.0,107.0,95.0
4.0,38.0,85.0,0.0
4.0,59.0,107.0,95.0
4.0,38.0,82.0,0.0
4.0,41.0,89.0,95.0
4.0,59.0,87.0,0.0
4.0,59.0,102.0,95.0
4.0,38.0,98.0,95.0
4.0,59.0,110.0,0.0
4.0,59.0,100.0,95.0
4.0,38.0,91.0,95.0
4.0,59.0,105.0,0.0
4.0,38.0,85.0,95.0
4.0,59.0,107.0,0.0
4.0,41.0,105.0,95.0
4.0,59.0,105.0,0.0
4.0,59.0,87.0,7.0
4.0,38.0,98.0,95.0
4.0,59.0,110.0,0.0
4.0,59.0,100.0,95.0
4.0,38.0,91.0,95.0
4.0,59.0,105.0,0.0
4.0,38.0,85.0,95.0
4.0,59.0,107.0,0.0
4.0,41.0,105.0,95.0
4.0,59.0,105.0,0.0
4.0,59.0,87.0,95.0
4.0,59.0,102.0,94.0
4.0,38.0,93.0,1.0
4.0,59.0,87.0,95.0
4.0,59.0,107.0,95.0
4.0,38.0,85.0,0.0
4.0,59.0,107.0,95.0
4.0,38.0,82.0,0.0
4.0,41.0,89.0,95.0
4.0,59.0,87.0,0.0
4.0,59.0,102.0,95.0
4.0,59.0,102.0,94.0
4.0,38.0,93.0,1.0
4.0,59.0,87.0,95.0
4.0,59.0,107.0,95.0
4.0,38.0,85.0,0.0
4.0,59.0,107.0,95.0
4.0,38.0,82.0,0.0
4.0,41.0,89.0,95.0
4.0,59.0,87.0,0.0
4.0,59.0,102.0,95.0
4.0,38.0,98.0,95.0
4.0,59.0,110.0,0.0
4.0,59.0,100.0,95.0
4.0,38.0,91.0,95.0
4.0,59.0,105.0,0.0
4.0,38.0,85.0,95.0
4.0,59.0,107.0,0.0
4.0,41.0,105.0,95.0
4.0,59.0,105.0,0.0
4.0,59.0,87.0,7.0
5.0,81.0,64.0,2.0
5.0,79.0,64.0,16.0
5.0,77.0,64.0,8.0
5.0,74.0,64.0,9.0
5.0,79.0,64.0,15.0
5.0,77.0,64.0,15.0
5.0,74.0,64.0,7.0
5.0,72.0,64.0,7.0
5.0,77.0,64.0,15.0
5.0,74.0,64.0,16.0
5.0,72.0,64.0,7.0
5.0,71.0,64.0,9.0
5.0,74.0,64.0,15.0
5.0,72.0,64.0,16.0
5.0,71.0,64.0,9.0
5.0,69.0,64.0,8.0
5.0,59.0,64.0,113.0
5.0,62.0,64.0,15.0
5.0,60.0,64.0,16.0
5.0,65.0,64.0,39.0
5.0,62.0,64.0,15.0
5.0,67.0,64.0,16.0
5.0,65.0,64.0,39.0
5.0,69.0,64.0,16.0
5.0,72.0,64.0,16.0
5.0,67.0,64.0,16.0
5.0,74.0,64.0,15.0
5.0,69.0,64.0,16.0
5.0,77.0,64.0,16.0
5.0,72.0,64.0,17.0
5.0,79.0,64.0,16.0
5.0,74.0,64.0,16.0
5.0,81.0,64.0,16.0
5.0,79.0,64.0,17.0
5.0,77.0,64.0,16.0
5.0,74.0,64.0,8.0
5.0,72.0,64.0,7.0
5.0,77.0,64.0,15.0
5.0,76.0,64.0,16.0
5.0,79.0,64.0,8.0
5.0,77.0,64.0,8.0
5.0,76.0,64.0,16.0
5.0,74.0,64.0,15.0
5.0,77.0,64.0,7.0
5.0,76.0,64.0,9.0
5.0,74.0,64.0,16.0
5.0,72.0,64.0,16.0
5.0,76.0,64.0,7.0
5.0,74.0,64.0,7.0
5.0,72.0,64.0,16.0
5.0,74.0,64.0,8.0
5.0,71.0,64.0,8.0
5.0,72.0,64.0,7.0
5.0,69.0,64.0,7.0
5.0,65.0,64.0,8.0
5.0,67.0,64.0,9.0
5.0,72.0,64.0,111.0
5.0,74.0,64.0,0.0
5.0,76.0,64.0,0.0
5.0,77.0,64.0,0.0
5.0,79.0,64.0,1.0
5.0,81.0,64.0,0.0
5.0,83.0,64.0,0.0
5.0,83.0,64.0,40.0
5.0,86.0,64.0,16.0
5.0,83.0,64.0,15.0
5.0,81.0,64.0,223.0
5.0,83.0,64.0,7.0
5.0,81.0,64.0,40.0
5.0,79.0,64.0,15.0
5.0,77.0,64.0,9.0
5.0,74.0,64.0,9.0
5.0,79.0,64.0,16.0
5.0,77.0,64.0,15.0
5.0,74.0,64.0,8.0
5.0,72.0,64.0,8.0
5.0,77.0,64.0,16.0
5.0,74.0,64.0,16.0
5.0,72.0,64.0,8.0
5.0,71.0,64.0,8.0
5.0,74.0,64.0,16.0
5.0,72.0,64.0,16.0
5.0,71.0,64.0,8.0
5.0,69.0,64.0,8.0
5.0,59.0,64.0,111.0
5.0,62.0,64.0,16.0
5.0,60.0,64.0,16.0
5.0,65.0,64.0,40.0
5.0,62.0,64.0,16.0
5.0,67.0,64.0,16.0
5.0,65.0,64.0,41.0
5.0,69.0,64.0,16.0
5.0,72.0,64.0,16.0
5.0,67.0,64.0,16.0
5.0,74.0,64.0,15.0
5.0,69.0,64.0,16.0
5.0,77.0,64.0,16.0
5.0,72.0,64.0,16.0
5.0,79.0,64.0,16.0
5.0,74.0,64.0,15.0
5.0,81.0,64.0,16.0
5.0,79.0,64.0,16.0
5.0,77.0,64.0,16.0
5.0,74.0,64.0,8.0
5.0,72.0,64.0,8.0
5.0,77.0,64.0,15.0
5.0,76.0,64.0,15.0
5.0,79.0,64.0,7.0
5.0,77.0,64.0,8.0
5.0,76.0,64.0,16.0
5.0,74.0,64.0,15.0
5.0,77.0,64.0,7.0
5.0,76.0,64.0,8.0
5.0,74.0,64.0,15.0
5.0,72.0,64.0,16.0
5.0,76.0,64.0,9.0
5.0,74.0,64.0,7.0
5.0,72.0,64.0,15.0
5.0,74.0,64.0,9.0
5.0,71.0,64.0,8.0
5.0,72.0,64.0,8.0
5.0,69.0,64.0,7.0
5.0,65.0,64.0,8.0
5.0,67.0,64.0,8.0
5.0,72.0,64.0,113.0
5.0,74.0,64.0,1.0
5.0,76.0,64.0,1.0
5.0,77.0,64.0,1.0
5.0,79.0,64.0,0.0
5.0,81.0,64.0,0.0
5.0,83.0,64.0,0.0
5.0,83.0,64.0,39.0
5.0,86.0,64.0,16.0
5.0,83.0,64.0,16.0
5.0,81.0,64.0,224.0
5.0,83.0,64.0,8.0
0.0,0.0,0.0,0.0
0.0,0.0,0.0,0.0
0.0,0.0,0.0,0.0
0.0,0.0,0.0,0.0
0.0,0.0,0.0,0.0
0.0,0.0,0.0,0.0
0.0,0.0,0.0,0.0
0.0,0.0,0.0,0.0
0.0,0.0,0.0,0.0
0.0,0.0,0.0,0.0
0.0,0.0,0.0,0.0
0.0,0.0,0.0,0.0
0.0,0.0,0.0,0.0
0.0,0.0,0.0,0.0
0.0,0.0,0.0,0.0
0.0,0.0,0.0,0.0
0.0,0.0,0.0,0.0
0.0,0.0,0.0,0.0
0.0,0.0,0.0,0.0
0.0,0.0,0.0,0.0
0.0,0.0,0.0,0.0
0.0,0.0,0.0,0.0
0.0,0.0,0.0,0.0
0.0,0.0,0.0,0.0
0.0,0.0,0.0,0.0
0.0,0.0,0.0,0.0
0.0,0.0,0.0,0.0
0.0,0.0,0.0,0.0
0.0,0.0,0.0,0.0
0.0,0.0,0.0,0.0
0.0,0.0,0.0,0.0
0.0,0.0,0.0,0.0
0.0,0.0,0.0,0.0
0.0,0.0,0.0,0.0
0.0,0.0,0.0,0.0
0.0,0.0,0.0,0.0
0.0,0.0,0.0,0.0
0.0,0.0,0.0,0.0
0.0,0.0,0.0,0.0
0.0,0.0,0.0,0.0
0.0,0.0,0.0,0.0
0.0,0.0,0.0,0.0
0.0,0.0,0.0,0.0
0.0,0.0,0.0,0.0
0.0,0.0,0.0,0.0
0.0,0.0,0.0,0.0
0.0,0.0,0.0,0.0
0.0,0.0,0.0,0.0
0.0,0.0,0.0,0.0
0.0,0.0,0.0,0.0
0.0,0.0,0.0,0.0
0.0,0.0,0.0,0.0
0.0,0.0,0.0,0.0
0.0,0.0,0.0,0.0
0.0,0.0,0.0,0.0
0.0,0.0,0.0,0.0
0.0,0.0,0.0,0.0
0.0,0.0,0.0,0.0
0.0,0.0,0.0,0.0
0.0,0.0,0.0,0.0
0.0,0.0,0.0,0.0
0.0,0.0,0.0,0.0
0.0,0.0,0.0,0.0
0.0,0.0,0.0,0.0
0.0,0.0,0.0,0.0
0.0,0.0,0.0,0.0
0.0,0.0,0.0,0.0
0.0,0.0,0.0,0.0
0.0,0.0,0.0,0.0
0.0,0.0,0.0,0.0
0.0,0.0,0.0,0.0
0.0,0.0,0.0,0.0
0.0,0.0,0.0,0.0
0.0,0.0,0.0,0.0
0.0,0.0,0.0,0.0
0.0,0.0,0.0,0.0
0.0,0.0,0.0,0.0
0.0,0.0,0.0,0.0
0.0,0.0,0.0,0.0
0.0,0.0,0.0,0.0
0.0,0.0,0.0,0.0
0.0,0.0,0.0,0.0
0.0,0.0,0.0,0.0
0.0,0.0,0.0,0.0
0.0,0.0,0.0,0.0
0.0,0.0,0.0,0.0
0.0,0.0,0.0,0.0
0.0,0.0,0.0,0.0
0.0,0.0,0.0,0.0
0.0,0.0,0.0,0.0
0.0,0.0,0.0,0.0
0.0,0.0,0.0,0.0
0.0,0.0,0.0,0.0
0.0,0.0,0.0,0.0
0.0,0.0,0.0,0.0
0.0,0.0,0.0,0.0
0.0,0.0,0.0,0.0
0.0,0.0,0.0,0.0
0.0,0.0,0.0,0.0
0.0,0.0,0.0,0.0
0.0,0.0,0.0,0.0
0.0,0.0,0.0,0.0
0.0,0.0,0.0,0.0
0.0,0.0,0.0,0.0
0.0,0.0,0.0,0.0
0.0,0.0,0.0,0.0
0.0,0.0,0.0,0.0
0.0,0.0,0.0,0.0
0.0,0.0,0.0,0.0
0.0,0.0,0.0,0.0
0.0,0.0,0.0,0.0
0.0,0.0,0.0,0.0
0.0,0.0,0.0,0.0
0.0,0.0,0.0,0.0
0.0,0.0,0.0,0.0
0.0,0.0,0.0,0.0
0.0,0.0,0.0,0.0
0.0,0.0,0.0,0.0
0.0,0.0,0.0,0.0
0.0,0.0,0.0,0.0
0.0,0.0,0.0,0.0
0.0,0.0,0.0,0.0
0.0,0.0,0.0,0.0
0.0,0.0,0.0,0.0
0.0,0.0,0.0,0.0
0.0,0.0,0.0,0.0
0.0,0.0,0.0,0.0
0.0,0.0,0.0,0.0
0.0,0.0,0.0,0.0
0.0,0.0,0.0,0.0
0.0,0.0,0.0,0.0
0.0,0.0,0.0,0.0
0.0,0.0,0.0,0.0
0.0,0.0,0.0,0.0
0.0,0.0,0.0,0.0
0.0,0.0,0.0,0.0
0.0,0.0,0.0,0.0
0.0,0.0,0.0,0.0
0.0,0.0,0.0,0.0
0.0,0.0,0.0,0.0
0.0,0.0,0.0,0.0
0.0,0.0,0.0,0.0
0.0,0.0,0.0,0.0
0.0,0.0,0.0,0.0
0.0,0.0,0.0,0.0
0.0,0.0,0.0,0.0
0.0,0.0,0.0,0.0
0.0,0.0,0.0,0.0
0.0,0.0,0.0,0.0
0.0,0.0,0.0,0.0
0.0,0.0,0.0,0.0
0.0,0.0,0.0,0.0
0.0,0.0,0.0,0.0
0.0,0.0,0.0,0.0
0.0,0.0,0.0,0.0
0.0,0.0,0.0,0.0
0.0,0.0,0.0,0.0
0.0,0.0,0.0,0.0
0.0,0.0,0.0,0.0
0.0,0.0,0.0,0.0
0.0,0.0,0.0,0.0
0.0,0.0,0.0,0.0
0.0,0.0,0.0,0.0
0.0,0.0,0.0,0.0
0.0,0.0,0.0,0.0
0.0,0.0,0.0,0.0
0.0,0.0,0.0,0.0
0.0,0.0,0.0,0.0
0.0,0.0,0.0,0.0
0.0,0.0,0.0,0.0
0.0,0.0,0.0,0.0
0.0,0.0,0.0,0.0
0.0,0.0,0.0,0.0
0.0,0.0,0.0,0.0
0.0,0.0,0.0,0.0
0.0,0.0,0.0,0.0
0.0,0.0,0.0,0.0
0.0,0.0,0.0,0.0
0.0,0.0,0.0,0.0
0.0,0.0,0.0,0.0
0.0,0.0,0.0,0.0
0.0,0.0,0.0,0.0
0.0,0.0,0.0,0.0
0.0,0.0,0.0,0.0
0.0,0.0,0.0,0.0
0.0,0.0,0.0,0.0
0.0,0.0,0.0,0.0
0.0,0.0,0.0,0.0
0.0,0.0,0.0,0.0
0.0,0.0,0.0,0.0
0.0,0.0,0.0,0.0
0.0,0.0,0.0,0.0
0.0,0.0,0.0,0.0
0.0,0.0,0.0,0.0
0.0,0.0,0.0,0.0
0.0,0.0,0.0,0.0
0.0,0.0,0.0,0.0
0.0,0.0,0.0,0.0
0.0,0.0,0.0,0.0
0.0,0.0,0.0,0.0
0.0,0.0,0.0,0.0
0.0,0.0,0.0,0.0
0.0,0.0,0.0,0.0
0.0,0.0,0.0,0.0
0.0,0.0,0.0,0.0
0.0,0.0,0.0,0.0
0.0,0.0,0.0,0.0
0.0,0.0,0.0,0.0
0.0,0.0,0.0,0.0
0.0,0.0,0.0,0.0
0.0,0.0,0.0,0.0
0.0,0.0,0.0,0.0
0.0,0.0,0.0,0.0
0.0,0.0,0.0,0.0
0.0,0.0,0.0,0.0
0.0,0.0,0.0,0.0
0.0,0.0,0.0,0.0
0.0,0.0,0.0,0.0
0.0,0.0,0.0,0.0
0.0,0.0,0.0,0.0
0.0,0.0,0.0,0.0
0.0,0.0,0.0,0.0
0.0,0.0,0.0,0.0
0.0,0.0,0.0,0.0
0.0,0.0,0.0,0.0
0.0,0.0,0.0,0.0
0.0,0.0,0.0,0.0
0.0,0.0,0.0,0.0
0.0,0.0,0.0,0.0
0.0,0.0,0.0,0.0
0.0,0.0,0.0,0.0
0.0,0.0,0.0,0.0
0.0,0.0,0.0,0.0
0.0,0.0,0.0,0.0
0.0,0.0,0.0,0.0
0.0,0.0,0.0,0.0
0.0,0.0,0.0,0.0
0.0,0.0,0.0,0.0
0.0,0.0,0.0,0.0
0.0,0.0,0.0,0.0
0.0,0.0,0.0,0.0
0.0,0.0,0.0,0.0
0.0,0.0,0.0,0.0
0.0,0.0,0.0,0.0
0.0,0.0,0.0,0.0
0.0,0.0,0.0,0.0
0.0,0.0,0.0,0.0
0.0,0.0,0.0,0.0
0.0,0.0,0.0,0.0
0.0,0.0,0.0,0.0
0.0,0.0,0.0,0.0
0.0,0.0,0.0,0.0
0.0,0.0,0.0,0.0
0.0,0.0,0.0,0.0
0.0,0.0,0.0,0.0
0.0,0.0,0.0,0.0
0.0,0.0,0.0,0.0
0.0,0.0,0.0,0.0
0.0,0.0,0.0,0.0
0.0,0.0,0.0,0.0
0.0,0.0,0.0,0.0
0.0,0.0,0.0,0.0
0.0,0.0,0.0,0.0
0.0,0.0,0.0,0.0
0.0,0.0,0.0,0.0
0.0,0.0,0.0,0.0
0.0,0.0,0.0,0.0
0.0,0.0,0.0,0.0
0.0,0.0,0.0,0.0
0.0,0.0,0.0,0.0
0.0,0.0,0.0,0.0
0.0,0.0,0.0,0.0
0.0,0.0,0.0,0.0
0.0,0.0,0.0,0.0
0.0,0.0,0.0,0.0
0.0,0.0,0.0,0.0
0.0,0.0,0.0,0.0
0.0,0.0,0.0,0.0
0.0,0.0,0.0,0.0
0.0,0.0,0.0,0.0
0.0,0.0,0.0,0.0
0.0,0.0,0.0,0.0
0.0,0.0,0.0,0.0
0.0,0.0,0.0,0.0
0.0,0.0,0.0,0.0
0.0,0.0,0.0,0.0
0.0,0.0,0.0,0.0
