track,note,velocity,time
0,35,104,192
0,36,127,0
0,35,115,192
0,36,127,0
0,40,120,0
0,35,122,192
0,36,127,0
0,40,113,192
0,35,108,188
0,36,101,0
0,35,116,192
0,36,101,0
0,40,120,0
0,33,111,188
0,36,101,0
0,35,119,0
0,36,127,0
0,35,116,0
0,36,127,0
0,40,121,0
0,33,108,0
0,36,127,0
0,33,105,192
0,36,127,0
0,40,121,0
0,33,122,192
0,36,127,0
0,40,120,0
0,33,120,188
0,36,101,0
0,33,109,132
0,36,101,0
0,40,108,0
0,33,109,188
0,36,101,0
0,33,115,0
0,36,127,0
0,33,113,192
0,36,127,0
0,40,110,0
0,31,116,192
0,36,127,0
0,31,113,192
0,36,127,0
0,40,123,0
0,31,113,192
0,36,127,0
0,40,116,192
0,31,110,188
0,36,101,0
0,31,106,192
0,36,101,0
0,30,122,0
0,40,114,0
0,36,101,188
0,31,110,0
0,36,127,0
0,31,115,0
0,36,127,0
0,40,106,0
0,33,116,192
0,36,127,0
0,33,109,192
0,36,127,0
0,40,121,0
0,33,119,192
0,36,127,0
0,40,109,0
0,33,123,188
0,36,101,0
0,33,105,192
0,36,101,0
0,33,110,0
0,40,120,0
0,36,101,188
0,35,108,0
0,36,127,0
0,37,114,0
0,36,127,0
0,40,109,0
0,78,122,0
0,83,122,0
0,74,83,0
0,78,73,0
0,59,116,0
0,62,116,0
0,66,114,0
0,35,123,0
0,36,127,0
0,78,114,192
0,83,114,0
0,35,122,0
0,36,127,0
0,40,107,0
0,78,107,192
0,83,107,0
0,35,111,0
0,36,127,0
0,78,99,192
0,83,99,0
0,40,112,0
0,35,111,71
0,36,101,0
0,78,91,0
0,83,91,0
0,35,105,85
0,36,101,0
0,78,84,0
0,83,84,0
0,33,109,0
0,40,124,0
0,36,101,69
0,78,76,0
0,83,76,0
0,35,113,0
0,36,127,0
0,78,68,0
0,83,68,0
0,35,122,0
0,36,127,0
0,40,106,0
0,71,117,0
0,73,71,0
0,76,83,0
0,57,101,0
0,61,107,0
0,64,105,0
0,33,111,0
0,36,127,0
0,73,115,0
0,71,111,0
0,33,111,0
0,36,127,0
0,40,123,0
0,73,107,0
0,71,104,0
0,33,114,0
0,36,127,0
0,73,100,0
0,71,97,0
0,40,120,0
0,73,93,0
0,33,106,0
0,36,101,0
0,71,89,0
0,73,86,0
0,33,123,0
0,36,101,0
0,71,82,0
0,33,119,0
0,40,117,0
0,73,79,0
0,36,101,0
0,71,75,0
0,33,120,0
0,36,127,0
0,73,71,0
0,71,68,0
0,33,105,0
0,36,127,0
0,40,114,0
0,73,64,0
0,80,87,96
0,78,85,7
0,83,99,0
0,74,80,0
0,78,66,0
0,55,101,0
0,59,110,0
0,62,113,0
0,75,77,0
0,31,122,0
0,36,127,0
0,83,92,192
0,75,73,0
0,31,115,0
0,36,127,0
0,40,110,0
0,31,119,192
0,36,127,0
0,40,107,192
0,31,123,188
0,36,101,0
0,31,115,192
0,36,101,0
0,30,115,0
0,40,120,0
0,36,101,188
0,31,105,0
0,36,127,0
0,31,108,0
0,36,127,0
0,40,119,0
0,73,73,41
0,76,82,0
0,57,114,0
0,61,111,0
0,64,107,0
0,33,118,0
0,36,127,0
0,33,122,192
0,36,127,0
0,40,112,0
0,33,116,192
0,36,127,0
0,40,124,0
0,95,89,162
0,33,118,0
0,36,101,0
0,33,114,0
0,36,101,0
0,33,117,0
0,40,124,0
0,36,101,0
0,33,115,0
0,36,127,0
0,40,125,156
0,36,127,0
0,40,117,0
0,78,116,0
0,83,116,0
0,74,75,0
0,78,75,0
0,59,106,0
0,62,112,0
0,66,101,0
0,35,112,0
0,36,127,0
0,78,110,0
0,83,110,0
0,62,89,0
0,66,86,0
0,71,84,0
0,35,108,0
0,36,127,0
0,40,123,0
0,78,103,0
0,83,103,0
0,35,121,0
0,36,127,0
0,78,97,0
0,83,97,0
0,62,83,0
0,66,82,0
0,71,91,0
0,40,123,0
0,35,117,0
0,36,101,0
0,78,91,0
0,83,91,0
0,35,111,0
0,36,101,0
0,78,84,0
0,83,84,0
0,62,82,0
0,66,82,0
0,71,97,0
0,33,114,0
0,40,119,0
0,36,101,0
0,78,78,0
0,83,78,0
0,35,119,0
0,36,127,0
0,78,72,0
0,83,72,0
0,62,95,0
0,66,79,0
0,71,83,0
0,35,117,0
0,36,127,0
0,40,111,0
0,71,111,0
0,73,75,0
0,76,72,0
0,57,111,0
0,61,102,0
0,64,108,0
0,33,118,0
0,36,127,0
0,73,107,0
0,71,104,0
0,61,84,0
0,64,86,0
0,69,93,0
0,33,120,0
0,36,127,0
0,40,121,0
0,73,101,0
0,71,97,0
0,33,110,0
0,36,127,0
0,73,94,0
0,71,91,0
0,61,92,0
0,64,90,0
0,69,87,0
0,40,123,0
0,73,87,0
0,33,112,0
0,36,101,0
0,71,84,0
0,75,88,0
0,73,81,0
0,75,76,0
0,33,123,0
0,36,101,0
0,71,78,0
0,61,94,0
0,64,83,0
0,69,87,0
0,33,104,0
0,40,106,0
0,73,74,0
0,75,89,0
0,36,101,0
0,71,71,0
0,60,87,0
0,33,120,0
0,36,127,0
0,73,68,0
0,75,87,0
0,71,64,0
0,61,87,0
0,64,86,0
0,69,92,0
0,33,112,0
0,36,127,0
0,40,108,0
0,73,61,0
0,59,127,0
0,74,82,0
0,78,65,0
0,55,104,0
0,59,108,0
0,62,114,0
0,31,119,0
0,36,127,0
0,62,81,0
0,66,97,0
0,71,81,0
0,31,110,0
0,36,127,0
0,40,123,0
0,31,106,0
0,36,127,0
0,62,82,0
0,66,91,0
0,71,91,0
0,40,125,0
0,31,116,0
0,36,101,0
0,59,104,0
0,31,117,0
0,36,101,0
0,62,79,0
0,66,91,0
0,71,93,0
0,30,115,0
0,40,113,0
0,36,101,0
0,31,114,0
0,36,127,0
0,62,91,0
0,66,83,0
0,71,93,0
0,31,118,0
0,36,127,0
0,40,115,0
0,80,102,96
0,78,95,7
0,83,95,2
0,73,76,0
0,76,76,0
0,57,100,0
0,61,100,0
0,64,101,0
0,75,89,0
0,33,111,0
0,36,127,0
0,83,87,192
0,61,97,0
0,64,92,0
0,69,90,0
0,75,85,0
0,33,112,0
0,36,127,0
0,40,115,0
0,33,116,0
0,36,127,0
0,61,88,0
0,64,94,0
0,69,98,0
0,40,122,0
0,33,122,0
0,36,101,0
0,33,119,0
0,36,101,0
0,61,87,0
0,64,95,0
0,69,88,0
0,33,112,0
0,40,106,0
0,36,101,0
0,33,119,0
0,36,127,0
0,40,120,156
0,61,92,0
0,64,87,0
0,69,86,0
0,36,127,0
0,40,111,0
0,95,83,0
0,78,118,0
0,83,118,0
0,59,123,0
0,74,72,0
0,78,71,0
0,59,103,0
0,62,101,0
0,66,105,0
0,35,106,0
0,36,127,0
0,78,109,0
0,83,109,0
0,61,124,0
0,62,86,0
0,66,89,0
0,71,91,0
0,35,122,0
0,36,127,0
0,40,106,0
0,78,100,0
0,83,100,0
0,62,115,0
0,35,111,0
0,36,127,0
0,78,91,0
0,83,91,0
0,64,116,0
0,62,80,0
0,66,90,0
0,71,87,0
0,40,110,0
0,59,122,0
0,35,107,0
0,36,101,0
0,78,83,0
0,83,83,0
0,59,110,0
0,35,107,0
0,36,101,0
0,78,74,0
0,83,74,0
0,61,99,0
0,62,94,0
0,66,88,0
0,71,83,0
0,33,117,0
0,40,121,0
0,36,101,0
0,78,65,0
0,83,65,0
0,62,100,0
0,35,104,0
0,36,127,0
0,78,56,0
0,83,56,0
0,64,107,0
0,62,97,0
0,66,88,0
0,71,88,0
0,35,107,0
0,36,127,0
0,40,121,0
0,59,104,0
0,80,95,96
0,78,96,7
0,83,91,0
0,71,109,0
0,73,71,0
0,76,66,0
0,57,110,0
0,61,103,0
0,64,101,0
0,75,75,0
0,33,108,0
0,36,127,0
0,73,106,0
0,83,101,0
0,71,103,0
0,61,90,0
0,64,92,0
0,69,93,0
0,75,77,0
0,33,123,0
0,36,127,0
0,40,118,0
0,73,100,0
0,71,97,0
0,33,107,0
0,36,127,0
0,73,94,0
0,71,90,0
0,61,89,0
0,64,94,0
0,69,93,0
0,40,110,0
0,73,87,0
0,33,117,0
0,36,101,0
0,71,84,0
0,73,81,0
0,33,123,0
0,36,101,0
0,71,78,0
0,59,124,0
0,61,80,0
0,64,85,0
0,69,81,0
0,33,120,0
0,40,114,0
0,73,75,0
0,59,127,0
0,36,101,0
0,71,72,0
0,62,116,0
0,33,114,0
0,36,127,0
0,73,68,0
0,62,127,15
0,64,127,5
0,71,65,0
0,61,87,0
0,64,83,0
0,69,82,0
0,33,118,0
0,36,127,0
0,40,110,0
0,66,127,2
0,73,62,0
0,78,117,0
0,83,117,0
0,66,127,0
0,74,76,0
0,78,73,0
0,55,115,0
0,59,116,0
0,62,100,0
0,31,107,0
0,36,127,0
0,78,107,0
0,83,107,0
0,59,103,0
0,62,89,0
0,66,97,0
0,71,90,0
0,31,115,0
0,36,127,0
0,40,111,0
0,59,110,0
0,78,97,0
0,83,97,0
0,62,94,0
0,31,111,0
0,36,127,0
0,62,99,47
0,64,95,5
0,78,87,0
0,83,87,0
0,62,90,0
0,66,83,0
0,71,79,0
0,40,114,0
0,66,112,2
0,31,120,0
0,36,101,0
0,78,77,0
0,83,77,0
0,66,104,0
0,31,111,0
0,36,101,0
0,78,67,0
0,83,67,0
0,62,79,0
0,66,87,0
0,71,82,0
0,30,123,0
0,40,125,0
0,36,101,0
0,31,106,0
0,36,127,0
0,62,86,0
0,66,82,0
0,71,80,0
0,31,122,0
0,36,127,0
0,40,110,0
0,76,115,0
0,81,115,0
0,73,70,0
0,76,79,0
0,57,104,0
0,61,118,0
0,64,108,0
0,33,106,0
0,36,127,0
0,76,103,0
0,81,103,0
0,61,92,0
0,64,90,0
0,69,94,0
0,33,123,0
0,36,127,0
0,40,124,0
0,76,91,0
0,81,91,0
0,33,111,0
0,36,127,0
0,76,79,0
0,81,79,0
0,61,80,0
0,64,82,0
0,69,93,0
0,40,125,0
0,33,104,0
0,36,101,0
0,75,78,0
0,75,72,0
0,33,105,0
0,36,101,0
0,61,87,0
0,64,91,0
0,69,83,0
0,33,116,0
0,40,107,0
0,75,83,0
0,36,101,0
0,60,73,0
0,33,120,0
0,36,127,0
0,75,77,0
0,38,127,60
0,61,98,0
0,64,92,0
0,69,89,0
0,38,124,0
0,36,127,0
0,59,112,96
0,66,127,0
0,81,76,0
0,90,65,0
0,62,108,0
0,66,114,0
0,69,113,0
0,38,118,0
0,36,127,0
0,42,93,0
0,66,116,0
0,66,123,64
0,66,80,0
0,69,97,0
0,74,95,0
0,38,120,0
0,38,127,0
0,36,127,0
0,42,87,0
0,66,124,0
0,38,123,0
0,36,127,0
0,42,86,0
0,64,127,0
0,66,116,0
0,66,92,0
0,69,85,0
0,74,93,0
0,38,127,0
0,42,92,0
0,38,104,0
0,36,101,0
0,42,88,0
0,38,114,188
0,36,101,0
0,66,95,0
0,69,80,0
0,74,92,0
0,38,125,0
0,42,85,0
0,33,108,96
0,36,101,0
0,38,119,0
0,36,127,0
0,42,81,0
0,66,87,0
0,69,85,0
0,74,98,0
0,38,118,0
0,38,127,0
0,36,127,0
0,42,99,0
0,59,121,0
0,64,113,0
0,81,67,0
0,88,78,0
0,61,116,0
0,64,113,0
0,69,109,0
0,37,117,0
0,36,127,0
0,42,81,0
0,62,127,0
0,64,89,0
0,69,95,0
0,73,86,0
0,37,123,0
0,38,127,0
0,36,127,0
0,42,99,0
0,64,120,0
0,37,116,192
0,36,127,0
0,42,85,0
0,62,119,0
0,64,117,0
0,64,89,0
0,69,88,0
0,73,81,0
0,38,127,0
0,42,82,0
0,37,105,96
0,36,101,0
0,42,98,0
0,37,105,188
0,36,101,0
0,64,92,0
0,69,94,0
0,73,95,0
0,38,127,0
0,42,84,0
0,33,115,96
0,36,101,0
0,37,108,0
0,36,127,0
0,42,91,0
0,64,84,0
0,69,81,0
0,73,98,0
0,37,115,0
0,38,127,0
0,36,127,0
0,42,90,0
0,62,112,0
0,64,118,0
0,79,83,0
0,88,81,0
0,60,111,0
0,64,114,0
0,67,110,0
0,36,116,0
0,36,127,0
0,42,89,0
0,64,118,0
0,62,114,0
0,64,91,0
0,67,85,0
0,72,89,0
0,36,123,0
0,38,123,0
0,36,127,0
0,42,95,0
0,64,115,0
0,36,111,192
0,36,127,0
0,42,80,0
0,64,79,192
0,67,81,0
0,72,82,0
0,38,124,0
0,42,96,0
0,59,126,96
0,36,118,0
0,36,101,0
0,64,125,0
0,42,89,0
0,36,113,188
0,36,101,0
0,64,119,0
0,64,96,0
0,67,86,0
0,72,91,0
0,38,127,0
0,42,88,0
0,66,115,0
0,35,110,0
0,36,101,0
0,36,108,0
0,36,127,0
0,42,92,0
0,64,123,0
0,64,92,0
0,67,90,0
0,72,81,0
0,36,112,0
0,38,120,0
0,36,127,0
0,42,96,0
0,63,114,0
0,78,80,41
0,87,81,0
0,59,114,0
0,63,119,0
0,66,115,0
0,35,105,0
0,36,127,0
0,42,97,0
0,61,127,0
0,63,79,0
0,66,97,0
0,71,87,0
0,35,106,0
0,38,127,0
0,36,127,0
0,42,98,0
0,59,114,0
0,35,122,192
0,36,127,0
0,42,98,0
0,63,86,192
0,66,90,0
0,71,92,0
0,38,127,0
0,42,99,0
0,35,106,96
0,36,101,0
0,42,86,0
0,33,122,188
0,36,101,0
0,63,80,0
0,66,81,0
0,71,92,0
0,38,127,0
0,42,94,0
0,33,112,96
0,36,101,0
0,31,117,0
0,36,127,0
0,42,87,0
0,63,86,0
0,66,91,0
0,71,83,0
0,30,120,0
0,38,127,0
0,36,127,0
0,42,80,0
0,66,127,41
0,79,69,0
0,88,75,0
0,59,106,0
0,62,102,0
0,67,100,0
0,28,121,0
0,36,127,0
0,42,98,0
0,62,114,0
0,59,127,0
0,62,82,0
0,67,92,0
0,71,84,0
0,28,112,0
0,38,126,0
0,36,127,0
0,42,89,0
0,66,126,0
0,28,115,192
0,36,127,0
0,42,80,0
0,62,127,0
0,62,94,192
0,67,92,0
0,71,85,0
0,38,127,0
0,42,92,0
0,28,118,96
0,36,101,0
0,42,90,0
0,30,116,188
0,36,101,0
0,62,87,0
0,67,90,0
0,71,95,0
0,38,127,0
0,42,97,0
0,28,106,96
0,36,101,0
0,59,118,0
0,31,105,0
0,36,127,0
0,42,96,0
0,62,117,0
0,62,95,0
0,67,84,0
0,71,81,0
0,35,116,0
0,38,124,0
0,36,127,0
0,42,96,0
0,64,121,0
0,81,64,0
0,88,82,0
0,61,109,0
0,64,112,0
0,69,102,0
0,33,114,0
0,36,127,0
0,42,98,0
0,64,112,0
0,62,119,0
0,61,89,0
0,64,79,0
0,69,79,0
0,33,118,0
0,38,119,0
0,36,127,0
0,42,83,0
0,64,118,0
0,33,116,192
0,36,127,0
0,42,84,0
0,64,123,128
0,61,92,0
0,64,90,0
0,69,91,0
0,38,127,0
0,42,90,0
0,62,127,0
0,34,105,0
0,36,101,0
0,64,127,0
0,82,70,0
0,90,77,0
0,61,103,0
0,66,108,0
0,70,118,0
0,42,95,0
0,34,110,188
0,36,101,0
0,64,127,0
0,61,98,0
0,66,79,0
0,70,83,0
0,38,122,0
0,42,87,0
0,66,124,0
0,34,113,0
0,36,101,0
0,34,116,0
0,36,127,0
0,42,93,0
0,64,119,0
0,62,116,0
0,61,85,0
0,66,85,0
0,70,94,0
0,34,109,0
0,38,127,0
0,36,127,0
0,42,97,0
0,64,127,0
0,83,64,41
0,90,66,0
0,59,106,0
0,62,108,0
0,66,113,0
0,35,119,0
0,36,127,0
0,42,82,0
0,62,127,0
0,62,98,0
0,66,81,0
0,71,90,0
0,35,116,0
0,38,127,0
0,36,127,0
0,42,88,0
0,59,112,0
0,35,107,192
0,36,127,0
0,42,81,0
0,62,84,192
0,66,85,0
0,71,90,0
0,38,127,0
0,42,85,0
0,35,123,96
0,36,101,0
0,42,92,0
0,35,118,188
0,36,101,0
0,62,84,0
0,66,86,0
