track,note,velocity,time
1,70,127,1837
1,70,0,284
1,67,127,92
1,67,0,81
1,65,115,110
1,65,0,102
1,60,115,78
1,60,0,139
1,63,115,57
1,63,0,169
1,65,115,29
1,65,0,166
1,65,115,210
1,67,115,7
1,65,0,26
1,67,0,249
1,60,127,33
1,60,0,100
1,63,127,157
1,63,0,53
1,65,115,11
1,65,0,286
1,65,127,632
1,65,0,67
1,65,127,123
1,65,0,117
1,63,115,77
1,63,0,68
1,65,127,119
1,65,0,85
1,65,127,105
1,65,0,72
1,65,115,115
1,65,0,123
1,63,104,71
1,63,0,80
1,64,115,108
1,65,115,22
1,64,0,29
1,65,0,214
1,63,115,28
1,63,0,279
1,60,127,11
1,60,0,133
1,58,127,71
1,58,0,119
1,63,115,58
1,63,0,155
1,60,127,28
1,60,0,409
1,68,86,180
1,70,127,0
1,68,0,26
1,70,0,165
1,67,127,6
1,67,0,59
1,65,115,118
1,65,0,65
1,65,115,129
1,63,115,90
1,65,0,34
1,63,0,52
1,60,115,5
1,60,0,84
1,58,104,103
1,58,0,143
1,60,115,61
1,60,0,97
1,60,115,86
1,60,0,202
1,65,127,112
1,64,104,0
1,64,0,37
1,65,0,187
1,63,115,48
1,63,0,958
1,67,127,196
1,65,104,11
1,65,0,25
1,67,0,137
1,65,104,22
1,65,0,154
1,63,104,42
1,63,0,86
1,65,127,100
1,65,0,168
1,60,127,22
1,60,0,104
1,58,115,94
1,58,0,158
1,60,127,26
1,60,0,112
1,63,115,84
1,63,0,217
1,58,104,58
1,58,0,58
1,60,115,35
1,60,0,73
1,60,127,119
1,60,0,259
1,55,115,138
1,55,0,145
1,55,115,53
1,55,0,139
1,55,115,53
1,55,0,148
1,64,127,65
1,64,0,1081
1,62,115,51
1,64,104,55
1,62,0,8
1,64,0,115
1,62,127,13
1,62,0,694
1,64,115,270
1,64,0,114
1,64,127,70
1,64,0,104
1,64,127,84
1,64,0,132
1,64,115,59
1,64,0,122
1,67,127,74
1,67,0,374
1,69,127,5
1,69,0,206
1,55,115,184
1,55,0,113
1,55,115,76
1,55,0,129
1,64,115,75
1,64,0,110
1,64,115,82
1,64,0,106
1,67,127,74
1,67,0,363
1,65,115,10
1,65,0,115
1,64,115,81
1,62,115,91
1,64,0,24
1,60,115,68
1,62,0,5
1,60,0,113
1,60,127,86
1,60,0,181
1,55,115,11
1,55,0,141
1,55,104,57
1,55,0,152
1,62,127,48
1,64,115,42
1,62,0,26
1,64,0,494
1,62,127,15
1,62,0,373
1,55,115,8
1,55,0,157
1,60,115,29
1,62,86,47
1,60,0,25
1,62,0,128
1,60,127,10
1,60,0,655
1,64,127,106
1,64,0,106
1,64,115,80
1,64,0,105
1,64,127,83
1,64,0,114
1,64,127,82
1,64,0,129
1,69,127,59
1,69,0,169
1,67,127,34
1,67,0,712
1,55,127,53
1,55,0,110
1,55,115,78
1,55,0,144
1,64,115,51
1,64,0,121
1,64,115,76
1,64,0,122
1,67,115,61
1,67,0,379
1,65,104,12
1,64,115,189
1,65,0,23
1,64,0,55
1,62,115,5
1,62,0,105
1,60,127,5
1,60,0,130
1,60,127,67
1,60,0,176
1,55,115,19
1,55,0,119
1,55,127,72
1,55,0,159
1,63,115,43
1,63,0,83
1,63,115,99
1,63,0,87
1,65,115,105
1,65,0,96
1,60,127,88
1,60,0,31
1,60,127,65
1,60,0,148
1,58,127,147
1,58,0,71
1,63,115,32
1,63,0,72
1,60,127,22
1,60,0,766
1,60,79,290
1,58,104,86
1,60,0,19
1,58,0,62
1,63,115,105
1,63,0,56
1,60,127,135
1,60,0,123
1,60,127,71
1,63,115,200
1,60,0,1
1,63,0,70
1,63,127,123
1,63,0,73
1,65,115,115
1,65,0,80
1,60,104,108
1,60,0,22
1,60,127,67
1,60,0,114
1,58,94,182
1,60,127,192
1,58,0,8
1,60,0,66
1,58,115,886
1,58,0,77
1,63,127,117
1,63,0,75
1,60,127,112
1,60,0,121
1,60,115,279
1,60,0,179
1,63,127,0
1,63,0,20
1,63,127,189
1,63,0,20
1,65,115,166
1,65,0,52
1,60,115,125
1,60,0,24
1,60,127,74
1,60,0,91
1,58,104,199
1,58,0,54
1,63,127,39
1,63,0,87
1,60,127,11
1,60,0,460
1,60,55,622
1,60,0,39
1,58,115,54
1,58,0,61
1,63,115,120
1,63,0,44
1,60,127,140
1,60,0,153
1,60,94,37
1,60,0,101
1,63,127,90
1,63,0,83
1,63,115,114
1,63,0,62
1,65,127,121
1,65,0,70
1,60,127,100
1,60,0,27
1,60,127,74
1,60,0,99
1,63,115,966
1,63,0,57
1,65,115,143
1,65,0,58
1,60,115,123
1,60,0,28
1,60,127,68
1,60,0,92
1,67,94,964
1,70,115,15
1,69,104,0
1,68,41,3
1,68,0,16
1,67,0,6
1,69,0,6
1,67,127,157
1,70,0,8
1,67,0,49
1,65,127,128
1,65,0,67
1,65,104,120
1,64,79,6
1,64,0,17
1,65,0,89
1,58,115,82
1,58,0,129
1,60,127,65
1,60,0,168
1,63,127,23
1,63,0,69
1,67,127,123
1,67,0,176
1,63,115,106
1,63,0,110
1,63,127,190
1,63,0,168
1,65,127,29
1,65,0,367
1,65,127,593
1,65,0,93
1,65,104,89
1,65,0,94
1,65,115,103
1,66,104,96
1,65,0,2
1,66,0,90
1,65,127,20
1,65,0,80
1,63,115,99
1,63,0,53
1,65,127,135
1,65,0,92
1,63,115,95
1,63,0,90
1,65,104,99
1,67,115,17
1,65,0,34
1,67,0,247
1,63,104,9
1,63,0,235
1,60,127,40
1,60,0,112
1,58,115,91
1,58,0,155
1,63,115,31
1,63,0,160
1,60,127,31
1,57,73,452
1,59,86,20
1,60,0,2
1,60,29,25
1,57,0,2
1,62,79,33
1,59,0,14
1,60,0,10
1,67,79,18
1,62,0,3
1,70,127,18
1,67,0,30
1,70,0,143
1,67,127,0
1,67,0,123
1,63,115,63
1,63,0,68
1,65,119,134
1,63,104,96
1,65,0,31
1,63,0,58
1,60,115,20
1,60,0,94
1,58,104,73
1,58,0,149
1,60,115,44
1,60,0,94
1,60,127,96
1,60,0,218
1,63,115,72
1,65,94,28
1,63,0,20
1,65,0,198
1,63,127,40
1,63,0,823
1,65,127,334
1,67,94,15
1,65,0,41
1,67,0,145
1,65,127,8
1,65,0,100
1,63,115,91
1,63,0,69
1,65,115,116
1,65,0,177
1,60,94,37
1,60,0,78
1,58,115,84
1,58,104,106
1,58,0,2
1,58,0,70
1,60,127,20
1,60,0,65
1,63,115,117
1,63,0,154
1,60,115,138
1,60,0,116
1,60,127,159
1,60,0,225
1,55,127,187
1,55,0,343
1,55,127,58
1,55,0,159
1,62,104,14
1,64,127,19
1,62,0,29
1,55,94,909
1,64,0,34
1,55,0,128
1,62,127,40
1,64,115,67
1,62,0,5
1,64,0,116
1,62,127,3
1,62,0,835
1,57,73,10
1,59,73,15
1,57,0,7
1,59,0,14
1,60,79,12
1,60,0,47
1,64,127,9
1,64,0,103
1,64,127,89
1,64,0,79
1,64,127,105
1,64,0,109
1,64,127,86
1,64,0,94
1,67,127,107
1,67,0,358
1,69,127,7
1,69,0,208
1,55,127,177
1,55,0,118
1,55,127,82
1,55,0,171
1,64,127,20
1,64,0,126
1,64,127,71
1,64,0,97
1,67,127,89
1,65,104,12
1,65,0,26
1,67,0,339
1,65,115,6
1,64,115,195
1,65,0,20
1,64,0,68
1,62,115,0
1,62,0,93
1,60,127,15
1,60,0,94
1,60,127,98
1,55,127,192
1,60,0,13
1,55,0,125
1,55,115,50
1,55,0,177
1,62,115,6
1,64,127,33
1,62,0,28
1,64,0,496
1,62,127,18
1,55,127,390
1,62,0,1
1,62,44,21
1,62,0,8
1,55,0,138
1,60,127,9
1,62,104,59
1,60,0,7
1,62,0,108
1,60,127,26
1,60,0,643
1,64,127,135
1,64,0,112
1,64,127,82
1,64,0,133
1,64,115,70
1,64,0,104
1,64,104,81
1,64,0,91
1,72,104,103
1,74,115,32
1,72,0,24
1,74,0,106
1,72,127,23
1,72,0,744
1,69,127,15
1,69,0,176
1,67,127,13
1,67,0,172
1,64,115,25
1,64,0,101
1,64,127,95
1,64,0,97
1,65,127,83
1,67,127,9
1,65,0,39
1,67,0,322
1,65,115,26
1,64,104,190
1,65,0,18
1,62,104,63
1,64,0,6
1,62,0,101
1,60,127,7
1,60,0,88
1,60,127,111
1,60,0,184
1,55,127,16
1,55,0,118
1,55,115,66
1,55,0,158
1,63,127,38
1,63,0,85
1,63,115,109
1,63,0,79
1,65,127,110
1,65,0,78
1,60,115,105
1,60,0,25
1,60,127,72
1,60,0,120
1,60,127,153
1,60,0,75
1,63,115,19
1,63,0,71
1,60,127,34
1,60,0,557
1,60,94,520
1,58,94,82
1,60,0,23
1,58,0,46
1,63,127,109
1,63,0,65
1,60,127,136
1,60,0,120
1,60,127,70
1,63,115,208
1,60,0,15
1,63,0,44
1,63,41,18
1,63,0,10
1,63,127,99
1,63,0,61
1,65,115,130
1,65,0,90
1,60,115,102
1,60,0,27
1,60,127,73
1,60,0,109
1,58,104,179
1,60,127,192
1,58,0,5
1,60,0,76
1,58,115,881
1,58,0,64
1,63,127,124
1,63,0,90
1,60,127,100
1,60,0,217
1,60,127,172
1,60,0,207
1,63,127,3
1,63,0,41
1,63,44,16
1,63,0,11
1,63,127,116
1,63,0,54
1,65,127,135
1,65,0,67
1,60,104,114
1,60,0,22
1,60,127,72
1,60,0,115
1,63,63,108
1,63,0,50
1,60,115,33
1,60,0,68
1,63,104,13
1,63,0,89
1,60,127,19
1,60,0,808
1,60,79,275
1,58,115,78
1,60,0,34
1,58,0,36
1,63,115,105
1,63,0,51
1,60,127,159
1,60,0,99
1,60,127,78
1,60,0,204
1,63,127,0
1,63,0,29
1,63,47,16
1,63,0,12
1,63,115,120
1,63,0,49
1,65,115,142
1,65,0,64
1,60,115,116
1,60,0,30
1,60,127,71
1,60,0,92
1,63,104,956
1,63,0,73
1,65,127,130
1,65,0,85
1,60,115,82
1,60,0,39
1,60,127,66
1,60,0,133
1,60,127,167
1,60,0,87
1,63,127,104
1,63,0,88
1,65,127,98
1,65,0,56
1,67,115,47
1,65,68,9
1,65,0,11
1,67,0,99
1,67,115,179
1,68,115,82
1,67,0,11
1,68,0,69
1,67,115,21
1,67,0,354
1,55,127,11168
1,55,0,375
1,62,115,15
1,64,127,36
1,62,0,25
1,64,0,1070
1,62,127,25
1,64,115,62
1,62,0,5
1,64,0,99
1,62,127,18
1,62,0,829
1,64,127,130
1,64,0,127
1,64,127,62
1,64,0,107
1,64,127,90
1,64,0,134
1,64,127,60
1,64,0,115
1,67,127,78
1,67,0,374
1,69,115,0
1,69,0,220
1,55,127,170
1,55,0,118
1,55,104,77
1,55,0,147
1,64,127,38
1,64,0,139
1,64,127,64
1,64,0,96
1,67,127,90
1,65,115,374
1,67,0,6
1,65,0,191
1,64,115,0
1,62,104,80
1,64,0,5
1,62,0,89
1,60,127,21
1,62,94,6
1,62,0,50
1,60,0,72
1,60,127,76
1,55,127,192
1,60,0,6
1,55,0,134
1,55,127,54
1,55,0,166
1,62,127,7
1,64,115,36
1,62,0,23
1,64,0,514
1,62,127,13
1,62,0,376
1,55,115,3
1,60,127,185
1,55,0,1
1,62,104,56
1,60,0,9
1,62,0,109
1,60,127,17
1,60,0,647
1,64,127,124
1,64,0,130
1,64,115,61
1,64,0,147
1,64,127,56
1,64,0,121
1,64,115,62
1,64,0,120
1,74,127,87
1,72,104,0
1,72,0,33
1,74,0,128
1,72,127,37
1,72,0,280
1,69,115,6
1,69,0,68
1,74,115,30
1,72,115,87
1,74,0,29
1,72,0,51
1,69,115,9
1,69,0,103
1,69,127,81
1,69,0,168
1,67,127,18
1,67,0,159
1,64,127,40
1,64,0,118
1,64,127,69
1,64,0,115
1,67,127,70
1,67,0,362
1,65,115,21
1,64,115,191
1,65,0,15
1,64,0,72
1,62,104,0
1,62,0,99
1,60,127,10
1,60,0,119
1,60,127,79
1,60,0,181
1,55,127,19
1,55,0,133
1,55,127,66
1,55,0,151
1,63,115,37
1,63,0,110
1,63,127,87
1,63,0,80
1,65,127,112
1,65,0,74
1,60,127,100
1,60,0,30
1,60,127,72
1,60,0,98
1,60,115,186
1,60,0,76
1,63,115,9
1,63,0,78
1,60,127,34
1,60,0,757
1,58,127,421
1,58,0,114
1,63,115,53
1,63,0,75
1,60,127,122
1,60,0,113
1,60,127,80
1,60,0,192
1,63,115,17
1,63,0,55
1,63,115,127
1,63,0,61
1,63,44,17
1,63,0,10
1,65,115,105
1,65,0,77
1,60,127,105
1,60,0,31
1,60,127,70
1,60,0,104
1,58,127,178
1,58,0,194
1,60,115,5
1,60,0,53
1,58,104,905
1,58,0,68
1,63,127,120
1,63,0,96
1,60,127,89
1,60,0,168
1,58,104,36
1,58,0,22
1,60,127,166
1,63,127,210
1,60,0,1
1,63,0,50
1,63,44,15
1,63,0,11
1,63,127,108
1,63,0,66
1,65,115,126
1,65,0,66
1,60,115,115
1,60,0,26
1,60,127,75
1,60,0,111
1,58,104,87
1,58,0,45
1,60,127,38
1,63,115,66
1,60,0,3
1,63,0,73
1,60,115,43
1,60,0,887
1,60,51,171
1,60,0,15
1,58,115,106
1,58,0,60
1,63,127,107
1,63,0,45
1,60,127,157
1,60,0,104
1,60,115,84
1,60,0,188
1,63,104,4
1,63,0,63
1,63,115,142
1,63,0,74
1,65,115,115
1,65,0,56
1,60,127,116
1,60,0,33
1,60,127,75
1,60,0,148
1,67,127,904
1,67,0,90
1,65,127,109
1,65,0,81
1,63,127,100
1,63,0,39
1,67,127,55
1,67,0,196
1,65,127,89
1,65,0,76
1,63,115,124
1,63,0,113
1,65,127,70
1,65,0,87
1,67,127,8
1,67,0,101
1,67,127,199
1,67,0,77
1,68,115,0
1,68,0,78
1,67,127,47
1,67,0,425
1,67,127,4748
1,67,0,185
1,65,127,30
1,65,0,132
1,63,115,40
1,63,0,121
1,65,115,71
1,67,115,28
1,65,0,24
1,67,0,168
1,65,115,43
1,67,115,22
1,65,0,40
1,67,0,150
1,65,104,41
1,67,115,6
1,65,0,36
1,67,0,155
1,65,86,42
1,67,115,8
1,65,0,35
1,67,0,189
1,67,127,59
1,65,94,0
1,65,0,28
1,67,0,123
1,67,127,60
1,67,0,170
1,65,63,29
1,67,86,73
1,65,0,30
1,65,94,65
1,67,0,50
1,63,115,61
1,65,0,26
1,63,0,61
1,63,127,97
1,60,104,308
1,63,0,19
1,60,0,38
1,58,104,16
1,58,0,69
1,58,115,130
1,58,0,85
1,58,104,107
1,58,0,81
1,63,127,124
1,63,0,79
1,60,127,21
1,60,0,103
1,58,115,86
1,58,0,36
1,60,104,23
1,62,79,13
1,62,0,37
1,60,0,653
1,53,127,76
1,53,0,87
1,53,127,101
1,53,0,92
1,51,115,13
1,51,0,117
1,67,127,1134
1,67,0,149
1,67,127,136
1,68,51,128
1,68,0,29
1,67,0,61
1,70,127,77
1,70,0,954
1,68,127,18
1,68,0,224
1,67,127,42
1,67,0,102
1,67,104,75
1,68,115,85
1,67,0,31
1,70,115,51
1,68,0,10
1,68,115,69
1,70,0,40
1,68,0,27
1,67,115,11
1,65,115,63
1,67,0,22
1,65,0,80
1,65,115,199
1,65,0,113
1,63,115,88
1,63,0,77
1,63,127,126
1,63,0,81
1,60,115,282
1,60,0,74
1,63,127,26
1,63,0,94
1,60,115,101
1,60,0,69
1,63,127,18
1,63,0,752
1,53,127,27
1,53,0,168
1,55,127,29
1,55,0,121
1,58,104,76
1,58,0,77
1,55,104,17
1,55,0,74
1,58,127,30
1,58,0,213
1,60,127,25786
1,60,0,76
1,70,127,20
1,70,0,223
1,68,115,65
1,68,0,183
1,65,115,105
1,65,0,71
1,67,115,25
1,67,0,91
1,65,115,5
1,60,115,618
1,65,0,7
1,60,0,49
1,70,127,40
1,70,0,159
1,68,115,33
1,68,0,189
1,67,127,99
1,67,0,156
1,65,127,132
1,65,0,115
1,65,86,77
1,63,104,0
1,63,0,33
1,65,0,120
