track,note,velocity,time
1,70,75,26114
1,75,75,0
1,79,75,10
1,70,75,370
1,74,75,0
1,77,75,6
1,68,75,378
1,73,75,4
1,77,75,0
1,67,75,370
1,72,75,0
1,76,75,0
1,65,75,370
1,68,75,0
1,72,75,0
1,75,75,4
1,70,75,370
1,74,75,4
1,77,75,0
1,71,75,370
1,74,75,4
1,77,75,0
1,72,75,368
1,75,75,4
1,79,75,0
1,70,75,378
1,74,75,2
1,77,75,0
1,72,75,378
1,75,75,4
1,79,75,2
1,70,75,370
1,75,75,0
1,79,75,0
1,70,75,370
1,74,75,0
1,77,75,6
1,68,75,370
1,73,75,4
1,77,75,0
1,67,75,370
1,72,75,0
1,76,75,0
1,65,75,368
1,68,75,0
1,72,75,4
1,75,75,2
1,70,75,368
1,74,75,4
1,77,75,0
1,71,75,370
1,74,75,0
1,77,75,0
1,72,75,378
1,75,75,4
1,79,75,0
1,70,75,368
1,74,75,0
1,77,75,0
1,72,75,370
1,76,75,4
1,79,75,0
1,70,75,31090
1,75,75,4
1,79,75,0
1,70,75,378
1,74,75,4
1,77,75,0
1,68,75,370
1,73,75,0
1,77,75,0
1,67,75,370
1,72,75,4
1,76,75,0
1,65,75,370
1,68,75,4
1,72,75,0
1,75,75,0
1,70,75,378
1,74,75,4
1,77,75,0
1,71,75,370
1,74,75,0
1,77,75,6
1,72,75,368
1,75,75,4
1,79,75,0
1,70,75,370
1,74,75,4
1,77,75,0
1,72,75,368
1,76,75,4
1,79,75,0
2,36,80,1536
2,36,80,194
2,36,80,194
2,36,80,240
2,36,80,96
2,36,80,190
2,36,80,50
2,36,80,194
2,34,80,4
2,34,80,194
2,34,80,192
2,34,80,240
2,34,80,194
2,34,80,92
2,34,80,50
2,34,80,98
2,32,80,4
2,32,80,194
2,32,80,194
2,32,80,144
2,32,80,194
2,32,80,192
2,32,80,50
2,32,80,98
2,34,80,4
2,34,80,194
2,34,80,202
2,34,80,144
2,34,80,194
2,34,80,192
2,36,80,144
2,38,80,4
2,36,80,0
2,36,80,196
2,36,80,192
2,36,80,250
2,36,80,194
2,36,80,190
2,36,80,48
2,36,80,102
2,34,80,0
2,34,80,196
2,34,80,192
2,34,80,236
2,34,80,98
2,34,80,96
2,34,80,54
2,34,80,102
2,32,80,0
2,32,80,196
2,32,80,194
2,32,80,146
2,32,80,98
2,32,80,90
2,32,80,50
2,32,80,102
2,34,80,4
2,34,80,194
2,34,80,192
2,34,80,236
2,34,80,98
2,34,80,192
2,34,80,50
2,39,80,202
2,39,80,196
2,39,80,288
2,39,80,240
2,39,80,98
2,39,80,184
2,39,80,50
2,38,80,110
2,38,80,198
2,38,80,194
2,38,80,230
2,38,80,194
2,38,80,198
2,38,80,50
2,37,80,0
2,37,80,194
2,37,80,194
2,37,80,240
2,37,80,202
2,37,80,192
2,37,80,52
2,37,80,106
2,36,80,0
2,36,80,192
2,36,80,194
2,36,80,240
2,34,80,192
2,34,80,190
2,32,80,146
2,31,80,352
2,29,80,112
2,29,80,194
2,29,80,288
2,29,80,144
2,29,80,188
2,29,80,194
2,31,80,144
2,36,80,2
2,34,80,384
2,34,80,192
2,34,80,204
2,35,80,50
2,35,80,194
2,35,80,190
2,35,80,54
2,35,80,102
2,36,80,0
2,36,80,194
2,36,80,198
2,36,80,144
2,36,80,98
2,36,80,96
2,31,80,146
2,31,80,200
2,36,80,4
2,36,80,194
2,36,80,198
2,36,80,144
2,36,80,98
2,36,80,98
2,36,80,52
2,38,80,4
2,39,80,108
2,39,80,198
2,39,80,192
2,39,80,144
2,39,80,192
2,39,80,194
2,39,80,50
2,38,80,0
2,38,80,198
2,38,80,196
2,38,80,240
2,38,80,194
2,38,80,192
2,38,80,50
2,37,80,0
2,37,80,198
2,37,80,194
2,32,80,144
2,37,80,96
2,37,80,194
2,34,80,54
2,34,80,46
2,37,80,152
2,36,80,0
2,36,80,200
2,36,80,196
2,36,80,234
2,34,80,98
2,34,80,178
2,32,80,160
2,31,80,348
2,29,80,0
2,29,80,196
2,29,80,188
2,29,80,144
2,29,80,98
2,29,80,192
2,31,80,146
2,36,80,4
2,34,80,0
2,34,80,208
2,34,80,192
2,35,80,48
2,35,80,192
2,35,80,192
2,35,80,50
2,35,80,110
2,36,80,108
2,36,80,200
2,36,80,192
2,36,80,144
2,36,80,190
2,36,80,194
2,36,80,56
2,36,80,198
2,36,80,200
2,36,80,196
2,36,80,140
2,36,80,194
2,36,80,194
2,36,80,52
2,36,80,298
2,36,80,198
2,36,80,192
2,36,80,236
2,36,80,192
2,36,80,192
2,36,80,50
2,34,80,0
2,34,80,196
2,34,80,196
2,34,80,144
2,34,80,194
2,34,80,192
2,34,80,54
2,32,80,106
2,32,80,296
2,32,80,198
2,32,80,234
2,32,80,194
2,32,80,192
2,32,80,52
2,31,80,764
2,31,80,198
2,31,80,192
2,35,80,48
2,35,80,194
2,35,80,188
2,38,80,150
2,38,80,198
2,36,80,4
2,36,80,200
2,36,80,194
2,36,80,236
2,36,80,192
2,36,80,96
2,36,80,50
2,34,80,96
2,34,80,200
2,34,80,196
2,34,80,234
2,34,80,98
2,34,80,194
2,32,80,144
2,31,80,352
2,29,80,0
2,29,80,200
2,29,80,194
2,29,80,236
2,29,80,192
2,29,80,194
2,29,80,50
2,31,80,0
2,32,80,6
2,32,80,200
2,32,80,192
2,34,80,48
2,34,80,194
2,34,80,192
2,34,80,50
2,36,80,194
2,36,80,292
2,36,80,198
2,36,80,236
2,36,80,192
2,36,80,190
2,36,80,52
2,36,80,288
2,36,80,194
2,36,80,208
2,36,80,230
2,36,80,194
2,36,80,192
2,36,80,50
2,38,80,2
2,39,80,0
2,39,80,200
2,39,80,198
2,39,80,234
2,39,80,202
2,39,80,188
2,39,80,50
2,38,80,104
2,38,80,200
2,38,80,192
2,38,80,234
2,38,80,192
2,38,80,192
2,38,80,50
2,37,80,4
2,37,80,200
2,37,80,192
2,37,80,236
2,37,80,192
2,37,80,202
2,37,80,54
2,37,80,210
2,36,80,104
2,36,80,200
2,36,80,194
2,48,80,144
2,46,80,192
2,46,80,194
2,44,80,50
2,44,80,48
2,43,80,152
2,29,80,110
2,29,80,200
2,29,80,194
2,29,80,236
2,29,80,194
2,29,80,186
2,31,80,150
2,31,80,202
2,34,80,0
2,34,80,198
2,34,80,194
2,35,80,52
2,35,80,192
2,35,80,190
2,35,80,50
2,38,80,4
2,36,80,4
2,36,80,198
2,36,80,192
2,36,80,144
2,36,80,194
2,36,80,192
2,31,80,158
2,31,80,104
2,36,80,104
2,36,80,104
2,36,80,196
2,36,80,140
2,36,80,194
2,36,80,192
2,36,80,50
2,36,80,4
2,36,80,198
2,36,80,192
2,36,80,238
2,36,80,192
2,36,80,192
2,36,80,50
2,34,80,0
2,34,80,198
2,34,80,196
2,34,80,148
2,34,80,192
2,34,80,194
2,34,80,50
2,32,80,102
2,32,80,292
2,32,80,192
2,32,80,238
2,32,80,194
2,32,80,194
2,32,80,50
2,31,80,0
2,31,80,198
2,31,80,192
2,35,80,48
2,35,80,194
2,35,80,198
2,38,80,144
2,38,80,208
2,36,80,6
2,36,80,192
2,36,80,192
2,36,80,234
2,36,80,194
2,36,80,98
2,36,80,54
2,34,80,96
2,34,80,198
2,34,80,194
2,34,80,236
2,34,80,100
2,34,80,192
2,32,80,144
2,31,80,344
2,29,80,0
2,29,80,198
2,29,80,192
2,29,80,236
2,29,80,202
2,29,80,192
2,29,80,50
2,31,80,0
2,32,80,6
2,32,80,198
2,32,80,196
2,34,80,48
2,34,80,192
2,34,80,192
2,34,80,50
2,36,80,204
2,36,80,196
2,36,80,192
2,36,80,240
2,36,80,194
2,36,80,194
2,36,80,50
2,36,80,288
2,36,80,194
2,36,80,194
2,36,80,240
2,36,80,194
2,36,80,192
2,36,80,50
2,31,80,98
2,36,80,0
2,36,80,200
2,36,80,202
2,36,80,240
2,36,80,194
2,36,80,186
2,36,80,50
2,34,80,0
2,34,80,204
2,34,80,194
2,34,80,240
2,34,80,196
2,34,80,192
2,34,80,54
2,32,80,0
2,32,80,204
2,32,80,194
2,32,80,240
2,32,80,198
2,32,80,200
2,32,80,48
2,32,80,106
2,34,80,8
2,34,80,102
2,34,80,192
2,34,80,144
2,34,80,98
2,34,80,192
2,36,80,146
2,38,80,4
2,36,80,112
2,36,80,200
2,36,80,196
2,36,80,244
2,36,80,196
2,36,80,192
2,36,80,50
2,36,80,102
2,34,80,4
2,34,80,200
2,34,80,196
2,34,80,144
2,34,80,192
2,34,80,96
2,34,80,52
2,34,80,102
2,32,80,0
2,32,80,200
2,32,80,194
2,32,80,240
2,32,80,194
2,32,80,194
2,32,80,60
2,32,80,198
2,34,80,6
2,34,80,206
2,34,80,194
2,34,80,240
2,34,80,96
2,34,80,96
2,34,80,52
2,35,80,46
2,36,80,536
2,36,80,198
2,36,80,200
2,36,80,234
2,36,80,192
2,36,80,96
2,36,80,52
2,36,80,104
2,34,80,4
2,34,80,200
2,34,80,194
2,34,80,244
2,34,80,98
2,34,80,88
2,32,80,154
2,31,80,344
2,29,80,0
2,29,80,192
2,29,80,192
2,29,80,234
2,29,80,194
2,29,80,192
2,29,80,58
2,30,80,2
2,31,80,4
2,31,80,200
2,31,80,192
2,31,80,238
2,31,80,198
2,35,80,192
2,38,80,96
2,36,80,242
2,36,80,200
2,36,80,198
2,36,80,234
2,36,80,194
2,36,80,194
2,36,80,50
2,36,80,112
2,34,80,378
2,34,80,198
2,34,80,196
2,34,80,234
2,34,80,192
2,34,80,194
2,34,80,52
2,34,80,198
2,32,80,102
2,32,80,200
2,32,80,194
2,32,80,236
2,32,80,192
2,32,80,196
2,32,80,54
2,32,80,104
2,31,80,0
2,31,80,198
2,31,80,192
2,35,80,48
2,47,80,2
2,35,80,0
2,47,80,232
2,38,80,58
2,50,80,38
2,38,80,56
2,36,80,4
2,36,80,214
2,36,80,194
2,36,80,236
2,36,80,194
2,36,80,192
2,36,80,50
2,36,80,104
2,34,80,106
2,34,80,204
2,34,80,194
2,34,80,234
2,34,80,202
2,34,80,192
2,44,80,150
2,43,80,102
2,41,80,104
2,36,80,232
2,29,80,104
2,29,80,98
2,29,80,236
2,29,80,192
2,29,80,192
2,29,80,50
2,31,80,2
2,32,80,6
2,32,80,198
2,32,80,192
2,34,80,624
2,34,80,182
2,34,80,194
2,34,80,50
2,35,80,4
2,36,80,116
2,36,80,204
2,36,80,192
2,36,80,234
2,36,80,194
2,36,80,184
2,36,80,50
2,34,80,768
2,34,80,202
2,34,80,198
2,34,80,144
2,34,80,192
2,34,80,192
2,34,80,50
2,32,80,102
2,32,80,296
2,32,80,194
2,32,80,236
2,32,80,202
2,32,80,186
2,32,80,54
2,31,80,0
2,31,80,196
2,31,80,192
2,35,80,48
2,35,80,192
2,35,80,192
2,38,80,150
2,38,80,198
2,36,80,6
2,36,80,198
2,36,80,196
2,36,80,234
2,36,80,194
2,36,80,96
2,36,80,50
2,34,80,104
2,34,80,200
2,34,80,192
2,34,80,232
2,34,80,98
2,34,80,192
2,32,80,146
2,31,80,0
2,29,80,0
2,29,80,204
2,29,80,192
2,29,80,240
2,29,80,194
2,29,80,192
2,29,80,48
2,31,80,4
2,32,80,4
2,32,80,194
2,32,80,192
2,34,80,48
2,34,80,192
2,34,80,194
2,34,80,52
2,36,80,198
2,34,80,0
2,31,80,0
2,24,80,2
3,77,80,25926
3,79,80,52
3,79,80,72
3,79,80,82
3,79,80,56
3,77,80,104
3,79,80,42
3,77,80,1120
3,77,80,48
3,77,80,122
3,77,80,70
3,75,80,80
3,77,80,22
3,77,80,1248
3,77,80,80
3,75,80,132
3,77,80,26
3,77,80,310
3,77,80,82
3,77,80,122
3,79,80,50
3,77,80,74
3,76,80,86
3,74,80,38
3,72,80,0
3,79,80,1472
3,75,80,14
3,72,80,194
3,79,80,36
3,75,80,72
3,72,80,884
3,75,80,176
3,77,80,204
3,77,80,128
3,75,80,50
3,77,80,98
3,75,80,426
3,77,80,2
3,77,80,68
3,79,80,108
3,77,80,378
3,75,80,120
3,77,80,62
3,75,80,12
3,72,80,4
3,79,80,3826
3,79,80,106
3,79,80,80
3,82,80,112
3,80,80,122
3,79,80,64
3,77,80,912
3,77,80,80
3,77,80,124
3,77,80,152
3,75,80,76
3,77,80,52
3,77,80,70
3,75,80,22
3,77,80,44
3,75,80,508
3,77,80,80
3,77,80,74
3,77,80,124
3,77,80,336
3,77,80,102
3,77,80,62
3,79,80,74
3,77,80,86
3,76,80,90
3,76,80,90
3,77,80,76
3,79,80,56
3,76,80,54
3,72,80,122
3,79,80,924
3,75,80,48
3,72,80,28
3,79,80,66
3,75,80,58
3,72,80,658
3,75,80,176
3,77,80,216
3,77,80,80
3,75,80,26
3,77,80,88
3,75,80,378
3,77,80,84
3,77,80,60
3,79,80,68
3,77,80,50
3,75,80,32
3,77,80,112
3,75,80,16
3,72,80,8
3,72,80,3798
3,74,80,40
3,75,80,180
3,77,80,96
3,72,80,64
3,72,80,432
3,74,80,166
3,75,80,134
3,77,80,176
3,79,80,120
3,82,80,180
3,79,80,64
3,72,80,324
3,74,80,150
3,75,80,170
3,77,80,166
3,72,80,98
3,77,80,172
3,77,80,86
3,79,80,118
3,77,80,22
3,75,80,124
3,72,80,1962
3,74,80,50
3,75,80,180
3,77,80,16
3,72,80,72
3,72,80,462
3,74,80,130
3,75,80,176
3,77,80,156
3,79,80,152
3,82,80,170
3,79,80,102
3,72,80,316
3,74,80,164
3,75,80,206
3,77,80,144
3,72,80,96
3,77,80,144
3,77,80,122
3,79,80,122
3,77,80,64
3,75,80,176
3,77,80,7928
3,79,80,80
3,79,80,74
3,79,80,80
3,77,80,118
3,79,80,72
3,77,80,1258
3,77,80,84
3,77,80,138
3,77,80,108
3,77,80,148
3,77,80,138
3,77,80,1244
3,77,80,92
3,77,80,150
3,77,80,120
3,77,80,282
3,77,80,112
3,77,80,70
3,79,80,100
3,77,80,118
3,76,80,128
3,77,80,138
3,79,80,124
3,76,80,150
3,72,80,186
3,79,80,710
3,75,80,80
3,72,80,74
3,79,80,92
3,75,80,66
3,72,80,946
3,75,80,132
3,77,80,196
3,77,80,106
3,75,80,58
3,77,80,76
3,77,80,252
3,77,80,102
3,77,80,72
3,79,80,96
3,77,80,58
3,75,80,64
3,77,80,70
3,75,80,32
3,72,80,32
3,72,80,4354
3,74,80,48
3,75,80,180
3,77,80,96
3,72,80,58
3,72,80,432
3,74,80,166
3,75,80,134
3,77,80,180
3,79,80,128
3,82,80,182
3,79,80,74
3,72,80,324
3,74,80,150
3,75,80,166
3,77,80,166
3,72,80,102
3,77,80,170
3,77,80,96
3,79,80,116
3,77,80,16
3,75,80,122
3,72,80,1962
3,74,80,44
3,75,80,182
3,77,80,16
3,72,80,74
3,72,80,460
3,74,80,126
3,75,80,168
3,77,80,156
3,79,80,150
3,82,80,164
3,79,80,92
3,72,80,316
3,74,80,160
3,75,80,206
3,77,80,144
3,72,80,96
3,77,80,144
3,77,80,124
3,79,80,122
3,77,80,64
3,75,80,176
3,72,80,44976
3,74,80,50
3,75,80,176
3,77,80,96
3,72,80,56
3,72,80,432
3,74,80,164
3,75,80,134
3,77,80,176
3,79,80,126
3,82,80,182
3,79,80,74
3,72,80,320
3,74,80,154
3,75,80,166
3,77,80,164
3,72,80,98
3,77,80,170
3,77,80,96
3,79,80,116
3,77,80,14
3,75,80,122
3,72,80,1966
3,74,80,50
3,75,80,182
3,77,80,16
3,72,80,72
3,72,80,460
3,74,80,130
3,75,80,176
3,77,80,160
3,79,80,144
3,82,80,174
3,79,80,96
3,72,80,320
3,74,80,160
3,75,80,206
3,77,80,144
3,72,80,96
3,77,80,144
3,77,80,128
3,79,80,122
3,77,80,70
3,75,80,174
3,72,80,1962
3,74,80,40
3,75,80,176
3,77,80,96
3,72,80,58
3,72,80,434
3,74,80,166
3,75,80,134
3,77,80,166
3,79,80,130
3,82,80,172
3,79,80,74
3,72,80,320
3,74,80,154
3,75,80,160
