track,note,velocity,time
1,64,103,5548
1,57,96,0
1,62,112,118
1,57,94,0
1,57,94,2189
1,60,109,0
1,57,98,157
1,62,107,0
1,57,98,2714
1,64,107,0
1,62,112,111
1,57,98,0
1,57,94,948
1,64,105,0
1,62,109,116
1,57,96,0
1,55,103,364
1,60,107,0
1,64,103,3480
1,57,94,0
1,62,112,116
1,57,96,0
1,57,98,2268
1,60,112,0
1,62,105,178
1,57,101,0
1,57,96,2716
1,64,107,0
1,62,112,119
1,57,96,0
1,57,98,928
1,64,105,0
1,62,109,120
1,57,98,0
1,55,105,371
1,60,112,0
2,53,122,0
2,69,107,384
2,65,109,0
2,67,103,96
2,57,114,158
2,64,105,384
2,67,112,0
2,50,105,216
2,62,93,192
2,72,105,192
2,69,103,0
2,74,103,44
2,69,107,0
2,48,119,107
2,60,112,192
2,69,101,192
2,72,109,0
2,74,109,1
2,69,98,0
2,46,127,163
2,58,119,192
2,70,124,192
2,65,107,0
2,46,90,4
2,45,107,96
2,57,89,192
2,69,105,192
2,65,98,0
2,43,114,150
2,55,101,192
2,67,114,192
2,62,107,0
2,48,112,161
2,65,114,42
2,60,107,0
2,48,119,0
2,48,122,122
2,65,114,0
2,60,105,0
2,53,122,140
2,69,107,384
2,65,109,0
2,67,103,96
2,57,114,158
2,64,105,384
2,67,112,0
2,50,105,216
2,62,93,192
2,72,105,192
2,69,103,0
2,74,103,44
2,69,107,0
2,48,119,107
2,60,112,192
2,69,101,192
2,72,109,0
2,74,109,1
2,69,98,0
2,46,127,163
2,58,119,192
2,70,124,192
2,65,107,0
2,46,90,4
2,45,107,96
2,57,89,192
2,69,105,192
2,65,98,0
2,43,114,150
2,55,101,192
2,67,114,192
2,62,107,0
2,41,122,158
2,60,98,2521
2,65,114,0
2,67,112,108
2,60,94,0
2,65,107,108
2,69,114,0
2,64,105,193
2,57,98,0
2,55,101,109
2,62,105,0
2,55,101,151
2,60,107,0
2,60,114,136
2,57,101,0
2,57,101,143
2,62,109,0
2,60,101,216
2,65,112,0
2,60,91,105
2,67,109,0
2,65,109,109
2,69,112,0
2,57,93,158
2,64,103,0
2,62,105,103
2,57,93,0
2,57,91,55
2,64,101,0
2,62,109,102
2,57,94,0
2,57,91,79
2,64,103,0
2,62,109,85
2,57,94,0
2,64,87,29
2,55,105,79
2,60,109,0
2,53,122,377
2,69,107,384
2,65,109,0
2,67,103,96
2,57,114,158
2,64,105,384
2,67,112,0
2,50,105,216
2,62,93,192
2,72,105,192
2,69,103,0
2,74,103,44
2,69,107,0
2,48,119,107
2,60,112,192
2,69,101,192
2,72,109,0
2,74,109,1
2,69,98,0
2,46,127,163
2,58,119,192
2,70,124,192
2,65,107,0
2,46,90,4
2,45,107,96
2,57,89,192
2,69,105,192
2,65,98,0
2,43,114,150
2,55,101,192
2,67,114,192
2,62,107,0
2,48,112,161
2,65,114,42
2,60,107,0
2,48,119,0
2,48,122,122
2,65,114,0
2,60,105,0
2,53,122,140
2,69,107,384
2,65,109,0
2,67,103,96
2,57,114,158
2,64,105,384
2,67,112,0
2,50,105,216
2,62,93,192
2,72,105,192
2,69,103,0
2,74,103,44
2,69,107,0
2,48,119,107
2,60,112,192
2,69,101,192
2,72,109,0
2,74,109,1
2,69,98,0
2,46,127,163
2,58,119,192
2,70,124,192
2,65,107,0
2,46,90,4
2,45,107,96
2,57,89,192
2,69,105,192
2,65,98,0
2,43,114,150
2,55,101,192
2,67,114,192
2,62,107,0
2,41,122,158
2,60,94,217
2,65,109,0
2,60,93,112
2,67,109,0
2,65,109,112
2,69,112,0
2,64,101,280
2,57,94,0
2,55,98,92
2,62,105,0
2,55,98,139
2,60,101,0
2,57,96,151
2,60,109,0
2,57,98,143
2,62,107,0
2,60,96,239
2,65,114,0
2,60,94,104
2,67,103,0
2,65,109,114
2,69,109,0
2,57,93,250
2,64,103,0
2,57,98,100
2,62,109,0
2,64,103,113
2,57,89,0
2,57,94,111
2,62,105,0
2,64,105,118
2,57,94,0
2,62,105,117
2,57,96,0
2,55,103,156
2,60,107,0
2,53,122,315
2,69,107,384
2,65,109,0
2,67,103,96
2,57,114,158
2,64,105,384
2,67,112,0
2,50,105,216
2,62,93,192
2,72,105,192
2,69,103,0
2,74,103,44
2,69,107,0
2,48,119,107
2,60,112,192
2,69,101,192
2,72,109,0
2,74,109,1
2,69,98,0
2,46,127,163
2,58,119,192
2,70,124,192
2,65,107,0
2,46,90,4
2,45,107,96
2,57,89,192
2,69,105,192
2,65,98,0
2,43,114,150
2,55,101,192
2,67,114,192
2,62,107,0
2,48,112,161
2,65,114,42
2,60,107,0
2,48,119,0
2,48,122,122
2,65,114,0
2,60,105,0
2,53,122,140
2,69,107,384
2,65,109,0
2,67,103,96
2,57,114,158
2,64,105,384
2,67,112,0
2,50,105,216
2,62,93,192
2,72,105,192
2,69,103,0
2,74,103,44
2,69,107,0
2,48,119,107
2,60,112,192
2,69,101,192
2,72,109,0
2,74,109,1
2,69,98,0
2,46,127,163
2,58,119,192
2,70,124,192
2,65,107,0
2,46,90,4
2,45,107,96
2,57,89,192
2,69,105,192
2,65,98,0
2,43,114,150
2,55,101,192
2,67,114,192
2,62,107,0
2,57,96,161
2,62,109,0
2,55,103,117
2,60,109,0
2,46,124,139
2,58,127,192
2,65,103,192
2,70,127,0
2,46,127,3
2,45,109,142
2,57,103,192
2,69,96,192
2,64,94,0
2,57,96,76
2,43,116,144
2,55,101,192
2,62,94,192
2,67,109,0
2,41,124,144
2,57,103,209
2,62,109,0
2,55,105,102
2,60,107,0
2,46,127,54
2,58,127,192
2,70,127,20
2,65,107,0
2,58,90,2
2,45,107,202
2,57,96,192
2,69,109,192
2,64,103,0
2,43,114,170
2,55,103,192
2,67,112,192
2,62,101,0
2,60,114,139
2,55,105,0
2,57,101,125
2,62,112,0
2,53,122,106
2,69,107,384
2,65,109,0
2,67,103,96
2,57,114,158
2,64,105,384
2,67,112,0
2,50,105,216
2,62,93,192
2,72,105,192
2,69,103,0
2,74,103,44
2,69,107,0
2,48,119,107
2,60,112,192
2,69,101,192
2,72,109,0
2,74,109,1
2,69,98,0
2,46,127,163
2,58,119,192
2,70,124,192
2,65,107,0
2,46,90,4
2,45,107,96
2,57,89,192
2,69,105,192
2,65,98,0
2,43,114,150
2,55,101,192
2,67,114,192
2,62,107,0
2,48,112,161
2,65,114,42
2,60,107,0
2,48,119,0
2,48,122,122
2,65,114,0
2,60,105,0
2,53,122,140
2,69,107,384
2,65,109,0
2,67,103,96
2,57,114,158
2,64,105,384
2,67,112,0
2,50,105,216
2,62,93,192
2,72,105,192
2,69,103,0
2,74,103,44
2,69,107,0
2,48,119,107
2,60,112,192
2,69,101,192
2,72,109,0
2,74,109,1
2,69,98,0
2,46,127,163
2,58,119,192
2,70,124,192
2,65,107,0
2,46,90,4
2,45,107,96
2,57,89,192
2,69,105,192
2,65,98,0
2,43,114,150
2,55,101,192
2,67,114,192
2,62,107,0
2,55,103,161
2,60,107,0
2,57,103,124
2,62,107,0
2,53,109,111
2,60,109,0
3,53,122,0
3,69,107,384
3,65,109,0
3,67,103,96
3,57,114,158
3,64,105,384
3,67,112,0
3,50,105,216
3,62,93,192
3,72,105,192
3,69,103,0
3,74,103,44
3,69,107,0
3,48,119,107
3,60,112,192
3,69,101,192
3,72,109,0
3,74,109,1
3,69,98,0
3,46,127,163
3,58,119,192
3,70,124,192
3,65,107,0
3,46,90,4
3,45,107,96
3,57,89,192
3,69,105,192
3,65,98,0
3,43,114,150
3,55,101,192
3,67,114,192
3,62,107,0
3,48,112,161
3,65,114,42
3,60,107,0
3,48,119,0
3,48,122,122
3,65,114,0
3,60,105,0
3,53,122,140
3,69,107,384
3,65,109,0
3,67,103,96
3,57,114,158
3,64,105,384
3,67,112,0
3,50,105,216
3,62,93,192
3,72,105,192
3,69,103,0
3,74,103,44
3,69,107,0
3,48,119,107
3,60,112,192
3,69,101,192
3,72,109,0
3,74,109,1
3,69,98,0
3,46,127,163
3,58,119,192
3,70,124,192
3,65,107,0
3,46,90,4
3,45,107,96
3,57,89,192
3,69,105,192
3,65,98,0
3,43,114,150
3,55,101,192
3,67,114,192
3,62,107,0
3,41,122,158
3,60,98,2521
3,65,114,0
3,67,112,108
3,60,94,0
3,65,107,108
3,69,114,0
3,64,105,193
3,57,98,0
3,55,101,109
3,62,105,0
3,55,101,151
3,60,107,0
3,60,114,136
3,57,101,0
3,57,101,143
3,62,109,0
3,60,101,216
3,65,112,0
3,60,91,105
3,67,109,0
3,65,109,109
3,69,112,0
3,57,93,158
3,64,103,0
3,62,105,103
3,57,93,0
3,57,91,55
3,64,101,0
3,62,109,102
3,57,94,0
3,57,91,79
3,64,103,0
3,62,109,85
3,57,94,0
3,64,87,29
3,55,105,79
3,60,109,0
3,53,122,377
3,69,107,384
3,65,109,0
3,67,103,96
3,57,114,158
3,64,105,384
3,67,112,0
3,50,105,216
3,62,93,192
3,72,105,192
3,69,103,0
3,74,103,44
3,69,107,0
3,48,119,107
3,60,112,192
3,69,101,192
3,72,109,0
3,74,109,1
3,69,98,0
3,46,127,163
3,58,119,192
3,70,124,192
3,65,107,0
3,46,90,4
3,45,107,96
3,57,89,192
3,69,105,192
3,65,98,0
3,43,114,150
3,55,101,192
3,67,114,192
3,62,107,0
3,48,112,161
3,65,114,42
3,60,107,0
3,48,119,0
3,48,122,122
3,65,114,0
3,60,105,0
3,53,122,140
3,69,107,384
3,65,109,0
3,67,103,96
3,57,114,158
3,64,105,384
3,67,112,0
3,50,105,216
3,62,93,192
3,72,105,192
3,69,103,0
3,74,103,44
3,69,107,0
3,48,119,107
3,60,112,192
3,69,101,192
3,72,109,0
3,74,109,1
3,69,98,0
3,46,127,163
3,58,119,192
3,70,124,192
3,65,107,0
3,46,90,4
3,45,107,96
3,57,89,192
3,69,105,192
3,65,98,0
3,43,114,150
3,55,101,192
3,67,114,192
3,62,107,0
3,41,122,158
3,65,114,217
3,60,96,0
3,67,109,100
3,60,93,0
3,65,105,106
3,69,107,0
3,57,96,276
3,64,103,0
3,55,105,104
3,62,107,0
3,55,101,168
3,60,105,0
3,60,112,516
3,57,103,0
3,57,103,161
3,62,107,0
3,60,94,228
3,65,109,0
3,67,103,109
3,60,89,0
3,65,109,115
3,69,112,0
3,57,91,314
3,64,98,0
3,62,107,98
3,57,96,0
3,64,105,128
3,57,96,0
3,62,107,105
3,57,93,0
3,57,94,107
3,64,105,0
3,62,109,106
3,57,96,0
3,55,101,131
3,60,107,0
3,53,122,381
3,69,107,384
3,65,109,0
3,67,103,96
3,57,114,158
3,64,105,384
3,67,112,0
3,50,105,216
3,62,93,192
3,72,105,192
3,69,103,0
3,74,103,44
3,69,107,0
3,48,119,107
3,60,112,192
3,69,101,192
3,72,109,0
3,74,109,1
3,69,98,0
3,46,127,163
3,58,119,192
3,70,124,192
3,65,107,0
3,46,90,4
3,45,107,96
3,57,89,192
3,69,105,192
3,65,98,0
3,43,114,150
3,55,101,192
3,67,114,192
3,62,107,0
3,48,112,161
3,65,114,42
3,60,107,0
3,48,119,0
3,48,122,122
3,65,114,0
3,60,105,0
3,53,122,140
3,69,107,384
3,65,109,0
3,67,103,96
3,57,114,158
3,64,105,384
3,67,112,0
3,50,105,216
3,62,93,192
3,72,105,192
3,69,103,0
3,74,103,44
3,69,107,0
3,48,119,107
3,60,112,192
3,69,101,192
3,72,109,0
3,74,109,1
3,69,98,0
3,46,127,163
3,58,119,192
3,70,124,192
3,65,107,0
3,46,90,4
3,45,107,96
3,57,89,192
3,69,105,192
3,65,98,0
3,43,114,150
3,55,101,192
3,67,114,192
3,62,107,0
3,57,96,161
3,62,109,0
3,55,103,117
3,60,109,0
3,46,124,139
3,58,127,192
3,65,103,192
3,70,127,0
3,46,127,3
3,45,109,142
3,57,103,192
3,69,96,192
3,64,94,0
3,57,96,76
3,43,116,144
3,55,101,192
3,62,94,192
3,67,109,0
3,41,124,144
3,57,103,209
3,62,109,0
3,55,105,102
3,60,107,0
3,46,127,54
3,58,127,192
3,70,127,20
3,65,107,0
3,58,124,2
3,45,107,202
3,57,96,192
3,69,109,192
3,64,103,0
3,43,114,170
3,55,103,192
3,67,112,192
3,62,101,0
3,60,114,139
3,55,105,0
3,57,101,125
3,62,112,0
3,53,122,106
3,69,107,384
3,65,109,0
3,67,103,96
3,57,114,158
3,64,105,384
3,67,112,0
3,50,105,216
3,62,93,192
3,72,105,192
3,69,103,0
3,74,103,44
3,69,107,0
3,48,119,107
3,60,112,192
3,69,101,192
3,72,109,0
3,74,109,1
3,69,98,0
3,46,127,163
3,58,119,192
3,70,124,192
3,65,107,0
3,46,90,4
3,45,107,96
3,57,89,192
3,69,105,192
3,65,98,0
3,43,114,150
3,55,101,192
3,67,114,192
3,62,107,0
3,48,112,161
3,65,114,42
3,60,107,0
3,48,119,0
3,48,122,122
3,65,114,0
3,60,105,0
3,53,122,140
3,69,107,384
3,65,109,0
3,67,103,96
3,57,114,158
3,64,105,384
3,67,112,0
3,50,105,216
3,62,93,192
3,72,105,192
3,69,103,0
3,74,103,44
3,69,107,0
3,48,119,107
3,60,112,192
3,69,101,192
3,72,109,0
3,74,109,1
3,69,98,0
3,46,127,163
3,58,119,192
3,70,124,192
3,65,107,0
3,46,90,4
3,45,107,96
3,57,89,192
3,69,105,192
3,65,98,0
3,43,114,150
3,55,101,192
3,67,114,192
3,62,107,0
3,55,105,161
3,60,112,0
3,57,105,128
3,62,112,0
3,53,114,133
3,60,109,0
4,53,122,0
4,69,107,384
4,65,109,0
4,67,103,96
4,57,114,158
4,64,105,384
4,67,112,0
4,50,105,216
4,62,93,192
4,72,105,192
4,69,103,0
4,74,103,44
4,69,107,0
4,48,119,107
4,60,112,192
4,69,101,192
4,72,109,0
4,74,109,1
4,69,98,0
4,46,127,163
4,58,119,192
4,70,124,192
4,65,107,0
4,46,90,4
4,45,107,96
4,57,89,192
4,69,105,192
4,65,98,0
4,43,114,150
4,55,101,192
4,67,114,192
4,62,107,0
4,48,112,161
4,65,114,42
4,60,107,0
4,48,119,0
4,48,122,122
4,65,114,0
4,60,105,0
4,53,122,140
4,69,107,384
4,65,109,0
4,67,103,96
4,57,114,158
4,64,105,384
4,67,112,0
4,50,105,216
4,62,93,192
4,72,105,192
4,69,103,0
4,74,103,44
4,69,107,0
4,48,119,107
4,60,112,192
4,69,101,192
4,72,109,0
4,74,109,1
4,69,98,0
4,46,127,163
4,58,119,192
4,70,124,192
4,65,107,0
4,46,90,4
4,45,107,96
4,57,89,192
4,69,105,192
4,65,98,0
4,43,114,150
4,55,101,192
4,67,114,192
4,62,107,0
4,41,122,158
4,53,122,0
4,69,107,384
4,65,109,0
4,67,103,96
4,57,114,158
4,64,105,384
4,67,112,0
4,50,105,216
4,62,93,192
4,72,105,192
4,69,103,0
4,74,103,44
4,69,107,0
4,48,119,107
4,60,112,192
4,69,101,192
4,72,109,0
4,74,109,1
4,69,98,0
4,46,127,163
4,58,119,192
4,70,124,192
4,65,107,0
4,46,90,4
4,45,107,96
4,57,89,192
4,69,105,192
4,65,98,0
4,43,114,150
4,55,101,192
4,67,114,192
4,62,107,0
4,48,112,161
4,65,114,42
4,60,107,0
4,48,119,0
4,48,122,122
4,65,114,0
4,60,105,0
4,53,122,140
4,69,107,384
4,65,109,0
4,67,103,96
4,57,114,158
4,64,105,384
4,67,112,0
4,50,105,216
4,62,93,192
4,72,105,192
4,69,103,0
4,74,103,44
4,69,107,0
4,48,119,107
4,60,112,192
4,69,101,192
4,72,109,0
4,74,109,1
4,69,98,0
4,46,127,163
4,58,119,192
4,70,124,192
4,65,107,0
4,46,90,4
4,45,107,96
4,57,89,192
4,69,105,192
4,65,98,0
4,43,114,150
4,55,101,192
4,67,114,192
4,62,107,0
4,41,122,158
4,53,122,0
4,69,107,384
4,65,109,0
4,67,103,96
4,57,114,158
4,64,105,384
4,67,112,0
4,50,105,216
4,62,93,192
4,72,105,192
