track,note,velocity,time
1,70,127,1837
1,67,127,92
1,65,115,110
1,60,115,78
1,63,115,57
1,65,115,29
1,65,115,210
1,67,115,7
1,60,127,33
1,63,127,157
1,65,115,11
1,65,127,632
1,65,127,123
1,63,115,77
1,65,127,119
1,65,127,105
1,65,115,115
1,63,104,71
1,64,115,108
1,65,115,22
1,63,115,28
1,60,127,11
1,58,127,71
1,63,115,58
1,60,127,28
1,68,86,180
1,70,127,0
1,67,127,6
1,65,115,118
1,65,115,129
1,63,115,90
1,60,115,5
1,58,104,103
1,60,115,61
1,60,115,86
1,65,127,112
1,64,104,0
1,63,115,48
1,67,127,196
1,65,104,11
1,65,104,22
1,63,104,42
1,65,127,100
1,60,127,22
1,58,115,94
1,60,127,26
1,63,115,84
1,58,104,58
1,60,115,35
1,60,127,119
1,55,115,138
1,55,115,53
1,55,115,53
1,64,127,65
1,62,115,51
1,64,104,55
1,62,127,13
1,64,115,270
1,64,127,70
1,64,127,84
1,64,115,59
1,67,127,74
1,69,127,5
1,55,115,184
1,55,115,76
1,64,115,75
1,64,115,82
1,67,127,74
1,65,115,10
1,64,115,81
1,62,115,91
1,60,115,68
1,60,127,86
1,55,115,11
1,55,104,57
1,62,127,48
1,64,115,42
1,62,127,15
1,55,115,8
1,60,115,29
1,62,86,47
1,60,127,10
1,64,127,106
1,64,115,80
1,64,127,83
1,64,127,82
1,69,127,59
1,67,127,34
1,55,127,53
1,55,115,78
1,64,115,51
1,64,115,76
1,67,115,61
1,65,104,12
1,64,115,189
1,62,115,5
1,60,127,5
1,60,127,67
1,55,115,19
1,55,127,72
1,63,115,43
1,63,115,99
1,65,115,105
1,60,127,88
1,60,127,65
1,58,127,147
1,63,115,32
1,60,127,22
1,60,79,290
1,58,104,86
1,63,115,105
1,60,127,135
1,60,127,71
1,63,115,200
1,63,127,123
1,65,115,115
1,60,104,108
1,60,127,67
1,58,94,182
1,60,127,192
1,58,115,886
1,63,127,117
1,60,127,112
1,60,115,279
1,63,127,0
1,63,127,189
1,65,115,166
1,60,115,125
1,60,127,74
1,58,104,199
1,63,127,39
1,60,127,11
1,60,55,622
1,58,115,54
1,63,115,120
1,60,127,140
1,60,94,37
1,63,127,90
1,63,115,114
1,65,127,121
1,60,127,100
1,60,127,74
1,63,115,966
1,65,115,143
1,60,115,123
1,60,127,68
1,67,94,964
1,70,115,15
1,69,104,0
1,68,41,3
1,67,127,157
1,65,127,128
1,65,104,120
1,64,79,6
1,58,115,82
1,60,127,65
1,63,127,23
1,67,127,123
1,63,115,106
1,63,127,190
1,65,127,29
1,65,127,593
1,65,104,89
1,65,115,103
1,66,104,96
1,65,127,20
1,63,115,99
1,65,127,135
1,63,115,95
1,65,104,99
1,67,115,17
1,63,104,9
1,60,127,40
1,58,115,91
1,63,115,31
1,60,127,31
1,57,73,452
1,59,86,20
1,60,29,25
1,62,79,33
1,67,79,18
1,70,127,18
1,67,127,0
1,63,115,63
1,65,119,134
1,63,104,96
1,60,115,20
1,58,104,73
1,60,115,44
1,60,127,96
1,63,115,72
1,65,94,28
1,63,127,40
1,65,127,334
1,67,94,15
1,65,127,8
1,63,115,91
1,65,115,116
1,60,94,37
1,58,115,84
1,58,104,106
1,60,127,20
1,63,115,117
1,60,115,138
1,60,127,159
1,55,127,187
1,55,127,58
1,62,104,14
1,64,127,19
1,55,94,909
1,62,127,40
1,64,115,67
1,62,127,3
1,57,73,10
1,59,73,15
1,60,79,12
1,64,127,9
1,64,127,89
1,64,127,105
1,64,127,86
1,67,127,107
1,69,127,7
1,55,127,177
1,55,127,82
1,64,127,20
1,64,127,71
1,67,127,89
1,65,104,12
1,65,115,6
1,64,115,195
1,62,115,0
1,60,127,15
1,60,127,98
1,55,127,192
1,55,115,50
1,62,115,6
1,64,127,33
1,62,127,18
1,55,127,390
1,62,44,21
1,60,127,9
1,62,104,59
1,60,127,26
1,64,127,135
1,64,127,82
1,64,115,70
1,64,104,81
1,72,104,103
1,74,115,32
1,72,127,23
1,69,127,15
1,67,127,13
1,64,115,25
1,64,127,95
1,65,127,83
1,67,127,9
1,65,115,26
1,64,104,190
1,62,104,63
1,60,127,7
1,60,127,111
1,55,127,16
1,55,115,66
1,63,127,38
1,63,115,109
1,65,127,110
1,60,115,105
1,60,127,72
1,60,127,153
1,63,115,19
1,60,127,34
1,60,94,520
1,58,94,82
1,63,127,109
1,60,127,136
1,60,127,70
1,63,115,208
1,63,41,18
1,63,127,99
1,65,115,130
1,60,115,102
1,60,127,73
1,58,104,179
1,60,127,192
1,58,115,881
1,63,127,124
1,60,127,100
1,60,127,172
1,63,127,3
1,63,44,16
1,63,127,116
1,65,127,135
1,60,104,114
1,60,127,72
1,63,63,108
1,60,115,33
1,63,104,13
1,60,127,19
1,60,79,275
1,58,115,78
1,63,115,105
1,60,127,159
1,60,127,78
1,63,127,0
1,63,47,16
1,63,115,120
1,65,115,142
1,60,115,116
1,60,127,71
1,63,104,956
1,65,127,130
1,60,115,82
1,60,127,66
1,60,127,167
1,63,127,104
1,65,127,98
1,67,115,47
1,65,68,9
1,67,115,179
1,68,115,82
1,67,115,21
1,55,127,11168
1,62,115,15
1,64,127,36
1,62,127,25
1,64,115,62
1,62,127,18
1,64,127,130
1,64,127,62
1,64,127,90
1,64,127,60
1,67,127,78
1,69,115,0
1,55,127,170
1,55,104,77
1,64,127,38
1,64,127,64
1,67,127,90
1,65,115,374
1,64,115,0
1,62,104,80
1,60,127,21
1,62,94,6
1,60,127,76
1,55,127,192
1,55,127,54
1,62,127,7
1,64,115,36
1,62,127,13
1,55,115,3
1,60,127,185
1,62,104,56
1,60,127,17
1,64,127,124
1,64,115,61
1,64,127,56
1,64,115,62
1,74,127,87
1,72,104,0
1,72,127,37
1,69,115,6
1,74,115,30
1,72,115,87
1,69,115,9
1,69,127,81
1,67,127,18
1,64,127,40
1,64,127,69
1,67,127,70
1,65,115,21
1,64,115,191
1,62,104,0
1,60,127,10
1,60,127,79
1,55,127,19
1,55,127,66
1,63,115,37
1,63,127,87
1,65,127,112
1,60,127,100
1,60,127,72
1,60,115,186
1,63,115,9
1,60,127,34
1,58,127,421
1,63,115,53
1,60,127,122
1,60,127,80
1,63,115,17
1,63,115,127
1,63,44,17
1,65,115,105
1,60,127,105
1,60,127,70
1,58,127,178
1,60,115,5
1,58,104,905
1,63,127,120
1,60,127,89
1,58,104,36
1,60,127,166
1,63,127,210
1,63,44,15
1,63,127,108
1,65,115,126
1,60,115,115
1,60,127,75
1,58,104,87
1,60,127,38
1,63,115,66
1,60,115,43
1,60,51,171
1,58,115,106
1,63,127,107
1,60,127,157
1,60,115,84
1,63,104,4
1,63,115,142
1,65,115,115
1,60,127,116
1,60,127,75
1,67,127,904
1,65,127,109
1,63,127,100
1,67,127,55
1,65,127,89
1,63,115,124
1,65,127,70
1,67,127,8
1,67,127,199
1,68,115,0
1,67,127,47
1,67,127,4748
1,65,127,30
1,63,115,40
1,65,115,71
1,67,115,28
1,65,115,43
1,67,115,22
1,65,104,41
1,67,115,6
1,65,86,42
1,67,115,8
1,67,127,59
1,65,94,0
1,67,127,60
1,65,63,29
1,67,86,73
1,65,94,65
1,63,115,61
1,63,127,97
1,60,104,308
1,58,104,16
1,58,115,130
1,58,104,107
1,63,127,124
1,60,127,21
1,58,115,86
1,60,104,23
1,62,79,13
1,53,127,76
1,53,127,101
1,51,115,13
1,67,127,1134
1,67,127,136
1,68,51,128
1,70,127,77
1,68,127,18
1,67,127,42
1,67,104,75
1,68,115,85
1,70,115,51
1,68,115,69
1,67,115,11
1,65,115,63
1,65,115,199
1,63,115,88
1,63,127,126
1,60,115,282
1,63,127,26
1,60,115,101
1,63,127,18
1,53,127,27
1,55,127,29
1,58,104,76
1,55,104,17
1,58,127,30
1,60,127,25786
1,70,127,20
1,68,115,65
1,65,115,105
1,67,115,25
1,65,115,5
1,60,115,618
1,70,127,40
1,68,115,33
1,67,127,99
1,65,127,132
1,65,86,77
1,63,104,0
1,63,115,135
1,65,115,100
1,64,68,0
1,65,104,83
1,63,104,0
1,60,127,128
1,60,127,110
1,58,94,60
1,63,104,41
1,60,127,130
1,60,127,1153
1,70,115,13
1,70,104,53
1,68,115,142
1,68,104,20
1,65,104,92
1,67,104,34
1,65,127,19
1,65,104,107
1,72,115,58
1,72,104,42
1,67,115,48
1,67,63,3
1,70,127,21
1,67,115,140
1,67,94,162
1,65,86,0
1,65,115,114
1,63,115,155
1,63,104,102
1,55,104,161
1,53,127,39
1,55,73,147
1,53,115,0
1,51,115,179
1,70,127,1317
1,70,127,135
1,70,115,59
1,70,127,175
1,68,115,192
1,67,127,128
1,65,127,85
1,63,115,113
1,62,104,144
1,62,127,47
1,63,127,103
1,65,127,66
1,60,127,103
1,60,127,133
1,63,115,89
1,65,104,65
1,67,115,47
1,65,127,91
1,68,104,973
1,65,51,0
1,70,127,96
1,70,127,125
1,70,127,71
1,70,127,165
1,68,127,192
1,67,127,149
1,65,115,163
1,67,104,0
1,65,127,100
1,63,104,4
1,63,115,125
1,62,115,96
1,62,127,127
1,63,115,122
1,65,115,84
1,60,127,118
1,60,127,96
1,60,127,113
1,58,115,66
1,60,94,33
1,55,59,87
1,63,115,14
1,58,94,96
1,60,104,43
2,63,104,0
2,60,115,0
2,67,104,0
2,60,104,112
2,63,104,0
2,67,104,0
2,63,115,134
2,60,104,0
2,67,104,0
2,67,94,139
2,60,104,0
2,63,115,0
2,60,115,50
2,63,115,0
2,67,104,0
2,58,115,577
2,63,104,679
2,67,115,0
2,60,104,0
2,60,94,138
2,63,104,0
2,67,104,0
2,67,104,138
2,60,94,0
2,63,104,0
2,67,94,136
2,60,94,0
2,63,104,0
2,60,115,61
2,63,115,0
2,67,115,0
2,58,115,592
2,63,115,721
2,60,127,0
2,67,94,0
2,63,104,139
2,67,86,0
2,60,94,0
2,60,115,136
2,63,104,0
2,67,104,0
2,63,104,136
2,60,104,0
2,67,94,0
2,63,104,57
2,67,115,0
2,60,115,0
2,58,115,522
2,60,115,432
2,63,115,0
2,67,104,0
2,60,104,142
2,67,104,0
2,63,115,0
2,60,115,139
2,63,104,0
2,67,115,0
2,60,104,140
2,63,104,0
2,67,104,0
2,60,115,61
2,63,115,0
2,67,94,0
2,63,127,217
2,65,127,121
2,60,86,129
2,60,127,73
2,63,127,951
2,65,127,114
2,60,127,125
2,60,127,54
2,63,104,24587
2,60,115,0
2,67,104,0
2,60,104,112
2,63,104,0
2,67,104,0
2,63,115,134
2,60,104,0
2,67,104,0
2,67,94,139
2,60,104,0
2,63,115,0
2,60,115,50
2,63,115,0
2,67,104,0
2,58,115,577
2,63,104,679
2,67,115,0
2,60,104,0
2,60,94,138
2,63,104,0
2,67,104,0
2,67,104,138
2,60,94,0
2,63,104,0
2,67,94,136
2,60,94,0
2,63,104,0
2,60,115,61
2,63,115,0
2,67,115,0
2,58,115,592
2,63,115,721
2,60,127,0
2,67,94,0
2,63,104,139
2,67,86,0
2,60,94,0
2,60,115,136
2,63,104,0
2,67,104,0
2,63,104,136
2,60,104,0
2,67,94,0
2,63,104,57
2,67,115,0
2,60,115,0
2,58,115,522
2,60,115,432
2,63,115,0
2,67,104,0
2,60,104,142
2,67,104,0
2,63,115,0
2,60,115,139
2,63,104,0
2,67,115,0
2,60,104,140
2,63,104,0
2,67,104,0
2,60,115,61
2,63,115,0
2,67,94,0
2,63,127,217
2,65,127,121
2,60,86,129
2,60,127,73
2,63,127,951
2,65,127,114
2,60,127,125
2,60,127,54
2,63,104,24587
2,60,115,0
2,67,104,0
2,60,104,112
2,63,104,0
2,67,104,0
2,63,115,134
2,60,104,0
2,67,104,0
2,67,94,139
2,60,104,0
2,63,115,0
2,60,115,50
2,63,115,0
2,67,104,0
2,58,115,577
2,63,104,679
2,67,115,0
2,60,104,0
2,60,94,138
2,63,104,0
2,67,104,0
2,67,104,138
2,60,94,0
2,63,104,0
2,67,94,136
2,60,94,0
2,63,104,0
2,60,115,61
2,63,115,0
2,67,115,0
2,58,115,592
2,63,115,721
2,60,127,0
2,67,94,0
2,63,104,139
2,67,86,0
2,60,94,0
2,60,115,136
2,63,104,0
2,67,104,0
2,63,104,136
2,60,104,0
2,67,94,0
2,63,104,57
2,67,115,0
2,60,115,0
2,58,115,522
2,60,115,432
2,63,115,0
2,67,104,0
2,60,104,142
2,67,104,0
2,63,115,0
2,60,115,139
2,63,104,0
2,67,115,0
2,60,104,140
2,63,104,0
2,67,104,0
2,60,115,61
2,63,115,0
2,67,94,0
2,63,127,217
2,65,127,121
2,60,86,129
2,60,127,73
2,63,127,951
2,65,127,114
2,60,127,125
2,60,127,54
2,63,68,6155
2,67,79,0
2,60,94,0
2,60,115,130
2,67,94,0
2,63,104,0
2,60,115,145
2,67,104,0
2,63,104,0
2,60,104,134
2,67,94,0
2,63,104,0
2,60,115,52
2,63,115,0
2,67,86,0
2,55,32,1442
2,58,115,49
2,63,127,146
2,66,68,129
2,60,127,0
2,65,94,8
2,58,115,0
2,62,104,0
2,60,104,11
2,67,94,0
2,63,94,0
2,63,104,129
2,60,104,0
2,67,104,0
2,60,127,149
2,63,115,0
2,67,104,0
2,63,115,134
2,67,104,0
2,60,115,0
2,60,115,50
2,63,104,0
2,67,94,0
2,62,104,20542
2,58,115,0
2,65,104,0
2,63,63,20
2,67,86,0
2,60,73,0
2,67,94,138
2,63,104,0
2,60,115,0
2,60,127,146
2,67,115,0
2,63,127,0
2,63,104,138
2,67,94,0
2,60,104,0
2,60,127,51
2,63,104,0
2,67,104,0
2,58,115,190
2,58,94,195
2,60,94,192
2,58,104,166
2,60,86,192
2,58,104,168
2,60,86,192
2,58,104,167
2,60,94,192
2,67,86,347
2,63,68,0
2,60,86,0
2,63,104,141
2,60,104,0
2,67,86,0
2,63,115,138
2,67,104,0
2,60,127,0
2,67,86,125
2,63,104,0
2,60,115,0
2,67,104,44
2,63,104,0
2,60,127,0
2,58,115,1362
2,63,115,123
2,60,127,125
2,62,104,288
2,58,104,0
2,65,86,0
2,63,68,6
2,67,79,0
2,60,94,0
2,60,115,130
2,67,94,0
2,63,104,0
2,60,115,145
2,67,104,0
2,63,104,0
2,60,104,134
2,67,94,0
2,63,104,0
2,60,115,52
2,63,115,0
2,67,86,0
2,58,94,194
2,58,104,194
2,60,68,19
2,58,115,167
2,58,104,195
2,60,94,192
2,58,104,161
2,60,115,192
2,60,104,359
2,67,94,0
2,63,94,0
2,63,104,129
2,60,104,0
2,67,104,0
2,60,127,149
2,63,115,0
2,67,104,0
2,63,115,134
2,67,104,0
2,60,115,0
2,60,115,50
2,63,104,0
2,67,94,0
2,58,104,1342
2,63,127,125
2,60,127,116
2,62,104,279
2,58,115,0
2,65,104,0
2,63,63,20
2,67,86,0
2,60,73,0
2,67,94,138
2,63,104,0
2,60,115,0
2,60,127,146
2,67,115,0
2,63,127,0
2,63,104,138
2,67,94,0
2,60,104,0
2,60,127,51
2,63,104,0
2,67,104,0
2,58,104,190
2,58,104,190
2,58,104,184
2,60,86,192
2,58,104,166
2,60,79,192
2,58,104,168
2,60,94,192
2,67,86,359
2,63,68,0
2,60,86,0
2,63,104,141
2,60,104,0
2,67,86,0
2,63,115,138
2,67,104,0
2,60,127,0
2,67,86,125
2,63,104,0
2,60,115,0
2,67,104,44
2,63,104,0
2,60,127,0
2,58,115,1362
2,63,115,123
2,60,127,125
2,62,104,288
2,58,104,0
2,65,86,0
2,63,68,6
2,67,79,0
2,60,94,0
2,60,115,130
2,67,94,0
2,63,104,0
2,60,115,145
2,67,104,0
2,63,104,0
2,60,104,134
2,67,94,0
2,63,104,0
2,60,115,52
2,63,115,0
2,67,86,0
2,58,115,194
2,58,115,201
2,58,115,186
2,60,86,4
2,58,104,174
2,58,104,179
2,60,86,192
2,60,104,359
2,67,94,0
2,63,94,0
2,63,104,129
2,60,104,0
2,67,104,0
2,60,127,149
2,63,115,0
2,67,104,0
2,63,115,134
2,67,104,0
2,60,115,0
