track,note,velocity,time
0,36,125,1244
0,49,100,0
0,74,76,0
0,49,0,4
0,36,0,0
0,74,0,16
0,76,74,28
0,76,0,20
0,55,99,28
0,79,60,0
0,79,0,20
0,55,0,19
0,74,68,9
0,74,0,17
0,76,67,31
0,76,0,20
0,55,97,28
0,79,75,0
0,79,0,20
0,55,0,19
0,74,69,9
0,74,0,20
0,79,76,28
0,79,0,20
0,55,97,28
0,55,0,40
0,74,73,8
0,74,0,20
0,78,74,28
0,78,0,20
0,55,97,28
0,74,79,0
0,74,0,20
0,55,0,26
0,76,75,2
0,76,0,20
0,74,78,28
0,74,0,20
0,55,101,28
0,78,86,0
0,78,0,20
0,74,74,28
0,55,0,4
0,74,0,16
0,74,76,28
0,74,0,20
0,76,74,28
0,76,0,20
0,54,97,28
0,78,60,0
0,78,0,20
0,54,0,26
0,74,68,2
0,74,0,17
0,76,67,31
0,76,0,20
0,54,100,28
0,78,75,0
0,78,0,20
0,54,0,18
0,74,69,10
0,74,0,20
0,79,76,28
0,79,0,20
0,55,105,28
0,74,73,48
0,55,0,3
0,74,0,17
0,79,74,28
0,79,0,20
0,55,99,28
0,74,79,0
0,74,0,20
0,81,75,28
0,55,0,4
0,81,0,16
0,74,78,28
0,74,0,20
0,36,112,28
0,49,92,0
0,55,101,0
0,79,86,0
0,49,0,4
0,36,0,0
0,79,0,16
0,55,0,26
0,74,74,2
0,74,0,20
0,36,127,28
0,49,96,0
0,74,76,0
0,49,0,4
0,36,0,0
0,74,0,16
0,76,74,28
0,76,0,20
0,55,102,28
0,79,60,0
0,79,0,20
0,55,0,18
0,74,68,10
0,74,0,17
0,76,67,31
0,76,0,20
0,55,99,28
0,79,75,0
0,79,0,20
0,55,0,20
0,74,69,8
0,74,0,20
0,79,76,28
0,79,0,20
0,55,99,28
0,55,0,40
0,74,73,8
0,74,0,20
0,78,74,28
0,78,0,20
0,55,101,28
0,74,79,0
0,74,0,20
0,55,0,26
0,76,75,2
0,76,0,20
0,74,78,28
0,74,0,20
0,55,101,28
0,78,86,0
0,78,0,20
0,55,0,26
0,74,74,2
0,74,0,20
0,74,76,28
0,76,104,8
0,74,0,12
0,76,74,28
0,76,0,20
0,54,89,28
0,78,60,0
0,78,0,20
0,54,0,26
0,74,68,2
0,74,0,17
0,76,67,31
0,76,0,13
0,74,101,1
0,76,0,6
0,54,100,28
0,78,75,0
0,78,0,20
0,54,0,20
0,74,69,8
0,74,0,2
0,76,114,8
0,74,0,10
0,79,81,28
0,79,0,20
0,55,94,28
0,76,0,6
0,71,105,1
0,74,73,41
0,55,0,4
0,74,0,16
0,79,74,28
0,79,0,20
0,55,99,28
0,74,79,0
0,74,0,20
0,55,0,26
0,81,75,2
0,71,0,12
0,69,104,1
0,81,0,7
0,74,78,28
0,74,0,20
0,55,99,28
0,79,86,0
0,69,0,7
0,67,101,1
0,79,0,12
0,74,74,28
0,55,0,3
0,74,0,17
0,36,125,28
0,42,100,0
0,49,100,0
0,74,76,0
0,47,94,0
0,59,99,0
0,62,99,0
0,67,103,0
0,67,0,1
0,49,0,3
0,36,0,0
0,42,0,0
0,74,0,16
0,76,74,28
0,76,0,20
0,46,100,28
0,55,99,0
0,79,60,0
0,46,0,4
0,79,0,16
0,55,0,19
0,74,68,9
0,74,0,17
0,42,96,31
0,76,67,0
0,42,0,4
0,76,0,16
0,55,97,28
0,79,75,0
0,79,0,20
0,55,0,19
0,46,100,9
0,74,69,0
0,46,0,4
0,74,0,16
0,79,76,28
0,62,0,6
0,59,0,0
0,67,0,12
0,79,0,2
0,47,0,22
0,42,96,6
0,55,97,0
0,48,90,0
0,60,99,0
0,64,94,0
0,67,93,0
0,42,0,4
0,55,0,36
0,74,73,8
0,74,0,20
0,46,100,28
0,78,74,0
0,46,0,4
0,78,0,16
0,55,97,28
0,74,79,0
0,74,0,20
0,55,0,26
0,42,100,2
0,76,75,0
0,42,0,4
0,76,0,16
0,74,78,28
0,74,0,20
0,46,104,28
0,55,101,0
0,78,86,0
0,46,0,4
0,78,0,16
0,74,74,28
0,55,0,4
0,74,0,16
0,60,0,8
0,64,0,14
0,67,0,0
0,42,100,6
0,74,76,0
0,50,99,0
0,42,0,4
0,48,0,1
0,74,0,15
0,76,74,28
0,76,0,20
0,46,96,28
0,54,97,0
0,78,60,0
0,62,98,0
0,66,103,0
0,69,101,0
0,46,0,4
0,78,0,16
0,54,0,26
0,74,68,2
0,74,0,17
0,42,96,31
0,76,67,0
0,42,0,4
0,76,0,16
0,54,100,28
0,78,75,0
0,78,0,20
0,54,0,18
0,46,100,10
0,74,69,0
0,46,0,4
0,74,0,16
0,79,76,28
0,69,0,16
0,66,0,3
0,79,0,1
0,62,0,4
0,50,0,20
0,42,96,4
0,55,105,0
0,52,99,0
0,59,99,0
0,64,97,0
0,67,90,0
0,42,0,4
0,74,73,44
0,55,0,3
0,74,0,17
0,46,100,28
0,79,74,0
0,46,0,4
0,79,0,16
0,55,99,28
0,74,79,0
0,74,0,20
0,42,96,28
0,81,75,0
0,42,0,4
0,55,0,0
0,81,0,16
0,74,78,28
0,74,0,20
0,46,96,28
0,55,101,0
0,79,86,0
0,46,0,4
0,79,0,16
0,55,0,26
0,74,74,2
0,74,0,20
0,59,0,3
0,67,0,0
0,64,0,6
0,40,33,19
0,42,92,0
0,74,76,0
0,48,94,0
0,55,94,0
0,60,101,0
0,64,103,0
0,52,0,1
0,40,0,3
0,42,0,0
0,71,102,7
0,74,0,9
0,40,35,28
0,76,74,0
0,40,0,4
0,76,0,16
0,40,37,28
0,46,92,0
0,55,102,0
0,79,60,0
0,46,0,4
0,40,0,0
0,79,0,16
0,55,0,18
0,40,39,10
0,74,68,0
0,40,0,4
0,74,0,13
0,40,42,31
0,42,92,0
0,76,67,0
0,42,0,4
0,40,0,0
0,76,0,16
0,40,45,28
0,55,99,0
0,79,75,0
0,40,0,4
0,79,0,16
0,55,0,20
0,40,48,8
0,46,92,0
0,74,69,0
0,46,0,4
0,40,0,0
0,71,0,11
0,69,104,1
0,74,0,4
0,40,51,28
0,79,76,0
0,40,0,4
0,48,0,13
0,55,0,0
0,60,0,1
0,64,0,0
0,79,0,2
0,40,54,28
0,42,96,0
0,55,99,0
0,47,104,0
0,55,104,0
0,59,105,0
0,62,96,0
0,42,0,4
0,40,0,0
0,55,0,36
0,40,57,8
0,74,73,0
0,40,0,4
0,74,0,16
0,40,60,28
0,46,96,0
0,78,74,0
0,46,0,4
0,40,0,0
0,78,0,16
0,40,63,28
0,55,101,0
0,74,79,0
0,40,0,4
0,74,0,16
0,55,0,26
0,40,66,2
0,42,92,0
0,76,75,0
0,69,0,3
0,42,0,1
0,40,0,0
0,67,109,0
0,76,0,16
0,40,69,28
0,74,78,0
0,40,0,4
0,74,0,16
0,40,72,28
0,46,92,0
0,55,101,0
0,78,86,0
0,46,0,4
0,40,0,0
0,78,0,16
0,55,0,26
0,40,75,2
0,74,74,0
0,40,0,4
0,59,0,0
0,55,0,13
0,47,0,0
0,74,0,3
0,62,0,10
0,40,78,18
0,42,92,0
0,74,76,0
0,48,101,0
0,55,101,0
0,60,103,0
0,64,110,0
0,42,0,4
0,40,0,0
0,74,0,16
0,67,0,6
0,40,81,22
0,76,74,0
0,40,0,4
0,76,0,16
0,40,84,28
0,46,89,0
0,55,89,0
0,79,60,0
0,46,0,4
0,40,0,0
0,79,0,16
0,55,0,26
0,40,87,2
0,74,68,0
0,40,0,4
0,74,0,13
0,40,90,31
0,42,96,0
0,76,67,0
0,42,0,4
0,40,0,0
0,76,0,16
0,40,93,28
0,55,100,0
0,79,75,0
0,40,0,4
0,79,0,16
0,55,0,20
0,40,96,8
0,46,89,0
0,74,69,0
0,46,0,4
0,40,0,0
0,74,0,16
0,60,0,15
0,40,99,13
0,79,81,0
0,40,0,4
0,64,0,2
0,79,0,14
0,48,0,16
0,55,0,0
0,40,102,12
0,42,92,0
0,57,94,0
0,50,103,0
0,57,103,0
0,62,103,0
0,66,109,0
0,42,0,4
0,40,0,0
0,40,105,44
0,74,73,0
0,40,0,4
0,57,0,0
0,74,0,16
0,40,108,28
0,46,86,0
0,79,74,0
0,46,0,4
0,40,0,0
0,79,0,16
0,40,111,28
0,57,99,0
0,74,79,0
0,40,0,4
0,74,0,16
0,57,0,26
0,40,114,2
0,42,92,0
0,81,75,0
0,42,0,4
0,40,0,0
0,66,107,0
0,81,0,16
0,40,117,28
0,74,78,0
0,40,0,4
0,74,0,16
0,66,0,5
0,40,122,23
0,46,92,0
0,57,99,0
0,79,86,0
0,46,0,4
0,40,0,0
0,66,100,2
0,79,0,14
0,50,0,22
0,57,0,0
0,40,123,6
0,74,74,0
0,57,0,3
0,40,0,1
0,74,0,16
0,66,0,3
0,62,0,12
0,36,108,13
0,48,108,0
0,36,120,0
0,42,89,0
0,42,0,4
0,36,0,0
0,66,0,3
0,67,106,1
0,48,0,35
0,36,0,0
0,67,0,24
0,67,105,27
0,36,101,2
0,48,101,0
0,46,104,0
0,46,0,4
0,48,0,38
0,36,0,0
0,67,0,15
0,36,104,39
0,48,104,0
0,36,120,0
0,39,100,0
0,40,113,0
0,42,92,0
0,42,0,4
0,39,0,0
0,36,0,0
0,40,0,0
0,67,105,3
0,36,0,33
0,48,0,0
0,36,111,8
0,48,111,0
0,48,0,31
0,36,0,0
0,67,0,10
0,46,104,7
0,46,0,4
0,67,102,0
0,36,106,44
0,48,106,0
0,48,0,36
0,36,0,0
0,35,101,12
0,47,101,0
0,36,122,0
0,42,92,0
0,67,0,2
0,36,0,2
0,42,0,0
0,47,0,42
0,35,0,0
0,35,112,50
0,47,112,0
0,46,100,0
0,46,0,4
0,67,101,3
0,47,0,32
0,35,0,0
0,35,95,57
0,47,95,0
0,36,118,0
0,39,104,0
0,40,113,0
0,42,96,0
0,42,0,4
0,39,0,0
0,36,0,0
0,40,0,0
0,67,0,1
0,47,0,35
0,35,0,0
0,35,108,8
0,47,108,0
0,47,0,32
0,35,0,0
0,46,100,16
0,67,108,2
0,46,0,2
0,35,99,44
0,47,99,0
0,47,0,37
0,35,0,0
0,67,0,11
0,38,111,0
0,50,111,0
0,36,122,0
0,42,100,0
0,42,0,4
0,36,0,0
0,66,103,0
0,50,0,44
0,38,0,0
0,38,108,48
0,50,108,0
0,46,100,0
0,66,0,3
0,46,0,1
0,67,104,0
0,50,0,36
0,38,0,0
0,67,0,10
0,38,107,46
0,50,107,0
0,36,122,0
0,39,104,0
0,40,110,0
0,42,100,0
0,42,0,4
0,39,0,0
0,36,0,0
0,40,0,0
0,67,109,2
0,38,0,34
0,50,0,0
0,38,107,8
0,50,107,0
0,50,0,30
0,38,0,0
0,46,96,18
0,46,0,4
0,67,0,18
0,38,106,26
0,50,106,0
0,50,0,41
0,38,0,0
0,31,109,7
0,43,109,0
0,67,110,0
0,36,122,0
0,42,100,0
0,42,0,4
0,36,0,0
0,31,0,42
0,43,0,0
0,31,104,50
0,43,104,0
0,46,100,0
0,46,0,4
0,67,0,2
0,43,0,42
0,31,0,0
0,31,108,48
0,43,108,0
0,36,122,0
0,39,104,0
0,40,107,0
0,42,96,0
0,42,0,4
0,39,0,0
0,36,0,0
0,40,0,0
0,31,0,36
0,43,0,0
0,31,106,8
0,43,106,0
0,43,0,34
0,31,0,0
0,67,101,12
0,46,96,2
0,46,0,4
0,31,104,44
0,43,104,0
0,67,0,14
0,43,0,28
0,31,0,0
0,38,108,6
0,50,108,0
0,36,122,0
0,42,100,0
0,42,0,4
0,36,0,0
0,71,102,3
0,50,0,36
0,38,0,0
0,71,0,23
0,38,101,30
0,50,101,0
0,46,100,0
0,46,0,4
0,74,108,2
0,50,0,36
0,38,0,0
0,74,0,22
0,38,104,32
0,50,104,0
0,36,115,0
0,39,100,0
0,40,113,0
0,42,96,0
0,74,101,3
0,42,0,1
0,39,0,0
0,36,0,0
0,40,0,0
0,38,0,36
0,50,0,0
0,38,111,8
0,50,111,0
0,74,0,7
0,50,0,24
0,38,0,0
0,46,100,17
0,46,0,4
0,74,101,0
0,38,106,44
0,50,106,0
0,74,0,33
0,50,0,3
0,38,0,0
0,36,101,12
0,48,101,0
0,36,119,0
0,42,96,0
0,42,0,4
0,36,0,0
0,48,0,42
0,36,0,0
0,72,101,47
0,36,112,3
0,48,112,0
0,46,100,0
0,46,0,4
0,48,0,35
0,36,0,0
0,72,0,29
0,36,95,28
0,48,95,0
0,36,118,0
0,39,104,0
0,40,104,0
0,42,96,0
0,42,0,4
0,39,0,0
0,36,0,0
0,40,0,0
0,36,0,36
0,48,0,0
0,36,108,8
0,48,108,0
0,48,0,32
0,36,0,0
0,46,100,16
0,46,0,4
0,71,98,0
0,36,99,44
0,48,99,0
0,71,0,18
0,48,0,19
0,36,0,0
0,38,111,11
0,50,111,0
0,36,118,0
0,42,100,0
0,42,0,4
0,36,0,0
0,69,105,1
0,50,0,43
0,38,0,0
0,69,0,22
0,38,108,26
0,50,108,0
0,46,96,0
0,46,0,4
0,50,0,36
0,38,0,0
0,38,107,56
0,50,107,0
0,72,107,0
0,36,122,0
0,39,104,0
0,40,101,0
0,42,96,0
0,42,0,4
0,39,0,0
0,36,0,0
0,40,0,0
0,38,0,36
0,50,0,0
0,38,107,8
0,50,107,0
0,50,0,30
0,38,0,0
0,72,0,10
0,46,96,8
0,46,0,4
0,38,106,44
0,50,106,0
0,50,0,41
0,38,0,0
0,43,109,7
0,55,109,0
0,36,118,0
0,42,92,0
0,42,0,4
0,36,0,0
0,71,107,3
0,55,0,39
0,43,0,0
0,71,0,37
0,43,104,13
0,55,104,0
0,46,100,0
0,46,0,4
0,55,0,44
0,43,0,0
0,43,108,48
0,55,108,0
0,36,122,0
0,39,104,0
0,40,101,0
0,42,96,0
0,42,0,4
0,39,0,0
0,36,0,0
0,40,0,0
0,43,0,36
0,55,0,0
0,43,106,8
0,55,106,0
0,55,0,34
0,43,0,0
0,46,100,14
0,46,0,4
0,43,104,44
0,55,104,0
0,55,0,42
0,43,0,0
0,35,108,6
0,47,108,0
0,36,122,0
0,42,96,0
0,42,0,4
0,36,0,0
0,74,102,1
0,47,0,38
0,35,0,0
0,74,0,52
0,35,101,1
0,47,101,0
0,76,105,0
0,46,100,0
0,46,0,4
0,35,0,38
0,47,0,0
0,76,0,49
0,78,107,1
0,35,104,4
0,47,104,0
0,36,124,0
0,39,104,0
0,40,101,0
0,42,92,0
0,42,0,4
0,39,0,0
0,36,0,0
0,40,0,0
0,35,0,36
0,47,0,0
0,35,111,8
0,47,111,0
0,47,0,31
0,35,0,0
0,78,0,12
0,79,112,1
0,46,100,4
0,46,0,4
0,35,106,44
0,47,106,0
0,47,0,36
0,35,0,0
0,36,101,12
0,48,101,0
0,36,124,0
0,42,92,0
0,42,0,4
0,36,0,0
0,48,0,42
0,36,0,0
0,36,112,50
0,48,112,0
0,46,104,0
0,46,0,4
0,79,0,1
0,78,105,1
0,48,0,33
0,36,0,0
0,36,95,57
0,48,95,0
0,36,122,0
0,39,104,0
0,40,99,0
0,42,92,0
0,42,0,4
0,39,0,0
0,36,0,0
0,40,0,0
0,78,0,3
0,76,103,1
0,48,0,32
0,36,0,0
0,36,108,8
0,48,108,0
0,48,0,32
0,36,0,0
0,46,100,16
0,46,0,4
0,36,99,44
0,48,99,0
0,48,0,37
0,36,0,0
0,76,0,6
0,38,111,5
0,50,111,0
0,36,121,0
0,42,96,0
0,42,0,4
0,36,0,0
0,74,103,3
0,50,0,41
0,38,0,0
0,74,0,45
0,76,102,1
0,38,108,2
0,50,108,0
0,46,100,0
0,46,0,4
0,50,0,36
0,38,0,0
0,76,0,53
0,74,102,1
0,38,107,2
0,50,107,0
0,36,122,0
0,39,104,0
0,40,104,0
0,42,92,0
0,42,0,4
0,39,0,0
0,36,0,0
0,40,0,0
0,38,0,36
0,50,0,0
0,38,107,8
0,50,107,0
0,50,0,30
0,38,0,0
0,46,100,18
0,46,0,4
0,38,106,44
