track,note,velocity,time
1,33,113,1536
1,38,113,2920
1,40,113,82
1,33,113,232
1,40,113,2392
1,33,99,70
1,40,99,60
1,38,113,80
1,34,127,80
1,34,127,68
1,36,88,1014
1,36,99,160
1,31,88,130
1,36,88,24
1,36,88,148
1,36,99,112
1,31,99,42
1,32,113,32
1,32,113,192
1,44,99,6
1,32,127,30
1,32,99,94
1,34,113,60
1,34,113,138
1,34,113,176
1,34,127,142
1,36,99,84
1,36,80,142
1,31,99,126
1,36,88,32
1,36,80,148
1,36,80,114
1,32,127,72
1,32,127,112
1,32,99,136
1,34,88,58
1,34,99,148
1,34,113,154
1,34,113,162
1,38,80,46
1,38,69,122
1,38,71,114
1,38,80,110
1,33,99,88
1,40,88,118
1,28,113,12
1,40,99,28
1,32,113,126
1,32,127,152
1,32,113,104
1,31,88,48
1,31,99,104
1,31,113,110
1,31,80,80
1,33,88,64
1,33,113,152
1,40,99,572
1,40,88,64
1,33,113,30
1,33,113,602
1,40,99,32
1,33,127,4
1,40,99,40
1,33,113,192
1,38,99,60
1,38,99,106
1,31,113,216
1,31,99,146
1,31,113,112
1,31,113,106
1,33,127,24
1,33,99,112
1,33,113,410
1,40,99,38
1,28,113,192
1,40,99,18
1,33,99,24
1,33,113,514
1,33,99,120
1,33,113,104
1,38,88,134
1,38,88,104
1,34,113,122
1,34,113,136
1,34,113,118
1,34,113,112
1,34,127,122
1,34,127,184
1,34,127,188
1,33,113,64
1,45,99,146
1,31,127,116
1,36,88,144
1,36,99,160
1,31,88,130
1,36,88,24
1,36,88,148
1,36,99,112
1,31,99,42
1,32,113,32
1,32,113,192
1,44,99,6
1,32,127,30
1,32,99,94
1,34,113,60
1,34,113,138
1,34,113,176
1,34,127,142
1,36,99,84
1,36,80,142
1,31,99,126
1,36,88,32
1,36,80,148
1,36,80,114
1,32,127,72
1,32,127,112
1,32,99,136
1,34,88,58
1,34,99,148
1,34,113,154
1,34,113,162
1,38,80,46
1,38,69,122
1,38,71,114
1,38,80,110
1,33,99,88
1,40,88,118
1,28,113,12
1,40,99,28
1,32,113,126
1,32,127,152
1,32,113,104
1,31,88,48
1,31,99,104
1,31,113,110
1,31,80,80
1,33,88,64
1,33,113,152
1,40,99,572
1,40,88,64
1,33,113,30
1,33,113,602
1,40,99,32
1,33,127,4
1,40,99,40
1,33,113,192
1,38,99,60
1,38,99,106
1,31,113,216
1,31,99,146
1,31,113,112
1,31,113,106
1,33,127,24
1,33,99,112
1,33,113,410
1,40,99,38
1,28,113,192
1,40,99,18
1,33,99,24
1,33,113,514
1,33,99,120
1,33,113,104
1,38,88,134
1,38,88,104
1,34,113,122
1,34,113,136
1,34,113,118
1,34,113,112
1,34,127,122
1,34,127,184
1,34,127,188
1,33,113,64
1,45,113,2288
1,45,113,222
1,33,113,48
1,33,113,2128
1,33,99,200
1,32,127,96
1,44,127,10
1,32,113,18
1,32,127,96
1,32,113,616
1,31,113,430
1,43,88,14
1,31,113,64
1,38,127,158
1,38,113,152
1,38,99,120
1,33,113,80
1,38,99,24
1,38,113,156
1,38,113,194
1,33,99,124
1,38,99,34
1,38,88,112
1,38,88,108
1,33,113,54
1,38,88,32
1,38,88,200
1,38,99,182
1,38,99,150
1,31,113,68
1,31,99,156
1,31,88,106
1,43,88,48
1,31,99,28
1,31,99,126
1,31,99,158
1,43,99,32
1,31,113,30
1,43,99,34
1,43,99,176
1,31,113,12
1,31,80,122
1,28,113,28
1,28,99,92
1,28,99,84
1,28,88,102
1,28,99,94
1,28,99,108
1,33,113,100
1,31,99,4610
1,31,113,136
1,31,113,116
1,33,127,42
1,33,113,104
1,33,99,384
1,40,113,42
1,40,113,86
1,33,113,40
1,33,113,588
1,33,113,132
1,33,113,96
1,38,113,126
1,38,113,110
1,38,99,144
1,31,127,192
1,31,99,112
1,31,113,138
1,28,113,44
1,33,113,124
1,33,99,350
1,40,113,56
1,40,99,96
1,33,113,54
1,33,99,586
1,33,113,120
1,33,113,112
1,38,88,132
1,38,99,122
1,31,113,200
1,31,113,138
1,31,113,128
1,31,113,122
1,33,113,50
1,33,113,148
1,33,113,272
1,40,113,88
1,40,99,82
1,33,99,40
1,33,99,552
1,33,113,128
1,33,99,100
1,38,99,136
1,38,99,114
1,38,99,88
1,31,99,232
1,31,99,124
1,31,99,144
1,28,113,44
1,33,113,218
1,33,99,350
1,40,113,56
1,40,99,96
1,33,113,54
1,33,99,586
1,33,113,120
1,33,113,112
1,38,88,132
1,38,99,122
1,31,113,200
1,31,113,138
1,31,113,128
1,31,113,122
1,33,113,50
1,33,113,148
1,33,113,272
1,40,113,88
1,40,99,82
1,33,99,40
1,33,99,552
1,33,113,128
1,33,99,100
1,38,99,136
1,38,99,114
1,38,99,88
1,31,99,232
1,31,99,124
1,31,99,144
1,33,113,44
1,33,99,218
2,69,96,1536
2,64,96,0
2,72,96,0
2,33,96,0
2,72,96,0
2,69,96,0
2,64,96,0
2,72,96,0
2,64,96,0
2,69,96,0
2,71,96,0
2,62,96,0
2,67,96,0
2,67,96,0
2,62,96,0
2,71,96,0
2,71,96,0
2,62,96,0
2,67,96,0
2,71,96,0
2,62,96,0
2,67,96,0
2,71,96,0
2,62,96,0
2,67,96,0
2,72,96,0
2,64,96,0
2,69,96,0
2,72,96,0
2,64,96,0
2,69,96,0
2,72,96,0
2,64,96,0
2,69,96,0
2,71,96,0
2,62,96,0
2,67,96,0
2,71,96,0
2,67,96,0
2,62,96,0
2,71,96,0
2,62,96,0
2,67,96,0
2,71,96,0
2,62,96,0
2,67,96,0
2,71,96,0
2,62,96,0
2,67,96,0
2,67,96,0
2,60,96,0
2,64,96,0
2,38,96,0
2,69,96,70
2,65,96,0
2,60,96,0
2,69,96,138
2,60,96,0
2,65,96,0
2,67,96,0
2,71,96,0
2,62,96,0
2,40,96,0
2,72,96,0
2,69,96,0
2,64,96,0
2,33,96,0
2,72,96,0
2,64,96,0
2,69,96,0
2,72,96,0
2,69,96,0
2,64,96,0
2,72,96,0
2,64,96,0
2,69,96,0
2,62,96,0
2,67,96,0
2,71,96,0
2,62,96,0
2,71,96,0
2,67,96,0
2,71,96,0
2,62,96,0
2,67,96,0
2,71,96,0
2,62,96,0
2,67,96,0
2,71,96,0
2,62,96,0
2,67,96,0
2,72,96,0
2,64,96,0
2,69,96,0
2,72,96,0
2,64,96,0
2,69,96,0
2,72,96,0
2,64,96,0
2,69,96,0
2,71,96,0
2,67,96,0
2,62,96,0
2,71,96,0
2,67,96,0
2,62,96,0
2,40,96,0
2,71,96,0
2,62,96,0
2,67,96,0
2,33,96,0
2,71,96,0
2,62,96,0
2,67,96,0
2,40,96,0
2,71,96,0
2,62,96,0
2,67,96,0
2,38,96,0
2,60,96,126
2,67,96,0
2,64,96,0
2,60,96,96
2,69,96,0
2,65,96,0
2,68,96,0
2,63,96,0
2,60,96,0
2,34,96,0
2,63,96,110
2,68,96,0
2,60,96,0
2,63,96,138
2,68,96,0
2,60,96,0
2,68,96,150
2,63,96,0
2,60,96,0
2,68,96,92
2,63,96,0
2,60,96,0
2,68,96,136
2,63,96,0
2,60,96,0
2,63,96,144
2,68,96,0
2,60,96,0
2,68,96,120
2,63,96,0
2,60,96,0
2,68,96,140
2,63,96,0
2,60,96,0
2,68,96,0
2,63,96,0
2,60,96,0
2,34,96,0
2,60,96,0
2,65,96,0
2,36,96,0
2,67,96,0
2,48,96,0
2,60,96,80
2,65,96,0
2,67,96,0
2,65,96,102
2,67,96,0
2,60,96,0
2,67,96,0
2,64,96,0
2,36,96,0
2,60,96,0
2,48,96,0
2,67,96,86
2,64,96,0
2,60,96,0
2,64,96,98
2,67,96,0
2,60,96,0
2,67,96,108
2,64,96,0
2,60,96,0
2,67,96,0
2,64,96,0
2,60,96,0
2,67,96,0
2,65,96,0
2,48,96,0
2,60,96,0
2,36,96,0
2,65,96,104
2,67,96,0
2,60,96,0
2,65,96,112
2,67,96,0
2,60,96,0
2,67,96,0
2,64,96,0
2,48,96,0
2,60,96,0
2,36,96,0
2,67,96,92
2,64,96,0
2,60,96,0
2,67,96,94
2,64,96,0
2,60,96,0
2,67,96,104
2,64,96,0
2,60,96,0
2,67,96,0
2,64,96,0
2,60,96,0
2,56,96,0
2,63,96,0
2,44,96,0
2,60,96,0
2,32,96,0
2,63,96,84
2,56,96,0
2,60,96,0
2,63,96,118
2,56,96,0
2,60,96,0
2,63,96,0
2,56,96,0
2,44,96,0
2,60,96,0
2,32,96,0
2,63,96,96
2,56,96,0
2,60,96,0
2,63,96,100
2,56,96,0
2,60,96,0
2,63,96,126
2,56,96,0
2,60,96,0
2,63,96,102
2,56,96,0
2,60,96,0
2,65,96,0
2,58,96,0
2,46,96,0
2,62,96,0
2,34,96,0
2,62,96,96
2,65,96,0
2,58,96,0
2,65,96,114
2,58,96,0
2,62,96,0
2,62,96,0
2,65,96,0
2,46,96,0
2,58,96,0
2,34,96,0
2,65,96,108
2,58,96,0
2,62,96,0
2,65,96,104
2,58,96,0
2,62,96,0
2,65,96,108
2,58,96,0
2,62,96,0
2,65,96,0
2,58,96,0
2,62,96,0
2,67,96,0
2,65,96,0
2,48,96,0
2,60,96,0
2,36,96,0
2,67,96,98
2,65,96,0
2,60,96,0
2,67,96,112
2,65,96,0
2,60,96,0
2,64,96,0
2,67,96,0
2,36,96,0
2,60,96,0
2,48,96,0
2,67,96,102
2,64,96,0
2,60,96,0
2,67,96,106
2,60,96,0
2,64,96,0
2,67,96,112
2,64,96,0
2,60,96,0
2,67,96,104
2,64,96,0
2,60,96,0
2,67,96,0
2,60,96,0
2,48,96,0
2,65,96,0
2,36,96,0
2,67,96,104
2,65,96,0
2,60,96,0
2,65,96,110
2,67,96,0
2,60,96,0
2,67,96,0
2,64,96,0
2,36,96,0
2,60,96,0
2,48,96,0
2,64,96,98
2,67,96,0
2,60,96,0
2,67,96,106
2,64,96,0
2,60,96,0
2,67,96,112
2,64,96,0
2,60,96,0
2,67,96,0
2,64,96,0
2,60,96,0
2,63,96,0
2,56,96,0
2,44,96,0
2,60,96,0
2,32,96,0
2,63,96,112
2,60,96,0
2,56,96,0
2,56,96,124
2,63,96,0
2,60,96,0
2,63,96,0
2,56,96,0
2,32,96,0
2,60,96,0
2,44,96,0
2,63,96,88
2,56,96,0
2,60,96,0
2,63,96,104
2,56,96,0
2,60,96,0
2,63,96,118
2,56,96,0
2,60,96,0
2,63,96,100
2,56,96,0
2,60,96,0
2,58,96,0
2,62,96,0
2,46,96,0
2,65,96,0
2,34,96,0
2,65,96,104
2,62,96,0
2,58,96,0
2,65,96,108
2,58,96,0
2,62,96,0
2,65,96,0
2,62,96,0
2,46,96,0
2,58,96,0
2,34,96,0
2,65,96,96
2,62,96,0
2,58,96,0
2,65,96,96
2,62,96,0
2,58,96,0
2,65,96,98
2,58,96,0
2,62,96,0
2,65,96,12
2,62,96,0
2,58,96,0
2,65,96,0
2,69,96,0
2,62,96,0
2,69,96,0
2,62,96,0
2,65,96,0
2,69,96,0
2,65,96,0
2,62,96,0
2,69,96,0
2,62,96,0
2,65,96,0
2,69,96,0
2,62,96,0
2,65,96,0
2,69,96,0
2,62,96,0
2,65,96,0
2,62,96,0
2,69,96,0
2,65,96,0
2,69,96,0
2,62,96,0
2,65,96,0
2,64,96,0
2,60,96,0
2,57,96,0
2,57,96,0
2,64,96,0
2,60,96,0
2,64,96,0
2,57,96,0
2,60,96,0
2,62,96,0
2,59,96,0
2,55,96,0
2,62,96,0
2,55,96,0
2,59,96,0
2,62,96,0
2,59,96,0
2,55,96,0
2,62,96,0
2,59,96,0
2,55,96,0
2,62,96,0
2,59,96,0
2,55,96,0
2,63,96,0
2,56,96,0
2,60,96,0
2,63,96,0
2,60,96,0
2,56,96,0
2,63,96,0
2,60,96,0
2,56,96,0
2,56,96,0
2,63,96,0
2,60,96,0
2,63,96,0
2,56,96,0
2,60,96,0
2,63,96,0
2,56,96,0
2,60,96,0
2,60,96,0
2,57,96,0
2,53,96,0
2,43,96,0
2,60,96,0
2,57,96,0
2,53,96,0
2,43,96,0
2,60,96,0
2,43,96,0
2,57,96,0
2,53,96,0
2,43,96,0
2,60,96,0
2,57,96,0
2,53,96,0
2,62,96,0
2,59,96,0
2,45,96,0
2,55,96,0
2,72,96,0
2,64,96,0
2,69,96,0
2,60,96,0
2,64,96,0
2,57,96,0
2,57,96,0
2,64,96,0
2,60,96,0
2,64,96,0
2,57,96,0
2,60,96,0
2,64,96,0
2,60,96,0
2,57,96,0
2,67,96,0
2,62,96,0
2,71,96,0
2,59,96,0
2,62,96,0
2,55,96,0
2,62,96,100
2,59,96,0
2,55,96,0
2,71,96,0
2,62,96,0
2,67,96,0
2,55,96,0
2,62,96,0
2,59,96,0
2,72,96,0
2,64,96,0
2,69,96,0
2,57,96,0
2,64,96,0
2,60,96,0
2,64,96,0
2,60,96,0
2,57,96,0
2,64,96,0
2,60,96,0
2,57,96,0
2,64,96,0
2,57,96,0
2,60,96,0
2,64,96,0
2,57,96,0
2,60,96,0
2,72,96,0
2,64,96,0
2,64,96,0
2,57,96,0
2,69,96,0
2,60,96,0
2,72,96,0
2,64,96,0
2,69,96,0
2,57,96,0
2,64,96,0
2,60,96,0
2,72,96,0
2,64,96,0
2,69,96,0
2,57,96,0
2,64,96,0
2,60,96,0
2,64,96,0
2,57,96,0
2,60,96,0
2,67,96,0
2,60,96,0
2,60,96,0
2,57,96,0
2,64,96,0
2,53,96,0
2,60,96,98
2,57,96,0
2,53,96,0
2,60,96,122
2,53,96,0
2,57,96,0
2,69,96,0
2,60,96,0
2,65,96,0
2,53,96,0
2,60,96,0
2,57,96,0
2,60,96,96
2,57,96,0
2,53,96,0
2,60,96,100
2,53,96,0
2,57,96,0
2,65,96,0
2,60,96,0
2,69,96,0
2,53,96,0
2,60,96,0
2,57,96,0
2,69,96,0
2,60,96,0
2,65,96,0
2,57,96,0
2,60,96,0
2,53,96,0
2,69,96,0
2,60,96,0
2,65,96,0
2,57,96,0
2,60,96,0
2,53,96,0
2,69,96,0
2,60,96,0
2,65,96,0
2,57,96,0
2,60,96,0
2,53,96,0
2,71,96,0
2,62,96,0
2,67,96,0
2,59,96,0
2,62,96,0
2,55,96,0
2,64,96,0
2,57,96,0
2,69,96,0
2,60,96,0
2,72,96,0
2,64,96,0
2,64,96,0
2,60,96,0
2,57,96,0
2,64,96,0
2,57,96,0
2,60,96,0
2,64,96,0
2,57,96,0
2,60,96,0
2,71,96,0
2,62,96,0
2,67,96,0
2,59,96,0
2,62,96,0
2,55,96,0
2,62,96,104
2,59,96,0
2,55,96,0
2,71,96,0
2,62,96,0
2,67,96,0
2,55,96,0
2,62,96,0
2,59,96,0
2,69,96,0
2,64,96,0
2,72,96,0
2,60,96,0
2,64,96,0
2,57,96,0
2,64,96,0
2,57,96,0
2,60,96,0
2,64,96,0
2,57,96,0
2,60,96,0
2,64,96,0
2,57,96,0
2,60,96,0
2,64,96,0
2,57,96,0
2,60,96,0
2,72,96,0
2,64,96,0
2,64,96,0
2,57,96,0
2,69,96,0
2,60,96,0
2,64,96,112
2,57,96,0
2,60,96,0
2,72,96,0
2,64,96,0
2,69,96,0
2,57,96,0
2,64,96,0
2,60,96,0
2,64,96,0
2,57,96,0
2,60,96,0
2,65,96,0
2,60,96,0
2,69,96,0
2,57,96,0
2,62,96,0
2,53,96,0
2,65,96,0
2,57,96,0
2,69,96,0
2,53,96,0
2,62,96,0
2,60,96,0
2,60,96,30
2,53,96,0
2,57,96,0
2,63,96,0
2,63,96,0
2,56,96,0
2,56,96,0
2,60,96,0
2,60,96,0
2,63,96,0
2,56,96,0
2,56,96,0
2,60,96,0
2,60,96,0
2,63,96,0
2,56,96,0
2,63,96,0
2,60,96,0
2,63,96,0
2,63,96,0
2,56,96,0
2,60,96,0
2,60,96,0
2,56,96,0
2,63,96,0
2,56,96,0
2,60,96,0
2,56,96,0
2,60,96,0
2,63,96,0
2,64,96,0
