track,note,velocity,time
1,45,103,384
1,45,103,64
1,45,94,32
1,45,94,32
1,43,94,64
1,43,103,64
1,43,103,64
1,43,94,64
1,45,94,64
1,45,86,64
1,45,94,64
1,45,103,64
1,45,103,64
1,40,103,64
1,40,103,64
1,40,94,64
1,41,112,64
1,41,103,64
1,41,103,64
1,41,103,64
1,41,94,64
1,41,103,64
1,41,94,64
1,41,94,64
1,38,103,64
1,38,94,64
1,43,103,64
1,43,112,32
1,43,103,64
1,43,94,64
1,43,103,64
1,43,103,64
1,45,103,64
1,45,103,64
1,45,103,64
1,43,112,64
1,43,90,64
1,43,94,64
1,43,103,64
1,43,94,32
1,45,103,64
1,45,94,64
1,45,94,64
1,45,103,64
1,45,103,64
1,40,78,64
1,40,103,64
1,40,94,64
1,41,103,64
1,41,103,48
1,41,103,32
1,41,103,64
1,41,94,64
1,41,103,64
1,41,86,64
1,41,103,64
1,38,103,64
1,38,94,80
1,43,103,64
1,43,103,64
1,43,94,32
1,43,94,64
1,43,103,64
1,43,86,64
1,45,103,64
1,45,94,64
1,45,103,64
1,45,94,64
1,43,94,64
1,43,94,64
1,43,103,64
1,43,94,32
1,45,103,64
1,45,94,32
1,45,103,64
1,45,94,64
1,45,94,64
1,40,103,64
1,40,94,32
1,40,94,32
1,41,112,64
1,41,103,64
1,41,103,64
1,41,103,64
1,41,103,64
1,41,103,64
1,41,103,64
1,41,103,64
1,38,94,64
1,38,94,32
1,43,103,64
1,43,94,32
1,43,94,64
1,43,94,64
1,43,94,64
1,43,94,64
1,45,103,64
1,45,103,64
1,45,103,64
1,45,103,64
1,43,103,64
1,43,94,64
1,43,103,64
1,43,103,32
1,45,103,80
1,45,94,64
1,45,103,64
1,45,103,64
1,45,94,64
1,40,103,80
1,40,94,32
1,40,94,32
1,41,103,64
1,41,94,64
1,41,103,64
1,41,103,64
1,41,112,64
1,41,112,64
1,41,103,80
1,41,103,64
1,38,103,64
1,38,90,32
1,43,103,80
1,43,103,64
1,43,94,32
1,43,103,64
1,43,103,64
1,43,94,32
1,45,103,64
1,45,86,32
1,45,103,64
1,45,103,32
1,43,103,64
1,43,94,64
1,43,103,64
1,43,103,48
1,45,103,64
1,45,90,32
1,45,103,64
1,45,94,64
1,45,103,80
1,40,103,64
1,40,103,80
1,40,103,64
1,41,103,64
1,41,103,32
1,41,112,64
1,41,103,64
1,41,103,64
1,41,112,64
1,41,103,64
1,41,112,48
1,38,103,32
1,38,94,32
1,43,112,64
1,43,103,64
1,43,103,48
1,43,103,32
1,45,103,64
1,45,112,32
1,43,112,16
1,38,121,80
1,40,121,16
1,43,112,16
1,33,112,592
1,33,112,64
1,38,112,32
1,38,94,48
1,33,112,16
1,38,112,496
1,38,103,48
1,28,112,16
1,29,112,32
1,28,121,48
1,28,127,32
1,43,112,32
1,38,121,96
1,40,94,32
1,43,103,16
1,33,121,608
1,33,112,48
1,38,112,32
1,38,103,48
1,33,112,32
1,38,112,496
1,33,112,32
1,28,121,32
1,29,121,32
1,28,121,64
1,28,121,48
1,36,103,32
1,36,121,48
1,31,112,64
1,33,121,48
1,36,94,48
1,40,94,16
1,45,94,32
1,43,112,48
1,41,121,96
1,36,127,32
1,38,103,32
1,29,121,16
1,28,103,32
1,28,112,48
1,41,112,224
1,29,112,32
1,30,121,32
1,31,112,32
1,31,121,144
1,33,112,32
1,35,112,32
1,36,103,32
1,34,121,128
1,33,103,80
1,38,121,48
1,41,112,16
1,41,112,80
1,38,112,176
1,43,103,128
1,43,103,48
1,45,103,112
1,43,103,80
1,45,103,96
1,45,94,80
1,40,112,48
1,41,112,16
1,41,112,80
1,38,112,192
1,43,103,128
1,43,103,64
1,45,103,96
1,43,103,64
1,45,103,96
1,45,94,80
1,40,112,48
1,41,121,16
1,41,103,96
1,38,121,176
1,43,121,128
1,43,112,80
1,45,112,32
1,43,112,16
1,38,121,80
1,40,121,16
1,43,112,16
1,33,112,592
1,33,112,64
1,38,112,32
1,38,94,48
1,33,112,16
1,38,112,496
1,38,103,48
1,28,112,16
1,29,112,32
1,28,121,48
1,28,127,32
1,43,112,32
1,38,121,96
1,40,94,32
1,43,103,16
1,33,121,608
1,33,112,48
1,38,112,32
1,38,103,48
1,33,112,32
1,38,112,496
1,33,112,32
1,28,121,32
1,29,121,32
1,28,121,64
1,28,121,48
1,36,103,32
1,36,121,48
1,31,112,64
1,33,121,48
1,36,94,48
1,40,94,16
1,45,94,32
1,43,112,48
1,41,121,96
1,36,127,32
1,38,103,32
1,29,121,16
1,28,103,32
1,28,112,48
1,41,112,224
1,29,112,32
1,30,121,32
1,31,112,32
1,31,121,144
1,33,112,32
1,35,112,32
1,36,103,32
1,34,121,128
1,33,103,64
1,38,121,64
1,41,112,16
1,41,112,80
1,38,112,176
1,43,103,112
1,43,103,48
1,45,103,96
1,43,103,64
1,45,103,112
1,45,94,64
1,40,112,48
1,41,112,16
1,41,112,80
1,38,112,176
1,43,103,112
1,43,103,64
1,45,103,112
1,43,103,80
1,45,103,112
1,45,94,80
1,40,112,48
1,41,112,16
1,41,112,96
1,38,121,176
1,43,112,128
1,43,121,80
1,45,112,64
1,43,121,144
1,45,112,96
1,45,94,64
1,40,121,48
1,41,112,96
1,41,112,80
1,41,103,80
1,43,94,64
1,43,112,80
1,43,103,48
1,38,103,16
1,38,112,80
1,38,103,176
1,38,90,112
1,38,103,96
1,38,94,96
1,38,94,112
1,38,86,96
1,33,103,80
1,38,94,16
1,38,94,80
1,38,94,176
1,38,94,112
1,38,94,192
1,38,94,112
1,38,90,176
1,38,90,96
1,33,112,96
1,38,90,16
1,38,94,80
1,38,82,208
1,38,94,96
1,38,94,176
1,38,90,112
1,38,86,192
1,38,94,96
1,33,121,80
1,38,121,19248
1,38,112,80
1,38,103,192
1,38,94,80
1,38,94,208
1,38,94,112
1,38,86,192
1,38,103,112
1,33,103,96
1,38,90,32
1,38,94,96
1,38,82,176
1,38,94,96
1,38,82,208
1,38,94,112
1,38,90,192
1,38,103,96
1,33,112,112
1,41,112,16
1,41,112,80
1,38,112,176
1,43,103,112
1,43,103,64
1,45,103,96
1,43,103,64
1,45,103,112
1,45,94,64
1,40,112,48
1,41,112,96
1,41,112,80
1,38,112,176
1,43,103,128
1,43,103,48
1,45,103,96
1,43,103,64
1,45,103,96
1,45,94,80
1,40,112,48
1,41,112,16
1,41,112,80
1,38,112,192
1,43,103,112
1,43,103,64
1,45,103,96
1,43,103,64
1,45,103,96
1,45,94,80
1,40,112,48
1,41,112,80
1,41,112,80
1,38,112,176
1,43,103,112
1,43,103,48
1,45,103,96
1,43,103,80
1,45,103,96
1,45,94,64
1,40,112,64
1,41,112,16
1,41,112,80
1,38,112,176
1,43,103,128
1,43,103,64
1,45,103,96
1,43,103,64
1,45,103,96
1,45,94,64
1,40,112,48
1,41,112,80
1,41,112,64
1,38,112,176
1,43,103,128
1,43,103,48
1,45,103,96
1,43,103,64
1,45,103,96
1,45,94,64
1,40,112,64
1,41,112,16
1,41,112,80
1,38,112,192
1,43,103,128
1,43,103,48
1,45,103,96
1,43,103,64
1,45,103,96
1,45,94,64
1,40,112,48
1,41,121,16
1,41,112,32
1,41,127,48
1,41,112,48
1,41,112,48
1,41,112,80
1,41,121,80
1,41,112,80
1,38,103,80
1,38,121,64
1,43,112,80
1,43,112,64
1,43,112,80
1,43,121,64
1,43,112,48
1,43,112,48
1,45,112,80
1,45,103,48
1,45,121,48
1,45,112,80
1,43,121,80
1,43,112,80
1,43,121,80
1,43,112,80
1,45,121,80
1,45,121,80
1,45,121,80
1,45,112,80
1,45,121,80
1,40,121,80
1,40,112,80
1,40,112,80
1,41,112,48
1,41,112,64
1,41,121,80
1,41,112,48
1,41,112,48
1,41,103,48
1,41,112,80
1,41,112,80
1,38,103,48
1,38,112,48
1,43,112,48
1,43,121,48
1,43,112,48
1,43,121,48
1,45,121,64
1,45,127,80
2,57,93,384
2,57,93,80
2,57,84,48
2,57,84,48
2,55,84,80
2,55,93,80
2,55,93,80
2,55,84,80
2,57,84,80
2,57,76,80
2,57,84,80
2,57,93,80
2,57,93,80
2,52,93,80
2,52,93,80
2,52,84,80
2,53,102,80
2,53,93,80
2,53,93,80
2,53,93,80
2,53,84,80
2,53,93,80
2,53,84,80
2,53,84,80
2,50,93,80
2,50,84,80
2,55,93,80
2,55,102,48
2,55,93,80
2,55,84,80
2,55,93,80
2,55,93,80
2,57,93,80
2,57,93,80
2,57,93,80
2,55,102,80
2,55,80,80
2,55,84,80
2,55,93,80
2,55,84,48
2,57,93,80
2,57,84,80
2,57,84,80
2,57,93,80
2,57,93,80
2,52,68,80
2,52,93,80
2,52,84,80
2,53,93,80
2,53,93,48
2,53,93,48
2,53,93,80
2,53,84,80
2,53,93,80
2,53,76,80
2,53,93,80
2,50,93,80
2,50,84,80
2,55,93,80
2,55,93,80
2,55,84,48
2,55,84,80
2,55,93,80
2,55,76,80
2,57,93,80
2,57,84,80
2,57,93,80
2,57,84,80
2,55,84,80
2,55,84,80
2,55,93,80
2,55,84,48
2,57,93,80
2,57,84,48
2,57,93,80
2,57,84,80
2,57,84,80
2,52,93,80
2,52,84,48
2,52,84,48
2,53,102,80
2,53,93,80
2,53,93,80
2,53,93,80
2,53,93,80
2,53,93,80
2,53,93,80
2,53,93,80
2,50,84,80
2,50,84,48
2,55,93,80
2,55,84,48
2,55,84,80
2,55,84,80
2,55,84,80
2,55,84,80
2,57,93,80
2,57,93,80
2,57,93,80
2,57,93,80
2,55,93,80
2,55,84,80
2,55,93,80
2,55,93,48
2,57,93,80
2,57,84,80
2,57,93,80
2,57,93,80
2,57,84,80
2,52,93,80
2,52,84,48
2,52,84,48
2,53,93,80
2,53,84,80
2,53,93,80
2,53,93,80
2,53,102,80
2,53,102,80
2,53,93,80
2,53,93,80
2,50,93,80
2,50,80,48
2,55,93,80
2,55,93,80
2,55,84,48
2,55,93,80
2,55,93,80
2,55,84,48
2,57,93,80
2,57,76,48
2,57,93,80
2,57,93,48
2,55,93,80
2,55,84,80
2,55,93,80
2,55,93,48
2,57,93,80
2,57,80,48
2,57,93,80
2,57,84,80
2,57,93,80
2,52,93,80
2,52,93,80
2,52,93,80
2,53,93,80
2,53,93,48
2,53,102,80
2,53,93,80
2,53,93,80
2,53,102,80
2,53,93,80
2,53,102,48
2,50,93,48
2,50,84,48
2,55,102,80
2,55,93,80
2,55,93,48
2,55,93,48
2,57,93,80
2,57,102,48
2,55,102,16
2,50,111,480
2,52,111,96
2,55,102,64
2,45,102,0
2,45,102,48
2,50,102,96
2,50,84,16
2,45,102,96
2,50,102,448
2,50,93,16
2,40,102,96
2,41,102,64
2,40,111,272
2,40,120,96
2,55,102,0
2,50,111,480
2,52,84,96
2,55,93,80
2,45,111,0
2,45,102,16
2,50,102,96
2,50,93,16
2,45,102,96
2,50,102,448
2,45,102,96
2,40,111,80
2,41,111,80
2,40,111,272
2,40,111,16
2,48,93,96
2,48,111,16
2,43,102,576
2,45,111,16
2,48,84,16
2,52,84,96
2,57,84,64
2,55,102,16
2,53,111,352
2,48,120,0
2,50,93,80
2,41,111,80
2,40,93,64
2,40,102,16
2,53,102,176
2,41,102,96
2,42,111,80
2,43,102,80
2,43,111,112
2,45,102,80
2,47,102,80
2,48,93,80
2,46,111,752
2,45,93,32
2,50,111,112
2,53,102,16
2,53,102,32
2,50,102,192
2,55,93,64
2,55,93,384
2,57,93,32
2,55,93,192
2,57,93,112
2,57,84,432
2,52,102,16
2,53,102,16
2,53,102,192
2,50,102,192
2,55,93,64
2,55,93,384
2,57,93,32
2,55,93,192
2,57,93,112
2,57,84,432
2,52,102,16
2,53,111,16
2,53,93,192
2,50,111,192
2,55,111,64
2,55,102,384
2,57,102,96
2,55,102,16
2,50,111,480
2,52,111,96
2,55,102,64
2,45,102,0
2,45,102,48
2,50,102,96
2,50,84,16
2,45,102,96
2,50,102,448
2,50,93,16
2,40,102,96
2,41,102,64
2,40,111,272
2,40,120,96
2,55,102,0
2,50,111,480
2,52,84,96
2,55,93,80
2,45,111,0
2,45,102,16
2,50,102,96
2,50,93,16
2,45,102,96
2,50,102,448
2,45,102,96
2,40,111,80
2,41,111,80
2,40,111,272
2,40,111,16
2,48,93,96
2,48,111,16
2,43,102,576
2,45,111,16
2,48,84,16
2,52,84,96
2,57,84,64
2,55,102,16
2,53,111,352
2,48,120,0
2,50,93,80
2,41,111,80
2,40,93,64
2,40,102,16
2,53,102,176
2,41,102,96
2,42,111,80
2,43,102,80
2,43,111,112
2,45,102,80
2,47,102,80
2,48,93,80
2,46,111,752
2,45,93,32
2,50,111,112
2,53,102,16
2,53,102,32
2,50,102,192
2,55,93,64
2,55,93,384
2,57,93,32
2,55,93,192
2,57,93,112
2,57,84,432
2,52,102,16
2,53,102,16
2,53,102,192
2,50,102,192
2,55,93,64
2,55,93,384
2,57,93,32
2,55,93,192
2,57,93,112
2,57,84,432
2,52,102,16
2,53,102,16
2,53,102,192
2,50,111,192
2,55,102,80
2,55,111,480
2,57,102,48
2,55,111,0
2,57,102,256
2,57,84,416
2,52,111,16
2,53,102,288
2,53,102,192
2,53,93,96
2,55,84,48
2,55,102,288
2,55,93,96
2,50,93,16
2,50,102,288
2,50,93,192
2,50,80,240
2,50,93,464
2,50,84,96
2,50,84,432
2,50,76,128
2,45,93,336
2,50,84,96
2,50,84,256
2,50,84,416
2,50,84,240
2,50,84,464
2,50,84,272
2,50,80,464
2,50,80,240
2,45,102,336
2,50,80,96
2,50,84,272
2,50,72,416
2,50,84,288
2,50,84,192
2,50,80,240
2,50,76,464
2,50,84,272
2,45,111,336
2,50,111,19184
2,50,102,288
2,50,93,192
2,50,84,272
2,50,84,416
2,50,84,288
2,50,76,192
2,50,93,272
2,45,93,368
2,50,80,0
2,50,84,287
2,50,72,432
2,50,84,240
2,50,72,432
2,50,84,288
2,50,80,192
2,50,93,272
2,45,102,352
2,53,102,16
2,53,102,288
2,50,102,192
2,55,93,64
2,55,93,384
2,57,93,32
2,55,93,192
2,57,93,112
2,57,84,432
2,52,102,16
2,53,102,256
2,53,102,192
2,50,102,192
2,55,93,64
2,55,93,384
2,57,93,32
2,55,93,192
2,57,93,112
2,57,84,432
2,52,102,16
2,53,102,16
2,53,102,192
2,50,102,192
2,55,93,64
2,55,93,384
2,57,93,32
2,55,93,192
2,57,93,112
2,57,84,432
2,52,102,16
2,53,102,256
2,53,102,192
2,50,102,192
2,55,93,64
2,55,93,384
2,57,93,32
2,55,93,192
2,57,93,112
2,57,84,432
2,52,102,16
2,53,102,16
2,53,102,192
2,50,102,192
2,55,93,64
2,55,93,384
2,57,93,32
2,55,93,192
2,57,93,112
2,57,84,432
2,52,102,16
2,53,102,256
2,53,102,192
2,50,102,192
2,55,93,64
2,55,93,384
2,57,93,32
2,55,93,192
2,57,93,112
2,57,84,432
2,52,102,16
2,53,102,16
2,53,102,192
2,50,102,192
2,55,93,64
2,55,93,384
2,57,93,32
2,55,93,192
2,57,93,112
2,57,84,432
2,52,102,16
2,53,111,16
2,53,102,0
2,53,120,48
2,53,102,48
2,53,102,48
2,53,102,80
2,53,111,80
2,53,102,80
2,50,93,80
2,50,111,48
2,55,102,80
2,55,102,48
2,55,102,80
2,55,111,48
2,55,102,48
2,55,102,48
2,57,102,80
2,57,93,48
2,57,111,48
2,57,102,80
2,55,111,80
2,55,102,80
2,55,111,80
2,55,102,80
2,57,111,80
2,57,111,80
2,57,111,80
2,57,102,80
2,57,111,80
2,52,111,80
2,52,102,80
2,52,102,80
2,53,102,48
2,53,102,48
2,53,111,80
2,53,102,48
2,53,102,48
2,53,93,48
2,53,102,80
2,53,102,80
2,50,93,48
2,50,102,48
2,55,102,48
2,55,111,48
2,55,102,48
2,55,111,48
2,57,111,48
2,57,120,80
3,69,82,4992
3,65,82,0
3,60,78,0
3,65,74,156
3,62,78,0
3,57,66,0
3,71,78,124
3,67,74,0
3,62,70,0
3,69,78,204
