track,note,velocity,time
6,38,125,1536
6,38,0,220
6,38,122,68
6,38,0,78
6,45,122,18
6,45,0,289
6,38,127,0
6,38,0,55
6,37,127,40
6,37,0,209
6,37,122,79
6,37,0,88
6,43,122,8
6,43,0,280
6,43,127,8
6,50,122,384
6,43,0,19
6,50,0,25
6,50,127,52
6,50,0,276
6,32,116,12
6,32,0,22
6,33,125,74
6,33,0,220
6,33,122,68
6,33,0,78
6,40,122,18
6,40,0,289
6,33,127,0
6,33,0,55
6,38,125,40
6,38,0,244
6,44,127,44
6,44,0,96
6,45,127,0
6,45,0,276
6,49,127,12
6,49,0,64
6,50,127,32
6,50,0,281
6,44,120,7
6,44,0,94
6,45,122,2
6,33,122,192
6,45,0,6
6,33,0,98
6,37,125,88
6,37,0,244
6,42,127,44
6,42,0,96
6,43,127,0
6,43,0,276
6,48,127,12
6,48,0,64
6,49,127,32
6,49,0,281
6,42,120,7
6,42,0,94
6,43,122,2
6,31,122,192
6,43,0,6
6,31,0,98
6,36,127,88
6,43,122,288
6,36,0,22
6,43,0,22
6,43,127,52
6,43,0,276
6,35,116,12
6,35,0,22
6,36,125,74
6,43,127,288
6,36,0,46
6,43,0,29
6,43,122,21
6,36,127,288
6,43,0,32
6,36,0,44
6,55,127,20
6,55,0,249
6,49,127,39
6,49,0,97
6,50,120,0
6,42,118,287
6,50,0,6
6,42,0,91
6,43,116,0
6,43,0,275
6,37,127,12
6,37,0,99
6,38,127,0
6,36,106,0
6,36,0,11
6,38,0,256
6,43,125,18
6,43,0,62
6,34,127,34
6,41,125,288
6,34,0,20
6,41,0,23
6,41,127,53
6,34,127,288
6,41,0,25
6,34,0,31
6,34,127,40
6,34,0,288
6,41,127,0
6,41,0,52
6,41,127,44
6,34,127,288
6,41,0,4
6,34,0,52
6,51,127,40
6,51,0,249
6,45,127,39
6,45,0,97
6,46,120,0
6,38,118,287
6,46,0,6
6,38,0,91
6,39,116,0
6,39,0,275
6,33,127,12
6,33,0,99
6,34,127,0
6,32,106,0
6,32,0,11
6,34,0,256
6,39,125,18
6,39,0,62
6,40,127,34
6,40,0,209
6,40,122,79
6,40,0,88
6,46,122,8
6,46,0,280
6,40,127,8
6,40,0,59
6,33,127,37
6,40,122,288
6,33,0,19
6,40,0,29
6,40,127,48
6,40,0,272
6,39,122,16
6,39,0,38
6,38,125,58
6,45,122,288
6,38,0,17
6,45,0,26
6,45,127,53
6,38,120,288
6,45,0,9
6,38,0,29
6,38,127,58
6,45,110,288
6,38,0,11
6,45,0,24
6,45,125,61
6,33,122,192
6,45,0,17
6,33,0,91
6,36,127,84
6,48,125,288
6,36,0,20
6,36,114,364
6,48,0,19
6,36,0,80
6,36,122,0
6,36,0,288
6,48,127,0
6,48,0,54
6,48,122,39
6,36,127,192
6,48,0,9
6,36,0,91
6,35,125,92
6,35,0,244
6,40,127,44
6,40,0,96
6,41,127,0
6,41,0,276
6,46,127,12
6,46,0,64
6,47,127,32
6,47,0,281
6,40,120,7
6,40,0,94
6,41,122,2
6,29,122,192
6,41,0,6
6,29,0,98
6,34,125,88
6,41,127,288
6,34,0,46
6,41,0,29
6,41,122,21
6,34,127,288
6,41,0,32
6,34,0,44
6,43,127,20
6,50,122,288
6,43,0,22
6,50,0,22
6,50,127,52
6,50,0,276
6,38,127,12
6,38,0,379
6,45,127,5
6,53,120,384
6,45,0,3
6,53,0,377
6,45,127,4
6,50,127,192
6,45,0,4
6,45,103,92
6,50,0,17
6,45,0,77
6,38,120,2
6,38,0,57
6,36,125,39
6,36,0,220
6,36,122,68
6,36,0,78
6,43,122,18
6,43,0,289
6,36,127,0
6,36,0,55
6,41,125,40
6,41,0,220
6,41,122,68
6,41,0,78
6,48,122,18
6,48,0,289
6,41,127,0
6,41,0,55
6,35,127,40
6,35,0,209
6,35,122,79
6,35,0,88
6,42,122,8
6,42,0,280
6,35,127,8
6,35,0,59
6,40,125,37
6,47,127,288
6,40,0,46
6,47,0,29
6,47,122,21
6,40,127,288
6,47,0,32
6,40,0,44
6,40,122,20
6,40,0,233
6,40,125,55
6,40,0,51
6,40,122,45
6,40,0,265
6,40,127,23
6,40,0,59
6,33,125,37
6,33,0,220
6,33,122,68
6,33,0,78
6,40,122,18
6,40,0,289
6,33,127,0
6,33,0,55
6,38,127,40
6,45,122,288
6,38,0,22
6,45,0,22
6,45,127,52
6,45,0,276
6,42,116,12
6,42,0,22
6,43,127,74
6,34,104,288
6,43,0,32
6,34,0,41
6,33,127,23
6,33,0,264
6,33,127,24
6,33,0,96
6,38,125,0
6,38,0,286
6,45,127,2
6,53,120,384
6,45,0,3
6,53,0,377
6,45,127,4
6,50,127,192
6,45,0,4
6,45,103,92
6,50,0,17
6,45,0,77
6,37,127,2
6,37,0,337
6,42,127,47
6,42,0,96
6,43,127,0
6,43,0,276
6,48,127,12
6,48,0,64
6,49,127,32
6,49,0,281
6,42,120,7
6,42,0,94
6,43,122,2
6,31,122,192
6,43,0,6
6,31,0,98
6,36,125,88
6,36,0,220
6,36,122,68
6,36,0,78
6,43,122,18
6,43,0,289
6,36,127,0
6,36,0,55
6,36,127,40
6,36,0,209
6,36,122,79
6,36,0,88
6,43,122,8
6,43,0,280
6,36,127,8
6,36,0,59
6,43,125,37
6,50,122,288
6,43,0,17
6,50,0,26
6,50,127,53
6,43,120,288
6,50,0,9
6,43,0,29
6,43,127,58
6,50,110,288
6,43,0,11
6,50,0,24
6,50,125,61
6,38,122,192
6,50,0,17
6,38,0,91
6,34,125,84
6,41,122,288
6,34,0,17
6,41,0,26
6,41,127,53
6,34,120,288
6,41,0,9
6,34,0,29
6,34,127,58
6,41,110,288
6,34,0,11
6,41,0,24
6,41,125,61
6,29,122,192
6,41,0,17
6,29,0,91
6,39,127,84
6,46,125,288
6,39,0,20
6,46,0,23
6,46,127,53
6,39,127,288
6,46,0,25
6,39,0,31
6,39,127,40
6,39,0,288
6,46,127,0
6,46,0,52
6,46,127,44
6,39,127,288
6,46,0,4
6,39,0,52
6,40,122,40
6,40,0,233
6,40,125,55
6,40,0,51
6,40,122,45
6,40,0,265
6,40,127,23
6,40,0,59
6,33,125,37
6,33,0,220
6,33,122,68
6,33,0,78
6,40,122,18
6,40,0,289
6,33,127,0
6,33,0,55
6,38,127,40
6,45,125,288
6,38,0,20
6,33,114,364
6,45,0,19
6,33,0,80
6,38,122,0
6,38,0,288
6,45,127,0
6,45,0,54
6,45,122,39
6,33,127,192
6,45,0,9
6,33,0,91
6,36,125,92
6,36,0,286
6,48,127,2
6,57,120,384
6,48,0,3
6,57,0,377
6,48,127,4
6,48,0,192
6,48,127,0
6,48,0,96
6,48,103,0
6,48,0,94
6,36,120,2
6,36,0,57
6,47,127,39
6,47,0,249
6,40,127,39
6,40,0,97
6,41,120,0
6,34,118,287
6,41,0,6
6,34,0,91
6,35,116,0
6,35,0,275
6,28,127,12
6,28,0,99
6,29,127,0
6,28,106,0
6,28,0,11
6,29,0,256
6,35,125,18
6,35,0,62
6,34,127,34
6,41,122,288
6,34,0,19
6,41,0,29
6,41,127,48
6,41,0,272
6,44,122,16
6,44,0,38
6,43,122,58
6,43,0,233
6,43,125,55
6,43,0,51
6,43,122,45
6,43,0,265
6,43,127,23
6,43,0,59
6,38,127,37
6,45,125,288
6,38,0,20
6,45,0,23
6,45,127,53
6,38,127,288
6,45,0,25
6,38,0,31
6,38,127,40
6,38,0,288
6,45,127,0
6,45,0,52
6,45,127,44
6,38,127,288
6,45,0,4
6,38,0,52
6,36,125,40
6,43,127,288
6,36,0,46
6,43,0,29
6,43,122,21
6,36,127,288
6,43,0,32
6,36,0,44
6,41,127,20
6,48,122,288
6,41,0,22
6,48,0,22
6,48,127,52
6,48,0,276
6,34,116,12
6,34,0,22
6,35,125,74
6,42,127,288
6,35,0,46
6,42,0,29
6,42,122,21
6,35,127,288
6,42,0,32
6,35,0,44
6,40,127,20
6,47,122,288
6,40,0,22
6,47,0,22
6,47,127,52
6,47,0,276
6,42,116,12
6,42,0,22
6,40,125,74
6,50,127,288
6,40,0,46
6,50,0,29
6,50,122,21
6,40,127,288
6,50,0,32
6,40,0,44
6,33,122,20
6,33,0,233
6,33,125,55
6,33,0,51
6,33,122,45
6,33,0,265
6,33,127,23
6,33,0,59
6,38,127,37
6,38,0,209
6,38,122,79
6,38,0,88
6,45,122,8
6,45,0,280
6,38,127,8
6,38,0,59
6,43,127,37
6,43,0,264
6,43,127,24
6,43,0,96
6,33,125,9
6,33,0,253
6,33,125,32
6,33,0,90
6,50,127,0
6,50,0,249
6,44,127,39
6,44,0,97
6,45,120,0
6,37,118,287
6,45,0,6
6,37,0,91
6,38,116,0
6,38,0,275
6,32,127,12
6,32,0,99
6,33,127,0
6,31,106,0
6,31,0,11
6,33,0,256
6,38,125,18
6,38,0,62
6,37,125,34
6,43,122,288
6,37,0,17
6,43,0,26
6,43,127,53
6,37,120,288
6,43,0,9
6,37,0,29
6,37,127,58
6,43,110,288
6,37,0,11
6,43,0,24
6,43,125,61
6,31,122,192
6,43,0,17
6,31,0,91
6,36,127,84
6,43,122,288
6,36,0,19
6,43,0,29
6,43,127,48
6,43,0,272
6,37,122,16
6,37,0,38
6,36,125,58
6,43,127,288
6,36,0,46
6,43,0,29
6,43,122,21
6,36,127,288
6,43,0,32
6,36,0,44
6,55,127,20
6,55,0,249
6,49,127,39
6,49,0,97
6,50,120,0
6,42,118,287
6,50,0,6
6,42,0,91
6,43,116,0
6,43,0,275
6,37,127,12
6,37,0,99
6,38,127,0
6,36,106,0
6,36,0,11
6,38,0,256
6,43,125,18
6,43,0,62
6,34,127,34
6,41,125,288
6,34,0,20
6,29,114,364
6,41,0,19
6,29,0,80
6,34,122,0
6,34,0,288
6,41,127,0
6,41,0,54
6,41,122,39
6,29,127,192
6,41,0,9
6,29,0,91
6,39,127,92
6,46,125,288
6,39,0,20
6,34,114,364
6,46,0,19
6,34,0,80
6,39,122,0
6,39,0,288
6,46,127,0
6,46,0,54
6,46,122,39
6,34,127,192
6,46,0,9
6,34,0,91
6,40,127,92
6,46,122,288
6,40,0,22
6,46,0,22
6,46,127,52
6,46,0,276
6,32,116,12
6,32,0,22
6,33,125,74
6,40,127,288
6,33,0,46
6,40,0,29
6,40,122,21
6,33,127,288
6,40,0,32
6,33,0,44
6,38,125,20
6,38,0,286
6,45,127,2
6,53,120,384
6,45,0,3
6,53,0,377
6,45,127,4
6,50,127,192
6,45,0,4
6,45,103,92
6,50,0,17
6,45,0,77
6,38,120,2
6,38,0,57
6,36,125,39
6,36,0,244
6,47,127,44
6,47,0,96
6,48,127,0
6,48,0,276
6,52,127,12
6,52,0,64
6,48,127,32
6,48,0,281
6,47,120,7
6,47,0,94
6,48,122,2
6,36,122,192
6,48,0,6
6,36,0,98
6,47,127,88
6,47,0,249
6,40,127,39
6,40,0,97
6,41,120,0
6,34,118,287
6,41,0,6
6,34,0,91
6,35,116,0
6,35,0,275
6,28,127,12
6,28,0,99
6,29,127,0
6,28,106,0
6,28,0,11
6,29,0,256
6,35,125,18
6,35,0,62
6,34,127,34
6,41,122,288
6,34,0,22
6,41,0,22
6,41,127,52
6,41,0,276
6,42,116,12
6,42,0,22
6,43,125,74
6,50,127,288
6,43,0,46
6,50,0,29
6,50,122,21
6,43,127,288
6,50,0,32
6,43,0,44
6,38,127,20
6,45,125,288
6,38,0,20
6,45,0,23
6,45,127,53
6,38,127,288
6,45,0,25
6,38,0,31
6,38,127,40
6,38,0,288
6,45,127,0
6,45,0,52
6,45,127,44
6,38,127,288
6,45,0,4
6,38,0,52
6,36,122,40
6,36,0,233
6,36,125,55
6,36,0,51
6,36,122,45
6,36,0,265
6,36,127,23
6,36,0,59
6,41,122,37
6,41,0,233
6,41,125,55
6,41,0,51
6,41,122,45
6,41,0,265
6,41,127,23
6,41,0,59
6,35,122,37
6,35,0,233
6,35,125,55
6,35,0,51
6,35,122,45
6,35,0,265
6,35,127,23
6,35,0,59
6,40,125,37
6,40,0,220
6,40,122,68
6,40,0,78
6,47,122,18
6,47,0,289
6,40,127,0
6,40,0,55
6,40,122,40
6,40,0,233
6,40,125,55
6,40,0,51
6,40,122,45
6,40,0,265
6,40,127,23
6,40,0,59
6,33,125,37
6,40,127,288
6,33,0,46
6,40,0,29
6,40,122,21
6,33,127,288
6,40,0,32
6,33,0,44
6,38,125,20
6,45,127,288
6,38,0,46
6,45,0,29
6,45,122,21
6,38,127,288
6,45,0,32
6,38,0,44
6,40,127,20
6,34,104,288
6,40,0,32
6,34,0,41
6,33,127,23
6,33,0,264
6,33,127,24
6,33,0,96
6,38,125,0
6,45,127,288
6,38,0,46
6,45,0,29
6,45,115,21
6,38,114,288
6,45,0,32
6,38,0,44
6,40,111,29
6,40,0,253
6,40,105,32
6,40,0,90
6,33,105,0
6,33,0,264
6,33,100,24
6,33,0,96
6,38,96,0
6,45,99,288
6,38,0,46
6,45,0,29
6,45,88,21
6,38,86,288
6,45,0,32
6,38,0,44
6,40,82,29
6,40,0,253
6,40,77,32
6,40,0,90
6,33,75,9
6,33,0,253
6,33,70,32
6,33,0,90
6,38,67,0
6,38,0,233
6,38,63,55
6,38,0,51
6,38,60,45
6,38,0,265
6,38,56,23
6,38,0,59
6,38,54,37
6,45,50,288
6,38,0,46
6,45,0,29
6,45,47,21
6,38,42,288
6,45,0,32
6,38,0,44
7,37,127,0
7,37,0,192
7,37,127,192
7,37,0,192
7,37,124,192
7,37,0,192
7,37,127,0
7,37,0,192
7,37,124,0
7,37,0,192
7,37,127,0
7,37,0,192
7,35,127,0
7,37,127,0
7,49,127,0
7,70,127,0
7,70,0,40
7,35,0,0
7,37,0,0
7,49,0,0
7,51,127,56
7,63,100,0
7,69,110,0
7,69,0,40
7,63,0,0
7,51,0,0
7,51,127,56
7,63,120,0
7,70,127,0
7,70,0,40
7,63,0,0
7,51,0,0
7,35,127,56
7,37,127,0
7,56,100,0
7,51,127,0
7,62,127,0
7,69,110,0
7,69,0,40
7,37,0,0
7,56,0,0
7,35,0,0
7,62,0,0
7,51,0,0
7,35,127,56
7,51,127,0
7,63,95,0
7,70,127,0
7,70,0,40
7,35,0,0
7,51,0,0
7,63,0,0
7,51,127,56
7,63,110,0
7,69,110,0
7,69,0,40
7,63,0,0
7,51,0,0
7,37,127,56
7,56,100,0
7,51,127,0
7,62,127,0
7,70,127,0
7,70,0,40
7,51,0,0
7,37,0,0
7,56,0,0
7,62,0,0
7,35,127,56
7,51,127,0
7,69,110,0
7,69,0,40
7,51,0,0
7,35,0,0
7,35,127,56
7,56,100,0
7,51,127,0
7,63,100,0
7,70,127,0
7,70,0,40
7,51,0,0
7,35,0,0
7,56,0,0
7,63,0,0
7,51,127,56
7,63,100,0
7,69,110,0
7,69,0,40
7,63,0,0
7,51,0,0
7,37,127,56
7,51,127,0
7,70,127,0
7,70,0,40
7,51,0,0
7,37,0,0
7,35,127,56
7,56,100,0
7,51,127,0
7,69,110,0
7,69,0,40
7,35,0,0
7,56,0,0
7,51,0,0
7,35,127,56
7,51,127,0
7,70,127,0
7,70,0,40
7,51,0,0
7,35,0,0
7,37,127,56
7,51,127,0
7,69,110,0
7,69,0,40
7,51,0,0
7,37,0,0
7,56,100,56
7,51,127,0
7,45,127,0
7,70,127,0
7,70,0,40
7,56,0,0
7,51,0,0
7,45,0,0
7,35,127,56
7,51,127,0
7,69,110,0
7,69,0,40
7,51,0,0
7,35,0,0
7,35,127,56
7,37,127,0
7,51,127,0
7,70,127,0
7,70,0,40
7,35,0,0
7,37,0,0
7,51,0,0
7,51,127,56
7,63,100,0
7,69,110,0
7,69,0,40
7,63,0,0
7,51,0,0
7,51,127,56
7,63,120,0
7,70,127,0
7,70,0,40
7,63,0,0
7,51,0,0
7,35,127,56
7,37,127,0
7,51,127,0
7,62,127,0
7,69,110,0
7,69,0,40
7,51,0,0
7,35,0,0
7,37,0,0
7,62,0,0
7,35,127,56
7,51,127,0
