track,note,velocity,time
1,76,127,0
1,76,0,60
1,78,127,0
1,78,0,60
1,76,127,0
1,76,0,120
1,78,127,0
1,78,0,60
1,78,127,0
1,78,0,240
1,76,127,1380
1,76,0,60
1,78,127,0
1,78,0,240
1,76,127,0
1,76,0,60
1,75,127,0
1,75,0,60
1,71,127,0
1,71,0,240
1,73,127,360
1,73,0,120
1,74,127,0
1,74,0,60
1,71,127,0
1,71,0,300
1,78,127,600
1,78,0,60
1,76,127,0
1,76,0,120
1,75,127,60
1,75,0,60
1,78,127,0
1,78,0,180
1,71,127,0
1,71,0,120
1,71,127,360
1,71,0,60
1,69,127,0
1,69,0,60
1,71,127,0
1,71,0,60
1,71,127,0
1,71,0,120
1,71,127,0
1,71,0,180
1,78,127,360
1,78,0,180
1,78,127,0
1,78,0,180
1,71,127,0
1,71,0,120
1,78,127,660
1,78,0,300
1,76,127,600
1,76,0,120
1,74,127,0
1,74,0,60
1,71,127,0
1,71,0,60
1,71,127,0
1,71,0,60
1,74,127,0
1,74,0,120
1,71,127,0
1,71,0,180
1,71,127,180
1,71,0,60
1,74,127,0
1,74,0,60
1,71,127,0
1,71,0,60
1,71,127,0
1,71,0,60
1,71,127,0
1,71,0,60
1,71,127,0
1,71,0,60
1,69,127,0
1,69,0,60
1,71,127,0
1,71,0,60
1,71,127,0
1,71,0,300
1,74,127,480
1,74,0,60
1,74,127,0
1,74,0,60
1,71,127,0
1,71,0,60
1,74,127,0
1,74,0,120
1,71,127,0
1,71,0,180
1,71,127,180
1,71,0,60
1,74,127,0
1,74,0,60
1,71,127,0
1,71,0,60
1,71,127,0
1,71,0,60
1,69,127,0
1,69,0,60
1,71,127,0
1,71,0,120
1,74,127,0
1,74,0,60
1,71,127,0
1,71,0,300
1,71,127,300
1,71,0,60
1,78,127,0
1,78,0,120
1,76,127,0
1,76,0,120
1,76,127,0
1,76,0,60
1,74,127,0
1,74,0,60
1,76,127,0
1,76,0,120
1,74,127,0
1,74,0,240
1,71,127,60
1,71,0,60
1,74,127,0
1,74,0,60
1,71,127,0
1,71,0,60
1,71,127,0
1,71,0,60
1,69,127,0
1,69,0,60
1,71,127,0
1,71,0,120
1,74,127,0
1,74,0,60
1,71,127,0
1,71,0,300
1,71,127,180
1,71,0,60
1,78,127,0
1,78,0,60
1,76,127,0
1,76,0,60
1,74,127,0
1,74,0,60
1,76,127,0
1,76,0,120
1,74,127,0
1,74,0,120
1,71,127,0
1,71,0,120
1,71,127,0
1,71,0,120
1,74,127,0
1,74,0,300
1,76,127,60
1,76,0,60
1,76,127,0
1,76,0,120
1,76,127,0
1,76,0,60
1,76,127,0
1,76,0,60
1,74,127,0
1,74,0,120
1,77,127,0
1,77,0,60
1,76,127,0
1,76,0,60
1,74,127,0
1,74,0,60
1,78,127,0
1,78,0,180
1,69,127,60
1,69,0,60
1,71,127,0
1,71,0,120
1,69,127,0
1,69,0,60
1,71,127,0
1,71,0,120
1,69,127,0
1,69,0,60
1,71,127,0
1,71,0,120
1,74,127,240
1,74,0,120
1,71,127,0
1,71,0,120
1,74,127,0
1,74,0,180
1,71,127,0
1,71,0,300
1,69,127,420
1,69,0,60
1,71,127,0
1,71,0,120
1,69,127,0
1,69,0,60
1,71,127,0
1,71,0,120
1,69,127,0
1,69,0,60
1,71,127,0
1,71,0,120
1,74,127,240
1,74,0,120
1,71,127,0
1,71,0,120
1,74,127,0
1,74,0,180
1,71,127,0
1,71,0,300
1,69,127,420
1,69,0,60
1,71,127,60
1,71,0,60
1,78,127,0
1,78,0,120
1,76,127,0
1,76,0,120
1,76,127,0
1,76,0,60
1,74,127,0
1,74,0,60
1,76,127,0
1,76,0,120
1,73,127,0
1,73,0,240
1,71,127,60
1,71,0,60
1,74,127,0
1,74,0,60
1,71,127,0
1,71,0,60
1,71,127,0
1,71,0,60
1,69,127,0
1,69,0,60
1,71,127,0
1,71,0,120
1,74,127,0
1,74,0,60
1,71,127,0
1,71,0,300
1,71,127,180
1,71,0,60
1,78,127,0
1,78,0,60
1,76,127,0
1,76,0,60
1,74,127,0
1,74,0,60
1,76,127,0
1,76,0,120
1,74,127,0
1,74,0,120
1,71,127,0
1,71,0,120
1,71,127,0
1,71,0,120
1,74,127,0
1,74,0,300
1,76,127,60
1,76,0,60
1,76,127,0
1,76,0,120
1,76,127,0
1,76,0,60
1,76,127,0
1,76,0,60
1,74,127,0
1,74,0,120
1,77,127,0
1,77,0,60
1,76,127,0
1,76,0,60
1,74,127,0
1,74,0,60
1,78,127,0
1,78,0,180
1,64,127,60
1,69,127,0
1,69,0,60
1,64,0,0
1,66,127,0
1,71,127,0
1,71,0,120
1,66,0,0
1,64,127,0
1,69,127,0
1,69,0,60
1,64,0,0
1,66,127,0
1,71,127,0
1,71,0,120
1,66,0,0
1,64,127,0
1,69,127,0
1,69,0,60
1,64,0,0
1,66,127,0
1,71,127,0
1,71,0,120
1,66,0,0
1,67,127,240
1,74,127,0
1,74,0,120
1,67,0,0
1,67,127,0
1,71,127,0
1,71,0,120
1,67,0,0
1,67,127,0
1,74,127,0
1,74,0,180
1,67,0,0
1,64,127,0
1,71,127,0
1,71,0,300
1,64,0,0
1,64,127,420
1,69,127,0
1,69,0,60
1,64,0,0
1,66,127,0
1,71,127,0
1,71,0,120
1,66,0,0
1,64,127,0
1,69,127,0
1,69,0,60
1,64,0,0
1,66,127,0
1,71,127,0
1,71,0,120
1,66,0,0
1,64,127,0
1,69,127,0
1,69,0,60
1,64,0,0
1,66,127,0
1,71,127,0
1,71,0,120
1,66,0,0
1,67,127,240
1,74,127,0
1,74,0,120
1,67,0,0
1,67,127,0
1,71,127,0
1,71,0,120
1,67,0,0
1,66,127,0
1,74,127,0
1,74,0,180
1,66,0,0
1,64,127,0
1,71,127,0
1,71,0,300
1,64,0,0
1,64,127,420
1,69,127,0
1,69,0,60
1,64,0,0
1,66,127,0
1,78,127,0
1,78,0,120
1,66,0,0
1,64,127,0
1,69,127,0
1,69,0,60
1,64,0,0
1,66,127,0
1,71,127,0
1,71,0,120
1,66,0,0
1,64,127,0
1,69,127,0
1,69,0,60
1,64,0,0
1,66,127,0
1,71,127,0
1,71,0,120
1,66,0,0
1,67,127,240
1,74,127,0
1,74,0,120
1,67,0,0
1,67,127,0
1,71,127,0
1,71,0,120
1,67,0,0
1,66,127,0
1,74,127,0
1,74,0,180
1,66,0,0
1,64,127,0
1,71,127,0
1,71,0,300
1,64,0,0
1,71,127,0
1,71,0,60
1,71,127,0
1,71,0,60
1,71,127,0
1,71,0,120
1,64,127,180
1,71,127,0
1,71,0,60
1,64,0,0
1,66,127,0
1,78,127,0
1,78,0,120
1,66,0,0
1,64,127,0
1,76,127,0
1,76,0,60
1,64,0,0
1,66,127,0
1,76,127,0
1,76,0,120
1,66,0,0
1,64,127,0
1,74,127,0
1,74,0,60
1,64,0,0
1,66,127,0
1,71,127,0
1,71,0,120
1,66,0,0
1,67,127,240
1,74,127,0
1,74,0,120
1,67,0,0
1,67,127,0
1,71,127,0
1,71,0,120
1,67,0,0
1,66,127,0
1,74,127,0
1,74,0,180
1,66,0,0
1,71,127,0
1,64,127,0
1,64,0,720
1,71,0,0
1,76,127,4860
1,76,0,360
1,76,127,0
1,76,0,120
1,76,127,0
1,76,0,120
1,80,127,840
1,80,0,240
1,74,127,0
1,74,0,240
1,76,127,1200
1,76,0,60
1,78,127,0
1,78,0,180
1,76,127,300
1,76,0,60
1,74,127,0
1,74,0,60
1,74,127,0
1,74,0,60
1,74,127,0
1,74,0,60
1,74,127,0
1,74,0,60
1,74,127,0
1,74,0,60
1,73,127,0
1,73,0,60
1,74,127,0
1,74,0,60
1,74,127,0
1,74,0,60
1,74,127,0
1,74,0,60
1,71,127,0
1,71,0,60
1,76,127,0
1,76,0,60
1,71,127,0
1,71,0,120
1,71,127,0
1,71,0,300
1,74,127,0
1,74,0,120
1,74,127,0
1,74,0,60
1,71,127,0
1,71,0,60
1,74,127,0
1,74,0,120
1,74,127,0
1,74,0,60
1,71,127,0
1,71,0,60
1,74,127,0
1,74,0,240
1,78,127,240
1,78,0,60
1,76,127,0
1,76,0,60
1,74,127,0
1,74,0,60
1,78,127,0
1,78,0,180
1,71,127,0
1,71,0,60
1,71,127,0
1,71,0,60
1,77,127,0
1,77,0,60
1,76,127,0
1,76,0,60
1,74,127,0
1,74,0,60
1,78,127,0
1,78,0,60
1,71,127,0
1,71,0,120
1,74,127,0
1,74,0,60
1,71,127,0
1,71,0,60
1,74,127,0
1,74,0,60
1,74,127,0
1,74,0,60
1,74,127,0
1,74,0,120
1,76,127,0
1,76,0,120
1,74,127,0
1,74,0,60
1,78,127,0
1,78,0,300
1,69,127,180
1,69,0,60
1,71,127,0
1,71,0,120
1,69,127,0
1,69,0,60
1,71,127,0
1,71,0,120
1,69,127,0
1,69,0,60
1,71,127,0
1,71,0,120
1,71,127,240
1,71,0,240
1,59,127,0
1,67,127,0
1,67,0,180
1,59,0,0
1,59,127,0
1,67,127,0
1,67,0,180
1,59,0,0
1,62,127,0
1,66,127,0
1,66,0,180
1,62,0,0
1,61,127,0
1,64,127,0
1,71,127,180
1,64,0,60
1,61,0,0
1,71,0,90
1,71,127,30
1,71,0,60
1,78,127,0
1,78,0,120
1,76,127,0
1,76,0,60
1,74,127,0
1,74,0,120
1,71,127,0
1,71,0,60
1,74,127,0
1,74,0,120
1,59,127,480
1,67,127,0
1,67,0,180
1,59,0,0
1,59,127,0
1,67,127,0
1,67,0,180
1,59,0,0
1,62,127,0
1,66,127,0
1,66,0,180
1,62,0,0
1,76,127,0
1,66,127,0
1,62,127,0
1,62,0,300
1,66,0,0
1,76,0,60
1,78,127,60
1,78,0,120
1,78,127,0
1,78,0,60
1,78,127,0
1,78,0,120
1,78,127,0
1,78,0,60
1,78,127,0
1,78,0,120
1,74,127,240
1,74,0,240
1,59,127,0
1,67,127,0
1,74,127,0
1,74,0,180
1,67,0,0
1,59,0,0
1,59,127,0
1,67,127,0
1,74,127,0
1,74,0,180
1,67,0,0
1,59,0,0
1,62,127,0
1,66,127,0
1,78,127,0
1,78,0,180
1,66,0,0
1,62,0,0
1,61,127,0
1,64,127,0
1,76,127,0
1,76,0,360
1,64,0,0
1,61,0,0
1,76,127,60
1,76,0,120
1,79,127,360
1,79,0,480
1,74,127,0
1,74,0,840
1,74,127,0
1,74,0,120
1,73,127,0
1,73,0,720
1,74,127,240
1,74,0,960
1,71,127,0
1,71,0,480
1,69,127,0
1,69,0,480
1,74,127,0
1,74,0,180
1,74,127,0
1,74,0,180
1,76,127,0
1,76,0,180
1,78,127,0
1,78,0,180
1,76,127,360
1,76,0,60
1,74,127,0
1,74,0,180
1,76,127,240
1,76,0,240
1,64,127,60
1,69,127,0
1,69,0,60
1,64,0,0
1,66,127,0
1,71,127,0
1,71,0,120
1,66,0,0
1,64,127,0
1,69,127,0
1,69,0,60
1,64,0,0
1,66,127,0
1,71,127,0
1,71,0,120
1,66,0,0
1,64,127,0
1,69,127,0
1,69,0,60
1,64,0,0
1,66,127,0
1,71,127,0
1,71,0,120
1,66,0,0
1,67,127,480
1,71,127,0
1,71,0,180
1,67,0,0
1,67,127,0
1,71,127,0
1,71,0,180
1,67,0,0
1,66,127,0
1,74,127,0
1,74,0,180
1,66,0,0
1,64,127,360
1,69,127,0
1,69,0,60
1,64,0,0
1,66,127,0
1,71,127,0
1,71,0,120
1,66,0,0
1,64,127,0
1,69,127,0
1,69,0,60
1,64,0,0
1,66,127,0
1,71,127,0
1,71,0,120
1,66,0,0
1,64,127,0
1,69,127,0
1,69,0,60
1,64,0,0
1,66,127,0
1,71,127,0
1,71,0,120
1,66,0,0
1,74,127,120
1,74,0,60
1,71,127,0
1,71,0,180
1,67,127,120
1,71,127,0
1,71,0,180
1,67,0,0
1,67,127,0
1,71,127,0
1,71,0,180
1,67,0,0
1,66,127,0
1,74,127,0
1,74,0,180
1,66,0,0
1,64,127,0
1,73,127,0
1,73,0,180
1,64,0,0
1,64,127,180
1,71,127,0
1,71,0,60
1,64,0,0
1,66,127,0
1,71,127,0
1,71,0,120
1,66,0,0
1,64,127,0
1,69,127,0
1,69,0,60
1,64,0,0
1,66,127,0
1,71,127,0
1,71,0,120
1,66,0,0
1,64,127,0
1,69,127,0
1,69,0,60
1,64,0,0
1,66,127,0
1,71,127,0
1,71,0,120
1,66,0,0
1,67,127,480
1,71,127,0
1,71,0,180
1,67,0,0
1,67,127,0
1,71,127,0
1,71,0,180
1,67,0,0
1,66,127,0
1,74,127,0
1,74,0,180
1,66,0,0
1,64,127,360
1,69,127,0
1,69,0,60
1,64,0,0
1,66,127,0
1,71,127,0
1,71,0,120
1,66,0,0
1,64,127,0
1,69,127,0
1,69,0,60
1,64,0,0
1,66,127,0
1,71,127,0
1,71,0,120
1,66,0,0
1,64,127,0
1,69,127,0
1,69,0,60
1,64,0,0
1,66,127,0
1,71,127,0
1,71,0,120
1,66,0,0
1,74,127,120
1,74,0,60
1,71,127,0
1,71,0,180
1,67,127,120
1,71,127,0
1,71,0,180
1,67,0,0
1,67,127,0
1,71,127,0
1,71,0,180
1,67,0,0
1,66,127,0
1,74,127,0
1,74,0,180
1,66,0,0
1,73,127,0
1,64,127,0
1,64,0,180
1,73,0,0
1,78,127,240
1,78,0,120
1,78,127,360
1,78,0,120
1,78,127,1320
1,78,0,120
1,78,127,360
1,78,0,120
1,76,127,1140
1,76,0,120
1,76,127,0
1,76,0,60
1,78,127,0
1,78,0,120
1,78,127,0
1,78,0,60
1,78,127,0
1,78,0,180
1,78,127,120
1,78,0,120
1,78,127,0
1,78,0,60
1,78,127,0
1,78,0,180
1,76,127,60
1,76,0,120
1,76,127,0
1,76,0,120
1,76,127,0
1,76,0,180
1,71,127,0
1,71,0,60
1,78,127,0
1,78,0,120
1,78,127,0
1,78,0,60
1,76,127,0
1,76,0,60
1,74,127,0
1,74,0,60
1,76,127,0
1,76,0,120
1,74,127,0
1,74,0,60
1,76,127,0
1,76,0,60
1,78,127,0
1,78,0,120
1,78,127,0
1,78,0,60
1,71,127,0
1,71,0,180
1,78,127,60
1,78,0,180
1,74,127,360
1,74,0,180
1,74,127,0
1,74,0,180
1,78,127,0
1,78,0,180
1,76,127,0
1,76,0,180
1,74,127,240
1,74,0,180
1,78,127,0
1,78,0,180
1,78,127,0
1,78,0,180
1,76,127,0
1,76,0,180
1,74,127,240
1,74,0,180
1,74,127,0
1,74,0,180
1,74,127,0
1,74,0,180
1,76,127,0
1,76,0,300
2,47,127,240
2,59,127,0
2,66,127,0
2,71,127,0
2,71,0,720
2,47,0,0
2,59,0,0
2,66,0,0
2,55,127,0
2,55,0,60
2,62,127,0
2,62,0,180
2,54,127,0
2,62,127,0
2,62,0,120
2,54,0,0
2,62,127,0
2,62,0,60
2,52,127,0
2,59,127,0
2,59,0,480
2,52,0,0
2,47,127,300
2,59,127,0
2,66,127,0
2,71,127,0
2,47,0,720
2,59,0,240
2,66,0,0
2,71,0,0
2,50,127,0
2,62,127,0
2,67,127,0
2,74,127,0
2,74,0,180
2,50,0,0
2,62,0,0
2,67,0,0
2,50,127,0
2,66,127,0
2,62,127,0
2,69,127,0
2,69,0,180
2,50,0,0
2,66,0,0
2,62,0,0
2,47,127,0
2,59,127,0
2,64,127,0
2,68,127,0
2,68,0,600
2,47,0,0
2,59,0,0
2,64,0,0
2,59,127,0
2,66,127,0
2,71,127,0
2,71,0,180
2,66,0,0
2,59,0,0
2,69,127,0
2,59,127,0
2,66,127,0
2,55,127,540
2,55,0,60
2,69,0,0
2,59,0,0
2,66,0,0
2,62,127,0
2,62,0,60
2,67,127,0
2,67,0,120
2,54,127,0
2,62,127,120
2,62,0,60
2,54,0,0
2,52,127,0
2,59,127,0
2,64,127,0
2,64,0,780
2,59,0,0
2,52,0,0
2,59,127,0
2,66,127,0
2,71,127,0
2,71,0,180
2,66,0,0
2,59,0,0
2,69,127,0
2,66,127,0
