track,note,velocity,time
3,36,115,0
3,46,115,0
3,46,115,325
3,46,67,240
3,46,115,0
3,36,60,240
3,36,115,0
3,46,115,0
3,46,115,360
3,46,67,240
3,46,115,0
3,36,60,240
3,36,115,0
3,46,115,0
3,46,115,360
3,46,67,240
3,46,115,0
3,36,60,240
3,36,115,0
3,46,115,0
3,46,115,360
3,46,67,240
3,46,115,0
3,36,60,240
3,36,115,0
3,49,115,0
3,46,115,360
3,46,67,240
3,46,115,0
3,46,115,360
3,40,115,0
3,46,115,360
3,46,115,360
3,46,115,360
3,36,115,0
3,46,115,360
3,46,115,360
3,40,115,360
3,40,115,120
3,40,115,120
3,40,115,120
3,40,115,120
3,40,115,0
3,40,115,0
3,49,115,120
3,36,115,0
3,46,115,360
3,46,67,240
3,46,115,0
3,46,115,360
3,40,115,0
3,46,115,360
3,46,115,360
3,36,115,240
3,55,115,0
3,36,115,0
3,49,115,0
3,46,115,360
3,46,115,360
3,40,115,360
3,46,115,0
3,36,115,120
3,36,115,0
3,40,115,0
3,49,115,0
3,47,115,120
3,47,115,0
3,45,115,0
3,45,115,0
3,41,115,0
3,36,115,120
3,49,115,0
3,46,115,360
3,46,67,240
3,46,115,0
3,46,115,360
3,40,115,0
3,46,115,360
3,46,115,360
3,46,115,360
3,36,115,0
3,46,115,360
3,46,115,360
3,40,115,360
3,40,115,120
3,40,115,120
3,40,115,120
3,40,115,120
3,40,115,0
3,40,115,0
3,49,115,120
3,36,115,0
3,46,115,360
3,46,67,240
3,46,115,0
3,46,115,360
3,40,115,0
3,46,115,360
3,46,115,360
3,40,115,240
3,36,115,120
3,49,115,0
3,46,115,360
3,46,115,360
3,40,115,360
3,46,115,0
3,40,115,120
3,46,115,0
3,40,115,120
3,40,115,120
3,45,115,120
3,45,115,0
3,41,115,0
3,36,115,120
3,49,115,0
3,46,115,360
3,46,67,240
3,46,115,0
3,46,115,360
3,40,115,0
3,46,115,360
3,46,115,360
3,36,115,240
3,49,115,120
3,40,115,0
3,36,115,120
3,36,115,120
3,46,115,0
3,46,115,360
3,46,115,360
3,36,115,0
3,40,115,120
3,40,115,120
3,40,115,0
3,40,115,30
3,48,115,0
3,48,115,0
3,48,115,0
3,47,115,0
3,47,115,0
3,47,115,0
3,36,115,0
3,49,115,0
3,46,115,360
3,46,67,240
3,46,115,0
3,46,115,360
3,40,115,0
3,46,115,360
3,36,115,240
3,40,115,0
3,57,115,0
3,36,115,240
3,36,115,0
3,49,115,0
3,46,115,360
3,46,115,360
3,46,115,360
3,40,115,0
3,36,115,120
3,40,115,120
3,40,115,0
3,40,115,0
3,40,115,0
3,47,115,60
3,47,115,0
3,47,115,0
3,45,115,0
3,45,115,0
3,45,115,0
3,43,115,0
3,43,115,0
3,43,115,0
3,57,115,120
3,36,115,0
3,46,115,360
3,46,67,240
3,46,115,0
3,46,115,360
3,40,115,0
3,46,115,360
3,40,115,0
3,36,115,120
3,40,115,120
3,46,115,0
3,36,115,0
3,36,115,240
3,57,115,0
3,46,115,360
3,46,115,360
3,46,115,360
3,40,115,0
3,40,115,120
3,46,115,0
3,40,115,120
3,46,115,0
3,36,115,0
3,57,115,240
3,40,115,0
3,36,115,360
3,49,115,0
3,46,115,360
3,36,115,0
3,46,115,120
3,36,115,0
3,46,115,120
3,40,115,120
3,40,115,0
3,36,115,0
3,40,115,120
3,36,115,120
3,57,115,0
3,36,115,0
3,57,115,0
3,36,115,0
3,49,115,0
3,46,115,360
3,46,115,360
3,40,115,360
3,46,117,0
3,36,77,120
3,40,115,104
3,46,117,0
3,36,77,120
3,40,115,104
3,46,117,0
3,57,115,104
3,38,115,0
3,57,115,120
3,38,115,0
3,44,115,600
3,44,115,360
3,44,115,360
3,44,115,360
3,44,115,360
3,44,115,360
3,44,115,360
3,44,115,360
3,44,115,360
3,44,115,360
3,44,115,360
3,46,115,127
3,44,115,0
3,44,115,367
3,38,115,360
3,49,115,0
3,57,115,360
3,40,115,0
3,40,115,120
3,57,115,0
3,44,115,593
3,44,115,360
3,44,115,360
3,44,115,360
3,44,115,360
3,44,115,360
3,44,115,360
3,44,115,360
3,44,115,360
3,44,115,360
3,44,115,360
3,46,115,127
3,44,115,0
3,44,115,367
3,38,115,360
3,49,115,0
3,57,115,360
3,40,115,0
3,40,115,120
3,57,115,0
3,44,115,593
3,44,115,360
3,44,115,360
3,44,115,360
3,44,115,360
3,44,115,360
3,44,115,360
3,44,115,360
3,44,115,360
3,44,115,360
3,44,115,360
3,46,115,127
3,44,115,0
3,44,115,367
3,38,115,360
3,49,115,0
3,57,115,360
3,40,115,0
3,40,115,120
3,57,115,0
3,44,115,593
3,44,115,360
3,44,115,360
3,44,115,360
3,44,115,360
3,44,115,360
3,44,115,360
3,44,115,360
3,44,115,360
3,44,115,360
3,44,115,360
3,46,115,127
3,44,115,0
3,44,115,367
3,38,115,360
3,49,115,0
3,57,115,360
3,40,115,0
3,40,115,120
3,57,115,0
3,44,115,593
3,44,115,360
3,44,115,360
3,44,115,360
3,44,115,360
3,44,115,360
3,44,115,360
3,44,115,360
3,44,115,360
3,44,115,360
3,44,115,360
3,46,115,127
3,44,115,0
3,44,115,367
3,38,115,360
3,49,115,0
3,57,115,360
3,40,115,0
3,40,115,120
3,57,115,0
3,44,115,593
3,44,115,360
3,44,115,360
3,44,115,360
3,44,115,360
3,44,115,360
3,44,115,360
3,44,115,360
3,44,115,360
3,44,115,360
3,44,115,360
3,46,115,127
3,44,115,0
3,44,115,367
3,38,115,360
3,49,115,0
3,57,115,360
3,40,115,0
3,40,115,120
3,57,115,0
3,44,115,593
3,44,115,360
3,44,115,360
3,44,115,360
3,44,115,360
3,44,115,360
3,44,115,360
3,44,115,360
3,44,115,360
3,44,115,360
3,44,115,360
3,46,115,127
3,44,115,0
3,44,115,367
3,38,115,360
3,49,115,0
3,57,115,360
3,40,115,0
3,40,115,120
3,57,115,0
3,44,115,593
3,44,115,360
3,44,115,360
3,44,115,360
3,44,115,360
3,44,115,360
3,44,115,360
3,44,115,360
3,44,115,360
3,44,115,360
3,44,115,360
3,46,115,127
3,44,115,0
3,44,115,367
3,38,115,360
3,49,115,0
3,57,115,360
3,40,115,0
3,40,115,120
3,57,115,0
3,44,115,593
3,44,115,360
3,44,115,360
3,44,115,360
3,44,115,360
3,44,115,360
3,44,115,360
3,44,115,360
3,38,115,339
3,38,115,21
3,36,115,120
3,38,115,332
3,38,115,21
3,38,115,339
3,38,115,21
3,38,115,331
3,38,115,29
3,36,115,0
3,38,115,494
3,49,115,0
3,57,115,360
3,40,115,0
3,40,115,120
3,57,115,0
3,44,115,593
3,44,115,360
3,44,115,360
3,44,115,360
3,44,115,360
3,44,115,360
3,44,115,360
3,44,115,360
3,44,115,360
3,44,115,360
3,44,115,360
3,46,115,127
3,44,115,0
3,44,115,367
3,38,115,360
3,49,115,0
3,57,115,7
3,40,115,0
3,40,115,120
3,57,115,0
3,36,115,350
3,38,115,123
3,38,115,127
3,38,115,353
3,38,115,367
3,38,115,120
3,38,115,113
3,47,115,120
3,47,115,120
3,45,115,120
3,45,115,120
3,36,115,120
3,57,115,0
3,36,115,600
3,46,115,0
3,57,115,120
3,38,115,0
3,46,115,360
3,36,115,0
3,46,115,360
3,36,115,0
3,46,115,360
3,36,115,120
3,49,115,120
3,38,115,0
3,46,115,360
3,57,115,367
3,36,115,0
3,36,115,590
3,38,115,123
3,38,115,0
3,38,115,7
3,38,115,113
3,38,115,240
3,38,115,367
3,38,115,120
3,38,115,113
3,47,115,120
3,47,115,0
3,47,115,0
3,48,115,0
3,48,115,0
3,47,115,0
3,45,115,0
3,43,115,0
3,36,115,0
3,57,115,0
3,46,115,360
3,46,115,360
3,38,115,0
3,36,115,120
3,46,115,120
3,36,115,0
3,36,115,360
3,57,115,0
3,36,115,360
3,46,115,0
3,38,115,127
3,38,115,0
3,38,115,113
3,48,115,7
3,48,115,0
3,47,115,0
3,47,115,0
3,45,115,0
3,45,115,0
3,36,115,113
3,57,115,0
3,36,115,600
3,38,115,120
3,38,115,120
3,38,115,120
3,38,115,120
3,38,115,120
3,38,115,0
3,38,115,113
3,38,115,120
3,38,115,0
3,38,115,0
3,38,115,0
3,38,115,7
3,38,115,120
3,45,115,120
3,43,115,120
3,36,115,120
3,49,115,0
3,46,115,360
3,46,115,360
3,38,115,0
3,36,115,120
3,46,115,120
3,36,115,0
3,36,115,360
3,57,115,0
3,36,115,360
3,46,115,0
3,38,115,127
3,38,115,0
3,38,115,113
3,48,115,7
3,48,115,0
3,50,115,0
3,50,115,0
3,48,115,0
3,48,115,0
3,36,115,113
3,57,115,0
3,36,115,600
3,38,115,120
3,38,115,0
3,38,115,0
3,38,115,0
3,38,115,0
3,38,115,120
3,38,115,120
3,38,115,113
3,38,115,120
3,38,115,0
3,38,115,0
3,38,115,0
3,38,115,7
3,38,115,120
3,45,115,120
3,43,115,120
3,36,115,120
3,49,115,0
3,46,115,360
3,46,115,360
3,38,115,0
3,36,115,120
3,46,115,120
3,36,115,0
3,36,115,360
3,57,115,0
3,46,115,360
3,36,115,0
3,38,115,68
3,38,115,29
3,38,115,113
3,38,115,127
3,38,115,120
3,38,115,120
3,36,115,113
3,57,115,0
3,46,115,360
3,46,115,360
3,38,115,0
3,46,115,360
3,46,115,360
3,36,115,0
3,38,115,120
3,46,115,120
3,36,115,120
3,38,115,120
3,49,115,0
3,46,115,360
3,36,115,0
3,57,115,360
3,36,115,0
3,46,115,360
3,46,115,360
3,38,115,0
3,46,115,360
3,46,115,360
3,36,115,0
3,38,115,120
3,46,115,120
3,36,115,120
3,38,115,120
3,49,115,0
3,36,115,360
3,49,115,0
3,57,115,360
3,36,115,0
3,46,115,360
3,46,115,360
3,38,115,0
3,46,115,360
3,46,115,360
3,36,115,0
3,38,115,120
3,46,115,120
3,36,115,120
3,38,115,120
3,49,115,0
3,46,115,360
3,36,115,0
3,57,115,360
3,36,115,0
3,46,115,360
3,46,115,360
3,38,115,0
3,46,115,360
3,46,115,360
3,36,115,0
3,38,115,120
3,38,115,0
3,38,115,0
3,38,115,120
3,36,115,120
3,38,115,120
3,38,115,0
3,38,115,0
3,38,115,120
3,36,115,120
3,49,115,0
3,46,115,360
3,46,115,360
3,38,115,0
3,46,115,360
3,46,115,360
3,36,115,0
3,38,115,120
3,46,115,120
3,36,115,120
3,38,115,120
3,49,115,0
3,46,115,360
3,36,115,0
3,36,115,360
3,46,115,0
3,46,115,360
3,46,115,360
3,38,115,0
3,46,115,360
3,46,115,360
3,36,115,0
3,38,115,120
3,46,115,120
3,36,115,120
3,38,115,120
3,49,115,0
3,36,115,360
3,49,115,0
3,36,115,360
3,57,115,0
3,46,115,360
3,46,115,360
3,38,115,0
3,46,115,360
3,46,115,360
3,36,115,0
3,38,115,120
3,46,115,120
3,36,115,120
3,38,115,120
3,49,115,0
3,46,115,360
3,36,115,0
3,36,115,360
3,46,115,0
3,46,115,360
3,46,115,360
3,38,115,0
3,46,115,360
3,46,115,360
3,36,115,0
3,38,115,120
3,46,115,120
3,36,115,120
3,38,115,120
3,49,115,0
3,36,115,360
3,49,115,0
3,36,115,360
3,46,115,0
3,46,115,360
3,46,115,360
3,38,115,0
3,46,115,360
3,46,115,360
3,36,115,0
3,38,115,120
3,46,115,120
3,36,115,120
3,38,115,120
3,49,115,0
3,46,115,360
3,36,115,0
3,36,115,360
3,46,115,0
3,46,115,360
3,46,115,360
3,38,115,0
3,46,115,360
3,46,115,360
3,36,115,0
3,38,115,120
3,46,115,120
3,36,115,120
3,38,115,120
3,49,115,0
3,36,115,360
3,49,115,0
3,36,115,360
3,46,115,0
3,46,115,360
3,46,115,360
3,38,115,0
3,46,115,360
3,46,115,360
3,36,115,0
3,38,115,120
3,46,115,120
3,36,115,120
3,38,115,120
3,49,115,0
3,46,115,360
3,36,115,0
3,36,115,360
3,46,115,0
3,46,115,360
3,36,115,120
3,38,115,120
3,49,115,0
3,36,115,360
3,46,115,0
3,36,115,360
3,46,115,0
3,38,115,360
3,38,115,0
3,38,115,0
3,38,115,0
3,38,115,0
3,38,115,0
3,38,115,0
3,38,115,0
3,38,115,120
3,38,115,0
3,38,115,0
3,36,115,120
3,49,115,0
3,51,115,360
3,38,115,360
3,49,115,0
3,51,115,360
3,36,115,360
3,51,115,0
3,38,115,120
3,38,115,0
3,38,115,0
3,38,115,0
3,36,115,0
3,38,115,120
3,49,115,0
3,36,115,360
3,51,115,0
3,57,115,360
3,36,115,0
3,51,115,360
3,38,115,360
3,49,115,0
3,51,115,360
3,36,115,360
3,51,115,0
3,38,115,120
3,51,115,120
3,36,115,120
3,38,115,120
3,49,115,0
3,36,115,360
3,51,115,0
3,36,115,360
3,51,115,0
3,51,115,360
3,38,115,360
3,51,115,0
3,51,115,360
3,36,115,360
3,51,115,0
3,38,115,120
3,38,115,0
3,38,115,0
3,36,115,120
3,38,115,120
3,49,115,0
3,36,115,360
3,51,115,0
3,57,115,360
3,36,115,0
3,51,115,360
3,38,115,360
3,51,115,0
3,51,115,360
3,36,115,360
3,51,115,0
3,38,115,120
3,38,115,0
3,38,115,0
3,38,115,120
3,36,115,120
3,38,115,120
3,38,115,0
3,38,115,0
3,38,115,120
3,36,115,120
3,49,115,0
3,46,115,360
3,46,115,360
3,38,115,0
3,46,115,360
3,46,115,360
3,36,115,0
3,38,115,120
3,46,115,120
3,36,115,120
3,38,115,120
3,49,115,0
3,46,115,360
3,36,115,0
3,36,115,360
3,46,115,0
3,46,115,360
3,46,115,360
3,38,115,0
3,46,115,360
3,46,115,360
3,36,115,0
3,38,115,120
3,46,115,120
3,36,115,120
3,38,115,120
3,49,115,0
3,36,115,360
3,49,115,0
3,36,115,360
3,57,115,0
3,46,115,360
3,46,115,360
3,38,115,0
3,46,115,360
3,46,115,360
3,36,115,0
3,38,115,120
3,46,115,120
3,36,115,120
3,38,115,120
3,49,115,0
3,46,115,360
3,36,115,0
3,36,115,360
3,46,115,0
3,46,115,360
3,46,115,360
3,38,115,0
3,46,115,360
3,46,115,360
3,36,115,0
3,38,115,120
3,46,115,120
3,36,115,120
3,38,115,120
3,49,115,0
3,36,115,360
3,49,115,0
3,36,115,360
3,57,115,0
3,46,115,360
3,46,115,360
3,38,115,0
3,46,115,360
3,46,115,360
3,36,115,0
3,38,115,120
3,46,115,120
3,36,115,120
3,38,115,120
3,49,115,0
3,46,115,360
3,36,115,0
3,36,115,360
3,46,115,0
3,46,115,360
3,46,115,360
3,38,115,0
3,46,115,360
3,46,115,360
3,36,115,0
3,38,115,120
3,46,115,120
3,36,115,120
3,38,115,120
3,49,115,0
3,36,115,360
3,49,115,0
3,36,115,360
3,57,115,0
3,46,115,360
3,46,115,360
3,38,115,0
3,46,115,360
3,46,115,360
3,36,115,0
3,38,115,120
3,46,115,120
3,36,115,120
3,38,115,120
3,49,115,0
3,46,115,360
3,36,115,0
3,36,115,360
3,46,115,0
3,46,115,360
3,46,115,360
3,38,115,0
3,46,115,360
3,46,115,360
3,36,115,0
3,38,115,120
3,46,115,120
3,36,115,120
3,38,115,120
3,49,115,0
3,36,115,360
3,49,115,0
3,57,115,360
3,38,115,0
3,38,115,120
3,57,115,0
3,36,115,357
3,38,115,123
3,38,115,0
3,38,115,7
3,38,115,113
3,38,115,0
3,38,115,120
3,38,115,367
3,38,115,113
3,38,115,7
3,38,115,113
3,47,115,120
3,47,115,0
3,47,115,0
3,47,115,0
3,45,115,0
3,45,115,0
3,45,115,0
3,45,115,0
3,36,115,0
3,57,115,0
3,36,115,360
3,36,115,120
3,46,115,0
3,57,115,120
3,38,115,0
3,46,115,360
3,36,115,0
3,46,115,360
3,36,115,0
3,46,115,360
3,36,115,120
3,49,115,120
3,38,115,0
3,46,115,360
3,57,115,367
3,36,115,0
3,36,115,590
3,38,115,123
3,38,115,0
3,38,115,7
3,38,115,113
3,38,115,240
3,38,115,367
3,38,115,120
3,38,115,113
3,47,115,120
