track,note,velocity,time
1,39,115,1
1,39,115,7
1,37,115,239
1,39,115,0
1,39,95,0
1,42,115,210
1,41,115,6
1,41,85,7
1,39,115,210
1,39,115,7
1,37,115,0
1,39,115,0
1,39,90,0
1,46,115,210
1,44,115,6
1,42,115,7
1,39,115,0
1,39,115,7
1,37,115,0
1,39,115,0
1,39,90,0
1,42,115,210
1,41,115,6
1,41,90,7
1,39,115,210
1,39,115,7
1,37,115,0
1,39,115,0
1,39,90,0
1,32,115,210
1,34,115,0
1,37,115,0
1,39,115,0
1,42,115,0
1,39,115,240
1,39,115,7
1,37,115,0
1,39,115,0
1,39,95,0
1,42,115,210
1,41,115,6
1,41,85,7
1,39,115,210
1,39,115,7
1,37,115,0
1,39,115,0
1,39,90,240
1,46,115,210
1,44,115,6
1,42,115,7
1,39,115,0
1,39,115,7
1,37,115,0
1,39,115,0
1,39,90,240
1,42,115,210
1,41,115,6
1,41,90,7
1,39,115,210
1,39,115,7
1,37,115,0
1,39,115,0
1,39,90,0
1,32,115,210
1,34,115,0
1,37,115,0
1,39,115,0
1,42,115,0
1,39,115,240
1,39,115,7
1,37,115,0
1,39,115,0
1,39,95,0
1,42,115,210
1,41,115,6
1,41,85,7
1,39,115,210
1,39,115,7
1,37,115,0
1,39,115,0
1,39,90,0
1,46,115,210
1,44,115,6
1,42,115,7
1,39,115,0
1,39,115,7
1,37,115,0
1,39,115,0
1,39,90,0
1,42,115,210
1,41,115,6
1,41,90,7
1,39,115,210
1,39,115,7
1,37,115,0
1,39,115,0
1,39,90,0
1,32,115,210
1,34,115,0
1,37,115,0
1,39,115,0
1,42,115,0
1,39,115,240
1,39,115,7
1,37,115,0
1,39,115,0
1,39,95,0
1,42,115,210
1,41,115,6
1,41,85,7
1,39,115,210
1,39,115,7
1,37,115,0
1,39,115,0
1,39,90,0
1,46,115,210
1,44,115,6
1,42,115,7
1,39,115,0
1,39,115,7
1,37,115,0
1,39,115,0
1,39,90,0
1,42,115,210
1,41,115,6
1,41,90,7
1,39,115,210
1,39,115,7
1,37,115,0
1,39,115,0
1,39,90,0
1,32,115,210
1,34,115,0
1,37,115,0
1,39,115,0
1,42,115,0
1,39,115,240
1,39,115,7
1,39,115,0
1,39,115,0
1,39,115,7
1,39,115,0
1,39,115,0
1,39,115,7
1,39,115,0
1,39,115,0
1,39,115,7
1,39,115,0
1,37,115,0
1,37,115,7
1,37,115,0
1,37,115,0
1,37,115,7
1,37,115,0
1,37,115,0
1,37,115,7
1,37,115,0
1,37,115,0
1,37,115,7
1,37,115,0
1,35,115,0
1,35,115,7
1,35,115,0
1,35,115,0
1,35,115,7
1,35,115,0
1,35,115,0
1,35,115,7
1,35,115,0
1,35,115,0
1,35,115,7
1,35,115,0
1,34,115,0
1,34,115,7
1,34,115,0
1,34,115,0
1,34,115,7
1,34,115,0
1,34,115,0
1,34,115,7
1,34,115,0
1,34,115,0
1,34,115,7
1,34,115,0
1,39,115,0
1,39,115,7
1,37,115,0
1,39,115,0
1,39,95,0
1,42,115,210
1,41,115,6
1,41,85,7
1,39,115,210
1,39,115,7
1,37,115,0
1,39,115,0
1,39,90,240
1,46,115,210
1,44,115,6
1,42,115,7
1,39,115,0
1,39,115,7
1,37,115,0
1,39,115,0
1,39,90,240
1,42,115,210
1,41,115,6
1,41,90,7
1,39,115,210
1,39,115,7
1,37,115,0
1,39,115,0
1,39,90,0
1,32,115,210
1,34,115,0
1,37,115,0
1,39,115,0
1,42,115,0
1,39,115,240
1,39,115,7
1,37,115,0
1,39,115,0
1,39,95,0
1,42,115,210
1,41,115,6
1,41,85,7
1,39,115,210
1,39,115,7
1,37,115,0
1,39,115,0
1,39,90,0
1,46,115,210
1,44,115,6
1,42,115,7
1,39,115,0
1,39,115,7
1,37,115,0
1,39,115,0
1,39,90,0
1,42,115,210
1,41,115,6
1,41,90,7
1,39,115,210
1,39,115,7
1,37,115,0
1,39,115,0
1,39,90,0
1,32,115,210
1,34,115,0
1,37,115,0
1,39,115,0
1,42,115,0
1,39,115,240
1,39,115,7
1,37,115,0
1,39,115,0
1,39,95,0
1,42,115,210
1,41,115,6
1,41,85,7
1,39,115,210
1,39,115,7
1,37,115,0
1,39,115,0
1,39,90,0
1,46,115,210
1,44,115,6
1,42,115,7
1,39,115,0
1,39,115,7
1,37,115,0
1,39,115,0
1,39,90,0
1,42,115,210
1,41,115,6
1,41,90,7
1,39,115,210
1,39,115,7
1,37,115,0
1,39,115,0
1,39,90,0
1,32,115,210
1,34,115,0
1,37,115,0
1,39,115,0
1,42,115,0
1,39,115,240
1,46,115,0
1,51,115,0
1,51,115,113
1,51,115,0
1,51,115,0
1,46,115,0
1,39,115,0
1,37,115,240
1,44,115,0
1,49,115,0
1,49,115,113
1,49,115,0
1,49,115,0
1,44,115,0
1,37,115,0
1,35,115,240
1,42,115,0
1,47,115,0
1,47,115,113
1,47,115,0
1,47,115,0
1,42,115,0
1,35,115,0
1,34,115,240
1,41,115,7
1,41,115,0
1,46,115,113
1,46,115,0
1,46,115,0
1,46,115,0
1,46,115,0
1,41,115,0
1,34,115,0
1,34,115,0
1,39,115,0
1,46,115,0
1,51,115,0
1,51,115,113
1,51,115,0
1,51,115,0
1,46,115,0
1,39,115,0
1,37,115,240
1,44,115,0
1,49,115,0
1,49,115,113
1,49,115,0
1,49,115,0
1,44,115,0
1,37,115,0
1,35,115,240
1,42,115,0
1,47,115,0
1,47,115,113
1,47,115,0
1,47,115,0
1,42,115,0
1,35,115,0
1,34,115,240
1,41,115,7
1,41,115,0
1,46,115,113
1,46,115,0
1,46,115,0
1,46,115,0
1,46,115,0
1,41,115,0
1,34,115,0
1,34,115,0
1,35,115,0
1,35,115,7
1,34,115,240
1,34,115,7
1,34,115,0
1,35,115,0
1,35,115,7
1,34,115,240
1,39,115,0
1,39,115,7
1,37,115,0
1,39,115,0
1,39,95,0
1,42,115,210
1,41,115,6
1,41,85,7
1,39,115,210
1,39,115,7
1,37,115,0
1,39,115,0
1,39,90,240
1,46,115,210
1,44,115,6
1,42,115,7
1,39,115,0
1,39,115,7
1,37,115,0
1,39,115,0
1,39,90,240
1,42,115,210
1,41,115,6
1,41,90,7
1,39,115,210
1,39,115,7
1,37,115,0
1,39,115,0
1,39,90,0
1,32,115,210
1,34,115,0
1,37,115,0
1,39,115,0
1,42,115,0
1,39,115,240
1,39,115,7
1,37,115,0
1,39,115,0
1,39,95,0
1,42,115,210
1,41,115,6
1,41,85,7
1,39,115,210
1,39,115,7
1,37,115,0
1,39,115,0
1,39,90,0
1,46,115,210
1,44,115,6
1,42,115,7
1,39,115,0
1,39,115,7
1,37,115,0
1,39,115,0
1,39,90,0
1,42,115,210
1,41,115,6
1,41,90,7
1,39,115,210
1,39,115,7
1,37,115,0
1,39,115,0
1,39,90,0
1,32,115,210
1,34,115,0
1,37,115,0
1,39,115,0
1,42,115,0
1,39,115,240
1,39,115,7
1,37,115,0
1,39,115,0
1,39,95,0
1,42,115,210
1,41,115,6
1,41,85,7
1,39,115,210
1,39,115,7
1,37,115,0
1,39,115,0
1,39,90,0
1,46,115,210
1,44,115,6
1,42,115,7
1,39,115,0
1,39,115,7
1,37,115,0
1,39,115,0
1,39,90,0
1,42,115,210
1,41,115,6
1,41,90,7
1,39,115,210
1,39,115,7
1,37,115,0
1,39,115,0
1,39,90,0
1,32,115,210
1,34,115,0
1,37,115,0
1,39,115,0
1,42,115,0
1,39,115,240
1,39,115,7
1,39,115,0
1,39,115,0
1,39,115,7
1,39,115,0
1,39,115,0
1,39,115,7
1,39,115,0
1,39,115,0
1,39,115,7
1,39,115,0
1,37,115,0
1,37,115,7
1,37,115,0
1,37,115,0
1,37,115,7
1,37,115,0
1,37,115,0
1,37,115,7
1,37,115,0
1,37,115,0
1,37,115,7
1,37,115,0
1,35,115,0
1,35,115,7
1,35,115,0
1,35,115,0
1,35,115,7
1,35,115,0
1,35,115,0
1,35,115,7
1,35,115,0
1,35,115,0
1,35,115,7
1,35,115,0
1,34,115,0
1,34,115,7
1,34,115,0
1,34,115,0
1,34,115,7
1,34,115,0
1,34,115,0
1,34,115,7
1,34,115,0
1,34,115,0
1,34,115,7
1,34,115,0
1,39,115,0
1,39,115,7
1,39,115,0
1,39,115,0
1,39,115,7
1,39,115,0
1,39,115,0
1,39,115,7
1,39,115,0
1,39,115,0
1,39,115,7
1,39,115,0
1,37,115,0
1,37,115,7
1,37,115,0
1,37,115,0
1,37,115,7
1,37,115,0
1,37,115,0
1,37,115,7
1,37,115,0
1,37,115,0
1,37,115,7
1,37,115,0
1,35,115,0
1,35,115,7
1,35,115,0
1,35,115,0
1,35,115,7
1,35,115,0
1,35,115,0
1,35,115,7
1,35,115,0
1,35,115,0
1,35,115,7
1,35,115,0
1,34,115,0
1,34,115,7
1,34,115,0
1,34,115,0
1,34,115,7
1,34,115,0
1,34,115,0
1,34,115,7
1,34,115,0
1,34,115,0
1,34,115,7
1,34,115,0
1,39,115,0
1,39,115,7
1,39,115,0
1,39,115,0
1,39,115,7
1,39,115,0
1,39,115,0
1,39,115,7
1,39,115,0
1,39,115,0
1,39,115,7
1,39,115,0
1,37,115,0
1,37,115,7
1,37,115,0
1,37,115,0
1,37,115,7
1,37,115,0
1,37,115,0
1,37,115,7
1,37,115,0
1,37,115,0
1,37,115,7
1,37,115,0
1,35,115,0
1,35,115,7
1,35,115,0
1,35,115,0
1,35,115,7
1,35,115,0
1,35,115,0
1,35,115,7
1,35,115,0
1,35,115,0
1,35,115,7
1,35,115,0
1,34,115,0
1,34,115,7
1,34,115,0
1,34,115,0
1,34,115,7
1,34,115,0
1,34,115,0
1,34,115,7
1,34,115,0
1,34,115,0
1,34,115,7
1,34,115,0
1,39,115,0
1,39,115,0
1,39,115,0
1,39,115,0
1,39,115,0
1,37,115,1320
1,37,115,0
1,37,115,0
1,37,115,0
1,37,115,0
1,35,115,1320
1,35,115,0
1,35,115,0
1,35,115,0
1,35,115,0
1,34,115,1320
1,34,115,0
1,41,115,0
1,41,115,0
1,46,115,0
1,46,115,0
1,41,115,0
1,41,115,0
1,39,115,0
1,39,115,3
1,39,115,0
1,39,115,0
1,44,115,0
1,46,115,0
1,49,115,0
1,51,115,116
1,51,115,1
1,51,115,0
1,51,115,0
1,51,115,0
1,51,115,0
1,49,115,0
1,46,115,0
1,37,115,240
1,37,115,0
1,37,115,0
1,37,115,0
1,42,115,0
1,44,115,0
1,47,115,0
1,49,115,0
1,49,115,0
1,49,115,0
1,49,115,0
1,49,115,0
1,49,115,0
1,47,115,0
1,44,115,0
1,35,115,237
1,35,115,0
1,35,115,0
1,35,115,0
1,40,115,0
1,42,115,0
1,45,115,0
1,47,115,0
1,47,115,0
1,47,115,0
1,47,115,0
1,47,115,0
1,47,115,0
1,45,115,0
1,42,115,0
1,34,115,3
1,34,115,0
1,34,115,0
1,34,115,0
1,39,115,116
1,40,115,0
1,44,115,0
1,46,115,0
1,46,115,4
1,46,115,7
1,46,115,0
1,46,115,0
1,46,115,0
1,44,115,0
1,40,115,240
1,39,115,0
1,39,115,7
1,37,115,0
1,39,115,0
1,39,95,0
1,42,115,210
1,41,115,6
1,41,85,7
1,39,115,210
1,39,115,7
1,37,115,0
1,39,115,0
1,39,90,240
1,46,115,210
1,44,115,6
1,42,115,7
1,39,115,0
1,39,115,7
1,37,115,0
1,39,115,0
1,39,90,240
1,42,115,210
1,41,115,6
1,41,90,7
1,39,115,210
1,39,115,7
1,37,115,0
1,39,115,0
1,39,90,0
1,32,115,210
1,34,115,0
1,37,115,0
1,39,115,0
1,42,115,0
1,39,115,240
1,39,115,7
1,37,115,0
1,39,115,0
1,39,95,0
1,42,115,210
1,41,115,6
1,41,85,7
1,39,115,210
1,39,115,7
1,37,115,0
1,39,115,0
1,39,90,0
1,46,115,210
1,44,115,6
1,42,115,7
1,39,115,0
1,39,115,7
1,37,115,0
1,39,115,0
1,39,90,0
1,42,115,210
1,41,115,6
1,41,90,7
1,39,115,210
1,39,115,7
1,37,115,0
1,39,115,0
1,39,90,0
1,32,115,210
1,34,115,0
1,37,115,0
1,39,115,0
1,42,115,0
1,39,115,240
1,39,115,7
1,37,115,0
1,39,115,0
1,39,95,0
1,42,115,210
1,41,115,6
1,41,85,7
1,39,115,210
1,39,115,7
1,37,115,0
1,39,115,0
1,39,90,0
1,46,115,210
1,44,115,6
1,42,115,7
1,39,115,0
1,39,115,7
1,37,115,0
1,39,115,0
1,39,90,0
1,42,115,210
1,41,115,6
1,41,90,7
1,39,115,210
1,39,115,7
1,37,115,0
1,39,115,0
1,39,90,0
1,32,115,210
1,34,115,0
1,37,115,0
1,39,115,0
1,42,115,0
1,39,115,240
1,46,115,0
1,51,115,0
1,51,115,113
1,51,115,0
1,51,115,0
1,46,115,0
1,39,115,0
1,37,115,240
1,44,115,0
1,49,115,0
1,49,115,113
1,49,115,0
1,49,115,0
1,44,115,0
1,37,115,0
1,35,115,240
1,42,115,0
1,47,115,0
1,47,115,113
1,47,115,0
1,47,115,0
1,42,115,0
1,35,115,0
1,34,115,240
1,41,115,7
1,41,115,0
1,46,115,113
1,46,115,0
1,46,115,0
1,46,115,0
1,46,115,0
1,41,115,0
1,34,115,0
1,34,115,0
1,39,115,0
1,46,115,0
1,51,115,0
1,51,115,113
1,51,115,0
1,51,115,0
1,46,115,0
1,39,115,0
1,37,115,240
1,44,115,0
1,49,115,0
1,49,115,113
1,49,115,0
1,49,115,0
1,44,115,0
1,37,115,0
1,35,115,240
1,42,115,0
1,47,115,0
1,47,115,113
1,47,115,0
1,47,115,0
1,42,115,0
1,35,115,0
1,34,115,240
1,41,115,7
1,41,115,0
1,46,115,113
1,46,115,0
1,46,115,0
1,46,115,0
1,46,115,0
1,41,115,0
1,34,115,0
1,34,115,0
1,35,115,0
1,35,115,7
1,34,115,240
1,34,115,7
1,35,115,0
1,35,115,7
1,34,115,240
1,39,115,0
1,39,115,7
1,37,115,0
1,39,115,0
1,39,95,0
1,42,115,210
1,41,115,6
1,41,85,7
1,39,115,210
1,39,115,7
1,37,115,0
1,39,115,0
1,39,90,240
1,46,115,210
1,44,115,6
1,42,115,7
1,39,115,0
1,39,115,7
1,37,115,0
1,39,115,0
1,39,90,240
1,42,115,210
1,41,115,6
1,41,90,7
1,39,115,210
1,39,115,7
1,37,115,0
1,39,115,0
1,39,90,0
1,32,115,210
1,34,115,0
1,37,115,0
1,39,115,0
1,42,115,0
1,39,115,240
1,39,115,7
1,37,115,0
1,39,115,0
1,39,95,0
1,42,115,210
1,41,115,6
1,41,85,7
1,39,115,210
1,39,115,7
1,37,115,0
1,39,115,0
1,39,90,0
1,46,115,210
1,44,115,6
1,42,115,7
1,39,115,0
1,39,115,7
1,37,115,0
1,39,115,0
1,39,90,0
1,42,115,210
1,41,115,6
1,41,90,7
1,39,115,210
1,39,115,7
1,37,115,0
1,39,115,0
1,39,90,0
1,32,115,210
1,34,115,0
1,37,115,0
1,39,115,0
1,42,115,0
1,39,115,240
1,39,115,7
1,37,115,0
1,39,115,0
1,39,95,0
1,42,115,210
1,41,115,6
1,41,85,7
1,39,115,210
1,39,115,7
1,37,115,0
1,39,115,0
1,39,90,0
1,46,115,210
1,44,115,6
1,42,115,7
1,39,115,0
1,39,115,7
1,37,115,0
1,39,115,0
1,39,90,0
1,42,115,210
1,41,115,6
1,41,90,7
1,39,115,210
1,39,115,7
1,37,115,0
1,39,115,0
1,39,90,0
1,32,115,210
1,34,115,0
1,37,115,0
1,39,115,0
1,42,115,0
1,39,115,240
1,39,115,7
1,39,115,0
1,39,115,0
1,39,115,7
1,39,115,0
1,39,115,0
1,39,115,7
1,39,115,0
1,39,115,0
1,39,115,7
1,39,115,0
1,37,115,0
1,37,115,7
1,37,115,0
1,37,115,0
1,37,115,7
1,37,115,0
1,37,115,0
1,37,115,7
1,37,115,0
1,37,115,0
1,37,115,7
1,37,115,0
1,35,115,0
1,35,115,7
