track,note,velocity,time
0,40,87,0
0,59,86,0
0,52,86,0
0,38,109,0
0,44,102,0
0,35,102,0
0,44,89,48
0,44,68,48
0,42,102,48
0,38,51,0
0,44,81,48
0,44,70,48
0,61,86,0
0,54,86,0
0,35,81,0
0,44,95,0
0,42,87,8
0,44,78,48
0,44,62,48
0,62,86,0
0,55,86,0
0,42,98,0
0,38,68,0
0,43,87,16
0,42,87,4
0,44,76,48
0,44,55,48
0,48,88,0
0,55,88,0
0,44,76,0
0,35,72,0
0,36,87,4
0,44,78,48
0,44,68,48
0,38,81,48
0,42,98,0
0,44,76,0
0,44,44,48
0,35,85,48
0,44,74,0
0,50,86,4
0,57,86,0
0,44,98,0
0,38,87,4
0,44,68,48
0,42,102,0
0,38,72,0
0,50,86,96
0,57,86,0
0,44,83,0
0,38,87,20
0,44,64,48
0,52,86,0
0,59,86,0
0,35,95,0
0,44,76,0
0,38,109,16
0,40,87,4
0,44,83,48
0,44,74,48
0,42,83,48
0,38,83,0
0,44,95,48
0,44,70,48
0,54,86,0
0,61,86,0
0,35,91,0
0,44,89,0
0,42,87,8
0,44,95,48
0,44,85,48
0,62,86,48
0,55,86,0
0,42,98,0
0,38,85,0
0,43,87,20
0,44,95,96
0,44,56,48
0,57,86,0
0,64,86,0
0,44,76,0
0,35,78,0
0,45,87,24
0,62,86,76
0,55,86,0
0,44,91,0
0,43,87,12
0,42,87,48
0,54,86,0
0,61,86,0
0,44,68,0
0,59,86,68
0,52,86,0
0,42,89,0
0,38,81,0
0,40,87,16
0,44,81,48
0,44,68,48
0,44,76,48
0,35,91,0
0,52,105,88
0,44,95,8
0,50,105,24
0,44,70,4
0,47,105,32
0,38,72,8
0,42,91,0
0,46,105,76
0,45,105,4
0,38,95,28
0,44,102,0
0,43,105,16
0,38,72,0
0,44,62,0
0,38,109,36
0,49,81,8
0,40,105,4
0,59,86,0
0,52,86,0
0,35,85,0
0,44,66,0
0,40,105,4
0,44,89,48
0,44,76,48
0,38,102,48
0,42,62,0
0,44,81,48
0,44,48,48
0,42,87,4
0,61,86,0
0,54,86,0
0,44,63,0
0,35,85,0
0,44,91,48
0,44,64,48
0,43,87,8
0,55,86,0
0,62,86,0
0,38,91,0
0,42,83,0
0,44,95,96
0,44,59,48
0,36,87,16
0,48,86,0
0,55,86,0
0,44,68,0
0,35,81,0
0,44,95,48
0,44,68,48
0,42,83,48
0,38,74,0
0,44,74,48
0,44,51,48
0,35,102,48
0,44,59,0
0,50,86,48
0,50,86,48
0,57,86,0
0,44,81,0
0,38,87,16
0,44,68,48
0,42,91,0
0,38,63,0
0,50,86,0
0,57,86,0
0,50,86,48
0,57,86,0
0,44,89,0
0,35,98,0
0,38,87,32
0,44,61,48
0,59,86,0
0,52,86,0
0,44,62,0
0,35,83,0
0,40,87,20
0,38,109,4
0,44,89,48
0,44,63,48
0,38,81,0
0,42,85,0
0,44,89,48
0,44,55,48
0,54,86,0
0,61,86,0
0,44,78,0
0,35,81,0
0,42,87,32
0,44,68,96
0,44,66,48
0,62,86,0
0,55,86,0
0,38,74,0
0,42,85,0
0,43,87,28
0,44,63,96
0,44,45,48
0,64,86,0
0,57,86,0
0,44,68,0
0,35,72,0
0,45,87,0
0,43,87,96
0,62,86,0
0,55,86,0
0,44,89,0
0,42,87,36
0,61,86,0
0,54,86,0
0,44,70,0
0,52,86,0
0,59,86,0
0,42,74,0
0,38,83,0
0,40,87,4
0,44,95,48
0,44,48,48
0,44,74,48
0,35,83,0
0,44,89,96
0,44,47,48
0,38,83,48
0,42,95,0
0,33,104,12
0,35,104,4
0,38,85,0
0,44,98,0
0,38,104,4
0,40,104,20
0,38,72,8
0,44,59,0
0,28,104,44
0,35,81,0
0,44,66,0
0,38,109,8
0,49,84,4
0,44,91,64
0,28,104,8
0,28,104,32
0,44,61,0
0,28,104,36
0,38,74,0
0,42,89,0
0,44,98,48
0,28,104,12
0,44,52,32
0,28,104,4
0,44,59,36
0,35,85,0
0,28,104,4
0,44,83,80
0,28,104,4
0,28,104,28
0,44,68,4
0,42,85,36
0,38,78,0
0,28,104,4
0,44,76,80
0,28,104,8
0,44,47,32
0,28,104,8
0,44,68,28
0,35,89,0
0,28,104,12
0,44,95,80
0,28,104,28
0,44,50,16
0,28,104,20
0,42,85,0
0,38,81,0
0,28,104,16
0,44,91,56
0,28,104,32
0,44,68,8
0,28,104,24
0,44,64,16
0,35,95,0
0,28,104,28
0,44,83,72
0,28,104,16
0,44,56,16
0,28,104,20
0,38,83,20
0,42,85,0
0,28,104,16
0,28,104,48
0,44,91,0
0,44,66,20
0,28,104,8
0,35,81,32
0,44,66,0
0,28,104,12
0,44,91,76
0,28,104,8
0,28,104,32
0,44,61,0
0,28,104,36
0,38,74,0
0,42,89,0
0,44,98,48
0,28,104,12
0,44,52,32
0,28,104,4
0,44,59,36
0,35,85,0
0,28,104,4
0,44,83,80
0,28,104,4
0,28,104,28
0,44,68,4
0,42,85,36
0,38,78,0
0,28,104,4
0,44,76,80
0,28,104,8
0,44,47,32
0,28,104,8
0,44,68,28
0,35,89,0
0,28,104,12
0,44,95,80
0,28,104,28
0,44,50,16
0,28,104,20
0,42,85,0
0,38,81,0
0,28,104,16
0,44,91,56
0,28,104,32
0,44,68,8
0,28,104,24
0,44,64,16
0,35,95,0
0,28,104,28
0,44,83,72
0,28,104,16
0,44,56,16
0,28,104,20
0,38,83,20
0,42,85,0
0,28,104,16
0,28,104,48
0,44,91,0
0,44,66,32
0,28,104,8
0,28,81,0
0,69,95,0
0,35,91,0
0,42,91,0
0,28,60,44
0,42,95,0
0,69,78,0
0,28,52,36
0,42,70,0
0,69,91,0
0,28,73,8
0,38,83,4
0,44,89,0
0,69,89,0
0,42,85,16
0,28,94,8
0,42,66,40
0,28,71,8
0,42,91,32
0,35,95,0
0,28,71,12
0,42,95,64
0,28,86,16
0,42,85,36
0,28,77,4
0,69,68,0
0,38,76,8
0,28,81,20
0,67,83,0
0,42,98,0
0,28,84,32
0,42,68,4
0,69,95,0
0,28,61,20
0,42,91,16
0,35,85,0
0,28,68,28
0,69,89,0
0,42,98,4
0,28,71,16
0,42,70,16
0,28,68,20
0,38,68,20
0,44,95,0
0,28,81,16
0,42,81,64
0,28,89,16
0,42,54,32
0,28,70,8
0,35,91,36
0,42,76,0
0,28,75,4
0,42,98,68
0,28,81,8
0,42,78,40
0,28,78,4
0,44,95,36
0,38,68,0
0,28,71,4
0,42,98,60
0,28,86,4
0,28,75,40
0,42,59,0
0,69,102,0
0,35,85,8
0,42,91,0
0,28,71,4
0,42,91,56
0,28,78,0
0,69,68,0
0,42,95,40
0,28,84,4
0,72,74,0
0,44,85,4
0,38,56,0
0,28,84,8
0,42,74,68
0,69,102,0
0,28,92,8
0,42,72,36
0,28,70,4
0,35,102,36
0,42,85,0
0,28,77,16
0,42,91,80
0,28,57,16
0,42,81,12
0,28,64,8
0,44,91,32
0,38,74,0
0,69,85,0
0,28,89,4
0,67,85,0
0,42,76,0
0,28,71,4
0,42,74,36
0,28,75,8
0,69,102,0
0,35,95,0
0,42,74,0
0,28,89,12
0,28,67,40
0,42,91,0
0,67,83,0
0,42,78,44
0,28,84,12
0,66,91,0
0,38,76,8
0,44,89,0
0,28,68,8
0,28,84,12
0,67,95,0
0,42,91,0
0,42,56,48
0,28,86,4
0,35,81,32
0,42,74,0
0,28,99,16
0,64,102,0
0,42,83,4
0,28,102,4
0,67,25,4
0,28,106,44
0,42,78,4
0,33,78,16
0,44,83,0
0,38,83,0
0,35,54,96
0,38,63,4
0,35,78,0
0,42,95,0
0,59,74,0
0,42,74,0
0,40,40,24
0,42,76,4
0,35,74,0
0,71,102,0
0,28,106,8
0,42,85,52
0,71,95,0
0,28,52,4
0,42,74,36
0,28,71,8
0,44,102,36
0,38,83,0
0,28,73,0
0,71,98,0
0,42,91,68
0,71,102,0
0,28,84,4
0,42,74,32
0,28,58,20
0,42,89,32
0,35,91,0
0,28,70,24
0,42,68,60
0,28,73,4
0,42,63,32
0,28,63,4
0,69,102,0
0,44,98,20
0,38,89,0
0,28,73,4
0,67,59,0
0,42,91,12
0,28,86,8
0,69,102,0
0,42,58,0
0,28,84,8
0,42,91,36
0,35,95,0
0,28,84,8
0,69,83,0
0,42,98,12
0,28,81,4
0,42,83,40
0,28,70,4
0,44,102,44
0,38,68,0
0,28,86,8
0,42,91,60
0,28,77,4
0,42,72,40
0,28,67,4
0,35,89,40
0,42,91,0
0,28,84,4
0,42,81,68
0,28,94,4
0,28,81,40
0,42,102,0
0,44,78,44
0,38,72,0
0,28,89,8
0,28,60,60
0,42,89,0
0,42,49,40
0,28,92,4
0,35,81,40
0,42,85,0
0,28,81,4
0,69,89,0
0,69,78,0
0,42,85,0
0,28,71,4
0,42,81,32
0,28,65,4
0,38,74,32
0,44,95,0
0,28,81,0
0,72,72,0
0,42,89,44
0,69,102,0
0,28,52,4
0,42,52,24
0,28,61,16
0,42,98,32
0,35,85,0
0,28,84,16
0,42,102,40
0,28,102,16
0,42,76,32
0,28,75,16
0,44,102,24
0,38,85,0
0,69,102,0
0,28,73,12
0,67,85,0
0,42,102,0
0,28,92,12
0,42,81,32
0,28,75,12
0,69,102,0
0,42,85,24
0,35,95,0
0,28,86,24
0,67,76,0
0,42,83,0
0,28,89,16
0,42,68,36
0,28,81,8
0,38,83,40
0,44,102,0
0,66,91,0
0,28,94,12
0,28,89,24
0,42,76,4
0,67,91,0
0,28,89,40
0,42,70,8
0,35,89,48
0,42,91,0
0,28,106,12
0,42,98,40
0,28,92,8
0,64,102,0
0,28,99,40
0,42,81,8
0,43,60,4
0,64,91,0
0,44,102,0
0,38,81,0
0,42,73,48
0,40,106,16
0,35,98,0
0,42,102,0
0,38,76,0
0,66,102,0
0,38,84,24
0,42,76,0
0,36,106,8
0,48,92,8
0,43,92,0
0,55,92,0
0,60,92,0
0,42,83,0
0,35,98,0
0,67,98,0
0,42,102,96
0,42,54,0
0,66,102,0
0,38,95,12
0,44,102,0
0,64,102,0
0,42,102,8
0,42,53,48
0,42,89,48
0,35,98,0
0,42,102,96
0,42,76,0
0,36,94,32
0,43,92,4
0,55,92,0
0,48,92,0
0,62,102,0
0,44,102,0
0,38,91,0
0,60,92,8
0,64,89,0
0,42,89,104
0,38,106,36
0,57,92,0
0,62,92,0
0,50,92,0
0,45,92,0
0,42,76,0
0,35,98,0
0,42,102,96
0,42,63,0
0,44,102,48
0,38,81,0
0,42,98,96
0,62,81,0
0,42,56,48
0,35,98,48
0,42,98,0
0,62,85,0
0,42,102,96
0,64,95,0
0,42,70,0
0,67,90,0
0,44,102,0
0,38,70,0
0,64,84,0
0,42,98,0
0,42,55,48
0,28,84,0
0,40,110,0
0,42,102,0
0,35,72,0
0,28,84,44
0,40,78,0
0,42,78,0
0,28,84,24
0,40,90,8
0,42,42,16
0,54,72,52
0,28,84,8
0,38,68,8
0,44,102,0
0,55,70,44
0,52,94,32
0,28,84,4
0,42,98,0
0,28,84,36
0,42,74,12
0,28,84,36
0,40,92,12
0,35,72,0
0,42,45,0
0,28,84,60
0,40,62,0
0,42,74,0
0,40,82,36
0,28,84,8
0,42,62,0
0,52,100,8
0,47,100,0
0,38,63,4
0,28,84,4
0,76,100,4
0,71,100,0
0,67,100,0
0,44,91,0
0,42,83,72
0,28,84,12
0,42,46,36
0,28,84,12
0,40,106,28
0,35,72,4
0,42,78,0
0,28,84,16
0,40,100,68
0,42,58,0
0,28,84,8
0,40,92,24
0,42,59,16
0,28,84,4
0,54,92,8
0,28,84,20
0,44,102,0
0,38,72,0
0,55,92,0
0,57,92,8
0,42,46,4
0,28,84,8
0,28,84,40
0,42,50,0
0,28,84,44
0,42,62,0
0,35,72,0
0,40,94,8
0,42,70,24
0,28,84,4
0,55,80,0
0,54,80,8
0,28,84,4
0,42,70,0
0,28,84,40
0,44,98,4
0,52,92,4
0,38,78,0
0,42,83,88
0,28,84,12
0,38,70,8
0,42,59,32
0,38,56,8
0,28,84,4
0,35,72,0
0,42,83,0
0,28,84,12
0,40,127,0
0,42,89,48
0,40,100,4
0,28,84,8
0,40,100,32
0,42,68,4
0,28,84,4
0,54,94,24
0,28,84,4
0,44,72,0
0,38,83,12
0,55,67,24
0,52,100,44
0,42,83,0
0,28,84,8
0,42,70,36
0,28,84,4
0,28,84,44
0,40,90,4
0,42,76,0
0,35,72,0
0,28,84,40
0,40,77,8
0,42,74,0
0,28,84,44
0,40,80,4
0,42,72,0
0,52,80,32
0,55,80,4
0,47,80,0
0,28,84,4
0,59,80,4
0,38,74,4
0,44,98,0
0,28,84,68
0,42,83,4
0,28,84,16
0,42,54,12
0,42,89,48
0,35,72,0
0,28,84,4
0,40,92,4
0,40,84,32
0,42,72,16
0,28,84,8
0,40,74,20
0,28,84,20
0,42,91,0
0,54,50,8
0,28,84,28
0,44,81,0
0,38,68,0
0,55,52,72
0,57,92,16
0,42,89,16
0,28,84,8
0,28,84,40
0,42,42,4
0,28,84,12
0,42,59,0
0,35,72,0
0,40,87,4
0,55,78,24
0,42,81,0
0,28,84,16
0,54,84,4
0,28,84,16
0,42,72,0
0,38,76,12
0,52,100,4
0,44,68,0
0,28,84,8
0,42,85,68
0,38,72,12
0,28,84,20
0,42,55,28
0,28,84,16
0,40,100,24
0,42,91,0
0,35,72,0
0,47,100,4
0,28,84,8
0,42,68,0
0,28,84,12
0,42,55,36
0,28,84,12
0,38,72,32
0,44,76,4
0,28,84,12
0,42,76,52
0,28,84,12
0,42,44,32
0,28,84,16
0,42,66,32
0,35,72,0
0,28,84,16
0,42,91,52
0,28,84,8
0,28,84,36
0,42,78,0
0,44,76,0
0,38,74,4
0,28,84,4
0,42,64,48
0,28,84,4
0,28,84,44
0,42,38,0
0,28,84,44
0,35,72,4
0,42,70,0
0,42,70,44
0,28,84,8
0,42,70,36
0,28,84,8
0,38,78,28
0,28,84,8
0,44,89,4
0,42,102,48
0,28,84,12
0,42,44,32
0,28,84,8
0,35,72,32
0,42,85,0
0,28,84,4
0,42,89,0
0,28,84,8
0,28,84,32
0,42,70,4
0,28,84,44
0,44,102,0
0,38,78,12
0,71,81,0
0,28,84,4
0,42,95,0
0,28,84,48
0,42,83,0
0,28,102,0
0,71,87,0
0,67,98,0
0,64,100,0
0,42,102,0
0,35,91,0
0,28,99,56
0,42,91,0
0,71,79,0
0,42,83,28
0,28,99,20
0,38,58,44
0,44,102,0
0,28,99,0
0,71,79,0
0,42,98,56
0,28,99,12
0,71,79,0
0,42,72,32
0,28,99,16
0,42,83,32
0,28,99,16
0,35,78,0
0,42,95,88
0,28,99,8
0,42,72,32
0,28,99,8
0,66,100,8
0,69,79,0
0,44,102,4
0,28,99,8
0,67,100,0
0,38,62,4
0,69,98,8
0,42,72,40
0,28,99,8
0,67,79,0
0,42,55,40
0,28,99,8
0,69,79,0
0,28,99,24
0,66,100,0
0,35,76,0
0,42,72,4
0,28,99,0
0,69,79,0
0,42,83,8
0,28,99,28
0,42,98,4
0,28,99,36
0,38,59,4
0,44,102,4
0,28,99,48
0,42,85,20
0,28,99,32
0,42,66,4
0,28,99,44
0,35,76,0
0,42,89,4
0,28,99,48
0,42,95,8
0,28,99,48
0,42,89,0
0,28,99,8
0,62,100,0
0,66,98,4
0,38,64,4
0,44,98,0
0,28,99,48
0,69,79,0
0,42,91,4
0,42,63,36
0,28,99,4
0,67,98,20
0,28,99,8
0,64,100,0
0,35,81,0
0,42,95,4
0,69,79,0
0,28,99,48
0,42,98,12
0,69,79,0
0,28,99,48
0,42,81,0
0,28,99,40
0,44,98,8
0,38,76,8
0,69,79,0
0,28,99,48
0,42,98,8
0,69,79,0
0,42,52,44
0,28,99,4
0,42,98,44
0,28,99,4
0,35,83,0
0,28,99,48
0,42,98,0
0,42,89,44
0,28,99,4
0,66,100,40
0,44,102,32
0,69,98,4
0,69,79,0
0,28,99,4
0,67,100,0
0,38,74,8
0,28,99,48
