track,note,velocity,time
1,77,62,0
1,77,0,60
1,79,48,0
1,79,0,60
1,77,56,0
1,77,0,60
1,76,48,0
1,76,0,60
1,77,61,0
1,77,0,720
1,82,55,0
1,82,0,160
1,79,46,0
1,79,0,160
1,76,45,0
1,76,0,160
1,77,50,0
1,77,0,240
1,81,43,0
1,81,0,240
1,72,50,0
1,72,0,480
1,70,46,0
1,70,0,60
1,72,41,0
1,72,0,60
1,70,46,0
1,70,0,60
1,72,41,0
1,72,0,60
1,70,46,0
1,70,0,80
1,72,43,0
1,72,0,80
1,70,43,0
1,70,0,80
1,69,50,0
1,69,0,240
1,72,43,0
1,72,0,240
1,77,50,0
1,77,0,160
1,76,41,0
1,76,0,160
1,74,41,0
1,74,0,160
1,72,47,0
1,72,0,160
1,70,40,0
1,70,0,160
1,69,40,0
1,69,0,160
1,67,50,0
1,67,0,720
1,69,43,0
1,69,0,120
1,70,38,0
1,70,0,120
1,69,47,0
1,69,0,480
1,77,64,0
1,77,0,60
1,79,51,0
1,79,0,60
1,77,56,0
1,77,0,60
1,76,50,0
1,76,0,60
1,77,57,0
1,77,0,720
1,82,50,0
1,82,0,160
1,79,46,0
1,79,0,160
1,76,45,0
1,76,0,160
1,77,50,0
1,77,0,240
1,81,43,0
1,81,0,240
1,72,50,0
1,72,0,480
1,81,50,0
1,81,0,160
1,83,46,0
1,83,0,160
1,84,46,0
1,84,0,150
1,84,54,10
1,84,0,160
1,83,48,0
1,83,0,160
1,81,48,0
1,81,0,160
1,79,53,0
1,79,0,480
1,81,50,0
1,81,0,160
1,83,47,0
1,83,0,160
1,84,47,0
1,84,0,150
1,84,53,10
1,84,0,160
1,83,46,0
1,83,0,160
1,81,46,0
1,81,0,160
1,79,50,0
1,79,0,160
1,77,44,0
1,77,0,160
1,76,44,0
1,76,0,160
1,77,48,0
1,77,0,160
1,76,45,0
1,76,0,160
1,74,45,0
1,74,0,160
1,76,50,0
1,76,0,160
1,77,46,0
1,77,0,160
1,79,46,0
1,79,0,160
1,72,50,0
1,72,0,480
1,71,46,0
1,71,0,60
1,72,41,0
1,72,0,60
1,71,46,0
1,71,0,60
1,72,41,0
1,72,0,60
1,71,46,0
1,71,0,80
1,72,43,0
1,72,0,80
1,71,43,0
1,71,0,80
1,72,50,0
1,72,0,960
1,77,64,480
1,77,0,60
1,79,51,0
1,79,0,60
1,77,56,0
1,77,0,60
1,76,51,0
1,76,0,60
1,77,62,0
1,77,0,720
1,82,50,0
1,82,0,160
1,79,46,0
1,79,0,160
1,76,45,0
1,76,0,160
1,77,50,0
1,77,0,240
1,81,43,0
1,81,0,240
1,72,50,0
1,72,0,480
1,70,46,0
1,70,0,60
1,72,41,0
1,72,0,60
1,70,46,0
1,70,0,60
1,72,41,0
1,72,0,60
1,70,46,0
1,70,0,80
1,72,43,0
1,72,0,80
1,70,43,0
1,70,0,80
1,69,50,0
1,69,0,240
1,72,43,0
1,72,0,240
1,77,50,0
1,77,0,160
1,76,41,0
1,76,0,160
1,74,41,0
1,74,0,160
1,72,47,0
1,72,0,160
1,70,40,0
1,70,0,160
1,69,40,0
1,69,0,160
1,67,50,0
1,67,0,720
1,69,43,0
1,69,0,120
1,70,38,0
1,70,0,120
1,69,47,0
1,69,0,480
1,77,64,0
1,77,0,60
1,79,51,0
1,79,0,60
1,77,56,0
1,77,0,60
1,76,54,0
1,76,0,60
1,77,65,0
1,77,0,720
1,82,58,0
1,82,0,160
1,79,46,0
1,79,0,160
1,76,45,0
1,76,0,160
1,77,50,0
1,77,0,240
1,81,43,0
1,81,0,240
1,72,50,0
1,72,0,480
1,81,50,0
1,81,0,160
1,83,46,0
1,83,0,160
1,84,46,0
1,84,0,150
1,84,54,10
1,84,0,160
1,83,48,0
1,83,0,160
1,81,48,0
1,81,0,160
1,79,53,0
1,79,0,480
1,81,50,0
1,81,0,160
1,83,47,0
1,83,0,160
1,84,47,0
1,84,0,150
1,84,53,10
1,84,0,160
1,83,46,0
1,83,0,160
1,81,46,0
1,81,0,160
1,79,50,0
1,79,0,160
1,77,44,0
1,77,0,160
1,76,44,0
1,76,0,160
1,77,48,0
1,77,0,160
1,76,45,0
1,76,0,160
1,74,45,0
1,74,0,160
1,76,50,0
1,76,0,160
1,77,46,0
1,77,0,160
1,79,46,0
1,79,0,160
1,72,50,0
1,72,0,480
1,71,46,0
1,71,0,60
1,72,41,0
1,72,0,60
1,71,46,0
1,71,0,60
1,72,41,0
1,72,0,60
1,71,46,0
1,71,0,80
1,72,43,0
1,72,0,80
1,71,43,0
1,71,0,80
1,72,50,0
1,72,0,960
1,72,50,480
1,72,0,960
1,79,50,0
1,79,0,160
1,76,46,0
1,76,0,160
1,72,45,0
1,72,0,160
1,81,50,0
1,81,0,160
1,77,45,0
1,77,0,160
1,72,45,0
1,72,0,160
1,82,55,0
1,82,0,160
1,81,48,0
1,81,0,160
1,79,48,0
1,79,0,160
1,81,54,0
1,81,0,480
1,79,53,0
1,79,0,160
1,82,50,0
1,82,0,160
1,81,47,0
1,81,0,160
1,79,51,0
1,79,0,160
1,86,55,0
1,86,0,160
1,84,49,0
1,84,0,160
1,82,54,0
1,82,0,160
1,81,50,0
1,81,0,160
1,79,45,0
1,79,0,160
1,77,50,0
1,77,0,240
1,76,43,0
1,76,0,720
1,72,45,720
1,72,0,480
1,80,53,0
1,80,0,480
1,72,48,0
1,72,0,480
1,70,40,0
1,70,0,240
1,79,49,0
1,79,0,240
1,70,40,0
1,70,0,480
1,68,40,0
1,68,0,480
1,67,43,0
1,67,0,240
1,73,50,0
1,73,0,240
1,70,46,0
1,70,0,240
1,67,47,0
1,67,0,240
1,65,43,0
1,65,0,240
1,65,47,0
1,65,0,240
1,64,39,0
1,64,0,720
1,77,64,480
1,77,0,60
1,79,51,0
1,79,0,60
1,77,56,0
1,77,0,60
1,76,51,0
1,76,0,60
1,77,64,0
1,77,0,720
1,82,55,0
1,82,0,160
1,79,46,0
1,79,0,160
1,76,45,0
1,76,0,160
1,77,50,0
1,77,0,240
1,81,43,0
1,81,0,240
1,72,50,0
1,72,0,480
1,70,46,0
1,70,0,60
1,72,41,0
1,72,0,60
1,70,46,0
1,70,0,60
1,72,41,0
1,72,0,60
1,70,46,0
1,70,0,80
1,72,43,0
1,72,0,80
1,70,43,0
1,70,0,80
1,69,50,0
1,69,0,240
1,72,43,0
1,72,0,240
1,77,50,0
1,77,0,160
1,76,41,0
1,76,0,160
1,74,41,0
1,74,0,160
1,72,47,0
1,72,0,160
1,70,40,0
1,70,0,160
1,69,40,0
1,69,0,160
1,67,50,0
1,67,0,720
1,69,43,0
1,69,0,120
1,70,38,0
1,70,0,120
1,69,47,0
1,69,0,480
1,77,64,0
1,77,0,60
1,79,51,0
1,79,0,60
1,77,56,0
1,77,0,60
1,76,54,0
1,76,0,60
1,77,63,0
1,77,0,720
1,82,55,0
1,82,0,160
1,79,46,0
1,79,0,160
1,76,45,0
1,76,0,160
1,77,50,0
1,77,0,240
1,81,43,0
1,81,0,240
1,72,50,0
1,72,0,480
1,74,50,0
1,74,0,160
1,76,46,0
1,76,0,160
1,77,46,0
1,77,0,150
1,77,54,10
1,77,0,160
1,76,48,0
1,76,0,160
1,74,48,0
1,74,0,160
1,72,51,0
1,72,0,480
1,74,50,0
1,74,0,160
1,76,47,0
1,76,0,160
1,77,47,0
1,77,0,150
1,77,53,10
1,77,0,160
1,76,46,0
1,76,0,160
1,74,43,0
1,74,0,160
1,72,57,0
1,72,0,160
1,77,49,0
1,77,0,160
1,81,53,0
1,81,0,160
1,72,57,0
1,72,0,160
1,79,49,0
1,79,0,160
1,82,55,0
1,82,0,160
1,81,57,0
1,81,0,160
1,82,46,0
1,82,0,160
1,84,46,0
1,84,0,160
1,77,50,0
1,77,0,480
1,76,46,0
1,76,0,60
1,77,41,0
1,77,0,60
1,76,46,0
1,76,0,60
1,77,41,0
1,77,0,60
1,76,46,0
1,76,0,80
1,77,43,0
1,77,0,80
1,76,43,0
1,76,0,80
1,77,50,0
1,77,0,960
1,72,50,480
1,72,0,960
1,79,50,0
1,79,0,160
1,76,46,0
1,76,0,160
1,72,45,0
1,72,0,160
1,81,50,0
1,81,0,160
1,77,45,0
1,77,0,160
1,72,45,0
1,72,0,160
1,82,55,0
1,82,0,160
1,81,48,0
1,81,0,160
1,79,48,0
1,79,0,160
1,81,54,0
1,81,0,480
1,79,53,0
1,79,0,160
1,82,50,0
1,82,0,160
1,81,47,0
1,81,0,160
1,79,51,0
1,79,0,160
1,86,54,0
1,86,0,160
1,84,49,0
1,84,0,160
1,82,54,0
1,82,0,160
1,81,50,0
1,81,0,160
1,79,45,0
1,79,0,160
1,77,50,0
1,77,0,240
1,76,43,0
1,76,0,720
1,72,45,720
1,72,0,480
1,80,53,0
1,80,0,480
1,72,48,0
1,72,0,480
1,70,40,0
1,70,0,240
1,79,49,0
1,79,0,240
1,70,40,0
1,70,0,480
1,68,40,0
1,68,0,480
1,67,43,0
1,67,0,240
1,73,50,0
1,73,0,240
1,70,46,0
1,70,0,240
1,67,47,0
1,67,0,240
1,65,43,0
1,65,0,240
1,65,47,0
1,65,0,240
1,64,39,0
1,64,0,720
1,77,65,480
1,77,0,60
1,79,51,0
1,79,0,60
1,77,56,0
1,77,0,60
1,76,53,0
1,76,0,60
1,77,64,0
1,77,0,720
1,82,55,0
1,82,0,160
1,79,46,0
1,79,0,160
1,76,45,0
1,76,0,160
1,77,50,0
1,77,0,240
1,81,43,0
1,81,0,240
1,72,50,0
1,72,0,480
1,70,46,0
1,70,0,60
1,72,41,0
1,72,0,60
1,70,46,0
1,70,0,60
1,72,41,0
1,72,0,60
1,70,46,0
1,70,0,80
1,72,43,0
1,72,0,80
1,70,43,0
1,70,0,80
1,69,50,0
1,69,0,240
1,72,43,0
1,72,0,240
1,77,50,0
1,77,0,160
1,76,41,0
1,76,0,160
1,74,41,0
1,74,0,160
1,72,47,0
1,72,0,160
1,70,40,0
1,70,0,160
1,69,40,0
1,69,0,160
1,67,50,0
1,67,0,720
1,69,43,0
1,69,0,120
1,70,38,0
1,70,0,120
1,69,47,0
1,69,0,480
1,77,66,0
1,77,0,60
1,79,51,0
1,79,0,60
1,77,56,0
1,77,0,60
1,76,54,0
1,76,0,60
1,77,66,0
1,77,0,720
1,82,55,0
1,82,0,160
1,79,46,0
1,79,0,160
1,76,45,0
1,76,0,160
1,77,50,0
1,77,0,240
1,81,43,0
1,81,0,240
1,72,50,0
1,72,0,480
1,74,50,0
1,74,0,160
1,76,46,0
1,76,0,160
1,77,46,0
1,77,0,150
1,77,54,10
1,77,0,160
1,76,48,0
1,76,0,160
1,74,48,0
1,74,0,160
1,72,51,0
1,72,0,480
1,74,50,0
1,74,0,160
1,76,47,0
1,76,0,160
1,77,47,0
1,77,0,150
1,77,53,10
1,77,0,160
1,76,46,0
1,76,0,160
1,74,43,0
1,74,0,160
1,72,53,0
1,72,0,160
1,77,47,0
1,77,0,160
1,81,50,0
1,81,0,160
1,72,56,0
1,72,0,160
1,79,49,0
1,79,0,160
1,82,53,0
1,82,0,160
1,81,61,0
1,81,0,160
1,82,46,0
1,82,0,160
1,84,46,0
1,84,0,160
1,77,50,0
1,77,0,480
1,76,46,0
1,76,0,60
1,77,41,0
1,77,0,60
1,76,46,0
1,76,0,60
1,77,41,0
1,77,0,60
1,76,46,0
1,76,0,80
1,77,43,0
1,77,0,80
1,76,43,0
1,76,0,80
1,77,55,0
1,77,0,960
1,74,42,960
1,77,50,0
1,77,0,480
1,74,0,0
1,82,50,0
1,82,0,160
1,81,46,0
1,81,0,160
1,79,45,0
1,79,0,160
1,77,50,0
1,77,0,480
1,74,55,0
1,74,0,160
1,75,48,0
1,75,0,160
1,77,48,0
1,77,0,160
1,75,55,0
1,75,0,160
1,77,48,0
1,77,0,160
1,79,48,0
1,79,0,160
1,77,53,0
1,77,0,480
1,70,44,0
1,70,0,240
1,70,45,240
1,70,0,240
1,69,46,240
1,69,0,160
1,70,40,0
1,70,0,160
1,72,40,0
1,72,0,160
1,70,45,0
1,70,0,480
1,72,45,480
1,72,0,60
1,70,40,0
1,70,0,60
1,72,46,0
1,72,0,360
1,81,46,0
1,81,0,480
1,69,38,0
1,69,0,480
1,70,45,0
1,70,0,60
1,69,40,0
1,69,0,60
1,70,46,0
1,70,0,360
1,79,46,0
1,79,0,480
1,70,38,0
1,70,0,480
1,69,51,0
1,69,0,160
1,70,41,0
1,70,0,160
1,72,41,0
1,72,0,160
1,65,45,0
1,65,0,480
1,64,41,0
1,64,0,60
1,65,36,0
1,65,0,60
1,64,41,0
1,64,0,60
1,65,36,0
1,65,0,60
1,64,41,0
1,64,0,80
1,65,38,0
1,65,0,80
1,64,38,0
1,64,0,80
1,65,49,0
1,65,0,960
1,74,42,960
1,77,50,0
1,77,0,480
1,74,0,0
1,82,50,0
1,82,0,160
1,81,46,0
1,81,0,160
1,79,45,0
1,79,0,160
1,77,50,0
1,77,0,480
1,74,55,0
1,74,0,160
1,75,48,0
1,75,0,160
1,77,48,0
1,77,0,160
1,75,55,0
1,75,0,160
1,77,48,0
1,77,0,160
1,79,48,0
1,79,0,160
1,77,53,0
1,77,0,480
1,70,44,0
1,70,0,240
1,70,45,240
1,70,0,240
1,69,46,240
1,69,0,160
1,70,40,0
1,70,0,160
1,72,40,0
1,72,0,160
1,70,45,0
1,70,0,480
1,72,45,480
1,72,0,60
1,70,40,0
1,70,0,60
1,72,46,0
1,72,0,360
1,81,46,0
1,81,0,480
1,69,38,0
1,69,0,480
1,70,45,0
1,70,0,60
1,69,40,0
1,69,0,60
1,70,46,0
1,70,0,360
1,79,46,0
1,79,0,480
1,70,38,0
1,70,0,480
1,69,51,0
1,69,0,160
1,70,41,0
1,70,0,160
1,72,41,0
1,72,0,160
1,65,45,0
1,65,0,480
1,64,41,0
1,64,0,60
1,65,36,0
1,65,0,60
1,64,41,0
1,64,0,60
1,65,36,0
1,65,0,60
1,64,41,0
1,64,0,80
1,65,38,0
1,65,0,80
1,64,38,0
1,64,0,80
1,65,49,0
1,65,0,960
1,77,50,480
1,77,0,160
1,75,46,0
1,75,0,160
1,74,40,0
1,74,0,160
1,77,50,0
1,77,0,160
1,75,45,0
1,75,0,160
1,74,41,0
1,74,0,160
1,72,51,0
1,72,0,160
1,70,46,0
1,70,0,160
1,68,41,0
1,68,0,160
1,67,54,0
1,67,0,480
1,72,50,0
1,72,0,160
1,71,45,0
1,71,0,160
1,72,41,0
1,72,0,160
1,75,53,0
1,75,0,160
1,74,47,0
1,74,0,160
1,75,47,0
1,75,0,160
1,79,50,0
1,79,0,160
1,77,46,0
1,77,0,160
1,75,40,0
1,75,0,160
1,79,50,0
1,79,0,160
1,77,45,0
1,77,0,160
1,75,41,0
1,75,0,160
1,74,51,0
1,74,0,160
1,72,46,0
1,72,0,160
1,70,41,0
1,70,0,150
1,70,50,10
1,70,0,240
1,69,43,0
1,69,0,720
1,77,47,480
1,77,0,60
1,75,42,0
1,75,0,60
1,77,48,0
1,77,0,360
1,86,48,0
1,86,0,480
1,74,39,0
1,74,0,480
1,75,47,0
1,75,0,60
1,74,42,0
1,74,0,60
1,75,48,0
1,75,0,360
1,84,48,0
1,84,0,480
1,75,39,0
1,75,0,480
1,74,51,0
1,74,0,160
1,75,41,0
1,75,0,160
1,77,41,0
1,77,0,160
1,70,45,0
1,70,0,480
1,69,41,0
1,69,0,60
1,70,36,0
1,70,0,60
1,69,41,0
1,69,0,60
1,70,36,0
1,70,0,60
1,69,41,0
1,69,0,80
1,70,38,0
1,70,0,80
1,69,38,0
1,69,0,80
1,70,49,0
1,70,0,960
1,77,50,480
1,77,0,160
1,75,46,0
1,75,0,160
1,74,40,0
1,74,0,160
1,77,50,0
1,77,0,160
1,75,45,0
1,75,0,160
1,74,41,0
1,74,0,160
1,72,51,0
1,72,0,160
1,70,46,0
1,70,0,160
1,68,41,0
1,68,0,160
