track,note,velocity,time
1,57,110,0
1,64,110,0
1,57,110,4
1,64,110,0
1,67,110,4
1,67,110,4
1,62,110,4
1,69,110,0
1,61,110,4
1,68,110,0
1,60,110,4
1,67,110,0
1,57,110,4
1,60,110,4
1,67,110,0
1,62,110,4
1,69,110,0
1,57,110,4
1,64,110,0
1,57,110,4
1,64,110,0
1,67,110,4
1,67,110,4
1,62,110,4
1,69,110,0
1,61,110,4
1,68,110,0
1,60,110,4
1,67,110,0
1,57,110,4
1,60,110,4
1,67,110,0
1,62,110,4
1,69,110,0
1,57,110,4
1,64,110,0
1,57,110,4
1,64,110,0
1,67,110,4
1,67,110,4
1,62,110,4
1,69,110,0
1,61,110,4
1,68,110,0
1,60,110,4
1,67,110,0
1,57,110,4
1,60,110,4
1,67,110,0
1,62,110,4
1,69,110,0
1,57,110,4
1,64,110,0
1,57,110,4
1,64,110,0
1,67,110,4
1,67,110,4
1,62,110,4
1,69,110,0
1,61,110,4
1,68,110,0
1,60,110,4
1,67,110,0
1,57,110,4
1,60,110,4
1,67,110,0
1,62,110,4
1,69,110,0
1,57,110,4
1,64,110,0
1,57,110,4
1,64,110,0
1,67,110,4
1,67,110,4
1,62,110,4
1,69,110,0
1,61,110,4
1,68,110,0
1,60,110,4
1,67,110,0
1,57,110,4
1,60,110,4
1,67,110,0
1,62,110,4
1,69,110,0
1,57,110,4
1,64,110,0
1,57,110,4
1,64,110,0
1,67,110,4
1,67,110,4
1,62,110,4
1,69,110,0
1,61,110,4
1,68,110,0
1,60,110,4
1,67,110,0
1,57,110,4
1,60,110,4
1,67,110,0
1,62,110,4
1,69,110,0
1,57,110,4
1,64,110,0
1,57,110,4
1,64,110,0
1,67,110,4
1,67,110,4
1,62,110,4
1,69,110,0
1,61,110,4
1,68,110,0
1,60,110,4
1,67,110,0
1,57,110,4
1,60,110,4
1,67,110,0
1,62,110,4
1,69,110,0
1,57,110,4
1,64,110,0
1,57,110,4
1,64,110,0
1,67,110,4
1,67,110,4
1,62,110,4
1,69,110,0
1,61,110,4
1,68,110,0
1,60,110,4
1,67,110,0
1,57,110,4
1,60,110,4
1,67,110,0
1,62,110,4
1,69,110,0
1,57,110,4
1,64,110,0
1,57,110,4
1,64,110,0
1,67,110,4
1,67,110,4
1,62,110,4
1,69,110,0
1,61,110,4
1,68,110,0
1,60,110,4
1,67,110,0
1,57,110,4
1,60,110,4
1,67,110,0
1,62,110,4
1,69,110,0
1,57,110,4
1,64,110,0
1,57,110,4
1,64,110,0
1,67,110,4
1,67,110,4
1,62,110,4
1,69,110,0
1,61,110,4
1,68,110,0
1,60,110,4
1,67,110,0
1,57,110,4
1,60,110,4
1,67,110,0
1,62,110,4
1,69,110,0
1,57,110,4
1,64,110,0
1,57,110,4
1,64,110,0
1,67,110,4
1,67,110,4
1,62,110,4
1,69,110,0
1,61,110,4
1,68,110,0
1,60,110,4
1,67,110,0
1,57,110,4
1,60,110,4
1,67,110,0
1,62,110,4
1,69,110,0
1,57,110,4
1,64,110,0
1,57,110,4
1,64,110,0
1,67,110,4
1,67,110,4
1,62,110,4
1,69,110,0
1,61,110,4
1,68,110,0
1,60,110,4
1,67,110,0
1,57,110,4
1,60,110,4
1,67,110,0
1,62,110,4
1,69,110,0
1,57,110,4
1,64,110,0
1,57,110,4
1,64,110,0
1,67,110,4
1,67,110,4
1,62,110,4
1,69,110,0
1,61,110,4
1,68,110,0
1,60,110,4
1,67,110,0
1,57,110,4
1,60,110,4
1,67,110,0
1,62,110,4
1,69,110,0
1,57,110,4
1,64,110,0
1,57,110,4
1,64,110,0
1,67,110,4
1,67,110,4
1,62,110,4
1,69,110,0
1,61,110,4
1,68,110,0
1,60,110,4
1,67,110,0
1,57,110,4
1,60,110,4
1,67,110,0
1,62,110,4
1,69,110,0
1,57,110,4
1,64,110,0
1,55,110,96
1,62,110,0
1,60,110,64
1,67,110,0
1,64,110,64
1,71,110,0
1,57,110,4
1,64,110,0
1,57,110,96
1,64,110,0
1,55,110,96
1,62,110,0
1,60,110,64
1,67,110,0
1,64,110,64
1,71,110,0
1,57,110,4
1,64,110,0
1,57,110,96
1,64,110,0
1,55,110,96
1,62,110,0
1,60,110,64
1,67,110,0
1,64,110,64
1,71,110,0
1,57,110,4
1,64,110,0
1,57,110,96
1,64,110,0
1,55,110,96
1,62,110,0
1,60,110,64
1,67,110,0
1,64,110,64
1,71,110,0
1,57,110,4
1,64,110,0
1,57,110,96
1,64,110,0
1,57,110,4
1,64,110,0
1,67,110,4
1,67,110,4
1,62,110,4
1,69,110,0
1,61,110,4
1,68,110,0
1,60,110,4
1,67,110,0
1,57,110,4
1,60,110,4
1,67,110,0
1,62,110,4
1,69,110,0
1,57,110,4
1,64,110,0
1,57,110,4
1,64,110,0
1,67,110,4
1,67,110,4
1,62,110,4
1,69,110,0
1,61,110,4
1,68,110,0
1,60,110,4
1,67,110,0
1,57,110,4
1,60,110,4
1,67,110,0
1,62,110,4
1,69,110,0
1,57,110,4
1,64,110,0
1,57,110,4
1,64,110,0
1,67,110,4
1,67,110,4
1,62,110,4
1,69,110,0
1,61,110,4
1,68,110,0
1,60,110,4
1,67,110,0
1,57,110,4
1,60,110,4
1,67,110,0
1,62,110,4
1,69,110,0
1,57,110,4
1,64,110,0
1,57,110,4
1,64,110,0
1,67,110,4
1,67,110,4
1,62,110,4
1,69,110,0
1,61,110,4
1,68,110,0
1,60,110,4
1,67,110,0
1,57,110,4
1,60,110,4
1,67,110,0
1,62,110,4
1,69,110,0
1,57,110,4
1,64,110,0
1,57,110,4
1,64,110,0
1,67,110,4
1,67,110,4
1,62,110,4
1,69,110,0
1,61,110,4
1,68,110,0
1,60,110,4
1,67,110,0
1,57,110,4
1,60,110,4
1,67,110,0
1,62,110,4
1,69,110,0
1,57,110,4
1,64,110,0
1,57,110,4
1,64,110,0
1,67,110,4
1,67,110,4
1,62,110,4
1,69,110,0
1,61,110,4
1,68,110,0
1,60,110,4
1,67,110,0
1,57,110,4
1,60,110,4
1,67,110,0
1,62,110,4
1,69,110,0
1,57,110,4
1,64,110,0
1,57,110,4
1,64,110,0
1,67,110,4
1,67,110,4
1,62,110,4
1,69,110,0
1,61,110,4
1,68,110,0
1,60,110,4
1,67,110,0
1,57,110,4
1,60,110,4
1,67,110,0
1,62,110,4
1,69,110,0
1,57,110,4
1,64,110,0
1,57,110,4
1,64,110,0
1,67,110,4
1,67,110,4
1,62,110,4
1,69,110,0
1,61,110,4
1,68,110,0
1,60,110,4
1,67,110,0
1,57,110,4
1,60,110,4
1,67,110,0
1,62,110,4
1,69,110,0
1,57,110,4
1,64,110,0
1,57,110,4
1,64,110,0
1,67,110,4
1,67,110,4
1,62,110,4
1,69,110,0
1,61,110,4
1,68,110,0
1,60,110,4
1,67,110,0
1,57,110,4
1,60,110,4
1,67,110,0
1,62,110,4
1,69,110,0
1,57,110,4
1,64,110,0
1,57,110,4
1,64,110,0
1,67,110,4
1,67,110,4
1,62,110,4
1,69,110,0
1,61,110,4
1,68,110,0
1,60,110,4
1,67,110,0
1,57,110,4
1,60,110,4
1,67,110,0
1,62,110,4
1,69,110,0
1,57,110,4
1,64,110,0
1,57,110,4
1,64,110,0
1,67,110,4
1,67,110,4
1,62,110,4
1,69,110,0
1,61,110,4
1,68,110,0
1,60,110,4
1,67,110,0
1,57,110,4
1,60,110,4
1,67,110,0
1,62,110,4
1,69,110,0
1,57,110,4
1,64,110,0
1,57,110,4
1,64,110,0
1,67,110,4
1,67,110,4
1,62,110,4
1,69,110,0
1,61,110,4
1,68,110,0
1,60,110,4
1,67,110,0
1,57,110,4
1,60,110,4
1,67,110,0
1,62,110,4
1,69,110,0
1,57,110,4
1,64,110,0
1,57,110,4
1,64,110,0
1,67,110,4
1,67,110,4
1,62,110,4
1,69,110,0
1,61,110,4
1,68,110,0
1,60,110,4
1,67,110,0
1,57,110,4
1,60,110,4
1,67,110,0
1,62,110,4
1,69,110,0
1,57,110,4
1,64,110,0
1,57,110,4
1,64,110,0
1,67,110,4
1,67,110,4
1,62,110,4
1,69,110,0
1,61,110,4
1,68,110,0
1,60,110,4
1,67,110,0
1,57,110,4
1,60,110,4
1,67,110,0
1,62,110,4
1,69,110,0
1,57,110,4
1,64,110,0
1,57,110,4
1,64,110,0
1,67,110,4
1,67,110,4
1,62,110,4
1,69,110,0
1,61,110,4
1,68,110,0
1,60,110,4
1,67,110,0
1,57,110,4
1,60,110,4
1,67,110,0
1,62,110,4
1,69,110,0
1,57,110,4
1,64,110,0
1,57,110,4
1,64,110,0
1,67,110,4
1,67,110,4
1,62,110,4
1,69,110,0
1,61,110,4
1,68,110,0
1,60,110,4
1,67,110,0
1,57,110,4
1,60,110,4
1,67,110,0
1,62,110,4
1,69,110,0
1,57,110,4
1,64,110,0
1,55,110,96
1,62,110,0
1,60,110,64
1,67,110,0
1,64,110,64
1,71,110,0
1,57,110,4
1,64,110,0
1,57,110,96
1,64,110,0
1,55,110,96
1,62,110,0
1,60,110,64
1,67,110,0
1,64,110,64
1,71,110,0
1,57,110,4
1,64,110,0
1,57,110,96
1,64,110,0
1,55,110,96
1,62,110,0
1,60,110,64
1,67,110,0
1,64,110,64
1,71,110,0
1,57,110,4
1,64,110,0
1,57,110,96
1,64,110,0
1,55,110,96
1,62,110,0
1,60,110,64
1,67,110,0
1,64,110,64
1,71,110,0
1,57,110,4
1,64,110,0
1,57,110,96
1,64,110,0
1,57,110,96
1,64,110,0
1,57,110,96
1,64,110,0
1,57,110,96
1,64,110,0
1,59,110,64
1,66,110,0
1,71,110,0
1,75,110,0
1,59,110,4
1,66,110,0
1,71,110,0
1,75,110,0
1,59,110,96
1,66,110,0
1,71,110,0
1,75,110,0
1,59,110,4
1,66,110,0
1,71,110,0
1,75,110,0
1,59,110,288
1,66,110,0
1,71,110,0
1,75,110,0
1,59,110,288
1,66,110,0
1,71,110,0
1,75,110,0
1,59,110,288
1,66,110,0
1,71,110,0
1,75,110,0
1,59,110,288
1,66,110,0
1,71,110,0
1,75,110,0
1,61,110,4
1,68,110,0
1,73,110,0
1,77,110,0
1,61,110,64
1,68,110,0
1,73,110,0
1,77,110,0
1,59,110,96
1,66,110,0
1,71,110,0
1,75,110,0
1,59,110,4
1,66,110,0
1,71,110,0
1,75,110,0
1,59,110,96
1,66,110,0
1,71,110,0
1,75,110,0
1,59,110,4
1,66,110,0
1,71,110,0
1,75,110,0
1,59,110,288
1,66,110,0
1,71,110,0
1,75,110,0
1,59,110,288
1,66,110,0
1,71,110,0
1,75,110,0
1,59,110,288
1,66,110,0
1,71,110,0
1,75,110,0
1,59,110,288
1,66,110,0
1,71,110,0
1,75,110,0
1,61,110,4
1,68,110,0
1,73,110,0
1,77,110,0
1,61,110,64
1,68,110,0
1,73,110,0
1,77,110,0
1,77,110,96
1,78,110,4
1,77,110,4
1,78,110,4
1,77,110,4
1,73,110,4
1,77,110,4
1,78,110,4
1,77,110,4
1,78,110,4
1,77,110,4
1,73,110,4
1,77,110,4
1,78,110,4
1,80,110,4
1,76,100,2496
1,85,100,0
1,85,100,128
1,85,100,32
1,83,100,32
1,80,100,64
1,78,100,32
1,76,100,32
1,78,100,32
1,76,100,32
1,73,100,32
1,76,100,32
1,80,100,64
1,80,100,64
1,85,100,64
1,83,100,64
1,85,100,64
1,85,100,64
1,85,100,128
1,85,100,128
1,85,100,128
1,83,100,32
1,80,100,32
1,78,100,64
1,76,100,32
1,78,100,32
1,76,100,64
1,73,100,64
1,73,100,64
1,71,100,32
1,68,100,32
1,66,100,64
1,64,100,64
1,61,100,64
1,64,100,64
1,85,100,64
1,85,100,128
1,85,100,128
1,85,100,64
1,83,100,64
1,80,100,32
1,78,100,32
1,78,100,64
1,76,100,32
1,73,100,32
1,76,100,64
1,78,100,64
1,80,100,64
1,85,100,64
1,85,100,64
1,85,100,128
1,85,100,128
1,85,100,128
1,83,100,32
1,80,100,32
1,78,100,64
1,76,100,32
1,73,100,32
1,73,100,64
1,71,100,32
1,73,100,32
1,73,100,64
1,71,100,32
1,68,100,32
1,66,100,64
1,64,100,64
1,61,100,64
1,64,100,64
1,61,100,64
1,68,100,0
1,64,100,128
1,57,100,0
1,63,100,64
1,56,100,0
1,62,100,64
1,55,100,0
1,61,100,764
1,68,100,0
1,64,100,128
1,57,100,0
1,63,100,64
1,56,100,0
1,62,100,64
1,55,100,0
1,61,100,764
1,68,100,0
1,64,100,128
1,57,100,0
1,63,100,64
1,56,100,0
1,62,100,64
1,55,100,0
1,57,110,0
1,64,110,0
1,57,110,4
1,64,110,0
1,67,110,4
1,67,110,4
1,62,110,4
1,69,110,0
1,61,110,4
1,68,110,0
1,60,110,4
1,67,110,0
1,57,110,4
1,60,110,4
1,67,110,0
1,62,110,4
1,69,110,0
1,57,110,4
1,64,110,0
1,57,110,4
1,64,110,0
1,67,110,4
1,67,110,4
1,62,110,4
1,69,110,0
1,61,110,4
1,68,110,0
1,60,110,4
1,67,110,0
1,57,110,4
1,60,110,4
1,67,110,0
1,62,110,4
1,69,110,0
1,57,110,4
1,64,110,0
1,57,110,4
1,64,110,0
1,67,110,4
1,67,110,4
1,62,110,4
1,69,110,0
1,61,110,4
1,68,110,0
1,60,110,4
1,67,110,0
1,57,110,4
1,60,110,4
1,67,110,0
1,62,110,4
1,69,110,0
1,57,110,4
1,64,110,0
1,57,110,4
1,64,110,0
1,67,110,4
1,67,110,4
1,62,110,4
1,69,110,0
1,61,110,4
1,68,110,0
1,60,110,4
1,67,110,0
1,57,110,4
1,60,110,4
1,67,110,0
1,62,110,4
1,69,110,0
1,57,110,4
1,64,110,0
1,57,110,4
1,64,110,0
1,67,110,4
1,67,110,4
1,62,110,4
1,69,110,0
1,61,110,4
1,68,110,0
1,60,110,4
1,67,110,0
1,57,110,4
1,60,110,4
1,67,110,0
1,62,110,4
1,69,110,0
1,57,110,4
1,64,110,0
1,57,110,4
1,64,110,0
1,67,110,4
1,67,110,4
1,62,110,4
1,69,110,0
1,61,110,4
1,68,110,0
1,60,110,4
1,67,110,0
1,57,110,4
1,60,110,4
1,67,110,0
1,62,110,4
1,69,110,0
1,57,110,4
1,64,110,0
1,57,110,4
1,64,110,0
1,67,110,4
1,67,110,4
1,62,110,4
1,69,110,0
1,61,110,4
1,68,110,0
1,60,110,4
1,67,110,0
1,57,110,4
1,60,110,4
1,67,110,0
1,62,110,4
1,69,110,0
1,57,110,4
1,64,110,0
1,57,110,4
1,64,110,0
1,67,110,4
1,67,110,4
1,62,110,4
1,69,110,0
1,61,110,4
1,68,110,0
1,60,110,4
1,67,110,0
1,57,110,4
1,60,110,4
1,67,110,0
1,62,110,4
1,69,110,0
1,57,110,4
1,64,110,0
1,57,110,4
1,64,110,0
1,67,110,4
1,67,110,4
1,62,110,4
1,69,110,0
1,61,110,4
1,68,110,0
1,60,110,4
1,67,110,0
1,57,110,4
1,60,110,4
1,67,110,0
1,62,110,4
1,69,110,0
1,57,110,4
1,64,110,0
1,57,110,4
1,64,110,0
1,67,110,4
1,67,110,4
1,62,110,4
1,69,110,0
1,61,110,4
1,68,110,0
1,60,110,4
1,67,110,0
1,57,110,4
1,60,110,4
1,67,110,0
1,62,110,4
1,69,110,0
1,57,110,4
1,64,110,0
1,57,110,4
1,64,110,0
1,67,110,4
1,67,110,4
1,62,110,4
1,69,110,0
1,61,110,4
1,68,110,0
1,60,110,4
1,67,110,0
1,57,110,4
1,60,110,4
1,67,110,0
1,62,110,4
1,69,110,0
1,57,110,4
1,64,110,0
1,57,110,4
1,64,110,0
1,67,110,4
1,67,110,4
1,62,110,4
1,69,110,0
1,61,110,4
1,68,110,0
1,60,110,4
1,67,110,0
1,57,110,4
1,60,110,4
1,67,110,0
1,62,110,4
1,69,110,0
1,57,110,4
1,64,110,0
1,57,110,4
1,64,110,0
1,67,110,4
1,67,110,4
1,62,110,4
1,69,110,0
1,61,110,4
1,68,110,0
1,60,110,4
