track,note,velocity,time
3,40,103,1912
3,40,103,16
3,40,99,12
3,40,102,8
3,40,103,20
3,40,102,12
3,40,103,8
3,40,101,4
3,40,101,8
3,40,103,12
3,40,101,8
3,40,99,16
3,40,99,16
3,40,98,12
3,40,99,4
3,40,101,4
3,40,99,4
3,40,103,4
3,40,101,16
3,40,101,20
3,40,101,12
3,40,102,20
3,40,103,20
3,40,103,4
3,40,103,12
3,40,98,4
3,40,101,4
3,40,100,4
3,40,103,20
3,40,103,16
3,40,101,8
3,40,98,16
3,40,100,8
3,40,102,12
3,52,101,4
3,59,100,8
3,64,103,8
3,40,101,260
3,59,98,4
3,52,103,0
3,64,100,12
3,59,99,244
3,52,100,8
3,64,99,4
3,40,98,16
3,50,98,4
3,54,98,12
3,40,101,20
3,40,101,12
3,52,103,4
3,64,100,4
3,59,101,12
3,40,101,260
3,59,103,12
3,52,101,0
3,64,99,4
3,52,101,244
3,64,98,4
3,59,101,8
3,40,101,8
3,50,102,4
3,54,101,4
3,40,102,20
3,40,103,4
3,52,98,8
3,59,103,4
3,64,99,4
3,40,99,260
3,64,99,4
3,52,103,8
3,59,100,4
3,64,103,252
3,59,99,0
3,52,103,0
3,40,103,8
3,50,101,16
3,54,98,8
3,40,99,16
3,40,99,8
3,64,102,8
3,59,100,0
3,52,102,0
3,40,102,252
3,64,99,16
3,59,102,0
3,52,101,4
3,64,101,244
3,52,101,0
3,59,99,12
3,40,98,16
3,50,99,12
3,54,102,12
3,40,98,16
3,40,101,4
3,64,103,16
3,59,102,0
3,52,99,0
3,40,102,244
3,59,102,4
3,64,100,4
3,52,102,0
3,64,102,248
3,59,103,0
3,52,100,12
3,40,98,24
3,50,101,4
3,54,101,20
3,50,102,4
3,62,99,4
3,57,102,12
3,66,103,0
3,57,99,4
3,49,100,0
3,66,98,4
3,62,102,8
3,66,102,4
3,57,103,8
3,47,103,0
3,62,101,4
3,66,102,4
3,62,99,8
3,57,101,4
3,49,103,0
3,40,101,16
3,40,101,16
3,64,98,8
3,59,100,4
3,52,98,8
3,40,102,244
3,64,98,4
3,59,100,8
3,52,98,8
3,52,102,244
3,64,103,8
3,59,100,0
3,40,102,12
3,50,99,20
3,54,99,8
3,40,98,16
3,40,101,8
3,64,101,12
3,59,98,0
3,52,102,8
3,40,99,252
3,64,100,8
3,52,99,0
3,59,103,4
3,59,98,244
3,64,99,4
3,52,98,12
3,40,103,20
3,50,102,12
3,54,100,4
3,40,100,8
3,40,103,20
3,52,101,4
3,59,98,4
3,64,99,4
3,40,98,260
3,64,98,4
3,59,98,4
3,52,102,0
3,64,102,244
3,59,99,16
3,52,100,0
3,40,103,12
3,50,103,16
3,54,98,12
3,40,99,20
3,40,100,8
3,59,102,8
3,64,102,12
3,52,100,0
3,40,98,260
3,64,103,4
3,59,99,12
3,52,101,0
3,64,101,248
3,52,103,8
3,59,99,4
3,40,99,16
3,50,101,20
3,54,98,20
3,50,101,12
3,66,102,4
3,62,103,4
3,57,100,0
3,62,99,12
3,66,100,4
3,57,101,4
3,49,98,0
3,57,101,8
3,66,103,8
3,62,99,0
3,47,101,0
3,66,103,12
3,49,101,4
3,62,100,4
3,57,102,0
3,40,101,16
3,40,101,8
3,64,103,8
3,52,101,0
3,59,100,4
3,40,100,248
3,59,101,8
3,52,100,4
3,64,101,4
3,64,99,252
3,59,100,0
3,52,100,0
3,40,99,20
3,50,102,4
3,54,101,12
3,62,99,4
3,57,99,8
3,50,102,8
3,60,103,16
3,53,99,0
3,65,98,4
3,48,98,8
3,60,100,0
3,55,99,16
3,55,103,8
3,60,102,0
3,48,102,4
3,40,103,8
3,40,103,4
3,59,103,4
3,64,98,4
3,52,100,12
3,40,103,256
3,64,102,4
3,52,99,4
3,59,100,4
3,64,102,244
3,52,99,8
3,59,101,4
3,40,101,16
3,50,101,20
3,54,99,20
3,40,103,20
3,40,98,12
3,52,101,4
3,64,103,8
3,59,98,4
3,40,102,260
3,64,101,8
3,59,102,0
3,52,99,0
3,64,103,252
3,59,103,8
3,52,102,0
3,40,98,24
3,50,103,8
3,54,100,8
3,40,102,8
3,40,101,20
3,64,103,4
3,59,99,0
3,52,99,12
3,40,102,252
3,64,102,4
3,52,100,8
3,59,98,8
3,64,103,252
3,59,100,4
3,52,100,4
3,40,98,20
3,50,101,20
3,54,99,8
3,40,102,8
3,40,98,8
3,52,101,16
3,64,103,4
3,59,103,0
3,40,101,260
3,59,103,12
3,52,98,0
3,64,98,8
3,64,102,252
3,59,99,0
3,52,100,4
3,40,99,16
3,50,99,12
3,54,101,12
3,40,98,8
3,40,103,12
3,59,101,12
3,64,98,8
3,52,103,0
3,40,103,256
3,59,101,8
3,64,101,12
3,52,98,0
3,64,102,244
3,59,101,12
3,52,100,4
3,40,98,20
3,50,98,12
3,54,100,20
3,66,100,16
3,50,101,0
3,62,101,4
3,57,102,0
3,62,103,4
3,49,100,4
3,66,102,8
3,57,102,0
3,66,100,8
3,57,103,0
3,47,103,0
3,62,101,4
3,57,98,4
3,49,98,4
3,62,98,12
3,66,100,0
3,40,98,12
3,40,103,16
3,59,103,4
3,64,98,4
3,52,100,0
3,40,103,252
3,64,99,8
3,59,101,12
3,52,99,0
3,64,103,244
3,59,100,4
3,52,101,4
3,40,100,12
3,50,100,8
3,54,101,8
3,40,98,16
3,40,102,4
3,59,99,4
3,64,103,4
3,52,102,12
3,40,99,252
3,64,103,12
3,59,101,8
3,52,98,0
3,52,99,244
3,64,103,12
3,59,100,0
3,40,99,20
3,50,103,16
3,54,100,20
3,40,98,20
3,40,101,4
3,59,101,8
3,52,100,4
3,64,102,4
3,40,101,252
3,64,101,4
3,59,98,0
3,52,99,4
3,59,101,248
3,64,100,4
3,52,98,0
3,40,103,24
3,50,99,16
3,54,99,8
3,66,101,8
3,62,99,8
3,50,102,0
3,57,102,4
3,66,103,4
3,57,99,4
3,62,98,4
3,49,98,8
3,66,98,4
3,57,101,4
3,47,100,0
3,62,102,8
3,57,102,4
3,62,103,4
3,49,101,4
3,66,103,8
3,40,102,12
3,40,98,16
3,64,98,4
3,59,98,4
3,52,99,12
3,40,101,252
3,64,99,8
3,52,103,4
3,59,98,4
3,64,103,248
3,59,99,4
3,52,100,8
3,40,103,20
3,50,101,20
3,54,98,4
3,52,98,12
3,57,99,8
3,45,103,0
3,48,102,4
3,60,98,8
3,55,101,8
3,57,102,4
3,62,101,4
3,50,100,4
3,48,99,12
3,47,98,20
3,45,98,12
3,43,101,4
3,48,102,20
3,47,103,8
3,45,101,16
3,43,101,20
3,45,99,8
3,52,100,8
3,57,102,4
3,55,99,4
3,60,101,8
3,48,99,4
3,62,99,8
3,57,100,0
3,50,101,8
3,50,102,4
3,55,99,12
3,43,98,4
3,55,98,4
3,50,101,8
3,43,102,0
3,43,101,16
3,48,103,4
3,48,101,4
3,57,101,4
3,45,103,4
3,52,98,12
3,52,103,8
3,57,98,8
3,45,100,4
3,48,102,8
3,55,101,8
3,60,103,0
3,48,99,12
3,55,100,0
3,60,99,4
3,62,102,16
3,50,103,0
3,57,98,8
3,62,98,4
3,50,98,4
3,57,100,12
3,48,103,20
3,47,102,8
3,45,103,20
3,43,103,12
3,48,99,8
3,47,102,4
3,45,100,16
3,43,101,4
3,52,100,4
3,45,99,4
3,57,101,12
3,57,103,4
3,52,101,8
3,45,102,4
3,43,98,8
3,50,100,4
3,55,100,0
3,43,103,4
3,55,103,4
3,50,101,8
3,52,99,12
3,45,102,0
3,57,98,8
3,45,102,12
3,52,103,0
3,57,99,8
3,57,103,12
3,62,99,4
3,50,103,4
3,55,102,4
3,60,98,4
3,48,99,12
3,47,100,12
3,55,100,12
3,57,99,8
3,50,100,12
3,62,103,0
3,60,101,8
3,55,102,12
3,48,101,0
3,45,100,4
3,57,100,8
3,52,100,0
3,55,98,4
3,60,99,12
3,54,101,12
3,59,102,4
3,52,99,8
3,57,102,8
3,45,98,8
3,48,100,16
3,45,102,8
3,52,102,0
3,57,99,0
3,60,100,12
3,55,102,8
3,59,102,8
3,54,100,4
3,52,101,16
3,57,99,8
3,45,100,24
3,48,101,4
3,62,99,12
3,57,99,4
3,50,101,8
3,55,98,8
3,60,102,4
3,48,102,8
3,47,103,16
3,55,99,4
3,62,101,8
3,57,101,8
3,50,101,0
3,55,101,4
3,48,102,4
3,60,100,8
3,53,98,16
3,41,100,0
3,48,103,4
3,53,98,4
3,41,101,12
3,48,101,4
3,48,99,8
3,41,98,4
3,53,100,0
3,53,101,4
3,48,100,4
3,41,98,0
3,48,101,4
3,53,102,12
3,41,103,4
3,41,102,16
3,48,102,0
3,53,101,4
3,43,100,8
3,55,98,4
3,50,99,4
3,50,102,4
3,55,101,12
3,43,100,0
3,43,98,4
3,50,101,4
3,55,101,8
3,55,102,8
3,43,102,8
3,50,102,0
3,50,103,8
3,55,103,8
3,43,102,4
3,52,102,16
3,45,103,4
3,57,98,0
3,55,101,8
3,60,100,0
3,54,99,12
3,59,99,8
3,57,100,12
3,52,103,8
3,45,99,24
3,48,101,16
3,45,102,0
3,52,101,8
3,57,98,4
3,52,102,16
3,57,102,8
3,52,98,12
3,57,100,8
3,60,101,4
3,55,98,12
3,59,103,8
3,54,99,4
3,57,102,8
3,52,100,0
3,45,103,24
3,48,100,16
3,57,101,0
3,52,103,4
3,45,102,8
3,52,99,12
3,57,99,12
3,52,100,20
3,57,101,0
3,60,103,4
3,55,100,8
3,59,100,4
3,54,99,12
3,52,99,20
3,57,100,4
3,45,98,24
3,48,101,8
3,45,103,12
3,52,98,4
3,57,99,0
3,57,100,12
3,52,99,4
3,57,101,12
3,52,101,8
3,60,101,12
3,55,103,4
3,59,99,16
3,54,101,4
3,52,102,8
3,57,98,16
3,40,100,69616
3,40,101,8
3,64,101,8
3,59,103,4
3,52,99,8
3,40,103,256
3,64,99,12
3,59,101,0
3,52,98,0
3,52,98,248
3,64,99,8
3,59,99,4
3,40,99,20
3,50,99,20
3,54,98,4
3,40,102,12
3,40,100,20
3,64,99,4
3,52,101,4
3,59,102,12
3,40,103,260
3,59,102,8
3,52,99,4
3,64,100,4
3,59,101,244
3,52,99,0
3,64,99,12
3,40,102,24
3,50,98,20
3,54,100,4
3,40,102,20
3,40,102,20
3,64,99,16
3,52,98,0
3,59,99,4
3,40,98,248
3,59,103,4
3,52,101,12
3,64,101,4
3,52,100,256
3,64,102,4
3,59,103,0
3,40,99,16
3,50,99,20
3,54,99,4
3,57,100,4
3,66,99,4
3,62,99,8
3,50,98,4
3,57,102,4
3,49,101,0
3,62,102,4
3,66,102,0
3,62,103,8
3,57,98,4
3,66,100,8
3,47,100,0
3,66,102,4
3,49,103,0
3,62,101,4
3,57,100,12
3,40,99,20
3,40,98,8
3,59,102,4
3,64,100,8
3,52,101,4
3,40,101,244
3,64,98,12
3,59,102,8
3,52,100,0
3,64,103,248
3,52,102,0
3,59,103,8
3,40,100,24
3,50,98,16
3,54,101,20
3,40,102,16
3,40,101,8
3,52,102,4
3,59,102,8
3,64,102,8
3,40,103,256
3,64,98,12
3,59,103,4
3,52,99,4
3,59,99,252
3,52,103,0
3,64,101,4
3,40,103,8
3,50,103,4
3,54,103,16
3,40,101,16
3,40,100,20
3,59,99,16
3,64,103,4
3,52,101,0
3,40,102,248
3,52,100,12
3,64,101,4
3,59,98,4
3,64,103,244
3,52,101,12
3,59,103,4
3,40,102,16
3,50,102,20
3,54,101,16
3,40,99,12
3,40,99,16
3,59,102,4
3,52,102,8
3,64,99,4
3,40,101,248
3,64,98,4
3,52,98,0
3,59,102,16
3,59,98,244
3,64,101,12
3,52,99,4
3,40,100,20
3,50,102,16
3,54,98,20
3,66,102,16
3,57,99,0
3,62,101,4
3,50,101,0
3,62,100,12
3,57,100,4
3,49,101,0
3,66,102,4
3,66,102,4
3,47,102,4
3,57,101,4
3,62,102,4
3,62,101,8
3,66,99,0
3,49,98,4
3,57,102,4
3,40,102,16
3,40,103,20
3,64,103,8
3,59,98,8
3,52,98,4
3,40,102,248
3,59,103,4
3,52,102,4
3,64,98,12
3,52,103,248
3,64,99,8
3,59,99,0
3,40,99,20
3,50,99,12
3,54,103,16
3,50,100,4
3,62,103,0
3,57,100,12
3,60,99,8
3,65,98,4
3,53,102,0
3,55,103,8
3,60,101,0
3,48,98,4
3,48,102,16
3,55,99,0
3,60,100,0
3,40,102,12
3,40,99,16
3,59,99,8
3,52,102,8
3,64,100,4
3,40,101,252
3,59,102,8
3,64,99,12
3,52,102,0
3,59,98,248
3,52,102,8
3,64,103,4
3,40,100,24
3,50,99,12
3,54,101,8
3,40,102,4
3,40,102,20
3,64,101,12
3,59,100,0
3,52,100,4
3,40,103,244
3,59,100,8
3,52,100,8
3,64,99,4
3,59,102,248
3,64,99,8
3,52,103,4
3,40,98,24
3,50,102,16
3,54,102,8
3,40,100,4
3,40,100,12
3,64,99,12
3,59,101,0
3,52,101,4
3,40,100,256
3,59,103,4
3,52,102,4
3,64,103,8
3,59,103,252
3,64,101,4
3,52,103,4
3,40,100,24
3,50,103,20
3,54,99,4
3,40,100,12
3,40,98,12
3,52,103,8
3,64,101,8
3,59,98,4
3,40,99,244
3,64,100,4
3,59,98,8
3,52,98,8
3,52,98,248
3,64,100,4
3,59,98,4
3,40,98,8
3,50,101,12
3,54,101,20
3,40,103,12
3,40,102,4
3,52,100,4
3,64,98,8
3,59,99,4
3,40,98,244
3,59,99,4
3,52,99,0
3,64,101,16
3,64,98,244
3,52,103,8
3,59,101,4
3,40,100,20
3,50,103,16
3,54,103,4
3,40,98,16
3,40,102,12
3,64,98,8
3,59,99,8
3,52,100,4
3,40,98,244
3,64,103,16
3,59,98,0
3,52,99,0
3,64,102,244
3,59,102,8
3,52,99,4
3,40,99,16
3,50,101,16
3,54,103,4
3,40,99,20
3,40,102,12
3,64,100,12
3,52,100,4
3,59,100,4
3,40,101,256
3,64,100,4
3,59,102,0
3,52,101,8
3,52,103,244
3,59,102,8
3,64,99,4
3,40,101,20
3,50,99,12
3,54,101,16
3,40,101,20
3,40,99,4
3,64,101,4
3,59,99,0
3,52,98,0
3,40,99,252
3,59,102,4
3,64,98,8
3,52,99,8
3,59,98,244
3,64,98,8
3,52,99,8
3,40,102,20
3,50,101,8
3,54,98,4
3,40,101,4
3,40,101,12
3,59,101,4
3,52,101,8
3,64,101,8
3,40,101,252
3,59,98,4
3,52,100,4
3,64,102,8
3,64,101,244
3,52,102,0
3,59,100,8
3,40,103,20
3,50,101,20
3,54,100,16
3,50,102,12
3,62,102,0
3,57,103,0
3,66,99,4
3,66,99,4
3,49,103,0
3,62,101,0
3,57,103,0
3,47,98,4
3,57,99,4
3,66,99,0
3,62,99,8
3,49,102,4
3,62,98,8
3,57,100,4
3,66,100,0
3,62,99,12
3,66,101,8
3,57,102,0
3,50,99,0
3,62,100,4
3,57,100,4
3,66,102,4
3,49,99,4
3,62,99,8
3,47,98,4
3,57,103,8
3,66,102,0
3,62,101,8
3,57,101,4
3,49,99,4
3,66,100,4
3,64,100,16
3,59,100,4
3,52,99,0
4,74,101,182400
4,74,102,112
4,71,102,24
4,69,102,4
4,69,101,12
4,71,98,12
4,67,101,20
4,67,102,4
4,69,98,24
4,71,98,12
4,69,102,8
4,67,98,16
4,64,101,20
4,64,99,20
4,67,98,20
4,64,102,12
4,64,100,16
4,62,101,20
4,59,100,12
4,62,103,12
4,64,101,24
4,67,98,8
4,64,103,12
4,67,103,8
4,64,102,4
4,62,102,8
4,59,99,12
4,64,98,8
4,62,102,20
4,59,99,8
4,62,101,12
4,59,101,20
4,55,100,0
4,57,100,8
4,59,100,12
4,57,101,12
4,55,98,16
4,57,98,20
4,55,102,4
4,57,100,12
4,55,103,8
4,57,98,12
4,59,101,16
4,57,98,16
4,55,103,16
4,52,98,4
4,50,99,16
4,52,99,8
4,54,99,4
4,55,101,4
4,57,99,8
4,55,99,8
4,57,98,20
4,59,102,8
4,62,101,8
4,64,101,4
4,67,100,20
