track,note,velocity,time
1,59,100,1152
1,66,100,0
1,62,100,64
1,69,100,0
1,71,100,64
1,64,100,0
1,71,100,64
1,64,100,0
1,71,100,32
1,64,100,0
1,71,100,32
1,64,100,0
1,69,100,64
1,62,100,0
1,71,100,64
1,64,100,0
1,69,100,64
1,64,100,0
1,69,100,32
1,64,100,0
1,71,100,32
1,64,100,0
1,78,100,320
1,74,100,0
1,69,100,0
1,62,100,0
1,62,100,32
1,69,100,0
1,74,100,0
1,78,100,0
1,78,100,32
1,74,100,0
1,69,100,0
1,62,100,0
1,59,100,256
1,66,100,0
1,62,100,64
1,69,100,0
1,71,100,64
1,64,100,0
1,71,100,64
1,64,100,0
1,71,100,32
1,64,100,0
1,71,100,32
1,64,100,0
1,69,100,64
1,62,100,0
1,71,100,64
1,64,100,0
1,69,100,64
1,64,100,0
1,69,100,32
1,64,100,0
1,71,100,32
1,64,100,0
1,78,100,320
1,74,100,0
1,69,100,0
1,62,100,0
1,62,100,32
1,69,100,0
1,74,100,0
1,78,100,0
1,78,100,32
1,74,100,0
1,69,100,0
1,62,100,0
1,57,100,256
1,71,100,128
1,64,100,0
1,71,100,64
1,64,100,0
1,71,100,64
1,64,100,0
1,64,100,64
1,71,100,64
1,64,100,0
1,71,100,64
1,64,100,0
1,71,100,64
1,64,100,0
1,64,100,64
1,71,100,64
1,64,100,0
1,71,100,64
1,64,100,0
1,57,100,128
1,78,100,64
1,74,100,0
1,69,100,0
1,62,100,0
1,78,100,32
1,74,100,0
1,69,100,0
1,62,100,0
1,76,100,96
1,73,100,0
1,69,100,0
1,64,100,0
1,57,100,0
1,76,100,32
1,73,100,0
1,69,100,0
1,64,100,0
1,57,100,0
1,64,100,96
1,71,100,64
1,64,100,0
1,71,100,64
1,64,100,0
1,64,100,64
1,71,100,64
1,64,100,0
1,71,100,64
1,64,100,0
1,71,100,64
1,64,100,0
1,64,100,64
1,71,100,64
1,64,100,0
1,71,100,64
1,64,100,0
1,57,100,128
1,78,100,64
1,74,100,0
1,69,100,0
1,62,100,0
1,78,100,32
1,74,100,0
1,69,100,0
1,62,100,0
1,76,100,96
1,73,100,0
1,69,100,0
1,64,100,0
1,57,100,0
1,76,100,32
1,73,100,0
1,69,100,0
1,64,100,0
1,57,100,0
1,64,100,96
1,71,100,64
1,64,100,0
1,71,100,64
1,64,100,0
1,64,100,64
1,71,100,64
1,64,100,0
1,71,100,64
1,64,100,0
1,71,100,64
1,64,100,0
1,64,100,64
1,71,100,64
1,64,100,0
1,71,100,64
1,64,100,0
1,57,100,128
1,78,100,64
1,74,100,0
1,69,100,0
1,62,100,0
1,78,100,32
1,74,100,0
1,69,100,0
1,62,100,0
1,76,100,96
1,73,100,0
1,69,100,0
1,64,100,0
1,57,100,0
1,76,100,32
1,73,100,0
1,69,100,0
1,64,100,0
1,57,100,0
1,64,100,96
1,71,100,64
1,64,100,0
1,71,100,64
1,64,100,0
1,64,100,64
1,71,100,64
1,64,100,0
1,71,100,64
1,64,100,0
1,71,100,64
1,64,100,0
1,64,100,64
1,71,100,64
1,64,100,0
1,71,100,64
1,64,100,0
1,57,100,128
1,78,100,64
1,74,100,0
1,69,100,0
1,62,100,0
1,78,100,32
1,74,100,0
1,69,100,0
1,62,100,0
1,76,100,96
1,73,100,0
1,69,100,0
1,64,100,0
1,57,100,0
1,76,100,32
1,73,100,0
1,69,100,0
1,64,100,0
1,57,100,0
1,78,100,96
1,74,100,0
1,69,100,0
1,62,100,0
1,78,100,192
1,74,100,0
1,69,100,0
1,62,100,0
1,78,100,128
1,74,100,0
1,69,100,0
1,62,100,0
1,78,100,64
1,74,100,0
1,69,100,0
1,62,100,0
1,57,100,64
1,59,100,64
1,60,100,32
1,59,100,32
1,57,100,64
1,59,100,64
1,60,100,32
1,59,100,32
1,57,100,64
1,59,100,64
1,57,100,32
1,57,100,32
1,78,100,64
1,74,100,0
1,69,100,0
1,62,100,0
1,78,100,192
1,74,100,0
1,69,100,0
1,62,100,0
1,78,100,128
1,74,100,0
1,69,100,0
1,62,100,0
1,78,100,64
1,74,100,0
1,69,100,0
1,62,100,0
1,57,100,64
1,59,100,64
1,60,100,32
1,59,100,32
1,57,100,64
1,59,100,64
1,60,100,32
1,59,100,32
1,57,100,64
1,59,100,64
1,57,100,32
1,57,100,32
1,64,100,64
1,71,100,0
1,71,100,64
1,64,100,0
1,71,100,64
1,64,100,0
1,64,100,64
1,71,100,64
1,64,100,0
1,71,100,64
1,64,100,0
1,71,100,64
1,64,100,0
1,64,100,64
1,71,100,64
1,64,100,0
1,71,100,64
1,64,100,0
1,57,100,128
1,78,100,64
1,74,100,0
1,69,100,0
1,62,100,0
1,78,100,32
1,74,100,0
1,69,100,0
1,62,100,0
1,76,100,96
1,73,100,0
1,69,100,0
1,64,100,0
1,57,100,0
1,76,100,32
1,73,100,0
1,69,100,0
1,64,100,0
1,57,100,0
1,64,100,96
1,71,100,0
1,71,100,64
1,64,100,0
1,71,100,64
1,64,100,0
1,64,100,64
1,71,100,64
1,64,100,0
1,71,100,64
1,64,100,0
1,71,100,64
1,64,100,0
1,64,100,64
1,71,100,64
1,64,100,0
1,71,100,64
1,64,100,0
1,57,100,128
1,78,100,64
1,74,100,0
1,69,100,0
1,62,100,0
1,78,100,32
1,74,100,0
1,69,100,0
1,62,100,0
1,76,100,96
1,73,100,0
1,69,100,0
1,64,100,0
1,57,100,0
1,76,100,32
1,73,100,0
1,69,100,0
1,64,100,0
1,57,100,0
1,64,100,96
1,71,100,0
1,71,100,64
1,64,100,0
1,71,100,64
1,64,100,0
1,64,100,64
1,71,100,64
1,64,100,0
1,71,100,64
1,64,100,0
1,71,100,64
1,64,100,0
1,64,100,64
1,71,100,64
1,64,100,0
1,71,100,64
1,64,100,0
1,57,100,128
1,78,100,64
1,74,100,0
1,69,100,0
1,62,100,0
1,78,100,32
1,74,100,0
1,69,100,0
1,62,100,0
1,76,100,96
1,73,100,0
1,69,100,0
1,64,100,0
1,57,100,0
1,76,100,32
1,73,100,0
1,69,100,0
1,64,100,0
1,57,100,0
1,64,100,96
1,71,100,0
1,71,100,64
1,64,100,0
1,71,100,64
1,64,100,0
1,64,100,64
1,71,100,64
1,64,100,0
1,71,100,64
1,64,100,0
1,71,100,64
1,64,100,0
1,64,100,64
1,71,100,64
1,64,100,0
1,71,100,64
1,64,100,0
1,57,100,128
1,78,100,64
1,74,100,0
1,69,100,0
1,62,100,0
1,78,100,32
1,74,100,0
1,69,100,0
1,62,100,0
1,76,100,96
1,73,100,0
1,69,100,0
1,64,100,0
1,57,100,0
1,76,100,32
1,73,100,0
1,69,100,0
1,64,100,0
1,57,100,0
1,64,100,96
1,71,100,0
1,71,100,64
1,64,100,0
1,71,100,64
1,64,100,0
1,64,100,64
1,71,100,64
1,64,100,0
1,71,100,64
1,64,100,0
1,71,100,64
1,64,100,0
1,64,100,64
1,71,100,64
1,64,100,0
1,71,100,64
1,64,100,0
1,57,100,128
1,59,100,64
1,66,100,0
1,66,100,64
1,59,100,0
1,69,100,64
1,62,100,0
1,71,100,128
1,64,100,0
1,71,100,64
1,64,100,0
1,71,100,32
1,64,100,0
1,71,100,32
1,64,100,0
1,69,100,64
1,62,100,0
1,64,100,64
1,71,100,0
1,69,100,64
1,64,100,0
1,69,100,32
1,64,100,0
1,71,100,32
1,64,100,0
1,78,100,320
1,74,100,0
1,62,100,0
1,69,100,0
1,78,100,32
1,74,100,0
1,69,100,0
1,62,100,0
1,78,100,32
1,74,100,0
1,69,100,0
1,62,100,0
1,66,100,256
1,59,100,0
1,62,100,64
1,69,100,0
1,71,100,64
1,64,100,0
1,71,100,64
1,64,100,0
1,71,100,32
1,64,100,0
1,71,100,32
1,64,100,0
1,69,100,64
1,62,100,0
1,64,100,64
1,71,100,0
1,69,100,64
1,64,100,0
1,69,100,32
1,64,100,0
1,71,100,32
1,64,100,0
1,78,100,320
1,74,100,0
1,62,100,0
1,69,100,0
1,78,100,32
1,74,100,0
1,69,100,0
1,62,100,0
1,78,100,32
1,74,100,0
1,69,100,0
1,62,100,0
1,78,100,256
1,74,100,0
1,69,100,0
1,62,100,0
1,62,100,128
1,69,100,64
1,74,100,64
1,78,100,64
1,74,100,64
1,69,100,64
1,78,100,64
1,74,100,64
1,62,100,64
1,69,100,64
1,74,100,64
1,78,100,64
1,74,100,64
1,69,100,64
1,78,100,64
1,74,100,64
1,62,100,64
1,72,100,64
1,77,100,64
1,81,100,64
1,77,100,64
1,72,100,64
1,81,100,64
1,77,100,64
1,62,100,64
1,72,100,64
1,77,100,64
1,81,100,64
1,77,100,64
1,72,100,64
1,81,100,64
1,77,100,64
1,62,100,64
1,69,100,64
1,74,100,64
1,78,100,64
1,74,100,64
1,69,100,64
1,78,100,64
1,74,100,64
1,62,100,64
1,69,100,64
1,74,100,64
1,78,100,64
1,74,100,64
1,69,100,64
1,78,100,64
1,74,100,64
1,62,100,64
1,72,100,64
1,77,100,64
1,81,100,64
1,77,100,64
1,72,100,64
1,81,100,64
1,77,100,64
1,62,100,64
1,72,100,64
1,77,100,64
1,81,100,64
1,77,100,64
1,72,100,64
1,81,100,64
1,77,100,64
1,78,100,64
1,74,100,0
1,69,100,0
1,62,100,0
1,78,100,192
1,74,100,0
1,69,100,0
1,62,100,0
1,78,100,128
1,74,100,0
1,69,100,0
1,62,100,0
1,78,100,64
1,74,100,0
1,69,100,0
1,62,100,0
1,57,100,64
1,59,100,64
1,60,100,32
1,59,100,32
1,57,100,64
1,59,100,64
1,60,100,32
1,59,100,32
1,57,100,64
1,59,100,64
1,57,100,32
1,57,100,32
1,62,100,64
1,64,100,64
1,67,100,64
1,67,100,64
1,64,100,64
1,62,100,128
1,64,100,64
1,67,100,64
1,67,100,64
1,64,100,64
1,62,100,384
1,64,100,64
1,67,100,64
1,67,100,64
1,64,100,64
1,62,100,128
1,64,100,64
1,62,100,32
1,71,100,32
1,74,100,64
1,76,100,64
1,76,100,256
1,78,100,64
1,78,100,64
1,76,100,64
1,74,100,32
1,76,100,32
1,74,100,32
1,71,100,32
1,69,100,64
1,67,100,64
1,64,100,64
1,62,100,128
1,64,100,64
1,67,100,64
1,67,100,64
1,64,100,64
1,62,100,128
1,64,100,64
1,62,100,32
1,71,100,32
1,74,100,64
1,69,100,64
1,67,100,64
1,71,100,64
1,69,100,64
1,67,100,64
1,64,100,64
1,62,100,64
1,64,100,64
1,67,100,64
1,67,100,64
1,64,100,64
1,58,100,128
1,57,100,64
1,78,100,64
1,74,100,0
1,69,100,0
1,62,100,0
1,78,100,192
1,74,100,0
1,69,100,0
1,62,100,0
1,78,100,128
1,74,100,0
1,69,100,0
1,62,100,0
1,78,100,64
1,74,100,0
1,69,100,0
1,62,100,0
1,57,100,64
1,59,100,64
1,60,100,32
1,59,100,32
1,57,100,64
1,59,100,64
1,60,100,32
1,59,100,32
1,57,100,64
1,59,100,64
1,57,100,32
1,57,100,32
1,64,100,64
1,71,100,0
1,71,100,64
1,64,100,0
1,71,100,64
1,64,100,0
1,64,100,64
1,71,100,64
1,64,100,0
1,71,100,64
1,64,100,0
1,71,100,64
1,64,100,0
1,64,100,64
1,71,100,64
1,64,100,0
1,71,100,64
1,64,100,0
1,57,100,128
1,78,100,64
1,74,100,0
1,69,100,0
1,62,100,0
1,78,100,32
1,74,100,0
1,69,100,0
1,62,100,0
1,76,100,96
1,73,100,0
1,69,100,0
1,64,100,0
1,57,100,0
1,76,100,32
1,73,100,0
1,69,100,0
1,64,100,0
1,57,100,0
1,64,100,96
1,71,100,0
1,71,100,64
1,64,100,0
1,71,100,64
1,64,100,0
1,64,100,64
1,71,100,64
1,64,100,0
1,71,100,64
1,64,100,0
1,71,100,64
1,64,100,0
1,64,100,64
1,71,100,64
1,64,100,0
1,71,100,64
1,64,100,0
1,57,100,128
1,78,100,64
1,74,100,0
1,69,100,0
1,62,100,0
1,78,100,32
1,74,100,0
1,69,100,0
1,62,100,0
1,76,100,96
1,73,100,0
1,69,100,0
1,64,100,0
1,57,100,0
1,76,100,32
1,73,100,0
1,69,100,0
1,64,100,0
1,57,100,0
1,64,100,96
1,71,100,0
1,71,100,64
1,64,100,0
1,71,100,64
1,64,100,0
1,64,100,64
1,71,100,64
1,64,100,0
1,71,100,64
1,64,100,0
1,71,100,64
1,64,100,0
1,64,100,64
1,71,100,64
1,64,100,0
1,71,100,64
1,64,100,0
1,57,100,128
1,78,100,64
1,74,100,0
1,69,100,0
1,62,100,0
1,78,100,32
1,74,100,0
1,69,100,0
1,62,100,0
1,76,100,96
1,73,100,0
1,69,100,0
1,64,100,0
1,57,100,0
1,76,100,32
1,73,100,0
1,69,100,0
1,64,100,0
1,57,100,0
1,64,100,96
1,71,100,0
1,71,100,64
1,64,100,0
1,71,100,64
1,64,100,0
1,64,100,64
1,71,100,64
1,64,100,0
1,71,100,64
1,64,100,0
1,71,100,64
1,64,100,0
1,64,100,64
1,71,100,64
1,64,100,0
1,71,100,64
1,64,100,0
1,57,100,128
1,78,100,64
1,74,100,0
1,69,100,0
1,62,100,0
1,78,100,32
1,74,100,0
1,69,100,0
1,62,100,0
1,76,100,96
1,73,100,0
1,69,100,0
1,64,100,0
1,57,100,0
1,76,100,32
1,73,100,0
1,69,100,0
1,64,100,0
1,57,100,0
1,64,100,96
1,71,100,0
1,71,100,64
1,64,100,0
1,71,100,64
1,64,100,0
1,64,100,64
1,71,100,64
1,64,100,0
1,71,100,64
1,64,100,0
1,71,100,64
1,64,100,0
1,64,100,64
1,71,100,64
1,64,100,0
1,71,100,64
1,64,100,0
1,57,100,128
1,78,100,64
1,74,100,0
1,69,100,0
1,62,100,0
1,78,100,32
1,74,100,0
1,69,100,0
1,62,100,0
1,76,100,96
1,73,100,0
1,69,100,0
1,64,100,0
1,57,100,0
1,76,100,32
1,73,100,0
1,69,100,0
1,64,100,0
1,57,100,0
1,78,100,96
1,74,100,0
1,69,100,0
1,62,100,0
1,78,100,192
1,74,100,0
1,69,100,0
1,62,100,0
1,78,100,128
1,74,100,0
1,69,100,0
1,62,100,0
1,78,100,64
1,74,100,0
1,69,100,0
1,62,100,0
1,57,100,64
1,59,100,64
1,60,100,32
1,59,100,32
1,57,100,64
1,59,100,64
1,60,100,32
1,59,100,32
1,57,100,64
1,59,100,64
1,57,100,32
1,57,100,32
1,78,100,64
1,74,100,0
1,69,100,0
1,62,100,0
2,69,100,7104
2,67,100,128
2,71,100,64
2,71,100,64
2,71,100,64
2,71,100,64
2,69,100,192
2,64,100,64
2,67,100,64
2,69,100,0
2,69,100,512
2,67,100,64
2,69,100,64
2,71,100,64
2,74,100,64
2,71,100,128
2,69,100,64
2,67,100,64
2,69,100,64
2,69,100,64
2,67,100,64
2,69,100,704
2,67,100,128
2,71,100,64
2,71,100,64
2,71,100,64
2,71,100,64
2,69,100,192
2,64,100,64
2,67,100,64
2,69,100,0
2,67,100,512
2,67,100,64
2,69,100,64
2,71,100,64
2,74,100,64
2,71,100,64
2,71,100,64
2,70,100,32
2,67,100,96
2,69,100,64
2,69,100,64
2,67,100,64
2,69,100,9792
2,68,100,128
2,71,100,64
2,71,100,64
2,71,100,64
2,71,100,64
2,68,100,128
2,64,100,64
2,67,100,64
2,69,100,0
2,67,100,512
2,69,100,64
2,71,100,128
2,74,100,64
2,71,100,128
2,69,100,64
2,67,100,64
2,69,100,64
2,69,100,64
2,67,100,640
2,69,100,64
2,67,100,64
2,71,100,64
2,71,100,64
2,71,100,128
2,69,100,64
2,67,100,64
2,64,100,64
2,67,100,64
2,69,100,0
2,67,100,512
2,69,100,64
2,71,100,128
2,71,100,64
2,74,100,64
2,71,100,64
2,69,100,64
2,67,100,64
2,69,100,64
2,69,100,64
2,67,100,32
2,66,100,7968
2,67,100,64
2,66,100,64
2,66,100,64
2,67,100,128
2,66,100,64
2,66,100,64
2,67,100,64
2,66,100,64
2,69,100,1088
2,70,100,64
2,69,100,64
2,69,100,64
