track,note,velocity,time
0,59,100,1466
0,71,116,0
0,57,100,2
0,69,116,0
0,56,100,2
0,68,116,0
0,57,100,2
0,69,116,0
0,56,100,2
0,68,116,0
0,54,100,2
0,66,116,0
0,56,100,2
0,68,116,0
0,54,100,2
0,66,116,0
0,52,100,2
0,64,116,0
0,54,100,2
0,66,116,0
0,42,125,96
0,83,127,2
0,30,127,0
0,54,115,0
0,57,123,0
0,61,104,0
0,64,100,0
0,36,127,0
0,46,111,0
0,66,111,34
0,37,127,10
0,42,57,0
0,68,115,4
0,37,119,42
0,66,111,10
0,37,104,6
0,38,113,0
0,39,104,0
0,42,125,0
0,68,111,4
0,37,115,14
0,28,127,6
0,76,127,0
0,36,127,0
0,37,115,0
0,42,72,0
0,64,118,2
0,37,119,8
0,64,127,8
0,28,127,4
0,90,107,0
0,42,115,0
0,30,127,20
0,88,98,0
0,36,127,10
0,42,72,0
0,66,127,6
0,87,115,4
0,56,127,0
0,56,104,2
0,59,108,0
0,63,71,0
0,66,100,0
0,38,106,0
0,39,96,0
0,42,115,0
0,85,119,6
0,36,127,0
0,30,127,4
0,73,127,0
0,42,66,0
0,28,127,2
0,54,127,0
0,57,126,0
0,61,127,0
0,61,89,0
0,64,113,0
0,78,127,0
0,83,103,0
0,56,125,0
0,33,127,18
0,36,120,0
0,42,102,0
0,42,59,8
0,32,127,10
0,64,86,8
0,66,111,2
0,38,106,8
0,39,96,0
0,42,121,0
0,68,120,6
0,32,127,2
0,68,127,0
0,71,122,0
0,76,127,0
0,36,127,0
0,42,59,0
0,28,127,2
0,73,119,0
0,80,90,0
0,32,127,22
0,71,127,0
0,73,125,0
0,83,95,0
0,42,115,0
0,68,127,38
0,83,88,4
0,37,92,0
0,42,66,0
0,30,127,8
0,71,126,0
0,37,96,0
0,83,90,0
0,38,108,0
0,39,104,0
0,40,127,0
0,42,115,0
0,37,127,36
0,30,127,24
0,85,90,0
0,42,66,0
0,28,127,16
0,30,127,14
0,54,111,0
0,57,127,0
0,61,111,0
0,64,106,0
0,36,127,0
0,46,92,0
0,71,127,2
0,76,108,0
0,76,108,0
0,59,127,12
0,73,127,2
0,75,127,0
0,75,127,0
0,42,72,0
0,59,127,2
0,73,100,0
0,73,100,0
0,76,127,0
0,68,122,2
0,71,100,0
0,71,100,0
0,78,127,0
0,38,111,0
0,39,111,0
0,42,115,0
0,59,127,0
0,69,100,0
0,73,115,0
0,73,115,0
0,28,127,4
0,59,115,0
0,68,115,0
0,36,127,0
0,42,72,0
0,59,113,0
0,64,85,2
0,68,69,0
0,68,69,0
0,71,127,0
0,78,127,0
0,28,127,2
0,59,127,0
0,73,127,0
0,80,73,0
0,42,121,0
0,30,127,2
0,76,127,0
0,83,106,0
0,78,127,2
0,36,127,0
0,42,72,0
0,83,108,34
0,56,127,0
0,56,119,22
0,59,123,0
0,63,87,0
0,66,119,0
0,38,106,0
0,39,100,0
0,42,108,0
0,71,106,40
0,71,106,0
0,85,92,0
0,36,127,0
0,30,127,6
0,69,106,0
0,69,106,0
0,42,59,0
0,28,127,10
0,54,127,0
0,57,126,0
0,61,94,0
0,64,113,0
0,68,82,0
0,68,100,0
0,56,115,0
0,33,127,0
0,66,66,0
0,66,102,0
0,68,127,0
0,36,127,0
0,42,108,0
0,35,127,2
0,68,82,0
0,68,103,0
0,69,86,0
0,71,127,0
0,33,127,2
0,64,113,0
0,64,113,0
0,68,125,0
0,73,127,0
0,42,72,0
0,69,93,2
0,73,122,0
0,76,127,0
0,32,127,2
0,59,111,0
0,68,127,0
0,76,98,0
0,78,127,0
0,38,108,0
0,39,107,0
0,42,115,0
0,78,96,6
0,59,106,22
0,73,119,0
0,36,127,0
0,42,59,0
0,66,53,2
0,66,111,0
0,76,127,0
0,32,127,2
0,64,96,0
0,64,110,0
0,42,115,0
0,66,75,2
0,66,116,0
0,64,98,28
0,64,116,0
0,71,111,0
0,37,107,0
0,42,53,0
0,28,127,6
0,59,127,0
0,37,79,0
0,66,89,26
0,66,113,0
0,38,111,0
0,39,107,0
0,40,127,0
0,42,108,0
0,59,123,6
0,28,127,0
0,61,115,0
0,61,118,0
0,42,72,0
0,30,127,28
0,61,127,0
0,83,127,0
0,30,127,0
0,54,115,0
0,57,123,0
0,61,104,0
0,64,100,0
0,36,127,0
0,46,111,0
0,61,111,56
0,37,127,44
0,42,57,0
0,59,127,38
0,37,119,32
0,59,103,16
0,37,104,0
0,38,113,0
0,39,104,0
0,42,125,0
0,67,127,14
0,59,108,8
0,37,115,0
0,71,103,0
0,68,127,6
0,28,127,14
0,59,113,0
0,36,127,0
0,37,115,0
0,42,72,0
0,61,127,20
0,37,119,0
0,67,126,0
0,28,127,12
0,90,107,0
0,42,115,0
0,71,103,2
0,68,127,0
0,30,127,20
0,88,98,0
0,68,125,2
0,71,106,0
0,68,126,10
0,36,127,0
0,42,72,0
0,87,115,28
0,56,127,0
0,64,108,6
0,67,127,6
0,56,104,4
0,59,108,0
0,63,71,0
0,66,100,0
0,68,127,0
0,38,106,0
0,39,96,0
0,42,115,0
0,68,127,2
0,71,103,4
0,85,119,6
0,36,127,0
0,30,127,4
0,68,127,0
0,42,66,0
0,68,127,14
0,71,117,2
0,28,127,2
0,54,127,0
0,57,126,0
0,59,117,0
0,61,89,0
0,64,113,0
0,78,127,0
0,83,103,0
0,56,125,0
0,33,127,4
0,36,120,0
0,42,102,0
0,64,127,88
0,42,59,0
0,32,127,20
0,73,116,24
0,76,117,26
0,78,117,0
0,38,106,0
0,39,96,0
0,42,121,0
0,80,107,4
0,32,127,2
0,76,127,0
0,36,127,0
0,42,59,0
0,28,127,2
0,80,90,0
0,80,117,6
0,32,127,22
0,61,127,0
0,83,95,0
0,42,115,0
0,80,117,16
0,59,127,54
0,78,117,0
0,83,88,0
0,37,92,0
0,42,66,0
0,30,127,8
0,37,96,0
0,76,117,2
0,78,117,6
0,83,90,4
0,38,108,0
0,39,104,0
0,40,127,0
0,42,115,0
0,73,117,22
0,37,127,10
0,30,127,24
0,76,116,0
0,85,90,0
0,42,66,0
0,28,127,16
0,30,127,14
0,54,111,0
0,57,127,0
0,61,111,0
0,64,106,0
0,36,127,0
0,46,92,0
0,71,127,2
0,73,127,2
0,42,72,0
0,76,127,2
0,78,105,26
0,80,117,16
0,78,127,0
0,38,111,0
0,39,111,0
0,42,115,0
0,83,117,2
0,85,47,8
0,28,127,4
0,36,127,0
0,42,72,0
0,71,127,2
0,78,127,0
0,28,127,2
0,73,127,0
0,80,73,0
0,83,113,0
0,85,113,0
0,42,121,0
0,80,113,2
0,30,127,2
0,76,127,0
0,83,106,0
0,83,113,0
0,80,113,2
0,78,127,2
0,78,113,0
0,80,113,0
0,36,127,0
0,42,72,0
0,78,113,2
0,76,113,2
0,83,108,0
0,56,127,0
0,78,113,0
0,56,119,2
0,59,123,0
0,63,87,0
0,66,119,0
0,73,113,0
0,76,113,0
0,38,106,0
0,39,100,0
0,42,108,0
0,76,113,2
0,73,113,2
0,85,92,0
0,36,127,0
0,71,113,2
0,30,127,2
0,73,113,0
0,42,59,0
0,68,113,2
0,71,113,0
0,56,124,6
0,28,127,2
0,54,127,0
0,57,126,0
0,61,94,0
0,64,113,0
0,56,115,0
0,59,120,24
0,33,127,2
0,36,127,0
0,42,108,0
0,35,127,2
0,61,120,0
0,71,127,0
0,33,127,2
0,73,127,0
0,42,72,0
0,64,119,2
0,73,122,2
0,76,127,0
0,56,124,6
0,32,127,0
0,59,127,0
0,76,98,0
0,78,127,0
0,38,108,0
0,39,107,0
0,42,115,0
0,64,116,6
0,66,121,8
0,78,96,6
0,52,120,22
0,36,127,0
0,42,59,0
0,61,124,4
0,76,127,2
0,64,121,6
0,32,127,10
0,42,115,0
0,66,122,20
0,37,107,0
0,42,53,0
0,28,127,6
0,37,79,0
0,38,111,36
0,39,107,0
0,40,127,0
0,42,108,0
0,28,127,0
0,42,72,0
0,30,127,28
0,30,127,0
0,36,127,0
0,46,127,0
0,54,107,0
0,56,127,0
0,57,126,0
0,61,107,0
0,64,108,0
0,30,127,12
0,36,127,0
0,46,127,0
0,54,107,2
0,56,127,0
0,57,126,0
0,61,104,0
0,64,106,0
0,30,127,4
0,36,127,0
0,46,119,0
0,54,104,2
0,56,127,0
0,57,120,0
0,61,107,0
0,64,106,0
0,30,127,4
0,36,127,0
0,46,122,0
0,54,107,8
0,56,127,0
0,57,126,0
0,61,111,0
0,64,103,0
0,30,127,0
0,36,127,0
0,46,111,0
0,54,79,44
0,57,113,0
0,61,92,0
0,64,86,0
0,68,127,0
0,42,57,0
0,68,127,24
0,54,78,16
0,57,111,0
0,61,100,0
0,64,86,0
0,68,127,0
0,38,113,0
0,39,104,0
0,42,125,0
0,28,127,24
0,54,82,0
0,57,117,0
0,61,96,0
0,64,83,0
0,66,127,0
0,36,127,0
0,42,72,0
0,64,127,10
0,56,125,0
0,28,127,44
0,54,79,0
0,57,111,0
0,61,100,0
0,64,127,0
0,64,85,0
0,42,115,0
0,30,127,16
0,54,73,10
0,57,108,0
0,61,100,0
0,64,80,0
0,66,127,0
0,36,127,0
0,42,72,0
0,56,127,10
0,54,79,42
0,57,103,0
0,61,89,0
0,64,78,0
0,38,106,0
0,39,96,0
0,42,115,0
0,36,127,16
0,30,127,96
0,54,84,0
0,57,113,0
0,61,94,0
0,64,80,0
0,42,66,0
0,28,127,8
0,64,127,0
0,37,127,0
0,33,127,20
0,66,127,0
0,36,120,0
0,42,102,0
0,64,127,34
0,56,71,46
0,59,100,0
0,61,100,0
0,64,85,0
0,66,127,0
0,42,59,0
0,32,127,26
0,64,127,0
0,56,63,38
0,59,100,0
0,61,100,0
0,64,83,0
0,66,127,0
0,38,106,0
0,39,96,0
0,42,121,0
0,32,127,56
0,56,63,0
0,59,98,0
0,61,96,0
0,64,71,0
0,68,127,0
0,36,127,0
0,42,59,0
0,28,127,12
0,32,127,24
0,56,66,0
0,59,82,0
0,61,94,0
0,64,75,0
0,66,127,0
0,42,115,0
0,56,92,102
0,59,108,0
0,61,111,0
0,64,86,0
0,42,66,0
0,30,127,18
0,56,65,18
0,59,106,0
0,63,94,0
0,66,92,0
0,38,108,0
0,39,104,0
0,40,127,0
0,42,115,0
0,30,127,90
0,56,89,0
0,59,113,0
0,63,104,0
0,66,100,0
0,42,66,0
0,28,127,10
0,37,127,0
0,30,127,36
0,36,127,0
0,46,92,0
0,54,78,76
0,57,108,0
0,61,92,0
0,64,83,0
0,68,127,0
0,42,72,0
0,68,127,16
0,54,78,64
0,57,108,0
0,61,94,0
0,64,85,0
0,68,127,0
0,38,111,0
0,39,111,0
0,42,115,0
0,28,127,22
0,54,78,0
0,57,108,0
0,61,96,0
0,64,82,0
0,66,127,0
0,36,127,0
0,42,72,0
0,64,127,28
0,56,111,0
0,28,127,44
0,54,75,0
0,57,108,0
0,61,96,0
0,64,75,0
0,66,127,0
0,42,121,0
0,30,127,22
0,54,75,2
0,57,106,0
0,61,89,0
0,64,86,0
0,36,127,0
0,42,72,0
0,56,125,18
0,54,70,16
0,57,103,0
0,61,127,0
0,61,94,0
0,64,80,0
0,38,106,0
0,39,100,0
0,42,108,0
0,36,127,6
0,30,127,68
0,54,82,0
0,57,108,0
0,61,127,0
0,61,100,0
0,64,82,0
0,42,59,0
0,28,127,0
0,37,127,0
0,33,127,36
0,73,127,0
0,36,127,0
0,42,108,0
0,35,127,46
0,73,127,0
0,33,127,22
0,56,75,0
0,59,108,0
0,61,96,0
0,64,85,0
0,68,127,0
0,42,72,0
0,71,127,6
0,32,127,96
0,56,76,0
0,59,98,0
0,61,104,0
0,64,82,0
0,38,108,0
0,39,107,0
0,42,115,0
0,56,75,10
0,59,96,0
0,61,104,0
0,64,80,0
0,68,127,0
0,36,127,0
0,42,59,0
0,32,127,74
0,56,70,0
0,59,96,0
0,61,100,0
0,64,85,0
0,73,127,0
0,42,115,0
0,73,122,10
0,56,82,36
0,59,103,0
0,61,107,0
0,64,89,0
0,68,115,0
0,42,53,0
0,28,127,8
0,71,127,0
0,56,100,96
0,59,117,0
0,63,100,0
0,66,100,0
0,38,111,0
0,39,107,0
0,40,127,0
0,42,108,0
0,28,127,0
0,56,92,0
0,59,113,0
0,63,107,0
0,66,100,0
0,68,127,0
0,42,72,0
0,30,127,0
0,37,125,0
0,68,127,0
0,30,127,0
0,36,127,0
0,46,111,0
0,66,127,18
0,54,79,10
0,57,113,0
0,61,92,0
0,64,127,0
0,64,86,0
0,68,127,0
0,42,57,0
0,68,127,24
0,54,78,16
0,57,111,0
0,61,100,0
0,64,86,0
0,68,127,0
0,38,113,0
0,39,104,0
0,42,125,0
0,28,127,30
0,54,82,0
0,57,117,0
0,61,96,0
0,64,83,0
0,66,127,0
0,36,127,0
0,42,72,0
0,64,127,10
0,56,125,0
0,28,127,44
0,54,79,0
0,57,111,0
0,61,100,0
0,64,127,0
0,64,85,0
0,42,115,0
0,30,127,16
0,54,73,2
0,57,108,0
0,61,100,0
0,64,80,0
0,66,127,0
0,36,127,0
0,42,72,0
0,56,127,10
0,54,79,42
0,57,103,0
0,61,89,0
0,64,127,0
0,64,78,0
0,38,106,0
0,39,96,0
0,42,115,0
0,36,127,16
0,30,127,96
0,54,84,0
0,57,113,0
0,61,127,0
0,61,94,0
0,64,80,0
0,42,66,0
0,28,127,8
0,64,127,0
0,37,127,0
0,33,127,20
0,66,127,0
0,36,120,0
0,42,102,0
0,56,71,92
0,59,100,0
0,61,100,0
0,64,85,0
0,66,127,0
0,42,59,0
0,32,127,26
0,56,63,82
0,59,100,0
0,61,100,0
0,64,83,0
0,66,127,0
0,38,106,0
0,39,96,0
0,42,121,0
0,64,127,16
0,32,127,2
0,56,63,0
0,59,98,0
0,61,96,0
0,64,71,0
0,66,127,0
0,36,127,0
0,42,59,0
0,28,127,12
0,68,127,0
0,32,127,22
0,56,66,0
0,59,82,0
0,61,94,0
0,64,75,0
0,66,127,0
0,42,115,0
0,56,92,22
0,59,108,0
0,61,111,0
0,64,86,0
0,42,66,0
0,30,127,18
0,56,65,18
0,59,106,0
0,63,94,0
0,66,92,0
0,38,108,0
0,39,104,0
0,40,127,0
0,42,115,0
0,30,127,90
0,56,89,0
0,59,113,0
0,63,104,0
0,66,100,0
0,42,66,0
0,28,127,10
0,37,127,0
0,30,127,36
0,36,127,0
0,46,92,0
0,54,78,76
0,57,108,0
0,61,92,0
0,64,83,0
0,42,72,0
0,68,127,16
0,54,78,34
0,57,108,0
0,61,94,0
0,64,85,0
0,76,127,0
0,38,111,0
0,39,111,0
0,42,115,0
0,75,127,2
0,28,127,46
0,54,78,0
0,57,108,0
0,61,96,0
0,64,82,0
0,36,127,0
0,42,72,0
0,73,127,6
0,56,111,0
0,28,127,44
0,54,75,0
0,57,108,0
0,61,96,0
0,64,75,0
0,42,121,0
0,30,127,22
0,54,75,6
0,57,106,0
0,61,89,0
0,64,86,0
0,71,127,0
0,36,127,0
0,42,72,0
0,71,127,18
0,56,125,0
0,54,70,38
0,57,103,0
0,61,94,0
0,64,80,0
0,38,106,0
0,39,100,0
0,42,108,0
0,36,127,6
0,30,127,96
0,54,82,0
0,57,108,0
0,61,100,0
0,64,82,0
0,42,59,0
0,28,127,0
0,68,127,0
0,37,127,0
0,33,127,36
0,71,127,0
0,36,127,0
0,42,108,0
0,35,127,48
0,71,127,0
0,33,127,22
0,56,75,0
0,59,108,0
0,61,96,0
0,64,85,0
0,71,127,0
0,42,72,0
0,68,127,6
0,32,127,28
0,56,76,0
0,59,98,0
0,61,104,0
0,64,82,0
0,71,127,0
0,38,108,0
0,39,107,0
0,42,115,0
0,73,127,14
0,56,75,26
0,59,96,0
0,61,104,0
0,64,80,0
0,68,127,0
0,36,127,0
0,42,59,0
0,32,127,74
0,56,70,0
0,59,96,0
0,61,100,0
0,64,85,0
0,42,115,0
0,56,82,10
0,59,103,0
0,61,107,0
0,64,89,0
0,42,53,0
0,28,127,8
