track,note,velocity,time
1,40,104,0
1,42,104,12
1,43,104,24
1,42,104,8
1,36,104,4
1,38,104,10
1,38,104,150
1,40,104,240
1,42,104,913
1,43,104,460
1,45,104,476
1,43,104,108
1,42,104,104
1,40,104,106
1,52,126,665
1,50,126,100
1,47,126,108
1,46,126,108
1,45,126,8
1,43,126,112
1,40,126,103
1,40,126,5
1,42,104,309
1,43,104,8
1,36,104,22
1,38,104,1235
1,38,104,108
1,40,104,228
1,42,104,966
1,43,104,440
1,45,104,0
1,43,104,120
1,42,104,107
1,40,104,106
1,33,124,940
1,35,124,108
1,38,124,103
1,40,124,24
1,28,124,90
1,28,124,89
1,28,124,40
1,28,124,46
1,28,124,100
1,28,124,48
1,28,124,50
1,28,124,104
1,28,124,36
1,28,124,52
1,28,124,114
1,28,124,46
1,28,124,50
1,28,124,132
1,28,124,46
1,28,124,50
1,28,124,110
1,28,124,37
1,28,124,52
1,28,124,110
1,28,124,46
1,28,124,46
1,28,124,113
1,28,124,52
1,28,124,51
1,28,124,103
1,28,124,40
1,28,124,46
1,28,124,100
1,28,124,48
1,28,124,50
1,28,124,104
1,28,124,36
1,28,124,52
1,28,124,114
1,28,124,46
1,28,124,50
1,28,124,132
1,28,124,46
1,28,124,50
1,28,124,110
1,28,124,37
1,28,124,52
1,28,124,110
1,28,124,46
1,28,124,46
1,28,124,113
1,28,124,52
1,28,97,36
1,28,72,108
1,28,62,56
1,28,87,54
1,28,113,112
1,28,85,60
1,28,85,52
1,28,103,102
1,28,92,60
1,28,97,65
1,28,100,106
1,28,73,46
1,28,82,52
1,28,85,84
1,28,82,56
1,28,97,46
1,28,106,100
1,28,84,50
1,28,90,53
1,28,97,95
1,28,94,56
1,28,85,53
1,28,103,78
1,28,90,50
1,28,85,56
1,28,94,100
1,28,100,55
1,28,100,59
1,28,110,99
1,28,84,52
1,28,92,68
1,28,69,122
1,28,77,56
1,28,106,64
1,28,85,96
1,28,90,53
1,28,106,56
1,28,80,90
1,28,100,70
1,28,82,54
1,28,100,86
1,28,103,64
1,28,118,62
1,28,122,128
1,28,127,64
1,33,94,22
1,35,65,118
1,38,76,65
1,40,48,100
1,28,127,32
1,28,62,80
1,28,85,58
1,28,87,56
1,28,100,108
1,28,70,62
1,28,84,70
1,28,87,81
1,28,76,48
1,28,87,52
1,28,103,112
1,28,100,52
1,28,100,58
1,28,97,88
1,28,84,53
1,28,103,62
1,28,92,80
1,28,80,54
1,28,100,56
1,28,113,90
1,28,97,52
1,28,106,65
1,28,72,74
1,28,110,56
1,28,97,56
1,28,85,72
1,28,78,56
1,28,97,55
1,28,63,62
1,28,73,54
1,28,100,60
1,28,122,70
1,28,90,62
1,28,87,52
1,28,110,80
1,28,90,53
1,28,103,70
1,28,106,92
1,28,97,55
1,28,113,74
1,28,106,96
1,28,106,60
1,28,127,80
1,28,110,136
1,28,118,60
1,43,72,4
1,42,87,130
1,40,127,92
1,38,100,76
1,36,127,18
1,36,113,74
1,38,127,483
1,28,100,0
1,28,100,112
1,28,100,48
1,28,100,74
1,28,100,104
1,28,100,48
1,28,100,55
1,28,100,102
1,28,100,60
1,28,100,65
1,28,100,108
1,28,100,62
1,28,100,57
1,28,100,106
1,28,100,56
1,28,100,56
1,28,100,121
1,28,100,50
1,28,100,56
1,28,100,80
1,28,100,52
1,28,100,52
1,28,100,128
1,28,100,58
1,28,100,54
1,28,100,118
1,28,100,53
1,28,100,52
1,28,100,72
1,28,100,50
1,28,100,54
1,28,100,72
1,28,100,56
1,28,100,52
1,28,100,86
1,28,100,54
1,28,100,70
1,28,100,96
1,28,100,48
1,28,100,60
1,28,100,96
1,28,100,50
1,28,100,62
1,28,100,105
1,28,100,48
1,28,100,60
1,28,100,121
1,28,100,52
1,28,100,58
1,28,100,82
1,28,100,57
1,28,100,56
1,28,100,80
1,28,100,62
1,28,100,58
1,28,100,76
1,28,100,46
1,28,100,62
1,28,100,80
1,28,100,56
1,28,100,55
1,28,100,64
1,28,100,53
1,28,100,46
1,28,100,96
1,28,100,52
1,28,100,49
1,28,100,90
1,28,100,44
1,28,100,54
1,28,100,108
1,28,100,58
1,28,122,56
1,28,118,120
1,28,118,60
1,28,118,60
1,28,118,120
1,28,118,60
1,28,118,60
1,28,118,120
1,28,118,60
1,28,118,60
1,28,118,60
1,28,118,60
1,28,118,60
1,28,118,60
1,28,118,60
1,28,118,60
1,28,118,60
1,28,118,60
1,28,118,60
1,28,118,60
1,28,118,60
1,28,118,60
1,28,118,60
1,28,118,60
1,28,118,60
1,28,118,60
1,28,118,60
1,28,118,60
1,28,118,60
1,28,118,60
1,28,118,60
1,28,118,60
1,28,118,60
1,28,118,60
1,28,118,60
1,28,118,60
1,28,118,60
1,28,118,120
1,28,118,60
1,28,118,60
1,28,118,120
1,28,118,60
1,28,118,60
1,28,118,120
1,28,118,60
1,33,118,120
1,35,118,60
1,38,118,60
1,40,118,60
1,28,118,0
1,28,118,60
1,28,118,60
1,28,118,60
1,28,118,120
1,28,118,60
1,28,118,60
1,28,118,60
1,28,118,60
1,28,118,60
1,28,118,60
1,28,118,60
1,28,118,60
1,28,118,60
1,28,118,60
1,28,118,60
1,28,118,60
1,28,118,60
1,28,118,60
1,28,118,120
1,28,118,60
1,28,118,60
1,28,118,120
1,28,118,60
1,28,118,60
1,28,118,60
1,28,118,60
1,28,118,60
1,28,118,60
1,28,118,60
1,28,118,60
1,28,118,60
1,28,118,60
1,28,118,60
1,28,118,60
1,28,118,60
1,28,118,60
1,28,118,120
1,28,118,60
1,28,118,60
1,28,118,120
1,28,118,60
1,28,118,60
1,28,118,180
1,28,118,60
1,43,118,0
1,42,118,0
1,40,118,120
1,38,118,60
1,36,98,0
1,36,98,0
1,38,98,0
1,38,98,0
1,38,98,0
1,36,98,0
1,36,98,0
1,38,98,0
1,38,98,0
1,36,98,0
1,36,98,0
1,38,98,0
1,38,98,0
1,40,104,0
1,42,104,0
1,43,104,0
1,42,104,0
1,36,104,0
1,38,104,0
1,38,104,120
1,40,104,240
1,42,104,0
1,43,104,0
1,45,104,0
1,43,104,120
1,42,104,0
1,40,104,120
1,52,126,660
1,50,126,0
1,47,126,0
1,46,126,120
1,45,126,0
1,43,126,0
1,40,126,60
1,40,126,0
1,42,104,300
1,43,104,0
1,36,104,0
1,38,106,1200
1,38,106,120
1,40,106,0
1,42,106,960
1,43,106,0
1,45,106,0
1,43,106,120
1,42,106,0
1,40,106,120
1,40,106,0
1,42,106,0
1,43,106,0
1,40,106,0
1,42,106,0
1,43,106,0
1,45,106,0
1,47,106,0
1,33,106,0
1,40,106,0
1,38,106,240
1,43,106,0
1,44,106,90
1,45,106,10
1,40,106,1210
1,45,106,10
1,40,106,10
1,38,106,230
1,43,106,1700
1,45,106,90
1,47,106,90
1,48,106,0
1,47,106,100
1,38,106,0
1,45,106,1920
1,45,106,0
2,59,86,0
2,52,86,0
2,61,86,0
2,54,86,0
2,62,86,0
2,55,86,0
2,48,88,0
2,55,88,0
2,50,86,60
2,57,86,0
2,50,86,120
2,57,86,0
2,52,86,0
2,59,86,0
2,54,86,0
2,61,86,0
2,62,86,480
2,55,86,0
2,57,86,0
2,64,86,0
2,62,86,120
2,55,86,0
2,54,86,0
2,61,86,0
2,59,86,120
2,52,86,0
2,59,86,120
2,52,86,0
2,61,86,0
2,54,86,0
2,55,86,0
2,62,86,0
2,48,86,0
2,55,86,0
2,50,86,60
2,50,86,60
2,57,86,0
2,50,86,0
2,57,86,0
2,50,86,60
2,57,86,0
2,59,86,0
2,52,86,0
2,54,86,0
2,61,86,0
2,62,86,0
2,55,86,0
2,64,86,0
2,57,86,0
2,62,86,120
2,55,86,0
2,61,86,0
2,54,86,0
2,52,86,0
2,59,86,0
2,48,92,23280
2,43,92,0
2,55,92,0
2,60,92,0
2,43,92,110
2,55,92,10
2,48,92,0
2,60,92,10
2,57,92,459
2,62,92,0
2,50,92,0
2,45,92,0
2,40,110,1
2,40,78,56
2,40,90,56
2,54,72,114
2,55,70,58
2,52,94,40
2,40,92,243
2,40,62,78
2,40,82,48
2,52,100,8
2,47,100,0
2,76,100,15
2,71,100,0
2,67,100,0
2,40,106,202
2,40,100,104
2,40,92,62
2,54,92,8
2,55,92,4
2,57,92,10
2,40,94,254
2,55,80,32
2,54,80,12
2,52,92,10
2,40,127,60
2,40,100,112
2,40,100,52
2,54,94,30
2,55,67,30
2,52,100,56
2,40,90,241
2,40,77,64
2,40,80,59
2,52,80,98
2,55,80,4
2,47,80,0
2,59,80,6
2,40,92,167
2,40,84,62
2,40,74,54
2,54,50,10
2,55,52,124
2,57,92,18
2,40,87,20
2,55,78,30
2,54,84,6
2,52,100,17
2,40,100,480
2,47,100,9
2,48,88,15360
2,55,88,0
2,48,88,0
2,55,88,0
2,57,88,0
2,50,88,0
2,57,88,0
2,50,88,0
2,48,88,0
2,55,88,0
2,48,88,0
2,55,88,0
2,50,88,0
2,57,88,0
2,55,88,0
2,48,88,0
2,48,88,0
2,55,88,0
2,50,88,0
2,57,88,0
2,59,88,0
2,52,88,0
2,61,86,0
2,54,86,0
2,62,86,0
2,55,86,0
2,48,88,0
2,55,88,0
2,50,86,60
2,57,86,0
2,50,86,120
2,57,86,0
2,52,86,0
2,59,86,0
2,54,86,0
2,61,86,0
2,62,86,480
2,55,86,0
2,57,86,0
2,64,86,0
2,62,86,120
2,55,86,0
2,54,86,0
2,61,86,0
2,59,86,120
2,52,86,0
2,59,86,120
2,52,86,0
2,61,86,0
2,54,86,0
2,55,86,0
2,62,86,0
2,48,86,0
2,55,86,0
2,50,86,60
2,50,86,60
2,57,86,0
2,50,86,0
2,57,86,0
2,50,86,60
2,57,86,0
2,59,86,0
2,52,86,0
2,54,86,0
2,61,86,0
2,62,86,0
2,55,86,0
2,64,86,0
2,57,86,0
2,62,86,120
2,55,86,0
2,61,86,0
2,57,86,0
2,52,86,0
2,59,86,0
2,45,88,230
2,57,88,2
2,61,88,8
2,52,88,10
2,57,88,1902
2,62,88,0
2,54,88,0
2,55,88,8
2,48,88,2
2,50,92,1894
2,57,92,10
2,43,92,0
2,50,92,0
2,55,92,0
2,57,92,1910
2,50,92,0
2,54,92,0
2,52,92,1890
2,57,92,0
2,45,92,0
2,49,92,0
3,38,122,0
3,38,122,2888
3,38,122,2902
3,38,122,2894
3,38,122,2808
3,67,124,6730
3,64,124,0
3,62,124,110
3,58,124,110
3,57,124,110
3,55,124,0
3,48,124,140
3,54,122,14400
3,55,122,490
3,57,122,0
3,55,122,140
3,54,122,110
3,52,122,0
4,69,118,0
4,69,97,72
4,69,113,106
4,69,110,84
4,69,85,100
4,67,103,66
4,69,118,10
4,69,110,68
4,69,127,320
4,69,85,76
4,72,92,57
4,69,127,92
4,69,106,149
4,67,106,67
4,69,127,36
4,67,103,64
4,66,113,96
4,67,118,16
4,64,127,56
4,67,31,13
4,59,92,12
4,71,127,6
4,71,118,79
4,71,122,98
4,71,127,96
4,69,127,184
4,67,74,78
4,69,127,112
4,69,103,86
4,69,110,364
4,69,97,82
4,72,90,120
4,69,127,90
4,69,127,174
4,67,106,12
4,69,127,22
4,67,94,270
4,66,113,90
4,67,113,38
4,64,127,70
4,64,113,74
4,66,127,40
4,67,122,36
4,66,127,32
4,64,127,231
4,62,127,18
4,64,110,8
4,62,100,978
4,62,106,74
4,64,118,4
4,67,112,20
4,64,104,0
4,71,100,7435
4,71,108,0
4,71,98,84
4,71,98,101
4,71,98,97
4,69,98,116
4,67,98,108
4,69,98,10
4,69,98,66
4,69,98,319
4,69,98,68
4,69,98,106
4,69,98,120
4,69,98,136
4,69,98,211
4,67,98,4
4,69,98,124
4,67,98,292
4,59,98,694
4,69,98,4
4,69,98,58
4,69,98,118
4,69,98,101
4,69,98,171
4,67,98,20
4,69,98,32
4,67,98,4
4,69,98,92
4,69,98,136
4,69,98,112
4,69,98,52
4,69,98,106
4,69,98,160
4,69,98,131
4,67,98,54
4,67,98,6
4,64,98,92
4,66,98,31
4,67,127,0
4,66,118,470
4,64,127,205
4,62,127,704
4,64,127,223
4,64,127,74
4,66,100,236
4,67,127,24
4,66,53,8
4,66,127,446
4,64,127,208
4,62,127,702
4,64,127,228
4,64,127,92
4,66,127,240
4,66,63,22
4,67,127,0
4,66,122,16
4,67,118,34
4,69,118,44
4,67,110,8
4,69,127,226
4,69,127,222
4,72,113,180
4,69,122,202
4,67,127,206
4,64,110,124
4,69,127,4272
4,69,122,70
4,69,127,1940
4,72,103,132
4,69,127,16
4,67,127,20
4,64,92,84
4,69,127,669
4,71,118,26
4,72,100,4
4,71,106,88
4,69,118,85
4,67,127,92
4,65,127,486
4,64,127,6
4,66,127,213
4,62,127,12
4,69,127,328
4,72,127,947
4,69,127,18
4,69,103,150
4,73,127,2
5,67,98,53760
5,69,98,1459
5,66,98,15
5,67,98,462
5,69,98,1441
5,74,98,681
5,66,98,711
5,67,98,472
5,69,98,1426
5,66,98,11
5,67,98,454
5,69,98,1432
5,74,98,18
6,64,100,53760
6,66,100,1390
6,67,100,50
6,66,100,60
6,62,100,1440
6,64,100,0
6,66,100,1370
6,67,100,60
6,66,100,0
6,67,100,720
6,62,100,0
6,64,100,480
6,66,100,1380
6,67,100,50
6,66,100,0
6,62,100,0
6,64,100,480
6,66,100,1340
6,67,100,0
6,66,100,60
6,67,100,720
6,62,100,0
7,44,127,0
7,35,127,0
7,44,110,60
7,44,85,60
7,42,127,60
7,38,64,0
7,44,100,60
7,44,87,60
7,35,100,60
7,44,118,0
7,44,97,60
7,44,77,60
7,42,122,0
7,38,84,0
7,44,94,60
7,44,69,60
7,44,94,60
7,35,90,0
7,44,97,60
7,44,85,60
7,38,100,60
7,42,122,0
7,44,94,0
7,44,55,60
7,35,106,60
7,44,92,0
7,44,122,60
7,44,84,60
7,42,127,0
7,38,90,0
7,44,103,120
7,44,80,60
7,35,118,60
7,44,94,0
7,44,103,60
7,44,92,60
7,42,103,60
7,38,103,0
7,44,118,60
7,44,87,60
7,35,113,60
7,44,110,0
7,44,118,60
7,44,106,60
7,42,122,60
7,38,106,0
7,44,118,120
7,44,70,60
7,44,94,60
7,35,97,0
7,44,113,120
7,44,84,60
7,42,110,0
7,38,100,0
7,44,100,60
7,44,84,60
7,44,94,60
7,35,113,0
7,44,118,120
7,44,87,60
7,38,90,60
7,42,113,0
7,38,118,120
7,44,127,0
7,38,90,60
7,44,77,0
7,49,100,57
7,35,106,0
7,44,82,0
7,44,110,60
7,44,94,60
7,38,127,60
7,42,77,0
7,44,100,60
7,44,60,60
7,44,78,60
7,35,106,0
7,44,113,60
7,44,80,60
7,38,113,60
7,42,103,0
7,44,118,120
7,44,73,60
7,44,84,60
7,35,100,0
7,44,118,60
7,44,84,60
7,42,103,60
7,38,92,0
7,44,92,60
7,44,63,60
7,35,127,60
7,44,73,0
7,44,100,120
7,44,84,60
7,42,113,60
7,38,78,0
7,44,110,120
7,35,122,0
7,44,76,60
7,44,77,60
7,35,103,0
7,44,110,60
7,44,78,60
7,38,100,0
7,42,106,0
7,44,110,60
7,44,69,60
7,44,97,60
7,35,100,0
7,44,85,120
7,44,82,60
7,38,92,60
7,42,106,0
7,44,78,120
7,44,56,60
7,44,85,60
7,35,90,0
7,44,110,120
7,44,87,60
7,42,92,60
7,38,103,0
7,44,118,60
7,44,60,60
7,44,92,60
7,35,103,0
7,44,110,120
7,44,59,60
7,38,103,60
7,42,118,0
7,38,106,120
7,44,122,0
7,38,90,60
7,44,74,0
7,35,100,0
7,44,82,0
7,49,104,20
7,44,113,112
7,44,76,60
7,38,92,60
7,42,110,0
7,44,122,60
7,44,65,60
7,44,73,60
7,35,106,0
7,44,103,120
7,44,85,60
7,42,106,60
7,38,97,0
7,44,94,120
7,44,59,60
7,44,84,60
7,35,110,0
7,44,118,120
7,44,62,60
7,42,106,0
7,38,100,0
7,44,113,120
7,44,84,60
7,44,80,60
7,35,118,0
7,44,103,120
7,44,70,60
7,38,103,60
7,42,106,0
7,44,113,60
