track,note,velocity,time
0,57,110,0
0,57,110,0
0,74,110,4
0,74,110,0
0,74,0,92
0,74,0,0
0,78,110,4
0,78,110,0
0,78,0,92
0,78,0,0
0,81,110,4
0,81,110,0
0,81,0,92
0,81,0,0
0,50,110,4
0,50,110,0
0,50,0,320
0,50,0,0
0,57,110,64
0,57,110,0
0,57,0,284
0,57,0,0
0,76,110,4
0,79,110,0
0,83,110,0
0,76,110,0
0,79,110,0
0,83,110,0
0,76,0,92
0,79,0,0
0,83,0,0
0,76,0,0
0,79,0,0
0,83,0,0
0,62,110,4
0,76,110,0
0,79,110,0
0,83,110,0
0,62,110,0
0,76,110,0
0,79,110,0
0,83,110,0
0,62,0,284
0,76,0,0
0,79,0,0
0,83,0,0
0,62,0,0
0,76,0,0
0,79,0,0
0,83,0,0
0,76,110,4
0,79,110,0
0,83,110,0
0,76,110,0
0,79,110,0
0,83,110,0
0,76,0,92
0,79,0,0
0,83,0,0
0,76,0,0
0,79,0,0
0,83,0,0
0,74,110,4
0,78,110,0
0,81,110,0
0,74,110,0
0,78,110,0
0,81,110,0
0,74,0,672
0,78,0,0
0,81,0,0
0,74,0,0
0,78,0,0
0,81,0,0
0,57,110,96
0,57,110,0
0,57,0,92
0,57,0,0
0,74,110,4
0,74,110,0
0,74,0,92
0,74,0,0
0,78,110,4
0,78,110,0
0,78,0,92
0,78,0,0
0,81,110,4
0,81,110,0
0,81,0,92
0,81,0,0
0,50,110,4
0,50,110,0
0,50,0,320
0,50,0,0
0,57,110,64
0,57,110,0
0,57,0,320
0,57,0,0
0,62,110,64
0,76,110,0
0,79,110,0
0,83,110,0
0,62,110,0
0,76,110,0
0,79,110,0
0,83,110,0
0,62,0,284
0,76,0,0
0,79,0,0
0,83,0,0
0,62,0,0
0,76,0,0
0,79,0,0
0,83,0,0
0,76,110,4
0,79,110,0
0,83,110,0
0,76,110,0
0,79,110,0
0,83,110,0
0,76,0,92
0,79,0,0
0,83,0,0
0,76,0,0
0,79,0,0
0,83,0,0
0,74,110,4
0,78,110,0
0,81,110,0
0,74,110,0
0,78,110,0
0,81,110,0
0,62,100,0
0,74,0,96
0,78,0,0
0,81,0,0
0,74,0,0
0,78,0,0
0,81,0,0
0,57,110,0
0,66,100,0
0,57,110,0
0,74,110,0
0,69,100,0
0,74,110,0
0,74,0,92
0,74,0,0
0,78,110,4
0,78,110,0
0,81,110,0
0,69,100,0
0,81,110,0
0,81,0,92
0,81,0,0
0,50,110,4
0,50,110,0
0,66,100,0
0,50,0,128
0,57,110,64
0,57,110,0
0,57,0,320
0,57,0,0
0,62,110,64
0,76,110,0
0,79,110,0
0,83,110,0
0,62,110,0
0,76,110,0
0,79,110,0
0,83,110,0
0,62,0,284
0,76,0,0
0,79,0,0
0,83,0,0
0,62,0,0
0,76,0,0
0,79,0,0
0,83,0,0
0,76,110,4
0,79,110,0
0,83,110,0
0,76,110,0
0,79,110,0
0,83,110,0
0,76,0,92
0,79,0,0
0,83,0,0
0,76,0,0
0,79,0,0
0,83,0,0
0,74,110,4
0,78,110,0
0,81,110,0
0,74,110,0
0,78,110,0
0,81,110,0
0,66,100,0
0,74,0,96
0,78,0,0
0,81,0,0
0,74,0,0
0,78,0,0
0,81,0,0
0,52,110,0
0,64,100,0
0,52,110,0
0,52,0,92
0,52,0,0
0,64,110,4
0,64,110,0
0,67,110,0
0,62,100,0
0,67,110,0
0,67,0,92
0,67,0,0
0,71,110,4
0,71,110,0
0,50,110,0
0,62,100,0
0,50,110,0
0,59,100,0
0,50,0,32
0,50,0,0
0,57,110,0
0,57,100,0
0,57,110,0
0,62,110,64
0,76,110,0
0,79,110,0
0,83,110,0
0,62,110,0
0,76,110,0
0,79,110,0
0,83,110,0
0,62,0,284
0,76,0,0
0,79,0,0
0,83,0,0
0,62,0,0
0,76,0,0
0,79,0,0
0,83,0,0
0,76,110,4
0,79,110,0
0,83,110,0
0,76,110,0
0,79,110,0
0,83,110,0
0,76,0,92
0,79,0,0
0,83,0,0
0,76,0,0
0,79,0,0
0,83,0,0
0,74,110,4
0,78,110,0
0,81,110,0
0,74,110,0
0,78,110,0
0,81,110,0
0,62,100,0
0,74,0,96
0,78,0,0
0,81,0,0
0,74,0,0
0,78,0,0
0,81,0,0
0,57,110,0
0,66,100,0
0,57,110,0
0,57,0,92
0,57,0,0
0,74,110,4
0,74,110,0
0,74,0,92
0,74,0,0
0,78,110,4
0,78,110,0
0,78,0,92
0,78,0,0
0,81,110,0
0,69,100,0
0,81,110,0
0,52,110,0
0,69,100,0
0,52,110,0
0,59,110,0
0,64,100,0
0,59,110,0
0,59,0,320
0,59,0,0
0,64,110,64
0,67,110,0
0,71,110,0
0,76,110,0
0,64,110,0
0,67,110,0
0,71,110,0
0,76,110,0
0,64,0,320
0,67,0,0
0,71,0,0
0,76,0,0
0,64,0,0
0,67,0,0
0,71,0,0
0,76,0,0
0,64,110,64
0,67,110,0
0,71,110,0
0,76,110,0
0,64,110,0
0,67,110,0
0,71,110,0
0,76,110,0
0,62,100,0
0,62,100,0
0,64,0,0
0,67,0,0
0,71,0,0
0,76,0,0
0,57,110,0
0,66,100,0
0,57,110,0
0,57,0,92
0,57,0,0
0,74,110,4
0,74,110,0
0,78,110,0
0,66,100,0
0,78,110,0
0,78,0,92
0,78,0,0
0,81,110,4
0,81,110,0
0,50,110,0
0,64,100,0
0,50,110,0
0,62,100,0
0,59,100,0
0,50,0,32
0,50,0,0
0,57,110,32
0,57,100,0
0,57,110,0
0,62,110,64
0,76,110,0
0,79,110,0
0,83,110,0
0,62,110,0
0,76,110,0
0,79,110,0
0,83,110,0
0,62,0,284
0,76,0,0
0,79,0,0
0,83,0,0
0,62,0,0
0,76,0,0
0,79,0,0
0,83,0,0
0,76,110,4
0,79,110,0
0,83,110,0
0,76,110,0
0,79,110,0
0,83,110,0
0,76,0,92
0,79,0,0
0,83,0,0
0,76,0,0
0,79,0,0
0,83,0,0
0,74,110,4
0,78,110,0
0,81,110,0
0,74,110,0
0,78,110,0
0,81,110,0
0,62,100,0
0,74,0,96
0,78,0,0
0,81,0,0
0,74,0,0
0,78,0,0
0,81,0,0
0,57,110,0
0,66,100,0
0,57,110,0
0,57,0,92
0,57,0,0
0,74,110,4
0,74,110,0
0,78,110,0
0,69,100,0
0,78,110,0
0,78,0,92
0,78,0,0
0,81,110,4
0,81,110,0
0,50,110,0
0,69,100,0
0,50,110,0
0,66,100,0
0,57,110,64
0,57,110,0
0,57,0,320
0,57,0,0
0,62,110,64
0,76,110,0
0,79,110,0
0,83,110,0
0,62,110,0
0,76,110,0
0,79,110,0
0,83,110,0
0,62,0,284
0,76,0,0
0,79,0,0
0,83,0,0
0,62,0,0
0,76,0,0
0,79,0,0
0,83,0,0
0,76,110,4
0,79,110,0
0,83,110,0
0,76,110,0
0,79,110,0
0,83,110,0
0,76,0,92
0,79,0,0
0,83,0,0
0,76,0,0
0,79,0,0
0,83,0,0
0,74,110,4
0,78,110,0
0,81,110,0
0,74,110,0
0,78,110,0
0,81,110,0
0,66,100,0
0,74,0,96
0,78,0,0
0,81,0,0
0,74,0,0
0,78,0,0
0,81,0,0
0,57,110,0
0,64,100,0
0,57,110,0
0,57,0,92
0,57,0,0
0,74,110,4
0,74,110,0
0,78,110,0
0,62,100,0
0,78,110,0
0,78,0,92
0,78,0,0
0,81,110,4
0,81,110,0
0,50,110,0
0,62,100,0
0,50,110,0
0,59,100,96
0,50,0,32
0,50,0,0
0,57,110,0
0,57,100,0
0,57,110,0
0,62,110,64
0,76,110,0
0,79,110,0
0,83,110,0
0,62,110,0
0,76,110,0
0,79,110,0
0,83,110,0
0,62,0,284
0,76,0,0
0,79,0,0
0,83,0,0
0,62,0,0
0,76,0,0
0,79,0,0
0,83,0,0
0,76,110,4
0,79,110,0
0,83,110,0
0,76,110,0
0,79,110,0
0,83,110,0
0,76,0,92
0,79,0,0
0,83,0,0
0,76,0,0
0,79,0,0
0,83,0,0
0,74,110,4
0,78,110,0
0,81,110,0
0,74,110,0
0,78,110,0
0,81,110,0
0,62,100,0
0,74,0,96
0,78,0,0
0,81,0,0
0,74,0,0
0,78,0,0
0,81,0,0
0,57,110,0
0,66,100,0
0,57,110,0
0,57,0,92
0,57,0,0
0,74,110,4
0,74,110,0
0,78,110,0
0,69,100,0
0,78,110,0
0,78,0,92
0,78,0,0
0,81,110,4
0,81,110,0
0,52,110,0
0,69,100,0
0,52,110,0
0,64,100,0
0,52,0,32
0,52,0,0
0,59,110,32
0,64,100,0
0,59,110,0
0,64,110,64
0,67,110,0
0,71,110,0
0,76,110,0
0,64,110,0
0,67,110,0
0,71,110,0
0,76,110,0
0,64,0,320
0,67,0,0
0,71,0,0
0,76,0,0
0,64,0,0
0,67,0,0
0,71,0,0
0,76,0,0
0,64,110,64
0,67,110,0
0,71,110,0
0,76,110,0
0,64,110,0
0,67,110,0
0,71,110,0
0,76,110,0
0,62,100,0
0,64,0,96
0,67,0,0
0,71,0,0
0,76,0,0
0,64,0,0
0,67,0,0
0,71,0,0
0,76,0,0
0,52,110,0
0,66,100,0
0,52,110,0
0,52,0,92
0,52,0,0
0,64,110,4
0,64,110,0
0,67,110,0
0,66,100,0
0,67,110,0
0,67,0,92
0,67,0,0
0,71,110,4
0,71,110,0
0,50,110,0
0,64,100,0
0,50,110,0
0,62,100,0
0,59,100,64
0,50,0,32
0,50,0,0
0,57,110,32
0,57,100,0
0,57,110,0
0,62,110,64
0,76,110,0
0,79,110,0
0,83,110,0
0,62,110,0
0,76,110,0
0,79,110,0
0,83,110,0
0,62,0,284
0,76,0,0
0,79,0,0
0,83,0,0
0,62,0,0
0,76,0,0
0,79,0,0
0,83,0,0
0,76,110,4
0,79,110,0
0,83,110,0
0,76,110,0
0,79,110,0
0,83,110,0
0,76,0,92
0,79,0,0
0,83,0,0
0,76,0,0
0,79,0,0
0,83,0,0
0,74,110,4
0,78,110,0
0,81,110,0
0,74,110,0
0,78,110,0
0,81,110,0
0,74,0,672
0,78,0,0
0,81,0,0
0,74,0,0
0,78,0,0
0,81,0,0
0,57,110,96
0,57,110,0
0,57,0,92
0,57,0,0
0,74,110,4
0,74,110,0
0,74,0,92
0,74,0,0
0,78,110,4
0,78,110,0
0,78,0,92
0,78,0,0
0,81,110,4
0,81,110,0
0,81,0,92
0,81,0,0
0,55,110,4
0,55,110,0
0,55,0,188
0,55,0,0
0,67,110,4
0,67,110,0
0,67,0,188
0,67,0,0
0,71,110,4
0,71,110,0
0,71,0,188
0,71,0,0
0,74,110,4
0,74,110,0
0,74,0,188
0,74,0,0
0,79,110,0
0,67,100,0
0,79,110,0
0,79,0,188
0,79,0,0
0,74,110,4
0,74,110,0
0,71,110,4
0,71,110,0
0,71,0,92
0,71,0,0
0,54,110,0
0,71,100,0
0,54,110,0
0,54,0,188
0,54,0,0
0,66,110,4
0,66,110,0
0,69,110,0
0,69,100,0
0,69,110,0
0,69,0,188
0,69,0,0
0,73,110,4
0,73,110,0
0,66,110,0
0,71,100,0
0,66,110,0
0,66,0,188
0,66,0,0
0,69,110,4
0,69,110,0
0,52,110,0
0,66,100,0
0,52,110,0
0,52,0,188
0,52,0,0
0,64,110,4
0,64,110,0
0,67,110,0
0,64,100,0
0,67,110,0
0,67,0,188
0,67,0,0
0,71,110,4
0,71,110,0
0,71,0,188
0,71,0,0
0,59,110,4
0,76,110,0
0,59,110,0
0,76,110,0
0,59,0,188
0,76,0,0
0,59,0,0
0,76,0,0
0,71,110,0
0,62,100,0
0,71,110,0
0,52,110,0
0,64,100,0
0,52,110,0
0,52,0,188
0,52,0,0
0,64,110,4
0,64,110,0
0,64,0,188
0,64,0,0
0,59,110,4
0,67,110,0
0,59,110,0
0,67,110,0
0,71,110,4
0,71,110,0
0,71,0,188
0,71,0,0
0,59,110,4
0,76,110,0
0,59,110,0
0,76,110,0
0,59,0,188
0,76,0,0
0,59,0,0
0,76,0,0
0,71,110,4
0,71,110,0
0,71,0,188
0,71,0,0
0,55,110,4
0,55,110,0
0,55,0,188
0,55,0,0
0,67,110,4
0,67,110,0
0,67,0,188
0,67,0,0
0,71,110,4
0,71,110,0
0,71,0,188
0,71,0,0
0,74,110,4
0,74,110,0
0,74,0,188
0,74,0,0
0,79,110,0
0,67,100,0
0,79,110,0
0,79,0,188
0,79,0,0
0,74,110,4
0,74,110,0
0,71,110,4
0,71,110,0
0,71,0,92
0,71,0,0
0,54,110,0
0,71,100,0
0,54,110,0
0,54,0,188
0,54,0,0
0,66,110,4
0,66,110,0
0,69,110,0
0,69,100,0
0,69,110,0
0,69,0,188
0,69,0,0
0,73,110,4
0,73,110,0
0,66,110,0
0,71,100,0
0,66,110,0
0,66,0,188
0,66,0,0
0,69,110,4
0,69,110,0
0,52,110,0
0,66,100,0
0,52,110,0
0,52,0,188
0,52,0,0
0,64,110,4
0,64,110,0
0,67,110,0
0,64,100,0
0,67,110,0
0,67,0,188
0,67,0,0
0,71,110,4
0,71,110,0
0,71,0,188
0,71,0,0
0,59,110,4
0,76,110,0
0,59,110,0
0,76,110,0
0,59,0,188
0,76,0,0
0,59,0,0
0,76,0,0
0,71,110,0
0,62,100,0
0,71,110,0
0,52,110,0
0,64,100,0
0,52,110,0
0,52,0,188
0,52,0,0
0,64,110,4
0,64,110,0
0,64,0,188
0,64,0,0
0,59,110,4
0,67,110,0
0,59,110,0
0,67,110,0
0,71,110,4
0,71,110,0
0,71,0,188
0,71,0,0
0,59,110,4
0,76,110,0
0,59,110,0
0,76,110,0
0,59,0,188
0,76,0,0
0,59,0,0
0,76,0,0
0,71,110,4
0,71,110,0
0,71,0,188
0,71,0,0
0,57,110,4
0,57,110,0
0,57,0,188
0,57,0,0
0,69,110,4
0,69,110,0
0,69,0,188
0,69,0,0
0,73,110,4
0,73,110,0
0,73,0,188
0,73,0,0
0,76,110,4
0,76,110,0
0,76,0,188
0,76,0,0
0,64,110,4
0,76,110,0
0,64,110,0
0,76,110,0
0,64,0,188
0,76,0,0
0,64,0,0
0,76,0,0
0,73,110,4
0,73,110,0
0,73,0,92
0,73,0,0
0,69,110,4
0,69,110,0
0,69,0,92
0,69,0,0
0,55,110,4
0,55,110,0
0,55,0,188
0,55,0,0
0,67,110,4
0,67,110,0
0,67,0,188
0,67,0,0
0,71,110,4
0,71,110,0
0,71,0,188
0,71,0,0
0,74,110,4
0,74,110,0
0,74,0,188
0,74,0,0
0,62,110,4
0,71,110,0
0,62,110,0
0,71,110,0
0,62,0,188
0,71,0,0
0,62,0,0
0,71,0,0
0,67,110,4
0,67,110,0
0,67,0,188
0,67,0,0
0,59,110,4
0,59,110,0
0,59,0,188
0,59,0,0
0,66,110,4
0,66,110,0
0,66,0,188
0,66,0,0
0,69,110,4
0,69,110,0
0,69,0,188
0,69,0,0
0,74,110,4
0,74,110,0
0,74,0,188
0,74,0,0
0,78,110,4
0,78,110,0
0,78,0,188
0,78,0,0
0,74,110,4
0,74,110,0
0,74,0,188
0,74,0,0
0,59,110,4
0,66,110,0
0,71,110,0
0,74,110,0
0,59,110,0
0,66,110,0
0,71,110,0
0,74,110,0
0,59,0,672
0,66,0,0
0,71,0,0
0,74,0,0
0,59,0,0
0,66,0,0
0,71,0,0
0,74,0,0
0,57,110,96
0,76,110,0
0,57,110,0
0,76,110,0
0,57,0,92
0,76,0,0
0,57,0,0
0,76,0,0
0,69,110,4
0,69,110,0
0,69,0,92
0,69,0,0
0,73,110,4
0,73,110,0
0,73,0,92
0,73,0,0
0,76,110,4
0,76,110,0
0,76,0,92
0,76,0,0
0,59,110,4
0,59,110,0
0,59,0,92
0,59,0,0
0,66,110,4
0,66,110,0
0,66,0,92
0,66,0,0
0,71,110,4
0,71,110,0
0,71,0,92
0,71,0,0
0,74,110,4
0,74,110,0
0,74,0,92
0,74,0,0
0,59,110,4
0,66,110,0
0,71,110,0
0,74,110,0
0,78,110,0
0,59,110,0
0,66,110,0
