track,note,velocity,time
0,52,112,19
0,57,113,0
0,64,120,0
0,57,0,47
0,59,85,2
0,64,0,180
0,52,0,2
0,57,95,8
0,64,118,0
0,52,102,3
0,59,0,54
0,57,0,2
0,59,80,24
0,64,0,198
0,52,0,2
0,57,98,8
0,52,103,2
0,64,126,0
0,59,0,44
0,59,82,7
0,57,0,33
0,59,0,93
0,52,0,2
0,64,0,3
0,52,66,8
0,57,103,2
0,52,0,87
0,57,0,4
0,59,92,0
0,62,85,99
0,59,0,3
0,64,90,93
0,62,0,3
0,52,68,93
0,57,101,0
0,64,0,0
0,52,0,86
0,57,0,19
0,59,80,2
0,59,0,80
0,62,90,2
0,62,0,104
0,59,89,3
0,52,112,88
0,57,113,0
0,64,120,0
0,59,0,3
0,57,0,83
0,59,85,2
0,64,0,187
0,52,0,2
0,57,95,8
0,64,118,0
0,52,102,3
0,59,0,54
0,57,0,2
0,59,80,24
0,64,0,198
0,52,0,2
0,57,98,8
0,52,103,2
0,64,126,0
0,59,0,44
0,59,82,7
0,57,0,33
0,52,0,95
0,64,0,3
0,59,0,1
0,52,66,7
0,57,102,2
0,52,0,87
0,57,0,13
0,59,92,2
0,59,0,86
0,62,85,2
0,62,0,105
0,64,90,2
0,64,0,80
0,52,68,5
0,57,100,0
0,52,0,86
0,57,0,5
0,59,80,2
0,40,92,85
0,40,0,4
0,35,101,6
0,62,88,1
0,40,127,2
0,59,0,2
0,40,0,2
0,59,89,90
0,62,0,0
0,59,0,27
0,35,0,2
0,40,112,2
0,35,110,3
0,49,72,0
0,52,112,1
0,52,112,0
0,57,113,0
0,57,113,0
0,64,120,0
0,35,0,3
0,49,0,0
0,57,0,83
0,57,0,0
0,59,85,2
0,59,85,0
0,40,0,2
0,40,87,2
0,40,0,94
0,40,83,2
0,35,102,3
0,40,116,0
0,46,65,0
0,35,0,4
0,40,0,0
0,46,0,0
0,44,1,56
0,44,0,4
0,64,0,20
0,52,0,2
0,52,0,0
0,40,0,5
0,40,82,2
0,57,95,1
0,57,95,0
0,64,118,0
0,52,102,3
0,52,102,0
0,59,0,54
0,59,0,0
0,57,0,2
0,57,0,0
0,59,80,24
0,59,80,0
0,40,0,10
0,40,88,2
0,35,104,3
0,46,66,0
0,35,0,4
0,46,0,0
0,44,1,60
0,44,0,4
0,40,0,23
0,40,76,2
0,64,0,90
0,52,0,2
0,52,0,0
0,40,0,2
0,40,74,2
0,35,103,3
0,40,118,0
0,46,62,0
0,57,98,1
0,57,98,0
0,52,103,2
0,52,103,0
0,64,126,0
0,35,0,1
0,40,0,0
0,46,0,0
0,59,0,43
0,59,0,0
0,59,82,7
0,59,82,0
0,44,1,10
0,44,0,4
0,57,0,19
0,57,0,0
0,40,0,4
0,40,84,2
0,52,0,89
0,52,0,0
0,59,0,3
0,64,0,0
0,40,0,2
0,45,102,2
0,35,109,3
0,46,68,0
0,52,66,1
0,52,66,0
0,59,0,0
0,57,100,2
0,57,105,0
0,35,0,1
0,46,0,0
0,44,1,66
0,44,0,4
0,45,0,1
0,52,0,15
0,52,0,0
0,47,97,3
0,57,0,1
0,57,0,0
0,59,92,0
0,59,92,0
0,47,0,77
0,59,0,14
0,59,0,0
0,50,101,4
0,35,103,3
0,40,120,0
0,46,65,0
0,62,85,1
0,62,85,0
0,35,0,3
0,40,0,0
0,46,0,0
0,44,1,56
0,44,0,4
0,50,0,11
0,52,113,18
0,62,0,2
0,62,0,0
0,64,90,2
0,64,90,0
0,52,0,74
0,45,108,18
0,64,0,2
0,64,0,0
0,35,110,1
0,46,66,0
0,52,68,1
0,52,68,0
0,57,99,0
0,57,99,0
0,35,0,3
0,46,0,0
0,44,1,60
0,44,0,4
0,45,0,7
0,47,116,18
0,52,0,2
0,52,0,0
0,57,0,2
0,57,0,0
0,59,80,2
0,59,80,0
0,47,0,72
0,59,0,17
0,59,0,0
0,50,110,1
0,62,90,1
0,62,90,0
0,35,104,2
0,40,116,0
0,46,62,0
0,35,0,4
0,40,0,0
0,46,0,0
0,50,0,71
0,52,105,18
0,62,0,1
0,62,0,0
0,59,89,2
0,59,89,0
0,52,0,75
0,40,99,18
0,59,0,2
0,59,0,0
0,35,109,1
0,49,73,0
0,52,112,1
0,52,112,0
0,57,113,0
0,57,113,0
0,64,120,0
0,35,0,3
0,49,0,0
0,57,0,83
0,57,0,0
0,59,85,2
0,59,85,0
0,40,0,2
0,40,81,2
0,40,0,94
0,40,70,2
0,35,100,3
0,40,117,0
0,46,65,0
0,35,0,4
0,40,0,0
0,46,0,0
0,44,1,56
0,44,0,4
0,64,0,20
0,52,0,2
0,52,0,0
0,40,0,5
0,40,82,2
0,57,95,1
0,57,95,0
0,64,118,0
0,52,102,3
0,52,102,0
0,59,0,54
0,59,0,0
0,57,0,2
0,57,0,0
0,59,80,24
0,59,80,0
0,40,0,10
0,40,84,2
0,35,107,3
0,46,66,0
0,35,0,4
0,46,0,0
0,44,1,60
0,44,0,4
0,40,0,23
0,40,79,2
0,64,0,90
0,52,0,2
0,52,0,0
0,40,0,2
0,40,80,2
0,35,101,3
0,40,118,0
0,46,62,0
0,57,98,1
0,57,98,0
0,52,103,2
0,52,103,0
0,64,126,0
0,35,0,1
0,40,0,0
0,46,0,0
0,59,0,43
0,59,0,0
0,59,82,7
0,59,82,0
0,44,1,10
0,44,0,4
0,57,0,19
0,57,0,0
0,40,0,4
0,40,81,2
0,52,0,89
0,52,0,0
0,59,0,3
0,64,0,0
0,40,0,2
0,45,103,2
0,35,111,3
0,46,66,0
0,57,105,0
0,57,101,0
0,52,66,1
0,52,66,0
0,59,0,0
0,35,0,3
0,46,0,0
0,44,1,66
0,44,0,4
0,45,0,1
0,47,94,18
0,52,0,2
0,52,0,0
0,59,92,2
0,59,92,0
0,57,0,3
0,57,0,0
0,47,0,71
0,50,109,18
0,59,0,2
0,59,0,0
0,35,104,1
0,40,116,0
0,46,70,0
0,62,85,1
0,62,85,0
0,35,0,3
0,40,0,0
0,46,0,0
0,50,0,71
0,52,102,18
0,62,0,2
0,62,0,0
0,64,90,2
0,64,90,0
0,52,0,74
0,45,118,18
0,64,0,2
0,64,0,0
0,35,106,1
0,46,58,0
0,52,68,1
0,52,68,0
0,57,99,0
0,57,101,0
0,35,0,3
0,46,0,0
0,40,25,60
0,40,0,4
0,45,0,7
0,40,31,5
0,40,0,4
0,57,0,8
0,57,0,0
0,47,108,1
0,59,80,1
0,59,80,0
0,52,0,1
0,52,0,0
0,40,24,1
0,40,0,4
0,40,16,7
0,40,0,4
0,40,69,42
0,40,0,4
0,47,0,14
0,59,0,17
0,59,0,0
0,50,110,1
0,62,88,1
0,62,88,0
0,35,101,2
0,40,118,0
0,35,0,4
0,40,0,0
0,50,0,71
0,62,0,17
0,62,0,0
0,52,100,1
0,59,89,1
0,59,89,0
0,52,0,77
0,59,0,15
0,59,0,0
0,40,91,3
0,35,110,3
0,49,80,0
0,52,89,0
0,78,119,0
0,40,94,1
0,52,91,2
0,79,119,0
0,35,0,1
0,49,0,0
0,78,0,10
0,52,0,1
0,40,0,7
0,52,0,0
0,79,0,65
0,40,0,4
0,52,80,1
0,40,88,1
0,40,68,3
0,52,66,1
0,79,101,0
0,52,0,14
0,52,0,3
0,40,0,2
0,40,0,71
0,40,80,2
0,40,76,1
0,52,79,0
0,35,102,2
0,40,110,0
0,46,65,0
0,52,67,3
0,35,0,1
0,40,0,0
0,46,0,0
0,52,0,11
0,52,0,5
0,40,0,2
0,44,1,38
0,44,0,4
0,79,0,14
0,40,0,13
0,52,87,1
0,40,79,1
0,40,79,1
0,52,68,2
0,79,119,1
0,52,0,13
0,52,0,4
0,40,0,4
0,40,0,69
0,40,83,2
0,40,85,1
0,52,76,0
0,52,75,0
0,35,104,2
0,46,66,0
0,35,0,4
0,46,0,0
0,52,0,8
0,52,0,8
0,40,0,2
0,44,1,42
0,44,0,4
0,79,0,10
0,40,0,13
0,52,91,1
0,40,81,1
0,40,85,1
0,52,70,0
0,79,119,5
0,52,0,9
0,52,0,6
0,40,0,4
0,40,0,69
0,40,87,2
0,40,82,1
0,52,87,0
0,52,68,0
0,35,103,2
0,40,100,0
0,46,62,0
0,35,0,4
0,40,0,0
0,46,0,0
0,52,0,8
0,52,0,8
0,40,0,2
0,44,1,42
0,44,0,4
0,79,0,13
0,40,0,10
0,40,87,2
0,40,82,1
0,52,87,0
0,52,69,0
0,79,116,3
0,52,0,11
0,52,0,8
0,40,0,2
0,40,0,69
0,40,87,2
0,40,84,1
0,52,81,0
0,35,109,2
0,46,68,0
0,52,92,1
0,35,0,3
0,46,0,0
0,52,0,8
0,40,0,10
0,52,0,1
0,44,1,47
0,44,0,4
0,79,0,12
0,40,0,5
0,40,87,2
0,40,84,1
0,52,76,0
0,52,90,3
0,76,119,2
0,52,0,9
0,40,0,10
0,52,0,1
0,40,0,68
0,40,86,2
0,40,89,1
0,35,103,2
0,40,90,0
0,46,65,0
0,52,72,0
0,52,85,1
0,35,0,3
0,40,0,0
0,46,0,0
0,52,0,10
0,40,0,8
0,52,0,1
0,44,1,37
0,44,0,4
0,76,0,18
0,40,0,9
0,40,84,2
0,40,87,1
0,52,87,2
0,52,66,1
0,76,116,2
0,52,0,12
0,40,0,7
0,52,0,0
0,40,0,69
0,40,86,2
0,40,84,1
0,35,110,2
0,46,66,0
0,52,91,1
0,52,68,0
0,35,0,3
0,46,0,0
0,52,0,11
0,40,0,7
0,52,0,1
0,44,1,41
0,44,0,4
0,76,0,18
0,40,0,5
0,40,88,2
0,40,84,1
0,52,91,0
0,52,67,3
0,76,109,2
0,52,0,12
0,52,0,5
0,40,0,2
0,40,0,69
0,40,84,2
0,40,84,1
0,35,104,2
0,40,84,0
0,46,62,0
0,52,85,1
0,52,67,2
0,35,0,1
0,40,0,0
0,46,0,0
0,52,0,11
0,40,0,7
0,52,0,1
0,40,0,68
0,40,87,2
0,40,87,1
0,52,87,0
0,52,70,0
0,64,44,11
0,52,0,3
0,52,0,8
0,40,0,2
0,64,0,12
0,76,0,48
0,40,0,9
0,38,108,2
0,38,98,1
0,50,94,0
0,35,109,2
0,46,65,0
0,50,73,0
0,35,0,4
0,46,0,0
0,74,119,0
0,50,0,10
0,50,0,6
0,38,0,2
0,44,1,38
0,44,0,4
0,74,0,25
0,38,0,2
0,38,100,1
0,38,92,1
0,50,84,1
0,50,65,2
0,74,112,4
0,50,0,10
0,38,0,6
0,50,0,0
0,38,0,71
0,38,100,1
0,38,94,1
0,50,92,1
0,50,65,0
0,35,100,2
0,40,66,0
0,46,65,0
0,35,0,4
0,40,0,0
0,46,0,0
0,50,0,8
0,38,0,8
0,50,0,0
0,44,1,40
0,44,0,4
0,74,0,12
0,38,0,15
0,38,88,1
0,38,93,1
0,50,91,1
0,50,67,0
0,74,116,5
0,50,0,9
0,38,0,8
0,50,0,0
0,38,0,71
0,38,91,1
0,38,93,1
0,50,76,1
0,35,101,2
0,46,66,0
0,50,87,1
0,35,0,3
0,46,0,0
0,50,0,8
0,38,0,8
0,50,0,3
0,44,1,41
0,44,0,4
0,74,0,11
0,38,0,12
0,38,86,2
0,38,98,1
0,50,91,0
0,50,77,3
0,78,116,2
0,50,0,12
0,50,0,5
0,38,0,2
0,38,0,69
0,38,87,2
0,38,92,1
0,35,103,2
0,40,118,0
0,46,62,0
0,50,89,0
0,50,75,1
0,35,0,3
0,40,0,0
0,46,0,0
0,50,0,11
0,38,0,7
0,50,0,0
0,44,1,42
0,44,0,4
0,38,0,23
0,50,93,1
0,38,86,1
0,38,101,1
0,78,0,0
0,35,74,2
0,50,65,1
0,35,0,3
0,50,0,11
0,50,0,3
0,38,0,4
0,38,0,69
0,43,124,2
0,35,119,3
0,43,99,0
0,46,86,0
0,49,73,0
0,55,106,1
0,62,89,0
0,67,102,0
0,55,111,2
0,62,108,0
0,67,105,0
0,78,113,0
0,35,0,1
0,46,0,0
0,49,0,0
0,43,0,10
0,55,0,72
0,62,0,0
0,67,0,1
0,78,0,0
0,62,0,2
0,55,0,1
0,67,0,0
0,43,0,1
0,38,120,2
0,38,102,1
0,76,110,0
0,35,106,2
0,46,70,0
0,49,68,0
0,57,101,0
0,50,90,1
0,62,99,0
0,62,91,0
0,50,108,2
0,57,88,0
0,35,0,1
0,46,0,0
0,49,0,0
0,76,0,189
0,38,0,86
0,50,0,0
0,50,0,0
0,57,0,2
0,57,0,0
0,76,119,0
0,62,0,1
0,38,0,1
0,47,123,2
0,52,111,1
0,62,0,0
0,35,102,2
0,46,63,0
0,49,75,0
0,40,104,1
0,59,97,0
0,59,99,0
0,64,105,0
0,64,106,0
0,52,114,2
0,35,0,1
0,46,0,0
0,49,0,0
0,47,0,39
0,50,103,2
0,50,0,46
0,52,79,2
0,59,0,82
0,52,0,2
0,64,0,3
0,59,0,3
0,40,92,1
0,40,0,1
0,52,0,2
0,40,0,1
0,50,91,1
0,43,123,1
0,55,120,0
0,40,127,2
0,62,93,0
0,67,92,0
0,52,0,1
0,55,109,0
0,62,104,0
0,62,101,0
0,67,127,0
0,67,107,0
0,40,0,3
0,64,0,2
0,62,0,72
0,67,0,0
0,76,0,0
0,55,0,8
0,55,0,4
0,62,0,0
0,50,0,1
0,43,0,1
0,62,0,0
0,47,79,1
0,67,0,1
0,67,0,1
0,47,0,92
0,40,91,2
0,35,110,3
0,49,80,0
0,52,89,0
0,40,94,1
0,79,119,0
0,52,91,2
0,35,0,1
0,49,0,0
0,52,0,11
0,40,0,7
0,52,0,0
0,79,0,65
0,40,0,4
0,52,80,1
0,40,88,1
0,40,68,3
0,52,66,1
0,79,107,0
0,52,0,14
0,52,0,3
0,40,0,2
0,40,0,71
0,40,80,2
0,40,76,1
0,52,79,0
0,35,102,2
0,40,110,0
0,46,65,0
0,52,67,3
0,35,0,1
0,40,0,0
0,46,0,0
0,79,0,8
0,52,0,3
0,52,0,5
0,40,0,2
0,44,1,38
0,44,0,4
0,40,0,27
0,52,87,1
0,40,79,1
0,40,79,1
0,52,68,2
0,79,119,1
0,52,0,13
0,52,0,4
0,40,0,4
0,40,0,69
0,40,83,2
0,40,85,1
0,52,76,0
0,52,75,0
0,35,104,2
0,46,66,0
0,35,0,4
0,46,0,0
0,52,0,8
0,52,0,8
0,40,0,2
0,44,1,42
0,44,0,4
0,79,0,13
0,40,0,10
0,52,91,1
0,40,81,1
0,40,85,1
0,52,70,0
0,79,118,5
0,52,0,9
0,52,0,6
0,40,0,4
0,40,0,69
0,40,87,2
0,40,82,1
0,52,87,0
0,52,68,0
0,35,103,2
0,40,100,0
0,46,62,0
0,35,0,4
0,40,0,0
0,46,0,0
0,52,0,8
0,52,0,8
0,40,0,2
0,44,1,42
0,44,0,4
0,79,0,13
0,40,0,10
0,40,87,2
0,40,82,1
0,52,87,0
0,52,69,0
0,79,119,5
0,52,0,9
0,52,0,8
0,40,0,2
0,40,0,69
0,40,87,2
0,40,84,1
0,52,81,0
0,35,109,2
0,46,68,0
0,52,92,1
0,35,0,3
0,46,0,0
0,52,0,8
0,40,0,10
0,52,0,1
0,44,1,47
0,44,0,4
0,79,0,8
0,40,0,9
0,40,87,2
0,40,84,1
0,52,76,0
0,52,90,3
0,76,113,0
0,52,0,11
0,40,0,10
0,52,0,1
0,40,0,68
0,40,86,2
0,40,89,1
0,35,103,2
0,40,90,0
0,46,65,0
0,52,72,0
0,52,85,1
0,35,0,3
0,40,0,0
0,46,0,0
0,52,0,10
0,40,0,8
0,52,0,1
0,44,1,37
0,44,0,4
0,40,0,27
0,40,84,2
0,40,87,1
0,52,87,2
0,52,66,1
0,76,0,11
0,52,0,3
0,40,0,7
0,52,0,0
0,40,0,69
0,40,86,2
0,40,84,1
0,35,110,2
0,46,66,0
0,52,91,1
0,52,68,0
0,76,109,0
0,35,0,3
0,46,0,0
0,52,0,11
0,40,0,7
0,52,0,1
0,44,1,41
0,44,0,4
0,40,0,23
0,76,0,1
0,40,88,1
0,40,84,1
