track,note,velocity,time
1,46,80,4800
1,46,0,240
1,49,80,0
1,49,0,240
1,49,80,0
1,49,0,120
1,51,80,0
1,51,0,120
1,51,80,0
1,51,0,240
1,54,80,0
1,54,0,60
1,53,80,0
1,53,0,60
1,54,80,0
1,54,0,60
1,53,80,0
1,53,0,60
1,54,80,0
1,54,0,60
1,53,80,0
1,53,0,60
1,49,80,0
1,49,0,120
1,49,80,0
1,49,0,120
1,51,80,0
1,51,0,120
1,51,80,0
1,51,0,240
1,46,80,0
1,46,0,240
1,49,80,0
1,49,0,240
1,49,80,0
1,49,0,120
1,51,80,0
1,51,0,120
1,51,80,0
1,51,0,240
1,54,80,0
1,54,0,60
1,53,80,0
1,53,0,60
1,54,80,0
1,54,0,60
1,53,80,0
1,53,0,60
1,54,80,0
1,54,0,60
1,53,80,0
1,53,0,60
1,49,80,0
1,49,0,120
1,49,80,0
1,49,0,120
1,51,80,0
1,51,0,120
1,51,80,0
1,51,0,240
1,46,80,0
1,46,0,240
1,49,80,0
1,49,0,240
1,49,80,0
1,49,0,120
1,51,80,0
1,51,0,120
1,51,80,0
1,51,0,240
1,54,80,0
1,54,0,60
1,53,80,0
1,53,0,60
1,54,80,0
1,54,0,60
1,53,80,0
1,53,0,60
1,54,80,0
1,54,0,60
1,53,80,0
1,53,0,60
1,49,80,0
1,49,0,120
1,49,80,0
1,49,0,120
1,51,80,0
1,51,0,120
1,51,80,0
1,51,0,240
1,46,80,0
1,46,0,120
1,46,80,0
1,46,0,240
1,49,80,0
1,49,0,240
1,46,80,0
1,46,0,240
1,45,80,0
1,45,0,120
1,44,80,0
1,44,0,120
1,44,80,0
1,44,0,120
1,44,80,0
1,44,0,240
1,42,80,0
1,42,0,60
1,44,80,0
1,44,0,120
1,44,80,0
1,44,0,120
1,44,80,0
1,44,0,60
1,44,80,0
1,44,0,60
1,39,80,0
1,39,0,60
1,46,80,0
1,46,0,120
1,46,80,0
1,46,0,240
1,49,80,0
1,49,0,240
1,46,80,0
1,46,0,240
1,45,80,0
1,45,0,120
1,44,80,0
1,44,0,120
1,44,80,0
1,44,0,120
1,44,80,0
1,44,0,240
1,42,80,0
1,42,0,60
1,44,80,0
1,44,0,120
1,44,80,0
1,44,0,120
1,44,80,0
1,44,0,60
1,44,80,0
1,44,0,60
1,39,80,0
1,39,0,60
1,46,80,0
1,46,0,120
1,46,80,0
1,46,0,240
1,49,80,0
1,49,0,240
1,46,80,0
1,46,0,240
1,45,80,0
1,45,0,120
1,44,80,0
1,44,0,120
1,44,80,0
1,44,0,120
1,44,80,0
1,44,0,90
1,46,80,630
1,46,0,240
1,49,80,0
1,49,0,240
1,49,80,0
1,49,0,120
1,51,80,0
1,51,0,120
1,51,80,0
1,51,0,240
1,54,80,0
1,54,0,60
1,53,80,0
1,53,0,60
1,54,80,0
1,54,0,60
1,53,80,0
1,53,0,60
1,54,80,0
1,54,0,60
1,53,80,0
1,53,0,60
1,49,80,0
1,49,0,120
1,49,80,0
1,49,0,120
1,51,80,0
1,51,0,120
1,51,80,0
1,51,0,240
1,46,80,0
1,46,0,240
1,49,80,0
1,49,0,240
1,49,80,0
1,49,0,120
1,51,80,0
1,51,0,120
1,51,80,0
1,51,0,240
1,54,80,0
1,54,0,60
1,53,80,0
1,53,0,60
1,54,80,0
1,54,0,60
1,53,80,0
1,53,0,60
1,54,80,0
1,54,0,60
1,53,80,0
1,53,0,60
1,49,80,0
1,49,0,120
1,49,80,0
1,49,0,120
1,51,80,0
1,51,0,120
1,51,80,0
1,51,0,240
1,51,80,0
1,51,0,960
1,49,80,0
1,49,0,960
1,46,80,0
1,46,0,120
1,46,80,0
1,46,0,120
1,49,80,0
1,49,0,60
1,50,80,0
1,50,0,60
1,51,80,0
1,51,0,120
1,51,80,0
1,51,0,60
1,52,80,0
1,52,0,60
1,53,80,0
1,53,0,120
1,56,80,0
1,56,0,60
1,57,80,0
1,57,0,60
1,58,80,0
1,58,0,120
1,46,80,0
1,46,0,120
1,46,80,0
1,46,0,120
1,49,80,0
1,49,0,60
1,50,80,0
1,50,0,60
1,51,80,0
1,51,0,120
1,51,80,0
1,51,0,60
1,52,80,0
1,52,0,60
1,53,80,0
1,53,0,120
1,56,80,0
1,56,0,60
1,57,80,0
1,57,0,60
1,58,80,0
1,58,0,120
1,51,80,0
1,51,0,960
1,49,80,0
1,49,0,960
1,46,80,0
1,46,0,120
1,46,80,0
1,46,0,120
1,49,80,0
1,49,0,60
1,50,80,0
1,50,0,60
1,51,80,0
1,51,0,120
1,51,80,0
1,51,0,60
1,52,80,0
1,52,0,60
1,53,80,0
1,53,0,120
1,56,80,0
1,56,0,60
1,57,80,0
1,57,0,60
1,58,80,0
1,58,0,120
1,46,80,0
1,46,0,120
1,46,80,0
1,46,0,120
1,49,80,0
1,49,0,60
1,50,80,0
1,50,0,60
1,51,80,0
1,51,0,120
1,51,80,0
1,51,0,60
1,52,80,0
1,52,0,60
1,53,80,0
1,53,0,120
1,56,80,0
1,56,0,60
1,57,80,0
1,57,0,60
1,58,80,0
1,58,0,120
1,46,80,0
1,46,0,240
1,49,80,0
1,49,0,240
1,49,80,0
1,49,0,120
1,51,80,0
1,51,0,120
1,51,80,0
1,51,0,240
1,54,80,0
1,54,0,60
1,53,80,0
1,53,0,60
1,54,80,0
1,54,0,60
1,53,80,0
1,53,0,60
1,54,80,0
1,54,0,60
1,53,80,0
1,53,0,60
1,49,80,0
1,49,0,120
1,49,80,0
1,49,0,120
1,51,80,0
1,51,0,120
1,51,80,0
1,51,0,240
1,46,80,0
1,46,0,240
1,49,80,0
1,49,0,240
1,49,80,0
1,49,0,120
1,51,80,0
1,51,0,120
1,51,80,0
1,51,0,240
1,54,80,0
1,54,0,60
1,53,80,0
1,53,0,60
1,54,80,0
1,54,0,60
1,53,80,0
1,53,0,60
1,54,80,0
1,54,0,60
1,53,80,0
1,53,0,60
1,49,80,0
1,49,0,120
1,49,80,0
1,49,0,120
1,51,80,0
1,51,0,120
1,51,80,0
1,51,0,240
1,51,80,0
1,51,0,960
1,49,80,0
1,49,0,960
1,46,80,0
1,46,0,120
1,46,80,0
1,46,0,120
1,49,80,0
1,49,0,60
1,50,80,0
1,50,0,60
1,51,80,0
1,51,0,120
1,51,80,0
1,51,0,60
1,52,80,0
1,52,0,60
1,53,80,0
1,53,0,120
1,56,80,0
1,56,0,60
1,57,80,0
1,57,0,60
1,58,80,0
1,58,0,120
1,46,80,0
1,46,0,120
1,46,80,0
1,46,0,120
1,49,80,0
1,49,0,60
1,50,80,0
1,50,0,60
1,51,80,0
1,51,0,120
1,51,80,0
1,51,0,60
1,52,80,0
1,52,0,60
1,53,80,0
1,53,0,120
1,56,80,0
1,56,0,60
1,57,80,0
1,57,0,60
1,58,80,0
1,58,0,120
1,51,80,0
1,51,0,960
1,49,80,0
1,49,0,960
1,46,80,0
1,46,0,120
1,46,80,0
1,46,0,120
1,49,80,0
1,49,0,60
1,50,80,0
1,50,0,60
1,51,80,0
1,51,0,120
1,51,80,0
1,51,0,60
1,52,80,0
1,52,0,60
1,53,80,0
1,53,0,120
1,56,80,0
1,56,0,60
1,57,80,0
1,57,0,60
1,58,80,0
1,58,0,120
1,46,80,0
1,46,0,120
1,46,80,0
1,46,0,120
1,49,80,0
1,49,0,60
1,50,80,0
1,50,0,60
1,51,80,0
1,51,0,120
1,51,80,0
1,51,0,60
1,52,80,0
1,52,0,60
1,53,80,0
1,53,0,120
1,56,80,0
1,56,0,60
1,57,80,0
1,57,0,60
1,58,80,0
1,58,0,120
1,60,80,0
1,60,0,60
1,58,80,0
1,58,0,60
1,55,80,60
1,55,0,60
1,54,80,60
1,54,0,60
1,53,80,60
1,53,0,60
1,51,80,60
1,51,0,60
1,46,80,60
1,46,0,60
1,46,80,0
1,46,0,60
1,48,80,0
1,48,0,60
1,48,80,0
1,48,0,60
1,60,80,60
1,60,0,60
1,58,80,0
1,58,0,60
1,55,80,60
1,55,0,60
1,54,80,60
1,54,0,60
1,53,80,60
1,53,0,60
1,51,80,60
1,51,0,60
1,46,80,60
1,46,0,60
1,46,80,0
1,46,0,60
1,48,80,0
1,48,0,60
1,48,80,0
1,48,0,60
1,60,80,5820
1,60,0,60
1,58,80,0
1,58,0,60
1,55,80,60
1,55,0,60
1,54,80,60
1,54,0,60
1,53,80,60
1,53,0,60
1,51,80,60
1,51,0,60
1,46,80,60
1,46,0,60
1,46,80,0
1,46,0,60
1,48,80,0
1,48,0,60
1,48,80,0
1,48,0,60
1,60,80,60
1,60,0,60
1,58,80,0
1,58,0,60
1,55,80,60
1,55,0,60
1,54,80,60
1,54,0,60
1,53,80,60
1,53,0,60
1,51,80,60
1,51,0,60
1,46,80,60
1,46,0,60
1,46,80,0
1,46,0,60
1,48,80,0
1,48,0,60
1,48,80,0
1,48,0,60
1,46,80,60
1,46,0,120
1,46,80,0
1,46,0,120
1,49,80,0
1,49,0,60
1,50,80,0
1,50,0,60
1,51,80,0
1,51,0,120
1,51,80,0
1,51,0,60
1,52,80,0
1,52,0,60
1,53,80,0
1,53,0,120
1,56,80,0
1,56,0,60
1,57,80,0
1,57,0,60
1,58,80,0
1,58,0,120
1,46,80,0
1,46,0,120
1,46,80,0
1,46,0,120
1,49,80,0
1,49,0,60
1,50,80,0
1,50,0,60
1,51,80,0
1,51,0,120
1,51,80,0
1,51,0,60
1,52,80,0
1,52,0,60
1,53,80,0
1,53,0,120
1,56,80,0
1,56,0,60
1,57,80,0
1,57,0,60
1,58,80,0
1,58,0,120
1,46,80,0
1,46,0,240
1,49,80,0
1,49,0,240
1,49,80,0
1,49,0,120
1,51,80,0
1,51,0,120
1,51,80,0
1,51,0,240
1,54,80,0
1,54,0,60
1,53,80,0
1,53,0,60
1,54,80,0
1,54,0,60
1,53,80,0
1,53,0,60
1,54,80,0
1,54,0,60
1,53,80,0
1,53,0,60
1,49,80,0
1,49,0,120
1,49,80,0
1,49,0,120
1,51,80,0
1,51,0,120
1,51,80,0
1,51,0,240
1,46,80,0
1,46,0,240
1,49,80,0
1,49,0,240
1,49,80,0
1,49,0,120
1,51,80,0
1,51,0,120
1,51,80,0
1,51,0,240
1,54,80,0
1,54,0,60
1,53,80,0
1,53,0,60
1,54,80,0
1,54,0,60
1,53,80,0
1,53,0,60
1,54,80,0
1,54,0,60
1,53,80,0
1,53,0,60
1,49,80,0
1,49,0,120
1,49,80,0
1,49,0,120
1,51,80,0
1,51,0,120
1,51,80,0
1,51,0,240
1,46,80,0
1,46,0,120
1,46,80,0
1,46,0,240
1,49,80,0
1,49,0,240
1,46,80,0
1,46,0,240
1,45,80,0
1,45,0,120
1,44,80,0
1,44,0,120
1,44,80,0
1,44,0,120
1,44,80,0
1,44,0,240
1,42,80,0
1,42,0,60
1,44,80,0
1,44,0,120
1,44,80,0
1,44,0,120
1,44,80,0
1,44,0,60
1,44,80,0
1,44,0,60
1,39,80,0
1,39,0,60
1,46,80,0
1,46,0,120
1,46,80,0
1,46,0,240
1,49,80,0
1,49,0,240
1,46,80,0
1,46,0,240
1,45,80,0
1,45,0,120
1,44,80,0
1,44,0,120
1,44,80,0
1,44,0,120
1,44,80,0
1,44,0,240
1,42,80,0
1,42,0,60
1,44,80,0
1,44,0,120
1,44,80,0
1,44,0,120
1,44,80,0
1,44,0,60
1,44,80,0
1,44,0,60
1,39,80,0
1,39,0,60
1,46,80,0
1,46,0,120
1,46,80,0
1,46,0,240
1,49,80,0
1,49,0,240
1,46,80,0
1,46,0,240
1,45,80,0
1,45,0,120
1,44,80,0
1,44,0,120
1,44,80,0
1,44,0,120
1,44,80,0
1,44,0,2520
1,51,80,0
1,51,0,720
1,51,63,0
1,51,0,720
1,51,80,0
1,51,0,720
1,51,63,0
1,51,0,720
1,51,80,0
1,51,0,720
1,51,63,0
1,51,0,720
1,51,80,0
1,51,0,60
1,49,80,0
1,49,0,60
1,51,80,0
1,51,0,300
1,50,80,0
1,50,0,30
1,51,80,0
1,51,0,30
1,49,80,0
1,49,0,480
1,51,80,0
1,51,0,60
1,49,80,0
1,49,0,60
1,51,80,0
1,51,0,360
1,53,80,0
1,53,0,90
1,54,80,0
1,54,0,90
1,53,80,0
1,53,0,60
1,54,80,0
1,54,0,90
1,53,80,0
1,53,0,90
1,49,80,0
1,49,0,60
1,51,80,0
1,51,0,60
1,49,80,0
1,49,0,60
1,51,80,0
1,51,0,300
1,50,80,0
1,50,0,30
1,51,80,0
1,51,0,30
1,49,80,0
1,49,0,480
1,51,80,0
1,51,0,60
1,49,80,0
1,49,0,60
1,51,80,0
1,51,0,360
1,53,80,0
1,53,0,90
1,54,80,0
1,54,0,90
1,53,80,0
1,53,0,60
1,54,80,0
1,54,0,90
1,53,80,0
1,53,0,90
1,49,80,0
1,49,0,60
1,51,80,0
1,51,0,60
1,49,80,0
1,49,0,60
1,51,80,0
1,51,0,60
1,39,78,1080
1,39,0,330
1,51,80,0
1,51,0,60
2,59,82,41280
2,59,0,60
2,60,82,0
2,60,0,60
2,63,82,0
2,63,0,60
2,63,82,0
2,63,0,60
2,60,82,0
2,60,0,60
2,58,82,0
2,58,0,60
2,60,82,0
2,60,0,60
2,63,82,0
2,63,0,60
2,72,82,0
2,72,0,30
2,70,82,0
2,70,0,30
2,67,82,0
2,67,0,30
2,66,82,0
2,66,0,30
2,67,82,0
2,67,0,30
2,70,82,0
2,70,0,30
2,72,82,0
2,72,0,30
2,75,82,0
2,75,0,30
2,72,82,0
2,72,0,30
2,70,82,0
2,70,0,30
2,66,82,0
2,66,0,30
2,67,82,0
2,67,0,30
2,63,82,0
2,63,0,60
2,72,82,0
2,72,0,120
2,75,82,0
2,75,0,60
2,72,82,0
2,72,0,120
2,75,82,0
2,75,0,60
2,72,82,0
2,72,0,60
2,72,82,0
2,72,0,30
2,70,82,0
2,70,0,30
2,72,82,0
2,72,0,30
2,70,82,0
2,70,0,30
2,72,82,0
2,72,0,30
2,75,82,0
2,75,0,30
2,72,82,0
2,72,0,30
2,70,82,0
2,70,0,30
2,72,82,0
2,72,0,30
2,70,82,0
2,70,0,30
2,72,82,0
2,72,0,30
2,70,82,0
2,70,0,30
2,72,82,0
2,72,0,30
2,75,82,0
2,75,0,30
2,72,82,0
2,72,0,30
2,66,82,0
2,66,0,30
2,67,82,0
2,67,0,30
2,66,82,0
2,66,0,30
2,67,82,0
2,67,0,30
2,66,82,0
2,66,0,30
2,75,82,0
2,75,0,30
2,72,82,0
2,72,0,30
2,70,82,0
2,70,0,30
2,75,82,0
2,75,0,30
2,72,82,0
2,72,0,30
2,70,82,0
2,70,0,30
2,75,82,0
2,75,0,30
2,72,82,0
2,72,0,30
2,70,82,0
2,70,0,30
2,75,82,0
2,75,0,30
2,72,82,0
2,72,0,30
2,70,82,0
2,70,0,30
2,75,82,0
2,75,0,30
2,72,82,0
2,72,0,30
2,70,82,0
2,70,0,120
2,79,82,0
2,79,0,90
2,72,82,0
2,72,0,90
2,79,82,0
2,79,0,90
2,72,82,0
2,72,0,90
2,79,82,0
2,79,0,30
2,78,82,0
2,78,0,30
2,79,82,0
2,79,0,30
2,78,82,0
2,78,0,30
2,79,82,0
2,79,0,30
2,78,82,0
2,78,0,30
2,79,82,0
2,79,0,30
2,72,82,0
2,72,0,30
2,70,82,0
2,70,0,30
2,67,82,0
2,67,0,30
2,66,82,0
2,66,0,30
2,72,82,0
2,72,0,30
2,70,82,0
2,70,0,30
2,67,82,0
2,67,0,30
2,66,82,0
2,66,0,30
2,60,82,0
2,60,0,30
2,58,82,0
2,58,0,30
2,60,82,0
2,60,0,30
2,58,82,0
2,58,0,30
2,60,82,0
2,60,0,30
2,63,82,0
2,63,0,30
2,60,82,0
2,60,0,30
2,58,82,0
2,58,0,30
2,63,82,0
2,63,0,30
2,60,82,0
2,60,0,30
2,58,82,0
2,58,0,30
2,63,82,0
2,63,0,30
2,60,82,0
2,60,0,30
2,58,82,0
2,58,0,30
