track,note,velocity,time
0,53,54,2472
0,60,50,0
0,57,50,4
0,35,117,8
0,42,107,4
0,29,86,0
0,81,108,8
0,60,77,12
0,79,103,168
0,42,65,4
0,70,88,164
0,77,106,8
0,53,49,4
0,57,69,0
0,42,65,0
0,70,102,168
0,72,105,0
0,35,104,4
0,42,79,0
0,69,63,4
0,42,92,172
0,35,117,4
0,67,72,8
0,42,65,140
0,37,98,176
0,42,103,0
0,70,98,8
0,65,73,4
0,42,65,172
0,58,50,0
0,64,50,4
0,55,57,0
0,31,86,0
0,35,117,8
0,42,88,0
0,64,75,0
0,42,65,156
0,58,69,172
0,55,65,4
0,42,65,4
0,70,90,4
0,35,112,168
0,42,70,0
0,70,102,0
0,74,67,0
0,72,75,20
0,42,81,0
0,35,115,0
0,42,65,136
0,70,82,156
0,82,106,20
0,79,105,0
0,37,117,0
0,70,100,0
0,42,111,4
0,42,65,8
0,65,54,0
0,57,50,0
0,60,50,0
0,72,71,8
0,33,91,0
0,79,105,0
0,82,105,0
0,35,115,8
0,42,107,0
0,42,65,8
0,70,88,120
0,60,69,12
0,42,68,0
0,57,69,0
0,42,68,172
0,70,102,0
0,35,90,4
0,66,50,48
0,82,100,0
0,50,65,0
0,38,93,0
0,79,108,0
0,66,61,0
0,42,92,0
0,35,110,4
0,70,76,0
0,42,65,112
0,69,64,8
0,78,105,16
0,81,110,0
0,37,124,4
0,42,119,4
0,70,98,0
0,42,65,176
0,70,77,12
0,58,50,0
0,67,50,0
0,62,50,0
0,31,84,4
0,77,110,4
0,82,110,0
0,35,112,8
0,42,103,4
0,65,54,0
0,42,65,172
0,55,69,172
0,42,76,8
0,70,90,4
0,89,110,116
0,35,107,8
0,70,102,0
0,42,71,0
0,64,50,12
0,36,84,4
0,58,53,0
0,84,110,0
0,48,65,4
0,35,117,4
0,42,99,0
0,69,70,0
0,64,51,0
0,86,108,168
0,43,110,4
0,42,68,4
0,81,107,0
0,47,104,4
0,70,100,0
0,37,127,4
0,67,66,0
0,42,103,4
0,79,107,168
0,46,111,4
0,57,84,0
0,29,93,0
0,53,50,4
0,57,58,0
0,60,62,0
0,60,80,0
0,77,108,4
0,79,107,0
0,35,127,0
0,42,119,4
0,53,51,0
0,57,69,0
0,42,65,168
0,81,108,4
0,70,88,88
0,53,62,8
0,57,69,0
0,42,99,4
0,42,84,168
0,35,110,4
0,70,102,0
0,69,75,0
0,35,121,176
0,42,111,0
0,67,76,0
0,42,65,172
0,54,88,8
0,65,68,0
0,37,127,4
0,42,119,0
0,29,80,0
0,70,98,0
0,42,65,164
0,60,62,12
0,64,60,0
0,55,62,8
0,64,75,4
0,48,69,4
0,35,117,0
0,36,98,0
0,55,69,0
0,42,92,0
0,60,62,0
0,42,65,136
0,65,76,164
0,42,84,8
0,62,64,0
0,70,90,4
0,42,107,160
0,35,117,0
0,70,102,8
0,62,55,0
0,58,65,0
0,58,62,8
0,53,62,4
0,62,77,0
0,34,80,4
0,53,69,4
0,35,112,4
0,42,111,0
0,46,69,0
0,42,67,176
0,64,75,140
0,60,65,4
0,70,100,20
0,54,84,0
0,37,127,4
0,42,119,4
0,46,88,172
0,60,71,8
0,57,64,8
0,29,86,4
0,45,69,8
0,42,119,0
0,35,124,4
0,60,62,0
0,53,50,4
0,57,62,4
0,42,65,164
0,70,88,24
0,48,67,4
0,42,96,8
0,70,102,44
0,42,76,4
0,35,93,4
0,29,80,0
0,53,69,16
0,42,119,16
0,35,121,0
0,42,65,172
0,50,67,0
0,54,92,4
0,36,95,0
0,42,119,0
0,70,98,0
0,37,124,0
0,46,88,172
0,41,93,20
0,48,69,4
0,35,124,4
0,42,107,4
0,42,65,172
0,42,86,176
0,70,90,8
0,42,88,76
0,70,102,0
0,35,117,0
0,29,91,64
0,65,65,4
0,69,78,0
0,35,124,8
0,42,117,0
0,42,81,176
0,67,65,12
0,31,100,0
0,54,88,4
0,70,100,4
0,37,127,4
0,70,81,0
0,42,119,4
0,42,70,96
0,60,60,12
0,57,58,4
0,64,62,0
0,33,86,8
0,35,127,4
0,57,69,0
0,64,57,0
0,60,69,0
0,72,74,0
0,42,119,8
0,42,65,168
0,72,80,96
0,70,88,8
0,42,81,12
0,33,80,88
0,35,121,0
0,42,96,4
0,70,102,0
0,72,81,108
0,42,107,8
0,35,127,8
0,42,86,168
0,69,65,0
0,54,92,8
0,37,127,8
0,42,119,4
0,70,98,0
0,46,55,24
0,67,63,8
0,65,63,8
0,34,89,0
0,42,99,4
0,35,127,0
0,58,69,0
0,62,69,0
0,62,58,4
0,58,62,4
0,53,62,12
0,42,68,156
0,42,99,176
0,70,90,8
0,34,80,68
0,35,115,4
0,42,88,4
0,70,102,0
0,69,67,8
0,58,50,8
0,64,60,8
0,55,62,4
0,64,58,8
0,55,51,8
0,36,100,0
0,58,69,0
0,70,74,4
0,35,115,4
0,42,119,0
0,42,65,160
0,37,127,172
0,54,99,0
0,42,119,0
0,70,100,0
0,67,71,0
0,42,76,176
0,57,50,20
0,60,62,0
0,65,62,4
0,53,69,8
0,35,127,0
0,42,103,4
0,65,62,0
0,29,88,0
0,69,63,4
0,42,65,164
0,70,88,164
0,57,69,4
0,42,84,0
0,35,115,104
0,42,99,0
0,29,80,0
0,70,102,4
0,60,69,168
0,35,117,4
0,42,107,0
0,42,65,172
0,37,127,176
0,54,84,0
0,36,93,0
0,42,119,4
0,57,69,0
0,70,98,8
0,42,68,160
0,35,127,4
0,41,91,0
0,53,69,4
0,42,119,0
0,42,67,172
0,29,91,48
0,42,99,4
0,81,97,8
0,70,90,4
0,35,112,44
0,42,99,0
0,70,102,4
0,63,62,28
0,70,78,0
0,31,100,0
0,79,85,4
0,42,117,4
0,67,65,4
0,35,127,0
0,42,76,164
0,77,99,0
0,72,68,20
0,69,59,8
0,33,98,0
0,70,100,8
0,54,84,0
0,37,127,0
0,42,119,4
0,46,111,172
0,74,85,8
0,34,84,16
0,74,76,0
0,53,62,4
0,58,62,0
0,42,114,0
0,62,50,0
0,35,127,0
0,70,65,8
0,42,65,168
0,70,88,168
0,55,55,4
0,62,69,0
0,42,103,4
0,70,102,176
0,35,121,4
0,42,103,0
0,70,65,76
0,29,95,0
0,35,121,4
0,42,117,0
0,74,83,12
0,42,74,176
0,67,59,28
0,70,79,8
0,54,92,4
0,34,80,0
0,37,127,4
0,42,119,4
0,70,98,4
0,77,109,16
0,42,74,36
0,76,105,0
0,36,100,8
0,60,69,4
0,35,121,0
0,64,62,0
0,58,56,0
0,64,62,0
0,67,63,0
0,42,117,4
0,55,60,0
0,42,65,172
0,74,95,144
0,58,69,4
0,42,96,8
0,70,90,8
0,36,88,92
0,35,121,4
0,42,99,0
0,70,102,4
0,72,108,0
0,55,69,8
0,31,84,4
0,42,117,0
0,64,63,0
0,35,117,0
0,67,74,8
0,42,68,176
0,70,92,140
0,36,95,32
0,74,83,0
0,54,96,0
0,70,100,0
0,37,124,4
0,42,119,0
0,46,76,168
0,60,50,12
0,64,50,4
0,57,50,0
0,72,95,0
0,33,80,8
0,64,61,0
0,35,127,4
0,42,114,0
0,72,74,0
0,42,65,176
0,70,88,164
0,57,69,4
0,42,96,4
0,35,121,176
0,42,99,0
0,70,102,0
0,45,91,24
0,52,69,0
0,67,65,0
0,55,57,4
0,35,124,0
0,42,114,0
0,70,85,0
0,42,65,172
0,72,68,8
0,40,91,28
0,54,92,4
0,37,127,4
0,42,119,0
0,70,98,4
0,76,109,68
0,42,84,32
0,69,61,100
0,74,102,0
0,66,63,0
0,38,80,0
0,62,62,8
0,57,50,0
0,35,124,4
0,42,114,0
0,66,62,4
0,42,70,176
0,72,99,140
0,50,69,8
0,42,84,8
0,70,90,8
0,35,115,104
0,38,80,0
0,42,96,0
0,70,102,4
0,70,107,120
0,42,103,24
0,33,86,0
0,35,117,4
0,67,71,0
0,64,61,0
0,42,65,172
0,69,99,4
0,69,70,0
0,38,86,4
0,66,65,0
0,70,100,0
0,54,92,0
0,37,127,4
0,42,119,4
0,46,68,168
0,70,93,4
0,55,55,8
0,62,62,0
0,58,62,4
0,31,80,8
0,55,69,0
0,35,127,8
0,42,114,4
0,42,65,176
0,67,61,160
0,70,88,0
0,70,80,4
0,42,103,0
0,70,102,168
0,35,117,0
0,42,84,4
0,38,84,60
0,70,80,0
0,67,65,4
0,42,119,4
0,35,124,0
0,42,65,176
0,69,68,0
0,37,127,20
0,42,119,0
0,54,88,0
0,70,98,8
0,31,80,56
0,42,68,4
0,61,62,8
0,53,62,4
0,58,62,0
0,70,80,12
0,43,98,8
0,35,127,8
0,65,65,0
0,42,111,0
0,50,59,0
0,70,97,0
0,55,69,0
0,42,68,176
0,69,105,128
0,69,70,0
0,42,103,24
0,70,90,8
0,35,110,164
0,42,88,0
0,70,102,4
0,67,105,44
0,67,77,12
0,55,69,0
0,37,100,0
0,42,119,4
0,35,117,0
0,49,64,0
0,42,65,176
0,65,105,124
0,37,109,24
0,70,100,0
0,54,92,0
0,65,67,4
0,42,119,0
0,46,84,168
0,72,95,0
0,48,69,16
0,36,100,0
0,42,114,0
0,35,127,4
0,62,62,8
0,60,75,0
0,58,62,0
0,53,62,0
0,58,58,8
0,42,65,164
0,70,88,168
0,42,81,4
0,53,69,0
0,55,65,112
0,35,117,0
0,42,96,4
0,70,102,0
0,36,80,4
0,53,69,12
0,31,88,0
0,35,115,4
0,42,96,0
0,42,65,180
0,37,127,4
0,54,92,4
0,55,69,0
0,42,119,4
0,70,98,0
0,31,80,116
0,42,65,4
0,36,86,84
0,35,127,0
0,42,119,4
0,55,69,0
0,64,50,4
0,55,62,8
0,42,67,128
0,42,103,156
0,36,100,0
0,72,123,0
0,48,69,4
0,70,90,0
0,77,112,12
0,42,107,0
0,35,115,4
0,70,102,4
0,79,127,20
0,38,91,0
0,42,119,8
0,35,127,0
0,62,65,4
0,65,72,0
0,81,127,56
0,42,79,4
0,64,65,44
0,40,93,8
0,54,88,0
0,79,123,0
0,67,80,0
0,37,127,0
0,70,100,0
0,42,111,0
0,77,120,8
0,46,96,4
0,53,55,0
0,60,62,0
0,57,62,0
0,57,84,4
0,53,65,4
0,29,100,0
0,60,58,0
0,57,69,0
0,79,127,4
0,42,117,0
0,77,127,0
0,72,120,0
0,60,87,4
0,35,127,0
0,42,71,168
0,62,51,4
0,81,112,0
0,70,88,0
0,37,102,4
0,53,69,4
0,57,69,0
0,54,88,0
0,65,67,0
0,42,111,4
0,60,56,144
0,29,86,4
0,70,102,4
0,42,74,0
0,35,102,0
0,69,70,4
0,29,100,48
0,62,61,0
0,42,111,8
0,35,117,4
0,67,77,4
0,42,69,152
0,65,63,4
0,54,73,156
0,37,121,0
0,42,119,0
0,65,74,4
0,60,53,0
0,70,98,4
0,42,71,12
0,62,47,4
0,35,124,0
0,36,98,0
0,60,65,4
0,64,68,0
0,42,119,0
0,48,69,0
0,64,62,0
0,55,69,0
0,60,62,4
0,64,76,0
0,55,58,0
0,42,79,40
0,55,56,4
0,62,65,0
0,54,96,8
0,37,90,4
0,60,59,0
0,42,114,4
0,65,71,4
0,70,90,0
0,42,107,12
0,70,102,4
0,64,55,0
0,35,110,4
0,62,80,4
0,58,65,0
0,53,69,0
0,34,84,0
0,42,119,4
0,35,124,0
0,46,69,0
0,62,62,0
0,53,62,0
0,53,63,0
0,58,62,0
0,42,81,12
0,58,56,4
0,64,73,4
0,60,65,8
0,54,88,4
0,70,100,4
0,37,127,4
0,62,61,0
0,42,119,0
0,53,49,8
0,46,79,0
0,60,62,8
0,57,62,0
0,60,73,0
0,53,62,0
0,29,95,4
0,65,71,4
0,57,64,8
0,42,114,0
0,35,127,0
0,45,69,0
0,60,60,168
0,42,65,8
0,70,88,8
0,48,69,4
0,62,52,4
0,54,84,0
0,37,121,0
0,42,103,0
0,65,72,16
0,29,80,0
0,70,102,4
0,42,103,4
0,35,100,4
0,53,65,4
0,60,48,4
0,42,117,4
0,35,121,4
0,42,68,4
0,62,48,4
0,36,98,20
0,50,58,0
0,37,127,4
0,72,102,0
0,54,96,4
0,65,72,0
0,42,119,0
0,70,98,0
0,60,37,148
0,42,65,4
0,48,65,8
0,41,100,4
0,65,72,4
0,35,127,0
0,42,117,0
0,77,95,4
0,65,118,172
0,42,76,0
0,60,46,4
0,79,95,128
0,67,112,12
0,42,119,4
0,54,88,0
0,37,127,0
0,62,58,0
0,70,90,4
0,29,86,0
0,42,88,0
0,72,127,4
0,65,71,0
0,35,87,4
0,70,102,0
0,81,95,4
0,29,100,12
0,35,127,4
0,65,65,0
0,42,119,0
0,69,71,0
0,60,60,4
0,42,68,164
0,62,49,4
0,70,89,12
0,86,93,8
0,31,98,4
0,54,84,4
0,37,124,4
0,70,100,0
0,67,65,0
0,65,62,0
0,42,119,0
0,60,64,0
0,42,84,4
0,84,93,16
0,57,62,0
0,64,62,0
0,60,62,4
0,33,88,0
0,72,85,4
0,35,121,0
0,64,61,0
0,57,69,0
0,64,70,0
0,60,69,0
0,42,119,0
0,57,53,172
0,42,68,4
0,72,82,88
0,70,88,4
0,60,60,8
0,37,124,0
0,54,96,0
0,42,114,4
0,64,68,168
0,35,102,4
0,42,96,0
0,70,102,0
0,40,100,16
0,72,80,0
0,35,121,4
0,57,43,0
0,42,119,4
0,42,81,16
0,60,55,4
0,69,72,16
0,54,92,12
0,33,98,0
0,37,124,8
0,42,119,0
0,64,68,0
0,70,98,4
0,42,65,168
0,57,46,0
0,62,60,0
0,58,62,0
0,53,62,4
0,82,104,4
0,34,100,0
0,67,76,4
0,42,119,4
0,58,66,0
0,55,58,0
0,35,124,0
0,58,69,0
0,62,65,4
0,62,51,8
0,42,70,4
0,69,74,164
0,65,63,8
0,37,121,0
0,54,81,0
0,42,119,4
0,70,90,8
0,58,50,72
0,42,107,0
0,34,99,0
0,35,110,4
0,70,102,0
0,58,62,0
0,64,62,0
0,55,62,4
0,64,64,12
0,60,69,0
0,70,91,0
0,36,93,0
0,35,127,4
0,42,119,0
0,67,59,0
0,60,55,152
0,42,74,8
0,33,95,112
0,74,80,0
0,54,99,0
0,70,100,0
0,64,65,0
0,37,117,4
0,42,119,0
0,67,66,128
0,46,114,0
0,60,62,8
0,65,55,0
0,57,58,0
0,69,60,0
0,65,62,4
0,29,98,0
0,65,66,0
0,72,78,0
0,42,119,4
0,53,69,0
0,35,121,0
0,81,85,4
0,57,49,148
0,42,65,4
0,57,62,156
0,70,88,0
0,60,64,8
0,37,109,0
0,42,114,0
0,54,88,4
0,29,88,136
0,65,72,4
0,35,104,4
0,70,102,0
0,42,96,0
0,60,69,136
0,36,95,0
0,57,57,8
0,35,124,4
0,42,114,0
0,60,56,116
0,42,65,4
0,57,69,132
0,54,84,4
0,65,72,0
0,37,124,4
0,42,119,0
0,70,98,4
0,60,59,148
0,42,71,0
0,41,100,0
0,35,107,0
0,53,69,0
0,42,119,0
0,62,65,4
0,81,123,16
0,42,70,0
0,65,61,4
0,79,127,152
0,37,117,0
0,54,88,0
0,42,111,4
0,29,100,0
0,60,64,0
0,93,109,4
0,70,90,0
0,42,114,0
0,35,97,0
0,77,127,0
0,62,65,4
0,70,102,4
0,63,62,16
0,31,100,4
0,91,109,0
0,74,112,4
0,42,119,0
0,67,65,0
0,35,124,0
0,65,72,0
0,70,82,4
0,42,79,4
0,60,53,4
0,72,127,4
0,89,109,128
0,72,87,20
0,69,65,0
0,33,91,4
0,54,88,4
0,74,127,0
0,70,100,0
0,62,67,4
0,37,127,0
0,42,119,0
0,46,95,100
0,65,68,0
0,72,120,4
0,86,94,48
0,34,99,0
0,74,85,0
0,58,67,0
0,62,62,0
0,35,127,4
0,42,119,0
0,53,62,4
0,58,62,0
0,70,65,0
0,77,115,32
0,62,60,104
0,42,65,4
0,70,88,164
0,54,96,4
0,53,69,0
0,65,70,4
0,37,117,4
0,42,117,0
0,70,102,164
0,58,42,0
0,42,103,4
0,35,100,4
0,46,69,4
0,29,100,4
0,62,55,0
