track,note,velocity,time
1,35,119,5186
1,36,118,12
1,37,110,18
1,38,112,2
1,39,116,0
1,40,123,12
1,41,123,20
1,42,118,0
1,43,114,0
1,44,122,28
1,45,114,10
1,46,116,6
1,47,122,0
1,48,116,12
1,49,112,10
1,50,114,20
1,51,116,18
1,52,123,14
1,53,113,30
1,54,122,28
1,55,120,28
1,56,112,10
1,57,111,30
1,58,115,12
1,59,119,12
1,60,114,16
1,61,112,12
1,62,115,6
1,63,119,18
1,64,112,8
1,51,93,2112
1,52,92,0
1,53,90,14
1,54,92,24
1,55,92,4
1,56,100,12
1,57,103,16
1,58,99,14
1,59,104,4
1,60,99,2
1,61,97,6
1,62,93,2
1,57,103,12
1,63,91,2
1,58,95,4
1,64,91,8
1,59,94,10
1,65,97,6
1,66,100,4
1,60,95,10
1,67,98,22
1,57,93,4
1,58,98,8
1,68,99,6
1,69,101,10
1,59,92,6
1,60,98,2
1,70,101,2
1,57,93,14
1,71,99,2
1,72,90,8
1,58,91,2
1,73,103,14
1,59,90,2
1,74,103,0
1,60,97,2
1,75,91,0
1,57,98,6
1,76,102,24
1,58,91,0
1,77,103,18
1,59,97,2
1,60,94,2
1,78,101,4
1,57,90,4
1,79,98,6
1,58,99,10
1,80,102,2
1,36,94,14020
1,37,97,4
1,38,98,14
1,39,92,2
1,40,104,10
1,36,101,38
1,37,98,8
1,38,101,14
1,39,94,4
1,40,92,2
1,36,90,80
1,37,99,2
1,38,101,8
1,39,100,6
1,40,101,8
1,36,97,72
1,37,91,10
1,38,96,14
1,39,98,0
1,40,104,12
1,36,91,80
1,37,92,6
1,38,94,12
1,39,102,14
1,28,79,2
1,29,70,4
1,40,94,0
1,30,77,12
1,31,82,8
1,32,75,10
1,33,73,14
1,34,83,22
1,35,84,6
1,36,83,4
1,37,79,10
1,38,82,2
1,39,81,12
1,40,80,14
1,41,73,32
1,41,84,72
1,41,79,76
1,41,81,74
1,41,72,74
1,79,106,324
1,78,114,16
1,77,111,28
1,76,109,16
1,75,111,6
1,74,104,12
1,73,109,10
1,72,109,10
1,71,107,30
1,70,103,4
1,69,100,20
1,68,107,0
1,67,109,14
1,66,111,28
1,65,106,10
1,64,106,2
1,63,113,10
1,62,103,0
1,61,109,2
1,60,109,20
1,59,113,14
1,58,100,4
1,57,101,4
1,56,108,12
1,65,111,2
1,55,101,8
1,54,108,24
1,64,113,2
1,53,114,16
1,63,102,4
1,52,105,2
1,62,103,4
1,61,104,0
1,51,102,4
1,60,107,10
1,50,101,0
1,59,111,0
1,49,113,10
1,58,105,10
1,57,106,4
1,56,101,12
1,55,109,26
1,54,105,2
1,53,103,14
1,52,109,0
1,51,105,14
1,50,104,28
1,49,106,10
1,48,100,10
1,47,108,4
1,46,100,8
1,45,100,10
1,44,108,4
1,43,113,0
1,42,113,6
1,50,102,6
1,51,103,14
1,52,101,18
1,53,102,14
1,54,109,12
1,55,104,18
1,56,114,2
1,50,110,6
1,51,112,28
1,52,103,4
1,53,104,16
1,54,113,12
1,55,105,12
1,56,100,2
1,50,105,0
1,51,104,6
1,52,102,4
1,53,109,8
1,54,114,14
1,55,106,16
1,56,103,28
1,50,104,8
1,51,100,26
1,52,100,16
1,53,106,14
1,54,107,0
1,55,108,14
1,56,107,16
1,50,79,22
1,51,80,0
1,52,74,8
1,53,80,16
1,54,80,6
1,55,78,12
1,56,76,16
1,50,56,14
1,51,58,28
1,52,62,32
1,53,61,24
1,54,54,4
1,55,56,32
1,56,53,24
1,72,55,26
1,71,62,6
1,70,62,4
1,69,56,4
1,68,63,10
1,72,75,6
1,71,77,26
1,70,79,16
1,69,82,8
1,68,81,14
1,67,77,14
1,72,102,8
1,71,114,10
1,70,104,6
1,69,112,10
1,68,109,8
1,67,107,16
1,66,112,20
1,65,104,14
1,64,114,0
1,63,103,6
1,62,108,16
1,61,107,8
1,60,106,34
1,59,113,8
1,58,109,8
1,57,113,20
1,56,112,4
1,55,100,16
1,54,110,2
1,53,110,6
1,52,103,12
1,51,104,16
1,50,103,26
1,54,103,8
1,53,105,22
1,52,109,4
1,51,111,6
1,50,103,8
1,49,102,16
1,54,109,8
1,53,108,10
1,52,111,22
1,51,111,20
1,50,103,4
1,49,114,14
1,48,113,14
1,54,111,6
1,53,100,0
1,52,104,30
1,51,105,12
1,50,107,10
1,49,101,18
1,48,108,6
1,47,113,18
1,54,94,6
1,53,91,26
1,52,82,6
1,51,86,28
1,50,84,28
1,49,89,12
1,48,87,6
1,47,82,26
1,46,84,4
1,54,74,2
1,53,64,2
1,52,69,4
1,51,65,14
1,50,67,28
1,49,72,16
1,48,74,10
1,47,63,28
1,46,72,2
1,45,70,10
1,42,108,32
1,43,109,6
1,44,114,14
1,45,109,4
1,46,103,16
1,47,113,0
1,48,111,4
1,42,113,30
1,43,106,14
1,44,104,12
1,45,105,12
1,46,101,22
1,47,106,26
1,48,103,14
1,42,102,66
1,43,106,16
1,44,101,6
1,45,110,16
1,46,114,16
1,47,106,16
1,48,103,14
1,42,101,108
1,43,108,2
1,44,103,6
1,45,109,4
1,46,102,10
1,47,112,10
1,48,105,4
1,42,110,140
1,43,112,0
1,44,105,16
1,45,114,16
1,46,108,10
1,47,112,10
1,48,106,16
1,42,107,158
1,43,106,22
1,44,103,10
1,45,106,4
1,46,110,2
1,47,102,8
1,48,112,6
1,42,108,198
1,43,106,16
1,44,106,10
1,45,108,6
1,46,103,16
1,47,103,8
1,48,111,14
1,31,106,36
1,36,113,0
1,40,102,16
1,43,102,12
1,48,101,12
1,36,102,80
1,40,105,4
1,43,110,14
1,48,105,12
1,36,106,70
1,40,107,12
1,43,106,4
1,48,102,4
1,36,107,78
1,40,114,16
1,43,107,10
1,48,108,6
1,36,100,76
1,40,105,4
1,43,113,8
1,48,111,30
1,36,109,84
1,40,108,2
1,43,101,0
1,48,104,12
1,36,100,82
1,40,106,8
1,43,103,12
1,48,112,4
1,36,110,72
1,40,114,8
1,43,102,12
1,48,110,12
1,36,109,78
1,40,100,6
1,43,113,14
1,48,109,34
1,36,105,60
1,40,106,12
1,43,102,10
1,48,100,0
1,36,112,74
1,40,102,14
1,43,103,4
1,48,104,12
1,36,104,62
1,40,103,14
1,43,111,20
1,24,89,14
1,48,100,2
1,27,85,0
1,30,91,8
1,35,92,24
1,24,92,62
1,27,94,4
1,30,89,6
1,35,92,20
1,24,92,72
1,27,87,18
1,30,94,12
1,35,91,8
1,24,94,68
1,27,80,8
1,30,87,10
1,36,93,14
1,24,113,68
1,27,123,6
1,30,117,14
1,36,113,8
1,24,114,70
1,27,113,12
1,30,120,28
1,36,117,4
1,24,123,68
1,27,117,8
1,30,112,8
1,36,115,28
1,24,114,64
1,27,124,0
1,30,124,4
1,36,112,2
1,24,114,74
1,27,111,10
1,30,120,4
1,36,119,28
1,30,111,68
1,36,118,34
1,30,115,124
1,36,115,28
1,30,119,136
1,36,119,4
1,30,124,128
1,36,111,32
1,30,121,146
1,36,118,28
1,30,123,140
1,36,117,22
1,30,116,136
1,36,119,12
1,30,120,138
1,36,121,12
1,41,86,4
1,48,72,146
1,41,66,144
1,48,51,144
1,41,60,132
1,48,60,156
1,52,61,2076
1,51,73,6
1,50,60,2
1,49,69,46
1,48,60,14
1,47,65,6
1,46,64,10
1,45,69,48
1,44,65,8
1,43,70,52
1,42,71,48
1,41,74,36
1,40,74,44
1,39,60,2
1,38,63,0
1,37,72,48
1,36,74,50
1,35,72,0
1,34,70,8
1,33,61,6
1,32,70,8
1,31,70,14
1,30,66,38
1,29,61,6
1,29,94,2
1,28,70,2
1,33,80,10
1,27,68,0
1,26,72,4
1,36,88,0
1,25,67,4
1,41,80,2
1,24,61,0
1,29,94,0
1,23,69,2
1,33,86,4
1,22,65,4
1,36,91,6
1,41,81,0
1,21,67,4
1,29,88,2
1,20,73,4
1,33,82,44
1,36,81,38
1,41,88,38
1,29,91,0
1,33,81,12
1,36,86,48
1,41,88,6
1,29,84,42
1,33,91,6
1,36,88,44
1,41,86,36
1,29,89,0
1,33,80,48
1,36,84,42
1,41,85,4
1,29,94,4
1,33,90,4
1,36,82,2
1,41,93,8
1,29,74,6
1,33,72,10
1,36,76,2
1,41,81,40
1,29,58,50
1,33,56,6
1,36,57,48
1,41,62,8
1,29,46,14
1,33,52,8
1,36,47,6
1,41,54,48
1,42,44,0
1,43,53,14
1,44,53,4
1,45,45,8
1,46,54,12
1,42,48,12
1,43,42,16
1,44,40,44
1,45,43,44
1,46,43,44
1,47,43,0
1,48,47,8
1,42,40,2
1,43,46,6
1,49,44,2
1,44,45,0
1,50,50,10
1,51,44,4
1,45,42,8
1,46,53,40
1,52,44,2
1,47,51,0
1,53,43,2
1,48,45,2
1,54,44,0
1,49,47,0
1,55,41,4
1,50,53,4
1,56,45,2
1,57,50,4
1,51,50,2
1,58,42,10
1,52,48,2
1,59,53,10
1,53,52,2
1,54,46,2
1,58,55,2
1,57,63,10
1,55,48,0
1,56,71,18
1,57,62,8
1,55,78,10
1,54,72,2
1,58,64,4
1,53,80,4
1,59,67,2
1,54,43,8
1,52,71,0
1,55,43,2
1,51,82,2
1,56,50,0
1,50,84,0
1,49,73,0
1,57,49,2
1,48,77,10
1,58,42,4
1,47,77,10
1,59,50,0
1,54,52,2
1,46,72,2
1,55,43,4
1,45,81,2
1,44,78,2
1,56,53,10
1,57,52,0
1,43,72,0
1,58,53,42
1,42,73,0
1,41,83,4
1,59,50,2
1,40,83,14
1,54,52,0
1,39,74,8
1,55,54,0
1,56,53,0
1,38,84,8
1,57,41,4
1,37,79,4
1,36,77,8
1,58,53,8
1,35,84,4
1,59,49,6
1,54,40,8
1,34,79,2
1,55,52,4
1,33,77,4
1,56,51,0
1,32,70,6
1,57,41,10
1,37,79,2
1,36,77,8
1,58,40,2
1,59,42,2
1,35,76,0
1,34,82,6
1,54,40,2
1,55,42,2
1,33,79,0
1,56,52,2
1,32,78,2
1,57,49,4
1,37,78,10
1,58,40,6
1,36,74,4
1,59,47,2
1,54,49,14
1,35,74,2
1,34,83,38
1,55,53,2
1,56,49,2
1,33,79,4
1,57,53,6
1,32,84,2
1,58,48,2
1,59,46,2
1,54,30,2
1,37,78,4
1,55,30,6
1,36,70,0
1,35,82,6
1,56,39,2
1,57,40,0
1,34,72,0
1,58,41,2
1,33,80,2
1,32,79,42
1,59,36,0
1,54,37,0
1,55,35,54
1,56,41,40
1,37,79,4
1,57,41,4
1,36,73,0
1,58,32,8
1,59,39,12
1,35,76,2
1,54,41,10
1,34,73,0
1,33,73,44
1,55,41,0
1,56,30,0
1,32,71,2
1,57,37,0
1,58,44,4
1,59,38,44
1,54,24,6
1,37,70,0
1,55,21,2
1,36,80,0
1,56,21,4
1,57,20,0
1,35,72,6
1,58,34,6
1,34,82,0
1,59,20,14
1,33,82,0
1,32,75,0
1,54,21,4
1,55,27,6
1,56,31,20
1,57,29,8
1,58,33,14
1,59,25,46
1,54,20,12
1,37,83,4
1,36,75,6
1,55,31,4
1,56,25,2
1,35,72,2
1,34,72,8
1,57,30,8
1,33,77,6
1,58,31,4
1,32,82,8
1,59,34,0
1,37,82,294
1,36,78,2
1,35,82,4
1,34,82,18
1,33,71,2
1,32,77,4
1,37,79,344
1,36,72,10
1,35,73,46
1,34,79,6
1,33,82,2
1,32,70,8
1,34,75,8
1,36,76,2
1,40,48,4
1,43,45,0
1,48,63,8
1,36,71,4
1,40,60,12
1,43,52,12
1,48,50,42
1,36,78,10
1,40,82,4
1,43,71,10
1,48,83,8
1,36,78,18
1,40,81,14
1,43,82,14
1,48,70,12
1,36,82,18
1,40,53,8
1,43,64,10
1,48,51,44
1,36,76,2
1,40,65,40
1,43,68,0
1,48,51,8
1,36,73,8
1,48,52,112
1,36,84,14
1,48,71,114
1,36,80,24
1,48,53,102
1,36,75,10
1,48,38,102
1,36,77,10
1,48,44,102
1,36,72,42
1,36,73,150
1,36,80,148
1,36,74,138
1,72,127,11524
1,77,127,44
1,77,127,50
1,72,127,42
1,81,126,46
1,79,114,36
1,77,115,10
1,72,115,186
1,77,127,52
1,77,127,42
1,77,127,52
1,79,121,14
1,79,118,54
1,78,79,328
1,77,123,40
1,72,101,60
1,75,87,12
1,78,106,40
1,79,113,14
1,81,122,24
1,79,105,460
1,81,112,52
1,79,100,20
1,77,115,2
1,77,115,14
1,79,116,188
1,77,109,0
1,72,115,98
1,74,117,14
1,72,120,60
1,77,127,70
1,77,113,56
1,79,116,6
1,81,114,8
1,79,121,18
1,77,121,12
1,74,122,308
1,77,116,34
1,81,127,84
1,84,127,0
1,82,112,46
1,79,112,8
1,81,127,8
1,77,124,2
1,77,113,392
1,77,127,22
1,77,104,74
1,79,100,6
1,77,94,48
1,79,126,46
1,77,127,28
1,79,99,80
1,80,84,14
1,81,112,46
1,72,113,762
1,77,112,58
1,81,101,6
1,81,112,44
1,77,110,4
1,81,118,48
1,84,116,6
1,82,112,6
1,79,110,4
1,81,116,20
1,77,120,6
1,81,127,62
1,77,125,10
1,81,126,42
1,77,127,0
1,81,114,20
1,77,119,8
1,79,122,10
1,82,121,10
1,77,110,8
1,77,111,196
1,81,112,188
1,84,114,4
1,81,114,14
1,84,100,6
1,84,100,12
1,82,127,0
1,81,122,22
1,84,104,6
1,84,117,6
1,81,112,4
1,84,123,14
1,79,120,2
1,84,122,0
1,79,123,4
1,72,105,246
1,76,127,16
1,76,124,22
1,77,123,26
1,76,112,12
1,76,127,4
1,74,115,50
1,72,117,16
1,81,113,24
1,77,110,5754
1,79,108,6
1,72,93,10
1,77,110,0
1,79,111,4
1,69,103,0
1,81,105,6
1,72,84,16
1,69,99,2
1,81,120,6
1,77,119,0
1,69,94,14
1,81,102,0
1,77,113,0
1,72,88,4
1,70,114,2
1,82,82,6
1,75,121,4
1,81,83,0
1,77,93,2
1,82,95,6
1,75,124,2
1,77,111,26
1,79,107,10
1,81,113,90
1,79,104,6
1,77,110,14
1,74,123,6
1,65,72,10
1,72,90,144
1,74,126,24
1,81,108,72
1,81,104,10
1,79,112,10
1,81,124,52
1,82,122,68
1,81,106,100
1,79,124,42
1,77,120,36
1,79,126,96
1,77,114,34
1,77,114,94
1,77,96,82
1,79,100,10
1,81,100,14
1,69,118,2
1,72,99,0
1,77,79,0
1,77,73,0
1,81,100,4
1,72,90,0
1,69,103,4
1,77,76,10
1,72,93,4
1,81,92,0
1,69,104,4
1,70,102,2
1,82,98,0
1,75,101,4
1,79,111,4
1,81,64,32
1,82,98,2
1,75,100,18
1,77,92,14
1,75,104,0
1,77,80,68
1,87,83,8
1,67,70,2
1,79,90,4
1,77,102,16
1,75,85,6
1,86,71,2
1,65,60,4
1,74,127,2
1,84,86,2
1,85,100,10
1,70,90,0
1,86,72,2
1,75,114,182
1,77,100,6
1,69,79,8
1,81,91,0
1,84,78,4
1,79,96,0
1,77,109,16
1,74,109,36
1,77,100,18
1,79,127,6
1,77,121,28
1,72,127,98
1,74,106,12
1,86,80,2
1,69,60,6
1,77,92,2802
1,78,103,6
1,79,127,20
1,82,127,28
1,82,118,52
1,79,121,52
1,82,122,72
1,79,127,56
1,77,114,42
1,79,118,506
1,82,127,48
1,82,120,52
1,79,126,50
1,86,120,62
1,84,106,572
1,82,114,24
1,65,114,11274
1,60,116,4
1,65,121,6
1,67,119,6
1,67,114,2
1,70,120,8
1,69,124,0
1,72,127,8
1,72,123,26
1,69,116,0
1,67,81,8
1,70,102,4
1,72,101,44
1,69,114,0
1,67,117,14
1,70,127,4
1,69,127,12
1,65,127,4
1,70,111,14
1,74,124,286
1,77,127,18
1,77,127,46
1,79,127,58
1,77,123,32
1,79,124,50
1,77,127,28
1,81,103,624
1,79,104,12
1,81,95,140
1,84,84,22
1,86,91,18
1,69,127,654
1,69,125,26
1,70,127,36
1,72,121,26
1,77,127,126
1,77,120,32
1,74,127,26
1,77,122,28
1,74,127,92
1,70,124,70
1,65,123,14
1,70,121,66
1,70,124,28
1,70,121,18
1,72,127,42
