track,note,velocity,time
1,73,114,2672
1,70,105,0
1,77,108,0
1,70,108,16
1,75,113,0
1,79,108,0
1,68,105,48
1,72,108,0
1,75,102,0
1,73,97,80
1,68,93,0
1,77,102,0
1,73,119,64
1,70,113,0
1,65,97,0
1,68,101,80
1,72,102,0
1,64,101,0
1,70,97,208
1,67,101,0
1,64,93,0
1,65,97,336
1,68,108,0
1,72,100,0
1,77,73,672
1,82,87,0
1,86,95,0
1,77,69,160
1,82,80,0
1,86,90,0
1,77,73,176
1,82,92,64
1,85,95,0
1,77,86,128
1,77,61,192
1,80,87,48
1,84,95,0
1,80,85,128
1,84,95,0
1,77,61,176
1,80,87,64
1,84,92,0
1,77,85,28
1,77,87,192
1,80,74,192
1,85,85,0
1,80,97,144
1,85,92,0
1,75,85,192
1,79,85,192
1,85,80,0
1,75,77,32
1,75,74,224
1,80,92,32
1,84,95,16
1,80,83,80
1,84,92,0
1,77,69,208
1,84,87,32
1,81,75,0
1,77,85,16
1,77,73,208
1,82,80,112
1,85,87,0
1,82,87,144
1,85,92,0
1,79,80,208
1,85,85,48
1,82,83,16
1,79,87,16
1,76,87,256
1,79,83,184
1,82,76,8
1,82,93,160
1,79,90,0
1,77,77,224
1,80,84,64
1,84,80,0
1,77,73,144
1,73,75,192
1,79,80,48
1,77,57,16
1,82,83,0
1,77,85,144
1,79,97,0
1,82,95,0
1,70,78,224
1,72,80,0
1,76,87,0
1,79,87,184
1,72,90,84
1,68,71,24
1,72,91,16
1,77,83,32
1,80,85,16
1,77,73,656
1,82,87,0
1,86,95,0
1,77,69,160
1,82,80,0
1,86,90,0
1,77,73,176
1,82,92,64
1,85,95,0
1,77,86,128
1,77,61,192
1,80,87,48
1,84,95,0
1,80,85,128
1,84,95,0
1,77,61,176
1,80,87,64
1,84,92,0
1,77,85,28
1,77,87,192
1,80,74,192
1,85,85,0
1,80,97,144
1,85,92,0
1,75,85,192
1,79,85,192
1,85,80,0
1,75,77,32
1,75,74,224
1,80,92,32
1,84,95,16
1,80,83,80
1,84,92,0
1,77,69,208
1,84,87,32
1,81,75,0
1,77,85,16
1,77,73,208
1,82,80,112
1,85,87,0
1,82,87,144
1,85,92,0
1,79,80,208
1,85,85,48
1,82,83,16
1,79,87,16
1,76,87,256
1,79,83,184
1,82,76,8
1,82,93,160
1,79,90,0
1,77,77,224
1,80,84,64
1,84,80,0
1,77,73,144
1,73,75,192
1,79,80,48
1,77,57,16
1,82,83,0
1,77,85,144
1,79,97,0
1,82,95,0
1,70,78,224
1,72,80,0
1,76,87,0
1,79,87,184
1,72,90,84
1,68,71,24
1,72,91,16
1,77,83,32
1,80,85,16
1,77,100,272
1,70,91,208
1,77,98,56
1,70,99,184
1,60,86,184
1,65,88,200
1,68,107,184
1,72,95,180
1,70,107,348
1,74,90,200
1,77,98,172
1,65,74,200
1,60,81,52
1,65,87,184
1,68,91,180
1,72,106,200
1,70,107,160
1,74,90,200
1,77,98,176
1,65,70,208
1,60,83,128
1,65,92,204
1,68,101,184
1,72,92,180
1,77,80,220
1,79,91,0
1,83,92,0
1,77,90,48
1,79,91,0
1,83,92,0
1,79,84,40
1,77,83,0
1,83,90,4
1,77,73,64
1,83,90,4
1,79,76,0
1,76,85,104
1,79,97,4
1,84,101,8
1,77,73,384
1,82,87,0
1,86,95,0
1,77,69,160
1,82,80,0
1,86,90,0
1,77,73,176
1,82,92,64
1,85,95,0
1,77,86,128
1,77,61,192
1,80,87,48
1,84,95,0
1,80,85,128
1,84,95,0
1,77,61,176
1,80,87,64
1,84,92,0
1,77,85,28
1,77,87,192
1,80,74,192
1,85,85,0
1,80,97,144
1,85,92,0
1,75,85,192
1,79,85,192
1,85,80,0
1,75,77,32
1,75,74,224
1,80,92,32
1,84,95,16
1,80,83,80
1,84,92,0
1,77,69,208
1,84,87,32
1,81,75,0
1,77,85,16
1,77,73,208
1,82,80,112
1,85,87,0
1,82,87,144
1,85,92,0
1,79,80,208
1,85,85,48
1,82,83,16
1,79,87,16
1,72,87,256
1,77,83,208
1,80,76,0
1,80,93,144
1,77,90,0
1,77,77,224
1,80,84,64
1,84,80,0
1,77,73,144
1,73,75,192
1,79,80,48
1,77,57,16
1,82,83,0
1,77,85,144
1,79,97,0
1,82,95,0
1,75,80,16
1,79,87,192
1,82,87,0
1,75,90,84
1,77,74,248
1,80,75,200
1,84,78,0
1,77,80,180
1,79,100,124
1,84,90,0
1,75,92,176
1,79,95,28
1,84,90,0
1,75,95,176
1,72,80,8
1,77,97,4
1,80,105,4
1,84,100,12
1,77,86,416
1,86,85,180
1,82,81,4
1,82,91,124
1,86,75,0
1,77,90,0
1,82,99,180
1,85,119,8
1,77,92,140
1,77,92,64
1,84,84,164
1,80,99,0
1,80,95,152
1,84,91,0
1,77,84,8
1,80,101,188
1,84,92,0
1,77,83,144
1,77,90,296
1,82,97,164
1,85,101,16
1,82,101,132
1,85,104,0
1,75,95,56
1,82,91,176
1,79,95,0
1,75,95,184
1,75,97,152
1,80,81,192
1,84,83,0
1,80,89,116
1,84,95,0
1,75,97,52
1,81,86,192
1,84,91,0
1,75,95,148
1,77,85,164
1,80,84,152
1,82,87,0
1,85,95,0
1,80,91,104
1,85,99,0
1,82,97,16
1,75,95,52
1,79,94,192
1,82,77,0
1,75,101,176
1,68,58,24
1,72,69,28
1,75,75,0
1,79,80,4
1,68,70,64
1,72,75,24
1,75,89,8
1,77,80,4
1,73,79,96
1,77,73,44
1,79,84,12
1,82,56,16
1,72,72,8
1,76,71,52
1,79,76,24
1,82,64,8
1,84,65,4
1,68,71,80
1,72,91,16
1,77,83,8
1,80,85,12
1,73,90,12
1,69,84,0
1,66,85,0
1,78,90,0
1,66,73,96
1,73,77,16
1,69,68,0
1,78,85,0
1,66,73,96
1,78,83,0
1,69,68,16
1,73,77,0
1,78,90,96
1,66,85,32
1,69,76,0
1,73,95,0
1,78,75,128
1,83,94,192
1,87,101,0
1,78,99,160
1,78,101,96
1,83,94,192
1,86,98,0
1,78,101,188
1,78,99,176
1,81,92,192
1,85,99,0
1,78,99,188
1,78,93,28
1,81,86,0
1,85,107,0
1,78,97,192
1,78,104,188
1,83,98,192
1,86,98,0
1,78,104,176
1,76,102,188
1,80,97,192
1,83,98,0
1,76,92,128
1,76,100,160
1,81,95,192
1,85,107,0
1,76,102,156
1,78,98,168
1,82,104,192
1,85,116,0
1,78,95,136
1,78,101,208
1,83,98,192
1,86,98,0
1,78,99,180
1,76,106,144
1,83,102,192
1,80,101,0
1,76,94,156
1,78,104,180
1,81,102,192
1,85,107,0
1,78,101,176
1,78,97,8
1,85,110,192
1,81,102,0
1,78,104,176
1,78,99,224
1,83,98,192
1,86,94,0
1,78,104,188
1,76,98,128
1,83,98,192
1,80,101,0
1,76,94,160
1,78,104,160
1,81,91,192
1,85,110,0
1,85,99,52
1,81,86,0
1,78,101,8
1,81,100,192
1,85,113,0
1,78,101,176
1,78,99,176
1,83,97,8
1,86,92,0
1,78,99,192
1,76,100,116
1,80,95,192
1,83,98,0
1,76,87,156
1,78,99,148
1,85,110,192
1,81,90,0
1,81,86,80
1,85,89,0
1,78,89,0
1,81,100,188
1,85,110,0
1,78,104,16
1,74,92,264
1,81,92,192
1,83,88,0
1,78,93,0
1,78,77,88
1,81,86,0
1,83,78,0
1,71,88,164
1,80,93,192
1,74,87,0
1,76,87,0
1,71,85,80
1,73,77,16
1,70,72,0
1,78,54,8
1,82,84,4
1,85,70,8
1,90,84,4
2,46,86,8796
2,46,86,176
2,46,93,16
2,46,88,160
2,41,86,0
2,41,88,160
2,41,88,112
2,41,86,160
2,34,93,32
2,34,83,160
2,39,96,48
2,39,88,144
2,44,97,64
2,44,93,176
2,41,96,16
2,41,88,144
2,46,88,32
2,46,86,160
2,39,88,48
2,46,77,16
2,43,81,8
2,36,86,0
2,40,81,160
2,41,83,32
2,36,83,160
2,34,91,48
2,34,83,176
2,36,96,16
2,36,88,144
2,41,96,32
2,46,86,80
2,46,86,192
2,46,93,92
2,46,88,160
2,41,86,16
2,41,88,160
2,41,88,112
2,41,86,160
2,46,93,32
2,46,83,160
2,39,96,48
2,43,88,144
2,44,97,64
2,44,93,176
2,41,96,16
2,45,88,144
2,46,88,32
2,46,86,160
2,39,88,48
2,46,93,8
2,43,81,4
2,36,86,4
2,40,81,176
2,41,83,32
2,36,83,160
2,34,91,48
2,34,83,176
2,36,96,16
2,36,88,144
2,41,96,32
2,41,79,16
2,41,98,16
2,41,98,16
2,44,83,20
2,46,101,16
2,46,86,192
2,46,88,64
2,46,88,128
2,41,93,16
2,41,76,176
2,41,88,112
2,41,86,144
2,46,88,32
2,46,86,160
2,46,93,80
2,46,96,160
2,41,91,16
2,41,93,192
2,41,83,128
2,41,88,160
2,46,91,64
2,46,91,176
2,46,93,128
2,46,93,160
2,41,98,16
2,41,83,176
2,41,93,96
2,41,96,176
2,43,101,32
2,43,98,32
2,43,93,44
2,43,93,48
2,36,91,48
2,34,86,304
2,34,86,192
2,34,93,128
2,34,88,160
2,41,86,0
2,41,88,160
2,41,88,112
2,41,86,160
2,46,93,32
2,41,83,160
2,39,96,48
2,43,88,144
2,44,97,64
2,43,93,192
2,41,96,0
2,45,88,144
2,46,88,32
2,41,86,160
2,39,119,48
2,41,97,20
2,43,110,16
2,39,116,32
2,41,86,48
2,41,81,160
2,41,83,32
2,41,83,160
2,46,91,48
2,46,83,176
2,39,101,16
2,41,104,96
2,39,86,80
2,39,96,128
2,39,93,144
2,39,96,144
2,41,101,144
2,46,86,368
2,46,86,192
2,46,93,128
2,46,88,160
2,41,86,0
2,41,88,160
2,41,88,112
2,41,86,160
2,46,93,32
2,46,83,160
2,39,96,48
2,41,88,16
2,43,102,8
2,46,110,28
2,44,97,48
2,43,93,52
2,41,96,0
2,45,88,144
2,46,88,32
2,41,86,160
2,39,88,48
2,39,81,144
2,44,86,0
2,44,81,160
2,37,83,32
2,44,83,160
2,46,91,48
2,46,83,176
2,48,96,16
2,48,88,144
2,41,96,32
2,42,101,392
2,42,93,16
2,42,96,16
2,42,96,16
2,47,86,16
2,47,86,176
2,47,93,56
2,47,88,160
2,42,86,0
2,42,88,160
2,42,88,112
2,42,86,160
2,47,93,32
2,47,83,160
2,40,96,48
2,42,88,16
2,44,99,16
2,47,97,8
2,45,97,60
2,45,93,176
2,42,96,16
2,46,88,144
2,47,88,32
2,42,86,160
2,40,88,48
2,40,81,144
2,42,86,0
2,42,81,160
2,42,83,32
2,42,83,160
2,47,96,48
2,42,101,176
2,40,98,48
2,42,86,16
2,44,116,32
2,40,93,20
2,42,93,0
2,42,98,160
2,42,101,68
2,42,98,176
2,47,91,208
2,42,93,144
2,40,96,16
2,42,88,16
2,44,113,16
2,40,90,16
2,42,96,0
2,42,98,160
2,42,91,48
2,42,86,32
2,47,98,48
2,42,93,144
2,40,98,48
2,42,93,16
2,44,113,16
2,40,108,32
2,42,104,16
3,58,63,8696
3,62,76,28
3,65,65,32
3,58,37,208
3,61,76,32
3,65,67,32
3,53,59,0
3,56,70,16
3,60,81,48
3,53,59,304
3,56,70,192
3,61,70,80
3,65,69,0
3,58,59,0
3,58,53,32
3,63,76,48
3,67,79,16
3,56,36,32
3,60,81,48
3,63,83,16
3,57,50,16
3,60,86,16
3,63,81,16
3,58,53,64
3,61,80,0
3,65,63,48
3,58,42,64
3,63,86,16
3,67,69,32
3,55,54,32
3,60,86,16
3,64,72,32
3,53,24,48
3,56,93,16
3,60,81,32
3,58,50,352
3,61,83,32
3,65,79,32
3,60,63,16
3,64,87,16
3,67,86,32
3,53,56,96
3,56,87,16
3,60,71,16
3,58,63,292
3,62,76,28
3,65,65,28
3,58,37,16
3,61,76,32
3,65,67,32
3,53,59,0
3,56,70,16
3,60,81,48
3,53,59,304
3,56,70,192
3,61,70,80
3,65,69,0
3,58,59,0
3,58,53,32
3,63,76,48
3,67,79,16
3,56,36,32
3,60,81,48
3,63,83,16
3,57,50,16
3,60,86,16
3,63,81,16
3,58,53,64
3,61,80,0
3,65,63,48
3,58,42,64
3,63,86,16
3,67,69,32
3,55,54,32
3,60,86,16
3,64,72,32
3,53,24,48
3,56,93,16
3,60,81,32
3,58,50,352
3,61,83,32
3,65,79,32
3,60,63,16
3,64,87,16
3,67,86,32
3,53,56,96
3,56,87,16
3,60,71,16
3,58,71,272
3,62,83,64
3,58,73,208
3,62,73,176
3,58,54,0
3,56,76,80
3,53,67,16
3,53,53,112
3,56,54,96
3,58,63,144
3,62,67,80
3,58,69,128
3,62,71,192
3,56,76,128
3,53,71,0
3,53,56,64
3,56,70,176
3,53,53,160
3,58,73,32
3,62,81,80
3,58,71,320
3,62,58,208
3,53,61,80
3,56,70,0
3,53,65,0
3,56,57,192
3,53,63,96
3,55,67,80
3,59,67,0
3,59,80,144
3,55,69,0
3,59,72,112
3,55,69,0
3,59,64,112
3,55,58,16
3,55,67,112
3,60,81,0
3,58,63,208
3,62,76,32
3,65,65,32
3,58,37,16
3,61,76,32
3,65,67,32
3,53,59,0
3,56,70,16
3,60,81,48
3,53,59,304
3,56,70,192
3,61,70,80
3,65,69,0
3,58,59,0
3,58,53,32
3,63,76,48
3,67,79,16
3,56,36,32
3,60,81,48
3,63,83,16
3,57,50,16
3,60,86,16
3,63,81,16
3,58,53,64
3,61,80,0
3,65,63,48
3,58,42,64
3,63,86,16
3,67,69,32
3,53,54,32
3,60,86,16
3,56,72,32
3,53,24,48
3,56,93,16
3,60,81,32
3,58,50,352
3,61,83,32
3,65,79,32
3,58,63,3824
3,62,76,32
3,65,65,32
3,58,37,16
3,61,76,32
3,65,67,32
3,53,59,0
3,56,70,16
3,60,81,48
3,53,59,304
3,56,70,192
3,61,70,80
3,65,69,0
3,58,59,0
3,58,53,32
3,63,76,48
3,67,79,16
3,56,36,32
3,60,81,48
3,63,83,16
3,57,50,16
3,60,86,16
3,63,81,16
3,58,53,64
3,61,80,0
3,65,63,48
3,58,42,64
3,63,86,16
3,67,69,32
3,56,54,32
3,60,86,16
3,63,72,32
3,56,72,48
3,60,73,16
3,65,73,32
3,58,50,352
3,61,83,32
3,65,79,32
3,55,86,0
3,60,63,16
3,64,87,16
3,53,56,96
3,56,87,16
3,60,71,16
3,59,63,1088
3,63,76,32
3,66,65,32
3,59,37,16
3,62,76,32
3,66,67,32
3,54,59,0
3,57,70,16
3,61,81,48
3,54,59,304
3,57,70,192
3,62,70,80
3,66,69,0
3,59,59,0
3,59,53,32
3,64,76,48
3,68,79,16
3,57,36,32
3,61,81,48
3,64,83,16
3,58,50,16
3,61,86,16
3,64,81,16
3,59,53,64
3,62,80,0
3,66,63,48
3,59,42,64
3,64,86,16
3,68,69,32
3,57,54,32
3,61,86,16
3,66,72,32
3,54,24,48
3,57,93,16
3,61,81,32
3,59,73,16
3,62,67,16
3,66,65,16
3,71,86,16
3,59,63,176
3,64,73,0
3,68,81,16
3,54,69,336
3,57,70,64
3,61,65,0
3,66,81,0
3,59,65,320
3,62,70,64
3,66,65,0
3,71,93,32
3,59,61,192
3,64,76,64
3,68,83,0
3,54,65,336
3,57,80,16
3,61,79,0
3,59,58,368
3,62,70,64
3,66,79,0
3,59,61,176
3,64,81,32
3,68,71,16
3,54,65,400
3,58,81,12
3,61,65,8
3,66,71,16
4,53,112,7620
4,53,112,112
4,56,115,64
4,56,119,112
4,60,119,64
4,60,119,112
4,58,122,96
4,56,123,224
4,55,107,32
4,56,119,48
4,53,117,384
4,61,119,416
4,61,119,60
4,58,112,16
4,63,112,48
4,63,114,96
4,58,112,32
4,60,117,16
4,60,114,320
4,65,122,80
4,63,107,16
4,61,123,80
4,60,102,32
4,61,119,48
4,63,112,432
4,61,119,32
4,60,112,48
4,60,117,128
4,58,102,16
4,60,112,208
4,56,98,28
4,53,114,32
4,58,119,272
4,56,109,32
4,55,107,0
4,53,114,208
4,53,114,32
4,53,112,112
4,56,113,80
4,56,113,112
4,60,107,80
4,60,114,144
