track,note,velocity,time
1,36,124,6912
1,36,123,276
1,36,126,468
1,36,123,276
1,36,107,180
1,36,124,276
1,36,123,276
1,36,126,468
1,36,123,276
1,36,107,180
1,36,124,276
1,36,123,276
1,36,126,468
1,36,123,276
1,36,107,180
1,36,124,276
1,36,123,276
1,36,126,468
1,36,123,1524
1,36,120,84
1,36,123,276
1,36,127,132
1,36,120,228
1,36,122,84
1,36,122,180
1,36,120,180
1,36,123,276
1,36,123,372
1,36,101,84
1,36,120,276
1,36,122,132
1,36,122,132
1,36,120,180
1,36,119,180
1,36,123,84
1,36,123,372
1,36,101,84
1,36,120,276
1,36,122,132
1,36,122,132
1,36,120,180
1,36,123,276
1,36,123,372
1,36,101,84
1,36,120,276
1,36,122,132
1,36,122,132
1,36,120,180
1,36,119,180
1,36,123,84
1,36,123,372
1,36,101,84
1,36,120,276
1,36,122,132
1,36,122,132
1,36,120,180
1,36,119,180
1,36,123,84
1,36,123,372
1,36,101,84
1,36,120,276
1,36,122,132
1,36,122,132
1,36,120,180
1,36,119,180
1,36,122,84
1,36,122,372
1,36,100,84
1,36,119,276
1,36,111,756
1,36,109,372
1,36,108,84
1,36,109,276
1,36,112,84
1,36,113,276
1,36,113,84
1,36,111,276
1,36,111,84
1,36,112,276
1,36,115,84
1,36,112,276
1,36,113,84
1,36,119,276
1,36,119,84
1,36,117,276
1,36,117,84
1,36,107,372
1,36,117,180
1,36,109,180
1,36,119,180
1,36,112,468
1,36,110,372
1,36,109,84
1,36,110,276
1,36,113,84
1,36,114,276
1,36,114,84
1,36,112,276
1,36,113,372
1,36,116,84
1,36,113,276
1,36,114,84
1,36,120,180
1,36,120,180
1,36,117,276
1,36,117,372
1,36,107,84
1,36,117,276
1,36,109,84
1,36,119,180
1,36,111,180
1,36,112,276
1,36,110,372
1,36,99,84
1,36,110,276
1,36,114,372
1,36,101,84
1,36,112,276
1,36,116,468
1,36,113,276
1,36,120,276
1,36,114,468
1,36,116,9972
1,36,114,276
1,36,113,180
1,36,116,276
1,36,114,276
1,36,113,180
1,36,116,276
1,36,114,276
1,36,113,180
1,36,110,84
1,36,111,84
1,36,116,84
1,36,114,276
1,36,113,180
1,36,116,276
1,36,103,132
1,36,114,132
1,36,113,180
1,36,116,276
1,36,114,276
1,36,113,180
1,36,116,276
1,36,114,276
1,36,113,180
1,36,107,84
1,36,105,84
1,36,107,84
1,36,113,420
1,36,113,84
1,36,113,84
1,36,118,132
1,36,117,756
1,36,118,84
1,36,124,276
1,36,124,84
1,36,121,276
1,36,121,84
1,36,111,372
1,36,121,180
1,36,113,132
1,36,123,84
1,36,117,84
1,36,114,84
1,36,114,84
1,36,121,84
1,36,88,228
1,36,88,336
1,36,66,48
1,36,85,240
1,36,87,96
1,36,87,96
1,36,85,144
1,36,84,144
1,36,88,48
1,36,88,336
1,36,66,48
1,36,85,240
1,36,87,96
1,36,87,96
1,36,85,144
1,36,88,240
1,36,88,336
1,36,66,48
1,36,85,240
1,36,87,96
1,36,87,96
1,36,85,144
1,36,84,144
1,36,88,48
1,36,88,336
1,36,66,48
1,36,85,240
1,36,87,96
1,36,87,96
1,36,85,144
1,36,84,144
1,36,88,48
1,36,88,336
1,36,66,48
1,36,85,240
1,36,87,96
1,36,87,96
1,36,85,144
1,36,84,144
1,36,88,48
1,36,88,336
1,36,80,48
1,36,88,240
1,36,76,96
1,36,78,288
1,36,55,192
1,36,88,0
1,36,88,336
1,36,66,48
1,36,85,240
1,36,87,96
1,36,87,96
1,36,85,144
1,36,84,144
1,36,88,48
1,36,88,336
1,36,80,48
1,36,88,240
1,36,76,96
1,36,78,288
1,36,55,192
1,36,88,0
1,36,88,336
1,36,66,48
1,36,85,240
1,36,87,96
1,36,87,96
1,36,85,144
1,36,84,144
1,36,88,48
1,36,88,336
1,36,80,48
1,36,88,240
1,36,76,96
1,36,78,288
1,36,75,240
2,38,127,6144
2,38,94,276
2,38,114,36
2,38,123,36
2,38,121,36
2,38,127,6845
2,38,127,0
2,38,127,569
2,38,127,372
2,38,127,372
2,38,114,180
2,38,111,180
2,38,116,36
2,38,111,36
2,38,110,36
2,38,127,228
2,38,127,372
2,38,127,372
2,38,114,180
2,38,111,180
2,38,127,372
2,38,127,372
2,38,127,372
2,38,114,180
2,38,111,36
2,38,111,132
2,38,116,36
2,38,113,36
2,38,117,36
2,38,127,228
2,38,127,372
2,38,127,372
2,38,114,180
2,38,111,180
2,38,127,372
2,38,127,372
2,38,127,372
2,38,114,180
2,38,111,180
2,38,127,372
2,38,127,372
2,38,127,372
2,38,114,180
2,38,111,180
2,38,127,372
2,38,127,372
2,38,123,660
2,38,116,2004
2,38,120,372
2,38,120,372
2,38,123,372
2,38,117,372
2,38,123,180
2,38,126,180
2,38,126,180
2,38,118,180
2,38,110,36
2,38,118,132
2,38,126,84
2,38,121,468
2,38,127,372
2,38,125,372
2,38,121,372
2,38,116,372
2,38,120,372
2,38,120,372
2,38,113,372
2,38,114,36
2,38,111,36
2,38,113,36
2,38,117,228
2,38,126,372
2,38,118,372
2,38,121,372
2,38,121,372
2,38,125,372
2,38,121,372
2,38,122,372
2,38,121,372
2,38,120,372
2,38,120,372
2,38,123,372
2,38,121,10356
2,38,127,372
2,38,121,372
2,38,127,372
2,38,121,372
2,38,121,756
2,38,127,372
2,38,121,372
2,38,127,372
2,38,121,372
2,38,127,372
2,38,121,372
2,38,118,941
2,38,118,0
2,38,117,281
2,38,122,276
2,38,119,36
2,38,114,132
2,38,117,36
2,38,114,36
2,38,117,36
2,38,120,420
2,38,123,372
2,38,117,372
2,38,123,180
2,38,126,180
2,38,126,180
2,38,118,180
2,38,121,180
2,38,118,180
2,38,117,36
2,38,119,36
2,38,115,36
2,38,127,228
2,38,127,372
2,38,127,372
2,38,114,180
2,38,111,180
2,38,127,372
2,38,127,372
2,38,127,372
2,38,114,180
2,38,111,36
2,38,111,132
2,38,116,36
2,38,113,36
2,38,117,36
2,38,127,228
2,38,127,372
2,38,127,372
2,38,114,180
2,38,111,180
2,38,127,372
2,38,127,372
2,38,127,372
2,38,114,180
2,38,111,180
2,38,127,372
2,38,127,372
2,38,127,372
2,38,114,180
2,38,121,180
2,38,127,372
2,38,127,372
2,38,125,372
2,38,123,180
2,38,125,36
2,38,127,132
2,38,123,36
2,38,127,324
2,38,127,372
2,38,127,372
2,38,114,180
2,38,121,180
2,38,127,372
2,38,127,372
2,38,125,372
2,38,123,180
2,38,125,36
2,38,127,132
2,38,123,36
2,38,127,324
2,38,127,372
2,38,127,372
2,38,114,180
2,38,121,180
2,38,127,372
2,38,127,372
2,38,125,372
2,38,123,180
2,38,125,36
2,38,127,132
2,38,123,36
3,42,124,6914
3,42,95,82
3,42,120,83
3,42,97,87
3,42,124,84
3,42,94,82
3,42,122,85
3,42,94,84
3,42,122,84
3,42,91,84
3,42,122,83
3,42,94,86
3,42,122,82
3,42,91,83
3,42,124,87
3,42,94,84
3,42,124,82
3,42,95,85
3,42,120,84
3,42,97,84
3,42,124,84
3,42,94,83
3,42,122,86
3,42,94,82
3,42,122,83
3,42,91,87
3,42,122,84
3,42,94,82
3,42,122,85
3,42,91,84
3,42,124,84
3,42,94,84
3,42,124,83
3,42,95,86
3,42,120,82
3,42,97,83
3,42,124,87
3,42,94,84
3,42,122,82
3,42,94,85
3,42,122,84
3,42,91,84
3,42,122,84
3,42,94,83
3,42,122,86
3,42,91,82
3,42,124,83
3,42,94,87
3,42,124,84
3,42,95,82
3,42,120,85
3,42,97,84
3,42,124,84
3,42,94,84
3,42,122,83
3,42,94,86
3,42,103,82
3,42,69,83
3,42,97,87
3,42,80,84
3,42,94,82
3,42,75,85
3,42,96,84
3,42,78,84
3,42,103,84
3,42,69,83
3,42,97,86
3,42,80,82
3,42,94,83
3,42,75,87
3,42,96,84
3,42,78,82
3,42,122,85
3,42,91,84
3,42,122,84
3,42,94,84
3,42,122,83
3,42,91,86
3,42,124,82
3,42,94,83
3,42,122,87
3,42,91,84
3,42,122,82
3,42,94,85
3,42,122,84
3,42,91,84
3,42,124,84
3,42,94,83
3,42,122,86
3,42,91,82
3,42,122,83
3,42,94,87
3,42,122,84
3,42,91,82
3,42,124,85
3,42,94,84
3,42,122,84
3,42,91,84
3,42,122,83
3,42,94,86
3,42,122,82
3,42,91,83
3,42,124,87
3,42,94,84
3,42,122,82
3,42,91,85
3,42,122,84
3,42,94,84
3,42,122,84
3,42,91,83
3,42,124,86
3,42,94,82
3,42,122,83
3,42,91,87
3,42,122,84
3,42,94,82
3,42,122,85
3,42,91,84
3,42,124,84
3,42,94,84
3,42,122,83
3,42,91,86
3,42,122,82
3,42,94,83
3,42,122,87
3,42,91,84
3,42,124,82
3,42,94,85
3,42,122,84
3,42,91,84
3,42,122,84
3,42,94,83
3,42,122,86
3,42,91,82
3,42,124,83
3,42,94,87
3,42,122,84
3,42,91,82
3,42,122,85
3,42,94,84
3,42,122,84
3,42,91,84
3,42,124,83
3,42,94,86
3,42,122,82
3,42,91,83
3,42,122,87
3,42,94,84
3,42,122,82
3,42,91,85
3,42,124,84
3,42,94,84
3,42,122,84
3,42,91,83
3,42,122,86
3,42,94,82
3,42,122,83
3,42,91,87
3,42,124,84
3,42,94,82
3,42,122,85
3,42,91,84
3,42,122,84
3,42,94,84
3,42,122,83
3,42,91,86
3,42,124,82
3,42,94,83
3,42,122,87
3,42,91,84
3,42,122,82
3,42,94,85
3,42,122,84
3,42,91,84
3,42,124,84
3,42,94,83
3,42,122,86
3,42,122,755
3,42,91,84
3,42,122,83
3,42,94,86
3,42,122,82
3,42,91,83
3,42,124,87
3,42,94,84
3,42,122,82
3,42,91,85
3,42,122,84
3,42,94,84
3,42,122,84
3,42,91,83
3,42,124,86
3,42,94,82
3,42,122,83
3,42,91,87
3,42,122,84
3,42,94,82
3,42,122,85
3,42,91,84
3,42,124,84
3,42,94,84
3,42,122,83
3,42,91,86
3,42,122,82
3,42,94,83
3,42,122,87
3,42,91,84
3,42,124,82
3,42,94,85
3,42,122,84
3,42,91,84
3,42,122,84
3,42,94,83
3,42,122,86
3,42,91,82
3,42,124,83
3,42,94,87
3,42,122,84
3,42,91,82
3,42,122,85
3,42,94,84
3,42,122,84
3,42,91,84
3,42,124,83
3,42,94,86
3,42,122,82
3,42,91,83
3,42,122,87
3,42,94,84
3,42,122,82
3,42,91,85
3,42,124,84
3,42,94,84
3,42,122,84
3,42,91,83
3,42,122,86
3,42,94,82
3,42,122,83
3,42,91,87
3,42,124,84
3,42,94,82
3,42,122,85
3,42,91,84
3,42,122,84
3,42,94,84
3,42,122,83
3,42,91,86
3,42,124,82
3,42,94,83
3,42,122,87
3,42,91,84
3,42,122,82
3,42,94,85
3,42,122,84
3,42,91,84
3,42,124,84
3,42,94,83
3,42,122,86
3,42,91,82
3,42,122,83
3,42,94,87
3,42,122,84
3,42,91,82
3,42,124,85
3,42,94,84
3,42,122,84
3,42,91,84
3,42,122,83
3,42,94,86
3,42,122,82
3,42,91,83
3,42,124,87
3,42,94,84
3,42,122,82
3,42,91,85
3,42,122,84
3,42,94,84
3,42,122,84
3,42,91,83
3,42,124,86
3,42,94,82
3,42,122,83
3,42,91,87
3,42,122,84
3,42,94,82
3,42,122,85
3,42,91,84
3,42,124,84
3,42,94,84
3,42,122,83
3,42,91,86
3,42,122,82
3,42,94,83
3,42,122,87
3,42,91,84
3,42,124,82
3,42,94,85
3,42,122,84
3,42,91,84
3,42,122,84
3,42,94,83
3,42,122,86
3,42,91,82
3,42,124,83
3,42,94,87
3,42,122,10067
3,42,91,83
3,42,122,86
3,42,94,82
3,42,122,83
3,42,91,87
3,42,124,84
3,42,94,82
3,42,122,85
3,42,91,84
3,42,122,84
3,42,94,84
3,42,122,83
3,42,91,86
3,42,124,82
3,42,94,83
3,42,122,87
3,42,91,84
3,42,122,82
3,42,94,85
3,42,122,84
3,42,91,84
3,42,124,84
3,42,94,83
3,42,122,86
3,42,91,82
3,42,122,83
3,42,94,87
3,42,122,84
3,42,91,82
3,42,124,85
3,42,94,84
3,42,122,84
3,42,91,84
3,42,122,83
3,42,94,86
3,42,122,82
3,42,91,83
3,42,124,87
3,42,94,84
3,42,122,82
3,42,91,85
3,42,122,84
3,42,94,84
3,42,122,84
3,42,91,83
3,42,124,86
3,42,94,82
3,42,122,83
3,42,91,87
3,42,122,84
3,42,94,82
3,42,122,85
3,42,91,84
3,42,124,84
3,42,94,84
3,42,122,83
3,42,91,86
3,42,122,82
3,42,94,83
3,42,122,87
3,42,91,84
3,42,124,82
3,42,94,85
3,42,122,84
3,42,122,757
3,42,91,82
3,42,122,85
3,42,94,84
3,42,122,84
3,42,91,84
3,42,124,83
3,42,94,86
3,42,122,82
3,42,91,83
3,42,122,87
3,42,94,84
3,42,122,82
3,42,91,85
3,42,124,84
3,42,94,84
3,42,122,84
3,42,91,83
3,42,122,86
3,42,94,82
3,42,122,83
3,42,91,87
3,42,124,84
3,42,94,82
3,42,122,85
3,42,91,84
3,42,122,84
3,42,94,84
3,42,122,83
3,42,91,86
3,42,124,82
3,42,94,83
3,42,122,87
3,42,91,84
3,42,122,82
3,42,94,85
3,42,122,84
3,42,91,84
3,42,124,84
3,42,94,83
3,42,122,86
3,42,91,82
3,42,122,83
3,42,94,87
3,42,122,84
3,42,91,82
3,42,124,85
3,42,94,84
3,42,122,84
3,42,91,84
3,42,122,83
3,42,94,86
3,42,122,82
3,42,91,83
3,42,124,87
3,42,94,84
3,42,122,82
3,42,91,85
3,42,122,84
3,42,94,84
3,42,122,84
3,42,91,83
3,42,124,86
3,42,94,82
3,42,122,83
3,42,91,87
3,42,122,84
3,42,94,82
3,42,122,85
3,42,91,84
3,42,124,84
3,42,94,84
3,42,122,83
3,42,91,86
3,42,122,82
3,42,94,83
3,42,122,87
3,42,91,84
3,42,124,82
3,42,94,85
3,42,122,84
3,42,91,84
3,42,122,84
3,42,94,83
3,42,122,86
3,42,91,82
3,42,124,83
3,42,94,87
3,42,122,84
3,42,91,82
3,42,122,85
3,42,94,84
3,42,122,84
3,42,91,84
3,42,124,83
3,42,94,86
3,42,122,82
3,42,91,83
3,42,122,87
3,42,94,84
3,42,122,82
3,42,91,85
3,42,124,84
3,42,94,84
3,42,122,84
3,42,91,83
3,42,122,86
3,42,94,82
3,42,122,83
3,42,91,87
3,42,124,84
3,42,94,82
3,42,122,85
3,42,91,84
3,42,122,84
3,42,94,84
3,42,122,83
3,42,91,86
3,42,124,82
3,42,94,83
3,42,122,87
3,42,91,84
3,42,122,82
3,42,94,85
3,42,122,84
3,42,91,84
3,42,124,84
3,42,94,83
3,42,122,86
3,42,91,82
3,42,122,83
3,42,94,87
3,42,122,84
3,42,91,82
3,42,124,85
3,42,94,84
3,42,122,84
3,42,91,84
3,42,122,83
3,42,94,86
3,42,122,82
3,42,91,83
3,42,124,87
3,42,94,84
3,42,122,82
3,42,91,85
3,42,122,84
3,42,94,84
3,42,122,84
3,42,91,83
3,42,124,86
3,42,94,82
3,42,122,83
3,42,91,87
3,42,122,84
3,42,94,82
3,42,122,85
3,42,91,84
3,42,124,84
3,42,94,84
3,42,122,83
3,42,91,86
3,42,122,82
3,42,94,83
3,42,122,87
3,42,91,84
3,42,124,82
3,42,94,85
3,42,122,84
3,42,91,84
3,42,122,84
3,42,94,83
3,42,122,86
3,42,91,82
3,42,124,83
3,42,94,87
3,42,122,84
3,42,91,82
3,42,122,85
3,42,94,84
3,42,122,84
3,42,91,84
3,42,124,83
3,42,94,86
4,37,127,7104
4,37,127,372
4,37,127,372
4,37,127,372
4,37,127,372
4,37,127,372
4,37,127,372
4,37,127,372
4,37,127,372
4,37,127,372
4,37,127,372
4,37,127,372
4,37,127,372
4,37,127,372
4,37,127,12660
4,37,127,372
4,37,127,372
4,37,127,372
5,47,117,6240
5,47,122,468
5,47,113,36
5,47,122,6852
5,47,113,36
5,47,122,10692
5,47,117,4596
5,47,113,36
5,47,48,16644
5,47,63,84
