track,note,velocity,time
1,38,87,6678
1,33,89,8
1,36,82,2
1,35,85,12
1,31,87,22
1,38,88,4
1,33,87,12
1,36,87,2
1,35,86,2
1,31,87,58
1,38,87,78
1,33,86,8
1,38,88,2
1,40,86,2
1,38,89,2
1,36,82,98
1,35,85,12
1,31,87,22
1,38,87,4
1,38,86,8
1,38,88,2
1,33,86,2
1,38,89,2
1,36,87,98
1,35,86,2
1,31,87,58
1,38,87,2
1,33,86,8
1,38,88,2
1,40,86,2
1,38,89,2
1,36,82,98
1,35,85,12
1,31,87,22
1,38,87,4
1,38,86,8
1,38,88,2
1,33,86,2
1,38,89,2
1,36,87,98
1,35,87,2
1,45,87,8
1,43,84,10
1,40,86,28
1,43,85,2
1,45,81,2
1,43,83,2
1,38,84,18
1,38,87,2
1,38,83,28
1,38,86,28
1,38,83,28
1,31,90,28
1,36,85,58
1,36,86,104
1,40,83,40
1,36,83,30
1,40,85,12
1,40,82,34
1,31,82,2
1,38,82,2
1,38,87,84
1,36,82,2
1,31,90,60
1,36,85,58
1,36,86,104
1,40,83,40
1,36,83,30
1,40,85,12
1,40,82,34
1,31,82,2
1,38,82,2
1,38,87,84
1,36,82,2
1,31,90,60
1,36,85,58
1,36,86,104
1,40,83,40
1,36,83,30
1,40,85,12
1,40,82,34
1,31,82,2
1,38,82,2
1,38,87,84
1,36,82,2
1,31,90,60
1,36,85,58
1,36,86,104
1,40,83,40
1,36,83,30
1,40,85,12
1,40,82,34
1,31,82,2
1,38,82,2
1,38,87,84
1,36,82,2
1,31,90,60
1,36,85,58
1,36,86,104
1,40,83,40
1,36,83,30
1,40,85,12
1,40,82,34
1,31,82,2
1,38,82,2
1,38,87,84
1,36,82,2
1,31,90,60
1,36,85,58
1,36,86,104
1,39,87,40
1,28,83,2
1,28,84,50
1,30,83,60
1,28,81,20
1,30,87,2
1,28,79,20
1,33,83,2
1,33,84,60
1,35,81,68
1,33,79,26
1,35,81,6
1,26,83,28
1,33,83,2
1,31,86,2
1,31,83,6
1,31,82,100
1,30,79,2
1,28,86,10
1,26,85,64
1,36,83,2
1,35,82,8
1,31,86,2
1,38,88,106
1,33,87,12
1,36,87,2
1,35,86,2
1,31,87,58
1,38,87,78
1,33,86,8
1,38,88,2
1,40,86,2
1,38,89,2
1,36,82,98
1,35,85,12
1,31,87,22
1,38,87,4
1,38,86,8
1,38,88,2
1,33,86,2
1,38,89,2
1,36,87,98
1,35,86,2
1,31,87,58
1,38,87,2
1,33,86,8
1,38,88,2
1,40,86,2
1,38,89,2
1,36,82,98
1,35,85,12
1,31,87,22
1,38,87,4
1,38,86,8
1,38,88,2
1,33,86,2
1,38,89,2
1,36,87,98
1,35,87,2
1,45,87,8
1,43,84,10
1,40,86,28
1,43,85,2
1,45,81,2
1,43,83,2
1,38,84,18
1,38,87,2
1,38,83,28
1,38,86,28
1,38,83,28
1,31,90,28
1,36,85,58
1,36,86,104
1,40,83,40
1,36,83,30
1,40,85,12
1,40,82,34
1,31,82,2
1,38,82,2
1,38,87,84
1,36,82,2
1,31,90,60
1,36,85,58
1,36,86,104
1,40,83,40
1,36,83,30
1,40,85,12
1,40,82,34
1,31,82,2
1,38,82,2
1,38,87,84
1,36,82,2
1,31,90,60
1,36,85,58
1,36,86,104
1,40,83,40
1,36,83,30
1,40,85,12
1,40,82,34
1,31,82,2
1,38,82,2
1,38,87,84
1,36,82,2
1,31,90,60
1,36,85,58
1,36,86,104
1,40,83,40
1,36,83,30
1,40,85,12
1,40,82,34
1,31,82,2
1,38,82,2
1,38,87,84
1,36,82,2
1,31,90,60
1,36,85,58
1,36,86,104
1,40,83,40
1,36,83,30
1,40,85,12
1,40,82,34
1,31,82,2
1,38,82,2
1,38,87,84
1,36,82,2
1,31,90,60
1,36,85,58
1,36,86,104
1,39,87,40
1,28,83,2
1,28,84,50
1,30,83,60
1,28,81,20
1,30,87,2
1,28,79,20
1,33,83,2
1,33,84,60
1,35,81,68
1,33,79,26
1,35,81,6
1,26,83,28
1,33,83,2
1,35,82,2
1,35,83,76
1,35,82,50
1,33,84,32
1,33,81,60
1,33,82,32
1,33,83,52
1,31,84,52
1,31,86,28
1,31,85,72
1,31,83,94
1,30,80,70
1,30,83,76
1,30,85,84
1,31,85,82
1,33,87,54
1,33,84,66
1,33,84,58
1,33,86,70
1,33,82,80
1,33,84,86
1,33,83,88
1,33,86,70
1,33,82,94
1,33,83,82
1,33,83,92
1,33,86,104
1,33,84,88
1,33,86,100
1,33,85,100
1,26,87,72
1,26,87,46
1,31,86,24
1,31,87,58
1,31,86,54
1,30,86,24
1,30,82,70
1,33,82,38
1,33,83,44
1,33,83,54
1,26,83,32
1,26,82,70
1,31,86,12
1,31,84,52
1,31,87,40
1,31,86,44
1,30,83,16
1,30,87,38
1,30,83,10
1,33,87,54
1,33,83,8
1,33,84,36
1,33,84,48
1,26,86,44
1,26,82,56
1,31,85,16
1,31,85,92
1,31,83,50
1,35,83,4
1,35,84,50
1,35,82,66
1,37,81,2
1,37,85,60
1,37,86,44
1,33,82,2
1,38,85,22
1,42,80,2
1,35,86,48
1,35,82,56
1,35,82,36
1,38,82,2
1,28,82,38
1,35,81,4
1,33,82,2
1,33,79,78
1,37,82,2
1,40,82,8
1,31,86,2
1,43,87,24
1,43,86,26
1,31,88,4
1,30,87,54
1,28,87,22
1,26,85,68
1,38,77,13728
1,38,74,108
1,38,80,142
1,38,77,116
1,38,80,112
1,38,82,104
1,38,82,102
1,38,83,110
1,38,86,100
1,38,85,96
1,38,87,90
1,38,89,84
1,38,90,112
1,38,90,122
1,38,91,122
1,38,89,24
1,38,89,2
1,38,89,2
1,38,87,2
1,33,86,8
1,38,88,2
1,40,86,2
1,38,89,2
1,36,82,98
1,35,85,12
1,31,87,22
1,38,87,4
1,38,86,8
1,38,88,2
1,33,86,2
1,38,89,2
1,36,87,98
1,35,86,2
1,31,87,58
1,38,87,2
1,33,86,8
1,38,88,2
1,40,86,2
1,38,89,2
1,36,82,98
1,35,85,12
1,31,87,22
1,38,87,4
1,38,86,8
1,38,88,2
1,33,86,2
1,38,89,2
1,36,87,98
1,35,87,2
1,45,87,8
1,43,84,10
1,40,86,28
1,43,85,2
1,45,81,2
1,43,83,2
1,38,84,18
1,38,87,2
1,38,83,28
1,38,86,28
1,38,83,28
1,38,84,28
1,38,87,2
1,38,83,28
1,38,86,28
1,38,83,28
1,31,90,28
1,36,85,58
1,36,86,104
1,40,83,40
1,36,83,30
1,40,85,12
1,40,82,34
1,31,82,2
1,38,82,2
1,38,87,84
1,36,82,2
1,31,90,60
1,36,85,58
1,36,86,104
1,40,83,40
1,36,83,30
1,40,85,12
1,40,82,34
1,31,82,2
1,38,82,2
1,38,87,84
1,36,82,2
1,31,90,60
1,36,85,58
1,36,86,104
1,40,83,40
1,36,83,30
1,40,85,12
1,40,82,34
1,31,82,2
1,38,82,2
1,38,87,84
1,36,82,2
1,31,90,60
1,36,85,58
1,36,86,104
1,40,83,40
1,36,83,30
1,40,85,12
1,40,82,34
1,31,82,2
1,38,82,2
1,38,87,84
1,36,82,2
1,31,90,60
1,36,85,58
1,36,86,104
1,40,83,40
1,36,83,30
1,40,85,12
1,40,82,34
1,31,82,2
1,38,82,2
1,38,87,84
1,36,82,2
1,31,90,60
1,36,85,58
1,36,86,104
1,40,83,40
1,36,83,30
1,40,85,12
1,40,82,34
1,31,82,2
1,38,82,2
1,38,87,84
1,36,82,2
1,31,90,60
1,36,85,58
1,36,86,104
1,40,83,40
1,36,83,30
1,40,85,12
1,40,82,34
1,31,82,2
1,38,82,2
1,38,87,84
1,36,82,2
1,31,90,60
1,36,85,58
1,36,86,104
1,40,83,40
1,36,83,30
1,40,85,12
1,40,82,34
1,31,82,2
1,38,82,2
1,38,87,84
1,36,82,2
1,31,90,60
1,36,85,58
1,36,86,104
1,40,83,40
1,36,83,30
1,40,85,12
1,40,82,34
1,31,82,2
1,38,82,2
1,38,87,84
1,36,82,2
1,31,90,60
1,36,85,58
1,36,86,104
1,40,83,40
1,36,83,30
1,40,85,12
1,40,82,34
1,31,82,2
1,38,82,2
1,38,87,84
1,36,82,2
1,31,90,60
1,36,85,58
1,36,86,104
1,40,83,40
1,36,83,2
1,40,85,2
1,40,82,2
1,31,82,2
1,38,82,2
2,50,90,2
2,57,71,0
2,62,72,0
2,67,83,0
2,50,80,0
2,57,77,0
2,66,87,0
2,57,82,0
2,48,85,0
2,55,72,0
2,62,82,0
2,47,94,0
2,55,84,0
2,62,87,0
2,43,97,0
2,55,76,64
2,50,90,0
2,57,71,0
2,62,72,0
2,67,83,0
2,50,80,32
2,57,77,0
2,66,87,0
2,57,82,164
2,48,85,52
2,55,72,168
2,62,82,192
2,47,94,28
2,55,84,192
2,62,87,96
2,43,97,192
2,55,76,130
2,50,90,0
2,57,71,174
2,62,72,192
2,67,83,192
2,50,80,152
2,57,77,12
2,66,87,94
2,57,82,164
2,48,85,52
2,55,72,168
2,62,82,192
2,47,94,28
2,55,84,192
2,62,87,96
2,43,97,192
2,55,76,130
2,50,90,0
2,57,71,174
2,62,72,192
2,67,83,192
2,50,80,152
2,57,77,12
2,66,87,94
2,57,82,164
2,48,85,52
2,55,72,168
2,62,82,192
2,47,94,28
2,55,84,192
2,62,87,96
2,43,97,192
2,55,76,130
2,50,90,0
2,57,71,174
2,62,72,192
2,67,83,192
2,50,80,152
2,57,77,12
2,66,87,94
2,57,82,164
2,48,85,52
2,55,72,168
2,62,82,192
2,47,94,28
2,55,84,192
2,62,87,96
2,43,97,192
2,55,76,130
2,50,90,0
2,57,71,174
2,62,72,192
2,67,83,192
2,50,80,152
2,57,77,12
2,66,87,94
2,57,82,164
2,48,85,52
2,55,72,168
2,62,82,192
2,47,94,28
2,55,84,192
2,62,87,96
2,43,97,192
2,55,76,130
2,50,90,0
2,57,71,174
2,62,72,192
2,67,83,192
2,50,80,152
2,57,77,12
2,66,87,94
2,57,82,164
2,48,85,52
2,55,72,168
2,62,82,192
2,47,94,28
2,55,84,192
2,62,87,96
2,43,97,192
2,55,76,130
2,50,90,0
2,57,71,174
2,62,72,192
2,67,83,192
2,50,80,152
2,57,77,12
2,66,87,94
2,57,82,164
2,48,89,52
2,55,72,168
2,62,77,192
2,55,75,146
2,64,77,26
2,62,75,168
2,55,63,178
2,62,76,6
2,47,87,192
2,55,75,156
2,62,83,192
2,55,75,130
2,67,75,192
2,62,78,2
2,55,76,192
2,62,73,160
2,57,78,24
2,60,84,8
2,55,75,38
2,59,75,6
2,54,74,42
2,57,82,8
2,52,75,18444
2,59,65,6
2,62,79,20
2,64,76,8
2,64,76,22
2,62,78,6
2,59,69,16
2,52,76,4
2,64,77,2
2,62,81,8
2,59,69,10
2,52,78,8
2,52,75,66
2,57,65,6
2,62,79,20
2,64,76,8
2,64,76,6
2,61,78,6
2,57,69,16
2,52,76,4
2,64,77,2
2,61,81,6
2,57,69,10
2,52,78,8
2,50,75,66
2,55,60,6
2,59,74,20
2,62,71,8
2,62,76,42
2,59,78,6
2,55,69,16
2,50,76,4
2,50,75,72
2,55,76,6
2,59,79,20
2,62,76,8
2,62,76,42
2,57,78,6
2,54,76,16
2,50,76,4
2,62,77,72
2,57,81,8
2,52,69,10
2,40,78,6
2,50,90,68
2,57,71,190
2,62,72,192
2,62,83,12
2,50,80,150
2,57,77,192
2,62,87,94
2,57,82,164
2,50,85,0
2,55,72,168
2,62,82,192
2,50,94,162
2,55,84,192
2,62,87,96
2,43,97,192
2,55,76,130
2,50,90,0
2,57,71,174
2,62,72,192
2,67,83,192
2,50,80,152
2,57,77,12
2,66,87,94
2,57,82,164
2,48,85,52
2,55,72,168
2,62,82,192
2,47,94,28
2,55,84,192
2,62,87,96
2,43,97,192
2,55,76,130
2,50,90,0
2,57,71,174
2,62,72,192
2,67,83,192
2,50,80,152
2,57,77,12
2,66,87,94
2,57,82,164
2,48,85,52
2,55,72,168
2,62,82,192
2,47,94,28
2,55,84,192
2,62,87,96
2,43,97,192
2,55,76,130
2,50,90,0
2,57,71,174
2,62,72,192
2,67,83,192
2,50,80,152
2,57,77,12
2,66,87,94
2,57,82,164
2,48,85,52
2,55,72,168
2,62,82,192
2,47,94,28
2,55,84,192
2,62,87,96
2,43,97,192
2,55,76,130
2,50,90,0
2,57,71,174
2,62,72,192
2,67,83,192
2,50,80,152
2,57,77,12
2,66,87,94
2,57,82,164
2,48,85,52
2,55,72,168
2,62,82,192
2,47,94,28
2,55,84,192
2,62,87,96
2,43,97,192
2,55,76,130
2,50,90,0
2,57,71,174
2,62,72,192
2,67,83,192
2,50,80,152
2,57,77,12
2,66,87,94
2,57,82,164
2,48,89,52
2,55,72,168
2,62,77,192
2,55,75,146
2,64,77,26
2,62,75,168
2,55,63,178
2,62,76,6
2,47,87,192
2,55,75,156
2,62,83,192
2,55,75,130
2,67,75,192
2,62,78,2
2,55,76,192
2,62,73,160
2,57,78,24
2,60,84,8
2,55,75,38
2,59,75,6
2,54,74,42
2,57,82,8
2,52,75,18444
2,59,65,6
2,62,79,20
2,64,76,8
2,64,76,22
2,62,78,6
2,59,69,16
2,52,76,4
2,64,77,2
2,62,81,8
2,59,69,10
2,52,78,8
2,52,75,66
2,57,65,6
2,62,79,20
2,64,76,8
2,64,76,6
2,61,78,6
2,57,69,16
2,52,76,4
2,64,77,2
2,61,81,6
2,57,69,10
2,52,78,8
2,54,68,66
2,59,75,8
2,62,73,10
2,54,69,58
2,59,74,6
2,62,73,8
2,62,73,28
2,59,72,6
2,54,64,8
2,54,63,28
2,57,70,8
2,62,75,8
2,62,75,26
2,57,79,8
2,54,67,8
2,54,62,26
2,57,73,8
2,62,73,8
2,62,76,26
2,57,75,8
2,54,68,8
2,55,63,26
2,59,70,8
2,62,75,8
2,62,75,26
2,59,79,8
2,55,67,8
2,55,62,26
2,59,73,8
2,62,73,8
2,62,76,26
2,59,75,8
2,55,68,8
2,54,63,26
2,57,70,8
2,62,75,8
2,62,75,26
2,57,79,8
2,54,67,8
2,54,62,26
2,57,73,8
2,62,73,8
2,62,76,26
2,57,75,8
2,54,68,8
2,52,63,26
2,57,70,8
2,62,75,8
2,62,75,26
2,57,79,8
2,52,67,8
2,52,62,26
2,57,73,8
2,62,73,8
2,62,76,26
2,57,75,8
2,52,68,8
2,52,63,26
2,57,70,8
2,62,75,8
2,62,75,26
2,57,79,8
2,52,67,8
2,52,62,26
2,57,73,8
2,62,73,8
2,62,76,26
2,57,75,8
2,52,68,8
2,52,63,26
2,57,70,8
2,61,75,8
2,61,75,26
2,57,79,8
2,52,67,8
2,52,62,26
2,57,73,8
2,61,73,8
2,61,76,26
2,57,75,8
2,52,68,8
2,52,63,26
2,57,70,8
2,61,75,8
2,61,75,26
2,57,79,8
2,52,67,8
2,52,62,26
2,57,73,8
2,61,73,8
2,61,76,26
2,57,75,8
2,52,68,8
2,57,78,26
2,62,79,8
2,66,75,8
2,59,87,2
2,62,86,2
2,67,86,8
2,57,78,2
2,62,79,4
2,66,75,8
2,57,87,2
2,61,86,2
2,64,86,8
2,57,78,2
2,62,79,4
2,66,75,8
2,59,87,2
2,62,86,2
2,67,86,8
2,57,78,2
2,62,79,4
2,66,75,8
2,57,87,2
2,61,86,2
2,64,86,8
2,57,78,2
2,62,79,4
2,66,75,8
2,59,87,2
2,62,86,2
2,67,86,8
2,59,78,2
2,62,79,4
2,66,75,8
2,57,87,2
2,61,86,2
2,64,86,8
2,57,78,2
2,62,79,4
2,66,75,8
2,59,87,2
2,62,86,2
2,66,86,8
2,59,78,2
2,64,79,4
2,67,75,8
2,57,87,2
2,61,86,2
2,64,86,8
2,55,78,2
2,59,79,4
2,62,75,8
2,59,87,0
2,62,86,8
2,67,86,8
2,67,86,2
2,66,86,2
2,64,88,2
2,50,90,4
2,57,71,190
2,62,72,192
2,62,83,12
2,50,80,150
2,57,77,192
2,62,87,94
2,57,82,164
2,50,90,0
2,57,71,168
