track,note,velocity,time
1,48,80,1532
1,60,80,0
1,64,80,0
1,55,80,0
1,64,80,80
1,60,80,0
1,48,80,0
1,55,80,4
1,55,80,96
1,45,80,58
1,55,80,0
1,59,80,0
1,62,80,0
1,60,80,762
1,65,80,0
1,57,80,0
1,50,80,0
1,60,80,68
1,65,80,0
1,57,80,0
1,50,80,2
1,57,80,0
1,48,80,58
1,64,80,0
1,55,80,0
1,62,80,714
1,67,80,0
1,59,80,0
1,52,80,0
1,52,80,70
1,67,80,6
1,62,80,0
1,59,80,0
1,59,80,96
1,53,80,58
1,60,80,0
1,65,80,0
1,57,80,0
1,60,80,732
1,57,80,0
1,65,80,0
1,45,80,4
1,60,80,102
1,65,80,0
1,57,80,0
1,45,80,4
1,57,80,86
1,60,80,60
1,48,80,0
1,64,80,0
1,55,80,0
1,60,80,724
1,64,80,0
1,55,80,0
1,48,80,0
1,60,80,80
1,55,80,0
1,64,80,0
1,48,80,0
1,55,80,96
1,55,80,64
1,59,80,0
1,62,80,0
1,45,80,0
1,60,80,740
1,57,80,0
1,65,80,0
1,50,80,0
1,60,80,80
1,65,80,0
1,57,80,0
1,50,80,0
1,57,80,60
1,60,80,54
1,64,80,0
1,55,80,0
1,48,80,0
1,52,80,752
1,62,80,0
1,59,80,0
1,67,80,4
1,66,80,0
1,67,80,90
1,62,80,0
1,59,80,0
1,52,80,0
1,59,80,118
1,60,80,54
1,65,80,0
1,57,80,0
1,53,80,0
1,50,80,742
1,60,80,0
1,57,80,0
1,65,80,0
1,65,80,80
1,60,80,0
1,57,80,0
1,50,80,0
1,57,80,80
1,60,80,60
1,64,80,0
1,55,80,0
1,48,80,0
1,64,80,756
1,60,80,0
1,55,80,0
1,48,80,0
1,60,80,76
1,55,80,0
1,64,80,0
1,48,80,0
1,55,80,6
1,55,80,48
1,62,80,0
1,59,80,0
1,45,80,0
1,50,80,736
1,60,80,2
1,65,80,0
1,57,80,0
1,50,80,80
1,60,80,0
1,65,80,0
1,57,80,0
1,57,80,4
1,60,80,54
1,64,80,0
1,48,80,0
1,55,80,0
1,67,80,732
1,62,80,0
1,59,80,0
1,52,80,0
1,52,80,92
1,62,80,0
1,67,80,0
1,59,80,0
1,59,80,0
1,60,80,54
1,65,80,0
1,57,80,0
1,53,80,0
1,45,80,740
1,60,80,0
1,65,80,0
1,57,80,0
1,45,80,102
1,65,80,0
1,60,80,0
1,57,80,0
1,57,80,0
1,48,80,60
1,60,80,0
1,64,80,0
1,55,80,0
1,59,80,720
1,55,80,0
1,62,80,0
1,64,80,138
1,57,80,0
1,60,80,0
1,55,80,62
1,62,80,0
1,59,80,0
1,60,80,154
1,57,80,0
1,53,80,0
1,53,80,102
1,57,80,0
1,60,80,0
1,59,80,58
1,55,80,0
1,62,80,0
1,60,80,144
1,64,80,2
1,55,80,54
1,59,80,0
1,62,80,0
1,57,80,156
1,53,80,0
1,60,80,0
1,59,80,116
1,62,80,0
1,55,80,0
1,57,80,154
1,60,80,0
1,64,80,0
1,55,80,58
1,62,80,0
1,59,80,0
1,60,80,140
1,57,80,0
1,55,80,132
1,59,80,0
1,62,80,0
1,57,80,134
1,60,80,0
1,53,80,0
1,55,80,80
1,59,80,0
1,62,80,2
1,57,80,4
1,60,80,0
1,64,80,0
1,59,80,118
1,62,80,0
1,67,80,0
1,66,80,0
1,60,80,528
1,55,80,0
1,64,80,0
1,48,80,0
1,55,80,96
1,55,80,64
1,59,80,0
1,62,80,0
1,45,80,0
1,60,80,740
1,57,80,0
1,65,80,0
1,50,80,0
1,60,80,80
1,65,80,0
1,57,80,0
1,50,80,0
1,57,80,60
1,60,80,54
1,64,80,0
1,55,80,0
1,48,80,0
1,52,80,752
1,62,80,0
1,59,80,0
1,67,80,4
1,66,80,0
1,67,80,90
1,62,80,0
1,59,80,0
1,52,80,0
1,59,80,118
1,60,80,54
1,65,80,0
1,57,80,0
1,53,80,0
1,50,80,742
1,60,80,0
1,57,80,0
1,65,80,0
1,65,80,80
1,60,80,0
1,57,80,0
1,50,80,0
1,57,80,80
1,60,80,60
1,64,80,0
1,55,80,0
1,48,80,0
1,64,80,756
1,60,80,0
1,55,80,0
1,48,80,0
1,60,80,76
1,55,80,0
1,64,80,0
1,48,80,0
1,55,80,6
1,55,80,48
1,62,80,0
1,59,80,0
1,45,80,0
1,50,80,736
1,60,80,2
1,65,80,0
1,57,80,0
1,50,80,80
1,60,80,0
1,65,80,0
1,57,80,0
1,57,80,4
1,60,80,54
1,64,80,0
1,48,80,0
1,55,80,0
1,67,80,732
1,62,80,0
1,59,80,0
1,52,80,0
1,52,80,92
1,62,80,0
1,67,80,0
1,59,80,0
1,59,80,0
1,60,80,54
1,65,80,0
1,57,80,0
1,53,80,0
1,45,80,740
1,60,80,0
1,65,80,0
1,57,80,0
1,45,80,102
1,65,80,0
1,60,80,0
1,57,80,0
1,57,80,0
1,48,80,60
1,60,80,0
1,64,80,0
1,55,80,0
1,59,80,720
1,55,80,0
1,62,80,0
1,64,80,138
1,57,80,0
1,60,80,0
1,55,80,62
1,62,80,0
1,59,80,0
1,60,80,154
1,57,80,0
1,53,80,0
1,53,80,102
1,57,80,0
1,60,80,0
1,59,80,58
1,55,80,0
1,62,80,0
1,60,80,144
1,64,80,2
1,55,80,54
1,59,80,0
1,62,80,0
1,57,80,156
1,53,80,0
1,60,80,0
1,59,80,116
1,62,80,0
1,55,80,0
1,57,80,154
1,60,80,0
1,64,80,0
1,55,80,58
1,62,80,0
1,59,80,0
1,60,80,140
1,57,80,0
1,55,80,132
1,59,80,0
1,62,80,0
1,57,80,134
1,60,80,0
1,53,80,0
1,55,80,80
1,59,80,0
1,62,80,2
1,57,80,4
1,60,80,0
1,64,80,0
1,59,80,118
1,62,80,0
1,67,80,0
1,66,80,0
1,75,80,144
1,69,80,0
1,72,80,0
1,76,80,0
1,69,80,0
1,75,80,0
1,75,110,148
1,74,110,6
1,72,110,2
1,69,110,20
1,67,110,34
1,64,110,30
1,64,110,42
1,63,110,6
1,62,110,82
1,60,110,94
1,57,110,22
1,60,110,58
1,62,110,22
1,60,110,10
1,63,110,0
1,64,110,6
1,57,110,28
1,60,110,112
1,62,110,32
1,60,110,38
1,60,110,106
1,62,110,16
1,63,110,68
1,67,110,140
1,69,110,118
1,72,110,80
1,72,110,126
1,69,110,26
1,69,110,48
1,72,110,6
1,69,110,86
1,75,110,0
1,73,110,0
1,69,110,134
1,75,110,0
1,69,110,48
1,76,110,4
1,69,110,52
1,76,110,0
1,69,110,48
1,76,110,4
1,69,110,48
1,75,110,6
1,69,110,38
1,74,110,6
1,72,110,44
1,69,110,96
1,81,110,96
1,69,110,42
1,79,110,0
1,69,110,44
1,75,110,0
1,69,110,46
1,74,110,2
1,69,110,6
1,72,110,0
1,69,110,142
1,72,110,2
1,69,110,0
1,74,110,6
1,72,110,12
1,75,110,90
1,76,110,4
1,79,110,10
1,69,110,6
1,76,110,108
1,81,110,0
1,76,110,122
1,84,110,0
1,76,110,128
1,84,110,0
1,76,110,48
1,84,110,6
1,76,110,38
1,81,110,84
1,79,110,100
1,76,110,26
1,76,110,42
1,75,110,0
1,74,110,42
1,72,110,192
1,69,110,32
1,69,110,52
1,72,110,0
1,69,110,28
1,74,110,0
1,72,110,0
1,72,110,36
1,75,110,0
1,76,110,6
1,79,110,12
1,75,110,70
1,69,110,4
1,76,110,2
1,69,110,100
1,75,110,0
1,69,110,32
1,74,110,0
1,72,110,4
1,69,110,0
1,67,110,16
1,64,110,26
1,64,110,36
1,63,110,4
1,62,110,12
1,60,110,102
1,57,110,38
1,60,110,54
1,62,110,42
1,60,110,12
1,63,110,6
1,64,110,26
1,57,110,38
1,60,110,52
1,62,110,100
1,63,110,96
1,64,110,32
1,67,110,20
1,69,110,96
1,72,110,36
1,72,110,28
1,72,110,32
1,59,80,792
1,55,80,0
1,62,80,0
1,64,80,138
1,57,80,0
1,60,80,0
1,55,80,62
1,62,80,0
1,59,80,0
1,60,80,154
1,57,80,0
1,53,80,0
1,53,80,102
1,57,80,0
1,60,80,0
1,59,80,58
1,55,80,0
1,62,80,0
1,60,80,144
1,64,80,2
1,55,80,54
1,59,80,0
1,62,80,0
1,57,80,156
1,53,80,0
1,60,80,0
1,59,80,116
1,62,80,0
1,55,80,0
1,57,80,154
1,60,80,0
1,64,80,0
1,55,80,58
1,62,80,0
1,59,80,0
1,60,80,140
1,57,80,0
1,55,80,132
1,59,80,0
1,62,80,0
1,57,80,134
1,60,80,0
1,53,80,0
1,55,80,80
1,59,80,0
1,62,80,2
1,57,80,4
1,60,80,0
1,64,80,0
1,59,80,118
1,62,80,0
1,67,80,0
1,66,80,0
1,60,80,148
1,55,80,0
1,64,80,0
1,55,80,98
1,60,80,0
1,64,80,0
1,55,80,4
1,55,80,54
1,62,80,0
1,59,80,0
1,57,80,776
1,60,80,0
1,65,80,2
1,65,80,90
1,60,80,0
1,57,80,0
1,57,80,86
1,64,80,44
1,55,80,0
1,62,80,768
1,59,80,0
1,67,80,0
1,62,80,100
1,67,80,0
1,59,80,0
1,59,80,128
1,60,80,60
1,57,80,0
1,60,80,784
1,57,80,0
1,65,80,0
1,60,80,102
1,57,80,0
1,65,80,0
1,57,80,84
1,60,80,48
1,55,80,0
1,64,80,0
1,64,80,768
1,60,80,0
1,55,80,0
1,55,80,84
1,60,80,0
1,64,80,4
1,55,80,12
1,55,80,54
1,59,80,0
1,62,80,0
1,57,80,772
1,60,80,0
1,65,80,0
1,65,80,74
1,57,80,0
1,57,80,4
1,60,80,58
1,64,80,0
1,55,80,0
1,59,80,768
1,62,80,0
1,67,80,0
1,59,80,110
1,62,80,0
1,67,80,0
1,59,80,140
1,60,80,60
1,65,80,0
1,57,80,0
1,60,80,764
1,57,80,0
1,65,80,6
1,57,80,108
1,60,80,0
1,65,80,0
1,60,80,76
1,64,80,0
1,55,80,0
2,36,127,1532
2,36,127,64
2,33,127,58
2,38,127,714
2,38,127,48
2,36,127,76
2,40,127,708
2,40,127,68
2,41,127,54
2,33,127,684
2,33,127,76
2,36,127,76
2,36,127,716
2,36,127,62
2,33,127,48
2,38,127,724
2,38,127,52
2,36,127,44
2,40,127,716
2,40,127,60
2,38,127,52
2,38,127,720
2,38,127,64
2,36,127,60
2,36,127,730
2,36,127,48
2,33,127,52
2,38,127,720
2,38,127,60
2,36,127,58
2,40,127,710
2,40,127,60
2,41,127,44
2,33,127,716
2,33,127,68
2,36,127,70
2,31,127,714
2,31,127,406
2,31,127,48
2,31,127,588
2,29,127,48
2,29,127,424
2,29,127,44
2,31,127,712
2,31,127,372
2,31,127,42
2,31,127,512
2,31,127,42
2,29,127,42
2,29,127,422
2,29,127,48
2,31,127,692
2,31,127,368
2,31,127,52
2,31,127,526
2,29,127,36
2,29,127,426
2,29,127,52
2,31,127,740
2,31,127,398
2,31,127,44
2,31,127,566
2,29,127,100
2,28,127,10
2,26,127,54
2,31,127,16
2,36,127,506
2,33,127,48
2,38,127,724
2,38,127,52
2,36,127,44
2,40,127,716
2,40,127,60
2,38,127,52
2,38,127,720
2,38,127,64
2,36,127,60
2,36,127,730
2,36,127,48
2,33,127,52
2,38,127,720
2,38,127,60
2,36,127,58
2,40,127,710
2,40,127,60
2,41,127,44
2,33,127,716
2,33,127,68
2,36,127,70
2,31,127,714
2,31,127,406
2,31,127,48
2,31,127,588
2,29,127,48
2,29,127,424
2,29,127,44
2,31,127,712
2,31,127,372
2,31,127,42
2,31,127,512
2,31,127,42
2,29,127,42
2,29,127,422
2,29,127,48
2,31,127,692
2,31,127,368
2,31,127,52
2,31,127,526
2,29,127,36
2,29,127,426
2,29,127,52
2,31,127,740
2,31,127,398
2,31,127,44
2,31,127,566
2,29,127,100
2,28,127,10
2,26,127,54
2,31,127,16
2,36,127,506
2,33,127,48
2,38,127,724
2,38,127,52
2,36,127,44
2,40,127,716
2,40,127,60
2,38,127,52
2,38,127,720
2,38,127,64
2,36,127,60
2,36,127,730
2,36,127,48
2,33,127,52
2,38,127,720
2,38,127,60
2,36,127,58
2,40,127,710
2,40,127,60
2,41,127,44
2,33,127,716
2,33,127,68
2,36,127,70
2,31,127,714
2,31,127,406
2,31,127,48
2,31,127,588
2,29,127,48
2,29,127,424
2,29,127,44
2,31,127,712
2,31,127,372
2,31,127,42
2,31,127,512
2,31,127,42
2,29,127,42
2,29,127,422
2,29,127,48
2,31,127,692
2,31,127,368
2,31,127,52
2,31,127,526
2,29,127,36
2,29,127,426
2,29,127,52
2,31,127,740
2,31,127,398
2,31,127,44
2,31,127,566
2,29,127,100
2,28,127,10
2,26,127,54
2,31,127,16
2,36,127,122
2,36,127,54
2,33,127,38
2,36,127,746
2,38,127,0
2,38,127,56
2,36,127,48
2,40,127,748
2,40,127,86
2,41,127,54
2,36,127,732
2,36,127,54
2,36,127,52
2,36,127,742
2,36,127,100
2,33,127,32
2,38,127,734
2,36,127,388
2,40,127,726
2,40,127,92
2,41,127,52
2,36,127,762
2,36,127,90
2,36,127,58
3,67,127,7100
3,69,127,128
3,72,127,54
3,72,127,14
3,72,127,250
3,69,127,38
3,76,127,772
3,74,127,52
3,72,127,48
3,72,127,50
3,69,127,16
3,67,127,34
3,69,127,956
3,72,127,54
3,74,127,16
3,72,127,52
3,72,127,54
3,69,127,0
3,74,127,52
3,72,127,32
3,72,127,136
3,69,127,196
3,76,127,54
3,74,127,20
3,72,127,118
3,72,127,92
3,69,127,28
3,67,127,192
3,67,127,140
3,69,127,28
3,72,127,48
3,72,127,56
3,72,127,40
3,69,127,2
3,76,127,752
3,74,127,20
3,72,127,54
3,72,127,52
3,69,127,192
3,67,127,26
3,67,127,758
3,69,127,106
3,72,127,48
3,74,127,58
3,72,127,32
3,72,127,54
3,69,127,288
3,74,127,54
3,72,127,32
3,72,127,134
3,69,127,192
3,76,127,52
3,74,127,26
3,72,127,108
3,72,127,102
3,69,127,48
3,67,127,12
3,74,127,596
3,76,127,12
3,74,127,100
3,72,127,34
3,72,127,124
3,69,127,390
3,72,127,50
3,69,127,16
3,72,127,50
3,69,127,18
3,74,127,32
3,76,127,16
3,74,127,518
3,76,127,42
3,74,127,36
3,72,127,22
3,72,127,132
3,69,127,0
3,72,127,320
3,72,127,16
3,72,127,96
3,69,127,6
3,67,127,16
3,74,127,490
3,76,127,576
3,74,127,44
3,72,127,36
3,72,127,134
3,69,127,4
3,72,127,134
3,69,127,4
3,72,127,134
3,69,127,198
3,74,127,52
3,76,127,26
3,74,127,520
3,76,127,64
3,79,127,38
3,76,127,20
3,74,127,124
3,72,127,60
3,81,127,118
3,79,127,42
3,81,127,140
3,79,127,4
3,81,127,144
3,79,127,24
3,67,127,2
3,81,127,58
3,69,127,76
3,72,127,40
3,84,127,22
3,72,127,0
3,72,127,56
3,69,127,22
3,76,127,772
3,74,127,52
3,72,127,48
3,72,127,50
3,69,127,16
3,67,127,34
3,69,127,956
3,72,127,54
3,74,127,16
3,72,127,52
3,72,127,54
3,69,127,0
3,74,127,52
3,72,127,32
3,72,127,136
3,69,127,196
3,76,127,54
3,74,127,20
3,72,127,118
3,72,127,92
3,69,127,28
3,67,127,192
3,67,127,140
3,69,127,28
3,72,127,48
3,72,127,56
3,72,127,40
3,69,127,2
3,76,127,752
3,74,127,20
3,72,127,54
3,72,127,52
3,69,127,192
3,67,127,26
3,67,127,758
3,69,127,106
3,72,127,48
3,74,127,58
3,72,127,32
3,72,127,54
3,69,127,288
3,74,127,54
3,72,127,32
3,72,127,134
3,69,127,192
3,76,127,52
3,74,127,26
3,72,127,108
3,72,127,102
3,69,127,48
3,67,127,12
3,74,127,596
3,76,127,12
3,74,127,100
3,72,127,34
3,72,127,124
3,69,127,390
3,72,127,50
3,69,127,16
3,72,127,50
3,69,127,18
3,74,127,32
3,76,127,16
3,74,127,518
3,76,127,42
3,74,127,36
3,72,127,22
3,72,127,132
3,69,127,0
3,72,127,320
3,72,127,16
3,72,127,96
