track,note,velocity,time
1,56,77,4608
1,55,75,288
1,63,102,8
1,64,99,0
1,64,100,8
1,63,97,8
1,62,75,0
1,60,65,16
1,59,73,0
1,52,65,288
1,63,100,8
1,64,97,0
1,64,95,8
1,64,100,8
1,66,85,16
1,63,77,8
1,59,72,0
1,59,75,960
1,63,105,0
1,64,101,0
1,64,97,8
1,63,105,8
1,64,100,0
1,67,115,0
1,56,80,8
1,55,80,0
1,55,85,8
1,52,75,0
1,59,67,8
1,60,80,0
1,59,79,384
1,59,85,8
1,57,90,0
1,55,70,0
1,58,75,8
1,58,80,16
1,55,65,288
1,62,96,8
1,64,96,0
1,64,96,8
1,64,101,8
1,62,73,0
1,57,78,8
1,63,102,0
1,64,92,0
1,64,92,8
1,64,95,8
1,63,87,8
1,62,85,0
1,58,78,8
1,59,81,576
1,61,77,8
1,64,102,0
1,64,97,8
1,64,100,8
1,64,105,8
1,64,113,32
1,66,108,0
1,57,90,0
1,55,85,0
1,54,80,8
1,52,75,0
1,59,73,24
1,60,80,0
1,59,85,8
1,58,83,384
1,59,90,0
1,58,75,0
1,61,80,1248
1,62,78,0
1,62,75,8
1,63,98,8
1,64,94,0
1,64,88,8
1,64,82,8
1,62,97,8
1,64,84,0
1,65,101,8
1,64,101,0
1,64,96,8
1,64,91,8
1,62,100,8
1,64,90,0
1,63,96,8
1,62,94,0
1,61,81,880
1,62,78,0
1,62,77,8
1,64,98,8
1,64,89,0
1,64,90,8
1,64,89,8
1,62,96,8
1,64,85,0
1,64,83,8
1,65,94,8
1,64,88,0
1,64,94,8
1,64,89,8
1,62,97,8
1,64,85,0
1,63,85,8
1,62,95,0
1,61,80,880
1,62,78,0
1,62,75,8
1,63,98,8
1,64,94,0
1,64,88,8
1,64,82,8
1,62,101,8
1,64,80,0
1,65,106,8
1,64,101,0
1,64,96,8
1,64,91,8
1,62,102,8
1,64,90,0
1,63,97,8
1,62,95,0
1,60,75,976
1,65,80,0
1,58,75,0
1,55,65,288
1,63,90,8
1,64,90,0
1,64,90,8
1,64,95,8
1,62,75,0
1,58,85,8
1,55,75,240
1,63,95,8
1,64,95,0
1,64,95,8
1,64,90,8
1,62,75,16
1,61,70,16
1,58,65,0
1,59,75,576
1,63,105,0
1,64,98,0
1,64,92,8
1,63,100,8
1,64,100,0
1,67,105,0
1,56,80,8
1,55,80,0
1,54,85,8
1,52,75,0
1,57,85,8
1,60,70,0
1,59,88,96
1,59,75,0
1,59,90,8
1,59,75,0
1,58,75,8
1,56,82,0
1,58,85,768
1,54,75,288
1,64,95,0
1,64,90,8
1,64,85,8
1,63,95,8
1,62,75,0
1,62,88,16
1,58,80,8
1,55,80,240
1,63,95,8
1,64,85,0
1,64,90,8
1,64,90,0
1,66,80,16
1,63,85,8
1,59,80,576
1,62,85,32
1,63,95,16
1,64,85,0
1,64,90,8
1,63,95,8
1,64,85,0
1,66,100,0
1,56,85,0
1,55,80,0
1,52,72,32
1,60,85,8
1,59,90,24
1,61,87,0
1,64,100,288
1,63,95,16
1,62,92,0
1,66,90,0
1,63,85,0
1,61,80,1248
1,62,78,0
1,62,75,8
1,63,98,8
1,64,94,0
1,64,88,8
1,64,82,8
1,62,97,8
1,64,84,0
1,65,101,8
1,64,101,0
1,64,96,8
1,64,91,8
1,62,100,8
1,64,90,0
1,63,96,8
1,62,94,0
1,61,81,880
1,62,78,0
1,62,77,8
1,64,98,8
1,64,89,0
1,64,90,8
1,64,89,8
1,62,96,8
1,64,85,0
1,64,83,8
1,65,94,8
1,64,88,0
1,64,94,8
1,64,89,8
1,62,97,8
1,64,85,0
1,63,85,8
1,62,95,0
1,61,80,880
1,62,78,0
1,62,75,8
1,63,98,8
1,64,94,0
1,64,88,8
1,64,82,8
1,62,101,8
1,64,80,0
1,65,106,8
1,64,101,0
1,64,96,8
1,64,91,8
1,62,102,8
1,64,90,0
1,64,100,8
1,62,90,0
1,69,105,112
1,69,85,0
1,69,95,0
1,67,85,384
1,68,95,0
1,67,90,0
1,57,80,288
1,68,95,0
1,71,85,0
1,68,85,8
1,67,95,0
1,68,90,0
1,68,95,0
1,63,85,96
1,65,90,0
1,68,90,0
1,60,75,24
1,70,100,0
1,70,100,0
1,71,90,0
1,67,85,0
1,60,75,0
1,68,90,0
1,69,91,0
1,69,95,0
1,70,80,0
1,68,90,0
1,66,92,0
1,66,85,96
1,65,88,0
1,68,95,0
1,68,100,0
1,66,85,192
1,69,85,0
1,70,100,16
1,71,95,0
1,69,89,16
1,69,91,16
1,65,85,0
1,63,100,0
1,70,85,0
1,69,85,0
1,68,87,8
1,63,85,192
1,66,90,0
1,71,100,0
1,72,98,0
1,71,100,8
1,72,94,0
1,68,92,0
1,68,95,0
1,67,90,0
1,66,90,192
1,70,90,0
1,70,85,0
1,59,85,0
1,63,90,400
1,64,83,0
1,64,84,8
1,63,96,8
1,61,83,0
1,58,78,0
1,59,75,192
1,62,80,16
1,63,88,16
1,64,83,0
1,64,86,8
1,64,83,8
1,63,93,8
1,63,81,0
1,58,76,0
1,56,70,672
1,59,80,0
1,59,78,192
1,56,71,16
2,66,85,1248
2,66,85,8
2,66,90,8
2,66,100,8
2,67,95,0
2,67,90,8
2,67,90,8
2,66,100,8
2,67,80,0
2,67,95,8
2,67,90,8
2,67,90,8
2,67,90,8
2,66,100,8
2,67,85,0
2,68,100,8
2,66,100,0
2,66,105,8
2,66,90,880
2,66,95,8
2,66,100,8
2,66,105,8
2,67,90,0
2,67,90,8
2,67,90,8
2,66,105,8
2,67,90,0
2,67,90,8
2,67,90,8
2,67,90,8
2,67,90,8
2,67,90,8
2,71,85,8
2,67,85,0
2,71,75,32
2,67,75,0
2,71,85,8
2,67,85,0
2,69,75,8
2,66,75,0
2,69,75,8
2,66,75,0
2,66,90,880
2,66,95,8
2,66,100,8
2,66,105,8
2,67,90,0
2,67,90,8
2,67,90,8
2,66,100,8
2,67,90,0
2,67,90,8
2,67,90,8
2,67,90,8
2,67,90,8
2,66,105,8
2,67,85,0
2,71,85,8
2,67,85,0
2,69,84,8
2,66,84,0
2,69,85,8
2,66,85,0
2,66,85,1248
2,66,85,8
2,66,90,8
2,66,100,8
2,67,90,0
2,67,90,8
2,67,90,8
2,66,100,8
2,67,90,0
2,67,90,8
2,67,90,8
2,67,90,8
2,67,90,8
2,66,100,8
2,67,85,0
2,68,95,8
2,66,100,0
2,66,105,8
2,66,90,880
2,66,95,8
2,66,100,8
2,66,105,8
2,67,90,0
2,67,90,8
2,67,90,8
2,66,105,8
2,67,90,0
2,67,90,8
2,67,90,8
2,67,90,8
2,67,90,8
2,67,90,8
2,71,85,8
2,67,85,0
2,71,75,32
2,67,75,0
2,71,85,8
2,67,85,0
2,69,75,8
2,66,75,0
2,69,75,8
2,66,75,0
2,66,90,880
2,66,95,8
2,66,100,8
2,66,105,8
2,67,90,0
2,67,90,8
2,67,90,8
2,66,100,8
2,67,90,0
2,67,90,8
2,67,90,8
2,67,90,8
2,67,90,8
2,66,105,8
2,67,85,0
2,71,85,8
2,67,85,0
2,69,84,8
2,66,84,0
2,69,85,8
2,66,85,0
2,66,110,1152
2,67,110,0
2,66,110,0
2,65,110,8
2,68,110,384
2,68,110,0
2,68,110,0
2,68,110,0
2,65,110,0
2,65,110,0
2,66,110,0
2,67,110,0
2,57,90,0
3,43,85,4608
3,38,85,32
3,43,85,8
3,40,85,80
3,33,85,56
3,35,85,16
3,30,85,32
3,35,85,8
3,36,85,80
3,36,85,32
3,35,85,8
3,33,85,80
3,33,85,32
3,31,85,8
3,35,85,56
3,36,85,8
3,38,85,8
3,31,85,136
3,33,85,8
3,38,85,8
3,45,85,112
3,47,85,8
3,48,85,8
3,31,85,16
3,43,85,40
3,38,85,56
3,31,85,16
3,43,85,40
3,28,85,40
3,33,85,56
3,35,85,16
3,30,85,32
3,35,85,8
3,36,85,80
3,36,85,32
3,35,85,8
3,33,85,80
3,33,85,32
3,31,85,8
3,35,85,56
3,36,85,8
3,38,85,8
3,36,85,32
3,38,85,8
3,38,85,16
3,38,85,40
3,38,85,0
3,45,85,8
3,47,85,8
3,48,85,8
3,50,85,8
3,47,85,40
3,50,85,16
3,40,85,0
3,35,85,32
3,40,85,8
3,35,85,32
3,33,85,8
3,33,85,16
3,35,85,40
3,36,85,8
3,38,85,8
3,33,85,32
3,38,85,8
3,43,85,32
3,47,85,8
3,48,85,8
3,50,85,8
3,43,85,8
3,42,85,8
3,38,85,8
3,40,85,8
3,35,85,32
3,40,85,8
3,42,85,16
3,43,85,8
3,45,85,8
3,40,85,8
3,45,85,8
3,47,85,16
3,48,85,8
3,38,85,8
3,33,85,32
3,38,85,8
3,38,85,32
3,40,85,8
3,38,85,8
3,36,85,16
3,38,85,8
3,42,85,8
3,43,85,8
3,28,85,8
3,28,85,32
3,30,85,8
3,31,85,8
3,28,85,16
3,33,85,8
3,33,85,16
3,33,85,16
3,35,85,16
3,36,85,8
3,38,85,8
3,33,85,32
3,38,85,8
3,45,85,32
3,47,85,8
3,48,85,8
3,50,85,8
3,52,85,8
3,54,85,8
3,55,85,8
3,36,85,0
3,31,85,0
3,26,85,32
3,31,85,8
3,26,85,32
3,28,85,8
3,35,85,80
3,30,85,32
3,35,85,8
3,42,85,40
3,40,85,8
3,38,85,8
3,35,85,8
3,36,85,8
3,36,85,32
3,35,85,8
3,35,85,16
3,35,85,32
3,33,85,8
3,31,85,80
3,38,85,56
3,40,85,8
3,38,85,8
3,38,85,32
3,26,85,8
3,31,85,80
3,26,85,32
3,31,85,8
3,36,85,8
3,43,85,0
3,31,85,8
3,31,85,32
3,28,85,8
3,26,85,56
3,35,85,16
3,30,85,32
3,35,85,8
3,36,85,80
3,36,85,32
3,35,85,8
3,35,85,16
3,35,85,32
3,33,85,8
3,33,85,32
3,31,85,8
3,31,85,16
3,35,85,40
3,36,85,8
3,26,85,8
3,33,85,32
3,38,85,8
3,38,85,16
3,38,85,40
3,40,85,8
3,38,85,0
3,43,85,8
3,45,85,8
3,47,85,8
3,48,85,8
3,45,85,8
3,50,85,8
3,35,85,16
3,38,85,16
3,28,85,16
3,28,85,32
3,28,85,8
3,30,85,16
3,31,85,8
3,33,85,8
3,28,85,8
3,33,85,8
3,33,85,16
3,35,85,16
3,36,85,8
3,38,85,8
3,33,85,32
3,38,85,8
3,38,85,32
3,47,85,8
3,48,85,8
3,50,85,8
3,38,85,8
3,43,85,8
3,42,85,8
3,40,85,8
3,35,85,32
3,40,85,8
3,42,85,16
3,43,85,8
3,45,85,8
3,40,85,8
3,45,85,8
3,45,85,16
3,47,85,16
3,48,85,8
3,38,85,8
3,33,85,32
3,38,85,8
3,33,85,32
3,38,85,8
3,38,85,8
3,47,85,16
3,48,85,8
3,47,85,8
3,48,85,8
3,50,85,8
3,28,85,16
3,28,85,16
3,28,85,8
3,30,85,8
3,31,85,16
3,28,85,8
3,33,85,8
3,33,85,16
3,33,85,8
3,35,85,8
3,36,85,16
3,38,85,8
3,26,85,8
3,33,85,32
3,38,85,8
3,33,85,8
3,38,85,8
3,33,85,8
3,38,85,16
3,38,85,16
3,38,85,8
3,33,85,8
3,38,85,8
3,33,85,8
3,26,85,8
3,40,85,32
3,35,85,32
3,40,85,8
3,42,85,16
3,43,85,8
3,45,85,8
3,45,85,8
3,40,85,8
3,45,85,8
3,45,85,16
3,47,85,16
3,48,85,8
3,50,85,8
3,50,85,32
3,38,85,8
3,40,85,32
3,38,85,8
3,45,85,32
3,47,85,8
3,48,85,8
3,50,85,8
3,28,85,16
3,28,85,32
3,30,85,8
3,31,85,8
3,28,85,16
3,33,85,8
3,33,85,16
3,35,85,16
3,35,85,8
3,35,85,8
3,36,85,8
3,38,85,8
3,26,85,8
3,33,85,32
3,38,85,8
3,38,85,8
3,33,85,8
3,38,85,16
3,38,85,8
3,38,85,8
3,38,85,8
3,38,85,8
3,38,85,8
3,38,85,8
3,28,85,0
3,38,85,32
3,40,85,8
3,47,85,32
3,52,85,8
3,52,85,8
3,47,85,8
3,49,85,8
3,50,85,8
3,35,85,8
3,42,85,32
3,47,85,8
3,42,85,8
3,47,85,8
3,47,85,8
3,47,85,0
3,49,85,8
3,50,85,8
3,40,85,8
3,40,85,40
3,35,85,32
3,40,85,8
3,40,85,8
3,28,85,8
3,28,85,8
3,40,85,8
3,47,85,8
3,52,85,8
3,47,85,8
3,44,85,8
3,35,85,8
3,42,85,32
3,47,85,8
3,42,85,8
3,47,85,8
3,35,85,16
3,47,85,8
3,49,85,8
3,50,85,8
3,40,85,0
3,40,85,32
3,40,85,8
3,35,85,32
3,40,85,8
3,35,85,8
3,28,85,8
3,49,85,16
3,47,85,16
3,35,85,16
3,42,85,32
3,47,85,8
3,49,85,32
3,47,85,8
3,49,85,8
3,50,85,8
3,40,85,0
3,54,85,40
3,52,85,32
3,47,85,8
3,49,85,8
3,47,85,8
3,44,85,16
3,45,85,8
3,47,85,8
3,44,85,8
3,40,85,8
3,35,85,8
3,30,85,32
3,35,85,8
3,42,85,32
3,45,85,8
3,47,85,8
3,49,85,32
3,50,85,16
3,36,85,0
3,35,85,40
3,33,85,16
3,31,85,8
3,38,85,8
3,38,85,16
3,36,85,16
3,35,85,8
3,33,85,8
3,43,85,16
3,42,85,40
3,40,85,40
3,38,85,40
3,40,85,8
3,38,85,8
3,36,85,16
3,35,85,40
3,33,85,40
3,31,85,40
3,35,85,16
3,36,85,8
3,38,85,8
3,40,85,32
3,38,85,8
3,38,85,16
3,38,85,40
3,40,85,8
3,38,85,8
3,45,85,8
3,47,85,8
3,48,85,8
3,38,85,8
3,38,85,16
3,36,85,8
3,36,85,8
3,31,85,0
3,31,85,152
3,28,85,80
3,35,85,80
3,30,85,32
3,35,85,8
3,35,85,56
3,33,85,16
3,31,85,80
3,31,85,40
3,33,85,8
3,31,85,8
3,26,100,16
4,58,75,672
4,67,105,0
4,59,105,0
4,70,105,8
4,67,105,0
4,59,105,8
4,69,105,8
4,67,105,8
4,66,105,0
4,40,115,0
4,47,105,8
4,52,95,8
4,55,75,8
4,59,55,8
4,40,115,1536
4,47,105,8
4,52,95,8
4,55,75,8
4,59,55,8
4,40,115,1536
4,47,105,8
4,52,95,8
4,55,75,8
4,59,55,8
4,64,105,7584
4,62,106,0
4,66,105,8
4,67,105,8
4,60,105,8
4,43,105,1920
4,43,105,384
4,62,85,672
4,69,105,8
4,69,105,0
4,71,105,8
4,67,105,0
4,66,105,8
4,64,105,8
4,62,105,0
4,60,105,0
4,40,115,0
4,47,105,8
4,52,95,8
4,55,75,8
4,59,55,8
4,40,115,1536
4,47,105,8
4,52,95,8
4,55,75,8
4,59,55,8
4,40,115,0
4,47,105,8
4,52,95,8
4,55,75,8
4,59,55,8
4,40,115,1536
4,47,105,8
4,52,95,8
4,55,75,8
4,59,55,8
4,40,115,1536
4,47,105,8
4,52,95,8
4,55,75,8
4,59,55,8
4,68,90,768
4,64,60,96
4,59,60,96
4,66,100,16
4,59,50,8
4,64,90,8
4,62,90,752
4,57,85,96
4,54,85,96
4,62,95,8
4,69,95,192
4,68,90,752
4,64,50,96
4,59,50,96
4,66,90,8
4,68,90,16
4,59,50,8
4,69,85,8
4,62,90,64
4,57,85,96
4,54,85,96
4,62,95,8
4,69,95,192
4,68,90,752
4,64,50,96
4,59,53,96
4,66,100,16
4,59,50,8
4,64,90,8
4,62,90,752
4,57,85,96
4,54,85,96
4,62,95,8
4,69,95,192
4,68,90,752
4,64,50,96
4,59,50,96
4,66,90,8
4,68,90,16
4,59,50,8
4,69,85,8
4,62,90,64
4,57,85,96
4,54,85,96
4,62,95,8
4,69,95,192
5,64,105,19968
5,62,105,8
5,62,105,0
5,60,105,0
5,50,115,0
5,57,105,392
5,62,105,8
5,66,105,8
5,48,95,16
5,57,95,8
5,62,95,8
5,67,95,8
5,48,95,16
5,57,95,8
5,62,95,8
5,67,95,8
5,47,95,16
5,59,95,8
5,62,95,8
5,67,95,8
5,47,95,8
5,59,95,8
