track,note,velocity,time
4,36,100,0
4,70,100,0
4,38,100,0
4,40,100,0
4,48,100,0
4,47,100,0
4,36,27,576
4,36,21,192
4,36,56,0
4,36,61,186
4,36,61,192
4,36,51,185
4,36,68,0
4,36,68,191
4,36,73,185
4,36,64,182
4,36,83,66
4,36,76,175
4,36,91,180
4,36,101,177
4,36,119,174
4,36,120,183
4,40,116,182
4,38,123,0
4,44,125,1
4,38,124,13
4,40,108,3
4,36,122,63
4,44,127,85
4,40,117,3
4,38,116,0
4,40,105,12
4,38,120,0
4,36,127,64
4,36,118,78
4,49,97,1
4,38,127,105
4,53,101,0
4,36,125,108
4,53,105,1
4,36,125,10
4,38,112,53
4,53,99,0
4,36,112,111
4,53,107,2
4,36,122,7
4,53,104,50
4,38,117,2
4,53,97,99
4,36,125,2
4,46,116,13
4,44,106,0
4,42,113,6
4,36,117,20
4,53,97,1
4,36,98,12
4,36,122,52
4,53,111,3
4,53,97,95
4,38,122,0
4,53,97,108
4,36,127,4
4,36,115,15
4,38,126,49
4,53,97,1
4,36,121,107
4,53,97,1
4,36,116,14
4,53,97,46
4,38,118,2
4,53,97,75
4,36,115,28
4,38,92,39
4,38,96,3
4,38,104,3
4,38,109,0
4,53,97,1
4,36,96,14
4,53,108,48
4,36,120,4
4,53,101,111
4,38,125,1
4,53,101,106
4,36,122,2
4,36,116,14
4,53,101,50
4,38,126,1
4,53,97,108
4,36,122,3
4,36,112,14
4,53,97,46
4,38,126,1
4,53,105,102
4,36,117,3
4,38,101,13
4,38,101,3
4,38,115,2
4,38,111,2
4,40,5,4
4,51,97,0
4,38,99,7
4,36,112,55
4,51,100,1
4,51,110,104
4,38,120,1
4,51,107,109
4,36,123,0
4,36,115,12
4,51,100,54
4,38,124,2
4,36,121,107
4,51,108,1
4,36,126,12
4,38,126,47
4,51,102,2
4,51,104,100
4,36,116,4
4,38,121,15
4,38,123,45
4,49,103,42
4,45,104,16
4,41,112,0
4,53,99,2
4,36,116,1
4,38,127,109
4,53,105,1
4,36,127,105
4,53,96,4
4,36,125,10
4,53,104,54
4,38,117,2
4,36,116,108
4,53,102,2
4,36,122,8
4,53,98,49
4,38,120,2
4,36,124,98
4,53,110,3
4,38,89,10
4,38,99,2
4,38,110,3
4,38,109,2
4,41,115,1
4,40,12,1
4,51,106,0
4,41,105,8
4,42,127,0
4,53,96,91
4,36,126,1
4,53,109,105
4,38,122,4
4,36,127,108
4,53,101,4
4,36,112,11
4,38,116,52
4,53,104,1
4,36,117,104
4,53,99,1
4,36,122,12
4,53,110,49
4,38,118,1
4,53,102,100
4,36,113,1
4,46,113,14
4,44,112,3
4,42,111,20
4,53,100,5
4,36,114,2
4,36,104,9
4,53,101,53
4,36,124,3
4,38,127,109
4,53,110,0
4,53,103,109
4,36,127,1
4,36,118,12
4,53,107,50
4,38,125,1
4,36,122,107
4,53,108,1
4,36,115,11
4,38,118,50
4,53,105,3
4,36,124,99
4,53,106,1
4,38,100,11
4,38,95,5
4,38,105,6
4,38,113,20
4,51,100,2
4,38,112,1
4,38,98,13
4,49,118,50
4,36,113,1
4,53,96,2
4,38,127,6
4,53,110,1
4,36,127,107
4,53,109,2
4,36,119,11
4,38,125,53
4,53,107,2
4,36,120,104
4,53,102,4
4,36,120,12
4,53,98,43
4,38,126,0
4,36,119,8
4,36,119,2
4,53,101,2
4,38,119,0
4,36,119,12
4,36,119,2
4,38,110,45
4,53,110,4
4,36,110,7
4,36,110,3
4,57,97,1
4,38,127,105
4,53,101,0
4,36,125,108
4,53,105,1
4,36,125,10
4,38,112,53
4,53,99,0
4,36,112,111
4,53,107,2
4,36,122,7
4,53,104,50
4,38,117,2
4,53,97,99
4,36,125,2
4,46,116,13
4,44,106,0
4,42,113,6
4,36,117,20
4,53,97,1
4,36,98,12
4,36,122,52
4,49,111,3
4,53,108,0
4,38,122,1
4,53,108,108
4,36,127,5
4,36,115,16
4,53,108,49
4,38,126,0
4,36,121,108
4,53,108,0
4,36,116,15
4,53,108,45
4,36,125,12
4,36,122,39
4,40,118,41
4,36,127,4
4,36,127,26
4,53,108,27
4,38,118,3
4,36,109,2
4,36,101,26
4,57,127,28
4,53,108,0
4,36,120,4
4,53,101,111
4,38,125,1
4,53,101,106
4,36,122,2
4,36,116,14
4,53,101,50
4,38,126,1
4,53,97,108
4,36,122,3
4,36,112,14
4,53,97,46
4,38,126,1
4,53,105,102
4,36,117,3
4,38,101,13
4,38,101,3
4,38,115,2
4,38,111,2
4,41,104,3
4,40,5,1
4,51,97,0
4,41,107,0
4,38,99,3
4,36,112,55
4,51,100,1
4,51,110,104
4,38,120,1
4,51,107,109
4,36,123,0
4,36,115,12
4,51,100,54
4,38,124,2
4,36,121,107
4,51,108,1
4,36,126,12
4,38,126,47
4,51,102,2
4,51,104,100
4,36,116,4
4,49,103,12
4,50,106,49
4,40,7,2
4,44,102,1
4,48,110,0
4,48,107,4
4,48,116,3
4,48,106,2
4,47,104,5
4,47,112,0
4,53,99,2
4,36,116,1
4,38,127,109
4,53,105,1
4,36,127,105
4,53,96,4
4,36,125,10
4,53,104,54
4,38,117,2
4,36,116,108
4,53,102,2
4,36,122,8
4,53,98,49
4,38,120,2
4,36,124,98
4,53,110,3
4,38,89,10
4,38,99,2
4,38,110,3
4,38,109,2
4,41,115,1
4,40,12,1
4,51,106,0
4,41,105,8
4,38,97,1
4,39,93,1
4,70,49,183
4,39,86,1
4,70,57,39
4,70,49,49
4,70,41,45
4,39,72,44
4,70,47,0
4,39,84,1
4,70,54,38
4,70,50,45
4,70,41,46
4,39,84,48
4,39,82,187
4,70,49,39
4,39,80,139
4,39,76,190
4,39,80,186
4,70,41,180
4,39,78,2
4,70,52,43
4,70,40,47
4,70,40,0
4,39,76,49
4,70,48,185
4,39,72,3
4,70,45,2
4,70,49,46
4,70,48,50
4,39,85,44
4,39,76,186
4,70,47,39
4,39,73,139
4,39,86,186
4,39,81,189
4,70,45,181
4,39,76,2
4,70,50,41
4,70,48,41
4,70,46,45
4,39,75,41
4,39,74,187
4,70,47,2
4,70,44,41
4,70,54,38
4,70,51,43
4,39,83,43
4,39,74,185
4,70,45,43
4,39,76,142
4,39,81,186
4,39,83,183
4,70,49,186
4,39,83,4
4,70,53,2
4,70,40,45
4,70,52,42
4,39,75,45
4,70,46,183
4,39,81,0
4,70,44,40
4,70,42,44
4,70,42,47
4,39,75,43
4,39,75,182
4,70,50,41
4,39,80,144
4,39,84,188
4,39,89,185
4,39,80,183
4,70,49,0
4,70,46,3
4,70,47,48
4,70,50,42
4,39,73,43
4,70,47,0
4,39,80,4
4,70,43,1
4,70,50,48
4,70,53,42
4,39,86,51
4,39,81,184
4,70,48,1
4,39,85,140
4,39,83,185
4,39,83,191
4,70,48,180
4,39,76,1
4,70,49,45
4,70,46,4
4,70,49,44
4,39,84,43
4,70,41,2
4,39,74,0
4,70,50,0
4,70,50,49
4,70,40,45
4,39,84,42
4,40,127,764
4,38,122,0
4,38,105,6
4,36,124,63
4,40,104,78
4,38,124,1
4,38,125,25
4,38,127,39
4,40,124,84
4,38,127,2
4,38,123,2
4,36,127,73
4,38,101,71
4,49,93,0
4,49,101,8
4,36,115,1
4,49,127,14
4,36,114,1
4,36,108,2
4,53,89,3
4,40,107,94
4,38,110,5
4,53,97,0
4,36,111,4
4,45,104,71
4,53,93,2
4,45,118,21
4,48,97,49
4,48,88,16
4,36,118,13
4,48,77,0
4,53,97,2
4,48,74,1
4,48,85,40
4,53,95,35
4,36,111,1
4,47,83,4
4,40,70,2
4,38,101,0
4,42,81,91
4,36,106,1
4,53,93,1
4,46,89,9
4,53,88,10
4,36,116,3
4,36,112,99
4,49,95,3
4,36,109,98
4,53,90,0
4,53,91,90
4,36,118,0
4,53,96,99
4,36,111,3
4,36,109,91
4,50,103,27
4,50,109,19
4,50,100,15
4,50,107,42
4,50,106,85
4,48,101,42
4,47,102,45
4,47,102,45
4,45,105,41
4,45,105,12
4,45,103,21
4,45,97,43
4,45,96,41
4,41,108,39
4,41,101,44
4,36,118,92
4,53,97,1
4,38,127,105
4,53,101,0
4,36,125,108
4,53,105,1
4,36,125,10
4,38,112,53
4,53,99,0
4,36,112,111
4,53,107,2
4,36,122,7
4,53,104,50
4,38,117,2
4,53,97,99
4,36,125,2
4,46,116,13
4,44,106,0
4,42,113,6
4,36,117,20
4,53,97,1
4,36,98,12
4,36,122,52
4,49,111,3
4,53,97,1
4,38,122,0
4,53,97,108
4,36,127,4
4,36,115,15
4,38,126,49
4,53,97,1
4,36,121,107
4,53,97,1
4,36,116,14
4,53,97,46
4,38,118,2
4,53,97,75
4,36,115,28
4,38,108,83
4,38,101,4
4,53,97,22
4,38,94,1
4,36,96,22
4,53,108,107
4,36,120,4
4,53,101,111
4,38,125,1
4,53,101,106
4,36,122,2
4,36,116,14
4,53,101,50
4,38,126,1
4,53,97,108
4,36,122,3
4,36,112,14
4,53,97,46
4,38,126,1
4,53,105,102
4,36,117,3
4,38,101,13
4,38,101,3
4,38,115,2
4,38,111,2
4,41,104,3
4,40,5,1
4,51,97,0
4,41,107,0
4,38,99,3
4,36,112,55
4,51,100,1
4,51,110,104
4,38,120,1
4,51,107,109
4,36,123,0
4,36,115,12
4,51,100,54
4,38,124,2
4,36,121,107
4,51,108,1
4,36,126,12
4,38,126,47
4,51,102,2
4,51,104,100
4,36,116,4
4,49,103,12
4,50,106,49
4,40,7,2
4,44,102,1
4,48,110,0
4,48,107,4
4,48,116,3
4,48,106,2
4,47,104,5
4,47,112,0
4,53,99,2
4,36,116,1
4,38,127,109
4,53,105,1
4,36,127,105
4,53,96,4
4,36,125,10
4,53,104,54
4,38,117,2
4,36,116,108
4,53,102,2
4,36,122,8
4,53,98,49
4,38,120,2
4,36,124,98
4,53,110,3
4,38,89,10
4,38,99,2
4,38,110,3
4,38,109,2
4,41,115,1
4,51,106,1
4,40,12,0
4,41,105,8
4,38,97,1
4,53,96,52
4,36,126,1
4,53,109,105
4,38,122,4
4,36,127,108
4,53,101,4
4,36,112,11
4,38,116,52
4,53,104,1
4,36,117,104
4,53,99,1
4,36,122,12
4,53,110,49
4,38,118,1
4,53,102,100
4,36,113,1
4,46,113,14
4,44,112,3
4,42,111,20
4,53,100,5
4,36,114,2
4,36,104,9
4,53,101,53
4,36,124,3
4,38,127,109
4,53,110,0
4,53,103,109
4,36,127,1
4,36,118,12
4,53,107,50
4,38,125,1
4,36,122,107
4,53,108,1
4,36,115,11
4,38,118,50
4,53,105,3
4,36,124,99
4,53,106,1
4,38,100,11
4,38,95,5
4,38,105,6
4,38,113,20
4,51,100,2
4,38,112,1
4,38,98,13
4,49,118,50
4,36,113,1
4,53,96,2
4,38,127,6
4,53,110,1
4,36,127,107
4,53,109,2
4,36,119,11
4,38,125,53
4,53,107,2
4,36,120,104
4,53,102,4
4,36,120,12
4,38,126,43
4,53,98,0
4,36,119,8
4,36,119,2
4,38,119,2
4,53,101,0
4,36,119,12
4,36,119,2
4,38,110,45
4,53,110,4
4,36,110,7
4,36,110,3
4,57,97,1
4,53,101,105
4,38,127,0
4,36,125,108
4,53,105,1
4,36,125,10
4,53,99,53
4,38,112,0
4,36,112,111
4,53,107,2
4,36,122,7
4,53,104,50
4,38,117,2
4,53,97,99
4,36,125,2
4,46,116,13
4,44,106,0
4,42,113,6
4,36,117,20
4,53,97,1
4,36,98,12
4,36,122,52
4,49,111,3
4,53,108,0
4,38,122,1
4,53,108,108
4,36,127,5
4,36,115,16
4,38,126,49
4,53,108,0
4,53,108,108
4,36,121,0
4,36,116,15
4,53,108,45
4,36,127,17
4,36,123,39
4,40,118,37
4,36,126,7
4,36,127,27
4,53,108,28
4,38,118,3
4,36,101,3
4,36,104,30
4,53,108,24
4,57,123,0
4,36,120,4
4,53,101,111
4,38,125,1
4,53,101,106
4,36,122,2
4,36,116,14
4,53,101,50
4,38,126,1
4,53,97,108
4,36,122,3
4,36,112,14
4,53,97,46
4,38,126,1
4,53,105,102
4,36,117,3
4,38,101,13
4,38,101,3
4,38,115,2
4,38,111,2
4,41,104,3
4,40,5,1
4,51,97,0
4,41,107,0
4,38,99,3
4,36,112,55
4,51,100,1
4,51,110,104
4,38,120,1
4,51,107,109
4,36,123,0
4,36,115,12
4,51,100,54
4,38,124,2
4,36,121,107
4,51,108,1
4,36,126,12
4,38,126,47
4,51,102,2
4,51,104,100
4,36,116,4
4,49,103,12
4,50,106,49
4,40,7,2
4,44,102,1
4,48,110,0
4,48,107,4
4,48,116,3
4,48,106,2
4,47,104,5
4,47,112,0
4,53,99,2
4,36,116,1
4,38,127,109
4,53,105,1
4,36,127,105
4,53,96,4
4,36,125,10
4,53,104,54
4,38,117,2
4,36,116,108
4,53,102,2
4,36,122,8
4,53,98,49
4,38,120,2
4,36,124,98
4,53,110,3
4,38,89,10
4,38,99,2
4,38,110,3
4,38,109,2
4,41,115,1
4,51,106,1
4,40,12,0
4,41,105,8
4,38,97,1
4,39,93,1
4,70,56,0
4,39,86,2
4,70,57,6
4,70,50,43
4,70,50,49
4,39,72,42
4,70,51,1
4,39,84,2
4,70,51,3
4,70,55,0
4,70,51,3
4,39,84,47
4,39,82,187
4,70,43,37
4,39,80,135
4,39,76,190
4,39,80,186
4,39,78,182
4,70,40,0
4,70,43,40
4,70,47,47
4,70,41,42
4,39,76,45
4,70,40,185
4,39,72,1
4,70,44,37
4,70,54,1
4,70,51,47
4,39,85,48
4,39,76,186
4,70,52,41
4,39,73,137
4,39,86,186
4,39,81,189
4,70,46,183
4,39,76,0
4,70,46,2
4,70,53,47
4,70,42,44
4,39,75,44
4,39,74,187
4,70,49,1
4,70,54,41
4,70,49,42
4,70,51,48
4,39,83,42
4,39,74,185
4,70,52,2
4,39,76,144
4,39,81,186
4,39,83,183
4,70,42,185
4,39,83,5
4,70,43,38
4,70,47,43
4,70,40,38
4,39,75,42
4,39,81,0
4,70,40,4
4,70,43,44
4,70,43,46
4,70,49,45
4,39,75,50
4,39,75,182
4,70,42,43
4,39,80,140
4,39,84,188
4,39,89,185
4,39,80,183
4,70,51,4
4,70,44,0
4,70,50,48
4,70,43,43
4,39,73,49
4,70,40,183
4,39,80,1
4,70,45,37
4,70,52,1
4,70,48,3
4,39,86,48
4,39,81,184
4,70,51,40
4,39,85,143
4,39,83,185
4,39,83,191
4,39,76,0
4,70,43,3
4,70,54,40
4,70,54,2
4,70,46,45
4,39,84,47
4,70,52,184
4,39,74,1
4,70,50,40
4,70,54,47
4,70,41,0
4,39,84,47
4,40,125,761
4,38,127,4
4,38,109,0
4,36,127,72
4,40,113,70
4,38,127,1
4,38,127,35
4,38,127,31
4,38,127,84
4,40,124,0
4,38,118,2
4,36,120,68
4,49,91,79
4,38,89,2
4,49,99,4
4,36,108,2
4,49,127,7
4,36,111,2
4,53,96,9
4,36,104,2
4,40,106,93
4,38,114,0
4,53,102,3
4,36,104,2
4,45,110,71
4,53,97,2
4,45,116,24
4,48,93,52
4,48,98,15
4,48,68,17
4,53,98,1
4,36,105,4
4,48,67,2
4,48,81,44
4,53,93,44
4,47,91,3
4,36,108,1
4,38,96,1
4,40,77,1
4,36,109,93
4,53,91,0
4,42,93,1
4,46,90,11
4,36,110,9
4,53,95,4
4,49,102,95
4,36,112,3
4,53,98,94
4,36,106,1
4,36,117,93
4,53,94,5
4,36,107,97
4,53,100,0
4,36,109,99
4,50,105,20
4,50,96,12
4,50,103,13
4,50,108,42
4,50,108,90
4,48,107,36
4,47,106,43
4,47,99,37
4,45,110,40
4,45,108,16
4,45,97,23
4,45,104,45
4,45,101,43
4,41,104,44
4,41,109,44
4,51,110,89
4,36,122,0
4,51,104,111
4,38,122,0
4,38,116,59
4,36,125,10
4,51,109,2
4,36,116,10
4,38,118,55
4,51,102,0
4,51,103,106
4,36,114,3
4,36,118,15
4,51,103,47
4,38,113,45
4,36,122,11
4,51,110,47
4,36,122,13
4,49,101,0
4,38,108,11
