track,note,velocity,time
1,68,127,39168
1,68,0,336
1,68,127,336
1,68,0,190
1,66,127,2
1,66,0,160
1,71,127,32
1,71,0,190
1,66,127,2
1,66,0,160
1,64,127,32
1,64,0,94
1,68,127,2
1,68,0,336
1,59,127,336
1,59,0,94
1,68,127,2
1,68,0,94
1,69,127,2
1,69,0,160
1,69,127,32
1,69,0,190
1,68,127,2
1,68,0,94
1,66,127,2
1,66,0,94
1,64,127,2
1,64,0,94
1,69,127,2
1,69,0,94
1,69,127,2
1,69,0,160
1,69,127,32
1,69,0,192
1,68,127,0
1,68,0,160
1,64,127,32
1,64,0,94
1,66,127,2
1,66,0,94
1,66,127,2
1,66,0,160
1,66,127,32
1,66,0,192
1,68,127,0
1,68,0,160
1,68,127,32
1,68,0,94
1,69,127,2
1,69,0,160
1,69,127,32
1,69,0,94
1,69,127,2
1,69,0,190
1,66,127,2
1,66,0,160
1,68,127,32
1,68,0,190
1,76,127,2
1,76,0,288
1,71,127,0
1,71,0,256
1,57,127,32
1,57,0,94
1,67,108,2
1,67,0,94
1,67,108,2
1,67,0,94
1,66,108,2
1,66,0,94
1,64,108,2
1,64,0,94
1,64,108,2
1,64,0,160
1,61,108,32
1,61,0,94
1,57,108,2
1,57,0,94
1,73,108,2
1,73,0,94
1,73,108,2
1,73,0,94
1,73,108,2
1,73,0,94
1,73,108,2
1,73,0,94
1,73,108,2
1,73,0,94
1,71,108,2
1,71,0,94
1,69,108,2
1,69,0,94
1,71,108,2
1,71,0,256
1,69,108,1280
1,69,0,190
1,69,108,2
1,69,0,160
1,69,108,32
1,69,0,192
1,68,108,0
1,68,0,160
1,64,108,32
1,64,0,94
1,66,108,2
1,66,0,160
1,66,108,32
1,66,0,94
1,66,108,2
1,66,0,192
1,68,108,0
1,68,0,160
1,59,108,32
1,59,0,94
1,64,108,2
1,64,0,94
1,64,108,2
1,64,0,160
1,69,108,32
1,69,0,190
1,71,108,2
1,71,0,160
1,71,108,32
1,71,0,256
1,59,127,896
1,59,0,94
1,68,127,2
1,68,0,94
1,68,127,2
1,68,0,94
1,68,127,2
1,68,0,94
1,68,127,2
1,68,0,190
1,69,127,2
1,69,0,94
1,69,127,2
1,69,0,528
1,66,127,336
1,66,0,190
1,66,127,2
1,66,0,160
1,66,127,32
1,66,0,94
1,66,127,2
1,66,0,96
1,68,127,0
1,68,0,256
1,59,127,512
1,59,0,94
1,68,127,2
1,68,0,94
1,68,127,2
1,68,0,190
1,68,127,2
1,68,0,94
1,68,127,2
1,68,0,94
1,69,127,2
1,69,0,190
1,68,127,2
1,68,0,94
1,66,127,2
1,66,0,94
1,64,127,2
1,64,0,190
1,64,127,2
1,64,0,94
1,66,127,2
1,66,0,94
1,68,127,2
1,68,0,190
1,66,127,2
1,66,0,94
1,63,127,2
1,63,0,48
1,61,127,0
1,61,0,48
1,59,127,0
1,59,0,94
1,68,127,98
1,68,0,94
1,68,127,2
1,68,0,94
1,68,127,2
1,68,0,94
1,69,127,2
1,69,0,94
1,69,127,2
1,69,0,160
1,68,127,32
1,68,0,94
1,66,127,2
1,66,0,96
1,64,127,0
1,64,0,256
1,69,127,512
1,69,0,94
1,69,127,2
1,69,0,94
1,69,127,2
1,69,0,94
1,73,127,2
1,73,0,256
1,68,127,32
1,68,0,94
1,71,127,2
1,71,0,336
1,69,127,720
1,69,0,94
1,71,127,2
1,71,0,288
1,69,127,0
1,69,0,94
1,69,127,2
1,69,0,336
1,67,127,48
1,67,0,94
1,66,127,2
1,66,0,94
1,64,127,2
1,64,0,94
1,62,127,2
1,62,0,190
1,61,127,2
1,61,0,160
1,62,127,32
1,62,0,816
1,69,127,2256
1,69,0,94
1,71,127,2
1,71,0,96
1,69,127,0
1,69,0,94
1,69,127,2
1,69,0,864
1,67,127,0
1,67,0,48
1,66,127,0
1,66,0,48
1,67,127,0
1,67,0,192
1,69,127,0
1,69,0,94
1,66,127,2
1,66,0,432
1,64,127,48
1,64,0,96
1,62,127,0
1,62,0,256
1,68,127,800
1,68,0,336
1,68,127,336
1,68,0,190
1,66,127,2
1,66,0,160
1,71,127,32
1,71,0,190
1,66,127,2
1,66,0,160
1,64,127,32
1,64,0,94
1,68,127,2
1,68,0,336
1,59,127,336
1,59,0,94
1,68,127,2
1,68,0,94
1,69,127,2
1,69,0,160
1,69,127,32
1,69,0,190
1,68,127,2
1,68,0,94
1,66,127,2
1,66,0,94
1,64,127,2
1,64,0,94
1,69,127,2
1,69,0,94
1,69,127,2
1,69,0,160
1,69,127,32
1,69,0,192
1,68,127,0
1,68,0,160
1,64,127,32
1,64,0,94
1,66,127,2
1,66,0,94
1,66,127,2
1,66,0,160
1,66,127,32
1,66,0,192
1,68,127,0
1,68,0,160
1,68,127,32
1,68,0,94
1,69,127,2
1,69,0,160
1,69,127,32
1,69,0,94
1,69,127,2
1,69,0,190
1,66,127,2
1,66,0,160
1,68,127,32
1,68,0,190
1,76,127,2
1,76,0,288
1,71,127,0
1,71,0,256
1,57,127,32
1,57,0,94
1,67,108,2
1,67,0,94
1,67,108,2
1,67,0,94
1,66,108,2
1,66,0,94
1,64,108,2
1,64,0,94
1,64,108,2
1,64,0,160
1,61,108,32
1,61,0,94
1,57,108,2
1,57,0,94
1,73,108,2
1,73,0,94
1,73,108,2
1,73,0,94
1,73,108,2
1,73,0,94
1,73,108,2
1,73,0,94
1,73,108,2
1,73,0,94
1,71,108,2
1,71,0,94
1,69,108,2
1,69,0,94
1,71,108,2
1,71,0,256
1,69,108,1280
1,69,0,190
1,69,108,2
1,69,0,160
1,69,108,32
1,69,0,192
1,68,108,0
1,68,0,160
1,64,108,32
1,64,0,94
1,66,108,2
1,66,0,160
1,66,108,32
1,66,0,94
1,66,108,2
1,66,0,192
1,68,108,0
1,68,0,160
1,59,108,32
1,59,0,94
1,64,108,2
1,64,0,94
1,64,108,2
1,64,0,160
1,69,108,32
1,69,0,190
1,71,108,2
1,71,0,160
1,71,108,32
1,71,0,256
1,59,127,896
1,59,0,94
1,68,127,2
1,68,0,94
1,68,127,2
1,68,0,94
1,68,127,2
1,68,0,94
1,68,127,2
1,68,0,190
1,69,127,2
1,69,0,94
1,69,127,2
1,69,0,528
1,66,127,336
1,66,0,190
1,66,127,2
1,66,0,160
1,66,127,32
1,66,0,94
1,66,127,2
1,66,0,96
1,68,127,0
1,68,0,256
1,59,127,512
1,59,0,94
1,68,127,2
1,68,0,94
1,68,127,2
1,68,0,190
1,68,127,2
1,68,0,94
1,68,127,2
1,68,0,94
1,69,127,2
1,69,0,190
1,68,127,2
1,68,0,94
1,66,127,2
1,66,0,94
1,64,127,2
1,64,0,190
1,64,127,2
1,64,0,94
1,66,127,2
1,66,0,94
1,68,127,2
1,68,0,190
1,66,127,2
1,66,0,94
1,63,127,2
1,63,0,48
1,61,127,0
1,61,0,48
1,59,127,0
1,59,0,94
1,68,127,98
1,68,0,94
1,68,127,2
1,68,0,94
1,68,127,2
1,68,0,94
1,69,127,2
1,69,0,94
1,69,127,2
1,69,0,160
1,68,127,32
1,68,0,94
1,66,127,2
1,66,0,96
1,64,127,0
1,64,0,256
1,69,127,512
1,69,0,94
1,69,127,2
1,69,0,94
1,69,127,2
1,69,0,94
1,73,127,2
1,73,0,256
1,68,127,32
1,68,0,94
1,71,127,2
1,71,0,336
1,69,127,720
1,69,0,94
1,71,127,2
1,71,0,288
1,69,127,0
1,69,0,94
1,69,127,2
1,69,0,336
1,67,127,48
1,67,0,94
1,66,127,2
1,66,0,94
1,64,127,2
1,64,0,94
1,62,127,2
1,62,0,190
1,61,127,2
1,61,0,160
1,62,127,32
1,62,0,816
1,69,127,2256
1,69,0,94
1,71,127,2
1,71,0,96
1,69,127,0
1,69,0,94
1,69,127,2
1,69,0,864
1,67,127,0
1,67,0,48
1,66,127,0
1,66,0,48
1,67,127,0
1,67,0,192
1,69,127,0
1,69,0,94
1,66,127,2
1,66,0,432
1,64,127,48
1,64,0,96
1,62,127,0
1,62,0,256
1,68,127,800
1,68,0,336
1,68,127,336
1,68,0,190
1,66,127,2
1,66,0,160
1,71,127,32
1,71,0,190
1,66,127,2
1,66,0,160
1,64,127,32
1,64,0,94
1,68,127,2
1,68,0,336
1,59,127,336
1,59,0,94
1,68,127,2
1,68,0,94
1,69,127,2
1,69,0,160
1,69,127,32
1,69,0,190
1,68,127,2
1,68,0,94
1,66,127,2
1,66,0,94
1,64,127,2
1,64,0,94
1,69,127,2
1,69,0,94
1,69,127,2
1,69,0,160
1,69,127,32
1,69,0,192
1,68,127,0
1,68,0,160
1,64,127,32
1,64,0,94
1,66,127,2
1,66,0,94
1,66,127,2
1,66,0,160
1,66,127,32
1,66,0,192
1,68,127,0
1,68,0,160
1,68,127,32
1,68,0,94
1,69,127,2
1,69,0,160
1,69,127,32
1,69,0,94
1,69,127,2
1,69,0,190
1,66,127,2
1,66,0,160
1,68,127,32
1,68,0,190
1,76,127,2
1,76,0,288
1,71,127,0
1,71,0,256
1,57,127,32
1,57,0,94
1,67,108,2
1,67,0,94
1,67,108,2
1,67,0,94
1,66,108,2
1,66,0,94
1,64,108,2
1,64,0,94
1,64,108,2
1,64,0,160
1,61,108,32
1,61,0,94
1,57,108,2
1,57,0,94
1,73,108,2
1,73,0,94
1,73,108,2
1,73,0,94
1,73,108,2
1,73,0,94
1,73,108,2
1,73,0,94
1,73,108,2
1,73,0,94
1,71,108,2
1,71,0,94
1,69,108,2
1,69,0,94
1,71,108,2
1,71,0,256
1,69,108,1280
1,69,0,190
1,69,108,2
1,69,0,160
1,69,108,32
1,69,0,192
1,68,108,0
1,68,0,160
1,64,108,32
1,64,0,94
1,66,108,2
1,66,0,160
1,66,108,32
1,66,0,94
1,66,108,2
1,66,0,192
1,68,108,0
1,68,0,160
1,59,108,32
1,59,0,94
1,64,108,2
1,64,0,94
1,64,108,2
1,64,0,160
1,69,108,32
1,69,0,190
1,71,108,2
1,71,0,160
1,71,108,32
1,71,0,256
1,59,127,896
1,59,0,94
1,68,127,2
1,68,0,94
1,68,127,2
1,68,0,94
1,68,127,2
1,68,0,94
1,68,127,2
1,68,0,190
1,69,127,2
1,69,0,94
1,69,127,2
1,69,0,528
1,66,127,336
1,66,0,190
1,66,127,2
1,66,0,160
1,66,127,32
1,66,0,94
1,66,127,2
1,66,0,96
1,68,127,0
1,68,0,256
1,59,127,512
1,59,0,94
1,68,127,2
1,68,0,94
1,68,127,2
1,68,0,190
1,68,127,2
1,68,0,94
1,68,127,2
1,68,0,94
1,69,127,2
1,69,0,190
1,68,127,2
1,68,0,94
1,66,127,2
1,66,0,94
1,64,127,2
1,64,0,190
1,64,127,2
1,64,0,94
1,66,127,2
1,66,0,94
1,68,127,2
1,68,0,190
1,66,127,2
1,66,0,94
1,63,127,2
1,63,0,48
1,61,127,0
1,61,0,48
1,59,127,0
1,59,0,94
1,68,127,98
1,68,0,94
1,68,127,2
1,68,0,94
1,68,127,2
1,68,0,94
1,69,127,2
1,69,0,94
1,69,127,2
1,69,0,160
1,68,127,32
1,68,0,94
1,66,127,2
1,66,0,96
1,64,127,0
1,64,0,256
1,69,127,512
1,69,0,94
1,69,127,2
1,69,0,94
1,69,127,2
1,69,0,94
1,73,127,2
1,73,0,256
1,68,127,32
1,68,0,94
1,71,127,2
1,71,0,336
1,69,127,720
1,69,0,94
1,71,127,2
1,71,0,288
1,69,127,0
1,69,0,94
1,69,127,2
1,69,0,336
1,67,127,48
1,67,0,94
1,66,127,2
1,66,0,94
1,64,127,2
1,64,0,94
1,62,127,2
1,62,0,190
1,61,127,2
1,61,0,160
1,62,127,32
1,62,0,816
1,69,127,720
1,69,0,94
1,71,127,2
1,71,0,288
1,69,127,0
1,69,0,94
1,69,127,2
1,69,0,336
1,67,127,48
1,71,127,0
1,71,0,94
1,67,0,0
1,66,127,2
1,71,127,0
1,71,0,94
1,66,0,0
1,64,127,2
1,71,127,0
1,71,0,94
1,64,0,0
1,62,127,2
1,69,127,0
1,69,0,190
1,62,0,0
1,61,127,2
1,69,127,0
1,69,0,160
1,61,0,0
1,62,127,32
1,69,127,0
1,69,0,94
1,62,0,0
2,69,60,0
2,73,60,0
2,76,60,0
2,76,0,1488
2,73,0,0
2,69,0,0
2,81,60,48
2,86,60,0
2,90,60,0
2,90,0,720
2,86,0,0
2,81,0,0
2,82,60,48
2,86,60,0
2,89,60,0
2,89,0,720
2,86,0,0
2,82,0,0
2,79,60,48
2,84,60,0
2,88,60,0
2,88,0,1488
2,84,0,0
2,79,0,0
2,79,60,48
2,84,60,0
2,88,60,0
2,88,0,1488
2,84,0,0
2,79,0,0
2,81,60,48
2,86,60,0
2,90,60,0
2,90,0,1296
2,86,0,0
2,81,0,0
2,71,75,48
2,74,75,0
2,79,75,0
2,79,0,160
2,74,0,0
2,71,0,0
2,69,75,32
2,74,75,0
2,78,75,0
2,78,0,928
2,74,0,0
2,69,0,0
2,76,75,32
2,76,0,160
2,78,75,32
2,78,0,256
2,79,75,32
2,79,0,94
2,79,75,2
2,79,0,336
2,72,75,48
2,72,0,544
2,76,75,32
2,76,0,160
2,78,75,32
2,78,0,256
2,79,75,32
2,79,0,94
2,79,75,2
2,79,0,720
2,71,75,48
2,71,0,160
2,74,75,32
2,74,0,160
2,78,75,32
2,78,0,256
2,79,75,32
2,79,0,94
2,79,75,2
2,79,0,720
2,70,75,48
2,70,0,160
2,73,76,32
2,73,0,160
2,76,77,32
2,76,0,256
2,73,79,32
2,73,0,94
2,74,79,2
2,74,0,1296
2,76,91,48
2,76,0,160
2,69,92,32
2,74,92,0
2,78,92,0
2,78,0,928
2,74,0,0
2,69,0,0
2,76,102,32
2,76,0,160
2,78,104,32
2,78,0,256
2,79,107,32
2,79,0,94
2,79,108,2
2,79,0,336
2,72,108,48
2,72,0,544
2,76,108,32
2,76,0,160
2,78,108,32
2,78,0,256
2,79,108,32
2,79,0,94
2,79,108,2
2,79,0,720
2,71,108,48
2,71,0,160
2,74,108,32
2,74,0,160
2,78,108,32
2,78,0,256
2,79,108,32
2,79,0,94
2,79,108,2
2,79,0,720
2,70,108,48
2,70,0,160
2,73,108,32
2,73,0,160
2,76,108,32
2,76,0,256
2,73,108,32
2,73,0,94
2,74,108,2
2,74,0,1296
2,76,108,48
2,76,0,160
2,69,108,32
2,74,108,0
2,78,108,0
2,78,0,928
2,74,0,0
2,69,0,0
2,76,108,32
2,76,0,160
2,78,108,32
2,78,0,256
2,79,108,32
2,79,0,94
2,79,108,2
2,79,0,336
2,72,108,48
2,72,0,544
2,76,108,32
2,76,0,160
2,78,108,32
2,78,0,256
2,79,108,32
2,79,0,94
2,79,108,2
2,79,0,720
2,71,108,48
2,71,0,160
2,74,108,32
2,74,0,160
2,78,108,32
2,78,0,256
2,79,108,32
2,79,0,94
2,79,108,2
2,79,0,720
2,70,108,48
2,70,0,160
2,73,108,32
2,73,0,160
2,76,108,32
2,76,0,256
2,73,108,32
2,73,0,94
2,74,108,2
2,74,0,1488
2,72,108,48
2,74,108,0
2,79,108,0
2,79,0,2256
2,74,0,0
2,72,0,0
2,57,108,0
2,62,108,0
2,66,108,0
2,66,0,94
2,62,0,0
2,57,0,0
2,57,108,2
2,62,108,0
2,66,108,0
2,66,0,94
2,62,0,0
2,57,0,0
2,57,108,2
2,62,108,0
2,66,108,0
2,66,0,160
2,62,0,0
2,57,0,0
2,60,108,32
2,64,108,0
2,67,108,0
2,67,0,94
2,64,0,0
2,60,0,0
2,60,108,2
2,64,108,0
2,67,108,0
2,67,0,94
2,64,0,0
2,60,0,0
2,60,108,2
2,64,108,0
2,67,108,0
2,67,0,160
2,64,0,0
2,60,0,0
2,59,108,32
2,62,108,0
2,67,108,0
2,67,0,94
2,62,0,0
2,59,0,0
2,59,108,2
2,62,108,0
2,67,108,0
2,67,0,94
2,62,0,0
2,59,0,0
2,59,108,2
2,62,108,0
2,67,108,0
2,67,0,94
2,62,0,0
2,59,0,0
2,57,108,2
2,62,108,0
