track,note,velocity,time
1,38,127,6384
1,33,127,0
1,36,127,0
1,35,127,0
1,31,127,0
1,38,127,0
1,33,127,0
1,36,127,0
1,35,127,0
1,31,127,0
1,38,127,0
1,33,127,0
1,38,127,0
1,33,127,0
1,38,127,0
1,36,127,0
1,35,127,0
1,31,127,0
1,38,127,0
1,38,127,0
1,45,127,0
1,38,127,0
1,33,127,0
1,36,127,0
1,35,127,0
1,31,127,0
1,38,127,0
1,38,127,0
1,38,127,0
1,40,127,0
1,38,127,0
1,36,127,0
1,35,127,0
1,31,127,0
1,38,127,0
1,33,127,0
1,38,127,0
1,33,127,0
1,38,127,0
1,36,127,0
1,35,127,0
1,45,127,0
1,45,127,0
1,43,127,0
1,40,127,0
1,43,127,0
1,45,127,0
1,43,127,0
1,40,127,0
1,38,127,0
1,38,127,0
1,45,120,192
1,38,127,0
1,45,122,192
1,33,127,0
1,31,127,0
1,31,127,0
1,31,127,0
1,36,127,88
1,36,127,146
1,36,127,96
1,40,127,96
1,35,123,96
1,40,127,0
1,40,127,96
1,36,127,96
1,38,127,0
1,38,127,0
1,38,127,0
1,36,127,16
1,31,127,176
1,31,127,0
1,31,127,0
1,36,127,88
1,36,127,146
1,36,127,96
1,40,127,96
1,35,123,96
1,40,127,0
1,40,127,96
1,36,127,96
1,38,127,0
1,38,127,0
1,38,127,0
1,36,127,0
1,31,127,0
1,31,127,0
1,31,127,0
1,36,127,88
1,36,127,146
1,36,127,96
1,40,127,96
1,35,123,96
1,40,127,0
1,40,127,96
1,36,127,96
1,38,127,0
1,38,127,0
1,38,127,0
1,29,127,0
1,31,127,0
1,31,127,0
1,31,127,0
1,36,127,88
1,36,127,146
1,36,127,96
1,40,127,96
1,35,123,96
1,40,127,0
1,40,127,96
1,36,127,96
1,38,127,0
1,38,127,0
1,38,127,0
1,29,127,0
1,31,127,0
1,31,127,0
1,31,127,0
1,36,127,88
1,36,127,146
1,36,127,96
1,40,127,96
1,35,123,96
1,40,127,0
1,40,127,96
1,36,127,96
1,38,127,0
1,38,127,0
1,38,127,0
1,29,127,0
1,31,127,0
1,31,127,0
1,31,127,0
1,36,127,184
1,36,127,146
1,36,127,96
1,39,127,96
1,28,120,0
1,40,120,0
1,40,120,0
1,42,122,0
1,40,122,0
1,42,124,0
1,40,125,0
1,33,127,0
1,45,127,0
1,47,127,0
1,42,127,0
1,45,127,0
1,42,127,0
1,45,127,0
1,47,127,0
1,47,127,0
1,47,127,0
1,47,127,0
1,45,127,0
1,45,127,0
1,45,127,0
1,45,127,0
1,43,127,0
1,43,127,0
1,43,127,0
1,43,127,0
1,42,127,0
1,42,127,0
1,42,127,0
1,42,127,0
1,45,127,0
1,45,127,0
1,45,127,0
1,45,127,0
1,45,127,0
1,45,127,0
1,45,127,0
1,42,127,0
1,40,127,0
1,33,127,0
1,33,127,0
1,33,127,0
1,33,127,0
1,33,127,0
1,33,127,0
1,45,127,0
1,42,127,0
1,40,127,0
1,33,127,0
1,38,127,0
1,38,127,96
1,43,127,0
1,31,127,48
1,31,127,0
1,31,127,96
1,30,127,0
1,30,127,96
1,30,127,0
1,30,127,96
1,28,127,96
1,28,127,96
1,38,127,96
1,38,127,192
1,43,127,0
1,38,127,0
1,43,127,0
1,42,127,0
1,42,127,96
1,33,127,96
1,45,124,96
1,43,127,96
1,42,127,47
1,40,123,69
1,38,127,31
1,38,127,112
1,31,127,183
1,31,127,90
1,35,127,159
1,35,123,111
1,35,127,46
1,35,127,105
1,37,127,97
1,37,127,80
1,33,127,43
1,38,127,40
1,38,127,0
1,33,127,37
1,35,127,0
1,35,127,0
1,26,127,96
1,28,127,192
1,28,127,0
1,26,127,108
1,33,127,0
1,37,127,0
1,38,127,0
1,31,123,0
1,31,127,0
1,43,127,64
1,43,127,0
1,43,127,0
1,43,127,0
1,31,127,0
1,30,127,0
1,28,127,0
1,26,127,0
1,38,106,10752
1,38,107,110
1,38,127,112
1,38,127,122
1,38,127,118
1,38,127,106
1,38,127,106
1,38,127,105
1,36,127,95
1,36,127,113
1,36,127,121
1,35,127,109
1,35,127,112
1,35,127,122
1,36,127,101
1,38,127,102
1,38,127,0
1,33,127,0
1,38,127,0
1,33,127,0
1,38,127,0
1,36,127,0
1,35,127,0
1,36,127,0
1,38,127,0
1,38,127,96
1,33,126,0
1,38,127,0
1,33,127,0
1,35,127,0
1,36,127,0
1,35,127,0
1,35,127,0
1,36,127,0
1,35,127,0
1,31,127,0
1,38,127,0
1,33,127,96
1,38,127,0
1,43,126,96
1,42,127,0
1,40,127,0
1,42,127,0
1,38,127,0
1,36,127,0
1,35,127,0
1,35,127,0
1,36,127,0
1,35,127,0
1,36,127,0
1,38,127,0
1,38,127,192
1,33,127,0
1,38,127,0
1,33,127,0
1,35,127,0
1,36,127,0
1,35,127,1536
1,33,127,1520
1,30,116,0
1,31,127,0
1,35,127,96
1,36,127,0
1,38,127,0
1,38,127,109
1,38,127,117
1,38,127,115
1,38,127,119
1,33,102,20
1,38,127,22
1,38,127,121
1,38,127,121
1,45,116,75
1,38,126,96
1,38,127,110
1,45,116,1
1,38,123,96
1,38,124,112
1,45,116,13
1,38,121,96
1,38,120,110
1,45,116,12
1,38,123,96
1,33,124,0
1,30,127,96
1,31,127,33
1,31,127,0
1,31,127,0
1,36,127,88
1,36,127,146
1,36,127,96
1,40,127,96
1,35,123,96
1,40,127,0
1,40,127,96
1,36,127,96
1,38,127,0
1,38,127,0
1,38,127,0
1,36,127,0
1,31,127,0
1,31,127,0
1,31,127,0
1,36,127,88
1,36,127,146
1,36,127,96
1,40,127,96
1,35,123,96
1,40,127,0
1,40,127,96
1,36,127,96
1,38,127,0
1,38,127,0
1,38,127,0
1,36,127,0
1,31,127,0
1,31,127,0
1,31,127,0
1,36,127,88
1,36,127,146
1,36,127,96
1,40,127,96
1,35,123,96
1,40,127,0
1,40,127,96
1,36,127,96
1,38,127,0
1,38,127,0
1,38,127,0
1,30,127,0
1,31,127,0
1,31,127,0
1,31,127,0
1,36,127,88
1,36,127,146
1,36,127,96
1,40,127,96
1,35,123,96
1,40,127,0
1,40,127,96
1,36,127,96
1,38,127,0
1,38,127,0
1,38,127,0
1,30,127,0
1,31,127,0
1,31,127,0
1,31,127,0
1,36,127,88
1,36,127,146
1,36,127,96
1,40,127,96
1,35,123,96
1,40,127,0
1,40,127,96
1,36,127,96
1,38,127,0
1,38,127,0
1,38,127,0
1,36,127,0
1,31,127,0
1,31,127,0
1,31,127,0
1,36,127,88
1,36,127,146
1,36,127,96
1,40,127,96
1,35,123,96
1,40,127,0
1,40,127,96
1,38,127,192
1,38,127,96
1,31,127,96
1,31,127,0
1,31,127,0
1,36,127,88
1,36,127,146
1,36,127,96
1,40,127,96
1,35,123,96
1,40,127,0
1,40,127,96
1,36,127,96
1,38,127,0
1,38,127,0
1,38,127,0
1,38,108,0
1,31,127,96
1,31,127,0
1,31,127,0
1,36,127,88
1,36,127,146
1,36,127,96
1,40,127,96
1,35,123,96
1,40,127,0
1,40,127,96
1,38,127,96
1,36,127,96
1,31,127,0
1,31,127,0
1,31,127,0
1,36,127,88
1,36,127,146
1,36,127,96
1,28,127,96
1,28,123,96
1,28,127,0
1,28,127,96
1,26,127,96
1,26,127,0
1,26,127,0
1,26,127,0
1,28,127,0
1,31,127,0
1,31,127,0
1,31,127,0
1,36,127,88
1,36,127,146
1,36,127,96
1,28,127,96
1,28,123,96
1,28,127,0
1,28,127,96
1,26,127,96
1,26,127,0
1,26,127,0
1,26,127,0
1,26,127,0
1,31,127,0
1,31,127,0
1,31,127,0
1,36,127,88
1,36,127,146
2,50,107,240
2,62,107,192
2,57,107,192
2,67,107,0
2,66,107,0
2,62,107,192
2,45,105,0
2,48,105,0
2,55,107,192
2,62,107,192
2,47,109,0
2,55,110,0
2,62,112,192
2,43,114,0
2,62,112,0
2,50,107,0
2,62,107,192
2,57,107,192
2,67,107,0
2,66,107,0
2,62,107,192
2,45,105,0
2,48,105,0
2,55,107,192
2,62,107,192
2,47,109,0
2,55,110,0
2,62,112,192
2,43,114,0
2,62,112,0
2,50,107,0
2,62,107,192
2,57,107,192
2,67,107,0
2,66,107,0
2,62,107,192
2,45,105,0
2,48,105,0
2,55,107,192
2,62,107,192
2,47,109,0
2,55,110,0
2,62,112,192
2,43,114,0
2,62,112,0
2,50,107,0
2,62,107,192
2,57,107,192
2,67,107,0
2,66,107,0
2,62,107,192
2,45,105,0
2,48,105,0
2,55,107,192
2,62,107,192
2,47,109,0
2,55,110,0
2,62,112,192
2,43,114,0
2,62,112,0
2,50,107,0
2,62,107,192
2,57,107,192
2,67,107,0
2,66,107,0
2,62,107,192
2,45,105,0
2,48,105,0
2,55,107,192
2,62,107,192
2,47,109,0
2,55,110,0
2,62,112,192
2,43,114,0
2,62,112,0
2,50,107,0
2,62,107,192
2,57,107,192
2,67,107,0
2,66,107,0
2,62,107,192
2,45,105,0
2,48,105,0
2,55,107,192
2,62,107,192
2,47,109,0
2,55,110,0
2,62,112,192
2,43,114,0
2,62,112,0
2,50,107,0
2,62,107,192
2,57,107,192
2,67,107,0
2,66,107,0
2,62,107,192
2,45,105,0
2,48,105,0
2,55,107,192
2,62,107,192
2,47,109,0
2,55,110,0
2,62,112,192
2,43,114,0
2,62,112,0
2,50,107,0
2,62,107,192
2,57,107,192
2,67,107,0
2,66,107,0
2,62,107,192
2,45,105,0
2,48,105,0
2,64,107,192
2,62,107,192
2,55,109,0
2,64,110,0
2,62,112,192
2,55,114,0
2,64,112,0
2,47,105,0
2,59,107,192
2,62,107,192
2,59,109,0
2,67,110,0
2,62,112,192
2,59,114,0
2,55,112,0
2,50,47,46080
2,62,47,192
2,57,50,192
2,62,52,0
2,62,54,0
2,57,54,0
2,62,54,0
2,62,54,0
2,50,54,0
2,62,57,0
2,57,59,0
2,62,61,0
2,62,66,0
2,57,66,0
2,62,68,0
2,62,71,0
2,48,71,0
2,55,73,192
2,62,73,0
2,47,75,0
2,55,78,0
2,62,78,0
2,43,80,0
2,62,84,0
2,50,84,0
2,62,85,0
2,57,87,192
2,62,87,0
2,62,92,0
2,57,92,0
2,62,94,0
2,62,96,0
2,48,99,0
2,55,101,192
2,62,103,0
2,47,106,0
2,55,108,0
2,62,108,0
2,43,108,0
2,62,113,0
2,50,107,0
2,62,107,192
2,57,107,192
2,67,107,0
2,66,107,0
2,62,107,192
2,45,105,0
2,48,105,0
2,55,107,192
2,62,107,192
2,47,109,0
2,55,110,0
2,62,112,192
2,43,114,0
2,62,112,0
2,50,107,0
2,62,107,192
2,57,107,192
2,67,107,0
2,66,107,0
2,62,107,192
2,45,105,0
2,48,105,0
2,55,107,192
2,62,107,192
2,47,109,0
2,55,110,0
2,62,112,192
2,43,114,0
2,62,112,0
2,50,107,0
2,62,107,192
2,57,107,192
2,67,107,0
2,66,107,0
2,62,107,192
2,45,105,0
2,48,105,0
2,55,107,192
2,62,107,192
2,47,109,0
2,55,110,0
2,62,112,192
2,43,114,0
2,62,112,0
2,50,107,0
2,62,107,192
2,57,107,192
2,67,107,0
2,66,107,0
2,62,107,192
2,45,105,0
2,48,105,0
2,55,107,192
2,62,107,192
2,47,109,0
2,55,110,0
2,62,112,192
2,43,114,0
2,62,112,0
3,62,73,10992
3,52,73,0
3,57,73,8
3,64,87,24
3,50,68,14
3,55,81,4
3,59,68,5
3,62,81,7
3,45,64,2
3,50,64,5
3,54,64,14
3,57,75,16
3,54,60,134
3,57,60,6
3,62,73,4
3,66,85,8
3,52,73,38
3,57,73,8
3,62,73,38
3,64,87,2
3,50,68,0
3,55,81,2
3,59,68,5
3,62,81,7
3,45,64,2
3,50,64,5
3,54,64,14
3,57,75,16
3,54,73,142
3,57,73,8
3,62,73,16
3,66,79,8
3,52,73,48
3,57,73,8
3,62,73,22
3,64,87,18
3,50,68,16
3,55,81,2
3,59,68,5
3,62,81,7
3,45,64,2
3,50,64,5
3,54,64,14
3,57,75,16
3,54,73,142
3,57,73,8
3,62,73,16
3,66,79,8
3,52,73,40
3,57,73,8
3,62,73,24
3,64,87,16
3,50,68,14
3,55,81,2
3,59,68,5
3,62,81,7
3,45,64,2
3,50,64,5
3,54,64,14
3,57,75,16
3,54,73,142
3,57,73,8
3,62,73,16
3,66,79,8
3,48,64,40
3,55,64,16
3,62,64,16
3,64,73,8
3,47,66,24
3,55,66,24
3,59,66,8
3,62,77,16
3,52,83,21544
3,55,96,10
3,59,91,10
3,62,100,10
3,64,80,10
3,64,80,0
3,62,100,0
3,59,91,0
3,55,96,0
3,52,83,0
3,64,80,0
3,62,102,0
3,59,91,0
3,55,96,0
3,52,83,0
3,64,80,0
3,61,101,0
3,59,91,0
3,55,96,0
3,52,83,0
3,64,80,0
3,59,100,0
3,55,96,0
3,52,83,0
3,64,96,0
3,59,96,0
3,61,96,0
3,55,96,0
3,52,96,0
3,47,79,96
3,54,79,0
3,50,79,0
3,59,79,0
3,45,71,0
3,54,71,0
3,50,71,0
3,57,71,0
3,47,69,0
3,43,69,0
3,50,69,0
3,55,69,0
3,45,67,0
3,50,67,0
3,54,67,0
3,42,67,0
4,47,74,29424
4,43,89,0
4,47,77,96
4,43,92,0
4,47,77,0
4,43,92,0
4,48,92,192
4,52,77,0
4,48,92,96
4,52,77,0
4,52,92,96
4,55,77,0
4,52,90,96
4,55,77,0
4,52,90,0
4,55,77,0
4,52,89,96
4,55,77,0
4,50,89,192
4,54,77,0
4,50,90,96
4,54,77,0
4,45,77,0
4,42,92,0
4,47,74,0
4,43,89,0
4,47,77,96
4,43,92,0
4,47,77,0
4,43,92,0
4,48,92,192
4,52,77,0
4,48,92,96
4,52,77,0
4,52,92,96
4,55,77,0
4,52,90,96
4,55,77,0
4,52,90,0
4,55,77,0
4,52,89,96
4,55,77,0
4,50,89,192
4,54,77,0
4,50,90,96
4,54,77,0
4,45,77,0
4,42,92,0
4,47,74,0
4,43,89,0
4,47,77,96
4,43,92,0
4,47,77,0
4,43,92,0
4,48,92,192
4,52,77,0
4,48,92,96
4,52,77,0
4,52,92,96
4,55,77,0
4,52,90,96
4,55,77,0
4,52,90,0
4,55,77,0
4,52,89,96
4,55,77,0
4,50,89,192
4,54,77,0
4,50,90,96
4,54,77,0
4,45,77,0
4,42,92,0
4,47,74,0
4,43,89,0
4,47,77,96
4,43,92,0
4,47,77,0
4,43,92,0
4,48,92,192
4,52,77,0
4,48,92,96
4,52,77,0
4,52,92,96
4,55,77,0
4,52,90,96
4,55,77,0
4,52,90,0
4,55,77,0
4,52,89,96
4,55,77,0
4,50,89,192
4,54,77,0
4,50,90,96
4,54,77,0
4,45,77,0
4,42,92,0
4,47,74,0
4,43,89,0
4,47,77,96
4,43,92,0
4,47,77,0
4,43,92,0
4,48,92,192
4,52,77,0
4,48,92,96
4,52,77,0
4,52,92,96
4,55,77,0
4,52,90,96
4,55,77,0
4,52,90,0
4,55,77,0
4,52,89,96
4,55,77,0
4,50,89,192
4,54,77,0
4,50,90,96
4,54,77,0
4,45,77,0
4,42,92,0
4,47,74,0
4,43,89,0
4,47,77,96
4,43,92,0
4,47,77,0
4,43,92,0
4,48,92,192
4,52,77,0
4,48,92,96
4,52,77,0
4,55,88,96
4,58,88,0
4,63,88,0
4,59,64,3072
4,50,64,0
4,54,64,0
4,47,64,0
4,59,64,0
4,50,64,0
4,54,64,0
4,47,64,0
4,59,66,0
4,50,66,0
4,54,66,0
4,47,66,0
4,59,68,0
4,50,68,0
4,54,68,0
4,47,68,0
4,57,70,0
4,50,70,0
4,54,70,0
4,45,70,0
4,57,73,0
4,50,73,0
4,54,73,0
4,45,73,0
4,57,73,0
4,50,73,0
4,54,73,0
4,45,73,0
4,57,73,0
4,50,73,0
4,54,73,0
4,45,73,0
4,55,73,0
4,50,73,0
4,43,73,0
4,47,73,0
4,55,70,0
4,50,70,0
4,43,70,0
4,47,70,0
4,55,73,0
4,50,73,0
4,43,73,0
4,47,73,0
4,55,75,0
