track,note,velocity,time
1,86,63,2880
1,79,57,0
1,79,58,0
1,82,62,120
1,94,62,0
1,93,64,0
1,86,62,0
1,84,51,0
1,86,69,0
1,84,45,0
1,79,66,0
1,82,59,0
1,74,61,0
1,81,64,0
1,72,57,0
1,79,66,0
1,70,53,0
1,81,68,0
1,82,64,0
1,74,70,0
1,82,55,120
1,81,65,0
1,79,62,0
1,81,64,0
1,82,62,0
1,75,63,0
1,82,59,0
1,81,69,0
1,77,62,0
1,81,66,0
1,82,64,0
1,81,65,0
1,81,66,0
1,79,60,0
1,82,52,0
1,77,57,0
1,79,61,0
1,86,53,0
1,77,66,120
1,79,65,0
1,82,57,0
1,79,64,0
1,86,66,0
1,79,62,0
1,79,65,0
1,82,62,120
1,94,69,0
1,93,68,0
1,86,69,0
1,84,69,0
1,86,61,0
1,84,66,0
1,79,69,0
1,82,64,0
1,74,67,0
1,81,66,0
1,72,64,0
1,70,54,0
1,79,72,0
1,81,61,0
1,72,50,0
1,74,60,0
1,82,59,0
1,67,62,0
1,75,55,0
1,82,57,0
1,74,57,0
1,81,54,0
1,72,54,0
1,77,64,0
1,69,57,0
1,81,62,0
1,72,54,0
1,82,52,0
1,74,64,0
1,75,49,0
1,84,62,0
1,81,57,0
1,78,45,0
1,86,51,0
1,90,50,0
1,81,46,0
1,91,64,0
1,82,45,0
1,93,62,0
1,84,58,0
1,93,62,0
1,94,51,0
1,93,49,0
1,91,62,0
1,86,62,0
1,81,61,0
1,82,50,0
1,81,60,0
1,79,62,0
1,74,55,0
1,69,58,0
1,70,53,0
1,69,61,0
1,67,65,0
1,62,62,0
1,62,62,0
1,67,63,0
1,69,65,0
1,67,62,0
1,86,62,0
1,91,46,0
1,93,64,0
1,93,63,0
1,94,47,0
1,93,65,0
1,91,53,0
1,86,64,0
1,81,62,0
1,82,49,0
1,81,64,0
1,79,62,0
1,74,55,0
1,69,65,0
1,70,53,0
1,69,58,0
1,67,59,0
1,62,59,0
1,62,62,0
1,67,62,0
1,69,55,0
1,69,62,0
1,70,51,0
1,67,61,0
1,62,58,0
1,67,54,0
1,70,56,0
1,72,57,0
1,73,54,0
1,74,65,0
1,77,66,0
1,79,62,0
1,86,54,0
1,91,59,0
1,93,62,0
1,93,59,0
1,94,53,0
1,93,65,0
1,91,47,0
1,86,57,0
1,81,59,12
1,82,53,0
1,81,65,0
1,79,47,0
1,74,57,0
1,69,62,108
1,70,54,0
1,69,58,0
1,67,60,0
1,62,58,0
1,62,58,0
1,67,64,0
1,69,63,0
1,67,64,0
1,82,55,0
1,74,58,0
1,81,60,0
1,72,54,0
1,77,62,0
1,69,54,0
1,79,62,0
1,70,46,0
1,82,50,0
1,74,55,0
1,75,47,0
1,84,60,0
1,77,61,0
1,69,54,0
1,77,61,0
1,69,49,0
1,79,61,0
1,70,46,0
1,79,65,0
1,70,49,0
1,81,61,0
1,77,59,0
1,72,55,0
1,75,46,0
1,82,49,0
1,79,68,0
1,81,62,0
1,84,56,0
1,77,54,0
1,89,53,0
1,82,57,240
1,74,62,0
1,81,62,0
1,72,53,0
1,82,52,0
1,74,57,0
1,79,66,0
1,70,49,0
1,70,52,0
1,67,57,0
1,74,58,0
1,67,57,0
1,63,57,0
1,58,48,0
1,70,54,0
1,82,50,0
1,74,62,0
1,81,66,0
1,72,57,0
1,77,55,0
1,69,52,0
1,72,50,0
1,81,47,0
1,70,47,0
1,79,49,0
1,77,65,0
1,69,54,0
1,70,44,0
1,79,55,0
1,89,55,0
1,81,59,0
1,86,62,0
1,93,68,0
1,84,64,0
1,82,57,240
1,74,62,0
1,81,62,0
1,72,53,0
1,82,52,0
1,74,57,0
1,70,49,0
1,79,66,0
1,70,52,0
1,67,57,0
1,74,58,0
1,67,57,0
1,63,57,0
1,58,48,0
1,70,54,0
1,82,50,0
1,74,62,0
1,81,66,0
1,72,57,0
1,77,55,0
1,69,52,0
1,72,50,0
1,81,47,0
1,70,47,0
1,79,49,0
1,77,65,0
1,69,54,0
1,70,44,0
1,79,55,0
1,79,66,120
1,70,50,0
1,79,64,0
1,70,48,0
1,77,66,0
1,69,58,0
1,77,64,0
1,69,57,0
1,70,51,0
1,79,68,0
1,75,56,0
1,67,62,0
1,67,58,0
1,75,55,0
1,74,60,0
1,65,50,0
1,74,62,0
1,65,53,0
1,77,64,0
1,69,51,0
1,77,55,0
1,69,54,0
1,67,62,0
1,75,60,0
1,74,62,0
1,67,64,0
1,75,49,0
1,70,50,0
1,79,71,0
1,81,60,0
1,72,48,0
1,82,60,120
1,74,57,0
1,84,69,0
1,75,46,0
1,78,57,120
1,86,62,0
1,81,57,0
1,90,57,0
1,86,53,0
1,93,65,0
1,90,59,0
1,98,64,0
1,82,54,0
1,81,62,0
1,82,58,0
1,79,64,0
1,74,58,0
1,79,62,0
1,81,62,0
1,82,53,0
1,81,57,0
1,82,47,0
1,79,57,0
1,74,50,0
1,79,62,0
1,82,51,0
1,81,62,0
1,79,59,0
1,77,60,0
1,72,61,0
1,77,57,0
1,79,62,0
1,81,63,0
1,81,62,0
1,82,51,0
1,79,63,0
1,74,57,0
1,82,55,0
1,81,61,0
1,79,57,0
1,82,55,0
1,81,56,0
1,82,56,0
1,79,56,0
1,74,58,0
1,79,63,0
1,81,62,0
1,82,60,0
1,81,49,0
1,82,56,0
1,79,57,0
1,74,57,0
1,79,57,0
1,82,54,0
1,81,64,0
1,79,61,0
1,77,57,0
1,72,60,0
1,77,63,0
1,79,53,0
1,81,57,0
1,74,45,0
1,79,50,0
1,79,60,0
1,74,64,0
1,74,62,0
1,82,54,0
1,81,63,0
1,82,54,0
1,79,51,0
1,74,59,0
1,82,53,0
1,81,62,0
1,82,52,0
1,81,64,0
1,82,55,0
1,79,50,0
1,74,62,0
1,79,59,0
1,82,54,0
1,81,53,0
1,79,56,0
1,77,64,0
1,72,57,0
1,77,62,0
1,79,62,0
1,81,55,0
1,81,59,0
1,82,50,0
1,79,50,0
1,74,57,0
1,82,60,0
1,81,61,0
1,79,51,0
1,82,58,0
1,81,64,0
1,82,57,0
1,79,55,0
1,74,54,0
1,86,60,0
1,84,63,0
1,82,56,0
1,81,57,0
1,82,53,0
1,79,62,0
1,74,57,0
1,79,49,0
1,82,57,0
1,81,62,0
1,79,66,0
1,77,64,0
1,72,58,0
1,77,62,0
1,79,65,0
1,81,66,0
1,79,64,0
1,79,64,0
1,86,67,0
1,82,47,0
1,86,65,0
1,86,65,0
1,82,54,0
1,87,62,0
1,86,68,0
1,84,59,0
1,82,54,0
1,84,61,0
1,86,64,0
1,77,55,0
1,82,57,0
1,84,59,0
1,77,50,0
1,86,57,0
1,82,57,0
1,77,55,0
1,86,49,0
1,77,57,0
1,86,60,0
1,82,60,0
1,87,66,0
1,86,55,0
1,84,59,0
1,82,60,0
1,81,66,0
1,79,63,0
1,79,56,120
1,81,66,0
1,82,55,0
1,81,59,0
1,82,62,0
1,79,62,0
1,82,57,0
1,81,64,0
1,79,61,0
1,81,64,0
1,82,55,0
1,81,68,0
1,79,62,0
1,81,66,0
1,82,57,0
1,81,63,0
1,82,56,0
1,81,62,0
1,82,55,0
1,79,57,0
1,84,69,0
1,82,54,0
1,81,62,0
1,81,62,0
1,77,50,0
1,81,65,0
1,79,58,0
1,81,64,0
1,82,62,0
1,84,72,0
1,86,67,0
1,82,47,0
1,86,65,0
1,86,65,0
1,82,54,0
1,87,62,0
1,86,68,0
1,84,59,0
1,82,54,0
1,84,61,0
1,86,64,0
1,77,55,0
1,82,57,0
1,84,59,0
1,77,50,0
1,86,57,0
1,82,57,0
1,77,55,0
1,86,49,0
1,77,57,0
1,86,60,0
1,82,60,0
1,87,66,0
1,86,55,0
1,84,59,0
1,82,60,0
1,81,66,0
1,79,63,0
1,79,56,120
1,81,66,0
1,82,60,0
1,81,64,0
1,82,66,0
1,79,66,0
1,82,62,0
1,81,69,0
1,79,65,0
1,81,69,0
1,82,60,0
1,81,73,0
1,79,66,0
1,81,71,0
1,82,62,0
1,81,68,0
1,82,62,0
1,81,66,0
1,82,60,0
1,79,62,0
1,84,73,0
1,82,59,0
1,81,66,0
1,81,65,0
1,77,50,0
1,81,66,0
1,79,58,0
1,81,67,0
1,82,61,0
1,81,62,0
1,82,66,0
1,81,62,0
1,82,59,0
1,79,66,0
1,82,63,0
1,81,69,0
1,79,66,0
1,81,67,0
1,82,61,0
1,81,66,0
1,79,63,0
1,81,69,0
1,82,63,0
1,81,66,0
1,82,61,0
1,81,57,0
1,82,57,0
1,79,64,0
1,84,65,0
1,82,65,0
1,81,62,0
1,81,75,0
1,81,72,0
1,77,71,0
1,81,71,0
1,86,65,0
1,74,55,0
1,79,56,0
1,81,65,0
1,86,66,0
1,81,60,0
1,79,64,0
1,74,57,0
1,69,66,0
1,67,67,0
1,62,61,0
1,67,61,0
1,69,65,0
1,67,59,0
1,69,56,0
1,70,54,0
1,69,57,0
1,67,60,0
1,72,69,0
1,69,49,0
1,74,72,0
1,70,50,0
1,65,56,0
1,75,64,0
1,72,49,0
1,78,64,0
1,74,67,0
1,69,62,0
1,78,64,0
1,74,63,0
1,79,70,0
1,75,57,0
1,81,66,0
1,77,66,0
1,82,57,0
1,81,57,0
1,82,54,0
1,79,64,0
1,74,61,0
1,79,62,0
1,81,61,0
1,82,57,0
1,81,61,0
1,82,57,0
1,79,56,0
1,74,57,0
1,79,64,0
1,82,62,0
1,81,66,0
1,79,68,0
1,77,61,0
1,72,59,0
1,77,64,0
1,79,65,0
1,81,57,0
1,81,64,0
1,82,55,0
1,79,62,0
1,74,62,0
1,82,62,0
1,81,60,0
1,79,57,0
1,82,59,0
1,81,53,0
1,82,49,0
1,79,57,0
1,74,55,0
1,86,62,0
1,84,64,0
1,82,62,0
1,81,62,0
1,82,57,0
1,79,66,0
1,74,65,0
1,79,61,0
1,82,65,0
1,81,68,0
1,79,60,0
1,77,61,0
1,72,63,0
1,77,62,0
1,79,62,0
1,81,57,0
1,84,73,0
1,82,46,0
1,81,54,0
1,79,58,0
1,81,63,0
1,82,57,0
1,84,69,0
1,82,46,0
1,77,54,0
1,86,59,0
1,82,50,0
1,77,62,0
1,86,57,0
1,77,54,0
1,82,57,0
1,74,55,0
1,77,57,0
1,81,62,0
1,84,54,0
1,82,63,0
1,84,59,0
1,82,45,0
1,77,51,0
1,86,47,0
1,77,52,0
1,82,55,0
1,84,60,0
1,82,42,0
1,77,46,0
1,86,55,0
1,82,57,0
1,86,64,0
1,77,49,0
1,77,54,0
1,86,61,0
1,82,57,0
1,87,55,0
1,77,56,0
1,86,66,0
1,77,50,0
1,81,57,0
1,84,48,0
1,82,59,0
1,81,63,0
1,79,57,0
1,70,49,0
1,74,62,0
1,81,60,0
1,82,57,0
1,84,62,0
1,82,46,0
1,77,54,0
1,86,59,0
1,82,50,0
1,77,62,0
1,86,57,0
1,77,54,0
1,82,57,0
1,74,55,0
1,77,57,0
1,81,62,0
1,84,54,0
1,82,63,0
1,84,59,0
1,82,45,0
1,77,51,0
1,86,47,0
1,77,52,0
1,82,55,0
1,84,60,0
1,82,42,0
1,77,46,0
1,86,55,0
1,82,57,0
1,86,64,0
1,77,49,0
1,77,54,0
1,86,61,0
1,82,57,0
1,87,55,0
1,77,56,0
1,86,66,0
1,81,54,0
1,77,49,0
1,84,54,0
1,82,60,0
1,81,63,0
1,77,62,0
1,74,57,0
1,79,57,0
1,79,63,120
1,81,65,0
1,82,55,0
1,81,56,0
1,82,54,0
1,79,47,0
1,82,62,0
1,81,61,0
1,79,46,0
1,81,61,0
1,82,55,0
1,81,64,0
1,79,59,0
1,81,66,0
1,82,57,0
1,81,66,0
1,82,56,0
1,81,62,0
1,82,62,0
1,79,59,0
1,84,63,0
1,82,57,0
1,81,62,0
1,81,66,0
1,77,62,0
1,81,66,0
1,79,57,0
1,81,65,0
1,82,62,0
1,84,66,0
1,82,50,0
1,77,59,0
1,86,62,0
1,82,59,0
1,77,62,0
1,86,70,0
1,77,62,0
1,82,64,0
1,74,62,0
1,77,61,0
1,81,62,0
1,84,62,0
1,82,67,0
1,84,73,0
1,82,59,0
1,77,61,0
1,86,63,0
1,77,71,0
1,82,60,0
1,84,68,0
1,77,57,0
1,82,51,0
1,86,59,0
1,82,60,0
1,77,55,0
1,86,50,0
1,77,63,0
1,86,64,0
1,82,61,0
1,87,61,0
1,77,65,0
1,86,68,0
1,81,64,0
1,77,55,0
1,84,57,0
1,82,62,0
1,81,62,0
1,79,59,0
1,70,50,0
1,74,64,0
1,79,57,120
1,81,64,0
1,82,55,0
1,81,64,0
1,82,53,0
1,79,62,0
1,82,57,0
1,81,62,0
1,79,65,0
1,81,64,0
1,82,54,0
1,81,66,0
1,79,63,0
1,81,66,0
1,82,60,0
1,81,63,0
1,82,60,0
1,81,65,0
1,82,57,0
1,79,57,0
1,84,64,0
1,82,57,0
1,81,62,0
1,81,63,0
1,77,62,0
1,81,66,0
1,86,61,0
1,74,57,0
1,79,60,0
1,81,64,0
1,86,68,0
1,81,67,0
1,79,65,0
1,86,69,0
1,81,66,0
1,79,64,0
1,74,63,0
1,69,57,0
1,67,64,0
1,62,60,0
1,67,62,0
1,69,63,0
1,74,65,0
1,69,69,0
1,67,67,0
1,62,63,0
1,67,62,0
1,69,62,0
1,70,65,0
1,69,64,0
1,67,57,0
1,72,74,0
1,69,59,0
1,74,73,0
1,70,57,0
1,65,68,0
1,75,65,0
1,72,66,0
1,78,62,0
1,74,60,0
1,69,62,0
1,78,65,0
1,74,66,0
1,79,75,0
1,75,62,0
1,81,72,0
1,77,71,0
1,82,59,0
1,74,62,0
1,74,65,120
1,82,62,0
1,82,57,120
1,74,62,0
1,82,60,120
1,74,66,0
1,81,66,0
1,79,68,0
1,81,66,0
1,72,54,0
1,82,62,120
1,74,64,0
1,72,59,120
1,81,66,0
1,72,59,120
1,81,66,0
1,70,54,0
1,79,71,0
1,70,54,0
1,79,73,0
1,81,66,120
1,72,60,0
1,84,72,120
1,75,56,0
1,82,60,120
1,74,64,0
1,81,66,0
1,72,61,0
1,70,54,0
1,79,74,0
1,72,54,0
1,81,65,0
1,74,59,0
1,82,60,0
1,69,58,120
1,77,58,0
1,70,53,120
1,79,69,0
1,70,50,0
1,79,65,0
1,70,50,120
1,79,65,0
1,81,57,120
1,72,56,0
1,70,48,120
1,79,64,0
1,77,65,0
1,69,54,0
1,67,64,0
1,75,59,0
1,69,55,0
1,77,66,0
1,70,54,0
1,79,66,0
1,77,64,120
1,69,57,0
1,67,65,120
1,75,59,0
1,74,61,0
1,72,54,0
1,74,65,0
1,67,61,0
1,75,60,0
1,77,69,0
1,67,57,0
1,75,57,0
1,74,68,0
1,67,61,0
1,72,62,0
1,74,64,0
1,67,63,0
1,60,60,0
1,62,62,0
1,63,62,0
1,62,62,0
1,62,51,0
1,63,45,0
1,67,66,0
1,74,66,360
1,75,58,0
1,77,72,0
1,75,57,0
1,74,63,0
1,72,60,0
1,69,52,0
1,62,59,0
1,74,55,0
1,74,65,0
1,62,62,0
1,82,62,0
1,74,64,0
1,82,62,0
1,74,68,0
1,81,65,0
1,74,66,0
1,84,72,0
1,74,65,0
1,82,58,0
1,81,66,120
1,72,61,0
1,81,68,120
1,72,61,0
1,82,62,120
1,74,66,0
1,81,64,120
1,72,60,0
1,70,55,0
1,79,72,0
1,79,73,0
1,70,58,0
1,81,65,0
1,72,57,0
1,75,55,120
1,84,66,0
1,82,57,120
1,74,62,0
1,81,54,0
1,79,59,0
1,81,67,0
1,72,60,0
1,82,63,0
1,74,68,0
1,77,69,120
1,69,60,0
1,70,52,120
1,79,65,0
1,79,66,0
1,70,49,0
1,70,55,0
1,79,68,0
1,81,68,120
1,72,61,0
1,79,69,120
1,70,51,0
1,77,64,0
1,69,58,0
1,75,59,0
1,67,66,0
1,77,62,0
1,69,61,0
1,70,53,0
1,79,69,0
1,67,59,120
1,75,55,0
1,67,65,120
1,75,62,0
1,74,65,0
