track,note,velocity,time
1,55,56,381
1,50,69,0
1,47,60,1
1,59,93,0
1,67,72,2
1,67,0,93
1,43,12,0
1,47,0,2
1,50,0,0
1,59,0,1
1,47,66,0
1,50,68,0
1,59,87,1
1,67,86,0
1,50,0,48
1,47,0,0
1,59,0,1
1,55,0,0
1,67,0,0
1,47,63,0
1,50,69,0
1,55,86,1
1,59,89,0
1,67,80,1
1,67,0,47
1,67,43,1
1,47,0,42
1,55,0,1
1,50,0,0
1,67,0,1
1,59,0,0
1,47,46,1
1,50,67,0
1,55,90,1
1,59,90,0
1,67,88,0
1,47,0,93
1,43,0,0
1,43,36,1
1,55,0,1
1,50,0,0
1,47,67,0
1,59,0,1
1,50,69,0
1,55,67,0
1,59,49,1
1,67,0,43
1,47,0,0
1,55,0,1
1,59,0,0
1,47,31,1
1,55,82,1
1,59,87,1
1,67,85,0
1,59,0,89
1,47,0,1
1,67,0,0
1,50,0,1
1,55,0,0
1,47,74,1
1,67,96,1
1,55,87,0
1,59,89,0
1,50,80,1
1,67,0,47
1,59,0,1
1,67,72,0
1,59,83,1
1,43,0,45
1,67,0,3
1,59,0,0
1,43,71,0
1,59,84,1
1,67,56,0
1,67,0,37
1,59,0,4
1,67,86,2
1,59,92,1
1,55,0,1
1,55,76,1
1,47,0,47
1,47,51,1
1,43,0,45
1,55,0,2
1,47,0,0
1,50,0,1
1,43,47,0
1,55,83,0
1,47,75,0
1,59,0,1
1,50,63,0
1,59,67,1
1,59,0,46
1,47,0,0
1,50,0,1
1,47,54,0
1,59,89,0
1,55,0,1
1,50,71,0
1,67,0,1
1,55,68,0
1,67,67,1
1,55,0,87
1,50,0,1
1,67,0,2
1,50,70,1
1,59,0,1
1,55,84,0
1,59,92,1
1,67,80,0
1,67,0,43
1,59,0,4
1,67,79,0
1,55,0,1
1,59,80,0
1,55,73,1
1,47,0,39
1,59,0,4
1,47,56,1
1,50,0,1
1,59,71,0
1,50,51,1
1,67,0,43
1,59,0,3
1,55,0,0
1,67,89,1
1,59,89,0
1,50,0,1
1,55,72,1
1,50,72,0
1,43,0,45
1,47,0,1
1,43,54,0
1,47,59,1
1,47,0,46
1,50,0,1
1,55,0,0
1,55,72,1
1,47,65,0
1,59,0,1
1,50,67,0
1,67,0,1
1,59,79,0
1,67,59,1
1,47,0,44
1,59,0,1
1,67,0,0
1,55,0,1
1,67,80,0
1,59,92,1
1,55,69,0
1,59,0,89
1,55,0,1
1,67,0,1
1,59,91,2
1,67,81,1
1,55,78,0
1,47,52,1
1,67,0,47
1,59,0,1
1,67,89,0
1,55,0,1
1,59,86,0
1,55,54,1
1,47,0,5
1,47,39,42
1,55,0,38
1,59,0,2
1,47,0,0
1,50,0,2
1,67,0,0
1,50,68,2
1,47,47,0
1,55,86,0
1,59,92,1
1,67,62,1
1,55,0,89
1,47,0,1
1,59,0,1
1,50,0,1
1,55,69,0
1,47,59,1
1,50,78,0
1,59,73,2
1,59,0,45
1,50,0,1
1,55,0,1
1,67,0,0
1,59,96,0
1,50,81,0
1,55,74,1
1,67,69,1
1,67,0,93
1,50,0,0
1,59,0,1
1,55,0,0
1,55,86,1
1,50,52,0
1,59,92,0
1,67,51,1
1,67,0,62
1,59,0,6
1,67,66,1
1,59,79,1
1,47,0,23
1,50,0,1
1,47,61,0
1,55,0,1
1,50,76,0
1,59,0,1
1,67,0,0
1,55,90,0
1,59,92,1
1,67,73,0
1,47,0,45
1,59,0,1
1,50,0,0
1,47,52,0
1,67,0,1
1,59,91,0
1,50,69,0
1,67,56,2
1,67,0,45
1,47,0,0
1,50,0,1
1,47,39,0
1,59,0,1
1,55,0,0
1,50,68,0
1,55,93,1
1,59,100,0
1,67,90,0
1,47,0,45
1,43,0,2
1,67,0,7
1,59,0,15
1,64,21,1
1,55,0,2
1,64,0,6
1,50,0,2
1,52,68,15
1,60,94,1
1,64,86,1
1,57,74,1
1,60,0,43
1,52,0,1
1,64,0,0
1,57,0,0
1,57,90,2
1,64,78,1
1,52,73,0
1,60,68,0
1,60,0,45
1,52,0,0
1,64,0,2
1,57,0,0
1,52,81,0
1,57,86,1
1,60,92,0
1,64,75,1
1,57,0,34
1,64,0,8
1,52,0,2
1,60,0,18
1,64,40,3
1,60,63,2
1,55,60,1
1,52,40,1
1,48,33,1
1,48,0,15
1,55,0,2
1,52,0,0
1,48,73,3
1,52,63,0
1,64,0,2
1,55,67,0
1,64,52,1
1,42,12,1
1,64,0,43
1,55,0,1
1,60,0,1
1,55,83,0
1,60,89,1
1,64,47,1
1,42,0,13
1,52,0,31
1,60,0,1
1,48,0,0
1,64,0,0
1,55,0,1
1,48,79,0
1,52,63,0
1,64,80,0
1,55,81,1
1,60,81,1
1,42,21,0
1,42,0,47
1,48,0,4
1,52,0,4
1,60,0,4
1,64,0,6
1,55,0,30
1,43,52,0
1,47,72,1
1,50,69,0
1,55,83,0
1,59,83,1
1,67,75,0
1,59,0,92
1,50,0,0
1,47,0,0
1,67,0,1
1,55,0,1
1,50,76,0
1,47,36,1
1,55,93,0
1,59,93,1
1,67,76,0
1,67,0,64
1,59,0,3
1,67,76,1
1,59,83,1
1,43,0,1
1,47,0,1
1,43,12,0
1,47,53,1
1,47,0,20
1,47,52,4
1,50,0,43
1,55,0,1
1,67,0,1
1,59,0,0
1,67,86,1
1,55,89,0
1,59,93,1
1,50,84,0
1,47,0,87
1,50,0,2
1,47,54,4
1,50,65,0
1,55,0,45
1,59,0,1
1,50,0,1
1,67,0,1
1,50,52,0
1,55,87,1
1,59,74,1
1,67,68,0
1,47,0,80
1,59,0,14
1,50,0,1
1,67,0,0
1,50,62,1
1,47,78,1
1,59,61,0
1,67,60,1
1,67,0,61
1,59,0,3
1,67,78,2
1,59,86,1
1,47,0,2
1,50,0,1
1,47,67,1
1,50,55,0
1,47,0,20
1,55,0,2
1,47,71,0
1,55,86,1
1,55,0,42
1,50,0,1
1,47,0,0
1,59,0,1
1,47,80,1
1,59,87,0
1,50,87,1
1,55,84,0
1,67,0,1
1,67,80,1
1,55,0,90
1,59,0,2
1,67,0,1
1,55,84,0
1,59,88,0
1,67,63,1
1,47,0,46
1,50,0,1
1,55,0,1
1,47,64,0
1,50,76,0
1,59,0,1
1,67,0,0
1,55,90,0
1,59,96,1
1,67,84,0
1,43,0,92
1,47,0,2
1,59,0,1
1,67,0,0
1,43,49,0
1,47,87,0
1,55,0,1
1,50,0,0
1,59,89,0
1,67,83,0
1,55,86,1
1,50,92,0
1,67,0,62
1,59,0,5
1,67,59,1
1,59,74,1
1,47,0,24
1,50,0,0
1,47,80,1
1,55,0,1
1,59,0,0
1,50,71,0
1,67,0,1
1,55,89,0
1,59,96,0
1,67,78,1
1,50,0,44
1,47,0,0
1,47,56,1
1,55,0,1
1,59,0,0
1,50,84,0
1,67,0,1
1,55,90,0
1,59,101,0
1,67,93,1
1,47,0,88
1,50,0,1
1,67,0,1
1,55,0,1
1,59,0,0
1,47,49,0
1,50,80,1
1,55,87,1
1,59,84,1
1,67,61,0
1,43,0,9
1,47,0,3
1,67,0,14
1,59,0,12
1,55,0,2
1,50,0,4
1,45,39,3
1,52,79,1
1,57,84,0
1,60,74,1
1,64,52,1
1,64,0,36
1,45,0,4
1,52,0,2
1,60,0,0
1,57,0,2
1,52,74,0
1,57,65,2
1,60,53,1
1,60,0,45
1,52,0,1
1,52,81,1
1,60,90,0
1,45,46,0
1,64,77,2
1,57,0,45
1,64,0,14
1,60,0,7
1,60,51,1
1,55,40,2
1,45,0,3
1,55,0,18
1,60,0,1
1,52,0,0
1,48,86,1
1,60,76,0
1,52,76,0
1,55,86,2
1,42,43,0
1,64,78,1
1,52,0,44
1,52,81,1
1,55,0,1
1,60,0,1
1,64,0,0
1,55,86,0
1,60,95,1
1,64,71,0
1,42,0,30
1,52,0,16
1,55,0,1
1,60,0,0
1,52,64,0
1,64,0,1
1,55,92,0
1,60,102,0
1,64,95,1
1,48,0,43
1,55,0,1
1,52,0,1
1,60,0,3
1,55,61,0
1,64,0,36
1,43,12,8
1,47,61,1
1,55,0,1
1,59,90,0
1,55,80,1
1,67,80,0
1,50,48,1
1,50,0,91
1,47,0,2
1,55,0,1
1,67,0,0
1,59,0,0
1,47,66,0
1,50,76,0
1,55,93,1
1,59,96,0
1,67,74,1
1,67,0,59
1,59,0,6
1,67,62,2
1,59,77,1
1,50,0,25
1,55,0,2
1,59,0,0
1,50,61,0
1,55,74,1
1,59,73,0
1,50,0,44
1,55,0,1
1,47,0,0
1,59,0,0
1,50,80,1
1,47,58,0
1,67,0,1
1,55,90,0
1,59,98,0
1,67,80,1
1,47,0,88
1,50,0,2
1,55,0,1
1,59,0,0
1,47,73,0
1,50,79,1
1,67,0,1
1,55,76,0
1,59,87,1
1,67,68,0
1,50,0,45
1,59,0,2
1,55,0,0
1,50,59,0
1,67,0,1
1,55,88,0
1,59,93,0
1,67,72,1
1,67,0,89
1,47,0,1
1,50,0,1
1,55,0,1
1,59,0,0
1,47,60,0
1,50,74,1
1,55,93,0
1,59,93,1
1,67,80,1
1,67,0,66
1,67,79,3
1,47,0,24
1,59,0,1
1,50,0,0
1,47,73,0
1,55,0,1
1,59,78,0
1,50,80,0
1,55,81,1
1,55,0,42
1,59,0,2
1,47,0,0
1,50,0,0
1,55,82,1
1,47,52,1
1,59,80,0
1,67,0,1
1,50,80,0
1,67,69,1
1,43,0,89
1,50,0,3
1,47,0,0
1,43,54,0
1,47,76,1
1,55,0,1
1,50,76,0
1,55,67,1
1,59,0,46
1,47,0,0
1,50,0,1
1,67,0,0
1,47,62,0
1,59,81,0
1,55,0,1
1,50,79,0
1,67,80,0
1,55,83,1
1,50,0,95
1,59,0,0
1,47,0,0
1,47,66,1
1,59,87,0
1,50,72,0
1,55,0,1
1,67,0,0
1,55,88,1
1,67,69,0
1,67,0,61
1,59,0,6
1,67,74,0
1,59,78,1
1,50,0,3
1,50,73,1
1,50,0,19
1,47,0,0
1,55,0,2
1,47,56,0
1,59,0,1
1,50,69,0
1,55,67,1
1,59,90,0
1,50,0,44
1,55,0,2
1,67,0,1
1,59,0,0
1,50,72,0
1,55,84,0
1,59,96,1
1,67,76,0
1,47,0,28
1,67,0,35
1,59,0,3
1,67,36,1
1,59,56,2
1,55,0,21
1,50,0,2
1,47,44,0
1,50,74,1
1,59,0,1
1,55,86,0
1,67,0,1
1,59,90,0
1,67,44,1
1,47,0,44
1,50,0,1
1,67,0,0
1,47,49,0
1,59,0,1
1,55,0,0
1,50,74,0
1,55,82,1
1,59,87,1
1,67,52,0
1,59,0,95
1,55,0,0
1,47,0,0
1,50,0,1
1,67,0,0
1,47,69,0
1,59,86,0
1,67,74,1
1,55,83,0
1,50,69,0
1,67,0,62
1,59,0,3
1,67,63,3
1,50,0,1
1,59,73,0
1,50,65,2
1,47,0,21
1,43,0,0
1,55,0,1
1,50,0,0
1,43,64,0
1,47,86,1
1,59,0,1
1,50,80,0
1,55,80,0
1,59,79,1
1,43,0,42
1,47,0,3
1,43,39,0
1,50,0,1
1,47,68,0
1,50,66,1
1,67,0,1
1,67,67,1
1,47,0,88
1,59,0,0
1,50,0,0
1,55,0,2
1,47,48,1
1,59,68,0
1,67,0,1
1,50,71,0
1,55,81,1
1,67,48,1
1,43,0,7
1,47,0,1
1,50,0,31
1,59,0,5
1,67,0,2
1,55,0,0
1,60,92,1
1,67,54,0
1,55,78,0
1,52,74,1
1,55,0,47
1,55,53,1
1,67,0,38
1,52,0,7
1,60,0,1
1,55,0,0
1,60,85,1
1,52,71,0
1,55,86,1
1,67,71,1
1,67,0,61
1,60,0,6
1,60,74,1
1,67,58,1
1,52,0,22
1,52,64,2
1,67,0,1
1,60,0,0
1,60,87,1
1,67,78,0
1,48,47,2
1,48,0,40
1,60,0,3
1,55,0,0
1,52,0,1
1,48,67,0
1,60,90,1
1,52,74,0
1,67,0,1
1,55,77,0
1,67,73,1
1,48,0,91
1,55,0,1
1,52,0,1
1,52,60,1
1,48,61,1
1,60,0,1
1,67,0,45
1,67,66,2
1,55,76,0
1,60,78,1
1,48,0,90
1,52,0,2
1,60,0,0
1,48,73,1
1,67,0,1
1,55,0,0
1,52,76,0
1,55,90,1
1,60,83,1
1,67,54,0
1,67,0,62
1,60,0,2
1,67,74,3
1,55,0,1
1,60,87,0
1,52,0,1
1,55,73,1
1,52,63,1
1,52,0,66
1,48,0,0
1,48,60,2
1,60,0,1
1,55,0,0
1,52,74,0
1,55,90,1
1,67,0,1
1,60,98,0
1,67,60,1
1,52,0,90
1,67,0,1
1,55,0,1
1,52,59,0
1,60,0,1
1,55,84,0
1,60,95,1
1,67,56,1
1,48,0,15
1,52,0,6
1,60,0,10
1,47,26,14
1,55,0,1
1,59,79,0
1,67,0,1
1,55,75,0
1,67,73,2
1,50,49,0
1,55,0,43
1,50,0,51
1,67,0,1
1,59,0,1
1,50,62,0
1,67,63,0
1,55,84,0
1,59,97,1
1,67,0,63
1,59,0,1
1,67,71,3
1,59,81,1
1,47,0,4
1,47,23,1
1,47,0,15
1,59,0,3
1,50,0,0
1,43,26,1
1,47,59,0
1,59,81,0
1,50,61,1
1,67,0,1
1,67,73,1
1,55,0,42
1,47,0,3
1,67,0,1
1,59,0,1
1,47,31,0
1,55,77,0
1,59,91,1
1,67,51,0
1,67,0,90
1,55,0,0
1,59,0,2
1,55,73,1
1,59,87,1
1,43,0,1
1,67,51,0
1,50,0,5
1,47,0,0
1,67,0,6
1,55,0,27
1,59,0,3
1,57,78,6
1,62,94,1
1,66,88,1
1,62,0,90
1,66,0,2
1,57,0,0
1,62,92,1
1,50,46,0
1,57,80,0
1,66,72,2
1,66,0,66
1,62,0,3
1,66,88,0
1,62,90,1
1,57,0,1
1,57,59,1
1,45,26,3
1,57,0,21
1,50,0,0
1,62,0,0
1,50,54,1
1,57,73,0
1,62,86,0
1,62,0,45
1,57,0,1
1,66,0,2
1,57,82,0
1,62,96,0
1,66,81,1
1,45,0,82
1,50,0,6
1,66,0,0
1,57,0,1
1,62,0,1
1,50,63,1
1,57,85,1
1,62,88,1
1,66,47,1
1,66,0,15
1,62,0,3
1,57,0,3
1,43,26,22
1,50,0,2
1,55,76,3
1,59,83,0
1,67,34,2
1,67,0,89
1,47,31,2
1,59,0,1
1,55,0,0
1,50,61,0
1,55,90,1
1,59,96,1
1,67,87,0
1,67,0,64
1,59,0,4
1,67,80,1
1,59,81,1
1,55,0,1
1,59,0,24
1,55,74,0
1,67,0,1
1,59,93,0
1,67,75,1
1,47,0,17
1,47,12,2
1,47,0,26
1,67,0,0
1,50,0,1
1,47,61,0
1,59,0,1
1,55,0,0
1,50,78,0
1,55,89,1
1,59,99,0
1,67,81,1
1,47,0,88
1,59,0,1
1,67,0,0
1,50,0,1
1,55,0,0
1,47,44,1
1,59,87,0
1,50,68,1
1,55,81,1
1,67,66,1
1,47,0,19
1,43,0,2
1,55,0,20
1,67,0,0
1,59,0,1
1,62,70,4
1,57,63,1
1,62,0,46
1,50,0,0
1,57,0,1
1,50,46,0
1,62,87,0
1,57,71,1
1,66,73,2
1,66,0,45
1,50,0,0
1,62,0,0
1,57,0,1
1,50,59,0
1,57,77,1
1,62,90,1
1,66,63,1
1,66,0,45
1,50,0,0
1,62,0,1
1,57,0,0
1,50,58,0
1,57,78,1
1,62,92,0
1,66,59,1
1,66,0,40
1,50,0,7
1,57,0,0
1,62,0,0
1,45,54,0
1,50,62,1
1,57,78,0
1,62,74,0
1,66,55,2
1,66,0,42
1,57,0,2
1,62,0,0
1,57,85,1
1,62,90,1
1,66,60,1
1,66,0,43
1,62,0,1
1,57,0,1
1,50,0,0
1,62,82,1
1,50,44,0
1,57,79,0
1,66,59,2
1,66,0,45
1,50,0,0
1,62,0,0
1,57,0,1
1,50,69,0
1,62,93,0
1,66,69,1
1,57,62,0
1,62,0,35
1,57,0,1
1,66,0,1
1,45,0,3
1,50,0,3
1,59,96,1
1,50,81,0
