track,note,velocity,time
4,58,111,576
4,62,111,0
4,65,111,0
4,69,111,0
4,70,111,384
4,67,111,0
4,63,111,0
4,65,111,372
4,69,111,0
4,72,111,0
4,75,111,0
4,62,111,380
4,58,111,0
4,69,111,0
4,63,111,4
4,67,111,0
4,70,111,0
4,65,111,0
4,69,111,0
4,72,111,0
4,75,111,0
4,62,111,384
4,58,111,0
4,69,111,0
4,70,111,384
4,67,111,0
4,63,111,0
4,65,111,372
4,69,111,0
4,72,111,0
4,75,111,0
4,58,111,0
4,62,111,0
4,69,111,0
4,70,111,4
4,67,111,0
4,63,111,0
4,65,111,0
4,69,111,0
4,72,111,0
4,75,111,0
4,62,111,380
4,58,111,0
4,69,111,372
4,63,111,380
4,67,111,0
4,70,111,0
4,65,111,0
4,69,111,0
4,72,111,0
4,75,111,0
4,62,111,380
4,58,111,0
4,69,111,0
4,63,111,384
4,67,111,0
4,70,111,0
4,65,111,0
4,69,111,0
4,72,111,0
4,75,111,0
4,62,111,384
4,58,111,0
4,69,111,0
4,70,111,384
4,67,111,0
4,63,111,0
4,65,111,372
4,69,111,0
4,72,111,0
4,75,111,0
4,62,111,380
4,58,111,0
4,69,111,0
4,63,111,4
4,67,111,0
4,70,111,0
4,65,111,380
4,69,111,0
4,72,111,0
4,75,111,0
4,58,111,0
4,62,111,0
4,69,111,0
4,63,111,0
4,67,111,0
4,70,111,0
4,65,111,372
4,69,111,0
4,72,111,0
4,75,111,0
4,62,111,380
4,58,111,0
4,69,111,380
4,67,111,0
4,70,111,0
4,74,111,0
4,69,111,768
4,65,111,0
4,62,111,0
4,70,111,756
4,67,111,0
4,63,111,0
4,62,111,756
4,53,111,0
4,58,111,0
4,62,111,0
4,63,111,52
4,62,111,0
4,63,111,44
4,65,111,4
4,58,111,0
4,62,111,0
4,63,111,0
4,62,111,0
4,60,111,44
4,58,111,0
4,62,111,0
4,53,111,4
4,57,111,0
4,46,111,0
4,55,111,0
4,55,111,0
4,58,111,0
4,43,111,0
4,50,111,0
4,60,111,184
4,62,111,0
4,60,111,100
4,43,111,0
4,51,111,0
4,55,111,0
4,57,111,92
4,58,111,0
4,43,111,0
4,51,111,0
4,57,111,88
4,55,111,0
4,53,111,192
4,45,111,0
4,48,111,0
4,62,111,0
4,65,111,0
4,69,111,379
4,63,111,0
4,67,111,0
4,70,111,0
4,65,111,380
4,69,111,0
4,72,111,0
4,75,111,0
4,62,111,0
4,58,111,0
4,69,111,380
4,63,111,4
4,67,111,0
4,70,111,0
4,65,111,380
4,69,111,0
4,72,111,0
4,75,111,0
4,62,111,0
4,58,111,0
4,69,111,380
4,63,111,4
4,67,111,0
4,70,111,0
4,65,111,0
4,69,111,0
4,72,111,0
4,75,111,0
4,62,111,0
4,58,111,0
4,74,111,0
4,67,111,4
4,70,111,0
4,69,111,0
4,65,111,0
4,62,111,0
4,63,111,756
4,67,111,0
4,70,111,0
4,62,111,0
4,53,111,0
4,62,111,0
4,63,111,44
4,62,111,0
4,63,111,48
4,65,111,4
4,58,111,0
4,62,111,0
4,63,111,184
4,62,111,0
4,60,111,48
4,58,111,0
4,62,111,0
4,53,111,4
4,57,111,0
4,62,111,0
4,46,111,0
4,55,111,187
4,58,111,0
4,43,111,0
4,50,111,0
4,60,111,184
4,62,111,0
4,60,111,100
4,43,111,0
4,51,111,0
4,55,111,0
4,57,111,92
4,58,111,0
4,43,111,0
4,51,111,0
4,57,111,88
4,55,111,0
4,45,111,0
4,48,111,0
4,53,111,0
4,62,111,0
4,65,111,0
4,69,111,379
4,63,111,384
4,67,111,0
4,70,111,0
4,65,111,0
4,69,111,0
4,72,111,0
4,75,111,0
4,69,111,372
4,70,111,384
4,67,111,0
4,63,111,0
4,65,111,380
4,69,111,0
4,72,111,0
4,75,111,0
4,62,111,0
4,58,111,0
4,69,111,380
4,63,111,4
4,67,111,0
4,70,111,0
4,65,111,0
4,69,111,0
4,72,111,0
4,75,111,0
4,74,111,0
4,62,111,0
4,63,111,40
4,62,111,0
4,53,111,4
4,57,111,0
4,65,111,184
4,67,111,16
4,65,111,64
4,60,111,0
4,63,111,0
4,57,111,0
4,60,111,0
4,65,111,0
4,58,111,0
4,62,111,0
4,65,111,0
4,69,111,380
4,63,111,384
4,67,111,0
4,70,111,0
4,65,111,0
4,69,111,0
4,72,111,0
4,75,111,0
4,69,111,372
4,63,111,0
4,67,111,0
4,70,111,0
4,69,111,380
4,72,111,0
4,75,111,0
4,65,111,0
4,77,111,380
6,41,127,384
6,39,127,48
6,38,127,0
6,36,127,0
6,34,127,0
6,34,127,52
6,38,127,8
6,38,127,48
6,39,127,12
6,39,127,52
6,41,127,8
6,41,127,48
6,34,127,12
6,34,127,48
6,38,127,8
6,38,127,48
6,39,127,12
6,39,127,52
6,41,127,12
6,41,127,20
6,39,127,0
6,38,127,48
6,36,127,0
6,34,127,0
6,34,127,48
6,38,127,8
6,38,127,52
6,39,127,12
6,39,127,48
6,41,127,8
6,41,127,48
6,34,127,12
6,34,127,48
6,38,127,8
6,38,127,48
6,39,127,12
6,39,127,48
6,41,127,12
6,41,127,16
6,39,127,0
6,38,127,0
6,36,127,44
6,34,127,0
6,34,127,48
6,38,127,12
6,38,127,52
6,39,127,12
6,39,127,48
6,41,127,12
6,41,127,48
6,34,127,12
6,34,127,48
6,38,127,8
6,38,127,52
6,39,127,12
6,39,127,52
6,41,127,12
6,41,127,16
6,39,127,0
6,38,127,0
6,36,127,0
6,34,127,0
6,34,127,52
6,38,127,8
6,38,127,52
6,39,127,12
6,39,127,52
6,41,127,8
6,41,127,48
6,34,127,12
6,34,127,48
6,38,127,8
6,38,127,48
6,39,127,12
6,39,127,48
6,41,127,8
6,41,127,20
6,39,127,0
6,38,127,0
6,36,127,0
6,34,127,0
6,34,127,48
6,38,127,8
6,38,127,52
6,39,127,12
6,39,127,48
6,41,127,8
6,41,127,48
6,34,127,12
6,34,127,52
6,38,127,12
6,38,127,48
6,43,127,12
6,43,127,52
6,43,127,8
6,38,127,28
6,38,127,52
6,38,127,8
6,39,127,28
6,39,127,56
6,39,127,8
6,34,127,28
6,34,127,48
6,34,127,8
6,38,127,28
6,38,127,48
6,38,127,8
6,43,127,28
6,43,127,52
6,43,127,8
6,36,127,28
6,36,127,48
6,36,127,12
6,41,127,28
6,41,127,16
6,39,127,48
6,38,127,0
6,36,127,48
6,34,127,0
6,34,127,52
6,38,127,12
6,38,127,48
6,39,127,12
6,39,127,48
6,41,127,8
6,41,127,48
6,34,127,12
6,34,127,52
6,38,127,8
6,38,127,48
6,39,127,12
6,39,127,52
6,41,127,8
6,41,127,16
6,39,127,0
6,38,127,0
6,36,127,48
6,34,127,0
6,34,127,48
6,38,127,8
6,38,127,48
6,39,127,12
6,39,127,52
6,41,127,12
6,41,127,48
6,34,127,12
6,34,127,52
6,34,127,8
6,34,127,48
6,43,127,12
6,43,127,48
6,43,127,12
6,38,127,28
6,38,127,52
6,38,127,8
6,39,127,28
6,39,127,48
6,39,127,8
6,34,127,28
6,34,127,48
6,34,127,8
6,38,127,28
6,38,127,52
6,38,127,8
6,43,127,28
6,43,127,48
6,43,127,8
6,36,127,28
6,36,127,48
6,36,127,8
6,41,127,28
6,41,127,16
6,39,127,48
6,38,127,0
6,36,127,0
6,34,127,0
6,34,127,52
6,38,127,8
6,38,127,52
6,39,127,12
6,39,127,52
6,41,127,12
6,41,127,48
6,34,127,12
6,34,127,48
6,38,127,8
6,38,127,48
6,39,127,12
6,39,127,48
6,41,127,8
6,41,127,16
6,39,127,48
6,38,127,0
6,36,127,48
6,34,127,0
6,34,127,52
6,38,127,8
6,38,127,52
6,39,127,12
6,39,127,48
6,41,127,12
6,41,127,52
6,34,127,12
6,34,127,48
6,38,127,12
6,38,127,48
6,39,127,12
6,39,127,48
6,41,127,12
6,41,127,52
6,34,127,12
6,34,127,48
6,38,127,8
6,38,127,52
6,39,127,12
6,39,127,52
6,41,127,12
6,41,127,48
6,34,127,12
6,34,127,48
6,38,127,12
6,38,127,52
6,39,127,12
6,39,127,48
6,41,127,8
6,41,127,16
6,39,127,0
6,38,127,0
6,36,127,0
6,34,111,0
7,77,111,768
7,70,111,4
7,74,111,0
7,62,111,336
7,65,111,0
7,69,111,0
7,70,111,332
7,63,111,4
7,67,111,0
7,65,111,336
7,69,111,0
7,72,111,0
7,75,111,0
7,77,111,332
7,70,111,4
7,74,111,0
7,62,111,336
7,65,111,0
7,69,111,0
7,63,111,336
7,67,111,0
7,70,111,0
7,65,111,336
7,69,111,0
7,72,111,0
7,75,111,0
7,77,111,332
7,70,111,4
7,74,111,0
7,69,111,332
7,62,111,4
7,65,111,0
7,70,111,332
7,63,111,4
7,67,111,0
7,75,111,332
7,65,111,4
7,69,111,0
7,72,111,0
7,77,111,332
7,70,111,4
7,74,111,0
7,69,111,332
7,62,111,4
7,65,111,0
7,63,111,336
7,67,111,0
7,70,111,0
7,65,111,336
7,69,111,0
7,72,111,0
7,75,111,0
7,70,111,336
7,74,111,0
7,77,111,0
7,62,111,336
7,65,111,0
7,69,111,0
7,70,111,332
7,63,111,4
7,67,111,0
7,75,111,332
7,65,111,4
7,69,111,0
7,72,111,0
7,77,111,332
7,70,111,4
7,74,111,0
7,62,111,336
7,65,111,0
7,69,111,0
7,63,111,336
7,67,111,0
7,70,111,0
7,65,111,336
7,69,111,0
7,72,111,0
7,75,111,0
7,70,111,336
7,74,111,0
7,77,111,0
7,69,111,332
7,62,111,4
7,65,111,0
7,70,111,332
7,63,111,4
7,67,111,0
7,75,111,332
7,65,111,4
7,69,111,0
7,72,111,0
7,77,111,332
7,70,111,4
7,74,111,0
7,65,111,332
7,69,111,0
7,62,111,4
7,70,111,332
7,63,111,4
7,67,111,0
7,65,111,336
7,69,111,0
7,72,111,0
7,75,111,0
7,70,111,336
7,74,111,0
7,77,111,0
7,69,111,332
7,62,111,4
7,65,111,0
7,70,111,332
7,63,111,4
7,67,111,0
7,65,111,336
7,69,111,0
7,72,111,0
7,75,111,0
7,77,111,332
7,70,111,4
7,74,111,0
7,62,111,336
7,65,111,0
7,69,111,0
7,74,111,332
7,67,111,4
7,70,111,0
7,67,111,336
7,70,111,0
7,74,111,0
7,69,111,332
7,62,111,4
7,65,111,0
7,62,111,336
7,65,111,0
7,69,111,0
7,70,111,332
7,63,111,4
7,67,111,0
7,70,111,336
7,63,111,4
7,67,111,0
7,70,111,340
7,74,111,0
7,77,111,0
7,70,111,336
7,74,111,0
7,77,111,0
7,69,111,332
7,62,111,4
7,65,111,0
7,69,111,332
7,62,111,4
7,65,111,0
7,67,111,152
7,70,111,0
7,74,111,0
7,70,111,24
7,74,111,0
7,77,111,0
7,67,111,4
7,60,111,212
7,63,111,0
7,67,111,0
7,60,111,336
7,63,111,0
7,67,111,0
7,75,111,144
7,65,111,4
7,69,111,0
7,72,111,0
7,74,111,192
7,77,111,0
7,70,111,4
7,62,111,336
7,65,111,0
7,69,111,0
7,70,111,332
7,63,111,4
7,67,111,0
7,75,111,332
7,65,111,4
7,69,111,0
7,72,111,0
7,74,111,332
7,77,111,0
7,70,111,4
7,69,111,332
7,62,111,4
7,65,111,0
7,70,111,332
7,63,111,4
7,67,111,0
7,65,111,336
7,69,111,0
7,72,111,0
7,75,111,0
7,77,111,332
7,70,111,4
7,74,111,0
7,69,111,332
7,62,111,4
7,65,111,0
7,70,111,332
7,63,111,4
7,67,111,0
7,75,111,332
7,65,111,4
7,69,111,0
7,72,111,0
7,70,111,148
7,74,111,0
7,77,111,0
7,67,111,196
7,70,111,0
7,74,111,0
7,74,111,332
7,67,111,4
7,70,111,0
7,69,111,332
7,62,111,4
7,65,111,0
7,69,111,332
7,62,111,4
7,65,111,0
7,63,111,340
7,67,111,0
7,70,111,0
7,63,111,336
7,67,111,0
7,70,111,0
7,70,111,340
7,74,111,0
7,77,111,0
7,70,111,336
7,74,111,0
7,77,111,0
7,69,111,332
7,62,111,4
7,65,111,0
7,62,111,336
7,65,111,0
7,69,111,0
7,67,111,148
7,70,111,0
7,74,111,0
7,70,111,24
7,74,111,0
7,77,111,0
7,67,111,4
7,60,111,212
7,63,111,0
7,67,111,0
7,60,111,336
7,63,111,0
7,67,111,0
7,65,111,152
7,69,111,0
7,72,111,0
7,75,111,0
7,70,111,196
7,74,111,0
7,77,111,0
7,69,111,332
7,62,111,4
7,65,111,0
7,63,111,336
7,67,111,0
7,70,111,0
7,75,111,332
7,65,111,4
7,69,111,0
7,72,111,0
7,77,111,332
7,70,111,4
7,74,111,0
7,69,111,332
7,62,111,4
7,65,111,0
7,63,111,336
7,67,111,0
7,70,111,0
7,65,111,336
7,69,111,0
7,72,111,0
7,75,111,0
7,77,111,332
7,70,111,4
7,74,111,0
7,62,111,336
7,65,111,0
7,69,111,0
7,70,111,332
7,63,111,4
7,67,111,0
7,75,111,332
7,65,111,4
7,69,111,0
7,72,111,0
7,77,111,332
7,70,111,4
7,74,111,0
7,62,111,336
7,65,111,0
7,69,111,0
7,70,111,332
7,63,111,4
7,67,111,0
7,75,111,332
7,65,111,4
7,69,111,0
7,72,111,0
7,70,111,336
7,74,111,0
7,77,111,0
7,62,111,336
7,65,111,0
7,69,111,0
7,63,111,336
7,67,111,0
7,70,111,0
7,75,111,332
7,65,111,4
7,69,111,0
7,72,111,0
7,74,111,332
7,77,111,0
7,70,111,4
7,69,111,332
7,62,111,4
7,65,111,0
7,70,111,332
7,63,111,4
7,67,111,0
7,75,111,332
7,65,111,4
7,69,111,0
7,72,111,0
7,65,111,140
7,70,111,8
8,70,95,576
8,74,95,0
8,77,95,0
8,81,95,0
8,82,95,384
8,79,95,0
8,75,95,0
8,77,95,372
8,81,95,0
8,84,95,0
8,87,95,0
8,74,95,380
8,70,95,0
8,81,95,0
8,75,95,4
8,79,95,0
8,82,95,0
8,77,95,0
8,81,95,0
8,84,95,0
8,87,95,0
8,74,95,384
8,70,95,0
8,81,95,0
8,82,95,384
8,79,95,0
8,75,95,0
8,77,95,372
8,81,95,0
8,84,95,0
8,87,95,0
8,70,95,0
8,74,95,0
8,81,95,0
8,82,95,4
8,79,95,0
8,75,95,0
8,77,95,0
8,81,95,0
8,84,95,0
8,87,95,0
8,74,95,380
8,70,95,0
8,81,95,372
8,75,95,380
8,79,95,0
8,82,95,0
8,77,95,0
8,81,95,0
8,84,95,0
8,87,95,0
8,74,95,380
8,70,95,0
8,81,95,0
8,75,95,384
8,79,95,0
8,82,95,0
8,77,95,0
8,81,95,0
8,84,95,0
8,87,95,0
8,74,95,384
8,70,95,0
8,81,95,0
8,82,95,384
8,79,95,0
8,75,95,0
8,77,95,372
8,81,95,0
8,84,95,0
8,87,95,0
8,74,95,380
8,70,95,0
8,81,95,0
8,75,95,4
8,79,95,0
8,82,95,0
8,77,95,380
8,81,95,0
8,84,95,0
8,87,95,0
8,70,95,0
8,74,95,0
8,81,95,0
8,75,95,0
8,79,95,0
8,82,95,0
8,77,95,372
8,81,95,0
8,84,95,0
8,87,95,0
8,74,95,380
8,70,95,0
8,81,95,380
8,79,111,0
8,82,111,0
8,86,111,0
8,81,111,768
8,77,111,0
8,74,111,0
8,82,111,756
8,79,111,0
8,75,111,0
8,74,111,756
8,65,111,0
8,70,111,0
8,74,111,0
8,75,111,52
8,74,111,0
8,75,111,44
8,77,111,4
8,70,111,0
8,74,111,0
8,75,111,0
8,74,111,0
8,72,111,44
8,70,111,0
8,74,111,0
8,65,111,4
8,69,111,0
8,58,111,0
8,67,111,0
8,67,111,0
8,70,111,0
8,55,111,0
8,62,111,0
8,72,111,184
8,74,111,0
8,72,111,100
8,55,111,0
8,63,111,0
8,67,111,0
8,69,111,92
8,70,111,0
8,55,111,0
8,63,111,0
8,69,111,88
8,67,111,0
8,65,111,192
8,57,111,0
8,60,111,0
8,74,95,0
8,77,95,0
8,81,95,379
8,75,95,0
8,79,95,0
8,82,95,0
8,77,95,380
8,81,95,0
8,84,95,0
