track,note,velocity,time
0,50,70,469
0,50,68,5
0,52,72,1
0,48,81,0
0,47,84,0
0,54,67,2
0,45,79,0
0,43,70,0
0,55,77,1
0,55,67,1
0,62,102,0
0,74,102,0
0,59,81,0
0,59,80,0
0,62,79,1
0,67,62,1
0,62,84,1
0,59,64,0
0,59,87,0
0,71,87,0
0,62,76,0
0,67,72,1
0,60,91,29
0,72,91,0
0,59,70,0
0,55,62,0
0,38,85,0
0,62,80,0
0,62,99,0
0,74,99,0
0,35,76,0
0,59,73,0
0,59,86,0
0,71,86,0
0,59,51,0
0,62,81,45
0,62,59,0
0,66,79,0
0,71,64,0
0,66,71,1
0,62,77,0
0,66,86,0
0,71,78,1
0,62,86,1
0,59,54,1
0,35,73,0
0,66,85,0
0,59,61,0
0,57,83,0
0,69,83,0
0,60,71,2
0,60,57,0
0,36,82,0
0,60,90,2
0,72,90,0
0,64,62,2
0,64,84,0
0,67,81,1
0,72,68,2
0,67,56,1
0,64,83,0
0,64,79,0
0,67,90,0
0,59,86,0
0,71,86,0
0,60,50,1
0,36,75,0
0,72,70,0
0,57,84,23
0,69,84,0
0,50,71,5
0,50,40,0
0,38,87,0
0,72,78,1
0,57,80,24
0,69,44,1
0,60,80,1
0,66,74,0
0,66,70,21
0,72,68,1
0,57,85,0
0,60,67,0
0,50,82,1
0,48,73,0
0,69,70,1
0,57,82,0
0,47,78,0
0,60,82,0
0,45,80,0
0,55,77,5
0,43,74,0
0,62,100,0
0,74,100,0
0,55,45,1
0,59,35,0
0,59,80,1
0,36,63,0
0,62,79,1
0,67,62,1
0,67,69,21
0,62,70,1
0,59,64,0
0,59,82,0
0,71,82,0
0,62,76,0
0,51,74,0
0,67,72,1
0,59,59,3
0,60,95,8
0,72,95,0
0,59,70,0
0,38,90,0
0,62,80,0
0,55,57,3
0,62,88,14
0,74,88,0
0,35,80,0
0,59,73,0
0,59,52,1
0,59,88,0
0,71,88,0
0,62,81,42
0,62,70,0
0,66,79,1
0,71,64,0
0,66,68,1
0,62,77,0
0,66,86,0
0,71,78,1
0,62,86,0
0,59,38,1
0,57,80,0
0,69,80,0
0,35,77,1
0,66,85,0
0,59,61,0
0,60,71,2
0,60,87,0
0,72,87,0
0,60,47,0
0,36,82,0
0,36,70,0
0,64,84,42
0,64,62,1
0,67,81,0
0,51,56,0
0,72,68,2
0,67,64,1
0,64,83,0
0,51,64,2
0,64,79,0
0,67,90,0
0,59,93,0
0,71,93,0
0,60,50,1
0,36,84,0
0,72,70,0
0,57,88,24
0,69,88,0
0,50,71,5
0,50,44,0
0,38,85,0
0,72,72,1
0,69,40,25
0,57,80,0
0,60,80,2
0,66,74,0
0,66,79,21
0,72,61,5
0,50,78,1
0,57,85,0
0,60,67,0
0,69,70,3
0,48,69,0
0,47,76,0
0,57,82,0
0,66,70,1
0,60,82,0
0,45,79,0
0,43,79,0
0,36,72,0
0,55,77,0
0,55,62,0
0,74,94,0
0,59,73,0
0,59,80,0
0,62,79,1
0,67,62,1
0,67,71,21
0,59,64,0
0,71,84,0
0,51,64,0
0,62,76,0
0,62,61,1
0,67,72,0
0,72,94,0
0,59,70,0
0,55,47,1
0,62,80,0
0,38,79,0
0,74,98,0
0,59,52,1
0,35,82,0
0,59,73,0
0,51,67,0
0,71,86,0
0,62,70,1
0,62,81,1
0,66,79,2
0,71,64,0
0,66,69,22
0,62,77,0
0,62,68,1
0,66,86,0
0,71,78,1
0,59,33,4
0,62,86,0
0,66,62,1
0,35,76,0
0,66,85,0
0,59,61,0
0,60,71,0
0,60,40,1
0,36,85,0
0,51,67,1
0,64,49,3
0,64,84,1
0,67,81,1
0,69,88,0
0,36,69,0
0,72,68,2
0,67,70,20
0,64,64,1
0,64,83,0
0,69,81,1
0,51,64,2
0,60,32,20
0,69,81,6
0,67,69,1
0,64,79,0
0,67,90,0
0,37,73,0
0,72,70,0
0,71,88,0
0,72,91,0
0,50,37,1
0,38,70,0
0,50,71,0
0,72,63,2
0,69,49,24
0,57,80,1
0,60,80,2
0,66,74,0
0,66,70,20
0,72,62,6
0,57,85,1
0,60,67,0
0,51,67,2
0,69,68,5
0,40,80,0
0,66,57,4
0,74,88,0
0,42,80,0
0,57,82,0
0,60,82,1
0,36,67,0
0,72,62,2
0,43,76,0
0,55,77,0
0,55,62,0
0,51,61,0
0,71,78,0
0,36,62,1
0,59,73,0
0,59,80,0
0,62,79,1
0,67,62,1
0,67,71,21
0,74,90,0
0,59,64,0
0,51,67,0
0,62,76,0
0,62,61,1
0,67,72,0
0,59,70,0
0,55,47,1
0,38,82,0
0,62,80,0
0,59,52,1
0,35,84,0
0,59,73,0
0,62,70,1
0,62,81,1
0,66,79,2
0,71,64,0
0,66,69,22
0,62,77,0
0,62,68,1
0,66,86,0
0,51,75,0
0,71,78,1
0,59,33,4
0,62,86,0
0,66,62,1
0,66,85,0
0,59,61,0
0,36,63,0
0,60,71,0
0,60,40,1
0,36,82,0
0,51,75,0
0,64,49,3
0,64,84,1
0,67,81,1
0,36,62,0
0,72,68,2
0,67,70,20
0,64,64,1
0,64,83,0
0,51,66,2
0,60,32,21
0,67,69,1
0,64,79,0
0,67,90,0
0,67,87,0
0,37,76,1
0,72,70,0
0,66,87,0
0,50,37,1
0,38,81,0
0,50,71,0
0,40,74,0
0,51,67,0
0,72,63,2
0,69,49,24
0,57,80,1
0,60,80,2
0,66,74,0
0,66,70,20
0,72,62,6
0,57,85,1
0,60,67,0
0,40,69,0
0,38,77,1
0,51,82,0
0,67,80,2
0,69,68,1
0,40,88,0
0,69,93,0
0,66,57,1
0,57,82,0
0,36,70,0
0,60,82,1
0,42,75,0
0,72,62,2
0,62,80,0
0,43,88,1
0,36,79,0
0,40,38,0
0,42,75,0
0,55,77,0
0,55,62,0
0,40,33,29
0,42,47,0
0,59,73,0
0,59,80,0
0,62,79,1
0,67,62,1
0,67,71,21
0,40,53,0
0,59,64,0
0,42,58,0
0,62,76,0
0,62,61,1
0,67,72,0
0,59,70,0
0,42,49,0
0,55,47,1
0,62,80,0
0,40,51,0
0,40,26,0
0,42,62,0
0,59,52,1
0,35,75,0
0,59,73,0
0,62,70,1
0,40,38,0
0,62,81,1
0,42,56,0
0,66,79,1
0,71,64,0
0,66,69,22
0,62,77,0
0,42,55,0
0,62,68,1
0,66,86,0
0,71,78,1
0,40,51,0
0,59,33,4
0,62,86,0
0,40,46,0
0,66,62,1
0,66,85,0
0,59,61,0
0,42,60,0
0,35,72,1
0,60,71,0
0,60,40,1
0,40,26,0
0,42,70,0
0,36,82,0
0,36,75,0
0,64,49,3
0,64,84,1
0,67,81,1
0,40,36,0
0,42,58,0
0,72,68,2
0,67,70,20
0,64,64,1
0,64,83,0
0,40,55,2
0,42,63,0
0,60,32,21
0,67,86,0
0,67,69,1
0,64,79,0
0,67,90,0
0,36,78,1
0,72,70,0
0,42,55,0
0,40,46,1
0,64,79,7
0,50,37,2
0,38,85,0
0,50,71,0
0,42,60,0
0,40,34,1
0,66,92,0
0,72,63,2
0,69,49,24
0,57,80,1
0,40,44,0
0,42,60,0
0,60,80,2
0,66,74,0
0,66,70,20
0,72,62,6
0,38,84,1
0,57,85,0
0,60,67,0
0,40,56,0
0,42,73,0
0,69,68,3
0,67,80,0
0,40,78,0
0,66,57,4
0,57,82,0
0,69,91,0
0,40,43,0
0,42,58,0
0,42,79,0
0,60,82,0
0,72,62,2
0,42,56,0
0,55,77,0
0,40,23,0
0,55,62,0
0,43,90,0
0,71,84,0
0,36,82,0
0,42,52,29
0,59,73,0
0,59,80,0
0,62,79,1
0,40,36,0
0,67,62,1
0,67,71,20
0,59,64,0
0,40,51,0
0,42,63,0
0,62,76,0
0,62,61,1
0,67,72,0
0,59,70,0
0,55,47,1
0,38,66,0
0,62,80,0
0,40,45,0
0,42,55,0
0,59,52,1
0,35,74,0
0,59,73,0
0,40,24,0
0,42,58,0
0,62,70,1
0,62,81,1
0,40,30,0
0,42,50,0
0,66,79,2
0,71,64,0
0,66,69,22
0,62,77,0
0,62,68,1
0,66,86,0
0,71,77,0
0,40,51,0
0,42,63,0
0,71,78,1
0,69,75,0
0,59,33,4
0,67,66,0
0,62,86,0
0,42,60,0
0,66,62,1
0,35,73,0
0,66,85,0
0,59,61,0
0,69,85,0
0,40,53,0
0,36,67,0
0,60,71,0
0,42,60,0
0,60,40,1
0,36,82,0
0,40,21,0
0,69,82,1
0,36,75,0
0,67,80,0
0,64,49,3
0,64,84,1
0,42,68,0
0,67,81,1
0,40,39,0
0,72,68,1
0,67,70,20
0,64,64,1
0,64,83,0
0,40,52,2
0,42,67,0
0,60,32,21
0,67,69,1
0,64,79,0
0,67,90,0
0,36,67,1
0,72,70,0
0,40,52,0
0,42,60,0
0,36,72,0
0,38,86,0
0,50,71,0
0,40,37,0
0,42,69,0
0,72,63,2
0,69,49,24
0,57,80,1
0,36,75,0
0,40,42,0
0,42,59,0
0,60,80,2
0,66,74,0
0,66,70,3
0,72,62,6
0,50,74,1
0,57,85,0
0,60,67,0
0,40,55,0
0,42,73,0
0,69,68,5
0,48,71,0
0,66,57,4
0,47,77,0
0,57,82,0
0,36,75,0
0,40,48,0
0,42,72,0
0,60,82,1
0,45,82,0
0,36,82,1
0,40,28,0
0,42,75,0
0,55,77,1
0,67,63,0
0,55,62,0
0,43,70,0
0,74,100,0
0,40,35,29
0,42,47,0
0,59,73,0
0,59,80,0
0,62,79,1
0,67,62,1
0,67,71,21
0,71,93,2
0,59,64,0
0,40,55,0
0,42,58,0
0,62,76,0
0,62,61,1
0,67,72,0
0,72,94,0
0,59,70,0
0,42,49,0
0,55,47,1
0,62,80,0
0,40,55,0
0,74,90,0
0,66,61,0
0,42,62,0
0,59,52,1
0,35,82,0
0,59,73,0
0,40,29,0
0,71,86,0
0,36,73,0
0,62,70,1
0,62,81,1
0,40,42,0
0,42,56,0
0,66,79,2
0,71,64,0
0,66,69,22
0,62,77,0
0,42,55,0
0,62,68,1
0,66,86,0
0,40,52,0
0,71,78,1
0,59,33,4
0,62,86,0
0,66,62,1
0,35,73,0
0,66,85,0
0,59,61,0
0,40,51,0
0,42,60,0
0,60,71,0
0,64,67,0
0,60,40,1
0,36,75,0
0,40,33,0
0,42,70,0
0,36,80,0
0,64,49,3
0,64,84,1
0,67,81,1
0,69,89,0
0,40,42,0
0,42,58,0
0,72,68,2
0,67,70,20
0,64,64,1
0,64,83,0
0,40,49,2
0,42,63,0
0,69,84,2
0,60,32,21
0,69,82,3
0,67,69,1
0,64,79,0
0,67,90,0
0,36,71,1
0,72,70,0
0,40,56,0
0,42,55,0
0,71,89,0
0,72,94,1
0,62,70,0
0,50,37,1
0,38,80,0
0,50,71,0
0,40,31,0
0,42,60,0
0,36,78,1
0,72,63,2
0,69,49,24
0,57,80,1
0,40,43,0
0,42,60,0
0,60,80,2
0,66,74,0
0,66,70,20
0,72,62,6
0,38,66,1
0,57,85,0
0,60,67,0
0,40,47,0
0,42,73,0
0,36,72,0
0,69,68,5
0,40,86,0
0,74,90,1
0,66,57,1
0,57,82,0
0,40,53,0
0,42,58,0
0,60,82,1
0,42,85,0
0,36,75,0
0,72,62,2
0,67,52,0
0,42,56,1
0,40,33,0
0,55,77,0
0,36,75,0
0,55,62,0
0,43,75,0
0,71,78,0
0,40,38,1
0,42,52,0
0,59,73,0
0,59,80,0
0,62,79,1
0,67,62,1
0,67,71,21
0,59,64,0
0,74,93,0
0,40,55,0
0,42,63,0
0,62,76,0
0,62,61,1
0,67,72,0
0,59,70,0
0,55,47,1
0,38,81,0
0,62,80,0
0,40,51,0
0,42,55,0
0,66,56,0
0,59,52,1
0,35,78,0
0,59,73,0
0,40,31,0
0,42,58,0
0,36,77,0
0,62,70,1
0,62,81,1
0,40,41,0
0,42,50,0
0,66,79,2
0,71,64,0
0,66,69,22
0,62,77,0
0,62,68,1
0,66,86,0
0,40,53,0
0,42,63,0
0,71,78,1
0,59,33,4
0,62,86,0
0,42,60,0
0,66,62,1
0,35,72,0
0,66,85,0
0,59,61,0
0,40,49,0
0,36,64,0
0,60,71,0
0,64,59,0
0,42,60,0
0,60,40,1
0,36,76,0
0,40,32,0
0,36,81,0
0,64,49,3
0,64,84,1
0,42,68,0
0,67,81,1
0,40,51,0
0,72,68,1
0,67,70,20
0,64,64,1
0,64,83,0
0,40,56,2
0,42,67,0
0,60,32,21
0,67,87,7
0,67,69,1
0,64,79,0
0,67,90,0
0,36,76,1
0,72,70,0
0,40,51,0
0,42,60,0
0,64,89,0
0,62,63,0
0,66,81,0
0,50,37,1
0,38,78,0
0,50,71,0
0,40,28,0
0,42,69,0
0,36,75,0
0,72,63,2
0,69,49,24
0,57,80,1
0,40,46,0
0,42,59,0
0,60,80,2
0,66,74,0
0,66,70,20
0,72,62,6
0,38,79,1
0,57,85,0
0,60,67,0
0,40,51,0
0,42,73,0
0,69,68,5
0,40,79,0
0,67,82,2
0,66,57,4
0,42,82,0
0,57,82,0
0,40,52,0
0,42,72,0
0,60,82,1
0,69,89,0
0,72,62,2
0,67,56,0
0,43,72,0
0,36,77,0
0,40,29,0
0,42,75,0
0,55,77,0
0,62,94,0
0,55,62,0
0,40,36,46
0,42,47,0
0,59,73,0
0,59,80,0
0,62,79,1
0,67,62,1
0,67,71,21
0,59,64,0
0,40,55,0
0,42,58,0
0,62,76,0
0,62,61,1
0,67,72,0
0,59,70,0
0,42,49,0
0,55,47,1
0,38,82,0
0,62,80,0
0,40,47,0
0,66,59,0
0,42,62,0
0,59,52,1
0,35,80,0
0,59,73,0
0,40,37,0
0,36,81,0
0,62,70,1
0,62,81,1
0,40,41,0
0,42,56,0
0,66,79,2
0,71,64,0
0,66,69,22
0,62,77,0
0,42,55,0
0,62,68,1
0,66,86,0
0,40,55,0
0,71,78,1
0,59,33,4
0,62,86,0
0,40,48,0
0,66,62,1
0,35,69,0
0,66,85,0
0,59,61,0
0,42,60,0
0,60,71,0
0,64,60,0
0,60,40,1
0,36,76,0
0,40,22,0
0,42,70,0
0,36,75,0
0,64,49,3
0,64,84,1
0,67,81,1
0,40,24,0
0,42,58,0
0,72,68,2
0,67,70,20
0,64,64,1
0,64,83,0
0,40,62,2
0,42,63,0
0,60,32,21
0,67,87,3
0,67,69,1
0,64,79,0
0,67,90,0
0,36,77,1
0,72,70,0
0,40,58,0
0,42,55,0
0,64,85,0
0,62,59,0
0,50,37,2
0,38,85,0
0,50,71,0
0,66,81,0
0,40,45,0
0,42,60,0
0,36,79,0
0,72,63,2
0,69,49,24
0,57,80,1
0,40,46,0
0,42,60,0
0,60,80,2
0,66,74,0
0,66,70,3
0,72,62,6
0,38,77,1
0,57,85,0
0,60,67,0
0,40,59,0
0,42,73,0
0,36,72,0
0,69,68,5
0,67,87,0
0,40,76,0
0,66,57,4
0,42,84,0
0,57,82,0
0,69,88,0
0,40,52,0
0,42,58,0
0,60,82,1
0,72,62,2
0,42,56,0
0,43,73,0
0,67,86,0
0,55,82,0
0,40,44,0
0,55,73,1
0,36,81,0
0,55,60,1
0,59,86,0
0,62,86,0
0,67,62,1
0,42,52,42
0,40,56,1
0,59,80,1
0,62,70,1
0,43,49,1
0,59,73,0
0,55,58,1
0,40,71,0
0,42,63,0
0,62,84,1
0,59,86,0
0,55,71,0
0,43,70,1
0,62,90,1
0,67,64,1
0,55,54,7
0,62,84,1
0,67,77,1
0,62,81,0
0,40,56,0
0,43,70,2
0,59,73,0
0,62,88,6
0,55,67,2
0,43,83,1
0,40,80,0
0,59,97,1
0,67,73,0
0,59,75,7
0,59,68,1
0,62,86,0
0,45,86,0
0,43,71,1
0,67,75,0
0,62,79,5
0,67,91,1
0,43,82,0
0,59,84,1
0,55,52,1
0,43,82,2
0,43,101,0
0,67,86,1
0,41,108,0
0,55,75,2
0,41,127,0
0,59,89,1
0,43,85,1
0,76,74,6
0,40,94,0
0,79,102,0
0,55,64,1
0,59,83,0
0,64,77,1
0,55,77,0
