track,note,velocity,time
1,65,85,1324
1,68,83,0
1,72,100,0
1,62,96,136
1,67,105,0
1,70,96,0
1,60,80,140
1,65,93,0
1,68,89,0
1,68,90,252
1,65,96,0
1,60,85,0
1,63,58,128
1,58,80,0
1,67,86,0
1,56,71,132
1,65,92,0
1,60,89,0
1,68,68,160
1,65,85,0
1,62,96,0
1,68,94,1060
1,72,100,0
1,65,91,4
1,62,85,136
1,70,90,0
1,67,96,0
1,65,92,144
1,60,82,0
1,68,82,0
1,65,93,200
1,68,87,0
1,60,85,0
1,63,73,128
1,58,72,0
1,67,90,0
1,56,66,128
1,65,85,0
1,60,91,0
1,68,76,308
1,72,89,0
1,65,78,0
1,62,89,132
1,70,90,0
1,67,97,0
1,68,75,136
1,60,78,0
1,65,91,0
1,65,103,164
1,60,88,0
1,68,98,0
1,63,92,120
1,58,77,0
1,67,81,0
1,56,65,132
1,65,83,0
1,60,91,0
1,68,84,316
1,65,85,0
1,72,97,0
1,62,90,128
1,70,102,4
1,67,100,4
1,60,80,148
1,68,83,0
1,65,85,0
1,65,93,340
1,60,89,0
1,68,89,0
1,63,78,128
1,58,75,0
1,67,89,0
1,56,64,144
1,65,85,0
1,60,88,0
1,70,87,212
1,62,83,0
1,65,85,0
1,70,72,152
1,65,80,0
1,62,71,4
1,68,79,336
1,65,85,0
1,60,78,4
1,56,66,216
1,60,88,0
1,65,86,8
1,60,78,372
1,68,77,0
1,65,83,4
1,58,71,128
1,67,85,0
1,63,78,8
1,60,86,140
1,56,71,4
1,65,75,0
1,68,78,312
1,65,82,0
1,72,97,0
1,60,73,176
1,68,77,0
1,65,85,0
1,60,82,296
1,65,89,0
1,68,82,0
1,58,80,116
1,63,89,0
1,67,86,4
1,65,92,144
1,60,89,0
1,56,76,0
1,68,83,268
1,65,84,4
1,72,86,0
1,70,83,220
1,62,83,4
1,67,88,0
1,65,90,232
1,68,89,0
1,60,89,4
1,67,90,228
1,63,96,0
1,58,77,0
1,60,84,204
1,65,97,0
1,68,80,4
1,63,89,144
1,67,99,0
1,58,90,0
1,56,92,164
1,65,105,0
1,60,92,0
1,72,91,340
1,68,77,0
1,65,86,0
1,70,78,228
1,62,82,4
1,67,90,4
1,60,85,236
1,68,83,0
1,65,88,0
1,58,72,200
1,67,86,0
1,63,89,4
1,65,103,12
1,56,77,0
1,60,100,0
1,63,87,16
1,60,89,0
1,58,86,16
1,48,78,0
1,63,78,0
1,67,78,0
1,68,94,204
1,72,100,0
1,65,91,4
1,62,85,136
1,70,90,0
1,67,96,0
1,65,92,144
1,60,82,0
1,68,82,0
1,65,93,200
1,68,87,0
1,60,85,0
1,63,73,128
1,58,72,0
1,67,90,0
1,56,66,128
1,65,85,0
1,60,91,0
1,68,76,308
1,72,89,0
1,65,78,0
1,62,89,132
1,70,90,0
1,67,97,0
1,68,75,136
1,60,78,0
1,65,91,0
1,65,103,164
1,60,88,0
1,68,98,0
1,63,92,120
1,58,77,0
1,67,81,0
1,56,65,132
1,65,83,0
1,60,91,0
1,68,84,316
1,65,85,0
1,72,97,0
1,62,90,128
1,70,102,4
1,67,100,4
1,60,80,148
1,68,83,0
1,65,85,0
1,65,93,340
1,60,89,0
1,68,89,0
1,63,78,128
1,58,75,0
1,67,89,0
1,56,64,144
1,65,85,0
1,60,88,0
1,70,87,212
1,62,83,0
1,65,85,0
1,70,72,152
1,65,80,0
1,62,71,4
1,68,79,336
1,65,85,0
1,60,78,4
1,56,66,216
1,60,88,0
1,65,86,8
1,60,78,372
1,68,77,0
1,65,83,4
1,58,71,128
1,67,85,0
1,63,78,8
1,60,86,140
1,56,71,4
1,65,75,0
1,68,78,312
1,65,82,0
1,72,97,0
1,60,73,176
1,68,77,0
1,65,85,0
1,60,82,296
1,65,89,0
1,68,82,0
1,58,80,116
1,63,89,0
1,67,86,4
1,65,92,144
1,60,89,0
1,56,76,0
1,68,83,268
1,65,84,4
1,72,86,0
1,70,83,220
1,62,83,4
1,67,88,0
1,65,90,232
1,68,89,0
1,60,89,4
1,67,90,228
1,63,96,0
1,58,77,0
1,60,84,204
1,65,97,0
1,68,80,4
1,63,89,144
1,67,99,0
1,58,90,0
1,56,92,164
1,65,105,0
1,60,92,0
1,72,91,340
1,68,77,0
1,65,86,0
1,70,78,228
1,62,82,4
1,67,90,4
1,60,85,236
1,68,83,0
1,65,88,0
1,58,72,200
1,67,86,0
1,63,89,4
1,56,77,4
1,65,103,0
1,60,100,4
1,63,80,16
1,60,85,16
1,75,77,16
1,58,96,0
1,48,78,0
1,67,78,0
1,75,90,28
1,79,96,0
1,72,73,4
1,75,86,100
1,72,85,8
1,68,94,204
1,72,100,0
1,65,91,4
1,62,85,136
1,70,90,0
1,67,96,0
1,65,92,144
1,60,82,0
1,68,82,0
1,65,93,200
1,68,87,0
1,60,85,0
1,63,73,128
1,58,72,0
1,67,90,0
1,56,66,128
1,65,85,0
1,60,91,0
1,58,72,104
1,62,85,4
1,65,83,4
1,70,72,184
1,70,61,132
1,62,71,4
1,65,85,4
1,68,94,184
1,72,100,0
1,65,91,4
1,62,85,136
1,70,90,0
1,67,96,0
1,65,92,144
1,60,82,0
1,68,82,0
1,65,93,200
1,68,87,0
1,60,85,0
1,63,73,128
1,58,72,0
1,67,90,0
1,56,66,128
1,65,85,0
1,60,91,0
1,58,72,104
1,62,85,4
1,65,83,4
1,70,72,184
1,70,61,132
1,62,71,4
1,65,85,4
1,68,94,184
1,72,100,0
1,65,91,4
1,62,85,136
1,70,90,0
1,67,96,0
1,65,92,144
1,60,82,0
1,68,82,0
1,65,93,200
1,68,87,0
1,60,85,0
1,63,73,128
1,58,72,0
1,67,90,0
1,56,66,128
1,65,85,0
1,60,91,0
1,68,76,308
1,72,89,0
1,65,78,0
1,62,89,132
1,70,90,0
1,67,97,0
1,68,75,136
1,60,78,0
1,65,91,0
1,65,103,164
1,60,88,0
1,68,98,0
1,63,92,120
1,58,77,0
1,67,81,0
1,56,65,132
1,65,83,0
1,60,91,0
1,68,84,316
1,65,85,0
1,72,97,0
1,62,90,128
1,70,102,4
1,67,100,4
1,60,80,148
1,68,83,0
1,65,85,0
1,65,93,340
1,60,89,0
1,68,89,0
1,63,78,128
1,58,75,0
1,67,89,0
1,56,64,144
1,65,85,0
1,60,88,0
1,70,87,212
1,62,83,0
1,65,85,0
1,70,72,152
1,65,80,0
1,62,71,4
1,68,79,336
1,65,85,0
1,60,78,4
1,56,66,216
1,60,88,0
1,65,86,8
1,60,78,372
1,68,77,0
1,65,83,4
1,58,71,128
1,67,85,0
1,63,78,8
1,60,86,140
1,56,71,4
1,65,75,0
1,68,78,312
1,65,82,0
1,72,97,0
1,60,73,176
1,68,77,0
1,65,85,0
1,60,82,296
1,65,89,0
1,68,82,0
1,58,80,116
1,63,89,0
1,67,86,4
1,65,92,144
1,60,89,0
1,56,76,0
1,68,83,268
1,65,84,4
1,72,86,0
1,70,83,220
1,62,83,4
1,67,88,0
1,65,90,232
1,68,89,0
1,60,89,4
1,67,90,228
1,63,96,0
1,58,77,0
1,60,84,204
1,65,97,0
1,68,80,4
1,63,89,144
1,67,99,0
1,58,90,0
1,56,92,164
1,65,105,0
1,60,92,0
1,72,91,340
1,68,77,0
1,65,86,0
1,70,78,228
1,62,82,4
1,67,90,4
1,60,85,236
1,68,83,0
1,65,88,0
1,58,72,200
1,67,86,0
1,63,89,4
1,56,77,12
1,65,93,0
1,60,100,4
1,58,66,16
1,67,78,0
1,75,78,0
1,48,78,0
1,96,63,16
1,95,41,12
1,93,47,32
1,91,50,32
1,89,51,28
1,88,52,24
1,86,54,24
1,84,50,20
1,83,48,16
1,81,53,16
1,79,54,16
1,77,54,12
1,76,52,12
1,74,57,12
1,72,54,12
1,71,52,16
1,69,54,16
1,67,57,16
1,68,94,180
1,72,100,0
1,65,91,4
1,62,85,136
1,70,90,0
1,67,96,0
1,65,92,144
1,60,82,0
1,68,82,0
1,65,93,200
1,68,87,0
1,60,85,0
1,63,73,128
1,58,72,0
1,67,90,0
1,56,66,128
1,65,85,0
1,60,91,0
1,58,72,104
1,62,85,4
1,65,83,4
1,70,72,184
1,70,61,132
1,62,71,4
1,65,85,4
1,68,94,184
1,72,100,0
1,65,91,4
1,62,85,136
1,70,90,0
1,67,96,0
1,65,92,144
1,60,82,0
1,68,82,0
1,65,93,200
1,68,87,0
1,60,85,0
1,63,73,128
1,58,72,0
1,67,90,0
1,56,66,128
1,65,85,0
1,60,91,0
1,58,72,104
1,62,85,4
1,65,83,4
1,70,72,184
1,68,76,344
1,72,89,0
1,65,78,0
1,62,89,132
1,70,90,0
1,67,97,0
1,68,75,136
1,60,78,0
1,65,91,0
1,65,103,164
1,60,88,0
1,68,98,0
1,63,92,120
1,58,77,0
1,67,81,0
1,56,65,132
1,65,83,0
1,60,91,0
1,68,94,316
1,72,100,0
1,65,91,4
1,62,85,136
1,70,90,0
1,67,96,0
1,65,92,144
1,60,82,0
1,68,82,0
1,65,93,200
1,68,87,0
1,60,85,0
1,63,73,128
1,58,72,0
1,67,90,0
1,56,66,128
1,65,85,0
1,60,91,0
1,58,72,104
1,62,85,4
1,65,83,4
1,70,72,184
1,70,61,132
1,62,71,4
1,65,85,4
1,68,94,184
1,72,100,0
1,65,91,4
1,62,85,136
1,70,90,0
1,67,96,0
1,65,92,144
1,60,82,0
1,68,82,0
1,65,93,200
1,68,87,0
1,60,85,0
1,63,73,128
1,58,72,0
1,67,90,0
1,56,66,128
1,65,85,0
1,60,91,0
1,58,72,104
1,62,85,4
1,65,83,4
1,70,72,184
1,68,76,344
1,72,89,0
1,65,78,0
1,62,89,132
1,70,90,0
1,67,97,0
1,68,75,136
1,60,78,0
1,65,91,0
1,65,103,164
1,60,88,0
1,68,98,0
1,63,92,120
1,58,77,0
1,67,81,0
1,56,65,132
1,65,83,0
1,60,91,0
1,68,94,316
1,72,100,0
1,65,91,4
1,62,85,136
1,70,90,0
1,67,96,0
1,65,92,144
1,60,82,0
1,68,82,0
1,65,93,200
1,68,87,0
1,60,85,0
1,63,73,128
1,58,72,0
1,67,90,0
1,56,66,128
1,65,85,0
1,60,91,0
1,58,72,104
1,62,85,4
1,65,83,4
1,70,72,184
1,70,61,132
1,62,71,4
1,65,85,4
1,68,94,184
1,72,100,0
1,65,91,4
1,62,85,136
1,70,90,0
1,67,96,0
1,65,92,144
1,60,82,0
1,68,82,0
1,65,93,200
1,68,87,0
1,60,85,0
1,63,73,128
1,58,72,0
1,67,90,0
1,56,66,128
1,65,85,0
1,60,91,0
1,58,72,104
1,62,85,4
1,65,83,4
1,70,72,184
1,68,76,344
1,72,89,0
1,65,78,0
1,62,89,132
1,70,90,0
1,67,97,0
1,68,75,136
1,60,78,0
1,65,91,0
1,65,103,164
1,60,88,0
1,68,98,0
1,63,92,120
1,58,77,0
1,67,81,0
1,56,65,132
1,65,83,0
1,60,91,0
1,68,94,316
1,72,100,0
1,65,91,4
1,62,85,136
1,70,90,0
1,67,96,0
1,65,92,144
1,60,82,0
1,68,82,0
1,65,93,200
1,68,87,0
1,60,85,0
1,63,73,128
1,58,72,0
1,67,90,0
1,56,66,128
1,65,85,0
1,60,91,0
1,58,72,104
1,62,85,4
1,65,83,4
1,70,72,184
1,70,61,132
1,62,71,4
1,65,85,4
1,68,94,184
1,72,100,0
1,65,91,4
1,62,85,136
1,70,90,0
1,67,96,0
1,65,92,144
1,60,82,0
1,68,82,0
1,65,93,200
1,68,87,0
1,60,85,0
1,63,73,128
1,58,72,0
1,67,90,0
1,56,66,128
1,65,85,0
1,60,91,0
1,58,72,104
1,62,85,4
1,65,83,4
1,70,72,184
1,68,76,16
1,72,89,0
1,65,78,0
1,62,89,88
1,70,90,0
1,67,97,0
1,68,75,36
1,60,78,0
1,65,91,0
1,65,103,96
1,60,88,0
1,68,98,0
1,63,92,44
1,58,77,0
1,67,81,0
1,56,65,116
1,65,83,0
1,60,91,0
1,68,94,60
1,72,100,0
1,65,91,4
1,62,85,8
1,70,90,0
1,67,96,0
1,65,92,88
1,60,82,0
1,68,82,0
1,65,93,24
1,68,87,0
1,60,85,0
1,63,73,96
1,58,72,0
1,67,90,0
1,56,66,44
1,65,85,0
1,60,91,0
1,58,72,32
1,62,85,4
1,65,83,4
1,70,72,104
1,56,61,132
1,60,71,4
1,65,85,4
2,39,109,1116
2,41,110,4
2,29,109,448
2,39,108,556
2,41,109,4
2,34,110,316
2,36,105,4
2,39,106,4
2,41,110,20
2,44,108,4
2,34,101,4
2,46,110,4
2,46,108,32
2,41,112,600
2,44,100,4
2,41,110,20
2,34,107,4
2,46,103,4
2,46,109,40
2,39,109,412
2,39,109,76
2,39,110,76
2,39,113,84
2,41,112,4
2,29,107,572
2,39,107,576
2,41,109,4
2,34,107,348
2,36,106,4
2,39,110,4
2,41,110,4
2,44,110,4
2,39,109,12
2,41,112,4
2,29,102,464
2,29,104,32
2,39,110,524
2,34,107,192
2,36,111,4
2,39,107,4
2,41,110,8
2,44,106,4
2,39,109,16
2,41,107,4
2,29,101,436
2,29,106,44
2,36,110,520
2,39,110,4
2,34,103,328
2,36,110,4
2,39,106,4
2,41,110,4
2,44,107,4
2,34,112,4
2,46,110,4
2,46,109,44
2,41,106,4
2,34,114,16
2,34,99,24
2,34,103,24
2,46,108,4
2,46,107,20
2,34,118,4
2,29,106,4
2,32,105,4
2,33,107,4
2,34,110,4
2,46,111,96
2,41,106,32
2,34,115,4
2,46,109,124
2,46,110,8
2,41,110,4
2,34,110,4
2,34,107,44
2,36,110,4
2,39,107,4
2,41,116,48
2,44,107,4
2,41,112,188
2,41,113,44
2,39,105,4
2,36,107,232
2,36,108,52
2,41,110,264
2,41,100,24
2,34,105,4
2,36,112,4
2,39,107,4
2,41,110,4
2,44,107,4
2,41,108,220
2,41,113,52
2,39,109,4
2,36,110,244
2,41,110,36
2,41,115,40
2,34,109,4
2,36,110,4
2,39,105,4
2,41,112,4
2,44,106,4
2,41,106,224
2,41,115,44
2,39,105,4
2,39,103,36
2,36,107,8
2,36,106,32
2,41,105,228
2,41,111,12
2,41,114,32
2,34,103,4
2,36,112,4
2,39,104,4
2,41,113,8
2,44,103,4
2,41,106,244
2,41,113,68
2,39,106,4
2,36,110,268
2,41,113,36
2,36,108,8
2,29,110,4
2,31,110,4
2,34,102,4
2,36,107,4
2,39,105,12
2,41,110,4
2,29,105,516
2,39,104,560
2,41,108,4
2,34,105,372
2,36,110,4
2,39,103,4
2,41,112,4
2,44,106,4
2,39,101,64
2,41,107,4
2,29,105,480
2,39,108,556
2,39,111,280
2,34,110,4
2,36,109,28
2,39,107,4
2,41,108,4
2,44,105,4
2,39,108,8
2,41,109,4
2,29,105,552
2,36,108,564
2,39,103,4
2,34,103,348
2,36,110,4
2,39,106,4
2,41,110,4
2,44,100,4
2,34,108,4
2,46,108,4
2,46,108,88
2,41,109,4
2,34,112,4
2,34,106,12
2,34,106,8
2,46,107,4
2,46,106,20
2,46,109,12
2,34,120,4
2,29,100,4
2,32,105,4
2,33,106,4
2,34,110,32
2,46,107,4
2,46,110,60
2,46,107,44
2,41,108,4
2,34,112,4
2,41,107,80
2,46,112,4
2,46,107,16
2,46,107,12
2,46,109,12
2,46,110,80
2,34,112,4
2,34,103,56
2,36,111,4
2,39,106,4
2,41,113,32
2,44,108,4
2,41,108,228
2,41,110,104
2,39,111,4
2,36,106,216
2,36,110,80
2,41,110,252
2,41,113,52
2,34,101,4
2,36,110,4
2,39,106,4
2,41,110,84
2,44,106,4
2,41,107,228
2,41,112,92
2,39,105,4
2,36,108,224
2,41,112,40
2,41,110,140
2,34,105,4
2,36,110,4
2,39,106,4
2,41,114,4
2,44,106,4
2,41,107,212
2,41,112,64
2,39,106,4
2,39,110,52
2,36,107,4
2,36,111,48
2,41,108,164
2,41,110,92
2,41,107,36
2,34,103,4
2,36,110,4
2,39,106,4
2,41,110,28
2,44,107,4
2,41,109,228
2,41,110,72
