track,note,velocity,time
3,79,103,1
3,67,103,0
3,79,0,286
3,67,0,0
3,67,92,1
3,79,92,0
3,67,0,22
3,79,0,0
3,67,82,1
3,79,82,0
3,67,0,23
3,79,0,0
3,67,77,1
3,79,77,1
3,67,0,46
3,79,0,1
3,79,109,1
3,67,109,0
3,79,0,235
3,67,0,0
3,67,83,5
3,79,83,0
3,67,0,43
3,79,0,0
3,79,95,5
3,67,95,0
3,79,0,95
3,67,0,0
3,55,92,1
3,59,81,48
3,62,83,48
3,59,0,47
3,59,79,1
3,55,0,47
3,55,78,1
3,55,0,46
3,55,63,1
3,62,0,47
3,59,0,1
3,60,102,0
3,62,102,0
3,55,0,23
3,55,70,1
3,60,0,23
3,62,0,0
3,60,91,1
3,62,92,0
3,55,0,47
3,60,0,0
3,55,96,3
3,59,80,46
3,62,0,47
3,62,83,3
3,59,0,45
3,59,74,2
3,55,0,47
3,55,76,1
3,59,0,47
3,59,73,1
3,62,0,43
3,59,0,2
3,55,0,2
3,60,91,0
3,62,93,0
3,55,72,23
3,60,0,23
3,62,0,0
3,62,99,1
3,60,95,0
3,62,0,46
3,60,0,0
3,55,0,1
3,62,84,2
3,59,83,0
3,55,83,0
3,62,0,96
3,59,0,0
3,55,0,0
3,62,77,1
3,59,74,0
3,55,70,0
3,62,0,95
3,59,0,0
3,55,0,0
3,59,73,1
3,55,73,0
3,62,74,0
3,59,0,95
3,55,0,0
3,62,0,0
3,62,75,1
3,55,75,0
3,59,73,0
3,62,0,95
3,55,0,0
3,59,0,0
3,59,83,1
3,55,85,0
3,62,86,0
3,59,0,143
3,55,0,0
3,62,0,0
3,59,70,1
3,62,69,0
3,55,61,0
3,59,0,47
3,62,0,0
3,55,0,0
3,62,79,1
3,59,80,0
3,55,78,0
3,62,0,95
3,59,0,0
3,55,0,0
3,62,84,1
3,55,86,0
3,59,86,0
3,62,0,93
3,55,0,0
3,59,0,0
3,61,79,1
3,64,81,2
3,57,76,0
3,61,0,143
3,64,0,0
3,57,0,0
3,61,74,1
3,57,76,0
3,64,79,0
3,61,0,47
3,57,0,0
3,64,0,0
3,61,86,1
3,57,85,0
3,64,89,0
3,61,0,141
3,61,64,1
3,57,0,1
3,64,0,0
3,64,58,1
3,57,57,0
3,61,0,42
3,64,0,0
3,57,0,0
3,61,87,5
3,64,94,0
3,57,87,0
3,61,0,190
3,64,0,0
3,57,0,0
3,61,79,1
3,57,84,0
3,64,89,0
3,61,0,95
3,57,0,0
3,64,0,0
3,61,80,1
3,64,86,0
3,57,78,0
3,61,0,88
3,64,0,0
3,57,0,0
3,50,98,9
3,54,103,0
3,57,100,0
3,50,0,144
3,54,0,0
3,57,0,0
3,54,101,1
3,50,95,0
3,57,102,0
3,54,0,47
3,50,0,0
3,57,0,0
3,54,93,1
3,57,94,0
3,50,94,0
3,54,0,93
3,57,0,0
3,50,0,0
3,54,90,1
3,57,91,0
3,50,80,0
3,54,0,95
3,57,0,0
3,50,0,0
3,54,93,1
3,50,89,0
3,57,93,0
3,54,0,145
3,50,0,0
3,57,0,0
3,54,83,1
3,57,88,0
3,50,78,0
3,54,0,47
3,57,0,0
3,50,0,0
3,54,95,1
3,50,88,0
3,57,99,0
3,54,0,94
3,50,0,0
3,57,0,0
3,54,99,1
3,50,95,0
3,57,100,0
3,54,0,82
3,50,0,0
3,57,0,0
3,55,102,14
3,60,103,0
3,64,100,0
3,55,0,142
3,59,76,1
3,55,73,0
3,62,73,0
3,60,0,35
3,64,0,0
3,59,0,0
3,55,0,0
3,62,0,0
3,62,100,13
3,55,100,0
3,59,106,0
3,62,0,191
3,59,0,0
3,62,116,1
3,59,110,0
3,55,0,23
3,55,73,1
3,62,0,23
3,59,0,0
3,62,73,1
3,59,74,0
3,55,0,48
3,62,0,0
3,59,0,0
3,55,98,1
3,59,98,0
3,62,98,0
3,55,0,48
3,59,0,0
3,62,0,0
3,55,85,1
3,62,87,0
3,59,87,0
3,55,0,46
3,62,0,0
3,59,0,0
3,43,110,1
3,55,106,0
3,62,108,0
3,59,110,0
3,31,98,0
3,55,0,48
3,62,0,0
3,59,0,0
3,62,96,1
3,55,98,0
3,59,100,0
3,43,0,46
3,31,0,1
3,62,0,0
3,55,0,0
3,59,0,0
3,43,125,0
3,31,116,1
3,55,122,0
3,62,120,0
3,59,125,0
3,55,0,47
3,62,0,0
3,59,0,0
3,55,112,1
3,62,116,0
3,59,118,0
3,43,0,42
3,31,0,0
3,55,0,0
3,62,0,0
3,59,0,0
3,62,112,5
3,58,109,0
3,65,120,0
3,46,86,0
3,34,75,0
3,62,0,96
3,58,0,0
3,65,0,0
3,58,99,1
3,62,102,0
3,65,105,0
3,62,0,95
3,65,0,0
3,62,102,1
3,65,116,0
3,58,0,47
3,58,78,1
3,62,0,47
3,65,0,0
3,62,106,1
3,65,110,0
3,58,0,46
3,58,81,1
3,46,0,44
3,34,0,0
3,62,0,0
3,65,0,0
3,58,0,0
3,34,76,3
3,46,92,0
3,62,103,2
3,65,110,0
3,58,105,0
3,62,0,94
3,65,0,0
3,58,0,0
3,62,103,1
3,58,93,0
3,65,105,0
3,62,0,96
3,65,0,0
3,65,103,1
3,62,99,0
3,58,0,47
3,58,75,1
3,65,0,47
3,62,0,0
3,58,0,0
3,65,110,1
3,58,107,0
3,62,106,0
3,34,0,95
3,46,0,0
3,65,0,0
3,58,0,0
3,62,0,0
3,53,110,1
3,57,111,0
3,60,114,0
3,29,103,0
3,41,110,0
3,53,0,95
3,57,0,0
3,60,0,0
3,53,79,1
3,60,91,0
3,57,85,0
3,53,0,95
3,60,0,0
3,57,0,0
3,60,98,1
3,57,96,0
3,53,81,0
3,53,0,47
3,53,70,1
3,60,0,47
3,57,0,0
3,53,0,0
3,60,100,1
3,53,98,0
3,57,106,0
3,60,0,46
3,53,0,1
3,57,0,0
3,60,98,0
3,57,100,1
3,53,98,0
3,60,0,21
3,57,0,0
3,53,0,0
3,60,87,1
3,57,93,0
3,53,81,0
3,29,0,23
3,41,0,0
3,60,0,0
3,57,0,0
3,53,0,0
3,41,112,1
3,29,103,0
3,60,120,0
3,57,125,0
3,53,110,0
3,60,0,97
3,57,0,0
3,53,0,0
3,60,103,1
3,57,102,0
3,53,98,0
3,60,0,95
3,57,0,0
3,53,0,0
3,53,87,1
3,57,96,0
3,60,100,0
3,53,0,95
3,57,0,0
3,60,0,0
3,57,88,1
3,53,78,0
3,60,86,0
3,41,0,93
3,29,0,0
3,57,0,0
3,53,0,0
3,60,0,0
3,59,96,3
3,55,96,0
3,62,96,0
3,31,84,0
3,43,91,0
3,59,0,95
3,62,0,0
3,62,99,1
3,59,96,0
3,55,0,47
3,55,74,1
3,62,0,47
3,59,0,0
3,59,92,1
3,62,91,0
3,55,0,47
3,55,69,1
3,59,0,47
3,62,0,0
3,62,108,1
3,59,106,0
3,55,0,47
3,55,88,1
3,31,0,47
3,43,0,0
3,62,0,0
3,59,0,0
3,55,0,0
3,43,88,1
3,31,88,0
3,62,100,0
3,59,100,0
3,55,96,0
3,62,0,95
3,59,0,0
3,59,95,1
3,62,96,0
3,59,0,95
3,62,0,0
3,59,95,1
3,62,95,0
3,55,0,47
3,55,72,1
3,59,0,47
3,62,0,0
3,62,100,1
3,59,102,0
3,55,0,47
3,55,74,1
3,43,0,44
3,31,0,0
3,62,0,0
3,59,0,0
3,55,0,0
3,33,79,3
3,45,82,1
3,61,87,0
3,57,85,0
3,64,93,0
3,61,0,95
3,57,0,0
3,64,0,0
3,61,86,1
3,64,94,0
3,57,88,0
3,61,0,95
3,64,0,0
3,57,0,0
3,61,82,1
3,64,92,0
3,57,84,0
3,61,0,95
3,64,0,0
3,57,0,0
3,61,93,1
3,64,99,0
3,57,95,0
3,33,0,80
3,45,0,0
3,61,0,0
3,64,0,0
3,57,0,0
3,38,81,16
3,26,89,0
3,54,101,0
3,57,102,0
3,50,100,0
3,54,0,46
3,54,89,1
3,57,0,46
3,57,95,1
3,62,87,48
3,66,107,48
3,69,103,48
3,66,0,47
3,66,115,1
3,62,0,49
3,62,98,1
3,38,0,45
3,26,0,0
3,50,0,0
3,54,0,0
3,57,0,0
3,69,0,0
3,66,0,0
3,62,0,0
3,62,100,3
3,55,100,0
3,59,102,0
3,62,0,95
3,55,0,0
3,59,0,0
3,62,96,1
3,55,99,0
3,59,99,0
3,62,0,95
3,55,0,0
3,59,0,0
3,62,98,1
3,59,100,0
3,55,106,0
3,55,0,47
3,55,80,1
3,62,0,47
3,59,0,0
3,62,103,1
3,59,103,0
3,55,0,45
3,55,88,1
3,62,0,36
3,59,0,0
3,55,0,0
3,62,102,14
3,55,106,0
3,59,106,0
3,62,0,95
3,55,0,0
3,59,0,0
3,55,95,1
3,62,99,0
3,59,100,0
3,55,0,93
3,62,0,0
3,59,0,0
3,59,100,1
3,62,103,0
3,55,99,0
3,59,0,97
3,62,0,0
3,55,0,0
3,62,105,1
3,55,110,0
3,59,106,0
3,62,0,94
3,55,0,0
3,59,0,0
3,64,105,1
3,69,100,0
3,61,95,0
3,64,0,96
3,69,0,0
3,61,0,0
3,61,99,1
3,64,106,0
3,69,94,0
3,61,0,86
3,64,0,0
3,69,0,0
3,61,101,9
3,64,108,0
3,69,105,0
3,61,0,47
3,64,0,1
3,69,0,0
3,61,67,0
3,64,81,1
3,69,72,0
3,64,0,45
3,69,0,0
3,64,114,1
3,69,125,0
3,73,118,0
3,61,0,47
3,69,0,0
3,64,0,1
3,69,95,0
3,61,97,0
3,64,88,1
3,73,0,34
3,69,0,0
3,61,0,0
3,64,0,0
3,73,92,15
3,76,99,0
3,69,80,0
3,73,0,23
3,76,0,0
3,69,0,0
3,69,81,1
3,73,86,0
3,76,91,0
3,69,0,23
3,73,0,0
3,76,0,0
3,73,97,1
3,76,88,0
3,69,84,0
3,73,0,45
3,76,0,0
3,69,0,0
3,73,121,1
3,76,118,0
3,69,112,0
3,73,0,96
3,76,0,0
3,69,0,0
3,73,115,1
3,76,114,0
3,69,106,0
3,73,0,96
3,69,0,0
3,73,95,1
3,64,94,0
3,69,103,0
3,76,0,16
3,64,0,77
3,69,0,0
3,73,0,1
3,54,103,1
3,50,96,0
3,57,102,0
3,38,105,0
3,26,114,0
3,54,0,95
3,57,0,0
3,50,0,1
3,54,105,0
3,57,103,0
3,50,81,1
3,50,0,47
3,50,88,1
3,54,0,47
3,57,0,0
3,54,105,1
3,57,110,0
3,50,0,46
3,50,78,1
3,54,0,48
3,57,0,0
3,50,0,0
3,50,99,1
3,57,106,0
3,54,109,0
3,50,0,47
3,50,79,1
3,38,0,45
3,26,0,0
3,57,0,1
3,54,0,0
3,50,0,0
3,38,99,0
3,26,103,0
3,50,103,1
3,54,115,0
3,57,110,0
3,50,0,40
3,50,59,9
3,54,0,47
3,57,0,0
3,54,115,1
3,57,110,0
3,50,0,47
3,50,81,1
3,54,0,46
3,57,0,0
3,50,0,1
3,54,109,0
3,57,112,0
3,50,89,1
3,50,0,45
3,50,93,1
3,54,0,47
3,57,0,0
3,54,115,1
3,57,120,0
3,50,0,47
3,50,80,1
3,38,0,44
3,26,0,0
3,54,0,0
3,57,0,0
3,50,0,0
3,64,118,4
3,55,125,0
3,60,122,0
3,55,0,144
3,62,108,1
3,59,118,0
3,55,118,0
3,64,0,19
3,60,0,0
3,62,0,0
3,59,0,0
3,55,0,0
3,62,108,28
3,59,116,0
3,55,116,0
3,62,0,192
3,59,0,0
3,55,0,0
3,55,68,1
3,59,75,0
3,62,74,0
3,55,0,46
3,59,0,0
3,62,0,0
3,62,78,1
3,59,74,0
3,55,72,0
3,62,0,23
3,59,0,0
3,55,0,0
3,62,81,1
3,59,74,0
3,55,73,0
3,62,0,23
3,59,0,0
3,55,0,0
3,62,91,1
3,59,91,0
3,55,88,0
3,62,0,23
3,59,0,0
3,55,0,0
3,62,93,1
3,59,100,0
3,55,93,0
3,62,0,23
3,59,0,0
3,55,0,0
3,55,89,1
3,62,96,0
3,59,100,0
3,55,0,23
3,62,0,0
3,59,0,1
3,55,93,0
3,62,103,0
3,59,102,1
3,55,0,22
3,62,0,0
3,59,0,1
3,62,105,0
3,55,102,0
3,59,110,1
3,62,0,22
3,55,0,0
3,59,0,0
3,55,102,1
3,62,114,0
3,59,116,0
3,55,0,24
3,62,0,0
3,59,0,0
3,55,105,1
3,62,108,0
3,59,116,0
3,55,0,22
3,62,0,0
3,59,0,0
3,62,112,1
3,55,110,0
3,59,116,0
3,62,0,23
3,55,0,0
3,59,0,1
3,55,108,0
3,62,114,0
3,59,114,1
3,55,0,22
3,62,0,0
3,59,0,0
3,55,105,1
3,59,114,0
3,62,112,0
3,55,0,23
3,59,0,0
3,62,0,0
3,55,103,1
3,62,114,0
3,59,114,0
3,55,0,23
3,62,0,0
3,59,0,0
3,55,122,1
3,62,118,0
3,59,122,0
3,55,0,16
3,62,0,0
3,59,0,0
3,58,112,9
3,62,112,0
3,65,114,0
3,46,105,0
3,34,90,0
3,58,0,94
3,62,0,0
3,65,0,0
3,62,110,1
3,65,112,0
3,58,115,0
3,58,0,49
3,58,78,1
3,62,0,47
3,65,0,0
3,58,0,0
3,62,106,1
3,65,110,0
3,58,97,0
3,58,0,47
3,58,83,1
3,62,0,46
3,65,0,0
3,58,0,0
3,62,108,1
3,58,115,0
3,65,99,0
3,58,0,48
3,58,71,1
3,46,0,45
3,34,0,0
3,62,0,0
3,65,0,0
3,58,0,0
3,58,115,1
3,62,105,0
3,65,110,0
3,46,90,0
3,34,86,0
3,62,0,97
3,65,0,0
3,62,106,1
3,65,106,0
3,58,0,47
3,58,80,1
3,62,0,46
3,65,0,0
3,62,105,1
3,65,92,0
3,58,0,46
3,58,89,1
3,62,0,47
3,65,0,0
3,62,110,1
3,65,108,0
3,58,0,47
3,58,73,1
3,62,0,47
3,38,95,1
3,26,98,0
3,54,115,0
3,57,112,0
3,62,114,0
3,50,116,0
3,46,0,2
3,34,0,0
3,65,0,0
3,58,0,0
3,54,0,95
3,57,0,0
3,62,0,0
3,62,116,1
3,57,112,0
3,54,109,0
3,50,0,45
3,50,85,1
3,62,0,47
3,57,0,0
3,54,0,0
3,54,115,1
3,62,125,0
3,57,112,0
3,50,0,47
3,50,92,1
3,54,0,49
3,62,0,0
3,57,0,0
3,62,125,1
3,54,124,0
3,57,125,0
3,50,0,45
3,50,81,1
3,38,0,1
3,38,73,1
3,26,0,32
3,62,0,0
3,54,0,0
3,57,0,0
3,50,0,0
3,38,0,0
3,62,122,14
3,54,125,0
3,57,125,0
3,50,125,0
3,38,118,0
3,26,125,1
3,62,0,43
3,54,0,3
3,57,0,0
3,50,0,0
3,38,0,297
3,26,0,0
3,55,100,41
3,62,98,0
3,59,103,0
3,55,0,144
3,62,0,0
3,59,0,0
3,55,88,1
3,62,86,0
3,59,92,0
3,55,0,45
3,62,0,0
3,59,0,0
3,62,103,1
3,59,108,0
3,55,106,0
3,62,0,95
3,59,0,0
3,55,0,0
3,55,106,1
3,62,110,0
3,59,108,0
3,55,0,83
3,62,0,0
3,59,0,0
3,57,108,13
3,54,103,0
3,62,108,0
3,57,0,97
3,54,0,0
3,62,0,0
3,54,71,1
3,57,81,0
3,62,78,0
3,54,0,46
3,57,0,1
3,62,0,0
3,54,89,0
3,57,94,1
3,62,93,0
3,54,0,45
3,57,0,0
3,62,0,1
3,57,110,0
3,54,107,0
3,62,112,1
3,54,0,94
3,57,0,1
3,62,0,0
3,54,107,0
3,57,110,1
3,62,105,0
3,54,0,82
3,57,0,0
3,62,0,0
3,62,103,13
3,59,108,2
3,55,110,0
3,62,0,95
3,59,0,0
3,55,0,0
3,59,105,1
3,55,103,0
3,62,98,0
3,59,0,73
3,55,0,0
3,62,0,0
3,60,96,21
3,62,94,0
3,55,98,1
3,60,0,24
3,62,0,0
3,55,0,0
3,55,83,1
3,60,81,0
3,62,81,0
3,55,0,23
3,60,0,0
3,62,0,0
3,62,105,1
3,60,103,0
