track,note,velocity,time
0,66,64,162
0,58,56,0
0,63,82,0
0,46,95,0
0,51,78,0
0,39,95,0
0,54,100,0
0,27,125,0
0,70,58,0
0,87,67,0
0,75,57,0
0,66,49,0
0,27,122,0
0,39,127,0
0,42,103,0
0,36,93,0
0,58,108,2
0,42,71,0
0,70,79,0
0,75,83,0
0,63,95,0
0,38,89,0
0,42,86,0
0,73,79,0
0,68,72,0
0,61,83,0
0,42,74,26
0,70,80,0
0,66,59,0
0,58,77,0
0,36,95,0
0,42,99,0
0,70,83,0
0,75,85,0
0,63,83,0
0,42,69,2
0,73,77,0
0,68,77,0
0,61,72,0
0,38,87,24
0,42,92,0
0,66,68,0
0,70,63,0
0,58,72,0
0,42,71,30
0,68,80,0
0,63,73,0
0,56,72,0
0,77,58,32
0,42,107,0
0,36,90,0
0,70,89,0
0,58,79,0
0,66,91,0
0,42,62,4
0,68,77,0
0,63,70,0
0,56,72,0
0,38,93,30
0,42,103,0
0,66,87,0
0,61,66,0
0,54,72,0
0,42,65,0
0,56,72,0
0,68,82,0
0,63,56,0
0,73,62,2
0,36,92,0
0,42,92,0
0,70,79,0
0,66,82,0
0,58,72,0
0,42,77,2
0,68,68,0
0,56,68,0
0,63,70,0
0,38,74,4
0,42,89,0
0,66,80,0
0,54,77,0
0,61,59,0
0,54,100,24
0,35,111,2
0,35,122,0
0,23,120,0
0,70,57,0
0,75,68,0
0,66,69,0
0,36,103,0
0,49,105,0
0,53,54,0
0,58,66,0
0,65,66,0
0,58,89,0
0,47,109,0
0,58,108,0
0,63,93,2
0,54,97,0
0,63,109,0
0,54,66,34
0,61,71,0
0,66,95,0
0,42,69,2
0,68,83,0
0,56,77,0
0,63,77,0
0,38,83,34
0,42,92,0
0,58,82,0
0,70,72,0
0,66,82,0
0,42,72,2
0,54,72,0
0,66,67,0
0,63,85,0
0,36,97,24
0,42,85,0
0,42,73,2
0,38,87,40
0,42,85,0
0,54,66,2
0,42,82,2
0,75,58,0
0,63,104,0
0,58,95,0
0,36,99,0
0,42,95,0
0,54,82,0
0,78,83,2
0,71,18,0
0,42,80,0
0,58,83,10
0,63,93,0
0,54,73,2
0,38,85,24
0,42,95,0
0,54,71,2
0,42,76,2
0,47,83,14
0,63,108,0
0,54,99,0
0,58,99,0
0,35,114,2
0,23,118,0
0,36,90,0
0,42,90,0
0,37,111,4
0,68,71,0
0,73,61,0
0,65,67,0
0,25,120,0
0,37,127,0
0,42,85,0
0,63,108,2
0,49,111,0
0,61,99,0
0,54,91,0
0,38,69,2
0,42,76,0
0,63,115,38
0,51,111,0
0,27,111,2
0,39,120,0
0,27,127,0
0,36,111,0
0,57,90,0
0,54,102,0
0,39,104,0
0,58,118,0
0,87,67,0
0,75,60,0
0,66,67,0
0,70,72,0
0,42,62,0
0,75,99,0
0,70,97,0
0,63,87,0
0,54,58,0
0,38,80,0
0,42,86,0
0,73,73,0
0,61,79,0
0,68,77,0
0,54,83,0
0,58,86,0
0,42,66,28
0,70,68,0
0,58,79,0
0,66,66,0
0,36,99,32
0,42,78,0
0,70,87,0
0,75,87,0
0,63,76,0
0,46,16,0
0,42,73,0
0,73,58,0
0,61,63,0
0,68,44,0
0,58,62,22
0,38,81,0
0,42,77,0
0,54,43,0
0,75,85,0
0,70,82,0
0,63,77,0
0,51,39,0
0,58,91,2
0,42,77,0
0,73,67,0
0,61,77,0
0,68,63,0
0,54,73,0
0,63,70,2
0,66,62,2
0,63,71,0
0,51,41,0
0,77,63,0
0,36,99,0
0,42,92,0
0,58,72,0
0,66,61,0
0,70,77,0
0,54,43,2
0,42,70,0
0,68,72,0
0,73,68,0
0,61,72,0
0,58,64,26
0,42,83,2
0,38,73,0
0,66,75,0
0,70,82,0
0,58,83,0
0,42,82,0
0,68,71,0
0,73,79,0
0,61,79,0
0,63,74,2
0,54,66,0
0,58,66,0
0,51,58,6
0,73,61,0
0,42,77,0
0,36,93,0
0,70,63,0
0,63,75,0
0,58,63,0
0,58,62,2
0,63,75,2
0,42,77,2
0,61,80,0
0,56,83,0
0,68,79,0
0,54,75,2
0,58,73,0
0,63,74,0
0,38,75,2
0,42,93,0
0,54,89,0
0,61,72,0
0,66,79,0
0,46,76,0
0,35,115,6
0,35,116,0
0,23,124,0
0,75,68,0
0,70,61,0
0,66,64,0
0,63,64,0
0,36,109,0
0,57,81,0
0,49,83,0
0,68,85,0
0,56,82,0
0,66,107,0
0,63,111,0
0,59,74,0
0,63,113,0
0,47,102,0
0,58,84,0
0,53,86,0
0,56,71,10
0,63,54,26
0,70,87,0
0,58,83,0
0,42,77,4
0,73,71,0
0,68,80,0
0,61,77,0
0,38,89,2
0,42,85,0
0,63,77,0
0,58,68,0
0,70,75,0
0,42,81,6
0,68,64,0
0,61,65,0
0,56,67,0
0,36,103,2
0,42,90,0
0,66,76,0
0,54,87,0
0,58,64,0
0,59,37,0
0,42,83,0
0,63,79,0
0,51,67,0
0,56,65,2
0,63,52,0
0,63,58,0
0,38,82,2
0,42,85,0
0,59,56,0
0,66,80,0
0,54,83,0
0,56,79,10
0,63,58,0
0,56,95,14
0,42,90,2
0,63,83,0
0,47,74,14
0,63,102,0
0,56,99,0
0,36,105,0
0,42,92,0
0,49,86,0
0,63,55,2
0,70,85,0
0,58,77,0
0,42,66,0
0,73,73,30
0,63,60,0
0,58,71,0
0,70,68,0
0,42,90,0
0,38,76,0
0,42,81,24
0,36,90,32
0,42,92,0
0,42,80,0
0,38,74,8
0,42,83,0
0,42,73,0
0,58,63,0
0,66,67,0
0,63,56,0
0,39,113,0
0,36,93,0
0,42,101,0
0,54,39,0
0,51,55,0
0,63,62,4
0,70,97,2
0,42,85,0
0,63,45,14
0,58,62,2
0,54,34,0
0,70,92,0
0,38,66,0
0,42,80,0
0,58,45,2
0,51,40,0
0,39,113,6
0,70,103,0
0,42,81,0
0,58,82,0
0,63,73,0
0,54,61,2
0,56,58,0
0,56,61,0
0,32,107,0
0,68,107,0
0,36,85,0
0,42,87,0
0,63,26,2
0,59,47,0
0,44,51,0
0,66,99,2
0,42,75,0
0,59,57,0
0,56,44,28
0,63,71,0
0,65,92,2
0,38,75,0
0,42,85,0
0,51,41,2
0,68,60,8
0,59,65,0
0,44,46,0
0,32,107,2
0,63,101,0
0,42,71,0
0,63,36,0
0,58,74,0
0,63,55,0
0,54,47,0
0,66,76,0
0,39,105,2
0,42,93,0
0,36,92,0
0,46,68,0
0,42,77,4
0,63,59,2
0,54,31,0
0,38,89,0
0,42,92,0
0,58,48,0
0,54,44,8
0,70,61,0
0,66,108,2
0,39,113,0
0,42,77,0
0,58,66,2
0,63,57,0
0,71,54,14
0,56,68,0
0,59,58,0
0,65,98,0
0,32,107,0
0,42,86,0
0,36,92,0
0,44,46,0
0,68,76,2
0,42,73,2
0,51,46,4
0,61,101,0
0,63,45,0
0,38,93,0
0,42,87,0
0,32,103,14
0,56,55,0
0,59,57,0
0,58,80,0
0,59,46,0
0,42,66,0
0,63,55,1
0,44,64,0
0,63,76,8
0,35,97,2
0,42,87,0
0,36,93,0
0,54,61,0
0,58,87,0
0,59,55,0
0,47,67,0
0,63,62,0
0,42,67,2
0,66,71,22
0,38,85,2
0,42,82,0
0,58,55,0
0,54,51,0
0,63,65,0
0,47,59,2
0,63,92,2
0,70,64,0
0,42,71,0
0,49,59,0
0,61,48,0
0,53,40,0
0,37,99,2
0,61,101,0
0,68,72,0
0,42,89,0
0,36,92,0
0,63,103,4
0,42,73,0
0,65,54,0
0,61,68,28
0,53,39,0
0,61,56,0
0,37,113,2
0,61,103,0
0,38,87,0
0,42,85,0
0,59,18,2
0,49,66,4
0,42,65,1
0,58,94,0
0,58,71,4
0,54,48,0
0,58,66,0
0,42,44,0
0,61,62,0
0,30,111,2
0,36,90,0
0,42,85,0
0,61,66,2
0,42,63,2
0,54,58,8
0,58,64,0
0,61,64,4
0,66,73,12
0,49,64,0
0,38,90,2
0,42,77,0
0,70,77,32
0,54,40,2
0,46,63,0
0,58,64,2
0,61,68,0
0,36,89,0
0,42,52,0
0,73,69,2
0,61,84,0
0,58,73,0
0,54,51,0
0,49,61,0
0,30,111,2
0,42,54,0
0,61,47,6
0,61,64,0
0,54,46,0
0,58,75,0
0,38,95,0
0,42,73,0
0,63,65,2
0,49,58,0
0,30,105,2
0,42,63,0
0,64,70,0
0,52,60,0
0,56,73,0
0,37,117,2
0,36,93,0
0,42,90,0
0,61,74,0
0,42,59,1
0,64,87,0
0,61,47,2
0,52,43,2
0,56,58,0
0,38,92,2
0,42,68,0
0,64,89,0
0,61,60,0
0,56,68,0
0,37,115,4
0,42,80,0
0,64,87,0
0,61,64,2
0,64,45,0
0,61,37,12
0,56,53,0
0,52,31,0
0,32,105,0
0,42,83,0
0,36,87,0
0,64,90,0
0,68,54,0
0,61,63,10
0,52,47,4
0,56,73,0
0,52,41,8
0,42,64,2
0,68,101,0
0,64,23,0
0,56,49,0
0,52,59,6
0,61,75,0
0,56,87,0
0,37,99,0
0,38,86,0
0,42,89,0
0,66,101,0
0,61,48,2
0,42,63,2
0,63,105,0
0,52,28,0
0,64,47,0
0,54,71,4
0,59,59,0
0,35,99,2
0,42,86,0
0,36,90,0
0,59,46,0
0,51,36,0
0,63,58,2
0,42,66,2
0,51,63,34
0,59,71,0
0,42,78,2
0,38,87,0
0,54,81,0
0,66,64,2
0,42,62,2
0,51,58,10
0,63,114,2
0,51,59,11
0,35,93,2
0,59,51,0
0,36,92,0
0,42,77,0
0,63,111,0
0,63,59,2
0,51,65,2
0,58,81,0
0,61,78,0
0,39,107,2
0,36,93,0
0,42,55,0
0,65,95,0
0,54,66,0
0,65,75,0
0,38,87,0
0,42,75,0
0,51,81,20
0,32,109,2
0,66,103,0
0,66,82,0
0,36,101,0
0,46,78,0
0,59,81,0
0,63,82,2
0,56,81,0
0,51,58,6
0,66,103,2
0,42,62,0
0,56,63,0
0,59,62,6
0,59,65,0
0,51,64,0
0,66,99,0
0,38,82,0
0,42,77,0
0,56,86,2
0,51,33,7
0,32,107,2
0,66,93,0
0,42,67,0
0,63,67,2
0,51,38,8
0,59,40,0
0,39,115,2
0,66,93,0
0,36,95,0
0,42,83,0
0,51,79,32
0,56,69,0
0,68,55,0
0,70,97,1
0,42,73,0
0,63,72,2
0,32,105,2
0,68,99,0
0,42,73,0
0,38,92,0
0,58,63,16
0,59,37,2
0,65,101,0
0,46,71,0
0,53,61,0
0,58,58,0
0,34,115,0
0,36,97,0
0,42,52,4
0,62,49,0
0,62,64,0
0,38,95,0
0,42,74,0
0,65,51,2
0,58,86,0
0,53,64,0
0,42,67,0
0,62,60,0
0,58,68,10
0,53,47,2
0,62,47,0
0,36,89,0
0,42,78,0
0,46,66,0
0,62,26,2
0,70,48,0
0,65,54,0
0,58,86,6
0,53,78,0
0,62,64,2
0,46,81,4
0,42,85,0
0,34,85,0
0,58,97,0
0,53,78,0
0,42,80,0
0,38,77,0
0,41,101,0
0,46,95,2
0,42,80,2
0,34,109,0
0,75,66,0
0,54,67,0
0,36,107,0
0,42,90,0
0,55,86,0
0,39,111,0
0,87,72,0
0,51,66,0
0,58,70,0
0,70,97,14
0,42,57,0
0,70,101,0
0,38,76,0
0,42,77,0
0,58,52,2
0,54,58,0
0,51,99,10
0,39,109,2
0,70,107,0
0,42,86,0
0,63,51,0
0,51,59,0
0,56,75,0
0,32,107,2
0,68,103,0
0,36,92,0
0,42,90,0
0,59,64,0
0,68,64,0
0,66,101,2
0,42,61,0
0,56,59,16
0,71,64,0
0,65,95,0
0,42,69,0
0,38,82,0
0,59,36,0
0,51,48,2
0,44,90,12
0,32,103,0
0,63,105,0
0,42,70,0
0,78,76,6
0,46,68,0
0,51,41,0
0,39,113,2
0,42,78,0
0,36,92,0
0,58,55,2
0,54,62,0
0,75,76,0
0,42,51,2
0,58,63,6
0,70,71,0
0,42,82,2
0,38,92,0
0,54,70,0
0,51,52,0
0,66,51,6
0,66,101,2
0,39,103,0
0,42,66,0
0,68,60,0
0,51,55,0
0,59,56,0
0,56,61,0
0,65,95,2
0,32,109,0
0,36,92,0
0,42,82,0
0,71,56,2
0,42,66,2
0,59,59,2
0,68,75,0
0,61,103,2
0,38,77,0
0,42,86,0
0,56,63,0
0,51,65,10
0,32,105,2
0,63,67,0
0,58,103,0
0,42,61,0
0,54,73,18
0,59,74,0
0,35,105,2
0,36,101,0
0,42,86,0
0,58,83,0
0,61,54,0
0,47,63,0
0,42,56,2
0,63,57,2
0,66,59,20
0,38,78,2
0,42,87,0
0,54,71,0
0,58,84,0
0,70,67,0
0,47,63,0
0,63,103,2
0,42,66,0
0,53,45,10
0,68,76,0
0,49,79,0
0,37,103,0
0,61,97,0
0,42,89,0
0,36,99,0
0,53,52,0
0,61,69,2
0,56,60,0
0,65,58,22
0,63,107,0
0,42,71,0
0,49,46,0
0,73,68,0
0,56,71,0
0,61,52,0
0,53,45,0
0,37,92,0
0,61,99,0
0,38,86,0
0,42,82,0
0,49,58,0
0,71,58,2
0,58,93,0
0,42,68,0
0,70,65,0
0,58,93,0
0,54,89,0
0,42,83,0
0,61,70,0
0,30,105,0
0,36,99,0
0,42,93,0
0,49,73,0
0,73,71,2
0,42,59,2
0,58,60,8
0,54,46,2
0,49,66,14
0,38,87,2
0,42,85,0
0,78,51,2
0,54,84,0
0,42,73,2
0,82,58,0
0,58,84,0
0,78,67,2
0,36,87,2
0,42,77,0
0,54,42,6
0,49,80,2
0,30,109,0
0,73,64,0
0,36,90,0
0,42,75,0
0,70,51,6
0,58,102,0
0,54,89,0
0,63,70,0
0,42,82,0
0,38,97,0
0,66,53,6
0,49,69,0
0,30,103,0
0,46,90,0
0,36,80,0
0,61,67,2
0,52,63,0
0,64,70,0
0,37,105,0
0,49,103,0
0,36,101,0
0,56,75,0
0,49,84,0
0,59,55,0
0,68,90,2
0,64,42,0
0,68,62,0
0,63,70,2
0,38,89,0
0,68,97,0
0,52,46,2
0,56,64,0
0,73,58,19
0,37,109,0
0,42,73,0
0,68,92,0
0,52,28,12
0,56,63,2
0,68,51,0
0,61,70,2
0,32,103,0
0,36,95,0
0,42,95,0
0,68,97,0
0,49,52,2
0,52,63,2
0,56,81,0
0,64,53,2
0,49,71,0
0,37,103,2
0,42,62,0
0,70,92,0
0,52,53,0
0,56,75,0
0,59,70,2
0,73,54,0
0,42,85,0
0,38,93,0
0,71,90,0
0,49,65,0
0,68,45,0
0,37,107,2
0,42,61,0
0,70,101,0
0,73,66,0
0,58,71,0
0,54,63,0
0,58,70,2
0,30,111,0
0,36,97,0
0,42,93,0
0,42,70,0
0,68,87,0
0,70,57,2
0,42,62,2
0,66,93,0
0,49,59,6
0,58,79,0
0,54,73,0
0,66,50,0
0,42,90,2
0,38,87,0
0,49,53,10
0,70,39,0
0,30,101,2
0,66,90,0
0,42,73,0
0,54,70,0
0,71,51,0
0,35,95,0
0,68,97,0
0,36,92,0
0,42,81,0
0,51,56,0
0,59,65,0
0,47,54,0
0,54,67,0
0,70,99,0
0,42,71,0
0,66,80,0
0,59,69,12
0,71,92,2
0,38,86,0
0,42,92,0
0,63,67,0
0,54,46,0
0,59,53,4
0,47,83,0
0,35,87,2
0,70,97,0
0,42,81,0
0,73,76,0
0,30,99,0
0,36,95,0
0,42,92,0
0,61,79,0
0,54,56,0
0,46,73,0
0,68,92,14
0,42,71,2
0,66,85,0
0,70,67,0
0,54,84,0
0,66,71,0
0,42,90,2
0,38,59,0
0,30,105,36
0,66,93,0
0,46,90,0
0,61,55,0
0,42,77,0
0,51,56,6
0,59,67,0
0,35,92,2
0,68,105,0
0,36,92,0
0,42,92,0
0,47,63,0
0,54,56,0
0,59,47,0
0,70,99,2
0,42,70,0
0,63,65,0
0,51,68,2
0,54,70,0
0,66,58,0
0,71,90,2
0,38,97,0
0,42,93,0
0,47,78,6
0,35,90,2
0,70,105,0
0,42,77,0
0,71,24,2
0,58,81,4
0,53,65,0
