track,note,velocity,time
1.0,78.0,55.0,4.0
1.0,77.0,48.0,1436.0
1.0,78.0,0.0,4.0
1.0,77.0,0.0,236.0
1.0,78.0,53.0,0.0
1.0,78.0,0.0,240.0
1.0,80.0,57.0,0.0
1.0,80.0,0.0,240.0
1.0,78.0,55.0,0.0
1.0,78.0,0.0,240.0
1.0,76.0,52.0,0.0
1.0,76.0,0.0,240.0
1.0,75.0,49.0,0.0
1.0,75.0,0.0,240.0
1.0,64.0,39.0,0.0
1.0,73.0,47.0,0.0
1.0,73.0,0.0,240.0
1.0,64.0,0.0,0.0
1.0,66.0,40.0,0.0
1.0,66.0,0.0,120.0
1.0,70.0,36.0,0.0
1.0,70.0,0.0,120.0
1.0,68.0,46.0,0.0
1.0,68.0,0.0,240.0
1.0,66.0,42.0,0.0
1.0,66.0,0.0,216.0
1.0,66.0,41.0,24.0
1.0,66.0,0.0,240.0
1.0,75.0,41.0,0.0
1.0,75.0,0.0,240.0
1.0,64.0,39.0,0.0
1.0,73.0,47.0,0.0
1.0,73.0,0.0,240.0
1.0,64.0,0.0,0.0
1.0,66.0,44.0,0.0
1.0,66.0,0.0,120.0
1.0,70.0,33.0,0.0
1.0,70.0,0.0,120.0
1.0,68.0,45.0,0.0
1.0,68.0,0.0,240.0
1.0,66.0,43.0,0.0
1.0,66.0,0.0,216.0
1.0,66.0,43.0,24.0
1.0,66.0,0.0,240.0
1.0,75.0,43.0,0.0
1.0,75.0,0.0,240.0
1.0,64.0,40.0,0.0
1.0,73.0,48.0,0.0
1.0,73.0,0.0,240.0
1.0,64.0,0.0,0.0
1.0,66.0,52.0,0.0
1.0,66.0,0.0,240.0
1.0,63.0,59.0,0.0
1.0,71.0,59.0,0.0
1.0,71.0,0.0,240.0
1.0,63.0,0.0,0.0
1.0,66.0,56.0,0.0
1.0,66.0,0.0,240.0
1.0,71.0,51.0,0.0
1.0,75.0,60.0,0.0
1.0,75.0,0.0,240.0
1.0,71.0,0.0,0.0
1.0,66.0,56.0,0.0
1.0,66.0,0.0,240.0
1.0,71.0,45.0,0.0
1.0,77.0,53.0,0.0
1.0,77.0,0.0,240.0
1.0,71.0,0.0,0.0
1.0,66.0,47.0,0.0
1.0,78.0,56.0,0.0
1.0,78.0,0.0,240.0
1.0,66.0,0.0,0.0
1.0,80.0,62.0,0.0
1.0,71.0,52.0,0.0
1.0,71.0,0.0,240.0
1.0,80.0,0.0,0.0
1.0,66.0,48.0,0.0
1.0,78.0,57.0,0.0
1.0,78.0,0.0,240.0
1.0,66.0,0.0,0.0
1.0,71.0,46.0,0.0
1.0,76.0,55.0,0.0
1.0,76.0,0.0,240.0
1.0,71.0,0.0,0.0
1.0,66.0,45.0,0.0
1.0,75.0,53.0,0.0
1.0,75.0,0.0,240.0
1.0,66.0,0.0,0.0
1.0,64.0,48.0,0.0
1.0,73.0,57.0,0.0
1.0,73.0,0.0,240.0
1.0,64.0,0.0,0.0
1.0,66.0,56.0,0.0
1.0,66.0,0.0,120.0
1.0,70.0,43.0,0.0
1.0,70.0,0.0,120.0
1.0,68.0,55.0,0.0
1.0,68.0,0.0,240.0
1.0,66.0,52.0,0.0
1.0,66.0,0.0,216.0
1.0,66.0,52.0,24.0
1.0,66.0,0.0,240.0
1.0,75.0,52.0,0.0
1.0,75.0,0.0,240.0
1.0,64.0,49.0,0.0
1.0,73.0,58.0,0.0
1.0,73.0,0.0,240.0
1.0,64.0,0.0,0.0
1.0,66.0,55.0,0.0
1.0,66.0,0.0,120.0
1.0,70.0,41.0,0.0
1.0,70.0,0.0,120.0
1.0,68.0,52.0,0.0
1.0,68.0,0.0,240.0
1.0,66.0,51.0,0.0
1.0,66.0,0.0,216.0
1.0,66.0,51.0,24.0
1.0,66.0,0.0,240.0
1.0,75.0,51.0,0.0
1.0,75.0,0.0,240.0
1.0,64.0,51.0,0.0
1.0,73.0,61.0,0.0
1.0,73.0,0.0,240.0
1.0,64.0,0.0,0.0
1.0,66.0,56.0,0.0
1.0,66.0,0.0,240.0
1.0,63.0,54.0,0.0
1.0,71.0,64.0,0.0
1.0,71.0,0.0,240.0
1.0,63.0,0.0,0.0
1.0,66.0,59.0,0.0
1.0,66.0,0.0,240.0
1.0,71.0,56.0,0.0
1.0,75.0,67.0,0.0
1.0,75.0,0.0,240.0
1.0,71.0,0.0,0.0
1.0,66.0,62.0,0.0
1.0,66.0,0.0,240.0
1.0,71.0,59.0,0.0
1.0,78.0,70.0,0.0
1.0,78.0,0.0,240.0
1.0,71.0,0.0,0.0
1.0,66.0,66.0,0.0
1.0,66.0,0.0,240.0
1.0,79.0,74.0,0.0
1.0,71.0,62.0,0.0
1.0,71.0,0.0,240.0
1.0,79.0,0.0,0.0
1.0,67.0,69.0,0.0
1.0,67.0,0.0,240.0
1.0,80.0,76.0,0.0
1.0,71.0,64.0,0.0
1.0,71.0,0.0,240.0
1.0,80.0,0.0,0.0
1.0,68.0,70.0,0.0
1.0,68.0,0.0,240.0
1.0,75.0,64.0,0.0
1.0,83.0,76.0,0.0
1.0,83.0,0.0,240.0
1.0,75.0,0.0,0.0
1.0,75.0,66.0,0.0
1.0,75.0,0.0,120.0
1.0,78.0,46.0,0.0
1.0,78.0,0.0,120.0
1.0,76.0,70.0,0.0
1.0,76.0,0.0,240.0
1.0,75.0,66.0,0.0
1.0,75.0,0.0,240.0
1.0,71.0,69.0,0.0
1.0,71.0,0.0,240.0
1.0,83.0,57.0,0.0
1.0,80.0,48.0,0.0
1.0,80.0,0.0,240.0
1.0,83.0,0.0,0.0
1.0,78.0,54.0,0.0
1.0,82.0,64.0,0.0
1.0,82.0,0.0,240.0
1.0,78.0,0.0,0.0
1.0,75.0,65.0,0.0
1.0,75.0,0.0,240.0
1.0,70.0,65.0,0.0
1.0,70.0,0.0,120.0
1.0,73.0,47.0,0.0
1.0,73.0,0.0,120.0
1.0,71.0,65.0,0.0
1.0,71.0,0.0,240.0
1.0,70.0,63.0,0.0
1.0,70.0,0.0,240.0
1.0,78.0,57.0,0.0
1.0,75.0,48.0,0.0
1.0,75.0,0.0,240.0
1.0,78.0,0.0,0.0
1.0,71.0,60.0,0.0
1.0,68.0,60.0,0.0
1.0,68.0,0.0,240.0
1.0,64.0,58.0,0.0
1.0,64.0,0.0,120.0
1.0,68.0,48.0,0.0
1.0,68.0,0.0,120.0
1.0,66.0,63.0,0.0
1.0,66.0,0.0,240.0
1.0,64.0,54.0,0.0
1.0,64.0,0.0,240.0
1.0,68.0,57.0,0.0
1.0,71.0,0.0,240.0
1.0,73.0,59.0,0.0
1.0,73.0,0.0,240.0
1.0,68.0,0.0,0.0
1.0,71.0,61.0,0.0
1.0,75.0,61.0,0.0
1.0,71.0,0.0,240.0
1.0,63.0,51.0,0.0
1.0,63.0,0.0,240.0
1.0,66.0,51.0,0.0
1.0,66.0,0.0,240.0
1.0,63.0,55.0,0.0
1.0,63.0,0.0,240.0
1.0,66.0,51.0,0.0
1.0,66.0,0.0,240.0
1.0,68.0,49.0,0.0
1.0,68.0,0.0,240.0
1.0,75.0,0.0,0.0
1.0,64.0,48.0,0.0
1.0,73.0,57.0,0.0
1.0,73.0,0.0,240.0
1.0,64.0,0.0,0.0
1.0,66.0,52.0,0.0
1.0,66.0,0.0,120.0
1.0,68.0,40.0,0.0
1.0,68.0,0.0,60.0
1.0,70.0,40.0,0.0
1.0,70.0,0.0,60.0
1.0,68.0,50.0,0.0
1.0,68.0,0.0,240.0
1.0,66.0,49.0,0.0
1.0,66.0,0.0,216.0
1.0,66.0,49.0,24.0
1.0,66.0,0.0,240.0
1.0,75.0,49.0,0.0
1.0,75.0,0.0,240.0
1.0,64.0,45.0,0.0
1.0,73.0,54.0,0.0
1.0,73.0,0.0,240.0
1.0,64.0,0.0,0.0
1.0,66.0,51.0,0.0
1.0,66.0,0.0,120.0
1.0,68.0,40.0,0.0
1.0,68.0,0.0,60.0
1.0,70.0,40.0,0.0
1.0,70.0,0.0,60.0
1.0,68.0,48.0,0.0
1.0,68.0,0.0,240.0
1.0,66.0,47.0,0.0
1.0,66.0,0.0,216.0
1.0,66.0,47.0,24.0
1.0,66.0,0.0,240.0
1.0,75.0,47.0,0.0
1.0,75.0,0.0,240.0
1.0,64.0,43.0,0.0
1.0,73.0,51.0,0.0
1.0,73.0,0.0,240.0
1.0,64.0,0.0,0.0
1.0,66.0,45.0,0.0
1.0,66.0,0.0,240.0
1.0,63.0,44.0,0.0
1.0,71.0,52.0,0.0
1.0,71.0,0.0,240.0
1.0,63.0,0.0,0.0
1.0,66.0,47.0,0.0
1.0,66.0,0.0,240.0
1.0,71.0,44.0,0.0
1.0,75.0,52.0,0.0
1.0,75.0,0.0,240.0
1.0,71.0,0.0,0.0
1.0,66.0,48.0,0.0
1.0,66.0,0.0,240.0
1.0,71.0,44.0,0.0
1.0,77.0,44.0,0.0
1.0,77.0,0.0,240.0
1.0,71.0,0.0,0.0
1.0,66.0,34.0,0.0
1.0,78.0,40.0,0.0
1.0,78.0,0.0,240.0
1.0,66.0,0.0,0.0
1.0,71.0,37.0,0.0
1.0,80.0,44.0,0.0
1.0,80.0,0.0,240.0
1.0,71.0,0.0,0.0
1.0,66.0,34.0,0.0
1.0,78.0,40.0,0.0
1.0,78.0,0.0,240.0
1.0,66.0,0.0,0.0
1.0,71.0,32.0,0.0
1.0,76.0,38.0,0.0
1.0,76.0,0.0,240.0
1.0,71.0,0.0,0.0
1.0,66.0,32.0,0.0
1.0,75.0,38.0,0.0
1.0,75.0,0.0,240.0
1.0,66.0,0.0,0.0
1.0,64.0,39.0,0.0
1.0,73.0,46.0,0.0
1.0,73.0,0.0,240.0
1.0,64.0,0.0,0.0
1.0,66.0,47.0,0.0
1.0,66.0,0.0,120.0
1.0,68.0,32.0,0.0
1.0,68.0,0.0,60.0
1.0,70.0,32.0,0.0
1.0,70.0,0.0,60.0
1.0,68.0,44.0,0.0
1.0,68.0,0.0,240.0
1.0,66.0,44.0,0.0
1.0,66.0,0.0,216.0
1.0,66.0,44.0,24.0
1.0,66.0,0.0,240.0
1.0,75.0,44.0,0.0
1.0,75.0,0.0,240.0
1.0,64.0,42.0,0.0
1.0,73.0,50.0,0.0
1.0,73.0,0.0,240.0
1.0,64.0,0.0,0.0
1.0,66.0,47.0,0.0
1.0,66.0,0.0,120.0
1.0,68.0,31.0,0.0
1.0,68.0,0.0,60.0
1.0,70.0,31.0,0.0
1.0,70.0,0.0,60.0
1.0,68.0,43.0,0.0
1.0,68.0,0.0,240.0
1.0,66.0,43.0,0.0
1.0,66.0,0.0,216.0
1.0,66.0,43.0,24.0
1.0,66.0,0.0,240.0
1.0,78.0,43.0,0.0
1.0,63.0,50.0,180.0
1.0,78.0,0.0,60.0
1.0,78.0,53.0,0.0
1.0,78.0,0.0,1440.0
1.0,63.0,0.0,0.0
1.0,77.0,58.0,0.0
1.0,77.0,0.0,240.0
1.0,78.0,60.0,0.0
1.0,78.0,0.0,240.0
1.0,80.0,63.0,0.0
1.0,80.0,0.0,240.0
1.0,78.0,60.0,0.0
1.0,78.0,0.0,240.0
1.0,76.0,58.0,0.0
1.0,76.0,0.0,240.0
1.0,75.0,54.0,0.0
1.0,75.0,0.0,240.0
1.0,75.0,51.0,0.0
1.0,75.0,0.0,720.0
1.0,67.0,38.0,0.0
1.0,74.0,45.0,0.0
1.0,74.0,0.0,240.0
1.0,67.0,0.0,0.0
1.0,75.0,50.0,0.0
1.0,75.0,0.0,240.0
1.0,76.0,50.0,0.0
1.0,76.0,0.0,240.0
1.0,68.0,37.0,0.0
1.0,75.0,44.0,0.0
1.0,75.0,0.0,240.0
1.0,73.0,51.0,0.0
1.0,73.0,0.0,240.0
1.0,71.0,49.0,0.0
1.0,71.0,0.0,240.0
1.0,68.0,0.0,0.0
1.0,75.0,46.0,0.0
1.0,64.0,39.0,0.0
1.0,75.0,0.0,240.0
1.0,73.0,52.0,0.0
1.0,73.0,0.0,240.0
1.0,71.0,49.0,0.0
1.0,71.0,0.0,240.0
1.0,64.0,0.0,0.0
1.0,63.0,39.0,0.0
1.0,71.0,46.0,0.0
1.0,71.0,0.0,1440.0
1.0,63.0,0.0,0.0
1.0,63.0,32.0,0.0
1.0,66.0,38.0,0.0
1.0,66.0,0.0,1440.0
1.0,63.0,0.0,0.0
1.0,63.0,38.0,0.0
1.0,63.0,0.0,1440.0
2.0,58.0,33.0,1430.0
2.0,58.0,0.0,169.0
2.0,54.0,31.0,0.0
2.0,54.0,0.0,240.0
2.0,49.0,34.0,0.0
2.0,49.0,0.0,240.0
2.0,42.0,31.0,0.0
2.0,42.0,0.0,240.0
2.0,49.0,33.0,0.0
2.0,49.0,0.0,240.0
2.0,54.0,33.0,0.0
2.0,54.0,0.0,240.0
2.0,58.0,36.0,0.0
2.0,58.0,0.0,92.0
2.0,54.0,33.0,0.0
2.0,54.0,0.0,240.0
2.0,49.0,33.0,0.0
2.0,49.0,0.0,240.0
2.0,42.0,33.0,0.0
2.0,42.0,0.0,240.0
2.0,49.0,33.0,0.0
2.0,49.0,0.0,240.0
2.0,54.0,33.0,0.0
2.0,54.0,0.0,240.0
2.0,47.0,39.0,0.0
2.0,47.0,0.0,120.0
2.0,54.0,35.0,0.0
2.0,54.0,0.0,240.0
2.0,47.0,43.0,0.0
2.0,47.0,0.0,240.0
2.0,54.0,38.0,0.0
2.0,54.0,0.0,240.0
2.0,51.0,44.0,0.0
2.0,51.0,0.0,240.0
2.0,59.0,40.0,0.0
2.0,59.0,0.0,240.0
2.0,63.0,32.0,0.0
2.0,63.0,0.0,240.0
2.0,54.0,33.0,0.0
2.0,54.0,0.0,240.0
2.0,59.0,39.0,0.0
2.0,59.0,0.0,240.0
2.0,51.0,33.0,0.0
2.0,51.0,0.0,228.0
2.0,54.0,36.0,0.0
2.0,54.0,0.0,240.0
2.0,47.0,33.0,0.0
2.0,47.0,0.0,240.0
2.0,58.0,40.0,0.0
2.0,58.0,0.0,155.0
2.0,54.0,37.0,0.0
2.0,54.0,0.0,240.0
2.0,49.0,40.0,0.0
2.0,49.0,0.0,240.0
2.0,42.0,36.0,0.0
2.0,42.0,0.0,240.0
2.0,49.0,36.0,0.0
2.0,49.0,0.0,240.0
2.0,54.0,36.0,0.0
2.0,54.0,0.0,240.0
2.0,58.0,40.0,0.0
2.0,58.0,0.0,127.0
2.0,54.0,34.0,0.0
2.0,54.0,0.0,240.0
2.0,49.0,38.0,0.0
2.0,49.0,0.0,240.0
2.0,42.0,35.0,0.0
2.0,42.0,0.0,240.0
2.0,49.0,38.0,0.0
2.0,49.0,0.0,240.0
2.0,54.0,32.0,0.0
2.0,54.0,0.0,240.0
2.0,47.0,41.0,0.0
2.0,47.0,0.0,120.0
2.0,54.0,37.0,0.0
2.0,54.0,0.0,240.0
2.0,47.0,45.0,0.0
2.0,47.0,0.0,240.0
2.0,54.0,36.0,0.0
2.0,54.0,0.0,240.0
2.0,51.0,48.0,0.0
2.0,51.0,0.0,240.0
2.0,59.0,39.0,0.0
2.0,59.0,0.0,240.0
2.0,63.0,48.0,0.0
2.0,63.0,0.0,240.0
2.0,54.0,39.0,0.0
2.0,54.0,0.0,114.0
2.0,61.0,52.0,0.0
2.0,61.0,0.0,240.0
2.0,52.0,48.0,0.0
2.0,52.0,0.0,240.0
2.0,59.0,53.0,0.0
2.0,59.0,0.0,91.0
2.0,51.0,49.0,0.0
2.0,51.0,0.0,240.0
2.0,44.0,54.0,0.0
2.0,44.0,0.0,113.0
2.0,51.0,47.0,0.0
2.0,51.0,0.0,240.0
2.0,63.0,54.0,0.0
2.0,63.0,0.0,240.0
2.0,56.0,47.0,0.0
2.0,56.0,0.0,240.0
2.0,63.0,52.0,0.0
2.0,63.0,0.0,240.0
2.0,59.0,35.0,0.0
2.0,59.0,0.0,240.0
2.0,51.0,39.0,0.0
2.0,51.0,0.0,141.0
2.0,66.0,44.0,0.0
2.0,66.0,0.0,240.0
2.0,58.0,49.0,0.0
2.0,58.0,0.0,240.0
2.0,54.0,40.0,0.0
2.0,54.0,0.0,240.0
2.0,63.0,47.0,0.0
2.0,63.0,0.0,240.0
2.0,58.0,49.0,0.0
2.0,58.0,0.0,240.0
2.0,40.0,53.0,0.0
2.0,40.0,0.0,113.0
2.0,59.0,38.0,0.0
2.0,59.0,0.0,240.0
2.0,47.0,36.0,0.0
2.0,47.0,0.0,240.0
2.0,56.0,35.0,0.0
2.0,56.0,0.0,240.0
2.0,59.0,37.0,0.0
2.0,59.0,0.0,240.0
2.0,52.0,42.0,0.0
2.0,52.0,0.0,240.0
2.0,47.0,40.0,0.0
2.0,47.0,0.0,137.0
2.0,53.0,40.0,0.0
2.0,53.0,0.0,240.0
2.0,54.0,47.0,0.0
2.0,54.0,0.0,240.0
2.0,61.0,48.0,0.0
2.0,61.0,0.0,114.0
2.0,59.0,43.0,0.0
2.0,59.0,0.0,240.0
2.0,56.0,35.0,0.0
2.0,56.0,0.0,240.0
2.0,58.0,38.0,0.0
2.0,58.0,0.0,173.0
2.0,54.0,31.0,0.0
2.0,54.0,0.0,240.0
2.0,49.0,36.0,0.0
2.0,49.0,0.0,240.0
2.0,42.0,30.0,0.0
2.0,42.0,0.0,240.0
2.0,49.0,34.0,0.0
2.0,49.0,0.0,240.0
2.0,54.0,34.0,0.0
2.0,54.0,0.0,240.0
2.0,58.0,36.0,0.0
2.0,58.0,0.0,169.0
2.0,54.0,33.0,0.0
2.0,54.0,0.0,240.0
2.0,49.0,35.0,0.0
2.0,49.0,0.0,240.0
2.0,42.0,31.0,0.0
2.0,42.0,0.0,240.0
2.0,49.0,32.0,0.0
2.0,49.0,0.0,240.0
2.0,54.0,30.0,0.0
2.0,54.0,0.0,240.0
2.0,35.0,35.0,0.0
2.0,35.0,0.0,53.0
2.0,42.0,32.0,0.0
2.0,42.0,0.0,240.0
2.0,47.0,36.0,0.0
2.0,47.0,0.0,240.0
2.0,54.0,31.0,0.0
2.0,54.0,0.0,240.0
2.0,51.0,37.0,0.0
2.0,51.0,0.0,240.0
2.0,59.0,33.0,0.0
2.0,59.0,0.0,240.0
2.0,62.0,27.0,0.0
2.0,62.0,0.0,103.0
2.0,63.0,27.0,0.0
2.0,63.0,0.0,240.0
2.0,64.0,29.0,0.0
2.0,64.0,0.0,240.0
2.0,63.0,27.0,0.0
2.0,63.0,0.0,226.0
2.0,61.0,30.0,0.0
2.0,61.0,0.0,240.0
2.0,59.0,29.0,0.0
2.0,59.0,0.0,240.0
2.0,58.0,36.0,0.0
2.0,58.0,0.0,180.0
2.0,49.0,30.0,240.0
2.0,49.0,0.0,240.0
2.0,42.0,30.0,0.0
2.0,42.0,0.0,240.0
2.0,49.0,30.0,0.0
2.0,49.0,0.0,240.0
2.0,54.0,30.0,0.0
2.0,54.0,0.0,240.0
2.0,58.0,35.0,0.0
2.0,58.0,0.0,194.0
2.0,54.0,29.0,0.0
2.0,54.0,0.0,240.0
2.0,49.0,34.0,0.0
2.0,49.0,0.0,240.0
2.0,42.0,31.0,0.0
2.0,42.0,0.0,152.0
2.0,49.0,31.0,0.0
2.0,49.0,0.0,240.0
2.0,58.0,34.0,0.0
2.0,58.0,0.0,240.0
2.0,47.0,33.0,0.0
2.0,54.0,33.0,0.0
2.0,54.0,0.0,1226.0
2.0,47.0,0.0,0.0
2.0,58.0,32.0,2160.0
2.0,51.0,27.0,0.0
2.0,51.0,0.0,720.0
2.0,58.0,0.0,0.0
2.0,56.0,29.0,0.0
2.0,59.0,35.0,0.0
2.0,59.0,0.0,720.0
2.0,56.0,0.0,0.0
2.0,54.0,29.0,0.0
2.0,58.0,35.0,0.0
2.0,58.0,0.0,720.0
2.0,54.0,0.0,0.0
2.0,54.0,32.0,0.0
2.0,47.0,27.0,0.0
2.0,47.0,0.0,1133.0
2.0,54.0,0.0,0.0
2.0,35.0,22.0,0.0
2.0,47.0,26.0,0.0
2.0,54.0,26.0,0.0
2.0,47.0,0.0,720.0
2.0,35.0,0.0,0.0
2.0,42.0,26.0,0.0
2.0,30.0,22.0,0.0
2.0,30.0,0.0,720.0
2.0,42.0,0.0,0.0
2.0,54.0,0.0,0.0
2.0,59.0,26.0,0.0
2.0,47.0,22.0,0.0
2.0,35.0,22.0,0.0
2.0,54.0,26.0,0.0
2.0,54.0,0.0,1226.0
2.0,59.0,0.0,0.0
2.0,47.0,0.0,0.0
2.0,35.0,0.0,0.0
0.0,0.0,0.0,0.0
0.0,0.0,0.0,0.0
0.0,0.0,0.0,0.0
0.0,0.0,0.0,0.0
0.0,0.0,0.0,0.0
0.0,0.0,0.0,0.0
0.0,0.0,0.0,0.0
0.0,0.0,0.0,0.0
0.0,0.0,0.0,0.0
0.0,0.0,0.0,0.0
0.0,0.0,0.0,0.0
0.0,0.0,0.0,0.0
0.0,0.0,0.0,0.0
0.0,0.0,0.0,0.0
0.0,0.0,0.0,0.0
0.0,0.0,0.0,0.0
0.0,0.0,0.0,0.0
0.0,0.0,0.0,0.0
0.0,0.0,0.0,0.0
0.0,0.0,0.0,0.0
0.0,0.0,0.0,0.0
0.0,0.0,0.0,0.0
0.0,0.0,0.0,0.0
0.0,0.0,0.0,0.0
0.0,0.0,0.0,0.0
0.0,0.0,0.0,0.0
0.0,0.0,0.0,0.0
0.0,0.0,0.0,0.0
0.0,0.0,0.0,0.0
0.0,0.0,0.0,0.0
0.0,0.0,0.0,0.0
0.0,0.0,0.0,0.0
0.0,0.0,0.0,0.0
0.0,0.0,0.0,0.0
0.0,0.0,0.0,0.0
0.0,0.0,0.0,0.0
0.0,0.0,0.0,0.0
0.0,0.0,0.0,0.0
0.0,0.0,0.0,0.0
0.0,0.0,0.0,0.0
0.0,0.0,0.0,0.0
0.0,0.0,0.0,0.0
0.0,0.0,0.0,0.0
0.0,0.0,0.0,0.0
0.0,0.0,0.0,0.0
0.0,0.0,0.0,0.0
0.0,0.0,0.0,0.0
0.0,0.0,0.0,0.0
0.0,0.0,0.0,0.0
0.0,0.0,0.0,0.0
0.0,0.0,0.0,0.0
0.0,0.0,0.0,0.0
0.0,0.0,0.0,0.0
0.0,0.0,0.0,0.0
0.0,0.0,0.0,0.0
0.0,0.0,0.0,0.0
0.0,0.0,0.0,0.0
0.0,0.0,0.0,0.0
0.0,0.0,0.0,0.0
0.0,0.0,0.0,0.0
0.0,0.0,0.0,0.0
0.0,0.0,0.0,0.0
0.0,0.0,0.0,0.0
0.0,0.0,0.0,0.0
0.0,0.0,0.0,0.0
0.0,0.0,0.0,0.0
0.0,0.0,0.0,0.0
0.0,0.0,0.0,0.0
0.0,0.0,0.0,0.0
0.0,0.0,0.0,0.0
0.0,0.0,0.0,0.0
0.0,0.0,0.0,0.0
0.0,0.0,0.0,0.0
0.0,0.0,0.0,0.0
0.0,0.0,0.0,0.0
0.0,0.0,0.0,0.0
0.0,0.0,0.0,0.0
0.0,0.0,0.0,0.0
0.0,0.0,0.0,0.0
0.0,0.0,0.0,0.0
0.0,0.0,0.0,0.0
0.0,0.0,0.0,0.0
0.0,0.0,0.0,0.0
0.0,0.0,0.0,0.0
0.0,0.0,0.0,0.0
0.0,0.0,0.0,0.0
0.0,0.0,0.0,0.0
0.0,0.0,0.0,0.0
0.0,0.0,0.0,0.0
0.0,0.0,0.0,0.0
0.0,0.0,0.0,0.0
0.0,0.0,0.0,0.0
0.0,0.0,0.0,0.0
0.0,0.0,0.0,0.0
0.0,0.0,0.0,0.0
0.0,0.0,0.0,0.0
0.0,0.0,0.0,0.0
0.0,0.0,0.0,0.0
0.0,0.0,0.0,0.0
0.0,0.0,0.0,0.0
0.0,0.0,0.0,0.0
0.0,0.0,0.0,0.0
0.0,0.0,0.0,0.0
0.0,0.0,0.0,0.0
0.0,0.0,0.0,0.0
0.0,0.0,0.0,0.0
0.0,0.0,0.0,0.0
0.0,0.0,0.0,0.0
0.0,0.0,0.0,0.0
0.0,0.0,0.0,0.0
0.0,0.0,0.0,0.0
0.0,0.0,0.0,0.0
0.0,0.0,0.0,0.0
0.0,0.0,0.0,0.0
0.0,0.0,0.0,0.0
0.0,0.0,0.0,0.0
0.0,0.0,0.0,0.0
0.0,0.0,0.0,0.0
0.0,0.0,0.0,0.0
0.0,0.0,0.0,0.0
0.0,0.0,0.0,0.0
0.0,0.0,0.0,0.0
0.0,0.0,0.0,0.0
0.0,0.0,0.0,0.0
0.0,0.0,0.0,0.0
0.0,0.0,0.0,0.0
0.0,0.0,0.0,0.0
0.0,0.0,0.0,0.0
0.0,0.0,0.0,0.0
0.0,0.0,0.0,0.0
0.0,0.0,0.0,0.0
0.0,0.0,0.0,0.0
0.0,0.0,0.0,0.0
0.0,0.0,0.0,0.0
0.0,0.0,0.0,0.0
0.0,0.0,0.0,0.0
0.0,0.0,0.0,0.0
0.0,0.0,0.0,0.0
0.0,0.0,0.0,0.0
0.0,0.0,0.0,0.0
0.0,0.0,0.0,0.0
0.0,0.0,0.0,0.0
0.0,0.0,0.0,0.0
0.0,0.0,0.0,0.0
0.0,0.0,0.0,0.0
0.0,0.0,0.0,0.0
0.0,0.0,0.0,0.0
0.0,0.0,0.0,0.0
0.0,0.0,0.0,0.0
0.0,0.0,0.0,0.0
0.0,0.0,0.0,0.0
0.0,0.0,0.0,0.0
0.0,0.0,0.0,0.0
0.0,0.0,0.0,0.0
0.0,0.0,0.0,0.0
0.0,0.0,0.0,0.0
0.0,0.0,0.0,0.0
0.0,0.0,0.0,0.0
0.0,0.0,0.0,0.0
0.0,0.0,0.0,0.0
0.0,0.0,0.0,0.0
0.0,0.0,0.0,0.0
0.0,0.0,0.0,0.0
0.0,0.0,0.0,0.0
0.0,0.0,0.0,0.0
0.0,0.0,0.0,0.0
0.0,0.0,0.0,0.0
0.0,0.0,0.0,0.0
0.0,0.0,0.0,0.0
0.0,0.0,0.0,0.0
0.0,0.0,0.0,0.0
0.0,0.0,0.0,0.0
0.0,0.0,0.0,0.0
0.0,0.0,0.0,0.0
0.0,0.0,0.0,0.0
0.0,0.0,0.0,0.0
0.0,0.0,0.0,0.0
0.0,0.0,0.0,0.0
0.0,0.0,0.0,0.0
0.0,0.0,0.0,0.0
0.0,0.0,0.0,0.0
0.0,0.0,0.0,0.0
0.0,0.0,0.0,0.0
0.0,0.0,0.0,0.0
0.0,0.0,0.0,0.0
0.0,0.0,0.0,0.0
0.0,0.0,0.0,0.0
0.0,0.0,0.0,0.0
0.0,0.0,0.0,0.0
0.0,0.0,0.0,0.0
0.0,0.0,0.0,0.0
0.0,0.0,0.0,0.0
0.0,0.0,0.0,0.0
0.0,0.0,0.0,0.0
0.0,0.0,0.0,0.0
0.0,0.0,0.0,0.0
0.0,0.0,0.0,0.0
0.0,0.0,0.0,0.0
0.0,0.0,0.0,0.0
0.0,0.0,0.0,0.0
0.0,0.0,0.0,0.0
0.0,0.0,0.0,0.0
0.0,0.0,0.0,0.0
0.0,0.0,0.0,0.0
0.0,0.0,0.0,0.0
0.0,0.0,0.0,0.0
0.0,0.0,0.0,0.0
0.0,0.0,0.0,0.0
0.0,0.0,0.0,0.0
0.0,0.0,0.0,0.0
0.0,0.0,0.0,0.0
0.0,0.0,0.0,0.0
0.0,0.0,0.0,0.0
0.0,0.0,0.0,0.0
0.0,0.0,0.0,0.0
0.0,0.0,0.0,0.0
0.0,0.0,0.0,0.0
0.0,0.0,0.0,0.0
0.0,0.0,0.0,0.0
0.0,0.0,0.0,0.0
0.0,0.0,0.0,0.0
0.0,0.0,0.0,0.0
0.0,0.0,0.0,0.0
0.0,0.0,0.0,0.0
0.0,0.0,0.0,0.0
0.0,0.0,0.0,0.0
0.0,0.0,0.0,0.0
0.0,0.0,0.0,0.0
0.0,0.0,0.0,0.0
0.0,0.0,0.0,0.0
0.0,0.0,0.0,0.0
0.0,0.0,0.0,0.0
0.0,0.0,0.0,0.0
0.0,0.0,0.0,0.0
0.0,0.0,0.0,0.0
0.0,0.0,0.0,0.0
0.0,0.0,0.0,0.0
0.0,0.0,0.0,0.0
0.0,0.0,0.0,0.0
0.0,0.0,0.0,0.0
0.0,0.0,0.0,0.0
0.0,0.0,0.0,0.0
0.0,0.0,0.0,0.0
0.0,0.0,0.0,0.0
0.0,0.0,0.0,0.0
0.0,0.0,0.0,0.0
0.0,0.0,0.0,0.0
0.0,0.0,0.0,0.0
0.0,0.0,0.0,0.0
0.0,0.0,0.0,0.0
0.0,0.0,0.0,0.0
0.0,0.0,0.0,0.0
0.0,0.0,0.0,0.0
0.0,0.0,0.0,0.0
0.0,0.0,0.0,0.0
0.0,0.0,0.0,0.0
0.0,0.0,0.0,0.0
0.0,0.0,0.0,0.0
0.0,0.0,0.0,0.0
0.0,0.0,0.0,0.0
0.0,0.0,0.0,0.0
0.0,0.0,0.0,0.0
0.0,0.0,0.0,0.0
0.0,0.0,0.0,0.0
0.0,0.0,0.0,0.0
0.0,0.0,0.0,0.0
0.0,0.0,0.0,0.0
0.0,0.0,0.0,0.0
0.0,0.0,0.0,0.0
0.0,0.0,0.0,0.0
0.0,0.0,0.0,0.0
0.0,0.0,0.0,0.0
0.0,0.0,0.0,0.0
0.0,0.0,0.0,0.0
0.0,0.0,0.0,0.0
0.0,0.0,0.0,0.0
0.0,0.0,0.0,0.0
0.0,0.0,0.0,0.0
0.0,0.0,0.0,0.0
0.0,0.0,0.0,0.0
0.0,0.0,0.0,0.0
0.0,0.0,0.0,0.0
0.0,0.0,0.0,0.0
0.0,0.0,0.0,0.0
0.0,0.0,0.0,0.0
0.0,0.0,0.0,0.0
0.0,0.0,0.0,0.0
0.0,0.0,0.0,0.0
0.0,0.0,0.0,0.0
0.0,0.0,0.0,0.0
0.0,0.0,0.0,0.0
0.0,0.0,0.0,0.0
0.0,0.0,0.0,0.0
0.0,0.0,0.0,0.0
0.0,0.0,0.0,0.0
0.0,0.0,0.0,0.0
0.0,0.0,0.0,0.0
0.0,0.0,0.0,0.0
0.0,0.0,0.0,0.0
0.0,0.0,0.0,0.0
0.0,0.0,0.0,0.0
0.0,0.0,0.0,0.0
0.0,0.0,0.0,0.0
0.0,0.0,0.0,0.0
0.0,0.0,0.0,0.0
0.0,0.0,0.0,0.0
0.0,0.0,0.0,0.0
0.0,0.0,0.0,0.0
0.0,0.0,0.0,0.0
0.0,0.0,0.0,0.0
0.0,0.0,0.0,0.0
0.0,0.0,0.0,0.0
0.0,0.0,0.0,0.0
0.0,0.0,0.0,0.0
0.0,0.0,0.0,0.0
0.0,0.0,0.0,0.0
0.0,0.0,0.0,0.0
0.0,0.0,0.0,0.0
0.0,0.0,0.0,0.0
0.0,0.0,0.0,0.0
0.0,0.0,0.0,0.0
0.0,0.0,0.0,0.0
0.0,0.0,0.0,0.0
0.0,0.0,0.0,0.0
0.0,0.0,0.0,0.0
0.0,0.0,0.0,0.0
0.0,0.0,0.0,0.0
0.0,0.0,0.0,0.0
0.0,0.0,0.0,0.0
0.0,0.0,0.0,0.0
0.0,0.0,0.0,0.0
0.0,0.0,0.0,0.0
0.0,0.0,0.0,0.0
0.0,0.0,0.0,0.0
0.0,0.0,0.0,0.0
0.0,0.0,0.0,0.0
0.0,0.0,0.0,0.0
0.0,0.0,0.0,0.0
0.0,0.0,0.0,0.0
0.0,0.0,0.0,0.0
0.0,0.0,0.0,0.0
0.0,0.0,0.0,0.0
0.0,0.0,0.0,0.0
0.0,0.0,0.0,0.0
0.0,0.0,0.0,0.0
0.0,0.0,0.0,0.0
0.0,0.0,0.0,0.0
0.0,0.0,0.0,0.0
0.0,0.0,0.0,0.0
0.0,0.0,0.0,0.0
0.0,0.0,0.0,0.0
0.0,0.0,0.0,0.0
0.0,0.0,0.0,0.0
0.0,0.0,0.0,0.0
0.0,0.0,0.0,0.0
0.0,0.0,0.0,0.0
0.0,0.0,0.0,0.0
0.0,0.0,0.0,0.0
0.0,0.0,0.0,0.0
0.0,0.0,0.0,0.0
