track,note,velocity,time
1,60,111,0
1,62,104,52
1,60,0,12
1,62,0,48
1,63,111,2
1,63,0,53
1,67,110,6
1,60,111,60
1,67,0,12
1,62,99,52
1,60,0,13
1,63,113,44
1,62,0,3
1,63,0,51
1,67,114,5
1,60,117,57
1,67,0,13
1,62,104,50
1,60,0,15
1,63,116,46
1,62,0,1
1,63,0,55
1,67,108,5
1,60,101,58
1,67,0,5
1,62,96,55
1,60,0,19
1,62,0,38
1,63,111,1
1,63,0,62
1,67,107,2
1,79,114,53
1,60,103,2
1,67,0,13
1,62,98,48
1,60,0,21
1,62,0,38
1,63,98,1
1,63,0,63
1,67,114,0
1,60,108,56
1,67,0,18
1,62,104,43
1,60,0,21
1,63,113,38
1,62,0,6
1,63,0,49
1,77,102,3
1,67,104,1
1,79,0,9
1,60,101,50
1,75,116,0
1,77,0,12
1,67,0,28
1,62,101,18
1,60,0,22
1,63,111,39
1,62,0,7
1,63,0,50
1,67,97,5
1,74,103,1
1,75,0,9
1,74,0,49
1,60,95,2
1,72,107,1
1,67,0,9
1,62,95,48
1,60,0,28
1,63,111,34
1,62,0,6
1,63,0,52
1,77,103,1
1,67,103,4
1,72,0,2
1,77,0,4
1,55,106,0
1,79,111,0
1,67,0,3
1,58,72,61
1,62,102,63
1,67,101,59
1,74,118,56
1,79,0,10
1,62,0,4
1,58,0,4
1,55,0,2
1,67,0,0
1,67,101,43
1,67,0,48
1,62,98,16
1,58,86,55
1,62,0,13
1,58,0,36
1,55,106,7
1,58,94,62
1,55,0,39
1,58,0,12
1,62,112,7
1,62,0,29
1,63,100,29
1,63,0,29
1,62,108,32
1,62,0,55
1,58,98,6
1,58,0,44
1,55,107,13
1,58,103,57
1,55,0,7
1,58,0,5
1,75,105,2
1,60,106,3
1,74,0,1
1,62,107,61
1,60,0,8
1,62,0,44
1,63,107,5
1,63,0,62
1,67,108,4
1,60,111,56
1,67,0,16
1,62,104,44
1,60,0,10
1,62,0,49
1,63,116,1
1,74,91,59
1,63,0,1
1,67,111,3
1,75,0,7
1,74,0,48
1,60,98,1
1,72,106,1
1,67,0,11
1,62,98,49
1,60,0,24
1,63,109,37
1,62,0,1
1,63,0,53
1,74,108,4
1,67,105,0
1,72,0,9
1,75,111,52
1,60,108,0
1,74,0,10
1,67,0,5
1,62,98,45
1,60,0,54
1,63,116,6
1,62,0,4
1,63,0,51
1,77,98,0
1,67,106,4
1,75,0,9
1,67,0,3
1,79,115,2
1,55,105,2
1,77,0,6
1,58,82,50
1,62,111,64
1,62,0,51
1,58,0,0
1,55,0,0
1,67,107,6
1,69,99,61
1,67,0,2
1,69,0,53
1,67,90,4
1,67,0,54
1,70,113,5
1,67,94,60
1,70,0,11
1,67,0,40
1,74,106,9
1,74,0,17
1,58,100,43
1,58,0,15
1,62,104,45
1,62,0,55
1,67,102,6
1,67,0,51
1,69,115,9
1,67,81,57
1,69,0,8
1,67,0,45
1,70,105,8
1,70,0,17
1,75,109,44
1,79,0,7
1,46,86,31
1,75,0,2
1,77,98,3
1,50,87,60
1,50,0,54
1,46,0,0
1,53,107,4
1,53,0,18
1,58,102,49
1,58,0,51
1,62,102,6
1,58,102,61
1,62,0,45
1,58,0,10
1,53,102,2
1,58,109,61
1,79,105,3
1,53,0,3
1,77,0,10
1,58,0,1
1,80,107,9
1,41,115,0
1,79,0,10
1,48,86,50
1,48,0,47
1,41,0,3
1,53,111,5
1,53,0,16
1,56,95,47
1,56,0,52
1,60,107,7
1,82,103,4
1,80,0,11
1,53,90,49
1,60,0,15
1,56,105,43
1,53,0,52
1,56,0,8
1,60,106,4
1,48,108,3
1,84,104,0
1,60,0,1
1,82,0,8
1,51,69,48
1,55,102,61
1,51,0,52
1,48,0,0
1,55,0,5
1,60,103,4
1,60,0,54
1,62,114,2
1,62,0,63
1,63,97,0
1,67,105,61
1,63,0,3
1,60,81,50
1,67,0,4
1,60,0,7
1,84,0,20
1,77,110,2
1,43,115,5
1,86,92,1
1,50,89,56
1,50,0,45
1,43,0,5
1,55,104,3
1,55,0,65
1,59,107,3
1,62,106,63
1,67,107,67
1,77,0,16
1,86,0,1
1,86,115,37
1,67,0,11
1,86,0,1
1,62,0,1
1,59,0,1
1,87,103,29
1,86,82,14
1,87,0,5
1,86,0,6
1,84,89,0
1,86,92,6
1,84,0,3
1,86,0,9
1,79,107,5
1,87,126,25
1,44,109,1
1,51,82,56
1,44,0,50
1,51,0,2
1,56,111,7
1,56,0,51
1,58,103,7
1,58,0,46
1,60,121,10
1,56,113,61
1,60,0,8
1,56,0,52
1,51,111,0
1,56,118,59
1,51,0,1
1,79,0,3
1,56,0,8
1,89,95,14
1,41,101,0
1,80,105,1
1,87,0,6
1,48,81,60
1,48,0,47
1,41,0,3
1,53,114,4
1,53,0,14
1,56,98,47
1,80,0,37
1,56,0,17
1,60,97,5
1,87,91,2
1,79,111,1
1,89,0,4
1,53,97,55
1,60,0,21
1,56,105,37
1,60,98,67
1,56,0,3
1,53,0,1
1,60,0,12
1,79,0,8
1,87,0,16
1,43,111,5
1,86,92,0
1,77,99,3
1,50,81,62
1,50,0,49
1,43,0,3
1,55,105,3
1,55,0,16
1,58,95,52
1,58,0,53
1,62,112,5
1,58,109,62
1,62,0,26
1,58,0,28
1,55,104,4
1,77,0,9
1,86,0,5
1,58,100,48
1,55,0,6
1,58,0,6
1,79,99,9
1,87,113,29
1,43,114,3
1,50,89,57
1,50,0,50
1,43,0,5
1,55,103,3
1,55,0,52
1,79,0,0
1,59,103,12
1,89,99,58
1,62,101,0
1,81,107,0
1,59,0,5
1,87,0,2
1,62,0,54
1,59,85,0
1,81,0,21
1,89,0,8
1,59,0,27
1,67,102,2
1,67,0,21
1,82,94,18
1,87,50,28
1,82,0,5
1,48,105,0
1,91,112,0
1,87,0,7
1,51,88,55
1,55,103,56
1,48,0,49
1,51,0,1
1,55,0,2
1,60,105,4
1,60,0,53
1,62,114,3
1,62,0,56
1,63,98,4
1,63,0,54
1,67,110,5
1,89,95,63
1,62,102,0
1,91,0,11
1,67,0,5
1,62,0,34
1,87,113,8
1,60,94,5
1,89,0,6
1,62,101,49
1,60,0,9
1,63,103,48
1,62,0,3
1,63,0,56
1,86,103,3
1,67,110,1
1,87,0,8
1,86,0,48
1,60,108,0
1,67,0,1
1,84,106,1
1,62,93,54
1,60,0,62
1,63,121,0
1,62,0,5
1,63,0,12
1,89,112,47
1,84,0,9
1,91,112,2
1,43,112,4
1,89,0,2
1,50,99,61
1,50,0,51
1,43,0,3
1,55,114,4
1,55,0,57
1,57,92,6
1,58,103,57
1,86,111,4
1,57,0,4
1,91,0,3
1,62,101,51
1,58,0,14
1,62,0,38
1,55,110,4
1,67,102,62
1,55,0,58
1,62,114,2
1,67,0,13
1,62,0,43
1,55,104,4
1,58,107,60
1,55,0,14
1,58,0,38
1,62,107,5
1,62,0,39
1,63,102,22
1,63,0,24
1,62,107,36
1,62,0,46
1,58,111,12
1,58,0,57
1,55,105,1
1,55,0,25
1,87,109,0
1,48,112,0
1,86,0,5
1,51,88,59
1,55,103,58
1,51,0,54
1,48,0,1
1,55,0,2
1,60,102,5
1,60,0,59
1,62,111,2
1,62,0,51
1,63,102,4
1,63,0,53
1,67,110,5
1,86,107,63
1,62,103,1
1,87,0,13
1,67,0,2
1,62,0,33
1,86,0,9
1,60,98,0
1,84,108,1
1,62,105,63
1,60,0,9
1,62,0,46
1,63,113,1
1,63,0,54
1,67,105,4
1,86,102,4
1,84,0,10
1,67,0,37
1,62,120,7
1,87,100,1
1,86,0,12
1,63,107,48
1,63,0,57
1,67,118,0
1,62,0,1
1,67,0,20
1,89,89,38
1,87,0,7
1,89,0,24
1,82,97,0
1,91,110,12
1,43,111,2
1,50,95,59
1,50,0,50
1,43,0,3
1,55,111,4
1,55,0,60
1,57,99,4
1,58,103,59
1,57,0,8
1,62,103,52
1,58,0,54
1,62,0,3
1,67,108,3
1,62,103,59
1,67,0,13
1,67,114,45
1,62,0,4
1,55,94,61
1,67,0,10
1,57,107,46
1,55,0,20
1,58,88,43
1,57,0,12
1,58,0,43
1,62,114,2
1,91,0,3
1,82,0,8
1,58,73,51
1,62,0,31
1,55,98,23
1,58,0,10
1,55,0,23
1,75,91,32
1,77,107,3
1,70,103,0
1,46,103,1
1,75,0,7
1,50,92,51
1,50,0,54
1,46,0,3
1,53,106,4
1,53,0,16
1,58,97,47
1,58,0,47
1,62,104,8
1,58,102,62
1,62,0,17
1,58,0,40
1,53,102,2
1,70,0,41
1,77,0,6
1,79,69,6
1,58,105,5
1,53,0,8
1,58,0,8
1,79,0,30
1,80,109,3
1,41,114,1
1,72,103,0
1,48,92,64
1,48,0,46
1,41,0,5
1,53,105,3
1,53,0,15
1,56,105,53
1,72,0,6
1,56,0,40
1,82,80,1
1,74,107,2
1,60,106,2
1,80,0,7
1,53,99,55
1,60,0,24
1,56,107,35
1,56,0,58
1,53,0,1
1,60,106,5
1,74,0,11
1,48,108,8
1,84,92,0
1,75,103,1
1,60,0,2
1,82,0,8
1,51,71,52
1,55,101,60
1,51,0,51
1,48,0,0
1,55,0,5
1,60,105,3
1,60,0,54
1,62,110,4
1,63,100,58
1,62,0,4
1,67,101,59
1,63,0,3
1,75,0,14
1,60,89,37
1,67,0,3
1,60,0,12
1,77,90,6
1,84,0,9
1,86,96,6
1,55,103,3
1,59,101,62
1,55,0,2
1,59,0,51
1,62,87,16
1,62,0,40
1,59,96,14
1,55,112,54
1,59,0,6
1,55,0,10
1,50,102,53
1,50,0,51
1,47,111,3
1,86,0,12
1,77,0,3
1,43,110,20
1,47,0,3
1,86,117,0
1,86,0,8
1,43,0,2
1,87,107,16
1,86,86,13
1,87,0,3
1,86,0,9
1,84,86,0
1,86,94,12
1,84,0,3
1,86,0,3
1,79,105,3
1,87,126,3
1,44,116,0
1,51,97,57
1,44,0,49
1,51,0,1
1,56,116,8
1,58,116,61
1,56,0,6
1,58,0,38
1,60,117,10
1,56,113,61
1,60,0,11
1,51,113,41
1,56,0,2
1,56,109,59
1,51,0,11
1,56,0,6
1,79,0,1
1,41,114,11
1,89,94,0
1,80,100,0
1,87,0,11
1,48,74,59
1,48,0,53
1,41,0,3
1,53,105,2
1,53,0,17
1,56,103,46
1,80,0,30
1,56,0,20
1,60,104,4
1,87,92,0
1,79,106,0
1,89,0,7
1,53,97,51
1,60,0,20
1,56,113,44
1,56,0,61
1,53,0,3
1,60,107,0
1,60,0,18
1,79,0,11
1,87,0,11
1,86,94,7
1,77,96,1
1,43,107,2
1,50,93,63
1,50,0,50
1,43,0,3
1,55,106,3
1,55,0,15
1,58,103,46
1,58,0,49
1,62,114,5
1,58,105,63
1,62,0,16
1,77,0,37
1,58,0,3
1,86,0,2
1,55,97,2
1,58,94,61
1,55,0,4
1,58,0,5
1,79,98,7
1,87,109,5
1,43,110,3
1,50,89,58
1,50,0,48
1,43,0,7
1,55,100,2
1,87,0,36
1,79,0,4
1,55,0,14
1,59,95,9
1,77,96,54
1,86,92,0
1,59,0,2
1,62,102,2
1,62,0,57
1,59,85,2
1,77,0,54
1,86,0,4
1,67,106,5
1,59,0,1
1,67,0,22
1,79,99,7
1,84,78,24
1,87,98,6
1,48,103,2
1,51,81,61
1,55,103,57
1,48,0,53
1,51,0,3
1,55,0,2
1,60,98,5
1,60,0,59
1,62,104,1
1,62,0,59
1,63,98,3
1,63,0,52
1,67,110,4
1,62,107,59
1,67,0,13
1,62,0,40
1,60,108,7
1,62,105,59
1,60,0,10
1,62,0,52
1,63,111,0
1,63,0,59
1,67,111,2
1,60,114,57
1,67,0,1
1,62,93,51
1,63,121,64
1,60,0,5
1,62,0,4
1,63,0,12
1,87,0,27
1,84,0,4
1,86,84,1
1,89,84,1
1,79,0,3
1,87,91,61
1,84,104,2
1,60,106,1
1,86,0,5
1,89,0,2
1,62,100,54
1,60,0,17
1,62,0,40
1,63,111,1
1,63,0,61
1,67,104,4
1,60,110,57
1,67,0,6
1,62,103,55
1,60,0,25
1,63,109,31
1,62,0,5
1,63,0,49
1,67,107,4
1,60,108,59
1,67,0,16
1,62,104,52
1,60,0,20
1,63,113,37
1,62,0,7
1,63,0,52
1,67,106,4
1,60,108,54
1,67,0,11
1,62,86,54
1,63,118,60
1,60,0,4
1,62,0,3
1,63,0,11
1,87,0,35
1,86,89,2
1,82,92,1
1,84,0,5
1,87,105,8
1,48,103,2
1,84,101,0
1,82,0,5
1,86,0,3
1,51,82,55
1,55,108,58
1,48,0,47
1,51,0,6
1,55,0,1
1,60,91,5
1,60,0,57
1,62,108,2
1,62,0,57
1,63,98,2
1,63,0,56
1,67,106,4
1,62,114,60
1,67,0,10
1,62,0,44
1,60,107,4
1,62,110,58
1,60,0,12
1,63,111,47
1,62,0,2
1,63,0,57
1,67,107,2
1,60,111,56
1,67,0,8
1,62,106,56
1,84,0,16
1,87,0,4
1,63,118,37
1,60,0,1
1,62,0,10
1,63,0,48
1,67,102,4
1,91,115,54
1,60,106,1
1,67,0,5
1,62,107,59
1,60,0,17
1,63,116,43
1,62,0,6
1,63,0,51
1,67,111,4
1,60,106,56
1,67,0,15
1,62,96,48
1,60,0,23
1,63,116,34
1,62,0,8
1,63,0,47
1,67,104,3
1,89,95,4
1,91,0,14
1,60,105,43
1,87,111,5
1,89,0,12
1,67,0,11
1,62,105,38
1,60,0,20
1,63,116,36
1,62,0,7
1,63,0,53
1,86,106,4
1,67,103,1
1,87,0,7
1,86,0,51
1,84,101,0
1,60,102,0
1,67,0,14
1,62,93,37
1,63,116,69
1,60,0,7
1,62,0,45
1,63,0,6
1,67,108,2
1,89,94,3
1,84,0,11
1,67,0,9
1,91,107,6
1,55,106,0
1,89,0,2
1,58,84,58
1,62,105,59
1,67,101,58
1,62,0,52
1,58,0,2
1,55,0,5
1,86,110,0
1,91,0,9
1,67,0,5
1,62,106,53
1,62,0,50
1,67,114,7
1,62,112,59
1,67,0,8
1,62,0,43
1,55,107,11
1,58,102,60
1,55,0,14
1,58,0,36
1,62,114,6
1,62,0,34
1,63,87,28
1,63,0,23
1,62,108,36
1,62,0,47
1,58,103,18
1,62,60,0
1,62,0,7
1,58,0,37
1,55,103,11
1,58,107,60
1,55,0,8
1,58,0,14
1,87,107,4
1,60,115,0
1,86,0,8
1,62,100,54
1,60,0,8
1,62,0,51
1,63,111,1
1,63,0,55
1,67,108,7
1,60,106,57
1,67,0,16
1,62,105,47
1,60,0,18
1,63,111,40
1,62,0,5
1,63,0,51
1,67,92,2
1,86,104,2
1,87,0,12
1,86,0,45
1,60,99,0
1,84,102,2
1,67,0,9
1,62,99,51
1,60,0,17
1,63,109,41
1,62,0,7
1,63,0,48
1,67,92,4
1,86,111,3
1,84,0,13
1,87,109,41
1,60,106,3
1,67,0,3
1,86,0,4
1,62,105,51
1,60,0,27
1,63,116,35
1,62,0,5
1,63,0,47
1,67,89,11
1,89,93,1
1,87,0,14
1,55,104,6
1,91,108,0
1,89,0,10
1,67,0,1
1,58,73,49
1,62,106,60
1,62,0,52
1,58,0,0
1,55,0,2
1,67,105,3
1,69,103,63
1,67,0,1
1,69,0,57
1,67,102,3
1,70,111,61
1,67,0,2
1,67,104,61
1,70,0,8
1,67,0,42
1,74,107,10
1,74,0,17
1,58,87,43
1,58,0,13
1,62,106,45
1,62,0,55
1,67,107,6
1,67,0,49
1,69,120,9
1,91,0,30
1,67,89,31
1,69,0,7
1,70,113,53
1,67,0,4
1,70,0,12
1,75,121,48
1,75,0,4
1,46,111,8
1,77,105,0
1,50,111,61
1,46,0,7
1,50,0,44
1,53,114,4
1,53,0,17
1,58,107,46
1,58,0,49
1,62,112,6
1,58,102,65
1,62,0,28
1,58,0,26
1,53,96,5
1,58,103,61
1,79,96,5
1,53,0,4
1,77,0,4
1,58,0,0
1,80,107,11
1,41,112,3
1,79,0,6
1,48,94,53
1,48,0,47
1,41,0,3
1,53,106,3
1,53,0,14
1,56,98,51
