track,note,velocity,time
1,70,79,3480
1,70,0,60
1,74,79,60
1,74,0,60
1,74,79,60
1,74,0,60
1,74,79,60
1,74,0,60
1,74,79,60
1,74,0,60
1,74,79,60
1,74,0,60
1,72,79,60
1,72,0,60
1,70,79,60
1,70,0,60
1,74,79,60
1,74,0,120
1,72,79,0
1,72,0,300
1,67,79,420
1,67,0,180
1,74,79,60
1,74,0,60
1,72,79,60
1,72,0,60
1,72,79,60
1,72,0,60
1,70,79,60
1,70,0,60
1,72,79,60
1,72,0,180
1,67,79,60
1,67,0,60
1,70,79,60
1,70,0,60
1,72,79,60
1,72,0,60
1,74,79,60
1,74,0,60
1,72,79,60
1,72,0,60
1,70,79,60
1,70,0,300
1,70,79,60
1,70,0,60
1,72,79,60
1,72,0,60
1,74,79,60
1,74,0,60
1,74,79,60
1,74,0,60
1,74,79,60
1,74,0,60
1,77,79,60
1,77,0,180
1,75,79,60
1,75,0,120
1,74,79,0
1,74,0,60
1,74,79,60
1,74,0,240
1,75,79,0
1,75,0,60
1,74,79,0
1,74,0,60
1,72,79,0
1,72,0,180
1,67,79,300
1,67,0,60
1,70,79,60
1,70,0,60
1,74,79,60
1,74,0,60
1,72,79,60
1,72,0,60
1,70,79,60
1,70,0,60
1,72,79,60
1,72,0,300
1,70,79,60
1,70,0,60
1,72,79,60
1,72,0,60
1,75,79,60
1,75,0,60
1,74,79,60
1,74,0,60
1,72,79,60
1,72,0,60
1,74,95,60
1,74,0,300
1,72,79,60
1,72,0,60
1,74,95,60
1,74,0,60
1,76,95,60
1,76,0,60
1,76,95,60
1,76,0,60
1,76,95,60
1,76,0,60
1,76,95,60
1,76,0,60
1,76,95,60
1,76,0,60
1,74,95,60
1,74,0,60
1,72,95,60
1,72,0,60
1,74,95,60
1,74,0,120
1,74,95,0
1,74,0,60
1,72,95,0
1,72,0,60
1,69,95,0
1,69,0,300
1,76,95,180
1,76,0,180
1,74,95,60
1,74,0,240
1,72,95,0
1,72,0,300
1,76,95,180
1,76,0,180
1,74,95,60
1,74,0,240
1,72,95,0
1,72,0,300
1,72,95,60
1,72,0,180
1,74,95,60
1,74,0,180
1,76,95,60
1,76,0,180
1,76,95,60
1,76,0,60
1,76,95,60
1,76,0,60
1,76,95,60
1,76,0,60
1,74,95,60
1,74,0,60
1,72,95,60
1,72,0,60
1,74,95,60
1,74,0,180
1,72,95,0
1,72,0,60
1,69,95,0
1,69,0,300
1,76,95,180
1,76,0,180
1,74,95,60
1,74,0,240
1,72,95,0
1,72,0,300
1,76,95,180
1,76,0,180
1,74,95,60
1,74,0,240
1,72,95,0
1,72,0,300
1,74,79,1620
1,74,0,60
1,74,79,60
1,74,0,60
1,74,79,60
1,74,0,60
1,74,79,60
1,74,0,60
1,72,79,60
1,72,0,60
1,70,79,60
1,70,0,60
1,74,79,60
1,74,0,60
1,72,79,60
1,72,0,300
1,67,79,420
1,67,0,60
1,70,79,60
1,70,0,60
1,74,79,60
1,74,0,60
1,72,79,60
1,72,0,180
1,70,79,60
1,70,0,60
1,72,79,60
1,72,0,60
1,65,79,60
1,65,0,60
1,67,79,60
1,67,0,60
1,70,79,60
1,70,0,60
1,72,79,60
1,72,0,60
1,74,79,60
1,74,0,60
1,72,79,60
1,72,0,60
1,70,79,60
1,70,0,60
1,70,79,60
1,70,0,180
1,70,79,60
1,70,0,60
1,72,79,60
1,72,0,60
1,74,79,60
1,74,0,60
1,74,79,60
1,74,0,60
1,74,79,60
1,74,0,60
1,77,79,60
1,77,0,180
1,75,79,60
1,75,0,120
1,74,79,0
1,74,0,60
1,74,79,60
1,74,0,240
1,75,79,0
1,75,0,60
1,74,79,0
1,74,0,60
1,72,79,0
1,72,0,180
1,67,79,300
1,67,0,60
1,70,79,60
1,70,0,60
1,74,79,60
1,74,0,60
1,72,79,60
1,72,0,60
1,70,79,60
1,70,0,60
1,72,79,60
1,72,0,300
1,70,79,60
1,70,0,60
1,72,79,60
1,72,0,60
1,75,79,60
1,75,0,60
1,74,79,60
1,74,0,60
1,72,79,60
1,72,0,60
1,74,95,60
1,74,0,300
1,72,79,60
1,72,0,60
1,74,95,60
1,74,0,60
1,76,95,60
1,76,0,60
1,76,95,60
1,76,0,60
1,76,95,60
1,76,0,60
1,76,95,60
1,76,0,60
1,76,95,60
1,76,0,60
1,74,95,60
1,74,0,60
1,72,95,60
1,72,0,60
1,74,95,60
1,74,0,180
1,72,95,0
1,72,0,60
1,69,95,0
1,69,0,300
1,76,95,180
1,76,0,240
1,74,95,0
1,74,0,180
1,69,79,60
1,69,0,240
1,76,95,240
1,76,0,180
1,74,95,60
1,74,0,240
1,72,95,0
1,72,0,300
1,72,95,60
1,72,0,180
1,74,95,60
1,74,0,180
1,76,95,60
1,76,0,180
1,76,95,60
1,76,0,60
1,76,95,60
1,76,0,60
1,76,95,60
1,76,0,60
1,74,95,60
1,74,0,60
1,72,95,60
1,72,0,60
1,74,95,60
1,74,0,180
1,72,95,0
1,72,0,60
1,69,95,0
1,69,0,300
1,76,95,180
1,76,0,180
1,74,95,60
1,74,0,240
1,72,95,0
1,72,0,300
1,76,95,180
1,76,0,180
1,74,95,60
1,74,0,240
1,72,95,0
1,72,0,300
1,70,63,1260
1,70,0,120
1,72,63,0
1,72,0,120
1,74,63,0
1,74,0,300
1,74,79,60
1,74,0,60
1,74,79,60
1,74,0,60
1,72,79,60
1,72,0,60
1,70,79,60
1,70,0,60
1,74,79,60
1,74,0,120
1,72,79,0
1,72,0,300
1,67,79,420
1,67,0,60
1,70,79,60
1,70,0,60
1,74,79,60
1,74,0,60
1,72,79,60
1,72,0,60
1,72,79,60
1,72,0,180
1,72,79,60
1,72,0,60
1,65,79,60
1,65,0,60
1,67,79,60
1,67,0,60
1,70,79,60
1,70,0,60
1,72,79,60
1,72,0,60
1,74,79,60
1,74,0,60
1,72,79,60
1,72,0,60
1,70,79,60
1,70,0,300
1,70,79,60
1,70,0,60
1,72,79,60
1,72,0,60
1,74,79,60
1,74,0,60
1,74,79,60
1,74,0,60
1,74,79,60
1,74,0,60
1,77,79,60
1,77,0,180
1,75,79,60
1,75,0,120
1,74,79,0
1,74,0,60
1,74,79,60
1,74,0,240
1,75,79,0
1,75,0,60
1,74,79,0
1,74,0,60
1,72,79,0
1,72,0,180
1,67,79,300
1,67,0,60
1,70,79,60
1,70,0,60
1,74,79,60
1,74,0,60
1,72,79,60
1,72,0,60
1,70,79,60
1,70,0,60
1,72,79,60
1,72,0,300
1,70,79,60
1,70,0,60
1,72,79,60
1,72,0,60
1,75,79,60
1,75,0,60
1,74,79,60
1,74,0,60
1,72,79,60
1,72,0,60
1,74,95,60
1,74,0,300
1,72,79,60
1,72,0,60
1,74,95,60
1,74,0,60
1,76,95,60
1,76,0,60
1,76,95,60
1,76,0,60
1,76,95,60
1,76,0,60
1,76,95,60
1,76,0,60
1,76,95,60
1,76,0,60
1,74,95,60
1,74,0,60
1,72,95,60
1,72,0,60
1,74,95,60
1,74,0,180
1,72,95,0
1,72,0,60
1,69,95,0
1,69,0,300
1,76,95,180
1,76,0,240
1,74,95,0
1,74,0,180
1,69,79,60
1,69,0,240
1,76,95,240
1,76,0,180
1,74,95,60
1,74,0,240
1,72,95,0
1,72,0,300
1,72,95,60
1,72,0,180
1,74,95,60
1,74,0,180
1,76,95,60
1,76,0,180
1,76,95,60
1,76,0,60
1,76,95,60
1,76,0,60
1,76,95,60
1,76,0,60
1,74,95,60
1,74,0,60
1,72,95,60
1,72,0,60
1,74,95,60
1,74,0,180
1,72,95,0
1,72,0,60
1,69,95,0
1,69,0,300
1,76,95,180
1,76,0,180
1,74,95,60
1,74,0,240
1,72,95,0
1,72,0,300
1,76,95,180
1,76,0,180
1,74,95,60
1,74,0,240
1,72,95,0
1,72,0,300
1,72,95,60
1,72,0,180
1,74,95,60
1,74,0,180
1,76,95,60
1,76,0,60
1,76,95,60
1,76,0,60
1,76,95,60
1,76,0,60
1,76,95,60
1,76,0,60
1,76,95,60
1,76,0,60
1,74,95,60
1,74,0,60
1,72,95,60
1,72,0,60
1,74,95,60
1,74,0,120
1,74,95,0
1,74,0,60
1,72,95,0
1,72,0,60
1,69,95,0
1,69,0,300
1,76,95,180
1,76,0,180
1,74,95,60
1,74,0,240
1,72,95,0
1,72,0,300
1,76,95,180
1,76,0,180
1,74,95,60
1,74,0,240
1,72,95,0
1,72,0,300
1,72,95,60
1,72,0,180
1,74,95,60
1,74,0,180
1,76,95,60
1,76,0,180
1,76,95,60
1,76,0,60
1,76,95,60
1,76,0,60
1,76,95,60
1,76,0,60
1,74,95,60
1,74,0,60
1,72,95,60
1,72,0,60
1,74,95,60
1,74,0,180
1,72,95,0
1,72,0,60
1,69,95,0
1,69,0,300
1,76,95,180
1,76,0,180
1,74,95,60
1,74,0,240
1,72,95,0
1,72,0,300
1,76,95,180
1,76,0,180
1,74,95,60
1,74,0,240
2,67,79,0
2,64,79,0
2,72,79,0
2,72,0,480
2,64,0,0
2,67,0,0
2,72,79,120
2,65,79,0
2,69,79,0
2,69,0,755
2,65,0,0
2,72,0,0
2,67,79,565
2,64,79,0
2,72,79,0
2,72,0,480
2,64,0,0
2,67,0,0
2,72,79,120
2,65,79,0
2,69,79,0
2,69,0,595
2,65,0,0
2,72,0,0
2,70,79,485
2,65,79,0
2,74,79,0
2,74,0,315
2,65,0,0
2,70,0,0
2,70,79,165
2,65,79,0
2,74,79,0
2,74,0,315
2,65,0,0
2,70,0,0
2,67,79,165
2,63,79,0
2,72,79,0
2,72,0,475
2,63,0,0
2,67,0,0
2,69,79,485
2,65,79,0
2,74,79,0
2,74,0,315
2,65,0,0
2,69,0,0
2,69,79,165
2,65,79,0
2,72,79,0
2,72,0,160
2,65,0,0
2,69,0,0
2,65,79,320
2,70,79,0
2,72,79,0
2,72,0,240
2,70,0,0
2,65,0,0
2,65,79,120
2,62,79,0
2,70,79,0
2,70,0,435
2,62,0,0
2,65,0,0
2,70,79,165
2,65,79,0
2,74,79,0
2,74,0,240
2,65,0,0
2,70,0,0
2,74,79,120
2,65,79,0
2,70,79,0
2,65,0,240
2,70,0,120
2,74,0,0
2,74,79,0
2,70,79,0
2,65,79,0
2,65,0,120
2,70,0,0
2,63,79,0
2,67,79,0
2,67,0,200
2,63,0,0
2,74,0,0
2,67,79,160
2,63,79,0
2,72,79,0
2,72,0,400
2,63,0,0
2,67,0,0
2,69,79,320
2,65,79,0
2,74,79,0
2,74,0,240
2,65,0,0
2,69,0,0
2,69,79,120
2,65,79,0
2,72,79,0
2,72,0,435
2,65,0,0
2,69,0,0
2,67,79,165
2,71,79,0
2,71,0,240
2,67,0,0
2,67,79,120
2,71,79,0
2,71,0,280
2,67,0,0
2,72,95,320
2,67,95,0
2,76,95,0
2,76,0,160
2,67,0,0
2,72,0,0
2,72,95,80
2,67,95,0
2,76,95,0
2,76,0,160
2,67,0,0
2,72,0,0
2,72,95,80
2,67,95,0
2,76,95,0
2,76,0,240
2,67,0,0
2,72,0,0
2,74,95,120
2,65,95,0
2,69,95,0
2,69,0,200
2,65,0,0
2,74,0,0
2,65,95,40
2,62,95,0
2,69,95,0
2,69,0,280
2,62,0,0
2,65,0,0
2,69,95,200
2,65,95,0
2,76,95,0
2,76,0,200
2,65,0,0
2,69,0,0
2,74,95,40
2,65,95,0
2,69,95,0
2,69,0,435
2,65,0,0
2,74,0,0
2,71,95,285
2,67,95,0
2,76,95,0
2,76,0,200
2,67,0,0
2,71,0,0
2,74,95,40
2,64,95,0
2,67,95,0
2,67,0,435
2,64,0,0
2,74,0,0
2,67,95,165
2,64,95,0
2,72,95,0
2,72,0,315
2,64,0,0
2,67,0,0
2,72,95,165
2,67,95,0
2,76,95,0
2,76,0,160
2,67,0,0
2,72,0,0
2,72,95,80
2,67,95,0
2,76,95,0
2,76,0,160
2,67,0,0
2,72,0,0
2,72,95,80
2,67,95,0
2,76,95,0
2,76,0,240
2,67,0,0
2,72,0,0
2,74,95,120
2,65,95,0
2,69,95,0
2,69,0,200
2,65,0,0
2,74,0,0
2,65,95,40
2,62,95,0
2,69,95,0
2,69,0,280
2,62,0,0
2,65,0,0
2,69,95,200
2,65,95,0
2,76,95,0
2,76,0,200
2,65,0,0
2,69,0,0
2,74,95,40
2,65,95,0
2,69,95,0
2,69,0,435
2,65,0,0
2,74,0,0
2,71,95,285
2,67,95,0
2,76,95,0
2,76,0,200
2,67,0,0
2,71,0,0
2,74,95,40
2,64,95,0
2,67,95,0
2,67,0,360
2,64,0,0
2,67,79,0
2,64,79,0
2,72,79,0
2,74,0,75
2,67,0,485
2,64,0,0
2,72,0,0
2,72,95,40
2,65,95,0
2,69,95,0
2,69,0,755
2,65,0,0
2,72,0,0
2,70,79,325
2,65,79,0
2,74,79,0
2,74,0,160
2,65,0,0
2,70,0,0
2,70,79,200
2,65,79,0
2,74,79,0
2,74,0,80
2,65,0,0
2,70,0,0
2,70,79,40
2,65,79,0
2,74,79,0
2,74,0,315
2,65,0,0
2,70,0,0
2,67,79,165
2,63,79,0
2,72,79,0
2,72,0,475
2,63,0,0
2,67,0,0
2,67,79,245
2,63,79,0
2,72,79,0
2,72,0,160
2,63,0,0
2,67,0,0
2,69,79,80
2,65,79,0
2,74,79,0
2,74,0,235
2,65,0,0
2,69,0,0
2,69,79,125
2,65,79,0
2,72,79,0
2,72,0,80
2,65,0,0
2,69,0,0
2,69,79,40
2,65,79,0
2,72,79,0
2,72,0,160
2,65,0,0
2,69,0,0
2,69,79,80
2,65,79,0
2,72,79,0
2,72,0,155
2,65,0,0
2,69,0,0
2,65,79,85
2,70,79,0
2,72,79,0
2,72,0,240
2,70,0,0
2,65,0,0
2,65,79,120
2,62,79,0
2,70,79,0
2,70,0,80
2,62,0,0
2,65,0,0
2,65,79,40
2,62,79,0
2,70,79,0
2,70,0,315
2,62,0,0
2,65,0,0
2,70,79,165
2,65,79,0
2,74,79,0
2,74,0,240
2,65,0,0
2,70,0,0
2,74,79,120
2,65,79,0
2,70,79,0
2,70,0,80
2,65,0,0
2,74,0,0
2,74,79,40
2,65,79,0
2,70,79,0
2,70,0,160
2,65,0,0
2,74,0,0
2,74,79,80
2,70,79,0
2,65,79,0
2,65,0,120
2,70,0,0
2,63,79,0
2,67,79,0
2,67,0,200
2,63,0,0
2,74,0,0
2,67,79,160
2,63,79,0
2,72,79,0
2,72,0,400
2,63,0,0
2,67,0,0
2,69,79,320
2,65,79,0
2,74,79,0
2,74,0,240
2,65,0,0
2,69,0,0
2,69,79,120
2,65,79,0
2,72,79,0
2,72,0,435
2,65,0,0
2,69,0,0
2,67,79,165
2,71,79,0
2,71,0,240
2,67,0,0
2,67,79,120
2,71,79,0
2,71,0,280
2,67,0,0
2,72,95,320
2,67,95,0
2,76,95,0
2,76,0,160
2,67,0,0
2,72,0,0
2,72,95,80
2,67,95,0
2,76,95,0
2,76,0,160
2,67,0,0
2,72,0,0
2,72,95,80
2,67,95,0
2,76,95,0
2,76,0,240
2,67,0,0
2,72,0,0
2,74,95,120
2,65,95,0
2,69,95,0
2,69,0,200
2,65,0,0
2,74,0,0
2,65,95,40
2,62,95,0
2,69,95,0
2,69,0,280
2,62,0,0
2,65,0,0
2,69,95,200
2,65,95,0
2,76,95,0
2,76,0,200
2,65,0,0
2,69,0,0
2,74,95,40
2,65,95,0
2,69,95,0
2,69,0,435
2,65,0,0
2,74,0,0
2,71,95,285
2,67,95,0
2,76,95,0
2,76,0,200
2,67,0,0
2,71,0,0
2,74,95,40
2,64,95,0
2,67,95,0
2,67,0,435
2,64,0,0
2,74,0,0
2,67,95,165
2,64,95,0
2,72,95,0
2,72,0,315
2,64,0,0
2,67,0,0
2,72,95,165
2,67,95,0
2,76,95,0
2,76,0,160
2,67,0,0
2,72,0,0
2,72,95,80
2,67,95,0
2,76,95,0
2,76,0,160
2,67,0,0
2,72,0,0
2,72,95,80
2,67,95,0
2,76,95,0
2,76,0,240
