track,note,velocity,time
1,49,99,3840
1,59,67,240
1,68,60,0
1,64,67,0
1,64,67,53
1,68,70,0
1,59,67,0
1,59,94,70
1,68,101,0
1,64,94,0
1,68,101,68
1,59,94,0
1,64,94,0
1,42,70,493
1,57,58,240
1,64,67,0
1,61,70,0
1,61,82,65
1,57,67,0
1,64,79,0
1,57,58,65
1,64,79,0
1,61,82,0
1,57,94,58
1,64,101,0
1,61,101,0
1,40,94,113
1,59,58,240
1,63,70,0
1,68,60,0
1,59,79,55
1,68,82,0
1,63,70,0
1,59,79,118
1,68,82,0
1,63,99,0
1,59,94,45
1,68,99,0
1,63,99,0
1,42,99,138
1,57,58,240
1,61,70,0
1,64,51,0
1,61,82,60
1,57,58,0
1,64,79,0
1,57,67,73
1,61,82,0
1,64,79,0
1,57,79,40
1,61,82,0
1,64,79,0
1,49,99,463
1,59,67,240
1,68,60,0
1,64,67,0
1,64,67,53
1,68,70,0
1,59,67,0
1,59,94,70
1,68,101,0
1,64,94,0
1,68,101,68
1,59,94,0
1,64,94,0
1,42,70,493
1,57,58,240
1,64,67,0
1,61,70,0
1,61,82,65
1,57,67,0
1,64,79,0
1,57,58,65
1,64,79,0
1,61,82,0
1,57,94,58
1,64,101,0
1,61,101,0
1,40,94,113
1,59,58,240
1,63,70,0
1,68,60,0
1,59,79,55
1,68,82,0
1,63,70,0
1,59,79,118
1,68,82,0
1,63,99,0
1,59,94,45
1,68,99,0
1,63,99,0
1,42,99,138
1,57,58,240
1,61,70,0
1,64,51,0
1,61,82,60
1,57,58,0
1,64,79,0
1,57,67,73
1,61,82,0
1,64,79,0
1,57,79,40
1,61,82,0
1,64,79,0
1,54,101,463
1,63,55,0
1,59,101,0
1,47,101,0
1,61,101,0
1,57,101,0
1,52,101,0
1,45,101,0
1,56,101,0
1,64,101,0
1,59,101,0
1,40,101,0
1,54,99,0
1,47,101,0
1,63,101,0
1,59,101,0
1,54,101,0
1,63,101,0
1,59,101,0
1,47,101,0
1,49,101,0
1,56,101,0
1,59,101,0
1,64,94,0
1,59,101,0
1,56,101,0
1,40,101,0
1,64,101,0
1,61,101,0
1,57,101,0
1,64,101,0
1,45,101,0
1,54,99,0
1,59,101,0
1,47,101,0
1,63,99,0
1,71,104,0
1,75,108,80
1,78,113,80
1,83,118,80
1,44,101,0
1,59,67,480
1,68,70,0
1,66,82,0
1,66,47,90
1,68,39,0
1,59,51,0
1,59,79,63
1,68,101,0
1,66,99,0
1,45,58,163
1,57,79,480
1,61,99,0
1,64,101,0
1,57,58,45
1,61,70,0
1,64,67,0
1,45,51,203
1,44,70,23
1,68,82,480
1,59,101,0
1,66,99,0
1,59,79,113
1,68,101,0
1,66,101,0
1,61,70,620
1,66,60,0
1,58,35,0
1,51,60,240
1,58,53,48
1,66,99,168
1,61,101,0
1,58,99,0
1,51,70,73
1,61,82,60
1,58,60,0
1,66,99,0
1,51,60,163
1,51,70,238
1,44,70,40
1,59,79,480
1,68,82,0
1,66,99,0
1,59,94,90
1,68,101,0
1,66,99,0
1,44,82,140
1,44,60,283
1,59,79,118
1,49,101,0
1,68,99,0
1,64,94,0
1,49,35,3
1,63,101,108
1,68,101,0
1,44,99,0
1,49,99,185
1,59,67,240
1,68,60,0
1,64,67,0
1,64,67,53
1,68,70,0
1,59,67,0
1,59,94,70
1,68,101,0
1,64,94,0
1,68,101,68
1,59,94,0
1,64,94,0
1,42,70,493
1,57,58,240
1,64,67,0
1,61,70,0
1,61,82,65
1,57,67,0
1,64,79,0
1,57,58,65
1,64,79,0
1,61,82,0
1,57,94,58
1,64,101,0
1,61,101,0
1,40,94,113
1,59,58,240
1,63,70,0
1,68,60,0
1,59,79,55
1,68,82,0
1,63,70,0
1,59,79,118
1,68,82,0
1,63,99,0
1,59,94,45
1,68,99,0
1,63,99,0
1,42,99,138
1,57,58,240
1,61,70,0
1,64,51,0
1,61,82,60
1,57,58,0
1,64,79,0
1,57,67,73
1,61,82,0
1,64,79,0
1,57,79,40
1,61,82,0
1,64,79,0
1,49,99,463
1,59,67,240
1,68,60,0
1,64,67,0
1,64,67,53
1,68,70,0
1,59,67,0
1,59,94,70
1,68,101,0
1,64,94,0
1,68,101,68
1,59,94,0
1,64,94,0
1,42,70,493
1,57,58,240
1,64,67,0
1,61,70,0
1,61,82,65
1,57,67,0
1,64,79,0
1,57,58,65
1,64,79,0
1,61,82,0
1,57,94,58
1,64,101,0
1,61,101,0
1,40,94,113
1,59,58,240
1,63,70,0
1,68,60,0
1,59,79,55
1,68,82,0
1,63,70,0
1,59,79,118
1,68,82,0
1,63,99,0
1,59,94,45
1,68,99,0
1,63,99,0
1,42,99,138
1,57,58,240
1,61,70,0
1,64,51,0
1,61,82,60
1,57,58,0
1,64,79,0
1,57,67,73
1,61,82,0
1,64,79,0
1,57,79,40
1,61,82,0
1,64,79,0
1,42,101,463
1,58,101,0
1,49,101,0
1,54,101,0
1,49,101,0
1,52,101,0
1,56,101,0
1,37,101,0
1,49,101,0
1,54,101,0
1,58,101,0
1,42,101,0
1,49,101,0
1,56,101,0
1,52,101,0
1,37,101,0
1,54,101,0
1,42,101,0
1,58,101,0
1,49,101,0
1,49,101,0
1,37,101,0
1,52,101,0
1,56,101,0
1,49,101,0
1,58,101,0
1,54,101,0
1,42,101,0
1,52,101,0
1,49,101,0
1,56,101,0
1,37,101,0
1,49,101,0
1,54,101,0
1,58,101,0
1,42,101,0
1,49,101,0
1,53,101,0
1,56,101,0
1,37,101,0
1,49,99,300
1,59,67,240
1,68,60,0
1,64,67,0
1,64,67,53
1,68,70,0
1,59,67,0
1,59,94,70
1,68,101,0
1,64,94,0
1,68,101,68
1,59,94,0
1,64,94,0
1,42,70,493
1,57,58,240
1,64,67,0
1,61,70,0
1,61,82,65
1,57,67,0
1,64,79,0
1,57,58,65
1,64,79,0
1,61,82,0
1,57,94,58
1,64,101,0
1,61,101,0
1,40,94,113
1,59,58,240
1,63,70,0
1,68,60,0
1,59,79,55
1,68,82,0
1,63,70,0
1,59,79,118
1,68,82,0
1,63,99,0
1,59,94,45
1,68,99,0
1,63,99,0
1,42,99,138
1,57,58,240
1,61,70,0
1,64,51,0
1,61,82,60
1,57,58,0
1,64,79,0
1,57,67,73
1,61,82,0
1,64,79,0
1,57,79,40
1,61,82,0
1,64,79,0
1,49,99,463
1,59,67,240
1,68,60,0
1,64,67,0
1,64,67,53
1,68,70,0
1,59,67,0
1,59,94,70
1,68,101,0
1,64,94,0
1,68,101,68
1,59,94,0
1,64,94,0
1,42,70,493
1,57,58,240
1,64,67,0
1,61,70,0
1,61,82,65
1,57,67,0
1,64,79,0
1,57,58,65
1,64,79,0
1,61,82,0
1,57,94,58
1,64,101,0
1,61,101,0
1,40,94,113
1,59,58,240
1,63,70,0
1,68,60,0
1,59,79,55
1,68,82,0
1,63,70,0
1,59,79,118
1,68,82,0
1,63,99,0
1,59,94,45
1,68,99,0
1,63,99,0
1,42,99,138
1,57,58,240
1,61,70,0
1,64,51,0
1,61,82,60
1,57,58,0
1,64,79,0
1,57,67,73
1,61,82,0
1,64,79,0
1,57,79,40
1,61,82,0
1,64,79,0
1,54,101,463
1,59,101,0
1,47,101,0
1,61,101,0
1,57,101,0
1,52,101,0
1,45,101,0
1,56,101,0
1,64,101,0
1,59,101,0
1,40,101,0
1,54,99,0
1,47,101,0
1,63,101,0
1,59,101,0
1,54,101,0
1,63,101,0
1,59,101,0
1,47,101,0
1,49,101,0
1,56,101,0
1,59,101,0
1,64,94,0
1,59,101,0
1,56,101,0
1,40,101,0
1,64,101,0
1,61,101,0
1,57,101,0
1,64,101,0
1,45,101,0
1,54,99,0
1,59,101,0
1,47,101,0
1,63,99,0
1,71,94,0
1,75,70,80
1,78,99,80
1,83,94,80
1,44,101,83
1,59,67,480
1,68,70,0
1,66,82,0
1,66,47,90
1,68,39,0
1,59,51,0
1,59,79,63
1,68,101,0
1,66,99,0
1,45,58,163
1,57,79,480
1,61,99,0
1,64,101,0
1,57,58,45
1,61,70,0
1,64,67,0
1,45,51,203
1,44,70,23
1,68,82,480
1,59,101,0
1,66,99,0
1,59,79,113
1,68,101,0
1,66,101,0
1,61,70,620
1,66,60,0
1,58,35,0
1,51,60,240
1,58,53,48
1,66,99,168
1,61,101,0
1,58,99,0
1,51,70,73
1,61,82,60
1,58,60,0
1,66,99,0
1,51,60,163
1,51,70,238
1,44,70,40
1,59,79,480
1,68,82,0
1,66,99,0
1,59,94,90
1,68,101,0
1,66,99,0
1,44,82,140
1,44,60,283
1,59,79,118
1,49,101,0
1,68,99,0
1,64,94,0
1,49,35,3
1,63,101,108
1,68,101,0
1,44,99,0
1,49,99,185
1,59,67,240
1,68,60,0
1,64,67,0
1,64,67,53
1,68,70,0
1,59,67,0
1,59,94,70
1,68,101,0
1,64,94,0
1,68,101,68
1,59,94,0
1,64,94,0
1,42,70,493
1,57,58,240
1,64,67,0
1,61,70,0
1,61,82,65
1,57,67,0
1,64,79,0
1,57,58,65
1,64,79,0
1,61,82,0
1,57,94,58
1,64,101,0
1,61,101,0
1,40,94,113
1,59,58,240
1,63,70,0
1,68,60,0
1,59,79,55
1,68,82,0
1,63,70,0
1,59,79,118
1,68,82,0
1,63,99,0
1,59,94,45
1,68,99,0
1,63,99,0
1,42,99,138
1,57,58,240
1,61,70,0
1,64,51,0
1,61,82,60
1,57,58,0
1,64,79,0
1,57,67,73
1,61,82,0
1,64,79,0
1,57,79,40
1,61,82,0
1,64,79,0
1,49,99,463
1,59,67,240
1,68,60,0
1,64,67,0
1,64,67,53
1,68,70,0
1,59,67,0
1,59,94,70
1,68,101,0
1,64,94,0
1,68,101,68
1,59,94,0
1,64,94,0
1,42,70,493
1,57,58,240
1,64,67,0
1,61,70,0
1,61,82,65
1,57,67,0
1,64,79,0
1,57,58,65
1,64,79,0
1,61,82,0
1,57,94,58
1,64,101,0
1,61,101,0
1,40,94,113
1,59,58,240
1,63,70,0
1,68,60,0
1,59,79,55
1,68,82,0
1,63,70,0
1,59,79,118
1,68,82,0
1,63,99,0
1,59,94,45
1,68,99,0
1,63,99,0
1,42,99,138
1,57,58,240
1,61,70,0
1,64,51,0
1,61,82,60
1,57,58,0
1,64,79,0
1,57,67,73
1,61,82,0
1,64,79,0
1,57,79,40
1,61,82,0
1,64,79,0
1,42,101,463
1,58,101,0
1,49,101,0
1,54,101,0
1,49,101,0
1,52,101,0
1,56,101,0
1,37,101,0
1,49,101,0
1,54,101,0
1,58,101,0
1,42,101,0
1,49,101,0
1,56,101,0
1,52,101,0
1,37,101,0
1,54,101,0
1,42,101,0
1,58,101,0
1,49,101,0
1,49,101,0
1,37,101,0
1,52,101,0
1,56,101,0
1,49,101,0
1,58,101,0
1,54,101,0
1,42,101,0
1,52,101,0
1,49,101,0
1,56,101,0
1,37,101,0
1,49,101,0
1,54,101,0
1,58,101,0
1,42,101,0
1,49,101,0
1,53,101,0
1,56,101,0
1,37,101,0
1,49,99,300
1,59,67,240
1,68,60,0
1,64,67,0
1,64,67,53
1,68,70,0
1,59,67,0
1,59,94,70
1,68,101,0
1,64,94,0
1,68,101,68
1,59,94,0
1,64,94,0
1,42,70,493
1,57,58,240
1,64,67,0
1,61,70,0
1,61,82,65
1,57,67,0
1,64,79,0
1,57,58,65
1,64,79,0
1,61,82,0
1,57,94,58
1,64,101,0
1,61,101,0
1,40,94,113
1,59,58,240
1,63,70,0
1,68,60,0
1,59,79,55
1,68,82,0
1,63,70,0
1,59,79,118
1,68,82,0
1,63,99,0
1,59,94,45
1,68,99,0
1,63,99,0
1,42,99,138
1,57,58,240
1,61,70,0
1,64,51,0
1,61,82,60
1,57,58,0
1,64,79,0
1,57,67,73
1,61,82,0
1,64,79,0
1,57,79,40
1,61,82,0
1,64,79,0
1,49,99,463
1,59,67,240
1,68,60,0
1,64,67,0
1,64,67,53
1,68,70,0
1,59,67,0
1,59,94,70
1,68,101,0
1,64,94,0
1,68,101,68
1,59,94,0
1,64,94,0
1,42,70,493
1,57,58,240
1,64,67,0
1,61,70,0
1,61,82,65
1,57,67,0
1,64,79,0
1,57,58,65
1,64,79,0
1,61,82,0
1,57,94,58
1,64,101,0
1,61,101,0
1,40,94,113
1,59,58,240
1,63,70,0
1,68,60,0
1,59,79,55
1,68,82,0
1,63,70,0
1,59,79,118
1,68,82,0
1,63,99,0
1,59,94,45
1,68,99,0
1,63,99,0
1,42,99,138
1,57,58,240
1,61,70,0
1,64,51,0
1,61,82,60
1,57,58,0
1,64,79,0
1,57,67,73
1,61,82,0
1,64,79,0
1,57,79,40
1,61,82,0
1,64,79,0
1,49,99,463
1,59,67,240
1,68,60,0
1,64,67,0
1,64,67,53
1,68,70,0
1,59,67,0
1,59,94,70
1,68,101,0
1,64,94,0
1,68,101,68
1,59,94,0
1,64,94,0
1,42,70,493
1,57,58,240
1,64,67,0
1,61,70,0
1,61,82,65
1,57,67,0
1,64,79,0
1,57,58,65
1,64,79,0
1,61,82,0
1,57,94,58
1,64,101,0
1,61,101,0
1,40,94,113
1,59,58,240
1,63,70,0
1,68,60,0
1,59,79,55
1,68,82,0
1,63,70,0
1,59,79,118
1,68,82,0
1,63,99,0
1,59,94,45
1,68,99,0
1,63,99,0
1,42,99,138
1,57,58,240
1,61,70,0
1,64,51,0
1,61,82,60
1,57,58,0
1,64,79,0
1,57,67,73
1,61,82,0
1,64,79,0
1,57,79,40
1,61,82,0
1,64,79,0
1,49,99,463
1,59,67,240
1,68,60,0
1,64,67,0
1,64,67,53
1,68,70,0
1,59,67,0
1,59,94,70
1,68,101,0
1,64,94,0
1,68,101,68
1,59,94,0
1,64,94,0
1,42,70,493
1,57,58,240
1,64,67,0
1,61,70,0
1,61,82,65
1,57,67,0
1,64,79,0
1,57,58,65
1,64,79,0
1,61,82,0
1,57,94,58
1,64,101,0
1,61,101,0
1,40,94,113
1,59,58,240
1,63,70,0
1,68,60,0
1,59,79,55
1,68,82,0
1,63,70,0
1,59,79,118
1,68,82,0
1,63,99,0
1,59,94,45
1,68,99,0
1,63,99,0
1,42,99,138
1,57,58,240
1,61,70,0
1,64,51,0
1,61,82,60
1,57,58,0
1,64,79,0
1,57,67,73
1,61,82,0
1,64,79,0
1,57,79,40
1,61,82,0
1,64,79,0
1,54,101,463
1,59,101,0
1,47,101,0
1,61,101,0
1,57,101,0
1,52,101,0
1,45,101,0
1,56,101,0
1,64,101,0
1,59,101,0
1,40,101,0
1,54,99,0
1,47,101,0
1,63,101,0
1,59,101,0
1,54,101,0
1,63,101,0
1,59,101,0
1,47,101,0
1,49,101,0
1,56,101,0
1,59,101,0
1,64,94,0
1,59,101,0
1,56,101,0
1,40,101,0
1,64,101,0
1,61,101,0
1,57,101,0
1,64,101,0
1,45,101,0
1,54,99,0
1,59,101,0
1,47,101,0
1,63,99,0
1,71,94,0
1,75,70,80
1,78,99,80
1,83,94,80
2,37,110,2370
2,40,110,35
2,32,110,18
2,37,110,13
2,32,110,785
2,30,110,10
2,42,110,968
2,37,110,288
2,40,110,28
2,40,110,973
2,32,110,320
2,30,110,40
2,42,110,495
2,32,110,325
2,35,110,233
2,37,110,43
2,40,110,35
2,32,110,18
2,37,110,13
2,32,110,785
2,30,110,10
2,42,110,968
2,37,110,288
2,40,110,28
2,40,110,973
2,32,110,320
2,30,110,40
2,42,110,495
2,32,110,325
2,35,110,233
2,35,110,43
2,35,110,205
2,35,110,118
2,33,110,135
2,33,110,168
2,33,110,133
2,40,110,148
2,40,110,140
2,40,110,118
2,35,110,120
2,35,110,93
2,35,110,128
2,35,110,133
2,35,110,110
2,35,110,108
2,37,110,90
2,37,110,118
2,37,110,98
2,40,110,110
2,33,110,45
2,35,110,93
2,35,110,150
2,35,110,150
2,35,110,48
2,33,110,25
2,32,110,93
2,32,110,178
2,32,110,163
2,32,110,158
2,33,110,40
2,33,110,198
2,33,110,180
2,33,110,150
2,32,110,53
2,32,110,185
2,32,110,175
