track,note,velocity,time
0,62,102,2200
0,71,102,0
0,67,102,0
0,43,117,12
0,50,127,0
0,50,78,4
0,55,127,0
0,49,61,4
0,35,103,4
0,59,127,0
0,62,88,0
0,67,127,4
0,50,88,0
0,50,96,72
0,55,96,4
0,59,96,8
0,67,96,4
0,42,43,4
0,50,109,48
0,55,109,4
0,59,109,8
0,67,109,0
0,50,127,48
0,55,127,4
0,42,80,8
0,40,95,0
0,59,127,4
0,67,127,4
0,50,127,28
0,55,127,4
0,43,113,4
0,35,64,4
0,59,127,4
0,67,127,4
0,42,43,4
0,40,55,40
0,50,127,4
0,52,95,4
0,55,127,0
0,38,113,4
0,42,82,4
0,35,104,0
0,59,127,4
0,64,105,0
0,67,127,0
0,52,105,0
0,50,105,12
0,55,105,4
0,38,104,4
0,35,70,4
0,59,105,4
0,67,105,4
0,42,40,4
0,50,127,40
0,55,91,4
0,55,127,0
0,40,97,0
0,42,84,4
0,40,94,0
0,59,127,4
0,67,101,0
0,67,127,4
0,55,101,0
0,50,121,84
0,55,121,4
0,59,121,12
0,67,121,4
0,42,44,4
0,50,127,28
0,43,101,4
0,57,101,0
0,55,127,0
0,42,81,8
0,59,127,0
0,35,105,4
0,69,111,0
0,67,127,4
0,57,111,0
0,50,98,64
0,55,98,4
0,59,97,8
0,59,98,4
0,67,98,0
0,71,107,0
0,42,43,0
0,59,107,0
0,50,123,36
0,55,123,4
0,59,123,8
0,67,123,0
0,50,118,56
0,55,118,0
0,42,82,4
0,40,97,4
0,59,118,4
0,67,118,4
0,43,95,12
0,50,127,0
0,57,90,0
0,55,127,0
0,35,72,8
0,59,127,4
0,69,100,0
0,67,127,4
0,57,100,0
0,42,41,4
0,50,127,0
0,59,90,0
0,50,102,4
0,55,127,0
0,42,82,0
0,35,102,0
0,59,127,4
0,71,100,0
0,67,127,0
0,59,100,0
0,50,101,4
0,55,101,4
0,59,101,8
0,67,101,0
0,42,44,0
0,67,87,0
0,50,108,4
0,50,127,0
0,55,127,0
0,42,83,8
0,40,92,0
0,59,127,4
0,67,127,0
0,71,75,0
0,50,121,4
0,55,121,4
0,59,121,8
0,67,121,4
0,42,40,4
0,40,55,52
0,50,127,0
0,43,113,4
0,42,83,0
0,55,127,0
0,50,80,0
0,35,101,4
0,59,127,0
0,67,127,4
0,62,89,0
0,50,90,0
0,74,86,0
0,50,100,92
0,55,100,0
0,59,100,12
0,67,100,0
0,42,43,4
0,50,118,40
0,55,118,4
0,59,118,8
0,67,118,4
0,50,127,52
0,55,127,0
0,42,83,4
0,40,96,4
0,59,127,4
0,67,127,4
0,50,127,60
0,43,102,4
0,55,127,0
0,35,71,4
0,59,127,4
0,67,127,4
0,42,43,4
0,76,101,4
0,50,127,8
0,59,84,0
0,50,104,4
0,55,127,0
0,42,82,4
0,35,104,0
0,71,93,0
0,59,127,0
0,67,127,4
0,59,94,4
0,57,71,4
0,50,102,4
0,55,102,0
0,69,80,4
0,57,81,4
0,59,102,4
0,42,41,4
0,67,102,0
0,79,102,4
0,55,77,0
0,50,127,0
0,50,108,4
0,55,127,0
0,67,86,0
0,42,81,4
0,40,94,0
0,55,87,0
0,59,127,0
0,67,127,4
0,52,77,0
0,50,118,8
0,64,86,0
0,55,118,4
0,52,87,0
0,59,118,4
0,67,118,4
0,42,42,4
0,81,106,16
0,43,94,0
0,50,127,0
0,55,127,0
0,50,82,4
0,42,81,4
0,59,127,0
0,35,101,4
0,62,91,0
0,67,127,0
0,50,92,4
0,50,88,8
0,55,88,4
0,59,88,4
0,67,88,4
0,83,97,0
0,42,41,0
0,50,116,40
0,55,116,4
0,59,116,8
0,67,116,4
0,50,127,56
0,55,127,4
0,42,83,4
0,40,96,0
0,59,127,4
0,67,127,0
0,81,92,8
0,50,121,44
0,43,99,4
0,55,121,0
0,35,71,4
0,59,121,4
0,67,121,0
0,42,41,8
0,83,90,8
0,59,66,4
0,71,75,8
0,59,76,8
0,50,127,0
0,55,127,0
0,50,101,4
0,42,81,4
0,35,104,4
0,59,127,0
0,67,127,0
0,74,97,4
0,57,73,4
0,69,82,8
0,50,104,8
0,57,83,0
0,55,104,4
0,59,104,4
0,67,104,4
0,42,41,4
0,76,97,0
0,55,74,0
0,50,127,0
0,50,111,4
0,55,127,0
0,67,83,0
0,42,80,4
0,40,94,0
0,55,84,0
0,59,127,4
0,67,127,0
0,79,97,0
0,52,69,12
0,50,127,0
0,55,127,0
0,64,78,0
0,35,63,4
0,59,127,4
0,52,79,0
0,46,64,4
0,67,127,0
0,81,97,0
0,50,127,8
0,43,108,0
0,55,127,0
0,49,63,4
0,62,127,0
0,44,42,0
0,35,103,0
0,59,127,0
0,50,69,4
0,67,127,4
0,83,97,0
0,62,78,0
0,50,79,0
0,50,97,72
0,55,97,4
0,59,97,8
0,42,42,0
0,67,97,0
0,50,118,44
0,55,118,4
0,59,118,12
0,67,118,4
0,50,127,52
0,55,127,4
0,42,80,4
0,40,95,0
0,59,127,4
0,67,127,4
0,50,127,20
0,43,108,4
0,55,127,0
0,35,76,4
0,59,127,0
0,62,124,4
0,42,41,4
0,67,127,0
0,50,127,4
0,38,101,4
0,42,83,0
0,55,127,0
0,35,104,4
0,59,127,4
0,64,124,0
0,67,127,4
0,50,114,32
0,38,104,4
0,55,114,0
0,35,76,4
0,67,127,0
0,59,114,4
0,67,114,0
0,42,44,4
0,50,127,32
0,43,94,4
0,55,127,0
0,42,80,4
0,40,94,0
0,59,127,0
0,67,127,8
0,69,127,4
0,50,127,4
0,38,101,4
0,55,127,0
0,35,61,4
0,59,127,4
0,67,127,0
0,42,41,4
0,64,102,4
0,69,102,4
0,72,102,0
0,52,127,4
0,33,102,4
0,57,127,0
0,42,84,4
0,35,105,4
0,60,127,0
0,64,127,0
0,52,97,40
0,57,97,4
0,60,97,8
0,64,97,0
0,42,42,4
0,52,123,40
0,57,123,4
0,60,123,8
0,64,123,4
0,52,127,0
0,57,127,4
0,42,83,4
0,40,97,0
0,60,127,4
0,64,127,4
0,52,127,24
0,33,102,4
0,57,127,0
0,64,127,0
0,35,67,4
0,60,127,4
0,64,127,4
0,42,41,4
0,72,102,0
0,64,102,4
0,67,102,0
0,52,127,8
0,67,127,0
0,36,101,4
0,55,127,0
0,42,80,0
0,35,102,0
0,60,127,4
0,64,127,0
0,52,112,60
0,36,99,4
0,55,112,0
0,35,67,4
0,60,112,4
0,42,43,4
0,64,112,0
0,52,127,116
0,42,81,4
0,55,127,0
0,40,92,4
0,60,127,4
0,64,127,4
0,52,121,20
0,67,127,0
0,31,102,4
0,55,121,0
0,35,57,4
0,60,121,4
0,42,41,4
0,64,121,0
0,67,102,12
0,71,102,4
0,62,102,0
0,50,127,12
0,43,101,4
0,55,127,0
0,64,127,0
0,42,83,4
0,35,101,4
0,59,127,0
0,67,127,0
0,50,104,92
0,55,104,4
0,59,104,8
0,67,104,4
0,42,41,4
0,50,127,40
0,55,127,4
0,59,127,4
0,67,127,4
0,62,124,24
0,50,123,24
0,55,123,4
0,42,82,4
0,40,96,0
0,59,123,0
0,67,123,8
0,50,127,44
0,50,78,4
0,55,127,0
0,43,101,4
0,35,71,4
0,62,88,0
0,59,127,4
0,50,68,0
0,67,127,4
0,42,41,4
0,40,56,28
0,52,81,0
0,50,127,0
0,55,127,4
0,50,113,4
0,42,84,0
0,35,104,0
0,64,91,0
0,59,127,0
0,52,71,0
0,67,127,0
0,50,114,20
0,55,114,0
0,35,71,8
0,59,114,4
0,67,114,4
0,42,41,4
0,55,101,0
0,50,127,4
0,50,104,0
0,55,127,0
0,42,80,4
0,40,94,0
0,67,111,0
0,59,127,4
0,55,91,0
0,67,127,0
0,50,121,28
0,55,121,4
0,59,121,12
0,67,121,4
0,42,44,4
0,57,101,0
0,50,127,4
0,43,101,4
0,55,127,0
0,69,111,4
0,42,81,4
0,57,91,0
0,35,101,4
0,59,127,0
0,67,127,4
0,50,94,0
0,55,94,4
0,59,104,0
0,59,94,4
0,67,94,0
0,71,114,0
0,42,44,4
0,59,94,0
0,50,121,44
0,55,121,4
0,59,121,8
0,67,121,4
0,50,123,48
0,55,123,4
0,42,84,8
0,40,96,0
0,59,123,4
0,67,123,4
0,57,95,48
0,43,101,4
0,50,127,0
0,55,127,0
0,69,105,0
0,35,81,4
0,57,85,0
0,59,127,4
0,67,127,4
0,42,42,4
0,59,97,4
0,50,125,0
0,38,101,4
0,55,125,0
0,42,83,8
0,71,107,0
0,59,125,4
0,59,87,0
0,67,125,4
0,50,101,92
0,38,106,4
0,55,101,0
0,35,71,8
0,59,101,4
0,67,101,4
0,42,41,0
0,50,127,0
0,62,94,0
0,55,127,0
0,42,84,0
0,40,94,4
0,74,104,0
0,59,127,4
0,62,84,0
0,67,127,0
0,59,81,28
0,71,91,8
0,59,71,0
0,38,106,0
0,50,123,0
0,55,123,0
0,35,63,8
0,57,91,0
0,59,123,0
0,67,123,0
0,69,101,0
0,46,54,4
0,57,81,0
0,55,87,8
0,67,97,8
0,55,77,8
0,50,127,0
0,43,101,4
0,55,127,0
0,50,71,4
0,62,127,0
0,42,83,4
0,35,103,4
0,59,127,0
0,62,81,0
0,67,127,4
0,50,61,4
0,50,100,68
0,55,100,4
0,59,100,12
0,67,100,4
0,42,43,0
0,50,123,52
0,55,123,4
0,59,123,8
0,67,123,4
0,50,127,48
0,55,127,4
0,42,80,8
0,40,95,0
0,59,127,4
0,67,127,4
0,43,108,20
0,50,125,0
0,55,125,0
0,35,76,8
0,59,125,4
0,62,124,0
0,67,125,4
0,42,44,4
0,50,127,4
0,38,115,4
0,55,127,0
0,64,122,0
0,42,81,4
0,35,104,0
0,59,127,4
0,67,127,4
0,50,105,36
0,55,105,0
0,67,127,8
0,59,105,4
0,67,105,4
0,42,43,4
0,43,97,16
0,50,127,0
0,42,83,4
0,55,127,0
0,40,94,4
0,59,127,4
0,67,127,4
0,50,127,8
0,38,97,4
0,55,127,0
0,35,61,4
0,69,127,0
0,59,127,4
0,67,127,4
0,42,42,4
0,72,102,0
0,69,102,0
0,64,102,0
0,52,127,8
0,57,127,0
0,33,91,0
0,42,83,4
0,60,127,0
0,35,105,4
0,64,127,4
0,52,104,8
0,57,104,4
0,60,104,4
0,64,104,0
0,42,43,0
0,52,118,16
0,57,118,4
0,60,118,8
0,64,118,4
0,52,125,20
0,57,125,4
0,42,80,4
0,40,97,0
0,60,125,0
0,64,125,4
0,52,125,32
0,57,125,0
0,33,104,4
0,35,67,4
0,64,124,0
0,60,125,0
0,64,125,4
0,42,43,8
0,64,102,4
0,72,102,0
0,67,102,0
0,67,120,0
0,52,127,0
0,55,127,0
0,36,101,8
0,60,127,4
0,42,80,4
0,35,102,0
0,64,127,0
0,52,111,84
0,55,111,0
0,36,111,4
0,35,67,4
0,60,111,0
0,64,111,4
0,42,40,4
0,52,127,68
0,55,127,4
0,42,83,4
0,40,92,0
0,60,127,0
0,64,127,4
0,52,114,124
0,36,101,4
0,55,114,0
0,67,124,0
0,35,57,4
0,42,43,8
0,60,114,0
0,64,114,0
0,71,102,4
0,67,102,0
0,62,102,0
0,50,127,4
0,55,127,0
0,43,111,4
0,64,108,0
0,42,80,4
0,35,101,4
0,59,127,0
0,67,127,0
0,50,104,8
0,55,104,4
0,62,127,4
0,42,40,8
0,59,104,0
0,67,104,0
0,50,121,36
0,55,121,4
0,59,121,12
0,67,121,4
0,50,123,48
0,55,123,4
0,42,81,4
0,40,96,0
0,59,123,4
0,67,123,0
0,50,75,40
0,62,85,16
0,50,65,4
0,50,125,4
0,43,104,4
0,55,125,0
0,35,71,4
0,59,125,4
0,67,125,0
0,42,40,4
0,50,125,0
0,52,87,0
0,50,108,4
0,55,125,0
0,42,80,4
0,35,104,0
0,64,97,0
0,59,125,0
0,67,125,0
0,52,77,0
0,50,94,12
0,55,94,4
0,59,94,8
0,42,40,4
0,67,94,0
0,55,95,0
0,67,105,0
0,55,85,0
0,50,127,4
0,50,104,4
0,55,127,0
0,42,80,4
0,40,94,0
0,59,127,4
0,67,127,0
0,50,127,24
0,57,65,0
0,55,127,4
0,59,127,4
0,69,75,4
0,42,44,4
0,67,127,0
0,57,55,0
0,59,75,0
0,50,127,0
0,43,97,4
0,42,84,0
0,55,127,0
0,35,101,4
0,71,85,0
0,59,127,4
0,59,65,4
0,67,127,0
0,50,94,96
0,55,94,4
0,59,94,4
0,42,42,0
0,67,94,0
0,50,112,44
0,55,112,0
0,59,112,12
0,67,112,4
0,50,118,52
0,55,118,4
0,42,83,4
0,40,96,0
0,59,118,0
0,67,118,8
0,50,127,72
0,43,108,4
0,55,127,0
0,35,71,4
0,59,127,0
0,42,42,8
0,67,127,0
0,40,56,28
0,50,127,28
0,67,90,0
0,38,108,4
0,55,127,0
0,42,83,0
0,35,104,0
0,71,127,0
0,59,127,4
0,67,127,4
0,50,111,108
0,38,113,4
0,55,111,0
0,35,71,4
0,59,111,4
0,67,111,0
0,42,43,8
0,50,127,84
0,55,127,4
0,72,127,0
0,69,78,0
0,42,82,4
0,40,94,0
0,59,127,4
0,67,127,0
0,50,127,60
0,38,104,4
0,55,127,0
0,35,63,4
0,59,127,4
0,67,127,4
0,46,54,4
0,50,127,8
0,43,94,4
0,55,127,0
0,49,61,4
0,71,80,0
0,35,103,4
0,59,127,0
0,74,127,4
0,67,127,0
0,50,105,72
0,43,99,4
0,55,105,0
0,59,105,8
0,67,105,4
0,42,43,0
0,50,121,48
0,55,121,0
0,59,121,12
0,67,121,4
0,50,125,4
0,42,81,4
0,55,125,0
0,40,95,4
0,59,125,4
0,67,125,0
0,50,127,4
0,43,113,4
0,55,127,0
0,35,83,4
0,59,127,0
0,42,41,8
0,67,127,0
0,50,125,20
0,38,102,4
0,55,125,0
0,71,127,0
0,42,80,4
0,67,85,0
0,59,125,4
0,67,125,4
0,50,102,112
0,38,102,4
0,35,88,0
0,55,102,0
0,59,102,8
0,67,102,0
0,42,44,0
0,74,127,44
0,50,127,4
0,55,127,4
0,42,84,4
0,40,94,0
0,59,127,4
0,71,88,0
0,67,127,4
0,50,127,12
0,55,127,4
0,38,115,4
0,35,61,4
0,59,127,4
0,67,127,4
0,42,43,4
0,71,102,4
0,62,102,0
0,65,102,0
0,67,102,4
0,79,127,0
0,50,127,0
0,43,101,4
0,74,87,0
0,55,127,0
0,42,83,4
0,35,105,4
0,59,127,0
0,65,127,0
0,67,127,4
0,43,94,52
0,50,98,0
0,55,98,4
0,59,98,8
0,65,98,0
0,67,98,4
0,42,40,4
0,50,117,36
0,55,117,4
0,59,117,12
0,65,117,0
0,67,117,0
0,50,125,60
0,55,125,4
0,42,83,4
0,40,97,0
0,59,125,4
0,65,125,0
0,67,125,4
0,50,125,16
0,38,104,4
0,55,125,0
0,79,127,4
0,35,67,4
0,74,82,0
0,59,125,4
0,65,125,0
0,67,125,4
0,42,40,4
0,50,127,4
0,43,104,4
0,55,127,0
0,79,127,4
0,42,80,4
0,35,102,0
0,59,127,4
0,65,127,4
0,74,87,0
0,67,127,0
0,50,103,4
0,43,104,4
0,55,103,0
0,35,67,8
0,59,103,4
0,65,103,0
0,67,103,4
0,42,43,0
0,50,127,0
0,38,99,4
0,55,127,0
0,42,81,8
0,40,92,0
0,59,127,4
0,65,127,0
0,67,127,4
0,50,117,120
0,71,91,0
0,55,117,0
0,43,91,4
0,78,121,0
0,35,57,4
0,59,117,4
0,65,117,0
0,67,117,4
0,46,53,4
0,72,102,16
0,67,102,0
0,64,102,0
0,52,127,4
0,72,90,4
0,55,127,0
0,36,94,4
0,78,127,0
0,42,81,4
0,35,101,4
0,60,127,0
0,64,127,4
0,52,96,88
0,36,99,4
0,55,96,0
0,60,96,12
0,64,96,4
0,42,43,0
0,52,121,40
0,55,121,4
0,60,121,4
0,64,121,8
0,52,112,48
0,76,127,4
0,55,112,0
0,42,83,4
0,40,96,4
0,60,112,4
0,67,84,0
0,64,112,4
0,36,101,16
0,52,127,0
0,55,127,0
