track,note,velocity,time
0,36,103,0
0,42,105,0
0,51,97,9
0,51,97,0
0,39,96,7
0,41,87,2
0,53,59,2
0,53,59,0
0,42,81,35
0,72,89,3
0,63,93,0
0,56,85,22
0,56,85,0
0,36,106,14
0,38,103,2
0,42,108,0
0,70,94,10
0,62,93,0
0,42,73,27
0,51,91,6
0,51,91,0
0,68,96,3
0,60,98,0
0,42,91,76
0,36,107,1
0,29,98,1
0,42,83,47
0,48,85,1
0,48,85,0
0,38,94,87
0,42,108,0
0,36,108,3
0,46,93,4
0,46,93,0
0,48,64,0
0,48,64,0
0,42,80,56
0,51,73,0
0,51,73,0
0,42,100,88
0,36,110,5
0,46,98,5
0,46,98,0
0,41,98,4
0,48,41,1
0,48,41,0
0,42,81,35
0,60,94,8
0,68,91,4
0,51,87,22
0,51,87,0
0,38,101,1
0,42,106,1
0,36,106,1
0,66,68,0
0,58,93,5
0,67,94,6
0,51,82,7
0,51,82,0
0,42,91,17
0,46,98,0
0,46,98,0
0,65,85,4
0,56,96,4
0,41,81,34
0,36,103,11
0,48,85,0
0,48,85,0
0,36,106,6
0,42,96,3
0,39,83,7
0,42,83,9
0,51,99,1
0,51,99,0
0,41,98,14
0,53,92,3
0,53,92,0
0,38,103,3
0,42,107,0
0,58,94,0
0,70,85,0
0,36,108,1
0,65,88,1
0,68,87,3
0,44,82,13
0,46,80,1
0,56,87,0
0,56,87,0
0,42,93,3
0,36,103,0
0,42,105,0
0,58,72,0
0,56,79,1
0,56,79,0
0,46,100,1
0,68,64,1
0,65,76,0
0,62,72,1
0,56,25,0
0,56,25,0
0,42,81,3
0,56,61,72
0,56,61,0
0,36,106,10
0,38,103,2
0,42,108,0
0,56,102,0
0,56,102,0
0,56,55,17
0,56,55,0
0,56,95,1
0,56,95,0
0,42,73,1
0,46,88,16
0,56,96,69
0,56,96,0
0,41,96,3
0,42,91,1
0,36,107,1
0,34,92,14
0,56,99,23
0,56,99,0
0,42,83,1
0,68,80,12
0,56,90,28
0,56,90,0
0,38,94,15
0,42,108,0
0,36,108,3
0,56,95,2
0,56,95,0
0,34,87,1
0,56,91,3
0,56,91,0
0,65,9,5
0,68,89,8
0,42,80,4
0,41,90,0
0,65,3,11
0,62,3,0
0,42,100,2
0,46,99,0
0,42,100,0
0,46,104,0
0,36,110,3
0,42,81,56
0,56,96,4
0,56,96,0
0,38,101,89
0,42,106,1
0,36,106,1
0,56,92,6
0,56,92,0
0,42,91,8
0,56,88,57
0,56,88,0
0,36,106,8
0,42,96,1
0,56,96,0
0,56,96,0
0,46,89,11
0,56,100,0
0,56,100,0
0,36,99,17
0,42,83,10
0,39,103,5
0,38,103,15
0,42,107,0
0,36,108,1
0,40,97,42
0,46,80,1
0,42,93,29
0,36,103,0
0,42,105,0
0,51,97,9
0,51,97,0
0,39,96,7
0,41,87,2
0,53,59,2
0,53,59,0
0,42,81,35
0,72,87,3
0,63,91,0
0,56,85,17
0,56,85,0
0,36,106,14
0,38,103,2
0,42,108,0
0,70,91,10
0,62,92,0
0,42,73,58
0,60,94,5
0,51,91,1
0,51,91,0
0,68,94,0
0,42,91,76
0,36,107,1
0,29,98,1
0,42,83,47
0,48,85,1
0,48,85,0
0,38,94,87
0,42,108,0
0,36,108,3
0,46,93,4
0,46,93,0
0,48,64,0
0,48,64,0
0,42,80,56
0,51,73,0
0,51,73,0
0,42,100,88
0,36,110,5
0,46,98,5
0,46,98,0
0,41,98,2
0,48,41,9
0,48,41,0
0,42,81,35
0,60,89,1
0,68,81,4
0,51,87,23
0,51,87,0
0,38,101,1
0,42,106,1
0,36,106,1
0,67,91,3
0,58,97,0
0,51,82,7
0,51,82,0
0,42,91,17
0,46,98,0
0,46,98,0
0,65,87,3
0,56,103,0
0,41,81,34
0,36,103,11
0,48,85,0
0,48,85,0
0,36,106,6
0,42,96,3
0,39,83,7
0,77,87,3
0,42,83,3
0,51,99,1
0,51,99,0
0,41,98,2
0,53,92,3
0,53,92,0
0,38,103,3
0,42,107,0
0,36,108,1
0,80,94,13
0,82,78,10
0,44,82,17
0,46,80,1
0,56,87,7
0,56,87,0
0,84,87,5
0,42,93,1
0,36,103,0
0,42,105,0
0,51,97,9
0,39,96,7
0,41,87,2
0,53,59,2
0,72,91,14
0,63,94,0
0,42,81,9
0,82,87,4
0,80,83,14
0,56,85,8
0,56,85,11
0,70,91,11
0,62,91,0
0,36,106,3
0,82,87,0
0,38,103,2
0,42,108,0
0,42,73,39
0,51,91,2
0,68,96,0
0,60,91,0
0,51,91,4
0,77,73,0
0,80,94,26
0,42,91,50
0,36,107,1
0,29,98,1
0,80,93,4
0,42,83,47
0,48,85,1
0,48,85,0
0,82,85,22
0,38,94,65
0,42,108,0
0,36,108,3
0,46,93,2
0,48,64,0
0,42,80,56
0,51,73,0
0,51,73,1
0,77,75,0
0,77,53,29
0,42,100,6
0,80,100,2
0,36,110,3
0,39,98,2
0,46,98,3
0,48,41,9
0,80,103,39
0,42,81,3
0,68,85,2
0,60,87,5
0,80,100,2
0,51,87,2
0,51,87,11
0,55,93,43
0,38,101,1
0,42,106,1
0,36,106,1
0,63,89,1
0,75,99,1
0,51,82,7
0,56,89,3
0,65,85,5
0,42,91,4
0,46,98,0
0,46,98,0
0,77,91,1
0,41,81,2
0,36,103,8
0,48,85,0
0,48,85,5
0,36,106,1
0,42,96,3
0,77,98,0
0,39,83,7
0,42,83,9
0,51,99,0
0,51,99,1
0,77,98,31
0,41,98,14
0,53,92,3
0,53,92,2
0,38,103,1
0,42,107,0
0,36,108,1
0,44,82,17
0,42,80,1
0,56,87,2
0,56,87,5
0,42,93,31
0,36,103,0
0,42,105,0
0,84,74,0
0,51,97,8
0,84,97,4
0,39,96,3
0,41,87,2
0,53,59,2
0,84,100,11
0,72,91,26
0,63,94,0
0,42,81,1
0,56,85,29
0,84,107,7
0,56,85,4
0,70,91,11
0,62,91,0
0,36,106,3
0,38,103,2
0,42,108,0
0,77,99,14
0,42,73,12
0,51,91,2
0,68,96,0
0,60,91,0
0,51,91,4
0,80,103,11
0,42,91,9
0,36,107,1
0,29,98,1
0,80,96,24
0,42,83,5
0,48,85,1
0,48,85,0
0,82,99,4
0,38,94,11
0,42,108,0
0,36,108,3
0,46,93,4
0,48,64,0
0,42,80,56
0,51,73,0
0,51,73,1
0,77,87,2
0,77,87,9
0,80,105,18
0,42,100,3
0,42,100,0
0,36,110,3
0,39,98,2
0,46,98,3
0,48,41,2
0,80,96,38
0,42,81,4
0,68,85,2
0,60,87,5
0,80,99,2
0,51,87,4
0,51,87,11
0,55,93,13
0,38,101,1
0,42,106,1
0,36,106,1
0,63,89,2
0,75,101,0
0,51,82,7
0,56,89,6
0,65,85,5
0,42,91,4
0,46,98,0
0,46,98,0
0,77,95,31
0,41,81,3
0,36,103,11
0,48,85,0
0,48,85,4
0,36,106,1
0,42,96,3
0,77,92,6
0,39,83,7
0,42,83,9
0,51,99,0
0,51,99,1
0,77,103,10
0,41,98,14
0,53,92,3
0,53,92,2
0,38,103,1
0,42,107,0
0,36,108,1
0,77,87,1
0,65,77,8
0,70,82,0
0,58,93,3
0,65,87,1
0,70,78,2
0,58,88,0
0,44,82,11
0,46,80,1
0,56,87,2
0,56,87,5
0,80,100,8
0,42,93,2
0,36,103,0
0,42,105,0
0,46,76,0
0,56,79,1
0,46,100,1
0,82,103,0
0,56,25,0
0,42,81,1
0,56,61,3
0,36,106,10
0,38,103,2
0,42,108,0
0,56,102,0
0,82,104,18
0,56,55,17
0,56,96,1
0,56,95,1
0,42,73,1
0,46,88,16
0,56,96,69
0,77,80,0
0,41,96,3
0,42,91,1
0,36,107,1
0,34,92,14
0,56,96,1
0,80,104,8
0,82,106,18
0,56,99,3
0,42,83,1
0,56,90,62
0,82,110,1
0,38,94,15
0,42,108,0
0,36,108,3
0,56,95,0
0,34,87,8
0,56,91,3
0,42,80,4
0,41,90,0
0,77,91,16
0,58,66,3
0,53,87,1
0,46,91,4
0,42,100,8
0,46,99,0
0,80,96,1
0,46,104,0
0,36,110,3
0,58,105,7
0,82,107,5
0,42,81,2
0,56,96,4
0,68,55,17
0,82,108,25
0,38,101,47
0,42,106,1
0,36,106,1
0,80,103,10
0,56,92,11
0,42,91,8
0,84,106,39
0,56,88,18
0,36,106,8
0,42,96,1
0,56,96,0
0,82,102,14
0,56,100,0
0,46,89,1
0,41,99,0
0,42,83,1
0,82,105,43
0,63,94,38
0,44,103,5
0,38,103,5
0,42,107,0
0,36,108,0
0,60,85,0
0,63,95,3
0,60,87,0
0,63,91,25
0,45,97,13
0,60,84,4
0,63,90,0
0,77,94,23
0,60,96,0
0,42,93,28
0,36,103,0
0,42,105,0
0,46,76,0
0,56,79,1
0,80,105,0
0,46,100,1
0,84,99,5
0,82,104,13
0,86,97,11
0,56,25,0
0,42,81,9
0,82,108,56
0,86,100,5
0,56,61,11
0,36,106,7
0,38,103,2
0,42,108,0
0,56,102,0
0,56,55,17
0,56,96,1
0,56,95,1
0,42,73,1
0,46,88,16
0,77,91,40
0,82,56,12
0,56,96,0
0,41,96,3
0,80,91,0
0,42,91,1
0,84,81,0
0,36,107,1
0,34,92,14
0,56,96,1
0,86,95,4
0,82,107,4
0,56,99,24
0,42,83,1
0,86,100,39
0,82,108,9
0,56,90,14
0,38,94,8
0,42,108,0
0,36,108,3
0,56,95,2
0,34,87,8
0,56,91,3
0,42,80,4
0,41,90,0
0,77,90,11
0,58,66,3
0,53,87,1
0,46,91,4
0,42,100,8
0,46,99,0
0,80,93,0
0,46,104,0
0,36,110,3
0,58,105,7
0,84,103,5
0,82,105,21
0,86,96,7
0,42,81,7
0,56,96,4
0,82,108,36
0,86,101,14
0,38,101,4
0,42,106,1
0,36,106,1
0,80,97,6
0,84,90,4
0,56,92,11
0,42,91,1
0,84,100,29
0,87,94,16
0,56,88,12
0,36,106,8
0,42,96,1
0,56,96,0
0,46,89,11
0,82,103,7
0,86,100,15
0,56,100,0
0,36,99,17
0,42,83,7
0,80,104,39
0,86,98,8
0,63,94,3
0,39,103,2
0,38,103,9
0,42,107,0
0,36,108,1
0,60,85,0
0,63,95,3
0,77,100,7
0,60,87,0
0,63,91,28
0,40,97,5
0,46,80,2
0,60,84,4
0,63,90,0
0,60,96,0
0,56,100,1
0,68,93,2
0,42,93,3
0,36,103,0
0,42,105,0
0,72,68,0
0,65,74,0
0,65,80,0
0,84,94,8
0,84,103,1
0,41,91,4
0,65,66,0
0,72,69,0
0,84,94,4
0,84,95,12
0,42,81,1
0,72,91,3
0,63,89,0
0,44,85,7
0,84,89,3
0,84,96,4
0,72,94,18
0,65,85,2
0,84,94,1
0,36,106,2
0,84,103,1
0,38,103,0
0,42,108,0
0,84,100,12
0,65,90,2
0,82,79,2
0,72,96,1
0,82,84,0
0,42,73,4
0,41,92,5
0,70,94,2
0,62,95,0
0,82,96,3
0,82,100,3
0,82,103,1
0,82,105,7
0,42,91,14
0,36,107,1
0,80,97,6
0,80,101,1
0,65,64,10
0,72,69,0
0,80,93,11
0,42,83,1
0,80,4,4
0,60,95,3
0,68,96,3
0,39,96,5
0,72,81,16
0,65,70,4
0,80,98,4
0,80,99,5
0,80,104,16
0,38,94,2
0,42,108,0
0,36,108,3
0,80,100,5
0,79,89,0
0,79,92,0
0,36,102,20
0,42,80,6
0,58,96,0
0,79,100,2
0,79,93,0
0,67,96,2
0,79,89,25
0,79,100,1
0,72,69,25
0,65,67,4
0,42,100,2
0,75,96,1
0,75,96,0
0,36,110,4
0,77,73,0
0,77,78,6
0,65,20,2
0,72,60,0
0,77,91,3
0,77,87,11
0,68,91,1
0,60,91,0
0,42,81,2
0,77,99,5
0,77,97,14
0,65,86,7
0,72,94,0
0,67,89,2
0,58,98,0
0,38,101,3
0,42,106,1
0,36,106,1
0,72,96,6
0,65,78,4
0,41,94,1
0,65,83,2
0,56,100,2
0,42,91,4
0,72,70,29
0,75,101,27
0,36,106,1
0,42,96,1
0,75,99,2
0,77,84,1
0,77,80,4
0,77,95,5
0,42,83,6
0,77,72,12
0,79,83,3
0,77,100,8
0,77,95,17
0,38,103,18
0,42,107,0
0,36,108,1
0,36,89,4
0,39,93,47
0,42,80,4
0,84,99,20
0,42,93,1
0,41,91,0
0,36,103,0
0,42,105,0
0,84,97,1
0,44,95,11
0,42,81,1
0,72,90,0
0,84,87,0
0,84,96,1
0,63,100,3
0,84,101,30
0,84,97,1
0,36,106,23
0,84,83,0
0,38,103,2
0,42,108,0
0,84,98,3
0,82,81,3
0,82,79,1
0,41,91,22
0,42,73,2
0,62,89,4
0,82,89,1
0,82,101,2
0,70,89,1
0,82,103,26
0,82,101,12
0,82,103,22
0,42,91,7
0,36,107,1
0,80,85,3
0,80,96,2
0,80,100,27
0,42,83,1
0,80,94,0
0,39,97,12
0,68,93,1
0,60,94,0
0,80,101,27
0,80,96,5
0,38,94,25
0,42,108,0
0,80,106,1
0,36,108,2
0,80,96,3
0,79,83,0
0,79,92,0
0,36,83,23
0,42,80,2
0,79,90,2
0,79,95,6
0,67,89,5
0,58,95,0
0,79,82,26
0,79,98,4
0,42,100,27
0,36,103,0
0,42,105,0
0,41,96,1
0,75,99,3
0,75,95,3
0,77,78,0
0,77,75,0
0,77,93,19
0,42,81,6
0,77,83,1
0,67,92,4
0,58,91,0
0,77,106,9
0,77,94,1
0,36,106,16
0,38,103,2
0,42,108,0
0,63,93,0
0,55,84,0
0,42,73,58
0,65,82,0
0,56,96,0
0,72,52,32
0,75,103,10
0,42,91,4
0,36,107,1
0,75,90,0
0,77,83,4
0,77,81,2
0,41,86,5
0,77,93,2
0,77,90,4
0,36,99,2
0,38,94,3
0,42,83,2
0,77,103,20
0,77,92,5
0,39,95,9
0,38,94,6
0,42,108,0
0,36,108,3
0,42,80,47
0,40,88,0
0,42,100,21
0,77,90,4
0,80,101,0
0,36,110,1
0,84,100,3
0,84,108,3
0,41,91,1
0,42,81,2
0,44,85,7
0,72,88,0
0,63,100,4
0,38,101,12
0,42,106,1
0,36,106,1
0,82,103,8
0,75,100,2
0,79,100,0
0,82,87,0
0,42,91,22
0,41,92,3
0,70,87,8
0,62,92,0
0,36,106,13
0,42,96,3
0,80,108,1
0,72,101,7
0,77,94,0
0,80,87,0
0,42,83,45
0,39,96,14
0,68,93,2
0,60,94,0
0,38,103,22
0,42,107,0
0,36,108,1
0,70,94,2
0,75,91,0
0,79,96,0
0,79,107,7
0,36,102,35
0,67,90,22
0,58,100,0
0,67,81,26
0,70,81,0
0,75,76,4
0,42,93,7
0,36,103,0
0,42,105,0
0,75,99,2
0,72,88,10
0,77,49,6
0,68,81,3
0,77,77,3
0,77,91,22
0,42,81,3
0,72,86,4
0,77,79,0
0,68,83,3
0,60,87,0
0,68,79,0
0,77,112,10
0,72,99,5
0,77,88,0
0,68,96,3
0,36,106,5
0,38,103,2
0,42,108,0
0,67,91,2
0,58,97,0
0,41,94,11
0,42,73,7
0,65,89,6
0,56,100,0
0,75,94,95
0,67,82,4
0,70,80,0
0,42,91,5
0,75,70,0
0,36,107,1
0,77,89,6
0,77,87,6
0,72,94,3
0,68,92,4
0,72,91,13
0,42,83,3
0,77,77,0
0,77,93,2
0,68,70,4
0,72,96,16
0,77,91,0
0,68,91,3
0,77,111,2
0,38,94,64
0,42,108,0
0,36,108,1
0,36,89,3
0,39,93,47
0,42,80,2
0,84,111,25
0,42,100,1
0,41,91,1
0,36,110,4
0,77,94,0
0,80,106,0
0,84,103,1
0,44,95,11
0,42,81,2
0,72,95,12
0,63,95,0
0,82,106,31
0,38,101,6
0,42,106,1
0,36,106,1
0,79,100,3
0,82,83,0
0,75,105,4
0,41,91,36
0,42,91,4
0,70,94,5
0,62,94,0
0,80,104,18
0,36,106,3
0,42,96,3
0,72,99,5
0,77,96,0
0,80,91,1
0,42,83,38
0,68,96,5
0,60,98,0
0,39,97,6
0,38,103,26
0,42,107,0
0,70,91,0
0,75,87,0
