track,note,velocity,time
1,36,118,70
1,36,0,175
1,43,113,5
1,43,0,25
1,48,118,14
1,48,0,34
1,43,101,11
1,43,0,52
1,36,123,0
1,36,0,179
1,43,123,1
1,43,0,114
1,48,101,6
1,43,85,60
1,48,0,11
1,36,101,49
1,43,0,3
1,35,113,57
1,36,0,3
1,35,0,170
1,42,118,7
1,42,0,111
1,47,118,9
1,47,0,108
1,42,118,12
1,42,0,55
1,35,118,5
1,35,0,176
1,42,127,4
1,42,0,111
1,47,118,9
1,42,118,60
1,47,0,10
1,42,0,43
1,35,123,7
1,35,0,51
1,40,123,9
1,40,0,171
1,28,118,9
1,28,0,95
1,28,106,25
1,28,0,104
1,35,101,16
1,35,0,58
1,40,101,2
1,40,0,180
1,28,101,0
1,28,0,68
1,28,118,52
1,40,90,60
1,28,0,5
1,40,0,54
1,28,123,1
1,28,0,59
1,35,118,1
1,35,0,129
1,35,123,51
1,35,0,115
1,30,113,5
1,30,0,56
1,35,95,4
1,35,0,94
1,35,123,26
1,35,0,138
1,35,113,42
1,35,0,60
1,35,118,30
1,37,95,30
1,35,0,8
1,37,0,52
1,35,106,0
1,35,0,58
1,37,90,2
1,37,0,60
1,28,118,0
1,28,0,171
1,40,95,9
1,40,0,105
1,35,95,15
1,35,0,104
1,40,123,16
1,40,0,60
1,28,113,0
1,28,0,169
1,40,118,11
1,40,0,84
1,35,101,6
1,40,79,30
1,35,0,1
1,28,101,59
1,40,0,4
1,28,0,46
1,40,113,10
1,40,0,53
1,35,113,7
1,35,0,135
1,35,118,45
1,35,0,105
1,35,127,15
1,35,0,109
1,30,101,11
1,35,118,60
1,30,0,1
1,35,0,128
1,35,123,51
1,35,0,90
1,30,101,0
1,30,0,24
1,35,113,6
1,35,0,103
1,35,123,17
1,35,0,40
1,31,127,20
1,43,101,120
1,31,0,3
1,43,0,56
1,31,113,1
1,31,0,60
1,33,123,0
1,33,0,148
1,33,118,32
1,33,0,31
1,38,106,29
1,38,0,175
1,37,123,5
1,37,0,60
1,35,123,0
1,35,0,106
1,35,118,14
1,35,0,103
1,31,118,17
1,31,0,165
1,31,127,15
1,33,113,60
1,31,0,3
1,33,0,157
1,33,127,20
1,30,113,60
1,33,0,4
1,30,0,176
1,42,113,0
1,37,101,60
1,42,0,4
1,30,118,56
1,37,0,3
1,42,106,57
1,30,0,8
1,42,0,50
1,30,106,2
1,30,0,54
1,31,123,6
1,114,1,0
1,114,0,3
1,43,113,117
1,31,0,1
1,43,0,58
1,31,118,1
1,31,0,60
1,33,123,0
1,33,0,104
1,33,127,16
1,33,0,104
1,38,123,16
1,38,0,180
1,37,127,0
1,37,0,58
1,35,106,2
1,35,0,96
1,35,123,24
1,35,0,65
1,36,118,55
1,36,0,175
1,43,113,5
1,43,0,25
1,48,118,14
1,48,0,34
1,43,101,11
1,43,0,52
1,36,123,0
1,36,0,179
1,43,123,1
1,43,0,114
1,48,101,6
1,43,85,60
1,48,0,11
1,36,101,49
1,43,0,3
1,36,0,57
1,36,118,0
1,36,0,175
1,43,113,5
1,43,0,25
1,48,118,14
1,48,0,34
1,43,101,11
1,43,0,52
1,36,101,0
1,35,113,0
1,36,0,3
1,35,0,170
1,42,118,7
1,42,0,111
1,47,118,9
1,47,0,108
1,42,118,12
1,42,0,55
1,35,118,5
1,35,0,176
1,42,127,4
1,42,0,111
1,47,118,9
1,42,118,60
1,47,0,10
1,42,0,43
1,35,123,7
1,35,0,51
1,36,127,9
1,36,0,129
1,36,123,51
1,36,0,191
1,36,106,19
1,31,127,30
1,36,0,1
1,31,0,58
1,36,127,1
1,36,0,129
1,36,123,51
1,36,0,81
1,36,127,39
1,36,0,89
1,35,123,1
1,33,127,30
1,35,0,8
1,33,0,43
1,31,123,9
1,31,0,171
1,43,127,9
1,43,0,120
1,31,127,0
1,31,0,114
1,43,123,6
1,43,0,46
1,33,127,14
1,33,0,141
1,33,123,39
1,33,0,50
1,28,127,70
1,28,0,54
1,33,127,6
1,33,0,76
1,36,127,42
1,36,0,135
1,36,127,45
1,36,0,183
1,36,123,27
1,36,0,26
1,33,106,4
1,33,0,28
1,31,118,2
1,36,127,30
1,31,0,5
1,36,0,115
1,36,123,60
1,36,0,66
1,36,127,54
1,35,118,90
1,36,0,3
1,35,0,26
1,33,118,1
1,33,0,49
1,31,127,11
1,31,0,143
1,43,123,37
1,43,0,115
1,38,127,5
1,31,127,90
1,38,0,9
1,31,0,71
1,33,127,10
1,33,0,110
1,33,127,70
1,33,0,84
1,33,127,36
1,33,0,110
1,28,127,10
1,28,0,48
1,36,118,12
1,36,0,175
1,43,113,5
1,43,0,25
1,48,118,13
1,48,0,34
1,43,101,11
1,43,0,51
1,36,123,0
1,36,0,179
1,43,123,1
1,43,0,114
1,48,101,6
1,43,85,60
1,48,0,11
1,36,101,49
1,43,0,3
1,35,113,57
1,36,0,3
1,35,0,170
1,42,118,7
1,42,0,111
1,47,118,9
1,47,0,108
1,42,118,12
1,42,0,55
1,35,118,5
1,35,0,176
1,42,127,4
1,42,0,111
1,47,118,9
1,42,118,60
1,47,0,10
1,42,0,43
1,35,123,7
1,35,0,51
1,40,123,9
1,40,0,171
1,28,118,9
1,28,0,95
1,28,106,25
1,28,0,104
1,35,101,16
1,35,0,58
1,40,101,2
1,40,0,180
1,28,101,0
1,28,0,68
1,28,118,52
1,40,90,60
1,28,0,5
1,40,0,54
1,28,123,1
1,28,0,59
1,35,118,1
1,35,0,129
1,35,123,51
1,35,0,115
1,30,113,5
1,30,0,56
1,35,95,4
1,35,0,94
1,35,123,26
1,35,0,138
1,35,113,42
1,35,0,60
1,35,118,30
1,37,95,30
1,35,0,8
1,37,0,52
1,35,106,0
1,35,0,58
1,37,90,2
1,37,0,60
1,28,118,0
1,28,0,171
1,40,95,9
1,40,0,105
1,35,95,15
1,35,0,104
1,40,123,16
1,40,0,60
1,28,113,0
1,28,0,169
1,40,118,11
1,40,0,84
1,35,101,6
1,40,79,30
1,35,0,1
1,28,101,59
1,40,0,4
1,28,0,46
1,40,113,10
1,40,0,53
1,35,113,7
1,35,0,135
1,35,118,45
1,35,0,105
1,35,127,15
1,35,0,109
1,30,101,11
1,35,118,60
1,30,0,1
1,35,0,128
1,35,123,51
1,35,0,90
1,30,101,0
1,30,0,24
1,35,113,6
1,35,0,103
1,35,123,17
1,35,0,40
1,31,127,20
1,43,101,120
1,31,0,3
1,43,0,56
1,31,113,1
1,31,0,60
1,33,123,0
1,33,0,148
1,33,118,32
1,33,0,31
1,38,106,29
1,38,0,175
1,37,123,5
1,37,0,60
1,35,123,0
1,35,0,106
1,35,118,14
1,35,0,103
1,31,118,17
1,31,0,165
1,31,127,15
1,33,113,60
1,31,0,3
1,33,0,157
1,33,127,20
1,30,113,60
1,33,0,4
1,30,0,176
1,42,113,0
1,37,101,60
1,42,0,4
1,30,118,56
1,37,0,3
1,42,106,57
1,30,0,8
1,42,0,50
1,30,106,2
1,30,0,54
1,31,123,6
1,43,113,120
1,31,0,1
1,43,0,58
1,31,118,1
1,31,0,60
1,33,123,0
1,33,0,104
1,33,127,16
1,33,0,104
1,38,123,16
1,38,0,180
1,37,127,0
1,37,0,58
1,35,106,2
1,35,0,96
1,35,123,24
1,35,0,65
1,36,118,55
1,36,0,175
1,43,113,5
1,43,0,25
1,48,118,13
1,48,0,34
1,43,101,11
1,43,0,51
1,36,123,0
1,36,0,179
1,43,123,1
1,43,0,114
1,48,101,6
1,43,85,60
1,48,0,11
1,36,101,49
1,43,0,3
1,36,0,57
1,36,118,0
1,36,0,175
1,43,113,5
1,43,0,25
1,48,118,13
1,48,0,34
1,43,101,11
1,43,0,51
1,36,101,0
1,35,113,0
1,36,0,3
1,35,0,170
1,42,118,7
1,42,0,111
1,47,118,9
1,47,0,108
1,42,118,12
1,42,0,55
1,35,118,5
1,35,0,176
1,42,127,4
1,42,0,111
1,47,118,9
1,42,118,60
1,47,0,10
1,42,0,43
1,35,123,7
1,35,0,51
1,36,127,9
1,36,0,129
1,36,123,51
1,36,0,191
1,36,106,19
1,31,127,30
1,36,0,1
1,31,0,58
1,36,127,1
1,36,0,129
1,36,123,51
1,36,0,81
1,36,127,39
1,36,0,89
1,35,123,1
1,33,127,30
1,35,0,8
1,33,0,43
1,31,123,9
1,31,0,171
1,43,127,9
1,43,0,120
1,31,127,0
1,31,0,114
1,43,123,6
1,43,0,46
1,33,127,14
1,33,0,141
1,33,123,39
1,33,0,50
1,28,127,70
1,28,0,54
1,33,127,6
1,33,0,76
1,36,127,44
1,36,0,135
1,36,127,45
1,36,0,183
1,36,123,27
1,36,0,26
1,33,106,4
1,33,0,28
1,31,118,2
1,36,127,30
1,31,0,5
1,36,0,115
1,36,123,60
1,36,0,66
1,36,127,54
1,35,118,90
1,36,0,3
1,35,0,26
1,33,118,1
1,33,0,49
1,31,127,11
1,31,0,143
1,43,123,37
1,43,0,115
1,38,127,5
1,31,127,90
1,38,0,9
1,31,0,71
1,33,127,10
1,33,0,110
1,33,127,70
1,33,0,84
1,33,127,36
1,33,0,110
1,28,127,10
1,28,0,48
1,36,118,12
1,36,0,175
1,43,113,5
1,43,0,25
1,48,118,13
1,48,0,34
1,43,101,11
1,43,0,51
1,36,123,0
1,36,0,179
1,43,123,1
1,43,0,114
1,48,101,6
1,43,85,60
1,48,0,11
1,36,101,49
1,43,0,3
1,36,0,57
1,43,101,0
1,43,0,0
1,36,123,0
1,36,0,179
1,43,123,1
1,43,0,114
1,48,101,6
1,43,85,60
1,48,0,11
1,36,101,49
1,43,0,3
1,36,0,57
1,36,101,0
1,35,113,0
1,36,0,3
1,35,0,170
1,42,118,7
1,42,0,111
1,47,118,9
1,47,0,108
1,42,118,12
1,42,0,55
1,35,118,5
1,35,0,176
1,42,127,4
1,42,0,111
1,47,118,9
1,42,118,60
1,47,0,10
1,42,0,43
1,35,123,7
1,35,0,51
1,36,127,9
1,36,0,129
1,36,123,51
1,36,0,191
1,36,106,19
1,31,127,30
1,36,0,1
1,31,0,58
1,36,127,1
1,36,0,129
1,36,123,51
1,36,0,81
1,36,127,39
1,36,0,89
1,35,123,1
1,33,127,30
1,35,0,8
1,33,0,43
1,31,123,9
1,31,0,171
1,43,127,9
1,43,0,120
1,31,127,0
1,31,0,114
1,43,123,6
1,43,0,46
1,33,127,14
1,33,0,141
1,33,123,39
1,33,0,50
1,28,127,70
1,28,0,54
1,33,127,6
1,33,0,76
1,36,127,44
1,36,0,135
1,36,127,45
1,36,0,183
1,36,123,27
1,36,0,26
1,33,106,4
1,33,0,28
1,31,118,2
1,36,127,30
1,31,0,5
1,36,0,115
1,36,123,60
1,36,0,66
1,36,127,54
1,35,118,90
1,36,0,3
1,35,0,26
1,33,118,1
1,33,0,49
1,31,127,11
1,31,0,143
1,43,123,37
1,43,0,115
1,38,127,5
1,31,127,90
1,38,0,9
1,31,0,71
1,33,127,10
1,33,0,110
1,33,127,70
1,33,0,84
1,33,127,36
1,33,0,110
1,28,127,10
1,28,0,48
1,36,127,12
1,36,0,129
1,36,123,51
1,36,0,191
1,36,106,19
1,31,127,30
1,36,0,1
1,31,0,58
1,36,127,1
1,36,0,129
1,36,123,51
1,36,0,81
1,36,127,39
1,36,0,89
1,35,123,1
1,33,127,30
1,35,0,8
1,33,0,43
1,31,123,9
1,31,0,171
1,43,127,9
1,43,0,120
1,31,127,0
1,31,0,114
1,43,123,6
1,43,0,46
1,33,127,14
1,33,0,141
1,33,123,39
1,33,0,50
1,28,127,70
1,28,0,54
1,33,127,6
1,33,0,76
1,36,127,44
1,36,0,135
1,36,127,45
1,36,0,183
1,36,123,27
1,36,0,26
1,33,106,4
1,33,0,28
1,31,118,2
1,36,127,29
1,31,0,5
1,36,0,115
1,36,123,60
1,36,0,66
1,36,127,54
1,35,118,90
1,36,0,3
1,35,0,26
1,33,118,1
1,33,0,49
1,31,127,11
1,31,0,143
1,43,123,37
1,43,0,115
1,38,127,5
1,31,127,90
1,38,0,9
1,31,0,71
1,33,127,10
1,33,0,110
1,33,127,70
1,33,0,84
1,33,127,36
1,33,0,110
1,28,127,10
1,28,0,48
1,36,127,12
1,36,0,983
2,60,57,70
2,79,85,0
2,71,78,0
2,76,79,0
2,55,73,0
2,48,74,0
2,60,0,20
2,79,0,10
2,76,0,1
2,71,0,9
2,55,0,70
2,48,0,39
2,60,13,6
2,60,0,38
2,64,95,52
2,64,0,45
2,59,78,15
2,48,75,0
2,59,0,57
2,64,101,0
2,55,85,0
2,64,0,48
2,67,127,12
2,55,0,15
2,67,0,15
2,48,0,3
2,55,85,27
2,55,0,31
2,71,127,29
2,71,0,20
2,47,101,60
2,64,118,0
2,61,95,0
2,68,113,0
2,68,0,5
2,64,0,0
2,61,0,15
2,61,90,95
2,71,127,0
2,64,118,0
2,61,0,120
2,54,95,4
2,71,0,23
2,64,0,8
2,54,0,10
2,47,0,14
2,61,82,5
2,61,0,30
2,64,118,30
2,61,106,0
2,71,123,0
2,47,106,0
2,61,0,16
2,64,0,0
2,71,0,12
2,47,0,77
2,76,95,75
2,73,82,0
2,47,85,0
2,69,82,0
2,73,0,27
2,76,0,5
2,47,0,3
2,69,0,0
2,56,75,82
2,59,73,0
2,52,74,0
2,68,85,0
2,71,82,0
2,63,90,0
2,59,0,8
2,68,0,21
2,63,0,2
2,71,0,7
2,80,95,122
2,80,0,15
2,75,118,105
2,75,0,14
2,56,0,72
2,52,0,3
2,57,74,17
2,47,85,0
2,61,82,0
2,64,95,0
2,57,0,6
2,61,0,4
2,64,0,5
2,47,0,70
2,85,79,125
2,85,0,16
2,80,79,74
2,80,0,24
2,81,74,6
2,81,0,20
2,78,82,40
2,78,0,84
2,80,67,36
2,80,0,21
2,69,73,99
2,69,0,46
2,56,78,7
2,59,74,0
2,52,65,0
2,68,73,0
2,71,73,0
2,63,78,0
2,59,0,35
2,56,0,8
2,52,0,1
2,68,0,84
2,71,0,5
2,63,0,1
2,40,95,41
2,40,0,25
2,63,95,35
2,63,0,41
2,64,127,19
2,64,0,45
2,52,74,15
2,66,127,0
2,66,0,12
2,68,118,40
2,68,0,18
2,59,90,42
2,59,0,40
2,71,113,20
2,71,0,23
2,59,59,37
2,59,0,8
2,52,0,12
2,57,90,4
2,64,95,0
2,47,106,0
2,61,95,0
2,57,0,19
2,61,0,6
2,64,0,5
2,80,78,155
2,80,0,16
2,47,0,48
2,47,67,116
2,47,0,30
2,62,127,87
2,43,127,0
2,55,123,0
2,59,127,0
2,43,0,41
2,55,0,10
2,62,0,4
2,59,0,0
2,45,113,7
2,52,101,0
2,64,118,0
2,57,106,0
2,61,118,0
2,52,0,49
2,45,0,0
2,57,0,7
2,61,0,2
2,64,0,5
2,66,113,2
2,57,101,0
2,62,127,0
2,57,0,97
2,62,0,8
2,66,0,1
2,66,101,91
2,59,113,0
2,62,127,0
2,47,123,0
2,66,0,43
2,62,0,2
2,47,0,3
2,59,0,6
2,55,123,136
2,62,127,0
2,59,127,0
2,43,123,0
2,43,0,53
2,55,0,11
2,62,0,7
2,59,0,1
2,52,113,3
2,45,118,0
2,64,123,0
2,61,118,0
2,57,106,0
2,45,0,33
2,52,0,0
2,57,0,10
2,64,0,5
2,61,0,3
2,49,118,4
2,69,118,0
2,61,113,0
2,57,101,0
2,54,82,0
2,66,118,0
2,66,0,33
2,69,0,0
2,61,0,28
2,54,0,9
2,64,123,10
2,69,123,0
2,57,0,10
2,49,0,9
2,69,0,26
2,64,0,11
2,61,113,64
2,66,118,0
2,66,0,85
2,61,0,0
2,62,123,9
2,43,106,0
2,59,118,0
2,55,113,0
2,43,0,76
2,55,0,10
2,59,0,2
2,62,0,3
2,52,82,2
2,57,106,0
2,61,106,0
2,45,118,0
2,64,118,0
2,57,0,76
2,52,0,2
2,61,0,0
2,64,0,1
2,45,0,3
2,66,118,121
2,57,118,0
2,62,127,0
2,62,0,51
2,57,0,10
2,66,0,0
2,66,118,26
2,61,127,0
