track,note,velocity,time
0,41,87,58
0,53,97,0
0,51,103,0
0,56,76,0
0,60,81,0
0,65,86,0
0,36,117,0
0,42,107,0
0,69,77,0
0,69,0,12
0,53,90,7
0,56,45,0
0,60,50,0
0,65,55,0
0,69,39,0
0,69,0,16
0,65,84,12
0,68,89,0
0,72,93,0
0,42,93,0
0,56,89,16
0,60,89,0
0,65,89,0
0,56,103,1
0,70,76,0
0,70,0,16
0,56,73,7
0,60,78,0
0,65,83,0
0,63,85,1
0,67,87,0
0,70,93,0
0,36,120,0
0,42,107,0
0,88,107,0
0,69,87,0
0,69,0,12
0,56,44,7
0,60,49,0
0,65,54,0
0,69,56,1
0,69,0,16
0,60,87,32
0,65,90,0
0,68,92,0
0,51,95,0
0,42,84,0
0,56,92,21
0,60,92,0
0,65,92,0
0,70,76,1
0,70,0,16
0,56,69,7
0,60,74,0
0,65,79,0
0,29,95,2
0,36,120,0
0,42,107,0
0,69,84,0
0,69,0,12
0,56,41,7
0,60,46,0
0,65,51,0
0,69,40,2
0,69,0,16
0,48,85,32
0,42,88,0
0,56,90,6
0,60,90,0
0,65,90,0
0,70,76,1
0,70,0,16
0,56,68,7
0,60,73,0
0,65,78,0
0,46,86,1
0,36,118,0
0,42,103,0
0,88,106,0
0,69,91,0
0,69,0,12
0,56,35,2
0,60,40,0
0,65,45,0
0,48,93,1
0,69,56,0
0,69,0,16
0,56,62,1
0,60,67,0
0,65,72,0
0,51,100,1
0,42,79,0
0,56,92,7
0,60,92,0
0,65,92,0
0,70,81,1
0,70,0,16
0,29,97,8
0,41,93,0
0,46,96,0
0,56,73,0
0,60,78,0
0,65,83,0
0,36,120,0
0,42,105,0
0,69,77,0
0,69,0,12
0,48,83,7
0,56,38,0
0,60,43,0
0,65,48,0
0,69,39,0
0,69,0,16
0,60,84,1
0,65,87,0
0,68,90,0
0,42,86,0
0,56,89,15
0,60,89,0
0,65,89,0
0,51,93,1
0,70,76,0
0,70,0,16
0,56,72,7
0,60,77,0
0,65,82,0
0,58,87,1
0,63,91,0
0,67,96,0
0,36,117,0
0,42,105,0
0,88,107,0
0,69,87,0
0,69,0,12
0,56,41,7
0,60,46,0
0,65,51,0
0,69,56,1
0,69,0,16
0,34,87,32
0,56,84,0
0,60,86,0
0,65,90,0
0,46,105,0
0,42,81,0
0,56,86,4
0,60,86,0
0,65,86,0
0,70,76,2
0,70,0,16
0,56,67,7
0,60,72,0
0,65,77,0
0,36,76,1
0,48,83,0
0,36,117,0
0,42,109,0
0,69,84,0
0,69,0,12
0,56,39,7
0,60,44,0
0,65,49,0
0,69,40,2
0,69,0,4
0,39,80,32
0,51,90,0
0,42,81,0
0,56,92,10
0,60,92,0
0,65,92,0
0,70,76,2
0,70,0,6
0,56,0,23
0,60,0,0
0,56,72,6
0,60,77,0
0,65,82,0
0,41,85,3
0,53,105,0
0,46,80,0
0,62,82,0
0,65,84,0
0,70,86,0
0,36,120,0
0,42,107,0
0,88,105,0
0,69,91,0
0,69,0,12
0,56,32,7
0,60,37,0
0,65,42,0
0,69,56,3
0,69,0,1
0,56,63,7
0,60,68,0
0,65,73,0
0,44,95,3
0,56,96,0
0,42,81,0
0,56,89,1
0,60,89,0
0,65,89,0
0,70,81,0
0,70,0,4
0,41,0,3
0,58,76,7
0,62,81,0
0,65,86,0
0,34,87,2
0,46,79,0
0,56,82,0
0,62,84,0
0,65,88,0
0,70,90,0
0,36,119,0
0,42,105,0
0,69,77,0
0,69,0,3
0,58,45,7
0,62,50,0
0,65,55,0
0,69,39,2
0,69,0,16
0,46,101,1
0,53,51,0
0,58,51,0
0,42,76,0
0,53,0,8
0,58,0,0
0,58,87,2
0,62,87,0
0,65,87,0
0,70,76,2
0,70,0,16
0,58,73,7
0,62,78,0
0,65,83,0
0,36,117,2
0,42,100,0
0,88,104,0
0,69,87,0
0,69,0,12
0,58,44,7
0,62,49,0
0,65,54,0
0,69,56,2
0,69,0,16
0,53,33,32
0,58,33,0
0,42,81,0
0,53,0,14
0,58,0,0
0,58,89,21
0,62,89,0
0,65,89,0
0,70,76,3
0,70,0,16
0,58,69,7
0,62,74,0
0,65,79,0
0,53,59,3
0,58,59,0
0,36,120,0
0,42,100,0
0,69,84,0
0,69,0,12
0,58,0,1
0,58,41,6
0,62,46,0
0,65,51,0
0,56,49,3
0,69,40,0
0,69,0,16
0,56,0,6
0,53,0,9
0,42,81,17
0,58,89,21
0,62,89,0
0,65,89,0
0,53,55,2
0,70,76,0
0,70,0,16
0,53,0,11
0,58,68,7
0,62,73,0
0,65,78,0
0,41,93,2
0,56,70,0
0,36,118,0
0,42,105,0
0,88,104,0
0,69,91,0
0,69,0,12
0,58,35,7
0,62,40,0
0,65,45,0
0,44,106,2
0,69,56,0
0,69,0,8
0,56,0,5
0,58,62,7
0,62,67,0
0,65,72,0
0,53,61,2
0,58,61,0
0,42,71,0
0,53,0,8
0,58,0,2
0,58,90,7
0,62,90,0
0,65,90,0
0,41,89,2
0,70,81,0
0,70,0,2
0,56,0,4
0,70,0,0
0,34,82,1
0,46,61,0
0,56,68,0
0,62,75,0
0,65,80,0
0,70,83,0
0,58,73,0
0,62,78,0
0,65,83,0
0,46,97,0
0,58,101,0
0,36,118,0
0,42,100,0
0,69,77,0
0,69,0,1
0,58,38,7
0,62,43,0
0,65,48,0
0,69,39,0
0,69,0,2
0,46,103,1
0,53,65,0
0,58,65,0
0,42,81,0
0,53,0,6
0,58,0,2
0,58,86,6
0,62,86,0
0,65,86,0
0,70,76,0
0,70,0,8
0,58,72,7
0,62,77,0
0,65,82,0
0,36,117,0
0,42,100,0
0,88,105,0
0,69,87,0
0,69,0,12
0,58,41,1
0,62,46,0
0,65,51,0
0,69,56,1
0,69,0,16
0,42,86,1
0,58,86,13
0,62,86,0
0,65,86,0
0,53,42,2
0,56,42,0
0,70,76,0
0,56,0,15
0,70,0,1
0,53,0,2
0,58,67,6
0,62,72,0
0,65,77,0
0,53,66,2
0,58,66,0
0,36,121,0
0,42,105,0
0,69,84,0
0,69,0,12
0,58,0,12
0,58,39,7
0,62,44,0
0,65,49,0
0,56,58,2
0,69,40,0
0,69,0,5
0,53,0,7
0,56,0,1
0,39,76,7
0,42,81,0
0,58,86,8
0,62,86,0
0,65,86,0
0,53,51,2
0,70,76,0
0,70,0,16
0,53,0,10
0,58,0,4
0,62,0,0
0,58,72,8
0,62,77,0
0,65,82,0
0,39,85,1
0,56,65,0
0,36,117,0
0,42,100,0
0,88,104,0
0,69,91,0
0,69,0,9
0,58,32,7
0,62,37,0
0,65,42,0
0,69,56,1
0,69,0,5
0,56,0,7
0,58,63,7
0,62,68,0
0,65,73,0
0,39,93,1
0,53,72,0
0,58,72,0
0,46,99,0
0,58,0,21
0,53,0,1
0,58,85,7
0,62,85,0
0,65,85,0
0,70,81,1
0,46,0,1
0,70,0,0
0,56,0,4
0,62,0,0
0,65,0,0
0,70,0,0
0,46,0,4
0,58,0,0
0,56,99,1
0,60,93,0
0,65,96,0
0,41,103,7
0,53,96,0
0,51,103,0
0,56,76,0
0,60,81,0
0,65,86,0
0,36,117,0
0,42,100,0
0,69,77,0
0,69,0,12
0,53,90,7
0,56,45,0
0,60,50,0
0,65,55,0
0,69,39,0
0,69,0,16
0,65,85,12
0,68,89,0
0,72,93,0
0,42,81,0
0,56,87,15
0,60,87,0
0,65,87,0
0,56,103,1
0,70,76,0
0,70,0,16
0,56,73,7
0,60,78,0
0,65,83,0
0,63,85,1
0,67,87,0
0,70,92,0
0,36,122,0
0,42,100,0
0,88,104,0
0,69,87,0
0,69,0,12
0,56,44,7
0,60,49,0
0,65,54,0
0,69,56,1
0,69,0,16
0,60,88,32
0,65,90,0
0,68,94,0
0,51,95,0
0,42,86,0
0,56,87,21
0,60,87,0
0,65,87,0
0,70,76,1
0,70,0,16
0,56,69,7
0,60,74,0
0,65,79,0
0,29,91,2
0,36,120,0
0,42,105,0
0,69,84,0
0,69,0,12
0,56,41,7
0,60,46,0
0,65,51,0
0,69,40,2
0,69,0,16
0,48,85,32
0,42,86,0
0,56,89,4
0,60,89,0
0,65,89,0
0,70,76,3
0,70,0,16
0,56,68,7
0,60,73,0
0,65,78,0
0,46,86,3
0,36,120,0
0,42,109,0
0,88,107,0
0,69,91,0
0,69,0,12
0,56,35,0
0,60,40,0
0,65,45,0
0,48,93,3
0,69,56,0
0,69,0,16
0,56,62,7
0,60,67,0
0,65,72,0
0,51,100,2
0,42,76,0
0,56,85,5
0,60,85,0
0,65,85,0
0,70,81,3
0,70,0,16
0,56,73,9
0,60,78,0
0,65,83,0
0,29,91,1
0,41,98,0
0,46,96,0
0,36,120,0
0,42,100,0
0,69,77,0
0,69,0,12
0,56,38,7
0,60,43,0
0,65,48,0
0,48,83,1
0,69,39,0
0,69,0,16
0,60,85,16
0,65,87,0
0,68,93,0
0,42,81,0
0,56,85,14
0,60,85,0
0,65,85,0
0,51,93,2
0,70,76,0
0,70,0,16
0,56,72,7
0,60,77,0
0,65,82,0
0,58,86,2
0,63,89,0
0,67,94,0
0,36,117,0
0,42,105,0
0,88,105,0
0,69,87,0
0,69,0,12
0,56,41,7
0,60,46,0
0,65,51,0
0,69,56,2
0,69,0,16
0,34,99,32
0,56,80,0
0,60,87,0
0,65,93,0
0,46,105,0
0,42,86,0
0,56,87,5
0,60,87,0
0,65,87,0
0,70,76,1
0,70,0,16
0,56,67,0
0,60,72,0
0,65,77,0
0,36,80,1
0,48,83,0
0,36,118,0
0,42,105,0
0,69,84,0
0,69,0,12
0,56,39,7
0,60,44,0
0,65,49,0
0,69,40,1
0,69,0,16
0,65,98,27
0,65,98,0
0,39,85,3
0,51,90,0
0,42,81,0
0,56,92,11
0,60,92,0
0,65,92,0
0,70,76,1
0,70,0,4
0,65,0,5
0,56,0,19
0,60,0,0
0,68,102,5
0,68,102,0
0,56,72,2
0,60,77,0
0,65,82,0
0,41,97,1
0,53,105,0
0,36,118,0
0,42,105,0
0,88,103,0
0,69,91,0
0,69,0,12
0,68,0,4
0,70,113,1
0,70,113,0
0,56,32,2
0,60,37,0
0,65,42,0
0,69,56,1
0,69,0,16
0,56,63,7
0,60,68,0
0,65,73,0
0,44,101,1
0,56,96,0
0,46,101,0
0,70,0,25
0,72,110,5
0,72,110,0
0,56,93,2
0,60,93,0
0,65,93,0
0,70,81,1
0,70,0,0
0,41,0,8
0,41,93,8
0,53,97,0
0,51,103,0
0,56,78,0
0,60,83,0
0,65,88,0
0,36,118,0
0,42,109,0
0,69,77,0
0,69,0,12
0,53,90,7
0,56,47,0
0,60,52,0
0,65,57,0
0,69,39,0
0,69,0,16
0,72,0,5
0,70,105,9
0,70,105,0
0,65,84,3
0,68,89,0
0,72,93,0
0,42,81,0
0,70,0,13
0,68,112,1
0,68,112,0
0,56,87,2
0,60,87,0
0,65,87,0
0,56,103,1
0,70,76,0
0,70,0,16
0,68,0,4
0,70,106,1
0,70,106,0
0,56,75,2
0,60,80,0
0,65,85,0
0,63,85,1
0,67,87,0
0,70,93,0
0,36,117,0
0,42,109,0
0,88,105,0
0,69,87,0
0,69,0,12
0,70,0,4
0,65,97,1
0,65,97,0
0,56,46,2
0,60,51,0
0,65,56,0
0,69,56,1
0,69,0,16
0,60,87,32
0,65,90,0
0,68,92,0
0,51,95,0
0,42,90,0
0,65,0,11
0,68,100,5
0,68,102,0
0,56,86,1
0,60,86,0
0,65,86,0
0,70,76,1
0,70,0,16
0,56,71,7
0,60,76,0
0,65,81,0
0,29,99,2
0,36,117,0
0,42,105,0
0,69,84,0
0,69,0,12
0,68,0,2
0,68,108,6
0,68,108,0
0,56,43,1
0,60,48,0
0,65,53,0
0,69,40,2
0,69,0,16
0,48,85,32
0,42,86,0
0,68,0,9
0,70,104,4
0,70,104,0
0,56,84,2
0,60,84,0
0,65,84,0
0,70,76,1
0,70,0,16
0,56,70,7
0,60,75,0
0,65,80,0
0,46,86,1
0,36,118,0
0,42,109,0
0,88,107,0
0,69,91,0
0,69,0,12
0,70,0,5
0,65,112,5
0,65,112,0
0,56,37,2
0,60,42,0
0,65,47,0
0,48,93,1
0,69,56,0
0,69,0,16
0,65,0,1
0,65,101,5
0,65,101,0
0,56,56,1
0,60,61,0
0,65,66,0
0,51,100,1
0,42,86,0
0,65,0,4
0,68,109,1
0,68,109,0
0,56,84,2
0,60,84,0
0,65,84,0
0,70,81,1
0,70,0,16
0,39,97,8
0,51,74,0
0,46,96,0
0,58,75,0
0,63,80,0
0,67,85,0
0,36,120,0
0,42,105,0
0,69,77,0
0,69,0,12
0,68,0,5
0,68,116,4
0,68,116,0
0,48,83,3
0,58,40,0
0,63,45,0
0,67,50,0
0,69,39,0
0,69,0,16
0,68,0,9
0,63,104,20
0,63,104,0
0,60,84,1
0,65,87,0
0,68,90,0
0,42,81,0
0,58,86,15
0,63,86,0
0,67,86,0
0,51,93,1
0,70,76,0
0,70,0,16
0,63,0,13
0,58,74,7
0,63,79,0
0,67,84,0
0,58,87,1
0,63,91,0
0,67,96,0
0,36,119,0
0,42,105,0
0,88,105,0
0,69,87,0
0,69,0,12
0,58,47,7
0,63,52,0
0,67,57,0
0,69,56,1
0,69,0,16
0,51,0,12
0,63,104,17
0,63,104,0
0,34,101,3
0,53,76,0
0,56,84,0
0,60,86,0
0,65,90,0
0,46,105,0
0,42,81,0
0,56,69,4
0,60,74,0
0,65,79,0
0,70,76,2
0,70,0,16
0,63,0,5
0,65,110,1
0,65,110,0
0,36,87,1
0,48,83,0
0,36,117,0
0,42,105,0
0,69,84,0
0,69,0,12
0,56,47,10
0,60,52,0
0,65,57,0
0,69,40,2
0,65,0,9
0,69,0,7
0,65,101,15
0,65,101,0
0,39,84,3
0,51,90,0
0,42,86,0
0,65,0,17
0,65,116,9
0,65,116,0
0,56,88,1
0,60,88,0
0,65,88,0
0,70,76,2
0,70,0,16
0,56,0,14
0,60,0,0
0,56,74,6
0,60,79,0
0,65,84,0
0,41,85,3
0,53,105,0
0,36,117,0
0,42,100,0
0,88,105,0
0,69,91,0
0,69,0,12
0,65,0,7
0,56,34,0
0,60,39,0
0,65,44,0
0,69,56,3
0,69,0,16
0,56,65,7
0,60,70,0
0,65,75,0
0,44,93,3
0,56,96,0
0,46,99,0
0,56,92,7
0,60,92,0
0,65,92,0
0,70,81,0
0,70,0,4
0,53,0,4
0,72,101,7
0,72,101,0
0,41,101,3
0,53,96,0
0,51,103,0
0,56,78,0
0,60,83,0
0,65,88,0
0,36,117,0
0,42,105,0
0,69,77,0
0,69,0,12
0,72,0,1
0,72,110,4
0,72,110,0
0,53,90,3
0,56,47,0
0,60,52,0
0,65,57,0
0,69,39,0
0,69,0,16
0,65,85,12
0,68,89,0
0,72,93,0
0,42,86,0
0,72,0,1
0,72,116,16
0,72,116,0
0,56,87,2
0,60,87,0
0,65,87,0
0,56,103,1
0,70,76,0
0,70,0,16
0,56,75,7
0,60,80,0
0,65,85,0
0,63,85,1
0,67,87,0
0,70,92,0
0,36,117,0
0,42,109,0
0,88,105,0
0,69,87,0
0,69,0,12
0,56,46,7
0,60,51,0
0,65,56,0
0,69,56,1
0,72,0,13
0,69,0,3
0,65,99,29
0,65,99,0
0,60,88,3
0,65,90,0
0,68,94,0
0,51,95,0
0,42,71,0
0,65,0,9
0,68,104,11
0,68,104,0
0,56,92,1
0,60,92,0
0,65,92,0
0,70,76,1
0,70,0,16
0,56,84,7
0,60,89,0
0,65,94,0
0,29,93,2
0,36,120,0
0,42,105,0
0,69,84,0
0,69,0,12
0,68,0,13
0,68,110,6
0,68,110,0
0,56,43,1
0,60,48,0
0,65,53,0
0,69,40,2
0,69,0,16
0,48,85,32
0,42,81,0
0,68,0,3
0,70,115,1
0,70,115,0
0,56,88,2
0,60,88,0
0,65,88,0
0,70,76,1
0,70,0,16
0,56,70,7
0,60,75,0
0,65,80,0
0,46,86,1
0,36,121,0
0,42,105,0
0,88,104,0
0,69,91,0
