track,note,velocity,time
1,48,92,1536
1,48,92,218
1,46,86,4
1,48,90,14
1,46,92,0
1,43,90,48
1,46,88,28
1,48,92,66
1,46,103,434
1,48,90,44
1,48,94,622
1,48,92,232
1,46,86,0
1,48,90,50
1,46,83,8
1,43,99,56
1,46,94,28
1,48,99,56
1,46,106,428
1,48,108,64
1,36,111,608
1,36,101,178
1,36,117,134
1,31,108,96
1,36,101,22
1,36,103,160
1,36,106,128
1,36,103,152
1,36,106,144
1,36,108,118
1,31,106,40
1,36,103,28
1,36,101,164
1,36,103,128
1,36,106,198
1,36,94,120
1,36,108,134
1,31,111,100
1,36,101,22
1,36,103,160
1,36,106,122
1,36,106,190
1,36,101,156
1,36,108,120
1,36,94,156
1,37,103,100
1,37,96,150
1,37,106,120
1,42,117,330
1,42,92,178
1,41,106,80
1,41,96,168
1,39,103,86
1,39,101,156
1,37,88,52
1,39,94,16
1,41,90,56
1,42,103,104
1,42,101,200
1,41,101,96
1,41,103,202
1,39,96,72
1,39,103,168
1,37,103,40
1,39,101,32
1,39,120,182
1,39,121,120
1,46,111,192
1,39,106,192
1,39,111,114
1,46,108,168
1,44,101,160
1,44,94,190
1,39,103,44
1,44,101,42
1,39,103,14
1,37,103,80
1,37,101,164
1,37,103,120
1,37,106,136
1,42,101,70
1,42,101,184
1,37,103,42
1,37,103,156
1,42,101,56
1,42,106,148
1,37,103,64
1,42,99,48
1,43,99,130
1,43,103,178
1,38,99,64
1,38,106,134
1,43,96,34
1,38,94,56
1,35,101,46
1,31,106,60
1,36,111,176
1,36,101,178
1,36,117,134
1,31,108,96
1,36,101,22
1,36,103,160
1,36,106,128
1,36,103,152
1,36,106,144
1,36,108,118
1,31,106,40
1,36,103,28
1,36,101,164
1,36,103,128
1,36,106,198
1,36,94,120
1,36,108,134
1,31,111,100
1,36,101,22
1,36,103,160
1,36,106,122
1,36,106,190
1,36,101,156
1,36,108,120
1,36,94,156
1,37,103,100
1,37,96,150
1,37,106,120
1,42,117,330
1,42,92,178
1,41,106,80
1,41,96,168
1,39,103,86
1,39,101,156
1,37,88,52
1,39,94,16
1,41,90,56
1,42,103,104
1,42,101,200
1,41,101,96
1,41,103,202
1,39,96,72
1,39,103,168
1,37,103,40
1,39,101,32
1,39,120,182
1,39,121,120
1,46,111,192
1,39,106,192
1,39,111,114
1,46,108,168
1,44,101,160
1,44,94,190
1,39,103,44
1,44,101,42
1,39,103,14
1,37,103,80
1,37,101,164
1,37,103,120
1,37,106,136
1,42,101,70
1,42,101,184
1,37,103,42
1,37,103,156
1,42,101,56
1,42,106,148
1,37,103,64
1,42,99,48
1,43,99,130
1,43,103,178
1,38,99,64
1,38,106,134
1,43,96,34
1,38,94,56
1,35,101,46
1,31,106,60
1,36,111,176
1,36,101,178
1,36,117,134
1,31,108,96
1,36,101,22
1,36,103,160
1,36,106,128
1,36,103,152
1,36,106,144
1,36,108,118
1,31,106,40
1,36,103,28
1,36,101,164
1,36,103,128
1,36,106,198
1,36,94,120
1,36,108,134
1,31,111,100
1,36,101,22
1,36,103,160
1,36,106,122
1,36,106,190
1,36,101,156
1,36,108,120
1,36,94,156
1,37,103,100
1,37,96,150
1,37,106,120
1,42,117,330
1,42,92,178
1,41,106,80
1,41,96,168
1,39,103,86
1,39,101,156
1,37,88,52
1,39,94,16
1,41,90,56
1,42,103,104
1,42,101,200
1,41,101,96
1,41,103,202
1,39,96,72
1,39,103,168
1,37,103,40
1,39,101,32
1,39,120,182
1,39,121,120
1,46,111,192
1,39,106,192
1,39,111,114
1,46,108,168
1,44,101,160
1,44,94,190
1,39,103,44
1,44,101,42
1,39,103,14
1,37,103,80
1,37,101,164
1,37,103,120
1,37,106,136
1,42,117,70
1,42,92,178
1,41,106,80
1,41,96,168
1,39,103,86
1,39,101,156
1,37,88,52
1,39,94,16
1,41,90,56
1,42,103,104
1,42,101,200
1,41,101,96
1,41,103,202
1,39,96,72
1,39,103,168
1,37,103,40
1,39,101,32
1,39,120,182
1,39,121,120
1,46,111,192
1,39,106,192
1,39,111,114
1,46,108,168
1,44,101,160
1,44,94,190
1,39,103,44
1,44,101,42
1,39,103,14
1,37,103,80
1,37,101,164
1,37,103,120
1,37,106,136
1,42,117,70
1,42,92,178
1,41,106,80
1,41,96,168
1,39,103,86
1,39,101,156
1,37,88,52
1,39,94,16
1,41,90,56
1,42,103,104
1,42,101,200
1,41,101,96
1,41,103,202
1,39,96,72
1,39,103,168
1,37,103,40
1,39,101,32
1,39,120,182
1,39,121,120
1,46,111,192
1,39,106,192
1,39,111,114
1,46,108,168
1,44,101,160
1,44,94,190
1,39,103,44
1,44,101,42
1,39,103,14
1,37,103,80
1,37,101,164
1,37,103,120
1,37,106,136
1,42,111,72
1,42,103,180
1,37,101,90
1,37,103,162
1,42,103,100
1,41,103,108
1,39,108,112
1,37,99,110
1,34,106,124
1,32,106,108
1,30,117,80
2,67,89,7680
2,63,92,0
2,60,92,0
2,75,99,0
2,72,94,0
2,63,92,624
2,70,94,0
2,67,99,0
2,77,89,6
2,69,79,0
2,72,99,0
2,65,83,0
2,72,94,34
2,60,81,0
2,63,81,0
2,67,74,0
2,72,96,204
2,63,83,0
2,60,87,0
2,67,87,0
2,63,96,24
2,67,101,0
2,70,101,0
2,65,96,50
2,72,99,0
2,69,92,0
2,73,87,8
2,65,96,0
2,68,99,0
2,70,94,760
2,78,104,0
2,73,104,0
2,68,99,648
2,77,101,0
2,73,104,0
2,82,99,648
2,75,96,0
2,78,104,0
2,68,99,692
2,73,104,0
2,77,101,0
2,78,101,656
2,70,96,0
2,73,104,0
2,73,104,660
2,68,96,0
2,77,99,0
2,82,101,664
2,75,89,0
2,78,101,0
2,73,92,686
2,80,104,0
2,77,101,0
2,63,104,290
2,75,96,0
2,66,92,0
2,70,96,0
2,66,92,114
2,63,110,0
2,70,94,0
2,75,99,0
2,65,101,288
2,73,101,0
2,70,110,0
2,70,96,404
2,63,96,0
2,66,107,0
2,66,107,108
2,63,96,0
2,70,101,0
2,58,94,288
2,65,99,0
2,61,104,0
2,63,76,46
2,56,89,0
2,66,92,0
2,59,81,0
2,75,94,0
2,71,99,0
2,66,104,132
2,71,113,0
2,75,107,0
2,66,96,688
2,71,99,0
2,75,101,0
2,61,101,680
2,68,104,0
2,65,101,0
2,73,92,680
2,80,101,0
2,77,104,0
2,66,101,682
2,70,107,0
2,73,101,0
2,66,99,684
2,70,104,0
2,73,101,0
2,78,96,304
2,82,99,0
2,78,94,116
2,85,99,0
2,82,110,280
2,78,110,0
2,79,81,80
2,83,101,0
2,79,87,92
2,86,99,0
2,79,85,256
2,83,99,0
2,83,110,384
2,79,107,0
2,84,94,46
2,81,101,0
2,86,110,126
2,83,113,0
2,67,89,224
2,63,92,0
2,60,92,0
2,75,99,0
2,72,94,0
2,63,92,624
2,70,94,0
2,67,99,0
2,77,89,6
2,69,79,0
2,72,99,0
2,65,83,0
2,72,94,34
2,60,81,0
2,63,81,0
2,67,74,0
2,72,96,204
2,63,83,0
2,60,87,0
2,67,87,0
2,63,96,24
2,67,101,0
2,70,101,0
2,65,96,50
2,72,99,0
2,69,92,0
2,73,87,8
2,65,96,0
2,68,99,0
2,70,94,760
2,78,104,0
2,73,104,0
2,68,99,648
2,77,101,0
2,73,104,0
2,82,99,648
2,75,96,0
2,78,104,0
2,68,99,692
2,73,104,0
2,77,101,0
2,78,101,656
2,70,96,0
2,73,104,0
2,73,104,660
2,68,96,0
2,77,99,0
2,82,101,664
2,75,89,0
2,78,101,0
2,73,92,686
2,80,104,0
2,77,101,0
2,63,104,290
2,75,96,0
2,66,92,0
2,70,96,0
2,66,92,114
2,63,110,0
2,70,94,0
2,75,99,0
2,65,101,288
2,73,101,0
2,70,110,0
2,70,96,404
2,63,96,0
2,66,107,0
2,66,107,108
2,63,96,0
2,70,101,0
2,58,94,288
2,65,99,0
2,61,104,0
2,63,76,46
2,56,89,0
2,66,92,0
2,59,81,0
2,75,94,0
2,71,99,0
2,66,104,132
2,71,113,0
2,75,107,0
2,66,96,688
2,71,99,0
2,75,101,0
2,61,101,680
2,68,104,0
2,65,101,0
2,73,92,680
2,80,101,0
2,77,104,0
2,66,101,682
2,70,107,0
2,73,101,0
2,66,99,684
2,70,104,0
2,73,101,0
2,78,96,304
2,82,99,0
2,78,94,116
2,85,99,0
2,82,110,280
2,78,110,0
2,79,81,80
2,83,101,0
2,79,87,92
2,86,99,0
2,79,85,256
2,83,99,0
2,83,110,384
2,79,107,0
2,84,94,46
2,81,101,0
2,86,110,126
2,83,113,0
2,67,89,224
2,63,92,0
2,60,92,0
2,75,99,0
2,72,94,0
2,63,92,624
2,70,94,0
2,67,99,0
2,77,89,6
2,69,79,0
2,72,99,0
2,65,83,0
2,72,94,34
2,60,81,0
2,63,81,0
2,67,74,0
2,72,96,204
2,63,83,0
2,60,87,0
2,67,87,0
2,63,96,24
2,67,101,0
2,70,101,0
2,65,96,50
2,72,99,0
2,69,92,0
2,73,87,8
2,65,96,0
2,68,99,0
2,70,94,760
2,78,104,0
2,73,104,0
2,68,99,648
2,77,101,0
2,73,104,0
2,82,99,648
2,75,96,0
2,78,104,0
2,68,99,692
2,73,104,0
2,77,101,0
2,78,101,656
2,70,96,0
2,73,104,0
2,73,104,660
2,68,96,0
2,77,99,0
2,82,101,664
2,75,89,0
2,78,101,0
2,73,92,686
2,80,104,0
2,77,101,0
2,63,104,290
2,75,96,0
2,66,92,0
2,70,96,0
2,66,92,114
2,63,110,0
2,70,94,0
2,75,99,0
2,65,101,288
2,73,101,0
2,70,110,0
2,70,96,404
2,63,96,0
2,66,107,0
2,66,107,108
2,63,96,0
2,70,101,0
2,58,94,288
2,65,99,0
2,61,104,0
2,63,76,46
2,56,89,0
2,66,92,0
2,59,81,0
2,75,94,0
2,71,99,0
2,66,104,132
2,71,113,0
2,75,107,0
2,66,96,688
2,71,99,0
2,75,101,0
2,61,101,680
2,68,104,0
2,65,101,0
2,73,92,680
2,80,101,0
2,77,104,0
2,70,94,682
2,78,104,0
2,73,104,0
2,68,99,648
2,77,101,0
2,73,104,0
2,82,99,648
2,75,96,0
2,78,104,0
2,68,99,692
2,73,104,0
2,77,101,0
2,78,101,656
2,70,96,0
2,73,104,0
2,73,104,660
2,68,96,0
2,77,99,0
2,82,101,664
2,75,89,0
2,78,101,0
2,73,92,686
2,80,104,0
2,77,101,0
2,63,104,290
2,75,96,0
2,66,92,0
2,70,96,0
2,66,92,114
2,63,110,0
2,70,94,0
2,75,99,0
2,65,101,288
2,73,101,0
2,70,110,0
2,70,96,404
2,63,96,0
2,66,107,0
2,66,107,108
2,63,96,0
2,70,101,0
2,58,94,288
2,65,99,0
2,61,104,0
2,63,76,46
2,56,89,0
2,66,92,0
2,59,81,0
2,75,94,0
2,71,99,0
2,66,104,132
2,71,113,0
2,75,107,0
2,66,96,688
2,71,99,0
2,75,101,0
2,61,101,680
2,68,104,0
2,65,101,0
2,73,92,680
2,80,101,0
2,77,104,0
2,70,94,682
2,78,104,0
2,73,104,0
2,68,99,648
2,77,101,0
2,73,104,0
2,82,99,648
2,75,96,0
2,78,104,0
2,68,99,692
2,73,104,0
2,77,101,0
2,78,101,656
2,70,96,0
2,73,104,0
2,73,104,660
2,68,96,0
2,77,99,0
2,82,101,664
2,75,89,0
2,78,101,0
2,73,92,686
2,80,104,0
2,77,101,0
2,63,104,290
2,75,96,0
2,66,92,0
2,70,96,0
2,66,92,114
2,63,110,0
2,70,94,0
2,75,99,0
2,65,101,288
2,73,101,0
2,70,110,0
2,70,96,404
2,63,96,0
2,66,107,0
2,66,107,108
2,63,96,0
2,70,101,0
2,58,94,288
2,65,99,0
2,61,104,0
2,63,76,46
2,56,89,0
2,66,92,0
2,59,81,0
2,75,94,0
2,71,99,0
2,66,104,132
2,71,113,0
2,75,107,0
2,66,96,688
2,71,99,0
2,75,101,0
2,61,101,680
2,68,104,0
2,65,101,0
2,73,92,680
2,80,101,0
2,77,104,0
2,66,87,298
2,58,81,0
2,61,83,0
2,73,96,0
2,54,92,0
2,70,101,0
2,66,83,52
2,75,94,0
2,71,83,0
2,66,92,108
2,73,94,0
2,70,104,0
2,42,99,1480
2,54,99,0
2,61,104,0
2,58,110,0
3,48,107,1536
3,48,87,222
3,46,79,22
3,48,87,30
3,46,81,16
3,43,96,28
3,46,85,20
3,48,99,46
3,46,99,420
3,48,99,80
3,48,96,622
3,48,92,266
3,46,79,0
3,48,85,48
3,46,85,26
3,43,96,42
3,46,87,32
3,48,94,54
3,46,96,454
3,48,96,64
3,63,96,648
3,60,96,0
3,67,101,0
3,70,96,48
3,63,94,0
3,67,99,0
3,69,87,54
3,60,94,0
3,65,99,0
3,60,85,40
3,63,96,0
3,67,96,0
3,67,99,232
3,60,94,0
3,63,101,0
3,63,92,80
3,70,94,0
3,67,96,0
3,69,94,40
3,60,94,0
3,65,104,0
3,59,92,264
3,61,92,0
3,65,99,0
3,68,113,0
3,66,94,812
3,73,99,0
3,70,99,0
3,68,99,662
3,65,85,0
3,73,96,0
3,66,96,658
3,63,89,0
3,70,99,0
3,61,85,672
3,68,96,0
3,65,99,0
3,73,96,648
3,66,89,0
3,70,99,0
3,65,79,648
3,73,94,0
3,68,99,0
3,70,99,656
3,66,104,0
3,63,94,0
3,68,96,672
3,61,92,0
3,65,94,0
3,58,83,870
3,61,94,0
3,65,94,0
3,51,79,72
3,58,81,0
3,54,89,0
3,63,92,0
3,63,96,124
3,51,89,0
3,54,94,0
3,58,89,0
3,65,94,288
3,58,89,0
3,61,101,0
3,44,81,40
3,63,83,0
3,56,81,0
3,59,85,0
3,56,42,72
3,59,53,0
3,63,51,0
3,44,70,30
3,56,81,50
3,63,87,0
3,59,87,0
3,44,89,94
3,56,58,122
3,63,79,0
3,59,74,0
3,56,74,122
3,59,87,0
3,63,89,0
3,65,94,48
3,49,94,0
3,61,87,0
3,61,62,230
3,65,85,0
3,61,85,128
3,65,92,0
3,49,89,94
3,61,79,106
3,65,72,0
3,54,76,62
3,61,76,0
3,58,81,0
3,54,52,228
3,58,76,0
3,61,83,0
3,54,62,122
3,61,81,0
3,58,83,0
3,54,74,2
3,61,89,0
3,58,83,0
3,54,79,136
3,61,94,0
3,58,87,0
3,54,89,334
3,61,99,0
3,58,94,0
3,54,72,200
3,58,92,0
3,61,89,0
3,55,60,30
3,62,76,0
3,59,81,0
3,43,79,0
3,55,62,64
3,59,87,0
3,43,74,0
3,62,81,0
3,43,89,172
3,62,83,0
3,59,94,0
3,55,74,0
3,43,92,108
3,62,74,66
3,55,60,0
3,59,89,0
3,43,94,192
3,59,101,102
3,62,94,0
3,55,89,0
3,63,96,1138
3,60,96,0
3,67,101,0
3,70,96,48
3,63,94,0
3,67,99,0
3,69,87,54
3,60,94,0
3,65,99,0
3,60,85,40
3,63,96,0
3,67,96,0
3,67,99,232
3,60,94,0
3,63,101,0
3,63,92,80
3,70,94,0
3,67,96,0
3,69,94,40
3,60,94,0
3,65,104,0
3,59,92,264
3,61,92,0
3,65,99,0
3,68,113,0
3,66,94,812
3,73,99,0
3,70,99,0
3,68,99,662
3,65,85,0
3,73,96,0
3,66,96,658
3,63,89,0
3,70,99,0
3,61,85,672
3,68,96,0
3,65,99,0
3,73,96,648
3,66,89,0
3,70,99,0
3,65,79,648
3,73,94,0
3,68,99,0
3,70,99,656
3,66,104,0
3,63,94,0
3,68,96,672
3,61,92,0
3,65,94,0
3,58,83,870
3,61,94,0
3,65,94,0
3,51,79,72
3,58,81,0
3,54,89,0
3,63,92,0
3,63,96,124
3,51,89,0
3,54,94,0
3,58,89,0
3,65,94,288
3,58,89,0
3,61,101,0
3,44,81,40
3,63,83,0
3,56,81,0
3,59,85,0
3,56,42,72
3,59,53,0
3,63,51,0
3,44,70,30
3,56,81,50
3,63,87,0
3,59,87,0
3,44,89,94
3,56,58,122
3,63,79,0
3,59,74,0
3,56,74,122
3,59,87,0
