track,note,velocity,time
0,31,74,1536
0,43,52,0
0,51,75,0
0,50,50,176
0,55,44,192
0,44,75,0
0,62,64,176
0,55,29,128
0,57,54,192
0,59,37,172
0,44,75,0
0,45,31,20
0,60,56,0
0,51,52,0
0,55,46,0
0,51,75,0
0,67,48,120
0,52,25,0
0,44,75,0
0,48,42,52
0,60,66,0
0,50,48,192
0,62,76,8
0,50,46,48
0,44,75,0
0,26,64,20
0,57,39,0
0,55,48,0
0,31,62,192
0,43,36,0
0,62,54,0
0,51,75,0
0,59,32,80
0,55,31,176
0,44,75,0
0,57,52,28
0,59,35,0
0,67,62,96
0,62,84,48
0,44,75,0
0,55,42,36
0,51,54,0
0,51,49,80
0,60,46,80
0,45,50,0
0,51,75,0
0,55,31,0
0,72,60,188
0,74,46,0
0,44,75,0
0,71,62,120
0,67,62,0
0,38,58,96
0,60,44,0
0,50,42,0
0,67,52,36
0,60,18,0
0,44,75,0
0,62,54,176
0,31,52,180
0,62,72,0
0,55,29,0
0,57,39,0
0,51,75,0
0,59,33,164
0,55,31,32
0,44,75,0
0,62,66,44
0,62,54,0
0,64,72,16
0,55,28,0
0,67,52,120
0,67,64,0
0,55,24,180
0,44,75,0
0,69,62,60
0,45,36,0
0,60,54,0
0,33,54,124
0,55,31,0
0,67,54,132
0,55,30,16
0,44,75,0
0,64,58,40
0,48,30,0
0,62,54,0
0,36,48,152
0,67,52,0
0,55,29,0
0,60,44,152
0,55,42,0
0,44,75,0
0,38,40,16
0,67,58,0
0,55,54,0
0,62,66,0
0,31,44,0
0,64,54,0
0,57,44,0
0,59,37,180
0,62,39,108
0,55,18,0
0,44,75,0
0,62,25,112
0,55,22,0
0,74,56,0
0,83,68,0
0,67,54,0
0,55,22,48
0,44,75,0
0,71,74,32
0,79,64,0
0,62,44,0
0,55,21,132
0,67,78,4
0,74,76,0
0,50,54,0
0,44,75,136
0,62,47,176
0,71,16,0
0,55,33,0
0,57,46,36
0,59,58,4
0,62,64,4
0,38,54,32
0,57,58,0
0,44,75,0
0,45,60,176
0,55,31,0
0,43,50,188
0,62,60,0
0,50,54,0
0,55,40,172
0,57,44,12
0,44,75,0
0,62,48,40
0,59,64,0
0,64,60,16
0,62,72,0
0,67,66,188
0,55,36,0
0,62,60,172
0,44,75,0
0,33,54,4
0,69,54,0
0,60,60,0
0,52,37,0
0,55,33,116
0,67,58,4
0,55,52,16
0,44,75,0
0,36,56,32
0,64,60,0
0,48,52,0
0,62,72,0
0,67,44,184
0,55,52,0
0,60,54,0
0,67,56,4
0,44,75,0
0,38,44,0
0,67,56,0
0,55,23,0
0,62,52,0
0,31,40,192
0,64,62,0
0,57,36,0
0,59,36,176
0,62,40,116
0,44,75,0
0,55,32,0
0,50,38,0
0,62,52,4
0,62,45,12
0,69,74,96
0,44,75,0
0,74,74,80
0,71,64,96
0,57,34,0
0,55,22,192
0,59,40,0
0,55,42,108
0,44,75,0
0,31,46,12
0,57,30,0
0,38,64,0
0,71,64,0
0,67,66,0
0,59,48,0
0,67,48,0
0,74,52,0
0,60,42,72
0,69,56,0
0,38,62,0
0,72,76,0
0,69,80,0
0,60,58,0
0,69,72,0
0,44,75,0
0,62,36,88
0,71,44,0
0,43,56,0
0,55,74,0
0,57,76,0
0,62,86,0
0,74,64,0
0,55,25,0
0,71,32,0
0,62,25,0
0,71,66,0
0,79,60,0
0,51,75,0
0,44,75,0
0,59,26,20
0,55,32,0
0,71,72,4
0,67,66,0
0,74,52,0
0,55,27,96
0,59,39,96
0,31,66,0
0,74,66,0
0,62,58,0
0,71,50,0
0,71,56,0
0,79,44,0
0,44,75,0
0,33,64,104
0,64,56,0
0,72,56,0
0,35,62,0
0,55,72,0
0,57,82,0
0,62,78,0
0,67,78,0
0,79,60,0
0,55,23,0
0,71,58,0
0,62,60,0
0,74,62,0
0,83,72,0
0,55,31,0
0,44,75,4
0,79,54,48
0,55,36,0
0,83,68,0
0,74,48,0
0,66,70,32
0,79,68,0
0,59,46,0
0,67,60,0
0,83,68,0
0,74,62,0
0,78,60,16
0,81,64,0
0,44,75,0
0,35,56,24
0,78,58,0
0,66,42,0
0,57,48,0
0,81,48,0
0,74,54,0
0,36,54,20
0,55,56,0
0,60,60,0
0,62,62,0
0,78,58,0
0,48,38,0
0,57,42,0
0,66,48,0
0,81,54,0
0,74,50,0
0,64,52,0
0,76,52,0
0,60,36,0
0,64,42,0
0,55,35,0
0,79,37,0
0,72,50,0
0,44,75,0
0,55,40,116
0,60,25,4
0,44,75,0
0,67,64,8
0,55,36,128
0,62,76,4
0,52,48,0
0,62,86,92
0,64,35,0
0,67,82,0
0,67,66,0
0,67,52,0
0,60,58,0
0,64,60,0
0,72,72,0
0,44,75,0
0,52,66,0
0,62,90,0
0,66,76,0
0,66,62,0
0,66,50,0
0,57,44,0
0,50,48,0
0,62,52,0
0,71,62,0
0,50,66,16
0,43,50,4
0,60,76,0
0,64,82,0
0,64,64,0
0,55,36,0
0,48,37,0
0,64,54,0
0,60,38,0
0,69,64,0
0,44,75,0
0,36,54,152
0,38,58,0
0,59,66,0
0,62,82,0
0,62,56,0
0,62,58,0
0,50,37,0
0,67,60,0
0,59,48,0
0,55,32,160
0,62,58,24
0,44,75,0
0,71,54,0
0,62,46,0
0,55,28,0
0,71,58,100
0,62,36,0
0,67,54,0
0,74,52,0
0,44,75,0
0,38,50,104
0,50,46,0
0,26,62,0
0,72,64,0
0,57,35,0
0,67,46,0
0,76,64,0
0,54,40,72
0,72,56,24
0,57,54,0
0,67,44,0
0,76,48,0
0,44,75,0
0,50,56,4
0,69,76,0
0,62,62,96
0,69,66,0
0,74,64,0
0,71,54,0
0,62,52,0
0,66,56,0
0,74,40,0
0,54,9,56
0,60,54,88
0,44,75,0
0,26,54,8
0,69,48,0
0,54,20,0
0,64,54,0
0,72,60,0
0,31,56,0
0,55,58,0
0,62,35,0
0,71,66,0
0,67,48,0
0,55,36,0
0,62,46,0
0,71,44,0
0,57,39,152
0,59,35,192
0,44,75,0
0,31,54,4
0,62,76,0
0,67,52,24
0,57,31,24
0,62,32,12
0,44,75,0
0,31,58,12
0,67,40,0
0,38,56,0
0,66,29,0
0,50,21,0
0,67,52,8
0,64,54,96
0,66,56,92
0,55,72,60
0,60,78,0
0,64,76,0
0,62,66,0
0,44,75,0
0,64,54,72
0,50,66,92
0,60,44,0
0,62,62,8
0,54,74,24
0,62,82,0
0,59,42,0
0,47,75,0
0,60,42,12
0,50,64,4
0,57,52,0
0,59,56,96
0,45,41,0
0,57,94,48
0,60,90,0
0,62,86,0
0,55,31,0
0,43,75,0
0,44,75,0
0,26,54,12
0,50,60,0
0,54,40,0
0,41,57,0
0,31,60,20
0,55,78,0
0,57,98,0
0,62,102,0
0,62,56,0
0,55,50,0
0,62,64,0
0,51,75,0
0,42,75,0
0,35,75,0
0,59,74,16
0,42,15,96
0,42,41,12
0,37,75,0
0,31,54,56
0,62,62,0
0,42,20,0
0,35,44,0
0,31,56,8
0,64,72,0
0,42,75,0
0,35,54,0
0,57,66,56
0,62,62,0
0,66,70,0
0,67,62,0
0,42,28,0
0,42,49,176
0,37,75,0
0,31,42,12
0,55,62,0
0,60,78,0
0,64,86,0
0,69,66,0
0,42,28,0
0,33,54,96
0,67,54,0
0,42,75,0
0,35,75,0
0,42,28,4
0,42,41,12
0,37,75,0
0,36,64,8
0,48,66,0
0,55,72,0
0,60,82,0
0,62,78,0
0,67,76,0
0,64,62,0
0,42,75,0
0,35,49,0
0,67,54,160
0,42,26,0
0,35,57,0
0,42,75,156
0,42,75,4
0,37,75,0
0,38,60,0
0,67,68,0
0,46,41,0
0,31,54,36
0,55,56,0
0,57,74,0
0,59,68,0
0,64,56,0
0,62,48,0
0,69,52,0
0,42,75,0
0,35,75,0
0,42,28,120
0,62,48,8
0,71,48,0
0,42,47,0
0,37,75,0
0,31,56,168
0,62,40,0
0,42,26,0
0,35,39,0
0,71,84,0
0,42,60,0
0,35,65,0
0,72,58,0
0,42,28,0
0,71,46,0
0,42,39,0
0,37,75,0
0,38,48,8
0,72,62,0
0,42,23,0
0,31,36,52
0,42,75,0
0,35,75,0
0,42,33,0
0,38,46,0
0,69,52,0
0,42,49,0
0,37,75,0
0,40,46,4
0,31,38,4
0,62,21,0
0,67,52,0
0,42,31,0
0,35,41,0
0,69,86,164
0,74,86,0
0,42,75,0
0,35,60,0
0,71,68,4
0,62,62,24
0,42,31,0
0,26,56,16
0,62,62,0
0,42,54,0
0,37,75,0
0,28,46,0
0,62,72,0
0,46,41,0
0,35,36,0
0,31,58,0
0,55,64,0
0,62,64,0
0,62,44,0
0,42,75,0
0,35,75,0
0,62,52,4
0,42,15,0
0,42,41,0
0,37,75,0
0,31,52,56
0,71,76,0
0,62,68,0
0,42,20,0
0,35,44,0
0,64,64,24
0,42,75,0
0,35,54,0
0,62,76,24
0,67,68,0
0,42,28,0
0,38,52,8
0,42,49,0
0,37,75,0
0,33,64,36
0,67,94,0
0,69,60,0
0,60,48,0
0,42,28,0
0,42,75,140
0,35,75,0
0,60,64,4
0,42,28,0
0,35,54,8
0,57,56,0
0,42,41,0
0,37,75,0
0,36,62,0
0,55,64,0
0,60,82,0
0,62,94,0
0,67,90,0
0,64,64,0
0,67,60,0
0,42,75,0
0,35,49,0
0,64,58,20
0,67,54,0
0,42,26,0
0,35,57,0
0,55,60,4
0,42,75,0
0,24,42,12
0,55,60,0
0,42,75,0
0,37,75,0
0,31,62,72
0,67,62,0
0,46,41,0
0,55,58,0
0,57,68,0
0,62,72,0
0,64,54,0
0,62,42,0
0,69,40,0
0,42,75,0
0,35,75,0
0,59,48,176
0,42,28,0
0,62,38,176
0,42,47,0
0,37,75,0
0,31,50,128
0,62,44,0
0,42,26,0
0,35,39,0
0,31,54,4
0,62,52,0
0,71,46,0
0,42,60,0
0,35,65,0
0,64,64,12
0,67,58,8
0,42,28,0
0,67,54,24
0,42,39,0
0,37,75,0
0,31,48,144
0,50,64,0
0,69,58,0
0,42,23,0
0,55,60,108
0,42,75,0
0,35,75,0
0,69,46,4
0,42,33,0
0,67,29,16
0,42,49,0
0,37,75,0
0,31,60,0
0,42,31,0
0,35,41,0
0,64,46,80
0,71,72,20
0,62,50,0
0,71,56,0
0,67,52,0
0,67,62,0
0,74,62,0
0,42,75,0
0,35,60,0
0,62,86,148
0,42,31,0
0,38,76,4
0,67,90,0
0,72,76,0
0,57,54,0
0,72,66,0
0,69,72,0
0,67,58,0
0,76,68,0
0,42,54,0
0,37,75,0
0,40,64,8
0,69,90,0
0,55,42,0
0,46,41,0
0,35,36,0
0,43,62,0
0,55,70,0
0,67,82,0
0,71,82,0
0,74,64,0
0,57,52,0
0,71,48,0
0,74,48,0
0,71,58,0
0,79,37,0
0,51,75,0
0,42,75,0
0,35,75,0
0,42,15,48
0,42,41,0
0,37,75,0
0,43,58,12
0,62,66,0
0,42,20,0
0,35,44,0
0,43,52,4
0,55,76,0
0,71,76,0
0,67,64,0
0,67,62,0
0,74,62,0
0,42,75,0
0,35,54,0
0,62,74,176
0,42,28,0
0,31,60,4
0,62,98,0
0,67,102,0
0,71,98,0
0,74,62,0
0,74,62,0
0,79,60,0
0,71,58,0
0,42,49,0
0,37,75,0
0,33,62,8
0,42,28,0
0,35,58,36
0,55,78,0
0,62,94,0
0,67,90,0
0,74,82,0
0,79,50,0
0,79,60,0
0,69,58,0
0,83,84,0
0,74,62,0
0,42,75,0
0,35,75,0
0,42,28,4
0,42,41,0
0,37,75,0
0,35,58,16
0,55,64,0
0,79,72,0
0,74,50,0
0,83,64,0
0,42,75,0
0,35,49,0
0,62,86,20
0,67,90,0
0,79,54,0
0,78,62,0
0,83,76,0
0,74,54,0
0,42,26,0
0,35,57,0
0,78,92,12
0,81,64,0
0,42,75,0
0,35,52,100
0,42,75,0
0,37,75,0
0,78,72,52
0,74,56,0
0,81,66,0
0,46,41,0
0,36,62,0
0,55,64,0
0,60,62,0
0,62,72,0
0,67,74,0
0,78,62,0
0,62,50,0
0,67,37,0
0,81,64,0
0,74,54,0
0,42,75,0
0,35,75,0
0,55,24,176
0,42,28,0
0,64,54,4
0,76,62,0
0,67,62,0
0,76,38,0
0,72,44,0
0,72,58,0
0,79,44,0
0,42,47,0
0,37,75,0
0,36,36,0
0,60,56,0
0,42,26,0
0,35,39,0
0,36,50,8
0,55,34,0
0,42,60,0
0,35,65,0
0,67,64,28
0,42,28,0
0,55,30,92
0,42,39,0
0,37,75,0
0,36,44,88
0,62,52,0
0,42,23,0
0,50,62,20
0,55,40,0
0,42,75,0
0,35,75,0
0,55,66,12
0,60,62,0
0,42,33,0
0,50,62,44
0,60,76,0
0,67,90,0
0,71,78,0
0,67,68,0
0,67,64,0
0,64,48,0
0,72,39,0
0,64,60,0
0,72,68,0
0,42,49,0
0,37,75,0
0,48,52,8
0,55,42,0
0,42,31,0
0,35,41,0
0,43,42,4
0,69,66,0
0,66,56,0
0,62,42,0
0,62,60,0
0,71,62,0
0,62,60,0
0,71,62,0
0,42,75,0
0,35,60,0
0,36,48,4
0,55,35,0
0,42,31,0
0,31,54,24
0,60,74,0
0,62,94,0
0,67,94,0
0,64,60,0
0,60,52,0
0,60,58,0
0,69,64,0
0,60,56,0
0,69,60,0
0,42,54,0
0,37,75,0
0,24,50,24
0,64,64,0
0,55,31,0
0,46,41,0
0,35,36,0
0,26,66,4
0,50,43,0
0,59,60,0
0,62,76,0
0,62,64,0
0,62,48,0
0,62,62,0
0,67,56,0
0,59,44,0
0,42,75,0
0,35,75,0
0,42,15,164
0,42,41,56
0,37,75,0
0,38,60,12
0,71,35,0
0,42,20,0
0,35,44,0
0,72,58,8
0,38,54,8
0,71,56,0
0,42,75,0
0,35,54,0
0,62,72,28
0,62,48,0
0,42,28,0
0,62,86,24
0,67,94,0
0,71,94,0
0,71,56,0
0,67,56,0
0,74,60,0
0,42,49,0
0,37,75,0
0,38,39,12
0,42,28,0
0,38,52,0
0,50,50,0
0,57,47,0
0,62,60,0
0,66,54,0
0,69,62,0
0,72,68,0
0,60,30,0
0,74,48,0
0,66,52,0
0,76,66,0
0,42,75,0
0,35,75,0
0,42,28,160
0,72,66,32
0,66,60,0
0,76,64,0
0,42,41,0
0,37,75,0
0,38,27,92
0,42,75,0
0,35,49,0
0,38,46,44
0,71,54,0
0,76,6,0
0,42,26,0
0,35,57,0
0,57,58,124
0,74,1,0
0,42,75,0
0,60,62,176
0,62,78,0
0,66,86,0
0,69,74,0
0,42,75,0
0,37,75,0
0,38,46,0
0,69,52,0
0,72,60,0
0,64,62,0
0,72,64,0
0,46,41,0
0,31,44,0
0,59,64,0
0,62,66,0
0,67,76,0
0,67,50,0
0,71,56,0
0,62,52,0
0,71,58,0
0,42,75,0
0,35,75,0
0,42,28,156
0,42,47,0
0,37,75,0
0,31,37,176
0,62,46,0
0,42,26,0
0,35,39,0
0,31,60,96
0,42,60,0
0,35,65,0
0,67,66,0
0,42,28,0
0,42,39,12
0,37,75,0
0,31,46,76
0,69,64,0
0,42,23,0
0,38,50,0
0,50,72,0
0,69,54,0
0,42,75,0
0,35,75,0
0,57,72,4
0,42,33,0
0,62,72,176
0,42,49,0
0,37,75,0
0,38,62,176
0,69,74,0
0,67,62,0
0,42,31,0
0,35,41,0
0,40,62,8
0,38,58,28
0,66,52,0
0,42,75,0
0,35,60,0
0,33,52,4
0,66,98,0
0,42,31,0
0,26,72,16
0,62,64,0
0,42,54,0
0,37,75,0
0,30,52,8
0,54,54,0
0,62,40,0
0,46,41,0
0,35,36,0
0,31,62,0
0,55,74,0
0,59,58,0
0,67,66,0
0,62,62,0
0,59,42,0
0,62,36,0
0,74,46,0
0,59,56,0
0,67,62,0
0,51,75,0
0,42,75,0
0,35,75,0
0,42,15,156
0,42,41,4
0,37,75,0
0,31,56,24
0,62,62,0
0,67,64,0
0,59,58,0
0,42,20,0
0,35,44,0
0,31,60,12
0,64,68,0
