track,note,velocity,time
3,76,60,3060
3,76,0,28
3,76,60,2
3,76,0,88
3,76,60,2
3,76,0,28
3,76,60,2
3,76,0,58
3,76,60,2
3,76,0,88
3,76,60,2
3,76,0,58
3,74,60,2
3,74,0,28
3,73,60,2
3,73,0,88
3,71,60,2
3,71,0,160
3,73,60,260
3,73,0,28
3,71,60,2
3,71,0,28
3,69,60,2
3,69,0,28
3,69,60,2
3,69,0,88
3,73,60,2
3,73,0,148
3,69,60,2
3,69,0,28
3,69,60,2
3,71,60,30
3,69,0,0
3,71,0,28
3,69,60,2
3,69,0,88
3,64,60,2
3,64,0,28
3,66,60,2
3,66,0,160
3,71,75,200
3,71,0,28
3,71,75,2
3,71,0,58
3,73,75,2
3,73,0,58
3,76,75,2
3,76,0,130
3,73,75,110
3,73,0,28
3,71,75,2
3,71,0,58
3,73,75,2
3,73,0,28
3,71,75,2
3,71,0,58
3,73,75,2
3,73,0,58
3,76,75,2
3,76,0,130
3,73,75,20
3,73,0,58
3,71,75,2
3,71,0,58
3,69,75,2
3,69,0,58
3,76,75,32
3,76,0,28
3,76,75,2
3,76,0,28
3,76,75,2
3,76,0,58
3,76,75,2
3,76,0,108
3,76,75,2
3,76,0,78
3,76,75,2
3,76,0,78
3,76,75,2
3,76,0,58
3,74,75,2
3,74,0,58
3,73,75,2
3,73,0,58
3,71,75,2
3,71,0,160
3,73,75,260
3,73,0,28
3,71,75,2
3,71,0,28
3,69,75,2
3,69,0,28
3,69,75,2
3,69,0,58
3,73,75,2
3,73,0,148
3,69,75,32
3,69,0,28
3,71,75,2
3,71,0,58
3,69,75,2
3,69,0,58
3,66,75,2
3,66,0,58
3,66,75,2
3,66,0,160
3,71,75,200
3,71,0,28
3,71,75,2
3,71,0,58
3,73,75,2
3,73,0,58
3,76,75,2
3,76,0,130
3,73,75,110
3,73,0,28
3,71,75,2
3,71,0,58
3,73,75,2
3,73,0,28
3,71,75,2
3,71,0,58
3,73,75,2
3,73,0,58
3,76,77,2
3,76,0,130
3,73,84,20
3,73,0,58
3,71,87,2
3,71,0,58
3,76,90,2
3,76,0,160
3,73,90,20
3,73,0,58
3,76,90,2
3,76,0,160
3,73,90,20
3,73,0,58
3,76,90,2
3,76,0,58
3,78,90,2
3,78,0,58
3,80,90,2
3,80,0,58
3,78,90,2
3,78,0,118
3,76,90,2
3,76,0,160
3,74,90,20
3,74,0,160
3,71,90,20
3,71,0,58
3,74,90,2
3,74,0,160
3,71,90,20
3,71,0,58
3,74,90,2
3,74,0,58
3,76,90,2
3,76,0,58
3,77,90,2
3,77,0,58
3,76,90,2
3,76,0,118
3,74,90,2
3,74,0,160
3,76,90,20
3,76,0,160
3,73,90,20
3,73,0,58
3,76,90,2
3,76,0,160
3,73,90,20
3,73,0,58
3,76,90,2
3,76,0,58
3,78,90,2
3,78,0,58
3,79,90,2
3,79,0,88
3,78,90,2
3,78,0,88
3,76,90,2
3,76,0,100
3,73,90,20
3,73,0,58
3,74,90,2
3,74,0,100
3,77,90,20
3,76,90,360
3,77,0,0
3,76,0,58
3,73,87,62
3,73,0,100
3,73,83,20
3,73,0,100
3,73,79,20
3,73,0,100
3,69,75,20
3,69,0,210
3,76,75,90
3,76,0,58
3,76,75,2
3,76,0,58
3,76,75,2
3,76,0,58
3,76,75,2
3,76,0,58
3,74,75,2
3,74,0,28
3,73,75,2
3,73,0,88
3,71,75,2
3,71,0,160
3,73,75,260
3,73,0,28
3,71,75,2
3,71,0,28
3,69,75,2
3,69,0,28
3,69,75,2
3,69,0,88
3,73,75,2
3,73,0,148
3,69,75,2
3,69,0,28
3,69,75,2
3,71,75,30
3,69,0,0
3,71,0,28
3,69,75,2
3,69,0,88
3,64,75,2
3,64,0,28
3,66,75,2
3,66,0,160
3,71,75,200
3,71,0,28
3,71,75,2
3,71,0,58
3,73,75,2
3,73,0,58
3,76,75,2
3,76,0,130
3,73,75,110
3,73,0,28
3,71,75,2
3,71,0,58
3,73,75,2
3,73,0,28
3,71,75,2
3,71,0,58
3,73,75,2
3,73,0,58
3,76,75,2
3,76,0,130
3,73,75,20
3,73,0,58
3,71,75,2
3,71,0,58
3,69,75,2
3,69,0,58
3,76,75,152
3,76,0,28
3,76,75,2
3,76,0,78
3,76,75,2
3,76,0,78
3,76,75,2
3,76,0,78
3,76,75,2
3,76,0,58
3,74,75,2
3,74,0,58
3,73,75,2
3,73,0,58
3,71,75,2
3,71,0,160
3,73,75,260
3,73,0,28
3,71,75,2
3,71,0,28
3,69,75,2
3,69,0,28
3,69,75,2
3,69,0,58
3,73,75,2
3,73,0,148
3,69,75,32
3,69,0,28
3,71,75,2
3,71,0,58
3,69,75,2
3,69,0,58
3,66,75,2
3,66,0,58
3,66,75,2
3,66,0,160
3,71,75,200
3,71,0,28
3,71,75,2
3,71,0,58
3,73,75,2
3,73,0,58
3,76,75,2
3,76,0,130
3,73,75,110
3,73,0,28
3,71,75,2
3,71,0,58
3,73,75,2
3,73,0,28
3,71,75,2
3,71,0,58
3,73,75,2
3,73,0,58
3,76,77,2
3,76,0,130
3,73,84,20
3,73,0,58
3,71,87,2
3,71,0,58
3,76,90,2
3,76,0,160
3,73,90,20
3,73,0,58
3,76,90,2
3,76,0,160
3,73,90,20
3,73,0,58
3,76,90,2
3,76,0,58
3,78,90,2
3,78,0,58
3,80,90,2
3,80,0,58
3,78,90,2
3,78,0,118
3,76,90,2
3,76,0,160
3,74,90,20
3,74,0,160
3,71,90,20
3,71,0,58
3,74,90,2
3,74,0,160
3,71,90,20
3,71,0,58
3,74,90,2
3,74,0,58
3,76,90,2
3,76,0,58
3,77,90,2
3,77,0,58
3,76,90,2
3,76,0,118
3,74,90,2
3,74,0,160
3,76,90,20
3,76,0,160
3,73,90,20
3,73,0,58
3,76,90,2
3,76,0,160
3,73,90,20
3,73,0,58
3,76,90,2
3,76,0,58
3,78,90,2
3,78,0,58
3,79,90,2
3,79,0,88
3,78,90,2
3,78,0,88
3,76,90,2
3,76,0,100
3,73,90,20
3,73,0,58
3,74,90,2
3,74,0,100
3,77,90,20
3,76,90,360
3,77,0,0
3,76,0,58
3,73,87,62
3,73,0,100
3,73,83,20
3,73,0,100
3,73,79,20
3,73,0,100
3,76,90,20
3,76,0,160
3,73,90,20
3,73,0,58
3,76,90,2
3,76,0,160
3,73,90,20
3,73,0,58
3,76,90,2
3,76,0,58
3,78,90,2
3,78,0,58
3,80,90,2
3,80,0,58
3,78,90,2
3,78,0,118
3,76,90,2
3,76,0,160
3,74,90,20
3,74,0,160
3,71,90,20
3,71,0,58
3,74,90,2
3,74,0,160
3,71,90,20
3,71,0,58
3,74,90,2
3,74,0,58
3,76,90,2
3,76,0,58
3,77,90,2
3,77,0,58
3,76,90,2
3,76,0,118
3,74,90,2
3,74,0,160
3,76,90,20
3,76,0,160
3,73,90,20
3,73,0,58
3,76,90,2
3,76,0,160
3,73,90,20
3,73,0,58
3,76,90,2
3,76,0,58
3,78,90,2
3,78,0,58
3,79,90,2
3,79,0,88
3,78,90,2
3,78,0,88
3,76,90,2
3,76,0,100
3,73,90,20
3,73,0,58
3,74,90,2
3,74,0,100
3,77,90,20
3,76,90,360
3,77,0,0
3,76,0,58
3,73,87,62
3,73,0,100
3,73,83,20
3,73,0,100
3,73,79,20
3,73,0,100
3,76,90,20
3,76,0,160
3,73,90,20
3,73,0,58
3,76,90,2
3,76,0,160
3,73,90,20
3,73,0,58
3,76,90,2
3,76,0,58
3,78,90,2
3,78,0,58
3,80,90,2
3,80,0,58
3,78,90,2
3,78,0,118
3,76,90,2
3,76,0,160
3,74,90,20
3,74,0,160
3,71,90,20
3,71,0,58
3,74,90,2
3,74,0,160
3,71,90,20
3,71,0,58
3,74,90,2
3,74,0,58
3,76,90,2
3,76,0,58
3,77,90,2
3,77,0,58
3,76,90,2
3,76,0,118
3,74,90,2
3,74,0,160
3,76,90,20
3,76,0,160
3,73,90,20
3,73,0,58
3,76,90,2
3,76,0,160
3,73,90,20
3,73,0,58
3,76,90,2
3,76,0,58
3,78,90,2
3,78,0,58
3,79,90,2
3,79,0,88
3,78,90,2
3,78,0,88
3,76,90,2
3,76,0,100
3,73,90,20
3,73,0,58
3,74,90,2
3,74,0,100
3,77,90,20
3,76,90,360
3,77,0,0
3,76,0,58
3,73,87,62
3,73,0,100
3,73,83,20
3,73,0,100
3,73,79,20
3,73,0,100
3,76,90,20
3,76,0,160
3,73,90,20
3,73,0,58
3,76,90,2
3,76,0,160
3,73,90,20
3,73,0,58
3,76,90,2
3,76,0,58
3,78,90,2
3,78,0,58
3,80,90,2
3,80,0,58
3,78,90,2
3,78,0,118
3,76,90,2
3,76,0,160
3,74,90,20
3,74,0,160
3,71,90,20
3,71,0,58
3,74,90,2
3,74,0,160
3,71,90,20
3,71,0,58
3,74,90,2
3,74,0,58
3,76,90,2
3,76,0,58
3,77,90,2
3,77,0,58
3,76,90,2
3,76,0,118
3,74,90,2
3,74,0,160
3,76,90,20
3,76,0,160
3,73,90,20
3,73,0,58
3,76,90,2
3,76,0,160
3,73,90,20
3,73,0,58
3,76,90,2
3,76,0,58
3,78,90,2
3,78,0,58
3,79,90,2
3,79,0,88
3,78,90,2
3,78,0,88
3,76,90,2
3,76,0,100
3,73,90,20
3,73,0,58
3,74,90,2
3,74,0,100
3,77,90,20
3,76,90,360
3,77,0,0
3,76,0,58
3,73,87,62
3,73,0,100
3,73,83,20
3,73,0,100
3,73,79,20
3,73,0,100
3,76,90,20
3,76,0,160
3,73,90,20
3,73,0,58
3,76,90,2
3,76,0,160
3,73,90,20
3,73,0,58
3,76,90,2
3,76,0,58
3,78,90,2
3,78,0,58
3,80,90,2
3,80,0,58
3,78,90,2
3,78,0,118
3,76,90,2
3,76,0,160
3,74,90,20
3,74,0,160
3,71,90,20
3,71,0,58
3,74,90,2
3,74,0,160
3,71,90,20
3,71,0,58
3,74,90,2
3,74,0,58
3,76,90,2
3,76,0,58
3,77,90,2
3,77,0,58
3,76,90,2
3,76,0,118
3,74,90,2
3,74,0,160
3,76,90,20
3,76,0,160
3,73,90,20
3,73,0,58
3,76,90,2
3,76,0,160
3,73,90,20
3,73,0,58
3,76,90,2
3,76,0,58
3,78,90,2
3,78,0,58
3,79,90,2
3,79,0,88
3,78,90,2
3,78,0,88
3,76,90,2
3,76,0,100
3,73,90,20
3,73,0,58
3,74,90,2
3,74,0,100
3,77,90,20
3,76,90,360
3,77,0,0
3,76,0,58
3,73,87,62
3,73,0,100
3,73,83,20
3,73,0,100
3,73,79,20
3,73,0,100
3,76,90,20
3,76,0,160
3,73,87,20
3,73,0,58
3,76,86,2
3,76,0,160
3,73,83,20
3,73,0,58
3,76,81,2
3,76,0,58
3,78,81,2
3,78,0,58
3,80,80,2
3,80,0,58
3,78,78,2
3,78,0,118
3,76,76,2
3,76,0,160
3,74,73,20
3,74,0,160
3,71,70,20
3,71,0,58
3,74,69,2
3,74,0,160
3,71,66,20
3,71,0,58
3,74,65,2
3,74,0,58
3,76,64,2
3,76,0,58
3,77,63,2
3,77,0,58
3,76,62,2
3,76,0,118
3,74,60,2
3,74,0,160
3,76,57,20
3,76,0,160
3,73,54,20
3,73,0,58
3,76,52,2
3,76,0,160
3,73,49,20
3,73,0,58
3,76,48,2
3,76,0,58
3,78,48,2
3,78,0,58
3,79,46,2
3,79,0,88
3,78,45,2
3,78,0,88
3,76,43,2
3,76,0,100
3,73,41,20
3,73,0,58
3,74,40,2
3,74,0,100
3,77,38,20
3,76,32,360
3,77,0,0
3,76,0,58
3,73,29,62
3,73,0,100
3,73,26,20
3,73,0,100
3,73,23,20
3,73,0,100
4,64,60,7
4,64,0,5
4,64,60,2
4,64,0,3
4,64,60,2
4,64,0,2
4,64,60,2
4,64,0,1
4,64,60,2
4,64,0,9
4,64,60,1
4,64,0,58
4,62,60,2
4,62,0,28
4,61,60,2
4,61,0,88
4,59,60,2
4,59,0,160
4,61,60,30
4,61,0,28
4,59,60,2
4,59,0,28
4,57,60,2
4,57,0,28
4,57,60,2
4,57,0,88
4,61,60,2
4,61,0,148
4,57,60,2
4,57,0,28
4,57,60,2
4,59,60,30
4,57,0,0
4,59,0,28
4,57,60,2
4,57,0,88
4,52,60,2
4,52,0,28
4,54,60,2
4,54,0,160
4,59,75,200
4,59,0,28
4,59,75,2
4,59,0,58
4,61,75,2
4,61,0,27
4,64,75,2
4,64,0,130
4,61,75,84
4,61,0,28
4,59,75,2
4,59,0,58
4,61,75,2
4,61,0,28
4,59,75,2
4,59,0,58
4,61,75,2
4,61,0,58
4,64,75,2
4,64,0,130
4,61,75,20
4,61,0,58
4,59,75,2
4,59,0,58
4,57,75,2
4,57,0,58
4,64,75,32
4,64,0,28
4,64,75,2
4,64,0,28
4,64,75,2
4,64,0,58
4,64,75,2
4,64,0,46
4,64,75,2
4,64,0,78
4,64,75,2
4,64,0,78
4,64,75,2
4,64,0,58
4,62,75,2
4,62,0,58
4,61,75,2
4,61,0,58
4,59,75,2
4,59,0,160
4,61,75,260
4,61,0,28
4,59,75,2
4,59,0,28
4,57,75,2
4,57,0,28
4,57,75,2
4,57,0,58
4,61,75,2
4,61,0,55
4,57,75,32
4,57,0,28
4,59,75,2
4,59,0,58
4,57,75,2
4,57,0,58
4,54,75,2
4,54,0,58
4,54,75,2
4,54,0,87
4,59,75,200
4,59,0,28
4,59,75,2
4,59,0,58
4,61,75,2
4,61,0,58
4,64,75,2
4,64,0,130
4,61,75,110
4,61,0,25
4,59,75,2
4,59,0,58
4,61,75,2
4,61,0,28
4,59,75,2
4,59,0,58
4,61,75,2
4,61,0,58
4,64,77,2
4,64,0,130
4,61,84,20
4,61,0,58
4,59,87,2
4,59,0,58
4,64,90,2
4,64,0,160
4,61,90,20
4,61,0,58
4,64,90,2
4,64,0,160
4,61,90,20
4,61,0,58
4,64,90,2
4,64,0,58
4,66,90,2
4,66,0,53
4,68,90,2
4,68,0,58
4,66,90,2
4,66,0,118
4,64,90,2
4,64,0,160
4,62,90,20
4,62,0,19
4,59,90,20
4,59,0,58
4,62,90,2
4,62,0,160
4,59,90,20
4,59,0,58
4,62,90,2
4,62,0,58
4,64,90,2
4,64,0,58
4,65,90,2
4,65,0,23
4,64,90,2
4,64,0,118
4,62,90,2
4,62,0,160
4,64,90,20
4,64,0,160
4,61,90,20
4,61,0,58
4,64,90,2
4,64,0,160
4,61,90,20
4,61,0,58
4,64,90,2
4,64,0,58
4,66,90,2
4,66,0,58
4,67,90,2
4,67,0,88
4,66,90,2
4,66,0,52
4,64,90,2
4,64,0,100
4,61,90,20
4,61,0,58
4,62,90,2
4,62,0,100
4,65,90,20
4,64,90,360
4,65,0,0
4,64,0,30
4,61,87,62
4,61,0,100
4,61,83,20
4,61,0,4
4,61,79,20
4,61,0,100
4,57,75,20
4,57,0,210
4,64,75,90
4,64,0,58
4,64,75,2
4,64,0,58
4,64,75,2
4,64,0,58
4,64,75,2
4,64,0,58
4,62,75,2
4,62,0,28
4,61,75,2
4,61,0,88
4,59,75,2
4,59,0,160
4,61,75,172
4,61,0,28
4,59,75,2
4,59,0,28
4,57,75,2
4,57,0,28
4,57,75,2
4,57,0,88
4,61,75,2
4,61,0,148
4,57,75,2
4,57,0,28
4,57,75,2
4,59,75,30
4,57,0,0
4,59,0,28
4,57,75,2
4,57,0,88
4,52,75,2
4,52,0,28
4,54,75,2
4,54,0,160
4,59,75,22
4,59,0,28
4,59,75,2
4,59,0,58
4,61,75,2
4,61,0,58
4,64,75,2
4,64,0,130
4,61,75,110
4,61,0,28
4,59,75,2
4,59,0,58
4,61,75,2
4,61,0,28
4,59,75,2
4,59,0,58
4,61,75,2
4,61,0,58
4,64,75,2
4,64,0,130
4,61,75,20
4,61,0,58
4,59,75,2
4,59,0,58
4,57,75,2
4,57,0,58
4,64,75,81
4,64,0,28
4,64,75,2
4,64,0,78
4,64,75,2
4,64,0,78
4,64,75,2
4,64,0,78
