track,note,velocity,time
1,67,100,8952
1,71,100,0
1,76,100,0
1,69,100,0
1,74,100,0
1,66,100,0
1,76,100,758
1,67,100,0
1,71,100,0
1,66,100,0
1,69,100,0
1,74,100,0
1,76,100,736
1,67,100,0
1,72,100,0
1,72,100,0
1,69,100,0
1,76,100,0
1,66,100,764
1,71,100,0
1,74,100,0
1,66,100,0
1,74,100,0
1,69,100,0
1,76,100,796
1,67,100,0
1,72,100,0
1,72,100,0
1,69,100,0
1,76,100,0
1,66,100,764
1,71,100,0
1,74,100,0
1,66,100,0
1,74,100,0
1,69,100,0
1,79,100,796
1,71,100,0
1,76,100,0
1,78,100,12
1,76,100,0
1,74,100,68
1,69,100,0
1,76,100,0
1,71,100,0
1,67,100,0
1,76,100,384
1,71,100,0
1,67,100,0
1,55,90,7680
1,62,90,0
1,59,90,0
1,66,90,48
1,59,90,0
1,62,90,0
1,60,90,40
1,55,90,0
1,64,90,0
1,62,90,34
1,57,90,0
1,66,90,0
1,55,90,82
1,62,90,0
1,59,90,0
1,66,90,48
1,59,90,0
1,62,90,0
1,60,90,40
1,55,90,0
1,64,90,0
1,62,90,34
1,57,90,0
1,66,90,0
1,67,90,82
1,59,90,0
1,62,90,0
1,59,90,26
1,66,90,0
1,62,90,0
1,67,90,6
1,64,90,0
1,59,90,0
1,64,90,38
1,60,90,0
1,67,90,0
1,59,90,18
1,62,90,0
1,67,90,0
1,66,90,20
1,59,90,0
1,64,90,12
1,60,90,0
1,67,90,0
1,62,90,20
1,69,90,0
1,66,90,0
1,59,90,16
1,67,90,0
1,62,90,0
1,66,90,12
1,59,90,0
1,64,90,6
1,67,90,0
1,67,90,30
1,64,90,0
1,60,90,0
1,59,90,22
1,62,90,0
1,67,90,0
1,64,90,34
1,60,90,0
1,57,90,0
1,59,90,12
1,62,90,0
1,60,90,16
1,64,90,0
1,57,90,0
1,59,90,1056
1,62,90,0
1,60,90,80
1,64,90,0
1,59,90,18
1,55,90,0
1,62,90,0
1,71,110,1536
1,69,111,288
1,67,111,288
1,66,112,288
1,67,100,10
1,71,100,0
1,76,100,0
1,69,100,0
1,74,100,0
1,66,100,0
1,76,100,758
1,67,100,0
1,71,100,0
1,66,100,0
1,69,100,0
1,74,100,0
1,76,100,736
1,67,100,0
1,72,100,0
1,72,100,0
1,69,100,0
1,76,100,0
1,66,100,764
1,71,100,0
1,74,100,0
1,66,100,0
1,74,100,0
1,69,100,0
1,76,100,796
1,67,100,0
1,72,100,0
1,72,100,0
1,69,100,0
1,76,100,0
1,66,100,764
1,71,100,0
1,74,100,0
1,66,100,0
1,74,100,0
1,69,100,0
1,79,100,796
1,71,100,0
1,76,100,0
1,78,100,12
1,76,100,0
1,74,100,68
1,69,100,0
1,68,100,0
1,76,100,0
1,71,100,0
1,68,100,384
1,76,100,0
1,71,100,0
1,55,90,7680
1,62,90,0
1,59,90,0
1,66,90,48
1,59,90,0
1,62,90,0
1,60,90,40
1,55,90,0
1,64,90,0
1,62,90,34
1,57,90,0
1,66,90,0
1,55,90,82
1,62,90,0
1,59,90,0
1,66,90,48
1,59,90,0
1,62,90,0
1,60,90,40
1,55,90,0
1,64,90,0
1,62,90,34
1,57,90,0
1,66,90,0
1,69,90,82
1,61,90,0
1,64,90,0
1,61,90,26
1,68,90,0
1,64,90,0
1,69,90,6
1,66,90,0
1,61,90,0
1,66,90,38
1,62,90,0
1,69,90,0
1,61,90,18
1,64,90,0
1,69,90,0
1,68,90,20
1,61,90,0
1,66,90,12
1,62,90,0
1,69,90,0
1,64,90,20
1,71,90,0
1,68,90,0
1,61,90,16
1,69,90,0
1,64,90,0
1,68,90,12
1,61,90,0
1,66,90,6
1,69,90,0
1,69,90,30
1,66,90,0
1,62,90,0
1,61,90,22
1,64,90,0
1,69,90,0
1,66,90,34
1,62,90,0
1,59,90,0
1,69,95,0
1,55,90,96
1,64,90,0
1,57,90,0
1,61,90,6144
1,62,90,26
1,64,90,0
1,61,90,362
1,62,90,576
1,64,90,70
1,61,90,382
1,62,90,576
1,64,90,38
1,66,90,354
1,67,90,576
1,69,90,8
1,69,100,14
1,73,100,0
1,78,100,0
1,71,100,0
1,76,100,0
1,68,100,0
1,78,100,758
1,69,100,0
1,73,100,0
1,68,100,0
1,71,100,0
1,76,100,0
1,78,100,736
1,69,100,0
1,74,100,0
1,74,100,0
1,71,100,0
1,78,100,0
1,68,100,764
1,73,100,0
1,76,100,0
1,68,100,0
1,76,100,0
1,71,100,0
1,78,100,796
1,69,100,0
1,74,100,0
1,74,100,0
1,71,100,0
1,78,100,0
1,71,100,764
1,74,100,0
1,78,100,0
1,69,100,0
1,74,100,0
1,78,100,0
1,69,90,13084
1,61,90,0
1,64,90,0
1,61,90,26
1,68,90,0
1,64,90,0
1,69,90,6
1,66,90,0
1,61,90,0
1,66,90,38
1,62,90,0
1,69,90,0
1,61,90,18
1,64,90,0
1,69,90,0
1,68,90,20
1,61,90,0
1,66,90,12
1,62,90,0
1,69,90,0
1,64,90,20
1,71,90,0
1,68,90,0
1,61,90,16
1,69,90,0
1,64,90,0
1,68,90,12
1,61,90,0
1,66,90,6
1,69,90,0
1,69,90,30
1,66,90,0
1,62,90,0
1,61,90,22
1,64,90,0
1,69,90,0
1,66,90,34
1,62,90,0
1,59,90,0
1,69,95,0
1,69,90,96
1,61,90,0
1,64,90,0
1,61,90,26
1,68,90,0
1,64,90,0
1,69,90,6
1,66,90,0
1,61,90,0
1,66,90,38
1,62,90,0
1,69,90,0
1,61,90,18
1,64,90,0
1,69,90,0
1,68,90,20
1,61,90,0
1,66,90,12
1,62,90,0
1,69,90,0
1,64,90,20
1,71,90,0
1,68,90,0
1,61,90,16
1,69,90,0
1,64,90,0
1,68,90,12
1,61,90,0
1,66,90,6
1,69,90,0
1,69,90,30
1,66,90,0
1,62,90,0
1,61,90,22
1,64,90,0
1,69,90,0
1,66,90,34
1,62,90,0
1,59,90,0
1,69,95,0
1,69,90,96
1,61,90,0
1,64,90,0
1,61,90,26
1,68,90,0
1,64,90,0
1,69,90,6
1,66,90,0
1,61,90,0
1,66,90,38
1,62,90,0
1,69,90,0
1,61,90,0
1,64,90,0
1,69,90,0
1,68,90,0
1,61,90,0
1,66,90,0
1,62,90,0
1,69,90,0
1,64,90,0
1,71,90,0
1,68,90,0
1,61,90,0
1,69,90,0
1,64,90,0
1,68,90,0
1,61,90,0
1,66,90,0
1,69,90,0
1,69,90,0
1,66,90,0
1,62,90,0
1,61,90,0
1,64,90,0
1,69,90,0
1,66,90,0
1,62,90,0
1,59,90,0
1,69,95,0
2,47,90,7512
2,45,90,94
2,43,90,80
2,45,90,32
2,43,90,110
2,40,90,0
2,38,90,14
2,40,90,20
2,36,90,252
2,38,90,96
2,36,90,130
2,38,90,50
2,40,90,458
2,38,90,14
2,40,90,20
2,36,90,252
2,38,90,96
2,36,90,130
2,38,90,50
2,36,90,458
2,33,90,16
2,36,90,96
2,36,90,232
2,33,90,24
2,36,90,96
2,33,90,8
2,36,90,10
2,38,90,428
2,35,90,20
2,38,90,96
2,38,90,244
2,35,90,20
2,38,90,96
2,35,90,2
2,38,90,10
2,31,90,96
2,33,90,96
2,36,90,96
2,33,90,16
2,36,90,96
2,36,90,232
2,33,90,24
2,36,90,96
2,33,90,8
2,36,90,10
2,33,90,428
2,33,90,56
2,33,90,126
2,33,90,26
2,33,90,68
2,38,90,608
2,38,90,26
2,40,90,30
2,38,90,266
2,40,90,26
2,38,90,18
2,40,90,18
2,38,90,18
2,38,90,284
2,40,90,14
2,40,90,76
2,40,90,324
2,40,90,42
2,40,90,86
2,28,90,414
2,28,90,234
2,28,90,342
2,28,90,146
2,28,90,240
2,28,90,48
2,28,90,44
2,28,90,44
2,28,90,170
2,28,90,220
2,28,90,44
2,28,90,464
2,28,90,234
2,28,90,342
2,28,90,146
2,28,90,240
2,28,90,48
2,28,90,44
2,28,90,44
2,28,90,170
2,28,90,220
2,28,90,44
2,35,90,464
2,36,90,22
2,36,90,96
2,36,90,50
2,31,90,292
2,31,90,78
2,31,90,242
2,31,90,26
2,35,90,44
2,35,90,88
2,35,90,256
2,35,90,12
2,36,90,44
2,36,90,94
2,36,90,256
2,36,90,16
2,38,90,140
2,38,90,104
2,38,90,104
2,38,90,36
2,31,90,96
2,31,90,78
2,31,90,242
2,31,90,26
2,35,90,44
2,35,90,88
2,35,90,256
2,35,90,12
2,36,90,44
2,36,90,94
2,36,90,256
2,36,90,16
2,38,90,140
2,38,90,104
2,38,90,104
2,38,90,36
2,31,100,96
2,28,100,96
2,31,100,90
2,31,100,226
2,31,100,32
2,35,100,12
2,35,100,86
2,31,100,228
2,35,100,6
2,28,100,96
2,26,100,6
2,28,100,32
2,35,100,272
2,36,100,88
2,35,100,12
2,36,100,28
2,36,100,278
2,31,100,32
2,31,100,76
2,31,100,264
2,28,100,6
2,35,100,0
2,35,100,114
2,31,100,258
2,35,100,8
2,36,100,28
2,36,100,80
2,36,100,232
2,38,100,40
2,38,100,110
2,26,100,20
2,26,100,14
2,31,100,42
2,28,100,96
2,31,100,40
2,31,100,280
2,31,100,40
2,35,100,20
2,33,100,12
2,35,100,24
2,35,100,278
2,33,100,22
2,40,100,18
2,38,100,16
2,40,100,16
2,40,100,218
2,36,100,30
2,36,100,108
2,35,100,100
2,36,100,6
2,35,100,8
2,31,100,62
2,31,100,44
2,31,100,268
2,28,100,8
2,31,100,8
2,31,100,84
2,31,100,260
2,33,100,86
2,31,100,16
2,33,100,24
2,33,100,276
2,31,100,4
2,33,100,18
2,31,100,14
2,33,100,20
2,33,100,300
2,33,100,98
2,31,100,96
2,33,100,34
2,31,100,284
2,31,100,22
2,33,100,30
2,31,100,10
2,33,100,20
2,31,100,290
2,31,100,36
2,33,100,34
2,31,100,10
2,33,100,24
2,33,100,172
2,31,100,96
2,33,100,14
2,31,100,4
2,33,100,14
2,31,100,280
2,31,100,50
2,31,100,98
2,31,100,246
2,28,100,10
2,31,100,6
2,31,100,32
2,31,100,26
2,28,100,0
2,28,100,288
2,31,100,18
2,31,100,22
2,31,100,80
2,31,100,264
2,31,100,48
2,35,100,18
2,31,100,16
2,35,100,28
2,31,100,134
2,31,100,88
2,40,90,64
2,38,90,14
2,40,90,20
2,36,90,252
2,38,90,96
2,36,90,130
2,38,90,50
2,40,90,458
2,38,90,14
2,40,90,20
2,36,90,252
2,38,90,96
2,36,90,130
2,38,90,50
2,36,90,458
2,33,90,16
2,36,90,96
2,36,90,232
2,33,90,24
2,36,90,96
2,33,90,8
2,36,90,10
2,38,90,428
2,35,90,20
2,38,90,96
2,38,90,244
2,35,90,20
2,38,90,96
2,35,90,2
2,38,90,10
2,31,90,96
2,33,90,96
2,36,90,96
2,33,90,16
2,36,90,96
2,36,90,232
2,33,90,24
2,36,90,96
2,33,90,8
2,36,90,10
2,33,90,428
2,33,90,56
2,33,90,126
2,33,90,26
2,33,90,68
2,38,90,608
2,38,90,26
2,40,90,30
2,38,90,266
2,40,90,26
2,38,90,18
2,40,90,18
2,38,90,18
2,38,90,284
2,40,90,14
2,40,90,76
2,40,90,324
2,40,90,42
2,40,90,86
2,28,90,414
2,28,90,234
2,28,90,342
2,28,90,146
2,28,90,240
2,28,90,48
2,28,90,44
2,28,90,44
2,28,90,170
2,28,90,220
2,28,90,44
2,28,90,464
2,28,90,234
2,28,90,342
2,28,90,146
2,28,90,240
2,28,90,48
2,28,90,44
2,28,90,44
2,28,90,170
2,28,90,220
2,28,90,44
2,35,90,464
2,36,90,22
2,36,90,96
2,36,90,50
2,31,90,292
2,31,90,78
2,31,90,242
2,31,90,26
2,35,90,44
2,35,90,88
2,35,90,256
2,35,90,12
2,36,90,44
2,36,90,94
2,36,90,256
2,36,90,16
2,38,90,140
2,38,90,104
2,38,90,104
2,38,90,36
2,31,90,96
2,31,90,78
2,31,90,242
2,31,90,26
2,35,90,44
2,35,90,88
2,35,90,256
2,35,90,12
2,36,90,44
2,36,90,94
2,36,90,256
2,36,90,16
2,38,90,140
2,38,90,104
2,38,90,104
2,38,90,36
2,33,100,96
2,30,100,96
2,33,100,90
2,33,100,226
2,33,100,32
2,37,100,12
2,37,100,86
2,33,100,228
2,37,100,6
2,30,100,96
2,28,100,6
2,30,100,32
2,37,100,272
2,38,100,88
2,37,100,12
2,38,100,28
2,38,100,278
2,33,100,32
2,33,100,76
2,33,100,264
2,30,100,6
2,37,100,0
2,37,100,114
2,33,100,258
2,37,100,8
2,38,100,28
2,38,100,80
2,38,100,232
2,40,100,40
2,40,100,110
2,28,100,20
2,28,100,14
2,33,100,42
2,30,100,96
2,33,100,40
2,33,100,280
2,33,100,40
2,37,100,20
2,35,100,12
2,37,100,24
2,37,100,278
2,35,100,22
2,42,100,18
2,40,100,16
2,42,100,16
2,42,100,218
2,38,100,30
2,38,100,108
2,37,100,100
2,38,100,6
2,37,100,8
2,33,100,62
2,33,100,44
2,33,100,268
2,30,100,8
2,33,100,8
2,33,100,84
2,33,100,260
2,35,100,86
2,33,100,16
2,35,100,24
2,35,100,276
2,33,100,4
2,35,100,18
2,33,100,14
2,35,100,20
2,35,100,300
2,35,100,98
2,33,100,96
2,35,100,34
2,33,100,284
2,33,100,22
2,35,100,30
2,33,100,10
2,35,100,20
2,33,100,290
2,33,100,36
2,33,90,34
2,33,90,40
2,31,90,30
2,33,90,60
2,31,90,78
2,33,90,18
2,33,90,60
2,33,90,350
2,33,90,96
2,33,90,40
2,31,90,30
2,33,90,60
2,31,90,78
2,33,90,18
2,33,90,60
2,33,90,350
2,33,90,96
2,33,90,40
2,31,90,30
2,33,90,60
2,31,90,78
2,33,90,18
2,33,90,60
2,33,90,350
2,33,90,96
2,33,90,40
2,31,90,30
2,33,90,60
2,31,90,78
2,33,90,18
2,37,90,156
2,38,90,62
2,40,90,62
2,33,90,62
2,33,90,40
2,31,90,30
2,33,90,60
2,31,90,78
2,33,90,18
2,33,90,60
2,33,90,350
2,33,90,96
2,33,90,40
2,31,90,30
2,33,90,60
2,31,90,78
2,33,90,18
2,33,90,60
2,33,90,350
2,33,90,96
2,33,90,40
2,31,90,30
2,33,90,60
2,31,90,78
2,33,90,18
2,37,90,156
2,38,90,62
2,40,90,62
2,33,90,62
2,34,90,52
2,35,90,66
2,36,90,42
2,37,90,48
2,38,90,52
2,39,90,52
2,40,90,2
2,33,90,8
2,42,90,72
2,40,90,14
2,42,90,20
2,38,90,252
2,40,90,96
2,38,90,130
2,40,90,50
2,42,90,458
2,40,90,14
2,42,90,20
2,38,90,252
2,40,90,96
2,38,90,130
2,40,90,50
2,38,90,458
2,35,90,16
2,38,90,96
2,38,90,232
2,35,90,24
2,38,90,96
2,35,90,8
2,38,90,10
2,35,90,428
2,35,90,56
2,35,90,126
2,35,90,26
2,35,90,68
2,38,90,608
2,35,90,16
2,38,90,96
2,38,90,232
2,35,90,24
2,38,90,96
2,35,90,8
2,38,90,10
2,38,90,428
2,35,90,16
2,38,90,96
2,38,90,232
2,35,90,24
2,38,90,96
2,35,90,8
2,38,90,10
2,33,90,44
2,35,90,96
2,33,90,96
2,33,90,102
2,33,90,176
2,33,90,190
2,38,90,106
2,38,90,130
2,36,90,2
2,33,90,4
2,33,90,272
2,33,90,176
2,33,90,190
2,38,90,106
2,38,90,130
2,36,90,2
2,33,90,4
2,33,90,80
2,33,90,50
2,31,90,42
2,33,90,44
2,38,90,472
2,38,90,214
2,36,90,30
2,33,90,20
2,33,90,280
2,33,90,198
2,33,90,198
2,38,90,118
2,38,90,130
2,36,90,8
2,33,90,8
2,33,90,88
2,33,90,34
2,31,90,42
2,33,90,30
2,36,90,488
2,36,90,208
2,36,90,12
2,33,90,466
2,38,90,190
2,38,90,202
2,38,90,124
2,38,90,130
2,36,90,22
2,33,90,2
2,33,90,90
2,33,90,50
2,31,90,42
2,33,90,44
2,38,90,472
2,38,90,214
2,36,90,30
2,33,90,20
2,26,90,88
2,33,100,2
2,30,100,96
