track,note,velocity,time
0,68,99,1895
0,71,90,0
0,42,83,0
0,49,99,0
0,36,108,0
0,37,110,0
0,59,99,0
0,49,99,0
0,64,99,0
0,56,90,0
0,64,90,0
0,64,67,31
0,47,111,0
0,46,100,0
0,68,60,0
0,40,110,0
0,59,67,0
0,68,70,3
0,59,67,0
0,64,67,0
0,49,111,0
0,36,108,17
0,32,110,0
0,42,100,0
0,40,127,0
0,68,101,3
0,64,94,0
0,49,111,0
0,59,94,0
0,47,111,13
0,37,110,0
0,42,83,0
0,47,111,3
0,42,48,0
0,42,116,3
0,49,111,0
0,59,94,0
0,36,108,0
0,64,94,0
0,68,101,0
0,49,111,3
0,46,100,43
0,47,111,0
0,36,108,13
0,49,111,0
0,73,90,0
0,42,116,0
0,40,127,0
0,32,110,99
0,52,111,0
0,42,100,0
0,42,61,3
0,76,90,3
0,61,90,0
0,30,110,0
0,42,70,0
0,42,99,0
0,42,116,0
0,69,90,0
0,36,108,0
0,54,99,9
0,61,70,0
0,52,111,0
0,64,67,0
0,61,99,0
0,46,71,0
0,57,58,0
0,57,99,0
0,61,82,3
0,64,79,0
0,57,67,0
0,49,111,0
0,42,100,35
0,36,108,0
0,40,127,0
0,57,58,3
0,49,111,0
0,61,82,0
0,64,79,0
0,42,116,51
0,52,111,0
0,42,61,3
0,49,111,0
0,52,111,3
0,57,94,0
0,36,108,0
0,64,101,0
0,42,116,0
0,61,101,0
0,52,111,1
0,46,100,39
0,42,110,0
0,49,111,0
0,40,127,3
0,52,111,0
0,78,90,0
0,36,108,0
0,42,116,0
0,37,110,99
0,42,116,0
0,54,111,0
0,49,111,3
0,42,71,0
0,63,99,3
0,59,99,0
0,36,108,0
0,42,116,0
0,40,94,0
0,56,90,0
0,40,99,0
0,71,90,0
0,63,90,0
0,56,99,0
0,40,110,0
0,47,111,13
0,46,116,0
0,68,60,0
0,63,70,0
0,59,58,0
0,63,70,3
0,68,82,0
0,59,79,0
0,36,108,1
0,47,111,0
0,40,127,0
0,42,116,0
0,47,111,3
0,59,79,0
0,63,99,0
0,68,82,0
0,42,116,41
0,49,111,0
0,42,61,3
0,68,99,3
0,63,99,0
0,36,107,0
0,42,116,0
0,59,94,0
0,47,111,3
0,46,100,77
0,49,111,0
0,40,110,0
0,42,116,67
0,47,111,0
0,36,107,0
0,40,126,0
0,49,111,43
0,42,61,0
0,32,110,0
0,42,100,3
0,57,99,3
0,61,99,0
0,42,99,0
0,54,99,0
0,30,110,0
0,42,99,0
0,36,107,0
0,42,116,0
0,57,58,15
0,49,111,0
0,46,100,0
0,61,70,0
0,64,51,0
0,47,111,3
0,61,82,0
0,64,79,0
0,57,58,0
0,40,126,35
0,80,90,0
0,69,90,0
0,42,116,0
0,36,107,0
0,47,111,3
0,57,67,0
0,61,82,0
0,64,79,0
0,42,61,31
0,42,110,0
0,49,111,0
0,78,90,0
0,47,111,3
0,42,83,0
0,42,116,3
0,36,107,0
0,57,79,0
0,64,79,0
0,61,82,0
0,76,90,5
0,46,100,0
0,32,110,0
0,49,111,0
0,36,107,99
0,40,126,0
0,52,111,0
0,42,116,0
0,47,111,3
0,54,111,9
0,73,90,0
0,35,110,0
0,42,54,0
0,42,100,3
0,49,100,3
0,49,99,0
0,64,90,0
0,36,107,0
0,71,90,0
0,49,99,0
0,64,99,0
0,37,110,0
0,56,90,0
0,68,99,0
0,59,99,0
0,46,100,31
0,64,67,0
0,68,60,0
0,40,110,0
0,59,67,0
0,47,111,0
0,64,67,3
0,49,111,0
0,68,70,0
0,59,67,0
0,42,116,17
0,40,126,0
0,32,110,0
0,36,107,0
0,64,94,3
0,68,101,0
0,59,94,0
0,49,111,0
0,42,71,13
0,47,111,0
0,37,110,0
0,42,83,3
0,47,111,0
0,49,111,3
0,68,101,0
0,42,116,0
0,59,94,0
0,36,107,0
0,64,94,0
0,46,100,99
0,47,111,3
0,73,90,13
0,42,116,0
0,40,126,0
0,49,111,0
0,36,107,0
0,32,110,99
0,42,54,0
0,52,111,0
0,42,71,3
0,69,90,3
0,42,70,0
0,30,110,0
0,76,90,0
0,42,116,0
0,42,99,0
0,36,107,0
0,61,90,0
0,61,99,9
0,46,71,0
0,64,67,0
0,57,58,0
0,57,99,0
0,54,99,0
0,52,111,0
0,61,70,0
0,61,82,3
0,64,79,0
0,57,67,0
0,49,111,0
0,36,107,55
0,40,126,0
0,42,116,0
0,61,82,3
0,49,111,0
0,64,79,0
0,57,58,0
0,42,61,41
0,54,111,0
0,42,83,3
0,49,111,0
0,52,111,3
0,57,94,0
0,42,116,0
0,61,101,0
0,36,107,0
0,64,101,0
0,42,110,97
0,54,111,0
0,46,100,0
0,36,107,3
0,42,116,0
0,78,90,0
0,52,111,0
0,40,126,0
0,37,110,97
0,42,61,0
0,54,111,0
0,42,100,3
0,40,99,3
0,63,99,0
0,59,99,0
0,40,110,0
0,56,99,0
0,36,106,0
0,40,94,0
0,42,100,0
0,63,90,0
0,56,90,0
0,71,90,0
0,47,111,13
0,63,70,0
0,46,100,0
0,59,58,0
0,68,60,0
0,68,82,3
0,47,111,0
0,63,70,0
0,59,79,0
0,40,125,1
0,42,116,0
0,36,106,0
0,47,111,3
0,68,82,0
0,59,79,0
0,63,99,0
0,49,111,29
0,42,44,0
0,42,116,3
0,47,111,3
0,59,94,0
0,68,99,0
0,42,116,0
0,63,99,0
0,36,106,0
0,47,111,3
0,40,110,29
0,46,100,0
0,49,111,0
0,40,125,67
0,36,106,0
0,42,116,0
0,47,111,0
0,42,100,99
0,49,111,0
0,32,110,0
0,42,100,3
0,42,99,3
0,54,99,0
0,42,99,0
0,36,106,0
0,30,110,0
0,61,99,0
0,57,99,0
0,42,116,0
0,64,51,15
0,61,70,0
0,46,100,0
0,49,111,0
0,57,58,0
0,64,79,3
0,61,82,0
0,57,58,0
0,52,111,0
0,69,90,27
0,80,90,0
0,40,125,0
0,36,106,0
0,42,116,0
0,64,79,3
0,57,67,0
0,61,82,0
0,42,110,96
0,78,90,0
0,54,111,0
0,42,54,0
0,42,116,3
0,36,106,3
0,64,79,0
0,52,111,0
0,42,116,0
0,57,79,0
0,61,82,0
0,49,111,3
0,54,111,5
0,76,90,0
0,32,110,0
0,46,116,0
0,52,111,99
0,36,106,0
0,40,125,0
0,42,116,0
0,73,90,9
0,54,111,0
0,35,110,0
0,40,125,0
0,68,116,3
0,40,100,0
0,66,99,3
0,71,116,0
0,47,119,0
0,35,119,0
0,59,101,0
0,35,110,0
0,83,111,0
0,71,99,0
0,63,99,0
0,54,101,0
0,36,108,0
0,63,55,0
0,47,101,0
0,42,83,0
0,71,116,65
0,83,111,0
0,46,100,0
0,83,111,3
0,71,116,0
0,40,127,21
0,36,108,0
0,42,100,0
0,80,44,3
0,71,115,0
0,35,110,0
0,42,83,0
0,83,111,0
0,42,48,1
0,83,111,3
0,42,116,0
0,36,108,0
0,35,110,0
0,80,48,0
0,83,111,3
0,80,48,0
0,80,61,3
0,46,100,0
0,83,111,3
0,40,127,61
0,83,111,0
0,36,108,0
0,42,116,0
0,66,115,0
0,83,111,69
0,42,100,0
0,68,115,0
0,42,61,3
0,61,99,3
0,45,101,0
0,42,116,0
0,36,108,0
0,33,110,0
0,61,101,0
0,71,115,0
0,57,101,0
0,33,119,0
0,64,99,0
0,83,111,0
0,52,101,0
0,45,119,0
0,71,99,0
0,83,111,1
0,46,71,0
0,71,115,3
0,83,111,0
0,40,127,15
0,42,100,0
0,36,108,0
0,68,114,3
0,83,111,0
0,33,110,11
0,42,116,0
0,80,40,0
0,71,114,0
0,83,111,0
0,80,48,3
0,42,61,0
0,33,110,3
0,83,111,0
0,42,116,0
0,36,108,0
0,80,54,0
0,83,111,3
0,80,83,29
0,46,100,0
0,83,111,3
0,36,108,63
0,66,114,0
0,83,111,0
0,42,116,0
0,40,127,0
0,83,111,99
0,68,114,0
0,42,116,0
0,42,71,3
0,59,101,3
0,40,110,0
0,83,111,0
0,71,99,0
0,40,119,0
0,64,99,0
0,64,101,0
0,56,101,0
0,40,101,0
0,42,116,0
0,71,114,0
0,28,119,0
0,36,108,0
0,68,99,0
0,83,111,9
0,46,116,0
0,71,113,3
0,83,111,0
0,36,108,5
0,40,127,0
0,42,116,0
0,83,111,3
0,83,111,57
0,80,83,0
0,42,116,0
0,40,110,0
0,42,61,1
0,80,61,0
0,36,107,3
0,40,110,0
0,83,111,0
0,69,113,0
0,42,116,0
0,80,54,3
0,83,111,0
0,69,113,0
0,80,71,3
0,46,100,0
0,83,111,3
0,42,116,13
0,69,110,0
0,36,107,0
0,40,126,0
0,83,111,0
0,83,111,9
0,42,61,0
0,69,111,0
0,71,111,1
0,42,100,0
0,59,101,3
0,63,101,0
0,35,119,0
0,36,107,0
0,54,99,0
0,66,99,0
0,47,101,0
0,42,116,0
0,47,119,0
0,83,111,0
0,71,99,0
0,35,110,0
0,63,99,0
0,71,111,43
0,83,111,0
0,46,100,0
0,83,111,3
0,40,126,13
0,42,116,0
0,36,107,0
0,83,111,3
0,42,61,63
0,80,61,0
0,35,110,0
0,83,111,0
0,42,83,3
0,80,48,0
0,42,116,3
0,35,110,0
0,36,107,0
0,83,111,0
0,80,71,0
0,83,111,3
0,80,61,0
0,46,100,3
0,80,54,0
0,66,113,3
0,83,111,0
0,68,113,1
0,40,126,0
0,42,116,0
0,36,107,0
0,83,111,0
0,83,111,15
0,71,113,0
0,42,54,0
0,42,100,3
0,42,116,3
0,47,101,0
0,35,110,0
0,71,99,0
0,63,99,0
0,47,119,0
0,36,107,0
0,59,101,0
0,54,101,0
0,83,111,0
0,66,99,0
0,35,119,0
0,63,101,0
0,74,114,0
0,83,111,99
0,46,100,0
0,73,114,3
0,83,111,0
0,36,107,25
0,42,116,0
0,40,126,0
0,83,111,3
0,80,44,61
0,71,115,0
0,42,71,0
0,83,111,0
0,35,110,0
0,42,83,3
0,80,83,0
0,42,116,3
0,35,110,0
0,36,107,0
0,83,111,0
0,80,54,3
0,83,111,0
0,80,83,3
0,46,100,0
0,83,111,3
0,68,116,17
0,42,116,0
0,40,126,0
0,36,107,0
0,83,111,0
0,42,54,37
0,83,111,0
0,71,116,0
0,42,71,3
0,73,99,3
0,49,119,0
0,59,101,0
0,83,111,0
0,68,99,0
0,56,101,0
0,37,119,0
0,64,94,0
0,42,116,0
0,64,99,0
0,71,116,0
0,49,101,0
0,37,110,0
0,36,107,0
0,46,71,5
0,83,111,0
0,68,117,0
0,71,117,3
0,83,111,0
0,40,126,29
0,42,116,0
0,36,107,0
0,83,111,1
0,73,117,53
0,37,110,0
0,83,111,0
0,42,61,0
0,80,54,0
0,80,61,3
0,42,83,0
0,36,107,3
0,37,110,0
0,83,111,0
0,42,116,0
0,80,71,0
0,71,118,3
0,80,61,0
0,83,111,0
0,80,83,3
0,46,100,0
0,68,118,0
0,83,111,3
0,40,126,63
0,83,111,0
0,42,116,0
0,36,107,0
0,66,118,3
0,83,111,9
0,68,118,0
0,42,61,0
0,71,119,3
0,42,100,0
0,64,99,1
0,68,99,0
0,40,110,0
0,40,119,0
0,64,101,0
0,40,101,0
0,83,111,0
0,56,101,0
0,59,101,0
0,36,106,0
0,42,100,0
0,71,99,0
0,28,119,0
0,46,100,99
0,83,111,3
0,40,125,41
0,36,106,0
0,42,116,0
0,68,118,3
0,83,111,0
0,42,44,63
0,80,71,0
0,71,118,0
0,83,111,0
0,80,71,3
0,42,116,0
0,57,101,3
0,33,110,0
0,69,99,0
0,69,118,0
0,64,99,0
0,64,101,0
0,42,116,0
0,45,119,0
0,36,106,0
0,83,111,0
0,45,101,0
0,73,99,0
0,61,101,0
0,33,119,0
0,83,111,3
0,80,44,0
0,80,71,3
0,46,100,0
0,83,111,3
0,36,106,65
0,71,117,0
0,42,116,0
0,40,125,0
0,83,111,0
0,71,117,3
0,83,111,11
0,42,100,0
0,42,100,1
0,59,101,3
0,66,99,0
0,35,119,0
0,42,116,0
0,54,99,0
0,75,99,0
0,83,111,0
0,71,99,0
0,71,116,0
0,47,119,0
0,63,99,0
0,47,101,0
0,36,106,0
0,35,110,0
0,83,111,23
0,46,100,0
0,83,111,3
0,42,116,39
0,36,106,0
0,40,125,0
0,83,111,3
0,42,54,3
0,71,104,0
0,83,111,0
0,35,110,0
0,75,108,13
0,42,116,3
0,78,113,32
0,83,118,3
0,42,116,0
0,35,110,0
0,83,111,0
0,36,106,0
0,80,71,0
0,83,111,3
0,46,116,47
0,36,106,41
0,83,111,0
0,42,116,0
0,40,125,0
0,35,110,0
0,83,111,23
0,33,110,0
0,40,125,0
0,40,100,3
0,36,105,3
0,49,100,0
0,78,99,0
0,32,110,0
0,83,99,0
0,44,101,0
0,71,99,0
0,44,100,99
0,51,111,0
0,54,110,0
0,54,111,3
0,68,70,29
0,66,82,0
0,59,67,0
0,42,100,0
0,56,109,0
0,36,105,0
0,40,124,0
0,32,110,5
0,42,71,0
0,51,111,0
0,59,109,0
0,68,39,1
0,66,47,0
0,59,51,0
0,66,99,9
0,78,99,0
0,42,100,0
0,68,101,0
0,36,105,0
0,54,111,0
0,59,79,0
0,32,110,21
0,56,111,0
0,44,100,0
0,56,108,0
0,54,111,13
0,42,100,0
0,40,124,0
0,36,105,0
0,32,110,5
0,54,107,0
0,42,61,0
0,73,99,3
0,56,107,0
0,33,110,0
0,69,99,0
0,45,58,0
0,42,100,0
0,36,105,0
0,54,107,17
0,44,100,0
0,52,111,3
0,51,106,11
0,57,79,0
0,40,124,0
0,42,100,0
0,61,99,0
0,64,101,0
0,36,105,0
0,52,111,3
0,49,111,5
0,33,110,0
0,56,106,0
0,42,71,0
0,52,111,39
0,57,58,0
0,36,93,0
0,64,67,0
0,61,70,0
0,42,116,0
0,54,105,3
0,54,111,13
0,51,105,0
0,33,110,0
0,44,116,0
0,42,116,99
0,40,124,0
0,36,105,0
0,52,111,0
0,40,95,99
0,45,51,0
0,33,110,0
0,54,111,0
0,40,124,3
0,71,99,3
0,49,100,0
0,32,110,0
0,78,99,0
0,36,105,0
0,44,70,0
0,51,110,0
0,54,110,99
0,44,116,0
0,52,111,0
0,54,111,3
0,66,99,29
0,56,109,0
0,36,105,0
0,68,82,0
0,59,101,0
0,42,116,0
0,40,124,0
0,54,111,3
0,42,83,3
0,32,110,0
0,59,109,0
0,59,79,73
0,54,111,0
0,68,101,0
0,83,99,0
0,66,101,0
0,36,105,0
0,42,116,0
0,32,110,41
0,56,109,0
0,44,116,0
0,56,111,0
0,54,108,51
0,40,124,0
0,36,108,0
0,54,111,0
0,42,100,0
0,42,54,17
0,66,60,0
0,61,70,0
0,58,35,0
0,56,108,0
0,32,110,0
0,51,60,3
0,36,105,0
0,82,99,0
0,42,100,0
0,78,99,0
0,39,110,0
0,73,99,0
0,54,108,3
0,58,53,35
0,51,107,0
0,44,100,0
0,51,111,0
0,58,99,99
0,36,93,0
0,54,111,0
0,40,124,0
0,42,100,0
0,66,99,0
0,99,99,0
0,61,101,0
0,97,99,1
0,94,99,35
0,39,110,61
0,51,70,0
0,90,99,0
0,42,71,0
0,87,99,3
0,85,99,3
0,61,82,3
0,58,60,0
0,82,99,0
0,42,100,0
0,36,93,0
0,66,99,0
0,78,99,3
0,75,99,3
0,51,60,3
0,44,116,0
0,37,110,0
0,73,99,0
0,70,99,3
0,66,99,35
0,42,116,1
0,63,99,0
0,40,112,0
0,36,105,0
0,61,99,3
0,40,95,31
0,51,70,0
0,34,110,0
0,40,95,3
0,59,99,3
0,32,110,0
0,36,105,0
0,49,100,0
0,56,99,0
0,63,99,0
0,54,99,0
0,44,70,0
0,51,111,99
0,66,97,0
0,44,100,0
0,54,111,3
0,36,105,35
0,59,79,0
0,68,82,0
0,66,99,0
0,68,78,0
0,40,124,0
0,42,100,0
0,51,111,3
0,42,44,3
0,71,114,0
0,32,110,0
0,66,99,17
0,68,101,0
0,36,105,0
0,42,116,0
0,59,94,0
0,54,111,0
0,44,82,83
0,68,79,0
