track,note,velocity,time
3,39,108,3335
3,51,92,0
3,61,115,0
3,66,123,0
3,70,123,0
3,61,90,55
3,39,105,0
3,66,109,85
3,70,111,0
3,51,113,10
3,39,96,55
3,72,115,10
3,68,119,0
3,63,111,5
3,63,99,615
3,39,97,5
3,51,109,110
3,70,97,5
3,73,105,0
3,39,102,0
3,72,119,5
3,68,119,5
3,63,123,0
3,75,115,235
3,48,123,0
3,72,98,120
3,44,92,0
3,68,105,60
3,39,103,0
3,72,111,75
3,68,111,0
3,63,111,0
3,44,108,0
3,44,84,100
3,72,102,10
3,63,106,5
3,68,98,0
3,39,108,45
3,51,106,0
3,66,105,5
3,70,95,0
3,61,92,10
3,66,117,130
3,61,106,0
3,70,119,5
3,39,99,5
3,51,111,0
3,45,74,5
3,61,77,40
3,39,109,30
3,61,84,5
3,70,113,0
3,66,111,0
3,68,111,50
3,72,113,0
3,63,102,0
3,51,109,5
3,39,108,585
3,63,96,5
3,51,103,105
3,70,103,5
3,73,113,0
3,39,111,60
3,63,121,5
3,72,123,0
3,68,123,0
3,41,111,165
3,53,119,5
3,44,88,120
3,56,106,0
3,46,84,70
3,58,94,5
3,49,115,65
3,61,103,5
3,61,123,125
3,49,117,0
3,46,101,10
3,58,113,0
3,39,108,240
3,51,92,0
3,61,115,5
3,66,123,0
3,70,123,0
3,61,90,55
3,39,105,0
3,66,109,85
3,70,111,0
3,51,113,10
3,39,96,55
3,72,115,10
3,68,119,0
3,63,111,5
3,63,99,615
3,39,97,5
3,51,109,110
3,70,97,5
3,73,105,0
3,39,102,0
3,72,119,5
3,68,119,5
3,63,123,0
3,75,115,235
3,48,123,0
3,72,98,120
3,44,92,0
3,68,105,60
3,39,103,0
3,72,111,75
3,68,111,0
3,63,111,0
3,44,108,0
3,44,84,100
3,72,102,10
3,63,106,5
3,68,98,0
3,39,108,45
3,51,106,0
3,66,105,5
3,70,95,0
3,61,92,10
3,66,117,130
3,61,106,0
3,70,119,5
3,39,99,5
3,51,111,0
3,45,74,5
3,61,77,40
3,39,109,30
3,61,84,5
3,70,113,0
3,66,111,0
3,68,111,50
3,72,113,0
3,63,102,0
3,51,109,5
3,39,108,585
3,63,96,5
3,51,103,105
3,70,103,5
3,73,113,0
3,39,111,60
3,63,121,5
3,72,123,0
3,68,123,0
3,41,111,165
3,53,119,5
3,44,88,120
3,56,106,0
3,46,84,70
3,58,94,5
3,49,115,65
3,61,103,5
3,61,123,125
3,49,117,0
3,46,101,10
3,58,113,0
3,63,106,215
3,61,98,0
3,58,90,5
3,66,103,0
3,39,113,25
3,34,101,5
3,37,91,120
3,39,109,90
3,34,106,345
3,34,123,50
3,37,97,120
3,58,98,5
3,61,108,5
3,66,113,0
3,63,109,0
3,39,103,15
3,42,108,75
3,66,90,95
3,63,86,5
3,61,84,0
3,58,81,0
3,39,113,5
3,34,102,5
3,37,101,120
3,39,115,90
3,34,105,310
3,34,111,60
3,58,96,120
3,61,102,0
3,63,111,0
3,66,113,0
3,37,103,0
3,39,109,40
3,42,101,75
3,65,86,45
3,61,91,0
3,56,81,0
3,58,85,0
3,46,111,15
3,41,98,15
3,44,94,110
3,46,108,95
3,41,103,295
3,41,117,45
3,44,109,120
3,58,111,5
3,65,115,5
3,56,105,0
3,61,106,0
3,46,98,0
3,49,109,75
3,65,96,15
3,58,94,0
3,61,98,0
3,56,91,0
3,46,105,0
3,41,99,30
3,44,99,120
3,46,106,85
3,41,105,340
3,41,113,45
3,56,92,120
3,65,102,0
3,58,95,0
3,44,99,0
3,61,101,5
3,46,102,35
3,49,109,65
3,63,89,105
3,61,85,0
3,58,81,0
3,66,84,0
3,39,109,0
3,34,80,190
3,37,89,120
3,39,102,85
3,34,105,470
3,34,111,50
3,58,97,115
3,61,105,0
3,66,106,0
3,63,103,0
3,37,102,5
3,39,103,95
3,42,99,85
3,61,95,5
3,63,97,0
3,58,91,0
3,66,97,0
3,39,111,5
3,34,94,25
3,37,95,120
3,39,106,90
3,34,105,400
3,34,113,60
3,66,102,115
3,58,95,0
3,61,103,0
3,63,109,0
3,37,108,0
3,39,109,30
3,42,98,80
3,58,82,100
3,65,82,0
3,61,91,0
3,56,86,0
3,46,106,15
3,41,102,0
3,44,90,110
3,46,106,110
3,41,99,365
3,41,117,50
3,58,101,115
3,56,98,0
3,44,97,0
3,65,108,5
3,61,106,0
3,46,91,100
3,49,91,65
3,65,96,110
3,61,96,0
3,58,92,0
3,56,90,0
3,46,106,0
3,41,95,5
3,44,92,115
3,46,105,85
3,41,111,475
3,41,101,40
3,58,99,120
3,56,97,0
3,61,102,0
3,65,108,0
3,44,95,0
3,46,101,5
3,49,111,70
3,66,96,30
3,59,100,0
3,63,108,0
3,59,90,30
3,66,96,0
3,63,113,5
3,59,108,970
3,66,105,5
3,63,113,0
3,62,95,260
3,59,93,0
3,66,99,0
3,66,97,50
3,59,92,0
3,62,100,0
3,62,102,1005
3,59,104,0
3,66,106,0
3,58,85,275
3,61,97,5
3,66,97,0
3,66,89,50
3,61,99,5
3,58,92,0
3,66,105,960
3,61,105,0
3,58,95,0
3,58,91,255
3,61,102,0
3,66,101,0
3,66,99,55
3,58,98,0
3,61,108,0
3,58,102,965
3,61,113,5
3,66,106,0
3,66,91,295
3,56,87,5
3,59,93,0
3,63,96,0
3,66,91,40
3,59,96,5
3,63,96,0
3,56,91,5
3,59,95,930
3,66,98,0
3,56,90,0
3,63,94,0
3,59,96,275
3,66,97,0
3,56,91,0
3,63,101,0
3,66,87,65
3,56,88,0
3,59,90,5
3,63,101,0
3,59,108,970
3,66,105,5
3,56,99,0
3,63,105,0
3,70,99,275
3,65,103,5
3,63,97,0
3,70,106,155
3,63,103,0
3,65,108,0
3,70,108,175
3,65,113,0
3,63,108,0
3,62,104,130
3,70,108,0
3,65,117,5
3,62,88,115
3,70,98,0
3,65,106,0
3,70,90,120
3,62,86,0
3,65,105,0
3,61,105,125
3,58,95,0
3,66,108,0
3,61,103,120
3,58,95,0
3,65,96,5
3,66,96,220
3,59,92,0
3,63,108,5
3,62,89,225
3,66,99,0
3,59,93,0
3,61,106,265
3,66,103,5
3,58,96,0
3,61,105,190
3,58,91,5
3,65,96,0
3,66,105,285
3,63,103,0
3,59,93,5
3,62,95,230
3,66,101,0
3,59,93,0
3,63,106,120
3,61,98,0
3,58,90,5
3,66,103,0
3,39,113,25
3,34,101,5
3,37,91,120
3,39,109,90
3,34,106,345
3,34,123,50
3,37,97,120
3,58,98,5
3,61,108,5
3,66,113,0
3,63,109,0
3,39,103,15
3,42,108,75
3,66,90,95
3,63,86,5
3,61,84,0
3,58,81,0
3,39,113,5
3,34,102,5
3,37,101,120
3,39,115,90
3,34,105,310
3,34,111,60
3,58,96,120
3,61,102,0
3,63,111,0
3,66,113,0
3,37,103,0
3,39,109,40
3,42,101,75
3,65,86,45
3,61,91,0
3,56,81,0
3,58,85,0
3,46,111,15
3,41,98,15
3,44,94,110
3,46,108,95
3,41,103,295
3,41,117,45
3,44,109,120
3,58,111,5
3,65,115,5
3,56,105,0
3,61,106,0
3,46,98,0
3,49,109,75
3,65,96,15
3,58,94,0
3,61,98,0
3,56,91,0
3,46,105,0
3,41,99,30
3,44,99,120
3,46,106,85
3,41,105,340
3,41,113,45
3,56,92,120
3,65,102,0
3,58,95,0
3,44,99,0
3,61,101,5
3,46,102,35
3,49,109,65
3,63,89,105
3,61,85,0
3,58,81,0
3,66,84,0
3,39,109,0
3,34,80,190
3,37,89,120
3,39,102,85
3,34,105,470
3,34,111,50
3,58,97,115
3,61,105,0
3,66,106,0
3,63,103,0
3,37,102,5
3,39,103,95
3,42,99,85
3,61,95,5
3,63,97,0
3,58,91,0
3,66,97,0
3,39,111,5
3,34,94,25
3,37,95,120
3,39,106,90
3,34,105,400
3,34,113,60
3,66,102,115
3,58,95,0
3,61,103,0
3,63,109,0
3,37,108,0
3,39,109,30
3,42,98,80
3,58,82,100
3,65,82,0
3,61,91,0
3,56,86,0
3,46,106,15
3,41,102,0
3,44,90,110
3,46,106,110
3,41,99,365
3,41,117,50
3,58,101,115
3,56,98,0
3,44,97,0
3,65,108,5
3,61,106,0
3,46,91,100
3,49,91,65
3,65,96,110
3,61,96,0
3,58,92,0
3,56,90,0
3,46,106,0
3,41,95,5
3,44,92,115
3,46,105,85
3,41,111,475
3,41,101,40
3,58,99,120
3,56,97,0
3,61,102,0
3,65,108,0
3,44,95,0
3,46,101,5
3,49,111,70
3,66,96,30
3,59,100,0
3,63,108,0
3,59,90,30
3,66,96,0
3,63,113,5
3,59,108,970
3,66,105,5
3,63,113,0
3,62,95,260
3,59,93,0
3,66,99,0
3,66,97,50
3,59,92,0
3,62,100,0
3,62,102,1005
3,59,104,0
3,66,106,0
3,58,85,275
3,61,97,5
3,66,97,0
3,66,89,50
3,61,99,5
3,58,92,0
3,66,105,960
3,61,105,0
3,58,95,0
3,58,91,255
3,61,102,0
3,66,101,0
3,66,99,55
3,58,98,0
3,61,108,0
3,58,102,965
3,61,113,5
3,66,106,0
3,66,91,295
3,56,87,5
3,59,93,0
3,63,96,0
3,66,91,40
3,59,96,5
3,63,96,0
3,56,91,5
3,59,95,930
3,66,98,0
3,56,90,0
3,63,94,0
3,59,96,275
3,66,97,0
3,56,91,0
3,63,101,0
3,66,87,65
3,56,88,0
3,59,90,5
3,63,101,0
3,59,108,970
3,66,105,5
3,56,99,0
3,63,105,0
3,70,99,275
3,65,103,5
3,63,97,0
3,70,106,155
3,63,103,0
3,65,108,0
3,70,108,175
3,65,113,0
3,63,108,0
3,62,104,130
3,70,108,0
3,65,117,5
3,62,88,115
3,70,98,0
3,65,106,0
3,70,90,120
3,62,86,0
3,65,105,0
3,61,105,125
3,58,95,0
3,66,108,0
3,61,103,120
3,58,95,0
3,65,96,5
3,66,96,220
3,59,92,0
3,63,108,5
3,62,89,225
3,66,99,0
3,59,93,0
3,61,106,265
3,66,103,5
3,58,96,0
3,61,105,190
3,58,91,5
3,65,96,0
3,66,105,285
3,63,103,0
3,59,93,5
3,62,95,230
3,66,101,0
3,59,93,0
3,39,108,145
3,51,92,0
3,61,115,5
3,66,123,0
3,70,123,0
3,61,90,55
3,39,105,0
3,66,109,85
3,70,111,0
3,51,113,10
3,39,96,55
3,72,115,10
3,68,119,0
3,63,111,5
3,63,99,615
3,39,97,5
3,51,109,110
3,70,97,5
3,73,105,0
3,39,102,0
3,72,119,5
3,68,119,5
3,63,123,0
3,75,115,235
3,48,123,0
3,72,98,120
3,44,92,0
3,68,105,60
3,39,103,0
3,72,111,75
3,68,111,0
3,63,111,0
3,44,108,0
3,44,84,100
3,72,102,10
3,63,106,5
3,68,98,0
3,39,108,45
3,51,106,0
3,66,105,5
3,70,95,0
3,61,92,10
3,66,117,130
3,61,106,0
3,70,119,5
3,39,99,5
3,51,111,0
3,45,74,5
3,61,77,40
3,39,109,30
3,61,84,5
3,70,113,0
3,66,111,0
3,68,111,50
3,72,113,0
3,63,102,0
3,51,109,5
3,39,108,585
3,63,96,5
3,51,103,105
3,70,103,5
3,73,113,0
3,39,111,60
3,63,121,5
3,72,123,0
3,68,123,0
3,41,111,165
3,53,119,5
3,44,88,120
3,56,106,0
3,46,84,70
3,58,94,5
3,49,115,65
3,61,103,5
3,61,123,125
3,49,117,0
3,46,101,10
3,58,113,0
3,39,108,0
3,51,92,0
3,75,99,970
3,87,108,5
3,82,94,225
3,70,86,5
3,78,92,220
3,66,83,5
3,75,89,200
3,63,86,10
3,78,103,20
3,66,91,0
3,75,101,920
3,87,111,0
3,78,96,5
3,66,75,0
3,77,97,75
3,65,94,0
3,75,99,75
3,63,97,0
3,70,102,80
3,66,83,230
3,61,79,250
3,70,97,200
3,78,105,240
3,73,99,240
3,82,105,230
3,80,91,30
3,78,109,30
3,72,106,65
3,68,94,225
3,63,82,240
3,72,96,240
3,80,115,235
3,75,106,245
3,84,97,230
3,82,88,105
3,80,109,105
3,72,111,5
3,68,84,225
3,65,84,10
3,72,98,245
3,80,113,230
3,77,101,240
3,84,97,225
3,82,91,115
3,80,108,50
3,72,99,110
3,68,95,250
3,65,88,0
3,72,99,230
3,80,106,220
3,77,98,240
3,84,96,230
3,82,86,105
3,80,101,90
3,78,89,250
3,61,79,220
3,70,84,5
3,66,79,220
3,82,91,160
3,77,84,255
3,73,79,245
3,70,91,210
3,70,91,10
3,65,85,145
3,61,81,235
3,65,81,185
3,82,90,225
3,77,83,240
3,73,76,225
3,77,91,75
3,78,117,50
3,73,98,470
3,70,99,20
3,78,109,215
3,73,94,435
3,70,92,225
3,78,98,210
3,73,94,415
3,70,91,225
3,78,102,215
3,73,91,465
3,70,91,220
3,61,101,35
3,65,84,225
3,68,91,230
3,65,83,215
3,68,97,210
3,77,123,490
3,75,95,50
3,73,101,85
3,65,97,10
3,73,106,220
3,68,101,160
3,65,102,30
3,73,113,40
3,65,97,10
3,73,103,50
3,65,111,5
3,75,111,235
3,66,103,0
3,77,108,10
3,68,103,5
3,42,105,15
3,54,95,15
3,73,102,15
3,78,109,0
3,70,73,230
3,73,95,165
3,78,97,0
3,70,65,240
3,73,97,180
3,78,98,0
3,70,65,235
3,73,98,185
3,78,102,5
3,70,57,205
3,42,102,145
3,54,106,10
3,73,97,0
3,78,101,5
3,70,61,210
3,73,95,190
3,78,97,5
3,70,69,235
3,73,101,175
3,78,103,5
3,70,79,225
3,75,101,0
3,80,102,10
3,72,87,255
3,58,87,35
3,75,103,10
3,78,102,0
3,82,91,0
3,58,91,30
3,75,96,5
3,78,98,0
3,82,106,10
3,75,91,45
3,78,105,0
3,82,98,5
3,58,91,0
3,58,89,35
3,78,113,5
3,75,103,5
3,82,115,0
3,75,106,40
3,78,111,0
3,58,86,0
3,82,108,0
3,58,84,55
3,75,102,5
3,78,106,0
3,82,102,0
3,73,95,10
3,77,108,0
3,82,99,0
3,56,95,0
3,77,108,25
3,73,98,0
3,82,105,0
3,56,103,10
3,77,106,45
3,73,98,0
3,82,105,0
3,56,91,5
3,56,91,45
3,77,113,0
3,73,113,5
3,82,111,0
3,73,101,35
3,77,108,0
3,56,94,0
3,82,105,0
3,82,99,60
3,77,108,0
3,73,106,5
3,56,97,0
3,67,95,10
3,61,81,0
3,77,77,0
3,70,96,0
3,51,115,15
3,61,105,5
3,58,95,0
3,66,108,0
3,61,103,120
3,58,95,0
3,65,96,5
3,66,96,220
3,59,92,0
3,63,108,5
3,62,89,225
3,66,99,0
3,59,93,0
3,61,105,270
3,58,95,0
3,66,108,0
3,61,103,120
3,58,95,0
3,65,96,5
3,66,96,220
3,59,92,0
3,63,108,5
3,62,89,225
3,66,99,0
3,59,93,0
3,61,105,270
3,58,95,0
3,66,108,0
3,61,103,120
3,58,95,0
3,65,96,5
3,66,96,95
3,59,92,0
3,63,108,5
3,62,89,110
3,66,99,0
3,59,93,0
3,61,105,150
3,58,95,0
3,66,108,0
3,61,103,120
3,58,95,0
3,65,96,5
3,66,96,155
3,59,92,0
3,63,108,5
3,62,89,175
3,66,99,0
3,59,93,0
3,58,96,10
3,66,102,5
3,61,106,0
4,27,126,3315
4,36,120,25
4,32,111,5
4,27,114,5
4,32,118,5
4,32,117,115
4,27,112,5
4,27,123,5
4,29,125,5
4,32,108,5
4,34,110,5
4,37,121,5
4,37,118,110
4,34,112,5
4,27,117,5
4,36,119,10
4,32,112,5
4,27,113,5
4,32,117,5
4,32,117,105
4,27,110,5
4,27,117,15
4,29,122,5
4,32,109,5
4,34,108,5
4,37,117,5
4,37,116,110
4,34,117,5
4,39,117,10
4,34,114,0
4,37,113,5
4,39,110,5
4,42,114,920
4,39,112,5
4,34,114,10
4,37,110,5
4,39,112,5
4,42,109,900
4,46,115,5
4,41,109,5
4,44,110,5
4,46,110,5
4,49,113,900
4,46,112,5
4,41,116,15
4,44,110,5
4,46,112,5
4,49,114,915
4,39,107,5
4,34,104,20
4,37,110,5
4,39,107,5
4,42,111,885
4,39,112,5
