track,note,velocity,time
0,73,93,551
0,75,62,1
0,73,101,0
0,73,0,14
0,73,0,2
0,75,83,4
0,73,61,3
0,75,90,0
0,75,0,2
0,54,62,6
0,66,63,3
0,70,66,0
0,75,0,2
0,58,63,1
0,73,71,1
0,61,67,4
0,77,79,0
0,51,83,1
0,51,0,1
0,77,99,0
0,75,0,1
0,65,72,0
0,32,116,1
0,54,63,0
0,58,77,0
0,35,95,0
0,35,0,1
0,61,77,2
0,66,72,3
0,77,0,7
0,77,0,12
0,73,79,20
0,42,58,0
0,73,96,0
0,42,0,1
0,77,60,1
0,66,55,1
0,70,60,1
0,75,59,0
0,73,0,1
0,75,0,17
0,75,64,3
0,70,0,1
0,70,57,1
0,73,0,2
0,73,0,0
0,66,0,0
0,61,0,2
0,66,70,0
0,61,70,1
0,66,0,14
0,73,93,0
0,42,64,1
0,42,0,1
0,66,56,1
0,73,82,0
0,54,0,1
0,37,94,0
0,37,0,1
0,75,0,0
0,54,56,0
0,75,65,1
0,66,0,1
0,66,79,1
0,75,0,19
0,70,0,0
0,70,63,1
0,75,63,0
0,66,0,2
0,66,77,1
0,58,0,3
0,54,0,3
0,61,0,0
0,65,0,2
0,32,0,5
0,65,62,5
0,42,67,1
0,42,0,1
0,54,61,0
0,61,69,0
0,77,0,1
0,58,72,0
0,32,118,0
0,73,63,0
0,70,0,6
0,75,0,0
0,66,0,1
0,32,0,32
0,58,0,3
0,54,0,1
0,61,0,1
0,61,0,1
0,54,55,0
0,58,0,1
0,66,64,0
0,70,63,0
0,42,66,0
0,42,0,1
0,66,0,0
0,65,0,0
0,32,113,0
0,58,74,0
0,35,91,0
0,35,0,1
0,54,0,0
0,65,60,0
0,61,80,0
0,75,61,0
0,54,63,1
0,58,72,1
0,61,67,0
0,66,80,0
0,66,0,16
0,75,0,2
0,70,0,0
0,66,40,4
0,70,40,0
0,66,0,1
0,61,0,1
0,66,79,0
0,61,74,1
0,70,0,3
0,66,0,0
0,73,0,17
0,42,58,1
0,42,0,1
0,77,51,0
0,75,72,13
0,75,60,9
0,66,0,2
0,70,60,0
0,66,60,1
0,73,70,0
0,66,60,0
0,68,60,13
0,70,0,5
0,54,0,2
0,58,0,1
0,54,61,0
0,37,92,0
0,37,0,1
0,61,0,0
0,66,0,0
0,58,81,0
0,66,0,1
0,42,55,0
0,42,0,1
0,75,0,0
0,61,86,0
0,66,81,0
0,73,0,3
0,73,0,6
0,66,0,12
0,66,82,1
0,61,0,1
0,75,70,0
0,61,77,1
0,70,45,0
0,66,30,0
0,73,0,10
0,73,83,8
0,73,94,1
0,75,0,1
0,73,101,0
0,70,0,1
0,42,58,0
0,42,0,1
0,70,67,0
0,75,70,0
0,73,0,17
0,73,0,1
0,75,78,3
0,66,0,1
0,75,80,0
0,70,0,1
0,66,79,0
0,61,0,1
0,66,0,1
0,58,0,1
0,75,0,0
0,61,75,0
0,58,69,1
0,66,50,1
0,70,70,0
0,75,70,0
0,77,0,4
0,75,0,5
0,32,0,1
0,54,0,3
0,77,92,3
0,58,0,1
0,54,59,0
0,77,73,1
0,42,56,0
0,42,0,1
0,32,112,0
0,58,81,0
0,61,0,1
0,35,98,0
0,35,0,1
0,61,85,0
0,66,0,1
0,75,0,0
0,75,0,0
0,66,81,1
0,75,0,3
0,66,0,0
0,70,0,0
0,77,0,13
0,77,0,10
0,66,60,17
0,73,88,0
0,42,60,0
0,73,102,0
0,42,0,1
0,70,63,0
0,75,73,1
0,75,57,0
0,73,0,1
0,75,0,22
0,70,0,1
0,75,60,0
0,70,54,1
0,58,0,18
0,66,0,1
0,70,0,1
0,58,67,0
0,66,0,1
0,70,63,0
0,42,48,0
0,42,0,1
0,75,0,0
0,66,71,1
0,75,70,0
0,66,60,2
0,37,94,0
0,37,0,1
0,73,0,3
0,70,0,14
0,75,0,4
0,66,0,0
0,66,86,1
0,70,63,0
0,75,63,0
0,61,0,1
0,58,0,1
0,61,81,0
0,58,73,1
0,73,0,1
0,32,0,6
0,32,115,11
0,73,82,0
0,42,53,0
0,42,0,1
0,75,0,0
0,35,100,0
0,73,101,0
0,35,0,1
0,73,71,1
0,70,0,6
0,75,0,0
0,66,0,5
0,66,40,12
0,70,40,0
0,70,0,6
0,66,0,0
0,32,0,8
0,54,0,8
0,32,114,0
0,35,107,0
0,42,55,0
0,42,0,1
0,35,0,0
0,58,0,0
0,54,57,0
0,66,58,0
0,70,59,1
0,61,0,1
0,75,59,0
0,66,0,1
0,58,75,0
0,61,81,0
0,66,77,1
0,73,0,22
0,66,0,1
0,66,83,1
0,61,0,1
0,61,77,1
0,73,0,6
0,66,0,0
0,75,0,0
0,70,0,1
0,75,82,10
0,42,62,0
0,42,0,1
0,73,0,1
0,75,73,0
0,66,40,0
0,70,40,0
0,75,90,0
0,70,0,6
0,66,0,0
0,75,68,18
0,70,64,1
0,66,54,1
0,54,0,15
0,58,0,4
0,61,0,0
0,54,55,0
0,58,72,1
0,42,61,0
0,42,0,1
0,37,97,0
0,37,0,1
0,75,0,0
0,66,0,0
0,61,77,1
0,66,73,1
0,70,0,3
0,66,0,2
0,75,0,6
0,66,0,9
0,75,51,0
0,66,79,1
0,70,41,1
0,75,0,3
0,32,0,9
0,61,0,1
0,58,0,0
0,75,0,1
0,54,0,3
0,65,0,0
0,70,0,3
0,68,0,0
0,75,0,1
0,27,115,0
0,66,64,0
0,70,64,0
0,42,61,0
0,68,83,0
0,42,0,1
0,75,66,0
0,68,70,0
0,35,78,1
0,35,0,1
0,68,72,2
0,66,0,18
0,27,0,1
0,75,0,0
0,29,108,0
0,66,78,0
0,61,0,1
0,75,60,0
0,61,76,1
0,58,0,2
0,54,0,1
0,58,69,0
0,54,49,1
0,73,0,3
0,66,0,4
0,54,64,2
0,58,69,3
0,70,0,1
0,73,71,1
0,54,0,1
0,66,63,0
0,54,63,2
0,58,0,1
0,61,66,0
0,42,63,0
0,42,0,1
0,70,0,0
0,29,0,0
0,32,118,0
0,58,82,0
0,70,66,0
0,61,0,1
0,35,101,0
0,35,0,1
0,65,63,0
0,61,85,0
0,66,0,1
0,66,0,0
0,66,77,1
0,75,0,1
0,68,0,5
0,68,0,7
0,73,95,29
0,66,60,1
0,70,60,0
0,73,105,0
0,73,73,1
0,75,61,0
0,42,52,0
0,42,0,1
0,73,0,14
0,73,0,2
0,66,0,4
0,75,0,2
0,66,79,0
0,75,55,0
0,75,88,0
0,61,0,1
0,75,66,0
0,75,56,0
0,61,77,1
0,58,0,2
0,73,0,1
0,58,71,0
0,75,0,8
0,68,0,4
0,54,0,3
0,54,54,2
0,58,0,1
0,66,0,0
0,77,94,0
0,70,0,1
0,75,0,0
0,61,0,0
0,58,76,0
0,66,60,0
0,61,80,1
0,70,71,0
0,75,69,0
0,77,79,0
0,42,60,0
0,42,0,1
0,66,0,0
0,66,76,1
0,75,0,1
0,37,89,0
0,37,0,1
0,77,0,10
0,70,0,6
0,66,0,3
0,75,0,0
0,77,0,0
0,66,79,1
0,70,62,0
0,75,62,0
0,61,0,1
0,61,77,1
0,58,0,1
0,58,70,1
0,32,0,8
0,77,60,11
0,73,82,0
0,73,97,0
0,66,0,1
0,32,111,0
0,42,61,0
0,42,0,1
0,75,0,1
0,75,0,5
0,70,0,0
0,61,0,13
0,58,0,1
0,73,0,3
0,54,0,1
0,66,40,1
0,70,40,0
0,73,0,2
0,65,0,3
0,70,0,1
0,66,0,0
0,32,0,9
0,65,59,4
0,58,0,1
0,54,0,0
0,54,60,1
0,61,0,1
0,61,72,0
0,54,64,0
0,58,72,0
0,58,77,0
0,66,59,0
0,70,59,0
0,42,61,0
0,73,97,0
0,42,0,1
0,66,0,0
0,77,0,0
0,32,114,0
0,61,84,0
0,75,59,0
0,73,90,0
0,35,100,0
0,35,0,1
0,66,79,0
0,73,55,1
0,66,0,21
0,66,0,2
0,70,0,0
0,61,0,1
0,66,77,0
0,61,77,1
0,75,0,1
0,66,21,18
0,70,36,1
0,42,58,0
0,42,0,1
0,75,35,0
0,77,74,2
0,73,0,9
0,75,66,2
0,70,0,8
0,75,0,1
0,75,73,1
0,70,65,1
0,66,0,1
0,66,52,1
0,73,74,1
0,58,0,10
0,65,0,4
0,61,0,0
0,54,0,2
0,68,63,1
0,54,0,1
0,58,0,1
0,32,0,0
0,54,54,0
0,61,0,1
0,65,58,0
0,58,72,0
0,37,78,0
0,37,0,1
0,70,0,0
0,75,0,0
0,39,115,0
0,61,77,0
0,42,67,0
0,42,0,1
0,66,0,0
0,54,58,0
0,61,68,0
0,58,71,0
0,66,73,1
0,66,0,1
0,75,45,19
0,66,0,1
0,70,39,0
0,66,82,1
0,61,0,2
0,58,0,1
0,61,79,0
0,58,73,1
0,39,0,5
0,70,0,12
0,75,0,1
0,66,62,0
0,70,62,1
0,75,61,0
0,35,84,1
0,42,55,0
0,42,0,1
0,35,0,0
0,73,0,1
0,73,0,17
0,70,0,2
0,75,0,0
0,66,0,1
0,66,85,1
0,70,59,1
0,75,59,0
0,61,0,1
0,58,0,1
0,39,112,0
0,61,79,0
0,58,73,2
0,75,0,15
0,77,0,2
0,54,0,0
0,58,0,1
0,54,63,0
0,39,0,1
0,73,0,0
0,35,101,0
0,35,0,1
0,66,0,0
0,32,111,0
0,58,80,0
0,42,62,0
0,42,0,1
0,61,0,0
0,66,0,1
0,61,84,0
0,70,0,1
0,75,0,0
0,66,80,0
0,32,0,35
0,68,0,4
0,73,91,3
0,32,109,2
0,66,63,0
0,70,63,0
0,42,50,0
0,73,96,0
0,42,0,1
0,35,107,0
0,35,0,1
0,77,77,0
0,75,63,0
0,73,0,14
0,73,0,3
0,66,0,4
0,75,73,0
0,75,0,1
0,66,65,0
0,75,94,0
0,75,53,1
0,61,0,1
0,61,63,1
0,73,55,1
0,77,0,6
0,75,0,4
0,75,0,3
0,54,0,2
0,58,0,2
0,54,57,0
0,70,0,2
0,66,0,0
0,58,75,0
0,77,79,0
0,66,68,1
0,70,73,0
0,42,55,0
0,77,91,0
0,42,0,1
0,75,0,0
0,66,0,0
0,37,82,0
0,37,0,1
0,66,74,0
0,75,65,0
0,77,0,19
0,66,0,3
0,75,0,1
0,66,86,0
0,75,71,1
0,61,0,1
0,58,0,1
0,61,82,0
0,58,77,1
0,77,0,3
0,73,85,14
0,73,100,1
0,42,50,1
0,42,0,1
0,70,0,0
0,66,0,3
0,75,0,4
0,58,0,13
0,61,0,7
0,54,0,2
0,65,0,2
0,32,0,6
0,58,0,8
0,54,0,0
0,54,56,1
0,42,63,0
0,42,0,1
0,61,0,0
0,32,113,0
0,58,76,0
0,66,63,0
0,61,72,1
0,54,60,0
0,58,72,0
0,61,80,0
0,70,63,0
0,35,100,0
0,35,0,1
0,75,63,0
0,73,0,6
0,73,0,11
0,66,0,5
0,70,0,1
0,66,0,1
0,66,40,0
0,70,40,0
0,66,88,1
0,61,0,1
0,75,0,1
0,58,0,0
0,61,83,0
0,58,79,1
0,70,0,2
0,66,0,0
0,73,88,15
0,42,57,1
0,42,0,1
0,73,96,0
0,75,62,24
0,70,64,1
0,66,64,2
0,58,0,5
0,61,0,1
0,54,0,1
0,58,0,10
0,54,0,1
0,66,0,1
0,61,0,0
0,54,67,0
0,54,63,0
0,58,79,1
0,61,81,0
0,42,50,0
0,42,0,1
0,70,0,0
0,58,71,0
0,37,94,0
0,37,0,1
0,66,0,0
0,61,66,0
0,75,0,1
0,73,0,0
0,66,79,0
0,73,0,12
0,75,39,9
0,66,0,1
0,70,36,0
0,66,87,1
0,66,23,0
0,61,0,1
0,58,0,1
0,61,83,0
0,58,73,1
0,32,0,9
0,66,0,8
0,70,0,1
0,75,82,0
0,75,90,0
0,75,0,1
0,66,66,0
0,70,66,0
0,42,58,0
0,42,0,1
0,32,113,0
0,75,66,0
0,35,94,0
0,35,0,1
0,73,0,13
0,75,0,3
0,75,0,5
0,75,0,2
0,32,0,0
0,66,0,0
0,33,110,0
0,66,58,1
0,75,57,0
0,61,0,1
0,61,59,1
0,61,0,7
0,58,0,2
0,66,0,5
0,70,0,0
0,54,0,1
0,70,0,0
0,73,0,0
0,61,0,0
0,72,70,0
0,75,0,1
0,54,0,2
0,56,67,0
0,60,69,1
0,68,65,0
0,65,52,0
0,77,88,0
0,58,0,1
0,77,75,0
0,77,84,0
0,42,60,0
0,42,0,1
0,66,0,0
0,33,0,0
0,65,71,0
0,34,114,0
0,35,98,0
0,35,0,1
0,60,53,0
0,56,51,2
0,68,67,1
0,63,79,1
0,68,79,1
0,66,0,2
0,77,0,11
0,77,0,2
0,78,78,1
0,78,88,0
0,78,0,23
0,77,77,0
0,68,61,1
0,77,83,0
0,78,0,1
0,72,61,0
0,77,61,0
0,42,59,1
0,42,0,1
0,77,0,21
0,68,0,1
0,77,66,1
0,63,0,1
0,68,60,0
0,60,0,2
0,63,65,0
0,60,60,1
0,72,0,15
0,56,0,2
0,60,0,1
0,68,0,0
0,56,60,0
0,63,0,1
0,60,78,0
0,68,66,0
0,42,56,0
0,37,95,0
0,37,0,1
0,42,0,0
0,77,0,0
0,63,88,0
0,72,66,0
0,80,86,0
0,68,0,1
0,77,66,0
0,68,86,1
0,82,79,21
0,77,0,1
0,72,0,0
0,72,64,1
0,77,64,0
0,68,0,1
0,63,0,1
0,68,77,0
0,63,75,1
0,80,0,7
0,80,80,11
0,68,0,1
0,42,47,0
0,42,0,1
0,82,0,3
0,72,0,1
0,77,0,0
0,34,0,33
0,84,83,7
0,60,0,2
0,56,0,0
0,68,67,0
0,42,66,0
0,42,0,1
0,34,115,0
0,56,60,0
0,60,76,0
0,72,68,0
0,35,97,0
0,35,0,1
0,63,0,0
0,77,68,0
0,63,82,1
0,68,0,1
0,68,80,1
0,85,75,17
0,84,0,3
0,72,0,1
0,68,0,0
0,68,40,1
0,72,40,0
0,68,0,1
0,63,0,1
0,68,82,0
0,77,0,1
0,63,77,0
0,68,0,3
0,72,0,0
0,77,0,6
0,84,76,5
0,85,0,4
0,65,68,0
0,42,66,1
0,42,0,1
0,77,71,23
0,72,65,0
0,68,55,1
0,87,89,20
0,68,0,1
0,56,0,1
0,60,0,0
0,72,0,1
0,63,0,0
0,56,66,0
0,60,82,0
0,42,65,0
0,42,0,1
0,37,97,0
0,37,0,1
0,63,86,0
0,70,73,0
0,77,0,1
0,68,0,0
0,68,81,1
0,89,83,17
0,77,65,3
0,72,58,0
0,68,46,1
0,68,0,1
0,87,0,0
0,68,82,1
0,63,0,1
0,60,0,1
0,63,79,0
0,60,69,1
0,87,78,14
0,72,0,2
0,89,0,1
0,65,0,0
0,77,0,0
0,34,0,1
0,29,109,0
0,72,68,0
0,77,68,0
0,35,95,0
0,42,67,0
0,42,0,1
0,35,0,0
0,75,64,2
0,68,0,14
0,72,0,4
0,68,0,1
0,77,0,0
0,60,0,1
0,56,0,2
0,68,79,0
0,63,0,1
0,65,0,0
0,68,0,1
0,63,72,1
0,56,0,15
0,60,0,3
0,29,0,1
0,65,65,0
0,60,65,0
0,56,66,0
0,68,68,0
0,68,62,1
0,60,83,0
0,72,68,0
0,35,105,0
0,51,81,0
0,51,0,1
0,35,0,0
0,63,0,0
0,56,61,0
0,34,112,0
0,77,68,0
0,63,85,1
0,68,0,1
0,68,81,1
0,59,43,39
0,59,0,1
0,59,42,8
0,59,0,1
0,59,48,7
0,59,0,1
0,59,48,9
0,59,0,1
0,59,47,7
0,59,0,1
0,68,0,7
0,59,47,1
0,59,0,1
0,65,0,4
0,56,0,2
0,60,0,0
0,59,44,2
0,59,0,1
0,56,0,0
0,68,0,1
0,34,0,2
0,59,42,5
0,59,0,1
0,87,0,1
0,77,0,1
0,80,0,0
0,84,0,2
0,63,0,4
0,59,43,0
0,59,0,1
0,60,0,1
0,65,0,0
0,70,0,1
0,72,0,2
0,68,0,5
0,59,37,0
0,59,0,1
0,77,0,3
0,75,0,1
0,59,38,5
0,59,0,1
0,70,76,5
0,61,68,3
0,66,71,0
