track,note,velocity,time
1,65,85,47
1,68,83,0
1,72,100,0
1,68,0,12
1,65,0,0
1,72,0,2
1,62,96,34
1,67,105,0
1,70,96,0
1,67,0,12
1,62,0,1
1,70,0,1
1,60,80,35
1,65,93,0
1,68,89,0
1,60,0,223
1,68,0,2
1,65,0,0
1,68,90,63
1,65,96,0
1,60,85,0
1,65,0,15
1,68,0,0
1,60,0,1
1,63,58,32
1,58,80,0
1,67,86,0
1,67,0,13
1,58,0,1
1,63,0,1
1,56,71,33
1,65,92,0
1,60,89,0
1,60,0,191
1,56,0,6
1,65,0,1
1,68,68,40
1,65,85,0
1,62,96,0
1,65,0,546
1,68,0,3
1,62,0,2
1,68,94,265
1,72,100,0
1,65,91,1
1,65,0,12
1,72,0,1
1,68,0,0
1,62,85,34
1,70,90,0
1,67,96,0
1,67,0,12
1,70,0,1
1,62,0,1
1,65,92,36
1,60,82,0
1,68,82,0
1,68,0,227
1,65,0,0
1,60,0,9
1,65,93,50
1,68,87,0
1,60,85,0
1,68,0,13
1,60,0,3
1,65,0,0
1,63,73,32
1,58,72,0
1,67,90,0
1,58,0,11
1,63,0,2
1,67,0,3
1,56,66,32
1,65,85,0
1,60,91,0
1,60,0,207
1,65,0,2
1,56,0,4
1,68,76,77
1,72,89,0
1,65,78,0
1,65,0,15
1,72,0,0
1,68,0,0
1,62,89,33
1,70,90,0
1,67,97,0
1,62,0,12
1,67,0,1
1,70,0,0
1,68,75,34
1,60,78,0
1,65,91,0
1,68,0,237
1,65,0,4
1,60,0,5
1,65,103,41
1,60,88,0
1,68,98,0
1,65,0,15
1,68,0,2
1,60,0,1
1,63,92,30
1,58,77,0
1,67,81,0
1,67,0,14
1,58,0,1
1,63,0,0
1,56,65,33
1,65,83,0
1,60,91,0
1,60,0,199
1,65,0,7
1,56,0,3
1,68,84,79
1,65,85,0
1,72,97,0
1,72,0,15
1,65,0,1
1,68,0,0
1,62,90,32
1,70,102,1
1,67,100,1
1,67,0,11
1,70,0,0
1,62,0,0
1,60,80,37
1,68,83,0
1,65,85,0
1,65,0,195
1,68,0,0
1,60,0,6
1,65,93,85
1,60,89,0
1,68,89,0
1,65,0,14
1,68,0,1
1,60,0,1
1,63,78,32
1,58,75,0
1,67,89,0
1,58,0,13
1,67,0,1
1,63,0,0
1,56,64,36
1,65,85,0
1,60,88,0
1,60,0,172
1,56,0,10
1,65,0,2
1,70,87,53
1,62,83,0
1,65,85,0
1,65,0,728
1,70,0,0
1,62,0,5
1,70,72,38
1,65,80,0
1,62,71,1
1,65,0,721
1,70,0,3
1,62,0,4
1,68,79,84
1,65,85,0
1,60,78,1
1,68,0,38
1,60,0,2
1,65,0,1
1,56,66,54
1,60,88,0
1,65,86,2
1,56,0,180
1,60,0,15
1,65,0,1
1,60,78,93
1,68,77,0
1,65,83,1
1,65,0,11
1,68,0,0
1,60,0,2
1,58,71,32
1,67,85,0
1,63,78,2
1,63,0,11
1,58,0,1
1,67,0,2
1,60,86,35
1,56,71,1
1,65,75,0
1,60,0,199
1,56,0,3
1,65,0,3
1,68,78,78
1,65,82,0
1,72,97,0
1,72,0,48
1,65,0,2
1,68,0,2
1,60,73,44
1,68,77,0
1,65,85,0
1,60,0,212
1,68,0,2
1,65,0,1
1,60,82,74
1,65,89,0
1,68,82,0
1,68,0,10
1,65,0,7
1,60,0,1
1,58,80,29
1,63,89,0
1,67,86,1
1,67,0,11
1,63,0,0
1,58,0,2
1,65,92,36
1,60,89,0
1,56,76,0
1,60,0,215
1,56,0,2
1,65,0,5
1,68,83,67
1,65,84,1
1,72,86,0
1,65,0,36
1,68,0,0
1,72,0,2
1,70,83,55
1,62,83,1
1,67,88,0
1,70,0,37
1,67,0,2
1,62,0,0
1,65,90,58
1,68,89,0
1,60,89,1
1,68,0,35
1,65,0,1
1,60,0,2
1,67,90,57
1,63,96,0
1,58,77,0
1,58,0,41
1,63,0,0
1,67,0,1
1,60,84,51
1,65,97,0
1,68,80,1
1,68,0,7
1,65,0,5
1,60,0,0
1,63,89,36
1,67,99,0
1,58,90,0
1,58,0,8
1,67,0,0
1,63,0,0
1,56,92,41
1,65,105,0
1,60,92,0
1,65,0,199
1,56,0,2
1,60,0,1
1,72,91,85
1,68,77,0
1,65,86,0
1,72,0,38
1,65,0,1
1,68,0,0
1,70,78,57
1,62,82,1
1,67,90,1
1,67,0,36
1,70,0,0
1,62,0,2
1,60,85,59
1,68,83,0
1,65,88,0
1,68,0,36
1,60,0,5
1,65,0,2
1,58,72,50
1,67,86,0
1,63,89,1
1,67,0,44
1,65,103,3
1,56,77,0
1,63,0,1
1,58,0,0
1,60,100,0
1,65,0,379
1,63,87,4
1,60,0,376
1,63,0,6
1,60,89,0
1,60,0,378
1,56,0,3
1,58,86,4
1,48,78,0
1,63,78,0
1,67,78,0
1,63,0,378
1,67,0,2
1,48,0,2
1,58,0,0
1,68,94,51
1,72,100,0
1,65,91,1
1,65,0,12
1,72,0,1
1,68,0,0
1,62,85,34
1,70,90,0
1,67,96,0
1,67,0,12
1,70,0,1
1,62,0,1
1,65,92,36
1,60,82,0
1,68,82,0
1,68,0,227
1,65,0,0
1,60,0,9
1,65,93,50
1,68,87,0
1,60,85,0
1,68,0,13
1,60,0,3
1,65,0,0
1,63,73,32
1,58,72,0
1,67,90,0
1,58,0,11
1,63,0,2
1,67,0,3
1,56,66,32
1,65,85,0
1,60,91,0
1,60,0,207
1,65,0,2
1,56,0,4
1,68,76,77
1,72,89,0
1,65,78,0
1,65,0,15
1,72,0,0
1,68,0,0
1,62,89,33
1,70,90,0
1,67,97,0
1,62,0,12
1,67,0,1
1,70,0,0
1,68,75,34
1,60,78,0
1,65,91,0
1,68,0,237
1,65,0,4
1,60,0,5
1,65,103,41
1,60,88,0
1,68,98,0
1,65,0,15
1,68,0,2
1,60,0,1
1,63,92,30
1,58,77,0
1,67,81,0
1,67,0,14
1,58,0,1
1,63,0,0
1,56,65,33
1,65,83,0
1,60,91,0
1,60,0,199
1,65,0,7
1,56,0,3
1,68,84,79
1,65,85,0
1,72,97,0
1,72,0,15
1,65,0,1
1,68,0,0
1,62,90,32
1,70,102,1
1,67,100,1
1,67,0,11
1,70,0,0
1,62,0,0
1,60,80,37
1,68,83,0
1,65,85,0
1,65,0,195
1,68,0,0
1,60,0,6
1,65,93,85
1,60,89,0
1,68,89,0
1,65,0,14
1,68,0,1
1,60,0,1
1,63,78,32
1,58,75,0
1,67,89,0
1,58,0,13
1,67,0,1
1,63,0,0
1,56,64,36
1,65,85,0
1,60,88,0
1,60,0,172
1,56,0,10
1,65,0,2
1,70,87,53
1,62,83,0
1,65,85,0
1,65,0,728
1,70,0,0
1,62,0,5
1,70,72,38
1,65,80,0
1,62,71,1
1,65,0,721
1,70,0,3
1,62,0,4
1,68,79,84
1,65,85,0
1,60,78,1
1,68,0,38
1,60,0,2
1,65,0,1
1,56,66,54
1,60,88,0
1,65,86,2
1,56,0,180
1,60,0,15
1,65,0,1
1,60,78,93
1,68,77,0
1,65,83,1
1,65,0,11
1,68,0,0
1,60,0,2
1,58,71,32
1,67,85,0
1,63,78,2
1,63,0,11
1,58,0,1
1,67,0,2
1,60,86,35
1,56,71,1
1,65,75,0
1,60,0,199
1,56,0,3
1,65,0,3
1,68,78,78
1,65,82,0
1,72,97,0
1,72,0,48
1,65,0,2
1,68,0,2
1,60,73,44
1,68,77,0
1,65,85,0
1,60,0,212
1,68,0,2
1,65,0,1
1,60,82,74
1,65,89,0
1,68,82,0
1,68,0,10
1,65,0,7
1,60,0,1
1,58,80,29
1,63,89,0
1,67,86,1
1,67,0,11
1,63,0,0
1,58,0,2
1,65,92,36
1,60,89,0
1,56,76,0
1,60,0,215
1,56,0,2
1,65,0,5
1,68,83,67
1,65,84,1
1,72,86,0
1,65,0,36
1,68,0,0
1,72,0,2
1,70,83,55
1,62,83,1
1,67,88,0
1,70,0,37
1,67,0,2
1,62,0,0
1,65,90,58
1,68,89,0
1,60,89,1
1,68,0,35
1,65,0,1
1,60,0,2
1,67,90,57
1,63,96,0
1,58,77,0
1,58,0,41
1,63,0,0
1,67,0,1
1,60,84,51
1,65,97,0
1,68,80,1
1,68,0,7
1,65,0,5
1,60,0,0
1,63,89,36
1,67,99,0
1,58,90,0
1,58,0,8
1,67,0,0
1,63,0,0
1,56,92,41
1,65,105,0
1,60,92,0
1,65,0,199
1,56,0,2
1,60,0,1
1,72,91,85
1,68,77,0
1,65,86,0
1,72,0,38
1,65,0,1
1,68,0,0
1,70,78,57
1,62,82,1
1,67,90,1
1,67,0,36
1,70,0,0
1,62,0,2
1,60,85,59
1,68,83,0
1,65,88,0
1,68,0,36
1,60,0,5
1,65,0,2
1,58,72,50
1,67,86,0
1,63,89,1
1,63,0,43
1,67,0,1
1,58,0,2
1,56,77,1
1,65,103,0
1,60,100,1
1,65,0,380
1,63,80,4
1,60,0,374
1,63,0,4
1,60,85,4
1,56,0,380
1,75,77,4
1,58,96,0
1,48,78,0
1,67,78,0
1,60,0,3
1,75,0,232
1,75,90,7
1,79,96,0
1,79,0,42
1,75,0,8
1,72,73,1
1,75,86,25
1,72,0,6
1,75,0,38
1,72,85,2
1,72,0,12
1,67,0,4
1,58,0,2
1,48,0,0
1,68,94,51
1,72,100,0
1,65,91,1
1,65,0,12
1,72,0,1
1,68,0,0
1,62,85,34
1,70,90,0
1,67,96,0
1,67,0,12
1,70,0,1
1,62,0,1
1,65,92,36
1,60,82,0
1,68,82,0
1,68,0,227
1,65,0,0
1,60,0,9
1,65,93,50
1,68,87,0
1,60,85,0
1,68,0,13
1,60,0,3
1,65,0,0
1,63,73,32
1,58,72,0
1,67,90,0
1,58,0,11
1,63,0,2
1,67,0,3
1,56,66,32
1,65,85,0
1,60,91,0
1,60,0,207
1,65,0,2
1,56,0,4
1,58,72,26
1,62,85,1
1,65,83,1
1,70,72,46
1,65,0,675
1,62,0,4
1,58,0,1
1,70,0,5
1,70,61,33
1,62,71,1
1,65,85,1
1,65,0,378
1,70,0,3
1,62,0,6
1,68,94,46
1,72,100,0
1,65,91,1
1,65,0,12
1,72,0,1
1,68,0,0
1,62,85,34
1,70,90,0
1,67,96,0
1,67,0,12
1,70,0,1
1,62,0,1
1,65,92,36
1,60,82,0
1,68,82,0
1,68,0,227
1,65,0,0
1,60,0,9
1,65,93,50
1,68,87,0
1,60,85,0
1,68,0,13
1,60,0,3
1,65,0,0
1,63,73,32
1,58,72,0
1,67,90,0
1,58,0,11
1,63,0,2
1,67,0,3
1,56,66,32
1,65,85,0
1,60,91,0
1,60,0,207
1,65,0,2
1,56,0,4
1,58,72,26
1,62,85,1
1,65,83,1
1,70,72,46
1,65,0,675
1,62,0,4
1,58,0,1
1,70,0,5
1,70,61,33
1,62,71,1
1,65,85,1
1,65,0,378
1,70,0,3
1,62,0,6
1,68,94,46
1,72,100,0
1,65,91,1
1,65,0,12
1,72,0,1
1,68,0,0
1,62,85,34
1,70,90,0
1,67,96,0
1,67,0,12
1,70,0,1
1,62,0,1
1,65,92,36
1,60,82,0
1,68,82,0
1,68,0,227
1,65,0,0
1,60,0,9
1,65,93,50
1,68,87,0
1,60,85,0
1,68,0,13
1,60,0,3
1,65,0,0
1,63,73,32
1,58,72,0
1,67,90,0
1,58,0,11
1,63,0,2
1,67,0,3
1,56,66,32
1,65,85,0
1,60,91,0
1,60,0,207
1,65,0,2
1,56,0,4
1,68,76,77
1,72,89,0
1,65,78,0
1,65,0,15
1,72,0,0
1,68,0,0
1,62,89,33
1,70,90,0
1,67,97,0
1,62,0,12
1,67,0,1
1,70,0,0
1,68,75,34
1,60,78,0
1,65,91,0
1,68,0,237
1,65,0,4
1,60,0,5
1,65,103,41
1,60,88,0
1,68,98,0
1,65,0,15
1,68,0,2
1,60,0,1
1,63,92,30
1,58,77,0
1,67,81,0
1,67,0,14
1,58,0,1
1,63,0,0
1,56,65,33
1,65,83,0
1,60,91,0
1,60,0,199
1,65,0,7
1,56,0,3
1,68,84,79
1,65,85,0
1,72,97,0
1,72,0,15
1,65,0,1
1,68,0,0
1,62,90,32
1,70,102,1
1,67,100,1
1,67,0,11
1,70,0,0
1,62,0,0
1,60,80,37
1,68,83,0
1,65,85,0
1,65,0,195
1,68,0,0
1,60,0,6
1,65,93,85
1,60,89,0
1,68,89,0
1,65,0,14
1,68,0,1
1,60,0,1
1,63,78,32
1,58,75,0
1,67,89,0
1,58,0,13
1,67,0,1
1,63,0,0
1,56,64,36
1,65,85,0
1,60,88,0
1,60,0,172
1,56,0,10
1,65,0,2
1,70,87,53
1,62,83,0
1,65,85,0
1,65,0,728
1,70,0,0
1,62,0,5
1,70,72,38
1,65,80,0
1,62,71,1
1,65,0,721
1,70,0,3
1,62,0,4
1,68,79,84
1,65,85,0
1,60,78,1
1,68,0,38
1,60,0,2
1,65,0,1
1,56,66,54
1,60,88,0
1,65,86,2
1,56,0,180
1,60,0,15
1,65,0,1
1,60,78,93
1,68,77,0
1,65,83,1
1,65,0,11
1,68,0,0
1,60,0,2
1,58,71,32
1,67,85,0
1,63,78,2
1,63,0,11
1,58,0,1
1,67,0,2
1,60,86,35
1,56,71,1
1,65,75,0
1,60,0,199
1,56,0,3
1,65,0,3
1,68,78,78
1,65,82,0
1,72,97,0
1,72,0,48
1,65,0,2
1,68,0,2
1,60,73,44
1,68,77,0
1,65,85,0
1,60,0,212
1,68,0,2
1,65,0,1
1,60,82,74
1,65,89,0
1,68,82,0
1,68,0,10
1,65,0,7
1,60,0,1
1,58,80,29
1,63,89,0
1,67,86,1
1,67,0,11
1,63,0,0
1,58,0,2
1,65,92,36
1,60,89,0
1,56,76,0
1,60,0,215
1,56,0,2
1,65,0,5
1,68,83,67
1,65,84,1
1,72,86,0
1,65,0,36
1,68,0,0
1,72,0,2
1,70,83,55
1,62,83,1
1,67,88,0
1,70,0,37
1,67,0,2
1,62,0,0
1,65,90,58
1,68,89,0
1,60,89,1
1,68,0,35
1,65,0,1
1,60,0,2
1,67,90,57
1,63,96,0
1,58,77,0
1,58,0,41
1,63,0,0
1,67,0,1
1,60,84,51
1,65,97,0
1,68,80,1
1,68,0,7
1,65,0,5
1,60,0,0
1,63,89,36
1,67,99,0
1,58,90,0
1,58,0,8
1,67,0,0
1,63,0,0
1,56,92,41
1,65,105,0
1,60,92,0
1,65,0,199
1,56,0,2
1,60,0,1
1,72,91,85
1,68,77,0
1,65,86,0
1,72,0,38
1,65,0,1
1,68,0,0
1,70,78,57
1,62,82,1
1,67,90,1
1,67,0,36
1,70,0,0
1,62,0,2
1,60,85,59
1,68,83,0
1,65,88,0
1,68,0,36
1,60,0,5
1,65,0,2
1,58,72,50
1,67,86,0
1,63,89,1
1,63,0,43
1,67,0,1
1,56,77,3
1,65,93,0
1,60,100,1
1,58,0,4
1,60,0,1140
1,65,0,2
1,56,0,0
1,58,66,4
1,67,78,0
1,75,78,0
1,48,78,0
1,75,0,232
1,96,63,4
1,48,0,6
1,67,0,3
1,95,41,3
1,96,0,4
1,58,0,1
1,93,47,8
1,95,0,4
1,91,50,8
1,93,0,4
1,89,51,7
1,91,0,4
1,88,52,6
1,89,0,3
1,86,54,6
1,88,0,3
1,84,50,5
1,86,0,4
1,83,48,4
1,84,0,3
1,81,53,4
1,83,0,3
1,79,54,4
1,81,0,3
1,77,54,3
1,79,0,4
1,76,52,3
1,77,0,3
1,74,57,3
1,76,0,4
1,72,54,3
1,74,0,3
1,71,52,4
1,72,0,3
1,69,54,4
1,71,0,2
1,67,57,4
1,69,0,4
1,67,0,5
1,68,94,45
1,72,100,0
1,65,91,1
1,65,0,12
1,72,0,1
1,68,0,0
1,62,85,34
1,70,90,0
1,67,96,0
1,67,0,12
1,70,0,1
1,62,0,1
1,65,92,36
1,60,82,0
1,68,82,0
1,68,0,227
1,65,0,0
1,60,0,9
1,65,93,50
1,68,87,0
1,60,85,0
1,68,0,13
1,60,0,3
1,65,0,0
