track,note,velocity,time
1,54,62,2604
1,58,63,28
1,61,67,20
1,65,72,12
1,65,62,40
1,54,61,8
1,61,69,0
1,58,72,4
1,65,60,0
1,54,63,4
1,58,72,4
1,61,67,0
1,54,64,172
1,58,69,12
1,61,66,24
1,65,63,12
1,65,59,56
1,61,72,12
1,54,64,0
1,58,72,0
1,65,58,16
1,54,58,8
1,61,68,0
1,58,71,0
1,61,72,68
1,54,60,0
1,58,72,0
1,54,67,48
1,58,71,8
1,61,66,4
1,56,67,12
1,60,69,4
1,65,71,8
1,68,67,16
1,65,65,80
1,60,65,0
1,68,62,4
1,56,61,4
1,54,68,232
1,58,67,4
1,61,74,0
1,49,70,56
1,61,69,180
1,65,64,172
1,68,69,196
1,53,77,4
1,60,59,192
1,65,67,184
1,68,66,196
1,63,71,8
1,54,70,0
1,61,66,196
1,66,72,192
1,70,59,192
1,65,64,8
1,49,60,88
1,61,70,0
1,65,71,180
1,68,78,8
1,63,58,184
1,44,68,0
1,54,59,4
1,58,70,0
1,61,73,0
1,63,58,8
1,54,64,0
1,58,68,0
1,61,75,4
1,70,88,4
1,66,80,4
1,73,91,0
1,70,84,40
1,66,83,0
1,49,73,208
1,61,70,180
1,65,62,180
1,68,69,180
1,53,73,0
1,60,57,196
1,65,61,176
1,68,68,196
1,63,60,0
1,54,74,12
1,61,62,196
1,66,66,188
1,70,59,188
1,65,56,8
1,49,62,188
1,65,58,184
1,68,61,0
1,61,60,8
1,44,62,192
1,63,47,8
1,61,64,0
1,54,45,0
1,58,63,0
1,54,60,24
1,58,64,0
1,63,58,0
1,61,73,0
1,61,77,616
1,56,68,4
1,54,55,4
1,61,71,160
1,56,68,4
1,54,56,4
1,61,74,56
1,54,67,4
1,56,80,0
1,61,79,148
1,54,66,0
1,56,73,4
1,61,77,164
1,56,74,0
1,54,64,4
1,56,81,168
1,54,72,0
1,61,85,0
1,61,80,56
1,54,71,0
1,56,85,4
1,61,70,32
1,54,62,0
1,56,76,0
1,61,70,128
1,54,61,4
1,56,70,0
1,61,63,96
1,54,57,4
1,56,65,4
1,61,87,120
1,54,76,0
1,56,88,0
1,54,73,156
1,61,83,0
1,56,80,0
1,61,70,4
1,56,72,4
1,54,59,0
1,54,66,64
1,61,74,0
1,56,78,4
1,61,74,172
1,56,68,4
1,54,58,0
1,56,80,108
1,61,85,4
1,54,68,0
1,61,85,108
1,56,81,0
1,54,79,0
1,56,68,116
1,60,74,12
1,65,78,20
1,70,90,956
1,68,88,396
1,65,84,212
1,56,73,4
1,60,73,0
1,60,73,332
1,65,70,0
1,56,59,8
1,60,82,148
1,65,91,0
1,56,80,0
1,60,77,56
1,56,69,136
1,53,60,4
1,54,47,80
1,61,56,0
1,58,66,0
1,61,77,4
1,66,64,8
1,70,67,0
1,68,78,736
1,72,67,4
1,63,69,0
1,65,66,72
1,60,59,0
1,68,69,8
1,65,67,20
1,70,75,0
1,61,77,0
1,61,80,76
1,56,73,0
1,44,68,0
1,54,69,0
1,61,83,492
1,56,73,0
1,44,70,0
1,54,66,0
1,54,70,92
1,56,79,0
1,61,85,0
1,44,68,0
1,44,70,476
1,61,81,0
1,56,77,0
1,54,70,0
1,44,70,104
1,56,78,4
1,61,85,0
1,54,68,4
1,56,67,856
1,61,74,0
1,54,65,0
1,44,72,0
1,49,74,48
1,61,76,188
1,65,67,196
1,61,72,44
1,68,80,0
1,61,56,36
1,65,71,8
1,53,73,36
1,65,53,184
1,68,76,188
1,68,88,24
1,72,75,4
1,65,72,0
1,65,66,48
1,68,76,0
1,54,84,8
1,66,65,192
1,70,64,188
1,66,60,24
1,73,75,4
1,70,77,72
1,66,70,0
1,49,54,12
1,65,62,4
1,61,65,4
1,68,65,4
1,61,51,48
1,68,61,44
1,70,73,112
1,56,67,0
1,66,68,0
1,73,75,772
1,70,70,16
1,66,48,0
1,49,60,32
1,61,75,192
1,65,59,188
1,65,42,12
1,68,73,4
1,61,65,4
1,61,50,76
1,65,66,0
1,53,77,12
1,65,53,200
1,68,73,196
1,68,78,28
1,72,62,4
1,65,67,0
1,65,54,56
1,68,65,4
1,54,73,16
1,66,70,192
1,70,66,192
1,70,60,24
1,66,66,0
1,73,67,4
1,66,59,120
1,70,71,4
1,61,73,16
1,49,60,0
1,65,58,192
1,68,26,24
1,68,73,64
1,66,68,132
1,70,79,0
1,56,76,4
1,73,66,768
1,70,48,12
1,44,70,504
1,61,80,0
1,56,73,0
1,54,68,0
1,44,65,144
1,56,70,0
1,61,79,0
1,54,66,0
1,56,65,56
1,61,60,0
1,54,59,0
1,44,49,20
1,61,70,60
1,54,62,0
1,56,70,0
1,44,66,148
1,61,73,0
1,56,66,0
1,54,65,0
1,44,66,196
1,61,79,0
1,56,77,0
1,54,72,0
1,61,73,152
1,44,62,0
1,56,67,0
1,54,64,0
1,61,66,56
1,56,66,0
1,54,59,0
1,44,71,4
1,44,61,48
1,61,73,0
1,54,65,0
1,56,75,0
1,44,61,128
1,56,71,4
1,61,76,0
1,54,65,0
1,44,71,172
1,61,75,4
1,56,69,0
1,54,69,0
1,61,76,140
1,44,62,0
1,56,68,0
1,54,70,0
1,56,65,60
1,61,67,0
1,54,62,0
1,44,62,4
1,44,54,48
1,54,70,0
1,56,76,0
1,61,79,0
1,56,80,140
1,61,85,0
1,44,70,0
1,54,72,0
1,61,74,104
1,56,66,0
1,54,65,0
1,44,70,0
1,44,70,148
1,56,73,4
1,61,80,0
1,54,70,4
1,61,69,6252
1,70,80,0
1,66,75,0
1,72,68,4
1,68,81,0
1,63,78,0
1,65,67,36
1,60,63,0
1,68,81,0
1,75,87,32
1,72,71,160
1,65,64,164
1,61,70,0
1,70,80,8
1,61,61,52
1,56,68,0
1,44,62,0
1,54,60,0
1,61,68,492
1,44,70,0
1,54,62,8
1,56,73,0
1,44,62,136
1,61,68,4
1,56,71,4
1,54,68,0
1,56,68,460
1,61,74,0
1,54,63,0
1,44,73,0
1,56,73,108
1,61,79,4
1,54,70,0
1,44,70,4
1,61,75,864
1,56,70,0
1,54,68,0
1,44,74,4
1,49,61,128
1,61,70,188
1,65,67,180
1,68,66,192
1,53,79,44
1,65,66,184
1,68,65,192
1,72,66,180
1,54,79,4
1,66,72,196
1,70,65,180
1,73,73,184
1,65,66,160
1,49,61,4
1,61,60,0
1,68,60,4
1,56,64,180
1,66,65,0
1,61,68,4
1,49,61,132
1,61,70,192
1,65,67,188
1,68,65,192
1,53,67,36
1,65,72,192
1,68,74,184
1,72,67,188
1,54,74,0
1,66,69,192
1,70,71,180
1,73,70,196
1,49,63,200
1,65,54,0
1,61,63,4
1,68,66,0
1,56,65,212
1,61,67,8
1,66,61,4
1,68,61,520
1,70,75,112
1,72,77,92
1,68,80,120
1,70,80,52
1,68,78,8
1,65,68,128
1,65,75,40
1,68,86,44
1,70,78,124
1,70,79,56
1,68,80,380
1,66,85,376
1,65,71,400
1,66,76,148
1,61,76,4
1,70,76,0
1,72,72,16
1,68,80,4
1,63,73,0
1,65,72,44
1,60,70,4
1,68,74,0
1,60,61,44
1,68,69,40
1,65,67,4
1,61,70,8
1,54,64,4
1,56,75,4
1,56,80,508
1,54,68,4
1,61,80,0
1,61,80,228
1,54,73,0
1,56,78,0
1,56,73,516
1,54,68,0
1,61,78,0
1,61,73,164
1,56,71,4
1,54,79,0
1,56,77,492
1,61,79,0
1,54,65,0
1,56,80,156
1,61,83,4
1,54,73,0
1,61,78,508
1,56,73,0
1,54,68,0
1,61,77,48
1,54,70,0
1,56,80,0
1,57,67,232
1,59,84,0
1,64,84,0
1,57,81,536
1,59,91,0
1,64,90,0
1,71,92,324
1,69,77,0
1,76,86,0
1,76,91,516
1,69,82,0
1,71,94,0
1,73,84,392
1,76,92,164
1,73,91,156
1,64,76,188
1,68,67,196
1,64,72,44
1,71,80,0
1,64,56,36
1,68,71,8
1,56,73,36
1,68,53,192
1,71,76,188
1,71,88,24
1,75,75,4
1,68,72,0
1,68,66,48
1,71,76,0
1,57,84,8
1,69,65,192
1,73,64,188
1,69,60,24
1,76,75,4
1,73,77,72
1,69,70,0
1,52,54,12
1,68,62,4
1,64,65,4
1,71,65,4
1,64,51,48
1,71,61,44
1,73,73,112
1,59,67,0
1,69,68,0
1,76,75,772
1,73,70,16
1,69,48,0
1,52,60,32
1,64,75,192
1,68,59,188
1,68,42,12
1,71,73,4
1,64,65,4
1,64,50,76
1,68,66,0
1,56,77,12
1,68,53,200
1,71,73,196
1,71,78,28
1,75,62,4
1,68,67,0
1,68,54,56
1,71,65,4
1,57,73,16
1,69,70,192
1,73,66,192
1,73,60,24
1,69,66,0
1,76,67,4
1,69,59,120
1,73,71,4
1,64,73,16
1,52,60,0
1,68,58,192
1,71,26,24
1,71,73,64
1,69,68,132
1,73,79,0
1,59,76,4
1,76,66,768
1,73,48,8
1,57,67,4
1,64,73,0
1,59,87,0
1,57,67,512
1,59,88,0
1,64,81,4
1,71,91,4
1,71,62,8
1,76,80,4
1,69,91,0
1,71,102,48
1,76,88,4
1,69,79,0
1,71,94,40
1,69,82,0
1,76,86,0
1,69,71,40
1,71,98,0
1,76,84,0
1,64,76,288
1,68,67,196
1,64,72,44
1,71,80,0
1,64,56,36
1,68,71,8
1,56,73,36
1,68,53,192
1,71,76,188
1,71,88,24
1,75,75,4
1,68,72,0
1,68,66,48
1,71,76,0
1,57,84,8
1,69,65,192
1,73,64,188
1,69,60,24
1,76,75,4
1,73,77,72
1,69,70,0
1,52,54,12
1,68,62,4
1,64,65,4
1,71,65,4
1,64,51,48
1,71,61,44
1,73,73,112
1,59,67,0
1,69,68,0
1,76,75,772
1,73,70,16
1,69,48,0
1,52,60,32
1,64,75,192
1,68,59,188
1,68,42,12
1,71,73,4
1,64,65,4
1,64,50,76
1,68,66,0
1,56,77,12
1,68,53,200
1,71,73,196
1,71,78,28
1,75,62,4
1,68,67,0
1,68,54,56
1,71,65,4
1,57,73,16
1,69,70,192
1,73,66,192
1,73,60,24
1,69,66,0
1,76,67,4
1,69,59,120
1,73,71,4
1,64,73,16
1,52,60,0
1,68,58,192
1,71,26,24
1,71,73,64
1,69,68,132
1,73,79,0
1,59,76,4
1,76,66,768
1,73,48,8
1,64,76,184
1,68,67,196
1,64,72,44
1,71,80,0
1,64,56,36
1,68,71,8
1,56,73,36
1,68,53,192
1,71,76,188
1,71,88,24
1,75,75,4
1,68,72,0
1,68,66,48
1,71,76,0
1,57,84,8
1,69,65,192
1,73,64,188
1,69,60,24
1,76,75,4
1,73,77,72
1,69,70,0
1,52,54,12
1,68,62,4
1,64,65,4
1,71,65,4
1,64,51,40
1,71,61,12
1,73,73,60
1,59,67,0
1,69,68,0
1,76,75,32
1,73,70,16
1,69,48,0
1,52,60,32
1,64,75,24
1,68,59,68
1,68,42,12
1,71,73,4
1,64,65,4
1,64,50,40
1,68,66,0
1,56,77,12
1,68,53,32
1,71,73,12
1,71,78,28
1,75,62,4
1,68,67,0
1,68,54,48
1,71,65,4
1,57,73,4
1,69,70,48
1,73,66,24
1,73,60,24
1,69,66,0
1,76,67,0
1,69,59,56
1,73,71,4
1,64,73,12
1,52,60,0
1,68,58,60
1,71,26,8
1,71,73,28
1,69,68,8
1,73,79,0
1,59,76,4
1,76,66,52
1,73,48,8
1,68,63,4
1,71,73,4
1,76,73,8
2,32,116,2652
2,32,118,32
2,32,113,32
2,32,112,36
2,32,115,44
2,32,114,32
2,27,115,36
2,29,108,0
2,32,118,0
2,32,111,48
2,32,114,32
2,39,115,8
2,39,112,164
2,32,111,4
2,32,109,36
2,32,113,40
2,32,113,44
2,33,110,0
2,34,114,0
2,34,115,40
2,29,109,0
2,34,112,8
2,32,114,180
2,25,117,116
2,25,117,40
2,25,109,24
2,25,115,44
2,29,112,4
2,29,112,24
2,29,108,24
2,29,114,36
2,30,115,40
2,25,112,8
2,25,111,52
2,30,114,12
2,30,115,52
2,37,115,40
2,32,113,12
2,32,115,52
2,32,115,44
2,32,116,48
2,25,112,4
2,25,114,56
2,25,113,28
2,25,115,40
2,29,109,0
2,29,113,44
2,29,108,24
2,29,114,44
2,30,115,8
2,25,111,8
2,25,115,36
2,25,111,32
2,30,116,8
2,37,117,188
2,32,114,20
2,32,112,32
2,32,117,28
2,27,110,0
2,29,108,0
2,32,117,0
2,32,114,104
2,32,114,132
2,32,109,40
2,32,113,44
2,32,115,112
2,32,114,48
2,32,115,88
2,32,117,124
2,32,112,56
2,32,117,48
2,32,115,132
2,27,112,24
2,29,108,0
2,32,118,0
2,32,112,116
2,32,117,128
2,32,108,56
2,32,116,52
2,32,117,116
2,32,113,36
2,32,117,40
2,32,115,68
2,37,115,72
2,44,111,4
2,44,115,72
2,32,111,4
2,37,115,112
2,44,105,0
2,44,112,16
2,44,115,48
2,32,114,0
2,37,115,160
2,44,111,0
2,44,115,60
2,37,112,0
2,37,117,64
2,30,111,140
2,37,115,4
2,37,118,84
2,37,115,144
2,42,115,36
2,42,119,32
2,42,115,32
2,42,114,32
2,41,116,20
2,41,114,76
2,36,112,0
2,29,112,16
2,34,115,0
2,34,107,20
2,34,112,32
2,34,115,164
2,32,115,4
2,32,111,396
2,32,115,44
2,32,111,28
2,27,112,40
2,29,113,0
2,32,114,0
2,32,113,324
2,32,118,36
2,32,112,48
2,41,108,20
2,44,118,0
2,37,114,4
2,32,114,0
2,32,119,768
2,32,110,52
2,32,109,40
2,32,115,24
2,32,120,52
2,32,116,72
2,37,115,52
2,37,111,52
2,37,116,44
2,37,117,48
2,29,114,32
2,29,110,40
2,29,115,36
2,29,116,48
2,30,117,100
2,30,107,12
2,37,115,0
2,30,107,12
2,37,111,0
2,42,101,0
2,42,117,44
2,37,117,140
2,32,117,156
2,32,116,56
2,32,113,52
2,32,115,48
2,32,113,68
2,37,115,80
2,37,112,44
2,37,116,52
2,37,117,24
2,29,110,224
2,29,101,48
2,29,108,40
2,29,111,44
2,29,111,160
2,30,111,28
2,30,113,52
2,37,112,12
2,30,114,0
2,37,112,128
2,32,115,76
2,32,119,72
2,32,117,80
2,32,117,56
2,27,112,12
2,29,110,0
2,32,114,8
2,32,111,164
2,32,115,28
2,32,112,32
2,32,110,104
2,32,104,4
2,32,115,204
2,32,115,136
2,32,110,44
2,32,111,48
2,32,122,100
2,27,111,32
2,29,108,0
2,32,115,12
2,32,119,164
2,32,110,40
2,32,115,32
2,32,111,56
2,32,114,60
2,32,116,44
2,37,115,100
2,44,109,4
2,44,115,132
2,32,113,8
2,37,114,92
2,44,110,24
2,44,111,36
2,44,112,32
2,32,112,0
2,37,116,168
2,44,113,12
2,44,111,76
2,37,116,16
2,30,114,128
2,37,115,0
2,37,115,96
2,42,111,32
2,42,113,84
2,42,101,24
2,42,115,28
2,42,111,20
2,41,116,72
2,41,114,44
2,36,111,0
2,29,108,0
2,32,111,0
2,34,111,0
2,34,109,60
2,34,111,24
2,34,113,284
2,32,116,36
2,32,115,40
2,32,111,60
2,32,115,68
2,27,111,76
2,29,107,0
2,32,117,0
2,32,112,28
2,32,115,60
2,32,115,48
2,27,113,168
2,32,115,0
2,32,110,524
2,32,115,48
2,32,117,40
2,27,110,8
2,29,108,0
2,32,117,0
2,32,117,40
2,37,115,12
2,25,109,4
2,25,112,36
2,25,113,48
2,25,117,96
2,29,114,12
2,29,108,36
2,29,111,24
2,29,111,52
2,30,115,16
2,30,113,36
2,30,113,56
2,30,112,44
2,37,117,8
2,30,114,260
2,37,117,88
2,37,117,36
2,32,115,48
2,32,114,32
2,32,116,56
2,32,114,56
2,32,113,48
2,34,109,0
2,37,114,0
2,37,114,52
2,37,118,16
2,29,111,16
2,29,101,24
2,29,116,40
2,30,114,36
2,30,117,36
2,37,114,12
2,37,114,40
2,37,115,40
2,30,116,12
2,37,112,100
2,32,111,384
2,32,115,20
2,32,117,48
2,32,113,84
2,32,116,56
2,37,117,16
2,44,110,0
2,44,111,76
2,32,115,4
2,32,109,48
2,37,117,0
2,44,110,0
