track,note,velocity,time
1,39,108,2668
1,51,92,0
1,61,115,0
1,66,123,0
1,70,123,0
1,61,90,44
1,39,105,0
1,66,109,68
1,70,111,0
1,51,113,8
1,39,96,44
1,72,115,8
1,68,119,0
1,63,111,4
1,63,99,492
1,39,97,4
1,51,109,88
1,70,97,4
1,73,105,0
1,39,102,0
1,72,119,4
1,68,119,4
1,63,123,0
1,75,115,188
1,48,123,0
1,72,98,96
1,44,92,0
1,68,105,48
1,39,103,0
1,72,111,60
1,68,111,0
1,63,111,0
1,44,108,0
1,44,84,80
1,72,102,8
1,63,106,4
1,68,98,0
1,39,108,36
1,51,106,0
1,66,105,4
1,70,95,0
1,61,92,8
1,66,117,104
1,61,106,0
1,70,119,4
1,39,99,4
1,51,111,0
1,45,74,4
1,61,77,32
1,39,109,24
1,61,84,4
1,70,113,0
1,66,111,0
1,68,111,40
1,72,113,0
1,63,102,0
1,51,109,4
1,39,108,468
1,63,96,4
1,51,103,84
1,70,103,4
1,73,113,0
1,39,111,48
1,63,121,4
1,72,123,0
1,68,123,0
1,41,111,132
1,53,119,4
1,44,88,96
1,56,106,0
1,46,84,56
1,58,94,4
1,49,115,52
1,61,103,4
1,61,123,100
1,49,117,0
1,46,101,8
1,58,113,0
1,39,108,192
1,51,92,0
1,61,115,4
1,66,123,0
1,70,123,0
1,61,90,44
1,39,105,0
1,66,109,68
1,70,111,0
1,51,113,8
1,39,96,44
1,72,115,8
1,68,119,0
1,63,111,4
1,63,99,492
1,39,97,4
1,51,109,88
1,70,97,4
1,73,105,0
1,39,102,0
1,72,119,4
1,68,119,4
1,63,123,0
1,75,115,188
1,48,123,0
1,72,98,96
1,44,92,0
1,68,105,48
1,39,103,0
1,72,111,60
1,68,111,0
1,63,111,0
1,44,108,0
1,44,84,80
1,72,102,8
1,63,106,4
1,68,98,0
1,39,108,36
1,51,106,0
1,66,105,4
1,70,95,0
1,61,92,8
1,66,117,104
1,61,106,0
1,70,119,4
1,39,99,4
1,51,111,0
1,45,74,4
1,61,77,32
1,39,109,24
1,61,84,4
1,70,113,0
1,66,111,0
1,68,111,40
1,72,113,0
1,63,102,0
1,51,109,4
1,39,108,468
1,63,96,4
1,51,103,84
1,70,103,4
1,73,113,0
1,39,111,48
1,63,121,4
1,72,123,0
1,68,123,0
1,41,111,132
1,53,119,4
1,44,88,96
1,56,106,0
1,46,84,56
1,58,94,4
1,49,115,52
1,61,103,4
1,61,123,100
1,49,117,0
1,46,101,8
1,58,113,0
1,63,106,172
1,61,98,0
1,58,90,4
1,66,103,0
1,39,113,20
1,34,101,4
1,37,91,96
1,39,109,72
1,34,106,276
1,34,123,40
1,37,97,96
1,58,98,4
1,61,108,4
1,66,113,0
1,63,109,0
1,39,103,12
1,42,108,60
1,66,90,76
1,63,86,4
1,61,84,0
1,58,81,0
1,39,113,4
1,34,102,4
1,37,101,96
1,39,115,72
1,34,105,248
1,34,111,48
1,58,96,96
1,61,102,0
1,63,111,0
1,66,113,0
1,37,103,0
1,39,109,32
1,42,101,60
1,65,86,36
1,61,91,0
1,56,81,0
1,58,85,0
1,46,111,12
1,41,98,12
1,44,94,88
1,46,108,76
1,41,103,236
1,41,117,36
1,44,109,96
1,58,111,4
1,65,115,4
1,56,105,0
1,61,106,0
1,46,98,0
1,49,109,60
1,65,96,12
1,58,94,0
1,61,98,0
1,56,91,0
1,46,105,0
1,41,99,24
1,44,99,96
1,46,106,68
1,41,105,272
1,41,113,36
1,56,92,96
1,65,102,0
1,58,95,0
1,44,99,0
1,61,101,4
1,46,102,28
1,49,109,52
1,63,89,84
1,61,85,0
1,58,81,0
1,66,84,0
1,39,109,0
1,34,80,152
1,37,89,96
1,39,102,68
1,34,105,376
1,34,111,40
1,58,97,92
1,61,105,0
1,66,106,0
1,63,103,0
1,37,102,4
1,39,103,76
1,42,99,68
1,61,95,4
1,63,97,0
1,58,91,0
1,66,97,0
1,39,111,4
1,34,94,20
1,37,95,96
1,39,106,72
1,34,105,320
1,34,113,48
1,66,102,92
1,58,95,0
1,61,103,0
1,63,109,0
1,37,108,0
1,39,109,24
1,42,98,64
1,58,82,80
1,65,82,0
1,61,91,0
1,56,86,0
1,46,106,12
1,41,102,0
1,44,90,88
1,46,106,88
1,41,99,292
1,41,117,40
1,58,101,92
1,56,98,0
1,44,97,0
1,65,108,4
1,61,106,0
1,46,91,80
1,49,91,52
1,65,96,88
1,61,96,0
1,58,92,0
1,56,90,0
1,46,106,0
1,41,95,4
1,44,92,92
1,46,105,68
1,41,111,380
1,41,101,32
1,58,99,96
1,56,97,0
1,61,102,0
1,65,108,0
1,44,95,0
1,46,101,4
1,49,111,56
1,66,96,24
1,59,100,0
1,63,108,0
1,59,90,24
1,66,96,0
1,63,113,4
1,59,108,776
1,66,105,4
1,63,113,0
1,62,95,208
1,59,93,0
1,66,99,0
1,66,97,40
1,59,92,0
1,62,100,0
1,62,102,804
1,59,104,0
1,66,106,0
1,58,85,220
1,61,97,4
1,66,97,0
1,66,89,40
1,61,99,4
1,58,92,0
1,66,105,768
1,61,105,0
1,58,95,0
1,58,91,204
1,61,102,0
1,66,101,0
1,66,99,44
1,58,98,0
1,61,108,0
1,58,102,772
1,61,113,4
1,66,106,0
1,66,91,236
1,56,87,4
1,59,93,0
1,63,96,0
1,66,91,32
1,59,96,4
1,63,96,0
1,56,91,4
1,59,95,744
1,66,98,0
1,56,90,0
1,63,94,0
1,59,96,220
1,66,97,0
1,56,91,0
1,63,101,0
1,66,87,52
1,56,88,0
1,59,90,4
1,63,101,0
1,59,108,776
1,66,105,4
1,56,99,0
1,63,105,0
1,70,99,220
1,65,103,4
1,63,97,0
1,70,106,124
1,63,103,0
1,65,108,0
1,70,108,140
1,65,113,0
1,63,108,0
1,62,104,104
1,70,108,0
1,65,117,4
1,62,88,92
1,70,98,0
1,65,106,0
1,70,90,96
1,62,86,0
1,65,105,0
1,61,105,100
1,58,95,0
1,66,108,0
1,61,103,96
1,58,95,0
1,65,96,4
1,66,96,176
1,59,92,0
1,63,108,4
1,62,89,180
1,66,99,0
1,59,93,0
1,61,106,212
1,66,103,4
1,58,96,0
1,61,105,152
1,58,91,4
1,65,96,0
1,66,105,228
1,63,103,0
1,59,93,4
1,62,95,184
1,66,101,0
1,59,93,0
1,63,106,96
1,61,98,0
1,58,90,4
1,66,103,0
1,39,113,20
1,34,101,4
1,37,91,96
1,39,109,72
1,34,106,276
1,34,123,40
1,37,97,96
1,58,98,4
1,61,108,4
1,66,113,0
1,63,109,0
1,39,103,12
1,42,108,60
1,66,90,76
1,63,86,4
1,61,84,0
1,58,81,0
1,39,113,4
1,34,102,4
1,37,101,96
1,39,115,72
1,34,105,248
1,34,111,48
1,58,96,96
1,61,102,0
1,63,111,0
1,66,113,0
1,37,103,0
1,39,109,32
1,42,101,60
1,65,86,36
1,61,91,0
1,56,81,0
1,58,85,0
1,46,111,12
1,41,98,12
1,44,94,88
1,46,108,76
1,41,103,236
1,41,117,36
1,44,109,96
1,58,111,4
1,65,115,4
1,56,105,0
1,61,106,0
1,46,98,0
1,49,109,60
1,65,96,12
1,58,94,0
1,61,98,0
1,56,91,0
1,46,105,0
1,41,99,24
1,44,99,96
1,46,106,68
1,41,105,272
1,41,113,36
1,56,92,96
1,65,102,0
1,58,95,0
1,44,99,0
1,61,101,4
1,46,102,28
1,49,109,52
1,63,89,84
1,61,85,0
1,58,81,0
1,66,84,0
1,39,109,0
1,34,80,152
1,37,89,96
1,39,102,68
1,34,105,376
1,34,111,40
1,58,97,92
1,61,105,0
1,66,106,0
1,63,103,0
1,37,102,4
1,39,103,76
1,42,99,68
1,61,95,4
1,63,97,0
1,58,91,0
1,66,97,0
1,39,111,4
1,34,94,20
1,37,95,96
1,39,106,72
1,34,105,320
1,34,113,48
1,66,102,92
1,58,95,0
1,61,103,0
1,63,109,0
1,37,108,0
1,39,109,24
1,42,98,64
1,58,82,80
1,65,82,0
1,61,91,0
1,56,86,0
1,46,106,12
1,41,102,0
1,44,90,88
1,46,106,88
1,41,99,292
1,41,117,40
1,58,101,92
1,56,98,0
1,44,97,0
1,65,108,4
1,61,106,0
1,46,91,80
1,49,91,52
1,65,96,88
1,61,96,0
1,58,92,0
1,56,90,0
1,46,106,0
1,41,95,4
1,44,92,92
1,46,105,68
1,41,111,380
1,41,101,32
1,58,99,96
1,56,97,0
1,61,102,0
1,65,108,0
1,44,95,0
1,46,101,4
1,49,111,56
1,66,96,24
1,59,100,0
1,63,108,0
1,59,90,24
1,66,96,0
1,63,113,4
1,59,108,776
1,66,105,4
1,63,113,0
1,62,95,208
1,59,93,0
1,66,99,0
1,66,97,40
1,59,92,0
1,62,100,0
1,62,102,804
1,59,104,0
1,66,106,0
1,58,85,220
1,61,97,4
1,66,97,0
1,66,89,40
1,61,99,4
1,58,92,0
1,66,105,768
1,61,105,0
1,58,95,0
1,58,91,204
1,61,102,0
1,66,101,0
1,66,99,44
1,58,98,0
1,61,108,0
1,58,102,772
1,61,113,4
1,66,106,0
1,66,91,236
1,56,87,4
1,59,93,0
1,63,96,0
1,66,91,32
1,59,96,4
1,63,96,0
1,56,91,4
1,59,95,744
1,66,98,0
1,56,90,0
1,63,94,0
1,59,96,220
1,66,97,0
1,56,91,0
1,63,101,0
1,66,87,52
1,56,88,0
1,59,90,4
1,63,101,0
1,59,108,776
1,66,105,4
1,56,99,0
1,63,105,0
1,70,99,220
1,65,103,4
1,63,97,0
1,70,106,124
1,63,103,0
1,65,108,0
1,70,108,140
1,65,113,0
1,63,108,0
1,62,104,104
1,70,108,0
1,65,117,4
1,62,88,92
1,70,98,0
1,65,106,0
1,70,90,96
1,62,86,0
1,65,105,0
1,61,105,100
1,58,95,0
1,66,108,0
1,61,103,96
1,58,95,0
1,65,96,4
1,66,96,176
1,59,92,0
1,63,108,4
1,62,89,180
1,66,99,0
1,59,93,0
1,61,106,212
1,66,103,4
1,58,96,0
1,61,105,152
1,58,91,4
1,65,96,0
1,66,105,228
1,63,103,0
1,59,93,4
1,62,95,184
1,66,101,0
1,59,93,0
1,39,108,116
1,51,92,0
1,61,115,4
1,66,123,0
1,70,123,0
1,61,90,44
1,39,105,0
1,66,109,68
1,70,111,0
1,51,113,8
1,39,96,44
1,72,115,8
1,68,119,0
1,63,111,4
1,63,99,492
1,39,97,4
1,51,109,88
1,70,97,4
1,73,105,0
1,39,102,0
1,72,119,4
1,68,119,4
1,63,123,0
1,75,115,188
1,48,123,0
1,72,98,96
1,44,92,0
1,68,105,48
1,39,103,0
1,72,111,60
1,68,111,0
1,63,111,0
1,44,108,0
1,44,84,80
1,72,102,8
1,63,106,4
1,68,98,0
1,39,108,36
1,51,106,0
1,66,105,4
1,70,95,0
1,61,92,8
1,66,117,104
1,61,106,0
1,70,119,4
1,39,99,4
1,51,111,0
1,45,74,4
1,61,77,32
1,39,109,24
1,61,84,4
1,70,113,0
1,66,111,0
1,68,111,40
1,72,113,0
1,63,102,0
1,51,109,4
1,39,108,468
1,63,96,4
1,51,103,84
1,70,103,4
1,73,113,0
1,39,111,48
1,63,121,4
1,72,123,0
1,68,123,0
1,41,111,132
1,53,119,4
1,44,88,96
1,56,106,0
1,46,84,56
1,58,94,4
1,49,115,52
1,61,103,4
1,61,123,100
1,49,117,0
1,46,101,8
1,58,113,0
1,39,108,0
1,51,92,0
1,75,99,776
1,87,108,4
1,82,94,180
1,70,86,4
1,78,92,176
1,66,83,4
1,75,89,160
1,63,86,8
1,78,103,16
1,66,91,0
1,75,101,736
1,87,111,0
1,78,96,4
1,66,75,0
1,77,97,60
1,65,94,0
1,75,99,60
1,63,97,0
1,70,102,64
1,66,83,184
1,61,79,200
1,70,97,160
1,78,105,192
1,73,99,192
1,82,105,184
1,80,91,24
1,78,109,24
1,72,106,52
1,68,94,180
1,63,82,192
1,72,96,192
1,80,115,188
1,75,106,196
1,84,97,184
1,82,88,84
1,80,109,84
1,72,111,4
1,68,84,180
1,65,84,8
1,72,98,196
1,80,113,184
1,77,101,192
1,84,97,180
1,82,91,92
1,80,108,40
1,72,99,88
1,68,95,200
1,65,88,0
1,72,99,184
1,80,106,176
1,77,98,192
1,84,96,184
1,82,86,84
1,80,101,72
1,78,89,200
1,61,79,176
1,70,84,4
1,66,79,176
1,82,91,128
1,77,84,204
1,73,79,196
1,70,91,168
1,70,91,8
1,65,85,116
1,61,81,188
1,65,81,148
1,82,90,180
1,77,83,192
1,73,76,180
1,77,91,60
1,78,117,40
1,73,98,376
1,70,99,16
1,78,109,172
1,73,94,348
1,70,92,180
1,78,98,168
1,73,94,332
1,70,91,180
1,78,102,172
1,73,91,372
1,70,91,176
1,61,101,28
1,65,84,180
1,68,91,184
1,65,83,172
1,68,97,168
1,77,123,392
1,75,95,40
1,73,101,68
1,65,97,8
1,73,106,176
1,68,101,128
1,65,102,24
1,73,113,32
1,65,97,8
1,73,103,40
1,65,111,4
1,75,111,188
1,66,103,0
1,77,108,8
1,68,103,4
1,42,105,12
1,54,95,12
1,73,102,12
1,78,109,0
1,70,73,184
1,73,95,132
1,78,97,0
1,70,65,192
1,73,97,144
1,78,98,0
1,70,65,188
1,73,98,148
1,78,102,4
1,70,57,164
1,42,102,116
1,54,106,8
1,73,97,0
1,78,101,4
1,70,61,168
1,73,95,152
1,78,97,4
1,70,69,188
1,73,101,140
1,78,103,4
1,70,79,180
1,75,101,0
1,80,102,8
1,72,87,204
1,58,87,28
1,75,103,8
1,78,102,0
1,82,91,0
1,58,91,24
1,75,96,4
1,78,98,0
1,82,106,8
1,75,91,36
1,78,105,0
1,82,98,4
1,58,91,0
1,58,89,28
1,78,113,4
1,75,103,4
1,82,115,0
1,75,106,32
1,78,111,0
1,58,86,0
1,82,108,0
1,58,84,44
1,75,102,4
1,78,106,0
1,82,102,0
1,73,95,8
1,77,108,0
1,82,99,0
1,56,95,0
1,77,108,20
1,73,98,0
1,82,105,0
1,56,103,8
1,77,106,36
1,73,98,0
1,82,105,0
1,56,91,4
1,56,91,36
1,77,113,0
1,73,113,4
1,82,111,0
1,73,101,28
1,77,108,0
1,56,94,0
1,82,105,0
1,82,99,48
1,77,108,0
1,73,106,4
1,56,97,0
1,67,95,8
1,61,81,0
1,77,77,0
1,70,96,0
1,51,115,12
1,61,105,4
1,58,95,0
1,66,108,0
1,61,103,96
1,58,95,0
1,65,96,4
1,66,96,176
1,59,92,0
1,63,108,4
1,62,89,180
1,66,99,0
1,59,93,0
1,61,105,216
1,58,95,0
1,66,108,0
1,61,103,96
1,58,95,0
1,65,96,4
1,66,96,176
1,59,92,0
1,63,108,4
1,62,89,180
1,66,99,0
1,59,93,0
1,61,105,216
1,58,95,0
1,66,108,0
1,61,103,96
1,58,95,0
1,65,96,4
1,66,96,76
1,59,92,0
1,63,108,4
1,62,89,88
1,66,99,0
1,59,93,0
1,61,105,120
1,58,95,0
1,66,108,0
1,61,103,96
1,58,95,0
1,65,96,4
1,66,96,124
1,59,92,0
1,63,108,4
1,62,89,140
1,66,99,0
1,59,93,0
1,58,96,8
1,66,102,4
1,61,106,0
2,27,126,2652
2,36,120,20
2,32,111,4
2,27,114,4
2,32,118,4
2,32,117,92
2,27,112,4
2,27,123,4
2,29,125,4
2,32,108,4
2,34,110,4
2,37,121,4
2,37,118,88
2,34,112,4
2,27,117,4
2,36,119,8
2,32,112,4
2,27,113,4
2,32,117,4
2,32,117,84
2,27,110,4
2,27,117,12
2,29,122,4
2,32,109,4
2,34,108,4
2,37,117,4
2,37,116,88
2,34,117,4
2,39,117,8
2,34,114,0
2,37,113,4
2,39,110,4
2,42,114,736
2,39,112,4
2,34,114,8
2,37,110,4
2,39,112,4
2,42,109,720
2,46,115,4
2,41,109,4
2,44,110,4
2,46,110,4
2,49,113,720
2,46,112,4
2,41,116,12
2,44,110,4
2,46,112,4
2,49,114,732
2,39,107,4
2,34,104,16
2,37,110,4
2,39,107,4
2,42,111,708
2,39,112,4
