track,note,velocity,time
0,73,93,551
0,75,62,1
0,73,101,0
0,75,83,4
0,73,61,3
0,75,90,0
0,54,62,6
0,66,63,3
0,70,66,0
0,58,63,1
0,73,71,1
0,61,67,4
0,77,79,0
0,51,83,1
0,77,99,0
0,65,72,1
0,32,116,1
0,54,63,0
0,58,77,0
0,35,95,0
0,61,77,2
0,66,72,3
0,73,79,20
0,42,58,0
0,73,96,0
0,77,60,1
0,66,55,1
0,70,60,1
0,75,59,0
0,75,64,3
0,70,57,1
0,66,70,0
0,61,70,1
0,73,93,0
0,42,64,1
0,66,56,1
0,73,82,0
0,37,94,0
0,54,56,1
0,75,65,1
0,66,79,1
0,70,63,1
0,75,63,0
0,66,77,1
0,65,62,5
0,42,67,1
0,54,61,1
0,61,69,0
0,58,72,1
0,32,118,0
0,73,63,0
0,54,55,0
0,66,64,0
0,70,63,0
0,42,66,0
0,32,113,0
0,58,74,0
0,35,91,0
0,65,60,0
0,61,80,0
0,75,61,0
0,54,63,1
0,58,72,1
0,61,67,0
0,66,80,0
0,66,40,4
0,70,40,0
0,66,79,0
0,61,74,1
0,42,58,1
0,77,51,1
0,75,72,13
0,75,60,9
0,70,60,0
0,66,60,1
0,73,70,0
0,66,60,0
0,68,60,13
0,54,61,0
0,37,92,0
0,58,81,0
0,42,55,0
0,61,86,1
0,66,81,0
0,66,82,1
0,75,70,0
0,61,77,1
0,70,45,0
0,66,30,0
0,73,83,8
0,73,94,1
0,73,101,0
0,42,58,0
0,70,67,1
0,75,70,0
0,75,78,3
0,75,80,0
0,66,79,1
0,61,75,0
0,58,69,1
0,66,50,1
0,70,70,0
0,75,70,0
0,77,92,3
0,54,59,0
0,77,73,1
0,42,56,0
0,32,112,1
0,58,81,0
0,35,98,0
0,61,85,1
0,66,81,1
0,66,60,17
0,73,88,0
0,42,60,0
0,73,102,0
0,70,63,1
0,75,73,1
0,75,57,0
0,75,60,0
0,70,54,1
0,58,67,1
0,70,63,0
0,42,48,0
0,66,71,1
0,75,70,0
0,66,60,2
0,37,94,0
0,66,86,1
0,70,63,0
0,75,63,0
0,61,81,0
0,58,73,1
0,32,115,11
0,73,82,0
0,42,53,0
0,35,100,0
0,73,101,0
0,73,71,1
0,66,40,12
0,70,40,0
0,32,114,8
0,35,107,0
0,42,55,0
0,54,57,0
0,66,58,0
0,70,59,1
0,75,59,0
0,58,75,0
0,61,81,0
0,66,77,1
0,66,83,1
0,61,77,1
0,75,82,10
0,42,62,0
0,75,73,0
0,66,40,0
0,70,40,0
0,75,90,0
0,75,68,18
0,70,64,1
0,66,54,1
0,54,55,0
0,58,72,1
0,42,61,0
0,37,97,0
0,61,77,1
0,66,73,1
0,75,51,0
0,66,79,1
0,70,41,1
0,27,115,1
0,66,64,0
0,70,64,0
0,42,61,0
0,68,83,0
0,75,66,1
0,68,70,0
0,35,78,1
0,68,72,2
0,29,108,0
0,66,78,0
0,75,60,0
0,61,76,1
0,58,69,0
0,54,49,1
0,54,64,2
0,58,69,3
0,73,71,1
0,66,63,0
0,54,63,2
0,61,66,1
0,42,63,0
0,32,118,0
0,58,82,0
0,70,66,0
0,35,101,0
0,65,63,1
0,61,85,0
0,66,77,1
0,73,95,29
0,66,60,1
0,70,60,0
0,73,105,0
0,73,73,1
0,75,61,0
0,42,52,0
0,66,79,2
0,75,55,0
0,75,88,0
0,75,66,0
0,75,56,0
0,61,77,1
0,58,71,1
0,54,54,2
0,77,94,0
0,58,76,0
0,66,60,0
0,61,80,1
0,70,71,0
0,75,69,0
0,77,79,0
0,42,60,0
0,66,76,1
0,37,89,0
0,66,79,1
0,70,62,0
0,75,62,0
0,61,77,1
0,58,70,1
0,77,60,11
0,73,82,0
0,73,97,0
0,32,111,1
0,42,61,0
0,66,40,1
0,70,40,0
0,65,59,4
0,54,60,1
0,61,72,1
0,54,64,0
0,58,72,0
0,58,77,0
0,66,59,0
0,70,59,0
0,42,61,0
0,73,97,0
0,32,114,1
0,61,84,0
0,75,59,0
0,73,90,0
0,35,100,0
0,66,79,1
0,73,55,1
0,66,77,0
0,61,77,1
0,66,21,18
0,70,36,1
0,42,58,0
0,75,35,1
0,77,74,2
0,75,66,2
0,75,73,1
0,70,65,1
0,66,52,1
0,73,74,1
0,68,63,1
0,54,54,0
0,65,58,1
0,58,72,0
0,37,78,0
0,39,115,1
0,61,77,0
0,42,67,0
0,54,58,1
0,61,68,0
0,58,71,0
0,66,73,1
0,75,45,19
0,70,39,0
0,66,82,1
0,61,79,0
0,58,73,1
0,66,62,0
0,70,62,1
0,75,61,0
0,35,84,1
0,42,55,0
0,66,85,1
0,70,59,1
0,75,59,0
0,39,112,1
0,61,79,0
0,58,73,2
0,54,63,0
0,35,101,0
0,32,111,1
0,58,80,0
0,42,62,0
0,61,84,0
0,66,80,1
0,73,91,3
0,32,109,2
0,66,63,0
0,70,63,0
0,42,50,0
0,73,96,0
0,35,107,0
0,77,77,1
0,75,63,0
0,75,73,0
0,66,65,1
0,75,94,0
0,75,53,1
0,61,63,1
0,73,55,1
0,54,57,0
0,58,75,2
0,77,79,0
0,66,68,1
0,70,73,0
0,42,55,0
0,77,91,0
0,37,82,0
0,66,74,1
0,75,65,0
0,66,86,1
0,75,71,1
0,61,82,0
0,58,77,1
0,73,85,14
0,73,100,1
0,42,50,1
0,54,56,1
0,42,63,0
0,32,113,1
0,58,76,0
0,66,63,0
0,61,72,1
0,54,60,0
0,58,72,0
0,61,80,0
0,70,63,0
0,35,100,0
0,75,63,1
0,66,40,0
0,70,40,0
0,66,88,1
0,61,83,0
0,58,79,1
0,73,88,15
0,42,57,1
0,73,96,0
0,75,62,24
0,70,64,1
0,66,64,2
0,54,67,1
0,54,63,0
0,58,79,1
0,61,81,0
0,42,50,0
0,58,71,1
0,37,94,0
0,61,66,1
0,66,79,1
0,75,39,9
0,70,36,0
0,66,87,1
0,66,23,0
0,61,83,0
0,58,73,1
0,75,82,0
0,75,90,0
0,66,66,0
0,70,66,0
0,42,58,0
0,32,113,1
0,75,66,0
0,35,94,0
0,33,110,0
0,66,58,1
0,75,57,0
0,61,59,1
0,72,70,0
0,56,67,2
0,60,69,1
0,68,65,0
0,65,52,0
0,77,88,0
0,77,75,0
0,77,84,0
0,42,60,0
0,65,71,1
0,34,114,0
0,35,98,0
0,60,53,1
0,56,51,2
0,68,67,1
0,63,79,1
0,68,79,1
0,78,78,1
0,78,88,0
0,77,77,0
0,68,61,1
0,77,83,0
0,72,61,1
0,77,61,0
0,42,59,1
0,77,66,1
0,68,60,0
0,63,65,0
0,60,60,1
0,56,60,0
0,60,78,0
0,68,66,0
0,42,56,0
0,37,95,0
0,63,88,1
0,72,66,0
0,80,86,0
0,77,66,0
0,68,86,1
0,82,79,21
0,72,64,1
0,77,64,0
0,68,77,0
0,63,75,1
0,80,80,11
0,42,47,0
0,84,83,7
0,68,67,0
0,42,66,0
0,34,115,1
0,56,60,0
0,60,76,0
0,72,68,0
0,35,97,0
0,77,68,0
0,63,82,1
0,68,80,1
0,85,75,17
0,68,40,1
0,72,40,0
0,68,82,0
0,63,77,1
0,84,76,5
0,65,68,4
0,42,66,1
0,77,71,23
0,72,65,0
0,68,55,1
0,87,89,20
0,56,66,0
0,60,82,0
0,42,65,0
0,37,97,0
0,63,86,1
0,70,73,0
0,68,81,1
0,89,83,17
0,77,65,3
0,72,58,0
0,68,46,1
0,68,82,1
0,63,79,0
0,60,69,1
0,87,78,14
0,29,109,0
0,72,68,0
0,77,68,0
0,35,95,0
0,42,67,0
0,75,64,2
0,68,79,0
0,63,72,1
0,65,65,1
0,60,65,0
0,56,66,0
0,68,68,0
0,68,62,1
0,60,83,0
0,72,68,0
0,35,105,0
0,51,81,0
0,56,61,1
0,34,112,0
0,77,68,0
0,63,85,1
0,68,81,1
0,59,43,39
0,59,42,8
0,59,48,7
0,59,48,9
0,59,47,7
0,59,47,1
0,59,44,2
0,59,42,5
0,59,43,0
0,59,37,0
0,59,38,5
0,70,76,5
0,61,68,3
0,66,71,0
0,59,43,1
0,32,114,1
0,54,66,1
0,58,80,2
0,61,86,2
0,68,48,0
0,73,48,1
0,54,68,1
0,66,83,0
0,58,67,1
0,61,74,0
0,59,38,1
0,59,42,9
0,59,44,6
0,59,44,8
0,59,39,10
0,59,39,8
0,59,37,9
0,59,35,8
0,59,33,8
0,59,35,8
0,59,33,9
0,59,35,8
0,59,37,7
0,59,40,8
0,59,48,7
0,59,48,7
0,59,48,7
0,59,47,7
0,59,52,8
0,59,56,7
0,59,59,7
0,59,66,0
0,59,58,8
0,59,50,0
0,59,57,6
0,59,63,1
0,49,65,3
0,59,72,4
0,52,52,0
0,25,117,1
0,65,91,0
0,61,98,0
0,56,96,0
0,53,33,1
0,56,52,0
0,53,62,0
0,42,67,0
0,35,102,1
0,61,60,1
0,49,70,2
0,56,63,1
0,65,52,1
0,56,95,0
0,61,94,0
0,42,45,0
0,65,88,1
0,61,69,2
0,56,51,1
0,61,62,0
0,65,60,1
0,65,55,1
0,65,64,1
0,42,56,0
0,56,93,1
0,61,94,0
0,65,91,2
0,37,101,0
0,53,33,0
0,56,65,1
0,61,74,0
0,65,78,1
0,68,69,10
0,25,117,0
0,35,90,0
0,61,99,1
0,56,96,0
0,42,53,0
0,65,97,1
0,56,49,1
0,53,31,0
0,56,57,2
0,42,54,0
0,25,109,1
0,61,60,0
0,35,94,0
0,65,59,1
0,53,39,0
0,56,65,0
0,42,58,0
0,61,62,1
0,60,94,0
0,56,97,0
0,63,97,0
0,65,49,1
0,65,56,1
0,42,60,0
0,56,64,1
0,73,72,0
0,68,76,0
0,61,71,0
0,37,99,0
0,65,68,1
0,25,115,11
0,61,94,1
0,56,93,0
0,53,97,0
0,42,58,0
0,53,49,1
0,56,63,1
0,41,65,0
0,48,55,4
0,53,77,1
0,29,112,0
0,42,61,0
0,65,92,0
0,60,97,0
0,53,42,0
0,53,42,0
0,68,97,0
0,35,101,0
0,56,79,1
0,60,75,0
0,56,63,0
0,65,58,1
0,53,22,2
0,60,59,1
0,60,95,0
0,65,92,0
0,42,54,0
0,68,94,0
0,60,54,1
0,65,57,3
0,65,67,2
0,53,39,0
0,42,56,0
0,56,68,1
0,68,95,0
0,65,93,0
0,60,91,0
0,60,77,1
0,37,91,0
0,65,71,1
0,56,62,0
0,68,66,1
0,60,68,0
0,29,112,1
0,68,99,0
0,65,95,0
0,60,93,0
0,35,96,0
0,42,56,0
0,63,71,1
0,65,63,0
0,53,41,4
0,42,54,0
0,29,108,1
0,35,102,0
0,56,57,1
0,60,57,1
0,53,40,1
0,42,54,0
0,56,61,1
0,66,102,0
0,63,100,0
0,60,57,0
0,65,52,1
0,65,59,0
0,60,52,1
0,56,65,0
0,42,57,0
0,37,92,0
0,60,75,0
0,68,77,0
0,72,76,0
0,65,67,1
0,56,68,0
0,60,66,1
0,42,56,0
0,29,114,1
0,68,97,0
0,60,97,0
0,65,94,0
0,42,68,0
0,49,58,4
0,54,39,0
0,54,70,0
0,54,42,0
0,58,77,1
0,42,56,0
0,30,115,1
0,70,98,0
0,66,94,0
0,61,97,0
0,61,77,1
0,58,61,0
0,35,96,0
0,66,59,1
0,54,27,0
0,58,52,0
0,61,66,1
0,61,49,0
0,42,54,0
0,70,94,1
0,66,97,0
0,61,94,0
0,66,64,0
0,61,52,1
0,54,37,0
0,58,73,0
0,66,72,1
0,61,76,0
0,66,73,0
0,42,54,0
0,70,97,1
0,66,100,0
0,61,94,0
0,37,94,1
0,54,40,0
0,58,68,0
0,70,59,1
0,61,63,0
0,42,54,0
0,25,112,1
0,70,101,0
0,66,105,0
0,61,98,0
0,65,64,1
0,66,49,0
0,54,31,0
0,25,111,2
0,58,63,0
0,61,61,1
0,35,101,0
0,42,56,0
0,54,30,0
0,30,114,1
0,58,60,0
0,68,98,0
0,65,97,0
0,61,103,0
0,42,53,0
0,61,68,1
0,66,59,1
0,66,55,2
0,61,51,1
0,58,82,0
0,42,51,0
0,37,88,0
0,66,86,0
0,70,74,0
0,61,89,1
0,66,74,1
0,54,32,0
0,42,56,1
0,30,115,1
0,58,72,0
0,61,101,0
0,58,97,0
0,61,71,1
0,66,99,0
0,53,53,8
0,49,65,0
0,56,79,1
0,56,54,0
0,42,58,0
0,37,115,1
0,61,67,0
0,65,97,0
0,61,101,0
0,56,98,0
0,49,60,0
0,61,70,0
0,35,101,1
0,65,40,1
0,61,54,1
0,65,71,42
0,68,78,1
0,63,97,0
0,60,89,0
0,56,94,0
0,42,56,0
0,65,61,3
0,56,65,0
0,61,73,0
0,61,98,0
0,58,90,0
0,53,96,0
0,42,57,0
0,37,92,0
0,32,113,3
0,61,96,0
0,56,96,0
0,61,60,0
0,35,95,0
0,42,58,0
0,51,64,1
0,63,58,1
0,44,68,0
0,54,35,0
0,54,59,1
0,58,70,0
0,61,73,0
0,44,69,0
0,63,100,1
0,51,44,2
0,42,59,0
0,35,97,0
0,56,76,0
0,32,115,1
0,61,63,0
0,63,58,1
0,54,64,0
0,58,68,0
0,61,75,1
0,42,56,45
0,51,56,0
0,56,91,1
0,61,82,0
0,75,80,0
0,42,59,1
0,37,94,0
0,70,77,0
0,66,79,0
0,42,54,40
0,61,71,0
0,56,65,1
0,70,88,1
0,51,49,0
0,66,80,1
0,73,91,0
0,56,81,0
0,42,61,0
0,32,115,1
0,35,102,0
0,61,67,1
0,51,55,0
0,56,87,0
0,35,98,0
0,42,56,0
0,61,73,1
0,56,56,1
0,42,61,0
0,37,94,0
0,61,46,1
0,70,84,2
0,66,83,0
0,61,61,1
0,51,54,1
0,46,72,0
0,32,116,1
0,56,88,0
0,61,71,1
0,49,71,10
0,53,47,6
0,53,53,0
0,42,67,0
0,25,112,1
0,65,97,0
0,61,97,0
0,56,97,0
0,35,96,0
0,49,73,1
0,56,81,0
0,61,74,1
0,65,62,0
0,56,65,0
0,65,93,2
0,61,94,1
0,56,93,0
0,42,58,0
0,61,70,1
0,65,67,3
0,56,47,1
0,65,62,1
0,56,76,0
0,65,93,0
0,37,97,0
0,61,84,0
0,61,95,0
0,56,91,0
0,42,58,0
0,65,74,1
0,68,69,11
0,53,46,2
0,25,114,1
0,35,94,0
0,42,61,0
0,56,69,0
0,65,97,0
0,61,104,0
0,56,94,0
0,61,62,1
0,65,51,1
0,53,35,1
0,56,53,0
0,61,51,1
0,35,97,0
0,42,61,0
0,25,113,1
0,65,72,1
0,61,56,0
0,56,74,0
0,61,68,1
0,63,99,0
0,42,58,0
0,56,97,0
0,60,99,0
0,65,54,1
0,53,46,0
0,56,65,0
0,42,61,0
0,73,72,0
0,68,72,0
0,61,65,1
0,65,64,0
0,37,95,2
0,53,46,0
0,56,76,0
0,61,77,1
0,25,115,1
0,42,61,0
0,61,98,1
0,53,95,0
0,56,94,0
0,41,59,5
0,48,57,0
0,53,49,0
0,29,109,0
0,56,81,0
0,60,82,0
0,68,94,1
0,60,96,0
0,65,96,0
0,53,45,0
0,42,61,0
0,53,73,0
0,65,69,1
0,35,102,0
0,56,74,3
0,68,94,1
0,60,95,0
0,65,95,0
0,42,59,0
0,60,57,1
0,56,60,0
0,65,71,3
0,65,61,1
0,53,35,0
0,56,76,1
0,68,98,0
0,65,95,0
0,60,89,0
0,42,62,0
0,60,78,0
0,65,68,1
0,37,89,0
0,68,68,1
0,29,113,0
0,53,49,0
0,42,60,0
0,65,100,0
0,60,93,0
0,68,98,0
0,35,90,0
0,56,71,0
0,60,61,1
0,63,60,0
0,42,58,0
0,29,108,1
0,56,55,0
0,35,101,0
0,60,49,1
0,65,70,1
0,56,82,0
0,42,59,0
0,60,85,1
0,63,101,0
0,66,100,0
0,65,60,1
0,72,78,43
0,68,69,0
0,56,67,1
0,60,79,0
0,42,61,0
0,37,91,0
0,65,63,1
0,53,35,0
0,29,114,1
0,56,73,0
0,68,98,0
0,65,103,0
0,60,97,0
0,42,60,0
0,65,63,1
0,54,74,3
0,42,68,0
