track,note,velocity,time
5,59,100,575
5,62,100,0
5,59,100,161
5,62,100,0
5,55,100,95
5,62,100,52
5,60,100,0
5,59,100,1
5,59,100,56
5,62,100,0
5,55,100,8
5,59,100,56
5,62,100,0
5,55,100,1
5,55,100,33
5,59,100,76
5,62,100,0
5,55,100,96
5,59,100,83
5,59,100,52
5,62,100,0
5,55,100,145
5,59,100,0
5,62,100,0
5,59,100,31
5,55,100,1
5,62,100,0
5,55,100,79
5,59,100,79
5,62,100,25
5,59,100,44
5,62,100,0
5,55,100,41
5,55,100,56
5,59,100,94
5,55,100,46
5,62,100,0
5,59,100,59
5,55,100,15
5,59,100,95
5,62,100,33
5,59,100,60
5,55,100,65
5,59,100,0
5,62,100,0
5,62,100,44
5,59,100,0
5,55,100,0
5,59,100,87
5,59,100,19
5,55,100,1
5,62,100,0
5,60,100,153
5,64,100,0
5,57,100,0
5,57,100,43
5,60,100,0
5,55,100,56
5,60,100,0
5,64,100,0
5,64,100,56
5,60,100,0
5,62,100,68
5,59,100,1
5,55,100,0
5,55,100,28
5,59,100,96
5,62,100,97
5,62,100,54
5,59,100,0
5,59,100,67
5,55,100,72
5,59,100,0
5,62,100,0
5,55,100,57
5,59,100,44
5,62,100,0
5,55,100,7
5,59,100,95
5,59,100,36
5,62,100,0
5,55,100,61
5,62,100,1
5,59,100,0
5,59,100,143
5,60,100,0
5,62,100,0
5,55,100,1
5,59,100,18
5,59,100,49
5,62,100,0
5,55,100,4
5,59,100,91
5,59,100,44
5,55,100,1
5,62,100,0
5,57,100,115
5,60,100,0
5,64,100,0
5,60,100,11
5,55,100,51
5,57,100,0
5,60,100,64
5,64,100,0
5,55,100,0
5,60,100,58
5,64,100,1
5,59,100,73
5,62,100,0
5,55,100,1
5,59,100,56
5,62,100,0
5,55,100,97
5,59,100,80
5,62,100,4
5,62,100,68
5,59,100,0
5,55,100,1
5,55,100,141
5,59,100,95
5,59,100,68
5,62,100,1
5,55,100,0
5,55,100,41
5,59,100,51
5,62,100,72
5,59,100,172
5,55,100,1
5,62,100,0
5,62,100,177
5,59,100,0
5,55,100,67
5,59,100,145
5,62,100,0
5,55,100,72
5,59,100,39
5,62,100,0
5,59,100,75
5,62,100,1
5,53,100,0
5,53,100,97
5,59,100,1
5,62,100,0
5,59,100,79
5,62,100,0
5,53,100,43
5,59,100,0
5,62,100,0
5,60,100,169
5,64,100,0
5,55,100,1
5,55,100,153
5,60,100,3
5,64,100,64
5,60,100,51
5,55,100,97
5,60,100,80
5,55,100,65
5,60,100,0
5,64,100,1
5,64,100,49
5,60,100,95
5,55,100,0
5,60,100,97
5,64,100,0
5,55,100,65
5,59,100,31
5,62,100,0
5,55,100,1
5,59,100,47
5,62,100,0
5,55,100,97
5,59,100,84
5,62,100,96
5,59,100,61
5,55,100,0
5,57,100,164
5,60,100,0
5,64,100,0
5,57,100,136
5,66,100,243
5,62,100,1
5,57,100,0
5,62,100,153
5,55,100,1
5,59,100,0
5,62,100,262
5,64,100,62
5,67,100,167
5,69,100,169
5,71,100,72
5,69,100,164
5,71,100,72
5,74,100,63
5,71,100,60
5,55,100,212
5,59,100,94
5,62,100,3
5,59,100,0
5,59,100,60
5,55,100,80
5,59,100,72
5,62,100,96
5,60,100,164
5,64,100,0
5,57,100,1
5,57,100,96
5,60,100,75
5,55,100,60
5,60,100,0
5,64,100,1
5,60,100,32
5,55,100,1
5,64,100,0
5,59,100,55
5,62,100,0
5,55,100,1
5,59,100,13
5,62,100,0
5,55,100,97
5,59,100,64
5,62,100,33
5,59,100,59
5,55,100,60
5,59,100,0
5,62,100,1
5,55,100,33
5,59,100,76
5,62,100,1
5,55,100,84
5,59,100,84
5,62,100,96
5,62,100,55
5,55,100,2
5,59,100,48
5,55,100,42
5,59,100,95
5,62,100,45
5,59,100,38
5,55,100,97
5,59,100,16
5,62,100,44
5,59,100,20
5,57,100,68
5,60,100,0
5,64,100,0
5,60,100,49
5,57,100,6
5,55,100,57
5,64,100,0
5,60,100,0
5,55,100,61
5,60,100,79
5,64,100,0
5,59,100,68
5,62,100,0
5,55,100,1
5,59,100,46
5,62,100,0
5,55,100,96
5,59,100,75
5,59,100,52
5,55,100,1
5,62,100,0
5,59,100,131
5,55,100,0
5,59,100,71
5,62,100,46
5,55,100,0
5,59,100,0
5,55,100,44
5,59,100,31
5,62,100,11
5,59,100,57
5,55,100,0
5,62,100,0
5,62,100,88
5,59,100,0
5,59,100,81
5,62,100,0
5,55,100,96
5,59,100,84
5,55,100,131
5,59,100,0
5,62,100,1
5,59,100,160
5,53,100,0
5,62,100,0
5,53,100,44
5,59,100,44
5,53,100,1
5,62,100,0
5,53,100,48
5,55,100,151
5,60,100,0
5,64,100,1
5,55,100,54
5,60,100,55
5,64,100,97
5,60,100,6
5,55,100,6
5,60,100,52
5,64,100,0
5,55,100,0
5,64,100,46
5,60,100,0
5,55,100,22
5,60,100,67
5,64,100,95
5,60,100,67
5,64,100,0
5,55,100,0
5,55,100,81
5,55,100,31
5,59,100,0
5,62,100,0
5,59,100,77
5,62,100,0
5,55,100,96
5,59,100,71
5,62,100,16
5,59,100,8
5,55,100,76
5,64,100,65
5,57,100,0
5,60,100,0
5,57,100,75
5,57,100,53
5,62,100,0
5,66,100,1
5,59,100,116
5,62,100,0
5,55,100,1
5,55,100,76
5,59,100,96
5,55,100,75
5,59,100,37
5,62,100,0
5,55,100,1
5,60,100,161
5,64,100,0
5,57,100,0
5,60,100,38
5,64,100,0
5,57,100,2
5,60,100,72
5,64,100,1
5,57,100,4
5,66,100,51
5,62,100,1
5,57,100,0
5,64,100,112
5,60,100,1
5,59,100,164
5,62,100,0
5,55,100,1
5,59,100,87
5,62,100,0
5,55,100,97
5,59,100,72
5,62,100,98
5,59,100,73
5,62,100,0
5,57,100,140
5,60,100,0
5,64,100,0
5,57,100,76
5,60,100,87
5,55,100,68
5,60,100,1
5,64,100,0
5,55,100,78
5,60,100,85
5,64,100,0
5,55,100,63
5,62,100,0
5,59,100,1
5,59,100,76
5,62,100,1
5,55,100,96
5,59,100,75
5,59,100,81
5,62,100,0
5,55,100,156
5,59,100,0
5,62,100,0
5,62,100,55
5,59,100,1
5,55,100,97
5,59,100,84
5,62,100,20
5,55,100,77
5,62,100,0
5,55,100,155
5,59,100,0
5,59,100,168
5,62,100,0
5,55,100,61
5,59,100,95
5,55,100,64
5,59,100,0
5,62,100,1
5,60,100,152
5,64,100,0
5,57,100,1
5,57,100,0
5,60,100,96
5,64,100,1
5,57,100,77
5,60,100,60
5,55,100,0
5,64,100,0
5,60,100,27
5,64,100,1
5,55,100,4
5,55,100,31
5,59,100,0
5,62,100,0
5,59,100,68
5,62,100,0
5,55,100,96
5,59,100,73
5,62,100,6
5,62,100,61
5,59,100,1
5,55,100,64
5,59,100,0
5,59,100,34
5,62,100,43
5,55,100,5
5,55,100,49
5,59,100,48
5,62,100,48
5,59,100,63
5,59,100,75
5,55,100,0
5,62,100,1
5,59,100,93
5,62,100,0
5,55,100,96
5,59,100,76
5,59,100,51
5,59,100,64
5,55,100,1
5,62,100,0
5,55,100,57
5,53,100,83
5,62,100,0
5,59,100,0
5,59,100,0
5,62,100,0
5,53,100,0
5,53,100,3
5,59,100,94
5,59,100,45
5,62,100,0
5,59,100,44
5,55,100,160
5,60,100,0
5,64,100,1
5,64,100,144
5,60,100,1
5,55,100,96
5,60,100,82
5,60,100,60
5,55,100,2
5,64,100,71
5,60,100,47
5,55,100,60
5,60,100,96
5,55,100,63
5,64,100,1
5,60,100,56
5,55,100,52
5,55,100,52
5,64,100,0
5,60,100,2
5,60,100,49
5,55,100,96
5,55,100,56
5,59,100,0
5,62,100,0
5,59,100,160
5,62,100,0
5,55,100,60
5,59,100,95
5,59,100,93
5,62,100,0
5,55,100,0
5,64,100,163
5,60,100,1
5,57,100,0
5,57,100,178
5,62,100,0
5,66,100,0
5,55,100,187
5,62,100,0
5,59,100,1
5,62,100,157
5,59,100,1
5,55,100,95
5,59,100,86
5,55,100,148
5,59,100,0
5,62,100,1
5,60,100,165
5,64,100,0
5,57,100,0
5,57,100,56
5,60,100,87
5,64,100,0
5,57,100,88
5,66,100,55
5,57,100,0
5,62,100,0
5,60,100,140
5,64,100,0
5,55,100,168
5,59,100,0
5,62,100,0
5,62,100,169
5,59,100,0
5,55,100,95
5,59,100,86
5,59,100,69
5,55,100,0
5,62,100,0
5,57,100,164
5,60,100,0
5,64,100,0
5,57,100,73
5,60,100,76
5,64,100,0
5,55,100,72
5,64,100,0
5,60,100,0
5,60,100,63
5,64,100,0
5,55,100,1
5,62,100,65
5,59,100,1
5,55,100,0
5,59,100,33
5,62,100,0
5,59,100,68
5,55,100,64
5,59,100,82
5,59,100,45
5,62,100,0
5,55,100,1
5,60,100,168
5,64,100,0
5,57,100,0
5,57,100,48
5,66,100,67
5,62,100,0
5,60,100,44
5,64,100,0
5,59,100,60
5,62,100,0
5,60,100,52
5,64,100,0
5,59,100,69
5,55,100,0
5,60,100,0
5,62,100,32
5,59,100,1
5,59,100,67
5,55,100,76
5,59,100,75
5,55,100,65
5,59,100,0
5,62,100,0
5,60,100,165
5,64,100,0
5,57,100,0
5,60,100,191
5,64,100,0
5,57,100,1
5,57,100,68
5,62,100,0
5,66,100,0
5,60,100,117
5,64,100,0
5,59,100,157
5,62,100,0
5,55,100,0
5,55,100,260
5,59,100,94
5,62,100,41
5,59,100,56
5,60,100,160
5,64,100,0
5,57,100,1
5,66,100,369
5,62,100,0
5,64,100,158
5,60,100,1
5,59,100,169
5,55,100,0
5,62,100,0
5,55,100,459
5,59,100,51
5,62,100,32
5,57,100,81
5,60,100,1
5,64,100,0
5,60,100,243
5,64,100,0
5,57,100,0
5,64,100,80
5,55,100,0
5,60,100,0
5,60,100,264
5,64,100,0
5,59,100,72
5,62,100,0
5,55,100,0
5,55,100,264
5,59,100,55
5,62,100,64
5,59,100,60
5,55,100,19
5,57,100,114
5,60,100,0
5,64,100,0
5,62,100,365
5,66,100,0
5,60,100,159
5,64,100,0
5,62,101,169
5,55,101,0
5,59,101,1
5,64,68,755
5,60,68,0
5,62,34,732
5,66,34,0
6,31,127,576
6,31,127,48
6,31,127,48
6,31,127,52
6,31,127,80
6,31,127,28
6,31,127,52
6,31,127,92
6,31,127,44
6,31,127,52
6,31,127,60
6,31,127,40
6,38,127,12
6,31,127,24
6,31,127,76
6,31,127,48
6,33,127,60
6,33,127,52
6,36,127,16
6,31,127,40
6,31,127,56
6,31,127,44
6,38,127,192
6,31,127,20
6,31,127,60
6,31,127,48
6,38,127,192
6,31,127,40
6,31,127,76
6,31,127,48
6,33,127,72
6,33,127,44
6,36,127,24
6,31,127,36
6,31,127,76
6,31,127,48
6,38,127,192
6,31,127,24
6,31,127,68
6,31,127,44
6,38,127,192
6,31,127,40
6,31,127,72
6,31,127,52
6,31,127,56
6,31,127,64
6,33,127,12
6,35,127,32
6,36,127,60
6,36,127,48
6,36,127,40
6,36,127,60
6,36,127,56
6,36,127,48
6,31,127,52
6,31,127,52
6,31,127,36
6,33,127,52
6,33,127,64
6,38,127,20
6,31,127,36
6,31,127,60
6,31,127,48
6,33,127,40
6,33,127,76
6,38,127,16
6,38,127,28
6,31,127,36
6,31,127,60
6,31,127,48
6,33,127,36
6,33,127,64
6,36,127,16
6,31,127,24
6,31,127,48
6,31,127,40
6,38,127,192
6,31,127,12
6,31,127,52
6,31,127,44
6,38,127,192
6,31,127,32
6,31,127,48
6,31,127,36
6,33,127,52
6,33,127,60
6,36,127,28
6,31,127,32
6,31,127,64
6,31,127,44
6,38,127,192
6,31,127,36
6,31,127,60
6,31,127,48
6,38,127,192
6,31,127,56
6,31,127,60
6,31,127,44
6,31,127,48
6,31,127,56
6,33,127,20
6,35,127,16
6,36,127,64
6,36,127,48
6,36,127,40
6,36,127,60
6,36,127,52
6,36,127,44
6,31,127,48
6,31,127,48
6,31,127,52
6,33,127,64
6,33,127,48
6,36,127,24
6,31,127,68
6,31,127,48
6,31,127,44
6,33,127,56
6,33,127,52
6,38,127,24
6,38,127,44
6,31,127,72
6,31,127,68
6,31,127,48
6,33,127,72
6,33,127,60
6,36,127,40
6,31,127,52
6,31,127,72
6,31,127,40
6,31,127,56
6,31,127,52
6,31,127,36
6,38,127,8
6,31,127,8
6,31,127,68
6,31,127,48
6,33,127,52
6,33,127,72
6,36,127,20
6,31,127,48
6,31,127,68
6,31,127,44
6,31,127,52
6,31,127,36
6,31,127,48
6,38,127,192
6,31,127,40
6,31,127,60
6,31,127,48
6,31,127,60
6,31,127,56
6,33,127,28
6,35,127,28
6,36,127,52
6,36,127,56
6,36,127,44
6,36,127,60
6,36,127,40
6,36,127,36
6,31,127,56
6,31,127,48
6,31,127,40
6,33,127,68
6,38,127,40
6,31,127,48
6,31,127,36
6,31,127,48
6,33,127,44
6,33,127,52
6,38,127,20
6,36,127,32
6,31,127,88
6,31,127,56
6,31,127,52
6,31,127,40
6,33,127,40
6,33,127,56
6,38,127,36
6,38,127,48
6,31,127,36
6,31,127,52
6,31,127,48
6,31,127,24
6,33,127,40
6,33,127,80
6,38,127,20
6,36,127,4
6,31,127,56
6,31,127,64
6,31,127,48
6,33,127,48
6,33,127,52
6,36,127,28
6,36,127,32
6,31,127,44
6,31,127,52
6,31,127,48
6,33,127,60
6,33,127,52
6,38,127,28
6,36,127,24
6,31,127,56
6,31,127,64
6,31,127,48
6,33,127,44
6,33,127,56
6,38,127,36
6,36,127,56
6,31,127,72
6,31,127,68
6,31,127,52
6,33,127,64
6,33,127,56
6,36,127,40
6,36,127,44
6,31,127,48
6,36,95,64
6,38,61,64
7,62,127,552
7,64,127,388
7,67,127,160
7,69,127,176
7,71,127,92
7,69,127,164
7,71,127,104
7,83,95,364
7,81,95,176
7,79,95,160
7,78,95,164
7,76,95,200
7,71,95,180
7,69,95,64
7,71,95,72
7,62,111,1880
7,64,111,88
7,67,111,156
7,69,111,180
7,71,111,96
7,69,111,164
7,71,111,80
7,62,111,1952
7,64,111,100
7,67,111,176
7,69,111,176
7,71,111,88
7,69,111,0
7,71,111,92
7,74,111,60
7,71,111,4
7,67,111,4
7,65,111,772
7,67,111,4
7,76,111,0
7,72,111,4
7,74,111,68
7,71,111,4
7,72,111,44
7,69,111,4
7,76,111,4
7,62,111,360
7,66,111,8
7,67,111,16
7,71,111,8
7,62,111,8
7,64,111,76
7,67,111,160
7,69,111,180
7,71,111,84
7,69,111,192
7,71,111,92
7,74,111,68
7,71,111,88
7,67,111,84
7,62,111,104
7,62,111,1520
7,64,111,96
7,67,111,180
7,69,111,180
7,71,111,92
7,69,111,156
7,71,111,88
7,62,111,1968
7,64,111,96
7,67,111,172
7,69,111,180
7,71,111,88
7,69,111,152
7,71,111,100
7,74,111,344
7,67,111,8
7,65,111,0
7,72,111,44
7,76,111,4
7,67,111,0
7,72,111,8
7,71,111,88
7,69,111,72
7,67,111,84
7,64,111,0
7,71,111,740
7,67,111,4
7,74,111,564
7,72,111,92
7,69,111,4
7,74,111,32
7,69,111,4
7,71,111,8
7,67,111,4
7,62,111,12
7,64,111,84
7,67,111,168
7,69,111,172
7,71,111,88
7,69,111,160
7,71,111,92
7,74,111,72
7,71,111,92
7,67,111,84
7,62,111,0
7,62,111,1572
7,64,111,96
7,67,111,184
7,69,111,176
7,71,111,84
7,69,111,168
7,71,111,92
7,62,111,1916
7,64,111,96
7,67,111,172
7,69,111,176
7,71,111,92
7,69,111,168
7,71,111,88
7,67,111,348
7,74,111,4
7,65,111,8
7,72,111,44
7,67,111,4
7,76,111,4
7,72,111,8
7,71,111,100
7,69,111,84
7,67,111,72
7,64,111,4
7,74,111,4
7,71,111,4
7,67,111,4
7,72,111,40
7,69,111,0
7,74,111,792
7,67,95,60
7,74,95,0
7,71,95,8
7,62,127,252
7,64,127,20
7,67,127,164
7,69,127,148
7,71,127,72
7,69,127,172
7,71,127,88
7,67,95,80
7,71,95,0
