track,note,velocity,time
3,67,78,1140
3,63,78,0
3,58,80,0
3,65,88,0
3,70,71,172
3,75,67,212
3,77,78,204
3,79,78,348
3,65,88,188
3,67,78,0
3,62,82,4
3,58,74,8
3,70,71,104
3,74,82,200
3,77,78,0
3,79,82,384
3,70,71,4
3,75,73,112
3,79,74,0
3,72,80,8
3,75,74,20
3,67,82,172
3,70,88,68
3,70,82,56
3,63,74,188
3,67,82,196
3,60,65,172
3,63,80,120
3,56,71,160
3,56,82,152
3,58,104,0
3,70,71,212
3,75,73,192
3,77,76,0
3,79,82,380
3,65,74,0
3,67,64,4
3,67,64,4
3,62,88,4
3,65,76,4
3,70,64,132
3,74,85,192
3,77,76,4
3,79,82,36
3,70,68,0
3,75,74,148
3,79,80,4
3,72,74,0
3,75,74,16
3,67,74,68
3,70,91,68
3,70,88,108
3,63,71,192
3,67,85,200
3,60,74,8
3,63,80,208
3,56,78,352
3,58,82,188
3,67,82,8
3,58,78,4
3,63,78,0
3,65,95,0
3,62,88,336
3,65,95,4
3,58,78,4
3,65,85,12
3,56,74,0
3,63,78,0
3,60,78,0
3,70,80,8
3,67,78,4
3,64,80,4
3,60,74,0
3,68,80,4
3,63,73,4
3,65,76,0
3,60,73,4
3,65,78,32
3,71,78,0
3,67,78,4
3,62,78,4
3,70,74,60
3,63,66,4
3,68,71,4
3,60,71,4
3,68,68,124
3,75,91,4
3,65,82,100
3,63,60,72
3,72,88,16
3,65,88,8
3,58,73,8
3,63,67,0
3,67,91,8
3,70,91,12
3,65,82,0
3,70,88,28
3,62,74,8
3,70,82,16
3,63,78,4
3,74,85,4
3,60,88,0
3,67,78,8
3,70,82,0
3,75,78,8
3,67,39,8
3,72,74,40
3,67,57,0
3,75,75,28
3,63,75,0
3,67,75,8
3,72,75,0
3,63,80,288
3,72,82,0
3,68,78,0
3,65,85,4
3,67,79,236
3,68,79,0
3,72,79,0
3,72,78,160
3,68,78,0
3,67,78,0
3,65,85,0
3,55,74,200
3,56,76,4
3,60,71,0
3,63,71,0
3,67,88,84
3,63,78,0
3,60,80,0
3,58,71,4
3,67,95,4
3,63,74,0
3,58,78,4
3,60,82,4
3,67,82,8
3,70,80,4
3,62,85,4
3,65,88,0
3,68,80,372
3,65,85,4
3,63,71,4
3,60,76,4
3,71,91,16
3,68,88,0
3,65,91,4
3,61,74,4
3,65,107,8
3,72,88,200
3,77,86,4
3,65,72,4
3,70,82,156
3,67,85,0
3,62,85,0
3,65,82,4
3,68,78,12
3,75,71,4
3,65,88,0
3,72,88,4
3,55,88,76
3,58,74,184
3,63,71,184
3,65,85,192
3,67,78,0
3,55,82,48
3,58,78,192
3,62,70,152
3,65,78,44
3,67,74,372
3,56,80,20
3,60,68,188
3,63,74,208
3,65,85,176
3,67,91,380
3,53,91,12
3,56,71,180
3,59,76,180
3,63,80,188
3,65,82,384
3,55,88,12
3,58,74,148
3,63,71,168
3,65,85,200
3,67,76,16
3,53,85,4
3,56,68,164
3,58,80,184
3,61,74,192
3,65,95,380
3,55,88,236
3,58,74,140
3,60,74,208
3,64,76,180
3,67,82,384
3,58,80,240
3,60,78,48
3,64,68,156
3,67,80,0
3,70,78,376
3,60,73,12
3,68,70,364
3,63,72,4
3,65,72,4
3,59,82,4
3,63,74,372
3,68,74,0
3,65,74,8
3,67,82,0
3,58,78,4
3,63,78,0
3,65,95,0
3,62,88,336
3,65,95,4
3,58,78,4
3,65,85,12
3,56,74,0
3,63,78,0
3,60,78,0
3,70,80,8
3,67,78,4
3,64,80,4
3,60,74,0
3,68,80,4
3,63,73,4
3,65,76,0
3,60,73,4
3,65,78,32
3,71,78,0
3,67,78,4
3,62,78,4
3,70,74,60
3,63,66,4
3,68,71,4
3,60,71,4
3,68,68,124
3,75,91,4
3,65,82,100
3,63,60,72
3,72,88,16
3,65,88,8
3,58,73,8
3,63,67,0
3,67,91,8
3,70,91,12
3,65,82,0
3,70,88,28
3,62,74,8
3,70,82,16
3,63,78,4
3,74,85,4
3,60,88,0
3,67,78,8
3,70,82,0
3,75,78,8
3,67,39,8
3,72,74,40
3,67,57,0
3,75,75,28
3,63,75,0
3,67,75,8
3,72,75,0
3,63,80,288
3,72,82,0
3,68,78,0
3,65,85,4
3,67,79,236
3,68,79,0
3,72,79,0
3,72,78,160
3,68,78,0
3,67,78,0
3,65,85,0
3,55,74,200
3,56,76,4
3,60,71,0
3,63,71,0
3,67,88,84
3,63,78,0
3,60,80,0
3,58,71,4
3,67,95,4
3,63,74,0
3,58,78,4
3,60,82,4
3,67,82,8
3,70,80,4
3,62,85,4
3,65,88,0
3,68,80,372
3,65,85,4
3,63,71,4
3,60,76,4
3,71,91,16
3,68,88,0
3,65,91,4
3,61,74,4
3,65,107,8
3,72,88,200
3,77,86,4
3,65,72,4
3,70,82,156
3,67,85,0
3,62,85,0
3,65,82,4
3,68,78,12
3,75,71,4
3,65,88,0
3,72,88,4
3,55,88,76
3,58,74,184
3,63,71,184
3,65,85,192
3,67,78,0
3,55,82,48
3,58,78,192
3,62,70,152
3,65,78,44
3,67,74,372
3,56,80,20
3,60,68,188
3,63,74,208
3,65,85,176
3,67,91,380
3,53,91,12
3,56,71,180
3,59,76,180
3,63,80,188
3,65,82,384
3,55,88,12
3,58,74,148
3,63,71,168
3,65,85,200
3,67,76,16
3,53,85,4
3,56,68,164
3,58,80,184
3,61,74,192
3,65,95,380
3,55,88,236
3,58,74,140
3,60,74,208
3,64,76,180
3,67,82,384
3,58,80,240
3,60,78,48
3,64,68,156
3,67,80,0
3,70,78,376
3,60,73,12
3,68,70,364
3,63,72,4
3,65,72,4
3,59,82,4
3,63,74,372
3,68,74,0
3,65,74,8
3,67,82,0
3,58,78,4
3,63,78,0
3,65,95,0
3,62,88,336
3,65,95,4
3,58,78,4
3,65,85,12
3,56,74,0
3,63,78,0
3,60,78,0
3,70,80,8
3,67,78,4
3,64,80,4
3,60,74,0
3,68,80,4
3,63,73,4
3,65,76,0
3,60,73,4
3,65,78,32
3,71,78,0
3,67,78,4
3,62,78,4
3,70,74,60
3,63,66,4
3,68,71,4
3,60,71,4
3,68,68,124
3,75,91,4
3,65,82,100
3,63,60,72
3,72,88,16
3,65,88,8
3,58,73,8
3,63,67,0
3,67,91,8
3,70,91,12
3,65,82,0
3,70,88,28
3,62,74,8
3,70,82,16
3,63,78,4
3,74,85,4
3,60,88,0
3,67,78,8
3,70,82,0
3,75,78,8
3,67,39,8
3,72,74,40
3,67,57,0
3,75,75,28
3,63,75,0
3,67,75,8
3,72,75,0
3,63,80,288
3,72,82,0
3,68,78,0
3,65,85,4
3,67,79,236
3,68,79,0
3,72,79,0
3,72,78,160
3,68,78,0
3,67,78,0
3,65,85,0
3,55,74,200
3,56,76,4
3,60,71,0
3,63,71,0
3,67,88,84
3,63,78,0
3,60,80,0
3,58,71,4
3,67,95,4
3,63,74,0
3,58,78,4
3,60,82,4
3,67,82,8
3,70,80,4
3,62,85,4
3,65,88,0
3,68,80,372
3,65,85,4
3,63,71,4
3,60,76,4
3,71,91,16
3,68,88,0
3,65,91,4
3,61,74,4
3,65,107,8
3,72,88,200
3,77,86,4
3,65,72,4
3,70,82,156
3,67,85,0
3,62,85,0
3,65,82,4
3,68,78,12
3,75,71,4
3,65,88,0
3,72,88,4
3,55,88,76
3,58,74,184
3,63,71,184
3,65,85,192
3,67,78,0
3,55,82,48
3,58,78,192
3,62,70,152
3,65,78,44
3,67,74,372
3,56,80,20
3,60,68,188
3,63,74,208
3,65,85,176
3,67,91,380
3,53,91,12
3,56,71,180
3,59,76,180
3,63,80,188
3,65,82,384
3,55,88,12
3,58,74,148
3,63,71,168
3,65,85,200
3,67,76,16
3,53,85,4
3,56,68,164
3,58,80,184
3,61,74,192
3,65,95,380
3,55,88,236
3,58,74,140
3,60,74,208
3,64,76,180
3,67,82,384
3,58,80,240
3,60,78,48
3,64,68,156
3,67,80,0
3,70,78,376
3,60,73,12
3,68,70,364
3,63,72,4
3,65,72,4
3,59,82,4
3,63,74,372
3,68,74,0
3,65,74,8
3,63,80,0
3,67,82,0
3,65,91,0
3,58,78,4
3,62,82,220
3,65,88,0
3,63,80,208
3,70,91,4
3,60,88,0
3,56,80,0
3,60,66,40
3,63,71,92
3,65,82,96
3,67,82,12
3,70,78,0
3,67,73,8
3,70,95,32
3,75,78,100
3,77,88,64
3,67,66,0
3,70,71,28
3,75,78,0
3,77,80,72
3,79,66,88
3,60,80,4
3,82,95,4
3,87,82,96
3,89,104,8
3,63,74,0
3,87,104,92
3,55,88,12
3,58,74,180
3,63,71,184
3,65,85,192
3,67,78,0
3,55,82,48
3,58,78,192
3,62,70,152
3,65,78,44
3,67,74,372
3,56,80,20
3,60,68,188
3,63,74,208
3,65,85,176
3,67,91,380
3,53,91,12
3,56,71,180
3,59,76,180
3,63,80,188
3,65,82,384
3,55,88,12
3,58,74,148
3,63,71,168
3,65,85,200
3,67,76,16
3,53,85,4
3,56,68,164
3,58,80,184
3,61,74,192
3,65,95,380
3,55,88,236
3,58,74,140
3,60,74,208
3,64,76,180
3,67,82,384
3,58,80,240
3,60,78,48
3,64,68,156
3,67,80,0
3,70,78,376
3,60,73,12
3,68,70,364
3,63,72,4
3,65,72,4
3,59,82,4
3,63,74,372
3,68,74,0
3,65,74,8
3,63,80,0
3,67,82,0
3,65,91,0
3,58,78,4
3,62,82,220
3,65,88,0
3,63,80,208
3,70,91,4
3,60,88,0
3,56,80,0
3,60,66,40
3,63,71,92
3,65,82,96
3,67,82,12
3,70,78,0
3,67,73,8
3,70,95,32
3,75,78,100
3,77,88,64
3,67,66,0
3,70,71,28
3,75,78,0
3,77,80,72
3,79,66,88
3,60,80,4
3,82,95,4
3,87,82,96
3,89,104,8
3,63,74,0
3,87,104,92
3,55,88,12
3,58,74,180
3,63,71,184
3,65,85,192
3,67,78,0
3,55,82,48
3,58,78,192
3,62,70,152
3,65,78,44
3,67,74,372
3,56,80,20
3,60,68,188
3,63,74,208
3,65,85,176
3,67,91,380
3,53,91,12
3,56,71,180
3,59,76,180
3,63,80,188
3,65,82,384
3,55,88,12
3,58,74,4
3,63,71,36
3,65,85,96
3,67,76,16
3,53,85,4
3,56,68,132
3,58,80,36
3,61,74,88
3,65,95,52
3,55,88,76
3,58,74,124
3,60,74,56
3,64,76,96
3,67,82,64
3,58,80,92
3,60,78,4
3,64,68,68
3,67,80,0
3,70,78,68
3,60,73,12
3,68,70,56
3,63,72,4
3,65,72,4
3,59,82,4
3,63,74,60
3,68,74,0
3,65,74,8
3,63,80,0
3,67,82,0
3,65,91,0
3,58,78,4
4,39,90,1120
4,46,100,20
4,34,98,4
4,39,92,4
4,46,93,8
4,44,92,216
4,46,93,108
4,41,93,4
4,34,89,4
4,34,89,44
4,41,92,4
4,46,90,4
4,41,92,4
4,39,84,16
4,39,85,104
4,39,89,108
4,34,85,28
4,39,93,32
4,39,92,96
4,39,92,116
4,34,93,4
4,44,94,24
4,44,90,68
4,44,89,88
4,46,92,20
4,46,90,64
4,46,96,72
4,39,88,4
4,39,88,80
4,43,92,4
4,43,92,84
4,41,93,12
4,41,93,60
4,36,89,4
4,36,89,52
4,41,92,4
4,41,93,64
4,43,92,4
4,43,90,76
4,46,89,16
4,41,94,220
4,34,89,4
4,46,93,4
4,41,93,4
4,39,89,8
4,39,89,132
4,31,82,24
4,31,87,108
4,36,96,4
4,43,89,4
4,36,89,4
4,36,89,56
4,41,91,12
4,36,91,28
4,41,91,4
4,41,93,100
4,34,87,4
4,34,89,76
4,41,93,4
4,46,92,4
4,41,94,8
4,44,93,96
4,44,91,128
4,39,87,192
4,43,93,4
4,43,94,112
4,38,91,8
4,43,92,4
4,43,94,64
4,41,94,84
4,41,94,4
4,41,101,48
4,36,90,40
4,41,95,104
4,36,92,88
4,37,91,100
4,37,88,64
4,37,91,56
4,37,92,120
4,31,92,44
4,31,89,92
4,38,96,32
4,31,89,20
4,46,93,196
4,46,88,52
4,46,89,56
4,39,90,124
4,46,90,56
4,34,91,4
4,39,92,28
4,46,86,28
4,34,89,4
4,44,91,24
4,44,89,76
4,39,87,12
4,41,91,4
4,44,89,60
4,36,93,20
4,38,91,4
4,39,89,8
4,39,91,64
4,39,92,80
4,39,97,92
4,38,92,4
4,37,83,4
4,37,91,56
4,37,89,80
4,37,89,40
4,36,92,28
4,36,91,88
4,31,88,4
4,36,94,8
4,46,92,312
4,43,95,40
4,40,92,8
4,36,89,4
4,41,91,4
4,41,91,4
4,41,94,44
4,41,99,36
4,36,88,36
4,41,92,24
4,43,95,48
4,44,92,100
4,39,89,44
4,44,89,76
4,39,89,36
4,39,89,76
4,43,96,20
4,43,92,76
4,41,91,8
4,41,90,76
4,36,90,12
4,36,89,88
4,41,93,8
4,41,94,72
4,43,93,16
4,43,95,164
4,34,89,12
4,41,91,4
4,38,89,4
4,46,88,4
4,41,85,4
4,39,85,4
4,39,93,56
4,31,87,4
4,31,86,60
4,36,93,8
4,48,90,20
4,43,91,4
4,41,88,12
4,41,92,88
4,39,85,4
4,36,79,4
4,41,91,8
4,36,86,4
4,34,89,68
4,46,95,4
4,41,92,4
4,44,91,24
4,44,91,60
4,44,91,244
4,39,90,212
4,43,91,4
4,43,96,168
4,38,89,4
4,43,92,4
4,42,87,4
4,41,90,8
4,36,88,24
4,41,93,88
4,36,90,40
4,37,88,44
4,37,88,60
4,37,85,68
4,37,91,64
4,43,96,40
4,43,93,96
4,38,91,24
4,43,93,4
4,46,89,212
4,46,89,28
4,41,92,28
4,39,88,4
4,46,93,4
4,34,88,4
4,39,89,4
4,46,91,16
4,39,88,4
4,44,90,4
4,44,92,68
4,39,85,64
4,41,92,96
4,44,95,160
4,35,91,72
4,37,92,24
4,39,92,48
4,39,89,64
4,39,92,68
4,39,97,120
4,38,93,4
4,37,92,4
4,37,89,72
4,37,90,56
4,37,89,80
4,36,92,76
4,36,96,100
4,31,87,16
4,36,93,4
4,46,95,344
4,43,93,20
4,40,92,12
4,36,87,4
4,41,92,16
4,36,91,80
4,41,94,4
4,43,94,20
4,44,89,16
4,39,89,4
4,44,90,16
4,39,93,168
4,39,86,68
4,43,92,12
4,43,89,80
4,41,93,4
4,41,92,96
4,36,90,4
4,36,91,112
4,41,92,4
4,41,94,92
4,43,91,4
4,43,91,88
4,46,92,4
4,46,91,52
4,41,88,4
4,41,91,60
4,46,89,4
4,41,91,40
4,39,86,4
4,39,89,100
4,43,90,4
4,43,95,92
4,36,86,4
4,43,91,16
4,36,89,8
4,36,91,44
4,41,92,4
4,36,90,12
4,41,91,4
4,36,92,4
4,29,83,4
4,41,92,4
4,46,92,4
4,41,92,52
4,46,88,4
4,41,95,4
4,44,90,208
4,44,85,88
4,44,92,72
4,44,90,12
4,39,85,216
4,43,93,124
4,43,94,196
4,38,87,40
4,43,96,64
4,42,93,104
4,41,91,120
4,41,92,132
4,41,95,104
4,36,84,20
4,41,93,88
4,36,92,84
4,37,88,100
4,37,88,52
4,37,89,32
4,37,82,56
4,43,89,12
4,43,96,96
4,38,91,8
4,43,95,4
4,43,90,60
4,46,89,4
4,46,92,64
4,46,87,44
4,46,89,32
4,46,96,32
4,46,90,36
4,39,87,12
4,39,86,80
4,39,89,92
4,46,93,4
4,34,89,4
4,39,92,4
4,39,90,76
4,39,93,72
4,46,89,16
4,34,87,4
4,44,91,4
4,44,89,92
4,39,89,4
4,41,93,32
4,44,91,184
4,44,91,36
4,44,90,24
4,35,93,228
4,37,94,32
4,39,92,8
4,39,86,96
4,39,94,84
4,46,93,32
4,39,91,4
4,37,87,4
4,37,91,80
4,37,92,64
4,37,88,76
4,36,95,28
4,36,90,72
4,31,84,8
4,36,95,4
4,36,92,36
4,36,95,48
4,46,96,96
4,43,94,108
4,40,95,96
4,36,88,28
4,41,94,12
4,41,91,40
4,41,93,28
4,41,97,48
4,36,91,56
4,41,96,60
4,43,96,76
4,44,95,84
4,44,84,36
4,44,92,60
