track,note,velocity,time
1,57,65,0
1,64,72,3
1,60,61,1
1,69,75,5
1,57,51,1
1,60,68,1
1,64,75,1
1,69,70,1
1,57,66,1
1,60,62,1
1,64,70,1
1,69,73,1
1,57,63,1
1,60,68,1
1,64,79,1
1,69,67,1
1,57,65,5
1,64,72,4
1,60,61,1
1,69,75,5
1,57,51,1
1,60,68,1
1,64,75,1
1,69,70,1
1,57,66,1
1,60,62,1
1,64,70,1
1,69,73,1
1,57,63,1
1,60,68,1
1,64,79,1
1,69,67,1
1,57,65,5
1,64,72,4
1,60,61,1
1,69,75,5
1,57,51,1
1,60,68,1
1,64,75,1
1,69,70,1
1,57,66,1
1,60,62,1
1,64,70,1
1,69,73,1
1,57,63,1
1,60,68,1
1,64,79,1
1,69,67,1
1,57,65,5
1,64,72,4
1,60,61,1
1,69,75,5
1,57,51,1
1,60,68,1
1,64,75,1
1,69,70,1
1,57,66,1
1,60,62,1
1,64,70,1
1,69,73,1
1,57,63,1
1,60,68,1
1,64,79,1
1,69,67,1
1,57,65,5
1,64,72,4
1,60,61,1
1,69,75,5
1,57,51,1
1,60,68,1
1,64,75,1
1,69,70,1
1,57,66,1
1,60,62,1
1,64,70,1
1,69,73,1
1,57,63,1
1,60,68,1
1,64,79,1
1,69,67,1
1,50,65,5
1,60,72,4
1,54,61,1
1,62,75,5
1,50,51,1
1,54,68,1
1,60,75,1
1,62,70,1
1,50,66,1
1,54,62,1
1,60,70,1
1,62,73,1
1,50,63,1
1,54,68,1
1,60,79,1
1,62,67,1
1,43,87,5
1,55,64,2
1,59,64,0
1,62,64,0
1,67,64,0
1,62,64,1
1,67,64,0
1,59,64,0
1,55,45,1
1,59,45,0
1,59,59,1
1,62,68,0
1,67,64,0
1,55,47,1
1,59,47,0
1,59,95,1
1,62,95,0
1,67,95,0
1,62,92,1
1,59,92,0
1,67,92,0
1,55,92,0
1,62,83,1
1,67,81,0
1,59,68,0
1,55,50,1
1,59,50,0
1,62,66,1
1,59,56,0
1,67,68,0
1,55,47,1
1,59,47,0
1,62,93,0
1,59,93,0
1,67,93,1
1,45,70,18
1,57,68,0
1,64,86,0
1,69,85,0
1,60,85,0
1,64,60,1
1,60,55,0
1,69,57,0
1,57,43,1
1,60,43,0
1,64,65,1
1,69,73,0
1,60,63,0
1,57,50,1
1,60,50,0
1,69,86,1
1,60,87,0
1,64,91,0
1,50,66,16
1,66,78,1
1,62,75,0
1,57,80,0
1,60,80,0
1,62,75,1
1,60,75,0
1,57,75,0
1,62,87,1
1,60,92,0
1,57,90,0
1,62,101,1
1,57,101,0
1,60,101,0
1,59,84,19
1,62,92,0
1,67,92,0
1,43,80,0
1,55,79,0
1,62,60,1
1,59,53,0
1,67,59,0
1,55,44,1
1,59,44,0
1,62,80,1
1,67,80,0
1,59,80,0
1,55,70,1
1,59,70,0
1,59,80,1
1,67,94,0
1,62,94,0
1,55,81,8
1,48,78,0
1,67,95,1
1,60,84,0
1,64,90,0
1,67,73,1
1,64,73,0
1,60,73,0
1,55,55,1
1,60,55,0
1,67,83,1
1,64,76,0
1,60,74,0
1,55,60,1
1,60,71,0
1,67,98,1
1,60,85,0
1,64,92,0
1,62,90,11
1,59,90,0
1,67,90,0
1,55,90,0
1,43,90,0
1,62,72,1
1,67,72,0
1,59,72,0
1,55,57,1
1,59,57,0
1,59,85,1
1,62,85,0
1,67,85,0
1,59,71,1
1,55,68,0
1,59,64,1
1,62,64,0
1,67,64,0
1,62,89,1
1,59,89,0
1,67,89,0
1,55,89,0
1,62,83,1
1,67,81,0
1,59,68,0
1,55,70,1
1,59,72,0
1,62,102,1
1,59,102,0
1,67,102,0
1,55,61,1
1,59,68,0
1,62,75,0
1,59,75,0
1,67,75,1
1,59,84,17
1,62,92,0
1,67,92,0
1,43,80,0
1,55,79,0
1,62,60,1
1,59,53,0
1,67,59,0
1,55,57,1
1,59,56,0
1,62,70,1
1,67,73,0
1,59,64,0
1,55,80,1
1,59,78,0
1,67,94,0
1,59,80,1
1,62,94,0
1,55,81,8
1,48,78,0
1,67,95,1
1,60,84,0
1,64,90,0
1,67,80,1
1,64,70,0
1,60,59,0
1,55,71,1
1,60,77,0
1,67,83,1
1,64,76,0
1,60,74,0
1,60,71,1
1,55,60,1
1,67,98,1
1,60,85,0
1,64,92,0
1,53,86,11
1,65,97,0
1,41,84,0
1,57,100,0
1,60,104,0
1,60,51,1
1,57,51,0
1,65,51,0
1,57,78,0
1,60,78,1
1,65,97,1
1,60,97,0
1,57,97,0
1,60,42,1
1,65,42,0
1,57,42,0
1,57,66,1
1,60,66,0
1,57,99,1
1,60,99,0
1,65,99,0
1,60,47,1
1,57,47,0
1,65,47,0
1,57,55,1
1,60,62,0
1,57,98,1
1,60,106,0
1,65,102,0
1,60,66,0
1,57,48,1
1,60,96,1
1,57,96,0
1,65,96,0
1,65,79,2
1,41,75,0
1,60,87,0
1,53,76,0
1,57,86,0
1,60,64,1
1,65,50,0
1,57,48,0
1,57,56,1
1,60,56,1
1,65,81,1
1,57,92,0
1,60,97,0
1,60,73,0
1,57,68,0
1,65,64,1
1,57,59,0
1,60,59,1
1,60,74,0
1,57,74,1
1,65,74,0
1,60,70,0
1,65,68,0
1,57,65,1
1,57,56,0
1,60,56,1
1,57,81,1
1,65,86,0
1,60,92,0
1,57,92,0
1,60,75,1
1,57,92,1
1,60,98,0
1,65,91,0
1,40,80,21
1,64,87,0
1,56,82,0
1,52,70,0
1,59,95,0
1,59,68,1
1,64,76,0
1,56,58,0
1,59,58,1
1,59,95,1
1,64,104,0
1,59,68,1
1,64,73,0
1,56,68,0
1,59,70,1
1,59,68,1
1,64,65,0
1,59,66,1
1,64,65,0
1,56,56,1
1,59,56,0
1,59,100,1
1,64,104,0
1,59,69,1
1,56,69,0
1,59,92,1
1,64,92,0
1,57,65,13
1,64,72,4
1,60,61,1
1,69,75,5
1,57,51,1
1,60,68,1
1,64,75,1
1,69,70,1
1,57,66,1
1,60,62,1
1,64,70,1
1,69,73,1
1,57,63,1
1,60,68,1
1,64,79,1
1,69,67,1
1,57,65,5
1,64,72,4
1,60,61,1
1,69,75,5
1,57,51,1
1,60,68,1
1,64,75,1
1,69,70,1
1,57,66,1
1,60,62,1
1,64,70,1
1,69,73,1
1,57,63,1
1,60,68,1
1,64,79,1
1,69,67,1
1,64,72,5
1,57,65,0
1,60,61,5
1,69,75,5
1,57,51,1
1,60,68,1
1,64,75,1
1,69,70,1
1,57,66,1
1,60,62,1
1,64,70,1
1,69,73,1
1,57,63,1
1,60,68,1
1,64,79,1
1,69,67,1
1,57,65,5
1,64,72,4
1,60,61,1
1,69,75,5
1,57,51,1
1,60,68,1
1,64,75,1
1,69,70,1
1,57,66,1
1,60,62,1
1,64,70,1
1,69,73,1
1,57,63,1
1,64,79,1
1,60,68,0
1,69,67,1
1,57,65,5
1,64,72,4
1,60,61,1
1,69,75,5
1,57,51,1
1,60,68,1
1,64,75,1
1,69,70,1
1,57,66,1
1,60,62,1
1,64,70,1
1,69,73,1
1,57,63,1
1,60,68,1
1,64,79,1
1,69,67,1
1,54,61,5
1,50,65,0
1,60,72,4
1,62,75,6
1,50,51,1
1,54,68,1
1,60,75,1
1,62,70,1
1,50,66,1
1,54,62,1
1,60,70,1
1,62,73,1
1,50,63,1
1,54,68,1
1,60,79,1
1,62,67,1
1,62,95,5
1,59,87,0
1,67,97,0
1,55,88,0
1,43,87,0
1,62,81,1
1,67,80,0
1,59,70,0
1,55,47,0
1,59,47,1
1,59,59,1
1,62,68,0
1,67,64,0
1,55,60,1
1,59,60,0
1,59,95,1
1,62,95,0
1,67,95,0
1,62,97,1
1,59,87,0
1,67,97,0
1,55,88,0
1,62,83,1
1,67,81,0
1,59,68,0
1,55,46,0
1,59,46,1
1,62,66,1
1,59,56,0
1,67,68,0
1,55,59,1
1,59,59,0
1,62,93,0
1,59,93,0
1,67,93,1
1,45,70,18
1,57,68,0
1,64,86,0
1,69,85,0
1,60,85,0
1,64,60,1
1,60,55,0
1,69,57,0
1,57,50,0
1,60,50,1
1,64,65,1
1,69,73,0
1,60,63,0
1,57,58,1
1,60,58,0
1,69,86,1
1,60,87,0
1,64,91,0
1,64,75,17
1,69,78,0
1,57,80,0
1,60,80,0
1,60,75,1
1,57,75,0
1,64,75,1
1,64,87,1
1,60,92,0
1,57,90,0
1,64,101,1
1,57,101,0
1,60,101,0
1,38,72,0
1,62,86,0
1,54,68,0
1,57,94,0
1,50,64,0
1,54,51,1
1,57,73,0
1,62,66,0
1,54,49,1
1,57,49,0
1,57,73,1
1,54,46,0
1,62,58,0
1,57,54,1
1,54,54,0
1,54,64,1
1,57,84,1
1,62,80,0
1,54,78,1
1,57,97,0
1,62,95,0
1,54,61,1
1,57,80,0
1,62,79,0
1,54,48,0
1,57,48,1
1,54,58,1
1,62,71,0
1,57,73,0
1,57,50,1
1,54,50,0
1,54,79,1
1,57,90,0
1,62,88,0
1,62,90,10
1,59,90,0
1,67,90,0
1,55,90,0
1,43,90,0
1,62,81,1
1,67,80,0
1,59,70,0
1,55,58,0
1,59,58,1
1,67,101,1
1,62,101,0
1,59,101,0
1,55,49,1
1,59,49,0
1,59,64,1
1,62,64,0
1,67,64,0
1,65,89,12
1,57,89,0
1,53,89,0
1,60,89,1
1,65,81,1
1,60,83,0
1,57,68,0
1,53,56,0
1,57,56,1
1,60,102,0
1,57,102,0
1,65,102,1
1,53,55,1
1,57,55,0
1,60,75,0
1,57,75,0
1,65,75,1
1,59,84,17
1,62,92,0
1,67,92,0
1,43,80,0
1,55,79,0
1,62,60,1
1,59,53,0
1,67,59,0
1,55,44,1
1,59,44,0
1,62,80,1
1,67,80,0
1,59,80,0
1,55,70,1
1,59,70,0
1,59,80,1
1,67,94,0
1,62,94,0
1,55,81,8
1,48,78,0
1,67,95,1
1,60,84,0
1,64,90,0
1,67,73,1
1,64,73,0
1,60,73,0
1,55,55,1
1,60,55,0
1,67,83,1
1,64,76,0
1,60,74,0
1,55,60,1
1,60,71,0
1,67,98,1
1,60,85,0
1,64,92,0
1,62,90,11
1,59,90,0
1,67,90,0
1,55,90,0
1,43,90,0
1,62,72,1
1,67,72,0
1,59,72,0
1,55,57,1
1,59,57,0
1,59,85,1
1,62,85,0
1,67,85,0
1,59,71,1
1,55,68,0
1,59,64,1
1,62,64,0
1,67,64,0
1,62,89,1
1,59,89,0
1,67,89,0
1,55,89,0
1,62,83,1
1,67,81,0
1,59,68,0
1,55,70,1
1,59,72,0
1,62,102,1
1,59,102,0
1,67,102,0
1,55,61,1
1,59,68,0
1,62,75,0
1,59,75,0
1,67,75,1
1,59,84,17
1,62,92,0
1,67,92,0
1,43,80,0
1,55,79,0
1,62,60,1
1,59,53,0
1,67,59,0
1,55,57,1
1,59,56,0
1,62,70,1
1,67,73,0
1,59,64,0
1,55,80,1
1,59,78,0
1,67,94,0
1,59,80,1
1,62,94,0
1,55,81,8
1,48,78,0
1,67,95,1
1,60,84,0
1,64,90,0
1,67,80,1
1,64,70,0
1,60,59,0
1,55,71,1
1,60,77,0
1,67,83,1
1,64,76,0
1,60,74,0
1,60,71,1
1,55,60,1
1,67,98,1
1,60,85,0
1,64,92,0
1,53,86,11
1,65,97,0
1,41,84,0
1,57,100,0
1,60,104,0
1,60,51,1
1,57,51,0
1,65,51,0
1,57,78,0
1,60,78,1
1,65,97,1
1,60,97,0
1,57,97,0
1,60,42,1
1,65,42,0
1,57,42,0
1,57,66,1
1,60,66,0
1,57,99,1
1,60,99,0
1,65,99,0
1,60,47,1
1,57,47,0
1,65,47,0
1,57,55,1
1,60,62,0
1,57,98,1
1,60,106,0
1,65,102,0
1,60,66,0
1,57,48,1
1,60,96,1
1,57,96,0
1,65,96,0
1,65,79,2
1,41,75,0
1,60,87,0
1,53,76,0
1,57,86,0
1,60,64,1
1,65,50,0
1,57,48,0
1,57,56,1
1,60,56,1
1,65,81,1
1,57,92,0
1,60,97,0
1,60,73,0
1,57,68,0
1,65,64,1
1,57,59,0
1,60,59,1
1,60,74,0
1,57,74,1
1,65,74,0
1,60,70,0
1,65,68,0
1,57,65,1
1,57,56,0
1,60,56,1
1,57,81,1
1,65,86,0
1,60,92,0
1,57,92,0
1,60,75,1
1,57,92,1
1,60,98,0
1,65,91,0
1,40,80,21
1,64,87,0
1,56,82,0
1,52,70,0
1,59,95,0
1,59,68,1
1,64,76,0
1,56,58,0
1,59,58,1
1,59,95,1
1,64,104,0
1,59,68,1
1,64,73,0
1,56,68,0
1,59,70,1
1,59,68,1
1,64,65,0
1,59,66,1
1,64,65,0
1,56,56,1
1,59,56,0
1,59,100,1
1,64,104,0
1,59,69,1
1,56,69,0
1,59,92,1
1,64,92,0
1,57,65,13
1,64,72,4
1,60,61,1
1,69,75,5
1,57,51,1
1,60,68,1
1,64,75,1
1,69,70,1
1,57,66,1
1,60,62,1
1,64,70,1
1,69,73,1
1,57,63,1
1,60,68,1
1,64,79,1
1,69,67,1
1,57,65,5
1,64,72,4
1,60,61,1
1,69,75,5
1,57,51,1
1,60,68,1
1,64,75,1
1,69,70,1
1,57,66,1
1,60,62,1
1,64,70,1
1,69,73,1
1,57,63,1
1,60,68,1
1,64,79,1
1,69,67,1
1,57,65,5
1,64,72,4
1,60,61,1
1,69,75,5
1,57,51,1
1,60,68,1
1,64,75,1
1,69,70,1
1,57,66,1
1,60,62,1
1,64,70,1
1,69,73,1
1,57,63,1
1,60,68,1
1,64,79,1
1,69,67,1
1,57,65,5
1,64,72,4
1,60,61,1
1,69,75,5
1,57,51,1
1,60,68,1
1,64,75,1
1,69,70,1
1,57,66,1
1,60,62,1
1,64,70,1
1,69,73,1
1,57,63,1
1,60,68,1
1,64,79,1
1,69,67,1
1,57,65,5
1,64,72,4
1,60,61,1
1,69,75,5
1,57,51,1
1,60,68,1
1,64,75,1
1,69,70,1
1,57,66,1
1,60,62,1
1,64,70,1
1,69,73,1
1,57,63,1
1,60,68,1
1,64,79,1
1,69,67,1
1,50,65,5
1,60,72,4
1,57,61,1
1,66,75,5
1,50,51,1
1,57,68,1
1,60,75,1
1,66,70,1
1,50,66,1
1,57,62,1
1,60,70,1
1,66,73,1
1,50,63,1
1,57,68,1
1,60,79,1
1,66,67,1
1,55,65,7
1,62,72,4
1,59,61,1
1,67,75,5
1,55,51,1
1,59,68,1
1,62,75,1
1,67,70,1
1,55,66,1
1,59,62,1
1,62,70,1
1,67,73,1
1,55,63,1
1,59,68,1
1,62,79,1
1,67,67,1
1,45,73,0
1,57,63,5
1,60,68,5
1,64,72,3
1,69,75,4
1,57,54,1
1,60,62,1
1,64,66,1
1,69,75,1
1,50,75,1
1,57,75,0
1,60,75,0
1,62,75,1
1,50,81,0
1,66,81,1
1,60,84,0
1,62,85,0
1,57,78,0
1,62,69,0
1,66,76,0
1,60,79,1
1,57,79,0
1,62,79,0
1,60,75,0
1,57,75,0
1,66,75,1
1,62,87,1
1,60,92,0
1,57,90,0
1,62,101,1
1,57,101,0
1,60,101,0
1,59,84,19
1,62,92,0
1,67,92,0
1,43,80,0
1,55,79,0
1,62,60,1
1,59,53,0
1,67,59,0
1,55,44,1
1,59,44,0
1,62,80,1
1,67,80,0
1,59,80,0
1,55,70,1
1,59,70,0
1,59,80,1
1,67,94,0
1,62,94,0
1,55,81,8
1,48,78,0
1,67,95,1
1,60,84,0
1,64,90,0
1,67,73,1
1,64,73,0
1,60,73,0
1,55,55,1
1,60,55,0
1,67,83,1
1,64,76,0
1,60,74,0
1,55,60,1
1,60,71,0
1,67,98,1
1,60,85,0
1,64,92,0
1,62,90,11
1,59,90,0
1,67,90,0
1,55,90,0
1,43,90,0
1,62,72,1
1,67,72,0
1,59,72,0
1,55,57,1
1,59,57,0
1,59,85,1
1,62,85,0
1,67,85,0
1,59,71,1
1,55,68,0
1,59,64,1
1,62,64,0
1,67,64,0
1,62,89,1
1,59,89,0
1,67,89,0
1,55,89,0
