track,note,velocity,time
1,58,119,26
1,63,119,96
1,65,119,93
1,67,114,26
1,67,119,111
1,63,116,8
1,65,119,1
1,67,119,94
1,63,119,4
1,64,119,17
1,65,119,100
1,67,119,7
1,68,119,12
1,68,119,70
1,68,119,78
1,60,117,12
1,67,119,14
1,68,119,6
1,65,119,8
1,67,119,6
1,68,119,93
1,70,119,4
1,70,107,78
1,70,119,75
1,67,116,10
1,70,119,94
1,72,119,14
1,70,119,183
1,67,119,8
1,65,119,95
1,63,119,79
1,63,115,76
1,65,112,9
1,67,115,92
1,68,115,80
1,68,118,61
1,68,103,66
1,68,119,66
1,70,119,10
1,67,119,9
1,65,119,2
1,63,119,577
1,63,119,54
1,72,119,20
1,72,119,75
1,72,119,98
1,75,114,14
1,72,116,13
1,77,119,97
1,74,119,194
1,72,117,5
1,70,119,3
1,70,116,72
1,72,113,3
1,75,114,4
1,72,118,7
1,70,119,101
1,72,119,8
1,70,119,193
1,67,117,9
1,70,119,2
1,67,119,7
1,65,119,3
1,63,119,293
1,65,118,12
1,67,119,13
1,70,116,2
1,72,118,10
1,77,119,186
1,79,119,1
1,75,111,83
1,79,119,0
1,75,109,70
1,79,111,0
1,75,114,67
1,79,110,9
1,75,116,67
1,79,114,0
1,75,119,73
1,79,119,2
1,58,119,177
1,63,119,16
1,62,119,19
1,60,119,9
1,58,119,8
1,63,119,24
1,62,119,18
1,60,119,11
1,58,119,93
1,63,119,31
1,65,119,42
1,67,119,33
1,68,119,14
1,65,119,16
1,67,119,6
1,68,119,1
1,70,119,189
1,70,119,32
1,70,119,60
1,70,119,62
1,70,119,73
1,72,119,19
1,70,119,48
1,70,119,112
1,72,119,11
1,73,119,8
1,70,119,14
1,70,119,368
1,72,119,101
1,73,119,98
1,73,119,79
1,72,119,14
1,70,119,200
1,68,119,13
1,68,116,99
1,70,118,97
1,71,115,73
1,71,118,86
1,70,119,100
1,68,119,175
1,67,119,184
1,67,119,99
1,63,111,14
1,65,119,92
1,67,119,96
1,63,119,10
1,64,119,18
1,65,119,105
1,67,119,84
1,68,119,8
1,68,116,65
1,68,119,76
1,60,116,12
1,67,119,8
1,68,119,5
1,65,119,3
1,67,119,35
1,68,117,94
1,63,95,21
1,67,117,19
1,70,108,2
1,70,119,137
1,67,116,4
1,70,119,5
1,72,119,9
1,70,119,26
1,67,118,3
1,65,115,6
1,63,119,91
1,63,116,66
1,65,117,9
1,67,118,94
1,68,116,10
1,70,118,11
1,68,119,196
1,67,119,192
1,65,119,8
1,63,119,21
1,63,119,47
1,72,119,22
1,72,119,67
1,72,119,88
1,75,119,185
1,72,119,15
1,77,119,92
1,74,119,189
1,72,115,79
1,70,119,96
1,70,119,76
1,72,114,7
1,75,119,2
1,72,115,196
1,70,116,85
1,72,119,95
1,70,119,187
1,67,117,8
1,70,119,97
1,67,119,5
1,65,119,2
1,63,119,4
1,65,119,17
1,67,119,13
1,70,116,11
1,72,119,180
1,77,119,5
1,79,119,6
1,79,119,182
1,79,119,74
1,79,119,71
1,79,119,67
1,79,119,78
1,58,119,172
1,63,119,9
1,62,119,12
1,60,119,12
1,58,119,16
1,63,119,10
1,62,119,8
1,60,119,6
1,58,119,18
1,63,112,105
1,65,119,20
1,67,119,24
1,68,116,10
1,67,119,11
1,65,119,11
1,67,119,6
1,68,119,193
1,70,119,26
1,70,105,40
1,70,116,60
1,70,114,57
1,70,119,62
1,72,119,19
1,70,119,33
1,70,119,106
1,72,119,25
1,73,119,33
1,70,119,60
1,70,119,98
1,72,119,11
1,73,119,30
1,73,119,85
1,72,119,26
1,70,119,183
1,68,119,6
1,68,119,88
1,70,119,102
1,71,119,10
1,71,119,75
1,70,119,106
1,68,119,184
1,67,119,7
1,67,119,1
1,67,119,53
1,63,119,10
1,65,119,96
1,67,119,89
1,63,119,19
1,64,119,16
1,65,119,96
1,67,119,71
1,68,119,16
1,68,119,76
1,68,119,70
1,60,119,11
1,67,119,6
1,68,119,96
1,65,119,7
1,67,119,576
1,68,119,92
1,70,119,3
1,70,119,79
1,70,119,76
1,67,119,13
1,70,119,4
1,72,119,96
1,70,119,40
1,67,119,12
1,65,111,6
1,63,116,96
1,63,119,66
1,65,119,9
1,67,119,5
1,68,119,96
1,68,118,27
1,68,114,37
1,68,114,45
1,70,119,35
1,67,119,96
1,65,119,20
1,63,119,576
1,63,119,55
1,72,119,12
1,72,119,45
1,72,119,160
1,75,115,4
1,72,116,18
1,77,119,96
1,74,119,185
1,72,119,93
1,70,119,91
1,70,119,97
1,72,119,1
1,75,119,6
1,72,119,192
1,70,119,3
1,72,119,6
1,70,119,5
1,67,119,96
1,70,119,94
1,67,119,186
1,65,119,18
1,63,119,288
1,65,119,13
1,67,119,11
1,70,119,96
1,72,119,10
1,75,119,192
1,79,119,5
1,79,119,294
1,79,119,59
1,79,119,67
1,79,119,72
1,79,119,68
1,58,119,171
1,63,115,12
1,62,119,4
1,60,119,18
1,58,119,192
1,63,119,191
1,62,119,16
1,60,119,192
1,58,119,13
1,63,119,96
1,65,119,8
1,67,119,5
1,68,119,8
1,67,119,2
1,65,119,2
1,67,119,11
1,68,119,192
1,70,119,8
1,70,119,44
1,70,119,64
1,70,119,70
1,70,119,69
1,72,119,96
1,70,119,20
1,70,119,105
1,72,119,4
1,73,119,21
1,70,119,22
1,70,119,48
1,79,118,1
1,72,119,29
1,80,103,1
1,73,119,1
1,82,116,1
1,73,119,80
1,82,115,1
1,72,119,21
1,80,102,0
1,70,119,125
1,79,112,1
1,68,119,3
1,77,108,0
1,68,119,97
1,77,113,1
1,70,119,37
1,79,105,1
1,71,119,53
1,80,109,1
1,71,119,77
1,80,109,1
1,70,119,47
1,79,110,0
1,68,119,143
1,77,117,1
1,67,119,8
1,75,114,0
1,67,119,101
1,63,116,21
1,65,119,6
1,67,119,96
1,63,119,27
1,58,119,902
1,60,119,18
1,58,119,12
1,58,119,87
1,63,119,15
1,62,119,11
1,60,119,23
1,58,119,192
1,63,119,8
1,62,119,192
1,60,119,6
1,60,119,79
1,63,119,11
1,65,119,15
1,67,119,22
1,68,119,3
1,65,119,4
1,67,119,12
1,68,119,192
1,70,119,177
1,70,119,30
1,70,119,61
1,70,119,67
1,70,119,65
1,72,119,96
1,70,119,41
1,70,119,86
1,72,119,24
1,73,119,96
1,70,119,23
1,70,119,102
1,72,119,12
1,73,119,31
1,73,119,73
1,82,105,1
1,72,119,2
1,80,114,0
1,70,119,8
1,79,118,1
1,68,119,28
1,77,119,1
1,68,119,73
1,77,110,1
1,70,119,69
1,79,105,1
1,71,119,12
1,80,119,1
1,71,119,85
1,80,104,1
1,70,119,78
1,79,100,1
1,68,119,9
1,77,112,1
1,67,119,18
1,75,109,99
1,67,119,84
1,63,119,16
1,65,119,8
1,67,119,4
1,63,119,36
2,58,72,97
2,70,75,0
2,63,64,6
2,75,79,0
2,65,72,20
2,77,77,0
2,67,81,1
2,79,76,0
2,58,69,85
2,70,81,0
2,62,68,77
2,74,72,0
2,65,65,35
2,77,68,0
2,67,82,178
2,79,72,0
2,70,51,3
2,63,66,10
2,75,62,0
2,79,67,1
2,75,85,24
2,70,72,13
2,82,62,0
2,70,72,66
2,82,80,0
2,67,67,4
2,79,65,0
2,67,74,72
2,79,84,0
2,63,71,7
2,75,50,0
2,63,87,77
2,75,87,0
2,60,68,4
2,72,61,0
2,60,70,69
2,72,76,1
2,58,81,11
2,70,87,0
2,75,95,0
2,58,79,15
2,70,75,0
2,63,58,2
2,75,64,0
2,65,74,96
2,77,78,0
2,67,77,21
2,79,83,0
2,74,95,128
2,58,72,8
2,70,82,0
2,62,67,62
2,74,70,0
2,65,65,69
2,77,75,0
2,67,76,4
2,79,82,0
2,58,56,9
2,63,62,0
2,75,83,0
2,72,95,1
2,60,87,44
2,72,82,0
2,58,87,8
2,70,86,0
2,70,95,6
2,51,84,128
2,58,82,0
2,63,84,1
2,67,82,0
2,43,84,58
2,58,82,1
2,62,83,0
2,67,84,0
2,41,84,32
2,56,82,1
2,60,84,0
2,65,83,0
2,48,83,3
2,64,82,1
2,67,83,0
2,70,83,0
2,41,83,251
2,56,82,0
2,60,83,0
2,65,83,0
2,43,84,20
2,59,82,1
2,62,83,0
2,67,83,0
2,46,84,13
2,58,83,0
2,62,84,0
2,65,85,0
2,39,82,23
2,51,82,0
2,58,82,0
2,63,84,0
2,67,84,0
2,43,83,11
2,58,82,1
2,62,83,0
2,67,83,0
2,48,81,1
2,63,81,1
2,67,83,0
2,70,82,0
2,41,84,13
2,60,81,0
2,65,83,0
2,68,83,0
2,46,84,628
2,62,80,0
2,65,84,0
2,70,83,0
2,44,84,13
2,60,82,0
2,63,84,0
2,67,84,0
2,43,84,3
2,58,82,0
2,62,84,0
2,65,84,0
2,41,83,9
2,56,81,0
2,60,83,0
2,63,83,0
2,44,83,641
2,60,83,0
2,63,84,0
2,43,84,23
2,58,82,0
2,62,84,0
2,65,83,0
2,46,84,16
2,62,81,0
2,65,83,0
2,70,83,0
2,51,84,12
2,67,82,0
2,70,83,0
2,75,82,0
2,44,84,14
2,56,83,0
2,72,81,0
2,75,83,0
2,79,83,1
2,44,84,622
2,56,83,0
2,68,83,0
2,71,84,0
2,75,83,1
2,51,84,7
2,67,82,0
2,70,83,0
2,75,83,0
2,46,84,2
2,61,81,0
2,65,84,0
2,70,82,0
2,48,83,22
2,64,83,0
2,67,84,0
2,70,83,0
2,41,83,7
2,56,82,0
2,60,83,0
2,65,83,0
2,44,85,16
2,59,82,0
2,63,83,0
2,68,82,0
2,51,83,32
2,63,82,0
2,67,83,0
2,70,82,0
2,43,83,10
2,58,82,1
2,62,83,0
2,67,83,0
2,41,83,12
2,56,82,0
2,60,83,0
2,65,83,0
2,48,83,9
2,64,81,1
2,67,82,0
2,70,82,0
2,41,84,10
2,56,81,0
2,60,83,0
2,65,83,0
2,43,84,8
2,59,82,1
2,62,83,0
2,67,83,0
2,46,84,12
2,62,80,0
2,65,83,0
2,70,82,0
2,51,84,13
2,67,83,0
2,70,83,0
2,75,83,0
2,43,84,10
2,62,82,1
2,67,83,0
2,70,83,0
2,48,84,18
2,63,82,0
2,67,83,0
2,70,81,0
2,41,85,2
2,60,81,0
2,65,83,0
2,68,82,0
2,46,84,13
2,62,82,0
2,65,83,0
2,68,82,0
2,44,83,15
2,56,82,0
2,72,82,0
2,75,83,0
2,79,82,1
2,43,83,5
2,55,83,0
2,70,82,0
2,74,83,0
2,77,84,1
2,41,83,29
2,53,83,0
2,68,82,0
2,72,83,0
2,75,82,1
2,49,84,16
2,65,82,0
2,68,83,0
2,72,83,0
2,55,84,16
2,62,82,0
2,65,83,0
2,67,82,0
2,70,82,1
2,46,84,13
2,62,82,0
2,65,83,0
2,70,83,0
2,39,83,597
2,51,83,0
2,58,82,0
2,63,84,0
2,67,83,1
2,44,83,13
2,56,82,0
2,72,81,0
2,75,82,0
2,79,81,1
2,44,83,19
2,56,83,0
2,68,82,0
2,71,83,0
2,75,82,1
2,51,83,18
2,67,83,0
2,70,83,0
2,75,82,0
2,46,84,6
2,65,82,0
2,70,84,0
2,73,83,0
2,48,84,8
2,64,82,0
2,67,84,0
2,70,82,0
2,41,83,1370
2,53,83,0
2,65,82,0
2,68,83,0
2,72,83,1
2,44,84,636
2,68,82,0
2,71,83,0
2,75,81,0
2,67,84,34
2,51,83,1
2,63,82,2
2,70,83,0
2,43,84,8
2,62,82,0
2,67,84,0
2,70,83,1
2,41,84,239
2,65,83,1
2,68,83,0
2,72,83,0
2,48,83,15
2,64,82,0
2,67,84,0
2,72,84,1
2,41,84,250
2,65,82,0
2,68,84,0
2,72,83,0
2,43,84,13
2,62,82,0
2,67,84,0
2,71,83,1
2,46,84,10
2,62,82,0
2,65,84,0
2,70,83,0
2,51,83,599
2,67,83,0
2,70,84,0
2,75,83,0
2,43,84,2
2,67,83,0
2,70,84,0
2,74,83,1
2,48,83,242
2,63,82,0
2,67,84,0
2,72,84,0
2,41,84,8
2,65,82,0
2,68,84,0
2,72,83,1
2,46,84,16
2,62,83,0
2,65,84,0
2,70,83,0
2,44,85,625
2,72,83,0
2,75,84,0
2,79,83,0
2,43,84,7
2,70,83,0
2,74,85,0
2,77,83,0
2,41,84,10
2,68,82,0
2,72,84,0
2,75,83,0
2,49,85,622
2,65,82,0
2,68,84,0
2,72,84,0
2,43,84,606
2,67,83,0
2,70,84,0
2,74,83,1
2,46,85,348
2,65,84,0
2,70,84,0
2,51,84,20
2,67,83,0
2,70,83,0
2,75,83,0
2,44,84,8
2,72,81,0
2,75,84,0
2,79,83,1
2,44,84,4
2,68,83,1
2,71,84,0
2,75,83,0
2,51,84,581
2,67,83,0
2,70,83,0
2,75,82,1
2,46,85,19
2,65,83,0
2,70,84,0
2,73,83,0
2,48,83,22
2,64,83,0
2,67,84,0
2,70,84,0
2,41,84,24
2,65,83,0
2,68,84,0
2,72,83,0
2,44,84,15
2,68,83,0
2,71,84,0
2,75,81,0
2,51,84,31
2,67,82,0
2,70,84,0
2,75,83,0
2,43,84,16
2,67,82,0
2,70,84,0
2,74,82,1
2,46,84,235
2,65,83,0
2,70,84,0
2,74,84,0
2,51,84,12
2,67,83,0
2,70,83,0
2,75,83,0
2,44,84,17
2,72,82,0
2,75,83,1
2,79,81,0
2,44,85,9
2,68,82,0
2,71,84,1
2,75,83,0
2,51,83,34
2,67,83,0
2,70,84,0
2,75,83,1
2,46,85,13
2,65,83,1
2,70,84,0
2,73,82,0
2,48,84,40
2,64,82,0
2,67,84,0
2,70,83,1
2,41,84,46
2,65,82,0
2,68,83,0
2,72,83,0
2,44,84,42
2,68,82,1
2,71,84,0
2,75,82,0
2,39,84,42
2,63,82,0
2,67,84,0
2,70,81,0
2,43,84,40
2,67,83,0
2,70,83,1
2,74,83,0
2,46,84,51
2,65,83,0
2,70,84,0
2,74,83,0
2,46,83,52
2,62,82,1
2,65,84,0
2,70,83,0
3,75,65,0
3,74,65,767
3,72,65,753
3,70,65,764
3,51,54,128
3,58,52,0
3,63,54,1
3,67,52,0
3,43,54,58
3,58,52,1
3,62,53,0
3,67,54,0
3,41,54,32
3,56,52,1
3,60,54,0
3,65,53,0
3,48,53,3
3,64,52,1
3,67,53,0
3,70,53,0
3,41,53,251
3,56,52,0
3,60,53,0
3,65,53,0
3,43,54,20
3,59,52,1
3,62,53,0
3,67,53,0
3,46,54,13
3,58,53,0
3,62,54,0
3,65,55,0
3,39,52,23
3,51,52,0
3,58,52,0
3,63,54,0
3,67,54,0
3,43,53,11
3,58,52,1
3,62,53,0
3,67,53,0
3,48,51,1
3,63,51,1
3,67,53,0
3,70,52,0
3,41,54,13
3,60,51,0
3,65,53,0
3,68,53,0
3,46,54,628
3,62,50,0
3,65,54,0
3,70,53,0
3,44,54,13
3,60,52,0
3,63,54,0
3,67,54,0
3,43,54,3
3,58,52,0
3,62,54,0
3,65,54,0
3,41,53,9
3,56,51,0
3,60,53,0
3,63,53,0
3,44,53,641
3,60,53,0
3,63,54,0
3,43,54,23
3,58,52,0
3,62,54,0
3,65,53,0
3,46,54,16
3,62,51,0
3,65,53,0
3,70,53,0
3,51,54,12
3,67,52,0
3,70,53,0
3,75,52,0
3,44,54,14
3,56,53,0
3,72,51,0
3,75,53,0
3,79,53,1
3,44,54,622
3,56,53,0
3,68,53,0
3,71,54,0
3,75,53,1
3,51,54,7
3,67,52,0
3,70,53,0
3,75,53,0
3,46,54,2
3,61,51,0
3,65,54,0
3,70,52,0
3,48,53,22
3,64,53,0
3,67,54,0
3,70,53,0
3,41,53,7
3,56,52,0
3,60,53,0
3,65,53,0
3,44,55,16
3,59,52,0
3,63,53,0
3,68,52,0
3,51,53,32
3,63,52,0
3,67,53,0
3,70,52,0
3,43,53,10
3,58,52,1
3,62,53,0
3,67,53,0
3,41,53,12
3,56,52,0
3,60,53,0
3,65,53,0
3,48,53,9
3,64,51,1
3,67,52,0
3,70,52,0
3,41,54,10
