track,note,velocity,time
0,54,57,64
0,54,63,32
0,54,69,64
0,54,75,32
0,54,81,64
0,54,88,32
0,54,94,36
0,54,100,32
0,36,114,64
0,38,92,0
0,42,79,0
0,37,111,0
0,61,99,0
0,64,99,0
0,59,100,0
0,54,106,0
0,56,99,0
0,71,101,0
0,46,112,20
0,40,112,0
0,56,82,0
0,59,81,0
0,61,82,0
0,54,97,0
0,54,98,0
0,36,115,20
0,38,94,0
0,42,79,0
0,32,112,0
0,54,99,0
0,56,81,32
0,59,83,0
0,61,81,0
0,54,98,0
0,42,75,20
0,37,108,0
0,54,98,0
0,54,101,0
0,36,114,48
0,38,92,0
0,42,80,0
0,56,81,0
0,59,83,0
0,61,81,0
0,54,99,0
0,46,115,48
0,54,101,0
0,54,101,0
0,36,113,32
0,38,92,0
0,42,74,0
0,54,101,0
0,73,97,0
0,54,98,0
0,42,77,48
0,32,110,0
0,54,99,0
0,54,99,24
0,36,111,20
0,38,93,0
0,42,77,0
0,30,110,0
0,61,98,0
0,64,101,0
0,57,100,0
0,54,99,0
0,54,100,0
0,76,101,0
0,46,111,48
0,52,82,0
0,57,83,0
0,61,80,0
0,54,99,0
0,52,83,12
0,57,81,0
0,61,81,0
0,54,98,0
0,36,111,12
0,38,94,0
0,42,77,0
0,57,83,0
0,61,84,0
0,54,101,0
0,52,81,12
0,57,84,0
0,61,83,0
0,54,97,0
0,42,79,48
0,54,100,0
0,54,84,32
0,57,84,0
0,61,84,0
0,54,100,0
0,36,113,48
0,38,91,0
0,42,80,0
0,54,97,0
0,46,114,64
0,42,110,0
0,54,98,0
0,54,98,0
0,36,114,20
0,38,92,0
0,42,74,0
0,54,99,0
0,78,98,0
0,54,98,0
0,42,76,48
0,37,111,0
0,54,100,0
0,54,99,0
0,36,114,20
0,38,92,0
0,42,81,0
0,40,111,0
0,59,100,0
0,63,101,0
0,56,101,0
0,54,100,0
0,52,99,0
0,71,100,0
0,46,114,48
0,52,82,0
0,56,81,0
0,59,84,0
0,54,98,0
0,54,97,0
0,36,112,24
0,38,93,0
0,42,81,0
0,54,100,0
0,56,81,32
0,59,82,0
0,54,100,0
0,42,79,48
0,54,98,0
0,54,98,0
0,36,112,36
0,38,91,0
0,42,79,0
0,52,80,0
0,56,80,0
0,59,82,0
0,54,97,0
0,46,114,48
0,40,112,0
0,54,100,0
0,54,101,0
0,36,111,20
0,38,91,0
0,42,74,0
0,54,99,0
0,54,101,0
0,42,77,48
0,37,110,0
0,54,99,0
0,54,99,0
0,36,114,20
0,38,94,0
0,42,78,0
0,30,109,0
0,57,101,0
0,64,98,0
0,61,98,0
0,54,97,0
0,54,98,0
0,46,111,48
0,54,81,0
0,57,84,0
0,61,81,0
0,54,101,0
0,76,98,0
0,54,83,32
0,57,81,0
0,61,80,0
0,54,98,0
0,36,114,20
0,38,93,0
0,42,82,0
0,54,82,0
0,57,80,0
0,61,82,0
0,54,98,0
0,73,99,0
0,54,101,0
0,42,82,16
0,42,108,0
0,52,82,0
0,57,84,0
0,61,83,0
0,54,98,0
0,76,99,0
0,54,97,0
0,36,111,20
0,38,92,0
0,42,74,0
0,54,80,0
0,57,81,0
0,61,82,0
0,54,97,0
0,46,113,32
0,32,109,0
0,54,98,0
0,73,99,0
0,54,80,32
0,57,80,0
0,61,80,0
0,54,97,0
0,36,112,20
0,38,91,0
0,42,83,0
0,32,110,0
0,54,98,0
0,78,99,0
0,54,101,0
0,42,78,20
0,35,109,0
0,54,97,0
0,54,101,0
0,36,113,20
0,38,91,0
0,42,83,0
0,37,108,0
0,64,100,0
0,61,101,0
0,59,101,0
0,54,98,0
0,56,101,0
0,71,100,0
0,46,113,20
0,40,111,0
0,56,84,0
0,59,82,0
0,61,81,0
0,54,98,0
0,54,100,0
0,36,114,20
0,38,92,0
0,42,80,0
0,44,108,0
0,54,101,0
0,56,80,32
0,59,83,0
0,61,81,0
0,54,99,0
0,42,77,20
0,37,110,0
0,54,101,0
0,54,100,0
0,36,112,48
0,38,94,0
0,42,75,0
0,56,81,0
0,59,81,0
0,61,83,0
0,54,99,0
0,46,115,64
0,54,98,0
0,54,101,0
0,36,115,24
0,38,94,0
0,42,82,0
0,54,99,0
0,73,99,0
0,54,101,0
0,42,79,48
0,32,110,0
0,54,101,0
0,54,99,0
0,36,111,20
0,38,92,0
0,42,79,0
0,30,111,0
0,64,97,0
0,61,97,0
0,57,101,0
0,54,97,0
0,54,99,0
0,76,98,0
0,46,114,48
0,52,80,0
0,57,81,0
0,61,84,0
0,54,100,0
0,52,81,12
0,57,82,0
0,61,82,0
0,54,99,0
0,36,114,12
0,38,91,0
0,42,76,0
0,57,83,0
0,61,82,0
0,54,101,0
0,52,80,12
0,57,81,0
0,61,81,0
0,54,98,0
0,42,75,48
0,54,98,0
0,54,82,32
0,57,80,0
0,61,84,0
0,54,98,0
0,36,114,48
0,38,92,0
0,42,78,0
0,54,101,0
0,46,114,64
0,42,111,0
0,54,101,0
0,54,101,0
0,36,111,20
0,38,92,0
0,42,74,0
0,54,99,0
0,78,99,0
0,54,100,0
0,42,75,48
0,37,112,0
0,54,101,0
0,54,97,0
0,36,112,20
0,38,91,0
0,42,77,0
0,40,112,0
0,63,99,0
0,56,99,0
0,59,100,0
0,54,97,0
0,52,97,0
0,71,98,0
0,46,114,48
0,52,81,0
0,56,82,0
0,59,81,0
0,54,98,0
0,54,100,0
0,36,115,24
0,38,92,0
0,42,81,0
0,54,98,0
0,56,83,32
0,59,80,0
0,54,98,0
0,42,75,48
0,54,100,0
0,54,101,0
0,36,115,48
0,38,92,0
0,42,80,0
0,52,82,0
0,56,82,0
0,59,80,0
0,54,98,0
0,46,112,64
0,40,108,0
0,54,98,0
0,54,98,0
0,36,111,20
0,38,93,0
0,42,75,0
0,54,101,0
0,54,101,0
0,42,77,48
0,37,110,0
0,54,100,0
0,54,99,0
0,36,111,20
0,38,94,0
0,42,75,0
0,30,112,0
0,64,99,0
0,57,101,0
0,61,99,0
0,54,101,0
0,54,99,0
0,46,113,48
0,54,81,0
0,57,82,0
0,61,81,0
0,54,100,0
0,76,97,0
0,54,84,12
0,57,83,0
0,61,81,0
0,54,99,0
0,78,97,0
0,36,112,12
0,38,91,0
0,42,81,0
0,54,81,0
0,57,82,0
0,61,83,0
0,54,97,0
0,80,101,0
0,54,97,0
0,42,76,16
0,42,111,0
0,52,83,0
0,57,81,0
0,61,81,0
0,54,100,0
0,78,97,0
0,54,101,0
0,36,111,20
0,38,93,0
0,42,76,0
0,54,80,0
0,57,80,0
0,61,83,0
0,54,97,0
0,46,112,32
0,37,111,0
0,54,101,0
0,76,100,0
0,54,84,32
0,57,83,0
0,61,81,0
0,54,97,0
0,36,114,20
0,38,90,0
0,42,79,0
0,54,101,0
0,54,99,0
0,38,94,32
0,42,83,0
0,32,112,0
0,54,100,0
0,73,98,0
0,38,94,12
0,54,101,0
0,36,114,0
0,38,92,0
0,42,78,0
0,49,113,0
0,35,112,0
0,47,121,0
0,54,98,0
0,54,100,0
0,59,97,0
0,47,100,0
0,47,108,0
0,83,75,0
0,71,116,0
0,71,116,0
0,42,74,24
0,54,101,0
0,71,113,0
0,71,116,0
0,54,97,0
0,83,74,0
0,71,115,0
0,71,118,0
0,36,111,48
0,38,91,0
0,42,76,0
0,54,101,0
0,54,99,0
0,71,116,0
0,71,114,0
0,42,80,12
0,35,108,0
0,54,97,0
0,83,77,0
0,71,112,0
0,71,117,0
0,54,98,0
0,83,75,0
0,36,112,48
0,38,90,0
0,42,74,0
0,35,112,0
0,54,98,0
0,83,78,0
0,83,76,0
0,42,80,48
0,54,99,0
0,83,75,0
0,54,101,0
0,36,112,48
0,38,92,0
0,42,76,0
0,54,97,0
0,83,75,0
0,66,112,0
0,66,114,0
0,54,97,0
0,42,81,24
0,54,99,0
0,83,77,0
0,68,114,0
0,68,114,0
0,54,100,16
0,83,76,0
0,36,111,24
0,38,90,0
0,42,75,0
0,33,108,0
0,45,117,0
0,54,97,0
0,52,101,0
0,57,101,0
0,45,100,0
0,45,111,0
0,83,77,0
0,71,115,0
0,71,114,0
0,42,82,24
0,54,100,0
0,71,113,0
0,71,116,0
0,54,97,0
0,83,77,0
0,71,115,0
0,71,114,0
0,36,115,48
0,38,93,0
0,42,74,0
0,54,100,0
0,54,101,0
0,71,116,0
0,71,116,0
0,42,75,12
0,33,111,0
0,54,98,0
0,83,78,0
0,73,114,0
0,73,114,0
0,54,101,0
0,83,75,0
0,36,112,48
0,38,94,0
0,42,80,0
0,33,108,0
0,54,100,0
0,83,74,0
0,85,76,0
0,42,83,56
0,54,100,0
0,83,78,0
0,54,99,0
0,36,115,48
0,38,93,0
0,42,74,0
0,54,99,0
0,83,78,0
0,66,116,0
0,66,118,0
0,54,98,0
0,42,78,24
0,54,97,0
0,83,78,0
0,68,113,0
0,68,117,0
0,54,98,0
0,83,75,0
0,36,114,24
0,38,93,0
0,42,76,0
0,40,110,0
0,52,113,0
0,54,100,0
0,52,101,0
0,40,101,0
0,47,101,0
0,52,112,0
0,83,74,0
0,71,112,0
0,71,116,0
0,42,75,24
0,54,101,0
0,71,115,0
0,71,118,0
0,54,99,0
0,83,74,0
0,71,114,0
0,71,118,0
0,36,112,48
0,38,93,0
0,42,80,0
0,54,97,0
0,54,98,0
0,71,116,0
0,71,115,0
0,42,78,12
0,40,109,0
0,54,101,0
0,83,77,0
0,66,112,0
0,66,117,0
0,54,97,0
0,83,78,0
0,36,114,24
0,38,90,0
0,42,81,0
0,40,112,0
0,54,97,0
0,83,74,0
0,83,78,0
0,42,81,48
0,54,101,0
0,83,76,0
0,54,99,0
0,69,114,0
0,69,114,0
0,36,113,12
0,38,94,0
0,42,77,0
0,54,101,0
0,83,74,0
0,69,112,0
0,69,118,0
0,54,99,0
0,69,112,0
0,69,114,0
0,42,78,24
0,40,112,0
0,54,97,0
0,83,77,0
0,54,100,0
0,36,111,36
0,38,93,0
0,42,80,0
0,35,112,0
0,47,113,0
0,54,101,0
0,59,101,0
0,47,99,0
0,54,97,0
0,47,112,0
0,83,74,0
0,71,116,0
0,71,118,0
0,42,83,24
0,54,99,0
0,71,112,0
0,71,117,0
0,54,99,0
0,83,77,0
0,36,113,24
0,38,92,0
0,42,76,0
0,54,101,0
0,54,98,0
0,42,78,32
0,35,111,0
0,54,100,0
0,83,75,0
0,54,99,0
0,83,75,0
0,36,114,48
0,38,91,0
0,42,78,0
0,35,112,0
0,54,98,0
0,83,76,0
0,83,75,0
0,42,77,56
0,54,99,0
0,83,78,0
0,54,100,32
0,36,113,24
0,38,94,0
0,42,80,0
0,35,108,0
0,54,101,0
0,83,76,0
0,68,113,0
0,68,118,0
0,54,99,0
0,42,74,24
0,54,97,0
0,83,78,0
0,71,114,0
0,71,114,0
0,54,97,0
0,83,75,0
0,36,114,24
0,38,92,0
0,42,81,0
0,35,111,0
0,47,113,0
0,54,98,0
0,59,98,0
0,54,98,0
0,47,100,0
0,47,108,0
0,83,76,0
0,74,115,0
0,74,115,0
0,42,78,48
0,54,98,0
0,54,97,0
0,83,76,0
0,73,113,0
0,73,116,0
0,36,112,48
0,38,91,0
0,42,74,0
0,54,99,0
0,54,97,0
0,42,79,24
0,35,110,0
0,54,98,0
0,83,76,0
0,71,116,0
0,71,118,0
0,54,100,0
0,83,76,0
0,36,114,48
0,38,90,0
0,42,78,0
0,35,110,0
0,54,100,0
0,83,75,0
0,83,78,32
0,42,81,36
0,54,101,0
0,83,77,0
0,54,100,0
0,36,115,24
0,38,90,0
0,42,75,0
0,54,99,0
0,83,78,0
0,68,114,0
0,68,116,0
0,54,101,0
0,42,81,24
0,36,110,0
0,54,101,0
0,83,78,0
0,71,116,0
0,71,115,0
0,54,100,0
0,83,74,0
0,36,111,20
0,38,93,0
0,42,74,0
0,37,108,0
0,49,121,0
0,54,97,0
0,61,101,0
0,56,99,0
0,49,98,0
0,49,112,0
0,83,77,0
0,71,113,0
0,71,116,0
0,42,77,24
0,54,97,0
0,71,115,0
0,71,115,0
0,54,101,0
0,83,77,0
0,71,116,0
0,71,117,0
0,36,112,48
0,38,90,0
0,42,79,0
0,54,98,0
0,54,97,0
0,42,76,32
0,37,112,0
0,54,97,0
0,83,75,0
0,73,115,0
0,73,114,0
0,54,101,0
0,83,75,0
0,68,116,0
0,68,116,0
0,36,115,48
0,38,94,0
0,42,82,0
0,37,111,0
0,54,99,0
0,83,74,0
0,85,75,32
0,42,75,8
0,54,97,0
0,83,78,0
0,71,115,0
0,71,117,0
0,54,101,0
0,36,114,48
0,38,93,0
0,42,76,0
0,54,100,0
0,83,74,0
0,54,100,0
0,42,83,24
0,37,108,0
0,54,98,0
0,83,74,0
0,68,114,0
0,68,114,0
0,54,99,0
0,83,78,0
0,68,113,0
0,68,117,0
0,36,113,12
0,38,91,0
0,42,81,0
0,40,111,0
0,52,117,0
0,54,99,0
0,64,99,0
0,59,98,0
0,52,99,0
0,52,110,0
0,83,78,0
0,71,113,0
0,71,118,0
0,42,78,24
0,54,100,0
0,54,99,0
0,83,78,0
0,36,115,48
0,38,90,0
0,42,79,0
0,54,99,0
0,54,98,0
0,71,114,0
0,71,116,0
0,42,77,12
0,35,111,0
0,54,100,0
0,83,74,0
0,71,112,0
0,71,118,0
0,54,97,0
0,83,76,0
0,36,112,24
0,38,93,0
0,42,80,0
0,33,110,0
0,45,117,0
0,54,100,0
0,57,99,0
0,52,99,0
0,45,99,0
0,45,110,0
0,83,77,0
0,66,112,0
0,66,117,0
0,42,83,24
0,54,99,0
0,54,97,0
0,83,75,0
0,36,115,48
0,38,93,0
0,42,75,0
0,54,97,0
0,71,113,0
0,71,118,0
0,54,97,0
0,71,115,0
0,71,115,0
0,42,83,12
0,34,108,0
0,54,100,0
0,83,77,0
0,54,98,0
0,83,76,0
0,71,112,0
0,71,114,0
0,36,114,12
0,38,91,0
0,42,80,0
0,35,110,0
0,47,113,0
0,54,101,0
0,47,100,0
0,54,98,0
0,59,100,0
0,47,109,0
0,71,113,0
0,71,115,0
0,42,77,24
0,54,100,0
0,71,112,0
0,71,116,0
0,54,97,0
0,36,115,24
0,38,90,0
0,42,82,0
0,35,109,0
0,54,100,0
0,54,101,0
0,42,83,48
0,35,109,0
0,54,100,0
0,71,78,20
0,75,74,16
0,54,101,0
0,78,78,0
0,36,115,24
0,38,90,0
0,42,82,0
0,35,112,0
0,54,101,0
0,83,78,0
0,42,79,48
0,54,99,0
0,54,97,0
0,36,113,24
0,38,94,0
0,42,83,0
0,34,110,0
0,54,101,0
0,54,97,0
0,38,90,48
0,42,74,0
0,54,97,0
0,49,114,0
0,61,118,0
0,38,91,12
0,54,101,0
0,36,112,0
0,38,91,0
0,42,82,0
0,49,115,0
0,32,111,0
0,83,100,0
0,54,100,0
0,51,113,0
0,63,116,0
0,42,79,24
0,54,99,0
0,54,116,0
0,66,116,0
0,54,97,0
0,36,112,24
0,38,93,0
0,42,77,0
0,56,73,0
0,59,80,0
0,63,80,0
0,54,100,0
0,56,112,0
0,68,117,0
0,54,99,0
0,42,77,24
0,32,109,0
0,54,97,0
0,59,113,0
0,71,117,0
0,54,97,0
0,36,115,20
0,38,90,0
0,42,78,0
0,78,97,0
0,54,99,0
0,42,79,36
0,32,110,0
0,54,99,0
0,56,116,0
0,68,116,0
0,54,97,0
0,36,111,20
0,38,92,0
0,42,80,0
0,54,98,0
0,54,100,0
0,42,80,48
0,32,108,0
0,56,84,0
0,59,82,0
0,63,84,0
0,54,99,0
0,54,114,0
0,66,116,0
0,54,97,12
0,36,113,20
0,38,93,0
0,42,79,0
0,33,111,0
0,73,101,0
0,54,98,0
0,56,116,0
0,68,115,0
0,42,76,24
0,54,99,0
0,54,113,0
0,66,114,0
0,54,101,0
0,36,113,24
0,38,93,0
0,42,78,0
0,57,81,0
0,61,82,0
0,64,84,0
0,54,97,0
0,51,112,0
0,63,117,0
0,54,98,0
0,42,83,24
0,33,109,0
