track,note,velocity,time
0,59,98,480
0,64,108,33
0,68,113,54
0,69,103,29
0,68,100,0
0,52,40,4294966784
0,40,99,0
0,47,87,1
0,64,95,60
0,59,87,1
0,56,51,1
0,56,73,0
0,59,100,0
0,64,96,1
0,64,91,4
0,59,85,0
0,56,54,3
0,40,83,3
0,47,75,1
0,52,61,0
0,64,91,0
0,59,85,1
0,47,56,2
0,52,56,0
0,56,88,0
0,59,99,1
0,64,97,1
0,64,94,0
0,59,87,0
0,47,66,0
0,52,83,1
0,59,91,1
0,57,88,0
0,64,83,1
0,59,86,1
0,57,72,1
0,40,40,3
0,68,60,4294966784
0,69,66,0
0,68,63,0
0,95,51,4294966784
0,97,50,4
0,52,71,97
0,95,50,0
0,59,96,0
0,56,82,0
0,64,72,1
0,64,89,0
0,59,88,1
0,56,67,2
0,40,94,1
0,47,75,1
0,64,87,0
0,59,81,1
0,32,102,1
0,52,53,0
0,59,101,0
0,56,73,1
0,64,94,0
0,64,94,2
0,59,91,1
0,31,127,1
0,30,105,0
0,29,104,0
0,28,101,0
0,95,45,0
0,40,92,0
0,47,85,0
0,52,62,0
0,64,85,0
0,59,81,2
0,52,58,1
0,56,87,0
0,59,101,1
0,64,95,0
0,68,77,45
0,71,98,4
0,76,81,5
0,64,93,0
0,59,88,1
0,56,61,1
0,47,54,0
0,69,64,1
0,52,71,1
0,97,46,0
0,57,89,0
0,57,77,0
0,81,86,1
0,40,59,0
0,47,81,0
0,52,84,0
0,59,93,0
0,64,87,0
0,59,83,1
0,64,99,0
0,59,94,1
0,57,72,2
0,68,65,0
0,47,66,0
0,95,37,0
0,80,80,1
0,47,77,0
0,52,84,1
0,52,68,0
0,56,95,0
0,59,101,0
0,56,74,0
0,64,79,1
0,59,87,0
0,64,78,1
0,64,87,1
0,59,85,0
0,68,72,9
0,64,80,2
0,40,88,0
0,69,86,1
0,47,87,0
0,52,75,1
0,68,59,1
0,64,96,0
0,59,87,1
0,64,84,1
0,69,90,0
0,52,62,0
0,59,103,0
0,64,101,1
0,56,88,1
0,64,87,0
0,59,87,2
0,56,68,3
0,71,74,4
0,40,88,0
0,52,85,1
0,47,87,0
0,56,63,2
0,64,94,2
0,59,83,1
0,52,71,2
0,59,104,0
0,64,99,1
0,56,87,1
0,64,88,0
0,59,88,1
0,56,53,2
0,40,70,0
0,52,72,0
0,47,83,0
0,68,79,2
0,71,88,2
0,64,86,1
0,59,81,1
0,56,46,1
0,73,85,0
0,52,68,0
0,56,86,0
0,59,99,0
0,64,87,1
0,73,78,6
0,64,93,0
0,59,88,0
0,56,61,1
0,40,79,1
0,52,67,1
0,47,78,0
0,73,84,15
0,71,80,4
0,64,97,4
0,59,88,1
0,56,49,4
0,73,80,7
0,52,74,0
0,56,87,0
0,59,99,1
0,64,82,0
0,64,89,0
0,59,87,2
0,56,49,1
0,52,84,1
0,47,66,0
0,40,95,0
0,64,99,57
0,63,92,1
0,59,78,2
0,56,66,0
0,59,79,0
0,63,97,0
0,64,83,1
0,71,84,25
0,64,96,0
0,63,90,0
0,59,81,1
0,73,90,10
0,40,97,3
0,47,69,1
0,76,84,5
0,64,97,0
0,63,91,0
0,59,63,1
0,73,79,4
0,56,72,0
0,59,87,0
0,63,99,0
0,64,100,1
0,71,81,23
0,68,81,0
0,64,103,0
0,63,99,2
0,59,75,1
0,52,44,1
0,42,107,0
0,64,98,0
0,61,100,2
0,57,77,2
0,52,55,1
0,52,66,0
0,57,83,0
0,61,91,0
0,64,76,1
0,69,85,29
0,64,94,0
0,61,85,2
0,69,79,7
0,42,81,0
0,52,63,1
0,76,80,0
0,73,83,12
0,64,94,1
0,61,93,1
0,57,75,2
0,52,75,0
0,57,81,0
0,61,94,0
0,64,89,1
0,69,76,20
0,64,85,3
0,68,85,1
0,59,40,4
0,40,80,7
0,47,80,0
0,66,80,21
0,64,94,0
0,59,87,1
0,56,56,2
0,64,81,3
0,47,72,2
0,52,68,0
0,56,84,0
0,59,94,1
0,64,76,2
0,66,79,4
0,68,75,0
0,64,95,1
0,59,92,0
0,56,67,1
0,40,81,0
0,47,76,1
0,52,74,0
0,56,44,1
0,64,95,4
0,59,89,1
0,56,61,3
0,52,68,3
0,56,90,0
0,59,103,0
0,64,90,1
0,64,86,0
0,59,68,1
0,44,73,4
0,56,84,1
0,44,88,1
0,56,89,1
0,63,96,0
0,60,104,0
0,68,88,0
0,42,87,0
0,56,90,1
0,35,96,0
0,32,108,1
0,60,96,0
0,63,89,1
0,51,85,1
0,56,59,0
0,44,91,0
0,60,40,1
0,56,88,0
0,68,96,1
0,68,100,0
0,63,96,1
0,68,87,0
0,63,100,0
0,60,71,1
0,44,66,0
0,68,85,1
0,44,81,1
0,60,102,0
0,56,85,0
0,42,79,0
0,63,92,1
0,56,85,0
0,60,66,0
0,60,91,0
0,56,81,0
0,38,92,0
0,63,95,0
0,63,101,0
0,68,101,0
0,68,83,1
0,68,83,4
0,56,86,1
0,68,94,0
0,63,96,1
0,68,99,0
0,35,94,0
0,32,101,1
0,63,95,0
0,48,76,0
0,70,87,3
0,58,88,0
0,42,81,0
0,63,109,1
0,44,89,0
0,56,97,0
0,39,106,0
0,56,74,0
0,60,109,1
0,44,84,0
0,35,98,0
0,51,88,1
0,56,85,0
0,60,90,0
0,63,99,0
0,63,72,1
0,68,72,0
0,68,100,0
0,63,98,1
0,63,96,1
0,68,94,0
0,60,90,0
0,32,102,1
0,72,85,0
0,38,85,0
0,42,77,0
0,51,88,1
0,60,105,1
0,56,83,0
0,60,76,0
0,60,97,1
0,63,93,0
0,68,97,0
0,63,99,0
0,68,98,0
0,44,67,0
0,36,104,0
0,68,94,0
0,68,91,0
0,63,94,0
0,35,80,0
0,60,80,1
0,63,85,0
0,49,61,1
0,56,95,1
0,49,84,0
0,61,88,0
0,75,83,0
0,63,80,0
0,42,84,0
0,52,88,1
0,37,100,0
0,35,89,0
0,49,63,0
0,49,68,1
0,56,85,0
0,56,78,0
0,61,90,0
0,64,84,1
0,64,97,0
0,61,82,1
0,68,97,0
0,68,97,2
0,64,91,0
0,68,87,0
0,64,83,0
0,61,60,1
0,52,77,3
0,42,75,0
0,61,85,1
0,49,85,0
0,49,76,0
0,38,94,0
0,56,96,1
0,52,80,0
0,56,86,0
0,56,62,0
0,61,90,1
0,64,96,0
0,61,91,0
0,68,99,1
0,64,99,0
0,68,99,0
0,61,82,0
0,37,100,1
0,68,94,1
0,35,98,0
0,64,93,0
0,68,97,0
0,61,83,1
0,64,94,0
0,61,68,1
0,56,70,4
0,61,85,3
0,52,84,0
0,56,92,0
0,42,76,0
0,49,91,1
0,37,106,1
0,49,90,0
0,56,87,0
0,63,85,0
0,49,61,0
0,35,95,0
0,61,74,1
0,75,85,0
0,61,72,0
0,56,63,0
0,64,80,1
0,61,80,0
0,68,97,0
0,64,93,0
0,68,99,0
0,64,97,0
0,61,78,1
0,61,90,0
0,56,74,0
0,49,55,1
0,49,72,0
0,56,87,0
0,49,78,0
0,61,91,0
0,56,78,0
0,42,75,0
0,56,99,1
0,61,95,0
0,52,88,0
0,49,91,0
0,64,94,0
0,61,88,0
0,38,91,0
0,37,103,1
0,68,99,0
0,64,94,1
0,68,95,0
0,47,77,24
0,44,78,27
0,61,79,2
0,68,98,0
0,73,86,0
0,64,94,0
0,32,104,1
0,61,80,0
0,35,80,0
0,56,81,1
0,64,81,0
0,42,75,5
0,54,92,2
0,42,75,0
0,54,63,0
0,66,86,1
0,73,95,0
0,70,99,0
0,30,99,0
0,42,99,0
0,49,88,0
0,76,88,0
0,64,89,0
0,35,98,0
0,54,68,1
0,58,49,0
0,58,40,1
0,61,66,0
0,66,68,2
0,64,88,1
0,66,97,3
0,70,93,0
0,61,99,0
0,66,91,0
0,76,84,1
0,58,62,1
0,61,70,1
0,70,95,1
0,73,85,0
0,64,86,0
0,42,73,0
0,66,81,1
0,54,84,0
0,49,72,0
0,38,92,0
0,54,87,0
0,54,47,0
0,58,94,0
0,61,99,0
0,76,86,0
0,58,83,0
0,66,99,1
0,61,90,0
0,66,94,0
0,70,95,1
0,76,85,7
0,64,86,1
0,30,100,2
0,66,98,0
0,35,95,0
0,61,99,1
0,70,93,0
0,66,91,1
0,61,72,0
0,63,86,0
0,75,85,3
0,37,104,0
0,66,85,1
0,73,83,0
0,70,91,0
0,42,70,0
0,54,91,1
0,35,89,0
0,49,76,1
0,42,86,1
0,61,76,0
0,66,84,1
0,70,38,1
0,61,82,0
0,66,97,1
0,61,99,0
0,70,94,0
0,58,62,1
0,66,91,0
0,61,79,1
0,49,74,0
0,70,99,1
0,73,96,0
0,66,90,0
0,30,104,0
0,54,83,0
0,58,77,0
0,38,91,0
0,42,68,0
0,54,96,1
0,58,97,0
0,61,97,0
0,66,97,1
0,61,90,0
0,66,93,1
0,70,93,0
0,73,82,0
0,61,88,0
0,66,99,1
0,70,94,0
0,35,94,0
0,34,105,0
0,61,99,0
0,66,91,0
0,47,71,5
0,61,85,1
0,35,90,0
0,42,72,0
0,73,88,1
0,71,101,1
0,47,91,0
0,63,85,0
0,66,97,0
0,35,103,0
0,59,58,1
0,47,102,1
0,63,78,0
0,54,88,1
0,59,40,0
0,66,83,0
0,63,88,0
0,61,80,0
0,59,88,0
0,66,83,0
0,63,72,2
0,59,55,1
0,71,91,0
0,66,86,1
0,63,81,0
0,71,98,0
0,66,90,0
0,63,87,0
0,59,70,2
0,54,59,0
0,42,75,0
0,71,98,1
0,38,89,0
0,63,93,1
0,66,103,0
0,54,87,0
0,54,68,0
0,47,88,1
0,59,78,0
0,59,81,0
0,63,88,0
0,66,94,0
0,63,81,1
0,66,88,0
0,71,89,0
0,71,76,1
0,59,88,5
0,66,87,0
0,35,83,0
0,66,105,1
0,71,98,0
0,63,95,0
0,35,102,0
0,71,86,0
0,71,88,0
0,63,76,0
0,59,66,1
0,66,82,0
0,47,43,1
0,47,105,1
0,61,85,0
0,42,75,0
0,35,105,0
0,61,83,1
0,64,103,0
0,73,84,0
0,54,55,0
0,35,98,0
0,47,89,1
0,54,88,0
0,75,79,0
0,63,83,0
0,63,55,2
0,71,87,0
0,63,68,2
0,66,85,0
0,30,103,2
0,42,62,0
0,59,66,1
0,63,90,1
0,66,86,0
0,47,110,0
0,59,78,0
0,63,83,1
0,54,68,0
0,38,94,0
0,66,86,1
0,71,81,0
0,63,85,0
0,66,88,1
0,71,66,0
0,63,78,0
0,71,87,0
0,34,104,0
0,66,87,0
0,59,70,1
0,63,58,0
0,35,85,0
0,54,65,1
0,59,56,1
0,42,74,0
0,54,70,0
0,63,74,1
0,35,97,0
0,35,84,0
0,59,76,1
0,63,84,0
0,66,89,0
0,71,89,0
0,66,87,1
0,71,88,1
0,64,90,175
0,76,79,9
0,63,88,4
0,52,72,1
0,56,56,0
0,59,76,1
0,63,92,0
0,28,100,1
0,68,93,0
0,68,44,0
0,75,95,2
0,47,70,0
0,40,87,0
0,68,85,0
0,71,99,1
0,75,81,1
0,47,83,2
0,40,80,0
0,59,40,3
0,56,63,1
0,64,100,6
0,75,79,0
0,63,82,1
0,68,93,0
0,63,94,1
0,63,87,2
0,63,89,1
0,75,82,1
0,75,95,1
0,68,84,0
0,71,101,0
0,56,87,0
0,47,58,1
0,56,76,0
0,59,93,0
0,63,96,0
0,59,87,0
0,68,97,0
0,63,99,0
0,64,78,1
0,75,81,1
0,63,89,0
0,68,96,0
0,28,101,1
0,64,103,0
0,63,91,0
0,63,97,1
0,59,76,2
0,68,79,1
0,75,89,1
0,71,99,0
0,28,102,0
0,59,63,0
0,40,87,1
0,63,74,0
0,64,104,0
0,68,81,0
0,63,98,0
0,63,87,0
0,68,74,1
0,59,77,0
0,59,55,1
0,35,102,0
0,52,76,0
0,56,88,0
0,71,102,1
0,75,103,0
0,59,78,0
0,59,90,0
0,63,97,0
0,63,91,0
0,68,98,0
0,64,99,1
0,63,89,0
0,68,89,0
0,64,103,0
0,63,91,0
0,68,67,1
0,63,96,0
0,75,82,0
0,59,61,0
0,59,81,1
0,52,40,1
0,75,97,1
0,47,75,0
0,63,90,0
0,68,83,1
0,40,87,0
0,71,101,0
0,28,100,0
0,47,88,0
0,75,82,0
0,40,91,2
0,63,63,1
0,64,86,0
0,76,80,0
0,75,77,0
0,63,83,0
0,64,103,0
0,68,89,0
0,63,97,0
0,63,87,0
0,59,54,1
0,56,59,1
0,64,86,0
0,63,79,0
0,75,95,1
0,68,64,0
0,56,75,0
0,71,104,1
0,59,82,0
0,59,93,0
0,63,96,0
0,63,96,0
0,64,85,1
0,68,97,0
0,68,95,0
0,68,69,0
0,28,100,0
0,64,103,0
0,63,97,0
0,63,95,0
0,59,73,1
0,56,63,1
0,56,56,0
0,71,95,1
0,28,102,0
0,75,95,1
0,56,80,0
0,40,72,0
0,59,77,1
0,63,62,0
0,68,46,1
0,68,94,0
0,63,94,0
0,68,68,1
0,59,72,0
0,56,55,0
0,64,103,1
0,63,94,1
0,59,63,1
0,56,76,1
0,35,97,0
0,59,94,0
0,71,98,1
0,75,96,0
0,56,61,0
0,63,96,0
0,59,92,0
0,63,99,0
0,68,96,0
0,64,103,1
0,68,75,2
0,68,87,0
0,63,81,1
0,64,103,0
0,63,98,1
0,69,42,5
0,42,72,1
0,49,63,0
0,73,92,0
0,66,84,0
0,42,96,0
0,49,74,0
0,69,101,1
0,42,99,0
0,57,78,0
0,61,87,1
0,64,77,1
0,64,99,53
0,61,97,1
0,69,94,0
0,57,72,1
0,64,90,0
0,52,47,2
0,61,67,0
0,66,78,8
0,73,95,0
0,69,101,1
0,57,73,0
0,61,96,1
0,64,99,0
0,57,81,0
0,61,90,0
0,64,94,1
0,69,93,0
0,73,85,24
0,73,80,0
0,42,101,2
0,64,95,0
0,69,90,0
0,61,92,1
0,64,94,0
0,57,74,0
0,61,76,0
0,52,44,1
0,73,85,2
0,73,90,9
0,69,103,0
0,37,103,0
0,52,76,0
0,57,83,0
0,64,74,0
0,61,87,1
0,69,55,0
0,73,81,7
0,73,79,3
0,66,69,3
0,64,102,1
0,69,93,0
0,61,100,0
0,64,90,0
0,61,68,1
0,57,77,1
0,73,84,1
0,57,58,24
0,73,99,1
0,69,104,0
0,61,83,0
0,64,90,0
0,61,97,0
0,69,94,0
0,64,88,1
0,66,62,1
0,64,101,0
0,69,94,0
0,61,100,0
0,64,91,0
0,37,100,1
0,57,76,0
0,61,77,0
0,52,60,1
0,73,88,2
0,49,64,8
0,66,85,0
0,42,74,0
0,73,97,1
0,42,101,0
0,69,99,1
0,42,98,0
0,61,72,0
0,64,90,0
0,69,76,1
0,71,85,9
0,69,80,0
0,64,100,0
0,61,99,1
0,69,92,0
0,57,76,0
0,52,62,1
0,73,81,3
0,73,99,13
0,66,80,0
0,69,108,0
0,52,74,0
0,57,84,0
0,61,101,0
0,61,88,0
0,64,94,1
0,64,89,0
0,69,97,0
0,42,99,1
0,64,104,0
0,61,103,1
0,69,91,0
0,64,95,0
0,57,88,1
0,61,71,0
0,66,52,1
0,52,75,1
0,57,59,0
0,37,101,0
0,73,97,2
0,69,101,0
0,61,66,0
0,64,76,0
0,42,95,1
0,52,50,0
0,69,47,1
0,64,106,0
0,66,69,1
0,61,102,0
0,69,91,0
0,64,91,0
0,57,78,1
0,61,75,0
0,42,101,4
0,57,70,0
0,69,103,1
0,73,103,0
0,52,72,0
0,61,83,0
0,57,91,0
0,61,101,0
0,64,92,0
0,69,95,0
0,64,92,1
0,40,101,0
0,40,122,1
0,64,103,1
0,69,91,0
0,64,94,0
0,37,102,0
0,61,97,0
0,61,78,0
0,57,72,1
0,69,48,1
0,73,44,1
0,42,81,0
0,61,88,1
0,57,102,0
0,52,88,0
0,33,115,0
0,73,88,0
0,64,86,0
0,69,90,0
0,61,88,0
0,35,98,0
0,33,100,0
0,61,69,1
0,64,85,0
0,45,100,1
0,52,78,1
0,69,70,0
0,57,40,3
0,69,93,0
0,69,96,1
0,64,96,1
0,64,91,0
