track,note,velocity,time
1,61,87,1136
1,57,87,0
1,52,76,0
1,50,80,20
1,55,79,4
1,59,85,0
1,50,77,48
1,57,88,0
1,54,73,0
1,52,76,32
1,57,84,0
1,61,85,0
1,61,78,72
1,52,69,0
1,57,76,0
1,61,79,72
1,57,79,0
1,52,79,4
1,57,85,4
1,52,86,0
1,61,91,0
1,59,85,4
1,61,84,188
1,64,96,0
1,57,92,8
1,54,72,4
1,59,85,0
1,62,96,0
1,62,96,104
1,64,92,288
1,66,90,4
1,57,88,0
1,62,97,0
1,61,89,80
1,57,80,0
1,64,82,0
1,61,83,96
1,64,77,148
1,57,77,92
1,62,78,196
1,55,82,0
1,59,80,0
1,61,87,8
1,64,85,0
1,57,84,0
1,59,88,28
1,61,97,180
1,64,92,192
1,57,92,172
1,56,70,0
1,59,92,8
1,52,80,0
1,59,92,28
1,64,90,192
1,54,76,20
1,57,80,0
1,62,74,0
1,61,94,4
1,52,93,0
1,57,91,0
1,57,88,12
1,59,79,188
1,61,91,0
1,57,88,4
1,59,91,0
1,54,93,0
1,62,92,4
1,64,92,1144
1,62,87,0
1,57,87,0
1,66,87,0
1,54,87,4
1,57,98,0
1,61,101,0
1,52,92,0
1,61,96,4
1,64,92,188
1,57,92,4
1,59,89,4
1,50,86,0
1,55,81,4
1,52,88,0
1,57,90,4
1,61,94,0
1,52,82,4
1,59,98,0
1,56,94,4
1,54,99,0
1,57,99,0
1,62,99,0
1,61,96,8
1,57,102,0
1,52,92,0
1,56,105,12
1,59,100,0
1,52,85,8
1,54,76,16
1,62,98,4
1,57,104,0
1,57,100,12
1,61,111,0
1,52,85,0
1,57,106,12
1,61,109,0
1,52,102,0
1,61,87,5196
1,57,87,0
1,52,76,0
1,50,80,20
1,55,79,4
1,59,85,0
1,50,77,48
1,57,88,0
1,54,73,0
1,52,76,32
1,57,90,0
1,61,85,0
1,61,80,72
1,52,76,0
1,57,81,0
1,61,72,72
1,57,77,0
1,52,76,4
1,52,86,4
1,57,85,0
1,61,91,0
1,61,84,112
1,64,96,192
1,57,92,56
1,54,72,4
1,59,85,0
1,62,96,0
1,64,92,1168
1,66,90,12
1,57,88,0
1,62,97,0
1,61,89,80
1,57,80,0
1,64,82,0
1,61,83,96
1,64,77,148
1,57,77,92
1,62,78,196
1,55,82,0
1,59,80,0
1,61,87,8
1,64,85,0
1,57,84,0
1,59,88,28
1,61,97,180
1,64,92,192
1,57,92,172
1,56,70,0
1,59,92,8
1,52,80,0
1,59,92,28
1,64,90,192
1,54,76,20
1,57,80,0
1,62,74,0
1,61,94,4
1,52,93,0
1,57,91,0
1,54,93,72
1,62,92,8
1,59,91,0
1,54,83,0
1,57,99,0
1,62,102,0
1,57,98,80
1,61,101,0
1,52,92,0
1,59,89,44
1,50,86,0
1,55,81,4
1,52,88,68
1,57,90,4
1,61,94,0
1,52,82,32
1,59,98,0
1,56,94,4
1,54,99,0
1,57,99,0
1,62,99,0
1,52,92,8
1,57,102,0
1,61,96,0
1,56,105,12
1,59,100,0
1,52,85,8
1,54,76,16
1,62,98,4
1,57,104,0
1,57,100,12
1,61,111,0
1,52,85,0
1,57,106,12
1,61,109,0
1,52,102,0
1,68,101,5204
1,59,95,0
1,64,103,0
1,59,95,48
1,68,107,4
1,64,103,0
1,59,112,64
1,68,116,0
1,64,114,0
1,68,111,52
1,64,112,0
1,59,116,0
1,61,96,8
1,57,102,0
1,52,92,0
1,56,105,12
1,59,100,0
1,52,85,8
1,54,76,16
1,62,98,4
1,57,104,0
1,57,100,12
1,61,111,0
1,52,85,0
1,57,106,12
1,61,109,0
1,52,102,0
1,68,101,5204
1,59,95,0
1,64,103,0
1,59,95,48
1,68,107,4
1,64,103,0
1,59,112,64
1,68,116,0
1,64,114,0
1,68,111,52
1,64,112,0
1,59,116,0
1,61,96,8
1,57,102,0
1,52,92,0
1,56,105,12
1,59,100,0
1,52,85,8
1,54,76,16
1,62,98,4
1,57,104,0
1,57,100,12
1,61,111,0
1,52,85,0
1,57,106,12
1,61,109,0
1,52,102,0
1,61,114,5196
1,64,114,4
1,57,114,0
1,52,114,0
2,33,121,1120
2,40,104,24
2,31,109,192
2,38,114,36
2,33,119,148
2,40,101,96
2,40,104,28
2,40,115,32
2,33,114,12
2,33,103,76
2,33,110,104
2,40,104,16
2,40,116,40
2,33,104,28
2,40,111,28
2,33,112,8
2,33,114,88
2,33,112,136
2,34,101,28
2,35,104,36
2,35,111,80
2,35,115,144
2,37,119,8
2,38,103,24
2,33,99,68
2,38,108,36
2,38,108,112
2,40,112,20
2,33,99,20
2,33,81,108
2,33,118,128
2,32,94,40
2,31,118,8
2,31,111,172
2,31,114,140
2,32,113,32
2,33,108,36
2,33,104,112
2,37,106,120
2,38,102,40
2,39,92,36
2,40,104,72
2,35,90,48
2,40,105,48
2,40,118,152
2,38,115,92
2,33,92,32
2,38,111,44
2,38,118,148
2,40,111,40
2,33,104,36
2,33,109,64
2,33,116,152
2,34,101,24
2,35,101,24
2,35,104,108
2,35,104,64
2,35,115,136
2,37,113,36
2,38,102,36
2,33,92,60
2,38,107,52
2,38,112,140
2,40,104,32
2,33,100,16
2,33,112,104
2,33,119,144
2,32,97,36
2,31,121,56
2,31,121,96
2,31,115,56
2,31,121,128
2,32,121,64
2,33,121,60
2,33,116,92
2,37,121,108
2,38,107,68
2,39,121,32
2,40,111,56
2,35,101,56
2,35,119,52
2,28,114,136
2,40,112,4
2,38,102,20
2,38,115,124
2,38,121,108
2,30,121,36
2,30,121,84
2,31,121,64
2,32,121,40
2,33,121,44
2,33,121,16
2,33,121,36
2,33,121,52
2,37,108,4
2,38,121,4
2,39,121,40
2,40,121,60
2,35,116,0
2,40,121,52
2,35,98,4
2,40,121,8
2,39,121,24
2,38,121,32
2,33,121,0
2,38,121,72
2,38,121,92
2,30,121,56
2,31,121,68
2,32,121,56
2,33,121,56
2,37,121,0
2,37,121,56
2,38,118,8
2,40,111,4
2,33,121,8
2,40,121,608
2,28,121,108
2,28,121,120
2,38,116,120
2,38,104,140
2,38,118,140
2,33,115,120
2,33,111,160
2,33,121,136
2,33,121,220
2,40,104,24
2,31,109,4
2,38,114,40
2,33,119,148
2,40,101,92
2,40,104,28
2,40,115,32
2,33,114,12
2,33,103,80
2,33,110,100
2,40,104,16
2,40,116,40
2,33,104,28
2,40,111,28
2,33,112,12
2,33,114,84
2,33,112,140
2,34,101,24
2,35,104,40
2,35,111,76
2,35,115,144
2,37,119,8
2,38,103,24
2,33,99,68
2,38,108,36
2,38,108,112
2,40,112,24
2,33,99,16
2,33,81,104
2,33,118,132
2,32,94,48
2,31,118,0
2,31,111,172
2,31,114,140
2,32,113,32
2,33,108,36
2,33,104,112
2,37,106,120
2,38,102,40
2,39,92,36
2,40,104,72
2,35,90,48
2,40,105,48
2,40,118,152
2,38,115,92
2,33,92,32
2,38,111,48
2,38,118,144
2,40,111,44
2,33,104,32
2,33,109,64
2,33,116,152
2,34,101,24
2,35,101,24
2,35,104,108
2,35,104,64
2,35,115,136
2,37,113,32
2,38,102,40
2,33,92,60
2,38,107,52
2,38,112,140
2,40,104,32
2,33,100,16
2,33,112,104
2,33,119,144
2,32,97,36
2,31,121,56
2,31,121,96
2,31,115,52
2,31,121,132
2,32,121,64
2,33,121,60
2,33,116,92
2,37,121,112
2,38,107,64
2,39,121,32
2,40,111,56
2,35,101,56
2,35,119,52
2,28,114,136
2,40,112,4
2,38,102,20
2,38,115,124
2,38,121,108
2,38,121,36
2,30,121,28
2,31,121,56
2,32,121,40
2,33,121,48
2,33,121,12
2,33,121,36
2,33,121,52
2,37,108,4
2,38,121,4
2,39,121,40
2,40,121,60
2,35,116,0
2,40,121,52
2,35,98,4
2,40,121,32
2,39,121,24
2,38,121,32
2,33,121,192
2,38,121,76
2,38,121,92
2,30,121,60
2,31,121,68
2,32,121,52
2,33,121,56
2,37,121,0
2,42,121,8
2,37,121,0
2,39,118,8
2,40,105,0
2,33,121,8
2,40,121,608
2,28,121,108
2,28,121,120
2,38,116,120
2,38,104,140
2,38,118,140
2,33,115,120
2,33,111,160
2,33,121,136
2,28,121,220
2,28,121,44
2,28,121,48
2,28,121,48
2,28,121,48
2,30,121,20
2,31,121,36
2,32,119,28
2,33,121,20
2,33,121,12
2,33,121,36
2,33,121,52
2,37,108,4
2,38,121,28
2,39,121,56
2,40,121,68
2,35,116,0
2,40,121,52
2,35,98,4
2,40,121,48
2,39,121,24
2,38,121,32
2,33,121,192
2,38,121,76
2,38,121,92
2,30,121,56
2,31,121,68
2,32,121,56
2,33,121,56
2,37,121,0
2,42,121,8
2,37,121,0
2,39,118,8
2,40,105,0
2,33,121,8
2,40,121,608
2,28,121,108
2,28,121,128
2,38,116,120
2,38,104,140
2,38,118,128
2,33,115,120
2,33,111,160
2,33,121,128
2,28,121,220
2,28,121,44
2,28,121,48
2,28,121,48
2,28,121,48
2,30,121,20
2,31,121,36
2,32,119,28
2,33,121,20
2,33,121,12
2,33,121,28
2,33,121,60
2,37,108,4
2,38,121,4
2,39,121,40
2,40,121,60
2,35,116,0
2,40,121,52
2,35,98,4
2,40,121,28
2,39,121,4
2,38,121,28
2,33,121,188
2,38,121,80
2,38,121,92
2,30,121,56
2,31,121,68
2,32,121,56
2,33,121,56
2,39,118,4
2,40,105,0
2,33,121,8
2,40,121,608
2,28,121,108
2,28,121,120
2,38,116,120
2,38,104,140
2,38,108,140
2,33,121,868
3,69,99,7620
3,64,99,0
3,61,94,0
3,66,91,1432
3,71,92,8
3,62,93,0
3,74,97,1456
3,66,94,0
3,69,100,0
3,61,62,1928
3,69,81,100
3,62,77,84
3,71,89,4
3,64,87,0
3,73,56,0
3,62,105,384
3,67,105,0
3,71,105,0
3,68,86,2976
3,64,97,8
3,59,81,0
3,68,100,484
3,64,107,4
3,59,104,0
3,56,74,1080
3,64,105,0
3,66,75,96
3,57,55,4
3,61,91,384
3,69,92,0
3,64,90,0
3,66,97,2976
3,74,97,0
3,69,97,4
3,71,88,2016
3,62,91,8
3,71,98,360
3,62,96,0
3,67,92,0
3,61,90,1460
3,64,99,0
3,69,97,0
3,68,86,1436
3,59,93,4
3,64,96,0
3,69,103,1268
3,64,93,0
3,61,124,168
3,66,98,92
3,69,99,604
3,64,99,0
3,61,94,0
3,74,97,2976
3,66,94,0
3,69,100,0
3,61,100,1820
3,62,81,8
3,71,95,92
3,61,59,8
3,69,75,0
3,71,105,384
3,62,105,0
3,67,105,0
3,68,86,2976
3,64,97,8
3,59,81,0
3,68,100,484
3,64,107,4
3,59,104,0
3,56,74,1080
3,64,105,0
3,66,75,96
3,57,55,4
3,69,92,384
3,61,91,0
3,64,90,0
3,74,97,2976
3,66,97,0
3,69,97,4
3,71,88,2016
3,62,91,8
3,71,98,360
3,62,96,0
3,67,92,0
3,61,90,1460
3,64,99,0
3,69,97,0
3,68,86,1436
3,59,93,4
3,64,96,0
3,69,103,1268
3,64,93,0
4,69,123,6832
4,71,118,4
4,73,111,36
4,71,122,1652
4,71,122,24
4,73,107,20
4,71,98,16
4,73,109,12
4,74,101,32
4,69,105,856
4,78,113,36
4,78,115,32
4,78,117,48
4,78,123,48
4,76,116,28
4,78,117,1572
4,78,99,36
4,78,102,28
4,78,109,52
4,74,105,32
4,76,109,44
4,73,123,1004
4,73,109,28
4,73,115,84
4,71,79,208
4,73,123,788
4,71,86,12
4,69,70,24
4,69,101,532
4,71,104,24
4,73,95,40
4,71,98,1816
4,73,85,16
4,71,96,16
4,73,96,24
4,74,110,32
4,69,93,936
4,78,123,56
4,78,107,36
4,76,96,48
4,78,123,64
4,76,101,40
4,78,122,44
4,76,88,16
4,76,98,68
4,69,99,1812
4,78,123,44
4,78,123,88
4,78,123,68
4,74,104,8
4,76,108,0
4,73,123,860
4,71,91,20
4,73,119,56
4,73,109,28
4,73,123,124
4,71,96,12
4,73,122,600
4,71,112,56
4,69,74,96
4,78,117,484
4,73,101,112
4,71,88,92
4,69,74,76
4,73,123,24
4,73,120,44
4,73,120,64
4,74,123,96
4,73,119,28
4,73,123,80
4,71,84,4
4,73,122,800
4,76,106,16
4,78,123,60
4,78,115,32
4,78,123,148
4,78,123,112
4,76,117,196
4,76,120,72
4,64,94,884
4,73,123,24
4,73,105,52
4,73,123,116
4,71,91,24
4,64,88,680
4,71,122,56
4,73,97,16
4,71,118,52
4,69,79,204
4,64,64,716
4,72,123,76
4,71,101,0
4,69,78,4
4,69,109,128
4,69,76,8
4,69,120,6796
4,71,111,4
4,73,112,64
4,64,98,1452
4,71,119,24
4,73,115,12
4,71,115,32
4,73,123,4
4,74,113,12
4,78,121,676
4,78,112,24
4,78,122,32
4,78,117,100
4,74,112,16
4,76,123,44
4,69,122,1364
4,78,123,20
4,78,107,32
4,78,121,36
4,78,111,40
4,78,123,36
4,78,123,48
4,76,123,372
4,71,97,984
4,73,123,20
4,71,62,100
4,73,123,4
4,71,90,180
4,73,123,552
4,73,122,24
4,71,116,36
4,69,97,0
4,69,123,944
4,66,103,100
4,69,121,76
4,71,105,1388
4,71,108,20
4,71,112,8
4,71,116,24
4,73,120,84
4,74,123,8
4,78,111,1112
4,78,123,96
4,76,77,4
4,78,103,96
4,76,86,0
4,78,123,72
4,76,86,16
4,78,123,68
4,76,86,8
4,69,93,1740
4,78,115,12
4,78,123,68
4,78,123,68
4,74,108,4
4,76,119,24
4,73,123,876
4,71,98,0
4,73,119,4
4,73,111,68
4,73,123,108
4,71,83,16
4,73,123,576
4,71,123,32
4,69,86,96
4,78,123,492
4,73,123,144
4,71,123,92
4,69,88,4
4,73,123,0
4,73,123,20
4,73,123,144
4,74,123,80
4,73,123,4
4,73,123,96
4,71,107,4
4,73,123,860
4,76,118,28
4,78,123,52
4,78,123,20
4,78,123,164
4,78,123,120
4,76,99,24
4,76,123,108
4,73,96,200
4,64,110,768
4,73,123,20
4,73,117,20
4,73,123,112
4,71,99,12
4,64,97,700
4,71,123,8
4,73,111,8
4,71,123,100
4,69,80,8
4,66,91,736
4,72,123,52
4,69,97,188
4,66,102,128
4,69,84,8
4,78,123,1128
4,76,122,52
4,73,123,32
4,73,123,24
4,73,123,160
4,74,123,108
4,73,123,4
4,73,123,88
4,71,90,192
4,73,123,916
4,76,109,188
4,78,123,88
4,78,123,28
4,78,123,144
4,78,123,68
4,76,102,12
4,76,123,120
4,73,103,176
4,71,88,52
4,69,98,72
4,64,95,716
4,73,123,8
4,73,115,28
4,73,123,128
4,71,89,4
4,64,88,660
4,71,123,68
4,73,109,8
4,71,118,112
4,69,72,184
4,66,79,700
4,72,123,48
4,69,96,200
4,66,96,104
4,69,77,208
4,78,123,1088
4,76,123,64
4,73,123,196
4,73,123,28
4,73,123,148
4,74,123,88
4,73,123,16
4,73,123,88
4,71,112,12
4,73,123,864
4,76,123,0
4,78,123,44
4,78,123,44
4,78,123,100
4,78,123,112
4,76,108,188
4,76,123,120
4,73,109,24
4,71,104,0
4,69,98,0
4,64,115,688
4,73,119,12
4,73,113,16
4,73,123,140
4,71,102,16
4,64,97,632
4,71,123,64
4,73,109,20
4,71,123,140
4,69,83,32
4,66,111,692
4,72,123,36
4,71,99,88
4,69,92,0
4,71,104,4
4,69,82,0
4,68,104,292
5,64,114,31768
5,69,106,0
5,61,117,0
5,64,87,4
5,69,97,0
5,61,101,0
5,61,116,4
5,64,109,0
5,69,100,0
5,69,92,0
5,62,110,0
5,66,117,0
5,61,101,0
5,64,98,0
5,69,93,0
5,64,109,4
5,69,117,0
5,61,113,0
5,68,74,0
5,59,80,0
5,69,110,768
5,62,112,0
5,66,113,0
5,62,93,4
5,66,99,0
5,69,95,0
5,69,96,4
5,62,109,0
5,66,101,0
5,66,105,4
5,69,93,0
5,62,109,0
5,62,110,0
5,64,89,0
5,69,73,0
5,69,109,0
5,64,114,0
5,61,113,0
5,66,89,0
5,59,90,0
5,62,89,0
5,57,80,0
5,64,79,0
5,61,79,0
5,64,92,576
5,52,92,0
5,69,116,0
5,64,98,0
5,61,107,0
5,64,80,4
