track,note,velocity,time
1,79,103,1
1,67,103,0
1,67,92,1
1,79,92,0
1,67,82,1
1,79,82,0
1,67,77,1
1,79,77,1
1,79,109,1
1,67,109,0
1,67,83,5
1,79,83,0
1,79,95,5
1,67,95,0
1,55,92,1
1,59,81,48
1,62,83,48
1,59,79,1
1,55,78,1
1,55,63,1
1,60,102,0
1,62,102,0
1,55,70,1
1,60,91,1
1,62,92,0
1,55,96,3
1,59,80,46
1,62,83,3
1,59,74,2
1,55,76,1
1,59,73,1
1,60,91,0
1,62,93,0
1,55,72,23
1,62,99,1
1,60,95,0
1,62,84,2
1,59,83,0
1,55,83,0
1,62,77,1
1,59,74,0
1,55,70,0
1,59,73,1
1,55,73,0
1,62,74,0
1,62,75,1
1,55,75,0
1,59,73,0
1,59,83,1
1,55,85,0
1,62,86,0
1,59,70,1
1,62,69,0
1,55,61,0
1,62,79,1
1,59,80,0
1,55,78,0
1,62,84,1
1,55,86,0
1,59,86,0
1,61,79,1
1,64,81,2
1,57,76,0
1,61,74,1
1,57,76,0
1,64,79,0
1,61,86,1
1,57,85,0
1,64,89,0
1,61,64,1
1,64,58,1
1,57,57,0
1,61,87,5
1,64,94,0
1,57,87,0
1,61,79,1
1,57,84,0
1,64,89,0
1,61,80,1
1,64,86,0
1,57,78,0
1,50,98,9
1,54,103,0
1,57,100,0
1,54,101,1
1,50,95,0
1,57,102,0
1,54,93,1
1,57,94,0
1,50,94,0
1,54,90,1
1,57,91,0
1,50,80,0
1,54,93,1
1,50,89,0
1,57,93,0
1,54,83,1
1,57,88,0
1,50,78,0
1,54,95,1
1,50,88,0
1,57,99,0
1,54,99,1
1,50,95,0
1,57,100,0
1,55,102,14
1,60,103,0
1,64,100,0
1,59,76,1
1,55,73,0
1,62,73,0
1,62,100,13
1,55,100,0
1,59,106,0
1,62,116,1
1,59,110,0
1,55,73,1
1,62,73,1
1,59,74,0
1,55,98,1
1,59,98,0
1,62,98,0
1,55,85,1
1,62,87,0
1,59,87,0
1,43,110,1
1,55,106,0
1,62,108,0
1,59,110,0
1,31,98,0
1,62,96,1
1,55,98,0
1,59,100,0
1,43,125,0
1,31,116,1
1,55,122,0
1,62,120,0
1,59,125,0
1,55,112,1
1,62,116,0
1,59,118,0
1,62,112,5
1,58,109,0
1,65,120,0
1,46,86,0
1,34,75,0
1,58,99,1
1,62,102,0
1,65,105,0
1,62,102,1
1,65,116,0
1,58,78,1
1,62,106,1
1,65,110,0
1,58,81,1
1,34,76,3
1,46,92,0
1,62,103,2
1,65,110,0
1,58,105,0
1,62,103,1
1,58,93,0
1,65,105,0
1,65,103,1
1,62,99,0
1,58,75,1
1,65,110,1
1,58,107,0
1,62,106,0
1,53,110,1
1,57,111,0
1,60,114,0
1,29,103,0
1,41,110,0
1,53,79,1
1,60,91,0
1,57,85,0
1,60,98,1
1,57,96,0
1,53,81,0
1,53,70,1
1,60,100,1
1,53,98,0
1,57,106,0
1,60,98,0
1,57,100,1
1,53,98,0
1,60,87,1
1,57,93,0
1,53,81,0
1,41,112,1
1,29,103,0
1,60,120,0
1,57,125,0
1,53,110,0
1,60,103,1
1,57,102,0
1,53,98,0
1,53,87,1
1,57,96,0
1,60,100,0
1,57,88,1
1,53,78,0
1,60,86,0
1,59,96,3
1,55,96,0
1,62,96,0
1,31,84,0
1,43,91,0
1,62,99,1
1,59,96,0
1,55,74,1
1,59,92,1
1,62,91,0
1,55,69,1
1,62,108,1
1,59,106,0
1,55,88,1
1,43,88,1
1,31,88,0
1,62,100,0
1,59,100,0
1,55,96,0
1,59,95,1
1,62,96,0
1,59,95,1
1,62,95,0
1,55,72,1
1,62,100,1
1,59,102,0
1,55,74,1
1,33,79,3
1,45,82,1
1,61,87,0
1,57,85,0
1,64,93,0
1,61,86,1
1,64,94,0
1,57,88,0
1,61,82,1
1,64,92,0
1,57,84,0
1,61,93,1
1,64,99,0
1,57,95,0
1,38,81,16
1,26,89,0
1,54,101,0
1,57,102,0
1,50,100,0
1,54,89,1
1,57,95,1
1,62,87,48
1,66,107,48
1,69,103,48
1,66,115,1
1,62,98,1
1,62,100,3
1,55,100,0
1,59,102,0
1,62,96,1
1,55,99,0
1,59,99,0
1,62,98,1
1,59,100,0
1,55,106,0
1,55,80,1
1,62,103,1
1,59,103,0
1,55,88,1
1,62,102,14
1,55,106,0
1,59,106,0
1,55,95,1
1,62,99,0
1,59,100,0
1,59,100,1
1,62,103,0
1,55,99,0
1,62,105,1
1,55,110,0
1,59,106,0
1,64,105,1
1,69,100,0
1,61,95,0
1,61,99,1
1,64,106,0
1,69,94,0
1,61,101,9
1,64,108,0
1,69,105,0
1,61,67,0
1,64,81,1
1,69,72,0
1,64,114,1
1,69,125,0
1,73,118,0
1,69,95,0
1,61,97,0
1,64,88,1
1,73,92,15
1,76,99,0
1,69,80,0
1,69,81,1
1,73,86,0
1,76,91,0
1,73,97,1
1,76,88,0
1,69,84,0
1,73,121,1
1,76,118,0
1,69,112,0
1,73,115,1
1,76,114,0
1,69,106,0
1,73,95,1
1,64,94,0
1,69,103,0
1,54,103,1
1,50,96,0
1,57,102,0
1,38,105,0
1,26,114,0
1,54,105,0
1,57,103,0
1,50,81,1
1,50,88,1
1,54,105,1
1,57,110,0
1,50,78,1
1,50,99,1
1,57,106,0
1,54,109,0
1,50,79,1
1,38,99,0
1,26,103,0
1,50,103,1
1,54,115,0
1,57,110,0
1,50,59,9
1,54,115,1
1,57,110,0
1,50,81,1
1,54,109,0
1,57,112,0
1,50,89,1
1,50,93,1
1,54,115,1
1,57,120,0
1,50,80,1
1,64,118,4
1,55,125,0
1,60,122,0
1,62,108,1
1,59,118,0
1,55,118,0
1,62,108,28
1,59,116,0
1,55,116,0
1,55,68,1
1,59,75,0
1,62,74,0
1,62,78,1
1,59,74,0
1,55,72,0
1,62,81,1
1,59,74,0
1,55,73,0
1,62,91,1
1,59,91,0
1,55,88,0
1,62,93,1
1,59,100,0
1,55,93,0
1,55,89,1
1,62,96,0
1,59,100,0
1,55,93,0
1,62,103,0
1,59,102,1
1,62,105,0
1,55,102,0
1,59,110,1
1,55,102,1
1,62,114,0
1,59,116,0
1,55,105,1
1,62,108,0
1,59,116,0
1,62,112,1
1,55,110,0
1,59,116,0
1,55,108,0
1,62,114,0
1,59,114,1
1,55,105,1
1,59,114,0
1,62,112,0
1,55,103,1
1,62,114,0
1,59,114,0
1,55,122,1
1,62,118,0
1,59,122,0
1,58,112,9
1,62,112,0
1,65,114,0
1,46,105,0
1,34,90,0
1,62,110,1
1,65,112,0
1,58,115,0
1,58,78,1
1,62,106,1
1,65,110,0
1,58,97,0
1,58,83,1
1,62,108,1
1,58,115,0
1,65,99,0
1,58,71,1
1,58,115,1
1,62,105,0
1,65,110,0
1,46,90,0
1,34,86,0
1,62,106,1
1,65,106,0
1,58,80,1
1,62,105,1
1,65,92,0
1,58,89,1
1,62,110,1
1,65,108,0
1,58,73,1
1,38,95,1
1,26,98,0
1,54,115,0
1,57,112,0
1,62,114,0
1,50,116,0
1,62,116,1
1,57,112,0
1,54,109,0
1,50,85,1
1,54,115,1
1,62,125,0
1,57,112,0
1,50,92,1
1,62,125,1
1,54,124,0
1,57,125,0
1,50,81,1
1,38,73,1
1,62,122,14
1,54,125,0
1,57,125,0
1,50,125,0
1,38,118,0
1,26,125,1
1,55,100,41
1,62,98,0
1,59,103,0
1,55,88,1
1,62,86,0
1,59,92,0
1,62,103,1
1,59,108,0
1,55,106,0
1,55,106,1
1,62,110,0
1,59,108,0
1,57,108,13
1,54,103,0
1,62,108,0
1,54,71,1
1,57,81,0
1,62,78,0
1,54,89,0
1,57,94,1
1,62,93,0
1,57,110,0
1,54,107,0
1,62,112,1
1,54,107,0
1,57,110,1
1,62,105,0
1,62,103,13
1,59,108,2
1,55,110,0
1,59,105,1
1,55,103,0
1,62,98,0
1,60,96,21
1,62,94,0
1,55,98,1
1,55,83,1
1,60,81,0
1,62,81,0
1,62,105,1
1,60,103,0
1,55,105,0
1,55,125,0
1,59,120,0
1,62,116,0
1,55,78,1
1,57,103,5
1,62,103,0
1,54,99,0
1,54,105,0
1,57,103,0
1,62,99,1
1,57,112,1
1,62,112,0
1,54,112,0
1,54,85,1
1,57,125,0
1,62,120,1
1,54,93,1
1,59,110,15
1,55,110,0
1,62,118,0
1,67,125,0
1,74,93,79
1,79,88,0
1,71,88,0
1,71,114,8
1,79,125,0
1,74,120,0
1,59,87,0
1,62,99,0
1,67,106,0
1,55,85,1
1,71,88,10
1,74,89,0
1,79,80,0
1,71,106,9
1,79,118,0
1,74,122,0
1,59,105,0
1,62,110,0
1,67,118,1
1,55,99,0
1,74,82,22
1,71,76,0
1,79,69,0
1,79,114,8
1,71,105,0
1,74,116,1
1,59,108,0
1,62,110,0
1,55,98,1
1,67,120,0
1,71,81,18
1,74,81,0
1,79,69,0
1,79,122,9
1,71,122,0
1,74,125,0
1,57,100,4
1,61,105,0
1,64,91,0
1,76,74,81
1,73,74,0
1,69,74,0
1,69,103,0
1,76,116,0
1,73,109,1
1,64,100,4
1,61,109,1
1,57,108,0
1,69,78,80
1,73,79,0
1,76,74,0
1,69,98,1
1,73,112,0
1,76,120,0
1,52,78,14
1,57,78,0
1,61,78,0
1,45,103,0
1,33,114,0
1,61,75,74
1,69,75,0
1,64,75,0
1,61,105,1
1,69,102,0
1,64,106,0
1,64,77,1
1,69,92,0
1,73,86,0
1,64,89,5
1,69,114,0
1,73,103,0
1,61,83,1
1,64,83,0
1,69,83,0
1,61,118,1
1,69,118,0
1,64,118,0
1,57,112,0
1,50,112,0
1,54,109,0
1,66,82,82
1,69,82,0
1,74,82,0
1,66,118,5
1,69,122,1
1,74,120,1
1,57,118,1
1,54,115,0
1,50,116,0
1,74,66,66
1,66,73,1
1,69,73,0
1,74,97,8
1,69,116,0
1,50,114,0
1,54,118,1
1,57,120,0
1,66,75,67
1,69,74,0
1,74,66,0
1,66,115,9
1,69,122,0
1,74,116,0
1,50,106,1
1,54,118,0
1,57,110,1
1,66,66,0
1,69,69,0
1,74,60,1
1,74,112,1
1,69,110,0
1,67,110,18
1,62,114,0
1,59,106,0
1,55,100,0
1,43,92,0
1,71,85,81
1,74,84,0
1,79,80,0
1,74,122,0
1,71,110,0
1,79,110,1
1,79,93,1
1,83,94,0
1,86,102,0
1,86,103,0
1,79,96,1
1,83,102,0
1,71,81,1
1,74,88,0
1,79,88,0
1,71,110,1
1,74,120,0
1,79,106,0
1,31,102,1
1,43,98,0
1,59,100,1
1,67,112,0
1,62,110,0
1,31,91,1
1,43,91,0
1,55,69,1
1,59,72,0
1,62,74,0
1,31,77,1
1,43,65,0
1,59,93,1
1,62,100,0
1,55,88,0
1,31,108,18
1,43,108,0
1,55,103,1
1,62,112,0
1,59,112,0
1,31,110,23
1,43,105,0
1,55,114,1
1,62,120,0
1,59,125,0
1,31,105,1
1,43,105,0
1,55,116,1
1,62,122,0
1,59,125,0
1,31,114,1
1,43,106,0
1,62,118,1
1,59,116,0
1,55,114,0
1,43,108,1
1,31,114,0
1,58,112,3
1,34,99,0
1,46,99,0
1,65,110,0
1,62,106,0
1,58,115,1
1,65,108,0
1,62,112,0
1,58,86,1
1,62,96,0
1,65,75,0
1,58,99,0
1,62,105,1
1,65,89,0
1,46,71,1
1,58,105,1
1,62,105,0
1,65,98,0
1,46,81,1
1,34,79,1
1,58,115,0
1,46,75,0
1,65,110,0
1,62,114,0
1,58,74,1
1,62,108,1
1,58,115,0
1,65,99,0
1,58,107,1
1,58,125,1
1,62,125,0
1,65,114,0
1,58,89,1
1,62,120,0
1,65,110,0
1,58,124,1
1,58,93,1
1,38,102,2
1,57,110,0
1,62,120,0
1,66,115,0
1,50,103,4
1,69,86,77
1,74,78,0
1,78,81,0
1,78,109,1
1,69,95,0
1,74,112,0
1,74,93,1
1,78,99,0
1,81,96,0
1,74,88,0
1,81,96,1
1,78,99,0
1,78,93,1
1,81,99,0
1,86,98,0
1,78,112,1
1,81,110,0
1,86,118,0
1,26,120,1
1,38,118,0
1,57,110,14
1,66,112,0
1,62,122,1
1,43,88,33
1,31,89,0
1,55,100,0
1,62,100,0
1,59,102,0
1,55,81,1
1,59,77,0
1,62,69,0
1,59,112,1
1,62,106,0
1,55,114,0
1,62,103,0
1,59,106,1
1,55,110,0
1,57,106,18
1,54,101,0
1,26,98,0
1,62,103,0
1,38,94,1
1,54,95,1
1,57,100,0
1,62,99,0
1,62,100,1
1,54,92,0
1,57,102,0
1,57,102,1
1,54,99,0
1,62,103,0
1,31,93,17
1,43,94,0
1,62,108,1
1,59,106,0
1,55,102,0
1,62,93,1
1,55,88,0
1,59,96,0
1,62,106,14
1,60,106,0
1,55,105,0
1,60,85,1
1,62,82,0
1,55,83,0
1,60,95,1
1,55,88,0
1,62,88,0
1,55,100,1
1,59,108,0
1,62,103,0
1,57,105,0
1,62,103,0
1,54,99,0
1,38,96,1
1,26,99,1
1,31,83,39
1,43,93,0
1,59,103,0
1,62,99,0
1,55,102,0
1,59,100,1
1,55,93,0
1,62,91,0
1,62,96,1
1,60,93,0
1,55,88,0
1,62,96,14
1,59,98,0
1,55,93,0
1,43,81,14
1,54,89,3
1,38,94,0
1,62,102,0
1,26,93,0
1,57,95,0
1,54,86,1
1,57,93,0
1,62,92,0
1,38,74,1
1,54,89,1
1,62,98,0
1,57,91,0
1,57,98,1
1,62,105,0
1,54,69,1
1,59,88,0
1,43,78,0
1,31,78,1
1,62,83,0
1,55,84,0
1,62,81,1
1,59,81,0
1,55,77,0
1,62,88,1
1,60,88,0
1,55,88,0
1,62,79,1
1,59,81,0
1,55,80,0
1,62,88,12
1,57,92,0
1,38,86,0
1,54,76,0
1,26,49,1
1,60,67,1131
1,60,72,5
1,60,62,1
1,59,62,1
1,31,37,237
1,43,52,0
1,62,49,3
1,60,52,0
1,55,43,2
1,60,72,1
1,62,76,0
1,55,76,1
1,60,59,1
1,62,64,0
1,55,76,1
1,59,78,0
1,62,80,0
1,62,76,1
1,55,67,0
1,59,64,1
1,62,86,1
1,55,81,0
1,59,81,0
1,31,81,32
1,55,85,1
1,59,92,0
1,62,91,0
1,43,79,1
1,59,77,5
1,62,86,5
1,67,81,53
1,71,74,62
1,74,72,73
1,79,79,152
2,43,95,768
2,38,100,12
2,43,90,14
2,38,98,16
2,43,93,19
2,38,91,21
2,43,94,19
2,38,98,13
2,45,87,11
2,40,91,22
2,45,82,14
2,45,90,21
2,40,91,8
2,39,97,7
2,38,90,8
2,33,90,25
2,38,90,16
2,33,100,11
2,43,95,20
2,43,87,20
2,43,93,12
2,43,100,29
2,43,94,19
2,43,105,16
2,43,102,21
2,34,103,9
2,34,95,28
2,34,99,14
2,34,107,26
2,41,94,24
2,41,84,20
2,41,84,14
2,41,91,26
2,41,93,17
2,41,90,14
2,41,96,24
2,42,103,5
2,43,94,13
2,38,102,21
2,43,93,16
2,43,89,15
2,38,91,15
2,43,102,9
2,43,89,17
2,45,90,14
2,40,93,15
2,40,94,26
2,45,90,6
2,40,94,3
2,38,97,6
2,38,101,14
2,38,100,18
2,38,95,14
2,31,127,9
2,31,127,28
2,31,127,34
2,31,127,17
2,31,127,17
2,31,116,22
2,31,107,11
2,32,127,6
2,33,110,10
2,45,116,11
2,45,127,13
2,38,110,9
2,40,90,0
2,33,125,2
2,33,127,15
2,33,114,9
2,33,127,11
2,33,119,18
2,35,100,1
2,38,127,8
2,38,121,24
2,33,120,24
2,33,114,28
2,35,120,13
2,38,127,11
2,38,124,27
2,33,125,10
2,33,112,27
2,38,116,6
2,33,108,5
2,43,126,15
2,43,107,22
2,38,124,5
2,38,114,28
2,40,114,4
2,43,110,11
2,43,122,16
2,43,105,6
2,43,91,6
2,43,108,4
2,43,120,11
2,43,127,16
2,43,120,12
2,34,126,14
2,34,127,18
2,34,127,18
2,34,127,19
2,34,117,23
2,34,127,28
2,34,127,14
2,34,107,8
2,34,101,8
