track,note,velocity,time
3,69,85,2360
3,69,0,95
3,69,85,25
3,71,85,60
3,69,0,5
3,71,0,52
3,72,85,3
3,72,0,60
3,76,85,0
3,76,0,117
3,69,85,3
3,69,0,305
3,69,85,355
3,69,0,60
3,71,85,0
3,72,85,60
3,71,0,5
3,72,0,55
3,76,85,0
3,76,0,110
3,69,85,10
3,69,0,415
3,69,85,125
3,69,0,95
3,69,85,25
3,71,85,60
3,69,0,5
3,72,85,55
3,71,0,2
3,76,85,58
3,72,0,5
3,69,85,115
3,76,0,2
3,69,0,295
3,69,85,363
3,69,0,60
3,71,85,0
3,71,0,55
3,72,85,5
3,72,0,60
3,76,85,0
3,76,0,110
3,69,85,10
3,69,0,315
3,67,85,105
3,67,0,107
3,72,85,13
3,72,0,67
3,72,85,23
3,74,85,90
3,72,0,15
3,74,0,45
3,76,85,0
3,76,0,100
3,76,85,20
3,76,0,60
3,79,85,0
3,79,0,60
3,74,85,0
3,74,0,265
3,74,85,95
3,74,0,27
3,74,85,33
3,74,0,52
3,72,85,8
3,72,0,40
3,72,85,20
3,72,0,160
3,72,85,20
3,72,0,117
3,76,85,3
3,76,0,92
3,76,85,28
3,76,0,275
3,71,85,85
3,71,0,120
3,69,85,0
3,69,0,40
3,69,85,20
3,69,0,112
3,65,85,8
3,69,85,60
3,65,0,2
3,69,0,80
3,72,85,8
3,72,0,77
3,72,85,13
3,72,0,275
3,70,85,25
3,70,0,85
3,69,85,5
3,69,0,85
3,67,85,5
3,67,0,290
3,62,85,10
3,65,85,90
3,62,0,10
3,64,85,80
3,65,0,10
3,64,0,405
3,69,85,125
3,69,0,107
3,69,85,13
3,71,85,60
3,69,0,2
3,72,85,58
3,71,0,5
3,76,85,55
3,72,0,2
3,76,0,113
3,69,85,5
3,69,0,275
3,69,85,25
3,69,0,120
3,67,85,0
3,65,85,120
3,67,0,5
3,65,0,115
3,69,85,0
3,71,85,60
3,69,0,2
3,72,85,58
3,71,0,5
3,76,85,55
3,72,0,5
3,76,0,112
3,69,85,3
3,69,0,410
3,69,85,130
3,69,0,65
3,69,85,25
3,71,85,90
3,69,0,7
3,72,85,53
3,71,0,5
3,76,85,115
3,72,0,2
3,76,0,55
3,69,85,3
3,69,0,272
3,69,85,28
3,69,0,117
3,67,85,3
3,67,0,120
3,65,85,0
3,69,85,120
3,65,0,2
3,71,85,58
3,69,0,5
3,72,85,55
3,71,0,2
3,76,85,58
3,72,0,10
3,76,0,90
3,69,85,20
3,69,0,297
3,72,85,243
3,72,0,62
3,72,85,28
3,74,85,90
3,72,0,2
3,74,0,58
3,76,85,0
3,76,0,100
3,76,85,20
3,76,0,55
3,79,85,5
3,79,0,52
3,74,85,8
3,74,0,340
3,74,85,20
3,74,0,110
3,72,85,10
3,69,85,180
3,72,0,5
3,69,0,50
3,72,85,5
3,72,0,112
3,74,85,8
3,76,85,60
3,74,0,5
3,76,0,40
3,76,85,15
3,76,0,260
3,72,85,100
3,72,0,57
3,71,85,3
3,71,0,60
3,69,85,0
3,65,85,180
3,69,0,12
3,69,85,48
3,65,0,5
3,69,0,110
3,72,85,5
3,72,0,100
3,72,85,20
3,72,0,225
3,70,85,15
3,69,85,60
3,70,0,7
3,69,0,108
3,67,85,5
3,67,0,287
3,62,85,13
3,65,85,60
3,62,0,5
3,64,85,115
3,65,0,5
3,64,0,407
3,69,85,128
3,69,0,105
3,69,85,15
3,69,0,85
3,71,85,5
3,72,85,30
3,71,0,5
3,72,0,115
3,76,85,0
3,76,0,120
3,69,85,0
3,69,0,237
3,72,85,3
3,72,0,72
3,74,85,18
3,76,85,30
3,74,0,12
3,79,85,108
3,76,0,10
3,79,0,47
3,77,85,3
3,77,0,285
3,72,85,15
3,72,0,115
3,69,85,5
3,69,0,442
3,69,85,38
3,69,0,95
3,69,85,25
3,69,0,85
3,71,85,5
3,71,0,30
3,72,85,0
3,72,0,117
3,76,85,3
3,76,0,120
3,69,85,0
3,69,0,220
3,72,85,20
3,72,0,85
3,74,85,5
3,76,85,30
3,74,0,7
3,79,85,113
3,76,0,5
3,77,85,55
3,79,0,15
3,77,0,277
3,72,85,8
3,72,0,112
3,69,85,8
3,69,0,235
3,67,85,125
3,67,0,112
3,72,85,8
3,72,0,62
3,72,85,28
3,74,85,90
3,72,0,2
3,74,0,58
3,76,85,0
3,76,0,100
3,76,85,20
3,76,0,55
3,79,85,5
3,79,0,52
3,74,85,8
3,74,0,340
3,74,85,20
3,74,0,110
3,72,85,10
3,69,85,180
3,72,0,5
3,69,0,50
3,72,85,5
3,72,0,112
3,74,85,8
3,76,85,60
3,74,0,5
3,76,0,40
3,76,85,15
3,76,0,260
3,72,85,100
3,72,0,57
3,71,85,3
3,71,0,60
3,69,85,0
3,65,85,180
3,69,0,12
3,69,85,48
3,65,0,5
3,69,0,110
3,72,85,5
3,72,0,100
3,72,85,20
3,72,0,225
3,70,85,15
3,69,85,60
3,70,0,7
3,69,0,108
3,67,85,5
3,67,0,287
3,62,85,13
3,65,85,60
3,62,0,5
3,64,85,115
3,65,0,5
3,64,0,407
3,69,85,128
3,69,0,100
3,69,85,20
3,71,85,60
3,69,0,5
3,71,0,55
3,72,85,0
3,72,0,57
3,76,85,3
3,76,0,112
3,69,85,8
3,69,0,280
3,69,85,20
3,69,0,115
3,67,85,5
3,65,85,120
3,67,0,7
3,69,85,113
3,65,0,7
3,69,0,53
3,71,85,0
3,72,85,60
3,71,0,5
3,76,85,55
3,72,0,2
3,76,0,113
3,69,85,5
3,69,0,400
3,69,85,140
3,69,0,65
3,69,85,25
3,69,0,85
3,71,85,5
3,72,85,60
3,71,0,2
3,72,0,115
3,76,85,3
3,76,0,57
3,69,85,3
3,69,0,262
3,69,85,38
3,69,0,120
3,67,85,0
3,67,0,117
3,65,85,3
3,69,85,120
3,65,0,10
3,71,85,50
3,69,0,5
3,71,0,55
3,72,85,0
3,76,85,60
3,72,0,5
3,76,0,105
3,69,85,10
3,69,0,290
3,67,85,130
3,67,0,107
3,72,85,13
3,72,0,67
3,72,85,23
3,74,85,90
3,72,0,15
3,74,0,45
3,76,85,0
3,76,0,45
3,76,85,15
3,76,0,45
3,76,85,15
3,76,0,60
3,79,85,0
3,79,0,60
3,74,85,0
3,74,0,265
3,74,85,95
3,74,0,27
3,74,85,33
3,74,0,52
3,72,85,8
3,72,0,40
3,72,85,20
3,72,0,160
3,72,85,20
3,72,0,117
3,76,85,3
3,76,0,92
3,76,85,28
3,76,0,275
3,71,85,85
3,71,0,120
3,69,85,0
3,69,0,40
3,69,85,20
3,69,0,112
3,65,85,8
3,69,85,60
3,65,0,2
3,69,0,80
3,72,85,8
3,72,0,77
3,72,85,13
3,72,0,275
3,70,85,25
3,70,0,85
3,69,85,5
3,69,0,85
3,67,85,5
3,67,0,290
3,62,85,10
3,65,85,90
3,62,0,10
3,64,85,80
3,65,0,10
3,64,0,405
3,69,85,125
3,69,0,102
3,69,85,18
3,69,0,82
3,71,85,8
3,72,85,30
3,71,0,10
3,72,0,110
3,76,85,0
3,76,0,120
3,69,85,0
3,72,85,240
3,69,0,5
3,72,0,70
3,74,85,15
3,76,85,30
3,74,0,15
3,76,0,102
3,79,85,3
3,77,85,60
3,79,0,10
3,77,0,275
3,72,85,15
3,72,0,120
3,69,85,0
3,69,0,450
3,69,85,30
3,69,0,105
3,69,85,15
3,69,0,90
3,71,85,0
3,72,85,30
3,71,0,5
3,72,0,115
3,76,85,0
3,76,0,115
3,69,85,5
3,69,0,240
3,72,85,0
3,72,0,77
3,74,85,13
3,76,85,30
3,74,0,10
3,76,0,105
3,79,85,5
3,77,85,60
3,79,0,10
3,77,0,400
4,36,117,6200
4,36,0,87
4,36,117,33
4,36,0,90
4,36,117,30
4,36,0,95
4,36,117,25
4,36,0,105
4,31,117,15
4,31,0,105
4,31,117,15
4,31,0,92
4,31,117,28
4,31,0,90
4,31,117,30
4,31,0,115
4,33,117,5
4,33,0,95
4,33,117,25
4,33,0,95
4,33,117,25
4,33,0,92
4,33,117,28
4,33,0,110
4,28,117,10
4,28,0,100
4,28,117,20
4,28,0,90
4,28,117,30
4,28,0,95
4,28,117,25
4,28,0,115
4,29,117,5
4,29,0,90
4,29,117,30
4,29,0,92
4,29,117,28
4,29,0,95
4,29,117,25
4,29,0,115
4,36,117,5
4,36,0,90
4,36,117,30
4,36,0,90
4,36,117,30
4,36,0,82
4,36,117,38
4,36,0,102
4,31,117,18
4,31,0,92
4,31,117,28
4,31,0,95
4,31,117,25
4,31,0,87
4,31,117,33
4,31,0,110
4,36,117,10
4,36,0,95
4,36,117,25
4,36,0,80
4,36,117,40
4,36,0,85
4,36,117,35
4,36,0,75
4,33,117,45
4,33,0,702
4,33,117,18
4,33,0,120
4,31,117,0
4,29,117,120
4,31,0,7
4,29,0,468
4,33,117,5
4,28,117,420
4,33,0,5
4,28,0,55
4,33,117,0
4,33,0,702
4,33,117,18
4,33,0,115
4,31,117,5
4,29,117,120
4,31,0,5
4,29,0,475
4,33,117,0
4,33,0,225
4,31,117,15
4,36,117,240
4,31,0,15
4,36,0,72
4,36,117,33
4,36,0,90
4,36,117,30
4,36,0,95
4,36,117,25
4,36,0,105
4,31,117,15
4,31,0,105
4,31,117,15
4,31,0,92
4,31,117,28
4,31,0,90
4,31,117,30
4,31,0,115
4,33,117,5
4,33,0,95
4,33,117,25
4,33,0,95
4,33,117,25
4,33,0,92
4,33,117,28
4,33,0,110
4,28,117,10
4,28,0,100
4,28,117,20
4,28,0,90
4,28,117,30
4,28,0,95
4,28,117,25
4,28,0,115
4,29,117,5
4,29,0,90
4,29,117,30
4,29,0,92
4,29,117,28
4,29,0,95
4,29,117,25
4,29,0,115
4,36,117,5
4,36,0,90
4,36,117,30
4,36,0,90
4,36,117,30
4,36,0,82
4,36,117,38
4,36,0,102
4,31,117,18
4,31,0,92
4,31,117,28
4,31,0,95
4,31,117,25
4,31,0,87
4,31,117,33
4,31,0,110
4,36,117,10
4,36,0,95
4,36,117,25
4,36,0,80
4,36,117,40
4,36,0,85
4,36,117,35
4,36,0,75
4,33,117,45
4,33,0,702
4,33,117,18
4,33,0,120
4,31,117,0
4,29,117,120
4,31,0,7
4,29,0,468
4,33,117,5
4,28,117,420
4,33,0,5
4,28,0,55
4,33,117,0
4,33,0,702
4,33,117,18
4,33,0,115
4,31,117,5
4,29,117,120
4,31,0,5
4,29,0,475
4,33,117,0
4,33,0,225
4,31,117,15
4,36,117,240
4,31,0,15
4,36,0,72
4,36,117,33
4,36,0,90
4,36,117,30
4,36,0,95
4,36,117,25
4,36,0,105
4,31,117,15
4,31,0,105
4,31,117,15
4,31,0,92
4,31,117,28
4,31,0,90
4,31,117,30
4,31,0,115
4,33,117,5
4,33,0,95
4,33,117,25
4,33,0,95
4,33,117,25
4,33,0,92
4,33,117,28
4,33,0,110
4,28,117,10
4,28,0,100
4,28,117,20
4,28,0,90
4,28,117,30
4,28,0,95
4,28,117,25
4,28,0,115
4,29,117,5
4,29,0,90
4,29,117,30
4,29,0,92
4,29,117,28
4,29,0,95
4,29,117,25
4,29,0,115
4,36,117,5
4,36,0,90
4,36,117,30
4,36,0,90
4,36,117,30
4,36,0,82
4,36,117,38
4,36,0,102
4,31,117,18
4,31,0,92
4,31,117,28
4,31,0,95
4,31,117,25
4,31,0,87
4,31,117,33
4,31,0,110
4,36,117,10
4,36,0,95
4,36,117,25
4,36,0,80
4,36,117,40
4,36,0,85
4,36,117,35
4,36,0,75
4,33,117,45
4,33,0,702
4,33,117,18
4,33,0,120
4,31,117,0
4,29,117,120
4,31,0,7
4,29,0,468
4,33,117,5
4,28,117,420
4,33,0,5
4,28,0,55
4,33,117,0
4,33,0,702
4,33,117,18
4,33,0,115
4,31,117,5
4,29,117,120
4,31,0,5
4,29,0,475
4,33,117,0
4,33,0,225
4,31,117,15
4,36,117,240
4,31,0,15
4,36,0,72
4,36,117,33
4,36,0,90
4,36,117,30
4,36,0,95
4,36,117,25
4,36,0,105
4,31,117,15
4,31,0,105
4,31,117,15
4,31,0,92
4,31,117,28
4,31,0,90
4,31,117,30
4,31,0,115
4,33,117,5
4,33,0,95
4,33,117,25
4,33,0,95
4,33,117,25
4,33,0,92
4,33,117,28
4,33,0,110
4,28,117,10
4,28,0,100
4,28,117,20
4,28,0,90
4,28,117,30
4,28,0,95
4,28,117,25
4,28,0,115
4,29,117,5
4,29,0,90
4,29,117,30
4,29,0,92
4,29,117,28
4,29,0,95
4,29,117,25
4,29,0,115
4,36,117,5
4,36,0,90
4,36,117,30
4,36,0,90
4,36,117,30
4,36,0,82
4,36,117,38
4,36,0,102
4,31,117,18
4,31,0,92
4,31,117,28
4,31,0,95
4,31,117,25
4,31,0,87
4,31,117,33
4,31,0,110
4,36,117,10
4,36,0,95
4,36,117,25
4,36,0,80
4,36,117,40
4,36,0,85
4,36,117,35
4,36,0,75
4,33,117,45
4,33,0,702
4,33,117,18
4,33,0,120
4,31,117,0
4,29,117,120
4,31,0,7
4,29,0,468
4,33,117,5
4,28,117,420
4,33,0,5
4,28,0,55
4,33,117,0
4,33,0,702
4,33,117,18
4,33,0,115
4,31,117,5
4,29,117,120
4,31,0,5
4,29,0,465
5,66,76,920
5,69,76,0
5,74,76,0
5,74,0,477
5,64,76,3
5,73,76,0
5,66,0,5
5,73,0,475
5,45,76,0
5,72,76,0
5,72,0,1305
5,45,0,15
5,43,76,0
5,62,76,0
5,71,76,0
5,67,76,0
5,64,0,10
5,69,0,0
5,67,0,102
5,41,76,8
5,72,76,0
5,65,76,0
5,69,76,0
5,43,0,7
5,71,0,0
5,62,0,8
5,65,0,462
5,41,0,3
5,45,76,0
5,64,76,0
5,45,0,1310
5,64,0,10
5,43,76,0
5,62,76,0
5,71,76,0
5,67,76,0
5,72,0,2
5,69,0,3
5,67,0,110
5,41,76,5
5,65,76,0
5,72,76,0
5,69,76,0
5,43,0,7
5,71,0,3
5,62,0,7
5,65,0,463
5,45,76,0
5,64,76,0
5,41,0,7
5,72,0,220
5,45,0,3
5,64,0,10
5,43,76,0
5,62,76,0
5,71,76,0
5,67,76,0
5,69,0,2
5,43,0,243
5,67,0,0
5,71,0,2
5,62,0,8
6,43,84,17487
6,45,84,3
6,43,0,7
6,47,84,3
6,45,0,5
6,48,84,5
6,47,0,5
6,50,84,5
6,52,84,7
6,48,0,8
6,50,0,2
6,53,84,0
6,55,84,8
6,52,0,2
6,53,0,5
6,57,84,5
6,59,84,8
6,55,0,2
6,57,0,10
6,60,84,0
6,62,84,5
6,59,0,3
6,60,0,7
6,64,84,3
6,62,0,7
6,65,84,3
6,67,84,7
6,64,0,5
6,65,0,3
6,69,84,2
6,67,0,10
6,71,84,0
6,72,84,8
6,69,0,2
6,71,0,5
6,74,84,5
6,72,0,8
6,76,84,2
6,74,0,10
6,77,84,0
6,76,0,7
6,79,84,3
6,77,0,7
6,81,84,3
6,79,0,10
6,83,84,3
6,81,0,7
6,84,84,5
6,83,0,8
6,84,0,22
6,43,84,7420
6,45,84,3
6,43,0,7
6,47,84,3
6,45,0,5
6,48,84,5
6,47,0,5
6,50,84,5
6,52,84,7
6,48,0,8
6,50,0,2
6,53,84,0
6,55,84,8
6,52,0,2
6,53,0,5
6,57,84,5
6,59,84,8
6,55,0,2
6,57,0,10
6,60,84,0
6,62,84,5
6,59,0,3
6,60,0,7
6,64,84,3
6,62,0,7
6,65,84,3
6,67,84,7
6,64,0,5
6,65,0,3
6,69,84,2
6,67,0,10
6,71,84,0
6,72,84,8
6,69,0,2
6,71,0,5
6,74,84,5
6,72,0,8
6,76,84,2
6,74,0,10
6,77,84,0
6,76,0,7
6,79,84,3
6,77,0,7
6,81,84,3
6,79,0,10
6,83,84,3
6,81,0,7
6,84,84,5
6,83,0,8
6,84,0,22
6,43,84,3580
6,45,84,3
6,43,0,7
6,47,84,3
6,45,0,5
6,48,84,5
6,47,0,5
6,50,84,5
6,52,84,7
6,48,0,8
