track,note,velocity,time
1,69,63,4320
1,69,0,80
1,71,63,40
1,71,0,80
1,73,63,0
1,73,0,15
1,71,63,600
1,71,0,40
1,71,63,20
1,71,0,40
1,73,63,20
1,73,0,40
1,71,63,20
1,71,0,40
1,73,63,20
1,73,0,40
1,74,63,20
1,74,0,315
1,78,63,525
1,78,0,80
1,78,63,40
1,78,0,80
1,78,63,40
1,78,0,80
1,78,63,40
1,78,0,80
1,78,63,40
1,78,0,80
1,76,63,40
1,76,0,180
1,73,63,0
1,73,0,60
1,76,63,0
1,76,0,240
1,78,63,840
1,78,0,80
1,78,63,40
1,78,0,80
1,78,63,40
1,78,0,80
1,78,63,40
1,78,0,80
1,74,63,40
1,74,0,80
1,76,63,40
1,76,0,120
1,73,63,0
1,73,0,280
1,73,63,260
1,73,0,40
1,73,63,20
1,73,0,80
1,73,63,40
1,73,0,80
1,73,63,40
1,73,0,120
1,71,63,0
1,71,0,280
1,73,63,320
1,73,0,80
1,73,63,40
1,73,0,80
1,69,63,40
1,69,0,310
1,69,63,410
1,69,0,80
1,71,63,40
1,71,0,80
1,73,63,40
1,73,0,315
1,71,63,885
1,71,0,40
1,73,63,20
1,73,0,40
1,71,63,20
1,71,0,40
1,73,63,20
1,73,0,40
1,74,63,20
1,74,0,315
1,69,63,525
1,69,0,80
1,78,63,40
1,78,0,80
1,78,63,40
1,78,0,40
1,76,63,20
1,76,0,40
1,78,63,20
1,78,0,40
1,76,63,20
1,76,0,40
1,78,63,20
1,78,0,40
1,76,63,20
1,76,0,40
1,76,63,20
1,76,0,120
1,73,63,0
1,73,0,280
1,78,79,920
1,78,0,80
1,78,79,40
1,78,0,80
1,78,79,40
1,78,0,80
1,78,79,40
1,78,0,120
1,78,63,60
1,78,0,40
1,76,63,20
1,76,0,400
1,73,63,200
1,73,0,40
1,73,63,20
1,73,0,40
1,73,63,20
1,73,0,80
1,73,63,40
1,73,0,80
1,73,79,40
1,73,0,120
1,71,79,0
1,71,0,280
1,73,63,260
1,73,0,40
1,73,79,20
1,73,0,80
1,71,79,40
1,71,0,80
1,69,63,40
1,69,0,315
1,73,79,645
1,73,0,80
1,73,79,40
1,73,0,200
1,73,79,40
1,73,0,200
1,74,79,40
1,74,0,80
1,73,79,40
1,73,0,80
1,71,79,40
1,71,0,435
1,73,79,405
1,73,0,120
1,76,79,0
1,76,0,120
1,78,79,0
1,78,0,80
1,78,79,40
1,78,0,200
1,78,79,40
1,78,0,200
1,78,79,40
1,78,0,80
1,78,79,40
1,78,0,80
1,76,79,40
1,76,0,435
1,71,79,345
1,71,0,40
1,73,79,20
1,73,0,80
1,73,79,40
1,73,0,80
1,73,79,40
1,73,0,55
1,71,79,65
1,71,0,280
1,71,79,260
1,71,0,40
1,73,79,20
1,73,0,80
1,73,79,40
1,73,0,80
1,71,79,40
1,71,0,80
1,69,79,40
1,69,0,280
1,64,79,260
1,64,0,40
1,73,79,20
1,73,0,60
1,71,79,0
1,71,0,40
1,69,79,20
1,69,0,80
1,69,79,40
1,69,0,80
1,69,79,40
1,69,0,280
1,69,63,320
1,69,0,80
1,71,63,40
1,71,0,80
1,73,63,0
1,73,0,15
1,71,63,600
1,71,0,40
1,71,63,20
1,71,0,40
1,73,63,20
1,73,0,40
1,71,63,20
1,71,0,40
1,73,63,20
1,73,0,40
1,74,63,20
1,74,0,315
1,78,63,525
1,78,0,80
1,78,63,40
1,78,0,80
1,78,63,40
1,78,0,80
1,78,63,40
1,78,0,80
1,78,63,40
1,78,0,80
1,76,63,40
1,76,0,315
1,78,63,945
1,78,0,40
1,78,63,20
1,78,0,80
1,78,63,40
1,78,0,80
1,78,63,40
1,78,0,80
1,78,63,40
1,78,0,80
1,74,63,40
1,74,0,80
1,76,63,40
1,76,0,120
1,73,63,0
1,73,0,280
1,73,63,320
1,73,0,80
1,73,63,40
1,73,0,80
1,73,63,40
1,73,0,120
1,71,63,0
1,71,0,280
1,73,63,200
1,73,0,80
1,73,63,40
1,73,0,80
1,71,63,40
1,71,0,80
1,69,63,40
1,69,0,310
1,69,63,410
1,69,0,80
1,71,63,40
1,71,0,80
1,73,63,40
1,73,0,315
1,71,63,765
1,71,0,40
1,73,63,20
1,73,0,40
1,71,63,20
1,71,0,40
1,73,63,20
1,73,0,40
1,71,63,20
1,71,0,40
1,73,63,20
1,73,0,40
1,74,63,20
1,74,0,315
1,69,63,525
1,69,0,80
1,78,63,40
1,78,0,80
1,78,63,40
1,78,0,40
1,76,63,20
1,76,0,40
1,78,63,20
1,78,0,40
1,76,63,20
1,76,0,40
1,78,63,20
1,78,0,40
1,76,63,20
1,76,0,40
1,76,63,20
1,76,0,120
1,73,63,0
1,73,0,280
1,78,79,920
1,78,0,80
1,78,79,40
1,78,0,80
1,78,79,40
1,78,0,80
1,78,63,40
1,78,0,80
1,78,63,40
1,78,0,40
1,78,63,20
1,78,0,40
1,76,79,20
1,76,0,315
1,73,79,285
1,73,0,40
1,73,79,20
1,73,0,40
1,73,79,20
1,73,0,80
1,73,79,40
1,73,0,80
1,73,79,40
1,73,0,120
1,71,79,0
1,71,0,280
1,73,79,320
1,73,0,80
1,71,79,40
1,71,0,180
1,69,63,0
1,69,0,315
1,73,79,585
1,73,0,80
1,73,79,40
1,73,0,200
1,73,79,40
1,73,0,200
1,74,79,40
1,74,0,80
1,73,79,40
1,73,0,80
1,71,79,40
1,71,0,435
1,73,79,405
1,73,0,120
1,76,79,0
1,76,0,120
1,78,79,0
1,78,0,80
1,78,79,40
1,78,0,200
1,78,79,40
1,78,0,200
1,78,79,40
1,78,0,80
1,78,79,40
1,78,0,80
1,76,79,40
1,76,0,435
1,71,79,345
1,71,0,40
1,73,79,20
1,73,0,80
1,73,79,40
1,73,0,80
1,73,79,40
1,73,0,55
1,71,79,65
1,71,0,280
1,71,79,260
1,71,0,40
1,73,79,20
1,73,0,80
1,73,79,40
1,73,0,80
1,71,79,40
1,71,0,80
1,69,79,40
1,69,0,280
1,64,79,260
1,64,0,40
1,73,79,20
1,73,0,60
1,71,79,0
1,71,0,40
1,69,79,20
1,69,0,80
1,69,79,40
1,69,0,80
1,69,79,40
1,69,0,280
1,73,79,560
1,73,0,80
1,73,79,40
1,73,0,200
1,73,79,40
1,73,0,200
1,74,79,40
1,74,0,80
1,73,79,40
1,73,0,80
1,71,79,40
1,71,0,435
1,73,79,405
1,73,0,120
1,76,79,0
1,76,0,120
1,78,79,0
1,78,0,80
1,78,79,40
1,78,0,200
1,78,79,40
1,78,0,200
1,78,79,40
1,78,0,80
1,78,79,40
1,78,0,80
1,76,79,40
1,76,0,435
1,71,79,345
1,71,0,40
1,73,79,20
1,73,0,80
1,73,79,40
1,73,0,80
1,73,79,40
1,73,0,55
1,71,79,65
1,71,0,280
1,71,79,260
1,71,0,40
1,73,79,20
1,73,0,80
1,73,79,40
1,73,0,80
1,71,79,40
1,71,0,80
1,69,79,40
1,69,0,280
1,64,79,260
1,64,0,40
1,73,79,20
1,73,0,60
1,71,79,0
1,71,0,40
1,69,79,20
1,69,0,80
1,69,79,40
1,69,0,80
1,69,79,40
1,69,0,280
1,73,79,560
1,73,0,80
1,73,79,40
1,73,0,200
1,73,79,40
1,73,0,200
1,74,79,40
1,74,0,80
1,73,79,40
1,73,0,80
1,71,79,40
1,71,0,435
1,73,79,405
1,73,0,120
1,76,79,0
1,76,0,120
1,78,79,0
1,78,0,80
1,78,79,40
1,78,0,200
1,78,79,40
1,78,0,200
1,78,79,40
1,78,0,80
1,78,79,40
1,78,0,80
1,76,79,40
1,76,0,435
1,71,79,345
1,71,0,40
1,73,79,20
1,73,0,80
1,73,79,40
1,73,0,80
1,73,79,40
1,73,0,55
1,71,79,65
1,71,0,280
1,71,79,260
1,71,0,40
1,73,79,20
1,73,0,80
1,73,79,40
1,73,0,80
1,71,79,40
1,71,0,80
1,69,79,40
1,69,0,280
1,64,79,260
1,64,0,40
1,73,79,20
1,73,0,60
1,71,79,0
1,71,0,40
1,69,79,20
1,69,0,80
1,69,79,40
1,69,0,80
1,69,79,40
1,69,0,760
2,52,79,720
2,52,0,120
2,54,79,0
2,54,0,120
2,57,79,0
2,57,0,120
2,54,79,0
2,54,0,120
2,59,79,0
2,59,0,120
2,57,79,0
2,57,0,120
2,54,79,0
2,54,0,120
2,50,79,0
2,50,0,120
2,54,79,0
2,54,0,160
2,52,79,80
2,52,0,555
2,76,63,9765
2,69,63,0
2,73,63,0
2,73,0,960
2,69,0,0
2,76,0,0
2,78,63,0
2,74,63,0
2,71,63,0
2,71,0,960
2,74,0,0
2,78,0,0
2,74,63,0
2,69,63,0
2,78,63,0
2,78,0,480
2,69,0,0
2,74,0,0
2,78,63,0
2,74,63,0
2,81,63,0
2,81,0,240
2,74,0,0
2,78,0,0
2,69,63,0
2,78,63,0
2,74,63,0
2,74,0,240
2,78,0,0
2,76,63,0
2,73,63,0
2,73,0,960
2,76,0,0
2,69,0,0
2,71,63,0
2,67,63,0
2,67,0,960
2,71,0,0
2,76,63,0
2,69,63,0
2,73,63,0
2,73,0,960
2,69,0,0
2,76,0,0
2,76,63,0
2,68,63,0
2,71,63,0
2,71,0,960
2,68,0,0
2,76,0,0
2,66,63,0
2,60,63,0
2,69,63,0
2,71,63,420
2,71,0,60
2,66,0,0
2,60,0,0
2,69,0,0
2,69,79,0
2,69,0,120
2,73,79,0
2,73,0,120
2,74,79,0
2,74,0,120
2,76,79,0
2,76,0,120
2,76,79,0
2,69,79,0
2,73,79,0
2,73,0,960
2,69,0,0
2,76,0,0
2,76,79,0
2,68,79,0
2,71,79,0
2,71,0,960
2,68,0,0
2,76,0,0
2,78,79,0
2,69,79,0
2,74,79,0
2,74,0,960
2,78,0,0
2,73,79,0
2,76,79,0
2,76,0,635
2,73,0,0
2,69,0,0
2,76,63,3205
2,69,63,0
2,73,63,0
2,73,0,960
2,69,0,0
2,76,0,0
2,74,63,0
2,66,63,0
2,71,63,0
2,71,0,960
2,66,0,0
2,74,0,0
2,78,63,0
2,69,63,0
2,74,63,0
2,74,0,960
2,69,0,0
2,78,0,0
2,73,63,0
2,69,63,0
2,76,63,0
2,76,0,480
2,69,0,0
2,73,0,0
2,64,63,0
2,61,63,0
2,69,63,0
2,69,0,240
2,61,0,0
2,64,0,0
2,73,63,0
2,64,63,0
2,69,63,0
2,69,0,240
2,64,0,0
2,73,0,0
2,71,63,0
2,67,63,0
2,67,0,960
2,71,0,0
2,76,63,0
2,69,63,0
2,73,63,0
2,73,0,960
2,69,0,0
2,76,0,0
2,76,63,0
2,68,63,0
2,71,63,0
2,71,0,960
2,68,0,0
2,76,0,0
2,66,63,0
2,60,63,0
2,69,63,0
2,69,0,635
2,60,0,0
2,66,0,0
2,76,47,325
2,69,63,0
2,73,63,0
2,73,0,960
2,69,0,0
2,76,0,0
2,78,63,0
2,74,63,0
2,71,63,0
2,71,0,960
2,74,0,0
2,78,0,0
2,74,63,0
2,69,63,0
2,78,63,0
2,78,0,480
2,69,0,0
2,74,0,0
2,78,63,0
2,74,63,0
2,81,63,0
2,81,0,240
2,74,0,0
2,78,0,0
2,78,63,0
2,74,63,0
2,69,63,0
2,69,0,240
2,74,0,0
2,78,0,0
2,73,63,0
2,69,63,0
2,76,63,0
2,76,0,480
2,69,0,0
2,73,0,0
2,64,63,0
2,61,63,0
2,69,63,0
2,69,0,240
2,61,0,0
2,64,0,0
2,73,63,0
2,64,63,0
2,69,63,0
2,69,0,240
2,64,0,0
2,73,0,0
2,71,63,0
2,67,63,0
2,67,0,960
2,71,0,0
2,69,63,0
2,73,63,0
2,76,63,0
2,76,0,480
2,73,0,0
2,73,63,0
2,64,63,0
2,64,0,240
2,76,63,0
2,73,0,240
2,69,0,0
2,68,63,0
2,71,63,0
2,71,0,960
2,68,0,0
2,76,0,0
2,66,63,0
2,60,63,0
2,69,63,0
2,71,63,420
2,71,0,60
2,66,0,0
2,60,0,0
2,69,0,0
2,69,79,0
2,69,0,120
2,73,79,0
2,73,0,120
2,74,79,0
2,74,0,120
2,76,79,0
2,76,0,120
2,76,79,0
2,69,79,0
2,73,79,0
2,73,0,960
2,69,0,0
2,76,0,0
2,76,79,0
2,68,79,0
2,71,79,0
2,71,0,960
2,68,0,0
2,76,0,0
2,78,79,0
2,69,79,0
2,74,79,0
2,74,0,960
2,69,0,0
2,78,0,0
2,73,79,0
2,69,79,0
2,76,79,0
2,76,0,635
2,69,0,0
2,73,0,0
2,76,79,325
2,68,79,0
2,71,79,0
2,71,0,960
2,68,0,0
2,76,0,0
2,78,79,0
2,69,79,0
2,74,79,0
2,74,0,960
2,69,0,0
2,78,0,0
2,76,79,960
2,69,79,0
2,73,79,0
2,73,0,960
2,69,0,0
2,76,0,0
2,76,79,0
2,68,79,0
2,71,79,0
2,71,0,960
2,68,0,0
2,76,0,0
2,78,79,0
2,69,79,0
2,74,79,0
2,74,0,960
2,78,0,0
2,73,79,0
2,76,79,0
2,76,0,635
2,73,0,0
2,69,0,0
2,76,79,3205
2,69,79,0
2,73,79,0
2,73,0,960
2,69,0,0
2,76,0,0
2,76,79,0
2,68,79,0
2,71,79,0
2,71,0,960
2,68,0,0
2,76,0,0
2,78,79,0
2,69,79,0
2,74,79,0
2,74,0,960
2,78,0,0
2,73,79,0
2,76,79,0
2,76,0,635
2,73,0,0
2,69,0,0
3,61,63,3310
3,61,0,40
3,64,63,20
3,64,0,40
3,69,63,20
3,69,0,40
3,73,63,20
3,73,0,40
3,76,63,20
3,76,0,40
3,73,63,20
3,73,0,40
3,69,63,20
3,69,0,40
3,64,63,20
3,64,0,40
3,61,63,20
3,61,0,315
3,61,63,165
3,61,0,40
3,64,63,20
3,64,0,40
3,69,63,20
3,69,0,40
3,73,63,20
3,73,0,40
3,76,63,20
3,76,0,40
3,73,63,20
3,73,0,40
3,69,63,20
3,69,0,40
3,64,63,20
3,64,0,40
3,61,63,20
3,61,0,160
3,60,79,14960
3,60,0,120
3,71,79,60
3,71,0,40
3,69,79,20
3,69,0,315
3,62,79,2565
3,62,0,40
3,66,79,20
3,66,0,40
3,69,79,20
3,69,0,40
3,74,79,20
3,74,0,40
3,78,79,20
3,78,0,40
3,81,79,20
3,81,0,40
3,85,79,20
3,85,0,40
3,88,79,20
3,88,0,375
3,62,79,21285
3,62,0,40
3,66,79,20
3,66,0,40
3,69,79,20
3,69,0,40
3,74,79,20
3,74,0,40
3,78,79,20
3,78,0,40
3,81,79,20
3,81,0,40
3,85,79,20
3,85,0,40
3,88,79,20
3,88,0,375
3,62,79,5925
3,62,0,40
3,66,79,20
3,66,0,40
3,69,79,20
3,69,0,40
3,74,79,20
3,74,0,40
3,78,79,20
3,78,0,40
3,81,79,20
3,81,0,40
3,85,79,20
3,85,0,40
3,88,79,20
3,88,0,375
3,62,79,5925
3,62,0,40
3,66,79,20
3,66,0,40
3,69,79,20
3,69,0,40
3,74,79,20
3,74,0,40
3,78,79,20
3,78,0,40
3,81,79,20
3,81,0,40
3,85,79,20
3,85,0,40
3,88,79,20
3,88,0,375
4,61,63,720
4,64,63,0
4,64,0,315
4,61,0,0
4,62,63,165
4,71,63,0
4,71,0,240
4,62,0,0
4,62,63,240
4,57,63,0
4,66,63,0
4,66,0,160
4,57,0,0
4,62,0,0
4,61,63,80
4,57,63,0
4,64,63,0
4,64,0,555
4,57,0,0
4,61,0,0
4,69,63,2085
4,64,63,0
4,73,63,0
4,73,0,635
4,64,0,0
4,69,0,0
4,66,63,565
4,71,63,0
4,74,63,0
4,74,0,160
4,71,0,0
4,66,0,0
4,71,63,80
4,66,63,0
4,74,63,0
4,74,0,315
4,66,0,0
4,71,0,0
4,74,63,645
4,69,63,0
4,78,63,0
4,78,0,315
4,69,0,0
4,74,0,0
4,73,63,165
4,69,63,0
4,76,63,0
4,76,0,635
4,69,0,0
4,73,0,0
4,71,63,805
4,67,63,0
4,67,0,315
4,71,0,0
4,64,63,165
4,69,63,0
4,73,63,0
4,73,0,470
