track,note,velocity,time
0,31,64,1536
0,55,100,0
0,71,100,0
0,71,52,0
0,59,66,0
0,51,44,0
0,71,100,12
0,50,54,0
0,55,60,192
0,44,42,0
0,50,96,0
0,50,56,0
0,55,84,0
0,62,68,0
0,72,108,0
0,72,76,0
0,44,38,0
0,31,56,0
0,50,92,0
0,71,86,0
0,71,46,0
0,51,34,0
0,38,64,0
0,54,100,0
0,71,100,0
0,71,58,0
0,57,66,0
0,51,50,0
0,69,84,0
0,69,56,0
0,50,48,0
0,54,52,180
0,44,56,0
0,50,92,0
0,50,50,0
0,54,86,0
0,62,64,0
0,71,100,0
0,71,52,0
0,44,54,0
0,38,64,0
0,50,86,0
0,69,84,0
0,69,60,0
0,51,44,0
0,36,50,0
0,48,84,0
0,52,72,0
0,69,100,0
0,69,60,0
0,55,62,0
0,51,50,0
0,67,80,0
0,67,48,0
0,52,50,0
0,60,60,176
0,44,50,0
0,48,60,12
0,52,52,0
0,48,76,0
0,64,60,0
0,44,60,0
0,62,84,180
0,36,56,0
0,48,76,0
0,64,92,0
0,64,39,0
0,55,62,0
0,67,86,0
0,52,54,0
0,62,40,192
0,60,62,0
0,44,56,0
0,31,58,0
0,43,76,0
0,52,31,0
0,36,58,0
0,48,66,0
0,60,42,0
0,55,36,0
0,45,44,288
0,67,100,0
0,43,62,0
0,69,15,84
0,69,74,0
0,41,52,0
0,69,37,0
0,69,11,84
0,31,60,0
0,55,86,0
0,71,104,0
0,59,42,0
0,62,50,0
0,59,62,0
0,35,75,0
0,51,44,0
0,69,37,0
0,69,29,60
0,50,56,84
0,42,20,0
0,69,19,0
0,69,16,84
0,55,52,84
0,54,75,0
0,37,75,0
0,42,47,0
0,69,47,0
0,69,29,72
0,31,48,0
0,50,92,0
0,50,50,0
0,42,25,0
0,69,19,0
0,35,37,84
0,69,14,0
0,31,54,0
0,55,82,0
0,62,64,0
0,35,64,0
0,42,75,0
0,69,51,0
0,69,22,68
0,55,84,8
0,50,40,0
0,42,29,0
0,69,31,0
0,69,16,60
0,59,46,84
0,54,75,0
0,37,75,0
0,42,51,0
0,69,45,0
0,69,15,52
0,31,62,0
0,50,84,0
0,50,52,0
0,42,29,0
0,69,13,0
0,69,5,84
0,33,62,0
0,45,96,0
0,60,39,0
0,57,34,0
0,60,56,0
0,35,75,0
0,42,75,0
0,69,51,0
0,69,29,84
0,52,44,84
0,42,27,0
0,69,19,0
0,69,72,84
0,69,16,0
0,55,76,12
0,69,104,0
0,57,56,0
0,54,75,0
0,37,75,0
0,42,49,0
0,69,49,0
0,71,78,0
0,69,25,0
0,33,48,0
0,69,96,0
0,52,50,0
0,42,34,0
0,69,29,0
0,71,86,0
0,35,42,0
0,69,16,0
0,33,56,0
0,72,104,0
0,64,62,0
0,35,64,0
0,42,75,0
0,69,49,0
0,69,23,28
0,45,86,4
0,52,44,0
0,46,35,0
0,69,22,0
0,69,17,84
0,52,74,0
0,60,64,0
0,54,75,0
0,37,75,0
0,42,58,0
0,69,49,0
0,69,17,12
0,33,52,0
0,45,84,0
0,52,54,0
0,35,52,0
0,42,34,0
0,69,27,0
0,69,4,84
0,36,54,0
0,48,88,0
0,52,92,0
0,55,86,0
0,64,58,0
0,55,64,0
0,35,75,0
0,42,75,0
0,69,47,0
0,69,27,72
0,52,56,84
0,42,30,0
0,69,4,0
0,69,29,64
0,60,58,84
0,54,75,0
0,37,75,0
0,42,51,0
0,69,47,0
0,69,27,16
0,36,42,84
0,76,86,0
0,52,40,0
0,42,30,0
0,69,31,0
0,35,32,84
0,69,23,0
0,36,54,12
0,48,74,0
0,76,104,0
0,55,56,0
0,35,51,0
0,42,75,0
0,69,47,0
0,69,35,76
0,76,82,12
0,52,52,0
0,42,32,0
0,69,37,0
0,69,21,40
0,76,92,12
0,64,54,0
0,54,75,0
0,37,75,0
0,42,58,0
0,69,47,0
0,69,29,28
0,36,42,12
0,76,84,0
0,52,40,0
0,42,30,0
0,69,35,0
0,38,58,16
0,69,19,0
0,31,64,0
0,55,86,0
0,59,86,0
0,74,96,0
0,59,38,0
0,62,42,0
0,59,52,0
0,35,75,0
0,42,75,0
0,69,49,0
0,69,21,72
0,50,62,84
0,46,35,0
0,69,25,0
0,69,4,84
0,55,58,84
0,54,75,0
0,37,75,0
0,42,52,0
0,69,47,0
0,69,27,48
0,31,58,0
0,50,86,0
0,50,48,0
0,42,23,0
0,69,35,0
0,35,35,84
0,69,17,0
0,31,64,0
0,55,82,0
0,71,52,0
0,62,64,0
0,35,61,0
0,42,75,0
0,69,47,0
0,69,21,60
0,55,86,12
0,50,48,0
0,35,44,0
0,42,27,0
0,69,31,0
0,69,20,80
0,59,62,0
0,54,75,0
0,37,75,0
0,42,51,0
0,69,47,0
0,69,15,0
0,31,66,0
0,50,88,0
0,50,56,0
0,35,75,0
0,42,40,0
0,69,37,0
0,42,20,84
0,69,11,0
0,29,66,0
0,53,86,0
0,69,54,0
0,60,46,0
0,57,60,0
0,35,75,0
0,42,75,0
0,69,37,0
0,69,29,72
0,48,38,84
0,42,20,0
0,69,19,0
0,69,16,84
0,57,92,84
0,53,66,0
0,54,75,0
0,37,75,0
0,42,47,0
0,69,47,0
0,69,29,24
0,29,56,84
0,76,88,0
0,48,31,0
0,42,25,0
0,69,19,0
0,35,37,84
0,69,14,0
0,29,60,12
0,53,88,0
0,76,96,0
0,60,62,0
0,35,64,0
0,42,75,0
0,69,51,0
0,69,22,44
0,76,96,12
0,48,42,0
0,42,29,0
0,69,31,0
0,69,16,84
0,76,100,12
0,57,66,0
0,54,75,0
0,37,75,0
0,42,51,0
0,69,45,0
0,69,15,4
0,29,58,12
0,72,76,0
0,48,52,0
0,42,29,0
0,69,13,0
0,69,5,84
0,31,54,0
0,55,88,0
0,74,88,0
0,59,39,0
0,67,54,0
0,59,54,0
0,35,75,0
0,42,75,0
0,69,51,0
0,69,29,84
0,71,84,0
0,50,54,0
0,42,27,0
0,69,19,0
0,69,16,84
0,55,56,84
0,54,75,0
0,37,75,0
0,42,49,0
0,69,49,0
0,69,25,0
0,31,62,84
0,50,54,0
0,42,34,0
0,69,29,0
0,35,42,84
0,69,16,0
0,31,58,52
0,62,66,0
0,35,64,0
0,42,75,0
0,69,49,0
0,69,23,48
0,57,84,0
0,50,42,0
0,46,35,0
0,69,22,0
0,69,17,84
0,55,84,0
0,71,104,0
0,59,64,0
0,54,75,0
0,37,75,0
0,42,58,0
0,69,49,0
0,69,17,12
0,40,56,0
0,52,86,0
0,71,84,0
0,55,58,0
0,35,52,0
0,42,34,0
0,69,27,0
0,69,4,80
0,38,66,0
0,50,88,0
0,54,84,0
0,71,104,0
0,57,44,0
0,66,54,0
0,54,54,0
0,35,75,0
0,42,75,0
0,69,47,0
0,69,27,84
0,69,78,0
0,50,48,0
0,42,30,0
0,69,4,0
0,69,29,64
0,57,60,84
0,54,75,0
0,37,75,0
0,42,51,0
0,69,47,0
0,69,27,20
0,38,62,12
0,50,82,0
0,50,44,0
0,42,30,0
0,69,31,0
0,35,32,84
0,69,23,0
0,38,62,12
0,50,84,0
0,62,60,0
0,35,51,0
0,42,75,0
0,69,47,0
0,69,35,40
0,50,30,84
0,42,32,0
0,69,37,0
0,69,21,84
0,71,96,12
0,57,56,0
0,54,75,0
0,37,75,0
0,42,58,0
0,69,47,0
0,69,29,16
0,38,60,0
0,69,78,0
0,50,42,0
0,42,30,0
0,69,35,0
0,69,19,84
0,36,58,0
0,48,92,0
0,67,100,0
0,55,48,0
0,58,54,0
0,64,66,0
0,60,54,0
0,35,75,0
0,42,75,0
0,69,49,0
0,69,21,76
0,52,80,84
0,52,54,0
0,46,35,0
0,69,25,0
0,69,4,84
0,58,88,0
0,58,56,0
0,54,75,0
0,37,75,0
0,42,52,0
0,69,47,0
0,69,27,48
0,36,50,84
0,42,23,0
0,69,35,0
0,35,35,84
0,69,17,0
0,36,54,0
0,48,96,0
0,35,61,0
0,42,75,0
0,69,47,0
0,69,21,84
0,35,44,84
0,42,27,0
0,69,31,0
0,69,20,84
0,67,104,84
0,54,75,0
0,37,75,0
0,42,51,0
0,69,47,0
0,69,15,48
0,28,50,0
0,69,84,0
0,35,75,0
0,42,40,0
0,69,37,0
0,42,20,8
0,69,11,0
0,31,64,0
0,55,96,0
0,71,96,0
0,62,64,0
0,59,62,0
0,59,58,0
0,35,75,0
0,51,44,0
0,69,37,0
0,69,29,84
0,50,48,84
0,42,20,0
0,69,19,0
0,69,16,84
0,55,62,84
0,54,75,0
0,37,75,0
0,42,47,0
0,69,47,0
0,69,29,40
0,31,56,0
0,50,96,0
0,50,54,0
0,42,25,0
0,69,19,0
0,35,37,84
0,69,14,0
0,31,62,0
0,55,86,0
0,62,64,0
0,35,64,0
0,42,75,0
0,69,51,0
0,69,22,60
0,55,84,12
0,50,46,0
0,42,29,0
0,69,31,0
0,69,16,84
0,59,58,84
0,54,75,0
0,37,75,0
0,42,51,0
0,69,45,0
0,69,15,24
0,31,58,0
0,50,86,0
0,50,54,0
0,42,29,0
0,69,13,0
0,32,42,20
0,69,5,0
0,33,60,0
0,45,84,0
0,64,58,0
0,60,54,0
0,60,66,0
0,35,75,0
0,42,75,0
0,69,51,0
0,69,29,76
0,52,44,84
0,42,27,0
0,69,19,0
0,69,16,84
0,55,82,84
0,69,96,0
0,57,54,0
0,54,75,0
0,37,75,0
0,42,49,0
0,69,49,0
0,71,82,0
0,69,25,0
0,33,56,0
0,69,84,0
0,52,42,0
0,42,34,0
0,69,29,0
0,71,86,0
0,35,42,0
0,69,16,0
0,33,58,0
0,72,100,0
0,60,30,0
0,35,64,0
0,42,75,0
0,69,49,0
0,69,23,12
0,45,96,12
0,52,42,0
0,46,35,0
0,69,22,0
0,69,17,84
0,52,80,0
0,55,56,0
0,54,75,0
0,37,75,0
0,42,58,0
0,69,49,0
0,69,17,56
0,33,54,0
0,45,84,0
0,52,37,0
0,35,52,0
0,42,34,0
0,69,27,0
0,69,4,36
0,36,54,0
0,48,86,0
0,52,88,0
0,55,86,0
0,67,56,0
0,55,66,0
0,35,75,0
0,42,75,0
0,69,47,0
0,69,27,84
0,52,46,84
0,42,30,0
0,69,4,0
0,69,29,84
0,64,64,84
0,54,75,0
0,37,75,0
0,42,51,0
0,69,47,0
0,69,27,76
0,36,48,84
0,67,84,0
0,52,28,0
0,42,30,0
0,69,31,0
0,35,32,84
0,69,23,0
0,36,54,0
0,48,84,0
0,76,92,0
0,60,64,0
0,35,51,0
0,42,75,0
0,69,47,0
0,69,35,76
0,76,88,12
0,52,46,0
0,42,32,0
0,69,37,0
0,74,80,0
0,69,21,0
0,76,96,0
0,55,66,0
0,54,75,0
0,37,75,0
0,42,58,0
0,69,47,0
0,74,92,0
0,69,29,0
0,36,38,0
0,76,96,0
0,52,44,0
0,42,30,0
0,69,35,0
0,38,58,0
0,74,104,0
0,69,19,0
0,31,64,0
0,55,92,0
0,74,88,0
0,62,42,0
0,71,52,0
0,59,56,0
0,35,75,0
0,42,75,0
0,69,49,0
0,69,21,64
0,71,76,0
0,50,54,0
0,46,35,0
0,69,25,0
0,69,4,84
0,55,48,84
0,54,75,0
0,37,75,0
0,42,52,0
0,69,47,0
0,69,27,8
0,31,56,0
0,50,88,0
0,50,42,0
0,42,23,0
0,69,35,0
0,35,35,84
0,69,17,0
0,31,66,0
0,55,86,0
0,62,66,0
0,35,61,0
0,42,75,0
0,69,47,0
0,69,21,60
0,55,78,0
0,72,66,0
0,50,36,0
0,35,44,0
0,42,27,0
0,69,31,0
0,69,20,84
0,71,68,0
0,59,60,0
0,54,75,0
0,37,75,0
0,42,51,0
0,69,47,0
0,69,15,0
0,43,64,0
0,50,74,0
0,67,68,0
0,55,44,0
0,35,75,0
0,42,40,0
0,69,37,0
0,42,20,60
0,69,11,0
0,41,68,0
0,53,82,0
0,60,60,0
0,69,52,0
0,57,60,0
0,35,75,0
0,42,75,0
0,69,37,0
0,69,29,72
0,48,39,84
0,42,20,0
0,69,19,0
0,69,16,84
0,57,88,84
0,53,64,0
0,54,75,0
0,37,75,0
0,42,47,0
0,69,47,0
0,69,29,64
0,41,62,84
0,76,96,0
0,48,44,0
0,42,25,0
0,69,19,0
0,35,37,84
0,69,14,0
0,41,54,12
0,53,80,0
0,76,92,0
0,60,62,0
0,35,64,0
0,42,75,0
0,69,51,0
0,69,22,52
0,76,96,12
0,48,44,0
0,42,29,0
0,69,31,0
0,69,16,84
0,76,96,4
0,57,64,0
0,54,75,0
0,37,75,0
0,42,51,0
0,69,45,0
0,69,15,64
0,29,58,20
0,48,25,0
0,42,29,0
0,69,13,0
0,69,5,84
0,31,64,0
0,55,100,0
0,59,64,0
0,74,88,0
0,67,66,0
0,59,38,0
0,59,58,0
0,35,75,0
0,42,75,0
0,69,51,0
0,69,29,76
0,50,42,84
0,42,27,0
0,69,19,0
0,69,16,36
0,55,62,84
0,54,75,0
0,37,75,0
0,42,49,0
0,69,49,0
0,69,25,44
0,31,58,84
0,50,50,0
0,42,34,0
0,69,29,0
0,35,42,84
0,69,16,0
0,31,66,64
0,62,68,0
0,35,64,0
0,42,75,0
0,69,49,0
0,69,23,84
0,57,88,0
0,71,86,0
0,57,66,0
0,46,35,0
0,69,22,0
0,71,86,12
0,69,17,0
0,55,82,0
0,71,108,0
0,55,66,0
0,54,75,0
0,37,75,0
0,42,58,0
0,69,49,0
0,69,17,84
0,40,64,0
0,52,84,0
0,71,74,0
0,52,54,0
0,35,52,0
0,42,34,0
0,69,27,0
0,69,4,84
0,38,62,0
0,50,86,0
0,54,74,0
0,71,92,0
0,57,50,0
0,66,52,0
0,54,60,0
0,35,75,0
0,42,75,0
0,69,47,0
0,69,27,80
0,69,74,12
0,50,46,0
0,42,30,0
0,69,4,0
0,69,29,32
0,57,66,84
0,54,75,0
0,37,75,0
0,42,51,0
0,69,47,0
0,69,27,44
0,38,58,12
0,50,86,0
0,54,52,0
0,42,30,0
0,69,31,0
0,35,32,84
0,69,23,0
0,38,62,4
0,50,86,0
0,62,64,0
0,35,51,0
0,42,75,0
0,69,47,0
0,69,35,0
0,50,54,84
0,42,32,0
0,69,37,0
0,69,21,84
0,71,92,12
0,54,46,0
0,54,75,0
0,37,75,0
0,42,58,0
0,69,47,0
0,69,29,60
0,38,58,12
0,69,82,0
0,50,56,0
0,42,30,0
0,69,35,0
0,69,19,84
0,36,60,0
0,48,88,0
0,55,52,0
0,64,60,0
0,58,52,0
0,52,42,0
0,35,75,0
0,42,75,0
0,69,49,0
0,69,21,84
0,52,84,84
0,46,35,0
0,69,25,0
0,69,4,84
0,58,86,0
0,54,75,0
0,37,75,0
0,42,52,0
0,69,47,0
0,69,27,44
0,36,46,84
0,42,23,0
0,69,35,0
0,35,35,84
0,69,17,0
0,36,46,12
0,48,92,0
0,35,61,0
0,42,75,0
0,69,47,0
0,69,21,84
0,64,64,84
0,35,44,0
0,42,27,0
0,69,31,0
0,69,20,84
0,67,92,12
0,55,58,0
0,54,75,0
0,40,75,0
0,42,51,0
0,69,47,0
0,45,71,4
0,69,15,0
0,36,48,12
0,69,84,0
0,42,40,0
0,43,75,0
0,69,37,0
0,41,75,84
0,69,11,0
0,31,64,0
0,55,88,0
0,71,92,0
0,62,31,0
0,59,56,0
0,59,60,0
0,71,52,0
0,35,75,0
0,49,44,0
0,69,37,0
0,67,46,48
0,69,29,0
0,71,100,12
0,50,46,0
0,71,66,0
0,42,20,0
0,69,19,0
0,67,56,48
0,69,16,0
0,55,58,48
0,74,62,0
0,54,75,0
0,40,75,0
0,42,47,0
0,69,47,0
0,67,42,40
0,69,29,0
0,31,44,12
0,55,86,0
0,71,100,0
0,50,54,0
0,79,64,0
0,42,25,0
0,69,19,0
0,67,28,48
0,35,37,0
0,69,14,0
0,31,62,48
0,62,76,0
0,71,54,0
0,35,64,0
0,42,75,0
0,69,51,0
0,67,37,48
0,69,22,0
0,72,100,12
0,50,44,0
0,71,56,0
