track,note,velocity,time
0,38,119,95
0,38,93,0
0,62,70,0
0,57,73,0
0,53,70,3
0,38,89,76
0,44,89,0
0,79,110,3
0,38,82,1
0,81,85,5
0,38,76,2
0,45,110,7
0,76,82,4
0,74,79,7
0,44,89,19
0,38,89,3
0,38,85,34
0,38,93,8
0,62,76,4
0,58,64,1
0,81,98,1
0,53,70,1
0,46,103,13
0,38,82,1
0,81,98,52
0,44,85,24
0,38,79,3
0,79,93,1
0,77,85,9
0,76,82,7
0,38,85,0
0,38,98,2
0,38,82,5
0,74,64,6
0,46,103,7
0,44,85,5
0,72,98,2
0,38,85,1
0,38,85,2
0,38,85,6
0,69,73,4
0,57,55,1
0,62,55,1
0,59,59,2
0,53,57,1
0,47,103,11
0,38,82,6
0,38,110,3
0,38,89,12
0,44,85,0
0,38,85,4
0,38,79,5
0,41,110,1
0,72,103,1
0,44,85,33
0,38,85,3
0,75,85,15
0,76,85,0
0,38,85,14
0,38,82,2
0,38,79,5
0,45,103,0
0,69,70,10
0,38,93,78
0,44,82,1
0,38,85,31
0,58,52,7
0,38,85,2
0,63,55,0
0,54,59,1
0,38,103,0
0,60,67,0
0,38,85,40
0,44,85,0
0,38,89,23
0,43,98,4
0,62,62,1
0,58,47,2
0,57,70,0
0,53,59,2
0,38,82,1
0,38,93,44
0,44,85,2
0,38,85,32
0,38,82,16
0,45,110,1
0,77,119,7
0,44,82,28
0,38,85,3
0,78,98,7
0,38,85,9
0,79,82,1
0,62,51,1
0,52,55,2
0,58,48,0
0,57,67,2
0,38,79,11
0,46,98,8
0,36,110,10
0,77,103,2
0,44,85,35
0,38,89,1
0,76,110,13
0,38,85,28
0,74,93,0
0,40,98,8
0,38,85,1
0,72,67,4
0,74,93,26
0,44,85,1
0,38,89,5
0,38,89,13
0,69,62,0
0,55,62,4
0,60,54,3
0,57,62,0
0,38,82,19
0,41,110,3
0,44,89,50
0,38,85,3
0,38,82,31
0,38,79,10
0,45,103,10
0,76,93,57
0,44,85,22
0,38,89,7
0,74,93,6
0,38,85,2
0,41,79,2
0,38,79,5
0,64,82,4
0,46,103,0
0,34,103,1
0,57,76,7
0,58,51,0
0,44,85,13
0,38,89,6
0,65,89,1
0,38,82,1
0,38,85,2
0,41,103,1
0,62,70,10
0,81,85,54
0,44,85,21
0,38,89,6
0,79,89,8
0,38,85,7
0,38,85,16
0,38,98,40
0,50,82,9
0,62,85,1
0,44,89,23
0,38,93,4
0,43,103,1
0,67,98,3
0,55,93,2
0,38,93,11
0,38,79,3
0,72,98,1
0,48,110,1
0,60,89,1
0,65,103,2
0,53,89,2
0,41,103,2
0,44,89,9
0,38,93,10
0,58,89,1
0,70,93,1
0,46,103,0
0,38,85,11
0,66,89,5
0,75,89,1
0,38,82,1
0,63,82,0
0,61,79,0
0,51,98,0
0,71,89,0
0,57,93,3
0,44,85,74
0,38,89,9
0,38,93,39
0,38,82,5
0,49,98,2
0,44,89,75
0,38,85,6
0,38,93,41
0,57,70,12
0,55,67,1
0,50,103,0
0,60,55,1
0,38,79,2
0,68,93,1
0,44,85,14
0,38,89,6
0,69,98,12
0,38,82,5
0,65,89,5
0,38,85,11
0,48,98,2
0,79,98,13
0,63,76,10
0,77,85,1
0,57,85,1
0,44,85,3
0,38,89,2
0,38,85,21
0,76,76,5
0,62,67,2
0,56,62,2
0,46,98,14
0,38,82,1
0,77,98,9
0,44,82,21
0,38,93,6
0,76,93,7
0,69,76,12
0,61,57,3
0,55,57,2
0,38,89,1
0,65,54,1
0,45,98,16
0,38,79,0
0,44,85,32
0,38,98,2
0,38,89,8
0,38,93,9
0,38,82,2
0,53,59,5
0,62,57,0
0,57,70,1
0,38,89,75
0,44,89,0
0,79,119,1
0,38,89,5
0,81,85,4
0,38,82,17
0,45,103,4
0,76,76,1
0,74,73,8
0,44,85,20
0,38,93,7
0,38,89,2
0,38,89,1
0,81,93,0
0,58,57,3
0,62,70,1
0,53,70,1
0,46,93,12
0,38,82,5
0,81,103,35
0,79,93,2
0,44,85,9
0,38,89,1
0,77,79,9
0,76,82,3
0,38,93,11
0,38,89,8
0,74,67,2
0,38,85,0
0,72,103,21
0,44,85,3
0,38,93,1
0,46,103,0
0,38,93,3
0,69,73,5
0,57,67,6
0,53,62,1
0,62,52,1
0,59,57,0
0,38,85,2
0,38,85,5
0,47,103,7
0,38,98,45
0,44,85,15
0,38,89,6
0,38,85,3
0,38,82,16
0,72,110,52
0,44,89,2
0,38,89,4
0,41,110,4
0,75,89,13
0,76,93,25
0,38,82,1
0,38,82,5
0,38,82,10
0,45,103,5
0,69,57,3
0,44,85,66
0,38,89,12
0,38,82,51
0,38,85,9
0,63,70,0
0,38,98,1
0,58,62,2
0,54,64,2
0,60,76,0
0,44,82,23
0,38,93,4
0,45,110,2
0,38,89,40
0,38,93,0
0,43,98,15
0,38,85,2
0,53,67,5
0,58,51,0
0,57,67,1
0,62,57,2
0,44,85,13
0,45,110,4
0,38,93,1
0,38,89,40
0,46,98,10
0,38,79,3
0,77,119,7
0,43,98,22
0,38,93,0
0,44,89,1
0,78,98,1
0,38,79,11
0,79,93,3
0,52,59,4
0,62,54,1
0,58,51,1
0,57,73,1
0,38,82,10
0,36,89,4
0,77,119,36
0,44,85,22
0,38,85,1
0,48,119,7
0,76,98,26
0,38,85,0
0,74,85,4
0,36,76,1
0,38,79,7
0,46,103,4
0,72,73,8
0,44,85,7
0,40,98,4
0,38,93,1
0,74,98,2
0,38,89,15
0,69,70,0
0,60,52,6
0,55,67,0
0,57,64,2
0,41,98,12
0,38,82,8
0,44,89,12
0,38,89,3
0,43,93,1
0,38,89,30
0,45,98,11
0,38,79,5
0,76,103,37
0,38,93,12
0,41,93,3
0,44,85,2
0,74,110,4
0,38,89,5
0,38,82,14
0,34,85,4
0,64,85,2
0,57,79,18
0,58,57,1
0,44,82,17
0,38,93,1
0,46,110,1
0,65,103,6
0,38,89,5
0,34,82,0
0,38,85,13
0,62,85,3
0,45,110,6
0,81,93,50
0,44,89,1
0,41,103,6
0,38,93,1
0,79,93,5
0,38,93,21
0,38,93,3
0,38,85,45
0,50,70,0
0,62,82,1
0,44,85,17
0,38,89,11
0,67,98,0
0,55,98,1
0,43,110,1
0,38,89,15
0,38,85,16
0,72,98,5
0,48,110,2
0,60,89,1
0,65,103,3
0,53,93,1
0,41,98,0
0,44,85,15
0,38,93,3
0,58,89,1
0,70,93,1
0,46,103,0
0,38,93,0
0,75,89,1
0,66,93,1
0,38,89,1
0,51,98,0
0,63,89,0
0,71,93,1
0,61,79,0
0,57,89,2
0,38,93,75
0,44,85,3
0,38,93,33
0,38,82,0
0,49,98,2
0,44,89,75
0,38,89,5
0,38,93,40
0,55,73,0
0,57,67,1
0,60,59,0
0,50,103,1
0,38,89,3
0,68,98,2
0,38,93,21
0,44,85,5
0,69,98,9
0,38,79,0
0,65,89,1
0,41,82,2
0,38,82,3
0,48,103,7
0,79,89,6
0,77,85,6
0,57,89,1
0,63,76,0
0,38,93,2
0,44,89,1
0,38,89,10
0,76,79,1
0,62,76,2
0,56,64,4
0,38,89,17
0,46,98,6
0,77,98,8
0,44,89,34
0,76,98,2
0,38,93,4
0,69,73,10
0,61,59,2
0,65,54,1
0,55,62,1
0,38,89,2
0,38,85,15
0,35,110,1
0,45,103,2
0,39,103,15
0,44,89,34
0,38,98,5
0,39,98,10
0,39,103,5
0,33,93,12
0,55,127,5
0,35,110,0
0,38,89,10
0,57,110,62
0,44,89,6
0,59,85,8
0,40,89,4
0,62,103,0
0,65,93,15
0,59,89,18
0,67,85,0
0,38,85,5
0,59,89,9
0,41,93,1
0,67,93,4
0,68,89,1
0,69,98,21
0,74,93,2
0,44,85,13
0,38,82,5
0,59,85,3
0,67,82,9
0,59,89,44
0,46,85,2
0,59,89,3
0,38,59,3
0,44,89,1
0,59,89,5
0,46,89,2
0,58,59,43
0,59,89,0
0,62,67,3
0,53,76,0
0,38,64,5
0,59,89,2
0,67,110,11
0,65,67,1
0,59,85,17
0,44,89,0
0,46,93,5
0,67,89,7
0,59,85,20
0,68,93,7
0,38,70,2
0,57,67,6
0,62,54,2
0,53,59,1
0,59,62,1
0,59,85,7
0,69,89,1
0,47,82,5
0,65,93,44
0,44,89,13
0,59,89,2
0,47,93,9
0,59,93,23
0,59,93,5
0,38,67,6
0,65,93,3
0,67,85,8
0,44,89,1
0,47,103,8
0,59,93,2
0,65,73,7
0,59,89,4
0,38,79,2
0,45,98,10
0,59,93,1
0,58,52,1
0,44,89,2
0,59,89,1
0,54,55,0
0,60,57,2
0,39,85,2
0,69,119,0
0,59,89,39
0,70,93,4
0,59,93,6
0,38,64,7
0,66,93,9
0,44,89,0
0,59,93,3
0,44,103,2
0,68,98,14
0,69,79,4
0,68,70,20
0,59,89,2
0,38,73,2
0,59,89,0
0,43,89,0
0,67,57,0
0,65,119,24
0,44,89,10
0,59,89,9
0,45,98,2
0,62,85,9
0,58,70,20
0,59,89,6
0,59,85,5
0,46,93,5
0,57,57,5
0,59,93,26
0,44,89,3
0,43,93,9
0,59,85,38
0,38,76,12
0,59,89,5
0,48,103,8
0,54,110,3
0,59,85,6
0,44,93,8
0,43,85,1
0,55,93,23
0,59,85,4
0,36,79,9
0,59,82,0
0,57,103,6
0,58,93,20
0,40,89,9
0,60,98,0
0,59,93,2
0,44,89,8
0,61,103,1
0,59,82,3
0,36,79,5
0,63,98,3
0,59,93,9
0,41,89,0
0,64,85,21
0,67,103,1
0,59,89,15
0,43,93,0
0,44,89,6
0,66,93,3
0,59,89,3
0,59,89,9
0,45,98,5
0,65,93,12
0,60,70,18
0,44,89,3
0,41,89,4
0,59,93,4
0,59,85,34
0,36,62,3
0,46,98,9
0,59,85,3
0,41,98,12
0,44,89,0
0,59,98,8
0,59,93,45
0,62,55,1
0,57,73,0
0,65,73,1
0,53,64,1
0,58,51,1
0,34,82,4
0,59,93,8
0,69,98,14
0,72,119,21
0,44,89,17
0,38,98,6
0,59,98,2
0,71,103,11
0,59,82,4
0,70,85,1
0,34,82,2
0,58,57,3
0,52,62,1
0,62,55,1
0,57,82,0
0,40,85,3
0,59,89,0
0,44,89,5
0,59,98,7
0,42,89,4
0,59,93,2
0,43,85,9
0,59,89,6
0,81,98,49
0,44,93,4
0,44,89,2
0,59,98,2
0,84,110,0
0,83,103,24
0,59,93,0
0,65,62,9
0,60,76,2
0,61,70,0
0,55,70,1
0,45,110,15
0,59,89,1
0,82,103,17
0,44,89,15
0,40,76,5
0,59,98,6
0,81,110,3
0,59,98,17
0,79,103,8
0,33,79,12
0,59,89,6
0,40,110,7
0,44,85,2
0,59,98,6
0,79,110,5
0,33,82,20
0,78,103,1
0,59,103,1
0,38,85,3
0,59,89,5
0,77,110,11
0,73,70,32
0,60,47,6
0,57,62,2
0,55,62,1
0,44,89,0
0,59,103,6
0,76,119,33
0,59,98,2
0,36,79,12
0,59,93,3
0,75,85,3
0,76,67,6
0,75,76,14
0,73,76,24
0,41,103,10
0,44,93,2
0,59,98,2
0,74,110,5
0,59,89,10
0,69,62,1
0,36,73,2
0,59,93,11
0,34,73,9
0,65,62,4
0,44,89,27
0,59,98,0
0,41,103,5
0,67,119,2
0,59,93,9
0,68,98,7
0,33,73,14
0,59,93,1
0,65,59,7
0,59,103,5
0,44,93,1
0,40,103,0
0,67,110,10
0,59,98,2
0,67,103,7
0,38,70,11
0,59,93,1
0,65,73,29
0,40,103,3
0,59,103,8
0,44,89,3
0,67,110,12
0,59,98,27
0,59,98,14
0,41,73,2
0,65,55,3
0,59,98,18
0,38,64,2
0,44,89,4
0,41,93,5
0,62,70,0
0,59,93,0
0,58,59,2
0,53,70,1
0,46,93,3
0,59,93,2
0,46,82,21
0,59,98,1
0,44,89,3
0,73,54,31
0,59,93,8
0,74,79,1
0,38,70,3
0,59,89,2
0,77,110,10
0,65,110,1
0,74,73,10
0,59,98,4
0,46,103,3
0,44,93,2
0,65,110,7
0,77,103,0
0,59,98,12
0,77,103,1
0,65,110,2
0,62,57,2
0,59,62,1
0,38,76,1
0,57,64,0
0,53,54,2
0,59,89,6
0,47,89,1
0,74,79,17
0,59,98,1
0,47,98,3
0,44,93,2
0,77,110,10
0,65,119,0
0,59,93,4
0,62,64,4
0,74,79,1
0,59,62,1
0,53,64,1
0,57,64,1
0,59,89,5
0,38,82,7
0,59,98,0
0,44,93,1
0,48,110,4
0,59,89,34
0,38,79,4
0,59,98,2
0,45,98,10
0,69,67,71
0,59,103,5
0,44,93,4
0,51,98,1
0,74,93,8
0,77,110,20
0,59,93,12
0,45,62,7
0,79,110,2
0,59,89,6
0,35,103,6
0,50,103,1
0,65,76,4
0,54,64,0
0,60,76,1
0,39,93,23
0,80,98,0
0,81,110,2
0,44,89,8
0,59,98,4
0,44,89,4
0,39,82,4
0,82,110,2
0,39,98,10
0,78,93,12
0,35,127,7
0,55,127,2
0,43,85,1
0,80,89,6
0,81,93,26
0,44,93,6
0,59,103,4
0,45,110,1
0,59,98,42
0,81,93,4
0,43,57,5
0,80,93,2
0,59,89,2
0,46,85,5
0,79,93,1
0,77,110,0
0,62,70,5
0,58,55,2
0,57,76,1
0,43,55,0
0,53,64,3
0,59,103,8
0,44,89,0
0,50,98,8
0,74,85,1
0,59,93,3
0,70,89,4
0,43,73,0
0,59,89,11
0,48,103,4
0,69,79,1
0,70,64,5
0,69,70,1
0,67,76,3
0,43,89,12
0,59,103,2
0,44,93,2
0,72,103,0
0,70,93,17
0,59,89,3
0,60,79,4
0,56,59,1
0,58,55,0
0,52,73,1
0,36,85,13
0,59,89,0
0,69,85,17
0,68,103,16
0,44,89,5
0,43,110,1
0,59,103,0
0,64,89,6
0,59,93,4
0,61,110,9
0,36,79,1
0,59,85,9
0,41,89,0
0,60,67,13
0,58,93,14
0,43,93,14
0,59,93,0
0,44,93,5
0,55,44,12
0,59,98,0
0,41,76,6
0,56,79,1
0,45,98,9
0,59,89,3
0,57,98,8
0,41,70,5
0,53,64,2
0,48,98,14
0,44,89,1
0,59,98,2
0,59,93,32
0,46,93,7
0,59,85,8
0,59,98,13
0,44,93,1
0,41,93,4
0,59,85,36
0,58,55,1
0,53,64,1
0,57,76,0
0,62,59,1
0,59,93,10
0,34,82,9
0,59,93,79
0,44,93,3
0,41,103,0
0,59,98,34
0,34,76,6
0,59,93,7
0,40,93,3
0,62,73,6
0,58,59,1
0,57,79,2
0,52,73,0
0,66,119,62
0,44,93,8
0,59,93,3
0,42,93,10
0,67,93,4
0,59,93,8
0,69,103,0
0,59,93,6
0,43,89,8
0,70,98,8
0,72,98,5
0,59,93,2
0,44,85,0
0,45,110,0
0,59,103,4
0,73,93,2
0,40,89,2
0,59,89,3
0,75,93,0
0,46,98,3
0,65,79,12
0,61,73,2
0,60,76,0
0,55,82,2
0,76,103,0
0,44,89,0
0,59,98,1
0,78,93,2
0,48,103,10
0,59,98,5
0,79,93,2
0,40,85,6
0,59,93,1
0,81,93,1
0,49,103,3
0,82,98,14
0,84,98,10
0,59,98,6
0,44,93,1
0,51,103,7
0,76,85,8
0,59,103,12
0,81,98,4
0,59,98,13
0,50,110,8
0,79,93,0
0,64,70,18
0,71,85,1
0,57,73,1
0,59,70,1
0,53,70,0
0,44,89,12
0,38,85,1
0,59,98,3
0,59,98,10
0,59,98,1
0,71,85,4
0,48,119,2
0,64,64,1
0,53,64,3
0,59,62,1
0,57,70,0
0,59,89,3
0,44,89,2
0,38,73,3
0,59,98,38
0,59,93,3
0,46,110,1
0,44,93,76
0,59,98,1
0,38,70,9
0,59,93,38
0,59,98,3
0,61,76,3
0,65,73,2
0,60,89,0
0,55,85,1
0,45,110,0
0,38,79,2
0,59,103,1
0,44,93,1
0,37,82,5
0,35,127,5
0,55,127,1
0,57,76,2
0,60,70,1
0,64,67,0
0,53,73,2
0,38,82,1
0,69,110,64
0,59,98,21
0,44,93,5
0,40,119,2
0,74,103,4
0,76,93,13
0,59,98,11
