track,note,velocity,time
1,39,108,3335
1,51,92,0
1,61,115,0
1,66,123,0
1,70,123,0
1,61,90,55
1,39,105,0
1,66,109,85
1,70,111,0
1,51,113,10
1,39,96,55
1,72,115,10
1,68,119,0
1,63,111,5
1,63,99,615
1,39,97,5
1,51,109,110
1,70,97,5
1,73,105,0
1,39,102,0
1,72,119,5
1,68,119,5
1,63,123,0
1,75,115,235
1,48,123,0
1,72,98,120
1,44,92,0
1,68,105,60
1,39,103,0
1,72,111,75
1,68,111,0
1,63,111,0
1,44,108,0
1,44,84,100
1,72,102,10
1,63,106,5
1,68,98,0
1,39,108,45
1,51,106,0
1,66,105,5
1,70,95,0
1,61,92,10
1,66,117,130
1,61,106,0
1,70,119,5
1,39,99,5
1,51,111,0
1,45,74,5
1,61,77,40
1,39,109,30
1,61,84,5
1,70,113,0
1,66,111,0
1,68,111,50
1,72,113,0
1,63,102,0
1,51,109,5
1,39,108,585
1,63,96,5
1,51,103,105
1,70,103,5
1,73,113,0
1,39,111,60
1,63,121,5
1,72,123,0
1,68,123,0
1,41,111,165
1,53,119,5
1,44,88,120
1,56,106,0
1,46,84,70
1,58,94,5
1,49,115,65
1,61,103,5
1,61,123,125
1,49,117,0
1,46,101,10
1,58,113,0
1,39,108,240
1,51,92,0
1,61,115,5
1,66,123,0
1,70,123,0
1,61,90,55
1,39,105,0
1,66,109,85
1,70,111,0
1,51,113,10
1,39,96,55
1,72,115,10
1,68,119,0
1,63,111,5
1,63,99,615
1,39,97,5
1,51,109,110
1,70,97,5
1,73,105,0
1,39,102,0
1,72,119,5
1,68,119,5
1,63,123,0
1,75,115,235
1,48,123,0
1,72,98,120
1,44,92,0
1,68,105,60
1,39,103,0
1,72,111,75
1,68,111,0
1,63,111,0
1,44,108,0
1,44,84,100
1,72,102,10
1,63,106,5
1,68,98,0
1,39,108,45
1,51,106,0
1,66,105,5
1,70,95,0
1,61,92,10
1,66,117,130
1,61,106,0
1,70,119,5
1,39,99,5
1,51,111,0
1,45,74,5
1,61,77,40
1,39,109,30
1,61,84,5
1,70,113,0
1,66,111,0
1,68,111,50
1,72,113,0
1,63,102,0
1,51,109,5
1,39,108,585
1,63,96,5
1,51,103,105
1,70,103,5
1,73,113,0
1,39,111,60
1,63,121,5
1,72,123,0
1,68,123,0
1,41,111,165
1,53,119,5
1,44,88,120
1,56,106,0
1,46,84,70
1,58,94,5
1,49,115,65
1,61,103,5
1,61,123,125
1,49,117,0
1,46,101,10
1,58,113,0
1,63,106,215
1,61,98,0
1,58,90,5
1,66,103,0
1,39,113,25
1,34,101,5
1,37,91,120
1,39,109,90
1,34,106,345
1,34,123,50
1,37,97,120
1,58,98,5
1,61,108,5
1,66,113,0
1,63,109,0
1,39,103,15
1,42,108,75
1,66,90,95
1,63,86,5
1,61,84,0
1,58,81,0
1,39,113,5
1,34,102,5
1,37,101,120
1,39,115,90
1,34,105,310
1,34,111,60
1,58,96,120
1,61,102,0
1,63,111,0
1,66,113,0
1,37,103,0
1,39,109,40
1,42,101,75
1,65,86,45
1,61,91,0
1,56,81,0
1,58,85,0
1,46,111,15
1,41,98,15
1,44,94,110
1,46,108,95
1,41,103,295
1,41,117,45
1,44,109,120
1,58,111,5
1,65,115,5
1,56,105,0
1,61,106,0
1,46,98,0
1,49,109,75
1,65,96,15
1,58,94,0
1,61,98,0
1,56,91,0
1,46,105,0
1,41,99,30
1,44,99,120
1,46,106,85
1,41,105,340
1,41,113,45
1,56,92,120
1,65,102,0
1,58,95,0
1,44,99,0
1,61,101,5
1,46,102,35
1,49,109,65
1,63,89,105
1,61,85,0
1,58,81,0
1,66,84,0
1,39,109,0
1,34,80,190
1,37,89,120
1,39,102,85
1,34,105,470
1,34,111,50
1,58,97,115
1,61,105,0
1,66,106,0
1,63,103,0
1,37,102,5
1,39,103,95
1,42,99,85
1,61,95,5
1,63,97,0
1,58,91,0
1,66,97,0
1,39,111,5
1,34,94,25
1,37,95,120
1,39,106,90
1,34,105,400
1,34,113,60
1,66,102,115
1,58,95,0
1,61,103,0
1,63,109,0
1,37,108,0
1,39,109,30
1,42,98,80
1,58,82,100
1,65,82,0
1,61,91,0
1,56,86,0
1,46,106,15
1,41,102,0
1,44,90,110
1,46,106,110
1,41,99,365
1,41,117,50
1,58,101,115
1,56,98,0
1,44,97,0
1,65,108,5
1,61,106,0
1,46,91,100
1,49,91,65
1,65,96,110
1,61,96,0
1,58,92,0
1,56,90,0
1,46,106,0
1,41,95,5
1,44,92,115
1,46,105,85
1,41,111,475
1,41,101,40
1,58,99,120
1,56,97,0
1,61,102,0
1,65,108,0
1,44,95,0
1,46,101,5
1,49,111,70
1,66,96,30
1,59,100,0
1,63,108,0
1,59,90,30
1,66,96,0
1,63,113,5
1,59,108,970
1,66,105,5
1,63,113,0
1,62,95,260
1,59,93,0
1,66,99,0
1,66,97,50
1,59,92,0
1,62,100,0
1,62,102,1005
1,59,104,0
1,66,106,0
1,58,85,275
1,61,97,5
1,66,97,0
1,66,89,50
1,61,99,5
1,58,92,0
1,66,105,960
1,61,105,0
1,58,95,0
1,58,91,255
1,61,102,0
1,66,101,0
1,66,99,55
1,58,98,0
1,61,108,0
1,58,102,965
1,61,113,5
1,66,106,0
1,66,91,295
1,56,87,5
1,59,93,0
1,63,96,0
1,66,91,40
1,59,96,5
1,63,96,0
1,56,91,5
1,59,95,930
1,66,98,0
1,56,90,0
1,63,94,0
1,59,96,275
1,66,97,0
1,56,91,0
1,63,101,0
1,66,87,65
1,56,88,0
1,59,90,5
1,63,101,0
1,59,108,970
1,66,105,5
1,56,99,0
1,63,105,0
1,70,99,275
1,65,103,5
1,63,97,0
1,70,106,155
1,63,103,0
1,65,108,0
1,70,108,175
1,65,113,0
1,63,108,0
1,62,104,130
1,70,108,0
1,65,117,5
1,62,88,115
1,70,98,0
1,65,106,0
1,70,90,120
1,62,86,0
1,65,105,0
1,61,105,125
1,58,95,0
1,66,108,0
1,61,103,120
1,58,95,0
1,65,96,5
1,66,96,220
1,59,92,0
1,63,108,5
1,62,89,225
1,66,99,0
1,59,93,0
1,61,106,265
1,66,103,5
1,58,96,0
1,61,105,190
1,58,91,5
1,65,96,0
1,66,105,285
1,63,103,0
1,59,93,5
1,62,95,230
1,66,101,0
1,59,93,0
1,63,106,120
1,61,98,0
1,58,90,5
1,66,103,0
1,39,113,25
1,34,101,5
1,37,91,120
1,39,109,90
1,34,106,345
1,34,123,50
1,37,97,120
1,58,98,5
1,61,108,5
1,66,113,0
1,63,109,0
1,39,103,15
1,42,108,75
1,66,90,95
1,63,86,5
1,61,84,0
1,58,81,0
1,39,113,5
1,34,102,5
1,37,101,120
1,39,115,90
1,34,105,310
1,34,111,60
1,58,96,120
1,61,102,0
1,63,111,0
1,66,113,0
1,37,103,0
1,39,109,40
1,42,101,75
1,65,86,45
1,61,91,0
1,56,81,0
1,58,85,0
1,46,111,15
1,41,98,15
1,44,94,110
1,46,108,95
1,41,103,295
1,41,117,45
1,44,109,120
1,58,111,5
1,65,115,5
1,56,105,0
1,61,106,0
1,46,98,0
1,49,109,75
1,65,96,15
1,58,94,0
1,61,98,0
1,56,91,0
1,46,105,0
1,41,99,30
1,44,99,120
1,46,106,85
1,41,105,340
1,41,113,45
1,56,92,120
1,65,102,0
1,58,95,0
1,44,99,0
1,61,101,5
1,46,102,35
1,49,109,65
1,63,89,105
1,61,85,0
1,58,81,0
1,66,84,0
1,39,109,0
1,34,80,190
1,37,89,120
1,39,102,85
1,34,105,470
1,34,111,50
1,58,97,115
1,61,105,0
1,66,106,0
1,63,103,0
1,37,102,5
1,39,103,95
1,42,99,85
1,61,95,5
1,63,97,0
1,58,91,0
1,66,97,0
1,39,111,5
1,34,94,25
1,37,95,120
1,39,106,90
1,34,105,400
1,34,113,60
1,66,102,115
1,58,95,0
1,61,103,0
1,63,109,0
1,37,108,0
1,39,109,30
1,42,98,80
1,58,82,100
1,65,82,0
1,61,91,0
1,56,86,0
1,46,106,15
1,41,102,0
1,44,90,110
1,46,106,110
1,41,99,365
1,41,117,50
1,58,101,115
1,56,98,0
1,44,97,0
1,65,108,5
1,61,106,0
1,46,91,100
1,49,91,65
1,65,96,110
1,61,96,0
1,58,92,0
1,56,90,0
1,46,106,0
1,41,95,5
1,44,92,115
1,46,105,85
1,41,111,475
1,41,101,40
1,58,99,120
1,56,97,0
1,61,102,0
1,65,108,0
1,44,95,0
1,46,101,5
1,49,111,70
1,66,96,30
1,59,100,0
1,63,108,0
1,59,90,30
1,66,96,0
1,63,113,5
1,59,108,970
1,66,105,5
1,63,113,0
1,62,95,260
1,59,93,0
1,66,99,0
1,66,97,50
1,59,92,0
1,62,100,0
1,62,102,1005
1,59,104,0
1,66,106,0
1,58,85,275
1,61,97,5
1,66,97,0
1,66,89,50
1,61,99,5
1,58,92,0
1,66,105,960
1,61,105,0
1,58,95,0
1,58,91,255
1,61,102,0
1,66,101,0
1,66,99,55
1,58,98,0
1,61,108,0
1,58,102,965
1,61,113,5
1,66,106,0
1,66,91,295
1,56,87,5
1,59,93,0
1,63,96,0
1,66,91,40
1,59,96,5
1,63,96,0
1,56,91,5
1,59,95,930
1,66,98,0
1,56,90,0
1,63,94,0
1,59,96,275
1,66,97,0
1,56,91,0
1,63,101,0
1,66,87,65
1,56,88,0
1,59,90,5
1,63,101,0
1,59,108,970
1,66,105,5
1,56,99,0
1,63,105,0
1,70,99,275
1,65,103,5
1,63,97,0
1,70,106,155
1,63,103,0
1,65,108,0
1,70,108,175
1,65,113,0
1,63,108,0
1,62,104,130
1,70,108,0
1,65,117,5
1,62,88,115
1,70,98,0
1,65,106,0
1,70,90,120
1,62,86,0
1,65,105,0
1,61,105,125
1,58,95,0
1,66,108,0
1,61,103,120
1,58,95,0
1,65,96,5
1,66,96,220
1,59,92,0
1,63,108,5
1,62,89,225
1,66,99,0
1,59,93,0
1,61,106,265
1,66,103,5
1,58,96,0
1,61,105,190
1,58,91,5
1,65,96,0
1,66,105,285
1,63,103,0
1,59,93,5
1,62,95,230
1,66,101,0
1,59,93,0
1,39,108,145
1,51,92,0
1,61,115,5
1,66,123,0
1,70,123,0
1,61,90,55
1,39,105,0
1,66,109,85
1,70,111,0
1,51,113,10
1,39,96,55
1,72,115,10
1,68,119,0
1,63,111,5
1,63,99,615
1,39,97,5
1,51,109,110
1,70,97,5
1,73,105,0
1,39,102,0
1,72,119,5
1,68,119,5
1,63,123,0
1,75,115,235
1,48,123,0
1,72,98,120
1,44,92,0
1,68,105,60
1,39,103,0
1,72,111,75
1,68,111,0
1,63,111,0
1,44,108,0
1,44,84,100
1,72,102,10
1,63,106,5
1,68,98,0
1,39,108,45
1,51,106,0
1,66,105,5
1,70,95,0
1,61,92,10
1,66,117,130
1,61,106,0
1,70,119,5
1,39,99,5
1,51,111,0
1,45,74,5
1,61,77,40
1,39,109,30
1,61,84,5
1,70,113,0
1,66,111,0
1,68,111,50
1,72,113,0
1,63,102,0
1,51,109,5
1,39,108,585
1,63,96,5
1,51,103,105
1,70,103,5
1,73,113,0
1,39,111,60
1,63,121,5
1,72,123,0
1,68,123,0
1,41,111,165
1,53,119,5
1,44,88,120
1,56,106,0
1,46,84,70
1,58,94,5
1,49,115,65
1,61,103,5
1,61,123,125
1,49,117,0
1,46,101,10
1,58,113,0
1,39,108,0
1,51,92,0
1,75,99,970
1,87,108,5
1,82,94,225
1,70,86,5
1,78,92,220
1,66,83,5
1,75,89,200
1,63,86,10
1,78,103,20
1,66,91,0
1,75,101,920
1,87,111,0
1,78,96,5
1,66,75,0
1,77,97,75
1,65,94,0
1,75,99,75
1,63,97,0
1,70,102,80
1,66,83,230
1,61,79,250
1,70,97,200
1,78,105,240
1,73,99,240
1,82,105,230
1,80,91,30
1,78,109,30
1,72,106,65
1,68,94,225
1,63,82,240
1,72,96,240
1,80,115,235
1,75,106,245
1,84,97,230
1,82,88,105
1,80,109,105
1,72,111,5
1,68,84,225
1,65,84,10
1,72,98,245
1,80,113,230
1,77,101,240
1,84,97,225
1,82,91,115
1,80,108,50
1,72,99,110
1,68,95,250
1,65,88,0
1,72,99,230
1,80,106,220
1,77,98,240
1,84,96,230
1,82,86,105
1,80,101,90
1,78,89,250
1,61,79,220
1,70,84,5
1,66,79,220
1,82,91,160
1,77,84,255
1,73,79,245
1,70,91,210
1,70,91,10
1,65,85,145
1,61,81,235
1,65,81,185
1,82,90,225
1,77,83,240
1,73,76,225
1,77,91,75
1,78,117,50
1,73,98,470
1,70,99,20
1,78,109,215
1,73,94,435
1,70,92,225
1,78,98,210
1,73,94,415
1,70,91,225
1,78,102,215
1,73,91,465
1,70,91,220
1,61,101,35
1,65,84,225
1,68,91,230
1,65,83,215
1,68,97,210
1,77,123,490
1,75,95,50
1,73,101,85
1,65,97,10
1,73,106,220
1,68,101,160
1,65,102,30
1,73,113,40
1,65,97,10
1,73,103,50
1,65,111,5
1,75,111,235
1,66,103,0
1,77,108,10
1,68,103,5
1,42,105,15
1,54,95,15
1,73,102,15
1,78,109,0
1,70,73,230
1,73,95,165
1,78,97,0
1,70,65,240
1,73,97,180
1,78,98,0
1,70,65,235
1,73,98,185
1,78,102,5
1,70,57,205
1,42,102,145
1,54,106,10
1,73,97,0
1,78,101,5
1,70,61,210
1,73,95,190
1,78,97,5
1,70,69,235
1,73,101,175
1,78,103,5
1,70,79,225
1,75,101,0
1,80,102,10
1,72,87,255
1,58,87,35
1,75,103,10
1,78,102,0
1,82,91,0
1,58,91,30
1,75,96,5
1,78,98,0
1,82,106,10
1,75,91,45
1,78,105,0
1,82,98,5
1,58,91,0
1,58,89,35
1,78,113,5
1,75,103,5
1,82,115,0
1,75,106,40
1,78,111,0
1,58,86,0
1,82,108,0
1,58,84,55
1,75,102,5
1,78,106,0
1,82,102,0
1,73,95,10
1,77,108,0
1,82,99,0
1,56,95,0
1,77,108,25
1,73,98,0
1,82,105,0
1,56,103,10
1,77,106,45
1,73,98,0
1,82,105,0
1,56,91,5
1,56,91,45
1,77,113,0
1,73,113,5
1,82,111,0
1,73,101,35
1,77,108,0
1,56,94,0
1,82,105,0
1,82,99,60
1,77,108,0
1,73,106,5
1,56,97,0
1,67,95,10
1,61,81,0
1,77,77,0
1,70,96,0
1,51,115,15
1,61,105,5
1,58,95,0
1,66,108,0
1,61,103,120
1,58,95,0
1,65,96,5
1,66,96,220
1,59,92,0
1,63,108,5
1,62,89,225
1,66,99,0
1,59,93,0
1,61,105,270
1,58,95,0
1,66,108,0
1,61,103,120
1,58,95,0
1,65,96,5
1,66,96,220
1,59,92,0
1,63,108,5
1,62,89,225
1,66,99,0
1,59,93,0
1,61,105,270
1,58,95,0
1,66,108,0
1,61,103,120
1,58,95,0
1,65,96,5
1,66,96,95
1,59,92,0
1,63,108,5
1,62,89,110
1,66,99,0
1,59,93,0
1,61,105,150
1,58,95,0
1,66,108,0
1,61,103,120
1,58,95,0
1,65,96,5
1,66,96,155
1,59,92,0
1,63,108,5
1,62,89,175
1,66,99,0
1,59,93,0
1,58,96,10
1,66,102,5
1,61,106,0
2,27,126,3315
2,36,120,25
2,32,111,5
2,27,114,5
2,32,118,5
2,32,117,115
2,27,112,5
2,27,123,5
2,29,125,5
2,32,108,5
2,34,110,5
2,37,121,5
2,37,118,110
2,34,112,5
2,27,117,5
2,36,119,10
2,32,112,5
2,27,113,5
2,32,117,5
2,32,117,105
2,27,110,5
2,27,117,15
2,29,122,5
2,32,109,5
2,34,108,5
2,37,117,5
2,37,116,110
2,34,117,5
2,39,117,10
2,34,114,0
2,37,113,5
2,39,110,5
2,42,114,920
2,39,112,5
2,34,114,10
2,37,110,5
2,39,112,5
2,42,109,900
2,46,115,5
2,41,109,5
2,44,110,5
2,46,110,5
2,49,113,900
2,46,112,5
2,41,116,15
2,44,110,5
2,46,112,5
2,49,114,915
2,39,107,5
2,34,104,20
2,37,110,5
2,39,107,5
2,42,111,885
2,39,112,5
