track,note,velocity,time
3,70,79,3480
3,70,0,60
3,74,79,60
3,74,0,60
3,74,79,60
3,74,0,60
3,74,79,60
3,74,0,60
3,74,79,60
3,74,0,60
3,74,79,60
3,74,0,60
3,72,79,60
3,72,0,60
3,70,79,60
3,70,0,60
3,74,79,60
3,74,0,120
3,72,79,0
3,72,0,300
3,67,79,420
3,67,0,180
3,74,79,60
3,74,0,60
3,72,79,60
3,72,0,60
3,72,79,60
3,72,0,60
3,70,79,60
3,70,0,60
3,72,79,60
3,72,0,180
3,67,79,60
3,67,0,60
3,70,79,60
3,70,0,60
3,72,79,60
3,72,0,60
3,74,79,60
3,74,0,60
3,72,79,60
3,72,0,60
3,70,79,60
3,70,0,300
3,70,79,60
3,70,0,60
3,72,79,60
3,72,0,60
3,74,79,60
3,74,0,60
3,74,79,60
3,74,0,60
3,74,79,60
3,74,0,60
3,77,79,60
3,77,0,180
3,75,79,60
3,75,0,120
3,74,79,0
3,74,0,60
3,74,79,60
3,74,0,240
3,75,79,0
3,75,0,60
3,74,79,0
3,74,0,60
3,72,79,0
3,72,0,180
3,67,79,300
3,67,0,60
3,70,79,60
3,70,0,60
3,74,79,60
3,74,0,60
3,72,79,60
3,72,0,60
3,70,79,60
3,70,0,60
3,72,79,60
3,72,0,300
3,70,79,60
3,70,0,60
3,72,79,60
3,72,0,60
3,75,79,60
3,75,0,60
3,74,79,60
3,74,0,60
3,72,79,60
3,72,0,60
3,74,95,60
3,74,0,300
3,72,79,60
3,72,0,60
3,74,95,60
3,74,0,60
3,76,95,60
3,76,0,60
3,76,95,60
3,76,0,60
3,76,95,60
3,76,0,60
3,76,95,60
3,76,0,60
3,76,95,60
3,76,0,60
3,74,95,60
3,74,0,60
3,72,95,60
3,72,0,60
3,74,95,60
3,74,0,120
3,74,95,0
3,74,0,60
3,72,95,0
3,72,0,60
3,69,95,0
3,69,0,300
3,76,95,180
3,76,0,180
3,74,95,60
3,74,0,240
3,72,95,0
3,72,0,300
3,76,95,180
3,76,0,180
3,74,95,60
3,74,0,240
3,72,95,0
3,72,0,300
3,72,95,60
3,72,0,180
3,74,95,60
3,74,0,180
3,76,95,60
3,76,0,180
3,76,95,60
3,76,0,60
3,76,95,60
3,76,0,60
3,76,95,60
3,76,0,60
3,74,95,60
3,74,0,60
3,72,95,60
3,72,0,60
3,74,95,60
3,74,0,180
3,72,95,0
3,72,0,60
3,69,95,0
3,69,0,300
3,76,95,180
3,76,0,180
3,74,95,60
3,74,0,240
3,72,95,0
3,72,0,300
3,76,95,180
3,76,0,180
3,74,95,60
3,74,0,240
3,72,95,0
3,72,0,300
3,74,79,1620
3,74,0,60
3,74,79,60
3,74,0,60
3,74,79,60
3,74,0,60
3,74,79,60
3,74,0,60
3,72,79,60
3,72,0,60
3,70,79,60
3,70,0,60
3,74,79,60
3,74,0,60
3,72,79,60
3,72,0,300
3,67,79,420
3,67,0,60
3,70,79,60
3,70,0,60
3,74,79,60
3,74,0,60
3,72,79,60
3,72,0,180
3,70,79,60
3,70,0,60
3,72,79,60
3,72,0,60
3,65,79,60
3,65,0,60
3,67,79,60
3,67,0,60
3,70,79,60
3,70,0,60
3,72,79,60
3,72,0,60
3,74,79,60
3,74,0,60
3,72,79,60
3,72,0,60
3,70,79,60
3,70,0,60
3,70,79,60
3,70,0,180
3,70,79,60
3,70,0,60
3,72,79,60
3,72,0,60
3,74,79,60
3,74,0,60
3,74,79,60
3,74,0,60
3,74,79,60
3,74,0,60
3,77,79,60
3,77,0,180
3,75,79,60
3,75,0,120
3,74,79,0
3,74,0,60
3,74,79,60
3,74,0,240
3,75,79,0
3,75,0,60
3,74,79,0
3,74,0,60
3,72,79,0
3,72,0,180
3,67,79,300
3,67,0,60
3,70,79,60
3,70,0,60
3,74,79,60
3,74,0,60
3,72,79,60
3,72,0,60
3,70,79,60
3,70,0,60
3,72,79,60
3,72,0,300
3,70,79,60
3,70,0,60
3,72,79,60
3,72,0,60
3,75,79,60
3,75,0,60
3,74,79,60
3,74,0,60
3,72,79,60
3,72,0,60
3,74,95,60
3,74,0,300
3,72,79,60
3,72,0,60
3,74,95,60
3,74,0,60
3,76,95,60
3,76,0,60
3,76,95,60
3,76,0,60
3,76,95,60
3,76,0,60
3,76,95,60
3,76,0,60
3,76,95,60
3,76,0,60
3,74,95,60
3,74,0,60
3,72,95,60
3,72,0,60
3,74,95,60
3,74,0,180
3,72,95,0
3,72,0,60
3,69,95,0
3,69,0,300
3,76,95,180
3,76,0,240
3,74,95,0
3,74,0,180
3,69,79,60
3,69,0,240
3,76,95,240
3,76,0,180
3,74,95,60
3,74,0,240
3,72,95,0
3,72,0,300
3,72,95,60
3,72,0,180
3,74,95,60
3,74,0,180
3,76,95,60
3,76,0,180
3,76,95,60
3,76,0,60
3,76,95,60
3,76,0,60
3,76,95,60
3,76,0,60
3,74,95,60
3,74,0,60
3,72,95,60
3,72,0,60
3,74,95,60
3,74,0,180
3,72,95,0
3,72,0,60
3,69,95,0
3,69,0,300
3,76,95,180
3,76,0,180
3,74,95,60
3,74,0,240
3,72,95,0
3,72,0,300
3,76,95,180
3,76,0,180
3,74,95,60
3,74,0,240
3,72,95,0
3,72,0,300
3,70,63,1260
3,70,0,120
3,72,63,0
3,72,0,120
3,74,63,0
3,74,0,300
3,74,79,60
3,74,0,60
3,74,79,60
3,74,0,60
3,72,79,60
3,72,0,60
3,70,79,60
3,70,0,60
3,74,79,60
3,74,0,120
3,72,79,0
3,72,0,300
3,67,79,420
3,67,0,60
3,70,79,60
3,70,0,60
3,74,79,60
3,74,0,60
3,72,79,60
3,72,0,60
3,72,79,60
3,72,0,180
3,72,79,60
3,72,0,60
3,65,79,60
3,65,0,60
3,67,79,60
3,67,0,60
3,70,79,60
3,70,0,60
3,72,79,60
3,72,0,60
3,74,79,60
3,74,0,60
3,72,79,60
3,72,0,60
3,70,79,60
3,70,0,300
3,70,79,60
3,70,0,60
3,72,79,60
3,72,0,60
3,74,79,60
3,74,0,60
3,74,79,60
3,74,0,60
3,74,79,60
3,74,0,60
3,77,79,60
3,77,0,180
3,75,79,60
3,75,0,120
3,74,79,0
3,74,0,60
3,74,79,60
3,74,0,240
3,75,79,0
3,75,0,60
3,74,79,0
3,74,0,60
3,72,79,0
3,72,0,180
3,67,79,300
3,67,0,60
3,70,79,60
3,70,0,60
3,74,79,60
3,74,0,60
3,72,79,60
3,72,0,60
3,70,79,60
3,70,0,60
3,72,79,60
3,72,0,300
3,70,79,60
3,70,0,60
3,72,79,60
3,72,0,60
3,75,79,60
3,75,0,60
3,74,79,60
3,74,0,60
3,72,79,60
3,72,0,60
3,74,95,60
3,74,0,300
3,72,79,60
3,72,0,60
3,74,95,60
3,74,0,60
3,76,95,60
3,76,0,60
3,76,95,60
3,76,0,60
3,76,95,60
3,76,0,60
3,76,95,60
3,76,0,60
3,76,95,60
3,76,0,60
3,74,95,60
3,74,0,60
3,72,95,60
3,72,0,60
3,74,95,60
3,74,0,180
3,72,95,0
3,72,0,60
3,69,95,0
3,69,0,300
3,76,95,180
3,76,0,240
3,74,95,0
3,74,0,180
3,69,79,60
3,69,0,240
3,76,95,240
3,76,0,180
3,74,95,60
3,74,0,240
3,72,95,0
3,72,0,300
3,72,95,60
3,72,0,180
3,74,95,60
3,74,0,180
3,76,95,60
3,76,0,180
3,76,95,60
3,76,0,60
3,76,95,60
3,76,0,60
3,76,95,60
3,76,0,60
3,74,95,60
3,74,0,60
3,72,95,60
3,72,0,60
3,74,95,60
3,74,0,180
3,72,95,0
3,72,0,60
3,69,95,0
3,69,0,300
3,76,95,180
3,76,0,180
3,74,95,60
3,74,0,240
3,72,95,0
3,72,0,300
3,76,95,180
3,76,0,180
3,74,95,60
3,74,0,240
3,72,95,0
3,72,0,300
3,72,95,60
3,72,0,180
3,74,95,60
3,74,0,180
3,76,95,60
3,76,0,60
3,76,95,60
3,76,0,60
3,76,95,60
3,76,0,60
3,76,95,60
3,76,0,60
3,76,95,60
3,76,0,60
3,74,95,60
3,74,0,60
3,72,95,60
3,72,0,60
3,74,95,60
3,74,0,120
3,74,95,0
3,74,0,60
3,72,95,0
3,72,0,60
3,69,95,0
3,69,0,300
3,76,95,180
3,76,0,180
3,74,95,60
3,74,0,240
3,72,95,0
3,72,0,300
3,76,95,180
3,76,0,180
3,74,95,60
3,74,0,240
3,72,95,0
3,72,0,300
3,72,95,60
3,72,0,180
3,74,95,60
3,74,0,180
3,76,95,60
3,76,0,180
3,76,95,60
3,76,0,60
3,76,95,60
3,76,0,60
3,76,95,60
3,76,0,60
3,74,95,60
3,74,0,60
3,72,95,60
3,72,0,60
3,74,95,60
3,74,0,180
3,72,95,0
3,72,0,60
3,69,95,0
3,69,0,300
3,76,95,180
3,76,0,180
3,74,95,60
3,74,0,240
3,72,95,0
3,72,0,300
3,76,95,180
3,76,0,180
3,74,95,60
3,74,0,240
4,67,79,0
4,64,79,0
4,72,79,0
4,72,0,480
4,64,0,0
4,67,0,0
4,72,79,120
4,65,79,0
4,69,79,0
4,69,0,755
4,65,0,0
4,72,0,0
4,67,79,565
4,64,79,0
4,72,79,0
4,72,0,480
4,64,0,0
4,67,0,0
4,72,79,120
4,65,79,0
4,69,79,0
4,69,0,595
4,65,0,0
4,72,0,0
4,70,79,485
4,65,79,0
4,74,79,0
4,74,0,315
4,65,0,0
4,70,0,0
4,70,79,165
4,65,79,0
4,74,79,0
4,74,0,315
4,65,0,0
4,70,0,0
4,67,79,165
4,63,79,0
4,72,79,0
4,72,0,475
4,63,0,0
4,67,0,0
4,69,79,485
4,65,79,0
4,74,79,0
4,74,0,315
4,65,0,0
4,69,0,0
4,69,79,165
4,65,79,0
4,72,79,0
4,72,0,160
4,65,0,0
4,69,0,0
4,65,79,320
4,70,79,0
4,72,79,0
4,72,0,240
4,70,0,0
4,65,0,0
4,65,79,120
4,62,79,0
4,70,79,0
4,70,0,435
4,62,0,0
4,65,0,0
4,70,79,165
4,65,79,0
4,74,79,0
4,74,0,240
4,65,0,0
4,70,0,0
4,74,79,120
4,65,79,0
4,70,79,0
4,65,0,240
4,70,0,120
4,74,0,0
4,74,79,0
4,70,79,0
4,65,79,0
4,65,0,120
4,70,0,0
4,63,79,0
4,67,79,0
4,67,0,200
4,63,0,0
4,74,0,0
4,67,79,160
4,63,79,0
4,72,79,0
4,72,0,400
4,63,0,0
4,67,0,0
4,69,79,320
4,65,79,0
4,74,79,0
4,74,0,240
4,65,0,0
4,69,0,0
4,69,79,120
4,65,79,0
4,72,79,0
4,72,0,435
4,65,0,0
4,69,0,0
4,67,79,165
4,71,79,0
4,71,0,240
4,67,0,0
4,67,79,120
4,71,79,0
4,71,0,280
4,67,0,0
4,72,95,320
4,67,95,0
4,76,95,0
4,76,0,160
4,67,0,0
4,72,0,0
4,72,95,80
4,67,95,0
4,76,95,0
4,76,0,160
4,67,0,0
4,72,0,0
4,72,95,80
4,67,95,0
4,76,95,0
4,76,0,240
4,67,0,0
4,72,0,0
4,74,95,120
4,65,95,0
4,69,95,0
4,69,0,200
4,65,0,0
4,74,0,0
4,65,95,40
4,62,95,0
4,69,95,0
4,69,0,280
4,62,0,0
4,65,0,0
4,69,95,200
4,65,95,0
4,76,95,0
4,76,0,200
4,65,0,0
4,69,0,0
4,74,95,40
4,65,95,0
4,69,95,0
4,69,0,435
4,65,0,0
4,74,0,0
4,71,95,285
4,67,95,0
4,76,95,0
4,76,0,200
4,67,0,0
4,71,0,0
4,74,95,40
4,64,95,0
4,67,95,0
4,67,0,435
4,64,0,0
4,74,0,0
4,67,95,165
4,64,95,0
4,72,95,0
4,72,0,315
4,64,0,0
4,67,0,0
4,72,95,165
4,67,95,0
4,76,95,0
4,76,0,160
4,67,0,0
4,72,0,0
4,72,95,80
4,67,95,0
4,76,95,0
4,76,0,160
4,67,0,0
4,72,0,0
4,72,95,80
4,67,95,0
4,76,95,0
4,76,0,240
4,67,0,0
4,72,0,0
4,74,95,120
4,65,95,0
4,69,95,0
4,69,0,200
4,65,0,0
4,74,0,0
4,65,95,40
4,62,95,0
4,69,95,0
4,69,0,280
4,62,0,0
4,65,0,0
4,69,95,200
4,65,95,0
4,76,95,0
4,76,0,200
4,65,0,0
4,69,0,0
4,74,95,40
4,65,95,0
4,69,95,0
4,69,0,435
4,65,0,0
4,74,0,0
4,71,95,285
4,67,95,0
4,76,95,0
4,76,0,200
4,67,0,0
4,71,0,0
4,74,95,40
4,64,95,0
4,67,95,0
4,67,0,360
4,64,0,0
4,67,79,0
4,64,79,0
4,72,79,0
4,74,0,75
4,67,0,485
4,64,0,0
4,72,0,0
4,72,95,40
4,65,95,0
4,69,95,0
4,69,0,755
4,65,0,0
4,72,0,0
4,70,79,325
4,65,79,0
4,74,79,0
4,74,0,160
4,65,0,0
4,70,0,0
4,70,79,200
4,65,79,0
4,74,79,0
4,74,0,80
4,65,0,0
4,70,0,0
4,70,79,40
4,65,79,0
4,74,79,0
4,74,0,315
4,65,0,0
4,70,0,0
4,67,79,165
4,63,79,0
4,72,79,0
4,72,0,475
4,63,0,0
4,67,0,0
4,67,79,245
4,63,79,0
4,72,79,0
4,72,0,160
4,63,0,0
4,67,0,0
4,69,79,80
4,65,79,0
4,74,79,0
4,74,0,235
4,65,0,0
4,69,0,0
4,69,79,125
4,65,79,0
4,72,79,0
4,72,0,80
4,65,0,0
4,69,0,0
4,69,79,40
4,65,79,0
4,72,79,0
4,72,0,160
4,65,0,0
4,69,0,0
4,69,79,80
4,65,79,0
4,72,79,0
4,72,0,155
4,65,0,0
4,69,0,0
4,65,79,85
4,70,79,0
4,72,79,0
4,72,0,240
4,70,0,0
4,65,0,0
4,65,79,120
4,62,79,0
4,70,79,0
4,70,0,80
4,62,0,0
4,65,0,0
4,65,79,40
4,62,79,0
4,70,79,0
4,70,0,315
4,62,0,0
4,65,0,0
4,70,79,165
4,65,79,0
4,74,79,0
4,74,0,240
4,65,0,0
4,70,0,0
4,74,79,120
4,65,79,0
4,70,79,0
4,70,0,80
4,65,0,0
4,74,0,0
4,74,79,40
4,65,79,0
4,70,79,0
4,70,0,160
4,65,0,0
4,74,0,0
4,74,79,80
4,70,79,0
4,65,79,0
4,65,0,120
4,70,0,0
4,63,79,0
4,67,79,0
4,67,0,200
4,63,0,0
4,74,0,0
4,67,79,160
4,63,79,0
4,72,79,0
4,72,0,400
4,63,0,0
4,67,0,0
4,69,79,320
4,65,79,0
4,74,79,0
4,74,0,240
4,65,0,0
4,69,0,0
4,69,79,120
4,65,79,0
4,72,79,0
4,72,0,435
4,65,0,0
4,69,0,0
4,67,79,165
4,71,79,0
4,71,0,240
4,67,0,0
4,67,79,120
4,71,79,0
4,71,0,280
4,67,0,0
4,72,95,320
4,67,95,0
4,76,95,0
4,76,0,160
4,67,0,0
4,72,0,0
4,72,95,80
4,67,95,0
4,76,95,0
4,76,0,160
4,67,0,0
4,72,0,0
4,72,95,80
4,67,95,0
4,76,95,0
4,76,0,240
4,67,0,0
4,72,0,0
4,74,95,120
4,65,95,0
4,69,95,0
4,69,0,200
4,65,0,0
4,74,0,0
4,65,95,40
4,62,95,0
4,69,95,0
4,69,0,280
4,62,0,0
4,65,0,0
4,69,95,200
4,65,95,0
4,76,95,0
4,76,0,200
4,65,0,0
4,69,0,0
4,74,95,40
4,65,95,0
4,69,95,0
4,69,0,435
4,65,0,0
4,74,0,0
4,71,95,285
4,67,95,0
4,76,95,0
4,76,0,200
4,67,0,0
4,71,0,0
4,74,95,40
4,64,95,0
4,67,95,0
4,67,0,435
4,64,0,0
4,74,0,0
4,67,95,165
4,64,95,0
4,72,95,0
4,72,0,315
4,64,0,0
4,67,0,0
4,72,95,165
4,67,95,0
4,76,95,0
4,76,0,160
4,67,0,0
4,72,0,0
4,72,95,80
4,67,95,0
4,76,95,0
4,76,0,160
4,67,0,0
4,72,0,0
4,72,95,80
4,67,95,0
4,76,95,0
4,76,0,240
