track,note,velocity,time
1,54,118,3440
1,57,114,384
1,62,110,8
1,59,109,384
1,55,117,392
1,59,109,380
1,64,108,352
1,61,116,416
1,59,104,112
1,57,104,8
1,54,114,300
1,57,112,16
1,62,110,8
1,59,115,64
1,57,114,408
1,55,115,8
1,59,117,372
1,57,117,4
1,50,115,428
1,52,114,12
1,54,118,16
1,54,127,164
1,52,102,16
1,52,102,80
1,54,118,180
1,57,110,0
1,54,116,100
1,52,106,16
1,52,102,72
1,62,115,656
1,62,108,0
1,62,107,168
1,62,102,108
1,62,105,60
1,62,101,100
1,62,107,56
1,59,104,80
1,62,110,52
1,64,104,196
1,62,101,8
1,64,107,8
1,62,110,28
1,62,109,924
1,62,107,52
1,62,109,52
1,62,103,72
1,62,117,64
1,61,116,108
1,64,112,132
1,61,116,16
1,59,112,140
1,57,106,8
1,57,108,72
1,54,118,724
1,59,105,16
1,59,110,160
1,57,115,88
1,57,117,152
1,59,105,392
1,50,109,8
1,52,105,88
1,54,113,36
1,54,127,640
1,57,115,36
1,64,114,80
1,64,108,152
1,62,114,28
1,57,117,236
1,59,107,8
1,62,105,8
1,62,109,176
1,62,114,64
1,62,114,0
1,62,109,160
1,62,108,88
1,62,114,64
1,62,102,96
1,64,112,36
1,64,99,96
1,66,120,52
1,64,117,24
1,66,120,116
1,64,107,24
1,56,113,944
1,56,111,96
1,57,112,28
1,59,107,100
1,59,115,64
1,56,118,16
1,64,112,128
1,63,116,76
1,61,120,120
1,57,119,180
1,57,108,76
1,56,106,116
1,56,110,108
1,54,113,28
1,63,116,16
1,63,120,136
1,61,120,108
1,59,110,144
1,56,108,180
1,56,113,124
1,57,115,24
1,59,109,52
1,59,110,56
1,52,108,16
1,61,118,80
1,59,114,88
1,59,124,128
1,57,117,4
1,59,114,156
1,56,111,4
1,56,116,168
1,54,116,60
1,65,124,404
1,57,127,244
1,57,119,88
1,58,114,124
1,60,114,32
1,60,119,64
1,57,117,8
1,65,127,96
1,64,119,88
1,62,115,108
1,58,118,276
1,58,108,60
1,57,117,16
1,57,114,56
1,55,114,8
1,64,109,8
1,64,114,96
1,62,114,80
1,60,115,72
1,57,122,204
1,57,106,80
1,58,112,16
1,60,112,40
1,60,112,72
1,62,112,108
1,62,119,108
1,60,127,88
1,60,114,180
1,58,112,8
1,58,118,192
1,57,117,28
1,57,127,196
1,55,119,8
1,58,114,52
1,57,119,28
1,64,110,3212
1,64,101,72
1,64,109,52
1,64,94,72
1,64,109,56
1,64,98,64
1,64,110,64
1,64,93,92
1,64,114,64
1,66,118,152
1,66,123,0
1,64,117,56
1,64,119,872
1,64,101,60
1,64,112,64
1,64,109,72
1,64,112,56
1,63,120,136
1,66,127,144
1,63,120,132
1,61,118,152
1,63,108,156
1,61,113,28
1,59,101,16
1,56,112,728
1,61,116,72
1,61,120,196
1,59,108,60
1,59,109,304
1,59,105,52
1,61,114,88
1,52,103,216
1,54,116,116
1,56,106,72
1,56,116,904
1,59,114,80
1,66,118,88
1,66,127,160
1,64,115,64
1,59,115,376
1,61,112,8
1,64,114,16
1,64,112,180
1,64,103,80
1,64,110,44
1,64,112,116
1,66,120,128
1,68,120,200
1,66,120,88
1,64,106,32
1,68,118,36
1,66,114,8
1,57,127,836
1,57,108,100
1,58,118,16
1,60,109,36
1,60,119,76
1,57,119,0
1,65,127,44
1,64,112,368
1,62,114,56
1,58,123,116
1,58,104,56
1,57,114,24
1,57,108,72
1,55,114,20
1,64,105,8
1,64,112,104
1,62,110,80
1,60,115,80
1,60,63,52
1,57,122,20
1,57,109,60
1,58,114,136
1,60,109,28
1,60,119,64
1,62,110,20
1,62,115,124
1,60,114,400
1,60,115,152
1,58,111,8
1,58,118,152
1,57,117,44
1,57,127,200
1,55,119,16
1,58,118,372
1,57,115,28
1,54,118,2012
1,57,117,28
1,62,108,8
1,59,112,384
1,55,115,416
1,59,117,4
1,64,112,356
1,61,118,384
1,59,95,4
1,57,106,16
1,54,123,356
1,57,115,20
1,62,114,8
1,59,110,56
1,57,115,480
1,55,115,16
1,59,106,28
1,59,109,144
1,57,112,52
1,50,122,408
1,52,110,20
1,54,113,116
1,54,127,188
1,52,107,100
1,52,115,80
1,54,118,284
1,57,117,24
1,62,122,196
1,62,109,72
1,62,117,52
1,62,110,92
1,62,117,64
1,62,107,88
1,64,114,44
1,66,120,236
1,64,119,124
1,62,112,16
1,66,118,28
1,64,115,36
1,56,116,900
1,56,111,88
1,57,115,20
1,59,106,36
1,59,115,64
1,52,112,8
1,64,112,92
1,63,112,372
1,61,118,16
1,57,117,232
1,57,107,108
1,56,108,16
1,56,107,80
1,54,120,56
1,63,116,396
1,63,120,124
1,61,127,52
1,59,114,140
1,56,116,116
1,56,113,68
1,57,119,24
1,59,108,28
1,59,122,64
1,52,114,16
1,61,118,20
1,59,119,28
1,59,119,164
1,57,122,8
1,59,112,180
1,56,111,8
1,56,116,172
1,54,118,40
1,65,124,268
1,57,122,260
1,57,110,96
1,58,118,16
1,60,110,28
1,60,119,64
1,60,114,0
1,53,114,4
1,65,119,152
1,64,106,84
1,62,107,72
1,58,123,120
1,58,106,100
1,57,119,24
1,57,114,108
1,55,117,24
1,64,115,28
1,64,110,116
1,62,117,108
1,60,112,92
1,57,124,244
1,57,110,116
1,58,118,8
1,60,104,56
1,60,109,60
1,62,106,20
1,62,105,216
1,60,115,116
1,60,117,172
1,58,113,388
1,58,116,232
1,57,124,28
1,57,127,216
1,55,115,8
1,58,123,52
1,57,119,36
1,57,127,892
1,57,107,72
1,58,116,28
1,60,110,16
1,60,110,44
1,53,105,16
1,65,119,96
1,64,105,72
1,62,108,108
1,58,112,188
1,58,100,52
1,57,115,16
1,57,103,96
1,55,114,16
1,64,106,32
1,64,108,152
1,62,115,128
1,60,112,124
1,57,122,212
1,57,108,108
1,58,112,128
1,60,109,24
1,60,110,64
1,62,107,8
1,62,115,144
1,60,115,112
1,60,114,152
1,58,114,4
1,58,118,188
1,57,115,24
1,57,122,188
1,55,115,128
1,58,120,108
1,57,122,16
1,57,119,872
1,57,114,80
1,58,113,8
1,60,107,36
1,60,117,60
1,53,105,8
1,65,122,88
1,64,102,36
1,62,109,8
1,58,114,276
1,58,101,56
1,57,114,36
1,57,102,120
1,55,114,20
1,64,108,20
1,64,109,152
1,62,108,116
1,60,115,116
1,57,127,240
1,57,108,116
1,58,116,36
1,60,106,36
1,60,114,60
1,62,106,8
1,62,114,204
1,60,114,60
1,60,114,216
1,58,107,8
1,58,114,260
1,57,114,36
1,57,112,232
1,55,115,16
1,58,120,116
1,57,117,80
1,53,110,156
2,33,103,19964
2,33,98,56
2,30,103,20
2,28,95,20
2,26,100,116
2,26,100,172
2,26,95,168
2,26,93,116
2,26,95,72
2,33,100,100
2,33,100,144
2,33,93,148
2,33,88,88
2,33,93,68
2,31,91,16
2,31,95,148
2,31,90,164
2,31,83,104
2,31,95,80
2,33,90,48
2,33,88,124
2,33,88,132
2,33,85,88
2,33,91,68
2,26,98,68
2,26,93,160
2,26,95,180
2,26,90,104
2,26,90,80
2,26,95,144
2,26,95,168
2,28,93,76
2,30,103,116
2,30,96,172
2,30,99,180
2,30,94,156
2,30,89,108
2,30,99,80
2,31,91,56
2,31,98,148
2,33,91,96
2,33,84,92
2,33,98,68
2,26,100,48
2,26,98,160
2,26,98,160
2,26,85,128
2,26,93,68
2,26,95,140
2,26,98,176
2,30,96,100
2,33,103,92
2,35,91,72
2,35,91,156
2,35,91,108
2,35,83,100
2,35,93,72
2,35,90,108
2,35,90,164
2,35,86,156
2,35,85,108
2,35,91,72
2,28,90,68
2,28,95,180
2,28,91,216
2,28,81,96
2,28,91,68
2,33,93,64
2,33,95,132
2,33,93,124
2,33,91,88
2,33,98,68
2,28,91,124
2,28,95,156
2,28,93,172
2,28,80,96
2,28,88,76
2,28,90,120
2,28,91,152
2,30,99,96
2,30,89,108
2,32,103,48
2,33,95,52
2,33,98,136
2,33,95,124
2,33,86,140
2,33,107,68
2,35,100,88
2,35,98,0
2,35,103,148
2,30,96,104
2,30,90,104
2,31,100,40
2,32,99,96
2,32,107,112
2,32,99,140
2,32,89,92
2,32,99,80
2,37,117,100
2,27,103,0
2,28,98,16
2,28,88,96
2,29,95,20
2,30,47,256
2,30,103,96
2,30,96,0
2,30,99,172
2,32,103,28
2,32,96,80
2,33,107,52
2,35,103,20
2,35,107,108
2,35,90,92
2,35,93,80
2,35,95,60
2,29,93,60
2,29,98,144
2,29,93,144
2,29,81,108
2,29,93,56
2,29,93,144
2,29,93,136
2,31,91,52
2,31,81,80
2,33,103,8
2,34,96,384
2,34,96,108
2,34,92,104
2,34,89,72
2,34,96,68
2,36,98,84
2,36,103,140
2,31,100,384
2,31,84,84
2,32,90,28
2,33,98,104
2,33,100,132
2,33,91,132
2,33,86,76
2,33,93,60
2,38,85,128
2,38,98,0
2,28,93,56
2,29,91,84
2,30,107,80
2,31,98,92
2,31,100,160
2,34,90,384
2,34,89,76
2,35,90,40
2,36,98,84
2,36,98,112
2,36,95,120
2,36,91,84
2,36,90,60
2,38,86,48
2,38,95,112
2,38,91,80
2,38,80,64
2,38,100,72
2,38,95,100
2,38,100,116
2,33,82,32
2,33,86,92
2,33,95,60
2,28,95,80
2,28,95,152
2,28,93,140
2,28,78,108
2,28,93,72
2,35,95,80
2,35,93,128
2,35,93,108
2,35,83,100
2,35,95,76
2,33,95,20
2,33,103,140
2,33,91,140
2,33,77,96
2,33,98,88
2,35,103,56
2,35,95,132
2,35,86,136
2,35,84,116
2,35,111,80
2,28,91,144
2,28,95,176
2,28,88,164
2,28,83,88
2,28,88,60
2,28,93,132
2,28,95,172
2,30,107,92
2,30,94,96
2,32,107,40
2,32,96,112
2,32,107,160
2,32,89,152
2,32,78,104
2,32,96,80
2,33,98,44
2,33,103,140
2,35,88,84
2,35,84,92
2,35,98,80
2,28,93,100
2,28,93,144
2,28,93,128
2,28,71,96
2,28,85,80
2,28,90,92
2,28,91,164
2,32,92,124
2,32,88,108
2,28,95,40
2,37,99,76
2,37,96,152
2,37,92,116
2,32,94,64
2,37,89,52
2,37,94,84
2,37,96,156
2,32,89,60
2,37,99,68
2,37,96,108
2,30,107,72
2,30,107,172
2,30,96,156
2,30,82,88
2,30,111,80
2,35,91,116
2,35,103,136
2,30,96,24
2,35,95,48
2,35,88,72
2,35,100,60
2,29,100,52
2,27,65,0
2,29,98,148
2,29,91,160
2,29,79,112
2,29,93,76
2,29,95,92
2,29,95,156
2,31,91,80
2,31,98,96
2,33,107,32
2,34,94,72
2,34,94,124
2,34,90,112
2,34,88,152
2,34,107,80
2,36,93,84
2,36,95,120
2,31,93,20
2,31,81,80
2,32,89,40
2,33,98,104
2,33,95,156
2,33,86,140
2,33,84,128
2,33,95,80
2,38,91,80
2,28,100,4
2,29,88,48
2,29,75,80
2,30,96,12
2,31,91,40
2,31,100,140
2,34,103,20
2,34,88,104
2,35,98,60
2,36,98,84
2,36,103,108
2,36,95,124
2,36,85,108
2,36,107,72
2,38,91,116
2,38,100,116
2,38,90,120
2,38,75,76
2,38,100,80
2,38,103,96
2,38,103,140
2,38,86,120
2,38,81,108
2,38,107,80
2,28,98,24
2,28,93,156
2,28,88,132
2,28,77,100
2,28,93,68
2,28,95,112
2,28,100,156
2,28,86,128
2,28,82,96
2,28,98,88
2,30,111,44
2,30,103,120
2,30,94,112
2,30,84,100
2,30,99,80
2,30,99,104
2,30,103,104
2,30,94,124
2,30,90,88
2,30,103,88
2,31,98,72
2,31,100,108
2,31,91,120
2,31,84,76
2,31,103,80
2,33,100,76
2,33,55,0
2,33,91,0
2,33,95,100
2,33,86,96
2,33,103,80
2,33,93,64
2,30,92,128
2,30,99,148
2,30,94,124
2,30,83,88
2,30,96,80
2,30,81,72
2,35,88,48
2,35,93,96
2,35,86,76
2,35,84,88
2,35,98,68
2,35,93,72
2,28,90,8
2,28,111,164
2,28,93,136
2,28,81,88
2,28,91,80
2,28,83,76
2,28,100,60
2,28,107,108
2,28,98,84
2,28,83,84
2,28,111,76
2,33,103,48
2,33,107,116
2,33,93,92
2,33,86,72
2,33,98,60
2,33,93,76
2,33,98,116
2,33,93,116
2,33,86,108
2,33,111,68
2,28,98,184
2,28,95,128
2,28,90,136
2,28,82,124
2,28,88,68
2,28,93,88
2,28,95,132
2,30,99,384
2,30,87,76
2,32,111,48
2,33,93,44
2,33,100,104
2,33,98,100
2,33,86,108
2,33,103,68
2,35,100,64
2,35,100,108
2,30,103,12
2,30,92,60
2,31,98,32
2,32,111,96
2,32,107,96
2,32,94,144
2,32,89,152
2,32,111,80
2,37,117,384
2,27,103,32
2,28,100,40
2,28,82,88
2,29,95,48
2,30,103,112
2,30,103,0
2,30,94,136
2,32,99,0
2,32,90,80
2,33,100,48
2,35,95,92
2,35,103,136
2,35,86,116
2,35,81,112
2,35,107,76
2,29,98,80
2,29,90,164
2,29,84,120
2,29,76,124
2,29,84,68
2,29,85,88
2,29,95,176
2,31,100,100
2,33,100,88
2,34,94,80
2,34,111,112
2,34,90,124
2,34,94,108
2,34,111,88
2,36,98,64
2,36,107,116
2,31,91,80
2,31,86,92
2,32,90,52
2,33,100,124
2,33,100,132
2,33,86,140
2,33,85,116
2,33,100,68
2,38,90,80
2,28,91,144
2,29,90,28
2,29,83,96
2,30,94,48
2,31,91,100
2,31,100,112
2,34,103,64
2,34,88,88
2,35,100,72
2,36,98,80
2,36,93,100
2,36,91,136
2,36,82,124
2,36,95,72
2,29,90,136
2,29,91,128
2,29,85,132
2,29,81,148
2,29,93,68
2,29,93,92
2,29,93,172
2,34,67,0
2,31,103,56
2,31,95,80
2,33,103,36
2,34,96,96
2,34,111,124
2,34,96,144
2,34,88,136
2,34,103,84
2,36,95,76
2,36,100,148
2,31,91,60
2,31,90,92
2,32,90,4
2,33,100,112
2,33,103,144
2,33,86,132
2,33,83,152
2,33,100,68
2,38,90,36
2,28,91,36
2,29,84,92
2,29,82,108
2,30,96,32
2,31,103,112
2,31,98,136
2,34,89,88
2,34,88,100
2,35,98,68
2,36,98,68
2,36,103,100
2,36,98,104
2,36,84,112
2,36,107,60
2,29,85,180
2,29,95,164
2,29,90,136
2,29,79,152
2,29,91,76
2,29,91,92
2,29,95,156
2,31,86,44
2,31,91,120
2,33,107,40
2,34,94,40
2,34,99,124
2,34,92,120
2,34,87,96
2,34,103,88
2,36,91,84
2,36,98,144
2,31,86,8
2,31,83,124
2,32,103,52
2,33,100,104
2,33,100,164
2,33,82,112
2,33,82,156
2,33,100,80
2,38,91,80
2,28,100,32
2,29,83,44
2,29,84,136
2,30,103,52
2,31,103,120
2,31,100,120
2,34,94,84
2,34,89,136
2,35,100,72
2,36,98,116
2,36,100,132
2,36,95,100
2,36,88,104
2,36,111,80
2,29,91,60
2,29,91,180
2,29,93,168
2,29,88,64
2,29,93,80
2,24,88,24
2,29,95,132
2,29,93,124
2,29,85,128
2,29,84,108
2,29,95,64
2,29,84,92
2,29,103,68
3,54,111,1536
3,62,101,0
3,57,101,0
3,66,107,0
3,64,107,536
3,59,105,0
3,67,112,0
3,62,103,0
3,52,107,0
3,66,111,592
3,61,115,0
3,57,104,0
3,54,113,0
3,62,109,272
3,55,104,0
3,59,107,0
3,50,102,0
3,67,117,0
3,57,100,272
3,61,118,0
3,64,101,0
3,52,101,0
3,54,111,208
3,61,115,0
3,57,100,0
3,66,111,0
3,62,101,144
3,66,101,0
3,59,103,0
3,54,109,0
3,59,100,236
3,52,100,0
3,62,100,0
3,64,100,0
3,67,107,0
3,62,107,528
3,57,105,0
3,59,105,0
3,67,109,0
3,57,101,364
3,61,113,0
3,64,101,0
3,45,89,0
3,57,107,340
3,62,103,0
3,66,108,0
3,50,103,0
3,45,97,288
3,59,105,0
3,62,109,0
3,55,114,0
3,45,85,0
3,55,119,172
3,59,104,0
3,62,107,0
3,64,93,128
3,57,114,0
3,61,115,0
3,50,104,152
3,66,105,0
3,57,112,0
