track,note,velocity,time
1,76,45,0
1,76,0,840
1,77,41,0
1,77,0,120
1,74,45,0
1,74,0,360
1,76,41,0
1,76,0,120
1,72,45,0
1,72,0,120
1,79,43,360
1,79,0,120
1,79,43,360
1,79,0,120
1,79,45,360
1,79,0,240
1,77,41,0
1,77,0,120
1,77,45,120
1,77,0,240
1,76,41,0
1,76,0,120
1,76,45,120
1,76,0,240
1,74,40,0
1,74,0,120
1,74,45,120
1,74,0,120
1,71,41,360
1,71,0,120
1,67,41,360
1,67,0,120
1,76,72,360
1,76,0,840
1,77,59,0
1,77,0,120
1,74,69,0
1,74,0,360
1,76,64,0
1,76,0,120
1,72,70,0
1,72,0,120
1,84,70,360
1,84,0,120
1,84,70,360
1,84,0,120
1,80,67,360
1,80,0,120
1,81,59,0
1,81,0,120
1,76,68,240
1,76,0,120
1,77,59,0
1,77,0,120
1,74,70,240
1,74,0,120
1,71,58,0
1,71,0,120
1,72,71,240
1,72,0,120
1,76,45,1320
1,76,0,840
1,77,41,0
1,77,0,120
1,74,45,0
1,74,0,360
1,76,41,0
1,76,0,120
1,72,45,0
1,72,0,120
1,79,43,360
1,79,0,120
1,79,43,360
1,79,0,120
1,79,45,360
1,79,0,240
1,77,41,0
1,77,0,120
1,77,45,120
1,77,0,240
1,76,41,0
1,76,0,120
1,76,45,120
1,76,0,240
1,74,40,0
1,74,0,120
1,74,45,120
1,74,0,120
1,71,41,360
1,71,0,120
1,67,41,360
1,67,0,120
1,76,72,360
1,76,0,840
1,77,59,0
1,77,0,120
1,74,69,0
1,74,0,360
1,76,64,0
1,76,0,120
1,72,70,0
1,72,0,120
1,84,70,360
1,84,0,120
1,84,70,360
1,84,0,120
1,80,67,360
1,80,0,120
1,81,59,0
1,81,0,120
1,76,68,240
1,76,0,120
1,77,59,0
1,77,0,120
1,74,70,240
1,74,0,120
1,71,58,0
1,71,0,120
1,72,71,240
1,72,0,120
1,77,45,1320
1,77,0,840
1,79,41,0
1,79,0,120
1,76,45,0
1,76,0,360
1,77,41,0
1,77,0,120
1,74,45,0
1,74,0,120
1,71,43,360
1,71,0,120
1,67,43,360
1,67,0,120
1,84,65,360
1,84,0,840
1,86,57,0
1,86,0,120
1,83,66,0
1,83,0,360
1,84,57,0
1,84,0,120
1,81,65,0
1,81,0,840
1,83,57,0
1,83,0,120
1,79,66,0
1,79,0,360
1,81,57,0
1,81,0,120
1,78,66,0
1,81,61,332
1,78,0,28
1,81,0,92
1,84,66,56
1,81,62,332
1,84,0,28
1,81,0,92
1,78,66,0
1,78,0,360
1,81,63,0
1,81,0,120
1,79,71,0
1,79,0,120
1,79,66,360
1,79,0,120
1,79,66,360
1,79,0,120
1,78,66,360
1,81,61,332
1,78,0,28
1,81,0,92
1,84,66,56
1,81,62,332
1,84,0,28
1,81,0,92
1,78,66,0
1,78,0,360
1,81,63,0
1,81,0,120
1,79,71,0
1,79,0,120
1,79,66,360
1,79,0,120
1,79,66,360
1,79,0,120
1,79,71,360
1,79,0,840
1,81,41,0
1,81,0,120
1,77,45,0
1,77,0,360
1,79,41,0
1,79,0,120
1,76,45,0
1,76,0,840
1,77,41,0
1,77,0,120
1,74,45,0
1,74,0,360
1,76,41,0
1,76,0,120
1,72,45,0
1,72,0,120
1,79,43,360
1,79,0,120
1,79,43,360
1,79,0,120
1,79,45,360
1,79,0,240
1,77,41,0
1,77,0,120
1,77,45,120
1,77,0,240
1,76,41,0
1,76,0,120
1,76,45,120
1,76,0,240
1,74,40,0
1,74,0,120
1,74,45,120
1,74,0,120
1,71,41,360
1,71,0,120
1,67,41,360
1,67,0,120
1,76,72,360
1,76,0,840
1,77,59,0
1,77,0,120
1,74,69,0
1,74,0,360
1,76,64,0
1,76,0,120
1,72,70,0
1,72,0,120
1,84,70,360
1,84,0,120
1,84,70,360
1,84,0,120
1,80,67,360
1,80,0,120
1,81,59,0
1,81,0,120
1,76,68,240
1,76,0,120
1,77,59,0
1,77,0,120
1,74,70,240
1,74,0,120
1,71,58,0
1,71,0,120
1,72,71,240
1,72,0,120
1,77,45,1320
1,77,0,840
1,79,41,0
1,79,0,120
1,76,45,0
1,76,0,360
1,77,41,0
1,77,0,120
1,74,45,0
1,74,0,120
1,71,43,360
1,71,0,120
1,67,43,360
1,67,0,120
1,84,65,360
1,84,0,840
1,86,57,0
1,86,0,120
1,83,66,0
1,83,0,360
1,84,57,0
1,84,0,120
1,81,65,0
1,81,0,840
1,83,57,0
1,83,0,120
1,79,66,0
1,79,0,360
1,81,57,0
1,81,0,120
1,78,66,0
1,81,61,332
1,78,0,28
1,81,0,92
1,84,66,56
1,81,62,332
1,84,0,28
1,81,0,92
1,78,66,0
1,78,0,360
1,81,63,0
1,81,0,120
1,79,71,0
1,79,0,120
1,79,66,360
1,79,0,120
1,79,66,360
1,79,0,120
1,78,66,360
1,81,61,332
1,78,0,28
1,81,0,92
1,84,66,56
1,81,62,332
1,84,0,28
1,81,0,92
1,78,66,0
1,78,0,360
1,81,63,0
1,81,0,120
1,79,71,0
1,79,0,120
1,79,66,360
1,79,0,120
1,79,66,360
1,79,0,120
1,79,71,360
1,79,0,840
1,81,41,0
1,81,0,120
1,77,45,0
1,77,0,360
1,79,41,0
1,79,0,120
1,76,45,0
1,76,0,840
1,77,41,0
1,77,0,120
1,74,45,0
1,74,0,360
1,76,41,0
1,76,0,120
1,72,45,0
1,72,0,120
1,79,43,360
1,79,0,120
1,79,43,360
1,79,0,120
1,79,45,360
1,79,0,240
1,77,41,0
1,77,0,120
1,77,45,120
1,77,0,240
1,76,41,0
1,76,0,120
1,76,45,120
1,76,0,240
1,74,40,0
1,74,0,120
1,74,45,120
1,74,0,120
1,71,41,360
1,71,0,120
1,67,41,360
1,67,0,120
1,76,72,360
1,76,0,840
1,77,59,0
1,77,0,120
1,74,69,0
1,74,0,360
1,76,64,0
1,76,0,120
1,72,70,0
1,72,0,120
1,84,70,360
1,84,0,120
1,84,70,360
1,84,0,120
1,80,67,360
1,80,0,120
1,81,59,0
1,81,0,120
1,76,68,240
1,76,0,120
1,77,59,0
1,77,0,120
1,74,70,240
1,74,0,120
1,71,58,0
1,71,0,120
1,72,71,240
1,72,0,120
1,76,45,1320
1,76,0,840
1,79,41,0
1,79,0,120
1,78,45,0
1,78,0,360
1,81,41,0
1,81,0,120
1,79,45,0
1,79,0,120
1,86,48,360
1,86,0,120
1,86,48,360
1,86,0,120
1,86,52,360
1,86,0,240
1,84,45,0
1,84,0,120
1,84,52,120
1,84,0,240
1,83,45,0
1,83,0,120
1,83,52,120
1,83,0,240
1,81,44,0
1,81,0,120
1,81,53,120
1,81,0,120
1,78,50,360
1,78,0,120
1,74,48,360
1,74,0,120
1,83,45,840
1,79,45,0
1,79,0,120
1,83,0,0
1,83,45,360
1,79,45,0
1,79,0,120
1,83,0,0
1,83,50,360
1,79,50,0
1,79,0,120
1,83,0,0
1,83,45,360
1,79,45,0
1,79,0,120
1,83,0,0
1,83,45,360
1,79,45,0
1,79,0,120
1,83,0,0
1,83,58,360
1,79,58,0
1,79,0,480
1,83,0,0
1,84,50,0
1,81,50,0
1,81,0,480
1,84,0,0
1,86,50,0
1,83,50,0
1,83,0,480
1,86,0,0
1,84,60,0
1,84,0,160
1,81,51,0
1,81,0,160
1,76,51,0
1,76,0,160
1,83,59,0
1,83,0,160
1,79,50,0
1,79,0,160
1,74,51,0
1,74,0,160
1,81,59,0
1,81,0,160
1,78,52,0
1,78,0,160
1,72,52,0
1,72,0,160
1,83,60,480
1,79,51,0
1,79,0,120
1,83,0,0
1,83,59,360
1,79,50,0
1,79,0,120
1,83,0,0
1,83,68,360
1,79,57,0
1,79,0,120
1,83,0,0
1,83,60,360
1,79,51,0
1,79,0,120
1,83,0,0
1,83,59,360
1,79,50,0
1,79,0,120
1,83,0,0
1,83,74,360
1,79,62,0
1,79,0,480
1,83,0,0
1,84,71,0
1,81,60,0
1,81,0,480
1,84,0,0
1,86,75,0
1,83,63,0
1,83,0,480
1,86,0,0
1,84,75,0
1,84,0,160
1,81,60,0
1,81,0,160
1,76,60,0
1,76,0,160
1,83,72,0
1,83,0,160
1,79,57,0
1,79,0,160
1,74,57,0
1,74,0,160
1,81,70,0
1,81,0,160
1,78,58,0
1,78,0,160
1,72,58,0
1,72,0,160
1,71,70,0
1,79,70,0
1,71,0,2400
1,79,0,480
1,79,54,0
1,79,0,840
1,81,49,0
1,81,0,120
1,77,55,0
1,77,0,360
1,79,50,0
1,79,0,120
1,76,54,0
1,76,0,840
1,77,49,0
1,77,0,120
1,74,55,0
1,74,0,360
1,76,50,0
1,76,0,120
1,73,55,0
1,73,0,480
1,70,55,0
1,73,55,0
1,73,0,480
1,70,0,0
1,69,55,0
1,74,55,0
1,74,0,480
1,69,0,0
1,67,55,0
1,76,55,0
1,76,0,480
1,67,0,0
1,77,55,0
1,65,55,0
1,77,0,360
1,79,45,0
1,79,0,120
1,65,0,0
1,76,55,0
1,76,0,360
1,77,45,0
1,77,0,120
1,74,60,0
1,74,0,840
1,76,49,0
1,76,0,120
1,72,56,0
1,72,0,360
1,74,47,0
1,74,0,120
1,67,55,0
1,71,55,0
1,71,0,360
1,74,43,0
1,74,0,120
1,67,0,0
1,69,52,0
1,72,52,0
1,72,0,360
1,76,36,0
1,76,0,120
1,69,0,0
1,71,44,0
1,74,44,0
1,74,0,360
1,77,42,0
1,77,0,120
1,71,0,0
1,72,40,0
1,76,48,0
1,76,0,840
1,77,41,0
1,77,0,120
1,72,0,0
1,71,40,0
1,74,45,0
1,74,0,360
1,76,41,0
1,76,0,120
1,71,0,0
1,72,45,0
1,72,0,120
1,79,43,360
1,79,0,120
1,79,43,360
1,79,0,120
1,79,45,360
1,79,0,240
1,77,41,0
1,77,0,120
1,77,45,120
1,77,0,240
1,76,41,0
1,76,0,120
1,76,45,120
1,76,0,240
1,74,40,0
1,74,0,120
1,74,45,120
1,74,0,120
1,71,41,360
1,71,0,120
1,67,41,360
1,67,0,120
1,76,72,360
1,76,0,840
1,77,59,0
1,77,0,120
1,74,69,0
1,74,0,360
1,76,64,0
1,76,0,120
1,72,70,0
1,72,0,120
1,84,70,360
1,84,0,120
1,84,70,360
1,84,0,120
1,80,67,360
1,80,0,120
1,81,59,0
1,81,0,120
1,76,68,240
1,76,0,120
1,77,59,0
1,77,0,120
1,74,70,240
1,74,0,120
1,71,58,0
1,71,0,120
1,72,71,240
1,72,0,120
1,76,45,1320
1,76,0,840
1,79,41,0
1,79,0,120
1,78,45,0
1,78,0,360
1,81,41,0
1,81,0,120
1,79,45,0
1,79,0,120
1,86,48,360
1,86,0,120
1,86,48,360
1,86,0,120
1,86,52,360
1,86,0,240
1,84,45,0
1,84,0,120
1,84,52,120
1,84,0,240
1,83,45,0
1,83,0,120
1,83,52,120
1,83,0,240
1,81,44,0
1,81,0,120
1,81,53,120
1,81,0,120
1,78,50,360
1,78,0,120
1,74,48,360
1,74,0,120
1,83,45,840
1,79,45,0
1,79,0,120
1,83,0,0
1,83,45,360
1,79,45,0
1,79,0,120
1,83,0,0
1,83,50,360
1,79,50,0
1,79,0,120
1,83,0,0
1,83,45,360
1,79,45,0
1,79,0,120
1,83,0,0
1,83,45,360
1,79,45,0
1,79,0,120
1,83,0,0
1,83,58,360
1,79,58,0
1,79,0,480
1,83,0,0
1,84,50,0
1,81,50,0
1,81,0,480
1,84,0,0
1,86,50,0
1,83,50,0
1,83,0,480
1,86,0,0
1,84,60,0
1,84,0,160
1,81,51,0
1,81,0,160
1,76,51,0
1,76,0,160
1,83,59,0
1,83,0,160
1,79,50,0
1,79,0,160
1,74,51,0
1,74,0,160
1,81,59,0
1,81,0,160
1,78,52,0
1,78,0,160
1,72,52,0
1,72,0,160
1,83,60,480
1,79,51,0
1,79,0,120
1,83,0,0
1,83,59,360
1,79,50,0
1,79,0,120
1,83,0,0
1,79,57,360
1,83,68,0
1,83,0,120
1,79,0,0
1,83,60,360
1,79,51,0
1,79,0,120
1,83,0,0
1,79,50,360
1,83,59,0
1,83,0,120
1,79,0,0
1,83,74,360
1,79,62,0
1,79,0,480
1,83,0,0
1,81,60,0
1,84,71,0
1,84,0,480
1,81,0,0
1,86,75,0
1,83,63,0
1,83,0,480
1,86,0,0
1,84,75,0
1,84,0,160
1,81,60,0
1,81,0,160
1,76,60,0
1,76,0,160
1,83,72,0
1,83,0,160
1,79,57,0
1,79,0,160
1,74,57,0
1,74,0,160
1,81,70,0
1,81,0,160
1,78,58,0
1,78,0,160
1,72,58,0
1,72,0,160
1,79,70,0
1,71,70,0
1,71,0,2400
1,79,0,480
1,79,54,0
1,79,0,840
1,81,49,0
1,81,0,120
1,77,55,0
1,77,0,360
1,79,50,0
1,79,0,120
1,76,54,0
1,76,0,840
1,77,49,0
1,77,0,120
1,74,55,0
1,74,0,360
1,76,50,0
1,76,0,120
1,73,55,0
1,73,0,480
1,70,55,0
1,73,55,0
1,73,0,480
1,70,0,0
1,74,55,0
1,69,55,0
1,69,0,480
1,74,0,0
1,67,55,0
1,76,55,0
1,76,0,480
1,67,0,0
1,65,55,0
1,77,55,0
1,77,0,360
1,79,45,0
1,79,0,120
1,65,0,0
1,76,55,0
1,76,0,360
1,77,45,0
1,77,0,120
1,74,60,0
1,74,0,840
1,76,49,0
1,76,0,120
1,72,56,0
1,72,0,360
1,74,47,0
1,74,0,120
1,67,55,0
1,71,55,0
1,71,0,360
1,74,43,0
1,74,0,120
1,67,0,0
1,69,52,0
1,72,52,0
1,72,0,360
1,76,36,0
1,76,0,120
1,69,0,0
1,71,44,0
1,74,44,0
1,74,0,360
1,77,42,0
1,77,0,120
1,71,0,0
1,72,40,0
1,76,48,0
1,76,0,840
1,77,41,0
1,77,0,120
1,72,0,0
1,71,40,0
1,74,45,0
1,74,0,360
1,76,41,0
1,76,0,120
1,71,0,0
1,72,45,0
1,72,0,120
1,79,43,360
1,79,0,120
1,79,43,360
1,79,0,120
1,79,45,360
1,79,0,240
1,77,41,0
1,77,0,120
1,77,45,120
1,77,0,240
1,76,41,0
1,76,0,120
1,76,45,120
1,76,0,240
1,74,40,0
1,74,0,120
1,74,45,120
1,74,0,120
1,71,41,360
1,71,0,120
1,67,41,360
1,67,0,120
1,76,72,360
1,76,0,840
1,77,59,0
1,77,0,120
1,74,69,0
1,74,0,360
1,76,64,0
1,76,0,120
1,72,70,0
1,72,0,120
1,84,70,360
1,84,0,120
1,84,70,360
1,84,0,120
1,80,67,360
1,80,0,120
1,81,59,0
1,81,0,120
1,76,68,240
1,76,0,120
1,77,59,0
1,77,0,120
1,74,70,240
1,74,0,120
1,71,58,0
1,71,0,120
1,72,71,240
1,72,0,120
1,72,50,1320
1,72,0,480
1,71,48,0
1,71,0,480
1,72,48,0
1,72,0,480
1,72,50,0
1,74,50,0
1,74,0,480
1,75,49,0
1,75,0,480
1,77,54,0
1,77,0,480
1,72,0,0
1,72,55,0
1,75,55,0
1,75,0,480
1,72,0,0
1,71,45,0
1,74,45,0
1,74,0,480
1,71,0,0
1,67,54,0
1,79,54,0
1,79,0,480
1,67,0,0
1,74,52,0
1,77,52,0
1,77,0,480
1,74,0,0
1,72,46,0
1,75,46,0
1,75,0,480
1,72,0,0
1,71,46,0
1,74,46,0
1,74,0,480
1,71,0,0
1,72,59,0
1,72,0,240
1,77,53,0
1,77,0,240
1,76,57,0
1,76,0,240
1,79,53,0
1,79,0,240
1,77,57,0
1,77,0,240
1,84,61,0
1,84,0,240
1,82,60,0
1,82,0,240
1,74,53,0
1,74,0,240
1,75,58,0
1,75,0,240
1,74,53,0
1,74,0,240
1,75,58,0
1,75,0,240
1,82,62,0
1,82,0,240
1,72,61,0
1,72,0,240
1,80,53,0
1,80,0,240
1,79,58,0
1,79,0,240
1,75,53,0
1,75,0,240
1,77,59,0
1,77,0,240
1,74,53,0
1,74,0,240
1,75,64,0
1,75,0,480
1,72,50,960
1,72,0,480
1,71,48,0
1,71,0,480
