track,note,velocity,time
1,57,46,4
1,58,50,2
1,59,58,2
1,58,45,2
1,45,60,88
1,46,67,2
1,47,58,2
1,46,48,2
1,33,64,14
1,40,69,6
1,38,71,2
1,33,63,8
1,38,74,2
1,38,69,64
1,38,72,68
1,32,74,2
1,33,70,2
1,32,64,66
1,44,72,2
1,43,70,2
1,42,85,34
1,40,63,2
1,38,58,2
1,31,79,2
1,38,76,2
1,37,94,2
1,36,85,4
1,35,74,2
1,47,70,2
1,46,69,2
1,38,61,2
1,37,71,2
1,35,67,2
1,40,67,2
1,47,58,2
1,52,61,2
1,59,61,2
1,57,59,2
1,55,63,2
1,54,55,2
1,52,60,2
1,38,87,2
1,33,82,2
1,38,66,2
1,38,82,146
1,32,71,4
1,33,69,2
1,32,67,72
1,44,63,2
1,44,66,18
1,43,65,2
1,42,70,2
1,40,65,16
1,42,63,2
1,40,69,2
1,31,72,18
1,38,76,2
1,37,87,2
1,36,82,4
1,35,82,2
1,47,72,2
1,46,65,2
1,38,87,202
1,37,85,2
1,35,90,2
1,40,74,2
1,35,76,2
1,33,74,2
1,38,76,2
1,31,87,160
2,57,90,53034
2,59,90,382
2,64,90,362
2,62,90,166
2,61,74,172
2,62,71,184
2,59,82,168
2,64,87,366
2,62,90,160
2,60,74,174
2,61,76,188
2,62,87,316
2,64,76,182
2,66,74,180
2,67,71,172
2,66,76,174
2,64,69,174
2,62,69,170
2,66,74,184
2,61,70,376
2,62,67,164
2,55,65,8
2,69,60,186
2,58,46,2
2,64,64,2
3,66,76,13102
3,67,66,4
3,66,59,192
3,65,70,188
3,66,64,170
3,67,64,4
3,68,76,768
3,69,69,162
3,71,71,202
3,73,79,192
3,74,65,174
3,76,61,184
3,74,61,180
3,73,64,178
3,71,59,182
3,69,49,2
3,62,71,364
3,64,72,192
3,66,58,172
3,66,64,40
3,66,59,38
3,71,66,192
3,69,65,382
3,62,58,176
3,62,67,28
3,62,55,34
3,69,59,192
3,67,67,374
3,66,67,174
3,67,61,756
3,66,67,186
3,64,67,178
3,62,64,186
3,64,67,180
3,66,76,750
3,67,66,4
3,66,59,192
3,65,70,188
3,66,64,170
3,67,64,4
3,68,76,768
3,69,69,162
3,71,71,202
3,73,79,192
3,74,65,174
3,76,61,184
3,74,61,180
3,73,64,178
3,71,59,182
3,69,49,2
3,62,67,364
3,64,65,192
3,66,65,170
3,66,61,28
3,66,56,40
3,71,61,192
3,69,63,10
3,74,60,192
3,62,67,494
3,64,64,192
3,66,59,188
3,66,66,24
3,71,58,14
3,62,59,192
3,62,66,30
3,61,60,0
3,62,63,192
3,62,66,27606
3,64,67,208
3,66,61,184
3,66,67,38
3,71,72,550
3,62,53,398
3,62,55,124
3,61,48,376
3,62,50,790
4,57,70,25368
4,58,70,374
4,59,61,376
4,64,69,1134
4,62,61,162
4,60,71,172
4,61,67,188
4,62,61,526
4,69,54,1552
4,57,74,6250
4,58,72,372
4,59,82,364
4,58,76,378
4,57,61,354
4,69,70,4
4,58,51,382
4,70,65,0
4,59,59,344
4,71,56,2
4,58,49,376
4,70,44,4
4,69,25,28
4,54,46,8
4,62,37,0
4,59,58,232
4,71,71,4
4,64,58,196
4,76,59,6
4,74,67,146
4,62,64,10
4,73,54,158
4,61,56,2
4,71,56,126
4,78,56,0
4,68,38,2
4,56,39,2
4,76,59,378
4,55,39,6
4,67,46,4
4,54,44,24
4,69,56,4
4,76,60,0
4,66,36,2
4,74,60,0
4,43,70,6
4,69,55,186
4,58,38,4
4,64,59,0
4,74,69,206
4,67,63,20
4,76,54,4
4,66,54,16
4,78,50,4
4,57,44,2
4,50,51,6
4,64,56,356
4,49,56,8
4,78,64,0
4,48,54,8
4,83,39,210
4,81,58,334
4,47,36,4
4,62,50,2
4,69,58,4
4,74,55,0
4,67,54,10
4,43,36,2
4,58,30,0
4,81,59,210
4,79,61,346
4,50,49,20
4,57,64,2
4,78,53,4
4,62,72,184
4,49,55,2
4,64,67,164
4,47,25,6
4,66,58,156
4,62,36,164
4,79,55,10
4,67,60,2
4,52,43,2
4,59,54,2
4,78,53,148
4,66,55,8
4,76,55,182
4,64,58,6
4,74,45,164
4,62,63,4
4,76,49,166
4,64,58,12
4,45,38,0
4,62,51,40
4,69,12,0
4,57,45,4
4,74,55,134
4,78,54,2
4,79,50,762
4,76,59,6
4,74,55,182
4,78,44,2
4,73,44,164
4,77,58,2
4,78,48,188
4,74,51,10
4,79,46,166
4,76,40,2
4,80,49,100
4,77,44,2
4,76,37,164
4,81,48,0
4,83,63,306
4,85,40,174
4,86,58,154
4,88,58,188
4,86,58,186
4,85,45,172
4,83,54,172
4,81,41,166
4,86,74,204
4,88,67,186
4,90,70,170
4,66,85,8
4,57,79,2
4,50,102,6
4,64,82,356
4,49,87,2
4,48,87,2
4,95,61,210
4,93,66,348
4,47,67,8
4,98,64,6
4,62,79,4
4,69,74,2
4,67,51,382
4,58,59,358
4,43,63,0
4,86,76,4
4,88,71,180
4,90,70,172
4,57,64,2
4,64,65,2
4,66,55,2
4,50,66,2
4,49,74,178
4,47,65,160
4,62,71,2
4,95,59,16
4,67,64,12
4,52,59,2
4,59,67,2
4,86,65,184
4,45,65,184
4,57,59,128
4,85,65,0
4,64,55,26
4,61,69,6
4,86,56,4
4,62,67,12
4,50,58,2
4,66,69,2
4,43,66,12
4,58,49,2
4,38,60,400
4,45,82,2
4,66,58,0
4,64,66,2
4,57,64,2
4,86,64,16
4,62,70,200
4,50,69,6
4,85,70,6
4,50,90,0
4,47,59,16
4,64,66,6
4,59,48,2
4,66,56,0
4,57,54,2
4,52,72,2
4,83,71,6
4,51,51,46
4,66,60,4
4,63,59,2
4,59,46,2
4,57,51,2
4,81,67,26
4,51,85,2
4,82,49,26
4,52,51,18
4,59,49,6
4,67,58,0
4,62,67,2
4,83,61,22
4,52,66,2
4,81,45,420
4,55,29,102
4,52,46,2
4,59,48,2
4,61,46,2
4,64,51,2
4,45,53,4
4,81,41,44
4,45,59,2
4,79,53,402
4,74,27,580
4,81,35,2
4,57,58,38
4,50,46,4
4,38,51,4
4,86,14,3010
4,93,26,2
5,57,58,11568
5,58,70,384
5,59,60,354
5,58,48,376
5,57,49,14
5,59,59,1488
5,50,50,3884
5,57,56,0
5,64,63,0
5,66,51,0
5,62,55,192
5,49,49,182
5,64,59,0
5,48,51,220
5,60,56,0
5,47,49,62
5,59,49,0
5,62,59,0
5,69,61,0
5,67,58,12
5,46,29,44
5,58,58,0
5,50,46,26
5,57,54,0
5,64,64,0
5,66,56,0
5,62,58,32
5,47,58,106
5,52,43,4
5,59,53,0
5,67,56,0
5,66,50,24
5,64,49,4
5,62,58,152
5,62,60,8
5,64,69,0
5,45,56,768
5,57,48,0
5,69,46,0
5,57,49,38
5,59,59,1488
5,50,50,3884
5,57,56,0
5,64,63,0
5,66,51,0
5,62,55,192
5,49,49,182
5,64,59,0
5,48,51,220
5,60,56,0
5,47,49,62
5,59,49,0
5,62,59,0
5,69,61,0
5,67,58,12
5,46,29,44
5,58,58,0
5,50,46,26
5,57,54,0
5,64,64,0
5,66,56,0
5,62,58,32
5,47,58,106
5,52,46,2
5,59,40,0
5,62,54,0
5,67,58,0
5,52,55,32
5,59,53,0
5,62,58,0
5,67,56,0
5,47,61,48
5,64,31,0
5,45,49,20
5,57,30,0
5,61,56,0
5,50,36,44
5,54,29,0
5,57,65,0
5,61,37,0
5,62,28,32
5,62,49,86
5,45,46,14
5,57,45,0
5,62,36,0
5,64,36,0
5,57,58,1726
5,58,70,384
5,59,60,354
5,58,48,376
5,57,49,14
5,59,59,1488
5,50,50,3884
5,57,56,0
5,64,63,0
5,66,51,0
5,62,55,192
5,49,49,182
5,64,59,0
5,48,51,220
5,60,56,0
5,47,49,62
5,59,49,0
5,62,59,0
5,69,61,0
5,67,58,12
5,46,29,44
5,58,58,0
5,50,46,26
5,57,54,0
5,64,64,0
5,66,56,0
5,62,58,32
5,47,58,106
5,52,43,4
5,59,53,0
5,67,56,0
5,66,50,24
5,64,49,4
5,62,58,152
5,62,60,8
5,64,69,0
5,45,56,768
5,57,48,0
5,69,46,0
5,57,49,38
5,59,59,1488
5,50,50,3884
5,57,56,0
5,64,63,0
5,66,51,0
5,62,55,192
5,49,49,182
5,64,59,0
5,48,51,220
5,60,56,0
5,47,49,62
5,59,49,0
5,62,59,0
5,69,61,0
5,67,58,12
5,46,29,44
5,58,58,0
5,50,46,26
5,57,54,0
5,64,64,0
5,66,56,0
5,62,58,32
5,47,58,106
5,52,46,2
5,59,40,0
5,62,54,0
5,67,58,0
5,52,55,32
5,59,53,0
5,62,58,0
5,67,56,0
5,47,61,48
5,64,31,0
5,45,49,20
5,57,30,0
5,61,56,0
5,50,36,44
5,54,29,0
5,57,65,0
5,61,37,0
5,62,49,88
6,69,36,37658
6,81,49,0
6,70,43,2
6,82,46,0
6,71,55,2
6,83,53,0
6,70,48,16
6,82,44,0
6,69,45,2
6,81,56,0
6,70,44,2
6,82,60,0
6,71,50,2
6,83,55,0
6,70,49,2
6,82,60,0
6,62,53,314
6,69,55,6
6,74,50,20
6,78,54,28
6,71,49,18
6,74,56,2
6,79,58,2
6,74,58,10
6,69,43,2
6,78,48,0
6,73,53,100
6,77,58,0
6,69,39,2
6,78,51,80
6,74,61,2
6,74,53,86
6,71,46,2
6,64,58,2
6,79,50,0
6,72,54,64
6,75,60,24
6,80,59,22
6,73,31,90
6,76,58,0
6,81,56,2
6,62,48,140
6,71,50,36
6,74,45,16
6,78,31,16
6,83,48,14
6,85,59,4
6,86,49,58
6,88,60,70
6,86,56,68
6,85,49,56
6,88,55,36
6,81,50,12
6,64,48,818
6,69,39,100
6,74,58,194
6,76,56,12
6,62,40,134
6,78,45,0
6,69,50,4
6,78,58,96
6,69,46,4
6,69,19,20
6,78,43,152
6,69,46,4
6,83,59,142
6,74,39,4
6,81,51,246
6,55,44,116
6,74,55,4
6,62,44,146
6,74,49,132
6,71,55,2
6,62,31,36
6,74,61,92
6,70,46,2
6,81,53,88
6,74,46,2
6,70,22,4
6,79,53,236
6,69,41,164
6,78,45,0
6,62,35,4
6,78,43,52
6,59,39,4
6,69,29,2
6,74,49,2
6,64,45,2
6,71,50,6
6,79,58,4
6,69,56,40
6,78,44,0
6,76,49,124
6,67,33,4
6,74,58,46
6,67,21,2
6,76,58,148
6,69,46,360
6,57,40,16
6,74,49,0
6,81,30,100
6,88,51,182
6,93,30,176
6,62,58,38
6,69,59,16
6,74,49,4
6,78,64,20
6,71,38,8
6,79,60,0
6,74,58,2
6,78,41,60
6,74,58,2
6,69,40,2
6,73,53,98
6,77,50,2
6,69,45,2
6,69,43,44
6,74,59,2
6,78,46,0
6,64,55,0
6,74,48,4
6,71,49,2
6,79,61,0
6,72,46,4
6,75,61,24
6,80,55,16
6,76,56,144
6,81,58,0
6,73,49,2
6,59,43,32
6,71,35,102
6,74,56,2
6,78,55,4
6,83,63,2
6,85,66,138
6,86,60,136
6,88,63,132
6,86,61,96
6,85,54,156
6,83,58,70
6,81,56,158
6,66,35,2
6,74,49,2
6,74,48,96
6,57,53,2
6,74,66,314
6,76,58,24
6,78,53,112
6,62,46,4
6,74,49,0
6,69,45,122
6,61,45,128
6,78,53,2
6,59,59,8
6,78,55,4
6,83,58,38
6,81,46,8
6,79,39,120
6,55,27,8
6,86,64,8
6,62,36,58
6,71,50,170
6,79,30,26
6,70,38,86
6,74,58,358
6,76,48,44
6,78,46,16
6,62,38,4
6,69,43,0
6,61,39,74
6,59,48,114
6,78,45,4
6,69,44,4
6,83,56,70
6,74,59,14
6,74,63,12
6,73,45,4
6,62,34,168
6,66,29,2
6,69,40,6
6,74,43,4
6,74,15,0
6,81,21,92
6,82,26,358
6,83,36,340
6,82,28,328
6,81,36,364
6,69,26,402
6,62,35,758
6,74,34,56
6,69,26,16
6,76,39,26
6,81,51,62
7,50,63,10016
7,57,65,96
7,66,65,54
7,50,39,6
7,57,38,0
7,58,46,36
7,64,66,0
7,50,43,2
7,71,66,96
7,50,48,74
7,59,59,46
7,69,51,0
7,50,39,80
7,66,60,60
7,50,39,4
7,58,50,60
7,67,61,0
7,66,63,62
7,64,58,50
7,50,59,26
7,57,55,96
7,66,67,6
7,50,48,12
7,58,50,28
7,64,56,0
7,50,45,96
7,71,60,42
7,50,45,20
7,59,59,60
7,69,58,0
7,50,36,24
7,66,46,66
7,50,48,24
7,58,58,56
7,67,61,0
7,66,48,58
7,64,49,52
7,50,61,6
7,57,54,14
7,62,61,34
7,50,39,12
7,64,54,50
7,50,41,30
7,66,55,58
7,50,63,136
7,57,45,96
7,62,66,48
7,50,40,2
7,64,59,52
7,50,39,96
7,66,49,46
7,50,55,20
7,59,55,60
7,64,64,32
7,50,46,4
7,66,56,46
7,50,37,96
7,67,58,50
7,45,59,10
7,52,55,96
7,69,58,56
7,57,38,8
7,52,23,24
7,57,13,0
7,44,54,160
7,54,46,0
7,58,54,0
7,60,61,0
7,44,41,2
7,56,49,22
7,59,58,16
7,66,59,10
7,44,39,6
7,59,55,144
7,64,60,2
7,44,36,18
7,56,27,2
7,43,45,122
7,55,51,4
7,59,48,12
7,66,48,28
7,43,49,32
7,55,36,62
7,64,55,92
7,59,46,2
7,43,30,150
7,64,55,6
7,54,29,2
7,42,31,2
7,57,49,0
7,42,35,84
7,54,28,142
7,57,36,2
7,62,51,0
7,42,30,176
7,43,54,88
7,69,39,166
7,58,22,2
7,62,43,0
7,64,49,4
7,58,21,44
7,69,48,2
7,62,48,8
7,64,49,2
7,58,23,82
7,62,41,2
7,67,49,2
7,38,48,14
7,57,56,0
7,66,51,0
7,50,61,56
7,57,66,54
7,57,14,8
7,49,48,22
7,57,55,0
7,64,64,0
7,49,60,14
7,57,49,64
7,69,58,0
7,49,29,34
7,48,53,14
7,57,44,0
7,64,58,0
7,48,54,34
7,57,55,40
7,64,38,24
7,48,29,36
7,69,36,90
7,48,43,80
7,57,37,0
7,47,58,142
7,62,48,0
7,69,64,0
7,47,51,12
7,59,50,12
7,47,38,24
7,62,59,22
7,67,59,0
7,47,46,192
7,46,30,30
7,58,54,0
7,62,59,0
7,46,45,26
7,58,33,74
7,62,56,0
7,69,56,0
7,46,28,4
7,58,31,80
7,58,37,8
7,62,55,0
7,67,63,0
7,46,27,32
7,50,44,20
7,57,49,0
7,66,53,0
7,49,58,32
7,57,7,0
7,47,59,22
7,57,45,0
7,62,46,0
7,66,50,0
7,55,58,34
7,59,50,0
7,67,59,0
7,54,45,16
7,57,56,0
7,66,48,0
7,52,50,4
7,57,41,0
7,64,60,0
7,47,55,4
7,57,44,0
7,62,60,0
7,40,60,88
7,57,46,0
7,64,60,0
7,52,48,114
7,62,61,158
7,71,60,8
7,45,48,6
7,61,49,0
7,69,58,0
7,59,48,122
7,67,54,0
7,57,46,116
7,66,49,0
7,55,45,100
7,64,59,0
7,50,61,42
7,57,54,14
7,62,61,34
7,50,39,12
7,64,54,50
7,50,41,30
7,66,55,58
7,50,63,136
7,57,45,96
7,62,66,48
7,50,40,2
7,64,59,52
7,50,39,96
7,66,49,46
7,50,55,20
7,59,55,60
7,64,64,32
7,50,46,4
7,66,56,46
7,50,37,96
7,67,58,50
7,45,59,10
7,52,55,96
7,69,58,56
7,57,38,8
7,52,23,24
7,57,13,0
7,44,54,160
7,54,46,0
7,58,54,0
7,60,61,0
7,44,41,2
7,56,49,22
7,59,58,16
7,66,59,10
7,44,39,6
7,59,55,144
7,64,60,2
7,44,36,18
7,56,27,2
7,43,45,122
7,55,51,4
7,59,48,12
7,66,48,28
7,43,49,32
7,55,36,62
7,64,55,92
7,59,46,2
7,43,30,150
7,64,55,6
7,54,29,2
7,42,31,2
7,57,49,0
7,42,35,84
7,54,28,142
7,57,36,2
7,62,51,0
7,42,30,176
7,43,54,88
7,69,39,166
7,58,22,2
7,62,43,0
7,64,49,4
7,58,21,44
7,69,48,2
7,62,48,8
7,64,49,2
7,58,23,82
7,62,41,2
7,67,49,2
