track,note,velocity,time
0,51,15,4
0,51,17,6
0,51,15,6
0,51,15,6
0,51,15,7
0,51,16,6
0,51,36,6
0,51,30,6
0,51,15,7
0,51,24,6
0,51,52,6
0,51,15,6
0,51,48,6
0,51,34,6
0,51,43,6
0,51,64,6
0,51,64,0
0,51,67,4
0,44,69,72
0,56,69,45
0,51,69,0
0,73,12,90
0,51,14,18
0,51,18,17
0,51,18,0
0,51,10,4
0,51,10,5
0,51,14,4
0,51,6,18
0,51,10,17
0,51,10,18
0,51,6,6
0,77,84,6
0,51,22,0
0,51,2,7
0,51,14,6
0,51,6,17
0,51,14,18
0,51,54,153
0,51,62,40
0,78,80,0
0,75,68,30
0,51,14,90
0,51,14,40
0,51,18,40
0,51,18,17
0,51,22,17
0,51,30,17
0,51,18,17
0,51,22,17
0,51,18,6
0,51,30,6
0,51,34,6
0,51,34,29
0,54,21,67
0,63,64,63
0,68,84,45
0,70,108,31
0,51,2,20
0,73,84,10
0,72,84,26
0,51,22,37
0,51,58,40
0,51,10,1
0,68,68,6
0,51,10,33
0,69,88,11
0,70,88,15
0,51,10,49
0,51,14,18
0,51,10,51
0,66,72,18
0,51,2,11
0,51,6,12
0,51,26,29
0,63,76,40
0,51,34,0
0,51,38,23
0,66,88,8
0,51,46,0
0,51,54,40
0,67,92,17
0,68,84,15
0,73,12,11
0,51,6,4
0,51,10,7
0,51,26,4
0,51,18,6
0,51,22,3
0,51,38,7
0,54,19,0
0,51,18,1
0,51,38,8
0,51,34,6
0,51,46,1
0,51,58,12
0,51,38,0
0,51,50,8
0,54,19,102
0,68,88,85
0,51,22,0
0,51,38,40
0,75,100,40
0,51,58,0
0,51,26,49
0,51,26,17
0,51,18,17
0,51,18,17
0,73,12,6
0,51,18,0
0,51,26,6
0,77,60,6
0,51,14,11
0,51,18,4
0,51,34,7
0,78,100,28
0,51,14,1
0,51,26,30
0,51,38,40
0,82,112,39
0,81,64,1
0,51,46,0
0,51,10,15
0,51,34,6
0,73,12,5
0,51,58,1
0,51,22,17
0,51,2,6
0,51,30,18
0,80,96,6
0,73,12,109
0,51,18,40
0,51,54,40
0,51,26,40
0,51,22,29
0,73,12,6
0,51,26,6
0,51,22,18
0,73,12,6
0,51,14,6
0,51,18,18
0,73,12,6
0,51,22,6
0,51,22,17
0,73,12,6
0,51,14,0
0,51,38,40
0,73,12,0
0,51,26,39
0,84,112,10
0,85,120,1
0,84,92,15
0,51,2,12
0,80,108,6
0,51,14,0
0,75,100,22
0,73,12,56
0,51,18,85
0,51,18,40
0,73,84,20
0,51,10,9
0,72,80,2
0,51,50,31
0,73,100,3
0,51,38,39
0,51,10,29
0,51,38,6
0,51,10,6
0,51,22,40
0,51,22,18
0,51,22,17
0,66,64,29
0,51,10,0
0,51,38,6
0,51,22,23
0,51,10,40
0,51,42,40
0,67,56,58
0,68,48,4
0,51,10,71
0,73,12,0
0,51,10,8
0,51,10,8
0,51,10,6
0,51,10,17
0,51,38,6
0,51,2,6
0,51,10,17
0,51,34,7
0,51,6,6
0,51,22,17
0,51,26,7
0,51,86,15
0,73,12,1
0,73,12,5
0,73,12,40
0,73,12,40
0,73,12,40
0,73,12,40
0,51,46,40
0,60,71,40
0,73,12,0
0,51,34,85
0,51,10,40
0,51,10,40
0,73,12,40
0,51,10,0
0,51,14,39
0,51,10,6
0,51,14,17
0,51,14,6
0,51,10,17
0,73,12,17
0,51,26,1
0,51,22,17
0,51,58,17
0,58,69,266
0,61,69,45
0,51,10,0
0,51,6,27
0,51,22,40
0,51,10,40
0,51,6,40
0,51,18,29
0,51,10,6
0,51,26,6
0,51,18,18
0,51,18,6
0,51,10,6
0,51,18,18
0,51,10,6
0,51,18,6
0,51,46,18
0,51,38,6
0,51,18,265
0,51,18,40
0,65,71,40
0,73,12,0
0,51,42,0
0,51,2,17
0,51,34,17
0,51,14,17
0,51,18,29
0,51,2,17
0,51,6,7
0,51,14,17
0,51,14,18
0,51,10,17
0,51,18,63
0,51,10,17
0,51,18,18
0,51,26,17
0,54,75,0
0,59,79,0
0,63,75,0
0,51,42,0
0,51,18,40
0,51,70,40
0,61,83,0
0,53,91,0
0,58,87,0
0,73,12,0
0,73,12,40
0,51,14,74
0,51,10,6
0,51,10,5
0,51,26,17
0,60,74,0
0,56,75,1
0,51,10,0
0,51,14,7
0,51,6,28
0,63,60,18
0,73,12,22
0,68,80,14
0,51,14,7
0,70,108,6
0,73,12,23
0,51,18,0
0,73,96,6
0,72,88,30
0,73,12,0
0,51,18,0
0,73,12,34
0,51,42,0
0,51,6,28
0,51,58,6
0,73,12,0
0,51,14,28
0,68,64,6
0,51,18,7
0,51,22,18
0,73,12,6
0,69,100,6
0,51,14,0
0,70,92,8
0,51,14,0
0,51,10,6
0,73,12,0
0,51,6,29
0,73,12,6
0,51,10,40
0,66,44,36
0,51,10,4
0,73,12,0
0,51,14,40
0,51,18,40
0,63,68,25
0,51,26,8
0,51,70,40
0,66,72,18
0,51,10,0
0,67,100,48
0,51,10,3
0,68,84,4
0,51,10,11
0,51,10,15
0,51,10,18
0,51,10,17
0,127,2,1
0,51,6,3
0,51,18,4
0,51,10,3
0,51,6,7
0,51,10,6
0,51,6,8
0,51,2,6
0,51,6,7
0,51,14,5
0,73,12,0
0,51,18,1
0,51,34,12
0,51,78,34
0,60,46,40
0,60,34,40
0,60,70,40
0,62,83,0
0,51,10,26
0,51,2,40
0,51,14,40
0,51,14,40
0,51,2,40
0,51,18,0
0,51,18,4
0,20,94,0
0,36,94,1
0,51,54,0
0,60,58,0
0,63,86,0
0,32,111,15
0,75,122,0
0,60,54,1
0,42,122,26
0,27,106,39
0,36,70,1
0,60,62,0
0,30,98,9
0,36,94,0
0,54,87,0
0,61,59,0
0,27,82,1
0,60,50,0
0,30,102,4
0,60,72,0
0,42,122,0
0,62,98,0
0,60,72,17
0,32,102,18
0,60,72,0
0,61,55,0
0,60,72,17
0,20,111,5
0,63,74,0
0,36,94,0
0,54,87,0
0,32,111,16
0,60,58,0
0,75,122,0
0,54,87,27
0,42,102,0
0,32,111,40
0,60,58,0
0,36,94,0
0,30,106,0
0,54,75,0
0,61,67,1
0,36,94,0
0,27,106,4
0,60,70,0
0,42,118,0
0,54,87,0
0,60,72,40
0,20,111,40
0,36,94,0
0,54,63,0
0,63,86,1
0,60,72,0
0,32,111,12
0,75,122,0
0,60,72,0
0,54,59,15
0,42,118,0
0,27,106,39
0,36,94,0
0,60,54,1
0,30,106,3
0,51,10,1
0,36,94,0
0,61,63,0
0,54,63,0
0,27,90,8
0,60,72,1
0,30,98,39
0,60,72,1
0,42,98,0
0,54,87,0
0,62,98,0
0,51,18,0
0,60,72,16
0,32,102,18
0,60,72,0
0,62,107,0
0,61,63,0
0,60,72,17
0,20,102,9
0,36,94,0
0,54,63,0
0,63,78,0
0,32,111,11
0,51,50,1
0,75,122,0
0,60,46,0
0,42,78,23
0,54,83,0
0,32,111,40
0,60,38,0
0,36,94,0
0,30,111,0
0,54,87,0
0,61,63,0
0,36,94,0
0,62,107,40
0,27,102,9
0,62,107,0
0,42,78,0
0,60,72,0
0,54,87,0
0,62,107,40
0,60,72,0
0,51,42,0
0,20,111,8
0,63,82,0
0,36,94,0
0,60,72,0
0,54,87,1
0,32,111,5
0,60,50,0
0,75,122,0
0,51,22,0
0,42,74,19
0,54,83,0
0,51,22,0
0,27,111,39
0,51,42,0
0,60,46,0
0,36,94,1
0,30,111,7
0,61,51,0
0,36,94,1
0,54,67,0
0,51,14,0
0,27,90,12
0,60,72,0
0,30,106,40
0,60,72,0
0,54,87,1
0,62,98,0
0,42,78,0
0,60,72,16
0,32,102,17
0,60,72,1
0,62,106,0
0,61,51,0
0,60,72,17
0,20,106,1
0,54,87,0
0,36,94,0
0,63,74,0
0,32,111,12
0,60,50,0
0,75,122,1
0,54,87,23
0,42,74,1
0,32,111,39
0,60,46,1
0,36,94,0
0,30,111,40
0,54,87,0
0,61,43,0
0,36,94,0
0,60,62,40
0,51,18,0
0,62,107,0
0,27,106,13
0,62,107,0
0,51,62,0
0,60,72,0
0,42,78,0
0,54,87,0
0,62,107,40
0,60,72,0
0,51,22,0
0,20,111,0
0,51,26,0
0,36,94,0
0,63,86,0
0,60,72,1
0,54,87,0
0,32,111,5
0,51,34,0
0,60,66,0
0,75,122,0
0,42,66,24
0,54,87,0
0,51,38,0
0,27,102,40
0,60,66,0
0,36,94,0
0,51,34,0
0,30,102,8
0,54,87,0
0,61,79,0
0,36,94,1
0,27,90,40
0,60,72,0
0,30,94,40
0,60,72,0
0,54,87,0
0,62,106,0
0,42,62,1
0,60,72,15
0,32,102,0
0,60,72,1
0,62,98,0
0,61,67,0
0,60,72,17
0,20,111,0
0,60,72,0
0,54,87,0
0,63,98,0
0,36,94,1
0,32,111,8
0,60,72,0
0,75,122,0
0,54,87,23
0,42,74,0
0,51,26,1
0,32,111,39
0,51,18,0
0,36,94,1
0,60,58,0
0,30,111,0
0,51,30,1
0,54,87,0
0,61,71,0
0,36,94,0
0,62,107,39
0,51,26,1
0,60,46,0
0,27,111,4
0,62,107,1
0,51,38,0
0,60,72,0
0,54,87,0
0,42,70,0
0,62,107,5
0,60,72,0
0,51,34,0
0,60,71,13
0,51,83,0
0,56,74,0
0,56,108,0
0,51,108,0
0,60,108,0
0,20,111,0
0,36,94,1
0,54,87,0
0,63,122,0
0,60,72,0
0,51,22,0
0,32,111,4
0,75,122,1
0,60,70,0
0,54,87,19
0,42,74,0
0,27,111,40
0,36,94,0
0,60,72,0
0,30,111,4
0,36,94,0
0,54,87,0
0,61,87,0
0,27,106,40
0,60,72,0
0,30,111,38
0,60,72,0
0,54,87,0
0,62,107,0
0,42,70,0
0,60,72,16
0,32,111,4
0,60,72,0
0,62,82,0
0,61,71,0
0,60,72,17
0,20,111,9
0,54,87,0
0,36,94,0
0,62,98,0
0,63,98,1
0,32,111,8
0,51,22,0
0,62,107,0
0,60,70,0
0,75,122,1
0,51,26,23
0,54,87,0
0,42,78,0
0,32,111,39
0,51,26,0
0,60,70,0
0,36,94,1
0,30,111,39
0,51,42,0
0,54,87,1
0,61,71,0
0,36,94,0
0,62,107,39
0,51,26,0
0,27,106,0
0,62,107,0
0,42,70,1
0,54,75,0
0,60,70,0
0,62,107,39
0,60,72,1
0,58,75,4
0,58,108,1
0,61,108,0
0,53,108,0
0,20,111,0
0,54,87,0
0,63,122,0
0,36,94,0
0,60,72,1
0,61,73,4
0,32,111,0
0,60,70,1
0,75,102,0
0,54,75,15
0,42,62,1
0,27,111,39
0,60,62,1
0,36,94,0
0,30,111,40
0,61,63,0
0,36,94,0
0,54,83,0
0,27,106,6
0,60,72,0
0,51,18,0
0,30,102,40
0,60,72,0
0,51,18,0
0,42,82,0
0,54,75,0
0,62,107,0
0,60,72,17
0,32,106,0
0,60,72,0
0,51,6,0
0,62,90,0
0,61,71,1
0,60,72,17
0,20,111,8
0,51,30,0
0,62,106,0
0,54,87,0
0,60,72,0
0,36,94,0
0,32,111,13
0,51,34,0
0,62,107,0
0,75,98,0
0,42,66,23
0,54,75,0
0,32,111,40
0,60,62,0
0,36,94,0
0,30,111,40
0,36,94,0
0,61,75,0
0,54,83,1
0,62,107,38
0,60,66,0
0,27,111,5
0,62,107,0
0,60,72,0
0,54,87,0
0,42,70,1
0,62,107,0
0,60,72,0
0,65,71,0
0,56,108,0
0,61,108,0
0,53,108,1
0,20,111,0
0,36,94,0
0,54,87,0
0,60,72,0
0,63,110,0
0,32,111,4
0,75,122,0
0,60,72,0
0,51,18,23
0,54,87,0
0,42,62,1
0,27,106,39
0,60,70,0
0,36,94,1
0,30,106,1
0,51,38,0
0,54,83,0
0,61,71,0
0,36,94,0
0,60,72,17
0,27,86,4
0,51,34,1
0,60,62,0
0,60,72,17
0,30,102,17
0,54,75,1
0,51,38,0
0,42,74,0
0,62,102,0
0,60,72,12
0,51,108,18
0,59,108,0
0,54,108,0
0,32,102,0
0,61,63,0
0,62,106,0
0,51,34,0
0,60,72,1
0,60,72,17
0,54,71,0
0,59,71,0
0,63,71,0
0,20,111,0
0,51,10,0
0,54,87,1
0,62,107,0
0,36,94,0
0,63,82,0
0,32,111,13
0,62,107,0
0,60,66,0
0,75,122,0
0,54,87,23
0,42,66,0
0,32,111,40
0,36,94,0
0,60,58,0
0,61,83,1
0,58,75,0
0,53,108,0
0,49,108,0
0,58,108,0
0,30,111,0
0,54,87,1
0,36,94,0
0,61,55,0
0,62,107,40
0,27,102,5
0,62,107,0
0,54,87,0
0,42,70,0
0,60,72,0
0,62,107,40
0,60,72,0
0,60,75,0
0,56,88,0
0,51,108,0
0,48,108,0
0,56,108,1
0,20,106,0
0,54,87,0
0,36,94,0
0,60,72,0
0,63,102,0
0,32,111,5
0,60,72,0
0,75,122,0
0,51,14,22
0,54,83,0
0,42,74,0
0,27,102,39
0,51,22,0
0,60,58,0
0,36,90,1
0,30,111,39
0,61,59,0
0,36,94,1
0,54,87,0
0,51,34,0
0,27,94,0
0,60,72,0
0,51,42,1
0,30,102,39
0,60,72,0
0,51,58,1
0,54,83,0
0,62,98,0
0,42,70,0
0,60,72,16
0,32,106,1
0,60,72,0
0,62,106,0
0,61,63,0
0,60,72,17
0,20,111,4
0,54,87,1
0,36,94,0
0,62,94,0
0,63,82,0
0,32,111,11
0,60,58,0
0,75,122,1
0,62,102,0
0,54,87,23
0,42,62,1
0,32,111,39
0,60,58,1
0,36,94,0
0,30,111,40
0,54,87,0
0,61,63,0
0,36,94,0
0,62,107,40
0,27,111,8
0,62,107,0
0,60,72,0
0,42,74,0
0,54,87,0
0,60,72,35
0,62,107,0
0,56,108,40
0,60,108,0
0,51,108,0
0,20,111,0
0,54,87,0
0,36,94,1
0,63,94,0
0,60,72,0
0,32,111,39
0,60,58,0
0,75,122,0
0,73,12,19
0,54,87,0
0,42,70,0
0,27,106,40
0,60,62,0
0,36,94,0
0,30,111,0
0,54,83,0
0,61,63,1
0,36,94,0
0,27,102,1
0,60,72,0
0,30,106,40
0,60,72,0
0,42,70,0
0,54,83,0
0,62,102,1
0,60,72,16
0,32,102,17
0,60,72,0
0,61,67,1
0,62,102,0
0,60,72,17
0,20,102,8
0,62,107,0
0,54,83,0
0,63,86,1
0,36,94,0
0,32,111,4
0,60,66,0
0,75,122,0
0,54,87,20
0,42,62,1
0,32,111,39
0,60,70,0
0,51,22,1
0,36,94,0
0,30,111,39
0,51,50,1
0,54,87,0
0,61,71,0
0,36,94,0
0,51,38,39
0,62,107,1
0,27,106,8
0,62,106,1
0,60,72,0
0,51,30,0
0,54,87,0
0,42,70,0
0,62,106,40
0,60,72,0
0,51,30,0
0,58,75,1
0,61,69,0
0,53,108,0
0,58,108,0
0,61,108,0
0,20,111,0
0,51,26,0
0,36,94,1
0,54,87,0
0,60,72,0
0,63,110,0
0,32,111,16
0,75,122,0
0,60,58,0
0,42,58,20
0,54,75,0
0,27,111,40
0,60,54,0
0,36,94,0
0,30,111,1
0,54,83,0
0,61,63,0
0,36,94,0
0,27,90,0
0,60,72,0
0,30,102,40
0,60,72,0
0,42,70,0
0,62,94,0
0,54,87,0
0,60,72,17
0,32,102,1
0,60,72,0
0,62,90,0
0,61,63,0
0,60,72,17
0,20,111,0
0,54,87,0
0,62,94,0
0,63,86,1
0,36,94,0
0,32,111,12
0,51,18,0
0,62,107,0
0,60,58,0
0,75,122,1
0,51,14,19
0,54,87,0
0,42,66,0
0,32,111,39
0,51,58,0
0,36,94,0
0,60,62,1
0,30,111,39
0,54,87,0
0,61,67,1
0,36,94,0
0,62,107,38
0,60,72,0
0,27,111,0
0,62,106,0
0,60,72,1
0,42,62,0
0,54,87,0
0,62,107,0
0,60,72,1
0,65,71,0
0,56,108,1
0,61,108,0
0,53,108,0
0,20,111,0
0,36,94,0
0,54,87,0
0,63,82,0
0,60,72,1
0,32,111,12
0,75,122,1
0,60,58,0
0,54,75,18
0,42,46,1
