track,note,velocity,time
3,47,122,325
3,52,111,240
3,50,113,445
3,49,113,465
3,40,113,5
3,38,122,9630
3,38,113,105
3,33,111,60
3,33,106,120
3,35,113,480
3,35,106,90
3,37,111,480
3,44,105,955
3,37,109,45
3,37,102,90
3,35,113,480
3,33,113,25
3,32,116,50
3,30,113,60
3,28,110,40
3,47,108,360
3,52,103,240
3,50,111,470
3,49,111,470
3,40,110,10
3,30,92,9665
3,42,91,0
3,45,120,240
3,44,100,240
3,45,108,210
3,49,91,145
3,50,90,210
3,49,91,220
3,30,100,2120
3,42,97,0
3,57,96,240
3,56,94,0
3,57,88,240
3,61,88,205
3,62,81,190
3,61,90,200
3,47,97,11520
3,40,99,10
3,42,102,480
3,44,98,455
3,40,104,25
3,35,103,5
3,47,122,19695
3,52,111,240
3,50,113,445
3,49,113,465
3,40,113,5
3,38,122,9630
3,38,113,105
3,33,111,60
3,33,106,120
3,35,113,480
3,35,106,90
3,37,111,480
3,44,105,955
3,37,109,45
3,37,102,90
3,35,113,480
3,33,113,25
3,32,116,50
3,30,113,60
3,28,110,40
3,47,108,360
3,52,103,240
3,50,111,470
3,49,111,470
3,40,110,10
3,42,91,9665
3,30,91,0
3,45,120,240
3,44,100,240
3,45,108,210
3,49,91,210
3,50,90,210
3,49,91,220
3,30,90,1890
3,42,94,0
3,42,94,2530
3,30,100,0
3,57,113,240
3,56,113,240
3,57,113,10
3,61,113,210
3,62,113,205
3,61,113,225
3,59,113,195
3,42,94,2035
3,30,98,0
3,42,86,2545
3,30,92,0
4,42,115,320
4,42,115,65
4,44,115,70
4,40,115,10
4,33,115,5
4,33,115,95
4,32,115,10
4,37,115,10
4,30,115,85
4,42,115,50
4,40,115,15
4,38,115,960
4,33,115,10
4,33,115,90
4,28,115,40
4,35,115,170
4,35,115,90
4,40,115,55
4,40,115,140
4,35,115,45
4,40,115,25
4,35,115,0
4,44,115,100
4,37,115,50
4,44,115,20
4,42,115,180
4,42,115,95
4,40,115,240
4,40,115,100
4,38,115,240
4,37,115,945
4,37,115,90
4,35,115,30
4,35,115,215
4,44,115,210
4,37,115,30
4,25,115,45
4,32,115,30
4,30,115,145
4,30,115,120
4,32,115,240
4,30,115,15
4,30,115,145
4,30,115,100
4,32,115,240
4,32,115,115
4,33,115,140
4,33,115,80
4,33,115,90
4,33,115,90
4,32,115,240
4,30,115,955
4,28,115,15
4,35,115,130
4,35,115,95
4,40,115,5
4,38,115,35
4,37,115,480
4,28,115,25
4,35,115,0
4,35,115,115
4,35,115,115
4,37,115,240
4,25,115,65
4,33,115,115
4,32,115,20
4,30,115,15
4,30,115,65
4,42,115,70
4,40,115,40
4,28,115,35
4,35,115,40
4,35,115,120
4,37,115,240
4,25,115,40
4,37,115,480
4,38,115,50
4,45,115,70
4,38,115,15
4,38,115,205
4,33,115,480
4,33,115,160
4,33,115,190
4,35,115,480
4,42,115,60
4,47,115,155
4,37,115,50
4,32,115,25
4,37,115,960
4,37,115,120
4,35,115,480
4,33,115,0
4,33,115,80
4,33,115,90
4,33,115,115
4,32,115,0
4,30,115,960
4,28,115,50
4,28,115,90
4,35,115,85
4,40,115,0
4,38,115,480
4,37,115,475
4,28,115,15
4,35,115,0
4,35,115,150
4,37,115,240
4,25,115,10
4,33,115,15
4,32,115,120
4,30,115,110
4,30,115,85
4,42,115,60
4,40,115,60
4,28,115,70
4,35,115,480
4,35,115,80
4,37,115,240
4,25,115,100
4,37,115,480
4,30,115,65
4,30,115,125
4,32,115,240
4,30,115,50
4,30,115,85
4,30,115,95
4,32,115,240
4,37,115,45
4,30,115,40
4,30,115,145
4,32,115,240
4,30,115,45
4,30,115,105
4,30,115,95
4,32,115,30
4,33,115,960
4,33,115,145
4,32,115,240
4,25,115,5
4,30,115,10
4,30,115,120
4,28,115,165
4,26,115,30
4,33,115,5
4,33,115,130
4,28,115,175
4,28,115,30
4,35,115,90
4,40,115,25
4,42,115,480
4,44,115,475
4,40,115,15
4,35,115,0
4,35,115,125
4,35,115,90
4,32,115,15
4,37,115,5
4,37,115,105
4,30,115,240
4,42,115,90
4,40,115,150
4,40,115,105
4,38,115,140
4,40,115,20
4,38,115,5
4,37,115,20
4,33,115,20
4,35,115,115
4,35,115,145
4,32,115,160
4,37,115,10
4,25,115,40
4,30,115,55
4,30,115,105
4,32,115,5
4,30,115,45
4,30,115,120
4,30,115,95
4,32,115,240
4,33,115,60
4,33,115,115
4,33,115,90
4,32,115,960
4,32,115,100
4,30,115,70
4,28,115,45
4,28,115,50
4,35,115,70
4,40,115,35
4,38,115,480
4,37,115,450
4,28,115,45
4,35,115,0
4,35,115,155
4,37,115,240
4,25,115,10
4,33,115,30
4,32,115,5
4,30,115,0
4,30,115,90
4,42,115,60
4,40,115,95
4,28,115,35
4,35,115,25
4,35,115,110
4,37,115,240
4,25,115,50
4,37,115,20
4,38,115,10
4,45,115,85
4,38,115,15
4,38,115,205
4,33,115,20
4,33,115,150
4,33,115,200
4,35,115,480
4,30,115,40
4,35,115,165
4,37,115,40
4,37,115,130
4,32,115,5
4,32,115,55
4,37,115,240
4,37,115,105
4,35,115,480
4,33,115,455
4,33,115,100
4,33,115,90
4,33,115,80
4,32,115,240
4,32,115,125
4,30,115,70
4,30,115,75
4,28,115,25
4,28,115,50
4,35,115,70
4,40,115,20
4,38,115,10
4,37,115,480
4,28,115,15
4,35,115,25
4,35,115,160
4,37,115,240
4,25,115,45
4,32,115,720
4,30,115,225
4,30,115,90
4,42,115,75
4,40,115,55
4,28,115,75
4,35,115,10
4,35,115,135
4,37,115,10
4,25,115,55
4,37,115,480
4,30,115,25
4,30,115,110
4,32,115,240
4,30,115,70
4,30,115,100
4,30,115,95
4,32,115,240
4,37,115,25
4,30,115,115
4,30,115,135
4,32,115,240
4,30,115,115
4,30,115,60
4,30,115,80
4,32,115,50
4,30,115,960
4,30,115,160
4,32,115,240
4,30,115,30
4,30,115,65
4,30,115,95
4,32,115,240
4,25,115,80
4,30,115,55
4,30,115,75
4,30,115,80
4,30,115,50
4,30,115,95
4,30,115,85
4,30,115,35
5,45,89,210
5,57,75,240
5,52,87,0
5,52,90,190
5,57,81,0
5,52,87,185
5,57,81,0
5,45,90,185
5,57,77,215
5,52,84,0
5,57,79,190
5,52,90,0
5,52,90,185
5,57,81,0
5,45,87,225
5,52,87,220
5,57,77,0
5,52,88,190
5,57,77,0
5,52,88,190
5,57,81,0
5,45,85,185
5,57,75,200
5,52,82,0
5,57,80,195
5,52,88,0
5,45,87,145
5,57,84,0
5,52,89,0
5,45,93,190
5,52,82,180
5,57,74,0
5,52,91,195
5,57,77,0
5,57,83,10
5,52,90,0
5,45,87,240
5,57,75,210
5,52,86,0
5,57,81,190
5,52,85,0
5,57,81,185
5,52,92,0
5,44,84,0
5,53,84,215
5,59,77,0
5,53,87,190
5,59,80,0
5,59,81,180
5,53,88,0
5,44,90,0
5,59,75,225
5,53,85,0
5,59,83,185
5,53,89,0
5,53,83,175
5,59,81,0
5,44,95,0
5,42,93,165
5,61,80,220
5,57,82,0
5,57,88,185
5,61,86,0
5,57,88,185
5,61,90,0
5,40,88,10
5,57,81,215
5,61,84,0
5,57,85,195
5,61,86,0
5,57,88,185
5,61,86,0
5,38,91,5
5,57,82,235
5,61,90,0
5,57,82,190
5,61,88,0
5,57,85,185
5,61,87,0
5,45,89,10
5,57,77,235
5,52,85,0
5,52,85,190
5,57,77,0
5,52,88,190
5,57,82,0
5,40,93,35
5,59,77,235
5,52,80,0
5,59,75,190
5,52,86,0
5,52,88,185
5,59,81,0
5,40,83,0
5,59,77,220
5,52,87,0
5,59,73,185
5,52,82,0
5,59,80,185
5,52,85,0
5,40,92,150
5,59,71,210
5,52,84,0
5,59,77,185
5,52,85,0
5,59,81,185
5,52,87,0
5,40,87,160
5,59,78,210
5,52,84,0
5,59,85,190
5,52,91,0
5,52,91,155
5,59,87,0
5,40,91,0
5,35,93,10
5,54,81,235
5,59,81,0
5,50,81,5
5,54,79,195
5,59,81,0
5,50,82,5
5,35,91,155
5,54,85,25
5,59,86,0
5,50,85,0
5,35,93,185
5,54,78,165
5,50,80,0
5,59,80,0
5,50,81,195
5,54,82,0
5,59,80,0
5,50,85,190
5,54,88,0
5,59,82,0
5,44,85,0
5,59,76,210
5,53,89,0
5,53,89,195
5,59,80,0
5,53,87,190
5,59,85,0
5,37,91,35
5,53,89,220
5,59,77,0
5,53,93,195
5,59,86,0
5,53,85,170
5,59,89,0
5,37,87,0
5,42,85,15
5,57,81,225
5,54,82,0
5,61,77,0
5,57,82,195
5,61,77,0
5,54,85,0
5,54,91,185
5,61,82,0
5,57,86,0
5,40,88,10
5,61,82,220
5,57,89,0
5,56,85,0
5,61,77,185
5,57,77,0
5,56,87,0
5,61,77,185
5,57,81,0
5,56,88,0
5,38,91,5
5,57,81,230
5,50,81,0
5,54,84,0
5,57,81,185
5,50,81,0
5,54,88,0
5,50,85,190
5,57,83,0
5,54,87,0
5,37,88,0
5,57,68,215
5,54,75,0
5,49,75,0
5,57,81,195
5,54,79,0
5,49,77,0
5,49,78,165
5,57,81,0
5,54,79,0
5,37,77,0
5,35,88,0
5,59,82,240
5,54,84,0
5,50,81,0
5,54,81,185
5,59,81,0
5,50,81,0
5,59,81,190
5,50,84,0
5,54,85,0
5,35,92,15
5,50,75,240
5,59,73,0
5,54,75,0
5,50,80,190
5,54,79,0
5,59,81,0
5,50,86,180
5,54,84,0
5,59,82,0
5,44,90,0
5,56,82,240
5,59,79,0
5,53,80,0
5,53,81,195
5,56,85,0
5,59,81,0
5,53,85,185
5,56,86,0
5,59,83,0
5,37,88,10
5,53,75,220
5,56,86,0
5,59,75,0
5,53,80,190
5,59,77,0
5,56,84,0
5,56,79,175
5,59,76,0
5,53,77,0
5,37,72,0
5,42,88,240
5,54,86,215
5,57,83,0
5,61,78,0
5,61,77,185
5,54,80,0
5,57,80,0
5,61,80,190
5,54,87,0
5,57,87,0
5,44,92,35
5,53,87,225
5,56,86,0
5,59,77,0
5,53,58,180
5,59,77,0
5,56,81,0
5,56,84,190
5,53,81,0
5,59,77,0
5,42,91,5
5,57,75,200
5,61,71,0
5,54,79,0
5,57,82,205
5,61,82,0
5,54,91,0
5,57,82,185
5,61,79,0
5,54,80,0
5,44,92,0
5,52,81,0
5,56,85,0
5,59,87,0
5,59,85,175
5,56,81,0
5,52,81,0
5,40,89,35
5,52,81,0
5,56,84,0
5,59,89,0
5,45,93,20
5,52,82,240
5,57,74,0
5,52,91,195
5,57,77,0
5,57,83,10
5,52,90,0
5,45,87,240
5,57,75,210
5,52,86,0
5,57,81,190
5,52,85,0
5,57,81,185
5,52,92,0
5,44,84,0
5,53,84,215
5,59,77,0
5,53,87,190
5,59,80,0
5,59,81,180
5,53,88,0
5,44,90,0
5,59,75,225
5,53,85,0
5,59,83,185
5,53,89,0
5,53,83,175
5,59,81,0
5,44,95,0
5,42,93,165
5,61,80,220
5,57,82,0
5,57,88,185
5,61,86,0
5,57,88,185
5,61,90,0
5,40,88,10
5,57,81,215
5,61,84,0
5,57,85,195
5,61,86,0
5,57,88,185
5,61,86,0
5,38,91,5
5,57,82,235
5,61,90,0
5,57,82,190
5,61,88,0
5,57,85,185
5,61,87,0
5,45,89,10
5,57,77,235
5,52,85,0
5,52,85,190
5,57,77,0
5,52,88,190
5,57,82,0
5,40,93,35
5,59,77,235
5,52,80,0
5,59,75,190
5,52,86,0
5,52,88,185
5,59,81,0
5,40,83,0
5,59,77,220
5,52,87,0
5,59,73,185
5,52,82,0
5,59,80,185
5,52,85,0
5,40,92,150
5,59,71,210
5,52,84,0
5,59,77,185
5,52,85,0
5,59,81,185
5,52,87,0
5,40,87,160
5,59,78,210
5,52,84,0
5,59,85,190
5,52,91,0
5,52,91,155
5,59,87,0
5,40,91,0
5,35,93,10
5,54,81,235
5,59,81,0
5,50,81,5
5,54,79,195
5,59,81,0
5,50,82,5
5,35,91,155
5,54,85,25
5,59,86,0
5,50,85,0
5,35,93,185
5,54,78,165
5,50,80,0
5,59,80,0
5,50,81,195
5,54,82,0
5,59,80,0
5,50,85,190
5,54,88,0
5,59,82,0
5,44,85,0
5,59,76,210
5,53,89,0
5,53,89,195
5,59,80,0
5,53,87,190
5,59,85,0
5,37,91,35
5,53,89,220
5,59,77,0
5,53,93,195
5,59,86,0
5,53,85,170
5,59,89,0
5,37,87,0
5,42,85,15
5,57,81,225
5,54,82,0
5,61,77,0
5,57,82,195
5,61,77,0
5,54,85,0
5,54,91,185
5,61,82,0
5,57,86,0
5,40,88,10
5,61,82,220
5,57,89,0
5,56,85,0
5,61,77,185
5,57,77,0
5,56,87,0
5,61,77,185
5,57,81,0
5,56,88,0
5,38,91,5
5,57,81,230
5,50,81,0
5,54,84,0
5,57,81,185
5,50,81,0
5,54,88,0
5,50,85,190
5,57,83,0
5,54,87,0
5,37,88,0
5,57,68,215
5,54,75,0
5,49,75,0
5,57,81,195
5,54,79,0
5,49,77,0
5,49,78,165
5,57,81,0
5,54,79,0
5,37,77,0
5,35,88,0
5,59,82,240
5,54,84,0
5,50,81,0
5,54,81,185
5,59,81,0
5,50,81,0
5,59,81,190
5,50,84,0
5,54,85,0
5,35,92,15
5,50,75,240
5,59,73,0
5,54,75,0
5,50,80,190
5,54,79,0
5,59,81,0
5,50,86,180
5,54,84,0
5,59,82,0
5,44,90,0
5,56,82,240
5,59,79,0
5,53,80,0
5,53,81,195
5,56,85,0
5,59,81,0
5,53,85,185
5,56,86,0
5,59,83,0
5,37,88,10
5,53,75,220
5,56,86,0
5,59,75,0
5,53,80,190
5,59,77,0
5,56,84,0
5,56,79,175
5,59,76,0
5,53,77,0
5,37,72,0
5,42,88,240
5,54,86,215
5,57,83,0
5,61,78,0
5,61,77,185
5,54,80,0
5,57,80,0
5,61,80,190
5,54,87,0
5,57,87,0
5,44,92,35
5,53,87,225
5,56,86,0
5,59,77,0
5,53,58,180
5,59,77,0
5,56,81,0
5,56,84,190
5,53,81,0
5,59,77,0
5,42,91,5
5,57,75,200
5,61,71,0
5,54,79,0
5,57,82,205
5,61,82,0
5,54,91,0
5,57,82,185
5,61,79,0
5,54,80,0
5,44,92,0
5,52,81,0
5,56,85,0
5,59,87,0
5,59,85,175
5,56,81,0
5,52,81,0
5,40,89,35
5,52,81,0
5,56,84,0
5,59,89,0
5,45,89,20
5,52,79,240
5,61,77,0
5,57,84,0
5,61,77,185
5,52,81,0
5,57,83,0
5,57,85,190
5,61,81,0
5,52,83,0
5,45,86,165
5,57,80,195
5,61,77,0
5,52,79,0
5,52,81,180
5,57,81,0
5,61,80,0
5,52,83,180
5,57,81,0
5,61,80,0
5,44,85,240
5,56,85,205
5,52,77,0
5,59,79,0
5,52,77,185
5,59,79,0
5,56,87,0
5,52,81,180
5,59,82,0
5,56,85,0
5,42,91,25
5,57,89,220
5,61,81,0
5,52,84,0
5,52,81,185
5,61,77,0
5,57,88,0
5,57,82,190
5,61,77,0
5,52,79,0
5,40,90,10
5,56,84,220
5,52,81,0
5,59,80,0
5,52,77,180
5,56,84,0
5,59,77,0
5,59,79,180
5,52,81,0
5,56,91,0
5,40,90,20
5,56,92,235
5,59,81,0
5,52,83,0
5,56,82,190
5,59,81,0
5,52,81,0
5,56,87,190
5,59,83,0
5,52,82,0
5,40,91,5
5,52,81,220
5,59,80,0
5,56,90,0
5,38,85,185
5,59,84,0
5,52,86,0
5,56,91,0
5,52,83,180
5,59,86,0
5,56,87,0
5,37,85,0
5,59,75,225
5,52,75,0
5,56,84,0
5,28,87,45
5,59,85,0
5,52,84,0
5,56,90,0
5,52,85,190
5,56,88,0
5,59,89,0
5,35,85,30
5,59,87,230
5,54,91,0
5,50,75,5
5,50,84,175
5,59,84,0
5,54,85,0
5,54,86,180
5,59,86,0
5,50,83,0
5,35,83,10
5,54,92,205
5,50,87,5
5,59,84,0
5,54,86,185
5,59,84,0
5,50,85,0
5,59,83,185
5,54,86,0
