track,note,velocity,time
3,92,126,11952
3,89,118,96
3,89,0,139
3,92,0,62
3,92,127,2070
3,89,124,96
3,89,0,138
3,92,0,3
3,92,127,3186
3,89,118,96
3,92,0,128
3,89,0,1
3,92,126,2364
3,89,118,96
3,89,0,92
3,92,0,64
3,92,127,2069
3,89,124,96
3,89,0,1
3,92,0,2
3,92,126,28208
3,89,118,96
3,89,0,124
3,92,0,64
3,92,127,2069
3,89,124,96
3,89,0,173
3,92,0,5
4,29,97,6132
4,29,0,48
4,29,97,48
4,29,0,113
4,29,97,31
4,29,0,31
4,29,97,113
4,29,0,149
4,29,97,43
4,29,0,36
4,29,97,156
4,29,0,31
4,29,97,65
4,29,0,112
4,29,97,32
4,29,0,40
4,29,97,104
4,29,0,135
4,29,97,57
4,29,0,41
4,29,97,151
4,29,0,28
4,29,97,68
4,29,0,122
4,29,97,22
4,29,0,31
4,29,97,113
4,29,0,167
4,29,97,25
4,29,0,39
4,29,97,153
4,29,0,23
4,29,97,73
4,29,0,124
4,29,97,20
4,29,0,32
4,29,97,112
4,29,0,155
4,29,97,229
4,29,0,35
4,29,97,61
4,29,0,24
4,29,97,24
4,29,0,34
4,29,97,14
4,29,0,26
4,29,97,22
4,29,0,38
4,29,97,106
4,29,0,59
4,29,97,37
4,29,0,43
4,29,97,53
4,29,0,56
4,29,97,136
4,29,0,32
4,29,97,64
4,29,0,29
4,29,97,19
4,29,0,30
4,29,97,18
4,29,0,32
4,29,97,16
4,29,0,38
4,29,97,106
4,29,0,142
4,29,97,50
4,29,0,39
4,29,97,153
4,29,0,26
4,27,97,70
4,27,0,21
4,27,97,27
4,27,0,29
4,27,97,19
4,27,0,22
4,27,97,26
4,27,0,35
4,27,97,109
4,27,0,52
4,27,97,44
4,27,0,52
4,27,97,44
4,27,0,48
4,27,97,144
4,27,0,11
4,27,97,85
4,27,0,27
4,27,97,21
4,27,0,26
4,27,97,22
4,27,0,18
4,27,97,30
4,27,0,31
4,27,97,113
4,27,0,149
4,27,97,43
4,27,0,44
4,27,97,148
4,27,0,42
4,36,97,6
4,36,0,46
4,29,97,2
4,29,0,24
4,29,97,24
4,29,0,36
4,29,97,12
4,29,0,27
4,29,97,21
4,29,0,39
4,29,97,105
4,29,0,58
4,29,97,38
4,29,0,41
4,29,97,55
4,29,0,55
4,29,97,137
4,29,0,29
4,29,97,67
4,29,0,30
4,29,97,18
4,29,0,30
4,29,97,18
4,29,0,31
4,29,97,17
4,29,0,39
4,29,97,105
4,29,0,144
4,29,97,48
4,29,0,39
4,29,97,153
4,29,0,27
4,27,97,69
4,27,0,21
4,27,97,27
4,27,0,27
4,27,97,21
4,27,0,24
4,27,97,24
4,27,0,34
4,27,97,110
4,27,0,51
4,27,97,45
4,27,0,49
4,27,97,47
4,27,0,48
4,27,97,144
4,27,0,12
4,27,97,84
4,27,0,25
4,27,97,23
4,27,0,26
4,27,97,22
4,27,0,19
4,27,97,29
4,27,0,31
4,27,97,113
4,27,0,151
4,27,97,41
4,27,0,42
4,27,97,150
4,27,0,43
4,36,97,5
4,36,0,46
4,37,97,2
4,37,0,25
4,37,97,23
4,37,0,26
4,37,97,22
4,37,0,31
4,37,97,17
4,37,0,23
4,37,97,121
4,37,0,148
4,37,97,44
4,37,0,35
4,37,97,157
4,37,0,23
4,29,97,73
4,29,0,29
4,29,97,19
4,29,0,32
4,29,97,16
4,29,0,31
4,29,97,17
4,29,0,34
4,29,97,110
4,29,0,83
4,29,97,13
4,29,0,59
4,29,97,37
4,29,0,79
4,29,97,209
4,29,0,36
4,29,97,12
4,29,0,34
4,29,97,14
4,29,0,30
4,29,97,18
4,29,0,43
4,29,97,101
4,29,0,151
4,29,97,41
4,29,0,51
4,29,97,141
4,29,0,31
4,37,97,65
4,37,0,24
4,37,97,24
4,37,0,24
4,37,97,24
4,37,0,24
4,37,97,24
4,37,0,28
4,37,97,116
4,37,0,147
4,37,97,45
4,37,0,30
4,37,97,162
4,37,0,20
4,37,97,76
4,37,0,21
4,37,97,27
4,37,0,10
4,37,97,38
4,37,0,23
4,37,97,25
4,37,0,40
4,37,97,104
4,37,0,141
4,37,97,51
4,37,0,22
4,37,97,170
4,37,0,32
4,29,97,64
4,29,0,23
4,29,97,25
4,29,0,34
4,29,97,14
4,29,0,27
4,29,97,21
4,29,0,39
4,29,97,105
4,29,0,60
4,29,97,36
4,29,0,41
4,29,97,55
4,29,0,55
4,29,97,137
4,29,0,32
4,29,97,64
4,29,0,30
4,29,97,18
4,29,0,30
4,29,97,18
4,29,0,30
4,29,97,18
4,29,0,39
4,29,97,105
4,29,0,143
4,29,97,49
4,29,0,38
4,29,97,154
4,29,0,26
4,27,97,70
4,27,0,19
4,27,97,29
4,27,0,28
4,27,97,20
4,27,0,22
4,27,97,26
4,27,0,36
4,27,97,108
4,27,0,50
4,27,97,46
4,27,0,49
4,27,97,47
4,27,0,46
4,27,97,146
4,27,0,11
4,27,97,85
4,27,0,26
4,27,97,22
4,27,0,27
4,27,97,21
4,27,0,20
4,27,97,28
4,27,0,32
4,27,97,112
4,27,0,151
4,27,97,41
4,27,0,43
4,27,97,149
4,27,0,43
4,36,97,5
4,36,0,47
4,29,97,1
4,29,0,23
4,29,97,25
4,29,0,35
4,29,97,13
4,29,0,26
4,29,97,22
4,29,0,36
4,29,97,108
4,29,0,57
4,29,97,39
4,29,0,41
4,29,97,55
4,29,0,54
4,29,97,138
4,29,0,30
4,29,97,66
4,29,0,29
4,29,97,19
4,29,0,32
4,29,97,16
4,29,0,31
4,29,97,17
4,29,0,38
4,29,97,106
4,29,0,144
4,29,97,48
4,29,0,39
4,29,97,153
4,29,0,27
4,27,97,69
4,27,0,21
4,27,97,27
4,27,0,26
4,27,97,22
4,27,0,22
4,27,97,26
4,27,0,35
4,27,97,109
4,27,0,51
4,27,97,45
4,27,0,51
4,27,97,45
4,27,0,48
4,27,97,144
4,27,0,10
4,27,97,86
4,27,0,25
4,27,97,23
4,27,0,26
4,27,97,22
4,27,0,18
4,27,97,30
4,27,0,32
4,27,97,112
4,27,0,151
4,27,97,41
4,27,0,42
4,27,97,150
4,27,0,43
4,36,97,5
4,36,0,48
4,37,97,0
4,37,0,24
4,37,97,24
4,37,0,28
4,37,97,20
4,37,0,31
4,37,97,17
4,37,0,23
4,37,97,121
4,37,0,146
4,37,97,46
4,37,0,36
4,37,97,156
4,37,0,25
4,29,97,71
4,29,0,29
4,29,97,19
4,29,0,30
4,29,97,18
4,29,0,32
4,29,97,16
4,29,0,34
4,29,97,110
4,29,0,82
4,29,97,14
4,29,0,59
4,29,97,37
4,29,0,78
4,29,97,210
4,29,0,38
4,29,97,10
4,29,0,33
4,29,97,15
4,29,0,30
4,29,97,18
4,29,0,44
4,29,97,100
4,29,0,151
4,29,97,41
4,29,0,50
4,29,97,142
4,29,0,32
4,37,97,64
4,37,0,26
4,37,97,22
4,37,0,23
4,37,97,25
4,37,0,24
4,37,97,24
4,37,0,28
4,37,97,116
4,37,0,146
4,37,97,46
4,37,0,30
4,37,97,162
4,37,0,19
4,37,97,77
4,37,0,21
4,37,97,27
4,37,0,12
4,37,97,36
4,37,0,21
4,37,97,27
4,37,0,40
4,37,97,104
4,37,0,142
4,37,97,50
4,37,0,24
4,37,97,168
4,37,0,31
4,29,97,65
4,29,0,20
4,29,97,28
4,29,0,27
4,29,97,21
4,29,0,19
4,29,97,29
4,29,0,35
4,29,97,109
4,29,0,155
4,29,97,37
4,29,0,24
4,29,97,168
4,29,0,30
4,29,97,66
4,29,0,29
4,29,97,19
4,29,0,30
4,29,97,18
4,29,0,31
4,29,97,17
4,29,0,59
4,29,97,85
4,29,0,151
4,29,97,41
4,29,0,36
4,29,97,156
4,29,0,48
4,32,97,0
4,32,0,26
4,34,97,22
4,34,0,32
4,34,97,16
4,34,0,35
4,34,97,13
4,34,0,20
4,34,97,28
4,34,0,28
4,34,97,116
4,34,0,59
4,34,97,37
4,34,0,55
4,34,97,41
4,34,0,58
4,32,97,134
4,32,0,43
4,34,97,53
4,34,0,32
4,34,97,16
4,34,0,29
4,34,97,19
4,34,0,32
4,34,97,16
4,34,0,40
4,34,97,104
4,34,0,160
4,34,97,32
4,34,0,36
4,34,97,156
4,34,0,27
4,27,97,69
4,27,0,24
4,27,97,24
4,27,0,27
4,27,97,21
4,27,0,23
4,27,97,25
4,27,0,35
4,27,97,109
4,27,0,150
4,27,97,42
4,27,0,51
4,27,97,141
4,27,0,29
4,28,97,19
4,28,0,33
4,29,97,15
4,29,0,28
4,29,97,20
4,29,0,23
4,29,97,25
4,29,0,24
4,29,97,24
4,29,0,30
4,29,97,114
4,29,0,152
4,29,97,40
4,29,0,35
4,29,97,157
4,29,0,24
4,29,97,72
4,29,0,21
4,29,97,27
4,29,0,23
4,29,97,25
4,29,0,21
4,29,97,27
4,29,0,27
4,29,97,117
4,29,0,147
4,29,97,45
4,29,0,27
4,34,97,165
4,34,0,27
4,36,97,21
4,36,0,32
4,29,97,16
4,29,0,19
4,29,97,29
4,29,0,27
4,29,97,21
4,29,0,20
4,29,97,28
4,29,0,34
4,29,97,110
4,29,0,154
4,29,97,38
4,29,0,24
4,29,97,168
4,29,0,32
4,29,97,64
4,29,0,29
4,29,97,19
4,29,0,28
4,29,97,20
4,29,0,32
4,29,97,16
4,29,0,59
4,29,97,85
4,29,0,152
4,29,97,40
4,29,0,34
4,29,97,158
4,29,0,46
4,32,97,2
4,32,0,26
4,34,97,22
4,34,0,32
4,34,97,16
4,34,0,36
4,34,97,12
4,34,0,19
4,34,97,29
4,34,0,27
4,34,97,117
4,34,0,59
4,34,97,37
4,34,0,54
4,34,97,42
4,34,0,60
4,32,97,132
4,32,0,44
4,34,97,52
4,34,0,31
4,34,97,17
4,34,0,29
4,34,97,19
4,34,0,32
4,34,97,16
4,34,0,39
4,34,97,105
4,34,0,159
4,34,97,33
4,34,0,35
4,34,97,157
4,34,0,28
4,27,97,68
4,27,0,25
4,27,97,23
4,27,0,26
4,27,97,22
4,27,0,23
4,27,97,25
4,27,0,35
4,27,97,109
4,27,0,152
4,27,97,40
4,27,0,52
4,27,97,140
4,27,0,28
4,28,97,20
4,28,0,34
4,29,97,14
4,29,0,28
4,29,97,20
4,29,0,23
4,29,97,25
4,29,0,24
4,29,97,24
4,29,0,31
4,29,97,113
4,29,0,151
4,29,97,41
4,29,0,35
4,29,97,157
4,29,0,23
4,29,97,73
4,29,0,21
4,29,97,27
4,29,0,22
4,29,97,26
4,29,0,22
4,29,97,26
4,29,0,27
4,29,97,117
4,29,0,146
4,29,97,46
4,29,0,27
4,27,97,165
4,28,97,48
4,27,0,3
4,28,0,44
4,29,97,1
4,29,0,763
4,34,97,5
4,34,0,1068
4,29,97,1620
4,34,97,768
4,29,0,2
4,34,0,1135
4,29,97,399
4,29,0,21
4,29,97,27
4,29,0,27
4,29,97,21
4,29,0,20
4,29,97,28
4,29,0,34
4,29,97,110
4,29,0,155
4,29,97,37
4,29,0,24
4,29,97,168
4,29,0,32
4,29,97,64
4,29,0,30
4,29,97,18
4,29,0,30
4,29,97,18
4,29,0,30
4,29,97,18
4,29,0,60
4,29,97,84
4,29,0,152
4,29,97,40
4,29,0,35
4,29,97,157
4,29,0,48
4,32,97,0
4,32,0,27
4,34,97,21
4,34,0,34
4,34,97,14
4,34,0,36
4,34,97,12
4,34,0,21
4,34,97,27
4,34,0,26
4,34,97,118
4,34,0,58
4,34,97,38
4,34,0,54
4,34,97,42
4,34,0,58
4,32,97,134
4,32,0,43
4,34,97,53
4,34,0,31
4,34,97,17
4,34,0,27
4,34,97,21
4,34,0,31
4,34,97,17
4,34,0,40
4,34,97,104
4,34,0,158
4,34,97,34
4,34,0,35
4,34,97,157
4,34,0,27
4,27,97,69
4,27,0,26
4,27,97,22
4,27,0,27
4,27,97,21
4,27,0,22
4,27,97,26
4,27,0,34
4,27,97,110
4,27,0,152
4,27,97,40
4,27,0,51
4,27,97,141
4,27,0,26
4,28,97,22
4,28,0,35
4,29,97,13
4,29,0,29
4,29,97,19
4,29,0,24
4,29,97,24
4,29,0,24
4,29,97,24
4,29,0,30
4,29,97,114
4,29,0,150
4,29,97,42
4,29,0,37
4,29,97,155
4,29,0,25
4,29,97,71
4,29,0,22
4,29,97,26
4,29,0,23
4,29,97,25
4,29,0,23
4,29,97,25
4,29,0,28
4,29,97,116
4,29,0,146
4,29,97,46
4,29,0,28
4,34,97,164
4,34,0,27
4,36,97,21
4,36,0,29
4,29,97,19
4,29,0,25
4,29,97,23
4,29,0,35
4,29,97,13
4,29,0,26
4,29,97,22
4,29,0,39
4,29,97,105
4,29,0,60
4,29,97,36
4,29,0,42
4,29,97,54
4,29,0,53
4,29,97,139
4,29,0,31
4,29,97,65
4,29,0,30
4,29,97,18
4,29,0,31
4,29,97,17
4,29,0,31
4,29,97,17
4,29,0,38
4,29,97,106
4,29,0,141
4,29,97,51
4,29,0,38
4,29,97,154
4,29,0,26
4,27,97,70
4,27,0,20
4,27,97,28
4,27,0,28
4,27,97,20
4,27,0,23
4,27,97,25
4,27,0,35
4,27,97,109
4,27,0,53
4,27,97,43
4,27,0,50
4,27,97,46
4,27,0,46
4,27,97,146
4,27,0,13
4,27,97,83
4,27,0,24
4,27,97,24
4,27,0,26
4,27,97,22
4,27,0,20
4,27,97,28
4,27,0,31
4,27,97,113
4,27,0,151
4,27,97,41
4,27,0,43
4,27,97,149
4,27,0,43
4,36,97,5
4,36,0,47
4,29,97,1
4,29,0,24
4,29,97,24
4,29,0,35
4,29,97,13
4,29,0,27
4,29,97,21
4,29,0,39
4,29,97,105
4,29,0,59
4,29,97,37
4,29,0,43
4,29,97,53
4,29,0,54
4,29,97,138
4,29,0,33
4,29,97,63
4,29,0,27
4,29,97,21
4,29,0,31
4,29,97,17
4,29,0,29
4,29,97,19
4,29,0,37
4,29,97,107
4,29,0,143
4,29,97,49
4,29,0,38
4,29,97,154
4,29,0,28
4,27,97,68
4,27,0,20
4,27,97,28
4,27,0,25
4,27,97,23
4,27,0,23
4,27,97,25
4,27,0,34
4,27,97,110
4,27,0,52
4,27,97,44
4,27,0,48
4,27,97,48
4,27,0,47
4,27,97,145
4,27,0,12
4,27,97,84
4,27,0,25
4,27,97,23
4,27,0,26
4,27,97,22
4,27,0,18
4,27,97,30
4,27,0,30
4,27,97,114
4,27,0,151
4,27,97,41
4,27,0,43
4,27,97,149
4,27,0,44
4,36,97,4
4,36,0,48
4,37,97,0
4,37,0,23
4,37,97,25
4,37,0,29
4,37,97,19
4,37,0,30
4,37,97,18
4,37,0,23
4,37,97,121
4,37,0,147
4,37,97,45
4,37,0,36
4,37,97,156
4,37,0,22
4,29,97,74
4,29,0,30
4,29,97,18
4,29,0,30
4,29,97,18
4,29,0,32
4,29,97,16
4,29,0,33
4,29,97,111
4,29,0,83
4,29,97,13
4,29,0,57
4,29,97,39
4,29,0,78
4,29,97,210
4,29,0,36
4,29,97,12
4,29,0,34
4,29,97,14
4,29,0,31
4,29,97,17
4,29,0,43
4,29,97,101
4,29,0,151
4,29,97,41
4,29,0,50
4,29,97,142
4,29,0,31
4,37,97,65
4,37,0,25
4,37,97,23
4,37,0,22
4,37,97,26
4,37,0,23
4,37,97,25
4,37,0,27
4,37,97,117
4,37,0,148
4,37,97,44
4,37,0,32
4,37,97,160
4,37,0,19
4,37,97,77
4,37,0,21
4,37,97,27
4,37,0,11
4,37,97,37
4,37,0,22
4,37,97,26
4,37,0,40
4,37,97,104
4,37,0,143
4,37,97,49
4,37,0,23
4,37,97,169
4,37,0,31
4,29,97,65
4,29,0,20
4,29,97,28
4,29,0,27
4,29,97,21
4,29,0,18
4,29,97,30
4,29,0,34
4,29,97,110
4,29,0,156
4,29,97,36
4,29,0,24
4,29,97,168
4,29,0,31
4,29,97,65
4,29,0,29
4,29,97,19
4,29,0,32
4,29,97,16
4,29,0,30
4,29,97,18
4,29,0,58
4,29,97,86
4,29,0,152
