track,note,velocity,time
0,52,104,73
0,64,109,0
0,59,86,192
0,71,90,0
0,64,95,34
0,76,84,0
0,66,95,192
0,78,115,0
0,52,95,18
0,64,109,0
0,59,90,192
0,71,104,0
0,64,101,192
0,76,98,0
0,66,98,192
0,78,108,0
0,64,71,10
0,59,71,0
0,55,71,0
0,52,71,0
0,76,104,10
0,76,113,0
0,52,98,0
0,36,80,0
0,42,96,0
0,76,106,0
0,64,98,0
0,42,48,146
0,59,82,146
0,42,96,0
0,74,92,146
0,74,104,0
0,42,48,0
0,74,101,0
0,71,95,146
0,71,92,0
0,36,80,0
0,42,96,0
0,71,92,0
0,42,48,69
0,42,96,146
0,74,101,50
0,74,95,14
0,74,101,0
0,42,48,0
0,67,71,2
0,62,71,0
0,59,71,0
0,55,71,0
0,76,88,22
0,76,104,0
0,55,101,0
0,36,80,0
0,42,96,0
0,76,104,0
0,62,101,0
0,78,108,146
0,78,101,0
0,42,48,0
0,78,104,0
0,76,65,102
0,76,86,0
0,62,95,0
0,42,96,0
0,76,109,0
0,74,95,18
0,74,106,0
0,42,48,0
0,74,113,0
0,71,95,2
0,71,95,0
0,36,80,0
0,42,96,0
0,71,106,0
0,42,48,146
0,42,96,146
0,42,48,146
0,62,71,2
0,57,71,0
0,54,71,0
0,50,71,0
0,71,95,6
0,71,106,0
0,50,95,0
0,36,80,0
0,42,96,0
0,57,86,0
0,42,48,146
0,57,80,146
0,42,96,0
0,42,48,146
0,69,40,50
0,69,82,10
0,36,80,0
0,42,96,0
0,69,90,0
0,42,48,146
0,42,96,146
0,42,48,146
0,69,71,2
0,64,71,0
0,60,71,0
0,57,71,0
0,57,101,6
0,36,80,0
0,42,96,0
0,64,84,146
0,42,48,0
0,42,96,126
0,71,86,146
0,42,48,0
0,36,80,146
0,42,96,0
0,72,86,146
0,42,48,0
0,42,96,34
0,42,48,146
0,57,95,2
0,57,101,0
0,36,80,0
0,42,96,0
0,71,80,146
0,71,65,0
0,42,48,0
0,72,90,146
0,72,90,0
0,42,96,0
0,83,106,146
0,83,101,0
0,42,48,0
0,36,80,146
0,42,96,0
0,81,92,146
0,81,98,0
0,42,48,0
0,79,98,146
0,79,88,0
0,42,96,0
0,42,48,146
0,64,71,2
0,59,71,0
0,55,71,0
0,52,71,0
0,28,117,2
0,76,104,0
0,76,113,0
0,52,98,0
0,36,80,0
0,52,80,0
0,76,106,0
0,64,98,0
0,42,48,146
0,59,82,146
0,42,96,0
0,74,92,146
0,74,104,0
0,42,48,0
0,74,101,0
0,71,95,146
0,71,92,0
0,36,80,0
0,42,96,0
0,71,92,0
0,42,48,146
0,42,96,146
0,74,101,50
0,74,95,14
0,74,101,0
0,42,48,0
0,67,71,2
0,62,71,0
0,59,71,0
0,55,71,0
0,31,104,6
0,76,88,4
0,76,104,0
0,55,101,0
0,36,80,0
0,42,96,0
0,76,104,0
0,62,101,0
0,78,108,146
0,78,101,0
0,42,48,0
0,78,104,0
0,76,65,102
0,76,86,0
0,62,95,0
0,42,96,0
0,76,109,0
0,74,95,18
0,74,106,0
0,42,48,0
0,74,113,0
0,71,95,2
0,71,95,0
0,36,80,0
0,42,96,0
0,71,106,0
0,42,48,146
0,42,96,146
0,42,48,146
0,62,71,2
0,57,71,0
0,54,71,0
0,50,71,0
0,26,104,6
0,71,95,6
0,71,106,0
0,50,95,0
0,36,80,0
0,42,96,0
0,57,86,0
0,42,48,146
0,57,80,146
0,42,96,0
0,42,48,146
0,69,40,50
0,69,82,10
0,36,80,0
0,42,96,0
0,69,90,0
0,42,48,146
0,42,96,146
0,42,48,132
0,69,71,2
0,64,71,0
0,60,71,0
0,57,71,0
0,33,109,4
0,57,101,6
0,36,80,0
0,42,96,0
0,64,84,146
0,42,48,0
0,42,96,126
0,71,86,146
0,42,48,0
0,36,80,146
0,42,96,0
0,72,86,146
0,42,48,0
0,42,96,34
0,42,48,146
0,57,95,2
0,57,101,0
0,36,80,0
0,42,96,0
0,71,80,146
0,71,65,0
0,42,48,0
0,72,90,146
0,72,90,0
0,42,96,0
0,83,106,146
0,83,101,0
0,42,48,0
0,36,80,146
0,42,96,0
0,81,92,146
0,81,98,0
0,42,48,0
0,79,98,146
0,79,88,0
0,40,80,0
0,45,96,0
0,41,96,0
0,52,80,0
0,62,71,2
0,57,71,0
0,54,71,0
0,50,71,0
0,26,109,2
0,62,113,0
0,50,109,0
0,62,121,0
0,50,121,0
0,36,80,0
0,57,80,0
0,66,108,0
0,62,117,0
0,57,109,0
0,50,113,0
0,42,48,122
0,62,113,0
0,40,96,146
0,45,80,0
0,62,125,0
0,26,104,122
0,36,64,0
0,42,48,0
0,50,109,0
0,26,106,114
0,36,80,0
0,42,96,0
0,62,117,0
0,42,48,146
0,62,121,0
0,40,96,146
0,45,80,0
0,50,98,0
0,26,106,142
0,36,64,0
0,42,48,0
0,62,121,0
0,26,106,14
0,64,106,0
0,52,106,0
0,64,109,0
0,52,106,0
0,36,80,0
0,42,96,0
0,64,104,0
0,50,104,0
0,42,48,142
0,62,109,0
0,40,96,146
0,45,80,0
0,62,125,0
0,26,88,146
0,36,64,0
0,42,48,0
0,50,101,0
0,26,95,130
0,36,80,0
0,42,96,0
0,62,109,0
0,42,48,146
0,62,117,0
0,26,95,50
0,36,64,0
0,24,106,34
0,40,96,0
0,45,80,0
0,50,104,0
0,26,106,57
0,36,64,0
0,42,48,0
0,62,109,0
0,62,71,2
0,57,71,0
0,54,71,0
0,50,71,0
0,50,117,10
0,62,113,0
0,62,121,0
0,50,113,0
0,36,80,0
0,42,96,0
0,62,109,0
0,50,104,0
0,42,48,142
0,62,109,0
0,40,96,146
0,45,80,0
0,62,113,0
0,26,106,146
0,36,64,0
0,42,48,0
0,50,106,0
0,26,104,142
0,36,80,0
0,42,96,0
0,62,109,0
0,42,48,146
0,62,117,0
0,40,96,146
0,45,80,0
0,50,104,0
0,26,101,138
0,36,64,0
0,42,48,0
0,62,113,0
0,26,106,46
0,57,98,0
0,50,121,0
0,36,80,0
0,42,96,0
0,69,98,0
0,50,101,0
0,42,48,146
0,62,106,0
0,40,96,146
0,45,80,0
0,62,117,0
0,74,109,8
0,26,88,94
0,74,92,0
0,36,64,0
0,42,48,0
0,50,104,0
0,26,95,26
0,36,80,0
0,42,96,0
0,62,117,0
0,74,92,8
0,42,48,42
0,62,117,0
0,78,108,28
0,26,95,50
0,36,64,0
0,24,106,34
0,40,96,0
0,45,80,0
0,50,109,0
0,26,106,98
0,40,96,0
0,45,80,0
0,62,113,0
0,78,120,2
0,62,71,2
0,57,71,0
0,54,71,0
0,50,71,0
0,26,109,2
0,62,113,0
0,57,104,0
0,66,101,0
0,62,109,0
0,36,80,0
0,42,96,0
0,66,104,0
0,62,117,0
0,50,109,0
0,57,98,4
0,57,104,0
0,42,48,142
0,62,109,0
0,40,96,11
0,45,80,0
0,62,117,0
0,26,104,146
0,36,64,0
0,42,48,0
0,50,109,0
0,26,106,138
0,36,80,0
0,42,96,0
0,62,117,0
0,42,48,120
0,62,121,0
0,40,96,78
0,45,80,0
0,50,117,0
0,26,106,74
0,36,64,0
0,42,48,0
0,62,121,0
0,66,92,62
0,57,70,16
0,26,106,20
0,36,80,0
0,42,96,0
0,50,109,0
0,42,48,142
0,62,117,0
0,40,96,29
0,45,80,0
0,62,121,0
0,78,120,8
0,76,101,78
0,26,88,12
0,36,64,0
0,42,48,0
0,50,106,0
0,26,95,38
0,36,80,0
0,42,96,0
0,62,117,0
0,74,104,4
0,42,48,10
0,62,117,0
0,73,108,24
0,26,95,50
0,36,64,0
0,24,106,34
0,40,96,0
0,45,80,0
0,50,109,0
0,28,106,34
0,36,64,0
0,42,48,0
0,62,117,0
0,71,101,4
0,64,71,2
0,59,71,0
0,55,71,0
0,52,71,0
0,64,109,24
0,59,98,0
0,67,109,0
0,62,109,0
0,59,92,0
0,36,80,0
0,42,96,0
0,64,101,0
0,62,106,0
0,67,106,0
0,59,104,0
0,52,98,0
0,42,48,18
0,64,104,0
0,79,104,28
0,40,96,146
0,45,80,0
0,64,117,0
0,28,104,146
0,36,64,0
0,42,48,0
0,52,101,0
0,28,106,138
0,36,80,0
0,42,96,0
0,64,109,0
0,42,48,15
0,64,109,0
0,40,96,146
0,45,80,0
0,52,98,0
0,28,106,142
0,36,64,0
0,42,48,0
0,64,109,0
0,28,106,70
0,59,56,0
0,36,80,0
0,42,96,0
0,52,95,0
0,42,48,146
0,64,104,0
0,40,96,146
0,45,80,0
0,64,109,0
0,79,95,12
0,28,88,58
0,67,92,0
0,36,64,0
0,42,48,0
0,52,95,0
0,79,95,4
0,28,95,94
0,36,80,0
0,42,96,0
0,64,113,0
0,79,101,12
0,42,48,146
0,64,106,0
0,78,104,22
0,28,95,28
0,36,64,0
0,26,106,34
0,40,96,0
0,45,80,0
0,52,104,0
0,76,95,46
0,31,106,32
0,36,64,0
0,42,48,0
0,64,117,0
0,67,71,2
0,62,71,0
0,59,71,0
0,55,71,0
0,76,101,24
0,67,106,0
0,62,109,0
0,62,109,0
0,67,104,0
0,59,98,0
0,36,80,0
0,42,96,0
0,67,113,0
0,62,117,0
0,59,109,0
0,50,109,0
0,42,48,22
0,62,113,0
0,78,95,12
0,74,88,38
0,40,96,20
0,45,80,0
0,62,113,0
0,31,104,146
0,36,64,0
0,42,48,0
0,50,106,0
0,31,106,138
0,36,80,0
0,42,96,0
0,62,113,0
0,42,48,146
0,62,121,0
0,40,96,146
0,45,80,0
0,50,101,0
0,31,106,130
0,36,64,0
0,42,48,0
0,62,117,0
0,72,84,2
0,65,71,2
0,60,71,0
0,57,71,0
0,53,71,0
0,29,98,18
0,57,113,0
0,65,98,0
0,60,92,0
0,65,92,0
0,60,98,0
0,57,98,0
0,36,80,0
0,42,96,0
0,60,101,0
0,65,104,0
0,57,109,0
0,48,104,0
0,72,98,16
0,42,48,138
0,60,101,0
0,40,96,34
0,45,80,0
0,60,101,0
0,72,73,12
0,29,92,94
0,36,64,0
0,42,48,0
0,48,104,0
0,77,95,4
0,36,106,38
0,72,80,0
0,36,80,0
0,42,96,0
0,60,101,0
0,29,95,118
0,42,48,0
0,60,101,0
0,74,106,4
0,36,64,38
0,40,96,50
0,45,80,0
0,48,106,0
0,36,64,142
0,42,48,0
0,60,104,0
0,62,71,2
0,57,71,0
0,54,71,0
0,50,71,0
0,71,113,24
0,26,113,0
0,62,121,0
0,57,106,0
0,66,104,0
0,62,109,0
0,57,98,0
0,36,80,0
0,42,96,0
0,66,98,0
0,64,98,0
0,62,109,0
0,50,113,0
0,42,48,146
0,62,109,0
0,40,96,146
0,45,80,0
0,62,117,0
0,69,106,42
0,26,109,0
0,36,64,0
0,42,48,0
0,50,106,0
0,26,113,138
0,36,80,0
0,42,96,0
0,62,117,0
0,42,48,2
0,62,113,0
0,71,106,6
0,40,96,0
0,45,80,0
0,50,104,0
0,26,104,142
0,36,64,0
0,42,48,0
0,62,117,0
0,26,109,86
0,62,104,0
0,36,80,0
0,42,96,0
0,50,106,0
0,69,106,18
0,42,48,0
0,62,113,0
0,40,96,146
0,45,80,0
0,62,117,0
0,26,104,138
0,36,64,0
0,42,48,0
0,50,101,0
0,74,113,26
0,26,101,0
0,36,80,0
0,42,96,0
0,62,113,0
0,42,48,146
0,62,113,0
0,26,106,50
0,36,64,0
0,69,106,30
0,24,106,0
0,40,96,0
0,45,80,0
0,50,101,0
0,26,109,138
0,36,64,0
0,42,48,0
0,62,117,0
0,26,113,18
0,66,77,0
0,57,84,0
0,36,80,0
0,42,96,0
0,57,90,0
0,50,113,0
0,42,48,98
0,62,109,0
0,40,96,146
0,45,80,0
0,62,117,0
0,74,101,16
0,74,84,78
0,26,109,4
0,36,64,0
0,42,48,0
0,50,106,0
0,26,113,20
0,36,80,0
0,42,96,0
0,62,117,0
0,74,92,4
0,42,48,38
0,62,113,0
0,78,111,28
0,40,96,55
0,45,80,0
0,50,104,0
0,26,104,98
0,36,64,0
0,42,48,0
0,62,117,0
0,78,111,16
0,62,71,2
0,57,71,0
0,54,71,0
0,50,71,0
0,26,109,18
0,62,113,0
0,57,104,0
0,66,101,0
0,62,109,0
0,57,98,0
0,36,80,0
0,42,96,0
0,66,104,0
0,62,117,0
0,57,104,0
0,50,109,0
0,42,48,142
0,62,113,0
0,40,96,10
0,45,80,0
0,62,113,0
0,26,104,146
0,36,64,0
0,42,48,0
0,50,106,0
0,26,106,138
0,36,80,0
0,42,96,0
0,62,117,0
0,42,48,121
0,62,117,0
0,40,96,80
0,45,80,0
0,50,104,0
0,26,106,146
0,36,64,0
0,42,48,0
0,62,117,0
0,26,106,102
0,66,92,0
0,57,70,0
0,36,80,0
0,42,96,0
0,50,101,0
0,42,48,146
0,62,106,0
0,78,111,146
0,40,96,0
0,45,80,0
0,62,113,0
0,76,104,26
0,26,88,12
0,36,64,0
0,42,48,0
0,50,101,0
0,74,90,46
0,26,95,8
0,36,80,0
0,42,96,0
0,62,109,0
0,42,48,30
0,62,113,0
0,73,104,20
0,26,95,50
0,36,64,0
0,24,106,34
0,40,96,0
0,45,80,0
0,50,101,0
0,71,101,46
0,28,106,4
0,36,64,0
0,42,48,0
0,62,113,0
0,64,71,2
0,59,71,0
0,55,71,0
0,52,71,0
0,71,117,24
0,64,109,0
0,59,98,0
0,67,109,0
0,62,109,0
0,59,92,0
0,36,80,0
0,42,96,0
0,64,101,0
0,62,106,0
0,67,106,0
0,59,104,0
0,52,98,0
0,42,48,30
0,64,109,0
0,79,104,16
0,40,96,146
0,45,80,0
0,64,109,0
0,69,101,138
0,28,104,0
0,36,64,0
0,42,48,0
0,52,101,0
0,28,106,138
0,36,80,0
0,42,96,0
0,64,109,0
0,42,48,116
0,64,113,0
0,74,113,2
0,40,96,0
0,45,80,0
0,52,98,0
0,28,106,138
0,36,64,0
0,42,48,0
0,64,113,0
0,28,106,70
0,59,56,0
0,36,80,0
0,42,96,0
0,52,104,0
0,42,48,142
0,64,109,0
0,79,101,12
0,40,96,98
0,45,80,0
0,64,113,0
0,79,88,4
0,71,109,22
0,28,88,0
0,67,92,0
0,36,64,0
0,42,48,0
0,52,101,0
0,79,88,8
0,28,95,122
0,36,80,0
0,42,96,0
0,64,109,0
0,79,95,8
0,42,48,82
0,64,109,0
0,78,104,10
0,28,95,50
0,36,64,0
0,26,106,1
0,40,96,0
0,45,80,0
0,52,98,0
0,31,106,15
0,36,64,0
0,42,48,0
0,64,109,0
0,76,88,6
0,67,71,2
0,62,71,0
0,59,71,0
0,55,71,0
0,67,106,24
0,62,109,0
0,62,109,0
0,67,104,0
0,59,98,0
0,36,80,0
0,42,96,0
0,67,113,0
0,62,117,0
0,59,109,0
0,50,109,0
0,42,48,50
0,62,113,0
0,74,80,16
0,40,96,146
0,45,80,0
0,62,117,0
0,31,104,142
0,36,64,0
0,42,48,0
0,50,104,0
0,31,106,138
0,36,80,0
0,42,96,0
0,62,117,0
0,42,48,146
0,62,113,0
0,40,96,146
0,45,80,0
0,50,104,0
0,31,106,70
0,36,64,0
0,42,48,0
0,62,117,0
0,72,92,20
0,65,71,2
0,60,71,0
0,57,71,0
0,53,71,0
0,69,106,18
0,29,98,0
0,57,113,0
0,65,98,0
0,60,92,0
0,65,92,0
0,60,98,0
0,57,98,0
0,36,80,0
0,42,96,0
0,60,101,0
0,65,104,0
0,57,109,0
0,48,106,0
0,42,48,50
0,60,104,0
0,72,73,12
0,40,96,90
0,45,80,0
0,60,109,0
0,72,73,4
0,29,92,98
0,72,70,0
0,36,64,0
0,42,48,0
0,48,106,0
0,36,106,98
0,77,92,0
0,36,80,0
0,42,96,0
0,60,104,0
0,29,95,58
0,72,78,0
0,42,48,0
0,60,113,0
0,36,64,46
0,74,101,50
0,40,96,0
0,45,80,0
0,48,104,0
0,36,64,142
0,42,48,0
0,60,106,0
0,62,71,2
0,57,71,0
0,54,71,0
0,50,71,0
0,62,125,24
0,26,113,0
0,62,113,0
