track,note,velocity,time
3,31,127,24420
3,31,0,90
3,31,118,30
3,31,0,94
3,34,127,26
3,34,0,90
3,34,127,30
3,34,0,80
3,34,126,40
3,34,0,140
3,36,127,100
3,36,0,130
3,38,124,110
3,38,0,130
3,41,126,110
3,41,0,130
3,43,127,110
3,43,0,120
3,31,127,120
3,31,0,480
3,31,126,1680
3,31,0,90
3,31,118,30
3,31,0,94
3,34,127,26
3,34,0,90
3,34,127,30
3,34,0,80
3,34,126,40
3,34,0,140
3,36,126,100
3,36,0,130
3,38,125,110
3,38,0,130
3,41,126,110
3,41,0,130
3,43,127,110
3,43,0,120
3,31,127,120
3,31,0,480
3,29,126,480
3,29,0,480
3,27,127,0
3,27,0,480
3,31,126,240
3,31,0,90
3,31,118,30
3,31,0,94
3,34,127,26
3,34,0,90
3,34,127,30
3,34,0,80
3,34,126,40
3,34,0,140
3,36,126,100
3,36,0,130
3,38,125,110
3,38,0,130
3,41,127,110
3,41,0,150
3,43,126,90
3,43,0,120
3,31,126,120
3,31,0,480
3,31,127,1680
3,31,0,90
3,31,118,30
3,31,0,94
3,34,127,26
3,34,0,90
3,34,127,30
3,34,0,80
3,34,126,40
3,34,0,140
3,36,127,100
3,36,0,130
3,38,124,110
3,38,0,130
3,41,126,110
3,41,0,130
3,43,127,110
3,43,0,140
3,27,127,100
3,27,0,480
3,34,90,360
3,27,126,120
3,34,0,9
3,27,0,151
3,27,127,80
3,27,0,160
3,26,127,80
3,26,0,160
3,26,126,80
3,26,0,160
3,24,126,80
3,24,0,480
3,24,113,480
3,24,0,240
3,36,120,10
3,36,0,220
3,36,127,10
3,36,0,90
3,36,115,150
3,36,0,40
3,31,126,200
3,31,0,480
3,26,113,360
3,26,0,120
3,31,126,0
3,31,0,160
3,31,126,80
3,31,0,240
3,29,127,0
3,29,0,120
3,29,127,120
3,29,0,240
3,24,126,0
3,24,0,480
3,24,126,720
3,24,0,240
3,24,127,240
3,24,0,240
3,31,127,0
3,31,0,480
3,27,126,480
3,27,0,480
3,29,126,480
3,29,0,510
3,24,127,450
3,24,0,520
3,31,122,440
3,31,0,130
3,31,127,110
3,31,0,90
3,31,119,30
3,31,0,94
3,34,126,26
3,34,0,90
3,34,127,30
3,34,0,80
3,34,126,40
3,34,0,140
3,36,126,100
3,36,0,130
3,38,125,110
3,38,0,130
3,41,127,110
3,41,0,130
3,43,126,110
3,43,0,120
3,31,126,120
3,31,0,480
3,31,127,1680
3,31,0,90
3,31,119,30
3,31,0,94
3,34,126,26
3,34,0,90
3,34,126,30
3,34,0,80
3,34,127,40
3,34,0,140
3,36,126,100
3,36,0,130
3,38,125,110
3,38,0,130
3,41,127,110
3,41,0,130
3,43,126,110
3,43,0,120
3,31,127,120
3,31,0,530
3,29,126,430
3,29,0,100
3,29,126,20
3,29,0,120
3,41,127,0
3,41,0,100
3,29,127,20
3,29,0,120
3,27,126,0
3,27,0,480
3,31,104,0
3,31,0,180
3,31,127,60
3,31,0,90
3,31,119,30
3,31,0,94
3,34,126,26
3,34,0,90
3,34,126,30
3,34,0,80
3,34,127,40
3,34,0,140
3,36,126,100
3,36,0,130
3,38,125,110
3,38,0,130
3,41,127,110
3,41,0,150
3,43,126,90
3,43,0,120
3,31,127,120
3,31,0,480
3,31,126,1680
3,31,0,90
3,31,118,30
3,31,0,94
3,34,127,26
3,34,0,90
3,34,127,30
3,34,0,80
3,34,126,40
3,34,0,140
3,36,126,100
3,36,0,130
3,38,125,110
3,38,0,130
3,41,127,110
3,41,0,130
3,43,126,110
3,43,0,140
3,27,126,100
3,27,0,480
3,34,91,360
3,27,126,120
3,34,0,9
3,27,0,151
3,27,127,80
3,27,0,160
3,26,127,80
3,26,0,160
3,26,126,80
3,26,0,160
3,24,127,80
3,24,0,480
3,24,120,480
3,24,0,30
3,24,126,210
3,24,0,220
3,24,121,20
3,24,0,30
3,24,127,210
3,24,0,240
3,31,126,0
3,31,0,480
3,26,112,360
3,26,0,120
3,31,127,0
3,31,0,160
3,31,127,80
3,31,0,240
3,29,126,0
3,29,0,120
3,29,126,120
3,29,0,240
3,24,127,0
3,24,0,500
3,24,120,460
3,24,0,30
3,24,127,210
3,36,123,240
3,24,0,470
3,36,0,0
3,31,126,10
3,31,0,480
3,27,127,480
3,27,0,480
3,29,126,480
3,29,0,510
3,24,126,450
3,24,0,520
3,31,127,680
3,31,0,90
3,31,119,30
3,31,0,94
3,34,126,26
3,34,0,90
3,34,126,30
3,34,0,80
3,34,127,40
3,34,0,140
3,36,127,100
3,36,0,130
3,38,124,110
3,38,0,130
3,41,126,110
3,41,0,130
3,43,127,110
3,43,0,120
3,31,126,120
3,31,0,480
3,29,127,480
3,29,0,930
3,34,127,30
3,34,0,500
3,34,126,220
3,34,0,130
3,36,127,110
3,36,0,240
3,38,126,0
3,38,0,239
3,36,126,1
3,36,0,228
3,34,127,12
3,34,0,240
3,31,127,0
3,31,0,500
3,31,126,220
3,31,0,140
3,33,126,100
3,33,0,240
3,34,127,0
3,34,0,230
3,33,127,10
3,33,0,228
3,31,126,12
3,31,0,215
3,26,126,25
3,26,0,500
3,26,107,220
3,26,0,30
3,30,126,210
3,30,0,510
3,31,127,450
3,31,0,500
3,31,111,220
3,31,0,60
3,31,126,60
3,31,0,60
3,33,127,60
3,33,0,240
3,34,126,0
3,34,0,239
3,33,126,1
3,33,0,228
3,31,127,12
3,31,0,240
3,27,127,0
3,27,0,500
3,27,122,220
3,27,0,90
3,29,126,150
3,29,0,240
3,31,125,0
3,31,0,239
3,29,127,1
3,29,0,210
3,27,126,30
3,27,0,240
3,29,126,0
3,29,0,500
3,29,123,220
3,29,0,90
3,31,126,150
3,31,0,240
3,33,125,0
3,33,0,239
3,31,127,1
3,31,0,210
3,29,126,30
3,29,0,240
3,31,127,0
3,31,0,500
3,31,122,220
3,31,0,150
3,33,126,90
3,33,0,240
3,34,127,0
3,34,0,239
3,33,127,1
3,33,0,210
3,31,126,30
3,31,0,240
3,26,126,0
3,26,0,500
3,26,123,220
3,26,0,240
3,33,125,0
3,33,0,120
3,38,126,120
3,38,0,239
3,26,126,1
3,26,0,180
3,26,127,60
3,26,0,240
3,27,126,0
3,27,0,500
3,29,127,460
3,29,0,500
3,31,127,460
3,31,0,500
3,31,126,220
3,31,0,140
3,34,127,100
3,34,0,190
3,36,126,50
3,36,0,180
3,34,126,60
3,34,0,228
3,34,127,12
3,34,0,215
3,27,127,25
3,27,0,500
3,29,126,460
3,29,0,500
3,31,126,460
3,31,0,500
3,31,127,220
3,31,0,140
3,36,127,12
3,36,0,379
3,34,120,0
3,34,0,200
3,34,126,40
3,34,0,240
3,27,127,0
3,27,0,500
3,29,126,460
3,29,0,500
3,31,127,460
3,31,0,500
3,31,127,220
3,31,0,140
3,34,126,100
3,34,0,190
3,36,127,50
3,36,0,180
3,34,126,60
3,34,0,228
3,34,126,12
3,34,0,215
3,27,127,25
3,27,0,500
3,27,117,220
3,27,0,30
3,29,126,210
3,29,0,500
3,29,114,220
3,29,0,30
3,31,127,210
3,31,0,500
3,29,127,220
3,29,0,140
3,31,126,100
3,31,0,480
3,29,126,0
3,29,0,480
3,34,127,0
3,34,0,500
3,34,126,220
3,34,0,130
3,36,127,110
3,36,0,240
3,38,127,0
3,38,0,239
3,36,126,1
3,36,0,228
3,34,127,12
3,34,0,240
3,31,126,0
3,31,0,500
3,31,126,220
3,31,0,140
3,33,127,100
3,33,0,240
3,34,127,0
3,34,0,230
3,33,126,10
3,33,0,228
3,31,126,12
3,31,0,215
3,26,127,25
3,26,0,500
3,26,107,220
3,26,0,30
3,30,126,210
3,30,0,510
3,31,126,450
3,31,0,500
3,31,111,220
3,31,0,60
3,31,126,60
3,31,0,60
3,33,127,60
3,33,0,240
3,34,127,0
3,34,0,239
3,33,126,1
3,33,0,228
3,31,127,12
3,31,0,240
3,27,126,0
3,27,0,500
3,29,126,460
3,29,0,500
3,31,127,460
3,31,0,500
3,31,127,220
3,31,0,140
3,34,126,100
3,34,0,190
3,36,126,50
3,36,0,180
3,34,127,60
3,34,0,228
3,34,127,12
3,34,0,215
3,27,126,25
3,27,0,500
3,29,126,460
3,29,0,500
3,31,127,460
3,31,0,500
3,31,126,220
3,31,0,140
3,36,127,12
3,36,0,379
3,34,121,0
3,34,0,200
3,34,126,40
3,34,0,240
3,27,127,0
3,27,0,500
3,29,126,460
3,29,0,500
3,31,126,460
3,31,0,500
3,31,127,220
3,31,0,140
3,34,127,100
3,34,0,190
3,36,126,50
3,36,0,180
3,34,126,60
3,34,0,228
3,34,127,12
3,34,0,215
3,27,127,25
3,27,0,500
3,27,116,220
3,27,0,30
3,29,126,210
3,29,0,500
3,29,127,220
3,29,0,120
3,31,126,120
3,31,0,2350
3,31,123,50
3,43,127,0
3,31,0,771
3,43,0,0
3,30,120,0
3,42,123,0
3,30,0,1920
3,42,0,150
3,36,126,1159
3,36,0,23
3,31,126,249
3,31,0,90
3,31,119,30
3,31,0,94
3,34,127,26
3,34,0,90
3,34,126,30
3,34,0,80
3,34,126,40
3,34,0,140
3,36,127,100
3,36,0,130
3,38,125,110
3,38,0,130
3,41,126,110
3,41,0,130
3,43,126,110
3,43,0,120
3,31,127,120
3,31,0,480
3,31,126,1680
3,31,0,90
3,31,119,30
3,31,0,94
3,34,127,26
3,34,0,90
3,34,126,30
3,34,0,80
3,34,127,40
3,34,0,140
3,36,126,100
3,36,0,130
3,38,124,110
3,38,0,130
3,41,127,110
3,41,0,130
3,43,127,110
3,43,0,120
3,31,126,120
3,31,0,480
3,29,126,480
3,29,0,480
3,27,127,0
3,27,0,480
3,31,105,0
3,31,0,180
3,31,126,60
3,31,0,90
3,31,118,30
3,31,0,94
3,34,127,26
3,34,0,90
3,34,126,30
3,34,0,80
3,34,127,40
3,34,0,140
3,36,127,100
3,36,0,130
3,38,124,110
3,38,0,130
3,41,127,110
3,41,0,150
3,43,126,90
3,43,0,120
3,31,126,120
3,31,0,480
3,31,127,1680
3,31,0,90
3,31,119,30
3,31,0,94
3,34,126,26
3,34,0,90
3,34,126,30
3,34,0,80
3,34,127,40
3,34,0,140
3,36,127,100
3,36,0,130
3,38,124,110
3,38,0,130
3,41,126,110
3,41,0,130
3,43,127,110
3,43,0,140
3,27,126,100
3,27,0,480
3,34,91,360
3,27,127,120
3,34,0,9
3,27,0,151
3,27,126,80
3,27,0,160
3,26,127,80
3,26,0,160
3,26,126,80
3,26,0,160
3,24,126,80
3,24,0,480
3,24,121,480
3,24,0,30
3,24,127,210
3,24,0,220
3,24,120,20
3,24,0,30
3,24,126,210
3,24,0,240
3,31,127,0
3,31,0,480
3,26,113,360
3,26,0,120
3,31,126,0
3,31,0,160
3,31,126,80
3,31,0,240
3,29,127,0
3,29,0,120
3,29,126,120
3,29,0,240
3,24,127,0
3,24,0,500
3,24,121,460
3,24,0,30
3,24,126,210
3,36,123,240
3,24,0,470
3,36,0,0
3,31,126,10
3,31,0,480
3,27,126,480
3,27,0,480
3,29,127,480
3,29,0,510
3,24,127,450
3,24,0,520
3,31,126,680
3,31,0,90
3,31,118,30
3,31,0,94
3,34,127,26
3,34,0,90
3,34,127,30
3,34,0,80
3,34,126,40
3,34,0,140
3,36,126,100
3,36,0,130
3,38,125,110
3,38,0,130
3,41,126,110
3,41,0,130
3,43,127,110
3,43,0,120
3,31,127,120
3,31,0,480
3,29,126,480
3,29,0,930
3,34,127,30
3,34,0,500
3,34,126,220
3,34,0,130
3,36,126,110
3,36,0,240
3,38,127,0
3,38,0,239
3,36,127,1
3,36,0,228
3,34,126,12
3,34,0,240
3,31,126,0
3,31,0,500
3,31,127,220
3,31,0,140
3,33,127,100
3,33,0,240
3,34,126,0
3,34,0,230
3,33,126,10
3,33,0,228
3,31,127,12
3,31,0,215
3,26,126,25
3,26,0,500
3,26,107,220
3,26,0,30
3,30,127,210
3,30,0,510
3,31,126,450
3,31,0,500
3,31,111,220
3,31,0,60
3,31,126,60
3,31,0,60
3,33,126,60
3,33,0,240
3,34,127,0
3,34,0,239
3,33,127,1
3,33,0,228
3,31,126,12
3,31,0,240
3,27,126,0
3,27,0,500
3,27,123,220
3,27,0,90
3,29,127,150
3,29,0,240
3,31,124,0
3,31,0,239
3,29,126,1
3,29,0,210
3,27,127,30
3,27,0,240
3,29,126,0
3,29,0,500
3,29,123,220
3,29,0,90
3,31,127,150
3,31,0,240
3,33,124,0
3,33,0,239
3,31,127,1
3,31,0,210
3,29,126,30
3,29,0,240
3,31,126,0
3,31,0,500
3,31,123,220
3,31,0,150
3,33,127,90
3,33,0,240
3,34,126,0
3,34,0,239
3,33,126,1
3,33,0,210
3,31,127,30
3,31,0,240
3,26,127,0
3,26,0,500
3,26,122,220
3,26,0,240
3,33,124,0
3,33,0,120
3,38,127,120
3,38,0,239
3,26,126,1
3,26,0,180
3,26,127,60
3,26,0,240
3,27,127,0
3,27,0,500
3,29,126,460
3,29,0,500
3,31,127,460
3,31,0,500
3,31,126,220
3,31,0,140
3,34,126,100
3,34,0,190
3,36,127,50
3,36,0,180
3,34,127,60
3,34,0,228
3,34,126,12
3,34,0,215
3,27,126,25
3,27,0,500
3,29,127,460
3,29,0,500
3,31,127,460
3,31,0,500
3,31,126,220
3,31,0,140
3,36,126,12
3,36,0,379
3,34,121,0
3,34,0,200
3,34,126,40
3,34,0,240
3,27,127,0
3,27,0,500
3,29,127,460
3,29,0,500
3,31,126,460
3,31,0,500
3,31,127,220
3,31,0,140
3,34,126,100
3,34,0,190
3,36,126,50
3,36,0,180
3,34,127,60
3,34,0,228
3,34,127,12
3,34,0,215
3,27,126,25
3,27,0,500
3,27,116,220
3,27,0,30
3,29,127,210
3,29,0,500
3,29,115,220
3,29,0,30
3,31,126,210
3,31,0,500
3,29,126,220
3,29,0,140
3,31,127,100
3,31,0,480
3,29,126,0
3,29,0,480
3,34,127,0
3,34,0,500
3,34,127,220
3,34,0,130
3,36,126,110
3,36,0,240
3,38,127,0
3,38,0,239
3,36,126,1
3,36,0,228
3,34,126,12
3,34,0,240
3,31,127,0
3,31,0,500
3,31,127,220
3,31,0,140
3,33,126,100
3,33,0,240
3,34,126,0
3,34,0,230
3,33,127,10
3,33,0,228
3,31,127,12
3,31,0,215
3,26,126,25
3,26,0,500
3,26,106,220
3,26,0,30
3,30,127,210
3,30,0,510
3,31,126,450
3,31,0,500
3,31,111,220
3,31,0,60
3,31,127,60
3,31,0,60
3,33,126,60
3,33,0,240
3,34,127,0
3,34,0,239
3,33,126,1
3,33,0,228
3,31,126,12
3,31,0,240
3,27,127,0
3,27,0,500
3,29,127,460
3,29,0,500
3,31,126,460
3,31,0,500
3,31,126,220
3,31,0,140
3,34,127,100
3,34,0,190
3,36,127,50
3,36,0,180
3,34,126,60
3,34,0,228
3,34,126,12
3,34,0,215
3,27,127,25
3,27,0,500
3,29,126,460
3,29,0,500
3,31,127,460
3,31,0,500
3,31,127,220
3,31,0,140
3,36,126,12
3,36,0,379
3,34,121,0
3,34,0,200
3,34,126,40
3,34,0,240
3,27,126,0
3,27,0,500
3,29,127,460
3,29,0,500
3,31,127,460
3,31,0,500
3,31,126,220
3,31,0,140
3,34,126,100
3,34,0,190
3,36,127,50
3,36,0,180
3,34,127,60
3,34,0,228
3,34,126,12
3,34,0,215
3,27,126,25
3,27,0,500
3,27,117,220
3,27,0,30
3,29,126,210
3,29,0,500
3,55,127,340
3,55,0,45
3,31,127,75
3,38,126,2160
3,31,0,18
3,38,0,221
3,41,113,1
3,53,98,240
3,53,0,220
3,41,0,20
3,55,126,0
3,55,0,1702
3,38,127,1635
3,38,0,5
3,31,127,244
3,31,0,90
3,31,118,30
3,31,0,94
3,34,126,26
3,34,0,90
3,34,127,30
3,34,0,80
3,34,127,40
3,34,0,140
3,36,126,100
3,36,0,130
3,38,124,110
3,38,0,130
3,41,127,110
3,41,0,130
3,43,126,110
3,43,0,120
3,31,127,120
3,31,0,480
3,31,127,1680
3,31,0,90
