track,note,velocity,time
4,23,117,41660
4,23,108,120
4,23,117,120
4,23,109,120
4,23,116,120
4,23,109,120
4,23,116,120
4,23,108,120
4,23,117,120
4,23,109,120
4,23,116,120
4,23,108,120
4,23,117,120
4,23,109,120
4,23,116,120
4,23,108,120
4,23,117,120
4,23,108,120
4,23,117,120
4,23,109,120
4,23,116,120
4,23,109,120
4,23,116,120
4,23,108,120
4,23,117,120
4,23,109,120
4,23,116,120
4,23,108,120
4,30,99,120
4,33,99,60
4,35,98,60
4,38,98,60
4,23,117,60
4,23,108,120
4,23,117,120
4,23,109,120
4,23,116,120
4,23,109,120
4,23,116,120
4,23,108,120
4,23,117,120
4,23,109,120
4,23,116,120
4,23,108,120
4,23,117,120
4,23,109,120
4,23,116,120
4,23,108,120
4,23,117,120
4,23,108,120
4,23,117,120
4,23,109,120
4,23,116,120
4,23,109,120
4,23,116,120
4,23,108,120
4,23,117,120
4,23,109,120
4,23,116,120
4,23,108,120
4,23,117,120
4,23,109,120
4,30,116,120
4,33,108,120
4,35,117,120
4,35,108,120
4,35,117,120
4,35,109,120
4,37,116,120
4,37,109,120
4,37,116,120
4,37,108,120
4,38,117,120
4,38,109,120
4,38,116,120
4,38,108,120
4,40,117,120
4,40,109,120
4,40,116,120
4,40,108,120
4,31,117,120
4,31,108,120
4,31,117,120
4,31,109,120
4,31,116,120
4,31,109,120
4,31,116,120
4,31,108,120
4,31,117,120
4,31,109,120
4,31,116,120
4,31,108,120
4,30,117,120
4,30,109,120
4,30,116,120
4,30,108,120
4,28,117,120
4,28,108,120
4,28,117,120
4,28,109,120
4,28,116,120
4,28,109,120
4,28,116,120
4,28,108,120
4,24,117,120
4,24,109,120
4,24,116,120
4,24,108,120
4,24,117,120
4,24,109,120
4,24,116,120
4,24,108,120
4,28,117,120
4,28,108,120
4,28,117,120
4,28,109,120
4,28,116,120
4,28,109,120
4,28,116,120
4,28,108,120
4,24,117,120
4,24,109,120
4,24,116,120
4,24,108,120
4,24,117,120
4,24,109,120
4,24,116,120
4,24,108,120
4,33,117,120
4,33,108,120
4,33,117,120
4,33,109,120
4,33,116,120
4,33,109,120
4,33,116,120
4,33,108,120
4,33,117,120
4,33,109,120
4,33,116,120
4,33,108,120
4,33,117,120
4,33,109,120
4,33,116,120
4,33,108,120
4,26,117,120
4,26,108,120
4,26,117,120
4,26,109,120
4,26,116,120
4,26,109,120
4,26,116,120
4,26,108,120
4,31,117,120
4,31,109,120
4,31,116,120
4,31,108,120
4,31,117,120
4,31,109,120
4,31,116,120
4,31,108,120
4,26,117,120
4,26,108,120
4,26,117,120
4,26,109,120
4,26,116,120
4,26,109,120
4,26,116,120
4,26,108,120
4,24,117,120
4,24,109,120
4,24,116,120
4,24,108,120
4,24,117,120
4,24,109,120
4,24,116,120
4,24,108,120
4,31,117,120
4,31,108,120
4,31,117,120
4,31,109,120
4,31,116,120
4,31,109,120
4,31,116,120
4,31,108,120
4,33,117,120
4,33,109,120
4,33,116,120
4,33,108,120
4,33,117,120
4,33,109,120
4,33,116,120
4,33,108,120
4,34,117,120
4,34,108,120
4,34,117,120
4,34,109,120
4,34,116,120
4,34,109,120
4,34,116,120
4,34,108,120
4,36,117,120
4,36,109,120
4,36,116,120
4,36,108,120
4,33,109,120
4,36,109,60
4,38,108,60
4,41,108,60
4,26,117,60
4,26,108,120
4,26,117,120
4,26,109,120
4,26,116,120
4,26,109,120
4,26,116,120
4,26,108,120
4,31,117,120
4,31,109,120
4,31,116,120
4,31,108,120
4,31,117,120
4,31,109,120
4,31,116,120
4,31,108,120
4,26,117,120
4,26,108,120
4,26,117,120
4,26,109,120
4,26,116,120
4,26,109,120
4,26,116,120
4,26,108,120
4,24,117,120
4,24,109,120
4,24,116,120
4,24,108,120
4,24,117,120
4,24,109,120
4,24,116,120
4,24,108,120
4,31,117,120
4,31,108,120
4,31,117,120
4,31,109,120
4,31,116,120
4,31,109,120
4,31,116,120
4,31,108,120
4,33,117,120
4,33,109,120
4,33,116,120
4,33,108,120
4,33,117,120
4,33,109,120
4,33,116,120
4,33,108,120
4,34,117,120
4,34,108,120
4,34,117,120
4,34,109,120
4,34,116,120
4,34,109,120
4,34,116,120
4,34,108,120
4,36,117,120
4,36,109,120
4,36,116,120
4,36,108,120
4,33,109,120
4,36,109,60
4,38,108,60
4,41,108,60
4,26,117,60
4,23,116,7680
4,23,109,120
4,23,117,120
4,23,108,120
4,23,117,120
4,23,108,120
4,23,116,120
4,23,109,120
4,23,117,120
4,23,108,120
4,23,116,120
4,23,109,120
4,23,117,120
4,23,108,120
4,23,116,120
4,23,109,120
4,23,116,120
4,23,109,120
4,23,117,120
4,23,108,120
4,23,117,120
4,23,108,120
4,23,116,120
4,23,109,120
4,23,117,120
4,23,108,120
4,23,116,120
4,23,109,120
4,23,117,120
4,23,108,120
4,30,116,120
4,33,109,120
4,35,116,120
4,35,109,120
4,35,117,120
4,35,108,120
4,37,117,120
4,37,108,120
4,37,116,120
4,37,109,120
4,38,117,120
4,38,108,120
4,38,116,120
4,38,109,120
4,40,117,120
4,40,108,120
4,40,116,120
4,40,109,120
4,31,116,120
4,31,109,120
4,31,117,120
4,31,108,120
4,31,117,120
4,31,108,120
4,31,116,120
4,31,109,120
4,31,117,120
4,31,108,120
4,31,116,120
4,31,109,120
4,30,117,120
4,30,108,120
4,30,116,120
4,30,109,120
4,28,116,120
4,28,109,120
4,28,117,120
4,28,108,120
4,28,117,120
4,28,108,120
4,28,116,120
4,28,109,120
4,24,117,120
4,24,108,120
4,24,116,120
4,24,109,120
4,24,117,120
4,24,108,120
4,24,116,120
4,24,109,120
4,28,116,120
4,28,109,120
4,28,117,120
4,28,108,120
4,28,117,120
4,28,108,120
4,28,116,120
4,28,109,120
4,24,117,120
4,24,108,120
4,24,116,120
4,24,109,120
4,24,117,120
4,24,108,120
4,24,116,120
4,24,109,120
4,33,116,120
4,33,109,120
4,33,117,120
4,33,108,120
4,33,117,120
4,33,108,120
4,33,116,120
4,33,109,120
4,33,117,120
4,33,108,120
4,33,116,120
4,33,109,120
4,33,117,120
4,33,108,120
4,33,116,120
4,33,109,120
4,26,116,120
4,26,109,120
4,26,117,120
4,26,108,120
4,26,117,120
4,26,108,120
4,26,116,120
4,26,109,120
4,31,117,120
4,31,108,120
4,31,116,120
4,31,109,120
4,31,117,120
4,31,108,120
4,31,116,120
4,31,109,120
4,26,116,120
4,26,109,120
4,26,117,120
4,26,108,120
4,26,117,120
4,26,108,120
4,26,116,120
4,26,109,120
4,24,117,120
4,24,108,120
4,24,116,120
4,24,109,120
4,24,117,120
4,24,108,120
4,24,116,120
4,24,109,120
4,31,116,120
4,31,109,120
4,31,117,120
4,31,108,120
4,31,117,120
4,31,108,120
4,31,116,120
4,31,109,120
4,33,117,120
4,33,108,120
4,33,116,120
4,33,109,120
4,33,117,120
4,33,108,120
4,33,116,120
4,33,109,120
4,34,116,120
4,34,109,120
4,34,117,120
4,34,108,120
4,34,117,120
4,34,108,120
4,34,116,120
4,34,109,120
4,36,117,120
4,36,108,120
4,36,116,120
4,36,109,120
4,33,109,120
4,36,108,60
4,38,108,60
4,41,109,60
4,26,116,60
4,26,109,120
4,26,117,120
4,26,108,120
4,26,117,120
4,26,108,120
4,26,116,120
4,26,109,120
4,31,117,120
4,31,108,120
4,31,116,120
4,31,109,120
4,31,117,120
4,31,108,120
4,31,116,120
4,31,109,120
4,26,116,120
4,26,109,120
4,26,117,120
4,26,108,120
4,26,117,120
4,26,108,120
4,26,116,120
4,26,109,120
4,24,117,120
4,24,108,120
4,24,116,120
4,24,109,120
4,24,117,120
4,24,108,120
4,24,116,120
4,24,109,120
4,31,116,120
4,31,109,120
4,31,117,120
4,31,108,120
4,31,117,120
4,31,108,120
4,31,116,120
4,31,109,120
4,33,117,120
4,33,108,120
4,33,116,120
4,33,109,120
4,33,117,120
4,33,108,120
4,33,116,120
4,33,109,120
4,34,116,120
4,34,109,120
4,34,117,120
4,34,108,120
4,34,117,120
4,34,108,120
4,34,116,120
4,34,109,120
4,36,117,120
4,36,108,120
4,36,116,120
4,36,109,120
4,33,109,120
4,36,108,60
4,38,108,60
4,41,109,60
4,26,116,60
4,26,109,120
4,26,117,120
4,26,108,120
4,26,117,120
4,26,108,120
4,26,116,120
4,26,109,120
4,31,117,120
4,31,108,120
4,31,116,120
4,31,109,120
4,31,117,120
4,31,108,120
4,31,116,120
4,31,109,120
4,26,116,120
4,26,109,120
4,26,117,120
4,26,108,120
4,26,117,120
4,26,108,120
4,26,116,120
4,26,109,120
4,24,117,120
4,24,108,120
4,24,116,120
4,24,109,120
4,24,117,120
4,24,108,120
4,24,116,120
4,24,109,120
4,31,116,120
4,31,109,120
4,31,117,120
4,31,108,120
4,31,117,120
4,31,108,120
4,31,116,120
4,31,109,120
4,33,117,120
4,33,108,120
4,33,116,120
4,33,109,120
4,33,117,120
4,33,108,120
4,33,116,120
4,33,109,120
4,34,116,120
4,34,109,120
4,34,117,120
4,34,108,120
4,34,117,120
4,34,108,120
4,34,116,120
4,34,109,120
4,36,117,120
4,36,108,120
4,36,116,120
4,36,109,120
4,33,109,120
4,36,108,60
4,38,108,60
4,41,109,60
4,26,116,60
4,26,109,120
4,26,117,120
4,26,108,120
4,26,117,120
4,26,108,120
4,26,116,120
4,26,109,120
4,31,117,120
4,31,108,120
4,31,116,120
4,31,109,120
4,31,117,120
4,31,108,120
4,31,116,120
4,31,109,120
4,26,116,120
4,26,109,120
4,26,117,120
4,26,108,120
4,26,117,120
4,26,108,120
4,26,116,120
4,26,109,120
4,24,117,120
4,24,108,120
4,24,116,120
4,24,109,120
4,24,117,120
4,24,108,120
4,24,116,120
4,24,109,120
4,31,116,120
4,31,109,120
4,31,117,120
4,31,108,120
4,31,117,120
4,31,108,120
4,31,116,120
4,31,109,120
4,33,117,120
4,33,108,120
4,33,116,120
4,33,109,120
4,33,117,120
4,33,108,120
4,33,116,120
4,33,109,120
4,34,116,120
4,34,109,120
4,34,117,120
4,34,108,120
4,34,117,120
4,34,108,120
4,34,116,120
4,34,109,120
4,36,117,120
4,36,108,120
4,36,116,120
4,36,109,120
4,33,109,120
4,36,108,60
4,38,108,60
4,41,109,60
4,26,116,60
4,26,109,120
4,26,117,120
4,26,108,120
4,26,117,120
4,26,108,120
4,26,116,120
4,26,109,120
4,31,117,120
4,31,108,120
4,31,116,120
4,31,109,120
4,31,117,120
4,31,108,120
4,31,116,120
4,31,109,120
4,26,116,120
4,26,109,120
4,26,117,120
4,26,108,120
4,26,117,120
4,26,108,120
4,26,116,120
4,26,109,120
4,24,117,120
4,24,108,120
4,24,116,120
4,24,109,120
4,24,117,120
4,24,108,120
4,24,116,120
4,24,109,120
4,31,116,120
4,31,109,120
4,31,117,120
4,31,108,120
4,31,117,120
4,31,108,120
4,31,116,120
4,31,109,120
4,33,117,120
4,33,108,120
4,33,116,120
4,33,109,120
4,33,117,120
4,33,108,120
4,33,116,120
4,33,109,120
4,34,116,120
4,34,109,120
4,34,117,120
4,34,108,120
4,34,117,120
4,34,108,120
4,34,116,120
4,34,109,120
4,36,117,120
4,36,108,120
4,36,116,120
4,36,109,120
4,33,109,120
4,36,108,60
4,38,108,60
4,41,109,60
4,26,116,60
5,64,95,65395
5,67,94,0
5,66,115,0
5,69,115,0
5,67,96,0
5,71,97,0
5,64,94,720
5,67,94,0
5,66,115,0
5,69,115,0
5,67,96,0
5,71,96,0
5,57,73,120
5,64,87,60
5,69,100,60
5,60,84,8640
5,67,109,240
5,65,112,6000
5,60,101,240
5,55,95,0
5,67,112,0
5,52,95,120
5,60,112,0
5,55,90,120
5,60,105,120
5,60,85,6480
5,67,108,240
5,65,112,6000
5,60,101,240
5,55,95,0
5,67,112,0
5,52,94,120
5,60,113,0
5,55,90,120
5,60,105,120
5,60,85,44880
5,67,108,240
5,65,113,6000
5,60,100,240
5,55,94,0
5,67,113,0
5,52,95,120
5,60,112,0
5,55,90,120
5,60,105,120
5,60,85,6480
5,67,108,240
5,65,112,6000
5,60,101,240
5,55,94,0
5,67,113,0
5,52,95,120
5,60,112,0
5,55,91,120
5,60,104,120
5,60,84,6480
5,67,109,240
5,65,113,6000
5,60,100,240
5,55,94,0
5,67,113,0
5,52,95,120
5,60,112,240
5,72,104,120
5,60,105,120
5,60,84,6000
5,67,109,240
5,65,113,6000
5,60,100,240
5,55,95,0
5,67,112,0
5,52,94,120
5,60,113,0
5,55,91,120
5,60,104,120
5,60,84,6480
5,67,109,240
5,65,113,6000
5,60,100,240
5,55,94,0
5,67,113,0
5,52,94,120
5,60,113,240
5,72,105,120
5,60,104,120
6,78,105,9210
6,78,104,25
6,78,105,25
6,78,105,25
6,78,104,25
6,79,105,25
6,78,104,25
6,74,104,240
6,74,105,25
6,74,105,25
6,76,104,25
6,74,104,25
6,74,105,240
6,74,105,25
6,74,104,25
6,74,104,25
6,74,105,25
6,76,104,25
6,74,105,25
6,71,105,240
6,71,104,25
6,71,105,25
6,73,104,25
6,71,104,25
6,78,105,240
6,78,105,25
6,78,104,25
6,78,104,25
6,78,105,25
6,79,105,25
6,78,104,25
6,74,104,240
6,74,105,25
6,74,104,25
6,78,105,25
6,76,105,25
6,74,104,240
6,74,105,25
6,74,104,25
6,74,104,25
6,74,105,25
6,76,105,25
6,74,104,25
6,79,104,1200
6,71,105,25
6,76,105,480
6,78,104,25
6,79,104,25
6,78,105,25
6,76,104,25
6,71,105,25
6,67,105,480
6,69,104,25
6,71,105,25
6,76,104,25
6,78,104,15840
6,78,105,25
6,78,105,25
6,78,104,25
6,78,104,25
6,79,105,25
6,78,105,25
6,74,104,25
6,74,104,25
6,74,105,25
6,76,104,25
6,74,105,25
6,74,105,240
6,74,104,25
6,73,105,25
6,73,104,25
6,71,104,25
6,76,105,25
6,74,105,25
6,71,104,240
6,71,104,25
6,71,105,25
6,73,105,25
6,73,104,25
6,66,104,480
6,78,105,25
6,78,104,25
6,78,105,25
6,78,105,25
6,79,104,25
6,76,105,25
6,74,104,25
6,74,104,25
6,74,105,25
6,76,105,25
6,76,104,25
6,74,104,240
6,74,105,25
6,73,105,25
6,73,104,25
6,71,104,25
6,76,105,25
6,74,104,25
6,79,105,960
6,71,105,25
6,76,104,720
6,78,105,25
6,79,104,25
6,78,104,25
6,76,105,25
6,71,105,25
6,67,104,720
6,69,104,25
6,71,105,25
6,76,105,25
6,81,104,1920
6,79,104,25
6,81,105,25
6,79,104,25
6,81,105,960
6,79,105,25
6,81,104,25
6,79,105,25
6,72,104,25
6,79,104,960
6,77,105,25
6,76,105,25
6,76,104,25
6,79,104,1200
6,77,105,25
6,81,105,25
6,81,104,25
6,81,104,25
6,81,105,25
6,82,104,25
6,79,105,25
6,81,105,25
6,79,104,25
6,81,105,25
6,79,104,25
6,81,104,960
6,79,105,25
6,81,105,25
6,79,104,25
6,72,104,25
6,79,105,720
6,79,105,25
6,79,104,25
6,77,104,25
6,76,105,25
6,76,104,25
6,79,105,1200
6,77,105,25
6,81,104,265
6,81,105,25
6,81,104,25
6,82,104,25
6,77,105,25
6,81,105,25
6,78,104,10560
6,78,104,25
6,78,105,25
6,78,105,25
6,79,104,25
6,78,104,25
6,74,105,25
6,74,104,25
6,74,105,25
6,76,105,25
6,74,104,25
6,74,105,480
6,74,104,25
6,73,104,25
6,73,105,25
6,71,105,25
6,76,104,25
6,74,104,25
6,71,105,240
6,71,105,25
6,69,104,25
6,73,104,25
6,73,105,25
6,66,104,480
6,78,105,25
6,78,105,25
6,78,104,25
6,78,105,25
6,79,104,25
6,76,104,25
6,74,105,25
6,74,105,25
6,74,104,25
6,76,104,25
6,76,105,25
6,74,105,240
6,74,104,25
6,73,104,25
6,73,105,25
6,71,104,25
6,76,105,25
6,74,105,25
6,79,104,960
6,71,105,25
6,76,104,720
6,78,104,25
6,79,105,25
6,78,105,25
6,76,104,25
6,71,104,25
6,67,105,720
6,69,105,25
6,71,104,25
6,76,104,25
6,81,105,1920
