track,note,velocity,time
1,39,92,9639
1,39,0,37
1,41,93,59
1,41,0,39
1,39,92,57
1,39,0,52
1,34,108,44
1,34,0,342
1,39,114,42
1,39,0,187
1,31,95,53
1,31,0,112
1,34,108,32
1,34,0,422
1,44,101,58
1,44,0,42
1,41,92,54
1,41,0,32
1,39,76,16
1,39,0,30
1,38,108,18
1,38,0,39
1,41,99,9
1,41,0,39
1,34,112,9
1,34,0,357
1,39,104,27
1,39,0,238
1,31,108,2
1,31,0,142
1,34,117,2
1,34,0,622
1,39,101,2
1,39,0,7
1,32,101,2
1,32,0,622
1,32,101,2
1,32,0,46
1,34,104,2
1,36,114,96
1,34,0,1
1,36,0,324
1,31,101,59
1,34,82,240
1,31,0,1
1,34,0,48
1,34,101,95
1,34,0,354
1,39,98,30
1,39,0,231
1,31,88,9
1,31,0,44
1,34,80,4
1,34,0,58
1,34,112,38
1,34,0,357
1,39,104,27
1,39,0,238
1,31,108,2
1,31,0,142
1,34,117,2
1,34,0,622
1,39,101,2
1,39,0,7
1,32,101,2
1,32,0,622
1,32,101,2
1,32,0,46
1,34,104,2
1,36,114,96
1,34,0,1
1,36,0,324
1,31,101,59
1,34,82,240
1,31,0,1
1,34,0,48
1,34,101,95
1,34,0,559
1,39,95,17
1,39,0,39
1,41,92,9
1,41,0,35
1,36,78,13
1,36,0,85
1,36,111,11
1,36,0,449
1,36,72,31
1,36,0,15
1,36,101,33
1,36,0,42
1,26,95,6
1,26,0,20
1,26,80,28
1,26,0,15
1,26,99,33
1,26,0,71
1,27,108,25
1,27,0,331
1,34,78,5
1,34,0,32
1,39,101,16
1,39,0,37
1,41,95,11
1,41,0,34
1,39,98,14
1,39,0,95
1,38,75,1
1,38,0,18
1,38,120,30
1,38,0,121
1,36,90,23
1,36,0,340
1,34,98,44
1,34,0,229
1,29,92,11
1,29,0,29
1,34,108,19
1,34,0,64
1,32,123,32
1,32,0,773
1,34,112,2299
1,34,0,43
1,34,127,53
1,34,0,216
1,34,78,24
1,34,0,15
1,34,104,33
1,34,0,23
1,34,76,25
1,34,0,20
1,34,112,28
1,34,0,214
1,34,70,26
1,34,0,23
1,34,112,25
1,34,0,28
1,34,127,68
1,34,0,206
1,34,70,34
1,34,0,16
1,34,108,32
1,34,0,27
1,34,71,21
1,34,0,22
1,34,117,26
1,34,0,68
1,26,111,28
1,26,0,180
1,27,108,12
1,27,0,27
1,27,112,69
1,27,0,204
1,27,83,36
1,27,0,21
1,29,120,27
1,29,0,33
1,29,86,15
1,29,0,15
1,29,99,33
1,29,0,168
1,29,99,24
1,29,0,74
1,34,104,22
1,34,0,40
1,34,117,56
1,34,0,197
1,34,66,43
1,34,0,20
1,34,112,28
1,34,0,25
1,34,70,23
1,34,0,18
1,34,122,30
1,34,0,189
1,32,90,3
1,32,0,33
1,34,83,15
1,34,0,29
1,30,112,19
1,30,0,28
1,30,112,68
1,30,0,204
1,30,98,36
1,30,0,15
1,30,95,33
1,30,0,18
1,30,87,30
1,30,0,15
1,30,117,33
1,30,0,139
1,32,108,53
1,32,0,74
1,37,127,22
1,37,0,306
1,32,83,30
1,32,0,18
1,37,104,30
1,37,0,27
1,32,76,21
1,32,0,15
1,37,98,33
1,37,0,176
1,37,101,16
1,37,0,27
1,32,114,21
1,32,0,18
1,39,104,30
1,39,0,42
1,39,108,54
1,39,0,218
1,34,76,22
1,34,0,16
1,39,101,32
1,39,0,20
1,34,78,28
1,34,0,19
1,39,108,29
1,39,0,219
1,39,76,21
1,39,0,15
1,39,117,33
1,39,0,37
1,39,112,59
1,39,0,219
1,34,75,21
1,34,0,20
1,39,101,28
1,39,0,30
1,34,92,18
1,34,0,20
1,39,112,28
1,39,0,81
1,37,121,15
1,37,0,70
1,36,101,26
1,36,0,69
1,34,112,27
1,34,0,43
1,34,127,53
1,34,0,216
1,34,78,24
1,34,0,15
1,34,104,33
1,34,0,23
1,34,76,25
1,34,0,20
1,34,112,28
1,34,0,214
1,34,70,26
1,34,0,23
1,34,112,25
1,34,0,28
1,34,127,68
1,34,0,206
1,34,70,34
1,34,0,16
1,34,108,32
1,34,0,27
1,34,71,21
1,34,0,22
1,34,117,26
1,34,0,68
1,26,111,28
1,26,0,180
1,27,108,12
1,27,0,27
1,27,112,69
1,27,0,204
1,27,83,36
1,27,0,21
1,29,120,27
1,29,0,33
1,29,86,15
1,29,0,15
1,29,99,33
1,29,0,168
1,29,99,24
1,29,0,74
1,34,104,22
1,34,0,40
1,34,117,56
1,34,0,197
1,34,66,43
1,34,0,20
1,34,112,28
1,34,0,25
1,34,70,23
1,34,0,18
1,34,122,30
1,34,0,189
1,32,90,3
1,32,0,33
1,34,83,15
1,34,0,29
1,30,112,19
1,30,0,28
1,30,112,68
1,30,0,204
1,30,98,36
1,30,0,15
1,30,95,33
1,30,0,18
1,30,87,30
1,30,0,15
1,30,117,33
1,30,0,139
1,32,108,53
1,32,0,74
1,37,127,22
1,37,0,306
1,32,83,30
1,32,0,18
1,37,104,30
1,37,0,27
1,32,76,21
1,32,0,15
1,37,98,33
1,37,0,176
1,37,101,16
1,37,0,27
1,32,114,21
1,32,0,18
1,32,104,30
1,32,0,42
1,32,108,54
1,32,0,218
1,27,76,22
1,27,0,16
1,32,101,32
1,32,0,20
1,27,78,28
1,27,0,19
1,32,108,29
1,32,0,219
1,32,76,21
1,32,0,15
1,32,117,33
1,32,0,37
1,32,112,59
1,32,0,219
1,27,75,21
1,27,0,20
1,32,101,28
1,32,0,30
1,27,92,18
1,27,0,20
1,32,112,28
1,32,0,262
1,34,108,26
1,34,0,342
1,39,114,42
1,39,0,187
1,31,95,53
1,31,0,112
1,34,108,32
1,34,0,422
1,44,101,58
1,44,0,42
1,41,92,54
1,41,0,32
1,39,76,16
1,39,0,30
1,38,108,18
1,38,0,39
1,41,99,9
1,41,0,39
1,34,112,9
1,34,0,357
1,39,104,27
1,39,0,238
1,31,108,2
1,31,0,142
1,34,117,2
1,34,0,622
1,39,101,2
1,39,0,7
1,32,101,2
1,32,0,622
1,32,101,2
1,32,0,46
1,34,104,2
1,36,114,96
1,34,0,1
1,36,0,324
1,31,101,59
1,34,82,240
1,31,0,1
1,34,0,48
1,34,101,95
1,34,0,354
1,39,98,30
1,39,0,231
1,31,88,9
1,31,0,44
1,34,80,4
1,34,0,58
1,34,112,38
1,34,0,357
1,39,104,27
1,39,0,238
1,31,108,2
1,31,0,142
1,34,117,2
1,34,0,622
1,39,101,2
1,39,0,7
1,32,101,2
1,32,0,622
1,32,101,2
1,32,0,46
1,34,104,2
1,36,114,96
1,34,0,1
1,36,0,324
1,31,101,59
1,34,82,240
1,31,0,1
1,34,0,48
1,34,123,95
1,34,0,265
1,34,89,23
1,34,0,63
1,32,93,33
1,32,0,260
1,32,101,28
1,32,0,51
1,31,114,45
1,31,0,221
1,31,57,19
1,31,0,20
1,31,103,28
1,31,0,56
1,29,111,40
1,29,0,331
1,36,74,5
1,36,0,42
1,41,99,6
1,41,0,37
1,36,70,11
1,36,0,45
1,41,72,3
1,41,0,558
1,34,112,114
1,34,0,43
1,34,127,53
1,34,0,216
1,34,78,24
1,34,0,15
1,34,104,33
1,34,0,23
1,34,76,25
1,34,0,20
1,34,112,28
1,34,0,214
1,34,70,26
1,34,0,23
1,34,112,25
1,34,0,28
1,34,127,68
1,34,0,206
1,34,70,34
1,34,0,16
1,34,108,32
1,34,0,27
1,34,71,21
1,34,0,22
1,34,117,26
1,34,0,68
1,26,111,28
1,26,0,180
1,27,108,12
1,27,0,27
1,27,112,69
1,27,0,204
1,27,83,36
1,27,0,21
1,29,120,27
1,29,0,33
1,29,86,15
1,29,0,15
1,29,99,33
1,29,0,168
1,29,99,24
1,29,0,74
1,34,104,22
1,34,0,40
1,34,117,56
1,34,0,197
1,34,66,43
1,34,0,20
1,34,112,28
1,34,0,25
1,34,70,23
1,34,0,18
1,34,122,30
1,34,0,189
1,32,90,3
1,32,0,33
1,34,83,15
1,34,0,29
1,30,112,19
1,30,0,28
1,30,112,68
1,30,0,204
1,30,98,36
1,30,0,15
1,30,95,33
1,30,0,18
1,30,87,30
1,30,0,15
1,30,117,33
1,30,0,139
1,32,108,53
1,32,0,74
1,37,127,22
1,37,0,306
1,32,83,30
1,32,0,18
1,37,104,30
1,37,0,27
1,32,76,21
1,32,0,15
1,37,98,33
1,37,0,176
1,37,101,16
1,37,0,27
1,32,114,21
1,32,0,18
1,39,104,30
1,39,0,42
1,39,108,54
1,39,0,218
1,34,76,22
1,34,0,16
1,39,101,32
1,39,0,20
1,34,78,28
1,34,0,19
1,39,108,29
1,39,0,219
1,39,76,21
1,39,0,15
1,39,117,33
1,39,0,37
1,39,112,59
1,39,0,219
1,34,75,21
1,34,0,20
1,39,101,28
1,39,0,30
1,34,92,18
1,34,0,20
1,39,112,28
1,39,0,81
1,37,121,15
1,37,0,70
1,36,101,26
1,36,0,69
1,34,112,27
1,34,0,43
1,34,127,53
1,34,0,216
1,34,78,24
1,34,0,15
1,34,104,33
1,34,0,23
1,34,76,25
1,34,0,20
1,34,112,28
1,34,0,214
1,34,70,26
1,34,0,23
1,34,112,25
1,34,0,28
1,34,127,68
1,34,0,206
1,34,70,34
1,34,0,16
1,34,108,32
1,34,0,27
1,34,71,21
1,34,0,22
1,34,117,26
1,34,0,68
1,26,111,28
1,26,0,180
1,27,108,12
1,27,0,27
1,27,112,69
1,27,0,204
1,27,83,36
1,27,0,21
1,29,120,27
1,29,0,33
1,29,86,15
1,29,0,15
1,29,99,33
1,29,0,168
1,29,99,24
1,29,0,74
1,34,104,22
1,34,0,40
1,34,117,56
1,34,0,197
1,34,66,43
1,34,0,20
1,34,112,28
1,34,0,25
1,34,70,23
1,34,0,18
1,34,122,30
1,34,0,189
1,32,90,3
1,32,0,33
1,34,83,15
1,34,0,29
1,30,112,19
1,30,0,28
1,30,112,68
1,30,0,204
1,30,98,36
1,30,0,15
1,30,95,33
1,30,0,18
1,30,87,30
1,30,0,15
1,30,117,33
1,30,0,139
1,32,108,53
1,32,0,74
1,37,127,22
1,37,0,306
1,32,83,30
1,32,0,18
1,37,104,30
1,37,0,27
1,32,76,21
1,32,0,15
1,37,98,33
1,37,0,176
1,37,101,16
1,37,0,27
1,32,114,21
1,32,0,18
1,32,104,30
1,32,0,42
1,32,108,54
1,32,0,218
1,27,76,22
1,27,0,16
1,32,101,32
1,32,0,20
1,27,78,28
1,27,0,19
1,32,108,29
1,32,0,219
1,32,76,21
1,32,0,15
1,32,117,33
1,32,0,37
1,32,112,59
1,32,0,219
1,27,75,21
1,27,0,20
1,32,101,28
1,32,0,30
1,27,92,18
1,27,0,20
1,32,112,28
1,32,0,262
2,72,60,917
2,87,76,0
2,70,57,5
2,77,67,1
2,82,59,0
2,72,0,15
2,74,55,3
2,70,0,12
2,77,0,0
2,82,0,0
2,87,0,0
2,70,53,388
2,65,53,192
2,69,45,0
2,72,52,0
2,74,0,13
2,70,0,1
2,65,0,752
2,62,55,2
2,67,54,0
2,70,54,0
2,72,0,0
2,69,0,8
2,62,0,749
2,67,0,2
2,70,0,1
2,65,58,8
2,69,58,0
2,72,50,0
2,69,0,778
2,65,0,2
2,72,0,0
2,74,55,36
2,70,53,528
2,65,53,192
2,69,45,0
2,72,52,0
2,74,0,13
2,70,0,1
2,65,0,752
2,62,55,2
2,67,54,0
2,70,54,0
2,72,0,0
2,69,0,8
2,62,0,749
2,67,0,2
2,70,0,1
2,65,58,8
2,69,58,0
2,72,50,0
2,65,0,227
2,69,0,0
2,72,0,0
2,55,89,4996
2,58,89,0
2,60,89,0
2,55,0,377
2,58,0,0
2,60,0,0
2,60,74,3847
2,60,0,573
2,62,87,3
2,63,74,192
2,62,0,25
2,63,0,546
2,62,65,5
2,60,68,192
2,62,0,20
2,60,0,362
2,58,66,2
2,58,0,379
2,60,81,5
2,60,0,754
2,65,73,2318
2,77,64,0
2,65,0,1148
2,77,0,0
2,67,72,4
2,79,69,0
2,67,0,188
2,79,0,0
2,69,79,4
2,81,74,0
2,69,0,188
2,81,0,0
2,70,64,4
2,82,64,0
2,70,0,380
2,82,0,0
2,69,74,4
2,81,67,0
2,69,0,380
2,81,0,0
2,65,73,4
2,77,62,0
2,65,0,764
2,77,0,0
2,61,73,4
2,73,74,0
2,61,0,572
2,73,0,0
2,63,65,4
2,75,73,0
2,63,0,188
2,75,0,0
2,65,69,4
2,77,70,0
2,65,0,764
2,77,0,0
2,66,69,4
2,78,69,0
2,66,0,1484
2,78,0,0
2,65,73,52
2,77,64,0
2,65,0,1148
2,77,0,0
2,67,72,4
2,79,69,0
2,67,0,188
2,79,0,0
2,69,79,4
2,81,74,0
2,69,0,188
2,81,0,0
2,70,64,4
2,82,64,0
2,70,0,380
2,82,0,0
2,69,74,4
2,81,67,0
2,69,0,380
2,81,0,0
2,65,73,4
2,77,62,0
2,65,0,764
2,77,0,0
2,61,73,4
2,73,74,0
2,61,0,572
2,73,0,0
2,63,65,4
2,75,73,0
2,63,0,188
2,75,0,0
2,65,69,4
2,77,70,0
2,65,0,764
2,77,0,0
2,63,69,4
2,75,69,0
2,63,0,563
2,75,0,6
2,61,73,7
2,73,72,0
2,61,0,191
2,73,0,0
2,63,71,1
2,75,72,0
2,75,0,745
2,63,0,7
2,55,89,5008
2,58,89,0
2,60,89,0
2,55,0,377
2,58,0,0
2,60,0,0
2,46,111,3043
2,58,127,0
2,44,108,384
2,56,108,0
2,46,0,44
2,58,0,0
2,43,108,340
2,55,108,0
2,44,0,44
2,56,0,0
2,41,75,340
2,53,86,0
2,43,0,44
2,55,0,0
2,41,0,1104
2,53,0,0
2,65,73,40
2,77,64,0
2,65,0,1148
2,77,0,0
2,67,72,4
2,79,69,0
2,67,0,188
2,79,0,0
2,69,79,4
2,81,74,0
2,69,0,188
2,81,0,0
2,70,64,4
2,82,64,0
2,70,0,380
2,82,0,0
2,69,74,4
2,81,67,0
2,69,0,380
2,81,0,0
2,65,73,4
2,77,62,0
2,65,0,764
2,77,0,0
2,61,73,4
2,73,74,0
2,61,0,572
2,73,0,0
2,63,65,4
2,75,73,0
2,63,0,188
2,75,0,0
2,65,69,4
2,77,70,0
2,65,0,764
2,77,0,0
2,66,69,4
2,78,69,0
2,66,0,1484
2,78,0,0
2,65,73,52
2,77,64,0
2,65,0,1148
2,77,0,0
2,67,72,4
2,79,69,0
2,67,0,188
2,79,0,0
2,69,79,4
2,81,74,0
2,69,0,188
2,81,0,0
2,70,64,4
2,82,64,0
2,70,0,380
2,82,0,0
2,69,74,4
2,81,67,0
2,69,0,380
2,81,0,0
2,65,73,4
2,77,62,0
2,65,0,764
2,77,0,0
2,61,73,4
2,73,74,0
2,61,0,572
2,73,0,0
2,63,65,4
2,75,73,0
2,63,0,188
2,75,0,0
2,65,69,4
2,77,70,0
2,65,0,764
2,77,0,0
2,63,69,4
2,75,69,0
2,63,0,563
2,75,0,6
2,61,73,7
2,73,72,0
2,61,0,191
2,73,0,0
2,63,88,1
2,75,90,0
2,60,81,0
2,63,0,377
2,75,0,12
2,62,91,4
2,74,91,0
2,63,95,99
2,75,99,0
2,74,0,43
2,62,0,3
2,60,0,139
2,62,72,4
2,70,86,0
2,82,69,0
2,63,0,20
2,75,0,0
2,70,0,456
2,82,0,0
2,69,81,4
2,81,87,0
2,67,82,96
2,79,81,0
2,69,0,44
2,81,0,0
2,61,69,148
2,65,80,0
2,77,76,0
2,79,0,13
2,62,0,3
2,67,0,0
2,61,0,458
2,65,0,2
2,77,0,0
2,60,82,4
2,63,79,0
2,75,74,0
2,58,72,96
2,61,75,0
2,73,84,0
2,60,0,24
2,63,0,18
2,75,0,5
2,56,92,145
2,60,82,0
2,72,80,0
2,58,0,2
2,73,0,5
2,61,0,7
2,60,0,412
2,56,0,2
2,56,111,4
2,80,89,0
2,72,0,3
2,56,0,46
2,55,100,95
2,60,91,0
2,79,89,0
2,80,0,3
2,56,84,189
2,80,85,0
2,55,0,14
