track,note,velocity,time
0,45,121,0
0,45,96,0
0,45,0,22
0,45,0,12
0,45,124,0
0,45,85,0
0,45,0,22
0,45,117,0
0,52,94,0
0,45,0,22
0,45,118,0
0,45,77,0
0,45,0,22
0,45,115,0
0,45,94,0
0,45,0,22
0,45,0,12
0,45,109,0
0,52,71,0
0,45,0,22
0,45,111,0
0,45,78,0
0,45,0,22
0,45,104,0
0,45,98,0
0,45,0,22
0,45,104,14
0,52,78,0
0,45,0,22
0,45,104,0
0,45,84,0
0,45,0,22
0,45,101,0
0,45,68,0
0,45,0,22
0,45,91,0
0,52,67,0
0,45,0,22
0,45,90,14
0,45,75,0
0,45,0,22
0,45,90,0
0,45,97,0
0,45,0,22
0,45,87,0
0,52,97,0
0,45,0,22
0,45,84,0
0,45,75,0
0,45,0,22
0,45,82,0
0,45,95,0
0,45,0,22
0,45,0,12
0,45,84,0
0,45,84,0
0,45,0,22
0,45,86,0
0,52,90,0
0,45,0,22
0,45,90,0
0,45,74,0
0,45,0,22
0,45,91,0
0,45,72,0
0,45,0,22
0,45,0,12
0,45,92,0
0,52,81,0
0,45,0,22
0,45,95,0
0,45,86,0
0,45,0,22
0,45,101,0
0,45,85,0
0,45,0,22
0,45,104,14
0,52,81,0
0,45,0,22
0,45,101,0
0,45,64,0
0,45,0,22
0,45,109,0
0,45,72,0
0,45,0,22
0,45,105,0
0,52,83,0
0,45,0,22
0,45,110,14
0,45,70,0
0,45,0,22
0,45,110,0
0,45,92,0
0,45,0,22
0,45,113,0
0,52,96,0
0,45,0,22
0,45,122,0
0,45,81,0
0,45,0,22
0,45,120,0
0,21,125,0
0,33,125,0
0,45,121,0
0,45,98,0
0,45,0,22
0,45,0,12
0,45,117,0
0,45,80,0
0,45,0,22
0,45,119,0
0,52,97,0
0,45,0,22
0,45,114,0
0,45,80,0
0,45,0,22
0,45,114,0
0,52,87,0
0,57,96,0
0,45,93,0
0,45,0,22
0,45,0,12
0,52,0,10
0,57,0,3
0,45,113,0
0,52,69,0
0,45,0,22
0,45,112,0
0,52,75,0
0,57,87,0
0,61,82,0
0,45,78,0
0,45,0,22
0,45,108,0
0,45,97,0
0,45,0,22
0,45,100,14
0,52,72,0
0,45,0,22
0,45,102,0
0,45,89,0
0,45,0,22
0,45,97,0
0,45,109,0
0,45,70,0
0,45,0,22
0,45,91,0
0,52,70,0
0,45,0,22
0,45,89,2
0,52,82,0
0,57,87,0
0,61,75,0
0,45,79,0
0,45,0,22
0,45,88,0
0,45,92,0
0,45,0,22
0,45,86,0
0,52,77,0
0,57,83,0
0,61,77,0
0,52,100,0
0,45,0,22
0,45,88,0
0,45,78,0
0,57,0,11
0,61,0,0
0,52,0,7
0,45,0,4
0,45,83,0
0,43,116,0
0,45,98,0
0,45,0,22
0,45,88,0
0,45,91,0
0,45,0,22
0,45,86,0
0,52,91,0
0,45,0,22
0,45,86,0
0,45,76,0
0,45,0,22
0,45,91,0
0,50,80,0
0,55,85,0
0,59,82,0
0,45,73,0
0,45,0,22
0,45,92,0
0,52,82,0
0,55,0,2
0,45,0,20
0,45,93,0
0,50,71,0
0,55,93,0
0,59,77,0
0,45,92,0
0,45,0,22
0,45,96,0
0,45,84,0
0,50,0,13
0,55,0,5
0,45,0,4
0,45,102,14
0,52,84,0
0,45,0,22
0,45,103,0
0,45,65,0
0,45,0,22
0,45,103,0
0,43,118,0
0,45,79,0
0,45,0,22
0,45,105,0
0,52,84,0
0,45,0,22
0,45,111,2
0,50,83,0
0,55,90,0
0,59,85,0
0,45,75,0
0,45,0,22
0,45,112,0
0,45,90,0
0,55,0,2
0,59,0,6
0,50,0,1
0,45,0,13
0,45,118,0
0,50,90,0
0,55,83,0
0,59,81,0
0,52,96,0
0,45,0,22
0,45,117,0
0,45,83,0
0,55,0,1
0,50,0,1
0,45,0,20
0,45,122,0
0,45,121,0
0,45,94,0
0,45,0,22
0,45,124,0
0,45,82,0
0,45,0,22
0,45,116,0
0,52,96,0
0,45,0,22
0,45,118,0
0,45,81,0
0,45,0,22
0,45,115,0
0,52,87,0
0,57,96,0
0,45,95,0
0,45,0,22
0,45,0,12
0,52,0,10
0,57,0,3
0,45,109,0
0,52,73,0
0,45,0,22
0,45,107,0
0,52,75,0
0,57,87,0
0,61,82,0
0,45,73,0
0,45,0,22
0,45,102,0
0,45,96,0
0,45,0,22
0,45,107,14
0,52,78,0
0,45,0,22
0,45,99,0
0,45,86,0
0,45,0,22
0,45,97,0
0,45,109,0
0,45,67,0
0,45,0,22
0,45,91,0
0,52,71,0
0,45,0,22
0,45,92,2
0,52,82,0
0,57,87,0
0,61,75,0
0,45,78,0
0,45,0,22
0,45,93,0
0,45,94,0
0,45,0,22
0,45,89,0
0,52,77,0
0,57,83,0
0,61,77,0
0,52,98,0
0,45,0,22
0,45,82,0
0,45,72,0
0,57,0,11
0,61,0,0
0,52,0,7
0,45,0,4
0,45,79,0
0,43,116,0
0,45,96,0
0,45,0,22
0,45,89,0
0,45,89,0
0,45,0,22
0,45,97,0
0,52,95,0
0,45,0,22
0,45,99,0
0,45,70,0
0,45,0,22
0,45,103,0
0,50,80,0
0,55,85,0
0,59,82,0
0,45,76,0
0,45,0,22
0,45,0,12
0,59,0,3
0,50,0,6
0,45,99,0
0,52,82,0
0,55,0,2
0,45,0,20
0,45,106,0
0,50,71,0
0,55,93,0
0,59,77,0
0,45,92,0
0,45,0,22
0,45,110,0
0,45,82,0
0,50,0,13
0,55,0,5
0,45,0,4
0,45,113,14
0,52,83,0
0,45,0,22
0,45,122,0
0,45,64,0
0,45,0,22
0,45,127,0
0,43,118,0
0,45,74,0
0,45,0,22
0,45,127,0
0,52,77,0
0,45,0,22
0,45,127,2
0,50,83,0
0,55,90,0
0,59,85,0
0,45,75,0
0,45,0,22
0,45,127,0
0,45,88,0
0,55,0,2
0,59,0,6
0,50,0,1
0,45,0,13
0,45,127,0
0,50,90,0
0,55,83,0
0,59,81,0
0,52,100,0
0,45,0,22
0,45,127,0
0,45,85,0
0,55,0,1
0,50,0,1
0,45,0,20
0,47,105,1
0,47,0,59
0,74,86,133
0,54,90,0
0,59,87,0
0,62,82,0
0,62,0,43
0,54,0,1
0,59,0,14
0,74,0,9
0,74,76,29
0,54,83,0
0,59,80,0
0,62,85,0
0,62,0,47
0,59,0,9
0,54,0,5
0,74,0,22
0,73,90,13
0,73,0,72
0,71,76,24
0,45,101,0
0,45,0,70
0,71,0,13
0,69,77,13
0,54,85,0
0,59,81,0
0,62,82,0
0,62,0,45
0,69,0,2
0,67,65,1
0,54,0,3
0,59,0,13
0,54,77,32
0,59,82,0
0,62,78,0
0,62,0,57
0,59,0,11
0,54,0,1
0,67,0,25
0,71,70,2
0,43,113,0
0,43,0,57
0,55,64,135
0,59,90,0
0,62,90,0
0,62,0,49
0,59,0,4
0,55,0,1
0,71,0,3
0,55,78,39
0,59,87,0
0,62,93,0
0,62,0,49
0,55,0,6
0,59,0,3
0,45,101,134
0,45,0,61
0,57,82,35
0,61,93,0
0,64,81,0
0,64,0,44
0,57,0,1
0,61,0,3
0,57,78,48
0,61,87,0
0,64,81,0
0,64,0,51
0,57,0,2
0,61,0,4
0,47,109,39
0,47,0,58
0,71,79,134
0,54,90,0
0,59,93,0
0,62,85,0
0,62,0,45
0,54,0,5
0,59,0,12
0,71,0,2
0,71,77,32
0,54,76,0
0,59,71,0
0,62,81,0
0,62,0,45
0,54,0,11
0,59,0,6
0,71,0,12
0,74,81,22
0,74,0,74
0,78,85,22
0,47,113,0
0,47,0,55
0,78,0,27
0,81,77,14
0,54,76,0
0,59,82,0
0,62,81,0
0,62,0,44
0,59,0,19
0,54,0,1
0,81,0,12
0,79,91,20
0,54,67,0
0,59,75,0
0,62,81,0
0,62,0,37
0,54,0,13
0,59,0,0
0,52,109,46
0,52,0,67
0,79,0,81
0,55,85,44
0,59,90,0
0,64,85,0
0,64,0,48
0,55,0,6
0,59,0,2
0,55,90,40
0,59,83,0
0,64,82,0
0,55,0,52
0,64,0,2
0,59,0,7
0,47,109,131
0,47,0,76
0,54,85,20
0,59,80,0
0,63,71,0
0,54,0,56
0,63,0,2
0,59,0,6
0,54,93,32
0,59,72,0
0,63,67,0
0,59,0,65
0,54,0,2
0,63,0,5
0,43,96,24
0,43,0,83
0,74,59,109
0,55,80,0
0,59,81,0
0,62,87,0
0,62,0,52
0,55,0,2
0,59,0,6
0,74,0,13
0,74,83,23
0,55,80,0
0,59,80,0
0,62,76,0
0,55,0,58
0,74,0,1
0,59,0,6
0,62,0,3
0,74,79,28
0,74,0,73
0,76,66,23
0,45,87,0
0,45,0,70
0,76,0,2
0,78,68,24
0,57,77,0
0,61,87,0
0,64,81,0
0,61,0,46
0,64,0,3
0,57,0,2
0,78,0,10
0,74,68,35
0,57,76,0
0,61,80,0
0,64,81,0
0,64,0,63
0,57,0,4
0,61,0,4
0,50,101,25
0,50,0,70
0,74,0,85
0,78,67,37
0,54,87,0
0,57,87,0
0,62,85,0
0,62,0,58
0,54,0,1
0,57,0,5
0,78,0,14
0,81,68,18
0,54,82,0
0,57,75,0
0,62,80,0
0,62,0,69
0,57,0,2
0,54,0,5
0,49,101,116
0,81,0,44
0,49,0,48
0,78,68,4
0,57,96,0
0,61,81,0
0,64,81,0
0,61,0,51
0,57,0,2
0,64,0,2
0,78,0,11
0,76,76,30
0,57,85,0
0,61,76,0
0,64,85,0
0,64,0,56
0,57,0,33
0,61,0,3
0,47,93,4
0,47,0,67
0,76,0,28
0,74,63,1
0,74,0,78
0,54,83,18
0,59,87,0
0,62,90,0
0,54,0,58
0,62,0,0
0,59,0,9
0,54,74,29
0,59,78,0
0,62,85,0
0,62,0,63
0,54,0,14
0,59,0,4
0,46,98,111
0,54,77,96
0,58,77,0
0,62,81,0
0,46,0,1
0,62,0,56
0,58,0,6
0,54,0,1
0,83,80,32
0,54,78,0
0,58,77,0
0,62,76,0
0,62,0,75
0,54,0,12
0,58,0,3
0,44,98,6
0,44,0,79
0,54,83,113
0,56,85,0
0,62,82,0
0,83,0,20
0,62,0,38
0,54,0,4
0,56,0,8
0,78,70,26
0,54,80,0
0,56,69,0
0,62,82,0
0,78,0,27
0,56,0,36
0,62,0,2
0,54,0,5
0,81,67,26
0,81,0,36
0,78,60,60
0,44,93,0
0,44,0,93
0,54,56,3
0,56,81,0
0,62,75,0
0,78,0,23
0,62,0,25
0,54,0,8
0,56,0,8
0,76,49,32
0,54,90,0
0,56,77,0
0,62,82,0
0,54,0,75
0,62,0,0
0,56,0,10
0,47,109,11
0,76,0,56
0,74,73,40
0,47,0,0
0,54,90,96
0,59,83,0
0,62,81,0
0,62,0,53
0,54,0,6
0,59,0,6
0,54,80,31
0,59,90,0
0,62,85,0
0,62,0,56
0,54,0,1
0,59,0,19
0,74,0,42
0,46,101,74
0,46,0,96
0,54,80,0
0,58,83,0
0,62,87,0
0,62,0,53
0,54,0,6
0,58,0,8
0,83,74,29
0,54,82,0
0,58,78,0
0,62,80,0
0,62,0,64
0,54,0,10
0,58,0,6
0,44,96,16
0,44,0,83
0,54,85,109
0,56,82,0
0,62,83,0
0,62,0,55
0,54,0,6
0,56,0,4
0,54,83,31
0,56,78,0
0,62,83,0
0,62,0,58
0,56,0,11
0,54,0,4
0,83,0,21
0,78,73,98
0,44,96,0
0,44,0,79
0,54,80,17
0,56,82,0
0,62,81,0
0,78,0,22
0,62,0,30
0,54,0,11
0,56,0,4
0,76,67,29
0,54,81,0
0,56,90,0
0,62,85,0
0,54,0,65
0,62,0,1
0,56,0,1
0,76,0,9
0,31,101,20
0,43,94,0
0,43,85,0
0,43,0,90
0,31,0,4
0,43,0,0
0,43,85,2
0,50,85,0
0,50,79,0
0,55,74,0
0,78,79,96
0,55,80,0
0,59,85,0
0,62,87,0
0,43,0,23
0,55,0,0
0,50,0,3
0,50,0,0
0,62,0,13
0,59,0,2
0,55,0,1
0,78,0,29
0,76,68,25
0,55,75,0
0,59,83,0
0,62,90,0
0,62,0,42
0,55,0,10
0,59,0,2
0,76,0,21
0,33,93,117
0,45,98,0
0,45,83,0
0,45,0,63
0,33,0,31
0,45,0,0
0,79,82,2
0,45,80,0
0,52,73,0
0,57,77,0
0,61,78,0
0,64,82,0
0,52,81,0
0,57,64,0
0,57,0,41
0,64,0,0
0,61,0,4
0,79,0,32
0,78,79,19
0,57,77,0
0,61,85,0
0,64,96,0
0,45,0,32
0,57,0,0
0,52,0,2
0,52,0,0
0,64,0,19
0,57,0,10
0,61,0,3
0,38,87,30
0,50,96,0
0,50,78,0
0,78,0,9
0,50,0,60
0,38,0,25
0,50,0,0
0,81,77,2
0,45,80,0
0,50,87,0
0,57,77,0
0,62,76,0
0,54,81,96
0,57,82,0
0,62,82,0
0,45,0,6
0,57,0,0
0,50,0,6
0,62,0,0
0,81,0,5
0,54,0,26
0,62,0,7
0,57,0,7
0,81,69,39
0,54,81,0
0,57,82,0
0,62,81,0
0,62,0,50
0,54,0,9
0,57,0,2
0,81,0,3
0,79,82,32
0,79,0,80
0,78,66,16
0,31,102,0
0,43,82,0
0,43,91,0
0,78,0,40
0,76,73,8
0,43,0,31
0,43,87,17
0,50,65,0
0,55,77,0
0,59,83,0
0,62,85,0
0,50,76,0
0,55,78,0
0,31,0,13
0,43,0,0
0,76,0,22
0,55,0,9
0,62,0,1
0,78,75,3
0,59,0,6
0,78,0,38
0,76,74,4
0,55,81,0
0,59,83,0
0,62,82,0
0,43,0,17
0,50,0,0
0,50,0,0
0,55,0,0
0,55,0,53
0,62,0,0
0,59,0,6
0,45,93,20
0,45,70,0
0,76,0,83
0,33,73,13
0,45,77,0
0,52,52,0
0,52,65,0
0,57,66,0
0,45,0,3
0,45,0,11
0,57,80,82
0,61,90,0
0,64,80,0
0,45,0,10
0,57,0,0
0,52,0,1
0,52,0,0
0,33,0,3
0,64,0,36
0,61,0,2
0,57,0,2
0,76,77,42
0,57,78,0
0,61,87,0
0,64,83,0
0,64,0,40
0,57,0,12
0,61,0,9
0,76,0,16
0,74,79,19
0,43,65,0
0,74,0,87
0,31,90,9
0,43,93,0
0,50,93,0
0,43,96,0
0,50,69,0
0,55,71,0
0,43,0,9
0,43,0,64
0,78,67,23
0,55,76,0
0,59,83,0
0,62,78,0
0,43,0,7
0,50,0,0
0,50,0,0
0,55,0,0
0,31,0,2
0,55,0,29
0,59,0,4
0,62,0,0
0,78,0,24
0,76,85,30
0,55,72,0
0,59,80,0
0,62,80,0
0,62,0,58
0,59,0,3
0,55,0,1
0,33,89,34
0,45,89,0
0,52,91,0
0,45,90,0
0,45,68,0
0,52,61,0
0,57,65,0
0,76,0,12
0,45,0,51
0,79,81,82
0,57,72,0
0,61,82,0
0,64,81,0
0,57,0,37
0,61,0,5
0,64,0,0
0,79,0,41
0,78,79,13
0,57,76,0
0,61,77,0
0,64,81,0
0,64,0,56
0,61,0,14
0,57,0,3
0,50,64,0
0,78,0,42
0,81,83,54
0,38,84,0
0,45,85,0
0,50,86,0
0,50,98,0
0,57,64,0
0,62,67,0
0,50,0,14
0,50,0,36
0,54,82,46
0,57,82,0
0,62,81,0
0,50,0,10
0,62,0,0
0,45,0,1
0,57,0,0
0,38,0,3
0,81,0,7
0,62,0,26
0,54,0,6
0,57,0,3
0,81,70,40
0,54,82,0
0,57,77,0
0,62,77,0
0,62,0,46
0,54,0,14
0,57,0,1
0,81,0,5
0,79,79,30
0,31,100,0
0,43,93,0
0,43,90,0
0,43,0,72
0,79,0,13
0,31,0,9
0,43,0,0
0,78,59,2
0,43,83,0
0,50,64,0
0,50,74,0
0,55,69,0
0,78,0,36
0,76,62,12
0,55,74,48
0,59,85,0
0,62,78,0
0,43,0,23
0,55,0,0
0,50,0,3
0,50,0,0
0,76,0,2
0,62,0,13
0,78,73,7
0,55,0,1
0,59,0,5
0,78,0,37
0,76,78,5
0,55,76,0
0,59,80,0
0,62,82,0
0,62,0,48
0,55,0,6
