track,note,velocity,time
1,50,79,384
1,50,71,18
1,50,75,34
1,50,71,36
1,50,75,34
1,50,79,32
1,45,75,192
1,50,83,480
1,50,75,20
1,50,79,16
1,50,71,32
1,50,75,36
1,50,79,30
1,45,75,0
1,50,83,482
1,50,75,24
1,50,75,18
1,50,71,34
1,50,75,34
1,50,79,34
1,45,75,2
1,50,83,482
1,50,75,16
1,50,79,18
1,50,71,40
1,50,75,34
1,50,79,34
1,45,75,192
1,50,79,484
1,50,71,20
1,50,75,36
1,50,71,32
1,50,75,32
1,50,79,34
1,45,75,2
1,50,83,480
1,50,75,18
1,50,79,16
1,50,71,32
1,50,75,32
1,50,79,32
1,45,75,0
1,50,83,482
1,50,75,22
1,50,75,16
1,50,71,34
1,50,75,30
1,50,79,30
1,45,75,192
1,50,83,486
1,50,75,22
1,50,79,18
1,50,71,38
1,50,75,38
1,50,79,32
1,45,75,192
1,50,79,484
1,50,71,20
1,50,75,32
1,50,71,40
1,50,75,32
1,50,79,34
1,45,75,0
1,50,83,480
1,50,75,20
1,50,79,24
1,50,71,30
1,50,75,40
1,50,79,34
1,45,75,2
1,50,83,480
1,50,75,24
1,50,75,18
1,50,71,34
1,50,75,36
1,50,79,32
1,45,75,192
1,50,83,484
1,50,75,24
1,50,79,16
1,50,71,34
1,50,75,34
1,50,79,30
1,45,75,0
1,50,83,484
1,50,75,24
1,50,75,18
1,50,71,38
1,50,75,32
1,50,79,32
1,45,75,192
1,50,83,484
1,50,75,20
1,50,79,20
1,50,71,38
1,50,75,32
1,50,79,36
1,45,75,192
1,50,79,484
1,50,71,28
1,50,75,34
1,50,71,44
1,50,75,40
1,50,79,36
1,45,75,8
1,50,83,480
1,50,75,32
1,50,79,20
1,50,71,40
1,50,75,44
1,50,79,30
1,45,75,192
1,50,83,492
1,50,75,18
1,50,75,22
1,50,71,42
1,50,75,44
1,50,79,32
1,45,75,0
1,50,83,492
1,50,75,28
1,50,79,22
1,50,71,40
1,50,75,30
1,50,79,32
1,45,75,192
1,43,71,104
1,38,99,14
1,38,95,16
1,38,99,40
1,38,91,44
1,38,95,36
1,38,103,28
1,33,99,192
1,37,103,494
1,37,95,26
1,37,99,20
1,37,91,42
1,37,95,40
1,37,103,34
1,33,99,192
1,35,103,492
1,35,95,28
1,35,99,24
1,35,91,38
1,35,95,38
1,35,103,32
1,33,99,192
1,33,103,482
1,33,95,28
1,33,103,26
1,33,95,26
1,35,103,24
1,33,95,18
1,37,103,26
1,33,91,28
1,38,99,28
1,38,95,18
1,38,99,42
1,38,91,40
1,38,95,42
1,38,103,32
1,33,99,2
1,37,103,480
1,37,95,30
1,37,99,22
1,37,91,34
1,37,95,34
1,37,103,34
1,33,99,0
1,35,103,480
1,35,95,26
1,35,99,16
1,35,91,42
1,35,95,40
1,35,103,32
1,33,99,192
1,33,103,492
1,33,95,30
1,33,103,24
1,33,95,26
1,35,103,16
1,33,95,22
1,37,103,28
1,33,91,20
1,31,107,30
1,31,103,192
1,31,103,0
1,31,103,0
1,31,103,6
1,31,103,192
1,31,111,186
1,31,111,0
1,43,99,0
1,43,95,2
1,43,95,6
1,43,91,192
1,43,103,186
1,43,99,6
1,43,99,192
1,43,87,12
1,31,107,192
1,31,99,2
1,31,107,192
1,31,107,0
1,31,99,6
1,31,107,192
1,31,111,190
1,31,111,2
1,43,107,192
1,43,99,10
1,43,95,192
1,43,91,0
1,43,103,4
1,43,99,192
1,43,95,186
1,43,91,6
1,31,111,2
1,31,103,192
1,31,95,188
1,31,103,2
1,31,103,192
1,31,99,2
1,31,99,192
1,31,103,6
1,43,95,192
1,43,103,4
1,43,95,192
1,43,95,0
1,43,103,0
1,43,87,4
1,43,95,192
1,43,95,4
1,30,115,6
1,30,103,98
1,31,107,96
1,33,115,106
1,50,71,306
1,50,71,16
1,50,75,34
1,50,71,36
1,50,75,30
1,50,79,32
1,45,75,192
1,50,83,484
1,50,75,18
1,50,79,18
1,50,71,38
1,50,75,34
1,50,79,34
1,45,75,2
1,50,83,480
1,50,75,20
1,50,75,16
1,50,71,36
1,50,75,32
1,50,79,30
1,45,75,4
1,50,83,480
1,50,75,20
1,50,79,20
1,50,71,38
1,50,75,32
1,50,79,32
1,45,75,192
1,50,79,482
1,50,71,30
1,50,75,40
1,50,71,42
1,50,75,40
1,50,79,32
1,45,75,192
1,50,83,490
1,50,75,24
1,50,79,24
1,50,71,44
1,50,75,42
1,50,79,34
1,45,75,0
1,50,83,496
1,50,75,32
1,50,75,18
1,50,71,32
1,50,75,34
1,50,79,32
1,45,75,6
1,50,83,480
1,50,75,28
1,50,79,24
1,50,71,34
1,50,75,44
1,50,79,34
1,45,75,6
1,43,71,98
1,38,99,14
1,38,95,16
1,38,99,46
1,38,91,34
1,38,95,34
1,38,103,34
1,33,99,8
1,37,103,482
1,37,95,26
1,37,99,28
1,37,91,44
1,37,95,32
1,37,103,32
1,33,99,192
1,35,103,488
1,35,95,30
1,35,99,18
1,35,91,42
1,35,95,40
1,35,103,34
1,33,99,8
1,33,103,482
1,33,95,30
1,33,103,24
1,33,95,26
1,35,103,28
1,33,95,18
1,37,103,28
1,33,91,20
1,38,99,32
1,38,95,32
1,38,99,30
1,38,91,42
1,38,95,46
1,38,103,32
1,33,99,192
1,37,103,490
1,37,95,30
1,37,99,14
1,37,91,40
1,37,95,44
1,37,103,34
1,33,99,192
1,35,103,492
1,35,95,28
1,35,99,24
1,35,91,40
1,35,95,34
1,35,103,32
1,33,99,192
1,33,103,492
1,33,95,16
1,33,103,14
1,33,95,24
1,35,103,22
1,33,95,28
1,37,103,26
1,33,91,30
1,31,107,28
1,31,103,10
1,31,103,192
1,31,103,6
1,31,103,192
1,31,103,190
1,31,111,6
1,31,111,192
1,43,99,186
1,43,95,2
1,43,95,6
1,43,91,192
1,43,103,188
1,43,99,0
1,43,99,4
1,43,87,192
1,31,107,188
1,31,99,8
1,31,107,4
1,31,107,2
1,31,99,192
1,31,107,4
1,31,111,2
1,31,111,192
1,43,107,0
1,43,99,2
1,43,95,0
1,43,91,192
1,43,103,4
1,43,99,192
1,43,95,190
1,43,91,2
1,31,111,192
1,31,103,4
1,31,95,0
1,31,103,0
1,31,103,192
1,31,99,0
1,31,99,0
1,31,103,2
1,43,95,4
1,43,103,192
1,43,95,188
1,43,95,4
1,43,103,192
1,43,87,2
1,43,95,192
1,43,95,8
1,30,115,2
1,30,103,98
1,31,107,100
1,33,115,108
1,36,107,8862
1,33,95,14
1,33,83,82
1,33,87,134
1,33,107,118
1,33,87,100
1,33,103,102
1,33,107,112
1,31,87,80
1,31,115,96
1,29,75,82
1,29,91,120
1,29,127,102
1,29,71,90
1,29,75,118
1,29,119,118
1,29,87,80
1,29,127,118
1,29,71,82
1,29,79,118
1,29,123,114
1,29,79,80
1,29,67,112
1,29,119,114
1,29,91,102
1,29,123,122
1,29,83,110
1,29,83,96
1,29,123,120
1,29,83,90
1,29,87,110
1,29,123,126
1,29,71,86
1,29,115,136
1,29,75,92
1,29,95,116
1,29,115,104
1,29,79,100
1,29,87,132
1,29,119,116
1,31,119,98
1,33,115,102
1,33,67,86
1,33,79,116
1,33,123,126
1,33,75,78
1,33,79,138
1,33,123,134
1,33,91,106
1,33,127,114
1,33,79,92
1,33,91,128
1,33,119,114
1,33,83,88
1,33,75,124
1,33,115,114
1,33,79,82
1,33,127,136
1,33,87,108
1,33,83,130
1,33,119,126
1,33,75,96
1,33,87,124
1,33,119,134
1,33,103,94
1,33,123,130
1,33,87,94
1,33,103,136
1,33,123,130
1,33,103,102
1,33,95,112
1,31,127,112
1,38,119,198
1,38,119,110
1,38,115,100
1,37,115,8
1,33,111,192
1,31,119,6
1,33,123,80
1,31,111,124
1,38,119,98
1,38,115,108
1,38,111,80
1,37,111,2
1,33,115,192
1,31,119,186
1,33,123,108
1,31,119,104
1,38,119,140
1,38,123,128
1,38,111,98
1,37,115,0
1,33,111,4
1,31,119,4
1,33,123,82
1,31,119,124
1,38,119,110
1,38,115,158
1,38,91,92
1,38,99,106
1,38,103,112
1,37,111,98
1,37,103,108
1,37,107,94
1,37,107,108
1,37,111,106
1,37,111,108
1,37,115,104
1,37,99,106
1,35,111,78
1,35,95,94
1,35,99,104
1,35,95,104
1,35,107,96
1,35,99,108
1,35,111,104
1,35,107,98
1,33,107,88
1,33,99,94
1,33,99,100
1,33,99,100
1,35,111,102
1,33,95,64
1,37,107,98
1,33,103,76
1,38,119,96
1,38,99,92
1,38,103,102
1,38,99,82
1,38,107,84
1,38,111,108
1,38,107,110
1,38,107,108
1,37,99,94
1,37,99,100
1,37,119,106
1,37,111,108
1,37,111,106
1,37,107,104
1,37,107,106
1,37,111,106
1,35,107,82
1,35,107,92
1,35,99,104
1,35,103,108
1,35,103,102
1,35,103,102
1,35,115,96
1,35,103,126
1,33,107,86
1,33,99,94
1,33,99,96
1,33,103,98
1,35,107,108
1,33,99,74
1,37,111,94
1,33,107,36
1,38,119,76
1,38,99,92
1,38,103,92
1,38,99,90
1,38,107,82
1,38,111,108
1,38,107,98
1,38,107,110
1,37,99,88
1,37,99,98
1,37,119,96
1,37,111,102
1,37,111,98
1,37,107,108
1,37,107,108
1,37,111,110
1,35,107,90
1,35,107,92
1,35,99,104
1,35,103,110
1,35,103,108
1,35,103,106
1,35,115,108
1,35,103,124
1,45,107,108
1,45,99,96
1,45,99,108
1,45,103,108
1,45,107,108
1,45,99,66
1,45,107,106
1,42,99,48
1,43,111,78
1,43,99,92
1,43,99,96
1,43,99,86
1,43,107,82
1,43,103,86
1,43,111,88
1,43,107,90
1,31,115,80
1,31,107,82
1,31,111,86
1,31,103,64
1,31,111,84
1,31,99,72
1,31,119,90
1,31,115,88
1,43,107,64
1,43,99,92
1,43,111,84
1,43,103,70
1,43,107,102
1,43,95,84
1,43,111,102
1,43,103,84
1,31,107,86
1,31,107,68
1,31,103,78
1,31,99,70
1,31,103,102
1,31,107,82
1,31,107,82
1,31,111,102
1,30,115,86
1,30,119,110
1,30,115,72
1,31,111,208
1,33,123,142
1,50,75,366
1,50,71,20
1,50,75,36
1,50,71,36
1,50,75,34
1,50,79,30
1,45,75,192
1,50,83,484
1,50,75,24
1,50,79,16
1,50,71,36
1,50,75,32
1,50,79,34
1,45,75,0
1,50,83,486
1,50,75,16
1,50,75,20
1,50,71,36
1,50,75,32
1,50,79,32
1,45,75,4
1,50,83,480
1,50,75,18
1,50,79,16
1,50,71,38
1,50,75,36
1,50,79,30
1,45,75,2
1,50,79,482
1,50,71,24
1,50,75,32
1,50,71,36
1,50,75,32
1,50,79,34
1,45,75,192
1,50,83,482
1,50,75,16
1,50,79,14
1,50,71,38
1,50,75,32
1,50,79,36
1,45,75,192
2,74,47,690
2,79,95,0
2,74,75,196
2,81,87,0
2,74,47,390
2,79,95,0
2,81,87,194
2,74,75,0
2,74,47,386
2,79,95,0
2,81,87,196
2,74,71,0
2,79,95,4226
2,74,47,0
2,74,75,206
2,81,87,0
2,79,103,4226
2,74,47,0
2,81,91,212
2,62,55,0
2,66,59,0
2,69,47,0
2,74,83,0
2,62,51,140
2,66,55,0
2,69,51,0
2,62,55,126
2,66,55,0
2,69,51,0
2,62,55,138
2,66,55,0
2,69,43,0
2,62,55,136
2,66,55,0
2,69,47,0
2,62,55,136
2,66,55,0
2,69,43,0
2,62,51,130
2,66,55,0
2,69,47,0
2,62,51,128
2,66,55,0
2,69,51,0
2,61,51,52
2,64,55,0
2,69,55,0
2,61,51,140
2,64,47,0
2,69,51,0
2,61,47,134
2,64,51,0
2,69,51,0
2,61,51,134
2,64,43,0
2,69,43,0
2,61,51,2
2,64,47,0
2,69,43,0
2,61,51,138
2,64,51,0
2,69,51,0
2,61,51,138
2,64,51,0
2,69,55,0
2,61,55,138
2,64,51,0
2,69,51,0
2,59,51,136
2,62,59,0
2,67,51,0
2,59,51,132
2,62,55,0
2,67,47,0
2,59,51,134
2,62,55,0
2,67,51,0
2,59,55,138
2,62,55,0
2,67,51,0
2,59,51,140
2,62,55,0
2,67,47,0
2,59,55,140
2,62,55,0
2,67,47,0
2,59,51,142
2,62,55,0
2,67,47,0
2,59,55,140
2,62,59,0
2,67,47,0
2,61,51,120
2,64,55,0
2,69,55,0
2,61,47,140
2,64,47,0
2,69,47,0
2,61,51,138
2,64,51,0
2,69,47,0
2,61,55,134
2,64,43,0
2,69,55,0
2,61,55,112
2,64,47,0
2,69,55,0
2,61,55,122
2,64,43,0
2,69,51,0
2,74,51,136
2,61,59,0
2,64,47,0
2,69,55,0
2,79,103,0
2,61,59,2
2,69,59,0
2,81,91,122
2,62,59,0
2,66,59,0
2,69,55,0
2,74,75,0
2,62,55,130
2,66,55,0
2,69,51,0
2,62,59,136
2,66,55,0
2,69,59,0
2,62,55,138
2,66,59,0
2,69,59,0
2,62,63,132
2,66,59,0
2,69,59,0
2,62,55,130
2,66,59,0
2,69,55,0
2,62,59,140
2,66,55,0
2,69,59,0
2,62,55,122
2,66,59,0
2,69,59,0
2,61,51,52
2,64,55,0
2,69,55,0
2,61,55,120
2,64,51,0
2,69,55,0
2,61,59,132
2,64,51,0
2,69,59,0
2,61,51,136
2,64,47,0
2,69,55,0
2,61,55,136
2,64,51,0
2,69,59,0
2,61,55,128
2,64,59,0
2,69,59,0
2,61,59,138
2,64,51,0
2,69,55,0
2,61,59,138
2,64,47,0
2,69,63,0
2,59,59,140
2,62,59,0
2,67,43,0
2,59,55,140
2,62,55,0
2,67,55,0
2,59,63,120
2,62,55,0
2,67,59,0
2,59,55,136
2,62,55,0
2,67,59,0
2,59,59,134
2,62,55,0
2,67,55,0
2,59,55,126
2,62,59,0
2,67,55,0
2,59,59,130
2,62,55,0
2,67,55,0
2,59,51,128
2,62,59,0
2,67,55,0
2,61,59,120
2,64,55,0
2,69,55,0
2,61,55,124
2,64,47,0
2,69,55,0
2,61,59,138
2,64,43,0
2,69,59,0
2,61,55,138
2,64,47,0
2,69,59,0
2,61,55,136
2,64,51,0
2,69,55,0
2,61,55,128
2,64,51,0
2,69,51,0
2,74,51,138
2,61,59,0
2,64,55,0
2,69,55,0
2,79,103,0
2,61,59,4
2,64,43,0
2,69,51,0
2,81,91,136
2,62,59,0
2,66,59,0
2,69,55,0
2,74,83,0
2,62,55,130
2,66,55,0
2,69,55,0
2,62,59,140
2,66,55,0
2,69,59,0
2,62,55,134
2,66,59,0
2,69,59,0
2,62,63,138
2,66,59,0
2,69,59,0
2,62,55,126
2,66,59,0
2,69,55,0
2,62,59,126
2,66,55,0
2,69,59,0
2,62,55,122
2,66,59,0
2,69,59,0
2,61,51,56
2,64,55,0
2,69,55,0
2,61,55,124
2,64,51,0
2,69,55,0
2,61,59,138
2,64,51,0
2,69,59,0
2,61,51,128
2,64,47,0
2,69,55,0
2,61,55,130
2,64,51,0
2,69,59,0
2,61,55,130
2,64,59,0
2,69,59,0
2,61,59,126
2,64,51,0
2,69,55,0
2,61,59,136
2,64,47,0
2,69,63,0
2,59,59,128
2,62,59,0
2,67,43,0
2,59,55,138
2,62,55,0
2,67,55,0
2,59,63,112
2,62,55,0
2,67,59,0
2,59,55,138
2,62,55,0
2,67,59,0
2,59,59,136
2,62,55,0
2,67,55,0
2,59,55,130
2,62,59,0
2,67,55,0
2,59,59,142
2,62,55,0
2,67,55,0
2,59,51,138
2,62,59,0
2,67,55,0
2,61,59,120
2,64,55,0
2,69,55,0
2,61,55,126
2,64,47,0
2,69,55,0
2,61,59,140
2,64,43,0
2,69,59,0
2,61,55,138
2,64,47,0
2,69,59,0
2,61,55,132
2,64,51,0
2,69,55,0
2,61,55,136
2,64,51,0
2,69,51,0
2,61,59,144
2,64,55,0
2,69,55,0
2,61,59,130
2,64,43,0
2,69,51,0
2,74,67,2828
2,79,107,0
2,81,103,204
2,74,103,0
2,74,67,4216
2,79,111,0
2,81,103,196
2,74,91,0
2,38,44,1530
2,74,47,5760
2,79,95,0
2,62,55,136
2,66,59,0
