track,note,velocity,time
3,47,122,52032
3,52,111,192
3,50,113,356
3,49,113,372
3,40,113,4
3,38,122,7704
3,38,113,84
3,33,111,48
3,33,106,96
3,35,113,384
3,35,106,72
3,37,111,384
3,44,105,764
3,37,109,36
3,37,102,72
3,35,113,384
3,33,113,20
3,32,116,40
3,30,113,48
3,28,110,32
3,47,108,288
3,52,103,192
3,50,111,376
3,49,111,376
3,40,110,8
3,30,92,7732
3,42,91,0
3,45,120,192
3,44,100,192
3,45,108,168
3,49,91,116
3,50,90,168
3,49,91,176
3,30,100,1696
3,42,97,0
3,57,96,192
3,56,94,0
3,57,88,192
3,61,88,164
3,62,81,152
3,61,90,160
3,47,97,9216
3,40,99,8
3,42,102,384
3,44,98,364
3,40,104,20
3,35,103,4
3,47,122,15756
3,52,111,192
3,50,113,356
3,49,113,372
3,40,113,4
3,38,122,7704
3,38,113,84
3,33,111,48
3,33,106,96
3,35,113,384
3,35,106,72
3,37,111,384
3,44,105,764
3,37,109,36
3,37,102,72
3,35,113,384
3,33,113,20
3,32,116,40
3,30,113,48
3,28,110,32
3,47,108,288
3,52,103,192
3,50,111,376
3,49,111,376
3,40,110,8
3,42,91,7732
3,30,91,0
3,45,120,192
3,44,100,192
3,45,108,168
3,49,91,168
3,50,90,168
3,49,91,176
3,30,90,1512
3,42,94,0
3,42,94,2024
3,30,100,0
3,57,113,192
3,56,113,192
3,57,113,8
3,61,113,168
3,62,113,164
3,61,113,180
3,59,113,156
3,42,94,1628
3,30,98,0
3,42,86,2036
3,30,92,0
4,42,115,25056
4,42,115,52
4,44,115,56
4,40,115,8
4,33,115,4
4,33,115,76
4,32,115,8
4,37,115,8
4,30,115,68
4,42,115,40
4,40,115,12
4,38,115,768
4,33,115,8
4,33,115,72
4,28,115,32
4,35,115,136
4,35,115,72
4,40,115,44
4,40,115,112
4,35,115,36
4,40,115,20
4,35,115,0
4,44,115,80
4,37,115,40
4,44,115,16
4,42,115,144
4,42,115,76
4,40,115,192
4,40,115,80
4,38,115,192
4,37,115,756
4,37,115,72
4,35,115,24
4,35,115,172
4,44,115,168
4,37,115,24
4,25,115,36
4,32,115,24
4,30,115,116
4,30,115,96
4,32,115,192
4,30,115,12
4,30,115,116
4,30,115,80
4,32,115,192
4,32,115,92
4,33,115,112
4,33,115,64
4,33,115,72
4,33,115,72
4,32,115,192
4,30,115,764
4,28,115,12
4,35,115,104
4,35,115,76
4,40,115,4
4,38,115,28
4,37,115,384
4,28,115,20
4,35,115,0
4,35,115,92
4,35,115,92
4,37,115,192
4,25,115,52
4,33,115,92
4,32,115,16
4,30,115,12
4,30,115,52
4,42,115,56
4,40,115,32
4,28,115,28
4,35,115,32
4,35,115,96
4,37,115,192
4,25,115,32
4,37,115,384
4,38,115,40
4,45,115,56
4,38,115,12
4,38,115,164
4,33,115,384
4,33,115,128
4,33,115,152
4,35,115,384
4,42,115,48
4,47,115,124
4,37,115,40
4,32,115,20
4,37,115,768
4,37,115,96
4,35,115,384
4,33,115,0
4,33,115,64
4,33,115,72
4,33,115,92
4,32,115,0
4,30,115,768
4,28,115,40
4,28,115,72
4,35,115,68
4,40,115,0
4,38,115,384
4,37,115,380
4,28,115,12
4,35,115,0
4,35,115,120
4,37,115,192
4,25,115,8
4,33,115,12
4,32,115,96
4,30,115,88
4,30,115,68
4,42,115,48
4,40,115,48
4,28,115,56
4,35,115,384
4,35,115,64
4,37,115,192
4,25,115,80
4,37,115,384
4,30,115,52
4,30,115,100
4,32,115,192
4,30,115,40
4,30,115,68
4,30,115,76
4,32,115,192
4,37,115,36
4,30,115,32
4,30,115,116
4,32,115,192
4,30,115,36
4,30,115,84
4,30,115,76
4,32,115,24
4,33,115,768
4,33,115,116
4,32,115,192
4,25,115,4
4,30,115,8
4,30,115,96
4,28,115,132
4,26,115,24
4,33,115,4
4,33,115,104
4,28,115,140
4,28,115,24
4,35,115,72
4,40,115,20
4,42,115,384
4,44,115,380
4,40,115,12
4,35,115,0
4,35,115,100
4,35,115,72
4,32,115,12
4,37,115,4
4,37,115,84
4,30,115,192
4,42,115,72
4,40,115,120
4,40,115,84
4,38,115,112
4,40,115,16
4,38,115,4
4,37,115,16
4,33,115,16
4,35,115,92
4,35,115,116
4,32,115,128
4,37,115,8
4,25,115,32
4,30,115,44
4,30,115,84
4,32,115,4
4,30,115,36
4,30,115,96
4,30,115,76
4,32,115,192
4,33,115,48
4,33,115,92
4,33,115,72
4,32,115,768
4,32,115,80
4,30,115,56
4,28,115,36
4,28,115,40
4,35,115,56
4,40,115,28
4,38,115,384
4,37,115,360
4,28,115,36
4,35,115,0
4,35,115,124
4,37,115,192
4,25,115,8
4,33,115,24
4,32,115,4
4,30,115,0
4,30,115,72
4,42,115,48
4,40,115,76
4,28,115,28
4,35,115,20
4,35,115,88
4,37,115,192
4,25,115,40
4,37,115,16
4,38,115,8
4,45,115,68
4,38,115,12
4,38,115,164
4,33,115,16
4,33,115,120
4,33,115,160
4,35,115,384
4,30,115,32
4,35,115,132
4,37,115,32
4,37,115,104
4,32,115,4
4,32,115,44
4,37,115,192
4,37,115,84
4,35,115,384
4,33,115,364
4,33,115,80
4,33,115,72
4,33,115,64
4,32,115,192
4,32,115,100
4,30,115,56
4,30,115,60
4,28,115,20
4,28,115,40
4,35,115,56
4,40,115,16
4,38,115,8
4,37,115,384
4,28,115,12
4,35,115,20
4,35,115,128
4,37,115,192
4,25,115,36
4,32,115,576
4,30,115,180
4,30,115,72
4,42,115,60
4,40,115,44
4,28,115,60
4,35,115,8
4,35,115,108
4,37,115,8
4,25,115,44
4,37,115,384
4,30,115,20
4,30,115,88
4,32,115,192
4,30,115,56
4,30,115,80
4,30,115,76
4,32,115,192
4,37,115,20
4,30,115,92
4,30,115,108
4,32,115,192
4,30,115,92
4,30,115,48
4,30,115,64
4,32,115,40
4,30,115,768
4,30,115,128
4,32,115,192
4,30,115,24
4,30,115,52
4,30,115,76
4,32,115,192
4,25,115,64
4,30,115,44
4,30,115,60
4,30,115,64
4,30,115,40
4,30,115,76
4,30,115,68
4,30,115,28
5,45,89,1536
5,57,75,192
5,52,87,0
5,52,90,152
5,57,81,0
5,52,87,148
5,57,81,0
5,45,90,148
5,57,77,172
5,52,84,0
5,57,79,152
5,52,90,0
5,52,90,148
5,57,81,0
5,45,87,180
5,52,87,176
5,57,77,0
5,52,88,152
5,57,77,0
5,52,88,152
5,57,81,0
5,45,85,148
5,57,75,160
5,52,82,0
5,57,80,156
5,52,88,0
5,45,87,116
5,57,84,0
5,52,89,0
5,45,93,152
5,52,82,144
5,57,74,0
5,52,91,156
5,57,77,0
5,57,83,8
5,52,90,0
5,45,87,192
5,57,75,168
5,52,86,0
5,57,81,152
5,52,85,0
5,57,81,148
5,52,92,0
5,44,84,0
5,53,84,172
5,59,77,0
5,53,87,152
5,59,80,0
5,59,81,144
5,53,88,0
5,44,90,0
5,59,75,180
5,53,85,0
5,59,83,148
5,53,89,0
5,53,83,140
5,59,81,0
5,44,95,0
5,42,93,132
5,61,80,176
5,57,82,0
5,57,88,148
5,61,86,0
5,57,88,148
5,61,90,0
5,40,88,8
5,57,81,172
5,61,84,0
5,57,85,156
5,61,86,0
5,57,88,148
5,61,86,0
5,38,91,4
5,57,82,188
5,61,90,0
5,57,82,152
5,61,88,0
5,57,85,148
5,61,87,0
5,45,89,8
5,57,77,188
5,52,85,0
5,52,85,152
5,57,77,0
5,52,88,152
5,57,82,0
5,40,93,28
5,59,77,188
5,52,80,0
5,59,75,152
5,52,86,0
5,52,88,148
5,59,81,0
5,40,83,0
5,59,77,176
5,52,87,0
5,59,73,148
5,52,82,0
5,59,80,148
5,52,85,0
5,40,92,120
5,59,71,168
5,52,84,0
5,59,77,148
5,52,85,0
5,59,81,148
5,52,87,0
5,40,87,128
5,59,78,168
5,52,84,0
5,59,85,152
5,52,91,0
5,52,91,124
5,59,87,0
5,40,91,0
5,35,93,8
5,54,81,188
5,59,81,0
5,50,81,4
5,54,79,156
5,59,81,0
5,50,82,4
5,35,91,124
5,54,85,20
5,59,86,0
5,50,85,0
5,35,93,148
5,54,78,132
5,50,80,0
5,59,80,0
5,50,81,156
5,54,82,0
5,59,80,0
5,50,85,152
5,54,88,0
5,59,82,0
5,44,85,0
5,59,76,168
5,53,89,0
5,53,89,156
5,59,80,0
5,53,87,152
5,59,85,0
5,37,91,28
5,53,89,176
5,59,77,0
5,53,93,156
5,59,86,0
5,53,85,136
5,59,89,0
5,37,87,0
5,42,85,12
5,57,81,180
5,54,82,0
5,61,77,0
5,57,82,156
5,61,77,0
5,54,85,0
5,54,91,148
5,61,82,0
5,57,86,0
5,40,88,8
5,61,82,176
5,57,89,0
5,56,85,0
5,61,77,148
5,57,77,0
5,56,87,0
5,61,77,148
5,57,81,0
5,56,88,0
5,38,91,4
5,57,81,184
5,50,81,0
5,54,84,0
5,57,81,148
5,50,81,0
5,54,88,0
5,50,85,152
5,57,83,0
5,54,87,0
5,37,88,0
5,57,68,172
5,54,75,0
5,49,75,0
5,57,81,156
5,54,79,0
5,49,77,0
5,49,78,132
5,57,81,0
5,54,79,0
5,37,77,0
5,35,88,0
5,59,82,192
5,54,84,0
5,50,81,0
5,54,81,148
5,59,81,0
5,50,81,0
5,59,81,152
5,50,84,0
5,54,85,0
5,35,92,12
5,50,75,192
5,59,73,0
5,54,75,0
5,50,80,152
5,54,79,0
5,59,81,0
5,50,86,144
5,54,84,0
5,59,82,0
5,44,90,0
5,56,82,192
5,59,79,0
5,53,80,0
5,53,81,156
5,56,85,0
5,59,81,0
5,53,85,148
5,56,86,0
5,59,83,0
5,37,88,8
5,53,75,176
5,56,86,0
5,59,75,0
5,53,80,152
5,59,77,0
5,56,84,0
5,56,79,140
5,59,76,0
5,53,77,0
5,37,72,0
5,42,88,192
5,54,86,172
5,57,83,0
5,61,78,0
5,61,77,148
5,54,80,0
5,57,80,0
5,61,80,152
5,54,87,0
5,57,87,0
5,44,92,28
5,53,87,180
5,56,86,0
5,59,77,0
5,53,58,144
5,59,77,0
5,56,81,0
5,56,84,152
5,53,81,0
5,59,77,0
5,42,91,4
5,57,75,160
5,61,71,0
5,54,79,0
5,57,82,164
5,61,82,0
5,54,91,0
5,57,82,148
5,61,79,0
5,54,80,0
5,44,92,0
5,52,81,0
5,56,85,0
5,59,87,0
5,59,85,140
5,56,81,0
5,52,81,0
5,40,89,28
5,52,81,0
5,56,84,0
5,59,89,0
5,45,93,16
5,52,82,192
5,57,74,0
5,52,91,156
5,57,77,0
5,57,83,8
5,52,90,0
5,45,87,192
5,57,75,168
5,52,86,0
5,57,81,152
5,52,85,0
5,57,81,148
5,52,92,0
5,44,84,0
5,53,84,172
5,59,77,0
5,53,87,152
5,59,80,0
5,59,81,144
5,53,88,0
5,44,90,0
5,59,75,180
5,53,85,0
5,59,83,148
5,53,89,0
5,53,83,140
5,59,81,0
5,44,95,0
5,42,93,132
5,61,80,176
5,57,82,0
5,57,88,148
5,61,86,0
5,57,88,148
5,61,90,0
5,40,88,8
5,57,81,172
5,61,84,0
5,57,85,156
5,61,86,0
5,57,88,148
5,61,86,0
5,38,91,4
5,57,82,188
5,61,90,0
5,57,82,152
5,61,88,0
5,57,85,148
5,61,87,0
5,45,89,8
5,57,77,188
5,52,85,0
5,52,85,152
5,57,77,0
5,52,88,152
5,57,82,0
5,40,93,28
5,59,77,188
5,52,80,0
5,59,75,152
5,52,86,0
5,52,88,148
5,59,81,0
5,40,83,0
5,59,77,176
5,52,87,0
5,59,73,148
5,52,82,0
5,59,80,148
5,52,85,0
5,40,92,120
5,59,71,168
5,52,84,0
5,59,77,148
5,52,85,0
5,59,81,148
5,52,87,0
5,40,87,128
5,59,78,168
5,52,84,0
5,59,85,152
5,52,91,0
5,52,91,124
5,59,87,0
5,40,91,0
5,35,93,8
5,54,81,188
5,59,81,0
5,50,81,4
5,54,79,156
5,59,81,0
5,50,82,4
5,35,91,124
5,54,85,20
5,59,86,0
5,50,85,0
5,35,93,148
5,54,78,132
5,50,80,0
5,59,80,0
5,50,81,156
5,54,82,0
5,59,80,0
5,50,85,152
5,54,88,0
5,59,82,0
5,44,85,0
5,59,76,168
5,53,89,0
5,53,89,156
5,59,80,0
5,53,87,152
5,59,85,0
5,37,91,28
5,53,89,176
5,59,77,0
5,53,93,156
5,59,86,0
5,53,85,136
5,59,89,0
5,37,87,0
5,42,85,12
5,57,81,180
5,54,82,0
5,61,77,0
5,57,82,156
5,61,77,0
5,54,85,0
5,54,91,148
5,61,82,0
5,57,86,0
5,40,88,8
5,61,82,176
5,57,89,0
5,56,85,0
5,61,77,148
5,57,77,0
5,56,87,0
5,61,77,148
5,57,81,0
5,56,88,0
5,38,91,4
5,57,81,184
5,50,81,0
5,54,84,0
5,57,81,148
5,50,81,0
5,54,88,0
5,50,85,152
5,57,83,0
5,54,87,0
5,37,88,0
5,57,68,172
5,54,75,0
5,49,75,0
5,57,81,156
5,54,79,0
5,49,77,0
5,49,78,132
5,57,81,0
5,54,79,0
5,37,77,0
5,35,88,0
5,59,82,192
5,54,84,0
5,50,81,0
5,54,81,148
5,59,81,0
5,50,81,0
5,59,81,152
5,50,84,0
5,54,85,0
5,35,92,12
5,50,75,192
5,59,73,0
5,54,75,0
5,50,80,152
5,54,79,0
5,59,81,0
5,50,86,144
5,54,84,0
5,59,82,0
5,44,90,0
5,56,82,192
5,59,79,0
5,53,80,0
5,53,81,156
5,56,85,0
5,59,81,0
5,53,85,148
5,56,86,0
5,59,83,0
5,37,88,8
5,53,75,176
5,56,86,0
5,59,75,0
5,53,80,152
5,59,77,0
5,56,84,0
5,56,79,140
5,59,76,0
5,53,77,0
5,37,72,0
5,42,88,192
5,54,86,172
5,57,83,0
5,61,78,0
5,61,77,148
5,54,80,0
5,57,80,0
5,61,80,152
5,54,87,0
5,57,87,0
5,44,92,28
5,53,87,180
5,56,86,0
5,59,77,0
5,53,58,144
5,59,77,0
5,56,81,0
5,56,84,152
5,53,81,0
5,59,77,0
5,42,91,4
5,57,75,160
5,61,71,0
5,54,79,0
5,57,82,164
5,61,82,0
5,54,91,0
5,57,82,148
5,61,79,0
5,54,80,0
5,44,92,0
5,52,81,0
5,56,85,0
5,59,87,0
5,59,85,140
5,56,81,0
5,52,81,0
5,40,89,28
5,52,81,0
5,56,84,0
5,59,89,0
5,45,89,16
5,52,79,192
5,61,77,0
5,57,84,0
5,61,77,148
5,52,81,0
5,57,83,0
5,57,85,152
5,61,81,0
5,52,83,0
5,45,86,132
5,57,80,156
5,61,77,0
5,52,79,0
5,52,81,144
5,57,81,0
5,61,80,0
5,52,83,144
5,57,81,0
5,61,80,0
5,44,85,192
5,56,85,164
5,52,77,0
5,59,79,0
5,52,77,148
5,59,79,0
5,56,87,0
5,52,81,144
5,59,82,0
5,56,85,0
5,42,91,20
5,57,89,176
5,61,81,0
5,52,84,0
5,52,81,148
5,61,77,0
5,57,88,0
5,57,82,152
5,61,77,0
5,52,79,0
5,40,90,8
5,56,84,176
5,52,81,0
5,59,80,0
5,52,77,144
5,56,84,0
5,59,77,0
5,59,79,144
5,52,81,0
5,56,91,0
5,40,90,16
5,56,92,188
5,59,81,0
5,52,83,0
5,56,82,152
5,59,81,0
5,52,81,0
5,56,87,152
5,59,83,0
5,52,82,0
5,40,91,4
5,52,81,176
5,59,80,0
5,56,90,0
5,38,85,148
5,59,84,0
5,52,86,0
5,56,91,0
5,52,83,144
5,59,86,0
5,56,87,0
5,37,85,0
5,59,75,180
5,52,75,0
5,56,84,0
5,28,87,36
5,59,85,0
5,52,84,0
5,56,90,0
5,52,85,152
5,56,88,0
5,59,89,0
5,35,85,24
5,59,87,184
5,54,91,0
5,50,75,4
5,50,84,140
5,59,84,0
5,54,85,0
5,54,86,144
5,59,86,0
5,50,83,0
5,35,83,8
5,54,92,164
5,50,87,4
5,59,84,0
5,54,86,148
5,59,84,0
5,50,85,0
5,59,83,148
5,54,86,0
