track,note,velocity,time
3,26,108,2592
3,26,0,384
3,30,101,0
3,35,103,384
3,30,0,6
3,35,0,271
3,35,82,11
3,33,98,96
3,35,0,2
3,33,0,186
3,40,105,4
3,26,108,0
3,26,0,384
3,30,101,0
3,35,103,384
3,30,0,6
3,35,0,271
3,35,82,11
3,33,98,96
3,35,0,2
3,33,0,186
3,40,105,4
3,26,108,0
3,26,0,384
3,30,101,0
3,35,103,384
3,30,0,6
3,35,0,271
3,35,82,11
3,33,98,96
3,35,0,2
3,33,0,186
3,40,105,4
3,26,108,0
3,26,0,384
3,30,101,0
3,35,103,384
3,30,0,6
3,35,0,271
3,35,82,11
3,33,98,96
3,35,0,2
3,33,0,186
3,40,105,4
3,31,114,0
3,31,0,231
3,31,109,57
3,26,108,96
3,31,0,5
3,26,0,180
3,30,107,7
3,30,0,187
3,35,108,5
3,35,0,237
3,35,109,51
3,33,98,96
3,35,0,9
3,28,98,183
3,33,0,1
3,28,0,187
3,26,109,4
3,26,0,247
3,26,116,41
3,26,0,95
3,24,109,1
3,31,103,288
3,24,0,4
3,36,109,92
3,31,0,4
3,36,0,243
3,31,116,41
3,31,0,95
3,24,111,1
3,24,0,172
3,24,98,20
3,24,0,189
3,26,108,3
3,26,0,384
3,30,101,0
3,35,103,384
3,30,0,6
3,35,0,271
3,35,82,11
3,33,98,96
3,35,0,2
3,33,0,186
3,40,105,4
3,26,108,0
3,26,0,384
3,30,101,0
3,35,103,384
3,30,0,6
3,35,0,271
3,35,82,11
3,33,98,96
3,35,0,2
3,33,0,186
3,40,105,4
3,31,114,2
3,31,109,57
3,26,108,96
3,31,0,5
3,26,0,180
3,30,107,7
3,30,0,187
3,35,108,5
3,35,0,237
3,35,109,51
3,33,98,96
3,35,0,9
3,28,98,183
3,33,0,1
3,28,0,187
3,35,109,4
3,35,0,94
3,35,89,2
3,35,0,164
3,30,82,28
3,30,0,94
3,35,102,2
3,35,0,334
3,31,99,50
3,31,0,67
3,31,80,29
3,31,0,151
3,31,80,41
3,31,0,67
3,31,88,29
3,43,102,192
3,31,0,23
3,43,0,165
3,33,123,4
3,33,0,382
3,28,116,2
3,28,0,378
3,35,123,6
3,35,0,274
3,35,116,14
3,35,0,82
3,35,123,14
3,35,0,286
3,37,114,2
3,38,123,96
3,37,0,7
3,26,109,281
3,38,0,10
3,26,0,71
3,26,109,15
3,26,0,382
3,30,111,2
3,30,0,270
3,30,109,18
3,30,0,70
3,30,111,26
3,30,0,379
3,28,121,5
3,28,0,274
3,28,103,14
3,28,0,66
3,28,123,30
3,35,123,384
3,28,0,4
3,35,0,280
3,35,123,4
3,35,0,68
3,35,109,28
3,35,0,286
3,37,111,2
3,38,119,96
3,37,0,11
3,26,123,277
3,38,0,0
3,26,0,66
3,26,123,30
3,33,116,384
3,26,0,6
3,33,0,266
3,33,116,16
3,33,0,70
3,33,109,26
3,33,0,94
3,40,116,2
3,40,0,96
3,47,109,0
3,39,114,96
3,47,0,1
3,40,116,95
3,39,0,8
3,40,0,277
3,28,109,3
3,28,0,72
3,28,116,24
3,35,116,384
3,28,0,3
3,35,0,243
3,35,123,42
3,35,0,61
3,35,103,35
3,35,0,188
3,28,123,4
3,30,118,48
3,28,0,7
3,33,119,41
3,30,0,13
3,33,0,29
3,35,118,6
3,35,0,45
3,30,123,3
3,30,0,761
3,30,111,7
3,30,0,770
3,26,108,1534
3,26,0,384
3,30,101,0
3,35,103,384
3,30,0,6
3,35,0,271
3,35,82,11
3,33,98,96
3,35,0,2
3,33,0,186
3,40,105,4
3,26,108,0
3,26,0,384
3,30,101,0
3,35,103,384
3,30,0,6
3,35,0,271
3,35,82,11
3,33,98,96
3,35,0,2
3,33,0,186
3,40,105,4
3,31,114,2
3,31,109,57
3,26,108,96
3,31,0,5
3,26,0,180
3,30,107,7
3,30,0,187
3,35,108,5
3,35,0,237
3,35,109,51
3,33,98,96
3,35,0,9
3,28,98,183
3,33,0,1
3,28,0,187
3,35,109,4
3,35,0,94
3,35,89,2
3,35,0,164
3,30,82,28
3,30,0,94
3,35,102,2
3,35,0,334
3,31,99,50
3,31,0,67
3,31,80,29
3,31,0,151
3,31,80,41
3,31,0,67
3,31,88,29
3,43,102,192
3,31,0,23
3,43,0,165
3,33,123,4
3,33,0,382
3,28,116,2
3,28,0,378
3,35,123,6
3,35,0,274
3,35,116,14
3,35,0,82
3,35,123,14
3,35,0,286
3,37,114,2
3,38,123,96
3,37,0,7
3,26,109,281
3,38,0,10
3,26,0,71
3,26,109,15
3,26,0,382
3,30,111,2
3,30,0,270
3,30,109,18
3,30,0,70
3,30,111,26
3,30,0,379
3,28,121,5
3,28,0,274
3,28,103,14
3,28,0,66
3,28,123,30
3,35,123,384
3,28,0,4
3,35,0,280
3,35,123,4
3,35,0,68
3,35,109,28
3,35,0,286
3,37,111,2
3,38,119,96
3,37,0,11
3,26,123,277
3,38,0,0
3,26,0,66
3,26,123,30
3,33,116,384
3,26,0,6
3,33,0,266
3,33,116,16
3,33,0,70
3,33,109,26
3,33,0,94
3,40,116,2
3,40,0,96
3,47,109,0
3,39,114,96
3,47,0,1
3,40,116,95
3,39,0,8
3,40,0,277
3,28,109,3
3,28,0,72
3,28,116,24
3,35,116,384
3,28,0,3
3,35,0,243
3,35,123,42
3,35,0,61
3,35,103,35
3,35,0,188
3,28,123,4
3,30,118,48
3,28,0,7
3,33,119,41
3,30,0,13
3,33,0,29
3,35,118,6
3,35,0,45
3,30,123,3
3,30,0,761
3,30,111,7
3,33,123,768
3,30,0,2
3,33,0,380
3,28,116,2
3,28,0,378
3,35,123,6
3,35,0,274
3,35,116,14
3,35,0,82
3,35,123,14
3,35,0,286
3,37,114,2
3,38,123,96
3,37,0,7
3,26,109,281
3,38,0,10
3,26,0,71
3,26,109,15
3,26,0,382
3,30,111,2
3,30,0,270
3,30,109,18
3,30,0,70
3,30,111,26
3,30,0,379
3,28,121,5
3,28,0,274
3,28,103,14
3,28,0,66
3,28,123,30
3,35,123,384
3,28,0,4
3,35,0,280
3,35,123,4
3,35,0,68
3,35,109,28
3,35,0,286
3,37,111,2
3,38,119,96
3,37,0,11
3,26,123,277
3,38,0,0
3,26,0,66
3,26,123,30
3,33,116,384
3,26,0,6
3,33,0,266
3,33,116,16
3,33,0,70
3,33,109,26
3,33,0,94
3,40,116,2
3,40,0,96
3,47,109,0
3,39,114,96
3,47,0,1
3,40,116,95
3,39,0,8
3,40,0,277
3,28,109,3
3,28,0,72
3,28,116,24
3,35,116,384
3,28,0,3
3,35,0,243
3,35,123,42
3,35,0,61
3,35,103,35
3,35,0,188
3,28,123,4
3,30,118,48
3,28,0,7
3,33,119,41
3,30,0,13
3,33,0,29
3,35,118,6
3,35,0,45
3,30,123,3
3,30,0,761
3,30,111,7
3,30,0,770
4,38,71,2640
4,54,86,0
4,57,63,0
4,62,53,0
4,62,0,369
4,42,85,15
4,61,85,0
4,38,0,8
4,47,85,376
4,59,85,0
4,62,85,0
4,57,0,4
4,42,0,8
4,61,0,8
4,47,0,359
4,59,0,2
4,45,85,3
4,52,85,0
4,57,85,0
4,61,85,0
4,62,0,2
4,54,0,4
4,52,0,354
4,45,0,15
4,61,0,6
4,38,85,3
4,54,85,0
4,62,85,0
4,42,85,384
4,61,85,0
4,62,0,1
4,38,0,1
4,47,84,382
4,59,84,0
4,62,84,0
4,61,0,4
4,57,0,5
4,42,0,1
4,62,0,354
4,47,0,10
4,59,0,9
4,45,64,1
4,52,52,0
4,57,84,0
4,61,49,0
4,54,0,6
4,57,0,377
4,38,71,1
4,54,86,0
4,57,63,0
4,62,53,0
4,57,0,6
4,61,0,4
4,45,0,2
4,52,0,0
4,62,0,357
4,42,85,15
4,61,85,0
4,38,0,8
4,47,85,376
4,59,85,0
4,62,85,0
4,42,0,12
4,61,0,8
4,47,0,359
4,59,0,2
4,45,85,3
4,52,85,0
4,57,85,0
4,61,85,0
4,62,0,2
4,54,0,4
4,52,0,354
4,45,0,15
4,61,0,6
4,38,85,3
4,54,85,0
4,62,85,0
4,42,85,384
4,61,85,0
4,62,0,1
4,38,0,1
4,47,84,382
4,59,84,0
4,62,84,0
4,61,0,4
4,57,0,5
4,42,0,1
4,62,0,354
4,47,0,10
4,59,0,9
4,45,64,1
4,52,52,0
4,57,84,0
4,61,49,0
4,54,0,6
4,43,84,378
4,55,84,0
4,59,84,0
4,62,84,0
4,57,0,6
4,61,0,4
4,45,0,2
4,52,0,0
4,50,84,372
4,54,84,0
4,57,84,0
4,43,0,6
4,59,0,2
4,55,0,1
4,47,84,375
4,57,0,0
4,59,84,0
4,50,0,6
4,45,84,378
4,52,84,0
4,57,84,0
4,61,84,0
4,62,0,5
4,47,0,15
4,59,0,0
4,54,0,1
4,61,0,351
4,52,0,2
4,50,84,10
4,54,84,0
4,62,84,0
4,45,0,6
4,57,0,364
4,48,84,14
4,50,0,0
4,52,84,0
4,55,84,0
4,54,0,6
4,38,71,24
4,54,86,0
4,57,63,0
4,62,53,0
4,42,85,15
4,61,85,0
4,38,0,8
4,47,85,376
4,59,85,0
4,62,85,0
4,57,0,4
4,42,0,8
4,61,0,8
4,47,0,359
4,59,0,2
4,45,85,3
4,52,85,0
4,57,85,0
4,61,85,0
4,62,0,2
4,54,0,4
4,52,0,354
4,45,0,15
4,61,0,6
4,38,85,3
4,54,85,0
4,62,85,0
4,42,85,384
4,61,85,0
4,62,0,1
4,38,0,1
4,47,84,382
4,59,84,0
4,62,84,0
4,61,0,4
4,57,0,5
4,42,0,1
4,62,0,354
4,47,0,10
4,59,0,9
4,45,64,1
4,52,52,0
4,57,84,0
4,61,49,0
4,54,0,6
4,43,84,378
4,55,84,0
4,59,84,0
4,62,84,0
4,57,0,6
4,61,0,4
4,45,0,2
4,52,0,0
4,50,84,372
4,54,84,0
4,57,84,0
4,43,0,6
4,59,0,2
4,55,0,1
4,47,84,375
4,57,0,0
4,59,84,0
4,50,0,6
4,45,82,378
4,52,82,0
4,57,82,0
4,61,82,0
4,62,0,5
4,47,0,15
4,59,0,0
4,54,0,1
4,61,0,351
4,52,0,2
4,57,0,8
4,47,82,2
4,54,82,0
4,59,82,0
4,62,82,0
4,45,0,6
4,47,0,760
4,54,0,0
4,43,84,2
4,55,84,0
4,57,79,384
4,43,0,382
4,55,0,0
4,57,0,0
4,59,0,0
4,62,0,0
4,45,87,2
4,57,87,0
4,61,87,0
4,64,87,0
4,52,87,259
4,56,87,0
4,59,87,0
4,64,87,0
4,47,87,278
4,54,87,0
4,59,87,0
4,62,87,0
4,49,87,523
4,57,87,0
4,61,87,0
4,64,87,0
4,50,87,31
4,57,87,0
4,62,87,0
4,66,87,0
4,42,87,564
4,57,87,0
4,61,87,0
4,66,87,0
4,40,87,325
4,56,87,0
4,59,87,0
4,64,87,0
4,47,87,629
4,54,87,0
4,59,87,0
4,62,87,0
4,49,87,495
4,57,87,0
4,61,87,0
4,64,87,0
4,50,87,52
4,57,87,0
4,62,87,0
4,66,87,0
4,45,87,562
4,57,87,0
4,61,87,0
4,64,87,0
4,40,87,605
4,52,87,0
4,56,87,0
4,59,87,0
4,64,87,0
4,47,87,649
4,54,46,0
4,59,66,0
4,62,70,0
4,66,47,0
4,38,71,3264
4,54,86,0
4,57,63,0
4,62,53,0
4,62,0,369
4,42,85,15
4,61,85,0
4,38,0,8
4,47,85,376
4,59,85,0
4,62,85,0
4,57,0,4
4,42,0,8
4,61,0,8
4,47,0,359
4,59,0,2
4,45,85,3
4,52,85,0
4,57,85,0
4,61,85,0
4,62,0,2
4,54,0,4
4,52,0,354
4,45,0,15
4,61,0,6
4,38,85,3
4,54,85,0
4,62,85,0
4,42,85,384
4,61,85,0
4,62,0,1
4,38,0,1
4,47,84,382
4,59,84,0
4,62,84,0
4,61,0,4
4,57,0,5
4,42,0,1
4,62,0,354
4,47,0,10
4,59,0,9
4,45,64,1
4,52,52,0
4,57,84,0
4,61,49,0
4,54,0,6
4,43,84,378
4,55,84,0
4,59,84,0
4,62,84,0
4,57,0,6
4,61,0,4
4,45,0,2
4,52,0,0
4,50,84,372
4,54,84,0
4,57,84,0
4,43,0,6
4,59,0,2
4,55,0,1
4,47,84,375
4,57,0,0
4,59,84,0
4,50,0,6
4,45,82,378
4,52,82,0
4,57,82,0
4,61,82,0
4,62,0,5
4,47,0,15
4,59,0,0
4,54,0,1
4,61,0,351
4,52,0,2
4,57,0,8
4,47,82,2
4,54,82,0
4,59,82,0
4,62,82,0
4,45,0,6
4,47,0,760
4,54,0,0
4,43,84,2
4,55,84,0
4,57,79,384
4,43,0,382
4,55,0,0
4,57,0,0
4,59,0,0
4,62,0,0
4,45,87,2
4,57,87,0
4,61,87,0
4,64,87,0
4,52,87,259
4,56,87,0
4,59,87,0
4,64,87,0
4,47,87,278
4,54,87,0
4,59,87,0
4,62,87,0
4,49,87,523
4,57,87,0
4,61,87,0
4,64,87,0
4,50,87,31
4,57,87,0
4,62,87,0
4,66,87,0
4,42,87,564
4,57,87,0
4,61,87,0
4,66,87,0
4,40,87,325
4,56,87,0
4,59,87,0
4,64,87,0
4,47,87,629
4,54,87,0
4,59,87,0
4,62,87,0
4,49,87,495
4,57,87,0
4,61,87,0
4,64,87,0
4,50,87,52
4,57,87,0
4,62,87,0
4,66,87,0
4,45,87,562
4,57,87,0
4,61,87,0
4,64,87,0
4,40,87,605
4,52,87,0
4,56,87,0
4,59,87,0
4,64,87,0
4,47,87,649
4,54,46,0
4,59,66,0
4,62,70,0
4,66,47,0
4,45,87,1728
4,57,87,0
4,61,87,0
4,64,87,0
4,52,87,259
4,56,87,0
4,59,87,0
4,64,87,0
4,47,87,278
4,54,87,0
4,59,87,0
4,62,87,0
4,49,87,523
4,57,87,0
4,61,87,0
4,64,87,0
4,50,87,31
4,57,87,0
4,62,87,0
4,66,87,0
4,42,87,564
4,57,87,0
4,61,87,0
4,66,87,0
4,40,87,325
4,56,87,0
4,59,87,0
4,64,87,0
4,47,87,629
4,54,87,0
4,59,87,0
4,62,87,0
4,49,87,495
4,57,87,0
4,61,87,0
4,64,87,0
4,50,87,52
4,57,87,0
4,62,87,0
4,66,87,0
4,45,87,562
4,57,87,0
4,61,87,0
4,64,87,0
4,40,87,605
4,52,87,0
4,56,87,0
4,59,87,0
4,64,87,0
4,47,87,649
4,54,46,0
4,59,66,0
4,62,70,0
4,66,47,0
5,78,84,5996
5,78,0,43
5,76,84,5
5,76,0,21
5,74,88,27
5,74,0,135
5,78,75,9
5,78,0,39
5,76,69,9
5,76,0,37
5,74,73,11
5,74,0,57
5,73,50,39
5,73,0,253
5,71,81,83
5,71,0,27
5,71,76,21
5,71,0,24
5,71,73,24
5,71,0,121
5,71,76,23
5,71,0,29
5,71,75,19
5,71,0,37
5,69,74,11
5,69,0,219
5,78,85,213
5,78,0,45
5,76,72,3
5,76,0,31
5,74,85,17
5,74,0,75
5,78,68,21
5,78,0,79
5,76,69,17
5,76,0,40
5,74,80,8
5,74,0,62
5,73,82,34
5,73,0,211
5,71,72,125
5,71,0,28
5,71,77,20
5,71,0,27
5,71,70,21
5,71,0,79
5,71,80,17
5,71,0,79
5,71,85,17
5,71,0,36
5,69,60,12
5,69,0,150
5,78,89,282
5,78,0,26
5,81,98,22
5,81,0,80
5,78,52,16
5,78,0,28
5,81,88,20
5,81,0,33
5,78,73,15
5,78,0,23
5,76,76,25
5,76,0,39
5,74,72,9
5,74,0,102
5,74,90,42
5,74,0,37
5,76,78,11
5,76,0,30
5,78,63,18
5,78,0,32
5,79,93,16
5,79,0,73
5,78,91,23
5,78,0,139
5,83,97,53
5,81,98,48
5,83,0,1
5,81,0,218
5,78,99,69
5,78,0,34
5,76,77,14
5,76,0,75
5,74,103,21
5,74,0,186
5,78,84,1494
5,78,0,35
5,76,76,13
5,76,0,27
5,74,84,21
5,74,0,118
5,78,81,26
5,78,0,33
5,76,81,15
5,76,0,45
5,74,89,3
5,74,0,65
5,73,86,31
