track,note,velocity,time
1,28,127,5
1,29,103,26
1,29,0,27
1,28,0,61
1,40,121,5
1,40,0,68
1,28,118,6
1,28,124,16
1,28,0,10
1,31,127,10
1,31,89,4
1,28,0,3
1,31,0,102
1,31,0,2
1,33,127,12
1,33,127,1
1,33,0,71
1,33,0,8
1,31,103,0
1,31,107,3
1,31,0,25
1,31,0,0
1,28,127,8
1,28,127,5
1,28,0,68
1,40,108,7
1,28,0,2
1,40,115,5
1,40,0,28
1,40,0,0
1,28,124,93
1,28,121,0
1,28,0,30
1,28,0,0
1,31,121,3
1,31,121,5
1,31,0,59
1,31,0,53
1,33,127,8
1,33,0,80
1,31,103,2
1,31,0,25
1,28,127,9
1,28,0,75
1,40,105,6
1,40,0,30
1,28,117,93
1,28,0,29
1,31,114,7
1,31,0,114
1,33,118,6
1,33,0,78
1,31,103,3
1,31,0,28
1,28,118,9
1,28,0,67
1,40,97,10
1,40,0,32
1,28,113,98
1,28,0,27
1,31,114,6
1,31,0,117
1,33,122,9
1,33,0,68
1,31,100,7
1,31,0,27
1,33,127,10
1,33,0,79
1,45,115,4
1,45,0,24
1,33,117,105
1,33,0,29
1,36,109,3
1,36,0,77
1,36,92,6
1,36,0,38
1,38,120,3
1,38,0,75
1,36,92,0
1,36,0,32
1,33,125,7
1,33,0,74
1,45,103,6
1,45,0,30
1,33,110,102
1,33,0,29
1,36,106,5
1,36,0,110
1,38,117,9
1,38,0,25
1,38,100,42
1,40,110,14
1,38,0,3
1,40,0,27
1,28,127,7
1,28,0,81
1,40,111,4
1,40,0,22
1,28,127,106
1,28,0,24
1,31,116,10
1,31,0,108
1,33,127,9
1,33,0,61
1,31,109,12
1,31,0,26
1,28,127,11
1,28,0,80
1,40,103,4
1,40,0,26
1,28,94,105
1,31,127,35
1,28,0,3
1,31,0,102
1,33,127,11
1,33,0,100
1,35,124,19
1,35,0,111
1,47,110,11
1,47,0,63
1,35,110,12
1,35,0,26
1,38,110,9
1,38,0,117
1,40,114,10
1,38,98,85
1,40,0,4
1,38,0,17
1,33,127,13
1,33,0,111
1,45,118,11
1,33,110,83
1,45,0,2
1,33,0,31
1,36,103,5
1,36,0,109
1,38,115,9
1,38,0,81
1,40,101,3
1,40,0,28
1,28,127,7
1,28,0,118
1,40,118,7
1,28,117,81
1,40,0,1
1,28,0,21
1,31,127,14
1,31,0,114
1,33,127,11
1,31,94,74
1,33,0,5
1,31,0,20
1,28,127,17
1,28,0,76
1,40,104,2
1,40,0,22
1,28,120,106
1,28,0,28
1,31,116,7
1,31,0,80
1,31,104,7
1,31,0,36
1,33,127,2
1,31,96,74
1,33,0,2
1,31,0,31
1,28,127,6
1,28,0,83
1,40,110,4
1,40,0,25
1,28,127,93
1,28,0,29
1,31,120,8
1,31,0,118
1,33,127,8
1,31,97,74
1,33,0,1
1,31,0,29
1,28,127,10
1,28,0,76
1,40,116,6
1,40,0,25
1,28,121,96
1,28,0,29
1,31,118,5
1,31,0,75
1,31,104,7
1,31,0,38
1,33,121,6
1,33,0,76
1,31,104,0
1,31,0,31
1,28,127,9
1,28,0,75
1,40,108,6
1,40,0,24
1,28,122,104
1,28,0,26
1,31,127,9
1,31,0,117
1,33,127,8
1,31,107,73
1,33,0,7
1,31,0,24
1,28,127,13
1,28,0,71
1,40,110,6
1,40,0,27
1,28,127,93
1,28,0,35
1,31,118,0
1,31,0,117
1,33,127,8
1,33,0,67
1,31,110,10
1,31,0,26
1,33,127,12
1,33,0,77
1,45,111,5
1,45,0,23
1,33,115,104
1,33,0,25
1,36,118,7
1,36,0,118
1,38,120,6
1,36,100,79
1,38,0,2
1,36,0,31
1,33,115,8
1,33,0,71
1,45,120,4
1,45,0,31
1,33,113,91
1,33,0,25
1,36,118,11
1,36,0,121
1,38,117,4
1,40,110,82
1,38,0,6
1,40,0,29
1,28,127,6
1,28,0,78
1,40,114,3
1,40,0,22
1,28,116,99
1,28,0,25
1,31,115,13
1,31,0,109
1,33,127,12
1,33,0,70
1,31,103,8
1,31,0,32
1,28,127,6
1,28,0,68
1,40,118,6
1,40,0,28
1,28,121,98
1,28,0,30
1,31,117,9
1,31,0,113
1,33,127,11
1,33,0,100
1,35,120,23
1,35,0,105
1,47,120,9
1,47,0,38
1,35,117,49
1,35,0,25
1,38,115,6
1,38,0,111
1,40,114,10
1,38,98,85
1,40,0,12
1,38,0,15
1,33,127,7
1,33,0,76
1,45,124,4
1,45,0,23
1,33,120,108
1,33,0,27
1,36,118,7
1,36,0,108
1,38,116,12
1,38,0,38
1,38,103,37
1,40,114,4
1,38,0,10
1,40,0,21
1,28,127,7
1,28,0,76
1,40,121,3
1,34,81,8
1,34,0,4
1,40,0,9
1,28,122,108
1,28,0,27
1,31,127,10
1,31,0,110
1,33,127,13
1,31,100,77
1,33,0,1
1,31,0,26
1,28,127,11
1,28,0,72
1,40,118,3
1,40,0,27
1,38,102,25
1,36,117,1
1,36,0,24
1,38,0,26
1,35,120,16
1,35,0,33
1,31,127,10
1,31,0,76
1,31,96,9
1,31,0,30
1,33,127,8
1,31,110,82
1,33,0,3
1,31,0,21
1,28,127,11
1,28,0,80
1,40,114,2
1,40,0,26
1,28,127,8
1,28,0,24
1,28,113,60
1,28,0,33
1,31,127,7
1,31,0,119
1,33,127,6
1,31,95,78
1,33,0,1
1,31,0,30
1,28,127,7
1,28,0,74
1,40,110,3
1,40,0,26
1,28,115,15
1,29,118,2
1,29,0,7
1,28,0,17
1,28,124,62
1,28,0,29
1,31,121,6
1,31,0,115
1,33,127,9
1,33,0,65
1,31,110,5
1,31,0,27
1,28,127,11
1,28,0,78
1,40,110,5
1,40,0,21
1,28,127,11
1,28,0,23
1,28,127,70
1,28,0,26
1,31,122,9
1,31,0,114
1,33,127,11
1,33,0,77
1,31,103,3
1,31,0,26
1,28,127,9
1,28,0,77
1,40,107,7
1,40,0,21
1,28,127,11
1,28,0,22
1,28,127,69
1,28,0,27
1,31,124,8
1,31,0,107
1,33,127,16
1,33,0,67
1,31,110,8
1,31,0,26
1,33,127,14
1,33,0,78
1,45,111,6
1,45,0,26
1,33,109,9
1,33,0,37
1,33,114,50
1,33,0,26
1,36,118,10
1,36,0,114
1,38,124,10
1,36,100,75
1,38,0,1
1,36,0,29
1,33,127,10
1,33,0,74
1,45,100,6
1,45,0,22
1,33,115,14
1,33,0,13
1,33,127,74
1,33,0,26
1,36,120,10
1,36,0,111
1,38,122,12
1,38,0,40
1,38,113,30
1,40,90,15
1,38,0,5
1,40,0,24
1,28,127,6
1,28,0,72
1,40,115,9
1,38,95,4
1,38,0,4
1,40,0,13
1,28,125,103
1,28,0,25
1,31,127,11
1,31,0,107
1,33,127,13
1,33,0,79
1,31,107,2
1,31,0,26
1,28,127,10
1,28,0,72
1,40,109,11
1,40,0,20
1,28,125,103
1,28,0,27
1,31,122,9
1,31,0,105
1,33,127,14
1,33,0,73
1,31,104,11
1,31,0,22
1,35,117,15
1,35,0,62
1,35,65,19
1,35,0,46
1,47,114,7
1,45,115,3
1,45,0,6
1,47,0,30
1,35,105,34
1,35,0,24
1,38,118,13
1,38,0,111
1,40,117,13
1,40,0,73
1,38,106,0
1,38,0,28
1,33,127,11
1,33,0,78
1,45,110,5
1,45,0,22
1,33,115,18
1,33,0,16
1,33,120,63
1,33,0,30
1,36,110,8
1,36,0,76
1,36,100,9
1,36,0,28
1,38,118,10
1,38,0,65
1,40,102,15
1,40,0,28
1,28,127,7
1,28,0,73
1,40,121,7
1,40,0,22
1,28,124,101
1,28,0,26
1,31,127,12
1,31,0,75
1,31,115,9
1,31,0,35
1,33,127,5
1,33,0,70
1,31,107,6
1,31,0,27
1,28,127,10
1,28,0,59
1,33,98,10
1,35,127,8
1,33,0,12
1,35,0,29
1,38,113,3
1,38,0,78
1,35,122,8
1,35,0,25
1,38,127,9
1,38,0,74
1,35,118,9
1,35,0,28
1,38,122,9
1,38,0,30
1,39,107,2
1,38,115,12
1,39,0,3
1,38,0,10
1,40,116,17
1,40,0,32
1,28,127,9
1,28,0,72
1,28,127,15
1,28,0,43
1,40,122,3
1,40,0,55
1,28,118,17
1,28,0,29
1,31,127,11
1,31,0,115
1,33,127,8
1,31,102,74
1,33,0,4
1,31,0,31
1,28,127,6
1,28,0,71
1,40,96,8
1,40,0,24
1,28,122,100
1,28,0,28
1,31,116,11
1,31,0,113
1,33,125,9
1,31,105,79
1,33,0,1
1,31,0,26
1,28,127,11
1,28,0,70
1,40,113,8
1,40,0,24
1,28,120,103
1,28,0,29
1,31,115,7
1,31,0,72
1,31,96,8
1,31,0,36
1,33,121,7
1,33,0,82
1,31,99,0
1,31,0,31
1,28,127,5
1,30,76,48
1,30,0,4
1,28,0,20
1,40,115,8
1,40,0,24
1,28,125,104
1,28,0,30
1,31,122,6
1,31,0,117
1,33,127,5
1,33,0,70
1,31,100,9
1,31,0,27
1,33,124,8
1,33,0,78
1,45,109,4
1,45,0,25
1,33,118,102
1,33,0,29
1,36,117,7
1,36,0,120
1,38,115,5
1,36,100,75
1,38,0,3
1,36,0,32
1,33,127,1
1,33,0,71
1,45,110,8
1,45,0,26
1,33,116,101
1,33,0,29
1,36,115,7
1,36,0,67
1,36,103,12
1,36,0,24
1,38,117,13
1,38,0,55
1,38,101,24
1,40,103,10
1,38,0,8
1,40,0,26
1,28,127,4
1,28,0,72
1,40,120,8
1,40,0,20
1,28,127,105
1,28,0,27
1,31,127,10
1,31,0,108
1,33,127,9
1,31,103,78
1,33,0,3
1,31,0,26
1,28,127,8
1,28,0,72
1,40,110,8
1,40,0,23
1,28,127,9
1,28,0,34
1,28,127,57
1,28,0,32
1,31,116,7
1,31,0,70
1,31,92,9
1,31,0,39
1,33,127,10
1,33,0,90
1,35,127,28
1,35,0,74
1,47,95,4
1,47,0,23
1,35,127,9
1,35,0,39
1,35,121,49
1,35,0,33
1,38,111,4
1,38,0,115
1,40,117,10
1,38,104,79
1,40,0,8
1,38,0,19
1,33,127,10
1,33,0,74
1,45,122,6
1,45,0,20
1,33,125,110
1,33,0,29
1,36,121,6
1,36,0,107
1,38,116,9
1,38,0,65
1,40,110,11
1,40,0,28
1,28,127,9
1,28,0,77
1,40,110,6
1,40,0,26
1,35,120,98
1,35,0,28
1,38,121,10
1,38,0,78
1,35,110,9
1,35,0,25
1,38,113,10
1,38,0,59
1,35,98,20
1,35,0,24
1,40,116,16
1,40,0,76
1,38,120,7
1,38,0,29
1,35,122,11
1,35,0,62
1,38,122,11
1,38,0,116
1,35,121,9
1,35,0,27
1,38,115,11
1,39,109,32
1,38,0,4
1,39,0,24
1,40,115,18
1,40,0,35
1,28,127,6
1,28,0,75
1,40,102,4
1,40,0,25
1,28,122,13
1,28,0,24
1,28,116,58
1,28,0,34
1,31,125,5
1,31,0,122
1,33,127,8
1,31,108,75
1,33,0,2
1,31,0,22
1,28,127,15
1,28,0,72
1,40,104,5
1,40,0,27
1,28,127,101
1,28,0,29
1,31,127,7
1,31,0,110
1,33,127,8
1,31,104,84
1,33,0,8
1,31,0,10
1,28,127,17
1,28,0,76
1,40,113,7
1,40,0,32
1,28,127,4
1,28,0,70
1,28,127,15
1,31,127,36
1,28,0,3
1,31,0,114
1,33,127,8
1,31,105,80
1,33,0,12
1,31,0,15
1,28,127,7
1,28,0,83
1,40,122,4
1,40,0,28
1,28,127,10
1,40,106,80
1,28,0,3
1,40,0,29
1,31,127,12
1,31,0,109
1,33,127,9
1,33,0,68
1,31,108,8
1,31,0,30
1,33,127,10
1,33,0,75
1,45,107,7
1,45,0,28
1,33,127,8
1,35,115,3
1,35,0,5
1,33,0,67
1,45,103,6
1,45,0,20
1,36,117,15
1,36,0,122
1,38,122,7
1,36,96,75
1,38,0,4
1,36,0,31
1,33,127,11
1,45,107,76
1,33,0,2
1,45,0,23
1,33,127,11
1,33,0,87
1,45,98,1
1,45,0,22
1,36,117,10
1,36,0,116
1,38,124,8
1,38,0,60
1,38,88,15
1,40,106,1
1,38,0,10
1,40,0,21
1,28,127,5
1,29,108,4
1,29,0,5
1,28,0,69
1,40,118,4
1,40,0,24
1,28,127,9
1,28,0,22
1,28,127,76
1,28,0,16
1,31,118,8
1,31,0,117
1,33,127,10
1,31,98,87
1,33,0,1
1,31,0,26
1,28,127,3
1,28,0,82
1,40,114,7
1,40,0,24
1,28,125,7
1,28,0,22
1,28,127,61
1,28,0,28
1,31,127,10
1,31,0,114
1,33,127,9
1,33,0,99
1,35,127,22
1,35,0,78
1,47,110,3
1,47,0,26
1,35,127,8
1,35,0,47
1,35,103,26
1,35,0,36
1,38,127,8
1,38,0,118
1,40,121,9
1,38,100,77
1,40,0,7
1,38,0,23
1,33,127,9
1,33,0,83
1,45,113,4
1,45,0,29
1,33,127,8
1,45,116,91
1,33,0,2
1,45,0,21
1,36,127,11
1,36,0,108
1,38,125,9
1,38,0,77
1,40,118,3
1,40,0,32
1,28,127,9
1,28,0,83
1,40,113,3
1,40,0,23
1,28,127,8
1,28,0,71
1,40,85,8
1,28,115,10
1,40,0,9
1,28,0,15
1,31,127,8
1,31,0,114
1,33,127,10
1,33,0,70
1,31,114,6
1,31,0,28
1,28,127,11
1,28,0,118
1,31,127,2
1,31,0,70
1,31,116,11
1,31,0,34
1,33,127,7
1,33,0,60
1,33,104,20
1,35,116,3
1,35,0,26
1,33,0,0
1,34,121,9
1,35,127,7
1,34,0,46
1,35,0,1
1,35,127,26
1,35,0,37
1,28,127,3
1,28,0,119
1,40,107,4
1,40,0,26
1,28,122,53
1,28,0,30
1,31,127,7
1,31,0,115
1,33,127,8
1,31,109,77
1,33,0,5
1,31,0,28
1,28,127,10
1,28,0,120
1,40,117,7
1,40,0,26
1,28,111,53
1,28,0,30
1,31,113,7
1,31,0,114
1,33,125,8
1,33,0,73
1,31,90,1
1,31,0,34
1,28,127,8
1,28,0,79
1,40,103,4
1,40,0,21
1,28,124,103
1,28,0,29
1,31,111,6
1,31,0,75
1,31,85,4
1,31,0,35
1,33,127,6
1,33,0,75
1,31,108,0
1,31,0,30
1,28,127,11
1,28,0,79
1,40,96,0
1,28,127,37
1,40,0,17
1,28,0,59
1,28,113,14
1,28,0,38
1,31,127,0
1,31,0,108
1,33,127,9
1,33,0,67
1,31,110,11
1,31,0,26
1,33,127,11
1,33,0,93
1,45,110,1
1,33,124,31
1,35,98,5
1,45,0,1
1,35,0,3
1,33,0,102
1,36,121,8
1,36,0,112
1,38,117,8
1,36,99,82
1,38,0,9
1,36,0,14
1,33,127,11
1,33,0,83
1,45,109,4
1,33,127,31
1,45,0,2
1,33,0,71
1,33,120,14
1,33,0,32
1,36,124,6
1,36,0,74
1,36,84,7
1,36,0,30
1,38,121,10
1,38,0,55
1,38,113,21
1,40,98,16
1,38,0,4
1,40,0,24
1,28,127,3
1,28,0,79
1,40,118,4
1,40,0,28
1,28,127,5
1,28,0,61
1,28,121,20
1,28,0,36
1,31,127,4
1,31,0,112
1,33,127,11
1,31,106,77
1,33,0,6
1,31,0,22
1,28,127,11
1,28,0,82
1,40,111,2
1,40,0,32
1,28,127,4
1,28,0,81
1,40,110,7
1,40,0,24
1,31,127,10
1,31,0,110
1,33,127,13
1,33,0,95
1,35,127,21
1,35,0,80
1,47,101,1
1,47,0,26
1,35,125,6
1,47,118,94
1,35,0,2
1,47,0,19
1,38,116,6
1,38,0,111
1,40,124,10
1,38,94,88
1,40,0,10
1,33,127,25
1,38,0,5
1,33,0,76
1,45,109,7
1,33,122,32
1,45,0,15
1,33,0,65
1,45,102,4
1,45,0,24
1,36,118,11
1,36,0,114
1,38,124,8
1,38,0,76
1,40,113,3
1,40,0,30
1,28,127,7
1,28,0,81
1,40,114,7
1,40,0,33
1,28,127,5
1,28,0,83
1,40,106,1
1,40,0,27
1,31,122,7
1,31,0,113
1,33,127,9
1,31,98,83
1,33,0,10
1,31,0,16
1,28,127,9
1,28,0,94
1,40,81,5
1,40,0,13
1,28,127,13
1,40,98,81
