track,note,velocity,time
1,40,122,4200
1,35,109,766
1,49,105,0
1,35,72,190
1,42,58,0
1,40,122,190
1,42,126,0
1,42,71,190
1,35,72,110
1,42,126,78
1,35,104,0
1,42,64,190
1,35,104,0
1,42,110,190
1,40,122,0
1,42,71,190
1,35,72,110
1,42,110,78
1,35,109,0
1,42,64,190
1,35,87,0
1,42,126,190
1,40,122,0
1,42,64,190
1,35,72,110
1,42,126,78
1,35,109,0
1,42,43,190
1,35,104,0
1,42,110,190
1,40,127,0
1,44,81,190
1,35,72,110
1,42,126,78
1,35,109,0
1,42,71,190
1,35,104,0
1,42,126,190
1,40,122,0
1,42,58,190
1,35,72,110
1,42,126,78
1,35,104,0
1,42,81,190
1,35,104,0
1,42,126,190
1,40,122,0
1,42,71,190
1,35,87,110
1,42,126,78
1,35,104,0
1,35,87,190
1,42,64,0
1,42,126,190
1,40,122,0
1,42,54,190
1,35,72,110
1,42,126,78
1,35,104,0
1,44,110,190
1,35,104,0
1,40,122,190
1,42,126,0
1,42,81,190
1,35,104,110
1,35,109,78
1,49,105,0
1,35,72,190
1,42,58,0
1,40,122,190
1,42,126,0
1,42,71,190
1,35,72,110
1,42,126,78
1,35,104,0
1,42,64,190
1,35,104,0
1,42,110,190
1,40,122,0
1,42,71,190
1,35,72,110
1,42,110,78
1,35,109,0
1,42,64,190
1,35,87,0
1,42,126,190
1,40,122,0
1,42,64,190
1,35,72,110
1,42,126,78
1,35,109,0
1,42,43,190
1,35,104,0
1,42,110,190
1,40,127,0
1,44,81,190
1,35,72,110
1,42,126,78
1,35,109,0
1,42,71,190
1,35,104,0
1,42,126,190
1,40,122,0
1,42,58,190
1,35,72,110
1,42,126,78
1,35,104,0
1,42,81,190
1,35,104,0
1,42,126,190
1,40,122,0
1,42,71,190
1,35,87,110
1,42,126,78
1,35,104,0
1,35,87,190
1,42,64,0
1,42,126,190
1,40,122,0
1,42,54,190
1,35,72,110
1,42,126,78
1,35,104,0
1,44,110,190
1,35,104,0
1,40,122,190
1,42,126,0
1,42,81,190
1,35,104,110
1,35,109,78
1,49,105,0
1,35,72,190
1,42,58,0
1,40,122,190
1,42,126,0
1,42,71,190
1,35,72,110
1,42,126,78
1,35,104,0
1,42,64,190
1,35,104,0
1,42,110,190
1,40,122,0
1,42,71,190
1,35,72,110
1,42,110,78
1,35,109,0
1,42,64,190
1,35,87,0
1,42,126,190
1,40,122,0
1,42,64,190
1,35,72,110
1,42,126,78
1,35,109,0
1,42,43,190
1,35,104,0
1,42,110,190
1,40,127,0
1,44,81,190
1,35,72,110
1,42,126,78
1,35,109,0
1,42,71,190
1,35,104,0
1,42,126,190
1,40,122,0
1,42,58,190
1,35,72,110
1,42,126,78
1,35,104,0
1,42,81,190
1,35,104,0
1,42,126,190
1,40,122,0
1,42,71,190
1,35,87,110
1,42,126,78
1,35,104,0
1,35,87,190
1,42,64,0
1,42,126,190
1,40,122,0
1,42,54,190
1,35,72,110
1,42,126,78
1,35,104,0
1,44,110,190
1,35,104,0
1,40,122,190
1,42,126,0
1,42,81,190
1,35,104,110
1,35,109,78
1,49,105,0
1,35,72,190
1,42,58,0
1,40,122,190
1,42,126,0
1,42,71,190
1,35,72,110
1,42,126,78
1,35,104,0
1,42,64,190
1,35,104,0
1,42,110,190
1,40,122,0
1,42,71,190
1,35,72,110
1,42,110,78
1,35,109,0
1,42,64,190
1,35,87,0
1,42,126,190
1,40,122,0
1,42,64,190
1,35,72,110
1,42,126,78
1,35,109,0
1,42,43,190
1,35,104,0
1,42,110,190
1,40,127,0
1,44,81,190
1,35,72,110
1,42,126,78
1,35,109,0
1,42,71,190
1,35,104,0
1,42,126,190
1,40,122,0
1,42,58,190
1,35,72,110
1,42,126,78
1,35,104,0
1,42,81,190
1,35,104,0
1,42,126,190
1,40,122,0
1,42,71,190
1,35,87,110
1,42,126,78
1,35,104,0
1,35,87,190
1,42,64,0
1,42,126,190
1,40,122,0
1,42,54,190
1,35,72,110
1,42,126,78
1,35,104,0
1,44,110,190
1,35,104,0
1,40,122,190
1,42,126,0
1,42,81,190
1,35,104,110
1,35,109,78
1,49,105,0
1,35,72,190
1,42,58,0
1,40,122,190
1,42,126,0
1,42,71,190
1,35,72,110
1,42,126,78
1,35,104,0
1,42,64,190
1,35,104,0
1,42,110,190
1,40,122,0
1,42,71,190
1,35,72,110
1,42,110,78
1,35,109,0
1,42,64,190
1,35,87,0
1,42,126,190
1,40,122,0
1,42,64,190
1,35,72,110
1,42,126,78
1,35,109,0
1,42,43,190
1,35,104,0
1,42,110,190
1,40,127,0
1,44,81,190
1,35,72,110
1,42,126,78
1,35,109,0
1,42,71,190
1,35,104,0
1,42,126,190
1,40,122,0
1,42,58,190
1,35,72,110
1,42,126,78
1,35,104,0
1,42,81,190
1,35,104,0
1,42,126,190
1,40,122,0
1,42,71,190
1,35,87,110
1,42,126,78
1,35,104,0
1,35,87,190
1,42,64,0
1,42,126,190
1,40,122,0
1,42,54,190
1,35,72,110
1,42,126,78
1,35,104,0
1,44,110,190
1,35,104,0
1,40,122,190
1,42,126,0
1,42,81,190
1,35,104,110
1,35,109,78
1,49,110,0
1,40,122,382
1,42,110,0
1,42,58,190
1,35,35,110
1,42,110,78
1,35,87,0
1,35,72,190
1,42,71,0
1,40,127,190
1,42,110,0
1,35,109,190
1,49,126,0
1,42,81,190
1,42,81,190
1,40,122,190
1,40,122,94
1,40,69,94
1,40,62,94
1,40,122,94
1,35,109,0
1,40,122,94
1,40,127,94
1,40,122,94
1,41,122,94
1,35,109,0
1,41,105,94
1,41,78,94
1,41,90,94
1,35,104,94
1,49,110,0
1,35,51,190
1,40,127,190
1,42,110,0
1,42,37,190
1,42,126,190
1,35,104,0
1,42,64,190
1,42,110,190
1,40,122,0
1,35,109,190
1,46,126,0
1,42,81,190
1,42,71,382
1,40,127,382
1,42,71,382
1,35,109,382
1,49,105,0
1,35,72,190
1,42,58,0
1,40,122,190
1,42,126,0
1,42,71,190
1,35,72,110
1,42,126,78
1,35,104,0
1,42,64,190
1,35,104,0
1,42,110,190
1,40,122,0
1,42,71,190
1,35,72,110
1,42,110,78
1,35,109,0
1,42,64,190
1,35,87,0
1,42,126,190
1,40,122,0
1,42,64,190
1,35,72,110
1,42,126,78
1,35,109,0
1,42,43,190
1,35,104,0
1,42,110,190
1,40,127,0
1,44,81,190
1,35,72,110
1,42,126,78
1,35,109,0
1,42,71,190
1,35,104,0
1,42,126,190
1,40,122,0
1,42,58,190
1,35,72,110
1,42,126,78
1,35,104,0
1,42,81,190
1,35,104,0
1,42,126,190
1,40,122,0
1,42,71,190
1,35,87,110
1,42,126,78
1,35,104,0
1,35,87,190
1,42,64,0
1,42,126,190
1,40,122,0
1,42,54,190
1,35,72,110
1,42,126,78
1,35,104,0
1,44,110,190
1,35,104,0
1,40,122,190
1,42,126,0
1,42,81,190
1,35,104,110
1,35,109,78
1,49,105,0
1,35,72,190
1,42,58,0
1,40,122,190
1,42,126,0
1,42,71,190
1,35,72,110
1,42,126,78
1,35,104,0
1,42,64,190
1,35,104,0
1,42,110,190
1,40,122,0
1,42,71,190
1,35,72,110
1,42,110,78
1,35,109,0
1,42,64,190
1,35,87,0
1,42,126,190
1,40,122,0
1,42,64,190
1,35,72,110
1,42,126,78
1,35,109,0
1,42,43,190
1,35,104,0
1,42,110,190
1,40,127,0
1,44,81,190
1,35,72,110
1,42,126,78
1,35,109,0
1,42,71,190
1,35,104,0
1,42,126,190
1,40,122,0
1,42,58,190
1,35,72,110
1,42,126,78
1,35,104,0
1,42,81,190
1,35,104,0
1,42,126,190
1,40,122,0
1,42,71,190
1,35,87,110
1,42,126,78
1,35,104,0
1,35,87,190
1,42,64,0
1,42,126,190
1,40,122,0
1,42,54,190
1,35,72,110
1,42,126,78
1,35,104,0
1,44,110,190
1,35,104,0
1,40,122,190
1,42,126,0
1,42,81,190
1,35,104,110
1,35,109,78
1,49,105,0
1,35,72,190
1,42,58,0
1,40,122,190
1,42,126,0
1,42,71,190
1,35,72,110
1,42,126,78
1,35,104,0
1,42,64,190
1,35,104,0
1,42,110,190
1,40,122,0
1,42,71,190
1,35,72,110
1,42,110,78
1,35,109,0
1,42,64,190
1,35,87,0
1,42,126,190
1,40,122,0
1,42,64,190
1,35,72,110
1,42,126,78
1,35,109,0
1,42,43,190
1,35,104,0
1,42,110,190
1,40,127,0
1,44,81,190
1,35,72,110
1,42,126,78
1,35,109,0
1,42,71,190
1,35,104,0
1,42,126,190
1,40,122,0
1,42,58,190
1,35,72,110
1,42,126,78
1,35,104,0
1,42,81,190
1,35,104,0
1,42,126,190
1,40,122,0
1,42,71,190
1,35,87,110
1,42,126,78
1,35,104,0
1,35,87,190
1,42,64,0
1,42,126,190
1,40,122,0
1,42,54,190
1,35,72,110
1,42,126,78
1,35,104,0
1,44,110,190
1,35,104,0
1,40,122,190
1,42,126,0
1,42,81,190
1,35,104,110
1,35,109,78
1,49,105,0
1,35,72,190
1,42,58,0
1,40,122,190
1,42,126,0
1,42,71,190
1,35,72,110
1,42,126,78
1,35,104,0
1,42,64,190
1,35,104,0
1,42,110,190
1,40,122,0
1,42,71,190
1,35,72,110
1,42,110,78
1,35,109,0
1,42,64,190
1,35,87,0
1,42,126,190
1,40,122,0
1,42,64,190
1,35,72,110
1,42,126,78
1,35,109,0
1,42,43,190
1,35,104,0
1,42,110,190
1,40,127,0
1,44,81,190
1,35,72,110
1,35,104,78
1,40,122,0
1,42,93,766
1,42,110,382
1,42,93,382
1,42,93,382
1,35,72,190
1,40,127,190
1,35,109,766
1,49,105,0
1,35,72,190
1,42,58,0
1,40,122,190
1,42,126,0
1,42,71,190
1,35,72,110
1,42,126,78
1,35,104,0
1,42,64,190
1,35,104,0
1,42,110,190
1,40,122,0
1,42,71,190
1,35,72,110
1,42,110,78
1,35,109,0
1,42,64,190
1,35,87,0
1,42,126,190
1,40,122,0
1,42,64,190
1,35,72,110
1,42,126,78
1,35,109,0
1,42,43,190
1,35,104,0
1,42,110,190
1,40,127,0
1,44,81,190
1,35,72,110
1,42,126,78
1,35,109,0
1,42,71,190
1,35,104,0
1,42,126,190
1,40,122,0
1,42,58,190
1,35,72,110
1,42,126,78
1,35,104,0
1,42,81,190
1,35,104,0
1,42,126,190
1,40,122,0
1,42,71,190
1,35,87,110
1,42,126,78
1,35,104,0
1,35,87,190
1,42,64,0
1,42,126,190
1,40,122,0
1,42,54,190
1,35,72,110
1,42,126,78
1,35,104,0
1,44,110,190
1,35,104,0
1,40,122,190
1,42,126,0
1,42,81,190
1,35,104,110
1,35,109,78
1,49,105,0
1,35,72,190
1,42,58,0
1,40,122,190
1,42,126,0
1,42,71,190
1,35,72,110
1,42,126,78
1,35,104,0
1,42,64,190
1,35,104,0
1,42,110,190
1,40,122,0
1,42,71,190
1,35,72,110
1,42,110,78
1,35,109,0
1,42,64,190
1,35,87,0
1,42,126,190
1,40,122,0
1,42,64,190
1,35,72,110
1,42,126,78
1,35,109,0
1,42,43,190
1,35,104,0
1,42,110,190
1,40,127,0
1,44,81,190
1,35,72,110
1,42,126,78
1,35,109,0
1,42,71,190
1,35,104,0
1,42,126,190
1,40,122,0
1,42,58,190
1,35,72,110
1,42,126,78
1,35,104,0
1,42,81,190
1,35,104,0
1,42,126,190
1,40,122,0
1,42,71,190
1,35,87,110
1,42,126,78
1,35,104,0
1,35,87,190
1,42,64,0
1,42,126,190
1,40,122,0
1,42,54,190
1,35,72,110
1,42,126,78
1,35,104,0
1,44,110,190
1,35,104,0
1,40,122,190
1,42,126,0
1,42,81,190
1,35,104,110
1,35,109,78
1,49,110,0
1,40,122,382
1,42,110,0
1,42,58,190
1,35,35,110
1,42,110,78
1,35,87,0
1,35,72,190
1,42,71,0
1,40,127,190
1,42,110,0
1,35,109,190
1,49,126,0
1,42,81,190
1,42,81,190
1,40,122,190
1,40,122,94
1,40,69,94
1,40,62,94
1,40,122,94
1,35,109,0
1,40,122,94
1,40,127,94
1,40,122,94
1,41,122,94
1,35,109,0
1,41,105,94
1,41,78,94
1,41,90,94
1,35,104,94
1,49,110,0
1,35,51,190
1,40,127,190
1,42,110,0
1,42,37,190
1,42,126,190
1,35,104,0
1,42,64,190
1,42,110,190
1,40,122,0
1,35,109,190
1,46,126,0
1,42,81,190
1,42,71,382
1,40,127,382
1,42,71,382
1,35,109,382
1,49,93,0
1,35,109,190
1,44,110,0
1,42,126,190
1,40,127,0
1,42,64,190
1,42,110,190
1,35,104,0
1,44,126,190
1,35,104,0
1,42,110,190
1,40,122,0
1,42,81,190
1,35,51,110
1,35,104,78
1,42,126,0
1,44,93,190
1,35,109,0
1,42,110,190
1,40,122,0
1,42,64,190
1,35,60,110
1,35,104,78
1,42,126,0
1,35,87,190
1,42,110,0
1,40,127,190
1,42,126,0
1,35,60,190
1,42,71,0
1,42,126,190
1,35,109,0
1,35,51,190
1,44,64,0
1,42,110,190
1,40,122,0
1,42,71,190
1,35,31,110
1,35,104,78
1,42,110,0
1,35,104,190
1,42,93,0
1,40,127,190
1,42,110,0
1,42,64,190
1,35,51,110
1,42,110,78
1,35,109,0
1,44,110,190
1,35,104,0
1,42,126,190
1,40,127,0
1,42,71,190
1,35,60,110
1,42,110,78
1,35,104,0
1,44,126,190
1,35,109,0
1,42,126,190
1,40,122,0
1,42,81,190
1,35,60,0
1,35,109,190
1,49,93,0
1,35,109,190
1,44,110,0
1,42,126,190
1,40,127,0
1,42,64,190
1,42,110,190
1,35,104,0
1,44,126,190
1,35,104,0
1,42,110,190
1,40,122,0
1,42,81,190
1,35,51,110
1,35,104,78
1,42,126,0
1,44,93,190
1,35,109,0
1,42,110,190
1,40,122,0
1,42,64,190
1,35,60,110
1,35,104,78
1,42,126,0
1,35,87,190
1,42,110,0
1,40,127,190
1,42,126,0
1,35,60,190
1,42,71,0
1,42,126,190
1,35,109,0
1,35,51,190
1,44,64,0
1,42,110,190
1,40,122,0
1,42,71,190
1,35,31,110
1,35,104,78
1,42,110,0
1,35,104,190
1,42,93,0
1,40,127,190
1,42,110,0
1,42,64,190
1,35,51,110
1,42,110,78
1,35,109,0
1,44,110,190
1,35,104,0
1,42,126,190
1,40,127,0
1,42,71,190
1,35,60,110
1,42,110,78
1,35,104,0
1,44,126,190
1,35,109,0
1,42,126,190
1,40,122,0
1,42,81,190
1,35,60,0
1,35,109,190
1,40,122,0
2,46,101,5352
2,46,100,68
2,46,101,76
2,41,100,500
2,43,100,44
2,46,101,382
2,46,99,80
2,46,101,76
2,41,99,500
2,43,99,52
2,46,101,372
2,46,99,104
2,46,101,42
2,41,99,478
2,43,99,42
2,46,101,368
2,46,99,116
2,46,101,50
2,41,99,516
2,43,99,50
2,46,101,394
2,46,100,68
2,46,101,76
2,41,100,500
2,43,100,44
2,46,101,382
2,46,99,80
2,46,101,76
2,41,99,500
2,43,99,52
2,46,101,372
2,46,99,104
2,46,101,42
2,41,99,478
2,43,99,42
2,46,101,368
2,46,99,116
2,46,101,50
2,41,99,516
2,43,99,50
2,46,101,394
2,46,100,68
2,46,101,76
2,41,100,500
2,43,100,44
2,46,101,382
2,46,99,80
2,46,101,76
2,41,99,500
2,43,99,52
2,46,101,372
2,46,99,104
2,46,101,42
2,41,99,478
2,43,99,42
2,46,101,368
2,46,99,116
2,46,101,50
2,41,99,516
2,43,99,50
2,51,101,394
2,51,100,68
2,51,101,76
2,46,100,500
2,48,100,44
2,51,101,382
2,51,99,80
2,51,101,76
2,46,99,500
2,48,99,52
2,51,101,372
2,51,99,104
2,51,101,42
2,46,99,478
2,48,99,42
2,51,101,368
2,51,99,116
2,51,101,50
2,46,99,516
2,48,99,50
2,46,101,394
2,46,100,68
2,46,101,76
2,41,100,500
2,43,100,44
2,46,101,382
2,46,99,80
2,46,101,76
2,41,99,500
2,43,99,52
2,46,101,372
2,46,99,104
2,46,101,42
2,41,99,478
2,43,99,42
2,46,101,368
2,46,99,116
