track,note,velocity,time
1,82,107,57030
1,88,107,0
1,83,72,16
1,84,60,6
1,86,119,60
1,82,113,12
1,81,76,6
1,79,64,134
1,76,89,16
1,86,76,90
1,79,85,4
1,76,98,6
1,82,93,16
1,88,102,2
1,81,98,44
1,86,113,68
1,82,107,12
1,80,60,14
1,82,55,28
1,81,76,2
1,79,68,122
1,76,89,32
1,90,56,8
1,82,57,0
1,83,89,50
1,87,72,1494
1,81,62,6
1,88,89,22
1,81,107,76
1,82,89,92
1,88,107,0
1,83,89,0
1,86,107,60
1,82,113,6
1,81,80,54
1,79,72,122
1,76,85,10
1,79,85,104
1,86,89,6
1,76,76,8
1,86,89,56
1,81,93,0
1,76,80,118
1,81,89,54
1,86,93,4
1,83,80,8
1,81,72,100
1,79,56,114
1,86,107,24
1,81,85,8
1,79,50,18
1,76,68,26
1,74,102,12
1,79,51,18
1,76,127,12
1,82,113,36624
1,88,113,6
1,83,107,0
1,86,113,66
1,82,113,12
1,81,72,52
1,79,53,54
1,76,85,142
1,79,98,90
1,76,93,12
1,82,113,14
1,88,113,4
1,83,76,64
1,86,107,82
1,82,119,8
1,81,72,6
1,79,64,146
1,76,93,16
1,79,89,86
1,86,80,0
1,76,93,10
1,81,98,120
1,88,102,4
1,87,76,10
1,88,76,26
1,91,93,6
1,87,93,164
1,91,76,26
1,82,107,64
1,88,107,4
1,85,68,6
1,83,98,12
1,86,102,88
1,82,113,8
1,81,72,10
1,79,72,130
1,76,93,22
1,86,89,76
1,79,89,6
1,76,93,112
1,83,93,110
1,78,98,0
1,81,98,26
1,76,102,8
1,76,98,62
1,81,102,2
1,83,72,108
1,78,64,6
1,76,93,2
1,81,102,118
1,88,93,6
1,82,98,16
1,83,127,18
1,82,64,12
1,86,113,288
1,81,113,2
1,83,85,20
1,88,80,6
1,86,93,54
1,91,107,2
1,83,80,0
1,88,59,10
1,88,85,42
1,86,113,6
1,86,113,74
1,82,127,6
1,81,68,12
1,79,89,10
1,76,89,26
1,82,93,12
1,88,107,8
1,83,98,54
1,86,107,220
1,82,98,8
1,81,76,34
1,79,64,8
1,76,98,138
1,76,93,48
1,79,113,16
1,76,76,6
1,86,89,16
1,82,102,12
1,83,93,70
1,86,107,64
1,82,107,4
1,81,62,10
1,79,68,242
1,81,89,42
1,88,102,4
1,81,89,84
1,82,85,6
1,83,93,4
1,88,55,36
1,86,98,26
1,82,107,4
1,83,113,42
1,82,89,26
1,86,85,8
1,83,113,44
1,86,93,34
1,82,107,6
1,83,113,46
1,86,85,44
1,82,107,10
1,82,53,26
1,81,60,26
1,79,93,104
1,78,85,74
1,83,89,4
1,81,89,26
1,76,85,4
1,88,102,94
1,82,113,0
1,83,46,18
1,81,85,66
1,82,102,28
1,83,119,24
1,82,113,58
1,81,107,48
1,79,93,128
1,76,113,4
2,28,101,1724
2,28,102,32
2,28,100,40
2,31,98,24
2,33,97,384
2,31,95,22
2,28,99,4
2,28,99,36
2,28,103,24
2,31,95,4
2,33,98,6
2,31,94,20
2,28,102,12
2,28,99,28
2,28,97,16
2,31,100,4
2,33,97,384
2,31,97,10
2,28,98,4
2,28,104,24
2,28,101,24
2,31,97,4
2,33,95,38
2,31,96,256
2,33,99,118
2,33,97,24
2,33,96,28
2,36,97,6
2,38,94,6
2,36,98,0
2,33,98,128
2,33,97,24
2,31,93,2
2,36,97,16
2,38,93,384
2,36,97,0
2,28,99,16
2,28,101,24
2,28,98,8
2,31,96,14
2,33,98,384
2,31,98,0
2,28,98,12
2,28,99,38
2,28,100,28
2,31,97,14
2,33,96,28
2,31,93,20
2,35,97,14
2,35,97,32
2,35,97,28
2,38,97,14
2,40,93,6
2,38,98,20
2,33,96,128
2,33,97,40
2,33,98,16
2,36,93,8
2,38,97,18
2,36,98,20
2,28,100,16
2,28,100,36
2,28,99,16
2,31,95,4
2,33,97,28
2,31,96,256
2,28,99,24
2,28,101,36
2,28,98,16
2,31,95,4
2,33,97,16
2,31,95,256
2,28,101,16
2,28,102,32
2,28,100,40
2,31,98,24
2,33,97,384
2,31,95,22
2,28,99,4
2,28,99,36
2,28,103,24
2,31,95,4
2,33,98,6
2,31,94,20
2,28,102,12
2,28,99,28
2,28,97,16
2,31,100,4
2,33,97,384
2,31,97,10
2,28,98,4
2,28,104,24
2,28,101,24
2,31,97,4
2,33,95,38
2,31,96,256
2,33,99,118
2,33,97,24
2,33,96,28
2,36,97,6
2,38,94,6
2,36,98,0
2,33,98,128
2,33,97,24
2,33,93,2
2,36,97,16
2,38,93,384
2,36,97,0
2,28,99,16
2,28,101,24
2,28,98,8
2,31,96,14
2,33,98,384
2,31,98,0
2,28,98,12
2,28,99,38
2,28,100,28
2,31,97,14
2,33,96,28
2,31,93,20
2,35,97,14
2,35,97,32
2,35,97,28
2,38,97,14
2,40,93,6
2,38,98,20
2,33,96,128
2,33,97,40
2,33,98,16
2,36,93,8
2,38,97,18
2,36,98,20
2,28,100,16
2,28,100,36
2,28,99,16
2,31,95,4
2,33,97,28
2,31,96,256
2,28,99,24
2,28,101,36
2,28,98,16
2,31,95,4
2,33,97,16
2,31,95,256
2,28,101,16
2,28,102,32
2,28,100,40
2,31,98,24
2,33,97,384
2,31,95,22
2,28,99,4
2,28,99,36
2,28,103,24
2,31,95,4
2,33,98,6
2,31,94,20
2,28,102,12
2,28,99,28
2,28,97,16
2,31,100,4
2,33,97,384
2,31,97,10
2,28,98,4
2,28,104,24
2,28,101,24
2,31,97,4
2,33,95,38
2,31,96,256
2,33,99,118
2,33,97,24
2,31,96,28
2,36,97,6
2,38,94,6
2,36,98,0
2,33,98,128
2,33,97,24
2,31,93,2
2,36,97,16
2,38,93,384
2,36,97,0
2,28,99,16
2,28,101,24
2,28,98,8
2,31,96,14
2,33,98,384
2,31,98,0
2,28,98,12
2,28,99,38
2,28,100,28
2,31,97,14
2,33,96,28
2,31,93,20
2,35,97,14
2,35,97,32
2,35,97,28
2,38,97,14
2,40,93,6
2,38,98,20
2,33,96,128
2,33,97,40
2,33,98,16
2,36,93,8
2,38,97,18
2,36,98,20
2,28,100,16
2,28,100,36
2,28,99,16
2,31,95,4
2,33,97,28
2,31,96,256
2,28,99,24
2,28,101,36
2,28,98,16
2,31,95,4
2,33,97,16
2,31,95,256
2,28,101,16
2,28,102,32
2,28,100,40
2,31,98,24
2,33,97,384
2,31,95,22
2,28,99,4
2,28,99,36
2,28,103,24
2,31,95,4
2,33,98,6
2,31,94,20
2,28,102,12
2,28,99,28
2,28,97,16
2,31,100,4
2,33,97,384
2,31,97,10
2,28,98,4
2,28,104,24
2,28,101,24
2,31,97,4
2,33,95,38
2,31,96,256
2,33,99,118
2,33,97,24
2,31,96,28
2,36,97,6
2,38,94,6
2,36,98,0
2,33,98,128
2,33,97,24
2,31,93,2
2,36,97,16
2,38,93,384
2,36,97,0
2,28,99,16
2,28,101,24
2,28,98,8
2,31,96,14
2,33,98,384
2,31,98,0
2,28,98,12
2,28,99,38
2,28,100,28
2,31,97,14
2,33,96,28
2,31,93,20
2,35,97,14
2,35,97,32
2,35,97,28
2,38,97,14
2,40,93,6
2,38,98,20
2,33,96,128
2,33,97,40
2,33,98,16
2,36,93,8
2,38,97,18
2,36,98,20
2,28,100,16
2,28,100,36
2,28,99,16
2,31,95,4
2,33,97,28
2,31,96,256
2,28,99,24
2,28,101,36
2,28,98,16
2,31,95,4
2,33,97,16
2,31,95,256
2,28,101,16
2,28,102,32
2,28,100,40
2,31,98,24
2,33,97,384
2,31,95,22
2,28,99,4
2,28,99,36
2,28,103,24
2,31,95,4
2,33,98,6
2,31,94,20
2,28,102,12
2,28,99,28
2,28,97,16
2,31,100,4
2,33,97,384
2,31,97,10
2,28,98,4
2,28,104,24
2,28,101,24
2,31,97,4
2,33,95,38
2,31,96,256
2,33,99,118
2,33,97,24
2,31,96,28
2,36,97,6
2,38,89,6
2,36,100,0
2,33,98,16
2,33,97,24
2,31,93,2
2,36,97,16
2,36,105,44
2,28,99,108
2,28,101,24
2,28,98,8
2,31,96,14
2,33,98,384
2,31,98,0
2,28,98,12
2,28,99,38
2,28,100,28
2,31,97,14
2,31,96,28
2,35,97,0
2,35,97,32
2,35,97,28
2,38,97,14
2,40,93,6
2,38,98,20
2,33,96,128
2,33,97,40
2,33,98,16
2,36,93,8
2,38,97,18
2,36,98,20
2,28,100,16
2,28,100,36
2,28,99,16
2,31,95,4
2,33,97,28
2,31,96,256
2,28,99,24
2,28,101,36
2,28,98,16
2,31,95,4
2,33,97,16
2,31,95,256
2,28,101,16
2,28,102,32
2,28,100,40
2,31,98,24
2,33,97,384
2,31,95,22
2,28,99,4
2,28,99,36
2,28,103,24
2,31,95,4
2,33,98,6
2,31,94,20
2,28,102,12
2,28,99,28
2,28,97,16
2,31,100,4
2,33,97,384
2,31,97,10
2,28,98,4
2,28,104,24
2,28,101,24
2,31,97,4
2,33,95,38
2,31,96,256
2,33,99,118
2,33,97,24
2,31,96,28
2,36,97,6
2,38,94,6
2,36,98,0
2,33,98,128
2,33,97,24
2,31,93,2
2,36,97,16
2,38,93,384
2,36,97,0
2,28,99,16
2,28,101,24
2,28,98,8
2,31,96,14
2,33,98,384
2,31,98,0
2,28,98,12
2,28,99,38
2,28,100,28
2,31,97,14
2,33,96,28
2,31,93,20
2,35,97,14
2,35,97,32
2,35,97,28
2,38,97,14
2,40,93,6
2,38,98,20
2,33,96,128
2,33,97,40
2,33,98,16
2,36,93,8
2,38,97,18
2,36,98,20
2,28,100,16
2,28,100,36
2,28,99,16
2,31,95,4
2,33,97,28
2,31,96,256
2,28,99,24
2,28,101,36
2,28,98,16
2,31,95,4
2,33,97,16
2,31,95,256
2,28,101,16
2,28,102,32
2,28,100,40
2,31,98,24
2,33,97,384
2,31,95,22
2,28,99,4
2,28,99,36
2,28,103,24
2,31,95,4
2,33,98,6
2,31,94,20
2,28,102,12
2,28,99,28
2,28,97,16
2,31,100,4
2,33,97,384
2,31,97,10
2,28,98,4
2,28,104,24
2,28,101,24
2,31,97,4
2,33,95,38
2,31,96,256
2,33,99,118
2,33,97,24
2,31,96,28
2,36,97,6
2,38,94,6
2,36,98,0
2,33,98,128
2,33,97,24
2,31,93,2
2,36,97,16
2,38,93,384
2,36,97,0
2,28,99,16
2,28,101,24
2,28,98,8
2,31,96,14
2,33,98,384
2,31,98,0
2,28,98,12
2,28,99,38
2,28,100,28
2,31,97,14
2,33,96,28
2,31,93,20
2,35,97,14
2,35,97,32
2,35,97,28
2,38,97,14
2,40,93,6
2,38,98,20
2,33,96,128
2,33,97,40
2,33,98,16
2,36,93,8
2,38,97,18
2,36,98,20
2,28,100,16
2,28,100,36
2,28,99,16
2,31,95,4
2,33,97,28
2,31,96,256
2,28,99,24
2,28,101,36
2,28,98,16
2,31,95,4
2,33,97,16
2,31,95,256
2,28,101,16
2,28,102,32
2,28,100,40
2,31,98,24
2,33,97,384
2,31,95,22
2,28,99,4
2,28,99,36
2,28,103,24
2,31,95,4
2,33,98,6
2,31,94,20
2,28,102,12
2,28,99,28
2,28,97,16
2,31,100,4
2,33,97,384
2,31,97,10
2,28,98,4
2,28,104,24
2,28,101,24
2,31,97,4
2,33,95,38
2,31,96,256
2,33,99,118
2,33,97,24
2,31,96,28
2,36,97,6
2,38,94,6
2,36,98,0
2,33,98,128
2,33,97,24
2,31,93,2
2,36,97,16
2,38,93,384
2,36,97,0
2,28,99,16
2,28,101,24
2,28,98,8
2,31,96,14
2,33,98,384
2,31,98,0
2,28,98,12
2,28,99,38
2,28,100,28
2,31,97,14
2,33,96,28
2,31,93,20
2,35,97,14
2,35,97,32
2,35,97,28
2,38,97,14
2,40,93,6
2,38,98,20
2,33,96,128
2,33,97,40
2,33,98,16
2,36,93,8
2,38,97,18
2,36,98,20
2,40,87,16
2,28,106,42
2,31,98,512
2,33,100,48
2,35,102,6
2,33,97,20
2,31,98,128
2,28,102,32
3,52,51,21670
3,64,45,6
3,52,88,412
3,64,97,4
3,67,84,10
3,55,75,4
3,52,43,6
3,64,34,16
3,69,93,32
3,57,84,4
3,55,50,34
3,67,41,10
3,57,47,6
3,70,52,54
3,59,67,10
3,71,38,20
3,64,102,258
3,76,108,2
3,62,40,34
3,64,108,76
3,76,114,4
3,70,102,436
3,62,102,10
3,57,84,2
3,69,88,60
3,62,88,4
3,57,75,22
3,64,93,1950
3,76,97,0
3,69,97,6
3,58,97,268
3,70,108,0
3,64,84,16
3,69,80,30
3,57,84,8
3,64,57,8
3,67,67,26
3,55,59,14
3,57,67,50
3,67,80,80
3,52,67,6
3,59,84,0
3,62,75,0
3,62,67,24
3,67,75,4
3,52,54,2
3,59,67,10
3,62,102,878
3,50,102,2
3,64,84,6
3,52,84,6
3,66,84,1610
3,71,80,0
3,59,84,2
3,57,63,1506
3,64,67,4
3,69,71,4
3,71,88,156
3,59,71,6
3,74,71,38
3,62,55,14
3,76,122,56
3,64,102,4
3,58,108,1190
3,70,114,0
3,69,25,36
3,57,19,42
3,52,75,34
3,64,80,6
3,62,75,1890
3,59,84,2
3,67,71,6
3,62,80,30
3,59,84,6
3,67,88,2
3,67,88,1514
3,62,88,2
3,59,102,8
3,64,102,444
3,69,97,0
3,57,84,10
3,62,75,42
3,67,84,2
3,59,88,8
3,67,75,1232
3,59,84,2
3,62,71,4
3,67,67,32
3,62,84,0
3,55,84,6
3,69,88,1234
3,64,97,6
3,59,88,0
3,64,67,32
3,69,67,0
3,57,75,8
3,57,50,1152
3,71,84,58
3,64,84,8
3,59,88,8
3,64,37,66
3,64,71,44
3,69,71,0
3,57,71,6
3,50,80,1346
3,62,93,6
3,51,80,20
3,63,88,4
3,52,67,34
3,64,80,10
3,64,84,22
3,52,84,4
3,76,84,1364
3,71,88,2
3,69,47,16
3,74,48,16
3,76,102,78
3,71,108,0
3,64,67,166
3,62,102,104
3,67,50,18
3,67,54,28
3,62,55,24
3,64,55,130
3,62,114,14
3,67,102,4
3,64,102,40
3,71,102,1228
3,66,108,12
3,64,47,56
3,69,54,2
3,71,75,30
3,66,97,8
3,69,84,18
3,64,88,6
3,64,88,30
3,69,102,8
3,67,84,1390
3,62,102,0
3,57,67,68
3,67,102,60
3,62,114,0
3,57,47,48
3,62,97,56
3,67,84,4
3,57,67,72
3,62,97,48
3,67,80,4
3,57,54,82
3,62,102,92
3,58,108,8
3,57,63,50
3,55,88,22
3,64,108,80
3,52,97,2
3,76,108,1800
3,64,114,2
3,71,122,0
3,69,108,1816
3,74,102,4
3,62,102,0
3,76,75,18
3,71,71,8
3,64,97,2
3,67,93,90
3,64,67,64
3,64,84,48
3,69,102,3156
3,64,108,2
3,57,88,4
3,67,71,24
3,55,67,6
3,62,80,0
3,69,71,16
3,64,88,8
3,57,97,4
3,55,45,728
3,69,97,60
3,64,102,4
3,57,80,6
3,67,57,10
3,55,59,4
3,62,54,0
3,62,102,98
3,50,88,12
3,63,84,44
3,51,59,0
3,64,71,18
3,52,63,0
3,62,84,1784
3,57,75,6
3,67,71,0
3,67,75,46
3,62,75,0
3,57,71,4
3,59,67,1250
3,66,88,0
3,71,80,6
3,66,97,38
3,71,102,0
3,59,108,2
3,69,102,1242
3,64,108,0
3,57,97,12
3,57,97,26
3,64,71,8
3,69,71,4
3,62,67,1242
3,52,44,2
3,67,67,2
3,53,44,8
3,62,84,38
3,67,88,6
3,52,97,4
3,62,108,2136
3,50,88,8
3,63,88,16
3,51,88,10
3,52,108,54
3,64,114,0
3,52,63,19306
3,64,48,8
3,67,114,46
3,55,97,4
3,52,80,10
3,64,93,10
3,70,102,1934
3,71,102,8
3,59,114,8
3,67,102,616
3,55,93,4
3,52,88,4
3,64,102,8
3,64,67,1956
3,69,75,2
3,57,75,4
3,57,88,36
3,64,88,0
3,69,88,8
3,57,108,1226
3,69,102,6
3,64,102,0
3,62,51,18
3,67,50,12
3,55,63,2
3,64,55,10
3,57,59,6
3,69,55,0
3,55,37,8
3,59,75,20
3,71,84,10
3,64,93,10
3,52,67,20
3,62,54,4
