track,note,velocity,time
1,75,95,319
1,53,92,2
1,57,92,0
1,60,92,0
1,64,92,0
1,62,92,1
1,26,117,10
1,38,92,1
1,50,107,0
1,50,99,0
1,64,92,0
1,65,98,0
1,65,99,0
1,69,107,0
1,69,95,0
1,72,102,0
1,72,93,0
1,76,104,0
1,76,102,0
1,76,95,0
1,75,0,3
1,75,106,11
1,62,0,7
1,76,106,7
1,75,0,3
1,64,0,66
1,79,118,0
1,67,101,1
1,76,0,12
1,79,106,15
1,76,0,13
1,65,0,88
1,65,102,64
1,69,0,0
1,67,0,7
1,64,90,8
1,69,102,0
1,50,0,1
1,76,0,2
1,69,0,6
1,65,0,1
1,72,0,0
1,26,0,7
1,72,0,0
1,69,0,1
1,76,0,1
1,38,0,1
1,65,0,1
1,50,0,2
1,26,96,4
1,65,89,1
1,64,0,2
1,26,0,8
1,65,0,4
1,28,113,1
1,67,88,1
1,28,0,2
1,62,93,7
1,29,114,5
1,41,96,1
1,53,98,0
1,53,102,0
1,64,100,0
1,65,98,0
1,69,102,0
1,69,94,0
1,72,102,0
1,72,96,0
1,76,98,0
1,76,92,0
1,79,92,0
1,67,0,0
1,62,0,3
1,67,106,22
1,79,0,0
1,72,0,7
1,69,0,2
1,76,0,0
1,69,0,7
1,72,0,3
1,65,0,1
1,76,0,5
1,41,0,61
1,76,102,0
1,53,0,2
1,79,0,0
1,65,98,2
1,65,96,0
1,69,96,0
1,69,90,0
1,72,98,0
1,72,90,0
1,76,102,0
1,76,91,0
1,53,0,3
1,76,102,21
1,79,0,2
1,69,0,3
1,65,0,1
1,69,0,0
1,72,0,1
1,76,0,1
1,76,0,1
1,65,0,3
1,72,0,4
1,29,0,38
1,31,112,49
1,53,102,1
1,74,91,20
1,53,0,6
1,64,0,2
1,76,0,3
1,57,0,1
1,60,0,0
1,64,0,6
1,53,0,2
1,72,103,7
1,74,96,1
1,55,92,1
1,59,92,0
1,62,92,0
1,74,0,2
1,76,0,1
1,31,0,3
1,33,118,1
1,45,96,1
1,57,102,0
1,57,96,0
1,67,107,0
1,67,99,0
1,71,107,0
1,71,95,0
1,74,111,0
1,74,95,0
1,67,0,4
1,72,102,7
1,74,109,4
1,72,0,1
1,74,0,2
1,74,105,25
1,72,0,1
1,33,0,2
1,67,0,3
1,74,0,0
1,57,0,2
1,71,0,1
1,45,0,1
1,74,0,1
1,76,109,2
1,74,0,1
1,76,105,2
1,33,112,5
1,74,0,7
1,67,0,1
1,55,0,4
1,59,0,0
1,62,0,0
1,57,0,2
1,71,0,1
1,33,0,1
1,53,92,2
1,57,92,0
1,60,92,0
1,31,115,5
1,72,106,0
1,43,91,1
1,55,107,0
1,55,97,0
1,65,102,0
1,65,92,0
1,69,102,0
1,69,91,0
1,72,96,0
1,72,90,0
1,76,0,15
1,72,104,10
1,76,0,18
1,67,74,2
1,79,86,0
1,55,0,10
1,43,0,1
1,65,0,5
1,72,0,1
1,69,0,2
1,67,0,3
1,79,0,0
1,55,0,32
1,69,0,3
1,72,0,0
1,69,91,4
1,81,103,0
1,65,0,1
1,69,0,11
1,81,0,0
1,53,0,12
1,57,0,0
1,60,0,0
1,31,0,5
1,53,92,5
1,57,92,0
1,60,92,0
1,72,102,2
1,84,110,0
1,31,112,1
1,43,92,1
1,55,107,0
1,55,97,0
1,65,102,0
1,65,95,0
1,69,102,0
1,69,92,0
1,72,96,0
1,72,92,0
1,72,0,7
1,72,0,1
1,84,0,0
1,72,0,1
1,67,91,3
1,79,103,0
1,55,0,3
1,65,0,1
1,43,0,2
1,69,0,0
1,72,0,2
1,67,0,8
1,79,0,0
1,65,0,7
1,69,82,0
1,81,94,0
1,69,0,2
1,55,0,4
1,72,0,2
1,69,0,5
1,81,0,0
1,53,0,7
1,57,0,0
1,60,0,0
1,31,0,5
1,55,92,1
1,59,92,0
1,62,92,0
1,72,82,2
1,84,94,0
1,29,112,9
1,67,107,0
1,45,97,1
1,57,102,0
1,57,99,0
1,67,102,0
1,67,100,0
1,71,107,0
1,71,93,0
1,74,107,0
1,74,93,0
1,72,0,14
1,84,0,0
1,57,0,10
1,67,104,0
1,45,0,10
1,67,0,11
1,74,0,5
1,67,66,1
1,79,78,0
1,71,0,2
1,69,104,7
1,67,0,6
1,67,0,9
1,79,0,0
1,69,103,13
1,67,0,6
1,69,66,21
1,81,78,0
1,72,103,9
1,69,0,11
1,81,0,0
1,69,0,1
1,72,102,16
1,55,0,1
1,59,0,0
1,62,0,0
1,29,0,6
1,69,0,1
1,53,92,13
1,57,92,0
1,60,92,0
1,64,92,0
1,62,92,1
1,67,0,0
1,75,111,1
1,57,0,2
1,71,0,3
1,76,107,1
1,74,0,1
1,26,117,2
1,38,92,1
1,50,98,0
1,50,98,0
1,64,92,0
1,65,98,0
1,65,98,0
1,69,98,0
1,69,92,0
1,72,0,0
1,72,102,0
1,72,93,0
1,76,98,0
1,76,92,0
1,75,0,5
1,75,106,3
1,62,0,1
1,76,104,3
1,72,0,4
1,75,0,15
1,65,0,2
1,69,0,4
1,72,0,8
1,76,0,0
1,79,110,50
1,76,0,10
1,64,0,10
1,67,101,1
1,79,106,7
1,76,0,10
1,69,94,47
1,72,98,0
1,76,92,0
1,79,94,0
1,65,0,47
1,69,0,5
1,72,0,0
1,76,0,12
1,67,0,1
1,64,90,10
1,26,0,5
1,79,0,4
1,76,0,4
1,72,0,1
1,69,0,4
1,38,0,2
1,50,0,10
1,26,96,2
1,65,89,0
1,64,0,3
1,50,0,3
1,26,0,12
1,65,0,34
1,28,113,1
1,67,88,1
1,28,0,24
1,79,0,4
1,76,114,9
1,29,114,3
1,41,92,1
1,53,96,0
1,53,98,0
1,65,93,0
1,69,96,0
1,69,92,0
1,72,102,0
1,72,92,0
1,76,102,0
1,76,92,0
1,79,98,0
1,67,0,2
1,64,87,0
1,67,96,1
1,79,0,3
1,76,108,7
1,64,0,114
1,67,0,1
1,77,110,10
1,64,87,4
1,67,96,3
1,76,0,9
1,77,106,12
1,76,0,16
1,72,0,54
1,79,0,5
1,69,0,3
1,76,0,0
1,64,0,15
1,67,0,9
1,76,110,6
1,64,87,5
1,67,105,1
1,53,0,7
1,69,98,0
1,72,102,0
1,76,102,0
1,77,0,0
1,76,106,15
1,72,0,11
1,77,0,2
1,76,0,6
1,69,0,1
1,29,0,4
1,76,0,0
1,41,0,5
1,69,0,2
1,72,0,0
1,65,0,1
1,53,0,1
1,31,112,8
1,53,0,5
1,64,0,2
1,57,0,4
1,60,0,0
1,64,0,4
1,67,0,1
1,76,0,5
1,55,92,3
1,59,92,0
1,59,92,0
1,62,92,0
1,31,0,6
1,33,118,1
1,74,115,0
1,45,101,1
1,57,102,0
1,57,98,0
1,62,96,0
1,67,102,0
1,67,102,0
1,71,107,0
1,71,98,0
1,74,107,0
1,74,100,0
1,76,0,1
1,67,90,4
1,74,108,16
1,74,0,0
1,74,0,11
1,72,115,6
1,72,108,4
1,33,0,20
1,75,109,9
1,72,0,7
1,71,0,2
1,76,110,1
1,57,0,3
1,67,0,0
1,74,0,6
1,75,0,2
1,75,105,5
1,72,0,7
1,57,0,3
1,74,0,0
1,45,0,2
1,76,106,0
1,67,0,1
1,71,0,2
1,75,0,8
1,33,112,35
1,79,103,18
1,76,0,1
1,55,0,9
1,59,0,0
1,62,0,0
1,33,0,2
1,59,0,1
1,79,102,4
1,76,0,1
1,53,92,1
1,57,92,0
1,60,92,0
1,75,109,1
1,62,0,3
1,57,101,4
1,31,115,3
1,43,92,1
1,55,111,0
1,55,97,0
1,60,92,0
1,65,102,0
1,65,94,0
1,69,102,0
1,69,91,0
1,72,94,0
1,72,91,0
1,79,0,0
1,67,0,1
1,67,101,3
1,76,104,1
1,75,105,12
1,75,0,5
1,79,0,6
1,76,103,5
1,75,0,1
1,76,0,23
1,72,100,1
1,55,0,2
1,65,0,2
1,55,0,2
1,72,0,0
1,69,0,1
1,43,0,1
1,69,0,0
1,65,0,2
1,72,0,0
1,76,0,17
1,72,101,1
1,74,112,14
1,72,0,3
1,74,107,25
1,72,0,3
1,53,0,7
1,57,0,0
1,60,0,0
1,31,0,8
1,57,0,4
1,60,0,9
1,53,92,3
1,57,92,0
1,60,92,0
1,72,106,0
1,74,0,0
1,67,0,2
1,57,92,7
1,31,112,2
1,43,93,1
1,55,111,0
1,55,101,0
1,60,92,0
1,65,98,0
1,69,102,0
1,72,98,0
1,65,98,0
1,69,95,0
1,72,95,0
1,67,88,2
1,72,104,14
1,74,0,0
1,65,0,8
1,69,0,3
1,55,0,1
1,43,0,2
1,72,0,1
1,65,0,5
1,69,0,1
1,55,0,7
1,72,0,0
1,53,0,2
1,57,0,0
1,60,0,0
1,72,0,0
1,31,0,0
1,67,0,1
1,57,0,1
1,55,92,3
1,59,92,0
1,60,0,0
1,62,92,0
1,72,0,2
1,59,88,4
1,29,112,3
1,67,115,0
1,45,96,1
1,57,98,0
1,57,99,0
1,62,92,0
1,67,102,0
1,67,102,0
1,71,102,0
1,71,96,0
1,74,102,0
1,74,95,0
1,67,92,3
1,67,108,2
1,57,0,4
1,45,0,3
1,67,0,1
1,74,0,7
1,71,0,2
1,71,0,0
1,67,0,5
1,67,0,1
1,69,106,2
1,57,0,2
1,74,0,0
1,67,0,24
1,69,104,2
1,69,0,35
1,72,106,1
1,69,0,27
1,72,104,1
1,55,0,1
1,59,0,0
1,62,0,0
1,29,0,7
1,59,0,7
1,72,0,0
1,62,0,1
1,53,92,2
1,57,92,0
1,60,92,0
1,64,92,0
1,62,92,1
1,67,0,4
1,75,115,5
1,26,112,1
1,38,92,1
1,50,111,0
1,50,97,0
1,64,92,0
1,65,107,0
1,65,95,0
1,69,107,0
1,69,94,0
1,72,102,0
1,72,91,0
1,76,102,0
1,76,92,0
1,72,0,9
1,76,106,4
1,62,0,2
1,75,0,3
1,75,108,2
1,76,104,15
1,65,0,2
1,69,0,6
1,75,0,3
1,72,0,4
1,76,0,2
1,64,0,69
1,67,101,1
1,79,109,0
1,76,0,8
1,79,105,20
1,76,0,8
1,72,91,18
1,84,103,0
1,69,93,5
1,72,96,0
1,76,94,0
1,79,94,0
1,72,0,11
1,84,0,0
1,69,94,43
1,81,106,0
1,69,0,22
1,81,0,0
1,65,0,6
1,72,93,2
1,84,105,0
1,65,98,4
1,72,0,3
1,84,0,0
1,69,0,2
1,67,0,11
1,64,90,4
1,69,102,0
1,69,0,1
1,65,0,0
1,76,0,3
1,72,0,5
1,79,0,0
1,72,0,1
1,76,0,1
1,50,0,1
1,26,0,3
1,38,0,2
1,69,0,1
1,50,0,2
1,26,102,5
1,65,89,1
1,64,0,3
1,26,0,0
1,81,110,8
1,79,0,4
1,65,0,4
1,28,106,1
1,67,88,1
1,81,106,7
1,81,0,1
1,79,0,3
1,28,0,17
1,81,0,8
1,53,0,8
1,60,0,0
1,64,0,0
1,57,0,1
1,53,92,1
1,57,92,0
1,60,92,0
1,64,92,0
1,29,112,11
1,41,93,1
1,53,107,0
1,53,94,0
1,65,96,0
1,69,98,0
1,69,93,0
1,72,102,0
1,72,95,0
1,76,102,0
1,76,94,0
1,79,98,0
1,67,0,2
1,64,87,1
1,67,96,2
1,75,110,85
1,76,115,5
1,75,0,20
1,75,106,3
1,76,108,5
1,75,0,20
1,64,0,21
1,67,0,1
1,64,87,14
1,67,96,3
1,79,106,152
1,76,0,1
1,64,0,13
1,67,0,9
1,79,104,5
1,76,0,1
1,64,87,5
1,67,105,1
1,75,114,26
1,79,0,2
1,76,109,12
1,29,0,6
1,75,108,0
1,75,0,1
1,79,0,1
1,76,105,5
1,29,108,2
1,41,0,6
1,65,0,1
1,69,0,2
1,72,0,1
1,72,0,1
1,69,0,2
1,75,0,0
1,76,0,5
1,53,0,1
1,53,0,2
1,79,0,0
1,76,0,1
1,29,0,9
1,33,102,33
1,74,110,3
1,76,0,13
1,53,0,5
1,57,0,0
1,60,0,0
1,64,0,1
1,55,80,6
1,74,106,3
1,33,0,5
1,64,0,1
1,72,107,1
1,67,0,1
1,60,80,3
1,74,0,0
1,76,0,2
1,55,92,3
1,60,92,0
1,62,92,0
1,62,88,8
1,31,114,3
1,43,84,1
1,55,102,0
1,55,89,0
1,67,89,0
1,72,102,0
1,72,88,0
1,74,102,0
1,74,87,0
1,79,98,0
1,79,81,0
1,72,104,1
1,74,0,4
1,74,107,5
1,67,88,1
1,72,0,6
1,74,104,20
1,72,0,8
1,67,0,238
1,72,0,0
1,67,94,11
1,72,87,7
1,43,0,6
1,55,0,3
1,74,0,2
1,79,0,2
1,72,0,3
1,55,0,6
1,67,0,2
1,60,0,2
1,62,0,0
1,67,0,4
1,72,0,3
1,74,0,1
1,79,0,0
1,55,0,3
1,31,0,1
1,38,106,2
1,55,76,9
1,62,0,6
1,55,0,0
1,60,0,0
1,38,0,0
1,59,76,4
1,55,92,2
1,59,92,0
1,62,92,0
1,62,84,1
1,43,111,2
1,43,77,1
1,55,102,0
1,55,81,0
1,67,87,0
1,71,98,0
1,71,85,0
1,74,102,0
1,74,82,0
1,79,102,0
1,79,82,0
1,67,84,1
1,74,0,10
1,74,0,10
1,79,0,1
1,79,74,4
1,43,0,16
1,74,0,23
1,68,111,6
1,69,107,6
1,74,76,13
1,68,0,2
1,68,106,2
1,69,104,6
1,55,0,7
1,43,0,3
1,68,0,5
1,67,0,6
1,71,0,2
1,74,0,0
1,79,0,0
1,55,0,3
1,62,0,4
1,59,0,1
1,67,0,5
1,36,116,8
1,55,0,14
1,71,0,2
1,36,0,3
1,74,0,0
1,79,0,4
1,38,106,1
1,55,72,3
1,38,0,1
1,55,0,0
1,59,0,0
1,62,0,0
1,55,92,4
1,60,92,0
1,62,92,0
1,60,84,2
1,67,102,6
1,31,112,1
1,43,79,1
1,55,102,0
1,55,83,0
1,67,98,0
1,67,86,0
1,72,96,0
1,72,87,0
1,74,98,0
1,74,83,0
1,79,98,0
1,79,79,0
1,69,0,4
1,62,72,1
1,67,102,15
1,67,80,2
1,69,0,10
1,79,0,6
1,72,0,1
1,55,0,1
1,67,0,1
1,74,0,1
1,43,0,1
1,55,0,0
1,31,0,1
1,38,102,1
1,62,0,2
1,60,0,1
1,67,0,3
1,72,0,1
1,74,0,0
1,55,0,5
1,79,0,0
1,67,0,2
1,38,0,10
1,43,102,1
1,55,72,4
1,62,0,0
1,55,0,2
1,60,0,0
1,59,76,3
1,55,92,4
1,59,92,0
1,62,92,0
1,43,0,7
1,62,68,0
1,31,103,1
1,43,75,1
1,55,102,0
1,55,78,0
1,67,98,0
1,67,84,0
1,71,96,0
1,71,80,0
1,74,102,0
1,74,81,0
1,79,98,0
1,79,81,0
1,67,64,7
1,67,0,14
1,67,0,26
1,55,0,22
1,74,0,5
1,67,0,1
1,71,0,0
1,79,0,3
1,43,0,5
1,31,0,59
1,55,0,31
1,59,0,2
1,62,0,0
1,55,0,11
1,62,0,1
1,67,0,2
1,59,0,4
1,55,0,3
1,71,0,4
1,67,0,3
1,74,0,2
1,79,0,6
1,36,113,1
1,36,88,1
1,48,91,0
1,57,92,0
1,60,93,0
1,65,92,0
1,36,0,36
1,65,0,0
1,60,0,2
1,57,0,2
1,48,0,1
1,36,0,81
1,48,101,18
1,36,76,1
1,48,76,0
1,48,0,19
1,36,0,13
1,48,0,0
1,36,112,31
1,36,80,1
1,48,86,0
1,52,85,0
1,55,88,0
1,60,83,0
1,52,0,21
1,55,0,1
1,36,0,4
1,48,0,1
1,60,0,15
1,36,0,99
1,43,112,0
1,36,76,1
1,48,77,0
1,45,102,31
1,36,0,1
1,48,0,0
1,43,0,3
1,45,0,18
1,36,112,10
1,36,82,1
1,48,86,0
1,57,80,0
1,60,88,0
1,65,88,0
1,65,0,26
1,57,0,2
1,60,0,5
1,57,90,67
1,60,91,0
1,65,93,0
1,36,0,6
1,48,0,9
1,57,0,17
1,60,0,0
1,65,0,0
1,36,77,96
1,48,77,0
1,36,0,32
1,48,0,0
1,36,82,14
