track,note,velocity,time
0,36,117,860
0,40,105,0
0,45,100,0
0,36,119,72
0,40,103,0
0,45,95,0
0,36,113,40
0,40,111,0
0,65,53,0
0,47,92,92
0,45,98,72
0,65,65,0
0,77,63,0
0,67,57,12
0,69,54,32
0,71,55,32
0,72,55,20
0,74,53,4
0,36,118,0
0,49,102,0
0,34,120,0
0,62,65,0
0,65,66,0
0,70,61,0
0,46,79,0
0,65,57,0
0,70,54,0
0,74,57,0
0,65,63,0
0,82,64,0
0,42,51,156
0,40,103,188
0,42,52,0
0,54,35,0
0,36,96,56
0,42,54,0
0,29,119,0
0,41,78,0
0,36,117,16
0,42,50,0
0,34,115,0
0,62,69,0
0,65,69,0
0,70,63,0
0,46,78,0
0,65,61,0
0,82,63,0
0,58,102,0
0,70,99,0
0,42,59,0
0,34,115,0
0,63,66,0
0,67,65,0
0,72,65,0
0,46,79,0
0,67,59,0
0,84,60,0
0,60,107,0
0,72,105,0
0,40,105,8
0,42,52,0
0,54,32,0
0,65,63,0
0,70,67,0
0,74,67,0
0,70,59,0
0,86,65,0
0,62,98,0
0,74,98,0
0,42,58,16
0,29,119,0
0,63,64,0
0,67,68,0
0,72,68,0
0,41,81,0
0,67,64,0
0,84,63,0
0,60,102,0
0,72,102,0
0,36,115,16
0,42,58,0
0,34,116,0
0,46,83,0
0,67,60,0
0,72,58,0
0,75,52,0
0,58,104,0
0,70,98,0
0,42,54,8
0,55,102,0
0,67,102,0
0,40,107,188
0,42,50,0
0,54,34,0
0,36,96,152
0,42,54,0
0,29,119,0
0,41,78,0
0,31,117,8
0,43,75,0
0,36,115,0
0,42,50,0
0,34,116,0
0,46,80,0
0,42,51,8
0,34,118,0
0,63,65,0
0,67,63,0
0,72,62,0
0,46,80,0
0,67,68,0
0,84,61,0
0,60,103,0
0,72,105,0
0,63,70,0
0,67,77,0
0,72,71,0
0,72,118,0
0,40,112,8
0,42,54,0
0,54,37,0
0,29,116,0
0,41,77,0
0,58,76,0
0,62,78,0
0,67,77,0
0,67,115,0
0,31,113,8
0,43,84,0
0,46,117,8
0,34,115,0
0,62,64,0
0,65,65,0
0,70,64,0
0,46,80,0
0,65,64,0
0,82,64,0
0,58,100,0
0,70,107,0
0,62,72,0
0,65,77,0
0,70,73,0
0,70,116,0
0,36,119,12
0,42,51,0
0,34,117,0
0,46,79,0
0,70,53,0
0,74,59,0
0,77,57,0
0,63,70,8
0,67,77,0
0,72,77,0
0,72,122,0
0,42,52,8
0,65,79,0
0,70,75,0
0,74,79,0
0,74,114,0
0,40,103,8
0,42,54,0
0,54,36,0
0,36,105,0
0,42,54,0
0,29,119,0
0,41,83,0
0,36,118,8
0,42,58,0
0,34,115,0
0,62,67,0
0,65,67,0
0,70,70,0
0,46,83,0
0,65,60,0
0,82,60,0
0,58,105,0
0,70,103,0
0,42,53,0
0,34,114,0
0,63,66,0
0,67,66,0
0,72,62,0
0,46,76,0
0,67,61,0
0,84,67,0
0,60,102,0
0,72,105,0
0,40,103,8
0,42,50,0
0,54,32,0
0,65,69,0
0,70,66,0
0,74,64,0
0,70,67,0
0,86,67,0
0,62,101,0
0,74,102,0
0,42,59,8
0,29,114,0
0,67,68,0
0,70,61,0
0,75,64,0
0,41,75,0
0,70,60,0
0,87,62,0
0,63,100,0
0,75,103,0
0,36,119,0
0,42,52,0
0,34,117,0
0,46,75,0
0,67,52,0
0,72,51,0
0,75,54,0
0,42,50,112
0,67,63,0
0,86,67,0
0,62,107,0
0,74,106,0
0,42,52,0
0,54,33,0
0,36,96,112
0,42,59,0
0,29,116,0
0,41,80,0
0,65,63,0
0,84,65,0
0,60,104,0
0,72,105,0
0,31,113,8
0,43,82,0
0,36,113,0
0,42,55,0
0,34,122,0
0,67,63,0
0,70,64,0
0,75,63,0
0,46,78,0
0,40,105,16
0,47,99,0
0,34,118,0
0,46,79,0
0,63,66,0
0,82,59,0
0,58,103,0
0,70,103,0
0,40,104,16
0,54,39,0
0,29,119,0
0,41,81,0
0,40,110,8
0,31,114,0
0,43,82,0
0,47,97,8
0,34,117,0
0,67,68,0
0,70,66,0
0,74,69,0
0,46,79,0
0,36,113,16
0,49,102,0
0,31,115,0
0,43,80,0
0,70,56,0
0,74,59,0
0,77,60,0
0,42,58,16
0,29,113,0
0,41,75,0
0,40,112,40
0,42,53,0
0,54,41,0
0,26,120,0
0,70,63,0
0,74,68,0
0,77,62,0
0,38,78,0
0,36,105,16
0,42,59,0
0,57,119,0
0,24,118,0
0,67,62,0
0,70,66,0
0,75,66,0
0,36,79,0
0,67,60,0
0,70,57,0
0,75,52,0
0,36,120,188
0,42,51,0
0,42,53,188
0,65,65,0
0,77,65,0
0,53,107,0
0,65,103,0
0,67,62,8
0,79,68,0
0,55,99,0
0,67,104,0
0,40,107,8
0,42,58,0
0,54,35,0
0,70,60,0
0,82,66,0
0,58,107,0
0,70,102,0
0,67,64,8
0,79,64,0
0,55,106,0
0,67,103,0
0,42,57,8
0,24,122,0
0,65,69,0
0,36,75,0
0,70,65,0
0,82,65,0
0,58,106,0
0,70,101,0
0,24,113,8
0,67,70,0
0,36,82,0
0,36,114,8
0,42,53,0
0,26,113,0
0,62,61,0
0,65,69,0
0,70,64,0
0,38,82,0
0,65,60,0
0,70,53,0
0,74,55,0
0,42,54,20
0,62,70,0
0,65,68,0
0,70,62,0
0,40,112,188
0,42,52,0
0,54,36,0
0,36,97,32
0,42,59,0
0,27,116,0
0,63,65,0
0,67,68,0
0,70,67,0
0,39,83,0
0,67,57,0
0,70,60,0
0,75,60,0
0,36,114,0
0,42,59,0
0,27,117,0
0,39,78,0
0,42,54,8
0,65,62,0
0,77,66,0
0,53,99,0
0,65,104,0
0,24,115,8
0,36,83,0
0,67,66,0
0,79,67,0
0,55,101,0
0,67,107,0
0,40,107,8
0,42,53,0
0,54,33,0
0,26,119,0
0,62,64,0
0,65,68,0
0,70,67,0
0,38,81,0
0,65,60,0
0,70,60,0
0,74,51,0
0,72,61,0
0,84,66,0
0,60,103,0
0,72,104,0
0,84,66,8
0,60,106,0
0,72,98,0
0,46,113,8
0,31,115,0
0,43,76,0
0,70,64,0
0,82,68,0
0,58,100,0
0,70,107,0
0,36,117,8
0,42,52,0
0,36,118,0
0,63,62,0
0,67,67,0
0,72,62,0
0,48,79,0
0,72,51,0
0,77,56,0
0,62,106,0
0,74,104,0
0,42,56,0
0,60,102,0
0,72,101,0
0,40,112,104
0,42,52,0
0,54,40,0
0,58,100,0
0,70,104,0
0,36,100,144
0,42,53,0
0,60,103,0
0,72,103,0
0,36,117,40
0,42,50,0
0,36,120,0
0,70,67,0
0,75,65,0
0,79,70,0
0,48,75,0
0,63,65,0
0,79,65,0
0,70,64,8
0,74,70,0
0,77,67,0
0,62,61,0
0,77,59,0
0,42,54,8
0,45,93,0
0,38,115,0
0,70,69,0
0,75,65,0
0,79,64,0
0,50,80,0
0,63,66,0
0,79,68,0
0,40,110,8
0,42,58,0
0,54,41,0
0,39,114,0
0,51,75,0
0,36,105,16
0,42,57,0
0,49,101,0
0,41,116,0
0,70,66,0
0,74,62,0
0,77,64,0
0,53,83,0
0,74,54,0
0,77,60,0
0,62,68,0
0,77,62,0
0,36,114,188
0,42,55,0
0,42,56,40
0,65,70,0
0,40,111,20
0,42,51,0
0,54,37,0
0,70,63,0
0,74,63,0
0,77,61,0
0,36,97,8
0,42,56,0
0,41,122,0
0,69,66,0
0,72,61,0
0,77,63,0
0,53,79,0
0,72,59,0
0,77,53,0
0,60,60,0
0,77,64,0
0,36,120,16
0,42,57,0
0,41,118,0
0,53,77,0
0,42,57,188
0,40,108,188
0,42,51,0
0,54,38,0
0,36,105,188
0,42,50,0
0,36,117,16
0,42,55,0
0,41,119,0
0,70,61,0
0,74,62,0
0,77,62,0
0,53,84,0
0,74,57,0
0,77,57,0
0,42,51,20
0,70,66,0
0,74,69,0
0,77,62,0
0,67,59,0
0,79,60,0
0,65,103,0
0,77,104,0
0,41,81,0
0,40,106,8
0,42,51,0
0,54,41,0
0,70,64,0
0,82,61,0
0,36,97,16
0,42,53,0
0,41,114,0
0,69,69,0
0,72,70,0
0,77,65,0
0,53,83,0
0,72,56,0
0,77,53,0
0,72,64,0
0,84,65,0
0,65,102,0
0,77,102,0
0,41,83,0
0,36,118,16
0,40,107,0
0,42,54,0
0,41,119,0
0,53,84,0
0,74,67,0
0,86,60,0
0,36,114,8
0,69,69,0
0,72,66,0
0,77,68,0
0,48,80,0
0,72,63,0
0,84,59,0
0,65,106,0
0,77,104,0
0,41,79,0
0,40,107,8
0,38,115,0
0,50,75,0
0,40,104,8
0,42,53,0
0,54,35,0
0,41,114,0
0,53,76,0
0,65,62,0
0,77,63,0
0,41,79,0
0,46,117,8
0,41,116,0
0,79,64,0
0,53,83,0
0,67,68,0
0,79,65,0
0,65,98,0
0,77,98,0
0,53,82,0
0,51,84,0
0,50,80,0
0,48,87,0
0,36,118,0
0,42,51,0
0,34,113,0
0,58,65,0
0,70,64,0
0,53,55,0
0,58,49,0
0,46,80,0
0,42,53,160
0,76,56,0
0,36,104,188
0,34,118,0
0,36,114,16
0,26,114,0
0,42,58,160
0,77,55,0
0,26,119,188
0,36,113,16
0,27,114,0
0,42,52,160
0,76,61,0
0,36,99,188
0,27,115,0
0,36,119,16
0,29,118,0
0,46,116,160
0,77,52,0
0,31,117,0
0,29,116,16
0,36,118,0
0,34,116,0
0,42,51,64
0,76,59,0
0,65,121,0
0,36,97,188
0,34,117,0
0,36,122,16
0,26,117,0
0,70,120,0
0,42,57,64
0,77,58,0
0,26,115,112
0,65,113,0
0,36,119,16
0,27,122,0
0,69,120,0
0,42,52,64
0,76,60,0
0,36,101,16
0,27,115,0
0,67,114,0
0,36,114,16
0,29,120,0
0,42,52,112
0,77,56,0
0,29,113,0
0,65,113,0
0,67,119,8
0,65,115,16
0,36,115,64
0,34,122,0
0,63,113,16
0,62,116,8
0,42,56,64
0,76,53,0
0,36,102,188
0,34,117,0
0,36,116,16
0,26,117,0
0,42,56,304
0,77,61,0
0,26,118,160
0,36,119,16
0,27,114,0
0,42,55,380
0,76,61,0
0,36,105,160
0,27,117,0
0,36,114,16
0,29,116,0
0,42,51,160
0,77,59,0
0,29,118,0
0,36,114,64
0,34,117,0
0,42,50,64
0,76,52,0
0,65,121,0
0,65,122,8
0,36,100,96
0,34,122,0
0,36,115,16
0,26,120,0
0,74,121,0
0,42,50,16
0,77,61,0
0,69,116,0
0,26,119,16
0,72,120,0
0,36,115,16
0,27,113,0
0,70,113,16
0,42,52,64
0,76,53,0
0,36,96,188
0,26,116,0
0,36,115,16
0,27,118,0
0,69,116,112
0,42,59,64
0,77,60,0
0,26,120,0
0,70,113,16
0,26,117,16
0,36,121,8
0,24,116,0
0,51,55,0
0,58,49,0
0,67,49,0
0,72,51,0
0,70,116,0
0,42,57,324
0,76,60,0
0,69,120,4
0,36,98,8
0,36,118,0
0,67,120,0
0,36,120,16
0,36,118,0
0,65,79,0
0,67,76,24
0,26,121,16
0,72,81,0
0,42,50,16
0,77,59,0
0,27,117,0
0,65,77,0
0,70,74,0
0,28,119,16
0,36,120,8
0,29,116,0
0,65,53,0
0,70,49,0
0,42,52,64
0,76,55,0
0,36,100,188
0,29,122,0
0,36,115,8
0,29,117,0
0,57,49,0
0,65,50,0
0,69,55,0
0,43,91,380
0,46,117,0
0,77,58,0
0,36,116,0
0,42,51,0
0,34,118,0
0,53,54,0
0,58,55,0
0,58,53,0
0,65,49,0
0,42,58,160
0,76,57,0
0,65,122,0
0,36,100,188
0,34,118,0
0,36,119,16
0,26,113,0
0,74,122,0
0,42,51,64
0,77,54,0
0,26,117,112
0,69,113,0
0,36,113,8
0,27,115,0
0,57,54,0
0,72,120,0
0,70,122,16
0,42,58,64
0,76,55,0
0,36,100,188
0,27,117,0
0,36,115,8
0,27,118,0
0,51,54,0
0,55,52,0
0,42,56,160
0,77,57,0
0,26,118,0
0,60,79,188
0,62,75,24
0,36,117,8
0,31,117,0
0,67,82,0
0,50,53,0
0,55,53,0
0,59,51,0
0,42,57,64
0,76,57,0
0,67,120,0
0,36,102,188
0,31,114,0
0,36,118,16
0,31,114,0
0,67,118,0
0,62,120,16
0,42,54,16
0,77,53,0
0,35,117,0
0,65,120,0
0,62,75,0
0,65,80,0
0,67,115,0
0,36,116,8
0,36,118,0
0,62,76,0
0,65,76,0
0,51,55,0
0,55,54,0
0,62,57,0
0,63,120,16
0,42,50,24
0,76,59,0
0,60,75,0
0,63,82,0
0,36,98,8
0,36,120,0
0,60,75,0
0,63,83,0
0,51,50,0
0,55,53,0
0,60,57,0
0,36,118,16
0,36,113,0
0,62,119,0
0,26,116,16
0,63,113,0
0,42,56,16
0,43,94,0
0,77,56,0
0,27,118,0
0,64,117,0
0,46,116,16
0,28,119,0
0,65,113,0
0,36,115,8
0,42,57,0
0,29,114,0
0,58,61,0
0,60,61,0
0,65,64,0
0,53,56,0
0,58,52,0
0,60,58,0
0,42,51,16
0,40,109,64
0,42,57,0
0,76,58,0
0,74,121,0
0,77,113,0
0,36,99,8
0,42,55,0
0,29,119,0
0,57,61,0
0,60,69,0
0,65,68,0
0,53,50,0
0,57,51,0
0,60,50,0
0,74,119,0
0,77,115,0
0,36,114,16
0,42,59,0
0,29,115,0
0,42,54,188
0,40,105,16
0,42,53,0
0,77,59,0
0,42,53,188
0,65,113,0
0,69,117,0
0,36,113,8
0,42,50,0
0,29,119,0
0,58,61,0
0,60,66,0
0,65,67,0
0,53,55,0
0,58,55,0
0,60,49,0
0,75,118,0
0,79,116,0
0,42,54,132
0,74,121,16
0,77,118,0
0,40,108,64
0,42,55,0
0,76,61,0
0,36,98,8
0,42,54,0
0,29,120,0
0,57,69,0
0,60,70,0
0,65,62,0
0,53,49,0
0,57,58,0
0,60,50,0
0,75,119,0
0,79,117,0
0,36,119,16
0,40,105,0
0,42,57,0
0,29,116,0
0,74,117,0
0,77,119,0
0,40,104,16
0,42,50,0
0,43,99,0
0,41,115,0
0,60,61,0
0,72,65,0
0,72,114,0
0,75,115,0
0,62,63,8
0,74,64,0
0,40,110,8
0,42,59,0
0,77,56,0
0,36,115,0
0,57,69,0
0,60,65,0
0,65,67,0
0,63,61,0
0,75,63,0
0,70,113,0
0,74,116,0
0,40,109,8
0,38,120,0
0,65,60,0
0,77,67,0
0,40,107,8
0,42,55,0
0,41,118,0
0,57,64,0
0,60,70,0
0,65,61,0
0,67,63,0
0,79,64,0
0,74,118,0
0,77,122,0
0,69,66,8
0,81,60,0
0,36,113,0
0,49,101,0
0,34,121,0
0,65,63,0
0,70,66,0
0,74,65,0
0,62,53,0
0,65,51,0
0,70,57,0
0,46,66,0
0,70,59,0
0,82,68,0
0,50,56,0
0,53,51,0
0,62,55,0
0,42,52,188
0,40,106,188
0,42,51,0
0,54,32,0
0,36,105,112
0,42,52,0
0,29,116,0
0,65,121,0
0,70,121,0
0,36,113,16
0,42,56,0
0,34,117,0
0,62,65,0
0,65,68,0
0,70,65,0
0,70,115,0
0,74,121,0
0,42,54,16
0,34,113,0
0,72,121,0
0,75,120,0
0,40,109,16
0,42,57,0
0,54,33,0
0,74,115,0
0,77,115,0
0,42,52,16
0,29,115,0
0,67,67,0
0,70,66,0
0,77,66,0
0,74,113,0
0,77,120,0
0,36,120,8
0,42,57,0
0,34,120,0
0,63,58,0
0,67,55,0
0,70,60,0
0,51,54,0
0,55,56,0
0,63,57,0
0,42,55,16
0,72,120,0
0,75,120,0
0,40,108,188
0,42,56,0
0,54,33,0
0,36,100,16
0,42,59,0
0,29,115,0
0,65,115,0
0,70,118,0
0,31,119,8
0,36,118,8
0,42,50,0
0,34,121,0
0,67,63,0
0,70,65,0
0,75,67,0
0,70,116,0
0,74,114,0
0,42,55,16
0,34,114,0
0,72,113,0
0,75,120,0
0,40,103,16
0,42,53,0
0,54,37,0
0,29,114,0
0,70,64,0
0,75,67,0
0,79,67,0
