track,note,velocity,time
1,48,102,14400
1,48,0,35
1,48,119,25
1,48,0,43
1,48,113,17
1,48,0,36
1,48,113,24
1,48,0,48
1,48,91,12
1,48,0,34
1,48,105,26
1,48,0,44
1,48,105,16
1,48,0,34
1,48,113,26
1,48,0,41
1,48,102,19
1,48,0,1
1,48,119,59
1,48,0,43
1,48,113,17
1,48,0,36
1,48,113,24
1,48,0,48
1,48,91,12
1,48,0,34
1,48,105,26
1,48,0,44
1,48,105,16
1,48,0,34
1,48,113,26
1,48,0,41
1,48,105,19
1,48,0,1
1,48,89,59
1,48,0,33
1,48,105,27
1,48,0,40
1,48,98,20
1,48,0,44
1,48,102,16
1,48,0,36
1,48,102,24
1,48,0,37
1,48,110,23
1,48,0,43
1,48,98,17
1,48,0,52
1,48,105,8
1,48,0,44
1,48,89,16
1,48,0,33
1,48,105,27
1,48,0,40
1,48,98,20
1,48,0,44
1,48,102,16
1,48,0,36
1,48,102,24
1,48,0,37
1,48,110,23
1,48,0,43
1,48,98,17
1,48,0,52
1,48,105,8
1,48,0,44
1,48,89,16
1,48,0,33
1,48,105,27
1,48,0,40
1,48,98,20
1,48,0,44
1,48,102,16
1,48,0,36
1,48,102,24
1,48,0,37
1,48,110,23
1,48,0,43
1,48,98,17
1,48,0,52
1,53,107,8
1,53,0,25
1,53,107,35
1,53,0,34
1,53,119,26
1,53,0,31
1,53,107,29
1,53,0,39
1,53,107,21
1,53,0,25
1,53,100,35
1,53,0,24
1,53,105,36
1,45,89,60
1,53,0,0
1,45,0,23
1,46,105,37
1,46,0,44
1,46,89,16
1,46,0,33
1,46,105,27
1,46,0,40
1,46,98,20
1,46,0,44
1,46,102,16
1,46,0,36
1,46,102,24
1,46,0,37
1,46,110,23
1,46,0,43
1,46,98,17
1,46,0,52
1,48,102,8
1,48,0,31
1,48,98,29
1,48,0,38
1,48,119,22
1,48,0,34
1,48,105,26
1,36,93,30
1,48,0,8
1,36,0,8
1,48,85,14
1,48,0,31
1,48,107,29
1,48,0,21
1,48,113,39
1,48,0,50
1,47,98,10
1,47,0,19
1,48,105,41
1,48,0,28
1,48,100,32
1,48,0,22
1,48,110,38
1,48,0,23
1,48,116,37
1,48,0,51
1,48,95,9
1,48,0,27
1,48,95,33
1,48,0,23
1,48,122,37
1,48,0,33
1,48,110,27
1,48,0,14
1,36,85,16
1,36,0,17
1,53,116,13
1,53,0,28
1,53,116,32
1,53,0,34
1,53,107,26
1,53,0,32
1,53,116,28
1,53,0,36
1,53,107,24
1,53,0,33
1,53,105,27
1,41,72,30
1,53,0,1
1,41,0,24
1,53,127,5
1,53,0,28
1,41,76,2
1,41,0,24
1,53,110,6
1,53,0,26
1,53,102,4
1,53,0,18
1,46,105,12
1,46,0,28
1,46,100,32
1,46,0,22
1,46,110,38
1,46,0,23
1,46,116,37
1,46,0,51
1,46,95,9
1,46,0,27
1,46,95,33
1,46,0,23
1,46,122,37
1,46,0,33
1,46,110,27
1,46,0,14
1,34,85,16
1,34,0,17
1,48,105,13
1,48,0,38
1,48,107,22
1,48,0,48
1,48,102,12
1,48,0,38
1,48,116,22
1,48,0,17
1,36,80,13
1,36,0,15
1,48,102,15
1,48,0,43
1,48,85,17
1,48,0,40
1,46,102,20
1,46,0,43
1,46,85,17
1,46,0,40
1,48,105,20
1,48,0,44
1,48,89,16
1,48,0,33
1,48,105,27
1,48,0,40
1,48,98,20
1,48,0,44
1,48,102,16
1,48,0,36
1,48,102,24
1,48,0,37
1,48,110,23
1,48,0,43
1,48,98,17
1,48,0,52
1,48,105,8
1,48,0,38
1,48,107,22
1,48,0,48
1,48,102,12
1,48,0,38
1,48,116,22
1,48,0,17
1,36,80,13
1,36,0,15
1,48,102,15
1,48,0,43
1,48,85,17
1,48,0,40
1,46,102,20
1,46,0,43
1,46,85,17
1,46,0,40
1,48,105,20
1,48,0,44
1,48,89,16
1,48,0,33
1,48,105,27
1,48,0,40
1,48,98,20
1,48,0,44
1,48,102,16
1,48,0,36
1,48,102,24
1,48,0,37
1,48,110,23
1,48,0,43
1,48,98,17
1,48,0,52
1,48,105,8
1,48,0,38
1,48,110,22
1,48,0,43
1,48,107,17
1,48,0,42
1,48,110,18
1,48,0,51
1,48,100,9
1,48,0,34
1,48,107,26
1,48,0,47
1,48,102,13
1,48,0,38
1,48,119,22
1,48,0,39
1,48,105,21
1,48,0,28
1,48,100,32
1,48,0,22
1,48,110,38
1,48,0,23
1,48,116,37
1,48,0,51
1,48,95,9
1,48,0,27
1,48,95,33
1,48,0,23
1,48,122,37
1,48,0,33
1,48,110,27
1,48,0,14
1,36,85,16
1,36,0,17
1,53,105,13
1,53,0,28
1,53,100,32
1,53,0,22
1,53,110,38
1,53,0,23
1,53,116,37
1,53,0,51
1,53,95,9
1,53,0,27
1,53,95,33
1,53,0,23
1,53,122,37
1,53,0,33
1,53,110,27
1,53,0,14
1,41,85,16
1,41,0,17
1,46,105,13
1,46,0,28
1,46,100,32
1,46,0,22
1,46,110,38
1,46,0,23
1,46,116,37
1,46,0,51
1,46,95,9
1,46,0,27
1,46,95,33
1,46,0,23
1,46,122,37
1,46,0,33
1,46,110,27
1,46,0,14
1,34,85,16
1,34,0,17
1,48,107,13
1,48,0,25
1,48,107,35
1,48,0,34
1,48,119,26
1,48,0,31
1,48,107,29
1,48,0,39
1,48,107,21
1,48,0,25
1,48,100,35
1,48,0,24
1,48,105,36
1,47,89,60
1,48,0,0
1,47,0,23
1,48,102,37
1,48,0,35
1,48,119,25
1,48,0,43
1,48,113,17
1,48,0,36
1,48,113,24
1,48,0,48
1,48,91,12
1,48,0,34
1,48,105,26
1,48,0,44
1,48,105,16
1,48,0,34
1,48,113,26
1,48,0,41
1,53,102,19
1,53,0,31
1,53,98,29
1,53,0,38
1,53,119,22
1,53,0,34
1,53,105,26
1,41,93,30
1,53,0,8
1,41,0,8
1,53,85,14
1,53,0,31
1,53,107,29
1,53,0,21
1,53,113,39
1,53,0,50
1,45,98,10
1,45,0,19
1,46,102,41
1,46,0,31
1,46,98,29
1,46,0,38
1,46,119,22
1,46,0,34
1,46,105,26
1,34,93,30
1,46,0,8
1,34,0,8
1,46,85,14
1,46,0,31
1,46,107,29
1,46,0,21
1,46,113,39
1,46,0,50
1,47,98,10
1,47,0,19
1,48,102,41
1,48,0,35
1,48,119,25
1,48,0,43
1,48,113,17
1,48,0,36
1,48,113,24
1,48,0,48
1,48,91,12
1,48,0,34
1,48,105,26
1,48,0,44
1,48,105,16
1,48,0,34
1,48,113,26
1,48,0,41
1,48,113,19
1,48,0,1
1,48,107,59
1,48,0,49
1,48,95,11
1,48,0,42
1,48,107,18
1,48,0,49
1,48,91,11
1,48,0,32
1,48,110,28
1,48,0,52
1,48,102,8
1,48,0,37
1,48,110,23
1,48,0,53
1,48,93,7
1,48,0,34
1,48,110,26
1,48,0,49
1,48,98,11
1,48,0,40
1,48,107,20
1,48,0,45
1,48,107,15
1,48,0,36
1,48,110,24
1,48,0,29
1,48,116,31
1,48,0,43
1,48,105,17
1,48,0,38
1,48,110,22
1,48,0,38
1,48,102,22
1,48,0,51
1,48,102,9
1,48,0,46
1,48,100,14
1,36,91,30
1,48,0,12
1,36,0,6
1,48,89,12
1,48,0,36
1,48,105,24
1,48,0,28
1,48,116,32
1,48,0,43
1,48,107,17
1,48,0,50
1,48,100,10
1,48,0,27
1,48,105,33
1,48,0,29
1,48,116,31
1,48,0,36
1,48,105,24
1,36,82,30
1,48,0,9
1,36,0,6
1,48,89,15
1,48,0,37
1,48,102,23
1,48,0,26
1,36,53,4
1,36,0,17
1,48,110,13
1,48,0,38
1,48,107,22
1,48,0,27
1,51,110,33
1,51,0,38
1,51,102,22
1,51,0,51
1,51,102,9
1,51,0,46
1,51,100,14
1,39,91,30
1,51,0,12
1,39,0,6
1,51,89,12
1,51,0,36
1,51,105,24
1,51,0,28
1,51,116,32
1,51,0,43
1,51,107,17
1,51,0,50
1,51,100,10
1,51,0,27
1,51,105,33
1,51,0,29
1,51,116,31
1,51,0,36
1,51,105,24
1,39,82,30
1,51,0,9
1,39,0,6
1,51,89,15
1,51,0,37
1,51,102,23
1,51,0,26
1,39,53,4
1,39,0,17
1,51,110,13
1,51,0,38
1,51,107,22
1,51,0,27
1,51,105,33
1,51,0,30
1,51,102,30
1,51,0,30
1,51,107,30
1,51,0,32
1,51,116,28
1,39,72,30
1,51,0,8
1,39,0,8
1,51,82,14
1,51,0,28
1,51,105,32
1,51,0,28
1,51,105,32
1,51,0,39
1,51,105,21
1,51,0,45
1,51,98,15
1,51,0,28
1,51,89,32
1,51,0,28
1,51,110,32
1,51,0,35
1,51,95,25
1,51,0,44
1,51,105,16
1,51,0,31
1,51,105,29
1,51,0,34
1,51,107,26
1,51,0,35
1,51,113,25
1,51,0,39
1,51,105,21
1,51,0,44
1,51,89,16
1,51,0,33
1,51,105,27
1,51,0,40
1,51,98,20
1,51,0,44
1,51,102,16
1,51,0,36
1,51,102,24
1,51,0,37
1,51,110,23
1,51,0,43
1,51,98,17
1,51,0,52
1,48,105,8
1,48,0,28
1,48,100,32
1,48,0,22
1,48,110,38
1,48,0,23
1,48,116,37
1,48,0,51
1,48,95,9
1,48,0,27
1,48,95,33
1,48,0,23
1,48,122,37
1,48,0,33
1,48,110,27
1,48,0,14
1,36,85,16
1,36,0,17
1,53,116,13
1,53,0,28
1,53,116,32
1,53,0,34
1,53,107,26
1,53,0,32
1,53,116,28
1,53,0,36
1,53,107,24
1,53,0,33
1,53,105,27
1,41,72,30
1,53,0,1
1,41,0,24
1,53,127,5
1,53,0,28
1,41,76,2
1,41,0,24
1,53,110,6
1,53,0,26
1,53,102,4
1,53,0,18
1,46,116,12
1,46,0,28
1,46,116,32
1,46,0,34
1,46,107,26
1,46,0,32
1,46,116,28
1,46,0,36
1,46,107,24
1,46,0,33
1,46,105,27
1,34,72,30
1,46,0,1
1,34,0,24
1,46,127,5
1,46,0,28
1,34,76,2
1,34,0,24
1,46,110,6
1,46,0,26
1,46,102,4
1,46,0,18
1,48,102,12
1,48,0,31
1,48,98,29
1,48,0,38
1,48,119,22
1,48,0,34
1,48,105,26
1,36,93,30
1,48,0,8
1,36,0,8
1,48,85,14
1,48,0,31
1,48,107,29
1,48,0,21
1,48,113,39
1,48,0,50
1,47,98,10
1,47,0,19
1,48,105,41
1,48,0,28
1,48,100,32
1,48,0,22
1,48,110,38
1,48,0,23
1,48,116,37
1,48,0,51
1,48,95,9
1,48,0,27
1,48,95,33
1,48,0,23
1,48,122,37
1,48,0,33
1,48,110,27
1,48,0,14
1,36,85,16
1,36,0,17
1,53,102,13
1,53,0,31
1,53,98,29
1,53,0,38
1,53,119,22
1,53,0,34
1,53,105,26
1,41,93,30
1,53,0,8
1,41,0,8
1,53,85,14
1,53,0,31
1,53,107,29
1,53,0,21
1,53,113,39
1,53,0,50
1,45,98,10
1,45,0,19
1,46,102,41
1,46,0,31
1,46,98,29
1,46,0,38
1,46,119,22
1,46,0,34
1,46,105,26
1,34,93,30
1,46,0,8
1,34,0,8
1,46,85,14
1,46,0,31
1,46,107,29
1,46,0,21
1,46,113,39
1,46,0,50
1,47,98,10
1,47,0,19
1,48,116,41
1,48,0,28
1,48,116,32
1,48,0,34
1,48,107,26
1,48,0,32
1,48,116,28
1,48,0,36
1,48,107,24
1,48,0,33
1,48,105,27
1,36,72,30
1,48,0,1
1,36,0,24
1,48,127,5
1,48,0,28
1,36,76,2
1,36,0,24
1,48,110,6
1,48,0,26
1,48,102,4
1,48,0,18
1,48,107,12
1,48,0,25
1,48,107,35
1,48,0,34
1,48,119,26
1,48,0,31
1,48,107,29
1,48,0,39
1,48,107,21
1,48,0,25
1,48,100,35
1,48,0,24
1,48,105,36
1,52,89,60
1,48,0,0
1,52,0,23
1,53,105,37
1,53,0,28
1,53,100,32
1,53,0,22
1,53,110,38
1,53,0,23
1,53,116,37
1,53,0,51
1,53,95,9
1,53,0,27
1,53,95,33
1,53,0,23
1,53,122,37
1,53,0,33
1,53,110,27
1,53,0,14
1,41,85,16
1,41,0,17
1,46,107,13
1,46,0,25
1,46,107,35
1,46,0,34
1,46,119,26
1,46,0,31
1,46,107,29
1,46,0,39
1,46,107,21
1,46,0,25
1,46,100,35
1,46,0,24
1,46,105,36
1,47,89,60
1,46,0,0
1,47,0,23
1,48,102,37
1,48,0,31
1,48,98,29
1,48,0,38
1,48,119,22
1,48,0,34
1,48,105,26
1,36,93,30
1,48,0,8
1,36,0,8
1,48,85,14
1,48,0,31
1,48,107,29
1,48,0,21
1,48,113,39
1,48,0,50
1,47,98,10
1,47,0,19
1,48,107,41
1,48,0,25
1,48,107,35
1,48,0,34
1,48,119,26
1,48,0,31
1,48,107,29
1,48,0,39
1,48,107,21
1,48,0,25
1,48,100,35
1,48,0,24
1,48,105,36
1,52,89,60
1,48,0,0
1,52,0,23
1,53,105,37
1,53,0,44
1,53,89,16
1,53,0,33
1,53,105,27
1,53,0,40
1,53,98,20
1,53,0,44
1,53,102,16
1,53,0,36
1,53,102,24
1,53,0,37
1,53,110,23
1,53,0,43
1,53,98,17
1,53,0,52
1,46,102,8
1,46,0,31
1,46,98,29
1,46,0,38
1,46,119,22
1,46,0,34
1,46,105,26
1,34,93,30
1,46,0,8
1,34,0,8
1,46,85,14
1,46,0,31
1,46,107,29
1,46,0,21
1,46,113,39
1,46,0,50
1,47,98,10
1,47,0,19
1,48,102,41
1,48,0,31
1,48,98,29
1,48,0,38
1,48,119,22
1,48,0,34
1,48,105,26
1,36,93,30
1,48,0,8
1,36,0,8
1,48,85,14
1,48,0,31
1,48,107,29
1,48,0,21
1,48,113,39
1,48,0,50
1,47,98,10
1,47,0,19
1,48,107,41
1,48,0,43
1,48,98,17
1,48,0,47
1,48,105,13
1,48,0,41
1,48,105,19
1,48,0,42
1,48,95,18
1,48,0,35
1,48,100,25
1,48,0,34
1,48,105,26
1,48,0,41
1,48,85,19
1,36,61,31
1,48,0,0
1,36,0,19
1,48,107,10
1,48,0,44
1,48,98,16
1,48,0,39
1,48,105,21
1,48,0,40
1,48,98,20
1,48,0,34
1,48,107,26
1,48,0,32
1,48,95,28
1,48,0,17
1,48,110,43
1,48,0,44
1,47,105,16
1,47,0,19
1,48,113,41
1,48,0,28
1,48,107,32
1,48,0,49
1,48,95,11
1,48,0,42
1,48,107,18
1,48,0,49
1,48,91,11
1,48,0,32
1,48,110,28
1,48,0,52
1,48,102,8
1,48,0,37
1,48,110,23
1,48,0,53
1,48,93,7
1,48,0,34
1,48,110,26
1,48,0,49
1,48,98,11
1,48,0,40
1,48,107,20
1,48,0,45
1,48,107,15
1,48,0,36
1,48,110,24
1,48,0,29
1,48,116,31
1,48,0,43
1,48,105,17
1,48,0,38
1,48,105,22
1,48,0,30
1,48,102,30
1,48,0,30
1,48,107,30
1,48,0,32
1,48,116,28
1,36,72,30
1,48,0,8
1,36,0,8
1,48,82,14
1,48,0,28
1,48,105,32
1,48,0,28
1,48,105,32
1,48,0,39
1,48,105,21
1,48,0,45
1,48,98,15
1,48,0,28
1,48,89,32
1,48,0,28
1,48,110,32
1,48,0,35
1,48,95,25
1,48,0,44
1,48,105,16
1,48,0,31
1,48,105,29
1,48,0,34
1,48,107,26
1,48,0,35
1,48,113,25
1,48,0,39
1,48,105,21
1,48,0,44
1,48,89,16
1,48,0,33
1,48,105,27
1,48,0,40
1,48,98,20
1,48,0,44
1,48,102,16
1,48,0,36
1,48,102,24
1,48,0,37
1,48,110,23
1,48,0,43
1,48,98,17
1,48,0,52
1,48,105,8
1,48,0,38
1,48,110,22
1,48,0,43
1,48,107,17
1,48,0,42
1,48,110,18
1,48,0,51
1,48,100,9
1,48,0,34
1,48,107,26
1,48,0,47
1,48,102,13
1,48,0,38
1,48,119,22
1,48,0,39
1,48,105,21
1,48,0,44
1,48,89,16
1,48,0,33
1,48,105,27
1,48,0,40
1,48,98,20
1,48,0,44
