track,note,velocity,time
1,29,103,3996
1,29,83,24
1,29,95,104
1,29,84,104
1,29,91,108
1,29,73,100
1,29,64,128
1,29,107,152
1,29,54,32
1,29,93,104
1,29,60,100
1,29,95,124
1,29,72,100
1,29,68,124
1,29,104,132
1,29,52,68
1,29,93,136
1,29,76,116
1,29,96,136
1,29,64,112
1,29,70,132
1,29,102,136
1,29,67,84
1,29,95,128
1,29,70,108
1,29,94,136
1,29,72,112
1,29,81,124
1,29,104,128
1,29,73,96
1,29,95,128
1,29,84,104
1,29,91,108
1,29,73,100
1,29,64,128
1,29,107,152
1,29,54,32
1,29,93,104
1,29,60,100
1,29,95,124
1,29,72,100
1,29,68,124
1,29,104,132
1,29,52,68
1,29,93,136
1,29,76,116
1,29,96,136
1,29,64,112
1,29,70,132
1,29,102,136
1,29,67,84
1,29,95,128
1,29,70,108
1,29,94,136
1,29,72,112
1,29,81,124
1,29,104,128
1,29,83,0
1,29,95,104
1,29,84,104
1,29,91,108
1,29,73,100
1,29,64,128
1,29,107,152
1,29,54,32
1,29,93,104
1,29,60,100
1,29,95,124
1,29,72,100
1,29,68,124
1,29,104,132
1,29,52,68
1,29,93,136
1,29,76,116
1,29,96,136
1,29,64,112
1,29,70,132
1,29,102,136
1,29,67,84
1,29,95,128
1,29,70,108
1,29,94,136
1,29,72,112
1,29,81,124
1,29,104,128
1,29,73,96
1,29,95,128
1,29,84,104
1,29,91,108
1,29,73,100
1,29,64,128
1,29,107,152
1,29,54,32
1,29,93,104
1,29,60,100
1,29,95,124
1,29,72,100
1,29,68,124
1,29,104,132
1,29,52,68
1,29,93,136
1,29,76,116
1,29,96,136
1,29,64,112
1,29,70,132
1,29,102,136
1,29,95,276
1,29,107,1068
1,29,93,96
1,29,60,100
1,29,95,124
1,29,72,100
1,29,68,124
1,29,104,132
1,29,52,68
1,29,93,136
1,29,76,116
1,29,96,136
1,29,64,112
1,29,70,132
1,29,102,136
1,29,67,84
1,29,95,128
1,29,70,108
1,29,94,136
1,29,72,112
1,29,81,124
1,29,104,128
1,29,73,96
1,29,95,128
1,29,84,104
1,29,91,108
1,29,73,100
1,29,64,128
1,29,107,152
1,29,54,32
1,29,93,104
1,29,60,100
1,29,95,124
1,29,72,100
1,29,68,124
1,29,104,132
1,29,52,68
1,29,93,136
1,29,76,116
1,29,96,136
1,29,64,112
1,29,70,132
1,29,102,136
1,29,67,84
1,29,95,128
1,29,70,108
1,29,94,136
1,29,72,112
1,29,81,124
1,29,104,128
1,29,60,96
1,29,93,124
1,29,60,100
1,29,95,124
1,29,72,100
1,29,68,124
1,29,104,132
1,31,93,96
1,31,93,68
1,26,93,76
1,29,81,52
1,31,88,84
1,33,98,68
1,28,76,384
1,31,81,108
1,33,84,104
1,28,74,56
1,31,79,100
1,33,78,104
1,34,87,92
1,46,88,32
1,44,88,68
1,41,84,60
1,38,84,12
1,33,82,12
1,45,89,32
1,43,84,20
1,40,92,0
1,31,89,144
1,38,89,32
1,31,57,152
1,31,73,104
1,32,80,192
1,33,83,72
1,36,58,4
1,40,83,112
1,45,90,84
1,40,92,76
1,34,100,244
1,33,98,140
1,31,99,272
1,29,103,1080
1,29,95,72
1,29,84,104
1,29,91,108
1,29,73,100
1,29,64,128
1,29,107,152
1,29,54,32
1,29,93,104
1,29,60,100
1,29,95,124
1,29,72,100
1,29,68,124
1,29,104,132
1,29,52,68
1,29,93,136
1,29,76,116
1,29,96,136
1,29,64,112
1,29,70,132
1,29,102,136
1,29,67,84
1,29,95,128
1,29,70,108
1,29,94,136
1,29,72,112
1,29,81,124
1,29,104,128
1,29,107,0
1,29,93,96
1,29,60,100
1,29,95,124
1,29,72,100
1,29,68,124
1,29,104,132
1,29,52,68
1,29,93,136
1,29,76,116
1,29,96,136
1,29,64,112
1,29,70,132
1,29,102,136
1,29,67,84
1,29,95,128
1,29,70,108
1,29,94,136
1,29,72,112
1,29,81,124
1,29,104,128
1,29,73,96
1,29,95,128
1,29,84,104
1,29,91,108
1,29,73,100
1,29,64,128
1,29,107,152
1,29,54,32
1,29,93,104
1,29,60,100
1,29,95,124
1,29,72,100
1,29,68,124
1,29,104,132
1,29,52,68
1,29,93,136
1,29,76,116
1,29,96,136
1,29,64,112
1,29,70,132
1,29,102,136
1,29,67,84
1,29,95,128
1,29,70,108
1,29,94,136
1,29,72,112
1,29,81,124
1,29,104,128
1,29,60,96
1,29,93,124
1,29,60,100
1,29,95,124
1,29,72,100
1,29,68,124
1,29,104,132
1,31,93,96
1,31,93,68
1,26,93,76
1,29,81,52
1,31,88,84
1,33,98,68
1,31,81,152
1,28,84,48
1,24,78,24
1,34,87,476
1,32,87,32
1,29,87,32
1,26,88,0
1,34,82,252
1,33,82,0
1,36,82,0
1,40,82,0
1,45,84,0
1,45,92,192
1,31,89,144
1,38,89,32
1,31,57,152
1,31,73,104
1,32,80,192
1,33,83,72
1,36,58,4
1,40,83,112
1,45,90,84
1,40,92,76
1,34,100,244
1,33,98,140
1,31,99,272
1,29,103,1080
1,29,95,72
1,29,84,104
1,29,91,108
1,29,73,100
1,29,64,128
1,29,107,152
1,29,54,32
1,29,93,104
1,29,60,100
1,29,95,124
1,29,72,100
1,29,68,124
1,29,104,132
1,29,52,68
1,29,93,136
1,29,76,116
1,29,96,136
1,29,64,112
1,29,70,132
1,29,102,136
1,29,67,84
1,29,95,128
1,29,70,108
1,29,94,136
1,29,72,112
1,29,81,124
1,29,104,128
1,29,102,0
1,29,93,100
1,29,81,248
1,31,96,88
1,31,97,100
1,31,91,260
1,33,102,100
1,33,88,112
1,34,96,104
1,36,98,92
1,36,63,276
1,36,105,140
1,29,103,280
1,29,100,88
1,29,81,88
1,29,92,148
1,31,99,104
1,31,105,108
1,31,95,268
1,33,102,108
1,33,81,112
1,34,94,104
1,36,95,104
1,36,88,276
1,36,99,116
1,29,102,296
1,29,93,100
1,29,90,288
1,31,101,116
1,31,94,120
1,31,92,288
1,33,98,108
1,33,90,116
1,34,91,96
1,36,97,104
1,36,74,276
1,36,103,124
1,29,103,284
1,29,102,100
1,31,99,464
1,31,96,92
1,31,73,96
1,31,91,124
1,33,104,96
1,34,94,108
1,36,96,108
1,29,102,112
1,29,67,96
1,29,95,128
1,29,70,108
1,29,94,136
1,29,72,112
1,29,81,124
1,29,104,128
1,29,83,0
1,29,95,104
1,29,84,104
1,29,91,108
1,29,73,100
1,29,64,128
1,29,107,152
1,29,54,32
1,29,93,104
1,29,60,100
1,29,95,124
1,29,72,100
1,29,68,124
1,29,104,132
1,29,52,68
1,29,93,136
1,29,76,116
1,29,96,136
1,29,64,112
1,29,70,132
1,29,102,136
1,29,67,84
1,29,95,128
1,29,70,108
1,29,94,136
1,29,72,112
1,29,81,124
1,29,104,128
1,29,73,96
1,29,95,128
1,29,84,104
1,29,91,108
1,29,73,100
1,29,64,128
1,29,107,152
1,29,54,32
1,29,93,104
1,29,60,100
1,29,95,124
1,29,72,100
1,29,68,124
1,29,104,132
1,29,92,260
1,29,107,1056
1,29,93,96
1,29,60,100
1,29,95,124
1,29,72,100
1,29,68,124
1,29,104,132
1,29,52,68
1,29,93,136
1,29,76,116
1,29,96,136
1,29,64,112
1,29,70,132
1,29,102,136
1,29,67,84
1,29,95,128
1,29,70,108
1,29,94,136
1,29,72,112
1,29,81,124
1,29,104,128
1,29,73,96
1,29,95,128
1,29,84,104
1,29,91,108
1,29,73,100
1,29,64,128
1,29,107,152
1,29,54,32
1,29,93,104
1,29,60,100
1,29,95,124
1,29,72,100
1,29,68,124
1,29,104,132
1,29,52,68
1,29,93,136
1,29,76,116
1,29,96,136
1,29,64,112
1,29,70,132
1,29,102,136
1,29,67,84
1,29,95,128
1,29,70,108
1,29,94,136
1,29,72,112
1,29,81,124
1,29,104,128
1,29,60,96
1,29,93,124
1,29,60,100
1,29,95,124
1,29,72,100
1,29,68,124
1,29,104,132
1,31,93,96
1,31,93,68
1,26,93,76
1,29,81,52
1,31,88,84
1,33,98,68
1,31,81,152
1,28,84,48
1,24,78,24
1,34,87,476
1,32,87,32
1,29,87,32
1,26,88,0
1,34,82,252
1,33,82,0
1,36,82,0
1,40,82,0
1,45,84,0
1,45,92,192
1,31,89,144
1,38,89,32
1,31,57,152
1,31,73,104
1,32,80,192
1,33,83,72
1,36,58,4
1,40,83,112
1,45,90,84
1,40,92,76
1,34,100,244
1,33,98,140
1,31,99,272
1,29,103,1080
1,29,95,72
1,29,84,104
1,29,91,108
1,29,73,100
1,29,64,128
1,29,107,152
1,29,54,32
1,29,93,104
1,29,60,100
1,29,95,124
1,29,72,100
1,29,68,124
1,29,104,132
1,29,52,68
1,29,93,136
1,29,76,116
1,29,96,136
1,29,64,112
1,29,70,132
1,29,102,136
1,29,67,84
1,29,95,128
1,29,70,108
1,29,94,136
1,29,72,112
1,29,81,124
1,29,104,128
1,29,102,0
1,29,93,100
1,29,81,248
1,31,96,88
1,31,97,100
1,31,91,260
1,33,102,100
1,33,88,112
1,34,96,104
1,36,98,92
1,36,63,276
1,36,105,140
1,29,103,280
1,29,100,88
1,29,81,88
1,29,92,148
1,31,99,104
1,31,105,108
1,31,95,268
1,33,102,108
1,33,81,112
1,34,94,104
1,36,95,104
1,36,88,276
1,36,99,116
1,29,102,296
1,29,93,100
1,29,81,248
1,31,96,88
1,31,97,100
1,31,91,260
1,33,102,100
1,33,88,112
1,34,96,104
1,36,98,92
1,36,63,276
1,36,105,140
1,29,103,280
1,29,100,88
1,29,81,88
1,29,92,148
1,31,99,104
1,31,105,108
1,31,95,268
1,33,102,108
1,33,81,112
1,34,94,104
1,36,95,104
1,36,88,276
1,36,99,116
1,29,102,296
1,29,93,100
1,29,81,248
1,31,96,88
1,31,97,100
1,31,91,260
1,33,102,100
1,33,88,112
1,34,96,104
1,36,98,92
1,36,63,276
1,36,105,140
1,29,103,280
1,29,100,88
1,29,81,88
1,29,92,148
1,31,99,104
1,31,105,108
1,31,95,268
1,33,102,108
1,33,81,112
1,34,94,104
1,36,95,104
1,36,88,276
1,36,99,116
1,29,102,296
1,29,93,100
1,29,81,248
1,31,96,88
1,31,97,100
1,31,91,260
1,33,102,100
1,33,88,112
1,34,96,104
1,36,98,92
1,36,63,276
1,36,105,140
1,29,103,280
1,29,100,88
1,29,81,88
1,29,92,148
1,31,99,104
1,31,105,108
1,31,95,268
1,33,102,108
1,33,81,112
1,34,94,104
1,36,95,104
1,36,88,276
1,36,99,116
1,29,102,296
1,29,93,100
1,29,81,248
1,31,96,88
1,31,97,100
1,31,91,260
1,33,102,100
1,33,88,112
1,34,96,104
1,36,98,92
1,36,63,276
1,36,105,140
1,29,103,280
1,29,100,88
1,29,81,88
1,29,92,148
1,31,99,104
1,31,105,108
1,31,95,268
1,33,102,108
1,33,81,112
1,34,94,104
1,36,95,104
1,36,88,276
1,36,99,116
1,29,102,296
1,29,93,100
1,29,81,248
1,31,96,88
1,31,97,100
1,31,91,260
1,33,102,100
1,33,88,112
1,34,96,104
1,36,98,92
1,36,63,276
1,36,105,140
1,29,103,280
1,29,100,88
1,29,81,88
1,29,92,148
1,31,99,104
1,31,105,108
1,31,95,268
1,33,102,108
1,33,81,112
1,34,94,104
1,36,95,104
1,36,88,276
1,36,99,116
1,29,102,0
1,29,93,48
1,29,81,48
1,31,96,48
1,31,97,48
1,31,91,48
1,33,102,48
1,33,88,48
1,34,96,48
1,36,98,48
1,36,63,48
1,36,105,48
1,29,103,48
1,29,100,48
1,29,81,48
1,29,92,48
1,31,99,48
1,31,105,48
1,31,95,48
1,33,102,48
1,33,81,48
1,34,94,48
1,36,95,48
1,36,88,48
1,36,99,48
1,29,102,48
1,29,93,0
1,29,81,0
1,31,96,0
1,31,97,0
1,31,91,0
1,33,102,0
1,33,88,0
1,34,96,0
1,36,98,0
1,36,63,0
1,36,105,0
1,29,103,0
1,29,100,0
1,29,81,0
1,29,92,0
1,31,99,0
1,31,105,0
1,31,95,0
1,33,102,0
1,33,81,0
1,34,94,0
1,36,95,0
1,36,88,0
1,36,99,0
2,65,93,3976
2,60,90,0
2,57,95,0
2,65,85,488
2,57,89,0
2,60,82,0
2,65,89,12
2,58,91,0
2,62,75,0
2,58,65,124
2,65,58,0
2,62,50,0
2,65,76,136
2,62,64,0
2,58,69,0
2,65,97,92
2,57,97,0
2,60,91,0
2,65,84,480
2,57,88,0
2,60,75,0
2,62,83,8
2,65,88,0
2,58,86,0
2,58,76,128
2,65,69,0
2,62,66,0
2,65,71,132
2,62,62,0
2,58,67,0
2,65,97,116
2,57,99,0
2,60,94,0
2,57,89,492
2,65,84,0
2,60,82,0
2,62,84,56
2,65,86,0
2,58,89,0
2,65,55,120
2,62,53,0
2,58,51,0
2,65,60,132
2,62,57,0
2,58,61,0
2,65,93,92
2,57,95,0
2,60,88,0
2,65,85,480
2,57,89,0
2,60,82,0
2,65,89,12
2,58,91,0
2,62,75,0
2,58,65,124
2,65,58,0
2,62,50,0
2,65,76,136
2,62,64,0
2,58,69,0
2,65,97,92
2,57,97,0
2,60,91,0
2,65,84,480
2,57,88,0
2,60,75,0
2,62,83,8
2,65,88,0
2,58,86,0
2,58,76,128
2,65,69,0
2,62,66,0
2,65,71,132
2,62,62,0
2,58,67,0
2,65,97,116
2,57,99,0
2,60,94,0
2,57,89,492
2,65,84,0
2,60,82,0
2,62,84,56
2,65,86,0
2,58,89,0
2,65,55,120
2,62,53,0
2,58,51,0
2,65,60,132
2,62,57,0
2,58,61,0
2,65,93,92
2,57,95,0
2,60,88,0
2,65,85,480
2,57,89,0
2,60,82,0
2,65,89,12
2,58,91,0
2,62,75,0
2,58,65,124
2,65,58,0
2,62,50,0
2,65,76,136
2,62,64,0
2,58,69,0
2,65,97,92
2,57,97,0
2,60,91,0
2,65,84,480
2,57,88,0
2,60,75,0
2,62,83,8
2,65,88,0
2,58,86,0
2,58,76,128
2,65,69,0
2,62,66,0
2,65,71,132
2,62,62,0
2,58,67,0
2,65,97,116
2,57,99,0
2,60,94,0
2,57,89,492
2,65,84,0
2,60,82,0
2,62,84,56
2,65,86,0
2,58,89,0
2,65,55,120
2,62,53,0
2,58,51,0
2,65,60,132
2,62,57,0
2,58,61,0
2,65,93,92
2,57,95,0
2,60,88,0
2,65,85,480
2,57,89,0
2,60,82,0
2,65,89,12
2,58,91,0
2,62,75,0
2,58,65,124
2,65,58,0
2,62,50,0
2,65,76,136
2,62,64,0
2,58,69,0
2,65,97,92
2,57,97,0
2,60,91,0
2,65,84,480
2,57,88,0
2,60,75,0
2,62,83,8
2,65,88,0
2,58,86,0
2,58,76,128
2,65,69,0
2,62,66,0
2,65,71,132
2,62,62,0
2,58,67,0
2,65,97,116
2,57,99,0
2,60,94,0
2,57,89,492
2,65,84,0
2,60,82,0
2,62,84,56
2,65,86,0
2,58,89,0
2,65,55,120
2,62,53,0
2,58,51,0
2,65,60,132
2,62,57,0
2,58,61,0
2,65,93,92
2,57,95,0
2,60,88,0
2,65,85,480
2,57,89,0
2,60,82,0
2,65,89,12
2,58,91,0
2,62,75,0
2,58,65,124
2,65,58,0
2,62,50,0
2,65,76,136
2,62,64,0
2,58,69,0
2,65,97,92
2,57,97,0
2,60,91,0
2,65,84,480
2,57,88,0
2,60,75,0
2,62,83,8
2,65,88,0
2,58,86,0
2,58,76,128
2,65,69,0
2,62,66,0
2,65,71,132
2,62,62,0
2,58,67,0
2,65,97,116
2,57,99,0
2,60,94,0
2,57,89,492
2,65,84,0
2,60,82,0
2,62,84,56
2,65,86,0
2,58,89,0
2,65,55,120
2,62,53,0
2,58,51,0
2,65,60,132
2,62,57,0
2,58,61,0
2,65,93,92
2,57,95,0
2,60,88,0
2,65,85,384
2,57,89,0
2,60,82,0
2,60,95,0
2,65,95,0
2,57,95,0
2,65,94,332
2,57,98,0
2,60,85,0
2,60,63,8
2,65,68,0
2,57,66,0
2,57,96,128
2,65,89,0
2,60,86,0
2,65,71,132
2,60,62,0
2,57,67,0
