track,note,velocity,time
1,35,113,1536
1,35,100,45
1,35,109,100
1,35,96,68
1,35,92,77
1,35,92,64
1,35,96,112
1,35,96,64
1,35,105,96
1,35,109,80
1,35,100,68
1,35,109,80
1,35,96,103
1,35,92,71
1,35,96,71
1,35,109,90
1,35,118,84
1,35,96,90
1,35,92,61
1,35,100,64
1,35,100,90
1,35,92,55
1,35,109,84
1,35,113,71
1,47,113,64
1,45,113,192
1,42,113,10
1,35,127,42
1,33,122,218
1,30,127,196
1,28,127,192
1,33,127,420
1,35,127,192
1,38,127,407
1,35,127,192
1,33,127,596
1,35,127,192
1,30,127,90
1,33,127,84
1,35,127,16
1,33,127,68
1,35,122,192
1,38,127,384
1,35,127,192
1,38,127,599
1,40,122,192
1,35,127,58
1,38,127,7
1,40,127,32
1,33,127,183
1,35,127,192
1,38,127,407
1,35,127,192
1,33,127,596
1,35,127,192
1,30,127,90
1,33,127,84
1,35,127,16
1,33,127,68
1,35,122,192
1,38,127,384
1,35,127,192
1,38,127,599
1,40,122,192
1,35,127,58
1,38,127,7
1,40,127,32
1,33,127,183
1,35,127,192
1,38,127,407
1,35,127,192
1,33,127,596
1,35,127,192
1,30,127,90
1,33,127,84
1,35,127,16
1,33,127,68
1,35,122,192
1,38,127,384
1,35,127,192
1,38,127,599
1,40,122,192
1,35,127,58
1,38,127,7
1,40,127,32
1,35,113,183
1,35,100,64
1,35,100,64
1,35,105,64
1,35,105,74
1,35,105,90
1,35,109,61
1,35,109,77
1,35,105,100
1,35,92,80
1,35,109,64
1,35,105,58
1,35,109,90
1,35,109,68
1,35,109,90
1,35,113,74
1,35,109,77
1,35,105,80
1,35,113,74
1,35,109,68
1,35,113,68
1,35,113,87
1,35,109,80
1,35,109,64
1,35,100,80
1,35,96,71
1,35,100,90
1,35,113,90
1,35,127,119
1,40,122,10
1,38,113,20
1,35,122,192
1,40,127,16
1,35,122,109
1,35,122,196
1,35,113,266
1,35,105,208
1,33,109,0
1,35,96,20
1,35,113,215
1,35,109,228
1,47,105,192
1,35,105,183
1,35,113,122
1,35,113,247
1,35,122,266
1,35,113,221
1,33,127,29
1,40,127,48
1,35,118,32
1,35,109,474
1,47,96,42
1,35,92,4
1,35,100,119
1,35,118,64
1,35,113,244
1,35,118,112
1,35,100,224
1,35,118,122
1,35,118,141
1,35,113,266
1,35,113,256
1,40,122,13
1,33,127,394
1,35,127,192
1,38,127,407
1,35,127,192
1,33,127,596
1,35,127,192
1,30,127,90
1,33,127,84
1,35,127,16
1,33,127,68
1,35,122,192
1,38,127,384
1,35,127,192
1,38,127,599
1,40,122,192
1,35,127,58
1,38,127,7
1,40,127,32
1,33,127,183
1,35,127,192
1,38,127,407
1,35,127,192
1,33,127,596
1,35,127,192
1,30,127,90
1,33,127,84
1,35,127,16
1,33,127,68
1,35,122,192
1,38,127,384
1,35,127,192
1,38,127,599
1,40,122,192
1,35,127,58
1,38,127,7
1,40,127,32
1,33,127,183
1,35,127,192
1,38,127,407
1,35,127,192
1,33,127,596
1,35,127,192
1,30,127,90
1,33,127,84
1,35,127,16
1,33,127,68
1,35,122,192
1,38,127,384
1,35,127,192
1,38,127,599
1,40,122,192
1,35,127,58
1,38,127,7
1,40,127,32
1,33,127,183
1,35,127,192
1,38,127,407
1,35,127,192
1,33,127,596
1,35,127,192
1,30,127,90
1,33,127,84
1,35,127,16
1,33,127,68
1,35,122,192
1,38,127,384
1,35,127,192
1,38,127,599
1,40,122,192
1,35,127,58
1,38,127,7
1,40,127,32
1,33,127,183
1,35,127,192
1,38,127,407
1,35,127,192
1,33,127,596
1,35,127,192
1,30,127,90
1,33,127,84
1,35,127,16
1,33,127,68
1,35,122,192
1,38,127,384
1,35,127,192
1,35,127,407
1,40,122,10
1,38,113,20
1,35,122,192
1,40,127,16
1,35,122,109
1,35,122,196
1,35,113,266
1,35,105,208
1,33,109,0
1,35,96,20
1,35,113,215
1,35,109,228
1,47,105,192
1,35,105,183
1,35,113,122
1,35,113,247
1,35,122,266
1,35,113,221
1,33,127,29
1,40,127,48
1,35,118,32
1,35,109,474
1,47,96,42
1,35,92,4
1,35,100,119
1,35,118,64
1,35,113,244
1,35,118,112
1,35,100,224
1,35,118,122
1,35,118,141
1,35,113,266
1,35,113,256
1,40,127,13
1,35,113,71
1,35,100,45
1,35,109,100
1,35,96,68
1,35,92,77
1,35,92,64
1,35,96,112
1,35,96,64
1,35,105,96
1,35,109,80
1,35,100,68
1,35,109,80
1,35,96,103
1,35,92,71
1,35,96,71
1,35,109,90
1,35,118,84
1,35,96,90
1,35,92,61
1,35,100,64
1,35,100,90
1,35,92,55
1,35,109,84
1,35,113,71
1,35,105,64
1,35,109,80
1,35,100,68
1,35,109,80
1,35,96,103
1,35,92,71
1,35,96,71
1,35,109,90
1,35,113,84
1,35,100,45
1,35,109,100
1,35,96,68
1,35,92,77
1,35,92,64
1,35,96,112
1,35,96,64
1,35,105,96
1,35,109,80
1,35,100,68
1,35,109,80
1,35,96,103
1,35,92,71
1,35,96,71
1,35,109,90
1,35,118,84
1,35,96,90
1,35,92,61
1,35,100,64
1,35,100,90
1,35,92,55
1,35,109,84
1,35,113,71
1,47,113,64
1,45,113,192
1,42,113,10
1,35,127,42
1,33,122,218
1,30,127,196
1,28,127,192
1,33,127,420
1,35,127,192
1,38,127,407
1,35,127,192
1,33,127,596
1,35,127,192
1,30,127,90
1,33,127,84
1,35,127,16
1,33,127,68
1,35,122,192
1,38,127,384
1,35,127,192
1,38,127,599
1,40,122,192
1,35,127,58
1,38,127,7
1,40,127,32
1,33,127,183
1,35,127,192
1,38,127,407
1,35,127,192
1,33,127,596
1,35,127,192
1,30,127,90
1,33,127,84
1,35,127,16
1,33,127,68
1,35,122,192
1,38,127,384
1,35,127,192
1,38,127,599
1,40,122,192
1,35,127,58
1,38,127,7
1,40,127,32
1,33,127,183
1,35,127,192
1,38,127,407
1,35,127,192
1,33,127,596
1,35,127,192
1,30,127,90
1,33,127,84
1,35,127,16
1,33,127,68
1,35,122,192
1,38,127,384
1,35,127,192
1,38,127,599
1,40,122,192
1,35,127,58
1,38,127,7
1,40,127,32
1,33,127,183
1,35,127,192
1,38,127,407
1,35,127,192
1,33,127,596
1,35,127,192
1,30,127,90
1,33,127,84
1,35,127,16
1,33,127,68
1,35,122,192
1,38,127,384
1,35,127,192
1,38,127,599
1,40,122,192
1,35,127,58
1,38,127,7
1,40,127,32
1,35,113,183
1,35,100,64
1,35,100,64
1,35,105,64
1,35,105,74
1,35,105,90
1,35,109,61
1,35,109,77
1,35,105,100
1,35,92,80
1,35,109,64
1,35,105,58
1,35,109,90
1,35,109,68
1,35,109,90
1,35,113,74
1,35,109,77
1,35,105,80
1,35,113,74
1,35,109,68
1,35,113,68
1,35,113,87
1,35,109,80
1,35,109,64
1,35,100,80
1,35,96,71
1,35,100,90
1,35,113,90
1,35,127,119
1,40,122,10
1,38,113,20
1,35,122,192
1,40,127,16
1,35,122,109
1,35,122,196
1,35,113,266
1,35,105,208
1,33,109,0
1,35,96,20
1,35,113,215
1,35,109,228
1,47,105,192
1,35,105,183
1,35,113,122
1,35,113,247
1,35,122,266
1,35,113,221
1,33,127,29
1,40,127,48
1,35,118,32
1,35,109,474
1,47,96,42
1,35,92,4
1,35,100,119
1,35,118,64
1,35,113,244
1,35,118,112
1,35,100,224
1,35,118,122
1,35,118,141
1,35,113,266
1,35,113,256
1,40,122,13
1,33,127,394
1,35,127,192
1,38,127,407
1,35,127,192
1,33,127,596
1,35,127,192
1,30,127,90
1,33,127,84
1,35,127,16
1,33,127,68
1,35,122,192
1,38,127,384
1,35,127,192
1,38,127,599
1,40,122,192
1,35,127,58
1,38,127,7
1,40,127,32
1,33,127,183
1,35,127,192
1,38,127,407
1,35,127,192
1,33,127,596
1,35,127,192
1,30,127,90
1,33,127,84
1,35,127,16
1,33,127,68
1,35,122,192
1,38,127,384
1,35,127,192
1,38,127,599
1,40,122,192
1,35,127,58
1,38,127,7
1,40,127,32
1,33,127,183
1,35,127,192
1,38,127,407
1,35,127,192
1,33,127,596
1,35,127,192
1,30,127,90
1,33,127,84
1,35,127,16
1,33,127,68
1,35,122,192
1,38,127,384
1,35,127,192
1,38,127,599
1,40,122,192
1,35,127,58
1,38,127,7
1,40,127,32
1,33,127,183
1,35,127,192
1,38,127,407
1,35,127,192
1,33,127,596
1,35,127,192
1,30,127,90
1,33,127,84
1,35,127,16
1,35,127,68
1,33,127,192
1,35,127,4
1,38,127,7
1,35,127,215
1,38,127,189
1,40,127,39
2,47,113,1536
2,47,100,45
2,47,109,100
2,47,96,68
2,47,92,77
2,47,92,64
2,47,96,112
2,47,96,64
2,47,105,96
2,47,109,80
2,47,100,68
2,47,109,80
2,47,96,103
2,47,92,71
2,47,96,71
2,47,109,90
2,47,118,84
2,47,96,90
2,47,92,61
2,47,100,64
2,47,100,90
2,47,92,55
2,47,109,84
2,47,113,71
2,59,113,64
2,57,113,192
2,54,113,10
2,47,127,42
2,45,122,218
2,42,127,196
2,40,127,192
2,45,127,420
2,47,127,192
2,50,127,407
2,47,127,192
2,45,127,596
2,47,127,192
2,42,127,90
2,45,127,84
2,47,127,16
2,45,127,68
2,47,122,192
2,50,127,384
2,47,127,192
2,50,127,599
2,52,122,192
2,47,127,58
2,50,127,7
2,52,127,32
2,45,127,183
2,47,127,192
2,50,127,407
2,47,127,192
2,45,127,596
2,47,127,192
2,42,127,90
2,45,127,84
2,47,127,16
2,45,127,68
2,47,122,192
2,50,127,384
2,47,127,192
2,50,127,599
2,52,122,192
2,47,127,58
2,50,127,7
2,52,127,32
2,45,127,183
2,47,127,192
2,50,127,407
2,47,127,192
2,45,127,596
2,47,127,192
2,42,127,90
2,45,127,84
2,47,127,16
2,45,127,68
2,47,122,192
2,50,127,384
2,47,127,192
2,50,127,599
2,52,122,192
2,47,127,58
2,50,127,7
2,52,127,32
2,47,113,183
2,47,100,64
2,47,100,64
2,47,105,64
2,47,105,74
2,47,105,90
2,47,109,61
2,47,109,77
2,47,105,100
2,47,92,80
2,47,109,64
2,47,105,58
2,47,109,90
2,47,109,68
2,47,109,90
2,47,113,74
2,47,109,77
2,47,105,80
2,47,113,74
2,47,109,68
2,47,113,68
2,47,113,87
2,47,109,80
2,47,109,64
2,47,100,80
2,47,96,71
2,47,100,90
2,47,113,90
2,47,127,119
2,52,122,10
2,50,113,20
2,47,122,192
2,52,127,16
2,47,122,109
2,47,122,196
2,47,113,266
2,47,105,208
2,45,109,0
2,47,96,20
2,47,113,215
2,47,109,228
2,59,105,192
2,47,105,183
2,47,113,122
2,47,113,247
2,47,122,266
2,47,113,221
2,45,127,29
2,52,127,48
2,47,118,32
2,47,109,474
2,59,96,42
2,47,92,4
2,47,100,119
2,47,118,64
2,47,113,244
2,47,118,112
2,47,100,224
2,47,118,122
2,47,118,141
2,47,113,266
2,47,113,256
2,52,122,13
2,45,127,394
2,47,127,192
2,50,127,407
2,47,127,192
2,45,127,596
2,47,127,192
2,42,127,90
2,45,127,84
2,47,127,16
2,45,127,68
2,47,122,192
2,50,127,384
2,47,127,192
2,50,127,599
2,52,122,192
2,47,127,58
2,50,127,7
2,52,127,32
2,45,127,183
2,47,127,192
2,50,127,407
2,47,127,192
2,45,127,596
2,47,127,192
2,42,127,90
2,45,127,84
2,47,127,16
2,45,127,68
2,47,122,192
2,50,127,384
2,47,127,192
2,50,127,599
2,52,122,192
2,47,127,58
2,50,127,7
2,52,127,32
2,45,127,183
2,47,127,192
2,50,127,407
2,47,127,192
2,45,127,596
2,47,127,192
2,42,127,90
2,45,127,84
2,47,127,16
2,45,127,68
2,47,122,192
2,50,127,384
2,47,127,192
2,50,127,599
2,52,122,192
2,47,127,58
2,50,127,7
2,52,127,32
2,45,127,183
2,47,127,192
2,50,127,407
2,47,127,192
2,45,127,596
2,47,127,192
2,42,127,90
2,45,127,84
2,47,127,16
2,45,127,68
2,47,122,192
2,50,127,384
2,47,127,192
2,50,127,599
2,52,122,192
2,47,127,58
2,50,127,7
2,52,127,32
2,45,127,183
2,47,127,192
2,50,127,407
2,47,127,192
2,45,127,596
2,47,127,192
2,42,127,90
2,45,127,84
2,47,127,16
2,45,127,68
2,47,122,192
2,50,127,384
2,47,127,192
2,47,127,407
2,52,122,10
2,50,113,20
2,47,122,192
2,52,127,16
2,47,122,109
2,47,122,196
2,47,113,266
2,47,105,208
2,45,109,0
2,47,96,20
2,47,113,215
2,47,109,228
2,59,105,192
2,47,105,183
2,47,113,122
2,47,113,247
2,47,122,266
2,47,113,221
2,45,127,29
2,52,127,48
2,47,118,32
2,47,109,474
2,59,96,42
2,47,92,4
2,47,100,119
2,47,118,64
2,47,113,244
2,47,118,112
2,47,100,224
2,47,118,122
2,47,118,141
2,47,113,266
2,47,113,256
2,52,127,13
2,47,113,71
2,47,100,45
2,47,109,100
2,47,96,68
2,47,92,77
2,47,92,64
2,47,96,112
2,47,96,64
2,47,105,96
2,47,109,80
2,47,100,68
2,47,109,80
2,47,96,103
2,47,92,71
2,47,96,71
2,47,109,90
2,47,118,84
2,47,96,90
2,47,92,61
2,47,100,64
2,47,100,90
2,47,92,55
2,47,109,84
2,47,113,71
2,47,105,64
2,47,109,80
2,47,100,68
2,47,109,80
2,47,96,103
2,47,92,71
2,47,96,71
2,47,109,90
2,47,113,84
2,47,100,45
2,47,109,100
2,47,96,68
2,47,92,77
2,47,92,64
2,47,96,112
2,47,96,64
2,47,105,96
2,47,109,80
2,47,100,68
2,47,109,80
2,47,96,103
2,47,92,71
2,47,96,71
2,47,109,90
2,47,118,84
2,47,96,90
2,47,92,61
2,47,100,64
2,47,100,90
2,47,92,55
2,47,109,84
2,47,113,71
2,59,113,64
2,57,113,192
2,54,113,10
2,47,127,42
2,45,122,218
2,42,127,196
2,40,127,192
2,45,127,420
2,47,127,192
2,50,127,407
2,47,127,192
2,45,127,596
2,47,127,192
2,42,127,90
2,45,127,84
2,47,127,16
2,45,127,68
2,47,122,192
2,50,127,384
2,47,127,192
2,50,127,599
2,52,122,192
2,47,127,58
2,50,127,7
2,52,127,32
2,45,127,183
2,47,127,192
2,50,127,407
2,47,127,192
2,45,127,596
2,47,127,192
2,42,127,90
2,45,127,84
2,47,127,16
2,45,127,68
2,47,122,192
2,50,127,384
2,47,127,192
2,50,127,599
2,52,122,192
2,47,127,58
2,50,127,7
2,52,127,32
2,45,127,183
2,47,127,192
2,50,127,407
2,47,127,192
2,45,127,596
2,47,127,192
2,42,127,90
2,45,127,84
2,47,127,16
2,45,127,68
2,47,122,192
2,50,127,384
2,47,127,192
2,50,127,599
2,52,122,192
2,47,127,58
2,50,127,7
2,52,127,32
2,45,127,183
2,47,127,192
2,50,127,407
2,47,127,192
2,45,127,596
2,47,127,192
2,42,127,90
2,45,127,84
2,47,127,16
2,45,127,68
2,47,122,192
2,50,127,384
2,47,127,192
2,50,127,599
2,52,122,192
2,47,127,58
2,50,127,7
2,52,127,32
2,47,113,183
2,47,100,64
2,47,100,64
2,47,105,64
2,47,105,74
2,47,105,90
2,47,109,61
2,47,109,77
2,47,105,100
2,47,92,80
2,47,109,64
2,47,105,58
2,47,109,90
2,47,109,68
2,47,109,90
2,47,113,74
2,47,109,77
2,47,105,80
2,47,113,74
2,47,109,68
2,47,113,68
2,47,113,87
2,47,109,80
2,47,109,64
2,47,100,80
2,47,96,71
2,47,100,90
2,47,113,90
2,47,127,119
2,52,122,10
2,50,113,20
2,47,122,192
2,52,127,16
2,47,122,109
2,47,122,196
2,47,113,266
2,47,105,208
2,45,109,0
2,47,96,20
2,47,113,215
2,47,109,228
2,59,105,192
2,47,105,183
2,47,113,122
2,47,113,247
2,47,122,266
2,47,113,221
2,45,127,29
2,52,127,48
2,47,118,32
2,47,109,474
2,59,96,42
2,47,92,4
2,47,100,119
2,47,118,64
2,47,113,244
2,47,118,112
2,47,100,224
2,47,118,122
2,47,118,141
2,47,113,266
