track,note,velocity,time
1,36,90,1536
1,40,99,384
1,36,0,8
1,40,0,372
1,36,90,4
1,36,0,116
1,36,89,76
1,40,100,192
1,36,0,8
1,36,94,184
1,40,0,16
1,36,0,184
1,36,88,184
1,36,0,180
1,40,100,12
1,40,0,380
1,36,78,4
1,36,0,124
1,36,85,68
1,36,0,192
1,40,103,0
1,40,0,184
1,36,93,8
1,36,0,100
1,36,94,92
1,40,106,384
1,36,0,20
1,40,0,316
1,36,84,48
1,36,0,112
1,36,85,80
1,36,0,184
1,40,99,8
1,40,0,164
1,36,92,28
1,36,0,140
1,36,84,244
1,36,0,176
1,40,100,16
1,40,0,164
1,36,69,28
1,36,0,88
1,36,93,104
1,36,0,96
1,36,79,96
1,36,0,184
1,40,92,8
1,40,0,192
1,36,81,0
1,36,0,88
1,53,119,88
1,36,96,16
1,53,0,212
1,36,0,92
1,53,119,68
1,40,103,12
1,40,0,152
1,53,0,48
1,53,117,172
1,36,86,12
1,36,0,92
1,36,89,100
1,53,0,20
1,36,0,132
1,53,114,20
1,55,114,4
1,40,97,16
1,55,0,88
1,40,0,84
1,36,96,20
1,53,0,32
1,36,0,124
1,53,115,16
1,36,84,212
1,53,0,52
1,40,103,140
1,53,117,4
1,36,0,8
1,53,0,204
1,40,0,64
1,53,117,92
1,36,85,12
1,36,0,104
1,36,88,88
1,53,0,16
1,36,0,160
1,53,117,4
1,40,97,12
1,40,0,152
1,36,53,40
1,53,0,32
1,36,0,64
1,53,114,68
1,36,93,28
1,53,0,220
1,36,0,64
1,53,114,80
1,40,108,20
1,40,0,200
1,53,0,28
1,53,117,152
1,36,90,4
1,36,0,88
1,36,78,104
1,53,0,16
1,36,0,160
1,53,114,0
1,40,103,16
1,40,0,112
1,36,93,80
1,53,0,20
1,36,0,76
1,53,114,76
1,36,96,20
1,36,0,152
1,53,0,60
1,40,102,172
1,53,119,8
1,40,0,96
1,36,84,88
1,53,0,24
1,36,0,64
1,36,89,104
1,53,114,12
1,36,0,72
1,36,84,108
1,53,0,28
1,36,0,128
1,40,100,36
1,53,114,12
1,40,0,112
1,36,99,68
1,53,0,24
1,36,0,80
1,53,114,80
1,36,86,200
1,53,0,28
1,36,0,136
1,40,97,28
1,53,114,12
1,40,0,120
1,36,88,60
1,53,0,24
1,36,0,56
1,53,115,104
1,36,86,8
1,36,0,80
1,36,80,112
1,53,0,16
1,40,100,176
1,36,0,8
1,53,117,0
1,40,0,144
1,36,74,40
1,53,0,40
1,36,0,48
1,36,90,104
1,53,114,8
1,53,0,204
1,40,99,172
1,36,0,8
1,53,114,0
1,53,0,208
1,40,0,164
1,36,90,4
1,53,114,8
1,36,0,108
1,36,89,76
1,53,0,8
1,53,108,172
1,40,100,12
1,36,0,8
1,53,0,180
1,36,94,4
1,40,0,16
1,53,111,160
1,36,0,24
1,53,0,184
1,36,88,0
1,36,0,180
1,53,114,8
1,40,100,4
1,53,0,204
1,40,0,176
1,36,78,4
1,53,111,0
1,36,0,124
1,53,0,60
1,36,85,8
1,53,106,168
1,36,0,24
1,40,103,0
1,40,0,184
1,53,0,8
1,36,93,0
1,36,0,100
1,53,114,80
1,36,94,12
1,53,0,192
1,53,109,172
1,40,106,20
1,36,0,20
1,53,0,160
1,40,0,156
1,53,112,36
1,36,84,12
1,36,0,112
1,53,0,80
1,36,85,0
1,53,112,176
1,36,0,8
1,40,99,8
1,40,0,164
1,53,0,28
1,36,92,0
1,36,0,140
1,53,114,44
1,36,84,200
1,53,0,24
1,36,0,152
1,40,100,16
1,53,114,4
1,40,0,160
1,36,69,28
1,53,0,4
1,36,0,84
1,53,114,92
1,36,93,12
1,36,0,96
1,53,0,80
1,36,79,16
1,53,112,160
1,36,0,24
1,40,92,8
1,53,0,188
1,40,0,4
1,36,81,0
1,36,0,88
1,53,112,68
1,36,96,36
1,53,0,164
1,36,0,140
1,53,112,44
1,40,103,36
1,40,0,152
1,53,0,28
1,53,114,188
1,36,86,16
1,36,0,92
1,53,0,76
1,36,89,24
1,36,0,152
1,53,109,16
1,40,97,24
1,40,0,172
1,53,0,0
1,36,96,20
1,36,0,156
1,53,112,20
1,36,84,208
1,53,0,24
1,40,103,168
1,53,115,0
1,36,0,12
1,53,0,184
1,40,0,84
1,36,85,104
1,53,106,16
1,36,0,88
1,36,88,88
1,53,0,24
1,36,0,152
1,40,97,16
1,53,114,16
1,40,0,136
1,36,53,40
1,53,0,28
1,36,0,68
1,36,93,96
1,53,109,0
1,53,0,208
1,36,0,76
1,40,108,100
1,53,114,12
1,40,0,188
1,53,0,20
1,36,90,164
1,53,111,8
1,36,0,80
1,36,78,104
1,53,0,8
1,36,0,168
1,40,103,16
1,53,112,0
1,40,0,112
1,36,93,80
1,53,0,4
1,36,0,92
1,53,111,84
1,36,96,12
1,36,0,152
1,53,0,36
1,53,109,184
1,40,102,12
1,40,0,104
1,36,84,88
1,53,0,20
1,36,0,68
1,36,89,104
1,53,114,0
1,36,0,84
1,36,84,108
1,53,0,16
1,36,0,140
1,53,114,28
1,40,100,8
1,40,0,124
1,36,99,68
1,53,0,20
1,36,0,84
1,53,108,96
1,36,86,184
1,53,0,32
1,36,0,132
1,40,97,28
1,53,112,16
1,40,0,116
1,36,88,60
1,53,0,32
1,36,0,48
1,36,86,112
1,53,115,12
1,36,0,68
1,36,80,112
1,53,0,40
1,40,100,152
1,53,108,4
1,36,0,4
1,40,0,144
1,36,74,40
1,53,0,4
1,36,0,84
1,53,117,100
1,36,89,4
1,36,90,0
1,36,0,104
1,53,0,120
1,40,99,160
1,53,112,0
1,36,0,8
1,53,0,208
1,40,0,164
1,36,90,4
1,53,114,4
1,36,0,112
1,53,0,76
1,36,89,0
1,53,112,184
1,40,100,8
1,36,0,8
1,36,94,184
1,40,0,16
1,53,0,0
1,53,112,164
1,36,0,20
1,36,88,184
1,53,0,20
1,36,0,160
1,53,112,0
1,40,100,12
1,53,0,200
1,53,111,164
1,40,0,16
1,36,78,4
1,36,0,124
1,36,85,68
1,53,0,24
1,36,0,168
1,40,103,0
1,53,112,0
1,40,0,184
1,36,93,8
1,53,0,8
1,36,0,92
1,53,112,84
1,36,94,8
1,53,0,224
1,40,106,160
1,36,0,20
1,53,114,4
1,53,0,196
1,40,0,116
1,36,84,48
1,53,117,36
1,36,0,76
1,36,85,80
1,53,0,68
1,36,0,116
1,40,99,8
1,53,111,20
1,40,0,144
1,36,92,28
1,53,0,48
1,36,0,92
1,53,115,60
1,36,84,184
1,53,0,36
1,36,0,140
1,40,100,16
1,53,112,4
1,40,0,160
1,36,69,28
1,53,0,12
1,36,0,76
1,36,93,104
1,53,117,4
1,36,0,92
1,36,79,96
1,53,0,16
1,36,0,168
1,40,92,8
1,53,115,0
1,40,0,192
1,36,81,0
1,53,0,8
1,36,0,80
1,53,114,88
1,36,96,16
1,53,0,224
1,36,0,80
1,40,103,80
1,53,112,8
1,40,0,144
1,53,0,48
1,53,114,180
1,36,86,4
1,36,0,92
1,36,89,100
1,53,0,4
1,36,0,148
1,53,114,36
1,40,97,4
1,40,0,172
1,36,96,20
1,53,0,12
1,36,0,144
1,53,115,24
1,53,0,204
1,36,84,0
1,40,103,192
1,53,112,0
1,36,0,12
1,53,0,192
1,40,0,76
1,36,85,104
1,53,115,12
1,36,0,92
1,36,88,88
1,53,0,4
1,53,108,164
1,36,0,8
1,40,97,16
1,40,0,152
1,53,0,32
1,36,53,8
1,36,0,96
1,36,93,96
1,53,117,8
1,53,0,248
1,36,0,28
1,40,108,100
1,53,115,28
1,40,0,172
1,53,0,12
1,36,90,172
1,53,114,16
1,36,0,72
1,36,78,104
1,53,0,40
1,36,0,136
1,40,103,16
1,53,112,12
1,40,0,100
1,36,93,80
1,53,0,12
1,36,0,84
1,36,96,96
1,53,117,0
1,36,0,152
1,53,0,84
1,40,102,148
1,53,114,16
1,40,0,88
1,36,84,88
1,53,0,12
1,36,0,76
1,36,89,104
1,53,114,12
1,36,0,72
1,36,84,108
1,53,0,32
1,36,0,124
1,53,105,32
1,40,100,4
1,40,0,124
1,36,99,68
1,53,0,8
1,36,0,96
1,53,114,76
1,36,86,204
1,53,0,4
1,36,0,160
1,53,115,20
1,40,97,8
1,40,0,132
1,53,0,60
1,36,88,0
1,36,0,80
1,53,111,104
1,36,86,8
1,36,0,80
1,53,0,100
1,36,80,12
1,53,112,184
1,40,100,8
1,36,0,8
1,40,0,144
1,36,74,40
1,53,0,4
1,36,0,84
1,53,114,96
1,36,90,8
1,53,0,204
1,53,115,172
1,40,99,8
1,36,0,8
1,53,0,148
1,40,0,224
1,36,90,4
1,53,114,12
1,36,0,104
1,53,0,56
1,36,89,20
1,53,108,180
1,40,100,12
1,36,0,8
1,53,0,180
1,36,94,4
1,40,0,16
1,53,109,152
1,36,0,32
1,36,88,184
1,53,0,12
1,36,0,168
1,53,112,4
1,40,100,8
1,53,0,204
1,40,0,176
1,36,78,4
1,53,115,8
1,36,0,116
1,53,0,60
1,36,85,8
1,36,0,192
1,40,103,0
1,53,111,0
1,40,0,184
1,53,0,4
1,36,93,4
1,36,0,100
1,36,94,92
1,53,115,0
1,53,0,204
1,40,106,180
1,53,112,12
1,36,0,8
1,53,0,188
1,40,0,128
1,36,84,48
1,53,117,28
1,36,0,84
1,36,85,80
1,53,0,8
1,36,0,176
1,40,99,8
1,53,112,0
1,40,0,164
1,53,0,12
1,36,92,16
1,36,0,140
1,53,115,40
1,36,84,204
1,53,0,12
1,36,0,164
1,40,100,16
1,53,114,4
1,40,0,160
1,36,69,28
1,53,0,12
1,36,0,76
1,36,93,104
1,53,115,8
1,36,0,88
1,36,79,96
1,53,0,4
1,36,0,180
1,53,111,4
1,40,92,4
1,53,0,160
1,40,0,32
1,36,81,0
1,36,0,88
1,36,96,104
1,53,115,0
1,53,0,188
1,36,0,116
1,53,112,76
1,40,103,4
1,40,0,152
1,53,0,20
1,36,86,212
1,53,112,12
1,36,0,80
1,53,0,76
1,36,89,24
1,36,0,152
1,53,108,16
1,40,97,24
1,40,0,172
1,53,0,12
1,36,96,8
1,36,0,156
1,53,117,24
1,53,0,168
1,36,84,36
1,40,103,192
1,53,115,0
1,36,0,12
1,53,0,176
1,40,0,92
1,36,85,104
1,53,114,4
1,36,0,100
1,36,88,88
1,53,0,4
1,36,0,172
1,40,97,16
1,53,112,0
1,40,0,152
1,36,53,40
1,53,0,8
1,36,0,88
1,53,111,84
1,36,93,12
1,53,0,196
1,36,0,88
1,40,108,100
1,53,111,8
1,53,0,192
1,40,0,0
1,36,90,184
1,53,112,0
1,36,0,88
1,36,78,104
1,53,0,20
1,36,0,156
1,40,103,16
1,53,112,16
1,40,0,96
1,36,93,80
1,53,0,32
1,36,0,64
1,36,96,96
1,53,111,0
1,36,0,152
1,53,0,48
1,40,102,184
1,53,114,16
1,40,0,88
1,53,0,88
1,36,84,0
1,36,0,88
1,53,112,92
1,36,89,12
1,36,0,84
1,53,0,88
1,36,84,20
1,36,0,156
1,53,112,16
1,40,100,20
1,40,0,124
1,53,0,32
1,36,99,36
1,36,0,104
1,53,112,72
1,53,0,176
1,36,86,32
1,36,0,164
1,53,114,12
1,40,97,16
1,40,0,132
1,53,0,56
1,36,88,4
1,36,0,80
1,53,111,92
1,36,86,20
1,36,0,80
1,53,0,88
1,36,80,24
1,53,112,176
1,40,100,16
1,36,0,8
1,40,0,144
1,53,0,16
1,36,74,24
1,36,0,88
1,53,115,100
1,36,90,4
1,53,0,172
1,40,99,212
1,36,0,8
1,53,115,0
1,53,0,180
1,40,0,192
1,36,90,4
1,53,114,12
1,36,0,104
1,53,0,76
1,36,89,0
1,53,106,184
1,40,100,8
1,36,0,8
1,53,0,172
1,36,94,12
1,40,0,16
1,53,112,164
1,36,0,20
1,36,88,184
1,53,0,4
1,36,0,176
1,40,100,12
1,53,112,0
1,53,0,184
1,40,0,196
1,36,78,4
1,53,115,4
1,36,0,120
1,36,85,68
1,53,0,4
1,36,0,188
1,40,103,0
1,53,112,8
1,40,0,176
1,53,0,8
1,36,93,0
1,36,0,100
1,53,114,88
1,36,94,4
1,53,0,204
1,40,106,180
1,53,114,8
1,36,0,12
1,53,0,160
1,40,0,156
1,36,84,48
1,53,115,16
1,36,0,96
1,53,0,76
1,36,85,4
1,36,0,184
1,53,111,0
1,40,99,8
1,40,0,164
1,53,0,16
1,36,92,12
1,36,0,140
1,53,112,24
1,53,0,188
1,36,84,32
1,36,0,176
1,53,114,4
1,40,100,12
1,40,0,164
1,36,69,28
1,53,0,4
1,36,0,84
1,53,112,96
1,36,93,8
1,36,0,96
1,53,0,88
1,36,79,8
1,36,0,184
1,40,92,8
1,53,111,0
1,53,0,176
1,40,0,16
1,36,81,0
1,36,0,88
1,53,111,96
1,36,96,8
1,53,0,168
1,36,0,136
1,53,111,76
1,40,103,4
1,40,0,152
1,53,0,16
1,36,86,216
1,53,112,8
1,36,0,84
1,53,0,76
1,36,89,24
1,36,0,152
1,53,112,36
1,40,97,4
1,40,0,172
1,53,0,0
1,36,96,20
1,36,0,156
1,53,114,16
1,53,0,188
1,36,84,24
1,53,114,184
1,40,103,8
1,36,0,12
1,53,0,160
1,40,0,108
1,36,85,104
1,53,115,4
1,36,0,100
1,53,0,80
1,36,88,8
1,36,0,176
1,40,97,16
1,53,112,8
1,40,0,144
1,53,0,32
1,36,53,8
1,36,0,96
1,53,109,72
1,53,114,4
1,53,0,20
1,53,0,168
1,36,84,24
1,53,114,184
1,40,103,8
1,36,0,12
1,53,0,160
1,40,0,108
1,36,85,104
1,53,115,4
1,36,0,100
1,53,0,80
1,36,88,8
1,36,0,176
1,40,97,16
1,53,112,8
1,40,0,144
1,53,0,32
1,36,53,8
1,36,0,96
1,53,109,72
1,53,0,24
1,53,109,0
1,36,88,192
1,53,0,12
1,36,0,168
1,53,112,4
1,40,100,8
1,53,0,204
1,40,0,176
1,36,78,4
1,53,115,8
1,36,0,116
1,53,0,60
1,36,85,8
1,36,0,192
1,40,103,0
1,53,111,0
1,40,0,184
1,53,0,4
1,36,93,4
1,36,0,100
1,36,94,92
1,53,115,0
1,53,0,204
1,40,106,180
1,53,112,12
1,36,0,8
1,53,0,188
1,40,0,128
1,36,84,48
1,53,117,28
1,36,0,84
1,36,85,80
1,53,0,8
1,36,0,176
1,40,99,8
1,53,112,0
1,40,0,164
1,53,0,12
1,36,92,16
1,36,0,140
1,53,115,40
1,36,84,204
1,53,0,12
1,36,0,164
1,40,100,16
1,53,114,4
1,40,0,160
1,36,69,28
1,53,0,12
1,36,0,76
1,36,93,104
1,53,115,8
1,36,0,88
1,36,79,96
1,53,0,4
1,36,0,180
1,53,111,4
1,40,92,4
1,53,0,160
1,40,0,32
1,36,81,0
1,36,0,88
1,36,96,104
1,53,115,0
1,53,0,188
1,36,0,116
1,53,112,76
1,40,103,4
1,40,0,152
1,53,0,20
1,36,86,212
1,53,112,12
1,36,0,80
1,53,0,76
1,36,89,24
1,36,0,152
1,53,108,16
1,40,97,24
1,40,0,172
1,53,0,12
1,36,96,8
1,36,0,156
1,53,117,24
1,53,0,168
1,36,84,36
1,40,103,192
1,53,115,0
1,36,0,12
1,53,0,176
1,40,0,92
1,36,85,104
1,53,114,4
1,36,0,100
1,36,88,88
1,53,0,4
1,36,0,172
1,40,97,16
1,53,112,0
1,40,0,152
1,36,53,40
1,53,0,8
1,36,0,88
1,53,111,84
1,36,93,12
1,53,0,196
1,36,0,88
1,40,108,100
1,53,111,8
1,53,0,192
1,40,0,0
1,36,90,184
1,53,112,0
1,36,0,88
1,36,78,104
1,53,0,20
1,36,0,156
1,40,103,16
1,53,112,16
1,40,0,96
1,36,93,80
1,53,0,32
1,36,0,64
1,36,96,96
1,53,111,0
1,36,0,152
1,53,0,48
1,40,102,184
1,53,114,16
1,40,0,88
1,53,0,88
1,36,84,0
1,36,0,88
1,53,112,92
1,36,89,12
1,36,0,84
1,53,0,88
1,36,84,20
1,36,0,156
