track,note,velocity,time
1,61,34,0
1,66,41,0
1,70,55,0
1,70,0,1440
1,66,0,0
1,61,0,0
1,66,41,0
1,61,34,0
1,70,55,0
1,70,0,1440
1,61,0,0
1,66,0,0
1,61,34,0
1,70,55,0
1,66,41,0
1,66,0,1440
1,70,0,0
1,61,0,0
1,65,41,0
1,71,55,0
1,71,0,960
1,68,49,0
1,68,0,480
1,65,0,0
1,66,37,0
1,70,51,0
1,61,32,0
1,61,0,1440
1,70,0,0
1,66,0,0
1,61,35,0
1,66,43,0
1,70,57,0
1,70,0,960
1,66,0,0
1,70,59,0
1,66,44,0
1,66,0,480
1,70,0,0
1,61,0,0
1,61,33,0
1,70,66,0
1,66,49,0
1,66,0,288
1,70,0,0
1,71,49,0
1,68,36,0
1,68,0,288
1,71,0,0
1,70,49,0
1,66,36,0
1,66,0,288
1,70,0,0
1,65,36,0
1,68,49,0
1,68,0,288
1,65,0,0
1,70,47,0
1,66,36,0
1,66,0,288
1,70,0,0
1,61,0,0
1,65,32,0
1,73,66,0
1,70,49,0
1,70,0,480
1,73,0,0
1,71,49,0
1,68,36,0
1,68,0,480
1,71,0,0
1,65,0,0
1,68,50,240
1,61,32,0
1,61,0,240
1,68,0,0
1,61,34,0
1,66,46,0
1,70,55,0
1,70,0,1440
1,66,0,0
1,61,0,0
1,70,55,0
1,61,41,0
1,73,66,0
1,73,0,1440
1,61,0,0
1,70,0,0
1,70,62,0
1,78,72,0
1,66,46,0
1,66,0,1440
1,78,0,0
1,70,0,0
1,73,50,0
1,77,60,0
1,68,37,0
1,77,0,1320
1,66,36,0
1,68,42,40
1,77,44,40
1,77,0,40
1,73,0,0
1,68,0,0
1,75,56,0
1,75,0,1440
1,66,0,0
1,68,0,0
1,65,28,0
1,73,45,0
1,68,37,0
1,68,0,1440
1,73,0,0
1,65,0,0
1,58,27,2760
1,66,36,120
1,70,49,0
1,61,27,0
1,58,0,20
1,66,0,1420
1,70,0,0
1,61,0,0
1,61,34,0
1,66,41,0
1,70,55,0
1,70,0,1440
1,66,0,0
1,61,0,0
1,66,41,0
1,61,34,0
1,70,55,0
1,70,0,1440
1,66,0,0
1,71,55,0
1,65,46,0
1,71,0,1320
1,68,46,0
1,68,0,120
1,65,0,0
1,61,0,0
1,66,37,0
1,61,32,0
1,70,51,0
1,70,0,1440
1,61,0,0
1,66,0,0
1,61,41,0
1,70,55,0
1,66,41,0
1,66,0,480
1,70,0,160
1,61,0,0
1,61,26,0
1,70,48,0
1,66,35,0
1,66,0,152
1,70,0,0
1,61,0,0
1,66,36,8
1,70,49,0
1,61,27,0
1,61,0,152
1,70,0,0
1,66,0,0
1,61,28,8
1,66,36,0
1,70,51,0
1,70,0,152
1,66,0,0
1,61,0,0
1,66,39,8
1,70,52,0
1,61,29,0
1,61,0,152
1,70,0,0
1,66,0,0
1,70,56,8
1,66,41,0
1,61,31,0
1,61,0,152
1,66,0,0
1,70,0,0
1,66,49,8
1,70,66,0
1,61,36,0
1,70,0,480
1,66,0,0
1,68,41,0
1,71,57,0
1,71,0,240
1,68,0,0
1,66,43,0
1,70,58,0
1,70,0,240
1,66,0,0
1,68,60,0
1,65,44,0
1,65,0,240
1,68,0,0
1,70,60,0
1,66,45,0
1,66,0,240
1,70,0,0
1,61,0,0
1,70,49,0
1,73,66,0
1,65,36,0
1,73,0,480
1,70,0,0
1,68,34,0
1,71,46,0
1,71,0,480
1,68,0,0
1,65,0,0
1,61,32,240
1,68,50,0
1,68,0,240
1,61,0,0
1,64,46,0
1,61,34,0
1,70,55,0
1,70,0,1440
1,61,0,0
1,64,0,0
1,70,66,0
1,64,55,0
1,70,0,1320
1,71,62,0
1,71,0,120
1,64,0,0
1,70,59,0
1,64,44,0
1,73,71,0
1,73,0,1440
1,64,0,0
1,70,0,0
1,64,45,0
1,75,72,0
1,70,60,0
1,75,0,1320
1,73,60,0
1,73,0,120
1,70,0,0
1,64,0,0
1,73,62,0
1,64,34,0
1,70,42,0
1,70,0,1440
1,64,0,0
1,73,0,0
1,68,42,0
1,71,51,0
1,63,32,0
1,63,0,1440
1,71,0,0
1,68,0,0
1,61,50,0
1,67,56,0
1,70,56,0
1,70,0,1440
1,67,0,0
1,61,0,0
1,68,50,0
1,59,45,0
1,71,60,0
1,71,0,1320
1,63,49,0
1,63,0,120
1,59,0,0
1,68,0,0
1,68,57,0
1,65,31,0
1,59,37,0
1,59,0,1440
1,68,0,0
1,70,51,0
1,61,33,0
1,61,0,1440
1,70,0,0
1,65,0,0
1,58,33,0
1,66,51,0
1,66,0,960
1,58,0,0
1,71,53,480
1,63,36,0
1,63,0,1440
1,71,0,0
1,59,32,0
1,68,50,0
1,65,41,0
1,68,0,1440
1,59,0,0
1,70,42,0
1,61,35,0
1,61,0,960
1,59,39,0
1,59,0,480
1,70,0,0
1,65,0,0
1,58,24,0
1,66,38,0
1,66,0,1920
1,58,0,0
1,78,60,960
1,66,24,240
1,66,0,228
1,66,26,12
1,66,0,228
1,66,28,12
1,66,0,228
1,66,31,12
1,66,0,228
1,66,28,12
1,66,0,228
1,78,0,12
1,70,57,0
1,66,29,0
1,66,0,228
1,66,29,12
1,66,0,228
1,66,28,12
1,66,0,228
1,66,27,12
1,66,0,228
1,70,0,12
1,66,26,0
1,72,58,0
1,66,0,228
1,66,26,12
1,66,0,228
1,72,0,12
1,65,30,0
1,72,60,0
1,65,0,228
1,65,27,12
1,65,0,228
1,65,31,12
1,65,0,228
1,65,30,12
1,65,0,228
1,65,26,12
1,72,0,120
1,73,43,0
1,65,0,108
1,73,0,12
1,65,26,0
1,77,42,0
1,77,0,120
1,75,40,0
1,65,0,108
1,75,0,12
1,73,52,0
1,65,26,0
1,65,0,228
1,65,26,12
1,65,0,228
1,65,26,12
1,65,0,228
1,65,26,12
1,65,0,228
1,65,26,12
1,65,0,228
1,65,26,12
1,65,0,228
1,73,0,12
1,76,60,0
1,64,24,240
1,64,0,228
1,64,26,12
1,64,0,228
1,64,28,12
1,64,0,228
1,64,31,12
1,64,0,228
1,64,28,12
1,64,0,228
1,76,0,12
1,64,29,0
1,68,57,0
1,64,0,228
1,64,29,12
1,64,0,228
1,64,28,12
1,64,0,228
1,64,27,12
1,64,0,228
1,68,0,12
1,70,58,0
1,64,26,0
1,64,0,228
1,64,26,12
1,64,0,228
1,70,0,12
1,63,30,0
1,70,60,0
1,63,0,228
1,63,27,12
1,63,0,228
1,63,31,12
1,63,0,228
1,63,30,12
1,63,0,228
1,63,26,12
1,70,0,120
1,71,43,0
1,63,0,108
1,71,0,12
1,75,42,0
1,63,26,0
1,75,0,120
1,73,40,0
1,63,0,108
1,73,0,12
1,63,24,0
1,71,45,0
1,63,0,228
1,63,26,12
1,63,0,228
1,63,26,12
1,63,0,228
1,63,26,12
1,63,0,228
1,71,0,12
1,63,26,0
1,70,56,0
1,63,0,228
1,61,26,12
1,61,0,228
1,70,0,12
1,59,30,0
1,70,60,0
1,59,0,228
1,59,27,12
1,59,0,228
1,70,0,12
1,68,55,0
1,59,21,0
1,59,0,228
1,59,30,12
1,59,0,228
1,61,26,12
1,68,0,120
1,70,43,0
1,61,0,108
1,70,0,12
1,73,42,0
1,61,26,0
1,73,0,120
1,71,40,0
1,61,0,108
1,71,0,12
1,63,30,0
1,70,60,0
1,63,0,228
1,63,27,12
1,63,0,228
1,70,0,12
1,68,54,0
1,63,21,0
1,63,0,228
1,63,30,12
1,63,0,228
1,61,26,12
1,68,0,120
1,70,40,0
1,61,0,108
1,70,0,12
1,61,26,0
1,73,39,0
1,73,0,120
1,71,38,0
1,61,0,108
1,71,0,12
1,59,33,0
1,70,57,0
1,59,0,228
1,59,29,12
1,59,0,228
1,70,0,12
1,68,53,0
1,63,40,0
1,63,0,228
1,63,44,12
1,63,0,228
1,65,53,12
1,65,0,228
1,63,42,12
1,63,0,228
1,65,48,12
1,65,0,240
1,63,42,0
1,63,0,240
1,65,40,0
1,65,0,240
1,68,0,0
1,63,46,0
1,70,55,0
1,70,0,240
1,63,0,0
1,61,51,0
1,73,61,0
1,73,0,240
1,61,0,0
1,70,55,0
1,61,46,0
1,61,0,240
1,70,0,0
1,58,30,0
1,66,60,0
1,58,0,228
1,58,34,12
1,58,0,228
1,66,0,12
1,63,46,0
1,66,58,0
1,63,0,228
1,63,34,12
1,63,0,228
1,66,0,12
1,66,57,0
1,60,48,0
1,63,48,0
1,60,0,228
1,60,37,12
1,60,0,228
1,63,0,12
1,66,0,0
1,68,54,0
1,66,60,0
1,59,34,0
1,63,51,0
1,59,0,228
1,59,41,12
1,59,0,228
1,63,0,12
1,66,0,0
1,61,42,0
1,65,56,0
1,59,50,0
1,59,0,228
1,59,41,12
1,59,0,228
1,65,0,12
1,61,0,0
1,68,0,0
1,63,42,0
1,59,50,0
1,68,56,0
1,59,0,228
1,59,41,12
1,59,0,228
1,68,0,12
1,63,0,0
1,63,42,0
1,68,56,0
1,59,42,0
1,59,0,480
1,68,0,0
1,63,0,0
1,70,52,0
1,58,39,0
1,61,39,0
1,61,0,480
1,58,0,0
1,70,0,0
1,63,37,0
1,68,50,0
1,59,32,0
1,59,0,480
1,68,0,0
1,63,0,0
1,58,38,0
1,61,38,0
1,70,51,0
1,70,0,1440
1,61,0,0
1,58,0,0
1,70,55,0
1,64,46,0
1,64,0,1440
1,70,0,0
1,70,66,0
1,64,55,0
1,70,0,1320
1,71,62,0
1,71,0,120
1,64,0,0
1,70,59,0
1,73,71,0
1,64,44,0
1,64,0,1440
1,73,0,0
1,70,0,0
1,75,67,0
1,64,30,0
1,78,67,0
1,70,45,0
1,75,0,1320
1,73,66,0
1,73,0,120
1,70,0,0
1,78,0,0
1,64,0,0
1,78,69,0
1,64,30,0
1,73,48,0
1,73,0,1440
1,64,0,0
1,78,0,0
1,71,50,0
1,75,61,0
1,63,37,0
1,63,0,1440
1,71,0,0
1,61,50,0
1,67,50,0
1,71,56,0
1,71,0,1440
1,75,0,0
1,61,0,0
1,67,0,0
1,68,47,0
1,59,42,0
1,71,57,0
1,71,0,1320
1,63,49,0
1,63,0,120
1,59,0,0
1,68,0,0
1,68,59,0
1,65,47,0
1,59,42,0
1,77,54,240
1,59,0,1200
1,68,0,0
1,65,0,0
1,65,42,0
1,59,37,0
1,68,51,0
1,68,0,960
1,59,0,0
1,65,0,0
1,70,51,0
1,61,42,0
1,61,0,480
1,70,0,0
1,77,0,0
1,58,42,0
1,66,54,0
1,78,59,240
1,66,0,720
1,58,0,0
1,78,0,480
1,63,40,0
1,71,57,0
1,68,45,0
1,80,61,240
1,80,0,1200
1,63,0,0
1,71,0,0
1,68,0,0
1,59,34,0
1,65,38,0
1,68,51,0
1,77,58,240
1,68,0,1200
1,70,56,0
1,77,0,1320
1,78,54,0
1,78,0,120
1,70,0,0
1,65,0,0
1,59,0,0
1,66,42,0
1,58,27,0
1,78,57,240
1,78,0,2640
1,58,0,0
1,66,0,0
1,58,30,240
1,58,0,228
1,58,33,12
1,58,0,228
1,58,34,12
1,58,0,228
1,63,37,12
1,63,0,228
1,58,40,12
1,58,0,228
1,58,25,12
1,70,52,0
1,58,0,228
1,61,38,12
1,61,0,228
1,59,37,12
1,59,0,228
1,58,30,12
1,58,0,228
1,70,0,12
1,58,18,0
1,69,40,0
1,69,0,120
1,70,35,0
1,58,0,108
1,70,0,12
1,73,40,0
1,58,18,0
1,73,0,120
1,71,35,0
1,58,0,108
1,71,0,12
1,70,33,0
1,58,30,0
1,58,0,2880
1,70,0,0
2,42,39,0
2,42,0,127
2,53,20,0
2,53,0,240
2,56,25,0
2,56,0,240
2,54,21,0
2,54,0,240
2,58,28,0
2,58,0,240
2,49,25,0
2,49,0,240
2,42,39,0
2,42,0,85
2,53,22,0
2,53,0,240
2,56,29,0
2,56,0,240
2,54,23,0
2,54,0,240
2,58,31,0
2,58,0,240
2,49,27,0
2,49,0,240
2,42,39,0
2,42,0,127
2,53,25,0
2,53,0,240
2,56,28,0
2,56,0,240
2,54,25,0
2,54,0,240
2,58,32,0
2,58,0,240
2,49,28,0
2,49,0,240
2,37,39,0
2,37,0,68
2,55,29,0
2,55,0,240
2,58,32,0
2,58,0,240
2,56,28,0
2,56,0,240
2,59,32,0
2,59,0,240
2,49,27,0
2,49,0,240
2,42,39,0
2,42,0,70
2,53,25,0
2,53,0,240
2,56,28,0
2,56,0,240
2,54,26,0
2,54,0,240
2,58,28,0
2,58,0,240
2,49,27,0
2,49,0,240
2,42,40,0
2,42,0,70
2,53,33,0
2,53,0,240
2,56,38,0
2,56,0,240
2,54,33,0
2,54,0,240
2,58,38,0
2,58,0,240
2,49,33,0
2,49,0,240
2,42,44,0
2,42,0,127
2,53,33,0
2,53,0,240
2,56,37,0
2,56,0,240
2,54,30,0
2,54,0,240
2,58,38,0
2,58,0,240
2,49,33,0
2,49,0,240
2,37,39,0
2,37,0,149
2,55,28,0
2,55,0,240
2,58,33,0
2,58,0,148
2,56,28,0
2,56,0,240
2,59,32,0
2,59,0,137
2,49,29,0
2,49,0,240
2,42,39,0
2,42,0,228
2,53,26,0
2,53,0,240
2,56,31,0
2,56,0,240
2,54,30,0
2,54,0,240
2,58,35,0
2,58,0,240
2,49,33,0
2,49,0,240
2,42,46,0
2,42,0,28
2,53,30,0
2,53,0,240
2,56,43,0
2,56,0,240
2,54,37,0
2,54,0,240
2,58,46,0
2,58,0,240
2,49,41,0
2,49,0,240
2,39,53,0
2,39,0,113
2,57,39,0
2,57,0,240
2,60,46,0
2,60,0,240
2,58,38,0
2,58,0,240
2,63,43,0
2,63,0,240
2,54,34,0
2,54,0,240
2,44,42,0
2,44,0,113
2,55,28,0
2,55,0,240
2,58,33,0
2,58,0,240
2,56,28,0
2,56,0,240
2,61,31,0
2,61,0,162
2,53,27,0
2,53,0,48
2,44,39,56
2,44,0,240
2,55,26,0
2,55,0,240
2,58,29,0
2,58,0,240
2,56,26,0
2,56,0,240
2,60,29,0
2,60,0,240
2,51,25,0
2,51,0,240
2,49,36,0
2,49,0,113
2,55,26,0
2,55,0,240
2,58,29,0
2,58,0,240
2,56,26,0
2,56,0,240
2,61,29,0
2,61,0,240
2,53,25,0
2,53,0,240
2,56,33,0
2,56,0,127
2,54,26,0
2,54,0,240
2,59,30,0
2,59,0,141
2,51,27,0
2,51,0,240
2,54,31,0
2,54,0,141
2,53,27,0
2,53,0,240
2,58,30,0
2,58,0,141
2,49,28,0
2,49,0,240
2,58,31,0
2,58,0,134
2,47,28,0
2,47,0,240
2,58,33,0
2,58,0,113
2,56,28,0
2,56,0,120
2,42,39,17
2,42,0,240
2,53,21,0
2,53,0,240
2,56,27,0
2,56,0,240
2,54,26,0
2,54,0,240
2,58,29,0
2,58,0,240
2,49,25,0
2,49,0,240
2,42,39,0
2,42,0,76
2,53,23,0
2,53,0,240
2,56,27,0
2,56,0,240
2,54,26,0
2,54,0,240
2,58,31,0
2,58,0,240
2,49,28,0
2,49,0,240
2,42,39,0
2,42,0,127
2,53,25,0
2,53,0,240
2,56,28,0
2,56,0,240
2,54,25,0
2,54,0,240
2,58,33,0
2,58,0,240
2,49,29,0
2,49,0,11
2,37,39,0
2,37,0,149
2,55,25,0
2,55,0,240
2,58,28,0
2,58,0,240
2,56,25,0
2,56,0,240
2,59,28,0
2,59,0,240
2,49,25,0
2,49,0,240
2,42,39,0
2,42,0,127
2,53,25,0
2,53,0,240
2,56,28,0
2,56,0,240
2,54,26,0
2,54,0,240
2,58,28,0
2,58,0,240
2,49,26,0
2,49,0,240
2,42,39,0
2,42,0,77
2,53,32,0
2,53,0,240
2,56,36,0
2,56,0,240
2,54,30,0
2,54,0,240
2,58,35,0
2,58,0,240
2,49,31,0
2,49,0,240
2,42,39,0
2,42,0,127
2,53,32,0
2,53,0,240
2,56,36,0
2,56,0,240
2,54,31,0
2,54,0,240
2,58,36,0
2,58,0,240
2,49,31,0
2,49,0,240
2,37,39,0
2,37,0,34
2,55,30,0
2,55,0,240
2,58,34,0
2,58,0,225
2,56,28,0
2,56,0,217
