track,note,velocity,time
1,72,84,14368
1,69,80,6
1,72,84,3
1,72,93,10
1,69,84,32
1,72,93,4
1,72,93,13
1,67,84,64
1,69,93,2
1,69,84,8
1,69,93,10
1,72,93,0
1,79,102,164
1,76,111,58
1,76,102,58
1,74,111,0
1,72,111,2
1,66,93,5
1,69,93,4
1,69,93,7
1,69,93,9
1,66,93,7
1,72,102,165
1,72,102,52
1,72,93,46
1,69,93,1
1,67,76,8
1,69,93,1
1,69,84,10
1,72,93,32
1,69,102,93
1,72,102,7
1,72,84,12
1,72,93,10
1,72,84,8
1,72,93,5
1,72,102,10
1,72,93,22
1,72,93,7
1,72,93,10
1,72,102,8
1,69,111,54
1,72,111,10
1,72,102,12
1,67,84,0
1,69,102,32
1,71,120,0
1,76,102,418
1,72,93,2
1,72,84,8
1,69,93,3
1,69,93,10
1,66,84,0
1,64,84,5
1,72,111,358
1,72,84,12
1,67,93,4
1,69,102,0
1,71,102,6
1,69,111,32
1,67,93,0
1,79,93,339
1,76,93,4
1,76,93,7
1,74,111,32
1,74,93,4
1,72,84,1
1,69,111,4
1,74,93,325
1,74,93,34
1,72,76,0
1,74,80,1
1,72,76,2
1,74,102,1
1,75,102,3
1,74,111,0
1,72,84,84
1,69,76,7
1,72,111,42
1,72,84,5
1,72,84,7
1,72,93,8
1,72,102,8
1,67,84,32
1,69,111,2
1,72,93,1362
1,72,84,22
1,72,93,17
1,72,93,22
1,66,76,12
1,69,84,16
1,69,84,28
1,72,84,13
1,69,93,16
1,69,93,10
1,79,93,33
1,76,102,57
1,76,80,5
1,74,93,7
1,74,93,4
1,72,93,5
1,66,76,32
1,69,102,2
1,66,76,0
1,69,102,8
1,69,93,4
1,66,84,2
1,72,111,138
1,72,93,25
1,72,84,23
1,66,93,14
1,69,93,9
1,69,93,22
1,72,111,12
1,69,84,5
1,69,84,9
1,72,93,20
1,72,93,34
1,69,93,0
1,72,93,0
1,72,93,8
1,72,111,8
1,69,93,4
1,72,111,4
1,72,102,8
1,69,102,0
1,72,102,4
1,69,102,4
1,72,111,40
1,72,102,12
1,67,84,0
1,69,102,32
1,71,120,0
1,76,102,418
1,72,93,2
1,72,84,8
1,69,93,3
1,69,93,10
1,66,84,0
1,64,84,5
1,72,111,358
1,72,84,12
1,67,93,4
1,69,102,0
1,71,102,6
1,69,111,32
1,67,93,0
1,79,93,339
1,76,93,4
1,76,93,7
1,74,111,32
1,74,93,4
1,72,84,1
1,69,111,4
1,74,93,325
1,74,93,34
1,72,76,0
1,74,80,1
1,72,76,2
1,74,102,1
1,75,102,3
1,74,111,0
1,72,84,84
1,69,76,7
1,72,111,42
1,72,84,5
1,72,84,7
1,72,93,8
1,72,102,8
1,67,84,32
1,69,111,2
1,72,84,19026
1,69,80,6
1,72,84,3
1,72,93,10
1,69,84,32
1,72,93,4
1,72,93,13
1,67,84,64
1,69,93,2
1,69,84,8
1,69,93,10
1,72,93,0
1,79,102,164
1,76,111,58
1,76,102,58
1,74,111,0
1,72,111,2
1,66,93,5
1,69,93,4
1,69,93,7
1,69,93,9
1,66,93,7
1,72,102,165
1,72,102,52
1,72,93,46
1,69,93,1
1,67,76,8
1,69,93,1
1,69,84,10
1,72,93,32
1,69,102,93
1,72,102,7
1,72,84,12
1,72,93,10
1,72,84,8
1,72,93,5
1,72,102,10
1,72,93,22
1,72,93,7
1,72,93,10
1,72,102,8
1,69,111,54
1,72,111,10
1,72,102,12
1,67,84,0
1,69,102,32
1,71,120,0
1,76,102,418
1,72,93,2
1,72,84,8
1,69,93,3
1,69,93,10
1,66,84,0
1,64,84,5
1,72,111,358
1,72,84,12
1,67,93,4
1,69,102,0
1,71,102,6
1,69,111,32
1,67,93,0
1,79,93,339
1,76,93,4
1,76,93,7
1,74,111,32
1,74,93,4
1,72,84,1
1,69,111,4
1,74,93,325
1,74,93,34
1,72,76,0
1,74,80,1
1,72,76,2
1,74,102,1
1,75,102,3
1,74,111,0
1,72,84,84
1,69,76,7
1,72,111,42
1,72,84,5
1,72,84,7
1,72,93,8
1,72,102,8
1,67,84,32
1,69,111,2
1,74,93,1106
1,74,93,13
1,72,76,0
1,74,80,1
1,72,76,2
1,74,102,1
1,75,102,3
1,74,111,0
1,72,84,84
1,69,76,7
1,57,102,426
1,57,102,10
1,55,93,7
1,60,102,7
1,55,84,7
1,57,102,4
2,79,121,43683
2,80,121,1
2,84,121,1
2,81,86,10
2,84,103,27
2,81,94,3
2,84,103,30
2,81,94,2
2,84,94,27
2,81,86,1
2,84,103,26
2,81,86,1
2,84,103,26
2,81,90,2
2,84,112,28
2,81,103,1
2,79,90,30
2,77,94,0
2,83,94,0
2,81,112,0
2,78,127,28
2,81,112,3
2,78,86,17
2,77,94,3
2,76,90,4
2,74,103,5
2,71,121,8
2,81,121,41
2,75,127,1
2,76,86,27
2,69,62,11
2,67,70,1
2,81,121,14
2,75,112,0
2,76,121,46
2,69,82,3
2,81,112,21
2,76,127,1
2,74,121,34
2,78,112,1
2,81,103,0
2,69,86,5
2,81,103,8
2,73,112,1
2,76,103,3
2,69,59,7
2,81,90,3
2,74,112,2
2,78,121,0
2,74,103,93
2,81,121,0
2,86,103,2
2,84,112,0
2,74,82,15
2,81,94,1
2,84,94,1
2,81,121,50
2,74,103,2
2,86,94,1
2,84,103,1
2,86,90,14
2,74,90,2
2,84,103,1
2,81,112,0
2,81,121,53
2,84,112,0
2,86,94,2
2,74,121,0
2,88,112,2
2,86,121,25
2,83,103,1
2,79,112,2
2,81,86,2
2,74,82,1
2,86,103,23
2,81,112,1
2,78,112,2
2,74,74,5
2,86,112,19
2,79,121,3
2,83,103,1
2,74,66,2
2,75,121,6
2,81,121,3
2,76,94,7
2,81,103,3
2,69,90,8
2,75,121,30
2,81,112,1
2,81,94,7
2,76,103,0
2,69,94,11
2,81,112,13
2,75,127,2
2,76,112,16
2,81,94,2
2,69,112,4
2,81,112,19
2,75,121,0
2,76,103,0
2,69,94,11
2,81,112,17
2,75,121,1
2,76,112,15
2,81,94,4
2,69,121,4
2,76,86,70
2,86,103,1
2,82,103,1
2,89,121,3
2,77,86,2
2,83,103,3
2,88,121,3
2,76,103,30
2,86,127,4
2,88,121,0
2,82,121,1
2,83,90,17
2,86,121,37
2,80,127,0
2,74,112,0
2,84,127,3
2,81,90,23
2,74,94,49
2,86,121,31
2,79,121,0
2,83,121,0
2,78,127,33
2,81,121,3
2,86,112,3
2,86,112,8
2,74,86,4
2,83,90,1
2,79,90,1
2,65,112,92
2,69,103,4
2,71,121,0
2,74,121,0
2,70,103,52
2,72,94,0
2,66,90,0
2,75,112,0
2,67,121,71
2,73,121,0
2,76,112,0
2,71,112,2
2,73,112,69
2,71,121,2
2,67,103,0
2,76,103,2
2,71,121,70
2,73,112,0
2,67,112,2
2,76,121,1
3,73,74,2468
3,67,70,1
3,78,66,2
3,81,66,2
3,67,92,66
3,73,83,5
3,81,66,0
3,78,70,0
3,78,74,636
3,67,74,2
3,73,70,1
3,81,70,2
3,78,92,80
3,76,92,0
3,72,83,0
3,81,92,0
3,76,74,645
3,72,70,2
3,78,62,0
3,81,70,3
3,67,74,68
3,81,70,1
3,73,74,0
3,78,62,0
3,80,101,737
3,78,101,2
3,83,83,0
3,74,92,0
3,78,101,348
3,76,101,1
3,81,83,2
3,72,101,1
3,78,101,366
3,73,92,3
3,67,92,1
3,81,92,2
3,73,83,702
3,67,74,1
3,78,74,1
3,81,74,3
3,67,66,711
3,73,74,1
3,78,70,2
3,81,70,2
3,73,74,731
3,67,66,2
3,78,70,0
3,81,70,3
3,76,74,725
3,78,74,1
3,72,74,0
3,81,74,1
3,78,83,146
3,76,92,0
3,72,74,3
3,81,74,0
3,78,92,194
3,72,92,0
3,76,92,0
3,81,92,0
3,78,92,139
3,76,101,4
3,72,92,1
3,81,83,0
3,73,92,197
3,71,92,1
3,67,74,1
3,76,83,2
3,71,92,133
3,73,83,1
3,67,83,2
3,76,92,2
3,71,92,203
3,67,74,2
3,73,92,3
3,76,92,1
3,71,92,132
3,73,101,2
3,67,83,2
3,76,83,2
3,78,83,198
3,72,74,4
3,76,74,0
3,81,83,2
3,76,92,137
3,72,74,1
3,78,92,0
3,81,92,0
3,72,83,189
3,76,83,0
3,78,83,1
3,81,83,0
3,78,92,121
3,76,101,3
3,72,83,4
3,81,83,1
3,73,83,195
3,71,83,1
3,67,83,4
3,76,83,1
3,71,101,130
3,67,83,2
3,73,83,0
3,76,92,0
3,71,83,196
3,73,92,3
3,67,83,2
3,76,83,0
3,71,92,135
3,67,92,2
3,73,92,1
3,76,92,1
3,80,101,200
3,78,101,2
3,83,83,1
3,74,83,0
3,78,101,124
3,80,101,0
3,74,83,2
3,83,92,1
3,76,101,193
3,78,92,1
3,72,74,1
3,81,92,1
3,76,101,128
3,78,101,2
3,72,83,0
3,81,92,1
3,69,92,263
3,71,101,0
3,65,83,2
3,74,70,2
3,70,83,83
3,72,83,1
3,66,83,2
3,75,83,0
3,73,101,85
3,67,92,0
3,76,92,0
3,71,83,0
3,73,101,80
3,76,92,0
3,71,92,0
3,67,83,0
3,71,101,71
3,73,92,0
3,76,101,2
3,67,92,0
3,67,66,476
3,73,74,2
3,81,70,0
3,78,66,1
3,67,70,52
3,73,74,2
3,78,70,1
3,81,83,0
3,71,74,508
3,67,70,3
3,73,83,0
3,76,83,2
3,71,101,128
3,73,92,3
3,76,101,1
3,67,83,0
3,71,83,185
3,73,74,0
3,67,74,3
3,76,83,1
3,71,101,135
3,73,92,2
3,67,101,0
3,76,92,3
3,71,83,187
3,73,74,1
3,67,83,1
3,76,92,3
3,71,92,135
3,73,92,0
3,67,92,3
3,76,92,0
3,67,92,197
3,71,92,0
3,73,92,0
3,76,92,0
3,71,101,136
3,76,101,1
3,67,92,2
3,73,101,0
3,71,92,192
3,67,83,1
3,73,83,1
3,76,92,1
3,71,101,136
3,73,92,3
3,67,92,2
3,76,92,1
3,71,101,195
3,67,83,2
3,73,92,3
3,76,92,1
3,71,101,137
3,67,83,2
3,76,92,1
3,73,101,1
3,71,83,201
3,73,101,0
3,67,83,4
3,76,101,2
3,71,101,132
3,67,92,2
3,76,83,0
3,73,101,3
3,67,74,198
3,71,66,2
3,76,70,2
3,73,62,1
3,71,92,183
3,73,101,2
3,67,83,1
3,76,83,2
3,76,92,128
3,72,83,3
3,81,92,1
3,78,74,0
3,76,101,68
3,78,101,0
3,72,83,3
3,81,83,0
3,76,92,147
3,72,92,1
3,81,92,1
3,78,101,3
3,71,92,172
3,76,101,0
3,73,101,1
3,67,83,0
3,71,101,90
3,67,83,0
3,76,92,0
3,73,92,2
3,67,101,129
3,71,101,2
3,76,101,2
3,73,101,1
3,76,92,176
3,72,74,4
3,78,83,1
3,81,74,2
3,76,92,75
3,78,101,3
3,81,92,0
3,72,92,0
3,76,101,138
3,72,83,2
3,78,92,1
3,81,92,2
3,71,92,169
3,73,110,0
3,67,92,0
3,76,101,1
3,71,92,80
3,67,92,2
3,73,110,1
3,76,92,1
3,71,101,136
3,67,92,2
3,76,92,0
3,73,101,0
3,80,92,209
3,83,83,2
3,78,83,1
3,74,70,1
3,76,92,22
3,78,83,1
3,81,83,4
3,72,74,0
3,69,92,129
3,65,92,5
3,71,101,1
3,74,92,1
3,70,83,78
3,66,70,1
3,72,74,1
3,75,74,2
3,73,92,80
3,71,92,1
3,67,92,2
3,76,92,2
3,71,92,68
3,73,92,2
3,67,83,0
3,76,101,1
3,67,83,68
3,73,101,1
3,71,101,0
3,76,92,3
3,73,74,476
3,78,70,2
3,67,70,1
3,81,62,1
3,67,74,52
3,81,83,1
3,73,74,1
3,78,74,0
3,71,74,500
3,73,83,2
3,76,83,0
3,67,74,0
3,73,92,132
3,71,92,0
3,67,74,2
3,76,92,1
3,71,83,195
3,67,74,1
3,73,83,1
3,76,83,1
3,71,101,130
3,67,83,1
3,76,92,1
3,73,101,0
3,71,92,199
3,67,74,2
3,73,83,0
3,76,74,0
3,71,92,130
3,73,83,0
3,67,83,4
3,76,83,0
3,71,101,204
3,73,101,2
3,76,83,1
3,67,83,0
3,71,92,138
3,73,101,0
3,76,101,0
3,67,83,0
3,71,83,202
3,67,83,0
3,73,110,3
3,76,92,1
3,71,83,132
3,73,101,2
3,76,92,1
3,67,83,1
3,71,101,209
3,73,101,0
3,76,83,0
3,67,83,1
3,71,101,148
3,67,101,2
3,76,92,1
3,73,101,0
3,71,101,202
3,67,83,2
3,73,92,1
3,76,83,1
3,71,92,131
3,67,83,2
3,73,101,1
3,76,92,0
3,71,101,209
3,73,92,3
3,76,74,0
3,67,83,0
3,78,101,335
3,76,101,0
3,72,74,0
3,81,83,0
3,76,101,64
3,78,92,0
3,72,74,1
3,81,74,0
3,76,101,130
3,72,83,2
3,78,92,2
3,81,83,1
3,71,92,175
3,73,101,3
3,67,92,2
3,76,83,2
3,71,101,63
3,73,83,0
3,67,74,2
3,76,92,1
3,71,92,132
3,67,83,2
3,73,101,1
3,76,92,2
3,76,101,175
3,78,101,2
3,72,101,1
3,81,101,2
3,76,101,67
3,78,101,1
3,72,83,2
3,81,83,1
3,76,101,139
3,81,92,2
3,72,83,0
3,78,92,2
3,71,92,172
3,73,101,0
3,76,92,2
3,67,92,2
3,71,92,90
3,73,101,0
3,67,83,0
3,76,101,2
3,67,92,137
3,71,92,2
3,73,101,2
3,76,83,1
3,74,83,203
3,80,83,0
3,83,92,0
3,78,101,0
3,81,83,48
3,76,74,2
3,78,74,2
3,72,74,0
3,69,83,137
3,65,83,0
3,71,74,2
3,74,92,0
3,70,74,61
3,72,74,1
3,66,70,2
3,75,83,2
3,73,101,70
3,71,92,0
3,76,92,0
3,67,92,2
3,71,92,75
3,73,101,1
3,76,92,0
3,67,83,1
3,67,92,74
3,71,83,1
3,73,101,1
3,76,101,1
3,78,83,492
3,73,74,2
3,67,74,0
3,81,83,0
3,67,83,56
3,78,83,3
3,73,83,1
3,81,83,0
3,73,83,511
3,71,74,0
3,67,83,2
3,76,83,1
3,73,70,130
3,71,70,4
3,67,70,1
3,76,70,0
3,71,92,212
3,73,92,0
3,67,83,3
3,76,83,1
3,71,92,147
3,73,92,1
3,76,92,0
3,67,83,2
3,71,92,212
3,67,74,0
3,73,83,3
3,76,74,1
3,71,101,132
3,73,101,2
3,67,74,1
3,76,83,1
3,71,92,207
3,76,92,3
3,73,101,0
3,67,83,0
3,71,92,143
3,76,92,2
3,67,92,1
3,73,83,1
3,71,92,202
3,67,83,1
3,73,92,1
3,76,83,2
3,71,101,143
3,67,83,2
3,76,92,0
3,73,92,1
3,74,92,71
3,69,83,3
3,78,92,0
3,71,74,27
3,73,70,1
3,67,74,1
3,76,74,2
3,71,83,125
3,67,74,1
3,73,92,2
3,76,83,1
3,71,83,203
3,73,101,2
3,76,83,0
3,67,83,0
3,71,101,138
3,67,92,2
3,73,101,1
3,76,83,0
3,71,101,212
3,73,101,1
3,76,92,2
3,67,92,3
3,71,92,142
3,67,92,0
3,73,92,0
3,76,92,0
3,78,83,204
3,76,83,2
3,81,74,1
3,72,74,1
3,78,83,41
3,76,83,2
3,72,70,3
3,81,92,2
3,76,101,166
3,78,101,0
3,81,83,2
3,72,92,4
3,73,92,163
3,71,92,2
3,67,83,1
3,76,92,0
3,71,74,56
3,67,74,1
3,73,83,2
3,76,83,1
3,71,92,104
3,73,92,2
3,67,83,1
3,76,83,1
3,76,92,144
3,78,92,2
3,72,83,1
3,81,92,0
3,78,92,62
3,76,83,2
3,72,70,1
3,81,66,0
3,76,92,69
3,78,92,0
3,81,83,2
3,72,74,1
3,67,70,95
3,71,70,1
3,73,74,2
3,76,74,1
3,71,83,45
3,73,74,1
3,76,74,1
3,67,74,1
3,71,101,125
3,67,83,2
3,73,92,1
3,76,101,1
3,78,92,204
3,83,83,1
3,80,83,0
3,74,83,0
3,78,101,130
3,80,92,1
3,74,83,2
3,83,83,0
3,78,101,205
3,76,92,0
3,81,83,0
