track,note,velocity,time
1,65,100,4320
1,65,0,240
1,65,100,0
1,65,0,60
1,63,100,60
1,63,0,60
1,67,100,60
1,67,0,240
1,65,100,0
1,65,0,240
1,65,100,0
1,65,0,120
1,65,100,0
1,65,0,60
1,65,100,0
1,65,0,180
1,63,100,0
1,63,0,60
1,67,100,60
1,67,0,120
1,67,100,0
1,67,0,60
1,67,100,0
1,67,0,180
1,67,100,0
1,67,0,120
1,67,100,0
1,67,0,180
1,65,100,1740
1,65,0,240
1,65,100,0
1,65,0,60
1,63,100,60
1,63,0,60
1,67,100,60
1,67,0,240
1,65,100,0
1,65,0,240
1,65,100,0
1,65,0,120
1,65,100,60
1,65,0,180
1,63,100,0
1,63,0,60
1,67,100,60
1,67,0,120
1,67,100,0
1,67,0,60
1,67,100,0
1,67,0,180
1,67,100,0
1,67,0,120
1,67,100,0
1,67,0,180
1,67,100,1740
1,67,0,120
1,65,100,0
1,65,0,60
1,63,100,0
1,63,0,180
1,62,100,0
1,62,0,120
1,67,100,0
1,67,0,120
1,65,100,0
1,65,0,60
1,63,100,0
1,63,0,180
1,62,100,0
1,62,0,120
1,62,100,0
1,62,0,120
1,63,100,60
1,63,0,30
1,62,100,0
1,62,0,30
1,60,100,0
1,58,100,180
1,58,0,60
1,60,0,0
1,60,100,0
1,60,0,90
1,58,100,30
1,58,0,60
1,60,100,0
1,60,0,120
1,55,100,0
1,55,0,60
1,67,100,0
1,67,0,60
1,67,100,60
1,67,0,120
1,65,100,0
1,65,0,60
1,63,100,0
1,63,0,180
1,62,100,0
1,62,0,120
1,67,100,0
1,67,0,120
1,65,100,0
1,65,0,60
1,63,100,0
1,63,0,180
1,62,100,0
1,62,0,120
1,62,100,0
1,62,0,120
1,63,100,60
1,63,0,30
1,62,100,0
1,62,0,30
1,60,100,0
1,60,0,240
1,60,100,180
1,60,0,60
1,63,100,0
1,63,0,60
1,60,100,0
1,60,0,60
1,63,100,0
1,63,0,60
1,63,100,0
1,63,0,60
1,60,100,0
1,60,0,240
1,60,100,300
1,60,0,60
1,62,100,0
1,62,0,60
1,60,100,0
1,60,0,60
1,63,100,0
1,63,0,120
1,63,100,0
1,63,0,120
1,63,100,0
1,63,0,60
1,60,100,0
1,60,0,180
1,65,100,720
1,65,0,240
1,65,100,0
1,65,0,60
1,63,100,60
1,63,0,60
1,67,100,60
1,67,0,240
1,65,100,0
1,65,0,240
1,65,100,0
1,65,0,120
1,65,100,0
1,65,0,60
1,65,100,0
1,65,0,180
1,63,100,0
1,63,0,60
1,67,100,60
1,67,0,120
1,67,100,0
1,67,0,60
1,67,100,0
1,67,0,180
1,67,100,0
1,67,0,120
1,67,100,0
1,67,0,180
1,65,100,1740
1,65,0,240
1,65,100,0
1,65,0,60
1,63,100,60
1,63,0,60
1,67,100,60
1,67,0,240
1,65,100,0
1,65,0,240
1,65,100,0
1,65,0,120
1,65,100,60
1,65,0,180
1,63,100,0
1,63,0,60
1,67,100,60
1,67,0,120
1,67,100,0
1,67,0,60
1,67,100,0
1,67,0,180
1,67,100,0
1,67,0,120
1,67,100,0
1,67,0,180
1,67,100,1740
1,67,0,120
1,65,100,0
1,65,0,60
1,63,100,0
1,63,0,180
1,62,100,0
1,62,0,120
1,67,100,0
1,67,0,120
1,65,100,0
1,65,0,60
1,63,100,0
1,63,0,180
1,62,100,0
1,62,0,120
1,62,100,0
1,62,0,120
1,63,100,60
1,63,0,30
1,62,100,0
1,62,0,30
1,60,100,0
1,58,100,180
1,58,0,60
1,60,0,0
1,60,100,0
1,60,0,90
1,58,100,30
1,58,0,60
1,60,100,0
1,60,0,120
1,55,100,0
1,55,0,60
1,67,100,0
1,67,0,60
1,67,100,60
1,67,0,120
1,65,100,0
1,65,0,60
1,63,100,0
1,63,0,180
1,62,100,0
1,62,0,120
1,67,100,0
1,67,0,120
1,65,100,0
1,65,0,60
1,63,100,0
1,63,0,180
1,62,100,0
1,62,0,120
1,62,100,0
1,62,0,120
1,63,100,60
1,63,0,30
1,62,100,0
1,62,0,30
1,60,100,0
1,60,0,240
1,60,100,180
1,60,0,60
1,63,100,0
1,63,0,60
1,60,100,0
1,60,0,60
1,63,100,0
1,63,0,60
1,63,100,0
1,63,0,60
1,60,100,0
1,60,0,240
1,60,100,300
1,60,0,60
1,62,100,0
1,62,0,60
1,60,100,0
1,60,0,60
1,63,100,0
1,63,0,120
1,63,100,0
1,63,0,120
1,63,100,0
1,63,0,60
1,60,100,0
1,60,0,180
1,65,100,6480
1,65,0,240
1,65,100,0
1,65,0,60
1,63,100,60
1,63,0,60
1,67,100,60
1,67,0,240
1,65,100,0
1,65,0,240
1,65,100,0
1,65,0,120
1,65,100,60
1,65,0,180
1,63,100,0
1,63,0,60
1,67,100,60
1,67,0,120
1,67,100,0
1,67,0,60
1,67,100,0
1,67,0,180
1,67,100,0
1,67,0,120
1,67,100,0
1,67,0,180
1,65,100,1740
1,65,0,240
1,65,100,0
1,65,0,60
1,63,100,60
1,63,0,60
1,67,100,60
1,67,0,240
1,65,100,0
1,65,0,240
1,65,100,0
1,65,0,120
1,65,100,0
1,65,0,60
1,65,100,0
1,65,0,180
1,63,100,0
1,63,0,60
1,67,100,60
1,67,0,120
1,67,100,60
1,67,0,180
1,67,100,0
1,67,0,120
1,67,100,0
1,67,0,180
1,67,100,1740
1,67,0,120
1,65,100,0
1,65,0,60
1,63,100,0
1,63,0,180
1,62,100,0
1,62,0,120
1,67,100,0
1,67,0,120
1,65,100,0
1,65,0,60
1,63,100,0
1,63,0,180
1,62,100,0
1,62,0,120
1,62,100,0
1,62,0,120
1,63,100,60
1,63,0,30
1,62,100,0
1,62,0,30
1,60,100,0
1,58,100,180
1,58,0,60
1,60,0,0
1,60,100,0
1,60,0,90
1,58,100,30
1,58,0,60
1,60,100,0
1,60,0,120
1,55,100,0
1,55,0,60
1,67,100,0
1,67,0,60
1,67,100,60
1,67,0,120
1,65,100,0
1,65,0,60
1,63,100,0
1,63,0,180
1,62,100,0
1,62,0,120
1,67,100,0
1,67,0,120
1,65,100,0
1,65,0,60
1,63,100,0
1,63,0,180
1,62,100,0
1,62,0,120
1,62,100,0
1,62,0,120
1,63,100,60
1,63,0,30
1,62,100,0
1,62,0,30
1,60,100,0
1,60,0,240
1,60,100,180
1,60,0,60
1,63,100,0
1,63,0,60
1,60,100,0
1,60,0,60
1,63,100,0
1,63,0,60
1,63,100,0
1,63,0,60
1,60,100,0
1,67,100,0
1,67,0,120
1,65,100,0
1,65,0,60
1,63,100,0
1,60,0,60
1,63,0,120
1,62,100,0
1,62,0,120
1,67,100,0
1,67,0,120
1,65,100,0
1,65,0,60
1,63,100,0
1,63,0,180
1,62,100,0
1,62,0,120
1,62,100,0
1,62,0,120
1,63,100,60
1,63,0,30
1,62,100,0
1,62,0,30
1,60,100,0
1,58,100,180
1,58,0,60
1,60,0,0
1,60,100,0
1,60,0,90
1,58,100,30
1,58,0,60
1,60,100,0
1,60,0,120
1,55,100,0
1,55,0,60
1,67,100,0
1,67,0,60
1,67,100,60
1,67,0,120
1,65,100,0
1,65,0,60
1,63,100,0
1,63,0,180
1,62,100,0
1,62,0,120
1,67,100,0
1,67,0,120
1,65,100,0
1,65,0,60
1,63,100,0
1,63,0,180
1,62,100,0
1,62,0,120
1,62,100,0
1,62,0,120
1,63,100,60
1,63,0,30
1,62,100,0
1,62,0,30
1,60,100,0
1,60,0,240
1,60,100,180
1,60,0,60
1,63,100,0
1,63,0,60
1,60,100,0
1,60,0,60
1,63,100,0
1,63,0,60
1,63,100,0
1,63,0,60
1,60,100,0
1,60,0,240
1,60,100,300
1,60,0,60
1,62,100,0
1,62,0,60
1,60,100,0
1,60,0,60
1,63,100,0
1,63,0,120
1,63,100,0
1,63,0,120
1,63,100,0
1,63,0,60
1,60,100,0
1,60,0,180
1,60,100,300
1,60,0,60
1,62,100,0
1,62,0,60
1,60,100,0
1,60,0,60
1,63,100,0
1,63,0,120
1,63,100,0
1,63,0,120
1,63,100,0
1,63,0,60
1,60,100,0
1,60,0,180
1,60,100,300
1,60,0,60
1,62,100,0
1,62,0,60
1,60,100,0
1,60,0,60
1,63,100,0
1,63,0,120
1,63,100,0
1,63,0,120
1,63,100,0
1,63,0,60
1,60,100,0
1,60,0,180
2,36,100,480
2,48,100,0
2,48,0,120
2,36,0,0
2,36,100,60
2,48,100,0
2,48,0,60
2,36,0,0
2,38,100,0
2,50,100,0
2,50,0,60
2,38,0,0
2,36,100,0
2,48,100,0
2,48,0,60
2,36,0,0
2,39,100,0
2,51,100,0
2,51,0,60
2,39,0,0
2,48,100,120
2,36,100,0
2,36,0,60
2,48,0,0
2,50,100,0
2,38,100,0
2,38,0,60
2,50,0,0
2,48,100,0
2,36,100,0
2,36,0,60
2,48,0,0
2,51,100,0
2,39,100,0
2,39,0,60
2,51,0,0
2,51,100,60
2,39,100,0
2,39,0,60
2,51,0,0
2,36,100,60
2,48,100,0
2,48,0,120
2,36,0,0
2,36,100,60
2,48,100,0
2,48,0,60
2,36,0,0
2,38,100,0
2,50,100,0
2,50,0,60
2,38,0,0
2,36,100,0
2,48,100,0
2,48,0,60
2,36,0,0
2,39,100,0
2,51,100,0
2,51,0,60
2,39,0,0
2,48,100,120
2,36,100,0
2,36,0,60
2,48,0,0
2,50,100,0
2,38,100,0
2,38,0,60
2,50,0,0
2,48,100,0
2,36,100,0
2,36,0,60
2,48,0,0
2,51,100,0
2,39,100,0
2,39,0,60
2,51,0,0
2,51,100,60
2,39,100,0
2,39,0,60
2,51,0,0
2,36,100,60
2,48,100,0
2,48,0,120
2,36,0,0
2,36,100,60
2,48,100,0
2,48,0,60
2,36,0,0
2,38,100,0
2,50,100,0
2,50,0,60
2,38,0,0
2,36,100,0
2,48,100,0
2,48,0,60
2,36,0,0
2,39,100,0
2,51,100,0
2,51,0,60
2,39,0,0
2,48,100,120
2,36,100,0
2,36,0,60
2,48,0,0
2,50,100,0
2,38,100,0
2,38,0,60
2,50,0,0
2,48,100,0
2,36,100,0
2,36,0,60
2,48,0,0
2,51,100,0
2,39,100,0
2,39,0,60
2,51,0,0
2,51,100,60
2,39,100,0
2,39,0,60
2,51,0,0
2,36,100,60
2,48,100,0
2,48,0,120
2,36,0,0
2,36,100,60
2,48,100,0
2,48,0,60
2,36,0,0
2,38,100,0
2,50,100,0
2,50,0,60
2,38,0,0
2,36,100,0
2,48,100,0
2,48,0,60
2,36,0,0
2,39,100,0
2,51,100,0
2,51,0,60
2,39,0,0
2,48,100,120
2,36,100,0
2,36,0,60
2,48,0,0
2,50,100,0
2,38,100,0
2,38,0,60
2,50,0,0
2,48,100,0
2,36,100,0
2,36,0,60
2,48,0,0
2,51,100,0
2,39,100,0
2,39,0,60
2,51,0,0
2,51,100,60
2,39,100,0
2,39,0,60
2,51,0,0
2,41,100,60
2,53,100,0
2,53,0,60
2,41,0,0
2,41,100,0
2,53,100,0
2,53,0,60
2,41,0,0
2,41,100,0
2,53,100,0
2,53,0,60
2,41,0,0
2,41,100,0
2,53,100,0
2,53,0,60
2,41,0,0
2,41,100,0
2,53,100,0
2,53,0,60
2,41,0,0
2,41,100,0
2,53,100,0
2,53,0,60
2,41,0,0
2,41,100,0
2,53,100,0
2,53,0,60
2,41,0,0
2,41,100,0
2,53,100,0
2,53,0,60
2,41,0,0
2,41,100,0
2,53,100,0
2,53,0,60
2,41,0,0
2,41,100,0
2,53,100,0
2,53,0,60
2,41,0,0
2,41,100,0
2,53,100,0
2,53,0,60
2,41,0,0
2,41,100,0
2,53,100,0
2,53,0,60
2,41,0,0
2,41,100,0
2,53,100,0
2,53,0,60
2,41,0,0
2,41,100,0
2,53,100,0
2,53,0,60
2,41,0,0
2,41,100,0
2,53,100,0
2,53,0,60
2,41,0,0
2,41,100,0
2,53,100,0
2,53,0,60
2,41,0,0
2,41,100,0
2,53,100,0
2,53,0,60
2,41,0,0
2,41,100,0
2,53,100,0
2,53,0,60
2,41,0,0
2,41,100,0
2,53,100,0
2,53,0,60
2,41,0,0
2,41,100,0
2,53,100,0
2,53,0,60
2,41,0,0
2,41,100,0
2,53,100,0
2,53,0,60
2,41,0,0
2,41,100,0
2,53,100,0
2,53,0,60
2,41,0,0
2,41,100,0
2,53,100,0
2,53,0,60
2,41,0,0
2,41,100,0
2,53,100,0
2,53,0,60
2,41,0,0
2,41,100,0
2,53,100,0
2,53,0,60
2,41,0,0
2,41,100,0
2,53,100,0
2,53,0,60
2,41,0,0
2,41,100,0
2,53,100,0
2,53,0,60
2,41,0,0
2,41,100,0
2,53,100,0
2,53,0,60
2,41,0,0
2,41,100,0
2,53,100,0
2,53,0,60
2,41,0,0
2,48,100,0
2,36,100,0
2,36,0,60
2,48,0,0
2,43,100,0
2,55,100,0
2,55,0,60
2,43,0,0
2,39,100,0
2,51,100,0
2,51,0,60
2,39,0,0
2,36,100,0
2,48,100,0
2,48,0,120
2,36,0,0
2,36,100,60
2,48,100,0
2,48,0,60
2,36,0,0
2,38,100,0
2,50,100,0
2,50,0,60
2,38,0,0
2,36,100,0
2,48,100,0
2,48,0,60
2,36,0,0
2,39,100,0
2,51,100,0
2,51,0,60
2,39,0,0
2,48,100,120
2,36,100,0
2,36,0,60
2,48,0,0
2,50,100,0
2,38,100,0
2,38,0,60
2,50,0,0
2,48,100,0
2,36,100,0
2,36,0,60
2,48,0,0
2,51,100,0
2,39,100,0
2,39,0,60
2,51,0,0
2,51,100,60
2,39,100,0
2,39,0,60
2,51,0,0
2,36,100,60
2,48,100,0
2,48,0,120
2,36,0,0
2,36,100,60
2,48,100,0
2,48,0,60
2,36,0,0
2,38,100,0
2,50,100,0
2,50,0,60
2,38,0,0
2,36,100,0
2,48,100,0
2,48,0,60
2,36,0,0
2,39,100,0
2,51,100,0
2,51,0,60
2,39,0,0
2,48,100,120
2,36,100,0
2,36,0,60
2,48,0,0
2,50,100,0
2,38,100,0
2,38,0,60
2,50,0,0
2,48,100,0
2,36,100,0
2,36,0,60
2,48,0,0
2,51,100,0
2,39,100,0
2,39,0,60
2,51,0,0
2,51,100,60
2,39,100,0
2,39,0,60
2,51,0,0
2,41,100,60
2,53,100,0
2,53,0,60
2,41,0,0
2,41,100,0
2,53,100,0
2,53,0,60
2,41,0,0
2,41,100,0
2,53,100,0
2,53,0,60
2,41,0,0
2,41,100,0
2,53,100,0
2,53,0,60
2,41,0,0
2,41,100,0
2,53,100,0
2,53,0,60
2,41,0,0
2,41,100,0
2,53,100,0
2,53,0,60
2,41,0,0
2,41,100,0
2,53,100,0
2,53,0,60
2,41,0,0
2,41,100,0
2,53,100,0
2,53,0,60
2,41,0,0
2,41,100,0
2,53,100,0
2,53,0,60
2,41,0,0
2,41,100,0
2,53,100,0
2,53,0,60
2,41,0,0
2,41,100,0
2,53,100,0
2,53,0,60
2,41,0,0
2,41,100,0
2,53,100,0
2,53,0,60
2,41,0,0
2,41,100,0
2,53,100,0
2,53,0,60
2,41,0,0
2,41,100,0
2,53,100,0
2,53,0,60
2,41,0,0
2,41,100,0
2,53,100,0
2,53,0,60
2,41,0,0
2,41,100,0
2,53,100,0
2,53,0,60
2,41,0,0
2,41,100,0
2,53,100,0
2,53,0,60
2,41,0,0
2,41,100,0
2,53,100,0
2,53,0,60
2,41,0,0
2,41,100,0
2,53,100,0
2,53,0,60
2,41,0,0
2,41,100,0
2,53,100,0
2,53,0,60
2,41,0,0
2,41,100,0
2,53,100,0
2,53,0,60
2,41,0,0
2,41,100,0
2,53,100,0
2,53,0,60
2,41,0,0
2,41,100,0
2,53,100,0
2,53,0,60
2,41,0,0
2,41,100,0
2,53,100,0
2,53,0,60
2,41,0,0
2,41,100,0
2,53,100,0
2,53,0,60
2,41,0,0
2,41,100,0
2,53,100,0
2,53,0,60
2,41,0,0
2,41,100,0
2,53,100,0
2,53,0,60
2,41,0,0
2,41,100,0
2,53,100,0
2,53,0,60
2,41,0,0
2,41,100,0
2,53,100,0
