track,note,velocity,time
0,35,77,23
0,47,73,0
0,51,71,0
0,35,102,1
0,47,0,11
0,51,0,3
0,51,54,27
0,47,64,1
0,47,0,2
0,51,0,3
0,51,48,28
0,47,57,1
0,35,28,11
0,47,0,5
0,51,0,1
0,35,0,7
0,51,46,24
0,47,41,0
0,35,40,3
0,47,0,14
0,51,0,1
0,51,39,32
0,47,35,1
0,47,0,18
0,51,0,1
0,51,46,9
0,47,40,0
0,35,0,16
0,51,0,0
0,47,0,0
0,51,52,31
0,47,48,0
0,35,0,13
0,47,0,5
0,51,0,1
0,51,53,28
0,47,41,0
0,51,0,19
0,47,0,0
0,35,83,25
0,35,106,1
0,51,48,1
0,47,40,0
0,47,0,17
0,51,0,1
0,51,53,26
0,47,41,0
0,47,0,9
0,51,0,1
0,51,51,13
0,47,48,1
0,47,0,17
0,51,0,2
0,51,54,27
0,47,46,1
0,47,0,15
0,51,0,2
0,51,44,30
0,47,40,2
0,47,0,15
0,51,0,2
0,51,50,28
0,47,41,1
0,47,0,16
0,51,0,2
0,51,41,12
0,47,39,1
0,35,0,2
0,47,0,13
0,51,0,3
0,35,0,2
0,51,41,28
0,47,41,1
0,35,0,11
0,47,0,5
0,51,0,2
0,35,79,18
0,35,106,5
0,51,69,2
0,47,71,1
0,35,86,0
0,47,0,10
0,51,0,3
0,51,53,20
0,47,56,1
0,47,0,17
0,51,0,1
0,51,54,28
0,47,48,1
0,47,0,16
0,51,0,2
0,51,55,28
0,47,41,1
0,47,0,17
0,51,0,1
0,51,48,31
0,47,40,0
0,47,0,16
0,51,0,1
0,51,48,29
0,47,40,1
0,47,0,15
0,51,0,2
0,35,0,25
0,51,41,4
0,47,39,2
0,47,0,18
0,51,0,2
0,51,51,27
0,47,41,2
0,35,0,7
0,47,0,8
0,51,0,2
0,35,102,8
0,35,84,2
0,51,50,3
0,47,40,1
0,47,0,7
0,51,0,2
0,51,54,29
0,47,41,0
0,47,0,18
0,51,0,1
0,51,52,28
0,47,46,0
0,47,0,17
0,51,0,1
0,51,52,29
0,47,46,1
0,47,0,15
0,51,0,1
0,51,48,30
0,47,44,1
0,47,0,16
0,51,0,2
0,51,51,28
0,47,48,1
0,47,0,17
0,51,0,2
0,35,0,16
0,51,41,14
0,47,41,2
0,47,0,12
0,51,0,3
0,35,0,26
0,51,41,4
0,47,40,1
0,47,0,13
0,35,0,2
0,51,0,1
0,35,79,3
0,23,79,2
0,35,96,1
0,51,70,2
0,47,74,1
0,35,84,1
0,47,0,5
0,51,0,3
0,51,55,16
0,47,56,1
0,47,0,16
0,51,0,2
0,51,48,29
0,47,53,0
0,47,0,15
0,51,0,1
0,51,52,28
0,47,52,0
0,47,0,2
0,51,0,2
0,51,48,4
0,47,51,1
0,47,0,16
0,51,0,2
0,51,44,28
0,47,52,1
0,47,0,16
0,51,0,3
0,51,50,12
0,47,57,1
0,49,111,1
0,49,91,0
0,47,0,15
0,51,0,1
0,35,0,1
0,23,0,4
0,49,0,19
0,47,104,2
0,51,48,1
0,47,101,0
0,47,55,1
0,35,0,1
0,49,0,0
0,47,0,6
0,51,0,1
0,47,0,22
0,47,0,0
0,51,54,6
0,47,57,0
0,35,79,0
0,23,79,1
0,35,93,0
0,49,111,0
0,49,111,0
0,47,0,13
0,51,0,3
0,51,46,11
0,47,48,1
0,47,0,16
0,51,0,3
0,49,0,25
0,49,0,0
0,47,104,1
0,51,46,3
0,47,54,2
0,47,104,0
0,47,0,15
0,51,0,4
0,47,0,24
0,47,0,2
0,51,44,1
0,47,53,2
0,49,112,0
0,49,110,3
0,47,0,9
0,51,0,4
0,51,50,29
0,47,58,1
0,47,0,15
0,51,0,3
0,49,0,23
0,49,0,1
0,51,111,5
0,51,54,1
0,51,105,0
0,47,54,1
0,47,0,13
0,51,0,3
0,35,0,12
0,23,0,2
0,35,0,8
0,51,52,9
0,47,62,1
0,47,0,14
0,51,0,2
0,51,63,29
0,47,57,1
0,47,0,8
0,51,0,4
0,35,0,9
0,32,104,3
0,44,84,2
0,32,83,0
0,44,84,3
0,59,83,0
0,56,44,2
0,59,0,19
0,56,0,1
0,59,46,20
0,56,40,0
0,59,0,1
0,56,0,0
0,56,41,17
0,59,40,0
0,56,0,20
0,59,0,0
0,59,41,27
0,56,46,1
0,56,0,19
0,59,0,2
0,44,0,10
0,51,0,3
0,59,44,15
0,56,51,1
0,44,60,1
0,51,0,16
0,59,0,7
0,56,0,0
0,47,101,19
0,47,105,2
0,59,54,1
0,56,51,1
0,56,0,5
0,59,0,2
0,47,0,6
0,47,0,5
0,59,44,15
0,56,54,2
0,47,104,1
0,47,98,0
0,56,0,3
0,59,0,1
0,47,0,9
0,47,0,1
0,44,0,8
0,32,0,5
0,32,0,1
0,59,51,4
0,56,52,1
0,47,99,0
0,47,99,3
0,56,0,12
0,59,0,1
0,44,0,1
0,47,0,14
0,47,0,8
0,44,91,5
0,59,54,0
0,32,93,0
0,56,67,1
0,59,111,1
0,59,104,2
0,44,70,1
0,32,75,1
0,56,0,5
0,59,0,1
0,59,44,12
0,59,0,1
0,56,40,0
0,59,0,2
0,58,96,1
0,58,83,1
0,56,0,14
0,59,0,2
0,59,44,28
0,56,39,1
0,56,0,3
0,59,0,1
0,58,0,25
0,58,0,2
0,59,39,2
0,56,40,1
0,56,107,1
0,56,84,0
0,56,0,20
0,59,0,1
0,59,50,27
0,56,54,2
0,56,0,7
0,59,0,2
0,59,52,21
0,56,44,1
0,56,0,14
0,59,0,2
0,44,0,4
0,56,0,24
0,44,71,0
0,44,0,2
0,59,57,1
0,56,52,0
0,47,93,0
0,56,0,3
0,47,101,5
0,32,0,1
0,59,0,5
0,56,0,0
0,44,0,1
0,47,0,12
0,47,0,5
0,32,0,2
0,44,60,2
0,59,60,3
0,56,52,1
0,47,104,4
0,47,96,0
0,44,0,1
0,59,0,6
0,56,0,3
0,40,79,29
0,28,83,0
0,40,69,1
0,56,81,0
0,28,110,0
0,52,79,1
0,52,0,4
0,56,0,2
0,56,54,15
0,52,54,1
0,56,0,16
0,52,0,1
0,56,50,27
0,52,33,3
0,52,0,15
0,56,0,2
0,56,51,30
0,52,44,1
0,52,0,17
0,56,0,2
0,56,41,30
0,52,51,1
0,52,0,12
0,56,0,2
0,56,40,30
0,52,38,1
0,52,0,16
0,56,0,1
0,47,0,28
0,56,56,0
0,52,48,1
0,47,0,17
0,52,0,0
0,56,0,1
0,40,0,13
0,28,0,5
0,28,0,6
0,56,46,1
0,52,46,1
0,49,101,2
0,49,88,0
0,40,0,8
0,52,0,5
0,56,0,1
0,49,0,15
0,49,0,1
0,56,60,13
0,40,71,0
0,52,67,1
0,40,70,1
0,49,110,0
0,28,109,1
0,49,104,0
0,28,66,2
0,52,0,9
0,56,0,1
0,56,53,17
0,52,57,2
0,52,0,16
0,56,0,1
0,49,0,9
0,49,0,14
0,47,104,2
0,47,99,3
0,56,40,1
0,52,48,3
0,52,0,13
0,56,0,4
0,47,0,11
0,47,0,2
0,49,111,12
0,49,110,1
0,56,56,1
0,52,57,1
0,52,0,17
0,56,0,2
0,56,55,22
0,52,55,2
0,52,0,19
0,56,0,2
0,49,0,3
0,49,0,3
0,51,111,8
0,51,110,0
0,56,55,3
0,52,54,2
0,52,0,13
0,56,0,4
0,40,0,4
0,28,0,13
0,40,0,8
0,56,62,1
0,52,56,1
0,52,0,12
0,28,0,1
0,56,0,2
0,51,0,6
0,51,0,7
0,51,102,14
0,51,110,1
0,56,66,4
0,52,35,1
0,52,0,7
0,56,0,4
0,35,75,5
0,35,99,1
0,23,91,1
0,47,95,2
0,59,56,0
0,63,84,0
0,59,0,20
0,63,0,0
0,59,48,28
0,63,53,1
0,59,0,16
0,63,0,0
0,63,53,8
0,59,51,0
0,63,0,4
0,59,0,0
0,63,52,30
0,59,51,1
0,47,0,11
0,63,0,6
0,59,0,0
0,63,62,32
0,59,55,0
0,63,0,17
0,59,0,0
0,51,0,14
0,52,104,0
0,51,0,2
0,52,110,5
0,63,57,2
0,59,53,0
0,63,0,14
0,59,0,0
0,23,0,4
0,35,0,7
0,52,0,15
0,51,99,1
0,51,110,3
0,63,60,3
0,59,55,0
0,52,0,4
0,59,0,11
0,63,0,1
0,51,0,18
0,51,0,13
0,63,66,1
0,59,54,0
0,49,99,0
0,49,104,1
0,35,0,11
0,59,0,1
0,63,0,4
0,30,105,6
0,58,67,1
0,42,91,0
0,30,79,0
0,42,79,0
0,61,70,1
0,61,0,2
0,58,0,1
0,58,64,26
0,61,57,0
0,58,0,13
0,61,0,0
0,58,58,11
0,61,51,0
0,61,0,11
0,58,0,1
0,58,56,24
0,61,51,0
0,61,0,4
0,58,0,1
0,58,60,28
0,61,55,1
0,49,0,10
0,58,0,9
0,61,0,0
0,42,0,11
0,58,48,18
0,61,60,0
0,49,0,2
0,58,0,14
0,61,0,0
0,30,0,9
0,42,0,10
0,58,55,9
0,61,58,2
0,42,71,4
0,58,0,10
0,61,0,0
0,42,0,12
0,58,38,21
0,61,67,1
0,30,0,2
0,58,0,6
0,61,0,5
0,59,34,4
0,63,54,2
0,35,64,2
0,47,62,0
0,66,62,0
0,47,93,5
0,35,88,0
0,59,70,0
0,63,86,1
0,66,79,1
0,47,73,0
0,35,74,0
0,35,102,1
0,35,95,1
0,47,0,3
0,59,0,0
0,63,0,1
0,66,0,0
0,35,0,1
0,35,102,17
0,47,62,1
0,35,0,19
0,47,0,2
0,59,64,1
0,63,79,1
0,38,110,0
0,59,0,16
0,63,0,0
0,35,0,1
0,38,0,6
0,35,79,17
0,47,56,3
0,63,62,1
0,59,52,0
0,35,79,0
0,35,0,13
0,59,0,3
0,63,0,1
0,47,0,4
0,35,98,8
0,63,37,15
0,59,46,1
0,35,0,3
0,59,0,11
0,63,0,1
0,35,93,9
0,35,0,10
0,59,96,2
0,59,98,1
0,47,0,1
0,47,63,0
0,63,51,2
0,59,37,1
0,35,101,7
0,59,0,3
0,63,0,1
0,47,0,1
0,66,0,1
0,35,0,12
0,59,0,1
0,59,0,1
0,35,0,3
0,47,57,3
0,61,104,1
0,63,39,3
0,59,38,1
0,61,104,1
0,38,112,7
0,47,0,7
0,59,0,3
0,63,0,1
0,35,0,4
0,38,0,1
0,59,102,4
0,61,0,1
0,35,63,0
0,47,67,1
0,61,0,1
0,63,36,1
0,59,52,2
0,59,104,1
0,35,88,5
0,35,0,5
0,35,0,2
0,59,0,1
0,63,0,1
0,47,0,1
0,35,0,11
0,59,0,6
0,61,111,6
0,59,0,1
0,35,56,2
0,47,71,2
0,35,83,1
0,63,64,1
0,59,69,0
0,35,90,0
0,51,41,1
0,47,50,0
0,61,110,2
0,54,55,2
0,35,102,1
0,59,0,11
0,47,0,1
0,63,0,2
0,35,0,7
0,63,41,17
0,59,46,2
0,35,81,0
0,47,0,3
0,59,0,8
0,63,0,2
0,35,0,7
0,47,75,8
0,63,50,1
0,59,60,1
0,59,101,0
0,61,0,1
0,61,0,2
0,38,112,0
0,59,106,0
0,59,0,10
0,63,0,1
0,47,0,3
0,63,0,5
0,38,0,2
0,59,0,14
0,59,0,2
0,63,44,2
0,59,41,1
0,61,107,1
0,51,0,4
0,35,83,0
0,54,0,1
0,61,104,2
0,59,0,8
0,63,0,2
0,35,0,2
0,35,88,13
0,47,63,2
0,63,44,0
0,59,55,1
0,35,0,10
0,35,0,2
0,59,0,7
0,63,0,1
0,47,0,9
0,35,88,4
0,61,0,8
0,61,0,2
0,35,74,2
0,35,0,1
0,63,44,0
0,63,111,0
0,59,46,1
0,63,109,3
0,35,88,10
0,59,0,1
0,63,0,2
0,35,0,20
0,47,0,9
0,47,88,1
0,63,70,0
0,59,67,1
0,47,64,1
0,35,0,5
0,38,113,2
0,47,0,1
0,59,0,1
0,47,0,0
0,63,0,1
0,35,0,5
0,35,0,1
0,35,0,5
0,38,0,5
0,59,0,6
0,63,57,1
0,59,64,3
0,35,74,0
0,35,86,9
0,63,0,1
0,59,0,2
0,35,0,17
0,35,0,5
0,32,101,8
0,32,88,2
0,56,75,0
0,59,62,0
0,44,54,1
0,59,50,0
0,63,71,1
0,56,56,0
0,63,51,0
0,32,55,0
0,59,67,6
0,35,99,1
0,44,52,0
0,56,51,0
0,32,55,0
0,63,0,2
0,56,0,1
0,59,0,2
0,35,0,5
0,59,40,8
0,56,37,0
0,63,44,2
0,35,83,7
0,63,0,4
0,59,0,3
0,56,0,0
0,35,0,2
0,56,0,2
0,59,0,12
0,59,34,2
0,63,0,2
0,56,27,0
0,38,100,3
0,32,0,9
0,56,0,2
0,59,0,1
0,38,0,1
0,44,0,2
0,56,57,15
0,59,46,0
0,44,86,0
0,32,79,0
0,63,70,3
0,35,83,2
0,63,0,7
0,56,0,2
0,35,0,0
0,59,0,1
0,63,0,8
0,35,88,4
0,44,0,2
0,63,0,5
0,59,35,3
0,56,30,1
0,63,28,3
0,35,0,5
0,63,0,7
0,59,0,2
0,56,0,0
0,35,91,13
0,35,0,7
0,59,40,1
0,56,46,0
0,63,54,2
0,59,99,0
0,59,99,4
0,35,91,4
0,63,0,5
0,56,0,1
0,59,0,2
0,59,0,10
0,59,0,1
0,35,0,3
0,59,99,7
0,59,57,5
0,56,55,0
0,63,64,0
0,44,83,0
0,38,106,2
0,59,101,0
0,44,27,1
0,56,0,15
0,63,0,0
0,59,0,1
0,59,0,0
0,44,0,0
0,32,0,4
0,38,0,1
0,59,0,8
0,59,98,8
0,32,0,4
0,59,41,0
0,56,50,1
0,63,40,0
0,32,0,5
0,35,84,0
0,59,101,0
0,63,0,8
0,56,0,1
0,59,0,1
0,35,0,10
0,59,0,8
0,59,0,4
0,83,73,1
0,32,55,0
0,32,84,2
0,32,99,0
0,71,112,0
0,59,73,1
0,56,66,0
0,63,74,0
0,71,110,1
0,35,99,1
0,63,0,14
0,56,0,1
0,59,0,1
0,35,0,5
0,83,0,9
0,71,0,7
0,71,0,3
0,82,64,2
0,59,48,1
0,56,46,1
0,63,46,0
0,70,110,0
0,35,86,1
0,70,104,3
0,63,0,10
0,56,0,2
0,59,0,1
0,35,0,3
0,59,54,26
0,56,41,1
0,63,39,0
0,82,0,5
0,38,107,0
0,32,0,9
0,63,0,0
0,56,0,2
0,59,0,1
0,70,0,5
0,38,0,7
0,70,0,1
0,68,109,11
0,32,81,1
0,68,88,2
0,44,91,1
0,63,74,0
0,59,73,1
0,56,70,0
0,35,84,3
0,80,32,6
0,63,0,8
0,35,0,0
0,56,0,1
0,59,0,1
0,35,98,3
0,44,0,8
0,59,44,9
0,56,51,1
0,63,51,1
0,35,0,7
0,63,0,8
0,56,0,1
0,59,0,1
0,35,91,7
0,35,0,4
0,59,40,5
0,56,48,2
0,63,36,0
0,35,99,4
0,63,0,2
0,59,0,3
0,56,0,0
0,59,0,6
0,32,0,0
0,80,0,3
0,35,0,6
0,68,0,3
0,68,0,1
0,59,88,2
0,44,93,5
0,59,63,2
0,63,70,0
0,56,57,0
0,59,86,0
0,71,48,3
0,38,107,0
0,44,0,9
0,59,0,3
0,63,0,0
0,56,0,0
0,32,0,3
0,59,0,2
0,71,0,0
0,44,0,1
0,32,34,1
0,59,0,4
0,38,0,1
0,32,0,0
0,32,0,4
0,59,102,8
0,63,73,3
0,71,54,1
0,59,54,1
0,59,93,0
0,56,58,1
0,35,81,0
0,56,0,9
0,63,0,0
0,59,0,1
0,56,0,2
0,44,0,2
0,35,0,7
0,56,84,1
0,28,101,0
0,52,83,1
0,59,81,0
0,28,81,2
0,35,96,1
0,40,60,2
0,28,66,1
0,56,53,0
0,52,44,1
0,59,66,2
0,52,0,2
0,56,0,2
0,59,0,3
0,35,0,1
0,56,35,14
0,52,34,2
0,59,41,1
0,35,81,1
0,59,0,12
0,52,0,1
0,56,0,1
0,35,0,5
0,56,51,1
0,52,50,1
0,59,52,0
0,38,110,5
0,59,0,11
0,52,0,1
0,56,0,1
0,38,0,10
0,28,0,8
0,40,74,5
0,56,63,2
