track,note,velocity,time
1,43,110,0
1,55,110,96
1,55,0,94
1,62,110,2
1,62,0,94
1,55,110,2
1,55,0,94
1,43,0,0
1,62,110,2
1,62,0,94
1,67,110,2
1,67,0,94
1,62,110,2
1,62,0,94
1,55,110,2
1,55,0,94
1,41,110,2
1,55,110,96
1,55,0,94
1,62,110,2
1,62,0,94
1,55,110,2
1,55,0,94
1,41,0,0
1,62,110,2
1,62,0,94
1,67,110,2
1,67,0,94
1,62,110,2
1,62,0,94
1,55,110,2
1,55,0,94
1,48,110,2
1,55,110,96
1,55,0,94
1,62,110,2
1,62,0,94
1,55,110,2
1,55,0,94
1,48,0,0
1,62,110,2
1,62,0,94
1,67,110,2
1,67,0,94
1,62,110,2
1,62,0,94
1,55,110,2
1,55,0,94
1,46,110,2
1,55,110,96
1,55,0,94
1,62,110,2
1,62,0,94
1,55,110,2
1,55,0,94
1,46,0,0
1,46,110,2
1,55,110,96
1,55,0,94
1,46,0,0
1,47,110,2
1,55,110,96
1,55,0,94
1,47,0,0
1,43,110,2
1,55,110,96
1,55,0,94
1,62,110,2
1,62,0,94
1,55,110,2
1,55,0,94
1,43,0,0
1,62,110,2
1,62,0,94
1,67,110,2
1,67,0,94
1,62,110,2
1,62,0,94
1,55,110,2
1,55,0,94
1,41,110,2
1,55,110,96
1,55,0,94
1,62,110,2
1,62,0,94
1,55,110,2
1,55,0,94
1,41,0,0
1,62,110,2
1,62,0,94
1,67,110,2
1,67,0,94
1,62,110,2
1,62,0,94
1,55,110,2
1,55,0,94
1,48,110,2
1,55,110,96
1,55,0,94
1,62,110,2
1,62,0,94
1,55,110,2
1,55,0,94
1,48,0,0
1,62,110,2
1,62,0,94
1,67,110,2
1,67,0,94
1,62,110,2
1,62,0,94
1,55,110,2
1,55,0,94
1,46,110,2
1,55,110,96
1,55,0,94
1,62,110,2
1,62,0,94
1,55,110,2
1,55,0,94
1,46,0,0
1,46,110,2
1,55,110,96
1,55,0,94
1,46,0,0
1,47,110,2
1,55,110,96
1,55,0,94
1,47,0,0
1,43,110,2
1,55,110,96
1,55,0,94
1,62,110,2
1,62,0,94
1,55,110,2
1,55,0,94
1,43,0,0
1,62,110,2
1,62,0,94
1,67,110,2
1,67,0,94
1,62,110,2
1,62,0,94
1,55,110,2
1,55,0,94
1,41,110,2
1,55,110,96
1,55,0,94
1,62,110,2
1,62,0,94
1,55,110,2
1,55,0,94
1,41,0,0
1,62,110,2
1,62,0,94
1,67,110,2
1,67,0,94
1,62,110,2
1,62,0,94
1,55,110,2
1,55,0,94
1,48,110,2
1,55,110,96
1,55,0,94
1,62,110,2
1,62,0,94
1,55,110,2
1,55,0,94
1,48,0,0
1,62,110,2
1,62,0,94
1,67,110,2
1,67,0,94
1,62,110,2
1,62,0,94
1,55,110,2
1,55,0,94
1,46,110,2
1,55,110,96
1,55,0,94
1,62,110,2
1,62,0,94
1,55,110,2
1,55,0,94
1,46,0,0
1,46,110,2
1,55,110,96
1,55,0,94
1,46,0,0
1,47,110,2
1,55,110,96
1,55,0,94
1,47,0,0
1,43,110,2
1,55,110,96
1,55,0,94
1,62,110,2
1,62,0,94
1,55,110,2
1,55,0,94
1,43,0,0
1,62,110,2
1,62,0,94
1,67,110,2
1,67,0,94
1,62,110,2
1,62,0,94
1,55,110,2
1,55,0,94
1,41,110,2
1,55,110,96
1,55,0,94
1,62,110,2
1,62,0,94
1,55,110,2
1,55,0,94
1,41,0,0
1,62,110,2
1,62,0,94
1,67,110,2
1,67,0,94
1,62,110,2
1,62,0,94
1,55,110,2
1,55,0,94
1,48,110,2
1,55,110,96
1,55,0,94
1,62,110,2
1,62,0,94
1,55,110,2
1,55,0,94
1,48,0,0
1,62,110,2
1,62,0,94
1,67,110,2
1,67,0,94
1,62,110,2
1,62,0,94
1,55,110,2
1,55,0,94
1,46,110,2
1,55,110,96
1,55,0,94
1,62,110,2
1,62,0,94
1,55,110,2
1,55,0,94
1,46,0,0
1,46,110,2
1,55,110,96
1,55,0,94
1,46,0,0
1,47,110,2
1,55,110,96
1,55,0,94
1,47,0,0
1,43,110,2
1,55,110,96
1,55,0,94
1,62,110,2
1,62,0,94
1,55,110,2
1,55,0,94
1,43,0,0
1,62,110,2
1,62,0,94
1,67,110,2
1,67,0,94
1,62,110,2
1,62,0,94
1,55,110,2
1,55,0,94
1,41,110,2
1,55,110,96
1,55,0,94
1,62,110,2
1,62,0,94
1,55,110,2
1,55,0,94
1,41,0,0
1,62,110,2
1,62,0,94
1,67,110,2
1,67,0,94
1,62,110,2
1,62,0,94
1,55,110,2
1,55,0,94
1,48,110,2
1,55,110,96
1,55,0,94
1,62,110,2
1,62,0,94
1,55,110,2
1,55,0,94
1,48,0,0
1,62,110,2
1,62,0,94
1,67,110,2
1,67,0,94
1,62,110,2
1,62,0,94
1,55,110,2
1,55,0,94
1,46,110,2
1,55,110,96
1,55,0,94
1,62,110,2
1,62,0,94
1,55,110,2
1,55,0,94
1,46,0,0
1,46,110,2
1,55,110,96
1,55,0,94
1,46,0,0
1,47,110,2
1,55,110,96
1,55,0,94
1,47,0,0
1,43,110,2
1,55,110,96
1,55,0,94
1,62,110,2
1,62,0,94
1,55,110,2
1,55,0,94
1,43,0,0
1,62,110,2
1,62,0,94
1,67,110,2
1,67,0,94
1,62,110,2
1,62,0,94
1,55,110,2
1,55,0,94
1,41,110,2
1,55,110,96
1,55,0,94
1,62,110,2
1,62,0,94
1,55,110,2
1,55,0,94
1,41,0,0
1,62,110,2
1,62,0,94
1,67,110,2
1,67,0,94
1,62,110,2
1,62,0,94
1,55,110,2
1,55,0,94
1,48,110,2
1,55,110,96
1,55,0,94
1,62,110,2
1,62,0,94
1,55,110,2
1,55,0,94
1,48,0,0
1,62,110,2
1,62,0,94
1,67,110,2
1,67,0,94
1,62,110,2
1,62,0,94
1,55,110,2
1,55,0,94
1,46,110,2
1,55,110,96
1,55,0,94
1,62,110,2
1,62,0,94
1,55,110,2
1,55,0,94
1,46,0,0
1,46,110,2
1,55,110,96
1,55,0,94
1,46,0,0
1,47,110,2
1,55,110,96
1,55,0,94
1,47,0,0
1,62,75,0
1,67,75,0
1,67,0,48
1,62,0,0
1,62,75,144
1,67,75,0
1,67,0,48
1,62,0,0
1,62,75,144
1,67,75,0
1,67,0,94
1,62,0,0
1,62,75,2
1,69,75,0
1,69,0,94
1,62,0,0
1,62,75,2
1,67,75,0
1,67,0,94
1,62,0,0
1,59,75,2
1,64,75,0
1,64,0,94
1,59,0,0
1,60,75,2
1,65,75,0
1,65,0,48
1,60,0,0
1,60,75,144
1,65,75,0
1,65,0,48
1,60,0,0
1,60,75,144
1,65,75,0
1,65,0,94
1,60,0,0
1,60,75,2
1,67,75,0
1,67,0,94
1,60,0,0
1,60,75,2
1,65,75,0
1,65,0,94
1,60,0,0
1,59,75,2
1,64,75,0
1,64,0,94
1,59,0,0
1,60,75,2
1,64,75,0
1,64,0,48
1,60,0,0
1,60,75,144
1,64,75,0
1,64,0,48
1,60,0,0
1,60,75,144
1,64,75,0
1,64,0,94
1,60,0,0
1,64,75,2
1,64,0,94
1,60,75,2
1,64,75,0
1,64,0,94
1,60,0,0
1,55,75,2
1,59,75,0
1,59,0,94
1,55,0,0
1,58,75,2
1,62,75,0
1,62,0,48
1,58,0,0
1,58,75,144
1,62,75,0
1,62,0,48
1,58,0,0
1,58,75,144
1,62,75,0
1,62,0,94
1,58,0,0
1,62,75,2
1,62,0,94
1,59,75,2
1,62,75,0
1,62,0,94
1,59,0,0
1,55,75,2
1,55,0,94
1,62,75,2
1,67,75,0
1,67,0,48
1,62,0,0
1,62,75,144
1,67,75,0
1,67,0,48
1,62,0,0
1,62,75,144
1,67,75,0
1,67,0,94
1,62,0,0
1,62,75,2
1,69,75,0
1,69,0,94
1,62,0,0
1,62,75,2
1,67,75,0
1,67,0,94
1,62,0,0
1,59,75,2
1,64,75,0
1,64,0,94
1,59,0,0
1,60,75,2
1,65,75,0
1,65,0,48
1,60,0,0
1,60,75,144
1,65,75,0
1,65,0,48
1,60,0,0
1,60,75,144
1,65,75,0
1,65,0,94
1,60,0,0
1,60,75,2
1,67,75,0
1,67,0,94
1,60,0,0
1,60,75,2
1,65,75,0
1,65,0,94
1,60,0,0
1,59,75,2
1,64,75,0
1,64,0,94
1,59,0,0
1,60,75,2
1,64,75,0
1,64,0,48
1,60,0,0
1,60,75,144
1,64,75,0
1,64,0,48
1,60,0,0
1,60,75,144
1,64,75,0
1,64,0,94
1,60,0,0
1,64,75,2
1,64,0,94
1,60,75,2
1,64,75,0
1,64,0,94
1,60,0,0
1,55,75,2
1,59,75,0
1,59,0,94
1,55,0,0
1,58,75,2
1,62,75,0
1,62,0,48
1,58,0,0
1,58,75,144
1,62,75,0
1,62,0,48
1,58,0,0
1,58,75,144
1,62,75,0
1,62,0,94
1,58,0,0
1,62,75,2
1,62,0,94
1,59,75,2
1,62,75,0
1,62,0,94
1,59,0,0
1,55,75,2
1,55,0,94
1,43,108,2
1,55,108,96
1,55,0,94
1,62,108,2
1,62,0,94
1,55,108,2
1,55,0,94
1,43,0,0
1,62,108,2
1,62,0,94
1,67,108,2
1,67,0,94
1,62,108,2
1,62,0,94
1,55,108,2
1,55,0,94
1,41,108,2
1,55,108,96
1,55,0,94
1,62,108,2
1,62,0,94
1,55,108,2
1,55,0,94
1,41,0,0
1,62,108,2
1,62,0,94
1,67,108,2
1,67,0,94
1,62,108,2
1,62,0,94
1,55,108,2
1,55,0,94
1,48,108,2
1,55,108,96
1,55,0,94
1,62,108,2
1,62,0,94
1,55,108,2
1,55,0,94
1,48,0,0
1,62,108,2
1,62,0,94
1,67,108,2
1,67,0,94
1,62,108,2
1,62,0,94
1,55,108,2
1,55,0,94
1,46,108,2
1,55,108,96
1,55,0,94
1,62,108,2
1,62,0,94
1,55,108,2
1,55,0,94
1,46,0,0
1,46,108,2
1,55,108,96
1,55,0,94
1,46,0,0
1,47,108,2
1,55,108,96
1,55,0,94
1,47,0,0
1,43,108,2
1,55,108,96
1,55,0,94
1,62,108,2
1,62,0,94
1,55,108,2
1,55,0,94
1,43,0,0
1,62,108,2
1,62,0,94
1,67,108,2
1,67,0,94
1,62,108,2
1,62,0,94
1,55,108,2
1,55,0,94
1,41,108,2
1,55,108,96
1,55,0,94
1,62,108,2
1,62,0,94
1,55,108,2
1,55,0,94
1,41,0,0
1,62,108,2
1,62,0,94
1,67,108,2
1,67,0,94
1,62,108,2
1,62,0,94
1,55,108,2
1,55,0,94
1,48,108,2
1,55,108,96
1,55,0,94
1,62,108,2
1,62,0,94
1,55,108,2
1,55,0,94
1,48,0,0
1,62,108,2
1,62,0,94
1,67,108,2
1,67,0,94
1,62,108,2
1,62,0,94
1,55,108,2
1,55,0,94
1,46,108,2
1,55,108,96
1,55,0,94
1,62,108,2
1,62,0,94
1,55,108,2
1,55,0,94
1,46,0,0
1,46,108,2
1,55,108,96
1,55,0,94
1,46,0,0
1,47,108,2
1,55,108,96
1,55,0,94
1,47,0,0
1,43,108,2
1,55,108,96
1,55,0,94
1,62,108,2
1,62,0,94
1,55,108,2
1,55,0,94
1,43,0,0
1,62,108,2
1,62,0,94
1,67,108,2
1,67,0,94
1,62,108,2
1,62,0,94
1,55,108,2
1,55,0,94
1,41,108,2
1,55,108,96
1,55,0,94
1,62,108,2
1,62,0,94
1,55,108,2
1,55,0,94
1,41,0,0
1,62,108,2
1,62,0,94
1,67,108,2
1,67,0,94
1,62,108,2
1,62,0,94
1,55,108,2
1,55,0,94
1,48,108,2
1,55,108,96
1,55,0,94
1,62,108,2
1,62,0,94
1,55,108,2
1,55,0,94
1,48,0,0
1,62,108,2
1,62,0,94
1,67,108,2
1,67,0,94
1,62,108,2
1,62,0,94
1,55,108,2
1,55,0,94
1,46,108,2
1,55,108,96
1,55,0,94
1,62,108,2
1,62,0,94
1,55,108,2
1,55,0,94
1,46,0,0
1,46,108,2
1,55,108,96
1,55,0,94
1,46,0,0
1,47,108,2
1,55,108,96
1,55,0,94
1,47,0,0
1,43,108,2
1,55,108,96
1,55,0,94
1,62,108,2
1,62,0,94
1,55,108,2
1,55,0,94
1,43,0,0
1,62,108,2
1,62,0,94
1,67,108,2
1,67,0,94
1,62,108,2
1,62,0,94
1,55,108,2
1,55,0,94
1,41,108,2
1,55,108,96
1,55,0,94
1,62,108,2
1,62,0,94
1,55,108,2
1,55,0,94
1,41,0,0
1,62,108,2
1,62,0,94
1,67,108,2
1,67,0,94
1,62,108,2
1,62,0,94
1,55,108,2
1,55,0,94
1,48,108,2
1,55,108,96
1,55,0,94
1,62,108,2
1,62,0,94
1,55,108,2
1,55,0,94
1,48,0,0
1,62,108,2
1,62,0,94
1,67,108,2
1,67,0,94
1,62,108,2
1,62,0,94
1,55,108,2
1,55,0,94
1,46,108,2
1,55,108,96
1,55,0,94
1,62,108,2
1,62,0,94
1,55,108,2
1,55,0,94
1,46,0,0
1,46,108,2
1,55,108,96
1,55,0,94
1,46,0,0
1,47,108,2
1,55,108,96
1,55,0,94
1,47,0,0
1,43,108,2
1,55,108,96
1,55,0,94
1,62,108,2
1,62,0,94
1,55,108,2
1,55,0,94
1,43,0,0
1,62,108,2
1,62,0,94
1,67,108,2
1,67,0,94
1,62,108,2
1,62,0,94
1,55,108,2
1,55,0,94
1,41,108,2
1,55,108,96
1,55,0,94
1,62,108,2
1,62,0,94
1,55,108,2
1,55,0,94
1,41,0,0
1,62,108,2
1,62,0,94
1,67,108,2
1,67,0,94
1,62,108,2
1,62,0,94
1,55,108,2
1,55,0,94
1,48,108,2
1,55,108,96
1,55,0,94
1,62,108,2
1,62,0,94
1,55,108,2
1,55,0,94
1,48,0,0
1,62,108,2
1,62,0,94
1,67,108,2
1,67,0,94
1,62,108,2
1,62,0,94
1,55,108,2
1,55,0,94
1,46,108,2
1,55,108,96
1,55,0,94
1,62,108,2
1,62,0,94
1,55,108,2
1,55,0,94
1,46,0,0
1,46,108,2
1,55,108,96
1,55,0,94
1,46,0,0
1,47,108,2
1,55,108,96
1,55,0,94
1,47,0,0
1,43,108,2
1,55,108,96
1,55,0,94
1,62,108,2
1,62,0,94
1,55,108,2
1,55,0,94
1,43,0,0
1,62,108,2
1,62,0,94
1,67,108,2
1,67,0,94
1,62,108,2
1,62,0,94
1,55,108,2
1,55,0,94
1,41,108,2
1,55,108,96
1,55,0,94
1,62,108,2
1,62,0,94
1,55,108,2
1,55,0,94
1,41,0,0
1,62,108,2
1,62,0,94
1,67,108,2
1,67,0,94
1,62,108,2
1,62,0,94
1,55,108,2
1,55,0,94
1,48,108,2
1,55,108,96
1,55,0,94
1,62,108,2
1,62,0,94
1,55,108,2
1,55,0,94
1,48,0,0
1,62,108,2
1,62,0,94
1,67,108,2
1,67,0,94
1,62,108,2
1,62,0,94
1,55,108,2
1,55,0,94
1,46,108,2
1,55,108,96
1,55,0,94
1,62,108,2
1,62,0,94
1,55,108,2
1,55,0,94
1,46,0,0
1,46,108,2
1,55,108,96
1,55,0,94
1,46,0,0
1,47,108,2
1,55,108,96
1,55,0,94
1,47,0,0
1,62,75,0
1,67,75,0
1,67,0,48
1,62,0,0
1,62,75,144
1,67,75,0
1,67,0,48
1,62,0,0
1,62,75,144
1,67,75,0
1,67,0,94
1,62,0,0
1,62,75,2
1,69,75,0
1,69,0,94
1,62,0,0
1,62,75,2
1,67,75,0
1,67,0,94
1,62,0,0
1,59,75,2
1,64,75,0
1,64,0,94
1,59,0,0
1,60,75,2
1,65,75,0
1,65,0,48
1,60,0,0
1,60,75,144
1,65,75,0
1,65,0,48
1,60,0,0
1,60,75,144
1,65,75,0
1,65,0,94
1,60,0,0
1,60,75,2
1,67,75,0
1,67,0,94
1,60,0,0
1,60,75,2
1,65,75,0
1,65,0,94
1,60,0,0
1,59,75,2
1,64,75,0
1,64,0,94
1,59,0,0
1,60,75,2
1,64,75,0
1,64,0,48
1,60,0,0
