track,note,velocity,time
0,65,100,0
0,62,100,0
0,57,100,0
0,53,100,0
0,46,100,0
0,40,100,0
0,46,100,0
0,77,100,4
0,74,100,0
0,57,100,0
0,53,100,0
0,46,100,0
0,40,100,0
0,40,0,56
0,53,0,0
0,65,0,0
0,57,0,0
0,46,0,0
0,62,0,0
0,65,100,0
0,62,100,0
0,57,100,0
0,53,100,0
0,46,100,0
0,40,100,0
0,77,0,4
0,53,0,0
0,40,0,0
0,46,0,0
0,74,0,0
0,57,0,0
0,77,100,0
0,74,100,0
0,57,100,0
0,53,100,0
0,46,100,0
0,40,100,0
0,65,0,56
0,53,0,0
0,40,0,0
0,46,0,0
0,62,0,0
0,57,0,0
0,64,100,0
0,62,100,0
0,55,100,0
0,53,100,0
0,46,100,0
0,40,100,0
0,77,0,4
0,53,0,0
0,40,0,0
0,46,0,0
0,74,0,0
0,57,0,0
0,76,100,0
0,74,100,0
0,55,100,0
0,53,100,0
0,46,100,0
0,40,100,0
0,64,0,56
0,53,0,0
0,40,0,0
0,46,0,0
0,62,0,0
0,55,0,0
0,64,100,0
0,62,100,0
0,55,100,0
0,53,100,0
0,46,100,0
0,40,100,0
0,76,0,4
0,53,0,0
0,40,0,0
0,46,0,0
0,74,0,0
0,55,0,0
0,76,100,0
0,74,100,0
0,55,100,0
0,53,100,0
0,46,100,0
0,40,100,0
0,64,0,26
0,53,0,0
0,40,0,0
0,46,0,0
0,62,0,0
0,55,0,0
0,64,100,0
0,62,100,0
0,55,100,0
0,53,100,0
0,46,100,0
0,40,100,0
0,76,0,4
0,53,0,0
0,40,0,0
0,46,0,0
0,74,0,0
0,55,0,0
0,76,100,0
0,74,100,0
0,55,100,0
0,53,100,0
0,46,100,0
0,40,100,0
0,64,0,26
0,53,0,0
0,40,0,0
0,46,0,0
0,62,0,0
0,55,0,0
0,65,100,0
0,62,100,0
0,57,100,0
0,53,100,0
0,46,100,0
0,40,100,0
0,76,0,4
0,53,0,0
0,40,0,0
0,46,0,0
0,74,0,0
0,55,0,0
0,77,100,0
0,74,100,0
0,57,100,0
0,53,100,0
0,46,100,0
0,40,100,0
0,65,0,56
0,53,0,0
0,40,0,0
0,46,0,0
0,62,0,0
0,57,0,0
0,65,100,0
0,62,100,0
0,57,100,0
0,53,100,0
0,46,100,0
0,40,100,0
0,77,0,4
0,53,0,0
0,40,0,0
0,46,0,0
0,74,0,0
0,57,0,0
0,77,100,0
0,74,100,0
0,57,100,0
0,53,100,0
0,46,100,0
0,40,100,0
0,65,0,56
0,53,0,0
0,40,0,0
0,46,0,0
0,62,0,0
0,57,0,0
0,64,100,0
0,62,100,0
0,55,100,0
0,53,100,0
0,46,100,0
0,40,100,0
0,77,0,4
0,53,0,0
0,40,0,0
0,46,0,0
0,74,0,0
0,57,0,0
0,76,100,0
0,74,100,0
0,55,100,0
0,53,100,0
0,46,100,0
0,40,100,0
0,64,0,56
0,53,0,0
0,40,0,0
0,46,0,0
0,62,0,0
0,55,0,0
0,64,100,0
0,62,100,0
0,55,100,0
0,53,100,0
0,46,100,0
0,40,100,0
0,76,0,4
0,53,0,0
0,40,0,0
0,46,0,0
0,74,0,0
0,55,0,0
0,76,100,0
0,74,100,0
0,55,100,0
0,53,100,0
0,46,100,0
0,40,100,0
0,64,0,26
0,53,0,0
0,40,0,0
0,46,0,0
0,62,0,0
0,55,0,0
0,64,100,0
0,62,100,0
0,55,100,0
0,53,100,0
0,46,100,0
0,40,100,0
0,76,0,4
0,53,0,0
0,40,0,0
0,46,0,0
0,74,0,0
0,55,0,0
0,76,100,0
0,74,100,0
0,55,100,0
0,53,100,0
0,46,100,0
0,40,100,0
0,64,0,26
0,53,0,0
0,40,0,0
0,46,0,0
0,62,0,0
0,55,0,0
0,65,100,0
0,62,100,0
0,57,100,0
0,53,100,0
0,46,100,0
0,40,100,0
0,76,0,4
0,53,0,0
0,40,0,0
0,46,0,0
0,74,0,0
0,55,0,0
0,77,100,0
0,74,100,0
0,57,100,0
0,53,100,0
0,46,100,0
0,40,100,0
0,65,0,56
0,53,0,0
0,40,0,0
0,46,0,0
0,62,0,0
0,57,0,0
0,65,100,0
0,62,100,0
0,57,100,0
0,53,100,0
0,46,100,0
0,40,100,0
0,77,0,4
0,53,0,0
0,40,0,0
0,46,0,0
0,74,0,0
0,57,0,0
0,77,100,0
0,74,100,0
0,57,100,0
0,53,100,0
0,46,100,0
0,40,100,0
0,65,0,56
0,53,0,0
0,40,0,0
0,46,0,0
0,62,0,0
0,57,0,0
0,64,100,0
0,62,100,0
0,55,100,0
0,53,100,0
0,46,100,0
0,40,100,0
0,77,0,4
0,53,0,0
0,40,0,0
0,46,0,0
0,74,0,0
0,57,0,0
0,76,100,0
0,74,100,0
0,55,100,0
0,53,100,0
0,46,100,0
0,40,100,0
0,64,0,56
0,53,0,0
0,40,0,0
0,46,0,0
0,62,0,0
0,55,0,0
0,64,100,0
0,62,100,0
0,55,100,0
0,53,100,0
0,46,100,0
0,40,100,0
0,76,0,4
0,53,0,0
0,40,0,0
0,46,0,0
0,74,0,0
0,55,0,0
0,76,100,0
0,74,100,0
0,55,100,0
0,53,100,0
0,46,100,0
0,40,100,0
0,64,0,26
0,53,0,0
0,40,0,0
0,46,0,0
0,62,0,0
0,55,0,0
0,64,100,0
0,62,100,0
0,55,100,0
0,53,100,0
0,46,100,0
0,40,100,0
0,76,0,4
0,53,0,0
0,40,0,0
0,46,0,0
0,74,0,0
0,55,0,0
0,76,100,0
0,74,100,0
0,55,100,0
0,53,100,0
0,46,100,0
0,40,100,0
0,64,0,26
0,53,0,0
0,40,0,0
0,46,0,0
0,62,0,0
0,55,0,0
0,65,100,0
0,62,100,0
0,57,100,0
0,53,100,0
0,46,100,0
0,40,100,0
0,76,0,4
0,53,0,0
0,40,0,0
0,46,0,0
0,74,0,0
0,55,0,0
0,77,100,0
0,74,100,0
0,57,100,0
0,53,100,0
0,46,100,0
0,40,100,0
0,65,0,56
0,53,0,0
0,40,0,0
0,46,0,0
0,62,0,0
0,57,0,0
0,65,100,0
0,62,100,0
0,57,100,0
0,53,100,0
0,46,100,0
0,40,100,0
0,77,0,4
0,53,0,0
0,40,0,0
0,46,0,0
0,74,0,0
0,57,0,0
0,77,100,0
0,74,100,0
0,57,100,0
0,53,100,0
0,46,100,0
0,40,100,0
0,65,0,56
0,53,0,0
0,40,0,0
0,46,0,0
0,62,0,0
0,57,0,0
0,65,100,0
0,62,100,0
0,57,100,0
0,53,100,0
0,46,100,0
0,40,100,0
0,77,0,4
0,53,0,0
0,40,0,0
0,46,0,0
0,74,0,0
0,57,0,0
0,77,100,0
0,74,100,0
0,57,100,0
0,53,100,0
0,46,100,0
0,40,100,0
0,65,0,56
0,53,0,0
0,40,0,0
0,46,0,0
0,62,0,0
0,57,0,0
0,64,100,0
0,59,100,0
0,55,100,0
0,50,100,0
0,45,100,0
0,40,100,0
0,77,0,4
0,53,0,0
0,40,0,0
0,46,0,0
0,74,0,0
0,57,0,0
0,76,100,0
0,71,100,0
0,55,100,0
0,50,100,0
0,45,100,0
0,40,100,0
0,64,0,56
0,50,0,0
0,40,0,0
0,45,0,0
0,59,0,0
0,55,0,0
0,46,0,0
0,64,100,0
0,60,100,0
0,57,100,0
0,53,100,0
0,48,100,0
0,41,100,0
0,41,100,0
0,71,0,4
0,50,0,0
0,40,0,0
0,45,0,0
0,76,0,0
0,55,0,0
0,76,100,0
0,72,100,0
0,57,100,0
0,53,100,0
0,48,100,0
0,41,100,0
0,48,0,56
0,60,0,0
0,41,0,0
0,57,0,0
0,53,0,0
0,64,0,0
0,64,100,0
0,60,100,0
0,57,100,0
0,53,100,0
0,48,100,0
0,41,100,0
0,48,0,4
0,72,0,0
0,41,0,0
0,76,0,0
0,53,0,0
0,57,0,0
0,76,100,0
0,72,100,0
0,57,100,0
0,53,100,0
0,48,100,0
0,41,100,0
0,48,0,56
0,60,0,0
0,41,0,0
0,64,0,0
0,53,0,0
0,57,0,0
0,64,100,0
0,60,100,0
0,57,100,0
0,53,100,0
0,48,100,0
0,41,100,0
0,48,0,4
0,72,0,0
0,41,0,0
0,76,0,0
0,53,0,0
0,57,0,0
0,76,100,0
0,72,100,0
0,57,100,0
0,53,100,0
0,48,100,0
0,41,100,0
0,48,0,56
0,60,0,0
0,41,0,0
0,64,0,0
0,53,0,0
0,57,0,0
0,64,100,0
0,60,100,0
0,57,100,0
0,53,100,0
0,48,100,0
0,41,100,0
0,48,0,4
0,72,0,0
0,41,0,0
0,76,0,0
0,53,0,0
0,57,0,0
0,76,100,0
0,72,100,0
0,57,100,0
0,53,100,0
0,48,100,0
0,41,100,0
0,48,0,26
0,60,0,0
0,41,0,0
0,64,0,0
0,53,0,0
0,57,0,0
0,64,100,0
0,60,100,0
0,57,100,0
0,53,100,0
0,48,100,0
0,41,100,0
0,48,0,4
0,72,0,0
0,41,0,0
0,76,0,0
0,53,0,0
0,57,0,0
0,76,100,0
0,72,100,0
0,57,100,0
0,53,100,0
0,48,100,0
0,41,100,0
0,48,0,26
0,60,0,0
0,41,0,0
0,64,0,0
0,53,0,0
0,57,0,0
0,64,100,0
0,60,100,0
0,57,100,0
0,53,100,0
0,48,100,0
0,41,100,0
0,48,0,4
0,72,0,0
0,41,0,0
0,76,0,0
0,53,0,0
0,57,0,0
0,76,100,0
0,72,100,0
0,57,100,0
0,53,100,0
0,48,100,0
0,41,100,0
0,48,0,56
0,60,0,0
0,41,0,0
0,64,0,0
0,53,0,0
0,57,0,0
0,64,100,0
0,60,100,0
0,57,100,0
0,53,100,0
0,48,100,0
0,41,100,0
0,48,0,4
0,72,0,0
0,41,0,0
0,76,0,0
0,53,0,0
0,57,0,0
0,76,100,0
0,72,100,0
0,57,100,0
0,53,100,0
0,48,100,0
0,41,100,0
0,48,0,56
0,60,0,0
0,41,0,0
0,64,0,0
0,53,0,0
0,57,0,0
0,64,100,0
0,60,100,0
0,57,100,0
0,53,100,0
0,48,100,0
0,41,100,0
0,48,0,4
0,72,0,0
0,41,0,0
0,76,0,0
0,53,0,0
0,57,0,0
0,76,100,0
0,72,100,0
0,57,100,0
0,53,100,0
0,48,100,0
0,41,100,0
0,48,0,56
0,60,0,0
0,41,0,0
0,64,0,0
0,53,0,0
0,57,0,0
0,64,100,0
0,60,100,0
0,57,100,0
0,53,100,0
0,48,100,0
0,41,100,0
0,48,0,4
0,72,0,0
0,41,0,0
0,76,0,0
0,53,0,0
0,57,0,0
0,76,100,0
0,72,100,0
0,57,100,0
0,53,100,0
0,48,100,0
0,41,100,0
0,48,0,26
0,60,0,0
0,41,0,0
0,64,0,0
0,53,0,0
0,57,0,0
0,64,100,0
0,60,100,0
0,57,100,0
0,53,100,0
0,48,100,0
0,41,100,0
0,48,0,4
0,72,0,0
0,41,0,0
0,76,0,0
0,53,0,0
0,57,0,0
0,76,100,0
0,72,100,0
0,57,100,0
0,53,100,0
0,48,100,0
0,41,100,0
0,48,0,26
0,60,0,0
0,41,0,0
0,64,0,0
0,53,0,0
0,57,0,0
0,64,100,0
0,60,100,0
0,57,100,0
0,53,100,0
0,48,100,0
0,41,100,0
0,48,0,4
0,72,0,0
0,41,0,0
0,76,0,0
0,53,0,0
0,57,0,0
0,76,100,0
0,72,100,0
0,57,100,0
0,53,100,0
0,48,100,0
0,41,100,0
0,48,0,56
0,60,0,0
0,41,0,0
0,64,0,0
0,53,0,0
0,57,0,0
0,64,100,0
0,60,100,0
0,57,100,0
0,53,100,0
0,48,100,0
0,41,100,0
0,48,0,4
0,72,0,0
0,41,0,0
0,76,0,0
0,53,0,0
0,57,0,0
0,76,100,0
0,72,100,0
0,57,100,0
0,53,100,0
0,48,100,0
0,41,100,0
0,48,0,56
0,60,0,0
0,41,0,0
0,64,0,0
0,53,0,0
0,57,0,0
0,64,100,0
0,60,100,0
0,57,100,0
0,53,100,0
0,48,100,0
0,41,100,0
0,48,0,4
0,72,0,0
0,41,0,0
0,76,0,0
0,53,0,0
0,57,0,0
0,76,100,0
0,72,100,0
0,57,100,0
0,53,100,0
0,48,100,0
0,41,100,0
0,48,0,56
0,60,0,0
0,41,0,0
0,64,0,0
0,53,0,0
0,57,0,0
0,64,100,0
0,60,100,0
0,57,100,0
0,53,100,0
0,48,100,0
0,41,100,0
0,48,0,4
0,72,0,0
0,41,0,0
0,76,0,0
0,53,0,0
0,57,0,0
0,76,100,0
0,72,100,0
0,57,100,0
0,53,100,0
0,48,100,0
0,41,100,0
0,48,0,26
0,60,0,0
0,41,0,0
0,64,0,0
0,53,0,0
0,57,0,0
0,64,100,0
0,60,100,0
0,57,100,0
0,53,100,0
0,48,100,0
0,41,100,0
0,48,0,4
0,72,0,0
0,41,0,0
0,76,0,0
0,53,0,0
0,57,0,0
0,76,100,0
0,72,100,0
0,57,100,0
0,53,100,0
0,48,100,0
0,41,100,0
0,48,0,26
0,60,0,0
0,41,0,0
0,64,0,0
0,53,0,0
0,57,0,0
0,64,100,0
0,60,100,0
0,57,100,0
0,53,100,0
0,48,100,0
0,41,100,0
0,48,0,4
0,72,0,0
0,41,0,0
0,76,0,0
0,53,0,0
0,57,0,0
0,76,100,0
0,72,100,0
0,57,100,0
0,53,100,0
0,48,100,0
0,41,100,0
0,48,0,56
0,60,0,0
0,41,0,0
0,64,0,0
0,53,0,0
0,57,0,0
0,64,100,0
0,60,100,0
0,57,100,0
0,53,100,0
0,48,100,0
0,41,100,0
0,48,0,4
0,72,0,0
0,41,0,0
0,76,0,0
0,53,0,0
0,57,0,0
0,76,100,0
0,72,100,0
0,57,100,0
0,53,100,0
0,48,100,0
0,41,100,0
0,48,0,56
0,60,0,0
0,41,0,0
0,64,0,0
0,53,0,0
0,57,0,0
0,64,100,0
0,60,100,0
0,57,100,0
0,53,100,0
0,48,100,0
0,41,100,0
0,48,0,4
0,72,0,0
0,41,0,0
0,76,0,0
0,53,0,0
0,57,0,0
0,76,100,0
0,72,100,0
0,57,100,0
0,53,100,0
0,48,100,0
0,41,100,0
0,48,0,56
0,60,0,0
0,41,0,0
0,64,0,0
0,53,0,0
0,57,0,0
0,64,100,0
0,59,100,0
0,55,100,0
0,50,100,0
0,45,100,0
0,40,100,0
0,48,0,4
0,72,0,0
0,41,0,0
0,76,0,0
0,53,0,0
0,57,0,0
0,76,100,0
0,71,100,0
0,55,100,0
0,50,100,0
0,45,100,0
0,40,100,0
0,41,0,56
0,45,0,0
0,59,0,0
0,40,0,0
0,64,0,0
0,50,0,0
0,55,0,0
0,65,100,0
0,62,100,0
0,57,100,0
0,53,100,0
0,46,100,0
0,40,100,0
0,46,100,0
0,71,0,4
0,50,0,0
0,40,0,0
0,45,0,0
0,76,0,0
0,55,0,0
0,77,100,0
0,74,100,0
0,57,100,0
0,53,100,0
0,46,100,0
0,40,100,0
0,46,0,56
0,62,0,0
0,40,0,0
0,57,0,0
0,53,0,0
0,65,0,0
0,65,100,0
0,62,100,0
0,57,100,0
0,53,100,0
0,46,100,0
0,40,100,0
0,77,110,0
0,46,0,4
0,74,0,0
0,40,0,0
0,77,0,0
0,53,0,0
0,57,0,0
0,77,100,0
0,74,100,0
0,57,100,0
0,53,100,0
0,46,100,0
0,40,100,0
0,65,0,56
0,40,0,0
0,62,0,0
0,77,0,0
0,57,0,0
0,46,0,0
0,53,0,0
0,64,100,0
0,62,100,0
0,55,100,0
0,53,100,0
0,46,100,0
0,40,100,0
0,74,110,0
0,53,0,4
0,40,0,0
0,46,0,0
0,77,0,0
0,57,0,0
0,74,0,0
0,76,100,0
0,74,100,0
0,55,100,0
0,53,100,0
0,46,100,0
0,40,100,0
0,64,0,56
0,40,0,0
0,62,0,0
0,74,0,0
0,55,0,0
0,46,0,0
0,53,0,0
0,64,100,0
0,62,100,0
0,55,100,0
0,53,100,0
0,46,100,0
0,40,100,0
0,70,110,0
0,53,0,4
0,40,0,0
0,46,0,0
0,76,0,0
0,55,0,0
0,74,0,0
