track,note,velocity,time
1,64,100,192
1,62,100,0
1,66,100,0
1,50,100,0
1,50,100,0
1,66,100,0
1,62,100,0
1,50,100,0
1,64,100,0
1,62,100,0
1,50,100,0
1,62,100,0
1,57,100,0
1,57,100,0
1,62,100,0
1,57,100,0
1,50,100,0
1,57,100,0
1,62,100,0
1,50,100,0
1,50,100,0
1,57,100,0
1,50,100,0
1,64,100,0
1,62,100,0
1,66,100,0
1,50,100,0
1,50,100,0
1,66,100,0
1,62,100,0
1,50,100,0
1,69,100,0
1,66,100,0
1,69,100,0
1,66,100,0
1,50,100,0
1,50,100,0
1,57,100,0
1,62,100,0
1,50,100,0
1,64,100,0
1,62,100,0
1,50,100,0
1,62,100,0
1,66,100,0
1,50,100,0
1,55,100,0
1,60,100,0
1,64,100,0
1,57,100,0
1,50,100,0
1,57,100,0
1,50,100,0
1,64,100,0
1,60,100,0
1,55,100,0
1,57,100,0
1,50,100,0
1,55,100,0
1,60,100,0
1,64,100,0
1,57,100,0
1,50,100,0
1,55,100,0
1,60,100,0
1,64,100,0
1,57,100,0
1,50,100,0
1,57,100,0
1,50,100,0
1,55,100,0
1,60,100,0
1,64,100,0
1,57,100,0
1,50,100,0
1,55,100,0
1,60,100,0
1,64,100,0
1,50,100,0
1,57,100,0
1,67,100,0
1,62,100,0
1,55,100,0
1,57,100,0
1,50,100,0
1,57,100,0
1,50,100,0
1,55,100,0
1,62,100,0
1,67,100,0
1,57,100,0
1,50,100,0
1,55,100,0
1,62,100,0
1,67,100,0
1,57,100,0
1,50,100,0
1,62,100,0
1,55,100,0
1,67,100,0
1,57,100,0
1,50,100,0
1,57,100,0
1,50,100,0
1,55,100,0
1,62,100,0
1,67,100,0
1,57,100,0
1,50,100,0
1,55,100,0
1,62,100,0
1,67,100,0
1,50,100,0
1,57,100,0
1,64,100,0
1,62,100,0
1,66,100,0
1,50,100,0
1,50,100,0
1,66,100,0
1,62,100,0
1,50,100,0
1,64,100,0
1,62,100,0
1,50,100,0
1,62,100,0
1,57,100,0
1,57,100,0
1,62,100,0
1,57,100,0
1,50,100,0
1,57,100,0
1,62,100,0
1,50,100,0
1,50,100,0
1,57,100,0
1,50,100,0
1,64,100,0
1,62,100,0
1,66,100,0
1,50,100,0
1,50,100,0
1,66,100,0
1,62,100,0
1,50,100,0
1,69,100,0
1,66,100,0
1,69,100,0
1,66,100,0
1,50,100,0
1,50,100,0
1,57,100,0
1,62,100,0
1,50,100,0
1,64,100,0
1,62,100,0
1,50,100,0
1,62,100,0
1,66,100,0
1,50,100,0
1,55,100,0
1,60,100,0
1,64,100,0
1,57,100,0
1,50,100,0
1,57,100,0
1,50,100,0
1,64,100,0
1,60,100,0
1,55,100,0
1,57,100,0
1,50,100,0
1,55,100,0
1,60,100,0
1,64,100,0
1,57,100,0
1,50,100,0
1,55,100,0
1,60,100,0
1,64,100,0
1,57,100,0
1,50,100,0
1,57,100,0
1,50,100,0
1,55,100,0
1,60,100,0
1,64,100,0
1,57,100,0
1,50,100,0
1,55,100,0
1,60,100,0
1,64,100,0
1,50,100,0
1,57,100,0
1,67,100,0
1,62,100,0
1,55,100,0
1,57,100,0
1,50,100,0
1,57,100,0
1,50,100,0
1,55,100,0
1,62,100,0
1,67,100,0
1,57,100,0
1,50,100,0
1,55,100,0
1,62,100,0
1,67,100,0
1,57,100,0
1,50,100,0
1,62,100,0
1,55,100,0
1,67,100,0
1,57,100,0
1,50,100,0
1,57,100,0
1,50,100,0
1,55,100,0
1,62,100,0
1,67,100,0
1,57,100,0
1,50,100,0
1,55,100,0
1,62,100,0
1,67,100,0
1,50,100,0
1,57,100,0
1,64,100,0
1,62,100,0
1,66,100,0
1,50,100,0
1,50,100,0
1,66,100,0
1,62,100,0
1,50,100,0
1,64,100,0
1,62,100,0
1,50,100,0
1,62,100,0
1,57,100,0
1,57,100,0
1,62,100,0
1,57,100,0
1,50,100,0
1,57,100,0
1,62,100,0
1,50,100,0
1,50,100,0
1,57,100,0
1,50,100,0
1,64,100,0
1,62,100,0
1,66,100,0
1,50,100,0
1,50,100,0
1,66,100,0
1,62,100,0
1,50,100,0
1,69,100,0
1,66,100,0
1,69,100,0
1,66,100,0
1,50,100,0
1,50,100,0
1,57,100,0
1,62,100,0
1,50,100,0
1,64,100,0
1,62,100,0
1,50,100,0
1,62,100,0
1,66,100,0
1,50,100,0
1,55,100,0
1,60,100,0
1,64,100,0
1,57,100,0
1,50,100,0
1,57,100,0
1,50,100,0
1,64,100,0
1,60,100,0
1,55,100,0
1,57,100,0
1,50,100,0
1,55,100,0
1,60,100,0
1,64,100,0
1,57,100,0
1,50,100,0
1,55,100,0
1,60,100,0
1,64,100,0
1,57,100,0
1,50,100,0
1,57,100,0
1,50,100,0
1,55,100,0
1,60,100,0
1,64,100,0
1,57,100,0
1,50,100,0
1,55,100,0
1,60,100,0
1,64,100,0
1,50,100,0
1,57,100,0
1,67,100,0
1,62,100,0
1,55,100,0
1,57,100,0
1,50,100,0
1,57,100,0
1,50,100,0
1,55,100,0
1,62,100,0
1,67,100,0
1,57,100,0
1,50,100,0
1,55,100,0
1,62,100,0
1,67,100,0
1,57,100,0
1,50,100,0
1,62,100,0
1,55,100,0
1,67,100,0
1,57,100,0
1,50,100,0
1,57,100,0
1,50,100,0
1,55,100,0
1,62,100,0
1,67,100,0
1,57,100,0
1,50,100,0
1,55,100,0
1,62,100,0
1,67,100,0
1,50,100,0
1,57,100,0
1,45,100,0
1,38,100,0
1,38,100,0
1,38,100,0
1,41,100,0
1,48,100,0
1,38,100,0
1,45,100,0
1,45,100,0
1,38,100,0
1,48,100,0
1,41,100,0
1,38,100,0
1,45,100,0
1,45,100,0
1,38,100,0
1,48,100,0
1,41,100,0
1,38,100,0
1,45,100,0
1,50,100,0
1,45,100,0
1,45,100,144
1,38,100,0
1,38,100,0
1,38,100,0
1,41,100,0
1,48,100,0
1,38,100,0
1,45,100,0
1,45,100,0
1,38,100,0
1,48,100,0
1,41,100,0
1,38,100,0
1,45,100,0
1,45,100,0
1,38,100,0
1,48,100,0
1,41,100,0
1,38,100,0
1,45,100,0
1,50,100,0
1,45,100,0
1,51,100,48
1,44,100,0
1,45,100,48
1,38,100,0
1,38,100,0
1,38,100,0
1,41,100,0
1,48,100,0
1,38,100,0
1,45,100,0
1,45,100,0
1,38,100,0
1,48,100,0
1,41,100,0
1,38,100,0
1,45,100,0
1,45,100,0
1,38,100,0
1,48,100,0
1,41,100,0
1,38,100,0
1,45,100,0
1,50,100,0
1,45,100,0
1,45,100,144
1,38,100,0
1,38,100,0
1,38,100,0
1,41,100,0
1,48,100,0
1,38,100,0
1,45,100,0
1,45,100,0
1,38,100,0
1,48,100,0
1,41,100,0
1,38,100,0
1,45,100,0
1,45,100,0
1,38,100,0
1,48,100,0
1,41,100,0
1,38,100,0
1,45,100,0
1,50,100,0
1,45,100,0
1,51,100,48
1,44,100,0
1,67,100,48
1,62,100,0
1,55,100,0
1,52,100,0
1,48,100,0
1,67,100,0
1,62,100,0
1,55,100,0
1,52,100,0
1,48,100,0
1,67,100,0
1,62,100,0
1,55,100,0
1,48,100,0
1,52,100,0
1,67,100,0
1,62,100,0
1,55,100,0
1,50,100,0
1,43,100,0
1,67,100,48
1,62,100,0
1,55,100,0
1,50,100,0
1,43,100,0
1,67,100,0
1,62,100,0
1,55,100,0
1,50,100,0
1,43,100,0
1,67,100,0
1,62,100,0
1,55,100,0
1,50,100,0
1,43,100,0
1,66,100,0
1,62,100,0
1,50,100,0
1,45,100,0
1,38,100,0
1,57,100,0
1,66,100,0
1,62,100,0
1,57,100,0
1,50,100,0
1,45,100,0
1,38,100,0
1,66,100,16
1,57,100,0
1,50,100,0
1,45,100,0
1,38,100,0
1,62,100,0
1,66,100,0
1,62,100,0
1,57,100,0
1,50,100,0
1,45,100,0
1,38,100,0
1,66,100,0
1,57,100,0
1,50,100,0
1,45,100,0
1,38,100,0
1,62,100,0
1,66,100,0
1,57,100,0
1,50,100,0
1,45,100,0
1,38,100,0
1,62,100,0
1,66,100,0
1,62,100,0
1,57,100,0
1,50,100,0
1,45,100,0
1,38,100,0
1,66,100,0
1,62,100,0
1,57,100,0
1,50,100,0
1,45,100,0
1,38,100,0
1,67,100,0
1,62,100,0
1,55,100,0
1,52,100,0
1,48,100,0
1,67,100,0
1,62,100,0
1,55,100,0
1,52,100,0
1,48,100,0
1,67,100,0
1,62,100,0
1,55,100,0
1,48,100,0
1,52,100,0
1,67,100,0
1,62,100,0
1,55,100,0
1,50,100,0
1,43,100,0
1,67,100,48
1,62,100,0
1,55,100,0
1,50,100,0
1,43,100,0
1,67,100,0
1,62,100,0
1,55,100,0
1,50,100,0
1,43,100,0
1,67,100,0
1,62,100,0
1,55,100,0
1,50,100,0
1,43,100,0
1,66,100,0
1,62,100,0
1,50,100,0
1,45,100,0
1,38,100,0
1,57,100,0
1,66,100,0
1,62,100,0
1,57,100,0
1,50,100,0
1,45,100,0
1,38,100,0
1,66,100,16
1,57,100,0
1,50,100,0
1,45,100,0
1,38,100,0
1,62,100,0
1,66,100,0
1,62,100,0
1,57,100,0
1,50,100,0
1,45,100,0
1,38,100,0
1,66,100,0
1,57,100,0
1,50,100,0
1,45,100,0
1,38,100,0
1,62,100,0
1,66,100,0
1,57,100,0
1,50,100,0
1,45,100,0
1,38,100,0
1,62,100,0
1,66,100,0
1,62,100,0
1,57,100,0
1,50,100,0
1,45,100,0
1,38,100,0
1,66,100,0
1,62,100,0
1,57,100,0
1,50,100,0
1,45,100,0
1,38,100,0
1,67,100,0
1,62,100,0
1,55,100,0
1,52,100,0
1,48,100,0
1,67,100,0
1,62,100,0
1,55,100,0
1,52,100,0
1,48,100,0
1,67,100,0
1,62,100,0
1,55,100,0
1,48,100,0
1,52,100,0
1,67,100,0
1,62,100,0
1,55,100,0
1,50,100,0
1,43,100,0
1,67,100,48
1,62,100,0
1,55,100,0
1,50,100,0
1,43,100,0
1,67,100,0
1,62,100,0
1,55,100,0
1,50,100,0
1,43,100,0
1,67,100,0
1,62,100,0
1,55,100,0
1,50,100,0
1,43,100,0
1,66,100,0
1,62,100,0
1,50,100,0
1,45,100,0
1,38,100,0
1,57,100,0
1,66,100,0
1,62,100,0
1,57,100,0
1,50,100,0
1,45,100,0
1,38,100,0
1,66,100,16
1,57,100,0
1,50,100,0
1,45,100,0
1,38,100,0
1,62,100,0
1,66,100,0
1,62,100,0
1,57,100,0
1,50,100,0
1,45,100,0
1,38,100,0
1,66,100,0
1,57,100,0
1,50,100,0
1,45,100,0
1,38,100,0
1,62,100,0
1,66,100,0
1,57,100,0
1,50,100,0
1,45,100,0
1,38,100,0
1,62,100,0
1,66,100,0
1,62,100,0
1,57,100,0
1,50,100,0
1,45,100,0
1,38,100,0
1,66,100,0
1,62,100,0
1,57,100,0
1,50,100,0
1,45,100,0
1,38,100,0
1,67,100,0
1,62,100,0
1,55,100,0
1,52,100,0
1,48,100,0
1,67,100,0
1,62,100,0
1,55,100,0
1,52,100,0
1,48,100,0
1,67,100,0
1,62,100,0
1,55,100,0
1,48,100,0
1,52,100,0
1,67,100,0
1,62,100,0
1,55,100,0
1,50,100,0
1,43,100,0
1,67,100,48
1,62,100,0
1,55,100,0
1,50,100,0
1,43,100,0
1,67,100,0
1,62,100,0
1,55,100,0
1,50,100,0
1,43,100,0
1,67,100,0
1,62,100,0
1,55,100,0
1,50,100,0
1,43,100,0
1,66,100,0
1,62,100,0
1,50,100,0
1,45,100,0
1,38,100,0
1,57,100,0
1,66,100,0
1,62,100,0
1,57,100,0
1,50,100,0
1,45,100,0
1,38,100,0
1,66,100,16
1,57,100,0
1,50,100,0
1,45,100,0
1,38,100,0
1,62,100,0
1,66,100,0
1,62,100,0
1,57,100,0
1,50,100,0
1,45,100,0
1,38,100,0
1,66,100,0
1,57,100,0
1,50,100,0
1,45,100,0
1,38,100,0
1,62,100,0
1,66,100,0
1,57,100,0
1,50,100,0
1,45,100,0
1,38,100,0
1,62,100,0
1,66,100,0
1,62,100,0
1,57,100,0
1,50,100,0
1,45,100,0
1,38,100,0
1,66,100,0
1,62,100,0
1,57,100,0
1,50,100,0
1,45,100,0
1,38,100,0
1,64,100,0
1,62,100,0
1,66,100,0
1,50,100,0
1,50,100,0
1,66,100,0
1,62,100,0
1,50,100,0
1,64,100,0
1,62,100,0
1,50,100,0
1,62,100,0
1,57,100,0
1,57,100,0
1,62,100,0
1,57,100,0
1,50,100,0
1,57,100,0
1,62,100,0
1,50,100,0
1,50,100,0
1,57,100,0
1,50,100,0
1,64,100,0
1,62,100,0
1,66,100,0
1,50,100,0
1,50,100,0
1,66,100,0
1,62,100,0
1,50,100,0
1,69,100,0
1,66,100,0
1,69,100,0
1,66,100,0
1,50,100,0
1,50,100,0
1,57,100,0
1,62,100,0
1,50,100,0
1,64,100,0
1,62,100,0
1,50,100,0
1,62,100,0
1,66,100,0
1,50,100,0
1,55,100,0
1,60,100,0
1,64,100,0
1,57,100,0
1,50,100,0
1,57,100,0
1,50,100,0
1,64,100,0
1,60,100,0
1,55,100,0
1,57,100,0
1,50,100,0
1,55,100,0
1,60,100,0
1,64,100,0
1,57,100,0
1,50,100,0
1,55,100,0
1,60,100,0
1,64,100,0
1,57,100,0
1,50,100,0
1,57,100,0
1,50,100,0
1,55,100,0
1,60,100,0
1,64,100,0
1,57,100,0
1,50,100,0
1,55,100,0
1,60,100,0
1,64,100,0
1,50,100,0
1,57,100,0
1,67,100,0
1,62,100,0
1,55,100,0
1,57,100,0
1,50,100,0
1,57,100,0
1,50,100,0
1,55,100,0
1,62,100,0
1,67,100,0
1,57,100,0
1,50,100,0
1,55,100,0
1,62,100,0
1,67,100,0
1,57,100,0
1,50,100,0
1,62,100,0
1,55,100,0
1,67,100,0
1,57,100,0
1,50,100,0
1,57,100,0
1,50,100,0
1,55,100,0
1,62,100,0
1,67,100,0
1,57,100,0
1,50,100,0
1,55,100,0
1,62,100,0
1,67,100,0
1,50,100,0
1,57,100,0
1,64,100,0
1,62,100,0
1,66,100,0
1,50,100,0
1,50,100,0
1,66,100,0
1,62,100,0
1,50,100,0
1,64,100,0
1,62,100,0
1,50,100,0
1,62,100,0
1,57,100,0
1,57,100,0
1,62,100,0
1,57,100,0
1,50,100,0
1,57,100,0
1,62,100,0
1,50,100,0
1,50,100,0
1,57,100,0
1,50,100,0
1,64,100,0
1,62,100,0
1,66,100,0
1,50,100,0
1,50,100,0
1,66,100,0
1,62,100,0
1,50,100,0
1,69,100,0
1,66,100,0
1,69,100,0
1,66,100,0
1,50,100,0
1,50,100,0
1,57,100,0
1,62,100,0
1,50,100,0
1,64,100,0
1,62,100,0
1,50,100,0
1,62,100,0
1,66,100,0
1,50,100,0
1,55,100,0
1,60,100,0
1,64,100,0
1,57,100,0
1,50,100,0
1,57,100,0
1,50,100,0
1,64,100,0
1,60,100,0
1,55,100,0
1,57,100,0
1,50,100,0
1,55,100,0
1,60,100,0
1,64,100,0
1,57,100,0
1,50,100,0
1,55,100,0
1,60,100,0
1,64,100,0
1,57,100,0
1,50,100,0
1,57,100,0
1,50,100,0
1,55,100,0
1,60,100,0
1,64,100,0
1,57,100,0
1,50,100,0
1,55,100,0
1,60,100,0
1,64,100,0
1,50,100,0
1,57,100,0
1,67,100,0
1,62,100,0
1,55,100,0
1,57,100,0
1,50,100,0
1,57,100,0
1,50,100,0
1,55,100,0
1,62,100,0
1,67,100,0
1,57,100,0
1,50,100,0
1,55,100,0
1,62,100,0
1,67,100,0
1,57,100,0
1,50,100,0
1,62,100,0
1,55,100,0
1,67,100,0
1,57,100,0
1,50,100,0
1,57,100,0
1,50,100,0
1,55,100,0
1,62,100,0
1,67,100,0
1,57,100,0
1,50,100,0
1,55,100,0
1,62,100,0
1,67,100,0
1,50,100,0
1,57,100,0
1,64,100,0
1,62,100,0
1,66,100,0
1,50,100,0
1,50,100,0
1,66,100,0
