track,note,velocity,time
2,35,100,8640
2,35,0,96
2,35,100,24
2,35,0,96
2,35,100,264
2,35,0,96
2,35,100,264
2,35,0,96
2,35,100,144
2,35,0,96
2,40,100,264
2,40,0,96
2,41,100,24
2,41,0,96
2,40,100,24
2,40,0,96
2,38,100,24
2,38,0,96
2,35,100,24
2,35,0,96
2,35,100,24
2,35,0,96
2,35,100,264
2,35,0,96
2,35,100,264
2,35,0,96
2,35,100,144
2,35,0,96
2,40,100,264
2,40,0,96
2,41,100,24
2,41,0,96
2,40,100,24
2,40,0,96
2,38,100,24
2,38,0,96
2,35,100,24
2,35,0,96
2,35,100,24
2,35,0,96
2,35,100,264
2,35,0,96
2,35,100,264
2,35,0,96
2,35,100,144
2,35,0,96
2,40,100,264
2,40,0,96
2,41,100,24
2,41,0,96
2,40,100,24
2,40,0,96
2,38,100,24
2,38,0,96
2,35,100,24
2,35,0,96
2,35,100,24
2,35,0,96
2,35,100,264
2,35,0,96
2,35,100,264
2,35,0,96
2,35,100,144
2,35,0,96
2,40,100,264
2,40,0,96
2,41,100,24
2,41,0,96
2,40,100,24
2,40,0,96
2,38,100,24
2,38,0,96
2,35,100,24
2,35,0,96
2,35,100,24
2,35,0,96
2,35,100,264
2,35,0,96
2,35,100,264
2,35,0,96
2,35,100,144
2,35,0,96
2,40,100,264
2,40,0,96
2,41,100,24
2,41,0,96
2,40,100,24
2,40,0,96
2,38,100,24
2,38,0,96
2,35,100,24
2,35,0,96
2,35,100,24
2,35,0,96
2,35,100,264
2,35,0,96
2,35,100,264
2,35,0,96
2,35,100,144
2,35,0,96
2,40,100,264
2,40,0,96
2,41,100,24
2,41,0,96
2,40,100,24
2,40,0,96
2,38,100,24
2,38,0,96
2,33,100,24
2,33,0,96
2,33,100,24
2,33,0,96
2,33,100,24
2,33,0,96
2,33,100,24
2,33,0,96
2,33,100,24
2,33,0,96
2,33,100,24
2,33,0,96
2,33,100,24
2,33,0,96
2,33,100,24
2,33,0,96
2,33,100,24
2,33,0,96
2,33,100,24
2,33,0,96
2,33,100,24
2,33,0,96
2,28,100,24
2,28,0,96
2,30,100,24
2,30,0,96
2,31,100,24
2,31,0,96
2,28,100,24
2,28,0,96
2,35,100,144
2,35,0,96
2,35,100,24
2,35,0,96
2,35,100,264
2,35,0,96
2,35,100,264
2,35,0,96
2,35,100,144
2,35,0,96
2,40,100,264
2,40,0,96
2,41,100,24
2,41,0,96
2,40,100,24
2,40,0,96
2,38,100,24
2,38,0,96
2,35,100,24
2,35,0,96
2,35,100,24
2,35,0,96
2,35,100,264
2,35,0,96
2,35,100,264
2,35,0,96
2,35,100,144
2,35,0,96
2,40,100,264
2,40,0,96
2,41,100,24
2,41,0,96
2,40,100,24
2,40,0,96
2,38,100,24
2,38,0,96
2,33,100,24
2,33,0,96
2,45,100,24
2,45,0,96
2,33,100,24
2,33,0,96
2,45,100,24
2,45,0,96
2,33,100,24
2,33,0,96
2,45,100,24
2,45,0,96
2,33,100,24
2,33,0,96
2,45,100,24
2,45,0,96
2,33,100,24
2,33,0,96
2,45,100,24
2,45,0,96
2,33,100,24
2,33,0,96
2,45,100,24
2,45,0,96
2,33,100,24
2,33,0,96
2,45,100,24
2,45,0,96
2,33,100,24
2,33,0,96
2,45,100,24
2,45,0,96
2,33,100,24
2,33,0,96
2,45,100,24
2,45,0,96
2,33,100,24
2,33,0,96
2,45,100,24
2,45,0,96
2,33,100,24
2,33,0,96
2,45,100,24
2,45,0,96
2,33,100,24
2,33,0,96
2,45,100,24
2,45,0,96
2,33,100,24
2,33,0,96
2,28,100,24
2,28,0,96
2,30,100,24
2,30,0,96
2,28,100,24
2,28,0,96
2,31,100,24
2,31,0,96
2,28,100,24
2,28,0,96
2,33,100,24
2,33,0,96
2,28,100,24
2,28,0,96
2,34,100,24
2,34,0,96
2,35,100,24
2,35,0,192
2,40,100,48
2,40,0,96
2,40,100,24
2,40,0,96
2,33,100,24
2,33,0,96
2,34,100,24
2,34,0,96
2,35,100,24
2,35,0,216
2,51,100,24
2,51,0,96
2,51,100,24
2,51,0,96
2,35,100,24
2,35,0,48
2,35,100,12
2,35,0,48
2,51,100,12
2,51,0,96
2,35,100,24
2,35,0,96
2,51,100,24
2,51,0,96
2,34,100,24
2,34,0,48
2,35,100,12
2,35,0,48
2,34,100,12
2,34,0,96
2,35,100,24
2,35,0,192
2,39,100,48
2,39,0,96
2,40,100,24
2,40,0,96
2,33,100,24
2,33,0,96
2,34,100,24
2,34,0,96
2,35,100,24
2,35,0,216
2,35,100,24
2,35,0,96
2,35,100,24
2,35,0,96
2,35,100,24
2,35,0,96
2,35,100,24
2,35,0,96
2,35,100,24
2,35,0,96
2,35,100,24
2,35,0,96
2,34,100,24
2,34,0,48
2,34,100,12
2,34,0,48
2,34,100,12
2,34,0,96
2,35,100,24
2,35,0,192
2,39,100,48
2,39,0,96
2,40,100,24
2,40,0,96
2,33,100,24
2,33,0,96
2,34,100,24
2,34,0,96
2,35,100,24
2,35,0,216
2,51,100,24
2,51,0,96
2,51,100,24
2,51,0,96
2,35,100,24
2,35,0,48
2,35,100,12
2,35,0,48
2,51,100,12
2,51,0,96
2,35,100,24
2,35,0,96
2,51,100,24
2,51,0,96
2,34,100,24
2,34,0,48
2,34,100,12
2,34,0,48
2,34,100,12
2,34,0,96
2,35,100,24
2,35,0,192
2,39,100,48
2,39,0,96
2,40,100,24
2,40,0,96
2,33,100,24
2,33,0,96
2,34,100,24
2,34,0,96
2,35,100,24
2,35,0,216
2,35,100,24
2,35,0,96
2,35,100,24
2,35,0,96
2,35,100,24
2,35,0,96
2,35,100,24
2,35,0,96
2,35,100,24
2,35,0,96
2,35,100,24
2,35,0,96
2,35,100,24
2,35,0,96
2,35,100,24
2,35,0,96
2,35,100,24
2,35,0,96
2,35,100,264
2,35,0,96
2,35,100,264
2,35,0,96
2,35,100,144
2,35,0,96
2,40,100,264
2,40,0,96
2,41,100,24
2,41,0,96
2,40,100,24
2,40,0,96
2,38,100,24
2,38,0,96
2,35,100,24
2,35,0,96
2,35,100,24
2,35,0,96
2,35,100,264
2,35,0,96
2,35,100,264
2,35,0,96
2,35,100,144
2,35,0,96
2,40,100,264
2,40,0,96
2,41,100,24
2,41,0,96
2,40,100,24
2,40,0,96
2,38,100,24
2,38,0,96
2,35,100,24
2,35,0,96
2,35,100,24
2,35,0,96
2,35,100,264
2,35,0,96
2,35,100,264
2,35,0,96
2,35,100,144
2,35,0,96
2,40,100,264
2,40,0,96
2,41,100,24
2,41,0,96
2,40,100,24
2,40,0,96
2,38,100,24
2,38,0,96
2,35,100,24
2,35,0,96
2,35,100,24
2,35,0,96
2,35,100,264
2,35,0,96
2,35,100,264
2,35,0,96
2,35,100,144
2,35,0,96
2,40,100,264
2,40,0,96
2,41,100,24
2,41,0,96
2,40,100,24
2,40,0,96
2,38,100,24
2,38,0,96
2,35,100,24
2,35,0,96
2,35,100,24
2,35,0,96
2,35,100,264
2,35,0,96
2,35,100,264
2,35,0,96
2,35,100,144
2,35,0,96
2,40,100,264
2,40,0,96
2,41,100,24
2,41,0,96
2,40,100,24
2,40,0,96
2,38,100,24
2,38,0,96
2,35,100,24
2,35,0,96
2,35,100,24
2,35,0,96
2,35,100,264
2,35,0,96
2,35,100,264
2,35,0,96
2,35,100,144
2,35,0,96
2,40,100,264
2,40,0,96
2,41,100,24
2,41,0,96
2,40,100,24
2,40,0,96
2,38,100,24
2,38,0,96
2,33,100,24
2,33,0,96
2,33,100,24
2,33,0,96
2,33,100,24
2,33,0,96
2,33,100,24
2,33,0,96
2,33,100,24
2,33,0,96
2,33,100,24
2,33,0,96
2,33,100,24
2,33,0,96
2,33,100,24
2,33,0,96
2,33,100,24
2,33,0,96
2,33,100,24
2,33,0,96
2,33,100,24
2,33,0,96
2,28,100,24
2,28,0,96
2,30,100,24
2,30,0,96
2,31,100,24
2,31,0,96
2,28,100,24
2,28,0,96
2,35,100,144
2,35,0,96
2,35,100,24
2,35,0,96
2,35,100,264
2,35,0,96
2,35,100,264
2,35,0,96
2,35,100,144
2,35,0,96
2,40,100,264
2,40,0,96
2,41,100,24
2,41,0,96
2,40,100,24
2,40,0,96
2,38,100,24
2,38,0,96
2,35,100,24
2,35,0,96
2,35,100,24
2,35,0,96
2,35,100,264
2,35,0,96
2,35,100,264
2,35,0,96
2,35,100,144
2,35,0,96
2,40,100,264
2,40,0,96
2,41,100,24
2,41,0,96
2,40,100,24
2,40,0,96
2,38,100,24
2,38,0,96
2,33,100,24
2,33,0,96
2,45,100,24
2,45,0,96
2,33,100,24
2,33,0,96
2,45,100,24
2,45,0,96
2,33,100,24
2,33,0,96
2,45,100,24
2,45,0,96
2,33,100,24
2,33,0,96
2,45,100,24
2,45,0,96
2,33,100,24
2,33,0,96
2,45,100,24
2,45,0,96
2,33,100,24
2,33,0,96
2,45,100,24
2,45,0,96
2,33,100,24
2,33,0,96
2,45,100,24
2,45,0,96
2,33,100,24
2,33,0,96
2,45,100,24
2,45,0,96
2,33,100,24
2,33,0,96
2,45,100,24
2,45,0,96
2,33,100,24
2,33,0,96
2,45,100,24
2,45,0,96
2,33,100,24
2,33,0,96
2,45,100,24
2,45,0,96
2,33,100,24
2,33,0,96
2,45,100,24
2,45,0,96
2,33,100,24
2,33,0,96
2,28,100,24
2,28,0,96
2,30,100,24
2,30,0,96
2,28,100,24
2,28,0,96
2,31,100,24
2,31,0,96
2,28,100,24
2,28,0,96
2,33,100,24
2,33,0,96
2,28,100,24
2,28,0,96
2,34,100,24
2,34,0,96
2,35,100,24
2,35,0,192
2,40,100,48
2,40,0,96
2,40,100,24
2,40,0,96
2,33,100,24
2,33,0,96
2,34,100,24
2,34,0,96
2,35,100,24
2,35,0,216
2,51,100,24
2,51,0,96
2,51,100,24
2,51,0,96
2,35,100,24
2,35,0,48
2,35,100,12
2,35,0,48
2,51,100,12
2,51,0,96
2,35,100,24
2,35,0,96
2,51,100,24
2,51,0,96
2,34,100,24
2,34,0,48
2,35,100,12
2,35,0,48
2,34,100,12
2,34,0,96
2,35,100,24
2,35,0,192
2,39,100,48
2,39,0,96
2,40,100,24
2,40,0,96
2,33,100,24
2,33,0,96
2,34,100,24
2,34,0,96
2,35,100,24
2,35,0,216
2,35,100,24
2,35,0,96
2,35,100,24
2,35,0,96
2,35,100,24
2,35,0,96
2,35,100,24
2,35,0,96
2,35,100,24
2,35,0,96
2,35,100,24
2,35,0,96
2,34,100,24
2,34,0,48
2,34,100,12
2,34,0,48
2,34,100,12
2,34,0,96
2,35,100,24
2,35,0,192
2,39,100,48
2,39,0,96
2,40,100,24
2,40,0,96
2,33,100,24
2,33,0,96
2,34,100,24
2,34,0,96
2,35,100,24
2,35,0,216
2,51,100,24
2,51,0,96
2,51,100,24
2,51,0,96
2,35,100,24
2,35,0,48
2,35,100,12
2,35,0,48
2,51,100,12
2,51,0,96
2,35,100,24
2,35,0,96
2,51,100,24
2,51,0,96
2,34,100,24
2,34,0,48
2,34,100,12
2,34,0,48
2,34,100,12
2,34,0,96
2,35,100,24
2,35,0,192
2,39,100,48
2,39,0,96
2,40,100,24
2,40,0,96
2,33,100,24
2,33,0,96
2,34,100,24
2,34,0,96
2,35,100,24
2,35,0,216
2,35,100,24
2,35,0,96
2,35,100,24
2,35,0,96
2,35,100,24
2,35,0,96
2,35,100,24
2,35,0,96
2,35,100,24
2,35,0,96
2,35,100,24
2,35,0,96
2,35,100,24
2,35,0,96
2,33,100,24
2,33,0,288
2,33,100,72
2,33,0,96
2,31,100,24
2,31,0,288
2,33,100,72
2,33,0,312
2,33,100,48
2,33,0,192
2,31,100,48
2,31,0,288
2,31,100,72
2,31,0,96
2,33,100,24
2,33,0,288
2,33,100,72
2,33,0,96
2,31,100,24
2,31,0,288
2,33,100,72
2,33,0,216
2,28,100,24
2,28,0,96
2,30,100,24
2,30,0,96
2,28,100,24
2,28,0,96
2,31,100,24
2,31,0,96
2,28,100,24
2,28,0,96
2,33,100,24
2,33,0,96
2,28,100,24
2,28,0,96
2,35,100,24
2,35,0,96
2,35,100,24
2,35,0,96
2,35,100,24
2,35,0,96
2,35,100,24
2,35,0,96
2,35,100,24
2,35,0,96
2,35,100,24
2,35,0,96
2,35,100,24
2,35,0,96
2,35,100,24
2,35,0,96
2,35,100,24
2,35,0,96
2,28,100,24
2,28,0,192
2,28,100,48
2,28,0,96
2,28,100,24
2,28,0,96
2,28,100,24
2,28,0,96
2,28,100,24
2,28,0,96
2,28,100,24
2,28,0,96
2,35,100,24
2,35,0,96
2,35,100,24
2,35,0,96
2,35,100,24
2,35,100,0
2,35,0,96
2,35,0,0
2,35,100,24
2,35,0,96
2,35,100,24
2,35,0,96
2,35,100,24
2,35,0,96
2,35,100,24
2,35,0,96
2,35,100,24
2,35,0,96
2,35,100,24
2,35,0,96
2,28,100,24
2,28,0,192
2,42,100,48
2,42,0,216
2,40,100,24
2,40,0,96
2,39,100,24
2,39,0,192
2,33,100,48
2,33,0,288
2,33,100,72
2,33,0,96
2,31,100,24
2,31,0,288
2,33,100,72
2,33,0,312
2,33,100,48
2,33,0,192
2,31,100,48
2,31,0,288
2,31,100,72
2,31,0,96
2,33,100,24
2,33,0,288
2,33,100,72
2,33,0,96
2,31,100,24
2,31,0,288
2,33,100,72
2,33,0,216
2,28,100,24
2,28,0,96
2,30,100,24
2,30,0,96
2,28,100,24
2,28,0,96
2,31,100,24
2,31,0,96
2,28,100,24
2,28,0,96
2,33,100,24
2,33,0,96
2,28,100,24
2,28,0,96
2,34,100,24
2,34,0,96
2,35,100,24
2,35,0,96
2,39,100,144
2,39,0,96
2,40,100,24
2,40,0,96
2,34,100,144
2,34,0,96
2,35,100,24
2,35,0,216
2,35,100,24
2,35,0,96
2,35,100,24
2,35,0,96
2,35,100,24
2,35,0,96
2,35,100,24
2,35,0,96
2,35,100,24
2,35,0,96
2,35,100,24
2,35,0,96
2,34,100,24
2,34,0,48
2,34,100,12
2,34,0,48
2,34,100,12
2,34,0,96
2,35,100,24
2,35,0,192
2,39,100,48
2,39,0,96
2,40,100,24
2,40,0,96
2,33,100,24
2,33,0,96
2,34,100,24
2,34,0,96
2,35,100,24
2,35,0,96
2,35,100,24
2,35,0,96
2,35,100,24
2,35,0,96
2,35,100,24
2,35,0,96
2,35,100,24
2,35,0,48
2,35,100,12
2,35,0,48
2,35,100,12
2,35,0,96
2,35,100,24
2,35,0,96
2,35,100,24
2,35,0,96
2,34,100,24
2,34,0,48
2,34,100,12
2,34,0,48
2,34,100,12
2,34,0,96
2,35,100,24
2,35,0,192
2,39,100,48
2,39,0,96
2,40,100,24
2,40,0,96
2,33,100,24
2,33,0,96
2,34,100,24
2,34,0,96
2,35,100,24
2,35,0,216
2,35,100,24
2,35,0,96
2,35,100,24
2,35,0,96
2,35,100,24
2,35,0,48
2,35,100,12
2,35,0,48
2,35,100,12
2,35,0,96
2,35,100,24
2,35,0,96
2,35,100,24
2,35,0,96
2,34,100,24
2,34,0,48
2,34,100,12
2,34,0,48
2,34,100,12
2,34,0,96
2,35,100,24
2,35,0,192
2,39,100,48
2,39,0,96
2,40,100,24
2,40,0,96
2,33,100,24
2,33,0,96
2,34,100,24
2,34,0,96
2,35,100,24
2,35,0,216
2,35,100,24
2,35,0,96
2,35,100,24
2,35,0,96
2,35,100,24
2,35,0,48
2,35,100,12
2,35,0,48
2,35,100,12
2,35,0,96
2,35,100,24
2,35,0,96
2,35,100,24
2,35,0,96
2,34,100,24
2,34,0,48
2,34,100,12
2,34,0,48
2,34,100,12
2,34,0,96
2,35,100,24
2,35,0,192
2,39,100,48
2,39,0,96
2,40,100,24
2,40,0,96
2,33,100,24
2,33,0,96
2,34,100,24
2,34,0,96
2,35,100,24
2,35,0,216
2,51,100,24
2,51,0,96
2,51,100,24
2,51,0,96
2,35,100,24
2,35,0,48
2,35,100,12
2,35,0,48
2,51,100,12
2,51,0,96
