track,note,velocity,time
3,36,82,672
3,36,0,140
3,40,82,52
3,40,0,92
3,43,73,4
3,43,0,71
3,36,73,25
3,36,0,178
3,43,56,14
3,43,0,77
3,43,73,19
3,43,0,87
3,38,73,9
3,38,0,172
3,41,73,20
3,41,0,85
3,45,73,11
3,45,0,80
3,38,73,16
3,38,0,183
3,41,73,9
3,41,0,85
3,45,64,11
3,45,0,78
3,38,64,18
3,38,0,167
3,41,73,25
3,41,0,86
3,45,64,10
3,45,0,89
3,38,60,7
3,38,0,182
3,41,73,10
3,41,0,93
3,45,73,3
3,45,0,93
3,43,73,3
3,43,0,184
3,38,64,8
3,38,0,85
3,38,64,11
3,38,0,93
3,43,73,3
3,43,0,57
3,36,73,327
3,36,0,159
3,40,73,33
3,40,0,85
3,43,73,11
3,43,0,76
3,36,73,20
3,36,0,159
3,40,64,33
3,40,0,80
3,43,64,16
3,43,0,74
3,38,73,22
3,38,0,176
3,41,82,16
3,41,0,82
3,45,73,14
3,45,0,79
3,38,64,17
3,38,0,172
3,41,64,20
3,41,0,89
3,45,73,7
3,45,0,80
3,38,64,16
3,38,0,180
3,41,64,12
3,41,0,85
3,45,82,11
3,45,0,83
3,38,73,13
3,38,0,172
3,41,64,20
3,45,64,96
3,41,0,6
3,45,0,84
3,43,73,6
3,43,0,190
3,38,73,2
3,38,0,79
3,38,73,17
3,38,0,85
3,43,70,11
3,43,0,123
3,43,70,21
3,43,0,27
3,47,73,21
3,47,0,86
3,50,70,10
3,47,68,48
3,50,0,3
3,47,0,33
3,36,73,12
3,36,0,173
3,40,73,18
3,40,0,88
3,43,82,8
3,43,0,85
3,36,91,6
3,36,0,188
3,40,82,4
3,40,0,94
3,43,73,4
3,43,0,76
3,45,73,24
3,45,0,162
3,48,82,22
3,48,0,176
3,36,64,24
3,36,0,91
3,43,73,98
3,43,0,72
3,40,73,21
3,40,0,75
3,41,91,27
3,41,0,160
3,45,91,32
3,45,0,77
3,48,73,19
3,48,0,80
3,41,82,16
3,41,0,175
3,45,82,17
3,45,0,90
3,48,73,6
3,48,0,94
3,41,73,2
3,41,0,172
3,41,64,20
3,41,0,84
3,41,82,12
3,41,0,82
3,43,82,14
3,43,0,53
3,36,82,331
3,36,0,184
3,40,73,8
3,40,0,86
3,43,73,10
3,43,0,79
3,36,82,17
3,36,0,174
3,40,82,18
3,43,91,96
3,40,0,3
3,43,0,61
3,45,73,32
3,45,0,187
3,36,82,5
3,36,0,91
3,40,73,5
3,40,0,81
3,45,82,15
3,45,0,189
3,36,73,3
3,36,0,89
3,40,73,7
3,40,0,89
3,38,73,7
3,41,82,192
3,38,0,2
3,41,0,93
3,45,73,1
3,45,0,86
3,43,82,10
3,43,0,190
3,35,73,2
3,35,0,89
3,38,82,7
3,38,0,84
3,36,73,12
3,40,82,192
3,36,0,6
3,40,0,85
3,43,73,5
3,43,0,89
3,36,73,7
3,36,0,89
3,36,82,295
3,36,0,140
3,40,82,52
3,40,0,92
3,43,73,4
3,43,0,71
3,36,73,25
3,36,0,178
3,43,56,14
3,43,0,77
3,43,73,19
3,43,0,87
3,38,73,9
3,38,0,172
3,41,73,20
3,41,0,85
3,45,73,11
3,45,0,80
3,38,73,16
3,38,0,183
3,41,73,9
3,41,0,85
3,45,64,11
3,45,0,78
3,38,64,18
3,38,0,167
3,41,73,25
3,41,0,86
3,45,64,10
3,45,0,89
3,38,60,7
3,38,0,182
3,41,73,10
3,41,0,93
3,45,73,3
3,45,0,93
3,43,73,3
3,43,0,184
3,38,64,8
3,38,0,85
3,38,64,11
3,38,0,93
3,43,73,3
3,43,0,57
3,36,73,327
3,36,0,159
3,40,73,33
3,40,0,85
3,43,73,11
3,43,0,76
3,36,73,20
3,36,0,159
3,40,64,33
3,40,0,80
3,43,64,16
3,43,0,74
3,38,73,22
3,38,0,176
3,41,82,16
3,41,0,82
3,45,73,14
3,45,0,79
3,38,64,17
3,38,0,172
3,41,64,20
3,41,0,89
3,45,73,7
3,45,0,80
3,38,64,16
3,38,0,180
3,41,64,12
3,41,0,85
3,45,82,11
3,45,0,83
3,38,73,13
3,38,0,172
3,41,64,20
3,45,64,96
3,41,0,6
3,45,0,84
3,43,73,6
3,43,0,190
3,38,73,2
3,38,0,79
3,38,73,17
3,38,0,85
3,43,70,11
3,43,0,123
3,43,70,21
3,43,0,27
3,47,73,21
3,47,0,86
3,50,70,10
3,47,68,48
3,50,0,3
3,47,0,33
3,36,73,12
3,36,0,173
3,40,73,18
3,40,0,88
3,43,82,8
3,43,0,85
3,36,91,6
3,36,0,188
3,40,82,4
3,40,0,94
3,43,73,4
3,43,0,76
3,45,73,24
3,45,0,162
3,48,82,22
3,48,0,176
3,36,64,24
3,36,0,91
3,43,73,98
3,43,0,72
3,40,73,21
3,40,0,75
3,41,91,27
3,41,0,160
3,45,91,32
3,45,0,77
3,48,73,19
3,48,0,80
3,41,82,16
3,41,0,175
3,45,82,17
3,45,0,90
3,48,73,6
3,48,0,94
3,41,73,2
3,41,0,172
3,38,64,20
3,38,0,84
3,38,82,12
3,38,0,82
3,43,82,14
3,43,0,53
3,36,82,331
3,36,0,140
3,40,82,52
3,40,0,92
3,43,73,4
3,43,0,71
3,36,73,25
3,36,0,178
3,43,56,14
3,43,0,77
3,43,73,19
3,43,0,87
3,38,73,9
3,38,0,172
3,41,73,20
3,41,0,85
3,45,73,11
3,45,0,80
3,38,73,16
3,38,0,183
3,41,73,9
3,41,0,85
3,45,64,11
3,45,0,78
3,38,64,18
3,38,0,167
3,41,73,25
3,41,0,86
3,45,64,10
3,45,0,89
3,38,60,7
3,38,0,182
3,41,73,10
3,41,0,93
3,45,73,3
3,45,0,93
3,43,73,3
3,43,0,184
3,38,64,8
3,38,0,85
3,38,64,11
3,38,0,93
3,43,73,3
3,43,0,57
3,36,73,327
3,36,0,159
3,40,73,33
3,40,0,85
3,43,73,11
3,43,0,76
3,36,73,20
3,36,0,159
3,40,64,33
3,40,0,80
3,43,64,16
3,43,0,74
3,38,73,22
3,38,0,176
3,41,82,16
3,41,0,82
3,45,73,14
3,45,0,79
3,38,64,17
3,38,0,172
3,41,64,20
3,41,0,89
3,45,73,7
3,45,0,80
3,38,64,16
3,38,0,180
3,41,64,12
3,41,0,85
3,45,82,11
3,45,0,83
3,38,73,13
3,38,0,172
3,41,64,20
3,45,64,96
3,41,0,6
3,45,0,84
3,43,73,6
3,43,0,190
3,38,73,2
3,38,0,79
3,38,73,17
3,38,0,85
3,43,70,11
3,43,0,123
3,43,70,21
3,43,0,27
3,47,73,21
3,47,0,86
3,50,70,10
3,47,68,48
3,50,0,3
3,47,0,33
3,36,73,12
3,36,0,173
3,40,73,18
3,40,0,88
3,43,82,8
3,43,0,85
3,36,91,6
3,36,0,188
3,40,82,4
3,40,0,94
3,43,73,4
3,43,0,76
3,33,73,24
3,33,0,162
3,36,82,22
3,36,0,176
3,45,73,24
3,45,0,162
3,48,82,22
3,48,0,176
3,38,60,24
3,38,0,182
3,41,73,10
3,41,0,93
3,45,73,3
3,45,0,93
3,43,73,3
3,43,0,57
3,36,82,327
3,36,0,140
3,40,82,52
3,40,0,92
3,43,73,4
3,43,0,71
3,36,73,25
3,36,0,178
3,43,56,14
3,43,0,77
3,43,73,19
3,43,0,87
3,36,73,9
3,36,0,150
4,60,52,724
4,64,64,17
4,60,0,17
4,67,73,1
4,64,0,10
4,67,0,26
4,64,60,25
4,64,0,26
4,72,48,19
4,72,0,22
4,67,48,24
4,67,0,24
4,64,60,24
4,64,0,36
4,67,56,11
4,67,0,26
4,60,52,76
4,64,64,17
4,60,0,17
4,67,73,1
4,64,0,10
4,67,0,26
4,64,60,25
4,64,0,26
4,72,48,19
4,72,0,22
4,67,48,24
4,67,0,24
4,64,60,24
4,64,0,36
4,67,56,11
4,67,0,26
4,57,48,79
4,62,60,21
4,57,0,15
4,65,60,1
4,62,0,7
4,65,0,25
4,62,44,27
4,62,0,33
4,69,64,2
4,69,0,41
4,65,48,10
4,65,0,30
4,62,60,19
4,62,0,35
4,65,56,10
4,65,0,42
4,57,56,9
4,57,0,20
4,57,48,33
4,62,60,17
4,57,0,11
4,65,73,6
4,62,0,8
4,65,0,23
4,62,60,27
4,62,0,24
4,69,60,23
4,69,0,33
4,65,36,11
4,65,0,38
4,62,60,13
4,62,0,38
4,65,56,6
4,65,0,19
4,57,48,91
4,62,60,21
4,57,0,15
4,65,60,1
4,62,0,7
4,65,0,25
4,62,44,27
4,62,0,33
4,69,64,2
4,69,0,41
4,65,48,10
4,65,0,30
4,62,60,19
4,62,0,35
4,65,56,10
4,65,0,42
4,57,48,62
4,62,60,17
4,57,0,11
4,65,73,6
4,62,0,8
4,65,0,23
4,62,60,27
4,62,0,24
4,69,60,23
4,69,0,33
4,65,36,11
4,65,0,38
4,62,60,13
4,62,0,38
4,65,56,6
4,65,0,19
4,59,48,93
4,62,60,13
4,59,0,14
4,67,60,5
4,62,0,9
4,67,0,18
4,62,64,30
4,62,0,36
4,71,64,8
4,71,0,26
4,62,56,20
4,62,0,23
4,59,73,23
4,59,0,37
4,62,64,11
4,62,0,26
4,55,73,26
4,55,0,29
4,60,52,409
4,64,64,17
4,60,0,17
4,67,73,1
4,64,0,10
4,67,0,26
4,64,60,25
4,64,0,26
4,72,48,19
4,72,0,22
4,67,48,24
4,67,0,24
4,64,60,24
4,64,0,36
4,67,56,11
4,67,0,26
4,60,52,76
4,64,64,17
4,60,0,17
4,67,73,1
4,64,0,10
4,67,0,26
4,64,60,25
4,64,0,26
4,72,48,19
4,72,0,22
4,67,48,24
4,67,0,24
4,64,60,24
4,64,0,36
4,67,56,11
4,67,0,26
4,57,48,79
4,62,60,21
4,57,0,15
4,65,60,1
4,62,0,7
4,65,0,25
4,62,44,27
4,62,0,33
4,69,64,2
4,69,0,41
4,65,48,10
4,65,0,30
4,62,60,19
4,62,0,35
4,65,56,10
4,65,0,42
4,57,48,62
4,62,60,17
4,57,0,11
4,65,73,6
4,62,0,8
4,65,0,23
4,62,60,27
4,62,0,24
4,69,60,23
4,69,0,33
4,65,36,11
4,65,0,38
4,62,60,13
4,62,0,38
4,65,56,6
4,65,0,19
4,57,48,91
4,62,60,21
4,57,0,15
4,65,60,1
4,62,0,7
4,65,0,25
4,62,44,27
4,62,0,33
4,69,64,2
4,69,0,41
4,65,48,10
4,65,0,30
4,62,60,19
4,62,0,35
4,65,56,10
4,65,0,42
4,57,48,62
4,62,60,17
4,57,0,11
4,65,73,6
4,62,0,8
4,65,0,23
4,62,60,27
4,62,0,24
4,69,60,23
4,69,0,33
4,65,36,11
4,65,0,38
4,62,60,13
4,62,0,38
4,65,56,6
4,65,0,19
4,59,48,93
4,62,60,13
4,59,0,14
4,67,60,5
4,62,0,9
4,67,0,18
4,62,64,30
4,62,0,36
4,71,64,8
4,71,0,26
4,62,56,20
4,62,0,23
4,59,73,23
4,59,0,37
4,62,64,11
4,62,0,26
4,55,64,28
4,55,0,30
4,59,48,27
4,62,60,13
4,59,0,14
4,67,60,5
4,62,0,9
4,67,0,18
4,62,64,30
4,62,0,36
4,71,64,8
4,71,0,26
4,62,56,20
4,62,0,23
4,59,73,23
4,59,0,37
4,62,64,11
4,62,0,26
4,60,56,76
4,64,73,17
4,60,0,3
4,67,73,13
4,64,0,6
4,67,0,21
4,64,73,30
4,64,0,21
4,72,73,29
4,72,0,30
4,67,73,18
4,67,0,26
4,67,64,24
4,67,0,60
4,60,56,86
4,64,73,17
4,60,0,3
4,67,73,13
4,64,0,6
4,67,0,21
4,64,73,30
4,64,0,21
4,72,73,29
4,72,0,30
4,67,73,18
4,67,0,26
4,67,64,24
4,67,0,60
4,60,56,97
4,64,64,13
4,60,0,10
4,67,64,3
4,64,0,3
4,67,0,22
4,64,60,27
4,64,0,22
4,72,60,27
4,72,0,34
4,67,60,15
4,67,0,23
4,67,73,26
4,67,0,60
4,60,64,102
4,64,60,20
4,60,0,6
4,70,64,10
4,64,0,6
4,70,0,17
4,64,64,22
4,64,0,26
4,72,73,19
4,72,0,23
4,67,52,20
4,67,0,20
4,67,64,35
4,67,0,60
4,57,52,87
4,60,60,15
4,57,0,15
4,65,60,2
4,60,0,7
4,65,0,16
4,60,52,37
4,60,0,16
4,69,64,29
4,69,0,25
4,65,48,23
4,65,0,24
4,57,52,175
4,60,60,15
4,57,0,15
4,65,60,2
4,60,0,7
4,65,0,16
4,60,52,37
4,60,0,16
4,69,64,29
4,69,0,25
4,65,48,23
4,65,0,24
4,57,52,175
4,60,60,15
4,57,0,15
4,65,60,2
4,60,0,7
4,65,0,16
4,60,52,37
4,60,0,16
4,69,64,29
4,69,0,25
4,65,48,23
4,65,0,24
4,67,64,126
4,67,0,22
4,60,48,415
4,64,73,16
4,60,0,10
4,67,73,8
4,64,0,2
4,67,0,21
4,64,60,32
4,64,0,17
4,72,64,31
4,72,0,26
4,67,56,21
4,67,0,19
4,64,60,30
4,64,0,18
4,67,16,28
4,67,0,2
4,60,52,96
4,64,56,20
4,60,0,1
4,67,56,19
4,64,0,3
4,67,0,17
4,64,60,37
4,64,0,16
4,72,60,31
4,72,0,24
4,67,60,23
4,67,0,16
4,64,60,36
4,64,0,18
4,57,27,132
4,60,56,20
4,57,0,9
4,64,64,5
4,60,0,3
4,64,0,23
4,60,52,28
4,60,0,18
4,69,60,24
4,69,0,31
4,64,44,21
4,64,0,15
4,60,31,35
4,60,0,16
4,64,52,29
4,64,0,14
4,57,30,81
4,60,64,16
4,57,0,5
4,64,64,14
4,60,0,5
4,64,0,18
4,60,52,39
4,60,0,16
4,69,64,31
4,69,0,26
4,64,52,22
4,64,0,16
4,60,64,37
4,60,0,23
4,64,56,18
4,64,0,17
4,57,52,90
4,62,60,15
4,57,0,17
4,65,64,2
4,62,0,8
4,65,0,17
4,62,56,27
4,62,0,20
4,69,73,32
4,69,0,32
4,65,60,16
4,65,0,19
4,62,56,29
4,62,0,19
4,65,73,29
4,65,0,20
4,59,40,90
4,62,56,10
4,59,0,14
4,67,64,2
4,62,0,8
4,67,0,16
4,62,64,32
4,62,0,22
4,71,73,26
4,71,0,25
4,67,56,21
4,67,0,24
4,62,56,26
4,62,0,28
4,67,64,16
4,67,0,20
4,67,73,34
4,67,0,30
4,60,52,790
4,64,64,17
4,60,0,17
4,67,73,1
4,64,0,10
4,67,0,26
4,64,60,25
4,64,0,26
4,72,48,19
4,72,0,22
4,67,48,24
4,67,0,24
4,64,60,24
4,64,0,36
4,67,56,11
4,67,0,26
4,60,52,76
4,64,64,17
4,60,0,17
4,67,73,1
4,64,0,10
4,67,0,26
4,64,60,25
4,64,0,26
4,72,48,19
4,72,0,22
4,67,48,24
4,67,0,24
4,64,60,24
4,64,0,36
4,67,56,11
4,67,0,26
4,57,48,79
4,62,60,21
4,57,0,15
4,65,60,1
4,62,0,7
4,65,0,25
4,62,44,27
4,62,0,33
4,69,64,2
4,69,0,41
4,65,48,10
4,65,0,30
4,62,60,19
4,62,0,35
4,65,56,10
4,65,0,42
4,57,56,9
4,57,0,20
4,57,48,33
4,62,60,17
4,57,0,11
4,65,73,6
4,62,0,8
4,65,0,23
4,62,60,27
4,62,0,24
4,69,60,23
4,69,0,33
4,65,36,11
4,65,0,38
4,62,60,13
4,62,0,38
4,65,56,6
4,65,0,19
4,57,48,91
4,62,60,21
4,57,0,15
4,65,60,1
4,62,0,7
4,65,0,25
4,62,44,27
4,62,0,33
4,69,64,2
4,69,0,41
4,65,48,10
4,65,0,30
4,62,60,19
4,62,0,35
4,65,56,10
4,65,0,42
4,57,48,62
4,62,60,17
4,57,0,11
4,65,73,6
4,62,0,8
4,65,0,23
4,62,60,27
4,62,0,24
4,69,60,23
4,69,0,33
4,65,36,11
4,65,0,38
4,62,60,13
4,62,0,38
4,65,56,6
4,65,0,19
4,59,48,93
4,62,60,13
4,59,0,14
4,67,60,5
4,62,0,9
4,67,0,18
4,62,64,30
4,62,0,36
