track,note,velocity,time
0,58,90,192
0,55,90,0
0,63,90,0
0,39,100,0
0,63,80,0
0,58,80,0
0,55,80,0
0,63,100,0
0,51,100,0
0,35,120,0
0,49,75,0
0,58,69,11
0,55,69,0
0,63,69,0
0,67,100,0
0,55,100,0
0,51,80,0
0,58,92,11
0,55,92,0
0,63,92,0
0,51,80,0
0,87,100,3
0,75,100,0
0,58,67,11
0,55,67,0
0,63,67,0
0,70,100,0
0,58,100,0
0,51,80,0
0,39,110,0
0,58,90,11
0,55,90,0
0,63,90,0
0,46,100,0
0,67,100,0
0,55,100,0
0,51,80,0
0,39,90,0
0,35,100,0
0,86,100,3
0,74,100,0
0,58,65,11
0,55,65,0
0,63,65,0
0,43,100,0
0,75,100,0
0,63,100,0
0,51,80,0
0,35,120,0
0,58,90,9
0,55,90,0
0,63,90,0
0,70,100,0
0,58,100,0
0,51,55,0
0,79,100,3
0,67,100,0
0,58,65,11
0,55,65,0
0,63,65,0
0,46,100,0
0,67,100,0
0,55,100,0
0,51,80,0
0,39,110,0
0,58,90,11
0,55,90,0
0,63,90,0
0,46,100,0
0,70,100,0
0,58,100,0
0,51,55,0
0,39,90,0
0,82,80,11
0,70,80,0
0,84,100,3
0,72,100,0
0,58,90,5
0,55,90,0
0,63,90,0
0,39,100,0
0,63,100,0
0,51,100,0
0,51,80,0
0,35,120,0
0,58,69,11
0,55,69,0
0,63,69,0
0,67,100,0
0,55,100,0
0,51,80,0
0,58,90,11
0,55,90,0
0,63,90,0
0,51,80,0
0,82,100,3
0,70,100,0
0,58,66,11
0,55,66,0
0,63,66,0
0,70,100,0
0,58,100,0
0,51,80,0
0,39,110,0
0,58,90,11
0,55,90,0
0,63,90,0
0,46,100,0
0,67,100,0
0,55,100,0
0,51,80,0
0,35,100,0
0,47,100,0
0,58,67,11
0,55,67,0
0,63,67,0
0,43,100,0
0,75,100,0
0,63,100,0
0,51,80,0
0,35,120,0
0,58,90,11
0,55,90,0
0,63,90,0
0,70,100,0
0,58,100,0
0,51,55,0
0,58,67,11
0,55,67,0
0,63,67,0
0,46,100,0
0,67,100,0
0,55,100,0
0,51,80,0
0,39,110,0
0,58,90,11
0,55,90,0
0,63,90,0
0,34,100,0
0,65,121,0
0,70,100,0
0,58,100,0
0,51,55,0
0,39,90,0
0,63,80,3
0,58,80,0
0,55,80,0
0,58,90,5
0,55,90,0
0,63,90,0
0,39,100,0
0,67,121,0
0,63,100,0
0,51,100,0
0,35,120,0
0,49,75,0
0,58,67,11
0,55,67,0
0,63,67,0
0,67,100,0
0,55,100,0
0,51,80,0
0,58,90,11
0,55,90,0
0,63,90,0
0,51,80,0
0,58,68,11
0,55,68,0
0,63,68,0
0,70,100,0
0,58,100,0
0,51,80,0
0,39,110,0
0,58,90,11
0,55,90,0
0,63,90,0
0,46,100,0
0,67,100,0
0,55,100,0
0,51,80,0
0,39,90,0
0,35,100,0
0,58,69,11
0,55,69,0
0,63,69,0
0,43,100,0
0,63,121,0
0,75,100,0
0,63,100,0
0,51,80,0
0,35,120,0
0,58,100,3
0,58,90,11
0,55,90,0
0,63,90,0
0,70,100,0
0,58,100,0
0,58,100,0
0,51,55,0
0,63,100,3
0,58,70,11
0,55,70,0
0,63,70,0
0,46,100,0
0,67,100,0
0,55,100,0
0,63,100,0
0,51,80,0
0,39,110,0
0,67,100,3
0,58,90,11
0,55,90,0
0,63,90,0
0,46,100,0
0,70,100,0
0,58,100,0
0,67,100,0
0,51,55,0
0,39,90,0
0,72,100,3
0,68,100,0
0,58,69,5
0,55,69,0
0,63,69,0
0,39,100,0
0,63,100,0
0,51,100,0
0,72,100,0
0,51,80,0
0,35,120,0
0,58,67,11
0,55,67,0
0,63,67,0
0,67,100,0
0,55,100,0
0,51,80,0
0,58,90,11
0,55,90,0
0,63,90,0
0,51,80,0
0,70,100,3
0,67,100,0
0,58,70,11
0,55,70,0
0,63,70,0
0,67,121,0
0,70,100,0
0,58,100,0
0,70,100,0
0,51,80,0
0,39,110,0
0,58,90,11
0,55,90,0
0,63,90,0
0,46,100,0
0,67,121,0
0,67,100,0
0,55,100,0
0,51,80,0
0,39,90,0
0,35,100,0
0,58,66,11
0,55,66,0
0,63,66,0
0,43,100,0
0,67,121,0
0,75,100,0
0,63,100,0
0,51,80,0
0,35,120,0
0,58,90,11
0,55,90,0
0,63,90,0
0,70,100,0
0,58,100,0
0,51,55,0
0,58,65,9
0,55,65,0
0,63,65,0
0,46,100,0
0,65,121,0
0,67,100,0
0,55,100,0
0,51,80,0
0,39,110,0
0,58,90,11
0,55,90,0
0,63,90,0
0,39,100,0
0,63,121,0
0,70,100,0
0,58,100,0
0,51,55,0
0,39,90,0
0,65,80,3
0,60,80,0
0,56,80,0
0,60,90,3
0,56,90,0
0,65,90,0
0,41,100,0
0,60,121,0
0,65,100,0
0,53,100,0
0,51,80,0
0,35,120,0
0,60,67,3
0,56,67,0
0,65,67,0
0,68,100,0
0,56,100,0
0,51,80,0
0,60,90,11
0,56,90,0
0,65,90,0
0,51,80,0
0,60,68,11
0,56,68,0
0,65,68,0
0,68,121,0
0,72,100,0
0,60,100,0
0,51,80,0
0,39,110,0
0,60,90,11
0,56,90,0
0,65,90,0
0,48,100,0
0,68,100,0
0,56,100,0
0,51,80,0
0,39,90,0
0,35,100,0
0,60,65,11
0,56,65,0
0,65,65,0
0,44,100,0
0,77,100,0
0,65,100,0
0,51,80,0
0,35,120,0
0,60,100,3
0,60,90,11
0,56,90,0
0,65,90,0
0,72,100,0
0,60,100,0
0,51,55,0
0,68,100,3
0,65,100,0
0,60,68,11
0,56,68,0
0,65,68,0
0,48,100,0
0,68,100,0
0,56,100,0
0,51,80,0
0,39,110,0
0,72,100,3
0,60,90,11
0,56,90,0
0,65,90,0
0,48,100,0
0,72,100,0
0,60,100,0
0,51,55,0
0,39,90,0
0,72,100,1
0,68,100,0
0,60,90,5
0,56,90,0
0,65,90,0
0,41,100,0
0,65,100,0
0,53,100,0
0,72,100,0
0,51,80,0
0,35,120,0
0,60,65,11
0,56,65,0
0,65,65,0
0,68,100,0
0,56,100,0
0,51,80,0
0,60,90,11
0,56,90,0
0,65,90,0
0,51,80,0
0,79,100,3
0,60,65,11
0,56,65,0
0,65,65,0
0,72,100,0
0,60,100,0
0,68,100,0
0,51,80,0
0,39,110,0
0,60,90,11
0,56,90,0
0,65,90,0
0,48,100,0
0,68,100,0
0,56,100,0
0,51,80,0
0,39,90,0
0,35,100,0
0,75,100,3
0,60,65,11
0,56,65,0
0,65,65,0
0,44,100,0
0,77,100,0
0,65,100,0
0,72,100,0
0,51,80,0
0,35,120,0
0,60,90,11
0,56,90,0
0,65,90,0
0,72,100,0
0,60,100,0
0,51,55,0
0,60,67,11
0,56,67,0
0,65,67,0
0,48,100,0
0,68,100,0
0,56,100,0
0,51,80,0
0,39,110,0
0,60,90,11
0,56,90,0
0,65,90,0
0,44,100,0
0,63,121,0
0,72,100,0
0,60,100,0
0,51,55,0
0,39,90,0
0,65,80,0
0,62,80,0
0,58,80,0
0,62,90,5
0,58,90,0
0,65,90,0
0,41,100,0
0,65,121,0
0,65,100,0
0,53,100,0
0,51,80,0
0,35,120,0
0,62,66,11
0,58,66,0
0,65,66,0
0,70,100,0
0,58,100,0
0,51,80,0
0,62,90,11
0,58,90,0
0,65,90,0
0,51,80,0
0,62,67,11
0,58,67,0
0,65,67,0
0,74,100,0
0,62,100,0
0,51,80,0
0,39,110,0
0,62,90,11
0,58,90,0
0,65,90,0
0,46,100,0
0,70,100,0
0,58,100,0
0,51,80,0
0,39,90,0
0,35,100,0
0,62,65,4
0,58,65,0
0,65,65,0
0,38,100,0
0,62,121,0
0,77,100,0
0,65,100,0
0,51,80,0
0,35,120,0
0,62,90,11
0,58,90,0
0,65,90,0
0,74,100,0
0,62,100,0
0,51,55,0
0,62,63,11
0,58,63,0
0,65,63,0
0,46,100,0
0,70,100,0
0,58,100,0
0,70,100,0
0,51,80,0
0,39,110,0
0,62,90,11
0,58,90,0
0,65,90,0
0,46,100,0
0,74,100,0
0,62,100,0
0,72,100,0
0,51,55,0
0,39,90,0
0,62,90,5
0,58,90,0
0,65,90,0
0,41,100,0
0,65,100,0
0,53,100,0
0,70,100,0
0,51,80,0
0,35,120,0
0,62,67,11
0,58,67,0
0,65,67,0
0,70,100,0
0,58,100,0
0,51,80,0
0,62,90,11
0,58,90,0
0,65,90,0
0,51,80,0
0,74,100,0
0,62,67,11
0,58,67,0
0,65,67,0
0,65,121,0
0,74,100,0
0,62,100,0
0,51,80,0
0,39,110,0
0,75,100,11
0,77,100,3
0,62,90,5
0,58,90,0
0,65,90,0
0,46,100,0
0,67,121,0
0,70,100,0
0,58,100,0
0,51,80,0
0,39,90,0
0,35,100,0
0,79,100,11
0,80,100,3
0,82,100,3
0,62,67,11
0,58,67,0
0,65,67,0
0,38,100,0
0,65,121,0
0,77,100,0
0,65,100,0
0,51,80,0
0,35,120,0
0,62,90,11
0,58,90,0
0,65,90,0
0,74,100,0
0,62,100,0
0,51,55,0
0,62,68,11
0,58,68,0
0,65,68,0
0,46,100,0
0,67,121,0
0,70,100,0
0,58,100,0
0,51,80,0
0,39,110,0
0,80,100,3
0,77,100,0
0,62,90,11
0,58,90,0
0,65,90,0
0,41,100,0
0,65,121,0
0,74,100,0
0,62,100,0
0,51,55,0
0,39,90,0
0,63,80,2
0,58,80,0
0,55,80,0
0,79,100,0
0,75,100,0
0,58,90,5
0,55,90,0
0,63,90,0
0,39,100,0
0,63,121,0
0,63,100,0
0,51,100,0
0,51,80,0
0,35,120,0
0,79,100,3
0,75,100,0
0,58,71,11
0,55,71,0
0,63,71,0
0,63,121,0
0,67,100,0
0,55,100,0
0,51,80,0
0,58,90,11
0,55,90,0
0,63,90,0
0,51,80,0
0,82,100,3
0,79,100,0
0,58,71,3
0,55,71,0
0,63,71,0
0,67,121,0
0,70,100,0
0,58,100,0
0,51,80,0
0,39,110,0
0,58,90,11
0,55,90,0
0,63,90,0
0,46,100,0
0,67,100,0
0,55,100,0
0,51,80,0
0,39,90,0
0,35,100,0
0,58,69,11
0,55,69,0
0,63,69,0
0,43,100,0
0,75,100,0
0,63,100,0
0,51,80,0
0,35,120,0
0,58,90,11
0,55,90,0
0,63,90,0
0,70,100,0
0,58,100,0
0,51,55,0
0,58,68,11
0,55,68,0
0,63,68,0
0,46,100,0
0,67,100,0
0,55,100,0
0,51,80,0
0,39,110,0
0,58,90,11
0,55,90,0
0,63,90,0
0,46,100,0
0,70,100,0
0,58,100,0
0,51,55,0
0,39,90,0
0,58,90,5
0,55,90,0
0,63,90,0
0,39,100,0
0,63,100,0
0,51,100,0
0,51,80,0
0,35,120,0
0,58,71,11
0,55,71,0
0,63,71,0
0,67,100,0
0,55,100,0
0,51,80,0
0,58,90,11
0,55,90,0
0,63,90,0
0,51,80,0
0,58,71,11
0,55,71,0
0,63,71,0
0,70,100,0
0,58,100,0
0,51,80,0
0,39,110,0
0,58,90,11
0,55,90,0
0,63,90,0
0,46,100,0
0,67,100,0
0,55,100,0
0,51,80,0
0,39,90,0
0,35,100,0
0,58,72,11
0,55,72,0
0,63,72,0
0,43,100,0
0,75,100,0
0,63,100,0
0,51,80,0
0,35,120,0
0,58,90,11
0,55,90,0
0,63,90,0
0,70,100,0
0,58,100,0
0,51,55,0
0,58,69,11
0,55,69,0
0,63,69,0
0,46,100,0
0,67,100,0
0,55,100,0
0,51,80,0
0,39,110,0
0,58,90,11
0,55,90,0
0,63,90,0
0,34,100,0
0,67,121,0
0,70,100,0
0,58,100,0
0,51,55,0
0,39,90,0
0,63,80,3
0,58,80,0
0,55,80,0
0,58,90,5
0,55,90,0
0,63,90,0
0,39,100,0
0,70,121,0
0,63,100,0
0,51,100,0
0,51,80,0
0,35,120,0
0,58,66,11
0,55,66,0
0,63,66,0
0,68,121,0
0,67,100,0
0,55,100,0
0,51,80,0
0,58,90,11
0,55,90,0
0,63,90,0
0,51,80,0
0,58,69,11
0,55,69,0
0,63,69,0
0,67,121,0
0,70,100,0
0,58,100,0
0,51,80,0
0,39,110,0
0,58,90,11
0,55,90,0
0,63,90,0
0,46,100,0
0,67,100,0
0,55,100,0
0,51,80,0
0,39,90,0
0,35,100,0
0,82,100,3
0,70,100,0
0,58,67,11
0,55,67,0
0,63,67,0
0,43,100,0
0,75,100,0
0,63,100,0
0,70,100,0
0,51,80,0
0,35,120,0
0,80,100,3
0,68,100,0
0,58,90,11
0,55,90,0
0,63,90,0
0,70,100,0
0,58,100,0
0,51,55,0
0,79,100,3
0,67,100,0
0,58,67,11
0,55,67,0
0,63,67,0
0,46,100,0
0,67,100,0
0,55,100,0
0,51,80,0
0,39,110,0
0,58,90,11
0,55,90,0
0,63,90,0
0,46,100,0
0,70,100,0
0,58,100,0
0,51,55,0
0,39,90,0
0,79,100,3
0,63,100,0
0,58,90,5
0,55,90,0
0,63,90,0
0,39,100,0
0,63,100,0
0,51,100,0
0,51,80,0
0,35,120,0
0,58,67,5
0,55,67,0
0,63,67,0
0,67,100,0
0,55,100,0
0,51,80,0
0,58,90,11
0,55,90,0
0,63,90,0
0,51,80,0
0,58,66,11
0,55,66,0
0,63,66,0
0,70,121,0
0,70,100,0
0,58,100,0
0,51,80,0
0,39,110,0
0,58,90,3
0,55,90,0
0,63,90,0
0,46,100,0
0,72,121,0
0,67,100,0
0,55,100,0
0,51,80,0
0,39,90,0
0,35,100,0
0,58,65,3
0,55,65,0
0,63,65,0
0,43,100,0
0,70,121,0
0,75,100,0
0,63,100,0
0,51,80,0
0,35,120,0
0,75,100,3
0,63,100,0
0,58,90,11
0,55,90,0
0,63,90,0
0,70,100,0
0,58,100,0
0,51,55,0
0,58,67,11
0,55,67,0
0,63,67,0
0,46,100,0
0,72,121,0
0,67,100,0
0,55,100,0
0,51,80,0
0,39,110,0
0,58,90,3
0,55,90,0
0,63,90,0
0,43,100,0
0,70,121,0
0,70,100,0
0,58,100,0
0,51,55,0
0,39,90,0
0,65,80,3
0,60,80,0
0,56,80,0
0,72,100,0
0,60,100,0
0,60,66,5
0,56,66,0
0,65,66,0
0,41,100,0
0,68,121,0
0,65,100,0
0,53,100,0
0,51,80,0
0,35,120,0
0,60,67,11
0,56,67,0
0,65,67,0
0,68,100,0
0,56,100,0
0,51,80,0
0,60,90,11
0,56,90,0
0,65,90,0
0,51,80,0
0,80,100,3
0,68,100,0
0,60,67,11
0,56,67,0
0,65,67,0
0,72,121,0
0,72,100,0
0,60,100,0
0,51,80,0
0,39,110,0
0,60,90,11
0,56,90,0
0,65,90,0
0,48,100,0
0,68,100,0
0,56,100,0
0,51,80,0
0,39,90,0
0,35,100,0
0,77,100,3
0,65,100,0
0,60,67,11
0,56,67,0
0,65,67,0
0,44,100,0
0,77,100,0
0,65,100,0
0,65,100,0
0,51,80,0
0,35,120,0
0,60,90,11
0,56,90,0
0,65,90,0
0,72,100,0
0,60,100,0
0,51,55,0
0,68,100,3
0,60,70,11
0,56,70,0
0,65,70,0
0,48,100,0
0,68,100,0
0,56,100,0
0,51,80,0
0,39,110,0
0,67,100,3
0,65,100,3
0,60,90,11
0,56,90,0
0,65,90,0
0,48,100,0
0,72,100,0
0,60,100,0
0,51,55,0
0,39,90,0
0,60,100,3
0,67,100,3
0,60,90,5
0,56,90,0
0,65,90,0
0,41,100,0
0,65,100,0
0,53,100,0
0,67,100,0
0,51,80,0
0,35,120,0
0,60,69,11
0,56,69,0
0,65,69,0
0,68,100,0
0,56,100,0
0,51,80,0
0,60,90,11
0,56,90,0
0,65,90,0
0,51,80,0
0,65,100,3
0,60,68,11
0,56,68,0
0,65,68,0
0,72,100,0
0,60,100,0
0,65,100,0
0,51,80,0
0,39,110,0
0,60,90,11
0,56,90,0
0,65,90,0
0,48,100,0
0,68,100,0
0,56,100,0
0,51,80,0
0,39,90,0
0,35,100,0
0,60,67,11
0,56,67,0
0,65,67,0
