track,note,velocity,time
3,43,84,870
3,55,95,0
3,59,70,61
3,62,71,58
3,67,97,64
3,62,0,58
3,62,58,2
3,59,0,54
3,59,53,2
3,55,0,56
3,55,93,1
3,59,0,67
3,59,39,0
3,62,0,55
3,62,48,0
3,67,0,60
3,67,87,0
3,43,0,55
3,43,92,2
3,55,0,1
3,55,100,0
3,45,86,59
3,57,87,0
3,59,0,61
3,62,0,5
3,43,0,1
3,55,0,0
3,45,0,0
3,57,0,0
3,67,0,1
3,47,93,0
3,59,95,0
3,63,77,61
3,66,51,56
3,71,81,60
3,66,0,51
3,66,56,2
3,63,0,63
3,63,72,2
3,59,0,58
3,59,92,2
3,63,0,58
3,63,66,2
3,66,0,57
3,66,29,8
3,71,0,55
3,71,76,2
3,66,0,58
3,66,62,1
3,47,0,2
3,47,63,2
3,63,0,60
3,63,69,1
3,48,85,51
3,60,89,6
3,59,0,9
3,63,0,1
3,71,0,0
3,47,0,0
3,66,0,0
3,64,58,53
3,67,83,55
3,72,92,62
3,67,0,59
3,67,70,3
3,64,0,58
3,64,44,0
3,60,0,56
3,60,101,1
3,64,0,69
3,64,16,1
3,67,0,48
3,67,69,0
3,72,0,62
3,72,87,1
3,67,0,57
3,67,70,0
3,64,0,63
3,64,27,0
3,50,72,64
3,62,70,0
3,64,0,7
3,72,0,0
3,48,0,0
3,67,0,0
3,60,0,0
3,66,53,50
3,69,56,55
3,74,79,61
3,69,0,61
3,69,63,1
3,50,0,58
3,66,0,1
3,50,66,1
3,66,71,0
3,62,0,62
3,50,0,1
3,50,86,0
3,62,79,0
3,50,0,17
3,66,0,2
3,62,0,0
3,69,0,1
3,74,0,0
3,43,89,338
3,55,97,0
3,59,59,65
3,62,53,57
3,67,90,59
3,62,0,63
3,62,45,1
3,59,0,57
3,59,64,0
3,55,0,62
3,55,81,0
3,59,0,60
3,59,45,1
3,62,0,57
3,62,36,0
3,67,0,54
3,67,87,0
3,55,0,58
3,43,0,0
3,43,94,0
3,55,101,0
3,45,87,57
3,57,84,4
3,45,0,59
3,43,0,0
3,55,0,1
3,59,0,0
3,57,0,0
3,67,0,1
3,62,0,0
3,47,72,8
3,59,82,0
3,63,78,55
3,66,59,56
3,71,71,60
3,66,0,62
3,66,53,0
3,63,0,60
3,63,65,0
3,59,0,65
3,47,0,2
3,47,75,1
3,59,79,0
3,71,0,6
3,63,0,0
3,66,0,0
3,63,67,53
3,66,40,60
3,71,75,56
3,66,0,59
3,66,45,0
3,63,0,57
3,63,71,0
3,48,81,61
3,60,90,0
3,63,0,7
3,71,0,1
3,59,0,0
3,47,0,0
3,66,0,1
3,64,40,54
3,67,69,56
3,72,70,63
3,67,0,58
3,67,70,7
3,64,0,60
3,64,35,0
3,48,0,54
3,60,0,0
3,60,81,1
3,48,80,1
3,72,0,10
3,64,0,0
3,67,0,0
3,64,48,54
3,67,77,52
3,72,95,66
3,67,0,61
3,67,70,1
3,64,0,61
3,64,27,0
3,50,74,59
3,62,60,0
3,69,67,0
3,66,46,2
3,48,0,4
3,64,0,1
3,67,0,0
3,60,0,0
3,72,0,1
3,62,0,48
3,62,22,0
3,66,0,3
3,66,43,1
3,62,0,55
3,62,58,0
3,69,0,6
3,66,0,0
3,69,33,0
3,66,31,1
3,50,0,51
3,66,0,2
3,62,0,1
3,62,64,0
3,66,59,0
3,50,44,1
3,50,0,55
3,50,75,1
3,64,92,2
3,62,0,61
3,62,76,0
3,62,0,57
3,62,76,0
3,50,0,2
3,57,81,0
3,50,77,1
3,66,0,5
3,64,0,1
3,69,0,0
3,62,0,30
3,57,0,1
3,50,0,5
3,43,87,317
3,55,93,0
3,59,53,65
3,62,39,56
3,67,91,56
3,62,0,65
3,62,38,3
3,59,0,57
3,59,68,1
3,55,0,60
3,55,83,2
3,59,0,62
3,59,47,1
3,62,0,54
3,62,58,1
3,67,0,59
3,67,93,1
3,55,0,55
3,43,0,2
3,43,89,0
3,55,105,0
3,45,77,58
3,57,78,2
3,55,0,57
3,43,0,1
3,59,0,0
3,62,0,0
3,45,0,0
3,67,0,1
3,57,0,1
3,47,73,5
3,59,79,0
3,63,76,58
3,66,58,57
3,71,74,63
3,66,0,59
3,66,63,0
3,63,0,60
3,63,73,0
3,59,0,61
3,59,74,3
3,63,0,58
3,63,68,1
3,66,0,59
3,66,53,1
3,71,0,53
3,71,75,0
3,66,0,62
3,66,58,0
3,63,0,58
3,63,70,0
3,47,0,59
3,48,81,1
3,60,97,0
3,71,0,1
3,63,0,0
3,59,0,1
3,66,0,0
3,64,46,62
3,67,71,61
3,72,80,60
3,67,0,57
3,67,70,5
3,64,0,58
3,64,37,0
3,60,0,60
3,60,83,0
3,64,0,61
3,64,47,1
3,67,0,57
3,67,70,0
3,72,0,60
3,72,85,0
3,67,0,56
3,67,72,0
3,64,0,58
3,64,26,0
3,48,0,64
3,67,0,2
3,60,0,0
3,72,0,0
3,64,0,0
3,50,76,3
3,62,73,0
3,66,56,0
3,69,51,0
3,66,0,3
3,50,0,0
3,50,60,0
3,66,59,0
3,62,0,2
3,69,0,0
3,62,55,0
3,69,42,0
3,62,0,51
3,62,36,1
3,69,0,1
3,69,34,0
3,66,0,4
3,66,24,0
3,69,0,51
3,62,0,1
3,66,0,1
3,62,47,0
3,69,39,0
3,66,35,1
3,69,0,56
3,66,0,1
3,62,0,0
3,62,51,0
3,66,44,0
3,69,51,0
3,69,0,61
3,66,0,0
3,62,0,1
3,69,41,0
3,62,37,1
3,66,24,0
3,62,0,49
3,69,0,1
3,62,32,0
3,69,34,0
3,76,93,66
3,50,0,2
3,50,79,1
3,81,93,0
3,78,27,11
3,76,0,49
3,76,92,1
3,74,69,64
3,69,0,52
3,50,0,1
3,50,77,0
3,69,96,0
3,62,0,62
3,62,82,0
3,64,79,62
3,43,97,59
3,55,99,0
3,69,0,4
3,50,0,0
3,66,0,1
3,62,0,1
3,64,0,0
3,76,0,0
3,74,0,0
3,78,0,0
3,81,0,0
3,59,70,55
3,62,54,59
3,67,99,65
3,55,0,1
3,55,100,0
3,59,0,7
3,59,35,1
3,43,0,41
3,55,0,1
3,59,0,3
3,43,85,5
3,55,106,0
3,59,90,0
3,57,92,56
3,45,93,2
3,59,0,59
3,59,92,0
3,63,92,3
3,47,87,1
3,54,88,0
3,43,0,1
3,62,0,0
3,45,0,1
3,67,0,0
3,55,0,0
3,57,0,0
3,59,0,62
3,59,60,1
3,54,0,52
3,54,62,4
3,66,96,55
3,54,0,2
3,54,46,1
3,59,0,57
3,59,63,0
3,54,0,61
3,54,46,2
3,63,0,58
3,47,0,0
3,66,0,2
3,59,0,0
3,48,90,0
3,55,94,0
3,60,93,0
3,64,82,0
3,54,0,2
3,60,0,60
3,60,57,1
3,55,0,64
3,55,48,1
3,55,0,52
3,64,0,0
3,55,91,1
3,64,83,0
3,60,0,61
3,60,60,0
3,55,0,48
3,55,57,0
3,62,90,62
3,50,94,1
3,66,81,0
3,69,75,0
3,55,0,4
3,64,0,0
3,60,0,0
3,48,0,1
3,62,0,65
3,62,53,0
3,50,0,54
3,50,84,3
3,64,107,53
3,69,0,2
3,69,98,1
3,66,0,1
3,66,76,3
3,64,0,59
3,64,101,1
3,62,0,58
3,62,73,2
3,62,0,57
3,55,94,0
3,59,84,0
3,62,80,0
3,43,100,1
3,66,0,2
3,64,0,1
3,50,0,1
3,69,0,0
3,61,42,0
3,61,0,11
3,55,0,54
3,55,41,1
3,55,0,51
3,55,64,1
3,62,0,54
3,62,92,3
3,43,0,56
3,55,0,0
3,43,101,7
3,55,109,0
3,45,84,52
3,57,89,0
3,47,90,64
3,54,87,0
3,59,0,1
3,59,89,0
3,55,0,4
3,43,0,0
3,62,0,1
3,45,0,0
3,57,0,0
3,54,0,60
3,54,32,0
3,59,0,52
3,59,83,2
3,59,0,61
3,63,106,0
3,59,76,1
3,59,0,60
3,59,71,2
3,54,0,57
3,54,59,0
3,47,0,4
3,47,70,0
3,60,89,60
3,64,72,0
3,48,89,1
3,55,88,0
3,54,0,1
3,63,0,0
3,47,0,2
3,59,0,0
3,60,0,21
3,60,49,37
3,55,0,52
3,55,43,2
3,55,0,58
3,64,0,0
3,64,78,1
3,55,85,1
3,48,0,56
3,48,80,3
3,60,0,1
3,60,85,0
3,55,0,1
3,55,53,0
3,48,0,59
3,48,82,1
3,55,0,1
3,64,0,1
3,55,58,0
3,64,66,0
3,50,88,61
3,57,83,0
3,66,76,0
3,62,72,1
3,55,0,5
3,60,0,0
3,64,0,1
3,48,0,0
3,62,0,11
3,57,0,3
3,50,0,1
3,66,0,2
3,55,78,331
3,43,83,1
3,59,59,60
3,62,39,65
3,67,84,55
3,62,0,61
3,62,48,2
3,59,0,55
3,59,68,1
3,55,0,61
3,55,77,0
3,59,0,61
3,59,45,0
3,62,0,68
3,62,25,0
3,67,0,52
3,67,70,0
3,43,0,60
3,43,94,0
3,55,0,1
3,59,0,0
3,55,102,1
3,59,95,0
3,45,87,57
3,59,0,6
3,59,76,2
3,63,86,55
3,59,0,1
3,47,92,0
3,54,71,0
3,59,57,0
3,55,0,2
3,43,0,1
3,45,0,0
3,67,0,1
3,62,0,1
3,59,0,59
3,59,70,1
3,63,0,52
3,63,89,3
3,71,74,55
3,66,62,62
3,63,0,60
3,63,63,0
3,59,0,64
3,59,58,0
3,63,0,55
3,63,70,0
3,66,0,61
3,66,32,2
3,71,0,61
3,71,62,0
3,47,0,55
3,66,0,0
3,66,85,0
3,47,96,1
3,63,0,60
3,63,88,0
3,54,0,55
3,47,0,2
3,59,0,1
3,63,0,0
3,48,77,0
3,60,76,0
3,71,0,1
3,66,0,0
3,64,42,64
3,67,60,53
3,72,83,63
3,67,0,54
3,67,61,10
3,64,0,57
3,64,35,0
3,60,0,63
3,60,80,0
3,64,0,64
3,64,38,1
3,67,0,53
3,67,69,0
3,72,0,62
3,72,75,0
3,48,0,57
3,67,0,1
3,60,0,0
3,48,90,0
3,60,70,0
3,67,77,0
3,64,0,65
3,64,47,0
3,50,76,58
3,62,71,0
3,69,63,0
3,48,0,1
3,66,45,0
3,60,0,1
3,64,0,1
3,67,0,0
3,72,0,1
3,69,0,51
3,62,0,0
3,62,35,0
3,69,46,0
3,62,0,60
3,62,59,0
3,69,0,5
3,69,27,0
3,66,0,49
3,50,0,1
3,64,108,0
3,69,0,1
3,50,99,0
3,66,89,0
3,69,96,0
3,64,0,65
3,64,99,0
3,69,0,5
3,69,61,1
3,62,0,53
3,62,79,0
3,62,0,60
3,57,90,0
3,62,86,0
3,50,0,1
3,50,94,0
3,66,0,6
3,64,0,1
3,69,0,0
3,62,0,31
3,57,0,0
3,50,0,3
3,55,84,319
3,55,0,3
3,43,82,1
3,55,85,0
3,59,55,57
3,62,56,62
3,67,94,58
3,62,0,63
3,62,38,0
3,59,0,53
3,59,64,1
3,55,0,60
3,55,88,1
3,59,0,62
3,59,57,0
3,43,0,53
3,43,80,1
3,71,27,36
3,71,0,34
3,71,103,0
3,79,102,0
3,43,0,58
3,43,66,1
3,74,81,0
3,67,0,57
3,67,95,0
3,59,0,62
3,47,80,1
3,59,77,0
3,67,0,1
3,55,0,0
3,62,0,0
3,43,0,1
3,74,0,0
3,79,0,0
3,71,0,0
3,63,77,54
3,66,54,55
3,71,87,64
3,66,0,62
3,66,32,0
3,63,0,54
3,63,74,0
3,59,0,61
3,59,84,2
3,63,0,59
3,63,70,1
3,47,0,55
3,47,75,10
3,63,0,17
3,63,60,0
3,63,0,40
3,71,0,0
3,63,114,1
3,71,98,0
3,63,0,56
3,47,0,1
3,66,0,0
3,47,86,1
3,63,98,0
3,66,84,0
3,63,0,59
3,63,98,0
3,47,0,60
3,71,0,0
3,59,0,2
3,66,0,0
3,63,0,0
3,48,86,0
3,60,95,0
3,64,57,66
3,67,69,59
3,72,91,56
3,67,0,59
3,67,70,3
3,64,0,59
3,64,45,2
3,60,0,57
3,60,104,0
3,64,0,65
3,64,31,0
3,67,0,58
3,67,70,1
3,72,0,58
3,72,92,2
3,67,0,58
3,67,69,2
3,64,0,52
3,64,53,2
3,50,85,64
3,62,86,0
3,60,0,4
3,67,0,1
3,48,0,0
3,72,0,0
3,64,0,1
3,66,51,51
3,69,78,59
3,50,0,61
3,50,85,1
3,74,92,0
3,50,0,59
3,69,0,1
3,50,68,0
3,69,73,2
3,66,0,54
3,50,0,1
3,66,70,1
3,50,56,1
3,50,0,56
3,74,0,2
3,66,0,0
3,62,0,0
3,50,86,0
3,62,99,0
3,69,0,1
3,64,104,59
3,69,94,2
3,66,68,4
3,64,0,56
3,64,99,3
3,69,0,5
3,69,29,1
3,50,0,50
3,50,98,1
3,57,109,0
3,62,0,1
3,62,100,0
3,50,0,65
3,50,87,0
3,52,85,0
3,57,0,54
3,57,93,0
3,62,0,56
3,57,0,5
3,43,89,4
3,55,59,0
3,59,80,0
3,62,80,0
3,50,0,2
3,52,0,0
3,64,0,1
3,66,0,0
3,69,0,0
3,43,0,228
3,55,0,2
3,43,87,5
3,55,104,0
3,59,0,53
3,59,77,3
3,47,92,62
3,54,89,4
3,63,92,0
3,62,0,6
3,55,0,3
3,43,0,0
3,63,102,165
3,71,90,0
3,47,0,3
3,54,0,0
3,63,0,1
3,66,77,61
3,63,0,59
3,63,81,1
3,63,0,59
3,66,0,0
3,71,0,0
3,59,0,0
3,48,97,0
3,60,87,0
3,64,83,0
3,67,89,0
3,48,0,132
3,48,48,0
3,62,94,55
3,64,0,1
3,67,0,2
3,64,99,0
3,67,100,1
3,62,0,49
3,62,71,1
3,67,0,4
3,67,11,0
3,48,0,4
3,48,70,1
3,60,0,50
3,60,70,0
3,64,0,55
3,64,93,0
3,50,96,1
3,66,90,0
3,48,0,6
3,60,0,0
3,62,0,1
3,67,0,0
3,69,74,0
3,64,0,54
3,64,81,0
3,62,65,63
3,50,0,32
3,50,64,0
3,62,0,23
3,57,107,0
3,62,101,0
3,50,0,74
3,50,79,1
3,52,86,50
3,62,0,62
3,43,99,0
3,55,84,0
3,59,81,0
3,62,75,0
3,66,0,5
3,50,0,1
3,64,0,0
3,57,0,0
3,52,0,0
3,69,0,0
3,43,0,227
3,55,0,2
3,59,0,1
3,43,91,2
3,55,98,0
3,59,92,0
3,45,81,58
3,57,79,3
3,59,0,61
3,54,88,0
3,59,89,0
3,47,94,1
3,62,0,5
3,45,0,2
3,43,0,1
3,55,0,0
3,57,0,0
3,63,101,226
3,59,0,55
3,59,81,1
3,47,0,65
3,54,0,0
3,63,0,1
3,59,0,0
3,48,95,1
3,55,85,0
3,60,83,0
3,64,68,0
3,64,0,148
3,64,40,3
3,72,102,29
3,67,99,60
3,64,0,61
3,64,72,1
3,62,50,46
3,64,0,5
3,64,42,2
3,66,71,0
3,50,79,1
3,48,0,2
3,60,0,2
3,55,0,0
3,67,0,0
3,69,87,1
3,72,0,1
3,64,0,4
3,66,0,57
3,69,0,0
3,62,0,1
3,50,0,2
3,43,90,294
3,55,92,0
3,59,58,62
3,62,64,64
3,67,97,55
3,62,0,61
3,62,56,0
3,59,0,56
3,59,80,0
3,55,0,60
3,55,101,0
3,59,0,65
3,59,69,0
3,62,0,54
3,62,55,0
3,43,0,68
3,43,49,0
3,59,0,25
3,59,36,1
3,55,0,11
3,55,59,0
3,43,0,3
3,43,91,0
3,62,0,2
3,67,0,1
3,58,95,3
3,62,84,7
3,59,100,4
3,59,103,55
3,62,88,0
3,59,0,2
3,59,0,0
3,62,0,0
3,55,0,0
3,58,0,1
3,43,0,0
3,59,0,48
3,62,0,2
3,59,93,10
3,47,93,2
3,63,80,60
3,66,63,56
3,71,74,62
3,66,0,55
3,66,50,1
3,63,0,61
3,63,68,0
3,59,0,58
3,59,48,0
3,47,0,32
3,47,29,1
3,64,66,19
3,65,100,4
3,71,0,2
3,71,94,0
3,66,0,10
3,66,89,0
3,47,0,22
3,47,49,2
3,66,0,27
3,71,0,1
3,66,109,5
3,71,107,0
3,63,0,58
