track,note,velocity,time
4,28,97,2038
4,28,97,210
4,28,91,170
4,28,79,160
4,28,97,225
4,28,91,160
4,28,91,360
4,28,91,220
4,28,83,155
4,28,91,300
4,28,97,205
4,28,91,175
4,28,87,125
4,33,91,195
4,33,97,255
4,40,65,120
4,40,61,90
4,33,91,240
4,33,83,190
4,40,79,45
4,33,87,10
4,33,87,185
4,40,69,70
4,33,83,20
4,33,83,165
4,33,83,155
4,40,79,70
4,33,79,480
4,33,91,160
4,33,79,215
4,40,79,10
4,33,83,480
4,33,83,135
4,33,87,210
4,40,79,50
4,33,87,480
4,40,65,70
4,40,79,185
4,35,83,35
4,35,61,145
4,40,79,30
4,40,61,200
4,35,91,240
4,40,75,440
4,28,75,30
4,28,69,150
4,35,79,0
4,35,61,195
4,40,75,5
4,35,79,30
4,28,79,480
4,28,75,80
4,35,83,65
4,35,79,125
4,40,65,75
4,35,61,10
4,35,79,180
4,28,79,40
4,28,79,85
4,35,37,35
4,35,79,170
4,35,79,165
4,40,75,20
4,35,75,720
4,35,87,145
4,28,79,70
4,33,83,0
4,33,79,175
4,40,69,120
4,33,79,0
4,33,97,165
4,33,83,95
4,40,79,480
4,33,83,5
4,33,91,185
4,33,97,255
4,40,65,120
4,40,61,90
4,33,91,240
4,33,83,190
4,40,79,45
4,33,87,10
4,33,87,185
4,40,69,70
4,33,83,20
4,33,83,165
4,33,83,155
4,40,79,70
4,33,79,480
4,33,91,160
4,33,79,215
4,40,79,10
4,33,83,480
4,33,83,135
4,33,87,210
4,40,79,50
4,33,87,480
4,40,65,70
4,40,79,185
4,35,83,35
4,35,61,145
4,40,79,30
4,40,61,200
4,35,91,240
4,40,75,440
4,28,75,30
4,28,69,150
4,35,79,0
4,35,61,195
4,40,75,5
4,35,79,30
4,28,79,480
4,28,75,80
4,35,83,65
4,35,79,125
4,40,65,75
4,35,61,10
4,35,79,180
4,28,79,40
4,28,79,85
4,35,37,35
4,35,79,170
4,35,79,165
4,40,75,20
4,35,75,720
4,35,87,145
4,28,79,70
4,33,83,0
4,33,79,175
4,40,69,120
4,33,79,0
4,33,97,165
4,33,83,95
4,40,79,480
4,33,83,5
4,37,87,185
4,37,83,210
4,32,91,90
4,37,83,960
4,37,83,190
4,32,79,80
4,32,65,170
4,30,79,5
4,30,75,160
4,37,75,240
4,30,75,15
4,30,79,130
4,37,87,240
4,30,79,25
4,37,83,0
4,37,69,120
4,32,79,5
4,37,79,15
4,37,87,160
4,32,83,30
4,37,79,25
4,30,65,0
4,30,83,150
4,37,79,240
4,37,51,145
4,30,87,5
4,37,83,960
4,30,97,55
4,38,97,310
4,38,87,215
4,38,91,165
4,33,87,70
4,38,79,0
4,38,87,230
4,38,87,175
4,33,91,50
4,37,83,0
4,37,87,205
4,37,79,170
4,32,57,55
4,37,65,480
4,37,79,190
4,37,91,150
4,32,83,20
4,35,79,0
4,35,65,205
4,35,87,190
4,35,87,180
4,35,83,190
4,35,91,170
4,35,75,50
4,28,87,40
4,28,91,200
4,28,79,145
4,35,91,65
4,40,97,25
4,40,83,115
4,35,83,35
4,28,83,480
4,33,91,145
4,33,97,255
4,40,65,120
4,40,61,90
4,33,91,240
4,33,83,190
4,40,79,45
4,33,87,10
4,33,87,185
4,40,69,70
4,33,83,20
4,33,83,165
4,33,83,155
4,40,79,70
4,33,79,480
4,33,91,160
4,33,79,215
4,40,79,10
4,33,83,480
4,33,83,135
4,33,87,210
4,40,79,50
4,33,87,480
4,40,65,70
4,40,79,185
4,35,83,35
4,35,61,145
4,40,79,30
4,40,61,200
4,35,91,240
4,40,75,440
4,28,75,30
4,28,69,150
4,35,79,0
4,35,61,195
4,40,75,5
4,35,79,30
4,28,79,480
4,28,75,80
4,35,83,65
4,35,79,125
4,40,65,75
4,35,61,10
4,35,79,180
4,28,79,40
4,28,79,85
4,35,37,35
4,35,79,170
4,35,79,165
4,40,75,20
4,35,75,720
4,35,87,145
4,28,79,70
4,33,83,0
4,33,79,175
4,40,69,120
4,33,79,0
4,33,97,165
4,33,83,95
4,40,79,480
4,33,83,5
4,33,91,185
4,33,97,255
4,40,65,120
4,40,61,90
4,33,91,240
4,33,83,190
4,40,79,45
4,33,87,10
4,33,87,185
4,40,69,70
4,33,83,20
4,33,83,165
4,33,83,155
4,40,79,70
4,33,79,480
4,33,91,160
4,33,79,215
4,40,79,10
4,33,83,480
4,33,83,135
4,33,87,210
4,40,79,50
4,33,87,480
4,40,65,70
4,40,79,185
4,35,83,35
4,35,61,145
4,40,79,30
4,40,61,200
4,35,91,240
4,40,75,440
4,28,75,30
4,28,69,150
4,35,79,0
4,35,61,195
4,40,75,5
4,35,79,30
4,28,79,480
4,28,75,80
4,35,83,65
4,35,79,125
4,40,65,75
4,35,61,10
4,35,79,180
4,28,79,40
4,28,79,85
4,35,37,35
4,35,79,170
4,35,79,165
4,40,75,20
4,35,75,720
4,35,87,145
4,28,79,70
4,33,83,0
4,33,79,175
4,40,69,120
4,33,79,0
4,33,97,165
4,33,83,95
4,40,79,480
4,33,83,5
4,28,79,185
4,35,37,35
4,35,79,170
4,35,79,165
4,40,75,20
4,35,75,720
4,35,87,145
4,28,79,70
4,33,83,0
4,33,79,175
4,40,69,120
4,33,79,0
4,33,97,165
4,33,83,95
4,40,79,480
4,33,83,5
4,28,79,185
4,35,37,35
4,35,79,170
4,35,79,165
4,40,75,20
4,35,75,720
4,35,87,145
4,28,79,70
4,33,83,0
4,33,79,175
4,40,69,120
4,33,79,0
4,33,97,165
4,33,83,95
4,40,79,480
4,33,83,5
4,28,79,185
4,35,37,35
4,35,79,170
4,35,79,165
4,40,75,20
4,35,75,720
4,35,87,145
4,28,79,70
4,33,87,0
5,64,76,9698
5,69,74,0
5,73,68,0
5,57,70,5
5,61,74,0
5,64,68,0
5,69,74,0
5,62,72,5
5,64,72,0
5,68,74,0
5,59,74,5
5,62,68,0
5,64,72,0
5,68,72,0
5,59,68,5
5,64,68,0
5,68,72,0
5,59,74,5
5,62,64,0
5,68,72,0
5,57,68,5
5,61,72,0
5,64,72,0
5,69,62,0
5,64,76,5
5,69,74,0
5,73,68,0
5,57,70,5
5,61,74,0
5,64,68,0
5,69,74,0
5,62,72,5
5,64,72,0
5,68,74,0
5,59,74,5
5,62,68,0
5,64,72,0
5,68,72,0
5,59,68,5
5,64,68,0
5,68,72,0
5,59,74,5
5,62,64,0
5,68,72,0
5,57,68,5
5,61,72,0
5,64,72,0
5,69,62,0
5,59,74,5
5,65,76,0
5,57,52,5
5,66,92,0
5,59,84,5
5,65,88,0
5,57,84,5
5,66,88,0
5,62,64,5
5,66,52,0
5,69,60,0
5,61,84,5
5,64,72,0
5,71,76,0
5,68,84,960
5,59,72,5
5,62,72,0
5,66,72,0
5,59,84,5
5,62,68,0
5,68,80,0
5,64,76,5
5,69,74,0
5,73,68,0
5,57,70,5
5,61,74,0
5,64,68,0
5,69,74,0
5,62,72,5
5,64,72,0
5,68,74,0
5,59,74,5
5,62,68,0
5,64,72,0
5,68,72,0
5,59,68,5
5,64,68,0
5,68,72,0
5,59,74,5
5,62,64,0
5,68,72,0
5,57,68,5
5,61,72,0
5,64,72,0
5,69,62,0
5,64,76,5
5,69,74,0
5,73,68,0
5,57,70,5
5,61,74,0
5,64,68,0
5,69,74,0
5,62,72,5
5,64,72,0
5,68,74,0
5,59,74,5
5,62,68,0
5,64,72,0
5,68,72,0
5,59,68,5
5,64,68,0
5,68,72,0
5,59,74,5
5,62,64,0
5,68,72,0
5,57,68,5
5,61,72,0
5,64,72,0
5,69,62,0
5,59,74,5
5,62,64,0
5,68,72,0
5,57,68,5
5,61,72,0
5,64,72,0
5,69,62,0
5,59,74,5
5,62,64,0
5,68,72,0
5,57,68,5
5,61,72,0
5,64,72,0
5,69,62,0
5,59,74,5
5,62,64,0
5,68,72,0
5,45,88,5
5,57,64,0
5,61,88,0
5,64,74,0
6,64,90,9280
6,69,80,0
6,69,54,105
6,73,76,0
6,69,68,85
6,73,76,0
6,71,64,40
6,74,72,0
6,73,62,55
6,76,76,0
6,76,62,85
6,80,90,0
6,74,76,75
6,78,72,0
6,74,60,85
6,78,72,0
6,73,86,60
6,76,72,0
6,64,72,100
6,69,60,0
6,69,64,115
6,73,86,0
6,69,76,105
6,73,80,0
6,71,80,65
6,74,86,0
6,73,60,105
6,76,86,0
6,74,68,5
6,78,94,0
6,73,76,65
6,76,72,0
6,71,62,40
6,74,64,0
6,68,80,315
6,71,72,0
6,71,80,250
6,74,86,0
6,71,62,50
6,74,72,0
6,71,72,85
6,76,76,0
6,74,68,315
6,78,68,0
6,71,68,95
6,74,68,0
6,68,94,85
6,71,76,0
6,66,90,305
6,69,72,0
6,64,72,140
6,68,62,0
6,68,76,185
6,71,90,0
6,69,76,110
6,73,90,0
6,71,90,335
6,76,80,0
6,71,80,95
6,71,80,70
6,68,86,205
6,71,76,0
6,66,86,135
6,69,68,0
6,68,76,165
6,71,72,0
6,69,60,245
6,73,68,0
6,61,62,1450
6,64,94,0
6,69,54,315
6,73,76,0
6,69,68,85
6,73,76,0
6,71,64,40
6,74,72,0
6,73,62,55
6,76,76,0
6,76,62,85
6,80,90,0
6,74,76,75
6,78,72,0
6,74,60,85
6,78,72,0
6,73,86,60
6,76,72,0
6,64,72,100
6,69,60,0
6,69,64,115
6,73,86,0
6,69,76,105
6,73,80,0
6,71,80,65
6,74,86,0
6,73,60,105
6,76,86,0
6,74,68,5
6,78,94,0
6,73,76,65
6,76,72,0
6,71,62,40
6,74,64,0
6,68,80,315
6,71,72,0
6,71,80,250
6,74,86,0
6,71,62,50
6,74,72,0
6,71,72,85
6,76,76,0
6,74,68,315
6,78,68,0
6,71,68,95
6,74,68,0
6,68,94,85
6,71,76,0
6,66,90,305
6,69,72,0
6,64,72,140
6,68,62,0
6,68,76,185
6,71,90,0
6,69,76,110
6,73,90,0
6,71,90,335
6,76,80,0
6,71,80,95
6,71,80,70
6,68,86,205
6,71,76,0
6,66,86,135
6,69,68,0
6,68,76,165
6,71,72,0
6,64,60,245
6,69,72,0
6,69,94,1625
6,71,94,315
6,68,76,960
6,69,72,65
6,71,90,0
6,74,90,480
6,73,72,75
6,71,86,20
6,71,76,80
6,69,68,35
6,69,94,60
6,71,62,0
6,68,80,20
6,69,76,55
6,71,90,0
6,74,90,10
6,73,86,35
6,71,80,480
6,73,62,0
6,69,94,1025
6,66,90,45
6,68,90,65
6,69,86,0
6,73,90,40
6,71,76,60
6,69,76,70
6,68,80,10
6,64,76,40
6,66,90,395
6,66,76,60
6,66,72,70
6,68,90,70
6,69,94,75
6,66,90,50
6,68,94,60
6,69,86,55
6,69,90,50
6,68,80,80
6,69,54,2015
6,73,76,0
6,69,68,85
6,73,76,0
6,71,64,40
6,74,72,0
6,73,62,55
6,76,76,0
6,76,62,85
6,80,90,0
6,74,76,75
6,78,72,0
6,74,60,85
6,78,72,0
6,73,86,60
6,76,72,0
6,64,72,100
6,69,60,0
6,69,64,115
6,73,86,0
6,69,76,105
6,73,80,0
6,71,80,65
6,74,86,0
6,73,60,105
6,76,86,0
6,74,68,5
6,78,94,0
6,73,76,65
6,76,72,0
6,71,62,40
6,74,64,0
6,68,80,315
6,71,72,0
6,71,80,250
6,74,86,0
6,71,62,50
6,74,72,0
6,71,72,85
6,76,76,0
6,74,68,315
6,78,68,0
6,71,68,95
6,74,68,0
6,68,94,85
6,71,76,0
6,66,90,305
6,69,72,0
6,64,72,140
6,68,62,0
6,68,76,185
6,71,90,0
6,69,76,110
6,73,90,0
6,71,90,335
6,76,80,0
6,71,80,95
6,71,80,70
6,68,86,205
6,71,76,0
6,66,86,135
6,69,68,0
6,68,76,165
6,71,72,0
6,64,60,245
6,69,72,0
6,69,94,1625
6,69,54,315
6,73,76,0
6,69,68,85
6,73,76,0
6,71,64,40
6,74,72,0
6,73,62,55
6,76,76,0
6,76,62,85
6,80,90,0
6,74,76,75
6,78,72,0
6,74,60,85
6,78,72,0
6,73,86,60
6,76,72,0
6,64,72,100
6,69,60,0
6,69,64,115
6,73,86,0
6,69,76,105
6,73,80,0
6,71,80,65
6,74,86,0
6,73,60,105
6,76,86,0
6,74,68,5
6,78,94,0
6,73,76,65
6,76,72,0
6,71,62,40
6,74,64,0
6,68,80,315
6,71,72,0
6,71,80,250
6,74,86,0
6,71,62,50
6,74,72,0
6,71,72,85
6,76,76,0
6,74,68,315
6,78,68,0
6,71,68,95
6,74,68,0
6,68,94,85
6,71,76,0
6,66,90,305
6,69,72,0
6,64,72,140
6,68,62,0
6,68,76,185
6,71,90,0
6,69,76,110
6,73,90,0
6,71,90,335
6,76,80,0
6,71,80,95
6,71,80,70
6,68,86,205
6,71,76,0
6,66,86,135
6,69,68,0
6,68,76,165
6,71,72,0
6,64,60,245
6,69,72,0
6,71,94,1145
6,73,94,35
6,71,90,255
6,76,80,0
6,71,80,95
6,71,80,70
6,68,86,205
6,71,76,0
6,66,86,135
6,69,68,0
6,68,76,165
6,71,72,0
6,64,60,245
6,69,72,0
6,71,94,1145
6,73,94,20
6,71,90,0
6,76,80,0
6,71,80,95
6,71,80,70
6,68,86,205
6,71,76,0
6,66,86,135
6,69,68,0
6,68,76,165
6,71,72,0
6,64,60,245
6,69,72,0
6,71,94,1145
6,73,94,35
6,71,90,255
6,76,80,0
6,71,80,95
6,71,80,70
6,68,86,205
6,71,76,0
6,66,86,135
6,69,68,0
6,68,76,165
6,71,72,0
6,69,68,245
7,86,122,15438
7,85,114,20
7,86,110,12705
7,85,114,95
7,83,110,0
7,80,100,240
7,80,100,29175
7,80,100,59895
7,80,100,29175
8,40,102,2038
8,52,98,240
8,56,94,240
8,59,102,4
8,64,108,4
8,40,94,45
8,52,94,240
8,56,58,155
8,59,90,182
8,64,98,4
8,56,72,75
8,40,102,45
8,52,94,220
8,56,76,46
8,59,98,4
8,64,94,4
8,40,98,40
8,52,94,240
8,56,60,11
8,59,86,167
8,64,90,4
8,56,60,90
8,40,102,0
8,52,98,236
8,56,94,240
8,59,102,4
8,64,108,4
8,40,94,45
8,52,94,240
8,56,58,155
8,59,90,182
8,64,98,4
8,56,72,75
8,40,102,45
8,52,94,220
8,56,76,46
8,59,98,4
8,64,94,4
8,40,98,40
8,52,94,240
8,56,60,11
8,59,86,167
8,64,90,4
8,56,60,90
8,45,98,0
8,57,56,236
8,61,98,240
8,64,114,4
8,45,98,160
8,57,76,30
8,61,76,156
8,57,62,35
8,61,86,4
8,64,94,4
8,45,98,130
8,57,98,180
8,61,86,342
8,64,90,4
8,45,98,175
8,57,86,205
8,61,76,171
8,61,90,120
8,64,102,4
8,45,102,205
8,57,94,190
8,45,94,61
8,61,94,220
8,64,102,4
8,57,90,255
8,45,94,240
8,61,72,211
8,64,98,4
8,45,94,10
8,57,72,240
8,45,90,20
8,61,90,191
8,64,98,4
8,45,86,95
8,57,62,215
8,61,80,31
8,61,94,95
8,64,102,4
8,45,98,165
8,57,98,180
8,61,98,91
8,64,98,4
8,45,98,165
8,57,62,190
8,61,72,51
8,61,80,75
8,64,94,4
8,45,98,210
8,57,64,100
8,61,94,311
8,64,98,4
8,45,98,180
8,57,72,55
8,61,90,156
8,61,86,65
8,64,94,4
8,45,90,185
8,40,94,150
8,56,68,200
8,59,86,240
8,62,80,4
8,74,80,4
8,52,94,97
8,74,86,4
8,56,72,10
8,71,72,4
8,59,76,236
8,59,94,70
8,62,90,4
8,74,76,4
8,40,102,90
8,56,86,112
8,64,76,4
8,68,72,4
8,74,56,4
8,52,102,228
8,56,90,52
8,59,60,4
8,62,94,4
8,74,90,4
8,40,90,30
8,52,62,4
8,74,80,4
8,71,90,27
8,56,98,231
8,59,80,30
8,62,86,4
8,74,90,4
8,56,72,170
8,40,108,21
8,64,72,4
8,68,76,4
8,74,64,3
8,56,80,90
8,59,80,17
8,62,94,4
8,74,90,4
8,52,108,77
8,74,80,4
8,56,90,15
8,71,86,4
8,59,72,206
8,59,90,11
8,62,94,4
