track,note,velocity,time
3,75,108,21010
3,75,0,19
3,79,108,29
3,79,0,5
3,72,102,0
3,72,0,12
4,74,102,2866
4,74,0,16
4,72,114,8
4,72,0,26
4,70,114,10
4,70,0,125
5,72,102,2350
5,72,0,18
5,74,102,18
5,74,0,6
5,75,108,30
5,75,0,4
5,77,114,32
5,77,0,4
5,72,108,12524
5,72,0,17
5,74,102,19
5,74,0,6
5,75,102,30
5,75,0,14
5,77,108,34
5,77,0,9
5,72,108,12135
5,72,0,6
5,74,108,18
5,74,0,5
5,75,114,31
5,75,0,5
5,77,114,31
5,77,0,6
5,72,108,2922
5,72,0,16
5,74,108,20
5,74,0,5
5,75,108,31
5,75,0,17
5,77,114,31
5,77,0,6
5,72,102,2922
5,72,0,17
5,74,108,19
5,74,0,6
5,75,114,30
5,75,0,6
5,77,114,30
5,77,0,7
6,82,78,9214
6,79,82,0
6,75,78,0
6,82,0,12
6,79,0,6
6,75,0,4
6,70,46,74
6,74,46,0
6,77,62,0
6,77,0,107
6,74,0,0
6,70,0,0
6,84,66,109
6,81,78,0
6,77,70,0
6,84,0,236
6,81,0,5
6,77,0,7
6,74,58,136
6,77,60,0
6,70,48,0
6,77,0,240
6,74,0,0
6,70,0,1
6,82,64,143
6,79,74,0
6,75,62,0
6,82,0,268
6,79,0,5
6,75,0,6
6,74,70,93
6,70,66,0
6,77,74,0
6,70,0,283
6,77,0,2
6,74,0,2
6,81,66,97
6,77,64,0
6,84,54,0
6,84,0,278
6,81,0,5
6,77,0,3
6,74,70,98
6,77,74,0
6,70,60,12
6,77,0,154
6,74,0,0
6,70,0,12
6,79,64,9326
6,75,66,0
6,82,74,0
6,82,0,240
6,79,0,2
6,75,0,2
6,74,64,104
6,70,62,0
6,77,64,12
6,79,62,0
6,79,0,5
6,74,0,81
6,70,0,0
6,77,0,6
6,81,60,153
6,84,66,0
6,77,66,0
6,84,0,269
6,81,0,8
6,77,0,5
6,70,54,102
6,74,62,0
6,77,74,0
6,70,0,230
6,74,0,2
6,77,0,2
6,79,58,150
6,82,62,0
6,75,62,0
6,82,0,99
6,79,0,3
6,75,0,4
6,77,74,122
6,74,66,0
6,70,62,0
6,70,0,227
6,74,0,1
6,77,0,2
6,81,70,154
6,84,74,0
6,77,64,0
6,84,0,250
6,81,0,3
6,77,0,4
6,77,62,127
6,74,64,0
6,70,58,0
6,77,0,244
6,74,0,4
6,70,0,3
7,70,96,0
7,70,0,68
7,70,92,15
7,70,0,75
7,70,96,18
7,69,102,92
7,70,0,11
7,67,82,36
7,69,0,2
7,70,88,46
7,67,0,2
7,69,88,90
7,70,0,1
7,67,92,44
7,69,0,2
7,70,92,193
7,67,0,9
7,69,96,41
7,70,0,1
7,69,0,60
7,69,88,16
7,69,0,25
7,69,96,20
7,69,0,19
7,69,96,24
7,69,0,50
7,67,88,2
7,65,88,86
7,67,0,1
7,65,0,21
7,69,88,15
7,67,92,398
7,69,0,2
7,69,48,57
7,69,0,10
7,67,0,3
7,67,92,11
7,67,0,15
7,67,92,19
7,67,0,23
7,67,92,20
7,65,78,88
7,67,0,4
7,63,92,48
7,65,0,8
7,63,0,35
7,67,74,4
7,65,92,90
7,67,0,8
7,63,88,36
7,65,0,3
7,60,60,91
7,63,0,6
7,62,74,39
7,60,0,17
7,63,66,28
7,62,0,51
7,65,82,1
7,63,0,8
7,65,0,220
7,63,108,16
7,63,0,20
7,62,88,26
7,62,0,31
7,60,88,17
7,60,0,28
7,58,88,25
7,58,0,737
7,63,108,494
7,63,0,12
7,67,102,31
7,67,0,9
7,60,102,44
7,60,0,265
7,62,96,1538
7,62,0,14
7,65,96,28
7,65,0,11
7,58,88,43
7,58,0,268
7,63,102,1548
7,63,0,16
7,67,96,29
7,67,0,9
7,60,92,43
7,60,0,212
7,53,88,3049
7,58,92,78
7,53,0,5
7,60,82,43
7,58,0,15
7,62,82,72
7,60,0,13
7,63,78,86
7,62,0,19
7,65,78,41
7,63,0,2
7,65,0,11
7,70,96,24
7,70,0,13
7,70,96,31
7,70,0,10
7,70,92,7
7,70,0,18
7,70,88,16
7,69,88,91
7,70,0,21
7,67,82,29
7,69,0,3
7,70,66,41
7,67,0,4
7,69,88,91
7,70,0,3
7,67,92,46
7,69,0,1
7,70,92,38
7,67,0,9
7,69,92,39
7,70,0,14
7,69,0,61
7,69,96,19
7,69,0,13
7,69,96,19
7,69,0,14
7,69,92,24
7,67,92,52
7,69,0,2
7,65,92,55
7,67,0,5
7,69,82,30
7,65,0,1
7,67,102,411
7,69,0,2
7,67,0,67
7,67,88,14
7,67,0,15
7,67,96,19
7,67,0,20
7,67,88,23
7,65,70,88
7,67,0,7
7,63,82,44
7,65,0,6
7,67,74,38
7,63,0,1
7,65,88,97
7,67,0,19
7,63,88,24
7,65,0,2
7,65,42,59
7,60,60,21
7,65,0,2
7,63,0,4
7,62,78,40
7,60,0,14
7,63,66,34
7,62,0,49
7,65,82,1
7,63,0,11
7,69,96,233
7,65,0,11
7,69,0,7
7,69,88,25
7,67,88,45
7,69,0,12
7,67,0,35
7,65,82,4
7,65,0,311
7,63,102,489
7,63,0,15
7,67,96,26
7,67,0,11
7,60,96,40
7,60,0,269
7,62,96,885
7,62,0,13
7,65,96,32
7,65,0,11
7,58,88,39
7,58,0,290
7,53,92,1574
7,58,96,75
7,53,0,3
7,60,82,91
7,58,0,14
7,62,82,73
7,60,0,8
7,63,74,91
7,62,0,37
7,65,82,43
7,63,0,4
7,65,0,6
7,70,92,33
7,70,0,14
7,70,96,30
7,70,0,4
7,70,96,14
7,70,0,21
7,70,88,19
7,69,82,89
7,70,0,18
7,67,88,33
7,69,0,2
7,70,78,44
7,67,0,2
7,69,70,86
7,70,0,3
7,67,92,46
7,69,0,6
7,70,88,191
7,67,0,12
7,69,88,39
7,70,0,1
7,69,0,18
7,69,92,14
7,69,0,11
7,69,92,20
7,69,0,18
7,69,88,25
7,67,78,51
7,69,0,1
7,65,92,34
7,67,0,4
7,69,78,29
7,65,0,1
7,67,92,409
7,69,0,5
7,67,0,75
7,67,88,14
7,67,0,14
7,67,92,17
7,67,0,29
7,67,74,17
7,65,74,36
7,67,0,8
7,63,88,73
7,65,0,6
7,67,66,37
7,63,0,2
7,65,88,105
7,67,0,13
7,63,82,29
7,65,0,1
7,60,58,90
7,63,0,8
7,62,78,43
7,60,0,17
7,63,70,28
7,65,82,46
7,62,0,2
7,63,0,8
7,69,74,239
7,67,88,2
7,65,0,10
7,67,0,14
7,69,0,1
7,69,88,15
7,67,88,50
7,69,0,15
7,65,74,30
7,67,0,3
7,65,0,329
7,70,92,3
7,70,0,29
7,70,82,19
7,70,0,75
7,70,78,17
7,70,0,74
7,70,74,20
7,69,88,94
7,70,0,12
7,67,70,35
7,69,0,1
7,70,74,46
7,67,0,5
7,69,78,90
7,70,0,2
7,67,88,51
7,69,0,4
7,70,74,177
7,67,0,16
7,69,88,34
7,70,0,14
7,69,0,73
7,69,82,14
7,69,0,23
7,69,92,19
7,69,0,16
7,69,82,24
7,67,88,64
7,69,0,1
7,65,82,53
7,67,0,9
7,65,0,34
7,69,74,2
7,67,96,405
7,69,0,9
7,67,0,70
7,67,88,16
7,67,0,19
7,67,92,23
7,67,0,17
7,67,88,26
7,65,74,91
7,67,0,3
7,63,74,50
7,65,0,2
7,63,0,41
7,67,70,6
7,65,82,96
7,67,0,16
7,63,82,27
7,65,0,3
7,60,62,94
7,63,0,9
7,62,78,36
7,60,0,17
7,63,66,33
7,62,0,23
7,65,70,19
7,63,0,9
7,69,92,243
7,65,0,13
7,69,0,7
7,69,82,25
7,67,88,49
7,69,0,11
7,65,82,35
7,67,0,6
7,65,0,327
7,70,92,5
7,70,0,17
7,70,102,23
7,70,0,4
7,70,78,85
7,70,0,74
7,70,74,20
7,69,88,94
7,70,0,12
7,67,70,35
7,69,0,1
7,70,74,46
7,67,0,5
7,69,78,90
7,70,0,2
7,67,88,51
7,69,0,4
7,70,74,177
7,67,0,16
7,69,88,34
7,70,0,14
7,69,0,73
7,69,82,14
7,69,0,23
7,69,92,19
7,69,0,16
7,69,82,24
7,67,88,64
7,69,0,1
7,65,82,53
7,67,0,9
7,65,0,34
7,69,74,2
7,67,96,405
7,69,0,9
7,67,0,70
7,67,88,16
7,67,0,19
7,67,92,23
7,67,0,17
7,67,88,26
7,65,74,91
7,67,0,3
7,63,74,50
7,65,0,2
7,63,0,41
7,67,70,6
7,65,82,96
7,67,0,16
7,63,82,27
7,65,0,3
7,60,62,94
7,63,0,9
7,62,78,36
7,60,0,17
7,63,66,33
7,62,0,23
7,65,70,19
7,63,0,9
7,69,92,243
7,65,0,13
7,69,0,7
7,69,82,25
7,67,88,49
7,69,0,11
7,65,82,35
7,67,0,6
7,65,0,327
7,70,92,5
7,70,0,17
7,70,102,23
7,70,0,4
7,70,78,85
7,70,0,74
7,70,74,20
7,69,88,94
7,70,0,12
7,67,70,35
7,69,0,1
7,70,74,46
7,67,0,5
7,69,78,90
7,70,0,2
7,67,88,51
7,69,0,4
7,70,74,177
7,67,0,16
7,69,88,34
7,70,0,14
7,69,0,73
7,69,82,14
7,69,0,23
7,69,92,19
7,69,0,16
7,69,82,24
7,67,88,64
7,69,0,1
7,65,82,53
7,67,0,9
7,65,0,34
7,69,74,2
7,67,96,405
7,69,0,9
7,67,0,70
7,67,88,16
7,67,0,19
7,67,92,23
7,67,0,17
7,67,88,26
7,65,74,91
7,67,0,3
7,63,74,50
7,65,0,2
7,63,0,41
7,67,70,6
7,65,82,96
7,67,0,16
7,63,82,27
7,65,0,3
7,60,62,94
7,63,0,9
7,62,78,36
7,60,0,17
7,63,66,33
7,62,0,23
7,65,70,19
7,63,0,9
7,69,92,243
7,65,0,13
7,69,0,7
7,69,82,25
7,67,88,49
7,69,0,11
7,65,82,35
7,67,0,6
7,65,0,327
8,44,100,1
8,33,120,0
8,51,100,0
8,51,0,5
8,44,0,0
8,31,110,2
8,51,92,0
8,31,0,4
8,51,0,3
8,33,0,19
8,44,100,0
8,31,114,0
8,51,94,0
8,51,0,16
8,44,0,0
8,31,0,1
8,51,102,31
8,51,0,13
8,44,100,35
8,33,120,0
8,51,98,0
8,44,0,16
8,51,0,1
8,59,94,5
8,33,0,48
8,44,100,0
8,31,120,0
8,51,98,0
8,44,0,16
8,51,0,1
8,31,0,9
8,51,94,22
8,51,0,15
8,44,100,33
8,33,120,0
8,51,120,0
8,51,0,15
8,44,0,1
8,31,118,32
8,51,102,0
8,31,0,16
8,51,0,1
8,33,0,31
8,44,100,0
8,31,114,0
8,51,98,0
8,51,0,12
8,31,0,4
8,44,0,0
8,31,120,32
8,51,106,0
8,51,0,13
8,31,0,4
8,44,100,31
8,33,120,0
8,51,106,0
8,51,0,14
8,44,0,2
8,59,0,29
8,53,112,3
8,33,0,48
8,44,100,0
8,31,122,0
8,51,94,0
8,51,0,13
8,44,0,3
8,31,0,3
8,51,92,29
8,51,0,13
8,44,100,35
8,33,120,0
8,51,104,0
8,51,0,16
8,44,0,0
8,31,116,32
8,51,98,0
8,31,0,13
8,51,0,1
8,33,0,34
8,44,100,0
8,31,120,0
8,51,98,0
8,51,0,11
8,44,0,5
8,31,0,1
8,51,94,31
8,51,0,16
8,44,100,32
8,33,120,0
8,59,116,0
8,44,0,16
8,53,0,32
8,51,86,0
8,51,0,10
8,51,94,14
8,51,0,11
8,33,0,13
8,44,100,0
8,31,122,0
8,51,102,0
8,31,0,13
8,51,0,1
8,44,0,2
8,51,118,32
8,51,84,0
8,51,0,19
8,51,0,0
8,44,100,29
8,33,120,0
8,51,102,0
8,51,0,8
8,44,0,8
8,31,114,32
8,51,88,0
8,31,0,13
8,51,0,5
8,33,0,30
8,44,100,0
8,31,118,0
8,51,90,0
8,51,0,14
8,31,0,1
8,44,0,1
8,51,90,32
8,51,0,14
8,59,0,34
8,44,100,0
8,33,120,0
8,44,0,16
8,51,112,32
8,51,0,14
8,33,0,34
8,31,118,0
8,51,120,0
8,51,0,16
8,51,110,32
8,51,0,15
8,44,100,33
8,33,120,0
8,51,100,0
8,51,0,16
8,31,0,0
8,44,0,0
8,31,110,32
8,51,92,0
8,31,0,15
8,51,0,4
8,33,0,29
8,44,100,0
8,31,114,0
8,51,94,0
8,51,0,16
8,44,0,0
8,31,0,1
8,51,102,31
8,51,0,13
8,44,100,35
8,33,120,0
8,51,98,0
8,44,0,16
8,51,0,2
8,59,94,30
8,33,0,48
8,44,100,0
8,31,120,0
8,51,98,0
8,44,0,16
8,51,0,1
8,31,0,9
8,51,94,22
8,51,0,15
8,44,100,33
8,33,120,0
8,51,120,0
8,51,0,15
8,44,0,1
8,31,118,32
8,51,102,0
8,31,0,16
8,51,0,1
8,33,0,31
8,44,100,0
8,31,114,0
8,51,98,0
8,51,0,12
8,31,0,4
8,44,0,0
8,31,120,32
8,51,106,0
8,51,0,13
8,31,0,4
8,44,100,31
8,33,120,0
8,51,106,0
8,51,0,14
8,44,0,2
8,59,0,29
8,53,112,3
8,33,0,48
8,44,100,0
8,31,122,0
8,51,94,0
8,51,0,13
8,44,0,3
8,31,0,3
8,51,92,29
8,51,0,13
8,44,100,35
8,33,120,0
8,51,104,0
8,51,0,16
8,44,0,0
8,31,116,32
8,51,98,0
8,31,0,13
8,51,0,1
8,33,0,34
8,44,100,0
8,31,120,0
8,51,98,0
8,51,0,11
8,44,0,5
8,31,0,1
8,51,94,31
8,51,0,16
8,44,100,32
8,33,120,0
8,59,116,0
8,44,0,16
8,53,0,32
8,51,86,0
8,51,0,10
8,51,94,14
8,51,0,11
8,33,0,13
8,44,100,0
8,31,122,0
8,51,102,0
8,31,0,13
8,51,0,1
8,44,0,2
8,51,118,32
8,51,84,0
8,51,0,19
8,51,0,0
8,44,100,29
8,33,120,0
8,51,102,0
8,51,0,8
8,44,0,8
8,31,114,32
8,51,88,0
8,31,0,13
8,51,0,5
8,33,0,30
8,44,100,0
8,31,118,0
8,51,90,0
8,51,0,14
8,31,0,1
8,44,0,1
8,51,90,32
8,51,0,14
8,59,0,34
8,44,100,0
8,33,120,0
8,44,0,16
8,51,112,32
8,51,0,14
8,33,0,32
8,31,118,2
8,49,100,0
8,51,120,0
8,51,0,16
8,51,110,32
8,51,0,15
8,44,100,33
8,33,120,0
8,51,100,0
8,51,0,16
8,44,0,0
8,31,0,0
8,31,110,32
8,51,92,0
8,31,0,15
8,51,0,4
8,33,0,29
8,44,100,0
8,31,114,0
8,51,94,0
8,51,0,16
8,44,0,0
8,31,0,1
8,51,102,31
8,51,0,13
8,44,100,35
8,33,120,0
8,51,98,0
8,44,0,16
8,51,0,2
8,59,94,30
8,33,0,48
8,49,0,0
8,44,100,0
8,31,120,0
8,51,98,0
8,44,0,16
8,51,0,1
8,31,0,9
8,51,94,22
8,51,0,15
8,44,100,33
8,33,120,0
8,51,120,0
8,51,0,15
8,44,0,1
8,31,118,32
8,51,102,0
8,31,0,16
8,51,0,1
8,33,0,31
8,44,100,0
8,31,114,0
8,51,98,0
8,51,0,12
8,31,0,4
8,44,0,0
8,31,120,32
8,51,106,0
8,51,0,13
8,31,0,4
8,44,100,31
8,33,120,0
8,51,106,0
8,51,0,14
8,44,0,2
8,59,0,29
8,53,112,3
8,33,0,48
8,44,100,0
8,31,122,0
8,51,94,0
8,51,0,13
8,44,0,3
8,31,0,3
8,51,92,29
8,51,0,13
8,44,100,35
8,33,120,0
8,51,104,0
8,51,0,16
8,44,0,0
8,31,116,32
8,51,98,0
8,31,0,13
8,51,0,1
8,33,0,34
8,44,100,0
8,31,120,0
8,51,98,0
8,51,0,11
8,44,0,5
8,31,0,1
8,51,94,31
8,51,0,16
8,44,100,32
8,33,120,0
8,59,116,0
8,44,0,16
8,53,0,32
8,51,86,0
8,51,0,10
8,51,94,14
8,51,0,11
8,33,0,13
8,44,100,0
8,31,122,0
8,51,102,0
8,31,0,13
8,51,0,1
8,44,0,2
8,51,118,32
8,51,84,0
8,51,0,19
