track,note,velocity,time
1,36,91,2660
1,36,94,72
1,36,106,24
1,36,100,100
1,31,78,4
1,33,97,68
1,36,103,8
1,36,97,208
1,36,91,52
1,31,73,12
1,33,81,4
1,36,100,192
1,33,65,168
1,36,103,164
1,36,103,152
1,31,69,120
1,33,87,68
1,36,103,172
1,36,106,212
1,36,97,148
1,38,83,32
1,38,91,88
1,39,107,104
1,39,102,124
1,34,42,316
1,36,76,52
1,39,102,192
1,33,106,204
1,33,106,172
1,36,97,8
1,41,87,60
1,29,107,44
1,29,106,96
1,29,107,324
1,31,107,156
1,31,103,112
1,43,94,52
1,43,87,104
1,38,65,12
1,31,86,68
1,36,106,12
1,36,103,116
1,31,73,12
1,33,83,72
1,36,103,0
1,36,103,208
1,36,100,152
1,31,65,312
1,33,77,52
1,36,103,172
1,33,77,164
1,36,103,188
1,36,97,96
1,31,81,164
1,33,81,68
1,36,103,176
1,36,103,208
1,36,100,132
1,38,91,24
1,38,100,96
1,39,102,84
1,39,102,124
1,34,73,312
1,36,81,60
1,39,102,176
1,33,107,220
1,36,107,4
1,33,86,16
1,41,100,192
1,29,106,44
1,29,106,128
1,36,91,36
1,41,65,32
1,36,83,24
1,29,103,68
1,31,100,56
1,31,106,140
1,43,100,4
1,31,107,32
1,27,107,20
1,27,107,164
1,39,102,576
1,27,92,184
1,29,103,20
1,29,107,212
1,41,94,24
1,41,77,72
1,36,87,56
1,29,103,12
1,27,92,24
1,27,102,152
1,39,102,576
1,27,84,8
1,29,103,24
1,41,103,12
1,29,97,192
1,31,100,68
1,43,97,188
1,43,78,96
1,38,94,64
1,31,107,20
1,36,106,20
1,36,100,84
1,36,103,164
1,36,91,72
1,36,97,296
1,29,94,112
1,29,91,64
1,29,97,196
1,31,94,120
1,31,97,244
1,36,97,92
1,36,94,92
1,36,103,176
1,36,100,80
1,36,106,288
1,29,106,120
1,29,87,60
1,29,94,172
1,31,103,120
1,31,83,64
1,31,103,248
1,33,103,100
1,33,97,92
1,33,97,172
1,33,97,88
1,33,97,296
1,29,100,108
1,29,100,84
1,31,103,188
1,31,97,96
1,31,103,280
1,34,107,128
1,34,102,100
1,34,102,176
1,34,102,120
1,33,103,116
1,31,106,108
1,31,94,92
1,31,103,168
1,31,103,88
1,31,100,272
1,36,100,132
1,36,94,92
1,36,103,144
1,31,100,108
1,33,103,4
1,36,100,84
1,36,100,220
1,36,87,100
1,36,106,152
1,31,106,164
1,33,106,8
1,36,100,100
1,33,100,32
1,36,106,84
1,36,100,104
1,31,78,4
1,33,97,68
1,36,103,8
1,36,97,208
1,36,91,52
1,31,73,12
1,33,81,4
1,36,100,192
1,33,65,168
1,36,103,164
1,36,103,148
1,31,69,120
1,33,87,68
1,36,103,168
1,36,106,212
1,36,97,156
1,38,83,32
1,38,91,84
1,39,107,104
1,39,102,128
1,34,42,312
1,36,76,56
1,39,102,184
1,33,106,204
1,33,106,172
1,36,97,4
1,41,87,60
1,29,107,44
1,29,106,96
1,29,107,320
1,31,107,156
1,31,103,112
1,43,94,52
1,43,87,100
1,38,65,12
1,31,86,68
1,36,106,16
1,36,103,112
1,31,73,12
1,33,83,68
1,36,103,4
1,36,103,208
1,36,100,152
1,31,65,312
1,33,77,52
1,36,103,180
1,33,77,160
1,36,103,188
1,36,97,100
1,31,81,164
1,33,81,72
1,36,103,176
1,36,103,208
1,36,100,132
1,38,91,24
1,38,100,100
1,39,102,88
1,39,102,124
1,34,73,312
1,36,81,64
1,39,102,180
1,33,107,220
1,36,107,4
1,33,86,12
1,41,100,192
1,29,106,44
1,29,106,128
1,36,91,32
1,41,65,28
1,36,83,24
1,29,103,68
1,31,100,56
1,31,106,136
1,43,100,0
1,31,107,28
1,27,107,20
1,27,107,172
1,39,102,576
1,27,92,184
1,29,103,20
1,29,107,216
1,41,94,20
1,41,77,72
1,36,87,56
1,29,103,12
1,27,92,20
1,27,102,156
1,39,102,0
1,27,84,8
1,29,103,24
1,41,103,12
1,29,97,192
1,31,100,72
1,43,97,192
1,43,78,100
1,38,94,68
1,31,107,20
1,36,106,16
1,36,100,84
1,36,103,168
1,36,91,68
1,36,97,296
1,29,97,104
1,29,97,72
1,29,94,192
1,31,103,124
1,31,100,192
1,36,97,136
1,36,94,92
1,36,103,176
1,36,100,76
1,36,106,288
1,29,103,116
1,29,100,60
1,29,100,168
1,31,100,108
1,31,97,56
1,31,106,276
1,33,103,68
1,33,97,92
1,33,97,172
1,33,97,88
1,33,97,296
1,29,100,108
1,29,100,84
1,31,103,192
1,31,97,96
1,31,103,280
1,34,107,128
1,34,102,100
1,34,102,172
1,34,102,120
1,33,103,120
1,31,106,108
1,31,94,92
1,31,103,168
1,31,103,84
1,31,100,272
1,39,97,132
1,39,87,108
1,39,92,180
1,39,87,72
1,34,47,228
1,39,87,56
1,41,73,60
1,41,71,88
1,41,78,156
1,41,75,92
1,36,81,172
1,41,75,48
1,39,79,28
1,39,84,96
1,39,97,156
1,39,84,100
1,34,50,180
1,39,79,60
1,41,75,60
1,41,69,64
1,41,76,140
1,41,75,132
1,39,77,192
1,38,83,48
1,36,106,40
1,36,100,84
1,36,103,168
1,36,91,68
1,36,97,296
1,29,106,112
1,29,103,100
1,31,103,172
1,31,100,72
1,31,91,316
1,36,97,132
1,36,94,92
1,36,103,172
1,36,100,76
1,36,106,288
1,29,106,116
1,29,100,88
1,31,103,164
1,31,91,76
1,31,103,284
1,33,103,128
1,33,97,88
1,33,97,176
1,33,97,88
1,33,97,296
1,29,100,112
1,29,100,84
1,31,103,188
1,31,97,100
1,31,103,280
1,34,107,132
1,34,102,100
1,34,102,172
1,34,102,120
1,33,103,116
1,31,106,108
1,31,94,92
1,31,103,164
1,31,103,84
1,31,100,272
1,36,100,136
1,36,94,92
1,36,103,140
1,31,100,108
1,33,103,4
1,36,100,80
1,36,106,220
1,36,100,84
1,36,103,168
1,36,91,68
1,36,97,296
1,29,106,108
1,29,103,100
1,31,103,172
1,31,100,72
1,31,91,316
1,36,97,132
1,36,94,92
1,36,103,172
1,36,100,76
1,36,106,288
1,29,106,116
1,29,100,88
1,31,103,164
1,31,91,72
1,31,103,284
1,33,103,128
1,33,97,92
1,33,97,172
1,33,97,88
1,33,97,296
1,29,100,108
1,29,100,88
1,31,103,192
1,31,97,96
1,31,103,280
1,34,107,128
1,34,102,104
1,34,102,172
1,34,102,120
1,33,103,116
1,31,106,108
1,31,94,92
1,31,103,164
1,31,103,84
1,31,100,276
1,27,84,140
1,27,77,92
1,27,102,124
1,27,92,112
1,39,102,192
1,27,77,168
1,39,64,40
1,29,100,44
1,29,91,112
1,41,100,120
1,29,91,56
1,41,91,12
1,39,92,32
1,38,97,56
1,36,103,80
2,48,72,2640
2,48,82,20
2,48,81,172
2,48,71,112
2,48,73,108
2,48,77,136
2,48,65,80
2,48,77,128
2,48,79,164
2,48,68,112
2,48,78,132
2,48,66,28
2,48,77,24
2,50,76,16
2,50,82,52
2,51,76,12
2,51,71,116
2,51,89,112
2,57,70,12
2,55,69,52
2,53,73,4
2,56,74,160
2,53,53,0
2,56,71,136
2,53,54,0
2,56,77,124
2,53,70,0
2,55,82,4
2,55,83,16
2,48,87,228
2,48,73,132
2,48,78,72
2,48,77,16
2,48,72,108
2,48,80,136
2,48,80,212
2,48,69,128
2,48,82,144
2,48,80,32
2,48,84,32
2,50,83,152
2,50,79,132
2,51,77,28
2,51,69,140
2,51,82,136
2,57,70,8
2,55,76,0
2,53,71,180
2,56,73,148
2,53,64,0
2,56,69,136
2,53,52,4
2,56,77,124
2,53,66,4
2,55,77,8
2,55,79,160
2,51,72,760
2,51,76,132
2,51,75,144
2,53,76,32
2,53,65,16
2,53,76,140
2,51,80,16
2,51,67,148
2,51,83,148
2,53,72,136
2,53,77,148
2,55,79,20
2,55,78,132
2,48,76,12
2,48,82,48
2,48,85,116
2,53,74,56
2,57,65,4
2,57,62,176
2,53,73,4
2,59,77,24
2,55,76,4
2,48,85,96
2,48,81,48
2,48,81,132
2,53,75,92
2,57,57,0
2,57,52,152
2,53,67,0
2,55,66,28
2,59,56,4
2,60,77,344
2,57,75,4
2,53,74,492
2,57,61,4
2,59,69,4
2,55,78,0
2,58,80,32
2,58,79,148
2,58,84,136
2,57,79,16
2,59,76,16
2,55,74,0
2,48,78,64
2,48,77,136
2,48,80,152
2,48,88,168
2,48,78,120
2,48,85,144
2,48,82,216
2,48,77,160
2,48,83,140
2,48,81,188
2,48,73,104
2,48,79,144
2,48,79,192
2,48,67,128
2,48,85,152
2,48,83,28
2,48,85,4
2,50,82,20
2,50,85,56
2,51,72,20
2,51,75,92
2,51,85,76
2,57,77,8
2,55,83,16
2,53,81,388
2,53,64,24
2,56,79,0
2,56,69,144
2,53,53,4
2,56,77,124
2,53,68,0
2,55,81,0
2,55,82,104
2,48,83,12
2,48,75,132
2,48,83,136
2,48,81,16
2,48,71,72
2,48,86,148
2,48,85,204
2,48,73,132
2,48,83,140
2,48,83,24
2,48,82,60
2,50,86,60
2,50,84,120
2,51,78,44
2,51,74,140
2,51,87,136
2,57,79,8
2,55,80,108
2,53,82,292
2,56,79,164
2,53,67,0
2,53,58,56
2,56,70,0
2,56,78,120
2,53,62,0
2,55,82,12
2,55,86,128
2,51,79,12
2,51,68,120
2,51,82,136
2,53,82,12
2,53,65,132
2,53,76,40
2,51,80,12
2,51,57,104
2,51,87,140
2,53,73,100
2,53,75,176
2,55,79,128
2,55,83,148
2,48,92,60
2,48,71,168
2,48,85,156
2,53,69,200
2,57,71,4
2,53,64,148
2,57,64,4
2,55,76,16
2,59,79,0
2,48,84,172
2,48,68,44
2,48,86,156
2,53,76,128
2,57,69,4
2,53,72,140
2,57,53,0
2,55,71,64
2,59,58,0
2,60,79,340
2,57,74,4
2,53,73,444
2,57,77,0
2,59,72,24
2,55,77,4
2,58,75,60
2,58,79,136
2,58,80,108
2,57,71,76
2,59,80,88
2,55,77,8
2,51,75,228
2,51,66,152
2,51,89,148
2,53,79,120
2,57,63,4
2,53,67,148
2,57,52,4
2,57,59,132
2,53,66,0
2,51,84,140
2,51,67,172
2,51,83,156
2,51,84,164
2,57,63,148
2,53,76,0
2,57,58,172
2,53,64,4
2,53,76,124
2,57,64,0
2,51,73,56
2,50,78,52
2,48,87,68
2,48,78,36
2,48,85,8
2,57,66,184
2,53,74,4
2,53,74,148
2,57,58,0
2,55,76,60
2,59,65,4
2,48,90,184
2,48,76,56
2,48,87,152
2,53,76,152
2,57,63,0
2,57,51,172
2,53,69,0
2,55,67,64
2,59,55,4
2,57,81,372
2,60,80,0
2,53,69,424
2,57,74,4
2,59,75,12
2,55,85,0
2,58,80,20
2,58,76,132
2,58,80,136
2,57,72,40
2,59,73,12
2,55,67,8
2,48,82,80
2,48,71,156
2,48,86,152
2,48,76,112
2,48,85,132
2,48,80,28
2,48,83,148
2,57,71,224
2,53,70,0
2,57,67,156
2,53,60,4
2,55,76,40
2,59,64,0
2,48,87,176
2,48,79,80
2,48,85,4
2,57,67,188
2,53,61,4
2,57,68,156
2,53,57,0
2,59,65,4
2,55,69,4
2,57,79,352
2,60,79,4
2,57,73,8
2,53,68,0
2,59,68,24
2,55,80,0
2,58,75,76
2,58,72,156
2,58,81,136
2,57,74,28
2,59,77,56
2,55,70,4
2,51,79,4
2,51,74,180
2,51,86,144
2,53,82,244
2,57,73,0
2,53,73,164
2,57,67,4
2,53,80,124
2,57,66,4
2,51,79,88
2,50,77,44
2,48,85,28
2,55,81,4
3,60,81,2632
3,67,76,8
3,72,91,8
3,60,68,48
3,67,67,20
3,72,88,196
3,60,73,40
3,69,87,388
3,65,86,0
3,60,87,12
3,67,68,24
3,72,90,8
3,60,69,44
3,67,68,40
3,72,80,4
3,60,72,44
3,69,82,8
3,65,75,0
3,67,71,308
3,64,79,4
3,64,90,116
3,67,72,8
3,64,88,188
3,67,76,8
3,65,84,4
3,69,81,0
3,60,76,172
3,60,91,100
3,62,76,4
3,60,79,0
3,60,84,128
3,64,89,260
3,67,77,12
3,64,87,0
3,65,75,28
3,67,74,0
3,69,76,28
3,65,82,4
3,72,94,8
3,70,85,16
3,65,76,0
3,69,75,8
3,65,86,4
3,67,71,4
3,63,76,4
3,67,81,308
3,63,77,0
3,70,91,0
3,67,68,4
3,69,84,0
3,72,92,0
3,65,82,32
3,70,99,8
3,69,83,20
3,65,78,0
3,67,82,384
3,67,85,176
3,72,98,8
3,71,82,4
3,74,86,0
3,75,92,16
3,74,81,32
3,65,83,12
3,72,93,0
3,69,83,20
3,67,72,4
3,64,76,4
3,64,91,64
3,67,75,4
3,64,88,4
3,67,74,8
3,65,78,0
3,69,85,28
3,60,84,24
3,62,81,0
3,60,84,192
3,60,87,144
3,60,89,160
3,64,90,8
3,67,75,8
3,64,92,4
3,67,82,28
3,65,80,4
3,69,83,20
3,65,72,0
3,72,88,204
3,65,83,76
3,70,90,0
3,69,80,0
3,65,86,204
3,67,70,28
3,63,75,4
3,63,79,340
3,67,80,0
3,70,91,4
3,67,77,0
3,72,92,4
3,69,80,0
3,65,86,144
3,70,95,12
3,69,73,24
3,65,84,200
3,67,80,20
3,67,85,180
3,72,96,392
3,71,79,4
3,74,86,4
3,75,87,12
3,74,81,24
3,72,93,116
3,65,74,4
3,69,66,36
3,63,86,668
3,65,91,28
3,67,77,60
3,63,82,0
3,69,84,156
3,65,87,0
3,72,97,12
3,70,91,24
3,69,79,12
3,65,88,8
3,67,76,68
3,63,76,4
3,63,90,188
3,65,94,24
3,67,82,8
3,74,91,192
3,69,82,0
3,69,85,132
3,71,92,20
3,64,92,60
3,67,82,12
3,74,94,196
3,72,90,156
3,64,82,0
3,67,83,76
3,64,83,4
3,67,86,20
3,67,88,116
3,64,83,8
3,67,87,4
3,69,83,0
3,64,89,396
3,67,84,8
3,74,91,200
3,72,90,160
3,64,78,0
3,67,80,100
3,64,85,0
3,67,82,196
3,67,84,120
3,64,83,8
3,67,86,200
3,69,85,0
3,60,83,20
3,60,93,68
3,64,93,200
3,65,85,4
3,67,81,200
3,69,88,344
3,60,84,0
3,60,88,132
3,62,87,16
3,62,81,88
3,62,86,76
3,62,85,360
3,65,81,4
3,64,88,0
3,60,84,180
3,60,87,124
3,60,85,180
3,60,79,104
3,60,87,88
3,64,94,8
3,67,78,20
3,67,88,76
3,67,79,152
3,64,83,8
3,69,86,688
3,65,87,4
3,67,71,12
3,64,84,4
3,64,91,128
3,67,73,8
3,64,87,192
3,67,84,4
3,65,76,4
3,69,88,4
3,60,84,12
3,60,87,100
3,62,79,196
3,60,81,192
3,60,86,156
3,64,90,248
3,67,68,192
3,64,86,196
3,67,81,24
3,65,80,0
3,69,90,128
3,65,81,4
3,72,88,4
3,70,92,20
3,65,80,0
3,69,78,28
3,65,88,68
3,67,71,16
3,63,80,4
3,67,82,80
3,63,85,0
3,70,95,68
3,67,74,4
3,67,8,16
3,69,86,12
3,72,94,4
3,65,65,12
3,70,95,28
3,69,75,12
3,65,90,4
3,67,82,16
3,67,88,160
3,72,99,16
3,74,90,224
3,71,82,4
3,75,88,24
3,74,83,4
3,72,96,120
3,65,77,4
3,69,84,36
3,67,66,12
3,64,70,4
3,64,94,172
3,67,75,8
3,64,88,196
3,67,74,20
3,65,81,0
3,69,84,40
3,60,62,24
3,60,90,84
3,62,80,188
3,60,86,12
3,60,95,148
3,60,85,108
3,64,91,4
3,67,77,12
3,64,94,4
3,67,86,20
3,65,79,8
3,69,90,48
3,65,76,4
3,72,90,8
3,70,93,60
3,65,83,4
3,69,78,24
3,65,89,8
3,67,77,32
3,63,83,4
3,67,81,340
3,63,82,0
3,70,96,12
3,67,81,0
3,69,80,12
3,72,94,0
3,65,88,88
3,70,99,4
3,69,78,12
3,65,89,4
3,67,87,40
3,67,88,64
3,67,89,88
3,72,102,24
3,71,84,248
3,74,90,4
3,75,88,0
3,74,83,16
3,72,93,116
3,65,73,0
3,69,72,36
3,63,83,656
3,65,83,4
