track,note,velocity,time
3,56,80,0
3,68,80,0
3,56,80,0
3,58,80,0
3,59,80,0
3,66,80,0
3,59,80,0
3,71,80,0
3,70,80,0
3,66,80,0
3,61,80,0
3,63,80,0
3,64,80,0
3,70,80,0
3,64,80,0
3,61,80,0
3,56,80,0
3,68,80,0
3,56,80,0
3,58,80,0
3,59,80,0
3,66,80,0
3,59,80,0
3,71,80,0
3,70,80,0
3,66,80,0
3,61,80,0
3,63,80,0
3,64,80,0
3,70,80,0
3,64,80,0
3,61,80,0
3,56,80,0
3,68,80,0
3,56,80,0
3,58,80,0
3,59,80,0
3,66,80,0
3,59,80,0
3,71,80,0
3,70,80,0
3,66,80,0
3,61,80,0
3,63,80,0
3,64,80,0
3,70,80,0
3,64,80,0
3,61,80,0
3,56,80,0
3,68,80,0
3,56,80,0
3,58,80,0
3,59,80,0
3,66,80,0
3,59,80,0
3,71,80,0
3,70,80,0
3,66,80,0
3,61,80,0
3,63,80,0
3,64,80,0
3,70,80,0
3,64,80,0
3,61,80,0
3,56,80,0
3,68,80,0
3,56,80,0
3,58,80,0
3,59,80,0
3,66,80,0
3,59,80,0
3,71,80,0
3,70,80,0
3,66,80,0
3,61,80,0
3,63,80,0
3,64,80,0
3,70,80,0
3,64,80,0
3,61,80,0
3,56,80,0
3,68,80,0
3,56,80,0
3,58,80,0
3,59,80,0
3,66,80,0
3,59,80,0
3,71,80,0
3,70,80,0
3,66,80,0
3,61,80,0
3,63,80,0
3,64,80,0
3,70,80,0
3,64,80,0
3,61,80,0
3,56,80,0
3,68,80,0
3,56,80,0
3,58,80,0
3,59,80,0
3,66,80,0
3,59,80,0
3,71,80,0
3,70,80,0
3,66,80,0
3,61,80,0
3,63,80,0
3,64,80,0
3,70,80,0
3,64,80,0
3,61,80,0
3,56,80,0
3,68,80,0
3,56,80,0
3,58,80,0
3,59,80,0
3,66,80,0
3,59,80,0
3,71,80,0
3,70,80,0
3,66,80,0
3,61,80,0
3,63,80,0
3,64,80,0
3,70,80,0
3,64,80,0
3,61,80,0
3,56,80,0
3,68,80,0
3,56,80,0
3,58,80,0
3,59,80,0
3,66,80,0
3,59,80,0
3,71,80,0
3,70,80,0
3,66,80,0
3,61,80,0
3,63,80,0
3,64,80,0
3,70,80,0
3,64,80,0
3,61,80,0
3,56,80,0
3,68,80,0
3,56,80,0
3,58,80,0
3,59,80,0
3,66,80,0
3,59,80,0
3,71,80,0
3,70,80,0
3,66,80,0
3,61,80,0
3,63,80,0
3,64,80,0
3,70,80,0
3,64,80,0
3,61,80,0
3,56,80,0
3,68,80,0
3,56,80,0
3,58,80,0
3,59,80,0
3,66,80,0
3,59,80,0
3,71,80,0
3,70,80,0
3,66,80,0
3,61,80,0
3,63,80,0
3,64,80,0
3,70,80,0
3,64,80,0
3,61,80,0
3,56,80,0
3,68,80,0
3,56,80,0
3,58,80,0
3,59,80,0
3,66,80,0
3,59,80,0
3,71,80,0
3,70,80,0
3,66,80,0
3,61,80,0
3,63,80,0
3,64,80,0
3,70,80,0
3,64,80,0
3,61,80,0
3,56,80,0
3,68,80,0
3,56,80,0
3,58,80,0
3,59,80,0
3,66,80,0
3,59,80,0
3,71,80,0
3,70,80,0
3,66,80,0
3,61,80,0
3,63,80,0
3,64,80,0
3,70,80,0
3,64,80,0
3,61,80,0
3,56,80,0
3,68,80,0
3,56,80,0
3,58,80,0
3,59,80,0
3,66,80,0
3,59,80,0
3,71,80,0
3,70,80,0
3,66,80,0
3,61,80,0
3,63,80,0
3,64,80,0
3,70,80,0
3,64,80,0
3,61,80,0
3,56,80,0
3,68,80,0
3,56,80,0
3,58,80,0
3,59,80,0
3,66,80,0
3,59,80,0
3,71,80,0
3,70,80,0
3,66,80,0
3,61,80,0
3,63,80,0
3,64,80,0
3,70,80,0
3,64,80,0
3,61,80,0
3,56,80,0
3,68,80,0
3,56,80,0
3,58,80,0
3,59,80,0
3,66,80,0
3,59,80,0
3,71,80,0
3,70,80,0
3,66,80,0
3,61,80,0
3,63,80,0
3,64,80,0
3,70,80,0
3,64,80,0
3,61,80,0
3,56,80,0
3,68,80,0
3,56,80,0
3,58,80,0
3,59,80,0
3,66,80,0
3,59,80,0
3,71,80,0
3,70,80,0
3,66,80,0
3,61,80,0
3,63,80,0
3,64,80,0
3,70,80,0
3,64,80,0
3,61,80,0
3,56,80,0
3,68,80,0
3,56,80,0
3,58,80,0
3,59,80,0
3,66,80,0
3,59,80,0
3,71,80,0
3,70,80,0
3,66,80,0
3,61,80,0
3,63,80,0
3,64,80,0
3,70,80,0
3,64,80,0
3,61,80,0
3,56,80,0
3,68,80,0
3,56,80,0
3,58,80,0
3,59,80,0
3,66,80,0
3,59,80,0
3,71,80,0
3,70,80,0
3,66,80,0
3,61,80,0
3,63,80,0
3,64,80,0
3,70,80,0
3,64,80,0
3,61,80,0
3,56,80,0
3,68,80,0
3,56,80,0
3,58,80,0
3,59,80,0
3,66,80,0
3,59,80,0
3,71,80,0
3,70,80,0
3,66,80,0
3,61,80,0
3,63,80,0
3,64,80,0
3,70,80,0
3,64,80,0
3,61,80,0
3,56,80,0
3,68,80,0
3,56,80,0
3,58,80,0
3,59,80,0
3,66,80,0
3,59,80,0
3,71,80,0
3,70,80,0
3,66,80,0
3,61,80,0
3,63,80,0
3,64,80,0
3,70,80,0
3,64,80,0
3,61,80,0
3,56,80,0
3,68,80,0
3,56,80,0
3,58,80,0
3,59,80,0
3,66,80,0
3,59,80,0
3,71,80,0
3,70,80,0
3,66,80,0
3,61,80,0
3,63,80,0
3,64,80,0
3,70,80,0
3,64,80,0
3,61,80,0
3,56,80,0
3,68,80,0
3,56,80,0
3,58,80,0
3,59,80,0
3,66,80,0
3,59,80,0
3,71,80,0
3,70,80,0
3,66,80,0
3,61,80,0
3,63,80,0
3,64,80,0
3,70,80,0
3,64,80,0
3,61,80,0
3,56,80,0
3,68,80,0
3,56,80,0
3,58,80,0
3,59,80,0
3,66,80,0
3,59,80,0
3,71,80,0
3,70,80,0
3,66,80,0
3,61,80,0
3,63,80,0
3,64,80,0
3,70,80,0
3,64,80,0
3,61,80,0
3,56,80,0
3,68,80,0
3,56,80,0
3,58,80,0
3,59,80,0
3,66,80,0
3,59,80,0
3,71,80,0
3,70,80,0
3,66,80,0
3,61,80,0
3,63,80,0
3,64,80,0
3,70,80,0
3,64,80,0
3,61,80,0
3,56,80,0
3,68,80,0
3,56,80,0
3,58,80,0
3,59,80,0
3,66,80,0
3,59,80,0
3,71,80,0
3,70,80,0
3,66,80,0
3,61,80,0
3,63,80,0
3,64,80,0
3,70,80,0
3,64,80,0
3,61,80,0
3,56,80,0
3,68,80,0
3,56,80,0
3,58,80,0
3,59,80,0
3,66,80,0
3,59,80,0
3,71,80,0
3,70,80,0
3,66,80,0
3,61,80,0
3,63,80,0
3,64,80,0
3,70,80,0
3,64,80,0
3,61,80,0
3,56,80,0
3,68,80,0
3,56,80,0
3,58,80,0
3,59,80,0
3,66,80,0
3,59,80,0
3,71,80,0
3,70,80,0
3,66,80,0
3,61,80,0
3,63,80,0
3,64,80,0
3,70,80,0
3,64,80,0
3,61,80,0
3,56,80,0
3,68,80,0
3,56,80,0
3,58,80,0
3,59,80,0
3,66,80,0
3,59,80,0
3,71,80,0
3,70,80,0
3,66,80,0
3,61,80,0
3,63,80,0
3,64,80,0
3,70,80,0
3,64,80,0
3,61,80,0
3,56,80,0
3,68,80,0
3,56,80,0
3,58,80,0
3,59,80,0
3,66,80,0
3,59,80,0
3,71,80,0
3,70,80,0
3,66,80,0
3,61,80,0
3,63,80,0
3,64,80,0
3,70,80,0
3,64,80,0
3,61,80,0
3,56,80,0
3,68,80,0
3,56,80,0
3,58,80,0
3,59,80,0
3,66,80,0
3,59,80,0
3,71,80,0
3,70,80,0
3,66,80,0
3,61,80,0
3,63,80,0
3,64,80,0
3,70,80,0
3,64,80,0
3,61,80,0
3,56,80,0
3,68,80,0
3,56,80,0
3,58,80,0
3,59,80,0
3,66,80,0
3,59,80,0
3,71,80,0
3,70,80,0
3,66,80,0
3,61,80,0
3,63,80,0
3,64,80,0
3,70,80,0
3,64,80,0
3,61,80,0
3,56,80,0
3,68,80,0
3,56,80,0
3,58,80,0
3,59,80,0
3,66,80,0
3,59,80,0
3,71,80,0
3,70,80,0
3,66,80,0
3,61,80,0
3,63,80,0
3,64,80,0
3,70,80,0
3,64,80,0
3,61,80,0
3,56,80,0
3,68,80,0
3,56,80,0
3,58,80,0
3,59,80,0
3,66,80,0
3,59,80,0
3,71,80,0
3,70,80,0
3,66,80,0
3,61,80,0
3,63,80,0
3,64,80,0
3,70,80,0
3,64,80,0
3,61,80,0
3,56,80,0
3,68,80,0
3,56,80,0
3,58,80,0
3,59,80,0
3,66,80,0
3,59,80,0
3,71,80,0
3,70,80,0
3,66,80,0
3,61,80,0
3,63,80,0
3,64,80,0
3,70,80,0
3,64,80,0
3,61,80,0
3,56,80,0
3,68,80,0
3,56,80,0
3,58,80,0
3,59,80,0
3,66,80,0
3,59,80,0
3,71,80,0
3,70,80,0
3,66,80,0
3,61,80,0
3,63,80,0
3,64,80,0
3,70,80,0
3,64,80,0
3,61,80,0
3,56,80,0
3,68,80,0
3,56,80,0
3,58,80,0
3,59,80,0
3,66,80,0
3,59,80,0
3,71,80,0
3,70,80,0
3,66,80,0
3,61,80,0
3,63,80,0
3,64,80,0
3,70,80,0
3,64,80,0
3,61,80,0
3,56,80,0
3,68,80,0
3,56,80,0
3,58,80,0
3,59,80,0
3,66,80,0
3,59,80,0
3,71,80,0
3,70,80,0
3,66,80,0
3,61,80,0
3,63,80,0
3,64,80,0
3,70,80,0
3,64,80,0
3,61,80,0
3,56,80,0
3,68,80,0
3,56,80,0
3,58,80,0
3,59,80,0
3,66,80,0
3,59,80,0
3,71,80,0
3,70,80,0
3,66,80,0
3,61,80,0
3,63,80,0
3,64,80,0
3,70,80,0
3,64,80,0
3,61,80,0
3,56,80,0
3,68,80,0
3,56,80,0
3,58,80,0
3,59,80,0
3,66,80,0
3,59,80,0
3,71,80,0
3,70,80,0
3,66,80,0
3,61,80,0
3,63,80,0
3,64,80,0
3,70,80,0
3,64,80,0
3,61,80,0
3,56,80,0
3,68,80,0
3,56,80,0
3,58,80,0
3,59,80,0
3,66,80,0
3,59,80,0
3,71,80,0
3,56,80,1536
3,68,80,0
3,56,80,0
3,58,80,0
3,59,80,0
3,66,80,0
3,59,80,0
3,71,80,0
3,70,80,0
3,66,80,0
3,61,80,0
3,63,80,0
3,64,80,0
3,70,80,0
3,64,80,0
3,61,80,0
3,56,80,0
3,68,80,0
3,56,80,0
3,58,80,0
3,59,80,0
3,66,80,0
3,59,80,0
3,71,80,0
3,70,80,0
3,66,80,0
3,61,80,0
3,63,80,0
3,64,80,0
3,70,80,0
3,64,80,0
3,61,80,0
3,56,80,0
3,68,80,0
3,56,80,0
3,58,80,0
3,59,80,0
3,66,80,0
3,59,80,0
3,71,80,0
3,70,80,0
3,66,80,0
3,61,80,0
3,63,80,0
3,64,80,0
3,70,80,0
3,64,80,0
3,61,80,0
3,56,80,0
3,68,80,0
3,56,80,0
3,58,80,0
3,59,80,0
3,66,80,0
3,59,80,0
3,71,80,0
3,70,80,0
3,66,80,0
3,61,80,0
3,63,80,0
3,64,80,0
3,70,80,0
3,64,80,0
3,61,80,0
3,56,80,0
3,68,80,0
3,56,80,0
3,58,80,0
3,59,80,0
3,66,80,0
3,59,80,0
3,71,80,0
3,70,80,0
3,66,80,0
3,61,80,0
3,63,80,0
3,64,80,0
3,70,80,0
3,64,80,0
3,61,80,0
3,56,80,0
3,68,80,0
3,56,80,0
3,58,80,0
3,59,80,0
3,66,80,0
3,59,80,0
3,71,80,0
3,70,80,0
3,66,80,0
3,61,80,0
3,63,80,0
3,64,80,0
3,70,80,0
3,64,80,0
3,61,80,0
3,56,80,0
3,68,80,0
3,56,80,0
3,58,80,0
3,59,80,0
3,66,80,0
3,59,80,0
3,71,80,0
3,70,80,0
3,66,80,0
3,61,80,0
3,63,80,0
3,64,80,0
3,70,80,0
3,64,80,0
3,61,80,0
3,56,80,0
3,68,80,0
3,56,80,0
3,58,80,0
3,59,80,0
3,66,80,0
3,59,80,0
3,71,80,0
3,70,80,0
3,66,80,0
3,61,80,0
3,63,80,0
3,64,80,0
3,70,80,0
3,64,80,0
3,61,80,0
3,56,80,0
3,68,80,0
3,56,80,0
3,58,80,0
3,59,80,0
3,66,80,0
3,59,80,0
3,71,80,0
3,70,80,0
3,66,80,0
3,61,80,0
3,63,80,0
3,64,80,0
3,70,80,0
3,64,80,0
3,61,80,0
3,68,80,0
4,70,80,5952
4,71,80,0
4,71,80,0
4,70,80,0
4,68,80,0
4,63,80,0
4,66,80,192
4,66,80,0
4,64,80,0
4,68,80,0
4,70,80,0
4,71,80,0
4,71,80,0
4,70,80,0
4,68,80,0
4,63,80,0
4,64,80,768
4,63,80,0
4,63,80,0
4,68,80,0
4,68,80,0
4,66,80,0
4,63,80,0
4,61,80,192
4,63,80,0
4,64,80,0
4,68,80,192
4,68,80,0
4,68,80,0
4,66,80,0
4,63,80,0
4,66,80,0
4,66,80,192
4,64,80,0
4,63,80,0
4,64,80,0
4,66,80,1536
4,66,80,77
4,66,80,77
4,64,80,12
4,64,80,24
4,66,80,1368
4,70,80,77
4,68,80,77
4,64,80,77
4,64,80,39
4,66,80,1229
4,66,80,77
4,66,80,39
4,66,80,39
4,64,80,39
4,63,80,39
4,64,80,39
4,64,80,39
4,66,80,1268
4,66,80,39
4,66,80,39
4,66,80,77
4,68,80,39
4,64,80,77
4,66,80,1076
4,66,80,24
4,66,80,39
4,66,80,39
4,64,80,39
4,63,80,39
4,64,80,39
4,64,80,39
4,66,80,1268
4,70,80,77
4,68,80,77
4,64,80,77
4,64,80,39
4,63,80,39
4,61,80,39
4,61,80,39
4,63,80,39
4,63,80,1575
4,61,80,39
4,61,80,39
4,63,80,39
4,70,80,1767
4,71,80,12
4,70,80,0
4,68,80,0
4,63,80,0
4,66,80,12
4,66,80,24
4,64,80,12
4,68,80,154
4,70,80,20
4,71,80,20
4,70,80,0
4,68,80,0
4,63,80,0
4,66,80,39
4,61,80,12
4,63,80,39
4,64,80,39
4,68,80,346
4,68,80,39
4,68,80,39
4,66,80,39
4,63,80,39
4,61,80,346
4,63,80,39
4,64,80,39
4,68,80,346
4,68,80,39
4,68,80,39
4,66,80,39
4,63,80,39
4,61,80,346
4,59,80,39
4,61,80,39
4,66,80,1498
4,66,80,77
4,66,80,77
4,64,80,12
4,64,80,24
4,66,80,1368
4,66,80,12
4,70,80,39
4,68,80,0
4,66,80,0
4,64,80,0
4,64,80,39
4,66,80,1076
4,66,80,77
4,66,80,39
4,66,80,39
4,64,80,39
4,63,80,39
4,64,80,39
4,64,80,39
4,66,80,1076
4,66,80,24
4,66,80,39
4,66,80,39
4,64,80,39
4,63,80,39
4,64,80,39
4,66,80,39
4,66,80,1076
4,66,80,39
4,66,80,39
4,66,80,39
4,64,80,24
4,63,80,39
4,64,80,39
4,66,80,1008
4,66,80,39
4,66,80,39
4,70,80,39
4,68,80,0
4,66,80,0
4,64,80,0
4,64,80,39
4,66,80,1076
4,66,80,77
4,66,80,39
4,66,80,39
4,64,80,39
4,63,80,39
4,64,80,39
4,64,80,24
4,63,80,39
4,70,80,14448
4,71,80,39
4,71,80,39
4,70,80,39
4,68,80,39
4,63,80,39
4,66,80,116
4,66,80,39
4,64,80,39
4,63,80,39
4,64,80,39
4,68,80,48
4,70,80,20
4,71,80,20
4,71,80,39
4,70,80,39
4,68,80,39
4,63,80,39
4,66,80,116
4,66,80,39
4,64,80,39
4,63,80,39
4,64,80,39
4,63,80,154
4,63,80,39
4,68,80,39
4,68,80,39
4,66,80,39
4,63,80,39
4,61,80,346
4,63,80,39
4,64,80,39
4,63,80,154
4,63,80,39
4,68,80,39
4,68,80,39
4,66,80,39
4,63,80,39
4,66,80,77
4,66,80,77
