track,note,velocity,time
6,70,127,6398
6,70,0,58
6,70,98,28
6,70,0,84
6,75,127,8
6,75,0,2
6,72,100,26
6,72,0,84
6,70,127,110
6,70,0,88
6,67,122,2
6,67,0,710
6,67,111,114
6,67,0,62
6,67,99,32
6,72,127,8
6,67,0,14
6,72,0,6
6,70,127,4
6,70,0,84
6,67,100,6
6,63,127,102
6,67,0,8
6,63,0,766
6,60,127,20
6,60,0,48
6,60,127,12
6,60,0,92
6,62,110,2
6,62,0,34
6,63,127,52
6,65,107,92
6,63,0,8
6,67,124,84
6,65,0,8
6,68,107,90
6,67,0,16
6,68,0,682
6,65,118,22
6,65,0,36
6,65,112,14
6,67,111,86
6,65,0,8
6,67,0,36
6,68,127,54
6,68,0,36
6,70,127,54
6,72,117,90
6,70,0,2
6,72,0,84
6,74,126,4
6,74,0,508
6,70,127,336
6,70,0,76
6,70,127,10
6,70,0,76
6,70,127,10
6,70,0,78
6,75,127,26
6,75,0,102
6,72,124,18
6,72,0,102
6,70,127,42
6,70,0,82
6,67,127,10
6,67,0,86
6,65,111,10
6,65,0,50
6,67,118,66
6,67,0,266
6,67,120,290
6,67,0,92
6,66,127,12
6,66,0,56
6,67,111,32
6,67,0,74
6,72,127,10
6,72,0,14
6,70,117,0
6,70,0,86
6,67,120,8
6,67,0,78
6,63,127,2
6,63,0,330
6,60,127,572
6,60,0,80
6,60,127,10
6,62,122,88
6,60,0,8
6,62,0,48
6,63,127,52
6,63,0,80
6,65,127,34
6,65,0,86
6,67,115,50
6,67,0,76
6,68,109,2
6,68,0,410
6,65,127,364
6,65,0,80
6,65,122,12
6,67,127,84
6,65,0,10
6,67,0,40
6,68,127,56
6,68,0,84
6,67,126,24
6,68,73,10
6,68,0,6
6,67,0,52
6,65,120,16
6,65,0,106
6,63,127,10
6,63,0,386
6,75,127,1112
6,75,0,56
6,75,127,18
6,75,0,70
6,75,127,24
6,75,0,68
6,75,127,22
6,75,0,238
6,72,127,80
6,72,0,70
6,72,127,20
6,72,0,64
6,72,127,24
6,72,0,98
6,70,127,0
6,70,0,78
6,70,127,16
6,70,0,74
6,70,127,20
6,70,0,186
6,67,117,210
6,67,0,86
6,70,127,2
6,70,0,4
6,70,115,10
6,70,0,72
6,70,115,14
6,70,0,82
6,70,127,20
6,70,0,16
6,67,120,48
6,67,0,70
6,74,127,20
6,74,0,18
6,72,127,96
6,72,0,260
6,67,111,242
6,67,0,44
6,68,127,22
6,68,0,154
6,68,127,6
6,68,0,26
6,68,127,26
6,68,0,32
6,68,127,12
6,68,0,248
6,65,118,174
6,72,127,66
6,65,0,2
6,72,0,104
6,70,127,36
6,70,0,296
6,65,120,258
6,65,0,34
6,67,127,62
6,70,127,98
6,67,0,10
6,70,0,610
6,75,127,738
6,75,0,32
6,75,127,64
6,75,0,32
6,75,127,64
6,74,124,82
6,75,0,4
6,74,0,64
6,75,127,22
6,75,0,130
6,75,127,68
6,75,0,136
6,73,127,46
6,73,0,38
6,75,127,68
6,75,0,100
6,73,127,0
6,73,0,84
6,71,108,12
6,71,0,92
6,73,127,4
6,73,0,224
6,70,127,186
6,70,0,72
6,73,127,6
6,73,0,72
6,73,115,22
6,73,0,76
6,73,127,20
6,73,0,70
6,73,127,22
6,73,0,336
6,70,127,46
6,70,0,6
6,77,124,8
6,77,0,40
6,75,109,80
6,75,0,368
6,70,127,96
6,70,0,98
6,71,126,4
6,71,0,124
6,71,110,14
6,71,0,46
6,71,122,12
6,71,0,40
6,71,127,10
6,71,0,344
6,70,127,88
6,70,0,92
6,71,117,8
6,71,0,80
6,71,127,12
6,71,0,30
6,71,126,66
6,71,0,78
6,71,108,14
6,71,0,336
6,65,127,50
6,65,0,86
6,65,127,14
6,65,0,134
6,70,127,10
6,70,0,1128
6,70,127,460
6,70,0,58
6,70,98,28
6,70,0,84
6,75,127,8
6,75,0,2
6,72,100,26
6,72,0,84
6,70,127,110
6,70,0,88
6,67,122,2
6,67,0,710
6,67,111,114
6,67,0,62
6,67,99,32
6,72,127,8
6,67,0,14
6,72,0,6
6,70,127,4
6,70,0,84
6,67,100,6
6,63,127,102
6,67,0,8
6,63,0,766
6,60,127,20
6,60,0,48
6,60,127,12
6,60,0,92
6,62,110,2
6,62,0,34
6,63,127,52
6,65,107,92
6,63,0,8
6,67,124,84
6,65,0,8
6,68,107,90
6,67,0,16
6,68,0,682
6,65,118,22
6,65,0,36
6,65,112,14
6,67,111,86
6,65,0,8
6,67,0,36
6,68,127,54
6,68,0,36
6,70,127,54
6,72,117,90
6,70,0,2
6,72,0,84
6,74,126,4
6,74,0,508
6,70,127,336
6,70,0,76
6,70,127,10
6,70,0,76
6,70,127,10
6,70,0,78
6,75,127,26
6,75,0,102
6,72,124,18
6,72,0,102
6,70,127,42
6,70,0,82
6,67,127,10
6,67,0,86
6,65,111,10
6,65,0,50
6,67,118,66
6,67,0,266
6,67,120,290
6,67,0,92
6,66,127,12
6,66,0,56
6,67,111,32
6,67,0,74
6,72,127,10
6,72,0,14
6,70,117,0
6,70,0,86
6,67,120,8
6,67,0,78
6,63,127,2
6,63,0,330
6,60,127,572
6,60,0,80
6,60,127,10
6,62,122,88
6,60,0,8
6,62,0,48
6,63,127,52
6,63,0,80
6,65,127,34
6,65,0,86
6,67,115,50
6,67,0,76
6,68,109,2
6,68,0,410
6,65,127,364
6,65,0,80
6,65,122,12
6,67,127,84
6,65,0,10
6,67,0,40
6,68,127,56
6,68,0,84
6,67,126,24
6,68,73,10
6,68,0,6
6,67,0,52
6,65,120,16
6,65,0,106
6,63,127,10
6,63,0,386
6,75,127,1112
6,75,0,56
6,75,127,18
6,75,0,70
6,75,127,24
6,75,0,68
6,75,127,22
6,75,0,238
6,72,127,80
6,72,0,70
6,72,127,20
6,72,0,64
6,72,127,24
6,72,0,98
6,70,127,0
6,70,0,78
6,70,127,16
6,70,0,74
6,70,127,20
6,70,0,186
6,67,117,210
6,67,0,86
6,70,127,2
6,70,0,4
6,70,115,10
6,70,0,72
6,70,115,14
6,70,0,82
6,70,127,20
6,70,0,16
6,67,120,48
6,67,0,70
6,74,127,20
6,74,0,18
6,72,127,96
6,72,0,260
6,67,111,242
6,67,0,44
6,68,127,22
6,68,0,154
6,68,127,6
6,68,0,26
6,68,127,26
6,68,0,32
6,68,127,12
6,68,0,248
6,65,118,174
6,72,127,66
6,65,0,2
6,72,0,104
6,70,127,36
6,70,0,296
6,65,120,258
6,65,0,34
6,67,127,62
6,70,127,98
6,67,0,10
6,70,0,610
6,75,127,738
6,75,0,32
6,75,127,64
6,75,0,32
6,75,127,64
6,74,124,82
6,75,0,4
6,74,0,64
6,75,127,22
6,75,0,130
6,75,127,68
6,75,0,136
6,73,127,46
6,73,0,38
6,75,127,68
6,75,0,100
6,73,127,0
6,73,0,84
6,71,108,12
6,71,0,92
6,73,127,4
6,73,0,224
6,70,127,186
6,70,0,72
6,73,127,6
6,73,0,72
6,73,115,22
6,73,0,76
6,73,127,20
6,73,0,70
6,73,127,22
6,73,0,336
6,70,127,46
6,70,0,6
6,77,124,8
6,77,0,40
6,75,109,80
6,75,0,368
6,70,127,96
6,70,0,98
6,71,126,4
6,71,0,124
6,71,110,14
6,71,0,46
6,71,122,12
6,71,0,40
6,71,127,10
6,71,0,344
6,70,127,88
6,70,0,92
6,71,117,8
6,71,0,80
6,71,127,12
6,71,0,30
6,71,126,66
6,71,0,78
6,71,108,14
6,71,0,336
6,65,127,50
6,65,0,86
6,65,127,14
6,65,0,134
6,70,127,10
6,70,0,1128
6,70,127,460
6,70,0,58
6,70,98,28
6,70,0,84
6,75,127,8
6,75,0,2
6,72,100,26
6,72,0,84
6,70,127,110
6,70,0,88
6,67,122,2
6,67,0,710
6,67,111,114
6,67,0,62
6,67,99,32
6,72,127,8
6,67,0,14
6,72,0,6
6,70,127,4
6,70,0,84
6,67,100,6
6,63,127,102
6,67,0,8
6,63,0,766
6,60,127,20
6,60,0,48
6,60,127,12
6,60,0,92
6,62,110,2
6,62,0,34
6,63,127,52
6,65,107,92
6,63,0,8
6,67,124,84
6,65,0,8
6,68,107,90
6,67,0,16
6,68,0,682
6,65,118,22
6,65,0,36
6,65,112,14
6,67,111,86
6,65,0,8
6,67,0,36
6,68,127,54
6,68,0,36
6,70,127,54
6,72,117,90
6,70,0,2
6,72,0,84
6,74,126,4
6,74,0,508
6,70,127,336
6,70,0,76
6,70,127,10
6,70,0,76
6,70,127,10
6,70,0,78
6,75,127,26
6,75,0,102
6,72,124,18
6,72,0,102
6,70,127,42
6,70,0,82
6,67,127,10
6,67,0,86
6,65,111,10
6,65,0,50
6,67,118,66
6,67,0,266
6,67,120,290
6,67,0,92
6,66,127,12
6,66,0,56
6,67,111,32
6,67,0,74
6,72,127,10
6,72,0,14
6,70,117,0
6,70,0,86
6,67,120,8
6,67,0,78
6,63,127,2
6,63,0,330
6,60,127,572
6,60,0,80
6,60,127,10
6,62,122,88
6,60,0,8
6,62,0,48
6,63,127,52
6,63,0,80
6,65,127,34
6,65,0,86
6,67,115,50
6,67,0,76
6,68,109,2
6,68,0,410
6,65,127,364
6,65,0,80
6,65,122,12
6,67,127,84
6,65,0,10
6,67,0,40
6,68,127,56
6,68,0,84
6,67,126,24
6,68,73,10
6,68,0,6
6,67,0,52
6,65,120,16
6,65,0,106
6,63,127,10
6,63,0,386
7,51,101,62
7,60,90,100
7,63,113,98
7,67,91,86
7,56,119,100
7,60,0,52
7,60,91,46
7,63,0,22
7,67,0,10
7,63,104,56
7,67,97,102
7,60,0,96
7,63,0,0
7,63,127,88
7,60,120,2
7,60,0,170
7,63,0,2
7,63,75,18
7,60,78,2
7,60,0,174
7,63,0,4
7,63,67,18
7,60,74,2
7,56,0,260
7,60,0,10
7,67,0,10
7,63,0,0
7,55,127,8
7,51,0,2
7,58,81,88
7,62,102,94
7,67,127,102
7,62,0,170
7,62,68,28
7,55,0,56
7,55,73,38
7,58,0,6
7,62,0,66
7,62,97,10
7,65,97,2
7,64,123,90
7,60,127,2
7,67,0,2
7,55,0,0
7,62,0,0
7,65,0,8
7,64,0,76
7,60,0,8
7,60,76,0
7,64,81,0
7,60,0,100
7,64,0,0
7,64,97,0
7,60,90,0
7,64,0,194
7,60,0,0
7,60,57,0
7,64,57,2
7,60,0,76
7,64,0,20
7,64,65,0
7,60,66,0
7,60,0,248
7,64,0,4
7,53,127,44
7,60,102,100
7,63,119,92
7,63,0,98
7,67,117,0
7,63,127,200
7,67,0,12
7,67,104,168
7,63,0,4
7,60,0,824
7,67,0,0
7,53,0,4
7,53,104,34
7,58,75,88
7,62,74,108
7,67,122,94
7,62,0,148
7,62,88,44
7,62,0,210
7,58,0,4
7,67,0,2
7,53,0,4
7,53,107,0
7,58,99,20
7,62,100,22
7,66,127,20
7,58,0,752
7,53,0,4
7,66,0,6
7,62,0,2
7,43,77,776
7,55,77,0
7,51,77,2
7,63,60,0
7,58,52,2
7,43,0,36
7,55,0,0
7,51,0,2
7,58,0,6
7,63,0,4
7,67,107,48
7,63,107,0
7,51,91,0
7,58,107,0
7,51,0,100
7,67,0,82
7,63,0,0
7,63,107,6
7,67,86,2
7,63,0,80
7,67,0,2
7,55,107,8
7,43,107,0
7,58,0,2
7,51,107,0
7,55,0,80
7,43,0,2
7,51,0,6
7,67,107,6
7,63,107,2
7,58,107,0
7,55,107,2
7,63,0,26
7,67,0,2
7,58,0,2
7,55,0,2
7,43,47,62
7,51,49,2
7,43,0,26
7,51,0,6
7,51,67,60
7,46,57,0
7,51,0,32
7,46,0,0
7,43,77,68
7,55,77,0
7,51,77,2
7,63,60,0
7,58,52,2
7,43,0,36
7,55,0,0
7,51,0,2
7,58,0,6
7,63,0,4
7,67,107,48
7,63,107,0
7,51,91,0
7,58,107,0
7,51,0,100
7,67,0,82
7,63,0,0
7,63,107,6
7,67,86,2
7,63,0,80
7,67,0,2
7,55,107,8
7,43,107,0
7,58,0,2
7,51,107,0
7,55,0,80
7,43,0,2
7,51,0,6
7,67,107,6
7,63,107,2
7,58,107,0
7,55,107,2
7,63,0,26
7,67,0,2
7,58,0,2
7,55,0,2
7,43,47,62
7,51,49,2
7,43,0,26
7,51,0,6
7,51,67,60
7,46,57,0
7,51,0,32
7,46,0,0
7,43,77,68
7,55,77,0
7,51,77,2
7,63,60,0
7,60,52,2
7,43,0,36
7,55,0,0
7,51,0,2
7,60,0,6
7,63,0,4
7,67,107,48
7,63,107,0
7,51,91,0
7,60,107,0
7,51,0,100
7,67,0,82
7,63,0,0
7,63,107,6
7,67,86,2
7,63,0,80
7,67,0,2
7,55,107,8
7,43,107,0
7,60,0,2
7,51,107,0
7,55,0,80
7,43,0,2
7,51,0,6
7,67,107,6
7,63,107,2
7,60,107,0
7,55,107,2
7,63,0,26
7,67,0,2
7,60,0,2
7,55,0,2
7,43,47,62
7,51,49,2
7,43,0,26
7,51,0,6
7,51,67,60
7,46,57,0
7,51,0,32
7,46,0,0
7,43,77,68
7,55,77,0
7,51,77,2
7,63,60,0
7,60,52,2
7,43,0,36
7,55,0,0
7,51,0,2
7,60,0,6
7,63,0,4
7,67,107,48
7,63,107,0
7,51,91,0
7,60,107,0
7,51,0,100
7,67,0,82
7,63,0,0
7,63,107,6
7,67,86,2
7,63,0,80
7,67,0,2
7,55,107,8
7,43,107,0
7,60,0,2
7,51,107,0
7,55,0,80
7,43,0,2
7,51,0,6
7,67,107,6
7,63,107,2
7,60,107,0
7,55,107,2
7,63,0,26
7,67,0,2
7,60,0,2
7,55,0,2
7,43,47,62
7,51,49,2
7,43,0,26
7,51,0,6
7,51,67,60
7,46,57,0
7,51,0,32
7,46,0,0
7,56,77,68
7,53,77,2
7,65,60,0
7,60,52,2
7,56,0,36
7,53,0,2
7,60,0,6
7,65,0,4
7,65,107,48
7,53,91,0
7,68,107,0
7,60,107,0
7,53,0,100
7,65,0,82
7,68,0,0
7,65,107,6
7,68,86,2
7,65,0,80
7,68,0,2
7,56,107,8
7,60,0,2
7,53,107,0
7,56,0,80
7,53,0,8
7,68,107,6
7,65,107,2
7,60,107,0
7,56,107,2
7,65,0,26
7,68,0,2
7,60,0,2
7,56,0,2
7,53,49,64
7,53,0,32
7,53,67,60
7,53,0,32
7,56,77,68
7,53,77,2
7,62,60,0
7,58,52,2
7,56,0,36
7,53,0,2
7,58,0,6
7,62,0,4
7,62,107,48
7,53,91,0
7,68,107,0
7,58,107,0
7,53,0,100
7,62,0,82
7,68,0,0
7,62,107,6
7,68,86,2
7,62,0,80
7,68,0,2
7,56,107,8
7,58,0,2
7,53,107,0
7,56,0,80
7,53,0,8
7,68,107,6
7,62,107,2
7,58,107,0
7,56,107,2
7,62,0,26
7,68,0,2
7,58,0,2
7,56,0,2
7,53,49,64
7,53,0,32
7,53,67,60
7,53,0,32
7,43,77,68
7,55,77,0
7,51,77,2
7,62,60,0
7,58,52,2
7,43,0,36
7,55,0,0
7,51,0,2
7,58,0,6
7,62,0,4
7,67,107,48
7,62,107,0
7,51,91,0
7,58,107,0
7,51,0,100
7,67,0,82
7,62,0,0
7,62,107,6
7,67,86,2
7,62,0,80
7,67,0,2
7,55,107,8
7,43,107,0
7,58,0,2
7,51,107,0
7,55,0,80
7,43,0,2
7,51,0,6
7,67,107,6
7,62,107,2
7,58,107,0
7,55,107,2
7,62,0,26
7,67,0,2
7,58,0,2
7,55,0,2
7,43,47,62
7,51,49,2
7,43,0,26
7,51,0,6
7,51,67,60
7,46,57,0
7,51,0,32
7,46,0,0
7,46,107,56
7,51,107,10
7,58,107,22
7,62,107,20
7,67,107,18
7,70,107,14
7,67,0,676
7,46,0,10
7,51,0,0
7,58,0,0
7,62,0,0
7,70,0,0
7,43,77,10
7,55,77,0
7,51,77,2
7,63,60,0
7,58,52,2
7,43,0,36
7,55,0,0
7,51,0,2
7,58,0,6
7,63,0,4
7,67,107,48
7,63,107,0
7,51,91,0
7,58,107,0
7,51,0,100
7,67,0,82
