track,note,velocity,time
3,43,100,1584
3,43,56,36
3,47,82,16
3,47,73,32
3,48,91,12
3,43,64,4
3,48,82,12
3,48,91,24
3,47,100,12
3,45,100,0
3,45,73,20
3,47,91,20
3,47,52,28
3,52,82,12
3,52,52,20
3,50,64,0
3,64,64,4
3,62,48,0
3,43,73,64
3,38,28,0
3,43,73,12
3,43,56,24
3,48,60,4
3,43,40,8
3,48,64,4
3,48,31,24
3,43,82,4
3,38,56,672
3,43,73,8
3,43,52,24
3,48,64,8
3,43,52,12
3,48,73,8
3,48,73,24
3,47,91,8
3,45,100,8
3,45,56,20
3,47,91,12
3,59,82,0
3,52,52,4
3,52,73,24
3,50,82,0
3,50,64,36
3,43,100,16
3,55,91,0
3,43,16,220
3,45,100,28
3,45,82,44
3,47,100,12
3,47,73,44
3,40,100,16
3,40,91,44
3,40,91,16
3,52,73,0
3,45,100,8
3,45,91,32
3,47,100,16
3,47,91,32
3,40,91,24
3,40,64,28
3,40,73,36
3,52,82,0
3,50,73,8
3,52,56,0
3,41,73,232
3,43,100,0
3,38,32,4
3,43,73,0
3,43,60,16
3,48,91,4
3,62,73,0
3,60,73,24
3,55,48,384
3,48,52,16
3,43,91,36
3,38,40,672
3,43,91,12
3,43,60,36
3,48,91,8
3,43,56,672
3,48,100,8
3,47,91,12
3,45,100,192
3,45,64,48
3,47,91,96
3,59,82,4
3,52,82,8
3,52,73,16
3,50,52,64
3,50,60,36
3,55,100,12
3,50,73,480
3,55,91,8
3,50,73,0
3,45,100,16
3,45,100,32
3,47,100,12
3,47,91,32
3,40,100,16
3,47,82,4
3,52,91,4
3,47,100,220
3,40,91,8
3,40,91,40
3,45,100,0
3,45,91,48
3,47,109,16
3,47,91,36
3,40,91,28
3,40,56,24
3,40,64,20
3,52,91,0
3,50,82,8
3,43,109,0
3,38,52,12
3,43,100,96
3,55,73,4
3,48,82,0
3,43,40,8
3,48,60,20
3,62,56,0
3,60,64,4
3,43,100,24
3,38,52,4
3,43,91,0
3,55,73,0
3,48,91,4
3,43,52,0
3,48,91,96
3,47,109,12
3,45,100,96
3,57,73,0
3,47,100,4
3,59,73,0
3,51,73,12
3,52,73,20
3,52,73,12
3,50,91,4
3,43,100,12
3,38,73,4
3,43,100,4
3,45,100,28
3,45,100,44
3,47,91,12
3,47,100,36
3,40,100,8
3,35,91,16
3,40,82,4
3,40,100,36
3,45,109,96
3,45,100,32
3,47,100,20
3,47,91,44
3,40,100,12
3,47,73,576
3,47,73,32
3,52,91,0
3,50,73,16
3,43,100,192
3,57,82,0
3,55,73,8
3,50,48,480
3,43,56,28
3,48,82,12
3,55,56,480
3,62,73,8
3,60,73,28
3,55,64,12
3,48,73,28
3,43,91,32
3,38,60,1344
3,43,60,88
3,48,100,12
3,62,56,404
3,60,60,40
3,55,48,384
3,48,73,20
3,45,100,4
3,45,73,20
3,47,82,96
3,59,73,0
3,51,44,16
3,52,82,4
3,52,64,16
3,50,91,4
3,50,64,40
3,43,100,8
3,55,100,0
3,43,82,12
3,45,100,8
3,45,82,36
3,47,100,16
3,47,91,44
3,40,91,12
3,52,82,12
3,40,91,36
3,40,91,36
3,45,100,0
3,45,100,32
3,47,100,12
3,47,82,32
3,40,91,12
3,35,91,24
3,40,100,12
3,52,91,0
3,47,91,4
3,44,91,28
3,45,100,20
3,45,91,36
3,47,100,20
3,47,100,44
3,40,91,24
3,47,91,480
3,52,73,12
3,52,73,0
3,47,91,12
3,40,82,20
3,40,91,24
3,45,100,48
3,45,73,32
3,47,100,16
3,47,73,28
3,40,91,16
3,47,64,480
3,52,60,32
3,52,73,0
4,59,56,1584
4,50,20,96
4,55,40,96
4,59,73,44
4,50,32,44
4,55,60,32
4,50,48,56
4,62,44,96
4,50,40,60
4,55,60,56
4,62,64,24
4,50,48,44
4,55,64,64
4,62,48,8
4,60,64,32
4,52,52,96
4,55,52,40
4,62,64,96
4,52,48,76
4,55,60,48
4,60,44,32
4,60,82,16
4,52,60,36
4,55,60,52
4,62,73,8
4,52,56,20
4,55,64,44
4,60,64,44
4,52,64,88
4,60,73,36
4,57,56,0
4,52,56,24
4,57,56,96
4,62,73,96
4,52,52,52
4,57,56,64
4,60,40,64
4,62,40,0
4,59,73,36
4,51,48,96
4,54,60,96
4,63,56,96
4,51,52,76
4,54,60,84
4,59,56,64
4,59,64,52
4,52,52,96
4,55,52,96
4,62,60,96
4,52,44,44
4,55,56,56
4,62,36,52
4,57,48,4
4,54,48,0
4,55,48,44
4,52,32,0
4,54,52,32
4,50,56,0
4,52,56,36
4,48,52,0
4,59,56,116
4,50,32,96
4,55,48,96
4,62,48,28
4,50,40,64
4,55,48,60
4,59,40,96
4,59,60,36
4,50,48,24
4,55,60,96
4,62,60,4
4,50,48,60
4,55,64,72
4,62,52,44
4,60,73,24
4,52,60,96
4,55,56,60
4,62,60,96
4,52,52,36
4,55,64,44
4,60,36,36
4,60,73,32
4,52,52,68
4,55,52,60
4,62,64,96
4,52,56,56
4,60,60,36
4,52,52,64
4,59,64,24
4,50,28,80
4,55,60,96
4,62,56,96
4,50,40,76
4,55,52,56
4,62,60,40
4,50,48,28
4,55,56,68
4,59,56,96
4,50,44,52
4,62,48,28
4,50,40,56
4,60,64,28
4,52,48,68
4,55,52,48
4,62,48,96
4,52,52,36
4,55,56,40
4,60,48,36
4,60,64,20
4,52,56,56
4,55,60,60
4,62,73,12
4,52,56,104
4,60,52,40
4,52,56,88
4,60,73,32
4,52,52,68
4,57,60,96
4,62,60,96
4,52,64,52
4,57,60,56
4,60,36,56
4,59,64,28
4,51,40,96
4,54,60,96
4,63,52,96
4,51,48,44
4,54,60,68
4,59,56,60
4,59,60,52
4,59,56,0
4,52,52,0
4,55,60,96
4,59,48,96
4,57,73,0
4,50,48,56
4,54,64,96
4,62,48,96
4,59,64,28
4,50,40,52
4,55,64,96
4,62,48,0
4,50,44,72
4,55,60,60
4,62,32,52
4,60,60,28
4,52,60,96
4,55,64,52
4,62,64,96
4,57,16,0
4,52,56,48
4,55,60,64
4,60,40,48
4,59,60,8
4,51,56,96
4,54,60,0
4,63,48,96
4,51,56,72
4,54,48,0
4,63,56,96
4,59,60,52
4,54,20,0
4,52,60,0
4,55,64,84
4,54,73,96
4,52,60,48
4,54,48,36
4,52,48,48
4,59,56,32
4,52,52,0
4,55,60,0
4,54,64,96
4,52,48,64
4,59,60,28
4,52,56,0
4,52,16,32
4,55,56,0
4,60,73,0
4,52,52,80
4,55,56,44
4,62,60,96
4,52,60,56
4,55,56,56
4,60,48,28
4,59,56,32
4,51,52,0
4,54,64,96
4,63,56,96
4,51,48,56
4,54,52,72
4,63,31,88
4,52,60,36
4,54,48,96
4,55,44,96
4,59,56,96
4,52,36,60
4,55,40,80
4,54,32,72
4,52,30,48
4,55,48,48
4,59,52,0
4,54,64,0
4,52,29,0
4,57,82,0
4,50,82,64
4,54,73,76
4,62,40,96
4,59,64,32
4,59,64,0
4,55,40,0
4,50,36,0
4,55,56,96
4,62,56,96
4,50,48,64
4,57,60,96
4,55,56,88
4,59,60,8
4,50,52,48
4,55,60,0
4,57,64,96
4,50,64,64
4,59,52,32
4,50,48,72
4,60,64,0
4,55,48,0
4,52,60,96
4,55,60,52
4,62,64,96
4,52,52,76
4,60,60,48
4,62,16,36
4,52,48,0
4,60,56,8
4,52,27,80
4,55,44,44
4,62,73,96
4,52,52,48
4,60,64,28
4,52,44,84
4,59,64,12
4,50,56,96
4,57,60,0
4,55,64,96
4,50,64,56
4,55,64,44
4,57,60,40
4,59,64,96
4,50,32,44
4,55,56,36
4,59,56,28
4,57,64,4
4,55,56,48
4,50,36,64
4,52,64,0
4,62,60,0
4,52,24,0
4,60,64,0
4,57,28,0
4,52,60,40
4,52,64,32
4,60,60,28
4,52,64,76
4,55,64,56
4,62,56,96
4,52,64,16
4,60,60,32
4,52,56,80
4,55,56,28
4,60,73,0
4,52,73,96
4,57,64,96
4,62,73,96
4,52,73,44
4,55,40,8
4,60,52,4
4,54,64,40
4,59,73,0
4,51,60,8
4,54,56,96
4,63,60,96
4,51,56,56
4,54,56,0
4,59,32,84
4,59,60,0
4,52,64,0
4,55,64,96
4,59,60,96
4,57,64,0
4,50,52,60
4,62,64,96
4,54,48,96
4,55,73,36
4,50,56,72
4,55,60,44
4,59,64,96
4,50,48,40
4,55,56,0
4,62,44,96
4,50,44,68
4,60,73,12
4,52,60,96
4,55,52,96
4,62,73,12
4,52,56,28
4,60,64,16
4,52,60,72
4,59,64,20
4,51,56,96
4,54,60,0
4,63,60,96
4,51,60,0
4,54,64,0
4,51,64,72
4,54,60,32
4,52,52,96
4,59,56,96
4,55,64,96
4,54,56,56
4,52,60,24
4,59,64,16
4,52,56,56
4,55,64,28
4,54,60,96
4,52,52,0
4,59,64,16
4,52,48,92
4,55,48,0
4,60,73,0
4,52,56,68
4,55,60,64
4,62,64,96
4,57,16,0
4,52,52,40
4,60,52,36
4,52,52,72
4,59,52,68
4,51,48,92
4,54,52,0
4,63,52,96
4,51,48,64
4,54,52,80
4,59,48,76
4,52,64,0
4,54,60,96
4,55,48,96
4,59,64,96
4,52,36,52
4,55,60,0
4,54,40,96
4,52,44,20
4,59,60,4
4,52,52,0
4,57,73,16
4,50,60,32
4,54,64,96
4,62,44,96
4,59,64,24
4,50,48,52
4,55,48,0
4,62,56,96
4,50,44,72
4,59,60,96
4,50,44,0
4,57,73,40
4,50,44,28
4,55,60,96
4,59,64,4
4,50,48,0
4,59,64,96
4,50,52,84
4,60,64,0
4,52,48,44
4,55,56,96
4,60,73,28
4,52,64,40
4,55,60,32
4,52,48,56
4,62,64,4
4,52,52,40
4,55,48,56
4,60,64,24
4,52,52,68
4,60,60,24
4,52,52,80
4,59,73,0
4,50,52,0
4,57,60,96
4,55,60,68
4,50,48,52
4,62,56,96
4,50,48,40
4,57,64,20
4,55,56,24
4,50,64,48
4,62,73,36
4,50,44,24
4,59,56,20
4,50,29,0
4,55,36,0
4,60,64,36
4,52,48,96
4,55,60,76
4,62,64,96
4,52,60,48
4,60,64,28
4,52,48,56
4,60,60,28
4,52,52,80
4,55,56,52
4,62,64,96
4,52,64,16
4,60,73,24
4,52,60,60
4,52,60,48
4,57,56,96
4,64,60,96
4,52,56,76
4,57,56,56
4,60,60,40
4,59,64,20
4,51,48,0
4,54,52,96
4,63,56,96
4,51,56,60
4,54,60,0
4,59,52,96
4,59,64,44
4,52,60,0
4,55,60,96
4,59,56,52
4,57,60,0
4,50,48,52
4,62,60,96
4,50,52,56
4,59,64,32
4,54,32,0
4,50,56,44
4,55,73,0
4,50,64,0
4,55,52,0
4,59,52,0
4,59,64,56
4,50,60,40
4,55,56,0
4,60,64,40
4,57,16,0
4,52,56,56
4,57,56,96
4,64,48,96
4,52,56,32
4,57,52,40
4,60,56,28
4,52,44,60
4,59,60,20
4,51,52,96
4,54,60,0
4,63,52,96
4,51,52,56
4,54,60,80
4,51,56,68
4,59,56,60
4,52,60,96
4,55,64,0
4,54,73,96
4,52,60,52
4,54,60,36
4,52,52,76
4,59,64,32
4,52,60,0
4,55,64,60
4,54,73,96
4,52,60,60
4,54,64,84
4,59,56,48
4,60,73,0
4,52,56,68
4,55,60,96
4,62,56,96
4,52,56,32
4,60,60,32
4,52,56,80
4,59,56,24
4,51,36,96
4,54,56,96
4,63,52,0
4,51,30,52
4,54,56,88
4,59,16,88
4,52,60,0
4,54,48,96
4,55,29,96
4,59,64,24
4,52,44,60
4,55,48,96
4,52,44,40
4,59,48,4
4,52,36,44
4,55,48,0
4,52,31,40
4,57,82,32
4,50,73,84
4,54,91,96
4,57,60,64
4,59,64,36
4,50,40,48
4,55,36,0
4,62,56,96
4,50,31,48
4,57,48,96
4,55,52,84
4,50,73,72
4,55,73,52
4,57,56,88
4,62,64,32
4,50,44,60
4,55,36,60
4,62,52,44
4,62,60,24
4,52,56,96
4,55,64,96
4,60,64,96
4,52,56,36
4,55,60,44
4,52,64,72
4,62,64,24
4,52,60,68
4,55,73,40
4,60,82,20
4,52,60,64
4,62,60,0
4,52,56,68
4,59,73,4
4,50,44,0
4,57,56,48
4,55,64,96
4,50,52,52
4,59,64,4
4,50,36,44
4,62,48,0
4,50,52,48
4,57,56,16
4,55,64,96
4,50,52,64
4,62,48,56
4,50,52,68
4,60,64,8
4,52,60,96
4,55,60,52
4,62,64,96
4,52,73,56
4,55,60,40
4,52,52,56
4,60,64,40
4,52,48,24
4,55,44,40
4,62,64,96
4,52,48,40
4,60,60,36
4,52,52,88
4,55,31,12
4,60,64,0
4,52,56,0
4,57,64,96
4,62,64,96
4,52,64,44
4,57,73,60
4,52,64,76
4,59,64,0
4,51,44,96
4,54,64,0
4,63,60,96
4,51,60,44
4,54,64,68
4,59,60,60
4,59,64,36
4,52,52,0
4,55,56,96
4,59,52,56
4,57,73,0
4,50,40,80
4,62,73,96
4,50,26,48
4,59,73,16
4,50,64,48
4,55,73,0
4,59,73,96
4,50,44,52
4,59,73,96
4,50,36,0
4,60,73,24
4,52,52,96
4,57,52,96
4,64,52,96
4,52,52,0
4,57,60,96
4,52,60,0
4,59,60,16
4,51,56,96
4,54,60,0
4,63,56,96
4,51,52,44
4,54,56,80
4,63,16,48
4,59,64,68
4,52,52,96
4,54,56,0
4,55,64,96
4,52,56,0
4,55,60,8
4,52,56,16
4,59,73,16
4,55,64,0
4,52,48,96
4,54,56,96
4,55,64,84
4,52,48,32
4,59,64,96
4,52,52,0
4,55,64,44
4,60,73,0
4,52,56,84
4,55,56,48
4,62,56,96
4,52,64,64
4,55,64,72
4,52,56,52
4,59,60,8
4,51,48,96
4,54,56,0
4,63,60,96
4,51,60,8
4,54,64,96
4,59,48,92
4,59,64,0
4,55,52,0
4,52,52,0
4,55,64,96
4,64,73,96
4,52,64,56
4,59,60,96
4,52,73,56
4,56,82,0
4,52,56,32
4,56,64,56
4,64,73,96
4,52,56,56
4,56,56,52
4,52,60,84
4,60,73,52
4,55,32,0
4,52,56,28
4,55,64,96
4,62,64,96
4,52,60,72
4,55,64,64
4,52,52,48
4,59,60,24
4,51,56,96
4,54,64,0
4,63,56,96
4,51,60,68
4,54,73,8
4,51,56,48
4,59,73,16
4,54,44,0
4,52,60,96
4,55,73,0
4,54,73,96
4,52,52,48
4,54,60,52
4,52,52,76
4,59,73,48
4,52,52,72
4,55,64,0
4,54,82,96
4,52,56,68
4,62,60,96
4,52,52,68
4,60,64,56
4,52,60,16
4,57,52,96
4,64,36,96
4,52,64,68
4,57,56,8
4,60,52,52
4,59,56,16
4,51,52,0
4,54,48,96
4,51,52,36
4,54,52,96
4,59,27,96
4,52,52,0
4,55,60,96
4,59,60,96
4,64,56,96
4,52,64,96
4,54,64,72
4,52,52,64
4,55,64,60
5,59,85,7632
5,71,95,40
5,71,89,40
5,71,85,52
5,71,80,32
5,72,76,120
5,71,74,68
5,67,72,88
5,62,72,84
5,59,98,16
5,59,89,44
5,59,91,44
5,67,98,8
5,60,89,44
5,60,98,40
5,60,89,36
5,60,102,48
5,60,89,48
5,60,95,40
5,67,91,0
5,59,89,232
5,71,102,44
5,71,95,48
5,71,95,56
5,71,98,40
5,72,72,116
5,71,82,80
5,67,70,72
5,62,72,76
5,59,98,12
5,59,98,44
5,59,87,48
5,67,102,0
5,60,100,80
5,60,91,40
5,60,91,36
5,60,98,44
5,60,82,40
5,60,100,48
5,67,105,100
5,71,93,236
5,72,98,56
5,72,105,36
5,72,100,40
5,72,102,44
5,72,102,40
5,71,89,80
5,69,87,40
5,69,98,32
5,69,102,40
5,69,105,40
5,71,102,52
5,71,102,36
5,71,102,48
5,71,105,48
5,69,100,104
5,67,100,48
5,71,102,76
5,71,105,36
5,71,110,36
5,71,110,40
5,71,113,48
5,71,107,32
5,72,102,68
5,66,80,248
5,66,85,52
5,66,87,40
5,71,91,24
5,69,95,12
5,69,102,40
5,69,100,48
5,69,100,52
5,67,100,96
5,71,100,8
5,71,110,112
