track,note,velocity,time
0,48,95,0
0,35,90,0
0,42,90,0
0,49,90,0
0,63,82,0
0,60,82,0
0,55,82,0
0,35,0,44
0,42,0,0
0,49,0,0
0,42,70,60
0,42,0,60
0,38,100,60
0,42,100,0
0,38,0,60
0,42,0,0
0,48,0,14
0,48,87,46
0,35,80,0
0,42,70,0
0,35,0,60
0,42,0,0
0,48,0,24
0,55,89,36
0,35,100,0
0,42,90,0
0,35,0,60
0,42,0,0
0,42,70,60
0,48,70,0
0,63,0,2
0,60,0,0
0,55,0,0
0,42,0,58
0,38,100,60
0,42,100,0
0,63,85,0
0,60,85,0
0,55,85,0
0,48,0,28
0,38,0,32
0,42,0,0
0,55,0,26
0,55,87,34
0,35,70,0
0,42,70,0
0,63,0,58
0,60,0,0
0,55,0,0
0,35,0,2
0,42,0,0
0,55,0,28
0,48,91,32
0,35,90,0
0,42,90,0
0,63,70,0
0,60,70,0
0,55,70,0
0,35,0,60
0,42,0,0
0,63,0,36
0,60,0,0
0,55,0,0
0,42,70,24
0,63,82,0
0,60,82,0
0,55,82,0
0,42,0,60
0,63,0,22
0,60,0,0
0,55,0,0
0,38,100,38
0,42,100,0
0,38,0,60
0,42,0,0
0,48,0,6
0,48,102,54
0,35,80,0
0,42,100,0
0,63,82,0
0,60,82,0
0,55,82,0
0,35,0,60
0,42,0,0
0,48,0,20
0,55,89,40
0,35,100,0
0,42,90,0
0,35,0,60
0,42,0,0
0,35,90,60
0,42,70,0
0,35,0,60
0,42,0,0
0,38,100,60
0,42,100,0
0,38,0,60
0,42,0,0
0,55,0,26
0,63,0,26
0,60,0,0
0,55,0,0
0,48,89,8
0,35,70,0
0,46,80,0
0,35,0,60
0,46,0,0
0,48,0,12
0,53,95,48
0,35,90,0
0,42,115,0
0,65,82,0
0,60,82,0
0,57,82,0
0,35,0,60
0,42,0,0
0,42,70,60
0,42,0,60
0,38,100,60
0,42,100,0
0,38,0,60
0,42,0,0
0,53,0,14
0,53,87,46
0,35,80,0
0,42,70,0
0,35,0,60
0,42,0,0
0,53,0,24
0,48,89,36
0,35,100,0
0,42,90,0
0,35,0,60
0,42,0,0
0,42,70,60
0,53,70,0
0,65,0,2
0,60,0,0
0,57,0,0
0,42,0,58
0,38,100,60
0,42,100,0
0,65,85,0
0,60,85,0
0,57,85,0
0,53,0,28
0,38,0,32
0,42,0,0
0,48,0,26
0,48,87,34
0,35,70,0
0,42,70,0
0,65,0,58
0,60,0,0
0,57,0,0
0,35,0,2
0,42,0,0
0,48,0,28
0,53,91,32
0,35,90,0
0,42,90,0
0,65,70,0
0,60,70,0
0,57,70,0
0,35,0,60
0,42,0,0
0,65,0,36
0,60,0,0
0,57,0,0
0,42,70,24
0,65,82,0
0,60,82,0
0,57,82,0
0,42,0,60
0,65,0,22
0,60,0,0
0,57,0,0
0,38,100,38
0,42,100,0
0,38,0,60
0,42,0,0
0,53,0,6
0,53,102,54
0,35,80,0
0,42,100,0
0,65,82,0
0,60,82,0
0,57,82,0
0,35,0,60
0,42,0,0
0,53,0,20
0,48,89,40
0,35,100,0
0,42,90,0
0,35,0,60
0,42,0,0
0,35,90,60
0,42,70,0
0,35,0,60
0,42,0,0
0,38,100,60
0,42,100,0
0,38,0,60
0,42,0,0
0,48,0,26
0,65,0,26
0,60,0,0
0,57,0,0
0,53,89,8
0,35,70,0
0,42,70,0
0,35,0,60
0,42,0,0
0,53,0,12
0,48,93,48
0,35,90,0
0,42,90,0
0,63,82,0
0,60,82,0
0,55,82,0
0,35,0,60
0,42,0,0
0,42,40,0
0,42,0,60
0,42,70,0
0,42,0,60
0,38,100,60
0,42,100,0
0,38,0,60
0,42,0,0
0,48,0,20
0,48,89,40
0,35,80,0
0,42,70,0
0,35,0,60
0,42,0,0
0,48,0,22
0,55,89,38
0,35,100,0
0,42,90,0
0,35,0,60
0,42,0,0
0,41,72,60
0,63,0,44
0,60,0,0
0,55,0,0
0,41,0,16
0,38,100,60
0,42,100,0
0,63,85,0
0,60,85,0
0,55,85,0
0,38,0,60
0,42,0,0
0,35,70,60
0,42,70,0
0,63,0,56
0,60,0,0
0,55,0,0
0,35,0,4
0,42,0,0
0,48,100,60
0,35,90,0
0,42,90,0
0,55,0,4
0,35,0,56
0,42,0,0
0,42,70,60
0,63,80,0
0,60,80,0
0,55,80,0
0,42,0,60
0,63,0,30
0,60,0,0
0,55,0,0
0,38,100,30
0,42,100,0
0,38,0,60
0,42,0,0
0,48,0,10
0,48,89,50
0,35,80,0
0,42,100,0
0,35,0,60
0,42,0,0
0,48,0,38
0,55,100,22
0,35,100,0
0,42,90,0
0,63,89,0
0,60,89,0
0,55,89,0
0,35,0,60
0,42,0,0
0,35,90,60
0,42,70,0
0,35,0,60
0,42,0,0
0,55,0,60
0,48,98,0
0,38,100,0
0,42,100,0
0,38,0,60
0,42,0,0
0,48,0,2
0,48,105,58
0,35,70,0
0,46,80,0
0,63,0,24
0,60,0,0
0,55,0,0
0,48,0,30
0,35,0,6
0,46,0,0
0,53,89,60
0,35,90,0
0,42,90,0
0,65,91,0
0,60,91,0
0,57,91,0
0,35,0,60
0,42,0,0
0,46,72,0
0,46,0,60
0,42,70,0
0,42,0,60
0,38,100,60
0,42,100,0
0,38,0,60
0,42,0,0
0,53,0,12
0,53,91,48
0,35,80,0
0,42,70,0
0,35,0,60
0,42,0,0
0,35,100,60
0,42,90,0
0,53,0,14
0,60,91,0
0,35,0,46
0,42,0,0
0,42,70,60
0,42,0,60
0,38,100,60
0,42,100,0
0,38,0,60
0,42,0,0
0,60,0,2
0,60,87,58
0,35,70,0
0,42,70,0
0,35,0,60
0,42,0,0
0,46,70,0
0,60,0,14
0,53,91,46
0,46,0,0
0,35,90,0
0,42,90,0
0,35,0,60
0,42,0,0
0,42,70,60
0,42,0,60
0,38,100,60
0,42,100,0
0,53,0,58
0,38,0,2
0,42,0,0
0,53,100,60
0,35,80,0
0,42,100,0
0,35,0,60
0,42,0,0
0,53,0,46
0,48,98,14
0,35,100,0
0,42,90,0
0,35,0,60
0,42,0,0
0,65,0,20
0,60,0,0
0,57,0,0
0,35,90,40
0,42,70,0
0,65,78,0
0,35,0,60
0,42,0,0
0,38,100,60
0,42,100,0
0,69,70,0
0,38,0,60
0,42,0,0
0,48,0,60
0,53,85,0
0,35,70,0
0,46,80,0
0,72,82,0
0,69,0,28
0,53,0,8
0,53,89,24
0,35,0,0
0,46,0,0
0,53,0,44
0,65,0,0
0,72,0,2
0,48,93,14
0,35,90,0
0,42,90,0
0,63,91,0
0,60,91,0
0,55,91,0
0,35,0,60
0,42,0,0
0,42,40,0
0,42,0,60
0,42,70,0
0,42,0,60
0,38,100,60
0,42,100,0
0,38,0,60
0,42,0,0
0,48,0,20
0,48,89,40
0,35,80,0
0,42,70,0
0,35,0,60
0,42,0,0
0,48,0,22
0,55,89,38
0,35,100,0
0,42,90,0
0,63,0,26
0,60,0,0
0,55,0,0
0,35,0,34
0,42,0,0
0,42,70,60
0,63,93,0
0,60,93,0
0,55,93,0
0,42,0,60
0,38,100,60
0,42,100,0
0,38,0,60
0,42,0,0
0,35,70,60
0,42,70,0
0,63,0,28
0,60,0,0
0,55,0,0
0,35,0,32
0,42,0,0
0,48,100,60
0,35,90,0
0,42,90,0
0,63,98,0
0,60,98,0
0,55,98,0
0,55,0,4
0,35,0,56
0,42,0,0
0,42,70,60
0,42,0,60
0,42,80,0
0,42,0,60
0,38,100,0
0,46,115,0
0,38,0,60
0,46,0,0
0,48,0,10
0,48,89,50
0,35,80,0
0,45,100,0
0,35,0,60
0,45,0,0
0,48,0,38
0,55,100,22
0,35,100,0
0,48,100,0
0,35,0,60
0,48,0,0
0,45,100,60
0,63,0,28
0,60,0,0
0,55,0,0
0,45,0,32
0,55,0,60
0,48,98,0
0,42,100,0
0,45,100,0
0,63,87,0
0,60,87,0
0,55,87,0
0,42,0,60
0,45,0,0
0,48,0,2
0,63,0,28
0,60,0,0
0,55,0,0
0,48,105,30
0,46,90,0
0,41,100,0
0,48,0,54
0,46,0,6
0,41,0,0
0,48,95,0
0,35,90,0
0,42,90,0
0,49,90,0
0,58,100,0
0,35,0,60
0,42,0,0
0,49,0,0
0,42,70,60
0,63,85,0
0,60,85,0
0,55,85,0
0,42,0,60
0,38,100,60
0,42,115,0
0,38,0,60
0,42,0,0
0,48,0,22
0,48,85,38
0,35,80,0
0,42,70,0
0,63,0,40
0,60,0,0
0,55,0,0
0,35,0,20
0,42,0,0
0,48,0,26
0,48,80,0
0,35,100,0
0,42,90,0
0,63,87,0
0,60,87,0
0,55,87,0
0,58,0,0
0,60,100,0
0,35,0,60
0,42,0,0
0,48,0,4
0,48,82,56
0,42,70,0
0,42,0,60
0,38,100,60
0,42,100,0
0,48,0,48
0,38,0,12
0,42,0,0
0,48,93,60
0,42,70,0
0,63,0,58
0,60,0,0
0,55,0,0
0,48,0,2
0,42,0,0
0,48,89,0
0,35,90,0
0,42,90,0
0,63,80,0
0,60,80,0
0,55,80,0
0,60,0,0
0,63,100,0
0,35,0,60
0,42,0,0
0,63,0,26
0,60,0,0
0,55,0,0
0,42,70,34
0,63,80,0
0,60,80,0
0,55,80,0
0,42,0,60
0,63,0,18
0,60,0,0
0,55,0,0
0,38,100,42
0,42,115,0
0,38,0,60
0,42,0,0
0,48,0,18
0,48,82,42
0,35,80,0
0,42,80,0
0,63,91,0
0,60,91,0
0,55,91,0
0,48,0,48
0,35,0,12
0,42,0,0
0,48,98,0
0,35,100,0
0,42,90,0
0,63,0,0
0,60,100,0
0,35,0,60
0,42,0,0
0,42,70,60
0,42,0,60
0,38,100,0
0,42,100,0
0,54,115,0
0,60,0,0
0,65,100,0
0,38,0,60
0,42,0,0
0,54,0,0
0,48,0,36
0,63,0,14
0,60,0,0
0,55,0,0
0,48,82,10
0,35,70,0
0,42,70,0
0,48,0,50
0,35,0,10
0,42,0,0
0,53,100,60
0,35,90,0
0,42,90,0
0,65,82,0
0,60,82,0
0,57,82,0
0,65,0,0
0,65,100,0
0,35,0,60
0,42,0,0
0,42,70,60
0,42,0,60
0,38,100,60
0,42,115,0
0,38,0,60
0,42,0,0
0,53,0,28
0,53,91,32
0,35,80,0
0,42,70,0
0,53,0,42
0,35,0,18
0,42,0,0
0,53,98,60
0,35,100,0
0,42,90,0
0,35,0,60
0,42,0,0
0,42,70,60
0,53,70,0
0,65,0,2
0,60,0,0
0,57,0,0
0,42,0,58
0,38,100,60
0,42,100,0
0,65,85,0
0,60,85,0
0,57,85,0
0,53,0,28
0,38,0,32
0,42,0,0
0,53,0,10
0,53,102,50
0,42,70,0
0,53,0,38
0,65,0,20
0,60,0,0
0,57,0,0
0,42,0,2
0,53,100,60
0,35,90,0
0,42,90,0
0,65,70,0
0,60,70,0
0,57,70,0
0,65,0,0
0,35,0,60
0,42,0,0
0,65,0,36
0,60,0,0
0,57,0,0
0,42,70,24
0,65,82,0
0,60,82,0
0,57,82,0
0,42,0,60
0,65,0,22
0,60,0,0
0,57,0,0
0,38,100,38
0,42,115,0
0,38,0,60
0,42,0,0
0,53,0,10
0,53,98,50
0,35,80,0
0,42,80,0
0,65,82,0
0,60,82,0
0,57,82,0
0,53,0,38
0,35,0,22
0,42,0,0
0,53,98,60
0,35,100,0
0,42,90,0
0,35,0,60
0,42,0,0
0,42,70,60
0,42,0,60
0,38,100,60
0,42,100,0
0,54,115,0
0,38,0,60
0,42,0,0
0,54,0,0
0,53,0,22
0,65,0,30
0,60,0,0
0,57,0,0
0,53,105,8
0,35,70,0
0,42,70,0
0,53,0,40
0,35,0,20
0,42,0,0
0,48,100,0
0,35,90,0
0,42,90,0
0,55,58,0
0,63,76,0
0,60,82,0
0,58,100,0
0,35,0,60
0,42,0,0
0,42,60,0
0,42,0,60
0,42,70,0
0,42,0,60
0,38,100,60
0,42,115,0
0,38,0,60
0,42,0,0
0,48,0,28
0,48,91,32
0,35,80,0
0,42,70,0
0,48,0,42
0,35,0,18
0,42,0,0
0,48,98,0
0,35,100,0
0,42,90,0
0,58,0,0
0,60,100,0
0,35,0,60
0,42,0,0
0,42,70,60
0,42,0,60
0,38,100,60
0,42,100,0
0,38,0,60
0,42,0,0
0,48,0,10
0,48,102,50
0,42,70,0
0,36,70,0
0,55,0,34
0,48,0,4
0,42,0,22
0,60,0,16
0,63,0,4
0,48,100,0
0,35,90,0
0,42,90,0
0,55,70,0
0,63,82,0
0,60,82,0
0,60,0,0
0,63,100,0
0,60,0,50
0,35,0,10
0,42,0,0
0,55,0,2
0,63,0,8
0,42,70,50
0,55,78,0
0,63,66,0
0,60,85,0
0,42,0,60
0,60,0,2
0,55,0,12
0,63,0,0
0,38,100,46
0,42,115,0
0,38,0,60
0,42,0,0
0,48,0,10
0,48,98,50
0,35,80,0
0,42,80,0
0,63,80,0
0,55,85,0
0,60,82,0
0,48,0,38
0,36,0,10
0,35,0,12
0,42,0,0
0,60,0,22
0,55,0,6
0,63,0,4
0,48,98,0
0,35,100,0
0,42,90,0
0,63,0,0
0,62,100,0
0,35,0,60
0,42,0,0
0,42,70,60
0,36,93,0
0,42,0,60
0,38,100,0
0,42,100,0
0,54,115,0
0,55,93,0
0,63,87,0
0,60,93,0
0,62,0,0
0,60,100,0
0,36,0,14
0,38,0,46
0,42,0,0
0,54,0,0
0,48,0,22
0,60,0,2
0,63,0,6
0,55,0,12
0,48,105,18
0,35,70,0
0,42,70,0
0,48,0,40
0,35,0,20
0,42,0,0
0,46,95,0
0,35,90,0
0,42,100,0
0,60,0,0
0,62,100,0
0,35,0,60
0,42,0,0
0,42,70,60
0,65,85,0
0,62,85,0
0,58,85,0
0,42,0,60
0,38,100,60
0,42,115,0
0,62,0,0
0,38,0,60
0,42,0,0
0,46,0,22
0,46,85,38
0,35,80,0
0,42,70,0
0,65,0,40
0,62,0,0
0,58,0,0
0,35,0,20
0,42,0,0
0,46,0,26
0,46,80,34
0,35,100,0
0,42,90,0
0,65,87,0
0,62,87,0
0,58,87,0
0,62,100,0
0,35,0,60
0,42,0,0
0,46,0,4
0,46,82,56
0,42,70,0
0,42,0,60
0,38,100,60
0,42,100,0
0,58,100,0
0,46,0,48
0,38,0,12
0,42,0,0
0,46,93,60
0,42,70,0
0,65,0,58
0,62,0,0
0,58,0,0
0,46,0,2
0,42,0,0
0,46,89,0
0,35,90,0
0,42,90,0
0,65,80,0
0,62,80,0
0,58,80,0
0,62,0,0
0,58,0,0
0,58,100,0
0,35,0,60
0,42,0,0
0,65,0,26
0,62,0,0
0,58,0,0
0,42,70,34
0,65,80,0
0,62,80,0
0,58,80,0
0,42,0,60
0,65,0,18
0,62,0,0
0,58,0,0
0,38,100,42
0,42,115,0
0,39,100,0
0,38,0,60
0,42,0,0
0,39,0,0
0,46,0,18
0,46,82,42
0,35,80,0
0,42,70,0
0,39,40,0
0,65,91,0
0,62,91,0
0,58,91,0
0,46,0,48
0,35,0,12
0,42,0,0
0,39,0,0
0,46,98,60
0,35,100,0
0,42,90,0
0,35,0,60
0,42,0,0
0,42,70,60
0,54,40,0
0,42,0,60
0,54,0,0
0,54,20,0
0,54,0,60
0,38,100,0
0,42,100,0
0,49,100,0
0,54,115,0
0,38,0,60
0,42,0,0
0,49,0,0
0,54,0,0
0,46,0,36
0,65,0,14
0,62,0,0
0,58,0,0
0,46,82,10
0,35,80,0
0,42,70,0
0,46,0,50
0,35,0,10
0,42,0,0
0,48,98,0
0,35,90,0
0,42,90,0
0,63,91,0
0,60,91,0
0,55,91,0
0,58,0,0
0,58,100,0
0,35,0,60
0,42,0,0
0,42,60,0
0,42,0,60
0,42,70,0
0,42,0,60
0,38,100,60
0,42,115,0
0,38,0,60
0,42,0,0
0,48,0,34
0,48,82,26
0,35,80,0
0,42,70,0
0,48,0,42
0,35,0,18
0,42,0,0
0,48,93,60
0,35,100,0
0,42,90,0
0,60,85,0
0,58,0,0
0,60,100,0
0,35,0,60
0,42,0,0
