track,note,velocity,time
4,66,124,13360
4,68,124,16
4,69,105,16
4,69,91,112
4,69,102,128
4,69,115,112
4,68,80,32
4,64,89,192
4,61,93,176
4,66,127,896
4,68,125,0
4,69,107,192
4,69,109,64
4,69,102,112
4,68,127,80
4,64,92,32
4,64,118,112
4,66,127,800
4,68,127,64
4,69,109,32
4,69,100,96
4,69,84,112
4,68,107,32
4,68,81,128
4,64,77,192
4,61,97,16
4,66,127,912
4,68,115,80
4,69,88,32
4,69,95,96
4,69,107,128
4,68,121,80
4,64,97,16
4,66,118,64
4,64,121,1536
4,66,127,16
4,73,121,160
4,76,80,80
4,73,115,0
4,64,118,976
4,66,127,384
4,73,95,32
4,71,99,64
4,69,100,64
4,71,92,16
4,64,115,16
4,66,121,16
4,64,125,48
4,66,115,16
4,73,118,240
4,76,89,32
4,73,95,0
4,64,85,1408
4,69,82,0
4,71,102,48
4,73,125,16
4,69,105,32
4,68,118,80
4,64,112,32
4,64,92,64
4,66,55,16
4,66,97,1376
4,68,93,16
4,69,89,16
4,69,82,64
4,69,88,64
4,68,109,16
4,68,92,80
4,64,82,0
4,61,97,192
4,66,107,784
4,68,97,192
4,69,91,160
4,69,74,96
4,69,95,112
4,68,105,64
4,68,105,96
4,64,66,0
4,64,84,80
4,66,125,672
4,68,118,192
4,69,95,0
4,69,85,80
4,69,95,96
4,68,105,32
4,68,70,96
4,64,68,0
4,61,102,0
4,66,100,720
4,68,118,16
4,69,105,16
4,69,77,96
4,69,82,112
4,68,99,96
4,68,93,96
4,64,77,16
4,64,83,64
4,66,67,48
4,64,85,1088
4,66,85,16
4,73,121,96
4,76,80,80
4,73,115,0
4,64,118,976
4,66,127,384
4,73,95,32
4,71,99,64
4,69,100,64
4,71,92,16
4,64,115,16
4,66,121,16
4,64,125,48
4,66,115,16
4,73,118,240
4,76,89,32
4,73,95,0
4,64,85,1408
4,69,82,0
4,71,102,48
4,73,125,16
4,69,105,32
4,68,118,80
4,64,112,32
4,64,92,64
4,66,55,16
4,66,127,7520
4,68,127,192
4,69,89,32
4,69,82,64
4,69,88,64
4,68,109,16
4,68,92,80
4,64,82,0
4,61,97,192
4,66,107,784
4,68,97,192
4,69,91,160
4,69,74,96
4,69,95,112
4,68,105,64
4,68,105,96
4,64,66,0
4,64,84,80
4,66,125,672
4,68,118,192
4,69,95,0
4,69,85,80
4,69,95,96
4,68,105,32
4,68,70,96
4,64,68,0
4,61,102,0
4,66,100,720
4,68,118,16
4,69,105,16
4,69,77,96
4,69,82,112
4,68,99,96
4,68,93,96
4,64,77,16
4,64,83,64
4,66,67,48
4,64,85,1088
4,66,85,16
4,73,121,96
4,76,80,80
4,73,115,0
4,64,118,976
4,66,127,384
4,73,95,32
4,71,99,64
4,69,100,64
4,71,92,16
4,64,115,16
4,66,121,16
4,64,125,48
4,66,115,16
4,73,118,240
4,76,89,32
4,73,95,0
4,64,85,1408
4,69,82,0
4,71,102,48
4,73,125,16
4,69,105,32
4,68,118,80
4,64,112,32
4,64,92,64
4,66,55,16
4,66,97,16736
4,68,93,16
4,69,105,16
4,69,91,112
4,69,102,128
4,69,115,112
4,68,80,32
4,64,89,192
4,61,93,176
4,66,127,896
4,68,125,0
4,69,107,192
4,69,109,64
4,69,102,112
4,68,127,80
4,64,92,32
4,64,118,112
4,66,127,800
4,68,127,64
4,69,109,32
4,69,100,96
4,69,84,112
4,68,107,32
4,68,81,128
4,64,77,192
4,61,97,16
4,66,127,912
4,68,115,80
4,69,88,32
4,69,95,96
4,69,107,128
4,68,121,80
4,64,97,16
4,66,118,64
4,64,121,1536
4,66,127,16
4,73,121,160
4,76,80,80
4,73,115,0
4,64,118,976
4,66,127,384
4,73,95,32
4,71,99,64
4,69,100,64
4,71,92,16
4,64,115,16
4,66,121,16
4,64,125,48
4,66,115,16
4,73,118,240
4,76,89,32
4,73,95,0
4,64,85,1408
4,69,82,0
4,71,102,48
4,73,125,16
4,69,105,32
4,68,118,80
4,64,112,32
4,64,92,64
4,66,55,16
4,64,97,992
4,66,93,208
4,73,121,208
4,76,80,80
4,73,115,0
4,64,118,976
4,66,127,384
4,73,95,32
4,71,99,64
4,69,100,64
4,71,92,16
4,64,115,16
4,66,121,16
4,64,125,48
4,66,115,16
4,73,118,240
4,76,89,32
4,73,95,0
4,64,85,1408
4,69,82,0
4,71,102,32
4,73,125,16
4,69,105,32
4,68,118,16
4,64,112,32
4,64,92,64
4,66,55,16
4,64,97,32
4,66,93,80
4,73,121,64
4,76,80,80
4,73,115,0
4,64,118,32
4,66,127,16
4,73,95,32
4,71,99,64
4,69,100,32
4,71,92,16
4,64,115,16
4,66,121,16
4,64,125,48
4,66,115,16
4,73,118,64
4,76,89,32
4,73,95,0
4,64,85,96
4,69,82,0
4,71,102,48
4,73,125,16
4,69,105,32
4,68,118,80
4,64,112,32
5,30,127,26800
5,35,127,96
5,35,127,112
5,37,106,64
5,37,127,128
5,30,127,0
5,37,122,64
5,42,118,128
5,37,65,192
5,30,127,112
5,37,110,0
5,35,127,112
5,37,127,96
5,30,127,144
5,37,118,32
5,42,127,144
5,37,92,192
5,30,127,128
5,34,70,16
5,35,127,0
5,35,106,128
5,37,127,0
5,37,127,160
5,30,127,16
5,30,127,128
5,37,110,48
5,42,118,16
5,37,110,192
5,30,127,16
5,26,127,112
5,28,122,0
5,38,82,0
5,25,106,80
5,27,34,0
5,37,127,352
5,35,100,80
5,35,94,176
5,37,127,96
5,25,127,16
5,30,122,16
5,30,113,160
5,30,92,192
5,30,127,160
5,30,122,160
5,35,122,144
5,35,118,128
5,37,110,16
5,25,127,384
5,30,127,16
5,30,127,128
5,30,110,128
5,35,103,32
5,37,122,32
5,30,127,576
5,30,113,160
5,37,84,384
5,42,118,176
5,35,106,16
5,37,122,48
5,25,127,384
5,30,127,368
5,30,122,112
5,42,113,576
5,35,84,64
5,37,103,16
5,30,127,960
5,35,127,128
5,35,127,112
5,37,106,64
5,37,127,128
5,30,127,0
5,37,122,64
5,42,118,128
5,37,65,192
5,30,127,112
5,37,110,0
5,35,127,112
5,37,127,96
5,30,127,144
5,37,118,32
5,42,127,144
5,37,92,192
5,30,127,128
5,34,70,16
5,35,127,0
5,35,106,128
5,37,127,0
5,37,127,160
5,30,127,16
5,30,127,128
5,37,110,48
5,42,118,16
5,37,110,192
5,30,127,16
5,26,127,112
5,28,122,0
5,38,82,0
5,25,106,80
5,27,34,0
5,37,127,352
5,35,100,80
5,35,94,176
5,37,127,96
5,25,127,16
5,30,122,16
5,30,113,160
5,30,92,192
5,30,127,160
5,30,122,160
5,35,100,144
5,37,127,80
5,37,127,160
5,30,127,192
5,30,92,160
5,42,127,192
5,37,85,0
5,30,127,0
5,37,122,0
5,35,127,112
5,35,106,128
5,25,127,32
5,37,127,32
5,30,118,48
5,30,127,144
5,42,118,16
5,35,122,80
5,35,118,128
5,37,110,16
5,25,127,384
5,30,127,16
5,30,127,128
5,30,110,128
5,35,103,32
5,37,122,32
5,30,127,576
5,30,113,160
5,37,84,384
5,42,118,176
5,35,106,16
5,37,122,48
5,25,127,384
5,30,127,368
5,30,122,112
5,42,113,576
5,35,84,64
5,37,103,16
5,30,127,960
5,35,127,128
5,35,127,112
5,37,106,64
5,37,127,128
5,30,127,0
5,37,122,64
5,42,118,128
5,37,65,192
5,30,127,112
5,37,110,0
5,35,127,112
5,37,127,96
5,30,127,144
5,37,118,32
5,42,127,144
5,37,92,192
5,30,127,128
5,34,70,16
5,35,127,0
5,35,106,128
5,37,127,0
5,37,127,160
5,30,127,16
5,30,127,128
5,37,110,48
5,42,118,16
5,37,110,192
5,30,127,16
5,26,127,112
5,28,122,0
5,38,82,0
5,25,106,80
5,27,34,0
5,37,127,352
5,35,100,80
5,35,94,176
5,37,127,96
5,25,127,16
5,30,122,16
5,30,113,160
5,30,92,192
5,30,127,160
5,30,122,160
5,35,127,144
5,35,127,112
5,37,106,64
5,37,127,128
5,30,127,0
5,37,122,64
5,42,118,128
5,37,65,192
5,30,127,112
5,37,110,0
5,35,127,112
5,37,127,96
5,30,127,144
5,37,118,32
5,42,127,144
5,37,92,192
5,30,127,128
5,34,70,16
5,35,127,0
5,35,106,128
5,37,127,0
5,37,127,160
5,30,127,16
5,30,127,128
5,37,110,48
5,42,118,16
5,37,110,192
5,30,127,16
5,26,127,112
5,28,122,0
5,38,82,0
5,25,106,80
5,27,34,0
5,37,127,352
5,35,100,80
5,35,94,176
5,37,127,96
5,25,127,16
5,30,122,16
5,30,113,160
5,30,92,192
5,30,127,160
5,30,122,160
5,30,127,13200
5,35,127,96
5,35,127,112
5,37,106,64
5,37,127,128
5,30,127,0
5,37,122,64
5,42,118,128
5,37,65,192
5,30,127,112
5,37,110,0
5,35,127,112
5,37,127,96
5,30,127,144
5,37,118,32
5,42,127,144
5,37,92,192
5,30,127,128
5,34,70,16
5,35,127,0
5,35,106,128
5,37,127,0
5,37,127,160
5,30,127,16
5,30,127,128
5,37,110,48
5,42,118,16
5,37,110,192
5,30,127,16
5,26,127,112
5,28,122,0
5,38,82,0
5,25,106,80
5,27,34,0
5,37,127,352
5,35,100,80
5,35,94,176
5,37,127,96
5,25,127,16
5,30,122,16
5,30,113,160
5,30,92,192
5,30,127,160
5,30,122,160
5,35,127,144
5,35,127,112
5,37,106,64
5,37,127,128
5,30,127,0
5,37,122,64
5,42,118,128
5,37,65,192
5,30,127,112
5,37,110,0
5,35,127,112
5,37,127,96
5,30,127,144
5,37,118,32
5,42,127,144
5,37,92,192
5,30,127,128
5,34,70,16
5,35,127,0
5,35,106,128
5,37,127,0
5,37,127,160
5,30,127,16
5,30,127,128
5,37,110,48
5,42,118,16
5,37,110,192
5,30,127,16
5,26,127,112
5,28,122,0
5,38,82,0
5,25,106,16
5,27,34,0
5,37,127,304
5,35,100,80
5,35,94,64
5,37,127,16
5,25,127,16
5,30,122,16
5,30,113,160
5,30,92,16
5,30,127,48
5,30,122,160
5,35,127,64
5,35,127,96
5,37,106,32
5,37,127,128
5,30,127,0
5,37,122,16
5,42,118,16
5,37,65,144
5,30,127,16
5,37,110,0
5,35,127,112
5,37,127,32
5,30,127,32
5,37,118,32
5,42,127,96
5,37,92,64
5,30,127,112
5,34,70,16
5,35,127,0
5,35,106,112
5,37,127,0
5,37,127,160
5,30,127,16
5,30,127,48
5,37,110,16
5,42,118,16
5,37,110,80
5,30,127,16
5,26,127,112
5,28,122,0
5,38,82,0
5,25,106,80
5,27,34,0
5,37,127,48
5,35,100,80
5,35,94,176
5,37,127,96
5,25,127,16
7,64,37,0
7,66,38,0
7,61,33,0
7,59,34,16
7,61,26,1040
7,64,34,0
7,56,30,16
7,59,45,0
7,47,31,1008
7,54,30,0
7,57,36,48
7,59,37,16
7,62,51,16
7,47,64,48
7,52,54,0
7,54,54,160
7,57,52,0
7,59,39,192
7,61,31,288
7,69,46,16
7,64,45,0
7,66,32,0
7,59,29,1792
7,54,39,16
7,66,28,16
7,64,29,0
7,71,42,64
7,59,28,16
7,66,30,32
7,64,39,0
7,69,29,48
7,54,47,1680
7,59,34,96
7,69,29,64
7,64,29,400
7,66,23,96
7,50,40,48
7,54,45,0
7,47,39,112
7,50,33,160
7,56,52,16
7,49,43,192
7,52,24,192
7,57,43,112
7,54,29,384
7,45,33,272
7,49,51,192
7,54,45,32
7,49,44,192
7,45,46,16
7,47,43,64
7,50,39,176
7,54,42,0
7,57,45,32
7,56,50,224
7,49,35,0
7,52,32,48
7,57,36,0
7,52,64,144
7,57,64,0
7,54,47,32
7,52,45,336
7,54,27,32
7,52,29,48
7,57,52,128
7,56,41,464
7,52,47,192
7,49,48,272
7,54,37,112
7,52,49,112
7,54,28,320
7,57,38,0
7,52,47,16
7,57,53,16
7,54,43,320
7,57,67,528
7,59,67,0
7,62,68,0
7,66,67,0
7,57,59,192
7,59,60,0
7,62,85,0
7,66,72,0
7,59,61,144
7,61,58,0
7,64,68,0
7,66,64,0
7,59,56,16
7,57,67,128
7,61,58,0
7,64,72,0
7,57,68,32
7,61,61,0
7,64,66,0
7,66,61,0
7,57,87,80
7,61,63,0
7,64,73,0
7,57,65,144
7,61,42,0
7,69,77,0
7,66,94,192
7,64,64,0
7,61,55,80
7,57,59,128
7,59,58,0
7,62,59,0
7,66,54,0
7,57,44,96
7,62,69,0
7,66,53,0
7,59,77,320
7,61,67,0
7,64,90,0
7,68,80,0
7,59,80,0
7,57,46,112
7,61,40,0
7,64,55,0
7,57,87,128
7,61,94,0
7,64,85,0
7,69,94,0
7,57,82,16
7,57,77,112
7,61,70,0
7,64,58,0
7,69,85,0
7,66,63,80
7,57,85,96
7,61,77,0
7,64,85,0
7,61,69,144
7,57,49,112
7,59,55,0
7,62,68,0
7,66,55,0
7,57,57,112
7,59,55,0
7,62,82,0
7,66,84,0
7,59,65,144
7,61,72,0
7,64,82,0
7,68,69,0
7,59,56,80
7,59,67,32
7,61,50,0
7,64,67,0
7,68,77,0
7,59,58,0
7,57,72,128
7,61,59,0
7,64,76,0
7,57,35,48
7,64,55,0
7,61,46,96
7,57,97,80
7,61,54,0
7,57,68,128
7,61,62,0
7,69,77,0
7,66,100,64
7,57,72,96
7,61,64,0
7,64,82,0
7,66,76,48
7,57,92,288
7,62,97,0
7,66,84,0
7,57,100,0
7,66,55,0
7,57,62,256
7,61,72,0
7,64,92,0
7,68,85,0
7,57,28,128
7,57,64,16
7,57,92,304
7,59,82,0
7,62,90,0
7,66,87,0
7,57,65,32
7,59,61,0
7,62,73,0
7,66,55,0
7,59,57,320
7,61,51,0
7,64,60,0
7,66,50,0
7,59,39,48
7,57,46,0
7,59,45,0
7,57,64,96
7,59,68,0
7,62,72,0
7,66,64,0
7,57,65,464
7,59,67,0
7,61,64,0
7,64,72,0
7,66,68,0
7,57,51,48
7,59,50,0
7,57,48,64
7,59,49,0
7,61,51,0
7,64,62,0
7,66,56,0
7,69,68,0
7,69,16,112
7,57,46,48
7,59,43,0
7,66,55,160
7,57,67,13968
7,59,67,0
7,62,68,0
7,66,67,0
7,57,59,192
7,59,60,0
7,62,85,0
7,66,72,0
7,59,61,144
7,61,58,0
7,64,68,0
7,66,64,0
7,59,56,16
7,57,67,128
7,61,58,0
7,64,72,0
7,57,68,32
7,61,61,0
7,64,66,0
7,66,61,0
7,57,87,80
7,61,63,0
7,64,73,0
7,57,65,144
7,61,42,0
7,69,77,0
7,66,94,192
7,64,64,0
7,61,55,80
7,57,59,128
7,59,58,0
7,62,59,0
7,66,54,0
7,57,44,96
7,62,69,0
7,66,53,0
7,59,77,320
7,61,67,0
7,64,90,0
7,68,80,0
7,59,80,0
7,57,46,112
7,61,40,0
7,64,55,0
7,57,87,128
7,61,94,0
7,64,85,0
7,69,94,0
7,57,82,16
7,57,77,112
7,61,70,0
7,64,58,0
7,69,85,0
7,66,63,80
7,57,85,96
7,61,77,0
7,64,85,0
7,61,69,144
7,57,49,112
7,59,55,0
7,62,68,0
7,66,55,0
7,57,57,112
7,59,55,0
7,62,82,0
7,66,84,0
7,59,65,144
7,61,72,0
7,64,82,0
7,68,69,0
7,59,56,80
7,59,67,32
7,61,50,0
7,64,67,0
7,68,77,0
7,59,58,0
7,57,72,128
7,61,59,0
7,64,76,0
7,57,35,48
7,64,55,0
7,61,46,96
7,57,97,80
7,61,54,0
7,57,68,128
7,61,62,0
7,69,77,0
7,66,100,64
7,57,72,96
7,61,64,0
7,64,82,0
7,66,76,48
7,57,92,288
7,62,97,0
7,66,84,0
7,57,100,0
7,66,55,0
7,57,62,256
7,61,72,0
7,64,92,0
7,68,85,0
7,57,28,128
7,57,64,16
7,57,92,304
7,59,82,0
7,62,90,0
7,66,87,0
7,57,65,32
7,59,61,0
7,62,73,0
7,66,55,0
7,59,57,320
7,61,51,0
7,64,60,0
7,66,50,0
7,59,39,48
7,57,46,0
7,59,45,0
7,57,64,96
7,59,68,0
7,62,72,0
7,66,64,0
7,57,65,464
7,59,67,0
7,61,64,0
7,64,72,0
