track,note,velocity,time
3,76,102,1725
3,81,114,0
3,84,110,0
3,76,0,80
3,84,0,18
3,81,0,2
3,81,84,283
3,76,63,1
3,84,74,0
3,76,0,59
3,84,0,14
3,81,0,2
3,76,73,117
3,81,80,0
3,84,75,0
3,84,0,55
3,81,0,6
3,76,0,3
3,76,100,128
3,81,112,0
3,84,106,0
3,76,0,63
3,81,0,11
3,84,0,10
3,76,77,300
3,81,90,0
3,84,88,0
3,76,0,51
3,84,0,5
3,81,0,3
3,76,69,133
3,81,81,0
3,84,74,0
3,76,0,44
3,81,0,10
3,84,0,2
3,76,87,136
3,81,100,0
3,84,98,0
3,76,0,53
3,81,0,15
3,84,0,4
3,76,78,312
3,81,90,0
3,84,90,0
3,76,0,46
3,81,0,8
3,84,0,3
3,76,76,135
3,81,85,0
3,84,87,0
3,76,0,43
3,81,0,9
3,84,0,3
3,76,75,137
3,81,87,0
3,84,86,0
3,76,0,41
3,81,0,7
3,84,0,0
3,76,80,144
3,81,88,0
3,84,92,0
3,76,0,40
3,84,0,10
3,81,0,1
3,81,80,139
3,84,87,0
3,76,76,2
3,76,0,37
3,84,0,3
3,81,0,2
3,76,74,148
3,81,87,0
3,84,84,0
3,76,0,38
3,84,0,1
3,81,0,9
3,74,97,144
3,79,127,0
3,83,98,2
3,83,0,47
3,79,0,1
3,74,0,4
3,74,83,332
3,79,127,0
3,83,80,0
3,83,0,37
3,74,0,11
3,79,0,0
3,74,79,144
3,79,120,0
3,83,80,0
3,79,0,44
3,74,0,1
3,83,0,5
3,74,87,142
3,79,127,0
3,83,91,0
3,74,0,46
3,79,0,6
3,83,0,11
3,74,80,321
3,79,127,0
3,83,81,0
3,74,0,45
3,79,0,4
3,83,0,1
3,74,72,142
3,79,112,0
3,83,73,0
3,74,0,37
3,79,0,0
3,83,0,0
3,74,100,155
3,79,127,0
3,83,97,0
3,74,0,50
3,79,0,7
3,83,0,1
3,79,102,326
3,83,64,0
3,83,0,29
3,79,0,2
3,79,120,159
3,74,73,2
3,83,77,0
3,74,0,42
3,83,0,3
3,79,0,1
3,74,84,144
3,79,127,0
3,83,83,0
3,74,0,40
3,79,0,3
3,83,0,6
3,74,73,143
3,79,120,0
3,83,78,0
3,74,0,32
3,83,0,0
3,79,0,4
3,74,84,156
3,79,127,0
3,83,86,0
3,74,0,34
3,83,0,0
3,79,0,6
3,74,94,152
3,79,127,0
3,83,94,0
3,74,0,37
3,79,0,6
3,83,0,0
3,72,90,149
3,77,98,0
3,81,91,1
3,77,0,46
3,81,0,4
3,72,0,3
3,72,64,332
3,77,73,0
3,81,80,0
3,72,0,32
3,77,0,1
3,81,0,12
3,72,65,147
3,77,80,0
3,81,79,0
3,72,0,35
3,77,0,4
3,81,0,7
3,72,100,146
3,77,110,0
3,81,102,0
3,77,0,39
3,72,0,7
3,81,0,10
3,72,73,328
3,77,70,0
3,81,75,0
3,77,0,30
3,81,0,6
3,72,0,4
3,72,76,150
3,77,80,0
3,81,74,0
3,81,0,35
3,77,0,1
3,72,0,6
3,72,90,150
3,77,108,0
3,81,97,0
3,72,0,42
3,77,0,0
3,81,0,5
3,72,66,529
3,77,61,0
3,81,70,0
3,77,0,24
3,72,0,7
3,81,0,1
3,72,80,160
3,77,77,0
3,81,84,0
3,77,0,31
3,81,0,12
3,72,0,1
3,72,80,148
3,77,72,0
3,81,80,0
3,77,0,32
3,81,0,6
3,72,0,8
3,72,80,146
3,77,80,0
3,81,85,0
3,77,0,33
3,72,0,11
3,81,0,0
3,72,80,148
3,77,75,0
3,81,83,0
3,77,0,30
3,81,0,9
3,72,0,4
3,72,86,149
3,77,85,0
3,81,85,0
3,77,0,37
3,81,0,7
3,72,0,7
3,72,65,141
3,81,65,0
3,81,0,33
3,72,0,4
3,72,73,155
3,77,68,0
3,81,77,0
3,77,0,38
3,72,0,12
3,81,0,0
3,72,80,142
3,77,80,0
3,81,83,0
3,77,0,45
3,81,0,5
3,72,0,3
3,72,97,139
3,77,106,0
3,81,98,0
3,77,0,57
3,81,0,5
3,72,0,5
3,72,73,317
3,77,68,0
3,81,77,0
3,77,0,33
3,81,0,11
3,72,0,1
3,72,88,147
3,77,98,0
3,81,92,0
3,72,0,53
3,81,0,3
3,77,0,1
3,72,95,135
3,76,98,0
3,79,127,0
3,72,0,59
3,79,0,5
3,76,0,1
3,76,53,127
3,79,68,0
3,79,0,50
3,76,0,1
3,72,56,141
3,76,66,0
3,79,97,0
3,72,0,44
3,76,0,8
3,79,0,8
3,76,57,132
3,79,85,0
3,76,0,39
3,79,0,7
3,72,88,146
3,76,100,0
3,79,127,0
3,72,0,61
3,79,0,7
3,76,0,1
3,72,62,123
3,76,74,0
3,79,106,0
3,72,0,48
3,76,0,11
3,79,0,2
3,72,84,131
3,76,97,0
3,79,125,0
3,72,0,59
3,76,0,7
3,79,0,1
3,72,98,125
3,76,114,0
3,79,127,0
3,72,0,60
3,76,0,23
3,79,0,5
3,76,87,106
3,81,106,0
3,84,98,0
3,84,0,79
3,81,0,1
3,76,0,7
3,81,52,103
3,84,51,0
3,84,0,61
3,81,0,11
3,76,52,120
3,81,64,0
3,84,65,0
3,81,0,69
3,76,0,1
3,84,0,9
3,76,58,113
3,81,70,0
3,84,67,0
3,81,0,63
3,84,0,3
3,76,0,2
3,76,97,124
3,81,125,0
3,84,108,0
3,81,0,81
3,76,0,10
3,84,0,1
3,76,54,100
3,81,70,0
3,84,64,0
3,84,0,83
3,81,0,4
3,76,0,2
3,76,51,103
3,81,65,0
3,84,65,0
3,81,0,76
3,84,0,3
3,76,0,4
3,76,60,109
3,84,70,0
3,81,70,1
3,81,0,70
3,76,0,8
3,84,0,4
3,76,60,109
3,81,72,0
3,84,70,0
3,81,0,72
3,76,0,4
3,84,0,2
3,76,54,114
3,81,68,0
3,84,67,0
3,76,0,50
3,81,0,3
3,84,0,10
3,76,73,129
3,81,86,0
3,84,83,0
3,81,0,62
3,76,0,2
3,84,0,6
3,76,75,122
3,81,86,0
3,84,83,0
3,76,0,50
3,81,0,4
3,84,0,6
3,76,95,132
3,81,117,0
3,84,106,0
3,76,0,75
3,81,0,7
3,84,0,3
3,76,47,107
3,81,69,0
3,84,66,0
3,76,0,44
3,84,0,18
3,81,0,1
3,76,60,129
3,81,79,0
3,84,77,0
3,76,0,56
3,81,0,7
3,84,0,9
3,76,88,120
3,81,106,0
3,84,92,0
3,76,0,83
3,81,0,17
3,84,0,13
3,74,94,79
3,79,127,0
3,83,104,0
3,74,0,70
3,79,0,11
3,83,0,6
3,79,62,107
3,79,0,34
3,74,65,156
3,79,104,0
3,83,68,0
3,83,0,72
3,79,0,2
3,74,0,1
3,74,62,117
3,79,95,0
3,83,60,0
3,74,0,56
3,83,0,4
3,79,0,5
3,74,95,127
3,79,127,0
3,83,95,0
3,74,0,76
3,79,0,16
3,83,0,4
3,79,79,288
3,83,45,0
3,74,45,2
3,74,0,58
3,79,0,10
3,83,0,7
3,79,77,115
3,74,43,2
3,83,48,0
3,74,0,56
3,79,0,13
3,83,0,0
3,74,55,121
3,79,91,0
3,83,57,0
3,74,0,67
3,79,0,12
3,83,0,11
3,74,58,102
3,79,91,0
3,83,58,0
3,74,0,65
3,83,0,6
3,79,0,3
3,74,59,118
3,79,95,0
3,83,61,0
3,74,0,64
3,79,0,10
3,83,0,4
3,74,70,114
3,79,108,0
3,83,70,0
3,74,0,64
3,79,0,8
3,83,0,3
3,74,97,117
3,79,127,0
3,83,97,0
3,74,0,68
3,79,0,6
3,83,0,11
3,74,61,107
3,79,94,0
3,83,66,0
3,79,0,54
3,74,0,3
3,83,0,15
3,74,80,120
3,83,85,0
3,79,122,2
3,74,0,70
3,79,0,0
3,83,0,11
3,74,84,109
3,79,127,0
3,83,85,0
3,74,0,69
3,79,0,27
3,83,0,5
3,72,91,93
3,77,104,0
3,81,100,0
3,81,0,62
3,72,0,1
3,77,0,7
3,77,58,122
3,81,39,0
3,81,0,42
3,77,0,11
3,72,55,139
3,77,68,0
3,81,54,0
3,81,0,34
3,72,0,4
3,77,0,18
3,72,77,134
3,77,90,0
3,81,84,0
3,81,0,52
3,72,0,2
3,77,0,9
3,72,114,129
3,81,120,1
3,77,120,1
3,77,0,63
3,72,0,1
3,81,0,6
3,81,54,120
3,77,59,2
3,77,0,39
3,81,0,2
3,72,64,149
3,77,69,0
3,81,56,2
3,81,0,38
3,77,0,13
3,72,0,4
3,77,70,135
3,72,61,1
3,81,64,1
3,72,0,51
3,81,0,4
3,77,0,4
3,77,83,131
3,81,84,0
3,72,73,2
3,72,0,57
3,77,0,3
3,81,0,5
3,77,79,125
3,81,71,0
3,72,64,1
3,72,0,52
3,81,0,4
3,77,0,4
3,72,83,131
3,77,92,0
3,81,87,0
3,72,0,57
3,81,0,5
3,77,0,4
3,72,84,126
3,77,102,0
3,81,90,0
3,72,0,47
3,77,0,6
3,81,0,8
3,72,125,131
3,77,117,0
3,81,120,0
3,72,0,54
3,81,0,14
3,77,0,6
3,72,51,312
3,77,66,0
3,81,59,0
3,72,0,56
3,81,0,1
3,77,0,5
3,72,64,130
3,77,74,0
3,81,70,0
3,72,0,61
3,77,0,5
3,81,0,2
3,72,60,124
3,77,80,0
3,81,68,0
3,72,0,40
3,81,0,12
3,77,0,7
3,72,76,133
3,77,84,0
3,81,81,0
3,72,0,50
3,81,0,0
3,77,0,6
3,72,88,134
3,81,87,1
3,77,91,1
3,81,0,53
3,72,0,3
3,77,0,1
3,72,94,133
3,77,108,0
3,81,102,0
3,81,0,50
3,72,0,4
3,77,0,7
3,72,125,131
3,77,120,0
3,81,122,0
3,81,0,75
3,72,0,1
3,77,0,3
3,77,61,115
3,81,49,0
3,81,0,28
3,77,0,3
3,72,74,161
3,77,77,0
3,81,75,0
3,77,0,48
3,81,0,3
3,72,0,6
3,72,78,133
3,77,88,0
3,81,85,0
3,72,0,50
3,77,0,6
3,81,0,14
3,72,88,122
3,76,95,0
3,79,127,0
3,72,0,58
3,76,0,8
3,79,0,2
3,72,35,124
3,76,61,0
3,79,81,0
3,72,0,26
3,79,0,31
3,76,0,2
3,72,57,133
3,76,70,0
3,79,97,0
3,72,0,43
3,79,0,10
3,76,0,3
3,76,108,137
3,72,104,1
3,79,127,0
3,72,0,63
3,79,0,7
3,76,0,4
3,72,58,116
3,76,70,0
3,79,95,0
3,72,0,50
3,79,0,12
3,76,0,2
3,76,66,128
3,79,94,0
3,72,51,2
3,72,0,40
3,76,0,15
3,79,0,0
3,72,88,135
3,76,98,0
3,79,127,0
3,72,0,63
3,76,0,9
3,79,0,0
3,72,90,120
3,76,104,0
3,79,127,0
3,72,0,52
3,76,0,20
3,79,0,15
3,76,87,107
3,81,106,0
3,84,98,0
3,84,0,79
3,81,0,1
3,76,0,7
3,81,52,103
3,84,51,0
3,84,0,61
3,81,0,11
3,76,52,120
3,81,64,0
3,84,65,0
3,81,0,69
3,76,0,1
3,84,0,9
3,76,58,113
3,81,70,0
3,84,67,0
3,81,0,63
3,84,0,3
3,76,0,2
3,76,97,124
3,81,125,0
3,84,108,0
3,81,0,81
3,76,0,10
3,84,0,1
3,76,54,100
3,81,70,0
3,84,64,0
3,84,0,83
3,81,0,4
3,76,0,2
3,76,51,103
3,81,65,0
3,84,65,0
3,81,0,76
3,84,0,3
3,76,0,4
3,76,60,109
3,84,70,0
3,81,70,1
3,81,0,70
3,76,0,8
3,84,0,4
3,76,60,109
3,81,72,0
3,84,70,0
3,81,0,72
3,76,0,4
3,84,0,2
3,76,54,114
3,81,68,0
3,84,67,0
3,76,0,50
3,81,0,3
3,84,0,10
3,76,73,129
3,81,86,0
3,84,83,0
3,81,0,62
3,76,0,2
3,84,0,6
3,76,75,122
3,81,86,0
3,84,83,0
3,76,0,50
3,81,0,4
3,84,0,6
3,76,95,132
3,81,117,0
3,84,106,0
3,76,0,75
3,81,0,7
3,84,0,3
3,76,47,107
3,81,69,0
3,84,66,0
3,76,0,44
3,84,0,18
3,81,0,1
3,76,60,129
3,81,79,0
3,84,77,0
3,76,0,56
3,81,0,7
3,84,0,9
3,76,88,120
3,81,106,0
3,84,92,0
3,76,0,83
3,81,0,17
3,84,0,13
3,74,94,79
3,79,127,0
3,83,104,0
3,74,0,70
3,79,0,11
3,83,0,6
3,73,94,117
3,78,127,0
3,82,104,0
3,73,0,70
3,78,0,11
3,82,0,6
3,74,65,93
3,79,104,0
3,83,68,0
3,83,0,72
3,79,0,2
3,74,0,1
3,74,62,117
3,79,95,0
3,83,60,0
3,74,0,56
3,83,0,4
3,79,0,5
3,74,95,127
3,79,127,0
3,83,95,0
3,74,0,76
3,79,0,16
3,83,0,4
3,79,79,288
3,83,45,0
3,74,45,2
3,74,0,58
3,79,0,10
3,83,0,7
3,79,77,115
3,74,43,2
3,83,48,0
3,74,0,56
3,79,0,13
3,83,0,0
3,74,55,121
3,79,91,0
3,83,57,0
3,74,0,67
3,79,0,12
3,83,0,11
3,74,58,102
3,79,91,0
3,83,58,0
3,74,0,65
3,83,0,6
3,79,0,3
3,74,59,118
3,79,95,0
3,83,61,0
3,74,0,64
3,79,0,10
3,83,0,4
3,74,70,114
3,79,108,0
3,83,70,0
3,74,0,64
3,79,0,8
3,83,0,3
3,74,97,117
3,79,127,0
3,83,97,0
3,74,0,68
3,79,0,6
3,83,0,11
3,74,61,107
3,79,94,0
3,83,66,0
3,79,0,54
3,74,0,3
3,83,0,15
3,74,80,120
3,83,85,0
3,79,122,2
3,74,0,70
3,79,0,0
3,83,0,11
3,74,84,109
3,79,127,0
3,83,85,0
3,74,0,69
3,79,0,27
3,83,0,5
3,72,91,93
3,77,104,0
3,81,100,0
3,81,0,62
3,72,0,1
3,77,0,7
3,77,58,122
3,81,39,0
3,81,0,42
3,77,0,11
3,72,55,139
3,77,68,0
3,81,54,0
3,81,0,34
3,72,0,4
3,77,0,18
3,72,77,134
3,77,90,0
3,81,84,0
3,81,0,52
3,72,0,2
3,77,0,9
3,72,114,129
3,81,120,1
3,77,120,1
3,77,0,63
3,72,0,1
3,81,0,6
3,81,54,120
3,77,59,2
3,77,0,39
3,81,0,2
3,72,64,149
3,77,69,0
3,81,56,2
3,81,0,38
3,77,0,13
3,72,0,4
3,77,70,135
3,72,61,1
3,81,64,1
3,72,0,51
3,81,0,4
3,77,0,4
3,77,83,131
3,81,84,0
3,72,73,2
3,72,0,57
3,77,0,3
3,81,0,5
3,77,79,125
3,81,71,0
3,72,64,1
3,72,0,52
3,81,0,4
3,77,0,4
3,72,83,131
3,77,92,0
3,81,87,0
3,72,0,57
3,81,0,5
3,77,0,4
3,72,84,126
3,77,102,0
3,81,90,0
3,72,0,47
3,77,0,6
3,81,0,8
3,72,125,131
3,77,117,0
3,81,120,0
3,72,0,54
3,81,0,14
3,77,0,6
3,72,51,312
3,77,66,0
3,81,59,0
3,72,0,56
3,81,0,1
3,77,0,5
3,72,64,130
3,77,74,0
3,81,70,0
3,72,0,61
3,77,0,5
3,81,0,2
3,72,60,124
3,77,80,0
3,81,68,0
3,72,0,40
3,81,0,12
3,77,0,7
3,72,76,133
3,77,84,0
3,81,81,0
3,72,0,50
3,81,0,0
3,77,0,6
3,72,88,134
3,81,87,1
3,77,91,1
3,81,0,53
3,72,0,3
3,77,0,1
3,72,94,133
3,77,108,0
3,81,102,0
3,81,0,50
3,72,0,4
3,77,0,7
3,72,125,131
3,77,120,0
3,81,122,0
3,81,0,75
3,72,0,1
3,77,0,3
3,77,61,115
3,81,49,0
3,81,0,28
3,77,0,3
3,72,74,161
3,77,77,0
3,81,75,0
3,77,0,48
3,81,0,3
3,72,0,6
3,72,78,133
3,77,88,0
3,81,85,0
3,72,0,50
3,77,0,6
3,81,0,14
3,72,88,122
3,76,95,0
3,79,127,0
3,72,0,58
3,76,0,8
3,79,0,2
3,72,35,124
3,76,61,0
3,79,81,0
3,72,0,26
3,79,0,31
3,76,0,2
3,72,57,133
3,76,70,0
