track,note,velocity,time
3,67,80,1920
3,67,0,192
3,65,80,48
3,65,0,576
3,67,80,144
3,67,0,192
3,65,80,48
3,65,0,192
3,62,80,48
3,62,0,96
3,63,80,24
3,63,0,96
3,65,80,24
3,65,0,96
3,65,80,24
3,65,0,570
3,65,80,510
3,65,0,192
3,63,80,48
3,63,0,576
3,65,80,144
3,65,0,192
3,63,80,48
3,63,0,113
3,60,80,7
3,60,0,96
3,60,80,24
3,60,0,96
3,61,80,24
3,61,0,96
3,63,80,24
3,63,0,96
3,63,80,24
3,63,0,570
3,67,80,510
3,67,0,192
3,65,80,48
3,65,0,576
3,67,80,144
3,67,0,192
3,65,80,48
3,65,0,192
3,62,80,48
3,62,0,96
3,63,80,24
3,63,0,96
3,65,80,24
3,65,0,96
3,65,80,24
3,65,0,570
3,68,80,510
3,68,0,192
3,68,80,48
3,68,0,192
3,68,80,48
3,68,0,96
3,67,80,24
3,67,0,96
3,65,80,24
3,65,0,192
3,65,80,48
3,65,0,192
3,67,80,48
3,67,0,96
3,67,80,24
3,67,0,504
3,67,80,96
3,67,0,192
3,65,80,48
3,65,0,576
3,67,80,144
3,67,0,192
3,65,80,48
3,65,0,192
3,62,80,48
3,62,0,96
3,63,80,24
3,63,0,96
3,65,80,24
3,65,0,96
3,65,80,24
3,65,0,570
3,65,80,510
3,65,0,192
3,63,80,48
3,63,0,576
3,65,80,144
3,65,0,192
3,63,80,48
3,63,0,225
3,60,80,15
3,60,0,96
3,61,80,24
3,61,0,96
3,63,80,24
3,63,0,96
3,63,80,24
3,63,0,570
3,67,80,510
3,67,0,192
3,65,80,48
3,65,0,576
3,67,80,144
3,67,0,192
3,65,80,48
3,65,0,192
3,62,80,48
3,62,0,96
3,63,80,24
3,63,0,96
3,65,80,24
3,65,0,96
3,65,80,24
3,65,0,570
3,68,80,510
3,68,0,192
3,68,80,48
3,68,0,192
3,68,80,48
3,68,0,96
3,67,80,24
3,67,0,96
3,65,80,24
3,65,0,113
3,65,80,7
3,65,0,96
3,65,80,24
3,65,0,113
3,67,80,7
3,67,0,225
3,67,80,15
3,67,0,984
3,65,80,96
3,65,0,384
3,69,80,96
3,69,0,192
3,67,80,48
3,67,0,96
3,62,80,24
3,62,0,312
3,60,80,48
3,60,0,96
3,65,80,24
3,65,0,312
3,65,80,48
3,65,0,96
3,67,80,24
3,67,0,96
3,69,80,24
3,69,0,192
3,69,80,48
3,69,0,96
3,72,80,24
3,72,0,312
3,70,80,48
3,70,0,192
3,65,80,48
3,65,0,192
3,67,80,48
3,67,0,96
3,69,80,24
3,69,0,504
3,62,80,96
3,62,0,384
3,65,80,96
3,65,0,288
3,65,80,72
3,65,0,96
3,67,80,24
3,67,0,96
3,69,80,24
3,69,0,96
3,70,80,24
3,70,0,96
3,69,80,24
3,69,0,408
3,62,80,72
3,62,0,96
3,72,80,24
3,72,0,113
3,72,80,7
3,72,0,113
3,72,80,7
3,72,0,113
3,72,80,7
3,72,0,216
3,70,80,24
3,70,0,96
3,69,80,24
3,69,0,96
3,67,80,24
3,67,0,216
3,65,80,24
3,65,0,96
3,69,80,24
3,69,0,96
3,67,80,24
3,67,0,216
3,65,80,24
3,65,0,96
3,69,80,24
3,69,0,96
3,67,80,24
3,67,0,96
3,65,80,24
3,65,0,576
3,67,80,384
3,67,0,192
3,65,80,48
3,65,0,576
3,67,80,144
3,67,0,192
3,65,80,48
3,65,0,192
3,62,80,48
3,62,0,96
3,63,80,24
3,63,0,96
3,65,80,24
3,65,0,96
3,65,80,24
3,65,0,570
3,65,80,510
3,65,0,192
3,63,80,48
3,63,0,576
3,65,80,144
3,65,0,192
3,63,80,48
3,63,0,192
3,60,80,48
3,60,0,96
3,61,80,24
3,61,0,96
3,63,80,24
3,63,0,96
3,63,80,24
3,63,0,570
3,67,80,510
3,67,0,192
3,65,80,48
3,65,0,576
3,67,80,144
3,67,0,192
3,65,80,48
3,65,0,192
3,62,80,48
3,62,0,96
3,63,80,24
3,63,0,96
3,65,80,24
3,65,0,96
3,65,80,24
3,65,0,570
3,68,80,510
3,68,0,192
3,68,80,48
3,68,0,192
3,68,80,48
3,68,0,96
3,67,80,24
3,67,0,96
3,65,80,24
3,65,0,192
3,65,80,48
3,65,0,113
3,67,80,7
3,67,0,225
3,67,80,15
3,67,0,984
3,65,80,96
3,65,0,384
3,69,80,96
3,69,0,192
3,67,80,48
3,67,0,96
3,62,80,24
3,62,0,312
3,60,80,48
3,60,0,96
3,65,80,24
3,65,0,312
3,65,80,48
3,65,0,96
3,67,80,24
3,67,0,96
3,69,80,24
3,69,0,192
3,69,80,48
3,69,0,96
3,72,80,24
3,72,0,312
3,70,80,48
3,70,0,192
3,65,80,48
3,65,0,192
3,67,80,48
3,67,0,96
3,69,80,24
3,69,0,504
3,62,80,96
3,62,0,384
3,65,80,96
3,65,0,288
3,65,80,72
3,65,0,96
3,67,80,24
3,67,0,96
3,69,80,24
3,69,0,96
3,70,80,24
3,70,0,96
3,69,80,24
3,69,0,408
3,62,80,72
3,62,0,96
3,72,80,24
3,72,0,113
3,72,80,7
3,72,0,113
3,72,80,7
3,72,0,113
3,72,80,7
3,72,0,216
3,70,80,24
3,70,0,96
3,69,80,24
3,69,0,96
3,67,80,24
3,67,0,216
3,65,80,24
3,65,0,96
3,69,80,24
3,69,0,96
3,67,80,24
3,67,0,216
3,65,80,24
3,65,0,96
3,69,80,24
3,69,0,96
3,67,80,24
3,67,0,96
3,65,80,24
3,65,0,384
3,69,80,96
3,69,0,192
3,67,80,48
3,67,0,96
3,62,80,24
3,62,0,312
3,60,80,48
3,60,0,96
3,65,80,24
3,65,0,312
3,65,80,48
3,65,0,96
3,67,80,24
3,67,0,96
3,69,80,24
3,69,0,192
3,69,80,48
3,69,0,96
3,72,80,24
3,72,0,312
3,70,80,48
3,70,0,192
3,65,80,48
3,65,0,192
3,67,80,48
3,67,0,96
3,69,80,24
3,69,0,504
3,62,80,96
3,62,0,384
3,65,80,96
3,65,0,288
3,65,80,72
3,65,0,96
3,67,80,24
3,67,0,96
3,69,80,24
3,69,0,96
3,70,80,24
3,70,0,96
3,69,80,24
3,69,0,408
3,62,80,72
3,62,0,96
3,72,80,24
3,72,0,113
3,72,80,7
3,72,0,113
3,72,80,7
3,72,0,113
3,72,80,7
3,72,0,216
3,70,80,24
3,70,0,96
3,69,80,24
3,69,0,96
3,67,80,24
3,67,0,216
3,65,80,24
3,65,0,96
3,69,80,24
3,69,0,96
3,67,80,24
3,67,0,216
3,65,80,24
3,65,0,96
3,69,80,24
3,69,0,96
3,67,80,24
3,67,0,96
3,65,80,24
3,65,0,384
3,69,80,96
3,69,0,192
3,67,80,48
3,67,0,96
3,62,80,24
3,62,0,312
3,60,80,48
3,60,0,96
3,65,80,24
3,65,0,312
3,65,80,48
3,65,0,96
3,67,80,24
3,67,0,96
3,69,80,24
3,69,0,192
3,69,80,48
3,69,0,96
3,72,80,24
3,72,0,312
3,70,80,48
3,70,0,192
3,65,80,48
3,65,0,192
3,67,80,48
3,67,0,96
3,69,80,24
3,69,0,504
3,62,80,96
3,62,0,384
3,65,80,96
3,65,0,288
3,65,80,72
3,65,0,96
3,67,80,24
3,67,0,96
3,69,80,24
3,69,0,96
3,70,80,24
3,70,0,96
3,69,80,24
3,69,0,408
3,62,80,72
3,62,0,96
3,72,80,24
3,72,0,113
3,72,80,7
3,72,0,113
3,72,80,7
3,72,0,113
3,72,80,7
3,72,0,216
3,70,80,24
3,70,0,96
3,69,80,24
3,69,0,96
3,67,80,24
3,67,0,216
3,65,80,24
3,65,0,96
3,69,80,24
3,69,0,96
3,67,80,24
3,67,0,216
3,65,80,24
3,65,0,96
3,69,80,24
3,69,0,96
3,67,80,24
3,67,0,96
3,65,80,24
3,65,0,384
3,69,80,96
3,69,0,192
3,67,80,48
3,67,0,96
3,62,80,24
3,62,0,312
3,60,80,48
3,60,0,96
3,65,80,24
3,65,0,312
3,65,80,48
3,65,0,96
3,67,80,24
3,67,0,96
3,69,80,24
3,69,0,192
3,69,80,48
3,69,0,96
3,72,80,24
3,72,0,312
3,70,80,48
3,70,0,192
3,65,80,48
3,65,0,192
3,67,80,48
3,67,0,96
3,69,80,24
3,69,0,504
3,62,80,96
3,62,0,384
3,65,80,96
3,65,0,288
3,65,80,72
3,65,0,96
3,67,80,24
3,67,0,96
3,69,80,24
3,69,0,96
3,70,80,24
3,70,0,96
3,69,80,24
3,69,0,408
3,62,80,72
3,62,0,96
3,72,80,24
3,72,0,113
3,72,80,7
3,72,0,113
3,72,80,7
3,72,0,113
3,72,80,7
3,72,0,216
3,70,80,24
3,70,0,96
3,69,80,24
3,69,0,96
3,67,80,24
3,67,0,216
3,65,80,24
3,65,0,96
3,69,80,24
3,69,0,96
3,67,80,24
3,67,0,216
3,65,80,24
3,65,0,96
3,69,80,24
3,69,0,96
3,67,80,24
3,67,0,96
3,65,80,24
3,65,0,384
3,69,77,96
3,69,0,192
3,67,76,48
3,67,0,96
3,62,75,24
3,62,0,312
3,60,72,48
3,60,0,96
3,65,71,24
3,65,0,312
3,65,68,48
3,65,0,96
3,67,67,24
3,67,0,96
3,69,66,24
3,69,0,192
3,69,64,48
3,69,0,96
3,72,64,24
3,72,0,312
3,70,60,48
3,70,0,192
3,65,59,48
3,65,0,192
3,67,56,48
3,67,0,96
3,69,56,24
3,69,0,504
3,62,51,96
3,62,0,384
3,65,48,96
3,65,0,288
3,65,44,72
3,65,0,96
3,67,44,24
3,67,0,96
3,69,43,24
3,69,0,96
3,70,41,24
3,70,0,96
3,69,40,24
3,69,0,408
3,62,37,72
3,62,0,96
3,72,36,24
3,72,0,113
3,72,35,7
3,72,0,113
3,72,34,7
3,72,0,113
3,72,33,7
3,72,0,216
3,70,31,24
3,70,0,96
3,69,30,24
3,69,0,96
3,67,29,24
3,67,0,216
3,65,28,24
3,65,0,96
3,69,27,24
3,69,0,96
3,67,25,24
3,67,0,216
3,65,24,24
3,65,0,96
3,69,23,24
3,69,0,96
3,67,22,24
3,67,0,96
3,65,20,24
3,65,0,900
4,58,80,1920
4,63,80,0
4,67,80,0
4,67,0,288
4,63,0,0
4,58,0,0
4,65,80,72
4,58,80,0
4,62,80,0
4,62,0,504
4,58,0,0
4,65,0,0
4,63,80,96
4,58,80,0
4,67,80,0
4,67,0,288
4,58,0,0
4,63,0,0
4,62,80,72
4,58,80,0
4,65,80,0
4,65,0,504
4,58,0,0
4,62,0,0
4,58,80,96
4,65,80,0
4,60,80,0
4,60,0,288
4,65,0,0
4,58,0,0
4,65,80,72
4,60,80,0
4,57,80,0
4,57,0,504
4,60,0,0
4,65,0,0
4,61,80,96
4,65,80,0
4,56,80,0
4,56,0,288
4,65,0,0
4,61,0,0
4,63,80,72
4,56,80,0
4,60,80,0
4,60,0,504
4,56,0,0
4,63,0,0
4,56,80,96
4,61,80,0
4,65,80,0
4,65,0,288
4,61,0,0
4,56,0,0
4,56,80,72
4,60,80,0
4,63,80,0
4,63,0,504
4,60,0,0
4,56,0,0
4,58,80,96
4,56,80,0
4,63,80,0
4,63,0,288
4,56,0,0
4,58,0,0
4,58,80,72
4,63,80,0
4,55,80,0
4,55,0,504
4,63,0,0
4,58,0,0
4,63,80,96
4,58,80,0
4,67,80,0
4,67,0,288
4,58,0,0
4,63,0,0
4,62,80,72
4,65,80,0
4,58,80,0
4,58,0,504
4,65,0,0
4,62,0,0
4,58,80,96
4,63,80,0
4,67,80,0
4,67,0,288
4,63,0,0
4,58,0,0
4,62,80,72
4,58,80,0
4,65,80,0
4,65,0,504
4,58,0,0
4,62,0,0
4,65,80,96
4,60,80,0
4,58,80,0
4,58,0,288
4,60,0,0
4,65,0,0
4,57,80,72
4,60,80,0
4,65,80,0
4,65,0,504
4,60,0,0
4,57,0,0
4,60,80,96
4,63,80,0
4,56,80,0
4,56,0,113
4,63,0,0
4,60,0,0
4,58,80,7
4,58,0,113
4,60,80,7
4,60,0,113
4,63,80,7
4,63,0,96
4,58,80,24
4,62,80,0
4,65,80,0
4,65,0,96
4,62,0,0
4,58,0,0
4,60,80,24
4,60,0,96
4,62,80,24
4,62,0,96
4,65,80,24
4,65,0,96
4,60,80,24
4,67,80,0
4,55,80,0
4,55,0,96
4,67,0,0
4,60,0,0
4,60,80,24
4,60,0,96
4,62,80,24
4,62,0,96
4,67,80,24
4,67,0,504
4,67,80,96
4,58,80,0
4,63,80,0
4,63,0,288
4,58,0,0
4,67,0,0
4,65,80,72
4,58,80,0
4,62,80,0
4,62,0,504
4,58,0,0
4,65,0,0
4,58,80,96
4,67,80,0
4,63,80,0
4,63,0,288
4,67,0,0
4,58,0,0
4,65,80,72
4,58,80,0
4,62,80,0
4,62,0,504
4,58,0,0
4,65,0,0
4,65,80,96
4,58,80,0
4,60,80,0
4,60,0,288
4,58,0,0
4,65,0,0
4,57,80,72
4,60,80,0
4,65,80,0
4,65,0,504
4,60,0,0
4,57,0,0
4,61,80,96
4,56,80,0
4,65,80,0
4,65,0,288
4,56,0,0
4,61,0,0
4,56,80,72
4,60,80,0
4,63,80,0
4,63,0,504
4,60,0,0
4,56,0,0
4,56,80,96
4,61,80,0
4,65,80,0
4,65,0,288
4,61,0,0
4,56,0,0
4,63,80,72
4,60,80,0
4,56,80,0
4,56,0,504
4,60,0,0
4,63,0,0
4,56,80,96
4,63,80,0
4,58,80,0
4,58,0,288
4,63,0,0
4,56,0,0
4,58,80,72
4,55,80,0
4,63,80,0
4,63,0,504
4,55,0,0
4,58,0,0
4,58,80,96
4,67,80,0
4,63,80,0
4,63,0,288
4,67,0,0
4,58,0,0
4,62,80,72
4,65,80,0
4,58,80,0
4,58,0,504
4,65,0,0
4,62,0,0
4,58,80,96
4,63,80,0
4,67,80,0
4,67,0,288
4,63,0,0
4,58,0,0
4,65,80,72
4,58,80,0
4,62,80,0
4,62,0,504
4,58,0,0
4,65,0,0
4,65,80,96
4,60,80,0
4,58,80,0
4,58,0,288
4,60,0,0
4,65,0,0
4,65,80,72
4,57,80,0
4,60,80,0
4,60,0,504
4,57,0,0
4,65,0,0
4,60,80,96
4,63,80,0
4,56,80,0
4,56,0,113
4,63,0,0
4,60,0,0
4,58,80,7
4,58,0,113
4,60,80,7
4,60,0,113
4,63,80,7
4,63,0,96
4,58,80,24
4,62,80,0
4,65,80,0
4,65,0,96
4,62,0,0
4,58,0,0
4,60,80,24
4,60,0,96
4,62,80,24
4,62,0,96
4,65,80,24
4,65,0,96
4,55,80,24
4,60,80,0
4,67,80,0
4,67,0,96
4,60,0,0
4,55,0,0
4,60,80,24
4,60,0,96
4,62,80,24
4,62,0,96
4,67,80,24
4,67,0,1050
4,65,80,30
4,60,80,0
4,57,80,0
4,57,0,912
4,60,0,0
4,65,0,0
4,58,80,48
4,60,80,0
4,55,80,0
4,65,80,0
4,55,0,432
4,58,0,0
4,57,80,48
4,57,0,432
4,60,0,0
4,65,0,0
4,57,80,48
4,60,80,0
4,65,80,0
4,57,0,432
4,62,80,48
4,53,80,0
4,53,0,432
4,60,0,0
4,65,0,0
4,62,0,0
4,60,80,48
4,55,80,0
4,65,80,0
4,55,0,432
4,57,80,48
4,57,0,432
4,65,0,0
4,60,0,0
4,65,80,48
4,62,80,0
4,58,80,0
4,58,0,432
4,69,80,48
4,69,0,192
4,58,80,48
4,58,0,192
4,62,0,0
4,65,0,0
4,67,80,48
4,64,80,0
4,58,80,0
4,60,80,0
4,60,0,192
4,67,0,0
4,64,0,0
4,58,0,0
4,64,80,48
4,67,80,0
4,58,80,0
4,60,80,0
4,60,0,192
4,64,0,0
4,67,0,0
4,58,0,0
4,60,80,48
4,69,80,0
4,65,80,0
4,65,0,192
4,69,0,0
4,60,0,0
4,65,80,48
4,60,80,0
4,69,80,0
4,69,0,192
4,60,0,0
4,65,0,0
4,65,80,48
4,72,80,0
4,62,80,0
4,62,0,192
4,72,0,0
4,65,0,0
4,72,80,48
4,65,80,0
