track,note,velocity,time
3,50,86,380
3,50,0,57
3,50,85,15
3,50,0,11
3,50,85,13
3,50,0,53
3,50,85,19
3,50,0,11
3,50,85,13
3,50,0,95
3,50,85,97
3,50,0,57
3,50,85,15
3,50,0,11
3,50,85,13
3,50,0,55
3,50,85,17
3,50,0,11
3,50,85,13
3,50,0,99
3,45,88,93
3,45,0,55
3,45,85,17
3,45,0,11
3,45,85,13
3,45,0,79
3,45,88,17
3,45,0,106
3,45,85,86
3,45,0,73
3,45,86,23
3,45,0,34
3,45,85,14
3,45,0,16
3,45,85,8
3,45,0,64
3,33,85,8
3,35,85,48
3,33,0,6
3,35,0,40
3,37,86,2
3,37,0,28
3,38,112,20
3,38,0,53
3,38,112,42
3,38,0,55
3,40,112,41
3,40,0,64
3,40,112,32
3,40,0,53
3,38,112,43
3,38,0,20
3,40,112,4
3,40,0,23
3,41,112,1
3,41,0,21
3,43,112,3
3,43,0,20
3,45,112,4
3,45,0,42
3,33,112,6
3,33,0,30
3,33,112,18
3,33,0,57
3,40,112,39
3,40,0,59
3,38,112,37
3,38,0,60
3,38,112,36
3,38,0,55
3,40,112,41
3,40,0,67
3,40,112,29
3,40,0,52
3,38,112,44
3,38,0,18
3,40,112,6
3,40,0,20
3,41,112,4
3,41,0,20
3,43,112,4
3,43,0,23
3,45,112,1
3,45,0,42
3,38,112,6
3,38,0,37
3,39,107,11
3,39,0,79
3,38,112,17
3,38,0,74
3,31,112,22
3,31,0,64
3,31,112,32
3,31,0,70
3,39,107,26
3,39,0,45
3,38,112,3
3,38,0,44
3,33,112,4
3,33,0,44
3,30,105,4
3,30,0,40
3,31,112,8
3,31,0,61
3,34,108,35
3,34,0,48
3,38,112,0
3,38,0,34
3,41,112,14
3,41,0,75
3,41,112,21
3,41,0,70
3,40,112,26
3,40,0,70
3,40,112,26
3,40,0,70
3,34,113,26
3,34,0,77
3,34,112,19
3,34,0,70
3,33,112,26
3,33,0,76
3,33,112,20
3,33,0,64
3,45,112,32
3,45,0,47
3,43,112,1
3,43,0,47
3,40,112,1
3,40,0,44
3,33,112,4
3,33,0,47
3,38,112,1
3,38,0,61
3,38,112,35
3,38,0,60
3,40,112,36
3,40,0,67
3,40,112,29
3,40,0,63
3,41,112,33
3,41,0,71
3,41,112,25
3,41,0,70
3,33,112,26
3,33,0,74
3,33,112,22
3,33,0,58
3,38,112,38
3,38,0,62
3,38,112,34
3,38,0,62
3,40,112,34
3,40,0,69
3,40,112,27
3,40,0,65
3,41,112,31
3,41,0,72
3,41,112,24
3,41,0,65
3,39,114,31
3,39,0,69
3,38,112,27
3,38,0,70
3,43,112,26
3,43,0,69
3,43,112,27
3,43,0,67
3,39,114,29
3,39,0,43
3,38,112,5
3,38,0,42
3,33,112,6
3,30,112,48
3,33,0,4
3,30,0,41
3,31,112,3
3,31,0,79
3,34,110,17
3,38,112,48
3,34,0,2
3,38,0,46
3,41,112,0
3,41,0,75
3,41,112,21
3,41,0,68
3,40,112,28
3,40,0,78
3,40,112,18
3,40,0,67
3,34,112,29
3,34,0,80
3,34,115,16
3,34,0,74
3,45,112,22
3,45,0,72
3,45,112,24
3,45,0,72
3,45,115,24
3,45,0,78
3,43,112,18
3,43,0,64
3,42,112,32
3,42,0,62
3,42,109,34
3,42,0,66
3,42,112,30
3,42,0,66
3,42,114,30
3,42,0,63
3,44,114,33
3,44,0,70
3,44,115,26
3,44,0,144
3,38,112,0
3,37,100,48
3,38,0,1
3,37,0,46
3,44,107,1
3,44,0,46
3,42,112,2
3,42,0,70
3,42,115,26
3,42,0,73
3,42,105,23
3,42,0,67
3,42,107,29
3,42,0,68
3,44,104,28
3,44,0,77
3,44,114,19
3,44,0,73
3,37,108,23
3,37,0,75
3,37,114,21
3,37,0,67
3,38,112,29
3,38,0,72
3,38,112,24
3,38,0,70
3,38,112,26
3,38,0,70
3,38,112,26
3,38,0,73
3,40,112,23
3,40,0,77
3,40,112,19
3,40,0,74
3,33,112,22
3,33,0,77
3,33,112,19
3,33,0,78
3,34,115,18
3,34,0,79
3,34,110,17
3,34,0,45
3,41,112,3
3,41,0,44
3,45,112,4
3,45,0,77
3,41,112,19
3,41,0,73
3,43,112,23
3,43,0,74
3,43,112,22
3,43,0,70
3,40,112,26
3,40,0,46
3,45,112,2
3,45,0,26
3,45,114,22
3,45,0,24
3,40,112,0
3,40,0,21
3,33,112,3
3,33,0,24
3,38,112,24
3,38,0,61
3,38,112,35
3,38,0,59
3,40,112,37
3,40,0,67
3,40,112,29
3,40,0,64
3,41,112,32
3,41,0,71
3,41,112,25
3,41,0,70
3,33,112,26
3,33,0,74
3,33,112,22
3,33,0,58
3,38,112,38
3,38,0,61
3,38,112,35
3,38,0,62
3,40,112,34
3,40,0,70
3,40,112,26
3,40,0,65
3,41,112,31
3,41,0,72
3,41,112,24
3,41,0,65
3,39,114,31
3,39,0,69
3,38,112,27
3,38,0,71
3,43,112,25
3,43,0,69
3,43,112,27
3,43,0,67
3,39,114,29
3,39,0,43
3,38,112,5
3,38,0,43
3,33,112,5
3,30,112,48
3,33,0,4
3,30,0,41
3,31,112,3
3,31,0,79
3,34,110,17
3,38,112,48
3,34,0,2
3,38,0,46
3,41,112,0
3,41,0,75
3,41,112,21
3,41,0,68
3,40,112,28
3,40,0,78
3,40,112,18
3,40,0,67
3,34,112,29
3,34,0,80
3,34,115,16
3,34,0,74
3,45,112,22
3,45,0,72
3,45,112,24
3,45,0,72
3,45,115,24
3,45,0,77
3,43,112,19
3,43,0,64
3,38,112,32
3,38,0,61
3,38,112,35
3,38,0,59
3,40,112,37
3,40,0,67
3,40,112,29
3,40,0,63
3,41,112,33
3,41,0,71
3,41,112,25
3,41,0,70
3,33,112,26
3,33,0,74
3,33,112,22
3,33,0,58
3,38,112,38
3,38,0,62
3,38,112,34
3,38,0,62
3,40,112,34
3,40,0,70
3,40,112,26
3,40,0,65
3,41,112,31
3,41,0,72
3,41,112,24
3,41,0,65
3,39,114,31
3,39,0,69
3,38,112,27
3,38,0,71
3,43,112,25
3,43,0,69
3,43,112,27
3,43,0,67
3,39,114,29
3,39,0,43
3,38,112,5
3,38,0,43
3,33,112,5
3,30,112,48
3,33,0,4
3,30,0,42
3,31,112,2
3,31,0,79
3,34,110,17
3,38,112,48
3,34,0,2
3,38,0,45
3,41,112,1
3,41,0,75
3,41,112,21
3,41,0,68
3,40,112,28
3,40,0,78
3,40,112,18
3,40,0,67
3,34,112,29
3,34,0,80
3,34,115,16
3,34,0,74
3,45,112,22
3,45,0,72
3,45,112,24
3,45,0,72
3,45,115,24
3,45,0,78
3,43,112,18
3,43,0,64
3,42,112,32
3,42,0,61
3,42,109,35
3,42,0,66
3,42,112,30
3,42,0,66
3,42,114,30
3,42,0,63
3,44,114,33
3,44,0,69
3,44,115,27
3,44,0,144
3,38,112,0
3,37,100,48
3,38,0,1
3,37,0,46
3,44,107,1
3,44,0,46
3,42,112,2
3,42,0,70
3,42,115,26
3,42,0,73
3,42,105,23
3,42,0,66
3,42,107,30
3,42,0,68
3,44,104,28
3,44,0,77
3,44,114,19
3,44,0,74
3,37,108,22
3,37,0,75
3,37,114,21
3,37,0,67
3,38,112,29
3,38,0,72
3,38,112,24
3,38,0,70
3,38,112,26
3,38,0,70
3,38,112,26
3,38,0,73
3,40,112,23
3,40,0,77
3,40,112,19
3,40,0,74
3,33,112,22
3,33,0,77
3,33,112,19
3,33,0,79
3,34,115,18
3,34,0,78
3,34,110,17
3,34,0,45
3,41,112,3
3,41,0,44
3,45,112,4
3,45,0,77
3,41,112,19
3,41,0,73
3,43,112,23
3,43,0,74
3,43,112,22
3,43,0,70
3,50,86,26
3,50,0,57
3,50,85,15
3,50,0,11
3,50,85,13
3,50,0,53
3,50,85,19
3,50,0,11
3,50,85,13
3,50,0,95
3,50,85,97
3,50,0,57
3,50,85,15
3,50,0,11
3,50,85,13
3,50,0,55
3,50,85,17
3,50,0,11
3,50,85,13
3,50,0,99
3,45,88,93
3,45,0,55
3,45,85,17
3,45,0,11
3,45,85,13
3,45,0,79
3,45,88,17
3,45,0,106
3,45,85,86
3,45,0,73
3,45,86,23
3,45,0,34
3,45,85,14
3,45,0,15
3,45,85,9
3,45,0,64
3,33,85,8
3,35,85,48
3,33,0,5
3,35,0,41
3,37,86,2
3,37,0,28
3,42,112,20
3,42,0,61
3,42,109,35
3,42,0,66
3,42,112,30
3,42,0,66
3,42,114,30
3,42,0,63
3,44,114,33
3,44,0,69
3,44,115,27
3,44,0,144
3,38,112,0
3,37,100,48
3,38,0,1
3,37,0,46
3,44,107,1
3,44,0,46
3,42,112,2
3,42,0,70
3,42,115,26
3,42,0,73
3,42,105,23
3,42,0,66
3,42,107,30
3,42,0,68
3,44,104,28
3,44,0,77
3,44,114,19
3,44,0,73
3,37,108,23
3,37,0,75
3,37,114,21
3,37,0,67
3,38,112,29
3,38,0,72
3,38,112,24
3,38,0,70
3,38,112,26
3,38,0,70
3,38,112,26
3,38,0,73
3,40,112,23
3,40,0,77
3,40,112,19
3,40,0,74
3,33,112,22
3,33,0,77
3,33,112,19
3,33,0,79
3,34,115,17
3,34,0,79
3,34,110,17
3,34,0,45
3,41,112,3
3,41,0,44
3,45,112,4
3,45,0,77
3,41,112,19
3,41,0,73
3,43,112,23
3,43,0,74
3,43,112,22
3,43,0,70
3,38,118,26
3,38,0,62
3,38,123,34
3,38,0,57
3,38,121,39
3,38,0,59
3,38,121,37
3,38,0,60
3,38,121,36
3,38,0,61
3,38,120,35
3,38,0,59
3,38,121,37
3,38,0,61
3,38,121,35
3,38,0,57
3,45,118,39
3,45,0,62
3,45,118,34
3,45,0,59
3,45,117,37
3,45,0,62
3,45,118,34
3,45,0,65
3,45,119,31
3,45,0,65
3,45,119,31
3,45,0,64
3,45,117,32
3,45,0,47
3,40,117,1
3,40,0,47
3,45,116,1
3,40,112,24
3,45,0,3
3,40,0,13
3,33,113,8
3,33,0,34
3,38,118,14
3,38,0,62
3,38,123,34
3,38,0,57
3,38,121,39
3,38,0,59
3,38,121,37
3,38,0,60
3,38,121,36
3,38,0,61
3,38,120,35
3,38,0,59
3,38,121,37
3,38,0,61
3,38,121,35
3,38,0,57
3,45,118,39
3,45,0,62
3,45,118,34
3,45,0,59
3,45,117,37
3,45,0,62
3,45,118,34
3,45,0,65
3,45,119,31
3,45,0,65
3,45,119,31
3,45,0,64
3,45,117,32
3,45,0,47
3,40,117,1
3,40,0,47
3,45,116,1
3,40,112,24
3,45,0,3
3,40,0,13
3,33,113,8
3,33,0,34
3,38,118,14
3,38,0,63
3,38,115,33
3,38,0,57
3,38,111,39
3,38,0,59
3,38,107,37
3,38,0,60
3,38,103,36
3,38,0,61
3,38,100,35
3,38,0,59
3,38,96,37
3,38,0,61
3,38,92,35
3,38,0,57
3,45,88,39
3,45,0,62
3,45,84,34
3,45,0,60
3,45,80,36
3,45,0,62
3,45,77,34
3,45,0,65
3,45,73,31
3,45,0,65
3,45,69,31
3,45,0,64
3,45,65,32
3,45,0,47
3,40,63,1
3,40,0,47
3,45,61,1
3,40,60,24
3,45,0,3
3,40,0,13
3,33,59,8
3,33,0,34
3,38,56,14
3,38,0,62
3,38,52,34
3,38,0,57
3,38,48,39
3,38,0,59
3,38,44,37
3,38,0,60
3,38,41,36
3,38,0,61
3,38,37,35
3,38,0,59
3,38,33,37
3,38,0,61
3,38,29,35
3,38,0,57
3,45,26,39
3,45,0,62
3,45,22,34
3,45,0,59
3,45,18,37
3,45,0,62
3,45,14,34
3,45,0,65
3,45,11,31
3,45,0,65
3,45,7,31
3,45,0,63
3,45,3,33
3,45,0,47
4,69,104,380
4,69,0,25
4,69,104,23
4,69,0,19
4,69,104,29
4,69,0,24
4,69,104,24
4,69,0,25
4,69,104,22
4,69,0,28
4,69,104,22
4,69,0,23
4,72,104,26
4,72,0,21
4,70,92,4
4,70,0,20
4,69,104,2
4,69,0,23
4,70,107,0
4,70,0,99
4,65,104,218
4,65,0,22
4,67,100,2
4,67,0,18
4,65,104,0
4,65,0,25
4,69,104,7
4,69,0,17
4,69,104,42
4,69,0,24
4,69,104,30
4,69,0,25
4,69,104,24
4,69,0,20
4,69,104,9
4,69,0,18
4,64,104,97
4,64,0,23
4,65,104,1
4,65,0,18
4,64,104,2
4,64,0,26
4,69,108,5
4,69,0,23
4,69,104,46
4,69,0,23
4,69,104,25
4,69,0,23
4,69,104,25
4,69,0,22
4,69,104,8
4,69,0,21
4,61,104,7772
4,61,0,22
4,65,85,2
4,65,0,20
4,66,82,4
4,66,0,19
4,68,74,5
4,68,0,21
4,69,85,3
4,69,0,391
4,62,112,2306
4,67,113,191
4,62,0,8
4,67,0,87
4,62,114,0
4,64,112,95
4,62,0,3
4,69,112,189
4,64,0,2
4,69,0,382
4,65,112,429
4,65,0,19
4,67,112,5
4,67,0,29
4,69,112,1
4,69,0,53
4,69,112,42
4,69,0,197
4,62,112,1431
4,67,112,97
4,62,0,1
4,67,0,95
4,62,112,1
4,64,112,95
4,62,0,4
4,64,0,335
4,61,104,1439
4,61,0,22
4,65,85,2
4,65,0,20
4,66,82,4
4,66,0,19
4,68,74,5
4,68,0,21
4,69,85,3
4,69,0,391
4,69,104,953
4,69,0,24
4,69,104,23
4,69,0,19
4,69,104,29
4,69,0,24
4,69,104,24
4,69,0,25
4,69,104,22
4,69,0,28
4,69,104,22
4,69,0,23
4,72,104,25
4,72,0,22
4,70,92,4
4,70,0,20
4,69,104,2
4,69,0,23
4,70,107,0
4,70,0,99
4,65,104,218
4,65,0,22
4,67,100,2
4,67,0,18
4,65,104,0
4,65,0,25
4,69,104,6
4,69,0,18
4,69,104,42
4,69,0,24
4,69,104,30
4,69,0,25
4,69,104,24
4,69,0,20
4,69,104,9
4,69,0,18
4,64,104,97
4,64,0,23
4,65,104,1
4,65,0,18
4,64,104,2
4,64,0,27
4,69,108,4
4,69,0,23
4,69,104,46
4,69,0,23
4,69,104,25
4,69,0,23
4,69,104,25
4,69,0,22
4,69,104,7
4,69,0,22
4,61,104,1438
4,61,0,22
4,65,85,2
4,65,0,20
4,66,82,4
4,66,0,19
4,68,74,5
4,68,0,21
4,69,85,3
4,69,0,391
4,69,104,953
4,69,0,24
4,69,104,23
4,69,0,19
4,69,104,29
4,69,0,24
4,69,104,24
4,69,0,25
4,69,104,22
4,69,0,28
4,69,104,22
4,69,0,23
4,72,104,26
4,72,0,21
4,70,92,4
4,70,0,20
4,69,104,2
4,69,0,23
4,70,107,0
4,70,0,99
4,65,104,218
4,65,0,22
4,67,100,2
4,67,0,18
4,65,104,0
4,65,0,25
4,69,104,6
4,69,0,18
4,69,104,42
4,69,0,24
4,69,104,30
4,69,0,25
4,69,104,24
4,69,0,20
4,69,104,9
4,69,0,18
4,64,104,97
4,64,0,23
4,65,104,1
4,65,0,18
4,64,104,2
4,64,0,27
4,69,108,4
4,69,0,24
4,69,104,45
4,69,0,23
4,69,104,25
4,69,0,23
4,69,104,25
4,69,0,22
4,69,104,8
4,69,0,21
4,69,104,188
4,69,0,24
4,69,104,23
4,69,0,19
4,69,104,29
4,69,0,24
4,69,104,24
4,69,0,25
4,69,104,22
4,69,0,28
4,69,104,22
4,69,0,23
4,72,104,26
4,72,0,21
4,70,92,4
4,70,0,19
4,69,104,3
4,69,0,23
4,70,107,0
4,70,0,99
4,65,104,218
4,65,0,22
4,67,100,2
4,67,0,18
4,65,104,0
4,65,0,25
4,69,104,6
4,69,0,18
4,69,104,43
4,69,0,23
4,69,104,30
4,69,0,25
4,69,104,24
4,69,0,20
4,69,104,10
4,69,0,17
4,64,104,97
4,64,0,23
4,65,104,1
4,65,0,18
4,64,104,3
4,64,0,26
4,69,108,4
4,69,0,23
4,69,104,46
4,69,0,23
4,69,104,25
4,69,0,23
4,69,104,25
4,69,0,22
4,69,104,7
4,69,0,21
4,69,104,189
4,69,0,24
4,69,103,23
4,69,0,19
4,69,101,29
4,69,0,24
