track,note,velocity,time
3,44,127,364
3,44,0,12
3,44,118,36
3,44,0,16
3,44,127,32
3,44,0,16
3,44,127,32
3,44,0,16
3,44,127,32
3,44,0,20
3,44,127,28
3,44,0,16
3,44,127,32
3,44,0,20
3,44,127,28
3,44,0,16
3,44,127,32
3,44,0,16
3,44,127,32
3,44,0,16
3,44,127,32
3,44,0,16
3,44,127,32
3,44,0,16
3,44,127,32
3,44,0,16
3,44,127,32
3,44,0,12
3,44,90,12
3,44,0,12
3,44,106,12
3,44,0,20
3,44,127,28
3,44,0,12
3,44,84,12
3,44,0,12
3,44,122,12
3,44,0,16
3,44,127,32
3,44,0,16
3,44,127,32
3,44,0,16
3,44,127,32
3,44,0,16
3,44,127,32
3,44,0,16
3,44,127,32
3,44,0,16
3,44,127,32
3,44,0,16
3,44,127,32
3,44,0,16
3,44,127,32
3,44,0,16
3,44,127,32
3,44,0,16
3,44,127,32
3,44,0,16
3,44,127,32
3,44,0,16
3,44,127,32
3,44,0,8
3,44,103,16
3,44,0,12
3,44,82,12
3,44,0,16
3,44,127,32
3,44,0,12
3,44,65,12
3,44,0,12
3,44,122,12
3,44,0,16
3,42,127,32
3,42,0,16
3,42,127,32
3,42,0,16
3,42,127,32
3,42,0,16
3,42,127,32
3,42,0,20
3,42,127,28
3,42,0,20
3,42,127,28
3,42,0,16
3,42,127,32
3,42,0,16
3,42,127,32
3,42,0,16
3,42,127,32
3,42,0,12
3,42,64,12
3,42,0,8
3,42,106,16
3,42,0,16
3,42,127,32
3,42,0,16
3,42,127,32
3,42,0,16
3,42,127,32
3,42,0,8
3,42,92,16
3,42,0,16
3,42,80,8
3,42,0,12
3,42,127,36
3,42,0,12
3,42,92,12
3,42,0,12
3,42,94,12
3,42,0,12
3,42,82,12
3,42,0,12
3,42,127,12
3,42,0,12
3,42,127,36
3,42,0,16
3,42,127,32
3,42,0,16
3,42,127,32
3,42,0,16
3,42,127,32
3,42,0,12
3,42,127,36
3,42,0,16
3,42,127,32
3,42,0,12
3,42,127,36
3,42,0,8
3,42,92,16
3,42,0,12
3,42,118,12
3,42,0,16
3,42,127,32
3,42,0,12
3,42,127,36
3,42,0,12
3,42,127,36
3,42,0,16
3,42,127,32
3,42,0,8
3,42,106,16
3,42,0,16
3,42,127,32
3,42,0,12
3,42,103,12
3,42,0,20
3,42,127,28
3,42,0,16
3,51,127,32
3,51,0,8
3,51,127,40
3,51,0,20
3,51,127,28
3,51,0,16
3,51,127,32
3,51,0,16
3,51,127,32
3,51,0,16
3,51,127,32
3,51,0,16
3,51,127,32
3,51,0,16
3,51,127,32
3,51,0,16
3,51,127,32
3,51,0,16
3,51,127,32
3,51,0,8
3,51,110,16
3,51,0,8
3,51,127,16
3,51,0,16
3,51,127,32
3,51,0,16
3,51,127,32
3,51,0,16
3,51,127,32
3,51,0,12
3,51,127,36
3,51,0,20
3,51,127,28
3,51,0,16
3,51,127,32
3,51,0,16
3,51,127,32
3,51,0,12
3,51,127,36
3,51,0,16
3,51,127,32
3,51,0,16
3,51,127,32
3,51,0,16
3,51,127,32
3,51,0,16
3,51,127,32
3,51,0,16
3,51,127,32
3,51,0,16
3,51,127,32
3,51,0,16
3,51,127,32
3,51,0,8
3,51,113,16
3,51,0,12
3,51,118,12
3,51,0,16
3,51,127,32
3,51,0,12
3,51,127,36
3,51,0,16
3,51,127,32
3,51,0,12
3,51,127,36
3,51,0,8
3,51,118,16
3,51,0,12
3,51,113,12
3,51,0,12
3,51,127,12
3,51,0,12
3,51,127,12
3,51,0,8
3,51,127,40
3,51,0,20
3,51,127,28
3,51,0,16
3,51,127,32
3,51,0,16
3,51,127,32
3,51,0,16
3,51,127,32
3,51,0,16
3,51,127,32
3,51,0,16
3,51,127,32
3,51,0,16
3,51,127,32
3,51,0,16
3,51,127,32
3,51,0,8
3,51,110,16
3,51,0,8
3,51,127,16
3,51,0,16
3,51,127,32
3,51,0,16
3,51,127,32
3,51,0,16
3,51,127,32
3,51,0,12
3,51,127,36
3,51,0,20
3,51,127,28
3,51,0,16
3,51,127,32
3,51,0,16
3,51,127,32
3,51,0,12
3,51,127,36
3,51,0,16
3,51,127,32
3,51,0,16
3,51,127,32
3,51,0,16
3,51,127,32
3,51,0,16
3,51,127,32
3,51,0,16
3,51,127,32
3,51,0,16
3,51,127,32
3,51,0,16
3,51,127,32
3,51,0,8
3,51,113,16
3,51,0,12
3,51,118,12
3,51,0,16
3,51,127,32
3,51,0,12
3,51,127,36
3,51,0,16
3,51,127,32
3,51,0,12
3,51,127,36
3,51,0,8
3,51,118,16
3,51,0,12
3,51,113,12
3,51,0,12
3,51,127,12
3,51,0,12
3,51,127,12
3,51,0,8
3,51,127,40
3,51,0,20
3,51,127,28
3,51,0,16
3,51,127,32
3,51,0,16
3,51,127,32
3,51,0,16
3,51,127,32
3,51,0,16
3,51,127,32
3,51,0,16
3,51,127,32
3,51,0,16
3,51,127,32
3,51,0,16
3,51,127,32
3,51,0,8
3,51,110,16
3,51,0,8
3,51,127,16
3,51,0,16
3,51,127,32
3,51,0,16
3,51,127,32
3,51,0,16
3,51,127,32
3,51,0,12
3,51,127,36
3,51,0,20
3,51,127,28
3,51,0,16
3,51,127,32
3,51,0,16
3,51,127,32
3,51,0,12
3,51,127,36
3,51,0,16
3,51,127,32
3,51,0,16
3,51,127,32
3,51,0,16
3,51,127,32
3,51,0,16
3,51,127,32
3,51,0,16
3,51,127,32
3,51,0,16
3,51,127,32
3,51,0,16
3,51,127,32
3,51,0,8
3,51,113,16
3,51,0,12
3,51,118,12
3,51,0,16
3,51,127,32
3,51,0,12
3,51,127,36
3,51,0,16
3,51,127,32
3,51,0,12
3,51,127,36
3,51,0,8
3,51,118,16
3,51,0,12
3,51,113,12
3,51,0,12
3,51,127,12
3,51,0,12
3,51,127,12
3,51,0,8
3,51,127,40
3,51,0,20
3,51,127,28
3,51,0,16
3,51,127,32
3,51,0,16
3,51,127,32
3,51,0,16
3,51,127,32
3,51,0,16
3,51,127,32
3,51,0,16
3,51,127,32
3,51,0,16
3,51,127,32
3,51,0,16
3,51,127,32
3,51,0,8
3,51,110,16
3,51,0,8
3,51,127,16
3,51,0,16
3,51,127,32
3,51,0,16
3,51,127,32
3,51,0,16
3,51,127,32
3,51,0,12
3,51,127,36
3,51,0,20
3,51,127,28
3,51,0,16
3,51,127,32
3,51,0,16
3,51,127,32
3,51,0,12
3,51,127,36
3,51,0,16
3,51,127,32
3,51,0,16
3,51,127,32
3,51,0,16
3,51,127,32
3,51,0,16
3,51,127,32
3,51,0,16
3,51,127,32
3,51,0,16
3,51,127,32
3,51,0,16
3,51,127,32
3,51,0,8
3,51,113,16
3,51,0,12
3,51,118,12
3,51,0,16
3,51,127,32
3,51,0,12
3,51,127,36
3,51,0,16
3,51,127,32
3,51,0,12
3,51,127,36
3,51,0,8
3,51,118,16
3,51,0,12
3,51,113,12
3,51,0,12
3,51,127,12
3,51,0,12
3,51,127,12
3,51,0,8
3,51,127,40
3,51,0,20
3,51,127,28
3,51,0,16
3,51,127,32
3,51,0,16
3,51,127,32
3,51,0,16
3,51,127,32
3,51,0,16
3,51,127,32
3,51,0,16
3,51,127,32
3,51,0,16
3,51,127,32
3,51,0,16
3,51,127,32
3,51,0,8
3,51,110,16
3,51,0,8
3,51,127,16
3,51,0,16
3,51,127,32
3,51,0,16
3,51,127,32
3,51,0,16
3,51,127,32
3,51,0,12
3,51,127,36
3,51,0,20
3,51,127,28
3,51,0,16
3,51,127,32
3,51,0,16
3,51,127,32
3,51,0,12
3,51,127,36
3,51,0,16
3,51,127,32
3,51,0,16
3,51,127,32
3,51,0,16
3,51,127,32
3,51,0,16
3,51,127,32
3,51,0,16
3,51,127,32
3,51,0,16
3,51,127,32
3,51,0,16
3,51,127,32
3,51,0,8
3,51,113,16
3,51,0,12
3,51,118,12
3,51,0,16
3,51,127,32
3,51,0,12
3,51,127,36
3,51,0,16
3,51,127,32
3,51,0,12
3,51,127,36
3,51,0,8
3,51,118,16
3,51,0,12
3,51,113,12
3,51,0,12
3,51,127,12
3,51,0,12
3,51,127,12
3,51,0,8
3,51,127,40
3,51,0,20
3,51,127,28
3,51,0,16
3,51,127,32
3,51,0,16
3,51,127,32
3,51,0,16
3,51,127,32
3,51,0,16
3,51,127,32
3,51,0,16
3,51,127,32
3,51,0,16
3,51,127,32
3,51,0,16
3,51,127,32
3,51,0,8
3,51,110,16
3,51,0,8
3,51,127,16
3,51,0,16
3,51,127,32
3,51,0,16
3,51,127,32
3,51,0,16
3,51,127,32
3,51,0,12
3,51,127,36
3,51,0,20
3,51,127,28
3,51,0,16
3,44,122,32
3,44,0,20
3,44,59,28
3,44,0,20
3,44,110,28
3,44,0,20
3,44,118,28
3,44,0,16
3,44,113,32
3,44,0,20
3,44,113,28
3,44,0,12
3,44,122,36
3,44,0,12
3,44,118,36
3,44,0,28
3,46,103,20
3,46,0,24
3,46,113,24
3,46,0,20
3,46,113,28
3,46,0,20
3,46,106,28
3,46,0,20
3,46,82,28
3,46,0,20
3,46,90,28
3,46,0,16
3,46,127,32
3,46,0,16
3,46,106,32
3,46,0,24
3,44,127,24
3,44,0,20
3,44,106,28
3,44,0,12
3,44,127,36
3,44,0,12
3,44,113,36
3,44,0,12
3,44,127,36
3,44,0,16
3,44,103,32
3,44,0,12
3,44,122,36
3,44,0,16
3,44,118,32
3,44,0,36
3,46,77,12
3,46,0,16
3,46,103,32
3,46,0,20
3,46,110,28
3,46,0,16
3,46,106,32
3,46,0,16
3,46,118,32
3,46,0,12
3,46,118,36
3,46,0,16
3,46,110,32
3,46,0,12
3,46,110,36
3,46,0,16
3,44,127,32
3,44,0,20
3,44,78,28
3,44,0,12
3,44,106,36
3,44,0,20
3,44,90,28
3,44,0,16
3,44,110,32
3,44,0,20
3,44,94,28
3,44,0,12
3,44,122,36
3,44,0,16
3,44,103,32
3,44,0,20
3,46,94,28
3,46,0,12
3,46,106,36
3,46,0,16
3,46,118,32
3,46,0,20
3,46,94,28
3,46,0,24
3,46,110,24
3,46,0,24
3,46,92,24
3,46,0,20
3,46,110,28
3,46,0,12
3,46,106,36
3,46,0,24
3,44,122,24
3,46,53,0
3,46,0,8
3,44,0,12
3,44,113,28
3,44,0,16
3,44,100,32
3,46,72,0
3,46,0,8
3,44,0,8
3,44,85,32
3,44,0,20
3,44,103,28
3,44,0,16
3,44,113,32
3,44,0,12
3,44,106,36
3,44,0,12
3,44,106,36
3,44,0,24
3,46,110,24
3,46,0,16
3,46,84,32
3,46,0,16
3,46,127,32
3,46,0,16
3,46,118,32
3,46,0,16
3,46,106,32
3,46,0,20
3,46,113,28
3,46,0,16
3,46,122,32
3,46,0,12
3,46,103,36
3,46,0,24
3,51,110,24
3,51,0,24
3,51,67,24
3,51,0,24
3,51,82,24
3,51,0,20
3,51,97,28
3,51,0,20
3,51,97,28
3,51,0,20
3,51,103,28
3,51,0,20
3,51,106,28
3,51,0,20
3,51,110,28
3,51,0,20
3,51,103,28
3,51,0,20
3,51,87,28
3,51,0,20
3,51,94,28
3,51,0,20
3,51,103,28
3,51,0,20
3,51,97,28
3,51,0,20
3,51,94,28
3,51,0,20
3,51,110,28
3,51,0,20
3,51,113,28
3,51,0,24
3,51,94,24
3,51,0,20
3,51,92,28
3,51,0,20
3,51,103,28
3,51,0,16
3,51,110,32
3,51,0,16
3,51,103,32
3,51,0,20
3,51,106,28
3,51,0,20
3,51,106,28
3,51,0,16
3,51,100,32
3,51,0,20
3,51,106,28
3,51,0,20
3,51,106,28
3,51,0,20
3,51,97,28
3,51,0,16
3,51,106,32
3,51,0,20
3,51,103,28
3,51,0,16
3,51,100,32
3,51,0,16
3,51,110,32
3,51,0,16
3,51,113,32
3,51,0,24
3,51,127,24
3,51,0,8
3,51,127,40
3,51,0,20
3,51,127,28
3,51,0,16
3,51,127,32
3,51,0,16
3,51,127,32
3,51,0,16
3,51,127,32
3,51,0,16
3,51,127,32
3,51,0,16
3,51,127,32
3,51,0,16
3,51,127,32
3,51,0,16
3,51,127,32
3,51,0,8
3,51,110,16
3,51,0,8
3,51,127,16
3,51,0,16
3,51,127,32
3,51,0,16
3,51,127,32
3,51,0,16
3,51,127,32
3,51,0,12
3,51,127,36
3,51,0,20
3,51,127,28
3,51,0,16
3,51,127,32
3,51,0,16
3,51,127,32
3,51,0,12
3,51,127,36
3,51,0,16
3,51,127,32
3,51,0,16
3,51,127,32
3,51,0,16
3,51,127,32
3,51,0,16
3,51,127,32
3,51,0,16
3,51,127,32
3,51,0,16
3,51,127,32
3,51,0,16
3,51,127,32
3,51,0,8
3,51,113,16
3,51,0,12
3,51,118,12
3,51,0,16
3,51,127,32
3,51,0,12
3,51,127,36
3,51,0,16
3,51,127,32
3,51,0,12
3,51,127,36
3,51,0,8
3,51,118,16
3,51,0,12
3,51,113,12
3,51,0,12
3,51,127,12
3,51,0,12
3,51,127,12
3,51,0,8
3,51,127,40
3,51,0,20
3,51,127,28
3,51,0,16
3,51,127,32
3,51,0,16
3,51,127,32
3,51,0,16
3,51,127,32
3,51,0,16
3,51,127,32
3,51,0,16
3,51,127,32
3,51,0,16
3,51,127,32
3,51,0,16
3,51,127,32
3,51,0,8
3,51,110,16
3,51,0,8
3,51,127,16
3,51,0,16
3,51,127,32
3,51,0,16
3,51,127,32
3,51,0,16
3,51,127,32
3,51,0,12
3,51,127,36
3,51,0,20
3,51,127,28
3,51,0,16
3,51,127,32
3,51,0,16
3,51,127,32
3,51,0,12
3,51,127,36
3,51,0,16
3,51,127,32
3,51,0,16
3,51,127,32
3,51,0,16
3,51,127,32
3,51,0,16
3,51,127,32
3,51,0,16
3,51,127,32
3,51,0,16
3,51,127,32
3,51,0,16
3,51,127,32
3,51,0,8
3,51,113,16
3,51,0,12
3,51,118,12
3,51,0,16
3,51,127,32
3,51,0,12
3,51,127,36
3,51,0,16
3,51,127,32
3,51,0,12
3,51,127,36
3,51,0,8
3,51,118,16
3,51,0,12
3,51,113,12
3,51,0,12
3,51,127,12
3,51,0,12
3,51,127,12
3,51,0,8
3,51,127,40
3,51,0,20
3,51,127,28
3,51,0,16
3,51,127,32
3,51,0,16
3,51,127,32
3,51,0,16
3,51,127,32
3,51,0,16
3,51,127,32
3,51,0,16
3,51,127,32
3,51,0,16
3,51,127,32
3,51,0,16
3,51,127,32
3,51,0,8
3,51,110,16
3,51,0,8
3,51,127,16
3,51,0,16
3,51,127,32
3,51,0,16
3,51,127,32
3,51,0,16
3,51,127,32
3,51,0,12
3,51,127,36
3,51,0,20
3,51,127,28
3,51,0,16
3,51,127,32
3,51,0,16
3,51,127,32
3,51,0,12
3,51,127,36
3,51,0,16
3,51,127,32
3,51,0,16
3,51,127,32
3,51,0,16
3,51,127,32
3,51,0,16
3,51,127,32
3,51,0,16
3,51,127,32
3,51,0,16
3,51,127,32
3,51,0,16
3,51,127,32
3,51,0,8
3,51,113,16
3,51,0,12
3,51,118,12
3,51,0,16
3,51,127,32
3,51,0,12
3,51,127,36
3,51,0,16
3,51,127,32
3,51,0,12
3,51,127,36
3,51,0,8
3,51,118,16
3,51,0,12
3,51,113,12
3,51,0,12
3,51,127,12
3,51,0,12
3,51,127,12
3,51,0,8
3,51,127,40
3,51,0,20
3,51,127,28
3,51,0,16
3,51,127,32
3,51,0,16
3,51,127,32
3,51,0,16
3,51,127,32
3,51,0,16
3,51,127,32
3,51,0,16
3,51,127,32
3,51,0,16
3,51,127,32
3,51,0,16
3,51,127,32
3,51,0,8
3,51,110,16
3,51,0,8
3,51,127,16
3,51,0,16
3,51,127,32
3,51,0,16
3,51,127,32
3,51,0,16
3,51,127,32
3,51,0,12
3,51,127,36
3,51,0,20
3,51,127,28
3,51,0,16
3,51,127,32
3,51,0,16
3,51,127,32
3,51,0,12
3,51,127,36
3,51,0,16
3,51,127,32
3,51,0,16
3,51,127,32
3,51,0,16
3,51,127,32
3,51,0,16
