track,note,velocity,time
3,73,88,6145
3,73,88,15
3,73,88,16
3,73,88,16
3,73,88,17
3,76,88,40
3,71,88,40
3,71,88,24
3,71,88,9
3,71,88,17
3,71,88,17
3,71,88,15
3,76,88,17
3,69,88,40
3,69,88,24
3,69,88,8
3,69,88,15
3,69,88,16
3,69,88,16
3,73,88,16
3,68,88,40
3,68,88,23
3,68,88,9
3,71,88,15
3,61,88,16
3,62,88,40
3,64,88,39
3,73,88,2768
3,73,88,23
3,73,88,8
3,73,88,16
3,73,88,16
3,73,88,16
3,73,88,16
3,76,88,17
3,71,88,15
3,71,88,24
3,71,88,8
3,71,88,16
3,71,88,17
3,71,88,17
3,76,88,16
3,69,88,40
3,69,88,23
3,69,88,8
3,69,88,17
3,69,88,17
3,69,88,16
3,73,88,17
3,68,88,40
3,68,88,23
3,71,88,9
3,61,88,40
3,62,88,40
3,64,88,40
3,74,88,2769
3,74,88,23
3,74,88,9
3,74,88,16
3,74,88,15
3,74,88,17
3,74,88,16
3,73,88,40
3,66,88,520
3,71,88,17
3,71,88,25
3,71,88,8
3,71,88,17
3,71,88,15
3,71,88,15
3,71,88,17
3,70,88,40
3,66,88,519
3,74,88,16
3,74,88,23
3,74,88,8
3,74,88,15
3,74,88,16
3,74,88,16
3,74,88,16
3,73,88,39
3,71,88,40
3,69,88,41
3,66,88,40
3,73,88,40
3,74,88,120
3,73,88,16
3,71,88,17
3,73,88,2001
3,73,88,16
3,73,88,16
3,73,88,15
3,73,88,15
3,76,88,40
3,71,88,40
3,71,88,23
3,71,88,9
3,71,88,15
3,71,88,16
3,71,88,16
3,76,88,16
3,69,88,40
3,69,88,24
3,69,88,9
3,69,88,16
3,69,88,16
3,69,88,16
3,73,88,17
3,68,88,41
3,68,88,23
3,68,88,9
3,71,88,16
3,61,88,17
3,62,88,40
3,64,88,40
3,73,88,2768
3,73,88,24
3,73,88,8
3,73,88,16
3,73,88,15
3,73,88,16
3,73,88,16
3,76,88,15
3,71,88,15
3,71,88,25
3,71,88,8
3,71,88,15
3,71,88,16
3,71,88,16
3,76,88,16
3,69,88,39
3,69,88,24
3,69,88,8
3,69,88,15
3,69,88,15
3,69,88,16
3,73,88,16
3,68,88,40
3,68,88,24
3,71,88,9
3,61,88,39
3,62,88,40
3,64,88,40
3,74,88,2769
3,74,88,24
3,74,88,9
3,74,88,17
3,74,88,17
3,74,88,16
3,74,88,16
3,73,88,40
3,66,88,520
3,71,88,17
3,71,88,23
3,71,88,8
3,71,88,15
3,71,88,16
3,71,88,16
3,71,88,16
3,70,88,40
3,66,88,520
3,74,88,17
3,74,88,23
3,74,88,9
3,74,88,15
3,74,88,15
3,74,88,16
3,74,88,16
3,73,88,40
3,71,88,41
3,69,88,40
3,66,88,42
3,73,88,40
3,74,88,216
3,74,88,17
3,74,88,17
3,74,88,17
3,74,88,39
3,74,88,136
3,74,88,15
3,74,88,15
3,74,88,17
3,74,88,39
3,74,88,135
3,74,88,16
3,74,88,40
3,74,88,39
3,76,88,15
3,74,88,16
3,77,88,40
3,77,88,24
3,76,88,8
3,74,88,40
3,74,88,135
3,74,88,17
3,74,88,15
3,74,88,1112
3,74,88,17
3,74,88,17
3,74,88,1112
3,74,88,16
3,74,88,15
3,74,88,16
3,74,88,40
3,74,88,135
3,74,88,17
3,74,88,16
3,74,88,16
3,74,88,39
3,74,88,135
3,74,88,16
3,74,88,41
3,74,88,40
3,76,88,15
3,74,88,16
3,77,88,39
3,77,88,23
3,76,88,8
3,74,88,41
3,74,88,135
3,74,88,16
3,74,88,16
3,74,88,1111
3,74,88,17
3,74,88,16
3,73,88,4280
3,73,88,16
3,73,88,16
3,73,88,16
3,73,88,17
3,76,88,40
3,71,88,40
3,71,88,23
3,71,88,9
3,71,88,15
3,71,88,17
3,71,88,16
3,76,88,16
3,69,88,40
3,69,88,23
3,69,88,8
3,69,88,16
3,69,88,15
3,69,88,16
3,73,88,17
3,68,88,39
3,68,88,23
3,68,88,7
3,71,88,16
3,61,88,15
3,62,88,40
3,64,88,39
3,73,88,2768
3,73,88,23
3,73,88,8
3,73,88,15
3,73,88,16
3,73,88,16
3,73,88,16
3,76,88,15
3,71,88,16
3,71,88,23
3,71,88,8
3,71,88,15
3,71,88,16
3,71,88,15
3,76,88,17
3,69,88,41
3,69,88,23
3,69,88,8
3,69,88,16
3,69,88,16
3,69,88,16
3,73,88,16
3,68,88,41
3,68,88,23
3,71,88,9
3,61,88,40
3,62,88,40
3,64,88,41
3,74,88,2769
3,74,88,24
3,74,88,8
3,74,88,16
3,74,88,15
3,74,88,15
3,74,88,18
3,73,88,40
3,66,88,520
3,71,88,18
3,71,88,23
3,71,88,9
3,71,88,15
3,71,88,16
3,71,88,16
3,71,88,16
3,70,88,39
3,66,88,520
3,74,88,16
3,74,88,22
3,74,88,8
3,74,88,17
3,74,88,16
3,74,88,17
3,74,88,16
3,73,88,39
3,71,88,41
3,69,88,40
3,66,88,40
3,73,88,41
3,74,88,216
3,74,88,16
3,74,88,17
3,74,88,17
3,74,88,40
3,74,88,136
3,74,88,15
3,74,88,16
3,74,88,17
3,74,88,40
3,74,88,137
3,74,88,17
3,74,88,40
3,74,88,40
3,76,88,16
3,74,88,16
3,77,88,41
3,77,88,24
3,76,88,8
3,74,88,39
3,74,88,135
3,74,88,16
3,74,88,15
3,74,88,1113
3,74,88,17
3,74,88,16
3,74,88,1112
3,74,88,16
3,74,88,15
3,74,88,17
3,74,88,39
3,74,88,135
3,74,88,15
3,74,88,16
3,74,88,17
3,74,88,40
3,74,88,136
3,74,88,16
3,74,88,40
3,74,88,41
3,76,88,16
3,74,88,17
3,77,88,40
3,77,88,24
3,76,88,9
3,74,88,40
3,74,88,135
3,74,88,17
3,74,88,16
3,74,88,1113
3,74,88,16
3,74,88,14
3,74,88,1018
3,74,88,15
3,74,88,15
3,74,88,16
3,74,88,17
3,74,88,40
3,74,88,41
3,74,88,16
3,74,88,17
3,74,88,16
3,74,88,17
3,74,88,40
3,74,88,136
3,74,88,17
3,74,88,41
3,74,88,40
3,76,88,16
3,74,88,16
3,77,88,41
3,77,88,23
3,76,88,9
3,74,88,41
3,74,88,135
3,74,88,17
3,74,88,16
3,74,88,1112
3,74,88,17
3,74,88,15
4,64,64,1
4,69,64,79
4,71,64,16
4,76,64,81
4,73,64,13
4,69,64,78
4,71,64,16
4,73,64,81
4,64,64,40
4,69,64,79
4,71,64,16
4,76,64,80
4,73,64,17
4,69,64,80
4,71,64,16
4,64,64,81
4,69,64,81
4,68,64,161
4,66,64,159
4,64,64,160
4,64,64,158
4,69,64,81
4,71,64,15
4,76,64,80
4,73,64,12
4,69,64,81
4,71,64,15
4,73,64,81
4,64,64,16
4,69,64,57
4,68,64,160
4,66,64,160
4,64,64,160
4,64,64,158
4,69,64,81
4,71,64,16
4,76,64,82
4,73,64,16
4,69,64,80
4,66,64,15
4,64,64,79
4,62,64,16
4,66,64,58
4,71,64,2
4,74,64,1
4,66,64,421
4,71,64,3
4,74,64,1
4,64,64,36
4,70,64,4
4,73,64,2
4,64,64,421
4,70,64,7
4,73,64,1
4,62,64,44
4,66,64,4
4,71,64,1
4,62,64,420
4,66,64,4
4,71,64,1
4,64,64,37
4,73,64,5
4,70,64,0
4,64,64,423
4,70,64,5
4,73,64,1
4,66,64,35
4,74,64,3
4,71,64,0
4,66,64,419
4,71,64,4
4,74,64,2
4,69,64,35
4,73,64,5
4,63,64,38
4,71,64,6
4,63,64,37
4,69,64,5
4,63,64,38
4,66,64,4
4,64,64,41
4,69,64,82
4,71,64,16
4,76,64,79
4,73,64,16
4,69,64,80
4,71,64,16
4,73,64,79
4,64,64,16
4,69,64,56
4,68,64,160
4,66,64,161
4,64,64,160
4,64,64,160
4,69,64,80
4,71,64,16
4,76,64,79
4,73,64,14
4,69,64,80
4,71,64,15
4,73,64,80
4,64,64,15
4,69,64,55
4,68,64,159
4,66,64,162
4,64,64,160
4,64,64,159
4,69,64,78
4,71,64,16
4,76,64,81
4,73,64,16
4,69,64,81
4,66,64,16
4,64,64,78
4,62,64,15
4,66,64,56
4,71,64,4
4,74,64,1
4,66,64,425
4,71,64,4
4,74,64,1
4,64,64,35
4,73,64,3
4,70,64,0
4,64,64,425
4,70,64,3
4,73,64,1
4,62,64,36
4,66,64,3
4,71,64,2
4,62,64,421
4,71,64,5
4,66,64,0
4,64,64,36
4,70,64,4
4,73,64,1
4,64,64,426
4,73,64,5
4,70,64,0
4,66,64,37
4,71,64,3
4,74,64,2
4,66,64,420
4,71,64,4
4,74,64,1
4,73,64,36
4,69,64,0
4,63,64,39
4,71,64,4
4,63,64,39
4,69,64,5
4,63,64,38
4,66,64,5
4,64,64,40
4,73,64,3
4,69,64,0
4,64,64,77
4,69,64,3
4,73,64,2
4,64,64,76
4,68,64,3
4,73,64,3
4,64,64,77
4,68,64,4
4,73,64,2
4,66,64,76
4,69,64,4
4,74,64,1
4,66,64,230
4,69,64,4
4,74,64,2
4,66,64,235
4,74,64,4
4,69,64,0
4,66,64,228
4,74,64,5
4,69,64,0
4,66,64,231
4,72,64,4
4,74,64,1
4,66,64,229
4,74,64,5
4,72,64,0
4,66,64,229
4,74,64,5
4,72,64,0
4,66,64,229
4,72,64,3
4,74,64,2
4,67,64,228
4,71,64,3
4,74,64,2
4,67,64,12
4,71,64,3
4,74,64,2
4,74,64,1112
4,71,64,13
4,67,64,0
4,74,64,8
4,67,64,12
4,71,64,4
4,74,64,1
4,74,64,1108
4,69,64,17
4,66,64,0
4,74,64,5
4,66,64,228
4,69,64,4
4,74,64,1
4,66,64,233
4,69,64,4
4,74,64,1
4,66,64,227
4,69,64,4
4,74,64,1
4,66,64,227
4,72,64,5
4,74,64,1
4,66,64,230
4,72,64,4
4,74,64,2
4,72,64,228
4,66,64,0
4,74,64,5
4,66,64,228
4,72,64,4
4,74,64,1
4,67,64,232
4,74,64,5
4,71,64,0
4,67,64,13
4,71,64,3
4,74,64,2
4,74,64,1109
4,67,64,17
4,74,64,4
4,71,64,0
4,67,64,15
4,74,64,5
4,71,64,0
4,74,64,917
4,76,64,17
4,74,64,16
4,76,64,16
4,77,64,15
4,76,64,15
4,74,64,15
4,64,64,16
4,67,64,4
4,72,64,1
4,76,64,38
4,77,64,14
4,76,64,13
4,74,64,16
4,64,64,15
4,67,64,4
4,72,64,1
4,74,64,36
4,68,64,38
4,74,64,6
4,76,64,1
4,75,64,38
4,63,64,0
4,62,64,35
4,74,64,7
4,61,64,36
4,73,64,6
4,64,64,39
4,68,64,3
4,74,64,2
4,71,64,0
4,69,64,464
4,68,64,160
4,66,64,161
4,64,64,160
4,64,64,161
4,69,64,82
4,71,64,16
4,76,64,81
4,73,64,16
4,69,64,77
4,71,64,16
4,73,64,81
4,64,64,15
4,69,64,57
4,68,64,160
4,66,64,163
4,64,64,160
4,64,64,160
4,69,64,80
4,71,64,15
4,76,64,78
4,73,64,16
4,69,64,80
4,66,64,15
4,64,64,80
4,62,64,16
4,66,64,57
4,71,64,4
4,74,64,1
4,66,64,424
4,71,64,4
4,74,64,1
4,64,64,39
4,70,64,5
4,73,64,1
4,64,64,420
4,70,64,7
4,73,64,1
4,62,64,45
4,71,64,4
4,66,64,0
4,62,64,423
4,66,64,5
4,71,64,1
4,64,64,37
4,70,64,4
4,73,64,1
4,64,64,423
4,70,64,5
4,73,64,1
4,66,64,37
4,71,64,4
4,74,64,1
4,66,64,421
4,71,64,4
4,74,64,1
4,69,64,36
4,73,64,3
4,63,64,36
4,71,64,4
4,63,64,38
4,69,64,4
4,63,64,38
4,66,64,4
4,64,64,38
4,69,64,3
4,73,64,1
4,64,64,75
4,73,64,8
4,69,64,0
4,64,64,77
4,68,64,4
4,73,64,1
4,64,64,76
4,68,64,4
4,73,64,2
4,66,64,79
4,74,64,4
4,69,64,0
4,66,64,229
4,69,64,3
4,74,64,2
4,66,64,231
4,69,64,3
4,74,64,2
4,66,64,228
4,69,64,4
4,74,64,2
4,66,64,232
4,72,64,4
4,74,64,1
4,66,64,228
4,72,64,4
4,74,64,2
4,66,64,229
4,72,64,3
4,74,64,2
4,66,64,229
4,72,64,3
4,74,64,2
4,67,64,230
4,71,64,5
4,74,64,1
4,67,64,12
4,71,64,4
4,74,64,2
4,74,64,1107
4,67,64,16
4,71,64,4
4,74,64,2
4,67,64,15
4,71,64,4
4,74,64,1
4,74,64,1107
4,66,64,18
4,69,64,3
4,74,64,1
4,66,64,228
4,69,64,4
4,74,64,2
4,66,64,229
4,69,64,4
4,74,64,2
4,66,64,228
4,69,64,4
4,74,64,2
4,66,64,230
4,72,64,4
4,74,64,2
4,66,64,228
4,72,64,4
4,74,64,2
4,66,64,230
4,72,64,4
4,74,64,2
4,66,64,230
4,72,64,4
4,74,64,2
4,67,64,228
4,71,64,4
4,74,64,2
4,67,64,13
4,71,64,3
4,74,64,2
4,74,64,1110
4,67,64,17
4,71,64,4
4,74,64,2
4,67,64,16
4,71,64,4
4,74,64,1
4,74,64,918
4,76,64,16
4,74,64,15
4,66,64,20
4,74,64,2
4,69,64,0
4,66,64,228
4,69,64,4
4,74,64,2
4,66,64,227
4,69,64,4
4,74,64,2
4,66,64,229
4,69,64,4
4,74,64,2
4,66,64,228
4,72,64,5
4,74,64,1
4,66,64,229
4,72,64,3
4,74,64,2
4,66,64,232
4,72,64,4
4,74,64,1
4,66,64,233
4,72,64,4
4,74,64,1
4,67,64,229
4,71,64,4
4,74,64,3
4,67,64,12
4,71,64,3
4,74,64,2
4,74,64,1108
4,67,64,16
4,71,64,4
4,74,64,1
4,67,64,16
4,71,64,4
4,74,64,2
4,62,64,340
4,74,64,4
4,62,64,16
4,74,64,4
4,62,64,39
4,74,64,4
4,64,64,38
4,76,64,4
4,66,64,40
4,78,64,3
4,67,64,40
4,79,64,3
4,55,64,233
4,67,64,4
5,45,88,0
5,45,88,121
5,44,88,40
5,44,88,120
5,42,88,40
5,42,88,120
5,40,88,40
5,40,88,123
5,45,88,40
5,45,88,56
5,45,88,19
5,45,88,40
5,44,88,40
5,44,88,56
5,44,88,19
5,44,88,40
5,42,88,39
5,42,88,56
5,42,88,19
5,42,88,40
5,40,88,40
5,40,88,56
5,40,88,19
5,45,88,85
5,45,88,58
5,45,88,18
5,44,88,236
5,44,88,59
5,44,88,18
5,42,88,237
5,42,88,60
5,42,88,18
5,40,88,237
5,40,88,59
5,40,88,18
5,45,88,236
5,45,88,121
5,44,88,40
5,44,88,120
5,42,88,39
5,42,88,120
5,40,88,40
5,40,88,82
5,45,88,86
5,45,88,58
5,45,88,18
5,44,88,237
5,44,88,59
5,44,88,20
5,42,88,239
5,42,88,59
5,42,88,19
5,40,88,237
5,40,88,56
5,40,88,19
5,45,88,236
5,45,88,120
5,44,88,39
5,44,88,121
5,42,88,40
5,42,88,120
5,42,88,39
5,35,88,81
5,47,88,86
5,47,88,59
5,47,88,17
5,42,88,237
5,42,88,57
5,42,88,16
5,47,88,238
5,47,88,59
5,47,88,18
5,42,88,238
5,42,88,56
5,42,88,15
5,47,88,238
5,47,88,59
5,47,88,17
5,47,88,238
5,47,88,235
5,45,88,234
5,45,88,122
5,44,88,43
5,44,88,120
5,42,88,40
5,42,88,120
5,40,88,40
5,40,88,81
5,45,88,85
5,45,88,59
5,45,88,18
5,44,88,235
5,44,88,59
5,44,88,18
5,42,88,237
5,42,88,59
5,42,88,19
5,40,88,237
5,40,88,60
5,40,88,18
5,45,88,237
5,45,88,121
5,44,88,40
5,44,88,122
5,42,88,40
5,42,88,120
5,40,88,40
5,40,88,81
5,45,88,85
5,45,88,60
5,45,88,16
5,44,88,236
5,44,88,59
5,44,88,18
5,42,88,237
5,42,88,60
5,42,88,18
5,40,88,236
5,40,88,57
5,40,88,19
5,45,88,236
5,45,88,120
5,44,88,40
5,44,88,120
5,42,88,40
5,42,88,121
5,42,88,40
5,35,88,81
5,47,88,86
5,47,88,59
5,47,88,18
5,42,88,238
5,42,88,56
5,42,88,17
