track,note,velocity,time
3,43,127,3286
3,43,0,655
3,43,127,17
3,43,0,96
3,38,127,0
3,38,0,364
3,38,127,20
3,43,127,192
3,38,0,11
3,43,0,69
3,43,127,16
3,43,0,86
3,31,127,10
3,31,0,192
3,31,127,0
3,31,0,179
3,31,127,13
3,31,0,176
3,31,127,16
3,38,127,192
3,31,0,6
3,38,0,366
3,31,127,12
3,43,127,192
3,31,0,14
3,43,0,82
3,42,127,0
3,42,0,85
3,40,127,11
3,40,0,178
3,40,127,14
3,45,127,192
3,40,0,8
3,45,0,266
3,45,127,14
3,38,127,96
3,45,0,5
3,38,0,377
3,31,127,2
3,31,0,214
3,43,127,26
3,42,127,96
3,43,0,4
3,40,127,44
3,42,0,2
3,40,0,176
3,40,127,14
3,33,127,192
3,40,0,4
3,33,0,259
3,33,127,25
3,38,127,96
3,33,0,7
3,38,0,358
3,43,127,403
3,43,0,366
3,43,127,17
3,42,127,288
3,43,0,6
3,40,127,42
3,42,0,7
3,38,127,41
3,40,0,5
3,38,0,378
3,38,127,97
3,42,127,48
3,38,0,1
3,42,0,46
3,43,127,1
3,38,127,144
3,43,0,3
3,43,127,45
3,38,0,4
3,43,0,367
3,43,127,13
3,42,127,288
3,43,0,2
3,40,127,46
3,42,0,12
3,38,127,36
3,40,0,6
3,43,127,378
3,38,0,2
3,43,0,179
3,43,127,11
3,43,0,96
3,42,127,0
3,40,127,96
3,42,0,2
3,40,0,142
3,40,125,0
3,40,0,48
3,40,127,0
3,47,127,144
3,40,0,3
3,45,127,45
3,47,0,7
3,45,0,118
3,45,127,19
3,45,0,38
3,45,127,10
3,45,0,140
3,40,127,4
3,38,127,48
3,40,0,7
3,38,0,162
3,38,127,23
3,43,127,192
3,38,0,11
3,43,0,166
3,43,127,15
3,43,0,88
3,43,127,8
3,43,0,48
3,42,127,0
3,42,0,42
3,40,127,6
3,40,0,136
3,40,127,8
3,40,0,32
3,40,127,16
3,47,127,144
3,40,0,1
3,45,127,47
3,47,0,8
3,45,0,118
3,45,127,18
3,45,0,34
3,45,127,14
3,40,127,144
3,45,0,3
3,38,127,45
3,40,0,3
3,38,0,373
3,43,127,392
3,43,0,127
3,43,127,17
3,43,0,39
3,43,127,9
3,43,0,143
3,38,127,1
3,43,127,48
3,38,0,6
3,43,0,118
3,43,127,20
3,43,0,39
3,43,127,9
3,42,127,96
3,43,0,6
3,40,127,42
3,42,0,9
3,38,127,39
3,40,0,6
3,38,0,119
3,38,127,20
3,38,0,36
3,38,127,11
3,33,127,144
3,38,0,2
3,33,0,44
3,38,127,2
3,38,0,144
3,43,127,1
3,43,0,47
3,43,127,0
3,43,0,144
3,38,127,0
3,43,127,49
3,38,0,8
3,43,0,120
3,43,127,16
3,43,0,39
3,43,127,8
3,38,127,144
3,43,0,2
3,43,127,46
3,38,0,8
3,43,0,118
3,43,127,18
3,43,0,41
3,43,127,7
3,42,127,96
3,43,0,7
3,40,127,41
3,42,0,12
3,38,127,36
3,40,0,2
3,38,0,122
3,38,127,21
3,38,0,38
3,38,127,10
3,38,0,137
3,38,127,6
3,38,0,48
3,43,127,0
3,43,0,190
3,43,127,2
3,42,127,96
3,43,0,15
3,42,0,73
3,40,127,8
3,40,0,118
3,40,127,26
3,40,0,41
3,40,127,7
3,47,127,144
3,40,0,9
3,45,127,39
3,47,0,2
3,45,0,130
3,45,127,12
3,45,0,45
3,45,127,3
3,47,127,96
3,45,0,5
3,48,127,43
3,47,0,5
3,38,127,43
3,48,0,5
3,38,0,116
3,38,127,23
3,38,0,48
3,38,122,1
3,38,0,143
3,38,127,0
3,38,0,40
3,43,127,8
3,43,0,133
3,43,127,11
3,43,0,37
3,43,127,11
3,43,0,96
3,43,127,0
3,43,0,48
3,42,127,0
3,42,0,47
3,40,127,1
3,40,0,129
3,40,127,15
3,40,0,38
3,40,127,10
3,47,127,144
3,40,0,9
3,45,127,39
3,47,0,2
3,45,0,124
3,45,127,18
3,45,0,44
3,45,127,4
3,47,127,96
3,45,0,8
3,48,127,40
3,47,0,12
3,38,127,36
3,48,0,3
3,38,0,377
3,43,127,388
3,43,0,127
3,43,127,17
3,43,0,39
3,43,127,10
3,43,0,143
3,38,127,0
3,43,127,48
3,38,0,5
3,43,0,119
3,43,127,20
3,43,0,39
3,43,127,9
3,42,127,96
3,43,0,6
3,40,127,42
3,42,0,9
3,38,127,39
3,40,0,6
3,38,0,120
3,38,127,18
3,38,0,37
3,38,127,11
3,33,127,144
3,38,0,3
3,33,0,43
3,38,127,3
3,38,0,143
3,43,127,0
3,43,0,48
3,43,127,0
3,43,0,144
3,38,127,0
3,43,127,48
3,38,0,9
3,43,0,120
3,43,127,16
3,43,0,38
3,43,127,9
3,38,127,144
3,43,0,3
3,43,127,46
3,38,0,7
3,43,0,118
3,43,127,18
3,43,0,41
3,43,127,7
3,42,127,96
3,43,0,7
3,40,127,41
3,42,0,12
3,38,127,36
3,40,0,1
3,38,0,123
3,38,127,20
3,38,0,39
3,38,127,9
3,38,0,138
3,38,127,6
3,38,0,48
3,43,127,1
3,43,0,188
3,43,127,3
3,43,0,96
3,42,127,0
3,42,0,88
3,40,127,8
3,40,0,119
3,40,127,25
3,40,0,41
3,40,127,7
3,47,127,144
3,40,0,9
3,45,127,40
3,47,0,1
3,45,0,130
3,45,127,12
3,45,0,45
3,45,127,3
3,47,127,96
3,45,0,5
3,48,127,43
3,47,0,5
3,38,127,43
3,48,0,5
3,38,0,116
3,38,127,23
3,38,0,48
3,38,127,0
3,38,0,144
3,38,127,0
3,38,0,40
3,43,127,8
3,43,0,133
3,43,127,11
3,43,0,38
3,43,127,10
3,43,0,96
3,43,127,0
3,43,0,47
3,42,127,1
3,42,0,48
3,40,127,0
3,40,0,129
3,40,127,15
3,40,0,38
3,40,127,11
3,47,127,143
3,40,0,10
3,45,127,38
3,47,0,2
3,45,0,124
3,45,127,18
3,45,0,44
3,45,127,4
3,47,127,96
3,45,0,8
3,48,127,40
3,47,0,12
3,38,127,36
3,48,0,3
3,38,0,377
3,43,127,388
3,43,0,128
3,43,127,16
3,43,0,39
3,43,127,9
3,43,0,143
3,38,127,1
3,43,127,48
3,38,0,5
3,43,0,119
3,43,127,20
3,43,0,39
3,43,127,10
3,42,127,95
3,43,0,6
3,40,127,42
3,42,0,9
3,38,127,39
3,40,0,6
3,38,0,120
3,38,127,18
3,38,0,37
3,38,127,11
3,33,127,144
3,38,0,2
3,33,0,45
3,38,127,2
3,38,0,143
3,43,127,1
3,43,0,47
3,43,127,0
3,43,0,144
3,38,127,0
3,43,127,48
3,38,0,9
3,43,0,120
3,43,127,15
3,43,0,39
3,43,127,9
3,38,127,144
3,43,0,3
3,43,127,45
3,38,0,8
3,43,0,118
3,43,127,18
3,43,0,41
3,43,127,7
3,42,127,96
3,43,0,7
3,40,127,41
3,42,0,12
3,38,127,36
3,40,0,1
3,38,0,123
3,38,127,20
3,38,0,39
3,38,127,9
3,38,0,138
3,38,127,6
3,38,0,48
3,43,127,0
3,43,0,144
3,43,127,0
3,43,0,49
3,43,127,0
3,43,0,94
3,38,127,1
3,38,0,84
3,43,127,12
3,43,0,126
3,43,127,18
3,43,0,46
3,43,127,2
3,38,127,144
3,43,0,10
3,43,127,38
3,38,0,9
3,43,0,119
3,43,127,16
3,43,0,42
3,43,127,6
3,42,127,96
3,43,0,6
3,40,127,42
3,42,0,10
3,40,0,35
3,38,127,3
3,38,0,123
3,38,127,21
3,38,0,45
3,38,127,3
3,38,0,140
3,38,127,4
3,38,0,48
3,38,110,0
3,38,0,144
3,38,127,0
3,38,0,43
3,43,110,5
3,43,0,144
3,43,127,1
3,43,0,47
3,43,127,0
3,43,0,125
3,43,127,19
3,43,0,42
3,43,127,6
3,38,127,144
3,43,0,7
3,43,127,41
3,38,0,10
3,43,0,113
3,43,127,21
3,43,0,43
3,43,127,5
3,43,0,96
3,42,127,0
3,40,127,48
3,42,0,10
3,38,127,38
3,40,0,2
3,38,0,124
3,38,127,18
3,38,0,37
3,38,127,11
3,38,0,127
3,38,127,17
3,38,0,30
3,48,100,18
3,48,0,144
3,47,100,0
3,47,0,144
3,45,100,0
3,45,0,480
3,43,100,0
3,43,0,768
4,59,112,1755
4,62,112,4
4,66,98,10
4,59,0,77
4,62,0,1
4,55,112,0
4,66,0,7
4,55,0,41
4,62,112,1
4,62,0,92
4,55,112,3
4,55,0,48
4,62,112,1
4,62,0,46
4,66,102,2
4,55,100,48
4,66,0,5
4,57,112,43
4,55,0,3
4,57,0,45
4,61,110,2
4,61,0,44
4,66,101,2
4,66,0,90
4,61,112,6
4,61,0,47
4,62,112,1
4,62,0,96
4,50,112,0
4,57,112,48
4,50,0,5
4,57,0,42
4,62,112,0
4,62,0,47
4,66,105,2
4,66,0,90
4,64,112,5
4,66,102,49
4,64,0,7
4,66,0,88
4,66,111,1
4,60,110,0
4,66,0,143
4,60,0,0
4,57,86,49
4,60,86,0
4,64,86,0
4,57,0,95
4,64,0,0
4,60,0,1
4,57,88,0
4,66,88,3
4,60,88,0
4,57,0,92
4,66,0,0
4,60,0,0
4,43,120,5
4,50,108,43
4,43,0,10
4,55,112,37
4,50,0,11
4,59,116,38
4,55,0,4
4,62,120,44
4,59,0,17
4,67,112,30
4,62,0,7
4,59,112,42
4,67,0,1
4,59,0,45
4,62,124,1
4,43,104,48
4,62,0,11
4,50,112,38
4,43,0,1
4,55,108,47
4,50,0,12
4,55,0,34
4,59,108,2
4,62,120,48
4,59,0,29
4,67,112,19
4,62,0,6
4,59,108,42
4,67,0,3
4,62,108,44
4,59,0,7
4,50,96,42
4,62,0,3
4,57,120,45
4,50,0,6
4,62,116,41
4,57,0,8
4,66,100,41
4,62,0,7
4,69,116,40
4,66,0,9
4,62,116,40
4,69,0,3
4,62,0,45
4,66,120,0
4,62,120,47
4,66,0,8
4,62,0,40
4,50,108,1
4,57,120,48
4,50,0,4
4,60,112,44
4,57,0,6
4,66,120,42
4,60,0,37
4,66,0,10
4,55,124,1
4,59,112,48
4,55,0,7
4,62,116,41
4,67,116,47
4,59,0,3
4,62,0,7
4,43,108,39
4,67,0,4
4,50,108,43
4,43,0,8
4,55,112,41
4,50,0,14
4,55,0,27
4,59,108,7
4,62,108,47
4,59,0,41
4,67,108,8
4,62,0,4
4,67,0,44
4,59,120,0
4,59,0,47
4,62,120,0
4,62,0,48
4,43,108,1
4,50,108,48
4,43,0,1
4,55,108,47
4,50,0,13
4,55,0,27
4,59,108,8
4,62,120,48
4,59,0,9
4,67,100,39
4,62,0,3
4,67,0,39
4,59,112,6
4,62,124,48
4,59,0,25
4,50,108,23
4,62,0,4
4,57,120,43
4,50,0,9
4,60,116,40
4,57,0,4
4,66,100,44
4,60,0,27
4,69,120,20
4,66,0,12
4,69,0,35
4,60,112,2
4,60,0,46
4,66,116,1
4,60,116,48
4,66,0,19
4,60,0,26
4,50,108,4
4,55,108,48
4,50,0,7
4,59,104,41
4,55,0,1
4,62,104,47
4,59,0,10
4,67,124,38
4,62,0,79
4,67,0,12
4,59,112,5
4,62,120,0
4,66,100,0
4,59,0,77
4,62,0,7
4,66,0,6
4,52,112,6
4,55,124,47
4,52,0,10
4,59,120,39
4,55,0,3
4,59,0,44
4,64,116,1
4,59,116,47
4,64,0,10
4,68,104,39
4,59,0,1
4,62,120,46
4,68,0,13
4,68,120,35
4,62,0,9
4,68,0,36
4,57,120,4
4,60,108,47
4,57,0,23
4,64,124,26
4,60,0,2
4,60,112,46
4,64,0,1
4,60,0,42
4,69,124,5
4,64,116,48
4,69,0,4
4,59,116,44
4,64,0,1
4,60,120,47
4,59,0,5
4,50,112,43
4,60,0,3
4,57,124,44
4,50,0,9
4,60,112,40
4,57,0,5
4,66,100,42
4,60,0,38
4,69,124,11
4,66,0,3
4,66,112,45
4,69,0,4
4,60,112,43
4,66,0,5
4,66,116,44
4,60,0,4
4,43,108,44
4,66,0,1
4,50,112,46
4,43,0,10
4,55,112,39
4,50,0,9
4,55,0,38
4,59,116,1
4,67,120,48
4,59,0,1
4,59,96,47
4,59,0,35
4,67,0,5
4,57,108,8
4,62,124,0
4,66,120,0
4,57,0,86
4,62,0,5
4,66,0,5
4,52,120,0
4,59,124,48
4,52,0,8
4,64,112,40
4,59,0,5
4,64,0,41
4,67,124,1
4,67,0,48
4,64,120,1
4,68,112,48
4,64,0,3
4,64,112,44
4,68,0,6
4,64,0,42
4,59,120,1
4,59,0,46
4,45,112,2
4,52,124,47
4,45,0,7
4,60,112,42
4,52,0,2
4,64,108,46
4,60,0,11
4,69,124,36
4,64,0,7
4,60,92,42
4,69,0,10
4,60,0,37
4,59,108,1
4,59,0,47
4,60,120,1
4,50,108,24
4,54,92,12
4,60,0,6
4,57,112,6
4,60,112,0
4,64,116,12
4,64,0,286
4,60,0,22
4,57,0,17
4,54,0,5
4,50,0,10
4,62,124,36
4,71,120,35
4,62,0,6
4,62,116,41
4,71,0,9
4,62,0,39
4,61,124,1
4,61,0,47
4,70,120,1
4,70,0,47
4,60,112,1
4,60,0,47
4,60,96,1
4,60,0,47
4,43,120,5
4,50,108,43
4,43,0,10
4,55,112,38
4,50,0,10
4,59,116,37
4,55,0,5
4,62,120,44
4,59,0,17
4,67,112,31
4,62,0,6
4,59,112,41
4,67,0,2
4,59,0,46
4,62,124,1
4,43,104,47
4,62,0,11
4,50,112,38
4,43,0,2
4,55,108,46
4,50,0,12
4,55,0,33
4,59,108,2
4,62,120,49
4,59,0,30
4,67,112,18
4,62,0,6
4,59,108,42
4,67,0,3
4,62,108,45
4,59,0,5
4,50,96,43
4,62,0,3
4,57,120,45
4,50,0,6
4,62,116,42
4,57,0,7
4,66,100,41
4,62,0,8
4,69,116,40
4,66,0,8
4,62,116,39
4,69,0,4
4,62,0,45
4,66,120,0
4,62,120,48
4,66,0,6
4,62,0,40
4,50,108,1
4,57,120,49
4,50,0,4
4,60,112,44
4,57,0,6
4,66,120,41
4,60,0,38
4,66,0,9
4,55,124,2
4,59,112,48
4,55,0,7
4,62,116,40
4,67,116,49
4,59,0,2
4,62,0,7
4,43,108,39
4,67,0,4
4,50,108,44
4,43,0,6
4,55,112,42
4,50,0,13
4,55,0,28
4,59,108,7
4,62,108,48
4,59,0,40
4,67,108,7
4,62,0,5
4,67,0,44
4,59,120,0
4,59,0,47
4,62,120,1
4,62,0,47
4,43,108,0
4,50,108,49
4,43,0,1
4,55,108,47
4,50,0,13
4,55,0,26
4,59,108,8
4,62,120,49
4,59,0,9
4,67,100,38
4,62,0,4
4,67,0,39
4,59,112,6
4,62,124,48
4,59,0,25
4,50,108,23
4,62,0,3
4,57,120,45
4,50,0,8
4,60,116,40
4,57,0,4
4,66,100,44
4,60,0,26
4,69,120,22
4,66,0,11
4,69,0,35
4,60,112,1
4,60,0,48
4,66,116,1
4,60,116,48
4,66,0,18
4,60,0,26
4,50,108,3
4,55,108,49
4,50,0,7
4,59,104,40
4,55,0,3
4,62,104,45
4,59,0,11
4,62,0,37
4,67,124,1
4,67,0,91
4,59,112,5
4,62,120,0
4,66,100,0
4,59,0,77
4,62,0,6
4,66,0,8
4,52,112,4
4,59,124,49
4,52,0,9
4,62,120,39
4,59,0,3
4,64,116,45
4,62,0,12
4,71,116,36
4,64,0,9
4,68,104,39
4,71,0,1
4,62,120,47
4,68,0,12
4,68,120,35
4,62,0,9
4,68,0,36
4,57,120,4
4,60,108,48
4,57,0,22
4,64,124,25
4,60,0,3
4,60,112,46
4,64,0,1
4,60,0,42
4,69,124,5
4,64,116,47
4,69,0,5
4,59,116,44
4,64,0,1
4,60,120,47
4,59,0,5
4,50,112,42
4,60,0,3
4,57,124,46
4,50,0,8
4,60,112,40
4,57,0,6
4,66,100,42
4,60,0,37
4,69,124,11
4,66,0,3
4,66,112,45
4,69,0,4
4,60,112,44
4,66,0,4
4,66,116,43
4,60,0,5
4,43,108,44
4,66,0,2
4,50,112,46
4,43,0,9
4,55,112,38
