track,note,velocity,time
0,35,102,0
0,67,123,25
0,74,118,0
0,79,118,0
0,40,119,0
0,82,75,16
0,82,75,61
0,62,78,25
0,62,102,13
0,62,101,11
0,82,71,21
0,82,85,90
0,35,109,26
0,35,109,7
0,67,118,7
0,40,115,0
0,79,107,0
0,74,121,1
0,82,75,15
0,74,33,33
0,40,101,32
0,82,81,16
0,35,76,1
0,40,113,1
0,35,74,29
0,82,79,16
0,40,118,15
0,82,70,22
0,35,118,11
0,67,127,6
0,40,115,0
0,61,53,0
0,74,126,0
0,79,126,0
0,82,89,16
0,82,99,64
0,79,100,5
0,82,65,0
0,73,100,6
0,72,90,3
0,82,85,16
0,70,100,28
0,62,102,0
0,62,102,7
0,62,102,0
0,82,85,16
0,62,102,6
0,35,104,16
0,35,114,3
0,67,116,16
0,74,100,0
0,79,102,0
0,40,115,0
0,82,75,16
0,40,108,64
0,40,110,1
0,82,77,0
0,39,89,14
0,35,97,16
0,82,75,0
0,67,85,19
0,70,94,3
0,40,108,0
0,72,100,4
0,73,100,4
0,35,119,0
0,72,100,10
0,82,59,0
0,70,96,12
0,40,119,0
0,43,103,6
0,43,127,0
0,31,88,0
0,59,77,0
0,82,89,0
0,40,95,38
0,59,76,0
0,82,93,35
0,43,84,20
0,31,77,0
0,35,80,0
0,59,67,0
0,38,84,7
0,38,112,0
0,26,77,0
0,35,72,0
0,59,67,3
0,82,65,0
0,41,93,34
0,41,112,0
0,29,86,0
0,35,80,0
0,40,19,32
0,59,79,0
0,82,67,1
0,43,89,13
0,43,119,0
0,31,82,0
0,35,73,0
0,59,78,0
0,59,87,1
0,82,75,6
0,40,81,6
0,59,77,0
0,82,69,42
0,43,94,24
0,43,114,0
0,31,87,0
0,35,63,0
0,59,76,0
0,38,84,5
0,38,102,0
0,26,77,0
0,35,60,0
0,59,95,5
0,35,60,5
0,82,75,0
0,41,91,9
0,41,121,0
0,29,84,0
0,59,91,0
0,35,63,23
0,40,81,0
0,82,71,2
0,43,93,9
0,43,124,0
0,31,86,0
0,35,74,0
0,57,43,0
0,40,17,11
0,59,76,0
0,82,70,18
0,40,91,40
0,59,70,0
0,82,100,24
0,79,97,6
0,82,83,0
0,43,95,12
0,43,116,0
0,31,88,0
0,35,64,0
0,59,76,0
0,38,95,4
0,82,100,0
0,38,66,0
0,26,88,0
0,35,61,0
0,40,17,2
0,62,102,0
0,79,100,2
0,62,49,0
0,82,79,0
0,41,91,7
0,41,124,0
0,29,84,0
0,35,57,0
0,59,53,0
0,40,71,25
0,59,75,0
0,73,100,2
0,82,77,0
0,43,84,7
0,70,91,0
0,43,119,0
0,31,77,0
0,35,53,0
0,72,100,2
0,59,78,0
0,74,102,2
0,72,100,16
0,82,73,0
0,72,100,29
0,40,79,0
0,59,77,0
0,82,75,20
0,43,95,24
0,74,100,0
0,43,88,0
0,31,88,0
0,59,78,0
0,38,84,2
0,70,100,0
0,38,88,0
0,26,77,0
0,35,73,0
0,66,82,2
0,40,36,0
0,59,71,0
0,41,93,2
0,41,110,0
0,29,86,0
0,37,73,0
0,82,81,0
0,46,95,2
0,46,127,0
0,34,88,0
0,35,77,0
0,59,80,0
0,45,94,10
0,45,114,0
0,33,87,0
0,35,78,0
0,37,92,0
0,40,29,0
0,82,81,2
0,41,58,2
0,41,126,0
0,29,51,0
0,35,42,0
0,43,94,7
0,43,127,0
0,31,87,0
0,35,52,0
0,59,51,0
0,82,75,2
0,40,81,41
0,59,82,0
0,82,75,40
0,43,94,18
0,43,106,0
0,31,87,0
0,35,46,0
0,59,57,0
0,38,73,7
0,38,102,0
0,26,66,0
0,35,52,0
0,40,37,2
0,59,52,0
0,82,71,2
0,41,94,7
0,41,121,0
0,29,87,0
0,35,47,0
0,59,98,0
0,40,42,3
0,35,46,2
0,82,85,0
0,43,93,3
0,43,127,0
0,31,86,0
0,35,78,0
0,58,94,16
0,59,70,0
0,60,28,9
0,62,55,2
0,37,59,0
0,58,62,4
0,82,75,0
0,35,66,10
0,37,79,0
0,40,77,0
0,59,72,0
0,82,81,9
0,43,84,26
0,43,124,0
0,31,77,0
0,59,65,0
0,38,73,5
0,73,100,0
0,38,108,0
0,26,66,0
0,35,60,0
0,72,100,7
0,70,92,2
0,45,84,0
0,67,90,2
0,82,79,0
0,65,86,2
0,62,86,8
0,41,81,4
0,61,89,0
0,41,127,0
0,29,74,0
0,35,61,0
0,43,74,0
0,59,73,0
0,60,88,3
0,58,87,16
0,40,17,0
0,59,74,0
0,55,84,2
0,82,70,0
0,62,99,9
0,43,93,0
0,74,75,0
0,74,84,0
0,43,127,0
0,31,86,0
0,74,87,0
0,35,65,0
0,57,39,0
0,67,82,5
0,79,77,0
0,79,84,0
0,55,43,0
0,60,57,0
0,62,64,0
0,67,47,0
0,79,88,0
0,59,77,0
0,82,89,14
0,40,68,43
0,59,86,0
0,82,65,7
0,43,95,29
0,43,127,0
0,31,88,0
0,35,66,0
0,59,98,0
0,38,84,4
0,38,121,0
0,26,77,0
0,35,65,0
0,40,29,2
0,59,80,0
0,82,85,2
0,73,68,2
0,74,96,5
0,41,93,0
0,85,39,0
0,86,79,0
0,85,75,0
0,86,85,0
0,41,127,0
0,29,86,0
0,85,69,0
0,86,89,0
0,35,59,0
0,59,103,0
0,40,17,24
0,82,85,1
0,43,95,9
0,84,80,0
0,84,85,0
0,43,127,0
0,31,88,0
0,58,56,0
0,64,70,0
0,69,73,0
0,84,90,0
0,35,66,0
0,72,70,0
0,59,87,15
0,82,75,18
0,40,67,43
0,59,84,0
0,62,61,0
0,62,86,7
0,62,102,10
0,82,77,1
0,70,77,5
0,67,72,3
0,43,93,0
0,43,127,0
0,31,86,0
0,35,70,0
0,59,75,0
0,66,106,5
0,38,67,0
0,38,126,0
0,26,60,0
0,58,40,0
0,64,64,0
0,66,59,0
0,35,64,0
0,40,37,2
0,59,68,0
0,82,75,2
0,41,94,10
0,41,127,0
0,29,87,0
0,35,68,0
0,40,18,0
0,59,89,0
0,37,51,10
0,40,36,0
0,82,59,0
0,79,65,4
0,79,81,0
0,79,82,0
0,69,61,4
0,70,82,4
0,43,95,0
0,43,127,0
0,31,88,0
0,35,63,0
0,37,85,0
0,81,69,2
0,81,82,0
0,81,84,0
0,82,117,2
0,82,94,0
0,60,50,0
0,65,65,0
0,67,67,0
0,82,108,0
0,59,77,0
0,82,89,16
0,77,84,9
0,89,83,0
0,89,86,0
0,89,91,0
0,40,77,28
0,59,53,0
0,59,62,6
0,82,93,0
0,43,86,24
0,43,127,0
0,31,79,0
0,35,67,0
0,38,66,7
0,38,126,0
0,26,59,0
0,35,63,0
0,59,74,2
0,82,65,2
0,40,37,1
0,68,65,8
0,69,69,5
0,41,86,0
0,41,127,0
0,29,79,0
0,69,69,0
0,35,59,0
0,59,71,0
0,40,17,15
0,82,67,2
0,66,65,4
0,67,88,3
0,43,91,0
0,43,127,0
0,31,84,0
0,55,69,0
0,67,9,0
0,35,67,0
0,61,63,0
0,35,52,6
0,55,19,2
0,59,73,0
0,58,45,4
0,82,75,0
0,55,4,6
0,57,84,8
0,40,71,0
0,59,82,0
0,55,80,5
0,60,57,0
0,82,69,9
0,43,84,12
0,43,127,0
0,31,77,0
0,35,78,0
0,40,22,0
0,59,82,0
0,38,71,3
0,38,119,0
0,26,64,0
0,60,62,0
0,59,91,2
0,41,63,2
0,41,114,0
0,29,56,0
0,35,55,0
0,40,17,0
0,82,75,0
0,46,91,2
0,46,127,0
0,34,84,0
0,35,75,0
0,40,17,0
0,59,113,0
0,45,84,8
0,45,127,0
0,33,77,0
0,35,78,0
0,40,31,0
0,45,105,0
0,43,96,2
0,82,71,0
0,41,66,2
0,41,112,0
0,29,59,0
0,35,62,0
0,43,91,5
0,43,127,0
0,31,84,0
0,35,82,0
0,49,47,0
0,59,54,0
0,82,70,2
0,40,85,40
0,59,91,0
0,31,88,23
0,82,83,13
0,43,77,21
0,43,124,0
0,31,70,0
0,35,78,0
0,40,21,0
0,59,86,0
0,38,60,5
0,38,112,0
0,26,53,0
0,35,73,0
0,40,17,2
0,59,86,0
0,79,100,2
0,82,79,0
0,82,98,8
0,41,73,3
0,79,100,0
0,41,127,0
0,29,66,0
0,35,56,0
0,59,98,0
0,40,27,15
0,82,77,2
0,43,79,10
0,43,119,0
0,31,72,0
0,67,91,0
0,79,103,0
0,35,65,0
0,58,75,16
0,59,83,0
0,60,59,5
0,62,51,2
0,58,84,6
0,82,73,0
0,55,84,5
0,73,100,16
0,40,78,0
0,59,100,0
0,72,100,6
0,70,91,16
0,72,100,2
0,82,75,0
0,43,86,5
0,70,100,0
0,43,126,0
0,31,79,0
0,35,62,0
0,59,90,0
0,38,61,1
0,38,114,0
0,26,54,0
0,35,64,0
0,40,17,2
0,43,54,0
0,59,70,0
0,82,81,2
0,40,19,6
0,41,73,8
0,41,127,0
0,29,66,0
0,35,63,0
0,41,74,0
0,59,85,0
0,40,17,19
0,62,100,0
0,62,100,2
0,82,81,0
0,55,50,2
0,62,91,1
0,43,84,0
0,74,88,0
0,74,87,0
0,43,127,0
0,31,77,0
0,74,94,0
0,35,72,0
0,67,72,4
0,79,85,0
0,79,86,0
0,55,45,0
0,60,63,0
0,62,64,0
0,67,54,0
0,79,92,0
0,59,75,0
0,82,75,3
0,40,85,39
0,59,101,0
0,82,75,3
0,43,79,25
0,43,127,0
0,31,72,0
0,35,83,0
0,59,83,0
0,38,60,6
0,38,127,0
0,26,53,0
0,35,73,0
0,40,33,2
0,59,82,0
0,82,71,2
0,73,98,3
0,74,88,0
0,41,77,0
0,86,103,0
0,86,91,0
0,41,127,0
0,29,70,0
0,86,101,0
0,35,67,0
0,40,21,0
0,59,95,0
0,40,17,6
0,82,85,1
0,72,60,13
0,43,89,0
0,84,103,0
0,84,91,0
0,43,127,0
0,31,82,0
0,58,31,0
0,64,71,0
0,69,76,0
0,84,101,0
0,35,68,0
0,59,103,5
0,82,75,23
0,40,71,44
0,59,68,0
0,82,81,34
0,70,65,10
0,69,66,8
0,43,77,8
0,43,127,0
0,31,70,0
0,35,63,0
0,59,66,0
0,67,66,2
0,66,95,3
0,38,63,0
0,38,121,0
0,26,56,0
0,66,82,0
0,35,56,0
0,40,25,22
0,59,69,0
0,60,86,0
0,82,79,4
0,41,84,7
0,41,127,0
0,29,77,0
0,35,72,0
0,40,23,0
0,59,75,0
0,60,84,0
0,60,88,0
0,35,54,5
0,82,70,0
0,67,65,8
0,79,100,1
0,79,90,0
0,79,100,0
0,69,48,1
0,43,93,0
0,43,127,0
0,31,86,0
0,35,72,0
0,81,97,4
0,81,89,0
0,81,98,0
0,70,114,1
0,82,117,0
0,82,94,0
0,60,48,0
0,65,59,0
0,67,62,0
0,82,108,0
0,59,80,0
0,82,89,21
0,77,61,11
0,89,82,0
0,89,86,0
0,89,91,0
0,40,78,28
0,59,78,0
0,37,59,20
0,82,65,16
0,43,63,17
0,43,127,0
0,31,56,0
0,35,80,0
0,59,76,0
0,38,57,5
0,38,127,0
0,26,50,0
0,35,66,0
0,37,45,0
0,55,48,5
0,40,42,0
0,59,68,0
0,58,84,4
0,82,85,0
0,55,1,4
0,68,73,1
0,69,81,1
0,41,71,0
0,57,84,0
0,41,127,0
0,29,64,0
0,69,92,0
0,35,75,0
0,59,76,0
0,55,84,4
0,40,27,0
0,82,85,3
0,66,75,9
0,43,89,3
0,43,127,0
0,31,82,0
0,55,19,0
0,61,37,0
0,67,64,0
0,35,70,0
0,57,39,0
0,67,86,8
0,59,74,2
0,82,75,25
0,40,95,2
0,59,67,0
0,82,77,6
0,43,89,27
0,43,127,0
0,31,82,0
0,35,73,0
0,59,76,0
0,38,63,3
0,38,121,0
0,26,56,0
0,35,56,0
0,59,84,10
0,41,66,6
0,41,126,0
0,29,59,0
0,82,75,0
0,46,88,7
0,46,127,0
0,34,81,0
0,35,61,0
0,43,116,0
0,59,75,0
0,45,64,6
0,45,127,0
0,33,57,0
0,35,66,0
0,40,27,0
0,43,91,0
0,59,79,3
0,82,59,0
0,37,65,5
0,77,113,6
0,65,95,0
0,89,115,0
0,89,94,0
0,41,119,0
0,29,77,0
0,65,86,0
0,89,107,0
0,35,54,0
0,76,99,1
0,64,60,0
0,88,101,0
0,88,90,0
0,43,121,0
0,28,53,0
0,64,70,0
0,88,100,0
0,35,66,0
0,49,49,0
0,59,66,24
0,82,89,2
0,69,90,5
0,57,81,0
0,81,75,0
0,81,84,0
0,33,74,0
0,57,74,0
0,81,87,0
0,35,70,0
0,59,79,13
0,85,41,3
0,85,75,0
0,85,70,0
0,74,93,1
0,62,86,1
0,86,97,0
0,86,89,0
0,26,79,0
0,62,86,0
0,86,98,0
0,35,61,0
0,40,66,0
0,82,93,6
0,71,93,2
0,59,93,1
0,83,76,0
0,83,84,0
0,23,86,0
0,59,81,0
0,83,88,0
0,35,57,0
0,57,45,0
0,59,87,21
0,82,65,5
0,57,80,9
0,69,84,3
0,81,74,0
0,81,84,0
0,81,87,0
0,55,71,5
0,79,47,3
0,79,77,0
0,79,73,0
0,67,76,1
0,64,86,3
0,52,93,0
0,76,71,0
0,76,83,0
0,28,86,0
0,52,68,0
0,83,85,0
0,35,49,0
0,52,48,0
0,59,83,0
0,82,67,38
0,59,87,13
0,82,75,6
0,35,49,1
0,40,31,0
0,59,77,0
0,82,69,7
0,59,76,8
0,58,117,10
0,70,60,0
0,70,80,0
0,70,80,0
0,35,78,0
0,59,95,9
0,60,107,8
0,72,64,0
0,72,81,0
0,72,82,0
0,35,86,0
0,82,75,0
0,62,125,28
0,74,89,0
0,74,87,0
0,74,94,0
0,35,88,0
0,37,48,0
0,59,91,0
0,67,123,23
0,74,125,0
0,79,118,0
0,35,111,0
0,37,95,0
0,82,71,0
0,59,76,12
0,82,70,40
0,35,73,40
0,40,84,0
0,59,70,0
0,69,49,24
0,82,83,5
0,35,82,25
0,59,76,0
0,58,86,8
0,35,61,0
0,60,62,16
0,62,58,5
0,40,37,0
0,58,52,3
0,82,79,0
0,55,38,2
0,53,15,2
0,35,80,0
0,59,53,0
0,50,35,3
0,48,32,4
0,40,21,0
0,43,82,0
0,59,75,0
0,62,102,0
0,46,49,3
0,55,99,0
0,60,93,0
0,67,99,0
0,62,102,0
0,82,77,0
0,45,24,3
0,62,102,0
0,44,43,5
0,43,41,1
0,55,107,0
0,62,110,0
0,67,103,0
0,35,77,0
0,59,78,0
0,55,79,3
0,60,80,0
0,67,80,0
0,82,73,16
0,55,93,24
0,60,81,0
0,67,92,0
0,35,85,0
0,40,52,10
0,59,77,0
0,43,93,20
0,74,60,0
0,82,75,10
0,79,99,24
0,59,78,0
0,82,100,8
0,59,71,15
0,82,100,6
0,82,81,0
0,82,100,15
0,59,80,0
0,79,100,15
0,58,53,0
0,82,81,16
0,31,84,23
0,67,118,0
0,74,123,0
0,79,116,0
0,35,74,0
0,59,51,0
0,31,88,1
0,67,125,0
0,74,125,0
0,79,118,0
0,35,69,0
0,82,75,13
0,40,52,1
0,59,82,0
0,82,75,2
0,59,57,25
0,35,49,10
0,59,52,18
0,62,43,0
0,35,49,9
0,82,71,0
0,59,98,42
0,60,38,0
0,43,86,22
0,62,82,0
0,55,110,10
0,60,94,0
0,67,105,0
0,82,85,0
0,55,107,33
0,61,92,0
0,67,103,0
0,35,55,0
0,59,70,0
0,55,92,11
0,60,92,0
0,67,94,0
0,82,75,16
0,55,105,25
0,60,84,0
0,67,99,0
0,59,72,16
0,39,102,26
0,82,81,6
0,29,41,26
0,35,68,0
0,59,65,0
0,26,50,7
0,35,61,0
0,39,102,0
0,73,100,13
0,82,79,0
0,72,100,7
0,70,85,8
0,67,92,5
0,29,54,0
0,35,49,0
0,59,73,0
0,72,94,1
0,70,93,3
0,59,74,0
0,67,87,5
0,82,70,0
0,62,99,8
0,74,75,0
0,65,77,0
0,74,84,0
0,74,87,0
0,35,70,0
0,67,82,5
0,43,95,0
0,79,77,0
0,79,84,0
