track,note,velocity,time
1,77,56,15968
1,76,52,28
1,74,50,28
1,72,54,16
1,71,57,16
1,69,61,16
1,67,61,16
1,65,65,12
1,64,66,4
1,62,66,12
1,60,70,8
1,59,68,16
1,57,70,12
1,55,68,12
1,53,68,12
1,52,70,12
1,50,68,12
1,48,72,8
1,47,72,8
1,45,75,8
1,43,75,8
1,41,72,4
1,40,78,8
1,38,66,32
1,50,60,0
1,57,71,0
1,62,76,0
1,66,75,0
1,38,57,216
1,50,60,192
1,54,61,192
1,57,65,0
1,54,71,240
1,57,76,0
1,62,65,0
1,47,60,384
1,59,61,0
1,62,70,0
1,66,72,0
1,50,60,812
1,54,70,0
1,59,56,0
1,59,78,168
1,47,47,384
1,50,56,20
1,54,44,192
1,59,60,0
1,47,44,152
1,38,65,88
1,57,61,0
1,62,71,0
1,66,71,0
1,45,44,184
1,50,54,96
1,54,56,0
1,57,64,0
1,45,52,64
1,50,57,192
1,50,56,12
1,54,63,0
1,62,65,0
1,45,46,36
1,50,33,192
1,50,42,40
1,57,46,0
1,45,33,48
1,47,54,116
1,59,61,0
1,62,66,0
1,66,75,0
1,59,57,48
1,66,58,0
1,59,54,52
1,62,65,0
1,47,47,232
1,50,60,192
1,50,60,72
1,54,71,0
1,59,64,0
1,47,39,44
1,50,54,192
1,50,50,16
1,54,52,0
1,59,50,0
1,47,46,92
1,40,64,84
1,52,61,0
1,55,70,0
1,59,68,0
1,62,61,0
1,40,56,24
1,43,48,384
1,47,57,0
1,52,72,0
1,55,76,192
1,59,83,0
1,55,54,28
1,52,65,80
1,55,68,0
1,62,78,0
1,40,33,4
1,47,46,0
1,52,61,96
1,59,72,0
1,47,44,64
1,43,48,84
1,52,61,0
1,55,61,0
1,58,65,0
1,62,59,0
1,43,47,172
1,40,56,268
1,52,71,0
1,52,70,104
1,55,75,0
1,58,61,0
1,52,60,40
1,55,64,0
1,58,75,0
1,40,57,92
1,52,72,0
1,55,72,0
1,58,66,0
1,62,75,0
1,40,50,208
1,52,52,12
1,58,46,0
1,40,52,124
1,38,61,52
1,50,60,0
1,54,66,0
1,57,68,0
1,61,63,0
1,50,39,184
1,38,54,536
1,50,58,136
1,47,59,32
1,50,54,0
1,54,71,0
1,57,72,0
1,59,71,0
1,50,56,128
1,54,66,0
1,47,56,156
1,50,56,0
1,54,52,0
1,57,56,0
1,59,56,0
1,40,65,220
1,52,66,0
1,55,75,0
1,59,72,0
1,62,64,0
1,52,60,4
1,40,41,336
1,45,75,52
1,50,65,0
1,55,72,0
1,59,81,0
1,45,61,132
1,52,68,192
1,57,75,0
1,61,72,0
1,45,56,28
1,57,70,4
1,61,75,0
1,64,72,0
1,38,33,68
1,57,70,140
1,61,75,0
1,64,75,0
1,57,68,152
1,62,75,0
1,66,78,0
1,38,52,960
1,57,56,112
1,38,50,192
1,57,52,44
1,64,61,0
1,50,36,288
1,57,66,80
1,61,75,0
1,64,72,0
1,57,71,108
1,61,78,0
1,64,75,0
1,57,71,152
1,62,78,0
1,66,78,0
1,38,49,116
1,50,42,264
1,57,36,0
1,57,60,16
1,66,72,0
1,50,39,288
1,62,61,144
1,50,50,44
1,38,45,56
1,57,68,0
1,61,75,0
1,64,76,0
1,57,68,152
1,61,75,0
1,64,76,0
1,57,68,184
1,62,78,0
1,66,75,0
1,50,33,672
1,38,60,156
1,50,34,72
1,50,33,688
1,38,50,12
1,57,65,0
1,61,72,0
1,64,75,0
1,57,70,108
1,61,75,0
1,64,76,0
1,38,61,4
1,59,66,0
1,62,75,0
1,66,78,0
1,40,57,88
1,52,56,0
1,55,66,0
1,59,75,0
1,62,76,0
1,64,65,0
1,40,45,92
1,52,54,192
1,59,78,192
1,59,64,52
1,62,81,0
1,59,65,56
1,62,72,0
1,64,81,0
1,59,72,100
1,62,81,0
1,67,78,0
1,59,68,68
1,64,83,0
1,59,70,104
1,62,86,0
1,55,66,16
1,58,72,0
1,62,72,0
1,64,64,0
1,58,86,540
1,62,81,48
1,64,76,84
1,67,78,112
1,64,57,88
1,64,78,60
1,62,83,208
1,38,61,64
1,50,50,0
1,54,63,0
1,57,72,0
1,61,71,0
1,54,47,80
1,57,65,0
1,61,58,0
1,54,63,100
1,57,72,0
1,61,71,0
1,50,44,112
1,54,61,300
1,57,70,0
1,59,66,0
1,61,46,0
1,54,61,248
1,57,68,0
1,59,66,0
1,61,61,0
1,55,57,416
1,59,61,0
1,62,46,0
1,64,47,0
1,55,60,68
1,59,64,0
1,62,61,0
1,64,65,0
1,55,65,192
1,59,81,0
1,62,81,0
1,64,81,0
1,45,78,68
1,55,72,0
1,59,78,0
1,62,81,0
1,55,61,56
1,62,66,0
1,45,58,60
1,55,68,116
1,59,72,0
1,62,71,0
1,45,61,156
1,57,72,0
1,61,78,0
1,64,78,0
1,38,65,160
1,50,61,0
1,57,66,0
1,62,76,0
1,66,78,0
1,38,50,144
1,50,52,192
1,57,71,192
1,62,78,192
1,66,78,0
1,38,64,12
1,50,61,0
1,57,71,0
1,62,75,0
1,66,72,0
1,39,61,132
1,51,61,16
1,55,61,0
1,58,71,0
1,63,70,0
1,40,64,112
1,52,64,0
1,55,65,0
1,59,66,0
1,64,66,0
1,40,53,40
1,52,46,288
1,55,53,192
1,55,48,44
1,59,57,0
1,40,53,108
1,55,64,0
1,59,71,0
1,64,72,0
1,59,33,148
1,52,44,76
1,38,71,16
1,50,65,16
1,57,71,0
1,62,76,0
1,66,75,0
1,39,61,84
1,51,65,8
1,55,65,0
1,58,78,0
1,63,72,0
1,40,71,72
1,52,66,0
1,55,68,0
1,59,75,0
1,64,70,0
1,40,60,12
1,52,47,192
1,55,57,192
1,55,58,72
1,59,65,0
1,64,61,0
1,40,61,328
1,52,44,96
1,55,57,24
1,59,60,0
1,64,56,0
1,38,65,332
1,50,57,0
1,57,72,0
1,62,76,0
1,66,75,0
1,51,61,72
1,55,65,0
1,58,75,0
1,63,75,0
1,39,63,8
1,40,68,88
1,52,61,0
1,55,71,0
1,59,76,0
1,64,71,0
1,40,64,76
1,52,61,192
1,55,60,0
1,55,72,164
1,64,65,0
1,59,86,176
1,40,60,64
1,55,53,0
1,64,47,0
1,55,71,144
1,64,76,0
1,52,53,4
1,59,78,28
1,40,59,48
1,52,57,0
1,55,78,156
1,52,60,128
1,55,78,112
1,40,60,64
1,38,68,64
1,50,65,0
1,57,72,0
1,62,78,0
1,66,78,0
1,38,46,20
1,50,46,180
1,62,66,96
1,66,72,0
1,69,78,0
1,38,52,4
1,66,50,96
1,66,71,180
1,50,39,160
1,47,65,36
1,59,68,0
1,62,78,0
1,66,75,0
1,47,56,44
1,47,58,32
1,59,71,32
1,62,72,0
1,69,72,0
1,47,61,288
1,59,61,184
1,40,70,60
1,52,64,0
1,59,72,0
1,62,78,0
1,64,76,0
1,67,66,0
1,40,54,24
1,52,44,96
1,59,65,52
1,62,75,0
1,64,76,0
1,67,61,0
1,52,56,0
1,59,56,168
1,62,59,0
1,64,60,0
1,52,59,160
1,45,75,56
1,57,72,0
1,61,78,0
1,64,78,0
1,67,68,0
1,38,56,1304
1,50,45,0
1,57,61,0
1,61,69,0
1,64,69,0
1,57,64,64
1,61,72,0
1,64,66,0
1,57,59,108
1,62,72,0
1,66,72,0
1,38,56,340
1,50,56,0
1,57,60,0
1,61,66,0
1,64,65,0
1,57,64,112
1,61,72,0
1,64,66,0
1,59,58,112
1,62,70,0
1,66,72,0
1,40,59,340
1,52,60,0
1,59,66,0
1,62,72,0
1,64,70,0
1,67,60,0
1,40,56,88
1,52,48,192
1,59,65,192
1,59,54,112
1,62,72,0
1,64,77,0
1,40,61,4
1,62,30,0
1,59,66,188
1,62,72,0
1,67,66,0
1,52,48,0
1,64,50,0
1,59,45,92
1,59,66,128
1,62,75,0
1,40,50,20
1,52,58,0
1,58,65,0
1,62,70,0
1,64,72,0
1,67,66,0
1,40,26,168
1,52,34,192
1,58,45,60
1,52,45,144
1,45,59,60
1,57,59,0
1,61,69,0
1,64,66,0
1,52,54,208
1,57,54,192
1,61,52,0
1,67,50,0
1,52,52,128
1,57,59,92
1,64,70,0
1,49,41,16
1,52,49,0
1,57,70,120
1,61,75,0
1,64,72,0
1,38,33,96
1,57,70,140
1,61,75,0
1,64,75,0
1,57,68,152
1,62,75,0
1,66,78,0
1,38,52,960
1,57,56,112
1,38,50,192
1,57,52,44
1,64,61,0
1,50,36,288
1,57,66,80
1,61,75,0
1,64,72,0
1,57,71,108
1,61,78,0
1,64,75,0
1,57,71,152
1,62,78,0
1,66,78,0
1,38,49,116
1,50,42,264
1,57,36,0
1,57,60,16
1,66,72,0
1,50,39,288
1,62,61,144
1,50,50,44
1,38,45,56
1,57,68,0
1,61,75,0
1,64,76,0
1,57,68,152
1,61,75,0
1,64,76,0
1,57,68,184
1,62,78,0
1,66,75,0
1,50,33,672
1,38,60,156
1,50,34,72
1,50,33,688
1,38,50,12
1,57,65,0
1,61,72,0
1,64,75,0
1,57,70,108
1,61,75,0
1,64,76,0
1,38,61,4
1,59,66,0
1,62,75,0
1,66,78,0
1,40,57,88
1,52,56,0
1,55,66,0
1,59,75,0
1,62,76,0
1,64,65,0
1,40,45,92
1,52,54,192
1,59,78,192
1,59,64,52
1,62,81,0
1,59,65,56
1,62,72,0
1,64,81,0
1,59,72,100
1,62,81,0
1,67,78,0
1,59,68,68
1,64,83,0
1,59,70,104
1,62,86,0
1,55,66,16
1,58,72,0
1,62,72,0
1,64,64,0
1,58,86,540
1,62,81,48
1,64,76,84
1,67,78,112
1,64,57,88
1,64,78,60
1,62,83,208
1,38,61,64
1,50,50,0
1,54,63,0
1,57,72,0
1,61,71,0
1,54,47,80
1,57,65,0
1,61,58,0
1,54,63,100
1,57,72,0
1,61,71,0
1,50,44,112
1,54,61,300
1,57,70,0
1,59,66,0
1,61,46,0
1,54,61,248
1,57,68,0
1,59,66,0
1,61,61,0
1,55,57,416
1,59,61,0
1,62,46,0
1,64,47,0
1,55,60,68
1,59,64,0
1,62,61,0
1,64,65,0
1,55,65,192
1,59,81,0
1,62,81,0
1,64,81,0
1,45,78,68
1,55,72,0
1,59,78,0
1,62,81,0
1,55,61,56
1,62,66,0
1,45,58,60
1,55,68,116
1,59,72,0
1,62,71,0
1,45,61,156
1,57,72,0
1,61,78,0
1,64,78,0
1,38,76,160
1,50,71,0
1,57,78,0
1,62,82,0
1,66,85,0
1,38,63,52
1,50,52,384
1,57,70,8
1,62,76,0
1,66,77,0
1,50,56,8
1,47,78,72
1,59,71,0
1,62,81,0
1,66,82,0
1,47,45,148
1,40,71,48
1,52,71,0
1,59,75,0
1,62,82,0
1,64,87,0
1,67,69,0
1,40,61,28
1,52,58,192
1,59,80,96
1,62,70,288
1,59,75,28
1,62,85,0
1,64,90,0
1,67,72,0
1,52,76,40
1,45,78,40
1,57,76,0
1,62,78,0
1,64,80,0
1,45,68,304
1,59,78,0
1,62,81,0
1,67,71,0
1,38,78,20
1,50,78,0
1,57,78,0
1,62,78,0
1,66,78,0
1,50,68,628
1,47,67,20
1,59,67,0
1,62,67,0
1,66,67,0
1,73,63,244
1,40,55,40
1,52,55,0
1,59,55,0
1,62,55,0
1,64,55,0
1,67,55,0
1,45,43,28
1,57,43,0
1,61,43,0
1,64,43,0
1,67,43,0
1,45,38,300
1,57,38,0
1,61,38,0
1,64,38,0
1,67,38,0
1,38,32,40
1,50,32,0
1,57,32,0
1,62,32,0
1,66,32,0
1,38,28,52
1,50,25,384
1,57,23,8
1,62,23,0
1,66,23,0
1,50,22,8
1,47,20,72
1,59,20,0
1,62,20,0
1,66,20,0
1,47,15,148
1,40,26,48
1,52,26,0
1,59,26,0
1,62,26,0
1,64,26,0
1,67,26,0
1,40,24,28
1,52,23,192
1,59,22,96
1,62,21,288
1,59,19,28
1,62,19,0
1,64,19,0
1,67,19,0
1,52,18,40
1,45,17,40
1,57,17,0
1,62,17,0
1,64,17,0
1,45,13,304
1,59,13,0
1,62,13,0
1,67,13,0
1,38,17,20
1,50,17,0
1,57,17,0
1,62,17,0
1,66,17,0
1,50,12,628
1,47,11,20
1,59,11,0
1,62,11,0
1,66,11,0
1,73,16,244
1,40,12,40
1,52,12,0
1,59,12,0
1,62,12,0
1,64,12,0
1,67,12,0
2,26,71,16476
2,26,61,80
2,33,68,36
2,33,61,44
2,26,68,40
2,26,68,100
2,28,61,44
2,30,64,48
2,26,71,52
2,26,61,52
2,33,71,40
2,33,68,52
2,26,68,48
2,26,68,60
2,28,61,32
2,30,68,44
2,23,75,60
2,23,68,56
2,30,68,36
2,30,68,44
2,23,68,52
2,23,68,76
2,28,68,48
2,30,68,40
2,23,71,40
2,23,64,56
2,30,75,40
2,30,68,56
2,23,71,48
2,23,68,116
2,28,64,44
2,30,64,32
2,26,71,36
2,26,64,60
2,33,71,36
2,33,68,48
2,26,64,44
2,26,71,100
2,28,64,52
2,30,61,32
2,26,64,48
2,26,61,72
2,33,68,40
2,33,64,32
2,26,68,32
2,26,64,120
2,28,68,44
2,30,61,24
2,23,68,44
2,23,64,68
2,30,64,44
2,30,68,52
2,23,68,44
2,23,64,128
2,28,68,40
2,30,64,20
2,23,64,52
2,23,61,72
2,30,68,40
2,30,68,56
2,23,68,40
2,23,68,128
2,28,64,40
2,30,64,28
2,28,64,48
2,28,61,84
2,35,68,28
2,35,68,24
2,28,64,44
2,28,64,92
2,33,68,44
2,35,64,20
2,28,68,20
2,28,61,68
2,35,71,32
2,35,68,60
2,28,64,36
2,28,68,152
2,40,68,24
2,38,64,20
2,28,71,44
2,28,61,92
2,40,68,28
2,40,64,36
2,28,68,52
2,28,68,136
2,33,68,40
2,34,68,36
2,28,68,44
2,28,61,80
2,40,61,32
2,40,61,40
2,28,61,40
2,28,64,108
2,33,64,40
2,34,68,32
2,26,68,64
2,26,58,84
2,33,68,32
2,33,61,32
2,26,61,32
2,26,64,116
2,33,68,32
2,35,61,40
2,23,56,56
2,23,56,124
2,30,61,24
2,30,75,48
2,23,61,40
2,23,68,104
2,28,64,36
2,30,61,32
2,28,64,56
2,28,64,80
2,35,64,36
2,35,64,52
2,28,68,32
2,28,64,104
2,35,75,36
2,28,71,40
2,33,68,48
2,33,75,76
2,28,64,40
2,28,64,12
2,33,71,28
2,28,64,92
2,33,71,56
2,31,64,12
2,33,71,96
2,26,76,56
2,26,65,80
2,33,73,36
2,33,65,44
2,26,73,40
2,26,74,100
2,28,65,44
2,30,70,48
2,26,76,52
2,26,65,52
2,33,76,40
2,33,74,52
2,26,74,48
2,26,74,60
2,28,65,32
2,30,74,44
2,23,80,60
2,23,73,56
2,30,74,36
2,30,74,44
2,23,74,52
2,23,73,76
2,28,73,48
2,30,73,40
2,23,76,40
2,23,70,56
2,30,80,40
2,30,74,56
2,23,76,48
2,23,74,116
2,28,70,44
2,30,70,32
2,26,76,36
2,26,69,60
2,33,76,36
2,33,74,48
2,26,70,44
2,26,76,100
2,28,70,52
2,30,65,32
2,26,69,48
2,26,65,72
2,33,74,40
2,33,70,32
2,26,73,32
2,26,70,120
2,28,73,44
2,30,65,24
2,23,74,44
2,23,69,68
2,30,70,44
2,30,73,52
2,23,73,44
2,23,70,128
2,28,73,40
2,30,70,20
2,23,70,52
2,23,65,72
2,30,73,40
2,30,73,56
2,23,73,40
2,23,73,128
2,28,70,40
2,30,70,28
2,28,69,48
2,28,65,84
2,35,74,28
2,35,73,24
2,28,70,44
2,28,69,92
2,33,74,44
2,35,70,20
2,28,73,20
2,28,65,68
2,35,76,32
2,35,74,60
2,28,69,36
2,28,74,152
2,40,73,24
2,38,69,20
2,28,76,44
2,28,65,92
2,40,74,28
2,40,70,36
2,28,73,52
2,28,73,136
2,33,74,40
2,34,73,36
2,28,73,44
2,28,65,80
2,40,65,32
2,40,65,40
2,28,65,40
2,28,70,108
2,33,70,40
2,34,73,32
2,26,73,64
2,26,63,84
2,33,74,32
2,33,65,32
2,26,65,32
2,26,70,116
2,33,74,32
