track,note,velocity,time
1,33,105,1312
1,33,0,21
1,33,116,39
1,33,0,49
1,33,110,11
1,33,0,31
1,32,110,29
1,32,0,25
1,33,102,35
1,33,0,43
1,33,85,17
1,33,0,40
1,38,102,20
1,38,0,43
1,38,85,17
1,38,0,40
1,33,107,20
1,21,82,30
1,33,0,8
1,21,0,20
1,33,89,2
1,33,0,32
1,33,107,28
1,33,0,39
1,33,113,21
1,33,0,43
1,33,102,17
1,33,0,43
1,33,85,17
1,33,0,40
1,38,102,20
1,38,0,43
1,38,85,17
1,38,0,40
1,33,105,20
1,33,0,38
1,33,107,22
1,33,0,48
1,33,102,12
1,33,0,38
1,33,116,22
1,33,0,17
1,21,80,13
1,21,0,15
1,33,102,15
1,33,0,43
1,33,85,17
1,33,0,40
1,38,102,20
1,38,0,43
1,38,85,17
1,38,0,40
1,33,107,20
1,21,82,30
1,33,0,8
1,21,0,20
1,33,89,2
1,33,0,32
1,33,107,28
1,33,0,39
1,33,113,21
1,33,0,43
1,33,102,17
1,33,0,43
1,33,85,17
1,33,0,40
1,31,102,20
1,31,0,43
1,31,85,17
1,31,0,40
1,33,107,20
1,21,82,30
1,33,0,8
1,21,0,20
1,33,89,2
1,33,0,32
1,33,107,28
1,33,0,39
1,33,113,21
1,33,0,43
1,33,102,17
1,33,0,43
1,33,85,17
1,33,0,40
1,38,102,20
1,38,0,43
1,38,85,17
1,38,0,40
1,33,105,20
1,33,0,38
1,33,107,22
1,33,0,48
1,33,102,12
1,33,0,38
1,33,116,22
1,33,0,17
1,21,80,13
1,21,0,15
1,33,102,15
1,33,0,43
1,33,85,17
1,33,0,40
1,38,102,20
1,38,0,43
1,38,85,17
1,38,0,40
1,33,105,20
1,33,0,38
1,33,107,22
1,33,0,48
1,33,102,12
1,33,0,38
1,33,116,22
1,33,0,17
1,21,80,13
1,21,0,15
1,33,102,15
1,33,0,43
1,33,85,17
1,33,0,40
1,38,102,20
1,38,0,43
1,38,85,17
1,38,0,40
1,33,105,20
1,33,0,21
1,33,116,39
1,33,0,49
1,33,110,11
1,33,0,31
1,32,110,29
1,32,0,25
1,33,102,35
1,33,0,43
1,33,85,17
1,33,0,40
1,31,102,20
1,31,0,43
1,31,85,17
1,31,0,40
1,33,105,20
1,33,0,38
1,33,107,22
1,33,0,48
1,33,102,12
1,33,0,38
1,33,116,22
1,33,0,17
1,21,80,13
1,21,0,15
1,33,102,15
1,33,0,43
1,33,85,17
1,33,0,40
1,38,102,20
1,38,0,43
1,38,85,17
1,38,0,40
1,33,105,20
1,33,0,38
1,33,107,22
1,33,0,48
1,33,102,12
1,33,0,38
1,33,116,22
1,33,0,17
1,21,80,13
1,21,0,15
1,33,102,15
1,33,0,43
1,33,85,17
1,33,0,40
1,38,102,20
1,38,0,43
1,38,85,17
1,38,0,40
1,33,107,20
1,21,82,30
1,33,0,8
1,21,0,20
1,33,89,2
1,33,0,32
1,33,107,28
1,33,0,39
1,33,113,21
1,33,0,43
1,33,102,17
1,33,0,43
1,33,85,17
1,33,0,40
1,38,102,20
1,38,0,43
1,38,85,17
1,38,0,40
1,33,107,20
1,21,82,30
1,33,0,8
1,21,0,20
1,33,89,2
1,33,0,32
1,33,107,28
1,33,0,39
1,33,113,21
1,33,0,43
1,33,102,17
1,33,0,43
1,33,85,17
1,33,0,40
1,38,102,20
1,38,0,43
1,38,85,17
1,38,0,40
1,33,107,20
1,21,82,30
1,33,0,8
1,21,0,20
1,33,89,2
1,33,0,32
1,33,107,28
1,33,0,39
1,33,113,21
1,33,0,43
1,33,102,17
1,33,0,43
1,33,85,17
1,33,0,40
1,38,102,20
1,38,0,43
1,38,85,17
1,38,0,40
1,33,107,20
1,21,82,30
1,33,0,8
1,21,0,20
1,33,89,2
1,33,0,32
1,33,107,28
1,33,0,39
1,33,113,21
1,33,0,43
1,33,102,17
1,33,0,43
1,33,85,17
1,33,0,40
1,38,102,20
1,38,0,43
1,38,85,17
1,38,0,40
1,33,105,20
1,33,0,38
1,33,107,22
1,33,0,48
1,33,102,12
1,33,0,38
1,33,116,22
1,33,0,17
1,21,80,13
1,21,0,15
1,33,102,15
1,33,0,43
1,33,85,17
1,33,0,40
1,38,102,20
1,38,0,43
1,38,85,17
1,38,0,40
1,33,105,20
1,33,0,21
1,33,116,39
1,33,0,49
1,33,110,11
1,33,0,31
1,32,110,29
1,32,0,25
1,33,102,35
1,33,0,43
1,33,85,17
1,33,0,40
1,38,102,20
1,38,0,43
1,38,85,17
1,38,0,40
1,33,105,20
1,33,0,38
1,33,107,22
1,33,0,48
1,33,102,12
1,33,0,38
1,33,116,22
1,33,0,17
1,21,80,13
1,21,0,15
1,33,102,15
1,33,0,43
1,33,85,17
1,33,0,40
1,38,102,20
1,38,0,43
1,38,85,17
1,38,0,40
1,33,107,20
1,21,82,30
1,33,0,8
1,21,0,20
1,33,89,2
1,33,0,32
1,33,107,28
1,33,0,39
1,33,113,21
1,33,0,43
1,33,102,17
1,33,0,43
1,33,85,17
1,33,0,40
1,38,102,20
1,38,0,43
1,38,85,17
1,38,0,40
1,33,105,20
1,33,0,38
1,33,107,22
1,33,0,48
1,33,102,12
1,33,0,38
1,33,116,22
1,33,0,17
1,21,80,13
1,21,0,15
1,33,102,15
1,33,0,43
1,33,85,17
1,33,0,40
1,38,102,20
1,38,0,43
1,38,85,17
1,38,0,40
1,33,105,20
1,33,0,21
1,33,116,39
1,33,0,49
1,33,110,11
1,33,0,31
1,32,110,29
1,32,0,25
1,33,102,35
1,33,0,43
1,33,85,17
1,33,0,40
1,38,102,20
1,38,0,43
1,38,85,17
1,38,0,40
1,42,105,20
1,42,0,38
1,42,107,22
1,42,0,48
1,42,102,12
1,42,0,38
1,42,116,22
1,42,0,17
1,30,80,13
1,30,0,15
1,40,105,15
1,40,0,21
1,40,116,39
1,40,0,49
1,40,110,11
1,40,0,31
1,36,110,29
1,36,0,25
1,37,107,35
1,25,82,30
1,37,0,8
1,25,0,20
1,37,89,2
1,37,0,32
1,37,107,28
1,37,0,39
1,37,113,21
1,37,0,43
1,38,107,17
1,26,82,30
1,38,0,8
1,26,0,20
1,38,89,2
1,38,0,32
1,38,107,28
1,38,0,39
1,38,113,21
1,38,0,43
1,42,105,17
1,42,0,38
1,42,107,22
1,42,0,48
1,42,102,12
1,42,0,38
1,42,116,22
1,42,0,17
1,30,80,13
1,30,0,15
1,40,105,15
1,40,0,38
1,40,107,22
1,40,0,48
1,40,102,12
1,40,0,38
1,40,116,22
1,40,0,17
1,28,80,13
1,28,0,15
1,37,105,15
1,37,0,21
1,37,116,39
1,37,0,49
1,37,110,11
1,37,0,31
1,37,110,29
1,37,0,25
1,38,105,35
1,38,0,38
1,38,107,22
1,38,0,48
1,38,102,12
1,38,0,38
1,38,116,22
1,38,0,17
1,26,80,13
1,26,0,15
1,42,105,15
1,42,0,21
1,42,116,39
1,42,0,49
1,42,110,11
1,42,0,31
1,39,110,29
1,39,0,25
1,40,105,35
1,40,0,38
1,40,107,22
1,40,0,48
1,40,102,12
1,40,0,38
1,40,116,22
1,40,0,17
1,28,80,13
1,28,0,15
1,37,105,15
1,37,0,21
1,37,116,39
1,37,0,49
1,37,110,11
1,37,0,31
1,37,110,29
1,37,0,25
1,38,107,35
1,26,82,30
1,38,0,8
1,26,0,20
1,38,89,2
1,38,0,32
1,38,107,28
1,38,0,39
1,38,113,21
1,38,0,43
1,33,105,17
1,33,0,21
1,33,116,39
1,33,0,49
1,33,110,11
1,33,0,31
1,32,110,29
1,32,0,25
1,33,102,35
1,33,0,43
1,33,85,17
1,33,0,40
1,38,102,20
1,38,0,43
1,38,85,17
1,38,0,40
1,33,105,20
1,33,0,21
1,33,116,39
1,33,0,49
1,33,110,11
1,33,0,31
1,32,110,29
1,32,0,25
1,33,102,35
1,33,0,43
1,33,85,17
1,33,0,40
1,38,102,20
1,38,0,43
1,38,85,17
1,38,0,40
1,33,107,20
1,21,82,30
1,33,0,8
1,21,0,20
1,33,89,2
1,33,0,32
1,33,107,28
1,33,0,39
1,33,113,21
1,33,0,43
1,33,102,17
1,33,0,43
1,33,85,17
1,33,0,40
1,38,102,20
1,38,0,43
1,38,85,17
1,38,0,40
1,33,105,20
1,33,0,38
1,33,107,22
1,33,0,48
1,33,102,12
1,33,0,38
1,33,116,22
1,33,0,17
1,21,80,13
1,21,0,15
1,33,102,15
1,33,0,43
1,33,85,17
1,33,0,40
1,31,102,20
1,31,0,43
1,31,85,17
1,31,0,40
1,33,105,20
1,33,0,21
1,33,116,39
1,33,0,49
1,33,110,11
1,33,0,31
1,32,110,29
1,32,0,25
1,33,102,35
1,33,0,43
1,33,85,17
1,33,0,40
1,38,102,20
1,38,0,43
1,38,85,17
1,38,0,40
1,33,105,20
1,33,0,38
1,33,107,22
1,33,0,48
1,33,102,12
1,33,0,38
1,33,116,22
1,33,0,17
1,21,80,13
1,21,0,15
1,33,102,15
1,33,0,43
1,33,85,17
1,33,0,40
1,38,102,20
1,38,0,43
1,38,85,17
1,38,0,40
1,33,107,20
1,21,82,30
1,33,0,8
1,21,0,20
1,33,89,2
1,33,0,32
1,33,107,28
1,33,0,39
1,33,113,21
1,33,0,43
1,33,102,17
1,33,0,43
1,33,85,17
1,33,0,40
1,38,102,20
1,38,0,43
1,38,85,17
1,38,0,40
1,33,107,20
1,21,82,30
1,33,0,8
1,21,0,20
1,33,89,2
1,33,0,32
1,33,107,28
1,33,0,39
1,33,113,21
1,33,0,43
1,33,102,17
1,33,0,43
1,33,85,17
1,33,0,40
1,31,102,20
1,31,0,43
1,31,85,17
1,31,0,40
1,33,107,20
1,21,82,30
1,33,0,8
1,21,0,20
1,33,89,2
1,33,0,32
1,33,107,28
1,33,0,39
1,33,113,21
1,33,0,43
1,33,102,17
1,33,0,43
1,33,85,17
1,33,0,40
1,38,102,20
1,38,0,43
1,38,85,17
1,38,0,40
1,33,107,20
1,21,82,30
1,33,0,8
1,21,0,20
1,33,89,2
1,33,0,32
1,33,107,28
1,33,0,39
1,33,113,21
1,33,0,43
1,33,102,17
1,33,0,43
1,33,85,17
1,33,0,40
1,38,102,20
1,38,0,43
1,38,85,17
1,38,0,40
1,33,105,20
1,33,0,38
1,33,107,22
1,33,0,48
1,33,102,12
1,33,0,38
1,33,116,22
1,33,0,17
1,21,80,13
1,21,0,15
1,33,102,15
1,33,0,43
1,33,85,17
1,33,0,40
1,38,102,20
1,38,0,43
1,38,85,17
1,38,0,40
1,33,107,20
1,21,82,30
1,33,0,8
1,21,0,20
1,33,89,2
1,33,0,32
1,33,107,28
1,33,0,39
1,33,113,21
1,33,0,43
1,33,102,17
1,33,0,43
1,33,85,17
1,33,0,40
1,38,102,20
1,38,0,43
1,38,85,17
1,38,0,40
1,33,105,20
1,33,0,21
1,33,116,39
1,33,0,49
1,33,110,11
1,33,0,31
1,32,110,29
1,32,0,25
1,33,102,35
1,33,0,43
1,33,85,17
1,33,0,40
1,38,102,20
1,38,0,43
1,38,85,17
1,38,0,40
1,33,107,20
1,21,82,30
1,33,0,8
1,21,0,20
1,33,89,2
1,33,0,32
1,33,107,28
1,33,0,39
1,33,113,21
1,33,0,43
1,33,102,17
1,33,0,43
1,33,85,17
1,33,0,40
1,38,102,20
1,38,0,43
1,38,85,17
1,38,0,40
1,33,107,20
1,21,82,30
1,33,0,8
1,21,0,20
1,33,89,2
1,33,0,32
1,33,107,28
1,33,0,39
1,33,113,21
1,33,0,43
1,33,102,17
1,33,0,43
1,33,85,17
1,33,0,40
1,38,102,20
1,38,0,43
1,38,85,17
1,38,0,40
1,33,105,20
1,33,0,21
1,33,116,39
1,33,0,49
1,33,110,11
1,33,0,31
1,32,110,29
1,32,0,25
1,33,102,35
1,33,0,43
1,33,85,17
1,33,0,40
1,38,102,20
1,38,0,43
1,38,85,17
1,38,0,40
1,33,105,20
1,33,0,21
1,33,116,39
1,33,0,49
1,33,110,11
1,33,0,31
1,32,110,29
1,32,0,25
1,33,102,35
1,33,0,43
1,33,85,17
1,33,0,40
1,38,102,20
1,38,0,43
1,38,85,17
1,38,0,40
1,33,105,20
1,33,0,38
1,33,107,22
1,33,0,48
1,33,102,12
1,33,0,38
1,33,116,22
1,33,0,17
1,21,80,13
1,21,0,15
1,33,102,15
1,33,0,43
1,33,85,17
1,33,0,40
1,38,102,20
1,38,0,43
1,38,85,17
1,38,0,40
1,33,105,20
1,33,0,21
1,33,116,39
1,33,0,49
1,33,110,11
1,33,0,31
1,32,110,29
1,32,0,25
1,33,102,35
1,33,0,43
1,33,85,17
1,33,0,40
1,38,102,20
1,38,0,43
1,38,85,17
1,38,0,40
1,33,105,20
1,33,0,21
1,33,116,39
1,33,0,49
1,33,110,11
1,33,0,31
1,32,110,29
1,32,0,25
1,33,102,35
1,33,0,43
1,33,85,17
1,33,0,40
1,38,102,20
1,38,0,43
1,38,85,17
1,38,0,40
1,33,105,20
1,33,0,38
1,33,107,22
1,33,0,48
1,33,102,12
1,33,0,38
1,33,116,22
1,33,0,17
1,21,80,13
1,21,0,15
1,33,102,15
1,33,0,43
1,33,85,17
1,33,0,40
1,38,102,20
1,38,0,43
1,38,85,17
1,38,0,40
1,33,107,20
1,21,82,30
1,33,0,8
1,21,0,20
1,33,89,2
1,33,0,32
1,33,107,28
1,33,0,39
1,33,113,21
1,33,0,43
1,33,102,17
1,33,0,43
1,33,85,17
1,33,0,40
1,38,102,20
1,38,0,43
1,38,85,17
1,38,0,40
1,33,107,20
1,21,82,30
1,33,0,8
1,21,0,20
1,33,89,2
1,33,0,32
1,33,107,28
1,33,0,39
1,33,113,21
1,33,0,43
1,33,102,17
1,33,0,43
1,33,85,17
1,33,0,40
1,38,102,20
1,38,0,43
1,38,85,17
1,38,0,40
1,33,107,20
1,21,82,30
1,33,0,8
1,21,0,20
1,33,89,2
1,33,0,32
1,33,107,28
1,33,0,39
1,33,113,21
1,33,0,43
1,33,102,17
1,33,0,43
1,33,85,17
1,33,0,40
1,38,102,20
1,38,0,43
1,38,85,17
1,38,0,40
1,33,105,20
1,33,0,21
1,33,116,39
1,33,0,49
1,33,110,11
1,33,0,31
1,32,110,29
1,32,0,25
1,33,102,35
1,33,0,43
1,33,85,17
1,33,0,40
1,38,102,20
1,38,0,43
1,38,85,17
1,38,0,40
1,33,105,20
1,33,0,21
1,33,116,39
1,33,0,49
1,33,110,11
1,33,0,31
1,32,110,29
1,32,0,25
1,33,102,35
1,33,0,43
1,33,85,17
1,33,0,40
1,38,102,20
1,38,0,43
1,38,85,17
1,38,0,40
1,33,105,20
1,33,0,38
1,33,107,22
1,33,0,48
1,33,102,12
1,33,0,38
1,33,116,22
1,33,0,17
1,21,80,13
1,21,0,15
1,33,102,15
1,33,0,43
1,33,85,17
1,33,0,40
1,38,102,20
1,38,0,43
1,38,85,17
1,38,0,40
1,33,105,20
1,33,0,38
1,33,107,22
1,33,0,48
1,33,102,12
1,33,0,38
1,33,116,22
1,33,0,17
1,21,80,13
1,21,0,15
1,33,102,15
1,33,0,43
1,33,85,17
1,33,0,40
1,38,102,20
1,38,0,43
1,38,85,17
1,38,0,40
1,42,107,20
1,30,82,30
1,42,0,8
1,30,0,20
1,42,89,2
1,42,0,32
1,42,107,28
1,42,0,39
1,42,113,21
1,42,0,43
1,40,105,17
1,40,0,21
1,40,116,39
1,40,0,49
1,40,110,11
1,40,0,31
1,36,110,29
1,36,0,25
1,37,105,35
1,37,0,21
1,37,116,39
1,37,0,49
1,37,110,11
1,37,0,31
1,37,110,29
1,37,0,25
1,38,105,35
1,38,0,21
1,38,116,39
1,38,0,49
1,38,110,11
1,38,0,31
1,41,110,29
1,41,0,25
1,42,107,35
1,30,82,30
1,42,0,8
1,30,0,20
1,42,89,2
1,42,0,32
1,42,107,28
1,42,0,39
1,42,113,21
1,42,0,43
1,40,107,17
1,28,82,30
1,40,0,8
1,28,0,20
1,40,89,2
1,40,0,32
1,40,107,28
1,40,0,39
