track,note,velocity,time
0,62,70,0
0,57,70,0
0,54,70,0
0,50,70,0
0,38,120,0
0,49,100,0
0,36,100,0
0,51,100,0
0,54,35,0
0,54,0,15
0,51,0,0
0,36,0,0
0,49,0,0
0,54,30,15
0,54,0,15
0,38,0,15
0,54,0,0
0,50,0,0
0,57,0,0
0,62,0,0
0,54,35,0
0,54,0,15
0,54,30,15
0,54,0,15
0,69,70,15
0,74,70,0
0,50,70,0
0,54,70,0
0,57,70,0
0,62,70,0
0,38,120,0
0,40,100,0
0,38,100,0
0,51,100,0
0,54,35,0
0,54,0,15
0,40,0,0
0,51,0,0
0,38,0,0
0,54,30,15
0,54,0,15
0,54,35,15
0,54,0,15
0,54,30,15
0,54,0,15
0,38,0,15
0,40,120,0
0,36,100,0
0,51,100,0
0,54,35,0
0,54,0,15
0,51,0,0
0,36,0,0
0,54,30,15
0,54,0,15
0,40,0,15
0,38,120,0
0,54,35,0
0,54,0,15
0,54,30,15
0,54,0,15
0,38,0,15
0,37,120,0
0,40,100,0
0,38,100,0
0,51,100,0
0,54,35,0
0,54,0,15
0,40,0,0
0,51,0,0
0,38,0,0
0,69,0,15
0,54,0,0
0,74,0,0
0,50,0,0
0,57,0,0
0,62,0,0
0,69,70,0
0,54,30,0
0,54,0,15
0,37,0,15
0,61,70,0
0,57,70,0
0,52,70,0
0,49,70,0
0,45,70,0
0,33,120,0
0,36,100,0
0,54,35,0
0,54,0,15
0,36,0,0
0,54,30,15
0,54,0,15
0,51,100,15
0,54,35,0
0,54,0,15
0,51,0,0
0,54,30,15
0,54,0,15
0,54,35,15
0,54,0,15
0,54,30,15
0,54,0,15
0,40,100,15
0,38,100,0
0,51,100,0
0,54,35,0
0,54,0,15
0,40,0,0
0,51,0,0
0,38,0,0
0,54,30,15
0,54,0,15
0,33,0,15
0,54,35,0
0,54,0,15
0,54,30,15
0,54,0,15
0,52,0,15
0,61,0,0
0,49,0,0
0,62,70,0
0,50,70,0
0,35,120,0
0,36,100,0
0,51,100,0
0,54,35,0
0,54,0,15
0,51,0,0
0,36,0,0
0,54,30,15
0,54,0,15
0,35,0,15
0,62,0,0
0,50,0,0
0,61,52,0
0,52,49,0
0,49,52,0
0,33,120,0
0,54,35,0
0,54,0,15
0,54,30,15
0,54,0,15
0,40,100,15
0,38,100,0
0,51,100,0
0,54,35,0
0,54,0,15
0,40,0,0
0,51,0,0
0,38,0,0
0,54,30,15
0,54,0,15
0,33,0,15
0,54,35,0
0,54,0,15
0,49,0,15
0,69,0,0
0,57,0,0
0,45,0,0
0,52,0,0
0,61,0,0
0,54,30,0
0,54,0,15
0,59,70,15
0,54,70,0
0,50,70,0
0,47,70,0
0,35,120,0
0,55,100,0
0,36,100,0
0,51,100,0
0,54,35,0
0,54,0,15
0,51,0,0
0,36,0,0
0,55,0,0
0,54,30,15
0,54,0,15
0,35,0,15
0,38,120,0
0,54,35,0
0,54,0,15
0,54,30,15
0,54,0,15
0,38,0,15
0,42,120,0
0,40,100,0
0,38,100,0
0,51,100,0
0,54,35,0
0,54,0,15
0,51,0,0
0,38,0,0
0,40,0,0
0,54,30,15
0,54,0,15
0,42,0,15
0,50,0,0
0,59,0,0
0,54,0,0
0,47,0,0
0,71,70,0
0,59,70,0
0,54,70,0
0,50,70,0
0,47,70,0
0,47,120,0
0,36,100,0
0,54,35,0
0,54,0,15
0,36,0,0
0,54,30,15
0,54,0,15
0,47,0,15
0,36,100,0
0,51,100,0
0,54,35,0
0,54,0,15
0,51,0,0
0,36,0,0
0,47,0,15
0,54,0,0
0,71,0,0
0,59,0,0
0,50,0,0
0,54,30,0
0,54,0,15
0,45,70,15
0,49,70,0
0,52,70,0
0,57,70,0
0,69,70,0
0,45,120,0
0,54,35,0
0,54,0,15
0,54,30,15
0,54,0,15
0,45,0,15
0,49,0,0
0,52,0,0
0,45,0,0
0,69,0,0
0,57,0,0
0,40,100,0
0,38,100,0
0,51,100,0
0,54,35,0
0,54,0,15
0,40,0,0
0,38,0,0
0,51,0,0
0,54,30,15
0,54,0,15
0,67,70,15
0,62,70,0
0,59,70,0
0,55,70,0
0,50,70,0
0,43,70,0
0,47,70,0
0,43,120,0
0,36,100,0
0,54,35,0
0,54,0,15
0,36,0,0
0,54,30,15
0,54,0,15
0,51,100,15
0,54,35,0
0,54,0,15
0,51,0,0
0,54,30,15
0,54,0,15
0,54,35,15
0,54,0,15
0,54,30,15
0,54,0,15
0,40,100,15
0,38,100,0
0,51,100,0
0,54,35,0
0,54,0,15
0,38,0,0
0,40,0,0
0,51,0,0
0,43,0,15
0,54,30,0
0,54,0,15
0,59,0,15
0,43,120,0
0,36,100,0
0,54,35,0
0,54,0,15
0,36,0,0
0,62,0,15
0,54,30,0
0,54,0,15
0,43,0,15
0,62,70,0
0,38,120,0
0,36,100,0
0,51,100,0
0,54,35,0
0,54,0,15
0,51,0,0
0,36,0,0
0,54,30,15
0,54,0,15
0,38,0,15
0,67,0,0
0,59,70,0
0,35,120,0
0,54,35,0
0,54,0,15
0,54,30,15
0,54,0,15
0,35,0,15
0,62,0,0
0,67,70,0
0,43,120,0
0,40,100,0
0,38,100,0
0,51,100,0
0,54,35,0
0,54,0,15
0,40,0,0
0,51,0,0
0,38,0,0
0,54,30,15
0,54,0,15
0,47,0,15
0,55,0,0
0,50,0,0
0,43,0,0
0,59,0,0
0,54,35,0
0,54,0,15
0,43,0,15
0,54,30,0
0,54,0,15
0,67,0,15
0,62,70,0
0,57,70,0
0,54,70,0
0,50,70,0
0,38,120,0
0,49,100,0
0,36,100,0
0,51,100,0
0,54,35,0
0,54,0,15
0,51,0,0
0,36,0,0
0,49,0,0
0,54,30,15
0,54,0,15
0,38,0,15
0,54,0,0
0,50,0,0
0,57,0,0
0,62,0,0
0,54,35,0
0,54,0,15
0,54,30,15
0,54,0,15
0,74,70,15
0,69,70,0
0,62,70,0
0,57,70,0
0,54,70,0
0,50,70,0
0,38,120,0
0,40,100,0
0,38,100,0
0,51,100,0
0,54,35,0
0,54,0,15
0,40,0,0
0,51,0,0
0,38,0,0
0,54,30,15
0,54,0,15
0,54,35,15
0,54,0,15
0,54,30,15
0,54,0,15
0,38,0,15
0,38,120,0
0,36,100,0
0,51,100,0
0,54,35,0
0,54,0,15
0,51,0,0
0,36,0,0
0,54,30,15
0,54,0,15
0,38,0,15
0,37,120,0
0,54,35,0
0,54,0,15
0,54,30,15
0,54,0,15
0,37,0,15
0,35,120,0
0,40,100,0
0,38,100,0
0,51,100,0
0,54,35,0
0,54,0,15
0,40,0,0
0,51,0,0
0,38,0,0
0,54,30,15
0,54,0,15
0,35,0,15
0,50,0,0
0,69,0,0
0,62,0,0
0,57,0,0
0,54,0,0
0,74,0,0
0,64,70,0
0,52,70,0
0,49,70,0
0,69,70,0
0,57,70,0
0,45,70,0
0,33,120,0
0,36,100,0
0,54,35,0
0,54,0,15
0,36,0,0
0,54,30,15
0,54,0,15
0,51,100,15
0,54,35,0
0,54,0,15
0,51,0,0
0,54,30,15
0,54,0,15
0,54,35,15
0,54,0,15
0,54,30,15
0,54,0,15
0,40,100,15
0,38,100,0
0,51,100,0
0,54,35,0
0,54,0,15
0,40,0,0
0,51,0,0
0,38,0,0
0,54,30,15
0,54,0,15
0,54,35,15
0,54,0,15
0,33,0,15
0,54,30,0
0,54,0,15
0,49,0,15
0,64,0,0
0,52,0,0
0,50,70,0
0,62,70,0
0,33,120,0
0,36,100,0
0,51,100,0
0,54,35,0
0,54,0,15
0,51,0,0
0,36,0,0
0,33,0,15
0,54,30,0
0,54,0,15
0,62,0,15
0,50,0,0
0,49,40,0
0,52,40,0
0,64,40,0
0,33,120,0
0,54,35,0
0,54,0,15
0,54,30,15
0,54,0,15
0,40,100,15
0,38,100,0
0,51,100,0
0,54,35,0
0,54,0,15
0,40,0,0
0,51,0,0
0,38,0,0
0,54,30,15
0,54,0,15
0,54,35,15
0,54,0,15
0,57,0,15
0,45,0,0
0,69,0,0
0,54,30,0
0,54,0,15
0,33,0,15
0,49,0,0
0,64,0,0
0,52,0,0
0,66,70,0
0,71,70,0
0,59,70,0
0,54,70,0
0,50,70,0
0,47,70,0
0,35,120,0
0,57,1,0
0,36,100,0
0,51,100,0
0,54,35,0
0,54,0,15
0,57,0,0
0,51,0,0
0,36,0,0
0,54,30,15
0,54,0,15
0,54,35,15
0,54,0,15
0,54,30,15
0,54,0,15
0,40,100,15
0,38,100,0
0,51,100,0
0,54,35,0
0,54,0,15
0,40,0,0
0,51,0,0
0,38,0,0
0,35,0,15
0,50,0,0
0,71,0,0
0,59,0,0
0,66,0,0
0,47,0,0
0,54,0,0
0,54,30,0
0,54,0,15
0,47,70,15
0,50,70,0
0,54,70,0
0,59,70,0
0,66,70,0
0,71,70,0
0,35,120,0
0,36,100,0
0,54,35,0
0,54,0,15
0,36,0,0
0,54,30,15
0,54,0,15
0,71,0,15
0,47,0,0
0,50,0,0
0,54,0,0
0,59,0,0
0,66,0,0
0,36,100,0
0,51,100,0
0,54,35,0
0,54,0,15
0,51,0,0
0,36,0,0
0,35,0,15
0,54,30,0
0,54,0,15
0,64,70,15
0,57,70,0
0,52,70,0
0,49,70,0
0,45,70,0
0,69,70,0
0,33,120,0
0,54,35,0
0,54,0,15
0,54,30,15
0,54,0,15
0,49,0,15
0,64,0,0
0,57,0,0
0,52,0,0
0,69,0,0
0,45,0,0
0,40,100,0
0,38,100,0
0,51,100,0
0,54,35,0
0,54,0,15
0,38,0,0
0,51,0,0
0,40,0,0
0,33,0,15
0,54,30,0
0,54,0,15
0,67,70,15
0,62,70,0
0,55,70,0
0,50,70,0
0,47,70,0
0,43,70,0
0,43,120,0
0,36,100,0
0,54,35,0
0,54,0,15
0,36,0,0
0,54,30,15
0,54,0,15
0,51,100,15
0,54,35,0
0,54,0,15
0,51,0,0
0,54,30,15
0,54,0,15
0,54,35,15
0,54,0,15
0,54,30,15
0,54,0,15
0,40,100,15
0,38,100,0
0,51,100,0
0,54,35,0
0,54,0,15
0,40,0,0
0,51,0,0
0,38,0,0
0,54,30,15
0,54,0,15
0,43,0,15
0,38,120,0
0,36,100,0
0,54,35,0
0,54,0,15
0,36,0,0
0,62,0,15
0,54,30,0
0,54,0,15
0,38,0,15
0,62,70,0
0,43,120,0
0,36,100,0
0,51,100,0
0,54,35,0
0,54,0,15
0,51,0,0
0,36,0,0
0,54,30,15
0,54,0,15
0,67,0,15
0,55,0,0
0,43,0,0
0,43,0,0
0,62,0,0
0,59,70,0
0,71,70,0
0,50,120,0
0,54,35,0
0,54,0,15
0,54,30,15
0,54,0,15
0,50,0,15
0,59,0,0
0,50,0,0
0,55,70,0
0,67,70,0
0,79,70,0
0,55,120,0
0,40,100,0
0,38,100,0
0,51,100,0
0,54,35,0
0,54,0,15
0,51,0,0
0,40,0,0
0,38,0,0
0,54,30,15
0,54,0,15
0,47,0,15
0,71,0,0
0,54,35,0
0,54,0,15
0,55,0,15
0,79,0,0
0,54,30,0
0,54,0,15
0,55,0,15
0,67,0,0
0,38,90,0
0,57,40,0
0,62,40,0
0,40,70,0
0,38,70,0
0,38,0,15
0,40,0,0
0,40,70,105
0,38,70,0
0,38,0,15
0,40,0,0
0,38,0,45
0,28,90,0
0,28,0,60
0,38,90,0
0,69,100,0
0,40,70,0
0,38,70,0
0,38,0,15
0,40,0,0
0,62,0,15
0,57,0,0
0,69,0,0
0,69,100,30
0,57,40,0
0,69,0,30
0,38,0,0
0,33,90,30
0,69,100,0
0,69,40,0
0,40,70,0
0,38,70,0
0,38,0,15
0,40,0,0
0,69,0,15
0,33,0,30
0,28,90,0
0,68,100,0
0,56,40,0
0,68,0,60
0,57,0,0
0,40,70,0
0,38,70,0
0,38,0,15
0,40,0,0
0,69,0,105
0,40,70,0
0,38,70,0
0,38,0,15
0,40,0,0
0,28,0,45
0,28,90,0
0,28,0,60
0,32,90,0
0,68,100,0
0,40,70,0
0,38,70,0
0,38,0,15
0,40,0,0
0,68,0,15
0,56,0,0
0,68,100,30
0,56,40,0
0,68,0,30
0,32,0,30
0,32,90,0
0,68,100,0
0,68,40,0
0,40,70,0
0,38,70,0
0,38,0,15
0,40,0,0
0,68,0,15
0,32,0,30
0,31,90,0
0,71,100,0
0,55,40,0
0,68,0,60
0,40,70,0
0,38,70,0
0,38,0,15
0,40,0,0
0,56,0,45
0,71,0,0
0,40,70,60
0,38,70,0
0,38,0,15
0,40,0,0
0,31,0,15
0,31,90,30
0,31,0,60
0,55,0,0
0,35,90,0
0,71,100,0
0,62,40,0
0,40,70,0
0,38,70,0
0,38,0,15
0,40,0,0
0,71,0,15
0,71,100,30
0,59,40,0
0,71,0,30
0,35,0,30
0,35,90,0
0,71,100,0
0,40,70,0
0,38,70,0
0,38,0,15
0,40,0,0
0,71,0,15
0,35,0,30
0,34,90,0
0,70,100,0
0,58,40,0
0,59,0,30
0,40,70,30
0,38,70,0
0,38,0,15
0,40,0,0
0,70,0,15
0,62,0,30
0,70,100,0
0,70,0,30
0,34,0,30
0,34,90,0
0,70,100,0
0,40,70,0
0,38,70,0
0,38,0,15
0,40,0,0
0,70,0,15
0,34,0,30
0,37,90,0
0,70,100,0
0,70,0,30
0,73,100,30
0,61,40,0
0,40,70,0
0,38,70,0
0,38,0,15
0,40,0,0
0,58,0,15
0,73,0,30
0,73,100,0
0,73,0,30
0,37,0,30
0,37,90,0
0,73,100,0
0,40,70,0
0,38,70,0
0,38,0,15
0,40,0,0
0,73,0,15
0,61,0,0
0,37,0,30
0,35,90,0
0,70,100,0
0,63,40,0
0,70,0,60
0,35,0,0
0,33,90,0
0,69,80,0
0,57,40,0
0,62,40,0
0,40,70,0
0,38,70,0
0,38,0,15
0,40,0,0
0,63,0,15
0,69,0,30
0,40,70,60
0,38,70,0
0,38,0,15
0,40,0,0
0,33,0,45
0,28,90,0
0,67,100,0
0,67,0,30
0,57,0,0
0,28,0,30
0,62,0,0
0,33,90,0
0,69,100,0
0,40,70,0
0,38,70,0
0,38,0,15
0,40,0,0
0,69,0,15
0,69,100,30
0,57,40,0
0,69,0,30
0,33,0,30
0,33,90,0
0,69,100,0
0,69,40,0
0,40,70,0
0,38,70,0
0,38,0,15
0,40,0,0
0,69,0,15
0,33,0,30
0,28,90,0
0,68,100,0
0,56,40,0
0,57,0,60
0,40,70,0
0,38,70,0
0,38,0,15
0,40,0,0
0,68,0,15
0,69,0,90
0,68,100,0
0,40,70,0
0,38,70,0
0,38,0,15
0,40,0,0
0,68,0,15
0,28,0,0
0,28,90,30
0,68,100,0
0,68,0,30
0,28,0,30
0,56,0,0
0,32,90,0
0,68,100,0
0,40,70,0
0,38,70,0
0,38,0,15
0,40,0,0
0,68,0,15
0,68,100,30
0,56,40,0
0,68,0,30
0,32,0,0
0,32,90,30
0,68,100,0
0,68,40,0
0,40,70,0
0,38,70,0
0,38,0,15
0,40,0,0
0,68,0,15
0,32,0,30
0,31,90,0
0,71,100,0
0,59,40,0
0,68,0,60
0,40,70,0
0,38,70,0
0,38,0,15
0,40,0,0
0,71,0,15
0,56,0,30
0,68,100,60
0,40,70,0
0,38,70,0
0,38,0,15
0,40,0,0
0,68,0,15
0,32,90,30
0,68,100,0
0,68,0,30
0,31,0,0
0,32,0,30
0,59,0,0
0,35,90,0
0,71,100,0
0,64,40,0
0,71,40,0
0,40,70,0
0,38,70,0
0,38,0,15
0,40,0,0
0,71,0,15
0,71,100,30
0,59,40,0
0,71,0,30
0,35,0,30
0,31,90,0
0,71,100,0
0,40,70,0
0,38,70,0
0,38,0,15
0,40,0,0
0,71,0,15
0,31,0,30
0,34,90,0
0,70,100,0
0,58,40,0
0,59,0,30
0,40,70,30
0,38,70,0
0,38,0,15
0,40,0,0
0,70,0,15
0,71,0,30
0,64,0,0
0,70,100,0
0,70,0,30
0,70,100,30
0,40,70,0
0,38,70,0
0,38,0,15
0,40,0,0
0,70,0,15
0,70,100,30
0,70,0,30
