track,note,velocity,time
0,67,100,0
0,62,100,0
0,55,100,0
0,50,100,0
0,43,100,0
0,67,100,0
0,62,100,0
0,55,100,0
0,50,100,0
0,43,100,0
0,67,100,0
0,59,100,0
0,55,100,0
0,50,100,0
0,47,100,0
0,43,100,0
0,43,0,120
0,67,0,0
0,59,0,0
0,43,0,0
0,67,0,0
0,62,0,0
0,55,0,0
0,55,0,0
0,50,0,0
0,62,0,0
0,55,0,0
0,67,0,0
0,50,0,0
0,43,0,0
0,50,0,0
0,47,0,0
0,67,20,0
0,62,20,0
0,55,20,0
0,50,20,0
0,43,20,0
0,67,20,0
0,62,20,0
0,55,20,0
0,50,20,0
0,43,20,0
0,43,0,60
0,50,0,0
0,67,0,0
0,55,0,0
0,62,0,0
0,67,20,0
0,62,20,0
0,55,20,0
0,50,20,0
0,43,20,0
0,43,0,60
0,50,0,0
0,55,0,0
0,43,0,0
0,67,0,0
0,62,0,0
0,55,0,0
0,62,0,0
0,67,0,0
0,50,0,0
0,66,100,0
0,62,100,0
0,57,100,0
0,50,100,0
0,66,100,0
0,62,100,0
0,66,100,0
0,62,100,0
0,57,100,0
0,50,100,0
0,66,0,30
0,66,0,0
0,67,100,0
0,67,100,0
0,67,0,30
0,50,0,0
0,67,0,0
0,62,0,0
0,57,0,0
0,66,0,0
0,66,100,0
0,66,100,0
0,66,100,0
0,62,100,0
0,57,100,0
0,50,100,0
0,50,0,30
0,57,0,0
0,66,0,0
0,62,0,0
0,66,0,0
0,66,0,0
0,67,100,0
0,67,100,0
0,66,100,0
0,62,100,0
0,57,100,0
0,50,100,0
0,50,0,30
0,50,0,0
0,62,0,0
0,62,0,0
0,67,0,0
0,57,0,0
0,62,0,0
0,66,0,0
0,67,0,0
0,57,0,0
0,66,100,0
0,66,100,0
0,66,100,0
0,62,100,0
0,57,100,0
0,50,100,0
0,50,0,60
0,66,0,0
0,66,0,0
0,66,0,0
0,57,0,0
0,62,0,0
0,62,100,0
0,62,100,0
0,66,100,0
0,62,100,0
0,57,100,0
0,50,100,0
0,50,0,30
0,62,0,0
0,66,0,0
0,57,0,0
0,66,100,0
0,62,100,0
0,57,100,0
0,50,100,0
0,50,0,30
0,62,0,0
0,66,0,0
0,62,0,0
0,57,0,0
0,62,0,0
0,62,100,0
0,55,100,0
0,48,100,0
0,48,100,0
0,64,100,0
0,62,100,0
0,55,100,0
0,52,100,0
0,48,100,0
0,62,100,60
0,62,0,30
0,48,0,0
0,55,0,0
0,52,0,0
0,64,0,0
0,62,0,0
0,55,100,0
0,64,100,0
0,62,100,0
0,55,100,0
0,52,100,0
0,48,100,0
0,48,0,30
0,52,0,0
0,62,0,0
0,55,0,0
0,55,0,0
0,64,0,0
0,62,100,0
0,64,100,0
0,62,100,0
0,55,100,0
0,52,100,0
0,48,100,0
0,62,0,30
0,55,100,0
0,48,0,30
0,48,0,0
0,48,0,0
0,55,0,0
0,64,0,0
0,55,0,0
0,52,0,0
0,62,0,0
0,62,0,0
0,67,100,0
0,62,100,0
0,55,100,0
0,47,100,0
0,47,100,0
0,62,100,0
0,55,100,0
0,50,100,0
0,47,100,0
0,55,0,30
0,62,100,0
0,62,0,30
0,50,0,0
0,47,0,0
0,55,0,0
0,62,0,0
0,55,100,0
0,62,100,0
0,55,100,0
0,50,100,0
0,47,100,0
0,47,0,30
0,50,0,0
0,62,0,0
0,55,0,0
0,62,100,0
0,55,100,0
0,47,100,0
0,50,100,0
0,50,0,30
0,47,0,0
0,62,0,0
0,55,0,0
0,55,0,0
0,62,100,0
0,62,100,0
0,55,100,0
0,50,100,0
0,47,100,0
0,47,0,60
0,55,0,0
0,47,0,0
0,67,0,0
0,47,0,0
0,62,0,0
0,55,0,0
0,62,0,0
0,62,0,0
0,50,0,0
0,67,100,0
0,62,100,0
0,55,100,0
0,52,100,0
0,45,100,0
0,45,100,0
0,55,100,0
0,64,100,0
0,60,100,0
0,57,100,0
0,52,100,0
0,45,100,0
0,55,0,30
0,62,100,0
0,62,0,30
0,64,0,0
0,57,0,0
0,60,0,0
0,52,0,0
0,45,0,0
0,55,100,0
0,64,100,0
0,60,100,0
0,57,100,0
0,52,100,0
0,45,100,0
0,45,0,30
0,57,0,0
0,60,0,0
0,64,0,0
0,52,0,0
0,64,100,0
0,60,100,0
0,57,100,0
0,52,100,0
0,45,100,0
0,45,0,30
0,45,0,0
0,64,0,0
0,52,0,0
0,45,0,0
0,55,0,0
0,67,0,0
0,55,0,0
0,60,0,0
0,62,0,0
0,52,0,0
0,57,0,0
0,67,100,0
0,62,100,0
0,55,100,0
0,50,100,0
0,43,100,0
0,67,100,0
0,62,100,0
0,55,100,0
0,50,100,0
0,43,100,0
0,67,100,0
0,59,100,0
0,55,100,0
0,50,100,0
0,47,100,0
0,43,100,0
0,43,100,0
0,49,100,0
0,36,100,0
0,36,0,15
0,49,0,0
0,42,100,45
0,42,0,15
0,47,0,45
0,50,0,0
0,43,0,0
0,59,0,0
0,43,0,0
0,67,0,0
0,62,0,0
0,55,0,0
0,55,0,0
0,43,0,0
0,62,0,0
0,55,0,0
0,67,0,0
0,50,0,0
0,67,0,0
0,50,0,0
0,67,40,0
0,62,40,0
0,55,40,0
0,50,40,0
0,43,40,0
0,67,40,0
0,62,40,0
0,55,40,0
0,50,40,0
0,43,40,0
0,42,100,0
0,38,100,0
0,38,0,15
0,42,0,0
0,67,0,45
0,62,0,0
0,62,0,0
0,55,0,0
0,43,0,0
0,50,0,0
0,43,0,0
0,55,0,0
0,67,0,0
0,43,0,0
0,50,0,0
0,67,40,0
0,62,40,0
0,55,40,0
0,50,40,0
0,43,40,0
0,42,100,0
0,42,0,15
0,62,0,45
0,55,0,0
0,67,0,0
0,43,0,0
0,50,0,0
0,66,100,0
0,62,100,0
0,57,100,0
0,50,100,0
0,66,100,0
0,62,100,0
0,66,100,0
0,62,100,0
0,57,100,0
0,50,100,0
0,38,100,0
0,49,100,0
0,36,100,0
0,36,0,15
0,49,0,0
0,66,0,15
0,66,0,0
0,67,100,0
0,67,100,0
0,67,0,30
0,62,0,0
0,50,0,0
0,67,0,0
0,57,0,0
0,66,0,0
0,66,100,0
0,66,100,0
0,66,100,0
0,62,100,0
0,57,100,0
0,50,100,0
0,42,100,0
0,42,0,15
0,57,0,15
0,66,0,0
0,66,0,0
0,62,0,0
0,50,0,0
0,66,0,0
0,67,100,0
0,67,100,0
0,66,100,0
0,62,100,0
0,57,100,0
0,50,100,0
0,50,0,30
0,66,0,0
0,57,0,0
0,62,0,0
0,57,0,0
0,50,0,0
0,62,0,0
0,62,0,0
0,67,0,0
0,67,0,0
0,66,100,0
0,66,100,0
0,66,100,0
0,62,100,0
0,57,100,0
0,50,100,0
0,42,100,0
0,38,100,0
0,38,0,15
0,42,0,0
0,38,0,45
0,62,0,0
0,66,0,0
0,66,0,0
0,50,0,0
0,57,0,0
0,66,0,0
0,62,100,0
0,62,100,0
0,66,100,0
0,62,100,0
0,57,100,0
0,50,100,0
0,42,100,0
0,42,0,15
0,57,0,15
0,62,0,0
0,66,0,0
0,50,0,0
0,66,100,0
0,62,100,0
0,57,100,0
0,50,100,0
0,50,0,30
0,62,0,0
0,66,0,0
0,62,0,0
0,57,0,0
0,62,0,0
0,62,100,0
0,55,100,0
0,48,100,0
0,48,100,0
0,64,100,0
0,62,100,0
0,55,100,0
0,52,100,0
0,48,100,0
0,36,100,0
0,49,100,0
0,36,100,0
0,36,0,15
0,49,0,0
0,62,100,45
0,42,100,0
0,42,0,15
0,48,0,15
0,55,0,0
0,52,0,0
0,62,0,0
0,62,0,0
0,64,0,0
0,55,100,0
0,64,100,0
0,62,100,0
0,55,100,0
0,52,100,0
0,48,100,0
0,48,0,30
0,62,0,0
0,52,0,0
0,64,0,0
0,55,0,0
0,55,0,0
0,62,100,0
0,64,100,0
0,62,100,0
0,55,100,0
0,52,100,0
0,48,100,0
0,42,100,0
0,38,100,0
0,38,0,15
0,42,0,0
0,62,0,15
0,55,100,0
0,55,0,30
0,48,0,0
0,48,0,0
0,36,0,0
0,62,0,0
0,62,0,0
0,64,0,0
0,52,0,0
0,55,0,0
0,48,0,0
0,67,100,0
0,62,100,0
0,55,100,0
0,47,100,0
0,47,100,0
0,62,100,0
0,55,100,0
0,50,100,0
0,47,100,0
0,35,100,0
0,49,100,0
0,36,100,0
0,36,0,15
0,49,0,0
0,55,0,15
0,62,100,0
0,62,0,30
0,50,0,0
0,47,0,0
0,55,0,0
0,62,0,0
0,55,100,0
0,62,100,0
0,55,100,0
0,50,100,0
0,47,100,0
0,42,100,0
0,42,0,15
0,50,0,15
0,55,0,0
0,62,0,0
0,47,0,0
0,62,100,0
0,55,100,0
0,47,100,0
0,50,100,0
0,50,0,30
0,62,0,0
0,47,0,0
0,55,0,0
0,55,0,0
0,62,100,0
0,62,100,0
0,55,100,0
0,50,100,0
0,47,100,0
0,42,100,0
0,38,100,0
0,38,0,15
0,42,0,0
0,47,0,45
0,62,0,0
0,35,0,0
0,55,0,0
0,62,0,0
0,47,0,0
0,47,0,0
0,55,0,0
0,62,0,0
0,67,0,0
0,50,0,0
0,67,100,0
0,62,100,0
0,55,100,0
0,52,100,0
0,45,100,0
0,45,100,0
0,55,100,0
0,64,100,0
0,60,100,0
0,57,100,0
0,52,100,0
0,45,100,0
0,33,100,0
0,42,100,0
0,38,100,0
0,38,0,15
0,42,0,0
0,55,0,15
0,62,100,0
0,38,100,0
0,38,0,15
0,33,0,15
0,64,0,0
0,57,0,0
0,60,0,0
0,62,0,0
0,45,0,0
0,52,0,0
0,55,100,0
0,64,100,0
0,60,100,0
0,57,100,0
0,52,100,0
0,45,100,0
0,41,100,0
0,38,100,0
0,38,0,15
0,57,0,15
0,60,0,0
0,64,0,0
0,45,0,0
0,52,0,0
0,64,100,0
0,60,100,0
0,57,100,0
0,52,100,0
0,45,100,0
0,45,0,30
0,62,0,0
0,41,0,0
0,45,0,0
0,52,0,0
0,55,0,0
0,45,0,0
0,67,0,0
0,57,0,0
0,64,0,0
0,55,0,0
0,52,0,0
0,60,0,0
0,67,100,0
0,62,100,0
0,55,100,0
0,50,100,0
0,43,100,0
0,67,100,0
0,62,100,0
0,55,100,0
0,50,100,0
0,43,100,0
0,67,100,0
0,59,100,0
0,55,100,0
0,50,100,0
0,47,100,0
0,43,100,0
0,43,100,0
0,49,100,0
0,36,100,0
0,36,0,15
0,49,0,0
0,81,100,45
0,69,60,0
0,42,100,0
0,42,0,15
0,55,0,45
0,50,0,0
0,43,0,0
0,62,0,0
0,67,0,0
0,59,0,0
0,43,0,0
0,67,0,0
0,62,0,0
0,55,0,0
0,50,0,0
0,47,0,0
0,43,0,0
0,55,0,0
0,67,0,0
0,50,0,0
0,67,40,0
0,62,40,0
0,55,40,0
0,50,40,0
0,43,40,0
0,67,40,0
0,62,40,0
0,55,40,0
0,50,40,0
0,43,40,0
0,42,100,0
0,38,100,0
0,38,0,15
0,42,0,0
0,62,0,45
0,55,0,0
0,62,0,0
0,43,0,0
0,43,0,0
0,50,0,0
0,67,0,0
0,43,0,0
0,55,0,0
0,67,0,0
0,50,0,0
0,67,40,0
0,62,40,0
0,55,40,0
0,50,40,0
0,43,40,0
0,42,100,0
0,42,0,15
0,36,100,15
0,36,0,15
0,43,0,15
0,55,0,0
0,62,0,0
0,67,0,0
0,50,0,0
0,66,100,0
0,62,100,0
0,57,100,0
0,50,100,0
0,66,100,0
0,62,100,0
0,66,100,0
0,62,100,0
0,57,100,0
0,50,100,0
0,38,100,0
0,49,100,0
0,36,100,0
0,36,0,15
0,49,0,0
0,66,0,15
0,66,0,0
0,67,100,0
0,67,100,0
0,67,0,30
0,50,0,0
0,62,0,0
0,66,0,0
0,67,0,0
0,57,0,0
0,66,100,0
0,66,100,0
0,66,100,0
0,62,100,0
0,57,100,0
0,50,100,0
0,42,100,0
0,42,0,15
0,66,0,15
0,66,0,0
0,66,0,0
0,50,0,0
0,62,0,0
0,57,0,0
0,67,100,0
0,67,100,0
0,66,100,0
0,62,100,0
0,57,100,0
0,50,100,0
0,50,0,30
0,62,0,0
0,66,0,0
0,67,0,0
0,50,0,0
0,62,0,0
0,57,0,0
0,67,0,0
0,62,0,0
0,57,0,0
0,66,100,0
0,66,100,0
0,66,100,0
0,62,100,0
0,57,100,0
0,50,100,0
0,42,100,0
0,38,100,0
0,38,0,15
0,42,0,0
0,69,0,45
0,66,0,0
0,38,0,0
0,66,0,0
0,81,0,0
0,50,0,0
0,62,0,0
0,66,0,0
0,57,0,0
0,62,100,0
0,62,100,0
0,66,100,0
0,62,100,0
0,57,100,0
0,50,100,0
0,67,60,0
0,79,100,0
0,42,100,0
0,42,0,15
0,62,0,15
0,79,0,0
0,57,0,0
0,67,0,0
0,66,0,0
0,50,0,0
0,66,100,0
0,62,100,0
0,57,100,0
0,50,100,0
0,74,100,0
0,62,60,0
0,62,0,30
0,62,0,0
0,57,0,0
0,62,0,0
0,66,0,0
0,62,0,0
0,50,0,0
0,74,0,0
0,62,100,0
0,55,100,0
0,48,100,0
0,48,100,0
0,64,100,0
0,62,100,0
0,55,100,0
0,52,100,0
0,48,100,0
0,36,100,0
0,64,60,0
0,76,100,0
0,48,100,0
0,36,100,0
0,49,100,0
0,49,0,15
0,36,0,0
0,48,0,0
0,48,100,5
0,48,0,15
0,48,100,5
0,48,0,15
0,62,100,5
0,48,100,0
0,48,0,15
0,48,100,5
0,48,0,10
0,55,0,0
0,52,0,0
0,62,0,0
0,62,0,0
0,64,0,0
0,55,100,0
0,64,100,0
0,62,100,0
0,55,100,0
0,52,100,0
0,48,100,0
0,48,0,5
0,48,100,5
0,48,0,15
0,52,0,5
0,76,0,0
0,64,0,0
0,64,0,0
0,55,0,0
0,62,0,0
0,55,0,0
0,48,0,0
0,62,100,0
0,64,100,0
0,62,100,0
0,55,100,0
0,52,100,0
0,48,100,0
0,48,100,0
0,48,0,15
0,62,0,15
0,55,100,0
0,55,0,30
0,48,0,0
0,55,0,0
0,48,0,0
0,62,0,0
0,48,0,0
0,64,0,0
0,52,0,0
0,36,0,0
0,62,0,0
0,67,100,0
0,62,100,0
0,55,100,0
0,47,100,0
0,47,100,0
0,62,100,0
0,55,100,0
0,50,100,0
0,47,100,0
0,35,100,0
0,48,100,0
0,36,100,0
0,49,100,0
0,49,0,15
0,36,0,0
0,48,0,0
0,48,100,5
0,55,0,10
0,62,100,0
0,48,0,5
0,48,100,5
0,48,0,15
0,62,0,5
0,55,0,0
0,50,0,0
0,47,0,0
0,62,0,0
0,55,100,0
0,62,100,0
0,55,100,0
0,50,100,0
0,47,100,0
0,48,100,0
0,48,0,15
0,48,100,5
0,50,0,10
0,55,0,0
0,62,0,0
0,47,0,0
0,62,100,0
0,55,100,0
0,47,100,0
0,50,100,0
0,48,0,5
0,48,100,5
0,48,0,15
0,55,0,5
0,55,0,0
0,62,0,0
0,47,0,0
0,50,0,0
0,62,100,0
0,62,100,0
0,55,100,0
0,50,100,0
0,47,100,0
0,48,100,0
0,48,0,15
0,48,100,5
0,48,0,15
0,48,100,5
0,48,0,15
0,47,0,5
0,62,0,0
0,55,0,0
0,47,0,0
0,35,0,0
0,62,0,0
0,47,0,0
0,55,0,0
0,62,0,0
0,67,0,0
0,50,0,0
0,67,100,0
0,62,100,0
0,55,100,0
0,52,100,0
0,45,100,0
0,45,100,0
0,55,100,0
0,64,100,0
0,60,100,0
0,57,100,0
0,52,100,0
0,45,100,0
0,33,100,0
0,47,100,0
0,47,0,15
0,47,100,5
0,55,0,10
0,62,100,0
0,47,0,5
0,47,100,5
0,47,0,15
0,33,0,5
0,52,0,0
0,64,0,0
0,57,0,0
0,60,0,0
0,45,0,0
0,62,0,0
0,55,100,0
0,64,100,0
0,60,100,0
0,57,100,0
0,52,100,0
0,45,100,0
0,41,100,0
0,47,100,0
0,47,0,15
0,57,0,15
0,60,0,0
0,64,0,0
0,45,0,0
0,52,0,0
