track,note,velocity,time
1,67,48,42
1,72,48,28
1,79,64,52
1,67,48,24
1,72,48,50
1,79,64,20
1,67,48,46
1,72,48,32
1,79,64,6
1,67,52,28
1,72,52,12
1,79,68,40
1,67,52,10
1,72,52,36
1,79,68,6
1,67,52,32
1,72,52,16
1,79,68,44
1,67,56,14
1,72,56,48
1,79,72,24
1,67,56,52
1,72,56,20
1,79,72,48
1,67,56,18
1,72,56,8
1,79,72,28
1,67,60,56
1,72,60,40
1,79,76,122
1,67,60,144
1,72,60,144
1,79,76,144
1,67,60,144
1,72,60,48
1,79,76,144
1,67,64,144
1,72,64,48
1,79,80,144
1,67,64,144
1,72,64,144
1,79,80,144
1,67,64,144
1,72,64,48
1,79,80,144
1,67,64,144
1,72,64,48
1,79,80,144
1,67,64,144
1,72,64,144
1,79,80,144
1,67,64,144
1,72,64,48
1,79,80,144
1,67,64,144
1,72,64,48
1,79,80,144
1,67,64,144
1,72,64,144
1,79,80,144
1,67,64,144
1,72,64,48
1,79,80,144
1,67,64,144
1,72,64,48
1,79,64,144
1,67,48,144
1,67,88,4
1,71,88,4
1,74,98,4
1,74,98,4
1,74,88,4
1,71,88,4
1,67,88,4
1,65,78,4
1,72,98,0
1,60,88,4
1,65,88,4
1,69,98,4
1,72,98,4
1,72,98,4
1,71,88,4
1,67,88,4
1,62,88,4
1,60,78,108
1,67,78,4
1,72,88,4
1,76,88,4
1,79,98,4
1,79,98,4
1,77,88,4
1,72,88,4
1,69,78,4
1,77,98,4
1,77,88,4
1,76,88,4
1,72,88,4
1,67,78,4
1,76,98,4
1,76,88,108
1,74,88,4
1,71,88,4
1,67,78,4
1,74,98,56
1,74,88,108
1,65,78,4
1,64,68,108
1,67,88,4
1,71,88,4
1,74,88,4
1,74,98,4
1,74,98,4
1,71,88,4
1,67,88,4
1,65,78,4
1,72,78,108
1,60,88,4
1,65,88,4
1,69,88,4
1,72,98,4
1,72,98,4
1,71,88,4
1,67,88,4
1,62,78,4
1,60,78,108
1,72,78,100
1,76,78,4
1,79,88,4
1,82,98,4
1,82,98,4
1,81,88,4
1,77,88,4
1,72,78,4
1,81,98,56
1,81,98,108
1,79,88,4
1,76,88,4
1,72,78,4
1,77,98,56
1,77,98,108
1,76,88,4
1,72,78,4
1,67,78,4
1,74,88,56
1,74,88,108
1,71,78,4
1,72,68,108
1,96,78,960
1,91,68,48
1,84,58,48
1,91,78,144
1,84,68,48
1,79,58,48
1,67,88,4
1,71,88,4
1,74,98,4
1,74,98,4
1,74,88,4
1,71,88,4
1,67,88,4
1,65,78,4
1,72,98,0
1,60,88,4
1,65,88,4
1,69,98,4
1,72,98,4
1,72,98,4
1,71,88,4
1,67,88,4
1,62,88,4
1,60,78,108
1,67,78,4
1,72,88,4
1,76,88,4
1,79,98,4
1,79,98,4
1,77,88,4
1,72,88,4
1,69,78,4
1,77,98,4
1,77,88,4
1,76,88,4
1,72,88,4
1,67,78,4
1,76,98,4
1,76,88,108
1,74,88,4
1,71,88,4
1,67,78,4
1,74,98,56
1,74,88,108
1,65,78,4
1,64,68,108
1,79,68,960
1,84,68,48
1,91,78,48
1,67,88,4
1,71,88,4
1,74,88,4
1,74,98,4
1,74,98,4
1,71,88,4
1,67,88,4
1,65,78,4
1,72,78,108
1,60,88,4
1,65,88,4
1,69,88,4
1,72,98,4
1,72,98,4
1,71,88,4
1,67,88,4
1,62,78,4
1,60,78,108
1,72,78,100
1,76,78,4
1,79,88,4
1,82,98,4
1,82,98,4
1,81,88,4
1,77,88,4
1,72,78,4
1,81,98,56
1,81,98,108
1,79,88,4
1,76,88,4
1,72,78,4
1,77,98,56
1,77,98,108
1,76,88,4
1,72,78,4
1,67,78,4
1,74,88,56
1,74,88,108
1,71,78,4
1,72,88,108
1,60,68,4
1,64,68,0
1,67,68,0
1,62,78,152
1,65,78,0
1,69,78,0
1,72,68,576
1,77,68,4
1,81,68,4
1,82,98,4
1,81,88,4
1,79,78,4
1,77,78,4
1,74,78,4
1,72,68,4
1,79,98,4
1,79,88,100
1,77,88,4
1,72,78,4
1,69,68,4
1,76,98,4
1,76,88,100
1,74,88,4
1,70,78,4
1,65,68,4
1,72,98,4
1,72,88,100
1,70,88,4
1,65,78,4
1,62,68,4
1,69,68,4
1,62,68,4
1,67,68,0
1,71,68,0
1,64,78,160
1,67,78,0
1,72,78,0
1,60,68,4
1,64,68,0
1,67,68,0
1,62,78,160
1,65,78,0
1,69,78,0
1,72,68,576
1,74,68,4
1,76,68,4
1,77,98,4
1,79,68,4
1,81,68,4
1,82,88,4
1,84,98,4
1,86,88,4
1,88,98,4
1,89,88,4
1,91,98,4
1,93,88,4
1,94,98,4
1,96,88,4
1,98,98,4
1,101,88,4
1,100,98,4
1,103,88,4
1,101,98,4
1,62,68,4
1,67,68,0
1,71,68,0
1,64,78,160
1,67,78,0
1,72,78,0
1,60,68,4
1,64,68,0
1,67,68,0
1,62,78,160
1,65,78,0
1,69,78,0
1,89,98,576
1,88,88,4
1,86,78,4
1,86,78,4
1,88,98,4
1,86,88,4
1,84,78,4
1,84,78,4
1,86,88,4
1,84,88,4
1,81,78,4
1,81,78,4
1,84,88,4
1,81,88,4
1,79,78,4
1,79,78,4
1,81,98,4
1,76,88,4
1,74,78,4
1,62,88,4
1,67,88,0
1,71,88,0
1,64,98,160
1,67,98,0
1,72,98,0
1,60,98,4
1,64,98,0
1,57,108,160
1,62,108,0
1,60,88,196
1,62,88,4
1,64,88,4
1,65,98,4
1,64,88,4
1,62,88,4
1,60,88,4
1,57,96,4
1,55,96,4
1,62,127,4
1,60,88,108
1,57,88,4
1,55,78,4
1,62,127,4
1,60,88,108
1,57,78,4
1,55,78,4
1,62,127,4
1,60,88,108
1,57,88,4
1,55,78,4
1,52,88,4
1,48,98,4
1,50,127,4
1,48,127,120
1,76,68,1732
1,77,68,4
1,79,78,4
1,79,78,4
1,79,78,4
1,79,78,4
1,79,78,4
1,79,68,4
1,77,68,4
1,76,58,20
1,72,68,168
1,74,78,4
1,76,88,4
1,76,88,4
1,76,88,4
1,74,78,4
1,72,68,4
1,67,88,4
1,72,98,4
1,71,88,4
1,69,78,4
1,69,78,4
1,72,88,164
1,67,78,8
1,72,88,164
1,65,78,8
1,62,78,164
1,64,68,236
1,67,78,272
1,72,88,4
1,76,98,4
1,77,88,4
1,74,78,4
1,79,78,4
1,76,68,20
1,77,78,232
1,76,88,4
1,74,98,4
1,72,88,4
1,71,78,4
1,72,88,4
1,67,68,20
1,67,78,232
1,65,78,4
1,64,98,4
1,65,88,96
1,67,98,96
1,65,98,4
1,64,88,96
1,62,98,96
1,60,78,4
1,62,88,96
1,64,98,96
1,62,88,4
1,60,88,4
1,57,88,96
1,55,88,96
1,59,88,4
1,62,88,0
1,60,68,12
1,64,68,0
1,67,68,32
1,72,78,4
1,76,78,4
1,77,108,4
1,76,78,4
1,74,78,4
1,72,68,12
1,74,88,32
1,69,78,64
1,67,78,12
1,67,68,4
1,69,98,158
1,67,78,4
1,65,98,4
1,67,98,32
1,65,78,4
1,64,98,4
1,65,98,4
1,64,78,4
1,62,98,4
1,64,98,4
1,62,78,4
1,60,88,4
1,64,78,20
1,67,78,4
1,72,118,4
1,71,98,24
1,69,78,4
1,72,98,4
1,65,78,42
1,72,98,4
1,62,78,16
1,71,88,50
1,72,98,4
1,72,68,8
1,76,78,56
1,77,98,4
1,76,78,72
1,77,98,4
1,76,78,148
1,74,68,4
1,67,68,62
1,72,78,4
1,76,98,56
1,74,78,72
1,72,68,4
1,74,98,10
1,72,88,4
1,71,78,4
1,72,98,4
1,67,78,88
1,64,78,12
1,60,68,8
1,62,78,84
1,64,88,36
1,60,78,36
1,65,88,12
1,64,88,4
1,62,78,4
1,60,78,4
1,55,88,24
1,57,78,4
1,60,78,108
1,62,88,56
1,60,78,32
1,60,78,4
1,64,88,4
1,67,88,4
1,72,108,4
1,71,98,68
2,60,24,4
2,67,24,0
2,60,24,816
2,67,24,0
2,60,24,432
2,67,24,0
2,60,28,432
2,67,28,0
2,60,28,528
2,67,28,0
2,60,28,432
2,67,28,0
2,60,32,432
2,67,32,0
2,60,32,528
2,67,32,0
2,60,32,432
2,67,32,0
2,60,36,432
2,67,36,0
2,60,36,528
2,67,36,0
2,60,36,432
2,67,36,0
2,60,40,432
2,67,40,0
2,60,40,528
2,67,40,0
2,60,40,432
2,67,40,0
2,60,40,432
2,67,40,0
2,60,40,528
2,67,40,0
2,60,40,432
2,67,40,0
2,60,40,432
2,67,40,0
2,60,40,528
2,67,40,0
2,60,40,432
2,67,40,0
2,60,40,432
2,67,40,0
2,53,72,956
2,57,72,0
2,55,72,580
2,59,72,4
2,57,72,4
2,55,72,4
2,59,56,4
2,60,72,108
2,59,56,388
2,62,56,0
2,57,72,4
2,60,72,0
2,60,80,24
2,57,56,4
2,60,56,0
2,55,72,4
2,52,72,4
2,53,88,4
2,55,72,300
2,56,88,4
2,57,88,204
2,50,88,4
2,55,72,204
2,48,88,108
2,55,72,388
2,59,72,0
2,57,56,100
2,60,56,0
2,65,56,0
2,57,72,152
2,60,72,0
2,65,72,0
2,57,72,4
2,60,72,0
2,55,88,4
2,60,112,0
2,59,88,4
2,57,88,4
2,55,88,4
2,54,88,4
2,53,56,4
2,55,88,108
2,55,72,580
2,59,72,0
2,62,72,0
2,57,72,4
2,60,56,4
2,65,56,0
2,60,72,152
2,65,72,0
2,57,72,196
2,60,72,0
2,55,88,4
2,52,72,4
2,53,104,4
2,55,88,300
2,56,104,4
2,57,88,204
2,50,104,4
2,55,88,204
2,48,104,108
2,31,56,480
2,32,56,4
2,33,72,4
2,34,88,116
2,43,72,40
2,36,104,160
2,33,72,52
2,34,88,160
2,43,72,40
2,36,104,160
2,33,72,52
2,34,88,160
2,43,72,40
2,36,104,160
2,31,56,472
2,32,56,4
2,33,88,8
2,34,104,160
2,36,104,3016
3,62,95,1136
3,48,111,4
3,36,79,100
3,36,111,4
3,36,79,100
3,36,111,4
3,43,79,36
3,48,111,4
3,36,79,100
3,36,111,4
3,36,79,100
3,36,111,4
3,43,79,36
3,48,111,4
3,36,79,100
3,36,111,4
3,36,79,100
3,36,111,4
3,43,79,36
3,48,111,4
3,36,79,100
3,36,111,4
3,36,79,100
3,36,111,4
3,43,79,36
3,48,111,4
3,36,79,100
3,36,111,4
3,36,79,100
3,36,111,4
3,43,79,36
3,48,111,4
3,36,79,100
3,36,111,4
3,36,79,100
3,36,111,4
3,43,79,36
3,48,111,4
3,36,79,100
3,36,111,4
3,36,79,100
3,36,111,4
3,43,79,36
3,48,111,4
3,36,79,100
3,36,111,4
3,36,79,100
3,36,111,4
3,43,79,36
3,48,111,4
3,36,79,100
3,36,111,4
3,36,79,100
3,36,111,4
3,43,79,36
3,48,111,4
3,36,79,100
3,36,111,4
3,36,79,100
3,36,111,4
3,43,79,36
3,48,111,4
3,36,79,100
3,36,111,4
3,36,79,100
3,36,95,4
3,48,111,12
3,36,79,12
3,36,111,12
3,40,95,80
3,41,111,4
3,43,95,300
3,44,111,4
3,45,95,204
3,38,79,4
3,38,95,108
3,43,79,4
3,48,111,108
3,36,79,100
3,36,111,4
3,36,79,100
3,36,111,4
3,43,79,36
3,48,111,4
3,36,79,100
3,36,111,4
3,36,79,100
3,36,111,4
3,43,79,36
3,48,111,4
3,36,79,100
3,36,111,4
3,36,79,100
3,36,111,4
3,43,79,36
3,48,111,4
3,36,79,100
3,36,111,4
3,36,79,100
3,36,111,4
3,43,79,36
3,48,111,4
3,36,79,100
3,36,111,4
3,36,79,100
3,36,111,4
3,43,79,36
3,48,111,4
3,36,79,100
3,36,111,4
3,36,79,100
3,36,111,4
3,43,79,36
3,48,111,4
3,36,79,100
3,36,111,4
3,36,79,100
3,36,111,4
3,43,79,36
3,48,111,4
3,36,79,100
3,36,111,4
3,36,79,100
3,36,111,4
3,43,79,36
3,48,111,4
3,36,79,100
3,36,111,4
3,36,79,100
3,36,95,4
3,48,111,4
3,43,95,4
3,36,79,4
3,40,95,12
3,41,111,4
3,43,95,300
3,44,111,4
3,45,95,204
3,38,111,4
3,38,79,108
3,43,95,12
3,36,111,108
3,33,95,60
3,34,111,108
3,62,95,388
3,31,95,4
3,36,111,116
3,33,95,52
3,34,111,116
3,62,95,388
3,31,95,4
3,36,111,116
3,33,95,52
3,34,111,116
3,62,95,292
3,31,95,4
3,36,111,116
3,33,95,52
3,34,111,116
3,48,95,196
3,50,79,4
3,52,95,4
3,53,79,4
3,52,95,4
3,50,79,4
3,48,95,4
3,45,79,4
3,43,79,4
3,50,127,4
3,48,95,108
3,45,79,4
3,43,79,4
3,50,127,4
3,48,95,108
3,45,79,4
3,43,79,4
3,50,127,4
3,48,95,108
3,45,79,4
3,43,95,4
3,40,111,4
3,36,111,4
3,38,127,4
3,36,127,204
3,40,95,4
3,40,79,108
3,41,95,108
3,43,95,40
3,45,111,4
3,40,95,4
3,40,79,108
3,41,95,108
3,43,95,40
3,36,111,4
3,35,95,192
3,35,79,108
3,33,95,108
3,40,95,40
3,41,111,4
3,38,95,40
3,38,79,108
3,43,95,108
3,36,111,4
3,48,95,40
3,48,111,4
3,40,95,40
3,40,79,108
3,41,95,108
3,43,95,40
3,45,111,4
3,40,95,40
3,40,79,108
3,41,95,108
3,43,95,40
3,36,111,4
3,35,95,192
3,35,79,108
3,33,95,108
3,40,95,40
3,41,111,4
3,38,95,40
3,38,79,108
3,43,95,108
3,36,111,4
3,48,95,40
3,48,111,4
3,40,95,40
3,40,79,108
3,41,95,108
3,43,95,40
3,45,111,4
3,40,95,40
3,40,79,108
3,41,95,108
3,43,95,40
3,36,111,4
3,35,95,192
3,35,79,108
3,33,95,108
3,40,95,40
3,41,111,4
3,38,95,40
3,38,79,108
3,43,95,108
3,36,111,4
3,48,95,40
3,48,111,4
3,40,95,40
3,40,79,108
3,41,95,108
3,43,95,40
3,45,111,4
3,40,95,40
3,40,79,108
3,41,95,108
3,43,95,40
3,36,111,4
3,36,95,96
3,35,95,72
3,35,79,108
3,33,95,108
3,40,95,40
3,41,111,4
3,38,95,40
3,38,79,108
3,43,95,108
3,36,111,4
3,48,95,40
3,48,111,4
3,40,95,40
3,40,79,108
3,41,95,108
3,43,95,40
3,45,111,4
3,40,95,40
3,40,79,108
3,41,95,108
3,43,95,40
3,36,111,4
3,35,95,192
3,35,79,108
3,33,95,108
3,40,95,40
3,41,111,4
3,38,95,40
3,38,79,108
3,43,95,108
3,36,111,4
3,48,95,0
3,43,95,100
3,48,111,4
4,79,81,31868
4,83,81,4
4,86,80,4
4,86,83,48
4,86,79,48
4,83,84,4
4,79,79,4
4,77,82,4
4,84,80,144
4,72,83,100
4,77,81,4
4,81,79,4
4,84,84,48
4,84,79,48
4,83,84,4
4,79,83,4
4,74,78,4
4,72,83,144
4,79,84,100
4,84,84,4
4,88,79,4
4,91,83,48
4,91,82,48
4,89,82,4
4,84,83,4
4,81,85,4
4,89,79,56
4,89,78,108
4,88,81,4
4,84,82,4
4,79,81,4
4,88,84,56
4,88,78,108
4,86,78,4
4,83,81,4
4,79,85,4
4,86,84,56
4,86,78,108
4,77,82,4
4,76,84,144
4,79,78,100
4,83,79,4
4,86,80,4
4,86,83,48
4,86,83,48
4,83,81,4
4,79,83,4
4,77,80,4
4,84,83,108
4,72,85,100
4,77,79,4
4,81,85,4
4,84,84,48
4,84,82,48
4,83,79,4
4,79,83,4
4,74,84,4
4,72,83,108
4,84,78,100
4,88,78,4
4,91,82,4
4,94,82,48
4,94,84,48
4,93,85,4
4,89,78,4
4,84,83,4
4,93,81,56
4,93,85,144
4,91,79,4
4,88,81,4
4,84,85,4
4,89,78,56
4,89,80,108
4,88,80,4
4,84,85,4
4,79,85,4
4,86,84,56
4,86,81,108
4,83,85,12
4,84,80,108
4,72,88,16324
4,74,88,4
4,76,88,4
4,77,88,4
4,76,88,4
4,74,88,48
4,72,88,4
4,69,88,4
4,67,88,4
