track,note,velocity,time
1,29,64,35964
1,41,96,104
1,29,70,100
1,41,96,100
1,29,70,100
1,41,96,100
1,29,70,100
1,41,93,100
1,29,67,96
1,41,93,104
1,29,67,100
1,41,93,100
1,29,67,100
1,41,90,100
1,29,67,100
1,41,90,100
1,29,64,96
1,41,96,104
1,29,70,100
1,41,96,100
1,29,70,100
1,41,96,100
1,29,70,100
1,41,93,100
1,29,67,96
1,41,93,104
1,29,67,100
1,41,93,100
1,29,67,100
1,41,90,100
1,29,67,100
1,41,90,100
1,29,64,96
1,41,96,104
1,29,70,100
1,41,96,100
1,29,70,100
1,41,96,100
1,29,70,100
1,41,93,100
1,29,67,96
1,41,93,104
1,29,67,100
1,41,93,100
1,29,67,100
1,41,90,100
1,29,67,100
1,41,90,100
1,29,77,96
1,41,99,104
1,29,77,100
1,41,99,100
1,29,69,100
1,41,99,100
1,29,69,100
1,41,96,100
1,29,64,1632
1,41,96,104
1,29,70,100
1,41,96,100
1,29,70,100
1,41,96,100
1,29,70,100
1,41,93,100
1,29,67,96
1,41,93,104
1,29,67,100
1,41,93,100
1,29,67,100
1,41,90,100
1,29,67,100
1,41,90,100
1,29,64,96
1,41,96,104
1,29,70,100
1,41,96,100
1,29,70,100
1,41,96,100
1,29,70,100
1,41,93,100
1,29,67,96
1,41,93,104
1,29,67,100
1,41,93,100
1,29,67,100
1,41,90,100
1,29,67,100
1,41,90,100
1,29,64,1632
1,41,96,104
1,29,70,100
1,41,96,100
1,29,70,100
1,41,96,100
1,29,70,100
1,41,93,100
1,29,67,96
1,41,93,104
1,29,67,100
1,41,93,100
1,29,67,100
1,41,90,100
1,29,67,100
1,41,90,100
1,29,64,96
1,41,96,104
1,29,70,100
1,41,96,100
1,29,70,100
1,41,96,100
1,29,70,100
1,41,93,100
1,29,67,96
1,41,93,104
1,29,67,100
1,41,93,100
1,29,67,100
1,41,90,100
1,29,67,100
1,41,90,100
1,29,64,96
1,41,96,104
1,29,70,100
1,41,96,100
1,29,70,100
1,41,96,100
1,29,70,100
1,41,93,100
1,29,67,96
1,41,93,104
1,29,67,100
1,41,93,100
1,29,67,100
1,41,90,100
1,29,67,100
1,41,90,100
1,29,64,96
1,41,96,104
1,29,70,100
1,41,96,100
1,29,70,100
1,41,96,100
1,29,70,100
1,41,93,100
1,31,67,96
1,43,93,104
1,31,67,100
1,43,93,100
1,33,67,100
1,45,90,100
1,33,67,100
1,45,90,100
1,34,64,0
1,46,96,104
1,34,70,100
1,46,96,100
1,34,70,100
1,46,96,100
1,34,70,100
1,46,93,100
1,29,67,96
1,41,93,104
1,29,67,100
1,41,93,100
1,29,67,100
1,41,90,100
1,29,67,100
1,41,90,100
1,26,64,96
1,38,96,104
1,26,70,100
1,38,96,100
1,26,70,100
1,38,96,100
1,26,70,100
1,38,93,100
1,26,67,96
1,38,93,104
1,26,67,100
1,38,93,100
1,26,67,100
1,38,90,100
1,26,67,100
1,38,90,100
1,34,64,96
1,46,96,104
1,34,70,100
1,46,96,100
1,34,70,100
1,46,96,100
1,34,70,100
1,46,93,100
1,31,67,96
1,43,93,104
1,31,67,100
1,43,93,100
1,36,67,100
1,48,90,100
1,36,67,100
1,48,90,100
1,29,64,96
1,41,96,104
1,29,70,100
1,41,96,100
1,29,70,100
1,41,96,100
1,29,70,100
1,41,93,100
1,29,64,96
1,41,96,104
1,29,70,100
1,41,96,100
1,29,70,100
1,41,96,100
1,29,70,100
1,41,93,100
1,53,96,96
1,65,96,0
1,53,96,292
1,65,96,0
1,53,96,292
1,65,96,0
1,53,93,292
1,65,93,0
1,53,96,288
1,65,96,0
1,53,96,292
1,65,96,0
1,53,96,292
1,65,96,0
1,51,93,100
1,63,93,0
1,53,93,96
1,65,93,0
1,53,93,96
1,65,93,0
1,44,96,96
1,56,96,0
1,44,96,292
1,56,96,0
1,44,96,292
1,56,96,0
1,44,93,292
1,56,93,0
1,44,93,96
1,56,93,0
1,46,96,96
1,58,96,0
1,46,96,292
1,58,96,0
1,46,96,292
1,58,96,0
1,46,93,292
1,58,93,0
1,29,78,96
1,41,104,32
1,65,96,0
1,29,78,100
1,41,114,192
1,65,96,0
1,29,75,100
1,41,106,192
1,65,96,0
1,29,78,100
1,41,87,192
1,65,93,0
1,29,72,96
1,41,98,192
1,65,96,0
1,29,75,100
1,41,89,192
1,65,96,0
1,29,75,100
1,41,91,192
1,65,96,0
1,29,89,100
1,63,93,0
1,41,89,8
1,65,93,0
1,32,75,96
1,53,75,0
1,65,75,0
1,44,104,32
1,56,96,0
1,32,81,100
1,44,104,192
1,56,96,0
1,32,78,100
1,44,106,192
1,56,96,0
1,32,78,100
1,44,87,192
1,56,93,0
1,34,69,96
1,56,69,0
1,46,98,96
1,58,96,0
1,34,72,100
1,46,89,192
1,58,96,0
1,34,72,100
1,46,91,192
1,58,96,0
1,34,68,100
1,46,89,8
1,58,93,0
1,29,78,96
1,41,104,32
1,65,96,0
1,29,78,100
1,41,114,192
1,65,96,0
1,29,75,100
1,41,106,192
1,65,96,0
1,29,78,100
1,41,87,192
1,65,93,0
1,29,72,96
1,41,98,192
1,65,96,0
1,29,75,100
1,41,89,192
1,65,96,0
1,29,75,100
1,41,91,192
1,65,96,0
1,29,89,100
1,63,93,0
1,41,89,8
1,65,93,0
1,32,75,96
1,53,75,0
1,65,75,0
1,44,104,32
1,56,96,0
1,32,81,100
1,44,104,192
1,56,96,0
1,32,78,100
1,44,106,192
1,56,96,0
1,32,78,100
1,44,87,192
1,56,93,0
1,34,69,96
1,56,69,0
1,46,98,96
1,58,96,0
1,34,72,100
1,46,89,192
1,58,96,0
1,34,72,100
1,46,91,192
1,58,96,0
1,34,68,100
1,46,89,8
1,58,93,0
1,29,78,96
1,41,104,32
1,65,96,0
1,29,78,100
1,41,114,192
1,65,96,0
1,29,75,100
1,41,106,192
1,65,96,0
1,29,78,100
1,41,87,192
1,65,93,0
1,29,72,96
1,41,98,192
1,65,96,0
1,29,75,100
1,41,89,192
1,65,96,0
1,29,75,100
1,41,91,192
1,65,96,0
1,29,89,100
1,63,93,0
1,41,89,8
1,65,93,0
1,32,75,96
1,53,75,0
1,65,75,0
1,44,104,32
1,56,96,0
1,32,81,100
1,44,104,192
1,56,96,0
1,32,78,100
1,44,106,192
1,56,96,0
1,32,78,100
1,44,87,192
1,56,93,0
1,29,78,0
1,41,104,32
1,65,96,0
1,29,78,100
1,41,114,192
1,65,96,0
1,29,75,100
1,41,106,192
1,65,96,0
1,29,78,100
1,41,87,192
1,65,93,0
1,29,72,96
1,41,98,192
1,65,96,0
1,29,75,100
1,41,89,192
1,65,96,0
1,29,75,100
1,41,91,192
1,65,96,0
1,29,89,100
1,63,93,0
1,41,89,8
1,65,93,0
1,32,75,96
1,53,75,0
1,65,75,0
1,44,104,32
1,56,96,0
1,32,81,100
1,44,104,192
1,56,96,0
1,32,78,100
1,44,106,192
1,56,96,0
1,32,78,100
1,44,87,192
1,56,93,0
1,34,69,96
1,56,69,0
1,46,98,96
1,58,96,0
1,34,72,100
1,46,89,192
1,58,96,0
1,34,72,100
1,46,91,192
1,58,96,0
1,34,68,100
1,46,89,8
1,58,93,0
1,29,78,96
1,41,104,32
1,65,96,0
1,29,78,100
1,41,114,192
1,65,96,0
1,29,75,100
1,41,106,192
1,65,96,0
1,29,78,100
1,41,87,192
1,65,93,0
1,29,72,96
1,41,98,192
1,65,96,0
1,29,75,100
1,41,89,192
1,65,96,0
1,29,75,100
1,41,91,192
1,65,96,0
1,29,89,100
1,63,93,0
1,41,89,8
1,65,93,0
1,32,75,96
1,53,75,0
1,65,75,0
1,44,104,32
1,56,96,0
1,32,81,100
1,44,104,192
1,56,96,0
1,32,78,100
1,44,106,192
1,56,96,0
1,32,78,100
1,44,87,192
1,56,93,0
1,46,105,96
1,46,69,4
1,46,98,4
1,46,105,100
1,46,69,4
1,46,98,4
1,46,105,100
1,46,69,4
1,46,98,4
1,46,105,100
1,46,69,4
1,46,98,4
1,34,116,12388
1,34,82,104
1,34,110,106
1,34,79,108
1,34,100,112
1,34,79,120
1,34,108,112
1,34,73,108
1,41,116,110
1,41,76,104
1,41,110,106
1,41,76,108
1,41,100,112
1,41,76,120
1,41,108,112
1,41,76,108
1,38,116,110
1,38,76,104
1,38,110,106
1,38,76,108
1,38,100,112
1,38,76,120
1,38,108,112
1,38,76,108
1,45,116,110
1,45,76,104
1,45,110,106
1,45,76,108
1,45,100,112
1,45,76,120
1,45,108,112
1,45,76,108
1,46,116,110
1,46,76,104
1,46,110,106
1,46,76,108
1,46,100,112
1,46,76,120
1,46,108,112
1,46,76,108
1,43,116,110
1,43,76,104
1,43,110,106
1,43,76,108
1,36,100,112
1,36,76,120
1,36,108,112
1,36,76,108
1,41,116,110
1,41,76,104
1,41,110,106
1,41,76,108
1,41,100,112
1,41,76,120
1,41,108,112
1,41,76,108
1,41,116,110
1,41,76,104
1,41,110,106
1,41,76,108
1,41,100,112
1,41,76,120
1,41,108,112
1,41,76,108
1,34,64,0
1,46,96,104
1,34,70,100
1,46,96,100
1,34,70,100
1,46,96,100
1,34,70,100
1,46,93,100
1,29,67,96
1,41,93,104
1,29,67,100
1,41,93,100
1,29,67,100
1,41,90,100
1,29,67,100
1,41,90,100
1,26,64,96
1,38,96,104
1,26,70,100
1,38,96,100
1,26,70,100
1,38,96,100
1,26,70,100
1,38,93,100
1,33,67,96
1,45,93,104
1,33,67,100
1,45,93,100
1,33,67,100
1,45,90,100
1,33,67,100
1,45,90,100
1,31,64,96
1,43,96,104
1,31,70,100
1,43,96,100
1,31,70,100
1,43,96,100
1,31,70,100
1,43,93,100
1,36,67,96
1,48,93,104
1,36,67,100
1,48,93,100
1,36,67,100
1,48,90,100
1,36,67,100
1,48,90,100
1,38,64,96
1,50,96,104
1,38,70,100
1,50,96,100
1,38,70,100
1,50,96,100
1,38,70,100
1,50,93,100
1,31,99,96
1,31,99,292
1,31,99,196
1,33,99,4
1,33,99,100
1,33,99,100
1,33,99,100
1,33,99,4
1,46,64,4
1,46,96,104
1,46,70,100
1,46,96,100
1,46,70,100
1,46,96,100
1,46,70,100
1,46,93,100
1,53,67,96
1,53,93,104
1,53,67,100
1,53,93,100
1,53,67,100
1,53,90,100
1,53,67,100
1,53,90,100
1,50,64,96
1,50,96,104
1,50,70,100
1,50,96,100
1,50,70,100
1,50,96,100
1,50,70,100
1,50,93,100
1,50,67,96
1,50,93,104
1,50,67,100
1,50,93,100
1,50,67,100
1,50,90,100
1,50,67,100
1,50,90,100
2,43,71,440
2,62,71,0
2,67,71,0
2,70,71,0
2,45,71,4
2,60,71,0
2,65,71,0
2,69,71,0
2,46,71,4
2,58,71,0
2,62,71,0
2,41,71,4
2,57,71,0
2,60,71,0
2,38,71,1536
2,50,71,0
2,45,71,4
2,57,71,0
2,60,71,0
2,64,71,0
2,43,71,6
2,55,71,0
2,58,71,0
2,62,71,0
2,45,71,24
2,57,71,0
2,60,71,0
2,64,71,0
2,46,71,22
2,58,71,0
2,62,71,0
2,65,71,0
2,48,71,380
2,60,71,0
2,64,71,0
2,67,71,0
2,50,71,118
2,57,71,0
2,62,71,0
2,67,71,0
2,66,71,760
2,43,71,4
2,62,71,0
2,67,71,0
2,70,71,0
2,45,71,4
2,60,71,0
2,65,71,0
2,69,71,0
2,46,71,4
2,58,71,0
2,62,71,0
2,65,71,0
2,41,71,4
2,53,71,0
2,57,71,0
2,60,71,0
2,38,71,4
2,50,71,0
2,53,71,0
2,57,71,0
2,65,71,8
2,62,71,4
2,50,71,4
2,54,71,0
2,66,71,0
2,53,71,4
2,58,71,0
2,46,71,4
2,62,71,0
2,43,71,4
2,55,71,0
2,58,71,0
2,62,71,8
2,48,71,4
2,55,71,0
2,60,71,0
2,64,71,0
2,41,71,4
2,60,71,0
2,65,71,0
2,69,71,0
2,77,56,100
2,60,80,0
2,65,91,6
2,89,68,36
2,88,47,2
2,86,55,1502
2,84,58,2
2,58,75,18
2,55,75,4
2,62,75,0
2,70,75,0
2,57,70,4
2,65,70,0
2,72,70,0
2,65,61,4
2,46,61,2
2,58,61,0
2,62,61,0
2,41,61,4
2,57,61,0
2,60,61,0
2,38,61,1492
2,50,61,0
2,45,61,40
2,57,61,0
2,60,61,0
2,64,61,0
2,43,61,6
2,55,61,0
2,58,61,0
2,62,61,0
2,45,61,24
2,57,61,0
2,60,61,0
2,64,61,0
2,46,61,22
2,58,61,0
2,62,61,0
2,65,61,0
2,48,61,380
2,60,61,0
2,64,61,0
2,67,61,0
2,50,61,118
2,57,61,0
2,62,61,0
2,67,61,0
2,66,61,760
2,43,61,4
2,62,61,0
2,67,61,0
2,70,61,0
2,45,61,4
2,60,61,0
2,65,61,0
2,69,61,0
2,46,61,4
2,58,61,0
2,62,61,0
2,65,61,0
2,41,61,4
2,53,61,0
2,57,61,0
2,60,61,0
2,38,61,4
2,50,61,0
2,53,61,0
2,57,61,0
2,65,61,8
2,62,61,4
2,50,61,4
2,54,61,0
2,66,61,0
2,53,61,4
2,58,61,0
2,46,61,4
2,62,61,0
2,43,61,4
2,55,61,0
2,58,61,0
2,62,61,8
2,48,61,4
2,55,61,0
2,60,61,0
2,64,61,0
2,41,61,4
2,60,61,0
2,65,61,0
2,69,61,0
2,77,46,100
2,72,72,26142
2,77,68,0
2,75,68,2
2,70,68,4
2,72,68,10
2,77,68,2
2,72,72,4
2,77,68,0
2,75,68,3030
2,68,68,8
2,72,68,10
2,77,68,2
2,65,66,44
2,46,66,8
2,58,66,0
2,62,66,0
2,41,61,4
2,57,61,0
2,60,61,0
2,38,61,1536
2,50,61,0
2,45,61,40
2,57,61,0
2,60,61,0
2,64,61,0
2,43,61,6
2,55,61,0
2,58,61,0
2,62,61,0
2,45,61,24
2,57,61,0
2,60,61,0
2,64,61,0
2,46,61,22
2,58,61,0
2,62,61,0
2,65,61,0
2,48,61,380
2,60,61,0
2,64,61,0
2,67,61,0
2,50,61,118
2,57,61,0
2,62,61,0
2,67,61,0
2,66,61,760
2,43,61,4
2,62,61,0
2,67,61,0
2,70,61,0
2,45,61,4
2,60,61,0
2,65,61,0
2,69,61,0
2,46,61,40
2,58,61,0
2,62,61,0
2,65,61,0
2,41,61,4
2,53,61,0
2,57,61,0
2,60,61,0
2,50,61,4
2,53,61,0
2,57,61,0
2,65,61,8
2,45,61,4
2,60,61,0
2,64,61,0
2,53,61,4
2,58,61,0
2,46,61,4
2,62,61,0
2,43,61,4
2,55,61,0
2,58,61,0
2,62,61,8
2,48,61,4
2,55,61,0
2,60,61,0
2,64,61,0
2,77,41,756
2,41,61,4
2,60,61,0
2,65,61,0
2,69,61,0
2,65,61,4
2,46,61,8
2,58,61,0
2,62,61,0
2,41,61,4
2,57,61,0
2,60,61,0
2,38,61,1518
2,50,61,0
2,45,61,1536
2,57,61,0
2,60,61,0
2,64,61,0
2,43,61,6
2,55,61,0
2,58,61,0
2,62,61,0
2,45,61,24
2,57,61,0
2,60,61,0
2,64,61,0
2,46,61,22
2,58,61,0
2,62,61,0
2,65,61,0
2,48,61,380
2,60,61,0
2,64,61,0
2,67,61,0
2,50,61,118
2,57,61,0
2,62,61,0
2,67,61,0
2,66,61,760
2,43,61,4
2,62,61,0
2,67,61,0
2,70,61,0
2,45,61,4
2,60,61,0
2,65,61,0
2,69,61,0
2,46,61,4
2,58,61,0
2,62,61,0
2,65,61,0
2,41,61,4
2,53,61,0
2,57,61,0
2,60,61,0
2,38,61,4
2,50,61,0
2,53,61,0
2,57,61,0
2,65,61,8
2,62,61,4
2,50,61,4
2,54,61,0
2,66,61,0
2,53,61,4
2,58,61,0
2,46,61,4
2,62,61,0
2,43,61,4
2,55,61,0
2,58,61,0
2,62,61,8
2,48,61,4
2,55,61,0
2,60,61,0
2,64,61,0
2,84,46,748
2,77,46,10
2,41,61,4
2,60,61,0
2,65,61,0
2,69,61,0
3,70,95,336
3,69,82,768
3,65,87,34
3,65,76,202
3,65,82,100
