track,note,velocity,time
2,55,52,0
2,43,57,2
2,55,0,18
2,43,0,2
2,55,47,0
2,43,55,4
2,43,0,10
2,55,0,2
2,43,72,10
2,55,76,2
2,43,0,12
2,55,0,2
2,43,81,8
2,55,82,0
2,43,0,14
2,55,0,0
2,43,100,10
2,55,98,0
2,43,0,20
2,41,89,2
2,53,87,0
2,55,0,2
2,41,0,18
2,53,0,2
2,40,94,4
2,52,92,0
2,40,0,20
2,52,0,0
2,38,82,4
2,50,87,0
2,50,0,26
2,38,0,2
2,55,29,188
2,43,45,2
2,55,0,18
2,43,0,2
2,43,57,0
2,43,0,1
2,55,63,0
2,55,0,20
2,43,72,4
2,55,78,0
2,43,0,16
2,55,0,0
2,55,87,6
2,43,83,2
2,43,0,6
2,55,0,0
2,43,94,8
2,55,96,0
2,41,84,22
2,43,0,2
2,55,0,0
2,53,82,0
2,41,0,20
2,53,0,0
2,52,94,2
2,40,98,2
2,52,0,18
2,40,0,4
2,50,94,0
2,38,94,2
2,50,0,18
2,38,0,2
2,42,90,0
2,30,75,2
2,31,92,10
2,30,0,2
2,42,0,0
2,43,100,26
2,60,107,24
2,55,104,0
2,64,102,0
2,43,0,4
2,55,0,14
2,60,0,0
2,64,0,0
2,43,72,4
2,60,100,22
2,64,98,2
2,55,96,2
2,60,0,18
2,55,0,2
2,64,0,0
2,59,92,2
2,55,87,0
2,62,90,0
2,43,0,20
2,38,94,6
2,31,0,2
2,59,0,0
2,62,0,0
2,55,0,2
2,43,98,18
2,55,87,0
2,38,0,2
2,55,0,12
2,43,0,12
2,31,94,0
2,43,104,22
2,60,98,24
2,55,90,0
2,64,94,0
2,43,0,6
2,55,0,16
2,60,0,0
2,64,0,2
2,43,104,2
2,60,92,22
2,64,94,0
2,55,89,2
2,43,0,2
2,38,98,0
2,60,0,18
2,64,0,4
2,59,87,0
2,62,84,0
2,38,0,2
2,43,107,0
2,38,82,24
2,36,86,0
2,31,0,6
2,36,0,0
2,38,0,2
2,43,0,0
2,35,98,14
2,35,0,18
2,55,0,0
2,59,0,4
2,62,0,0
2,36,90,4
2,48,115,24
2,48,0,24
2,60,98,0
2,57,107,0
2,65,94,0
2,60,0,8
2,57,0,2
2,65,0,2
2,48,79,10
2,48,0,12
2,57,98,10
2,60,100,0
2,65,98,2
2,65,0,20
2,60,0,2
2,57,0,0
2,60,92,4
2,48,92,0
2,64,89,0
2,55,94,2
2,48,0,20
2,43,98,4
2,55,0,2
2,60,0,0
2,64,0,0
2,36,0,4
2,48,107,16
2,43,0,2
2,48,0,18
2,36,92,2
2,48,90,24
2,60,100,24
2,57,94,0
2,65,96,0
2,48,0,2
2,60,0,20
2,57,0,2
2,65,0,0
2,48,109,2
2,48,0,10
2,36,0,6
2,36,31,4
2,60,96,0
2,57,92,2
2,65,92,2
2,48,109,2
2,48,0,6
2,65,0,8
2,60,0,2
2,57,0,0
2,60,82,4
2,64,92,0
2,55,89,2
2,48,109,20
2,36,0,8
2,48,0,4
2,55,0,12
2,37,96,0
2,49,85,0
2,60,0,2
2,64,0,0
2,37,0,24
2,49,0,0
2,36,96,0
2,38,109,0
2,36,0,2
2,50,109,20
2,50,0,24
2,62,100,0
2,59,100,0
2,67,107,0
2,59,0,18
2,62,0,0
2,67,0,2
2,50,92,4
2,50,0,6
2,62,100,18
2,59,96,0
2,67,102,0
2,50,96,2
2,67,0,14
2,62,0,4
2,59,0,0
2,62,83,6
2,57,73,0
2,66,80,0
2,50,0,2
2,45,89,22
2,62,0,4
2,57,0,4
2,66,0,0
2,38,0,6
2,45,0,2
2,37,82,8
2,36,90,24
2,38,90,0
2,37,0,2
2,36,0,2
2,50,104,18
2,62,98,24
2,59,96,0
2,67,102,0
2,50,0,2
2,62,0,22
2,67,0,0
2,50,109,0
2,59,0,2
2,59,102,22
2,62,102,2
2,67,104,0
2,67,0,14
2,62,0,4
2,59,0,2
2,62,81,4
2,57,79,0
2,66,80,0
2,50,0,22
2,45,100,2
2,66,0,8
2,62,0,4
2,57,0,2
2,50,100,10
2,45,0,8
2,50,0,2
2,38,0,6
2,31,102,10
2,43,109,24
2,43,0,20
2,60,96,2
2,55,92,0
2,64,100,0
2,60,0,22
2,55,0,2
2,64,0,0
2,43,109,2
2,43,0,10
2,55,89,10
2,60,94,0
2,43,107,2
2,64,98,0
2,60,0,20
2,55,0,2
2,64,0,2
2,59,87,2
2,55,84,0
2,62,87,0
2,43,0,16
2,38,86,8
2,59,0,2
2,62,0,0
2,55,0,2
2,31,0,6
2,38,0,12
2,43,109,0
2,31,90,26
2,43,0,2
2,43,115,20
2,60,104,24
2,55,100,0
2,64,102,0
2,43,0,2
2,55,0,14
2,60,0,0
2,64,0,2
2,43,104,6
2,60,102,24
2,55,98,0
2,64,100,0
2,43,0,2
2,60,0,18
2,55,0,2
2,64,0,2
2,59,90,2
2,55,84,0
2,62,89,0
2,62,0,16
2,59,0,2
2,55,0,0
2,43,107,6
2,38,102,24
2,31,0,4
2,43,0,6
2,38,0,12
2,31,98,2
2,43,109,24
2,55,104,22
2,60,104,2
2,43,0,2
2,43,98,20
2,55,0,2
2,60,0,2
2,60,109,22
2,55,107,0
2,43,0,6
2,55,0,12
2,60,0,2
2,55,86,4
2,59,86,0
2,55,0,16
2,59,0,0
2,43,104,10
2,31,0,6
2,50,76,14
2,50,0,12
2,43,0,6
2,31,100,6
2,43,107,22
2,55,89,24
2,60,98,2
2,43,0,6
2,55,0,12
2,60,0,2
2,43,94,6
2,55,104,22
2,60,107,0
2,43,0,4
2,55,0,16
2,43,33,0
2,60,0,2
2,43,0,2
2,55,82,0
2,59,98,0
2,55,0,26
2,43,100,0
2,59,0,4
2,31,0,6
2,43,0,4
2,35,87,10
2,35,0,22
2,36,96,0
2,48,104,24
2,48,0,24
2,60,59,0
2,57,76,0
2,65,83,0
2,60,0,8
2,57,0,2
2,65,0,6
2,48,98,8
2,48,0,12
2,65,76,10
2,57,77,2
2,60,84,0
2,65,0,14
2,57,0,4
2,60,0,2
2,60,83,2
2,55,92,0
2,64,75,0
2,55,0,12
2,64,0,2
2,60,0,2
2,60,94,8
2,57,89,0
2,65,100,0
2,48,90,2
2,57,0,14
2,65,0,0
2,60,0,2
2,60,89,6
2,43,73,0
2,64,92,0
2,55,89,2
2,36,0,2
2,48,0,0
2,43,0,18
2,36,100,2
2,55,0,30
2,43,70,6
2,64,0,6
2,60,0,2
2,48,79,0
2,57,60,2
2,43,0,2
2,60,74,2
2,65,100,0
2,48,0,10
2,60,0,0
2,65,0,4
2,57,0,6
2,57,79,24
2,60,86,0
2,65,72,2
2,65,0,16
2,60,0,2
2,57,0,0
2,60,94,8
2,55,102,0
2,64,94,0
2,36,0,22
2,48,100,2
2,48,0,12
2,37,87,12
2,55,0,8
2,60,0,2
2,64,0,6
2,38,83,8
2,37,0,2
2,39,37,2
2,39,0,2
2,50,82,20
2,52,94,0
2,52,0,4
2,59,63,8
2,62,77,6
2,66,90,2
2,50,0,10
2,66,0,2
2,62,0,2
2,59,0,2
2,62,67,28
2,66,62,0
2,59,77,2
2,59,0,14
2,66,0,2
2,62,0,4
2,62,70,6
2,58,80,0
2,66,68,0
2,62,0,20
2,58,0,4
2,66,0,0
2,50,94,0
2,45,79,22
2,62,83,2
2,57,87,0
2,66,76,0
2,50,0,2
2,38,0,8
2,45,0,12
2,38,98,2
2,50,107,24
2,57,0,2
2,62,0,0
2,66,0,6
2,62,90,18
2,59,94,0
2,67,86,0
2,50,0,4
2,62,0,12
2,59,0,2
2,67,0,0
2,50,102,4
2,50,0,6
2,62,79,18
2,67,82,0
2,59,74,2
2,67,0,12
2,62,0,6
2,59,0,2
2,62,84,4
2,57,84,2
2,66,82,0
2,50,109,24
2,57,0,10
2,66,0,0
2,62,0,2
2,45,94,12
2,50,0,2
2,45,0,10
2,38,0,4
2,31,90,4
2,43,87,22
2,64,86,26
2,60,90,0
2,67,87,0
2,43,0,2
2,60,0,20
2,67,0,0
2,64,0,2
2,43,81,2
2,43,0,4
2,64,96,2
2,67,89,0
2,60,94,2
2,60,0,16
2,64,0,2
2,67,0,4
2,62,84,4
2,59,92,0
2,67,92,0
2,43,98,24
2,59,0,4
2,62,0,0
2,67,0,2
2,43,0,14
2,62,86,2
2,59,86,0
2,67,92,0
2,59,0,8
2,62,0,2
2,67,0,2
2,31,0,8
2,74,102,8
2,50,71,2
2,38,81,0
2,62,72,0
2,50,0,4
2,62,0,0
2,74,0,0
2,38,0,2
2,38,88,8
2,50,88,0
2,74,104,2
2,62,83,0
2,38,0,14
2,50,0,0
2,62,0,0
2,74,0,0
2,62,91,8
2,50,94,0
2,38,93,0
2,74,102,0
2,50,0,6
2,62,0,0
2,74,0,0
2,38,0,2
2,62,96,10
2,50,106,0
2,38,95,0
2,74,101,0
2,38,0,10
2,50,0,0
2,62,0,0
2,74,0,4
2,52,106,4
2,40,104,0
2,64,106,0
2,40,0,16
2,52,0,0
2,64,0,0
2,55,106,2
2,43,99,0
2,67,108,0
2,43,0,22
2,55,0,0
2,43,95,0
2,55,98,0
2,43,0,1
2,55,0,0
2,67,0,1
2,64,98,0
2,64,0,22
2,67,92,2
2,62,100,0
2,55,100,0
2,43,96,0
2,71,86,0
2,62,0,26
2,67,0,0
2,71,0,2
2,55,0,14
2,71,72,4
2,72,76,0
2,74,69,2
2,79,75,2
2,72,0,6
2,74,0,4
2,71,0,4
2,79,0,6
2,55,102,2
2,55,0,6
2,74,87,0
2,71,84,0
2,79,86,0
2,55,104,2
2,71,0,14
2,67,66,6
2,74,0,2
2,79,0,6
2,50,52,10
2,55,0,4
2,50,0,2
2,76,89,2
2,72,109,0
2,79,92,0
2,67,0,4
2,72,0,6
2,76,0,8
2,55,62,0
2,79,0,4
2,74,82,4
2,71,87,0
2,79,56,0
2,55,0,2
2,43,0,8
2,43,92,14
2,71,0,20
2,74,0,0
2,67,66,4
2,79,0,2
2,67,0,8
2,55,109,12
2,55,0,16
2,67,73,8
2,70,45,14
2,43,0,2
2,70,0,4
2,71,107,0
2,43,90,4
2,67,0,2
2,74,55,20
2,79,94,2
2,79,0,4
2,79,89,10
2,71,0,24
2,55,107,0
2,67,73,0
2,43,0,10
2,55,0,2
2,79,0,8
2,74,0,2
2,48,90,4
2,76,76,2
2,72,92,0
2,72,0,22
2,76,0,2
2,67,0,4
2,72,98,18
2,67,96,0
2,76,84,0
2,67,0,14
2,72,0,0
2,76,0,2
2,48,0,6
2,60,90,2
2,60,0,8
2,48,94,16
2,72,86,2
2,67,84,0
2,76,75,0
2,67,0,14
2,72,0,2
2,76,0,2
2,72,94,26
2,69,82,0
2,77,90,0
2,69,0,20
2,72,0,0
2,77,0,4
2,67,100,2
2,72,87,0
2,76,76,2
2,48,0,6
2,48,89,14
2,48,0,14
2,72,0,6
2,48,82,2
2,67,0,2
2,76,0,2
2,60,75,8
2,60,0,10
2,55,70,14
2,55,0,12
2,60,90,12
2,60,0,20
2,67,100,4
2,70,108,0
2,76,89,2
2,60,87,6
2,67,0,12
2,70,0,8
2,55,71,4
2,67,78,0
2,60,0,2
2,76,0,0
2,55,0,6
2,67,0,2
2,48,0,0
2,38,96,10
2,45,64,2
2,42,65,0
2,42,0,2
2,45,0,6
2,50,89,16
2,66,100,24
2,74,98,0
2,50,0,2
2,62,107,0
2,69,102,0
2,66,0,16
2,69,0,2
2,74,0,0
2,62,0,2
2,50,83,0
2,50,0,8
2,62,92,6
2,66,96,0
2,69,94,2
2,74,87,0
2,50,92,2
2,69,0,12
2,66,0,2
2,62,0,0
2,69,56,2
2,62,87,4
2,67,96,2
2,50,0,2
2,69,0,2
2,67,0,2
2,62,0,2
2,74,0,10
2,50,98,4
2,50,0,10
2,69,84,12
2,66,85,0
2,62,89,0
2,74,87,0
2,50,98,4
2,62,0,12
2,66,0,6
2,50,0,4
2,69,0,2
2,74,0,2
2,62,89,0
2,71,84,24
2,67,86,0
2,74,89,0
2,67,0,20
2,62,0,2
2,71,0,0
2,74,0,0
2,50,92,0
2,50,0,22
2,71,100,0
2,74,89,0
2,62,100,2
2,67,100,0
2,67,0,14
2,71,0,4
2,62,0,2
2,74,0,4
2,66,100,2
2,62,84,0
2,69,92,0
2,50,107,24
2,62,0,14
2,66,0,10
2,45,90,0
2,62,89,0
2,66,48,2
2,66,0,2
2,38,0,2
2,45,0,2
2,50,0,2
2,69,0,8
2,41,83,6
2,43,68,0
2,41,0,2
2,62,0,0
2,55,102,20
2,67,100,24
2,62,109,2
2,59,118,0
2,55,0,2
2,59,0,16
2,62,0,2
2,67,0,0
2,55,86,2
2,55,0,4
2,55,62,2
2,55,0,4
2,62,100,14
2,59,104,0
2,67,100,0
2,55,75,24
2,59,0,8
2,62,0,4
2,60,94,12
2,64,77,0
2,60,0,16
2,55,0,4
2,64,0,0
2,59,94,4
2,62,81,0
2,43,0,8
2,59,0,4
2,62,0,6
2,67,0,2
2,43,74,0
2,43,0,14
2,62,74,10
2,74,74,0
2,50,74,2
2,62,0,4
2,74,0,2
2,50,0,2
2,62,74,8
2,74,74,0
2,50,74,2
2,50,0,14
2,62,0,2
2,74,0,0
2,62,74,8
2,74,74,0
2,50,74,2
2,62,0,2
2,50,0,2
2,74,0,2
2,62,74,10
2,74,74,0
2,50,74,2
2,62,0,12
2,50,0,2
2,74,0,0
2,62,74,8
2,74,74,0
2,50,74,2
2,62,0,10
2,50,0,2
2,74,0,2
2,74,74,8
2,50,74,2
2,62,74,0
2,50,0,12
2,62,0,0
2,74,0,0
2,62,74,8
2,74,74,0
2,50,74,2
2,50,0,8
2,62,0,10
2,74,0,0
2,31,87,2
2,43,94,24
2,43,0,26
2,62,72,0
2,59,73,0
2,55,73,0
2,67,78,0
2,59,0,4
2,55,0,6
2,62,0,2
2,67,0,6
2,43,92,6
2,43,0,8
2,64,75,14
2,67,87,0
2,60,92,2
2,55,89,0
2,60,0,14
2,55,0,2
2,64,0,0
2,67,0,2
2,62,77,4
2,59,84,0
2,67,77,0
2,55,77,2
2,55,0,14
2,67,0,8
2,62,0,2
2,59,0,0
2,43,94,2
2,58,100,18
2,62,104,0
2,67,87,2
2,58,0,2
2,57,77,0
2,59,90,0
2,57,0,4
2,31,0,2
2,43,0,12
2,31,98,6
2,59,0,14
2,62,0,6
2,43,102,2
2,67,0,2
2,67,100,22
2,64,104,2
2,60,102,0
2,43,0,6
2,60,0,16
2,67,0,0
2,64,0,2
2,43,86,0
2,43,0,18
2,60,98,2
2,64,98,0
2,67,98,2
2,60,0,16
2,64,0,2
2,67,0,4
2,62,89,4
2,59,83,0
2,67,90,0
2,41,90,26
2,43,112,0
2,59,0,2
2,67,0,0
2,38,59,0
2,38,0,2
2,41,0,4
2,62,0,4
2,31,0,2
2,55,109,6
2,57,90,2
2,57,0,4
2,43,0,2
2,36,92,18
2,55,0,6
2,48,115,16
2,48,0,26
2,60,109,0
2,57,104,0
2,65,107,0
2,57,0,18
2,60,0,0
2,65,0,2
2,48,98,2
2,48,0,10
2,57,107,14
2,65,104,2
2,60,112,0
2,57,0,20
2,60,0,2
2,65,0,0
2,60,90,2
2,55,86,0
2,64,63,0
2,55,0,24
2,60,0,0
2,48,102,2
2,64,0,4
2,36,0,4
2,57,102,12
2,60,109,0
2,65,100,2
2,48,0,6
2,57,0,16
2,65,0,0
2,60,0,2
2,36,94,0
2,48,112,26
2,60,107,22
2,57,104,0
2,65,102,0
2,48,0,2
2,57,0,8
2,60,0,4
2,65,0,0
2,48,90,10
2,48,0,8
2,57,100,14
2,60,104,0
2,65,98,2
2,57,0,20
2,60,0,2
2,65,0,0
2,60,72,2
2,55,82,0
2,64,70,0
2,36,0,24
2,48,109,0
2,48,0,18
2,37,87,6
2,55,0,6
2,60,0,4
2,64,0,2
2,37,0,12
2,38,109,0
2,50,115,24
2,46,57,2
2,46,0,2
2,62,100,20
2,59,98,0
2,67,100,0
2,50,0,2
2,62,0,14
2,59,0,2
