track,note,velocity,time
1,25,81,0
1,25,0,152
1,37,81,40
1,37,0,32
1,37,81,64
1,37,0,56
1,25,81,40
1,25,0,160
1,37,81,32
1,37,0,24
1,37,81,72
1,37,0,48
1,25,81,48
1,25,0,184
1,37,81,8
1,37,0,40
1,37,81,56
1,37,0,56
1,25,81,40
1,25,0,168
1,37,81,24
1,37,0,24
1,37,81,72
1,37,0,48
1,25,81,48
1,25,0,184
1,37,81,8
1,37,0,32
1,37,81,64
1,37,0,48
1,25,81,48
1,25,0,136
1,37,81,56
1,37,0,32
1,37,81,64
1,37,0,48
1,25,81,48
1,25,0,160
1,37,81,32
1,37,0,40
1,37,81,56
1,37,0,48
1,25,81,48
1,25,0,112
1,37,81,80
1,37,0,32
1,37,81,64
1,37,0,56
1,25,81,40
1,25,0,152
1,37,81,40
1,37,0,32
1,37,81,64
1,37,0,56
1,25,81,40
1,25,0,160
1,37,81,32
1,37,0,24
1,37,81,72
1,37,0,48
1,25,81,48
1,25,0,184
1,37,81,8
1,37,0,40
1,37,81,56
1,37,0,56
1,25,81,40
1,25,0,168
1,37,81,24
1,37,0,24
1,37,81,72
1,37,0,48
1,25,81,48
1,25,0,184
1,37,81,8
1,37,0,32
1,37,81,64
1,37,0,48
1,25,81,48
1,25,0,136
1,37,81,56
1,37,0,32
1,37,81,64
1,37,0,48
1,25,81,48
1,25,0,160
1,37,81,32
1,37,0,40
1,37,81,56
1,37,0,48
1,25,81,48
1,25,0,112
1,37,81,80
1,37,0,32
1,37,81,64
1,37,0,56
1,25,81,40
1,25,0,152
1,37,81,40
1,37,0,32
1,37,81,64
1,37,0,56
1,25,81,40
1,25,0,160
1,37,81,32
1,37,0,24
1,37,81,72
1,37,0,48
1,25,81,48
1,25,0,184
1,37,81,8
1,37,0,40
1,37,81,56
1,37,0,56
1,25,81,40
1,25,0,168
1,37,81,24
1,37,0,24
1,37,81,72
1,37,0,48
1,25,81,48
1,25,0,184
1,37,81,8
1,37,0,32
1,37,81,64
1,37,0,48
1,25,81,48
1,25,0,136
1,37,81,56
1,37,0,32
1,37,81,64
1,37,0,48
1,25,81,48
1,25,0,160
1,37,81,32
1,37,0,40
1,37,81,56
1,37,0,48
1,25,81,48
1,25,0,112
1,37,81,80
1,37,0,32
1,37,81,64
1,37,0,56
1,25,81,40
1,25,0,152
1,37,81,40
1,37,0,32
1,37,81,64
1,37,0,56
1,25,81,40
1,25,0,160
1,37,81,32
1,37,0,24
1,37,81,72
1,37,0,48
1,25,81,48
1,25,0,184
1,37,81,8
1,37,0,40
1,37,81,56
1,37,0,56
1,25,81,40
1,25,0,168
1,37,81,24
1,37,0,24
1,37,81,72
1,37,0,48
1,25,81,48
1,25,0,184
1,37,81,8
1,37,0,32
1,37,81,64
1,37,0,48
1,25,81,48
1,25,0,136
1,37,81,56
1,37,0,32
1,37,81,64
1,37,0,48
1,25,81,48
1,25,0,160
1,37,81,32
1,37,0,40
1,37,81,56
1,37,0,48
1,25,81,48
1,25,0,112
1,37,81,80
1,37,0,32
1,37,81,64
1,37,0,56
1,25,81,40
1,25,0,152
1,37,81,40
1,37,0,32
1,37,81,64
1,37,0,56
1,25,81,40
1,25,0,160
1,37,81,32
1,37,0,24
1,37,81,72
1,37,0,48
1,25,81,48
1,25,0,184
1,37,81,8
1,37,0,40
1,37,81,56
1,37,0,56
1,25,81,40
1,25,0,168
1,37,81,24
1,37,0,24
1,37,81,72
1,37,0,48
1,25,81,48
1,25,0,184
1,37,81,8
1,37,0,32
1,37,81,64
1,37,0,48
1,25,81,48
1,25,0,136
1,37,81,56
1,37,0,32
1,37,81,64
1,37,0,48
1,25,81,48
1,25,0,160
1,37,81,32
1,37,0,40
1,37,81,56
1,37,0,48
1,25,81,48
1,25,0,112
1,37,81,80
1,37,0,32
1,37,81,64
1,37,0,56
1,25,81,40
1,25,0,152
1,37,81,40
1,37,0,32
1,37,81,64
1,37,0,56
1,25,81,40
1,25,0,160
1,37,81,32
1,37,0,24
1,37,81,72
1,37,0,48
1,25,81,48
1,25,0,184
1,37,81,8
1,37,0,40
1,37,81,56
1,37,0,56
1,25,81,40
1,25,0,168
1,37,81,24
1,37,0,24
1,37,81,72
1,37,0,48
1,25,81,1584
1,25,0,152
1,37,81,40
1,37,0,32
1,37,81,64
1,37,0,56
1,25,81,40
1,25,0,160
1,37,81,32
1,37,0,24
1,37,81,72
1,37,0,48
1,25,81,48
1,25,0,184
1,37,81,8
1,37,0,40
1,37,81,56
1,37,0,56
1,25,81,40
1,25,0,168
1,37,81,24
1,37,0,24
1,37,81,72
1,37,0,48
1,25,81,48
1,25,0,184
1,37,81,8
1,37,0,32
1,37,81,64
1,37,0,48
1,25,81,48
1,25,0,136
1,37,81,56
1,37,0,32
1,37,81,64
1,37,0,48
1,25,81,48
1,25,0,160
1,37,81,32
1,37,0,40
1,37,81,56
1,37,0,48
1,25,81,48
1,25,0,112
1,37,81,80
1,37,0,32
1,37,81,64
1,37,0,56
1,25,81,40
1,25,0,152
1,37,81,40
1,37,0,32
1,37,81,64
1,37,0,56
1,25,81,40
1,25,0,160
1,37,81,32
1,37,0,24
1,37,81,72
1,37,0,48
1,25,81,48
1,25,0,184
1,37,81,8
1,37,0,40
1,37,81,56
1,37,0,56
1,25,81,40
1,25,0,168
1,37,81,24
1,37,0,24
1,37,81,72
1,37,0,48
1,25,81,1584
1,37,81,192
1,25,0,8
1,37,0,24
1,37,81,64
1,37,0,56
1,25,81,40
1,37,81,192
1,25,0,16
1,37,0,24
1,37,81,56
1,37,0,48
1,25,81,48
1,25,0,160
1,37,81,32
1,37,0,32
1,37,81,64
1,37,0,56
1,25,81,40
1,37,81,192
1,25,0,24
1,37,0,24
1,37,81,48
1,37,0,56
1,30,81,40
1,30,0,168
1,42,81,24
1,42,0,32
1,42,81,64
1,42,0,48
1,30,81,48
1,42,81,192
1,30,0,8
1,42,0,32
1,42,81,56
1,42,0,48
1,30,81,48
1,42,81,192
1,30,0,24
1,42,0,8
1,42,81,64
1,42,0,56
1,30,81,40
1,42,81,0
1,30,0,8
1,42,0,8
1,42,81,56
1,42,0,48
1,25,81,48
1,25,0,168
1,37,81,24
1,37,0,40
1,37,81,56
1,37,0,56
1,25,81,40
1,25,0,192
1,37,81,0
1,37,0,40
1,37,81,56
1,37,0,56
1,25,81,40
1,25,0,176
1,37,81,16
1,37,0,32
1,37,81,64
1,37,0,64
1,25,81,32
1,37,81,192
1,37,0,40
1,25,0,0
1,37,81,56
1,37,0,48
1,30,81,48
1,30,0,176
1,42,81,16
1,42,0,32
1,42,81,64
1,42,0,56
1,30,81,40
1,42,81,192
1,30,0,16
1,42,0,16
1,42,81,64
1,42,0,48
1,32,81,48
1,32,0,80
1,44,81,0
1,44,0,32
1,44,81,64
1,44,0,56
1,32,81,40
1,32,0,184
1,44,81,8
1,44,0,32
1,44,81,64
1,44,0,72
1,25,81,24
1,37,81,192
1,25,0,8
1,37,0,24
1,37,81,64
1,37,0,56
1,25,81,40
1,37,81,192
1,25,0,16
1,37,0,24
1,37,81,56
1,37,0,48
1,25,81,48
1,25,0,160
1,37,81,32
1,37,0,32
1,37,81,64
1,37,0,56
1,25,81,40
1,37,81,192
1,25,0,24
1,37,0,24
1,37,81,48
1,37,0,56
1,30,81,40
1,30,0,168
1,42,81,24
1,42,0,32
1,42,81,64
1,42,0,48
1,30,81,48
1,42,81,192
1,30,0,8
1,42,0,32
1,42,81,56
1,42,0,48
1,30,81,48
1,42,81,192
1,30,0,24
1,42,0,8
1,42,81,64
1,42,0,56
1,30,81,40
1,42,81,0
1,30,0,8
1,42,0,8
1,42,81,56
1,42,0,48
1,25,81,48
1,25,0,168
1,37,81,24
1,37,0,40
1,37,81,56
1,37,0,56
1,25,81,40
1,25,0,192
1,37,81,0
1,37,0,40
1,37,81,56
1,37,0,56
1,25,81,40
1,25,0,176
1,37,81,16
1,37,0,32
1,37,81,64
1,37,0,64
1,25,81,32
1,37,81,192
1,37,0,40
1,25,0,0
1,37,81,56
1,37,0,48
1,30,81,48
1,30,0,176
1,42,81,16
1,42,0,32
1,42,81,64
1,42,0,56
1,30,81,40
1,42,81,192
1,30,0,16
1,42,0,16
1,42,81,64
1,42,0,48
1,32,81,48
1,32,0,80
1,44,81,0
1,44,0,32
1,44,81,64
1,44,0,56
1,32,81,40
1,32,0,184
1,44,81,8
1,44,0,32
1,44,81,64
1,44,0,72
1,25,81,24
1,37,81,192
1,25,0,8
1,37,0,24
1,37,81,64
1,37,0,56
1,25,81,40
1,37,81,192
1,25,0,16
1,37,0,24
1,37,81,56
1,37,0,48
1,25,81,48
1,25,0,160
1,37,81,32
1,37,0,32
1,37,81,64
1,37,0,56
1,25,81,40
1,37,81,192
1,25,0,24
1,37,0,24
1,37,81,48
1,37,0,56
1,30,81,40
1,30,0,168
1,42,81,24
1,42,0,32
1,42,81,64
1,42,0,48
1,30,81,48
1,42,81,192
1,30,0,8
1,42,0,32
1,42,81,56
1,42,0,48
1,30,81,48
1,42,81,192
1,30,0,24
1,42,0,8
1,42,81,64
1,42,0,56
1,30,81,40
1,42,81,0
1,30,0,8
1,42,0,8
1,42,81,56
1,42,0,48
1,25,81,48
1,25,0,168
1,37,81,24
1,37,0,40
1,37,81,56
1,37,0,56
1,25,81,40
1,25,0,192
1,37,81,0
1,37,0,40
1,37,81,56
1,37,0,56
1,25,81,40
1,25,0,176
1,37,81,16
1,37,0,32
1,37,81,64
1,37,0,64
1,25,81,32
1,37,81,192
1,37,0,40
1,25,0,0
1,37,81,56
1,37,0,48
1,30,81,48
1,30,0,176
1,42,81,16
1,42,0,32
1,42,81,64
1,42,0,56
1,30,81,40
1,42,81,192
1,30,0,16
1,42,0,16
1,42,81,64
1,42,0,48
1,32,81,48
1,32,0,80
1,44,81,0
1,44,0,32
1,44,81,64
1,44,0,56
1,32,81,40
1,32,0,184
1,44,81,8
1,44,0,32
1,44,81,64
1,44,0,72
1,25,81,24
1,37,81,192
1,25,0,8
1,37,0,24
1,37,81,64
1,37,0,56
1,25,81,40
1,37,81,192
1,25,0,16
1,37,0,24
1,37,81,56
1,37,0,48
1,25,81,48
1,25,0,160
1,37,81,32
1,37,0,32
1,37,81,64
1,37,0,56
1,25,81,40
1,37,81,192
1,25,0,24
1,37,0,24
1,37,81,48
1,37,0,56
1,30,81,40
1,30,0,168
1,42,81,24
1,42,0,32
1,42,81,64
1,42,0,48
1,30,81,48
1,42,81,192
1,30,0,8
1,42,0,32
1,42,81,56
1,42,0,48
1,30,81,48
1,42,81,192
1,30,0,24
1,42,0,8
1,42,81,64
1,42,0,56
1,30,81,40
1,42,81,0
1,30,0,8
1,42,0,8
1,42,81,56
1,42,0,48
1,25,81,48
1,25,0,168
1,37,81,24
1,37,0,40
1,37,81,56
1,37,0,56
1,25,81,40
1,25,0,192
1,37,81,0
1,37,0,40
1,37,81,56
1,37,0,56
1,25,81,40
1,25,0,176
1,37,81,16
1,37,0,32
1,37,81,64
1,37,0,64
1,25,81,32
1,37,81,192
1,37,0,40
1,25,0,0
1,37,81,56
1,37,0,48
1,30,81,48
1,30,0,176
1,42,81,16
1,42,0,32
1,42,81,64
1,42,0,56
1,30,81,40
1,42,81,192
1,30,0,16
1,42,0,16
1,42,81,64
1,42,0,48
1,32,81,48
1,32,0,80
1,44,81,0
1,44,0,32
1,44,81,64
1,44,0,56
1,32,81,40
1,32,0,184
1,44,81,8
1,44,0,32
1,44,81,64
1,44,0,72
1,25,81,24
1,37,81,192
1,25,0,8
1,37,0,24
1,37,81,64
1,37,0,56
1,25,81,40
1,37,81,192
1,25,0,16
1,37,0,24
1,37,81,56
1,37,0,48
1,25,81,48
1,25,0,160
1,37,81,32
1,37,0,32
1,37,81,64
1,37,0,56
1,25,81,40
1,37,81,192
1,25,0,24
1,37,0,24
1,37,81,48
1,37,0,56
1,30,81,40
1,30,0,168
1,42,81,24
1,42,0,32
1,42,81,64
1,42,0,48
1,30,81,48
1,42,81,192
1,30,0,8
1,42,0,32
1,42,81,56
1,42,0,48
1,30,81,48
1,42,81,192
1,30,0,24
1,42,0,8
1,42,81,64
1,42,0,56
1,30,81,40
1,42,81,0
1,30,0,8
1,42,0,8
1,42,81,56
1,42,0,48
1,25,81,48
1,25,0,168
1,37,81,24
1,37,0,40
1,37,81,56
1,37,0,56
1,25,81,40
1,25,0,192
1,37,81,0
1,37,0,40
1,37,81,56
1,37,0,56
1,25,81,40
1,25,0,176
1,37,81,16
1,37,0,32
1,37,81,64
1,37,0,64
1,25,81,32
1,37,81,192
1,37,0,40
1,25,0,0
1,37,81,56
1,37,0,48
1,30,81,48
1,30,0,176
1,42,81,16
1,42,0,32
1,42,81,64
1,42,0,56
1,30,81,40
1,42,81,192
1,30,0,16
1,42,0,16
1,42,81,64
1,42,0,48
1,32,81,48
1,32,0,80
1,44,81,0
1,44,0,32
1,44,81,64
1,44,0,56
1,32,81,40
1,32,0,184
1,44,81,8
1,44,0,32
1,44,81,64
1,44,0,72
1,25,81,24
1,37,81,192
1,25,0,8
1,37,0,24
1,37,81,64
1,37,0,56
1,25,81,40
1,37,81,192
1,25,0,16
1,37,0,24
1,37,81,56
1,37,0,48
1,25,81,48
1,25,0,160
1,37,81,32
1,37,0,32
1,37,81,64
1,37,0,56
1,25,81,40
1,37,81,192
1,25,0,24
1,37,0,24
1,37,81,48
1,37,0,56
1,30,81,40
1,30,0,168
1,42,81,24
1,42,0,32
1,42,81,64
1,42,0,48
1,30,81,48
1,42,81,192
1,30,0,8
1,42,0,32
1,42,81,56
1,42,0,48
1,30,81,48
1,42,81,192
1,30,0,24
1,42,0,8
1,42,81,64
1,42,0,56
1,30,81,40
1,42,81,0
1,30,0,8
1,42,0,8
1,42,81,56
1,42,0,48
1,25,81,48
1,25,0,168
1,37,81,24
1,37,0,40
1,37,81,56
1,37,0,56
1,25,81,40
1,25,0,192
1,37,81,0
1,37,0,40
1,37,81,56
1,37,0,56
1,25,81,40
1,25,0,176
1,37,81,16
1,37,0,32
1,37,81,64
1,37,0,64
1,25,81,32
1,37,81,192
1,37,0,40
1,25,0,0
1,37,81,56
1,37,0,48
1,30,81,48
1,30,0,176
1,42,81,16
1,42,0,32
1,42,81,64
1,42,0,56
1,30,81,40
1,42,81,192
1,30,0,16
1,42,0,16
1,42,81,64
1,42,0,48
1,32,81,48
1,32,0,80
1,44,81,0
1,44,0,32
1,44,81,64
1,44,0,56
1,32,81,40
1,32,0,184
1,44,81,8
1,44,0,32
1,44,81,64
1,44,0,72
1,25,81,24
1,37,81,192
1,25,0,8
1,37,0,24
1,37,81,64
1,37,0,56
1,25,81,40
1,37,81,192
1,25,0,16
1,37,0,24
1,37,81,56
1,37,0,48
1,25,81,48
1,25,0,160
1,37,81,32
1,37,0,32
1,37,81,64
1,37,0,56
1,25,81,40
1,37,81,192
1,25,0,24
1,37,0,24
1,37,81,48
1,37,0,56
1,30,81,40
1,30,0,168
1,42,81,24
1,42,0,32
1,42,81,64
1,42,0,48
1,30,81,48
1,42,81,192
1,30,0,8
1,42,0,32
1,42,81,56
1,42,0,48
1,30,81,48
1,42,81,192
1,30,0,24
1,42,0,8
1,42,81,64
1,42,0,56
1,30,81,40
1,42,81,0
1,30,0,8
1,42,0,8
1,42,81,56
1,42,0,48
1,25,81,48
1,25,0,168
1,37,81,24
1,37,0,40
1,37,81,56
1,37,0,56
1,25,81,40
1,25,0,192
1,37,81,0
1,37,0,40
1,37,81,56
1,37,0,56
1,25,81,40
1,25,0,176
1,37,81,16
1,37,0,32
1,37,81,64
1,37,0,64
1,25,81,32
1,37,81,192
1,37,0,40
1,25,0,0
1,37,81,56
1,37,0,48
1,30,81,48
1,30,0,176
1,42,81,16
1,42,0,32
1,42,81,64
1,42,0,56
1,30,81,40
1,42,81,192
1,30,0,16
1,42,0,16
1,42,81,64
1,42,0,48
1,32,81,48
1,32,0,80
1,44,81,0
1,44,0,32
