track,note,velocity,time
0,38,125,617
0,38,0,20
0,38,125,28
0,38,0,21
0,38,124,27
0,38,0,20
0,38,124,28
0,38,0,24
0,38,124,24
0,38,0,22
0,38,125,26
0,38,0,22
0,38,125,26
0,38,0,22
0,38,125,26
0,38,0,23
0,40,127,25
0,52,126,0
0,47,127,0
0,40,127,0
0,40,127,0
0,47,127,0
0,52,126,0
0,36,125,0
0,42,125,0
0,36,0,26
0,42,0,6
0,40,0,45
0,47,0,19
0,52,0,0
0,47,0,0
0,40,0,0
0,52,0,0
0,40,0,0
0,47,126,0
0,40,126,0
0,40,127,0
0,36,125,0
0,52,127,0
0,42,81,0
0,52,127,0
0,40,126,0
0,47,126,0
0,42,0,25
0,36,0,0
0,52,0,49
0,40,0,13
0,47,0,0
0,52,0,0
0,40,0,5
0,40,0,3
0,39,125,1
0,42,124,0
0,38,125,0
0,47,0,6
0,39,0,17
0,38,0,1
0,42,0,1
0,52,127,167
0,47,127,0
0,40,127,0
0,52,127,0
0,47,127,0
0,40,126,0
0,42,124,0
0,40,127,0
0,36,124,0
0,36,0,24
0,42,0,6
0,40,0,56
0,47,0,10
0,47,0,0
0,40,0,0
0,40,0,0
0,52,0,0
0,52,0,0
0,47,127,0
0,52,127,0
0,47,127,0
0,40,126,0
0,40,126,0
0,52,127,0
0,40,126,0
0,42,92,0
0,36,124,0
0,42,0,24
0,36,0,1
0,40,0,45
0,52,0,0
0,47,0,3
0,52,0,2
0,47,0,16
0,40,0,2
0,38,124,3
0,39,125,0
0,42,125,0
0,40,0,13
0,39,0,7
0,38,0,4
0,42,0,3
0,43,127,21
0,43,126,0
0,43,0,5
0,52,126,6
0,45,125,0
0,45,126,0
0,52,127,0
0,36,124,0
0,42,125,0
0,33,125,0
0,57,127,0
0,57,127,0
0,43,0,5
0,36,0,2
0,42,0,1
0,33,0,48
0,45,0,20
0,45,0,0
0,57,0,0
0,57,0,0
0,52,0,0
0,52,0,0
0,45,125,0
0,57,125,0
0,45,124,0
0,42,101,0
0,57,127,0
0,33,127,0
0,52,127,0
0,36,125,0
0,52,126,0
0,42,0,22
0,36,0,3
0,33,0,58
0,52,0,2
0,45,0,2
0,45,0,2
0,57,0,0
0,52,0,2
0,57,0,5
0,39,124,0
0,42,125,0
0,38,125,0
0,39,0,23
0,38,0,2
0,42,0,4
0,36,125,163
0,54,126,0
0,35,127,0
0,42,124,0
0,59,127,0
0,54,126,0
0,47,126,0
0,59,126,0
0,47,127,0
0,36,0,25
0,42,0,5
0,35,0,52
0,47,0,14
0,54,0,0
0,59,0,0
0,47,0,0
0,54,0,0
0,59,0,0
0,42,85,0
0,59,126,0
0,47,125,0
0,59,127,0
0,54,127,0
0,36,125,0
0,35,127,0
0,54,126,0
0,47,127,0
0,42,0,21
0,36,0,3
0,54,0,44
0,47,0,11
0,59,0,0
0,54,0,4
0,59,0,8
0,35,0,0
0,38,125,5
0,39,124,0
0,42,125,0
0,47,0,1
0,39,0,18
0,42,0,5
0,38,0,3
0,43,126,21
0,43,126,0
0,43,0,3
0,47,124,2
0,52,127,0
0,42,125,0
0,52,127,0
0,40,125,0
0,36,125,0
0,47,126,0
0,40,127,0
0,40,127,0
0,43,0,1
0,36,0,5
0,42,0,2
0,40,0,48
0,40,0,19
0,52,0,0
0,40,0,0
0,47,0,0
0,52,0,0
0,47,0,0
0,40,126,0
0,42,100,0
0,40,127,0
0,40,126,0
0,47,126,0
0,52,126,0
0,52,126,0
0,36,124,0
0,47,127,0
0,42,0,19
0,36,0,6
0,52,0,51
0,40,0,10
0,52,0,0
0,40,0,6
0,47,0,3
0,38,125,1
0,39,124,0
0,42,125,0
0,40,0,5
0,47,0,9
0,39,0,7
0,38,0,7
0,42,0,1
0,42,125,163
0,52,126,0
0,47,127,0
0,40,126,0
0,47,124,0
0,36,125,0
0,40,127,0
0,52,126,0
0,40,126,0
0,36,0,26
0,42,0,6
0,40,0,54
0,47,0,10
0,47,0,0
0,40,0,0
0,52,0,0
0,52,0,0
0,40,0,0
0,47,124,0
0,36,125,0
0,42,92,0
0,40,127,0
0,52,126,0
0,40,126,0
0,40,126,0
0,52,127,0
0,47,127,0
0,42,0,22
0,36,0,2
0,52,0,50
0,40,0,0
0,52,0,3
0,47,0,14
0,40,0,2
0,38,124,3
0,39,125,0
0,42,125,0
0,47,0,1
0,40,0,8
0,39,0,15
0,42,0,1
0,38,0,3
0,43,126,20
0,43,127,0
0,43,0,2
0,43,0,3
0,45,124,2
0,57,125,0
0,33,125,0
0,57,126,0
0,52,126,0
0,36,125,0
0,42,125,0
0,45,123,0
0,52,127,0
0,36,0,5
0,42,0,1
0,33,0,45
0,52,0,20
0,57,0,0
0,57,0,0
0,45,0,0
0,45,0,0
0,52,0,0
0,33,126,0
0,45,123,0
0,52,126,0
0,57,127,0
0,42,80,0
0,52,126,0
0,57,122,0
0,45,124,0
0,36,124,0
0,42,0,22
0,36,0,5
0,57,0,50
0,52,0,0
0,45,0,4
0,33,0,2
0,57,0,8
0,45,0,0
0,52,0,0
0,38,125,5
0,42,124,0
0,39,125,0
0,39,0,22
0,38,0,4
0,42,0,2
0,59,126,164
0,54,126,0
0,47,125,0
0,36,125,0
0,54,126,0
0,42,125,0
0,47,127,0
0,35,127,0
0,36,0,24
0,42,0,9
0,35,0,49
0,47,0,0
0,54,0,7
0,54,0,0
0,59,0,5
0,40,126,2
0,52,126,0
0,47,126,0
0,42,77,0
0,40,127,0
0,36,125,0
0,36,0,24
0,42,0,6
0,47,0,35
0,52,0,7
0,40,0,10
0,47,0,3
0,40,0,2
0,64,126,9
0,59,124,0
0,52,126,0
0,52,126,0
0,42,124,0
0,59,126,0
0,36,124,0
0,40,127,0
0,64,126,0
0,36,0,23
0,42,0,4
0,40,0,42
0,59,0,27
0,59,0,0
0,52,0,0
0,64,0,0
0,52,0,0
0,64,0,0
0,52,122,0
0,42,93,0
0,36,125,0
0,59,126,0
0,64,127,0
0,59,122,0
0,64,126,0
0,40,126,0
0,52,126,0
0,36,0,24
0,42,0,1
0,52,0,49
0,59,0,0
0,64,0,3
0,64,0,5
0,40,0,4
0,59,0,6
0,42,124,4
0,39,125,0
0,38,125,0
0,52,0,4
0,39,0,19
0,38,0,2
0,42,0,4
0,42,125,163
0,36,125,0
0,36,0,24
0,42,0,6
0,42,84,66
0,36,124,0
0,42,0,20
0,36,0,5
0,39,125,71
0,38,124,0
0,42,125,0
0,39,0,22
0,38,0,4
0,42,0,2
0,36,124,164
0,52,126,0
0,52,125,0
0,64,127,0
0,64,126,0
0,59,127,0
0,40,126,0
0,59,127,0
0,42,124,0
0,36,0,25
0,42,0,4
0,40,0,50
0,59,0,17
0,52,0,0
0,64,0,0
0,59,0,0
0,52,0,0
0,64,0,0
0,36,125,0
0,64,127,0
0,42,96,0
0,59,126,0
0,64,126,0
0,52,127,0
0,52,124,0
0,59,126,0
0,40,127,0
0,42,0,22
0,36,0,4
0,52,0,44
0,64,0,2
0,59,0,1
0,64,0,0
0,40,0,16
0,39,124,7
0,42,124,0
0,38,125,0
0,59,0,3
0,52,0,1
0,38,0,20
0,39,0,0
0,42,0,5
0,74,126,3
0,36,125,1
0,38,127,0
0,42,124,0
0,50,126,0
0,36,0,2
0,42,0,4
0,38,0,3
0,74,0,10
0,71,126,1
0,42,85,4
0,35,120,0
0,47,125,0
0,36,124,0
0,50,0,4
0,42,0,6
0,36,0,5
0,47,0,46
0,71,0,3
0,35,0,4
0,69,127,13
0,38,125,5
0,33,125,0
0,45,122,0
0,42,124,0
0,39,125,0
0,39,0,14
0,42,0,2
0,38,0,3
0,69,0,10
0,33,0,2
0,67,127,2
0,43,126,2
0,31,126,0
0,45,0,1
0,74,123,5
0,74,0,3
0,31,0,3
0,64,126,3
0,52,126,0
0,36,125,0
0,59,126,0
0,76,127,0
0,52,126,0
0,47,127,0
0,40,127,0
0,28,127,0
0,42,124,0
0,43,0,1
0,67,0,1
0,36,0,6
0,42,0,23
0,28,0,28
0,52,0,20
0,52,0,0
0,59,0,0
0,64,0,0
0,47,0,0
0,40,0,0
0,52,127,0
0,36,124,0
0,64,127,0
0,59,126,0
0,74,124,0
0,28,126,0
0,47,126,0
0,40,126,0
0,42,77,0
0,52,125,0
0,76,0,1
0,36,0,25
0,42,0,2
0,47,0,50
0,59,0,8
0,52,0,1
0,40,0,1
0,52,0,0
0,64,0,2
0,28,0,3
0,74,0,0
0,42,125,3
0,71,126,0
0,38,124,0
0,39,125,0
0,39,0,22
0,38,0,6
0,42,0,9
0,71,0,38
0,67,124,21
0,67,0,24
0,69,127,24
0,36,125,48
0,42,124,0
0,36,0,29
0,42,0,8
0,69,0,28
0,36,124,31
0,42,84,0
0,69,119,0
0,69,0,26
0,36,0,4
0,42,0,1
0,69,123,17
0,69,0,23
0,42,124,25
0,69,123,0
0,39,125,0
0,38,124,0
0,39,0,26
0,38,0,2
0,69,0,0
0,42,0,7
0,69,126,13
0,69,0,30
0,67,127,18
0,67,0,53
0,64,126,6
0,52,126,0
0,59,124,0
0,52,124,0
0,40,127,0
0,47,127,0
0,42,125,0
0,71,127,0
0,40,126,0
0,36,125,0
0,36,0,3
0,42,0,5
0,40,0,35
0,59,0,19
0,47,0,0
0,52,0,0
0,40,0,0
0,52,0,0
0,64,0,0
0,52,122,0
0,47,126,0
0,40,126,0
0,40,126,0
0,42,81,0
0,36,124,0
0,64,126,0
0,59,126,0
0,52,122,0
0,42,0,25
0,36,0,4
0,47,0,47
0,52,0,5
0,40,0,7
0,59,0,6
0,40,0,0
0,39,124,2
0,42,124,0
0,38,125,0
0,64,0,5
0,52,0,7
0,39,0,14
0,38,0,0
0,42,0,8
0,71,0,58
0,74,126,8
0,42,124,2
0,38,126,0
0,50,126,0
0,36,124,0
0,36,0,2
0,42,0,2
0,50,0,1
0,74,0,3
0,38,0,1
0,71,126,1
0,36,124,8
0,35,126,0
0,47,126,0
0,42,85,0
0,42,0,29
0,36,0,1
0,71,0,27
0,35,0,14
0,47,0,10
0,69,123,12
0,33,124,2
0,42,124,0
0,45,124,0
0,38,125,0
0,39,125,0
0,39,0,14
0,38,0,3
0,42,0,6
0,33,0,2
0,69,0,12
0,45,0,1
0,67,126,0
0,43,124,1
0,31,127,0
0,74,123,1
0,74,0,2
0,31,0,3
0,43,0,2
0,67,0,0
0,76,126,2
0,47,126,0
0,64,127,0
0,28,126,0
0,52,126,0
0,40,127,0
0,36,124,0
0,52,126,0
0,59,126,0
0,42,124,0
0,36,0,11
0,42,0,6
0,28,0,34
0,76,0,22
0,40,0,3
0,64,0,0
0,52,0,0
0,59,0,0
0,52,0,0
0,47,0,0
0,64,126,0
0,40,126,0
0,59,126,0
0,36,125,0
0,42,80,0
0,47,127,0
0,28,126,0
0,74,127,0
0,52,123,0
0,52,127,0
0,42,0,28
0,36,0,0
0,74,0,40
0,47,0,10
0,40,0,10
0,52,0,0
0,64,0,3
0,59,0,5
0,42,124,0
0,38,124,0
0,39,125,0
0,71,127,0
0,28,0,3
0,52,0,7
0,39,0,13
0,38,0,3
0,42,0,9
0,71,0,37
0,67,124,24
0,67,0,27
0,69,127,21
0,36,124,48
0,42,124,0
0,69,0,15
0,36,0,15
0,42,0,1
0,69,121,17
0,69,0,18
0,69,126,30
0,42,100,0
0,36,124,0
0,42,0,26
0,36,0,6
0,69,0,50
0,74,126,14
0,39,124,0
0,42,124,0
0,38,125,0
0,39,0,24
0,38,0,3
0,42,0,6
0,74,0,9
0,69,127,6
0,69,0,118
0,71,125,5
0,54,127,0
0,47,123,0
0,35,127,0
0,59,127,0
0,54,126,0
0,47,126,0
0,36,125,0
0,59,127,0
0,42,124,0
0,36,0,3
0,42,0,2
0,35,0,45
0,59,0,15
0,54,0,0
0,54,0,0
0,47,0,0
0,59,0,0
0,47,0,0
0,54,127,0
0,35,127,0
0,36,125,0
0,42,81,0
0,47,127,0
0,54,126,0
0,47,122,0
0,59,122,0
0,59,126,0
0,42,0,28
0,36,0,1
0,47,0,40
0,54,0,7
0,59,0,5
0,35,0,6
0,54,0,5
0,42,125,4
0,39,125,0
0,38,124,0
0,59,0,1
0,47,0,10
0,39,0,11
0,38,0,5
0,42,0,3
0,71,0,64
0,74,126,2
0,50,126,2
0,42,125,0
0,38,126,0
0,36,124,0
0,36,0,1
0,42,0,4
0,74,0,2
0,50,0,3
0,38,0,1
0,71,126,2
0,47,126,5
0,36,124,0
0,42,84,0
0,35,124,0
0,42,0,18
0,36,0,7
0,71,0,15
0,35,0,31
0,47,0,6
0,69,126,14
0,33,124,0
0,38,125,0
0,42,124,0
0,45,124,0
0,39,125,0
0,39,0,18
0,38,0,1
0,42,0,3
0,33,0,5
0,45,0,1
0,31,127,1
0,43,124,0
0,67,126,1
0,69,0,1
0,67,122,1
0,67,0,2
0,31,0,3
0,67,0,5
0,43,0,1
0,52,126,5
0,57,126,0
0,45,122,0
0,42,124,0
0,57,126,0
0,69,127,0
0,36,124,0
0,52,126,0
0,45,122,0
0,33,127,0
0,36,0,28
0,42,0,4
0,33,0,40
0,69,0,21
0,45,0,3
0,57,0,0
0,45,0,0
0,52,0,0
0,52,0,0
0,57,0,0
0,57,127,0
0,42,85,0
0,52,126,0
0,33,126,0
0,57,124,0
0,45,123,0
0,45,122,0
0,36,125,0
0,52,127,0
0,67,110,0
0,67,0,26
0,42,0,0
0,36,0,4
0,69,127,18
0,39,124,48
0,38,124,0
0,42,124,0
0,57,0,1
0,45,0,0
0,52,0,1
0,52,0,4
0,57,0,1
0,45,0,5
0,39,0,9
0,33,0,2
0,38,0,5
0,42,0,3
0,69,0,7
0,67,118,10
0,67,0,29
0,71,127,7
0,36,125,51
0,35,126,0
0,54,126,0
0,54,126,0
0,59,127,0
0,42,124,0
0,47,127,0
0,47,125,0
0,59,126,0
0,36,0,30
0,42,0,5
0,35,0,37
0,59,0,24
0,54,0,0
0,59,0,0
0,47,0,0
0,47,0,0
0,54,0,0
0,59,127,0
0,47,124,0
0,35,127,0
0,59,127,0
0,42,85,0
0,54,127,0
0,47,123,0
0,36,124,0
0,54,126,0
0,71,0,17
0,42,0,8
0,36,0,4
0,54,0,63
0,59,0,3
0,39,124,1
0,38,125,0
0,42,125,0
0,54,0,3
0,59,0,1
0,47,0,8
0,35,0,3
0,39,0,6
0,47,0,3
0,38,0,1
0,42,0,8
0,59,127,3
0,64,127,0
0,52,123,0
0,59,127,0
0,52,127,0
0,36,124,0
0,40,126,0
0,42,124,0
0,64,127,0
0,76,126,0
0,36,0,1
0,42,0,3
0,40,0,29
0,76,0,3
0,52,0,19
0,64,0,0
0,52,0,0
0,64,0,0
0,59,0,0
0,59,0,0
0,36,125,0
0,40,126,0
0,64,126,0
0,64,126,0
0,74,126,0
0,59,127,0
0,52,123,0
0,42,96,0
0,59,127,0
0,52,124,0
0,42,0,27
0,36,0,1
0,40,0,57
0,74,0,2
0,38,124,9
0,71,124,0
0,42,124,0
0,39,125,0
0,64,0,1
0,52,0,0
0,59,0,1
0,64,0,1
0,52,0,3
0,59,0,1
0,39,0,14
0,38,0,7
0,42,0,2
0,71,0,62
0,67,126,4
0,67,0,79
0,45,101,1
0,52,117,7
0,33,126,4
0,69,125,0
0,45,121,0
0,57,127,0
0,42,125,0
0,36,124,0
0,52,126,0
0,57,126,4
0,36,0,3
0,42,0,4
0,42,96,2
0,36,124,0
0,42,0,7
0,36,0,5
0,42,125,19
0,39,125,0
0,38,124,0
0,39,0,11
0,38,0,1
0,42,0,2
0,42,124,19
0,36,124,0
0,36,0,7
0,42,0,3
0,36,124,22
0,42,92,0
0,42,0,9
0,36,0,6
0,39,124,14
0,38,124,0
0,42,124,0
0,69,0,4
0,39,0,13
0,38,0,2
0,42,0,3
0,67,122,17
0,67,0,11
0,67,124,4
0,67,0,10
0,67,125,4
0,67,0,25
0,42,124,22
0,71,127,0
0,36,124,0
0,36,0,27
0,42,0,3
0,71,0,13
0,36,124,13
