track,note,velocity,time
1,52,84,4
1,52,82,4
1,52,72,4
1,52,78,4
1,52,75,2
1,55,83,4
1,52,84,0
1,50,89,12
1,51,89,4
1,52,87,2
1,52,85,0
1,50,87,170
1,50,87,2
1,51,89,4
1,47,89,4
1,50,89,14
1,50,85,4
1,50,87,4
1,47,88,2
1,50,89,4
1,52,86,2
1,52,89,2
1,52,82,2
1,52,81,4
1,52,80,6
1,52,83,0
1,52,77,6
1,55,84,0
1,52,85,4
1,51,89,226
1,50,89,4
1,52,89,4
1,52,82,4
1,51,89,4
1,50,89,6
1,50,89,4
1,47,87,6
1,50,87,4
1,50,87,4
1,50,88,4
1,47,89,2
1,49,83,10
1,52,84,2
1,52,89,4
1,52,75,2
1,52,77,4
1,52,58,4
1,52,76,0
1,57,63,176
1,57,64,0
1,57,75,0
1,57,83,6
1,59,65,0
1,59,83,4
1,59,83,4
1,59,81,4
1,53,88,2
1,52,66,2
1,52,88,4
1,52,73,202
1,52,83,4
1,57,75,6
1,52,84,4
1,57,85,4
1,57,78,188
1,52,69,2
1,57,76,558
1,57,79,6
1,59,79,4
1,59,79,4
1,62,66,4
1,67,63,0
1,67,65,26
1,62,56,0
1,62,63,0
1,67,65,0
1,67,52,0
1,62,63,0
1,64,59,0
1,69,61,0
1,64,55,2
1,69,65,2
1,64,61,0
1,69,65,0
1,64,61,0
1,69,62,0
1,62,65,4
1,67,66,0
1,67,65,0
1,62,59,2
1,62,63,0
1,67,67,0
1,62,63,0
1,67,62,0
1,64,56,0
1,69,65,4
1,64,56,4
1,69,65,2
1,64,61,22
1,69,65,0
1,64,61,12
1,69,53,2
1,71,87,84
1,52,59,36
1,52,55,2
1,40,36,4
1,52,46,268
1,52,42,0
1,52,55,4
1,52,57,2
1,40,34,212
1,52,41,2
1,52,50,10
1,52,40,12
1,57,64,6
1,57,41,4
1,57,61,2
1,57,44,192
1,57,45,212
1,57,55,4
1,57,41,2
1,57,59,4
1,57,52,210
1,57,58,186
1,59,56,6
1,47,45,0
1,59,48,0
1,59,43,0
1,59,62,4
1,59,31,0
1,59,61,2
1,59,56,4
1,59,57,2
1,59,57,6
1,52,59,2
1,47,69,382
1,50,69,4
1,49,69,18
1,52,60,4
1,52,67,10
1,52,73,6
1,52,70,8
1,55,80,2
1,52,79,4
1,50,89,168
1,50,86,4
1,52,83,2
1,52,80,4
1,51,89,4
1,50,87,4
1,50,88,4
1,47,89,22
1,50,40,0
1,50,87,4
1,50,85,6
1,50,87,6
1,47,87,2
1,50,76,24
1,52,83,0
1,52,78,4
1,52,79,12
1,52,79,4
1,52,76,0
1,52,76,4
1,52,75,0
1,55,83,0
1,52,85,4
1,50,89,188
1,50,87,4
1,52,83,0
1,52,72,4
1,51,89,4
1,51,89,2
1,50,89,4
1,47,89,2
1,50,87,32
1,50,89,4
1,50,89,4
1,47,89,6
1,50,89,4
1,44,89,6
1,40,89,4
1,40,89,6
1,40,71,10
1,52,58,4
1,52,76,0
1,57,63,176
1,57,64,0
1,61,84,1318
1,57,94,6
1,54,62,0
1,52,79,0
1,55,93,2
1,59,65,0
1,59,73,6
1,59,73,4
1,59,71,4
1,53,78,2
1,52,56,2
1,52,78,4
1,58,82,0
1,62,79,0
1,64,82,2
1,57,92,20
1,55,88,24
1,52,92,0
1,50,91,0
1,47,98,2
1,50,86,0
1,47,98,2
1,45,98,2
1,52,80,592
1,57,84,4
1,57,76,188
1,52,67,2
1,57,75,558
1,57,81,6
1,59,75,4
1,59,81,4
1,62,66,4
1,67,63,0
1,67,65,26
1,62,56,0
1,62,63,0
1,67,65,0
1,67,52,0
1,62,63,0
1,64,59,0
1,69,61,0
1,64,55,2
1,69,65,2
1,64,61,0
1,69,65,0
1,64,61,0
1,69,62,0
1,62,65,4
1,67,66,0
1,67,65,0
1,62,59,2
1,62,63,0
1,67,67,0
1,62,63,0
1,67,62,0
1,64,56,0
1,69,65,4
1,64,56,4
1,69,65,2
1,64,61,22
1,69,65,0
1,64,61,12
1,69,53,2
1,71,87,84
1,52,79,36
1,52,75,2
1,40,56,4
1,52,66,268
1,52,62,0
1,52,75,4
1,52,77,2
1,40,54,212
1,52,61,2
1,52,70,10
1,52,60,12
1,57,84,6
1,57,61,4
1,57,81,2
1,57,64,192
1,57,65,212
1,57,75,4
1,57,61,2
1,57,79,4
1,57,72,210
1,57,78,186
1,59,76,6
1,47,65,0
1,59,68,0
1,59,63,0
1,59,82,4
1,59,51,0
1,59,81,2
1,59,76,4
1,59,77,2
1,59,77,6
1,52,79,2
1,58,110,386
1,59,91,0
1,62,100,0
1,58,112,6
1,64,87,0
1,52,108,4
1,64,91,2
1,52,114,4
1,64,88,0
1,67,92,12
1,67,92,10
1,64,92,12
1,62,90,0
1,56,113,0
1,55,93,2
1,52,110,2
1,64,93,10
1,67,93,8
1,59,98,8
1,62,92,14
1,62,88,0
1,64,90,0
1,66,72,0
1,71,42,10
1,67,92,6
1,71,45,6
1,67,91,0
1,71,92,0
1,71,92,10
1,71,45,8
1,67,89,8
1,67,88,0
1,71,47,2
1,64,91,0
1,62,86,14
1,59,98,4
1,62,89,126
1,64,91,0
1,70,89,0
1,71,65,0
1,74,93,0
1,74,92,0
1,71,86,0
1,71,87,0
1,74,7,10
1,74,92,0
1,71,83,0
1,74,88,8
1,70,88,50
1,71,35,0
1,76,97,0
1,69,92,8
1,67,93,0
1,74,91,236
1,70,79,0
1,71,70,0
1,67,86,0
1,68,65,0
1,69,82,0
1,74,96,4
1,71,81,0
1,71,55,22
1,67,85,0
1,71,55,0
1,67,85,8
1,64,93,4
1,62,95,4
1,59,86,0
1,62,98,6
1,64,92,0
1,58,105,2
1,55,102,4
1,57,108,100
1,56,114,16
1,53,118,0
1,64,92,14
1,62,66,4
1,67,63,0
1,67,65,26
1,62,56,0
1,62,63,0
1,67,65,0
1,67,52,0
1,62,63,0
1,64,59,0
1,69,61,0
1,64,55,2
1,69,65,2
1,64,61,0
1,69,65,0
1,64,61,0
1,69,62,0
1,62,65,4
1,67,66,0
1,67,65,0
1,62,59,2
1,62,63,0
1,67,67,0
1,62,63,0
1,67,62,0
1,64,56,0
1,69,65,4
1,64,56,4
1,69,65,2
1,64,61,22
1,69,65,0
1,64,61,12
1,69,53,2
1,71,63,84
1,52,79,36
1,63,99,10148
1,62,94,0
1,63,86,0
1,62,101,0
1,64,107,0
1,52,111,0
1,52,103,14
1,47,122,0
1,50,97,6
1,43,127,0
1,40,123,12
1,62,104,13586
1,67,78,12
1,66,50,0
1,61,79,0
1,65,35,0
1,60,72,0
1,64,28,0
1,59,67,0
1,63,19,0
1,58,63,0
1,62,11,0
1,57,51,0
1,50,105,1268
1,50,99,0
1,50,100,0
1,47,112,4
1,50,102,4
1,50,98,2
1,50,101,8
1,47,109,0
1,56,98,0
1,52,94,0
1,62,100,4
1,67,71,2
1,52,99,6
1,56,96,0
1,62,98,8
1,67,67,4
1,52,100,4
1,56,96,4
1,62,95,6
1,67,78,6
1,66,34,0
1,51,63,0
1,61,66,0
1,55,12,0
1,65,24,0
1,54,11,0
1,50,56,0
1,60,61,0
1,59,50,0
1,49,42,0
1,48,41,0
1,76,92,0
1,82,92,0
1,79,92,4
1,76,83,4
1,82,92,0
1,79,92,4
1,76,83,0
1,82,92,0
1,79,92,4
1,76,83,4
1,82,92,0
1,79,92,4
1,76,83,0
1,81,92,4
1,81,92,0
1,79,86,4
1,76,86,4
1,79,93,8
1,79,92,8
1,71,87,574
1,73,82,4
1,76,88,6
1,78,17,0
1,79,86,6
1,75,37,0
1,76,21,0
1,73,85,0
1,74,79,0
1,76,92,6
1,58,12,0
1,59,12,0
1,55,104,16
1,49,21,0
1,50,11,0
1,51,11,0
1,49,11,0
1,51,11,0
1,52,112,4
1,50,88,2
1,52,102,2
1,50,105,242
1,50,99,0
1,50,100,0
1,47,112,4
1,50,102,4
1,50,98,2
1,50,101,8
1,47,109,0
1,84,100,604
2,28,110,6
2,28,109,4
2,28,97,2
2,28,112,8
2,28,97,8
2,28,109,4
2,28,96,12
2,28,107,8
2,28,99,8
2,28,110,14
2,28,117,10
2,28,104,8
2,28,104,12
2,28,105,2
2,28,117,4
2,28,107,10
2,28,107,4
2,28,107,8
2,38,119,6
2,38,106,0
2,38,111,2
2,35,115,2
2,38,117,28
2,38,106,2
2,38,116,4
2,35,105,2
2,38,115,4
2,40,107,8
2,28,112,0
2,28,101,4
2,28,113,14
2,28,94,12
2,28,108,8
2,28,102,10
2,28,119,12
2,28,99,2
2,28,116,12
2,28,113,10
2,28,108,4
2,28,98,6
2,28,117,6
2,28,105,0
2,28,109,16
2,28,104,6
2,28,112,10
2,28,99,30
2,28,108,10
2,38,107,0
2,38,116,2
2,38,108,6
2,38,123,2
2,35,113,4
2,38,119,0
2,38,111,2
2,38,119,4
2,35,105,4
2,38,118,0
2,40,105,2
2,28,105,0
2,28,103,4
2,28,115,28
2,28,93,8
2,28,117,4
2,28,93,4
2,28,111,12
2,28,108,6
2,28,117,4
2,28,100,2
2,28,113,6
2,28,103,8
2,28,117,6
2,28,89,16
2,28,111,6
2,28,98,6
2,28,115,4
2,31,105,4
2,31,115,10
2,32,94,4
2,33,109,2
2,33,103,2
2,33,119,4
2,33,103,8
2,33,113,22
2,33,112,22
2,33,124,8
2,33,103,2
2,33,117,4
2,33,108,2
2,33,117,4
2,33,92,4
2,33,120,2
2,33,94,4
2,33,115,2
2,33,107,24
2,35,125,2
2,35,103,0
2,35,113,44
2,35,103,30
2,35,114,34
2,35,100,0
2,35,119,28
2,35,101,28
2,35,127,36
2,35,101,0
2,35,116,0
2,35,104,0
2,35,115,30
2,35,106,190
2,37,120,2
2,40,108,2
2,28,94,14
2,28,109,6
2,28,91,4
2,28,111,4
2,28,87,8
2,28,115,8
2,28,91,2
2,28,115,8
2,28,91,8
2,28,115,2
2,28,95,6
2,28,107,4
2,31,104,8
2,31,119,6
2,32,106,2
2,33,109,2
2,33,93,28
2,33,113,10
2,33,101,4
2,33,111,4
2,33,102,34
2,33,114,24
2,33,99,18
2,33,114,4
2,33,99,18
2,33,114,2
2,33,98,24
2,33,117,2
2,33,105,16
2,33,113,4
2,33,105,26
2,35,120,2
2,35,100,2
2,35,121,2
2,35,103,2
2,35,111,26
2,35,104,2
2,35,117,2
2,35,105,2
2,35,117,0
2,35,107,2
2,35,119,0
2,35,104,2
2,35,118,2
2,35,106,2
2,35,116,4
2,35,110,4
2,31,120,2
2,31,86,8
2,31,96,26
2,31,115,4
2,31,108,2
2,31,101,4
2,33,117,2
2,33,105,2
2,33,99,36
2,33,119,2
2,33,107,6
2,31,125,22
2,31,100,2
2,31,116,6
2,31,108,6
2,33,123,2
2,33,112,2
2,33,120,6
2,33,107,20
2,35,121,2
2,35,112,2
2,35,116,0
2,35,111,4
2,35,116,4
2,35,109,2
2,35,116,2
2,35,103,2
2,35,117,2
2,35,105,2
2,35,119,2
2,35,111,2
2,35,116,4
2,35,106,0
2,35,114,2
2,28,100,2
2,28,109,4
2,28,96,10
2,28,109,18
2,28,94,4
2,28,115,6
2,28,114,12
2,28,114,8
2,28,94,6
2,28,117,4
2,28,97,4
2,28,115,6
2,28,97,4
2,28,117,4
2,28,100,6
2,28,106,4
2,28,115,4
2,33,120,2
2,33,100,26
2,33,108,28
2,33,107,20
2,33,113,6
2,33,105,4
2,33,103,4
2,33,107,2
2,33,112,18
2,33,96,4
2,33,112,6
2,33,101,10
2,33,114,4
2,33,106,22
2,33,111,12
2,33,108,2
2,35,124,2
2,35,104,12
2,35,117,4
2,35,105,12
2,35,114,2
2,35,104,4
2,35,111,2
2,35,104,4
2,35,121,2
2,35,101,2
2,35,117,4
2,35,108,4
2,35,117,22
2,35,105,2
2,35,116,2
2,35,107,2
2,28,109,2
2,28,110,6
2,28,109,4
2,28,97,2
2,28,112,8
2,28,97,8
2,28,109,4
2,28,96,12
2,28,107,8
2,28,99,8
2,28,110,14
2,28,117,10
2,28,104,8
2,28,104,12
2,28,105,2
2,28,117,4
2,28,107,10
2,28,107,4
2,28,107,8
2,38,119,6
2,38,106,0
2,38,111,2
2,35,115,2
2,38,117,28
2,38,106,2
2,38,116,4
2,35,105,2
2,38,115,4
2,40,107,8
2,28,112,0
2,28,101,4
2,28,113,14
2,28,94,12
2,28,108,8
2,28,102,10
2,28,119,12
2,28,99,2
2,28,116,12
2,28,113,10
2,28,108,4
2,28,98,6
2,28,117,6
2,28,105,0
2,28,109,16
2,28,104,6
2,28,112,10
2,28,99,30
2,28,108,10
2,38,107,0
2,38,116,2
2,38,108,6
2,38,123,2
2,35,113,4
2,38,119,0
2,38,111,2
2,38,119,4
2,35,105,4
2,38,118,0
2,40,105,2
2,28,105,0
2,28,103,4
2,28,115,28
2,28,93,8
2,28,117,4
2,28,93,4
2,28,111,12
2,28,108,6
2,28,117,4
2,28,100,2
2,28,113,6
2,28,103,8
2,28,117,6
2,28,89,16
2,28,111,6
2,28,98,6
2,28,115,4
2,31,105,4
2,31,115,10
2,32,94,4
2,33,109,2
2,33,103,2
2,33,119,4
2,33,103,8
2,33,113,22
2,33,112,22
2,33,124,8
2,33,103,2
2,33,117,4
2,33,108,2
2,33,117,4
2,33,92,4
2,33,120,2
2,33,94,4
2,33,115,2
2,33,107,24
2,35,125,2
2,35,103,0
2,35,113,44
2,35,103,30
2,35,114,34
2,35,100,0
2,35,119,28
2,35,101,28
2,35,127,36
2,35,101,0
2,35,116,0
2,35,104,0
2,35,115,30
2,35,106,190
2,37,120,2
2,40,108,2
2,28,94,14
2,28,109,6
2,28,91,4
2,28,111,4
2,28,87,8
2,28,115,8
2,28,91,2
2,28,115,8
2,28,91,8
2,28,115,2
2,28,95,6
2,28,107,4
2,31,104,8
2,31,119,6
2,32,106,2
2,33,109,2
2,33,93,28
2,33,113,10
2,33,101,4
2,33,111,4
2,33,102,34
2,33,114,24
2,33,99,18
2,33,114,4
2,33,99,18
2,33,114,2
2,33,98,24
2,33,117,2
2,33,105,16
2,33,113,4
2,33,105,26
2,35,120,2
2,35,100,2
2,35,121,2
2,35,103,2
2,35,111,26
2,35,104,2
2,35,117,2
2,35,105,2
2,35,117,0
2,35,107,2
2,35,119,0
2,35,104,2
2,35,118,2
2,35,106,2
2,35,116,4
2,35,110,4
2,31,120,2
2,31,86,8
2,31,96,26
2,31,115,4
2,31,108,2
2,31,101,4
2,33,117,2
2,33,105,2
2,33,99,36
2,33,119,2
2,33,107,6
2,31,125,22
2,31,100,2
2,31,116,6
2,31,108,6
2,33,123,2
2,33,112,2
2,33,120,6
2,33,107,20
2,35,121,2
2,35,112,2
2,35,116,0
2,35,111,4
2,35,116,4
2,35,109,2
2,35,116,2
2,35,103,2
2,35,117,2
2,35,105,2
2,35,119,2
2,35,111,2
2,35,116,4
2,35,106,0
2,35,114,2
2,28,100,2
2,28,109,4
2,28,96,10
2,28,109,18
2,28,94,4
2,28,115,6
2,28,114,12
2,28,114,8
2,28,94,6
2,28,117,4
2,28,97,4
2,28,115,6
2,28,97,4
2,28,117,4
2,28,100,6
2,28,106,4
2,28,115,4
2,33,120,2
2,33,100,26
2,33,108,28
2,33,107,20
2,33,113,6
2,33,105,4
2,33,103,4
2,33,107,2
2,33,112,18
2,33,96,4
2,33,112,6
2,33,101,10
2,33,114,4
2,33,106,22
2,33,111,12
2,33,108,2
2,35,124,2
2,35,104,12
2,35,117,4
2,35,105,12
2,35,114,2
2,35,104,4
2,35,111,2
2,35,104,4
2,35,121,2
2,35,101,2
2,35,117,4
2,35,108,4
2,35,117,22
2,35,105,2
2,35,116,2
2,35,107,2
2,28,109,2
2,28,110,6
2,28,109,4
2,28,97,2
2,28,112,8
2,28,97,8
2,28,109,4
2,28,96,12
2,28,107,8
2,28,99,8
2,28,110,14
2,28,117,10
2,28,104,8
2,28,104,12
2,28,105,2
2,28,117,4
2,28,107,10
2,28,107,4
2,28,107,8
2,38,119,6
2,38,106,0
2,38,111,2
