track,note,velocity,time
0,82,91,1616
0,61,92,0
0,66,101,0
0,70,90,0
0,66,92,0
0,54,97,0
0,80,91,8
0,68,108,0
0,64,106,0
0,61,99,0
0,64,95,0
0,80,103,0
0,65,104,0
0,68,98,0
0,61,99,0
0,65,106,0
0,46,105,0
0,78,108,0
0,63,92,0
0,66,102,0
0,59,92,0
0,66,98,0
0,47,92,0
0,63,85,0
0,78,99,0
0,60,101,0
0,63,95,0
0,66,91,0
0,66,108,0
0,44,106,0
0,63,85,188
0,62,78,92
0,63,80,188
0,64,90,92
0,64,90,188
0,63,80,188
0,62,89,92
0,63,90,188
0,64,88,92
0,63,75,0
0,78,105,0
0,63,107,0
0,59,91,0
0,66,90,0
0,66,91,0
0,49,103,0
0,63,88,188
0,62,73,92
0,63,85,188
0,64,83,92
0,64,86,188
0,63,85,188
0,62,78,92
0,63,75,188
0,64,85,92
0,63,85,0
0,82,100,0
0,61,94,0
0,58,103,0
0,66,95,0
0,61,102,0
0,42,107,0
0,63,75,188
0,62,77,92
0,63,80,188
0,64,74,92
0,64,73,188
0,63,82,188
0,62,73,92
0,63,79,188
0,64,87,92
0,63,88,0
0,78,93,0
0,56,91,0
0,62,101,0
0,66,96,0
0,62,92,0
0,46,105,0
0,63,78,188
0,62,73,92
0,63,75,16
0,64,79,16
0,64,71,16
0,63,73,16
0,62,83,16
0,63,75,16
0,64,81,16
0,36,123,0
0,42,94,0
0,63,84,0
0,69,46,0
0,70,91,0
0,27,114,0
0,78,77,0
0,87,78,0
0,63,123,0
0,70,121,0
0,75,112,0
0,75,119,0
0,63,77,0
0,63,93,0
0,66,102,0
0,70,103,0
0,69,60,8
0,42,87,92
0,46,71,0
0,63,88,0
0,69,88,0
0,62,73,24
0,69,53,0
0,36,116,24
0,40,127,0
0,42,95,0
0,69,56,0
0,70,98,0
0,27,122,0
0,78,84,0
0,82,90,0
0,87,79,0
0,63,74,92
0,69,45,0
0,42,95,92
0,64,74,0
0,69,72,0
0,70,81,0
0,69,60,24
0,32,113,0
0,82,76,0
0,86,76,0
0,62,115,0
0,66,120,0
0,70,113,0
0,70,127,0
0,70,91,0
0,36,117,12
0,42,82,0
0,64,88,0
0,69,42,0
0,70,91,0
0,34,117,0
0,62,97,0
0,70,98,0
0,66,90,0
0,69,51,12
0,62,115,0
0,66,114,0
0,70,117,0
0,70,119,0
0,70,85,0
0,42,99,8
0,63,84,0
0,69,80,0
0,34,117,0
0,78,79,0
0,82,88,0
0,86,85,0
0,62,111,0
0,66,115,0
0,70,120,0
0,70,126,0
0,70,75,0
0,62,79,8
0,69,51,0
0,36,127,92
0,40,122,0
0,42,91,0
0,51,89,0
0,69,52,0
0,70,95,0
0,63,85,92
0,69,56,0
0,42,99,24
0,64,82,0
0,69,89,0
0,70,85,0
0,34,115,0
0,78,83,0
0,86,79,0
0,69,53,12
0,34,114,0
0,36,118,12
0,42,85,0
0,63,82,0
0,69,61,0
0,70,97,0
0,27,123,0
0,78,82,0
0,82,78,0
0,82,121,0
0,87,110,0
0,61,108,0
0,66,90,0
0,70,106,0
0,69,61,16
0,42,93,16
0,46,79,0
0,63,75,0
0,69,90,0
0,82,108,0
0,62,84,8
0,69,54,0
0,85,107,0
0,36,125,8
0,40,114,0
0,42,98,0
0,69,45,0
0,70,87,0
0,27,112,0
0,78,89,0
0,82,94,0
0,85,80,0
0,63,87,92
0,69,45,0
0,72,116,0
0,42,97,8
0,64,81,0
0,69,84,0
0,70,91,0
0,73,116,0
0,69,53,8
0,30,115,0
0,75,93,0
0,80,86,0
0,85,85,0
0,75,106,0
0,36,110,8
0,42,90,0
0,64,87,0
0,69,54,0
0,70,97,0
0,32,110,0
0,72,114,0
0,63,95,0
0,68,90,0
0,60,100,0
0,69,51,12
0,42,84,16
0,63,90,0
0,69,90,0
0,32,127,0
0,75,91,0
0,80,93,0
0,84,86,0
0,85,109,0
0,62,83,8
0,69,53,0
0,87,109,0
0,36,119,8
0,40,110,0
0,42,89,0
0,51,78,0
0,69,51,0
0,70,93,0
0,90,102,0
0,63,71,8
0,69,45,0
0,92,103,0
0,42,92,8
0,64,89,0
0,69,86,0
0,70,83,0
0,32,124,0
0,75,94,0
0,80,88,0
0,84,84,0
0,69,54,12
0,32,110,0
0,90,121,0
0,36,120,12
0,42,94,0
0,63,88,0
0,69,42,0
0,70,83,0
0,30,115,0
0,78,85,0
0,80,77,0
0,83,92,0
0,59,100,0
0,63,99,0
0,66,102,0
0,69,55,92
0,42,96,16
0,46,72,0
0,63,74,0
0,69,76,0
0,87,117,0
0,62,76,8
0,69,44,0
0,36,111,16
0,40,126,0
0,42,86,0
0,69,50,0
0,70,81,0
0,30,123,0
0,78,89,0
0,80,77,0
0,83,77,0
0,66,90,0
0,63,93,0
0,59,106,0
0,63,87,92
0,69,54,0
0,61,122,0
0,61,121,0
0,61,77,0
0,42,84,8
0,64,90,0
0,69,75,0
0,70,89,0
0,63,123,0
0,63,127,0
0,63,81,0
0,69,53,8
0,30,125,0
0,78,87,0
0,80,88,0
0,83,80,0
0,66,112,0
0,66,127,0
0,66,87,0
0,36,114,8
0,42,85,0
0,64,86,0
0,69,46,0
0,70,80,0
0,30,127,0
0,78,81,0
0,80,87,0
0,83,86,0
0,68,119,0
0,68,125,0
0,68,82,0
0,66,96,0
0,63,104,0
0,59,106,0
0,69,59,16
0,42,97,16
0,63,73,0
0,69,82,0
0,30,119,0
0,66,122,0
0,66,118,0
0,66,76,0
0,62,78,8
0,69,44,0
0,63,109,0
0,63,127,0
0,63,85,0
0,36,123,8
0,40,120,0
0,42,89,0
0,51,86,0
0,69,61,0
0,70,87,0
0,30,116,0
0,78,76,0
0,80,91,0
0,83,77,0
0,61,110,0
0,61,117,0
0,61,87,0
0,66,90,0
0,63,100,0
0,59,91,0
0,63,89,8
0,69,54,0
0,63,124,0
0,63,127,0
0,63,84,0
0,42,90,8
0,64,78,0
0,69,79,0
0,70,90,0
0,30,118,0
0,66,108,0
0,66,127,0
0,66,82,0
0,69,49,8
0,35,109,0
0,36,114,12
0,42,93,0
0,63,73,0
0,69,43,0
0,70,86,0
0,35,122,0
0,63,119,0
0,66,114,0
0,70,124,0
0,70,123,0
0,63,91,0
0,58,101,0
0,63,106,0
0,66,105,0
0,69,55,8
0,63,115,0
0,66,117,0
0,70,119,0
0,70,127,0
0,63,84,0
0,42,95,8
0,46,72,0
0,63,88,0
0,69,72,0
0,75,75,0
0,78,88,0
0,82,76,0
0,62,78,24
0,69,46,0
0,36,126,16
0,40,115,0
0,42,99,0
0,69,45,0
0,70,99,0
0,35,111,0
0,63,71,92
0,69,60,0
0,75,84,0
0,78,86,0
0,82,75,0
0,42,84,8
0,64,73,0
0,69,72,0
0,70,94,0
0,69,46,24
0,34,125,0
0,36,120,12
0,42,98,0
0,64,86,0
0,69,49,0
0,70,86,0
0,30,117,0
0,74,89,0
0,78,88,0
0,82,89,0
0,68,114,0
0,68,127,0
0,56,89,0
0,66,103,0
0,58,109,0
0,62,91,0
0,69,51,92
0,40,114,24
0,42,97,0
0,63,78,0
0,69,77,0
0,28,127,0
0,62,79,16
0,69,61,0
0,70,126,0
0,70,127,0
0,58,91,0
0,36,124,92
0,40,125,0
0,42,85,0
0,51,83,0
0,69,51,0
0,70,80,0
0,40,119,92
0,63,72,0
0,69,42,0
0,40,109,16
0,42,85,0
0,64,82,0
0,69,80,0
0,70,92,0
0,25,125,0
0,75,122,0
0,75,127,0
0,63,82,0
0,69,55,8
0,26,127,0
0,36,127,12
0,42,94,0
0,57,120,0
0,63,85,0
0,69,50,0
0,70,87,0
0,27,127,0
0,70,126,0
0,69,45,92
0,42,85,92
0,46,90,0
0,63,90,0
0,69,73,0
0,62,83,24
0,69,61,0
0,36,118,16
0,40,110,0
0,42,82,0
0,69,51,0
0,70,92,0
0,27,114,0
0,51,83,0
0,66,122,0
0,63,77,92
0,69,59,0
0,42,99,8
0,64,72,0
0,69,71,0
0,70,84,0
0,58,110,0
0,63,117,0
0,63,79,0
0,70,124,0
0,69,56,12
0,32,110,0
0,36,117,12
0,42,99,0
0,64,72,0
0,69,47,0
0,70,80,0
0,34,114,0
0,54,114,0
0,58,118,0
0,62,113,0
0,62,84,0
0,68,118,0
0,69,59,92
0,42,88,24
0,63,88,0
0,69,79,0
0,34,111,0
0,62,71,24
0,69,56,0
0,54,109,0
0,58,108,0
0,62,106,0
0,36,124,12
0,40,114,0
0,42,82,0
0,51,86,0
0,69,47,0
0,70,80,0
0,54,113,0
0,58,106,0
0,62,118,0
0,63,121,0
0,63,85,12
0,69,55,0
0,42,89,16
0,64,71,0
0,69,82,0
0,70,90,0
0,34,126,0
0,54,105,0
0,58,111,0
0,62,114,0
0,66,121,0
0,69,44,12
0,34,109,0
0,36,124,12
0,42,91,0
0,63,85,0
0,69,45,0
0,70,92,0
0,27,122,0
0,69,54,4
0,42,89,92
0,46,76,0
0,63,76,0
0,69,87,0
0,62,75,92
0,69,48,0
0,36,127,16
0,40,118,0
0,42,86,0
0,69,56,0
0,70,92,0
0,27,119,0
0,51,75,0
0,63,126,0
0,63,74,92
0,69,61,0
0,42,97,12
0,64,82,0
0,69,72,0
0,70,83,0
0,54,104,0
0,56,106,0
0,61,107,0
0,61,91,0
0,68,125,0
0,69,60,12
0,30,123,0
0,36,124,12
0,42,96,0
0,64,87,0
0,69,51,0
0,70,90,0
0,32,111,0
0,54,103,0
0,56,115,0
0,60,109,0
0,60,75,0
0,69,58,16
0,66,116,0
0,42,82,16
0,63,84,0
0,69,90,0
0,32,112,0
0,63,127,0
0,62,85,24
0,69,61,0
0,54,101,0
0,56,106,0
0,60,109,0
0,36,127,12
0,40,127,0
0,42,89,0
0,51,90,0
0,69,57,0
0,70,84,0
0,54,115,0
0,56,103,0
0,60,118,0
0,63,89,12
0,69,59,0
0,42,95,24
0,64,90,0
0,69,83,0
0,70,98,0
0,32,126,0
0,54,105,0
0,56,102,0
0,60,109,0
0,63,124,0
0,69,56,12
0,32,125,0
0,36,114,12
0,42,84,0
0,63,82,0
0,69,54,0
0,70,81,0
0,30,123,0
0,64,127,0
0,69,45,92
0,42,83,16
0,46,72,0
0,63,86,0
0,69,71,0
0,63,126,0
0,62,89,92
0,69,43,0
0,36,109,16
0,40,114,0
0,42,86,0
0,69,48,0
0,70,92,0
0,30,111,0
0,61,120,0
0,63,87,92
0,69,55,0
0,42,93,16
0,64,81,0
0,69,79,0
0,70,88,0
0,56,106,0
0,59,101,0
0,66,116,0
0,69,58,12
0,30,110,0
0,36,125,12
0,42,88,0
0,64,85,0
0,69,55,0
0,70,92,0
0,30,122,0
0,59,105,0
0,61,104,0
0,64,103,0
0,69,50,16
0,42,92,24
0,63,86,0
0,69,72,0
0,30,126,0
0,61,115,0
0,62,80,24
0,69,48,0
0,59,105,0
0,61,107,0
0,64,117,0
0,36,116,12
0,40,113,0
0,42,95,0
0,51,82,0
0,69,55,0
0,70,92,0
0,59,101,0
0,61,109,0
0,64,114,0
0,61,125,0
0,63,77,12
0,69,56,0
0,42,90,16
0,64,90,0
0,69,77,0
0,70,94,0
0,30,109,0
0,59,103,0
0,61,114,0
0,64,117,0
0,61,114,0
0,69,49,12
0,37,115,0
0,36,113,12
0,42,87,0
0,63,71,0
0,69,51,0
0,70,99,0
0,35,117,0
0,56,117,0
0,59,111,0
0,64,110,0
0,69,60,92
0,42,99,16
0,46,79,0
0,63,83,0
0,69,90,0
0,59,124,0
0,62,89,92
0,69,50,0
0,36,117,24
0,40,113,0
0,42,96,0
0,69,44,0
0,70,95,0
0,35,120,0
0,54,102,0
0,59,113,0
0,63,112,0
0,63,88,92
0,69,56,0
0,42,81,16
0,64,79,0
0,69,83,0
0,70,96,0
0,66,121,0
0,69,49,24
0,35,125,0
0,36,112,12
0,42,83,0
0,64,71,0
0,69,47,0
0,70,93,0
0,30,124,0
0,62,113,0
0,66,113,0
0,70,102,0
0,69,54,12
0,42,83,24
0,63,74,0
0,69,74,0
0,28,119,0
0,58,117,0
0,62,109,0
0,66,107,0
0,70,109,0
0,62,90,92
0,69,59,0
0,36,120,92
0,40,109,0
0,42,94,0
0,51,90,0
0,69,56,0
0,70,86,0
0,63,86,16
0,69,53,0
0,42,94,24
0,64,83,0
0,69,73,0
0,70,92,0
0,25,113,0
0,69,47,12
0,26,115,0
0,36,125,12
0,42,95,0
0,63,85,0
0,69,54,0
0,70,81,0
0,27,115,0
0,70,125,0
0,69,60,92
0,42,89,92
0,46,76,0
0,63,90,0
0,69,87,0
0,62,81,92
0,69,53,0
0,36,119,16
0,40,122,0
0,42,83,0
0,69,45,0
0,70,95,0
0,27,121,0
0,51,79,0
0,66,118,0
0,63,78,92
0,69,54,0
0,54,113,0
0,42,97,12
0,64,73,0
0,69,79,0
0,70,99,0
0,58,118,0
0,63,119,0
0,63,75,0
0,70,127,0
0,69,56,12
0,32,113,0
0,36,110,12
0,42,83,0
0,64,76,0
0,69,53,0
0,70,92,0
0,34,110,0
0,54,106,0
0,58,111,0
0,62,113,0
0,62,80,0
0,68,125,0
0,69,42,92
0,42,94,24
0,63,88,0
0,69,88,0
0,34,123,0
0,62,90,24
0,69,50,0
0,54,107,0
0,58,116,0
0,62,118,0
0,36,110,16
0,40,110,0
0,42,96,0
0,51,76,0
0,69,48,0
0,70,82,0
0,63,120,0
0,63,73,92
0,69,48,0
0,42,89,16
0,64,76,0
0,69,83,0
0,70,84,0
0,34,121,0
0,54,111,0
0,58,104,0
0,62,101,0
0,66,119,0
0,69,60,12
0,34,109,0
0,36,112,12
0,42,99,0
0,63,79,0
0,69,61,0
0,70,96,0
0,27,111,0
0,69,56,52
0,42,97,92
0,46,74,0
0,63,76,0
0,69,76,0
0,62,75,92
0,69,53,0
0,36,112,16
0,40,112,0
0,42,93,0
0,69,60,0
0,70,90,0
0,27,121,0
0,51,83,0
0,63,118,0
0,63,71,92
0,69,48,0
0,56,115,0
0,42,99,12
0,64,81,0
0,69,71,0
0,70,90,0
0,58,111,0
0,61,112,0
0,61,90,0
0,68,114,0
0,69,58,12
0,30,111,0
0,36,109,12
0,42,88,0
0,64,78,0
0,69,53,0
0,70,89,0
0,32,110,0
0,54,111,0
0,56,101,0
0,60,102,0
0,60,90,0
0,69,45,16
0,66,127,0
0,42,95,16
0,63,85,0
0,69,84,0
0,32,117,0
0,63,118,0
0,62,78,24
0,69,53,0
0,54,109,0
0,56,110,0
0,60,111,0
0,36,127,24
0,40,122,0
0,42,90,0
0,51,82,0
0,69,59,0
0,70,84,0
0,32,119,0
0,63,81,16
0,69,54,0
0,42,85,24
0,64,84,0
0,69,86,0
0,70,92,0
0,32,109,0
0,54,110,0
0,56,117,0
0,60,112,0
0,63,117,0
0,69,44,12
0,32,119,0
0,36,115,0
0,42,98,0
0,63,76,0
0,69,54,0
0,70,86,0
0,30,115,0
0,64,127,0
0,69,44,92
0,42,86,16
0,46,87,0
0,63,72,0
0,69,71,0
0,63,120,0
0,62,83,92
0,69,43,0
0,36,117,16
0,40,125,0
0,42,84,0
0,69,58,0
0,70,90,0
0,30,112,0
0,61,121,0
0,63,86,92
0,69,49,0
0,54,102,0
0,42,83,12
0,64,74,0
0,69,79,0
0,70,82,0
0,56,103,0
0,59,112,0
0,66,127,0
0,69,53,12
0,30,112,0
0,36,119,12
0,42,96,0
0,64,76,0
0,69,47,0
0,70,87,0
0,30,122,0
0,59,114,0
0,61,110,0
0,64,106,0
0,69,55,16
0,42,91,24
0,63,80,0
0,69,81,0
0,30,112,0
0,61,115,0
0,62,80,92
0,69,54,0
0,59,111,0
0,61,119,0
0,64,110,0
0,36,109,16
0,40,117,0
0,42,93,0
0,51,76,0
0,69,56,0
0,70,88,0
0,30,127,0
0,61,117,0
0,63,76,12
0,69,61,0
0,42,98,16
0,64,83,0
0,69,71,0
0,70,80,0
0,30,125,0
0,59,104,0
0,61,109,0
0,64,105,0
0,61,122,0
0,69,48,12
