track,note,velocity,time
1,43,105,1568
1,62,112,0
1,67,81,8
1,59,99,0
1,67,78,24
1,62,101,0
1,59,94,0
1,38,95,36
1,62,112,200
1,67,90,0
1,59,107,0
1,67,84,36
1,62,105,0
1,59,99,0
1,43,123,40
1,43,119,628
1,67,99,16
1,62,117,0
1,59,107,4
1,67,78,24
1,62,101,4
1,59,85,0
1,38,89,16
1,62,117,224
1,67,95,0
1,59,112,0
1,67,78,24
1,62,105,0
1,59,105,0
1,43,112,56
1,43,112,628
1,62,112,4
1,67,93,8
1,59,110,0
1,67,78,24
1,59,98,8
1,62,104,0
1,38,105,52
1,62,125,212
1,59,115,0
1,67,94,0
1,67,85,36
1,62,112,0
1,59,110,4
1,43,112,60
1,62,119,12
1,67,94,0
1,59,119,8
1,67,73,32
1,59,105,0
1,62,104,4
1,38,105,48
1,62,125,200
1,59,115,0
1,67,99,0
1,67,70,28
1,59,93,4
1,62,110,0
1,43,115,60
1,62,127,28
1,59,119,8
1,67,101,4
1,62,105,44
1,67,73,0
1,59,101,0
1,38,105,60
1,62,119,28
1,59,112,0
1,67,99,0
1,67,84,36
1,62,110,4
1,59,112,0
1,43,119,64
1,62,127,16
1,59,119,0
1,67,104,8
1,67,86,48
1,59,105,0
1,62,112,0
1,38,101,56
1,62,127,12
1,59,119,0
1,67,105,4
1,62,110,48
1,59,105,0
1,67,80,0
1,43,115,52
1,62,119,12
1,59,119,0
1,67,104,8
1,67,84,24
1,62,115,8
1,59,110,4
1,38,105,48
1,62,127,204
1,67,99,0
1,59,119,0
1,67,81,32
1,62,112,8
1,59,105,0
1,43,115,56
1,62,127,196
1,59,117,0
1,67,104,0
1,67,89,52
1,59,110,0
1,62,117,0
1,38,115,56
1,62,119,8
1,59,112,0
1,67,93,4
1,67,77,52
1,62,105,0
1,59,105,8
1,38,99,48
1,66,81,0
1,62,115,0
1,57,107,0
1,62,105,44
1,66,87,4
1,57,99,0
1,45,112,52
1,66,110,0
1,62,123,0
1,57,117,0
1,57,101,52
1,62,107,0
1,66,97,0
1,38,110,36
1,62,125,212
1,57,123,0
1,66,103,0
1,62,98,44
1,57,95,0
1,66,79,0
1,38,105,28
1,62,127,0
1,66,105,0
1,57,125,12
1,66,78,44
1,62,94,4
1,57,99,0
1,43,117,56
1,62,117,16
1,67,98,8
1,59,117,0
1,67,78,32
1,59,104,8
1,62,112,0
1,38,101,44
1,62,127,0
1,59,119,0
1,67,99,0
1,62,107,44
1,59,101,0
1,67,81,8
1,43,112,40
1,62,127,196
1,59,123,0
1,67,95,12
1,62,112,56
1,59,101,0
1,67,76,8
1,38,110,36
1,62,127,204
1,59,123,8
1,67,93,0
1,62,117,56
1,59,117,0
1,67,80,8
1,36,94,64
1,60,119,188
1,55,123,0
1,64,99,0
1,64,86,48
1,60,110,0
1,55,112,0
1,43,112,52
1,60,119,0
1,64,99,0
1,55,123,0
1,64,85,36
1,60,105,4
1,55,105,0
1,36,107,44
1,60,125,204
1,64,104,4
1,55,123,0
1,64,76,20
1,60,105,0
1,55,101,8
1,55,105,0
1,36,104,24
1,60,123,204
1,55,119,4
1,64,99,0
1,55,112,48
1,60,110,0
1,64,89,8
1,43,112,44
1,62,127,192
1,67,98,4
1,59,127,0
1,62,112,44
1,67,85,0
1,59,105,0
1,38,94,36
1,62,127,200
1,67,98,8
1,59,119,0
1,62,119,48
1,67,82,0
1,59,112,0
1,43,115,52
1,62,125,188
1,59,127,0
1,67,99,0
1,67,72,40
1,62,101,0
1,59,105,0
1,38,112,36
1,67,99,212
1,62,112,0
1,59,115,0
1,67,80,44
1,62,110,4
1,59,112,0
1,38,105,44
1,62,115,212
1,66,101,0
1,57,119,0
1,66,89,44
1,57,99,0
1,62,110,0
1,38,110,44
1,66,101,196
1,62,107,0
1,57,104,0
1,43,112,72
1,43,112,632
1,62,112,4
1,67,93,8
1,59,110,0
1,67,78,24
1,59,98,8
1,62,104,0
1,38,105,52
1,62,125,212
1,59,115,0
1,67,94,0
1,67,85,36
1,62,112,0
1,59,110,4
1,43,112,60
1,62,119,12
1,67,94,0
1,59,119,8
1,67,73,32
1,59,105,0
1,62,104,4
1,38,105,48
1,62,125,200
1,59,115,0
1,67,99,0
1,67,70,28
1,59,93,4
1,62,110,0
1,43,115,60
1,62,127,28
1,59,119,8
1,67,101,4
1,62,105,44
1,67,73,0
1,59,101,0
1,38,105,60
1,62,119,28
1,59,112,0
1,67,99,0
1,67,84,36
1,62,110,4
1,59,112,0
1,43,119,64
1,62,127,16
1,59,119,0
1,67,104,8
1,67,86,48
1,59,105,0
1,62,112,0
1,38,101,56
1,62,127,12
1,59,119,0
1,67,105,4
1,62,110,48
1,59,105,0
1,67,80,0
1,43,115,52
1,62,119,12
1,59,119,0
1,67,104,8
1,67,84,24
1,62,115,8
1,59,110,4
1,38,105,48
1,62,127,204
1,67,99,0
1,59,119,0
1,67,81,32
1,62,112,8
1,59,105,0
1,43,115,56
1,62,127,196
1,59,117,0
1,67,104,0
1,67,89,52
1,59,110,0
1,62,117,0
1,38,115,56
1,62,119,8
1,59,112,0
1,67,93,4
1,67,77,52
1,62,105,0
1,59,105,8
1,38,99,48
1,66,81,0
1,62,115,0
1,57,107,0
1,62,105,44
1,66,87,4
1,57,99,0
1,45,112,52
1,66,110,0
1,62,123,0
1,57,117,0
1,57,101,52
1,62,107,0
1,66,97,0
1,38,110,36
1,62,125,212
1,57,123,0
1,66,103,0
1,62,98,44
1,57,95,0
1,66,79,0
1,38,105,28
1,62,127,0
1,66,105,0
1,57,125,12
1,66,78,44
1,62,94,4
1,57,99,0
1,43,117,56
1,62,117,16
1,67,98,8
1,59,117,0
1,67,78,32
1,59,104,8
1,62,112,0
1,38,101,44
1,62,127,0
1,59,119,0
1,67,99,0
1,62,107,44
1,59,101,0
1,67,81,8
1,43,112,40
1,62,127,196
1,59,123,0
1,67,95,12
1,62,112,56
1,59,101,0
1,67,76,8
1,38,110,36
1,62,127,204
1,59,123,8
1,67,93,0
1,62,117,56
1,59,117,0
1,67,80,8
1,36,94,64
1,60,119,188
1,55,123,0
1,64,99,0
1,64,86,48
1,60,110,0
1,55,112,0
1,43,112,52
1,60,119,0
1,64,99,0
1,55,123,0
1,64,85,36
1,60,105,4
1,55,105,0
1,36,107,44
1,60,125,204
1,64,104,4
1,55,123,0
1,64,76,20
1,60,105,0
1,55,101,8
1,55,105,0
1,36,104,24
1,60,123,204
1,55,119,4
1,64,99,0
1,55,112,48
1,60,110,0
1,64,89,8
1,43,112,44
1,62,127,192
1,67,98,4
1,59,127,0
1,62,112,44
1,67,85,0
1,59,105,0
1,38,94,36
1,62,127,200
1,67,98,8
1,59,119,0
1,62,119,48
1,67,82,0
1,59,112,0
1,43,115,52
1,62,125,188
1,59,127,0
1,67,99,0
1,67,72,40
1,62,101,0
1,59,105,0
1,38,112,36
1,67,99,212
1,62,112,0
1,59,115,0
1,67,80,44
1,62,110,4
1,59,112,0
1,38,105,44
1,62,115,212
1,66,101,0
1,57,119,0
1,66,89,44
1,57,99,0
1,62,110,0
1,38,110,44
1,66,101,196
1,62,107,0
1,57,104,0
1,43,112,72
1,43,117,624
1,62,117,16
1,67,98,8
1,59,117,0
1,67,78,32
1,59,104,8
1,62,112,0
1,38,101,44
1,62,127,0
1,59,119,0
1,67,99,0
1,62,107,44
1,59,101,0
1,67,81,8
1,43,112,40
1,62,127,196
1,59,123,0
1,67,95,12
1,62,112,56
1,59,101,0
1,67,76,8
1,38,110,36
1,62,127,204
1,59,123,8
1,67,93,0
1,62,117,56
1,59,117,0
1,67,80,8
1,43,117,48
1,62,117,16
1,67,98,8
1,59,117,0
1,67,78,32
1,59,104,8
1,62,112,0
1,38,101,44
1,62,127,0
1,59,119,0
1,67,99,0
1,62,107,44
1,59,101,0
1,67,81,8
1,43,112,40
1,36,86,588
1,60,84,180
1,55,89,0
1,64,67,0
1,64,84,28
1,55,94,0
1,60,105,0
1,43,105,24
1,60,112,200
1,55,117,0
1,64,98,0
1,64,78,24
1,60,99,0
1,55,95,12
1,36,99,36
1,60,115,180
1,64,98,8
1,55,112,0
1,60,104,40
1,64,84,0
1,55,95,0
1,43,105,52
1,60,119,180
1,64,99,8
1,55,110,0
1,60,104,36
1,55,98,8
1,64,80,0
1,36,93,20
1,60,119,212
1,64,98,0
1,55,115,0
1,60,95,36
1,64,73,8
1,55,94,0
1,43,107,44
1,60,117,196
1,64,98,0
1,55,115,0
1,60,105,40
1,55,101,8
1,64,89,0
1,36,104,20
1,60,119,204
1,64,101,0
1,55,117,0
1,60,99,36
1,64,78,0
1,55,98,0
1,43,112,40
1,60,119,200
1,64,99,0
1,55,119,0
1,60,105,24
1,64,77,0
1,55,105,0
1,36,105,28
1,60,119,204
1,64,101,8
1,55,117,0
1,60,94,44
1,55,94,4
1,43,115,56
1,60,119,192
1,64,99,0
1,55,123,0
1,55,89,36
1,60,99,0
1,64,70,8
1,36,101,28
1,60,125,216
1,64,104,0
1,55,119,0
1,60,105,36
1,55,99,0
1,64,82,8
1,43,112,44
1,64,99,192
1,60,119,0
1,55,117,0
1,60,105,40
1,55,99,0
1,43,115,8
1,59,119,224
1,62,119,0
1,55,127,8
1,59,110,40
1,62,105,8
1,55,99,0
1,38,104,32
1,59,119,204
1,62,119,0
1,55,115,0
1,59,104,32
1,55,98,8
1,62,95,0
1,43,112,44
1,59,127,204
1,55,119,8
1,62,119,0
1,59,105,36
1,55,94,4
1,62,105,0
1,38,105,20
1,59,119,204
1,62,115,0
1,55,115,0
1,59,104,24
1,55,99,8
1,62,105,0
1,36,104,40
1,60,125,208
1,64,101,0
1,55,117,0
1,64,82,36
1,60,107,0
1,55,95,0
1,43,117,48
1,60,119,0
1,64,99,0
1,55,123,0
1,60,98,28
1,55,90,8
1,64,73,0
1,36,104,28
1,64,101,208
1,60,119,0
1,55,127,0
1,60,105,36
1,55,98,0
1,64,84,0
1,43,119,36
1,60,117,184
1,64,99,0
1,55,112,8
1,64,84,40
1,60,105,0
1,55,99,0
1,41,107,28
1,65,105,212
1,60,119,0
1,57,119,8
1,60,98,32
1,57,94,0
1,36,112,28
1,60,127,212
1,65,105,0
1,57,123,0
1,65,93,48
1,60,112,0
1,57,107,0
1,41,104,36
1,60,125,200
1,65,104,0
1,57,119,0
1,65,86,40
1,60,101,0
1,57,105,0
1,36,105,28
1,60,127,188
1,65,101,0
1,57,117,0
1,65,89,48
1,60,112,0
1,57,112,0
1,48,112,52
1,60,104,200
1,55,104,4
1,64,77,0
1,64,77,28
1,60,104,4
1,55,101,0
1,43,94,32
1,60,105,0
1,64,105,0
1,55,105,0
1,60,99,36
1,64,101,0
1,55,99,0
1,43,110,48
1,59,112,208
1,62,117,0
1,55,119,4
1,59,115,16
1,62,112,0
1,55,112,0
1,38,105,44
1,59,112,204
1,62,110,0
1,55,112,0
1,62,105,24
1,59,112,0
1,55,98,0
1,36,94,32
1,60,112,228
1,64,94,0
1,55,105,0
1,55,99,40
1,60,104,0
1,43,115,48
1,60,112,204
1,55,119,0
1,64,99,0
1,55,105,44
1,60,107,0
1,64,84,0
1,36,107,48
1,36,95,604
1,60,99,164
1,64,80,0
1,55,107,0
1,64,90,36
1,55,99,0
1,60,110,0
1,43,107,16
1,60,123,196
1,64,104,4
1,55,117,0
1,60,101,40
1,55,98,0
1,64,84,0
1,36,94,24
1,60,123,0
1,55,123,0
1,64,104,0
1,60,105,40
1,55,98,0
1,64,85,0
1,43,105,24
1,60,127,200
1,55,119,0
1,64,105,4
1,64,78,28
1,55,94,4
1,60,105,0
1,36,101,28
1,60,105,0
1,64,105,0
1,55,105,0
1,64,105,28
1,60,106,0
1,55,105,0
1,43,117,24
1,60,117,196
1,55,119,0
1,64,105,0
1,60,101,28
1,55,99,8
1,64,68,0
1,36,104,28
1,60,119,0
1,64,104,0
1,55,119,0
1,60,105,36
1,55,99,0
1,64,81,0
1,43,112,48
1,60,119,188
1,55,125,0
1,64,104,0
1,60,101,36
1,55,99,0
1,64,81,8
1,36,99,24
1,60,125,200
1,55,115,0
1,64,101,8
1,60,99,28
1,64,77,8
1,55,95,0
1,43,105,40
1,60,123,196
1,55,125,0
1,64,104,0
1,60,101,28
1,64,78,0
1,55,101,0
1,36,104,36
1,60,119,0
1,64,99,0
1,55,123,0
1,64,73,36
1,60,101,0
1,55,99,0
1,43,110,16
1,64,101,204
1,60,117,0
1,55,117,0
1,60,99,40
1,55,101,0
1,64,65,8
1,43,112,40
1,62,110,192
1,59,125,0
1,55,125,4
1,59,95,36
1,62,93,0
1,55,95,4
1,38,101,20
1,59,119,208
1,62,119,0
1,55,119,8
1,59,99,36
1,62,94,0
1,55,98,0
1,43,107,36
1,59,117,204
1,62,112,0
1,55,127,8
1,59,101,40
1,55,93,12
1,62,94,0
1,38,105,8
1,59,127,0
1,62,117,0
1,55,112,8
1,62,95,60
1,59,98,0
1,55,94,0
1,36,98,44
1,60,125,24
1,64,117,0
1,55,125,0
1,60,104,36
1,55,95,0
1,64,89,0
1,43,105,32
1,60,123,200
1,64,112,0
1,55,119,0
1,60,95,44
1,55,94,0
1,64,89,0
1,36,90,24
1,60,127,216
1,64,112,8
1,55,123,0
1,60,95,28
1,55,94,0
1,64,94,8
1,43,101,32
1,60,119,208
1,64,112,0
1,55,119,0
1,60,105,44
1,55,99,0
1,64,104,0
1,41,107,36
1,60,127,0
1,65,105,0
1,57,127,0
1,65,84,24
1,60,104,4
1,57,99,0
1,36,95,28
1,65,110,212
1,60,127,0
1,57,119,0
1,60,101,40
1,57,94,0
1,41,110,44
1,65,105,192
1,60,125,0
1,57,127,0
1,65,80,24
1,60,101,4
1,57,101,0
1,36,104,32
1,60,119,0
1,65,105,12
1,57,117,0
1,65,84,48
1,60,112,0
1,57,117,0
1,48,115,48
1,60,107,192
1,64,89,8
1,55,101,0
1,60,105,44
1,55,104,4
1,64,90,0
1,43,99,32
1,60,105,204
1,55,110,0
1,64,82,0
1,64,77,52
1,60,98,0
1,55,99,0
1,43,101,48
1,59,119,176
1,62,115,0
1,55,119,8
1,59,110,28
1,62,112,0
1,55,95,0
1,38,89,44
1,59,115,192
1,62,112,0
1,55,119,0
1,59,110,28
1,62,112,0
1,55,105,0
1,36,94,32
1,60,119,224
1,64,99,0
1,55,110,0
1,64,86,28
1,60,110,4
1,55,112,0
1,43,110,48
1,60,107,180
1,55,112,8
1,64,95,0
1,64,85,36
1,60,104,0
1,55,105,0
1,48,112,64
1,43,117,612
1,62,117,16
1,67,98,8
1,59,117,0
1,67,78,32
1,59,104,8
1,62,112,0
1,38,101,44
1,62,127,0
1,59,119,0
1,67,99,0
1,62,107,44
1,59,101,0
1,67,81,8
1,43,112,40
1,62,127,196
1,59,123,0
1,67,95,12
1,62,112,56
1,59,101,0
1,67,76,8
1,38,110,36
1,62,127,204
1,59,123,8
1,67,93,0
1,62,117,56
1,59,117,0
1,67,80,8
1,43,117,48
1,62,117,16
1,67,98,8
1,59,117,0
1,67,78,32
1,59,104,8
1,62,112,0
1,38,101,44
1,62,127,0
1,59,119,0
1,67,99,0
1,62,107,44
1,59,101,0
1,67,81,8
1,43,112,40
1,43,112,728
1,62,112,4
1,67,93,8
1,59,110,0
1,67,78,24
1,59,98,8
1,62,104,0
1,38,105,52
1,62,125,212
1,59,115,0
1,67,94,0
1,67,85,36
1,62,112,0
1,59,110,4
1,43,112,60
1,62,119,12
1,67,94,0
1,59,119,8
1,67,73,32
1,59,105,0
1,62,104,4
1,38,105,48
1,62,125,200
1,59,115,0
1,67,99,0
1,67,70,28
1,59,93,4
1,62,110,0
1,43,115,60
1,62,127,28
1,59,119,8
1,67,101,4
1,62,105,44
1,67,73,0
1,59,101,0
1,38,105,60
1,62,119,28
1,59,112,0
1,67,99,0
1,67,84,36
1,62,110,4
1,59,112,0
1,43,119,64
1,62,127,16
1,59,119,0
1,67,104,8
1,67,86,48
1,59,105,0
1,62,112,0
