track,note,velocity,time
1,59,126,576
1,59,126,100
1,61,126,96
1,64,126,0
1,68,126,0
1,71,126,0
1,59,126,0
1,59,126,100
1,61,126,96
1,64,126,0
1,68,126,0
1,71,126,0
1,59,126,0
1,59,126,100
1,61,126,96
1,64,126,0
1,68,126,0
1,71,126,0
1,66,126,96
1,64,126,100
1,61,126,0
1,59,126,0
1,56,126,0
1,52,126,0
1,59,126,192
1,59,126,100
1,61,126,96
1,64,126,0
1,68,126,100
1,71,126,0
1,71,126,192
1,76,126,0
1,64,126,0
1,67,126,0
1,71,126,0
1,67,126,0
1,71,126,0
1,64,126,0
1,66,126,4
1,64,126,100
1,59,126,0
1,59,126,100
1,61,126,96
1,64,126,0
1,68,126,100
1,71,126,0
1,66,126,96
1,64,126,100
1,61,126,0
1,59,126,192
1,56,126,96
1,52,126,96
1,54,126,192
1,55,126,0
1,56,126,96
1,59,126,0
1,61,126,4
1,64,126,100
1,64,126,4
1,66,126,0
1,68,126,0
1,73,126,100
1,69,126,0
1,64,126,0
1,61,126,0
1,69,126,96
1,68,126,100
1,64,126,0
1,59,126,0
1,58,126,192
1,66,126,0
1,61,126,0
1,58,126,0
1,66,126,192
1,61,126,96
1,58,126,0
1,58,126,0
1,62,126,32
1,63,126,0
1,71,126,0
1,66,126,192
1,63,126,0
1,71,126,0
1,71,126,384
1,70,126,0
1,69,126,0
1,64,126,384
1,61,126,0
1,69,126,480
1,68,126,0
1,64,126,0
1,59,126,0
1,57,126,96
1,58,126,4
1,66,126,0
1,61,126,0
1,58,126,0
1,63,126,0
1,71,126,0
1,66,126,0
1,63,126,0
1,64,126,0
1,76,126,0
1,71,126,0
1,68,126,0
1,76,126,0
1,67,126,0
1,68,126,0
1,76,126,4
1,71,126,0
1,68,126,4
1,76,126,4
1,71,126,0
1,68,126,4
1,67,126,4
1,68,126,4
1,76,126,4
1,71,126,0
1,68,126,4
1,76,126,4
1,76,126,32
1,67,126,388
1,68,126,0
1,76,126,0
1,71,126,0
1,68,126,0
1,76,126,0
1,71,126,0
1,68,126,0
1,62,126,100
1,63,126,4
1,71,126,0
1,66,126,0
1,63,126,0
1,71,126,0
1,71,126,32
1,67,126,388
1,68,126,0
1,76,126,0
1,71,126,0
1,68,126,0
1,76,126,0
1,71,126,0
1,68,126,0
1,60,126,0
1,61,126,0
1,69,126,192
1,64,126,0
1,61,126,0
1,69,126,0
1,69,126,36
1,67,126,388
1,68,126,4
1,76,126,0
1,62,126,384
1,63,126,0
1,71,126,192
1,76,126,192
1,64,126,4
1,73,126,0
1,76,126,104
1,76,126,62
1,67,126,24760
1,68,126,4
1,76,126,0
1,71,126,192
1,68,126,0
1,76,126,0
1,71,126,192
1,68,126,0
1,67,126,0
1,68,126,0
1,76,126,0
1,71,126,192
1,68,126,0
1,76,126,0
1,67,126,4
1,68,126,0
1,76,126,0
1,71,126,192
1,68,126,0
1,76,126,0
1,71,126,192
1,68,126,0
1,62,126,100
1,63,126,192
1,71,126,0
1,66,126,0
1,63,126,0
1,71,126,0
1,67,126,4
1,68,126,0
1,76,126,0
1,71,126,0
1,68,126,0
1,76,126,0
1,71,126,192
1,68,126,0
1,60,126,0
1,61,126,0
1,69,126,192
1,64,126,190
1,61,126,0
1,69,126,0
1,67,126,4
1,68,126,0
1,76,126,0
1,76,126,196
1,76,126,170
1,65,126,104
1,66,126,4
1,75,126,4
1,75,126,196
1,75,126,184
1,71,126,512
1,70,126,116
1,71,126,116
1,72,126,116
1,73,126,116
1,74,126,116
1,75,126,116
1,76,126,116
1,75,126,96
1,74,126,100
1,73,126,100
1,72,126,100
1,71,126,100
1,70,126,100
1,69,126,100
1,68,126,100
1,67,126,100
1,66,126,100
1,65,126,100
1,64,126,100
2,70,126,25536
2,71,126,0
2,80,126,4
2,76,126,4
2,71,126,4
2,80,126,0
2,76,126,4
2,71,126,4
2,70,126,4
2,71,126,4
2,80,126,4
2,76,126,4
2,71,126,4
2,80,126,4
2,80,126,40
2,70,126,388
2,71,126,0
2,80,126,0
2,76,126,0
2,71,126,0
2,80,126,0
2,76,126,0
2,71,126,0
2,65,126,0
2,66,126,0
2,75,126,0
2,71,126,0
2,66,126,0
2,75,126,0
2,75,126,32
2,70,126,388
2,71,126,0
2,80,126,4
2,76,126,0
2,71,126,4
2,80,126,4
2,76,126,0
2,71,126,0
2,63,126,0
2,64,126,0
2,73,126,0
2,69,126,0
2,64,126,0
2,73,126,0
2,73,126,32
2,70,126,388
2,71,126,0
2,80,126,0
2,65,126,2
2,66,126,190
2,75,126,0
2,68,126,384
2,68,126,192
2,68,126,0
2,70,126,24772
2,71,126,4
2,80,126,0
2,76,126,0
2,71,126,0
2,80,126,192
2,76,126,0
2,71,126,0
2,70,126,0
2,71,126,0
2,80,126,0
2,76,126,0
2,71,126,0
2,80,126,0
2,70,126,4
2,71,126,0
2,80,126,0
2,76,126,0
2,71,126,0
2,80,126,0
2,76,126,0
2,71,126,0
2,65,126,0
2,66,126,0
2,75,126,0
2,71,126,0
2,66,126,0
2,75,126,0
2,70,126,4
2,71,126,0
2,80,126,192
2,76,126,0
2,71,126,192
2,80,126,96
2,76,126,0
2,71,126,0
2,63,126,0
2,64,126,0
2,73,126,0
2,69,126,0
2,64,126,0
2,73,126,0
2,70,126,4
2,71,126,0
2,80,126,0
2,80,126,196
2,80,126,168
2,68,126,152
2,69,126,4
2,78,126,4
2,78,126,196
2,78,126,174
2,63,126,532
2,62,126,116
2,63,126,116
2,64,126,116
2,65,126,116
2,66,126,116
2,67,126,116
2,68,126,116
2,67,126,96
2,66,126,100
2,65,126,100
2,64,126,100
2,63,126,100
2,62,126,100
2,61,126,100
2,60,126,100
2,59,126,100
2,58,126,100
2,57,126,100
2,56,126,100
3,40,126,1152
3,64,126,192
3,56,126,0
3,59,126,0
3,47,126,0
3,64,126,192
3,56,126,0
3,59,126,0
3,40,126,0
3,64,126,192
3,56,126,0
3,59,126,0
3,47,126,0
3,64,126,192
3,59,126,0
3,56,126,0
3,40,126,0
3,64,126,192
3,59,126,0
3,56,126,0
3,47,126,0
3,64,126,192
3,59,126,0
3,56,126,0
3,40,126,0
3,64,126,192
3,59,126,0
3,56,126,0
3,47,126,0
3,64,126,192
3,56,126,0
3,59,126,0
3,40,126,0
3,44,126,4
3,64,126,0
3,59,126,0
3,56,126,0
3,45,126,4
3,46,126,4
3,64,126,0
3,59,126,0
3,56,126,0
3,47,126,4
3,45,126,4
3,63,126,0
3,54,126,0
3,59,126,0
3,44,126,4
3,42,126,4
3,63,126,0
3,59,126,0
3,54,126,0
3,40,126,4
3,64,126,192
3,59,126,0
3,56,126,0
3,47,126,0
3,59,126,192
3,56,126,0
3,64,126,0
3,40,126,0
3,64,126,192
3,59,126,0
3,56,126,0
3,47,126,0
3,64,126,192
3,59,126,0
3,56,126,0
3,40,126,0
3,59,126,192
3,64,126,0
3,56,126,0
3,47,126,0
3,64,126,192
3,56,126,0
3,59,126,0
3,40,126,0
3,64,126,192
3,59,126,0
3,56,126,0
3,42,126,0
3,44,126,4
3,59,126,0
3,56,126,0
3,64,126,0
3,45,126,4
3,61,126,192
3,57,126,0
3,64,126,0
3,40,126,0
3,61,126,192
3,57,126,0
3,64,126,0
3,45,126,0
3,45,126,4
3,61,126,0
3,64,126,0
3,57,126,0
3,44,126,4
3,42,126,4
3,64,126,0
3,61,126,0
3,57,126,0
3,40,126,4
3,44,126,4
3,64,126,0
3,59,126,0
3,56,126,0
3,45,126,4
3,46,126,4
3,64,126,0
3,59,126,0
3,56,126,0
3,47,126,4
3,45,126,4
3,59,126,0
3,54,126,0
3,63,126,0
3,44,126,4
3,42,126,4
3,63,126,0
3,59,126,0
3,54,126,0
3,40,126,4
3,59,126,192
3,64,126,0
3,56,126,0
3,47,126,0
3,64,126,192
3,59,126,0
3,56,126,0
3,40,126,0
3,64,126,192
3,59,126,0
3,56,126,0
3,42,126,0
3,44,126,4
3,64,126,0
3,59,126,0
3,56,126,0
3,45,126,4
3,61,126,192
3,64,126,0
3,57,126,0
3,40,126,0
3,64,126,192
3,61,126,0
3,57,126,0
3,45,126,0
3,61,126,192
3,64,126,0
3,57,126,0
3,44,126,0
3,42,126,4
3,61,126,0
3,64,126,0
3,57,126,0
3,40,126,4
3,64,126,192
3,59,126,0
3,56,126,0
3,47,126,0
3,64,126,192
3,59,126,0
3,56,126,0
3,40,126,0
3,64,126,192
3,59,126,0
3,56,126,0
3,41,126,0
3,64,126,192
3,59,126,0
3,56,126,0
3,42,126,0
3,58,126,192
3,61,126,0
3,66,126,0
3,49,126,0
3,61,126,192
3,58,126,0
3,66,126,0
3,42,126,0
3,42,126,4
3,66,126,0
3,58,126,0
3,61,126,0
3,44,126,4
3,46,126,4
3,66,126,0
3,58,126,0
3,61,126,0
3,47,126,4
3,63,126,192
3,66,126,0
3,59,126,0
3,42,126,0
3,63,126,192
3,66,126,0
3,59,126,0
3,47,126,0
3,66,126,192
3,63,126,0
3,59,126,0
3,47,126,0
3,46,126,4
3,66,126,0
3,59,126,0
3,63,126,0
3,45,126,4
3,64,126,192
3,61,126,0
3,57,126,0
3,40,126,0
3,61,126,192
3,64,126,0
3,57,126,0
3,45,126,0
3,45,126,4
3,64,126,0
3,61,126,0
3,57,126,0
3,44,126,4
3,42,126,4
3,64,126,0
3,57,126,0
3,61,126,0
3,40,126,4
3,59,126,192
3,64,126,0
3,56,126,0
3,47,126,0
3,59,126,192
3,64,126,0
3,56,126,0
3,40,126,0
3,39,126,4
3,64,126,0
3,59,126,0
3,56,126,0
3,40,126,4
3,41,126,4
3,64,126,0
3,59,126,0
3,56,126,0
3,42,126,4
3,44,126,4
3,61,126,0
3,58,126,0
3,66,126,0
3,45,126,4
3,46,126,4
3,61,126,0
3,66,126,0
3,58,126,0
3,47,126,4
3,45,126,4
3,63,126,0
3,66,126,0
3,59,126,0
3,44,126,4
3,42,126,4
3,66,126,0
3,63,126,0
3,59,126,0
3,40,126,4
3,64,126,192
3,59,126,0
3,68,126,0
3,47,126,0
3,64,126,192
3,68,126,0
3,59,126,0
3,52,126,0
3,47,126,4
3,59,126,0
3,64,126,0
3,68,126,0
3,49,126,4
3,51,126,4
3,59,126,0
3,64,126,0
3,68,126,0
3,52,126,4
3,68,126,192
3,64,126,0
3,59,126,0
3,47,126,0
3,64,126,192
3,68,126,0
3,59,126,0
3,40,126,0
3,68,126,192
3,59,126,0
3,64,126,0
3,47,126,0
3,64,126,192
3,59,126,0
3,68,126,0
3,40,126,0
3,59,126,192
3,64,126,0
3,68,126,0
3,47,126,0
3,68,126,192
3,59,126,0
3,64,126,0
3,52,126,0
3,52,126,0
3,59,126,388
3,64,126,0
3,68,126,0
3,52,126,4
3,64,126,192
3,68,126,0
3,59,126,0
3,47,126,0
3,64,126,192
3,59,126,0
3,68,126,0
3,40,126,0
3,64,126,192
3,59,126,0
3,68,126,0
3,47,126,0
3,64,126,192
3,59,126,0
3,68,126,0
3,47,126,0
3,63,126,192
3,66,126,0
3,59,126,0
3,42,126,0
3,63,126,192
3,59,126,0
3,66,126,0
3,47,126,0
3,47,126,0
3,59,126,388
3,63,126,0
3,66,126,0
3,52,126,4
3,59,126,192
3,64,126,0
3,56,126,0
3,47,126,0
3,59,126,192
3,56,126,0
3,64,126,0
3,40,126,0
3,40,126,4
3,59,126,0
3,56,126,0
3,64,126,0
3,42,126,4
3,44,126,4
3,64,126,0
3,59,126,0
3,56,126,0
3,45,126,4
3,61,126,192
3,64,126,0
3,57,126,0
3,40,126,0
3,61,126,192
3,64,126,0
3,57,126,0
3,45,126,0
3,45,126,0
3,61,126,388
3,57,126,0
3,64,126,0
3,52,126,4
3,59,126,192
3,64,126,0
3,56,126,0
3,51,126,0
3,49,126,4
3,64,126,0
3,59,126,0
3,56,126,0
3,47,126,4
3,59,126,192
3,63,126,0
3,54,126,0
3,44,126,0
3,42,126,4
3,59,126,0
3,63,126,0
3,54,126,0
3,40,126,4
3,64,126,192
3,59,126,0
3,56,126,0
3,47,126,0
3,64,126,192
3,59,126,0
3,56,126,0
3,52,126,0
3,47,126,4
3,64,126,0
3,59,126,0
3,56,126,0
3,49,126,4
3,51,126,4
3,64,126,0
3,59,126,0
3,56,126,0
3,40,126,4
3,64,126,192
3,56,126,0
3,59,126,0
3,47,126,0
3,64,126,192
3,56,126,0
3,59,126,0
3,40,126,0
3,64,126,192
3,56,126,0
3,59,126,0
3,47,126,0
3,64,126,192
3,59,126,0
3,56,126,0
3,40,126,0
3,64,126,192
3,59,126,0
3,56,126,0
3,47,126,0
3,64,126,192
3,59,126,0
3,56,126,0
3,40,126,0
3,64,126,192
3,59,126,0
3,56,126,0
3,47,126,0
3,64,126,192
3,56,126,0
3,59,126,0
3,40,126,0
3,44,126,4
3,64,126,0
3,59,126,0
3,56,126,0
3,45,126,4
3,46,126,4
3,64,126,0
3,59,126,0
3,56,126,0
3,47,126,4
3,45,126,4
3,63,126,0
3,54,126,0
3,59,126,0
3,44,126,4
3,42,126,4
3,63,126,0
3,59,126,0
3,54,126,0
3,40,126,4
3,64,126,192
3,59,126,0
3,56,126,0
3,47,126,0
3,59,126,192
3,56,126,0
3,64,126,0
3,40,126,0
3,64,126,192
3,59,126,0
3,56,126,0
3,47,126,0
3,64,126,192
3,59,126,0
3,56,126,0
3,40,126,0
3,59,126,192
3,64,126,0
3,56,126,0
3,47,126,0
3,64,126,192
3,56,126,0
3,59,126,0
3,40,126,0
3,64,126,192
3,59,126,0
3,56,126,0
3,42,126,0
3,44,126,4
3,59,126,0
3,56,126,0
3,64,126,0
3,45,126,4
3,61,126,192
3,57,126,0
3,64,126,0
3,40,126,0
3,61,126,192
3,57,126,0
3,64,126,0
3,45,126,0
3,45,126,4
3,61,126,0
3,64,126,0
3,57,126,0
3,44,126,4
3,42,126,4
3,64,126,0
3,61,126,0
3,57,126,0
3,40,126,4
3,44,126,4
3,64,126,0
3,59,126,0
3,56,126,0
3,45,126,4
3,46,126,4
3,64,126,0
3,59,126,0
3,56,126,0
3,47,126,4
3,45,126,4
3,59,126,0
3,54,126,0
3,63,126,0
3,44,126,4
3,42,126,4
3,63,126,0
3,59,126,0
3,54,126,0
3,40,126,4
3,59,126,192
3,64,126,0
3,56,126,0
3,47,126,0
3,64,126,192
3,59,126,0
3,56,126,0
3,40,126,0
3,64,126,192
3,59,126,0
3,56,126,0
3,42,126,0
3,44,126,4
3,64,126,0
3,59,126,0
3,56,126,0
3,45,126,4
3,61,126,192
3,64,126,0
3,57,126,0
3,40,126,0
3,64,126,192
3,61,126,0
3,57,126,0
3,45,126,0
3,61,126,192
3,64,126,0
3,57,126,0
3,44,126,0
3,42,126,4
3,61,126,0
3,64,126,0
3,57,126,0
3,40,126,4
3,64,126,192
3,59,126,0
3,56,126,0
3,47,126,0
3,64,126,192
3,59,126,0
3,56,126,0
3,40,126,0
3,64,126,192
3,59,126,0
3,56,126,0
3,41,126,0
3,64,126,192
3,59,126,0
3,56,126,0
3,42,126,0
3,58,126,192
3,61,126,0
3,66,126,0
3,49,126,0
3,61,126,192
3,58,126,0
3,66,126,0
3,42,126,0
3,42,126,4
3,66,126,0
3,58,126,0
3,61,126,0
3,44,126,4
3,46,126,4
3,66,126,0
3,58,126,0
3,61,126,0
3,47,126,4
3,63,126,192
3,66,126,0
3,59,126,0
3,42,126,0
3,63,126,192
3,66,126,0
3,59,126,0
3,47,126,0
3,66,126,192
3,63,126,0
3,59,126,0
3,47,126,0
3,46,126,4
3,66,126,0
3,59,126,0
3,63,126,0
3,45,126,4
3,64,126,192
3,61,126,0
3,57,126,0
3,40,126,0
3,61,126,192
3,64,126,0
3,57,126,0
3,45,126,0
3,45,126,4
3,64,126,0
3,61,126,0
3,57,126,0
3,44,126,4
3,42,126,4
3,64,126,0
3,57,126,0
3,61,126,0
3,40,126,4
3,59,126,192
3,64,126,0
3,56,126,0
3,47,126,0
3,59,126,192
3,64,126,0
