track,note,velocity,time
1,62,66,16288
1,65,66,0
1,65,66,336
1,62,67,0
1,62,71,144
1,65,73,0
1,67,57,240
1,63,73,0
1,62,69,240
1,65,73,0
1,62,66,43344
1,65,66,0
1,65,66,336
1,62,67,0
1,62,71,144
1,65,73,0
1,67,57,240
1,63,73,0
1,62,69,240
1,65,73,0
2,29,100,2224
2,41,100,96
2,29,100,96
2,41,100,96
2,29,100,96
2,41,100,96
2,29,100,96
2,27,100,96
2,27,100,0
2,29,100,0
2,41,100,96
2,29,100,96
2,41,100,96
2,29,100,96
2,41,100,96
2,29,100,96
2,27,100,96
2,27,100,0
2,29,100,0
2,41,100,96
2,29,100,96
2,41,100,96
2,29,100,96
2,41,100,96
2,29,100,96
2,27,100,96
2,27,100,0
2,29,100,0
2,41,100,96
2,29,100,96
2,41,100,96
2,29,100,96
2,41,100,96
2,29,100,96
2,27,100,96
2,27,100,0
2,29,100,0
2,41,100,96
2,29,100,96
2,41,100,96
2,29,100,96
2,41,100,96
2,29,100,96
2,27,100,96
2,27,100,0
2,29,100,0
2,41,100,96
2,29,100,96
2,41,100,96
2,29,100,96
2,41,100,96
2,29,100,96
2,27,100,96
2,27,100,0
2,29,100,0
2,41,100,96
2,29,100,96
2,41,100,96
2,29,100,96
2,41,100,96
2,29,100,96
2,27,100,96
2,27,100,0
2,29,100,0
2,41,100,96
2,29,100,96
2,41,100,96
2,29,100,96
2,41,100,96
2,29,100,96
2,27,100,96
2,27,100,0
2,29,100,0
2,41,100,96
2,29,100,96
2,41,100,96
2,29,100,96
2,29,100,288
2,29,100,1824
2,29,100,288
2,29,100,288
2,29,100,288
2,29,100,288
2,29,100,288
2,29,100,288
2,29,100,288
2,29,100,96
2,31,100,0
2,34,100,0
2,34,100,288
2,34,100,288
2,34,100,288
2,34,100,288
2,34,100,288
2,34,100,288
2,34,100,288
2,34,100,288
2,34,100,288
2,34,100,288
2,34,100,288
2,34,100,288
2,34,100,288
2,34,100,288
2,34,100,288
2,34,100,288
2,34,100,288
2,34,100,288
2,34,100,288
2,29,100,96
2,31,100,0
2,34,100,0
2,34,100,288
2,34,100,288
2,34,100,288
2,34,100,288
2,34,100,288
2,34,100,288
2,34,100,288
2,34,100,288
2,34,100,288
2,34,100,288
2,34,100,288
2,29,100,288
2,29,100,288
2,29,100,288
2,29,100,288
2,29,100,288
2,29,100,288
2,29,100,288
2,28,100,288
2,27,100,288
2,27,100,288
2,27,100,288
2,27,100,288
2,27,100,288
2,27,100,288
2,27,100,288
2,27,100,288
2,34,100,288
2,34,100,288
2,34,100,288
2,34,100,288
2,34,100,288
2,34,100,288
2,34,100,288
2,34,100,288
2,29,100,288
2,29,100,288
2,29,100,288
2,29,100,288
2,29,100,288
2,29,100,288
2,29,100,288
2,29,100,288
2,27,100,288
2,27,100,288
2,29,100,288
2,29,100,288
2,34,100,288
2,34,100,288
2,29,100,288
2,29,100,288
2,34,100,288
2,29,100,1440
2,29,100,192
2,29,100,192
2,29,100,192
2,29,100,192
2,29,100,192
2,29,100,192
2,29,100,192
2,34,100,192
2,34,100,192
2,34,100,192
2,34,100,192
2,34,100,192
2,34,100,192
2,34,100,192
2,34,100,192
2,29,100,192
2,29,100,192
2,29,100,192
2,29,100,192
2,29,100,192
2,29,100,192
2,29,100,192
2,29,100,192
2,34,100,192
2,34,100,192
2,29,100,192
2,29,100,192
2,34,100,192
2,29,100,1344
2,29,100,192
2,29,100,192
2,29,100,192
2,29,100,192
2,29,100,192
2,29,100,192
2,29,100,192
2,29,100,0
2,31,100,0
2,34,100,0
2,34,100,192
2,34,100,192
2,34,100,192
2,34,100,192
2,34,100,192
2,34,100,192
2,34,100,192
2,34,100,192
2,34,100,192
2,34,100,192
2,34,100,192
2,34,100,192
2,34,100,192
2,34,100,192
2,34,100,192
2,34,100,192
2,34,100,192
2,34,100,192
2,34,100,192
2,29,100,0
2,31,100,0
2,34,100,0
2,34,100,192
2,34,100,192
2,34,100,192
2,34,100,192
2,34,100,192
2,34,100,192
2,34,100,192
2,34,100,192
2,34,100,192
2,34,100,192
2,34,100,192
2,29,100,192
2,29,100,192
2,29,100,192
2,29,100,192
2,29,100,192
2,29,100,192
2,29,100,192
2,28,100,192
2,27,100,192
2,27,100,192
2,27,100,192
2,27,100,192
2,27,100,192
2,27,100,192
2,27,100,192
2,27,100,192
2,34,100,192
2,34,100,192
2,34,100,192
2,34,100,192
2,34,100,192
2,34,100,192
2,34,100,192
2,34,100,192
2,29,100,192
2,29,100,192
2,29,100,192
2,29,100,192
2,29,100,192
2,29,100,192
2,29,100,192
2,29,100,192
2,27,100,192
2,27,100,192
2,29,100,192
2,29,100,192
2,34,100,192
2,34,100,192
2,29,100,192
2,29,100,192
2,34,100,192
2,29,100,1344
2,29,100,192
2,29,100,192
2,29,100,192
2,29,100,192
2,29,100,192
2,29,100,192
2,29,100,192
2,34,100,192
2,34,100,192
2,34,100,192
2,34,100,192
2,34,100,192
2,34,100,192
2,34,100,192
2,34,100,192
2,29,100,192
2,29,100,192
2,29,100,192
2,29,100,192
2,29,100,192
2,29,100,192
2,29,100,192
2,29,100,192
2,34,100,192
2,34,100,192
2,34,100,192
2,34,100,192
2,30,100,192
2,30,100,192
2,32,100,192
2,34,100,192
2,35,100,192
2,35,100,192
2,35,100,192
2,35,100,192
2,35,100,192
2,35,100,192
2,35,100,192
2,35,100,192
2,35,100,192
2,35,100,192
2,35,100,192
2,35,100,192
2,30,100,0
2,32,100,0
2,35,100,0
2,35,100,192
2,35,100,192
2,35,100,192
2,35,100,192
2,35,100,192
2,35,100,192
2,35,100,192
2,35,100,192
2,35,100,192
2,35,100,192
2,35,100,192
2,30,100,192
2,30,100,192
2,30,100,192
2,30,100,192
2,30,100,192
2,30,100,192
2,30,100,192
2,29,100,192
2,28,100,192
2,28,100,192
2,28,100,192
2,28,100,192
2,28,100,192
2,28,100,192
2,28,100,192
2,28,100,192
2,35,100,192
2,35,100,192
2,35,100,192
2,35,100,192
2,35,100,192
2,35,100,192
2,35,100,192
2,35,100,192
2,30,100,192
2,30,100,192
2,30,100,192
2,30,100,192
2,30,100,192
2,30,100,192
2,30,100,192
2,30,100,192
2,28,100,192
2,28,100,192
2,30,100,192
2,30,100,192
2,35,100,192
2,35,100,192
2,30,100,192
2,30,100,192
2,35,100,192
2,30,100,1344
2,30,100,192
2,30,100,192
2,30,100,192
2,30,100,192
2,30,100,192
2,30,100,192
2,30,100,192
2,35,100,192
2,35,100,192
2,35,100,192
2,35,100,192
2,35,100,192
2,35,100,192
2,35,100,192
2,35,100,192
2,30,100,192
2,30,100,192
2,30,100,192
2,30,100,192
2,30,100,192
2,30,100,192
2,30,100,192
2,30,100,192
2,35,100,192
2,35,100,192
2,35,100,192
2,35,100,192
2,35,100,192
2,35,100,192
2,35,100,192
2,35,100,192
2,30,100,192
2,30,100,192
2,30,100,192
2,30,100,192
2,30,100,192
2,30,100,192
2,30,100,192
2,30,100,192
2,35,100,192
2,35,100,192
2,35,100,192
2,35,100,192
2,35,100,192
2,35,100,192
2,35,100,192
2,35,100,192
2,30,100,192
2,30,100,192
2,30,100,192
2,30,100,192
2,30,100,192
2,30,100,192
2,30,100,192
2,30,100,192
2,35,100,192
2,35,100,192
2,35,100,192
2,35,100,192
2,35,100,192
2,35,100,192
2,35,100,192
2,35,100,192
2,30,100,192
2,30,100,192
2,30,100,192
2,30,100,192
2,30,100,192
2,30,100,192
2,30,100,192
2,30,100,192
2,35,100,192
2,35,100,192
2,30,100,192
2,30,100,192
2,35,100,192
2,35,100,192
2,35,100,192
3,57,75,17720
3,53,75,0
3,48,75,0
3,57,75,48
3,53,75,0
3,48,75,0
3,57,75,48
3,53,75,0
3,48,75,0
3,57,75,144
3,53,75,0
3,48,75,0
3,57,75,336
3,53,75,0
3,51,75,0
3,48,75,0
3,57,75,48
3,53,75,0
3,51,75,0
3,48,75,0
3,57,75,48
3,53,75,0
3,51,75,0
3,48,75,0
3,57,75,144
3,53,75,0
3,51,75,0
3,48,75,0
3,57,75,336
3,53,75,0
3,48,75,0
3,57,75,48
3,53,75,0
3,48,75,0
3,57,75,48
3,53,75,0
3,48,75,0
3,57,75,144
3,53,75,0
3,48,75,0
3,57,75,336
3,53,75,0
3,51,75,0
3,48,75,0
3,57,75,48
3,53,75,0
3,51,75,0
3,48,75,0
3,57,75,240
3,53,75,0
3,51,75,0
3,48,75,0
3,62,75,336
3,58,75,0
3,53,75,0
3,62,75,48
3,58,75,0
3,53,75,0
3,62,75,48
3,58,75,0
3,53,75,0
3,62,75,144
3,58,75,0
3,53,75,0
3,62,75,336
3,58,75,0
3,53,75,0
3,62,75,48
3,58,75,0
3,53,75,0
3,62,75,48
3,58,75,0
3,53,75,0
3,62,75,144
3,58,75,0
3,53,75,0
3,62,75,336
3,58,75,0
3,53,75,0
3,62,75,48
3,58,75,0
3,53,75,0
3,62,75,48
3,58,75,0
3,53,75,0
3,62,75,144
3,58,75,0
3,53,75,0
3,62,75,336
3,58,75,0
3,53,75,0
3,62,75,48
3,58,75,0
3,53,75,0
3,62,75,48
3,58,75,0
3,53,75,0
3,62,75,144
3,58,75,0
3,53,75,0
3,62,75,336
3,58,75,0
3,53,75,0
3,62,75,336
3,58,75,0
3,53,75,0
3,62,75,336
3,58,75,0
3,53,75,0
3,62,75,336
3,58,75,0
3,53,75,0
3,62,75,336
3,58,75,0
3,53,75,0
3,62,75,336
3,58,75,0
3,53,75,0
3,62,75,336
3,58,75,0
3,53,75,0
3,62,75,336
3,58,75,0
3,53,75,0
3,62,75,336
3,58,75,0
3,53,75,0
3,62,75,48
3,58,75,0
3,53,75,0
3,62,75,240
3,58,75,0
3,53,75,0
3,62,75,336
3,58,75,0
3,53,75,0
3,62,75,48
3,58,75,0
3,53,75,0
3,62,75,240
3,58,75,0
3,53,75,0
3,62,75,336
3,58,75,0
3,53,75,0
3,62,75,48
3,58,75,0
3,53,75,0
3,62,75,240
3,58,75,0
3,53,75,0
3,62,75,336
3,58,75,0
3,53,75,0
3,62,75,48
3,58,75,0
3,53,75,0
3,62,75,240
3,58,75,0
3,53,75,0
3,62,75,336
3,58,75,0
3,53,75,0
3,62,75,336
3,58,75,0
3,53,75,0
3,62,75,336
3,58,75,0
3,53,75,0
3,62,75,336
3,58,75,0
3,53,75,0
3,62,75,336
3,58,75,0
3,53,75,0
3,62,75,336
3,58,75,0
3,53,75,0
3,62,75,336
3,58,75,0
3,53,75,0
3,62,75,336
3,58,75,0
3,53,75,0
3,60,75,336
3,57,75,0
3,53,75,0
3,60,75,336
3,57,75,0
3,53,75,0
3,60,75,48
3,57,75,0
3,53,75,0
3,60,75,240
3,57,75,0
3,53,75,0
3,60,75,336
3,57,75,0
3,53,75,0
3,60,75,336
3,57,75,0
3,53,75,0
3,60,75,48
3,57,75,0
3,53,75,0
3,60,75,240
3,57,75,0
3,53,75,0
3,60,75,144
3,57,75,0
3,53,75,0
3,59,75,336
3,56,75,0
3,52,75,0
3,58,75,528
3,55,75,0
3,51,75,0
3,58,75,336
3,55,75,0
3,51,75,0
3,58,75,336
3,55,75,0
3,51,75,0
3,58,75,336
3,55,75,0
3,51,75,0
3,58,75,336
3,55,75,0
3,51,75,0
3,58,75,336
3,55,75,0
3,51,75,0
3,58,75,336
3,55,75,0
3,51,75,0
3,58,75,48
3,55,75,0
3,51,75,0
3,58,75,240
3,55,75,0
3,51,75,0
3,62,75,336
3,58,75,0
3,53,75,0
3,62,75,336
3,58,75,0
3,53,75,0
3,62,75,336
3,58,75,0
3,53,75,0
3,62,75,48
3,58,75,0
3,53,75,0
3,62,75,240
3,58,75,0
3,53,75,0
3,62,75,336
3,58,75,0
3,53,75,0
3,62,75,336
3,58,75,0
3,53,75,0
3,62,75,336
3,58,75,0
3,53,75,0
3,62,75,48
3,58,75,0
3,53,75,0
3,62,75,240
3,58,75,0
3,53,75,0
3,60,75,336
3,57,75,0
3,53,75,0
3,60,75,336
3,57,75,0
3,53,75,0
3,60,75,336
3,57,75,0
3,53,75,0
3,60,75,48
3,57,75,0
3,53,75,0
3,60,75,240
3,57,75,0
3,53,75,0
3,60,75,336
3,57,75,0
3,53,75,0
3,60,75,336
3,57,75,0
3,53,75,0
3,60,75,336
3,57,75,0
3,53,75,0
3,60,75,48
3,57,75,0
3,53,75,0
3,60,75,240
3,57,75,0
3,53,75,0
3,58,75,336
3,55,75,0
3,51,75,0
3,58,75,336
3,55,75,0
3,51,75,0
3,60,75,336
3,57,75,0
3,53,75,0
3,60,75,48
3,57,75,0
3,53,75,0
3,60,75,240
3,57,75,0
3,53,75,0
3,53,75,142
3,58,75,2
3,50,75,2
3,62,75,142
3,58,75,0
3,53,75,0
3,62,75,336
3,58,75,0
3,53,75,0
3,57,75,144
3,53,75,0
3,48,75,0
3,60,75,144
3,57,75,0
3,53,75,0
3,60,75,48
3,57,75,0
3,53,75,0
3,60,75,240
3,57,75,0
3,53,75,0
3,62,75,144
3,58,75,0
3,53,75,0
3,57,75,1680
3,53,75,0
3,48,75,0
3,57,75,336
3,53,75,0
3,48,75,0
3,57,75,336
3,53,75,0
3,48,75,0
3,57,75,48
3,53,75,0
3,48,75,0
3,57,75,240
3,53,75,0
3,48,75,0
3,57,75,336
3,53,75,0
3,48,75,0
3,57,75,336
3,53,75,0
3,48,75,0
3,57,75,336
3,53,75,0
3,48,75,0
3,57,75,48
3,53,75,0
3,48,75,0
3,57,75,240
3,53,75,0
3,48,75,0
3,58,75,336
3,53,75,0
3,50,75,0
3,58,75,336
3,53,75,0
3,50,75,0
3,58,75,48
3,53,75,0
3,50,75,0
3,58,75,240
3,53,75,0
3,50,75,0
3,58,75,48
3,53,75,0
3,50,75,0
3,58,75,240
3,53,75,0
3,50,75,0
3,58,75,336
3,53,75,0
3,50,75,0
3,58,75,336
3,53,75,0
3,50,75,0
3,58,75,336
3,53,75,0
3,50,75,0
3,58,75,48
3,53,75,0
3,50,75,0
3,58,75,240
3,53,75,0
3,50,75,0
3,57,75,336
3,53,75,0
3,48,75,0
3,57,75,336
3,53,75,0
3,48,75,0
3,57,75,336
3,53,75,0
3,48,75,0
3,57,75,48
3,53,75,0
3,48,75,0
3,57,75,240
3,53,75,0
3,48,75,0
3,57,75,336
3,53,75,0
3,48,75,0
3,57,75,336
3,53,75,0
3,48,75,0
3,57,75,48
3,53,75,0
3,48,75,0
3,57,75,240
3,53,75,0
3,48,75,0
3,57,75,48
3,53,75,0
3,48,75,0
3,57,75,240
3,53,75,0
3,48,75,0
3,58,75,336
3,53,75,0
3,50,75,0
3,58,75,336
3,53,75,0
3,50,75,0
3,57,75,336
3,53,75,0
3,48,75,0
3,57,75,48
3,53,75,0
3,48,75,0
3,57,75,240
3,53,75,0
3,48,75,0
3,58,75,144
3,53,75,0
3,50,75,0
3,57,75,1680
3,53,75,0
3,48,75,0
3,57,75,48
3,53,75,0
3,48,75,0
3,57,75,48
3,53,75,0
3,48,75,0
3,57,75,144
3,53,75,0
3,48,75,0
3,57,75,336
3,53,75,0
3,51,75,0
3,48,75,0
3,57,75,48
3,53,75,0
3,51,75,0
3,48,75,0
3,57,75,48
3,53,75,0
3,51,75,0
3,48,75,0
3,57,75,144
3,53,75,0
3,51,75,0
3,48,75,0
3,57,75,336
3,53,75,0
3,48,75,0
3,57,75,48
3,53,75,0
3,48,75,0
3,57,75,48
3,53,75,0
3,48,75,0
3,57,75,144
3,53,75,0
3,48,75,0
3,57,75,336
3,53,75,0
3,51,75,0
3,48,75,0
3,57,75,48
3,53,75,0
3,51,75,0
3,48,75,0
3,57,75,240
3,53,75,0
3,51,75,0
3,48,75,0
3,62,75,336
3,58,75,0
3,53,75,0
3,62,75,48
3,58,75,0
3,53,75,0
3,62,75,48
3,58,75,0
3,53,75,0
3,62,75,144
3,58,75,0
3,53,75,0
3,62,75,336
3,58,75,0
3,53,75,0
3,62,75,48
3,58,75,0
3,53,75,0
3,62,75,48
