track,note,velocity,time
2,52,98,1090
2,59,93,192
2,64,84,192
2,66,93,192
2,67,98,58
2,64,91,120
2,59,93,14
2,55,84,137
2,50,104,96
2,55,86,51
2,48,105,6
2,67,78,384
2,67,107,30
2,74,111,96
2,76,93,96
2,74,111,36
2,47,107,0
2,67,93,70
2,71,102,18
2,74,111,45
2,64,84,33
2,45,102,0
2,69,93,0
2,72,94,6
2,69,102,89
2,79,109,19
2,72,102,192
2,67,84,1
2,47,93,0
2,71,102,0
2,74,84,11
2,67,102,36
2,79,109,192
2,74,84,28
2,72,84,32
2,48,102,0
2,76,102,0
2,67,93,192
2,79,102,192
2,76,87,48
2,38,102,0
2,78,102,0
2,74,94,96
2,67,80,64
2,69,80,0
2,57,81,93
2,64,108,3
2,66,69,64
2,62,71,63
2,64,78,14
2,33,93,0
2,52,77,0
2,57,76,6
2,60,81,329
2,67,87,13
2,33,85,0
2,52,63,0
2,57,93,68
2,60,85,96
2,64,85,35
2,35,93,0
2,67,107,0
2,62,100,21
2,59,93,96
2,55,78,23
2,55,80,9
2,36,100,0
2,60,76,0
2,67,76,7
2,64,84,1
2,64,84,33
2,60,64,0
2,67,89,0
2,57,84,5
2,62,88,7
2,38,93,0
2,66,93,6
2,62,76,69
2,62,71,66
2,57,75,25
2,59,87,185
2,43,96,0
2,62,88,0
2,69,93,0
2,71,78,82
2,67,79,68
2,79,98,118
2,42,96,0
2,50,72,0
2,57,76,0
2,54,76,0
2,40,85,0
2,52,84,0
2,47,84,0
2,55,84,11
2,66,93,373
2,62,72,192
2,64,84,102
2,52,76,12
2,55,76,8
2,38,85,0
2,55,76,0
2,62,93,0
2,59,76,0
2,67,84,192
2,36,93,0
2,60,56,0
2,64,93,0
2,55,76,0
2,62,80,18
2,64,84,15
2,43,78,192
2,55,84,20
2,47,76,0
2,59,80,0
2,62,84,9
2,67,80,183
2,45,91,0
2,52,74,0
2,57,83,0
2,60,84,6
2,57,92,89
2,67,99,19
2,60,92,192
2,55,74,26
2,47,91,0
2,59,92,0
2,62,74,11
2,55,92,36
2,67,99,192
2,62,74,28
2,60,74,32
2,48,89,0
2,64,92,0
2,55,83,192
2,67,92,192
2,64,77,48
2,57,83,13
2,50,89,0
2,66,92,0
2,62,74,192
2,57,83,10
2,66,92,0
2,69,77,192
2,40,85,0
2,64,84,0
2,71,84,0
2,67,93,0
2,76,102,192
2,69,98,49
2,76,98,65
2,67,84,6
2,76,80,76
2,69,80,27
2,76,84,79
2,38,85,0
2,62,76,0
2,55,80,0
2,59,84,0
2,71,99,0
2,64,99,96
2,67,85,37
2,71,93,12
2,36,93,0
2,64,76,0
2,60,84,0
2,72,102,0
2,48,96,0
2,62,95,1
2,55,89,0
2,64,78,1
2,47,96,0
2,62,100,0
2,55,93,53
2,59,93,96
2,62,100,13
2,45,96,0
2,52,74,0
2,57,83,0
2,60,84,6
2,57,92,89
2,67,99,19
2,60,92,192
2,55,74,26
2,47,91,0
2,59,92,0
2,62,74,11
2,55,92,36
2,67,99,192
2,62,74,28
2,60,74,32
2,48,89,0
2,64,92,0
2,55,83,192
2,67,92,192
2,64,87,36
2,60,77,48
2,57,83,13
2,50,89,0
2,54,78,0
2,62,83,0
3,38,110,23362
3,36,119,0
3,38,110,0
3,36,108,0
3,33,116,0
3,38,101,0
3,36,110,0
3,38,101,0
3,43,101,0
3,43,94,0
3,42,108,0
3,40,108,0
3,40,94,0
3,38,108,0
3,36,101,0
3,36,88,0
3,38,94,0
3,40,108,0
3,38,101,0
3,33,83,0
3,38,92,0
3,43,101,0
3,43,94,0
3,42,108,0
3,40,108,0
3,40,94,0
3,38,108,0
3,36,101,0
3,36,90,0
3,38,94,0
3,40,108,0
3,38,101,0
3,33,83,0
3,38,92,0
3,33,110,0
3,28,84,0
3,33,106,0
3,35,92,0
3,36,106,0
3,43,101,0
3,47,101,0
3,48,66,0
3,47,95,0
3,45,101,0
3,47,92,0
3,45,101,0
3,43,83,0
3,42,92,0
3,43,95,0
3,42,106,0
3,40,101,0
3,35,92,0
3,40,92,0
3,40,101,96
3,38,105,0
3,36,105,0
3,31,97,0
3,35,112,0
3,33,112,0
3,33,90,0
3,35,105,0
3,33,90,0
3,35,90,0
3,36,105,0
3,33,83,0
3,38,105,0
3,40,101,0
3,35,92,0
3,40,92,0
3,40,101,96
3,38,105,0
3,36,105,0
3,31,97,0
3,35,112,0
3,33,112,0
3,33,90,0
3,35,105,0
3,33,90,0
3,35,90,0
3,36,105,0
3,33,83,0
3,38,105,0
3,33,92,0
3,38,99,0
3,38,106,96
3,36,119,0
3,33,90,0
3,38,105,0
3,38,110,96
3,36,108,0
3,31,97,0
3,33,112,0
3,33,116,96
3,38,101,0
3,36,110,0
3,38,101,0
3,31,101,0
3,31,94,0
3,30,108,0
3,28,108,0
3,28,94,0
3,38,108,0
3,36,101,0
3,36,94,0
3,38,94,0
3,40,108,0
3,38,101,0
3,33,83,0
3,38,92,0
3,31,101,0
3,31,94,0
3,30,108,0
3,28,108,0
3,40,94,0
3,38,108,0
3,36,101,0
3,36,94,0
3,38,94,0
3,40,108,0
3,38,101,0
3,33,95,0
3,38,103,0
3,36,103,0
3,38,103,0
3,40,101,0
3,35,94,0
3,40,108,0
3,40,101,0
3,38,94,0
3,40,108,0
3,30,94,0
3,31,108,0
3,33,103,0
3,35,95,0
3,36,101,0
3,40,108,0
3,40,94,0
3,38,101,0
3,33,95,0
3,38,103,0
3,38,103,0
3,40,101,0
3,35,94,0
3,40,108,0
3,40,101,0
3,38,94,0
3,40,108,0
3,30,94,0
3,31,108,0
3,33,103,0
3,35,95,0
3,36,101,0
3,40,108,0
3,40,94,0
3,38,101,0
3,33,95,0
3,38,103,0
3,36,119,0
3,33,90,0
3,38,105,0
3,38,110,96
3,36,108,0
3,31,97,0
3,33,112,0
3,33,116,96
3,38,101,0
3,36,110,0
3,38,101,0
3,31,101,0
3,31,94,0
3,30,108,0
3,28,108,0
3,28,94,0
3,38,108,0
3,36,101,0
3,36,94,0
3,38,94,0
3,40,108,0
3,38,101,0
3,33,83,0
3,38,84,0
3,35,84,0
3,31,70,0
3,33,83,0
3,31,101,0
3,31,94,0
3,30,108,0
3,28,108,0
3,40,94,0
3,38,108,0
3,33,90,0
3,35,90,0
3,36,101,0
3,36,94,0
3,38,94,0
3,40,108,0
3,38,101,0
3,33,95,0
3,38,103,0
3,38,103,0
3,33,110,0
3,28,84,0
3,33,106,0
3,35,92,0
3,36,106,0
3,43,101,0
3,47,101,0
3,48,66,0
3,47,95,0
3,45,101,0
3,47,92,0
3,45,101,0
3,43,83,0
3,42,92,0
3,43,95,0
4,91,106,514
4,90,100,192
4,86,97,96
4,64,78,96
4,71,73,96
4,76,64,192
4,78,73,192
4,79,78,192
4,76,71,87
4,71,73,180
4,67,64,14
4,62,84,192
4,67,66,303
4,60,85,6
4,79,58,144
4,79,87,6
4,86,91,96
4,88,73,96
4,86,91,38
4,59,87,0
4,79,73,11
4,83,82,9
4,86,91,27
4,76,64,50
4,57,82,4
4,81,73,0
4,84,74,6
4,81,82,0
4,91,89,192
4,84,82,32
4,79,64,187
4,59,73,5
4,83,82,0
4,86,64,11
4,79,82,107
4,91,89,0
4,86,64,192
4,84,64,189
4,60,82,3
4,88,82,0
4,79,73,33
4,91,82,0
4,88,67,192
4,50,82,18
4,90,82,0
4,86,74,26
4,79,60,0
4,81,60,42
4,69,61,45
4,76,88,3
4,78,49,0
4,74,51,96
4,76,58,95
4,45,73,0
4,64,57,0
4,69,56,6
4,72,61,182
4,79,67,0
4,45,65,384
4,64,43,0
4,69,73,96
4,72,65,7
4,76,65,54
4,47,73,0
4,79,87,0
4,74,80,36
4,71,73,0
4,67,58,96
4,67,60,23
4,48,80,3
4,72,56,0
4,79,56,7
4,76,64,1
4,76,64,192
4,72,44,0
4,79,69,0
4,69,64,207
4,74,68,7
4,50,73,2
4,78,73,6
4,74,56,7
4,74,51,0
4,69,55,192
4,71,67,185
4,55,76,7
4,74,68,0
4,81,73,0
4,83,58,33
4,79,59,6
4,91,78,0
4,54,76,501
4,62,52,0
4,69,56,0
4,66,56,0
4,52,65,30
4,64,64,0
4,59,64,0
4,67,64,11
4,78,73,190
4,74,52,192
4,76,64,192
4,64,56,208
4,67,56,8
4,50,65,384
4,67,56,0
4,74,73,0
4,71,56,0
4,79,64,0
4,48,73,192
4,72,36,0
4,76,73,0
4,67,56,0
4,74,60,0
4,76,64,0
4,55,58,119
4,67,64,182
4,59,56,10
4,71,60,0
4,74,64,9
4,79,60,96
4,57,71,0
4,64,54,0
4,69,63,0
4,72,64,6
4,69,72,0
4,79,79,164
4,72,72,32
4,67,54,187
4,59,71,5
4,71,72,0
4,74,54,11
4,67,72,107
4,79,79,0
4,74,54,192
4,72,54,189
4,60,69,3
4,76,72,0
4,67,63,33
4,79,72,0
4,76,57,192
4,69,63,188
4,62,69,4
4,78,72,0
4,74,54,53
4,69,63,0
4,78,72,0
4,81,57,15
4,52,65,192
4,76,64,0
4,83,64,0
4,79,73,0
4,88,82,53
4,81,78,0
4,88,78,74
4,79,64,98
4,88,60,9
4,81,60,114
4,88,64,41
4,50,65,119
4,74,56,0
4,67,60,0
4,71,64,0
4,83,79,0
4,76,79,18
4,79,65,20
4,83,73,26
4,48,73,96
4,76,56,0
4,72,64,0
4,84,82,0
4,60,76,0
4,74,75,0
4,67,69,0
4,76,58,96
4,59,76,3
4,74,80,0
4,67,73,2
4,71,73,0
4,74,80,17
4,57,76,20
4,64,54,0
4,69,63,0
4,72,64,6
4,69,72,0
4,79,79,192
4,72,72,32
4,67,54,187
4,59,71,5
4,71,72,0
4,74,54,11
4,67,72,107
4,79,79,0
4,74,54,192
4,72,54,189
4,60,69,3
4,76,72,0
4,67,63,33
4,79,72,0
4,76,67,96
4,72,57,0
4,90,69,81
4,81,63,0
4,78,58,0
4,86,63,0
4,55,75,32
4,64,75,0
4,60,75,0
4,66,75,0
4,62,75,0
4,57,75,0
4,60,75,0
4,64,75,0
4,55,75,0
4,60,75,0
4,64,75,0
4,57,75,0
4,57,75,0
4,62,75,0
4,66,75,0
4,86,87,0
4,88,87,0
4,86,87,0
4,84,87,0
4,88,87,0
4,90,87,0
4,88,87,0
4,86,87,0
4,67,87,0
4,59,87,0
4,62,87,0
4,66,91,32
4,62,64,0
4,59,73,0
4,55,64,32
4,64,82,0
4,59,73,0
4,55,52,32
4,64,48,0
4,55,64,32
4,62,64,0
4,59,64,0
4,64,73,32
4,55,82,0
4,60,82,0
4,55,74,0
4,60,74,0
4,64,74,0
4,62,73,0
4,57,64,0
4,66,73,0
4,59,64,32
4,64,60,0
4,67,60,0
4,57,73,32
4,66,64,0
4,62,73,0
4,62,60,32
4,66,52,0
4,57,56,0
4,67,73,0
4,59,73,0
4,62,73,0
4,66,91,32
4,62,64,0
4,59,73,0
4,55,64,32
4,64,82,0
4,59,73,0
4,55,52,32
4,64,48,0
4,55,64,32
4,62,64,0
4,59,64,0
4,64,73,32
4,55,82,0
4,60,82,0
4,55,74,0
4,60,74,0
4,64,74,0
4,62,73,0
4,57,64,0
4,66,73,0
4,59,64,32
4,64,60,0
4,67,60,0
4,57,73,32
4,66,64,0
4,62,73,0
4,62,60,32
4,66,52,0
4,57,56,0
4,69,64,0
4,64,60,0
4,60,64,0
4,67,64,59
4,64,60,0
4,60,60,0
4,67,56,67
4,62,64,0
4,59,73,0
4,59,88,32
4,52,93,0
4,67,104,192
4,66,104,0
4,62,96,0
4,59,102,192
4,67,109,69
4,59,88,0
4,62,98,0
4,60,93,0
4,57,93,0
4,59,93,0
4,55,76,0
4,57,93,0
4,60,102,0
4,62,96,0
4,59,96,0
4,60,102,0
4,64,102,0
4,67,102,384
4,66,95,0
4,62,92,0
4,64,93,0
4,67,84,0
4,62,102,0
4,66,111,0
4,64,93,0
4,67,84,0
4,62,80,0
4,59,80,0
4,55,93,96
4,60,84,0
4,55,93,0
4,59,102,0
4,60,84,0
4,57,102,0
4,62,102,0
4,59,102,0
4,67,102,384
4,64,93,0
4,60,93,0
4,67,111,384
4,62,102,0
4,66,102,0
4,67,73,0
4,60,82,0
4,66,73,0
4,62,73,0
4,60,73,3
4,67,91,0
4,64,91,71
4,57,73,0
4,67,64,384
4,66,82,0
4,62,73,0
4,60,91,5
4,64,82,0
4,66,91,9
4,62,91,0
4,67,87,29
4,59,87,0
4,62,87,0
4,66,91,32
4,62,64,0
4,59,73,0
4,55,64,32
4,64,82,0
4,59,73,0
4,55,52,32
4,64,48,0
4,55,64,32
4,62,64,0
4,59,64,0
4,64,73,32
4,55,82,0
4,60,82,0
4,55,74,0
4,60,74,0
4,64,74,0
4,62,73,0
4,57,64,0
4,66,73,0
4,59,64,32
4,64,60,0
4,67,60,0
4,57,73,32
4,66,64,0
4,62,73,0
4,62,60,32
4,66,52,0
4,57,56,0
4,67,73,0
4,59,73,0
4,62,73,0
4,66,91,32
4,62,64,0
4,59,73,0
4,55,64,32
4,64,82,0
4,59,73,0
4,55,52,32
4,64,48,0
4,55,64,32
4,62,64,0
4,59,64,0
4,64,73,32
4,55,82,0
4,60,82,0
4,55,74,0
4,60,74,0
4,64,74,0
4,62,73,0
4,57,64,0
4,66,73,0
4,59,64,32
4,64,60,0
4,67,60,0
4,57,73,32
4,66,64,0
4,62,73,0
4,64,73,0
4,55,64,0
4,60,73,0
4,62,73,32
4,57,64,0
4,66,73,0
4,55,80,32
4,64,91,0
4,59,82,0
4,55,77,87
4,64,91,0
4,59,91,0
4,54,74,69
4,62,91,0
4,57,82,0
4,55,75,61
4,64,82,0
4,59,91,0
4,57,72,90
4,66,82,0
4,62,82,0
4,59,75,89
4,62,82,0
4,67,91,0
4,64,74,96
4,55,91,0
4,60,91,0
4,55,74,34
4,64,91,0
4,59,91,0
4,54,75,93
4,57,91,0
4,62,91,0
4,55,80,0
4,64,91,0
4,59,82,0
4,55,77,87
4,64,91,0
4,59,91,0
4,54,74,69
4,62,91,0
4,57,82,0
4,55,75,61
4,64,82,0
4,59,91,0
4,57,72,90
4,66,82,0
4,62,82,0
4,59,75,89
4,62,82,0
4,67,91,0
4,64,74,96
4,55,91,0
4,60,91,0
4,55,74,34
4,64,91,0
4,59,91,0
4,54,75,93
4,57,91,0
4,62,91,0
4,67,73,0
4,60,82,0
4,66,73,0
4,62,73,0
4,60,73,3
4,67,91,0
4,64,91,71
4,57,73,0
4,67,64,384
4,66,82,0
4,62,73,0
4,60,91,5
4,64,82,0
4,66,91,9
4,62,91,0
4,67,87,29
4,59,87,0
4,62,87,0
4,66,91,32
4,62,64,0
4,59,73,0
4,55,64,32
4,64,82,0
4,59,73,0
4,55,52,32
4,64,48,0
4,55,64,32
4,62,64,0
4,59,64,0
4,64,73,32
4,55,82,0
4,60,82,0
4,55,74,0
4,60,74,0
4,64,74,0
4,62,73,0
4,57,64,0
4,66,73,0
4,59,64,32
4,64,60,0
4,67,60,0
4,57,73,32
4,66,64,0
4,62,73,0
4,62,60,32
4,66,52,0
4,57,56,0
4,67,87,0
4,59,87,0
4,62,87,0
4,66,91,32
4,62,64,0
4,59,73,0
4,55,64,32
4,64,82,0
4,59,73,0
4,55,52,32
4,64,48,0
4,55,64,32
4,62,64,0
4,59,64,0
4,64,73,32
4,55,82,0
4,60,82,0
4,55,74,0
4,60,74,0
4,64,74,0
4,62,73,0
4,57,64,0
4,66,73,0
4,59,64,32
4,64,60,0
4,67,60,0
4,57,73,32
4,66,64,0
4,62,73,0
4,62,60,32
4,66,52,0
4,57,56,0
4,60,64,0
4,64,60,0
4,69,64,0
4,60,60,59
4,64,60,0
4,67,64,0
4,59,73,67
4,62,64,0
4,67,56,0
4,59,91,15
4,67,91,0
4,57,91,0
4,66,91,0
4,55,91,3
4,62,91,0
4,50,91,0
4,59,91,0
4,55,84,922
4,67,103,2
4,59,86,0
4,64,90,8
4,64,103,10
4,67,94,178
4,69,103,19
4,66,90,0
