track,note,velocity,time
1,69,100,43584
1,69,100,0
1,71,100,0
1,72,100,0
1,71,100,0
1,69,100,0
1,69,100,192
1,69,100,0
1,71,100,0
1,72,100,0
1,69,100,0
1,69,100,576
1,69,100,0
1,71,100,0
1,72,100,0
1,71,100,0
1,69,100,0
1,64,100,0
1,72,100,576
1,72,100,0
1,71,100,0
1,69,100,0
1,67,100,0
1,69,100,960
1,69,100,0
1,71,100,0
1,72,100,0
1,71,100,0
1,69,100,0
1,67,100,0
1,72,100,576
1,72,100,0
1,71,100,0
1,69,100,0
1,69,100,0
1,69,100,1728
1,69,100,0
1,71,100,0
1,72,100,0
1,71,100,0
1,69,100,0
1,67,100,0
1,69,100,0
1,71,100,0
1,69,100,768
1,69,100,144
1,72,100,144
1,71,100,0
1,71,100,0
1,69,100,0
1,69,100,22848
1,69,100,0
1,71,100,0
1,72,100,0
1,71,100,0
1,69,100,0
1,69,100,192
1,69,100,0
1,71,100,0
1,72,100,0
1,69,100,0
1,69,100,576
1,69,100,0
1,71,100,0
1,72,100,0
1,71,100,0
1,69,100,0
1,64,100,0
1,72,100,192
1,72,100,0
1,71,100,0
1,69,100,0
1,67,100,0
1,69,100,1344
1,69,100,0
1,71,100,0
1,72,100,0
1,71,100,0
1,69,100,0
1,67,100,0
1,72,100,960
1,72,100,0
1,71,100,0
1,69,100,0
1,69,100,0
1,69,100,1344
1,69,100,0
1,71,100,0
1,72,100,0
1,71,100,0
1,69,100,0
1,67,100,0
1,69,100,0
1,71,100,0
1,69,100,768
1,69,100,96
1,72,100,96
1,71,100,0
1,71,100,0
1,69,100,0
1,57,100,14976
1,69,100,0
1,57,100,96
1,69,100,0
1,60,100,96
1,72,100,0
1,59,100,0
1,71,100,0
1,59,100,0
1,71,100,0
1,57,100,0
1,69,100,0
2,76,100,576
2,74,100,0
2,76,100,0
2,69,100,0
2,77,100,192
2,76,100,0
2,77,100,0
2,76,100,0
2,74,100,0
2,77,100,192
2,76,100,0
2,77,100,0
2,67,100,0
2,74,100,192
2,72,100,0
2,74,100,0
2,72,100,0
2,71,100,0
2,69,100,0
2,76,100,192
2,74,100,0
2,76,100,0
2,69,100,0
2,77,100,192
2,76,100,0
2,77,100,0
2,76,100,0
2,74,100,0
2,77,100,192
2,76,100,0
2,77,100,0
2,67,100,0
2,74,100,192
2,72,100,0
2,74,100,0
2,72,100,0
2,71,100,0
2,72,100,0
2,71,100,0
2,72,100,0
2,74,100,0
2,72,100,192
2,74,100,0
2,76,100,0
2,74,100,0
2,72,100,0
2,71,100,0
2,69,100,0
2,77,100,0
2,76,100,0
2,76,100,0
2,77,100,0
2,76,100,0
2,74,100,0
2,76,100,0
2,76,100,1344
2,88,100,0
2,74,100,0
2,86,100,0
2,76,100,0
2,88,100,0
2,69,100,0
2,81,100,0
2,77,100,192
2,89,100,0
2,76,100,0
2,88,100,0
2,77,100,0
2,89,100,0
2,76,100,0
2,88,100,0
2,74,100,0
2,86,100,0
2,77,100,192
2,89,100,0
2,76,100,0
2,88,100,0
2,77,100,0
2,89,100,0
2,67,100,0
2,79,100,0
2,74,100,192
2,86,100,0
2,72,100,0
2,84,100,0
2,74,100,0
2,86,100,0
2,72,100,0
2,84,100,0
2,71,100,0
2,83,100,0
2,69,100,0
2,81,100,0
2,76,100,192
2,88,100,0
2,74,100,0
2,86,100,0
2,76,100,0
2,88,100,0
2,69,100,0
2,81,100,0
2,77,100,192
2,89,100,0
2,76,100,0
2,88,100,0
2,77,100,0
2,89,100,0
2,76,100,32
2,88,100,0
2,74,100,32
2,86,100,0
2,77,100,192
2,89,100,0
2,76,100,0
2,88,100,0
2,77,100,0
2,89,100,0
2,67,100,0
2,79,100,0
2,74,100,192
2,86,100,0
2,72,100,0
2,84,100,0
2,74,100,0
2,86,100,0
2,72,100,0
2,84,100,0
2,71,100,0
2,83,100,0
2,72,100,0
2,84,100,0
2,71,100,0
2,83,100,0
2,72,100,0
2,84,100,0
2,74,100,0
2,86,100,0
2,72,100,192
2,84,100,0
2,74,100,0
2,86,100,0
2,76,100,0
2,88,100,0
2,74,100,96
2,86,100,0
2,72,100,0
2,84,100,0
2,71,100,0
2,83,100,0
2,69,100,0
2,81,100,0
2,77,100,0
2,89,100,0
2,76,100,0
2,88,100,0
2,76,100,512
2,76,100,0
2,88,100,0
2,77,100,48
2,77,100,0
2,89,100,0
2,76,100,24
2,76,100,0
2,88,100,0
2,74,100,48
2,74,100,0
2,86,100,0
2,76,100,48
2,88,100,0
2,76,100,1344
2,88,100,0
2,74,100,0
2,86,100,0
2,76,100,0
2,88,100,0
2,69,100,0
2,81,100,0
2,77,100,192
2,89,100,0
2,76,100,0
2,88,100,0
2,77,100,0
2,89,100,0
2,76,100,0
2,88,100,0
2,74,100,0
2,86,100,0
2,77,100,192
2,89,100,0
2,76,100,0
2,88,100,0
2,77,100,0
2,89,100,0
2,67,100,0
2,79,100,0
2,74,100,192
2,86,100,0
2,72,100,0
2,84,100,0
2,74,100,0
2,86,100,0
2,72,100,0
2,84,100,0
2,71,100,0
2,83,100,0
2,69,100,0
2,81,100,0
2,76,100,192
2,88,100,0
2,74,100,0
2,86,100,0
2,76,100,0
2,88,100,0
2,69,100,0
2,81,100,0
2,77,100,192
2,89,100,0
2,76,100,0
2,88,100,0
2,77,100,0
2,89,100,0
2,76,100,32
2,88,100,0
2,74,100,32
2,86,100,0
2,77,100,192
2,89,100,0
2,76,100,0
2,88,100,0
2,77,100,0
2,89,100,0
2,67,100,0
2,79,100,0
2,74,100,192
2,86,100,0
2,72,100,0
2,84,100,0
2,74,100,0
2,86,100,0
2,72,100,32
2,84,100,0
2,71,100,32
2,83,100,0
2,72,100,0
2,84,100,0
2,71,100,0
2,83,100,0
2,72,100,0
2,84,100,0
2,74,100,0
2,86,100,0
2,72,100,192
2,84,100,0
2,74,100,0
2,86,100,0
2,76,100,0
2,88,100,0
2,74,100,96
2,86,100,0
2,72,100,0
2,84,100,0
2,71,100,0
2,83,100,0
2,69,100,0
2,81,100,0
2,77,100,0
2,89,100,0
2,76,100,0
2,88,100,0
2,76,100,24
2,76,100,0
2,88,100,0
2,77,100,48
2,77,100,0
2,89,100,0
2,76,100,24
2,76,100,0
2,88,100,0
2,74,100,48
2,74,100,0
2,86,100,0
2,76,100,8
2,76,100,0
2,88,100,0
2,76,100,576
2,88,100,0
2,74,100,0
2,86,100,0
2,76,100,0
2,88,100,0
2,69,100,0
2,81,100,0
2,77,100,192
2,89,100,0
2,76,100,0
2,88,100,0
2,77,100,0
2,89,100,0
2,76,100,0
2,88,100,0
2,74,100,0
2,86,100,0
2,77,100,192
2,89,100,0
2,76,100,0
2,88,100,0
2,77,100,0
2,89,100,0
2,67,100,0
2,79,100,0
2,74,100,192
2,86,100,0
2,72,100,0
2,84,100,0
2,74,100,0
2,86,100,0
2,72,100,0
2,84,100,0
2,71,100,0
2,83,100,0
2,69,100,0
2,81,100,0
2,76,100,192
2,88,100,0
2,74,100,0
2,86,100,0
2,76,100,0
2,88,100,0
2,69,100,0
2,81,100,0
2,77,100,192
2,89,100,0
2,76,100,0
2,88,100,0
2,77,100,0
2,89,100,0
2,76,100,64
2,88,100,0
2,74,100,32
2,86,100,0
2,77,100,192
2,89,100,0
2,76,100,0
2,88,100,0
2,77,100,0
2,89,100,0
2,67,100,0
2,79,100,0
2,74,100,192
2,86,100,0
2,72,100,0
2,84,100,0
2,74,100,0
2,86,100,0
2,72,100,64
2,84,100,0
2,71,100,64
2,83,100,0
2,72,100,0
2,84,100,0
2,71,100,0
2,83,100,0
2,72,100,0
2,84,100,0
2,74,100,0
2,86,100,0
2,72,100,192
2,84,100,0
2,74,100,0
2,86,100,0
2,76,100,0
2,88,100,0
2,74,100,96
2,86,100,0
2,72,100,0
2,84,100,0
2,71,100,0
2,83,100,0
2,69,100,0
2,81,100,0
2,77,100,0
2,89,100,0
2,76,100,0
2,88,100,0
2,76,100,8
2,76,100,0
2,88,100,0
2,77,100,8
2,77,100,0
2,89,100,0
2,76,100,8
2,76,100,0
2,88,100,0
2,74,100,8
2,74,100,0
2,86,100,0
2,76,100,8
2,76,100,0
2,88,100,0
3,76,100,576
3,74,100,0
3,76,100,0
3,69,100,0
3,77,100,192
3,76,100,0
3,77,100,0
3,76,100,0
3,74,100,0
3,77,100,192
3,76,100,0
3,77,100,0
3,67,100,0
3,74,100,192
3,72,100,0
3,74,100,0
3,72,100,0
3,71,100,0
3,69,100,0
3,76,100,192
3,74,100,0
3,76,100,0
3,69,100,0
3,77,100,192
3,76,100,0
3,77,100,0
3,76,100,0
3,74,100,0
3,77,100,192
3,76,100,0
3,77,100,0
3,67,100,0
3,74,100,192
3,72,100,0
3,74,100,0
3,72,100,0
3,71,100,0
3,72,100,0
3,71,100,0
3,72,100,0
3,74,100,0
3,72,100,192
3,74,100,0
3,76,100,0
3,74,100,0
3,72,100,0
3,71,100,0
3,69,100,0
3,77,100,0
3,76,100,0
3,76,100,0
3,77,100,0
3,76,100,0
3,74,100,0
3,76,100,0
4,76,100,19008
4,74,100,0
4,76,100,0
4,69,100,0
4,77,100,192
4,76,100,0
4,77,100,0
4,76,100,0
4,74,100,0
4,77,100,192
4,76,100,0
4,77,100,0
4,67,100,0
4,74,100,192
4,72,100,0
4,74,100,0
4,72,100,64
4,71,100,64
4,69,100,0
4,76,100,192
4,74,100,0
4,76,100,0
4,69,100,0
4,77,100,192
4,76,100,0
4,77,100,0
4,76,100,32
4,74,100,32
4,77,100,192
4,76,100,0
4,77,100,0
4,67,100,0
4,74,100,192
4,72,100,0
4,74,100,0
4,72,100,32
4,71,100,32
4,72,100,0
4,71,100,0
4,72,100,0
4,74,100,0
4,72,100,192
4,74,100,0
4,76,100,0
4,74,100,32
4,72,100,32
4,71,100,32
4,69,100,32
4,77,100,0
4,76,100,0
4,76,100,0
4,77,100,0
4,76,100,0
4,74,100,0
4,76,100,0
5,33,100,0
5,45,100,0
5,41,100,0
5,38,100,0
5,43,100,0
5,45,100,0
5,41,100,0
5,38,100,0
5,43,100,0
5,40,100,0
5,43,100,0
5,48,100,768
5,41,100,0
5,40,100,0
5,40,100,0
6,100,67,19008
6,98,67,0
6,100,67,0
6,93,67,0
6,101,67,192
6,100,67,0
6,101,67,0
6,100,67,0
6,98,67,0
6,101,67,192
6,100,67,0
6,101,67,0
6,91,67,0
6,98,67,192
6,96,67,0
6,98,67,0
6,96,67,64
6,95,67,64
6,93,67,0
6,100,67,192
6,98,67,0
6,76,67,0
6,69,67,0
6,77,67,192
6,76,67,0
6,77,67,0
6,76,67,32
6,74,67,32
6,77,67,192
6,76,67,0
6,77,67,0
6,67,67,0
6,74,67,192
6,72,67,0
6,74,67,0
6,72,67,32
6,71,67,32
6,72,67,0
6,71,67,0
6,72,67,0
6,74,67,0
6,72,67,192
6,74,67,0
6,76,67,0
6,74,67,32
6,72,67,32
6,71,67,32
6,69,67,32
6,77,67,0
6,76,67,0
6,76,67,0
6,77,67,0
6,76,67,0
6,74,67,0
6,76,67,0
7,45,100,18432
7,45,100,0
7,45,100,0
7,45,100,0
7,45,100,0
7,45,100,0
7,45,100,0
7,45,100,0
7,41,100,0
7,41,100,0
7,41,100,0
7,41,100,0
7,41,100,0
7,41,100,0
7,41,100,0
7,41,100,0
7,38,100,0
7,38,100,0
7,38,100,0
7,38,100,0
7,38,100,0
7,38,100,0
7,38,100,0
7,38,100,0
7,43,100,0
7,43,100,0
7,43,100,0
7,43,100,0
7,43,100,0
7,43,100,0
7,43,100,0
7,43,100,0
7,45,100,0
7,45,100,0
7,45,100,0
7,45,100,0
7,45,100,0
7,45,100,0
7,45,100,0
7,45,100,0
7,41,100,0
7,41,100,0
7,41,100,0
7,41,100,0
7,41,100,0
7,41,100,0
7,41,100,0
7,41,100,0
7,38,100,0
7,38,100,0
7,38,100,0
7,38,100,0
7,38,100,0
7,38,100,0
7,38,100,0
7,38,100,0
7,43,100,0
7,43,100,0
7,43,100,0
7,43,100,0
7,43,100,0
7,43,100,0
7,43,100,0
7,43,100,0
7,40,100,0
7,40,100,0
7,40,100,0
7,40,100,0
7,43,100,0
7,43,100,0
7,43,100,0
7,43,100,0
7,48,100,0
7,48,100,0
7,48,100,0
7,48,100,0
7,41,100,0
7,41,100,0
7,41,100,0
7,41,100,0
7,40,100,0
7,40,100,0
7,40,100,0
7,40,100,0
7,40,100,0
7,40,100,0
7,40,100,0
7,40,100,0
7,40,100,0
7,40,100,0
7,40,100,0
7,40,100,0
7,40,100,0
7,40,100,0
7,40,100,0
7,40,100,0
7,45,100,0
7,45,100,0
7,45,100,0
7,45,100,0
7,45,100,0
7,45,100,0
7,45,100,0
7,45,100,0
7,45,100,0
7,45,100,0
7,45,100,0
7,45,100,0
7,45,100,0
7,45,100,0
7,45,100,0
7,45,100,0
7,45,100,0
7,45,100,0
7,45,100,0
7,45,100,0
7,45,100,0
7,45,100,0
7,45,100,0
7,45,100,0
7,45,100,0
7,45,100,0
7,45,100,0
7,45,100,0
7,45,100,0
7,45,100,0
7,45,100,0
7,45,100,0
7,45,100,0
7,45,100,0
7,45,100,0
7,45,100,0
7,45,100,0
7,45,100,0
7,45,100,0
7,45,100,0
7,45,100,0
7,45,100,0
7,45,100,0
7,45,100,0
7,45,100,0
7,45,100,0
7,45,100,0
7,45,100,0
7,45,100,0
7,45,100,0
7,45,100,0
7,45,100,0
7,45,100,0
7,45,100,0
7,45,100,0
7,45,100,0
7,41,100,0
7,41,100,0
7,41,100,0
7,41,100,0
7,41,100,0
7,41,100,0
7,41,100,0
7,41,100,0
7,45,100,0
7,45,100,0
7,45,100,0
7,45,100,0
7,45,100,0
7,45,100,0
7,45,100,0
7,45,100,0
7,45,100,0
7,45,100,0
7,45,100,0
7,45,100,0
7,45,100,0
7,45,100,0
7,45,100,0
7,45,100,0
7,45,100,0
7,45,100,0
7,45,100,0
7,45,100,0
7,47,100,0
7,47,100,0
7,47,100,0
7,47,100,0
7,48,100,0
7,48,100,0
7,48,100,0
7,48,100,0
7,48,100,0
7,48,100,0
7,48,100,0
7,48,100,0
7,41,100,0
7,41,100,0
7,41,100,0
7,41,100,0
7,41,100,0
7,41,100,0
7,41,100,0
7,41,100,0
7,43,100,0
7,43,100,0
7,43,100,0
7,43,100,0
7,43,100,0
7,43,100,0
7,43,100,0
7,43,100,0
7,48,100,0
7,48,100,0
7,48,100,0
7,48,100,0
7,47,100,0
7,47,100,0
7,47,100,0
7,47,100,0
7,45,100,0
7,45,100,0
7,45,100,0
7,45,100,0
7,43,100,0
7,43,100,0
7,43,100,0
7,43,100,0
7,41,100,0
7,41,100,0
7,41,100,0
7,41,100,0
7,41,100,0
7,41,100,0
7,41,100,0
7,41,100,0
7,40,100,0
7,40,100,0
7,40,100,0
7,40,100,0
7,40,100,0
7,40,100,0
7,40,100,0
7,40,100,0
7,43,100,384
7,43,100,0
7,43,100,192
7,43,100,0
7,43,100,192
7,45,100,1344
7,45,100,0
7,45,100,96
7,45,100,0
7,45,100,0
7,45,100,96
7,45,100,0
7,45,100,0
7,45,100,96
7,45,100,0
7,45,100,0
7,45,100,96
7,41,100,0
7,41,100,0
7,41,100,96
7,41,100,0
7,41,100,0
7,41,100,96
7,41,100,0
7,41,100,0
7,41,100,96
7,41,100,0
7,41,100,0
7,41,100,96
7,38,100,0
7,38,100,0
7,38,100,96
7,38,100,0
7,38,100,0
7,38,100,96
7,38,100,0
7,38,100,0
7,38,100,96
7,38,100,0
7,38,100,0
7,38,100,96
7,43,100,0
7,43,100,0
7,43,100,96
7,43,100,0
7,43,100,0
7,43,100,96
7,43,100,0
7,43,100,0
7,43,100,96
7,43,100,0
7,43,100,0
7,43,100,96
7,45,100,0
7,45,100,0
7,45,100,96
7,45,100,0
7,45,100,0
7,45,100,96
7,45,100,0
7,45,100,0
7,45,100,96
7,45,100,0
7,45,100,0
7,45,100,96
7,41,100,0
7,41,100,0
7,41,100,96
7,41,100,0
