track,note,velocity,time
0,57,80,0
0,58,80,2
0,60,85,2
0,67,87,16
0,65,82,4
0,64,91,2
0,42,47,0
0,35,91,0
0,55,90,0
0,48,42,0
0,67,50,0
0,72,50,0
0,76,50,0
0,42,47,68
0,54,69,0
0,40,80,112
0,42,47,0
0,35,98,68
0,42,47,0
0,54,69,0
0,48,42,0
0,35,100,104
0,42,47,0
0,48,42,0
0,62,83,96
0,42,47,0
0,54,69,0
0,60,82,2
0,40,95,0
0,42,47,0
0,62,79,2
0,46,47,0
0,54,69,0
0,35,98,2
0,42,47,0
0,46,42,0
0,65,50,0
0,70,50,0
0,74,50,0
0,42,47,112
0,54,69,0
0,40,96,122
0,42,47,0
0,35,85,30
0,42,47,0
0,54,69,0
0,35,95,122
0,42,47,0
0,46,42,0
0,60,79,74
0,42,47,0
0,54,69,0
0,46,42,0
0,58,82,2
0,40,100,0
0,42,47,0
0,57,80,2
0,46,47,0
0,54,69,0
0,35,94,2
0,42,47,0
0,41,42,0
0,65,50,0
0,69,50,0
0,72,50,0
0,58,81,2
0,42,47,0
0,54,69,0
0,60,82,2
0,40,93,0
0,42,47,0
0,35,92,60
0,42,47,0
0,54,69,0
0,41,42,0
0,35,92,108
0,42,47,0
0,41,42,0
0,42,47,110
0,54,69,0
0,40,99,110
0,42,47,0
0,46,47,106
0,54,69,0
0,35,98,36
0,42,47,0
0,41,42,0
0,42,47,110
0,54,69,0
0,53,84,110
0,57,85,0
0,40,91,0
0,42,47,0
0,55,80,2
0,58,85,0
0,57,83,2
0,60,86,0
0,35,93,0
0,42,47,0
0,54,69,0
0,41,42,0
0,64,89,18
0,67,83,0
0,35,91,0
0,46,47,0
0,41,42,0
0,62,86,2
0,65,86,0
0,42,50,0
0,54,69,0
0,50,68,34
0,50,74,34
0,35,95,0
0,42,49,0
0,60,86,20
0,64,86,0
0,48,79,0
0,42,51,0
0,54,69,0
0,48,70,38
0,35,99,2
0,42,47,0
0,48,42,0
0,67,50,0
0,72,50,0
0,76,50,0
0,42,47,124
0,54,69,0
0,40,91,80
0,42,47,0
0,35,92,96
0,42,47,0
0,54,69,0
0,48,42,0
0,35,95,88
0,42,47,0
0,48,42,0
0,58,84,88
0,62,79,0
0,42,47,0
0,54,69,0
0,57,82,2
0,60,84,0
0,40,98,0
0,42,47,0
0,58,84,2
0,62,78,0
0,46,47,0
0,54,69,0
0,35,99,2
0,42,47,0
0,46,42,0
0,65,50,0
0,70,50,0
0,74,50,0
0,42,47,106
0,54,69,0
0,40,99,108
0,42,47,0
0,35,99,96
0,42,47,0
0,54,69,0
0,35,99,2
0,42,47,0
0,48,42,0
0,67,50,0
0,72,50,0
0,76,50,0
0,57,80,94
0,60,87,0
0,42,47,0
0,54,69,0
0,48,42,0
0,55,83,2
0,58,80,0
0,40,98,0
0,42,47,0
0,53,80,2
0,57,80,0
0,46,47,0
0,54,69,0
0,35,99,2
0,42,47,0
0,41,42,0
0,69,50,0
0,72,50,0
0,77,50,0
0,42,47,108
0,54,69,0
0,40,100,116
0,42,47,0
0,35,93,84
0,42,47,0
0,54,69,0
0,41,42,0
0,35,95,112
0,46,50,0
0,41,42,0
0,55,63,0
0,46,50,2
0,54,69,0
0,57,62,0
0,40,95,2
0,46,50,0
0,36,42,0
0,60,65,0
0,35,95,2
0,54,69,0
0,65,64,0
0,35,95,2
0,54,69,0
0,55,92,0
0,41,42,0
0,50,69,580
0,48,71,102
0,35,82,136
0,73,95,0
0,60,42,2
0,65,42,0
0,69,42,0
0,74,94,0
0,35,86,0
0,42,48,0
0,41,42,0
0,72,50,0
0,77,50,0
0,81,50,0
0,53,58,0
0,42,48,54
0,53,63,4
0,72,93,10
0,40,86,0
0,42,48,0
0,35,82,78
0,42,48,0
0,41,42,0
0,35,83,108
0,42,48,0
0,41,42,0
0,53,62,0
0,42,48,98
0,53,63,6
0,40,88,56
0,42,48,0
0,42,48,110
0,35,86,112
0,42,48,0
0,41,42,0
0,55,66,0
0,57,55,4
0,42,48,0
0,60,62,14
0,40,86,14
0,42,48,0
0,65,94,104
0,35,84,0
0,42,48,0
0,41,42,0
0,60,63,0
0,62,42,2
0,65,42,0
0,70,42,0
0,65,101,0
0,35,86,0
0,42,48,0
0,46,42,0
0,74,50,0
0,77,50,0
0,82,50,0
0,62,65,0
0,65,95,4
0,42,48,0
0,65,97,8
0,40,87,0
0,42,48,0
0,62,97,4
0,42,48,0
0,60,42,2
0,65,42,0
0,69,42,0
0,35,86,0
0,42,49,0
0,41,42,0
0,72,50,0
0,77,50,0
0,81,50,0
0,53,64,0
0,60,94,2
0,42,48,0
0,53,67,2
0,40,86,56
0,42,48,0
0,35,82,102
0,42,48,0
0,41,42,0
0,35,83,94
0,42,48,0
0,41,42,0
0,53,66,0
0,42,48,98
0,53,64,2
0,40,88,56
0,42,48,0
0,42,48,106
0,65,84,18
0,35,86,44
0,42,48,0
0,41,42,0
0,67,84,0
0,69,84,0
0,72,84,0
0,53,65,0
0,69,84,6
0,42,48,38
0,65,84,0
0,53,66,2
0,40,86,34
0,42,48,0
0,35,84,86
0,42,48,0
0,41,42,0
0,35,86,104
0,42,48,0
0,41,42,0
0,55,59,0
0,57,50,2
0,42,48,96
0,60,62,18
0,40,87,96
0,42,48,0
0,48,42,0
0,42,48,58
0,73,95,86
0,65,42,2
0,69,42,0
0,72,42,0
0,74,90,0
0,35,86,0
0,42,48,0
0,41,42,0
0,77,50,0
0,81,50,0
0,84,50,0
0,53,67,0
0,42,48,54
0,53,62,2
0,72,90,2
0,40,86,0
0,42,48,0
0,35,82,102
0,42,48,0
0,41,42,0
0,35,83,108
0,42,48,0
0,41,42,0
0,53,60,0
0,42,48,98
0,53,64,2
0,40,88,52
0,42,48,0
0,42,48,106
0,35,86,114
0,42,48,0
0,41,42,0
0,53,64,0
0,42,48,102
0,53,66,2
0,65,92,38
0,40,86,0
0,42,48,0
0,65,92,10
0,35,84,0
0,42,48,0
0,41,42,0
0,69,97,2
0,35,86,0
0,42,48,0
0,41,42,0
0,57,60,0
0,65,42,2
0,70,42,0
0,74,42,0
0,70,93,0
0,42,48,0
0,46,42,0
0,77,50,0
0,82,50,0
0,86,50,0
0,58,63,0
0,40,87,102
0,42,48,0
0,67,42,2
0,72,42,0
0,76,42,0
0,67,93,0
0,42,48,0
0,79,50,0
0,84,50,0
0,88,50,0
0,58,63,0
0,35,86,14
0,42,48,0
0,48,42,0
0,60,65,0
0,42,48,54
0,60,63,2
0,40,86,42
0,42,48,0
0,35,82,76
0,42,48,0
0,48,42,0
0,35,83,110
0,42,48,0
0,48,42,0
0,60,67,0
0,42,48,98
0,60,64,2
0,40,88,6
0,42,48,0
0,42,48,110
0,67,84,0
0,72,84,34
0,35,86,14
0,42,48,0
0,36,42,0
0,67,84,0
0,72,84,0
0,74,84,0
0,60,63,0
0,76,84,6
0,42,48,40
0,72,84,0
0,60,64,2
0,40,86,40
0,42,49,0
0,35,84,104
0,42,48,0
0,36,42,0
0,35,86,106
0,46,48,0
0,36,42,0
0,60,67,0
0,46,48,110
0,60,67,2
0,40,87,42
0,46,48,0
0,35,87,8
0,73,92,74
0,65,42,2
0,69,42,0
0,72,42,0
0,74,97,0
0,35,86,0
0,42,48,0
0,59,67,0
0,41,42,0
0,77,50,0
0,81,50,0
0,84,50,0
0,53,62,0
0,42,48,54
0,53,63,2
0,72,95,0
0,40,86,0
0,42,48,0
0,35,82,0
0,42,48,0
0,41,42,0
0,35,83,104
0,42,49,0
0,41,42,0
0,53,62,0
0,42,49,98
0,53,63,2
0,40,88,36
0,42,48,0
0,42,49,110
0,63,42,82
0,35,86,0
0,42,48,0
0,41,42,0
0,75,50,0
0,55,63,0
0,57,62,2
0,42,48,96
0,60,65,34
0,40,86,16
0,42,49,0
0,65,96,68
0,35,84,0
0,42,48,0
0,41,42,0
0,60,64,0
0,77,93,2
0,35,86,0
0,42,48,0
0,41,42,0
0,60,71,0
0,77,101,10
0,42,49,0
0,60,65,2
0,77,99,10
0,40,87,0
0,42,49,0
0,45,42,0
0,79,99,4
0,42,48,0
0,62,42,2
0,65,42,0
0,70,42,0
0,35,86,0
0,42,48,0
0,46,42,0
0,74,50,0
0,77,50,0
0,82,50,0
0,62,62,0
0,77,99,2
0,42,48,0
0,62,67,2
0,40,86,42
0,42,49,0
0,35,82,80
0,42,49,0
0,46,42,0
0,35,83,110
0,42,49,0
0,46,42,0
0,62,62,0
0,42,48,98
0,62,69,2
0,40,88,38
0,42,48,0
0,42,49,110
0,35,86,116
0,42,49,0
0,46,42,0
0,62,65,0
0,42,48,102
0,62,69,2
0,40,86,38
0,42,48,0
0,74,94,62
0,35,84,0
0,42,48,0
0,46,42,0
0,77,94,4
0,35,86,0
0,42,49,0
0,46,42,0
0,62,63,0
0,79,94,6
0,42,48,0
0,62,72,2
0,40,87,0
0,42,49,0
0,38,42,0
0,80,93,104
0,81,87,8
0,35,87,0
0,42,49,0
0,40,42,0
0,65,42,0
0,69,42,0
0,72,42,0
0,35,86,0
0,42,48,0
0,41,42,0
0,77,50,0
0,81,50,0
0,84,50,0
0,60,66,0
0,77,91,0
0,42,48,0
0,60,67,2
0,40,86,42
0,42,48,0
0,72,91,8
0,35,82,0
0,42,48,0
0,41,42,0
0,35,83,96
0,42,48,0
0,41,42,0
0,60,67,0
0,69,93,50
0,42,48,0
0,60,64,2
0,65,91,2
0,40,88,0
0,42,48,0
0,73,97,100
0,74,92,8
0,42,48,0
0,60,42,2
0,64,42,0
0,67,42,0
0,70,42,0
0,35,86,0
0,42,48,0
0,48,42,0
0,72,50,0
0,76,50,0
0,79,50,0
0,82,50,0
0,60,66,0
0,72,93,10
0,42,48,0
0,60,68,2
0,40,86,36
0,42,48,0
0,70,94,6
0,35,84,0
0,42,48,0
0,48,42,0
0,35,86,94
0,42,48,0
0,36,42,0
0,60,63,0
0,64,97,2
0,42,48,0
0,60,66,2
0,40,87,46
0,42,48,0
0,65,87,8
0,42,48,0
0,60,42,2
0,65,42,0
0,69,42,0
0,35,86,0
0,42,48,0
0,41,42,0
0,72,50,0
0,77,50,0
0,81,50,0
0,53,60,0
0,42,48,54
0,65,84,0
0,53,62,2
0,40,86,22
0,42,49,0
0,69,84,0
0,35,82,66
0,42,49,0
0,41,42,0
0,72,84,0
0,35,83,98
0,42,49,0
0,41,42,0
0,77,84,0
0,53,61,0
0,42,48,98
0,81,84,0
0,40,88,2
0,42,48,0
0,48,42,0
0,84,84,0
0,48,65,0
0,42,49,88
0,81,84,0
0,35,86,2
0,42,48,0
0,41,42,0
0,77,84,0
0,89,84,0
0,53,57,0
0,42,49,102
0,40,88,150
0,42,49,0
0,35,83,136
0,46,49,0
0,35,89,136
0,46,49,0
0,50,79,132
0,48,70,2
0,47,77,118
0,47,74,36
0,73,84,14
0,65,42,2
0,69,42,0
0,72,42,0
0,74,85,0
0,35,86,0
0,42,45,0
0,41,42,0
0,77,50,0
0,81,50,0
0,84,50,0
0,53,58,0
0,42,45,54
0,53,63,4
0,72,85,18
0,40,86,0
0,42,45,0
0,35,82,78
0,42,45,0
0,41,42,0
0,74,55,0
0,35,83,0
0,42,45,0
0,41,42,0
0,53,62,0
0,42,45,98
0,53,63,6
0,72,55,34
0,40,88,0
0,42,45,0
0,42,45,110
0,35,86,112
0,42,45,0
0,41,42,0
0,55,66,0
0,57,55,4
0,42,45,0
0,60,62,14
0,40,86,14
0,42,45,0
0,65,86,86
0,35,84,0
0,42,45,0
0,41,42,0
0,60,63,0
0,65,42,2
0,70,42,0
0,74,42,0
0,65,93,0
0,35,86,0
0,42,45,0
0,46,42,0
0,77,50,0
0,82,50,0
0,86,50,0
0,62,65,0
0,65,88,12
0,42,45,0
0,65,88,14
0,40,87,0
0,42,45,0
0,62,85,2
0,42,45,0
0,65,42,2
0,69,42,0
0,72,42,0
0,35,86,0
0,42,45,0
0,41,42,0
0,77,50,0
0,81,50,0
0,84,50,0
0,53,64,0
0,60,86,2
0,42,45,0
0,53,67,2
0,40,86,56
0,42,45,0
0,35,82,102
0,42,45,0
0,41,42,0
0,35,83,94
0,42,45,0
0,41,42,0
0,53,66,0
0,42,45,98
0,53,64,2
0,40,88,2
0,42,45,0
0,42,45,106
0,60,84,0
0,65,84,18
0,35,86,50
0,42,45,0
0,41,42,0
0,67,84,0
0,69,84,0
0,72,84,0
0,53,65,0
0,69,84,6
0,42,45,46
0,65,84,0
0,53,66,2
0,40,86,34
0,42,45,0
0,35,84,86
0,42,45,0
0,41,42,0
0,35,86,104
0,42,45,0
0,41,42,0
0,79,84,0
0,81,84,0
0,84,84,0
0,55,59,0
0,81,84,2
0,57,50,0
0,42,45,22
0,77,84,0
0,60,62,18
0,40,87,96
0,42,45,0
0,48,42,0
0,42,45,4
0,73,87,90
0,65,42,2
0,69,42,0
0,72,42,0
0,74,82,0
0,35,86,0
0,42,45,0
0,41,42,0
0,77,50,0
0,81,50,0
0,84,50,0
0,53,67,0
0,42,45,54
0,53,62,2
0,72,85,14
0,40,86,0
0,42,45,0
0,35,82,102
0,42,45,0
0,41,42,0
0,74,55,108
0,35,83,0
0,42,45,0
0,41,42,0
0,53,60,0
0,42,45,98
0,53,64,2
0,72,55,24
0,40,88,0
0,42,45,0
0,42,45,106
0,35,86,114
0,42,45,0
0,41,42,0
0,53,64,0
0,42,45,102
0,53,66,2
0,65,86,38
0,40,86,0
0,42,45,0
0,65,86,8
0,35,84,0
0,42,45,0
0,41,42,0
0,69,42,2
0,72,42,0
0,77,42,0
0,69,81,0
0,35,86,0
0,42,45,0
0,41,42,0
0,81,50,0
0,84,50,0
0,89,50,0
0,57,60,0
0,70,86,6
0,42,45,0
0,46,42,0
0,58,63,0
0,40,87,102
0,42,45,0
0,67,85,2
0,42,45,0
0,58,63,0
0,67,42,2
0,72,42,0
0,76,42,0
0,35,86,0
0,42,45,0
0,48,42,0
0,79,50,0
0,84,50,0
0,88,50,0
0,60,65,0
0,42,45,54
0,60,63,2
0,40,86,42
0,42,45,0
0,35,82,76
0,42,45,0
0,48,42,0
0,35,83,110
0,42,45,0
0,48,42,0
0,60,67,0
0,42,45,98
0,60,64,2
0,40,88,38
0,42,45,0
0,42,45,110
0,67,84,0
0,72,84,30
0,64,55,14
0,35,86,0
0,42,45,0
0,36,42,0
0,67,84,0
0,72,84,0
0,74,84,0
0,60,63,0
0,76,84,6
0,42,45,30
0,72,84,0
0,60,64,2
0,40,86,40
0,42,45,0
0,35,84,104
0,42,45,0
0,36,42,0
0,62,55,106
0,35,86,0
0,46,45,0
0,36,42,0
0,79,84,0
0,84,84,0
0,86,84,0
0,60,67,0
0,88,84,14
0,46,45,64
0,84,84,0
0,60,67,2
0,60,55,42
0,40,87,0
0,46,45,0
0,35,87,22
0,73,85,78
0,65,42,2
0,69,42,0
0,72,42,0
0,74,83,0
0,35,86,0
0,42,45,0
0,59,67,0
0,41,42,0
0,77,50,0
0,81,50,0
0,84,50,0
0,53,62,0
0,42,45,2
0,53,63,2
0,72,82,0
0,40,86,0
0,42,45,0
0,35,82,0
0,42,45,0
0,41,42,0
0,35,83,104
0,42,45,0
0,41,42,0
0,53,62,0
0,42,45,98
0,53,63,2
0,40,88,36
0,42,45,0
0,42,45,110
0,69,42,2
0,72,42,0
0,77,42,0
0,35,86,0
0,42,45,0
0,41,42,0
0,81,50,0
0,84,50,0
0,89,50,0
0,55,63,0
0,57,62,2
0,42,45,96
0,60,65,34
0,40,86,16
0,42,45,0
0,65,78,68
0,35,84,0
0,42,45,0
0,41,42,0
0,60,64,0
0,75,42,2
0,77,80,0
0,35,86,0
0,42,45,0
0,41,42,0
0,87,50,0
0,60,71,0
0,77,90,10
0,42,45,0
0,60,65,2
0,77,88,4
0,40,87,0
0,42,45,0
0,45,42,0
0,78,80,106
0,79,78,2
0,42,45,0
0,65,42,2
0,70,42,0
0,74,42,0
0,77,42,0
0,35,86,0
0,42,45,0
0,46,42,0
