track,note,velocity,time
1,66,127,19930
1,66,0,24
1,66,127,43
1,66,0,89
1,68,127,0
1,68,0,90
1,69,127,2
1,69,0,55
1,66,127,3
1,66,0,1
1,66,127,12
1,66,0,180
1,66,127,368
1,66,0,20
1,66,127,43
1,68,127,94
1,66,0,4
1,68,0,84
1,67,127,3
1,66,127,11
1,67,0,10
1,66,0,272
1,66,127,247
1,66,0,21
1,66,127,48
1,66,0,68
1,68,127,9
1,69,127,85
1,68,0,6
1,68,127,53
1,69,0,5
1,68,0,2
1,64,127,2
1,61,127,16
1,64,0,9
1,61,0,221
1,69,127,203
1,69,0,32
1,68,127,32
1,68,0,80
1,66,127,5
1,66,0,82
1,64,127,9
1,64,0,127
1,64,127,13
1,64,0,337
1,66,127,226
1,66,0,26
1,66,127,46
1,66,0,73
1,68,127,3
1,69,127,95
1,68,0,3
1,68,127,68
1,69,0,3
1,66,127,77
1,68,0,7
1,66,0,81
1,64,127,3
1,64,0,46
1,64,127,21
1,64,0,219
1,69,127,204
1,69,0,45
1,69,127,22
1,71,127,83
1,69,0,9
1,71,0,68
1,73,127,3
1,71,127,63
1,73,0,7
1,71,0,86
1,69,127,6
1,66,127,34
1,69,0,5
1,66,0,97
1,66,127,421
1,66,0,25
1,66,127,37
1,66,0,85
1,68,127,0
1,69,127,88
1,68,0,7
1,68,127,66
1,69,0,8
1,66,127,76
1,68,0,7
1,66,0,85
1,64,127,9
1,64,0,38
1,64,127,24
1,66,127,113
1,64,0,9
1,68,127,54
1,66,0,3
1,68,0,621
1,66,127,29
1,66,0,27
1,66,127,33
1,66,0,44
1,69,127,16
1,69,0,118
1,68,127,2
1,68,0,95
1,68,127,36
1,68,0,112
1,66,127,5
1,66,0,367
1,68,127,1124
1,68,0,24
1,68,127,28
1,68,0,117
1,69,127,7
1,68,127,112
1,69,0,5
1,68,0,125
1,66,127,2
1,66,0,369
1,66,127,1608
1,66,0,24
1,66,127,43
1,66,0,89
1,68,127,0
1,68,0,90
1,69,127,2
1,69,0,55
1,66,127,3
1,66,0,1
1,66,127,12
1,66,0,180
1,66,127,368
1,66,0,20
1,66,127,43
1,68,127,94
1,66,0,4
1,68,0,84
1,67,127,3
1,66,127,11
1,67,0,10
1,66,0,272
1,66,127,247
1,66,0,21
1,66,127,48
1,66,0,68
1,68,127,9
1,69,127,85
1,68,0,6
1,68,127,53
1,69,0,5
1,68,0,2
1,64,127,2
1,61,127,16
1,64,0,9
1,61,0,221
1,69,127,203
1,69,0,32
1,68,127,32
1,68,0,80
1,66,127,5
1,66,0,82
1,64,127,9
1,64,0,127
1,64,127,13
1,64,0,337
1,66,127,226
1,66,0,26
1,66,127,46
1,66,0,73
1,68,127,3
1,69,127,95
1,68,0,3
1,68,127,68
1,69,0,3
1,66,127,77
1,68,0,7
1,66,0,81
1,64,127,3
1,64,0,46
1,64,127,21
1,64,0,219
1,69,127,204
1,69,0,45
1,69,127,22
1,71,127,83
1,69,0,9
1,71,0,68
1,73,127,3
1,71,127,63
1,73,0,7
1,71,0,86
1,69,127,6
1,66,127,34
1,69,0,5
1,66,0,97
1,66,127,421
1,66,0,25
1,66,127,37
1,66,0,85
1,68,127,0
1,69,127,88
1,68,0,7
1,68,127,66
1,69,0,8
1,66,127,76
1,68,0,7
1,66,0,85
1,64,127,9
1,64,0,38
1,64,127,24
1,66,127,113
1,64,0,9
1,68,127,54
1,66,0,3
1,68,0,621
1,66,127,29
1,66,0,27
1,66,127,33
1,66,0,44
1,69,127,16
1,69,0,118
1,68,127,2
1,68,0,95
1,68,127,32
1,68,0,116
1,66,127,0
1,66,0,369
1,68,127,1118
1,68,0,30
1,68,127,33
1,68,0,113
1,69,127,1
1,68,127,122
1,69,0,7
1,68,0,119
1,66,127,0
1,66,0,374
1,68,127,1132
1,68,0,23
1,68,127,36
1,69,127,112
1,68,0,5
1,68,127,107
1,69,0,6
1,68,0,115
1,66,127,6
1,68,127,125
1,66,0,14
1,68,0,101
1,69,127,0
1,68,127,122
1,69,0,14
1,66,127,111
1,68,0,1
1,66,0,240
1,74,127,6
1,74,0,111
1,73,127,11
1,73,0,882
1,69,125,13391
1,69,0,120
1,68,125,0
1,68,0,600
1,66,111,0
1,66,0,30
1,66,108,30
1,66,0,60
1,69,120,0
1,69,0,120
1,68,118,0
1,68,0,60
1,68,127,67
1,68,0,116
1,66,127,0
1,66,0,369
1,68,127,1118
1,68,0,30
1,68,127,33
1,68,0,113
1,69,127,1
1,68,127,122
1,69,0,7
1,68,0,119
1,66,127,0
1,66,0,374
1,68,127,1132
1,68,0,23
1,68,127,36
1,69,127,112
1,68,0,5
1,68,127,107
1,69,0,6
1,68,0,115
1,66,127,6
1,68,127,125
1,66,0,14
1,68,0,101
1,69,127,0
1,68,127,122
1,69,0,14
1,66,127,111
1,68,0,1
1,66,0,240
1,74,127,6
1,74,0,111
1,73,127,11
1,73,127,15
1,73,0,466
1,73,127,52
1,73,0,64
1,73,127,26
1,73,0,41
1,73,127,49
1,73,0,112
1,71,127,8
1,73,0,49
1,71,0,52
1,71,127,34
1,71,0,92
1,69,127,23
1,69,0,379
1,73,127,157
1,73,0,27
1,73,127,32
1,73,0,93
1,71,127,3
1,69,127,84
1,71,0,4
1,69,0,56
1,73,127,3
1,73,0,121
1,71,127,5
1,71,0,222
1,68,127,303
1,68,0,34
1,68,127,27
1,69,127,126
1,68,0,5
1,68,127,115
1,69,0,5
1,68,0,120
1,66,127,0
1,66,0,503
1,69,127,21
1,69,0,43
1,69,127,29
1,69,0,69
1,69,127,17
1,69,0,55
1,69,127,32
1,69,0,39
1,69,127,33
1,71,127,113
1,69,0,6
1,71,0,356
1,69,127,172
1,71,127,68
1,69,0,4
1,71,0,108
1,68,127,7
1,68,0,108
1,71,127,12
1,69,127,119
1,71,0,12
1,68,127,101
1,69,0,112
1,69,127,7
1,68,0,7
1,68,127,110
1,69,0,12
1,68,0,112
1,66,127,6
1,66,0,250
1,69,127,15
1,69,0,99
1,68,127,0
1,68,0,357
1,73,127,175
1,73,0,64
1,73,127,26
1,73,0,41
1,73,127,49
1,73,0,112
1,71,127,8
1,71,0,101
1,71,127,34
1,71,0,92
1,69,127,23
1,69,0,379
1,73,127,157
1,73,0,27
1,73,127,32
1,73,0,93
1,71,127,3
1,69,127,84
1,71,0,4
1,69,0,56
1,73,127,3
1,73,0,121
1,71,127,5
1,71,0,222
1,68,127,303
1,68,0,34
1,68,127,27
1,69,127,126
1,68,0,5
1,68,127,115
1,69,0,5
1,68,0,120
1,66,127,0
1,66,0,503
1,69,127,21
1,69,0,43
1,69,127,29
1,69,0,69
1,69,127,17
1,69,0,55
1,69,127,32
1,69,0,39
1,69,127,33
1,71,127,113
1,69,0,6
1,71,0,356
1,69,127,172
1,71,127,68
1,69,0,4
1,71,0,108
1,68,127,7
1,68,0,108
1,71,127,12
1,69,127,119
1,71,0,12
1,68,127,101
1,69,0,112
1,69,127,7
1,68,0,7
1,68,127,110
1,69,0,12
1,68,0,112
1,66,127,6
1,66,0,250
1,69,127,15
1,69,0,99
1,68,127,0
1,68,0,357
1,73,127,175
1,73,0,64
1,73,127,26
1,73,0,41
1,73,127,49
1,73,0,112
1,71,127,8
1,71,0,101
2,73,127,2656
2,73,0,15
2,71,127,15
2,71,0,15
2,73,127,15
2,73,0,90
2,66,127,30
2,66,0,120
2,74,127,180
2,74,0,15
2,73,127,15
2,73,0,15
2,74,127,15
2,74,0,15
2,73,127,45
2,73,0,15
2,71,127,45
2,71,0,180
2,74,127,120
2,74,0,15
2,73,127,15
2,73,0,15
2,74,127,15
2,74,0,120
2,66,127,0
2,66,0,120
2,71,127,180
2,71,0,15
2,69,127,15
2,69,0,15
2,71,127,15
2,71,0,15
2,69,127,45
2,69,0,15
2,68,127,45
2,68,0,15
2,71,127,46
2,71,0,15
2,69,127,44
2,69,0,150
2,73,127,30
2,73,0,15
2,71,127,15
2,71,0,15
2,73,127,15
2,73,0,90
2,66,127,30
2,66,0,150
2,74,127,150
2,74,0,15
2,73,127,15
2,73,0,15
2,74,127,15
2,74,0,15
2,73,127,45
2,73,0,15
2,71,127,45
2,71,0,180
2,74,127,120
2,74,0,15
2,73,127,15
2,73,0,15
2,74,127,15
2,74,0,90
2,66,127,30
2,66,0,120
2,71,127,180
2,71,0,15
2,69,127,15
2,69,0,15
2,71,127,15
2,71,0,15
2,69,127,45
2,69,0,15
2,68,127,45
2,68,0,15
2,71,127,45
2,71,0,15
2,69,127,45
2,69,0,180
2,73,127,0
2,73,0,15
2,71,127,15
2,71,0,15
2,73,127,15
2,73,0,120
2,66,127,0
2,66,0,150
2,74,127,150
2,74,0,15
2,73,127,15
2,73,0,15
2,74,127,15
2,74,0,15
2,73,127,45
2,73,0,15
2,71,127,45
2,71,0,180
2,74,127,120
2,74,0,15
2,73,127,15
2,73,0,15
2,74,127,15
2,74,0,120
2,66,127,0
2,66,0,120
2,71,127,180
2,71,0,15
2,69,127,15
2,69,0,15
2,71,127,15
2,71,0,15
2,69,127,45
2,69,0,15
2,68,127,45
2,68,0,15
2,71,127,45
2,71,0,15
2,69,127,45
2,69,0,180
2,73,127,0
2,73,0,15
2,71,127,15
2,71,0,15
2,73,127,15
2,73,0,120
2,66,127,0
2,66,0,150
2,74,127,150
2,74,0,15
2,73,127,15
2,73,0,15
2,74,127,15
2,74,0,15
2,73,127,45
2,73,0,15
2,71,127,45
2,71,0,180
2,74,127,120
2,74,0,15
2,73,127,15
2,73,0,15
2,74,127,15
2,74,0,120
2,66,127,0
2,66,0,120
2,71,127,180
2,71,0,15
2,69,127,15
2,69,0,15
2,71,127,15
2,71,0,15
2,69,127,45
2,69,0,15
2,68,127,45
2,68,0,15
2,71,127,45
2,71,0,15
2,69,127,45
2,69,0,180
2,68,127,0
2,69,127,30
2,69,0,15
2,68,0,15
2,71,127,0
2,71,0,180
2,69,127,0
2,69,0,30
2,71,127,0
2,71,0,30
2,73,127,0
2,71,127,60
2,73,0,30
2,71,0,30
2,69,127,0
2,69,0,60
2,68,127,0
2,68,0,60
2,66,127,0
2,66,0,120
2,74,127,0
2,74,0,120
2,73,127,5
2,73,0,210
2,73,127,20
2,74,127,83
2,73,0,6
2,73,127,86
2,74,0,2
2,73,0,34
2,71,127,1
2,71,0,29
2,73,127,3
2,73,0,359
2,73,127,302
2,73,0,20
2,71,127,10
2,71,0,15
2,73,127,15
2,73,0,90
2,66,127,30
2,66,0,120
2,74,127,180
2,74,0,15
2,73,127,15
2,73,0,15
2,74,127,15
2,74,0,15
2,73,127,45
2,73,0,15
2,71,127,45
2,71,0,180
2,74,127,120
2,74,0,15
2,73,127,15
2,73,0,15
2,74,127,15
2,74,0,120
2,66,127,0
2,66,0,120
2,71,127,180
2,71,0,15
2,69,127,15
2,69,0,15
2,71,127,15
2,71,0,15
2,69,127,45
2,69,0,15
2,68,127,45
2,68,0,15
2,71,127,45
2,71,0,15
2,69,127,45
2,69,0,180
2,73,127,0
2,73,0,15
2,71,127,15
2,71,0,15
2,73,127,15
2,73,0,120
2,66,127,0
2,66,0,150
2,74,127,150
2,74,0,15
2,73,127,15
2,73,0,15
2,74,127,15
2,74,0,15
2,73,127,45
2,73,0,15
2,71,127,45
2,71,0,180
2,74,127,120
2,74,0,15
2,73,127,15
2,73,0,15
2,74,127,15
2,74,0,120
2,66,127,0
2,66,0,120
2,71,127,180
2,71,0,15
2,69,127,15
2,69,0,15
2,71,127,15
2,71,0,15
2,69,127,45
2,69,0,15
2,68,127,45
2,68,0,15
2,71,127,45
2,71,0,15
2,69,127,45
2,69,0,150
2,68,127,30
2,68,0,15
2,69,127,15
2,69,0,15
2,71,127,15
2,71,0,180
2,69,127,0
2,69,0,30
2,71,127,0
2,71,0,30
2,73,127,0
2,73,0,60
2,71,127,0
2,71,0,60
2,69,127,0
2,69,0,60
2,68,127,0
2,68,0,60
2,66,127,0
2,66,0,120
2,74,127,0
2,74,0,120
2,73,127,0
2,73,0,330
2,73,127,30
2,73,0,30
2,74,127,0
2,74,0,30
2,73,127,0
2,73,0,30
2,71,127,0
2,73,127,30
2,71,0,30
2,73,0,360
2,69,119,7523
2,69,0,124
2,71,118,3
2,69,116,112
2,71,0,6
2,68,117,87
2,69,0,4
2,66,111,23
2,68,0,7
2,66,0,351
2,68,127,550
2,64,127,0
2,59,127,0
2,68,0,15
2,64,0,12
2,59,0,2
2,68,127,31
2,64,127,0
2,59,127,0
2,68,0,80
2,59,0,1
2,64,0,8
2,68,127,31
2,64,127,0
2,59,127,0
2,68,0,42
2,59,0,2
2,64,0,3
2,59,127,13
2,64,127,0
2,68,127,0
2,68,0,63
2,64,0,1
2,59,0,1
2,59,127,55
2,64,127,0
2,68,127,0
2,59,0,160
2,64,0,5
2,68,0,1
2,73,127,554
2,73,0,20
2,71,127,10
2,71,0,15
2,73,127,15
2,73,0,90
2,66,127,30
2,66,0,120
2,74,127,180
2,74,0,15
2,73,127,15
2,73,0,15
2,74,127,15
2,74,0,15
2,73,127,45
2,73,0,15
2,71,127,45
2,71,0,180
2,74,127,120
2,74,0,15
2,73,127,15
2,73,0,15
2,74,127,15
2,74,0,120
2,66,127,0
2,66,0,120
2,71,127,180
2,71,0,15
2,69,127,15
2,69,0,15
2,71,127,15
2,71,0,15
2,69,127,45
2,69,0,15
2,68,127,45
2,68,0,15
2,71,127,45
2,71,0,15
2,69,127,45
2,69,0,180
2,73,127,0
2,73,0,15
2,71,127,15
2,71,0,15
2,73,127,15
2,73,0,120
2,66,127,0
2,66,0,150
2,74,127,150
2,74,0,15
2,73,127,15
2,73,0,15
2,74,127,15
2,74,0,15
2,73,127,45
2,73,0,15
2,71,127,45
2,71,0,180
2,74,127,120
2,74,0,15
2,73,127,15
2,73,0,15
2,74,127,15
2,74,0,120
2,66,127,0
2,66,0,120
2,71,127,180
2,71,0,15
2,69,127,15
2,69,0,15
2,71,127,15
2,71,0,15
2,69,127,45
2,69,0,15
2,68,127,45
2,68,0,15
2,71,127,45
2,71,0,15
2,69,127,45
2,69,0,150
2,69,118,5368
2,69,0,119
2,71,118,0
2,71,0,112
2,69,120,9
2,68,117,95
2,69,0,5
2,66,113,19
2,68,0,7
2,66,0,333
2,68,127,563
2,64,127,0
2,59,127,0
2,68,0,15
2,64,0,12
2,59,0,2
2,68,127,31
2,64,127,0
2,59,127,0
2,68,0,80
2,59,0,1
2,64,0,8
2,68,127,31
2,64,127,0
2,59,127,0
2,68,0,42
2,59,0,2
2,64,0,3
2,59,127,13
2,64,127,0
2,68,127,0
2,68,0,63
2,64,0,1
2,59,0,1
2,59,127,55
2,64,127,0
2,68,127,0
2,59,0,160
2,64,0,5
2,68,0,1
2,73,127,554
2,73,0,20
2,71,127,10
2,71,0,15
2,73,127,15
2,73,0,90
2,66,127,30
2,66,0,120
2,74,127,180
2,74,0,15
2,73,127,15
2,73,0,15
2,74,127,15
2,74,0,15
2,73,127,45
2,73,0,15
2,71,127,45
2,71,0,180
2,74,127,120
2,74,0,15
2,73,127,15
2,73,0,15
2,74,127,15
2,74,0,120
2,66,127,0
2,66,0,120
2,71,127,180
2,71,0,15
2,69,127,15
2,69,0,15
2,71,127,15
2,71,0,15
2,69,127,45
2,69,0,15
2,68,127,45
2,68,0,15
2,71,127,45
2,71,0,15
2,69,127,45
2,69,0,180
2,73,127,0
2,73,0,15
2,71,127,15
2,71,0,15
2,73,127,15
2,73,0,120
2,66,127,0
2,66,0,150
2,74,127,150
2,74,0,15
2,73,127,15
2,73,0,15
2,74,127,15
2,74,0,15
2,73,127,45
2,73,0,15
2,71,127,45
2,71,0,180
2,74,127,120
2,74,0,15
2,73,127,15
2,73,0,15
2,74,127,15
2,74,0,120
2,66,127,0
2,66,0,120
2,71,127,180
2,71,0,15
2,69,127,15
2,69,0,15
2,71,127,15
2,71,0,15
2,69,127,45
2,69,0,15
2,68,127,45
2,68,0,15
2,71,127,45
2,71,0,15
2,69,127,45
2,69,0,150
