track,note,velocity,time
1,34,102,2660
1,36,103,88
1,34,0,8
1,36,0,48
1,36,115,36
1,36,0,68
1,31,115,24
1,31,0,60
1,34,102,28
1,34,0,76
1,36,119,20
1,36,0,64
1,27,112,40
1,27,0,8
1,24,127,24
1,24,0,308
1,31,102,576
1,31,0,96
1,34,102,12
1,36,103,88
1,34,0,8
1,36,0,48
1,36,115,36
1,36,0,68
1,31,115,24
1,31,0,60
1,34,102,28
1,34,0,76
1,36,119,20
1,36,0,64
1,27,112,40
1,27,0,8
1,24,127,24
1,24,0,308
1,31,102,576
1,31,0,96
1,34,102,12
1,36,103,88
1,34,0,8
1,36,0,48
1,36,115,36
1,36,0,68
1,31,115,24
1,31,0,60
1,34,102,28
1,34,0,76
1,36,119,20
1,36,0,64
1,27,112,40
1,27,0,360
1,29,127,36
1,29,0,536
1,31,127,40
1,31,0,1408
1,31,99,24
1,31,0,72
1,34,102,36
1,36,103,88
1,34,0,8
1,36,0,48
1,36,115,36
1,36,0,68
1,31,115,24
1,31,0,60
1,34,102,28
1,34,0,76
1,36,119,20
1,36,0,64
1,27,112,40
1,27,0,8
1,24,127,24
1,24,0,308
1,31,102,576
1,31,0,96
1,34,102,12
1,36,103,88
1,34,0,8
1,36,0,48
1,36,115,36
1,36,0,68
1,31,115,24
1,31,0,60
1,34,102,28
1,34,0,76
1,36,119,20
1,36,0,64
1,27,112,40
1,27,0,8
1,24,127,24
1,24,0,308
1,31,102,576
1,31,0,96
1,39,102,12
1,39,0,356
1,34,102,4
1,34,0,76
1,39,119,32
1,39,0,4
1,24,112,28
1,24,0,132
1,26,102,588
1,26,0,96
1,29,102,0
1,29,0,72
1,31,103,20
1,31,0,52
1,31,115,44
1,31,0,68
1,26,115,28
1,26,0,56
1,29,102,36
1,29,0,76
1,31,119,20
1,31,0,64
1,31,112,36
1,31,0,836
1,31,102,28
1,31,0,96
1,34,102,4
1,36,103,88
1,34,0,8
1,36,0,48
1,36,115,36
1,36,0,68
1,31,115,24
1,31,0,60
1,34,102,28
1,34,0,76
1,36,119,20
1,36,0,64
1,27,112,40
1,27,0,8
1,24,127,24
1,24,0,308
1,31,102,576
1,31,0,96
1,34,102,12
1,36,103,88
1,34,0,8
1,36,0,48
1,36,115,36
1,36,0,68
1,31,115,24
1,31,0,60
1,34,102,28
1,34,0,76
1,36,119,20
1,36,0,64
1,27,112,40
1,27,0,8
1,24,127,24
1,24,0,308
1,31,102,576
1,31,0,96
1,39,102,12
1,39,0,356
1,34,102,4
1,34,0,76
1,39,119,32
1,39,0,4
1,24,112,28
1,24,0,132
1,26,102,588
1,26,0,96
1,29,102,0
1,29,0,72
1,31,103,20
1,31,0,52
1,31,115,44
1,31,0,68
1,26,115,28
1,26,0,56
1,29,102,36
1,29,0,76
1,31,119,20
1,31,0,64
1,31,112,36
1,31,0,948
1,24,123,16
1,24,0,1116
1,34,112,32
1,34,0,356
1,39,112,32
1,39,0,632
1,38,124,40
1,38,0,100
1,38,127,92
1,38,0,364
1,38,99,16
1,38,0,80
1,38,106,16
1,38,0,128
1,36,127,64
1,34,112,768
1,36,0,12
1,34,0,92
1,34,127,88
1,34,0,456
1,34,102,28
1,34,0,32
1,39,115,60
1,39,0,648
1,38,110,28
1,38,0,248
1,38,124,36
1,38,0,276
1,38,110,12
1,38,0,188
1,38,103,8
1,38,0,76
1,36,127,20
1,34,112,764
1,36,0,12
1,34,0,92
1,34,127,88
1,34,0,260
1,34,110,32
1,34,0,188
1,34,103,12
1,34,0,76
1,36,106,8
1,36,0,68
1,36,124,124
1,36,0,464
1,36,119,20
1,36,0,60
1,34,93,128
1,34,0,40
1,34,106,56
1,34,0,284
1,34,97,12
1,34,0,92
1,31,83,0
1,31,0,48
1,34,106,40
1,34,0,52
1,33,103,44
1,33,0,104
1,33,127,92
1,33,0,428
1,33,119,52
1,33,0,92
1,32,106,0
1,32,0,80
1,27,102,16
1,27,0,80
1,32,102,16
1,32,0,16
1,31,106,16
1,31,0,380
1,36,106,12
1,36,0,68
1,36,124,124
1,36,0,464
1,34,119,16
1,34,0,56
1,29,93,136
1,29,0,40
1,34,106,56
1,34,0,284
1,34,97,12
1,34,0,92
1,29,83,0
1,29,0,48
1,34,106,40
1,34,0,52
1,33,103,44
1,33,0,104
1,33,127,92
1,33,0,428
1,33,119,52
1,33,0,92
1,32,106,0
1,32,0,440
1,32,101,40
1,32,0,100
1,27,104,0
1,27,0,96
1,32,100,0
1,31,127,92
1,32,0,8
1,24,119,1536
1,31,0,8
1,34,112,1508
1,24,0,8
1,34,0,1536
1,33,103,16
1,31,127,1528
1,33,0,8
1,31,0,1528
1,36,102,1540
1,38,103,88
1,36,0,8
1,38,0,48
1,38,115,36
1,38,0,68
1,33,115,24
1,33,0,60
1,36,102,28
1,36,0,76
1,38,119,20
1,38,0,64
1,29,112,40
1,29,0,8
1,26,127,24
1,26,0,308
1,33,102,576
1,33,0,96
1,36,102,12
1,38,103,88
1,36,0,8
1,38,0,48
1,38,115,36
1,38,0,68
1,33,115,24
1,33,0,60
1,36,102,28
1,36,0,76
1,38,119,20
1,38,0,64
1,29,112,40
1,29,0,8
1,26,127,24
1,26,0,308
1,33,102,576
1,33,0,96
1,41,102,12
1,41,0,356
1,36,102,4
1,36,0,76
1,41,119,32
1,41,0,4
1,26,112,28
1,26,0,132
1,28,102,588
1,28,0,96
1,31,102,0
1,31,0,72
1,33,103,20
1,33,0,52
1,33,115,44
1,33,0,68
1,28,115,28
1,28,0,56
1,31,102,36
1,31,0,76
1,33,119,20
1,33,0,64
1,33,112,36
1,33,0,836
1,33,102,28
1,33,0,96
1,36,102,4
1,38,103,88
1,36,0,8
1,38,0,48
1,38,115,36
1,38,0,68
1,33,115,24
1,33,0,60
1,36,102,28
1,36,0,76
1,38,119,20
1,38,0,64
1,29,112,40
1,29,0,8
1,26,127,24
1,26,0,308
1,33,102,576
1,33,0,96
1,36,102,12
1,38,103,88
1,36,0,8
1,38,0,48
1,38,115,36
1,38,0,68
1,33,115,24
1,33,0,60
1,36,102,28
1,36,0,76
1,38,119,20
1,38,0,64
1,29,112,40
1,29,0,8
1,26,127,24
1,26,0,308
1,33,102,576
1,33,0,96
1,41,102,12
1,41,0,356
1,36,102,4
1,36,0,76
1,41,119,32
1,41,0,4
1,26,112,28
1,26,0,132
1,28,102,588
1,28,0,96
1,31,102,0
1,31,0,72
1,33,103,20
1,33,0,52
1,33,115,44
1,33,0,68
1,28,115,28
1,28,0,56
1,31,102,36
1,31,0,76
1,33,119,20
1,33,0,64
1,33,112,36
1,33,0,948
1,26,123,16
1,26,0,1116
1,36,112,32
1,36,0,356
1,41,112,32
1,41,0,632
1,40,124,40
1,40,0,100
1,40,127,92
1,40,0,364
1,40,99,16
1,40,0,80
1,40,106,16
1,40,0,128
1,38,127,64
1,36,112,768
1,38,0,12
1,36,0,92
1,36,127,88
1,36,0,456
1,36,102,28
1,36,0,32
1,41,115,60
1,41,0,648
1,40,110,28
1,40,0,248
1,40,124,36
1,40,0,276
1,40,110,12
1,40,0,188
1,40,103,8
1,40,0,76
1,38,127,20
1,36,112,764
1,38,0,12
1,36,0,92
1,36,127,88
1,36,0,260
1,36,110,32
1,36,0,188
1,36,103,12
1,36,0,76
1,38,106,8
1,38,0,68
1,38,124,124
1,38,0,464
1,38,119,20
1,38,0,60
1,36,93,128
1,36,0,40
1,36,106,56
1,36,0,284
1,36,97,12
1,36,0,92
1,33,83,0
1,33,0,48
1,36,106,40
1,36,0,52
1,35,103,44
1,35,0,104
1,35,127,92
1,35,0,428
1,35,119,52
1,35,0,92
1,34,106,0
1,34,0,80
1,29,102,16
1,29,0,80
1,34,102,16
1,34,0,16
1,33,106,16
1,33,0,380
1,38,106,12
1,38,0,68
1,38,124,124
1,38,0,464
1,36,119,16
1,36,0,56
1,31,93,136
1,31,0,40
1,36,106,56
1,36,0,284
1,36,97,12
1,36,0,92
1,31,83,0
1,31,0,48
1,36,106,40
1,36,0,52
1,35,103,44
1,35,0,104
1,35,127,92
1,35,0,428
1,35,119,52
1,35,0,92
1,34,106,0
1,34,0,440
1,34,101,40
1,34,0,100
1,29,104,0
1,29,0,96
1,34,100,0
1,33,127,92
1,34,0,8
1,26,119,1536
1,33,0,8
1,26,0,1100
1,24,112,36
1,24,0,364
1,29,112,28
1,29,0,104
1,29,112,80
1,29,0,464
1,40,124,24
1,40,0,100
1,40,127,92
1,40,0,364
1,40,99,16
1,40,0,80
1,40,106,16
1,40,0,128
1,38,112,56
1,38,0,104
1,38,112,80
1,38,0,464
1,36,112,128
1,36,0,104
1,36,127,88
1,36,0,284
1,36,99,4
1,36,0,80
1,36,106,16
1,36,0,88
1,36,102,12
1,36,0,80
1,29,112,16
1,29,0,104
1,29,112,80
1,29,0,464
1,40,124,24
1,40,0,100
1,40,127,92
1,40,0,364
1,40,99,16
1,40,0,80
1,40,106,16
1,40,0,128
1,38,112,56
1,38,0,104
1,38,112,80
1,38,0,464
1,36,112,128
1,36,0,104
1,36,127,88
1,36,0,284
1,36,99,4
1,36,0,80
1,36,106,16
1,36,0,88
1,36,102,12
1,36,0,80
1,38,102,16
1,38,0,76
1,38,124,112
1,38,0,464
1,36,119,20
1,36,0,60
1,36,93,128
1,36,0,84
1,36,106,12
1,36,0,284
1,36,97,12
1,36,0,92
1,33,83,0
1,33,0,48
1,36,106,40
1,36,0,52
1,35,103,44
1,35,0,104
1,35,127,92
1,35,0,428
1,35,119,52
1,35,0,92
1,34,106,0
1,34,0,80
1,29,102,16
1,29,0,80
1,34,102,16
1,34,0,16
1,33,106,16
1,33,0,380
1,38,106,12
1,38,0,68
1,38,124,124
1,38,0,464
1,36,119,16
1,36,0,56
1,31,93,136
1,31,0,40
1,36,106,56
1,36,0,284
1,36,97,12
1,36,0,92
1,31,83,0
1,31,0,48
1,36,106,40
1,36,0,52
1,35,103,44
1,35,0,104
1,35,127,92
1,35,0,428
1,35,119,52
1,35,0,92
1,34,106,0
1,34,0,440
1,34,101,40
1,34,0,100
1,29,104,0
1,29,0,96
1,34,100,0
1,33,127,92
1,34,0,8
1,26,119,1536
1,33,0,8
1,36,121,1508
1,26,0,8
1,36,0,1536
1,35,103,16
1,33,127,1528
1,35,0,8
1,33,0,1528
1,26,124,4
1,26,0,76
1,26,127,116
1,26,0,1320
1,34,127,20
1,34,0,616
1,34,78,52
1,34,0,48
1,33,103,52
1,33,0,68
1,33,127,124
1,33,0,448
1,33,90,32
1,33,0,68
1,26,115,28
1,34,127,1536
1,26,0,8
1,33,127,760
1,34,0,4
1,33,0,768
1,36,102,1536
1,38,103,88
1,36,0,8
1,38,0,48
1,38,115,36
1,38,0,68
1,33,115,24
1,33,0,60
1,36,102,28
1,36,0,76
1,38,119,20
1,38,0,64
1,29,112,40
1,29,0,360
1,31,127,32
1,31,0,364
1,31,102,20
1,31,0,100
1,26,127,292
1,26,0,136
1,26,124,132
1,26,0,108
1,26,119,88
1,26,0,60
1,26,119,144
1,26,0,36
1,26,127,60
1,26,0,372
1,41,119,8
1,41,0,60
1,36,102,8
1,38,103,56
1,36,0,8
1,38,0,48
1,38,115,36
1,38,0,68
1,33,115,24
1,33,0,60
1,36,102,28
1,36,0,76
1,38,119,20
1,38,0,64
1,29,112,40
1,29,0,24
1,28,127,36
1,28,0,76
1,53,115,20
1,53,0,60
1,41,96,0
1,41,0,48
1,47,103,48
1,47,0,20
1,41,119,140
1,41,0,4
1,36,102,24
1,38,103,88
1,36,0,8
1,38,0,104
1,33,115,72
1,33,0,60
1,36,102,28
1,36,0,76
1,38,119,20
1,38,0,64
1,29,112,40
1,29,0,360
1,31,127,32
1,31,0,364
1,31,102,20
1,31,0,100
1,26,127,292
1,26,0,136
1,26,124,132
1,26,0,108
1,26,119,88
1,26,0,60
1,26,119,144
1,26,0,36
1,26,127,60
1,26,0,372
1,41,119,8
1,41,0,60
1,36,102,8
1,38,103,56
1,36,0,8
1,38,0,48
1,38,115,36
1,38,0,68
1,33,115,24
1,33,0,60
1,36,102,28
1,36,0,76
1,38,119,20
1,38,0,64
1,29,112,40
1,29,0,24
1,28,127,36
1,28,0,76
1,53,115,20
1,53,0,60
1,41,96,0
1,41,0,48
1,47,103,48
1,47,0,20
1,41,119,140
1,41,0,4
1,26,124,24
1,26,0,3148
2,63,86,11152
2,60,85,0
2,55,90,0
2,55,0,1512
2,60,0,0
2,63,0,0
2,63,85,12
2,60,88,0
2,56,85,0
2,65,89,768
2,62,89,0
2,58,83,0
2,56,0,4
2,63,0,4
2,60,0,0
2,58,0,756
2,62,0,0
2,63,85,8
2,60,88,0
2,55,91,0
2,65,0,4
2,63,0,1536
2,60,0,0
2,55,0,4
2,56,86,0
2,63,85,8
2,60,84,0
2,63,0,740
2,60,0,4
2,56,0,4
2,58,84,0
2,65,91,4
2,62,91,0
2,58,0,764
2,65,0,4
2,62,0,8
2,63,86,0
2,58,90,0
2,55,85,0
2,55,0,1512
2,58,0,0
2,63,0,0
2,65,88,12
2,60,85,0
2,56,85,0
2,56,0,1520
2,60,0,4
2,65,0,0
2,62,88,16
2,59,85,0
2,55,91,0
2,55,0,1540
2,59,0,0
2,62,0,0
2,63,86,4
2,60,85,0
2,55,90,0
2,55,0,0
2,60,0,1512
2,63,0,0
2,63,85,12
2,60,88,0
2,56,85,0
2,65,89,768
2,62,89,0
2,58,83,0
2,56,0,4
2,63,0,4
2,60,0,0
2,58,0,756
2,62,0,0
2,63,85,8
2,60,88,0
2,55,91,0
2,65,0,4
2,63,0,1536
2,60,0,0
2,55,0,4
2,56,86,0
2,63,85,8
2,60,84,0
2,63,0,740
2,60,0,4
2,56,0,4
2,58,84,0
2,65,91,4
2,62,91,0
2,58,0,764
2,65,0,4
2,62,0,8
2,63,86,0
2,58,90,0
2,55,85,0
2,55,0,1512
2,58,0,0
2,63,0,0
2,65,88,12
2,60,85,0
2,56,85,0
2,56,0,1520
2,60,0,4
2,65,0,0
2,62,88,16
2,59,85,0
2,55,91,0
2,55,0,1540
2,59,0,0
2,62,0,0
2,63,82,4
2,60,83,0
2,55,83,0
2,55,0,0
2,63,0,1124
2,53,85,20
2,62,83,4
2,58,77,0
2,60,0,12
2,53,0,364
2,62,0,12
2,58,0,0
2,75,85,0
2,70,89,0
2,67,103,0
2,63,106,0
2,63,0,728
2,67,0,24
2,65,99,8
2,62,96,0
2,62,0,768
2,67,110,0
2,60,106,0
2,65,0,8
2,75,0,748
2,62,88,12
2,58,78,0
2,60,0,4
2,65,99,0
2,67,0,4
2,70,0,756
2,62,0,8
2,58,0,0
2,75,85,4
2,70,89,0
2,67,103,0
2,63,106,0
2,65,0,4
2,63,0,724
2,67,0,24
2,65,99,8
2,62,96,0
2,62,0,768
2,67,110,0
2,60,106,0
2,65,0,8
2,75,0,748
2,62,88,12
2,58,78,0
2,60,0,4
2,65,99,0
2,67,0,4
2,70,0,756
2,62,0,8
2,58,0,0
2,72,89,4
2,67,85,0
2,63,78,0
2,60,90,0
2,65,0,4
2,70,97,756
2,72,0,4
2,70,0,764
2,67,0,4
2,69,99,0
2,65,101,0
2,69,0,760
2,68,93,0
2,65,0,4
2,63,0,376
2,60,0,4
2,68,0,0
2,67,90,8
2,62,88,0
2,59,90,0
2,59,0,376
2,62,0,0
2,67,0,0
2,72,89,12
2,67,85,0
2,63,89,0
2,60,90,0
2,70,97,760
2,72,0,4
2,70,0,764
2,67,0,4
2,69,99,0
2,65,101,0
2,69,0,760
2,68,93,0
2,65,0,4
2,63,0,764
2,60,0,8
2,68,0,0
2,67,87,4
2,62,83,0
2,59,87,0
2,60,85,764
2,59,0,8
2,62,0,696
2,63,84,44
2,70,84,2312
2,67,0,8
2,65,84,760
2,69,84,4
2,70,0,4
2,65,0,1520
2,60,0,0
2,63,0,0
2,69,0,0
2,67,87,12
2,62,82,0
2,59,88,0
2,59,0,4
2,62,0,0
2,67,0,0
2,65,86,1572
2,62,85,0
2,57,90,0
2,57,0,1512
2,62,0,0
2,65,0,0
