track,note,velocity,time
0,53,85,0
0,53,75,20
0,60,56,0
0,60,84,460
0,53,63,60
0,65,99,240
0,65,41,0
0,53,40,30
0,60,55,20
0,65,79,10
0,64,84,240
0,53,40,30
0,65,40,16
0,60,71,60
0,60,43,28
0,64,89,2
0,65,90,0
0,53,38,22
0,64,42,0
0,60,81,0
0,60,42,0
0,53,49,10
0,53,51,0
0,60,70,30
0,60,49,0
0,60,82,0
0,60,64,5
0,53,66,23
0,53,55,7
0,58,59,195
0,58,84,10
0,58,65,30
0,65,87,240
0,65,67,18
0,58,60,0
0,58,54,7
0,64,75,10
0,64,56,7
0,58,70,70
0,64,67,33
0,64,78,10
0,65,73,0
0,65,42,0
0,65,51,2
0,58,55,20
0,58,49,0
0,53,46,12
0,53,42,12
0,58,62,0
0,58,43,0
0,53,83,0
0,58,76,0
0,53,68,20
0,60,55,216
0,60,85,240
0,53,62,60
0,65,98,240
0,65,41,0
0,53,41,30
0,60,54,20
0,65,78,10
0,64,85,240
0,53,41,30
0,65,40,16
0,60,70,60
0,60,43,28
0,64,89,2
0,65,90,0
0,53,38,3
0,64,43,0
0,60,81,0
0,60,42,0
0,53,49,10
0,53,50,0
0,60,70,30
0,60,49,0
0,60,82,0
0,60,64,5
0,53,49,30
0,58,59,195
0,58,85,10
0,53,71,243
0,58,64,30
0,65,86,240
0,65,66,18
0,58,61,30
0,58,55,7
0,64,74,10
0,64,56,7
0,58,71,70
0,64,66,33
0,64,79,10
0,65,72,0
0,65,43,0
0,67,71,0
0,67,65,0
0,69,56,115
0,69,60,0
0,67,68,0
0,67,60,0
0,65,71,22
0,65,57,0
0,29,121,223
0,53,87,0
0,35,101,0
0,49,95,0
0,69,57,0
0,69,63,0
0,72,62,3
0,41,97,5
0,65,59,2
0,53,75,10
0,60,56,0
0,44,75,210
0,60,88,0
0,35,92,0
0,42,109,0
0,69,60,0
0,41,88,2
0,53,66,60
0,44,74,0
0,65,101,108
0,40,111,0
0,42,108,0
0,54,115,0
0,69,61,0
0,65,50,0
0,53,79,6
0,60,83,4
0,53,45,30
0,44,83,0
0,60,55,20
0,65,82,10
0,42,109,0
0,69,55,0
0,64,88,167
0,35,99,0
0,44,81,0
0,41,82,2
0,53,45,30
0,42,111,0
0,69,58,0
0,65,40,16
0,53,65,52
0,60,82,5
0,60,74,3
0,33,73,0
0,44,68,0
0,41,72,28
0,60,43,0
0,64,91,2
0,35,95,0
0,42,102,0
0,69,51,0
0,65,93,0
0,44,83,0
0,53,42,22
0,40,110,0
0,42,115,0
0,69,60,0
0,64,43,0
0,60,87,22
0,53,91,7
0,60,85,0
0,35,98,0
0,44,60,0
0,60,42,0
0,53,50,10
0,42,88,0
0,69,54,0
0,53,51,0
0,41,76,17
0,60,74,30
0,33,66,0
0,44,78,0
0,60,48,0
0,60,87,0
0,35,99,0
0,42,108,0
0,69,63,0
0,70,63,0
0,60,70,5
0,34,118,1
0,74,62,4
0,46,98,6
0,53,67,12
0,53,57,5
0,58,67,195
0,58,88,10
0,44,63,0
0,46,85,65
0,35,100,13
0,42,97,0
0,69,59,0
0,58,66,30
0,44,79,0
0,53,85,201
0,65,89,9
0,40,123,0
0,42,111,0
0,54,106,0
0,69,58,0
0,60,86,6
0,65,70,12
0,44,78,210
0,58,63,0
0,42,98,0
0,69,58,0
0,58,54,7
0,64,78,10
0,35,92,0
0,44,78,0
0,64,65,7
0,46,92,14
0,42,108,210
0,69,59,0
0,58,74,48
0,33,73,0
0,44,73,0
0,53,71,20
0,60,72,5
0,64,69,33
0,64,83,10
0,35,101,0
0,42,93,0
0,69,57,0
0,65,76,0
0,44,75,0
0,65,42,0
0,40,111,10
0,42,115,0
0,69,58,0
0,77,81,0
0,65,60,0
0,53,85,17
0,60,87,5
0,58,59,20
0,35,95,0
0,44,78,0
0,58,57,0
0,53,49,12
0,42,96,0
0,69,54,0
0,53,42,12
0,46,82,3
0,58,64,0
0,40,82,0
0,44,72,0
0,58,43,0
0,29,121,0
0,53,87,0
0,35,100,0
0,42,108,0
0,69,57,0
0,72,58,0
0,58,77,0
0,41,93,7
0,53,68,8
0,69,58,6
0,60,65,206
0,44,75,0
0,41,78,18
0,60,88,15
0,35,92,0
0,42,109,0
0,69,60,0
0,53,66,60
0,44,74,0
0,60,84,205
0,65,101,5
0,40,111,0
0,42,108,0
0,54,109,0
0,69,61,0
0,53,89,0
0,65,52,0
0,53,45,30
0,44,83,0
0,60,60,20
0,65,82,10
0,42,109,0
0,69,55,0
0,64,88,80
0,35,99,0
0,44,81,0
0,41,79,10
0,53,45,30
0,42,111,0
0,69,58,0
0,65,47,16
0,60,75,60
0,33,73,0
0,44,68,0
0,53,78,26
0,60,82,0
0,41,57,16
0,60,49,12
0,64,90,2
0,35,95,0
0,42,102,0
0,69,51,0
0,65,92,0
0,44,83,0
0,53,43,22
0,40,110,0
0,42,115,0
0,69,60,0
0,64,42,0
0,60,79,3
0,53,88,3
0,60,84,0
0,35,98,0
0,44,60,0
0,60,42,0
0,53,51,10
0,42,88,0
0,69,54,0
0,53,51,0
0,41,96,7
0,60,75,30
0,33,66,0
0,44,78,0
0,60,49,0
0,34,119,0
0,60,86,0
0,35,98,0
0,42,108,0
0,69,63,0
0,60,70,5
0,46,91,5
0,74,59,5
0,70,61,6
0,53,51,5
0,58,68,195
0,58,88,10
0,44,63,0
0,46,86,25
0,35,101,5
0,42,97,0
0,69,59,0
0,77,82,0
0,89,92,0
0,53,71,8
0,58,66,30
0,44,79,0
0,65,89,172
0,40,122,0
0,42,111,0
0,54,109,0
0,69,58,0
0,53,91,8
0,60,79,4
0,65,72,6
0,44,78,210
0,58,63,0
0,35,92,0
0,42,98,0
0,69,58,0
0,76,83,0
0,88,91,0
0,58,55,7
0,64,78,10
0,35,93,0
0,44,78,0
0,46,88,5
0,64,65,2
0,42,108,210
0,69,59,0
0,58,74,70
0,33,73,0
0,44,73,0
0,60,75,8
0,53,82,5
0,64,66,8
0,64,83,5
0,35,101,0
0,46,105,0
0,69,57,0
0,74,82,0
0,86,86,0
0,46,92,12
0,65,77,0
0,65,43,0
0,67,72,0
0,40,111,0
0,42,115,0
0,69,58,0
0,67,64,0
0,53,83,16
0,60,79,5
0,69,60,118
0,69,60,0
0,35,90,60
0,44,79,0
0,67,73,0
0,67,61,0
0,46,78,19
0,65,74,0
0,42,97,0
0,69,54,0
0,72,75,0
0,84,74,0
0,65,57,0
0,40,83,20
0,44,72,0
0,29,120,8
0,53,87,0
0,58,89,0
0,35,101,0
0,42,108,0
0,69,57,0
0,65,67,0
0,58,76,0
0,53,68,20
0,41,102,5
0,60,65,206
0,60,74,0
0,44,74,0
0,65,89,129
0,35,92,0
0,42,108,0
0,69,60,0
0,65,71,0
0,53,73,2
0,60,85,5
0,60,66,0
0,44,75,0
0,65,100,30
0,40,110,0
0,42,109,0
0,54,114,0
0,69,61,0
0,65,56,0
0,60,84,15
0,53,88,5
0,53,45,120
0,44,82,0
0,60,60,20
0,65,83,10
0,42,108,0
0,69,55,0
0,64,88,85
0,35,98,0
0,44,81,0
0,41,89,3
0,53,44,30
0,42,111,0
0,69,58,0
0,65,47,16
0,60,75,60
0,33,72,0
0,44,69,0
0,60,86,23
0,53,95,5
0,60,48,28
0,64,91,2
0,35,95,0
0,42,103,0
0,69,51,0
0,41,71,11
0,65,92,0
0,44,82,0
0,53,42,22
0,40,110,0
0,42,114,0
0,69,60,0
0,64,43,0
0,53,88,21
0,60,87,5
0,60,85,0
0,35,99,0
0,44,61,0
0,60,43,0
0,53,50,10
0,42,89,0
0,69,54,0
0,53,50,0
0,41,88,18
0,60,75,30
0,33,66,0
0,44,78,0
0,60,49,0
0,34,119,0
0,60,87,0
0,35,98,0
0,42,108,0
0,69,63,0
0,70,59,0
0,60,70,5
0,46,84,1
0,53,50,5
0,58,68,195
0,58,89,10
0,44,62,0
0,46,83,146
0,35,100,8
0,42,96,0
0,69,59,0
0,53,71,8
0,58,66,30
0,44,79,0
0,60,83,191
0,53,86,6
0,65,88,7
0,40,123,0
0,42,111,0
0,54,107,0
0,69,58,0
0,65,79,18
0,44,79,210
0,58,63,30
0,42,99,0
0,69,58,0
0,58,54,7
0,74,76,3
0,64,79,30
0,35,93,0
0,44,78,0
0,64,64,7
0,46,82,6
0,42,108,210
0,69,59,0
0,58,74,70
0,33,73,0
0,44,72,0
0,60,79,16
0,53,83,4
0,64,92,30
0,35,101,0
0,42,92,0
0,69,57,0
0,70,73,1
0,46,68,19
0,65,97,173
0,44,75,0
0,65,71,0
0,40,111,0
0,42,115,0
0,69,58,0
0,53,78,0
0,60,75,28
0,65,79,61
0,35,94,7
0,44,79,0
0,65,65,0
0,42,97,90
0,69,54,0
0,69,64,0
0,57,54,0
0,58,60,12
0,65,88,27
0,40,82,0
0,44,72,0
0,65,60,0
0,38,120,0
0,53,69,0
0,58,92,0
0,35,100,0
0,42,108,0
0,69,57,0
0,72,56,0
0,77,59,0
0,58,77,0
0,53,68,20
0,50,78,6
0,60,65,26
0,60,75,0
0,44,74,0
0,69,89,30
0,35,93,0
0,42,108,0
0,69,60,0
0,69,71,0
0,50,79,7
0,60,66,30
0,44,75,0
0,65,101,30
0,40,110,0
0,42,109,0
0,54,108,0
0,69,61,0
0,65,56,0
0,60,93,17
0,53,92,4
0,53,44,120
0,44,82,0
0,60,61,20
0,65,82,10
0,42,108,0
0,69,55,0
0,64,89,23
0,35,98,0
0,44,81,0
0,53,79,0
0,60,68,14
0,53,45,30
0,42,111,0
0,69,58,0
0,65,46,16
0,60,84,52
0,53,89,5
0,60,78,3
0,33,73,0
0,44,69,0
0,60,48,28
0,64,90,2
0,35,95,0
0,42,103,0
0,69,51,0
0,50,35,141
0,65,97,0
0,44,82,0
0,53,43,22
0,40,111,0
0,42,114,0
0,69,60,0
0,64,43,0
0,53,84,2
0,60,82,5
0,60,84,0
0,35,99,0
0,44,61,0
0,60,43,0
0,53,50,10
0,42,89,0
0,69,54,0
0,53,50,0
0,48,61,11
0,60,75,30
0,33,66,0
0,44,78,0
0,60,48,0
0,34,118,0
0,60,86,0
0,35,98,0
0,42,108,0
0,69,63,0
0,70,57,0
0,74,72,0
0,53,71,0
0,60,81,5
0,46,85,7
0,53,51,5
0,58,74,195
0,58,89,10
0,44,62,0
0,46,90,135
0,35,101,4
0,42,96,0
0,69,59,0
0,58,66,30
0,44,79,0
0,65,89,30
0,40,122,0
0,42,111,0
0,54,108,0
0,69,58,0
0,74,74,0
0,60,78,10
0,53,85,5
0,65,72,3
0,44,79,210
0,58,62,4
0,35,92,0
0,42,99,0
0,69,58,0
0,70,75,0
0,58,55,1
0,64,78,4
0,35,92,0
0,44,78,0
0,64,64,1
0,46,78,5
0,42,108,4
0,69,59,0
0,58,75,70
0,40,109,0
0,44,72,0
0,60,73,22
0,53,85,5
0,64,67,20
0,31,103,10
0,64,83,0
0,35,101,0
0,46,112,0
0,69,57,0
0,67,77,0
0,38,81,0
0,65,76,0
0,65,47,0
0,58,76,1
0,36,108,0
0,67,72,0
0,40,111,0
0,42,114,0
0,69,58,0
0,72,64,0
0,67,76,0
0,53,79,6
0,60,61,4
0,48,82,1
0,69,61,2
0,69,70,0
0,35,91,60
0,44,79,0
0,67,73,0
0,72,111,0
0,67,70,0
0,65,74,0
0,42,97,0
0,69,54,0
0,65,71,0
0,65,62,3
0,72,110,25
0,40,104,0
0,44,73,0
0,58,89,0
0,29,112,0
0,72,111,0
0,35,100,0
0,49,96,0
0,69,57,0
0,53,60,0
0,60,61,0
0,77,51,0
0,60,82,0
0,72,46,16
0,53,84,0
0,44,74,27
0,72,111,50
0,35,92,59
0,42,109,0
0,69,60,0
0,53,67,10
0,60,62,5
0,53,74,7
0,72,110,109
0,44,74,80
0,72,111,60
0,40,111,0
0,42,108,0
0,54,115,0
0,69,61,0
0,60,80,22
0,60,93,4
0,53,83,1
0,65,94,1
0,72,110,24
0,44,83,80
0,72,110,40
0,42,108,160
0,69,55,0
0,72,111,17
0,35,99,80
0,44,80,0
0,60,77,1
0,53,76,4
0,72,111,60
0,42,111,0
0,69,58,0
0,60,60,63
0,53,65,10
0,33,72,4
0,44,69,0
0,60,63,13
0,65,63,15
0,69,110,40
0,41,66,53
0,35,95,12
0,42,102,0
0,69,51,0
0,44,83,104
0,40,110,94
0,42,115,0
0,69,60,0
0,53,79,8
0,60,73,7
0,60,98,10
0,65,97,3
0,72,110,80
0,35,98,75
0,44,60,0
0,72,111,40
0,41,60,130
0,42,89,2
0,69,54,0
0,72,111,40
0,53,63,67
0,60,60,6
0,33,67,2
0,44,79,0
0,46,74,0
0,34,115,4
0,72,110,0
0,35,98,0
0,42,108,0
0,69,63,0
0,70,47,0
0,44,62,135
0,70,110,10
0,60,47,150
0,53,43,3
0,53,62,2
0,35,101,5
0,42,97,0
0,69,59,0
0,70,111,10
0,44,78,0
0,70,110,20
0,40,122,0
0,42,110,0
0,54,107,0
0,69,58,0
0,60,98,13
0,65,97,5
0,53,88,8
0,60,84,1
0,44,79,209
0,70,111,50
0,42,98,160
0,69,58,0
0,53,61,16
0,60,63,4
0,70,111,20
0,35,92,0
0,44,79,0
0,46,31,36
0,70,110,24
0,42,109,0
0,69,59,0
0,53,78,35
0,60,74,5
0,33,73,20
0,44,72,0
0,60,69,5
0,65,76,0
0,65,111,40
0,46,67,82
0,35,101,10
0,42,93,0
0,69,57,0
0,44,74,73
0,53,94,68
0,60,83,2
0,40,111,2
0,42,114,0
0,69,58,0
0,60,82,23
0,65,77,2
0,35,95,120
0,44,79,0
0,69,110,33
0,42,96,0
0,69,54,0
0,53,73,13
0,60,74,1
0,70,110,3
0,40,83,0
0,44,73,0
0,60,75,3
0,65,60,11
0,50,71,2
0,38,115,0
0,72,111,0
0,35,100,0
0,42,109,0
0,69,57,0
0,81,51,0
0,38,65,1
0,53,62,20
0,44,74,33
0,72,111,50
0,50,65,10
0,35,93,14
0,42,109,0
0,69,60,0
0,53,59,7
0,50,66,1
0,60,62,14
0,72,110,40
0,44,74,62
0,60,85,17
0,72,110,2
0,40,110,0
0,42,108,0
0,54,108,0
0,69,61,0
0,53,89,2
0,53,66,5
0,60,96,7
0,65,93,5
0,44,83,198
0,72,111,40
0,42,108,160
0,69,55,0
0,72,111,3
0,60,74,66
0,35,98,3
0,44,80,0
0,53,74,2
0,72,110,40
0,42,111,0
0,69,58,0
0,60,61,63
0,65,62,10
0,33,72,9
0,44,69,0
0,60,59,6
0,53,71,4
0,53,56,0
0,72,110,50
0,35,94,129
0,42,102,0
0,69,51,0
0,50,64,0
0,72,111,60
0,44,83,14
0,53,78,43
0,60,75,5
0,60,93,23
0,65,76,6
0,72,110,3
0,40,110,0
0,42,115,0
0,69,60,0
0,53,69,18
0,35,99,142
0,44,60,0
0,72,111,40
0,72,111,20
0,42,89,0
0,69,54,0
0,33,66,63
0,44,79,0
0,60,66,12
0,53,65,6
0,46,65,30
0,34,114,10
0,74,110,0
0,35,99,0
0,42,108,0
0,69,63,0
0,70,48,0
0,46,66,28
0,44,62,38
0,53,58,184
0,53,49,3
0,53,58,1
0,35,100,4
0,42,97,0
0,69,59,0
0,60,55,1
0,44,78,210
0,74,111,33
0,40,123,0
0,42,110,0
0,54,108,0
0,69,58,0
0,53,80,7
0,60,72,5
0,60,95,1
0,53,61,0
0,65,87,5
0,44,79,90
0,35,92,4
0,42,98,0
0,69,58,0
0,60,67,4
0,53,81,2
0,35,93,4
0,44,79,0
0,42,109,4
0,69,59,0
0,40,109,87
0,44,72,0
0,60,86,1
0,65,78,4
0,53,78,8
0,60,68,5
0,53,54,5
0,46,77,200
0,35,101,10
0,46,113,0
0,69,57,0
0,31,102,48
0,36,107,0
0,40,110,0
0,42,115,0
0,69,58,0
0,74,55,0
0,58,57,2
0,53,105,1
0,79,54,5
0,60,90,2
0,58,73,1
0,65,86,4
0,48,76,11
0,62,83,1
0,53,57,0
0,35,90,30
