track,note,velocity,time
0,69,107,26
0,76,74,0
0,64,85,14
0,69,99,24
0,64,0,128
0,76,0,10
0,69,0,6
0,69,0,2
0,71,107,10
0,76,62,6
0,38,85,2
0,71,98,6
0,64,83,2
0,38,0,16
0,38,82,40
0,38,0,24
0,38,101,40
0,38,0,24
0,76,0,6
0,64,0,2
0,71,0,6
0,57,75,2
0,71,0,8
0,61,36,0
0,76,74,6
0,73,104,3
0,33,107,7
0,35,117,0
0,38,101,0
0,69,85,4
0,57,49,0
0,57,53,0
0,64,93,1
0,64,89,7
0,73,103,8
0,38,0,4
0,35,0,0
0,64,82,2
0,61,54,4
0,61,0,42
0,64,0,21
0,38,94,3
0,61,27,8
0,64,73,0
0,38,0,4
0,61,50,0
0,57,0,32
0,57,0,20
0,33,0,4
0,61,0,1
0,61,0,7
0,64,0,2
0,61,92,2
0,57,93,2
0,39,127,2
0,42,127,0
0,57,93,1
0,64,112,3
0,61,97,4
0,42,0,16
0,39,0,0
0,61,0,52
0,61,0,12
0,64,0,6
0,38,65,2
0,61,56,6
0,64,93,2
0,61,74,9
0,38,0,7
0,64,0,12
0,73,0,13
0,73,0,5
0,76,0,0
0,57,0,16
0,57,0,3
0,76,79,11
0,74,106,1
0,64,0,5
0,40,108,0
0,74,95,2
0,64,84,0
0,35,120,4
0,38,94,0
0,57,47,0
0,57,53,4
0,64,56,0
0,38,0,20
0,35,0,0
0,61,0,25
0,61,0,29
0,57,0,10
0,38,88,0
0,64,0,4
0,74,0,1
0,57,54,5
0,64,54,4
0,57,0,6
0,61,56,0
0,38,0,4
0,61,28,6
0,64,0,6
0,74,0,1
0,76,0,7
0,57,0,38
0,76,73,8
0,61,0,2
0,73,104,0
0,73,95,0
0,61,0,4
0,64,88,1
0,40,0,1
0,64,0,0
0,42,126,0
0,57,79,3
0,57,97,1
0,39,126,2
0,61,99,2
0,64,110,2
0,61,97,6
0,42,0,8
0,39,0,6
0,64,0,56
0,38,81,16
0,61,0,2
0,61,46,6
0,76,0,6
0,73,0,2
0,73,0,2
0,38,0,6
0,64,0,17
0,69,0,3
0,57,0,33
0,57,0,1
0,76,82,2
0,64,82,4
0,61,0,4
0,71,111,0
0,35,121,0
0,64,0,1
0,61,0,0
0,68,83,4
0,28,107,1
0,71,103,0
0,64,86,2
0,38,91,0
0,56,46,1
0,56,53,1
0,64,101,2
0,56,50,4
0,59,71,0
0,59,38,0
0,57,0,1
0,61,0,1
0,59,55,2
0,35,0,4
0,38,0,8
0,56,0,49
0,59,0,16
0,59,0,1
0,64,0,0
0,56,53,8
0,64,79,3
0,38,84,0
0,59,52,4
0,59,53,6
0,38,0,14
0,56,0,0
0,56,0,45
0,64,0,9
0,59,0,0
0,59,0,2
0,56,75,6
0,64,106,2
0,39,127,0
0,56,92,1
0,59,82,0
0,42,123,1
0,59,88,2
0,28,0,12
0,39,0,8
0,42,0,2
0,71,0,27
0,71,0,5
0,73,109,19
0,73,88,1
0,76,0,2
0,56,0,8
0,59,0,0
0,59,0,2
0,64,0,3
0,38,96,3
0,56,93,1
0,59,81,3
0,59,82,0
0,64,83,4
0,38,0,16
0,64,0,0
0,71,113,1
0,73,0,4
0,71,72,15
0,73,0,2
0,56,0,32
0,71,0,3
0,76,82,4
0,69,107,1
0,64,86,2
0,71,0,4
0,35,103,4
0,35,123,0
0,38,91,0
0,68,0,5
0,56,44,7
0,69,89,8
0,38,0,4
0,35,0,0
0,56,0,49
0,59,0,3
0,59,0,10
0,64,0,2
0,64,0,1
0,38,97,7
0,56,59,0
0,64,64,4
0,76,0,1
0,56,0,3
0,59,69,0
0,59,69,4
0,69,0,2
0,38,0,8
0,69,0,8
0,56,0,26
0,64,82,4
0,68,103,9
0,71,75,0
0,59,0,3
0,59,0,0
0,56,79,2
0,64,0,2
0,59,96,5
0,59,94,1
0,56,101,0
0,39,127,2
0,64,112,1
0,42,127,1
0,68,105,2
0,35,0,6
0,39,0,14
0,42,0,2
0,59,0,45
0,64,0,11
0,64,0,1
0,68,0,0
0,59,66,4
0,38,102,3
0,71,0,1
0,68,0,0
0,64,73,3
0,38,0,20
0,59,0,30
0,56,0,0
0,64,0,11
0,64,88,5
0,56,0,4
0,56,0,4
0,57,54,2
0,76,66,1
0,59,0,1
0,62,84,0
0,59,0,2
0,69,103,0
0,66,76,1
0,64,0,3
0,54,76,6
0,54,53,0
0,35,116,2
0,38,94,0
0,69,105,1
0,62,62,0
0,26,110,3
0,57,79,0
0,54,57,1
0,38,0,19
0,35,0,0
0,54,0,8
0,57,0,5
0,62,0,0
0,54,57,5
0,62,74,6
0,57,53,4
0,38,95,0
0,57,37,0
0,38,0,24
0,54,0,9
0,54,0,37
0,57,0,8
0,62,0,3
0,57,0,0
0,54,80,7
0,39,126,0
0,54,88,0
0,62,110,4
0,57,84,1
0,57,91,3
0,42,126,0
0,26,0,8
0,39,0,8
0,42,0,8
0,57,0,53
0,62,0,7
0,57,0,0
0,38,64,4
0,62,87,5
0,57,81,3
0,57,80,4
0,38,0,12
0,54,0,24
0,54,0,24
0,57,0,12
0,54,26,9
0,35,121,3
0,38,95,0
0,35,109,5
0,54,40,3
0,38,0,16
0,35,0,0
0,54,0,64
0,62,0,4
0,57,0,0
0,38,89,4
0,54,55,1
0,62,79,4
0,57,55,4
0,57,54,7
0,38,0,8
0,76,0,6
0,64,0,11
0,54,0,7
0,66,0,5
0,69,0,3
0,62,79,9
0,54,0,8
0,69,0,9
0,57,0,3
0,57,0,3
0,66,94,0
0,69,76,0
0,62,0,1
0,54,82,3
0,39,127,4
0,42,127,0
0,54,94,0
0,57,94,2
0,62,113,2
0,57,89,0
0,66,102,2
0,42,0,18
0,39,0,0
0,35,0,9
0,57,0,39
0,38,80,16
0,62,0,2
0,57,0,10
0,62,74,0
0,57,41,4
0,69,0,4
0,57,58,1
0,38,0,3
0,54,0,36
0,62,0,1
0,66,0,3
0,54,0,16
0,66,0,4
0,62,0,5
0,69,75,3
0,57,0,2
0,61,74,2
0,64,93,0
0,62,0,5
0,57,0,0
0,33,108,0
0,52,52,0
0,54,0,3
0,61,81,0
0,38,91,0
0,52,41,0
0,57,51,2
0,69,75,2
0,64,90,0
0,57,53,4
0,61,50,0
0,35,120,0
0,52,59,4
0,38,0,12
0,35,0,8
0,52,0,26
0,57,0,26
0,52,52,10
0,61,0,2
0,57,0,0
0,38,84,0
0,61,90,10
0,57,72,4
0,57,55,6
0,38,0,4
0,52,0,28
0,52,0,26
0,57,0,8
0,57,0,3
0,61,0,3
0,39,126,4
0,42,122,0
0,52,96,0
0,57,101,4
0,52,89,1
0,57,88,0
0,61,112,1
0,33,0,3
0,42,0,15
0,39,0,0
0,52,0,33
0,57,0,26
0,33,94,2
0,61,0,6
0,61,0,0
0,38,96,0
0,52,95,1
0,64,0,3
0,57,0,0
0,61,94,5
0,57,63,4
0,57,65,0
0,38,0,11
0,69,0,0
0,33,0,6
0,69,0,38
0,52,0,9
0,69,107,9
0,76,74,0
0,28,117,3
0,35,122,7
0,52,47,1
0,64,87,1
0,38,91,6
0,69,101,8
0,35,0,8
0,38,0,8
0,52,0,41
0,76,0,13
0,57,0,3
0,64,0,1
0,61,0,4
0,57,0,0
0,38,97,2
0,52,66,4
0,61,56,4
0,57,54,1
0,57,56,9
0,69,0,4
0,38,0,2
0,28,0,5
0,69,0,3
0,52,0,41
0,52,0,3
0,57,0,8
0,57,0,1
0,76,62,1
0,61,0,2
0,64,86,0
0,71,107,0
0,32,99,1
0,52,97,5
0,57,91,2
0,39,126,0
0,42,126,0
0,57,67,0
0,52,86,1
0,61,113,0
0,71,100,8
0,42,0,15
0,39,0,0
0,57,0,34
0,52,0,3
0,64,0,7
0,61,0,12
0,57,0,8
0,61,0,1
0,64,0,7
0,38,102,0
0,52,68,1
0,61,75,3
0,57,58,2
0,57,64,2
0,76,0,10
0,71,0,2
0,38,0,4
0,71,0,1
0,52,0,24
0,32,0,4
0,61,52,19
0,52,0,5
0,76,75,9
0,57,0,2
0,64,88,1
0,64,88,0
0,73,104,0
0,61,0,1
0,57,0,0
0,33,106,6
0,35,117,0
0,38,94,0
0,52,0,1
0,57,35,1
0,61,51,2
0,64,66,0
0,73,103,2
0,69,89,2
0,57,56,4
0,38,0,12
0,35,0,0
0,61,0,17
0,57,0,0
0,64,0,0
0,61,57,6
0,38,95,0
0,64,57,4
0,57,62,0
0,38,0,20
0,57,0,9
0,61,0,39
0,33,0,8
0,57,0,8
0,64,0,4
0,57,82,4
0,39,127,0
0,42,127,0
0,57,93,1
0,61,98,3
0,64,111,1
0,61,97,7
0,42,0,12
0,39,0,0
0,61,0,52
0,61,0,13
0,64,0,3
0,73,0,1
0,38,65,3
0,64,83,5
0,61,68,11
0,61,84,1
0,76,0,1
0,38,0,6
0,64,0,10
0,73,0,11
0,57,0,27
0,74,88,6
0,64,85,6
0,76,79,0
0,74,106,1
0,64,0,3
0,40,108,2
0,57,50,6
0,35,121,0
0,38,94,0
0,64,57,2
0,38,0,11
0,35,0,0
0,57,0,25
0,64,0,11
0,61,0,12
0,74,0,8
0,38,88,8
0,61,0,2
0,64,0,6
0,74,0,1
0,57,57,3
0,64,60,6
0,61,54,2
0,76,0,4
0,38,0,0
0,61,37,0
0,57,0,8
0,57,0,52
0,73,104,4
0,64,86,0
0,76,73,2
0,73,94,2
0,61,0,4
0,61,0,0
0,40,0,2
0,42,127,0
0,64,0,2
0,39,127,4
0,57,81,1
0,57,96,0
0,61,102,1
0,64,105,3
0,61,101,7
0,42,0,6
0,39,0,6
0,64,0,40
0,57,0,4
0,61,0,6
0,61,0,14
0,64,0,8
0,38,81,0
0,57,77,1
0,61,74,5
0,64,62,4
0,61,50,2
0,76,0,2
0,73,0,2
0,73,0,0
0,38,0,8
0,69,0,6
0,57,0,18
0,64,0,5
0,61,0,17
0,57,0,3
0,56,57,1
0,59,55,2
0,76,83,4
0,64,85,1
0,68,79,3
0,71,94,2
0,35,120,2
0,64,0,1
0,61,0,0
0,64,73,3
0,71,100,0
0,28,107,2
0,38,90,2
0,64,53,4
0,59,65,2
0,56,46,6
0,35,0,4
0,38,0,8
0,57,0,49
0,61,0,1
0,59,0,5
0,64,0,0
0,56,64,6
0,64,58,4
0,38,85,0
0,59,53,8
0,38,0,16
0,56,0,10
0,56,0,46
0,64,0,2
0,59,0,0
0,39,126,6
0,56,101,1
0,42,122,1
0,64,111,2
0,56,82,1
0,59,100,0
0,59,77,3
0,28,0,8
0,39,0,8
0,42,0,2
0,71,0,24
0,56,0,23
0,71,0,11
0,73,113,1
0,59,0,3
0,64,0,4
0,59,0,0
0,73,88,4
0,38,97,0
0,56,86,2
0,64,93,3
0,59,90,3
0,59,74,1
0,64,0,7
0,38,0,8
0,71,110,1
0,76,0,5
0,73,0,7
0,71,85,19
0,71,0,17
0,56,0,4
0,73,0,3
0,76,82,5
0,69,103,1
0,64,0,4
0,68,0,2
0,64,97,2
0,35,103,2
0,56,45,0
0,35,122,0
0,38,90,0
0,64,41,4
0,69,82,8
0,38,0,12
0,35,0,0
0,71,0,0
0,59,0,49
0,64,0,1
0,56,0,0
0,76,0,7
0,69,0,1
0,59,0,6
0,64,0,5
0,38,97,3
0,56,73,1
0,64,78,7
0,59,51,0
0,59,70,0
0,56,0,14
0,38,0,2
0,69,0,4
0,56,0,45
0,64,82,4
0,68,102,4
0,71,75,0
0,59,0,4
0,64,0,1
0,59,0,0
0,56,90,1
0,64,108,3
0,39,126,0
0,56,97,0
0,59,101,1
0,42,126,1
0,68,103,4
0,59,97,2
0,35,0,2
0,39,0,14
0,42,0,2
0,68,0,43
0,71,0,0
0,56,0,4
0,59,0,13
0,64,0,2
0,59,0,0
0,38,102,8
0,56,58,0
0,59,51,1
0,64,78,1
0,59,65,6
0,68,0,14
0,38,0,2
0,64,0,6
0,56,0,23
0,56,0,7
0,59,0,13
0,62,75,0
0,64,0,1
0,76,66,7
0,69,102,3
0,54,54,0
0,59,0,2
0,57,52,2
0,64,0,1
0,62,87,4
0,57,60,1
0,35,117,2
0,38,94,0
0,66,82,2
0,69,85,0
0,54,53,0
0,26,110,2
0,62,65,0
0,38,0,20
0,35,0,0
0,56,0,24
0,57,0,9
0,59,0,10
0,62,0,5
0,57,54,5
0,57,58,4
0,62,64,2
0,38,95,0
0,38,0,24
0,54,0,8
0,57,0,38
0,57,0,10
0,62,0,5
0,54,79,0
0,39,127,3
0,54,96,1
0,57,97,0
0,57,98,1
0,62,109,6
0,42,127,0
0,26,0,8
0,39,0,8
0,42,0,8
0,57,0,42
0,54,0,15
0,57,0,0
0,62,0,4
0,38,65,3
0,54,69,4
0,62,81,4
0,57,72,0
0,57,36,6
0,38,0,10
0,54,0,53
0,57,0,12
0,62,0,1
0,54,55,6
0,35,121,0
0,38,94,0
0,57,52,4
0,62,58,0
0,35,108,1
0,38,0,19
0,35,0,0
0,54,0,28
0,57,0,37
0,38,88,7
0,62,0,1
0,57,0,3
0,57,48,0
0,54,81,0
0,57,57,8
0,62,87,0
0,38,0,12
0,54,0,24
0,62,0,28
0,57,0,0
0,57,0,8
0,54,0,4
0,54,80,4
0,57,100,2
0,62,99,2
0,39,127,0
0,42,127,0
0,54,105,1
0,57,96,3
0,42,0,20
0,39,0,0
0,35,0,9
0,54,0,31
0,57,0,14
0,57,0,8
0,38,81,2
0,54,74,8
0,57,57,8
0,57,47,0
0,38,0,8
0,62,0,50
0,54,0,6
0,54,0,0
0,54,0,4
0,62,0,0
0,52,51,6
0,61,59,2
0,66,0,1
0,62,0,3
0,57,0,0
0,57,0,1
0,33,109,4
0,64,88,1
0,38,91,2
0,61,72,1
0,57,44,0
0,52,54,3
0,52,64,4
0,35,120,0
0,57,35,0
0,61,51,5
0,38,0,11
0,35,0,8
0,57,0,39
0,38,84,4
0,61,0,4
0,61,80,2
0,57,59,3
0,57,0,1
0,52,0,6
0,57,45,4
0,38,0,4
0,76,0,41
0,52,0,10
0,57,0,8
0,57,0,4
0,61,0,0
0,52,89,6
0,57,98,0
0,39,126,2
0,42,122,0
0,61,93,2
0,52,96,0
0,57,95,4
0,33,0,3
0,39,0,15
0,42,0,0
0,69,0,6
0,52,0,14
0,57,0,7
0,61,0,19
0,57,0,4
0,61,90,6
0,38,96,2
0,52,86,2
0,57,58,4
0,57,58,3
0,38,0,11
0,61,0,4
0,69,0,38
0,52,0,12
0,57,0,0
0,81,102,6
0,69,87,1
0,73,83,3
0,40,118,1
0,35,122,7
0,57,19,8
0,38,91,0
0,52,41,2
0,69,99,2
0,35,0,12
0,38,0,8
0,52,0,42
0,40,0,3
0,61,0,11
0,57,0,0
0,57,0,0
0,38,96,8
0,61,87,1
0,52,77,1
0,57,62,7
0,57,47,13
0,38,0,2
0,52,0,4
0,69,0,13
0,61,0,4
0,73,0,11
0,52,0,18
0,81,0,2
0,69,0,1
0,61,0,7
0,57,0,0
0,57,0,4
0,71,92,0
0,33,109,1
0,68,105,3
0,68,91,0
0,61,98,2
0,80,106,2
0,39,126,0
0,42,126,0
0,57,91,1
0,52,94,0
0,52,85,3
0,57,92,0
0,42,0,20
0,39,0,0
0,64,0,20
0,52,0,13
0,57,0,31
0,33,0,5
0,38,103,3
0,52,81,2
0,68,0,6
0,57,67,8
0,38,0,8
0,71,0,32
0,68,0,1
0,80,0,7
0,78,102,16
0,61,0,5
0,57,0,0
0,73,83,3
0,66,58,0
0,52,0,4
0,52,0,0
0,30,107,4
0,35,117,0
0,38,95,0
0,69,77,1
0,52,0,1
0,57,88,6
0,61,73,0
0,69,98,1
0,61,55,7
0,38,0,8
0,35,0,0
0,66,82,10
0,73,73,6
0,66,0,40
0,61,0,1
0,38,94,15
0,66,72,1
0,61,27,7
0,38,0,16
0,57,0,16
0,57,0,16
0,30,0,24
0,61,0,1
0,66,0,3
0,61,93,8
0,66,113,2
0,57,88,2
0,39,127,0
0,42,127,0
0,57,82,2
0,61,104,2
0,42,0,20
