track,note,velocity,time
0,55,112,93
0,36,119,1
0,55,127,0
0,60,126,0
0,64,122,0
0,55,0,54
0,55,113,40
0,48,110,2
0,55,0,16
0,60,0,4
0,64,0,12
0,55,0,5
0,53,97,8
0,57,127,3
0,60,127,0
0,65,127,0
0,53,0,48
0,48,0,12
0,53,98,31
0,48,112,5
0,57,0,18
0,60,0,4
0,53,0,14
0,65,0,0
0,55,127,12
0,60,126,0
0,64,127,0
0,55,106,1
0,48,0,117
0,48,112,26
0,55,0,26
0,64,0,0
0,55,106,22
0,60,0,12
0,60,105,36
0,55,0,46
0,67,126,2
0,48,102,5
0,48,0,43
0,64,103,0
0,60,0,16
0,55,0,26
0,48,103,6
0,60,110,0
0,48,0,20
0,48,109,28
0,55,124,0
0,48,0,29
0,60,0,11
0,67,0,0
0,64,0,2
0,55,0,4
0,41,105,2
0,48,0,0
0,60,117,0
0,65,105,0
0,69,111,0
0,53,113,7
0,36,0,21
0,53,0,20
0,60,0,44
0,53,102,3
0,69,0,17
0,41,0,4
0,65,0,6
0,53,0,12
0,43,107,10
0,55,108,0
0,62,97,0
0,67,111,0
0,71,101,0
0,55,0,45
0,71,0,33
0,55,107,13
0,62,0,5
0,67,0,0
0,43,0,2
0,55,0,34
0,52,102,11
0,36,116,1
0,60,99,0
0,64,83,0
0,67,109,0
0,52,0,189
0,60,0,5
0,55,112,46
0,64,0,2
0,67,0,6
0,62,117,40
0,67,113,0
0,55,0,18
0,64,116,30
0,62,0,8
0,60,127,40
0,64,0,14
0,48,105,46
0,67,0,10
0,36,0,2
0,60,0,8
0,36,116,16
0,55,121,0
0,60,118,0
0,64,101,0
0,48,0,9
0,60,103,2
0,60,0,25
0,60,104,22
0,60,0,29
0,48,127,9
0,36,0,4
0,60,105,1
0,55,0,11
0,60,0,14
0,60,0,2
0,64,0,12
0,57,111,4
0,60,119,0
0,65,122,0
0,59,103,4
0,59,0,42
0,59,103,46
0,36,109,4
0,57,0,10
0,60,0,0
0,48,0,8
0,65,0,14
0,59,0,4
0,60,109,10
0,55,127,2
0,60,127,0
0,64,127,0
0,48,125,144
0,55,0,2
0,64,0,26
0,55,108,20
0,60,0,0
0,60,103,48
0,36,0,16
0,60,0,7
0,48,106,15
0,67,127,10
0,48,0,40
0,64,78,8
0,60,0,14
0,67,0,10
0,48,102,18
0,55,0,0
0,60,107,6
0,48,0,17
0,48,105,24
0,64,0,5
0,48,0,2
0,55,123,0
0,48,0,24
0,60,0,20
0,41,124,4
0,53,109,0
0,57,126,0
0,60,127,0
0,65,113,0
0,55,0,2
0,53,0,45
0,53,104,49
0,60,0,8
0,57,0,6
0,65,0,4
0,41,0,10
0,53,0,12
0,36,121,8
0,52,106,0
0,55,127,0
0,60,127,0
0,64,127,0
0,52,0,53
0,60,0,15
0,55,0,4
0,64,0,4
0,36,0,18
0,52,105,6
0,52,0,42
0,43,118,2
0,55,113,0
0,59,101,0
0,62,116,0
0,50,103,3
0,50,0,181
0,55,0,102
0,55,106,50
0,62,0,2
0,62,105,46
0,59,0,44
0,67,125,4
0,43,0,32
0,48,106,11
0,67,0,1
0,62,0,2
0,45,127,2
0,55,0,0
0,60,112,0
0,69,112,0
0,64,125,1
0,48,0,67
0,48,101,30
0,48,0,26
0,48,108,28
0,64,0,27
0,60,0,1
0,69,0,0
0,60,112,12
0,69,121,0
0,64,124,1
0,48,0,55
0,52,104,1
0,45,0,101
0,69,0,20
0,64,0,1
0,60,0,5
0,52,0,2
0,40,116,6
0,59,121,0
0,64,123,0
0,67,120,0
0,53,103,2
0,53,0,71
0,52,109,20
0,52,0,47
0,50,102,5
0,59,0,1
0,64,0,0
0,67,0,10
0,59,114,36
0,64,118,0
0,67,127,0
0,50,0,47
0,48,103,1
0,48,0,29
0,48,101,19
0,52,117,0
0,40,0,6
0,48,0,20
0,48,109,22
0,48,0,22
0,52,0,18
0,59,0,0
0,64,0,0
0,41,111,8
0,53,110,0
0,57,119,0
0,60,127,0
0,65,122,0
0,67,0,4
0,53,0,19
0,53,105,25
0,53,0,23
0,53,101,25
0,57,0,18
0,65,0,2
0,53,0,2
0,60,0,4
0,41,0,16
0,43,118,6
0,53,102,0
0,55,119,0
0,60,120,0
0,64,96,0
0,67,126,0
0,53,0,64
0,64,0,30
0,55,101,2
0,60,0,4
0,67,0,0
0,43,0,12
0,55,0,0
0,55,0,10
0,43,127,22
0,55,127,0
0,59,127,0
0,62,127,0
0,67,127,0
0,55,108,3
0,55,0,146
0,55,0,73
0,67,0,14
0,55,104,4
0,59,0,2
0,62,0,0
0,57,104,46
0,62,104,0
0,55,107,7
0,55,0,19
0,55,0,9
0,59,81,13
0,55,104,13
0,57,0,19
0,55,127,16
0,59,0,12
0,62,0,24
0,43,0,8
0,55,0,0
0,45,118,52
0,60,117,0
0,64,104,0
0,69,99,0
0,55,0,3
0,48,107,2
0,48,0,51
0,48,109,40
0,48,0,23
0,48,103,25
0,69,0,16
0,64,0,4
0,60,0,4
0,60,127,24
0,64,106,0
0,69,117,0
0,48,0,36
0,52,108,9
0,52,0,23
0,52,109,26
0,33,94,2
0,45,0,24
0,64,0,6
0,60,0,10
0,45,110,8
0,69,0,8
0,52,0,15
0,33,0,21
0,40,85,4
0,59,115,0
0,64,107,0
0,67,115,0
0,53,106,2
0,45,0,2
0,53,0,71
0,52,102,21
0,59,0,40
0,52,0,4
0,64,0,0
0,67,0,4
0,50,103,3
0,59,127,45
0,64,127,0
0,67,123,0
0,50,0,35
0,40,0,7
0,48,108,5
0,48,0,31
0,40,73,18
0,48,105,3
0,48,0,75
0,59,0,10
0,64,0,2
0,40,0,2
0,53,107,2
0,67,0,0
0,41,119,2
0,57,127,0
0,60,127,0
0,65,127,0
0,53,0,66
0,53,109,30
0,57,0,14
0,65,0,6
0,60,0,2
0,53,0,8
0,41,0,10
0,43,102,8
0,55,117,0
0,60,125,0
0,64,114,0
0,67,121,0
0,52,111,2
0,64,0,62
0,60,0,4
0,52,0,16
0,55,0,4
0,67,0,0
0,48,104,8
0,48,0,34
0,43,0,4
0,50,104,8
0,31,127,2
0,55,127,0
0,59,127,0
0,62,127,0
0,67,127,0
0,50,0,144
0,43,110,48
0,55,0,26
0,55,100,22
0,62,0,26
0,59,0,8
0,67,0,0
0,67,127,14
0,62,102,48
0,55,0,30
0,55,104,14
0,59,80,4
0,55,127,48
0,55,0,6
0,59,0,14
0,62,0,2
0,43,0,4
0,67,0,2
0,31,0,14
0,55,0,0
0,48,101,4
0,29,112,2
0,57,115,0
0,60,127,0
0,65,113,0
0,69,120,0
0,48,0,66
0,69,0,28
0,41,121,2
0,48,108,0
0,60,0,8
0,29,0,2
0,57,0,4
0,65,0,2
0,41,0,16
0,48,0,11
0,31,118,5
0,55,122,0
0,59,116,0
0,62,127,0
0,67,126,0
0,52,102,3
0,52,0,59
0,31,0,34
0,43,107,0
0,50,101,4
0,55,0,20
0,59,0,0
0,62,0,4
0,50,0,4
0,67,0,0
0,43,0,8
0,48,105,6
0,64,100,0
0,55,112,1
0,60,109,0
0,36,127,1
0,48,101,0
0,55,127,0
0,60,127,0
0,64,127,0
0,67,127,0
0,55,115,2
0,64,107,0
0,60,113,1
0,55,0,74
0,60,0,0
0,64,0,7
0,55,0,2
0,64,0,0
0,48,0,3
0,64,84,2
0,60,0,1
0,60,107,1
0,55,82,2
0,60,85,0
0,64,0,0
0,55,101,3
0,48,94,1
0,55,0,0
0,60,0,0
0,60,0,0
0,55,0,5
0,48,0,1
0,48,0,8
0,64,74,3
0,55,78,1
0,60,95,1
0,60,78,0
0,64,96,0
0,55,96,2
0,60,0,15
0,64,0,1
0,55,0,1
0,60,0,1
0,64,0,0
0,60,112,5
0,64,111,2
0,55,114,1
0,64,106,1
0,55,0,1
0,60,113,0
0,48,101,1
0,55,110,1
0,55,0,11
0,60,0,1
0,48,0,4
0,55,0,0
0,64,0,0
0,64,0,4
0,60,90,0
0,64,91,0
0,60,0,1
0,55,83,2
0,60,99,1
0,60,0,0
0,64,0,0
0,55,105,3
0,55,0,0
0,60,0,3
0,55,0,3
0,48,83,8
0,55,94,2
0,64,75,1
0,55,74,1
0,60,79,0
0,48,0,2
0,64,0,1
0,55,0,1
0,55,0,0
0,60,0,0
0,60,108,9
0,55,106,1
0,55,85,1
0,60,85,2
0,64,84,0
0,55,0,2
0,60,0,0
0,55,0,1
0,60,0,1
0,64,0,0
0,60,109,0
0,65,114,2
0,55,114,1
0,57,113,0
0,60,118,1
0,65,116,0
0,65,0,9
0,55,0,5
0,60,0,0
0,60,0,0
0,57,0,5
0,65,0,0
0,57,74,12
0,65,75,0
0,60,74,1
0,57,0,1
0,65,0,2
0,60,0,1
0,65,103,9
0,65,116,1
0,60,116,1
0,57,97,3
0,60,107,1
0,55,113,1
0,60,0,7
0,57,0,3
0,60,0,5
0,55,0,2
0,65,0,1
0,60,114,1
0,65,0,1
0,48,101,2
0,55,102,0
0,55,117,1
0,60,113,1
0,64,112,0
0,64,95,1
0,60,0,9
0,48,0,2
0,55,0,0
0,55,0,7
0,60,0,1
0,48,91,2
0,64,0,0
0,55,101,3
0,64,81,1
0,48,0,2
0,64,0,0
0,55,78,1
0,60,81,0
0,64,0,0
0,55,0,1
0,55,0,3
0,60,0,0
0,55,94,3
0,60,89,0
0,60,94,2
0,64,90,1
0,55,91,1
0,60,0,0
0,55,0,2
0,64,0,1
0,55,0,1
0,60,0,0
0,60,107,14
0,64,104,0
0,55,107,1
0,64,112,0
0,55,112,1
0,60,114,1
0,48,104,1
0,60,0,4
0,55,0,1
0,64,0,6
0,55,0,1
0,64,0,0
0,60,0,2
0,48,0,1
0,60,79,3
0,55,102,2
0,64,80,0
0,55,84,2
0,60,0,0
0,48,100,1
0,60,104,0
0,64,0,1
0,55,0,2
0,55,0,0
0,48,0,3
0,60,0,0
0,55,76,13
0,64,71,0
0,60,69,1
0,60,99,2
0,64,93,2
0,55,96,1
0,55,0,13
0,64,0,0
0,60,0,1
0,60,0,0
0,64,0,2
0,60,113,4
0,48,97,1
0,64,109,1
0,55,0,2
0,55,116,0
0,55,114,0
0,60,111,2
0,64,102,1
0,48,0,3
0,55,0,1
0,60,0,0
0,55,0,1
0,64,0,3
0,60,0,6
0,64,0,1
0,55,104,2
0,55,87,1
0,60,102,1
0,60,86,0
0,64,88,1
0,55,0,1
0,55,0,1
0,60,0,0
0,60,0,2
0,64,0,0
0,55,72,4
0,60,75,0
0,64,75,1
0,48,86,1
0,55,0,2
0,60,0,0
0,55,95,1
0,64,0,0
0,48,0,3
0,55,0,3
0,55,112,4
0,60,111,1
0,55,89,1
0,60,87,2
0,55,0,2
0,55,0,0
0,64,93,0
0,60,0,1
0,60,0,1
0,64,0,2
0,55,118,14
0,57,113,1
0,65,113,0
0,60,123,1
0,60,111,0
0,65,111,1
0,67,0,2
0,64,0,2
0,60,0,4
0,65,0,0
0,55,0,1
0,36,0,1
0,55,0,0
0,60,0,0
0,60,0,4
0,57,0,1
0,65,0,0
0,60,80,5
0,65,74,1
0,57,80,1
0,57,0,2
0,60,0,0
0,65,0,1
0,55,111,35
0,60,108,0
0,57,98,3
0,65,110,0
0,60,110,1
0,65,105,0
0,60,0,28
0,57,0,3
0,55,0,1
0,60,0,4
0,64,99,6
0,64,110,1
0,65,0,0
0,55,94,1
0,55,115,2
0,60,110,0
0,65,0,1
0,48,105,1
0,60,111,0
0,60,0,81
0,55,0,1
0,48,0,3
0,64,0,1
0,55,0,2
0,48,85,6
0,55,83,0
0,60,0,0
0,60,83,0
0,64,0,0
0,64,79,1
0,55,101,1
0,55,0,2
0,60,0,0
0,64,0,1
0,48,0,1
0,55,0,2
0,55,94,37
0,60,92,2
0,55,87,1
0,55,0,1
0,60,88,1
0,64,93,0
0,60,0,3
0,55,0,1
0,60,0,0
0,64,0,0
0,64,1,34
0,64,109,0
0,60,114,3
0,64,108,1
0,64,111,0
0,48,102,2
0,55,112,0
0,55,108,0
0,70,69,1
0,60,115,1
0,70,0,3
0,70,34,44
0,70,0,4
0,64,0,4
0,64,0,0
0,60,0,18
0,55,0,3
0,64,0,4
0,55,0,2
0,64,0,0
0,48,0,5
0,64,1,1
0,64,116,0
0,60,0,1
0,55,79,1
0,55,0,4
0,48,98,1
0,60,81,0
0,64,83,0
0,70,65,0
0,55,107,2
0,60,102,1
0,60,0,1
0,64,0,0
0,70,0,0
0,48,0,2
0,55,0,2
0,60,0,1
0,64,0,9
0,64,0,0
0,60,102,27
0,64,72,0
0,55,96,1
0,60,79,1
0,64,1,0
0,64,117,0
0,70,35,1
0,55,78,2
0,64,94,0
0,70,0,2
0,60,0,25
0,60,0,6
0,64,0,0
0,55,0,5
0,64,0,0
0,55,109,2
0,60,116,0
0,55,0,2
0,64,114,3
0,60,116,1
0,64,104,0
0,70,75,0
0,55,117,2
0,48,104,1
0,70,0,1
0,64,0,2
0,64,0,0
0,70,48,42
0,70,0,4
0,64,1,1
0,64,108,0
0,55,0,25
0,60,0,4
0,55,0,5
0,48,0,2
0,64,0,0
0,55,90,3
0,60,0,0
0,64,0,0
0,64,91,0
0,55,105,2
0,55,0,2
0,64,0,0
0,70,74,0
0,60,88,1
0,60,103,1
0,55,0,2
0,70,0,0
0,60,0,1
0,60,0,3
0,55,72,36
0,60,73,1
0,55,89,2
0,55,0,1
0,64,80,0
0,70,33,0
0,48,86,1
0,60,0,0
0,64,0,3
0,70,0,0
0,55,0,1
0,48,0,2
0,64,0,4
0,64,0,0
0,55,111,33
0,60,110,1
0,60,89,0
0,64,84,2
0,55,84,1
0,70,73,0
0,60,0,1
0,55,0,1
0,60,0,1
0,64,0,0
0,55,0,1
0,70,0,0
0,65,1,1
0,65,108,0
0,57,109,36
0,65,117,3
0,60,116,1
0,70,37,3
0,65,115,1
0,55,119,1
0,60,117,0
0,70,0,2
0,65,0,24
0,57,0,1
0,65,0,1
0,65,0,0
0,60,0,1
0,60,0,1
0,65,0,0
0,55,0,1
0,64,1,11
0,64,117,0
0,65,72,3
0,70,64,1
0,57,77,1
0,60,73,1
0,57,0,1
0,65,0,0
0,70,0,1
0,60,0,2
0,64,0,25
0,64,0,0
0,60,108,14
0,57,95,2
0,62,1,1
0,62,110,0
0,70,34,0
0,65,110,2
0,60,113,1
0,65,105,0
0,70,0,1
0,55,111,1
0,60,0,24
0,57,0,2
0,60,0,8
0,55,0,2
0,60,115,4
0,55,119,1
0,64,96,0
0,65,0,0
0,48,103,1
0,55,94,1
0,64,113,0
0,70,70,0
0,60,116,1
0,65,0,1
0,70,0,2
0,62,0,36
0,62,0,0
0,60,1,8
0,60,101,0
0,70,38,0
0,70,0,4
0,55,0,30
0,60,0,0
0,48,0,2
0,64,0,6
0,55,0,2
0,60,0,1
0,55,95,1
0,60,0,0
0,60,0,0
0,48,89,1
0,55,83,1
0,70,67,0
0,60,77,1
0,64,0,2
0,55,0,1
0,55,0,0
0,64,78,0
0,70,0,0
0,48,0,1
0,60,0,0
0,64,0,3
0,55,93,38
0,60,93,2
0,60,95,0
0,70,30,0
0,55,89,1
0,55,0,1
0,64,88,1
0,60,0,1
0,70,0,0
0,60,0,2
0,55,0,1
0,64,0,0
0,64,115,39
0,60,114,2
0,64,108,0
0,67,1,0
0,67,123,0
0,70,71,0
0,48,99,1
0,55,111,0
0,60,116,0
0,55,112,1
0,70,0,2
0,67,0,13
0,67,0,0
0,67,1,28
0,67,116,0
0,70,36,3
0,70,0,4
0,67,0,11
0,67,0,0
0,60,0,15
0,55,0,2
0,64,0,2
0,55,0,3
0,64,0,1
0,67,1,3
0,67,113,0
0,48,0,1
0,60,0,0
0,60,105,3
0,55,104,2
0,70,73,1
0,48,95,2
0,55,84,0
0,60,83,0
0,60,0,1
0,64,82,1
0,70,0,0
0,55,0,1
0,55,0,1
0,60,0,0
0,48,0,2
0,64,0,0
0,67,0,10
0,67,0,0
0,64,76,26
0,65,1,0
0,65,108,0
0,55,100,3
