track,note,velocity,time
2,33,100,143
2,33,0,550
2,33,90,122
2,33,0,84
2,33,90,108
2,33,0,618
2,33,82,54
2,33,0,592
2,33,94,80
2,33,0,96
2,33,90,96
2,33,0,592
2,28,94,80
2,28,0,566
2,28,94,106
2,28,0,92
2,28,86,100
2,28,0,578
2,28,94,94
2,28,0,602
2,28,100,70
2,28,0,88
2,28,94,104
2,28,0,550
2,33,100,122
2,33,0,550
2,33,90,122
2,33,0,84
2,33,90,108
2,33,0,618
2,33,82,54
2,33,0,592
2,33,94,80
2,33,0,96
2,33,90,96
2,33,0,592
2,28,94,80
2,28,0,566
2,28,94,106
2,28,0,92
2,28,86,100
2,28,0,578
2,28,94,94
2,28,0,602
2,28,100,70
2,28,0,88
2,28,94,104
2,28,0,550
2,33,100,122
2,33,0,550
2,33,90,122
2,33,0,84
2,33,90,108
2,33,0,618
2,33,82,54
2,33,0,592
2,33,94,80
2,33,0,96
2,33,90,96
2,33,0,592
2,28,94,80
2,28,0,566
2,28,94,106
2,28,0,92
2,28,86,100
2,28,0,578
2,28,94,94
2,28,0,602
2,28,100,70
2,28,0,88
2,28,94,104
2,28,0,550
2,33,100,122
2,33,0,550
2,33,90,122
2,33,0,84
2,33,90,108
2,33,0,618
2,33,82,54
2,33,0,592
2,33,94,80
2,33,0,96
2,33,90,96
2,33,0,592
2,28,94,80
2,28,0,566
2,28,94,106
2,28,0,92
2,28,86,100
2,28,0,578
2,28,94,94
2,28,0,602
2,28,100,70
2,28,0,88
2,28,94,104
2,28,0,550
2,25,86,122
2,25,0,564
2,25,86,108
2,25,0,68
2,25,90,124
2,25,0,670
2,30,86,2
2,30,0,606
2,30,90,66
2,30,0,72
2,30,90,120
2,30,0,670
2,33,82,2
2,33,0,582
2,33,82,90
2,33,0,60
2,33,82,132
2,33,0,566
2,28,82,106
2,28,0,582
2,28,94,90
2,28,0,74
2,28,90,118
2,28,0,582
2,25,86,90
2,25,0,564
2,25,86,108
2,25,0,68
2,25,90,124
2,25,0,670
2,30,86,2
2,30,0,606
2,30,90,66
2,30,0,72
2,30,90,120
2,30,0,670
2,33,82,2
2,33,0,582
2,33,82,90
2,33,0,60
2,33,82,132
2,33,0,566
2,28,82,106
2,28,0,582
2,28,94,90
2,28,0,74
2,28,90,118
2,28,0,582
2,28,82,90
2,28,0,582
2,28,94,90
2,28,0,74
2,28,90,118
2,28,0,582
2,33,100,90
2,33,0,550
2,33,90,122
2,33,0,84
2,33,90,108
2,33,0,618
2,33,82,54
2,33,0,592
2,33,94,80
2,33,0,96
2,33,90,96
2,33,0,592
2,28,94,80
2,28,0,566
2,28,94,106
2,28,0,92
2,28,86,100
2,28,0,578
2,28,94,94
2,28,0,602
2,28,100,70
2,28,0,88
2,28,94,104
2,28,0,550
2,33,100,122
2,33,0,550
2,33,90,122
2,33,0,84
2,33,90,108
2,33,0,618
2,33,82,54
2,33,0,592
2,33,94,80
2,33,0,96
2,33,90,96
2,33,0,592
2,28,94,80
2,28,0,566
2,28,94,106
2,28,0,92
2,28,86,100
2,28,0,578
2,28,94,94
2,28,0,602
2,28,100,70
2,28,0,88
2,28,94,104
2,28,0,550
2,25,86,122
2,25,0,564
2,25,86,108
2,25,0,68
2,25,90,124
2,25,0,670
2,30,86,2
2,30,0,606
2,30,90,66
2,30,0,72
2,30,90,120
2,30,0,670
2,33,82,2
2,33,0,582
2,33,82,90
2,33,0,60
2,33,82,132
2,33,0,566
2,28,82,106
2,28,0,582
2,28,94,90
2,28,0,74
2,28,90,118
2,28,0,582
2,25,86,90
2,25,0,564
2,25,86,108
2,25,0,68
2,25,90,124
2,25,0,670
2,30,86,2
2,30,0,606
2,30,90,66
2,30,0,72
2,30,90,120
2,30,0,670
2,33,106,2
2,33,0,606
2,33,106,66
2,33,0,108
2,33,100,180
2,33,0,550
2,30,86,26
2,30,0,754
2,35,86,14
2,35,0,352
2,35,90,32
2,35,0,286
2,28,94,98
2,28,0,594
2,28,86,78
2,28,0,56
2,28,106,136
2,28,0,636
2,26,94,36
2,26,0,670
2,38,78,2
2,38,0,52
2,26,86,140
2,26,0,670
2,33,82,2
2,33,0,580
2,33,100,92
2,33,0,54
2,33,106,138
2,33,0,670
2,31,86,2
2,31,0,578
2,31,100,94
2,31,0,62
2,31,100,130
2,31,0,602
2,28,94,70
2,28,0,594
2,28,86,78
2,28,0,56
2,28,106,136
2,28,0,636
2,26,94,36
2,26,0,670
2,38,78,2
2,38,0,52
2,26,86,140
2,26,0,670
2,33,82,2
2,33,0,580
2,33,100,92
2,33,0,54
2,33,106,138
2,33,0,670
2,31,86,2
2,31,0,578
2,31,100,94
2,31,0,62
2,31,100,130
2,31,0,602
2,28,86,70
2,28,0,1146
2,31,100,6
2,31,0,166
2,30,68,26
2,30,0,190
2,28,82,2
2,28,0,1134
2,31,100,18
2,31,0,184
2,30,82,8
2,30,0,190
2,28,86,2
2,28,0,1138
2,31,86,14
2,31,0,188
2,30,78,4
2,30,0,184
2,28,86,8
2,28,0,1426
2,33,100,110
2,33,0,550
2,33,90,122
2,33,0,84
2,33,90,108
2,33,0,618
2,33,82,54
2,33,0,592
2,33,94,80
2,33,0,96
2,33,90,96
2,33,0,592
2,28,94,80
2,28,0,566
2,28,94,106
2,28,0,92
2,28,86,100
2,28,0,578
2,28,94,94
2,28,0,602
2,28,100,70
2,28,0,88
2,28,94,104
2,28,0,550
2,33,100,122
2,33,0,550
2,33,90,122
2,33,0,84
2,33,90,108
2,33,0,618
2,33,82,54
2,33,0,592
2,33,94,80
2,33,0,96
2,33,90,96
2,33,0,592
2,28,94,80
2,28,0,566
2,28,94,106
2,28,0,92
2,28,86,100
2,28,0,578
2,28,94,94
2,28,0,602
2,28,100,70
2,28,0,88
2,28,94,104
2,28,0,550
2,25,86,122
2,25,0,564
2,25,86,108
2,25,0,68
2,25,90,124
2,25,0,670
2,30,86,2
2,30,0,606
2,30,90,66
2,30,0,72
2,30,90,120
2,30,0,670
2,33,82,2
2,33,0,582
2,33,82,90
2,33,0,60
2,33,82,132
2,33,0,566
2,28,82,106
2,28,0,582
2,28,94,90
2,28,0,74
2,28,90,118
2,28,0,582
2,25,86,90
2,25,0,564
2,25,86,108
2,25,0,68
2,25,90,124
2,25,0,670
2,30,86,2
2,30,0,606
2,30,90,66
2,30,0,72
2,30,90,120
2,30,0,670
2,33,106,2
2,33,0,606
2,33,106,66
2,33,0,108
2,33,100,180
2,33,0,550
2,30,86,26
2,30,0,754
2,35,86,14
2,35,0,352
2,35,90,32
2,35,0,286
2,28,94,98
2,28,0,594
2,28,86,78
2,28,0,56
2,28,106,136
2,28,0,636
2,26,94,36
2,26,0,670
2,38,78,2
2,38,0,52
2,26,86,140
2,26,0,670
2,33,82,2
2,33,0,580
2,33,100,92
2,33,0,54
2,33,106,138
2,33,0,670
2,30,94,2
2,30,0,752
2,35,94,16
2,35,0,268
2,35,100,20
2,35,0,34
2,35,100,62
2,35,0,356
2,28,94,28
2,28,0,594
2,28,86,78
2,28,0,56
2,28,106,136
2,28,0,636
2,26,94,36
2,26,0,670
2,38,78,2
2,38,0,52
2,26,86,140
2,26,0,670
2,33,82,2
2,33,0,580
2,33,100,92
2,33,0,54
2,33,106,138
2,33,0,670
2,31,86,2
2,31,0,578
2,31,100,94
2,31,0,62
2,31,100,130
2,31,0,602
2,28,94,70
2,28,0,594
2,28,86,78
2,28,0,56
2,28,106,136
2,28,0,636
2,26,94,36
2,26,0,670
2,38,78,2
2,38,0,52
2,26,86,140
2,26,0,670
2,33,82,2
2,33,0,580
2,33,100,92
2,33,0,54
2,33,106,138
2,33,0,670
2,31,86,2
2,31,0,578
2,31,100,94
2,31,0,62
2,31,100,130
2,31,0,602
2,28,86,70
2,28,0,1146
2,31,100,6
2,31,0,166
2,30,68,26
2,30,0,190
2,28,82,2
2,28,0,1134
2,31,100,18
2,31,0,184
2,30,82,8
2,30,0,190
2,28,86,2
2,28,0,1138
2,31,86,14
2,31,0,188
2,30,78,4
2,30,0,184
2,28,100,8
2,28,0,3030
3,64,89,41808
3,68,59,0
3,71,75,0
3,68,0,881
3,64,0,4
3,66,97,75
3,68,105,192
3,66,0,5
3,64,55,187
3,68,0,9
3,64,0,1138
3,66,79,5
3,66,0,185
3,68,79,7
3,71,0,109
3,68,0,10
3,64,89,3337
3,68,59,0
3,71,75,0
3,68,0,881
3,64,0,4
3,66,97,75
3,68,105,192
3,66,0,5
3,64,55,187
3,68,0,9
3,64,0,1138
3,66,79,5
3,66,0,185
3,68,79,7
3,71,0,109
3,68,0,10
3,64,109,12361
3,64,0,1147
3,66,101,5
3,66,0,351
3,64,97,33
3,64,0,763
3,68,97,5
3,68,0,377
3,71,93,7
3,71,0,23
3,64,101,38
3,64,0,1147
3,66,97,5
3,66,0,285
3,67,103,3
3,67,0,45
3,66,97,3
3,66,0,45
3,64,93,3
3,64,0,763
3,68,101,773
3,71,105,384
3,68,0,5
3,71,0,338
3,64,111,41
3,59,101,384
3,64,0,7
3,62,93,377
3,59,0,5
3,62,0,1142
3,66,97,5
3,66,0,371
3,64,101,13
3,64,0,1147
3,66,105,5
3,66,0,285
3,67,97,3
3,66,89,48
3,66,0,45
3,67,0,0
3,64,87,3
3,64,0,1531
3,40,93,5
3,43,105,1104
3,40,0,43
3,55,111,5
3,43,0,147
3,42,111,45
3,54,101,0
3,55,0,27
3,42,0,164
3,54,0,0
3,40,65,1
3,52,97,0
3,40,0,1147
3,52,0,0
3,43,105,5
3,55,111,0
3,43,0,179
3,42,111,13
3,54,105,0
3,55,0,13
3,42,0,176
3,40,65,3
3,52,89,0
3,54,0,5
3,40,0,1142
3,52,0,0
3,43,101,5
3,55,101,0
3,43,0,169
3,55,0,22
3,42,101,1
3,54,93,0
3,52,79,192
3,42,0,5
3,54,0,8
3,52,0,1414
3,64,89,3373
3,68,59,0
3,71,75,0
3,68,0,881
3,64,0,4
3,66,97,75
3,68,105,192
3,66,0,5
3,64,55,187
3,68,0,9
3,64,0,1138
3,66,79,5
3,66,0,185
3,68,79,7
3,71,0,109
3,68,0,10
3,64,89,3337
3,68,59,0
3,71,75,0
3,68,0,881
3,64,0,4
3,66,97,75
3,68,105,192
3,66,0,5
3,64,55,187
3,68,0,9
3,64,0,1138
3,66,79,5
3,66,0,185
3,68,79,7
3,71,0,109
3,68,0,10
3,59,57,12361
3,64,61,0
3,59,0,1531
3,64,0,0
3,62,59,5
3,66,71,0
3,62,0,1531
3,66,0,0
3,61,71,5
3,64,65,0
3,61,0,1531
3,64,0,0
3,59,59,5
3,64,75,0
3,59,0,763
3,64,0,0
3,57,75,5
3,64,79,0
3,57,0,345
3,64,0,4
3,57,79,35
3,63,65,0
3,57,0,301
3,63,0,16
3,64,109,67
3,64,0,1147
3,66,101,5
3,66,0,351
3,64,97,33
3,64,0,763
3,68,97,5
3,68,0,377
3,71,93,7
3,71,0,23
3,64,101,38
3,64,0,1147
3,66,97,5
3,66,0,285
3,67,103,3
3,67,0,45
3,66,97,3
3,66,0,45
3,64,93,3
3,64,0,1531
3,68,101,5
3,71,105,384
3,68,0,5
3,71,0,338
3,64,111,41
3,59,101,384
3,64,0,7
3,62,93,377
3,59,0,5
3,62,0,1142
3,66,97,5
3,66,0,371
3,64,101,13
3,64,0,1147
3,66,105,5
3,66,0,285
3,67,97,3
3,67,0,45
3,66,89,3
3,66,0,45
3,64,83,3
3,57,97,1056
3,69,97,0
3,69,0,95
3,59,89,1
3,71,101,0
3,57,0,5
3,59,0,166
3,62,93,21
3,74,97,0
3,71,0,9
3,74,0,146
3,62,0,12
3,64,0,0
3,40,93,25
3,43,105,1104
3,40,0,43
3,55,111,5
3,43,0,147
3,42,111,45
3,54,101,0
3,55,0,27
3,42,0,164
3,54,0,0
3,40,65,1
3,52,97,0
3,40,0,1147
3,52,0,0
3,43,105,5
3,55,111,0
3,43,0,179
3,42,111,13
3,54,105,0
3,55,0,13
3,42,0,176
3,40,65,3
3,52,89,0
3,54,0,5
3,40,0,1142
3,52,0,0
3,43,101,5
3,55,101,0
3,43,0,169
3,55,0,22
3,42,101,1
3,54,93,0
3,52,79,192
3,42,0,5
3,54,0,8
3,52,0,1414
4,63,100,12624
4,63,0,42
4,63,95,54
4,63,0,60
4,63,95,36
4,63,0,56
4,63,95,40
4,63,0,58
4,63,102,38
4,63,0,70
4,63,102,26
4,63,0,140
4,63,102,52
4,63,0,152
4,63,104,40
4,63,0,156
4,61,102,36
4,61,0,184
4,63,93,296
4,63,0,44
4,63,102,52
4,63,0,48
4,63,104,48
4,63,0,50
4,63,102,46
4,63,0,46
4,63,108,50
4,63,0,58
4,63,102,38
4,63,0,162
4,61,102,30
4,61,0,162
4,66,102,30
4,66,0,268
4,64,102,20
4,64,0,84
4,64,104,108
4,64,0,148
4,64,104,44
4,64,0,84
4,64,104,12
4,64,0,162
4,64,102,30
4,64,0,144
4,64,102,48
4,56,95,192
4,64,0,6
4,56,0,152
4,59,100,34
4,59,0,516
4,63,100,1692
4,63,0,42
4,63,95,54
4,63,0,60
4,63,95,36
4,63,0,56
4,63,95,40
4,63,0,58
4,63,102,38
4,63,0,70
4,63,102,26
4,63,0,140
4,63,102,52
4,63,0,152
4,63,104,40
4,63,0,156
4,61,102,36
4,61,0,184
4,63,93,296
4,63,0,44
4,63,102,52
4,63,0,48
4,63,104,48
4,63,0,50
4,63,102,46
4,63,0,46
4,63,108,50
4,63,0,58
4,63,102,38
4,63,0,162
4,61,102,30
4,61,0,162
4,66,102,30
4,66,0,268
4,64,102,20
4,64,0,84
4,64,104,108
4,64,0,148
4,64,104,44
4,64,0,84
4,64,104,12
4,64,0,162
4,64,102,30
4,64,0,144
4,64,102,48
4,56,95,192
4,64,0,6
4,56,0,152
4,59,100,34
4,59,0,516
4,59,87,1308
4,59,0,46
4,59,95,50
4,59,0,54
4,59,102,42
4,59,0,112
4,59,93,80
4,59,0,54
4,59,95,42
4,59,0,528
4,59,95,62
4,59,0,118
4,59,95,40
4,59,0,92
4,59,100,40
4,59,0,108
4,59,100,28
4,59,0,98
4,59,104,34
4,59,0,66
4,58,87,44
4,58,0,136
4,58,93,40
4,58,0,72
4,58,95,36
4,58,0,158
4,64,97,20
4,64,0,152
4,64,95,48
4,64,0,158
4,64,97,40
4,64,0,460
4,57,93,398
4,57,0,64
4,57,95,32
4,57,0,76
4,57,108,20
4,57,0,74
4,57,102,22
4,57,0,68
4,57,108,28
4,57,0,66
4,57,97,30
4,57,0,144
4,57,95,48
4,57,0,152
4,59,102,40
4,59,0,280
4,57,100,8
4,57,0,158
4,56,100,34
4,56,0,120
4,56,100,72
4,56,0,74
4,56,95,22
4,56,0,154
4,64,102,38
4,64,0,178
4,64,102,14
4,64,0,224
4,64,102,64
4,64,0,180
4,66,102,12
4,66,0,146
4,68,102,46
4,68,0,70
4,68,102,122
4,68,0,150
4,59,102,42
4,59,0,68
4,59,102,28
4,59,0,460
4,59,95,130
4,59,0,118
4,59,95,40
4,59,0,92
4,59,100,40
4,59,0,108
4,59,100,28
4,59,0,98
4,59,104,34
4,59,0,66
4,58,87,44
4,58,0,136
4,58,93,40
4,58,0,72
4,58,95,36
4,58,0,158
4,64,97,20
4,64,0,152
4,64,95,48
4,64,0,158
4,64,97,40
4,64,0,460
4,57,93,398
4,57,0,64
4,57,95,32
4,57,0,76
4,57,108,20
4,57,0,74
4,57,102,22
4,57,0,68
4,57,108,28
4,57,0,66
4,57,97,30
4,57,0,144
4,57,95,48
4,57,0,152
4,59,102,40
4,59,0,280
4,57,100,8
4,57,0,158
4,56,104,34
4,56,0,134
4,56,93,58
4,56,0,66
4,56,102,30
4,56,0,134
4,64,102,58
4,64,0,208
4,64,102,80
4,64,0,146
4,64,95,46
4,64,0,112
4,66,97,80
4,64,93,384
4,66,0,2
4,64,0,1304
4,63,100,422
4,63,0,42
4,63,95,54
4,63,0,60
4,63,95,36
4,63,0,56
4,63,95,40
4,63,0,58
4,63,102,38
4,63,0,70
4,63,102,26
4,63,0,140
