track,note,velocity,time
0,59,117,0
0,42,63,0
0,59,89,0
0,62,96,0
0,66,89,0
0,47,45,0
0,54,44,0
0,59,45,0
0,62,45,0
0,80,45,8
0,82,45,14
0,70,55,9
0,42,50,39
0,80,44,8
0,82,48,14
0,70,58,9
0,44,127,39
0,80,45,8
0,82,49,14
0,70,59,9
0,54,82,39
0,42,33,0
0,80,45,8
0,82,43,2
0,70,53,9
0,42,67,5
0,80,44,3
0,82,44,7
0,70,54,9
0,62,115,24
0,42,54,0
0,80,45,8
0,82,49,14
0,70,59,9
0,44,126,39
0,80,44,8
0,82,48,14
0,70,58,3
0,42,37,39
0,80,46,8
0,82,42,14
0,70,52,9
0,61,44,5
0,45,45,3
0,61,115,39
0,42,68,0
0,45,77,0
0,59,80,0
0,61,83,0
0,66,82,0
0,80,47,8
0,82,45,11
0,70,55,9
0,42,54,0
0,80,47,8
0,82,49,14
0,70,59,9
0,54,70,39
0,44,127,0
0,80,46,8
0,82,48,14
0,70,58,9
0,54,75,39
0,42,39,0
0,80,46,8
0,82,42,14
0,70,52,9
0,42,69,4
0,80,47,2
0,82,45,1
0,70,55,5
0,64,116,19
0,42,54,0
0,80,47,8
0,82,49,14
0,70,59,1
0,54,78,39
0,44,127,0
0,80,46,8
0,82,48,14
0,70,58,9
0,42,38,39
0,80,46,8
0,82,42,14
0,70,52,0
0,62,44,12
0,43,44,5
0,62,117,32
0,42,63,0
0,43,70,0
0,59,85,0
0,62,97,0
0,66,88,0
0,55,45,0
0,66,45,0
0,80,45,8
0,82,45,7
0,70,55,9
0,42,51,39
0,80,44,8
0,82,48,14
0,70,58,9
0,54,75,7
0,44,126,0
0,80,45,8
0,82,49,14
0,70,59,9
0,54,72,39
0,42,32,0
0,80,45,8
0,82,43,14
0,70,53,9
0,42,66,2
0,80,44,5
0,82,44,4
0,70,54,3
0,66,114,7
0,42,55,0
0,80,45,8
0,82,49,14
0,70,59,9
0,80,44,0
0,54,75,30
0,44,127,0
0,80,44,8
0,82,48,11
0,70,58,9
0,42,36,39
0,80,47,8
0,82,42,14
0,70,52,9
0,64,44,0
0,61,44,1
0,42,45,2
0,59,45,9
0,57,44,4
0,64,113,15
0,42,69,0
0,42,88,0
0,57,63,0
0,59,93,0
0,64,76,0
0,80,47,7
0,82,45,14
0,70,55,9
0,42,55,39
0,80,46,8
0,82,49,14
0,70,59,9
0,44,126,38
0,80,46,8
0,82,48,14
0,70,58,9
0,42,38,39
0,80,47,8
0,82,42,14
0,70,52,9
0,69,112,3
0,42,69,0
0,80,47,1
0,82,45,5
0,70,55,9
0,42,54,39
0,80,46,8
0,82,49,14
0,70,59,9
0,44,126,39
0,80,46,8
0,82,48,14
0,70,58,9
0,42,38,39
0,80,47,8
0,82,42,4
0,70,52,5
0,66,44,5
0,62,45,9
0,59,44,1
0,67,45,0
0,40,45,2
0,67,110,0
0,42,63,0
0,40,92,0
0,59,77,0
0,62,96,0
0,67,89,0
0,80,44,8
0,82,45,5
0,70,55,9
0,42,51,15
0,80,45,8
0,82,48,14
0,70,58,9
0,44,127,32
0,80,45,8
0,82,49,14
0,70,59,9
0,42,32,39
0,80,44,8
0,82,43,14
0,70,53,9
0,42,66,3
0,80,45,1
0,82,44,14
0,70,54,9
0,42,55,39
0,80,44,8
0,82,49,14
0,70,59,9
0,44,127,39
0,80,44,1
0,82,48,9
0,70,58,9
0,42,37,39
0,80,47,8
0,82,42,14
0,70,52,9
0,57,44,26
0,38,45,5
0,61,44,1
0,66,109,7
0,42,68,0
0,38,97,0
0,57,54,0
0,61,97,0
0,66,82,0
0,80,47,8
0,82,45,11
0,70,55,9
0,42,54,39
0,80,46,8
0,82,49,14
0,70,59,9
0,44,126,39
0,80,46,8
0,82,48,14
0,70,58,9
0,42,39,30
0,80,47,8
0,82,42,14
0,70,52,9
0,42,68,3
0,80,47,1
0,82,45,5
0,70,55,9
0,61,106,39
0,42,55,0
0,80,46,8
0,82,49,14
0,70,59,9
0,44,126,39
0,80,46,8
0,82,48,14
0,70,58,9
0,42,39,24
0,80,47,8
0,82,42,14
0,70,52,9
0,59,44,7
0,64,45,5
0,37,45,9
0,55,44,3
0,64,107,20
0,42,62,0
0,37,82,0
0,55,89,0
0,59,93,0
0,64,84,0
0,80,44,8
0,82,45,14
0,70,55,9
0,42,51,39
0,80,45,8
0,82,48,14
0,70,58,9
0,44,127,39
0,80,45,8
0,82,49,2
0,70,59,9
0,42,32,39
0,80,44,8
0,82,43,14
0,70,53,9
0,42,66,3
0,80,45,1
0,82,44,5
0,70,54,4
0,42,55,39
0,80,44,8
0,82,49,14
0,70,59,9
0,80,44,0
0,44,127,39
0,80,45,8
0,82,48,11
0,70,58,9
0,42,37,39
0,80,47,8
0,82,42,14
0,70,52,5
0,62,44,2
0,57,45,4
0,58,45,5
0,42,44,5
0,42,68,4
0,80,46,3
0,82,45,14
0,70,55,9
0,42,54,13
0,42,88,0
0,57,89,0
0,58,89,0
0,62,88,0
0,80,46,8
0,82,49,4
0,70,59,9
0,44,126,3
0,80,47,1
0,82,48,5
0,70,58,4
0,42,39,3
0,80,47,1
0,82,42,5
0,70,52,4
0,42,69,2
0,42,92,0
0,57,93,0
0,58,92,0
0,62,93,0
0,80,46,0
0,82,45,4
0,70,55,4
0,42,54,23
0,80,46,8
0,82,49,14
0,70,59,9
0,44,126,39
0,80,47,8
0,82,48,14
0,70,58,9
0,42,38,39
0,80,46,8
0,82,42,14
0,70,52,9
0,66,44,8
0,59,45,1
0,62,44,0
0,47,45,2
0,59,105,2
0,83,61,0
0,42,63,0
0,47,81,0
0,59,84,0
0,62,101,0
0,66,88,0
0,80,45,8
0,82,45,14
0,70,55,9
0,42,50,39
0,80,45,8
0,82,48,14
0,70,58,9
0,44,127,39
0,80,44,8
0,82,49,14
0,70,59,9
0,62,104,39
0,42,33,0
0,80,45,8
0,82,43,14
0,70,53,9
0,42,67,4
0,80,44,2
0,82,44,1
0,70,54,9
0,42,54,39
0,80,44,8
0,82,49,14
0,70,59,9
0,44,126,39
0,80,45,8
0,82,48,14
0,70,58,9
0,42,37,25
0,80,47,8
0,82,42,14
0,70,52,9
0,61,45,5
0,45,44,3
0,61,105,0
0,42,68,0
0,45,74,0
0,59,85,0
0,61,89,0
0,66,82,0
0,80,46,3
0,82,45,14
0,70,55,9
0,42,54,39
0,80,46,8
0,82,49,14
0,70,59,9
0,44,127,39
0,80,47,8
0,82,48,7
0,70,58,9
0,64,104,39
0,42,39,0
0,80,47,8
0,82,42,14
0,70,52,9
0,42,69,4
0,81,62,1
0,80,46,2
0,82,45,14
0,70,55,6
0,42,54,39
0,80,46,8
0,82,49,14
0,70,59,9
0,44,127,39
0,80,47,8
0,82,48,14
0,70,58,9
0,42,38,23
0,80,46,8
0,82,42,14
0,70,52,9
0,62,45,12
0,43,44,8
0,78,59,15
0,42,63,13
0,43,74,0
0,59,77,0
0,62,97,0
0,66,88,0
0,80,45,7
0,82,45,14
0,70,55,1
0,42,51,4
0,80,45,2
0,82,48,1
0,70,58,5
0,44,126,4
0,80,44,2
0,82,49,1
0,70,59,5
0,62,98,4
0,42,32,0
0,80,45,2
0,82,43,1
0,70,53,5
0,66,101,4
0,42,66,0
0,80,44,2
0,82,44,6
0,70,54,9
0,62,95,8
0,42,55,0
0,80,44,2
0,82,49,14
0,70,59,9
0,80,45,0
0,44,127,39
0,80,45,8
0,82,48,11
0,70,58,9
0,42,36,39
0,80,46,8
0,82,42,14
0,70,52,5
0,64,44,0
0,61,45,1
0,42,45,2
0,59,44,7
0,57,44,1
0,64,98,0
0,42,69,0
0,42,74,0
0,57,71,0
0,59,84,0
0,64,93,0
0,80,46,7
0,82,45,14
0,70,55,9
0,42,55,39
0,80,47,8
0,82,49,14
0,70,59,9
0,44,126,39
0,80,47,8
0,82,48,14
0,70,58,9
0,69,94,39
0,42,38,0
0,80,46,8
0,82,42,14
0,70,52,9
0,81,65,9
0,42,69,2
0,80,46,5
0,82,45,4
0,70,55,9
0,42,54,28
0,80,47,8
0,82,49,14
0,70,59,9
0,64,99,39
0,44,126,0
0,80,46,8
0,82,48,14
0,70,58,9
0,42,38,39
0,80,47,8
0,82,42,4
0,70,52,5
0,66,45,2
0,40,45,4
0,62,44,0
0,59,44,2
0,42,63,39
0,40,85,0
0,62,88,0
0,66,65,0
0,67,84,0
0,66,97,6
0,74,64,0
0,80,45,2
0,82,45,1
0,70,55,9
0,42,51,0
0,80,44,3
0,82,48,2
0,70,58,1
0,44,127,5
0,80,45,3
0,82,49,2
0,70,59,1
0,42,32,5
0,62,94,3
0,80,44,0
0,82,43,2
0,70,53,1
0,42,66,3
0,80,44,1
0,82,44,10
0,70,54,9
0,42,55,39
0,80,45,8
0,82,49,14
0,70,59,9
0,59,96,15
0,44,127,4
0,80,45,1
0,82,48,2
0,70,58,9
0,42,37,39
0,80,46,8
0,82,42,14
0,70,52,3
0,64,45,3
0,61,44,4
0,42,45,0
0,57,45,2
0,42,68,35
0,42,82,0
0,57,55,0
0,59,85,0
0,64,92,0
0,73,65,5
0,80,46,3
0,61,101,1
0,82,45,1
0,70,55,9
0,42,54,10
0,80,47,5
0,82,49,5
0,70,59,9
0,44,126,5
0,80,47,8
0,82,48,14
0,70,58,9
0,42,39,2
0,76,64,5
0,80,46,3
0,64,92,3
0,82,42,6
0,70,52,4
0,42,68,5
0,80,46,3
0,82,45,2
0,70,55,9
0,42,55,39
0,80,47,8
0,82,49,14
0,70,59,4
0,74,64,24
0,44,126,14
0,80,46,6
0,82,48,0
0,57,93,4
0,70,58,5
0,59,63,2
0,61,62,0
0,62,63,0
0,42,39,0
0,80,47,5
0,82,42,4
0,70,52,3
0,62,44,3
0,66,45,0
0,59,44,4
0,47,44,3
0,42,62,4
0,47,64,0
0,57,75,0
0,62,89,0
0,66,82,0
0,71,67,3
0,80,45,0
0,59,93,5
0,82,45,1
0,70,55,9
0,42,51,39
0,80,44,7
0,82,48,14
0,70,58,9
0,44,127,8
0,80,45,8
0,82,49,14
0,70,59,9
0,42,32,3
0,80,44,8
0,82,43,2
0,70,53,8
0,42,66,13
0,80,44,7
0,82,44,6
0,70,54,1
0,42,55,2
0,80,45,2
0,82,49,1
0,70,59,3
0,80,45,0
0,44,127,2
0,80,44,5
0,82,48,4
0,70,58,3
0,42,37,2
0,80,46,5
0,82,42,4
0,70,52,1
0,42,68,2
0,80,47,1
0,82,45,1
0,70,55,9
0,42,54,3
0,80,47,8
0,82,49,11
0,70,59,6
0,44,126,10
0,80,46,5
0,82,48,6
0,70,58,9
0,42,39,7
0,80,46,1
0,82,42,2
0,70,52,9
0,42,69,2
0,55,103,4
0,80,47,1
0,82,45,5
0,70,55,9
0,42,54,39
0,80,46,8
0,82,49,14
0,70,59,9
0,44,126,39
0,80,47,8
0,82,48,14
0,70,58,9
0,42,38,39
0,80,47,8
0,82,42,1
0,70,52,1
0,42,63,0
0,59,67,0
0,43,86,0
0,59,87,0
0,62,86,0
0,66,87,0
0,57,41,0
0,66,45,0
0,59,44,5
0,62,44,1
0,43,45,1
0,80,50,1
0,82,45,14
0,62,105,1
0,70,55,3
0,42,50,39
0,80,51,8
0,82,48,14
0,70,58,9
0,44,127,39
0,59,66,0
0,62,104,1
0,80,50,7
0,62,99,4
0,82,49,10
0,70,59,9
0,31,121,39
0,35,127,0
0,42,33,0
0,80,50,8
0,62,105,2
0,82,43,2
0,70,53,9
0,42,67,39
0,59,67,0
0,80,51,8
0,82,44,0
0,70,54,9
0,42,54,39
0,80,51,8
0,62,105,3
0,82,49,11
0,70,59,9
0,31,120,39
0,35,126,0
0,44,126,0
0,59,67,0
0,64,77,0
0,80,50,8
0,82,48,14
0,70,58,9
0,42,37,39
0,64,68,0
0,80,50,8
0,62,104,4
0,82,42,10
0,70,52,9
0,42,68,39
0,59,66,0
0,80,51,8
0,82,45,14
0,70,55,9
0,42,54,39
0,80,51,8
0,62,105,5
0,82,49,4
0,70,59,9
0,44,127,39
0,59,67,0
0,80,50,8
0,82,48,14
0,70,58,9
0,42,39,39
0,80,50,8
0,82,42,14
0,70,52,9
0,42,69,2
0,59,66,0
0,80,51,5
0,62,104,2
0,82,45,4
0,70,55,9
0,42,54,39
0,80,50,8
0,82,49,14
0,70,59,9
0,62,104,3
0,44,127,4
0,59,66,0
0,80,51,8
0,82,48,14
0,70,58,9
0,42,38,39
0,80,51,8
0,82,42,14
0,70,52,3
0,64,41,4
0,61,40,1
0,42,40,1
0,59,41,15
0,62,105,10
0,42,63,8
0,59,67,0
0,42,87,0
0,57,86,0
0,59,87,0
0,64,86,0
0,80,50,8
0,82,45,12
0,70,55,9
0,42,51,35
0,80,51,8
0,82,48,14
0,70,58,9
0,61,105,31
0,44,126,3
0,59,67,0
0,80,50,6
0,82,49,14
0,70,59,9
0,30,127,39
0,61,104,0
0,35,127,0
0,42,32,0
0,80,50,8
0,82,43,14
0,70,53,9
0,42,66,39
0,59,66,0
0,80,51,8
0,82,44,14
0,70,54,9
0,59,104,39
0,42,55,0
0,80,51,8
0,82,49,11
0,70,59,9
0,30,127,39
0,35,127,0
0,44,127,0
0,59,66,0
0,80,50,8
0,82,48,14
0,70,58,4
0,57,105,35
0,42,36,4
0,80,50,8
0,82,42,14
0,70,52,9
0,42,69,39
0,59,67,0
0,80,51,8
0,82,45,14
0,70,55,9
0,42,55,13
0,80,51,8
0,82,49,14
0,70,59,9
0,44,126,9
0,59,67,0
0,80,50,8
0,62,98,4
0,82,48,10
0,70,58,9
0,42,38,39
0,80,50,8
0,82,42,14
0,70,52,9
0,42,69,2
0,59,66,0
0,80,51,5
0,82,45,4
0,70,55,9
0,42,54,4
0,80,50,8
0,82,49,14
0,70,59,9
0,44,126,39
0,59,66,0
0,64,77,0
0,80,51,8
0,82,48,14
0,70,58,9
0,42,38,39
0,64,69,0
0,80,51,8
0,82,42,14
0,70,52,9
0,66,40,4
0,62,41,4
0,43,41,0
0,42,63,8
0,59,67,0
0,43,86,0
0,57,87,0
0,62,87,0
0,66,86,0
0,57,40,0
0,62,105,1
0,80,50,7
0,82,45,14
0,70,55,9
0,42,51,39
0,80,51,8
0,82,48,14
0,70,58,9
0,59,104,3
0,44,127,19
0,59,66,0
0,80,50,8
0,82,49,14
0,70,59,9
0,31,118,10
0,35,126,0
0,42,32,0
0,80,50,8
0,62,104,14
0,82,43,0
0,70,53,9
0,42,66,39
0,59,67,0
0,80,51,8
0,82,44,14
0,70,54,9
0,42,55,34
0,80,51,8
0,59,105,9
0,82,49,5
0,70,59,4
0,31,119,39
0,35,127,0
0,44,127,0
0,59,67,0
0,80,50,8
0,82,48,14
0,70,58,9
0,42,37,39
0,80,50,8
0,62,104,9
0,82,42,5
0,70,52,9
0,42,68,39
0,59,66,0
0,80,51,8
0,82,45,14
0,70,55,9
0,42,54,39
0,80,51,8
0,59,105,4
0,82,49,10
0,70,59,9
0,44,126,39
0,59,67,0
0,80,50,8
0,82,48,14
0,70,58,9
0,42,39,39
0,62,105,7
0,80,50,1
0,82,42,14
0,70,52,9
0,42,68,39
0,59,66,0
0,80,51,2
0,82,45,1
0,70,55,5
0,42,55,39
0,62,104,6
0,80,50,2
0,82,49,14
0,70,59,9
0,44,126,25
0,59,66,0
0,80,51,8
0,82,48,14
0,70,58,9
0,42,39,39
0,80,51,8
0,61,105,9
0,82,42,5
0,70,52,9
0,64,41,7
0,61,40,7
0,42,40,5
0,59,41,4
0,42,62,24
0,59,67,0
0,42,74,0
0,57,67,0
0,59,85,0
0,64,76,0
0,80,50,8
0,82,45,14
0,70,55,9
0,42,51,39
0,80,51,8
0,82,48,14
0,70,58,9
0,44,127,0
0,59,67,0
0,80,50,8
0,82,49,14
0,70,59,9
0,30,118,39
0,35,126,0
0,42,32,0
0,80,50,8
0,82,43,14
0,70,53,9
0,42,66,39
0,59,66,0
0,80,51,8
0,82,44,14
0,70,54,9
0,42,55,5
0,80,51,3
