track,note,velocity,time
0,44,117,0
0,44,117,120
0,44,117,117
0,35,110,64
0,35,104,37
0,38,127,29
0,38,127,15
0,64,127,141
0,33,127,0
0,59,84,0
0,64,114,0
0,76,107,0
0,45,112,0
0,36,102,0
0,61,80,0
0,59,118,0
0,49,127,0
0,64,90,0
0,64,122,0
0,42,109,8
0,69,40,0
0,33,127,24
0,42,123,0
0,69,64,0
0,59,74,16
0,38,114,0
0,61,94,0
0,46,123,0
0,69,90,0
0,33,118,0
0,40,127,16
0,45,112,0
0,42,73,0
0,69,56,0
0,45,105,26
0,42,77,0
0,69,42,0
0,36,110,0
0,33,127,0
0,59,116,0
0,42,127,0
0,69,30,0
0,69,23,29
0,61,110,16
0,42,123,0
0,69,36,0
0,33,122,21
0,42,109,0
0,69,66,0
0,66,124,5
0,66,112,0
0,78,120,0
0,61,96,0
0,38,120,0
0,64,116,0
0,46,127,0
0,69,94,0
0,57,126,0
0,33,112,8
0,45,112,23
0,45,94,0
0,36,122,0
0,42,117,0
0,69,66,0
0,40,120,0
0,42,101,0
0,69,80,0
0,38,118,12
0,62,82,0
0,57,112,0
0,69,123,0
0,57,116,0
0,36,102,0
0,66,76,0
0,62,116,0
0,42,127,0
0,64,108,0
0,42,109,8
0,69,40,0
0,38,118,24
0,42,123,0
0,69,64,0
0,59,127,8
0,59,118,0
0,71,127,0
0,57,102,0
0,38,114,0
0,62,118,0
0,46,123,0
0,64,124,0
0,69,90,0
0,33,114,0
0,38,127,16
0,42,73,0
0,69,56,0
0,42,77,0
0,69,42,0
0,61,126,2
0,40,122,0
0,64,86,0
0,61,108,0
0,73,118,0
0,59,102,0
0,36,110,0
0,68,84,0
0,62,122,0
0,42,127,0
0,64,120,0
0,69,30,0
0,69,23,24
0,42,123,16
0,69,36,0
0,40,118,21
0,42,109,0
0,69,66,0
0,62,123,5
0,62,114,0
0,74,111,0
0,59,100,0
0,38,120,0
0,62,106,0
0,46,127,0
0,64,100,0
0,69,94,0
0,33,122,8
0,40,122,34
0,36,122,0
0,42,117,0
0,69,66,0
0,38,120,13
0,42,101,0
0,69,80,0
0,61,101,8
0,33,127,0
0,61,80,0
0,61,110,0
0,73,114,0
0,57,94,0
0,36,102,0
0,64,86,0
0,61,118,0
0,42,127,0
0,64,94,0
0,42,109,8
0,69,40,0
0,33,122,24
0,42,123,0
0,69,64,0
0,38,114,24
0,46,123,0
0,69,90,0
0,33,114,0
0,45,118,0
0,42,73,0
0,57,102,0
0,69,56,0
0,42,77,32
0,69,42,0
0,33,125,16
0,61,116,0
0,36,110,0
0,42,127,0
0,69,30,0
0,69,23,24
0,61,78,15
0,42,123,0
0,64,98,0
0,69,36,0
0,33,118,21
0,42,109,0
0,69,66,0
0,57,86,5
0,38,120,0
0,61,90,0
0,46,127,0
0,64,94,0
0,69,94,0
0,45,108,8
0,40,118,16
0,57,82,0
0,36,122,0
0,42,117,0
0,69,66,0
0,33,122,0
0,42,101,0
0,69,80,0
0,38,127,16
0,62,92,0
0,57,110,0
0,36,102,0
0,66,82,0
0,62,116,0
0,42,127,0
0,42,109,8
0,69,40,0
0,38,120,13
0,42,123,0
0,69,64,0
0,57,116,21
0,38,114,0
0,46,123,0
0,69,90,0
0,33,118,0
0,38,127,16
0,62,112,0
0,42,73,0
0,69,56,0
0,33,120,12
0,42,77,0
0,69,42,0
0,40,122,16
0,64,82,0
0,59,104,0
0,36,110,0
0,68,86,0
0,64,116,0
0,42,127,0
0,69,30,0
0,69,23,24
0,42,123,4
0,69,36,0
0,40,120,16
0,59,92,0
0,42,109,0
0,64,100,0
0,69,66,0
0,28,118,5
0,38,120,0
0,46,127,0
0,69,94,0
0,40,120,48
0,59,94,0
0,36,122,0
0,64,106,0
0,42,117,0
0,69,66,0
0,31,105,13
0,42,101,0
0,69,80,0
0,64,119,5
0,33,125,0
0,59,74,0
0,64,110,0
0,76,127,0
0,45,116,0
0,36,102,0
0,61,86,0
0,59,116,0
0,42,127,0
0,64,80,0
0,64,118,0
0,42,109,8
0,69,40,0
0,33,122,24
0,42,123,0
0,69,64,0
0,38,114,0
0,59,78,0
0,46,123,0
0,69,90,0
0,33,112,0
0,40,122,16
0,45,116,0
0,42,73,0
0,69,56,0
0,45,105,0
0,42,77,0
0,69,42,0
0,33,125,16
0,59,110,0
0,36,110,0
0,42,127,0
0,69,30,0
0,69,23,24
0,61,116,15
0,42,123,0
0,69,36,0
0,33,107,21
0,42,109,0
0,69,66,0
0,66,121,0
0,66,112,0
0,78,120,0
0,38,120,0
0,59,90,0
0,46,127,0
0,61,104,0
0,69,94,0
0,64,112,0
0,33,118,8
0,45,110,8
0,45,100,0
0,36,122,0
0,42,117,0
0,69,66,0
0,40,120,12
0,42,101,0
0,69,80,0
0,57,124,12
0,38,118,0
0,62,96,0
0,57,103,0
0,69,125,0
0,57,112,0
0,36,102,0
0,66,82,0
0,62,122,0
0,42,127,0
0,64,112,0
0,42,109,8
0,69,40,0
0,38,118,24
0,42,123,0
0,69,64,0
0,59,127,5
0,59,114,0
0,71,127,0
0,38,114,0
0,46,123,0
0,69,90,0
0,33,112,0
0,38,122,16
0,42,73,0
0,69,56,0
0,33,112,16
0,42,77,0
0,69,42,0
0,62,126,0
0,40,120,0
0,64,94,0
0,74,120,0
0,59,120,0
0,36,110,0
0,68,82,0
0,62,112,0
0,64,127,0
0,42,127,0
0,69,30,0
0,69,23,24
0,42,123,16
0,69,36,0
0,40,110,21
0,42,109,0
0,69,66,0
0,61,121,5
0,61,110,0
0,73,125,0
0,38,120,0
0,46,127,0
0,69,94,0
0,33,103,8
0,38,118,31
0,36,122,0
0,42,117,0
0,69,66,0
0,40,118,0
0,42,101,0
0,69,80,0
0,61,112,12
0,42,114,0
0,64,76,0
0,61,92,0
0,73,118,0
0,57,122,0
0,36,102,0
0,66,66,0
0,61,127,0
0,42,127,0
0,69,78,0
0,42,109,8
0,69,40,0
0,42,118,24
0,42,123,0
0,69,64,0
0,42,112,24
0,38,114,0
0,46,123,0
0,69,90,0
0,37,112,0
0,42,114,0
0,42,73,0
0,57,94,0
0,69,56,0
0,37,114,26
0,42,77,0
0,69,42,0
0,30,120,8
0,61,112,0
0,36,110,0
0,42,127,0
0,69,30,0
0,69,23,24
0,64,90,7
0,42,123,0
0,69,36,0
0,30,120,21
0,42,109,0
0,69,66,0
0,57,88,5
0,38,120,0
0,61,100,0
0,46,127,0
0,64,112,0
0,69,94,0
0,30,122,8
0,61,127,26
0,37,118,0
0,61,118,0
0,73,120,0
0,42,90,0
0,36,122,0
0,42,117,0
0,69,66,0
0,62,127,8
0,42,112,0
0,62,127,0
0,74,118,0
0,42,101,0
0,69,80,0
0,64,127,13
0,40,118,0
0,62,50,0
0,64,114,0
0,76,120,0
0,36,102,0
0,64,86,0
0,42,127,0
0,69,82,0
0,42,109,5
0,69,40,0
0,40,120,24
0,42,123,0
0,69,64,0
0,38,114,24
0,46,123,0
0,69,90,0
0,28,114,0
0,35,127,16
0,42,73,0
0,69,56,0
0,40,114,16
0,42,77,0
0,69,42,0
0,68,82,0
0,36,110,0
0,28,127,0
0,42,127,0
0,69,30,0
0,69,23,29
0,42,123,16
0,69,36,0
0,28,114,24
0,42,109,0
0,69,66,0
0,38,120,5
0,46,127,0
0,69,94,0
0,40,114,8
0,35,120,13
0,36,122,0
0,38,72,0
0,42,117,0
0,69,66,0
0,28,127,13
0,38,126,0
0,42,101,0
0,69,80,0
0,33,125,8
0,61,107,0
0,57,88,0
0,57,79,0
0,45,116,0
0,36,102,0
0,64,92,0
0,61,83,0
0,57,108,0
0,49,127,0
0,59,96,0
0,61,104,0
0,64,106,0
0,73,107,1
0,42,109,8
0,69,40,0
0,33,114,24
0,42,123,0
0,69,64,0
0,38,114,8
0,46,123,0
0,69,90,0
0,33,120,0
0,69,107,16
0,40,125,0
0,57,107,0
0,45,110,0
0,42,73,0
0,69,56,0
0,45,95,13
0,42,77,0
0,69,42,0
0,33,114,8
0,57,84,0
0,36,110,0
0,42,127,0
0,69,30,0
0,69,23,24
0,59,96,16
0,42,123,0
0,69,36,0
0,33,108,24
0,42,109,0
0,69,66,0
0,57,88,5
0,38,120,0
0,59,94,0
0,46,127,0
0,61,92,0
0,69,94,0
0,64,98,0
0,45,95,13
0,74,103,16
0,40,107,0
0,62,103,0
0,45,96,0
0,36,122,0
0,42,117,0
0,69,66,0
0,33,110,0
0,42,101,0
0,69,80,0
0,38,120,13
0,57,80,0
0,57,81,0
0,38,100,0
0,36,102,0
0,62,92,0
0,62,97,0
0,57,90,0
0,42,127,0
0,64,84,0
0,62,90,0
0,64,94,0
0,73,100,16
0,61,100,0
0,42,109,4
0,69,40,0
0,38,105,7
0,42,123,0
0,69,64,0
0,69,100,8
0,57,100,0
0,57,88,12
0,38,114,0
0,62,104,0
0,46,123,0
0,64,92,0
0,69,90,0
0,33,101,0
0,71,97,8
0,59,97,0
0,38,120,8
0,38,88,0
0,42,73,0
0,69,56,0
0,33,112,0
0,42,77,0
0,69,42,0
0,40,114,0
0,59,80,0
0,59,86,0
0,36,110,0
0,62,80,0
0,64,93,0
0,40,102,0
0,42,127,0
0,64,90,0
0,56,90,0
0,69,30,0
0,59,100,0
0,62,98,0
0,73,103,8
0,61,103,0
0,69,23,24
0,42,123,12
0,69,36,0
0,71,100,15
0,28,112,1
0,59,100,0
0,42,109,0
0,69,66,0
0,38,120,5
0,46,127,0
0,69,94,0
0,28,108,8
0,69,100,31
0,33,108,0
0,57,100,0
0,36,122,0
0,42,117,0
0,69,66,0
0,40,86,8
0,42,101,0
0,69,80,0
0,33,112,16
0,52,103,0
0,57,78,0
0,57,81,0
0,45,104,0
0,36,102,0
0,64,86,0
0,61,81,0
0,57,80,0
0,42,127,0
0,59,92,0
0,61,84,0
0,64,102,0
0,64,103,1
0,42,109,8
0,69,40,0
0,33,99,24
0,42,123,0
0,69,64,0
0,69,94,4
0,57,94,0
0,38,114,20
0,46,123,0
0,69,90,0
0,33,114,0
0,68,103,5
0,40,114,0
0,56,103,0
0,45,88,0
0,42,73,0
0,69,56,0
0,45,84,8
0,42,77,0
0,69,42,0
0,33,108,16
0,57,84,0
0,36,110,0
0,42,127,0
0,69,30,0
0,69,97,8
0,57,97,0
0,69,23,24
0,59,82,15
0,42,123,0
0,69,36,0
0,33,101,21
0,42,109,0
0,69,66,0
0,57,94,5
0,38,120,0
0,59,100,0
0,46,127,0
0,61,108,0
0,69,94,0
0,64,108,0
0,45,103,8
0,40,95,16
0,45,98,0
0,36,122,0
0,42,117,0
0,69,66,0
0,33,108,0
0,42,101,0
0,69,80,0
0,38,107,21
0,57,80,0
0,57,88,0
0,38,96,0
0,36,102,0
0,62,86,0
0,62,97,0
0,57,98,0
0,42,127,0
0,64,96,0
0,62,98,0
0,64,100,0
0,42,109,8
0,69,40,0
0,38,107,24
0,42,123,0
0,69,64,0
0,57,100,8
0,38,114,0
0,62,116,0
0,46,123,0
0,64,94,0
0,69,90,0
0,26,90,0
0,38,118,16
0,38,96,0
0,42,73,0
0,69,56,0
0,26,99,0
0,42,77,0
0,69,42,0
0,28,118,5
0,59,76,0
0,59,81,0
0,40,106,0
0,36,110,0
0,62,78,0
0,64,88,0
0,56,88,0
0,42,127,0
0,64,88,0
0,59,96,0
0,69,30,0
0,62,96,0
0,69,23,24
0,42,123,5
0,69,36,0
0,40,120,21
0,56,86,0
0,42,109,0
0,59,102,0
0,69,66,0
0,62,110,0
0,38,120,5
0,46,127,0
0,69,94,0
0,28,118,0
0,40,120,20
0,40,108,0
0,36,122,0
0,42,117,0
0,69,66,0
0,35,95,8
0,42,101,0
0,69,80,0
0,33,125,0
0,64,112,0
0,57,88,0
0,57,79,0
0,36,102,0
0,64,92,0
0,61,83,0
0,45,116,0
0,42,127,0
0,57,108,0
0,59,96,0
0,61,104,0
0,64,106,0
0,76,112,2
0,42,109,8
0,69,40,0
0,33,114,24
0,42,123,0
0,69,64,0
0,38,114,12
0,46,123,0
0,69,90,0
0,33,120,0
0,69,107,8
0,57,107,0
0,40,125,8
0,45,110,0
0,42,73,0
0,69,56,0
0,45,95,13
0,42,77,0
0,69,42,0
0,33,114,8
0,57,84,0
0,36,110,0
0,42,127,0
0,69,30,0
0,69,23,24
0,59,96,16
0,42,123,0
0,69,36,0
0,33,108,21
0,42,109,0
0,69,66,0
0,57,88,5
0,38,120,0
0,59,94,0
0,46,127,0
0,61,92,0
0,69,94,0
0,64,98,0
0,45,95,8
0,78,112,8
0,66,112,0
0,40,107,8
0,45,96,0
0,36,122,0
0,42,117,0
0,69,66,0
0,33,110,0
0,42,101,0
0,69,80,0
0,38,120,16
0,57,80,0
0,57,81,0
0,38,100,0
0,36,102,0
0,62,92,0
0,62,97,0
0,57,90,0
0,42,127,0
0,64,84,0
0,62,90,0
0,64,94,0
0,76,112,16
0,64,112,0
0,42,109,4
0,69,40,0
0,69,100,16
0,57,100,0
0,38,105,8
0,42,123,0
0,69,64,0
0,57,88,12
0,38,114,0
0,62,104,0
0,46,123,0
0,64,92,0
0,69,90,0
0,33,101,0
0,71,103,15
0,38,120,1
0,59,103,0
0,38,88,0
0,42,73,0
0,69,56,0
0,33,112,0
0,42,77,0
0,69,42,0
0,40,114,0
0,59,80,0
0,59,86,0
0,36,110,0
0,62,80,0
0,64,93,0
0,40,102,0
0,42,127,0
0,64,90,0
0,56,90,0
0,69,30,0
0,59,100,0
0,62,98,0
0,61,107,5
0,73,107,1
0,69,23,24
0,42,123,12
0,69,36,0
0,74,100,16
0,28,112,0
0,62,100,0
0,42,109,0
0,69,66,0
0,38,120,5
0,46,127,0
0,69,94,0
0,28,108,8
0,33,108,13
0,36,122,0
0,42,117,0
0,69,66,0
0,73,100,0
0,61,100,0
0,40,86,8
0,42,101,0
0,69,80,0
0,33,112,16
0,57,78,0
0,57,81,0
0,45,104,0
0,36,102,0
0,64,86,0
0,61,81,0
0,57,80,0
0,42,127,0
0,59,92,0
0,61,84,0
0,64,102,0
0,42,109,8
0,69,40,0
0,33,99,24
0,42,123,0
0,69,64,0
0,38,114,20
0,46,123,0
0,69,90,0
0,33,114,0
0,73,83,16
0,61,83,0
0,40,114,16
0,45,88,0
0,42,73,0
0,69,56,0
0,71,83,0
0,59,83,0
0,45,84,8
0,42,77,0
0,69,42,0
0,73,107,8
0,61,107,0
0,33,108,8
0,57,84,0
0,36,110,0
0,42,127,0
0,69,30,0
0,69,23,24
0,71,103,15
0,59,103,0
0,59,82,0
0,42,123,0
0,69,36,0
0,69,107,15
0,33,101,0
0,57,107,0
0,42,109,0
0,69,66,0
0,57,94,5
0,38,120,0
0,59,100,0
0,46,127,0
0,61,108,0
0,69,94,0
0,64,108,0
0,45,103,8
0,40,95,20
0,45,98,0
0,36,122,0
0,42,117,0
0,69,66,0
0,33,108,0
0,42,101,0
0,69,80,0
0,38,107,16
0,57,80,0
0,57,88,0
0,38,96,0
0,36,102,0
0,62,86,0
0,62,97,0
0,57,98,0
0,42,127,0
0,64,96,0
0,62,98,0
0,64,100,0
0,42,109,8
0,69,40,0
0,38,107,24
0,42,123,0
0,69,64,0
0,57,100,8
0,38,114,0
0,62,116,0
0,46,123,0
0,64,94,0
0,69,90,0
0,26,90,0
0,38,118,16
0,38,96,0
0,42,73,0
0,69,56,0
0,26,99,0
0,42,77,0
0,69,42,0
0,28,118,5
0,59,76,0
0,59,81,0
0,40,106,0
0,36,110,0
0,62,78,0
0,64,88,0
0,56,88,0
0,42,127,0
0,64,88,0
0,59,96,0
0,69,30,0
0,62,96,0
0,69,23,24
0,42,123,0
0,69,36,0
0,40,120,21
0,56,86,0
0,42,109,0
0,59,102,0
0,69,66,0
0,62,110,0
0,38,120,4
0,46,127,0
0,69,94,0
0,28,118,8
0,40,120,20
0,40,108,0
0,36,122,0
0,42,117,0
0,69,66,0
0,35,95,8
0,42,101,0
0,69,80,0
0,33,125,5
0,61,112,0
0,57,88,0
