track,note,velocity,time
0,73,91,0
0,35,117,0
0,57,99,0
0,61,63,0
0,80,48,0
0,56,81,1
0,61,72,5
0,64,82,1
0,49,83,13
0,68,67,6
0,64,87,0
0,68,55,24
0,44,73,2
0,61,67,0
0,80,55,0
0,73,58,1
0,64,44,18
0,61,65,5
0,68,63,51
0,64,58,9
0,73,56,3
0,40,113,0
0,42,113,0
0,61,64,0
0,80,71,0
0,69,91,37
0,44,70,0
0,59,64,0
0,78,46,0
0,64,83,7
0,61,74,19
0,57,78,0
0,64,79,5
0,45,83,11
0,42,110,60
0,59,43,0
0,78,37,0
0,64,40,3
0,64,58,2
0,44,71,3
0,59,40,0
0,78,48,0
0,61,64,3
0,69,56,2
0,69,41,25
0,40,116,0
0,42,113,0
0,59,33,0
0,78,65,0
0,64,53,7
0,71,84,42
0,35,116,0
0,44,71,0
0,61,50,0
0,80,32,0
0,64,58,1
0,66,65,9
0,64,79,7
0,52,81,5
0,56,76,0
0,59,88,5
0,42,111,14
0,64,65,0
0,80,48,0
0,64,66,23
0,71,65,0
0,44,68,0
0,64,67,0
0,80,83,0
0,64,69,18
0,56,64,5
0,59,63,5
0,64,87,68
0,66,47,2
0,71,42,0
0,40,117,0
0,42,112,0
0,64,64,0
0,80,75,0
0,56,64,3
0,64,45,7
0,71,94,32
0,44,71,0
0,63,50,0
0,78,17,0
0,66,66,3
0,63,73,4
0,47,79,0
0,54,76,7
0,59,88,8
0,63,77,3
0,63,50,25
0,42,111,2
0,78,45,0
0,71,65,45
0,44,72,0
0,69,73,0
0,63,59,0
0,78,44,0
0,66,46,3
0,63,54,3
0,82,59,0
0,63,77,51
0,66,51,4
0,71,45,0
0,40,117,0
0,42,112,0
0,69,72,0
0,54,66,0
0,63,34,0
0,78,51,0
0,59,84,3
0,47,59,3
0,35,103,33
0,44,70,0
0,61,49,0
0,80,42,0
0,49,45,2
0,64,34,0
0,68,56,4
0,73,45,1
0,56,44,1
0,61,50,2
0,64,51,5
0,56,80,36
0,61,73,5
0,64,82,1
0,35,117,3
0,42,112,0
0,61,66,0
0,80,61,0
0,68,67,6
0,73,91,4
0,49,83,0
0,64,86,10
0,68,54,7
0,44,73,5
0,61,64,0
0,80,75,0
0,73,59,1
0,64,45,8
0,61,64,5
0,68,62,45
0,64,58,9
0,73,57,3
0,40,112,0
0,42,113,0
0,61,75,0
0,80,72,0
0,69,91,15
0,44,71,0
0,59,57,0
0,78,52,0
0,64,82,7
0,61,74,19
0,57,79,0
0,64,79,5
0,45,82,13
0,42,111,60
0,59,44,0
0,78,45,0
0,64,40,33
0,64,58,4
0,44,70,3
0,59,55,0
0,78,52,0
0,61,65,8
0,69,57,2
0,69,41,30
0,40,117,0
0,42,112,0
0,59,44,0
0,78,71,0
0,64,52,7
0,66,72,4
0,71,85,0
0,35,116,0
0,44,70,0
0,64,43,0
0,80,38,0
0,64,58,1
0,64,79,1
0,52,80,1
0,56,76,0
0,59,89,1
0,42,110,2
0,64,54,0
0,80,65,0
0,64,67,42
0,71,65,0
0,44,69,0
0,64,70,0
0,80,83,0
0,66,50,10
0,64,68,8
0,56,65,5
0,59,63,5
0,64,86,68
0,71,43,2
0,40,116,0
0,42,113,0
0,64,63,0
0,80,80,0
0,56,65,3
0,64,34,7
0,66,56,0
0,71,95,8
0,44,71,0
0,63,73,0
0,78,31,0
0,66,69,3
0,63,72,2
0,47,78,0
0,54,76,7
0,59,89,8
0,63,77,3
0,42,111,19
0,63,50,0
0,78,48,0
0,71,64,85
0,44,72,0
0,69,73,0
0,63,63,0
0,78,57,0
0,66,47,3
0,63,55,3
0,82,58,0
0,63,76,50
0,66,50,4
0,71,44,0
0,40,116,0
0,42,112,0
0,69,73,0
0,54,66,0
0,78,66,0
0,59,85,3
0,47,59,3
0,35,103,35
0,44,70,0
0,61,56,0
0,80,43,0
0,49,44,2
0,73,45,5
0,56,44,1
0,64,34,1
0,68,57,0
0,61,51,2
0,73,91,45
0,35,120,0
0,42,116,0
0,61,63,0
0,80,48,0
0,56,80,1
0,61,73,5
0,64,82,1
0,49,83,13
0,68,67,6
0,64,86,0
0,68,54,24
0,44,73,2
0,61,66,0
0,80,55,0
0,73,58,1
0,64,45,18
0,61,64,5
0,68,63,51
0,64,59,9
0,73,56,3
0,40,113,0
0,42,113,0
0,61,64,0
0,80,71,0
0,69,90,37
0,44,70,0
0,59,65,0
0,78,46,0
0,64,83,7
0,61,74,19
0,57,79,0
0,64,79,5
0,45,82,11
0,42,110,7
0,59,43,0
0,78,36,0
0,64,40,33
0,64,59,4
0,44,71,3
0,59,40,0
0,78,49,0
0,61,65,8
0,69,56,2
0,69,40,30
0,40,117,0
0,42,113,0
0,59,33,0
0,78,64,0
0,64,53,7
0,71,84,42
0,35,116,0
0,44,71,0
0,61,50,0
0,80,33,0
0,64,59,1
0,66,65,9
0,64,79,7
0,52,80,5
0,56,76,0
0,59,89,5
0,42,111,67
0,64,65,0
0,80,48,0
0,64,66,42
0,71,65,0
0,44,68,0
0,64,66,0
0,80,83,0
0,64,68,18
0,56,65,5
0,59,63,5
0,64,86,3
0,66,46,2
0,71,42,0
0,40,116,0
0,42,112,0
0,64,64,0
0,80,75,0
0,56,65,3
0,64,45,5
0,71,95,32
0,44,71,0
0,63,51,0
0,78,17,0
0,66,66,3
0,63,72,4
0,47,78,0
0,54,76,7
0,59,89,8
0,63,77,3
0,63,50,5
0,42,111,2
0,78,45,0
0,71,65,45
0,44,72,0
0,69,72,0
0,63,58,0
0,78,44,0
0,66,47,3
0,63,54,3
0,82,59,0
0,63,76,51
0,66,50,4
0,71,45,0
0,40,116,0
0,42,112,0
0,69,73,0
0,54,66,0
0,63,35,0
0,78,51,0
0,59,85,3
0,47,59,3
0,35,103,33
0,44,70,0
0,61,48,0
0,80,42,0
0,49,44,2
0,64,34,0
0,68,57,4
0,73,45,1
0,56,44,1
0,61,51,2
0,64,50,5
0,56,81,36
0,61,73,5
0,64,82,1
0,35,117,3
0,42,112,0
0,61,67,0
0,80,61,0
0,68,67,6
0,73,90,4
0,49,82,0
0,64,87,10
0,68,54,7
0,44,73,5
0,61,64,0
0,80,74,0
0,73,59,1
0,64,44,8
0,61,64,5
0,68,63,51
0,64,58,9
0,73,56,3
0,40,113,0
0,42,113,0
0,61,75,0
0,80,72,0
0,69,91,15
0,44,71,0
0,59,57,0
0,78,53,0
0,64,83,7
0,61,75,19
0,57,79,0
0,64,78,5
0,45,82,13
0,42,111,60
0,59,44,0
0,78,45,0
0,64,41,33
0,64,58,4
0,44,70,3
0,59,54,0
0,78,52,0
0,61,65,8
0,69,56,2
0,69,41,30
0,40,117,0
0,42,112,0
0,59,45,0
0,78,71,0
0,64,52,7
0,66,73,39
0,71,85,0
0,35,116,0
0,44,70,0
0,64,42,0
0,80,38,0
0,64,58,1
0,64,78,16
0,52,80,5
0,56,77,0
0,59,88,5
0,42,110,2
0,64,55,0
0,80,65,0
0,64,67,2
0,71,64,0
0,44,69,0
0,64,70,0
0,80,82,0
0,66,50,2
0,64,69,5
0,56,65,5
0,59,62,5
0,64,87,15
0,71,43,2
0,40,116,0
0,42,113,0
0,64,63,0
0,80,80,0
0,56,64,3
0,64,35,7
0,66,56,0
0,71,94,8
0,44,71,0
0,63,73,0
0,78,31,0
0,66,69,3
0,63,73,2
0,47,78,0
0,54,77,7
0,59,89,8
0,63,76,3
0,42,111,19
0,63,51,0
0,78,48,0
0,71,64,85
0,35,112,0
0,44,72,0
0,63,63,0
0,78,56,0
0,66,46,3
0,63,55,3
0,40,80,44
0,63,76,6
0,66,50,4
0,71,45,0
0,54,67,0
0,63,50,0
0,78,67,0
0,59,85,3
0,47,58,3
0,40,127,0
0,73,111,35
0,35,91,0
0,44,70,0
0,49,44,2
0,73,45,5
0,56,45,1
0,64,34,1
0,68,57,0
0,61,50,2
0,37,115,0
0,73,110,0
0,73,90,0
0,35,117,0
0,57,98,0
0,61,53,0
0,80,38,0
0,56,81,1
0,61,73,5
0,64,82,1
0,68,67,19
0,64,86,0
0,68,55,24
0,73,111,2
0,44,73,0
0,61,44,0
0,80,33,0
0,73,58,1
0,64,45,18
0,61,64,5
0,68,62,51
0,64,59,9
0,73,111,3
0,73,57,0
0,40,112,0
0,42,112,0
0,61,43,0
0,80,48,0
0,33,110,37
0,73,110,0
0,69,90,0
0,44,70,0
0,59,42,0
0,78,25,0
0,64,82,7
0,61,74,19
0,57,79,0
0,64,79,5
0,73,111,60
0,42,110,0
0,59,21,0
0,78,14,0
0,64,40,33
0,64,59,4
0,44,71,3
0,59,18,0
0,78,27,0
0,61,64,8
0,69,56,2
0,71,110,30
0,69,41,0
0,40,117,0
0,42,113,0
0,59,11,0
0,78,43,0
0,64,53,2
0,40,113,20
0,71,84,0
0,35,116,0
0,44,71,0
0,61,40,0
0,80,23,0
0,64,59,1
0,66,64,9
0,64,79,7
0,56,77,5
0,59,88,5
0,42,110,67
0,64,49,0
0,80,31,0
0,64,66,42
0,71,65,0
0,44,68,0
0,64,51,0
0,80,66,0
0,64,68,18
0,56,65,5
0,59,62,5
0,64,87,68
0,66,47,2
0,71,42,0
0,40,117,0
0,42,113,0
0,64,49,0
0,80,56,0
0,56,65,3
0,64,44,7
0,35,111,32
0,71,95,0
0,44,71,0
0,63,34,0
0,78,1,0
0,66,67,3
0,63,72,4
0,54,76,7
0,59,89,8
0,63,76,3
0,63,35,25
0,42,111,2
0,78,28,0
0,73,110,45
0,71,64,0
0,44,72,0
0,63,43,0
0,78,28,0
0,66,47,3
0,63,54,3
0,63,76,51
0,73,111,4
0,66,51,0
0,71,45,0
0,40,116,0
0,42,112,0
0,54,67,0
0,63,18,0
0,78,34,0
0,59,85,3
0,35,110,24
0,73,111,0
0,63,34,0
0,66,57,0
0,71,44,0
0,35,102,0
0,44,70,0
0,54,44,0
0,63,50,0
0,61,15,0
0,80,8,0
0,59,51,5
0,56,81,36
0,61,72,5
0,64,82,1
0,37,113,3
0,73,110,0
0,35,117,0
0,42,113,0
0,61,32,0
0,80,27,0
0,68,67,6
0,73,91,4
0,64,86,10
0,68,54,7
0,73,110,5
0,44,73,0
0,61,31,0
0,80,41,0
0,73,58,1
0,64,45,8
0,61,64,5
0,68,63,11
0,64,59,9
0,78,111,3
0,73,56,0
0,40,113,0
0,42,112,0
0,61,41,0
0,80,38,0
0,33,110,15
0,69,90,0
0,44,71,0
0,59,23,0
0,78,19,0
0,64,83,7
0,61,75,19
0,57,79,0
0,64,78,5
0,76,111,60
0,42,110,0
0,59,10,0
0,78,10,0
0,64,41,33
0,64,58,4
0,44,70,3
0,59,21,0
0,78,19,0
0,61,64,8
0,69,57,2
0,73,110,29
0,69,41,0
0,40,116,0
0,42,113,0
0,59,10,0
0,78,36,0
0,64,52,2
0,40,112,39
0,66,73,0
0,71,84,0
0,35,116,0
0,44,70,0
0,64,9,0
0,80,4,0
0,64,58,1
0,64,78,16
0,56,77,5
0,59,89,5
0,42,111,58
0,64,21,0
0,80,31,0
0,64,67,42
0,71,65,0
0,44,69,0
0,64,37,0
0,80,48,0
0,66,50,10
0,64,68,8
0,56,64,5
0,59,63,5
0,64,87,68
0,71,42,2
0,40,116,0
0,42,112,0
0,64,29,0
0,80,47,0
0,56,64,3
0,64,35,7
0,66,57,0
0,35,111,8
0,71,94,0
0,44,71,0
0,63,39,0
0,78,1,0
0,66,68,3
0,63,73,2
0,54,76,7
0,59,89,8
0,63,76,3
0,42,110,19
0,63,17,0
0,78,15,0
0,73,110,82
0,71,64,0
0,44,72,0
0,63,29,0
0,78,23,0
0,66,47,3
0,63,55,3
0,63,77,23
0,35,101,4
0,73,111,0
0,66,50,0
0,71,45,0
0,40,117,0
0,42,113,0
0,54,67,0
0,78,32,0
0,59,84,3
0,36,102,27
0,75,110,0
0,63,34,0
0,71,44,0
0,35,103,0
0,44,70,0
0,61,23,0
0,80,8,0
0,66,57,2
0,54,45,2
0,59,50,10
0,37,114,38
0,76,111,0
0,73,91,0
0,35,121,0
0,42,117,0
0,61,29,0
0,80,15,0
0,56,80,1
0,61,73,5
0,64,82,1
0,68,66,19
0,64,87,0
0,68,55,24
0,76,111,2
0,44,73,0
0,61,33,0
0,80,21,0
0,73,59,1
0,64,44,18
0,61,64,5
0,68,62,51
0,64,58,9
0,76,110,3
0,73,57,0
0,40,113,0
0,42,112,0
0,61,31,0
0,80,36,0
0,33,111,37
0,76,111,0
0,69,90,0
0,44,70,0
0,59,31,0
0,78,13,0
0,64,83,7
0,61,75,19
0,57,79,0
0,64,78,5
0,42,110,60
0,59,9,0
0,78,2,0
0,64,40,33
0,64,59,4
0,76,110,3
0,44,71,0
0,59,6,0
0,78,15,0
0,61,65,8
0,69,56,2
0,76,110,30
0,69,41,0
0,40,116,0
0,42,113,0
0,59,1,0
0,78,31,0
0,64,52,7
0,40,113,44
0,76,111,0
0,71,84,0
0,35,116,0
0,44,71,0
0,61,30,0
0,80,13,0
0,64,59,1
0,66,65,9
0,64,78,7
0,56,77,5
0,59,89,5
0,76,111,5
0,42,110,0
0,64,44,0
0,80,28,0
0,76,110,42
0,64,66,0
0,71,64,0
0,44,68,0
0,64,47,0
0,80,63,0
0,64,68,18
0,56,65,5
0,59,62,5
0,64,86,68
0,76,110,2
0,66,47,0
0,71,43,0
0,40,116,0
0,42,113,0
0,64,44,0
0,80,54,0
0,56,65,3
0,64,44,7
0,35,110,32
0,75,111,0
0,71,94,0
0,44,71,0
0,63,31,0
0,78,1,0
0,66,67,3
0,63,72,4
0,54,77,7
0,59,88,8
0,63,76,3
0,63,31,5
0,73,111,2
0,42,111,0
0,78,25,0
0,71,110,45
0,71,65,0
0,44,72,0
0,63,39,0
0,78,25,0
0,66,47,3
0,63,54,3
0,63,77,26
0,35,110,4
0,66,51,0
0,71,44,0
0,40,117,0
0,42,112,0
0,54,67,0
0,63,15,0
0,78,31,0
0,59,84,3
0,36,103,24
0,73,110,0
0,63,34,0
0,66,57,0
0,71,45,0
0,35,103,0
0,44,70,0
0,54,44,0
0,63,51,0
0,61,47,0
0,80,44,0
0,59,50,10
0,56,81,41
0,61,73,5
0,64,82,1
0,37,112,3
0,35,116,0
0,42,113,0
0,61,66,0
0,80,61,0
0,68,66,6
0,73,91,4
0,64,86,10
0,68,55,7
0,44,73,5
0,61,64,0
0,80,73,0
0,73,58,1
0,64,45,8
0,61,64,5
0,68,62,51
0,64,59,9
0,73,56,3
0,40,113,0
0,42,112,0
0,61,73,0
0,80,70,0
0,33,111,2
0,69,91,0
0,44,71,0
0,59,57,0
0,78,52,0
0,64,83,4
0,61,74,3
0,57,79,0
0,64,79,2
0,42,110,2
0,59,42,0
0,78,43,0
0,64,40,33
0,64,58,4
0,44,70,3
0,59,55,0
0,78,52,0
0,61,64,8
0,69,57,2
0,69,40,30
0,40,116,0
0,42,113,0
0,59,42,0
0,78,69,0
0,64,52,7
0,40,113,39
0,66,73,0
0,71,85,0
0,35,116,0
0,44,70,0
0,64,43,0
0,80,36,0
0,64,58,1
0,64,79,16
0,56,77,5
0,59,88,5
0,42,111,0
0,64,54,0
0,80,65,0
0,64,66,42
0,71,65,0
0,44,69,0
0,64,68,0
0,80,83,0
0,66,51,10
0,64,68,8
0,56,65,5
0,59,62,5
0,64,87,68
0,71,42,2
0,40,116,0
0,42,112,0
0,64,63,0
0,80,78,0
0,56,65,3
0,64,34,7
0,66,57,0
0,35,110,8
0,71,94,0
0,44,71,0
0,63,71,0
0,78,31,0
0,66,69,3
0,63,73,2
0,54,76,7
0,59,89,8
0,63,76,3
0,42,110,19
0,63,50,0
0,78,48,0
0,73,111,85
0,71,64,0
0,44,72,0
0,63,63,0
0,78,57,0
0,66,47,3
0,63,54,3
0,63,76,50
0,66,50,4
0,71,45,0
0,40,121,0
0,46,97,0
0,54,67,0
0,63,48,0
0,78,66,0
0,59,85,3
0,35,111,27
0,73,110,0
0,63,35,0
0,71,44,0
0,35,93,0
