track,note,velocity,time
1,48,127,41474
1,47,127,2
1,47,127,50
1,45,103,50
1,43,127,2
1,43,83,82
1,41,123,50
1,40,127,768
1,52,127,2
1,50,127,18
1,48,115,574
1,45,115,0
1,43,127,18
1,43,103,66
1,55,127,96
1,43,123,16
1,48,127,118
1,47,127,0
1,47,127,50
1,45,103,50
1,43,127,2
1,43,83,82
1,41,123,52
1,40,127,766
1,52,127,2
1,50,127,18
1,48,115,576
1,45,115,0
1,43,127,18
1,43,103,66
1,55,127,94
1,43,123,16
1,41,107,112
1,48,75,382
1,53,83,0
1,48,107,32
1,53,127,18
1,40,127,4
1,48,47,1054
1,52,115,4
1,50,127,18
1,50,127,116
1,48,47,0
1,45,71,2
1,50,115,12306
1,43,95,0
1,48,127,4
1,41,107,768
1,46,107,754
1,40,127,0
1,45,103,18
1,45,83,50
1,57,99,2
1,52,103,80
1,45,83,2
1,50,115,196
1,48,59,0
1,47,91,6
1,48,83,0
1,47,127,558
1,45,95,18
1,46,123,768
1,40,127,34
1,52,107,370
1,45,127,18
1,45,115,66
1,43,127,6
1,43,115,82
1,41,127,34
1,41,95,50
1,41,115,34
1,53,103,382
1,48,83,16
1,41,91,34
1,43,115,0
1,43,91,30
1,55,91,96
1,50,87,34
1,43,91,32
1,43,87,14
1,50,83,96
1,55,99,32
1,48,127,114
1,47,127,2
1,47,127,50
1,45,103,50
1,43,127,0
1,43,83,82
1,41,123,50
1,40,127,766
1,52,127,2
1,50,127,18
1,48,115,576
1,45,115,2
1,43,127,18
1,43,103,64
1,55,127,96
1,43,123,16
1,48,127,114
1,47,127,2
1,47,127,48
1,45,103,52
1,43,127,2
1,43,83,80
1,41,123,50
1,40,127,768
1,52,127,0
1,50,127,16
1,48,115,574
1,45,115,0
1,43,127,18
1,43,103,68
1,55,127,92
1,43,123,16
1,49,127,114
1,48,127,0
1,48,127,48
1,46,103,50
1,44,127,0
1,44,83,82
1,42,123,50
1,41,127,768
1,53,127,2
1,51,127,16
1,49,115,576
1,46,115,0
1,44,127,18
1,44,103,66
1,56,127,98
1,44,123,18
1,49,127,114
1,48,127,2
1,48,127,52
1,46,103,50
1,44,127,4
1,44,83,80
1,42,123,50
1,41,127,768
1,53,127,2
1,51,127,16
1,49,115,574
1,46,115,0
1,44,127,20
1,44,103,66
1,56,127,94
1,44,123,16
1,42,107,116
1,49,75,380
1,54,83,0
1,49,107,16
1,54,127,16
1,41,127,0
1,49,47,1056
1,53,115,2
1,51,127,18
1,51,127,114
1,49,47,0
2,71,127,956
2,72,127,194
2,79,123,190
2,48,127,192
2,24,83,2
2,55,127,192
2,64,127,192
2,77,127,178
2,67,115,190
2,23,83,2
2,47,127,0
2,74,127,0
2,55,103,110
2,62,127,192
2,76,123,16
2,64,99,16
2,21,83,0
2,45,103,0
2,72,115,0
2,52,123,176
2,59,127,190
2,60,127,192
2,72,127,544
2,64,91,18
2,74,123,62
2,76,107,2
2,29,83,2
2,41,127,0
2,77,127,0
2,48,107,32
2,76,127,0
2,72,127,0
2,57,127,2
2,72,123,64
2,43,127,18
2,71,123,160
2,72,127,176
2,79,115,160
2,24,83,0
2,48,127,0
2,55,103,190
2,64,127,194
2,77,127,14
2,67,127,2
2,74,127,0
2,47,127,2
2,23,83,0
2,55,115,190
2,62,127,190
2,76,127,96
2,64,95,194
2,21,83,0
2,45,127,0
2,72,127,0
2,52,103,174
2,59,127,194
2,60,127,190
2,72,107,546
2,64,95,94
2,74,115,30
2,76,127,0
2,41,127,0
2,77,107,0
2,76,127,2
2,48,103,0
2,72,103,18
2,57,127,0
2,72,127,64
2,43,127,80
2,71,123,18
2,72,127,382
2,57,91,2
2,41,91,0
2,73,91,176
2,68,91,0
2,68,91,254
2,73,91,2
2,73,91,258
2,68,91,0
2,68,91,220
2,73,91,2
2,68,91,274
2,73,91,0
2,73,91,368
2,68,91,0
2,73,91,272
2,68,91,0
2,73,91,272
2,68,91,0
2,68,91,272
2,73,91,0
2,73,91,642
2,68,91,0
2,68,91,272
2,73,91,2
2,73,91,256
2,68,91,0
2,68,91,268
2,73,91,2
2,68,91,654
2,73,91,2
2,73,91,254
2,68,91,0
2,73,91,256
2,68,91,0
2,73,91,254
2,68,91,0
2,73,91,640
2,68,91,0
2,68,91,272
2,73,91,0
2,73,91,274
2,68,91,0
2,73,91,254
2,68,91,0
2,73,91,642
2,68,91,0
2,73,91,256
2,68,91,0
2,68,91,260
2,73,91,14
2,73,91,254
2,68,91,0
2,68,91,644
2,73,91,0
2,73,91,256
2,68,91,0
2,68,91,262
2,73,91,0
2,68,91,254
2,73,91,2
2,73,91,640
2,68,91,0
2,68,91,254
2,73,91,2
2,73,91,274
2,68,91,0
2,68,91,274
2,73,91,0
3,67,35,1534
3,64,51,0
3,48,55,0
3,47,127,20
3,62,79,0
3,67,75,18
3,60,71,0
3,45,67,0
3,67,99,2
3,57,87,0
3,41,99,0
3,55,71,16
3,43,123,0
3,67,127,0
3,64,107,0
3,60,107,0
3,48,95,0
3,47,123,38
3,59,119,0
3,62,123,0
3,67,103,0
3,67,83,0
3,60,123,0
3,57,119,0
3,45,111,0
3,53,111,0
3,41,111,0
3,67,123,0
3,60,127,0
3,57,127,0
3,43,119,16
3,55,91,2
3,57,67,34
3,57,51,11666
3,60,51,2
3,55,51,18
3,59,51,2
3,64,51,766
3,60,51,768
3,57,51,0
3,62,51,48
3,57,51,64
3,56,51,0
3,59,51,384
3,52,51,0
3,60,67,0
3,57,59,0
3,61,75,48
3,65,123,96
3,60,123,0
3,57,127,0
3,50,127,0
3,67,123,0
3,62,107,0
3,55,127,0
3,47,127,0
3,64,127,18
3,48,127,0
3,60,127,352
3,53,111,0
3,45,127,0
3,65,67,2
3,62,115,2
3,58,111,0
3,46,127,0
3,57,127,16
3,40,127,32
3,65,59,2
3,59,127,0
3,56,127,0
3,52,127,0
3,64,127,336
3,60,91,0
3,57,123,0
3,45,127,0
3,43,127,18
3,55,127,384
3,65,123,32
3,60,127,0
3,57,127,0
3,53,127,0
3,41,119,0
3,43,59,32
3,67,59,2
3,62,59,0
3,59,59,0
3,60,111,0
3,64,111,2
3,67,111,0
3,59,111,18
3,62,111,0
3,57,111,66
3,60,111,0
3,64,111,2
3,69,111,0
3,55,111,16
3,65,111,48
3,57,111,0
3,64,111,48
3,55,111,0
3,57,111,18
3,53,111,0
3,62,111,2
3,59,111,0
3,55,111,0
3,60,111,4
3,64,111,0
3,72,111,2
3,76,111,0
3,67,111,324
3,74,111,0
3,62,111,0
3,59,111,0
3,57,111,4
3,60,111,0
3,64,111,0
3,72,111,2
3,55,111,18
3,71,111,382
3,53,111,2
3,57,111,0
3,65,111,2
3,69,111,0
3,55,111,52
3,64,111,0
3,67,111,0
3,65,111,16
3,62,111,0
3,57,111,0
3,53,111,0
3,59,111,0
3,55,111,0
3,67,111,82
3,69,127,160
3,60,127,0
3,57,123,0
3,53,107,0
3,52,83,18
3,55,87,0
3,67,127,2
3,65,127,2
3,53,91,0
3,50,67,0
3,55,31,274
3,59,35,2
3,62,31,0
3,57,19,14
3,64,19,2
3,60,19,0
3,57,31,2
3,60,30,2
3,65,11,0
3,72,8,0
3,64,3,18
3,55,47,0
3,62,15,0
3,53,47,0
3,57,47,20
3,64,23,0
3,55,47,766
3,62,3,2
3,71,23,18
3,59,47,0
3,57,47,32
3,81,43,2
3,69,31,0
3,60,47,0
3,67,47,370
3,79,55,0
3,77,35,16
3,65,19,0
3,76,31,368
3,64,19,0
3,74,35,0
3,62,19,0
3,55,47,0
3,72,23,16
3,60,23,0
3,71,43,2
3,59,11,0
3,72,11,0
3,60,7,0
3,57,7,2
3,53,47,0
3,69,3,2
3,72,3,752
3,60,3,0
3,57,47,0
3,72,3,18
3,60,3,0
3,55,47,0
3,67,7,18
3,59,47,0
3,79,27,2
3,57,63,126
3,60,63,0
3,59,63,18
3,55,63,0
3,64,63,768
3,57,63,768
3,60,63,2
3,62,63,50
3,57,63,64
3,56,63,386
3,52,63,368
3,59,63,2
3,57,71,32
3,60,75,2
3,61,87,50
3,57,127,98
3,50,127,0
3,60,127,2
3,65,127,0
3,47,127,0
3,55,127,0
3,62,119,2
3,67,127,0
3,64,127,16
3,48,127,0
3,60,127,350
3,65,79,0
3,53,119,0
3,45,127,0
3,62,127,754
3,58,119,0
3,46,127,0
3,57,127,16
3,40,127,32
3,65,71,2
3,59,127,0
3,56,127,0
3,52,127,0
3,64,127,338
3,60,103,0
3,57,127,0
3,45,127,0
3,43,127,20
3,55,127,380
3,57,127,34
3,53,127,0
3,41,127,0
3,60,127,2
3,65,127,0
3,67,127,34
3,62,127,0
3,59,127,0
3,55,127,0
3,50,123,0
3,43,127,0
3,67,111,130
3,64,111,0
3,60,111,0
3,59,111,18
3,62,111,2
3,57,111,66
3,60,111,0
3,64,111,2
3,69,111,0
3,55,111,20
3,57,111,50
3,65,111,0
3,64,111,48
3,55,111,0
3,62,111,16
3,57,111,0
3,53,111,0
3,59,111,0
3,55,111,0
3,76,111,2
3,72,111,0
3,64,111,0
3,60,111,0
3,67,111,320
3,74,111,2
3,62,111,0
3,59,111,0
3,57,111,4
3,60,111,0
3,64,111,0
3,72,111,0
3,55,111,18
3,71,111,382
3,69,111,0
3,65,111,0
3,57,111,0
3,53,111,0
3,67,111,50
3,64,111,0
3,55,111,0
3,65,111,16
3,62,111,0
3,57,111,0
3,53,111,0
3,59,111,2
3,55,111,0
3,67,111,80
3,61,111,2
3,65,111,0
3,68,111,2
3,63,111,18
3,60,111,0
3,58,111,66
3,61,111,0
3,65,111,2
3,70,111,0
3,56,111,18
3,66,111,50
3,58,111,0
3,65,111,50
3,56,111,0
3,63,111,16
3,58,111,0
3,54,111,0
3,60,111,0
3,56,111,0
3,65,111,2
3,61,111,0
3,73,111,2
3,77,111,0
3,68,111,318
3,75,111,2
3,63,111,0
3,60,111,0
3,73,111,0
3,65,111,0
3,61,111,0
3,58,111,0
3,56,111,20
3,72,111,382
3,70,111,0
3,66,111,0
3,58,111,0
3,54,111,0
3,65,111,50
3,56,111,0
3,68,111,2
3,54,111,16
3,66,111,2
3,63,111,0
3,58,111,0
3,60,111,2
3,56,111,0
3,68,111,80
3,61,33,14
3,58,35,0
3,54,35,0
3,70,35,2
3,68,35,0
3,56,35,0
3,53,35,0
3,66,35,0
3,54,35,0
3,51,35,0
4,41,127,13824
4,53,115,190
4,60,95,190
4,40,127,32
4,55,87,80
4,60,79,192
4,38,127,50
4,52,83,144
4,53,95,98
4,60,103,190
4,59,123,288
4,45,95,0
4,60,79,0
4,57,127,0
4,52,91,192
4,45,83,66
4,43,127,48
4,50,95,176
4,60,103,192
4,55,79,194
4,59,91,192
4,93,95,78
4,41,127,0
4,89,115,192
4,53,115,0
4,84,111,192
4,60,95,0
4,40,127,32
4,55,87,82
4,60,79,192
4,38,127,32
4,52,83,144
4,53,95,94
4,60,103,192
4,59,127,290
4,45,95,0
4,60,79,94
4,57,127,0
4,52,91,194
4,45,83,66
4,43,127,48
4,50,95,176
4,60,103,192
4,55,79,192
4,59,91,192
4,50,107,82
4,53,75,188
4,60,99,194
4,53,83,112
4,43,75,20
4,53,55,0
4,64,87,0
4,64,75,66
4,48,83,0
4,55,67,192
4,60,83,192
4,52,59,0
4,55,55,114
4,64,87,0
4,41,91,0
4,53,91,48
4,46,99,0
4,58,79,2
4,62,91,192
4,57,87,32
4,56,67,0
4,40,87,0
4,59,75,2
4,64,79,192
4,56,71,80
4,60,83,196
4,45,71,0
4,57,71,96
4,64,75,192
4,57,67,0
4,61,67,18
4,52,95,0
4,57,79,190
4,69,47,178
4,61,67,0
4,64,67,190
4,50,95,0
4,57,95,176
4,65,95,16
4,48,95,190
4,47,95,34
4,55,95,162
4,59,95,192
4,67,95,16
4,64,95,0
4,48,95,0
4,55,95,144
4,59,95,192
4,47,95,32
4,45,95,18
4,53,95,18
4,60,95,190
4,64,95,0
4,46,95,86
4,62,95,0
4,53,95,80
4,58,95,64
4,53,95,16
4,56,95,100
4,40,95,0
4,47,95,110
4,52,95,194
4,56,95,162
4,57,95,32
4,45,95,0
4,52,95,142
4,60,95,158
4,52,95,174
4,64,95,16
4,57,95,0
4,43,95,0
4,52,95,160
4,57,95,160
4,60,95,112
4,60,95,16
4,53,95,0
4,41,95,0
4,48,95,144
4,53,95,160
4,43,95,16
4,50,95,160
4,59,95,48
4,55,95,0
4,48,23,0
4,55,11,0
4,47,31,100
4,45,31,38
4,43,31,16
4,41,31,0
4,40,31,0
4,52,31,36
4,50,31,20
4,48,31,66
4,45,31,64
4,43,31,0
4,48,23,198
4,55,11,0
4,47,31,98
4,45,31,38
4,43,31,18
4,41,31,0
4,40,31,18
4,52,31,36
4,50,31,0
4,48,31,66
4,45,31,64
4,43,31,0
4,59,67,398
4,60,67,192
4,59,83,414
4,60,71,192
4,59,75,382
4,60,83,194
4,59,63,128
4,62,71,16
4,67,71,14
4,64,71,2
4,60,71,0
4,62,47,34
4,59,59,0
4,60,35,2
4,57,15,0
4,41,127,4
4,53,115,188
4,60,95,190
4,40,127,32
4,55,87,80
4,60,79,192
4,38,127,48
4,52,83,144
4,53,95,96
4,60,103,194
4,59,123,286
4,45,95,0
4,60,79,0
4,57,127,2
4,52,91,190
4,45,83,64
4,43,127,50
4,50,95,176
4,60,103,192
4,55,79,192
4,59,91,194
4,93,95,80
4,41,127,0
4,89,115,190
4,53,115,0
4,84,111,194
4,60,95,0
4,40,127,32
4,55,87,78
4,60,79,192
4,38,127,32
4,52,83,144
4,53,95,96
4,60,103,192
4,45,95,288
4,59,127,2
4,60,79,94
4,57,127,2
4,52,91,190
4,45,83,64
4,43,127,48
4,50,95,178
4,60,103,190
4,55,79,192
4,59,91,192
4,50,107,80
4,53,75,192
4,60,99,190
4,53,83,112
4,64,87,16
4,53,55,0
4,43,75,0
4,48,83,68
4,64,75,0
4,55,67,188
4,60,83,194
4,52,59,0
4,55,55,110
4,64,87,2
4,41,91,0
4,53,91,50
4,46,99,0
4,58,79,0
4,62,91,194
4,57,87,34
4,56,67,0
4,40,87,0
4,59,75,0
4,64,79,194
4,56,71,82
4,60,83,192
4,45,71,0
4,57,71,96
4,64,75,192
4,57,67,0
4,61,67,18
4,52,95,0
4,57,79,192
4,69,47,178
4,61,67,0
4,64,67,192
4,50,95,2
4,57,95,176
4,65,95,16
4,48,95,192
4,47,95,36
4,55,95,158
4,59,95,192
4,67,95,16
4,64,95,32
4,48,95,0
4,55,95,144
4,59,95,192
4,47,95,34
4,45,95,18
4,53,95,16
4,60,95,194
4,64,95,18
4,46,95,84
4,62,95,0
4,53,95,80
4,58,95,64
4,53,95,18
4,40,95,100
4,56,95,0
4,47,95,112
4,52,95,194
4,56,95,158
4,57,95,32
4,45,95,0
4,52,95,146
4,60,95,160
4,52,95,178
4,43,95,18
4,57,95,2
4,64,95,0
4,52,95,160
4,57,95,158
4,60,95,114
4,41,95,18
4,53,95,2
4,60,95,0
4,48,95,144
4,53,95,160
4,43,95,16
4,50,95,144
4,59,95,48
4,55,95,0
4,55,11,1042
4,48,23,0
4,47,31,98
4,45,31,6
4,43,31,20
4,41,31,4
4,40,31,18
4,52,31,34
4,50,31,0
4,48,31,66
4,45,31,66
4,43,31,0
4,48,23,206
4,55,11,2
4,47,31,98
4,45,31,38
4,43,31,20
4,41,31,6
4,40,31,18
4,52,31,36
4,50,31,16
4,48,31,66
4,45,31,66
4,43,31,2
4,56,19,12
4,49,31,0
4,48,39,98
4,46,39,4
4,44,39,18
4,42,39,2
4,41,39,18
4,53,39,34
4,51,39,0
4,49,39,62
4,46,39,64
4,44,39,2
4,49,31,206
4,56,19,2
4,48,39,178
4,46,39,34
4,44,39,18
4,42,39,0
4,41,39,22
4,53,39,2
4,51,39,20
4,49,39,66
4,46,39,66
4,44,39,2
4,42,123,2
4,54,123,188
4,61,127,192
4,41,127,16
4,56,91,80
4,61,127,192
4,39,127,0
4,53,107,194
