track,note,velocity,time
0,37,84,0
0,68,102,0
0,49,86,0
0,64,77,0
0,61,104,1
0,49,80,1
0,49,86,0
0,64,106,1
0,68,121,1
0,49,75,29
0,49,81,0
0,49,75,29
0,49,81,0
0,49,75,32
0,49,82,0
0,49,78,34
0,49,84,0
0,49,74,28
0,49,80,0
0,49,74,32
0,49,80,0
0,49,73,30
0,49,80,0
0,88,71,32
0,49,76,1
0,49,82,0
0,49,73,31
0,49,80,0
0,49,73,38
0,49,80,0
0,49,74,33
0,49,80,0
0,63,101,6
0,66,119,0
0,66,102,3
0,49,75,2
0,49,81,0
0,49,74,31
0,49,80,0
0,49,73,30
0,49,80,0
0,44,71,33
0,44,77,0
0,64,122,2
0,61,99,1
0,42,94,1
0,42,77,0
0,64,120,0
0,42,79,0
0,42,83,0
0,61,78,0
0,57,95,0
0,42,76,35
0,42,82,0
0,42,75,33
0,42,81,0
0,42,75,32
0,42,81,0
0,42,77,34
0,42,84,0
0,42,74,30
0,42,80,0
0,42,74,31
0,42,80,0
0,42,75,37
0,42,82,0
0,42,78,39
0,42,84,0
0,42,76,30
0,42,82,0
0,42,75,33
0,42,81,0
0,42,75,33
0,42,81,0
0,63,96,5
0,66,119,0
0,59,102,2
0,42,78,1
0,66,117,0
0,42,84,0
0,42,75,35
0,42,82,0
0,42,75,30
0,42,82,0
0,42,75,30
0,42,82,0
0,64,92,1
0,61,96,3
0,68,121,0
0,37,86,1
0,68,110,0
0,49,84,0
0,64,71,0
0,49,76,1
0,49,82,0
0,49,74,32
0,49,80,0
0,49,73,32
0,49,79,0
0,49,75,36
0,49,82,0
0,49,77,34
0,49,84,0
0,49,75,31
0,49,81,0
0,49,76,34
0,49,82,0
0,49,76,29
0,49,82,0
0,49,76,33
0,49,83,0
0,49,75,30
0,49,82,0
0,49,75,33
0,49,81,0
0,49,75,38
0,49,82,0
0,63,103,9
0,49,77,0
0,66,119,0
0,49,83,0
0,59,96,1
0,66,100,1
0,49,75,25
0,49,81,0
0,49,73,33
0,49,80,0
0,44,72,37
0,44,79,0
0,42,72,7
0,42,79,0
0,42,95,2
0,64,116,0
0,42,89,0
0,52,91,0
0,61,85,0
0,61,99,0
0,64,112,1
0,57,95,1
0,42,73,35
0,42,79,0
0,42,76,36
0,42,82,0
0,64,106,0
0,42,74,31
0,42,80,0
0,42,74,33
0,42,81,0
0,61,103,1
0,42,74,31
0,42,80,0
0,42,72,35
0,42,78,0
0,54,103,1
0,42,74,34
0,42,81,0
0,42,73,35
0,42,80,0
0,64,104,1
0,42,74,33
0,42,80,0
0,42,71,30
0,42,78,0
0,42,72,32
0,42,78,0
0,66,102,10
0,63,91,1
0,42,72,1
0,42,79,0
0,59,88,1
0,42,71,33
0,42,77,0
0,61,109,0
0,42,70,19
0,42,76,0
0,61,102,0
0,42,69,2
0,42,75,0
0,63,104,0
0,37,79,2
0,68,96,0
0,49,80,0
0,64,77,0
0,64,100,0
0,61,98,1
0,49,77,1
0,49,80,0
0,64,100,1
0,68,102,1
0,49,72,29
0,49,78,0
0,63,102,0
0,49,72,1
0,49,78,0
0,49,72,4
0,49,79,0
0,64,103,0
0,49,75,34
0,49,81,0
0,63,99,0
0,49,71,3
0,49,77,0
0,64,103,0
0,49,71,1
0,49,77,0
0,49,70,30
0,49,77,0
0,49,73,33
0,49,79,0
0,49,70,31
0,49,77,0
0,64,108,0
0,49,70,2
0,49,77,0
0,49,71,33
0,49,77,0
0,63,95,6
0,66,102,0
0,66,96,3
0,59,98,0
0,49,72,2
0,49,78,0
0,54,110,29
0,49,71,2
0,49,77,0
0,49,70,21
0,49,77,0
0,54,104,1
0,44,68,4
0,44,74,0
0,56,103,0
0,64,102,2
0,61,93,1
0,42,84,1
0,42,74,0
0,64,101,0
0,42,73,0
0,42,79,0
0,57,100,0
0,61,78,0
0,57,89,0
0,64,77,0
0,42,73,3
0,42,79,0
0,64,95,0
0,42,72,3
0,42,78,0
0,64,99,0
0,42,72,2
0,42,78,0
0,64,102,0
0,42,74,3
0,42,81,0
0,69,101,0
0,42,71,1
0,42,77,0
0,42,71,0
0,42,77,0
0,64,106,0
0,42,72,37
0,42,79,0
0,42,75,39
0,42,81,0
0,64,100,0
0,42,73,2
0,42,79,0
0,42,72,33
0,42,78,0
0,42,72,24
0,42,78,0
0,63,90,5
0,66,102,0
0,59,96,2
0,42,75,1
0,66,97,0
0,42,81,0
0,61,104,0
0,42,72,2
0,42,78,0
0,42,72,25
0,42,79,0
0,61,97,0
0,42,72,2
0,42,79,0
0,63,97,0
0,64,86,1
0,61,90,0
0,68,102,0
0,37,79,1
0,68,92,0
0,49,79,0
0,64,71,0
0,64,103,0
0,49,73,1
0,49,77,0
0,49,71,5
0,49,77,0
0,63,94,0
0,49,70,32
0,49,76,0
0,64,91,0
0,49,72,6
0,49,79,0
0,63,93,0
0,49,74,34
0,49,81,0
0,64,103,0
0,49,72,31
0,49,78,0
0,49,73,34
0,49,79,0
0,63,100,0
0,49,73,29
0,49,79,0
0,64,101,0
0,49,73,33
0,49,80,0
0,49,72,30
0,49,79,0
0,64,112,0
0,49,72,17
0,49,78,0
0,64,93,0
0,64,104,0
0,49,72,1
0,49,79,0
0,63,97,9
0,49,74,0
0,66,101,0
0,49,80,0
0,59,90,1
0,66,94,0
0,63,106,0
0,49,72,25
0,49,78,0
0,49,70,13
0,49,77,0
0,59,91,5
0,44,69,11
0,44,76,0
0,61,102,0
0,42,69,7
0,42,76,0
0,42,83,2
0,64,95,0
0,42,85,0
0,52,71,0
0,61,85,0
0,61,93,0
0,64,96,1
0,57,92,1
0,42,70,35
0,42,76,0
0,66,100,0
0,42,73,36
0,42,78,0
0,64,101,0
0,42,71,31
0,42,77,0
0,42,71,33
0,42,78,0
0,61,98,1
0,42,71,31
0,42,77,0
0,42,69,35
0,42,75,0
0,54,98,1
0,42,71,34
0,42,78,0
0,42,70,1
0,42,77,0
0,64,99,1
0,42,71,33
0,42,78,0
0,42,70,30
0,42,76,0
0,42,71,32
0,42,78,0
0,66,98,10
0,63,88,1
0,42,71,1
0,42,77,0
0,59,87,1
0,42,71,33
0,42,77,0
0,61,105,0
0,42,69,23
0,42,75,0
0,61,103,0
0,42,70,5
0,42,77,0
0,63,99,0
0,37,74,14
0,68,96,0
0,49,80,0
0,64,77,0
0,64,108,0
0,61,98,1
0,49,74,0
0,49,77,0
0,64,100,1
0,68,100,1
0,49,72,29
0,49,78,0
0,63,97,0
0,49,72,1
0,49,78,0
0,49,72,4
0,49,79,0
0,64,104,0
0,49,75,34
0,49,81,0
0,63,100,0
0,49,71,3
0,49,77,0
0,64,103,0
0,49,71,2
0,49,76,0
0,49,70,30
0,49,77,0
0,49,73,33
0,49,78,0
0,49,70,31
0,49,75,0
0,64,103,0
0,49,70,2
0,49,77,0
0,49,71,33
0,49,77,0
0,63,95,6
0,66,101,0
0,66,96,3
0,59,98,0
0,49,72,2
0,49,78,0
0,49,71,31
0,49,77,0
0,49,70,30
0,49,77,0
0,54,107,1
0,44,68,11
0,44,74,0
0,56,90,0
0,64,100,2
0,61,93,0
0,42,84,1
0,42,74,0
0,64,97,0
0,42,73,0
0,42,78,0
0,52,75,0
0,57,99,0
0,61,78,0
0,57,89,0
0,64,100,0
0,42,73,3
0,42,78,0
0,64,101,26
0,64,95,0
0,42,72,3
0,42,78,0
0,64,104,0
0,42,72,2
0,42,78,0
0,61,98,23
0,64,102,0
0,42,74,3
0,42,81,0
0,69,96,0
0,42,71,1
0,42,77,0
0,42,71,31
0,42,76,0
0,54,98,0
0,64,106,0
0,42,72,37
0,42,77,0
0,64,99,36
0,42,75,3
0,42,81,0
0,64,106,0
0,42,73,2
0,42,77,0
0,42,72,33
0,42,76,0
0,42,72,33
0,42,76,0
0,63,90,5
0,66,101,0
0,59,96,2
0,42,75,1
0,66,94,0
0,42,76,0
0,42,72,35
0,42,77,0
0,42,72,30
0,42,75,0
0,61,111,0
0,42,72,1
0,42,74,0
0,63,101,0
0,64,86,1
0,61,90,0
0,68,101,0
0,37,79,1
0,68,95,0
0,49,78,0
0,64,71,0
0,64,100,0
0,49,73,1
0,49,76,0
0,49,71,2
0,49,76,0
0,63,97,0
0,49,70,0
0,49,76,0
0,64,94,0
0,49,72,5
0,49,77,0
0,63,94,0
0,49,74,0
0,49,81,0
0,64,103,0
0,49,72,31
0,49,77,0
0,49,73,34
0,49,76,0
0,63,101,0
0,49,73,29
0,49,79,0
0,64,104,0
0,49,73,33
0,49,79,0
0,49,72,30
0,49,77,0
0,49,72,11
0,49,76,0
0,64,112,0
0,49,72,38
0,49,79,0
0,63,97,7
0,49,74,0
0,66,102,0
0,49,80,0
0,59,90,1
0,66,94,1
0,63,102,0
0,49,72,25
0,49,76,0
0,49,70,33
0,49,77,0
0,59,94,1
0,44,69,37
0,44,74,0
0,61,95,0
0,42,69,7
0,42,76,0
0,42,87,2
0,64,99,0
0,42,83,0
0,52,75,0
0,61,85,0
0,61,93,0
0,64,102,1
0,57,89,1
0,42,70,35
0,42,75,0
0,66,107,0
0,42,73,29
0,42,77,0
0,64,101,0
0,42,71,31
0,42,77,0
0,42,71,33
0,42,77,0
0,61,98,1
0,42,71,31
0,42,74,0
0,42,69,35
0,42,73,0
0,54,98,1
0,42,71,34
0,42,74,0
0,42,70,17
0,42,73,0
0,64,99,1
0,42,71,33
0,42,76,0
0,42,69,30
0,42,76,0
0,66,125,2
0,42,71,32
0,42,74,0
0,66,99,10
0,63,91,1
0,42,71,1
0,42,73,0
0,42,86,1
0,54,72,0
0,59,90,0
0,42,70,33
0,42,72,0
0,42,70,34
0,42,75,0
0,42,69,1
0,42,73,0
0,47,63,2
0,59,113,0
0,63,102,0
0,66,102,1
0,47,77,1
0,59,106,0
0,47,72,29
0,66,111,0
0,47,72,1
0,47,72,25
0,66,102,0
0,66,104,0
0,47,75,4
0,66,104,0
0,47,71,3
0,66,102,0
0,47,71,2
0,47,70,1
0,66,95,0
0,45,71,22
0,57,102,0
0,68,105,0
0,45,73,1
0,63,100,0
0,66,98,0
0,57,101,1
0,45,70,31
0,66,98,0
0,45,70,2
0,45,71,33
0,63,99,0
0,45,72,2
0,45,71,10
0,45,70,30
0,59,98,0
0,45,68,1
0,56,112,0
0,68,43,0
0,59,97,1
0,44,71,2
0,44,72,0
0,68,95,0
0,61,99,0
0,64,103,1
0,44,71,35
0,68,92,0
0,44,72,3
0,44,72,32
0,44,74,34
0,44,71,30
0,44,71,31
0,44,72,5
0,52,70,36
0,64,105,0
0,40,75,3
0,40,73,30
0,40,72,33
0,40,72,18
0,59,101,31
0,64,100,0
0,40,75,3
0,68,102,0
0,68,109,0
0,40,72,35
0,69,102,1
0,40,72,30
0,71,97,0
0,40,72,16
0,47,73,2
0,69,50,3
0,66,91,2
0,59,101,0
0,62,98,0
0,69,95,1
0,40,76,1
0,66,102,0
0,69,100,0
0,40,73,1
0,40,71,32
0,40,70,32
0,40,72,36
0,40,74,34
0,40,72,31
0,40,73,34
0,40,73,3
0,68,90,0
0,40,73,18
0,40,73,1
0,64,102,0
0,71,55,0
0,68,91,1
0,64,100,1
0,59,92,1
0,40,72,28
0,40,72,33
0,40,72,38
0,40,74,22
0,68,107,0
0,40,75,1
0,40,72,0
0,69,99,0
0,40,70,1
0,44,78,1
0,71,100,0
0,40,69,4
0,68,103,0
0,45,69,14
0,45,78,2
0,73,58,1
0,68,93,0
0,57,96,1
0,61,93,0
0,64,98,1
0,45,70,35
0,45,73,36
0,45,71,31
0,45,71,15
0,66,107,0
0,45,71,31
0,45,69,35
0,45,71,34
0,57,87,19
0,64,86,0
0,66,93,0
0,61,83,2
0,45,70,1
0,45,78,1
0,45,71,33
0,45,70,34
0,45,71,32
0,45,71,35
0,68,109,0
0,45,71,7
0,69,99,0
0,45,69,3
0,71,99,0
0,45,70,1
0,68,103,0
0,64,98,14
0,57,83,0
0,59,93,0
0,47,66,1
0,64,102,0
0,71,57,0
0,47,74,2
0,47,72,29
0,47,72,29
0,47,72,4
0,66,103,0
0,47,75,34
0,47,71,28
0,47,71,32
0,47,70,0
0,47,59,9
0,63,101,0
0,47,73,1
0,63,90,0
0,66,97,0
0,59,91,1
0,47,70,31
0,47,70,38
0,47,71,33
0,59,109,34
0,47,72,2
0,47,71,31
0,47,70,10
0,59,99,1
0,47,68,1
0,61,103,0
0,59,92,28
0,68,87,0
0,64,98,0
0,52,76,1
0,64,105,0
0,40,74,0
0,40,73,35
0,68,104,0
0,40,72,0
0,40,72,32
0,40,74,34
0,49,64,1
0,49,71,1
0,47,74,21
0,47,71,0
0,44,66,22
0,44,72,2
0,64,98,20
0,59,95,1
0,68,91,0
0,40,73,1
0,40,73,3
0,40,71,30
0,40,72,33
0,40,68,33
0,40,67,34
0,68,107,0
0,47,76,0
0,47,72,2
0,69,99,0
0,49,77,1
0,49,72,0
0,71,100,0
0,50,70,1
0,69,104,0
0,78,45,0
0,69,94,0
0,50,73,1
0,62,103,0
0,66,93,1
0,69,91,2
0,50,71,32
0,50,70,32
0,50,72,36
0,50,74,21
0,66,98,1
0,50,72,31
0,50,73,34
0,50,73,29
0,49,73,12
0,49,77,1
0,61,95,0
0,59,97,0
0,68,105,0
0,77,60,1
0,65,83,0
0,61,91,3
0,68,86,2
0,49,72,30
0,49,72,33
0,49,72,38
0,49,74,18
0,80,71,2
0,68,109,0
0,49,72,35
0,69,99,0
0,49,70,33
0,71,96,0
0,49,69,9
0,68,103,0
0,42,69,25
0,81,64,1
0,57,77,0
0,61,81,0
0,42,78,1
0,64,81,0
0,42,71,35
0,42,73,36
0,42,73,31
0,42,70,9
0,66,104,0
0,42,68,31
0,42,66,35
0,42,65,34
0,73,46,19
0,42,65,0
0,54,69,1
0,64,88,0
0,42,68,0
0,57,63,1
0,64,70,0
0,61,66,3
0,42,69,19
0,42,70,13
0,42,71,20
0,42,72,14
0,68,109,0
0,42,74,15
0,69,95,0
0,42,75,0
0,71,92,0
0,42,76,1
0,68,100,0
0,75,40,8
0,63,93,1
0,59,91,1
0,47,64,1
0,47,70,2
0,66,82,0
0,54,86,3
0,47,66,33
0,47,69,1
0,66,98,0
0,47,71,31
0,47,73,33
0,47,70,31
0,47,68,35
0,47,65,22
0,47,63,35
0,47,71,1
0,47,72,19
0,47,74,13
0,66,114,0
0,47,75,19
0,66,103,0
0,47,74,14
0,63,102,0
0,47,72,15
0,47,71,7
0,59,97,0
0,47,69,1
0,36,120,3
0,40,104,1
0,49,110,0
0,61,102,0
0,68,94,1
0,40,80,0
0,59,95,1
0,64,104,1
0,42,101,26
0,40,78,1
0,40,105,28
0,36,117,0
0,42,120,0
0,64,102,0
0,40,78,1
0,42,94,32
0,40,79,0
0,38,116,30
0,42,112,0
0,40,81,2
0,42,88,25
0,40,77,1
0,42,121,30
0,40,77,0
0,40,77,30
0,35,98,1
0,42,82,0
0,40,105,6
0,36,121,0
0,42,88,0
0,40,79,1
0,35,107,4
0,42,90,0
0,40,77,1
0,28,103,20
0,36,117,0
0,42,125,0
0,40,77,0
0,42,93,33
0,40,77,0
0,39,109,9
0,38,113,0
0,42,101,0
0,40,78,0
0,42,86,4
0,73,107,0
0,40,77,0
0,40,77,18
0,42,120,1
0,73,100,0
0,40,79,1
0,42,85,1
0,48,124,0
0,75,102,0
0,37,119,2
0,36,119,0
0,49,80,0
0,42,90,0
0,76,107,0
0,61,97,1
0,49,80,0
0,64,100,1
0,68,101,1
0,42,86,3
0,49,78,1
0,37,121,6
0,36,118,0
0,42,121,0
0,75,93,0
0,49,78,1
0,42,89,4
0,49,79,0
0,76,101,0
0,38,114,30
0,42,90,0
0,49,81,2
0,42,76,14
0,75,97,0
0,49,77,1
0,42,119,30
0,76,101,0
0,49,77,0
0,49,77,30
0,42,90,1
0,32,117,32
0,36,118,0
0,42,91,0
0,49,79,1
0,35,116,30
0,73,73,0
0,42,81,0
0,49,77,1
0,37,119,13
0,85,74,0
