track,note,velocity,time
2,39,122,4094
2,39,0,114
2,39,123,78
2,39,0,104
2,39,121,88
2,39,0,112
2,39,123,78
2,39,0,114
2,39,122,82
2,39,0,112
2,39,121,76
2,39,0,112
2,39,125,78
2,39,0,108
2,39,123,90
2,39,0,112
2,39,121,80
2,39,0,112
2,39,124,76
2,39,0,112
2,39,121,82
2,39,0,110
2,39,121,82
2,39,0,112
2,39,124,80
2,39,0,114
2,39,123,78
2,39,0,112
2,39,124,78
2,39,0,106
2,39,124,90
2,39,0,104
2,39,121,84
2,39,0,108
2,39,125,82
2,39,0,112
2,39,123,86
2,39,0,112
2,39,121,80
2,39,0,110
2,39,125,78
2,39,0,104
2,39,121,90
2,39,0,106
2,39,124,86
2,39,0,110
2,39,124,82
2,39,0,106
2,39,121,86
2,39,0,110
2,39,124,80
2,39,0,110
2,39,121,86
2,39,0,108
2,39,122,80
2,39,0,110
2,39,121,80
2,39,0,108
2,39,124,90
2,39,0,114
2,39,125,78
2,39,0,6
2,34,113,6
2,34,0,198
2,32,117,186
2,32,0,212
2,31,117,170
2,31,0,230
2,29,116,154
2,29,0,256
2,34,114,132
2,34,0,176
2,34,117,108
2,34,0,70
2,32,113,26
2,32,0,166
2,33,117,28
2,33,0,156
2,34,116,36
2,34,0,166
2,34,114,604
2,34,0,166
2,34,114,120
2,34,0,68
2,32,117,24
2,32,0,160
2,33,116,38
2,33,0,176
2,34,113,16
2,34,0,194
2,39,113,572
2,39,0,182
2,37,114,200
2,37,0,224
2,36,114,160
2,36,0,178
2,34,116,210
2,34,0,4
2,30,116,12
2,30,0,130
2,30,115,158
2,30,0,52
2,30,116,46
2,30,0,96
2,30,115,96
2,30,0,86
2,30,115,106
2,30,0,102
2,35,114,472
2,35,0,94
2,37,113,4
2,37,0,88
2,30,115,4
2,30,0,140
2,30,114,152
2,30,0,52
2,30,114,46
2,30,0,106
2,30,115,82
2,30,0,96
2,30,115,98
2,30,0,122
2,34,116,644
2,34,0,194
2,32,116,190
2,32,0,240
2,31,117,148
2,31,0,232
2,29,114,148
2,29,0,240
2,34,115,146
2,34,0,160
2,34,116,130
2,34,0,78
2,32,114,16
2,32,0,144
2,33,114,46
2,33,0,130
2,34,115,66
2,34,0,150
2,34,115,228
2,34,0,36
2,34,113,20
2,34,0,198
2,32,117,184
2,32,0,212
2,31,117,172
2,31,0,230
2,29,116,152
2,29,0,256
2,34,114,128
2,34,0,176
2,34,117,114
2,34,0,70
2,32,113,28
2,32,0,166
2,33,117,26
2,33,0,156
2,34,116,32
2,34,0,166
2,34,114,604
2,34,0,166
2,34,114,120
2,34,0,68
2,32,117,32
2,32,0,160
2,33,116,28
2,33,0,176
2,34,113,14
2,34,0,194
2,39,113,578
2,39,0,182
2,37,114,202
2,37,0,224
2,36,114,158
2,36,0,178
2,34,116,206
2,34,0,22
2,30,116,16
2,30,0,130
2,30,115,154
2,30,0,52
2,30,116,44
2,30,0,96
2,30,115,98
2,30,0,86
2,30,115,106
2,30,0,102
2,30,115,668
2,30,0,140
2,30,114,146
2,30,0,52
2,30,114,40
2,30,0,106
2,30,115,92
2,30,0,96
2,30,115,96
2,30,0,122
2,34,116,644
2,34,0,194
2,32,116,188
2,32,0,240
2,31,117,144
2,31,0,232
2,29,114,156
2,29,0,240
2,34,115,140
2,34,0,160
2,34,116,128
2,34,0,78
2,32,114,20
2,32,0,144
2,33,114,48
2,33,0,130
2,34,115,62
2,34,0,150
2,34,113,614
2,34,0,198
2,32,117,192
2,32,0,212
2,31,117,170
2,31,0,230
2,29,116,154
2,29,0,256
2,34,114,126
2,34,0,176
2,34,117,114
2,34,0,70
2,32,113,24
2,32,0,166
2,33,117,24
2,33,0,156
2,34,116,42
2,34,0,166
2,34,114,600
2,34,0,166
2,34,114,124
2,34,0,68
2,32,117,26
2,32,0,160
2,33,116,30
2,33,0,176
2,34,113,20
2,34,0,194
2,39,113,574
2,39,0,182
2,37,114,200
2,37,0,224
2,36,114,160
2,36,0,178
2,34,116,204
2,34,0,22
2,30,116,12
2,30,0,130
2,30,115,160
2,30,0,52
2,30,116,46
2,30,0,96
2,30,115,96
2,30,0,86
2,30,115,102
2,30,0,102
2,35,114,476
2,35,0,94
2,37,113,4
2,37,0,88
2,30,115,6
2,30,0,140
2,30,114,146
2,30,0,52
2,30,114,48
2,30,0,106
2,30,115,82
2,30,0,96
2,30,115,94
2,30,0,122
2,34,116,650
2,34,0,194
2,32,116,190
2,32,0,240
2,31,117,142
2,31,0,232
2,29,114,152
2,29,0,240
2,34,115,148
2,34,0,160
2,34,116,124
2,34,0,78
2,32,114,18
2,32,0,144
2,33,114,50
2,33,0,130
2,34,115,62
2,34,0,150
2,34,115,234
2,34,0,40
2,32,114,20
2,32,0,2642
2,37,113,426
2,37,0,724
2,39,116,46
2,39,0,722
2,37,116,42
2,37,0,720
2,39,115,52
2,39,0,478
2,37,114,4
2,37,0,92
2,36,116,2
2,36,0,88
2,34,113,10
2,34,0,92
2,32,114,0
2,32,0,2782
2,34,115,102
2,34,0,180
2,39,115,12
2,39,0,2700
2,36,114,178
2,36,0,94
2,34,117,4
2,34,0,78
2,32,113,16
2,32,0,1088
2,34,114,66
2,34,0,174
2,36,117,14
2,36,0,184
2,29,114,10
2,29,0,1488
2,37,115,50
2,37,0,1492
2,39,124,44
2,39,0,114
2,39,121,74
2,39,0,104
2,39,125,86
2,39,0,112
2,39,125,86
2,39,0,114
2,39,125,78
2,39,0,112
2,39,125,76
2,39,0,112
2,39,125,82
2,39,0,108
2,39,125,84
2,39,0,112
2,39,124,80
2,39,0,112
2,39,124,80
2,39,0,112
2,39,124,78
2,39,0,110
2,39,123,86
2,39,0,112
2,39,122,76
2,39,0,114
2,39,122,76
2,39,0,112
2,39,121,86
2,39,0,106
2,39,123,86
2,39,0,104
2,39,122,84
2,39,0,108
2,39,125,86
2,39,0,112
2,39,125,80
2,39,0,112
2,39,124,80
2,39,0,110
2,39,121,82
2,39,0,104
2,39,123,86
2,39,0,106
2,39,124,90
2,39,0,110
2,39,125,78
2,39,0,106
2,39,123,84
2,39,0,110
2,39,123,88
2,39,0,110
2,39,121,82
2,39,0,108
2,39,121,80
2,39,0,110
2,39,122,84
2,39,0,108
2,39,123,84
2,39,0,114
2,39,121,78
2,39,0,4
2,34,113,4
2,34,0,198
2,32,117,186
2,32,0,212
2,31,117,176
2,31,0,230
2,29,116,150
2,29,0,256
2,34,114,130
2,34,0,176
2,34,117,114
2,34,0,70
2,32,113,24
2,32,0,166
2,33,117,24
2,33,0,156
2,34,116,40
2,34,0,166
2,34,114,602
2,34,0,166
2,34,114,122
2,34,0,68
2,32,117,26
2,32,0,160
2,33,116,32
2,33,0,176
2,34,113,16
2,34,0,194
2,39,113,572
2,39,0,182
2,37,114,206
2,37,0,224
2,36,114,156
2,36,0,178
2,34,116,208
2,34,0,2
2,30,116,14
2,30,0,130
2,30,115,156
2,30,0,52
2,30,116,48
2,30,0,96
2,30,115,92
2,30,0,86
2,30,115,104
2,30,0,102
2,35,114,476
2,35,0,94
2,37,113,6
2,37,0,88
2,30,115,6
2,30,0,140
2,30,114,144
2,30,0,52
2,30,114,48
2,30,0,106
2,30,115,86
2,30,0,96
2,30,115,94
2,30,0,122
2,34,116,650
2,34,0,194
2,32,116,186
2,32,0,240
2,31,117,146
2,31,0,232
2,29,114,152
2,29,0,240
2,34,115,146
2,34,0,160
2,34,116,126
2,34,0,78
2,32,114,14
2,32,0,144
2,33,114,54
2,33,0,130
2,34,115,62
2,34,0,150
2,34,117,616
2,34,0,198
2,32,116,184
2,32,0,212
2,31,113,172
2,31,0,230
2,29,113,158
2,29,0,256
2,34,115,124
2,34,0,176
2,34,116,112
2,34,0,70
2,32,117,28
2,32,0,166
2,33,114,26
2,33,0,156
2,34,115,36
2,34,0,166
2,34,117,598
2,34,0,166
2,34,115,126
2,34,0,68
2,32,117,30
2,32,0,160
2,33,116,28
2,33,0,176
2,34,116,18
2,34,0,194
2,36,116,382
2,36,0,68
2,37,113,30
2,37,0,72
2,39,113,20
2,39,0,182
2,37,117,202
2,37,0,224
2,36,115,164
2,36,0,178
2,34,113,202
2,34,0,22
2,30,115,14
2,30,0,130
2,30,115,160
2,30,0,52
2,30,114,42
2,30,0,96
2,30,117,94
2,30,0,86
2,30,116,110
2,30,0,102
2,30,113,666
2,30,0,140
2,30,117,148
2,30,0,52
2,30,114,42
2,30,0,106
2,30,115,86
2,30,0,96
2,30,114,96
2,30,0,122
2,34,115,644
2,34,0,194
2,32,117,194
2,32,0,240
2,31,117,140
2,31,0,232
2,29,116,154
2,29,0,240
2,34,115,144
2,34,0,160
2,34,114,126
2,34,0,78
2,32,115,22
2,32,0,144
2,33,114,44
2,33,0,130
2,34,114,60
2,34,0,150
2,34,116,622
2,34,0,198
2,32,117,186
2,32,0,212
2,31,117,170
2,31,0,230
2,29,116,154
2,29,0,256
2,34,116,132
2,34,0,176
2,34,115,108
2,34,0,70
2,32,115,26
2,32,0,166
2,33,117,28
2,33,0,156
2,34,115,36
2,34,0,166
2,34,115,604
2,34,0,166
2,34,115,120
2,34,0,68
2,32,116,24
2,32,0,160
2,33,117,38
2,33,0,176
2,34,117,16
2,34,0,194
2,36,115,380
2,36,0,68
2,37,116,24
2,37,0,72
2,39,117,28
2,39,0,182
2,37,115,200
2,37,0,224
2,36,116,160
2,36,0,178
2,34,113,210
2,34,0,4
2,30,117,12
2,30,0,130
2,30,116,158
2,30,0,52
2,30,115,46
2,30,0,96
2,30,117,96
2,30,0,86
2,30,116,106
2,30,0,102
2,35,115,472
2,35,0,76
2,37,113,22
2,37,0,82
2,30,117,10
2,30,0,140
2,30,115,152
2,30,0,52
2,30,115,46
2,30,0,106
2,30,117,82
2,30,0,96
2,30,114,98
2,30,0,122
2,34,115,644
2,34,0,194
2,32,115,190
2,32,0,240
2,31,115,148
2,31,0,232
2,29,117,148
2,29,0,240
2,34,116,146
2,34,0,160
2,34,113,130
2,34,0,78
2,32,117,16
2,32,0,144
2,33,115,46
2,33,0,130
2,34,114,66
2,34,0,150
2,39,113,426
2,39,0,78
2,36,116,16
2,36,0,80
2,32,114,18
2,32,0,2642
2,37,115,428
2,37,0,724
2,39,116,40
2,39,0,722
2,37,113,50
2,37,0,720
2,39,114,46
2,39,0,478
2,36,114,96
2,36,0,88
2,34,113,12
2,34,0,92
2,32,113,6
2,32,0,1506
2,44,115,30
2,44,0,1396
2,39,117,138
2,39,0,2700
2,32,116,368
2,32,0,1088
2,34,117,68
2,34,0,174
2,36,116,18
2,36,0,184
2,29,114,6
2,29,0,1488
2,37,114,50
2,37,0,1492
2,39,121,46
2,39,0,114
2,39,124,74
2,39,0,104
2,39,122,90
2,39,0,112
2,39,122,80
2,39,0,114
2,39,123,78
2,39,0,112
2,39,123,80
2,39,0,112
2,39,121,78
2,39,0,108
2,39,122,88
2,39,0,112
2,39,124,76
2,39,0,112
2,39,124,78
2,39,0,112
2,39,124,86
2,39,0,110
2,39,125,82
2,39,0,112
2,39,124,76
2,39,0,114
2,39,122,80
2,39,0,112
2,39,124,80
2,39,0,106
2,39,125,86
2,39,0,104
2,39,124,88
2,39,0,108
2,39,122,82
2,39,0,112
2,39,123,84
2,39,0,112
2,39,124,76
2,39,0,110
2,39,121,80
2,39,0,104
2,39,121,94
2,39,0,106
2,39,124,86
2,39,0,110
2,39,124,78
2,39,0,106
2,39,125,88
2,39,0,110
2,39,121,82
2,39,0,110
2,39,123,82
2,39,0,108
2,39,125,84
2,39,0,110
2,39,122,80
2,39,0,108
2,39,124,88
2,39,0,114
2,39,124,74
2,39,0,2
2,34,115,8
2,34,0,198
2,32,113,182
2,32,0,212
2,31,113,174
2,31,0,230
2,29,113,154
2,29,0,256
2,34,115,130
2,34,0,176
2,34,115,110
2,34,0,70
2,32,117,22
2,32,0,166
2,33,114,32
2,33,0,156
2,34,116,36
2,34,0,166
2,46,114,4
2,46,0,226
2,34,113,22
2,34,0,198
2,32,117,190
2,32,0,212
2,31,117,168
2,31,0,230
2,29,116,156
2,29,0,256
2,34,114,128
2,34,0,176
2,34,117,110
2,34,0,70
2,32,113,30
2,32,0,166
2,33,117,22
2,33,0,156
2,34,116,34
2,34,0,166
2,34,114,606
2,34,0,166
2,34,114,118
2,34,0,68
2,32,117,32
2,32,0,160
2,33,116,32
2,33,0,176
2,34,113,14
2,34,0,194
2,39,113,578
2,39,0,182
2,37,114,198
2,37,0,224
2,36,114,162
2,36,0,178
2,34,116,206
2,34,0,2
2,30,116,16
2,30,0,130
2,30,115,156
2,30,0,52
2,30,116,40
2,30,0,96
2,30,115,102
2,30,0,86
2,30,115,106
2,30,0,102
2,35,114,472
2,37,113,92
2,35,0,2
2,37,0,86
2,30,115,12
2,30,0,140
2,30,114,150
2,30,0,52
2,30,114,40
2,30,0,106
2,30,115,90
2,30,0,96
2,30,115,92
2,30,0,122
2,34,115,646
2,34,0,160
2,34,116,128
2,34,0,78
2,32,114,20
2,32,0,144
2,33,114,48
2,33,0,130
2,34,115,62
2,34,0,150
2,34,115,614
2,34,0,160
2,34,116,132
2,34,0,78
2,32,114,20
2,32,0,144
2,33,114,44
2,33,0,130
2,34,115,64
2,34,0,150
2,34,115,234
2,34,0,40
2,34,115,16
2,34,0,198
2,32,113,186
2,32,0,212
2,31,117,176
2,31,0,230
2,29,113,150
2,29,0,256
2,34,113,130
2,34,0,176
2,34,114,114
2,34,0,70
2,32,114,24
2,32,0,166
2,33,115,24
2,33,0,156
2,34,116,40
2,34,0,166
2,34,116,602
2,34,0,166
2,34,115,122
2,34,0,68
2,32,116,26
2,32,0,160
2,33,117,32
2,33,0,176
2,34,114,16
2,34,0,194
2,36,117,384
2,36,0,76
2,37,117,18
2,37,0,78
2,39,116,16
2,39,0,182
2,37,116,206
2,37,0,224
2,36,113,156
2,36,0,178
2,34,114,208
2,34,0,2
2,30,115,14
2,30,0,130
2,30,113,156
2,30,0,52
2,30,114,48
2,30,0,96
2,30,116,92
2,30,0,86
2,30,113,104
2,30,0,102
2,35,117,476
2,35,0,94
2,37,114,6
2,37,0,88
2,30,115,6
2,30,0,140
2,30,114,144
2,30,0,52
2,30,115,48
2,30,0,106
2,30,114,86
2,30,0,96
2,30,114,94
2,30,0,122
2,34,117,650
2,34,0,194
2,32,113,186
2,32,0,240
2,31,117,146
2,31,0,232
2,29,117,152
2,29,0,240
2,34,114,146
2,34,0,160
2,34,113,126
2,34,0,78
2,32,115,14
2,32,0,144
2,33,116,54
2,33,0,130
2,34,116,62
2,34,0,14
2,34,117,98
2,34,0,198
2,32,116,184
2,32,0,212
2,31,114,172
2,31,0,230
2,29,114,158
2,29,0,256
2,34,116,124
2,34,0,176
2,34,117,112
2,34,0,70
2,32,115,28
2,32,0,166
2,33,113,26
2,33,0,156
2,34,117,36
2,34,0,166
2,34,115,598
2,34,0,166
2,34,116,126
2,34,0,68
2,32,116,30
2,32,0,160
2,33,117,28
2,33,0,176
2,34,117,18
2,34,0,194
2,36,116,382
2,36,0,76
2,37,113,22
2,37,0,78
2,39,114,14
2,39,0,182
2,37,117,202
2,37,0,224
2,36,116,164
2,36,0,178
2,34,116,202
2,34,0,22
2,30,117,14
2,30,0,130
2,30,116,160
2,30,0,52
2,30,116,42
2,30,0,96
2,30,114,94
2,30,0,86
2,30,115,110
2,30,0,102
2,35,117,474
2,35,0,94
2,37,117,0
2,37,0,88
2,30,116,10
2,30,0,140
2,30,113,148
2,30,0,52
2,30,116,42
2,30,0,106
2,30,115,86
2,30,0,96
2,30,115,96
2,30,0,122
2,34,114,644
2,34,0,194
2,32,117,194
2,32,0,240
2,31,114,140
2,31,0,232
2,29,115,154
2,29,0,240
2,34,114,144
2,34,0,160
2,34,116,126
2,34,0,78
2,32,116,22
2,32,0,144
2,33,115,44
2,33,0,130
2,34,115,60
2,34,0,138
2,51,104,252
2,46,107,0
2,46,0,372
2,51,0,0
2,39,122,10
2,39,0,114
