track,note,velocity,time
2,25,97,112
2,37,103,0
2,25,0,724
2,37,0,10
2,32,107,34
2,32,0,726
2,34,85,42
2,34,0,702
2,30,107,66
2,30,0,694
2,25,111,74
2,25,0,710
2,32,113,58
2,32,0,710
2,34,79,58
2,34,0,724
2,30,103,44
2,30,0,544
2,32,97,32
2,32,0,146
2,27,119,6190
2,27,0,358
2,32,105,26
2,32,0,362
2,37,95,22
2,37,0,342
2,30,103,42
2,30,0,364
2,35,95,20
2,35,0,350
2,41,105,34
2,41,0,348
2,34,113,36
2,34,0,300
2,34,103,84
2,34,0,356
2,39,97,28
2,36,105,384
2,39,0,8
2,36,0,354
2,37,97,22
2,36,105,288
2,37,0,0
2,36,0,80
2,34,101,16
2,34,0,368
2,35,95,16
2,35,0,350
2,41,105,34
2,41,0,348
2,34,103,36
2,34,0,342
2,32,107,42
2,32,0,308
2,30,77,76
2,42,95,384
2,30,0,182
2,30,85,106
2,30,0,82
2,42,0,8
2,32,111,18
2,32,0,568
2,44,127,100
2,44,0,6
2,37,117,2
2,37,0,262
2,37,101,26
2,36,117,96
2,37,0,6
2,36,0,258
2,36,105,24
2,34,111,96
2,36,0,0
2,34,0,191
2,34,105,34
2,34,0,88
2,32,111,8
2,32,0,248
2,32,105,40
2,32,0,94
2,30,117,2
2,30,0,254
2,30,111,28
2,29,117,96
2,30,0,4
2,29,0,77
2,39,119,36
2,39,0,190
2,39,123,98
2,39,0,82
2,32,127,14
2,32,0,108
2,32,123,84
2,32,0,46
2,32,119,50
2,32,0,94
2,37,117,2
2,37,0,262
2,37,101,26
2,36,117,96
2,37,0,6
2,36,0,258
2,36,105,24
2,34,111,96
2,36,0,0
2,34,0,254
2,34,105,34
2,34,0,88
2,32,111,8
2,32,0,248
2,32,105,40
2,32,0,94
2,30,117,2
2,30,0,254
2,30,111,34
2,29,117,96
2,30,0,4
2,29,0,344
2,39,119,36
2,39,0,190
2,39,123,98
2,39,0,82
2,32,127,14
2,32,0,108
2,32,123,84
2,32,0,46
2,32,119,50
2,32,0,94
2,30,117,2
2,42,119,288
2,30,0,126
2,30,115,66
2,42,0,30
2,30,0,12
2,30,117,54
2,42,125,0
2,42,0,62
2,30,0,82
2,37,113,48
2,37,0,190
2,37,117,98
2,37,0,10
2,37,123,86
2,37,0,254
2,37,105,34
2,37,0,40
2,39,123,56
2,39,0,190
2,39,119,98
2,39,0,26
2,39,125,70
2,39,0,210
2,39,123,78
2,39,0,94
2,46,91,0
2,46,0,634
2,27,119,6212
2,27,0,358
2,32,105,26
2,32,0,362
2,37,95,22
2,37,0,342
2,30,103,42
2,30,0,364
2,35,95,20
2,35,0,350
2,41,105,34
2,41,0,348
2,34,113,36
2,34,0,300
2,34,103,84
2,34,0,356
2,39,97,28
2,36,105,384
2,39,0,8
2,36,0,354
2,37,97,22
2,36,105,288
2,37,0,0
2,36,0,80
2,34,101,16
2,34,0,368
2,35,95,16
2,35,0,350
2,41,105,34
2,41,0,348
2,34,103,36
2,34,0,342
2,32,107,42
2,32,0,308
2,30,77,76
2,42,95,384
2,30,0,182
2,30,85,106
2,30,0,82
2,42,0,8
2,32,111,18
2,32,0,568
2,44,127,100
2,44,0,6
2,37,117,2
2,37,0,262
2,37,101,26
2,36,117,96
2,37,0,6
2,36,0,258
2,36,105,24
2,34,111,96
2,36,0,0
2,34,0,254
2,34,105,34
2,34,0,88
2,32,111,8
2,32,0,248
2,32,105,40
2,32,0,94
2,30,117,2
2,30,0,254
2,30,111,34
2,29,117,96
2,30,0,4
2,29,0,344
2,39,119,36
2,39,0,190
2,39,123,98
2,39,0,82
2,32,127,14
2,32,0,108
2,32,123,84
2,32,0,46
2,32,119,50
2,32,0,94
2,37,117,2
2,37,0,262
2,37,101,26
2,36,117,96
2,37,0,6
2,36,0,258
2,36,105,24
2,34,111,96
2,36,0,0
2,34,0,254
2,34,105,34
2,34,0,88
2,32,111,8
2,32,0,248
2,32,105,40
2,32,0,94
2,30,117,2
2,30,0,254
2,30,111,34
2,29,117,96
2,30,0,4
2,29,0,344
2,27,111,36
2,39,101,192
2,27,0,28
2,27,117,68
2,39,0,6
2,32,105,90
2,27,0,4
2,32,0,174
2,40,117,14
2,40,0,184
2,38,117,8
2,38,0,262
2,38,101,26
2,37,117,96
2,38,0,6
2,37,0,258
2,37,105,24
2,35,111,96
2,37,0,0
2,35,0,254
2,35,105,34
2,35,0,88
2,33,111,8
2,33,0,248
2,33,105,40
2,33,0,94
2,31,117,2
2,31,0,254
2,31,111,34
2,30,117,96
2,31,0,4
2,30,0,344
2,40,119,36
2,40,0,190
2,40,123,98
2,40,0,82
2,33,127,14
2,33,0,108
2,33,123,84
2,33,0,46
2,33,119,50
2,33,0,94
2,38,117,2
2,38,0,262
2,38,101,26
2,37,117,96
2,38,0,6
2,37,0,258
2,37,105,24
2,35,111,96
2,37,0,0
2,35,0,254
2,35,105,34
2,35,0,88
2,33,111,8
2,33,0,248
2,33,105,40
2,33,0,94
2,31,117,2
2,31,0,242
2,31,123,46
2,31,0,46
2,31,117,50
2,31,0,174
2,30,111,18
2,30,0,182
2,28,117,10
2,28,0,286
2,40,123,2
2,28,117,48
2,40,0,0
2,33,117,48
2,28,0,8
2,33,0,220
2,45,105,12
2,33,117,48
2,45,0,14
2,33,0,64
2,31,117,18
2,31,0,524
2,38,105,4
2,43,101,48
2,38,0,10
2,43,0,162
2,42,97,20
2,30,75,384
2,30,0,136
2,42,0,0
2,38,97,8
2,42,101,48
2,38,0,6
2,40,105,186
2,42,0,2
2,28,111,190
2,28,0,480
2,35,111,0
2,40,0,10
2,40,93,38
2,35,0,2
2,40,0,44
2,35,115,2
2,35,0,1534
3,49,58,64
3,65,28,0
3,68,40,0
3,73,26,0
3,49,0,764
3,65,0,0
3,73,0,0
3,48,40,4
3,63,46,0
3,72,50,0
3,48,0,764
3,63,0,0
3,68,0,0
3,72,0,0
3,46,52,4
3,61,34,0
3,65,40,0
3,70,50,0
3,46,0,764
3,65,0,0
3,70,0,0
3,42,32,4
3,66,58,0
3,70,50,0
3,42,0,764
3,61,0,0
3,66,0,0
3,70,0,0
3,37,50,4
3,65,34,0
3,68,16,0
3,73,44,0
3,37,0,764
3,65,0,0
3,73,0,0
3,48,40,4
3,63,40,0
3,72,16,0
3,48,0,764
3,63,0,0
3,68,0,0
3,72,0,0
3,46,46,4
3,61,38,0
3,65,26,0
3,70,56,0
3,46,0,764
3,61,0,0
3,65,0,0
3,70,0,0
3,42,50,4
3,61,38,0
3,66,52,0
3,70,56,0
3,70,0,542
3,66,0,24
3,42,0,6
3,61,0,0
3,44,38,4
3,63,50,0
3,68,62,0
3,72,74,0
3,72,0,152
3,63,0,4
3,44,0,2
3,68,0,0
3,61,35,34
3,66,35,0
3,61,0,764
3,66,0,0
3,61,35,4
3,65,35,0
3,61,0,764
3,65,0,0
3,58,35,4
3,63,35,0
3,58,0,324
3,63,0,16
3,58,34,44
3,61,50,0
3,58,0,380
3,61,0,0
3,56,28,4
3,61,32,0
3,61,0,342
3,60,52,42
3,60,0,268
3,56,0,112
3,61,22,4
3,66,34,0
3,61,0,764
3,66,0,0
3,61,34,4
3,65,50,0
3,61,0,764
3,65,0,0
3,58,32,4
3,63,68,0
3,58,0,380
3,63,0,0
3,58,32,4
3,61,50,0
3,58,0,380
3,61,0,0
3,56,50,4
3,61,62,0
3,56,0,380
3,61,0,0
3,56,38,4
3,60,56,0
3,56,0,294
3,60,0,2
3,61,34,88
3,63,50,0
3,66,34,0
3,70,32,0
3,61,0,380
3,63,0,0
3,66,0,0
3,70,0,0
3,60,46,4
3,63,50,0
3,66,34,0
3,63,0,380
3,66,0,0
3,65,52,4
3,68,50,0
3,68,0,348
3,60,0,32
3,65,0,0
3,58,32,4
3,61,56,0
3,65,52,0
3,61,0,380
3,65,0,0
3,63,58,4
3,66,58,0
3,63,0,334
3,66,0,8
3,58,0,38
3,60,58,4
3,65,58,0
3,69,44,0
3,69,0,340
3,60,0,40
3,65,0,0
3,58,52,4
3,61,56,0
3,65,62,0
3,61,0,380
3,62,74,4
3,62,0,348
3,58,0,32
3,65,0,0
3,61,56,4
3,66,52,0
3,70,56,0
3,61,0,380
3,66,0,0
3,70,0,0
3,48,62,4
3,58,20,0
3,63,76,0
3,68,76,0
3,48,0,380
3,58,0,0
3,63,0,0
3,68,0,0
3,49,56,4
3,63,52,0
3,65,56,0
3,68,48,0
3,49,0,380
3,63,0,0
3,65,0,0
3,68,0,0
3,46,76,4
3,56,52,0
3,61,72,0
3,66,76,0
3,46,0,380
3,56,0,0
3,61,0,0
3,66,0,0
3,59,48,4
3,63,52,0
3,66,60,0
3,59,0,380
3,63,0,0
3,66,0,0
3,57,58,4
3,60,54,0
3,65,62,0
3,57,0,380
3,60,0,0
3,65,0,0
3,46,62,4
3,61,64,0
3,65,46,0
3,46,0,380
3,44,72,4
3,44,0,380
3,61,0,0
3,65,0,0
3,58,44,4
3,61,48,0
3,66,56,0
3,58,0,764
3,61,0,0
3,66,0,0
3,58,50,4
3,61,60,0
3,63,46,0
3,66,50,0
3,58,0,764
3,61,0,0
3,63,0,0
3,66,0,0
3,61,50,4
3,65,52,0
3,68,62,0
3,61,0,380
3,65,0,0
3,68,0,0
3,60,44,4
3,65,68,0
3,68,62,0
3,60,0,380
3,68,0,0
3,58,64,4
3,61,76,0
3,58,0,27
3,56,68,4
3,56,0,274
3,61,0,106
3,58,50,4
3,61,76,0
3,66,80,0
3,65,0,10
3,58,0,370
3,61,0,0
3,66,0,0
3,58,50,4
3,61,76,0
3,65,62,0
3,58,0,110
3,61,0,0
3,65,0,0
3,58,50,4
3,63,62,0
3,66,68,0
3,58,0,299
3,63,0,0
3,66,0,0
3,60,68,4
3,63,68,0
3,66,80,0
3,60,0,312
3,63,0,14
3,66,0,0
3,73,76,58
3,73,0,282
3,87,76,6
3,89,76,48
3,87,0,2
3,87,76,46
3,89,0,6
3,87,0,374
3,85,76,4
3,85,0,572
3,84,76,4
3,84,0,180
3,82,76,12
3,82,0,380
3,80,76,4
3,80,0,380
3,78,80,4
3,78,0,572
3,85,80,4
3,85,0,138
3,66,64,54
3,70,64,0
3,66,0,764
3,70,0,0
3,68,74,4
3,73,70,0
3,68,0,764
3,73,0,0
3,70,44,4
3,73,50,0
3,75,62,0
3,70,0,764
3,73,0,0
3,75,0,0
3,60,40,4
3,63,40,0
3,65,40,0
3,68,40,0
3,60,0,764
3,63,0,0
3,65,0,0
3,68,0,0
3,61,40,4
3,66,40,0
3,61,0,764
3,66,0,0
3,61,40,4
3,65,40,0
3,61,0,764
3,65,0,0
3,58,40,4
3,63,22,0
3,58,0,324
3,63,0,14
3,58,34,46
3,61,50,0
3,58,0,380
3,61,0,0
3,56,28,4
3,61,32,0
3,61,0,342
3,60,52,42
3,60,0,270
3,56,0,110
3,70,56,4
3,70,0,190
3,68,52,2
3,68,0,190
3,66,60,2
3,66,0,190
3,65,60,2
3,65,0,190
3,63,56,2
3,63,0,190
3,61,52,2
3,61,0,190
3,60,50,2
3,60,0,190
3,61,72,2
3,61,0,190
3,61,34,1538
3,63,50,0
3,66,34,0
3,70,32,0
3,61,0,380
3,63,0,0
3,66,0,0
3,70,0,0
3,60,46,4
3,63,50,0
3,66,34,0
3,63,0,380
3,66,0,0
3,65,52,4
3,68,50,0
3,68,0,348
3,60,0,32
3,65,0,0
3,58,32,4
3,61,56,0
3,65,52,0
3,61,0,380
3,65,0,0
3,63,58,4
3,66,58,0
3,63,0,334
3,66,0,8
3,58,0,38
3,60,58,4
3,65,58,0
3,69,44,0
3,69,0,340
3,60,0,40
3,65,0,0
3,58,52,4
3,61,56,0
3,65,62,0
3,61,0,380
3,62,74,4
3,62,0,348
3,58,0,32
3,65,0,0
3,61,56,4
3,66,52,0
3,70,56,0
3,61,0,380
3,66,0,0
3,70,0,0
3,48,62,4
3,58,20,0
3,63,76,0
3,68,76,0
3,48,0,380
3,58,0,0
3,63,0,0
3,68,0,0
3,49,56,4
3,63,52,0
3,65,56,0
3,68,48,0
3,49,0,380
3,63,0,0
3,65,0,0
3,68,0,0
3,46,76,4
3,56,52,0
3,61,72,0
3,66,76,0
3,46,0,380
3,56,0,0
3,61,0,0
3,66,0,0
3,59,48,4
3,63,52,0
3,66,60,0
3,59,0,380
3,63,0,0
3,66,0,0
3,57,58,4
3,60,54,0
3,65,62,0
3,57,0,380
3,60,0,0
3,65,0,0
3,46,62,4
3,61,64,0
3,65,46,0
3,46,0,380
3,44,72,4
3,44,0,380
3,61,0,0
3,65,0,0
3,58,44,4
3,61,48,0
3,66,56,0
3,58,0,764
3,61,0,0
3,66,0,0
3,58,50,4
3,61,60,0
3,63,46,0
3,66,50,0
3,58,0,764
3,61,0,0
3,63,0,0
3,66,0,0
3,61,50,4
3,65,52,0
3,68,62,0
3,61,0,380
3,65,0,0
3,68,0,0
3,60,44,4
3,65,68,0
3,68,62,0
3,60,0,380
3,68,0,0
3,58,64,4
3,61,76,0
3,58,0,380
3,56,68,4
3,56,0,274
3,61,0,106
3,58,50,4
3,61,76,0
3,66,80,0
3,65,0,10
3,58,0,370
3,61,0,0
3,66,0,0
3,58,50,4
3,61,76,0
3,65,62,0
3,58,0,380
3,61,0,0
3,65,0,0
3,58,50,4
3,63,62,0
3,66,68,0
3,58,0,380
3,63,0,0
3,66,0,0
3,60,68,4
3,63,68,0
3,66,80,0
3,60,0,312
3,63,0,14
3,66,0,0
3,73,76,58
3,73,0,282
3,87,76,6
3,89,76,48
3,87,0,2
3,87,76,46
3,89,0,6
3,87,0,374
3,85,76,4
3,85,0,572
3,84,76,4
3,84,0,180
3,82,76,12
3,82,0,380
3,80,76,4
3,80,0,380
3,70,62,4
3,75,68,0
3,70,0,380
3,75,0,0
3,75,76,4
3,80,80,0
3,85,76,0
3,75,0,162
3,85,0,4
3,80,0,18
3,76,72,8
3,81,90,0
3,86,94,0
3,86,0,146
3,81,0,6
3,76,0,2
3,86,72,38
3,93,76,0
3,93,0,1136
3,86,0,6
3,85,90,10
3,93,58,0
3,85,0,380
3,93,0,0
3,85,94,4
3,83,90,192
3,85,0,6
3,83,0,154
3,83,86,32
3,83,0,186
3,81,76,6
3,81,0,958
3,81,68,2
3,86,90,0
3,81,0,286
3,88,108,2
3,86,0,6
3,90,98,42
3,88,0,6
3,90,0,30
3,88,94,12
3,88,0,182
3,93,98,10
3,93,0,188
3,81,76,4
3,86,64,0
3,81,0,764
3,86,0,0
3,74,56,4
3,81,68,0
3,83,60,0
3,81,0,544
3,83,0,10
3,78,60,22
3,81,48,0
3,78,0,178
3,81,0,0
3,74,0,10
3,74,52,4
3,76,60,0
3,79,60,0
3,81,62,0
3,74,0,764
3,76,0,0
3,79,0,0
3,81,0,0
3,59,62,4
3,62,58,0
3,67,62,0
3,59,0,764
3,62,0,0
3,67,0,0
3,57,46,4
3,62,58,0
3,66,62,0
3,57,0,764
3,62,0,0
3,66,0,0
3,59,4,4
3,62,58,0
3,64,50,0
3,67,40,0
3,59,0,764
3,62,0,0
3,64,0,0
3,67,0,0
3,61,52,4
3,62,68,0
3,66,58,0
3,61,0,1532
3,62,0,0
3,66,0,0
4,58,91,6335
4,58,0,48
4,61,101,0
4,61,0,60
4,61,87,36
4,61,0,28
4,61,95,20
4,61,0,74
4,58,87,22
4,58,0,36
4,61,101,12
4,61,0,332
4,61,77,52
4,61,0,24
4,61,91,24
4,61,0,34
4,61,105,14
4,61,0,72
4,61,91,24
4,61,0,30
4,61,91,18
4,63,83,144
4,61,0,6
4,63,0,24
4,63,109,18
4,63,0,86
4,61,77,10
4,61,0,228
4,56,95,60
4,56,0,20
4,56,101,28
4,56,0,76
4,54,91,20
4,53,65,192
4,54,0,6
4,53,0,28
4,53,91,62
4,51,83,96
4,53,0,20
4,51,0,12
4,49,101,16
4,49,0,128
4,58,91,16
4,58,0,86
4,56,95,10
4,56,0,414
4,58,105,306
4,58,0,26
