track,note,velocity,time
1,35,69,855
1,35,0,767
1,28,73,1
1,28,0,761
1,32,66,7
1,32,0,764
1,34,64,4
1,34,0,770
1,37,93,9214
1,37,0,17
1,30,102,1
1,30,0,348
1,32,92,20
1,32,0,383
1,34,77,1
1,34,0,759
1,36,76,9
1,36,0,767
1,37,93,1
1,37,0,15
1,30,102,1
1,30,0,348
1,32,92,20
1,32,0,383
1,34,77,1
1,34,0,759
1,27,76,9
1,27,0,751
1,35,87,17
1,35,0,767
1,34,85,1
1,34,0,767
1,33,81,1
1,33,0,767
1,32,89,1
1,32,0,767
1,37,83,1
1,37,0,767
1,30,77,1
1,30,0,383
1,32,79,1
1,32,0,383
1,37,81,1
1,37,0,767
1,30,89,1
1,30,0,383
1,32,92,1
1,32,0,321
1,35,97,63
1,35,0,245
1,35,81,43
1,35,0,35
1,35,84,61
1,35,0,335
1,35,86,49
1,35,0,264
1,35,81,24
1,35,0,33
1,35,82,63
1,35,0,370
1,32,77,14
1,32,0,247
1,32,66,41
1,32,0,32
1,32,72,64
1,32,0,381
1,34,81,3
1,34,0,253
1,34,77,35
1,34,0,32
1,34,84,64
1,34,0,358
1,35,90,26
1,35,0,245
1,35,81,43
1,35,0,35
1,35,84,61
1,35,0,335
1,35,86,49
1,35,0,264
1,35,81,24
1,35,0,33
1,35,82,63
1,35,0,370
1,32,77,14
1,32,0,247
1,32,66,41
1,32,0,32
1,32,72,64
1,32,0,381
1,34,81,3
1,34,0,253
1,34,77,35
1,34,0,32
1,34,84,64
1,34,0,358
1,35,97,26
1,35,0,258
1,35,93,30
1,35,0,30
1,35,97,66
1,35,0,366
1,34,74,18
1,34,0,241
1,34,74,47
1,34,0,29
1,34,93,67
1,34,0,383
1,33,78,1
1,33,0,243
1,33,93,45
1,33,0,29
1,33,89,67
1,33,0,379
1,32,91,5
1,32,0,233
1,32,102,55
1,32,0,28
1,32,74,68
1,32,0,191
1,34,75,1
1,34,0,95
1,36,78,1
1,36,0,95
1,37,98,1
1,37,0,241
1,37,89,47
1,37,0,29
1,37,98,67
1,37,0,371
1,30,106,13
1,30,0,255
1,30,87,33
1,30,0,88
1,32,106,8
1,32,0,278
1,32,67,10
1,32,0,94
1,34,111,2
1,34,0,247
1,34,102,41
1,34,0,35
1,34,98,61
1,34,0,381
1,36,91,3
1,36,0,249
1,36,100,39
1,36,0,27
1,36,87,69
1,36,0,259
1,36,74,29
1,36,0,88
1,37,102,8
1,37,0,245
1,37,95,43
1,37,0,31
1,37,98,65
1,37,0,276
1,37,89,12
1,37,0,85
1,30,98,11
1,30,0,260
1,30,86,28
1,30,0,66
1,32,86,30
1,32,0,357
1,34,91,27
1,34,0,239
1,34,66,49
1,34,0,34
1,34,85,62
1,34,0,191
1,32,92,1
1,32,0,190
1,30,104,2
1,30,0,264
1,32,95,24
1,32,0,47
1,32,93,6
1,32,0,267
1,32,66,21
1,32,0,73
1,37,98,23
1,37,0,240
1,37,79,48
1,37,0,33
1,37,92,63
1,37,0,278
1,37,74,10
1,37,0,9
1,30,92,8
1,30,0,262
1,32,78,26
1,32,0,49
1,32,85,13
1,32,0,969
1,37,70,1536
1,37,0,25
2,80,95,13
2,80,0,64
2,67,1,150
2,67,0,139
2,73,88,0
2,71,72,2
2,71,0,244
2,73,0,99
2,59,66,14251
2,63,73,0
2,54,53,5
2,54,0,763
2,56,66,0
2,59,0,0
2,61,68,0
2,63,0,0
2,64,65,0
2,59,67,768
2,61,0,0
2,63,55,0
2,64,0,0
2,54,57,768
2,58,75,0
2,59,0,0
2,61,67,0
2,63,0,0
2,56,0,2
2,58,0,766
2,59,80,0
2,61,0,0
2,63,67,0
2,66,63,0
2,54,0,10
2,56,63,758
2,59,0,0
2,61,54,0
2,63,0,0
2,64,62,0
2,66,0,0
2,56,0,768
2,56,53,0
2,59,67,0
2,61,0,0
2,63,73,0
2,64,0,0
2,54,63,768
2,56,0,0
2,58,58,0
2,59,0,0
2,61,75,0
2,63,0,0
2,58,0,768
2,59,74,0
2,61,0,0
2,63,75,0
2,66,82,0
2,54,0,3
2,58,70,743
2,61,82,4
2,63,0,3
2,59,0,11
2,61,0,743
2,58,0,6
2,61,73,3
2,57,72,2
2,66,0,1
2,66,75,0
2,61,0,758
2,66,0,3
2,56,78,5
2,57,0,1
2,61,78,2
2,66,81,0
2,60,95,378
2,61,0,8
2,65,86,385
2,61,83,2
2,60,0,4
2,66,0,4
2,63,84,361
2,60,84,2
2,61,0,2
2,65,0,8
2,54,66,374
2,56,0,0
2,58,72,1
2,60,0,2
2,61,86,1
2,63,0,7
2,54,0,370
2,56,82,4
2,63,83,0
2,60,83,2
2,58,0,4
2,61,0,2
2,60,0,369
2,58,86,1
2,61,71,3
2,66,77,0
2,56,0,4
2,63,0,0
2,65,77,96
2,66,0,6
2,56,82,667
2,63,87,3
2,60,85,2
2,58,0,4
2,61,0,4
2,65,0,0
2,56,0,756
2,56,72,1
2,61,68,0
2,65,83,1
2,60,0,3
2,63,0,2
2,56,0,2
2,63,85,371
2,60,65,4
2,65,0,2
2,61,0,4
2,54,71,378
2,61,79,2
2,58,70,2
2,60,0,2
2,63,0,3
2,56,71,375
2,54,0,2
2,60,72,1
2,63,70,1
2,58,0,3
2,61,0,5
2,58,76,369
2,61,84,1
2,66,74,2
2,56,0,2
2,60,0,2
2,63,0,2
2,65,81,92
2,66,0,8
2,63,84,468
2,65,0,6
2,61,0,175
2,63,0,8
2,54,63,4
2,61,83,4
2,54,0,368
2,56,68,3
2,63,79,4
2,60,67,2
2,58,0,2
2,61,0,4
2,56,0,52
2,56,70,2
2,61,70,2
2,65,74,1
2,60,0,1
2,63,0,3
2,63,78,374
2,60,68,2
2,65,0,0
2,61,0,8
2,56,0,361
2,54,70,17
2,58,69,1
2,60,0,3
2,61,84,1
2,63,0,6
2,54,0,360
2,58,0,8
2,56,53,13
2,61,0,0
2,63,55,3
2,60,54,3
2,56,0,16
2,60,0,0
2,63,0,232
2,37,76,341
2,49,77,1
2,63,40,1
2,68,41,1
2,65,56,2
2,61,33,2
2,37,0,41
2,49,0,2
2,63,0,64
2,65,0,0
2,68,0,0
2,61,0,4
3,63,71,4383
3,63,0,38
3,63,75,20
3,63,0,32
3,63,71,12
3,63,0,33
3,64,77,4
3,64,0,40
3,64,87,14
3,64,0,39
3,63,75,8
3,63,0,34
3,63,70,16
3,63,0,59
3,61,52,2
3,61,0,127
3,59,80,40
3,59,0,62
3,61,73,14
3,61,0,153
3,61,63,71
3,61,0,41
3,63,71,9
3,63,0,41
3,61,70,10
3,61,0,40
3,61,61,19
3,61,0,85
3,61,44,16
3,61,0,53
3,59,47,389
3,59,0,31
3,59,80,14
3,59,0,29
3,59,80,13
3,59,0,27
3,59,83,8
3,59,0,33
3,59,70,14
3,59,0,25
3,59,83,9
3,59,0,26
3,59,64,17
3,59,0,48
3,59,64,16
3,59,0,33
3,59,52,19
3,59,0,42
3,59,48,22
3,59,0,55
3,59,74,236
3,59,0,33
3,59,93,14
3,59,0,28
3,59,93,18
3,59,0,39
3,63,79,17
3,63,0,42
3,61,75,10
3,61,0,41
3,61,70,21
3,59,52,159
3,61,0,1
3,59,0,134
3,63,73,245
3,63,0,42
3,63,83,21
3,63,0,33
3,63,73,12
3,63,0,44
3,64,80,14
3,64,0,36
3,63,74,8
3,63,0,33
3,63,73,16
3,63,0,63
3,61,60,8
3,61,0,90
3,59,67,14
3,59,0,77
3,54,58,13
3,54,0,75
3,54,60,14
3,54,0,92
3,63,70,171
3,63,0,46
3,61,70,19
3,61,0,39
3,61,61,19
3,61,0,83
3,61,46,19
3,61,0,102
3,59,66,373
3,59,0,41
3,59,95,15
3,59,0,48
3,59,96,18
3,59,0,31
3,59,95,11
3,59,0,29
3,59,81,14
3,59,0,71
3,59,54,29
3,59,0,86
3,59,75,297
3,59,0,49
3,59,96,27
3,59,0,34
3,59,100,14
3,59,0,36
3,63,79,16
3,63,0,31
3,61,88,14
3,61,0,38
3,61,74,17
3,63,64,148
3,61,0,2
3,63,0,167
3,66,81,266
3,66,0,45
3,66,83,15
3,66,0,31
3,66,90,14
3,66,0,52
3,68,88,13
3,68,0,33
3,68,83,14
3,68,0,29
3,66,76,8
3,66,0,32
3,66,79,16
3,66,0,56
3,64,69,4
3,63,76,59
3,64,0,3
3,63,0,184
3,66,76,36
3,66,0,52
3,66,93,29
3,66,0,63
3,66,90,20
3,66,0,46
3,66,86,27
3,63,64,184
3,66,0,8
3,63,0,3
3,66,90,372
3,66,0,44
3,66,86,27
3,66,0,45
3,66,79,19
3,66,0,29
3,66,83,15
3,66,0,27
3,66,76,22
3,66,0,65
3,64,65,2
3,63,57,54
3,64,0,1
3,63,0,89
3,66,86,219
3,66,0,44
3,66,107,21
3,66,0,37
3,66,101,19
3,66,0,48
3,66,107,26
3,66,0,40
3,66,88,21
3,66,0,39
3,66,88,29
3,65,76,192
3,66,0,2
3,65,0,272
3,65,86,12
3,65,0,34
3,65,87,14
3,65,0,25
3,65,91,15
3,65,0,29
3,65,106,20
3,65,0,50
3,66,90,12
3,66,0,38
3,65,95,8
3,65,0,29
3,65,93,18
3,65,0,69
3,63,74,6
3,63,0,147
3,61,95,6
3,61,0,131
3,61,95,13
3,61,0,202
3,65,83,3
3,65,0,123
3,63,81,7
3,61,74,156
3,63,0,2
3,61,0,3
3,61,90,279
3,61,0,39
3,61,86,17
3,61,0,33
3,61,84,17
3,61,0,24
3,61,84,17
3,61,0,22
3,61,84,15
3,61,0,21
3,61,88,18
3,61,0,25
3,61,78,25
3,61,0,69
3,61,61,16
3,61,0,29
3,61,111,383
3,61,0,42
3,61,102,23
3,61,0,39
3,63,90,23
3,63,0,38
3,63,88,2
3,63,0,53
3,63,84,24
3,63,0,142
3,65,80,0
3,65,0,165
3,68,108,171
3,68,0,45
3,68,104,19
3,68,0,44
3,70,111,14
3,70,0,33
3,70,115,19
3,70,0,31
3,68,121,16
3,68,0,36
3,68,107,20
3,68,0,52
3,66,86,11
3,66,0,136
3,65,102,8
3,65,0,111
3,66,101,18
3,66,0,188
3,68,93,12
3,68,0,73
3,66,107,19
3,66,0,159
3,65,78,6
3,65,0,1
3,65,95,375
3,65,0,36
3,65,90,16
3,65,0,33
3,65,98,15
3,65,0,22
3,65,93,17
3,65,0,23
3,65,90,18
3,65,0,23
3,65,93,16
3,65,0,23
3,65,85,19
3,63,78,73
3,65,0,3
3,63,0,44
3,61,71,2
3,61,0,131
3,63,102,243
3,63,0,38
3,63,89,25
3,63,0,42
3,63,89,18
3,63,0,29
3,63,95,33
3,63,0,105
3,63,76,16
3,63,0,50
3,63,101,413
3,63,0,31
3,63,104,17
3,63,0,29
3,63,86,18
3,63,0,33
3,64,87,13
3,64,0,26
3,64,91,13
3,64,0,33
3,63,95,8
3,63,0,33
3,63,79,11
3,63,0,43
3,63,98,15
3,63,0,37
3,64,90,12
3,64,0,8
3,64,98,10
3,64,0,35
3,63,98,8
3,63,0,35
3,61,86,11
3,61,0,47
3,61,107,17
3,61,0,38
3,61,98,26
3,61,0,99
3,61,74,16
3,61,0,38
3,61,86,575
3,61,0,32
3,61,104,16
3,61,0,27
3,61,115,17
3,61,0,43
3,61,98,14
3,61,0,31
3,61,93,15
3,61,0,92
3,61,70,10
3,61,0,54
3,61,83,387
3,61,0,32
3,61,111,22
3,61,0,29
3,61,115,17
3,61,0,42
3,61,115,24
3,61,0,38
3,63,98,16
3,63,0,48
3,63,104,8
3,63,0,138
3,63,83,11
3,63,0,66
3,65,100,1
3,65,0,42
3,65,95,13
3,65,0,29
3,65,95,16
3,65,0,35
3,66,84,15
3,66,0,35
3,65,90,11
3,65,0,27
3,65,95,22
3,65,0,61
3,63,86,18
3,63,0,136
3,61,95,21
3,61,0,125
3,63,102,25
3,63,0,163
3,65,89,16
3,65,0,52
3,65,91,21
3,65,0,38
3,63,84,20
3,63,0,52
3,63,83,19
3,61,79,71
3,63,0,1
3,61,0,143
3,61,92,9
3,61,0,114
3,61,92,21
3,61,0,265
3,63,101,1366
3,63,0,31
3,63,101,22
3,63,0,32
3,63,86,20
3,63,0,37
3,64,87,9
3,64,0,37
3,64,89,14
3,64,0,36
3,63,93,8
3,63,0,35
3,63,93,15
3,63,0,54
3,61,88,8
3,61,0,60
3,59,100,17
3,59,0,48
3,61,101,24
3,61,0,90
3,61,120,149
3,61,0,37
3,61,115,19
3,61,0,42
3,61,104,14
3,61,0,21
3,61,95,16
3,61,0,27
3,63,107,12
3,63,0,38
3,61,101,12
3,61,0,35
3,61,88,21
3,61,0,92
3,61,64,4
3,61,0,35
3,59,102,390
3,59,0,29
3,59,111,34
3,59,0,36
3,59,102,23
3,59,0,29
3,59,104,16
3,59,0,32
3,59,98,12
3,59,0,27
3,59,96,10
3,59,0,27
3,59,93,14
3,59,0,73
3,59,74,11
3,59,0,27
3,59,102,290
3,59,0,36
3,59,98,31
3,59,0,33
3,59,96,21
3,59,0,45
3,63,111,21
3,63,0,42
3,61,111,14
3,61,0,42
3,61,125,21
3,59,95,127
3,61,0,1
3,59,0,91
3,63,107,315
3,63,0,33
3,63,107,29
3,63,0,31
3,63,111,21
3,63,0,29
3,63,95,19
3,63,0,31
3,64,89,16
3,64,0,31
3,63,86,11
3,63,0,31
3,63,88,20
3,63,0,46
3,61,86,12
3,61,0,117
3,59,93,4
3,59,0,113
3,54,90,82
3,54,0,85
3,54,95,23
3,54,0,35
3,54,95,21
3,54,0,35
3,63,115,10
3,63,0,32
3,61,78,14
3,61,0,31
3,61,101,17
3,61,0,112
3,61,74,15
3,61,0,35
3,59,96,410
3,59,0,33
3,59,109,25
3,59,0,37
3,59,100,21
3,59,0,27
3,59,106,12
3,59,0,23
3,59,95,13
3,59,0,33
3,59,102,12
3,59,0,29
3,59,100,27
3,59,0,83
3,59,69,13
3,59,0,27
3,59,96,318
3,59,0,37
3,59,109,33
3,59,0,30
3,59,104,20
3,59,0,37
3,63,111,7
3,63,0,31
3,61,115,10
3,61,0,40
3,61,88,20
3,63,102,146
3,61,0,3
3,64,102,100
3,63,0,6
3,64,0,119
3,66,115,157
3,66,0,36
3,66,115,20
3,66,0,29
3,66,125,17
3,66,0,45
3,68,120,15
3,68,0,29
3,68,108,16
3,68,0,30
3,66,98,11
3,66,0,28
3,66,111,18
3,66,0,52
3,64,95,8
3,64,0,44
3,63,95,2
3,63,0,142
3,66,115,6
3,66,0,79
3,66,115,17
3,66,0,60
3,66,111,15
3,66,0,43
3,66,111,25
3,63,78,107
3,66,0,5
3,63,0,12
3,66,102,438
3,66,0,44
3,66,115,25
3,66,0,46
3,66,107,23
3,66,0,27
3,66,89,14
3,66,0,27
3,66,107,14
3,66,0,35
3,66,104,17
3,66,0,21
3,66,101,16
3,66,0,23
3,66,111,20
3,64,77,57
3,66,0,3
3,63,74,40
3,64,0,2
3,63,0,71
3,66,120,255
3,66,0,38
3,66,120,29
3,66,0,39
3,66,120,17
3,66,0,45
3,66,115,28
3,66,0,37
3,66,120,19
3,66,0,37
3,66,115,1
3,65,96,170
3,66,0,3
3,65,0,211
3,65,95,53
3,65,0,31
3,65,111,15
3,65,0,27
3,65,106,16
3,65,0,29
3,65,123,15
3,65,0,54
3,66,104,14
3,66,0,37
3,65,104,13
3,65,0,33
3,65,104,21
3,65,0,75
3,63,98,10
3,63,0,151
3,61,117,10
3,61,0,125
3,61,117,21
3,61,0,8
3,65,98,11
3,65,0,118
3,63,111,18
3,61,86,148
3,63,0,0
3,61,0,6
3,61,121,292
3,61,0,37
3,61,115,19
3,61,0,46
3,61,107,16
3,61,0,23
3,61,120,18
3,61,0,23
3,61,115,17
3,61,0,24
3,61,107,19
3,61,0,25
3,61,125,29
3,61,0,81
3,61,107,11
3,61,0,35
3,61,115,290
3,61,0,44
3,61,115,21
3,61,0,42
3,63,115,21
3,63,0,60
3,63,120,3
3,63,0,50
3,63,120,24
3,65,95,136
3,63,0,6
3,66,120,130
