track,note,velocity,time
0,61,110,748
0,36,120,20
0,42,109,0
0,70,69,0
0,42,103,0
0,54,102,0
0,36,0,24
0,70,0,0
0,42,0,2
0,61,0,44
0,66,92,6
0,61,100,18
0,42,45,2
0,49,68,0
0,61,99,0
0,70,38,0
0,61,97,4
0,61,85,0
0,42,0,20
0,70,0,0
0,66,0,34
0,66,89,17
0,73,89,1
0,68,93,17
0,42,107,3
0,70,107,0
0,61,62,0
0,68,102,0
0,68,103,0
0,68,89,0
0,42,0,24
0,70,0,0
0,66,0,42
0,73,0,10
0,66,67,0
0,54,65,19
0,42,50,1
0,70,48,0
0,70,100,0
0,70,88,0
0,70,93,1
0,70,89,1
0,42,0,22
0,70,0,0
0,54,0,15
0,66,0,9
0,61,113,5
0,70,42,18
0,53,59,0
0,37,126,1
0,42,111,0
0,42,0,1
0,41,97,0
0,70,0,22
0,37,0,1
0,42,0,0
0,49,0,29
0,61,0,15
0,66,80,8
0,49,49,18
0,42,49,1
0,70,48,1
0,54,0,8
0,61,0,7
0,42,0,8
0,70,0,1
0,66,0,36
0,66,89,12
0,73,77,4
0,61,72,19
0,42,109,1
0,70,64,0
0,42,0,24
0,70,0,0
0,66,0,39
0,66,83,14
0,73,0,13
0,54,56,5
0,42,50,0
0,70,37,0
0,42,0,24
0,70,0,0
0,70,0,36
0,61,0,4
0,66,0,5
0,70,0,2
0,68,0,3
0,68,0,3
0,61,0,2
0,61,108,0
0,61,0,1
0,53,0,9
0,42,109,7
0,70,55,0
0,51,104,0
0,61,0,1
0,36,127,0
0,39,100,0
0,41,0,1
0,42,0,22
0,70,0,0
0,36,0,1
0,70,0,10
0,68,0,2
0,70,0,12
0,68,0,3
0,61,0,8
0,49,0,2
0,66,73,15
0,61,0,14
0,54,0,1
0,58,68,2
0,42,54,2
0,58,100,0
0,70,38,0
0,49,61,0
0,58,109,0
0,58,94,1
0,42,0,23
0,70,0,0
0,66,0,38
0,66,89,11
0,73,85,4
0,65,65,16
0,42,109,3
0,70,113,0
0,61,48,1
0,65,79,0
0,65,79,1
0,65,82,0
0,42,0,22
0,70,0,0
0,66,0,40
0,66,77,13
0,73,0,12
0,54,62,6
0,42,55,1
0,70,50,0
0,66,71,0
0,66,84,1
0,66,74,0
0,66,107,2
0,42,0,21
0,70,0,0
0,66,0,49
0,61,99,5
0,70,49,18
0,42,113,0
0,37,127,1
0,49,80,0
0,37,93,3
0,51,0,5
0,39,0,5
0,70,0,10
0,42,0,0
0,37,0,1
0,49,0,21
0,61,0,16
0,61,0,15
0,66,76,0
0,54,0,3
0,49,72,14
0,42,49,2
0,70,33,0
0,42,0,24
0,70,0,0
0,66,0,31
0,66,89,18
0,73,81,3
0,70,51,20
0,42,100,0
0,61,50,1
0,70,0,23
0,42,0,0
0,66,0,40
0,66,86,13
0,73,0,3
0,70,34,16
0,42,48,0
0,54,71,1
0,70,0,23
0,42,0,0
0,58,0,17
0,65,0,0
0,66,0,1
0,49,0,5
0,66,0,21
0,61,102,9
0,66,0,1
0,58,0,5
0,65,0,5
0,37,0,1
0,70,58,7
0,42,105,0
0,47,85,0
0,36,127,0
0,35,93,0
0,70,0,23
0,42,0,0
0,58,0,1
0,36,0,0
0,58,0,5
0,66,0,19
0,65,0,14
0,49,0,8
0,61,0,5
0,65,0,0
0,66,89,0
0,66,0,1
0,54,82,17
0,54,97,1
0,70,37,1
0,42,50,0
0,49,49,0
0,54,100,2
0,54,85,2
0,54,0,11
0,70,0,9
0,42,0,0
0,61,0,19
0,66,0,16
0,66,89,13
0,73,82,4
0,61,93,18
0,61,87,2
0,42,109,0
0,70,111,0
0,61,97,2
0,61,90,1
0,61,86,1
0,42,0,20
0,70,0,0
0,66,0,40
0,66,90,13
0,73,0,3
0,63,79,13
0,63,97,1
0,70,54,2
0,42,55,0
0,63,86,1
0,54,74,1
0,63,87,1
0,70,0,21
0,42,0,0
0,66,0,54
0,61,102,0
0,46,71,17
0,70,46,1
0,37,126,0
0,42,113,1
0,34,101,1
0,47,0,5
0,35,0,2
0,70,0,15
0,37,0,0
0,42,0,1
0,49,0,21
0,61,0,14
0,66,76,16
0,42,50,20
0,70,43,0
0,49,52,1
0,54,0,7
0,61,0,2
0,42,0,14
0,70,0,0
0,66,0,39
0,66,89,9
0,73,93,5
0,61,72,19
0,42,103,0
0,70,48,0
0,42,0,24
0,70,0,0
0,66,0,40
0,73,0,6
0,66,81,7
0,54,54,19
0,42,50,0
0,70,40,0
0,36,105,0
0,42,0,24
0,70,0,0
0,36,0,0
0,61,0,18
0,63,0,5
0,54,0,3
0,46,0,1
0,66,0,15
0,61,110,12
0,59,95,17
0,44,108,0
0,54,0,1
0,42,107,0
0,70,59,0
0,36,121,0
0,54,0,1
0,61,0,0
0,32,105,0
0,61,0,1
0,63,0,2
0,63,0,0
0,34,0,0
0,42,0,20
0,70,0,0
0,36,0,0
0,49,0,35
0,61,0,6
0,66,87,12
0,51,92,17
0,42,51,2
0,70,38,0
0,54,0,1
0,49,49,1
0,61,0,4
0,59,0,12
0,42,0,6
0,70,0,0
0,54,0,29
0,66,0,9
0,66,89,10
0,73,89,4
0,61,0,15
0,54,74,3
0,42,105,2
0,70,97,0
0,61,72,1
0,63,0,11
0,42,0,12
0,70,0,0
0,66,0,40
0,66,86,13
0,73,0,3
0,59,87,13
0,54,66,1
0,42,64,2
0,70,61,0
0,42,0,24
0,70,0,0
0,66,0,43
0,61,110,10
0,44,0,11
0,49,75,7
0,70,47,1
0,42,113,0
0,37,101,0
0,54,115,2
0,32,0,4
0,70,0,18
0,42,0,0
0,54,0,5
0,51,0,7
0,61,0,25
0,49,0,2
0,66,87,13
0,54,80,20
0,42,57,0
0,70,40,0
0,71,74,0
0,51,62,1
0,49,50,0
0,68,80,1
0,59,0,1
0,54,0,13
0,54,0,3
0,54,0,3
0,42,0,2
0,70,0,0
0,61,0,1
0,66,0,1
0,66,89,23
0,71,0,3
0,68,0,0
0,73,91,2
0,54,50,18
0,42,109,1
0,70,52,0
0,61,71,2
0,54,35,0
0,68,89,2
0,71,74,0
0,54,0,16
0,42,0,4
0,70,0,0
0,66,0,40
0,68,0,12
0,71,0,0
0,66,93,1
0,73,0,5
0,54,30,12
0,70,41,2
0,59,75,0
0,54,60,0
0,46,80,0
0,70,83,11
0,66,75,0
0,54,0,8
0,70,0,5
0,46,0,0
0,37,0,31
0,66,0,18
0,61,110,2
0,54,0,1
0,66,97,5
0,70,83,0
0,54,94,1
0,61,88,1
0,36,120,0
0,42,109,0
0,70,69,0
0,42,103,0
0,61,0,2
0,49,0,0
0,54,74,0
0,54,0,2
0,51,0,3
0,59,0,5
0,49,0,1
0,70,0,11
0,36,0,1
0,42,0,1
0,61,0,11
0,66,92,7
0,61,100,18
0,42,45,1
0,49,68,0
0,70,38,1
0,61,56,3
0,61,97,1
0,70,0,10
0,66,0,0
0,42,0,9
0,70,0,1
0,66,0,34
0,66,89,17
0,73,89,1
0,68,93,17
0,42,107,2
0,70,107,0
0,61,62,0
0,68,103,0
0,66,82,2
0,42,0,22
0,70,0,0
0,66,0,43
0,73,0,10
0,66,67,0
0,66,0,17
0,54,65,2
0,42,50,0
0,70,48,0
0,65,85,0
0,70,88,1
0,70,93,1
0,42,0,22
0,70,0,0
0,66,0,24
0,61,113,6
0,66,0,14
0,54,0,0
0,65,85,1
0,53,88,1
0,70,42,2
0,37,126,0
0,42,111,0
0,42,0,2
0,41,97,0
0,81,115,0
0,70,0,22
0,37,0,0
0,42,0,0
0,81,0,16
0,49,0,14
0,61,0,15
0,66,80,8
0,49,49,18
0,42,49,1
0,70,48,0
0,81,80,0
0,54,0,9
0,61,0,7
0,42,0,8
0,70,0,0
0,81,0,12
0,66,0,25
0,66,89,11
0,73,77,5
0,61,0,19
0,65,0,0
0,61,72,0
0,42,109,0
0,70,64,0
0,81,50,0
0,73,90,0
0,66,89,1
0,54,0,1
0,42,0,22
0,70,0,0
0,81,0,11
0,66,0,29
0,66,83,14
0,73,0,2
0,73,0,10
0,81,30,5
0,54,56,1
0,42,50,0
0,70,37,0
0,63,90,1
0,42,0,23
0,70,0,0
0,81,0,1
0,61,0,39
0,66,0,5
0,61,108,9
0,65,0,5
0,70,0,0
0,53,0,1
0,61,0,1
0,42,109,11
0,70,55,0
0,36,127,0
0,39,100,0
0,51,87,0
0,63,88,0
0,61,0,1
0,58,80,0
0,66,77,0
0,41,0,1
0,42,0,22
0,70,0,0
0,36,0,0
0,70,0,1
0,68,0,1
0,70,0,1
0,68,0,3
0,61,0,8
0,49,0,2
0,66,73,15
0,61,0,13
0,54,0,2
0,42,54,1
0,58,100,0
0,70,38,0
0,49,61,0
0,58,109,0
0,42,0,1
0,70,0,0
0,66,0,38
0,66,89,10
0,73,85,4
0,63,0,8
0,66,0,2
0,42,109,10
0,70,113,0
0,61,48,0
0,73,79,1
0,65,79,1
0,65,82,0
0,66,66,3
0,42,0,19
0,70,0,0
0,66,0,37
0,73,0,1
0,66,0,2
0,66,77,13
0,73,0,12
0,66,67,1
0,61,80,1
0,54,62,4
0,42,55,1
0,70,50,0
0,66,74,0
0,66,107,2
0,42,0,22
0,70,0,0
0,66,0,48
0,61,99,6
0,61,70,0
0,63,0,4
0,49,70,0
0,51,0,3
0,70,49,1
0,42,113,0
0,37,127,0
0,37,93,1
0,39,0,9
0,70,0,10
0,42,0,0
0,37,0,0
0,49,0,22
0,61,0,5
0,61,0,6
0,66,76,0
0,54,0,3
0,49,72,14
0,42,49,2
0,70,33,0
0,42,0,1
0,70,0,0
0,66,0,17
0,66,0,4
0,61,0,6
0,66,89,11
0,73,81,4
0,70,51,20
0,42,100,0
0,61,50,1
0,70,0,23
0,42,0,0
0,66,0,40
0,66,86,12
0,73,0,4
0,70,34,16
0,42,48,0
0,54,71,1
0,70,0,23
0,42,0,0
0,61,0,28
0,49,0,1
0,58,0,5
0,66,0,0
0,54,60,5
0,66,0,5
0,61,102,9
0,58,0,6
0,37,0,6
0,59,68,0
0,63,100,4
0,63,83,0
0,70,58,3
0,66,92,0
0,42,105,0
0,47,92,0
0,59,88,0
0,36,127,1
0,35,93,0
0,70,0,23
0,42,0,0
0,36,0,1
0,58,0,5
0,66,0,18
0,65,0,15
0,49,0,8
0,61,0,5
0,65,0,0
0,66,89,0
0,66,0,1
0,54,82,17
0,70,37,2
0,42,50,0
0,49,49,0
0,54,100,2
0,54,0,13
0,70,0,9
0,42,0,0
0,61,0,19
0,66,0,2
0,66,89,8
0,73,82,4
0,42,109,8
0,70,111,0
0,61,97,2
0,61,90,1
0,61,86,1
0,42,0,20
0,70,0,0
0,59,0,19
0,63,0,2
0,66,0,19
0,66,90,7
0,73,0,3
0,63,79,13
0,70,54,3
0,42,55,0
0,63,67,1
0,63,86,0
0,54,74,1
0,58,71,0
0,70,0,22
0,42,0,0
0,59,0,16
0,66,0,38
0,61,102,0
0,46,67,9
0,47,0,7
0,70,46,2
0,81,115,0
0,37,126,0
0,42,113,1
0,58,85,1
0,34,101,0
0,35,0,7
0,70,0,15
0,37,0,0
0,42,0,1
0,81,0,6
0,49,0,2
0,61,0,13
0,66,76,16
0,81,80,18
0,42,50,2
0,70,43,0
0,49,52,1
0,54,0,2
0,61,0,2
0,42,0,6
0,70,0,0
0,81,0,10
0,66,0,29
0,66,89,1
0,73,93,1
0,81,50,1
0,61,72,2
0,42,103,0
0,70,48,0
0,42,0,24
0,70,0,0
0,81,0,9
0,66,0,1
0,73,0,4
0,66,81,7
0,54,0,13
0,81,30,3
0,54,54,3
0,42,50,0
0,70,40,0
0,36,105,0
0,58,0,17
0,63,0,1
0,81,0,5
0,42,0,1
0,70,0,0
0,36,0,0
0,66,0,17
0,63,0,3
0,58,0,0
0,46,0,3
0,66,0,19
0,61,110,12
0,44,104,17
0,54,106,0
0,54,0,1
0,42,107,0
0,70,59,0
0,36,121,0
0,54,0,1
0,61,0,0
0,32,105,0
0,61,0,1
0,59,93,1
0,63,0,1
0,63,0,0
0,34,0,0
0,42,0,20
0,70,0,0
0,36,0,0
0,49,0,35
0,61,0,6
0,66,87,12
0,42,51,19
0,70,38,0
0,54,0,1
0,49,49,1
0,51,70,1
0,59,0,1
0,61,0,2
0,42,0,18
0,70,0,0
0,54,0,1
0,66,0,37
0,66,89,10
0,73,89,4
0,42,105,20
0,70,97,0
0,61,72,1
0,54,86,1
0,42,0,22
0,70,0,0
0,66,0,26
0,66,86,13
0,73,0,3
0,59,82,14
0,54,66,0
0,42,64,2
0,70,61,0
0,42,0,24
0,70,0,0
0,66,0,43
0,61,110,10
0,44,0,3
0,49,81,11
0,51,0,5
0,70,47,0
0,42,113,0
0,37,101,0
0,54,115,2
0,32,0,4
0,70,0,18
0,42,0,0
0,54,0,5
0,61,0,30
0,49,0,2
0,59,0,2
0,66,87,11
0,51,70,17
0,54,80,3
0,42,57,0
0,70,40,0
0,49,50,1
0,54,0,5
0,54,0,13
0,54,0,3
0,42,0,2
0,70,0,0
0,61,0,1
0,66,0,24
0,66,89,23
0,73,91,5
0,54,46,14
0,54,50,4
0,42,109,1
0,70,52,0
0,61,71,2
0,54,0,18
0,42,0,4
0,70,0,0
0,66,0,40
0,66,93,13
0,73,0,5
0,54,30,12
0,70,41,2
0,54,60,0
0,46,80,0
0,68,100,0
0,54,0,19
0,70,0,5
0,46,0,0
0,37,0,31
0,68,0,0
0,66,0,18
0,61,110,4
0,54,0,14
0,51,0,5
0,36,120,0
0,42,109,0
0,70,69,0
0,42,103,0
0,54,102,0
0,68,84,0
0,49,0,1
0,49,0,1
0,61,0,0
0,54,0,2
0,70,0,20
0,36,0,1
0,42,0,1
0,68,0,43
0,61,0,1
0,66,92,7
0,61,100,18
0,42,45,1
0,49,68,0
0,61,99,0
0,66,59,0
0,70,38,1
0,61,97,4
0,61,85,0
0,42,0,19
0,70,0,1
0,66,0,13
0,66,0,11
0,66,74,5
0,66,89,12
0,73,89,1
0,68,93,17
0,42,107,2
0,70,107,0
0,61,62,0
0,68,102,0
0,68,103,0
0,68,89,1
0,42,0,23
0,70,0,0
0,66,0,43
0,73,0,10
0,66,67,0
0,54,65,19
0,42,50,0
0,70,48,0
0,70,100,0
0,70,88,1
0,70,93,1
0,70,89,1
0,42,0,21
0,70,0,0
0,66,0,23
0,54,0,16
0,66,0,8
0,61,113,6
0,70,42,18
0,53,59,0
0,37,126,0
0,42,111,0
0,42,0,2
0,41,97,0
0,70,0,22
0,37,0,0
0,42,0,0
0,49,0,30
0,61,0,15
0,66,80,8
0,49,49,18
0,42,49,1
0,70,48,0
0,54,0,9
0,61,0,7
0,42,0,8
0,70,0,0
0,66,0,37
0,66,89,11
0,73,77,5
0,61,72,19
0,42,109,0
0,70,64,0
0,42,0,24
0,70,0,0
0,66,0,40
0,66,83,14
0,73,0,12
0,54,56,6
0,42,50,0
0,70,37,0
0,68,79,0
0,42,0,24
0,70,0,0
0,68,0,16
0,70,0,20
0,61,0,4
0,66,0,5
0,70,0,2
0,68,0,3
0,68,0,2
0,61,108,2
0,61,0,1
0,61,0,1
0,53,0,9
0,42,109,7
0,70,55,0
0,51,104,0
0,36,127,0
0,39,100,0
0,68,73,0
0,61,0,1
0,41,0,1
0,42,0,22
0,70,0,0
0,36,0,0
0,70,0,11
0,68,0,2
0,70,0,12
0,68,0,3
0,61,0,8
0,49,0,2
0,66,73,15
0,61,0,13
0,54,0,2
0,58,68,2
0,42,54,2
0,58,100,0
0,70,38,0
0,49,61,0
0,58,109,0
0,58,94,0
0,70,47,0
0,68,0,10
0,42,0,14
0,70,0,0
0,70,0,14
0,66,0,14
0,70,79,2
0,66,89,8
0,73,85,4
0,65,65,17
0,42,109,3
0,70,113,0
0,61,48,0
0,65,79,0
0,65,79,2
0,65,82,0
0,42,0,22
0,70,0,0
0,66,0,40
0,66,77,13
0,73,0,12
0,54,62,6
0,42,55,1
0,70,50,0
0,66,71,0
0,66,84,0
0,66,74,0
