track,note,velocity,time
3,33,107,2448
3,33,0,176
3,40,108,202
3,40,0,192
3,28,107,196
3,28,0,210
3,35,103,176
3,35,0,202
3,26,110,186
3,26,0,204
3,35,109,181
3,35,0,220
3,33,108,156
3,33,0,204
3,33,94,81
3,33,0,36
3,28,117,59
3,28,0,132
3,32,99,60
3,32,0,156
3,33,106,43
3,33,0,176
3,40,108,202
3,40,0,192
3,28,107,196
3,28,0,210
3,35,103,176
3,35,0,202
3,26,110,186
3,26,0,204
3,35,108,181
3,35,0,220
3,33,109,156
3,33,0,204
3,40,118,176
3,40,0,84
3,33,109,108
3,33,0,100
3,30,107,99
3,30,0,176
3,37,108,202
3,37,0,192
3,28,107,196
3,28,0,210
3,35,106,168
3,35,0,202
3,38,110,186
3,38,0,204
3,35,109,189
3,35,0,220
3,33,109,156
3,33,0,204
3,33,94,81
3,33,0,36
3,28,116,59
3,28,0,132
3,32,99,52
3,32,0,156
3,33,107,51
3,33,0,176
3,40,108,202
3,40,0,192
3,28,106,188
3,28,0,210
3,35,111,176
3,35,0,202
3,30,114,186
3,30,0,204
3,37,119,181
3,37,0,220
3,38,115,164
3,38,0,84
3,37,114,111
3,37,0,100
3,38,115,84
3,38,0,80
3,40,114,120
3,40,0,100
3,33,116,84
3,33,0,176
3,40,109,210
3,40,0,192
3,28,115,188
3,28,0,210
3,35,110,176
3,35,0,202
3,33,116,182
3,33,0,176
3,40,109,210
3,40,0,192
3,40,105,102
3,40,0,25
3,33,104,71
3,33,0,108
3,32,110,84
3,32,0,102
3,30,115,90
3,30,0,82
3,28,106,110
3,28,0,89
3,33,107,103
3,33,0,176
3,40,109,202
3,40,0,192
3,28,106,196
3,28,0,210
3,35,103,176
3,35,0,202
3,26,110,186
3,26,0,204
3,35,108,181
3,35,0,220
3,33,109,156
3,33,0,204
3,33,95,81
3,33,0,36
3,28,116,59
3,28,0,132
3,32,98,60
3,32,0,156
3,33,107,43
3,33,0,176
3,40,109,202
3,40,0,192
3,28,106,196
3,28,0,210
3,35,102,176
3,35,0,202
3,26,111,186
3,26,0,204
3,35,108,181
3,35,0,220
3,33,109,156
3,33,0,204
3,40,119,87
3,40,0,4
3,33,108,92
3,33,0,100
3,32,109,92
3,32,0,100
3,30,106,92
3,30,0,176
3,37,108,202
3,37,0,192
3,28,107,196
3,28,0,210
3,35,107,168
3,35,0,202
3,38,110,186
3,38,0,204
3,35,108,189
3,35,0,220
3,33,109,156
3,33,0,204
3,33,95,81
3,33,0,36
3,28,116,59
3,28,0,132
3,32,98,52
3,32,0,156
3,33,107,51
3,33,0,176
3,40,108,202
3,40,0,192
3,28,107,188
3,28,0,210
3,35,111,176
3,35,0,202
3,30,114,186
3,30,0,204
3,37,119,181
3,37,0,220
3,38,114,164
3,38,0,84
3,37,114,111
3,37,0,100
3,38,115,84
3,38,0,80
3,40,115,120
3,40,0,100
3,33,116,84
3,33,0,176
3,40,108,210
3,40,0,192
3,28,115,188
3,28,0,210
3,35,111,176
3,35,0,202
3,33,116,182
3,33,0,176
3,40,108,210
3,40,0,192
3,40,91,102
3,40,0,25
3,45,104,71
3,45,0,76
3,42,111,116
3,42,0,52
3,40,115,140
3,40,0,82
3,37,106,110
3,37,0,89
3,33,107,103
3,33,0,176
3,40,108,202
3,40,0,192
3,28,106,196
3,28,0,210
3,35,103,176
3,35,0,202
3,26,111,186
3,26,0,204
3,35,108,181
3,35,0,220
3,33,108,156
3,33,0,204
3,33,95,81
3,33,0,36
3,28,117,59
3,28,0,132
3,32,98,60
3,32,0,156
3,33,106,43
3,33,0,176
3,40,109,202
3,40,0,192
3,28,106,196
3,28,0,210
3,35,103,176
3,35,0,202
3,26,111,186
3,26,0,204
3,35,108,181
3,35,0,220
3,33,109,156
3,33,0,204
3,40,118,87
3,40,0,4
3,33,108,92
3,33,0,100
3,32,109,92
3,32,0,100
3,30,107,92
3,30,0,176
3,37,108,202
3,37,0,192
3,28,106,196
3,28,0,210
3,35,107,168
3,35,0,202
3,38,111,186
3,38,0,204
3,35,108,189
3,35,0,220
3,33,108,156
3,33,0,204
3,33,95,81
3,33,0,36
3,28,116,59
3,28,0,132
3,32,99,52
3,32,0,156
3,33,107,51
3,33,0,176
3,40,108,202
3,40,0,192
3,28,107,188
3,28,0,210
3,35,110,176
3,35,0,202
3,30,114,186
3,30,0,204
3,37,119,181
3,37,0,220
3,38,115,164
3,38,0,84
3,37,114,111
3,37,0,100
3,38,114,84
3,38,0,80
3,40,115,120
3,40,0,100
3,33,117,84
3,33,0,176
3,40,108,210
3,40,0,192
3,28,114,188
3,28,0,210
3,35,111,176
3,35,0,202
3,33,116,182
3,33,0,176
3,40,109,210
3,40,0,192
3,33,115,198
3,33,0,134
3,40,110,58
3,40,0,124
3,37,113,68
3,37,0,84
3,33,110,108
3,33,0,90
3,30,106,102
3,30,0,176
3,42,109,210
3,42,0,192
3,37,107,196
3,37,0,210
3,32,106,160
3,32,0,202
3,38,110,186
3,38,0,204
3,35,109,189
3,35,0,220
3,33,109,156
3,33,0,204
3,33,94,81
3,33,0,36
3,28,116,59
3,28,0,132
3,32,99,52
3,32,0,156
3,33,106,51
3,33,0,176
3,40,109,202
3,40,0,192
3,28,107,188
3,28,0,210
3,35,110,176
3,35,0,202
3,38,115,194
3,38,0,204
3,35,118,181
3,35,0,220
3,33,114,156
3,33,0,167
3,33,115,124
3,33,0,37
3,28,115,51
3,28,0,80
3,32,114,120
3,32,0,100
3,30,116,92
3,30,0,176
3,42,109,202
3,42,0,192
3,37,115,196
3,37,0,210
3,32,110,168
3,32,0,202
3,38,116,182
3,38,0,181
3,35,109,203
3,35,0,192
3,33,104,192
3,33,0,149
3,33,111,147
3,33,0,37
3,28,115,59
3,28,0,85
3,32,118,107
3,32,0,89
3,33,117,95
3,33,0,176
3,40,108,210
3,40,0,192
3,28,114,188
3,28,0,210
3,35,111,176
3,35,0,202
3,30,117,182
3,30,0,176
3,37,108,210
3,37,0,192
3,30,76,102
3,30,0,30
3,38,125,64
3,38,0,94
3,37,115,100
3,37,0,93
3,38,114,99
3,38,0,93
3,40,120,99
3,40,0,93
3,33,117,99
3,33,0,176
3,40,108,210
3,40,0,192
3,28,115,188
3,28,0,210
3,35,111,176
3,35,0,202
3,33,116,182
3,33,0,181
3,40,109,203
3,40,0,192
3,33,104,96
3,33,0,25
3,45,104,71
3,45,0,61
3,44,111,131
3,44,0,61
3,42,115,131
3,42,0,85
3,40,118,107
3,40,0,89
3,33,106,103
3,33,0,176
3,40,109,202
3,40,0,192
3,28,107,196
3,28,0,210
3,35,102,176
3,35,0,202
3,26,110,186
3,26,0,204
3,35,109,181
3,35,0,220
3,33,108,156
3,33,0,204
3,33,95,81
3,33,0,36
3,28,117,59
3,28,0,132
3,32,98,60
3,32,0,156
3,33,107,43
3,33,0,176
3,40,108,202
3,40,0,192
3,28,106,196
3,28,0,210
3,35,103,176
3,35,0,202
3,26,111,186
3,26,0,204
3,35,108,181
3,35,0,220
3,33,108,156
3,33,0,204
3,40,119,176
3,40,0,84
3,33,109,108
3,33,0,100
3,30,106,99
3,30,0,176
3,37,108,202
3,37,0,192
3,28,107,196
3,28,0,210
3,35,106,168
3,35,0,202
3,38,111,186
3,38,0,204
3,35,109,189
3,35,0,220
3,33,108,156
3,33,0,204
3,33,95,81
3,33,0,36
3,28,116,59
3,28,0,132
3,32,98,52
3,32,0,156
3,33,107,51
3,33,0,176
3,40,109,202
3,40,0,192
3,28,106,188
3,28,0,210
3,35,110,176
3,35,0,202
3,30,115,186
3,30,0,204
3,37,119,181
3,37,0,220
3,38,114,164
3,38,0,84
3,37,114,111
3,37,0,100
3,38,115,84
3,38,0,80
3,40,114,120
3,40,0,100
3,33,117,84
3,33,0,176
3,40,109,210
3,40,0,192
3,28,114,188
3,28,0,210
3,35,111,176
3,35,0,202
3,33,116,182
3,33,0,176
3,40,108,210
3,40,0,192
3,40,105,102
3,40,0,25
3,33,105,71
3,33,0,108
3,32,110,84
3,32,0,102
3,30,114,90
3,30,0,82
3,28,107,110
3,28,0,89
3,33,107,103
3,33,0,176
3,40,108,202
3,40,0,192
3,28,106,196
3,28,0,210
3,35,103,176
3,35,0,202
3,26,110,186
3,26,0,204
3,35,109,181
3,35,0,220
3,33,109,156
3,33,0,204
3,33,94,81
3,33,0,36
3,28,117,59
3,28,0,132
3,32,98,60
3,32,0,156
3,33,106,43
3,33,0,176
3,40,109,202
3,40,0,192
3,28,107,196
3,28,0,210
3,35,102,176
3,35,0,202
3,26,110,186
3,26,0,204
3,35,109,181
3,35,0,220
3,33,109,156
3,33,0,204
3,40,118,87
3,40,0,4
3,33,108,92
3,33,0,100
3,32,109,92
3,32,0,100
3,30,106,92
3,30,0,176
3,37,109,202
3,37,0,192
3,28,107,196
3,28,0,210
3,35,106,168
3,35,0,202
3,38,111,186
3,38,0,204
3,35,108,189
3,35,0,220
3,33,108,156
3,33,0,204
3,33,95,81
3,33,0,36
3,28,117,59
3,28,0,132
3,32,98,52
3,32,0,156
3,33,106,51
3,33,0,176
3,40,109,202
3,40,0,192
3,28,107,188
3,28,0,210
3,35,110,176
3,35,0,202
3,30,114,186
3,30,0,204
3,37,119,181
3,37,0,220
3,38,114,164
3,38,0,104
3,42,115,91
3,42,0,104
3,45,115,80
3,45,0,96
3,38,114,104
3,38,0,120
3,33,117,64
3,33,0,176
3,40,108,210
3,40,0,192
3,28,114,188
3,28,0,210
3,35,111,176
3,35,0,202
3,33,117,182
3,33,0,176
3,40,108,210
3,40,0,192
3,40,90,102
3,40,0,25
3,45,105,71
3,45,0,76
3,44,111,116
3,44,0,72
3,42,114,120
3,42,0,82
3,40,106,110
3,40,0,89
3,33,107,103
3,33,0,176
3,40,108,202
3,40,0,192
3,28,107,196
3,28,0,210
3,35,103,176
3,35,0,202
3,26,110,186
3,26,0,204
3,35,109,181
3,35,0,220
3,33,108,156
3,33,0,204
3,33,94,81
3,33,0,36
3,28,117,59
3,28,0,132
3,32,99,60
3,32,0,156
3,33,106,43
3,33,0,176
3,40,108,202
3,40,0,192
3,28,107,196
3,28,0,210
3,35,103,176
3,35,0,202
3,26,110,186
3,26,0,204
3,35,108,181
3,35,0,220
3,33,109,156
3,33,0,204
3,40,118,176
3,40,0,84
3,33,109,108
3,33,0,100
3,30,107,99
3,30,0,176
3,37,108,202
3,37,0,192
3,28,107,196
3,28,0,210
3,35,106,168
3,35,0,202
3,38,110,186
3,38,0,204
3,35,109,189
3,35,0,220
3,33,109,156
3,33,0,204
3,33,94,81
3,33,0,36
3,28,116,59
3,28,0,132
3,32,99,52
3,32,0,156
3,33,107,51
3,33,0,176
3,40,108,202
3,40,0,192
3,28,106,188
3,28,0,210
3,35,111,176
3,35,0,202
3,30,114,186
3,30,0,204
3,37,119,181
3,37,0,220
3,38,115,164
3,38,0,84
3,37,114,111
3,37,0,100
3,38,115,84
3,38,0,80
3,40,114,120
3,40,0,100
3,33,116,84
3,33,0,176
3,40,109,210
3,40,0,192
3,28,115,188
3,28,0,210
3,35,110,176
3,35,0,202
3,33,116,182
3,33,0,176
3,40,109,210
3,40,0,192
3,40,105,102
3,40,0,25
3,33,104,71
3,33,0,108
3,32,110,84
3,32,0,102
3,30,115,90
3,30,0,82
3,28,106,110
3,28,0,89
3,33,107,103
3,33,0,176
3,33,109,208
3,33,0,192
3,40,106,184
3,40,0,209
3,35,103,175
3,35,0,202
3,38,110,182
3,38,0,204
3,33,108,185
3,33,0,220
3,33,113,164
3,33,0,204
3,28,109,176
3,28,0,192
3,33,106,199
3,33,0,176
3,40,108,202
3,40,0,192
3,28,107,196
3,28,0,210
3,35,103,176
3,35,0,202
3,38,110,178
3,38,0,204
3,45,108,181
3,45,0,200
3,33,109,184
3,33,0,204
3,40,108,175
3,40,0,184
3,30,107,208
3,30,0,176
3,37,109,202
3,37,0,192
3,28,106,196
3,28,0,210
3,35,107,168
3,35,0,202
3,38,110,186
3,38,0,204
3,45,108,181
3,45,0,220
3,33,109,164
3,33,0,204
3,28,117,176
3,28,0,208
3,33,106,183
3,33,0,176
3,45,108,202
3,45,0,192
3,28,107,188
3,28,0,210
3,35,111,176
3,35,0,202
3,30,114,186
3,30,0,204
3,37,118,181
3,37,0,220
3,38,115,164
3,38,0,84
3,37,114,111
3,37,0,100
3,38,115,84
3,38,0,80
3,40,115,120
3,40,0,100
3,33,116,84
3,33,0,176
3,40,109,210
3,40,0,192
3,28,114,188
3,28,0,210
3,35,110,176
3,35,0,202
3,33,117,182
3,33,0,176
3,40,109,210
3,40,0,192
3,40,90,102
3,40,0,25
3,33,106,60
3,33,0,251
3,40,105,44
3,40,0,60
3,33,113,40
3,33,0,136
3,32,102,58
3,32,0,136
3,30,106,54
3,30,0,176
3,42,109,210
3,42,0,192
3,37,106,196
3,37,0,210
3,32,107,160
3,32,0,202
3,38,111,186
3,38,0,204
3,35,108,189
3,35,0,220
3,33,109,156
3,33,0,204
3,33,94,81
3,33,0,36
3,28,116,59
3,28,0,132
3,32,99,52
3,32,0,156
3,33,107,51
3,33,0,176
3,40,108,202
3,40,0,192
3,28,106,188
3,28,0,210
3,35,111,176
3,35,0,202
3,38,115,194
3,38,0,204
3,35,118,181
3,35,0,220
3,33,114,156
3,33,0,167
3,33,115,124
3,33,0,37
3,28,114,51
3,28,0,80
3,32,115,120
3,32,0,100
3,30,117,92
3,30,0,176
3,42,108,202
3,42,0,192
3,37,115,196
3,37,0,210
3,32,110,168
3,32,0,202
3,38,116,182
3,38,0,181
3,35,109,203
3,35,0,192
3,33,105,192
3,33,0,149
3,33,110,147
3,33,0,37
3,28,114,59
3,28,0,85
3,32,119,107
3,32,0,89
3,33,117,95
3,33,0,176
3,40,108,210
3,40,0,192
3,28,114,188
3,28,0,210
3,35,111,176
3,35,0,202
3,30,116,182
3,30,0,176
3,37,109,210
3,37,0,192
3,30,77,102
3,30,0,30
3,38,124,64
3,38,0,94
3,37,115,100
3,37,0,93
3,38,114,99
3,38,0,93
3,40,120,99
3,40,0,93
3,33,117,99
3,33,0,176
3,40,109,210
3,40,0,192
3,28,114,188
3,28,0,210
3,35,110,176
3,35,0,202
3,33,115,180
3,33,0,210
3,40,115,182
3,40,0,210
3,33,114,166
3,33,0,112
3,45,114,80
3,45,0,112
3,42,115,80
3,42,0,112
3,40,114,88
3,40,0,112
3,33,107,74
3,33,0,176
3,40,109,208
3,40,0,192
3,28,106,192
3,28,0,209
3,35,103,175
3,35,0,202
3,26,110,182
3,26,0,204
3,35,108,180
3,35,0,220
3,33,109,164
3,33,0,204
3,33,95,84
3,33,0,36
3,28,116,60
3,28,0,132
3,32,98,60
3,32,0,156
3,33,107,36
3,33,0,176
3,40,109,208
3,40,0,192
3,28,106,192
3,28,0,209
3,35,102,175
3,35,0,202
3,26,111,182
3,26,0,204
3,35,108,180
3,35,0,220
3,33,109,164
3,33,0,204
3,40,119,180
3,40,0,84
3,33,108,108
3,33,0,100
3,30,107,92
3,30,0,176
3,37,108,208
3,37,0,192
3,28,106,192
3,28,0,209
3,35,107,175
3,35,0,202
3,38,111,182
3,38,0,204
3,35,108,180
3,35,0,220
3,33,108,164
3,33,0,204
3,33,95,84
3,33,0,36
3,28,117,60
3,28,0,132
3,32,98,60
3,32,0,156
3,33,106,36
3,33,0,176
3,40,109,208
3,40,0,192
3,28,106,192
3,28,0,209
3,35,111,175
3,35,0,202
3,30,115,182
3,30,0,204
3,37,118,180
3,37,0,220
3,38,115,164
3,38,0,84
3,37,114,108
3,37,0,100
3,38,114,92
3,38,0,80
3,40,115,112
3,40,0,100
3,33,107,92
3,33,0,176
3,40,108,208
3,40,0,192
3,28,106,192
3,28,0,209
3,35,111,175
3,35,0,202
3,30,115,182
3,30,0,204
3,37,118,180
3,37,0,220
3,38,114,164
3,38,0,84
3,37,115,108
3,37,0,100
3,38,114,92
3,38,0,80
3,40,115,112
3,40,0,100
3,33,107,92
3,33,0,176
