track,note,velocity,time
0,52,67,0
0,59,67,0
0,55,67,0
0,62,67,0
0,64,67,0
0,59,67,24
0,64,67,0
0,62,67,0
0,55,67,0
0,52,67,0
0,59,67,0
0,64,67,0
0,52,67,0
0,55,67,0
0,62,67,0
0,64,67,24
0,52,67,0
0,55,67,0
0,62,67,0
0,59,67,0
0,59,67,24
0,64,67,0
0,55,67,0
0,62,67,0
0,52,67,0
0,55,67,0
0,62,67,0
0,64,67,0
0,52,67,0
0,59,67,0
0,59,67,0
0,55,67,0
0,52,67,0
0,64,67,0
0,62,67,0
0,55,67,0
0,59,67,0
0,52,67,0
0,64,67,0
0,62,67,0
0,57,67,24
0,53,67,0
0,64,67,0
0,60,67,0
0,53,67,0
0,60,67,0
0,64,67,0
0,57,67,0
0,57,67,20
0,60,67,0
0,53,67,0
0,64,67,0
0,60,67,0
0,64,67,0
0,57,67,0
0,53,67,0
0,60,67,0
0,53,67,0
0,57,67,0
0,64,67,0
0,60,67,16
0,53,67,0
0,57,67,0
0,64,67,0
0,64,67,0
0,60,67,0
0,57,67,0
0,53,67,0
0,53,67,28
0,57,67,0
0,60,67,0
0,64,67,0
0,64,67,24
0,59,67,0
0,52,67,0
0,62,67,0
0,55,67,0
0,52,67,24
0,59,67,0
0,64,67,0
0,55,67,0
0,62,67,0
0,55,67,16
0,62,67,0
0,52,67,0
0,59,67,0
0,64,67,0
0,55,67,40
0,52,67,0
0,62,67,0
0,59,67,0
0,64,67,0
0,59,67,24
0,62,67,0
0,52,67,0
0,55,67,0
0,64,67,0
0,55,67,24
0,59,67,0
0,52,67,0
0,62,67,0
0,64,67,0
0,59,67,28
0,55,67,0
0,52,67,0
0,62,67,0
0,64,67,0
0,64,67,24
0,62,67,0
0,52,67,0
0,55,67,0
0,59,67,0
0,64,67,28
0,53,67,0
0,57,67,0
0,60,67,0
0,53,67,24
0,60,67,0
0,57,67,0
0,64,67,0
0,60,67,20
0,57,67,0
0,53,67,0
0,64,67,0
0,60,67,36
0,57,67,0
0,53,67,0
0,64,67,0
0,53,67,20
0,57,67,0
0,60,67,0
0,64,67,0
0,60,67,24
0,57,67,0
0,53,67,0
0,64,67,0
0,60,67,24
0,57,67,0
0,64,67,0
0,53,67,0
0,64,67,24
0,60,67,0
0,53,67,0
0,57,67,0
0,52,67,24
0,59,67,0
0,55,67,0
0,62,67,0
0,64,67,0
0,59,67,24
0,64,67,0
0,62,67,0
0,55,67,0
0,52,67,0
0,59,67,20
0,64,67,0
0,52,67,0
0,55,67,0
0,62,67,0
0,64,67,24
0,52,67,0
0,55,67,0
0,62,67,0
0,59,67,0
0,59,67,24
0,64,67,0
0,55,67,0
0,62,67,0
0,52,67,0
0,55,67,28
0,62,67,0
0,64,67,0
0,52,67,0
0,59,67,0
0,59,67,20
0,55,67,0
0,52,67,0
0,64,67,0
0,62,67,0
0,55,67,28
0,59,67,0
0,52,67,0
0,64,67,0
0,62,67,0
0,57,67,40
0,53,67,0
0,64,67,0
0,60,67,0
0,53,67,36
0,60,67,0
0,64,67,0
0,57,67,0
0,57,67,20
0,60,67,0
0,53,67,0
0,64,67,0
0,60,67,32
0,64,67,0
0,57,67,0
0,53,67,0
0,60,67,32
0,53,67,0
0,57,67,0
0,64,67,0
0,60,67,16
0,53,67,0
0,57,67,0
0,64,67,0
0,64,67,20
0,60,67,0
0,57,67,0
0,53,67,0
0,53,67,28
0,57,67,0
0,60,67,0
0,64,67,0
0,64,67,24
0,59,67,0
0,52,67,0
0,62,67,0
0,55,67,0
0,52,67,60
0,59,67,0
0,64,67,0
0,55,67,0
0,62,67,0
0,55,67,16
0,62,67,0
0,52,67,0
0,59,67,0
0,64,67,0
0,55,67,40
0,52,67,0
0,62,67,0
0,59,67,0
0,64,67,0
0,59,67,24
0,62,67,0
0,52,67,0
0,55,67,0
0,64,67,0
0,55,67,24
0,59,67,0
0,52,67,0
0,62,67,0
0,64,67,0
0,59,67,28
0,55,67,0
0,52,67,0
0,62,67,0
0,64,67,0
0,64,67,28
0,62,67,0
0,52,67,0
0,55,67,0
0,59,67,0
0,64,67,28
0,53,67,0
0,57,67,0
0,60,67,0
0,53,67,32
0,60,67,0
0,57,67,0
0,64,67,0
0,60,67,20
0,57,67,0
0,53,67,0
0,64,67,0
0,60,67,36
0,57,67,0
0,53,67,0
0,64,67,0
0,53,67,20
0,57,67,0
0,60,67,0
0,64,67,0
0,60,67,24
0,57,67,0
0,53,67,0
0,64,67,0
0,60,67,28
0,57,67,0
0,64,67,0
0,53,67,0
0,64,67,24
0,60,67,0
0,53,67,0
0,57,67,0
0,28,127,24
0,71,100,0
0,52,67,0
0,59,67,0
0,55,67,0
0,62,67,0
0,64,67,0
0,59,67,24
0,64,67,0
0,62,67,0
0,55,67,0
0,52,67,0
0,59,67,20
0,64,67,0
0,52,67,0
0,55,67,0
0,62,67,0
0,64,67,40
0,52,67,0
0,55,67,0
0,62,67,0
0,59,67,0
0,59,67,24
0,64,67,0
0,55,67,0
0,62,67,0
0,52,67,0
0,40,60,4
0,40,89,8
0,55,67,0
0,62,67,0
0,64,67,0
0,52,67,0
0,59,67,0
0,40,127,188
0,59,67,20
0,55,67,0
0,52,67,0
0,64,67,0
0,62,67,0
0,55,67,4
0,59,67,0
0,52,67,0
0,64,67,0
0,62,67,0
0,29,127,4
0,76,85,0
0,57,67,0
0,53,67,0
0,64,67,0
0,60,67,0
0,53,67,36
0,60,67,0
0,64,67,0
0,57,67,0
0,57,67,20
0,60,67,0
0,53,67,0
0,64,67,0
0,60,67,32
0,64,67,0
0,57,67,0
0,53,67,0
0,40,6,0
0,60,67,28
0,53,67,0
0,57,67,0
0,64,67,0
0,40,22,32
0,40,36,16
0,60,67,0
0,53,67,0
0,57,67,0
0,64,67,0
0,40,52,60
0,40,67,60
0,40,82,60
0,64,67,20
0,60,67,0
0,57,67,0
0,53,67,0
0,53,67,28
0,57,67,0
0,60,67,0
0,64,67,0
0,28,127,16
0,83,100,0
0,64,67,0
0,59,67,0
0,52,67,0
0,62,67,0
0,55,67,0
0,52,67,60
0,59,67,0
0,64,67,0
0,55,67,0
0,62,67,0
0,55,67,16
0,62,67,0
0,52,67,0
0,59,67,0
0,64,67,0
0,55,67,40
0,52,67,0
0,62,67,0
0,59,67,0
0,64,67,0
0,59,67,24
0,62,67,0
0,52,67,0
0,55,67,0
0,64,67,0
0,40,65,24
0,55,67,0
0,59,67,0
0,52,67,0
0,62,67,0
0,64,67,0
0,40,71,28
0,40,76,28
0,40,65,124
0,40,71,28
0,40,76,0
0,59,67,28
0,55,67,0
0,52,67,0
0,62,67,0
0,64,67,0
0,64,67,28
0,62,67,0
0,52,67,0
0,55,67,0
0,59,67,0
0,36,127,16
0,76,82,0
0,48,78,0
0,55,82,0
0,52,78,0
0,48,113,0
0,55,60,40
0,52,60,0
0,48,58,0
0,55,78,32
0,52,68,0
0,48,62,0
0,60,117,0
0,60,111,44
0,55,74,16
0,48,66,0
0,52,80,0
0,60,121,0
0,36,127,96
0,40,67,48
0,48,59,0
0,52,63,0
0,55,60,0
0,40,72,32
0,52,78,0
0,48,68,0
0,55,74,0
0,40,77,76
0,60,120,0
0,40,81,0
0,62,127,0
0,40,86,20
0,48,63,0
0,52,66,0
0,55,74,0
0,40,90,0
0,48,62,0
0,55,68,0
0,52,80,0
0,60,127,0
0,59,127,92
0,35,127,0
0,83,82,0
0,59,70,0
0,55,74,0
0,52,72,0
0,47,76,0
0,47,105,0
0,59,57,56
0,55,55,0
0,52,59,0
0,47,64,0
0,59,58,32
0,55,62,0
0,47,66,0
0,52,64,0
0,52,58,16
0,59,60,0
0,55,60,0
0,47,68,0
0,35,127,96
0,59,54,36
0,55,58,0
0,52,60,0
0,47,63,0
0,40,86,32
0,55,68,0
0,59,64,0
0,47,64,0
0,52,63,0
0,55,63,40
0,59,57,0
0,52,64,0
0,47,64,0
0,47,74,32
0,59,70,0
0,52,66,0
0,55,64,0
0,36,127,16
0,76,76,0
0,55,85,0
0,48,78,0
0,52,80,0
0,48,107,0
0,55,66,40
0,52,68,0
0,48,63,0
0,52,74,28
0,55,72,0
0,48,63,0
0,72,127,0
0,60,121,0
0,40,62,48
0,72,127,0
0,60,117,0
0,40,65,0
0,55,70,16
0,48,66,0
0,52,72,0
0,72,127,0
0,60,119,0
0,40,68,32
0,40,71,60
0,36,127,0
0,48,58,44
0,55,64,0
0,52,70,0
0,40,77,28
0,52,74,0
0,55,78,0
0,48,61,0
0,40,80,32
0,72,127,28
0,60,117,0
0,40,83,32
0,40,86,0
0,74,127,0
0,62,109,0
0,48,63,36
0,52,70,0
0,55,63,0
0,48,63,0
0,52,72,0
0,55,80,0
0,72,127,0
0,60,122,0
0,35,127,0
0,71,91,0
0,59,63,0
0,55,62,0
0,52,68,0
0,47,66,0
0,47,100,0
0,71,127,0
0,59,116,0
0,59,57,52
0,52,59,0
0,47,68,0
0,55,60,0
0,59,66,36
0,55,64,0
0,52,70,0
0,47,76,0
0,40,49,192
0,40,53,16
0,59,66,0
0,52,66,0
0,47,72,0
0,55,63,0
0,40,58,92
0,35,127,0
0,40,62,32
0,59,59,0
0,55,57,0
0,52,59,0
0,47,59,0
0,40,67,32
0,59,64,0
0,55,57,0
0,52,66,0
0,47,63,0
0,40,72,92
0,40,76,4
0,40,81,4
0,59,62,0
0,55,62,0
0,52,64,0
0,47,64,0
0,40,86,8
0,52,66,0
0,55,68,0
0,59,76,0
0,47,70,0
0,40,66,0
0,33,105,0
0,60,70,0
0,52,80,0
0,57,74,0
0,48,102,0
0,40,42,188
0,40,31,60
0,60,60,0
0,57,58,0
0,52,63,0
0,40,47,28
0,60,78,0
0,57,82,0
0,52,85,0
0,72,127,0
0,60,123,0
0,40,19,188
0,74,127,0
0,62,114,0
0,40,26,16
0,60,82,28
0,52,82,0
0,55,87,0
0,40,32,32
0,40,38,0
0,31,100,0
0,72,127,0
0,60,118,0
0,40,44,60
0,60,87,24
0,55,78,0
0,52,70,0
0,40,50,32
0,40,57,60
0,74,127,0
0,62,111,0
0,40,31,32
0,60,62,0
0,55,62,0
0,52,56,0
0,40,41,28
0,55,78,0
0,60,78,0
0,52,74,0
0,72,127,0
0,60,120,0
0,40,47,60
0,40,54,60
0,40,60,60
0,74,127,0
0,62,121,0
0,40,67,4
0,52,63,28
0,60,68,0
0,55,64,0
0,40,73,32
0,40,60,0
0,30,87,0
0,54,68,0
0,57,72,0
0,50,80,0
0,60,62,0
0,50,95,0
0,72,127,0
0,60,116,0
0,40,60,0
0,74,127,0
0,62,126,0
0,40,28,64
0,57,60,0
0,60,57,0
0,50,59,0
0,54,55,0
0,40,37,32
0,57,68,0
0,54,64,0
0,60,74,0
0,50,70,0
0,74,127,0
0,62,125,0
0,40,31,28
0,74,127,0
0,62,123,0
0,40,36,32
0,60,72,0
0,50,74,0
0,57,66,0
0,54,62,0
0,74,127,0
0,62,119,0
0,40,36,92
0,54,64,40
0,57,64,0
0,60,72,0
0,50,70,0
0,40,42,96
0,40,45,28
0,40,49,16
0,40,53,28
0,54,55,0
0,50,59,0
0,57,59,0
0,60,66,0
0,40,57,28
0,40,61,0
0,57,66,28
0,50,76,0
0,54,66,0
0,60,78,0
0,40,55,8
0,40,60,4
0,40,64,4
0,40,68,28
0,54,58,0
0,50,70,0
0,60,68,0
0,57,62,0
0,40,72,28
0,40,76,4
0,36,127,0
0,76,82,0
0,48,78,0
0,55,82,0
0,52,78,0
0,48,113,0
0,60,127,0
0,55,60,40
0,52,60,0
0,48,58,0
0,55,78,32
0,52,68,0
0,48,62,0
0,60,119,0
0,60,127,36
0,55,74,16
0,48,66,0
0,52,80,0
0,60,115,0
0,36,127,96
0,60,127,0
0,40,67,48
0,48,59,0
0,52,63,0
0,55,60,0
0,40,72,0
0,52,78,0
0,48,68,0
0,55,74,0
0,40,77,92
0,60,125,0
0,40,81,0
0,62,123,0
0,40,86,20
0,48,63,0
0,52,66,0
0,55,74,0
0,40,90,0
0,48,62,0
0,55,68,0
0,52,80,0
0,60,115,0
0,59,119,92
0,35,127,0
0,83,82,0
0,59,70,0
0,55,74,0
0,52,72,0
0,47,76,0
0,47,105,0
0,59,127,0
0,59,57,56
0,55,55,0
0,52,59,0
0,47,64,0
0,59,58,32
0,55,62,0
0,47,66,0
0,52,64,0
0,52,58,16
0,59,60,0
0,55,60,0
0,47,68,0
0,35,127,96
0,59,127,0
0,59,54,36
0,55,58,0
0,52,60,0
0,47,63,0
0,40,86,32
0,55,68,0
0,59,64,0
0,47,64,0
0,52,63,0
0,55,63,40
0,59,57,0
0,52,64,0
0,47,64,0
0,47,74,32
0,59,70,0
0,52,66,0
0,55,64,0
0,36,127,16
0,76,76,0
0,55,85,0
0,48,78,0
0,52,80,0
0,48,107,0
0,60,127,0
0,55,66,40
0,52,68,0
0,48,63,0
0,60,117,0
0,52,74,28
0,55,72,0
0,48,63,0
0,60,121,0
0,40,62,52
0,60,113,0
0,40,65,12
0,55,70,16
0,48,66,0
0,52,72,0
0,40,68,32
0,40,71,48
0,36,127,0
0,60,127,0
0,60,127,0
0,48,58,44
0,55,64,0
0,52,70,0
0,40,77,28
0,52,74,0
0,55,78,0
0,48,61,0
0,60,117,0
0,40,80,60
0,40,83,60
0,40,86,0
0,62,117,0
0,48,63,36
0,52,70,0
0,55,63,0
0,48,63,0
0,52,72,0
0,55,80,0
0,60,125,0
0,35,127,0
0,71,91,0
0,59,63,0
0,55,62,0
0,52,68,0
0,47,66,0
0,47,100,0
0,59,127,0
0,59,121,0
0,59,57,52
0,52,59,0
0,47,68,0
0,55,60,0
0,59,66,36
0,55,64,0
0,52,70,0
0,47,76,0
0,40,49,192
0,40,53,16
0,59,66,0
0,52,66,0
0,47,72,0
0,55,63,0
0,40,58,92
0,35,127,0
0,59,127,0
0,40,62,32
0,59,59,0
0,55,57,0
0,52,59,0
0,47,59,0
0,40,67,32
0,59,64,0
0,55,57,0
0,52,66,0
0,47,63,0
0,40,72,92
0,40,76,4
0,40,81,4
0,59,62,0
0,55,62,0
0,52,64,0
0,47,64,0
0,40,86,8
0,52,66,0
0,55,68,0
0,59,76,0
0,47,70,0
0,40,66,0
0,33,105,0
0,60,70,0
0,52,80,0
0,57,74,0
0,48,102,0
0,60,127,0
0,40,42,60
0,40,31,60
0,60,60,0
0,57,58,0
0,52,63,0
0,40,47,28
0,60,78,0
0,57,82,0
0,52,85,0
0,60,119,0
0,40,19,0
0,62,118,0
0,40,26,16
0,60,82,28
0,52,82,0
0,55,87,0
0,40,32,32
0,40,38,0
0,31,100,0
0,60,127,0
0,60,118,0
0,40,44,60
0,60,87,24
0,55,78,0
0,52,70,0
0,40,50,4
0,40,57,60
0,62,120,0
0,40,31,32
0,60,62,0
0,55,62,0
0,52,56,0
0,40,41,28
0,55,78,0
0,60,78,0
0,52,74,0
0,60,121,0
0,40,47,56
0,40,54,60
0,40,60,0
0,62,115,0
0,40,67,4
0,52,63,28
0,60,68,0
0,55,64,0
0,40,73,32
0,40,90,0
0,42,87,0
0,30,110,0
0,50,95,0
0,60,112,0
0,60,127,88
0,44,85,0
0,62,112,0
0,60,127,76
0,42,64,44
0,62,127,0
0,44,76,36
0,62,118,0
0,62,118,24
0,42,70,96
0,44,80,188
0,42,68,188
0,44,68,188
0,42,70,0
0,58,68,0
0,53,68,0
0,51,68,0
0,53,69,8
0,51,69,0
0,58,69,0
0,44,85,4
0,58,69,0
0,51,69,0
0,53,69,0
0,51,69,8
0,53,69,0
0,58,69,0
0,42,72,8
0,51,69,0
0,53,69,0
0,58,69,0
0,51,69,8
0,53,69,0
0,58,69,0
0,44,80,8
0,53,69,0
0,51,69,0
0,58,69,0
0,51,69,0
0,53,69,0
0,58,69,0
0,42,76,8
0,51,69,0
0,53,69,0
0,58,69,0
0,53,69,8
0,51,69,0
0,58,69,0
0,44,76,8
0,53,70,0
0,51,70,0
0,58,70,0
0,53,70,8
