track,note,velocity,time
1,43,127,0
1,50,127,580
1,43,127,100
1,38,127,100
1,50,127,580
1,38,127,100
1,43,127,100
1,50,127,580
1,43,127,100
1,38,127,100
1,43,127,3460
1,50,127,580
1,43,127,100
1,38,127,100
1,50,127,580
1,38,127,100
1,43,127,100
1,43,127,100
1,50,127,50
1,50,127,100
1,38,127,50
1,43,127,100
1,43,127,100
1,50,127,50
1,50,127,100
1,38,127,50
1,43,127,290
1,50,127,580
1,38,127,100
1,38,127,100
1,50,127,580
1,38,127,100
1,43,127,100
1,43,127,100
1,43,127,50
1,50,127,50
1,38,127,50
1,43,127,100
1,43,127,480
1,43,127,100
1,45,127,50
1,47,127,100
1,48,127,100
1,36,127,580
1,43,127,580
1,50,127,580
1,43,127,100
1,48,127,100
1,36,127,580
1,43,127,580
1,50,127,580
1,38,127,100
1,43,127,100
1,50,127,580
1,43,127,100
1,38,127,100
1,50,127,580
1,38,127,100
1,43,127,100
1,50,127,340
1,50,127,100
1,38,127,50
1,43,127,100
1,38,127,100
1,40,127,100
1,42,127,100
1,43,127,100
1,50,127,580
1,43,127,100
1,38,127,100
1,50,127,580
1,38,127,100
1,43,127,100
1,43,127,100
1,50,127,50
1,50,127,100
1,38,127,50
1,43,127,100
1,43,127,100
1,50,127,50
1,50,127,100
1,38,127,50
1,43,127,290
1,50,127,580
1,38,127,100
1,38,127,100
1,50,127,580
1,38,127,100
1,43,127,100
1,43,127,100
1,43,127,50
1,50,127,50
1,38,127,50
1,43,127,100
1,43,127,480
1,43,127,100
1,45,127,50
1,47,127,100
1,48,127,100
1,36,127,580
1,43,127,580
1,50,127,580
1,43,127,100
1,48,127,100
1,36,127,580
1,43,127,580
1,50,127,580
1,38,127,100
1,43,127,100
1,50,127,580
1,43,127,100
1,38,127,100
1,50,127,580
1,38,127,100
1,43,127,100
1,50,127,340
1,50,127,100
1,38,127,50
1,43,127,100
1,43,127,100
1,45,127,100
1,47,127,100
1,48,127,100
1,43,127,195
1,36,127,195
1,43,127,145
1,43,127,145
1,36,127,100
1,43,127,100
1,45,127,50
1,45,127,100
1,47,127,50
1,48,127,100
1,43,127,100
1,45,127,50
1,47,127,100
1,48,127,50
1,45,127,100
1,55,127,0
1,45,127,385
1,55,127,0
1,50,127,385
1,38,127,100
1,50,127,50
1,50,127,100
1,38,127,50
1,50,127,100
1,50,127,100
1,48,127,50
1,47,127,100
1,45,127,50
1,43,127,290
1,50,127,580
1,43,127,100
1,38,127,100
1,50,127,580
1,38,127,100
1,43,127,100
1,43,127,100
1,50,127,50
1,50,127,100
1,38,127,50
1,43,127,100
1,43,127,100
1,50,127,50
1,50,127,100
1,38,127,50
1,43,127,290
1,50,127,580
1,38,127,100
1,38,127,100
1,50,127,580
1,38,127,100
1,43,127,100
1,43,127,100
1,43,127,50
1,50,127,50
1,38,127,50
1,43,127,100
1,43,127,480
1,43,127,100
1,45,127,50
1,47,127,100
1,48,127,100
1,36,127,580
1,43,127,580
1,50,127,580
1,43,127,100
1,48,127,100
1,36,127,580
1,43,127,580
1,50,127,580
1,38,127,100
1,43,127,100
1,50,127,580
1,43,127,100
1,38,127,100
1,50,127,580
1,38,127,100
1,43,127,100
1,50,127,340
1,50,127,100
1,38,127,50
1,43,127,100
1,38,127,100
1,31,127,100
2,67,98,25419
2,67,98,210
2,71,98,595
2,71,98,160
2,71,98,240
2,67,98,595
2,67,98,210
2,71,97,595
2,71,98,160
2,71,95,240
2,71,98,595
2,71,98,210
2,72,98,595
2,72,98,210
2,71,97,595
2,71,98,160
2,71,95,240
2,71,97,595
2,71,98,210
2,79,98,5
2,71,97,585
2,79,98,5
2,71,98,160
2,71,95,200
2,79,94,5
2,72,98,585
2,78,88,5
2,72,98,200
2,78,86,5
2,71,97,585
2,79,92,5
2,71,98,160
2,71,95,200
2,79,94,5
2,71,98,585
2,79,88,5
2,71,98,200
2,79,86,5
2,71,97,585
2,79,92,5
2,71,98,160
2,71,95,200
2,79,94,5
2,72,98,585
2,78,88,5
2,72,98,200
2,78,86,5
2,71,97,585
2,79,92,5
2,71,98,160
2,71,95,200
2,79,94,5
2,71,97,585
2,79,98,5
2,71,98,200
2,79,98,5
2,67,98,585
2,76,88,5
2,67,98,200
2,76,86,5
2,71,97,585
2,79,92,5
2,71,98,160
2,71,95,200
2,79,94,5
2,67,98,585
2,76,88,5
2,67,98,200
2,76,86,5
2,71,97,585
2,79,92,5
2,71,98,160
2,71,95,200
2,79,94,5
2,71,98,585
2,79,88,5
2,71,98,200
2,79,86,5
2,72,98,585
2,78,88,5
2,72,98,200
2,78,86,5
2,71,97,585
2,79,92,5
2,71,98,160
2,71,95,200
2,79,94,5
2,71,97,585
2,79,98,5
2,71,98,200
2,79,98,5
2,60,94,105
2,64,94,5
2,67,94,10
2,60,94,770
2,64,94,5
2,67,94,10
2,69,94,770
2,73,94,5
2,76,94,10
2,79,94,5
2,62,94,760
2,66,94,5
2,69,94,10
2,72,94,5
2,71,97,2010
2,79,92,5
2,71,98,160
2,71,98,200
2,79,94,5
2,72,98,585
2,78,88,5
2,72,98,200
2,78,86,5
2,71,97,585
2,79,92,5
2,71,98,160
2,71,98,200
2,79,94,5
2,71,98,585
2,79,88,5
2,71,98,200
2,79,86,5
2,62,94,105
2,67,94,5
2,71,94,10
2,62,94,385
2,66,94,5
2,69,94,10
2,72,94,5
2,71,98,860
2,79,92,5
2,71,98,160
2,71,98,200
2,79,94,5
2,71,98,585
2,79,98,5
2,71,98,200
2,79,98,5
2,67,98,585
2,76,88,5
2,67,98,200
2,76,86,5
2,71,97,585
2,79,92,5
2,71,98,160
2,71,98,200
2,79,94,5
2,67,98,585
2,76,88,5
2,67,98,200
2,76,86,5
2,71,97,585
2,79,92,5
2,71,98,160
2,71,98,200
2,79,94,5
2,71,98,585
2,79,88,5
2,71,98,200
2,79,86,5
2,72,98,585
2,78,88,5
2,72,98,200
2,78,86,5
2,71,97,585
2,79,92,5
2,71,98,160
2,71,98,200
2,79,94,5
2,71,98,585
2,79,98,5
2,71,98,200
2,79,98,5
2,71,97,585
2,79,92,5
2,71,98,160
2,71,98,200
2,79,94,5
2,71,97,585
2,79,98,5
3,62,127,9099
3,59,127,100
3,59,127,100
3,59,127,50
3,59,127,50
3,59,127,100
3,59,127,50
3,60,127,50
3,60,127,50
3,60,127,50
3,60,127,50
3,60,127,50
3,60,127,290
3,67,127,50
3,59,127,0
3,62,127,915
3,59,127,100
3,59,127,100
3,59,127,50
3,59,127,50
3,59,127,50
3,60,127,100
3,60,127,100
3,60,127,50
3,60,127,50
3,60,127,50
3,60,127,290
3,59,127,50
3,67,127,0
3,64,127,1875
3,64,127,50
3,64,127,50
3,64,127,100
3,62,127,100
3,59,127,100
3,59,127,50
3,67,127,1060
3,64,127,50
3,64,127,50
3,64,127,50
3,64,127,100
3,62,127,100
3,59,127,100
3,59,127,50
3,59,127,820
3,59,127,100
3,59,127,100
3,59,127,100
3,60,127,100
3,60,127,100
3,60,127,50
3,60,127,100
3,60,127,50
3,62,127,50
3,60,127,50
3,59,127,100
3,59,127,1825
3,59,127,100
3,59,127,50
3,59,127,50
3,59,127,100
3,59,127,50
3,60,127,50
3,60,127,50
3,60,127,50
3,60,127,50
3,60,127,50
3,60,127,290
3,67,127,50
3,59,127,0
3,62,127,915
3,59,127,100
3,59,127,100
3,59,127,50
3,59,127,50
3,59,127,50
3,60,127,100
3,60,127,100
3,60,127,50
3,60,127,50
3,60,127,50
3,60,127,290
3,59,127,50
3,67,127,0
3,64,127,1875
3,64,127,50
3,64,127,50
3,64,127,100
3,62,127,100
3,59,127,100
3,59,127,50
3,67,127,1060
3,64,127,50
3,64,127,50
3,64,127,50
3,64,127,100
3,62,127,100
3,59,127,100
3,59,127,50
3,59,127,820
3,59,127,100
3,59,127,100
3,59,127,100
3,60,127,100
3,60,127,100
3,60,127,50
3,60,127,100
3,60,127,50
3,62,127,50
3,60,127,50
3,59,127,100
3,62,127,1345
3,60,127,100
3,64,127,0
3,60,127,195
3,64,127,0
3,60,127,195
3,64,127,0
3,60,127,145
3,64,127,0
3,57,127,145
3,60,127,0
3,57,127,100
3,60,127,0
3,64,127,0
3,67,127,0
3,67,127,675
3,61,127,100
3,61,127,385
3,60,127,385
3,66,127,0
3,69,127,0
3,62,127,1400
3,59,127,100
3,59,127,100
3,59,127,50
3,59,127,50
3,59,127,100
3,59,127,50
3,60,127,50
3,60,127,50
3,60,127,50
3,60,127,50
3,60,127,50
3,60,127,290
3,67,127,50
3,59,127,0
3,62,127,915
3,59,127,100
3,59,127,100
3,59,127,50
3,59,127,50
3,59,127,50
3,60,127,100
3,60,127,100
3,60,127,50
3,60,127,50
3,60,127,50
3,60,127,290
3,59,127,50
3,67,127,0
3,64,127,1875
3,64,127,50
3,64,127,50
3,64,127,100
3,62,127,100
3,59,127,100
3,59,127,50
3,67,127,1060
3,64,127,50
3,64,127,50
3,64,127,50
3,64,127,100
3,62,127,100
3,59,127,100
3,59,127,50
3,59,127,820
3,59,127,100
3,59,127,100
3,59,127,100
3,60,127,100
3,60,127,100
3,60,127,50
3,60,127,100
3,60,127,50
3,62,127,50
3,60,127,50
3,69,127,0
3,59,127,100
3,67,127,0
4,50,66,9819
4,43,64,0
4,50,60,125
4,43,58,0
4,50,75,140
4,43,75,0
4,50,66,140
4,43,70,0
4,50,75,120
4,43,75,0
4,43,70,105
4,46,90,0
4,47,70,55
4,57,66,335
4,50,64,0
4,57,60,125
4,50,58,0
4,57,75,140
4,50,75,0
4,57,66,140
4,50,70,0
4,57,75,120
4,50,75,0
4,50,70,105
4,53,90,0
4,54,70,55
4,50,94,95
4,43,66,0
4,43,60,55
4,52,79,110
4,43,70,0
4,43,63,80
4,43,63,130
4,50,70,0
4,43,60,10
4,52,70,120
4,43,66,0
4,50,83,130
4,43,66,0
4,43,54,120
4,43,57,135
4,50,60,0
4,52,83,120
4,43,76,0
4,43,70,125
4,46,85,135
4,47,79,60
4,41,85,40
4,43,54,5
4,50,66,305
4,43,64,0
4,50,60,125
4,43,58,0
4,50,75,140
4,43,75,0
4,50,66,140
4,43,70,0
4,50,75,120
4,43,75,0
4,43,70,105
4,46,90,0
4,47,70,55
4,57,70,95
4,50,47,0
4,50,53,175
4,57,67,0
4,57,70,175
4,50,67,0
4,50,56,175
4,57,67,0
4,50,77,185
4,57,83,0
4,50,70,180
4,57,77,0
4,50,77,180
4,57,87,0
4,50,74,195
4,57,83,0
4,50,94,180
4,43,66,0
4,43,60,55
4,52,79,110
4,43,70,0
4,43,63,80
4,43,63,130
4,50,70,0
4,43,60,10
4,52,70,120
4,43,66,0
4,50,83,130
4,43,66,0
4,43,54,120
4,43,57,135
4,50,60,0
4,52,83,120
4,43,76,0
4,43,70,125
4,46,85,135
4,47,79,60
4,41,85,40
4,43,54,5
4,48,78,65
4,55,78,0
4,48,55,105
4,57,91,140
4,48,66,0
4,48,66,80
4,55,66,120
4,48,60,0
4,48,61,125
4,57,96,140
4,48,62,0
4,48,64,80
4,50,66,365
4,43,64,0
4,50,60,125
4,43,58,0
4,50,75,140
4,43,75,0
4,50,66,140
4,43,70,0
4,50,75,120
4,43,75,0
4,43,70,105
4,46,90,0
4,47,70,55
4,55,65,335
4,48,56,0
4,48,78,150
4,55,88,0
4,48,78,125
4,55,82,0
4,55,39,345
4,55,78,200
4,48,78,0
4,48,59,85
4,55,73,0
4,50,66,410
4,43,64,0
4,50,60,125
4,43,58,0
4,50,75,140
4,43,75,0
4,50,66,140
4,43,70,0
4,50,75,120
4,43,75,0
4,43,70,105
4,46,90,0
4,47,70,55
4,50,70,95
4,43,47,0
4,43,53,175
4,50,67,0
4,50,70,175
4,43,67,0
4,43,56,175
4,50,67,0
4,43,77,185
4,50,83,0
4,43,70,180
4,50,77,0
4,43,77,180
4,50,87,0
4,43,74,195
4,50,83,0
4,50,78,180
4,57,78,0
4,50,55,105
4,59,91,140
4,50,66,0
4,50,66,80
4,57,66,120
4,50,60,0
4,50,61,125
4,59,96,140
4,50,62,0
4,50,64,80
4,43,83,125
4,50,78,0
4,43,49,100
4,43,94,170
4,52,78,0
4,50,53,0
4,43,55,90
4,50,76,130
4,43,59,0
4,43,66,120
4,52,70,140
4,43,68,0
4,55,89,120
4,43,81,0
4,43,59,20
4,52,78,125
4,43,66,0
4,43,60,100
4,43,70,160
4,50,89,0
4,43,47,120
4,52,83,165
4,43,87,0
4,43,59,65
4,50,65,385
4,43,56,0
4,43,78,150
4,50,88,0
4,43,78,125
4,50,82,0
4,50,39,345
4,50,78,200
4,43,78,0
4,43,59,85
4,50,73,0
4,57,65,410
4,50,56,0
4,50,78,150
4,57,88,0
4,50,78,125
4,57,82,0
4,57,39,345
4,57,78,200
4,50,78,0
4,50,59,85
4,57,73,0
4,43,62,170
4,50,65,0
4,43,53,85
4,43,78,150
4,52,82,0
4,43,62,105
4,43,75,145
4,50,62,0
4,43,48,75
4,52,85,145
4,43,72,0
4,43,65,70
4,47,78,135
4,50,59,240
4,48,82,20
4,45,69,60
4,47,85,80
4,43,78,20
4,45,82,60
4,41,73,0
4,50,65,315
4,43,56,0
4,43,78,150
4,50,88,0
4,43,78,125
4,50,82,0
4,50,39,345
4,50,78,200
4,43,78,0
4,43,59,85
4,50,73,0
4,57,65,410
4,50,56,0
4,50,78,150
4,57,88,0
4,50,78,125
4,57,82,0
4,57,39,345
4,57,78,200
4,50,78,0
4,50,59,85
4,57,73,0
4,43,62,170
4,50,68,0
4,43,57,65
4,43,71,150
4,52,91,0
4,43,65,100
4,43,57,155
4,50,57,20
4,43,59,100
4,52,81,170
4,43,78,5
4,43,59,140
4,55,91,0
4,43,62,135
4,55,75,125
4,43,71,15
4,53,84,100
4,43,65,10
4,52,62,10
4,43,62,30
4,50,88,50
4,43,59,0
4,43,71,20
4,46,84,150
4,47,75,10
4,55,65,320
4,48,56,0
4,48,78,150
4,55,88,0
4,48,78,125
4,55,82,0
4,55,39,345
4,55,78,200
4,48,78,0
4,48,59,85
4,55,73,0
4,50,70,170
4,43,47,0
4,43,53,175
4,50,67,0
4,50,70,175
4,43,67,0
4,43,56,175
4,50,67,0
4,43,77,185
4,50,83,0
4,43,70,180
4,50,77,0
4,43,77,180
4,50,87,0
4,43,74,195
4,50,83,0
4,55,66,420
4,48,64,0
4,55,60,125
4,48,58,0
4,55,75,140
4,48,75,0
4,55,66,140
4,48,70,0
4,55,75,120
4,48,75,0
4,48,70,105
4,51,90,0
4,52,70,55
4,50,70,95
4,43,47,0
4,43,53,175
4,50,67,0
4,50,70,175
4,43,67,0
4,43,56,175
4,50,67,0
4,43,77,185
4,50,83,0
4,43,70,180
4,50,77,0
4,43,77,180
4,50,87,0
4,43,74,195
4,50,83,0
4,50,65,420
4,43,56,0
4,43,78,150
4,50,88,0
4,43,78,125
4,50,82,0
4,50,39,345
4,50,78,200
4,43,78,0
4,43,59,85
4,50,73,0
4,57,65,410
4,50,56,0
4,50,78,150
4,57,88,0
4,50,78,125
4,57,82,0
4,57,39,345
4,57,78,200
4,50,78,0
4,50,59,85
4,57,73,0
4,43,62,170
4,50,68,0
4,43,57,65
4,43,71,150
4,52,91,0
4,43,65,100
4,43,57,155
4,50,57,20
4,43,59,100
4,52,81,170
4,43,78,5
4,43,59,140
4,55,91,0
4,43,62,135
4,55,75,125
4,43,71,15
4,53,84,100
4,43,65,10
4,52,62,10
4,43,62,30
4,50,88,50
4,43,59,0
4,43,71,20
4,46,84,150
4,47,75,10
4,48,83,80
4,55,78,0
4,48,49,100
4,48,94,170
4,57,78,0
4,55,53,0
4,48,55,90
4,55,76,130
4,48,59,0
4,48,66,120
4,57,70,140
4,48,68,0
4,60,89,120
4,48,81,0
4,48,59,20
4,57,78,125
4,48,66,0
4,48,60,100
4,48,70,160
4,55,89,0
4,48,47,120
4,57,83,165
4,48,87,0
4,48,59,65
4,48,62,145
4,55,68,0
4,48,57,65
4,48,71,150
4,57,91,0
