track,note,velocity,time
1,1,1,0
1,63,127,1883
1,63,0,31
1,67,127,7
1,67,0,32
1,67,127,26
1,67,0,55
1,67,127,41
1,67,0,115
1,65,127,19
1,65,0,58
1,63,127,3
1,63,0,22
1,65,127,13
1,65,0,55
1,63,127,3
1,63,0,46
1,63,127,51
1,63,0,143
1,63,127,53
1,63,0,22
1,62,127,11
1,62,0,34
1,62,127,30
1,62,0,36
1,62,127,52
1,62,0,62
1,62,127,42
1,62,0,44
1,62,127,51
1,62,0,22
1,63,127,8
1,63,0,44
1,63,127,23
1,63,0,43
1,63,127,44
1,63,0,176
1,67,127,60
1,67,0,40
1,67,127,18
1,67,0,56
1,67,127,33
1,67,0,74
1,67,127,26
1,67,0,30
1,65,127,5
1,63,127,60
1,65,0,1
1,63,0,22
1,65,127,12
1,65,0,57
1,63,127,6
1,63,0,40
1,63,127,56
1,63,0,140
1,63,127,53
1,63,0,26
1,62,127,11
1,62,0,34
1,62,127,30
1,62,0,38
1,62,127,50
1,62,0,44
1,62,127,50
1,62,0,56
1,62,127,44
1,62,0,22
1,63,127,12
1,63,0,35
1,63,127,33
1,63,0,40
1,63,127,47
1,63,0,125
1,67,127,203
1,67,0,170
1,65,127,17
1,65,0,65
1,63,127,3
1,63,0,22
1,65,127,12
1,65,0,56
1,63,127,6
1,63,0,52
1,63,127,39
1,63,0,223
1,67,127,100
1,67,0,167
1,65,127,29
1,65,0,58
1,63,127,6
1,63,0,20
1,67,127,12
1,67,0,39
1,65,127,24
1,65,0,38
1,65,127,53
1,65,0,211
1,67,127,116
1,67,0,171
1,65,127,18
1,67,127,61
1,65,0,1
1,67,0,31
1,65,127,7
1,65,0,52
1,63,127,6
1,63,0,43
1,63,127,53
1,63,0,137
1,63,127,53
1,63,0,35
1,62,127,3
1,62,0,26
1,62,127,37
1,62,0,34
1,62,127,57
1,62,0,38
1,62,127,58
1,62,0,35
1,62,127,66
1,62,0,22
1,63,127,11
1,63,0,36
1,63,127,27
1,63,0,45
1,63,127,44
1,63,0,697
1,63,127,266
1,63,0,29
1,67,127,7
1,67,0,35
1,67,127,26
1,67,0,69
1,67,127,24
1,67,0,116
1,65,127,21
1,65,0,54
1,63,127,3
1,63,0,20
1,65,127,16
1,65,0,52
1,63,127,6
1,63,0,46
1,63,127,53
1,63,0,142
1,63,127,45
1,63,0,32
1,62,127,5
1,62,0,39
1,62,127,30
1,62,0,36
1,62,127,52
1,62,0,41
1,62,127,56
1,62,0,38
1,62,127,63
1,62,0,24
1,63,127,9
1,63,0,38
1,63,127,24
1,63,0,43
1,63,127,51
1,63,0,156
1,63,127,36
1,63,0,22
1,67,127,13
1,67,0,35
1,67,127,23
1,67,0,63
1,67,127,30
1,67,0,86
1,67,127,15
1,65,127,35
1,67,0,10
1,63,127,46
1,65,0,1
1,63,0,25
1,65,127,9
1,65,0,57
1,63,127,6
1,63,0,52
1,63,127,44
1,63,0,146
1,63,127,53
1,63,0,29
1,62,127,4
1,62,0,34
1,62,127,30
1,62,0,39
1,62,127,52
1,62,0,38
1,62,127,59
1,62,0,54
1,62,127,39
1,62,0,22
1,63,127,10
1,63,0,36
1,63,127,34
1,63,0,36
1,63,127,56
1,63,0,230
1,67,127,94
1,67,0,182
1,65,127,9
1,65,0,63
1,63,127,1
1,63,0,19
1,65,127,11
1,65,0,60
1,63,127,2
1,63,0,44
1,63,127,53
1,63,0,233
1,67,127,92
1,67,0,167
1,65,127,24
1,65,0,57
1,63,127,7
1,63,0,19
1,67,127,13
1,67,0,38
1,65,127,23
1,65,0,36
1,65,127,59
1,65,0,238
1,67,127,88
1,67,0,168
1,65,127,24
1,65,0,57
1,67,127,4
1,65,127,30
1,67,0,1
1,65,0,58
1,63,127,7
1,63,0,42
1,63,127,54
1,63,0,131
1,63,127,56
1,63,0,31
1,62,127,7
1,62,0,25
1,62,127,39
1,62,0,32
1,62,127,61
1,62,0,29
1,62,127,69
1,62,0,28
1,62,127,65
1,63,127,36
1,62,0,1
1,63,0,33
1,63,127,30
1,63,0,39
1,63,127,50
1,63,0,633
1,63,127,3403
1,67,127,32
1,63,0,3
1,67,0,30
1,67,127,30
1,67,0,42
1,67,127,53
1,65,127,134
1,67,0,1
1,65,0,57
1,67,127,1
1,65,127,27
1,67,0,1
1,65,0,62
1,63,127,2
1,63,0,47
1,63,127,52
1,63,0,134
1,63,127,56
1,63,0,29
1,62,127,6
1,62,0,36
1,62,127,32
1,62,0,36
1,62,127,56
1,62,0,34
1,62,127,62
1,62,0,34
1,62,127,66
1,62,0,21
1,63,127,12
1,63,0,40
1,63,127,18
1,63,0,43
1,63,127,53
1,63,0,163
1,63,127,27
1,63,0,31
1,67,127,7
1,67,0,29
1,67,127,29
1,67,0,60
1,67,127,36
1,67,0,86
1,67,127,14
1,65,127,36
1,67,0,1
1,63,127,55
1,65,0,6
1,63,0,23
1,65,127,6
1,65,0,59
1,63,127,3
1,63,0,43
1,63,127,54
1,63,0,145
1,63,127,51
1,62,127,30
1,63,0,6
1,62,0,33
1,62,127,27
1,62,0,38
1,62,127,54
1,62,0,37
1,62,127,59
1,62,0,31
1,62,127,65
1,62,0,26
1,63,127,8
1,63,0,35
1,63,127,29
1,63,0,35
1,63,127,56
1,63,0,234
1,67,127,95
1,67,0,180
1,65,127,6
1,65,0,57
1,67,115,6
1,67,0,23
1,65,127,15
1,65,0,56
1,63,127,5
1,63,0,42
1,63,127,53
1,63,0,232
1,67,127,92
1,67,0,182
1,65,127,10
1,65,0,59
1,63,127,4
1,63,0,19
1,67,127,13
1,67,0,41
1,65,127,24
1,65,0,38
1,65,127,57
1,65,0,237
1,67,127,86
1,67,0,165
1,65,127,21
1,65,0,64
1,67,127,3
1,67,0,23
1,65,127,10
1,65,0,55
1,63,127,5
1,63,0,44
1,63,127,56
1,63,0,134
1,63,127,53
1,63,0,32
1,62,127,2
1,62,0,37
1,62,127,30
1,62,0,41
1,62,127,50
1,62,0,35
1,62,127,59
1,62,0,35
1,62,127,66
1,62,0,35
1,63,127,0
1,63,0,37
1,63,127,27
1,63,0,43
1,63,127,44
1,63,0,446
1,63,127,555
1,63,0,45
1,63,127,15
1,63,0,39
1,63,127,53
1,63,0,34
1,63,127,65
1,63,0,46
1,63,127,50
1,63,0,14
1,63,127,17
1,63,0,47
1,63,127,18
1,63,0,48
1,63,127,44
1,63,0,149
1,63,127,42
1,62,127,33
1,63,0,1
1,62,0,48
1,62,127,20
1,62,0,48
1,62,127,44
1,62,0,37
1,62,127,59
1,62,0,43
1,62,127,59
1,62,0,22
1,63,127,12
1,63,0,44
1,63,127,19
1,63,0,36
1,63,127,56
1,63,0,167
1,63,103,28
1,63,0,5
1,63,127,25
1,63,0,35
1,63,127,32
1,63,0,28
1,63,127,62
1,63,0,31
1,63,127,68
1,63,0,46
1,63,127,50
1,63,0,14
1,63,127,18
1,63,0,40
1,63,127,24
1,63,0,38
1,63,127,56
1,63,0,149
1,63,126,45
1,63,0,19
1,62,127,12
1,62,0,47
1,62,127,21
1,62,0,44
1,62,127,48
1,62,0,37
1,62,127,63
1,62,0,44
1,62,127,48
1,62,0,25
1,63,127,6
1,63,0,47
1,63,127,21
1,63,0,39
1,63,127,54
1,63,0,164
1,63,121,27
1,63,0,16
1,63,127,18
1,63,0,32
1,63,127,32
1,63,0,31
1,63,127,62
1,63,0,40
1,63,127,62
1,63,0,46
1,63,127,44
1,63,0,13
1,63,127,19
1,63,0,40
1,63,127,27
1,63,0,31
1,63,127,62
1,63,0,158
1,63,127,40
1,63,0,21
1,62,127,6
1,62,0,46
1,62,127,24
1,62,0,41
1,62,127,48
1,62,0,36
1,62,127,62
1,62,0,43
1,62,127,57
1,62,0,22
1,63,127,6
1,63,0,47
1,63,127,21
1,63,0,42
1,63,127,48
1,63,0,173
1,63,120,26
1,63,0,14
1,63,127,14
1,63,0,38
1,63,127,26
1,63,0,42
1,63,127,53
1,63,0,43
1,63,127,53
1,63,0,48
1,63,127,52
1,63,0,12
1,63,127,16
1,63,0,40
1,63,127,28
1,63,0,40
1,63,127,50
1,63,0,155
1,63,127,33
1,63,0,22
1,62,127,9
1,62,0,44
1,62,127,26
1,62,0,43
1,62,127,53
1,62,0,40
1,62,127,60
1,62,0,39
1,62,127,57
1,62,0,24
1,63,127,6
1,63,0,49
1,63,127,19
1,63,0,39
1,63,127,51
1,63,0,203
1,63,127,33
1,63,0,43
1,63,127,18
1,63,0,37
1,63,127,50
1,63,0,16
1,63,127,18
1,63,0,53
1,63,127,11
1,63,0,42
1,63,127,53
1,63,0,17
1,63,127,20
1,63,0,39
1,63,127,24
1,63,0,28
1,63,127,60
1,63,0,154
1,63,127,39
1,63,0,22
1,62,127,10
1,62,0,44
1,62,127,27
1,62,0,38
1,62,127,53
1,62,0,34
1,62,127,59
1,62,0,37
1,62,127,66
1,62,0,18
1,63,127,12
1,63,0,41
1,63,127,25
1,63,0,36
1,63,127,57
1,63,0,160
1,63,127,37
1,63,0,12
1,63,127,20
1,63,0,36
1,63,127,23
1,63,0,31
1,63,127,65
1,63,0,28
1,63,127,68
1,63,0,43
1,63,127,54
1,63,0,12
1,63,127,19
1,63,0,38
1,63,127,30
1,63,0,34
1,63,127,59
1,63,0,152
1,63,127,38
1,63,0,23
1,62,127,9
1,62,0,39
1,62,127,30
1,62,0,37
1,62,127,56
1,62,0,38
1,62,127,62
1,62,0,37
1,62,127,59
1,62,0,16
1,63,127,12
1,63,0,41
1,63,127,18
1,63,0,38
1,63,127,57
1,63,0,175
2,1,1,0
2,67,111,384
2,70,112,0
2,70,0,27
2,67,0,0
2,63,101,4
2,63,0,31
2,70,93,1
2,67,98,1
2,67,0,25
2,70,0,4
2,63,101,3
2,67,88,31
2,63,0,1
2,70,87,0
2,70,0,29
2,67,0,1
2,63,104,1
2,63,0,29
2,67,111,4
2,70,121,0
2,70,0,27
2,63,96,4
2,67,0,11
2,63,0,22
2,70,100,0
2,67,96,0
2,70,0,29
2,63,106,3
2,67,0,5
2,63,0,26
2,70,96,1
2,67,93,0
2,67,0,25
2,70,0,0
2,63,96,7
2,63,0,25
2,67,113,7
2,70,125,0
2,70,0,28
2,63,97,4
2,67,0,1
2,63,0,29
2,70,101,2
2,67,96,0
2,70,0,29
2,63,96,3
2,67,0,1
2,67,94,30
2,70,93,1
2,63,0,2
2,70,0,24
2,67,0,0
2,63,101,6
2,63,0,31
2,67,106,1
2,70,117,0
2,70,0,29
2,67,0,0
2,63,96,3
2,67,98,31
2,70,104,1
2,63,0,1
2,70,0,28
2,67,0,0
2,63,99,3
2,67,96,31
2,70,99,1
2,63,0,2
2,70,0,26
2,67,0,2
2,63,102,2
2,67,108,32
2,70,121,0
2,63,0,5
2,70,0,25
2,63,96,2
2,67,0,1
2,63,0,28
2,70,98,3
2,67,94,0
2,67,0,29
2,70,0,0
2,63,99,3
2,70,98,31
2,67,94,1
2,63,0,3
2,67,0,24
2,70,0,0
2,63,102,5
2,67,104,32
2,70,117,0
2,63,0,10
2,63,99,21
2,70,0,1
2,67,0,4
2,70,104,28
2,67,98,0
2,63,0,7
2,63,94,25
2,70,0,1
2,67,0,4
2,70,94,27
2,67,92,0
2,63,0,4
2,67,0,22
2,70,0,1
2,63,102,5
2,70,106,32
2,67,100,0
2,63,0,5
2,70,0,26
2,63,93,1
2,67,0,4
2,70,93,28
2,67,88,0
2,63,0,7
2,63,93,25
2,70,0,4
2,67,0,4
2,70,93,24
2,67,86,0
2,63,0,1
2,67,0,29
2,70,0,0
2,63,91,2
2,70,101,32
2,67,96,0
2,63,0,1
2,67,0,28
2,70,0,0
2,63,98,3
2,63,0,29
2,67,99,3
2,70,106,0
2,70,0,30
2,63,100,2
2,67,0,2
2,70,107,30
2,67,100,0
2,63,0,1
2,63,101,31
2,67,0,3
2,70,0,0
2,67,108,29
2,70,117,0
2,63,0,1
2,70,0,30
2,63,93,1
2,67,0,0
2,63,0,29
2,70,106,3
2,67,99,0
2,70,0,30
2,63,97,2
2,67,0,1
2,70,94,30
2,67,92,1
2,63,0,0
2,70,0,30
2,63,98,2
2,67,0,1
2,67,101,31
2,70,108,0
2,63,0,1
2,70,0,28
2,67,0,0
2,63,95,3
2,67,101,32
2,70,108,0
2,63,0,3
2,70,0,26
2,63,99,3
2,67,0,6
2,70,101,25
2,67,97,1
2,63,0,2
2,67,0,25
2,70,0,5
2,63,105,0
2,63,0,25
2,72,100,7
2,68,98,0
2,68,0,30
2,63,102,2
2,72,0,3
2,68,105,28
2,72,102,1
2,63,0,0
2,68,0,32
2,63,101,0
2,72,0,1
2,63,0,28
2,68,100,2
2,72,100,1
2,72,0,24
2,68,0,5
2,63,105,3
2,68,106,32
2,72,109,0
2,63,0,2
2,72,0,28
2,63,101,2
2,68,0,1
2,68,104,31
2,72,99,0
2,63,0,3
2,63,104,29
2,72,0,1
2,68,0,0
2,63,0,27
2,68,97,4
2,72,90,0
2,63,107,32
2,72,0,9
2,68,0,0
2,63,0,10
2,65,113,13
2,70,95,0
2,62,99,31
2,70,0,3
2,65,0,3
2,70,105,27
2,65,100,0
2,62,0,0
2,70,0,30
2,62,99,2
2,65,0,1
2,65,102,31
2,70,104,0
2,62,0,5
2,65,0,21
2,70,0,0
2,62,99,5
2,65,106,33
2,70,110,0
2,62,0,2
2,70,0,25
2,62,98,4
2,65,0,2
2,65,104,31
2,70,107,0
2,62,0,5
2,70,0,26
2,65,0,1
2,62,99,0
2,70,104,32
2,65,99,0
2,62,0,3
2,62,100,29
2,65,0,1
2,70,0,5
2,62,0,24
2,70,86,2
2,67,91,0
2,63,98,32
2,67,0,1
2,70,0,5
2,70,98,26
2,67,100,0
2,63,0,2
2,63,105,30
2,67,0,2
2,70,0,4
2,70,97,26
2,67,95,0
2,63,0,8
2,67,0,23
2,63,99,1
2,70,0,3
2,70,93,29
2,67,93,0
2,63,0,4
2,70,0,28
2,63,100,0
2,67,0,0
2,70,104,32
2,67,100,0
2,63,0,3
2,70,0,28
2,63,100,1
2,67,0,3
2,70,99,29
2,67,96,0
2,63,0,3
2,70,0,27
2,63,100,2
2,67,0,1
2,70,101,31
2,67,102,0
2,63,0,2
2,63,95,30
2,70,0,3
2,67,0,1
2,70,100,27
2,67,97,1
2,63,0,8
2,63,100,24
2,67,0,2
2,70,0,5
2,70,100,24
2,67,99,1
2,63,0,4
2,63,98,27
2,67,0,2
2,70,0,0
2,70,99,31
2,67,99,0
2,63,0,4
2,63,100,27
2,67,0,2
2,70,0,4
2,70,96,27
2,67,98,0
2,63,0,4
2,63,101,28
2,70,0,6
2,67,0,5
2,70,96,20
2,67,99,1
2,63,0,5
2,63,99,27
2,67,0,0
2,70,0,0
2,63,0,28
2,72,97,4
2,68,102,0
2,63,101,31
2,68,0,1
2,72,0,1
2,63,0,28
2,68,102,3
2,72,103,0
2,68,0,30
2,72,0,0
2,63,102,2
2,68,100,32
2,72,100,0
2,63,0,5
2,68,0,25
2,72,0,0
2,63,104,2
2,68,104,32
2,72,102,0
2,63,0,3
2,72,0,26
2,68,0,0
2,63,101,3
2,68,95,32
2,72,98,0
2,63,0,0
2,63,102,32
2,72,0,3
2,68,0,1
2,72,92,28
2,68,93,0
2,63,0,2
2,63,104,30
2,68,0,7
2,72,0,5
2,63,0,4
2,70,102,16
2,65,113,0
2,70,0,26
2,62,100,5
2,65,0,2
2,62,0,28
2,70,110,3
2,65,106,0
2,65,0,27
2,70,0,0
2,62,99,5
2,65,104,31
2,70,108,1
2,62,0,0
2,70,0,26
2,65,0,1
2,62,99,4
2,70,112,33
2,65,108,0
2,62,0,3
2,65,0,27
2,70,0,0
2,62,99,2
2,65,97,32
2,70,105,0
2,64,89,0
2,62,0,8
2,64,0,5
2,65,0,18
2,62,99,1
2,70,0,3
2,65,99,29
2,70,99,0
2,62,0,8
2,62,97,24
2,65,0,1
2,70,0,3
2,62,0,25
2,70,69,3
2,67,96,0
2,63,95,32
2,67,0,6
