track,note,velocity,time
1,38,115,1684
1,38,111,54
1,38,115,70
1,38,111,50
1,38,115,78
1,38,111,54
1,38,115,70
1,38,111,50
1,38,115,78
1,38,111,54
1,38,115,70
1,38,111,50
1,38,115,78
1,38,111,54
1,38,115,70
1,38,111,50
1,38,115,78
1,38,111,54
1,38,115,70
1,38,111,50
1,31,115,78
1,31,111,54
1,31,115,70
1,31,111,50
1,33,115,78
1,33,111,54
1,33,115,70
1,33,111,50
1,38,115,78
1,38,111,54
1,38,115,70
1,38,111,50
1,38,115,78
1,38,111,54
1,38,115,70
1,38,111,50
1,31,115,78
1,31,111,54
1,31,115,70
1,31,111,50
1,33,115,78
1,33,111,54
1,33,115,70
1,33,111,50
1,38,115,78
1,38,111,54
1,38,115,70
1,38,111,50
1,38,115,78
1,38,111,54
1,38,115,70
1,38,111,50
1,31,115,78
1,31,111,54
1,31,115,70
1,31,111,50
1,38,115,78
1,38,111,54
1,38,115,70
1,38,111,50
1,33,115,78
1,33,111,54
1,33,115,70
1,33,111,50
1,38,115,78
1,38,111,54
1,38,115,70
1,38,111,50
1,31,115,78
1,31,111,54
1,31,115,70
1,31,111,50
1,33,115,78
1,33,111,54
1,33,115,70
1,33,111,50
1,38,115,78
1,38,111,54
1,38,115,70
1,38,111,50
1,38,115,3150
1,38,111,54
1,38,115,70
1,38,111,50
1,31,115,78
1,31,111,54
1,31,115,70
1,31,111,50
1,33,115,78
1,33,111,54
1,33,115,70
1,33,111,50
1,38,115,78
1,38,111,54
1,38,115,70
1,38,111,50
1,38,115,78
1,38,111,54
1,38,115,70
1,38,111,50
1,31,115,78
1,31,111,54
1,31,115,70
1,31,111,50
1,33,115,78
1,33,111,54
1,33,115,70
1,33,111,50
1,38,115,78
1,38,111,54
1,38,115,70
1,38,111,50
1,38,115,78
1,38,111,54
1,38,115,70
1,38,111,50
1,31,115,78
1,31,111,54
1,31,115,70
1,31,111,50
1,38,115,78
1,38,111,54
1,38,115,70
1,38,111,50
1,33,115,78
1,33,111,54
1,33,115,70
1,33,111,50
1,38,115,78
1,38,111,54
1,38,115,70
1,38,111,50
1,31,115,78
1,31,111,54
1,31,115,70
1,31,111,50
1,33,115,78
1,33,111,54
1,33,115,70
1,33,111,50
1,38,115,78
1,38,111,54
1,38,115,70
1,38,111,50
1,38,115,3150
1,38,111,54
1,38,115,70
1,38,111,50
1,31,115,78
1,31,111,54
1,31,115,70
1,31,111,50
1,33,115,78
1,33,111,54
1,33,115,70
1,33,111,50
1,38,115,78
1,38,111,54
1,38,115,70
1,38,111,50
1,38,115,78
1,38,111,54
1,38,115,70
1,38,111,50
1,31,115,78
1,31,111,54
1,31,115,70
1,31,111,50
1,33,115,78
1,33,111,54
1,33,115,70
1,33,111,50
1,38,115,78
1,38,111,54
1,38,115,70
1,38,111,50
1,38,115,78
1,38,111,54
1,38,115,70
1,38,111,50
1,31,115,78
1,31,111,54
1,31,115,70
1,31,111,50
1,33,115,78
1,33,111,54
1,33,115,70
1,33,111,50
1,38,115,78
1,38,111,54
1,38,115,70
1,38,111,50
1,38,115,78
1,38,111,54
1,38,115,70
1,38,111,50
1,31,115,78
1,31,111,54
1,31,115,70
1,31,111,50
1,33,115,78
1,33,111,54
1,33,115,70
1,33,111,50
1,38,115,78
1,38,111,54
1,38,115,70
1,38,111,50
1,38,115,78
1,38,111,54
1,38,115,70
1,38,111,50
1,31,115,78
1,31,111,54
1,31,115,70
1,31,111,50
1,38,115,78
1,38,111,54
1,38,115,70
1,38,111,50
1,33,115,78
1,33,111,54
1,33,115,70
1,33,111,50
1,38,115,78
1,38,111,54
1,38,115,70
1,38,111,50
1,31,115,78
1,31,111,54
1,31,115,70
1,31,111,50
1,33,115,78
1,33,111,54
1,33,115,70
1,33,111,50
1,38,115,78
1,38,111,54
1,38,115,70
1,38,111,50
1,38,115,3150
1,38,111,54
1,38,115,70
1,38,111,50
1,31,115,78
1,31,111,54
1,31,115,70
1,31,111,50
1,33,115,78
1,33,111,54
1,33,115,70
1,33,111,50
1,38,115,78
1,38,111,54
1,38,115,70
1,38,111,50
1,38,115,78
1,38,111,54
1,38,115,70
1,38,111,50
1,31,115,78
1,31,111,54
1,31,115,70
1,31,111,50
1,33,115,78
1,33,111,54
1,33,115,70
1,33,111,50
1,38,115,78
1,38,111,54
1,38,115,70
1,38,111,50
1,38,115,78
1,38,111,54
1,38,115,70
1,38,111,50
1,31,115,78
1,31,111,54
1,31,115,70
1,31,111,50
1,33,115,78
1,33,111,54
1,33,115,70
1,33,111,50
1,38,115,78
1,38,111,54
1,38,115,70
1,38,111,50
1,38,115,78
1,38,111,54
1,38,115,70
1,38,111,50
1,31,115,78
1,31,111,54
1,31,115,70
1,31,111,0
1,33,115,78
1,33,111,54
1,33,115,64
1,33,111,0
1,38,115,78
1,38,111,54
1,38,115,70
1,38,111,50
1,38,115,78
1,38,111,32
1,38,115,70
1,38,111,50
1,31,115,78
1,31,111,54
1,31,115,70
1,31,111,50
1,33,115,78
1,33,111,32
1,33,115,0
2,74,113,2420
2,81,77,128
2,78,77,0
2,74,81,4
2,81,109,126
2,78,109,0
2,74,93,6
2,81,105,2
2,78,93,0
2,74,113,8
2,81,97,10
2,78,109,0
2,74,105,0
2,81,109,128
2,78,101,0
2,74,101,0
2,81,109,2
2,78,93,0
2,74,113,12
2,81,77,128
2,78,77,0
2,74,81,4
2,78,109,126
2,81,109,0
2,74,93,6
2,78,93,2
2,81,105,0
2,74,113,8
2,81,97,10
2,78,109,0
2,74,105,0
2,78,101,128
2,81,109,0
2,74,101,0
2,81,109,2
2,78,93,0
2,74,113,12
2,81,77,128
2,78,77,0
2,74,81,4
2,78,109,126
2,81,109,0
2,74,93,6
2,81,105,2
2,78,93,0
2,74,113,8
2,78,109,10
2,81,97,0
2,74,105,0
2,81,109,128
2,78,101,0
2,74,101,0
2,81,109,2
2,78,93,0
2,74,113,12
2,81,77,128
2,78,77,0
2,74,81,4
2,81,109,126
2,78,109,0
2,74,93,6
2,81,105,2
2,78,93,0
2,74,113,8
2,78,109,10
2,81,97,0
2,74,105,0
2,81,109,128
2,78,101,0
2,74,101,0
2,78,93,2
2,81,109,0
2,74,113,12
2,78,77,128
2,81,77,0
2,74,81,4
2,81,109,126
2,78,109,0
2,74,93,6
2,81,105,2
2,78,93,0
2,74,113,8
2,78,109,10
2,81,97,0
2,74,105,0
2,81,109,128
2,78,101,0
2,74,101,0
2,81,109,2
2,78,93,0
2,74,101,12
2,79,97,128
2,83,113,0
2,74,101,14
2,79,105,128
2,83,105,0
2,74,109,10
2,83,113,128
2,79,105,0
2,74,105,12
2,79,109,2
2,83,85,0
2,74,73,10
2,79,105,128
2,83,113,0
2,74,101,0
2,83,117,2
2,79,97,0
2,73,121,14
2,81,105,126
2,76,77,0
2,73,121,2
2,81,105,6
2,76,85,0
2,73,109,8
2,81,105,14
2,76,105,0
2,73,117,128
2,81,101,18
2,76,101,0
2,73,121,128
2,81,101,24
2,76,97,0
2,73,121,4
2,81,109,16
2,76,93,0
2,74,113,4
2,81,77,128
2,78,77,0
2,74,81,4
2,81,109,126
2,78,109,0
2,74,93,6
2,81,105,2
2,78,93,0
2,74,113,8
2,78,109,10
2,81,97,0
2,74,105,0
2,81,109,128
2,78,101,0
2,74,101,0
2,81,109,2
2,78,93,0
2,74,113,12
2,81,77,128
2,78,77,0
2,74,81,4
2,81,109,126
2,78,109,0
2,74,93,6
2,81,105,2
2,78,93,0
2,74,113,8
2,81,97,10
2,78,109,0
2,74,105,0
2,78,101,128
2,81,109,0
2,74,101,0
2,81,109,2
2,78,93,0
2,74,101,12
2,83,113,128
2,79,97,0
2,74,101,14
2,79,105,128
2,83,105,0
2,74,109,10
2,83,113,128
2,79,105,0
2,74,105,12
2,83,85,2
2,79,109,0
2,74,73,10
2,83,113,128
2,79,105,0
2,74,101,0
2,83,117,2
2,79,97,0
2,73,121,14
2,76,77,126
2,81,105,0
2,73,121,2
2,81,105,6
2,76,85,0
2,73,109,8
2,81,105,14
2,76,105,0
2,73,117,128
2,76,101,18
2,81,101,0
2,73,121,128
2,76,97,24
2,81,101,0
2,73,121,4
2,76,93,16
2,81,109,0
2,74,113,4
2,81,77,128
2,78,77,0
2,74,81,4
2,81,109,126
2,78,109,0
2,74,93,6
2,81,105,2
2,78,93,0
2,74,113,8
2,78,109,10
2,81,97,0
2,74,105,0
2,78,101,128
2,81,109,0
2,74,101,0
2,81,109,2
2,78,93,0
2,74,113,12
2,78,77,128
2,81,77,0
2,74,81,4
2,81,109,126
2,78,109,0
2,74,93,6
2,78,93,2
2,81,105,0
2,74,113,8
2,78,109,10
2,81,97,0
2,74,105,0
2,81,109,128
2,78,101,0
2,74,101,0
2,81,109,2
2,78,93,0
2,74,101,12
2,79,97,128
2,83,113,0
2,74,101,14
2,83,105,128
2,79,105,0
2,74,109,10
2,79,105,128
2,83,113,0
2,74,105,12
2,79,109,2
2,83,85,0
2,74,73,10
2,83,113,128
2,79,105,0
2,74,101,0
2,79,97,2
2,83,117,0
2,74,113,14
2,81,77,126
2,78,77,0
2,74,81,4
2,78,109,126
2,81,109,0
2,74,93,6
2,78,93,2
2,81,105,0
2,74,113,8
2,81,97,10
2,78,109,0
2,74,105,0
2,78,101,128
2,81,109,0
2,74,101,0
2,81,109,2
2,78,93,0
2,73,121,12
2,81,105,128
2,76,77,0
2,73,121,2
2,81,105,6
2,76,85,0
2,73,109,8
2,81,105,14
2,76,105,0
2,73,117,128
2,76,101,18
2,81,101,0
2,73,121,128
2,76,97,24
2,81,101,0
2,73,121,4
2,76,93,16
2,81,109,0
2,74,113,4
2,78,77,128
2,81,77,0
2,74,81,4
2,78,109,126
2,81,109,0
2,74,93,6
2,78,93,2
2,81,105,0
2,74,113,8
2,81,97,10
2,78,109,0
2,74,105,0
2,81,109,128
2,78,101,0
2,74,101,0
2,78,93,2
2,81,109,0
2,74,101,12
2,79,97,128
2,83,113,0
2,74,101,14
2,79,105,128
2,83,105,0
2,74,109,10
2,79,105,128
2,83,113,0
2,74,105,12
2,83,85,2
2,79,109,0
2,74,73,10
2,79,105,128
2,83,113,0
2,74,101,0
2,83,117,2
2,79,97,0
2,73,121,14
2,81,105,126
2,76,77,0
2,73,121,2
2,76,85,6
2,81,105,0
2,73,109,8
2,81,105,14
2,76,105,0
2,73,117,128
2,81,101,18
2,76,101,0
2,73,121,128
2,81,101,24
2,76,97,0
2,73,121,4
2,81,109,16
2,76,93,0
2,74,113,4
2,81,77,128
2,78,77,0
2,74,81,4
2,78,109,126
2,81,109,0
2,74,93,6
2,78,93,2
2,81,105,0
2,74,113,8
2,78,109,10
2,81,97,0
2,74,105,0
2,78,101,128
2,81,109,0
2,74,101,0
2,78,93,2
2,81,109,0
2,74,113,12
2,78,77,128
2,81,77,0
2,74,81,4
2,81,109,126
2,78,109,0
2,74,93,6
2,78,93,2
2,81,105,0
2,74,113,8
2,81,97,10
2,78,109,0
2,74,105,0
2,81,109,128
2,78,101,0
2,74,101,0
2,81,109,2
2,78,93,0
2,74,113,12
2,81,77,128
2,78,77,0
2,74,81,4
2,78,109,126
2,81,109,0
2,74,93,6
2,81,105,2
2,78,93,0
2,74,113,8
2,78,109,10
2,81,97,0
2,74,105,0
2,78,101,128
2,81,109,0
2,74,101,0
2,81,109,2
2,78,93,0
2,74,113,12
2,78,77,128
2,81,77,0
2,74,81,4
2,78,109,126
2,81,109,0
2,74,93,6
2,81,105,2
2,78,93,0
2,74,113,8
2,81,97,10
2,78,109,0
2,74,105,0
2,78,101,128
2,81,109,0
2,74,101,0
2,81,109,2
2,78,93,0
2,74,101,12
2,79,97,128
2,83,113,0
2,74,101,14
2,83,105,128
2,79,105,0
2,74,109,10
2,79,105,128
2,83,113,0
2,74,105,12
2,79,109,2
2,83,85,0
2,74,73,10
2,83,113,128
2,79,105,0
2,74,101,0
2,83,117,2
2,79,97,0
2,73,121,14
2,76,77,126
2,81,105,0
2,73,121,2
2,81,105,6
2,76,85,0
2,73,109,8
2,81,105,14
2,76,105,0
2,73,117,128
2,81,101,18
2,76,101,0
2,73,121,128
2,81,101,24
2,76,97,0
2,73,121,4
2,81,109,16
2,76,93,0
2,74,113,4
2,81,77,128
2,78,77,0
2,74,81,4
2,81,109,126
2,78,109,0
2,74,93,6
2,78,93,2
2,81,105,0
2,74,113,8
2,81,97,10
2,78,109,0
2,74,105,0
2,81,109,128
2,78,101,0
2,74,101,0
2,78,93,2
2,81,109,0
2,74,113,12
2,78,77,128
2,81,77,0
2,74,81,4
2,81,109,126
2,78,109,0
2,74,93,6
2,81,105,2
2,78,93,0
2,74,113,8
2,78,109,10
2,81,97,0
2,74,105,0
2,78,101,128
2,81,109,0
2,74,101,0
2,78,93,2
2,81,109,0
2,74,101,12
2,83,113,128
2,79,97,0
2,74,101,14
2,83,105,128
2,79,105,0
2,74,109,10
2,79,105,128
2,83,113,0
2,74,105,12
2,83,85,2
2,79,109,0
2,74,73,10
2,79,105,128
2,83,113,0
2,74,101,0
2,83,117,2
2,79,97,0
2,73,121,14
2,76,77,126
2,81,105,0
2,73,121,2
2,76,85,6
2,81,105,0
2,73,109,8
2,76,105,14
2,81,105,0
2,73,117,128
2,76,101,18
2,81,101,0
2,73,121,128
2,76,97,24
2,81,101,0
2,73,121,4
2,76,93,16
2,81,109,0
2,74,113,4
2,81,77,128
2,78,77,0
2,74,81,4
2,78,109,126
2,81,109,0
2,74,93,6
2,81,105,2
2,78,93,0
2,74,113,8
2,78,109,10
2,81,97,0
2,74,105,0
2,78,101,128
2,81,109,0
2,74,101,0
2,81,109,2
2,78,93,0
2,74,113,12
2,81,77,128
2,78,77,0
2,74,81,4
2,81,109,126
2,78,109,0
2,74,93,6
2,81,105,2
2,78,93,0
2,74,113,8
2,78,109,10
2,81,97,0
2,74,105,0
2,81,109,128
2,78,101,0
2,74,101,0
2,78,93,2
2,81,109,0
2,74,101,12
2,83,113,128
2,79,97,0
2,74,101,14
2,79,105,128
2,83,105,0
2,74,109,10
2,79,105,128
2,83,113,0
2,74,105,12
2,83,85,2
2,79,109,0
2,74,73,10
2,83,113,128
2,79,105,0
2,74,101,0
2,83,117,2
2,79,97,0
2,74,113,14
2,78,77,126
2,81,77,0
2,74,81,4
2,81,109,126
2,78,109,0
2,74,93,6
2,81,105,2
2,78,93,0
2,74,113,8
2,81,97,10
2,78,109,0
2,74,105,0
2,81,109,128
2,78,101,0
2,74,101,0
2,78,93,2
2,81,109,0
2,73,121,12
2,76,77,128
2,81,105,0
2,73,121,2
2,76,85,6
2,81,105,0
2,73,109,8
2,81,105,14
2,76,105,0
2,73,117,128
2,76,101,18
2,81,101,0
2,73,121,128
2,81,101,24
2,76,97,0
2,73,121,4
2,81,109,16
2,76,93,0
2,74,113,4
2,78,77,128
2,81,77,0
2,74,81,4
2,81,109,126
2,78,109,0
2,74,93,6
2,81,105,2
2,78,93,0
2,74,113,8
2,81,97,10
2,78,109,0
2,74,105,0
2,81,109,128
2,78,101,0
2,74,101,0
2,78,93,2
2,81,109,0
2,74,101,12
2,79,97,128
2,83,113,0
2,74,101,14
2,83,105,128
2,79,105,0
2,74,109,10
2,83,113,128
2,79,105,0
2,74,105,12
2,83,85,2
2,79,109,0
2,74,73,10
2,83,113,128
2,79,105,0
2,74,101,0
2,83,117,2
2,79,97,0
2,73,121,14
2,81,105,126
2,76,77,0
2,73,121,2
2,81,105,6
2,76,85,0
2,73,109,8
2,81,105,14
2,76,105,0
2,73,117,128
2,76,101,18
2,81,101,0
2,73,121,128
2,81,101,24
2,76,97,0
2,73,121,4
2,76,93,16
2,81,109,0
2,74,113,4
2,78,77,128
2,81,77,0
2,74,81,4
2,78,109,126
2,81,109,0
2,74,93,6
2,81,105,2
2,78,93,0
2,74,113,8
2,78,109,10
2,81,97,0
2,74,105,0
2,81,109,128
2,78,101,0
2,74,101,0
2,81,109,2
2,78,93,0
2,74,113,12
