track,note,velocity,time
2,35,91,7960
2,35,91,6100
2,35,82,340
2,35,82,244
2,35,82,148
2,35,91,628
2,35,82,340
2,35,82,244
2,35,82,148
2,35,91,628
2,35,82,340
2,35,82,244
2,35,82,148
2,35,91,628
2,35,82,340
2,35,82,244
2,35,82,148
2,35,91,628
2,35,82,340
2,35,82,244
2,35,82,148
2,35,91,628
2,35,82,340
2,35,82,244
2,35,82,148
2,35,91,628
2,35,82,340
2,35,82,244
2,35,82,148
2,35,91,628
2,35,82,340
2,35,82,244
2,35,82,148
2,35,91,628
2,35,82,340
2,35,82,244
2,35,72,724
2,35,91,148
2,35,82,244
2,35,82,244
2,35,82,436
2,35,91,436
2,35,82,244
2,35,82,244
2,35,66,724
2,35,91,148
2,35,82,244
2,35,82,244
2,35,82,436
2,35,91,436
2,35,82,244
2,35,82,244
2,35,72,724
2,35,91,148
2,35,82,244
2,35,82,244
2,35,82,436
2,35,55,340
2,35,91,52
2,35,82,244
2,35,82,244
2,35,66,724
2,35,91,148
2,35,82,244
2,35,82,340
2,35,82,340
2,35,91,340
2,35,82,340
2,35,82,244
2,35,82,148
2,35,91,628
2,35,82,340
2,35,82,244
2,35,82,148
2,35,91,628
2,35,82,340
2,35,82,244
2,35,82,148
2,35,91,628
2,35,82,280
2,35,82,244
2,35,82,148
2,35,91,628
2,35,82,340
2,35,82,244
2,35,82,148
2,35,91,628
2,35,82,340
2,35,82,244
2,35,82,148
2,35,91,628
2,35,82,340
2,35,82,244
2,35,82,148
2,35,91,628
2,35,82,340
2,35,82,244
2,35,82,148
2,35,91,628
2,35,82,340
2,35,82,244
2,35,82,148
2,35,91,628
2,35,82,340
2,35,82,244
2,35,82,148
2,35,91,628
2,35,82,340
2,35,82,244
2,35,82,148
2,35,91,628
2,35,82,340
2,35,82,244
2,35,82,148
2,35,91,628
2,35,82,340
2,35,82,244
2,35,82,148
2,35,91,628
2,35,82,340
2,35,82,244
2,35,82,148
2,35,91,628
2,35,82,340
2,35,82,244
2,35,82,148
2,35,91,628
2,35,82,340
2,35,82,244
2,35,82,148
2,35,91,628
2,35,82,340
2,35,82,244
2,35,82,148
2,35,91,628
2,35,82,340
2,35,82,244
2,35,82,148
2,35,91,628
2,35,82,340
2,35,82,244
2,35,82,148
2,35,91,628
2,35,82,340
2,35,82,244
2,35,82,148
2,35,91,628
2,35,82,340
2,35,82,244
2,35,82,148
2,35,91,628
2,35,82,340
2,35,82,244
2,35,82,148
2,35,91,628
2,35,82,340
2,35,82,244
2,35,82,148
2,35,91,628
2,35,82,340
2,35,82,244
2,35,72,724
2,35,91,148
2,35,82,244
2,35,82,244
2,35,72,724
2,35,91,148
2,35,82,244
2,35,82,244
2,35,72,724
2,35,91,148
2,35,82,244
2,35,82,244
2,35,66,436
2,35,91,340
2,35,82,340
2,35,82,244
2,35,82,148
2,35,91,628
2,35,82,340
2,35,82,244
2,35,82,148
2,35,91,628
2,35,82,340
2,35,82,244
2,35,82,148
2,35,91,628
2,35,82,340
2,35,82,244
2,35,82,148
2,35,91,628
2,35,82,340
2,35,82,244
2,35,82,148
2,35,91,628
2,35,82,340
2,35,82,244
2,35,82,148
2,35,91,628
2,35,82,340
2,35,82,244
2,35,82,148
2,35,91,628
2,35,82,340
2,35,82,244
2,35,82,148
2,35,91,628
2,35,82,340
2,35,82,244
2,35,82,148
2,35,91,628
2,35,82,340
2,35,82,244
2,35,82,148
2,35,91,628
2,35,82,340
2,35,82,244
2,35,82,148
2,35,91,628
2,35,82,340
2,35,82,244
2,35,82,148
2,35,91,628
2,35,82,340
2,35,82,244
2,35,82,148
2,35,91,628
2,35,82,340
2,35,82,244
2,35,82,148
2,35,91,628
2,35,82,340
2,35,82,244
2,35,82,148
2,35,91,628
2,35,82,340
2,35,82,244
2,35,82,148
2,35,91,628
2,35,82,340
2,35,82,244
2,35,82,148
2,35,91,628
2,35,82,340
2,35,82,244
2,35,82,148
2,35,91,628
2,35,82,340
2,35,82,244
2,35,82,148
2,35,91,628
2,35,82,340
2,35,82,244
2,35,82,148
2,35,91,628
2,35,82,340
2,35,82,244
2,35,82,148
2,35,91,628
2,35,82,340
2,35,82,244
2,35,82,148
2,35,91,628
2,35,82,340
2,35,82,244
2,35,82,148
2,35,91,628
2,35,91,1492
2,35,82,1300
2,35,91,148
2,35,91,1492
2,35,82,1300
2,35,91,148
2,35,82,1396
2,35,82,52
2,35,82,1300
2,35,91,148
2,35,91,1492
2,35,82,1300
2,35,91,148
2,35,91,1492
2,35,82,340
2,35,82,244
2,35,82,148
2,35,91,628
2,35,82,340
2,35,82,244
2,35,82,148
2,35,91,628
2,35,82,340
2,35,82,244
2,35,82,148
2,35,91,628
2,35,82,340
2,35,82,244
2,35,82,148
2,35,91,628
2,35,82,340
2,35,82,244
2,35,82,148
2,35,91,628
2,35,82,340
2,35,82,244
2,35,82,148
2,35,91,628
2,35,82,340
2,35,82,244
2,35,82,148
2,35,91,628
2,35,82,340
2,35,82,244
2,35,82,148
2,35,91,628
2,35,82,340
2,35,82,244
2,35,82,148
2,35,91,628
2,35,82,340
2,35,82,244
2,35,82,148
2,35,91,628
2,35,82,340
2,35,82,244
2,35,82,148
2,35,91,628
2,35,82,340
2,35,82,244
2,35,82,148
2,35,91,628
2,35,82,340
2,35,82,244
2,35,82,148
2,35,91,628
2,35,82,340
2,35,82,244
2,35,82,148
2,35,91,628
2,35,82,340
2,35,82,244
2,35,82,148
2,35,91,628
2,35,82,340
2,35,82,244
2,35,82,148
2,35,91,628
2,35,82,340
2,35,82,244
2,35,82,148
2,35,91,628
2,35,82,340
2,35,82,244
2,35,82,148
2,35,91,628
2,35,82,340
2,35,82,244
2,35,82,148
2,35,91,628
2,35,91,1492
2,35,82,340
2,35,82,244
2,35,72,724
2,35,91,148
2,35,82,244
2,35,82,244
2,35,72,724
2,35,91,148
2,35,82,244
2,35,82,244
2,35,72,724
2,35,91,148
2,35,82,244
2,35,82,244
2,35,66,436
2,35,91,436
2,35,82,244
2,35,82,244
2,35,72,724
2,35,91,148
2,35,82,244
2,35,82,244
2,35,72,724
2,35,91,148
2,35,82,244
2,35,82,244
2,35,72,724
2,35,91,148
2,35,82,244
2,35,82,244
2,35,66,532
2,35,91,244
2,35,82,383
2,35,82,244
2,35,82,148
2,35,91,628
2,35,82,340
2,35,82,244
2,35,82,148
2,35,91,628
2,35,82,340
2,35,82,244
2,35,82,148
2,35,91,628
2,35,82,340
2,35,82,244
2,35,82,148
2,35,91,628
2,35,82,340
2,35,82,244
2,35,82,148
2,35,91,628
2,35,82,340
2,35,82,244
2,35,82,148
2,35,91,628
2,35,82,340
2,35,82,244
2,35,82,148
2,35,91,628
2,35,82,340
2,35,82,244
2,35,82,148
2,35,91,628
2,35,82,340
2,35,82,244
2,35,82,148
2,35,91,628
2,35,82,340
2,35,82,244
2,35,82,148
2,35,91,628
2,35,82,340
2,35,82,244
2,35,82,148
2,35,91,628
2,35,82,340
2,35,82,244
2,35,82,148
2,35,91,628
2,35,82,340
2,35,82,244
2,35,82,148
2,35,91,628
2,35,82,340
2,35,82,244
2,35,82,148
2,35,91,628
2,35,82,340
2,35,82,244
2,35,82,148
2,35,91,628
2,35,82,340
2,35,82,244
2,35,82,148
2,35,82,628
2,35,82,1396
3,40,91,14580
3,40,91,706
3,40,91,706
3,40,91,706
3,40,91,706
3,40,91,706
3,40,91,706
3,40,49,418
3,40,91,226
3,40,91,706
3,40,91,706
3,40,91,706
3,40,91,706
3,40,91,706
3,40,91,706
3,40,91,706
3,40,91,706
3,40,91,706
3,40,91,1474
3,40,91,1474
3,40,91,1474
3,40,91,1474
3,40,91,1474
3,40,91,1474
3,40,91,1474
3,40,91,610
3,40,91,802
3,40,91,706
3,40,91,706
3,40,91,706
3,40,91,706
3,40,91,706
3,40,91,706
3,40,91,706
3,40,91,706
3,40,91,706
3,40,91,706
3,40,91,706
3,40,91,706
3,40,91,706
3,40,91,706
3,40,91,322
3,40,75,34
3,40,91,226
3,40,91,706
3,40,91,706
3,40,91,706
3,40,91,706
3,40,91,706
3,40,91,706
3,40,91,706
3,40,66,418
3,40,91,226
3,40,91,706
3,40,91,706
3,40,91,706
3,40,91,706
3,40,91,706
3,40,91,706
3,40,91,706
3,40,66,418
3,40,91,226
3,40,91,706
3,40,91,706
3,40,91,706
3,40,91,706
3,40,91,706
3,40,91,706
3,40,91,706
3,40,66,418
3,40,91,226
3,40,91,706
3,40,91,706
3,40,91,706
3,40,91,706
3,40,91,706
3,40,91,706
3,40,91,706
3,40,91,1474
3,40,91,1474
3,40,91,1474
3,40,91,322
3,40,91,322
3,40,72,34
3,40,91,610
3,40,91,706
3,40,91,706
3,40,91,706
3,40,91,706
3,40,91,706
3,40,91,706
3,40,91,706
3,40,91,706
3,40,91,706
3,40,91,706
3,40,91,706
3,40,91,706
3,40,91,706
3,40,91,706
3,40,91,706
3,40,91,706
3,40,91,706
3,40,91,706
3,40,91,706
3,40,91,706
3,40,91,706
3,40,91,706
3,40,66,418
3,40,91,226
3,40,91,706
3,40,91,706
3,40,91,706
3,40,91,706
3,40,91,706
3,40,91,706
3,40,91,706
3,40,66,418
3,40,91,226
3,40,91,706
3,40,91,706
3,40,91,706
3,40,91,706
3,40,91,706
3,40,91,706
3,40,91,706
3,40,66,418
3,40,91,226
3,40,91,706
3,40,91,706
3,40,91,706
3,40,91,706
3,40,91,706
3,40,91,706
3,40,91,5698
3,40,49,130
3,40,91,34
3,40,91,130
3,40,91,130
3,40,91,802
3,40,91,226
3,40,91,226
3,40,91,3970
3,40,49,130
3,40,91,34
3,40,91,130
3,40,91,130
3,40,91,1954
3,40,91,706
3,40,91,706
3,40,91,706
3,40,91,706
3,40,91,706
3,40,91,706
3,40,66,418
3,40,91,226
3,40,91,706
3,40,91,706
3,40,91,706
3,40,91,706
3,40,91,706
3,40,91,706
3,40,91,706
3,40,66,418
3,40,91,226
3,40,91,706
3,40,91,706
3,40,91,706
3,40,91,706
3,40,91,706
3,40,91,706
3,40,91,706
3,40,91,706
3,40,91,706
3,40,91,706
3,40,91,706
3,40,91,706
3,40,91,706
3,40,91,706
3,40,91,706
3,40,66,418
3,40,91,226
3,40,91,706
3,40,91,706
3,40,91,706
3,40,91,706
3,40,91,706
3,40,91,706
3,40,91,226
3,40,91,322
3,40,91,322
3,40,91,34
3,40,81,34
3,40,91,34
3,40,91,898
3,40,91,1474
3,40,91,1474
3,40,91,1474
3,40,91,1474
3,40,91,1474
3,40,91,1474
3,40,91,1474
3,40,91,322
3,40,91,322
3,40,91,706
3,40,91,706
3,40,91,706
3,40,91,706
3,40,91,706
3,40,91,706
3,40,91,706
3,40,91,706
3,40,91,706
3,40,91,706
3,40,91,706
3,40,91,706
3,40,91,706
3,40,91,706
3,40,91,706
3,40,91,706
3,40,91,706
3,40,91,706
3,40,91,706
3,40,91,706
3,40,91,706
3,40,91,706
3,40,91,706
3,40,91,706
3,40,91,706
3,40,91,706
3,40,91,706
3,40,91,706
3,40,91,706
3,40,91,706
3,40,91,706
3,40,91,322
3,40,78,34
3,40,91,226
4,42,100,6512
4,42,55,38
4,42,66,36
4,42,95,62
4,42,64,34
4,42,64,52
4,42,98,44
4,42,51,60
4,42,84,56
4,42,95,60
4,42,55,46
4,42,90,60
4,42,101,152
4,42,95,6670
4,42,64,130
4,42,98,44
4,42,51,60
4,42,84,56
4,42,81,60
4,42,55,46
4,42,90,60
4,42,72,152
4,42,95,46
4,42,90,60
4,42,66,56
4,42,55,38
4,42,66,36
4,42,95,62
4,42,64,130
4,42,98,44
4,42,51,60
4,42,84,56
4,42,95,60
4,42,55,46
4,42,90,60
4,42,72,152
4,42,95,46
4,42,119,60
4,42,61,38
4,42,55,56
4,42,66,36
4,42,95,62
4,42,64,130
4,42,98,44
4,42,51,60
4,42,84,56
4,42,95,60
4,42,55,46
4,42,90,60
4,42,72,152
4,42,95,46
4,42,100,60
4,42,61,38
4,42,55,56
4,42,66,36
4,42,95,62
4,42,64,130
4,42,98,44
4,42,51,60
4,42,84,56
4,42,95,60
4,42,55,46
4,42,90,60
4,42,72,152
4,42,95,46
4,42,100,60
4,42,75,38
4,42,55,38
4,42,66,36
4,42,95,62
4,42,64,130
4,42,98,44
4,42,51,60
4,42,84,56
4,42,81,60
4,42,55,46
4,42,90,60
4,42,72,152
4,42,95,46
4,42,90,60
4,42,66,56
4,42,55,38
4,42,66,36
4,42,95,62
4,42,64,130
4,42,98,44
4,42,51,60
4,42,84,56
4,42,95,60
4,42,55,46
4,42,90,60
4,42,72,152
4,42,95,46
4,46,119,60
4,42,61,38
4,42,55,56
4,42,66,36
4,42,95,62
4,42,64,130
4,42,98,44
4,42,51,60
4,42,84,56
4,42,95,60
4,42,55,46
4,42,90,60
4,42,72,152
4,42,95,46
4,42,100,60
4,42,61,38
4,42,55,56
4,42,66,36
4,42,95,62
4,42,64,130
4,42,98,44
4,42,51,60
4,42,84,56
4,42,95,60
4,42,55,46
4,42,90,60
4,46,110,152
4,42,46,46
4,46,116,60
4,42,75,38
4,42,55,38
4,42,66,36
4,42,95,62
4,42,64,130
4,42,98,44
4,42,51,60
4,42,84,56
4,42,81,60
4,42,55,46
4,42,90,60
4,42,55,56
4,42,72,60
4,42,95,46
4,42,90,60
4,42,66,56
4,42,55,38
4,42,66,36
4,42,95,62
4,42,64,130
4,42,98,44
4,42,51,60
4,42,84,56
4,42,95,60
4,42,55,46
4,42,90,60
4,42,55,56
4,42,72,60
4,42,95,46
4,42,119,60
4,42,61,38
4,42,55,56
4,42,66,36
4,42,95,62
4,42,64,130
4,42,98,44
4,42,51,60
4,42,84,56
4,42,95,60
4,42,55,46
4,42,90,60
4,42,55,56
4,42,72,60
4,42,95,46
4,42,100,60
4,42,61,38
4,42,55,56
4,42,66,36
4,42,95,62
4,42,64,130
4,42,98,44
4,42,51,60
4,42,84,56
4,42,95,60
4,42,55,46
4,42,90,60
4,42,55,56
4,42,72,60
4,42,95,46
4,42,100,60
4,42,75,38
4,42,55,38
4,42,66,36
4,42,95,62
4,42,64,130
4,42,98,44
4,42,51,60
4,42,84,56
4,42,81,60
4,42,55,46
4,42,90,60
4,42,55,56
4,42,72,60
4,42,95,46
4,42,90,60
4,42,66,56
4,42,55,38
4,42,66,36
4,42,95,62
4,42,64,130
4,42,98,44
4,42,51,60
4,42,84,56
4,42,95,60
4,42,55,46
4,42,90,60
4,42,55,56
4,42,72,60
4,42,95,46
4,42,119,60
4,42,61,38
4,42,55,56
4,42,66,36
4,42,95,62
4,42,64,130
4,42,98,44
4,42,51,60
4,42,84,56
4,42,95,60
4,42,55,46
4,42,90,60
4,42,55,56
4,46,101,60
4,42,58,46
4,42,100,60
4,42,61,38
4,42,55,56
4,42,66,36
4,42,95,62
4,42,64,130
4,42,84,44
4,42,101,60
4,42,69,56
4,42,64,60
4,42,78,46
4,42,93,60
4,42,55,56
4,42,75,60
4,42,95,46
4,42,100,60
4,42,75,38
4,42,55,38
4,42,66,36
4,42,95,62
4,42,64,130
4,42,98,44
4,42,51,60
4,42,84,56
4,42,81,60
4,42,55,46
4,42,90,60
4,42,72,152
4,42,95,46
4,42,90,60
4,42,66,56
4,42,55,38
4,42,66,36
4,42,95,62
4,42,64,130
4,42,98,44
4,42,51,60
4,42,84,56
4,42,95,60
4,42,55,46
4,42,90,60
4,42,72,152
4,42,95,46
4,42,98,60
4,42,61,38
4,42,55,56
4,42,66,36
4,42,95,62
4,42,64,130
4,42,98,44
4,42,51,60
4,42,84,56
4,42,95,60
4,42,55,46
4,42,90,60
4,42,72,152
4,42,95,46
4,42,100,60
4,42,61,38
4,42,55,56
4,42,66,36
4,42,95,62
4,42,64,130
4,42,98,44
4,46,104,60
4,42,84,56
4,42,95,60
4,42,55,46
4,42,90,60
4,42,93,152
4,42,46,46
4,42,116,60
4,42,75,38
4,42,55,38
4,42,66,36
4,42,95,62
4,42,64,130
4,42,98,44
4,42,51,60
4,42,84,56
4,42,81,60
4,42,55,46
