track,note,velocity,time
0,45,114,1
0,45,0,47
0,52,114,1
0,52,0,18
0,38,114,6
0,38,0,2
0,47,114,22
0,47,0,22
0,50,114,2
0,50,0,23
0,45,114,0
0,45,0,47
0,49,114,1
0,49,0,7
0,43,114,0
0,43,0,23
0,47,114,1
0,47,0,47
0,43,114,1
0,43,0,3
0,38,114,0
0,38,0,48
0,45,114,0
0,45,0,47
0,37,114,1
0,37,0,24
0,45,114,0
0,45,0,25
0,35,114,23
0,35,0,47
0,45,114,1
0,45,0,47
0,41,114,0
0,41,0,47
0,48,114,1
0,48,0,23
0,41,114,1
0,41,0,23
0,43,114,1
0,43,0,23
0,46,114,1
0,46,0,23
0,41,114,0
0,41,0,47
0,45,114,1
0,45,0,11
0,41,114,0
0,41,0,23
0,43,114,1
0,43,0,23
0,43,114,1
0,43,0,23
0,39,114,1
0,39,0,47
0,45,114,1
0,52,100,0
0,52,100,0
0,52,0,47
0,52,0,0
0,45,0,0
0,52,114,1
0,57,100,0
0,57,100,0
0,57,0,18
0,57,0,0
0,52,0,0
0,38,114,6
0,38,0,2
0,47,114,22
0,50,100,0
0,50,100,0
0,47,0,22
0,50,0,1
0,50,0,0
0,50,114,1
0,55,100,0
0,55,100,0
0,55,0,20
0,55,0,0
0,50,0,23
0,45,114,0
0,52,100,0
0,52,100,0
0,52,0,24
0,52,0,0
0,45,0,23
0,49,114,1
0,57,100,0
0,57,100,0
0,57,0,24
0,57,0,0
0,49,0,7
0,43,114,0
0,50,100,0
0,50,100,0
0,50,0,23
0,50,0,0
0,43,0,0
0,47,114,1
0,55,100,0
0,55,100,0
0,55,0,47
0,55,0,0
0,47,0,0
0,43,114,1
0,50,100,0
0,50,100,0
0,50,0,3
0,50,0,0
0,43,0,0
0,38,114,0
0,54,100,0
0,54,100,0
0,54,0,38
0,54,0,0
0,38,0,0
0,45,114,0
0,62,100,0
0,62,100,0
0,62,0,18
0,62,0,0
0,45,0,29
0,37,114,1
0,52,100,0
0,52,100,0
0,52,0,24
0,52,0,0
0,37,0,0
0,45,114,0
0,57,100,0
0,57,100,0
0,57,0,25
0,57,0,0
0,45,0,0
0,35,114,23
0,50,100,0
0,50,100,0
0,50,0,22
0,50,0,0
0,35,0,25
0,45,114,1
0,52,100,0
0,52,100,0
0,52,0,20
0,52,0,0
0,45,0,27
0,41,114,0
0,50,100,0
0,50,100,0
0,50,0,2
0,50,0,0
0,48,100,0
0,48,100,0
0,56,64,0
0,56,0,1
0,56,50,11
0,56,0,1
0,56,36,11
0,56,0,1
0,56,36,11
0,56,0,1
0,48,0,10
0,48,0,0
0,41,0,0
0,48,114,1
0,53,100,0
0,53,100,0
0,56,64,0
0,56,0,1
0,56,50,11
0,56,0,1
0,53,0,10
0,53,0,0
0,48,0,0
0,41,114,1
0,56,36,0
0,56,0,1
0,56,36,11
0,56,0,1
0,41,0,10
0,43,114,1
0,46,100,0
0,46,100,0
0,56,64,0
0,56,0,1
0,56,50,11
0,56,0,1
0,46,0,10
0,46,0,0
0,43,0,0
0,46,114,1
0,51,100,0
0,51,100,0
0,56,36,0
0,56,0,1
0,56,36,11
0,56,0,1
0,51,0,7
0,51,0,0
0,56,64,0
0,56,0,1
0,56,50,11
0,56,0,1
0,46,0,10
0,41,114,0
0,48,100,0
0,48,100,0
0,56,36,0
0,40,22,0
0,56,0,1
0,40,0,0
0,56,36,11
0,56,0,1
0,48,0,11
0,48,0,0
0,56,64,0
0,40,36,0
0,56,0,1
0,40,0,0
0,56,50,11
0,56,0,1
0,41,0,10
0,45,114,1
0,53,100,0
0,53,100,0
0,56,36,0
0,40,50,0
0,56,0,1
0,40,0,0
0,56,36,11
0,56,0,1
0,53,0,10
0,53,0,0
0,56,78,1
0,40,64,0
0,56,0,1
0,40,0,0
0,56,50,0
0,56,0,1
0,45,0,10
0,41,114,0
0,46,100,0
0,46,100,0
0,56,36,0
0,40,78,0
0,56,0,1
0,40,0,0
0,56,36,11
0,56,0,1
0,46,0,10
0,46,0,0
0,41,0,0
0,43,114,1
0,51,100,0
0,51,100,0
0,56,78,0
0,40,92,0
0,56,0,1
0,40,0,0
0,56,64,11
0,56,0,1
0,43,0,10
0,43,114,1
0,56,50,0
0,40,92,0
0,56,0,1
0,40,0,0
0,56,50,11
0,56,0,1
0,51,0,10
0,51,0,0
0,43,0,0
0,39,114,1
0,46,100,0
0,46,100,0
0,56,92,0
0,40,106,0
0,56,0,1
0,40,0,0
0,56,64,11
0,56,0,1
0,56,64,11
0,40,120,0
0,56,0,1
0,40,0,0
0,56,64,11
0,56,0,1
0,46,0,10
0,46,0,0
0,39,0,0
0,45,114,1
0,45,100,0
0,52,100,0
0,57,100,0
0,61,100,0
0,52,100,0
0,57,100,0
0,61,100,0
0,76,100,0
0,69,100,0
0,73,100,0
0,76,100,0
0,46,71,0
0,36,106,0
0,46,0,1
0,36,0,0
0,76,0,19
0,69,0,3
0,73,0,0
0,76,0,0
0,52,0,24
0,57,0,0
0,61,0,0
0,45,0,0
0,52,0,0
0,57,0,0
0,61,0,0
0,45,0,0
0,52,114,1
0,45,100,0
0,52,100,0
0,57,100,0
0,61,100,0
0,52,100,0
0,57,100,0
0,61,100,0
0,81,100,0
0,73,100,0
0,76,100,0
0,81,100,0
0,46,71,0
0,36,106,0
0,46,0,1
0,36,0,0
0,52,0,11
0,57,0,0
0,61,0,0
0,45,0,0
0,52,0,0
0,57,0,0
0,61,0,0
0,52,0,6
0,81,0,2
0,73,0,3
0,76,0,0
0,81,0,0
0,38,114,1
0,38,0,2
0,47,114,22
0,43,100,0
0,50,100,0
0,55,100,0
0,59,100,0
0,50,100,0
0,55,100,0
0,59,100,0
0,74,100,0
0,67,100,0
0,71,100,0
0,74,100,0
0,46,71,0
0,40,120,0
0,46,0,1
0,40,0,0
0,74,0,19
0,47,0,2
0,67,0,1
0,71,0,0
0,74,0,0
0,50,0,0
0,55,0,0
0,59,0,0
0,43,0,0
0,50,0,0
0,55,0,0
0,59,0,0
0,50,114,1
0,43,100,0
0,50,100,0
0,55,100,0
0,59,100,0
0,50,100,0
0,55,100,0
0,59,100,0
0,79,100,0
0,71,100,0
0,74,100,0
0,79,100,0
0,46,57,0
0,36,92,0
0,46,0,1
0,36,0,0
0,79,0,19
0,71,0,3
0,74,0,0
0,79,0,0
0,50,0,0
0,55,0,0
0,59,0,0
0,43,0,0
0,50,0,0
0,55,0,0
0,59,0,0
0,50,0,23
0,45,114,0
0,45,100,0
0,52,100,0
0,57,100,0
0,61,100,0
0,52,100,0
0,57,100,0
0,61,100,0
0,76,100,0
0,69,100,0
0,73,100,0
0,76,100,0
0,46,71,0
0,36,106,0
0,46,0,1
0,36,0,0
0,76,0,19
0,69,0,3
0,73,0,0
0,76,0,0
0,52,0,0
0,57,0,0
0,61,0,0
0,45,0,0
0,52,0,0
0,57,0,0
0,61,0,0
0,45,0,24
0,49,114,1
0,45,100,0
0,52,100,0
0,57,100,0
0,61,100,0
0,64,100,0
0,57,100,0
0,61,100,0
0,64,100,0
0,81,100,0
0,73,100,0
0,76,100,0
0,81,100,0
0,46,71,0
0,36,106,0
0,46,0,1
0,36,0,0
0,81,0,19
0,73,0,3
0,76,0,0
0,81,0,0
0,57,0,0
0,61,0,0
0,64,0,0
0,45,0,0
0,52,0,0
0,57,0,0
0,61,0,0
0,64,0,0
0,49,0,7
0,43,114,0
0,45,100,0
0,52,100,0
0,57,100,0
0,59,100,0
0,52,100,0
0,57,100,0
0,59,100,0
0,74,100,0
0,46,57,0
0,36,92,0
0,46,0,1
0,36,0,0
0,74,0,19
0,52,0,3
0,57,0,0
0,59,0,0
0,45,0,0
0,52,0,0
0,57,0,0
0,59,0,0
0,43,0,0
0,47,114,1
0,43,100,0
0,50,100,0
0,55,100,0
0,59,100,0
0,62,100,0
0,55,100,0
0,59,100,0
0,62,100,0
0,79,100,0
0,71,100,0
0,74,100,0
0,79,100,0
0,46,71,0
0,40,120,0
0,46,0,1
0,40,0,0
0,71,0,46
0,74,0,0
0,79,0,0
0,79,0,0
0,55,0,0
0,59,0,0
0,62,0,0
0,43,0,0
0,50,0,0
0,55,0,0
0,59,0,0
0,62,0,0
0,47,0,0
0,43,114,1
0,43,100,0
0,50,100,0
0,55,100,0
0,59,100,0
0,50,100,0
0,55,100,0
0,59,100,0
0,74,100,0
0,67,100,0
0,71,100,0
0,74,100,0
0,46,57,0
0,36,92,0
0,46,0,1
0,36,0,0
0,74,0,19
0,67,0,3
0,71,0,0
0,74,0,0
0,50,0,0
0,55,0,0
0,59,0,0
0,43,0,0
0,50,0,0
0,55,0,0
0,59,0,0
0,43,0,3
0,38,114,0
0,50,100,0
0,54,100,0
0,57,100,0
0,62,100,0
0,57,100,0
0,62,100,0
0,66,100,0
0,78,100,0
0,69,100,0
0,74,100,0
0,78,100,0
0,46,71,0
0,36,106,0
0,46,0,1
0,36,0,0
0,78,0,19
0,69,0,3
0,74,0,0
0,78,0,0
0,57,0,24
0,62,0,0
0,66,0,0
0,50,0,0
0,54,0,0
0,57,0,0
0,62,0,0
0,38,0,1
0,45,114,0
0,50,100,0
0,54,100,0
0,57,100,0
0,62,100,0
0,62,100,0
0,66,100,0
0,69,100,0
0,81,100,0
0,74,100,0
0,78,100,0
0,81,100,0
0,46,71,0
0,36,106,0
0,46,0,1
0,36,0,0
0,81,0,19
0,74,0,3
0,78,0,0
0,81,0,0
0,62,0,0
0,66,0,0
0,69,0,0
0,50,0,0
0,54,0,0
0,57,0,0
0,62,0,0
0,45,0,24
0,37,114,1
0,52,100,0
0,57,100,0
0,61,100,0
0,57,100,0
0,61,100,0
0,64,100,0
0,76,100,0
0,69,100,0
0,73,100,0
0,76,100,0
0,46,71,0
0,40,120,0
0,46,0,1
0,40,0,0
0,76,0,19
0,69,0,3
0,73,0,0
0,76,0,0
0,57,0,0
0,61,0,0
0,64,0,0
0,52,0,0
0,57,0,0
0,61,0,0
0,37,0,1
0,45,114,0
0,52,100,0
0,57,100,0
0,61,100,0
0,61,100,0
0,64,100,0
0,69,100,0
0,81,100,0
0,73,100,0
0,76,100,0
0,81,100,0
0,46,57,0
0,36,92,0
0,46,0,1
0,36,0,0
0,81,0,19
0,73,0,3
0,76,0,0
0,81,0,0
0,61,0,0
0,64,0,0
0,69,0,0
0,52,0,0
0,57,0,0
0,61,0,0
0,45,0,2
0,35,114,23
0,47,100,0
0,50,100,0
0,55,100,0
0,59,100,0
0,55,100,0
0,59,100,0
0,62,100,0
0,74,100,0
0,67,100,0
0,71,100,0
0,74,100,0
0,46,71,0
0,36,106,0
0,46,0,1
0,36,0,0
0,74,0,19
0,67,0,3
0,71,0,0
0,74,0,0
0,55,0,0
0,59,0,0
0,62,0,0
0,47,0,0
0,50,0,0
0,55,0,0
0,59,0,0
0,35,0,24
0,45,114,1
0,49,100,0
0,52,100,0
0,57,100,0
0,61,100,0
0,57,100,0
0,61,100,0
0,67,100,0
0,79,100,0
0,71,100,0
0,74,100,0
0,79,100,0
0,46,71,0
0,36,106,0
0,46,0,1
0,36,0,0
0,79,0,19
0,71,0,3
0,74,0,0
0,79,0,0
0,57,0,0
0,61,0,0
0,67,0,0
0,49,0,0
0,52,0,0
0,57,0,0
0,61,0,0
0,45,0,24
0,41,114,0
0,47,100,0
0,50,100,0
0,55,100,0
0,59,100,0
0,55,100,0
0,59,100,0
0,62,100,0
0,74,100,0
0,67,100,0
0,71,100,0
0,74,100,0
0,46,57,0
0,40,120,0
0,46,0,1
0,40,0,0
0,74,0,2
0,67,0,2
0,71,0,0
0,74,0,0
0,55,0,0
0,59,0,0
0,62,0,0
0,47,0,0
0,50,0,0
0,55,0,0
0,59,0,0
0,48,100,0
0,53,100,0
0,57,100,0
0,60,100,0
0,65,100,0
0,69,100,0
0,72,100,0
0,65,100,0
0,69,100,0
0,72,100,0
0,46,71,0
0,36,106,0
0,46,0,1
0,36,0,0
0,72,0,19
0,65,0,3
0,69,0,0
0,72,0,0
0,60,0,0
0,65,0,0
0,69,0,0
0,48,0,24
0,53,0,0
0,57,0,0
0,41,0,0
0,48,114,1
0,48,100,0
0,53,100,0
0,57,100,0
0,60,100,0
0,65,100,0
0,69,100,0
0,77,100,0
0,69,100,0
0,72,100,0
0,77,100,0
0,46,71,0
0,36,106,0
0,46,0,1
0,36,0,0
0,69,0,19
0,72,0,0
0,77,0,0
0,77,0,0
0,60,0,0
0,65,0,0
0,69,0,0
0,48,0,0
0,53,0,0
0,57,0,0
0,48,0,3
0,41,114,1
0,41,0,23
0,43,114,1
0,46,100,0
0,51,100,0
0,55,100,0
0,58,100,0
0,63,100,0
0,67,100,0
0,70,100,0
0,63,100,0
0,67,100,0
0,70,100,0
0,46,71,0
0,40,120,0
0,46,0,1
0,40,0,0
0,70,0,19
0,63,0,3
0,67,0,0
0,70,0,0
0,58,0,0
0,63,0,0
0,67,0,0
0,46,0,0
0,51,0,0
0,55,0,0
0,43,0,0
0,46,114,1
0,46,100,0
0,51,100,0
0,55,100,0
0,58,100,0
0,58,100,0
0,63,100,0
0,67,100,0
0,79,100,0
0,67,100,0
0,70,100,0
0,75,100,0
0,46,57,0
0,36,92,0
0,46,0,1
0,36,0,0
0,79,0,19
0,67,0,3
0,70,0,0
0,75,0,0
0,58,0,0
0,63,0,0
0,67,0,0
0,46,0,0
0,51,0,0
0,55,0,0
0,58,0,0
0,46,0,23
0,41,114,0
0,48,100,0
0,53,100,0
0,57,100,0
0,60,100,0
0,65,100,0
0,69,100,0
0,72,100,0
0,65,100,0
0,69,100,0
0,72,100,0
0,46,71,0
0,36,106,0
0,46,0,1
0,36,0,0
0,72,0,19
0,65,0,3
0,69,0,0
0,72,0,0
0,60,0,0
0,65,0,0
0,69,0,0
0,48,0,0
0,53,0,0
0,57,0,0
0,41,0,24
0,45,114,1
0,48,100,0
0,53,100,0
0,57,100,0
0,60,100,0
0,65,100,0
0,69,100,0
0,77,100,0
0,69,100,0
0,72,100,0
0,77,100,0
0,46,71,0
0,36,106,0
0,46,0,1
0,36,0,0
0,77,0,19
0,69,0,3
0,72,0,0
0,77,0,0
0,60,0,0
0,65,0,0
0,69,0,0
0,48,0,0
0,53,0,0
0,57,0,0
0,45,0,11
0,41,114,0
0,45,100,0
0,48,100,0
0,53,100,0
0,55,100,0
0,58,100,0
0,63,100,0
0,70,100,0
0,63,100,0
0,67,100,0
0,70,100,0
0,46,57,0
0,40,120,0
0,46,0,1
0,40,0,0
0,70,0,19
0,63,0,3
0,67,0,0
0,70,0,0
0,55,0,0
0,58,0,0
0,63,0,0
0,45,0,0
0,48,0,0
0,53,0,0
0,41,0,0
0,43,114,1
0,46,100,0
0,51,100,0
0,55,100,0
0,58,100,0
0,63,100,0
0,67,100,0
0,75,100,0
0,67,100,0
0,70,100,0
0,75,100,0
0,40,120,0
0,40,0,1
0,43,0,22
0,43,114,1
0,40,106,0
0,40,0,1
0,67,0,22
0,70,0,0
0,75,0,0
0,75,0,0
0,58,0,0
0,63,0,0
0,67,0,0
0,46,0,0
0,51,0,0
0,55,0,0
0,43,0,0
0,39,114,1
0,46,100,0
0,51,100,0
0,55,100,0
0,58,100,0
0,55,100,0
0,58,100,0
0,63,100,0
0,70,100,0
0,63,100,0
0,67,100,0
0,70,100,0
0,40,120,0
0,40,0,1
0,70,0,19
0,63,0,3
0,67,0,0
0,70,0,0
0,55,0,0
0,58,0,0
0,63,0,0
0,46,0,0
0,51,0,0
0,55,0,0
0,58,0,0
0,40,120,1
0,40,0,1
0,39,0,22
0,45,114,1
0,45,100,0
0,52,100,0
0,57,100,0
0,61,100,0
0,52,100,0
0,57,100,0
0,61,100,0
0,76,100,0
0,69,100,0
0,73,100,0
0,76,100,0
0,57,78,0
0,36,92,0
0,57,0,1
0,36,0,0
0,76,0,19
0,69,0,3
0,73,0,0
0,76,0,0
0,52,0,24
0,57,0,0
0,61,0,0
0,45,0,0
0,52,0,0
0,57,0,0
