track,note,velocity,time
0,65,115,0
0,64,113,20
0,41,115,20
0,53,80,0
0,55,86,0
0,57,83,0
0,60,85,0
0,62,112,0
0,60,116,12
0,60,112,12
0,41,114,32
0,75,84,576
0,69,53,188
0,69,52,92
0,34,119,28
0,62,78,0
0,62,79,384
0,34,117,32
0,65,111,480
0,42,56,12
0,64,117,0
0,41,110,28
0,60,86,0
0,62,117,0
0,60,119,12
0,60,111,12
0,41,118,32
0,75,87,576
0,69,45,188
0,69,45,92
0,34,116,28
0,62,78,0
0,62,80,384
0,34,117,32
0,53,110,480
0,42,57,12
0,65,117,0
0,64,114,16
0,62,115,16
0,41,112,16
0,53,78,0
0,55,84,0
0,57,80,0
0,60,82,0
0,60,110,0
0,38,111,28
0,53,87,0
0,57,82,0
0,60,83,0
0,62,80,0
0,62,111,0
0,57,119,0
0,57,118,28
0,55,111,12
0,75,82,12
0,57,118,0
0,55,116,12
0,69,47,12
0,53,116,0
0,69,52,92
0,39,119,32
0,55,81,0
0,58,83,0
0,62,80,0
0,65,85,0
0,62,80,28
0,39,115,32
0,53,116,384
0,53,119,12
0,42,53,12
0,53,113,0
0,55,119,12
0,53,114,12
0,41,117,20
0,53,83,0
0,55,82,0
0,57,79,0
0,60,82,0
0,57,113,0
0,60,113,28
0,41,118,32
0,64,85,0
0,75,84,576
0,69,44,188
0,69,47,92
0,36,113,32
0,53,83,0
0,55,86,0
0,58,86,0
0,62,79,0
0,62,80,124
0,36,110,32
0,42,51,480
0,65,115,0
0,42,50,12
0,64,118,0
0,46,100,20
0,62,110,0
0,42,50,20
0,41,110,0
0,53,85,0
0,55,82,0
0,57,85,0
0,60,83,0
0,53,103,0
0,62,110,0
0,60,98,12
0,60,118,0
0,65,102,12
0,60,114,0
0,42,54,108
0,65,95,0
0,41,113,20
0,60,99,0
0,42,54,12
0,53,99,0
0,42,58,12
0,60,95,92
0,42,51,12
0,65,99,0
0,54,87,108
0,65,101,0
0,69,46,20
0,60,94,0
0,69,52,12
0,53,91,0
0,34,112,12
0,62,80,0
0,60,86,96
0,65,84,12
0,63,86,108
0,65,79,0
0,34,111,20
0,60,74,0
0,53,71,12
0,65,118,0
0,54,81,20
0,65,110,0
0,64,117,20
0,42,54,20
0,41,114,0
0,60,85,0
0,53,98,0
0,62,111,0
0,60,94,12
0,60,115,0
0,65,101,12
0,60,110,0
0,42,59,108
0,65,99,0
0,41,110,20
0,60,102,0
0,42,58,12
0,53,97,0
0,42,59,12
0,60,97,92
0,42,57,12
0,65,102,0
0,54,87,108
0,65,96,0
0,69,48,20
0,60,93,0
0,69,49,12
0,53,90,0
0,34,119,12
0,62,83,0
0,60,84,96
0,65,81,12
0,63,85,108
0,65,75,0
0,34,111,20
0,60,69,0
0,53,65,12
0,62,115,300
0,54,83,12
0,62,118,0
0,36,119,20
0,60,112,0
0,38,118,12
0,42,52,12
0,41,111,0
0,53,79,0
0,55,86,0
0,57,87,0
0,60,85,0
0,53,102,0
0,58,117,0
0,60,101,12
0,57,114,0
0,65,99,12
0,57,111,0
0,42,58,108
0,65,97,0
0,60,112,28
0,38,118,20
0,53,82,0
0,57,87,0
0,60,86,0
0,62,81,0
0,60,99,0
0,42,50,12
0,53,96,0
0,57,112,0
0,42,55,12
0,60,97,92
0,42,53,12
0,65,102,0
0,54,80,108
0,65,101,0
0,69,47,20
0,36,117,0
0,60,97,0
0,50,119,0
0,69,45,12
0,38,113,0
0,53,95,0
0,53,119,0
0,39,117,12
0,55,84,0
0,58,81,0
0,62,83,0
0,65,84,0
0,55,116,0
0,60,90,36
0,65,87,12
0,63,87,108
0,65,82,0
0,39,115,20
0,60,77,0
0,53,75,12
0,53,113,124
0,53,113,12
0,54,82,12
0,53,117,0
0,55,119,12
0,53,114,12
0,57,116,0
0,42,53,32
0,41,113,0
0,53,80,0
0,55,86,0
0,57,81,0
0,60,82,0
0,53,94,0
0,60,95,12
0,65,98,12
0,60,118,12
0,42,54,96
0,65,95,0
0,41,114,20
0,64,81,0
0,60,101,0
0,42,50,12
0,53,98,0
0,42,51,12
0,60,96,92
0,42,54,12
0,65,102,0
0,54,80,108
0,65,100,0
0,69,44,20
0,41,118,0
0,60,98,0
0,69,50,12
0,43,111,0
0,53,94,0
0,36,118,12
0,53,78,0
0,55,85,0
0,58,83,0
0,62,78,0
0,60,88,96
0,65,85,12
0,63,86,108
0,65,78,0
0,36,113,20
0,60,71,0
0,53,68,12
0,65,110,300
0,54,80,12
0,48,111,0
0,65,113,0
0,43,110,20
0,36,121,20
0,42,51,0
0,41,117,0
0,53,83,0
0,55,87,0
0,57,82,0
0,60,81,0
0,53,103,0
0,64,119,0
0,60,101,12
0,65,98,12
0,62,116,0
0,60,112,12
0,42,51,12
0,65,95,0
0,60,115,0
0,36,99,20
0,41,115,0
0,60,97,0
0,42,51,12
0,53,102,0
0,42,50,12
0,60,98,92
0,42,57,12
0,65,96,0
0,38,123,108
0,54,82,0
0,65,98,0
0,69,52,20
0,60,94,0
0,69,47,12
0,29,117,0
0,53,92,0
0,36,118,12
0,42,53,0
0,34,117,0
0,62,81,0
0,60,88,92
0,65,86,12
0,42,52,12
0,42,52,28
0,63,87,0
0,65,82,0
0,36,96,20
0,34,112,0
0,60,78,0
0,42,52,12
0,53,76,0
0,42,53,12
0,53,112,92
0,36,101,12
0,42,56,0
0,69,117,0
0,38,119,132
0,54,87,0
0,67,118,60
0,46,96,64
0,65,119,16
0,36,119,16
0,42,53,0
0,41,111,0
0,60,85,0
0,53,102,0
0,62,116,0
0,60,102,12
0,65,95,12
0,42,55,28
0,65,98,0
0,64,118,0
0,62,118,12
0,36,101,12
0,41,114,0
0,60,94,0
0,60,113,0
0,42,57,12
0,53,94,0
0,42,50,12
0,60,98,92
0,42,51,12
0,65,103,0
0,38,115,108
0,54,81,0
0,65,101,0
0,69,46,20
0,29,118,0
0,60,96,0
0,69,49,12
0,31,118,0
0,53,94,0
0,36,119,12
0,42,54,0
0,34,117,0
0,62,86,0
0,60,89,92
0,65,87,12
0,42,54,12
0,42,51,92
0,63,84,0
0,65,82,0
0,36,101,20
0,34,114,0
0,60,77,0
0,42,59,12
0,53,74,0
0,42,54,12
0,36,102,188
0,42,53,0
0,65,119,92
0,38,123,12
0,54,79,0
0,65,116,0
0,64,116,20
0,42,58,64
0,62,112,20
0,42,57,32
0,36,115,20
0,42,58,0
0,41,117,0
0,53,87,0
0,55,81,0
0,57,80,0
0,60,83,0
0,53,102,0
0,60,111,0
0,60,97,12
0,65,94,12
0,42,54,108
0,65,103,0
0,36,102,20
0,38,113,0
0,53,79,0
0,57,87,0
0,60,85,0
0,62,80,0
0,60,96,0
0,62,113,0
0,42,59,12
0,53,98,0
0,57,112,0
0,42,55,12
0,60,97,92
0,42,55,12
0,65,102,0
0,38,119,108
0,54,87,0
0,65,96,0
0,50,117,28
0,69,52,12
0,60,95,0
0,53,118,0
0,69,46,12
0,53,92,0
0,55,112,0
0,36,118,12
0,42,51,0
0,39,116,0
0,55,80,0
0,58,83,0
0,62,85,0
0,65,81,0
0,60,87,92
0,65,84,12
0,42,57,12
0,42,51,92
0,63,86,0
0,65,79,0
0,36,99,20
0,39,115,0
0,60,73,0
0,42,54,12
0,53,70,0
0,42,55,12
0,36,96,188
0,42,52,0
0,53,110,0
0,53,110,12
0,38,117,12
0,54,84,0
0,53,111,0
0,55,114,12
0,46,94,12
0,53,119,0
0,36,115,20
0,42,51,0
0,41,118,0
0,53,78,0
0,55,80,0
0,57,83,0
0,60,79,0
0,53,95,0
0,57,113,0
0,60,103,12
0,65,96,12
0,60,118,12
0,42,51,96
0,65,94,0
0,36,100,20
0,41,111,0
0,64,81,0
0,60,94,0
0,42,59,12
0,53,96,0
0,42,57,12
0,60,103,92
0,42,54,12
0,65,100,0
0,38,124,32
0,54,79,0
0,41,110,0
0,65,91,0
0,69,46,20
0,41,119,0
0,60,83,0
0,60,112,0
0,69,50,12
0,43,112,0
0,53,79,0
0,36,116,12
0,36,116,0
0,53,78,0
0,55,80,0
0,58,80,0
0,62,80,0
0,62,118,0
0,50,100,132
0,65,117,28
0,63,78,96
0,47,95,60
0,43,101,144
0,70,113,0
0,50,96,32
0,69,112,0
0,50,98,32
0,54,84,0
0,41,111,0
0,50,97,92
0,47,98,28
0,65,109,0
0,43,99,16
0,65,112,0
0,36,118,4
0,42,58,0
0,49,124,0
0,29,116,0
0,57,80,0
0,60,86,0
0,65,83,0
0,60,115,0
0,65,102,0
0,69,112,0
0,42,50,20
0,64,102,0
0,70,113,0
0,38,117,20
0,42,59,0
0,60,103,0
0,72,112,0
0,36,97,20
0,42,52,0
0,29,113,0
0,65,98,0
0,70,114,0
0,42,55,20
0,64,95,0
0,42,59,20
0,60,98,0
0,69,111,0
0,38,117,20
0,42,52,0
0,54,85,0
0,41,118,0
0,65,94,0
0,42,54,20
0,69,47,0
0,36,118,0
0,64,94,0
0,69,112,0
0,69,45,92
0,36,123,20
0,42,54,0
0,34,119,0
0,57,82,0
0,62,83,0
0,65,84,0
0,60,98,0
0,57,98,0
0,65,117,0
0,42,52,20
0,62,100,0
0,58,102,0
0,38,123,188
0,42,52,0
0,36,102,32
0,42,50,0
0,34,117,0
0,62,99,0
0,58,95,0
0,42,50,188
0,70,111,0
0,36,98,32
0,42,55,0
0,41,116,0
0,69,112,32
0,38,120,20
0,42,56,0
0,54,83,0
0,46,117,0
0,42,54,20
0,45,116,0
0,65,112,0
0,60,113,28
0,36,122,12
0,42,53,0
0,41,119,0
0,57,79,0
0,60,87,0
0,65,83,0
0,60,114,0
0,65,100,0
0,69,113,0
0,42,50,20
0,64,95,0
0,70,116,0
0,38,121,20
0,42,59,0
0,60,97,0
0,72,119,0
0,36,98,20
0,42,52,0
0,29,117,0
0,65,94,0
0,70,112,0
0,42,51,20
0,64,98,0
0,42,53,20
0,60,102,0
0,69,114,0
0,38,122,20
0,42,51,0
0,54,85,0
0,41,119,0
0,65,98,0
0,42,51,20
0,69,44,0
0,36,116,0
0,64,103,0
0,69,113,0
0,69,47,12
0,67,116,0
0,36,121,12
0,42,57,0
0,34,110,0
0,57,85,0
0,62,87,0
0,65,81,0
0,60,96,0
0,57,95,0
0,65,110,0
0,42,52,20
0,62,100,0
0,58,99,0
0,38,119,188
0,42,58,0
0,36,98,32
0,42,54,0
0,34,110,0
0,62,102,0
0,58,94,0
0,42,50,188
0,70,110,0
0,36,103,188
0,42,56,0
0,69,117,32
0,38,116,32
0,42,55,0
0,54,80,0
0,38,118,0
0,39,115,12
0,42,53,12
0,40,110,0
0,65,109,0
0,36,124,20
0,42,54,0
0,41,119,0
0,57,81,0
0,60,81,0
0,65,84,0
0,60,111,0
0,65,98,0
0,69,111,0
0,42,56,20
0,64,94,0
0,70,111,0
0,38,115,20
0,42,56,0
0,60,98,0
0,72,114,0
0,36,96,20
0,42,57,0
0,38,113,0
0,65,102,0
0,70,114,0
0,42,54,20
0,64,97,0
0,42,58,20
0,60,100,0
0,69,111,0
0,38,124,20
0,42,52,0
0,54,86,0
0,65,101,0
0,42,50,20
0,69,44,0
0,36,113,0
0,64,100,0
0,65,116,0
0,69,45,12
0,38,119,0
0,36,120,12
0,42,50,0
0,39,113,0
0,55,82,0
0,58,87,0
0,62,80,0
0,65,79,0
0,60,99,0
0,57,97,0
0,42,58,20
0,55,103,0
0,58,100,0
0,38,119,188
0,42,50,0
0,36,99,32
0,42,50,0
0,36,119,0
0,55,99,0
0,58,102,0
0,42,59,188
0,36,100,188
0,42,51,0
0,65,115,0
0,65,114,12
0,38,122,96
0,42,57,0
0,54,78,0
0,42,50,28
0,48,119,0
0,60,115,0
0,60,113,12
0,36,119,20
0,42,51,0
0,41,113,0
0,57,80,0
0,60,82,0
0,65,78,0
0,65,97,0
0,42,51,20
0,64,97,0
0,69,111,0
0,38,117,20
0,42,58,0
0,60,102,0
0,36,101,20
0,42,57,0
0,41,117,0
0,64,83,0
0,65,94,0
0,42,51,20
0,64,102,0
0,42,52,20
0,60,103,0
0,38,123,20
0,42,53,0
0,54,86,0
0,41,116,0
0,65,94,0
0,42,55,20
0,69,48,0
0,41,115,0
0,64,98,0
0,69,48,12
0,43,115,0
0,36,121,12
0,42,57,0
0,36,114,0
0,55,82,0
0,58,78,0
0,62,78,0
0,65,78,0
0,60,95,0
0,57,103,0
0,42,51,20
0,62,103,0
0,58,96,0
0,38,115,28
0,42,54,0
0,36,98,32
0,42,55,0
0,36,115,0
0,62,101,0
0,58,103,0
0,42,57,188
0,70,113,0
0,50,98,92
0,50,102,32
0,43,119,0
0,50,99,32
0,69,117,0
0,47,97,20
0,54,81,0
0,48,110,0
0,36,115,20
0,47,102,0
0,43,118,0
0,65,116,0
0,43,104,92
0,36,121,20
0,42,59,0
0,29,114,0
0,57,81,0
0,60,79,0
0,65,79,0
0,60,108,0
0,65,103,0
0,69,111,0
0,42,55,20
0,64,100,0
0,70,113,0
0,38,117,20
0,42,56,0
0,60,97,0
0,72,112,0
0,36,98,20
0,42,52,0
0,29,118,0
0,65,99,0
0,70,116,0
0,42,52,20
0,64,97,0
0,42,59,20
0,60,94,0
0,69,114,0
0,38,118,20
0,42,52,0
0,54,86,0
0,41,114,0
0,65,103,0
0,42,52,20
0,69,52,0
0,29,118,0
0,64,94,0
0,65,115,0
0,69,53,92
0,36,115,20
0,42,54,0
0,34,114,0
0,57,85,0
0,62,81,0
0,65,82,0
0,60,95,0
0,57,96,0
0,42,50,20
0,62,94,0
0,58,94,0
0,38,118,188
0,42,52,0
0,36,103,32
0,42,50,0
0,34,119,0
0,62,95,0
0,58,102,0
0,42,51,4
0,38,117,0
0,70,114,0
0,36,99,20
0,42,54,0
0,41,111,0
0,43,112,12
0,69,112,0
0,38,115,12
0,42,51,0
0,54,83,0
0,41,112,0
0,38,110,12
0,42,51,12
0,36,114,0
0,65,108,0
0,36,124,20
0,42,56,0
0,41,114,0
0,57,83,0
0,60,82,0
0,65,82,0
0,60,116,0
0,65,100,0
0,69,119,0
0,42,56,20
0,64,97,0
0,70,112,0
0,38,124,20
0,42,50,0
0,60,101,0
0,72,113,0
0,36,101,20
0,42,55,0
0,41,116,0
0,65,102,0
0,70,113,0
0,42,59,20
0,64,94,0
0,42,51,20
0,60,102,0
0,69,111,0
0,38,121,20
0,42,57,0
0,54,86,0
0,41,118,0
0,65,95,0
0,42,57,20
0,69,52,0
0,36,119,0
0,64,102,0
0,69,116,0
0,69,52,12
0,67,116,0
0,36,119,12
0,42,56,0
0,34,112,0
0,57,80,0
0,62,79,0
0,65,85,0
0,60,94,0
0,57,94,0
0,65,119,0
0,42,59,20
0,62,98,0
0,58,95,0
0,38,122,188
0,42,52,0
0,36,97,32
0,42,51,0
0,34,113,0
0,62,97,0
0,58,99,0
0,42,51,188
0,70,109,0
0,36,96,188
0,42,54,0
0,69,111,28
0,60,110,0
0,38,121,12
0,42,56,0
0,54,78,0
0,38,114,0
0,60,111,0
0,39,119,12
0,42,52,12
0,40,112,0
0,65,108,0
0,60,111,0
0,36,120,20
0,42,58,0
0,41,114,0
0,57,86,0
0,60,84,0
0,65,78,0
0,60,108,0
0,65,94,0
0,69,112,0
0,42,55,20
0,64,96,0
0,70,112,0
0,38,115,20
0,42,57,0
0,60,99,0
0,72,111,0
0,36,104,20
0,42,56,0
0,38,118,0
0,65,103,0
0,70,111,0
0,42,51,20
0,64,98,0
0,42,51,20
0,60,97,0
0,69,116,0
0,38,120,20
0,42,55,0
0,54,85,0
0,65,98,0
0,65,113,0
0,42,56,20
0,69,48,0
0,36,117,0
0,64,100,0
0,67,118,0
0,69,49,12
0,38,115,0
0,36,123,12
0,42,54,0
0,39,116,0
0,55,80,0
0,58,83,0
0,62,83,0
0,65,85,0
0,60,96,0
0,57,100,0
0,65,111,0
0,42,54,20
0,55,102,0
0,58,95,0
0,38,118,188
0,42,56,0
0,36,101,32
0,42,57,0
0,36,115,0
0,55,97,0
