track,note,velocity,time
3,26,127,2587
3,26,0,73
3,26,127,23
3,26,0,68
3,26,127,29
3,26,0,79
3,33,126,87
3,33,0,15
3,36,127,6
3,38,127,49
3,36,0,3
3,38,0,71
3,31,127,73
3,31,0,87
3,33,127,6
3,33,0,89
3,26,127,6
3,26,0,72
3,26,127,24
3,26,0,68
3,26,127,30
3,26,0,100
3,33,123,73
3,33,0,7
3,36,127,15
3,38,127,51
3,36,0,6
3,38,0,57
3,33,127,73
3,33,0,18
3,33,127,29
3,33,0,24
3,36,127,22
3,36,0,68
3,26,127,9
3,26,0,100
3,38,127,18
3,38,0,20
3,26,101,28
3,26,0,7
3,26,127,41
3,26,0,90
3,38,127,6
3,33,84,48
3,38,0,2
3,33,0,10
3,26,121,12
3,26,0,41
3,38,113,7
3,38,0,24
3,26,111,0
3,26,0,45
3,38,127,3
3,38,0,29
3,26,76,19
3,26,0,5
3,26,124,43
3,26,0,90
3,38,127,6
3,38,0,54
3,26,126,18
3,26,0,35
3,38,107,13
3,38,0,21
3,26,121,3
3,26,0,36
3,38,126,12
3,38,0,22
3,26,100,26
3,26,0,7
3,26,126,40
3,26,0,94
3,38,127,3
3,26,121,72
3,38,0,3
3,26,0,42
3,36,127,3
3,26,104,24
3,36,0,6
3,26,0,15
3,36,127,27
3,36,0,48
3,26,113,0
3,26,0,40
3,36,121,8
3,36,0,23
3,38,126,25
3,38,0,20
3,40,127,28
3,40,0,51
3,26,127,21
3,26,0,37
3,38,124,11
3,38,0,22
3,26,115,1
3,26,0,44
3,38,127,5
3,38,0,21
3,26,82,26
3,26,0,6
3,26,124,43
3,38,127,95
3,26,0,37
3,38,0,35
3,26,123,1
3,26,0,48
3,38,126,0
3,26,121,24
3,38,0,6
3,26,0,36
3,38,93,5
3,38,0,9
3,38,106,15
3,26,127,24
3,26,0,20
3,38,0,22
3,26,127,6
3,38,124,97
3,26,0,7
3,38,0,54
3,26,126,11
3,26,0,40
3,38,106,8
3,38,0,13
3,26,124,11
3,26,0,28
3,38,127,20
3,38,0,19
3,26,117,29
3,26,0,13
3,26,127,35
3,26,0,89
3,38,127,7
3,26,119,71
3,38,0,18
3,26,0,21
3,36,127,9
3,26,124,24
3,36,0,5
3,26,0,19
3,36,127,25
3,26,111,72
3,36,0,4
3,26,0,34
3,36,127,10
3,26,119,23
3,36,0,7
3,26,0,21
3,36,127,20
3,36,0,61
3,26,127,12
3,38,123,48
3,38,0,18
3,26,0,2
3,26,117,4
3,26,0,45
3,38,127,3
3,38,0,20
3,26,101,28
3,26,0,7
3,26,127,41
3,26,0,90
3,38,127,6
3,33,84,48
3,38,0,2
3,33,0,10
3,26,121,12
3,26,0,41
3,38,113,7
3,38,0,24
3,26,111,0
3,26,0,45
3,38,127,3
3,38,0,29
3,26,76,19
3,26,0,5
3,26,124,43
3,26,0,90
3,38,127,6
3,38,0,54
3,26,126,18
3,26,0,35
3,38,107,13
3,38,0,21
3,26,121,3
3,26,0,36
3,38,126,12
3,38,0,22
3,26,100,26
3,26,0,7
3,26,126,40
3,26,0,94
3,38,127,3
3,26,121,72
3,38,0,3
3,26,0,42
3,36,127,3
3,26,104,24
3,36,0,6
3,26,0,15
3,36,127,27
3,36,0,48
3,26,113,0
3,26,0,40
3,36,121,8
3,36,0,23
3,38,126,25
3,38,0,20
3,40,127,28
3,40,0,51
3,26,127,21
3,26,0,37
3,38,124,11
3,38,0,22
3,26,115,1
3,26,0,44
3,38,127,5
3,38,0,21
3,26,82,26
3,26,0,6
3,26,124,43
3,38,127,95
3,26,0,37
3,38,0,35
3,26,123,1
3,26,0,48
3,38,126,0
3,26,121,24
3,38,0,6
3,26,0,36
3,38,93,5
3,38,0,9
3,38,106,15
3,26,127,24
3,26,0,20
3,38,0,22
3,26,127,6
3,38,124,97
3,26,0,7
3,38,0,54
3,26,126,11
3,26,0,40
3,38,106,8
3,38,0,13
3,26,124,11
3,26,0,28
3,38,127,20
3,38,0,19
3,26,117,29
3,26,0,13
3,26,127,35
3,26,0,89
3,38,127,7
3,31,127,72
3,38,0,17
3,31,0,24
3,43,117,7
3,43,0,14
3,31,127,10
3,31,0,25
3,43,127,23
3,43,0,83
3,31,127,13
3,31,0,42
3,43,117,6
3,43,0,13
3,38,111,11
3,38,0,16
3,31,127,8
3,31,0,40
3,38,127,8
3,38,0,17
3,31,127,6
3,31,0,26
3,33,127,2
3,33,0,60
3,40,121,9
3,40,0,15
3,45,124,8
3,45,0,29
3,43,121,20
3,43,0,28
3,42,127,22
3,42,0,56
3,28,124,16
3,28,0,13
3,33,126,10
3,33,0,35
3,34,125,13
3,34,0,39
3,35,127,10
3,35,0,27
3,47,127,19
3,47,0,21
3,45,127,28
3,45,0,26
3,30,127,22
3,30,0,17
3,35,126,8
3,35,0,9
3,35,127,36
3,35,0,11
3,33,127,12
3,33,0,38
3,35,127,11
3,35,0,46
3,30,127,5
3,30,0,46
3,31,127,0
3,31,0,12
3,31,113,11
3,31,0,47
3,38,102,2
3,38,0,11
3,43,124,12
3,43,0,46
3,31,123,3
3,31,0,36
3,30,123,11
3,30,0,13
3,30,117,11
3,30,0,41
3,37,108,7
3,37,0,11
3,42,123,13
3,42,0,49
3,30,121,0
3,30,0,32
3,35,127,16
3,35,0,31
3,35,117,17
3,35,0,35
3,33,117,13
3,33,0,34
3,30,117,13
3,30,0,16
3,35,127,8
3,35,0,33
3,35,126,15
3,35,0,14
3,33,127,10
3,33,0,34
3,35,127,15
3,35,0,57
3,28,127,39
3,28,0,49
3,28,127,47
3,28,0,50
3,28,127,46
3,28,0,71
3,35,127,97
3,35,0,16
3,38,121,7
3,38,0,45
3,40,127,4
3,40,0,50
3,33,127,94
3,33,0,81
3,35,127,15
3,35,0,82
3,28,127,14
3,28,0,59
3,28,127,37
3,28,0,54
3,28,127,42
3,28,0,68
3,28,127,100
3,28,0,17
3,26,127,7
3,28,127,48
3,26,0,3
3,28,0,45
3,26,127,192
3,26,0,78
3,28,127,18
3,28,0,54
3,28,127,41
3,28,0,63
3,28,127,34
3,28,0,75
3,28,119,93
3,28,0,18
3,26,127,6
3,28,127,48
3,26,0,3
3,28,0,43
3,33,127,98
3,33,0,77
3,35,127,19
3,35,0,86
3,28,127,10
3,28,0,60
3,28,127,36
3,28,0,64
3,28,127,32
3,28,0,76
3,28,121,92
3,28,0,15
3,26,127,9
3,28,127,47
3,26,0,2
3,28,0,58
3,35,127,85
3,35,0,73
3,38,127,23
3,38,0,56
3,40,127,16
3,40,0,23
3,33,127,385
3,33,0,176
3,35,127,16
3,35,0,73
3,37,127,22
3,37,0,80
3,38,123,41
3,38,0,18
3,26,117,6
3,26,0,45
3,38,127,3
3,38,0,20
3,26,101,28
3,26,0,7
3,26,127,41
3,26,0,90
3,38,127,6
3,33,84,48
3,38,0,2
3,33,0,10
3,26,121,12
3,26,0,41
3,38,113,7
3,38,0,24
3,26,111,0
3,26,0,45
3,38,127,3
3,38,0,29
3,26,76,19
3,26,0,5
3,26,124,43
3,26,0,90
3,38,127,6
3,38,0,54
3,26,126,18
3,26,0,35
3,38,107,13
3,38,0,21
3,26,121,3
3,26,0,36
3,38,126,12
3,38,0,22
3,26,100,26
3,26,0,7
3,26,126,40
3,26,0,94
3,38,127,3
3,26,121,72
3,38,0,3
3,26,0,42
3,36,127,3
3,26,104,24
3,36,0,6
3,26,0,15
3,36,127,27
3,36,0,48
3,26,113,0
3,26,0,40
3,36,121,8
3,36,0,23
3,38,126,25
3,38,0,20
3,40,127,28
3,40,0,51
3,26,127,21
3,26,0,37
3,38,124,11
3,38,0,22
3,26,115,1
3,26,0,44
3,38,127,5
3,38,0,21
3,26,82,26
3,26,0,6
3,26,124,43
3,38,127,95
3,26,0,37
3,38,0,35
3,26,123,1
3,26,0,48
3,38,126,0
3,26,121,24
3,38,0,6
3,26,0,36
3,38,93,5
3,38,0,9
3,38,106,15
3,26,127,24
3,26,0,20
3,38,0,22
3,26,127,6
3,38,124,97
3,26,0,7
3,38,0,54
3,26,126,11
3,26,0,40
3,38,106,8
3,38,0,13
3,26,124,11
3,26,0,28
3,38,127,20
3,38,0,19
3,26,117,29
3,26,0,13
3,26,127,35
3,26,0,89
3,38,127,7
3,31,127,72
3,38,0,17
3,31,0,24
3,43,117,7
3,43,0,14
3,31,127,10
3,31,0,25
3,43,127,23
3,43,0,83
3,31,127,13
3,31,0,42
3,43,117,6
3,43,0,13
3,38,111,11
3,38,0,16
3,31,127,8
3,31,0,40
3,38,127,8
3,38,0,17
3,31,127,6
3,31,0,26
3,33,127,2
3,33,0,60
3,40,121,9
3,40,0,15
3,45,124,8
3,45,0,29
3,43,121,20
3,43,0,28
3,42,127,22
3,42,0,56
3,28,124,16
3,28,0,13
3,33,126,10
3,33,0,35
3,34,125,13
3,34,0,39
3,35,127,10
3,35,0,43
3,47,127,3
3,47,0,32
3,45,127,17
3,45,0,35
3,33,127,13
3,33,0,40
3,35,126,7
3,35,0,9
3,35,127,14
3,35,0,11
3,33,127,12
3,33,0,38
3,35,127,11
3,35,0,46
3,33,127,5
3,33,0,46
3,31,127,0
3,31,0,12
3,31,113,11
3,31,0,47
3,38,102,2
3,38,0,11
3,43,124,12
3,43,0,46
3,31,123,3
3,31,0,36
3,30,123,11
3,30,0,13
3,30,117,11
3,30,0,41
3,37,108,7
3,37,0,11
3,42,123,13
3,42,0,49
3,30,121,0
3,30,0,32
3,35,127,16
3,35,0,31
3,35,117,17
3,35,0,35
3,33,117,13
3,33,0,34
3,30,117,13
3,30,0,16
3,35,127,8
3,35,0,33
3,35,126,15
3,35,0,14
3,33,127,10
3,33,0,34
3,35,127,15
3,35,0,57
3,28,127,39
3,28,0,49
3,28,127,47
3,28,0,50
3,28,127,46
3,28,0,71
3,35,127,97
3,35,0,16
3,38,121,7
3,38,0,45
3,40,127,4
3,40,0,50
3,33,127,94
3,33,0,81
3,35,127,15
3,35,0,82
3,28,127,14
3,28,0,59
3,28,127,37
3,28,0,54
3,28,127,42
3,28,0,68
3,28,127,100
3,28,0,17
3,26,127,7
3,28,127,48
3,26,0,3
3,28,0,45
3,26,127,192
3,26,0,78
3,28,127,18
3,28,0,54
3,28,127,41
3,28,0,63
3,28,127,34
3,28,0,75
3,28,119,93
3,28,0,18
3,26,127,6
3,28,127,48
3,26,0,3
3,28,0,43
3,33,127,98
3,33,0,77
3,35,127,19
3,35,0,86
3,28,127,10
3,28,0,60
3,28,127,36
3,28,0,64
3,28,127,32
3,28,0,76
3,28,121,92
3,28,0,15
3,38,127,9
3,40,127,47
3,38,0,2
3,40,0,44
3,28,127,1
3,28,0,5
3,35,127,93
3,35,0,24
3,35,127,24
3,35,0,24
3,26,127,24
3,38,127,72
3,26,0,3
3,38,0,20
3,28,127,1
3,28,0,49
3,28,127,47
3,28,0,50
3,28,127,46
3,28,0,71
3,35,127,97
3,35,0,16
3,38,121,7
3,38,0,45
3,40,127,4
3,40,0,50
3,33,127,94
3,33,0,81
3,35,127,15
3,35,0,82
3,28,127,14
3,28,0,59
3,28,127,37
3,28,0,54
3,28,127,42
3,28,0,68
3,28,127,100
3,28,0,17
3,26,127,7
3,28,127,48
3,26,0,3
3,28,0,45
3,26,127,192
3,26,0,78
3,28,127,18
3,28,0,54
3,28,127,41
3,28,0,63
3,28,127,34
3,28,0,75
3,28,119,93
3,28,0,18
3,26,127,6
3,28,127,48
3,26,0,3
3,28,0,43
3,33,127,98
3,33,0,77
3,35,127,19
3,35,0,86
3,28,127,10
3,28,0,60
3,28,127,36
3,28,0,64
3,28,127,32
3,28,0,76
3,35,127,116
3,35,0,74
3,37,127,16
3,37,0,78
3,38,127,23
3,38,0,72
3,40,127,24
3,40,0,62
3,30,127,9
3,30,0,26
3,30,127,191
3,30,0,80
3,28,124,16
3,28,0,68
3,30,127,5
3,30,0,42
3,30,127,558
3,30,0,81
3,28,124,14
3,28,0,66
3,30,127,7
3,30,0,41
3,28,100,559
3,28,0,41
3,33,100,7
3,33,0,20
3,26,100,4
3,26,0,20
3,36,100,4
3,36,0,30
3,36,127,42
3,36,0,63
3,31,126,9
3,31,0,32
3,33,124,16
3,33,0,47
3,43,100,140
3,43,0,19
3,45,100,2
3,45,0,35
3,35,126,92
3,35,0,278
3,28,127,59
3,28,0,49
3,28,127,47
3,28,0,50
3,28,127,46
3,28,0,71
3,35,127,97
3,35,0,16
3,38,121,7
3,38,0,45
3,40,127,4
3,40,0,50
3,33,127,94
3,33,0,81
3,35,127,15
3,35,0,82
3,28,127,14
3,28,0,59
3,28,127,37
3,28,0,54
3,28,127,42
3,28,0,68
3,28,127,100
3,28,0,17
3,26,127,7
3,28,127,48
3,26,0,3
3,28,0,45
3,26,127,192
3,26,0,78
3,28,127,18
3,28,0,54
3,28,127,41
3,28,0,63
3,28,127,34
3,28,0,75
3,28,119,93
3,28,0,18
3,26,127,6
3,28,127,48
3,26,0,3
3,28,0,43
3,33,127,98
3,33,0,77
3,35,127,19
3,35,0,86
3,28,127,10
3,28,0,60
3,28,127,36
3,28,0,64
3,28,127,32
3,28,0,76
3,28,121,92
3,28,0,15
3,31,127,11
3,31,0,82
3,33,127,14
3,33,0,82
3,34,127,13
3,34,0,80
3,36,127,14
3,36,0,64
3,29,127,12
3,29,0,21
3,29,127,3072
3,29,0,49
3,29,127,47
3,29,0,50
3,29,127,46
3,29,0,71
3,36,127,97
3,36,0,16
3,39,121,7
3,39,0,45
3,41,127,4
3,41,0,50
3,34,127,94
3,34,0,81
3,36,127,15
3,36,0,82
3,29,127,14
3,29,0,59
3,29,127,37
3,29,0,54
3,29,127,42
3,29,0,68
3,29,127,100
3,29,0,17
3,27,127,7
3,29,127,48
3,27,0,3
3,29,0,45
3,27,127,192
3,27,0,78
3,29,127,18
3,29,0,54
3,29,127,41
3,29,0,63
3,29,127,34
3,29,0,75
3,29,119,93
3,29,0,18
3,27,127,6
3,29,127,48
3,27,0,3
3,29,0,43
3,34,127,98
3,34,0,77
3,36,127,19
3,36,0,86
3,29,127,10
3,29,0,60
3,29,127,36
3,29,0,64
3,29,127,32
3,29,0,76
3,29,121,92
3,29,0,15
3,27,127,9
3,29,127,47
3,27,0,2
3,29,0,58
3,36,127,85
3,36,0,73
3,39,127,23
3,39,0,56
3,41,127,16
3,41,0,23
3,29,127,1
3,29,0,49
3,29,127,47
3,29,0,50
3,29,127,46
3,29,0,71
3,36,127,97
3,36,0,16
3,39,121,7
3,39,0,45
3,41,127,4
3,41,0,50
3,34,127,94
3,34,0,81
3,36,127,15
3,36,0,82
3,29,127,14
3,29,0,59
3,29,127,37
3,29,0,54
3,29,127,42
3,29,0,68
3,29,127,100
3,29,0,17
3,27,127,7
3,29,127,48
3,27,0,3
3,29,0,45
3,27,127,192
3,27,0,78
3,29,127,18
3,29,0,54
3,29,127,41
3,29,0,63
3,29,127,34
3,29,0,75
3,29,119,93
3,29,0,18
3,27,127,6
3,29,127,48
3,27,0,3
3,29,0,43
3,34,127,98
3,34,0,77
3,36,127,19
3,36,0,86
3,29,127,10
3,29,0,60
3,29,127,36
3,29,0,64
3,29,127,32
3,29,0,76
3,29,121,92
3,29,0,15
3,27,127,9
3,29,127,47
3,27,0,2
3,29,0,58
3,36,127,85
3,36,0,73
3,39,127,23
3,39,0,56
3,41,127,16
3,41,0,23
3,29,127,1
3,29,0,49
3,29,127,47
3,29,0,50
3,29,127,46
3,29,0,71
3,36,127,97
3,36,0,16
3,39,121,7
3,39,0,45
3,41,127,4
3,41,0,50
3,34,127,94
3,34,0,81
3,36,127,15
3,36,0,82
3,29,127,14
3,29,0,59
3,29,127,37
3,29,0,54
3,29,127,42
3,29,0,68
3,29,127,100
3,29,0,17
3,27,127,7
3,29,127,48
3,27,0,3
3,29,0,45
3,27,127,192
3,27,0,78
3,29,127,1
3,29,0,21
3,29,127,1
3,29,0,25
3,29,127,1
3,29,0,34
3,29,119,1
3,29,0,11
3,27,127,6
3,29,127,32
