track,note,velocity,time
1,54,114,0
1,54,0,15
1,54,114,0
1,54,0,14
1,54,114,0
1,54,0,16
1,54,119,0
1,54,0,16
1,49,100,0
1,49,0,15
1,51,104,0
1,51,0,16
1,49,104,0
1,49,0,15
1,51,104,0
1,51,0,15
1,49,109,0
1,49,0,18
1,51,104,0
1,51,0,14
1,49,114,0
1,49,0,17
1,51,109,0
1,51,0,14
1,49,114,0
1,49,0,17
1,49,109,0
1,49,0,15
1,51,109,0
1,51,0,16
1,49,104,0
1,49,0,14
1,51,104,0
1,51,0,15
1,49,104,0
1,49,0,15
1,51,109,0
1,51,0,15
1,49,100,0
1,49,0,13
1,51,109,0
1,51,0,15
1,49,109,0
1,49,0,14
1,51,109,0
1,51,0,14
1,49,109,0
1,49,0,14
1,51,109,0
1,51,0,14
1,49,104,0
1,49,0,14
1,51,109,0
1,51,0,16
1,49,109,0
1,49,0,15
1,51,109,0
1,51,0,15
1,49,100,0
1,49,0,13
1,51,109,0
1,51,0,15
1,49,104,0
1,49,0,15
1,51,104,0
1,51,0,15
1,49,109,0
1,49,0,15
1,51,104,0
1,51,0,16
1,49,104,0
1,49,0,15
1,51,104,0
1,51,0,15
1,49,104,0
1,49,0,13
1,51,109,0
1,51,0,15
1,49,114,0
1,49,0,15
1,51,109,0
1,51,0,13
1,51,96,0
1,51,0,15
1,49,92,0
1,49,0,12
1,51,104,0
1,51,0,15
1,49,92,0
1,49,0,12
1,51,100,0
1,51,0,14
1,49,96,0
1,49,0,13
1,51,109,0
1,51,0,16
1,49,96,0
1,49,0,13
1,51,109,0
1,51,0,15
1,49,109,0
1,49,0,15
1,51,109,0
1,51,0,14
1,49,104,0
1,49,0,16
1,51,109,0
1,51,0,14
1,49,104,0
1,49,0,14
1,51,104,0
1,51,0,15
1,49,104,0
1,49,0,15
1,51,109,0
1,51,0,13
1,49,109,0
1,49,0,14
1,51,104,0
1,51,0,14
1,49,104,0
1,49,0,14
1,51,109,0
1,51,0,13
1,49,109,0
1,49,0,14
1,49,109,0
1,49,0,16
1,51,100,0
1,51,0,15
1,49,104,0
1,49,0,15
1,51,96,0
1,51,0,13
1,49,104,0
1,49,0,15
1,51,104,0
1,51,0,14
1,49,100,0
1,49,0,14
1,51,100,0
1,51,0,14
1,49,104,0
1,49,0,14
1,51,104,0
1,51,0,15
1,49,104,0
1,49,0,15
1,51,100,0
1,51,0,14
1,49,104,0
1,49,0,14
1,51,104,0
1,51,0,15
1,49,109,0
1,49,0,14
1,51,100,0
1,51,0,14
1,49,104,0
1,49,0,13
1,51,104,0
1,51,0,14
1,49,104,0
1,49,0,13
1,51,109,0
1,51,0,14
1,49,92,0
1,49,0,12
1,51,114,0
1,51,0,14
1,49,109,0
1,49,0,15
1,51,114,0
1,51,0,13
1,49,109,0
1,49,0,15
1,51,114,0
1,51,0,14
1,49,109,0
1,49,0,15
1,51,104,0
1,51,0,14
1,49,109,0
1,49,0,15
1,51,109,0
1,51,0,13
1,49,109,0
1,49,0,15
1,51,114,0
1,51,0,14
1,49,104,0
1,49,0,15
1,51,81,0
1,51,0,17
1,49,109,0
1,49,0,12
1,51,104,0
1,51,0,12
1,49,104,0
1,49,0,13
1,51,109,0
1,51,0,14
1,49,92,0
1,49,0,12
1,51,100,0
1,51,0,17
1,49,96,0
1,49,0,12
1,51,109,0
1,51,0,15
1,49,104,0
1,49,0,14
1,51,104,0
1,51,0,13
1,49,104,0
1,49,0,13
1,51,96,0
1,51,0,15
1,49,96,0
1,49,0,15
1,51,100,0
1,51,0,14
1,49,104,0
1,49,0,15
1,51,104,0
1,51,0,14
1,49,109,0
1,49,0,13
1,51,109,0
1,51,0,13
1,49,100,0
1,49,0,14
1,51,109,0
1,51,0,15
1,49,104,0
1,49,0,16
1,51,104,0
1,51,0,16
1,49,100,0
1,49,0,14
1,51,100,0
1,51,0,14
1,49,100,0
1,49,0,16
1,49,100,0
1,49,0,15
1,51,109,0
1,51,0,14
1,49,104,0
1,49,0,11
1,51,104,0
1,51,0,12
1,49,109,0
1,49,0,14
1,51,114,0
1,51,0,13
1,49,96,0
1,49,0,13
1,51,104,0
1,51,0,14
1,49,100,0
1,49,0,13
1,51,104,0
1,51,0,13
1,49,100,0
1,49,0,13
1,51,104,0
1,51,0,15
1,49,109,0
1,49,0,14
1,49,104,0
1,49,0,14
1,51,96,0
1,51,0,12
1,49,109,0
1,49,0,14
1,51,104,0
1,51,0,13
1,49,109,0
1,49,0,13
1,51,104,0
1,51,0,13
1,49,109,0
1,49,0,13
1,51,119,0
1,51,0,15
1,51,114,0
1,51,0,15
1,49,109,0
1,49,0,15
1,51,109,0
1,51,0,15
1,49,114,0
1,49,0,16
1,51,119,0
1,51,0,17
1,49,114,0
1,49,0,17
1,51,109,0
1,51,0,17
1,49,114,0
1,49,0,18
1,51,119,0
1,51,0,15
1,49,119,0
1,49,0,16
1,51,114,0
1,51,0,17
1,49,109,0
1,49,0,17
1,51,109,0
1,51,0,18
1,49,114,0
1,49,0,18
1,51,109,0
1,51,0,16
1,49,109,0
1,49,0,16
1,51,114,0
1,51,0,17
1,49,114,0
1,49,0,17
1,51,114,0
1,51,0,16
1,49,104,0
1,49,0,15
1,51,104,0
1,51,0,16
1,49,114,0
1,49,0,18
1,49,104,0
1,49,0,15
1,51,109,0
1,51,0,16
1,49,104,0
1,49,0,18
1,51,104,0
1,51,0,17
1,49,109,0
1,49,0,18
1,51,114,0
1,51,0,16
1,49,109,0
1,49,0,15
1,51,104,0
1,51,0,16
1,49,109,0
1,49,0,14
1,51,109,0
1,51,0,17
1,49,109,0
1,49,0,17
1,51,104,0
1,51,0,15
1,49,104,0
1,49,0,16
1,51,109,0
1,51,0,15
1,49,109,0
1,49,0,17
1,51,104,0
1,51,0,16
1,49,104,0
1,49,0,15
1,51,114,0
1,51,0,16
1,49,119,0
1,49,0,17
1,49,114,0
1,49,0,14
1,51,96,0
1,51,0,11
1,49,114,0
1,49,0,13
1,51,109,0
1,51,0,15
1,49,109,0
1,49,0,12
1,51,114,0
1,51,0,14
1,49,109,0
1,49,0,14
1,49,109,0
1,49,0,13
1,51,109,0
1,51,0,15
1,49,109,0
1,49,0,17
1,51,104,0
1,51,0,14
1,49,109,0
1,49,0,15
1,51,114,0
1,51,0,15
1,49,100,0
1,49,0,17
1,51,92,0
1,51,0,14
1,49,109,0
1,49,0,15
1,51,104,0
1,51,0,15
1,49,100,0
1,49,0,13
1,51,109,0
1,51,0,16
1,49,109,0
1,49,0,14
1,51,100,0
1,51,0,16
1,49,100,0
1,49,0,13
1,51,109,0
1,51,0,13
1,49,92,0
1,49,0,13
1,51,100,0
1,51,0,14
1,49,109,0
1,49,0,14
1,49,109,0
1,49,0,16
1,51,100,0
1,51,0,15
1,49,104,0
1,49,0,15
1,51,100,0
1,51,0,14
1,49,96,0
1,49,0,13
1,51,104,0
1,51,0,13
1,49,104,0
1,49,0,15
1,49,104,0
1,49,0,15
1,51,114,0
1,51,0,15
1,49,100,0
1,49,0,18
1,51,100,0
1,51,0,13
1,49,100,0
1,49,0,15
1,51,100,0
1,51,0,14
1,49,104,0
1,49,0,16
1,49,100,0
1,49,0,14
1,51,114,0
1,51,0,14
1,49,109,0
1,49,0,15
1,51,109,0
1,51,0,12
1,49,109,0
1,49,0,15
1,51,114,0
1,51,0,14
1,49,96,0
1,49,0,13
1,51,104,0
1,51,0,13
1,49,100,0
1,49,0,13
1,51,109,0
1,51,0,15
1,49,96,0
1,49,0,12
1,51,109,0
1,51,0,14
1,49,109,0
1,49,0,13
1,49,100,0
1,49,0,12
1,51,92,0
1,51,0,12
1,49,114,0
1,49,0,14
1,51,96,0
1,51,0,13
1,49,109,0
1,49,0,14
1,51,109,0
1,51,0,14
1,49,109,0
1,49,0,15
1,54,124,0
1,54,0,15
1,49,109,0
1,49,0,16
1,51,109,0
1,51,0,16
1,49,104,0
1,49,0,15
1,51,114,0
1,51,0,16
1,49,109,0
1,49,0,17
1,51,114,0
1,51,0,18
1,49,119,0
1,49,0,19
1,51,104,0
1,51,0,15
1,49,104,0
1,49,0,14
1,51,114,0
1,51,0,17
1,49,109,0
1,49,0,14
1,51,119,0
1,51,0,16
1,49,114,0
1,49,0,16
1,51,119,0
1,51,0,10
2,86,64,10434
2,86,0,5
2,81,64,25
2,81,0,5
2,86,64,25
2,86,0,10
2,81,64,20
2,81,0,5
2,79,64,25
2,79,0,5
2,81,64,25
2,81,0,5
2,79,64,25
2,79,0,5
2,86,64,25
2,86,0,5
2,81,64,55
2,81,0,10
2,86,64,20
2,86,0,15
2,81,64,15
2,81,0,10
2,79,64,20
2,79,0,5
2,81,64,25
2,81,0,10
2,74,64,20
2,74,0,15
2,72,64,15
2,72,0,15
2,86,64,15
2,86,0,10
2,81,64,20
2,81,0,10
2,86,64,20
2,86,0,10
2,81,64,20
2,81,0,10
2,79,64,20
2,79,0,10
2,81,64,20
2,81,0,10
2,79,64,20
2,79,0,5
2,86,64,25
2,86,0,10
2,81,64,50
2,81,0,5
2,86,64,25
2,86,0,10
2,81,64,20
2,81,0,10
2,79,64,20
2,79,0,10
2,81,64,20
2,81,0,10
2,74,64,20
2,74,0,10
2,72,64,20
2,72,0,10
2,86,64,20
2,86,0,5
2,81,64,25
2,81,0,5
2,86,64,25
2,86,0,10
2,81,64,20
2,81,0,5
2,79,64,25
2,79,0,5
2,81,64,25
2,81,0,5
2,79,64,25
2,79,0,5
2,86,64,25
2,86,0,5
2,81,64,55
2,81,0,10
2,86,64,20
2,86,0,15
2,81,64,15
2,81,0,10
2,79,64,20
2,79,0,5
2,81,64,25
2,81,0,10
2,74,64,20
2,74,0,15
2,72,64,15
2,72,0,15
2,86,64,15
2,86,0,10
2,81,64,20
2,81,0,10
2,86,64,20
2,86,0,10
2,81,64,20
2,81,0,10
2,79,64,20
2,79,0,10
2,81,64,20
2,81,0,10
2,79,64,20
2,79,0,5
2,86,64,25
2,86,0,10
2,81,64,50
2,81,0,5
2,86,64,25
2,86,0,10
2,81,64,20
2,81,0,10
2,79,64,20
2,79,0,10
2,81,64,20
2,81,0,10
2,74,64,20
2,74,0,10
2,72,64,20
2,72,0,10
2,86,64,20
2,86,0,5
2,81,64,25
2,81,0,5
2,86,64,25
2,86,0,10
2,81,64,20
2,81,0,5
2,79,64,25
2,79,0,5
2,81,64,25
2,81,0,5
2,79,64,25
2,79,0,5
2,86,64,25
2,86,0,5
2,81,64,55
2,81,0,10
2,86,64,20
2,86,0,15
2,81,64,15
2,81,0,10
2,79,64,20
2,79,0,5
2,81,64,25
2,81,0,10
2,74,64,20
2,74,0,15
2,72,64,15
2,72,0,15
2,86,64,15
2,86,0,10
2,81,64,20
2,81,0,10
2,86,64,20
2,86,0,10
2,81,64,20
2,81,0,10
2,79,64,20
2,79,0,10
2,81,64,20
2,81,0,10
2,79,64,20
2,79,0,5
2,86,64,25
2,86,0,10
2,81,64,50
2,81,0,5
2,86,64,25
2,86,0,10
2,81,64,20
2,81,0,10
2,79,64,20
2,79,0,10
2,81,64,20
2,81,0,10
2,74,64,20
2,74,0,10
2,72,64,20
2,72,0,10
2,86,64,20
2,86,0,5
2,81,64,25
2,81,0,5
2,86,64,25
2,86,0,10
2,81,64,20
2,81,0,5
2,79,64,25
2,79,0,5
2,81,64,25
2,81,0,5
2,79,64,25
2,79,0,5
2,86,64,25
2,86,0,5
2,81,64,55
2,81,0,10
2,86,64,20
2,86,0,15
2,81,64,15
2,81,0,10
2,79,64,20
2,79,0,5
2,81,64,25
2,81,0,10
2,74,64,20
2,74,0,15
2,72,64,15
2,72,0,15
2,86,64,15
2,86,0,10
2,81,64,20
2,81,0,10
2,86,64,20
2,86,0,10
2,81,64,20
2,81,0,10
2,79,64,20
2,79,0,10
2,81,64,20
2,81,0,10
2,79,64,20
2,79,0,5
2,86,64,25
2,86,0,10
2,81,64,50
2,81,0,5
2,86,64,25
2,86,0,10
2,81,64,20
2,81,0,10
2,79,64,20
2,79,0,10
2,81,64,20
2,81,0,10
2,74,64,20
2,74,0,10
2,72,64,20
2,72,0,10
2,86,64,20
2,86,0,5
2,81,64,25
2,81,0,5
2,86,64,25
2,86,0,10
2,81,64,20
2,81,0,5
2,79,64,25
2,79,0,5
2,81,64,25
2,81,0,5
2,79,64,25
2,79,0,5
2,86,64,25
2,86,0,5
2,81,64,55
2,81,0,10
2,86,64,20
2,86,0,15
2,81,64,15
2,81,0,10
2,79,64,20
2,79,0,5
2,81,64,25
2,81,0,10
2,74,64,20
2,74,0,15
2,72,64,15
2,72,0,15
2,86,64,15
2,86,0,10
2,81,64,20
2,81,0,10
2,86,64,20
2,86,0,10
2,81,64,20
2,81,0,10
2,79,64,20
2,79,0,10
2,81,64,20
2,81,0,10
2,79,64,20
2,79,0,5
2,86,64,25
2,86,0,10
2,81,64,50
2,81,0,5
2,86,64,25
2,86,0,10
2,81,64,20
2,81,0,10
2,79,64,20
2,79,0,10
2,81,64,20
2,81,0,10
2,74,64,20
2,74,0,10
2,72,64,20
2,72,0,10
2,86,64,20
2,86,0,5
2,81,64,25
2,81,0,5
2,86,64,25
2,86,0,10
2,81,64,20
2,81,0,5
2,79,64,25
2,79,0,5
2,81,64,25
2,81,0,5
2,79,64,25
2,79,0,5
2,86,64,25
2,86,0,5
2,81,64,55
2,81,0,10
2,86,64,20
2,86,0,15
2,81,64,15
2,81,0,10
2,79,64,20
2,79,0,5
2,81,64,25
2,81,0,10
2,74,64,20
2,74,0,15
2,72,64,15
2,72,0,15
2,86,64,15
2,86,0,10
2,81,64,20
2,81,0,10
2,86,64,20
2,86,0,10
2,81,64,20
2,81,0,10
2,79,64,20
2,79,0,10
2,81,64,20
2,81,0,10
2,79,64,20
2,79,0,5
2,86,64,25
2,86,0,10
2,81,64,50
2,81,0,5
2,86,64,25
2,86,0,10
2,81,64,20
2,81,0,10
2,79,64,20
2,79,0,10
2,81,64,20
2,81,0,10
2,74,64,20
2,74,0,10
2,72,64,20
2,72,0,10
2,86,64,20
2,86,0,5
2,81,64,25
2,81,0,5
2,86,64,25
2,86,0,10
2,81,64,20
2,81,0,5
2,79,64,25
2,79,0,5
2,81,64,25
2,81,0,5
2,79,64,25
2,79,0,5
2,86,64,25
2,86,0,5
2,81,64,55
2,81,0,10
2,86,64,20
2,86,0,15
2,81,64,15
2,81,0,10
2,79,64,20
2,79,0,5
2,81,64,25
2,81,0,10
2,74,64,20
2,74,0,15
2,72,64,15
2,72,0,15
2,86,64,15
2,86,0,10
2,81,64,20
2,81,0,10
2,86,64,20
2,86,0,10
2,81,64,20
2,81,0,10
2,79,64,20
2,79,0,10
2,81,64,20
2,81,0,10
2,79,64,20
2,79,0,5
2,86,64,25
2,86,0,10
2,81,64,50
2,81,0,5
2,86,64,25
2,86,0,10
2,81,64,20
2,81,0,10
2,79,64,20
2,79,0,10
2,81,64,20
2,81,0,10
2,74,64,20
2,74,0,10
2,72,64,20
2,72,0,10
2,86,64,20
2,86,0,5
2,81,64,25
2,81,0,5
2,86,64,25
2,86,0,10
2,81,64,20
2,81,0,5
2,79,64,25
2,79,0,5
2,81,64,25
2,81,0,5
2,79,64,25
2,79,0,5
2,86,64,25
2,86,0,5
2,81,64,55
2,81,0,10
2,86,64,20
2,86,0,15
2,81,64,15
2,81,0,10
2,79,64,20
2,79,0,5
2,81,64,25
2,81,0,10
2,74,64,20
2,74,0,15
2,72,64,15
2,72,0,15
2,86,64,15
2,86,0,10
2,81,64,20
2,81,0,10
2,86,64,20
2,86,0,10
2,81,64,20
2,81,0,10
2,79,64,20
2,79,0,10
2,81,64,20
2,81,0,10
2,79,64,20
2,79,0,5
2,86,64,25
2,86,0,10
2,81,64,50
2,81,0,5
2,86,64,25
2,86,0,10
2,81,64,20
2,81,0,10
2,79,64,20
2,79,0,10
2,81,64,20
2,81,0,10
2,74,64,20
2,74,0,10
2,72,64,20
2,72,0,10
2,86,64,3860
2,86,0,5
