track,note,velocity,time
0,42,74,168
0,57,84,92
0,62,84,0
0,66,86,0
0,42,70,0
0,57,84,2
0,62,84,0
0,66,85,0
0,63,77,0
0,46,72,0
0,57,83,2
0,62,84,0
0,66,83,0
0,63,96,0
0,57,85,2
0,62,83,0
0,66,83,0
0,42,74,0
0,42,74,24
0,57,85,92
0,62,87,0
0,66,86,0
0,64,92,0
0,69,108,0
0,42,95,0
0,69,108,22
0,42,71,0
0,60,87,92
0,62,87,0
0,67,87,0
0,42,73,0
0,42,73,92
0,63,92,92
0,42,95,0
0,60,84,44
0,62,84,0
0,67,83,0
0,63,87,0
0,42,72,0
0,42,70,16
0,42,72,92
0,62,102,92
0,42,95,0
0,59,85,92
0,62,84,0
0,67,86,0
0,42,74,0
0,42,70,28
0,59,85,92
0,62,83,0
0,67,83,0
0,42,72,0
0,59,87,2
0,62,86,0
0,67,83,0
0,63,91,0
0,46,73,0
0,59,83,2
0,62,86,0
0,67,85,0
0,63,92,0
0,59,84,2
0,62,85,0
0,67,83,0
0,42,71,0
0,42,73,24
0,64,94,92
0,69,108,0
0,42,95,0
0,62,83,92
0,67,84,0
0,71,85,0
0,69,108,0
0,42,72,0
0,42,74,20
0,62,85,92
0,67,86,0
0,71,87,0
0,42,74,0
0,62,87,2
0,67,84,0
0,71,84,0
0,63,92,0
0,42,95,0
0,62,86,2
0,67,85,0
0,71,86,0
0,63,86,0
0,42,73,0
0,62,86,2
0,67,86,0
0,71,84,0
0,42,74,0
0,63,86,22
0,42,72,0
0,62,86,92
0,64,86,0
0,69,84,0
0,62,100,0
0,42,95,0
0,62,87,0
0,64,84,0
0,69,86,0
0,42,70,0
0,42,74,2
0,57,85,92
0,62,83,0
0,66,85,0
0,42,73,0
0,57,83,2
0,62,87,0
0,66,84,0
0,63,77,0
0,46,74,0
0,57,83,2
0,62,87,0
0,66,83,0
0,63,96,0
0,57,85,2
0,62,88,0
0,66,85,0
0,42,71,0
0,42,74,24
0,57,87,92
0,62,84,0
0,66,85,0
0,64,92,0
0,69,108,0
0,42,95,0
0,69,108,22
0,42,73,0
0,60,85,92
0,62,83,0
0,67,83,0
0,42,71,0
0,42,72,92
0,63,92,92
0,42,95,0
0,60,84,44
0,62,84,0
0,67,85,0
0,63,87,0
0,42,70,0
0,42,72,16
0,42,70,92
0,62,102,92
0,42,95,0
0,59,87,92
0,62,85,0
0,67,87,0
0,42,71,0
0,42,74,28
0,59,85,92
0,62,85,0
0,67,87,0
0,42,73,0
0,59,86,2
0,62,87,0
0,67,87,0
0,63,91,0
0,46,71,0
0,59,87,2
0,62,83,0
0,67,87,0
0,63,92,0
0,59,85,2
0,62,87,0
0,67,87,0
0,42,70,0
0,42,70,24
0,64,94,92
0,69,108,0
0,42,95,0
0,55,85,92
0,60,86,0
0,64,84,0
0,69,108,0
0,42,71,0
0,42,70,20
0,55,87,92
0,60,87,0
0,64,88,0
0,42,72,0
0,55,86,2
0,60,83,0
0,64,85,0
0,33,98,0
0,63,92,0
0,42,95,0
0,45,101,0
0,55,85,2
0,60,85,0
0,64,86,0
0,33,97,0
0,63,86,0
0,42,74,0
0,45,101,0
0,55,84,2
0,60,86,0
0,64,83,0
0,33,98,0
0,41,101,0
0,42,74,0
0,63,86,22
0,42,72,0
0,57,87,10
0,62,87,0
0,66,86,0
0,62,100,0
0,40,96,0
0,42,95,0
0,57,99,2
0,57,83,0
0,62,85,0
0,66,83,0
0,40,96,0
0,42,71,0
0,26,98,2
0,36,81,0
0,42,70,0
0,55,84,0
0,62,101,92
0,66,97,0
0,57,83,0
0,62,83,0
0,66,83,0
0,42,70,0
0,57,85,2
0,62,83,0
0,66,83,0
0,63,77,0
0,46,74,0
0,57,99,2
0,57,83,0
0,62,87,0
0,66,84,0
0,63,96,0
0,62,97,2
0,66,101,0
0,57,83,0
0,62,83,0
0,66,87,0
0,26,98,0
0,40,98,0
0,42,71,0
0,42,71,24
0,57,98,4
0,57,86,0
0,62,84,0
0,66,83,0
0,64,92,0
0,69,108,0
0,42,95,0
0,69,108,6
0,42,74,0
0,60,85,92
0,62,87,0
0,67,84,0
0,26,101,0
0,36,88,0
0,42,71,0
0,42,74,92
0,63,92,92
0,42,95,0
0,60,84,44
0,62,87,0
0,67,87,0
0,63,87,0
0,42,70,0
0,40,93,16
0,42,73,0
0,42,73,92
0,62,102,92
0,42,95,0
0,59,83,92
0,62,84,0
0,67,85,0
0,33,100,0
0,42,70,0
0,36,98,28
0,36,80,0
0,42,74,0
0,59,85,92
0,62,87,0
0,67,87,0
0,42,71,0
0,59,84,2
0,62,86,0
0,67,86,0
0,38,98,0
0,63,91,0
0,46,74,0
0,59,85,2
0,62,86,0
0,67,83,0
0,63,92,0
0,59,83,2
0,62,86,0
0,67,87,0
0,40,94,0
0,42,75,0
0,42,72,24
0,64,94,92
0,69,108,0
0,42,95,0
0,62,87,92
0,67,85,0
0,71,85,0
0,69,108,0
0,42,70,0
0,31,100,20
0,36,86,0
0,42,71,0
0,62,87,92
0,67,84,0
0,71,84,0
0,42,74,0
0,62,86,2
0,67,84,0
0,71,87,0
0,63,92,0
0,42,95,0
0,62,84,2
0,67,86,0
0,71,87,0
0,63,86,0
0,42,72,0
0,62,83,2
0,67,86,0
0,71,86,0
0,33,99,0
0,40,99,0
0,42,70,0
0,63,86,22
0,42,73,0
0,62,84,92
0,64,86,0
0,69,87,0
0,62,100,0
0,42,95,0
0,57,97,2
0,62,84,0
0,64,84,0
0,69,87,0
0,42,70,0
0,26,100,2
0,36,88,0
0,42,70,0
0,62,101,92
0,66,98,0
0,57,85,0
0,62,83,0
0,66,86,0
0,42,71,0
0,57,83,2
0,62,83,0
0,66,87,0
0,63,77,0
0,46,73,0
0,57,99,2
0,57,83,0
0,62,85,0
0,66,87,0
0,63,96,0
0,62,97,2
0,66,97,0
0,57,87,0
0,62,83,0
0,66,87,0
0,26,98,0
0,40,95,0
0,42,70,0
0,42,71,24
0,57,101,28
0,57,85,0
0,62,83,0
0,66,86,0
0,64,92,0
0,69,108,0
0,42,95,0
0,69,108,6
0,42,70,0
0,60,87,92
0,62,85,0
0,67,86,0
0,26,97,0
0,36,83,0
0,42,73,0
0,42,71,92
0,63,92,4
0,42,95,0
0,60,85,44
0,62,85,0
0,67,83,0
0,63,87,0
0,42,72,0
0,40,94,16
0,42,71,0
0,42,70,92
0,62,102,92
0,42,95,0
0,59,86,92
0,62,84,0
0,67,85,0
0,33,100,0
0,42,74,0
0,36,98,28
0,36,80,0
0,42,74,0
0,59,87,92
0,62,85,0
0,67,85,0
0,42,72,0
0,59,83,2
0,62,84,0
0,67,86,0
0,38,98,0
0,63,91,0
0,46,71,0
0,59,83,2
0,62,85,0
0,67,83,0
0,63,92,0
0,59,86,2
0,62,87,0
0,67,83,0
0,40,95,0
0,42,73,0
0,40,91,24
0,42,73,0
0,64,94,92
0,69,108,0
0,42,95,0
0,45,101,0
0,55,84,92
0,60,85,0
0,64,84,0
0,69,108,0
0,41,101,0
0,42,72,0
0,33,98,20
0,36,84,0
0,42,73,0
0,55,84,18
0,60,86,0
0,64,85,0
0,42,70,0
0,55,84,2
0,60,84,0
0,64,85,0
0,33,98,0
0,63,92,0
0,42,95,0
0,55,83,2
0,60,85,0
0,64,86,0
0,63,86,0
0,42,72,0
0,55,85,2
0,60,83,0
0,64,85,0
0,36,97,0
0,40,95,0
0,42,71,0
0,63,86,22
0,42,72,0
0,57,85,92
0,62,86,0
0,66,83,0
0,62,100,0
0,42,95,0
0,57,86,2
0,62,82,0
0,66,86,0
0,57,85,0
0,62,85,0
0,66,83,0
0,26,100,0
0,36,83,0
0,55,84,0
0,42,70,2
0,42,72,92
0,46,73,92
0,69,118,16
0,40,93,0
0,42,74,0
0,42,74,92
0,33,97,92
0,36,88,0
0,42,95,0
0,42,70,20
0,62,123,42
0,38,97,0
0,36,81,0
0,42,71,0
0,42,70,92
0,42,95,92
0,42,74,92
0,69,119,8
0,40,97,0
0,42,71,0
0,42,71,92
0,42,95,92
0,67,124,32
0,55,82,0
0,60,85,0
0,64,83,0
0,38,98,0
0,36,86,0
0,42,72,0
0,42,70,92
0,42,71,92
0,46,71,4
0,67,118,188
0,50,98,0
0,40,96,0
0,42,71,0
0,42,71,18
0,69,121,92
0,26,98,0
0,36,86,0
0,42,95,0
0,42,72,32
0,71,120,18
0,26,100,0
0,36,80,0
0,42,72,0
0,42,71,8
0,42,95,34
0,42,70,92
0,67,123,16
0,40,91,0
0,42,73,0
0,42,74,92
0,42,95,0
0,69,119,2
0,57,86,0
0,62,86,0
0,66,86,0
0,38,100,0
0,36,81,0
0,42,70,0
0,42,74,92
0,42,74,92
0,46,71,2
0,38,101,92
0,50,97,34
0,40,98,0
0,42,74,0
0,42,73,4
0,69,125,92
0,33,97,0
0,36,81,0
0,42,95,0
0,42,71,18
0,67,125,92
0,26,97,0
0,36,83,0
0,42,73,0
0,42,70,92
0,42,95,92
0,42,73,4
0,66,125,18
0,33,101,0
0,40,90,0
0,42,72,0
0,42,70,92
0,42,95,32
0,64,121,2
0,55,85,0
0,60,82,0
0,64,85,0
0,36,97,0
0,36,82,0
0,42,73,0
0,42,73,20
0,62,119,92
0,62,101,0
0,42,71,0
0,59,100,36
0,46,70,0
0,62,101,8
0,36,98,0
0,40,99,0
0,42,71,0
0,42,72,6
0,36,100,12
0,36,83,0
0,42,95,0
0,33,101,26
0,42,71,0
0,65,101,10
0,36,97,0
0,36,84,0
0,42,73,0
0,42,71,6
0,64,100,92
0,38,98,0
0,42,95,0
0,42,70,12
0,62,102,92
0,40,101,0
0,40,93,0
0,42,73,0
0,64,100,6
0,42,74,0
0,42,95,2
0,57,85,66
0,62,85,0
0,66,85,0
0,62,100,0
0,38,99,0
0,36,84,0
0,42,70,0
0,42,74,24
0,62,102,92
0,42,74,0
0,46,73,18
0,69,122,144
0,40,90,0
0,42,72,0
0,42,74,92
0,33,97,92
0,36,87,0
0,42,95,0
0,42,70,18
0,62,119,42
0,38,100,0
0,36,86,0
0,42,74,0
0,42,70,92
0,42,95,92
0,42,73,92
0,69,118,2
0,40,91,0
0,42,74,0
0,42,72,92
0,42,95,2
0,67,123,32
0,55,85,0
0,60,84,0
0,64,85,0
0,38,101,0
0,36,85,0
0,42,72,0
0,42,73,92
0,42,71,92
0,46,71,4
0,67,120,188
0,50,99,0
0,40,90,0
0,42,71,0
0,42,75,26
0,69,124,92
0,26,99,0
0,36,86,0
0,42,95,0
0,42,73,26
0,71,118,18
0,26,98,0
0,36,83,0
0,42,70,0
0,42,71,8
0,42,95,34
0,42,73,92
0,67,121,42
0,40,93,0
0,42,73,0
0,42,73,82
0,42,95,92
0,69,125,2
0,57,84,0
0,62,83,0
0,66,82,0
0,38,98,0
0,36,83,0
0,42,72,0
0,42,72,92
0,42,70,92
0,46,71,18
0,38,101,92
0,50,100,26
0,40,94,0
0,42,71,0
0,42,70,4
0,69,121,92
0,33,101,0
0,36,88,0
0,42,95,0
0,42,74,18
0,67,123,92
0,26,97,0
0,36,80,0
0,42,71,0
0,42,73,92
0,42,95,92
0,42,72,92
0,66,125,16
0,33,97,0
0,40,96,0
0,42,73,0
0,42,72,92
0,42,95,92
0,64,120,2
0,55,86,0
0,60,82,0
0,64,82,0
0,36,99,0
0,36,83,0
0,42,74,0
0,42,73,20
0,62,120,92
0,62,102,0
0,42,71,0
0,59,99,28
0,46,71,0
0,62,99,8
0,43,100,0
0,40,91,0
0,42,72,0
0,42,73,16
0,31,100,12
0,36,83,0
0,42,95,0
0,33,99,4
0,42,73,0
0,65,101,38
0,36,100,0
0,36,84,0
0,42,70,0
0,42,73,18
0,64,100,92
0,42,95,0
0,42,70,28
0,45,101,0
0,62,100,78
0,36,99,0
0,41,101,0
0,42,70,0
0,64,99,8
0,42,70,0
0,42,95,0
0,69,58,70
0,74,57,0
0,78,60,0
0,57,86,0
0,62,86,0
0,66,86,0
0,62,99,0
0,26,101,0
0,36,81,0
0,55,84,0
0,42,71,34
0,42,70,92
0,46,72,92
0,69,123,20
0,40,90,0
0,42,70,0
0,42,74,92
0,33,98,92
0,36,82,0
0,42,95,0
0,42,73,30
0,62,118,2
0,38,100,0
0,36,80,0
0,42,75,0
0,42,70,92
0,42,95,92
0,42,74,92
0,69,119,16
0,40,92,0
0,42,72,0
0,42,70,92
0,42,95,92
0,67,119,2
0,67,58,0
0,72,59,0
0,76,56,0
0,55,83,0
0,60,86,0
0,64,86,0
0,38,98,0
0,36,87,0
0,42,74,0
0,42,74,92
0,42,72,40
0,46,71,2
0,67,121,188
0,50,99,0
0,40,97,0
0,42,72,0
0,42,73,10
0,69,119,92
0,26,101,0
0,36,81,0
0,42,95,0
0,42,70,20
0,71,122,10
0,26,101,0
0,36,84,0
0,42,73,0
0,42,72,20
0,42,95,70
0,42,73,92
0,67,118,8
0,40,98,0
0,42,71,0
0,42,73,92
0,42,95,92
0,69,125,8
0,69,55,0
0,74,57,0
0,78,59,0
0,57,86,0
0,62,84,0
0,66,86,0
0,38,97,0
0,36,81,0
0,42,72,0
0,42,70,92
0,42,73,92
0,46,72,8
0,38,100,92
0,69,122,46
0,50,100,0
0,40,97,0
0,42,72,0
0,42,74,8
0,33,98,92
0,36,86,0
0,42,95,0
0,42,70,30
0,67,118,44
0,26,97,0
0,36,84,0
0,42,74,0
0,42,74,92
0,42,95,92
0,42,74,2
0,66,125,2
0,33,99,0
0,40,96,0
0,42,70,0
0,42,71,92
0,42,95,4
0,64,121,32
0,67,58,0
0,72,57,0
0,76,55,0
0,55,86,0
0,60,84,0
0,64,82,0
0,36,101,0
0,36,85,0
0,42,74,0
0,42,71,20
0,62,121,92
0,62,101,0
0,42,72,0
0,59,100,36
0,46,73,0
0,62,101,2
0,40,96,0
0,42,72,0
0,42,72,6
0,31,97,52
0,36,80,0
0,42,95,0
0,33,98,2
0,42,70,0
0,65,101,30
0,36,101,0
0,36,86,0
0,42,73,0
0,42,71,6
0,64,100,92
0,38,99,0
0,42,95,0
0,42,74,12
0,62,102,92
0,40,100,0
0,40,95,0
0,42,72,0
0,64,100,6
0,42,72,0
0,42,95,6
0,69,56,50
0,74,55,0
0,78,56,0
0,57,84,0
0,62,84,0
0,66,84,0
0,62,100,0
0,38,97,0
0,36,84,0
0,42,70,0
0,42,74,24
0,42,73,92
0,46,75,92
0,69,124,14
0,40,92,0
0,42,74,0
0,42,71,92
0,33,98,92
0,36,88,0
0,42,95,0
0,42,73,32
0,62,125,42
0,38,101,0
0,36,85,0
0,42,73,0
0,42,73,92
0,42,95,92
0,42,71,92
0,69,123,8
0,40,92,0
0,42,70,0
0,42,74,92
0,42,95,4
0,67,124,32
0,67,58,0
0,72,57,0
0,76,59,0
0,55,83,0
0,60,86,0
0,64,82,0
0,38,99,0
0,36,87,0
0,42,70,0
0,42,72,92
0,42,71,92
0,46,72,52
0,67,120,188
0,50,97,0
0,40,92,0
0,42,72,0
0,42,71,36
0,69,124,92
0,26,100,0
0,36,85,0
0,42,95,0
0,42,73,30
0,71,119,18
0,26,100,0
0,36,80,0
0,42,70,0
0,42,70,8
0,42,95,34
0,42,71,92
0,67,119,34
0,40,99,0
0,42,73,0
0,42,71,92
0,42,95,0
0,69,124,2
0,69,59,0
0,74,57,0
0,78,58,0
0,57,83,0
0,62,85,0
0,66,85,0
0,38,99,0
0,36,80,0
0,42,70,0
0,42,74,92
0,42,72,92
0,46,70,2
0,38,98,92
0,50,100,38
0,40,91,0
0,42,73,0
0,42,71,8
0,69,122,92
0,33,98,0
0,36,84,0
0,42,95,0
0,42,71,18
0,67,123,92
0,26,99,0
0,36,87,0
0,42,74,0
0,42,74,92
0,42,95,92
0,42,72,92
0,66,122,18
0,33,100,0
0,40,93,0
0,42,70,0
0,42,70,92
0,42,95,0
0,64,124,2
0,67,58,0
0,71,55,0
0,74,57,0
0,55,82,0
0,59,82,0
0,62,83,0
0,31,99,0
0,36,83,0
