track,note,velocity,time
1,64,80,1920
1,76,80,0
1,64,0,96
1,76,0,0
1,69,80,24
1,69,0,96
1,72,80,24
1,72,0,96
1,64,80,24
1,76,80,0
1,64,0,96
1,76,0,0
1,65,80,24
1,77,80,0
1,65,0,96
1,77,0,0
1,69,80,24
1,72,80,0
1,69,0,96
1,72,0,0
1,64,80,24
1,76,80,0
1,64,0,96
1,76,0,0
1,64,80,24
1,76,80,0
1,64,0,96
1,76,0,0
1,68,80,144
1,68,0,96
1,71,80,24
1,71,0,96
1,76,80,24
1,64,80,0
1,76,0,96
1,64,0,0
1,62,80,24
1,74,80,0
1,62,0,120
1,74,0,0
1,68,80,0
1,68,0,96
1,71,80,24
1,71,0,96
1,62,80,24
1,74,80,0
1,62,0,96
1,74,0,0
1,76,80,24
1,64,80,0
1,76,0,96
1,64,0,0
1,68,80,24
1,68,0,96
1,71,80,24
1,71,0,96
1,64,80,24
1,76,80,0
1,64,0,96
1,76,0,0
1,65,80,24
1,77,80,0
1,65,0,96
1,77,0,0
1,68,80,24
1,71,80,0
1,68,0,96
1,71,0,0
1,76,80,24
1,64,80,0
1,76,0,96
1,64,0,0
1,64,80,24
1,76,80,0
1,64,0,96
1,76,0,0
1,69,80,144
1,69,0,96
1,72,80,24
1,72,0,96
1,64,80,24
1,76,80,0
1,64,0,192
1,76,0,0
1,69,80,48
1,69,0,96
1,72,80,24
1,72,0,96
1,76,80,24
1,64,80,0
1,76,0,96
1,64,0,0
1,64,80,24
1,76,80,0
1,64,0,96
1,76,0,0
1,69,80,24
1,69,0,96
1,72,80,24
1,72,0,96
1,64,80,24
1,76,80,0
1,64,0,96
1,76,0,0
1,77,80,24
1,65,80,0
1,77,0,96
1,65,0,0
1,72,80,24
1,69,80,0
1,72,0,96
1,69,0,0
1,64,80,24
1,76,80,0
1,64,0,96
1,76,0,0
1,64,80,24
1,76,80,0
1,64,0,96
1,76,0,0
1,68,80,144
1,68,0,96
1,71,80,24
1,71,0,96
1,76,80,24
1,64,80,0
1,76,0,96
1,64,0,0
1,74,80,24
1,62,80,0
1,74,0,120
1,62,0,0
1,68,80,0
1,68,0,96
1,71,80,24
1,71,0,96
1,62,80,24
1,74,80,0
1,62,0,96
1,74,0,0
1,64,80,24
1,76,80,0
1,64,0,96
1,76,0,0
1,68,80,24
1,68,0,96
1,71,80,24
1,71,0,96
1,76,80,24
1,64,80,0
1,76,0,96
1,64,0,0
1,65,80,24
1,77,80,0
1,65,0,96
1,77,0,0
1,71,80,24
1,68,80,0
1,71,0,96
1,68,0,0
1,76,80,24
1,64,80,0
1,76,0,96
1,64,0,0
1,64,80,24
1,76,80,0
1,64,0,96
1,76,0,0
1,69,80,144
1,69,0,96
1,72,80,24
1,72,0,96
1,76,80,24
1,64,80,0
1,76,0,192
1,64,0,0
1,69,80,48
1,69,0,96
1,72,80,24
1,72,0,96
1,64,80,24
1,76,80,0
1,64,0,96
1,76,0,0
1,76,80,24
1,64,80,0
1,76,0,96
1,64,0,0
1,69,80,24
1,69,0,96
1,72,80,24
1,72,0,96
1,64,80,24
1,76,80,0
1,64,0,96
1,76,0,0
1,77,80,24
1,65,80,0
1,77,0,96
1,65,0,0
1,72,80,24
1,69,80,0
1,72,0,96
1,69,0,0
1,76,80,24
1,64,80,0
1,76,0,96
1,64,0,0
1,64,80,24
1,76,80,0
1,64,0,96
1,76,0,0
1,68,80,144
1,68,0,96
1,71,80,24
1,71,0,96
1,76,80,24
1,64,80,0
1,76,0,96
1,64,0,0
1,62,80,24
1,74,80,0
1,62,0,120
1,74,0,0
1,68,80,0
1,68,0,96
1,71,80,24
1,71,0,96
1,74,80,24
1,62,80,0
1,74,0,96
1,62,0,0
1,76,80,24
1,64,80,0
1,76,0,96
1,64,0,0
1,68,80,24
1,68,0,96
1,71,80,24
1,71,0,96
1,76,80,24
1,64,80,0
1,76,0,96
1,64,0,0
1,77,80,24
1,65,80,0
1,77,0,96
1,65,0,0
1,71,80,24
1,68,80,0
1,71,0,96
1,68,0,0
1,76,80,24
1,64,80,0
1,76,0,96
1,64,0,0
1,64,80,24
1,76,80,0
1,64,0,96
1,76,0,0
1,69,80,144
1,69,0,96
1,72,80,24
1,72,0,96
1,76,80,24
1,64,80,0
1,76,0,192
1,64,0,0
1,69,80,48
1,69,0,96
1,72,80,24
1,72,0,96
1,64,80,24
1,76,80,0
1,64,0,96
1,76,0,0
1,76,80,24
1,64,80,0
1,76,0,96
1,64,0,0
1,69,80,24
1,69,0,96
1,72,80,24
1,72,0,96
1,64,80,24
1,76,80,0
1,64,0,96
1,76,0,0
1,77,80,24
1,65,80,0
1,77,0,96
1,65,0,0
1,72,80,24
1,69,80,0
1,72,0,96
1,69,0,0
1,76,80,24
1,64,80,0
1,76,0,96
1,64,0,0
1,64,80,24
1,76,80,0
1,64,0,96
1,76,0,0
1,68,80,144
1,68,0,96
1,71,80,24
1,71,0,96
1,76,80,24
1,64,80,0
1,76,0,96
1,64,0,0
1,62,80,24
1,74,80,0
1,62,0,120
1,74,0,0
1,68,80,0
1,68,0,96
1,71,80,24
1,71,0,96
1,74,80,24
1,62,80,0
1,74,0,96
1,62,0,0
1,76,80,24
1,64,80,0
1,76,0,96
1,64,0,0
1,68,80,24
1,68,0,96
1,71,80,24
1,71,0,96
1,76,80,24
1,64,80,0
1,76,0,96
1,64,0,0
1,77,80,24
1,65,80,0
1,77,0,96
1,65,0,0
1,71,80,24
1,68,80,0
1,71,0,96
1,68,0,0
1,76,80,24
1,64,80,0
1,76,0,96
1,64,0,0
1,64,80,24
1,76,80,0
1,64,0,96
1,76,0,0
1,76,80,24
1,64,80,0
1,76,0,160
1,64,0,0
1,68,80,0
1,71,80,0
1,68,0,128
1,71,0,0
1,72,80,32
1,69,80,0
1,72,0,128
1,69,0,0
1,73,80,32
1,69,80,0
1,73,0,54
1,69,0,0
1,62,70,156
1,62,0,60
1,65,72,0
1,65,0,37
1,69,80,0
1,69,0,60
1,62,70,60
1,74,65,0
1,62,0,60
1,74,0,0
1,60,61,60
1,72,74,0
1,74,74,0
1,60,0,60
1,74,0,0
1,72,0,60
1,65,78,0
1,65,0,60
1,69,68,60
1,69,0,60
1,60,56,60
1,72,59,0
1,60,0,60
1,72,0,0
1,62,58,60
1,62,0,120
1,65,61,0
1,65,0,60
1,69,83,60
1,69,0,60
1,74,80,60
1,62,54,0
1,74,0,120
1,62,0,0
1,76,70,120
1,64,38,0
1,76,0,60
1,64,0,60
1,68,50,0
1,68,0,60
1,71,61,60
1,71,0,60
1,76,74,60
1,64,55,0
1,69,63,240
1,76,0,60
1,64,0,0
1,69,0,0
1,72,74,60
1,69,49,60
1,64,35,0
1,72,0,60
1,69,0,0
1,64,0,0
1,64,62,120
1,76,78,0
1,64,0,120
1,76,0,0
1,64,63,36
1,76,76,0
1,64,0,23
1,76,0,0
1,69,58,120
1,69,0,60
1,72,62,120
1,72,0,0
1,64,62,60
1,76,72,0
1,64,0,60
1,76,0,0
1,64,66,60
1,76,78,0
1,64,0,120
1,76,0,0
1,69,70,0
1,69,0,60
1,72,68,60
1,72,0,60
1,64,59,60
1,64,0,60
1,62,59,120
1,74,41,0
1,62,0,60
1,74,0,0
1,65,68,120
1,65,0,60
1,69,72,120
1,69,0,60
1,74,78,120
1,62,63,0
1,74,0,41
1,62,0,0
1,76,68,19
1,64,48,0
1,76,0,120
1,64,0,0
1,68,63,120
1,68,0,60
1,71,70,8
1,71,0,60
1,64,68,10
1,76,66,0
1,64,0,26
1,76,0,0
1,74,63,60
1,62,49,60
1,74,0,60
1,62,0,0
1,68,71,0
1,68,0,60
1,71,68,60
1,71,0,60
1,62,56,60
1,74,62,0
1,62,0,60
1,74,0,0
1,64,65,60
1,76,83,60
1,64,0,60
1,76,0,0
1,69,78,120
1,69,0,60
1,72,78,60
1,72,0,120
1,64,66,74
1,76,72,0
1,64,0,70
1,76,0,0
1,76,80,120
1,64,66,0
1,76,0,120
1,64,0,0
1,69,68,120
1,69,0,60
1,73,64,60
1,73,0,60
1,64,66,60
1,76,72,0
1,64,0,60
1,76,0,0
1,64,76,120
1,76,78,0
1,76,0,60
1,69,83,0
1,64,0,60
1,69,0,0
1,73,69,60
1,73,0,60
1,64,78,60
1,76,50,0
1,64,0,60
1,76,0,0
1,74,83,60
1,62,74,60
1,74,0,60
1,62,0,0
1,65,46,120
1,65,0,60
1,69,76,5
1,69,0,120
1,74,74,120
1,62,65,0
1,74,0,120
1,62,0,0
1,74,72,120
1,62,59,0
1,62,0,120
1,74,0,60
1,65,68,60
1,65,0,60
1,69,83,60
1,69,0,60
1,62,68,60
1,74,74,0
1,62,0,60
1,74,0,0
1,64,59,120
1,76,61,0
1,76,0,60
1,68,64,0
1,64,0,60
1,68,0,0
1,71,70,60
1,71,0,60
1,64,56,60
1,76,78,0
1,64,0,60
1,76,0,0
1,76,74,60
1,64,62,0
1,76,0,180
1,64,0,0
1,69,63,60
1,69,0,60
1,72,74,60
1,69,42,0
1,69,0,60
1,72,0,60
1,76,70,120
1,64,50,0
1,76,0,120
1,64,0,0
1,76,76,120
1,64,65,0
1,76,0,22
1,64,0,0
1,69,74,7
1,69,0,38
1,72,66,120
1,72,0,60
1,64,78,0
1,76,76,0
1,64,0,60
1,76,0,0
1,64,74,60
1,76,80,0
1,64,0,120
1,69,76,0
1,76,0,60
1,69,0,0
1,72,74,60
1,72,0,60
1,64,70,60
1,76,76,0
1,64,0,60
1,76,0,0
1,74,66,60
1,62,61,0
1,74,0,180
1,62,0,0
1,65,74,60
1,65,0,60
1,69,89,60
1,69,0,120
1,62,68,120
1,74,80,0
1,62,0,60
1,74,0,60
1,76,76,120
1,64,58,0
1,76,0,180
1,64,0,0
1,68,63,60
1,68,0,60
1,71,76,60
1,71,0,60
1,76,72,49
1,64,62,0
1,76,0,60
1,64,0,0
1,64,58,60
1,76,70,0
1,64,0,116
1,76,0,0
1,68,67,0
1,68,0,60
1,71,74,60
1,71,0,60
1,76,78,60
1,76,0,60
1,64,80,0
1,64,0,60
1,81,115,0
1,69,115,0
1,81,0,192
1,69,0,0
1,69,115,48
1,81,115,0
1,69,0,192
1,81,0,0
1,79,115,48
1,67,115,0
1,79,0,96
1,67,0,0
1,67,115,24
1,79,115,0
1,67,0,96
1,79,0,0
1,66,115,144
1,78,115,0
1,66,0,96
1,78,0,0
1,73,115,144
1,70,115,0
1,73,0,96
1,70,0,0
1,76,115,144
1,64,115,0
1,76,0,96
1,64,0,0
1,70,115,144
1,73,115,0
1,70,0,96
1,73,0,0
1,71,115,24
1,83,115,0
1,71,0,96
1,83,0,0
1,83,115,24
1,71,115,0
1,83,0,96
1,71,0,0
1,83,115,24
1,71,115,0
1,83,0,96
1,71,0,0
1,62,115,24
1,74,115,0
1,62,0,96
1,74,0,0
1,66,115,24
1,78,115,0
1,66,0,96
1,78,0,0
1,83,115,24
1,71,115,0
1,83,0,96
1,71,0,0
1,69,115,24
1,81,115,0
1,69,0,96
1,81,0,0
1,74,115,24
1,78,115,0
1,74,0,96
1,78,0,0
1,81,115,24
1,69,115,0
1,81,0,96
1,69,0,0
1,68,115,24
1,80,115,0
1,68,0,96
1,80,0,0
1,74,115,144
1,71,115,0
1,74,0,96
1,71,0,0
1,68,115,144
1,80,115,0
1,68,0,96
1,80,0,0
1,74,115,144
1,71,115,0
1,74,0,96
1,71,0,0
1,81,115,24
1,69,115,0
1,81,0,96
1,69,0,0
1,69,115,24
1,81,115,0
1,69,0,96
1,81,0,0
1,81,115,24
1,69,115,0
1,81,0,96
1,69,0,0
1,61,115,24
1,73,115,0
1,61,0,96
1,73,0,0
1,64,115,24
1,76,115,0
1,64,0,96
1,76,0,0
1,69,115,24
1,81,115,0
1,69,0,96
1,81,0,0
1,79,115,24
1,67,115,0
1,79,0,96
1,67,0,0
1,71,115,24
1,76,115,0
1,71,0,96
1,76,0,0
1,79,115,24
1,67,115,0
1,79,0,96
1,67,0,0
1,78,115,24
1,66,115,0
1,78,0,96
1,66,0,0
1,70,115,144
1,73,115,0
1,70,0,96
1,73,0,0
1,64,115,144
1,76,115,0
1,64,0,96
1,76,0,0
1,73,115,144
1,70,115,0
1,73,0,96
1,70,0,0
1,71,115,24
1,83,115,0
1,71,0,96
1,83,0,0
1,83,115,24
1,71,115,0
1,83,0,96
1,71,0,0
1,83,115,24
1,71,115,0
1,83,0,96
1,71,0,0
1,62,115,24
1,74,115,0
1,62,0,96
1,74,0,0
1,78,115,24
1,66,115,0
1,78,0,96
1,66,0,0
1,83,115,24
1,71,115,0
1,83,0,96
1,71,0,0
1,81,115,24
1,69,115,0
1,81,0,96
1,69,0,0
1,74,115,24
1,78,115,0
1,74,0,96
1,78,0,0
1,69,115,24
1,81,115,0
1,69,0,96
1,81,0,0
1,68,115,24
1,80,115,0
1,68,0,96
1,80,0,0
1,71,115,144
1,74,115,0
1,71,0,96
1,74,0,0
1,68,115,144
1,80,115,0
1,68,0,96
1,80,0,0
1,74,115,144
1,71,115,0
1,74,0,96
1,71,0,0
1,81,115,24
1,69,115,0
1,81,0,96
1,69,0,0
1,81,115,24
1,69,115,0
1,81,0,96
1,69,0,0
1,79,115,994
1,71,115,1
1,67,115,1
1,74,115,5
1,67,0,227
1,71,0,6
1,74,0,3
1,79,0,4
1,77,115,116
1,72,115,1
1,69,115,4
1,65,115,4
1,65,0,183
1,69,0,9
1,77,0,4
1,72,0,2
1,76,115,149
1,64,115,6
1,64,0,56
1,76,0,6
1,76,115,51
1,64,115,6
1,76,0,202
1,64,0,0
1,68,115,24
1,68,0,96
1,71,115,24
1,71,0,96
1,62,115,24
1,74,115,0
1,62,0,96
1,74,0,0
1,77,115,144
1,65,115,0
1,77,0,96
1,65,0,0
1,76,115,144
1,64,115,0
1,76,0,192
1,64,0,0
1,68,115,48
1,68,0,96
1,71,115,24
1,71,0,96
1,74,115,24
1,74,0,96
1,77,115,144
1,65,115,0
1,77,0,96
1,65,0,0
1,76,115,24
1,64,115,0
1,76,0,96
1,64,0,0
1,64,115,24
1,76,115,0
1,64,0,192
1,76,0,0
1,69,115,48
1,69,0,96
1,72,115,24
1,72,0,96
1,64,115,24
1,76,115,0
1,64,0,96
1,76,0,0
1,76,115,24
1,64,115,0
1,76,0,96
1,64,0,0
1,69,115,24
1,69,0,96
1,72,115,24
1,72,0,96
1,76,115,24
1,64,115,0
1,76,0,96
1,64,0,0
1,79,115,24
1,67,115,0
1,79,0,192
1,67,0,0
1,74,115,48
1,71,115,0
1,74,0,96
1,71,0,0
1,77,115,24
1,65,115,0
1,77,0,192
1,65,0,0
1,72,115,48
1,69,115,0
1,72,0,96
1,69,0,0
1,64,115,24
1,76,115,0
1,64,0,96
1,76,0,0
1,76,115,24
1,64,115,0
1,76,0,192
1,64,0,0
1,68,115,48
1,68,0,96
1,71,115,24
1,71,0,96
1,62,115,24
1,74,115,0
1,62,0,96
1,74,0,0
1,77,115,144
1,65,115,0
1,77,0,96
1,65,0,0
1,64,115,144
1,76,115,0
1,64,0,192
1,76,0,0
1,68,115,48
1,68,0,96
1,71,115,24
1,71,0,96
1,74,115,24
1,74,0,96
1,65,115,144
1,77,115,0
1,65,0,96
1,77,0,0
1,64,115,24
1,76,115,0
1,64,0,96
1,76,0,0
1,64,115,24
1,76,115,0
1,64,0,192
1,76,0,0
1,69,115,48
1,69,0,96
1,72,115,24
1,72,0,96
1,64,115,24
1,76,115,0
1,64,0,96
1,76,0,0
1,64,115,24
1,76,115,0
1,64,0,96
1,76,0,0
1,69,115,24
1,69,0,96
1,72,115,24
1,72,0,96
1,76,115,24
1,64,115,0
1,76,0,96
1,64,0,0
1,79,115,24
1,67,115,0
1,79,0,192
1,67,0,0
1,74,115,48
1,71,115,0
1,74,0,96
1,71,0,0
1,77,115,24
1,65,115,0
1,77,0,192
1,65,0,0
1,72,115,48
1,69,115,0
1,72,0,96
1,69,0,0
1,64,115,24
1,76,115,0
