track,note,velocity,time
1,52,78,3072
1,69,127,0
1,45,86,0
1,64,57,0
1,73,110,192
1,64,0,36
1,69,126,156
1,69,0,18
1,64,127,174
1,73,0,30
1,69,0,68
1,66,124,94
1,69,127,192
1,52,0,84
1,45,0,0
1,64,0,2
1,66,0,2
1,69,0,278
1,68,127,18
1,59,94,0
1,52,82,0
1,68,127,192
1,59,96,0
1,52,93,0
1,68,0,18
1,59,0,58
1,52,0,76
1,52,111,40
1,68,0,76
1,59,0,98
1,59,110,18
1,52,0,48
1,59,0,54
1,64,102,90
1,64,0,164
1,59,36,28
1,68,125,0
1,68,0,138
1,52,103,54
1,52,0,64
1,59,0,26
1,59,102,102
1,68,96,0
1,56,127,0
1,68,97,0
1,68,0,192
1,68,127,0
1,68,0,192
1,68,127,0
1,68,0,74
1,52,0,10
1,68,0,108
1,64,127,0
1,59,0,84
1,64,0,108
1,59,122,0
1,59,0,192
1,64,127,0
1,56,0,174
1,64,0,18
1,68,112,0
1,68,0,192
1,64,67,0
1,61,92,192
1,52,92,0
1,73,127,384
1,69,127,192
1,64,112,192
1,69,0,180
1,66,127,12
1,73,0,98
1,69,127,94
1,64,0,168
1,66,0,12
1,64,0,190
1,69,0,128
1,52,0,64
1,69,127,0
1,52,78,0
1,64,57,0
1,45,86,0
1,61,0,6
1,73,110,186
1,64,0,36
1,69,126,156
1,69,0,18
1,64,127,174
1,73,0,30
1,69,0,68
1,66,124,94
1,69,127,192
1,45,0,84
1,52,0,0
1,64,0,2
1,66,0,2
1,69,0,278
1,59,94,18
1,68,127,0
1,52,82,0
1,68,127,192
1,59,96,0
1,52,93,0
1,68,0,18
1,59,0,58
1,52,0,76
1,52,111,40
1,68,0,76
1,59,0,98
1,59,110,18
1,52,0,48
1,59,0,54
1,64,102,90
1,64,0,164
1,68,125,28
1,59,36,0
1,68,0,138
1,52,103,54
1,52,0,64
1,59,0,26
1,68,97,102
1,68,96,0
1,59,102,0
1,56,127,0
1,68,0,192
1,68,127,0
1,68,0,192
1,68,127,0
1,68,0,74
1,52,0,10
1,68,0,108
1,64,127,0
1,59,0,84
1,64,0,108
1,59,122,0
1,59,0,192
1,64,127,0
1,56,0,174
1,64,0,18
1,68,112,0
1,68,0,192
1,64,67,0
1,61,92,192
1,52,92,0
1,73,127,384
1,69,127,192
1,64,112,192
1,69,0,180
1,66,127,12
1,73,0,98
1,69,127,94
1,64,0,168
1,66,0,12
1,64,0,190
1,52,0,192
1,64,57,14
1,45,86,0
1,69,127,0
1,52,78,0
1,61,0,6
1,69,0,76
1,73,110,110
1,64,0,36
1,69,126,156
1,69,0,18
1,64,127,174
1,73,0,30
1,69,0,68
1,66,124,94
1,69,127,192
1,45,0,84
1,52,0,0
1,64,0,2
1,66,0,2
1,69,0,278
1,68,127,18
1,52,82,0
1,59,94,0
1,68,127,192
1,52,93,0
1,59,96,0
1,68,0,18
1,59,0,58
1,52,0,76
1,52,111,40
1,68,0,76
1,59,0,98
1,59,110,18
1,52,0,48
1,59,0,54
1,64,102,90
1,64,0,164
1,59,36,28
1,68,125,0
1,68,0,138
1,52,103,54
1,52,0,64
1,59,0,26
1,68,97,102
1,68,96,0
1,56,127,0
1,59,102,0
1,68,0,192
1,68,127,0
1,68,0,192
1,68,127,0
1,68,0,74
1,52,0,10
1,68,0,108
1,64,127,0
1,59,0,84
1,64,0,108
1,59,122,0
1,59,0,192
1,64,127,0
1,56,0,174
1,64,0,18
1,68,112,0
1,68,0,192
1,64,67,0
1,52,92,192
1,61,92,0
1,73,127,384
1,69,127,192
1,64,112,192
1,69,0,180
1,66,127,12
1,73,0,98
1,69,127,94
1,64,0,168
1,66,0,12
1,64,0,190
1,52,0,192
1,52,78,14
1,64,57,0
1,69,127,0
1,45,86,0
1,61,0,6
1,69,0,76
1,73,110,110
1,64,0,36
1,69,126,156
1,69,0,18
1,64,127,174
1,73,0,30
1,69,0,68
1,66,124,94
1,69,127,192
1,52,0,84
1,45,0,0
1,64,0,2
1,66,0,2
1,69,0,278
1,59,94,18
1,68,127,0
1,52,82,0
1,52,93,192
1,59,96,0
1,68,127,0
1,68,0,18
1,59,0,58
1,52,0,76
1,52,111,40
1,68,0,76
1,59,0,98
1,59,110,18
1,52,0,48
1,59,0,54
1,64,102,90
1,64,0,164
1,59,36,28
1,68,125,0
1,68,0,138
1,52,103,54
1,52,0,64
1,59,0,26
1,59,102,102
1,68,96,0
1,56,127,0
1,68,97,0
1,68,0,192
1,68,127,0
1,68,0,192
1,68,127,0
1,68,0,74
1,52,0,10
1,68,0,108
1,64,127,0
1,59,0,84
1,64,0,108
1,59,122,0
1,59,0,192
1,64,127,0
1,56,0,174
1,64,0,18
1,68,112,0
1,68,0,192
1,64,67,0
1,52,92,192
1,61,92,0
1,73,127,384
1,69,127,192
1,64,112,192
1,69,0,180
1,66,127,12
1,73,0,98
1,69,127,94
1,64,0,168
1,66,0,12
1,64,0,190
1,52,0,192
1,69,127,0
1,64,57,0
1,45,86,0
1,52,78,0
1,61,0,6
1,69,0,76
1,73,110,110
1,64,0,36
1,69,126,156
1,69,0,18
1,64,127,174
1,73,0,30
1,69,0,68
1,66,124,94
1,69,127,192
1,45,0,84
1,52,0,0
1,64,0,2
1,66,0,2
1,69,0,278
1,68,127,18
1,52,82,0
1,59,94,0
1,59,96,192
1,52,93,0
1,68,127,0
1,68,0,18
1,59,0,58
1,52,0,76
1,52,111,40
1,68,0,76
1,59,0,98
1,59,110,18
1,52,0,48
1,59,0,54
1,64,102,90
1,64,0,164
1,59,36,28
1,68,125,0
1,68,0,138
1,52,103,54
1,52,0,64
1,59,0,26
1,56,127,102
1,68,97,0
1,68,96,0
1,59,102,0
1,68,0,192
1,68,127,0
1,68,0,192
1,68,127,0
1,68,0,74
1,52,0,10
1,68,0,108
1,64,127,0
1,59,0,84
1,64,0,108
1,59,122,0
1,59,0,192
1,64,127,0
1,56,0,174
1,64,0,18
1,68,112,0
1,68,0,192
1,64,67,0
1,52,92,192
1,61,92,0
1,73,127,384
1,69,127,192
1,64,112,192
1,69,0,180
1,52,0,22
1,73,0,88
1,64,0,262
1,62,92,24
1,69,127,0
1,66,127,0
1,64,0,178
1,61,0,212
1,69,0,10
1,62,0,0
1,66,0,2
1,74,127,174
1,69,127,192
1,66,112,192
1,74,0,290
1,69,0,212
1,66,0,50
1,71,127,24
1,68,127,0
1,64,92,0
1,64,0,400
1,71,0,0
1,68,0,2
1,71,127,174
1,68,127,192
1,64,112,192
1,71,0,290
1,68,0,212
1,64,0,50
1,62,92,24
1,69,127,0
1,66,127,0
1,69,0,400
1,62,0,0
1,66,0,2
1,74,127,174
1,69,127,192
1,66,112,192
1,74,0,290
1,69,0,212
1,66,0,50
1,69,127,24
1,64,127,0
1,61,92,0
1,61,0,400
1,69,0,0
1,64,0,2
1,73,127,174
1,69,127,192
1,64,112,192
1,69,0,180
1,73,0,110
1,64,0,262
1,62,92,24
1,66,127,0
1,69,127,0
1,69,0,400
1,62,0,0
1,66,0,2
1,74,127,174
1,69,127,192
1,66,112,192
1,74,0,290
1,69,0,212
1,66,0,50
1,68,127,24
1,71,127,0
1,64,92,0
1,64,0,400
1,71,0,0
1,68,0,2
1,71,127,174
1,68,127,192
1,64,112,192
1,71,0,290
1,68,0,212
1,64,0,50
1,66,127,24
1,62,92,0
1,69,127,0
1,69,0,400
1,62,0,0
1,66,0,2
1,74,127,174
1,69,127,192
1,66,112,192
1,74,0,290
1,69,0,212
1,66,0,50
1,61,92,24
1,64,127,0
1,69,127,0
1,69,127,384
1,64,57,0
1,52,78,0
1,45,86,0
1,69,0,16
1,61,0,0
1,64,0,2
1,73,110,174
1,64,0,36
1,69,126,156
1,69,0,18
1,64,127,174
1,73,0,30
1,69,0,68
1,66,124,94
1,69,127,192
1,52,0,84
1,45,0,0
1,64,0,2
1,66,0,2
1,69,0,278
1,52,82,18
1,69,127,0
1,61,94,0
1,64,57,0
1,52,78,0
1,69,127,0
1,45,86,0
1,73,110,192
1,69,0,18
1,64,0,18
1,61,0,40
1,52,0,76
1,69,126,40
1,69,0,18
1,64,127,174
1,73,0,30
1,69,0,68
1,66,124,94
1,69,127,192
1,52,0,84
1,45,0,0
1,64,0,2
1,66,0,2
1,69,0,278
1,68,127,18
1,52,82,0
1,59,94,0
1,68,127,192
1,52,93,0
1,59,96,0
1,68,0,18
1,59,0,58
1,52,0,76
1,52,111,40
1,68,0,76
1,59,0,98
1,59,110,18
1,52,0,48
1,59,0,54
1,64,102,90
1,64,0,164
1,59,36,28
1,68,125,0
1,68,0,138
1,52,103,54
1,52,0,64
1,59,0,26
1,68,97,102
1,59,102,0
1,68,96,0
1,56,127,0
1,68,0,192
1,68,127,0
1,68,0,192
1,68,127,0
1,68,0,74
1,52,0,10
1,68,0,108
1,64,127,0
1,59,0,84
1,64,0,108
1,59,122,0
1,59,0,192
1,64,127,0
1,56,0,174
1,64,0,18
1,68,112,0
1,68,0,192
1,64,67,0
1,52,92,192
1,61,92,0
1,73,127,384
1,69,127,192
1,64,112,192
1,69,0,180
1,66,127,12
1,73,0,98
1,69,127,94
1,64,0,168
1,66,0,12
1,64,0,190
1,52,0,192
1,52,78,14
1,45,86,0
1,64,57,0
1,69,127,0
1,61,0,6
1,69,0,76
1,73,110,110
1,64,0,36
1,69,126,156
1,69,0,18
1,64,127,174
1,73,0,30
1,69,0,68
1,66,124,94
1,69,127,192
1,45,0,84
1,52,0,0
1,64,0,2
1,66,0,2
1,69,0,278
1,59,94,18
1,68,127,0
1,52,82,0
1,52,93,192
1,59,96,0
1,68,127,0
1,68,0,18
1,59,0,58
1,52,0,76
1,52,111,40
1,68,0,76
1,59,0,98
1,59,110,18
1,52,0,48
1,59,0,54
1,64,102,90
1,64,0,164
1,59,36,28
1,68,125,0
1,68,0,138
1,52,103,54
1,52,0,64
1,59,0,26
1,56,127,102
1,68,96,0
1,68,97,0
1,59,102,0
1,68,0,192
1,68,127,0
1,68,0,192
1,68,127,0
1,68,0,74
1,52,0,10
1,68,0,108
1,64,127,0
1,59,0,84
1,64,0,108
1,59,122,0
1,59,0,192
1,64,127,0
1,56,0,174
1,64,0,18
1,68,112,0
1,68,0,192
1,64,67,0
1,52,92,192
1,61,92,0
1,73,127,384
1,69,127,192
1,64,112,192
1,69,0,180
1,52,0,22
1,73,0,88
1,64,0,262
1,66,127,24
1,62,92,0
1,69,127,0
1,64,0,178
1,61,0,212
1,62,0,10
1,69,0,0
1,66,0,2
1,74,127,174
1,69,127,192
1,66,112,192
1,74,0,290
1,69,0,212
1,66,0,50
1,64,92,24
1,71,127,0
1,68,127,0
1,71,0,400
1,64,0,0
1,68,0,2
1,71,127,174
1,68,127,192
1,64,112,192
1,71,0,290
1,68,0,212
1,64,0,50
1,62,92,24
1,69,127,0
1,66,127,0
1,69,0,400
1,62,0,0
1,66,0,2
1,74,127,174
1,69,127,192
1,66,112,192
1,74,0,290
1,69,0,212
1,66,0,50
1,61,92,24
1,64,127,0
1,69,127,0
1,69,0,400
1,61,0,0
1,64,0,2
1,73,127,174
1,69,127,192
1,64,112,192
1,69,0,180
1,73,0,110
1,64,0,262
1,66,127,24
1,69,127,0
1,62,92,0
1,62,0,400
1,69,0,0
1,66,0,2
1,74,127,174
1,69,127,192
1,66,112,192
1,74,0,290
1,69,0,212
1,66,0,50
1,64,92,24
1,68,127,0
1,71,127,0
1,71,0,400
1,64,0,0
1,68,0,2
1,71,127,174
1,68,127,192
1,64,112,192
1,71,0,290
1,68,0,212
1,64,0,50
1,62,92,24
1,69,127,0
1,66,127,0
1,69,0,400
1,62,0,0
1,66,0,2
1,74,127,174
1,69,127,192
1,66,112,192
1,74,0,290
1,69,0,212
1,66,0,50
1,69,127,24
1,64,127,0
1,61,92,0
1,69,0,220
1,61,0,20
1,64,0,2
1,66,127,1294
1,50,106,0
1,62,127,0
1,57,86,384
1,62,0,80
1,66,0,40
1,66,127,72
1,62,113,0
1,62,0,178
1,66,0,32
1,69,123,174
1,62,73,0
1,62,0,58
1,66,107,134
1,69,0,28
1,50,0,84
1,66,0,16
1,62,53,64
1,57,0,58
1,62,0,8
1,64,127,126
1,68,40,0
1,52,108,0
1,59,111,0
1,68,0,34
1,64,0,48
1,68,127,110
1,64,120,0
1,64,0,156
1,68,0,22
1,64,127,206
1,71,127,0
1,69,103,192
1,71,0,36
1,59,0,146
1,68,127,10
1,69,0,14
1,52,0,16
1,68,0,66
1,64,0,20
1,50,91,0
1,62,108,0
1,50,0,314
1,62,0,64
1,57,83,6
1,62,113,192
1,66,127,0
1,66,0,154
1,62,0,10
1,57,0,170
1,69,123,50
1,62,127,0
1,49,87,192
1,69,0,130
1,62,0,86
1,64,117,0
1,61,127,0
1,57,87,0
1,57,0,168
1,49,0,34
1,52,100,182
1,61,0,20
1,64,0,32
1,61,127,140
1,61,0,248
1,52,0,134
1,64,120,2
1,64,0,142
1,49,92,50
1,61,125,0
1,49,0,154
1,61,0,42
1,69,117,0
1,69,0,286
1,68,127,98
1,49,33,0
1,57,61,0
1,57,0,174
1,68,0,114
1,49,0,20
1,66,127,76
1,57,117,0
1,57,0,110
1,66,0,52
1,64,127,222
1,52,82,0
1,59,120,384
1,64,0,18
1,68,127,174
1,68,0,172
1,59,0,208
1,71,113,4
1,52,0,128
1,71,0,40
1,64,99,24
1,59,111,0
1,59,0,158
1,50,86,34
1,64,0,8
1,62,127,0
1,50,0,316
1,62,0,42
1,57,72,26
1,62,126,192
1,57,0,114
1,62,0,72
1,57,87,6
1,57,0,138
1,69,113,54
1,62,99,192
1,69,0,140
1,62,0,8
1,50,104,44
1,57,91,0
1,50,0,86
1,64,78,106
1,69,127,192
1,69,0,138
1,76,117,54
1,73,127,192
1,76,0,2
1,73,0,158
1,57,0,18
1,64,0,14
1,69,103,0
1,69,0,106
1,50,106,86
1,66,127,0
1,62,127,0
1,57,86,0
1,62,0,80
1,66,0,40
1,62,113,72
1,66,127,0
1,62,0,178
1,66,0,32
1,62,73,174
1,69,123,0
1,62,0,58
1,66,107,134
1,69,0,28
1,50,0,84
1,66,0,16
1,62,53,64
1,57,0,58
1,62,0,8
1,64,127,126
1,68,40,0
1,52,108,0
1,59,111,0
1,68,0,34
1,64,0,48
1,64,120,110
1,68,127,0
1,64,0,156
1,68,0,22
1,64,127,206
1,71,127,0
1,69,103,192
1,71,0,36
1,59,0,146
1,68,127,10
1,69,0,14
1,52,0,16
1,68,0,66
1,64,0,20
1,50,91,0
1,62,108,0
1,50,0,314
1,62,0,64
1,57,83,6
1,66,127,192
1,62,113,0
1,66,0,154
1,62,0,10
1,57,0,170
1,69,123,50
1,62,127,0
1,49,87,192
1,69,0,130
1,62,0,86
1,61,127,0
1,57,87,0
1,64,117,0
1,57,0,168
1,49,0,34
1,52,100,182
1,61,0,20
1,64,0,32
1,61,127,140
1,61,0,248
1,52,0,134
1,64,120,2
1,64,0,142
1,49,92,50
1,61,125,0
1,49,0,154
1,61,0,42
1,69,117,188
1,69,0,286
1,49,33,98
1,57,61,0
1,68,127,0
1,57,0,174
1,68,0,114
1,49,0,20
1,57,117,76
1,66,127,0
1,57,0,110
1,66,0,52
1,52,82,222
1,64,127,0
1,59,120,384
1,64,0,18
1,68,127,174
1,68,0,172
1,59,0,208
1,71,113,4
1,52,0,128
1,71,0,40
1,64,99,24
1,59,111,0
1,59,0,158
1,50,86,34
1,64,0,8
1,62,127,0
1,50,0,316
1,62,0,42
1,57,72,26
1,62,126,192
1,57,0,114
1,62,0,72
1,57,87,6
1,57,0,138
1,69,113,54
1,62,99,192
1,69,0,140
1,62,0,8
1,50,104,44
1,57,89,0
1,50,0,86
1,64,56,106
1,69,123,192
1,69,0,170
1,76,108,22
1,76,0,170
1,73,107,22
1,73,0,130
1,69,91,62
1,69,0,156
1,73,127,36
1,64,0,16
1,57,0,8
1,73,0,104
1,69,127,256
1,45,86,0
1,64,57,0
1,52,78,0
