track,note,velocity,time
1,73,90,11908
1,69,90,0
1,69,90,0
1,69,90,0
1,69,90,0
1,71,90,108
1,69,90,0
1,67,90,0
1,74,90,0
1,73,90,112
1,74,90,0
1,73,90,108
1,71,90,0
1,71,90,0
1,69,90,0
1,69,90,628
1,71,90,84
1,73,90,88
1,74,90,172
1,73,90,0
1,71,90,0
1,69,90,0
1,69,90,0
1,69,90,0
1,69,90,0
1,71,90,0
1,69,90,0
1,67,90,0
1,74,90,0
1,73,90,180
1,74,90,0
1,76,90,112
1,73,90,0
1,71,90,0
1,69,90,0
1,69,90,516
1,69,90,0
1,79,90,0
1,78,90,96
1,76,90,0
1,78,90,112
1,79,90,0
1,78,90,304
1,71,90,76
1,74,90,120
1,74,90,340
1,73,90,196
1,73,90,0
1,74,90,108
1,73,90,92
1,71,90,0
1,69,90,0
1,69,90,504
1,69,90,0
1,79,90,0
1,78,90,108
1,76,90,88
1,78,90,0
1,79,90,0
1,78,90,0
1,71,90,76
1,74,90,116
1,76,90,204
1,78,90,100
1,79,90,0
1,78,90,188
1,76,90,0
1,74,90,168
1,76,90,180
1,78,60,972
1,69,90,0
1,69,90,0
1,74,90,192
1,74,90,0
1,76,90,188
1,76,90,0
1,78,90,260
1,78,90,0
1,74,90,712
1,73,90,96
1,73,90,0
1,74,90,92
1,73,90,0
1,71,90,0
1,69,90,0
1,69,90,492
1,69,90,0
1,69,90,0
1,74,90,0
1,76,90,108
1,81,90,0
1,78,90,260
1,79,90,240
1,78,90,32
1,76,90,284
1,76,90,0
1,78,90,0
1,79,90,116
1,78,90,260
1,76,90,0
1,74,90,0
1,76,90,132
1,69,90,376
1,69,90,0
1,69,90,0
1,74,90,0
1,76,90,0
1,81,90,0
1,83,90,192
1,78,90,188
1,79,90,188
1,78,90,64
1,76,90,76
1,74,90,60
1,81,90,216
1,81,90,0
1,83,90,0
1,81,90,100
1,76,90,0
1,76,90,0
1,74,90,0
1,69,90,224
1,69,90,0
1,74,90,0
1,74,90,0
1,76,90,112
1,76,90,0
1,78,90,192
1,78,90,0
1,69,90,0
1,69,90,0
1,74,90,0
1,74,90,0
1,76,90,188
1,76,90,0
1,67,90,0
1,67,90,0
1,69,90,192
1,69,90,0
1,73,90,196
1,73,90,0
1,74,90,132
1,74,90,0
1,73,90,1040
1,71,90,192
1,71,90,0
1,69,90,0
1,69,90,0
1,69,90,0
1,69,90,0
1,71,90,184
1,69,90,0
1,67,90,108
1,74,90,0
1,73,90,0
1,74,90,120
1,73,90,144
1,71,90,0
1,71,90,0
1,69,90,112
1,69,90,372
1,71,90,0
1,73,90,0
1,74,90,124
1,73,90,0
1,71,90,0
1,69,90,0
1,69,90,0
1,69,90,0
1,69,90,0
1,71,90,0
1,69,90,0
1,67,90,0
1,74,90,0
1,73,90,0
1,74,90,112
1,76,90,0
1,73,90,0
1,71,90,208
1,69,90,140
1,69,90,272
1,69,90,0
1,79,90,0
1,78,90,0
1,76,90,0
1,79,90,280
1,78,90,0
1,71,90,0
1,74,90,176
1,69,90,340
1,69,90,0
1,73,90,100
1,74,90,196
1,73,90,0
1,71,90,0
1,69,90,192
1,69,90,248
1,79,90,0
1,78,90,96
1,76,90,0
1,78,90,108
1,79,90,168
1,78,90,0
1,71,90,124
1,74,90,0
1,76,60,868
1,78,60,20
1,76,90,0
1,78,90,104
1,79,90,0
1,78,90,204
1,76,90,0
1,74,90,164
1,76,90,148
1,69,90,228
1,69,90,0
1,74,90,0
1,74,90,0
1,76,90,200
1,76,90,0
1,78,90,288
1,78,90,0
1,74,90,552
1,73,90,0
1,73,90,0
1,74,90,96
1,73,90,0
1,71,90,0
1,69,90,0
1,69,90,404
1,69,90,0
1,69,90,0
1,74,90,0
1,76,90,112
1,81,90,0
1,78,90,0
1,79,90,168
1,78,90,64
1,76,60,620
1,74,60,0
1,76,90,0
1,76,90,0
1,78,90,108
1,79,90,128
1,78,90,268
1,76,90,192
1,74,90,160
1,76,90,184
1,69,90,260
1,69,90,0
1,69,90,0
1,74,90,0
1,76,90,100
1,81,90,0
1,83,90,0
1,78,90,172
1,79,90,196
1,78,90,76
1,76,90,64
1,74,90,68
1,76,90,96
1,74,90,36
1,81,90,232
1,81,90,0
1,83,90,100
1,81,90,96
1,76,90,0
1,76,90,0
1,74,90,148
1,69,90,384
1,69,90,0
1,74,90,0
1,74,90,0
1,76,90,100
1,76,90,0
1,78,90,168
1,78,90,0
1,69,90,0
1,69,90,0
1,74,90,0
1,74,90,0
1,76,90,184
1,76,90,0
1,67,90,0
1,67,90,0
1,69,90,0
1,69,90,0
1,73,90,0
1,73,90,0
1,74,90,264
1,74,90,0
1,69,90,360
1,69,90,0
1,74,90,0
1,74,90,0
1,76,90,116
1,76,90,0
1,78,90,172
1,78,90,0
1,69,90,0
1,69,90,0
1,74,90,0
1,74,90,0
1,76,90,276
1,76,90,0
1,67,90,0
1,67,90,0
1,69,90,0
1,69,90,0
1,73,90,212
1,73,90,0
1,74,90,208
1,74,90,0
2,42,90,12288
2,42,90,1052
2,43,90,96
2,42,90,1152
2,42,90,1060
2,45,90,0
2,42,90,1152
2,42,90,1060
2,43,90,0
2,42,90,1148
2,42,90,1056
2,45,90,4
2,43,90,1156
2,43,90,1056
2,45,90,96
2,42,90,1156
2,42,90,1052
2,45,90,96
2,43,90,1152
2,38,90,1060
2,43,90,0
2,45,90,1152
2,40,90,1060
2,45,90,4
2,43,90,1148
2,43,90,196
2,43,90,196
2,45,90,288
2,45,90,196
2,45,90,192
2,38,90,284
2,38,90,192
2,38,90,196
2,33,90,0
2,38,90,0
2,38,90,196
2,38,90,192
2,38,90,96
2,40,90,0
2,43,90,96
2,43,90,196
2,43,90,192
2,43,90,292
2,43,90,192
2,43,90,196
2,45,90,96
2,45,90,100
2,45,90,192
2,45,90,188
2,45,90,192
2,45,90,196
2,43,90,0
2,43,90,196
2,43,90,196
2,45,90,96
2,45,90,192
2,45,90,188
2,47,90,0
2,45,90,0
2,50,90,0
2,43,90,0
2,38,90,1536
2,45,90,0
2,38,90,4
2,42,90,4
2,42,90,1060
2,43,90,0
2,42,90,1152
2,42,90,1060
2,45,90,4
2,42,90,1148
2,42,90,1056
2,43,90,96
2,42,90,1156
2,42,90,1056
2,45,90,96
2,43,90,1156
2,43,90,1060
2,45,90,0
2,42,90,1152
2,42,90,1060
2,45,90,96
2,43,90,1152
2,38,90,1056
2,43,90,96
2,45,90,1156
2,40,90,1056
2,45,90,96
2,43,90,1156
2,43,90,196
2,43,90,192
2,45,90,292
2,45,90,196
2,45,90,196
2,38,90,288
2,38,90,196
2,38,90,192
2,33,90,0
2,38,90,0
2,38,90,192
2,38,90,196
2,38,90,96
2,40,90,4
2,43,90,92
2,43,90,196
2,43,90,192
2,43,90,284
2,43,90,192
2,43,90,196
2,45,90,100
2,45,90,100
2,45,90,192
2,45,90,192
2,45,90,196
2,45,90,192
2,43,90,0
2,43,90,192
2,43,90,192
2,45,90,100
2,45,90,196
2,45,90,192
2,47,90,960
2,45,90,0
2,50,90,0
2,43,90,0
2,38,90,1536
2,45,90,0
2,38,90,0
2,38,90,8
2,45,90,0
2,50,90,0
2,50,90,388
3,74,70,36868
3,57,80,188
3,59,80,4
3,62,80,96
3,66,80,96
3,67,80,0
3,66,80,96
3,62,80,0
3,57,80,0
3,74,70,4
3,74,70,196
3,57,80,96
3,59,80,0
3,62,80,0
3,66,80,0
3,66,80,0
3,67,80,0
3,69,80,0
3,67,80,0
3,66,80,0
3,74,70,180
3,57,80,0
3,59,80,0
3,62,80,4
3,66,80,4
3,67,80,0
3,66,80,96
3,62,80,0
3,57,80,0
3,74,70,0
3,74,70,196
3,57,80,96
3,59,80,0
3,62,80,0
3,66,80,0
3,66,80,96
3,62,80,96
3,59,80,0
3,66,80,0
3,62,80,0
3,59,80,0
3,74,70,100
3,57,80,0
3,59,80,0
3,62,80,0
3,66,80,0
3,67,80,0
3,66,80,0
3,62,80,0
3,57,80,0
3,74,70,0
3,74,70,196
3,57,80,96
3,59,80,4
3,62,80,0
3,66,80,0
3,66,80,0
3,67,80,0
3,69,80,4
3,67,80,0
3,66,80,0
3,74,70,196
3,57,80,96
3,59,80,0
3,62,80,0
3,66,80,0
3,67,80,0
3,66,80,4
3,62,80,0
3,59,80,0
3,74,70,4
3,74,70,192
3,57,80,0
3,59,80,0
3,62,80,4
3,66,80,4
3,66,80,96
3,62,80,96
3,59,80,0
3,66,80,0
3,62,80,0
3,59,80,92
3,74,70,96
3,57,80,96
3,59,80,0
3,62,80,0
3,66,80,0
3,67,80,0
3,66,80,0
3,62,80,0
3,59,80,0
3,74,70,0
3,74,70,196
3,57,80,96
3,59,80,0
3,62,80,0
3,66,80,0
3,66,80,96
3,67,80,0
3,69,80,0
3,67,80,92
3,66,80,0
3,57,80,380
3,59,80,4
3,62,80,0
3,66,80,0
3,67,80,0
3,66,80,96
3,62,80,0
3,59,80,0
3,57,80,0
3,59,80,0
3,54,80,0
3,57,80,0
3,52,80,0
3,54,80,0
3,50,80,0
3,57,80,0
3,62,80,0
3,64,80,0
3,66,80,0
3,69,80,0
3,71,80,0
3,74,80,0
3,57,80,0
3,64,80,0
3,69,80,0
3,67,80,0
3,71,80,0
3,74,80,0
3,69,80,0
3,73,80,0
3,62,80,4
3,64,80,4
3,66,80,0
3,69,80,0
3,74,80,0
3,71,80,476
3,69,80,0
3,62,80,192
3,64,80,0
3,66,80,0
3,69,80,0
3,74,80,0
3,69,85,12324
3,81,85,0
3,69,85,0
3,81,85,0
3,69,85,0
3,81,85,4
3,69,85,0
3,81,85,0
3,69,85,1532
3,81,85,0
3,69,85,0
3,81,85,0
3,69,85,0
3,81,85,0
3,69,70,2208
3,81,70,0
3,69,70,0
3,81,70,0
3,69,70,0
3,81,70,0
3,74,70,0
3,57,80,0
3,59,80,0
3,62,80,96
3,66,80,96
3,67,80,0
3,66,80,0
3,62,80,0
3,57,80,0
3,74,70,0
3,74,70,196
3,57,80,96
3,59,80,0
3,62,80,0
3,66,80,0
3,66,80,0
3,67,80,0
3,69,80,4
3,67,80,0
3,66,80,0
3,74,70,196
3,57,80,0
3,59,80,0
3,62,80,0
3,66,80,0
3,67,80,0
3,66,80,0
3,62,80,0
3,57,80,0
3,74,70,0
3,74,70,192
3,57,80,0
3,59,80,4
3,62,80,0
3,66,80,0
3,66,80,92
3,62,80,96
3,59,80,4
3,66,80,0
3,62,80,96
3,59,80,4
3,74,70,96
3,57,80,96
3,59,80,0
3,62,80,0
3,66,80,0
3,67,80,0
3,66,80,0
3,62,80,0
3,57,80,4
3,74,70,0
3,74,70,192
3,57,80,0
3,59,80,0
3,62,80,4
3,66,80,4
3,66,80,0
3,67,80,4
3,69,80,0
3,67,80,0
3,66,80,96
3,74,70,192
3,57,80,96
3,59,80,0
3,62,80,0
3,66,80,0
3,67,80,0
3,66,80,0
3,62,80,0
3,59,80,4
3,74,70,0
3,74,70,196
3,57,80,96
3,59,80,0
3,62,80,0
3,66,80,0
3,66,80,96
3,62,80,96
3,59,80,96
3,66,80,0
3,62,80,96
3,59,80,0
3,74,70,100
3,57,80,0
3,59,80,4
3,62,80,0
3,66,80,0
3,67,80,0
3,66,80,96
3,62,80,0
3,59,80,0
3,74,70,0
3,74,70,196
3,57,80,96
3,59,80,0
3,62,80,0
3,66,80,0
3,66,80,96
3,67,80,0
3,69,80,0
3,67,80,0
3,66,80,0
3,57,80,0
3,59,80,0
3,62,80,4
3,66,80,4
3,67,80,4
3,66,80,92
3,62,80,92
3,59,80,0
3,57,80,0
3,59,80,0
3,54,80,0
3,57,80,0
3,52,80,0
3,54,80,0
3,50,80,0
3,57,80,4
3,62,80,4
3,64,80,0
3,66,80,4
3,69,80,4
3,71,80,0
3,74,80,0
3,57,80,388
3,64,80,0
3,69,80,0
3,67,80,0
3,71,80,0
3,74,80,0
3,69,80,0
3,73,80,0
3,62,80,0
3,64,80,0
3,66,80,0
3,69,80,0
3,74,80,0
3,71,80,0
3,69,80,188
3,62,80,192
3,64,80,4
3,66,80,4
3,69,80,4
3,74,80,0
3,71,80,0
3,69,80,192
3,50,80,0
3,57,80,0
3,62,80,0
3,64,80,0
3,66,80,0
3,69,80,4
3,71,80,0
3,74,80,96
3,57,80,0
3,64,80,0
3,69,80,0
3,67,80,0
3,71,80,0
3,74,80,0
3,67,80,0
3,73,80,0
3,62,80,0
3,64,80,48
3,66,80,144
3,69,80,48
3,74,80,48
3,66,80,240
3,71,80,48
3,69,80,48
3,66,80,52
3,69,80,0
3,74,80,0
4,66,100,8160
4,67,100,0
4,71,100,0
4,74,100,4
4,57,100,112
4,64,100,0
4,73,100,0
4,69,100,0
4,57,100,112
4,64,100,0
4,69,100,96
4,73,100,96
4,64,100,136
4,69,100,0
4,71,100,92
4,73,100,96
4,69,100,192
4,81,100,100
4,78,100,100
4,74,100,192
4,69,100,188
4,81,100,72
4,78,100,96
4,74,100,188
4,69,100,192
4,81,100,88
4,78,100,96
4,74,100,192
4,69,100,192
4,81,100,92
4,79,100,96
4,76,100,192
4,69,100,192
4,81,100,14036
4,78,100,96
4,74,100,180
4,69,100,192
4,78,100,868
4,74,100,188
4,78,100,192
4,69,100,100
4,57,100,84
4,64,100,0
4,69,100,96
4,73,100,96
4,64,100,76
4,69,100,4
4,71,100,92
4,73,100,92
4,69,100,188
4,81,100,60
4,78,100,96
4,74,100,192
4,69,100,192
4,81,100,72
4,78,100,96
4,74,100,192
4,69,100,192
4,81,100,40
4,78,100,96
4,74,100,192
4,69,100,188
4,81,100,132
4,79,100,96
4,76,100,192
4,69,100,188
4,81,100,1560
4,78,100,100
4,74,100,192
4,69,100,192
4,78,100,116
4,74,100,192
4,69,100,192
4,81,100,132
4,78,100,96
4,74,100,192
4,69,100,188
4,78,100,204
4,74,100,192
4,71,100,192
4,69,100,12
4,81,100,480
4,78,100,96
4,74,100,192
4,69,100,196
4,78,100,0
4,74,100,192
4,69,100,192
4,81,100,68
4,78,100,96
4,74,100,192
4,69,100,192
4,81,100,564
4,79,100,96
4,76,100,192
4,69,100,192
4,81,100,564
4,78,100,100
4,74,100,192
4,69,100,188
4,78,100,44
4,74,100,192
4,78,100,192
4,69,100,24
5,69,75,6144
5,73,75,4
5,78,75,0
5,69,75,188
5,73,75,0
5,78,75,0
5,69,75,192
5,78,75,0
5,73,75,0
5,69,75,188
5,73,75,4
5,78,75,0
5,74,75,188
5,71,75,0
5,78,75,0
5,71,75,192
5,78,75,0
5,74,75,4
5,74,75,188
5,71,75,0
5,78,75,0
5,71,75,192
5,74,75,4
5,78,75,0
5,69,75,188
5,73,75,4
5,78,75,0
5,69,75,188
5,73,75,0
5,78,75,4
5,69,75,188
5,78,75,0
5,73,75,0
5,69,75,188
5,78,75,0
5,73,75,0
5,69,75,188
5,76,75,0
5,73,75,0
5,69,75,188
5,76,75,0
5,73,75,4
5,69,75,188
5,76,75,0
5,73,75,0
5,69,75,188
5,76,75,0
5,73,75,0
5,69,75,192
5,73,75,0
5,78,75,0
5,78,75,196
5,69,75,0
5,73,75,0
5,69,75,188
5,78,75,4
5,73,75,0
5,69,75,188
5,73,75,0
5,78,75,4
5,74,75,188
5,71,75,4
5,78,75,0
5,74,75,192
5,71,75,0
5,78,75,4
5,71,75,192
5,78,75,0
5,74,75,0
5,74,75,188
5,71,75,4
5,78,75,0
5,69,75,196
5,73,75,0
5,78,75,0
5,69,75,192
5,78,75,0
5,73,75,0
5,69,75,192
5,73,75,0
5,78,75,0
5,69,75,196
5,78,75,0
5,73,75,0
5,69,75,192
5,73,75,0
5,76,75,0
5,69,75,188
5,73,75,0
5,76,75,4
5,73,75,188
5,69,75,0
5,76,75,0
5,69,75,188
5,73,75,4
5,76,75,0
5,69,75,188
5,78,75,0
5,73,75,4
5,78,75,188
5,73,75,0
5,69,75,0
5,69,75,188
5,73,75,0
5,78,75,0
5,69,75,192
5,73,75,4
5,78,75,0
5,74,75,196
5,71,75,0
5,78,75,0
5,71,75,196
5,74,75,0
5,78,75,0
