track,note,velocity,time
3,39,122,2047
3,39,123,39
3,39,121,44
3,39,123,40
3,39,122,41
3,39,121,39
3,39,125,38
3,39,123,45
3,39,121,40
3,39,124,39
3,39,121,40
3,39,121,40
3,39,124,40
3,39,123,39
3,39,124,40
3,39,124,45
3,39,121,43
3,39,125,41
3,39,123,43
3,39,121,40
3,39,125,40
3,39,121,44
3,39,124,43
3,39,124,40
3,39,121,43
3,39,124,40
3,39,121,43
3,39,122,40
3,39,121,40
3,39,124,45
3,39,125,39
3,34,113,3
3,32,117,92
3,31,117,86
3,29,116,78
3,34,114,65
3,34,117,55
3,32,113,14
3,33,117,14
3,34,116,18
3,34,114,301
3,34,114,60
3,32,117,12
3,33,116,19
3,34,113,8
3,39,113,286
3,37,114,100
3,36,114,80
3,34,116,105
3,30,116,7
3,30,115,80
3,30,116,23
3,30,115,48
3,30,115,52
3,35,114,236
3,37,113,2
3,30,115,2
3,30,114,76
3,30,114,23
3,30,115,42
3,30,115,48
3,34,116,323
3,32,116,96
3,31,117,73
3,29,114,75
3,34,115,72
3,34,116,65
3,32,114,8
3,33,114,24
3,34,115,33
3,34,115,114
3,34,113,9
3,32,117,92
3,31,117,86
3,29,116,76
3,34,114,64
3,34,117,56
3,32,113,13
3,33,117,13
3,34,116,16
3,34,114,302
3,34,114,60
3,32,117,16
3,33,116,15
3,34,113,6
3,39,113,288
3,37,114,100
3,36,114,80
3,34,116,104
3,30,116,8
3,30,115,78
3,30,116,23
3,30,115,48
3,30,115,52
3,30,115,333
3,30,114,72
3,30,114,20
3,30,115,45
3,30,115,48
3,34,116,322
3,32,116,95
3,31,117,72
3,29,114,77
3,34,115,71
3,34,116,64
3,32,114,10
3,33,114,24
3,34,115,31
3,34,113,306
3,32,117,96
3,31,117,84
3,29,116,76
3,34,114,64
3,34,117,56
3,32,113,12
3,33,117,12
3,34,116,21
3,34,114,300
3,34,114,61
3,32,117,12
3,33,116,16
3,34,113,9
3,39,113,287
3,37,114,100
3,36,114,80
3,34,116,103
3,30,116,7
3,30,115,80
3,30,116,23
3,30,115,48
3,30,115,52
3,35,114,238
3,37,113,1
3,30,115,3
3,30,114,74
3,30,114,24
3,30,115,42
3,30,115,46
3,34,116,324
3,32,116,95
3,31,117,72
3,29,114,76
3,34,115,73
3,34,116,63
3,32,114,10
3,33,114,24
3,34,115,31
3,34,115,116
3,32,114,9
3,37,113,214
3,39,116,23
3,37,116,21
3,39,115,26
3,37,114,1
3,36,116,0
3,34,113,5
3,32,114,0
3,34,115,51
3,39,115,5
3,36,114,88
3,34,117,1
3,32,113,8
3,34,114,33
3,36,117,8
3,29,114,4
3,37,115,25
3,39,124,21
3,39,121,38
3,39,125,42
3,39,125,43
3,39,125,39
3,39,125,39
3,39,125,40
3,39,125,42
3,39,124,40
3,39,124,40
3,39,124,40
3,39,123,43
3,39,122,39
3,39,122,38
3,39,121,43
3,39,123,43
3,39,122,43
3,39,125,43
3,39,125,40
3,39,124,40
3,39,121,40
3,39,123,44
3,39,124,45
3,39,125,40
3,39,123,42
3,39,123,44
3,39,121,41
3,39,121,40
3,39,122,42
3,39,123,42
3,39,121,39
3,34,113,3
3,32,117,94
3,31,117,88
3,29,116,76
3,34,114,64
3,34,117,57
3,32,113,12
3,33,117,12
3,34,116,20
3,34,114,301
3,34,114,61
3,32,117,12
3,33,116,16
3,34,113,8
3,39,113,287
3,37,114,103
3,36,114,79
3,34,116,104
3,30,116,7
3,30,115,79
3,30,116,24
3,30,115,47
3,30,115,52
3,35,114,239
3,37,113,3
3,30,115,3
3,30,114,72
3,30,114,24
3,30,115,43
3,30,115,48
3,34,116,325
3,32,116,94
3,31,117,72
3,29,114,76
3,34,115,73
3,34,116,63
3,32,114,6
3,33,114,27
3,34,115,31
3,34,117,308
3,32,116,92
3,31,113,87
3,29,113,79
3,34,115,63
3,34,116,56
3,32,117,14
3,33,114,12
3,34,115,18
3,34,117,298
3,34,115,63
3,32,117,15
3,33,116,15
3,34,116,8
3,36,116,191
3,37,113,15
3,39,113,11
3,37,117,102
3,36,115,81
3,34,113,102
3,30,115,7
3,30,115,80
3,30,114,20
3,30,117,48
3,30,116,55
3,30,113,333
3,30,117,73
3,30,114,20
3,30,115,43
3,30,114,48
3,34,115,323
3,32,117,97
3,31,117,71
3,29,116,76
3,34,115,72
3,34,114,64
3,32,115,11
3,33,114,23
3,34,114,30
3,34,116,311
3,32,117,92
3,31,117,86
3,29,116,78
3,34,116,65
3,34,115,55
3,32,115,14
3,33,117,14
3,34,115,18
3,34,115,301
3,34,115,60
3,32,116,12
3,33,117,19
3,34,117,8
3,36,115,190
3,37,116,12
3,39,117,14
3,37,115,100
3,36,116,80
3,34,113,105
3,30,117,7
3,30,116,80
3,30,115,23
3,30,117,48
3,30,116,52
3,35,115,236
3,37,113,11
3,30,117,5
3,30,115,76
3,30,115,23
3,30,117,42
3,30,114,48
3,34,115,323
3,32,115,96
3,31,115,73
3,29,117,75
3,34,116,72
3,34,113,65
3,32,117,8
3,33,115,24
3,34,114,33
3,39,113,213
3,36,116,8
3,32,114,9
3,37,115,214
3,39,116,20
3,37,113,24
3,39,114,24
3,36,114,48
3,34,113,6
3,32,113,3
3,44,115,15
3,39,117,68
3,32,116,184
3,34,117,34
3,36,116,8
3,29,114,4
3,37,114,24
3,39,121,23
3,39,124,38
3,39,122,44
3,39,122,40
3,39,123,39
3,39,123,40
3,39,121,40
3,39,122,44
3,39,124,39
3,39,124,38
3,39,124,43
3,39,125,41
3,39,124,39
3,39,122,40
3,39,124,40
3,39,125,43
3,39,124,44
3,39,122,42
3,39,123,41
3,39,124,39
3,39,121,40
3,39,121,47
3,39,124,43
3,39,124,40
3,39,125,44
3,39,121,40
3,39,123,40
3,39,125,42
3,39,122,40
3,39,124,44
3,39,124,38
3,34,115,4
3,32,113,92
3,31,113,87
3,29,113,76
3,34,115,65
3,34,115,55
3,32,117,10
3,33,114,16
3,34,116,17
3,46,114,3
3,34,113,12
3,32,117,95
3,31,117,84
3,29,116,78
3,34,114,64
3,34,117,56
3,32,113,15
3,33,117,12
3,34,116,17
3,34,114,303
3,34,114,58
3,32,117,16
3,33,116,16
3,34,113,8
3,39,113,289
3,37,114,100
3,36,114,80
3,34,116,103
3,30,116,8
3,30,115,78
3,30,116,20
3,30,115,51
3,30,115,53
3,35,114,236
3,37,113,46
3,30,115,6
3,30,114,75
3,30,114,20
3,30,115,45
3,30,115,47
3,34,115,324
3,34,116,64
3,32,114,10
3,33,114,24
3,34,115,31
3,34,115,306
3,34,116,66
3,32,114,9
3,33,114,23
3,34,115,32
3,34,115,116
3,34,115,8
3,32,113,94
3,31,117,88
3,29,113,76
3,34,113,64
3,34,114,57
3,32,114,12
3,33,115,12
3,34,116,20
3,34,116,301
3,34,115,61
3,32,116,12
3,33,117,16
3,34,114,8
3,36,117,192
3,37,117,8
3,39,116,8
3,37,116,103
3,36,113,79
3,34,114,104
3,30,115,7
3,30,113,79
3,30,114,24
3,30,116,47
3,30,113,52
3,35,117,239
3,37,114,3
3,30,115,3
3,30,114,72
3,30,115,24
3,30,114,43
3,30,114,48
3,34,117,325
3,32,113,94
3,31,117,72
3,29,117,76
3,34,114,73
3,34,113,63
3,32,115,6
3,33,116,27
3,34,116,31
3,34,117,48
3,32,116,92
3,31,114,87
3,29,114,79
3,34,116,63
3,34,117,56
3,32,115,14
3,33,113,12
3,34,117,18
3,34,115,298
3,34,116,63
3,32,116,15
3,33,117,15
3,34,117,8
3,36,116,191
3,37,113,11
3,39,114,8
3,37,117,102
3,36,116,81
3,34,116,102
3,30,117,7
3,30,116,80
3,30,116,20
3,30,114,48
3,30,115,55
3,35,117,237
3,37,117,0
3,30,116,5
3,30,113,73
3,30,116,20
3,30,115,43
3,30,115,48
3,34,114,323
3,32,117,97
3,31,114,71
3,29,115,76
3,34,114,72
3,34,116,64
3,32,116,11
3,33,115,23
3,34,115,30
3,51,104,125
3,46,107,0
3,39,122,4
3,39,123,39
3,39,121,44
3,39,123,40
3,39,122,39
3,39,121,41
3,39,125,39
3,39,123,41
3,39,121,43
3,39,124,40
3,39,121,39
3,39,121,42
3,39,124,40
3,39,123,39
3,39,124,40
3,39,124,43
3,39,121,45
3,39,125,40
3,39,123,38
3,39,121,43
3,39,125,41
3,39,121,43
3,39,124,44
3,39,124,40
3,39,121,43
3,39,124,40
3,39,121,40
3,39,122,44
3,39,121,40
3,39,124,41
3,39,125,41
3,34,113,3
3,32,117,92
4,70,62,78
4,79,63,0
4,73,63,1
4,75,67,2
4,73,68,11
4,79,63,1
4,75,62,0
4,82,64,0
4,75,59,12
4,82,67,2
4,79,67,2
4,85,68,0
4,85,61,8
4,82,59,3
4,79,62,1
4,87,67,0
4,82,63,11
4,87,68,2
4,77,61,4
4,89,63,863
4,85,61,2
4,82,64,2
4,90,59,860
4,87,60,4
4,82,65,1
4,89,62,862
4,85,59,2
4,82,60,2
4,84,59,13153
4,87,63,3
4,92,63,0
4,89,68,11
4,85,66,0
4,80,61,0
4,79,60,18
4,82,67,6
4,87,68,0
4,85,68,22
4,89,61,0
4,80,61,2
4,87,66,22
4,79,68,2
4,82,65,2
4,92,67,23
4,84,61,2
4,87,67,0
4,77,66,15
4,73,64,2
4,80,66,1
4,75,59,18
4,79,61,0
4,82,62,3
4,80,66,19
4,77,61,3
4,85,67,2
4,79,63,24
4,82,65,1
4,87,68,1
4,84,61,24
4,92,66,4
4,87,64,2
4,84,59,20
4,80,59,4
4,89,62,0
4,80,62,30
4,85,65,0
4,77,64,2
4,70,66,16
4,75,65,0
4,73,64,0
4,79,62,2
4,79,67,10
4,82,64,1
4,75,68,2
4,73,63,0
4,79,60,16
4,82,65,0
4,85,65,0
4,75,64,2
4,85,68,10
4,87,63,1
4,79,59,4
4,82,66,0
4,77,67,9
4,87,68,4
4,82,66,2
4,85,59,861
4,89,60,0
4,82,62,4
4,87,67,863
4,90,63,2
4,82,59,6
4,85,66,860
4,89,67,2
4,82,66,2
4,92,53,13152
4,87,50,1
4,84,54,3
4,89,54,11
4,80,58,0
4,85,49,0
4,87,53,18
4,79,49,1
4,82,50,2
4,80,55,17
4,85,56,3
4,89,52,0
4,87,51,24
4,79,49,0
4,82,56,0
4,92,51,25
4,84,49,1
4,87,49,0
4,80,53,15
4,77,50,1
4,73,54,6
4,82,54,16
4,79,50,4
4,75,49,2
4,80,50,17
4,85,58,0
4,77,57,2
4,87,56,20
4,79,54,2
4,82,53,0
4,84,58,24
4,87,49,0
4,92,52,1
4,89,54,25
4,80,56,2
4,84,51,2
4,77,52,23
4,80,54,3
4,85,49,2
4,79,57,12
4,70,52,2
4,73,52,2
4,75,49,2
4,82,50,11
4,73,52,2
4,75,58,0
4,79,53,2
4,75,54,9
4,79,58,0
4,82,51,0
4,85,58,4
4,87,52,10
4,85,49,1
4,79,51,1
4,82,58,4
4,77,53,13
4,87,55,0
4,82,56,2
4,77,67,5469
4,82,68,1
4,87,67,5
4,85,61,860
4,82,60,0
4,89,62,2
4,90,59,864
4,82,68,3
4,87,67,3
4,85,60,862
4,89,64,0
4,82,59,1
4,77,65,865
4,82,60,5
4,87,65,0
4,89,67,860
4,82,66,0
4,85,68,4
4,90,67,864
4,82,60,2
4,87,60,0
4,89,59,864
4,82,66,4
4,85,61,0
4,82,61,863
4,77,65,3
4,87,68,0
4,85,66,863
4,89,63,3
4,82,65,1
4,90,66,865
4,87,68,1
4,82,66,5
4,89,59,863
4,82,64,1
4,85,67,0
4,73,52,862
4,75,51,0
4,79,56,3
4,70,56,3
4,82,54,8
4,75,52,1
4,73,51,3
4,79,51,2
4,79,55,9
4,75,54,4
4,82,49,0
4,85,52,0
4,79,56,11
4,82,56,2
4,87,52,0
4,85,50,0
4,84,50,13
4,87,50,0
4,77,61,5
5,55,107,1975
5,61,107,0
5,63,101,0
5,63,71,32
5,55,67,2
5,61,75,0
5,61,68,29
5,55,73,0
5,63,72,2
5,63,66,27
5,55,74,2
5,61,70,0
5,55,66,32
5,61,72,0
5,63,68,0
5,55,69,32
5,61,67,0
5,63,72,2
5,61,70,29
5,55,71,2
5,63,70,0
5,63,74,26
5,55,71,3
5,61,71,0
5,55,99,28
5,61,103,0
5,63,99,4
5,63,66,28
5,55,70,4
5,61,72,0
5,63,70,30
5,61,68,2
5,55,70,0
5,63,75,30
5,55,68,2
5,61,71,0
5,63,73,30
5,55,72,2
5,61,71,0
5,55,66,28
5,61,70,4
5,63,71,0
5,55,68,32
5,61,71,2
5,63,71,0
5,55,67,26
5,61,72,0
5,63,70,3
5,61,102,32
5,55,107,0
5,63,102,2
5,61,71,26
5,55,71,1
5,63,73,2
5,55,74,30
5,61,74,2
5,63,70,0
5,55,70,28
5,61,68,0
5,63,66,0
5,63,72,35
5,55,72,2
5,61,71,0
5,61,71,25
5,55,70,1
5,63,69,3
5,61,68,28
5,63,74,4
5,55,69,2
5,63,67,27
5,55,70,4
5,61,73,0
5,61,98,25
5,63,99,4
5,55,99,0
5,55,75,32
5,61,71,0
5,63,68,0
5,61,71,32
5,63,72,0
5,55,71,2
5,55,69,27
5,61,68,2
5,63,73,0
5,63,71,29
5,61,73,3
5,55,66,0
5,55,75,34
5,61,74,0
5,63,74,0
5,55,70,29
5,61,69,0
5,63,74,2
5,63,68,29
5,55,73,2
5,61,68,0
5,68,104,26
5,75,100,3
5,70,100,2
5,68,66,110
5,70,75,2
5,75,74,0
5,75,64,198
5,70,70,4
5,68,70,2
5,68,52,155
5,75,52,0
5,70,52,5
5,73,98,923
5,65,106,5
5,70,99,0
5,65,73,100
5,70,67,4
5,73,72,0
5,70,67,200
5,73,67,0
5,65,67,4
5,73,58,152
5,65,58,1
5,70,58,4
5,75,103,917
5,70,103,1
5,66,107,2
5,70,68,104
5,66,68,1
5,75,75,5
5,66,67,214
5,70,67,0
5,75,67,0
5,66,59,156
5,70,59,0
5,75,59,0
5,65,98,922
5,73,102,0
5,70,99,6
5,70,72,104
5,73,72,0
5,65,72,2
5,70,60,200
5,65,60,2
5,73,60,2
5,65,51,154
5,70,51,2
5,73,51,4
5,70,105,920
5,68,105,4
5,75,103,0
5,75,67,110
5,68,69,2
5,70,74,2
5,68,61,203
5,75,61,0
5,70,61,2
5,75,52,155
5,68,52,3
5,70,52,0
5,65,105,924
5,70,107,1
5,73,99,3
5,70,66,108
5,73,72,0
5,65,70,0
5,65,60,199
5,73,60,3
5,70,60,2
5,65,50,149
5,73,50,3
5,70,50,2
5,70,103,916
5,66,104,4
5,75,100,0
5,66,75,103
5,75,67,4
5,70,66,2
5,70,63,208
5,66,63,2
5,75,63,0
5,70,55,156
5,66,55,3
5,75,55,2
5,65,102,924
5,70,99,2
5,73,101,0
5,70,75,104
5,73,73,0
5,65,71,2
5,65,70,202
5,73,67,0
5,70,72,2
5,73,68,154
5,65,66,6
5,70,67,0
5,75,105,922
5,68,99,3
5,70,104,0
5,70,74,110
5,68,75,4
5,75,70,2
5,75,63,200
5,68,63,2
5,70,63,0
5,70,55,156
5,75,55,0
5,68,55,2
5,70,107,928
5,73,102,0
5,65,99,2
5,65,70,104
5,70,69,2
5,73,66,0
5,65,68,199
5,73,68,3
5,70,67,2
5,70,53,149
5,73,53,0
5,65,53,3
5,70,103,920
5,66,100,6
5,75,103,0
5,70,75,102
5,75,74,2
5,66,68,0
5,66,60,210
5,70,60,4
5,75,60,2
5,66,49,152
5,70,49,4
5,75,49,0
5,65,98,923
5,70,99,4
5,73,105,0
5,70,69,103
5,73,69,3
5,65,69,2
5,65,56,198
5,73,56,2
5,70,55,4
5,65,45,156
5,70,45,2
5,73,45,0
5,63,67,922
5,60,79,1
5,68,83,5
5,65,75,202
5,56,79,2
5,61,75,0
5,63,66,10
5,67,70,0
5,58,74,0
5,56,67,17
5,61,79,2
5,65,83,0
5,63,71,17
5,58,68,4
5,67,67,0
5,68,79,24
5,63,55,4
5,60,75,2
5,61,59,197
5,56,55,3
