track,note,velocity,time
1,62,107,7776
1,59,97,28
1,57,104,16
1,62,113,28
1,57,120,32
1,62,107,2504
1,59,94,24
1,57,107,16
1,62,117,28
1,57,120,24
1,62,88,2312
1,66,92,0
1,57,83,0
1,64,88,72
1,60,99,0
1,55,92,0
1,66,81,116
1,62,90,0
1,57,88,0
1,60,90,64
1,55,85,0
1,64,78,0
1,66,89,84
1,62,94,0
1,57,88,0
1,55,86,72
1,60,90,0
1,64,78,0
1,66,89,104
1,62,88,0
1,57,73,0
1,60,88,64
1,55,88,0
1,64,82,0
1,60,92,60
1,55,80,0
1,64,83,0
1,60,97,136
1,64,85,0
1,55,88,0
1,60,99,44
1,64,88,0
1,55,80,0
1,78,81,140
1,57,75,0
1,69,71,0
1,66,81,0
1,62,83,0
1,67,69,180
1,64,80,0
1,76,71,0
1,60,86,0
1,55,79,0
1,78,86,88
1,66,89,0
1,69,75,0
1,62,94,0
1,57,83,0
1,67,69,104
1,55,83,0
1,76,72,0
1,60,83,0
1,64,75,0
1,60,92,72
1,64,80,0
1,55,85,0
1,60,83,136
1,55,79,0
1,64,78,0
1,55,62,12
1,60,79,0
1,64,59,0
1,78,79,128
1,62,90,0
1,69,75,0
1,66,89,0
1,57,79,0
1,67,72,156
1,55,80,0
1,76,76,0
1,60,85,0
1,64,73,0
1,78,86,96
1,66,96,0
1,69,71,0
1,62,88,0
1,57,78,0
1,43,101,156
1,59,107,0
1,55,94,0
1,62,88,0
1,61,92,180
1,64,86,0
1,57,83,0
1,45,104,0
1,57,97,340
1,61,114,0
1,64,94,0
1,62,110,216
1,66,114,0
1,59,107,0
1,43,86,244
1,62,85,0
1,59,90,0
1,55,83,0
1,54,77,24
1,61,81,0
1,57,94,0
1,42,81,0
1,59,78,204
1,47,92,0
1,64,92,0
1,66,92,0
1,71,92,0
1,64,104,128
1,68,114,0
1,64,101,140
1,68,100,0
1,64,94,136
1,69,92,0
1,69,107,168
1,71,120,0
1,76,101,0
1,64,92,3272
1,68,92,0
1,63,75,120
1,64,92,0
1,68,100,0
1,64,90,124
1,69,97,0
1,71,120,176
1,69,110,0
1,76,104,0
1,50,110,2472
1,54,96,0
1,62,97,0
1,57,113,0
1,62,99,244
1,54,96,0
1,57,117,0
1,50,110,0
1,52,113,144
1,56,100,0
1,64,97,0
1,59,117,0
1,64,107,120
1,61,97,28
1,59,104,16
1,64,113,28
1,59,120,32
1,62,104,872
1,69,101,0
1,66,109,0
1,61,92,112
1,64,110,0
1,69,97,0
1,62,101,108
1,66,109,0
1,69,101,0
1,64,113,112
1,69,101,0
1,61,100,0
1,78,81,112
1,57,75,0
1,69,71,0
1,66,81,0
1,62,83,0
1,67,69,180
1,64,80,0
1,76,71,0
1,60,86,0
1,55,79,0
1,78,86,88
1,66,89,0
1,69,75,0
1,62,94,0
1,57,83,0
1,67,69,104
1,55,83,0
1,76,72,0
1,60,83,0
1,64,75,0
1,60,92,72
1,64,80,0
1,55,85,0
1,60,83,136
1,55,79,0
1,64,78,0
1,55,62,12
1,60,79,0
1,64,59,0
1,78,79,128
1,62,90,0
1,69,75,0
1,66,89,0
1,57,79,0
1,67,72,156
1,55,80,0
1,76,76,0
1,60,85,0
1,64,73,0
1,78,86,96
1,66,96,0
1,69,71,0
1,62,88,0
1,57,78,0
1,43,101,156
1,59,107,0
1,55,94,0
1,62,88,0
1,86,110,864
1,84,110,36
1,83,88,96
1,79,101,84
1,61,92,48
1,64,86,0
1,57,83,0
1,45,104,0
1,81,94,48
1,57,97,340
1,61,114,0
1,64,94,0
1,62,110,216
1,66,114,0
1,59,107,0
1,81,99,288
1,79,110,120
1,78,104,52
1,74,101,48
1,43,86,0
1,62,85,0
1,59,90,0
1,55,83,0
1,54,77,24
1,61,81,0
1,57,94,0
1,42,81,0
1,59,78,204
1,47,92,0
1,64,92,0
1,66,92,0
1,71,92,0
1,64,104,128
1,68,114,0
1,64,101,140
1,68,100,0
1,64,94,136
1,69,92,0
1,69,107,168
1,71,120,0
1,76,101,0
1,64,92,3272
1,68,92,0
1,63,75,120
1,64,92,0
1,68,100,0
1,64,90,124
1,69,97,0
1,71,120,176
1,69,110,0
1,76,104,0
1,50,110,2472
1,54,96,0
1,62,97,0
1,57,113,0
1,62,99,244
1,54,96,0
1,57,117,0
1,50,110,0
1,52,113,144
1,56,100,0
1,64,97,0
1,59,117,0
1,64,104,24
1,68,114,0
1,64,101,140
1,68,100,0
1,64,94,136
1,69,92,0
1,69,107,168
1,71,120,0
1,76,101,0
1,64,92,3272
1,68,92,0
1,63,75,120
1,64,92,0
1,68,100,0
1,64,90,124
1,69,97,0
1,71,120,176
1,69,110,0
1,76,104,0
1,62,94,1704
1,66,100,0
1,69,99,0
1,61,86,228
1,69,90,0
1,64,90,0
1,62,97,248
1,66,104,0
1,69,97,0
1,68,100,256
1,71,94,0
1,64,92,0
1,73,86,136
1,69,104,0
1,66,84,0
1,42,114,764
1,61,84,0
1,69,88,0
1,66,86,0
1,40,107,28
1,64,92,0
1,59,85,0
1,68,92,0
1,42,119,108
1,61,84,0
1,69,88,0
1,66,92,0
1,42,100,832
1,54,100,0
1,40,83,12
1,52,83,0
1,42,100,0
1,54,100,0
1,40,88,16
1,52,88,0
1,42,92,16
1,54,92,0
1,45,79,8
1,57,79,0
1,47,78,96
1,59,78,0
1,49,109,68
1,61,109,0
1,42,119,784
1,61,86,0
1,66,96,0
1,69,90,0
1,40,110,60
1,59,83,0
1,64,86,0
1,68,77,0
1,42,124,72
1,69,88,0
1,61,81,0
1,66,92,0
1,61,100,1556
1,64,90,16
1,66,100,32
1,69,110,128
1,71,107,128
1,73,114,28
1,67,88,40
1,64,97,0
1,60,83,0
1,64,88,316
1,60,78,0
1,66,96,0
1,64,104,224
1,60,94,0
1,67,92,0
1,66,100,52
1,59,90,0
1,62,99,0
1,64,101,88
1,57,104,0
1,60,101,0
1,67,110,256
1,62,90,8
1,60,67,48
1,55,99,12
1,60,97,64
1,67,110,24
1,67,94,80
1,76,99,0
1,72,99,0
1,67,83,56
1,74,97,0
1,71,94,0
1,64,101,128
1,72,99,0
1,69,110,0
1,43,104,24
1,45,110,4
1,47,52,32
1,48,43,0
1,50,67,4
1,52,73,0
1,53,86,4
1,55,94,0
1,57,92,0
1,59,63,32
1,60,90,0
1,62,78,0
1,64,78,4
1,65,82,0
1,67,62,28
1,69,63,16
1,71,62,20
1,72,57,20
1,74,60,16
1,76,60,16
1,77,62,16
1,79,75,16
1,81,72,8
1,52,99,44
1,68,100,0
1,64,97,0
1,59,86,0
1,62,83,280
1,64,86,0
1,69,90,0
1,81,104,180
1,74,107,0
1,76,113,0
1,59,62,104
1,66,68,0
1,62,70,0
1,57,61,0
1,68,89,2972
1,64,94,0
1,59,80,0
1,64,97,40
1,62,86,0
1,69,92,0
1,74,104,208
1,76,107,0
1,81,101,0
1,70,124,1912
1,82,124,0
1,69,97,28
1,81,97,0
1,67,107,24
1,79,107,0
1,65,107,28
1,77,107,0
1,72,120,196
1,84,120,0
1,70,114,32
1,82,114,0
1,69,101,40
1,81,101,0
1,70,114,20
1,82,114,0
1,69,104,200
1,81,104,0
1,70,119,0
1,82,119,0
1,72,123,40
1,84,123,0
1,77,117,48
1,89,117,0
1,60,117,356
1,53,110,44
1,60,113,48
1,58,114,44
1,62,110,568
1,58,109,32
1,53,120,916
1,60,97,384
1,58,114,24
1,60,117,1720
1,53,110,44
1,60,113,48
1,58,114,44
1,62,110,568
1,58,109,32
1,53,120,916
1,60,97,384
1,58,114,24
1,65,104,1336
1,69,114,0
1,65,101,140
1,69,100,0
1,65,94,136
1,70,92,0
1,70,107,168
1,72,120,0
1,77,101,0
1,65,92,3272
1,69,92,0
1,64,75,120
1,65,92,0
1,69,100,0
1,65,90,124
1,70,97,0
1,72,120,176
1,70,110,0
1,77,104,0
1,63,94,1704
1,67,100,0
1,70,99,0
1,62,86,228
1,70,90,0
1,65,90,0
1,63,97,248
1,67,104,0
1,70,97,0
1,69,100,256
1,72,94,0
1,65,92,0
1,65,92,232
1,69,92,0
1,64,75,120
1,65,92,0
1,69,100,0
1,65,90,124
1,70,97,0
1,72,120,176
1,70,110,0
1,77,104,0
1,63,94,1704
1,67,100,0
1,70,99,0
1,62,86,228
1,70,90,0
1,65,90,0
1,63,97,248
1,67,104,0
1,70,97,0
1,69,100,256
1,72,94,0
1,65,92,0
1,69,113,232
1,72,101,0
1,65,101,0
1,41,90,0
1,48,88,0
1,53,75,0
2,38,117,7680
2,38,120,184
2,26,117,148
2,36,120,364
2,38,94,192
2,31,120,400
2,33,113,60
2,38,110,120
2,38,120,176
2,26,120,84
2,36,120,372
2,38,92,192
2,31,123,396
2,38,107,324
2,38,99,164
2,38,104,120
2,26,101,12
2,26,107,112
2,38,110,44
2,38,113,152
2,38,110,136
2,26,107,192
2,38,120,116
2,26,113,8
2,26,126,124
2,38,120,104
2,38,110,132
2,26,99,192
2,38,113,112
2,26,113,12
2,36,107,36
2,36,101,100
2,36,120,120
2,38,117,108
2,40,110,120
2,38,113,88
2,38,107,100
2,26,107,104
2,38,101,88
2,38,110,116
2,26,113,20
2,26,126,128
2,26,113,36
2,38,107,32
2,38,113,96
2,26,101,88
2,38,101,80
2,33,94,96
2,26,123,100
2,26,110,88
2,38,110,108
2,26,113,20
2,38,110,120
2,26,110,28
2,36,117,108
2,36,79,76
2,36,120,116
2,38,110,112
2,40,120,116
2,38,123,104
2,38,99,60
2,26,113,8
2,38,113,120
2,38,107,108
2,38,117,120
2,26,110,20
2,26,125,128
2,26,104,48
2,38,99,20
2,38,94,96
2,33,92,104
2,38,88,92
2,33,83,96
2,26,117,104
2,26,107,72
2,33,76,0
2,38,113,144
2,38,104,104
2,38,104,104
2,26,113,96
2,36,120,112
2,36,94,28
2,36,110,112
2,38,113,108
2,40,117,120
2,38,120,96
2,38,104,52
2,26,104,16
2,26,123,124
2,38,104,112
2,38,110,100
2,33,90,24
2,26,123,104
2,26,110,76
2,33,80,0
2,38,104,132
2,38,107,96
2,38,113,112
2,26,113,0
2,26,125,120
2,26,99,20
2,38,104,24
2,38,110,96
2,38,107,96
2,38,110,112
2,26,117,8
2,31,125,116
2,31,107,56
2,31,113,132
2,31,123,128
2,31,120,140
2,31,113,64
2,33,110,112
2,33,94,48
2,45,99,16
2,45,94,80
2,43,104,96
2,42,84,104
2,40,90,8
2,38,104,96
2,35,110,96
2,35,97,72
2,47,97,24
2,45,104,16
2,45,107,136
2,43,79,112
2,42,114,132
2,40,88,36
2,38,104,96
2,36,86,0
2,31,104,112
2,31,97,80
2,38,79,4
2,43,94,192
2,30,96,0
2,30,100,68
2,37,92,20
2,42,89,16
2,35,107,24
2,35,104,140
2,35,117,148
2,33,99,32
2,35,99,24
2,35,113,128
2,35,117,132
2,33,113,24
2,35,107,12
2,33,107,20
2,40,117,92
2,40,120,184
2,28,117,148
2,38,120,364
2,40,94,192
2,33,120,400
2,35,113,60
2,40,110,120
2,40,120,176
2,28,120,84
2,38,120,372
2,40,92,192
2,33,123,396
2,40,107,324
2,40,117,0
2,40,120,184
2,28,117,148
2,38,120,364
2,40,94,192
2,33,120,400
2,35,113,60
2,40,110,120
2,40,120,176
2,28,120,84
2,38,120,372
2,40,92,192
2,33,123,396
2,40,107,324
2,33,123,1536
2,35,120,96
2,37,119,56
2,38,123,136
2,38,99,60
2,26,113,8
2,38,113,120
2,38,107,108
2,38,117,120
2,26,110,20
2,26,125,128
2,26,104,48
2,38,99,20
2,38,94,96
2,33,92,104
2,38,88,92
2,33,83,96
2,26,117,104
2,26,107,72
2,33,76,0
2,38,113,144
2,38,104,104
2,38,104,104
2,26,113,96
2,36,120,112
2,36,94,28
2,36,110,112
2,38,113,108
2,40,117,120
2,38,120,96
2,38,104,52
2,26,104,16
2,26,123,124
2,38,104,112
2,38,110,100
2,33,90,24
2,26,123,104
2,26,110,76
2,33,80,0
2,38,104,132
2,38,107,96
2,38,113,112
2,26,113,0
2,26,125,120
2,26,99,20
2,38,104,24
2,38,110,96
2,38,107,96
2,38,110,112
2,26,117,8
2,31,125,116
2,31,107,56
2,31,113,132
2,31,123,128
2,31,120,140
2,31,113,64
2,33,110,112
2,33,94,48
2,45,99,16
2,45,94,80
2,43,104,96
2,42,84,104
2,40,90,8
2,38,104,96
2,35,110,96
2,35,97,72
2,47,97,24
2,45,104,16
2,45,107,136
2,43,79,112
2,42,114,132
2,40,88,36
2,38,104,96
2,36,86,0
2,31,104,112
2,31,97,80
2,38,79,4
2,43,94,192
2,30,96,0
2,30,100,68
2,37,92,20
2,42,89,16
2,35,107,24
2,35,104,140
2,35,117,148
2,33,99,32
2,35,99,24
2,40,117,800
2,40,120,184
2,28,117,148
2,38,120,364
2,40,94,192
2,33,120,400
2,35,113,60
2,40,110,120
2,40,120,176
2,28,120,84
2,38,120,372
2,40,92,192
2,33,123,396
2,40,107,324
2,40,117,0
2,40,120,184
2,28,117,148
2,38,120,364
2,40,94,192
2,33,120,400
2,35,113,60
2,40,110,120
2,40,120,176
2,28,120,84
2,38,120,372
2,40,92,192
2,33,123,396
2,40,107,324
2,40,117,0
2,40,120,184
2,28,117,148
2,38,120,364
2,40,94,192
2,33,120,400
2,35,113,60
2,40,110,120
2,40,120,176
2,28,120,84
2,38,120,372
2,40,92,192
2,33,123,396
2,40,107,324
2,40,117,0
2,40,120,184
2,28,117,148
2,38,120,364
2,40,94,192
2,33,120,400
2,35,113,60
2,40,110,120
2,40,120,176
2,28,120,84
2,35,123,372
2,37,119,204
2,38,125,220
2,40,120,224
2,30,124,40
2,30,124,716
2,28,110,36
2,30,119,68
2,30,119,2328
2,28,117,32
2,30,119,68
2,54,114,296
2,57,107,36
2,54,119,192
2,36,120,2320
2,35,110,56
2,33,113,72
2,35,117,1772
2,35,120,72
2,28,113,156
2,28,110,132
2,28,110,168
2,28,101,88
2,26,92,4
2,28,117,192
2,28,110,176
2,40,97,196
2,35,104,192
2,40,88,24
2,28,110,192
2,28,104,136
2,28,107,136
2,26,107,76
2,28,113,192
2,28,104,164
2,28,110,116
2,35,104,12
2,40,88,8
2,35,92,96
2,28,110,16
2,28,110,120
2,28,107,152
2,26,117,184
2,28,94,192
2,28,92,152
2,28,107,128
2,35,97,8
2,40,90,20
2,35,94,96
2,28,107,56
2,28,107,136
2,28,110,152
2,26,104,28
2,31,113,40
2,33,107,80
2,34,114,88
2,36,113,116
2,29,125,44
2,41,117,11392
2,41,113,136
2,41,113,124
2,38,90,28
2,36,90,96
2,33,62,32
2,35,76,0
2,41,117,108
2,41,120,184
2,29,117,148
2,39,120,364
2,41,94,192
2,34,120,400
2,36,113,60
2,41,110,120
2,41,120,176
2,29,120,84
2,39,120,372
2,41,92,192
2,34,123,396
2,41,107,324
2,41,117,0
2,41,120,184
2,29,117,148
2,39,120,364
2,41,94,192
2,34,120,400
2,36,113,60
2,41,110,120
2,41,120,176
2,29,120,84
2,36,123,372
2,38,119,204
2,39,125,220
2,41,120,224
2,31,124,40
2,41,117,0
2,41,120,184
2,29,117,148
2,39,120,364
2,41,94,192
2,34,120,400
2,36,113,60
2,41,110,120
2,41,120,176
2,29,120,84
2,36,123,372
2,38,119,204
2,39,125,220
2,41,120,224
2,29,125,136
3,57,69,28
3,62,78,0
3,66,73,0
3,62,79,52
3,66,66,0
3,57,61,0
3,66,75,48
3,57,63,0
3,62,79,0
3,62,90,12
3,66,89,0
3,57,78,0
3,62,94,128
3,66,92,0
3,57,83,0
3,60,79,124
3,62,85,0
3,67,86,0
3,67,85,28
3,62,80,0
3,60,74,0
3,67,83,320
3,62,82,0
3,59,80,0
3,67,71,124
3,62,73,0
3,59,69,0
3,62,85,52
3,67,83,0
3,59,75,0
3,67,92,112
3,62,99,0
3,59,92,0
3,71,92,248
3,67,92,0
3,62,80,0
3,62,80,132
3,67,86,0
3,71,85,0
3,67,90,48
3,71,83,0
3,62,71,0
3,62,85,116
3,67,90,0
3,71,97,0
3,69,92,112
