track,note,velocity,time
1,79,127,9204
1,80,126,200
1,82,125,176
1,80,125,4
1,79,122,28
1,77,127,8
1,75,123,180
1,72,123,16
1,82,127,384
1,74,118,16
1,74,123,80
1,74,117,88
1,82,115,204
1,80,127,260
1,79,115,8
1,77,112,36
1,79,127,68
1,80,127,212
1,82,125,4
1,80,119,188
1,79,101,16
1,77,124,8
1,75,122,8
1,72,112,136
1,72,127,32
1,82,116,240
1,74,118,4
1,74,126,60
1,74,124,76
1,82,127,16
1,80,127,76
1,79,127,76
1,77,122,108
1,82,127,52
1,82,121,40
1,82,127,80
1,80,125,8
1,79,118,16
1,79,127,56
1,80,115,380
1,82,126,168
1,82,107,16
1,80,127,8
1,80,127,144
1,79,126,8
1,77,125,8
1,77,127,60
1,79,122,400
1,80,127,8
1,79,127,204
1,80,127,180
1,82,127,8
1,80,127,180
1,79,127,32
1,77,127,16
1,75,125,8
1,72,111,16
1,82,127,812
1,74,124,308
1,74,127,120
1,74,125,68
1,82,127,8
1,72,127,1404
1,74,127,200
1,77,127,160
1,74,124,192
1,79,123,28
1,79,127,56
1,72,127,652
1,74,127,184
1,77,127,172
1,74,119,180
1,77,127,0
1,74,119,192
1,81,127,232
1,79,126,196
1,77,126,4
1,74,127,584
1,72,124,100
1,72,127,728
1,74,127,192
1,77,127,172
1,74,123,180
1,79,121,28
1,79,127,56
1,81,122,588
1,77,127,8
1,74,118,4
1,77,126,296
1,77,127,100
1,77,127,120
1,77,127,24
1,79,127,1264
1,80,127,176
1,82,125,172
1,80,123,8
1,79,113,24
1,77,120,16
1,75,112,164
1,72,110,12
1,72,123,648
1,82,127,192
1,74,120,356
1,74,119,72
1,74,127,68
1,82,116,188
1,80,117,8
1,79,123,8
1,77,119,8
1,79,127,220
1,80,127,184
1,82,125,172
1,80,120,192
1,79,114,20
1,77,127,8
1,75,106,184
1,72,106,544
1,72,121,132
1,72,113,588
1,82,127,196
1,74,127,4
1,74,127,68
1,74,127,72
1,82,127,192
1,80,127,344
1,79,119,8
1,77,117,8
1,82,123,944
1,82,123,56
1,82,126,240
1,80,121,176
1,79,124,8
1,80,110,564
1,82,113,156
1,80,120,556
1,79,118,4
1,80,126,188
1,79,120,24
1,77,115,8
1,77,118,60
1,79,127,368
1,80,124,176
1,82,127,180
1,80,125,16
1,79,122,32
1,77,127,8
1,75,119,28
1,72,115,396
1,74,117,220
1,82,120,172
1,72,127,1568
1,74,127,188
1,77,127,156
1,74,124,188
1,79,125,16
1,72,127,1164
1,74,127,192
1,77,127,0
1,74,122,192
1,77,127,192
1,81,127,376
1,79,124,200
1,77,127,24
1,74,120,552
1,72,127,0
1,72,127,724
1,74,127,196
1,77,127,8
1,74,127,196
1,79,127,24
1,81,127,944
1,77,127,200
1,74,126,0
1,77,127,188
1,77,127,128
1,77,126,196
1,77,127,116
1,72,127,724
1,74,127,200
1,77,127,160
1,74,124,196
1,79,124,24
1,72,127,1032
1,74,125,184
1,77,127,4
1,74,117,192
1,77,127,8
1,74,115,4
1,81,127,236
1,79,127,188
1,77,127,156
1,74,124,4
1,72,127,192
1,74,119,8
1,72,127,872
1,74,127,192
1,77,127,4
1,74,121,8
1,79,127,52
1,79,126,48
1,81,126,404
1,77,127,0
1,77,125,140
1,77,127,92
1,77,123,140
1,77,127,120
1,79,118,1572
1,79,118,72
1,79,119,32
1,79,127,72
1,81,120,480
1,82,125,200
1,81,118,16
1,79,124,4
1,77,121,304
1,79,114,408
1,79,114,88
1,79,118,48
1,81,113,8
1,79,127,0
1,77,127,4
1,77,127,40
1,84,116,772
1,86,107,840
1,73,127,6468
1,75,127,188
1,78,127,8
1,75,127,8
1,80,127,48
1,73,127,680
1,75,127,192
1,78,127,8
1,75,125,176
1,78,127,16
1,75,124,8
1,80,127,4
1,83,127,16
1,82,127,260
1,80,127,228
1,78,127,172
1,75,125,16
1,78,127,4
1,73,127,360
1,75,127,184
1,78,127,176
1,75,127,16
1,80,123,28
1,82,127,956
1,78,127,16
1,78,126,124
1,78,127,132
1,78,95,76
1,78,117,80
1,78,127,120
1,73,127,340
1,75,127,176
1,78,127,176
1,75,127,8
1,80,127,16
1,73,127,596
1,75,127,8
1,78,127,192
1,75,127,156
1,78,127,200
1,75,126,8
1,82,127,228
1,80,127,192
1,78,127,24
1,75,125,8
1,73,102,16
1,78,122,0
1,73,127,148
1,75,127,192
1,78,127,176
1,75,125,148
1,80,127,16
1,82,127,564
1,78,127,8
1,78,127,24
1,78,111,96
1,78,127,124
1,78,108,108
1,78,127,140
1,73,127,304
1,75,127,204
1,78,127,192
1,75,123,12
1,80,127,12
1,73,127,680
1,75,127,8
1,78,127,196
1,75,127,8
1,78,122,188
1,75,124,8
1,82,127,172
1,80,124,196
1,78,127,32
1,75,127,12
1,73,119,8
1,73,127,280
1,75,127,184
1,78,127,180
1,75,126,4
1,80,125,12
1,82,127,8
1,78,125,8
1,78,127,104
1,78,127,132
1,78,119,224
1,78,127,140
1,73,127,420
1,75,127,184
1,78,127,188
1,75,127,4
2,43,127,1536
2,43,127,100
2,43,127,92
2,36,127,384
2,38,127,168
2,41,127,176
2,41,127,124
2,41,127,104
2,36,127,384
2,38,127,172
2,43,127,0
2,43,127,152
2,43,127,84
2,43,127,112
2,34,127,192
2,34,127,140
2,34,127,100
2,34,127,104
2,29,127,4
2,39,127,1096
2,39,127,100
2,39,127,136
2,39,127,68
2,36,127,32
2,36,127,156
2,36,127,128
2,36,127,124
2,31,127,8
2,31,127,168
2,31,127,128
2,31,127,112
2,32,127,104
2,32,127,132
2,34,127,52
2,34,127,124
2,39,127,16
2,39,127,108
2,39,127,132
2,39,127,92
2,36,127,32
2,36,127,92
2,36,127,128
2,36,127,104
2,31,127,0
2,31,127,140
2,31,127,108
2,31,127,136
2,32,127,88
2,32,127,128
2,34,127,12
2,34,127,128
2,37,127,28
2,37,127,116
2,37,127,116
2,37,127,76
2,36,127,8
2,36,127,140
2,36,127,96
2,36,127,100
2,32,127,36
2,32,127,132
2,32,127,124
2,39,127,60
2,44,127,16
2,44,127,140
2,39,127,192
2,32,127,28
2,32,127,84
2,39,127,12
2,39,127,100
2,39,127,132
2,38,127,36
2,36,127,8
2,36,127,84
2,36,127,112
2,36,127,128
2,31,127,56
2,31,127,112
2,31,127,144
2,31,127,116
2,31,127,144
2,36,127,12
2,36,127,132
2,36,127,128
2,36,127,108
2,41,127,16
2,43,127,1060
2,43,127,112
2,43,127,120
2,36,127,384
2,38,127,164
2,41,127,8
2,41,127,116
2,41,127,116
2,41,127,88
2,43,127,4
2,43,127,116
2,43,127,96
2,36,127,384
2,38,127,176
2,41,127,24
2,41,127,92
2,41,127,108
2,41,127,96
2,43,127,8
2,43,127,116
2,43,127,92
2,36,127,384
2,38,127,172
2,41,127,8
2,41,127,140
2,34,127,8
2,34,127,92
2,41,127,192
2,41,127,0
2,41,127,160
2,41,127,108
2,39,127,8
2,39,127,108
2,39,127,108
2,39,127,76
2,36,127,32
2,36,127,108
2,36,127,124
2,36,127,112
2,31,127,4
2,31,127,144
2,31,127,124
2,31,127,128
2,32,127,192
2,32,127,128
2,34,127,0
2,34,127,104
2,39,127,192
2,39,127,112
2,39,127,80
2,39,127,100
2,36,127,20
2,36,127,120
2,36,127,116
2,36,127,120
2,31,127,4
2,31,127,144
2,31,127,124
2,31,127,116
2,32,127,192
2,32,127,144
2,34,127,16
2,34,127,124
2,37,127,0
2,37,127,132
2,37,127,124
2,37,127,112
2,36,127,12
2,36,127,152
2,36,127,116
2,36,127,96
2,32,127,12
2,32,127,144
2,32,127,124
2,39,127,576
2,44,127,0
2,39,127,128
2,32,127,32
2,32,127,128
2,39,127,8
2,39,127,0
2,39,127,136
2,39,127,152
2,38,127,0
2,36,127,20
2,36,127,156
2,36,127,136
2,36,127,96
2,31,127,196
2,31,127,152
2,31,127,116
2,31,127,104
2,36,127,56
2,36,127,108
2,36,127,132
2,36,127,100
2,41,127,24
2,43,127,1008
2,43,127,120
2,43,127,120
2,36,127,380
2,38,127,164
2,41,127,24
2,41,127,112
2,41,127,128
2,36,127,384
2,38,127,180
2,43,127,20
2,43,127,0
2,43,127,136
2,43,127,100
2,36,127,380
2,38,127,0
2,41,127,8
2,41,127,148
2,41,127,124
2,36,127,384
2,38,127,176
2,43,127,0
2,43,127,128
2,43,127,108
2,36,127,384
2,38,127,188
2,41,127,176
2,41,127,116
2,34,127,192
2,34,127,104
2,41,127,0
2,41,127,88
2,36,127,192
2,38,127,188
2,41,127,168
2,38,127,4
2,43,127,16
2,43,127,108
2,43,127,104
2,36,127,384
2,38,127,8
2,41,127,16
2,41,127,92
2,41,127,112
2,36,127,384
2,38,127,172
2,43,127,8
2,43,127,120
2,43,127,92
2,36,127,384
2,38,127,172
2,41,127,8
2,41,127,88
2,41,127,96
2,36,127,384
2,38,127,168
2,43,127,0
2,43,127,124
2,43,127,84
2,36,127,384
2,38,127,188
2,41,127,168
2,41,127,104
2,34,127,192
2,34,127,108
2,41,127,192
2,41,127,108
2,36,127,4
2,38,127,192
2,41,127,160
2,38,127,180
2,43,127,180
2,43,127,116
2,43,127,112
2,43,127,96
2,43,127,124
2,43,127,76
2,43,127,68
2,41,127,4
2,34,127,192
2,34,127,92
2,34,127,84
2,34,127,52
2,34,127,108
2,34,127,108
2,34,127,120
2,34,127,96
2,34,127,124
2,41,127,24
2,41,127,84
2,41,127,112
2,41,127,100
2,38,127,192
2,43,127,980
2,43,127,116
2,43,127,60
2,43,127,92
2,34,127,192
2,34,127,124
2,34,127,88
2,34,127,116
2,41,127,192
2,41,127,120
2,41,127,100
2,41,127,76
2,41,127,116
2,29,127,192
2,44,127,1204
2,44,127,116
2,44,127,60
2,37,127,384
2,39,127,0
2,42,127,192
2,42,127,100
2,42,127,92
2,37,127,384
2,39,127,172
2,44,127,8
2,44,127,112
2,44,127,100
2,37,127,384
2,39,127,0
2,42,127,8
2,42,127,124
2,42,127,116
2,37,127,8
2,39,127,192
2,44,127,0
2,44,127,132
2,44,127,92
2,37,127,388
2,39,127,180
2,42,127,172
2,42,127,124
2,35,127,8
2,35,127,100
2,35,127,88
2,42,127,192
2,42,127,56
2,37,127,0
2,39,127,192
2,42,127,16
2,39,127,188
2,44,127,28
2,44,127,144
2,44,127,88
2,37,127,384
2,39,127,184
2,42,127,12
2,42,127,120
2,42,127,100
2,37,127,16
2,39,127,188
2,44,127,16
2,44,127,144
2,44,127,100
2,37,127,0
2,39,127,188
2,42,127,8
2,42,127,140
2,42,127,120
2,37,127,380
2,39,127,144
2,44,127,24
2,44,127,136
2,44,127,112
2,37,127,0
2,39,127,192
2,42,127,184
2,42,127,144
2,35,127,16
2,35,127,100
2,35,127,104
2,30,127,196
2,30,127,156
2,37,127,196
2,39,127,184
2,42,127,164
2,39,127,148
2,44,127,40
2,44,127,0
2,44,127,144
2,44,127,108
2,37,127,384
2,39,127,20
2,42,127,192
2,42,127,120
2,42,127,100
2,37,127,12
2,39,127,192
2,44,127,24
2,44,127,132
2,44,127,108
2,37,127,384
2,39,127,20
2,42,127,20
2,42,127,124
2,42,127,124
2,37,127,20
2,39,127,20
2,44,127,16
2,44,127,140
2,44,127,124
2,37,127,4
2,39,127,20
2,42,127,88
2,42,127,140
2,35,127,192
2,35,127,124
2,35,127,116
2,42,127,20
2,37,127,320
2,39,127,192
2,42,127,4
2,39,127,4
2,30,127,380
3,1,1,0
3,65,69,101380
3,65,97,555
3,65,86,32
3,69,94,8
3,72,87,0
3,69,94,136
3,72,85,40
3,65,78,0
3,77,81,100
3,72,89,0
3,69,89,36
3,65,81,8
3,62,74,172
3,60,79,80
3,65,81,80
3,62,78,60
3,65,75,164
3,69,85,140
4,1,1,0
4,61,93,21484
4,65,97,0
4,68,84,4
4,70,88,0
4,64,85,116
4,70,90,0
4,67,85,0
4,60,90,4
4,63,96,100
4,68,90,0
4,60,92,0
4,59,92,112
4,58,72,8076
4,62,74,12
4,67,72,0
4,65,80,152
4,57,77,0
4,60,78,20
4,58,75,108
4,62,75,0
4,67,77,0
4,60,86,108
4,57,83,0
4,65,84,0
4,62,78,32
4,67,70,4
4,58,75,16
4,60,79,112
4,65,81,0
4,57,78,0
4,62,75,168
4,58,73,12
4,57,68,256
4,65,62,12
4,60,69,0
4,61,86,13496
4,65,87,0
4,68,78,4
4,70,79,0
4,60,80,56
4,70,79,0
4,67,86,24
4,64,79,0
4,63,93,120
4,68,87,0
4,60,88,4
4,59,81,108
4,68,88,0
4,63,83,0
4,58,69,7876
4,62,77,0
4,67,71,0
4,57,78,100
4,65,81,20
4,60,78,0
4,67,76,72
4,58,78,16
4,62,81,0
4,57,84,200
4,60,82,0
4,65,85,0
4,58,73,112
4,62,77,0
4,67,74,0
4,57,81,132
4,65,82,0
4,60,79,0
4,58,73,108
4,62,80,0
4,57,71,152
4,60,76,0
4,65,78,0
4,62,70,380
4,67,74,16
4,70,68,0
4,60,78,104
4,69,69,0
4,65,84,0
4,70,79,104
4,62,84,16
4,67,84,0
4,69,70,144
4,60,74,0
4,65,83,0
4,62,82,48
4,67,78,0
4,70,77,0
4,69,71,124
4,65,82,20
4,60,78,0
4,65,87,152
4,70,85,0
4,62,81,0
4,69,73,156
4,60,73,0
4,65,82,0
4,67,83,264
4,62,80,0
4,70,86,4
4,65,82,240
4,70,82,0
4,73,84,4
4,67,82,0
4,65,82,224
4,72,81,0
4,69,78,4
4,62,75,228
4,66,70,0
4,62,74,1056
4,70,75,4
4,67,76,0
4,65,78,140
4,61,76,0
4,69,65,128
4,60,70,0
4,65,79,0
4,63,87,2808
4,59,85,16
4,68,90,0
4,66,78,16
4,70,78,16
4,61,76,0
4,68,76,24
4,63,82,12
4,71,73,0
4,61,79,224
4,66,79,0
4,70,81,4
4,68,79,48
4,63,83,0
4,71,69,0
4,61,87,88
4,70,83,0
4,66,85,4
4,66,87,84
4,63,85,0
4,71,76,20
4,70,83,112
4,61,84,0
4,66,84,0
4,63,86,96
4,68,79,16
4,71,79,0
4,61,84,116
4,70,83,0
4,66,83,0
4,63,75,92
4,68,75,0
4,71,67,0
4,70,62,72
4,61,83,0
4,66,79,0
4,68,80,72
4,63,79,20
4,71,61,0
4,70,79,164
4,61,84,0
4,66,77,20
4,63,73,152
4,71,69,0
4,66,71,0
4,70,76,144
4,61,81,0
4,66,78,0
4,63,83,320
4,68,79,0
4,71,78,4
4,70,78,120
4,61,83,0
4,66,81,0
4,68,76,88
4,63,83,0
4,71,70,0
4,70,79,120
4,61,82,0
4,66,80,20
4,63,81,88
4,68,74,0
4,71,71,0
4,70,80,172
4,61,84,0
4,66,82,0
4,71,78,100
4,63,84,0
4,66,82,0
4,66,80,144
4,70,74,0
4,66,82,1588
4,61,85,0
4,58,80,0
5,60,102,776
5,62,95,200
5,65,102,164
5,62,85,184
5,65,105,332
5,62,81,196
5,65,100,304
5,62,79,188
5,65,97,352
5,62,90,8
5,65,95,316
5,62,84,200
5,65,102,280
5,62,80,192
5,65,105,328
5,62,81,208
5,65,97,332
5,62,88,204
5,65,90,308
5,62,67,204
5,60,72,8
5,65,77,0
5,51,80,1080
5,55,86,212
5,63,78,168
5,58,67,192
5,48,87,92
5,55,92,88
5,63,80,192
5,60,71,192
5,55,58,0
5,62,86,156
5,55,81,156
5,43,83,204
5,50,84,184
5,55,76,156
5,51,105,0
5,56,85,180
5,63,85,180
5,60,81,208
5,50,85,12
5,62,84,0
5,53,73,40
5,55,65,12
5,58,78,180
5,51,94,72
5,55,87,160
5,63,82,188
5,58,83,0
5,55,40,160
5,55,56,204
5,48,69,8
5,55,86,184
5,63,85,188
5,60,77,200
5,55,57,32
5,46,73,64
5,58,98,200
5,62,86,12
5,55,76,180
5,50,86,184
5,55,80,128
5,55,62,56
5,51,101,4
5,56,92,192
5,60,88,204
5,50,90,8
5,53,83,148
5,58,89,204
5,68,90,344
5,65,93,12
5,61,96,0
5,70,89,0
5,70,88,568
5,61,94,0
5,68,86,0
5,65,97,0
