track,note,velocity,time
1,81,75,48538
1,69,84,0
1,69,95,96
1,81,85,0
1,76,78,0
1,73,88,0
1,67,77,0
1,69,86,0
1,76,72,96
1,64,80,0
1,79,72,192
1,67,81,0
1,78,86,192
1,66,96,0
1,64,78,0
1,66,84,0
1,73,80,0
1,70,84,0
1,66,93,192
1,78,84,0
1,73,81,0
1,66,86,0
1,70,90,0
1,64,79,0
1,71,88,192
1,83,79,0
1,83,80,96
1,71,89,0
1,69,79,0
1,74,78,0
1,66,78,0
1,71,80,0
1,78,80,96
1,66,90,0
1,81,74,96
1,69,83,0
1,68,93,96
1,80,84,0
1,71,84,96
1,76,80,0
1,74,80,0
1,68,80,0
1,80,83,192
1,68,92,0
1,74,79,96
1,76,79,0
1,71,81,0
1,68,80,0
1,81,75,192
1,69,84,0
1,69,95,96
1,81,85,0
1,69,86,96
1,73,88,0
1,76,78,0
1,67,77,0
1,79,70,96
1,67,78,0
1,59,76,0
1,71,68,0
1,62,76,0
1,74,68,0
1,66,93,0
1,78,84,0
1,70,83,0
1,58,92,0
1,58,77,96
1,61,77,0
1,64,77,0
1,66,88,96
1,78,79,0
1,58,90,0
1,70,80,0
1,71,83,0
1,83,74,0
1,62,80,0
1,74,72,0
1,66,89,0
1,78,80,0
1,69,84,0
1,81,76,0
1,74,80,0
1,78,80,0
1,71,89,0
1,69,83,0
1,81,74,0
1,80,84,0
1,68,93,0
1,74,81,0
1,71,79,0
1,64,85,0
1,76,76,0
1,69,83,151
1,60,86,0
1,57,83,0
1,64,89,0
1,69,76,96
1,60,84,0
1,57,80,0
1,64,84,0
1,74,84,1536
1,71,81,0
1,67,80,0
1,69,83,192
1,65,81,0
1,72,88,0
1,68,88,192
1,64,84,0
1,71,92,0
1,68,70,0
1,56,78,0
1,59,76,0
1,71,68,0
1,62,78,0
1,74,70,0
1,62,70,96
1,74,70,0
1,56,79,0
1,68,71,0
1,76,71,0
1,64,79,0
1,68,72,0
1,56,81,0
1,71,56,0
1,59,63,0
1,77,72,0
1,65,80,0
1,65,80,96
1,77,72,0
1,69,79,0
1,57,79,0
1,72,86,0
1,60,86,0
1,76,84,0
1,64,84,0
1,57,84,0
1,69,75,0
1,60,79,0
1,72,71,0
1,65,83,0
1,77,74,0
1,76,80,0
1,64,89,0
1,76,76,96
1,64,84,0
1,81,75,0
1,69,84,0
1,76,72,0
1,64,80,0
1,67,96,0
1,79,86,0
1,71,86,0
1,74,72,96
1,62,80,0
1,77,80,0
1,69,80,0
1,65,89,0
1,60,80,96
1,72,72,0
1,64,96,0
1,76,86,0
1,68,86,0
1,68,86,96
1,76,86,0
1,64,96,0
1,68,70,0
1,56,78,0
1,71,68,0
1,59,76,0
1,74,70,0
1,62,78,0
1,77,71,96
1,65,79,0
1,76,71,96
1,64,79,0
1,68,72,0
1,56,81,0
1,59,63,0
1,71,56,0
1,62,80,0
1,74,72,0
1,77,72,192
1,65,80,0
1,64,86,192
1,76,77,0
1,69,75,192
1,57,84,0
1,72,71,0
1,60,79,0
1,65,83,0
1,77,74,0
1,76,80,0
1,64,89,0
1,64,84,96
1,76,76,0
1,69,84,0
1,81,75,0
1,76,72,0
1,64,80,0
1,79,86,0
1,67,96,0
1,71,86,0
1,74,72,96
1,62,80,0
1,65,89,0
1,77,80,0
1,69,80,0
1,72,72,96
1,60,80,0
1,76,86,0
1,68,86,0
1,64,96,0
1,76,86,96
1,68,86,0
1,64,96,0
1,56,78,0
1,68,70,0
1,59,76,0
1,71,68,0
1,74,70,0
1,62,78,0
1,65,79,96
1,77,71,0
1,64,79,96
1,76,71,0
1,56,81,0
1,68,72,0
1,71,56,0
1,59,63,0
1,74,72,0
1,62,80,0
1,65,80,192
1,77,72,0
1,64,86,192
1,76,77,0
1,69,75,192
1,57,84,0
1,60,79,0
1,72,71,0
1,77,74,0
1,65,83,0
1,76,80,0
1,64,89,0
1,76,76,96
1,64,84,0
1,81,75,0
1,69,84,0
1,64,80,0
1,76,72,0
1,67,96,0
1,71,86,0
1,79,86,0
1,74,72,96
1,62,80,0
1,77,80,0
1,65,89,0
1,69,80,0
1,72,72,96
1,60,80,0
1,64,96,0
1,76,86,0
1,68,86,0
1,68,86,96
1,76,86,0
1,64,96,0
1,68,70,0
1,56,78,0
1,71,68,0
1,59,76,0
1,62,78,0
1,74,70,0
1,71,90,96
1,59,90,0
1,76,71,96
1,64,79,0
1,68,72,0
1,56,81,0
1,71,56,0
1,59,63,0
1,74,72,0
1,62,80,0
1,71,72,192
1,59,80,0
1,72,77,192
1,60,86,0
1,69,75,192
1,57,84,0
1,72,71,0
1,60,79,0
1,64,83,0
1,76,74,0
1,71,61,0
1,59,61,0
1,60,69,0
1,72,69,0
1,73,76,0
1,61,76,0
1,74,86,0
1,62,86,0
1,65,79,384
1,53,79,0
1,69,79,0
1,57,79,0
1,74,80,0
1,62,80,0
1,72,84,0
1,60,84,0
1,53,77,0
1,65,77,0
1,69,79,0
1,57,79,0
1,72,90,0
1,60,90,0
1,59,86,0
1,71,86,0
1,56,96,288
1,68,96,0
1,68,86,96
1,64,80,0
1,76,80,0
1,69,92,192
1,57,92,0
1,60,79,0
1,48,79,0
1,52,75,0
1,64,75,0
1,69,84,0
1,57,84,0
1,67,96,0
1,55,96,0
1,60,80,0
1,48,80,0
1,52,77,0
1,64,77,0
1,67,86,0
1,55,86,0
1,54,93,0
1,66,93,0
1,65,80,288
1,53,80,0
1,60,80,96
1,57,78,0
1,64,80,0
1,59,93,192
1,71,93,0
1,64,80,0
1,52,80,0
1,68,90,0
1,56,90,0
1,59,84,0
1,71,84,0
1,57,89,0
1,69,89,0
1,69,80,0
1,74,80,0
1,65,76,0
1,53,86,0
1,56,99,192
1,68,99,0
1,52,89,0
1,64,89,0
1,71,84,192
1,59,84,0
1,59,84,192
1,71,84,0
1,69,92,192
1,57,92,0
1,60,78,96
1,48,78,0
1,52,76,0
1,64,76,0
1,57,88,0
1,69,88,0
1,71,90,0
1,59,90,0
1,72,88,96
1,60,88,0
1,73,99,96
1,61,99,0
1,58,85,0
1,70,85,0
1,57,77,192
1,69,77,0
1,62,86,192
1,74,86,0
1,53,79,384
1,65,79,0
1,57,79,0
1,69,79,0
1,74,80,0
1,62,80,0
1,72,84,0
1,60,84,0
1,53,77,0
1,65,77,0
1,57,79,0
1,69,79,0
1,72,90,0
1,60,90,0
1,59,86,0
1,71,86,0
1,68,96,288
1,56,96,0
1,68,86,96
1,64,80,0
1,76,80,0
1,69,92,192
1,57,92,0
1,48,79,0
1,60,79,0
1,64,75,0
1,52,75,0
1,69,84,0
1,57,84,0
1,67,96,0
1,55,96,0
1,60,80,0
1,48,80,0
1,64,77,0
1,52,77,0
1,67,86,0
1,55,86,0
1,54,93,0
1,66,93,0
1,65,80,288
1,53,80,0
1,60,80,96
1,64,80,0
1,57,78,0
1,59,93,192
1,71,93,0
1,64,80,0
1,52,80,0
1,56,90,0
1,68,90,0
1,59,84,0
1,71,84,0
1,57,89,0
1,69,89,0
1,69,80,0
1,53,86,0
1,74,80,0
1,65,76,0
1,56,99,192
1,68,99,0
1,64,89,0
1,71,89,0
1,52,89,0
1,76,89,0
1,56,84,192
1,68,84,0
1,81,84,0
1,69,84,0
1,76,84,0
1,72,84,0
1,57,84,0
1,73,84,1728
1,82,84,0
1,70,84,0
1,58,84,0
1,77,84,0
1,75,84,1344
1,72,81,0
1,68,80,0
1,70,83,192
1,73,88,0
1,66,81,0
1,69,88,192
1,72,92,0
1,65,84,0
1,69,70,0
1,57,78,0
1,72,68,0
1,60,76,0
1,75,70,0
1,63,78,0
1,75,70,96
1,63,70,0
1,69,71,0
1,57,79,0
1,65,79,0
1,77,71,0
1,57,81,0
1,69,72,0
1,72,56,0
1,60,63,0
1,78,72,0
1,66,80,0
1,66,80,96
1,78,72,0
1,70,79,0
1,58,79,0
1,73,86,0
1,61,86,0
1,65,84,0
1,77,84,0
1,70,75,0
1,58,84,0
1,73,71,0
1,61,79,0
1,66,83,0
1,78,74,0
1,65,89,0
1,77,80,0
1,77,76,96
1,65,84,0
1,82,75,0
1,70,84,0
1,77,72,0
1,65,80,0
1,80,86,0
1,68,96,0
1,72,86,0
1,75,72,96
1,63,80,0
1,66,89,0
1,70,80,0
1,78,80,0
1,73,72,96
1,61,80,0
1,69,86,0
1,65,96,0
1,77,86,0
1,77,86,96
1,65,96,0
1,69,86,0
1,69,70,0
1,57,78,0
1,72,68,0
1,60,76,0
1,63,78,0
1,75,70,0
1,78,71,96
1,66,79,0
1,77,71,96
1,65,79,0
1,69,72,0
1,57,81,0
1,60,63,0
1,72,56,0
1,75,72,0
1,63,80,0
1,66,80,192
1,78,72,0
1,65,86,192
1,77,77,0
1,70,75,192
1,58,84,0
1,73,71,0
1,61,79,0
1,66,83,0
1,78,74,0
1,77,80,0
1,65,89,0
1,77,76,96
1,65,84,0
1,82,75,0
1,70,84,0
1,65,80,0
1,77,72,0
1,72,86,0
1,80,86,0
1,68,96,0
1,63,80,96
1,75,72,0
1,78,80,0
1,70,80,0
1,66,89,0
1,61,80,96
1,73,72,0
1,77,86,0
1,65,96,0
1,69,86,0
1,65,96,96
1,69,86,0
1,77,86,0
1,69,70,0
1,57,78,0
1,72,68,0
1,60,76,0
1,63,78,0
1,75,70,0
1,78,71,96
1,66,79,0
1,65,79,96
1,77,71,0
1,57,81,0
1,69,72,0
1,60,63,0
1,72,56,0
1,63,80,0
1,75,72,0
1,66,80,192
1,78,72,0
1,65,86,192
1,77,77,0
1,70,75,192
1,58,84,0
1,61,79,0
1,73,71,0
1,66,83,0
1,78,74,0
1,65,89,0
1,77,80,0
1,77,76,96
1,65,84,0
1,70,84,0
1,82,75,0
1,77,72,0
1,65,80,0
1,80,86,0
1,72,86,0
1,68,96,0
1,63,80,96
1,75,72,0
1,66,89,0
1,70,80,0
1,78,80,0
1,61,80,96
1,73,72,0
1,69,86,0
1,77,86,0
1,65,96,0
1,77,86,96
1,65,96,0
1,69,86,0
1,77,72,192
1,65,80,0
1,81,80,0
1,69,89,0
1,84,79,0
1,72,88,0
1,75,96,192
1,87,86,0
1,78,96,192
1,90,86,0
1,87,80,192
1,75,90,0
1,76,74,0
1,88,66,0
1,89,75,0
1,77,84,0
1,48,91,873
1,60,91,0
1,36,91,0
1,61,102,68
1,49,102,0
1,37,102,0
1,39,96,77
1,63,96,0
1,51,96,0
1,53,97,38
1,41,97,0
1,65,97,0
1,42,101,96
1,66,101,0
1,54,101,0
1,51,101,77
1,63,101,0
1,39,101,0
1,53,102,135
1,65,102,0
1,41,102,0
1,37,105,87
1,61,105,0
1,49,105,0
1,51,97,84
1,39,97,0
1,63,97,0
1,60,99,140
1,36,99,0
1,48,99,0
1,51,105,202
1,39,105,0
1,63,105,0
1,49,102,84
1,61,102,0
1,37,102,0
1,60,88,99
1,36,88,0
1,48,88,0
1,58,88,73
1,34,88,0
1,46,88,0
1,57,88,58
1,45,88,0
1,33,88,0
1,48,91,135
1,60,91,0
1,36,91,0
1,29,102,160
1,53,102,0
1,41,102,0
1,54,102,144
1,30,102,0
1,42,102,0
1,53,94,128
1,29,94,0
1,41,94,0
1,46,111,170
1,58,111,0
1,34,111,0
1,64,78,1603
1,65,84,32
1,67,92,6
1,69,92,7
1,72,96,13
1,75,96,0
1,71,94,6
1,60,101,19
1,75,92,103
1,72,92,0
1,78,94,70
1,75,94,0
1,63,96,0
1,75,99,0
1,78,99,0
1,73,96,68
1,77,96,0
1,61,99,10
1,73,96,3
1,77,96,0
1,75,88,77
1,72,88,0
1,60,91,3
1,75,89,115
1,72,89,0
1,70,92,67
1,73,92,0
1,58,99,10
1,73,88,6
1,70,88,0
1,69,86,86
1,72,86,0
1,57,88,9
1,72,88,16
1,69,88,0
1,70,86,71
1,66,86,13
1,54,94,35
1,70,92,99
1,66,92,13
1,69,83,73
1,65,83,0
1,53,86,25
1,69,88,23
1,65,88,0
1,66,88,64
1,63,88,0
1,51,99,3
1,63,96,10
1,66,96,0
1,59,85,36
1,47,85,144
1,48,99,419
1,60,99,3
1,45,99,60
1,57,99,4
1,46,108,96
1,58,108,3
1,36,88,118
1,39,96,3
1,37,92,0
1,61,97,45
1,63,102,132
1,73,88,3
1,39,99,9
1,70,84,48
1,63,110,51
1,73,83,116
1,64,97,6
1,40,97,6
1,70,88,6
1,64,99,38
1,41,97,105
1,72,88,7
1,69,89,3
1,65,88,3
1,65,101,51
1,42,105,109
1,66,108,7
1,75,97,96
1,72,88,0
1,43,99,58
1,67,101,6
1,69,86,10
1,75,99,38
1,72,88,3
1,68,105,3
1,44,101,16
1,72,96,29
1,75,105,0
1,69,88,7
1,69,101,71
1,73,89,13
1,45,102,3
1,77,86,6
1,70,89,103
1,73,99,32
1,46,101,45
1,82,94,23
1,70,105,12
1,73,91,19
1,70,91,6
1,77,89,13
1,47,99,54
1,71,108,16
1,83,96,3
1,70,89,3
1,73,91,0
1,77,94,3
1,48,102,77
1,84,88,29
1,72,99,22
1,80,91,6
1,73,86,0
1,77,94,3
1,85,94,83
1,49,102,4
1,73,105,6
1,73,86,36
1,80,91,6
1,77,92,6
1,74,96,89
1,86,96,0
1,75,108,224
1,87,108,0
1,88,92,64
1,76,92,0
1,77,99,102
1,89,99,0
1,84,94,96
1,92,102,0
1,86,89,3
1,68,99,4
1,63,105,0
1,80,91,3
1,89,83,3
1,91,88,0
1,84,88,96
1,80,84,4
1,86,88,3
1,89,82,3
1,91,83,0
1,92,94,3
1,63,99,3
1,68,97,10
1,84,97,116
1,86,92,3
1,91,89,3
1,89,86,3
1,80,92,0
1,92,105,3
1,68,105,4
1,63,105,0
1,77,94,602
1,89,92,0
1,84,96,51
1,86,92,0
1,91,91,16
1,89,92,0
1,92,105,4
1,80,89,0
1,63,101,19
1,68,102,6
1,92,102,99
1,84,89,10
1,91,88,3
1,86,89,3
1,80,91,3
1,89,82,4
1,63,102,9
1,68,102,3
1,84,97,106
1,91,92,6
1,86,97,3
1,80,94,0
1,92,105,3
1,89,91,0
1,63,101,39
1,68,101,0
1,82,101,118
1,73,94,38
1,71,96,42
1,87,97,10
1,85,83,19
1,72,88,55
1,70,92,6
1,80,88,12
1,85,67,20
1,71,88,67
1,69,88,6
1,84,86,38
1,78,85,7
1,70,105,32
1,68,99,3
1,83,84,9
1,69,89,4
1,67,92,3
1,82,83,16
1,76,86,99
1,81,88,44
1,68,101,0
1,66,102,19
1,80,79,3
1,74,86,0
1,67,96,55
1,65,101,25
1,79,88,13
1,78,79,106
1,75,89,221
1,84,90,3
1,80,90,7
1,80,89,198
1,84,80,7
1,75,90,9
1,78,89,89
1,73,90,4
1,82,83,9
1,80,86,196
1,75,88,0
1,84,84,0
1,82,96,103
1,85,86,0
1,77,80,9
1,73,77,381
1,77,80,3
1,80,83,7
1,82,93,3
1,77,76,0
1,85,83,7
1,75,88,205
1,84,79,3
1,80,90,3
1,77,86,7
1,85,88,0
1,82,96,0
1,75,89,387
1,80,90,10
1,84,90,9
1,84,80,189
1,75,90,7
1,80,89,0
1,78,89,96
1,82,83,7
1,73,90,3
1,84,84,198
1,75,88,7
1,80,86,0
1,82,96,103
1,85,86,3
1,77,80,0
1,77,80,381
1,73,77,3
1,80,83,13
1,77,76,3
1,85,83,4
1,82,93,3
1,75,88,195
1,80,90,7
1,84,79,3
1,85,88,6
1,77,86,4
1,82,96,3
1,84,90,387
1,80,90,10
1,75,89,6
1,80,89,189
1,84,80,7
1,75,90,3
1,82,83,96
1,73,90,4
1,78,89,0
1,84,84,198
1,75,88,10
1,80,86,0
1,85,86,96
1,77,80,4
1,82,96,6
1,73,77,391
1,77,80,0
1,80,83,0
1,82,93,13
1,85,83,0
1,77,76,6
1,75,88,192
1,80,90,3
1,84,79,7
1,82,96,10
1,85,88,0
1,77,86,9
1,75,89,384
1,84,90,7
1,80,90,3
1,75,90,195
1,84,80,0
1,80,89,4
1,73,90,96
1,78,89,7
1,82,83,9
