track,note,velocity,time
1,50,127,37636
1,51,127,384
1,52,127,20
1,40,127,432
1,52,127,80
1,50,127,404
1,38,115,492
1,38,127,96
1,50,127,300
1,50,127,500
1,50,127,116
1,52,127,364
1,40,115,480
1,52,127,76
1,52,127,320
1,52,120,488
1,52,124,96
1,50,127,272
1,38,117,464
1,38,127,108
1,50,127,352
1,50,127,480
1,50,127,124
1,52,127,328
1,40,103,416
1,52,124,80
1,52,127,356
1,40,120,476
1,52,127,88
1,50,127,332
1,38,127,460
1,38,120,124
1,50,127,288
1,50,127,472
1,50,127,112
1,52,127,300
1,40,120,456
1,52,124,80
1,52,127,312
1,52,124,436
1,52,127,84
1,50,127,288
1,38,127,468
1,38,126,116
1,50,127,404
1,50,127,504
1,50,127,124
1,52,127,400
1,40,127,420
1,52,127,72
1,52,127,348
1,40,127,480
1,52,127,72
1,50,127,352
1,38,127,500
1,38,124,112
1,50,127,300
1,50,127,480
1,50,127,120
1,52,120,368
1,40,127,372
1,52,127,104
1,52,127,344
1,52,127,412
1,52,127,100
1,50,127,332
1,38,127,448
1,38,127,124
1,50,127,308
1,50,127,448
1,50,127,108
1,52,127,376
1,52,127,5952
1,40,127,424
1,40,127,120
1,50,127,388
1,38,127,472
1,38,127,112
1,52,127,328
1,40,127,456
1,40,127,116
1,50,127,332
1,38,120,452
1,38,127,120
1,52,127,300
1,40,124,444
1,40,127,96
1,50,127,312
1,38,120,416
1,38,127,132
1,50,127,312
1,38,127,432
1,38,127,120
1,52,127,324
1,40,127,436
1,40,127,104
1,52,127,312
1,40,127,428
1,52,127,76
1,50,127,404
1,38,127,440
1,38,127,124
1,50,127,300
1,50,127,464
1,50,127,84
1,52,127,376
1,40,124,444
1,52,127,76
1,52,127,356
1,52,127,432
1,52,127,84
1,50,127,412
1,38,127,468
1,38,127,124
1,50,127,336
1,50,127,452
1,50,127,116
1,52,127,460
1,40,127,444
1,52,127,84
1,52,127,436
1,52,127,472
1,52,127,104
1,50,127,440
1,38,127,480
1,38,127,124
1,50,127,356
1,50,127,488
1,50,127,116
1,52,127,452
1,40,127,488
1,52,127,84
1,52,127,440
1,52,127,508
1,52,127,112
1,50,127,404
1,38,126,472
1,38,127,124
1,50,127,280
1,50,127,496
1,50,127,120
1,52,127,444
1,52,127,13640
1,40,127,352
1,40,127,132
1,50,127,316
1,38,126,348
1,38,126,104
1,50,127,316
1,38,127,320
1,38,127,132
1,52,127,360
1,40,127,276
1,40,127,96
1,52,127,348
1,40,127,384
1,40,127,112
1,50,127,336
1,38,127,328
1,38,127,120
1,50,127,336
1,38,127,356
1,38,127,100
1,52,127,348
1,40,127,360
1,40,127,88
1,52,127,324
1,40,127,420
1,40,127,120
1,50,127,316
1,38,127,432
1,38,127,116
1,52,127,296
1,40,127,364
1,40,127,80
1,50,127,312
1,38,127,348
1,38,127,116
1,52,127,344
1,40,127,332
1,40,127,112
1,50,127,364
1,38,127,384
1,38,127,120
1,52,127,300
1,40,127,360
1,40,127,132
1,50,127,364
1,38,127,316
1,38,127,128
1,52,127,368
1,40,127,296
1,40,127,112
1,50,127,312
1,38,127,348
1,38,127,136
1,50,127,364
1,38,127,328
1,38,127,124
1,52,127,376
1,40,127,344
1,40,127,96
1,52,127,372
1,40,127,316
1,40,127,96
1,50,127,340
1,38,127,384
1,38,127,116
1,50,127,324
1,38,127,384
1,38,127,116
1,52,127,356
1,40,127,340
1,40,127,132
1,52,127,312
1,52,127,1324
2,74,118,748
2,62,111,4
2,75,113,16
2,63,108,4
2,76,105,20
2,64,111,4
2,64,113,6100
2,76,127,0
2,64,111,5376
2,76,125,0
2,74,125,22576
2,62,125,0
2,75,113,12
2,63,122,0
2,76,113,0
2,64,113,0
2,76,127,1244
2,64,113,0
2,74,127,136
2,62,122,0
2,62,122,1472
2,74,127,0
2,62,126,792
2,74,126,0
2,64,126,124
2,76,126,0
2,66,126,28
2,78,126,0
2,62,126,120
2,74,126,0
2,76,126,124
2,64,126,0
2,83,126,796
2,71,126,4
2,69,126,24
2,81,126,0
2,79,126,24
2,67,126,4
2,64,126,28
2,76,126,4
2,81,126,24
2,69,126,4
2,79,126,24
2,67,126,0
2,76,126,28
2,64,126,0
2,76,126,28
2,64,126,0
2,64,126,1276
2,76,126,0
2,62,126,120
2,74,126,0
2,62,126,1464
2,74,126,0
2,62,126,796
2,74,126,0
2,76,126,124
2,64,126,0
2,66,126,24
2,78,126,0
2,74,126,120
2,62,126,0
2,76,126,128
2,64,126,0
2,71,126,796
2,83,126,0
2,69,126,28
2,81,126,0
2,67,126,24
2,79,126,0
2,64,126,32
2,76,126,4
2,81,126,24
2,69,126,4
2,67,126,24
2,79,126,0
2,76,126,24
2,64,126,4
2,64,126,24
2,76,126,4
2,64,127,312
2,76,127,0
2,64,111,4580
2,76,113,8
2,66,113,132
2,78,116,0
2,79,118,132
2,67,98,8
2,78,113,16
2,66,118,0
2,76,116,20
2,64,108,12
2,64,111,4996
2,76,113,4
2,78,118,136
2,66,122,0
2,79,116,124
2,67,94,8
2,66,118,20
2,78,116,0
2,76,116,20
2,64,105,16
2,76,122,1304
2,64,116,8
2,74,127,120
2,62,116,8
2,74,127,1412
2,62,116,0
2,64,94,1920
2,76,101,4
2,66,116,124
2,78,116,4
2,67,116,132
2,79,111,4
2,66,103,16
2,78,113,4
2,76,113,36
2,64,96,0
2,76,127,1236
2,64,113,0
2,62,116,112
2,74,127,0
2,74,125,1456
2,62,118,4
2,64,118,1404
2,76,127,4
2,71,126,4196
2,83,126,0
2,81,126,24
2,69,126,0
2,67,126,24
2,79,126,4
2,64,126,24
2,76,126,4
2,69,126,24
2,81,126,4
2,67,126,28
2,79,126,4
2,64,126,28
2,76,126,0
2,64,126,24
2,76,126,4
2,76,126,1272
2,64,126,0
2,62,126,128
2,74,126,0
2,74,126,1272
2,62,126,0
2,76,126,128
2,64,126,0
2,76,126,1272
2,64,126,0
2,74,126,128
2,62,126,0
2,62,126,1272
2,74,126,0
2,76,126,128
2,64,126,0
2,76,126,1272
2,64,126,0
2,62,126,120
2,74,126,0
2,62,126,1464
2,74,126,0
2,62,126,796
2,74,126,0
2,76,126,124
2,64,126,0
2,78,126,28
2,66,126,0
2,62,126,120
2,74,126,0
2,76,126,120
2,64,126,0
2,71,126,796
2,83,126,0
2,81,126,28
2,69,126,0
2,67,126,24
2,79,126,4
2,64,126,24
2,76,126,0
2,69,126,28
2,81,126,0
2,67,126,28
2,79,126,0
2,64,126,24
2,76,126,4
2,64,126,32
2,76,126,0
2,64,116,5008
2,76,113,8
2,66,113,120
2,78,118,0
2,67,113,116
2,79,86,0
2,66,113,24
2,78,122,4
2,76,122,16
2,64,108,4
2,64,116,4952
2,76,113,4
2,66,116,112
2,78,122,8
2,67,113,112
2,79,116,0
2,66,113,32
2,78,113,4
2,76,125,40
2,64,111,0
2,76,122,1284
2,64,116,8
2,74,127,120
2,62,116,8
2,74,127,1416
2,62,116,0
2,64,94,1920
2,76,101,4
2,66,116,124
2,78,116,4
2,67,116,128
2,79,111,4
2,66,103,16
2,78,113,4
2,76,113,36
2,64,96,0
2,76,127,1236
2,64,113,0
2,62,116,112
2,74,127,0
2,74,125,1456
2,62,118,4
2,64,111,1408
2,76,118,0
2,64,116,1368
2,76,127,8
2,76,126,1260
2,64,126,0
2,62,126,120
2,74,126,0
2,62,126,1464
2,74,126,0
2,62,126,792
2,74,126,4
2,76,126,120
2,64,126,0
2,78,126,24
2,66,126,0
2,62,126,120
2,74,126,0
2,76,126,120
2,64,126,0
2,71,126,792
2,83,126,4
2,81,126,28
2,69,126,0
2,67,126,24
2,79,126,0
2,64,126,28
2,76,126,0
2,69,126,28
2,81,126,0
2,67,126,28
2,79,126,0
2,64,126,24
2,76,126,0
2,64,126,32
2,76,126,0
2,76,126,1272
2,64,126,0
2,62,126,124
2,74,126,0
2,62,126,1464
2,74,126,0
2,62,126,792
2,74,126,4
2,76,126,120
2,64,126,0
2,78,126,28
2,66,126,0
2,62,126,120
2,74,126,0
2,76,126,124
2,64,126,0
2,64,111,784
2,76,127,0
2,71,126,10460
2,83,126,0
2,81,126,20
2,69,126,0
2,67,126,24
2,79,126,4
2,64,126,20
2,76,126,4
2,69,126,28
2,81,126,0
2,67,126,28
2,79,126,0
2,64,126,28
2,76,126,4
2,64,126,28
2,76,126,0
2,64,126,1272
2,76,126,0
2,62,126,128
2,74,126,0
2,76,126,1476
2,64,126,0
2,64,126,1272
2,76,126,0
2,62,126,128
2,74,126,0
2,76,126,1468
2,64,126,0
2,76,126,1272
2,64,126,0
2,62,126,124
2,74,126,0
2,64,126,1468
2,76,126,0
2,76,126,1272
2,64,126,0
2,74,126,128
2,62,126,0
2,76,126,1468
2,64,126,0
2,64,126,1276
2,76,126,0
2,62,126,120
2,74,126,4
2,62,126,1464
2,74,126,0
2,62,126,796
2,74,126,0
2,76,126,124
2,64,126,0
2,66,126,24
2,78,126,0
2,74,126,120
2,62,126,0
2,76,126,128
2,64,126,4
2,71,126,796
2,83,126,0
2,69,126,28
2,81,126,0
2,67,126,24
2,79,126,0
2,64,126,32
2,76,126,4
2,81,126,24
2,69,126,4
2,67,126,28
2,79,126,0
2,76,126,24
2,64,126,4
2,64,126,24
2,76,126,4
2,64,108,312
2,88,127,0
2,64,126,856
2,76,126,0
2,62,126,120
2,74,126,4
2,62,126,1468
2,74,126,0
2,62,126,796
2,74,126,0
2,76,126,120
2,64,126,0
2,66,126,24
2,78,126,0
2,74,126,120
2,62,126,0
2,76,126,128
2,64,126,4
2,71,126,796
2,83,126,0
2,69,126,28
2,81,126,0
2,67,126,28
2,79,126,4
2,64,126,32
2,76,126,4
2,81,126,24
2,69,126,4
2,67,126,24
2,79,126,0
2,76,126,24
2,64,126,4
2,64,126,28
2,76,126,0
2,76,127,1456
2,64,116,0
3,64,126,38500
3,67,126,28
3,59,126,28
3,64,126,32
3,64,126,28
3,64,126,44
3,67,126,44
3,62,126,620
3,66,126,44
3,57,126,32
3,62,126,44
3,62,126,28
3,66,126,124
3,62,126,700
3,66,126,28
3,57,126,28
3,62,126,32
3,62,126,28
3,62,126,44
3,66,126,44
3,64,126,620
3,67,126,44
3,59,126,32
3,64,126,44
3,64,126,28
3,67,126,124
3,64,126,700
3,67,126,28
3,59,126,28
3,64,126,32
3,64,126,28
3,64,126,40
3,67,126,40
3,62,126,616
3,66,126,40
3,57,126,32
3,62,126,44
3,62,126,28
3,66,126,124
3,62,126,700
3,66,126,28
3,57,126,28
3,62,126,32
3,62,126,28
3,62,126,44
3,66,126,44
3,64,126,620
3,67,126,44
3,59,126,32
3,64,126,44
3,64,126,28
3,67,126,128
3,67,112,700
3,59,112,124
3,64,112,36
3,64,112,28
3,64,112,44
3,67,112,44
3,59,112,124
3,64,112,28
3,64,112,28
3,62,112,44
3,66,112,124
3,57,112,124
3,62,112,32
3,62,112,28
3,62,112,44
3,66,112,44
3,57,112,124
3,62,112,32
3,62,112,28
3,62,112,48
3,66,112,124
3,57,112,124
3,62,112,32
3,62,112,28
3,62,112,44
3,66,112,44
3,57,112,124
3,62,112,28
3,62,112,28
3,64,112,48
3,67,112,124
3,59,112,124
3,64,112,28
3,64,112,28
3,64,112,44
3,67,112,44
3,59,112,124
3,64,112,28
3,64,112,28
3,64,112,48
3,67,112,124
3,59,112,124
3,64,112,32
3,64,112,28
3,64,112,44
3,67,112,44
3,59,112,124
3,64,112,32
3,64,112,28
3,62,112,44
3,66,112,124
3,57,112,124
3,62,112,32
3,62,112,28
3,62,112,44
3,66,112,44
3,57,112,128
3,62,112,28
3,62,112,28
3,62,112,44
3,66,112,124
3,57,112,124
3,62,112,32
3,62,112,28
3,62,112,44
3,66,112,44
3,57,112,124
3,62,112,28
3,62,112,28
3,64,112,48
3,67,112,124
3,59,112,128
3,64,112,32
3,64,112,24
3,64,112,44
3,67,112,44
3,59,112,124
3,64,112,28
3,64,112,28
3,64,112,40
3,67,112,124
3,59,112,124
3,64,112,32
3,64,112,28
3,64,112,44
3,67,112,44
3,59,112,124
3,64,112,28
3,64,112,28
3,62,112,44
3,66,112,124
3,57,112,124
3,62,112,32
3,62,112,28
3,62,112,44
3,66,112,44
3,57,112,128
3,62,112,28
3,62,112,28
3,62,112,44
3,66,112,124
3,57,112,124
3,62,112,32
3,62,112,28
3,62,112,44
3,66,112,44
3,57,112,124
3,62,112,28
3,62,112,28
3,64,112,44
3,67,112,124
3,59,112,116
3,64,112,28
3,64,112,24
3,64,112,44
3,67,112,44
3,59,112,124
3,64,112,28
3,64,112,28
3,64,112,40
3,67,112,124
3,59,112,124
3,64,112,32
3,64,112,28
3,64,112,48
3,67,112,44
3,59,112,124
3,64,112,28
3,64,112,28
3,62,112,44
3,66,112,124
3,57,112,124
3,62,112,32
3,62,112,28
3,62,112,44
3,66,112,44
3,57,112,128
3,62,112,28
3,62,112,28
3,62,112,44
3,66,112,124
3,57,112,124
3,62,112,32
3,62,112,28
3,62,112,44
3,66,112,44
3,57,112,124
3,62,112,28
3,62,112,28
3,64,112,48
3,67,112,124
3,59,112,128
3,64,112,32
3,64,112,24
3,64,112,44
3,67,112,44
3,59,112,124
3,64,112,28
3,64,112,28
3,64,112,40
3,67,112,4732
3,59,112,124
3,64,112,32
3,64,112,28
3,64,112,48
3,67,112,44
3,59,112,128
3,64,112,28
3,64,112,32
3,62,112,48
3,66,112,124
3,57,112,124
3,62,112,32
3,62,112,28
3,62,112,44
3,66,112,44
3,57,112,124
3,62,112,28
3,62,112,32
3,64,112,48
3,67,112,124
3,59,112,124
3,64,112,32
3,64,112,28
3,64,112,44
3,67,112,44
3,59,112,124
3,64,112,28
3,64,112,32
3,62,112,48
3,66,112,124
3,57,112,124
3,62,112,32
3,62,112,28
3,62,112,44
3,66,112,44
3,57,112,124
3,62,112,28
3,62,112,32
3,64,112,48
3,64,126,124
3,67,126,28
3,59,126,28
3,64,126,32
3,64,126,28
3,64,126,44
3,67,126,44
3,59,126,44
3,64,126,128
3,62,126,128
3,62,126,124
3,66,126,28
3,57,126,28
3,62,126,32
3,62,126,28
3,62,126,52
3,66,126,44
3,57,126,44
3,62,126,124
3,64,126,28
3,64,126,32
3,62,126,124
3,66,126,28
3,57,126,28
3,62,126,32
3,62,126,28
3,62,126,44
3,66,126,44
3,57,126,44
3,62,126,124
3,64,126,128
3,64,126,124
3,67,126,28
3,59,126,28
3,64,126,40
3,64,126,28
3,64,126,44
3,67,126,44
3,59,126,48
3,64,126,128
3,62,126,128
3,67,112,124
3,59,112,124
3,64,112,32
3,64,112,28
3,64,112,44
3,67,112,44
3,59,112,124
3,64,112,28
3,64,112,28
3,62,112,44
3,66,112,124
3,57,112,124
3,62,112,32
3,62,112,28
3,62,112,44
3,66,112,44
3,57,112,128
3,62,112,28
3,62,112,28
3,62,112,44
3,66,112,124
3,57,112,124
3,62,112,32
3,62,112,28
3,62,112,44
3,66,112,44
3,57,112,124
3,62,112,28
3,62,112,28
3,64,112,44
3,67,112,124
3,59,112,128
3,64,112,32
3,64,112,24
3,64,112,44
3,67,112,44
3,59,112,124
3,64,112,28
3,64,112,28
3,64,112,44
3,67,126,124
3,59,126,124
3,64,126,32
3,64,126,28
3,64,126,44
3,67,126,44
3,71,126,124
3,66,126,28
3,64,126,28
3,62,126,44
3,66,126,124
3,57,126,124
3,62,126,32
3,62,126,28
3,62,126,44
3,66,126,44
3,57,126,124
3,62,126,28
3,62,126,28
3,62,126,44
3,66,126,124
3,57,126,124
3,62,126,32
3,62,126,28
3,62,126,44
3,66,126,44
3,57,126,132
3,62,126,28
3,62,126,28
3,64,126,44
3,67,126,124
3,59,126,124
3,64,126,32
3,64,126,28
3,64,126,40
3,67,126,44
3,59,126,124
3,64,126,24
3,64,126,24
3,64,126,40
3,67,126,120
3,59,126,124
3,64,126,32
3,64,126,28
3,64,126,44
3,67,126,44
3,59,126,124
3,64,126,28
3,64,126,28
3,62,126,44
3,66,126,124
3,57,126,124
3,62,126,32
3,62,126,28
3,62,126,44
3,66,126,44
3,57,126,124
