track,note,velocity,time
0,42,73,1
0,36,109,0
0,39,93,0
0,37,82,0
0,82,88,0
0,62,109,0
0,47,97,0
0,62,0,11
0,60,111,4
0,39,0,15
0,37,0,0
0,47,0,2
0,82,0,5
0,42,0,7
0,69,72,0
0,64,87,0
0,36,0,1
0,46,64,2
0,60,0,2
0,76,105,0
0,63,93,7
0,64,0,10
0,46,0,1
0,63,0,5
0,69,0,5
0,76,0,5
0,46,65,9
0,47,93,2
0,82,73,0
0,64,102,0
0,61,73,2
0,47,0,0
0,64,0,1
0,46,0,3
0,82,0,2
0,61,0,6
0,42,73,10
0,37,86,0
0,39,83,0
0,69,92,0
0,62,101,0
0,60,107,2
0,62,0,6
0,69,0,6
0,42,0,3
0,43,98,12
0,60,0,2
0,39,0,0
0,37,0,0
0,36,78,0
0,82,70,0
0,63,108,0
0,46,59,1
0,61,73,8
0,41,86,1
0,76,104,0
0,63,0,16
0,43,0,1
0,61,0,0
0,46,0,0
0,82,0,2
0,41,0,2
0,76,0,9
0,61,67,12
0,46,64,2
0,36,0,0
0,69,80,0
0,61,0,28
0,46,0,5
0,69,0,7
0,42,71,6
0,60,104,11
0,39,92,0
0,37,87,0
0,82,96,0
0,62,78,0
0,62,0,30
0,82,0,8
0,42,0,2
0,37,0,0
0,39,0,0
0,69,68,0
0,63,98,0
0,76,102,0
0,46,54,1
0,43,94,1
0,60,0,8
0,41,93,1
0,63,0,10
0,43,0,8
0,46,0,0
0,41,0,1
0,69,0,12
0,76,0,4
0,61,70,8
0,46,62,4
0,82,63,0
0,63,101,0
0,43,86,3
0,41,82,0
0,41,0,0
0,63,0,1
0,43,0,1
0,82,0,1
0,61,0,0
0,46,0,4
0,42,73,16
0,37,88,0
0,39,88,0
0,69,93,0
0,62,100,0
0,60,109,0
0,62,0,8
0,42,0,10
0,69,0,1
0,60,0,2
0,46,55,5
0,37,0,0
0,39,0,0
0,36,69,0
0,82,72,0
0,64,123,0
0,61,76,1
0,45,49,9
0,43,96,1
0,76,104,0
0,41,93,6
0,61,0,10
0,46,0,2
0,82,0,4
0,45,0,2
0,43,0,1
0,64,0,2
0,41,0,5
0,76,0,1
0,46,63,10
0,45,56,1
0,61,73,1
0,36,0,0
0,69,88,0
0,61,0,21
0,46,0,6
0,45,0,6
0,69,0,4
0,36,109,0
0,39,93,0
0,37,82,0
0,82,88,0
0,62,109,0
0,47,97,0
0,42,73,1
0,62,0,10
0,60,111,5
0,37,0,14
0,39,0,0
0,47,0,2
0,82,0,5
0,42,0,8
0,36,0,0
0,69,72,0
0,64,87,0
0,46,64,3
0,60,0,2
0,76,105,0
0,63,93,7
0,64,0,10
0,46,0,1
0,63,0,5
0,69,0,5
0,76,0,5
0,46,65,9
0,47,93,2
0,82,73,0
0,64,102,0
0,61,73,2
0,47,0,0
0,64,0,1
0,46,0,3
0,82,0,2
0,61,0,6
0,42,73,10
0,37,86,0
0,39,83,0
0,69,92,0
0,62,101,0
0,60,107,2
0,62,0,6
0,69,0,6
0,42,0,3
0,43,98,12
0,60,0,2
0,39,0,0
0,37,0,0
0,36,78,0
0,82,70,0
0,63,108,0
0,46,59,1
0,61,73,8
0,41,86,1
0,76,104,0
0,63,0,16
0,43,0,1
0,61,0,0
0,46,0,0
0,82,0,2
0,41,0,2
0,76,0,9
0,61,67,12
0,46,64,2
0,36,0,0
0,69,80,0
0,61,0,28
0,46,0,5
0,69,0,7
0,42,71,6
0,60,104,11
0,39,92,0
0,37,87,0
0,82,96,0
0,62,78,0
0,62,0,30
0,82,0,8
0,42,0,2
0,37,0,0
0,39,0,0
0,69,68,0
0,63,98,0
0,76,102,0
0,46,54,1
0,43,94,1
0,60,0,8
0,41,93,1
0,63,0,10
0,43,0,8
0,46,0,0
0,41,0,1
0,69,0,12
0,76,0,4
0,61,70,8
0,46,62,4
0,82,63,0
0,63,101,0
0,43,86,3
0,41,82,0
0,41,0,0
0,63,0,1
0,43,0,1
0,82,0,1
0,61,0,0
0,46,0,4
0,42,73,16
0,37,88,0
0,39,88,0
0,69,93,0
0,62,100,0
0,60,109,0
0,62,0,8
0,42,0,10
0,69,0,1
0,60,0,2
0,46,55,5
0,37,0,0
0,39,0,0
0,36,69,0
0,82,72,0
0,64,123,0
0,61,76,1
0,45,49,9
0,43,96,1
0,76,104,0
0,41,93,6
0,61,0,10
0,46,0,2
0,82,0,4
0,45,0,2
0,43,0,1
0,64,0,2
0,41,0,5
0,76,0,1
0,46,63,10
0,45,56,1
0,61,73,1
0,36,0,0
0,69,88,0
0,61,0,21
0,46,0,6
0,45,0,6
0,69,0,4
0,36,109,0
0,39,93,0
0,37,82,0
0,82,88,0
0,62,109,0
0,47,97,0
0,42,73,1
0,62,0,10
0,60,111,5
0,37,0,14
0,39,0,0
0,47,0,2
0,82,0,5
0,42,0,8
0,36,0,0
0,69,72,0
0,64,87,0
0,46,64,3
0,60,0,2
0,76,105,0
0,63,93,7
0,64,0,10
0,46,0,1
0,63,0,5
0,69,0,5
0,76,0,5
0,46,65,9
0,47,93,2
0,82,73,0
0,64,102,0
0,61,73,2
0,47,0,0
0,64,0,1
0,46,0,3
0,82,0,2
0,61,0,6
0,42,73,10
0,37,86,0
0,39,83,0
0,69,92,0
0,62,101,0
0,60,107,2
0,62,0,6
0,69,0,6
0,42,0,3
0,43,98,12
0,60,0,2
0,39,0,0
0,37,0,0
0,36,78,0
0,82,70,0
0,63,108,0
0,46,59,1
0,61,73,8
0,41,86,1
0,76,104,0
0,63,0,16
0,43,0,1
0,61,0,0
0,46,0,0
0,82,0,2
0,41,0,2
0,76,0,9
0,61,67,12
0,46,64,2
0,36,0,0
0,69,80,0
0,61,0,28
0,46,0,7
0,69,0,7
0,42,71,6
0,60,104,11
0,39,92,0
0,37,87,0
0,82,96,0
0,62,78,0
0,62,0,30
0,82,0,8
0,42,0,2
0,37,0,0
0,39,0,0
0,69,68,0
0,63,98,0
0,76,102,0
0,46,54,1
0,43,94,1
0,60,0,8
0,41,93,1
0,63,0,10
0,43,0,8
0,46,0,0
0,41,0,1
0,69,0,12
0,76,0,4
0,61,70,8
0,46,62,4
0,82,63,0
0,63,101,0
0,43,86,3
0,41,82,0
0,41,0,0
0,63,0,1
0,43,0,1
0,82,0,1
0,61,0,0
0,46,0,4
0,42,73,16
0,37,88,0
0,39,88,0
0,69,93,0
0,62,100,0
0,60,109,0
0,62,0,8
0,42,0,10
0,69,0,1
0,60,0,2
0,46,55,5
0,37,0,0
0,39,0,0
0,36,69,0
0,82,72,0
0,64,123,0
0,61,76,1
0,45,49,9
0,43,96,1
0,76,104,0
0,41,93,6
0,61,0,10
0,46,0,2
0,82,0,4
0,45,0,2
0,43,0,1
0,64,0,2
0,41,0,5
0,76,0,1
0,46,63,10
0,45,56,1
0,61,73,1
0,36,0,0
0,69,88,0
0,61,0,21
0,46,0,6
0,45,0,6
0,69,0,4
0,36,109,0
0,39,93,0
0,37,82,0
0,82,88,0
0,62,109,0
0,47,97,0
0,42,73,1
0,62,0,10
0,60,111,5
0,37,0,14
0,39,0,0
0,47,0,2
0,82,0,5
0,42,0,8
0,36,0,0
0,69,72,0
0,64,87,0
0,46,64,3
0,60,0,2
0,76,105,0
0,63,93,7
0,64,0,10
0,46,0,1
0,63,0,5
0,69,0,5
0,76,0,5
0,46,65,9
0,47,93,2
0,82,73,0
0,64,102,0
0,61,73,2
0,47,0,0
0,64,0,1
0,46,0,3
0,82,0,2
0,61,0,6
0,42,73,10
0,37,86,0
0,39,83,0
0,69,92,0
0,62,101,0
0,60,107,2
0,62,0,6
0,69,0,6
0,42,0,3
0,43,98,12
0,59,92,1
0,60,0,1
0,39,0,0
0,37,0,0
0,36,78,0
0,82,70,0
0,63,108,0
0,46,59,1
0,61,73,8
0,41,86,1
0,76,104,0
0,63,102,2
0,63,0,14
0,43,0,1
0,61,0,0
0,46,0,0
0,82,0,2
0,41,0,2
0,59,0,3
0,63,0,3
0,76,0,3
0,61,67,12
0,59,82,1
0,46,64,1
0,36,0,0
0,69,80,0
0,63,91,2
0,61,0,26
0,46,0,5
0,59,0,6
0,69,0,1
0,63,0,2
0,42,71,4
0,64,100,10
0,60,104,1
0,39,92,0
0,37,87,0
0,82,96,0
0,62,78,0
0,68,104,12
0,62,0,18
0,64,0,2
0,68,0,5
0,82,0,1
0,42,0,2
0,64,93,19
0,68,90,1
0,37,0,0
0,39,0,0
0,69,68,0
0,63,98,0
0,76,102,0
0,46,54,1
0,43,94,1
0,60,0,8
0,41,93,1
0,63,0,10
0,43,0,8
0,46,0,1
0,41,0,1
0,68,0,4
0,64,0,5
0,69,0,3
0,76,0,4
0,61,70,8
0,46,62,4
0,82,63,1
0,63,101,0
0,68,94,1
0,43,86,2
0,41,82,0
0,71,105,8
0,41,0,19
0,63,0,1
0,43,0,1
0,82,0,1
0,61,0,0
0,46,0,4
0,42,73,16
0,37,88,7
0,39,88,0
0,69,93,0
0,62,100,0
0,60,109,0
0,71,0,37
0,62,0,1
0,68,0,2
0,42,0,8
0,69,0,1
0,60,0,2
0,66,88,5
0,46,55,0
0,37,0,4
0,39,0,0
0,36,69,0
0,82,72,0
0,64,123,0
0,61,76,1
0,70,97,1
0,45,49,8
0,43,96,1
0,76,104,0
0,41,93,6
0,61,0,10
0,46,0,2
0,82,0,5
0,45,0,2
0,66,0,1
0,43,0,0
0,70,0,2
0,64,0,0
0,41,0,5
0,76,0,1
0,46,63,10
0,45,56,1
0,61,73,1
0,36,0,3
0,69,88,0
0,68,97,6
0,64,92,0
0,61,0,15
0,46,0,6
0,66,94,6
0,45,0,0
0,64,0,1
0,69,0,3
0,68,0,1
0,70,92,3
0,64,85,16
0,36,109,3
0,39,93,0
0,37,82,0
0,82,88,0
0,62,109,0
0,47,97,0
0,42,73,1
0,62,0,10
0,60,111,5
0,68,91,5
0,70,0,1
0,66,0,2
0,37,0,6
0,39,0,0
0,47,0,2
0,68,0,5
0,82,0,0
0,42,0,8
0,64,0,1
0,36,0,14
0,69,72,0
0,64,87,0
0,46,64,3
0,60,0,2
0,76,105,0
0,68,97,7
0,63,93,0
0,64,100,2
0,64,0,8
0,46,0,9
0,63,0,5
0,69,0,5
0,76,0,5
0,46,65,9
0,47,93,2
0,82,73,3
0,64,102,0
0,61,73,2
0,47,0,28
0,64,0,1
0,46,0,3
0,82,0,2
0,61,0,6
0,42,73,10
0,37,86,8
0,39,83,0
0,69,92,0
0,62,101,0
0,60,107,2
0,68,0,22
0,64,0,10
0,62,0,2
0,69,0,6
0,42,0,3
0,66,96,10
0,43,98,2
0,58,97,2
0,60,0,0
0,39,0,1
0,37,0,0
0,36,78,0
0,82,70,0
0,63,108,0
0,46,59,1
0,61,73,8
0,41,86,1
0,76,104,0
0,66,0,13
0,63,0,3
0,43,0,1
0,61,0,0
0,46,0,3
0,58,0,1
0,82,0,1
0,41,0,2
0,76,0,9
0,61,67,12
0,66,94,2
0,46,64,0
0,36,0,3
0,69,80,0
0,58,91,6
0,66,0,20
0,61,0,2
0,58,0,5
0,46,0,2
0,69,0,7
0,42,71,6
0,66,91,5
0,58,82,1
0,60,104,5
0,39,92,1
0,37,87,0
0,82,96,0
0,62,78,0
0,62,0,30
0,58,0,5
0,82,0,3
0,42,0,2
0,66,0,12
0,68,86,1
0,59,93,2
0,37,0,5
0,39,0,0
0,69,68,0
0,63,98,0
0,76,102,0
0,46,54,1
0,43,94,1
0,60,0,8
0,41,93,1
0,63,0,10
0,43,0,8
0,46,0,1
0,68,0,1
0,41,0,0
0,59,0,10
0,69,0,2
0,76,0,4
0,58,92,6
0,61,70,2
0,66,94,1
0,46,62,3
0,82,63,1
0,63,101,0
0,43,86,3
0,41,82,0
0,68,94,24
0,41,0,3
0,63,0,1
0,43,0,1
0,82,0,1
0,61,0,0
0,66,0,4
0,46,0,0
0,66,91,13
0,42,73,3
0,37,88,7
0,39,88,0
0,69,93,0
0,62,100,0
0,60,109,0
0,68,0,13
0,58,0,18
0,66,0,3
0,62,0,4
0,64,102,5
0,42,0,5
0,69,0,1
0,60,0,2
0,61,94,1
0,46,55,4
0,37,0,4
0,39,0,0
0,36,69,0
0,82,72,0
0,64,123,0
0,61,76,1
0,45,49,9
0,43,96,1
0,76,104,0
0,41,93,6
0,61,0,10
0,46,0,2
0,82,0,5
0,45,0,2
0,43,0,1
0,61,0,1
0,64,0,1
0,64,0,5
0,41,0,0
0,76,0,1
0,63,105,10
0,59,97,0
0,46,63,0
0,45,56,1
0,61,73,1
0,36,0,3
0,69,88,0
0,61,0,21
0,46,0,6
0,45,0,6
0,69,0,4
0,36,109,23
0,39,93,0
0,37,82,0
0,82,88,0
0,62,109,0
0,47,97,0
0,42,73,1
0,62,0,10
0,60,111,5
0,59,0,13
0,63,0,1
0,37,0,0
0,39,0,0
0,47,0,2
0,82,0,5
0,42,0,8
0,59,94,12
0,63,92,3
0,36,0,0
0,69,72,0
0,64,87,0
0,46,64,3
0,60,0,2
0,76,105,0
0,63,93,7
0,64,0,10
0,46,0,9
0,63,0,5
0,69,0,5
0,76,0,5
0,46,65,9
0,47,93,2
0,82,73,3
0,64,102,0
0,61,73,2
0,47,0,28
0,64,0,1
0,46,0,3
0,82,0,2
0,61,0,6
0,42,73,10
0,37,86,8
0,39,83,0
0,69,92,0
0,62,101,0
0,60,107,2
0,63,0,11
0,59,0,1
0,62,0,22
0,69,0,6
0,42,0,3
0,43,98,12
0,59,100,2
0,60,0,0
0,39,0,1
0,37,0,0
0,36,78,0
0,82,70,0
0,63,108,0
0,46,59,1
0,61,73,8
0,41,86,1
0,76,104,0
0,63,98,10
0,63,0,6
0,43,0,1
0,61,0,0
0,59,0,1
0,63,0,1
0,46,0,1
0,82,0,2
0,41,0,2
0,76,0,9
0,61,67,12
0,46,64,2
0,63,92,2
0,59,90,0
0,36,0,1
0,69,80,0
0,61,0,28
0,59,0,2
0,63,0,4
0,46,0,1
0,69,0,7
0,42,71,6
0,68,100,9
0,64,100,0
0,60,104,2
0,39,92,1
0,37,87,0
0,82,96,0
0,62,78,0
0,68,0,28
0,64,0,1
0,62,0,1
0,82,0,8
0,42,0,2
0,68,91,15
0,64,96,3
0,37,0,2
0,39,0,0
0,69,68,0
0,63,98,0
0,76,102,0
0,46,54,1
0,43,94,1
0,60,0,8
0,41,93,1
0,63,0,10
0,43,0,8
0,68,0,1
0,46,0,0
0,41,0,1
0,64,0,1
0,69,0,11
0,76,0,4
0,70,98,2
0,61,70,6
0,46,62,4
0,68,98,1
0,82,63,0
0,63,101,0
0,43,86,3
0,41,82,0
0,71,86,11
0,70,0,6
0,41,0,10
0,63,0,1
0,43,0,1
0,82,0,1
0,61,0,0
0,46,0,4
0,42,73,16
0,37,88,7
0,39,88,0
0,69,93,0
0,62,100,0
0,60,109,0
0,71,0,20
0,68,0,9
0,62,0,9
0,42,0,10
0,69,0,1
0,70,100,2
0,60,0,0
0,66,98,2
0,46,55,3
0,37,0,4
0,39,0,0
0,36,69,0
0,82,72,0
0,64,123,0
0,61,76,1
0,45,49,9
0,43,96,1
0,76,104,0
0,41,93,6
0,70,0,6
0,61,0,4
0,46,0,2
0,66,0,2
0,82,0,3
0,45,0,2
0,43,0,1
0,64,0,2
0,41,0,5
0,76,0,1
0,68,104,6
0,46,63,4
0,45,56,1
0,64,101,1
0,61,73,0
0,36,0,3
0,69,88,0
0,61,0,21
0,46,0,6
0,45,0,6
0,69,0,4
0,36,109,23
0,39,93,0
0,37,82,0
0,82,88,0
0,62,109,0
0,47,97,0
0,42,73,1
0,62,0,10
0,60,111,5
0,64,0,11
0,37,0,3
0,39,0,0
0,68,0,1
0,47,0,1
0,82,0,5
0,42,0,8
0,68,98,12
0,64,90,1
0,36,0,2
0,69,72,0
0,64,87,0
0,46,64,3
0,60,0,2
0,76,105,0
0,63,93,7
0,64,0,10
0,46,0,9
0,63,0,5
0,69,0,5
0,76,0,5
0,46,65,9
0,47,93,2
