track,note,velocity,time
1,64,113,40032
1,67,113,96
1,71,113,88
1,64,109,124
1,64,113,132
1,67,118,116
1,62,109,692
1,66,113,116
1,69,109,4
1,62,113,128
1,62,113,40
1,66,113,104
1,62,116,676
1,66,108,4
1,69,113,8
1,62,109,104
1,62,113,116
1,66,113,112
1,64,113,680
1,67,113,116
1,71,113,4
1,64,109,108
1,64,113,44
1,67,113,104
1,64,113,668
1,67,113,96
1,71,113,88
1,64,109,124
1,64,113,132
1,67,118,116
1,62,109,692
1,66,113,116
1,69,109,4
1,62,113,128
1,62,113,40
1,66,113,104
1,62,116,676
1,66,108,4
1,69,113,8
1,62,109,104
1,62,113,116
1,66,113,112
1,64,113,680
1,67,113,116
1,71,113,4
1,64,109,108
1,64,113,44
1,67,113,104
1,64,113,668
1,67,113,96
1,71,113,88
1,64,109,124
1,64,113,132
1,67,118,116
1,62,109,692
1,66,113,116
1,69,109,4
1,62,113,128
1,62,113,40
1,66,113,104
1,62,116,676
1,66,108,4
1,69,113,8
1,62,109,104
1,62,113,116
1,66,113,112
1,64,113,680
1,67,113,116
1,71,113,4
1,64,109,108
1,64,113,44
1,67,113,104
1,64,113,668
1,67,113,96
1,71,113,88
1,64,109,124
1,64,113,132
1,67,118,116
1,62,109,692
1,66,113,116
1,69,109,4
1,62,113,128
1,62,113,40
1,66,113,104
1,62,116,676
1,66,108,4
1,69,113,8
1,62,109,104
1,62,113,116
1,66,113,112
1,64,113,680
1,67,113,116
1,71,113,4
1,64,109,108
1,64,113,44
1,67,113,104
1,64,113,668
1,67,113,96
1,71,113,88
1,64,109,124
1,64,113,132
1,67,118,116
1,62,109,692
1,66,113,116
1,69,109,4
1,62,113,128
1,62,113,40
1,66,113,104
1,62,116,676
1,66,108,4
1,69,113,8
1,62,109,104
1,62,113,116
1,66,113,112
1,64,113,680
1,67,113,116
1,71,113,4
1,64,109,108
1,64,113,44
1,67,113,104
1,64,113,668
1,67,113,96
1,71,113,88
1,64,109,124
1,64,113,132
1,67,118,116
1,62,109,692
1,66,113,116
1,69,109,4
1,62,113,128
1,62,113,40
1,66,113,104
1,62,116,676
1,66,108,4
1,69,113,8
1,62,109,104
1,62,113,116
1,66,113,112
1,62,121,6920
1,64,121,28
1,62,121,228
1,64,121,28
1,59,123,120
1,62,121,124
1,64,123,124
1,60,121,416
1,62,121,28
1,60,121,228
1,62,121,44
1,57,123,132
1,60,121,124
1,62,121,124
1,62,121,400
1,64,118,28
1,62,121,224
1,64,118,28
1,59,118,128
1,62,121,124
1,64,123,116
1,60,121,404
1,62,121,28
1,60,121,228
1,62,121,28
1,57,123,128
1,60,121,128
1,62,123,112
1,64,123,124
1,64,113,120
1,67,113,96
1,71,113,88
1,64,109,124
1,64,113,132
1,67,118,116
1,62,109,692
1,66,113,116
1,69,109,4
1,62,113,128
1,62,113,40
1,66,113,104
1,62,116,676
1,66,108,4
1,69,113,8
1,62,109,104
1,62,113,116
1,66,113,112
1,64,113,680
1,67,113,116
1,71,113,4
1,64,109,108
1,64,113,44
1,67,113,104
1,64,113,668
1,67,113,96
1,71,113,88
1,64,109,124
1,64,113,132
1,67,118,116
1,62,109,692
1,66,113,116
1,69,109,4
1,62,113,128
1,62,113,40
1,66,113,104
1,62,116,676
1,66,108,4
1,69,113,8
1,62,109,104
1,62,113,116
1,66,113,112
1,64,113,680
1,67,113,116
1,71,113,4
1,64,109,108
1,64,113,44
1,67,113,104
1,64,113,668
1,67,113,96
1,71,113,88
1,64,109,124
1,64,113,132
1,67,118,116
1,62,109,692
1,66,113,116
1,69,109,4
1,62,113,128
1,62,113,40
1,66,113,104
1,62,116,676
1,66,108,4
1,69,113,8
1,62,109,104
1,62,113,116
1,66,113,112
1,64,113,680
1,67,113,116
1,71,113,4
1,64,109,108
1,64,113,44
1,67,113,104
1,64,113,668
1,67,113,96
1,71,113,88
1,64,109,124
1,64,113,132
1,67,118,116
1,62,109,692
1,66,113,116
1,69,109,4
1,62,113,128
1,62,113,40
1,66,113,104
1,62,116,676
1,66,108,4
1,69,113,8
1,62,109,104
1,62,113,116
1,66,113,112
1,64,113,680
1,67,113,116
1,71,113,4
1,64,109,108
1,64,113,44
1,67,113,104
1,64,113,668
1,67,113,96
1,71,113,88
1,64,109,124
1,64,113,132
1,67,118,116
1,62,109,692
1,66,113,116
1,69,109,4
1,62,113,128
1,62,113,40
1,66,113,104
1,62,116,676
1,66,108,4
1,69,113,8
1,62,109,104
1,62,113,116
1,66,113,112
1,64,113,14504
1,67,113,96
1,71,113,88
1,64,109,124
1,64,113,132
1,67,118,116
1,62,109,692
1,66,113,116
1,69,109,4
1,62,113,128
1,62,113,40
1,66,113,104
1,62,116,676
1,66,108,4
1,69,113,8
1,62,109,104
1,62,113,116
1,66,113,112
1,64,113,680
1,67,113,116
1,71,113,4
1,64,109,108
1,64,113,44
1,67,113,104
1,64,113,668
1,67,113,96
1,71,113,88
1,64,109,124
1,64,113,132
1,67,118,116
1,62,109,692
1,66,113,116
1,69,109,4
1,62,113,128
1,62,113,40
1,66,113,104
1,62,116,676
1,66,108,4
1,69,113,8
1,62,109,104
1,62,113,116
1,66,113,112
1,64,113,680
1,67,113,116
1,71,113,4
1,64,109,108
1,64,113,44
1,67,113,104
1,62,121,764
1,64,121,28
1,62,121,228
1,64,121,28
1,59,123,120
1,62,121,124
1,64,123,124
1,60,121,416
1,62,121,28
1,60,121,228
1,62,121,44
1,57,123,132
1,60,121,124
1,62,121,124
1,62,121,400
1,64,118,28
1,62,121,224
1,64,118,28
1,59,118,128
1,62,121,124
1,64,123,116
1,60,121,404
1,62,121,28
1,60,121,228
1,62,121,28
1,57,123,128
1,60,121,128
1,62,123,112
1,64,123,124
1,64,113,120
1,67,113,96
1,71,113,88
1,64,109,124
1,64,113,132
1,67,118,116
1,62,109,692
1,66,113,116
1,69,109,4
1,62,113,128
1,62,113,40
1,66,113,104
1,62,116,676
1,66,108,4
1,69,113,8
1,62,109,104
1,62,113,116
1,66,113,112
1,64,113,680
1,67,113,116
1,71,113,4
1,64,109,108
1,64,113,44
1,67,113,104
1,64,113,668
1,67,113,96
1,71,113,88
1,64,109,124
1,64,113,132
1,67,118,116
1,62,109,692
1,66,113,116
1,69,109,4
1,62,113,128
1,62,113,40
1,66,113,104
1,62,116,676
1,66,108,4
1,69,113,8
1,62,109,104
1,62,113,116
1,66,113,112
1,64,121,488
1,62,121,14052
1,64,121,28
1,62,121,228
1,64,121,28
1,59,123,120
1,62,121,124
1,64,123,124
1,60,121,416
1,62,121,28
1,60,121,228
1,62,121,44
1,57,123,132
1,60,121,124
1,62,121,124
1,62,121,400
1,64,118,28
1,62,121,224
1,64,118,28
1,59,118,128
1,62,121,124
1,64,123,116
1,60,121,404
1,62,121,28
1,60,121,228
1,62,121,28
1,57,123,128
1,60,121,128
1,62,123,112
1,64,123,124
1,62,121,216
1,64,121,28
1,62,121,228
1,64,121,28
1,59,123,120
1,62,121,124
1,64,123,124
1,60,121,416
1,62,121,28
1,60,121,228
1,62,121,44
1,57,123,132
1,60,121,124
1,62,121,124
1,62,121,400
1,64,118,28
1,62,121,224
1,64,118,28
1,59,118,128
1,62,121,124
1,64,123,116
1,60,121,404
1,62,121,28
1,60,121,228
1,62,121,28
1,57,123,128
1,60,121,128
1,62,123,112
1,64,123,124
1,64,113,120
1,67,113,96
1,71,113,88
1,64,109,124
1,64,113,132
1,67,118,116
1,62,109,692
1,66,113,116
1,69,109,4
1,62,113,128
1,62,113,40
1,66,113,104
1,62,116,676
1,66,108,4
1,69,113,8
1,62,109,104
1,62,113,116
1,66,113,112
1,64,113,680
1,67,113,116
1,71,113,4
1,64,109,108
1,64,113,44
1,67,113,104
1,64,113,668
1,67,113,96
1,71,113,88
1,64,109,124
1,64,113,132
1,67,118,116
1,62,109,692
1,66,113,116
1,69,109,4
1,62,113,128
1,62,113,40
1,66,113,104
1,62,116,676
1,66,108,4
1,69,113,8
1,62,109,104
1,62,113,116
1,66,113,112
1,64,113,680
1,67,113,116
1,71,113,4
1,64,109,108
1,64,113,44
1,67,113,104
1,64,121,1916
2,59,113,40032
2,67,109,0
2,64,109,0
2,59,113,328
2,67,116,0
2,64,113,0
2,62,113,1104
2,66,109,0
2,57,116,0
2,62,113,1468
2,66,109,0
2,57,116,0
2,64,113,1468
2,59,116,0
2,67,116,0
2,64,109,1464
2,59,113,0
2,67,109,0
2,59,113,316
2,64,113,0
2,67,113,0
2,57,113,1084
2,62,113,0
2,66,109,0
2,62,109,1452
2,57,113,0
2,66,106,0
2,59,116,1456
2,64,113,0
2,67,116,0
2,59,113,1468
2,67,109,0
2,64,109,0
2,59,113,328
2,67,116,0
2,64,113,0
2,62,113,1104
2,66,109,0
2,57,116,0
2,62,113,1468
2,66,109,0
2,57,116,0
2,64,113,1468
2,59,116,0
2,67,116,0
2,64,109,1464
2,59,113,0
2,67,109,0
2,59,113,316
2,64,113,0
2,67,113,0
2,57,113,1084
2,62,113,0
2,66,109,0
2,62,109,1452
2,57,113,0
2,66,106,0
2,59,116,1456
2,64,113,0
2,67,116,0
2,59,113,1468
2,67,109,0
2,64,109,0
2,59,113,328
2,67,116,0
2,64,113,0
2,62,113,1104
2,66,109,0
2,57,116,0
2,62,113,1468
2,66,109,0
2,57,116,0
2,64,113,1468
2,59,116,0
2,67,116,0
2,64,109,1464
2,59,113,0
2,67,109,0
2,59,113,316
2,64,113,0
2,67,113,0
2,57,113,1084
2,62,113,0
2,66,109,0
2,62,109,1452
2,57,113,0
2,66,106,0
2,55,118,7408
2,64,118,0
2,59,118,0
2,54,116,104
2,62,118,0
2,57,118,0
2,55,118,80
2,59,121,0
2,64,118,0
2,54,116,60
2,62,118,0
2,57,116,0
2,55,116,72
2,59,118,0
2,64,118,0
2,59,113,96
2,67,109,0
2,64,109,0
2,59,113,328
2,67,116,0
2,64,113,0
2,62,113,1104
2,66,109,0
2,57,116,0
2,62,113,1468
2,66,109,0
2,57,116,0
2,64,113,1468
2,59,116,0
2,67,116,0
2,59,113,1464
2,67,109,0
2,64,109,0
2,59,113,328
2,67,116,0
2,64,113,0
2,62,113,1104
2,66,109,0
2,57,116,0
2,62,113,1468
2,66,109,0
2,57,116,0
2,64,113,1468
2,59,116,0
2,67,116,0
2,64,109,1464
2,59,113,0
2,67,109,0
2,59,113,316
2,64,113,0
2,67,113,0
2,57,113,1084
2,62,113,0
2,66,109,0
2,62,109,1452
2,57,113,0
2,66,106,0
2,59,116,1456
2,64,113,0
2,67,116,0
2,59,113,1468
2,67,109,0
2,64,109,0
2,59,113,328
2,67,116,0
2,64,113,0
2,62,113,1104
2,66,109,0
2,57,116,0
2,62,113,1468
2,66,109,0
2,57,116,0
2,64,113,1468
2,59,116,0
2,67,116,0
2,64,109,1464
2,59,113,0
2,67,109,0
2,59,113,316
2,64,113,0
2,67,113,0
2,57,113,1084
2,62,113,0
2,66,109,0
2,62,109,1452
2,57,113,0
2,66,106,0
2,59,118,2800
2,64,116,0
2,52,121,0
2,59,118,1188
2,52,118,0
2,64,118,0
2,57,118,108
2,62,118,0
2,50,121,0
2,62,118,1412
2,57,118,0
2,50,118,0
2,59,118,1396
2,52,116,0
2,64,118,0
2,52,118,1392
2,59,118,0
2,64,118,0
2,59,118,1208
2,64,118,0
2,52,118,0
2,57,118,108
2,50,121,0
2,62,116,0
2,62,118,1424
2,50,118,0
2,57,121,0
2,59,116,1404
2,52,118,0
2,64,118,0
2,59,113,1580
2,67,109,0
2,64,109,0
2,59,113,328
2,67,116,0
2,64,113,0
2,62,113,1104
2,66,109,0
2,57,116,0
2,62,113,1468
2,66,109,0
2,57,116,0
2,64,113,1468
2,59,116,0
2,67,116,0
2,64,109,1464
2,59,113,0
2,67,109,0
2,59,113,316
2,64,113,0
2,67,113,0
2,57,113,1084
2,62,113,0
2,66,109,0
2,62,109,1452
2,57,113,0
2,66,106,0
2,59,116,1456
2,64,113,0
2,67,116,0
2,59,118,1372
2,64,118,0
2,55,118,0
2,54,116,76
2,62,118,0
2,57,118,0
2,55,118,80
2,59,121,0
2,64,118,0
2,54,116,60
2,62,118,0
2,57,116,0
2,55,116,72
2,59,118,0
2,64,118,0
2,59,113,96
2,67,109,0
2,64,109,0
2,59,113,328
2,67,116,0
2,64,113,0
2,62,113,1104
2,66,109,0
2,57,116,0
2,62,113,1468
2,66,109,0
2,57,116,0
2,64,113,1468
2,59,116,0
2,67,116,0
2,64,109,1464
2,59,113,0
2,67,109,0
2,59,113,316
2,64,113,0
2,67,113,0
2,57,113,1084
2,62,113,0
2,66,109,0
2,62,109,1452
2,57,113,0
2,66,106,0
2,69,118,3472
2,74,118,0
2,71,113,60
2,66,118,0
2,64,109,60
2,69,109,0
2,66,116,40
2,71,113,0
2,69,109,60
2,74,116,0
2,69,113,44
2,74,116,0
2,62,113,8
2,69,113,32
2,74,118,0
2,62,113,4
2,67,113,8
2,72,113,0
2,62,109,12
2,69,116,24
2,74,116,0
2,62,113,96
2,67,113,32
2,72,113,0
2,62,113,44
2,69,116,20
2,74,116,0
2,62,116,96
2,69,113,64
2,74,113,0
2,62,109,20
2,67,116,24
2,72,116,0
2,62,116,96
2,69,109,28
2,74,116,0
2,62,113,40
2,69,116,8
2,74,118,0
2,62,113,4
2,67,113,84
2,72,113,0
2,62,113,24
2,76,116,20
2,71,113,0
2,64,113,96
2,69,116,0
2,74,113,0
2,64,113,40
2,71,113,28
2,76,116,0
2,64,113,96
2,69,116,28
2,74,113,0
2,64,113,32
2,71,113,20
2,76,116,0
2,64,116,96
2,64,109,76
2,71,116,8
2,76,113,0
2,64,113,96
2,69,116,64
2,74,113,0
2,64,113,28
2,71,116,28
2,76,118,0
2,64,113,96
2,69,116,8
2,74,113,0
2,64,113,40
2,71,116,20
2,76,116,0
2,64,113,96
2,64,113,8
2,69,116,36
2,74,116,0
2,62,118,96
2,67,113,12
2,72,109,0
2,62,113,28
2,74,116,24
2,69,116,0
2,62,116,96
2,67,113,16
2,72,106,0
2,62,113,40
2,74,116,12
2,69,116,0
2,62,116,96
2,62,113,8
2,69,116,16
2,74,113,0
2,62,113,96
2,67,113,68
2,72,113,0
2,62,113,20
2,69,116,28
2,74,118,0
2,62,113,96
2,67,116,0
2,72,109,0
2,62,118,48
2,69,116,16
2,74,118,0
2,62,113,96
2,62,113,4
2,71,113,24
2,76,116,0
2,64,118,96
2,69,116,16
2,74,113,0
2,64,116,20
2,71,109,20
2,76,113,0
2,64,116,16
2,69,116,36
2,74,118,0
2,70,116,52
2,75,116,0
2,55,118,48
2,59,118,0
2,64,118,0
2,71,121,0
2,76,121,0
2,54,116,172
2,62,118,0
2,57,118,0
2,55,118,80
2,59,121,0
2,64,118,0
2,54,116,60
2,62,118,0
2,57,116,0
2,55,118,72
2,59,118,0
2,64,118,0
2,54,116,172
2,62,118,0
2,57,118,0
2,55,118,80
2,59,121,0
2,64,118,0
2,54,116,60
2,62,118,0
2,57,116,0
2,55,116,72
2,59,118,0
2,64,118,0
2,59,113,96
2,67,109,0
2,64,109,0
2,59,113,328
2,67,116,0
2,64,113,0
2,62,113,1104
2,66,109,0
2,57,116,0
2,62,113,1468
2,66,109,0
2,57,116,0
2,64,113,1468
2,59,116,0
2,67,116,0
2,64,109,1464
2,59,113,0
2,67,109,0
2,59,113,316
2,64,113,0
2,67,113,0
2,57,113,1084
2,62,113,0
2,66,109,0
2,62,109,1452
2,57,113,0
2,66,106,0
2,59,116,1456
2,64,113,0
2,67,116,0
2,59,121,2716
2,64,121,0
2,67,121,0
3,40,126,40128
3,40,119,48
3,38,124,2904
3,38,122,44
3,40,122,2896
3,40,118,36
3,38,124,2892
3,38,122,48
3,40,126,2904
3,40,119,48
3,38,124,2904
3,38,122,44
3,40,122,2896
3,40,118,36
3,38,124,2892
3,38,122,48
3,40,126,2904
3,40,119,48
3,38,124,2904
3,38,122,44
3,40,122,2896
3,40,118,36
3,38,124,2892
3,38,122,48
3,40,126,13656
3,40,119,48
3,38,124,2904
3,38,122,44
3,40,126,2896
3,40,119,48
3,38,124,2904
3,38,122,44
3,40,122,2896
3,40,118,36
