track,note,velocity,time
1,79,57,240
1,72,57,0
1,72,0,475
1,79,0,0
1,79,57,5
1,72,57,0
1,72,0,238
1,79,0,0
1,72,70,2
1,81,70,0
1,81,0,475
1,72,0,0
1,79,57,245
1,72,57,0
1,72,0,475
1,79,0,0
1,79,57,5
1,72,57,0
1,72,0,238
1,79,0,0
1,76,68,2
1,72,68,0
1,72,0,475
1,76,0,0
1,77,54,245
1,72,54,0
1,72,0,475
1,77,0,0
1,72,54,5
1,77,54,0
1,77,0,238
1,72,0,0
1,74,65,2
1,79,65,0
1,79,0,475
1,74,0,0
1,76,51,245
1,72,51,0
1,72,0,475
1,76,0,0
1,72,51,5
1,76,51,0
1,76,0,238
1,72,0,0
1,67,60,2
1,72,60,0
1,72,0,475
1,67,0,0
1,67,45,240
1,72,45,0
1,72,0,475
1,67,0,0
1,67,45,5
1,72,45,0
1,72,0,238
1,67,0,0
1,72,55,2
1,69,55,0
1,69,0,475
1,72,0,0
1,72,45,245
1,67,45,0
1,67,0,475
1,72,0,0
1,72,46,5
1,67,46,0
1,67,0,238
1,72,0,0
1,72,54,2
1,64,54,0
1,64,0,475
1,72,0,0
1,65,43,245
1,67,43,0
1,67,0,475
1,65,0,0
1,67,43,5
1,65,43,0
1,65,0,238
1,67,0,0
1,67,58,2
1,67,0,475
1,67,34,245
1,64,34,0
1,64,0,475
1,67,0,0
1,67,34,5
1,64,34,0
1,64,0,238
1,67,0,0
1,64,45,2
1,67,45,0
1,67,0,475
1,64,0,0
1,79,57,240
1,72,57,0
1,72,0,475
1,79,0,0
1,72,57,5
1,79,57,0
1,79,0,238
1,72,0,0
1,72,70,2
1,81,70,0
1,81,0,475
1,72,0,0
1,79,57,245
1,72,57,0
1,72,0,475
1,79,0,0
1,72,57,5
1,79,57,0
1,79,0,238
1,72,0,0
1,72,68,2
1,76,68,0
1,76,0,475
1,72,0,0
1,72,54,245
1,77,54,0
1,77,0,475
1,72,0,0
1,72,54,5
1,77,54,0
1,77,0,238
1,72,0,0
1,74,67,2
1,79,67,0
1,79,0,475
1,74,0,0
1,72,51,245
1,76,51,0
1,76,0,475
1,72,0,0
1,72,51,5
1,76,51,0
1,76,0,238
1,72,0,0
1,67,63,2
1,72,63,0
1,72,0,475
1,67,0,0
1,72,45,240
1,67,45,0
1,67,0,475
1,72,0,0
1,67,45,5
1,72,45,0
1,72,0,238
1,67,0,0
1,72,56,2
1,69,56,0
1,69,0,475
1,72,0,0
1,67,45,245
1,72,45,0
1,72,0,475
1,67,0,0
1,72,46,5
1,67,46,0
1,67,0,238
1,72,0,0
1,72,55,2
1,64,55,0
1,64,0,475
1,72,0,0
1,67,43,245
1,65,43,0
1,65,0,475
1,67,0,0
1,67,43,5
1,65,43,0
1,65,0,238
1,67,0,0
1,67,54,2
1,67,0,475
1,67,34,245
1,64,34,0
1,64,0,475
1,67,0,0
1,67,34,5
1,64,34,0
1,64,0,238
1,67,0,0
1,67,46,2
1,64,46,0
1,64,0,475
1,67,0,0
1,67,46,240
1,64,46,0
1,72,46,0
1,72,0,475
1,64,0,0
1,67,0,0
1,72,46,5
1,64,46,0
1,67,46,0
1,67,0,238
1,64,0,0
1,72,0,0
1,69,55,2
1,72,55,0
1,64,55,0
1,64,0,475
1,72,0,0
1,69,0,0
1,70,47,240
1,64,47,0
1,72,47,0
1,72,0,475
1,64,0,0
1,70,0,0
1,72,47,5
1,64,47,0
1,70,47,0
1,70,0,238
1,64,0,0
1,72,0,0
1,70,57,2
1,72,57,0
1,65,57,0
1,65,0,475
1,72,0,0
1,70,0,0
1,70,54,240
1,67,54,0
1,72,54,0
1,72,0,475
1,67,0,0
1,70,0,0
1,72,54,5
1,67,54,0
1,70,54,0
1,70,0,238
1,67,0,0
1,72,0,0
1,70,67,2
1,73,67,0
1,67,67,0
1,67,0,475
1,73,0,0
1,70,0,0
1,70,57,240
1,67,57,0
1,74,57,0
1,74,0,475
1,67,0,0
1,70,0,0
1,74,57,5
1,67,57,0
1,70,57,0
1,70,0,238
1,67,0,0
1,74,0,0
1,70,73,2
1,76,73,0
1,67,73,0
1,67,0,475
1,76,0,0
1,70,0,0
1,77,59,240
1,69,59,0
1,74,59,0
1,74,0,475
1,69,0,0
1,77,0,0
1,74,59,5
1,69,59,0
1,77,59,0
1,77,0,238
1,69,0,0
1,74,0,0
1,70,82,2
1,76,82,0
1,67,82,0
1,67,0,475
1,76,0,0
1,70,0,0
1,69,63,240
1,65,63,0
1,74,63,0
1,74,0,475
1,65,0,0
1,69,0,0
1,69,63,5
1,65,63,0
1,74,63,0
1,74,0,238
1,65,0,0
1,69,0,0
1,69,83,2
1,73,83,0
1,64,83,0
1,64,0,475
1,73,0,0
1,69,0,0
1,69,68,240
1,65,68,0
1,74,68,0
1,74,0,475
1,65,0,0
1,69,0,0
1,69,69,5
1,65,69,0
1,74,69,0
1,74,0,238
1,65,0,0
1,69,0,0
1,66,87,2
1,72,87,0
1,63,87,0
1,63,0,475
1,72,0,0
1,66,0,0
1,65,75,240
1,62,75,0
1,72,75,0
1,72,0,475
1,62,0,0
1,65,0,0
1,65,75,5
1,62,75,0
1,72,75,0
1,72,0,238
1,62,0,0
1,65,0,0
1,65,89,2
1,71,89,0
1,62,89,0
1,62,0,475
1,71,0,0
1,65,0,0
1,72,73,240
1,67,73,0
1,67,0,475
1,72,0,0
1,67,73,5
1,72,73,0
1,72,0,238
1,67,0,0
1,72,91,2
1,69,91,0
1,69,0,475
1,72,0,0
1,67,76,245
1,72,76,0
1,72,0,475
1,67,0,0
1,72,76,5
1,67,76,0
1,67,0,238
1,72,0,0
1,67,91,2
1,72,91,0
1,64,91,0
1,64,0,475
1,72,0,0
1,67,0,0
1,72,81,245
1,67,81,0
1,65,81,0
1,65,0,475
1,67,0,0
1,72,0,0
1,72,81,5
1,67,81,0
1,65,81,0
1,65,0,238
1,67,0,0
1,72,0,0
1,72,96,2
1,67,96,0
1,67,0,475
1,72,0,0
1,72,84,245
1,67,84,0
1,64,84,0
1,64,0,475
1,67,0,0
1,72,0,0
1,72,84,5
1,67,84,0
1,64,84,0
1,64,0,238
1,67,0,0
1,72,0,0
1,72,99,2
1,67,99,0
1,60,99,0
1,60,0,475
1,67,0,0
1,72,0,0
1,64,76,240
1,72,76,0
1,67,76,0
1,67,0,475
1,72,0,0
1,64,0,0
1,64,76,5
1,67,76,0
1,72,76,0
1,72,0,238
1,67,0,0
1,64,0,0
1,65,92,2
1,72,92,0
1,67,92,0
1,67,0,475
1,72,0,0
1,65,0,0
1,64,76,245
1,67,76,0
1,72,76,0
1,72,0,475
1,67,0,0
1,64,0,0
1,64,76,5
1,72,76,0
1,67,76,0
1,67,0,238
1,72,0,0
1,64,0,0
1,67,91,2
1,72,91,0
1,60,91,0
1,60,0,475
1,72,0,0
1,67,0,0
1,72,75,245
1,62,75,0
1,67,75,0
1,67,0,475
1,62,0,0
1,72,0,0
1,72,75,5
1,62,75,0
1,67,75,0
1,67,0,238
1,62,0,0
1,72,0,0
1,72,91,2
1,64,91,0
1,67,91,0
1,67,0,475
1,64,0,0
1,72,0,0
1,72,74,245
1,67,74,0
1,60,74,0
1,60,0,475
1,67,0,0
1,72,0,0
1,72,74,5
1,60,74,0
1,60,0,238
1,72,0,0
1,72,92,2
1,60,92,0
1,60,0,360
1,72,0,0
1,67,46,240
1,64,46,0
1,72,46,0
1,72,0,475
1,64,0,0
1,67,0,0
1,72,46,5
1,64,46,0
1,67,46,0
1,67,0,238
1,64,0,0
1,72,0,0
1,69,56,2
1,72,56,0
1,64,56,0
1,64,0,475
1,72,0,0
1,69,0,0
1,70,47,240
1,64,47,0
1,72,47,0
1,72,0,475
1,64,0,0
1,70,0,0
1,72,47,5
1,64,47,0
1,70,47,0
1,70,0,238
1,64,0,0
1,72,0,0
1,70,58,2
1,72,58,0
1,65,58,0
1,65,0,475
1,72,0,0
1,70,0,0
1,70,54,240
1,67,54,0
1,72,54,0
1,72,0,475
1,67,0,0
1,70,0,0
1,72,54,5
1,67,54,0
1,70,54,0
1,70,0,238
1,67,0,0
1,72,0,0
1,70,67,2
1,73,67,0
1,67,67,0
1,67,0,475
1,73,0,0
1,70,0,0
1,70,57,240
1,67,57,0
1,74,57,0
1,74,0,475
1,67,0,0
1,70,0,0
1,74,57,5
1,67,57,0
1,70,57,0
1,70,0,238
1,67,0,0
1,74,0,0
1,70,73,2
1,76,73,0
1,67,73,0
1,67,0,475
1,76,0,0
1,70,0,0
1,77,59,240
1,69,59,0
1,74,59,0
1,74,0,475
1,69,0,0
1,77,0,0
1,74,59,5
1,69,59,0
1,77,59,0
1,77,0,238
1,69,0,0
1,74,0,0
1,70,82,2
1,76,82,0
1,67,82,0
1,67,0,475
1,76,0,0
1,70,0,0
1,69,63,240
1,65,63,0
1,74,63,0
1,74,0,475
1,65,0,0
1,69,0,0
1,69,63,5
1,65,63,0
1,74,63,0
1,74,0,238
1,65,0,0
1,69,0,0
1,69,83,2
1,73,83,0
1,64,83,0
1,64,0,475
1,73,0,0
1,69,0,0
1,69,68,240
1,65,68,0
1,74,68,0
1,74,0,475
1,65,0,0
1,69,0,0
1,69,69,5
1,65,69,0
1,74,69,0
1,74,0,238
1,65,0,0
1,69,0,0
1,66,87,2
1,72,87,0
1,63,87,0
1,63,0,475
1,72,0,0
1,66,0,0
1,65,75,240
1,62,75,0
1,72,75,0
1,72,0,475
1,62,0,0
1,65,0,0
1,65,75,5
1,62,75,0
1,72,75,0
1,72,0,238
1,62,0,0
1,65,0,0
1,65,89,2
1,71,89,0
1,62,89,0
1,62,0,475
1,71,0,0
1,65,0,0
1,72,73,240
1,67,73,0
1,67,0,475
1,72,0,0
1,67,73,5
1,72,73,0
1,72,0,238
1,67,0,0
1,72,91,2
1,69,91,0
1,69,0,475
1,72,0,0
1,67,76,245
1,72,76,0
1,72,0,475
1,67,0,0
1,72,76,5
1,67,76,0
1,67,0,238
1,72,0,0
1,67,91,2
1,72,91,0
1,64,91,0
1,64,0,475
1,72,0,0
1,67,0,0
1,72,81,245
1,67,81,0
1,65,81,0
1,65,0,475
1,67,0,0
1,72,0,0
1,72,81,5
1,67,81,0
1,65,81,0
1,65,0,238
1,67,0,0
1,72,0,0
1,72,98,2
1,67,98,0
1,67,0,475
1,72,0,0
1,72,84,245
1,67,84,0
1,64,84,0
1,64,0,475
1,67,0,0
1,72,0,0
1,72,84,5
1,67,84,0
1,64,84,0
1,64,0,238
1,67,0,0
1,72,0,0
1,72,98,2
1,67,98,0
1,60,98,0
1,60,0,475
1,67,0,0
1,72,0,0
1,64,79,240
1,72,79,0
1,67,79,0
1,67,0,475
1,72,0,0
1,64,0,0
1,64,79,5
1,67,79,0
1,72,79,0
1,72,0,238
1,67,0,0
1,64,0,0
1,65,95,2
1,72,95,0
1,67,95,0
1,67,0,475
1,72,0,0
1,65,0,0
1,64,79,245
1,67,79,0
1,72,79,0
1,72,0,475
1,67,0,0
1,64,0,0
1,64,79,5
1,72,79,0
1,67,79,0
1,67,0,238
1,72,0,0
1,64,0,0
1,67,95,2
1,72,95,0
1,60,95,0
1,60,0,475
1,72,0,0
1,67,0,0
1,72,77,245
1,62,77,0
1,67,77,0
1,67,0,475
1,62,0,0
1,72,0,0
1,72,77,5
1,62,77,0
1,67,77,0
1,67,0,238
1,62,0,0
1,72,0,0
1,72,95,2
1,64,95,0
1,67,95,0
1,67,0,475
1,64,0,0
1,72,0,0
1,72,76,245
1,67,76,0
1,60,76,0
1,60,0,475
1,67,0,0
1,72,0,0
1,72,76,5
1,60,76,0
1,60,0,238
1,72,0,0
1,72,95,2
1,60,95,0
1,60,0,480
1,72,0,0
2,64,68,1
2,67,68,0
2,55,61,254
2,63,51,480
2,66,51,0
2,67,0,1
2,64,0,0
2,63,0,468
2,66,0,0
2,64,70,5
2,67,70,0
2,55,0,310
2,55,59,0
2,67,0,480
2,64,0,0
2,67,51,0
2,60,51,0
2,60,0,461
2,67,0,0
2,67,69,5
2,62,69,0
2,55,0,282
2,55,58,0
2,62,0,480
2,67,0,0
2,59,47,0
2,67,47,0
2,67,0,461
2,59,0,0
2,60,69,5
2,67,69,0
2,55,0,353
2,55,57,0
2,67,0,477
2,60,0,3
2,60,46,0
2,64,46,0
2,64,0,452
2,60,0,0
2,64,66,1
2,55,0,310
2,55,46,0
2,65,39,480
2,64,0,1
2,65,0,461
2,64,66,5
2,55,0,353
2,55,44,0
2,64,0,477
2,60,39,3
2,60,0,461
2,62,59,5
2,55,0,328
2,55,44,0
2,62,0,480
2,64,38,0
2,64,0,465
2,60,57,5
2,55,0,353
2,55,44,0
2,60,0,480
2,60,35,0
2,60,0,468
2,55,0,5
2,67,73,1
2,64,73,0
2,55,61,310
2,63,51,480
2,66,51,0
2,64,0,1
2,67,0,0
2,63,0,459
2,66,0,0
2,64,73,5
2,67,73,0
2,55,0,310
2,55,59,0
2,67,0,480
2,64,0,0
2,60,51,0
2,67,51,0
2,67,0,457
2,60,0,0
2,62,70,5
2,67,70,0
2,55,0,282
2,55,58,0
2,67,0,480
2,62,0,0
2,59,47,0
2,67,47,0
2,67,0,463
2,59,0,0
2,60,71,5
2,67,71,0
2,55,0,296
2,55,57,0
2,67,0,476
2,60,0,4
2,60,46,0
2,64,46,0
2,64,0,460
2,60,0,0
2,64,66,1
2,55,0,183
2,55,46,0
2,65,39,480
2,64,0,1
2,65,0,457
2,64,66,5
2,55,0,226
2,55,44,0
2,64,0,477
2,60,39,3
2,60,0,461
2,62,59,5
2,55,0,353
2,55,44,0
2,62,0,480
2,64,38,0
2,64,0,462
2,60,57,5
2,55,0,339
2,55,44,0
2,60,0,480
2,60,35,0
2,60,0,465
2,55,0,5
2,58,60,0
2,60,58,268
2,58,0,480
2,57,56,0
2,57,0,466
2,55,64,0
2,60,0,290
2,60,60,0
2,55,0,480
2,53,58,0
2,53,0,465
2,52,70,0
2,60,0,303
2,60,68,0
2,60,0,480
2,52,0,0
2,61,68,0
2,51,68,0
2,51,0,465
2,50,78,0
2,61,0,282
2,62,73,0
2,62,0,480
2,50,0,0
2,64,73,0
2,49,73,0
2,49,0,474
2,64,0,0
2,50,86,0
2,62,81,268
2,62,0,480
2,50,0,0
2,55,77,0
2,43,77,0
2,43,0,464
2,55,0,0
2,45,95,0
2,57,92,240
2,57,0,480
2,45,0,0
2,45,90,0
2,33,90,0
2,33,0,468
2,45,0,0
2,38,102,0
2,50,95,337
2,50,0,480
2,38,0,0
2,44,92,0
2,32,92,0
2,32,0,464
2,44,0,0
2,31,105,0
2,43,105,0
2,43,0,226
2,31,0,0
2,55,100,0
2,55,0,480
2,43,95,0
2,31,95,0
2,31,0,470
2,43,0,0
2,36,108,0
2,36,0,324
2,52,90,0
2,52,0,480
2,53,86,0
2,53,0,462
2,52,108,0
2,36,90,339
2,52,0,480
2,48,87,0
2,48,0,462
2,36,0,0
2,50,110,0
2,36,92,328
2,50,0,480
2,52,87,0
2,52,0,475
2,36,0,0
2,48,109,0
2,36,93,254
2,48,0,480
2,43,91,0
2,43,0,470
2,36,0,0
2,52,108,0
2,43,91,0
2,36,86,212
2,43,0,480
2,52,0,0
2,45,79,0
2,53,94,0
2,53,0,468
2,45,0,0
2,36,0,0
2,43,91,0
2,52,108,0
2,36,86,226
2,52,0,480
2,43,0,0
2,40,78,0
2,48,93,0
2,48,0,470
2,40,0,0
2,36,0,0
2,41,90,0
2,50,106,0
2,36,87,212
2,50,0,480
2,41,0,0
2,43,79,0
2,52,94,0
2,52,0,468
2,43,0,0
2,36,0,0
2,40,89,0
2,48,105,0
2,36,88,388
2,48,0,480
2,40,0,0
2,48,95,0
2,48,0,344
2,36,0,120
2,58,60,0
2,60,58,367
2,58,0,480
2,57,56,0
2,57,0,466
2,55,64,0
2,60,0,303
2,60,60,0
2,55,0,480
2,53,58,0
2,53,0,473
2,52,70,0
2,60,0,252
2,60,68,0
2,60,0,480
2,52,0,0
