track,note,velocity,time
1,50,127,114796
1,74,127,0
1,86,121,4
1,62,103,16
1,55,103,0
1,58,103,0
1,79,103,4
1,75,112,4
1,51,121,0
1,87,121,0
1,62,94,0
1,55,94,4
1,58,94,4
1,50,127,0
1,74,112,4
1,86,121,0
1,54,112,48
1,78,121,4
1,57,103,16
1,81,103,0
1,75,121,16
1,51,127,0
1,63,112,0
1,87,121,4
1,78,90,8
1,54,94,4
1,57,112,0
1,81,90,0
1,86,94,88
1,62,103,0
1,50,127,0
1,74,121,0
1,86,127,24
1,74,121,0
1,62,127,0
1,50,127,4
1,54,94,8
1,78,112,0
1,81,127,32
1,57,121,0
1,75,121,32
1,63,103,0
1,87,121,4
1,51,127,0
1,62,127,16
1,86,121,4
1,50,127,0
1,74,121,0
1,79,112,48
1,55,121,0
1,82,112,44
1,58,103,4
1,86,121,8
1,74,103,0
1,50,112,0
1,62,121,0
1,79,84,96
1,55,92,0
1,58,101,0
1,82,78,0
1,74,121,28
1,50,112,0
1,62,121,0
1,86,121,0
1,50,127,8
1,74,127,0
1,86,121,4
1,79,103,12
1,55,103,4
1,58,127,40
1,82,94,0
1,63,121,32
1,51,121,0
1,75,121,12
1,87,121,0
1,62,121,44
1,50,127,4
1,74,112,4
1,86,121,0
1,54,112,36
1,78,121,4
1,81,103,16
1,57,103,0
1,60,121,16
1,48,127,0
1,84,121,4
1,72,121,0
1,79,86,28
1,75,90,0
1,51,103,4
1,55,112,0
1,86,94,20
1,62,103,0
1,50,127,0
1,74,121,0
1,86,127,24
1,74,121,0
1,62,127,0
1,50,127,4
1,54,94,8
1,78,112,0
1,81,127,32
1,57,121,0
1,75,112,24
1,87,121,4
1,63,103,4
1,51,127,4
1,76,127,12
1,88,124,4
1,64,127,0
1,52,127,4
1,79,112,48
1,55,121,0
1,82,112,44
1,58,103,4
1,87,121,8
1,75,103,0
1,51,112,0
1,63,121,0
1,55,121,32
1,58,112,4
1,82,94,4
1,79,103,0
1,86,127,8
1,74,121,0
1,62,127,0
1,50,127,4
1,79,112,8
1,55,94,0
1,82,127,32
1,58,121,0
1,63,103,32
1,75,121,0
1,87,121,4
1,51,127,0
1,50,127,16
1,74,112,4
1,86,121,0
1,54,112,48
1,78,121,4
1,57,103,16
1,81,103,0
1,72,121,16
1,48,127,0
1,60,112,0
1,84,121,4
1,78,90,8
1,54,94,4
1,57,112,0
1,81,90,0
1,86,94,88
1,62,103,0
1,50,127,0
1,74,121,0
1,86,127,24
1,74,121,0
1,62,127,0
1,50,127,4
1,54,94,8
1,78,112,0
1,81,127,32
1,57,121,0
1,75,121,32
1,63,103,0
1,87,121,4
1,51,127,0
1,62,127,16
1,86,121,4
1,50,127,0
1,74,121,0
1,79,112,48
1,55,121,0
1,82,112,44
1,58,103,4
1,87,121,8
1,75,103,0
1,51,112,0
1,63,121,0
1,79,84,96
1,55,92,0
1,58,101,0
1,82,78,0
1,76,121,28
1,52,112,0
1,64,121,0
1,88,121,0
1,55,112,0
1,79,121,4
1,58,103,16
1,82,103,0
1,51,127,16
1,75,121,0
1,87,121,0
1,63,112,0
1,55,103,0
1,58,94,0
1,82,94,0
1,79,90,0
1,86,124,32
1,50,127,0
1,62,103,0
1,74,121,0
1,54,86,16
1,78,70,0
1,81,94,32
1,57,103,0
1,60,112,32
1,84,112,0
1,72,121,40
1,48,127,0
1,60,112,0
1,84,121,4
1,78,90,8
1,54,94,4
1,57,112,0
1,81,90,0
1,86,94,88
1,62,103,0
1,50,127,0
1,74,121,0
1,86,127,24
1,74,121,0
1,62,127,0
1,50,127,4
1,54,94,8
1,78,112,0
1,81,127,32
1,57,121,0
1,75,121,32
1,63,103,0
1,87,121,4
1,51,127,0
1,62,127,16
1,86,121,4
1,50,127,0
1,74,121,0
1,79,112,48
1,55,121,0
1,82,112,44
1,58,103,4
1,87,121,8
1,51,112,0
1,63,121,0
1,75,103,0
1,82,86,32
1,58,94,0
1,79,94,0
1,55,121,4
1,76,121,44
1,52,112,0
1,64,121,0
1,88,121,0
1,55,94,12
1,79,103,4
1,58,103,92
1,82,103,4
1,75,112,36
1,51,121,0
1,87,121,4
1,55,94,4
1,58,94,4
1,79,78,4
1,82,82,0
1,50,127,0
1,74,112,4
1,86,121,0
1,54,78,44
1,78,78,4
1,57,103,40
1,81,103,8
1,60,112,36
1,84,112,8
1,72,121,44
1,48,127,0
1,60,112,0
1,84,121,4
1,78,90,8
1,54,94,4
1,57,112,0
1,81,90,0
1,50,103,92
1,62,112,0
1,86,121,8
1,74,112,0
1,50,112,104
1,62,112,4
1,86,121,4
1,74,121,0
1,57,112,108
1,81,121,4
1,87,103,92
1,63,112,4
1,75,112,0
1,51,112,8
1,62,127,104
1,86,121,4
1,50,127,0
1,74,121,0
1,79,112,48
1,55,121,0
1,82,112,44
1,58,103,4
1,87,121,8
1,75,103,0
1,51,112,0
1,63,121,0
1,79,103,28
1,82,103,0
1,55,103,4
1,58,86,0
1,50,127,124
1,74,127,0
1,62,121,0
1,86,121,4
1,55,103,20
1,79,112,4
1,58,112,44
1,82,103,0
1,87,127,148
1,75,103,0
1,51,121,0
1,63,127,0
1,50,127,56
1,74,112,4
1,86,121,0
1,62,121,0
1,54,112,28
1,78,121,4
1,57,103,36
1,81,103,0
1,72,121,16
1,48,127,0
1,60,112,0
1,84,121,4
1,78,90,8
1,54,94,4
1,57,112,0
1,81,90,0
1,86,94,88
1,62,103,0
1,50,127,0
1,74,121,0
1,86,127,24
1,74,121,0
1,62,127,0
1,50,127,4
1,54,94,8
1,78,112,0
1,81,112,24
1,57,103,4
1,63,112,152
1,75,103,0
1,87,121,0
1,51,121,0
1,64,127,112
1,88,121,4
1,52,127,0
1,76,121,0
1,79,112,48
1,55,121,0
1,82,112,44
1,58,103,4
1,89,121,8
1,77,103,0
1,53,112,0
1,65,121,0
1,55,103,40
1,79,112,0
1,52,121,8
1,64,121,4
1,76,112,0
1,88,127,4
1,55,114,12
1,79,112,4
1,58,103,24
1,82,103,12
1,63,127,40
1,51,121,4
1,75,112,0
1,87,121,4
1,79,94,4
1,55,103,0
1,50,127,20
1,62,127,0
1,74,112,4
1,86,121,0
1,54,78,16
1,78,86,8
1,81,121,40
1,57,103,0
1,84,121,40
1,60,121,4
1,72,121,40
1,48,127,0
1,60,112,0
1,84,121,4
1,78,90,8
1,54,94,4
1,57,112,0
1,81,90,0
1,62,112,96
1,50,112,0
1,74,112,0
1,86,127,4
1,62,103,68
1,50,112,0
1,74,112,12
1,86,127,0
1,57,121,68
1,81,127,12
1,63,103,88
1,75,121,0
1,87,121,0
1,51,127,4
1,62,127,16
1,86,121,4
1,50,127,0
1,74,121,0
1,79,112,48
1,55,121,0
1,82,112,44
1,58,103,4
1,87,121,8
1,75,103,0
1,51,112,0
1,63,121,0
1,55,112,24
1,58,94,4
1,79,94,4
1,82,103,0
1,50,127,100
1,74,127,0
1,62,121,0
1,86,121,4
1,55,94,16
1,79,103,4
1,82,103,48
1,58,94,0
1,87,121,80
1,51,121,0
1,75,112,0
1,63,112,4
1,50,127,48
1,74,112,4
1,86,121,0
1,62,112,4
1,54,112,24
1,78,121,4
1,57,103,16
1,81,103,0
1,75,121,16
1,51,127,0
1,63,112,0
1,87,121,4
1,54,86,20
1,78,103,8
1,63,112,28
1,51,94,4
1,87,103,4
1,75,112,0
1,86,121,132
1,74,121,0
1,50,112,0
1,62,112,4
1,60,121,80
1,84,103,4
1,62,112,36
1,86,121,8
1,90,103,32
1,78,112,0
1,54,103,4
1,66,121,4
1,67,127,76
1,55,121,4
1,79,121,8
1,91,121,0
1,75,103,64
1,87,103,4
1,51,103,8
1,63,94,0
1,76,121,36
1,88,121,0
1,64,112,12
1,52,121,0
1,77,121,72
1,89,121,0
1,53,121,4
1,65,112,4
1,78,121,80
1,90,112,4
1,66,121,0
1,54,103,4
1,91,121,80
1,79,121,4
1,67,121,0
1,55,121,4
1,62,86,16
1,86,78,12
1,80,112,76
1,56,121,4
1,92,121,0
1,68,94,0
1,62,94,12
1,86,86,0
1,57,127,156
1,69,103,4
1,81,112,4
1,93,103,0
1,60,112,8
1,84,103,4
1,87,112,152
1,63,103,4
1,67,112,24
1,91,112,4
1,55,103,0
1,79,112,8
1,87,84,20
1,63,103,4
1,66,112,36
1,90,103,0
1,54,112,0
1,78,121,4
1,69,112,32
1,81,121,4
1,45,94,12
1,57,103,0
1,48,94,108
1,72,112,4
1,84,103,4
1,60,103,0
1,66,121,128
1,78,121,0
1,90,121,0
1,54,112,0
1,89,112,124
1,65,121,0
1,77,112,4
1,53,121,0
1,82,86,76
1,58,82,8
1,86,94,24
1,62,112,8
1,88,121,36
1,64,112,12
1,76,103,36
1,88,127,4
1,64,121,4
1,79,127,40
1,82,121,4
1,63,121,8
1,67,112,44
1,55,103,0
1,79,127,4
1,58,103,0
1,62,103,16
1,74,103,0
1,50,90,4
1,50,103,36
1,62,121,4
1,74,121,0
1,51,121,72
1,75,121,4
1,63,103,0
1,62,103,88
1,50,112,4
1,74,112,4
1,86,121,0
1,54,121,52
1,78,121,4
1,57,103,136
1,81,103,0
1,72,121,16
1,48,127,0
1,60,112,0
1,84,121,4
1,78,90,8
1,54,94,4
1,57,112,0
1,81,90,0
1,86,94,88
1,50,127,0
1,74,121,0
1,86,127,24
1,74,121,0
1,62,127,0
1,50,127,4
1,57,94,8
1,81,112,0
1,51,113,40
1,63,95,0
1,75,95,4
1,87,113,0
1,51,103,48
1,63,112,0
1,75,112,4
1,87,127,0
1,57,103,72
1,81,94,4
1,52,94,20
1,64,103,4
1,76,94,8
1,88,112,4
1,64,121,36
1,52,121,0
1,88,127,12
1,76,121,4
1,54,86,92
1,79,102,12
1,57,93,20
1,82,111,12
1,63,112,36
1,51,103,4
1,87,121,4
1,75,94,4
1,87,121,48
1,75,103,0
1,51,112,0
1,63,121,0
1,79,84,96
1,55,92,0
1,58,101,0
1,82,78,0
1,74,121,28
1,50,112,0
1,62,121,0
1,86,121,0
1,50,127,8
1,74,127,0
1,86,121,4
1,55,94,8
1,79,86,4
1,58,103,28
1,82,103,8
1,75,112,20
1,87,112,0
1,63,121,0
1,51,103,8
1,50,127,60
1,62,112,0
1,86,121,0
1,74,121,4
1,78,94,24
1,54,90,0
1,81,103,32
1,57,103,8
1,84,112,28
1,72,103,0
1,48,112,8
1,60,103,4
1,84,107,36
1,72,103,0
1,48,121,12
1,60,103,0
1,54,86,20
1,78,90,4
1,62,112,12
1,50,121,0
1,86,121,8
1,74,112,0
1,50,121,76
1,62,112,0
1,74,112,4
1,86,121,0
1,57,121,72
1,81,127,0
1,87,121,76
1,75,121,4
1,63,121,8
1,51,103,0
1,86,121,100
1,50,121,0
1,62,127,0
1,74,121,4
1,79,103,72
1,55,103,8
1,82,103,36
1,58,94,0
1,75,121,24
1,87,121,4
1,63,112,4
1,51,112,0
1,87,103,36
1,75,121,4
1,63,121,0
1,51,112,4
1,79,84,100
1,55,92,0
1,58,101,0
1,82,78,0
1,52,103,28
1,76,112,0
1,64,112,0
1,88,112,4
1,76,103,40
1,64,103,0
1,88,94,0
1,52,94,0
1,55,94,52
1,79,86,4
1,51,112,40
1,75,112,0
1,63,94,0
1,87,112,0
1,75,103,40
1,87,112,0
1,63,112,0
1,51,112,0
1,55,94,36
1,79,112,0
1,74,103,12
1,50,112,0
1,62,112,4
1,86,112,0
1,86,103,40
1,50,103,0
1,74,112,0
1,62,121,0
1,54,94,24
1,78,103,0
1,60,112,24
1,84,112,0
1,48,112,0
1,72,112,0
1,84,74,32
1,48,112,0
1,72,112,0
1,60,112,0
1,54,90,24
1,78,103,4
1,62,112,40
1,50,112,0
1,86,121,4
1,74,121,0
1,74,112,96
1,86,127,0
1,50,121,4
1,62,121,0
1,54,94,16
1,78,112,0
1,81,127,32
1,57,121,0
1,75,121,32
1,63,103,0
1,87,121,4
1,51,127,0
1,62,127,16
1,86,121,4
1,50,127,0
1,74,121,0
1,79,112,48
1,55,121,0
1,82,112,44
1,58,103,4
1,87,121,8
1,75,103,0
1,51,112,0
1,63,121,0
1,79,84,96
1,55,92,0
1,58,101,0
1,82,78,0
1,76,121,28
1,52,112,0
1,64,121,0
1,88,121,0
1,64,127,12
1,52,112,4
1,76,121,4
1,88,121,0
1,55,94,52
1,79,86,4
1,51,112,40
1,75,112,0
1,63,94,0
1,87,112,0
1,75,103,40
1,87,112,0
1,63,112,0
1,51,112,0
1,55,94,36
1,79,112,0
1,74,103,12
1,50,112,0
1,62,112,4
1,86,112,0
1,86,103,40
1,50,103,0
1,74,112,0
1,62,121,0
1,54,94,24
1,78,103,0
1,60,112,24
1,84,112,0
1,48,112,0
1,72,112,0
1,84,74,32
1,48,112,0
1,72,112,0
1,60,112,0
1,54,90,24
1,78,103,4
1,62,112,40
1,50,112,0
1,86,121,4
1,74,121,0
1,74,112,96
1,86,127,0
1,50,121,4
1,62,121,0
1,54,94,16
1,78,112,0
1,81,127,32
1,57,121,0
1,75,121,32
1,63,103,0
1,87,121,4
1,51,127,0
1,50,112,24
1,74,121,0
1,62,121,0
1,86,121,4
1,69,121,808
1,93,127,0
1,81,112,8
1,57,112,4
1,94,127,52
1,70,112,12
1,58,121,0
1,82,103,0
1,95,127,48
1,59,112,12
1,83,121,0
1,71,121,4
1,96,121,48
1,84,112,8
1,60,103,4
1,72,121,4
1,65,103,76
1,101,125,0
1,89,121,8
1,77,121,0
1,74,121,60
1,86,112,0
1,98,120,4
1,62,82,12
1,87,112,56
1,99,127,4
1,75,121,4
1,63,94,4
1,60,112,56
1,84,112,4
1,96,121,4
1,72,127,4
1,62,112,40
1,86,127,16
1,74,103,4
1,98,121,0
1,57,121,32
1,69,121,8
1,81,121,8
1,93,127,4
1,84,121,48
1,72,112,0
1,60,121,4
1,96,112,0
1,58,112,100
1,70,103,0
1,94,112,4
1,82,112,0
1,54,103,84
1,78,121,0
1,90,121,4
1,66,103,8
1,57,112,80
1,81,112,0
1,69,121,4
1,93,121,4
1,52,103,100
1,76,127,0
1,64,112,4
1,88,121,4
1,67,112,52
1,55,121,0
1,91,121,4
1,79,121,4
1,63,127,32
1,75,127,4
1,74,112,36
1,62,121,0
1,60,121,32
1,72,127,8
1,58,66,48
1,70,127,0
1,45,121,20
1,57,121,16
1,69,127,4
1,69,127,64
1,57,127,32
1,67,121,56
1,55,121,8
1,66,121,44
1,54,121,0
1,51,127,24
1,63,127,0
1,75,103,24
1,62,127,16
1,50,127,4
1,38,127,16
1,74,121,0
1,38,127,44
1,74,127,8
1,50,127,0
1,62,127,4
1,40,121,28
1,76,127,0
1,52,127,4
1,64,127,8
1,42,127,48
1,54,127,4
1,78,127,0
1,66,127,4
1,67,121,36
1,55,112,0
1,43,121,0
1,79,127,12
1,45,127,32
1,57,121,4
1,69,103,0
1,81,127,8
1,46,121,36
1,70,127,12
1,58,127,0
1,82,127,4
1,48,112,28
1,72,127,12
1,60,127,4
1,84,127,0
1,50,127,48
1,74,127,4
1,62,127,4
1,86,127,8
1,51,127,24
1,75,127,8
1,87,94,0
1,63,94,0
1,75,103,52
1,51,103,4
1,87,94,20
1,63,103,8
1,75,112,44
1,51,103,4
1,87,86,20
1,78,112,184
1,54,103,4
1,86,127,60
1,74,121,0
1,50,121,12
1,62,121,0
1,54,121,4
1,78,103,64
1,54,121,36
1,78,121,0
1,51,94,36
1,63,112,4
1,75,112,8
1,87,121,0
1,52,121,20
1,64,103,4
1,76,121,0
1,88,121,4
1,55,121,48
1,79,127,4
1,58,121,36
1,82,127,0
1,53,112,48
1,65,127,4
1,77,112,0
1,89,121,0
1,64,112,64
1,88,127,4
1,76,127,0
1,52,127,0
1,79,121,184
1,55,121,4
1,58,121,60
1,82,121,4
1,54,121,72
1,78,127,4
1,66,112,0
1,90,103,4
1,67,121,36
1,91,127,8
1,55,127,0
1,79,127,4
1,84,121,20
1,60,127,4
1,87,121,56
1,63,103,0
1,91,121,36
1,79,121,0
