track,note,velocity,time
0,42,68,1336
0,70,65,0
0,42,70,32
0,70,59,0
0,42,66,92
0,70,61,0
0,42,71,92
0,70,61,0
0,42,71,92
0,70,68,0
0,42,69,92
0,42,69,92
0,70,65,0
0,70,61,92
0,42,68,92
0,70,59,0
0,42,69,92
0,70,64,0
0,42,63,92
0,70,61,0
0,42,69,92
0,70,60,0
0,42,66,92
0,70,67,0
0,42,69,92
0,46,93,92
0,70,68,0
0,70,66,92
0,42,66,92
0,70,64,0
0,42,66,92
0,70,64,0
0,42,71,92
0,70,67,0
0,42,62,92
0,70,66,0
0,42,66,92
0,70,65,0
0,42,68,92
0,42,68,92
0,70,64,0
0,70,66,92
0,42,70,80
0,70,64,0
0,42,68,92
0,70,61,0
0,42,64,92
0,70,67,0
0,42,64,92
0,43,120,0
0,70,66,0
0,42,65,92
0,70,68,0
0,42,70,92
0,46,100,92
0,70,65,0
0,70,67,92
0,67,97,0
0,42,64,92
0,70,68,0
0,42,66,92
0,70,63,0
0,42,63,92
0,70,60,0
0,67,102,0
0,42,66,92
0,70,65,0
0,42,67,92
0,70,65,0
0,42,70,92
0,42,65,92
0,70,65,0
0,70,65,92
0,42,71,92
0,70,59,0
0,68,102,0
0,42,69,92
0,70,65,0
0,42,65,92
0,70,61,0
0,42,70,92
0,43,121,0
0,70,66,0
0,68,95,0
0,42,67,68
0,70,59,0
0,42,65,92
0,46,98,92
0,70,68,0
0,70,67,92
0,67,102,0
0,42,65,92
0,70,61,0
0,42,64,92
0,70,62,0
0,42,66,92
0,70,66,0
0,67,98,0
0,42,70,92
0,70,60,0
0,42,69,92
0,70,65,0
0,42,66,92
0,42,66,92
0,70,65,0
0,70,60,92
0,42,69,92
0,70,59,0
0,42,63,92
0,70,63,0
0,42,71,92
0,70,59,0
0,42,71,92
0,43,121,0
0,70,65,0
0,42,70,92
0,70,62,0
0,42,66,68
0,46,94,68
0,70,66,0
0,70,64,80
0,67,99,0
0,42,66,92
0,70,67,0
0,62,96,0
0,67,101,0
0,70,96,0
0,67,119,0
0,70,120,0
0,70,120,0
0,42,70,20
0,70,68,0
0,62,94,0
0,70,94,0
0,67,102,0
0,42,68,16
0,70,66,0
0,67,102,0
0,62,99,0
0,67,97,0
0,70,95,0
0,42,63,24
0,70,60,0
0,62,98,0
0,67,102,0
0,70,96,0
0,67,116,0
0,70,114,0
0,70,117,0
0,42,71,20
0,70,67,0
0,67,96,0
0,70,101,0
0,62,99,0
0,42,62,44
0,67,97,0
0,62,95,0
0,70,98,0
0,42,71,44
0,70,67,0
0,62,101,0
0,67,102,0
0,70,100,0
0,70,59,44
0,62,95,0
0,67,101,0
0,70,98,0
0,42,67,44
0,70,64,0
0,68,103,0
0,62,98,0
0,67,99,0
0,70,96,0
0,42,62,44
0,70,68,0
0,62,101,0
0,67,99,0
0,70,97,0
0,42,68,44
0,70,67,0
0,62,96,0
0,67,95,0
0,70,99,0
0,42,68,44
0,70,62,0
0,68,99,0
0,62,96,0
0,67,97,0
0,70,94,0
0,42,64,44
0,70,66,0
0,42,64,32
0,46,97,92
0,70,62,0
0,70,66,92
0,67,103,0
0,42,66,92
0,70,61,0
0,42,62,92
0,70,64,0
0,42,63,92
0,70,66,0
0,67,103,0
0,62,113,0
0,42,64,92
0,70,67,0
0,42,65,16
0,70,68,0
0,62,118,0
0,42,65,92
0,42,62,16
0,70,61,0
0,62,116,0
0,70,68,92
0,42,64,16
0,70,61,0
0,65,114,0
0,42,69,20
0,70,62,0
0,42,64,16
0,70,62,0
0,67,117,0
0,42,65,92
0,70,59,0
0,42,63,92
0,70,60,0
0,42,70,92
0,46,99,24
0,70,66,0
0,67,112,0
0,70,62,92
0,67,96,0
0,42,70,92
0,70,61,0
0,42,64,92
0,70,67,0
0,42,70,24
0,70,63,0
0,67,98,0
0,62,97,0
0,67,102,0
0,70,97,0
0,42,71,44
0,70,63,0
0,42,63,92
0,70,60,0
0,42,65,92
0,42,67,92
0,70,67,0
0,70,60,92
0,42,65,92
0,70,64,0
0,68,97,0
0,62,99,0
0,70,96,0
0,67,97,0
0,42,62,44
0,70,63,0
0,42,64,92
0,70,63,0
0,42,68,92
0,70,59,0
0,68,101,0
0,62,98,0
0,70,99,0
0,67,97,0
0,42,65,44
0,70,59,0
0,42,65,92
0,46,98,92
0,70,66,0
0,70,68,92
0,67,102,0
0,42,66,92
0,70,67,0
0,42,67,92
0,70,63,0
0,42,69,92
0,70,63,0
0,67,103,0
0,62,100,0
0,67,103,0
0,70,98,0
0,42,69,44
0,70,61,0
0,42,67,92
0,70,61,0
0,42,68,92
0,62,99,0
0,67,98,0
0,70,101,0
0,42,68,44
0,70,61,0
0,70,66,92
0,42,70,92
0,70,62,0
0,62,96,0
0,67,101,0
0,70,102,0
0,42,67,44
0,70,59,0
0,42,65,92
0,70,61,0
0,62,112,0
0,42,71,92
0,70,62,0
0,42,66,16
0,70,66,0
0,62,119,0
0,42,70,92
0,46,97,16
0,70,68,0
0,65,113,0
0,70,68,92
0,67,99,0
0,42,68,16
0,70,59,0
0,69,94,0
0,60,96,0
0,65,99,0
0,69,116,0
0,42,63,20
0,70,59,0
0,60,99,0
0,65,94,0
0,69,99,0
0,42,69,44
0,70,61,0
0,67,102,0
0,60,102,0
0,69,96,0
0,65,96,0
0,42,71,44
0,70,66,0
0,65,94,0
0,69,101,0
0,60,96,0
0,42,64,24
0,70,67,0
0,65,100,0
0,60,98,0
0,69,102,0
0,70,112,0
0,42,65,44
0,65,96,0
0,69,97,0
0,60,101,0
0,42,64,16
0,70,63,0
0,60,102,0
0,65,102,0
0,69,99,0
0,69,115,0
0,70,62,44
0,65,96,0
0,60,94,0
0,69,97,0
0,42,67,44
0,70,67,0
0,68,99,0
0,65,100,0
0,60,101,0
0,69,100,0
0,42,65,44
0,70,67,0
0,65,101,0
0,69,96,0
0,60,99,0
0,42,70,24
0,70,61,0
0,65,100,0
0,60,99,0
0,69,98,0
0,65,116,0
0,42,62,44
0,70,61,0
0,68,95,0
0,69,96,0
0,65,99,0
0,60,97,0
0,42,65,16
0,70,66,0
0,63,117,0
0,42,64,92
0,46,93,16
0,70,64,0
0,63,112,0
0,70,59,92
0,67,101,0
0,36,126,92
0,42,65,0
0,70,68,0
0,31,114,0
0,42,67,92
0,70,65,0
0,58,95,0
0,67,101,0
0,63,102,0
0,42,63,24
0,70,62,0
0,67,102,0
0,67,103,0
0,58,94,0
0,63,103,0
0,63,112,0
0,42,63,16
0,70,68,0
0,38,119,0
0,67,99,0
0,58,97,0
0,63,101,0
0,36,119,16
0,42,68,0
0,70,66,0
0,67,96,0
0,58,102,0
0,63,95,0
0,70,115,0
0,42,64,20
0,67,98,0
0,58,98,0
0,63,100,0
0,42,65,16
0,70,59,0
0,41,116,0
0,67,95,0
0,58,100,0
0,63,95,0
0,72,120,0
0,70,63,44
0,58,101,0
0,67,100,0
0,63,99,0
0,36,118,16
0,42,70,0
0,70,60,0
0,58,102,0
0,67,97,0
0,63,100,0
0,70,119,0
0,42,68,44
0,70,68,0
0,63,102,0
0,58,102,0
0,67,100,0
0,42,70,44
0,70,59,0
0,58,94,0
0,63,94,0
0,67,94,0
0,42,70,24
0,70,61,0
0,38,115,0
0,63,94,0
0,67,95,0
0,58,103,0
0,67,118,0
0,36,118,44
0,42,65,0
0,70,65,0
0,42,63,92
0,46,101,16
0,70,59,0
0,43,122,0
0,67,120,0
0,70,64,20
0,67,96,0
0,36,122,92
0,42,62,0
0,70,63,0
0,65,71,0
0,70,96,0
0,67,103,0
0,62,95,0
0,42,68,44
0,70,63,0
0,65,77,0
0,62,100,0
0,67,98,0
0,70,102,0
0,42,63,44
0,70,60,0
0,67,97,0
0,65,76,0
0,67,101,0
0,62,94,0
0,70,99,0
0,42,67,24
0,70,63,0
0,38,119,0
0,65,77,0
0,62,98,0
0,67,95,0
0,70,101,0
0,36,117,44
0,42,64,0
0,70,59,0
0,65,72,0
0,62,97,0
0,67,97,0
0,70,102,0
0,42,67,24
0,65,77,0
0,67,96,0
0,62,99,0
0,70,98,0
0,42,66,16
0,70,61,0
0,41,114,0
0,65,70,0
0,67,100,0
0,62,101,0
0,70,98,0
0,70,62,44
0,67,76,0
0,67,97,0
0,62,99,0
0,70,101,0
0,36,119,44
0,42,70,0
0,70,64,0
0,68,98,0
0,65,71,0
0,67,96,0
0,62,103,0
0,70,95,0
0,42,65,44
0,70,62,0
0,65,74,0
0,67,101,0
0,62,98,0
0,70,102,0
0,42,66,44
0,70,60,0
0,62,98,0
0,67,102,0
0,70,97,0
0,42,66,24
0,70,64,0
0,68,98,0
0,38,116,0
0,65,76,0
0,62,95,0
0,67,103,0
0,70,103,0
0,36,117,44
0,42,68,0
0,70,59,0
0,42,62,92
0,65,77,0
0,46,102,16
0,70,66,0
0,31,120,0
0,65,68,0
0,70,64,44
0,67,99,0
0,67,68,0
0,36,123,44
0,42,62,0
0,70,65,0
0,65,70,0
0,42,67,44
0,70,67,0
0,65,76,0
0,42,71,44
0,70,60,0
0,67,96,0
0,65,77,0
0,42,66,24
0,70,59,0
0,38,115,0
0,65,76,0
0,36,119,44
0,42,65,0
0,70,59,0
0,65,71,0
0,42,62,44
0,65,77,0
0,42,66,16
0,70,60,0
0,41,116,0
0,67,76,0
0,70,68,44
0,62,113,0
0,65,75,0
0,36,119,44
0,42,71,0
0,70,62,0
0,55,108,0
0,59,113,0
0,42,65,92
0,70,62,0
0,42,64,92
0,70,60,0
0,42,62,24
0,70,62,0
0,38,119,0
0,36,125,92
0,42,62,0
0,70,65,0
0,52,112,0
0,55,114,0
0,42,69,92
0,46,96,16
0,70,59,0
0,43,117,0
0,70,64,92
0,67,99,0
0,36,124,8
0,42,62,0
0,49,122,0
0,70,61,0
0,62,80,0
0,31,117,0
0,62,75,0
0,67,77,0
0,70,76,0
0,67,121,0
0,70,121,0
0,74,120,0
0,70,119,0
0,70,67,20
0,42,69,16
0,70,62,0
0,67,96,0
0,42,68,16
0,70,60,0
0,62,77,0
0,38,119,0
0,67,119,0
0,70,113,0
0,74,114,0
0,70,112,0
0,36,123,92
0,38,119,0
0,42,68,0
0,70,65,0
0,63,82,0
0,63,83,92
0,42,66,16
0,70,65,0
0,64,84,0
0,41,120,0
0,42,65,92
0,70,68,0
0,64,84,0
0,36,120,92
0,42,71,0
0,70,65,0
0,68,95,0
0,62,78,0
0,70,60,92
0,42,64,92
0,70,63,0
0,42,66,24
0,70,61,0
0,68,103,0
0,62,83,0
0,38,114,0
0,36,117,32
0,38,121,0
0,42,70,0
0,70,65,0
0,63,79,0
0,63,75,44
0,46,101,16
0,70,59,0
0,64,78,0
0,43,114,0
0,70,60,92
0,67,98,0
0,64,83,0
0,36,121,92
0,42,70,0
0,70,67,0
0,62,76,0
0,70,63,92
0,42,63,92
0,70,67,0
0,67,99,0
0,42,68,24
0,70,65,0
0,62,81,0
0,38,123,0
0,36,120,92
0,38,126,0
0,42,64,0
0,70,67,0
0,63,77,0
0,62,115,0
0,63,75,92
0,42,64,16
0,70,67,0
0,64,81,0
0,41,115,0
0,62,114,0
0,42,69,92
0,70,64,0
0,64,82,0
0,36,124,16
0,42,70,0
0,70,63,0
0,62,84,0
0,65,114,0
0,70,61,20
0,42,67,16
0,70,66,0
0,67,113,0
0,42,71,24
0,70,68,0
0,62,82,0
0,38,123,0
0,36,124,92
0,38,126,0
0,42,62,0
0,70,67,0
0,63,79,0
0,63,80,92
0,46,100,16
0,70,63,0
0,64,77,0
0,31,117,0
0,67,113,0
0,70,60,92
0,67,99,0
0,64,83,0
0,36,124,92
0,42,65,0
0,70,60,0
0,62,77,0
0,65,71,0
0,70,59,44
0,65,76,0
0,42,70,44
0,70,60,0
0,67,95,0
0,65,68,0
0,62,96,0
0,70,95,0
0,67,101,0
0,42,62,24
0,70,62,0
0,62,84,0
0,38,117,0
0,65,72,0
0,36,119,24
0,38,117,0
0,42,69,0
0,70,68,0
0,63,80,0
0,65,69,0
0,62,94,0
0,70,99,0
0,67,103,0
0,63,79,44
0,65,70,0
0,42,63,16
0,70,59,0
0,64,77,0
0,41,114,0
0,65,72,0
0,42,67,44
0,70,62,0
0,64,76,0
0,67,75,0
0,36,126,44
0,42,65,0
0,70,62,0
0,68,100,0
0,62,81,0
0,65,68,0
0,70,96,0
0,62,95,0
0,67,94,0
0,70,63,44
0,65,69,0
0,42,65,44
0,70,61,0
0,42,66,24
0,70,65,0
0,68,101,0
0,62,79,0
0,38,119,0
0,65,75,0
0,70,101,0
0,62,95,0
0,67,101,0
0,36,125,44
0,38,126,0
0,42,70,0
0,70,68,0
0,63,80,0
0,63,81,92
0,65,70,0
0,46,94,16
0,70,67,0
0,64,80,0
0,43,122,0
0,65,71,0
0,70,65,44
0,67,94,0
0,64,84,0
0,67,68,0
0,36,119,44
0,42,69,0
0,70,59,0
0,62,83,0
0,65,72,0
0,70,64,44
0,65,72,0
0,42,68,44
0,70,67,0
0,67,95,0
0,65,70,0
0,70,99,0
0,62,99,0
0,67,103,0
0,42,70,24
0,70,63,0
0,62,83,0
0,38,118,0
0,65,68,0
0,36,121,44
0,38,122,0
0,42,65,0
0,70,59,0
0,63,76,0
0,65,75,0
0,63,84,44
0,65,72,0
0,67,95,0
0,70,94,0
0,62,96,0
0,42,71,16
0,70,62,0
0,64,83,0
0,41,121,0
0,67,68,0
0,42,67,44
0,70,66,0
0,64,75,0
0,65,74,0
0,36,122,44
0,42,62,0
0,70,65,0
0,62,82,0
0,70,101,0
0,67,100,0
0,62,102,0
0,70,66,44
0,42,69,92
0,70,64,0
0,62,121,0
0,42,62,24
0,70,66,0
0,62,81,0
0,38,117,0
0,36,124,92
0,38,121,0
0,42,69,0
0,70,67,0
0,63,77,0
0,63,81,24
0,65,118,0
0,46,102,16
0,70,65,0
0,64,79,0
0,43,119,0
0,70,64,92
0,67,97,0
0,64,81,0
0,36,125,8
0,42,70,0
0,70,68,0
0,62,83,0
0,31,118,0
0,60,74,0
0,65,79,0
0,69,72,0
0,69,112,0
0,70,65,20
0,42,68,92
0,70,59,0
0,67,94,0
0,42,63,16
0,70,66,0
0,62,75,0
0,38,115,0
0,36,123,24
0,38,122,0
0,42,66,0
0,70,67,0
0,63,81,0
0,70,115,0
0,63,77,92
0,42,69,16
0,70,59,0
0,64,79,0
0,41,119,0
0,69,119,0
0,42,62,92
0,70,59,0
0,64,78,0
0,36,122,92
0,42,71,0
0,70,60,0
0,68,96,0
0,62,81,0
0,70,66,92
0,42,68,24
0,70,59,0
0,65,118,0
0,42,71,24
0,70,60,0
0,68,96,0
0,62,82,0
0,38,120,0
0,36,122,16
0,38,126,0
0,42,71,0
0,70,65,0
0,63,83,0
0,63,118,0
0,63,82,44
0,46,93,16
0,70,61,0
0,64,75,0
0,43,120,0
0,63,117,0
0,70,61,92
0,67,103,0
0,64,82,0
0,36,121,92
0,42,63,0
0,70,62,0
0,62,78,0
0,58,77,0
0,63,72,0
0,67,77,0
0,70,61,92
0,42,67,24
0,70,63,0
0,67,103,0
0,62,113,0
0,42,64,24
0,70,65,0
0,62,75,0
0,38,123,0
0,36,122,16
0,38,118,0
0,42,71,0
0,70,68,0
0,63,75,0
0,62,117,0
0,63,80,20
0,42,70,16
0,70,66,0
0,64,82,0
0,41,121,0
0,62,116,0
0,42,67,92
0,70,60,0
0,64,83,0
0,36,120,16
0,42,65,0
0,70,61,0
0,62,78,0
0,65,120,0
0,70,67,92
0,42,63,16
0,70,64,0
0,67,115,0
0,42,68,24
0,70,64,0
0,62,78,0
0,38,114,0
0,36,121,92
0,38,118,0
0,42,69,0
0,70,63,0
0,63,81,0
0,63,84,44
0,46,100,16
0,70,59,0
0,64,75,0
0,31,115,0
0,67,120,0
0,70,59,92
0,67,101,0
0,64,78,0
0,36,125,92
0,42,68,0
0,70,59,0
0,62,77,0
0,65,72,0
0,62,72,0
0,67,76,0
0,70,75,0
0,70,67,44
0,65,71,0
