track,note,velocity,time
0,70,51,0
0,70,51,0
0,70,51,0
0,38,116,48
0,70,51,0
0,43,100,0
0,65,98,0
0,47,100,71
0,65,102,0
0,36,124,71
0,38,116,0
0,43,100,0
0,66,107,2
0,58,89,43
0,62,89,0
0,55,89,0
0,31,110,1
0,36,124,0
0,42,127,0
0,70,67,0
0,80,82,0
0,65,109,0
0,63,86,0
0,49,76,6
0,70,67,12
0,80,44,0
0,65,91,0
0,56,76,9
0,70,51,0
0,80,44,0
0,65,73,0
0,64,73,0
0,55,98,9
0,58,89,0
0,62,107,0
0,38,119,1
0,70,51,0
0,80,44,0
0,65,60,0
0,63,86,0
0,36,124,5
0,38,116,0
0,42,127,0
0,80,82,0
0,65,100,0
0,70,67,0
0,70,67,13
0,80,44,0
0,65,64,0
0,58,71,7
0,62,62,0
0,55,71,0
0,41,119,0
0,70,51,0
0,80,44,0
0,67,91,0
0,64,86,0
0,70,51,12
0,80,43,0
0,67,73,0
0,58,98,2
0,62,98,0
0,55,89,0
0,36,124,1
0,42,127,0
0,56,76,0
0,80,82,0
0,65,109,0
0,70,67,0
0,63,91,0
0,70,67,10
0,80,44,0
0,65,91,0
0,58,98,3
0,62,98,0
0,55,89,0
0,70,51,1
0,80,44,0
0,38,119,23
0,70,51,0
0,80,82,0
0,65,91,0
0,43,100,0
0,42,76,0
0,56,76,0
0,36,124,3
0,38,116,0
0,42,127,0
0,70,67,0
0,63,86,0
0,70,67,22
0,80,44,0
0,65,82,0
0,55,89,4
0,58,98,0
0,62,98,0
0,43,119,0
0,70,51,0
0,80,82,0
0,67,100,0
0,64,86,0
0,70,51,12
0,80,44,0
0,67,91,0
0,46,68,7
0,36,124,7
0,42,127,0
0,70,67,0
0,80,82,0
0,65,109,0
0,63,86,0
0,70,67,11
0,80,42,0
0,65,64,0
0,55,71,9
0,58,80,0
0,62,71,0
0,56,76,1
0,70,51,0
0,80,44,0
0,65,91,0
0,64,73,0
0,62,107,12
0,58,89,0
0,55,98,0
0,38,119,1
0,70,51,0
0,80,44,0
0,65,64,0
0,63,86,0
0,36,124,6
0,38,116,0
0,42,127,0
0,80,82,0
0,65,109,0
0,70,67,0
0,70,67,11
0,80,44,0
0,65,82,0
0,62,71,5
0,55,62,0
0,58,62,0
0,41,119,1
0,70,51,0
0,80,44,0
0,67,109,0
0,64,86,0
0,70,51,14
0,80,82,0
0,65,91,0
0,58,107,22
0,55,98,0
0,62,98,0
0,36,124,1
0,42,127,0
0,56,76,0
0,70,67,0
0,63,91,0
0,70,67,22
0,55,71,5
0,62,62,0
0,58,62,0
0,42,76,1
0,70,51,0
0,38,110,16
0,70,51,0
0,43,100,6
0,56,76,0
0,55,80,10
0,62,98,0
0,58,107,0
0,36,124,1
0,38,116,0
0,42,127,0
0,70,67,0
0,63,86,0
0,70,67,22
0,62,62,3
0,58,71,0
0,55,71,0
0,31,110,1
0,70,51,0
0,64,86,0
0,70,51,16
0,46,68,7
0,56,76,0
0,58,89,14
0,62,89,0
0,55,89,0
0,36,124,1
0,42,127,0
0,80,82,0
0,65,109,0
0,70,67,0
0,63,86,0
0,70,67,12
0,80,44,0
0,65,91,0
0,56,76,9
0,70,51,0
0,80,44,0
0,65,73,0
0,64,73,0
0,55,98,9
0,58,89,0
0,62,107,0
0,38,119,1
0,70,51,0
0,80,44,0
0,65,60,0
0,63,86,0
0,36,124,5
0,38,116,0
0,42,127,0
0,80,82,0
0,65,100,0
0,70,67,0
0,70,67,13
0,80,44,0
0,65,64,0
0,58,71,7
0,62,62,0
0,55,71,0
0,41,110,1
0,70,51,0
0,80,44,0
0,67,91,0
0,64,86,0
0,70,51,12
0,80,43,0
0,67,73,0
0,58,98,2
0,62,98,0
0,55,89,0
0,36,124,1
0,42,127,0
0,56,76,0
0,80,82,0
0,65,109,0
0,70,67,0
0,63,91,0
0,70,67,10
0,80,44,0
0,65,91,0
0,58,98,3
0,62,98,0
0,55,89,0
0,70,51,1
0,80,44,0
0,38,119,23
0,70,51,0
0,80,82,0
0,65,91,0
0,43,100,6
0,42,76,0
0,56,76,0
0,36,124,3
0,38,116,0
0,42,127,0
0,70,67,0
0,63,86,0
0,70,67,22
0,80,44,0
0,65,82,0
0,55,89,4
0,58,98,0
0,62,98,0
0,43,110,1
0,70,51,0
0,80,82,0
0,67,100,0
0,64,86,0
0,70,51,12
0,80,44,0
0,67,91,0
0,46,68,7
0,36,124,7
0,42,127,0
0,70,67,0
0,80,82,0
0,65,109,0
0,63,86,0
0,70,67,11
0,80,42,0
0,65,64,0
0,55,71,9
0,58,80,0
0,62,71,0
0,56,76,1
0,70,51,0
0,80,44,0
0,65,91,0
0,64,73,0
0,62,107,12
0,58,89,0
0,55,98,0
0,38,110,1
0,70,51,0
0,80,44,0
0,65,64,0
0,63,86,0
0,36,124,6
0,38,116,0
0,42,127,0
0,80,82,0
0,65,109,0
0,70,67,0
0,70,67,11
0,80,44,0
0,65,82,0
0,62,71,5
0,55,62,0
0,58,62,0
0,41,110,1
0,70,51,0
0,80,44,0
0,67,109,0
0,64,86,0
0,70,51,14
0,80,82,0
0,65,91,0
0,58,107,22
0,55,98,0
0,62,98,0
0,36,124,1
0,42,127,0
0,56,76,0
0,70,67,0
0,63,91,0
0,70,67,22
0,55,71,5
0,62,62,0
0,58,62,0
0,42,76,1
0,70,51,0
0,38,110,16
0,70,51,0
0,43,100,1
0,56,76,0
0,55,80,14
0,62,98,0
0,58,107,0
0,36,124,1
0,38,116,0
0,42,127,0
0,70,67,0
0,63,86,0
0,70,67,22
0,62,62,5
0,58,71,0
0,55,71,0
0,31,110,1
0,70,51,0
0,64,86,0
0,70,51,16
0,38,116,7
0,46,68,0
0,56,76,0
0,62,91,13
0,67,91,0
0,70,100,0
0,70,110,1
0,67,101,0
0,62,101,0
0,36,124,0
0,42,127,0
0,80,82,0
0,65,109,0
0,67,82,0
0,70,73,0
0,62,82,0
0,70,67,0
0,63,86,0
0,49,76,6
0,70,67,12
0,80,44,0
0,65,91,0
0,56,76,9
0,70,51,0
0,80,44,0
0,65,73,0
0,64,73,0
0,38,110,14
0,70,51,0
0,80,44,0
0,65,60,0
0,63,86,0
0,36,124,5
0,38,116,0
0,42,127,0
0,80,82,0
0,65,100,0
0,70,67,0
0,70,67,13
0,80,44,0
0,65,64,0
0,58,101,7
0,62,92,0
0,55,92,0
0,41,110,1
0,70,51,0
0,80,44,0
0,67,91,0
0,64,86,0
0,70,51,12
0,80,43,0
0,67,73,0
0,36,124,3
0,42,127,0
0,56,76,0
0,80,82,0
0,65,109,0
0,70,67,0
0,63,91,0
0,70,67,10
0,80,44,0
0,65,91,0
0,70,51,4
0,80,44,0
0,38,110,23
0,70,51,0
0,80,82,0
0,65,91,0
0,43,100,2
0,42,76,0
0,56,76,0
0,36,124,3
0,38,116,0
0,42,127,0
0,70,67,0
0,63,86,0
0,70,67,22
0,80,44,0
0,65,82,0
0,58,101,0
0,62,101,0
0,55,92,0
0,43,110,0
0,70,51,0
0,80,82,0
0,67,100,0
0,64,86,0
0,70,51,12
0,80,44,0
0,67,91,0
0,46,68,7
0,36,124,2
0,42,127,0
0,70,67,0
0,80,82,0
0,65,109,0
0,63,86,0
0,70,67,11
0,80,42,0
0,65,64,0
0,56,76,10
0,70,51,0
0,80,44,0
0,65,91,0
0,64,73,0
0,38,110,13
0,70,51,0
0,80,44,0
0,65,64,0
0,63,86,0
0,36,124,6
0,38,116,0
0,42,127,0
0,80,82,0
0,65,109,0
0,70,67,0
0,70,67,11
0,80,44,0
0,65,82,0
0,62,92,5
0,58,92,0
0,55,101,0
0,41,111,1
0,70,51,0
0,80,44,0
0,67,109,0
0,64,86,0
0,70,51,14
0,80,82,0
0,65,91,0
0,36,124,23
0,42,127,0
0,56,76,0
0,70,67,0
0,63,91,0
0,70,67,17
0,42,76,23
0,70,51,0
0,38,110,23
0,70,51,0
0,43,100,6
0,56,76,0
0,36,124,15
0,38,116,0
0,42,127,0
0,70,67,0
0,63,86,0
0,70,67,22
0,31,110,23
0,70,51,0
0,64,86,0
0,70,51,22
0,46,68,7
0,56,76,0
0,36,124,15
0,42,127,0
0,80,82,0
0,65,109,0
0,70,67,0
0,63,86,0
0,70,67,12
0,80,44,0
0,65,91,0
0,70,101,8
0,67,100,0
0,62,101,0
0,62,111,1
0,67,110,0
0,70,111,0
0,56,76,0
0,70,51,0
0,80,44,0
0,65,73,0
0,64,73,0
0,38,110,0
0,70,51,0
0,80,44,0
0,65,60,0
0,63,86,0
0,36,124,5
0,38,116,0
0,42,127,0
0,80,82,0
0,65,100,0
0,70,67,0
0,70,67,13
0,80,44,0
0,65,64,0
0,58,101,7
0,62,101,0
0,55,101,0
0,41,110,1
0,70,51,0
0,80,44,0
0,67,91,0
0,64,86,0
0,70,51,12
0,80,43,0
0,67,73,0
0,70,102,2
0,62,102,0
0,67,103,0
0,67,113,1
0,62,112,0
0,70,112,0
0,36,124,0
0,42,127,0
0,56,76,0
0,80,82,0
0,65,109,0
0,70,67,0
0,63,91,0
0,70,67,0
0,80,44,0
0,65,91,0
0,70,51,4
0,80,44,0
0,67,101,22
0,70,101,0
0,62,101,0
0,38,110,1
0,62,111,0
0,70,111,0
0,67,111,0
0,70,51,0
0,80,82,0
0,65,91,0
0,43,100,6
0,42,76,0
0,56,76,0
0,36,124,0
0,38,116,0
0,42,127,0
0,70,67,0
0,63,86,0
0,70,67,21
0,80,44,0
0,65,82,0
0,58,92,4
0,62,92,0
0,55,92,0
0,43,110,1
0,70,51,0
0,80,82,0
0,67,100,0
0,64,86,0
0,70,51,12
0,80,44,0
0,67,91,0
0,46,68,7
0,36,124,7
0,42,127,0
0,70,67,0
0,80,82,0
0,65,109,0
0,63,86,0
0,70,67,11
0,80,42,0
0,65,64,0
0,67,101,9
0,70,102,0
0,62,101,0
0,62,111,1
0,70,112,0
0,67,111,0
0,56,76,0
0,70,51,0
0,80,44,0
0,65,91,0
0,64,73,0
0,38,110,0
0,70,51,0
0,80,44,0
0,65,64,0
0,63,86,0
0,36,124,6
0,38,116,0
0,42,127,0
0,80,82,0
0,65,109,0
0,70,67,0
0,70,102,10
0,67,102,0
0,62,101,0
0,62,111,1
0,67,112,0
0,70,112,0
0,70,67,0
0,80,44,0
0,65,82,0
0,58,92,2
0,62,101,0
0,55,92,0
0,41,110,0
0,70,51,0
0,80,44,0
0,67,109,0
0,64,86,0
0,70,51,14
0,80,82,0
0,65,91,0
0,70,102,22
0,62,101,0
0,67,101,0
0,67,111,1
0,62,111,0
0,70,112,0
0,36,124,0
0,42,127,0
0,56,76,0
0,70,67,0
0,63,91,0
0,70,67,14
0,43,100,18
0,42,76,2
0,70,51,0
0,43,101,9
0,38,110,2
0,70,51,0
0,43,100,1
0,56,76,0
0,43,110,6
0,36,124,2
0,38,116,0
0,42,127,0
0,70,67,0
0,63,86,0
0,70,67,22
0,43,92,1
0,31,110,2
0,70,51,0
0,64,86,0
0,70,51,4
0,46,68,7
0,56,76,0
0,43,92,13
0,72,47,1
0,81,69,0
0,77,75,0
0,57,101,0
0,60,110,0
0,65,101,0
0,65,91,0
0,60,100,0
0,69,109,0
0,69,119,1
0,60,110,0
0,65,101,0
0,36,124,0
0,42,127,0
0,80,82,0
0,65,109,0
0,69,82,0
0,60,82,0
0,65,82,0
0,70,67,0
0,63,86,0
0,70,67,12
0,80,44,0
0,65,91,0
0,56,76,9
0,70,51,0
0,80,44,0
0,65,73,0
0,64,73,0
0,55,92,12
0,38,110,2
0,70,51,0
0,80,44,0
0,65,60,0
0,63,86,0
0,65,70,4
0,57,74,0
0,60,70,0
0,36,124,1
0,38,116,0
0,42,127,0
0,80,82,0
0,65,100,0
0,70,67,0
0,70,67,13
0,80,44,0
0,65,64,0
0,43,101,6
0,57,110,1
0,65,119,0
0,60,110,0
0,41,112,1
0,70,51,0
0,80,44,0
0,67,91,0
0,64,86,0
0,70,51,12
0,80,43,0
0,67,73,0
0,36,124,3
0,42,127,0
0,56,76,0
0,80,82,0
0,65,109,0
0,70,67,0
0,63,91,0
0,70,67,10
0,80,44,0
0,65,91,0
0,65,70,3
0,57,74,0
0,60,74,0
0,70,51,1
0,80,44,0
0,38,110,16
0,70,51,0
0,80,82,0
0,65,91,0
0,43,100,6
0,42,76,0
0,56,76,0
0,57,110,2
0,65,110,0
0,60,101,0
0,36,124,1
0,38,116,0
0,42,127,0
0,70,67,0
0,63,86,0
0,70,67,9
0,80,44,0
0,65,82,0
0,60,74,1
0,57,74,0
0,65,70,0
0,43,110,1
0,70,51,0
0,80,82,0
0,67,100,0
0,64,86,0
0,70,51,1
0,80,44,0
0,67,91,0
0,46,68,6
0,43,101,5
0,70,87,1
0,75,87,0
0,79,75,0
0,58,110,0
0,55,101,0
0,63,101,0
0,67,91,0
0,58,91,0
0,63,100,0
0,63,110,1
0,58,101,0
0,67,101,0
0,36,124,0
0,42,127,0
0,70,67,0
0,80,82,0
0,65,109,0
0,67,73,0
0,58,82,0
0,63,64,0
0,63,86,0
0,70,67,11
0,80,42,0
0,65,64,0
0,56,76,10
0,70,51,0
0,80,44,0
0,65,91,0
0,64,73,0
0,55,83,11
0,38,110,2
0,70,51,0
0,80,44,0
0,65,64,0
0,63,86,0
0,63,70,5
0,58,74,0
0,55,70,0
0,36,124,1
0,38,116,0
0,42,127,0
0,80,82,0
0,65,109,0
0,70,67,0
0,70,67,11
0,80,44,0
0,65,82,0
0,43,92,4
0,58,101,1
0,63,119,0
0,55,110,0
0,41,110,1
0,70,51,0
0,80,44,0
0,67,109,0
0,64,86,0
0,70,51,14
0,80,82,0
0,65,91,0
0,36,124,23
0,42,127,0
0,56,76,0
0,70,67,0
0,63,91,0
0,70,67,22
0,63,70,10
0,58,70,0
0,55,83,0
0,42,76,1
0,70,51,0
0,38,110,16
0,70,51,0
0,43,100,6
0,56,76,0
0,58,110,11
0,55,101,0
0,63,101,0
0,36,124,1
0,38,116,0
0,42,127,0
0,70,67,0
0,63,86,0
0,70,67,11
0,63,83,0
0,55,101,0
0,58,74,0
0,31,110,1
0,70,51,0
0,64,86,0
0,70,51,14
0,46,68,2
0,56,76,0
0,36,124,11
0,42,127,0
0,80,82,0
0,65,109,0
0,62,91,0
0,67,73,0
0,70,64,0
0,70,67,0
0,63,86,0
0,70,67,12
0,80,44,0
0,65,91,0
0,43,110,7
0,67,102,1
0,70,102,0
0,62,101,0
0,62,111,1
0,70,112,0
0,67,112,0
0,56,76,0
0,70,51,0
0,80,44,0
0,65,73,0
0,64,73,0
0,38,110,14
0,70,51,0
0,80,44,0
0,65,60,0
0,63,86,0
0,36,124,5
0,38,116,0
0,42,127,0
0,80,82,0
0,65,100,0
0,70,67,0
0,70,67,13
0,80,44,0
0,65,64,0
0,43,101,6
0,58,101,1
0,62,92,0
0,55,92,0
0,41,111,1
0,70,51,0
0,80,44,0
0,67,91,0
0,64,86,0
0,70,51,11
0,80,43,0
0,67,73,0
0,62,102,2
0,70,102,0
0,67,102,0
0,67,112,1
0,70,112,0
0,62,112,0
0,36,124,0
0,42,127,0
0,56,76,0
0,80,82,0
0,65,109,0
0,70,67,0
0,63,91,0
0,70,67,0
0,80,44,0
0,65,91,0
0,43,109,2
0,70,51,2
0,80,44,0
0,67,102,22
0,70,101,0
0,62,101,0
0,38,110,1
0,62,111,0
0,70,111,0
0,67,112,0
0,70,51,0
0,80,82,0
0,65,91,0
0,43,100,6
0,42,76,0
0,56,76,0
0,36,124,1
0,38,116,0
0,42,127,0
0,70,67,0
0,63,86,0
0,70,67,20
0,80,44,0
0,65,82,0
0,43,100,3
0,58,101,1
0,62,101,0
0,55,92,0
0,43,110,1
0,70,51,0
0,80,82,0
0,67,100,0
0,64,86,0
0,70,51,11
0,80,44,0
0,67,91,0
0,38,116,7
0,46,68,0
0,36,124,7
0,42,127,0
0,70,67,0
0,80,82,0
0,65,109,0
0,63,86,0
0,70,67,11
0,80,42,0
