track,note,velocity,time
1,51,123,357
1,67,123,0
1,63,123,0
1,58,123,0
1,58,0,59
1,63,0,0
1,67,0,0
1,58,76,1
1,67,104,0
1,63,100,0
1,63,0,30
1,67,0,0
1,58,0,0
1,58,51,0
1,67,88,0
1,63,76,0
1,63,0,30
1,67,0,0
1,58,0,0
1,58,76,0
1,63,95,0
1,67,94,0
1,67,0,30
1,63,0,0
1,58,0,0
1,51,0,29
1,51,120,1
1,67,120,0
1,58,120,0
1,63,120,0
1,63,0,90
1,58,0,0
1,67,0,0
1,58,80,30
1,67,94,0
1,63,95,0
1,63,0,59
1,67,0,0
1,58,0,0
1,67,101,1
1,58,87,0
1,63,104,0
1,63,0,30
1,58,0,0
1,67,0,0
1,58,87,0
1,63,104,0
1,67,101,0
1,67,0,30
1,63,0,0
1,58,0,0
1,58,83,0
1,63,91,0
1,67,94,0
1,67,0,30
1,63,0,0
1,58,0,0
1,58,87,0
1,63,87,0
1,67,87,0
1,51,0,29
1,58,0,1
1,63,0,0
1,67,0,0
1,67,119,0
1,51,119,0
1,63,119,0
1,58,119,0
1,58,0,59
1,63,0,0
1,67,0,0
1,58,76,1
1,67,104,0
1,63,100,0
1,63,0,30
1,67,0,0
1,58,0,0
1,58,51,0
1,67,88,0
1,63,76,0
1,63,0,30
1,67,0,0
1,58,0,0
1,58,76,0
1,63,95,0
1,67,94,0
1,67,0,30
1,63,0,0
1,58,0,0
1,51,0,29
1,51,120,1
1,67,120,0
1,58,120,0
1,63,120,0
1,63,0,90
1,58,0,0
1,67,0,0
1,58,80,30
1,67,94,0
1,63,95,0
1,63,0,59
1,67,0,0
1,58,0,0
1,67,101,1
1,58,87,0
1,63,104,0
1,63,0,59
1,58,0,0
1,67,0,0
1,58,83,1
1,63,91,0
1,67,94,0
1,67,0,59
1,51,0,0
1,58,0,0
1,63,0,0
1,51,104,1
1,67,113,0
1,63,110,0
1,58,100,0
1,58,0,59
1,63,0,0
1,67,0,0
1,58,76,1
1,67,104,0
1,63,100,0
1,63,0,30
1,67,0,0
1,58,0,0
1,58,51,0
1,67,88,0
1,63,76,0
1,63,0,30
1,67,0,0
1,58,0,0
1,58,76,0
1,63,95,0
1,67,94,0
1,67,0,30
1,63,0,0
1,58,0,0
1,51,0,29
1,51,100,1
1,67,117,0
1,58,95,0
1,63,110,0
1,63,0,90
1,58,0,0
1,67,0,0
1,58,80,30
1,67,94,0
1,63,95,0
1,63,0,59
1,67,0,0
1,58,0,0
1,67,101,1
1,58,87,0
1,63,104,0
1,63,0,30
1,58,0,0
1,67,0,0
1,58,87,0
1,63,87,0
1,67,87,0
1,67,0,30
1,63,0,0
1,58,0,0
1,58,83,0
1,63,91,0
1,67,94,0
1,67,0,30
1,63,0,0
1,58,0,0
1,58,83,0
1,63,83,0
1,67,83,0
1,51,0,29
1,58,0,1
1,63,0,0
1,67,0,0
1,51,104,0
1,63,110,0
1,68,113,0
1,58,100,0
1,58,0,59
1,68,0,0
1,63,0,0
1,63,100,1
1,68,104,0
1,58,76,0
1,58,0,30
1,68,0,0
1,63,0,0
1,63,76,0
1,68,88,0
1,58,51,0
1,58,0,30
1,68,0,0
1,63,0,0
1,63,95,0
1,68,94,0
1,58,76,0
1,58,0,30
1,68,0,0
1,63,0,0
1,51,0,29
1,51,100,1
1,63,110,0
1,68,117,0
1,58,95,0
1,58,0,90
1,68,0,0
1,63,0,0
1,63,95,30
1,68,94,0
1,58,80,0
1,58,0,59
1,68,0,0
1,63,0,0
1,63,104,1
1,68,101,0
1,58,87,0
1,58,0,59
1,68,0,0
1,63,0,0
1,63,91,1
1,68,94,0
1,58,83,0
1,58,0,59
1,51,0,0
1,63,0,0
1,68,0,0
1,51,104,1
1,67,113,0
1,63,110,0
1,58,100,0
1,58,0,59
1,63,0,0
1,67,0,0
1,58,76,1
1,67,104,0
1,63,100,0
1,63,0,30
1,67,0,0
1,58,0,0
1,58,51,0
1,67,88,0
1,63,76,0
1,63,0,30
1,67,0,0
1,58,0,0
1,58,76,0
1,63,95,0
1,67,94,0
1,67,0,30
1,63,0,0
1,58,0,0
1,51,0,29
1,51,100,1
1,67,117,0
1,58,95,0
1,63,110,0
1,63,0,90
1,58,0,0
1,67,0,0
1,58,80,30
1,67,94,0
1,63,95,0
1,63,0,59
1,67,0,0
1,58,0,0
1,67,101,1
1,58,87,0
1,63,104,0
1,63,0,30
1,58,0,0
1,67,0,0
1,58,101,0
1,63,101,0
1,67,101,0
1,67,0,30
1,63,0,0
1,58,0,0
1,58,83,0
1,63,91,0
1,67,94,0
1,67,0,30
1,63,0,0
1,58,0,0
1,58,83,0
1,63,83,0
1,67,83,0
1,51,0,29
1,58,0,1
1,63,0,0
1,67,0,0
1,51,104,0
1,63,110,0
1,68,113,0
1,58,100,0
1,58,0,59
1,68,0,0
1,63,0,0
1,63,100,1
1,68,104,0
1,58,76,0
1,58,0,30
1,68,0,0
1,63,0,0
1,63,76,0
1,68,88,0
1,58,51,0
1,58,0,30
1,68,0,0
1,63,0,0
1,63,95,0
1,68,94,0
1,58,76,0
1,58,0,30
1,68,0,0
1,63,0,0
1,51,0,29
1,51,100,1
1,63,110,0
1,68,117,0
1,58,95,0
1,58,0,90
1,68,0,0
1,63,0,0
1,63,95,30
1,68,94,0
1,58,80,0
1,58,0,59
1,68,0,0
1,63,0,0
1,63,104,1
1,68,101,0
1,58,87,0
1,58,0,59
1,51,0,0
1,63,0,0
1,68,0,0
1,46,115,1
1,63,91,0
1,68,94,0
1,58,83,0
1,58,0,59
1,46,0,0
1,63,0,0
1,68,0,0
1,51,104,1
1,67,113,0
1,63,110,0
1,58,100,0
1,58,0,59
1,63,0,0
1,67,0,0
1,58,76,1
1,67,104,0
1,63,100,0
1,63,0,30
1,67,0,0
1,58,0,0
1,58,51,0
1,67,88,0
1,63,76,0
1,63,0,30
1,67,0,0
1,58,0,0
1,58,76,0
1,63,95,0
1,67,94,0
1,67,0,30
1,63,0,0
1,58,0,0
1,51,0,29
1,51,100,1
1,67,117,0
1,58,95,0
1,63,110,0
1,63,0,90
1,58,0,0
1,67,0,0
1,58,80,30
1,67,94,0
1,63,95,0
1,63,0,59
1,67,0,0
1,58,0,0
1,67,101,1
1,58,87,0
1,63,104,0
1,63,0,30
1,58,0,0
1,67,0,0
1,58,87,0
1,63,87,0
1,67,87,0
1,67,0,30
1,63,0,0
1,58,0,0
1,58,83,0
1,63,91,0
1,67,94,0
1,67,0,30
1,63,0,0
1,58,0,0
1,58,83,0
1,63,83,0
1,67,83,0
1,51,0,29
1,58,0,1
1,63,0,0
1,67,0,0
1,51,104,0
1,63,110,0
1,68,113,0
1,58,100,0
1,58,0,59
1,68,0,0
1,63,0,0
1,63,100,1
1,68,104,0
1,58,76,0
1,58,0,30
1,68,0,0
1,63,0,0
1,63,76,0
1,68,88,0
1,58,51,0
1,58,0,30
1,68,0,0
1,63,0,0
1,63,95,0
1,68,94,0
1,58,76,0
1,58,0,30
1,68,0,0
1,63,0,0
1,51,0,29
1,51,100,1
1,63,110,0
1,68,117,0
1,58,95,0
1,58,0,90
1,68,0,0
1,63,0,0
1,63,95,30
1,68,94,0
1,58,80,0
1,58,0,59
1,68,0,0
1,63,0,0
1,63,104,1
1,68,101,0
1,58,87,0
1,58,0,59
1,68,0,0
1,63,0,0
1,63,91,1
1,68,94,0
1,58,83,0
1,58,0,59
1,51,0,0
1,63,0,0
1,68,0,0
1,48,104,1
1,60,100,0
1,67,113,0
1,63,110,0
1,63,0,59
1,67,0,0
1,60,0,0
1,60,76,1
1,67,104,0
1,63,100,0
1,63,0,30
1,67,0,0
1,60,0,0
1,60,51,0
1,67,88,0
1,63,76,0
1,63,0,30
1,67,0,0
1,60,0,0
1,60,76,0
1,63,95,0
1,67,94,0
1,67,0,30
1,63,0,0
1,60,0,0
1,48,0,29
1,48,100,1
1,60,95,0
1,67,117,0
1,63,110,0
1,63,0,90
1,67,0,0
1,60,0,0
1,60,80,30
1,67,94,0
1,63,95,0
1,63,0,59
1,67,0,0
1,60,0,0
1,60,87,1
1,67,101,0
1,63,104,0
1,63,0,30
1,67,0,0
1,60,0,0
1,60,87,0
1,63,87,0
1,67,87,0
1,67,0,30
1,63,0,0
1,60,0,0
1,60,83,0
1,63,91,0
1,67,94,0
1,67,0,30
1,63,0,0
1,60,0,0
1,60,83,0
1,63,83,0
1,67,83,0
1,48,0,29
1,60,0,1
1,63,0,0
1,67,0,0
1,51,104,0
1,63,110,0
1,68,113,0
1,58,100,0
1,58,0,59
1,68,0,0
1,63,0,0
1,63,100,1
1,68,104,0
1,58,76,0
1,58,0,30
1,68,0,0
1,63,0,0
1,63,76,0
1,68,88,0
1,58,51,0
1,58,0,30
1,68,0,0
1,63,0,0
1,63,95,0
1,68,94,0
1,58,76,0
1,58,0,30
1,68,0,0
1,63,0,0
1,51,0,29
1,51,100,1
1,63,110,0
1,68,117,0
1,58,95,0
1,58,0,90
1,68,0,0
1,63,0,0
1,63,95,30
1,68,94,0
1,58,80,0
1,58,0,59
1,68,0,0
1,63,0,0
1,63,104,1
1,68,101,0
1,58,87,0
1,58,0,59
1,68,0,0
1,63,0,0
1,63,91,1
1,68,94,0
1,58,83,0
1,58,0,59
1,51,0,0
1,63,0,0
1,68,0,0
1,55,100,1
1,60,110,0
1,48,104,0
1,67,113,0
1,67,0,59
1,55,0,0
1,60,0,0
1,60,100,1
1,55,76,0
1,67,104,0
1,67,0,30
1,55,0,0
1,60,0,0
1,60,76,0
1,55,51,0
1,67,88,0
1,67,0,30
1,55,0,0
1,60,0,0
1,60,95,0
1,55,76,0
1,67,94,0
1,67,0,30
1,55,0,0
1,60,0,0
1,48,0,29
1,60,110,1
1,55,95,0
1,48,100,0
1,67,117,0
1,67,0,90
1,60,0,0
1,55,0,0
1,60,95,30
1,55,80,0
1,67,94,0
1,67,0,59
1,55,0,0
1,60,0,0
1,60,104,1
1,55,87,0
1,67,101,0
1,67,0,30
1,55,0,0
1,60,0,0
1,60,87,0
1,55,87,0
1,67,87,0
1,67,0,30
1,55,0,0
1,60,0,0
1,60,91,0
1,55,83,0
1,67,94,0
1,67,0,30
1,55,0,0
1,60,0,0
1,60,83,0
1,55,83,0
1,67,83,0
1,48,0,29
1,60,0,1
1,55,0,0
1,67,0,0
1,65,113,0
1,53,100,0
1,41,104,0
1,60,110,0
1,60,0,59
1,65,0,0
1,53,0,0
1,65,104,1
1,53,76,0
1,60,100,0
1,60,0,30
1,53,0,0
1,65,0,0
1,65,88,0
1,53,51,0
1,60,76,0
1,60,0,30
1,53,0,0
1,65,0,0
1,65,94,0
1,53,76,0
1,60,95,0
1,60,0,30
1,53,0,0
1,65,0,0
1,41,0,29
1,65,117,1
1,53,95,0
1,41,100,0
1,60,110,0
1,60,0,90
1,65,0,0
1,53,0,0
1,65,94,30
1,53,80,0
1,60,95,0
1,60,0,59
1,53,0,0
1,65,0,0
1,65,101,1
1,53,87,0
1,60,104,0
1,60,0,30
1,53,0,0
1,65,0,0
1,65,87,0
1,53,87,0
1,60,87,0
1,60,0,30
1,53,0,0
1,65,0,0
1,65,94,0
1,53,83,0
1,60,91,0
1,60,0,30
1,53,0,0
1,65,0,0
1,65,83,0
1,53,83,0
1,60,83,0
1,41,0,29
1,65,0,1
1,53,0,0
1,60,0,0
1,55,100,0
1,60,110,0
1,48,104,0
1,67,113,0
1,67,0,59
1,55,0,0
1,60,0,0
1,60,100,1
1,55,76,0
1,67,104,0
1,67,0,30
1,55,0,0
1,60,0,0
1,60,76,0
1,55,51,0
1,67,88,0
1,67,0,30
1,55,0,0
1,60,0,0
1,60,95,0
1,55,76,0
1,67,94,0
1,67,0,30
1,55,0,0
1,60,0,0
1,48,0,29
1,60,110,1
1,55,95,0
1,48,100,0
1,67,117,0
1,67,0,90
1,60,0,0
1,55,0,0
1,60,95,30
1,55,80,0
1,67,94,0
1,67,0,59
1,55,0,0
1,60,0,0
1,60,104,1
1,55,87,0
1,67,101,0
1,67,0,30
1,55,0,0
1,60,0,0
1,60,87,0
1,55,87,0
1,67,87,0
1,67,0,30
1,55,0,0
1,60,0,0
1,60,91,0
1,55,83,0
1,67,94,0
1,67,0,30
1,55,0,0
1,60,0,0
1,60,83,0
1,55,83,0
1,67,83,0
1,48,0,29
1,60,0,1
1,55,0,0
1,67,0,0
1,65,113,0
1,53,100,0
1,41,104,0
1,60,110,0
1,60,0,59
1,65,0,0
1,53,0,0
1,65,104,1
1,53,76,0
1,60,100,0
1,60,0,30
1,53,0,0
1,65,0,0
1,65,88,0
1,53,51,0
1,60,76,0
1,60,0,30
1,53,0,0
1,65,0,0
1,65,94,0
1,53,76,0
1,60,95,0
1,60,0,30
1,53,0,0
1,65,0,0
1,41,0,29
1,65,117,1
1,53,95,0
1,41,100,0
1,60,110,0
1,60,0,90
1,65,0,0
1,53,0,0
1,65,94,30
1,53,80,0
1,60,95,0
1,60,0,59
1,53,0,0
1,65,0,0
1,65,101,1
1,53,87,0
1,60,104,0
1,60,0,30
1,53,0,0
1,65,0,0
1,65,87,0
1,53,87,0
1,60,87,0
1,60,0,30
1,53,0,0
1,65,0,0
1,65,94,0
1,53,83,0
1,60,91,0
1,60,0,30
1,53,0,0
1,65,0,0
1,65,83,0
1,53,83,0
1,60,83,0
1,41,0,29
1,65,0,1
1,53,0,0
1,60,0,0
1,51,104,0
1,67,113,0
1,63,110,0
1,58,100,0
1,58,0,59
1,63,0,0
1,67,0,0
1,58,76,1
1,67,104,0
1,63,100,0
1,63,0,30
1,67,0,0
1,58,0,0
1,58,51,0
1,67,88,0
1,63,76,0
1,63,0,30
1,67,0,0
1,58,0,0
1,58,76,0
1,63,95,0
1,67,94,0
1,67,0,30
1,63,0,0
1,58,0,0
1,51,0,29
1,51,100,1
1,67,117,0
1,58,95,0
1,63,110,0
1,63,0,90
1,58,0,0
1,67,0,0
1,58,80,30
1,67,94,0
1,63,95,0
1,63,0,59
1,67,0,0
1,58,0,0
1,67,101,1
1,58,87,0
1,63,104,0
1,63,0,30
1,58,0,0
1,67,0,0
1,58,87,0
1,63,87,0
1,67,87,0
1,67,0,30
1,63,0,0
1,58,0,0
1,58,83,0
1,63,91,0
1,67,94,0
1,67,0,30
1,63,0,0
1,58,0,0
1,58,83,0
1,63,83,0
1,67,83,0
1,51,0,29
1,58,0,1
1,63,0,0
1,67,0,0
1,51,104,0
1,63,110,0
1,68,113,0
1,58,100,0
1,58,0,59
1,68,0,0
1,63,0,0
1,63,100,1
1,68,104,0
1,58,76,0
1,58,0,30
1,68,0,0
1,63,0,0
1,63,76,0
1,68,88,0
1,58,51,0
1,58,0,30
1,68,0,0
1,63,0,0
1,63,95,0
1,68,94,0
1,58,76,0
1,58,0,30
1,68,0,0
1,63,0,0
1,51,0,29
1,51,100,1
1,63,110,0
1,68,117,0
1,58,95,0
1,58,0,90
1,68,0,0
1,63,0,0
1,63,95,30
1,68,94,0
1,58,80,0
1,58,0,59
1,68,0,0
1,63,0,0
1,63,104,1
1,68,101,0
1,58,87,0
1,58,0,59
1,68,0,0
1,63,0,0
1,63,91,1
1,68,94,0
1,58,83,0
1,58,0,59
1,51,0,0
1,63,0,0
1,68,0,0
1,51,104,1
1,67,113,0
1,63,110,0
1,58,100,0
1,58,0,59
1,63,0,0
1,67,0,0
1,58,76,1
1,67,104,0
1,63,100,0
1,63,0,30
1,67,0,0
1,58,0,0
1,58,51,0
1,67,88,0
1,63,76,0
1,63,0,30
1,67,0,0
1,58,0,0
1,58,76,0
1,63,95,0
1,67,94,0
1,67,0,30
1,63,0,0
1,58,0,0
1,51,0,29
1,51,100,1
1,67,117,0
1,58,95,0
1,63,110,0
1,63,0,90
1,58,0,0
1,67,0,0
1,58,80,30
1,67,94,0
1,63,95,0
1,63,0,59
1,67,0,0
1,58,0,0
1,67,101,1
1,58,87,0
1,63,104,0
1,63,0,30
1,58,0,0
1,67,0,0
1,58,101,0
