track,note,velocity,time
0,42,110,0
0,42,0,100
0,42,90,0
0,42,0,132
0,42,90,0
0,42,0,124
0,58,105,68
0,70,105,0
0,70,0,100
0,58,0,4
0,42,90,88
0,63,99,0
0,63,0,76
0,42,0,52
0,67,105,64
0,67,0,64
0,27,105,128
0,51,88,0
0,36,105,4
0,42,105,0
0,82,95,0
0,55,88,0
0,58,99,0
0,63,105,4
0,76,105,0
0,86,105,0
0,55,0,8
0,51,0,0
0,58,0,4
0,70,115,4
0,82,0,56
0,63,0,32
0,42,0,8
0,86,0,20
0,76,0,28
0,82,88,24
0,51,102,0
0,55,102,0
0,58,102,0
0,63,112,4
0,70,0,40
0,82,0,20
0,36,0,0
0,58,0,28
0,55,0,4
0,51,0,0
0,27,0,12
0,67,115,72
0,46,105,12
0,51,105,0
0,55,105,0
0,58,105,0
0,46,105,4
0,82,105,0
0,63,0,4
0,82,0,92
0,46,0,8
0,70,115,72
0,67,0,8
0,55,0,0
0,62,105,4
0,82,94,0
0,58,0,0
0,51,0,0
0,46,0,4
0,51,90,0
0,55,90,0
0,58,90,0
0,82,0,60
0,51,0,4
0,58,0,4
0,55,0,0
0,62,0,8
0,70,0,12
0,60,115,0
0,63,115,16
0,32,105,8
0,51,88,0
0,55,88,0
0,58,99,0
0,36,105,4
0,42,105,0
0,76,105,0
0,82,94,0
0,86,105,0
0,63,105,4
0,68,109,0
0,72,115,0
0,55,0,8
0,51,0,0
0,58,0,4
0,60,0,0
0,63,0,8
0,68,0,0
0,72,0,0
0,82,0,4
0,76,0,8
0,63,0,4
0,42,0,4
0,86,0,12
0,82,90,60
0,51,102,0
0,55,102,0
0,58,102,0
0,36,0,36
0,82,0,52
0,51,0,4
0,58,0,4
0,55,0,0
0,60,97,68
0,63,111,16
0,68,115,4
0,36,105,8
0,72,115,0
0,46,105,0
0,51,105,0
0,46,105,4
0,64,105,0
0,82,105,0
0,55,105,0
0,58,105,0
0,63,0,44
0,72,0,4
0,68,0,8
0,32,0,4
0,60,0,0
0,46,0,16
0,82,0,20
0,64,0,0
0,65,111,76
0,58,100,12
0,62,114,0
0,46,0,0
0,64,105,4
0,82,86,0
0,70,113,0
0,51,0,0
0,55,0,4
0,58,0,0
0,50,90,0
0,53,90,0
0,58,90,0
0,58,0,60
0,82,0,8
0,65,0,8
0,62,0,4
0,50,0,8
0,58,0,4
0,53,0,0
0,70,0,12
0,64,0,20
0,36,0,52
0,34,105,12
0,50,88,0
0,53,88,0
0,58,99,0
0,36,105,4
0,42,105,0
0,76,105,0
0,82,95,0
0,86,105,0
0,63,105,4
0,53,0,8
0,50,0,0
0,58,0,4
0,82,0,60
0,63,0,32
0,42,0,8
0,86,0,20
0,76,0,28
0,58,102,4
0,62,115,12
0,65,115,8
0,50,102,0
0,53,102,0
0,58,102,0
0,82,88,4
0,70,115,0
0,62,0,44
0,58,0,0
0,82,0,16
0,36,0,0
0,65,0,4
0,50,0,24
0,58,0,4
0,53,0,0
0,70,0,8
0,34,0,76
0,46,105,12
0,50,105,0
0,53,105,0
0,58,105,0
0,46,105,4
0,82,105,0
0,82,0,96
0,46,0,8
0,65,115,72
0,62,115,8
0,46,0,0
0,62,105,4
0,82,94,0
0,68,115,0
0,50,0,0
0,53,0,4
0,58,0,0
0,50,90,0
0,53,90,0
0,58,90,0
0,62,0,36
0,82,0,24
0,50,0,28
0,58,0,4
0,53,0,0
0,62,0,24
0,41,105,8
0,50,88,0
0,53,88,0
0,58,99,0
0,36,105,4
0,42,105,0
0,76,105,0
0,82,94,0
0,86,105,0
0,63,105,4
0,58,0,0
0,53,0,0
0,50,0,0
0,82,0,20
0,76,0,4
0,63,0,0
0,42,0,4
0,86,0,16
0,82,90,60
0,50,102,0
0,53,102,0
0,58,102,0
0,36,0,36
0,68,0,36
0,82,0,16
0,50,0,4
0,58,0,4
0,53,0,0
0,58,107,68
0,62,115,8
0,29,105,20
0,46,105,0
0,50,105,0
0,53,105,0
0,46,105,4
0,64,105,0
0,82,105,0
0,58,105,0
0,41,0,20
0,58,0,16
0,62,0,28
0,65,0,0
0,46,0,12
0,82,0,20
0,64,0,0
0,46,0,88
0,64,105,4
0,82,86,0
0,50,0,0
0,53,0,0
0,58,0,4
0,50,90,0
0,53,90,0
0,58,90,0
0,82,0,68
0,50,0,20
0,58,0,4
0,53,0,0
0,64,0,32
0,29,0,40
0,34,105,24
0,50,88,0
0,53,88,0
0,58,99,0
0,36,105,4
0,42,105,0
0,76,105,0
0,82,95,0
0,86,105,0
0,63,105,4
0,53,0,8
0,50,0,0
0,58,0,4
0,58,115,8
0,82,0,52
0,63,0,32
0,42,0,8
0,86,0,20
0,76,0,28
0,82,88,24
0,50,102,0
0,53,102,0
0,58,102,0
0,58,0,16
0,62,108,4
0,82,0,44
0,36,0,0
0,34,0,12
0,50,0,16
0,58,0,4
0,53,0,0
0,62,0,96
0,46,105,0
0,50,105,0
0,53,105,0
0,46,105,4
0,82,105,0
0,58,105,0
0,65,115,20
0,82,0,76
0,46,0,8
0,65,0,72
0,68,115,0
0,46,0,8
0,62,105,4
0,82,94,0
0,50,0,0
0,53,0,0
0,58,0,4
0,50,90,0
0,53,90,0
0,58,90,0
0,82,0,60
0,50,0,28
0,58,0,4
0,53,0,0
0,62,0,24
0,68,0,16
0,65,115,52
0,29,105,4
0,50,88,0
0,53,88,0
0,58,99,0
0,36,105,4
0,42,105,0
0,76,105,0
0,82,94,0
0,86,105,0
0,63,105,4
0,62,103,0
0,68,115,0
0,72,115,4
0,53,0,4
0,50,0,0
0,58,0,4
0,65,0,48
0,62,0,8
0,68,0,0
0,72,0,8
0,82,0,20
0,76,0,8
0,63,0,4
0,42,0,4
0,86,0,12
0,82,90,60
0,50,102,0
0,53,102,0
0,58,102,0
0,36,0,36
0,82,0,52
0,50,0,4
0,58,0,4
0,53,0,0
0,29,0,44
0,62,111,48
0,26,105,4
0,46,105,0
0,50,105,0
0,53,105,0
0,46,105,4
0,64,105,0
0,82,105,0
0,65,113,0
0,58,105,0
0,68,100,4
0,72,96,4
0,72,0,44
0,65,0,4
0,68,0,4
0,46,0,16
0,62,0,12
0,82,0,8
0,64,0,0
0,46,0,88
0,64,105,4
0,82,86,0
0,50,0,0
0,53,0,0
0,58,0,4
0,51,90,0
0,55,90,0
0,58,90,0
0,63,115,4
0,70,96,8
0,67,103,8
0,82,0,48
0,67,0,4
0,70,0,16
0,51,0,0
0,63,0,4
0,58,0,0
0,55,0,0
0,64,0,32
0,26,0,16
0,27,105,48
0,51,88,0
0,55,88,0
0,58,99,0
0,36,105,4
0,42,105,0
0,76,105,0
0,82,95,0
0,86,105,0
0,63,105,4
0,55,0,8
0,51,0,0
0,58,0,4
0,82,0,60
0,63,0,32
0,42,0,8
0,86,0,20
0,76,0,28
0,70,115,16
0,63,96,8
0,51,102,0
0,55,102,0
0,58,102,0
0,82,88,4
0,67,115,4
0,67,0,48
0,36,0,8
0,63,0,0
0,82,0,4
0,70,0,16
0,51,0,8
0,58,0,4
0,55,0,0
0,27,0,56
0,46,105,40
0,51,105,0
0,55,105,0
0,58,105,0
0,46,105,4
0,82,105,0
0,82,0,96
0,46,0,8
0,58,96,40
0,63,115,24
0,46,0,16
0,62,105,4
0,82,94,0
0,51,0,0
0,55,0,0
0,67,115,4
0,58,0,0
0,51,90,0
0,55,90,0
0,58,90,4
0,82,0,56
0,51,0,4
0,58,0,4
0,55,0,0
0,62,0,8
0,36,105,12
0,51,88,0
0,55,88,0
0,58,99,0
0,36,105,4
0,42,105,0
0,63,105,0
0,76,105,0
0,82,94,0
0,86,105,0
0,58,0,4
0,55,0,0
0,51,0,0
0,82,0,20
0,76,0,8
0,63,0,0
0,42,0,8
0,86,0,4
0,63,0,20
0,58,0,8
0,82,90,12
0,51,102,0
0,55,102,0
0,58,102,0
0,36,0,36
0,82,0,52
0,51,0,4
0,67,0,4
0,58,0,0
0,55,0,0
0,63,105,52
0,58,115,8
0,36,0,12
0,34,105,24
0,46,105,0
0,51,105,0
0,55,105,0
0,46,105,4
0,64,105,0
0,82,105,0
0,58,105,0
0,58,0,52
0,63,0,16
0,46,0,8
0,82,0,20
0,64,0,0
0,46,0,88
0,64,105,4
0,82,86,0
0,51,0,0
0,55,0,0
0,58,0,4
0,51,90,0
0,55,90,0
0,58,90,0
0,82,0,68
0,51,0,20
0,58,0,4
0,55,0,0
0,64,0,32
0,34,0,0
0,39,105,64
0,70,115,0
0,51,88,0
0,36,105,4
0,42,105,0
0,82,95,0
0,55,88,0
0,58,99,0
0,63,105,4
0,76,105,0
0,86,105,0
0,55,0,8
0,51,0,0
0,58,0,4
0,82,0,60
0,63,0,32
0,42,0,8
0,86,0,20
0,63,96,20
0,76,0,8
0,82,88,24
0,51,102,0
0,55,102,0
0,58,102,0
0,70,0,28
0,82,0,36
0,36,0,0
0,58,0,28
0,55,0,4
0,51,0,0
0,67,115,52
0,63,0,16
0,46,105,28
0,51,105,0
0,55,105,0
0,58,105,0
0,46,105,4
0,82,105,0
0,39,0,36
0,82,0,60
0,46,0,8
0,67,0,24
0,70,115,28
0,55,0,28
0,62,105,4
0,82,94,0
0,39,105,0
0,51,0,0
0,46,0,4
0,58,0,0
0,51,90,0
0,55,90,0
0,58,90,4
0,39,0,52
0,82,0,4
0,51,0,28
0,58,0,4
0,55,0,0
0,62,0,24
0,70,0,36
0,72,115,4
0,67,115,4
0,63,96,4
0,31,105,24
0,51,88,0
0,55,88,0
0,58,99,0
0,36,105,4
0,42,105,0
0,76,105,0
0,82,94,0
0,86,105,0
0,63,105,4
0,55,0,8
0,51,0,0
0,58,0,4
0,63,0,28
0,67,0,0
0,72,0,24
0,82,0,32
0,76,0,8
0,63,0,0
0,42,0,8
0,86,0,12
0,72,115,40
0,63,96,8
0,67,115,0
0,82,90,12
0,51,102,0
0,55,102,0
0,58,102,0
0,36,0,36
0,67,0,4
0,63,0,40
0,72,0,4
0,82,0,4
0,51,0,4
0,58,0,4
0,55,0,0
0,31,0,44
0,72,115,32
0,63,98,4
0,36,105,16
0,46,105,0
0,51,105,0
0,55,105,0
0,46,105,4
0,64,105,0
0,82,105,0
0,67,114,0
0,58,105,0
0,46,0,76
0,67,0,16
0,82,0,4
0,64,0,0
0,63,0,52
0,70,113,16
0,72,0,12
0,46,0,8
0,64,105,4
0,82,86,0
0,51,0,0
0,55,0,0
0,58,0,4
0,50,90,0
0,53,90,0
0,58,90,0
0,70,0,32
0,36,0,32
0,82,0,4
0,50,0,20
0,58,0,4
0,53,0,0
0,64,0,32
0,34,105,64
0,50,88,0
0,53,88,0
0,58,99,0
0,36,105,4
0,42,105,0
0,76,105,0
0,82,95,0
0,86,105,0
0,63,105,4
0,77,115,0
0,74,113,4
0,53,0,4
0,50,0,0
0,58,0,4
0,77,0,56
0,82,0,4
0,74,0,0
0,63,0,32
0,42,0,8
0,86,0,20
0,76,0,28
0,74,115,24
0,50,102,0
0,53,102,0
0,58,102,0
0,82,88,4
0,77,115,0
0,77,0,56
0,82,0,4
0,36,0,0
0,74,0,0
0,50,0,28
0,58,0,4
0,53,0,0
0,34,0,40
0,74,115,52
0,77,115,4
0,46,105,0
0,50,105,0
0,53,105,0
0,46,105,4
0,82,105,0
0,58,105,0
0,77,0,44
0,74,0,12
0,82,0,40
0,46,0,8
0,74,115,72
0,77,115,4
0,46,0,4
0,62,105,4
0,82,94,0
0,34,105,0
0,50,0,0
0,53,0,4
0,58,0,0
0,50,90,0
0,53,90,0
0,58,90,4
0,82,0,56
0,34,0,28
0,50,0,0
0,77,0,4
0,58,0,0
0,53,0,0
0,74,0,16
0,62,0,8
0,68,115,56
0,32,105,16
0,48,88,0
0,51,88,0
0,56,99,0
0,36,105,4
0,42,105,0
0,76,105,0
0,82,94,0
0,86,105,0
0,63,105,4
0,56,0,0
0,51,0,0
0,48,0,0
0,82,0,64
0,76,0,8
0,63,0,0
0,42,0,8
0,86,0,12
0,75,115,44
0,82,90,16
0,48,102,0
0,51,102,0
0,56,102,0
0,72,115,4
0,68,0,12
0,36,0,20
0,82,0,52
0,75,0,4
0,48,0,0
0,72,0,4
0,56,0,0
0,51,0,0
0,44,105,96
0,48,105,0
0,51,105,0
0,56,105,0
0,46,105,4
0,64,105,0
0,82,105,0
0,72,115,4
0,75,115,0
0,72,0,60
0,75,0,8
0,46,0,4
0,82,0,20
0,32,0,0
0,64,0,4
0,44,0,84
0,64,105,4
0,82,86,0
0,75,115,0
0,48,0,0
0,51,0,4
0,56,0,0
0,48,90,0
0,51,90,0
0,56,90,4
0,72,115,4
0,82,0,60
0,72,0,0
0,48,0,20
0,56,0,4
0,51,0,0
0,75,0,4
0,64,0,28
0,65,105,64
0,31,105,0
0,46,88,0
0,50,88,0
0,36,105,4
0,42,105,0
0,76,105,0
0,82,95,0
0,55,99,0
0,63,105,4
0,86,105,0
0,67,115,0
0,50,0,8
0,46,0,0
0,55,0,4
0,65,0,20
0,82,0,40
0,65,105,16
0,63,0,16
0,42,0,8
0,86,0,20
0,65,0,0
0,76,0,28
0,65,105,24
0,46,102,0
0,50,102,0
0,55,102,0
0,82,88,4
0,70,115,4
0,74,115,0
0,67,0,24
0,65,0,4
0,82,0,28
0,36,0,0
0,70,0,28
0,46,0,0
0,65,105,4
0,55,0,0
0,50,0,0
0,74,0,4
0,65,0,36
0,65,105,56
0,43,105,0
0,46,105,0
0,50,105,0
0,46,105,4
0,82,105,0
0,55,105,0
0,31,0,4
0,70,115,4
0,74,115,8
0,65,0,20
0,70,0,40
0,74,0,4
0,82,0,16
0,46,0,8
0,70,115,80
0,43,0,0
0,62,105,4
0,82,94,0
0,31,105,0
0,46,0,0
0,74,115,4
0,50,0,0
0,55,0,0
0,46,90,0
0,50,90,4
0,55,90,0
0,82,0,56
0,74,0,12
0,31,0,12
0,70,0,0
0,46,0,4
0,55,0,4
0,50,0,0
0,62,0,24
0,66,105,72
0,29,105,0
0,50,88,0
0,53,88,0
0,36,105,4
0,42,105,0
0,76,105,0
0,82,94,0
0,58,99,0
0,63,105,4
0,86,105,0
0,65,115,4
0,53,0,4
0,50,0,0
0,58,0,4
0,66,0,24
0,66,105,52
0,82,0,8
0,76,0,8
0,63,0,0
0,42,0,8
0,86,0,12
0,66,0,8
0,66,105,52
0,50,102,0
0,53,102,0
0,58,102,0
0,82,90,4
0,68,115,4
0,72,115,0
0,65,0,12
0,66,0,8
0,36,0,8
0,82,0,48
0,68,0,0
0,72,0,4
0,50,0,4
0,66,105,4
0,58,0,0
0,53,0,0
0,66,0,56
0,66,105,40
0,46,105,0
0,50,105,0
0,53,105,0
0,46,105,4
0,64,105,0
0,82,105,0
0,58,105,0
0,72,115,12
0,68,115,4
0,66,0,28
0,46,0,32
0,68,0,0
0,72,0,4
0,29,0,4
0,64,0,12
0,82,0,0
0,46,0,88
0,64,105,4
0,82,86,0
0,50,0,0
0,53,0,0
0,58,0,4
0,51,90,0
0,55,90,0
0,58,90,0
0,68,115,8
0,72,115,8
0,82,0,52
0,72,0,12
0,51,0,8
0,68,0,4
0,58,0,0
0,55,0,0
0,64,0,32
0,27,105,64
0,51,88,0
0,55,88,0
0,58,99,0
0,36,105,4
0,42,105,0
0,76,105,0
0,82,95,0
0,86,105,0
0,63,105,4
0,55,0,8
0,51,0,0
0,63,115,4
0,58,0,0
0,82,0,60
0,63,0,32
0,42,0,8
0,86,0,20
0,76,0,28
0,65,102,8
0,51,102,16
0,55,102,0
0,58,102,0
0,82,88,4
0,75,115,12
0,65,0,28
0,36,0,20
0,63,0,0
0,82,0,4
0,51,0,24
0,58,0,4
0,55,0,0
0,46,105,96
0,51,105,0
0,55,105,0
0,58,105,0
0,46,105,4
0,82,105,0
0,70,113,0
0,27,0,20
0,75,0,8
0,82,0,68
0,46,0,8
0,70,0,80
0,46,0,0
0,62,105,4
0,82,94,0
0,27,97,0
0,51,0,0
0,55,0,4
0,58,0,0
0,51,90,0
