track,note,velocity,time
3,36,127,3072
3,36,127,152
3,33,127,0
3,31,127,40
3,36,127,0
3,36,127,144
3,33,127,0
3,31,127,16
3,36,127,4
3,36,127,156
3,33,127,96
3,31,127,72
3,36,127,44
3,36,127,156
3,33,127,100
3,31,127,32
3,36,127,32
3,36,127,160
3,33,127,0
3,31,127,60
3,36,127,28
3,36,127,168
3,33,127,8
3,31,127,16
3,36,127,40
3,36,127,152
3,33,127,0
3,31,127,32
3,36,127,44
3,36,127,180
3,33,127,0
3,31,127,56
3,36,127,52
3,36,127,152
3,33,127,96
3,31,127,40
3,36,127,0
3,36,127,144
3,33,127,0
3,31,127,16
3,36,127,4
3,36,127,156
3,33,127,96
3,31,127,68
3,36,127,44
3,36,127,160
3,33,127,96
3,31,127,32
3,36,127,32
3,36,127,156
3,33,127,0
3,31,127,56
3,36,127,28
3,36,127,172
3,33,127,4
3,31,127,12
3,36,127,40
3,36,127,152
3,33,127,0
3,31,127,32
3,36,127,48
3,36,127,180
3,33,127,0
3,31,127,52
3,36,127,52
3,36,127,152
3,33,127,0
3,31,127,36
3,36,127,0
3,36,127,144
3,33,127,0
3,31,127,16
3,36,127,8
3,36,127,156
3,33,127,96
3,31,127,72
3,36,127,48
3,36,127,160
3,33,127,96
3,31,127,32
3,36,127,24
3,36,127,160
3,33,127,0
3,31,127,60
3,36,127,32
3,36,127,172
3,33,127,4
3,31,127,12
3,36,127,40
3,36,127,152
3,33,127,0
3,31,127,32
3,36,127,48
3,36,127,180
3,33,127,0
3,31,127,52
3,36,127,52
3,36,127,152
3,33,127,0
3,31,127,40
3,36,127,4
3,36,127,144
3,33,127,96
3,31,127,16
3,36,127,8
3,36,127,156
3,33,127,96
3,31,127,72
3,36,127,48
3,36,127,160
3,33,127,96
3,31,127,32
3,36,127,28
3,36,127,160
3,33,127,0
3,31,127,60
3,36,127,28
3,36,127,172
3,33,127,8
3,31,127,12
3,36,127,44
3,36,127,152
3,33,127,0
3,31,127,32
3,36,127,48
3,36,127,176
3,33,127,0
3,31,127,52
3,36,127,52
3,36,127,152
3,33,127,0
3,31,127,40
3,36,127,0
3,36,127,144
3,33,127,0
3,31,127,16
3,36,127,8
3,36,127,156
3,33,127,96
3,31,127,72
3,36,127,48
3,36,127,160
3,33,127,92
3,31,127,32
3,36,127,32
3,36,127,160
3,33,127,0
3,31,127,56
3,36,127,28
3,36,127,172
3,33,127,4
3,31,127,12
3,33,127,44
3,45,127,24
3,45,127,140
3,33,127,48
3,45,127,20
3,45,127,116
3,45,127,136
3,33,127,36
3,45,127,32
3,38,127,28
3,38,127,48
3,38,127,112
3,31,127,220
3,43,127,32
3,31,127,96
3,43,127,40
3,43,127,108
3,43,127,92
3,43,127,104
3,31,127,12
3,43,127,8
3,42,127,72
3,42,127,68
3,42,127,204
3,30,127,36
3,42,127,28
3,42,127,116
3,37,127,16
3,30,127,16
3,40,127,108
3,40,127,72
3,40,127,200
3,28,127,28
3,40,127,40
3,40,127,100
3,28,127,24
3,36,127,24
3,36,127,100
3,38,127,68
3,38,127,96
3,31,127,52
3,43,127,212
3,31,127,356
3,43,127,20
3,43,127,100
3,31,127,4
3,43,127,92
3,42,127,48
3,42,127,56
3,42,127,208
3,30,127,184
3,42,127,32
3,42,127,128
3,30,127,16
3,40,127,68
3,40,127,80
3,40,127,196
3,28,127,20
3,40,127,24
3,40,127,76
3,35,127,32
3,36,127,48
3,36,127,128
3,38,127,104
3,38,127,80
3,31,127,132
3,43,127,12
3,43,127,196
3,43,127,176
3,38,127,0
3,43,127,96
3,43,127,68
3,31,127,0
3,42,127,28
3,42,127,68
3,42,127,200
3,30,127,8
3,42,127,24
3,42,127,96
3,30,127,4
3,40,127,100
3,40,127,96
3,40,127,192
3,35,127,284
3,40,127,56
3,35,127,64
3,36,127,64
3,36,127,72
3,38,127,124
3,38,127,116
3,31,127,120
3,43,127,56
3,31,127,84
3,43,127,32
3,43,127,84
3,43,127,84
3,31,127,28
3,43,127,56
3,38,127,60
3,38,127,84
3,38,127,188
3,38,127,192
3,38,127,108
3,38,127,108
3,39,127,104
3,39,127,68
3,34,127,40
3,39,127,32
3,39,127,108
3,39,127,108
3,39,127,100
3,31,127,76
3,43,127,16
3,31,127,36
3,43,127,28
3,43,127,140
3,38,127,0
3,31,127,0
3,43,127,64
3,36,127,100
3,36,127,148
3,33,127,0
3,31,127,36
3,36,127,4
3,36,127,144
3,33,127,0
3,31,127,12
3,36,127,4
3,36,127,156
3,33,127,92
3,31,127,72
3,36,127,48
3,36,127,160
3,33,127,96
3,31,127,32
3,36,127,28
3,36,127,160
3,33,127,0
3,31,127,60
3,36,127,28
3,36,127,168
3,33,127,8
3,31,127,16
3,36,127,40
3,36,127,152
3,33,127,0
3,31,127,32
3,36,127,44
3,36,127,180
3,33,127,0
3,31,127,52
3,36,127,52
3,36,127,152
3,33,127,0
3,31,127,36
3,36,127,0
3,36,127,140
3,33,127,0
3,31,127,12
3,36,127,4
3,36,127,156
3,33,127,96
3,31,127,68
3,36,127,44
3,36,127,156
3,33,127,92
3,31,127,32
3,36,127,28
3,36,127,156
3,33,127,0
3,31,127,60
3,36,127,24
3,36,127,172
3,33,127,8
3,31,127,16
3,33,127,44
3,45,127,20
3,45,127,140
3,33,127,48
3,45,127,28
3,45,127,116
3,45,127,136
3,33,127,36
3,45,127,32
3,38,127,28
3,38,127,48
3,38,127,104
3,31,127,224
3,43,127,28
3,31,127,88
3,43,127,36
3,43,127,108
3,43,127,96
3,43,127,104
3,31,127,8
3,43,127,4
3,42,127,68
3,42,127,76
3,42,127,200
3,30,127,36
3,42,127,32
3,42,127,112
3,37,127,12
3,30,127,16
3,40,127,112
3,40,127,68
3,40,127,200
3,28,127,28
3,40,127,40
3,40,127,100
3,28,127,20
3,36,127,20
3,36,127,96
3,38,127,64
3,38,127,96
3,31,127,52
3,43,127,216
3,31,127,356
3,43,127,24
3,43,127,100
3,31,127,0
3,43,127,0
3,42,127,48
3,42,127,60
3,42,127,204
3,30,127,184
3,42,127,32
3,42,127,124
3,30,127,16
3,40,127,68
3,40,127,80
3,40,127,192
3,28,127,24
3,40,127,24
3,40,127,80
3,35,127,32
3,36,127,48
3,36,127,124
3,38,127,100
3,38,127,80
3,31,127,132
3,43,127,8
3,43,127,196
3,43,127,180
3,38,127,0
3,43,127,100
3,43,127,68
3,31,127,92
3,42,127,28
3,42,127,64
3,42,127,200
3,30,127,12
3,42,127,24
3,42,127,92
3,30,127,8
3,40,127,100
3,40,127,96
3,40,127,176
3,35,127,284
3,40,127,60
3,35,127,64
3,36,127,64
3,36,127,72
3,38,127,124
3,38,127,112
3,31,127,120
3,43,127,56
3,31,127,84
3,43,127,32
3,43,127,88
3,43,127,84
3,31,127,32
3,43,127,60
3,38,127,64
3,38,127,84
3,38,127,192
3,38,127,192
3,38,127,108
3,38,127,108
3,39,127,100
3,39,127,72
3,34,127,48
3,39,127,32
3,39,127,108
3,39,127,104
3,39,127,100
3,31,127,76
3,43,127,16
3,31,127,36
3,43,127,24
3,43,127,144
3,38,127,0
3,31,127,0
3,43,127,60
3,36,127,96
3,36,127,152
3,33,127,0
3,31,127,36
3,36,127,4
3,36,127,140
3,33,127,0
3,31,127,16
3,36,127,8
3,36,127,156
3,33,127,96
3,31,127,72
3,36,127,48
3,36,127,160
3,33,127,92
3,31,127,28
3,36,127,28
3,36,127,160
3,33,127,0
3,31,127,56
3,36,127,28
3,36,127,172
3,33,127,8
3,31,127,12
3,36,127,40
3,36,127,152
3,33,127,0
3,31,127,32
3,36,127,48
3,36,127,180
3,33,127,0
3,31,127,52
3,36,127,56
3,36,127,152
3,33,127,0
3,31,127,36
3,36,127,0
3,36,127,144
3,33,127,0
3,31,127,16
3,36,127,4
3,36,127,156
3,33,127,96
3,31,127,72
3,36,127,48
3,36,127,156
3,33,127,100
3,31,127,32
3,36,127,32
3,36,127,160
3,33,127,0
3,31,127,60
3,36,127,24
3,36,127,172
3,33,127,8
3,31,127,16
3,36,127,40
3,36,127,152
3,33,127,0
3,31,127,32
3,36,127,44
3,36,127,180
3,33,127,0
3,31,127,56
3,36,127,56
3,36,127,148
3,33,127,0
3,31,127,32
3,36,127,4
3,36,127,144
3,33,127,0
3,31,127,12
3,36,127,4
3,36,127,156
3,33,127,96
3,31,127,72
3,36,127,44
3,36,127,160
3,33,127,96
3,31,127,32
3,36,127,32
3,36,127,160
3,33,127,0
3,31,127,60
3,36,127,28
3,36,127,172
3,33,127,8
3,31,127,16
3,36,127,36
3,36,127,152
3,33,127,0
3,31,127,28
3,36,127,48
3,36,127,180
3,33,127,0
3,31,127,52
3,36,127,52
3,36,127,148
3,33,127,0
3,31,127,36
3,36,127,4
3,36,127,144
3,33,127,0
3,31,127,16
3,36,127,4
3,36,127,156
3,33,127,0
3,31,127,72
3,36,127,48
3,36,127,160
3,33,127,96
3,31,127,36
3,36,127,28
3,36,127,160
3,33,127,0
3,31,127,60
3,36,127,32
3,36,127,172
3,33,127,8
3,31,127,12
3,33,127,44
3,45,127,20
3,45,127,132
3,33,127,48
3,45,127,24
3,45,127,120
3,45,127,136
3,33,127,40
3,45,127,28
3,38,127,32
3,38,127,48
3,38,127,112
3,31,127,220
3,43,127,32
3,31,127,92
3,43,127,40
3,43,127,104
3,43,127,92
3,43,127,108
3,31,127,12
3,43,127,4
3,42,127,76
3,42,127,72
3,42,127,200
3,30,127,32
3,42,127,32
3,42,127,108
3,37,127,16
3,30,127,16
3,40,127,112
3,40,127,72
3,40,127,200
3,28,127,28
3,40,127,40
3,40,127,100
3,28,127,24
3,36,127,24
3,36,127,100
3,38,127,68
3,38,127,100
3,31,127,52
3,43,127,216
3,31,127,356
3,43,127,28
3,43,127,96
3,31,127,0
3,43,127,0
3,42,127,48
3,42,127,60
3,42,127,204
3,30,127,180
3,42,127,32
3,42,127,128
3,30,127,16
3,40,127,68
3,40,127,80
3,40,127,192
3,28,127,20
3,40,127,28
3,40,127,76
3,35,127,32
3,36,127,48
3,36,127,124
3,38,127,104
3,38,127,76
3,31,127,132
3,43,127,16
3,43,127,196
3,43,127,180
3,38,127,0
3,43,127,100
3,43,127,68
3,31,127,96
3,42,127,24
3,42,127,60
3,42,127,200
3,30,127,12
3,42,127,20
3,42,127,96
3,30,127,8
3,40,127,96
3,40,127,92
3,40,127,180
3,35,127,288
3,40,127,60
3,35,127,60
3,36,127,60
3,36,127,72
3,38,127,124
3,38,127,120
3,31,127,124
3,43,127,52
3,31,127,84
3,43,127,36
3,43,127,84
3,43,127,80
3,31,127,32
3,43,127,52
3,38,127,60
3,38,127,84
3,38,127,188
3,38,127,176
3,38,127,108
3,38,127,104
3,39,127,104
3,39,127,68
3,34,127,44
3,39,127,32
3,39,127,108
3,39,127,104
3,39,127,100
3,31,127,76
3,43,127,20
3,31,127,32
3,43,127,28
3,43,127,144
3,38,127,0
3,31,127,0
3,43,127,64
3,31,127,100
3,43,127,32
3,31,127,96
3,43,127,40
3,43,127,104
3,43,127,96
3,43,127,100
3,31,127,12
3,43,127,4
3,42,127,72
3,42,127,72
3,42,127,200
3,30,127,32
3,42,127,32
3,42,127,108
3,37,127,16
3,30,127,16
3,40,127,108
3,40,127,72
3,40,127,200
3,28,127,24
3,40,127,36
3,40,127,100
3,28,127,28
3,36,127,24
3,36,127,100
3,38,127,68
3,38,127,92
3,31,127,48
3,43,127,216
3,31,127,352
3,43,127,20
3,43,127,96
3,31,127,0
3,43,127,0
3,42,127,48
3,42,127,60
3,42,127,204
3,30,127,184
3,42,127,28
3,42,127,128
3,30,127,16
3,40,127,60
3,40,127,80
3,40,127,188
3,28,127,24
3,40,127,32
3,40,127,80
3,35,127,32
3,36,127,48
3,36,127,128
3,38,127,104
3,38,127,80
3,31,127,132
3,43,127,32
3,31,127,100
3,43,127,40
3,43,127,108
3,43,127,88
3,43,127,104
3,31,127,8
3,43,127,4
3,42,127,76
3,42,127,68
3,42,127,204
3,30,127,32
3,42,127,32
3,42,127,112
3,37,127,16
3,30,127,12
3,40,127,112
3,40,127,72
3,40,127,200
3,28,127,32
3,40,127,40
3,40,127,100
3,28,127,24
3,36,127,24
3,36,127,100
3,38,127,68
3,38,127,96
3,31,127,48
3,43,127,216
3,31,127,356
3,43,127,24
3,43,127,104
3,31,127,4
3,43,127,0
3,42,127,48
3,42,127,60
3,42,127,204
3,30,127,188
3,42,127,32
3,42,127,128
3,30,127,16
3,40,127,68
3,40,127,80
3,40,127,192
3,28,127,24
3,40,127,24
3,40,127,80
3,35,127,32
3,36,127,48
3,36,127,128
3,38,127,104
3,38,127,80
3,31,127,132
3,43,127,52
3,31,127,100
3,43,127,32
3,43,127,84
3,43,127,84
3,31,127,28
3,43,127,56
3,38,127,60
3,38,127,84
3,38,127,188
3,38,127,192
3,38,127,104
3,38,127,108
3,39,127,104
3,39,127,68
3,34,127,44
3,39,127,28
3,39,127,108
3,39,127,104
3,39,127,0
3,41,127,76
3,29,127,36
3,41,127,8
3,29,127,0
3,41,127,8
3,29,127,0
3,41,127,20
3,29,127,192
3,43,127,24
3,31,127,32
4,67,103,3072
4,60,94,0
4,36,94,0
4,64,98,0
4,48,80,0
4,69,98,24
4,65,94,0
4,48,80,0
4,36,94,0
4,60,80,0
4,53,94,0
4,60,108,0
4,56,98,0
4,36,80,0
4,36,94,36
4,48,67,0
4,60,76,0
4,67,80,0
4,64,80,0
4,67,103,256
4,60,94,0
4,36,94,0
4,64,98,0
4,48,80,0
4,69,98,24
4,65,94,0
4,48,80,0
4,36,94,0
4,60,80,0
4,53,94,0
4,60,108,0
4,56,98,0
4,36,80,0
4,36,94,32
4,48,67,0
4,60,76,0
4,67,80,0
4,64,80,0
4,67,103,256
4,60,94,0
4,36,94,0
4,64,98,0
4,48,80,0
4,69,98,24
4,65,94,0
4,48,80,0
4,36,94,0
4,60,80,0
4,53,94,0
4,60,108,0
4,56,98,0
4,36,80,0
4,36,94,32
4,48,67,0
4,60,76,0
4,67,80,0
4,64,80,0
4,67,103,252
4,60,94,0
4,36,94,0
4,64,98,0
4,48,80,0
4,69,98,24
4,65,94,0
4,48,80,0
4,36,94,0
4,60,80,0
4,53,94,600
4,60,108,0
4,56,98,0
4,36,80,0
4,36,94,36
4,48,67,0
4,60,76,0
4,67,80,0
4,64,80,0
4,67,103,252
4,60,94,0
4,36,94,0
4,64,98,0
4,48,80,0
4,69,98,24
4,65,94,0
4,48,80,0
4,36,94,0
4,60,80,0
4,53,94,600
4,60,108,0
4,56,98,0
4,36,80,0
4,60,113,36
4,45,113,0
4,64,108,0
4,57,94,0
4,60,108,268
4,64,113,0
4,57,103,0
4,45,119,0
4,45,108,212
4,60,108,0
4,64,98,0
4,57,84,0
4,45,60,24
4,60,113,0
4,57,94,0
4,64,98,0
4,64,113,208
4,60,119,0
4,57,108,0
4,45,119,0
4,57,103,16
4,60,113,0
4,64,113,0
4,66,113,216
4,50,113,0
4,69,119,0
4,62,119,0
4,57,98,0
4,96,72,152
4,95,98,48
4,93,108,44
4,91,108,28
4,89,90,28
4,88,80,36
4,86,94,32
4,84,80,32
4,83,63,32
4,81,72,28
4,79,65,28
4,77,80,32
4,76,103,20
4,59,103,28
4,62,103,0
4,55,90,0
4,50,98,0
4,43,113,0
4,55,67,76
4,50,113,16
4,43,80,0
4,43,72,128
4,41,84,0
4,62,108,0
4,59,103,0
4,55,90,0
4,43,103,8
4,59,113,108
4,55,103,0
4,62,113,0
4,50,98,68
4,55,90,76
4,42,108,12
4,54,103,0
4,57,103,0
4,62,103,0
4,62,113,36
4,54,67,0
4,57,108,0
4,42,94,0
4,54,72,104
4,57,80,0
4,62,94,0
4,42,119,0
4,57,108,0
4,54,94,0
4,62,108,0
4,54,76,196
4,57,103,0
4,62,94,0
4,59,94,24
4,55,90,0
4,52,90,0
4,67,94,0
4,62,94,0
4,71,94,0
4,59,65,100
4,71,98,4
4,67,108,0
4,62,103,0
