track,note,velocity,time
1,64,127,17160
1,63,112,10
1,59,127,18
1,64,121,974
1,63,94,12
1,59,112,6
1,54,94,86
1,56,112,4
1,57,103,8
1,61,112,14
1,59,103,6
1,59,112,36
1,64,127,6
1,63,112,6
1,59,103,32
1,66,127,80
1,68,112,12
1,63,127,32
1,61,82,192
1,59,121,6
1,54,121,848
1,56,112,6
1,57,112,10
1,57,103,18
1,61,112,0
1,59,94,12
1,59,112,26
1,61,121,762
1,63,121,26
1,64,112,10
1,66,121,4
1,64,112,14
1,63,121,172
1,61,112,2
1,64,121,20
1,63,121,18
1,59,74,6
1,61,121,30
1,59,94,14
1,68,127,386
1,69,103,18
1,68,121,4
1,66,121,12
1,64,103,4
1,66,127,188
1,68,112,20
1,61,112,16
1,64,103,6
1,64,103,26
1,66,121,20
1,63,112,32
1,61,82,4
1,59,112,8
1,68,121,120
1,69,94,30
1,68,112,10
1,66,121,22
1,66,127,52
1,64,90,6
1,64,127,28
1,64,121,46
1,64,112,40
1,66,127,38
1,63,121,60
1,61,121,10
1,59,127,8
1,61,94,106
1,64,121,26
1,68,121,106
1,69,103,32
1,68,127,36
1,66,121,38
1,66,121,30
1,64,112,8
1,64,121,338
1,64,121,30
1,66,127,14
1,61,112,36
1,63,121,36
1,64,103,24
1,64,127,5072
1,63,112,10
1,59,127,26
1,64,121,964
1,63,94,12
1,59,112,16
1,54,94,84
1,56,112,4
1,57,103,4
1,61,112,10
1,59,103,6
1,59,112,38
1,64,127,6
1,63,112,6
1,59,103,40
1,66,127,76
1,68,112,16
1,63,127,30
1,61,82,192
1,59,121,6
1,54,121,852
1,56,112,10
1,57,112,20
1,57,103,22
1,61,112,0
1,59,94,16
1,59,112,28
1,61,121,762
1,63,121,30
1,64,112,14
1,66,121,4
1,64,112,14
1,63,121,172
1,61,112,0
1,64,121,20
1,63,121,6
1,59,74,4
1,61,121,22
1,59,94,16
1,68,127,388
1,69,103,16
1,68,121,8
1,66,121,12
1,64,103,4
1,66,127,188
1,68,112,24
1,61,112,16
1,64,103,6
1,64,103,22
1,66,121,20
1,63,112,32
1,61,82,2
1,59,112,8
1,68,121,120
1,69,94,30
1,68,112,14
1,66,121,18
1,66,127,52
1,64,90,6
1,64,127,28
1,64,121,42
1,64,112,36
1,66,127,38
1,63,121,64
1,61,121,10
1,59,127,6
1,61,94,114
1,64,121,26
1,68,121,106
1,69,103,32
1,68,127,32
1,66,121,42
1,66,121,30
1,64,112,8
1,64,121,338
1,64,121,30
1,66,127,14
1,61,112,30
1,63,121,30
1,64,127,42
1,64,121,52
1,66,112,16
1,67,112,36
1,69,112,26
1,71,121,40
1,71,121,48
1,71,121,48
1,69,121,16
1,64,121,4
1,71,121,10
1,71,127,48
1,68,127,198
1,66,103,14
1,68,121,14
1,64,127,12
1,66,121,94
1,67,121,32
1,69,112,22
1,71,121,34
1,71,112,34
1,71,121,42
1,71,121,110
1,69,112,18
1,71,121,8
1,64,112,558
1,66,103,102
1,67,112,32
1,69,121,36
1,71,121,54
1,67,121,14
1,71,112,26
1,72,121,42
1,69,112,6
1,67,127,208
1,69,121,14
1,71,121,22
1,72,121,26
1,71,121,26
1,72,112,10
1,69,127,18
1,67,127,212
1,66,121,4
1,62,127,16
1,67,121,968
1,66,94,12
1,62,112,8
1,57,94,84
1,59,112,4
1,60,103,4
1,64,112,16
1,62,103,4
1,62,112,40
1,67,127,10
1,66,112,6
1,62,103,36
1,69,127,80
1,71,112,16
1,66,127,32
1,64,82,190
1,62,121,4
1,57,121,854
1,59,112,10
1,60,112,24
1,60,103,22
1,64,112,0
1,62,94,6
1,62,112,28
1,64,121,758
1,67,121,26
1,67,112,6
1,69,121,8
1,67,112,14
1,66,121,172
1,64,112,2
1,67,121,26
1,66,121,10
1,62,74,4
1,64,121,30
1,62,94,16
1,71,127,388
1,72,103,10
1,71,121,6
1,69,121,20
1,67,103,6
1,69,127,190
1,71,112,20
1,62,112,20
1,67,112,20
1,67,103,90
1,67,103,32
1,67,112,4
1,66,112,106
1,64,82,0
1,62,112,8
1,67,127,14
1,71,127,8
1,69,127,4
1,72,127,16
1,67,127,4
1,71,127,12
1,66,127,4
1,69,127,0
1,66,127,4
1,69,127,8
1,64,127,4
1,67,127,0
1,64,127,4
1,67,127,24
1,67,112,4
1,67,112,8
1,69,121,10
1,71,112,36
1,66,79,20
1,64,109,26
1,66,121,12
1,62,127,10
1,66,112,118
1,67,121,28
1,71,121,104
1,72,103,24
1,71,127,32
1,69,121,42
1,69,121,30
1,67,112,10
1,67,121,332
1,67,121,30
1,69,127,14
1,64,112,36
1,66,121,36
1,69,127,24
1,64,93,276
1,62,121,8
1,62,121,2
1,71,124,886
1,71,121,38
1,69,127,22
1,69,121,36
1,67,127,2
1,64,100,122
1,64,113,116
1,62,121,130
1,64,117,2400
1,62,103,6
1,64,108,12
1,71,94,2672
1,71,121,38
1,69,94,22
1,69,121,36
1,67,127,2
1,64,78,122
1,64,94,116
1,62,121,130
1,71,94,268
1,71,121,38
1,69,94,22
1,69,121,36
1,67,127,2
1,64,78,68
1,64,94,116
1,62,121,130
2,35,91,11112
2,33,73,96
2,32,91,4
2,30,91,8
2,30,91,40
2,30,100,238
2,33,82,100
2,34,73,36
2,35,91,24
2,35,91,36
2,35,100,244
2,33,82,672
2,32,64,88
2,30,109,94
2,30,91,24
2,30,91,250
2,33,82,90
2,34,60,4
2,35,82,20
2,40,91,180
2,40,91,36
2,28,82,248
2,35,91,8
2,37,56,10
2,40,82,4
2,40,91,52
2,28,91,238
2,35,82,768
2,37,64,4
2,40,82,4
2,40,100,68
2,28,100,240
2,35,82,8
2,37,60,20
2,40,91,4
2,40,91,48
2,28,100,232
2,40,91,960
2,40,91,36
2,28,82,244
2,35,82,4
2,37,48,14
2,40,82,4
2,40,91,48
2,28,82,234
2,43,91,36
2,44,60,4
2,40,91,0
2,40,100,36
2,28,91,244
2,35,73,20
2,37,52,30
2,40,91,96
2,40,91,42
2,35,100,224
2,35,109,90
2,37,73,14
2,33,100,46
2,33,100,80
2,33,100,248
2,33,91,56
2,32,100,46
2,32,100,78
2,32,109,244
2,30,100,4
2,32,64,36
2,33,82,8
2,33,91,56
2,33,91,244
2,40,60,288
2,45,73,90
2,47,60,80
2,45,82,94
2,40,64,184
2,33,91,14
2,32,91,96
2,32,91,56
2,32,100,238
2,37,91,8
2,35,100,384
2,33,91,14
2,33,91,68
2,33,100,248
2,32,100,36
2,32,100,136
2,32,82,46
2,30,100,30
2,30,91,30
2,30,100,244
2,32,100,40
2,33,100,14
2,35,109,30
2,30,91,308
2,30,91,42
2,30,100,238
2,33,82,100
2,34,73,36
2,35,91,20
2,35,91,40
2,35,100,238
2,33,82,672
2,32,64,90
2,30,109,94
2,30,91,20
2,30,91,250
2,33,82,90
2,34,60,8
2,35,82,20
2,40,91,180
2,40,91,46
2,28,82,248
2,35,91,14
2,37,56,16
2,40,82,4
2,40,91,58
2,28,91,238
2,35,82,768
2,37,64,14
2,40,82,4
2,40,100,78
2,28,100,240
2,35,82,14
2,37,60,30
2,40,91,0
2,40,91,52
2,28,100,228
2,40,91,960
2,40,91,40
2,28,82,244
2,35,82,14
2,37,48,16
2,40,82,0
2,40,91,56
2,28,82,234
2,43,91,46
2,44,60,4
2,40,91,96
2,40,100,36
2,28,91,244
2,35,73,20
2,37,52,24
2,40,91,96
2,40,91,42
2,35,100,216
2,35,109,88
2,37,73,14
2,33,100,42
2,33,100,80
2,33,100,248
2,33,91,56
2,32,100,46
2,32,100,72
2,32,109,248
2,30,100,4
2,32,64,36
2,33,82,8
2,33,91,62
2,33,91,244
2,40,60,288
2,45,73,90
2,47,60,4
2,45,82,96
2,40,64,176
2,33,91,14
2,32,91,96
2,32,91,56
2,32,100,244
2,37,91,4
2,35,100,384
2,33,91,14
2,33,91,68
2,33,100,248
2,32,100,40
2,32,100,136
2,32,82,48
2,30,100,26
2,30,100,84
2,30,100,250
2,35,82,48
2,35,100,64
2,35,100,232
2,28,100,120
2,28,100,64
2,28,109,244
2,40,91,480
2,40,100,58
2,33,73,46
2,45,73,0
2,40,64,480
2,33,64,80
2,45,73,0
2,35,73,58
2,47,91,0
2,47,73,190
2,44,73,96
2,54,73,88
2,51,73,88
2,40,60,4
2,44,64,96
2,36,73,24
2,48,73,0
2,43,64,480
2,36,82,8
2,48,73,0
2,35,82,64
2,47,91,0
2,36,91,88
2,48,82,0
2,43,64,14
2,36,91,4
2,48,73,0
2,35,73,62
2,47,82,0
2,31,82,90
2,43,82,0
2,33,73,100
2,45,91,0
2,33,82,160
2,45,91,0
2,35,60,90
2,47,73,0
2,36,73,56
2,48,73,0
2,38,82,62
2,50,91,0
2,45,64,4
2,50,82,46
2,52,82,8
2,50,100,14
2,38,100,4
2,43,91,14
2,43,91,40
2,31,82,244
2,38,91,8
2,40,56,10
2,43,82,4
2,43,91,56
2,31,91,238
2,38,82,768
2,40,64,4
2,43,82,4
2,43,100,72
2,31,100,240
2,38,82,8
2,40,60,20
2,43,91,4
2,43,91,46
2,31,100,232
2,43,91,960
2,43,91,36
2,31,82,238
2,38,82,8
2,40,48,10
2,43,82,4
2,43,91,46
2,31,82,234
2,46,91,36
2,47,60,4
2,43,91,0
2,43,100,40
2,31,91,244
2,38,73,24
2,40,52,20
2,43,91,96
2,43,91,42
2,38,100,218
2,38,109,88
2,40,73,14
2,38,82,46
2,38,100,0
2,38,100,72
2,38,82,0
2,26,100,248
2,38,100,0
2,50,60,288
2,50,73,26
2,50,91,30
2,50,91,26
2,38,91,0
2,38,82,0
2,38,100,72
2,38,91,0
2,26,100,264
2,38,100,0
2,33,91,94
2,35,64,16
2,38,91,0
2,38,100,0
2,38,82,110
2,38,100,0
2,26,91,260
2,38,91,0
2,38,82,16
2,50,73,0
2,38,82,62
2,33,82,20
2,45,82,0
2,26,91,16
2,38,91,0
2,30,91,288
2,42,91,0
2,31,91,8
2,43,82,0
2,36,91,368
2,48,64,0
2,36,73,46
2,36,91,168
2,48,82,0
2,43,73,480
2,48,91,84
2,43,100,174
2,36,82,24
2,35,100,24
2,47,73,0
2,35,100,48
2,47,64,0
2,35,91,250
2,47,73,0
2,42,73,480
2,47,91,8
2,42,91,8
2,35,82,40
2,33,82,20
2,45,73,0
2,33,91,62
2,33,100,142
2,45,91,0
2,35,100,0
2,35,91,0
2,36,91,30
2,36,100,0
2,38,91,26
2,38,100,0
2,33,91,414
2,33,91,200
2,35,91,26
2,36,73,42
2,38,91,30
2,38,100,158
2,38,100,78
2,36,82,46
2,35,82,48
2,33,91,30
2,33,100,170
2,35,91,58
2,36,82,48
2,38,91,48
2,38,109,152
2,38,100,72
2,36,91,52
2,35,91,52
2,33,100,48
2,33,100,232
2,35,91,64
2,47,91,0
2,36,82,56
2,48,91,0
2,38,91,56
2,50,100,0
2,38,109,160
2,38,100,78
2,36,91,48
2,35,91,56
2,33,100,62
2,33,100,174
2,35,100,90
2,47,73,0
2,36,91,62
2,48,91,0
2,38,100,56
2,50,91,0
2,38,100,174
2,38,100,72
2,36,91,56
2,35,100,58
2,33,100,62
2,33,100,206
2,35,91,90
2,47,82,0
2,36,82,62
2,48,82,0
2,38,100,48
2,50,82,0
2,38,100,174
2,38,100,96
2,36,91,58
2,35,91,68
2,33,91,68
2,33,100,186
2,35,91,0
2,47,73,0
2,36,91,40
2,48,82,0
2,38,100,48
2,50,91,0
2,38,109,174
2,38,91,80
2,36,91,58
2,35,100,72
2,33,100,46
2,33,100,0
2,35,100,32
2,47,82,0
2,36,82,14
2,48,82,0
2,38,100,16
2,50,91,0
2,38,109,84
2,38,100,16
2,36,73,58
2,35,100,72
2,33,91,56
3,75,64,10744
3,83,56,0
3,95,64,0
3,93,64,0
3,81,56,4
3,73,48,2
3,92,60,0
3,80,52,4
3,71,64,2
3,69,73,182
3,90,64,0
3,78,64,4
3,75,73,1908
3,83,73,0
3,73,56,2
3,81,60,4
3,71,56,4
3,80,73,0
3,78,73,8
3,69,60,0
3,73,73,18026
3,61,100,6
3,85,82,0
3,78,64,22
3,66,100,6
3,90,91,0
3,92,91,10
3,68,91,4
3,80,82,0
3,73,73,2214
3,85,82,6
3,61,100,8
3,78,64,18
3,66,100,6
3,90,91,0
3,92,91,10
3,68,91,0
3,80,82,2
3,66,64,1354
3,54,73,2
3,78,64,4
3,56,73,10
3,68,64,0
3,80,82,2
3,83,91,10
3,59,64,6
3,71,64,0
3,73,82,20
3,61,64,6
3,85,64,2
3,81,100,448
3,69,91,4
3,80,91,8
3,68,82,6
3,73,91,6
3,61,82,6
3,64,82,16
3,76,100,0
3,78,91,14
3,66,100,2
3,78,64,768
3,90,64,0
3,69,73,0
3,83,56,1624
3,95,64,0
3,75,64,2
3,93,64,0
3,81,56,0
3,73,48,6
3,92,60,0
3,80,52,4
3,71,64,2
3,69,73,182
3,90,64,0
3,78,64,6
3,56,109,944
3,57,64,2
3,64,91,28
3,57,91,4
3,61,91,0
3,64,82,186
3,76,91,0
3,75,64,48
3,63,82,2
3,71,91,32
3,59,100,2
3,83,82,9714
3,61,91,8
3,64,73,0
3,71,82,0
3,57,73,2
3,71,82,144
3,83,91,0
3,61,91,4
3,57,91,0
3,64,82,0
3,66,73,134
3,63,73,0
3,59,73,4
3,57,82,40
3,61,82,0
3,64,91,4
3,59,91,170
3,63,91,0
3,66,91,2
3,61,91,158
3,64,91,0
3,68,82,0
3,73,73,290
3,61,100,0
3,85,82,0
3,78,64,22
3,90,91,6
3,66,100,0
3,92,91,10
3,68,91,0
3,80,82,2
3,59,73,164
3,66,91,0
3,63,82,2
3,61,82,30
3,64,91,0
3,68,82,0
3,68,82,96
3,71,82,0
3,64,91,6
3,61,82,60
3,64,82,0
3,57,82,4
3,73,73,284
3,85,82,4
3,61,100,0
3,78,64,22
3,66,100,6
3,90,91,0
3,92,91,6
3,68,91,4
3,80,82,0
3,59,82,70
3,63,91,0
3,66,91,0
3,66,64,4
3,54,73,6
3,78,64,2
3,56,73,10
3,68,64,0
3,80,82,6
3,83,91,6
3,59,64,2
3,71,64,0
3,73,82,28
3,61,64,0
3,85,64,4
3,61,82,4
3,64,91,0
3,68,91,0
3,81,100,444
3,69,91,4
3,80,91,8
3,68,82,2
3,73,91,6
3,61,82,4
3,64,82,4
3,76,100,0
3,78,91,14
3,66,100,2
3,64,82,94
3,57,91,2
3,61,73,0
3,68,64,4
3,71,91,252
3,83,73,0
3,54,100,288
3,56,91,18
3,64,82,8
3,76,82,8
3,66,64,4
3,78,73,8
3,79,73,14
3,67,56,8
3,81,64,20
3,69,82,2
3,83,82,38
3,71,91,0
3,60,73,6
3,64,91,0
3,67,91,8
3,81,100,58
3,61,36,2
3,64,100,0
3,69,91,0
3,59,73,228
3,64,64,4
3,68,64,0
3,80,73,0
3,64,73,342
3,76,73,10
3,66,82,12
3,78,82,4
3,67,64,20
3,79,64,6
3,69,73,36
3,81,73,2
3,71,82,46
3,83,73,0
3,64,100,2
3,67,91,0
3,60,64,0
3,64,100,294
3,57,82,0
3,61,100,0
3,69,100,8
3,83,91,214
3,71,91,4
3,67,91,2
3,64,91,8
3,60,73,2
3,59,82,164
3,62,82,0
3,67,91,2
3,59,64,482
3,71,60,0
3,83,60,0
3,60,73,22
3,72,64,0
3,84,82,4
3,91,91,82
3,79,82,4
3,67,82,4
3,71,60,286
3,59,73,2
3,83,56,0
3,72,82,10
3,84,91,2
3,60,91,0
3,81,100,84
3,93,100,0
3,69,100,2
3,83,40,0
3,67,100,10
3,79,91,4
3,91,100,2
3,66,100,4
3,78,82,0
3,90,82,4
3,62,100,36
3,74,100,0
3,86,100,0
3,62,82,712
3,71,91,0
3,74,91,8
3,66,82,8
3,86,91,0
3,60,73,174
3,64,73,0
3,67,64,0
3,72,82,2
3,84,91,0
3,67,82,108
3,64,82,6
3,60,73,0
3,72,82,0
3,84,82,4
3,55,100,164
3,57,100,2
3,74,91,84
3,86,91,0
3,62,91,12
