track,note,velocity,time
1,73,49,2673
1,73,0,228
1,73,79,384
1,73,0,308
1,70,23,60
1,70,0,184
1,73,94,200
1,70,36,372
1,73,0,16
1,70,0,136
1,73,119,232
1,73,0,100
1,73,105,68
1,70,36,212
1,73,0,60
1,70,0,124
1,66,38,16
1,66,0,80
1,70,46,120
1,70,0,52
1,75,86,132
1,70,48,176
1,75,0,84
1,70,0,60
1,66,58,44
1,66,0,100
1,73,78,112
1,73,0,356
1,73,81,408
1,73,0,348
1,66,64,412
1,70,77,76
1,75,79,108
1,73,69,224
1,70,0,24
1,75,0,108
1,66,0,136
1,73,0,88
1,66,51,24
1,66,0,100
1,66,42,72
1,71,78,20
1,66,0,184
1,71,0,72
1,66,50,120
1,66,0,44
1,63,78,144
1,71,90,4
1,71,0,80
1,63,0,8
1,63,60,308
1,70,57,0
1,63,0,316
1,70,0,28
1,63,61,40
1,68,86,8
1,66,47,396
1,63,0,76
1,68,0,44
1,63,33,76
1,66,0,36
1,63,0,16
1,63,52,116
1,66,59,384
1,63,0,296
1,66,0,4
1,68,70,252
1,61,61,0
1,61,0,132
1,61,40,48
1,68,0,52
1,65,54,144
1,65,0,80
1,61,0,4
1,61,72,128
1,66,105,0
1,61,0,320
1,66,0,28
1,61,37,28
1,68,49,8
1,68,0,284
1,61,0,8
1,61,45,92
1,68,50,12
1,68,0,68
1,61,0,4
1,56,75,18
1,58,36,46
1,49,75,5
1,61,75,7
1,65,75,44
1,58,0,1456
1,49,0,455
1,61,0,10
1,65,0,9
1,56,0,6
1,61,46,1500
1,66,36,224
1,61,0,856
1,66,0,20
1,58,42,420
1,61,59,212
1,66,59,372
1,58,0,344
1,61,0,84
1,66,0,20
1,63,33,376
1,66,52,148
1,63,0,80
1,66,0,52
1,63,75,72
1,70,66,8
1,68,44,344
1,70,0,44
1,63,0,76
1,68,0,16
1,68,65,256
1,63,62,0
1,68,0,456
1,63,0,12
1,63,72,332
1,66,75,4
1,68,55,360
1,66,0,36
1,68,0,272
1,63,0,16
1,63,47,84
1,68,48,0
1,68,0,64
1,63,0,4
1,63,54,680
1,71,69,4
1,71,0,280
1,70,56,80
1,70,0,160
1,63,0,28
1,63,86,208
1,70,81,0
1,63,0,336
1,70,0,36
1,63,51,44
1,68,69,0
1,63,0,288
1,68,0,28
1,70,63,44
1,63,61,0
1,70,0,336
1,63,0,24
1,63,49,44
1,73,73,24
1,73,0,264
1,63,0,36
1,63,45,64
1,73,55,8
1,63,0,344
1,73,0,104
1,65,72,288
1,70,78,8
1,68,36,360
1,70,0,24
1,68,0,28
1,65,0,0
1,65,75,348
1,70,92,0
1,70,0,232
1,65,0,32
1,61,70,488
1,68,34,240
1,68,0,72
1,68,90,104
1,66,32,212
1,65,49,156
1,68,0,40
1,66,0,4
1,66,61,148
1,65,0,84
1,61,0,228
1,66,0,56
1,61,37,12
1,61,0,60
1,61,67,148
1,70,78,0
1,68,37,364
1,70,0,16
1,68,0,72
1,61,0,12
1,66,84,296
1,61,77,0
1,66,0,52
1,61,0,8
1,61,45,320
1,61,0,76
1,61,52,88
1,61,0,80
1,61,64,140
1,70,67,0
1,68,37,340
1,66,31,224
1,70,0,48
1,61,0,52
1,68,0,8
1,66,0,24
1,61,49,68
1,66,47,4
1,61,0,84
1,66,0,4
1,63,47,472
1,63,0,100
1,66,84,96
1,63,50,0
1,63,0,280
1,63,36,116
1,66,0,36
1,63,0,12
1,63,79,343
1,70,78,9
1,70,0,44
1,63,0,12
1,63,66,320
1,70,63,4
1,70,0,296
1,63,0,0
1,68,47,68
1,63,45,0
1,68,0,76
1,63,0,4
1,63,66,296
1,70,66,8
1,68,44,224
1,70,0,52
1,63,0,36
1,68,0,95
1,66,35,9
1,66,0,52
1,63,66,1468
1,66,79,96
1,71,84,72
1,66,0,136
1,71,0,48
1,70,55,24
1,70,0,304
1,63,0,20
1,63,54,60
1,70,75,4
1,70,0,268
1,70,52,112
1,63,0,276
1,70,0,4
1,61,31,668
1,65,83,220
1,61,0,328
1,61,46,64
1,65,0,48
1,61,0,248
1,61,58,80
1,68,97,4
1,61,0,236
1,61,38,128
1,68,0,52
1,65,49,136
1,65,0,64
1,61,0,16
1,61,112,112
1,66,127,0
1,65,75,356
1,61,0,160
1,66,0,28
1,61,45,20
1,65,0,100
1,61,0,52
1,58,57,608
1,61,67,224
1,61,0,856
1,58,0,24
1,54,74,440
1,59,115,200
1,63,64,392
1,59,0,84
1,61,47,328
1,63,0,144
1,54,0,12
1,61,0,44
1,58,53,340
1,61,54,200
1,61,0,452
1,58,0,24
1,64,34,868
1,64,0,64
1,63,51,132
1,61,56,400
1,63,0,148
1,61,0,196
1,59,44,16
1,59,0,428
1,56,43,344
1,59,59,384
1,56,0,344
1,56,37,40
1,61,48,16
1,59,0,48
1,61,0,24
1,56,0,2
1,56,53,94
1,63,61,4
1,61,45,384
1,63,0,60
1,56,0,4
1,61,0,8
1,56,70,124
1,61,75,380
1,59,23,260
1,56,0,56
1,59,0,140
1,61,0,8
1,59,49,496
1,63,51,0
1,59,0,48
1,63,0,4
1,59,90,132
1,63,79,0
1,59,0,796
1,63,0,68
1,56,70,320
1,61,77,0
1,61,0,52
1,56,0,8
1,61,112,296
1,56,90,0
1,61,0,140
1,56,0,16
1,56,47,28
1,61,63,8
1,61,0,72
1,56,0,4
1,56,72,116
1,61,86,0
1,61,0,72
1,56,0,0
1,56,108,120
1,61,127,0
1,56,0,320
1,61,0,52
1,61,54,364
1,66,59,208
1,61,0,276
1,66,0,36
1,68,68,68
1,61,64,0
1,68,0,436
1,61,0,4
1,61,73,516
1,65,53,192
1,66,56,384
1,65,0,240
1,66,0,156
1,61,0,48
1,63,63,496
1,63,0,196
1,59,47,16
1,63,48,396
1,59,0,160
1,66,64,36
1,66,0,284
1,63,0,0
1,66,67,288
1,63,79,0
1,63,0,81
1,66,0,7
1,66,83,96
1,63,92,0
1,63,0,376
1,66,0,16
1,68,42,172
1,65,52,8
1,61,50,0
1,65,0,56
1,61,0,8
1,68,0,0
1,61,77,128
1,65,88,4
1,68,83,0
1,65,0,392
1,61,0,0
1,68,0,36
1,61,50,280
1,66,54,256
1,68,45,196
1,70,59,196
1,66,0,128
1,68,0,8
1,70,0,196
1,61,0,32
1,61,36,440
1,65,67,152
1,66,90,192
1,65,0,76
1,68,59,288
1,66,0,72
1,68,0,420
1,61,0,28
1,59,70,448
1,63,68,200
1,59,0,56
1,66,75,328
1,63,0,336
1,66,0,16
1,63,64,36
1,66,52,0
1,66,0,124
1,63,0,4
1,59,57,260
1,63,54,160
1,59,0,112
1,66,74,96
1,63,0,192
1,66,0,12
1,61,88,188
1,65,97,0
1,65,0,72
1,61,0,8
1,65,78,300
1,61,75,0
1,61,0,268
1,65,0,36
1,61,49,64
1,61,0,64
1,61,81,132
1,66,88,200
1,68,70,396
1,66,0,244
1,68,0,192
1,61,0,24
1,61,72,476
1,65,84,196
1,66,60,384
1,65,0,200
1,66,0,208
1,61,0,12
1,59,49,552
1,63,54,216
1,66,66,372
1,59,0,1052
1,66,0,44
1,63,0,0
1,59,94,48
1,63,63,100
1,66,41,228
1,59,0,44
1,63,0,220
1,66,0,12
1,56,60,384
1,59,63,192
1,63,47,340
1,59,0,448
1,63,0,104
1,56,0,16
1,56,50,52
1,61,50,0
1,61,0,1920
1,56,0,0
1,73,42,3260
1,70,39,372
1,73,0,60
1,70,0,68
1,73,115,272
1,70,47,400
1,73,0,44
1,70,0,48
1,73,102,276
1,70,60,400
1,73,0,68
1,66,50,120
1,70,0,56
1,66,0,4
1,66,88,112
1,66,0,96
1,73,105,96
1,70,43,200
1,73,0,40
1,70,0,64
1,66,75,80
1,66,0,64
1,75,102,140
1,70,55,360
1,75,0,56
1,70,0,84
1,66,69,264
1,73,83,0
1,66,0,316
1,66,58,52
1,73,0,24
1,66,0,108
1,70,42,76
1,70,0,36
1,75,92,156
1,75,0,76
1,75,112,104
1,70,53,204
1,66,68,192
1,70,0,68
1,75,0,20
1,66,0,52
1,66,44,52
1,70,59,0
1,66,0,68
1,70,0,4
1,66,97,112
1,70,105,0
1,66,0,124
1,66,50,56
1,70,0,52
1,66,0,108
1,71,50,80
1,71,0,56
1,71,94,120
1,66,77,20
1,66,0,192
1,71,0,8
1,66,51,168
1,66,0,92
1,73,77,276
1,71,51,384
1,73,0,48
1,71,0,76
1,73,92,260
1,66,65,16
1,66,0,196
1,66,54,156
1,73,0,96
1,66,0,168
1,66,50,132
1,66,0,96
1,66,78,84
1,71,30,204
1,66,0,124
1,66,54,52
1,71,0,84
1,73,81,140
1,66,0,264
1,66,81,124
1,73,0,536
1,66,0,48
1,54,42,2824
1,58,54,400
1,58,0,292
1,54,0,16
1,58,78,108
1,61,79,0
1,58,0,64
1,61,0,4
1,61,66,292
1,58,73,0
1,58,0,516
1,61,0,8
1,63,46,444
1,63,0,92
1,66,99,112
1,63,46,376
1,66,0,64
1,66,49,128
1,63,0,84
1,66,0,36
1,63,86,72
1,70,38,420
1,70,0,120
1,63,0,136
1,63,61,88
1,70,73,0
1,68,46,384
1,70,0,292
1,63,0,8
1,63,39,84
1,66,51,0
1,68,0,40
1,66,0,124
1,63,0,12
1,63,36,416
1,63,0,72
1,71,65,104
1,63,51,0
1,71,0,320
1,70,67,48
1,70,0,104
1,63,0,20
1,63,74,276
1,70,75,0
1,63,0,352
1,70,0,32
1,63,44,4
1,68,70,16
1,68,0,100
1,63,0,8
1,68,83,256
1,63,79,0
1,68,0,628
1,63,0,12
1,61,45,500
1,65,53,196
1,61,0,60
1,65,0,4
1,61,88,128
1,66,115,8
1,61,0,304
1,65,55,36
1,66,0,68
1,61,45,144
1,65,0,16
1,61,0,64
1,61,79,136
1,68,69,4
1,66,46,392
1,68,0,32
1,61,0,44
1,66,0,4
1,61,73,288
1,66,84,4
1,65,61,372
1,66,0,32
1,61,0,288
1,65,0,20
1,61,54,52
1,66,70,4
1,61,0,112
1,66,0,4
1,70,46,448
1,61,46,0
1,61,0,68
1,70,0,0
1,68,74,136
1,61,69,0
1,66,43,376
1,68,0,44
1,66,0,16
1,61,0,12
1,61,53,312
1,66,56,4
1,66,0,40
1,61,0,12
1,70,46,708
1,61,49,4
1,70,0,340
1,68,46,40
1,61,0,92
1,68,0,20
1,66,53,296
1,66,0,48
1,63,54,508
1,63,0,80
1,66,92,128
1,63,45,360
1,66,0,28
1,66,40,168
1,63,0,40
1,66,0,20
1,70,83,140
1,63,67,0
1,63,0,504
1,70,0,32
1,63,29,36
1,63,0,44
1,68,69,124
1,63,64,0
1,63,0,336
1,68,0,80
1,63,33,0
1,66,38,12
1,63,0,248
1,66,0,64
1,63,53,56
1,63,0,136
1,63,49,600
1,71,53,200
1,71,0,148
1,70,42,40
1,63,0,308
1,70,0,20
1,63,81,100
1,68,73,4
1,68,0,72
1,63,0,12
1,63,59,284
1,68,66,12
1,63,0,340
1,68,0,16
1,63,38,20
1,66,57,12
1,68,53,360
1,66,0,140
1,68,0,356
1,63,0,20
1,61,45,432
1,65,59,192
1,66,65,420
1,61,0,284
1,65,0,8
1,66,0,72
1,61,52,4
1,65,60,92
1,68,78,88
1,70,53,220
1,68,0,96
1,68,48,88
1,65,0,44
1,70,0,96
1,66,115,68
1,68,0,64
1,65,73,284
1,61,0,116
1,61,49,64
1,61,0,144
1,66,0,4
1,65,0,12
1,61,40,16
1,61,0,128
1,58,52,468
1,61,90,200
1,63,59,376
1,61,0,176
1,63,0,304
1,58,0,0
1,54,44,504
1,59,75,188
1,63,59,376
1,59,0,476
1,54,0,52
1,63,0,24
1,58,70,400
1,61,64,200
1,63,45,216
1,61,0,128
1,63,0,8
1,63,59,32
1,63,0,92
1,58,0,8
1,64,66,284
1,58,84,4
1,64,0,220
1,58,0,20
1,63,94,160
1,58,99,4
1,58,0,276
1,63,0,20
1,61,94,64
1,59,70,364
1,61,0,96
1,58,65,284
1,59,0,156
1,58,0,76
1,56,70,572
1,59,47,380
1,63,37,184
1,56,0,88
1,59,0,16
1,63,0,56
1,56,56,36
1,66,77,196
1,63,50,372
1,66,0,104
1,59,60,92
1,63,0,112
1,56,0,160
1,56,69,104
1,59,0,60
1,56,0,428
1,54,55,464
1,59,88,212
1,61,72,388
1,59,0,304
1,61,0,12
1,54,0,0
1,61,78,48
1,54,59,0
1,54,0,192
1,61,0,76
1,56,49,136
1,61,37,220
1,61,0,44
1,56,0,20
1,56,44,104
1,61,41,16
1,61,0,52
1,56,0,20
1,56,46,108
1,61,47,4
1,61,0,44
1,56,0,12
1,56,70,124
1,61,79,0
1,61,0,80
1,56,0,4
1,56,99,108
1,61,108,8
1,61,0,72
1,56,0,8
1,61,127,100
1,56,102,0
1,56,0,192
1,61,0,44
1,61,70,316
1,61,0,132
1,61,47,64
1,66,67,8
1,61,0,348
1,61,56,40
1,68,67,8
1,66,0,72
1,61,0,248
1,68,0,16
1,61,56,28
1,68,53,8
1,68,0,100
1,61,0,12
1,61,73,460
1,65,79,196
1,61,0,352
1,61,47,24
1,66,62,12
1,65,0,124
1,61,0,184
1,61,51,60
1,66,0,96
1,61,0,36
1,59,81,468
1,63,64,192
1,59,0,28
1,66,88,332
1,63,0,496
1,66,0,28
1,63,75,256
1,66,66,0
1,66,0,300
1,63,0,0
1,66,78,76
1,63,90,0
1,63,0,224
1,66,0,12
1,61,65,152
1,68,54,8
1,65,54,4
1,65,0,40
1,68,0,0
1,61,0,12
1,61,86,128
1,65,88,4
1,68,81,0
1,61,0,396
1,65,0,4
1,68,0,20
1,61,77,348
1,66,64,188
1,68,67,400
1,66,0,308
1,61,0,20
1,68,0,12
1,61,54,28
1,70,61,0
1,70,0,136
1,61,0,8
1,61,90,448
1,65,78,184
1,66,58,392
1,65,0,356
1,61,0,100
1,66,0,12
1,59,66,492
1,63,73,192
1,59,0,64
1,66,97,316
1,63,0,324
1,66,0,8
1,63,63,44
1,66,50,0
1,63,0,120
1,66,0,16
1,63,67,252
1,66,68,8
1,66,0,88
1,63,0,0
1,63,94,284
1,66,112,0
1,63,0,248
1,66,0,32
1,65,52,100
1,61,41,12
1,61,0,48
1,65,0,8
1,61,97,140
1,65,105,0
1,61,0,384
1,65,0,36
1,61,74,348
1,66,69,180
1,61,0,356
1,61,56,36
1,68,79,4
1,66,0,72
1,61,0,236
1,68,0,24
1,61,61,32
1,66,59,4
1,66,0,128
1,61,0,8
1,61,66,424
1,65,86,204
1,66,66,404
1,65,0,88
1,61,0,196
1,66,0,68
1,56,74,376
1,59,39,408
1,63,79,188
1,59,0,232
1,63,0,360
1,56,0,244
1,56,50,72
1,61,62,8
1,56,0,1912
1,61,0,8
1,66,30,3096
1,73,75,200
1,73,0,496
1,66,0,180
1,66,74,84
1,70,45,400
1,66,0,112
1,70,0,176
1,66,56,80
1,73,112,200
1,70,58,184
1,66,0,84
1,73,0,84
1,66,59,24
1,70,0,96
1,66,0,64
1,66,48,24
1,66,0,208
1,66,43,160
1,66,0,104
1,70,52,112
1,70,0,76
1,73,102,116
1,66,49,380
1,73,0,100
1,66,0,204
1,70,78,96
1,66,49,364
1,70,0,88
1,66,0,212
1,73,81,108
1,73,0,64
1,73,112,112
1,70,56,200
1,73,0,144
1,66,67,28
1,70,0,84
1,70,40,128
1,70,0,68
1,66,0,16
1,70,75,76
1,70,0,368
1,66,39,36
1,66,0,100
1,73,97,96
1,70,51,376
1,73,0,100
1,70,0,108
1,66,90,184
1,70,38,404
1,66,0,120
1,66,44,52
1,70,0,100
1,73,99,92
1,70,49,376
1,66,0,92
1,73,0,76
1,66,28,48
1,70,0,40
1,66,0,16
1,66,43,92
1,66,0,84
1,66,94,136
1,70,39,192
1,73,43,192
1,70,0,140
1,73,0,8
1,73,46,24
1,73,0,616
1,66,0,40
1,65,56,500
1,68,58,392
1,73,22,448
1,65,0,360
1,73,0,20
1,68,0,56
1,66,127,432
1,66,0,504
1,66,127,88
1,73,74,608
1,70,62,224
1,73,0,196
