track,note,velocity,time
0,37,75,0
0,37,67,0
0,37,63,5
0,37,63,18
0,37,0,96
0,57,106,57
0,57,0,153
0,38,58,15
0,62,68,0
0,57,48,0
0,66,60,0
0,38,84,0
0,66,120,0
0,50,106,0
0,57,71,107
0,66,0,109
0,69,103,83
0,62,78,0
0,66,0,15
0,38,0,2
0,62,0,6
0,57,0,8
0,69,0,124
0,66,51,37
0,62,72,0
0,57,57,0
0,38,84,0
0,62,108,0
0,66,91,0
0,62,0,565
0,59,23,11
0,59,0,47
0,66,120,49
0,64,45,31
0,61,68,0
0,57,49,0
0,38,53,0
0,38,84,0
0,64,123,0
0,50,100,0
0,66,0,83
0,57,0,6
0,62,0,14
0,57,73,89
0,64,0,155
0,69,96,37
0,61,73,0
0,57,0,23
0,64,0,4
0,61,0,0
0,38,0,20
0,69,0,138
0,61,66,7
0,64,58,0
0,57,59,0
0,38,84,0
0,61,123,0
0,64,72,0
0,62,34,480
0,62,0,57
0,64,0,42
0,61,0,10
0,55,49,79
0,60,50,0
0,64,44,0
0,64,113,0
0,38,0,15
0,64,0,40
0,61,0,4
0,50,0,4
0,57,0,4
0,64,0,8
0,66,108,21
0,38,0,5
0,60,66,33
0,66,57,0
0,57,58,0
0,38,84,0
0,67,123,0
0,50,78,0
0,38,64,47
0,66,108,0
0,57,56,0
0,57,32,27
0,64,98,0
0,60,58,0
0,60,55,15
0,57,65,0
0,66,62,0
0,38,84,0
0,62,123,0
0,67,73,0
0,64,106,19
0,33,84,51
0,62,117,0
0,64,0,9
0,67,0,22
0,57,0,2
0,60,0,2
0,50,0,20
0,33,0,96
0,38,0,28
0,55,64,13
0,62,67,0
0,59,71,0
0,38,84,0
0,64,0,0
0,60,0,0
0,55,0,0
0,55,41,0
0,59,59,0
0,62,54,0
0,50,62,0
0,59,56,192
0,62,80,192
0,59,49,17
0,59,0,61
0,62,61,35
0,59,67,0
0,55,60,0
0,38,84,0
0,62,127,0
0,67,59,0
0,62,0,137
0,71,120,15
0,69,120,3
0,59,62,0
0,59,48,0
0,59,0,75
0,69,0,74
0,26,84,3
0,67,126,0
0,62,82,0
0,70,127,1
0,38,59,5
0,62,66,0
0,55,60,0
0,58,61,0
0,26,84,0
0,62,0,0
0,59,0,0
0,55,0,0
0,55,46,0
0,58,40,0
0,62,49,0
0,50,71,0
0,51,79,0
0,67,76,47
0,58,55,0
0,64,86,47
0,62,83,0
0,62,85,3
0,67,60,0
0,58,76,31
0,58,42,17
0,57,99,47
0,62,99,15
0,50,73,13
0,66,77,0
0,57,89,0
0,62,83,0
0,38,84,0
0,51,60,0
0,64,107,0
0,62,107,95
0,64,0,25
0,64,107,167
0,62,0,9
0,66,100,4
0,66,80,3
0,62,75,0
0,69,72,0
0,45,84,0
0,57,93,0
0,66,0,26
0,66,0,75
0,62,0,10
0,57,0,2
0,50,0,10
0,69,0,10
0,64,70,59
0,57,71,0
0,61,73,0
0,50,82,0
0,38,84,0
0,51,55,0
0,45,0,1
0,51,0,40
0,38,0,724
0,45,84,3
0,57,0,182
0,69,93,10
0,76,97,192
0,38,84,0
0,57,91,0
0,45,0,3
0,57,0,173
0,62,86,16
0,61,0,1
0,57,0,2
0,64,0,4
0,50,0,4
0,51,45,53
0,38,0,31
0,51,0,2
0,69,0,28
0,76,0,4
0,62,0,53
0,73,100,10
0,64,91,0
0,69,100,0
0,35,84,0
0,51,58,0
0,64,96,0
0,51,0,35
0,64,0,338
0,62,72,11
0,62,0,180
0,64,103,12
0,64,0,383
0,66,111,1
0,35,0,357
0,42,84,27
0,64,0,101
0,69,0,6
0,73,0,10
0,66,0,31
0,81,83,44
0,62,89,0
0,66,91,0
0,71,78,0
0,47,84,0
0,51,49,0
0,66,78,0
0,42,0,23
0,51,0,10
0,64,100,63
0,66,0,15
0,62,83,81
0,64,0,6
0,81,0,355
0,71,0,20
0,71,68,3
0,74,69,0
0,78,73,0
0,60,89,0
0,60,0,33
0,60,103,31
0,60,0,29
0,60,96,35
0,60,0,43
0,64,106,1
0,47,0,17
0,69,96,3
0,66,111,0
0,60,120,0
0,64,0,13
0,60,0,36
0,35,84,143
0,64,86,0
0,53,47,0
0,66,0,11
0,53,0,22
0,53,59,31
0,53,0,35
0,53,61,29
0,74,0,7
0,64,0,26
0,62,0,5
0,35,0,1
0,71,0,2
0,53,0,0
0,78,0,10
0,69,0,6
0,66,0,4
0,66,73,3
0,71,69,0
0,74,73,0
0,42,84,0
0,66,93,0
0,62,106,0
0,51,78,0
0,53,82,0
0,64,126,0
0,53,0,31
0,51,0,2
0,42,0,98
0,41,84,61
0,57,103,0
0,66,79,0
0,62,0,11
0,64,0,1
0,62,0,37
0,66,0,6
0,66,0,2
0,71,0,8
0,74,0,36
0,57,0,22
0,41,0,8
0,66,0,52
0,71,68,1
0,64,71,0
0,62,78,0
0,67,72,0
0,40,84,0
0,70,89,0
0,36,93,0
0,67,117,0
0,55,63,22
0,59,61,0
0,64,60,0
0,70,59,0
0,66,68,0
0,70,0,41
0,67,0,12
0,70,92,43
0,70,0,35
0,66,0,19
0,70,73,42
0,37,87,0
0,64,100,0
0,70,0,41
0,40,0,14
0,37,0,0
0,55,0,40
0,64,106,1
0,64,0,9
0,64,0,5
0,59,0,9
0,74,89,73
0,40,84,0
0,59,80,0
0,64,64,0
0,55,71,0
0,70,75,0
0,36,80,0
0,62,96,0
0,55,0,39
0,70,0,2
0,64,0,2
0,36,0,2
0,59,0,4
0,62,0,14
0,40,0,92
0,47,84,37
0,70,66,0
0,36,85,0
0,70,0,45
0,36,0,10
0,64,44,137
0,55,55,0
0,59,56,0
0,70,75,0
0,70,0,43
0,64,0,54
0,55,0,16
0,64,0,6
0,59,0,2
0,47,0,38
0,74,0,28
0,69,73,5
0,40,84,0
0,59,60,0
0,64,44,0
0,55,59,0
0,70,78,0
0,37,70,0
0,64,93,0
0,64,108,0
0,70,0,41
0,37,0,12
0,64,0,4
0,55,0,70
0,64,0,22
0,59,0,6
0,64,61,37
0,59,85,0
0,55,82,0
0,70,78,0
0,64,98,0
0,66,104,0
0,64,0,15
0,55,0,16
0,59,0,4
0,64,0,4
0,70,0,4
0,67,0,20
0,64,0,2
0,62,0,2
0,64,0,8
0,71,0,14
0,40,0,28
0,66,0,3
0,69,0,21
0,62,83,51
0,67,89,0
0,71,78,0
0,38,84,0
0,70,82,0
0,36,86,0
0,67,120,0
0,70,0,43
0,36,0,12
0,55,69,137
0,62,73,0
0,59,67,0
0,70,65,0
0,66,79,0
0,70,0,41
0,67,0,2
0,70,83,53
0,70,0,31
0,66,0,35
0,70,62,30
0,37,82,0
0,64,100,0
0,38,0,37
0,70,0,10
0,37,0,8
0,59,0,30
0,62,0,2
0,55,0,0
0,64,0,42
0,38,84,63
0,62,71,0
0,59,73,0
0,55,54,0
0,70,73,0
0,36,80,0
0,62,113,0
0,64,103,0
0,55,0,21
0,62,0,20
0,70,0,2
0,59,0,2
0,36,0,6
0,62,0,12
0,38,0,112
0,47,84,17
0,70,79,0
0,36,82,0
0,70,0,47
0,36,0,6
0,62,0,136
0,62,65,3
0,62,57,0
0,59,56,0
0,55,59,0
0,70,78,0
0,70,0,43
0,55,0,26
0,59,0,30
0,62,0,8
0,47,0,72
0,67,0,10
0,67,96,3
0,38,84,0
0,62,51,0
0,55,53,0
0,59,62,0
0,70,75,0
0,37,87,0
0,64,100,0
0,37,0,43
0,70,0,6
0,64,0,4
0,55,0,62
0,59,0,16
0,62,0,12
0,69,91,49
0,62,86,0
0,59,86,0
0,55,73,0
0,70,65,0
0,64,103,0
0,66,79,0
0,55,0,31
0,64,0,0
0,70,0,2
0,59,0,6
0,62,0,6
0,64,0,42
0,67,0,28
0,62,0,4
0,69,0,4
0,71,0,22
0,38,0,0
0,66,0,27
0,64,83,20
0,67,85,0
0,60,73,0
0,36,84,0
0,70,89,0
0,36,93,0
0,67,91,0
0,70,0,39
0,36,0,16
0,60,63,137
0,64,67,0
0,55,67,0
0,70,59,0
0,66,96,0
0,70,0,41
0,67,0,2
0,70,92,53
0,70,0,35
0,66,0,50
0,70,73,11
0,37,87,0
0,64,106,0
0,70,0,41
0,37,0,14
0,36,0,14
0,55,0,40
0,64,0,10
0,60,0,10
0,64,0,59
0,36,84,4
0,60,78,0
0,55,70,0
0,64,57,0
0,70,75,0
0,36,80,0
0,62,96,0
0,62,89,0
0,64,0,31
0,55,0,10
0,70,0,0
0,36,0,4
0,60,0,8
0,62,0,10
0,36,0,10
0,36,84,119
0,70,66,0
0,36,85,0
0,70,0,45
0,36,0,10
0,64,67,137
0,55,68,0
0,60,63,0
0,70,75,0
0,64,123,0
0,62,0,24
0,70,0,19
0,60,0,100
0,69,89,49
0,60,60,0
0,70,78,0
0,37,70,0
0,64,93,0
0,70,0,41
0,37,0,12
0,64,0,4
0,55,0,56
0,64,0,10
0,60,0,10
0,36,0,22
0,64,0,34
0,64,75,3
0,43,84,0
0,60,87,0
0,64,67,0
0,55,73,0
0,70,78,0
0,64,98,0
0,69,0,9
0,70,0,34
0,55,0,2
0,64,0,6
0,60,0,2
0,64,0,12
0,67,0,46
0,64,0,2
0,60,0,2
0,43,0,10
0,64,0,13
0,59,78,54
0,62,75,0
0,69,70,0
0,67,83,0
0,33,84,0
0,55,49,0
0,59,49,0
0,62,50,0
0,70,82,0
0,36,86,0
0,61,92,0
0,59,89,41
0,57,120,47
0,70,65,0
0,57,85,0
0,59,120,35
0,70,83,0
0,61,127,47
0,59,85,0
0,70,62,0
0,37,82,0
0,64,111,9
0,33,84,39
0,69,126,0
0,70,73,0
0,36,80,0
0,62,113,0
0,69,88,33
0,71,113,3
0,67,0,3
0,69,0,8
0,59,0,0
0,62,0,4
0,61,75,21
0,69,71,0
0,64,73,0
0,45,84,0
0,62,0,0
0,59,0,0
0,55,0,0
0,57,49,0
0,61,62,0
0,64,46,0
0,69,127,0
0,70,79,0
0,36,82,0
0,70,78,47
0,33,84,78
0,70,75,0
0,37,87,0
0,64,100,0
0,57,99,0
0,70,65,17
0,64,103,0
0,62,99,0
0,50,73,13
0,66,77,0
0,57,89,0
0,62,83,0
0,38,84,0
0,64,0,0
0,61,0,0
0,57,0,0
0,50,90,0
0,54,40,0
0,57,27,0
0,62,39,0
0,70,89,0
0,36,93,0
0,64,107,0
0,62,58,95
0,66,72,0
0,57,66,0
0,70,59,0
0,70,92,55
0,70,0,35
0,70,73,47
0,37,87,0
0,62,107,0
0,64,0,25
0,70,0,16
0,38,0,4
0,38,84,47
0,66,72,0
0,57,60,0
0,62,67,0
0,70,75,0
0,36,80,0
0,62,96,0
0,64,107,0
0,62,0,9
0,62,0,24
0,57,0,2
0,66,0,4
0,70,0,2
0,36,0,4
0,62,0,18
0,38,0,66
0,38,84,63
0,57,85,0
0,70,66,0
0,36,85,0
0,70,0,45
0,36,0,10
0,64,0,49
0,66,71,4
0,57,63,0
0,62,59,0
0,70,75,0
0,66,100,0
0,62,75,83
0,70,78,0
0,37,70,0
0,64,93,0
0,70,0,41
0,37,0,12
0,64,0,4
0,66,80,3
0,62,75,0
0,69,72,0
0,33,84,0
0,66,72,0
0,62,82,0
0,57,65,0
0,70,78,0
0,64,98,0
0,57,93,0
0,66,0,26
0,70,0,17
0,57,0,6
0,66,0,4
0,62,0,6
0,64,0,6
0,62,0,30
0,66,0,6
0,54,0,2
0,57,0,2
0,62,0,6
0,57,0,2
0,50,0,10
0,69,0,10
0,33,0,42
0,64,70,17
0,57,71,0
0,61,73,0
0,50,82,0
0,38,84,0
0,54,41,0
0,57,39,0
0,61,48,0
0,64,79,0
0,70,82,0
0,36,86,0
0,62,0,1
0,70,0,42
0,36,0,12
0,57,63,137
0,61,63,0
0,66,72,0
0,70,65,0
0,70,0,41
0,70,83,55
0,70,0,31
0,70,62,65
0,37,82,0
0,38,84,89
0,57,62,0
0,61,64,0
0,66,69,0
0,70,73,0
0,36,80,0
0,62,113,0
0,70,0,43
0,66,0,2
0,61,0,0
0,57,0,0
0,38,84,43
0,69,85,0
0,70,79,0
0,36,82,0
0,70,0,47
0,36,0,6
0,69,93,10
0,66,72,0
0,61,65,0
0,57,66,0
0,70,78,0
0,70,0,43
0,57,0,82
0,66,0,0
0,61,0,2
0,76,97,65
0,61,59,0
0,66,46,0
0,57,60,0
0,70,75,0
0,37,87,0
0,64,100,0
0,57,91,0
0,37,0,43
0,33,84,16
0,57,70,0
0,61,83,0
0,66,72,0
0,70,65,0
0,64,103,0
0,62,86,0
0,61,0,1
0,57,0,2
0,64,0,4
0,50,0,4
0,70,0,22
0,57,0,16
0,61,0,2
0,66,0,2
0,57,0,16
0,64,0,18
0,54,0,2
0,57,0,14
0,61,0,8
0,69,0,14
0,76,0,4
0,33,0,16
0,62,0,37
0,73,100,10
0,64,91,0
0,69,100,0
0,35,84,0
0,69,0,0
0,52,47,0
0,57,45,0
0,61,49,0
0,64,70,0
0,70,89,0
0,36,93,0
0,64,96,0
0,66,72,137
0,57,64,0
0,64,70,0
0,61,71,0
0,70,59,0
0,70,0,41
0,70,92,55
0,70,73,11
0,37,87,0
0,62,72,0
0,70,0,41
0,61,0,14
0,57,0,0
0,37,0,0
0,64,0,4
0,35,0,8
0,66,0,6
0,62,0,107
0,35,84,12
0,66,67,0
0,61,66,0
0,64,68,0
0,57,51,0
0,70,75,0
0,36,80,0
0,62,96,0
0,64,103,0
0,35,84,61
0,70,66,0
0,36,85,0
0,70,0,45
0,36,0,10
0,66,66,1
0,66,77,0
0,61,68,0
0,57,70,0
0,70,75,0
0,66,111,0
0,70,0,43
0,66,0,149
0,70,78,0
0,37,70,0
0,64,93,0
0,42,84,7
0,66,63,0
0,57,62,0
0,61,63,0
0,66,72,0
0,70,78,0
0,64,98,0
0,70,0,43
0,61,0,4
0,57,0,2
0,64,0,16
0,66,0,31
0,66,0,0
0,81,83,33
0,62,89,0
0,66,91,0
0,71,78,0
0,47,84,0
0,45,84,0
0,64,0,0
0,52,0,0
0,57,0,0
0,61,0,0
0,54,46,0
0,59,47,0
0,62,52,0
0,66,82,0
0,70,82,0
0,36,86,0
0,66,78,0
0,45,0,29
0,70,0,14
0,36,0,12
0,64,100,41
0,66,0,15
0,66,73,81
0,62,58,0
0,59,59,0
0,70,65,0
0,62,83,0
0,64,0,6
0,70,0,35
0,70,83,55
0,70,0,31
0,66,0,65
0,70,62,0
0,37,82,0
0,59,0,41
0,62,0,6
0,70,0,0
0,37,0,8
0,47,0,54
0,81,0,60
0,71,0,20
0,71,68,3
0,74,69,0
0,78,73,0
0,47,84,0
0,62,62,0
0,66,71,0
0,59,58,0
0,70,73,0
0,36,80,0
0,62,113,0
0,59,0,33
0,62,0,4
0,70,0,6
0,36,0,8
0,62,0,12
0,66,0,33
0,47,0,37
0,47,84,59
0,70,79,0
0,36,82,0
0,70,0,47
0,36,0,6
0,47,0,126
0,50,84,13
0,66,73,0
0,62,62,0
0,57,54,0
0,59,56,0
0,70,78,0
0,70,0,43
0,74,0,92
0,62,0,31
0,71,0,3
0,78,0,10
0,66,0,10
0,50,0,2
0,66,73,1
0,71,69,0
0,74,73,0
0,47,84,0
0,66,0,0
0,70,75,0
0,37,87,0
0,64,100,0
0,64,126,0
0,37,0,43
0,70,0,6
0,59,0,2
0,64,0,2
0,57,0,6
0,62,0,2
0,47,0,98
0,42,84,33
0,66,75,0
0,62,62,0
0,59,62,0
0,57,58,0
0,70,65,0
0,64,103,0
0,66,79,0
0,64,0,12
0,70,0,21
0,57,0,2
0,59,0,4
0,62,0,0
0,62,0,10
0,66,0,8
0,71,0,8
0,64,0,22
0,66,0,9
0,74,0,5
0,42,0,52
0,66,0,30
0,71,68,1
0,64,71,0
0,62,78,0
0,67,72,0
0,40,84,0
0,70,89,0
0,36,93,0
0,67,117,0
0,52,87,0
0,55,63,0
0,59,61,0
0,64,60,0
0,70,59,0
0,66,68,0
0,70,0,41
0,67,0,12
0,70,92,43
0,70,0,35
