track,note,velocity,time
1,37,92,7256
1,44,67,66
1,44,85,72
1,49,77,2
1,44,67,310
1,44,83,56
1,37,95,186
1,44,72,254
1,44,86,74
1,49,85,186
1,44,67,270
1,44,86,58
1,37,85,8
1,44,59,208
1,44,89,68
1,49,74,186
1,44,64,260
1,44,86,60
1,37,72,2
1,44,58,284
1,44,86,68
1,49,81,30
1,45,81,284
1,44,83,38
1,37,102,24
1,44,56,1048
1,47,80,52
1,37,89,56
1,44,56,1094
1,47,80,52
1,37,89,56
1,44,47,326
1,37,52,80
1,44,52,280
1,37,56,66
1,44,51,232
1,37,58,78
1,44,50,278
1,39,60,48
1,44,55,280
1,39,62,82
1,44,55,288
1,39,65,86
1,42,69,92
1,37,85,120
1,42,52,132
1,37,85,80
1,49,64,86
1,37,69,72
1,44,43,314
1,49,65,32
1,44,60,382
1,39,55,66
1,44,62,58
1,44,69,90
1,39,62,96
1,44,43,356
1,49,65,32
1,42,75,94
1,42,75,162
1,37,64,82
1,49,75,288
1,37,62,70
1,49,75,284
1,44,62,120
1,39,59,278
1,44,52,46
1,44,59,286
1,39,57,62
1,44,62,368
1,37,67,88
1,42,58,340
1,44,59,46
1,47,78,8
1,49,75,106
1,47,71,98
1,44,72,96
1,45,86,44
1,44,66,62
1,37,84,136
1,44,52,142
1,44,62,50
1,49,90,4
1,44,57,370
1,44,91,50
1,49,77,186
1,44,81,72
1,51,55,134
1,51,72,50
1,44,57,14
1,51,55,306
1,51,69,50
1,44,60,8
1,42,75,44
1,49,55,144
1,49,77,50
1,42,72,12
1,51,72,352
1,51,81,50
1,44,54,18
1,51,55,312
1,51,69,50
1,44,81,52
1,37,74,48
1,44,46,124
1,44,77,50
1,49,74,186
1,37,84,74
1,44,52,142
1,44,62,50
1,49,90,4
1,44,57,370
1,44,91,50
1,49,77,186
1,44,81,72
1,51,55,134
1,51,72,50
1,44,57,14
1,51,55,306
1,51,69,50
1,44,60,8
1,42,75,44
1,49,55,144
1,49,77,50
1,42,72,12
1,51,72,352
1,51,81,50
1,44,54,18
1,51,55,312
1,51,69,50
1,44,81,52
1,37,74,48
1,44,46,124
1,44,77,50
1,49,74,186
1,37,77,74
1,44,72,102
1,49,77,102
1,44,74,272
1,49,74,48
1,44,74,94
1,39,72,96
1,44,57,76
1,39,83,272
1,44,75,36
1,42,83,70
1,42,75,128
1,44,77,88
1,44,90,300
1,39,83,32
1,44,86,36
1,44,77,86
1,39,86,58
1,37,56,82
1,44,81,128
1,49,85,22
1,37,84,102
1,44,52,142
1,44,62,50
1,49,90,4
1,44,57,370
1,44,91,50
1,49,77,186
1,44,81,72
1,51,55,134
1,51,72,50
1,44,57,14
1,51,55,306
1,51,69,50
1,44,60,8
1,42,75,44
1,49,55,144
1,49,77,50
1,42,72,12
1,51,72,352
1,51,81,50
1,44,54,18
1,51,55,312
1,51,69,50
1,44,81,52
1,37,74,48
1,49,81,36
1,44,77,110
1,40,85,120
1,37,81,36
1,44,56,1128
1,47,80,52
1,37,89,56
1,44,56,1094
1,47,80,52
1,37,89,56
1,44,47,326
1,37,52,80
1,44,52,280
1,37,56,66
1,44,51,232
1,37,58,78
1,44,50,278
1,39,60,48
1,44,55,280
1,39,62,82
1,44,55,288
1,39,65,86
1,42,69,92
1,37,85,120
1,42,52,132
1,37,85,80
1,49,64,86
1,37,69,72
1,44,43,314
1,49,65,32
1,44,60,382
1,39,55,66
1,44,62,58
1,44,69,90
1,39,62,96
1,44,43,356
1,49,65,32
1,42,75,94
1,42,75,162
1,37,64,82
1,49,75,288
1,37,62,70
1,49,75,284
1,44,62,120
1,39,59,278
1,44,52,46
1,44,59,286
1,39,57,62
1,44,62,368
1,37,67,88
1,42,58,340
1,44,59,46
1,47,78,8
1,49,75,106
1,47,71,98
1,44,72,96
1,45,86,44
1,44,66,62
1,37,84,136
1,44,52,142
1,44,62,50
1,49,90,4
1,44,57,370
1,44,91,50
1,49,77,186
1,44,81,72
1,51,55,134
1,51,72,50
1,44,57,14
1,51,55,306
1,51,69,50
1,44,60,8
1,42,75,44
1,49,55,144
1,49,77,50
1,42,72,12
1,51,72,352
1,51,81,50
1,44,54,18
1,51,55,312
1,51,69,50
1,44,81,52
1,37,74,48
1,44,46,124
1,44,77,50
1,49,74,186
1,37,84,74
1,44,52,142
1,44,62,50
1,49,90,4
1,44,57,370
1,44,91,50
1,49,77,186
1,44,81,72
1,51,55,134
1,51,72,50
1,44,57,14
1,51,55,306
1,51,69,50
1,44,60,8
1,42,75,44
1,49,55,144
1,49,77,50
1,42,72,12
1,51,72,352
1,51,81,50
1,44,54,18
1,51,55,312
1,51,69,50
1,44,81,52
1,37,84,48
1,44,83,204
1,49,89,56
1,44,74,3450
1,49,86,38
1,44,72,42
1,49,89,32
1,44,66,1572
1,44,66,16
1,44,77,12
1,44,80,20
1,44,77,12
1,44,100,14
1,43,58,54
1,42,44,0
1,41,32,0
1,37,95,0
1,49,67,34
1,42,81,144
1,42,65,154
1,39,74,74
1,51,56,92
1,44,74,126
1,51,69,194
1,51,64,0
1,44,77,90
1,37,94,102
1,49,66,86
1,42,72,104
1,42,64,170
1,39,74,140
1,51,65,104
1,44,81,166
1,51,64,18
1,44,43,96
1,51,81,46
1,44,64,190
1,37,95,102
1,49,67,34
1,42,81,144
1,42,65,154
1,39,74,74
1,51,56,92
1,44,74,126
1,51,69,194
1,51,64,0
1,44,77,90
1,37,94,102
1,49,66,86
1,42,72,104
1,42,64,170
1,39,74,140
1,51,65,104
1,44,81,166
1,51,64,18
1,44,43,96
1,51,81,46
1,44,64,190
1,37,95,102
1,49,67,34
1,42,81,144
1,42,65,154
1,39,74,74
1,51,56,92
1,44,74,126
1,51,69,194
1,51,64,0
1,44,77,90
1,37,94,102
1,49,66,86
1,42,72,104
1,42,64,170
1,39,74,140
1,51,65,104
1,44,81,166
1,51,64,18
1,44,43,96
1,51,81,46
1,44,64,190
1,37,95,102
1,49,67,34
1,42,81,144
1,42,65,154
1,39,74,74
1,51,56,92
1,44,74,126
1,51,69,194
1,51,64,0
1,44,77,90
1,37,94,102
1,49,66,86
1,42,72,104
1,42,64,170
1,39,74,140
1,51,65,104
1,44,86,460
1,44,80,16
1,44,80,144
1,49,77,294
1,49,97,56
1,47,91,84
1,47,89,126
1,46,89,120
1,46,86,106
1,39,105,764
1,39,116,108
1,44,100,138
1,44,94,136
1,38,106,90
1,49,77,258
1,49,97,56
1,47,91,84
1,47,89,126
1,46,89,120
1,46,86,106
1,39,105,764
1,39,116,108
1,44,100,138
1,44,94,136
1,38,106,90
1,49,77,258
1,49,97,56
1,47,91,84
1,47,89,126
1,46,89,120
1,46,86,106
1,39,105,764
1,39,116,108
1,44,100,138
1,44,94,136
1,38,106,90
1,49,77,258
1,49,97,56
1,47,91,84
1,47,89,126
1,46,89,120
1,46,86,106
1,39,105,764
1,39,116,108
1,44,100,138
1,44,94,136
1,38,106,90
1,49,77,258
1,49,97,56
1,47,91,84
1,47,89,126
1,46,89,120
1,46,86,106
1,39,105,764
1,39,116,108
1,44,100,138
1,44,94,136
1,38,106,90
1,49,77,258
1,49,97,56
1,47,91,84
1,47,89,126
1,46,89,120
1,46,86,106
1,39,105,764
1,39,116,108
1,44,89,134
1,45,91,72
1,46,91,18
1,47,91,112
1,48,94,104
1,37,95,98
1,49,67,34
1,42,81,144
1,42,65,154
1,39,74,74
1,51,56,92
1,44,74,126
1,51,69,2
1,44,64,40
1,51,64,0
1,44,77,90
1,37,94,102
1,49,66,86
1,42,72,104
1,42,64,170
1,39,74,140
1,51,65,104
1,44,81,166
1,51,64,18
1,44,43,96
1,51,81,46
1,44,64,190
1,37,95,102
1,49,67,34
1,42,81,144
1,42,65,154
1,39,74,74
1,51,56,92
1,44,74,126
1,51,69,2
1,44,64,40
1,51,64,0
1,44,77,90
1,37,94,102
1,49,66,86
1,42,72,104
1,42,64,170
1,39,74,140
1,51,65,104
1,44,81,166
1,51,64,18
1,44,43,96
1,51,81,46
1,44,64,190
1,37,95,102
1,49,67,34
1,42,81,144
1,42,65,154
1,39,74,74
1,51,56,92
1,44,74,126
1,51,69,194
1,51,64,0
1,44,77,90
1,37,94,102
1,49,66,86
1,42,72,104
1,42,64,170
1,39,74,140
1,51,65,104
1,44,81,166
1,51,64,18
1,44,43,96
1,51,81,46
1,44,64,190
1,37,95,102
1,49,67,34
1,42,81,144
1,42,65,154
1,39,74,74
1,51,56,92
1,44,74,126
1,51,69,194
1,51,64,0
1,44,77,90
1,37,94,102
1,49,66,86
1,42,72,104
1,42,64,170
1,39,74,140
1,51,65,104
1,44,81,166
1,51,64,18
1,44,43,96
1,51,81,46
1,44,64,190
1,37,84,102
1,44,52,142
1,44,62,50
1,49,90,4
1,44,57,370
1,44,91,50
1,49,77,186
1,44,81,72
1,51,55,134
1,51,72,50
1,44,57,14
1,51,55,306
1,51,69,50
1,44,60,8
1,42,75,44
1,49,55,144
1,49,77,50
1,42,72,12
1,51,72,352
1,51,81,50
1,44,54,18
1,51,55,312
1,51,69,50
1,44,81,52
1,37,74,48
1,45,72,96
1,46,72,0
1,47,72,96
1,48,72,96
1,49,74,96
1,44,52,142
1,44,62,50
1,49,90,4
1,44,57,370
1,44,91,50
1,49,77,186
1,44,81,72
1,51,55,134
1,51,72,50
1,44,57,14
1,51,55,306
1,51,69,50
1,44,60,8
1,42,75,44
1,49,55,144
1,49,77,50
1,42,72,12
1,51,72,352
1,51,81,50
1,44,54,18
1,51,55,312
1,51,69,50
1,44,81,52
1,32,90,144
1,37,94,118
1,39,91,110
1,40,91,44
1,37,105,104
1,35,85,28
1,34,89,26
1,33,89,10
1,32,90,28
1,32,105,44
1,37,116,98
2,56,94,6952
2,61,89,86
2,64,96,4
2,68,92,4
2,64,96,0
2,68,67,164
2,64,98,0
2,66,77,4
2,63,94,0
2,66,79,4
2,63,99,0
2,61,104,116
2,64,84,0
2,61,79,278
2,64,83,0
2,63,115,4
2,66,74,0
2,63,102,88
2,66,69,0
2,64,107,92
2,68,72,0
2,64,96,116
2,68,74,0
2,66,69,4
2,63,85,0
2,63,99,106
2,66,79,0
2,64,76,100
2,61,96,0
2,64,84,104
2,61,104,0
2,63,102,86
2,66,77,0
2,56,102,114
2,61,84,88
2,64,111,0
2,68,92,40
2,64,96,0
2,68,67,164
2,64,98,0
2,66,77,4
2,63,94,0
2,66,79,4
2,63,99,0
2,61,104,116
2,64,84,0
2,61,79,278
2,64,83,0
2,63,115,4
2,66,74,0
2,63,102,88
2,66,69,0
2,64,107,92
2,68,72,0
2,64,96,116
2,68,74,0
2,66,69,4
2,63,85,0
2,63,99,106
2,66,79,0
2,64,76,100
2,61,96,0
2,64,84,104
2,61,104,0
2,63,102,86
2,66,77,0
2,68,71,168
2,64,71,0
2,56,66,1136
2,59,90,52
2,61,99,56
2,56,66,1094
2,59,90,52
2,61,99,56
2,76,57,810
2,80,57,0
2,80,43,2
2,76,43,0
2,80,49,2
2,76,49,0
2,76,43,2
2,80,43,0
2,80,43,2
2,76,43,0
2,80,46,2
2,76,46,0
2,75,46,2
2,78,46,0
2,78,43,2
2,75,43,0
2,78,49,2
2,75,49,0
2,75,43,2
2,78,43,0
2,78,46,2
2,75,46,0
2,78,43,2
2,75,43,0
2,73,49,2
2,76,49,0
2,76,43,2
2,73,43,0
2,76,49,2
2,73,49,0
2,73,43,2
2,76,43,0
2,76,46,2
2,73,46,0
2,76,43,2
2,73,43,0
2,72,49,2
2,75,49,0
2,75,43,2
2,72,43,0
2,75,49,2
2,72,49,0
2,72,43,2
2,75,43,0
2,75,46,2
2,72,46,0
2,75,43,2
2,72,43,0
2,78,61,64
2,76,73,22
2,75,70,92
2,73,69,116
2,72,74,98
2,75,55,68
2,75,43,0
2,75,43,0
2,75,41,0
2,75,43,0
2,75,43,0
2,75,41,0
2,75,38,0
2,66,71,10396
2,68,92,40
2,71,121,22
2,73,87,96
2,71,104,84
2,68,107,118
2,69,107,0
2,68,106,54
2,61,52,132
2,64,64,102
2,56,63,116
2,59,59,30
2,61,59,110
2,64,51,84
2,56,66,374
2,60,59,116
2,63,61,102
2,56,63,202
2,60,43,76
2,63,57,56
2,54,56,372
2,57,65,94
2,61,57,76
2,54,55,98
2,57,55,38
2,56,59,122
2,63,59,88
2,56,63,354
2,60,57,116
2,63,56,106
2,56,53,106
2,63,52,48
2,61,52,80
2,64,64,106
2,56,45,396
2,61,56,114
2,64,68,102
2,56,67,116
2,59,63,30
2,61,63,110
2,64,55,84
2,56,70,374
2,60,63,116
2,63,65,102
2,56,67,202
2,60,47,76
2,63,61,56
2,54,60,372
2,57,69,94
2,61,61,76
2,54,59,98
2,57,59,38
2,56,63,122
2,63,63,88
2,56,67,354
2,60,61,116
2,63,60,106
2,56,57,106
2,63,56,48
2,61,56,80
2,64,68,106
2,56,49,396
2,61,54,6258
2,64,66,102
2,56,65,116
2,59,61,30
2,61,61,110
2,64,53,84
2,56,68,374
2,60,61,116
2,63,63,102
2,56,65,202
2,60,45,76
2,63,59,56
2,54,58,372
2,57,67,94
2,61,59,76
2,54,57,98
2,57,57,38
2,56,61,122
2,63,61,88
2,56,65,354
2,60,59,116
2,63,58,106
2,56,55,106
2,63,54,48
2,61,54,80
2,64,66,106
2,56,47,396
2,56,71,1166
2,59,95,52
2,61,104,56
2,56,66,1094
2,59,90,52
2,61,99,56
2,76,57,810
2,80,57,0
2,80,43,2
2,76,43,0
2,80,49,2
2,76,49,0
2,76,43,2
2,80,43,0
2,80,43,2
2,76,43,0
2,80,46,2
2,76,46,0
2,75,46,2
2,78,46,0
2,78,43,2
2,75,43,0
2,78,49,2
2,75,49,0
2,75,43,2
2,78,43,0
2,78,46,2
2,75,46,0
2,78,43,2
2,75,43,0
2,73,49,2
2,76,49,0
2,76,43,2
2,73,43,0
2,76,49,2
2,73,49,0
2,73,43,2
2,76,43,0
2,76,46,2
2,73,46,0
2,76,43,2
2,73,43,0
2,72,49,2
2,75,49,0
2,75,43,2
2,72,43,0
2,75,49,2
2,72,49,0
2,72,43,2
2,75,43,0
2,75,46,2
2,72,46,0
2,75,43,2
2,72,43,0
2,78,61,64
2,76,73,22
2,75,70,92
2,73,69,116
2,72,74,98
2,75,55,68
2,75,43,0
2,75,43,0
2,75,41,0
2,75,43,0
2,75,43,0
2,75,41,0
2,75,38,0
2,61,52,11648
2,64,64,102
2,56,63,116
2,59,59,30
2,61,59,110
2,64,51,84
2,56,66,374
2,60,59,116
2,63,61,102
2,56,63,202
2,60,43,76
2,63,57,56
2,54,56,372
2,57,65,94
2,61,57,76
2,54,55,98
2,57,55,38
2,56,59,122
2,63,59,88
2,56,63,354
2,60,57,116
2,63,56,106
2,56,53,106
2,63,52,48
2,61,52,80
2,64,64,106
2,56,45,396
2,61,56,114
2,64,68,102
2,56,67,116
2,59,63,30
2,61,63,110
2,64,55,84
2,56,70,374
2,60,63,116
2,63,65,102
2,56,67,202
2,60,47,76
2,63,61,56
2,54,60,372
2,57,69,94
2,61,61,76
2,54,59,98
2,57,59,38
2,56,63,122
2,63,63,88
2,56,67,354
2,60,61,116
2,63,60,106
2,56,57,106
2,63,56,48
2,61,56,80
2,56,65,294
2,61,77,24
2,61,52,73798
2,64,64,102
2,56,63,116
2,59,59,30
2,61,59,110
2,64,51,84
2,56,66,374
2,60,59,116
2,63,61,102
2,56,63,202
2,60,43,76
2,63,57,56
2,54,56,372
2,57,65,94
2,61,57,76
2,54,55,98
2,57,55,38
2,56,59,122
2,63,59,88
2,56,63,354
2,60,57,116
2,63,56,106
2,56,53,106
2,63,52,48
2,61,52,80
2,64,64,106
2,56,45,396
2,61,56,114
2,64,68,102
2,56,67,116
2,59,63,30
2,61,63,110
2,64,55,84
2,56,70,374
2,60,63,116
2,63,65,102
2,56,67,202
2,60,47,76
2,63,61,56
2,54,60,372
2,57,69,94
2,61,61,76
2,54,59,98
2,57,59,38
2,56,63,122
2,63,63,88
2,56,67,354
2,60,61,116
