track,note,velocity,time
1,42,91,13792
1,37,64,168
1,30,82,204
1,39,73,36
1,40,82,132
1,40,82,0
1,42,91,56
1,35,91,84
1,35,91,144
1,37,73,80
1,37,82,136
1,39,91,100
1,35,91,124
1,37,82,48
1,37,64,188
1,44,65,56
1,46,65,40
1,37,91,56
1,44,91,20
1,37,100,24
1,37,64,80
1,42,64,52
1,42,82,100
1,39,91,36
1,42,91,20
1,44,91,36
1,40,82,136
1,42,91,60
1,35,100,12
1,42,73,32
1,35,91,20
1,37,73,104
1,42,91,20
1,37,91,20
1,39,82,80
1,44,82,28
1,37,82,120
1,44,91,0
1,37,91,44
1,30,91,0
1,30,91,64
1,30,91,64
1,37,91,36
1,37,82,84
1,37,73,56
1,35,82,52
1,34,82,48
1,32,82,36
1,30,91,28
1,27,91,68
1,28,91,68
1,30,91,124
1,32,82,16
1,32,91,52
1,35,91,64
1,37,91,44
1,37,91,0
1,37,91,152
1,37,82,52
1,32,91,44
1,34,82,100
1,37,64,44
1,37,82,52
1,37,73,52
1,37,82,12
1,37,82,148
1,37,91,52
1,32,91,20
1,34,82,8
1,37,64,52
1,37,73,48
1,37,64,48
1,37,82,16
1,37,82,140
1,37,73,52
1,32,82,40
1,34,73,100
1,37,91,48
1,37,82,56
1,37,91,48
1,32,82,56
1,30,100,56
1,34,82,68
1,35,91,88
1,35,82,104
1,35,91,76
1,37,100,152
1,34,100,20
1,30,91,72
1,39,100,68
1,37,100,72
1,32,100,140
1,37,100,80
1,30,91,92
1,30,91,80
1,37,64,60
1,47,64,160
1,46,73,12
1,44,91,44
1,42,73,72
1,41,91,40
1,42,82,44
1,42,91,88
1,39,100,24
1,40,91,104
1,44,91,64
1,42,91,80
1,37,73,28
1,35,91,72
1,35,55,32
1,35,64,28
1,35,82,44
1,30,91,128
1,35,91,28
1,30,82,12
1,35,91,24
1,30,82,16
1,37,64,32
1,37,73,36
1,37,82,36
1,37,82,44
1,30,91,124
1,37,100,40
1,37,91,84
1,38,82,16
1,39,100,24
1,34,82,92
1,32,91,48
1,32,64,56
1,32,82,48
1,32,91,48
1,39,100,28
1,37,82,84
1,32,91,76
1,31,82,48
1,30,100,32
1,30,91,96
1,42,91,28
1,30,100,16
1,34,100,104
1,35,91,32
1,35,55,36
1,35,64,28
1,35,82,40
1,30,91,132
1,35,91,28
1,30,82,12
1,35,91,24
1,30,82,20
1,37,64,32
1,37,73,40
1,37,82,40
1,37,82,40
1,30,91,132
1,37,100,32
1,37,91,80
1,38,82,20
1,39,91,28
1,34,91,64
1,33,82,88
1,32,91,44
1,32,91,84
1,32,64,44
1,32,82,56
1,39,91,28
1,38,82,68
1,37,82,36
1,32,91,80
1,31,82,56
1,30,100,32
1,30,91,92
1,42,91,24
1,30,100,12
1,34,100,100
1,35,91,28
1,35,55,36
1,35,64,32
1,35,82,48
1,30,91,128
1,35,91,32
1,30,82,8
1,35,91,24
1,30,82,16
1,37,64,32
1,37,73,36
1,37,82,36
1,37,82,48
1,30,91,128
1,37,100,36
1,37,91,80
1,38,82,12
1,39,91,24
1,34,91,64
1,33,82,88
1,32,91,44
1,32,91,76
1,32,64,40
1,32,82,56
1,39,91,32
1,38,82,76
1,37,82,36
1,32,91,76
1,31,82,52
1,30,100,32
1,30,91,92
1,42,91,28
1,30,100,12
1,34,100,104
1,35,91,32
1,35,55,36
1,35,64,28
1,35,82,44
1,30,91,136
1,35,91,28
1,30,82,8
1,35,91,20
1,30,82,20
1,37,64,28
1,37,73,44
1,37,82,36
1,37,82,44
1,30,91,128
1,37,100,36
1,37,91,84
1,38,82,12
1,39,91,28
1,34,91,64
1,33,82,92
1,32,91,44
1,32,91,80
1,32,64,40
1,32,82,52
1,39,91,32
1,38,82,72
1,37,82,44
1,32,91,76
1,31,82,52
1,30,100,28
1,30,91,96
1,42,91,28
1,30,100,12
1,34,100,104
1,35,91,32
1,35,55,36
1,35,64,32
1,35,82,48
1,30,91,136
1,35,91,32
1,30,82,12
1,35,91,24
1,30,82,16
1,37,64,36
1,37,73,40
1,37,82,36
1,37,82,48
1,30,91,132
1,37,100,36
1,37,91,88
1,38,82,16
1,39,91,28
1,34,91,68
1,33,82,88
1,32,91,44
1,32,91,76
1,32,64,40
1,32,82,52
1,39,91,32
1,38,82,72
1,37,82,44
1,32,91,80
1,31,82,56
1,30,100,28
1,30,91,92
1,42,91,28
1,30,100,12
1,34,100,104
1,35,91,36
1,35,55,36
1,35,64,28
1,35,82,44
1,30,91,136
1,35,91,28
1,30,82,12
1,35,91,24
1,30,82,16
1,37,64,32
1,37,73,36
1,37,82,32
1,37,82,44
1,30,91,128
1,37,100,36
1,37,91,80
1,38,82,16
1,39,91,20
1,34,91,68
1,33,82,92
1,32,91,44
1,32,91,84
1,32,64,44
1,32,82,56
1,39,91,32
1,38,82,76
1,37,82,36
1,32,91,76
1,31,82,52
1,30,100,28
1,30,91,92
1,42,91,24
1,37,100,12
1,30,100,108
2,83,56,7648
2,82,44,192
2,80,56,32
2,78,64,32
2,80,52,0
2,82,73,96
2,78,82,20
2,75,60,4
2,73,64,188
2,70,56,20
2,68,60,0
2,68,64,804
2,70,64,576
2,71,52,40
2,73,73,572
2,73,64,84
2,73,64,76
2,71,60,80
2,76,64,0
2,71,56,28
2,76,64,4
2,70,60,132
2,78,64,0
2,75,36,48
2,78,40,0
2,82,48,0
2,73,48,80
2,78,52,0
2,82,48,0
2,71,52,88
2,75,64,0
2,78,64,0
2,71,56,148
2,75,73,4
2,68,52,308
2,73,64,0
2,78,60,0
2,68,73,80
2,73,82,0
2,77,82,0
2,80,48,804
2,70,48,64
2,82,48,4
2,71,60,144
2,78,73,0
2,68,60,136
2,77,64,0
2,66,73,68
2,73,100,0
2,75,91,12
2,77,91,4
2,78,100,24
2,87,100,120
2,85,100,16
2,83,91,72
2,82,100,12
2,85,73,80
2,82,73,380
2,78,73,384
2,75,82,68
2,85,82,52
2,82,73,380
2,78,73,388
2,73,91,80
2,73,64,92
2,85,73,0
2,72,73,64
2,84,64,0
2,73,73,196
2,85,64,0
2,73,82,20
2,78,44,168
2,90,40,0
2,85,82,100
2,97,91,0
2,70,73,116
2,82,82,0
2,73,91,72
2,85,91,4
2,78,91,96
2,90,82,0
2,80,82,76
2,92,91,0
2,82,82,76
2,84,16,0
2,94,91,0
2,83,64,84
2,95,73,0
2,85,91,96
2,97,82,0
2,83,82,48
2,95,82,0
2,82,82,100
2,94,91,0
2,83,82,72
2,95,91,0
2,68,56,14308
2,80,56,0
2,68,64,64
2,80,73,0
2,70,73,64
2,82,73,0
2,71,60,140
2,78,73,4
2,68,60,140
2,77,64,0
2,66,73,64
2,73,100,0
2,75,91,12
2,77,91,8
2,78,100,20
2,87,100,112
2,85,100,20
2,83,91,72
2,82,100,8
2,85,73,76
2,82,73,380
2,78,73,384
2,75,82,68
2,85,82,48
2,82,73,384
2,78,73,384
2,73,91,84
2,85,73,92
2,82,73,384
2,78,73,388
2,75,82,68
2,68,91,52
2,71,91,0
2,76,91,68
2,68,91,8
2,71,91,0
2,80,82,0
2,70,100,128
2,73,100,0
2,78,100,0
2,85,73,48
2,82,73,384
2,78,73,384
2,75,82,68
2,85,82,44
2,82,73,388
2,78,73,384
2,73,91,80
2,85,73,96
2,82,73,380
2,78,73,384
2,75,82,72
2,68,91,44
2,71,91,0
2,68,91,76
2,71,91,0
2,76,91,0
2,80,82,0
2,70,100,124
2,73,100,0
2,78,100,0
2,85,73,44
2,82,73,384
2,78,73,384
2,75,82,68
2,85,82,44
2,82,73,384
2,78,73,384
2,73,91,84
2,85,73,96
2,82,73,384
2,78,73,380
2,75,82,72
2,68,91,44
2,71,91,0
2,68,91,76
2,71,91,0
2,76,91,0
2,80,82,0
2,70,100,128
2,73,100,0
2,78,100,0
2,85,73,48
2,82,73,388
2,78,73,380
2,75,82,72
2,85,82,48
2,82,73,388
2,78,73,380
2,73,91,76
2,85,73,92
2,82,73,384
2,78,73,380
2,75,82,72
2,68,91,52
2,71,91,0
2,76,91,72
2,68,91,8
2,71,91,0
2,80,82,0
2,70,100,128
2,73,100,0
2,78,100,0
2,85,73,48
2,82,73,380
2,78,73,388
2,75,82,72
2,85,82,48
2,82,73,380
2,78,73,384
2,73,91,76
2,85,73,96
2,82,73,384
2,78,73,380
2,75,82,72
2,68,91,52
2,71,91,0
2,76,91,72
2,68,91,4
2,71,91,0
2,80,82,0
2,70,100,124
2,73,100,0
2,78,100,0
2,85,73,52
2,82,73,384
2,78,73,384
2,75,82,72
2,85,82,48
2,82,73,384
2,78,73,380
2,73,91,76
2,85,73,92
2,82,73,388
2,78,73,384
2,75,82,72
2,68,91,44
2,71,91,0
2,76,91,72
2,68,91,8
2,71,91,0
2,80,82,0
2,73,100,128
2,78,100,0
2,82,100,280
2,87,100,0
2,90,100,0
3,66,82,24544
3,70,91,0
3,68,52,60
3,71,73,0
3,66,73,56
3,70,73,0
3,65,91,60
3,68,91,0
3,63,64,148
3,66,82,0
3,61,91,56
3,65,100,0
4,85,99,47100
4,97,90,0
4,87,99,44
4,99,90,4
4,73,81,952
4,85,81,0
4,75,81,56
4,87,81,0
4,80,90,64
4,92,90,0
4,82,90,48
4,94,90,0
4,85,99,1144
4,97,90,0
4,87,99,52
4,99,90,0
4,73,38,84
4,76,46,0
4,85,54,0
4,75,54,80
4,78,72,0
4,87,54,0
4,76,63,144
4,88,72,0
4,78,72,60
4,90,90,0
4,80,90,88
4,92,90,0
4,82,72,56
4,94,81,0
4,83,72,60
4,95,81,0
4,85,72,64
4,97,90,0
4,87,74,68
4,97,5,0
4,99,74,0
4,82,65,112
4,92,56,0
4,94,56,0
4,85,65,132
4,97,56,0
4,75,54,1228
4,87,63,0
4,77,50,44
4,89,50,0
4,78,50,32
4,90,63,0
4,68,81,13876
4,80,81,0
4,70,72,40
4,82,72,0
4,71,50,52
4,83,81,0
4,75,81,76
4,85,63,0
4,87,81,0
4,73,72,40
4,85,81,0
4,71,72,52
4,83,81,0
4,78,99,92
4,90,90,0
4,68,81,4708
4,80,81,0
4,70,72,36
4,82,72,0
4,71,50,56
4,83,81,0
4,75,81,72
4,85,63,0
4,87,81,0
4,73,72,44
4,85,81,0
4,71,72,56
4,83,81,0
4,78,99,88
4,90,90,0
4,68,81,4708
4,80,81,0
4,70,72,40
4,82,72,0
4,71,50,52
4,83,81,0
4,75,81,68
4,85,63,0
4,87,81,0
4,73,72,44
4,85,81,0
4,71,72,56
4,83,81,0
4,78,99,92
4,90,90,0
4,85,90,200
4,97,90,0
4,82,90,140
4,94,99,0
4,75,90,124
4,87,90,0
4,78,72,60
4,90,90,0
4,85,99,136
4,97,99,4
4,82,90,164
4,94,90,0
4,75,90,160
4,87,90,0
4,78,81,64
4,90,99,0
4,78,81,76
4,90,99,0
4,80,81,52
4,92,81,0
4,82,81,60
4,94,81,0
4,82,72,48
4,94,81,0
4,82,72,40
4,94,81,0
4,94,81,48
4,82,81,4
4,80,90,60
4,92,90,0
4,78,99,56
4,90,99,4
4,80,81,52
4,92,81,0
4,82,90,56
4,84,6,0
4,94,81,0
4,80,90,48
4,92,99,4
4,80,90,52
4,92,81,0
4,82,81,56
4,94,99,0
4,83,81,56
4,95,90,4
4,85,90,112
4,97,90,0
4,82,99,112
4,92,99,0
4,94,90,0
4,80,90,2
4,92,90,0
4,78,90,40
4,88,38,0
4,90,99,0
4,85,90,104
4,97,90,0
4,82,90,140
4,94,99,0
4,75,90,120
4,87,90,0
4,78,72,64
4,90,90,0
4,85,99,140
4,97,99,0
4,82,90,164
4,94,90,0
4,75,90,160
4,87,90,4
4,78,81,60
4,90,99,0
4,78,81,80
4,90,99,0
4,80,81,48
4,92,81,4
4,82,81,60
4,94,81,0
4,82,72,44
4,94,81,0
4,82,72,40
4,94,81,0
4,82,81,52
4,94,81,0
4,80,90,60
4,92,90,0
4,78,99,56
4,90,99,0
4,80,81,52
4,92,81,0
4,82,90,56
4,84,6,0
4,94,81,0
4,80,90,48
4,92,99,4
4,80,90,52
4,92,81,0
4,82,81,60
4,94,99,0
4,83,81,60
4,95,90,0
4,85,90,112
4,97,90,0
4,82,99,112
4,92,99,0
4,94,90,0
4,80,90,52
4,92,90,0
4,78,90,40
4,88,38,0
4,90,99,0
4,85,90,104
4,97,90,0
4,82,90,140
4,94,99,0
4,75,90,124
4,87,90,0
4,78,72,56
4,90,90,0
4,85,99,136
4,97,99,4
4,82,90,164
4,94,90,0
4,75,90,160
4,87,90,0
4,78,81,60
4,90,99,0
4,78,81,76
4,90,99,0
4,80,81,48
4,92,81,0
4,82,81,52
4,94,81,0
4,82,72,44
4,94,81,0
4,82,72,44
4,94,81,0
4,94,81,48
4,82,81,4
4,80,90,60
4,92,90,0
4,78,99,60
4,90,99,0
4,80,81,48
4,92,81,0
4,82,90,56
4,84,6,0
4,94,81,0
4,80,90,56
4,92,99,0
4,80,90,56
4,92,81,0
4,82,81,60
4,94,99,0
4,83,81,56
4,95,90,0
4,85,90,104
4,97,90,0
4,82,99,112
4,92,99,0
4,94,90,0
4,94,117,132
4,102,117,0
4,78,98,20
4,82,117,0
5,73,64,6688
5,71,56,20
5,70,44,188
5,68,56,24
5,66,64,24
5,68,52,0
5,70,73,96
5,66,82,20
5,73,31,0
5,71,48,36
5,70,40,28
5,66,60,0
5,63,60,4
5,61,64,188
5,66,56,936
5,58,56,16
5,56,60,0
5,63,21,0
5,68,25,0
5,49,60,84
5,65,28,0
5,68,25,0
5,56,48,12460
5,58,56,0
5,61,56,0
5,54,48,1700
5,58,52,0
5,61,60,0
5,63,56,384
5,65,64,28
5,66,64,44
5,56,52,176
5,59,56,0
5,64,52,0
5,58,64,160
5,61,56,0
5,66,64,0
5,59,48,92
5,63,64,0
5,66,60,0
5,58,52,272
5,61,60,0
5,66,56,0
5,56,44,88
5,61,60,0
5,63,48,0
5,60,60,108
5,56,48,4
5,63,48,0
5,59,52,248
5,63,56,0
5,66,56,0
5,56,56,28
5,59,30,0
5,56,64,112
5,61,73,0
5,65,64,0
5,59,44,176
5,63,64,0
5,66,56,0
5,61,73,184
5,65,73,0
5,68,64,0
5,56,52,204
5,58,60,0
5,61,64,0
5,58,64,36
5,61,64,0
5,66,73,0
5,56,60,244
5,61,64,0
5,66,64,0
5,56,64,76
5,61,82,0
5,65,82,0
5,54,73,112
5,58,82,0
5,61,82,0
5,58,73,64
5,61,82,0
5,66,73,0
5,56,82,228
5,59,91,0
5,64,82,0
5,59,82,88
5,64,73,0
5,68,82,0
5,59,91,72
5,64,82,0
5,68,82,0
5,49,82,92
5,61,82,0
5,66,82,0
5,73,73,0
5,49,56,48
5,54,82,0
5,61,56,0
5,66,73,0
5,70,60,0
5,73,32,0
5,49,82,20
5,61,91,0
5,66,100,0
5,73,82,0
5,49,64,220
5,54,60,0
5,61,56,0
5,66,82,0
5,54,64,72
5,61,60,0
5,73,73,0
5,78,73,0
5,63,60,3172
5,75,64,0
5,61,56,168
5,66,64,0
5,73,60,0
5,61,52,204
5,65,60,0
5,73,48,0
5,56,48,208
5,58,56,0
5,61,56,0
5,54,48,1700
5,58,52,0
5,61,60,0
5,63,56,388
5,65,64,32
5,66,64,44
5,56,52,172
5,59,56,0
5,64,52,0
5,58,64,160
5,61,56,0
5,66,64,0
5,59,48,92
5,63,64,0
5,66,60,0
5,58,52,268
5,61,60,0
5,66,56,0
5,61,91,96
5,66,91,0
5,70,82,0
5,76,91,144
5,68,91,8
5,71,91,0
5,76,91,64
5,68,91,8
5,71,91,0
5,80,82,0
5,70,100,124
5,73,100,0
5,78,100,0
5,59,48,48
5,63,64,0
5,66,60,0
5,58,52,268
5,61,60,0
5,66,56,0
5,61,91,100
5,66,91,0
5,70,82,0
5,76,91,144
5,68,91,4
5,71,91,0
5,68,91,68
5,71,91,0
5,76,91,0
5,80,82,0
5,70,100,124
5,73,100,0
5,78,100,0
5,59,48,44
5,63,64,0
5,66,60,0
5,58,52,272
5,61,60,0
