track,note,velocity,time
0,46,98,35
0,63,99,0
0,69,114,0
0,69,0,24
0,63,0,0
0,46,0,0
0,42,108,24
0,69,99,0
0,42,0,16
0,69,0,8
0,42,99,24
0,42,0,24
0,69,114,24
0,69,0,24
0,46,99,24
0,63,83,0
0,69,114,0
0,69,0,24
0,63,0,0
0,46,0,0
0,42,99,24
0,69,99,0
0,69,0,24
0,42,0,0
0,42,99,24
0,63,83,0
0,63,0,24
0,42,0,0
0,42,99,24
0,69,114,0
0,69,0,24
0,42,0,0
0,46,99,24
0,62,91,0
0,69,114,0
0,69,0,24
0,62,0,0
0,46,0,0
0,42,99,24
0,69,99,0
0,69,0,24
0,42,0,0
0,42,99,24
0,42,0,24
0,42,99,24
0,63,83,0
0,69,114,0
0,69,0,24
0,63,0,0
0,42,0,0
0,46,99,24
0,63,91,0
0,69,114,0
0,69,0,24
0,63,0,0
0,46,0,0
0,42,99,24
0,62,91,0
0,69,99,0
0,69,0,24
0,62,0,0
0,42,0,0
0,42,99,24
0,42,0,24
0,42,99,24
0,62,91,0
0,69,114,0
0,69,0,24
0,62,0,0
0,42,0,0
0,46,99,24
0,63,99,0
0,69,113,0
0,69,0,24
0,63,0,0
0,46,0,0
0,42,99,24
0,69,99,0
0,69,0,24
0,42,0,0
0,42,99,24
0,42,0,24
0,69,114,24
0,69,0,24
0,46,99,24
0,63,83,0
0,69,114,0
0,69,0,24
0,63,0,0
0,46,0,0
0,42,99,24
0,69,99,0
0,69,0,24
0,42,0,0
0,42,99,24
0,63,83,0
0,63,0,24
0,42,0,0
0,42,99,24
0,69,114,0
0,69,0,24
0,42,0,0
0,46,99,24
0,62,91,0
0,69,114,0
0,69,0,24
0,62,0,0
0,46,0,0
0,42,99,24
0,69,99,0
0,69,0,24
0,42,0,0
0,42,99,24
0,42,0,24
0,42,99,24
0,63,83,0
0,69,114,0
0,87,123,0
0,87,0,16
0,69,0,8
0,63,0,0
0,42,0,0
0,46,99,24
0,63,91,0
0,69,114,0
0,69,0,24
0,63,0,0
0,46,0,0
0,42,99,24
0,62,91,0
0,69,99,0
0,69,0,24
0,62,0,0
0,42,0,0
0,42,99,24
0,42,0,24
0,42,99,24
0,62,91,0
0,69,114,0
0,69,0,24
0,62,0,0
0,42,0,0
0,46,99,24
0,63,99,0
0,69,114,0
0,60,121,0
0,60,0,16
0,69,0,8
0,63,0,0
0,46,0,0
0,42,99,24
0,69,99,0
0,69,0,24
0,42,0,0
0,42,99,24
0,42,0,24
0,69,114,24
0,60,123,0
0,60,0,16
0,69,0,8
0,46,99,24
0,63,83,0
0,69,114,0
0,69,0,24
0,63,0,0
0,46,0,0
0,42,99,24
0,69,99,0
0,69,0,24
0,42,0,0
0,42,99,24
0,63,83,0
0,63,0,24
0,42,0,0
0,42,99,24
0,69,114,0
0,56,123,0
0,56,0,16
0,69,0,8
0,42,0,0
0,46,99,24
0,62,91,0
0,69,114,0
0,69,0,24
0,62,0,0
0,46,0,0
0,42,99,24
0,69,99,0
0,69,0,24
0,42,0,0
0,42,99,24
0,56,123,0
0,56,0,16
0,42,0,8
0,42,99,24
0,63,83,0
0,69,114,0
0,87,123,0
0,87,0,16
0,69,0,8
0,63,0,0
0,42,0,0
0,46,99,24
0,63,91,0
0,69,114,0
0,69,0,24
0,63,0,0
0,46,0,0
0,42,99,24
0,62,91,0
0,69,99,0
0,69,0,24
0,62,0,0
0,42,0,0
0,42,99,24
0,42,0,24
0,42,99,24
0,62,91,0
0,69,114,0
0,69,0,24
0,62,0,0
0,42,0,0
0,46,99,24
0,63,99,0
0,69,114,0
0,60,123,0
0,60,0,16
0,69,0,8
0,63,0,0
0,46,0,0
0,42,99,24
0,69,99,0
0,69,0,24
0,42,0,0
0,42,99,24
0,42,0,24
0,69,114,24
0,60,121,0
0,60,0,16
0,69,0,8
0,46,99,24
0,63,83,0
0,69,114,0
0,69,0,24
0,63,0,0
0,46,0,0
0,42,99,24
0,69,99,0
0,69,0,24
0,42,0,0
0,42,99,24
0,63,83,0
0,63,0,24
0,42,0,0
0,42,99,24
0,69,114,0
0,56,123,0
0,56,0,16
0,69,0,8
0,42,0,0
0,46,99,24
0,62,91,0
0,69,114,0
0,69,0,24
0,62,0,0
0,46,0,0
0,42,99,24
0,69,99,0
0,69,0,24
0,42,0,0
0,42,99,24
0,56,123,0
0,56,0,16
0,42,0,8
0,42,99,24
0,63,83,0
0,69,114,0
0,87,123,0
0,87,0,16
0,69,0,8
0,63,0,0
0,42,0,0
0,46,99,24
0,63,91,0
0,69,114,0
0,69,0,24
0,63,0,0
0,46,0,0
0,42,99,24
0,62,91,0
0,69,99,0
0,69,0,24
0,62,0,0
0,42,0,0
0,42,99,24
0,42,0,24
0,42,99,24
0,62,91,0
0,69,114,0
0,69,0,24
0,62,0,0
0,42,0,0
0,70,126,0
0,55,90,0
0,62,83,0
0,67,83,0
0,70,83,0
0,46,99,0
0,63,99,0
0,69,114,0
0,48,93,0
0,60,123,0
0,60,0,16
0,48,0,0
0,69,0,8
0,63,0,0
0,46,0,0
0,70,0,23
0,42,99,1
0,69,99,0
0,69,0,24
0,42,0,0
0,42,99,24
0,42,0,24
0,70,126,0
0,62,83,0
0,69,114,0
0,60,123,0
0,60,0,16
0,69,0,8
0,62,0,0
0,46,99,24
0,63,83,0
0,69,114,0
0,69,0,24
0,63,0,0
0,46,0,0
0,42,99,24
0,69,99,0
0,69,0,24
0,42,0,0
0,70,0,23
0,42,99,1
0,63,83,0
0,63,0,24
0,42,0,0
0,42,99,24
0,69,114,0
0,56,123,0
0,56,0,16
0,69,0,8
0,42,0,0
0,46,99,24
0,62,91,0
0,69,114,0
0,69,0,24
0,62,0,0
0,46,0,0
0,42,99,24
0,69,99,0
0,69,0,24
0,42,0,0
0,42,99,24
0,56,123,0
0,56,0,16
0,42,0,8
0,42,99,24
0,63,83,0
0,69,114,0
0,69,0,24
0,63,0,0
0,42,0,0
0,46,99,24
0,63,91,0
0,69,114,0
0,69,0,24
0,63,0,0
0,46,0,0
0,42,99,24
0,62,91,0
0,69,99,0
0,69,0,24
0,62,0,0
0,42,0,0
0,42,99,24
0,42,0,24
0,42,99,24
0,62,91,0
0,69,114,0
0,69,0,24
0,62,0,0
0,42,0,0
0,46,99,24
0,63,99,0
0,69,114,0
0,60,123,0
0,60,0,16
0,69,0,8
0,63,0,0
0,46,0,0
0,42,99,24
0,69,99,0
0,69,0,24
0,42,0,0
0,62,126,0
0,42,99,0
0,42,0,24
0,62,0,23
0,62,83,1
0,69,114,0
0,60,121,0
0,60,0,16
0,69,0,8
0,62,0,0
0,62,126,0
0,46,99,0
0,63,83,0
0,69,114,0
0,69,0,24
0,63,0,0
0,46,0,0
0,42,99,24
0,69,99,0
0,69,0,24
0,42,0,0
0,62,0,7
0,62,126,0
0,42,99,0
0,63,83,0
0,63,0,24
0,42,0,0
0,62,0,23
0,42,99,1
0,69,114,0
0,56,123,0
0,56,0,16
0,69,0,8
0,42,0,0
0,65,126,0
0,46,99,0
0,62,91,0
0,69,114,0
0,69,0,24
0,62,0,0
0,46,0,0
0,42,99,24
0,69,99,0
0,69,0,24
0,42,0,0
0,42,99,24
0,56,123,0
0,56,0,16
0,42,0,8
0,65,0,23
0,42,99,1
0,63,83,0
0,69,114,0
0,69,0,24
0,63,0,0
0,42,0,0
0,67,126,0
0,46,99,0
0,63,91,0
0,69,114,0
0,69,0,24
0,63,0,0
0,46,0,0
0,42,99,24
0,62,91,0
0,69,99,0
0,69,0,24
0,62,0,0
0,42,0,0
0,67,0,17
0,42,99,7
0,42,0,24
0,42,99,24
0,62,91,0
0,69,114,0
0,69,0,24
0,62,0,0
0,42,0,0
0,70,0,23
0,67,0,0
0,62,0,0
0,67,126,0
0,62,103,0
0,67,93,0
0,70,92,0
0,46,99,0
0,63,99,0
0,69,114,0
0,60,123,0
0,60,0,16
0,69,0,8
0,63,0,0
0,46,0,0
0,42,99,24
0,69,99,0
0,69,0,24
0,42,0,0
0,42,99,24
0,42,0,24
0,67,0,23
0,62,83,1
0,69,114,0
0,60,123,0
0,60,0,16
0,69,0,8
0,62,0,0
0,46,99,24
0,63,83,0
0,69,114,0
0,69,0,24
0,63,0,0
0,46,0,0
0,42,99,7
0,69,99,0
0,69,0,24
0,42,0,0
0,42,99,24
0,63,83,0
0,63,0,24
0,42,0,0
0,42,99,24
0,69,114,0
0,56,123,0
0,56,0,16
0,69,0,8
0,42,0,0
0,46,99,24
0,62,91,0
0,69,114,0
0,69,0,24
0,62,0,0
0,46,0,0
0,42,99,24
0,69,99,0
0,69,0,24
0,42,0,0
0,42,99,24
0,56,123,0
0,56,0,16
0,42,0,8
0,42,99,24
0,63,83,0
0,69,114,0
0,46,99,24
0,63,91,0
0,69,114,0
0,69,0,24
0,63,0,0
0,46,0,0
0,42,99,24
0,62,91,0
0,69,99,0
0,69,0,24
0,62,0,0
0,42,0,0
0,42,99,24
0,42,0,24
0,42,99,14
0,62,91,0
0,69,114,0
0,69,0,24
0,62,0,0
0,42,0,0
0,46,99,24
0,63,99,0
0,69,114,0
0,60,123,0
0,60,0,16
0,69,0,8
0,63,0,0
0,46,0,0
0,42,99,24
0,69,99,0
0,69,0,24
0,42,0,0
0,42,99,24
0,62,83,24
0,69,114,0
0,60,123,0
0,60,0,16
0,69,0,8
0,62,0,0
0,46,99,24
0,63,83,0
0,69,114,0
0,69,0,24
0,63,0,0
0,46,0,0
0,42,99,24
0,69,99,0
0,69,0,24
0,42,0,0
0,42,99,24
0,63,83,0
0,63,0,24
0,42,0,0
0,42,99,24
0,69,114,0
0,56,123,0
0,56,0,16
0,69,0,8
0,42,0,0
0,46,99,24
0,62,91,0
0,69,114,0
0,69,0,24
0,62,0,0
0,46,0,0
0,42,99,24
0,69,99,0
0,69,0,24
0,42,0,0
0,62,126,0
0,42,99,0
0,56,123,0
0,56,0,16
0,42,0,8
0,62,0,23
0,42,99,1
0,63,83,0
0,69,114,0
0,69,0,24
0,63,0,0
0,42,0,0
0,62,126,0
0,46,99,0
0,63,91,0
0,69,114,0
0,69,0,24
0,63,0,0
0,46,0,0
0,42,99,24
0,62,91,0
0,69,99,0
0,62,0,7
0,69,0,17
0,62,0,0
0,42,0,0
0,65,126,0
0,42,99,0
0,42,0,24
0,42,99,24
0,62,91,0
0,69,114,0
0,65,0,13
0,69,0,11
0,62,0,0
0,42,0,0
0,70,0,23
0,55,0,0
0,62,0,0
0,67,0,0
0,69,126,0
0,53,123,0
0,60,123,0
0,65,123,0
0,69,123,0
0,46,99,0
0,63,99,0
0,69,114,0
0,60,121,0
0,60,0,16
0,69,0,8
0,63,0,0
0,46,0,0
0,42,99,24
0,69,99,0
0,69,0,24
0,42,0,0
0,42,99,24
0,42,0,24
0,69,0,23
0,62,83,1
0,69,114,0
0,60,123,0
0,60,0,16
0,69,0,8
0,62,0,0
0,70,121,0
0,46,99,0
0,63,83,0
0,69,114,0
0,69,0,24
0,63,0,0
0,46,0,0
0,42,99,24
0,69,99,0
0,70,0,8
0,69,0,16
0,42,0,0
0,69,126,0
0,42,99,0
0,63,83,0
0,63,0,24
0,42,0,0
0,42,99,24
0,69,114,0
0,56,123,0
0,56,0,16
0,69,0,8
0,42,0,0
0,46,99,24
0,62,91,0
0,69,114,0
0,69,0,24
0,62,0,0
0,46,0,0
0,69,0,23
0,42,99,1
0,69,99,0
0,69,0,24
0,42,0,0
0,42,99,24
0,56,123,0
0,56,0,16
0,42,0,8
0,42,99,24
0,63,83,0
0,69,114,0
0,69,0,24
0,63,0,0
0,42,0,0
0,65,126,0
0,46,99,0
0,63,91,0
0,69,114,0
0,69,0,24
0,63,0,0
0,46,0,0
0,42,99,24
0,62,91,0
0,69,99,0
0,69,0,24
0,62,0,0
0,42,0,0
0,42,99,24
0,42,0,24
0,65,0,4
0,42,99,20
0,62,91,0
0,69,114,0
0,69,0,24
0,62,0,0
0,42,0,0
0,69,0,23
0,53,0,0
0,60,0,0
0,65,0,0
0,63,106,0
0,51,123,0
0,58,123,0
0,63,123,0
0,67,123,0
0,46,99,0
0,63,99,0
0,69,114,0
0,60,123,0
0,60,0,16
0,69,0,8
0,63,0,0
0,46,0,0
0,42,99,24
0,69,99,0
0,69,0,24
0,42,0,0
0,70,126,0
0,42,99,0
0,63,0,13
0,42,0,11
0,70,0,23
0,62,83,1
0,69,114,0
0,60,123,0
0,60,0,16
0,69,0,8
0,62,0,0
0,70,126,0
0,46,99,0
0,63,83,0
0,69,114,0
0,69,0,24
0,63,0,0
0,46,0,0
0,42,99,24
0,69,99,0
0,69,0,24
0,42,0,0
0,70,0,3
0,72,126,0
0,42,99,0
0,63,83,0
0,63,0,24
0,42,0,0
0,42,99,24
0,69,114,0
0,56,121,0
0,56,0,16
0,72,0,1
0,69,0,7
0,42,0,0
0,70,126,0
0,46,99,0
0,62,91,0
0,69,114,0
0,69,0,24
0,62,0,0
0,46,0,0
0,42,99,24
0,69,99,0
0,69,0,24
0,42,0,0
0,42,99,24
0,56,123,0
0,56,0,16
0,42,0,8
0,70,0,23
0,42,99,1
0,63,83,0
0,69,114,0
0,69,0,24
0,63,0,0
0,42,0,0
0,67,126,0
0,46,99,0
0,63,91,0
0,69,114,0
0,69,0,24
0,63,0,0
0,46,0,0
0,42,99,24
0,62,91,0
0,69,99,0
0,69,0,24
0,62,0,0
0,42,0,0
0,67,0,23
0,42,99,1
0,42,0,24
0,42,99,24
0,62,91,0
0,69,114,0
0,67,126,0
0,43,125,0
0,43,96,0
0,43,123,0
0,62,123,0
0,67,123,0
0,70,123,0
0,36,107,0
0,46,99,0
0,63,99,0
0,69,114,0
0,69,0,24
0,36,0,0
0,46,0,0
0,63,0,0
0,42,99,24
0,69,99,0
0,69,0,24
0,42,0,0
0,43,0,22
0,55,88,2
0,58,90,0
0,62,91,0
0,42,99,0
0,43,0,8
0,42,0,16
0,58,0,12
0,62,0,4
0,67,0,7
0,43,125,1
0,43,88,0
0,58,86,0
0,62,88,0
0,40,114,0
0,62,83,0
0,69,114,0
0,69,0,24
0,62,0,0
0,40,0,0
0,58,0,4
0,43,0,5
0,43,0,13
0,38,125,2
0,38,91,0
0,36,107,0
0,46,99,0
0,63,83,0
0,69,114,0
0,55,0,8
0,62,0,1
0,69,0,15
0,36,0,0
0,46,0,0
0,63,0,0
0,55,89,24
0,58,91,0
0,62,91,0
0,42,99,0
0,69,99,0
0,38,0,9
0,69,0,15
0,42,0,0
0,41,125,1
0,55,0,0
0,38,87,0
0,42,99,0
0,63,83,0
0,62,0,6
0,63,0,18
0,42,0,0
0,55,88,24
0,58,91,0
0,62,91,0
0,36,99,0
0,42,99,0
0,69,114,0
0,38,0,6
0,69,0,18
0,42,0,0
0,36,0,0
0,41,0,4
0,58,0,7
0,55,0,7
0,43,125,3
0,43,94,0
0,36,107,0
0,46,99,0
0,62,91,0
0,69,114,0
0,62,0,1
0,69,0,23
0,36,0,0
0,46,0,0
0,62,0,0
0,55,88,24
0,58,92,0
0,62,92,0
0,42,99,0
0,69,99,0
0,69,0,24
0,42,0,0
0,58,0,2
0,43,0,4
0,55,0,1
0,62,0,1
0,55,84,16
0,58,87,0
0,62,88,0
0,42,99,0
0,43,0,8
0,42,0,16
0,55,0,12
0,58,0,4
0,62,0,6
0,43,125,2
0,43,92,0
0,36,99,0
0,42,99,0
0,63,83,0
0,69,114,0
0,69,0,24
0,36,0,0
0,42,0,0
0,63,0,0
0,43,0,6
0,43,0,11
0,38,125,7
0,38,91,0
0,55,88,0
0,58,94,0
0,62,93,0
0,36,107,0
0,46,99,0
0,63,91,0
0,69,114,0
0,40,122,0
0,40,0,16
0,69,0,8
0,36,0,0
0,46,0,0
0,63,0,0
0,55,0,12
0,38,0,6
0,58,0,1
0,42,99,5
0,62,91,0
0,69,99,0
0,62,0,1
0,69,0,23
0,62,0,0
0,42,0,0
0,38,0,23
0,41,125,1
0,38,88,0
0,55,89,0
