track,note,velocity,time
1,73,90,1
1,81,100,0
1,76,90,0
1,76,0,480
1,81,0,0
1,73,0,0
1,71,90,0
1,80,100,0
1,76,90,0
1,76,0,360
1,80,0,0
1,71,0,0
1,69,81,0
1,75,81,0
1,78,90,0
1,78,0,120
1,75,0,0
1,69,0,0
1,76,94,0
1,73,84,0
1,68,84,0
1,68,0,460
1,73,0,0
1,76,0,0
1,69,79,20
1,73,79,0
1,78,88,0
1,78,0,460
1,73,0,0
1,69,0,0
1,75,89,20
1,66,80,0
1,71,80,0
1,71,0,460
1,66,0,0
1,75,0,0
1,68,81,20
1,71,81,0
1,76,91,0
1,76,0,360
1,71,0,0
1,68,0,0
1,74,91,120
1,71,81,0
1,66,91,0
1,66,0,120
1,64,91,120
1,64,0,120
1,71,0,120
1,74,0,0
1,64,82,0
1,73,92,0
1,69,82,0
1,69,0,360
1,73,0,0
1,64,0,0
1,62,78,0
1,68,78,0
1,71,87,0
1,71,0,120
1,68,0,0
1,62,0,0
1,69,87,0
1,66,78,0
1,61,78,0
1,61,0,460
1,66,0,0
1,69,0,0
1,62,81,20
1,66,81,0
1,71,90,0
1,71,0,460
1,66,0,0
1,62,0,0
1,68,87,20
1,59,78,0
1,64,78,0
1,64,0,460
1,59,0,0
1,68,0,0
1,61,78,20
1,64,78,0
1,69,87,0
1,69,0,360
1,64,0,0
1,61,0,0
1,64,76,120
1,61,76,0
1,69,85,0
1,69,0,480
1,61,0,0
1,64,0,0
1,59,76,0
1,64,85,0
1,68,85,0
1,68,0,360
1,64,0,0
1,59,0,0
1,63,76,0
1,57,68,0
1,66,76,0
1,66,0,120
1,57,0,0
1,63,0,0
1,56,71,0
1,64,79,0
1,61,71,0
1,61,0,460
1,64,0,0
1,56,0,0
1,61,66,20
1,57,66,0
1,66,74,0
1,66,0,460
1,57,0,0
1,61,0,0
1,54,67,20
1,63,75,0
1,59,67,0
1,59,0,460
1,63,0,0
1,54,0,0
1,56,69,20
1,59,69,0
1,64,77,0
1,64,0,360
1,59,0,0
1,56,0,0
1,62,74,120
1,59,66,0
1,54,74,0
1,54,0,120
1,52,74,120
1,52,0,120
1,59,0,120
1,62,0,0
1,52,68,0
1,57,76,0
1,61,76,0
1,61,0,360
1,57,0,0
1,52,0,0
1,56,60,0
1,50,60,0
1,59,67,0
1,59,0,120
1,50,0,0
1,56,0,0
1,49,60,0
1,57,67,0
1,54,60,0
1,54,0,460
1,57,0,0
1,49,0,0
1,54,63,20
1,50,63,0
1,59,71,0
1,59,0,460
1,50,0,0
1,54,0,0
1,47,60,20
1,56,67,0
1,52,60,0
1,52,0,460
1,56,0,0
1,47,0,0
1,49,56,20
1,52,56,0
1,57,63,0
1,57,0,360
1,52,0,0
1,49,0,0
1,57,66,120
1,61,66,0
1,64,66,0
1,69,74,0
1,69,0,480
1,57,0,0
1,61,0,0
1,64,0,0
1,57,72,0
1,62,72,0
1,66,72,0
1,69,80,0
1,69,0,960
1,57,0,0
1,62,0,0
1,66,0,0
1,57,64,0
1,62,64,0
1,66,64,0
1,69,72,0
1,69,0,480
1,57,0,0
1,62,0,0
1,66,0,0
1,71,79,0
1,62,71,0
1,64,71,0
1,67,71,0
1,67,0,960
1,71,0,0
1,62,0,0
1,64,0,0
1,62,64,0
1,64,64,0
1,67,64,0
1,71,72,0
1,71,0,480
1,62,0,0
1,64,0,0
1,67,0,0
1,55,55,0
1,57,55,0
1,61,55,0
1,64,62,0
1,64,0,240
1,55,0,0
1,57,0,0
1,61,0,0
1,55,55,240
1,57,55,0
1,61,55,0
1,64,62,0
1,64,0,240
1,55,0,0
1,57,0,0
1,61,0,0
1,55,55,240
1,57,55,0
1,61,55,0
1,64,62,0
1,64,0,240
1,55,0,0
1,57,0,0
1,61,0,0
1,60,64,240
1,62,64,0
1,69,72,0
1,69,0,1440
1,62,0,0
1,60,0,0
1,55,53,0
1,60,53,0
1,62,59,0
1,62,0,240
1,60,0,0
1,55,0,0
1,55,55,240
1,60,55,0
1,62,62,0
1,62,0,240
1,60,0,0
1,55,0,0
1,55,58,240
1,60,58,0
1,62,65,0
1,62,0,240
1,60,0,0
1,55,0,0
1,55,63,240
1,59,63,0
1,62,71,0
1,62,0,480
1,59,0,0
1,55,0,0
1,55,72,0
1,62,72,0
1,67,80,0
1,67,0,240
1,62,0,0
1,55,0,0
1,57,66,240
1,62,66,0
1,66,74,0
1,66,0,240
1,62,0,0
1,57,0,0
1,59,65,240
1,62,65,0
1,64,73,0
1,64,0,240
1,62,0,0
1,59,0,0
1,59,68,120
1,62,68,0
1,66,76,0
1,66,0,120
1,62,0,0
1,59,0,0
1,59,80,0
1,62,80,0
1,67,89,0
1,67,0,240
1,62,0,0
1,59,0,0
1,55,61,240
1,57,61,0
1,61,61,0
1,64,68,0
1,64,0,480
1,55,0,0
1,57,0,0
1,61,0,0
1,54,70,0
1,57,70,0
1,62,78,0
1,62,0,480
1,57,0,0
1,54,0,0
1,57,66,480
1,61,66,0
1,64,66,0
1,69,74,0
1,69,0,480
1,57,0,0
1,61,0,0
1,64,0,0
1,57,72,0
1,62,72,0
1,66,72,0
1,69,80,0
1,69,0,960
1,57,0,0
1,62,0,0
1,66,0,0
1,57,64,0
1,62,64,0
1,66,64,0
1,69,72,0
1,69,0,480
1,57,0,0
1,62,0,0
1,66,0,0
1,71,79,0
1,62,71,0
1,64,71,0
1,67,71,0
1,67,0,960
1,71,0,0
1,62,0,0
1,64,0,0
1,62,64,0
1,64,64,0
1,67,64,0
1,71,72,0
1,71,0,480
1,62,0,0
1,64,0,0
1,67,0,0
1,55,54,0
1,57,54,0
1,61,54,0
1,64,61,0
1,64,0,240
1,55,0,0
1,57,0,0
1,61,0,0
1,55,54,240
1,57,54,0
1,61,54,0
1,64,61,0
1,64,0,240
1,55,0,0
1,57,0,0
1,61,0,0
1,55,54,240
1,57,54,0
1,61,54,0
1,64,61,0
1,64,0,240
1,55,0,0
1,57,0,0
1,61,0,0
1,60,64,240
1,62,64,0
1,69,72,0
1,69,0,1440
1,62,0,0
1,60,0,0
1,55,53,0
1,60,53,0
1,62,59,0
1,62,0,240
1,60,0,0
1,55,0,0
1,55,55,240
1,60,55,0
1,62,62,0
1,62,0,240
1,60,0,0
1,55,0,0
1,55,58,240
1,60,58,0
1,62,65,0
1,62,0,240
1,60,0,0
1,55,0,0
1,55,63,240
1,59,63,0
1,62,71,0
1,62,0,480
1,59,0,0
1,55,0,0
1,55,72,0
1,62,72,0
1,67,80,0
1,67,0,240
1,62,0,0
1,55,0,0
1,57,66,240
1,62,66,0
1,66,74,0
1,66,0,240
1,62,0,0
1,57,0,0
1,59,65,240
1,62,65,0
1,64,73,0
1,64,0,240
1,62,0,0
1,59,0,0
1,59,68,120
1,62,68,0
1,66,76,0
1,66,0,120
1,62,0,0
1,59,0,0
1,59,80,0
1,62,80,0
1,67,89,0
1,67,0,240
1,62,0,0
1,59,0,0
1,55,61,240
1,57,61,0
1,61,61,0
1,64,68,0
1,64,0,480
1,55,0,0
1,57,0,0
1,61,0,0
1,54,70,0
1,57,70,0
1,62,78,0
1,62,0,480
1,57,0,0
1,54,0,0
1,81,90,480
1,73,81,0
1,76,81,0
1,76,0,480
1,73,0,0
1,81,0,0
1,71,81,0
1,76,81,0
1,80,90,0
1,80,0,360
1,76,0,0
1,71,0,0
1,69,72,0
1,75,72,0
1,78,81,0
1,78,0,120
1,75,0,0
1,69,0,0
1,68,75,0
1,73,75,0
1,76,84,0
1,76,0,460
1,73,0,0
1,68,0,0
1,69,71,20
1,73,71,0
1,78,79,0
1,78,0,460
1,73,0,0
1,69,0,0
1,66,72,20
1,71,72,0
1,75,80,0
1,75,0,460
1,71,0,0
1,66,0,0
1,68,72,20
1,71,72,0
1,76,81,0
1,76,0,360
1,71,0,0
1,68,0,0
1,66,81,120
1,71,72,0
1,74,81,0
1,66,0,120
1,64,81,120
1,64,0,120
1,74,0,120
1,71,0,0
1,64,73,0
1,69,73,0
1,73,82,0
1,73,0,360
1,69,0,0
1,64,0,0
1,62,70,0
1,68,70,0
1,71,78,0
1,71,0,120
1,68,0,0
1,62,0,0
1,61,70,0
1,66,70,0
1,69,78,0
1,69,0,460
1,66,0,0
1,61,0,0
1,62,72,20
1,66,72,0
1,71,81,0
1,71,0,460
1,66,0,0
1,62,0,0
1,59,70,20
1,64,70,0
1,68,78,0
1,68,0,460
1,64,0,0
1,59,0,0
1,61,70,20
1,64,70,0
1,69,78,0
1,69,0,360
1,64,0,0
1,61,0,0
1,69,76,120
1,61,68,0
1,64,68,0
1,64,0,480
1,61,0,0
1,69,0,0
1,59,68,0
1,64,68,0
1,68,76,0
1,68,0,360
1,64,0,0
1,59,0,0
1,57,61,0
1,63,61,0
1,66,68,0
1,66,0,120
1,63,0,0
1,57,0,0
1,56,63,0
1,61,63,0
1,64,71,0
1,64,0,460
1,61,0,0
1,56,0,0
1,57,59,20
1,61,59,0
1,66,66,0
1,66,0,460
1,61,0,0
1,57,0,0
1,54,60,20
1,59,60,0
1,63,67,0
1,63,0,460
1,59,0,0
1,54,0,0
1,56,62,20
1,59,62,0
1,64,69,0
1,64,0,360
1,59,0,0
1,56,0,0
1,54,59,120
1,59,53,0
1,62,59,0
1,54,0,120
1,52,59,120
1,52,0,120
1,62,0,120
1,59,0,0
1,52,54,0
1,57,54,0
1,61,61,0
1,61,0,360
1,57,0,0
1,52,0,0
1,50,45,0
1,56,45,0
1,59,50,0
1,59,0,120
1,56,0,0
1,50,0,0
1,49,48,0
1,54,48,0
1,57,54,0
1,57,0,460
1,54,0,0
1,49,0,0
1,50,49,20
1,54,49,0
1,59,55,0
1,59,0,460
1,54,0,0
1,50,0,0
1,47,42,20
1,52,42,0
1,56,47,0
1,56,0,460
1,52,0,0
1,47,0,0
1,49,38,20
1,52,38,0
1,57,43,0
1,57,0,480
1,52,0,0
1,49,0,0
2,57,77,1
2,45,69,0
2,45,0,113
2,57,0,0
2,61,77,120
2,49,69,0
2,49,0,120
2,61,0,0
2,64,81,120
2,52,72,0
2,52,0,280
2,64,0,0
2,60,68,0
2,48,61,0
2,48,0,114
2,60,0,0
2,49,65,0
2,61,73,0
2,61,0,311
2,49,0,0
2,45,63,20
2,57,71,0
2,57,0,397
2,45,0,0
2,59,70,0
2,47,63,0
2,47,0,368
2,59,0,0
2,52,68,20
2,40,61,0
2,40,0,35
2,52,0,0
2,54,69,120
2,42,62,0
2,42,0,64
2,54,0,0
2,56,69,120
2,44,62,0
2,44,0,120
2,56,0,0
2,57,73,120
2,45,65,0
2,45,0,257
2,57,0,0
2,53,65,0
2,41,58,0
2,41,0,109
2,53,0,0
2,42,58,0
2,54,65,0
2,54,0,311
2,42,0,0
2,38,61,20
2,50,68,0
2,50,0,340
2,38,0,0
2,52,64,0
2,40,57,0
2,40,0,347
2,52,0,0
2,45,64,20
2,33,57,0
2,33,0,99
2,45,0,0
2,45,65,120
2,33,58,0
2,33,0,64
2,45,0,0
2,37,58,120
2,49,65,0
2,49,0,120
2,37,0,0
2,40,61,0
2,52,68,0
2,52,0,286
2,40,0,0
2,36,51,0
2,48,57,0
2,48,0,116
2,36,0,0
2,37,55,0
2,49,62,0
2,49,0,363
2,37,0,0
2,33,54,20
2,45,60,0
2,45,0,300
2,33,0,0
2,35,53,0
2,47,59,0
2,47,0,396
2,35,0,0
2,28,51,20
2,40,57,0
2,40,0,49
2,28,0,0
2,42,54,120
2,30,48,0
2,30,0,99
2,42,0,0
2,32,48,120
2,44,54,0
2,44,0,120
2,32,0,0
2,33,57,0
2,45,57,0
2,45,0,257
2,33,0,0
2,29,43,0
2,41,48,0
2,41,0,115
2,29,0,0
2,30,43,0
2,42,48,0
2,42,0,231
2,30,0,0
2,26,44,20
2,38,49,0
2,38,0,271
2,26,0,0
2,28,41,0
2,40,46,0
2,40,0,312
2,28,0,0
2,33,36,20
2,40,41,0
2,40,0,56
2,33,0,0
2,33,67,120
2,45,75,0
2,45,0,120
2,33,0,0
2,49,75,92
2,49,0,120
2,38,81,71
2,50,91,0
2,50,0,120
2,38,0,0
2,33,72,120
2,45,81,0
2,45,0,120
2,33,0,0
2,31,72,120
2,43,81,0
2,43,0,120
2,31,0,0
2,30,72,120
2,42,81,0
2,42,0,120
2,30,0,0
2,30,78,120
2,42,87,0
2,42,0,429
2,30,0,0
2,38,81,0
2,50,90,0
2,50,0,120
2,38,0,0
2,35,70,120
2,47,78,0
2,47,0,120
2,35,0,0
2,33,69,120
2,45,77,0
2,45,0,120
2,33,0,0
2,31,69,120
2,43,77,0
2,43,0,120
2,31,0,0
2,31,77,120
2,43,86,0
2,43,0,423
2,31,0,0
2,33,78,0
2,45,87,0
2,45,0,120
2,33,0,0
2,28,69,120
2,40,77,0
2,40,0,120
2,28,0,0
2,26,69,120
2,38,77,0
2,38,0,120
2,26,0,0
2,25,69,120
2,37,77,0
2,37,0,120
2,25,0,0
2,25,75,120
2,37,84,0
2,37,0,422
2,25,0,0
2,38,81,0
2,50,90,0
2,50,0,120
2,38,0,0
2,33,71,120
2,45,79,0
2,45,0,120
2,33,0,0
2,31,71,120
2,43,79,0
2,43,0,120
2,31,0,0
2,30,71,120
2,42,79,0
2,42,0,120
2,30,0,0
2,30,76,120
2,42,85,0
2,42,0,423
2,30,0,0
2,31,64,0
2,43,72,0
2,43,0,120
2,31,0,0
2,33,66,120
2,45,74,0
2,45,0,120
2,33,0,0
2,35,69,120
2,47,77,0
2,47,0,120
2,35,0,0
2,36,71,120
2,48,79,0
2,48,0,120
2,36,0,0
2,38,72,120
2,50,81,0
2,50,0,120
2,38,0,0
2,40,74,120
2,52,83,0
2,52,0,120
2,40,0,0
2,38,77,120
2,50,86,0
2,50,0,480
2,38,0,0
2,35,74,0
2,47,83,0
2,47,0,240
2,35,0,0
2,33,65,240
2,45,73,0
2,45,0,240
2,33,0,0
2,31,66,240
2,43,74,0
2,43,0,219
2,31,0,0
2,30,68,42
2,42,76,0
2,42,0,120
2,30,0,0
2,28,79,0
2,40,88,0
2,40,0,184
2,28,0,0
2,33,63,226
2,45,70,0
2,45,0,424
2,33,0,0
2,38,70,0
2,50,78,0
2,50,0,353
2,38,0,0
2,33,67,473
2,45,75,0
2,45,0,92
2,33,0,0
2,49,75,120
2,49,0,120
2,38,81,0
2,50,91,0
2,50,0,120
2,38,0,0
2,33,72,120
2,45,81,0
2,45,0,120
2,33,0,0
2,31,72,120
2,43,81,0
2,43,0,120
2,31,0,0
2,30,72,120
2,42,81,0
2,42,0,120
2,30,0,0
2,30,78,120
2,42,87,0
2,42,0,440
2,30,0,0
2,38,81,0
2,50,90,0
2,50,0,120
2,38,0,0
2,35,70,120
2,47,78,0
2,47,0,120
2,35,0,0
2,33,69,120
2,45,77,0
2,45,0,120
2,33,0,0
2,31,69,120
2,43,77,0
2,43,0,120
2,31,0,0
2,31,77,120
2,43,86,0
2,43,0,429
2,31,0,0
2,33,78,0
2,45,87,0
2,45,0,120
2,33,0,0
2,28,69,120
2,40,77,0
2,40,0,120
2,28,0,0
2,26,69,120
2,38,77,0
2,38,0,120
2,26,0,0
2,25,69,120
2,37,77,0
2,37,0,120
2,25,0,0
2,25,75,120
2,37,84,0
2,37,0,428
2,25,0,0
2,38,81,0
2,50,90,0
2,50,0,120
2,38,0,0
2,33,71,120
2,45,79,0
2,45,0,120
2,33,0,0
2,31,71,120
2,43,79,0
2,43,0,120
2,31,0,0
2,30,71,120
2,42,79,0
2,42,0,120
2,30,0,0
2,30,76,120
2,42,85,0
2,42,0,411
2,30,0,0
2,31,64,0
2,43,72,0
2,43,0,120
2,31,0,0
2,33,66,120
2,45,74,0
2,45,0,120
2,33,0,0
2,35,69,120
2,47,77,0
2,47,0,120
2,35,0,0
2,36,71,120
2,48,79,0
2,48,0,120
2,36,0,0
2,38,72,120
2,50,81,0
2,50,0,120
2,38,0,0
2,40,74,120
2,52,83,0
2,52,0,120
2,40,0,0
