track,note,velocity,time
0,50,125,75
0,47,127,38
0,43,127,2
0,42,125,0
0,46,125,70
0,58,127,2
0,54,127,2
0,42,109,0
0,42,77,2
0,42,125,34
0,46,127,0
0,42,125,21
0,42,125,8
0,36,127,0
0,82,127,3
0,62,127,0
0,48,127,1
0,41,127,4
0,55,127,1
0,62,127,3
0,29,127,2
0,57,127,0
0,53,99,2
0,60,99,3
0,74,99,3
0,69,99,2
0,67,99,3
0,82,127,0
0,42,127,13
0,62,127,18
0,42,125,0
0,42,127,13
0,77,127,0
0,38,127,0
0,75,127,1
0,42,125,21
0,29,127,0
0,36,127,0
0,36,127,14
0,42,127,0
0,62,127,2
0,29,127,1
0,62,127,4
0,42,125,11
0,62,127,2
0,82,127,0
0,42,117,11
0,82,127,2
0,38,127,11
0,42,127,0
0,82,127,5
0,39,127,1
0,42,125,48
0,42,53,37
0,36,127,24
0,42,127,0
0,62,127,3
0,82,127,0
0,41,127,1
0,48,127,2
0,57,127,3
0,55,127,2
0,64,127,3
0,29,127,2
0,60,99,4
0,53,99,2
0,76,99,2
0,67,99,3
0,69,99,1
0,82,127,13
0,42,125,13
0,62,127,0
0,42,85,13
0,38,127,82
0,77,127,0
0,42,127,0
0,75,127,1
0,62,127,13
0,42,125,50
0,36,127,0
0,62,127,0
0,29,127,0
0,42,109,11
0,36,127,30
0,42,125,0
0,62,127,2
0,29,127,1
0,62,127,13
0,42,127,6
0,36,127,0
0,82,127,2
0,62,127,13
0,82,127,3
0,42,127,11
0,43,127,0
0,38,127,0
0,62,127,2
0,60,127,3
0,82,127,0
0,72,99,1
0,39,127,4
0,62,127,13
0,46,125,11
0,36,127,30
0,42,125,0
0,82,127,5
0,62,127,0
0,41,127,1
0,48,127,4
0,62,127,1
0,55,127,3
0,57,127,2
0,29,127,2
0,53,99,3
0,60,99,0
0,74,99,3
0,67,99,3
0,69,99,2
0,82,127,13
0,42,127,11
0,42,125,2
0,62,127,2
0,42,127,11
0,38,127,0
0,77,127,2
0,75,127,3
0,36,127,19
0,42,125,0
0,29,127,2
0,36,127,30
0,42,127,0
0,29,127,3
0,62,127,2
0,62,127,13
0,42,125,11
0,62,127,2
0,82,127,3
0,42,117,10
0,82,127,2
0,38,127,11
0,42,127,0
0,82,127,2
0,67,127,3
0,79,99,2
0,39,127,3
0,42,125,46
0,42,53,64
0,36,127,30
0,42,127,0
0,82,127,3
0,62,127,0
0,41,127,1
0,48,127,2
0,55,127,3
0,57,127,2
0,64,127,3
0,29,127,3
0,60,99,3
0,76,99,2
0,53,99,3
0,67,99,2
0,69,99,1
0,82,127,13
0,42,125,11
0,62,127,2
0,36,127,11
0,42,127,5
0,38,127,0
0,77,127,2
0,75,127,1
0,62,127,13
0,29,127,18
0,62,127,3
0,40,101,27
0,40,125,29
0,40,127,45
0,29,127,3
0,62,127,2
0,62,127,13
0,82,127,13
0,62,127,13
0,82,127,0
0,50,127,11
0,82,127,2
0,62,127,0
0,39,127,3
0,62,127,13
0,43,127,11
0,49,100,50
0,41,127,30
0,43,127,0
0,36,127,14
0,42,127,0
0,62,127,5
0,82,127,0
0,41,127,0
0,48,127,1
0,57,127,5
0,67,127,2
0,62,127,1
0,29,127,2
0,51,104,28
0,70,127,13
0,82,127,0
0,42,109,11
0,70,127,32
0,62,127,2
0,49,104,0
0,37,127,11
0,42,127,0
0,77,127,2
0,75,127,1
0,70,127,3
0,70,127,6
0,36,125,19
0,42,109,0
0,29,127,2
0,70,127,1
0,51,104,0
0,36,127,45
0,42,127,0
0,29,127,2
0,62,127,3
0,49,109,0
0,70,127,11
0,62,127,2
0,42,109,11
0,82,127,2
0,62,127,0
0,51,104,8
0,70,127,11
0,82,127,2
0,49,114,0
0,37,127,11
0,42,127,0
0,82,127,2
0,74,127,0
0,39,127,3
0,70,127,3
0,70,127,13
0,51,109,0
0,42,109,22
0,70,127,0
0,46,93,0
0,42,127,35
0,36,127,0
0,41,127,3
0,82,127,2
0,52,127,0
0,62,127,0
0,57,127,3
0,60,127,0
0,29,127,3
0,49,114,0
0,70,127,11
0,82,127,2
0,42,109,11
0,62,127,2
0,70,127,11
0,37,127,21
0,42,127,0
0,77,127,2
0,75,127,1
0,70,127,2
0,70,127,11
0,62,127,2
0,36,125,5
0,42,109,0
0,62,127,2
0,29,127,1
0,70,127,2
0,42,127,45
0,36,127,0
0,62,127,2
0,29,127,0
0,70,127,11
0,62,127,2
0,42,109,11
0,82,127,2
0,70,127,11
0,62,127,2
0,82,127,0
0,42,127,11
0,37,127,0
0,82,127,2
0,74,127,0
0,62,127,0
0,39,127,3
0,70,127,1
0,62,127,13
0,70,127,0
0,70,127,11
0,42,109,0
0,49,109,25
0,36,127,38
0,42,127,0
0,38,127,3
0,82,127,2
0,62,127,0
0,53,127,1
0,57,127,4
0,60,127,1
0,67,127,1
0,64,127,0
0,26,127,3
0,51,109,43
0,82,127,13
0,70,127,1
0,42,109,11
0,49,104,18
0,70,127,40
0,62,127,2
0,51,104,0
0,37,127,11
0,42,127,0
0,77,127,2
0,75,127,1
0,70,127,2
0,70,127,22
0,36,125,19
0,42,109,0
0,26,127,2
0,70,127,1
0,49,104,0
0,42,127,45
0,36,127,0
0,26,127,2
0,62,127,0
0,51,109,35
0,70,127,11
0,62,127,2
0,42,109,11
0,82,127,2
0,62,127,0
0,49,100,0
0,70,127,11
0,82,127,2
0,51,109,0
0,37,127,11
0,42,127,0
0,74,127,2
0,82,127,0
0,39,127,4
0,70,127,2
0,70,127,11
0,49,109,0
0,42,109,22
0,46,93,0
0,70,127,0
0,42,127,32
0,36,127,0
0,38,127,3
0,82,127,2
0,62,127,0
0,53,127,1
0,57,127,2
0,60,127,3
0,62,127,2
0,26,127,0
0,51,109,0
0,70,127,13
0,82,127,0
0,42,109,13
0,62,127,0
0,70,127,11
0,42,127,21
0,37,127,0
0,77,127,0
0,75,127,1
0,70,127,3
0,70,127,11
0,62,127,2
0,42,109,24
0,62,127,0
0,36,125,0
0,26,127,0
0,70,127,3
0,26,127,8
0,42,127,0
0,62,127,0
0,36,127,0
0,70,127,11
0,62,127,2
0,82,127,13
0,42,109,0
0,70,127,11
0,62,127,2
0,82,127,3
0,62,127,13
0,42,127,0
0,74,127,0
0,37,127,0
0,82,127,0
0,70,127,3
0,39,127,0
0,70,127,11
0,62,127,2
0,70,127,11
0,42,109,2
0,49,109,0
0,42,127,15
0,36,127,0
0,46,127,1
0,82,127,2
0,62,127,0
0,57,127,1
0,62,127,4
0,72,127,1
0,65,127,2
0,34,127,1
0,51,109,0
0,82,127,2
0,70,127,0
0,42,109,13
0,49,104,43
0,70,127,37
0,62,127,2
0,51,109,42
0,42,127,13
0,37,127,0
0,77,127,0
0,75,127,1
0,70,127,3
0,70,127,22
0,49,109,0
0,34,127,19
0,42,109,2
0,36,125,0
0,70,127,1
0,36,127,21
0,42,127,0
0,62,127,2
0,34,127,0
0,51,109,30
0,62,127,10
0,70,127,0
0,49,100,42
0,42,109,11
0,82,127,0
0,62,127,0
0,70,127,11
0,82,127,2
0,51,109,0
0,42,127,11
0,37,127,0
0,74,127,2
0,39,127,3
0,82,127,0
0,70,127,0
0,70,127,11
0,46,93,22
0,42,109,0
0,70,127,0
0,49,104,6
0,42,127,21
0,36,127,0
0,46,127,3
0,62,127,2
0,82,127,0
0,61,127,1
0,56,127,0
0,65,127,5
0,72,127,2
0,34,127,1
0,51,104,51
0,82,127,13
0,70,127,1
0,42,109,0
0,62,127,2
0,49,109,32
0,70,127,0
0,51,104,45
0,37,127,22
0,42,127,0
0,77,127,2
0,75,127,1
0,70,127,3
0,70,127,11
0,62,127,2
0,42,109,21
0,34,127,0
0,36,125,0
0,62,127,2
0,70,127,3
0,49,104,2
0,36,127,34
0,42,127,0
0,34,127,2
0,62,127,0
0,51,104,48
0,70,127,11
0,62,127,2
0,42,109,6
0,82,127,2
0,49,104,44
0,70,127,11
0,62,127,2
0,82,127,3
0,51,109,0
0,37,127,11
0,42,127,0
0,74,127,2
0,62,127,0
0,39,127,3
0,82,127,0
0,70,127,1
0,70,127,11
0,62,127,2
0,42,109,11
0,70,127,0
0,49,114,0
0,42,127,35
0,36,127,0
0,48,127,3
0,82,127,2
0,62,127,0
0,53,127,1
0,55,127,4
0,58,127,1
0,60,127,3
0,36,127,2
0,51,109,0
0,70,127,11
0,82,127,2
0,42,109,13
0,70,127,4
0,62,127,0
0,42,127,13
0,77,127,0
0,37,127,0
0,75,127,1
0,70,127,3
0,70,127,24
0,36,127,19
0,70,127,2
0,42,109,0
0,36,125,0
0,42,127,43
0,36,127,0
0,62,127,2
0,36,127,0
0,70,127,13
0,62,127,0
0,42,109,11
0,62,127,2
0,82,127,0
0,70,127,8
0,82,127,2
0,37,127,11
0,42,127,0
0,74,127,2
0,82,127,3
0,65,127,0
0,39,127,4
0,70,127,1
0,70,127,11
0,42,109,22
0,46,93,0
0,70,127,2
0,36,127,32
0,42,127,0
0,64,127,3
0,62,127,2
0,82,127,0
0,36,127,1
0,48,127,2
0,55,127,2
0,58,127,3
0,24,127,1
0,70,127,13
0,82,127,0
0,42,109,11
0,62,127,2
0,70,127,13
0,37,127,24
0,42,127,0
0,77,127,2
0,75,127,1
0,70,127,3
0,62,127,13
0,70,127,1
0,24,127,26
0,62,127,0
0,70,127,3
0,40,101,43
0,40,125,29
0,40,127,45
0,62,127,2
0,24,127,1
0,70,127,13
0,62,127,0
0,82,127,13
0,62,127,13
0,82,127,0
0,70,127,0
0,50,127,11
0,74,127,2
0,62,127,0
0,82,127,3
0,39,127,1
0,70,127,2
0,62,127,13
0,70,127,0
0,43,127,11
0,70,127,3
0,51,96,0
0,41,127,24
0,43,127,0
0,49,92,0
0,42,127,16
0,36,127,0
0,41,127,0
0,62,127,0
0,82,127,0
0,48,127,5
0,57,127,1
0,67,127,2
0,62,127,1
0,29,127,2
0,51,104,0
0,82,127,13
0,70,127,0
0,42,109,11
0,49,92,0
0,70,127,0
0,62,127,0
0,51,100,0
0,42,127,11
0,37,127,0
0,77,127,2
0,75,127,0
0,70,127,1
0,70,127,26
0,42,109,19
0,36,125,0
0,29,127,2
0,70,127,1
0,49,96,0
0,42,127,42
0,36,127,0
0,62,127,2
0,29,127,1
0,51,109,30
0,62,127,13
0,70,127,1
0,42,109,11
0,82,127,2
0,62,127,0
0,49,96,38
0,82,127,0
0,70,127,0
0,51,109,64
0,42,127,11
0,37,127,0
0,74,127,2
0,82,127,3
0,39,127,1
0,70,127,2
0,70,127,14
0,49,109,11
0,46,93,11
0,42,109,0
0,70,127,2
0,36,127,34
0,42,127,0
0,62,127,2
0,41,127,1
0,82,127,2
0,52,127,1
0,57,127,4
0,29,127,1
0,60,127,0
0,51,109,0
0,70,127,13
0,82,127,0
0,42,109,11
0,62,127,2
0,70,127,13
0,37,127,24
0,42,127,0
0,77,127,2
0,75,127,3
0,70,127,3
0,70,127,13
0,62,127,0
0,36,125,24
0,42,109,0
0,62,127,2
0,29,127,0
0,70,127,3
0,42,127,43
0,36,127,0
0,62,127,2
0,29,127,3
0,62,127,13
0,70,127,0
0,42,109,11
0,82,127,2
0,62,127,13
0,82,127,0
0,70,127,1
0,42,127,11
0,37,127,0
0,62,127,2
0,82,127,0
0,74,127,0
0,39,127,3
0,70,127,1
0,49,104,0
0,62,127,0
0,70,127,1
0,42,109,11
0,70,127,2
0,51,109,0
0,42,127,37
0,36,127,0
0,62,127,2
0,82,127,3
0,38,127,0
0,53,127,1
0,57,127,4
0,60,127,3
0,67,127,1
0,64,127,2
0,26,127,0
0,49,104,0
0,82,127,13
0,70,127,0
0,42,109,13
0,51,104,30
0,62,127,4
0,70,127,1
0,49,104,50
0,42,127,13
0,77,127,0
0,37,127,0
0,75,127,0
0,70,127,1
0,70,127,26
0,51,109,0
0,42,109,10
0,36,125,0
0,26,127,1
0,70,127,2
0,62,127,44
0,42,127,0
0,36,127,0
0,26,127,1
0,49,109,24
0,62,127,13
0,70,127,0
0,62,127,13
0,42,109,0
0,82,127,3
0,51,104,0
0,82,127,13
0,70,127,0
0,49,104,0
0,37,127,13
0,74,127,0
0,82,127,0
0,42,127,0
0,39,127,4
0,70,127,4
0,70,127,13
0,51,109,0
0,46,93,26
0,42,109,0
0,70,127,1
0,36,127,32
0,42,127,0
0,62,127,2
0,38,127,3
0,82,127,0
0,53,127,1
0,57,127,2
0,60,127,3
0,62,127,2
0,26,127,1
0,49,109,0
0,82,127,13
0,70,127,2
0,42,109,11
0,62,127,2
0,70,127,13
0,37,127,22
0,42,127,0
0,77,127,2
0,75,127,3
0,70,127,2
0,70,127,13
0,62,127,0
0,42,109,20
0,36,125,0
0,62,127,2
0,26,127,0
0,70,127,3
0,36,127,43
0,42,127,0
0,62,127,2
0,26,127,3
0,62,127,13
0,70,127,2
0,42,109,11
0,82,127,2
0,70,127,11
0,82,127,2
0,62,127,0
0,42,127,11
0,37,127,0
0,62,127,2
0,74,127,0
0,39,127,2
0,82,127,1
0,70,127,2
0,49,109,0
0,70,127,11
0,62,127,2
0,70,127,11
0,42,109,0
0,51,100,0
0,42,127,35
0,36,127,0
0,62,127,2
0,46,127,2
0,82,127,1
0,57,127,0
0,62,127,3
0,72,127,4
0,65,127,3
0,34,127,2
0,49,104,0
0,70,127,11
0,82,127,2
0,42,109,13
0,51,96,0
0,70,127,38
0,62,127,0
0,49,104,61
0,42,127,11
0,37,127,0
0,77,127,2
0,75,127,3
0,70,127,0
0,70,127,24
0,51,104,2
0,36,125,1
0,42,109,0
0,34,127,0
0,70,127,4
0,42,127,46
0,36,127,0
0,34,127,2
0,62,127,0
0,49,100,0
0,70,127,8
0,62,127,2
0,51,100,0
0,42,109,8
0,62,127,2
0,82,127,3
0,70,127,11
0,82,127,2
0,49,104,0
0,37,127,11
0,42,127,0
0,74,127,0
0,82,127,3
0,39,127,0
0,70,127,3
0,70,127,11
0,46,93,22
0,42,109,0
0,70,127,2
0,51,104,0
0,42,127,33
0,36,127,0
0,62,127,2
0,46,127,3
0,82,127,0
0,56,127,3
0,61,127,2
0,65,127,3
0,72,127,2
0,34,127,1
0,49,104,51
0,82,127,13
0,70,127,2
0,42,109,11
0,62,127,2
0,51,100,32
0,70,127,1
0,49,104,53
0,42,127,22
0,37,127,0
0,77,127,0
0,75,127,2
0,70,127,1
0,70,127,11
0,62,127,2
0,34,127,22
0,42,109,2
0,36,125,0
0,62,127,0
0,70,127,0
0,51,104,32
0,36,127,46
0,42,127,0
0,34,127,2
0,62,127,0
0,49,109,45
0,62,127,13
0,70,127,0
0,42,109,11
0,82,127,2
0,51,100,38
0,70,127,11
0,82,127,2
0,62,127,0
0,49,104,55
0,42,127,11
0,37,127,0
0,62,127,2
0,82,127,0
0,74,127,0
0,39,127,0
0,70,127,2
0,70,127,11
0,62,127,2
0,70,127,11
0,42,109,0
0,51,104,22
0,62,127,37
0,36,127,0
0,42,127,0
0,48,127,2
0,82,127,1
0,53,127,0
0,55,127,3
0,58,127,2
0,60,127,5
0,36,127,0
0,49,104,0
0,82,127,13
0,70,127,0
0,42,109,13
0,70,127,82
0,62,127,0
0,42,127,13
0,77,127,0
0,37,127,0
0,75,127,3
0,70,127,3
0,70,127,22
0,36,127,19
0,36,125,0
0,42,109,0
0,70,127,2
0,36,127,44
0,42,127,0
0,62,127,2
0,36,127,0
0,70,127,11
0,62,127,2
0,42,109,11
0,82,127,2
0,62,127,0
0,70,127,13
0,82,127,0
0,37,127,11
0,42,127,0
0,74,127,2
0,82,127,0
0,65,127,3
0,39,127,2
0,70,127,3
0,70,127,13
0,42,109,22
0,46,93,0
0,70,127,0
0,42,127,33
0,36,127,0
0,62,127,2
0,58,127,2
0,82,127,1
0,64,127,0
0,48,127,2
0,67,127,3
0,24,127,2
0,70,127,11
0,82,127,2
0,42,85,11
0,62,127,2
0,70,127,11
0,42,127,20
0,37,127,0
0,77,127,2
0,75,127,2
0,70,127,3
0,70,127,11
