track,note,velocity,time
1,86,64,33390
1,81,64,80
1,86,64,80
1,81,64,64
1,79,64,80
1,81,64,80
1,79,64,80
1,86,64,80
1,81,64,176
1,86,64,64
1,81,64,48
1,79,64,64
1,81,64,80
1,74,64,64
1,72,64,48
1,86,64,48
1,81,64,64
1,86,64,64
1,81,64,64
1,79,64,64
1,81,64,64
1,79,64,64
1,86,64,80
1,81,64,160
1,86,64,80
1,81,64,64
1,79,64,64
1,81,64,64
1,74,64,64
1,72,64,64
1,86,64,64
1,81,64,80
1,86,64,80
1,81,64,64
1,79,64,80
1,81,64,80
1,79,64,80
1,86,64,80
1,81,64,176
1,86,64,64
1,81,64,48
1,79,64,64
1,81,64,80
1,74,64,64
1,72,64,48
1,86,64,48
1,81,64,64
1,86,64,64
1,81,64,64
1,79,64,64
1,81,64,64
1,79,64,64
1,86,64,80
1,81,64,160
1,86,64,80
1,81,64,64
1,79,64,64
1,81,64,64
1,74,64,64
1,72,64,64
1,86,64,64
1,81,64,80
1,86,64,80
1,81,64,64
1,79,64,80
1,81,64,80
1,79,64,80
1,86,64,80
1,81,64,176
1,86,64,64
1,81,64,48
1,79,64,64
1,81,64,80
1,74,64,64
1,72,64,48
1,86,64,48
1,81,64,64
1,86,64,64
1,81,64,64
1,79,64,64
1,81,64,64
1,79,64,64
1,86,64,80
1,81,64,160
1,86,64,80
1,81,64,64
1,79,64,64
1,81,64,64
1,74,64,64
1,72,64,64
1,86,64,64
1,81,64,80
1,86,64,80
1,81,64,64
1,79,64,80
1,81,64,80
1,79,64,80
1,86,64,80
1,81,64,176
1,86,64,64
1,81,64,48
1,79,64,64
1,81,64,80
1,74,64,64
1,72,64,48
1,86,64,48
1,81,64,64
1,86,64,64
1,81,64,64
1,79,64,64
1,81,64,64
1,79,64,64
1,86,64,80
1,81,64,160
1,86,64,80
1,81,64,64
1,79,64,64
1,81,64,64
1,74,64,64
1,72,64,64
1,86,64,64
1,81,64,80
1,86,64,80
1,81,64,64
1,79,64,80
1,81,64,80
1,79,64,80
1,86,64,80
1,81,64,176
1,86,64,64
1,81,64,48
1,79,64,64
1,81,64,80
1,74,64,64
1,72,64,48
1,86,64,48
1,81,64,64
1,86,64,64
1,81,64,64
1,79,64,64
1,81,64,64
1,79,64,64
1,86,64,80
1,81,64,160
1,86,64,80
1,81,64,64
1,79,64,64
1,81,64,64
1,74,64,64
1,72,64,64
1,86,64,64
1,81,64,80
1,86,64,80
1,81,64,64
1,79,64,80
1,81,64,80
1,79,64,80
1,86,64,80
1,81,64,176
1,86,64,64
1,81,64,48
1,79,64,64
1,81,64,80
1,74,64,64
1,72,64,48
1,86,64,48
1,81,64,64
1,86,64,64
1,81,64,64
1,79,64,64
1,81,64,64
1,79,64,64
1,86,64,80
1,81,64,160
1,86,64,80
1,81,64,64
1,79,64,64
1,81,64,64
1,74,64,64
1,72,64,64
1,86,64,64
1,81,64,80
1,86,64,80
1,81,64,64
1,79,64,80
1,81,64,80
1,79,64,80
1,86,64,80
1,81,64,176
1,86,64,64
1,81,64,48
1,79,64,64
1,81,64,80
1,74,64,64
1,72,64,48
1,86,64,48
1,81,64,64
1,86,64,64
1,81,64,64
1,79,64,64
1,81,64,64
1,79,64,64
1,86,64,80
1,81,64,160
1,86,64,80
1,81,64,64
1,79,64,64
1,81,64,64
1,74,64,64
1,72,64,64
1,86,64,64
1,81,64,80
1,86,64,80
1,81,64,64
1,79,64,80
1,81,64,80
1,79,64,80
1,86,64,80
1,81,64,176
1,86,64,64
1,81,64,48
1,79,64,64
1,81,64,80
1,74,64,64
1,72,64,48
1,86,64,48
1,81,64,64
1,86,64,64
1,81,64,64
1,79,64,64
1,81,64,64
1,79,64,64
1,86,64,80
1,81,64,160
1,86,64,80
1,81,64,64
1,79,64,64
1,81,64,64
1,74,64,64
1,72,64,64
1,86,64,12352
1,81,64,80
1,86,64,80
1,81,64,64
1,79,64,80
1,81,64,80
1,79,64,80
1,86,64,80
1,81,64,176
1,86,64,64
1,81,64,48
1,79,64,64
1,81,64,80
1,74,64,64
1,72,64,48
1,86,64,48
1,81,64,64
1,86,64,64
1,81,64,64
1,79,64,64
1,81,64,64
1,79,64,64
1,86,64,80
1,81,64,160
1,86,64,80
1,81,64,64
1,79,64,64
1,81,64,64
1,74,64,64
1,72,64,64
1,86,64,64
1,81,64,80
1,86,64,80
1,81,64,64
1,79,64,80
1,81,64,80
1,79,64,80
1,86,64,80
1,81,64,176
1,86,64,64
1,81,64,48
1,79,64,64
1,81,64,80
1,74,64,64
1,72,64,48
1,86,64,48
1,81,64,64
1,86,64,64
1,81,64,64
1,79,64,64
1,81,64,64
1,79,64,64
1,86,64,80
1,81,64,160
1,86,64,80
1,81,64,64
1,79,64,64
1,81,64,64
1,74,64,64
1,72,64,64
1,86,64,64
1,81,64,80
1,86,64,80
1,81,64,64
1,79,64,80
1,81,64,80
1,79,64,80
1,86,64,80
1,81,64,176
1,86,64,64
1,81,64,48
1,79,64,64
1,81,64,80
1,74,64,64
1,72,64,48
1,86,64,48
1,81,64,64
1,86,64,64
1,81,64,64
1,79,64,64
1,81,64,64
1,79,64,64
1,86,64,80
1,81,64,160
1,86,64,80
1,81,64,64
1,79,64,64
1,81,64,64
1,74,64,64
1,72,64,64
1,86,64,64
1,81,64,80
1,86,64,80
1,81,64,64
1,79,64,80
1,81,64,80
1,79,64,80
1,86,64,80
1,81,64,176
1,86,64,64
1,81,64,48
1,79,64,64
1,81,64,80
1,74,64,64
1,72,64,48
1,86,64,48
1,81,64,64
1,86,64,64
1,81,64,64
1,79,64,64
1,81,64,64
1,79,64,64
1,86,64,80
1,81,64,160
1,86,64,80
1,81,64,64
1,79,64,64
1,81,64,64
1,74,64,64
1,72,64,64
1,86,64,64
1,81,64,80
1,86,64,80
1,81,64,64
1,79,64,80
1,81,64,80
1,79,64,80
1,86,64,80
1,81,64,176
1,86,64,64
1,81,64,48
1,79,64,64
1,81,64,80
1,74,64,64
1,72,64,48
1,86,64,48
1,81,64,64
1,86,64,64
1,81,64,64
1,79,64,64
1,81,64,64
1,79,64,64
1,86,64,80
1,81,64,160
1,86,64,80
1,81,64,64
1,79,64,64
1,81,64,64
1,74,64,64
1,72,64,64
1,86,64,64
1,81,64,80
1,86,64,80
1,81,64,64
1,79,64,80
1,81,64,80
1,79,64,80
1,86,64,80
1,81,64,176
1,86,64,64
1,81,64,48
1,79,64,64
1,81,64,80
1,74,64,64
1,72,64,48
1,86,64,48
1,81,64,64
1,86,64,64
1,81,64,64
1,79,64,64
1,81,64,64
1,79,64,64
1,86,64,80
1,81,64,160
1,86,64,80
1,81,64,64
1,79,64,64
1,81,64,64
1,74,64,64
1,72,64,64
1,86,64,64
1,81,64,80
1,86,64,80
1,81,64,64
1,79,64,80
1,81,64,80
1,79,64,80
1,86,64,80
1,81,64,176
1,86,64,64
1,81,64,48
1,79,64,64
1,81,64,80
1,74,64,64
1,72,64,48
1,86,64,48
1,81,64,64
1,86,64,64
1,81,64,64
1,79,64,64
1,81,64,64
1,79,64,64
1,86,64,80
1,81,64,160
1,86,64,80
1,81,64,64
1,79,64,64
1,81,64,64
1,74,64,64
1,72,64,64
1,86,64,64
1,81,64,80
1,86,64,80
1,81,64,64
1,79,64,80
1,81,64,80
1,79,64,80
1,86,64,80
1,81,64,176
1,86,64,64
1,81,64,48
1,79,64,64
1,81,64,80
1,74,64,64
1,72,64,48
1,86,64,48
1,81,64,64
1,86,64,64
1,81,64,64
1,79,64,64
1,81,64,64
1,79,64,64
1,86,64,80
1,81,64,160
1,86,64,80
1,81,64,64
1,79,64,64
1,81,64,64
1,74,64,64
1,72,64,64
1,86,64,64
1,81,64,80
1,86,64,80
1,81,64,64
1,79,64,80
1,81,64,80
1,79,64,80
1,86,64,80
1,81,64,176
1,86,64,64
1,81,64,48
1,79,64,64
1,81,64,80
1,74,64,64
1,72,64,48
2,29,104,2670
2,29,104,176
2,29,104,144
2,29,104,192
2,29,104,192
2,29,104,144
2,29,104,192
2,29,104,192
2,29,104,128
2,29,104,208
2,29,104,192
2,29,104,128
2,29,104,208
2,29,104,176
2,29,104,144
2,29,104,240
2,29,104,192
2,29,104,128
2,24,104,112
2,25,104,64
2,26,104,64
2,26,104,192
2,26,104,128
2,26,104,192
2,26,104,176
2,26,104,128
2,34,104,160
2,34,104,176
2,34,104,128
2,22,104,112
2,22,104,160
2,22,104,128
2,22,104,80
2,34,104,64
2,36,104,64
2,36,104,176
2,36,104,128
2,24,104,64
2,24,104,144
2,24,104,144
2,29,104,144
2,29,104,160
2,29,104,128
2,29,104,128
2,29,104,144
2,29,104,144
2,24,104,96
2,25,104,64
2,26,104,64
2,26,104,144
2,26,104,144
2,26,104,128
2,26,104,144
2,26,104,128
2,34,104,144
2,34,104,160
2,34,104,128
2,22,104,80
2,22,104,144
2,22,104,128
2,22,104,80
2,34,104,48
2,36,104,64
2,36,104,176
2,36,104,112
2,24,104,160
2,24,104,144
2,24,104,128
2,29,104,144
2,29,104,240
2,29,104,112
2,29,104,128
2,29,104,192
2,29,104,128
2,29,104,240
2,29,104,192
2,29,104,128
2,31,104,192
2,31,104,160
2,31,104,128
2,38,104,144
2,38,104,176
2,38,104,112
2,36,104,48
2,34,104,64
2,34,104,160
2,34,104,112
2,34,104,96
2,34,104,128
2,34,104,128
2,36,104,48
2,36,104,144
2,36,104,112
2,29,104,160
2,29,104,0
2,29,104,192
2,29,104,144
2,29,104,256
2,29,104,192
2,29,104,128
2,29,104,208
2,29,104,192
2,29,104,112
2,31,104,160
2,31,104,160
2,31,104,128
2,34,104,144
2,34,104,176
2,34,104,144
2,36,104,144
2,36,104,144
2,36,104,128
2,29,104,144
2,29,104,0
2,29,104,176
2,29,104,128
2,29,104,224
2,36,104,0
2,36,104,176
2,29,104,48
2,29,104,0
2,29,104,96
2,29,104,144
2,29,104,160
2,29,104,176
2,29,104,128
2,24,104,112
2,25,104,64
2,26,104,64
2,26,104,176
2,26,104,128
2,26,104,160
2,26,104,160
2,26,104,144
2,34,104,160
2,34,104,160
2,34,104,128
2,22,104,80
2,22,104,144
2,22,104,144
2,22,104,96
2,34,104,48
2,36,104,64
2,36,104,176
2,36,104,128
2,24,104,64
2,24,104,144
2,24,104,144
2,29,104,192
2,29,104,176
2,29,104,144
2,29,104,160
2,29,104,192
2,29,104,144
2,29,104,208
2,29,104,176
2,29,104,128
2,31,104,144
2,31,104,192
2,31,104,128
2,38,104,192
2,38,104,176
2,38,104,128
2,36,104,96
2,34,104,64
2,34,104,144
2,34,104,128
2,34,104,160
2,34,104,176
2,34,104,112
2,36,104,128
2,24,104,112
2,24,104,144
2,29,104,176
2,29,104,192
2,29,104,144
2,29,104,320
2,29,104,192
2,29,104,128
2,29,104,208
2,29,104,176
2,29,104,128
2,31,104,192
2,31,104,144
2,31,104,128
2,34,104,208
2,34,104,160
2,34,104,128
2,36,104,128
2,36,104,176
2,36,104,112
2,29,104,144
2,29,104,176
2,29,104,144
2,29,104,144
2,29,104,144
2,29,104,144
2,36,104,160
2,34,104,32
2,34,104,0
2,34,104,128
2,34,104,144
2,36,104,144
2,24,104,16
2,29,104,0
3,53,94,18030
3,55,94,0
3,60,94,0
3,55,94,48
3,60,94,0
3,52,94,0
3,60,94,96
3,62,94,0
3,57,94,0
3,64,94,48
3,57,94,16
3,60,94,0
3,64,94,32
3,57,94,0
3,60,94,0
3,60,94,48
3,57,94,0
3,65,94,0
3,53,94,96
3,58,94,0
3,60,94,0
3,62,94,0
3,65,94,112
3,61,94,0
3,56,94,0
3,60,94,144
3,65,94,0
3,67,94,0
3,67,94,32
3,64,94,0
3,60,94,0
3,60,94,112
3,62,94,0
3,57,94,0
3,60,94,48
3,64,94,0
3,57,94,0
3,62,94,64
3,59,94,0
3,55,94,0
3,62,94,64
3,67,94,0
3,59,94,0
3,60,94,0
3,62,94,48
3,65,94,0
3,55,94,16
3,57,94,0
3,58,94,80
3,53,94,0
3,60,94,0
3,62,94,0
3,53,94,112
3,55,94,0
3,60,94,0
3,62,94,0
3,65,94,0
3,60,94,0
3,67,94,0
3,64,94,0
3,60,94,0
3,57,94,0
3,62,94,0
3,60,94,48
3,64,94,16
3,57,94,0
3,55,94,64
3,59,94,0
3,62,94,0
3,67,94,80
3,62,94,0
3,59,94,16
3,58,94,112
3,53,94,0
3,60,94,0
3,62,94,0
3,53,94,32
3,60,94,0
3,55,94,0
3,60,94,0
3,65,94,0
3,67,94,0
3,67,94,0
3,64,94,16
3,60,94,0
3,60,94,0
3,65,94,0
3,57,94,0
3,57,94,32
3,65,94,0
3,60,94,16
3,55,94,9232
3,60,94,0
3,53,94,0
3,60,94,32
3,55,94,16
3,52,94,0
3,60,94,96
3,57,94,0
3,62,94,0
3,57,94,64
3,60,94,0
3,64,94,0
3,62,94,64
3,59,94,0
3,55,94,0
3,62,94,80
3,67,94,0
3,59,94,0
3,65,94,0
3,62,94,48
3,57,94,0
3,65,94,0
3,53,94,80
3,58,94,0
3,55,94,0
3,60,94,0
3,62,94,0
3,58,94,32
3,53,94,0
3,62,94,0
3,60,94,16
3,67,94,64
3,65,94,0
3,60,94,0
3,67,94,16
3,60,94,0
3,64,94,0
3,57,94,0
3,60,94,0
3,62,94,0
3,60,94,48
3,57,94,16
3,64,94,0
3,62,94,64
3,55,94,0
3,59,94,0
3,67,94,144
3,59,94,0
3,62,94,0
3,58,94,80
3,53,94,0
3,60,94,0
3,62,94,0
3,55,94,48
3,60,94,0
3,55,94,48
3,60,94,0
3,52,94,0
3,65,94,48
3,57,94,0
3,60,94,0
3,65,94,16
3,57,94,16
3,60,94,0
3,58,94,176
3,60,94,0
3,53,94,0
3,58,94,0
3,53,94,0
3,60,94,0
3,62,94,0
3,60,94,96
3,55,94,16
3,53,94,0
3,60,94,48
3,55,94,0
3,52,94,0
3,53,94,96
3,57,94,16
3,65,94,1536
4,54,114,838
4,54,114,4074
4,54,114,128
4,54,119,1472
4,49,100,2324
4,51,104,144
4,49,104,238
4,51,104,236
4,49,109,160
4,51,104,122
4,49,114,48
4,51,109,128
4,49,114,246
4,49,109,1294
4,51,109,146
4,49,104,134
4,51,104,62
4,49,104,218
4,51,109,168
4,49,100,136
4,51,109,58
4,49,109,150
4,51,109,240
4,49,109,1290
4,51,109,152
4,49,104,148
4,51,109,58
4,49,109,132
4,51,109,246
4,49,100,42
4,51,109,150
4,49,104,356
4,51,104,50
4,49,109,116
4,51,104,54
4,49,104,232
4,51,104,158
4,49,104,140
4,51,109,58
4,49,114,236
4,51,109,144
4,51,96,2838
4,49,92,48
4,51,104,68
4,49,92,132
4,51,100,54
4,49,96,250
4,51,109,150
4,49,96,134
4,51,109,64
4,49,109,162
4,51,109,218
4,49,104,1090
4,51,109,162
4,49,104,138
4,51,104,134
4,49,104,54
4,51,109,180
4,49,109,214
4,51,104,148
4,49,104,58
4,51,109,146
4,49,109,250
4,49,109,1094
4,51,100,148
4,49,104,140
4,51,96,148
4,49,104,62
4,51,104,128
4,49,100,282
4,51,100,52
4,49,104,112
4,51,104,252
4,49,104,150
4,51,100,126
4,49,104,54
4,51,104,240
4,49,109,156
4,51,100,140
4,49,104,56
4,51,104,244
4,49,104,154
4,51,109,2650
4,49,92,144
4,51,114,174
4,49,109,302
4,51,114,150
4,49,109,344
4,51,114,346
4,49,109,1298
4,51,104,150
4,49,109,512
4,51,109,160
4,49,109,320
4,51,114,342
4,49,104,1486
4,51,81,38
4,49,109,58
4,51,104,362
4,49,104,140
4,51,109,70
4,49,92,514
4,51,100,54
4,49,96,36
4,51,109,60
4,49,104,352
4,51,104,150
4,49,104,54
4,51,96,614
4,49,96,28
4,51,100,74
4,49,104,346
4,51,104,142
4,49,109,522
4,51,109,168
4,49,100,1488
4,51,109,140
4,49,104,348
4,51,104,134
4,49,100,38
4,51,100,622
4,49,100,46
4,49,100,1206
4,51,109,144
4,49,104,540
4,51,104,154
4,49,109,332
4,51,114,354
4,49,96,1094
