track,note,velocity,time
3,76,74,1400
3,77,74,365
3,79,74,330
3,84,74,480
3,84,74,315
3,88,74,300
3,84,74,5
3,79,74,480
3,81,74,15
3,84,74,480
3,84,74,305
3,89,74,305
3,84,74,5
3,81,74,480
3,83,74,5
3,86,74,480
3,86,74,355
3,79,74,330
3,81,74,480
3,83,74,455
3,84,74,475
3,79,74,335
3,77,74,115
3,76,74,125
3,74,74,115
3,72,74,115
3,88,74,785
3,88,74,30
3,88,74,30
3,89,74,10
3,88,74,50
3,86,74,0
3,86,74,155
3,86,74,480
3,88,74,480
3,86,74,65
3,86,74,10
3,84,74,25
3,88,74,7080
3,84,74,0
3,83,74,0
3,86,74,0
3,81,74,15
3,84,74,0
3,79,74,10
3,83,74,0
3,77,74,960
3,81,74,0
3,76,74,450
3,79,74,0
3,74,74,445
3,77,74,0
3,83,74,6220
3,86,74,0
3,84,74,5
3,81,74,0
3,79,74,10
3,83,74,0
3,77,74,480
3,81,74,0
3,76,74,20
3,79,74,0
3,74,74,5
3,77,74,0
3,72,74,465
3,76,74,0
3,84,74,6245
3,88,74,0
3,83,74,0
3,86,74,0
3,81,74,0
3,84,74,0
3,79,74,0
3,83,74,0
3,77,74,0
3,81,74,0
3,76,74,0
3,79,74,0
3,74,74,0
3,77,74,0
3,83,74,6240
3,86,74,0
3,81,74,0
3,84,74,0
3,79,74,0
3,83,74,0
3,77,74,0
3,81,74,0
3,76,74,0
3,79,74,0
3,74,74,0
3,77,74,0
3,72,74,0
3,76,74,0
3,65,74,7680
3,77,74,0
3,64,74,0
3,76,74,0
3,64,74,0
3,76,74,0
3,62,74,0
3,74,74,0
3,64,74,7680
3,76,74,0
3,62,74,0
3,74,74,0
3,62,74,0
3,74,74,0
3,60,74,0
3,72,74,0
3,72,74,0
3,76,74,0
3,72,74,0
3,76,74,0
3,72,74,0
3,76,74,0
3,74,74,0
3,77,74,0
3,76,74,0
3,79,74,0
3,77,74,0
3,81,74,0
3,77,74,0
3,81,74,0
3,77,74,0
3,81,74,0
3,79,74,0
3,83,74,0
3,79,74,0
3,83,74,0
3,79,74,0
3,83,74,0
3,77,74,0
3,81,74,0
3,77,74,0
3,81,74,0
3,76,74,0
3,79,74,0
3,79,74,11520
3,88,74,0
3,79,74,0
3,88,74,0
3,79,74,0
3,88,74,0
3,81,74,0
3,89,74,0
3,79,74,0
3,88,74,0
3,79,74,0
3,88,74,0
3,77,74,0
3,86,74,0
3,77,74,0
3,86,74,0
3,77,74,0
3,86,74,0
3,77,74,0
3,86,74,0
3,79,74,0
3,88,74,0
3,77,74,0
3,86,74,0
3,77,74,0
3,86,74,0
3,76,74,0
3,84,74,0
3,76,74,0
3,77,74,365
3,79,74,330
3,84,74,480
3,84,74,315
3,88,74,300
3,84,74,5
3,79,74,480
3,81,74,15
3,84,74,480
3,84,74,305
3,89,74,305
3,84,74,5
3,81,74,480
3,83,74,5
3,86,74,480
3,86,74,355
3,79,74,330
3,81,74,480
3,83,74,455
3,84,74,475
3,79,74,335
3,77,74,115
3,76,74,125
3,74,74,115
3,72,74,115
3,65,74,31505
3,77,74,0
3,64,74,0
3,76,74,0
3,64,74,0
3,76,74,0
3,62,74,0
3,74,74,0
3,64,74,7680
3,76,74,0
3,62,74,0
3,74,74,0
3,62,74,0
3,74,74,0
3,60,74,0
3,72,74,0
3,72,74,0
3,76,74,0
3,72,74,0
3,76,74,0
3,72,74,0
3,76,74,0
3,74,74,0
3,77,74,0
3,76,74,0
3,79,74,0
3,77,74,0
3,81,74,0
3,77,74,0
3,81,74,0
3,77,74,0
3,81,74,0
3,79,74,0
3,83,74,0
3,79,74,0
3,83,74,0
3,79,74,0
3,83,74,0
3,77,74,0
3,81,74,0
3,77,74,0
3,81,74,0
3,76,74,0
3,79,74,0
3,79,74,0
3,88,74,0
3,79,74,0
3,88,74,0
3,79,74,0
3,88,74,0
3,81,74,0
3,89,74,0
3,79,74,0
3,88,74,0
3,79,74,0
3,88,74,0
3,77,74,0
3,86,74,0
3,77,74,0
3,86,74,0
3,77,74,0
3,86,74,0
3,77,74,0
3,86,74,0
3,79,74,0
3,88,74,0
3,77,74,0
3,86,74,0
3,77,74,0
3,86,74,0
3,76,74,0
3,84,74,0
3,72,74,480
3,76,74,0
3,72,74,0
3,76,74,0
3,72,74,0
3,76,74,0
3,74,74,0
3,77,74,0
3,76,74,0
3,79,74,0
3,77,74,0
3,81,74,0
3,77,74,0
3,81,74,0
3,77,74,0
3,81,74,0
3,79,74,0
3,83,74,0
3,79,74,0
3,83,74,0
3,79,74,0
3,83,74,0
3,77,74,0
3,81,74,0
3,77,74,0
3,81,74,0
3,76,74,0
3,79,74,0
3,79,74,0
3,88,74,0
3,79,74,0
3,88,74,0
3,79,74,0
3,88,74,0
3,81,74,0
3,89,74,0
3,79,74,0
3,88,74,0
3,79,74,0
3,88,74,0
3,77,74,0
3,86,74,0
3,77,74,0
3,86,74,0
3,77,74,0
3,86,74,0
3,77,74,0
3,86,74,0
3,79,74,0
3,88,74,0
3,77,74,0
3,86,74,0
3,77,74,0
3,86,74,0
3,84,74,1440
3,79,74,665
3,84,74,250
4,48,93,2310
4,36,87,855
4,38,90,115
4,40,86,80
4,41,90,135
4,48,88,995
4,47,88,160
4,45,84,140
4,43,89,200
4,43,90,990
4,45,91,90
4,47,87,170
4,48,94,145
4,43,91,175
4,40,90,190
4,36,95,130
4,36,91,1085
4,45,85,1085
4,38,91,890
4,45,87,175
4,43,85,190
4,41,89,165
4,41,87,190
4,40,87,155
4,38,93,190
4,43,90,925
4,36,89,915
4,40,88,170
4,43,85,180
4,48,93,215
4,48,91,1115
4,43,88,1060
4,48,88,990
4,47,87,185
4,45,87,215
4,43,88,170
4,40,91,155
4,43,88,155
4,48,90,200
4,43,87,1050
4,45,87,490
4,38,87,195
4,41,94,200
4,40,89,195
4,38,91,210
4,40,88,160
4,41,89,180
4,43,88,215
4,38,85,1085
4,43,87,1005
4,41,87,155
4,40,88,175
4,38,85,150
4,35,88,155
4,38,87,150
4,43,93,200
4,38,93,1160
4,43,90,585
4,36,91,135
4,40,94,130
4,41,98,180
4,43,95,160
4,45,90,175
4,47,95,200
4,48,93,190
4,43,87,1015
4,48,95,1010
4,47,87,200
4,45,85,175
4,43,87,185
4,40,95,180
4,43,89,190
4,48,94,175
4,43,91,1095
4,45,88,535
4,38,90,210
4,41,88,170
4,40,89,180
4,38,88,195
4,40,89,165
4,41,87,175
4,43,89,195
4,38,88,1090
4,43,88,955
4,41,86,185
4,40,90,195
4,38,91,225
4,35,93,160
4,38,90,140
4,43,91,190
4,38,90,1115
4,43,90,520
4,36,90,145
4,40,97,140
4,41,89,150
4,43,93,175
4,45,87,170
4,47,93,165
4,48,93,180
4,41,90,1100
4,36,91,985
4,40,94,200
4,43,95,195
4,36,91,195
4,40,93,190
4,43,91,175
4,41,91,230
4,45,93,190
4,41,93,170
4,38,87,185
4,45,95,1015
4,38,93,1115
4,41,94,175
4,45,93,170
4,38,90,235
4,43,89,1050
4,38,93,1005
4,43,89,170
4,47,93,155
4,43,90,205
4,35,90,125
4,38,93,135
4,40,94,195
4,43,95,245
4,40,93,220
4,36,91,195
4,43,91,1090
4,36,90,990
4,40,91,180
4,43,93,190
4,36,91,240
4,36,86,540
4,40,87,225
4,40,86,395
4,41,91,180
4,45,88,1120
4,48,95,210
4,41,91,210
4,43,90,210
4,43,86,565
4,43,90,230
4,38,93,580
4,36,93,185
4,43,89,1095
4,45,88,180
4,47,87,180
4,48,95,205
4,45,90,1095
4,38,94,985
4,45,90,180
4,43,86,190
4,41,90,195
4,41,87,210
4,40,90,185
4,38,93,175
4,43,90,1085
4,36,90,1030
4,43,88,185
4,43,89,200
4,36,88,200
4,36,90,1125
4,45,87,1095
4,38,94,1020
4,45,93,210
4,43,87,190
4,41,93,205
4,41,87,225
4,40,90,170
4,38,91,170
4,43,88,1060
4,36,91,975
4,40,90,180
4,43,89,215
4,48,100,215
4,48,93,1150
4,36,87,855
4,38,90,115
4,40,86,80
4,41,90,135
4,48,88,995
4,47,88,160
4,45,84,140
4,43,89,200
4,43,90,990
4,45,91,90
4,47,87,170
4,48,94,145
4,43,91,175
4,40,90,190
4,36,95,130
4,36,88,1085
4,43,87,1105
4,48,94,1055
4,47,87,200
4,45,89,205
4,43,87,195
4,40,88,180
4,43,90,170
4,48,91,215
4,43,89,1140
4,45,87,610
4,38,90,225
4,41,88,170
4,40,89,180
4,38,88,195
4,40,89,165
4,41,87,175
4,43,89,195
4,38,88,1090
4,43,88,955
4,41,86,185
4,40,90,195
4,38,91,225
4,35,93,160
4,38,90,140
4,43,91,190
4,38,90,1115
4,43,90,520
4,36,90,145
4,40,97,140
4,41,89,150
4,43,93,175
4,45,87,170
4,47,93,165
4,48,93,180
4,41,90,1100
4,36,91,985
4,40,94,200
4,43,95,195
4,36,91,195
4,40,93,190
4,43,91,175
4,41,91,230
4,45,93,190
4,41,93,170
4,38,87,185
4,45,95,1015
4,38,93,1115
4,41,94,175
4,45,93,170
4,38,90,235
4,43,89,1050
4,38,93,1005
4,43,89,170
4,47,93,155
4,43,90,205
4,35,90,125
4,38,93,135
4,40,94,195
4,43,95,245
4,40,93,220
4,36,91,195
4,43,91,1090
4,36,90,990
4,40,91,180
4,43,93,190
4,36,91,240
4,36,86,540
4,40,87,225
4,40,86,395
4,41,91,180
4,45,88,1120
4,48,95,210
4,41,91,210
4,43,90,210
4,43,86,565
4,43,90,230
4,38,93,580
4,36,93,185
4,43,89,1095
4,45,88,180
4,47,87,180
4,48,95,205
4,45,90,1095
4,38,94,985
4,45,90,180
4,43,86,190
4,41,90,195
4,41,87,210
4,40,90,185
4,38,93,175
4,43,90,1085
4,36,90,1030
4,43,88,185
4,43,89,200
4,36,88,200
4,36,91,1125
4,36,86,540
4,40,87,225
4,40,86,395
4,41,91,180
4,45,88,1120
4,48,95,210
4,41,91,210
4,43,90,210
4,43,86,565
4,43,90,230
4,38,93,580
4,36,93,185
4,43,89,1095
4,45,88,180
4,47,87,180
4,48,95,205
4,45,90,1095
4,38,94,985
4,45,90,180
4,43,86,190
4,41,90,195
4,41,87,210
4,40,90,185
4,38,94,175
4,31,89,890
4,31,90,290
4,43,85,195
4,40,90,565
4,41,95,245
4,43,94,200
4,43,87,940
4,45,91,170
4,47,88,195
4,48,97,250
4,43,91,615
4,36,93,225
5,64,84,2740
5,67,77,0
5,60,76,0
5,64,80,390
5,60,77,0
5,67,75,0
5,64,76,880
5,67,72,0
5,60,68,0
5,64,79,380
5,67,76,0
5,60,73,0
5,65,80,870
5,69,75,0
5,60,75,0
5,65,76,400
5,69,73,0
5,60,70,0
5,65,82,880
5,69,76,0
5,60,75,0
5,65,80,390
5,69,76,0
5,60,68,0
5,62,75,870
5,59,68,0
5,67,73,0
5,67,75,380
5,62,73,0
5,59,69,0
5,55,76,370
5,57,68,480
5,59,73,475
5,60,82,85
5,64,70,820
5,67,67,0
5,60,69,0
5,67,79,390
5,64,82,0
5,60,79,0
5,64,75,1805
5,67,72,0
5,60,70,0
5,64,76,370
5,60,73,0
5,67,71,0
5,61,66,850
5,67,72,0
5,69,72,0
5,67,75,375
5,61,64,0
5,69,73,0
5,50,77,380
5,57,76,115
5,55,72,140
5,53,76,105
5,53,73,170
5,52,73,130
5,50,67,160
5,65,67,480
5,69,68,0
5,62,64,0
5,65,72,365
5,62,67,0
5,69,70,0
5,59,73,845
5,62,75,0
5,65,72,0
5,62,67,365
5,65,68,0
5,59,64,0
5,48,65,360
5,60,63,40
5,67,62,0
5,64,59,0
5,64,66,290
5,60,67,0
5,67,66,0
5,67,73,350
5,60,79,0
5,64,77,0
5,64,73,1760
5,60,72,0
5,67,70,0
5,64,76,375
5,60,75,0
5,67,73,0
5,67,71,860
5,64,72,0
5,60,67,0
5,67,71,380
5,64,73,0
5,60,68,0
5,67,71,855
5,64,75,0
5,60,71,0
5,64,77,385
5,67,75,0
5,60,72,0
5,64,75,870
5,67,72,0
5,60,72,0
5,64,77,385
5,67,75,0
5,60,75,0
5,64,72,865
5,67,70,0
5,60,71,0
5,64,77,365
5,67,73,0
5,60,72,0
5,67,76,845
5,62,76,0
5,59,70,0
5,69,80,365
5,64,76,0
5,61,72,0
5,50,77,350
5,53,73,40
5,52,75,85
5,50,77,100
5,52,75,75
5,53,73,130
5,62,80,615
5,59,71,0
5,67,76,0
5,62,79,400
5,59,68,0
5,67,77,0
5,62,77,875
5,59,69,0
5,67,76,0
5,62,77,385
5,67,76,0
5,59,69,0
5,67,76,870
5,59,71,0
5,62,75,0
5,62,77,385
5,67,75,0
5,59,70,0
5,62,79,870
5,59,68,0
5,67,73,0
5,62,79,390
5,59,69,0
5,67,76,0
5,59,69,880
5,62,77,0
5,67,73,0
5,62,79,390
5,59,71,0
5,67,75,0
5,59,68,865
5,67,73,0
5,62,73,0
5,62,79,380
5,59,75,0
5,67,76,0
5,48,80,390
5,52,75,40
5,53,68,20
5,55,79,10
5,57,76,45
5,59,75,480
5,60,82,165
5,64,73,480
5,67,71,0
5,60,84,360
5,64,82,0
5,67,77,0
5,60,77,840
5,64,75,0
5,67,71,0
5,67,73,365
5,64,76,0
5,60,77,0
5,64,77,845
5,60,77,0
5,67,72,0
5,64,77,385
5,60,79,0
5,67,73,0
5,64,77,860
5,60,77,0
5,67,75,0
5,64,79,365
5,60,77,0
5,67,75,0
5,64,73,865
5,67,69,0
5,60,69,0
5,64,77,370
5,60,76,0
5,67,71,0
5,67,77,845
5,59,72,0
5,62,75,0
5,69,77,350
5,64,73,0
5,61,70,0
5,50,76,355
5,53,75,65
5,52,77,120
5,50,79,115
5,52,77,100
5,53,75,135
5,55,69,165
5,59,70,45
5,67,75,0
5,62,75,0
5,62,75,340
5,67,73,0
5,59,72,0
5,62,76,845
5,59,72,0
5,67,73,0
5,62,73,385
5,59,71,0
5,67,72,0
5,62,75,850
5,59,70,0
5,67,75,0
5,62,76,380
5,67,73,0
5,59,70,0
5,59,69,860
5,62,75,0
5,67,72,0
5,59,69,370
5,62,73,0
5,67,75,0
5,62,72,845
5,67,71,0
5,59,65,0
5,62,73,370
5,59,69,0
5,67,72,0
5,57,75,370
5,62,76,0
5,65,75,0
5,62,75,840
5,59,70,0
5,67,76,0
5,48,80,320
5,52,82,125
5,53,79,135
5,55,79,155
5,57,76,170
5,59,73,170
5,60,77,215
5,67,69,480
5,64,67,0
5,60,79,355
5,64,79,0
5,67,75,0
5,65,73,830
5,60,75,0
5,69,69,0
5,65,71,360
5,60,76,0
5,69,71,0
5,64,72,815
5,60,73,0
5,67,66,0
5,64,77,365
5,67,73,0
5,60,76,0
5,60,77,855
5,64,76,0
5,67,72,0
5,64,73,380
5,69,79,0
5,61,64,0
5,65,75,795
5,62,69,0
5,69,70,0
5,69,76,370
5,65,76,0
5,62,68,0
5,69,76,845
5,65,77,0
5,62,68,0
5,65,76,370
5,69,73,0
5,62,68,0
5,69,76,855
5,65,77,0
5,62,69,0
5,65,76,370
5,69,75,0
5,62,69,0
5,69,76,860
5,65,77,0
5,62,71,0
5,65,72,360
5,69,72,0
5,62,67,0
5,69,71,840
5,65,72,0
5,62,67,0
5,65,77,360
5,62,70,0
5,69,71,0
5,62,75,845
5,67,76,0
5,59,67,0
5,62,76,345
5,67,76,0
5,59,71,0
5,59,68,840
5,62,75,0
5,67,75,0
5,62,79,350
5,59,71,0
5,67,76,0
5,62,77,840
5,59,70,0
5,67,76,0
5,67,77,365
5,62,76,0
5,59,71,0
5,64,76,830
5,67,71,0
5,60,71,0
5,64,77,380
5,67,71,0
5,60,75,0
5,64,77,855
5,67,73,0
5,60,75,0
5,64,79,390
5,60,73,0
5,67,73,0
5,64,77,865
5,67,73,0
5,60,70,0
5,64,77,385
5,67,73,0
5,60,72,0
5,64,73,860
5,67,71,0
5,60,67,0
5,64,77,375
5,60,73,0
5,67,72,0
5,64,67,855
5,60,68,0
5,67,67,0
5,64,77,370
5,60,77,0
5,67,70,0
5,69,76,830
5,65,71,0
5,62,69,0
5,67,67,105
