track,note,velocity,time
3,63,63,132
3,66,69,0
3,61,50,3
3,51,56,4
3,70,76,150
3,63,0,145
3,66,0,0
3,51,0,0
3,70,0,0
3,61,0,13
3,68,57,0
3,53,32,0
3,65,66,0
3,63,61,0
3,71,64,158
3,68,0,119
3,53,0,26
3,65,0,0
3,63,0,0
3,71,0,0
3,54,60,14
3,68,60,1
3,64,60,0
3,63,64,0
3,68,0,157
3,64,0,0
3,63,0,0
3,70,62,0
3,61,63,1
3,66,63,0
3,54,0,144
3,61,0,0
3,66,0,0
3,63,66,12
3,61,66,0
3,47,52,1
3,66,64,0
3,70,0,0
3,35,52,0
3,59,63,158
3,63,0,145
3,61,0,0
3,47,0,0
3,35,0,0
3,59,0,0
3,66,0,13
3,36,63,0
3,60,73,0
3,63,67,1
3,58,52,1
3,54,60,1
3,48,63,4
3,36,0,310
3,60,0,0
3,35,60,0
3,63,0,0
3,58,0,1
3,54,0,1
3,66,67,2
3,63,66,1
3,58,51,0
3,54,61,1
3,48,0,1
3,47,60,0
3,34,56,302
3,56,47,1
3,46,56,5
3,35,0,1
3,66,0,4
3,63,0,1
3,58,0,1
3,54,0,1
3,47,0,0
3,58,47,6
3,62,66,17
3,66,76,13
3,46,90,1197
3,62,0,7
3,46,0,13
3,34,0,6
3,56,0,0
3,46,0,0
3,58,0,0
3,66,0,0
3,39,108,0
3,58,104,53
3,66,104,0
3,63,104,0
3,61,104,0
3,39,0,215
3,39,86,23
3,58,0,6
3,66,0,0
3,63,0,0
3,61,0,2
3,39,0,12
3,32,105,6
3,44,112,0
3,60,106,52
3,56,100,0
3,63,102,0
3,66,108,0
3,32,0,127
3,44,0,99
3,60,0,2
3,56,0,7
3,63,0,3
3,44,97,0
3,66,0,6
3,44,0,15
3,49,111,5
3,37,111,0
3,59,95,53
3,65,105,0
3,68,105,0
3,63,100,0
3,49,0,209
3,59,0,19
3,65,0,3
3,68,0,2
3,63,0,2
3,49,105,2
3,37,0,2
3,42,116,25
3,49,0,1
3,58,102,52
3,66,106,0
3,65,112,0
3,61,104,0
3,58,0,224
3,66,0,2
3,42,0,4
3,65,0,0
3,61,0,0
3,43,98,7
3,48,116,26
3,36,101,0
3,43,0,1
3,60,104,52
3,58,98,0
3,63,95,0
3,66,105,0
3,48,0,226
3,60,0,6
3,36,0,4
3,58,0,1
3,42,86,0
3,63,0,3
3,66,0,5
3,42,0,14
3,47,110,5
3,35,105,0
3,63,104,52
3,59,98,0
3,58,98,0
3,66,102,0
3,47,0,238
3,42,89,0
3,35,0,1
3,63,0,4
3,59,0,3
3,58,0,0
3,66,0,5
3,42,0,4
3,46,104,9
3,34,101,0
3,62,112,53
3,56,100,0
3,58,100,0
3,66,101,0
3,46,0,213
3,62,0,14
3,56,0,1
3,58,0,0
3,66,0,2
3,34,0,4
3,46,104,3
3,39,96,27
3,46,0,1
3,58,93,52
3,66,93,0
3,63,93,0
3,61,93,0
3,39,0,214
3,39,74,23
3,58,0,7
3,66,0,0
3,63,0,0
3,61,0,2
3,39,0,11
3,32,94,6
3,44,101,0
3,60,95,53
3,56,88,0
3,63,90,0
3,66,96,0
3,32,0,127
3,44,0,98
3,60,0,3
3,56,0,6
3,44,86,3
3,63,0,1
3,66,0,6
3,44,0,14
3,49,100,6
3,37,100,0
3,59,83,52
3,65,94,0
3,68,94,0
3,63,88,0
3,49,0,210
3,59,0,18
3,65,0,3
3,68,0,2
3,63,0,3
3,49,94,2
3,37,0,2
3,42,104,24
3,49,0,2
3,58,90,51
3,66,95,0
3,65,101,0
3,61,93,0
3,58,0,225
3,66,0,2
3,42,0,3
3,65,0,0
3,61,0,1
3,43,87,6
3,48,104,27
3,36,89,0
3,43,0,1
3,60,93,51
3,58,87,0
3,63,83,0
3,66,94,0
3,48,0,227
3,60,0,6
3,36,0,4
3,58,0,0
3,42,74,1
3,63,0,3
3,66,0,4
3,42,0,14
3,47,98,5
3,35,94,0
3,63,93,53
3,59,87,0
3,58,87,0
3,66,90,0
3,47,0,232
3,47,78,5
3,35,0,1
3,63,0,4
3,59,0,3
3,58,0,1
3,66,0,4
3,47,0,9
3,46,93,5
3,34,89,0
3,62,101,52
3,56,88,0
3,58,88,0
3,66,89,0
3,46,0,213
3,62,0,15
3,56,0,0
3,58,0,0
3,66,0,2
3,34,0,4
3,46,93,4
3,51,96,26
3,39,96,0
3,46,0,1
3,58,93,52
3,63,93,0
3,66,93,0
3,61,93,0
3,51,0,215
3,39,0,0
3,46,74,22
3,58,0,7
3,63,0,0
3,66,0,0
3,61,0,2
3,46,0,11
3,39,96,6
3,70,93,53
3,66,93,0
3,63,93,0
3,61,93,0
3,39,0,215
3,39,74,23
3,70,0,6
3,66,0,1
3,63,0,0
3,61,0,2
3,39,0,11
3,32,94,6
3,44,101,0
3,60,95,53
3,70,88,0
3,63,90,0
3,66,96,0
3,32,0,126
3,44,0,99
3,60,0,3
3,70,0,6
3,63,0,3
3,44,86,0
3,66,0,7
3,44,0,14
3,49,90,6
3,37,90,0
3,59,83,52
3,65,94,0
3,68,94,0
3,63,88,0
3,49,0,210
3,59,0,18
3,65,0,3
3,68,0,2
3,63,0,3
3,49,94,2
3,37,0,2
3,42,104,24
3,49,0,2
3,58,90,51
3,66,106,0
3,65,89,0
3,61,93,0
3,58,0,225
3,66,0,2
3,42,0,3
3,65,0,0
3,61,0,1
3,43,87,6
3,48,104,26
3,36,89,0
3,43,0,2
3,60,93,51
3,58,87,0
3,63,100,0
3,54,94,0
3,48,0,226
3,60,0,7
3,36,0,3
3,58,0,1
3,42,74,1
3,63,0,3
3,54,0,4
3,42,0,14
3,47,98,5
3,35,94,0
3,63,104,53
3,59,87,0
3,58,87,0
3,54,90,0
3,47,0,236
3,47,78,1
3,35,0,1
3,63,0,4
3,59,0,3
3,58,0,1
3,54,0,4
3,47,0,6
3,46,93,8
3,34,89,0
3,62,89,52
3,56,88,0
3,58,98,0
3,66,101,0
3,46,0,213
3,62,0,15
3,56,0,0
3,58,0,0
3,66,0,2
3,34,0,4
3,46,93,4
3,51,96,26
3,39,96,0
3,46,0,1
3,58,93,52
3,63,93,0
3,66,93,0
3,61,93,0
3,51,0,105
3,39,0,0
3,30,117,0
3,30,0,53
3,42,96,0
3,42,0,22
3,31,111,4
3,43,104,53
3,31,0,3
3,58,0,4
3,63,0,0
3,66,0,0
3,61,0,2
3,43,0,13
3,32,87,4
3,44,96,0
3,54,89,53
3,58,83,0
3,60,83,1
3,63,74,0
3,32,0,131
3,44,0,87
3,60,0,8
3,58,0,1
3,54,0,2
3,44,88,9
3,63,0,1
3,44,0,23
3,49,93,2
3,37,83,1
3,65,94,48
3,63,80,1
3,59,93,0
3,68,88,1
3,37,0,214
3,49,0,12
3,59,0,7
3,63,0,2
3,37,104,1
3,65,0,0
3,68,0,4
3,30,78,24
3,42,87,0
3,37,0,1
3,65,89,52
3,61,82,0
3,66,78,0
3,58,82,0
3,30,0,194
3,42,0,12
3,43,88,32
3,65,0,2
3,61,0,3
3,66,0,4
3,58,0,4
3,36,89,13
3,48,101,0
3,43,0,2
3,60,83,51
3,63,82,0
3,58,81,0
3,66,82,0
3,36,0,197
3,48,0,23
3,60,0,10
3,36,82,7
3,63,0,3
3,58,0,1
3,66,0,0
3,36,0,12
3,35,90,10
3,47,90,0
3,59,88,53
3,58,82,0
3,63,89,0
3,66,88,0
3,35,0,219
3,47,0,1
3,59,0,12
3,58,0,1
3,63,0,4
3,35,108,0
3,66,0,3
3,34,87,24
3,46,95,0
3,35,0,3
3,58,86,50
3,62,86,0
3,56,75,0
3,66,88,0
3,34,0,180
3,46,0,42
3,58,0,10
3,62,0,2
3,46,89,3
3,56,0,1
3,66,0,3
3,46,0,22
3,39,83,0
3,51,111,0
3,58,88,53
3,61,90,0
3,63,90,0
3,66,93,0
3,39,0,209
3,51,0,9
3,58,0,5
3,61,0,1
3,63,0,3
3,66,0,3
3,46,94,8
3,51,87,26
3,39,89,0
3,46,0,2
3,61,87,50
3,63,87,0
3,66,90,0
3,58,88,0
3,51,0,137
3,39,0,74
3,39,81,27
3,61,0,2
3,63,0,2
3,66,0,4
3,58,0,0
3,32,87,18
3,44,96,0
3,39,0,5
3,54,89,48
3,58,83,0
3,60,83,1
3,63,74,0
3,32,0,131
3,44,0,87
3,60,0,8
3,58,0,1
3,54,0,2
3,44,88,9
3,63,0,0
3,44,0,24
3,49,93,2
3,37,83,1
3,65,94,48
3,63,80,1
3,59,93,0
3,68,88,0
3,37,0,215
3,49,0,11
3,59,0,8
3,63,0,2
3,37,104,1
3,65,0,0
3,68,0,3
3,30,78,25
3,42,87,0
3,37,0,1
3,65,89,52
3,61,82,0
3,66,78,0
3,58,82,0
3,30,0,193
3,42,0,13
3,43,88,31
3,65,0,3
3,61,0,3
3,66,0,4
3,58,0,3
3,48,111,14
3,36,90,0
3,43,0,2
3,60,93,50
3,58,82,0
3,63,89,0
3,66,93,0
3,60,0,220
3,58,0,2
3,48,0,5
3,63,0,1
3,36,0,1
3,66,0,3
3,42,89,6
3,42,0,23
3,35,90,3
3,47,90,0
3,59,88,53
3,58,82,0
3,63,89,0
3,66,88,0
3,35,0,219
3,47,0,1
3,59,0,11
3,58,0,2
3,63,0,4
3,35,108,0
3,66,0,3
3,34,82,24
3,46,89,0
3,35,0,3
3,62,94,50
3,58,90,0
3,56,82,0
3,66,89,0
3,34,0,87
3,46,0,3
3,34,88,15
3,46,81,0
3,62,0,11
3,58,0,2
3,56,0,7
3,66,0,5
3,56,87,28
3,58,87,0
3,62,96,0
3,66,93,0
3,34,0,79
3,56,0,5
3,58,0,0
3,62,0,3
3,46,0,1
3,66,0,7
3,35,91,10
3,59,88,53
3,63,85,0
3,58,84,0
3,66,89,0
3,35,0,197
3,59,0,38
3,35,85,2
3,63,0,1
3,58,0,1
3,66,0,3
3,38,81,22
3,35,0,5
3,56,79,47
3,58,88,0
3,62,99,0
3,66,85,0
3,41,97,27
3,38,0,4
3,41,0,69
3,38,99,6
3,56,0,83
3,58,0,1
3,38,0,0
3,62,0,2
3,66,0,8
3,39,99,64
3,63,78,53
3,58,81,0
3,61,72,0
3,66,91,0
3,39,0,206
3,63,0,28
3,58,0,1
3,61,0,1
3,39,84,1
3,66,0,4
3,39,0,20
3,32,91,3
3,59,95,52
3,56,85,0
3,63,69,0
3,66,95,0
3,59,0,85
3,56,0,9
3,63,0,4
3,32,0,5
3,66,0,1
3,58,88,2
3,56,88,0
3,62,88,0
3,34,88,0
3,65,88,0
3,58,0,132
3,56,0,2
3,62,0,5
3,34,0,2
3,65,0,5
3,35,91,12
3,59,88,53
3,63,85,0
3,58,84,0
3,66,89,0
3,35,0,197
3,59,0,38
3,35,85,2
3,63,0,1
3,58,0,1
3,66,0,3
3,38,81,22
3,35,0,5
3,56,79,47
3,58,88,0
3,62,99,0
3,66,85,0
3,41,97,27
3,38,0,4
3,41,0,69
3,38,99,6
3,56,0,83
3,58,0,1
3,38,0,0
3,62,0,1
3,66,0,9
3,39,97,64
3,58,90,53
3,61,85,0
3,63,89,0
3,66,91,0
3,39,0,184
3,58,0,45
3,61,0,0
3,63,0,2
3,66,0,2
3,39,82,4
3,39,0,20
3,32,99,6
3,59,82,53
3,56,72,0
3,63,64,0
3,66,82,0
3,59,0,31
3,56,0,5
3,63,0,2
3,66,0,9
3,32,0,29
3,68,88,3
3,58,88,0
3,62,88,0
3,34,88,0
3,66,75,27
3,68,0,22
3,58,0,49
3,66,0,3
3,62,0,1
3,58,78,4
3,62,97,0
3,68,91,0
3,58,0,68
3,62,0,7
3,34,0,3
3,68,0,1
3,35,91,0
3,59,88,53
3,63,85,0
3,58,84,0
3,66,89,0
3,35,0,197
3,59,0,38
3,35,85,2
3,63,0,1
3,58,0,1
3,66,0,3
3,38,81,22
3,35,0,5
3,56,79,47
3,58,88,0
3,62,99,0
3,66,85,0
3,41,97,27
3,38,0,3
3,41,0,69
3,38,99,7
3,56,0,83
3,58,0,1
3,38,0,0
3,62,0,1
3,66,0,9
3,39,99,64
3,63,78,53
3,58,81,0
3,61,72,0
3,66,91,0
3,39,0,206
3,63,0,28
3,58,0,1
3,61,0,0
3,39,84,2
3,66,0,4
3,39,0,20
3,32,91,2
3,59,95,53
3,56,85,0
3,63,69,0
3,66,95,0
3,59,0,85
3,56,0,9
3,63,0,4
3,32,0,5
3,66,0,0
3,58,88,3
3,56,88,0
3,62,88,0
3,34,88,0
3,65,88,0
3,58,0,132
3,56,0,1
3,62,0,6
3,34,0,2
3,65,0,5
3,35,103,12
3,59,94,53
3,66,95,0
3,63,89,0
3,70,94,0
3,59,0,101
3,66,0,2
3,63,0,2
3,70,0,0
3,70,95,0
3,59,82,0
3,63,90,0
3,66,88,0
3,70,0,3
3,35,0,116
3,35,85,13
3,59,0,1
3,63,0,3
3,66,0,5
3,34,89,18
3,35,0,4
3,58,91,48
3,62,96,0
3,65,96,0
3,68,94,0
3,34,0,205
3,58,0,1
3,62,0,6
3,65,0,0
3,68,0,4
3,39,85,48
3,61,78,53
3,58,72,0
3,63,95,0
3,66,95,0
3,39,0,202
3,61,0,30
3,58,0,2
3,63,0,0
3,66,0,2
3,39,85,1
3,39,0,19
3,32,89,7
3,59,84,53
3,56,71,0
3,66,88,0
3,63,75,0
3,59,0,95
3,56,0,4
3,66,0,4
3,63,0,2
3,34,96,1
3,32,0,6
3,58,90,47
3,62,94,0
3,68,102,0
3,58,0,84
3,34,0,1
3,62,0,1
3,68,0,10
3,39,105,9
3,70,102,53
3,66,102,0
3,63,102,0
3,61,102,0
3,39,0,215
3,39,81,22
3,70,0,7
3,66,0,0
3,63,0,0
3,61,0,2
3,39,0,12
3,32,103,6
3,44,111,0
3,60,104,52
3,70,96,0
3,63,99,0
3,66,105,0
3,32,0,127
3,44,0,99
3,60,0,2
3,70,0,7
3,63,0,3
3,44,94,0
3,66,0,6
3,44,0,15
3,49,99,5
3,37,99,0
3,59,91,53
3,65,103,0
3,68,103,0
3,63,96,0
3,49,0,209
3,59,0,18
3,65,0,3
3,68,0,2
3,63,0,3
3,49,103,2
3,37,0,2
3,42,114,24
3,49,0,2
3,58,99,51
3,66,116,0
3,65,97,0
3,61,102,0
3,58,0,225
3,66,0,2
3,42,0,3
3,65,0,1
3,61,0,0
3,43,95,6
3,48,114,27
3,36,97,0
3,43,0,1
3,60,102,52
3,58,95,0
3,63,110,0
3,66,103,0
3,48,0,226
3,60,0,6
3,36,0,4
3,58,0,0
3,42,81,1
3,63,0,3
3,66,0,5
3,42,0,14
3,47,107,4
3,35,103,0
3,63,114,53
3,59,95,0
3,58,95,0
3,66,99,0
3,47,0,234
3,47,85,4
3,35,0,0
3,63,0,5
3,59,0,3
3,58,0,0
3,66,0,4
3,47,0,10
3,46,102,4
3,34,97,0
3,62,97,52
3,56,96,0
3,58,107,0
3,66,111,0
3,46,0,214
3,62,0,14
3,56,0,0
3,58,0,0
3,66,0,2
3,34,0,4
3,46,102,4
3,51,105,26
3,39,105,0
3,46,0,1
3,58,102,52
3,63,102,0
3,66,102,0
3,61,102,0
3,51,0,105
3,39,0,0
3,30,127,0
3,30,0,53
3,42,105,0
3,42,0,23
3,31,122,4
3,43,114,52
3,31,0,4
3,58,0,3
3,63,0,0
3,66,0,0
3,61,0,2
3,43,0,14
3,32,95,4
3,44,105,0
3,54,97,52
3,58,91,1
3,60,91,0
3,63,81,0
3,32,0,132
3,44,0,86
3,60,0,8
3,58,0,2
3,54,0,2
3,44,96,8
3,63,0,1
3,44,0,23
3,49,102,2
3,37,91,2
3,65,103,47
3,63,88,1
3,70,102,0
3,68,96,1
3,37,0,215
3,49,0,11
3,70,0,7
3,63,0,2
3,37,114,1
3,65,0,1
3,68,0,3
3,30,85,25
3,42,95,0
3,37,0,0
3,65,97,52
3,61,90,0
3,66,85,0
3,58,90,0
3,30,0,194
3,42,0,12
3,43,96,32
3,65,0,3
3,61,0,3
3,66,0,3
