track,note,velocity,time
1,63,63,132
1,66,69,0
1,61,50,3
1,51,56,4
1,70,76,150
1,70,0,145
1,66,0,0
1,63,0,0
1,51,0,0
1,61,0,13
1,68,57,0
1,53,32,0
1,65,66,0
1,63,61,0
1,71,64,158
1,68,0,119
1,63,0,26
1,53,0,0
1,65,0,0
1,71,0,0
1,54,60,14
1,68,60,1
1,64,60,0
1,63,64,0
1,63,0,157
1,64,0,0
1,68,0,0
1,70,62,0
1,61,63,1
1,66,63,0
1,66,0,144
1,61,0,0
1,54,0,0
1,63,66,12
1,61,66,0
1,70,0,1
1,47,52,0
1,66,64,0
1,35,52,0
1,59,63,158
1,59,0,145
1,61,0,0
1,63,0,0
1,47,0,0
1,35,0,0
1,66,0,13
1,36,63,0
1,60,73,0
1,63,67,1
1,58,52,1
1,54,60,1
1,48,63,4
1,63,0,310
1,36,0,0
1,60,0,0
1,35,60,0
1,58,0,1
1,54,0,1
1,66,67,2
1,63,66,1
1,58,51,0
1,54,61,1
1,48,0,1
1,47,60,0
1,34,56,302
1,56,47,1
1,46,56,5
1,35,0,1
1,66,0,4
1,63,0,1
1,58,0,1
1,54,0,1
1,47,0,0
1,58,47,6
1,62,66,17
1,66,76,13
1,46,90,1197
1,62,0,7
1,46,0,13
1,56,0,6
1,58,0,0
1,34,0,0
1,46,0,0
1,66,0,0
1,39,108,0
1,58,104,53
1,66,104,0
1,63,104,0
1,61,104,0
1,39,0,215
1,39,86,23
1,63,0,6
1,58,0,0
1,66,0,0
1,61,0,2
1,39,0,12
1,32,105,6
1,44,112,0
1,60,106,52
1,56,100,0
1,63,102,0
1,66,108,0
1,32,0,127
1,44,0,99
1,60,0,2
1,56,0,7
1,63,0,3
1,44,97,0
1,66,0,6
1,44,0,15
1,49,111,5
1,37,111,0
1,59,95,53
1,65,105,0
1,68,105,0
1,63,100,0
1,49,0,209
1,59,0,19
1,65,0,3
1,68,0,2
1,63,0,2
1,49,105,2
1,37,0,2
1,42,116,25
1,49,0,1
1,58,102,52
1,66,106,0
1,65,112,0
1,61,104,0
1,58,0,224
1,66,0,2
1,42,0,4
1,65,0,0
1,61,0,0
1,43,98,7
1,48,116,26
1,36,101,0
1,43,0,1
1,60,104,52
1,58,98,0
1,63,95,0
1,66,105,0
1,48,0,226
1,60,0,6
1,36,0,4
1,58,0,1
1,42,86,0
1,63,0,3
1,66,0,5
1,42,0,14
1,47,110,5
1,35,105,0
1,63,104,52
1,59,98,0
1,58,98,0
1,66,102,0
1,47,0,238
1,42,89,0
1,35,0,1
1,63,0,4
1,58,0,3
1,59,0,0
1,66,0,5
1,42,0,4
1,46,104,9
1,34,101,0
1,62,112,53
1,56,100,0
1,58,100,0
1,66,101,0
1,46,0,213
1,62,0,14
1,56,0,1
1,58,0,0
1,66,0,2
1,34,0,4
1,46,104,3
1,39,96,27
1,46,0,1
1,58,93,52
1,66,93,0
1,63,93,0
1,61,93,0
1,39,0,214
1,39,74,23
1,63,0,7
1,58,0,0
1,66,0,0
1,61,0,2
1,39,0,11
1,32,94,6
1,44,101,0
1,60,95,53
1,56,88,0
1,63,90,0
1,66,96,0
1,32,0,127
1,44,0,98
1,60,0,3
1,56,0,6
1,44,86,3
1,63,0,1
1,66,0,6
1,44,0,14
1,49,100,6
1,37,100,0
1,59,83,52
1,65,94,0
1,68,94,0
1,63,88,0
1,49,0,210
1,59,0,18
1,65,0,3
1,68,0,2
1,63,0,3
1,49,94,2
1,37,0,2
1,42,104,24
1,49,0,2
1,58,90,51
1,66,95,0
1,65,101,0
1,61,93,0
1,58,0,225
1,66,0,2
1,42,0,3
1,65,0,0
1,61,0,1
1,43,87,6
1,48,104,27
1,36,89,0
1,43,0,1
1,60,93,51
1,58,87,0
1,63,83,0
1,66,94,0
1,48,0,227
1,60,0,6
1,58,0,4
1,36,0,0
1,42,74,1
1,63,0,3
1,66,0,4
1,42,0,14
1,47,98,5
1,35,94,0
1,63,93,53
1,59,87,0
1,58,87,0
1,66,90,0
1,47,0,232
1,47,78,5
1,35,0,1
1,63,0,4
1,59,0,3
1,58,0,1
1,66,0,4
1,47,0,9
1,46,93,5
1,34,89,0
1,62,101,52
1,56,88,0
1,58,88,0
1,66,89,0
1,46,0,213
1,58,0,15
1,56,0,0
1,62,0,0
1,66,0,2
1,34,0,4
1,46,93,4
1,51,96,26
1,39,96,0
1,46,0,1
1,58,93,52
1,63,93,0
1,66,93,0
1,61,93,0
1,39,0,215
1,51,0,0
1,46,74,22
1,66,0,7
1,63,0,0
1,58,0,0
1,61,0,2
1,46,0,11
1,39,96,6
1,70,93,53
1,66,93,0
1,63,93,0
1,61,93,0
1,39,0,215
1,39,74,23
1,70,0,6
1,63,0,1
1,66,0,0
1,61,0,2
1,39,0,11
1,32,94,6
1,44,101,0
1,60,95,53
1,70,88,0
1,63,90,0
1,66,96,0
1,32,0,126
1,44,0,99
1,60,0,3
1,70,0,6
1,63,0,3
1,44,86,0
1,66,0,7
1,44,0,14
1,49,90,6
1,37,90,0
1,59,83,52
1,65,94,0
1,68,94,0
1,63,88,0
1,49,0,210
1,59,0,18
1,65,0,3
1,68,0,2
1,63,0,3
1,49,94,2
1,37,0,2
1,42,104,24
1,49,0,2
1,58,90,51
1,66,106,0
1,65,89,0
1,61,93,0
1,58,0,225
1,66,0,2
1,42,0,3
1,65,0,0
1,61,0,1
1,43,87,6
1,48,104,26
1,36,89,0
1,43,0,2
1,60,93,51
1,58,87,0
1,63,100,0
1,54,94,0
1,48,0,226
1,60,0,7
1,36,0,3
1,58,0,1
1,42,74,1
1,63,0,3
1,54,0,4
1,42,0,14
1,47,98,5
1,35,94,0
1,63,104,53
1,59,87,0
1,58,87,0
1,54,90,0
1,47,0,236
1,47,78,1
1,35,0,1
1,63,0,4
1,59,0,3
1,58,0,1
1,54,0,4
1,47,0,6
1,46,93,8
1,34,89,0
1,62,89,52
1,56,88,0
1,58,98,0
1,66,101,0
1,46,0,213
1,58,0,15
1,56,0,0
1,62,0,0
1,66,0,2
1,34,0,4
1,46,93,4
1,51,96,26
1,39,96,0
1,46,0,1
1,58,93,52
1,63,93,0
1,66,93,0
1,61,93,0
1,39,0,105
1,51,0,0
1,30,117,0
1,30,0,53
1,42,96,0
1,42,0,22
1,31,111,4
1,43,104,53
1,31,0,3
1,66,0,4
1,63,0,0
1,58,0,0
1,61,0,2
1,43,0,13
1,32,87,4
1,44,96,0
1,54,89,53
1,58,83,0
1,60,83,1
1,63,74,0
1,32,0,131
1,44,0,87
1,60,0,8
1,58,0,1
1,54,0,2
1,44,88,9
1,63,0,1
1,44,0,23
1,49,93,2
1,37,83,1
1,65,94,48
1,63,80,1
1,59,93,0
1,68,88,1
1,37,0,214
1,49,0,12
1,59,0,7
1,63,0,2
1,65,0,1
1,37,104,0
1,68,0,4
1,30,78,24
1,42,87,0
1,37,0,1
1,65,89,52
1,61,82,0
1,66,78,0
1,58,82,0
1,30,0,194
1,42,0,12
1,43,88,32
1,65,0,2
1,61,0,3
1,66,0,4
1,58,0,4
1,36,89,13
1,48,101,0
1,43,0,2
1,60,83,51
1,63,82,0
1,58,81,0
1,66,82,0
1,36,0,197
1,48,0,23
1,60,0,10
1,36,82,7
1,63,0,3
1,66,0,1
1,58,0,0
1,36,0,12
1,35,90,10
1,47,90,0
1,59,88,53
1,58,82,0
1,63,89,0
1,66,88,0
1,35,0,219
1,47,0,1
1,59,0,12
1,58,0,1
1,63,0,4
1,35,108,0
1,66,0,3
1,34,87,24
1,46,95,0
1,35,0,3
1,58,86,50
1,62,86,0
1,56,75,0
1,66,88,0
1,34,0,180
1,46,0,42
1,58,0,10
1,62,0,2
1,46,89,3
1,56,0,1
1,66,0,3
1,46,0,22
1,39,83,0
1,51,111,0
1,58,88,53
1,61,90,0
1,63,90,0
1,66,93,0
1,39,0,209
1,51,0,9
1,58,0,5
1,61,0,1
1,63,0,3
1,66,0,3
1,46,94,8
1,51,87,26
1,39,89,0
1,46,0,2
1,61,87,50
1,63,87,0
1,66,90,0
1,58,88,0
1,51,0,137
1,39,0,74
1,39,81,27
1,61,0,2
1,63,0,2
1,58,0,4
1,66,0,0
1,32,87,18
1,44,96,0
1,39,0,5
1,54,89,48
1,58,83,0
1,60,83,1
1,63,74,0
1,32,0,131
1,44,0,87
1,60,0,8
1,58,0,1
1,54,0,2
1,63,0,9
1,44,88,0
1,44,0,24
1,49,93,2
1,37,83,1
1,65,94,48
1,63,80,1
1,59,93,0
1,68,88,0
1,37,0,215
1,49,0,11
1,59,0,8
1,63,0,2
1,65,0,1
1,37,104,0
1,68,0,3
1,30,78,25
1,42,87,0
1,37,0,1
1,65,89,52
1,61,82,0
1,66,78,0
1,58,82,0
1,30,0,193
1,42,0,13
1,43,88,31
1,65,0,3
1,61,0,3
1,66,0,4
1,58,0,3
1,48,111,14
1,36,90,0
1,43,0,2
1,60,93,50
1,58,82,0
1,63,89,0
1,66,93,0
1,60,0,220
1,58,0,2
1,48,0,5
1,63,0,1
1,36,0,1
1,66,0,3
1,42,89,6
1,42,0,23
1,35,90,3
1,47,90,0
1,59,88,53
1,58,82,0
1,63,89,0
1,66,88,0
1,35,0,219
1,47,0,1
1,59,0,11
1,58,0,2
1,63,0,4
1,35,108,0
1,66,0,3
1,34,82,24
1,46,89,0
1,35,0,3
1,62,94,50
1,58,90,0
1,56,82,0
1,66,89,0
1,34,0,87
1,46,0,3
1,34,88,15
1,46,81,0
1,62,0,11
1,58,0,2
1,56,0,7
1,66,0,5
1,56,87,28
1,58,87,0
1,62,96,0
1,66,93,0
1,34,0,79
1,58,0,5
1,56,0,0
1,62,0,3
1,46,0,1
1,66,0,7
1,35,91,10
1,59,88,53
1,63,85,0
1,58,84,0
1,66,89,0
1,35,0,197
1,59,0,38
1,35,85,2
1,63,0,1
1,58,0,1
1,66,0,3
1,38,81,22
1,35,0,5
1,56,79,47
1,58,88,0
1,62,99,0
1,66,85,0
1,41,97,27
1,38,0,4
1,41,0,69
1,38,99,6
1,56,0,83
1,38,0,1
1,58,0,0
1,62,0,2
1,66,0,8
1,39,99,64
1,63,78,53
1,58,81,0
1,61,72,0
1,66,91,0
1,39,0,206
1,63,0,28
1,58,0,1
1,61,0,1
1,39,84,1
1,66,0,4
1,39,0,20
1,32,91,3
1,59,95,52
1,56,85,0
1,63,69,0
1,66,95,0
1,59,0,85
1,56,0,9
1,63,0,4
1,32,0,5
1,66,0,1
1,58,88,2
1,56,88,0
1,62,88,0
1,34,88,0
1,65,88,0
1,58,0,132
1,56,0,2
1,62,0,5
1,34,0,2
1,65,0,5
1,35,91,12
1,59,88,53
1,63,85,0
1,58,84,0
1,66,89,0
1,35,0,197
1,59,0,38
1,35,85,2
1,63,0,1
1,58,0,1
1,66,0,3
1,38,81,22
1,35,0,5
1,56,79,47
1,58,88,0
1,62,99,0
1,66,85,0
1,41,97,27
1,38,0,4
1,41,0,69
1,38,99,6
1,56,0,83
1,38,0,1
1,58,0,0
1,62,0,1
1,66,0,9
1,39,97,64
1,58,90,53
1,61,85,0
1,63,89,0
1,66,91,0
1,39,0,184
1,58,0,45
1,61,0,0
1,63,0,2
1,66,0,2
1,39,82,4
1,39,0,20
1,32,99,6
1,59,82,53
1,56,72,0
1,63,64,0
1,66,82,0
1,59,0,31
1,56,0,5
1,63,0,2
1,66,0,9
1,32,0,29
1,68,88,3
1,58,88,0
1,62,88,0
1,34,88,0
1,66,75,27
1,68,0,22
1,58,0,49
1,66,0,3
1,62,0,1
1,58,78,4
1,62,97,0
1,68,91,0
1,58,0,68
1,62,0,7
1,34,0,3
1,68,0,1
1,35,91,0
1,59,88,53
1,63,85,0
1,58,84,0
1,66,89,0
1,35,0,197
1,59,0,38
1,35,85,2
1,63,0,1
1,58,0,1
1,66,0,3
1,38,81,22
1,35,0,5
1,56,79,47
1,58,88,0
1,62,99,0
1,66,85,0
1,41,97,27
1,38,0,3
1,41,0,69
1,38,99,7
1,56,0,83
1,38,0,1
1,58,0,0
1,62,0,1
1,66,0,9
1,39,99,64
1,63,78,53
1,58,81,0
1,61,72,0
1,66,91,0
1,39,0,206
1,63,0,28
1,61,0,1
1,58,0,0
1,39,84,2
1,66,0,4
1,39,0,20
1,32,91,2
1,59,95,53
1,56,85,0
1,63,69,0
1,66,95,0
1,59,0,85
1,56,0,9
1,63,0,4
1,66,0,5
1,32,0,0
1,58,88,3
1,56,88,0
1,62,88,0
1,34,88,0
1,65,88,0
1,58,0,132
1,56,0,1
1,62,0,6
1,34,0,2
1,65,0,5
1,35,103,12
1,59,94,53
1,66,95,0
1,63,89,0
1,70,94,0
1,59,0,101
1,66,0,2
1,70,0,2
1,63,0,0
1,70,95,0
1,59,82,0
1,63,90,0
1,66,88,0
1,70,0,3
1,35,0,116
1,35,85,13
1,59,0,1
1,63,0,3
1,66,0,5
1,34,89,18
1,35,0,4
1,58,91,48
1,62,96,0
1,65,96,0
1,68,94,0
1,34,0,205
1,58,0,1
1,65,0,6
1,62,0,0
1,68,0,4
1,39,85,48
1,61,78,53
1,58,72,0
1,63,95,0
1,66,95,0
1,39,0,202
1,61,0,30
1,63,0,2
1,58,0,0
1,66,0,2
1,39,85,1
1,39,0,19
1,32,89,7
1,59,84,53
1,56,71,0
1,66,88,0
1,63,75,0
1,59,0,95
1,56,0,4
1,66,0,4
1,63,0,2
1,34,96,1
1,32,0,6
1,58,90,47
1,62,94,0
1,68,102,0
1,58,0,84
1,34,0,1
1,62,0,1
1,68,0,10
1,39,105,9
1,70,102,53
1,66,102,0
1,63,102,0
1,61,102,0
1,39,0,215
1,39,81,22
1,63,0,7
1,70,0,0
1,66,0,0
1,61,0,2
1,39,0,12
1,32,103,6
1,44,111,0
1,60,104,52
1,70,96,0
1,63,99,0
1,66,105,0
1,32,0,127
1,44,0,99
1,60,0,2
1,70,0,7
1,63,0,3
1,44,94,0
1,66,0,6
1,44,0,15
1,49,99,5
1,37,99,0
1,59,91,53
1,65,103,0
1,68,103,0
1,63,96,0
1,49,0,209
1,59,0,18
1,65,0,3
1,68,0,2
1,63,0,3
1,49,103,2
1,37,0,2
1,42,114,24
1,49,0,2
1,58,99,51
1,66,116,0
1,65,97,0
1,61,102,0
1,58,0,225
1,66,0,2
1,42,0,3
1,61,0,1
1,65,0,0
1,43,95,6
1,48,114,27
1,36,97,0
1,43,0,1
1,60,102,52
1,58,95,0
1,63,110,0
1,66,103,0
1,48,0,226
1,60,0,6
1,58,0,4
1,36,0,0
1,42,81,1
1,63,0,3
1,66,0,5
1,42,0,14
1,47,107,4
1,35,103,0
1,63,114,53
1,59,95,0
1,58,95,0
1,66,99,0
1,47,0,234
1,35,0,4
1,47,85,0
1,63,0,5
1,59,0,3
1,58,0,0
1,66,0,4
1,47,0,10
1,46,102,4
1,34,97,0
1,62,97,52
1,56,96,0
1,58,107,0
1,66,111,0
1,46,0,214
1,58,0,14
1,56,0,0
1,62,0,0
1,66,0,2
1,34,0,4
1,46,102,4
1,51,105,26
1,39,105,0
1,46,0,1
1,58,102,52
1,63,102,0
1,66,102,0
1,61,102,0
1,39,0,105
1,51,0,0
1,30,127,0
1,30,0,53
1,42,105,0
1,42,0,23
1,31,122,4
1,43,114,52
1,31,0,4
1,66,0,3
1,63,0,0
1,58,0,0
1,61,0,2
1,43,0,14
1,32,95,4
1,44,105,0
1,54,97,52
1,58,91,1
1,60,91,0
1,63,81,0
1,32,0,132
1,44,0,86
1,60,0,8
1,58,0,2
1,54,0,2
1,44,96,8
1,63,0,1
1,44,0,23
1,49,102,2
1,37,91,2
1,65,103,47
1,63,88,1
1,70,102,0
1,68,96,1
1,37,0,215
1,49,0,11
1,70,0,7
1,63,0,2
1,37,114,1
1,65,0,1
1,68,0,3
1,37,0,25
1,30,85,0
1,42,95,0
1,65,97,52
1,61,90,0
1,66,85,0
1,58,90,0
1,30,0,194
1,42,0,12
1,43,96,32
1,65,0,3
1,61,0,3
1,66,0,3
