track,note,velocity,time
1,34,80,13446
1,36,101,62
1,34,76,38
1,29,84,280
1,31,72,2
1,36,94,94
1,36,94,188
1,34,80,0
1,29,77,76
1,31,72,2
1,36,97,100
1,31,86,536
1,30,71,2
1,29,75,2
1,31,88,244
1,33,60,98
1,34,88,64
1,36,80,2
1,39,80,82
1,29,81,178
1,31,86,380
1,34,92,136
1,36,77,2
1,39,84,74
1,36,88,546
1,35,72,26
1,34,60,2
1,41,72,122
1,46,80,136
1,46,80,220
1,41,76,156
1,34,73,102
1,33,60,114
1,33,80,54
1,32,80,2
1,39,73,54
1,44,76,58
1,38,48,194
1,43,76,68
1,38,72,98
1,31,72,108
1,31,79,104
1,34,71,4
1,36,92,94
1,34,88,260
1,28,44,194
1,29,84,70
1,31,72,2
1,36,94,94
1,36,94,188
1,34,80,0
1,29,77,76
1,31,72,2
1,36,97,100
1,31,86,576
1,30,71,2
1,29,75,2
1,31,88,244
1,33,60,98
1,34,88,64
1,36,80,2
1,39,80,82
1,29,81,178
1,31,86,380
1,34,92,136
1,36,77,2
1,39,84,74
1,36,88,546
1,35,72,42
1,34,60,2
1,41,72,122
1,46,80,136
1,46,80,220
1,41,76,156
1,34,73,102
1,33,60,114
1,33,80,54
1,32,80,2
1,39,73,54
1,44,76,58
1,38,68,194
1,43,76,68
1,38,72,98
1,31,72,74
1,31,79,104
1,34,71,4
1,36,80,86
1,34,76,206
1,29,84,280
1,31,72,2
1,36,94,94
1,36,94,188
1,34,80,0
1,29,77,76
1,31,72,2
1,36,97,100
1,31,86,536
1,30,71,2
1,29,75,2
1,31,88,244
1,33,60,98
1,34,88,64
1,36,80,2
1,39,80,82
1,29,81,178
1,31,86,380
1,34,92,136
1,36,77,2
1,39,84,74
1,36,88,546
1,35,72,2
1,34,60,2
1,41,72,122
1,46,80,136
1,46,80,220
1,41,76,156
1,34,73,102
1,33,60,114
1,33,80,54
1,32,80,2
1,39,73,54
1,44,76,58
1,38,48,194
1,43,76,68
1,38,72,98
1,31,72,74
1,31,79,104
1,34,71,4
1,36,92,94
1,34,88,260
1,28,44,194
1,29,84,70
1,31,72,2
1,36,94,94
1,36,94,188
1,34,80,0
1,29,77,76
1,31,72,2
1,36,97,100
1,31,86,576
1,30,71,2
1,29,75,2
1,31,88,244
1,33,60,98
1,34,88,64
1,36,80,2
1,39,80,82
1,29,81,178
1,31,86,380
1,34,92,136
1,36,77,2
1,39,84,74
1,36,88,546
1,35,72,2
1,34,60,2
1,41,72,122
1,46,80,136
1,46,80,220
1,41,76,156
1,34,73,102
1,33,60,114
1,33,80,54
1,32,80,2
1,39,73,54
1,44,76,58
1,38,48,194
1,43,76,68
1,38,72,98
1,34,56,32
1,35,52,16
1,39,84,30
1,38,76,28
1,37,76,10
1,36,68,16
1,35,68,2
1,34,60,10
1,33,52,10
1,32,44,2
1,31,44,6
1,30,32,10
1,29,24,2
1,36,85,84
1,43,88,20
1,48,74,30
1,43,61,44
1,33,57,60
1,37,73,80
1,44,77,22
1,49,88,20
1,39,68,12
1,42,77,0
1,39,62,26
1,44,77,90
1,39,68,192
1,42,68,92
1,44,68,92
1,46,68,8
1,44,77,92
1,46,57,20
1,49,73,6
1,36,85,68
1,43,88,14
1,48,74,44
1,43,61,40
1,33,57,64
1,37,73,72
1,44,77,22
1,49,88,20
1,44,68,14
1,44,72,38
1,44,68,14
1,44,91,28
1,39,68,94
1,32,71,84
1,44,87,74
1,39,68,98
1,46,84,140
1,41,80,102
1,34,71,86
1,39,80,0
1,36,85,32
1,43,88,20
1,48,74,30
1,43,61,44
1,33,57,60
1,37,73,80
1,44,77,22
1,49,88,20
1,39,68,12
1,42,77,0
1,39,62,26
1,44,77,90
1,39,68,192
1,42,68,92
1,44,68,92
1,46,68,8
1,44,77,92
1,46,57,20
1,49,73,6
1,36,85,68
1,43,88,14
1,48,74,44
1,43,61,40
1,33,57,64
1,37,73,72
1,44,77,22
1,49,88,20
1,44,68,14
1,44,72,38
1,44,68,14
1,44,91,28
1,39,68,94
1,32,71,84
1,44,87,74
1,39,68,98
1,46,84,140
1,41,80,102
1,34,71,86
1,39,80,0
1,36,101,32
1,34,76,278
1,29,84,280
1,31,72,2
1,36,94,94
1,36,94,188
1,34,80,0
1,29,77,76
1,31,72,2
1,36,97,100
1,31,86,536
1,30,71,2
1,29,75,2
1,31,88,244
1,33,60,98
1,34,88,64
1,36,80,2
1,39,80,82
1,29,81,178
1,31,86,380
1,34,92,136
1,36,77,2
1,39,84,74
1,36,88,546
1,35,72,26
1,34,60,2
1,41,72,122
1,46,80,136
1,46,80,220
1,41,76,156
1,34,73,102
1,33,60,114
1,33,80,54
1,32,80,2
1,39,73,54
1,44,76,58
1,38,48,194
1,43,76,68
1,38,72,98
1,31,72,108
1,31,79,104
1,34,71,4
1,36,92,94
1,34,88,260
1,28,44,194
1,29,84,70
1,31,72,2
1,36,94,94
1,36,94,188
1,34,80,0
1,29,77,76
1,31,72,2
1,36,97,100
1,31,86,576
1,30,71,2
1,29,75,2
1,31,88,244
1,33,60,98
1,34,88,64
1,36,80,2
1,39,80,82
1,29,81,178
1,31,86,380
1,34,92,136
1,36,77,2
1,39,84,74
1,36,88,546
1,35,72,42
1,34,60,2
1,41,72,122
1,46,80,136
1,46,80,220
1,41,76,156
1,34,73,102
1,33,60,114
1,33,80,54
1,32,80,2
1,39,73,54
1,44,76,58
1,38,68,194
1,43,76,68
1,38,72,98
1,31,72,74
1,31,79,104
1,34,71,4
1,36,80,86
1,34,76,206
1,29,84,280
1,31,72,2
1,36,94,94
1,36,94,188
1,34,80,0
1,29,77,76
1,31,72,2
1,36,97,100
1,31,86,536
1,30,71,2
1,29,75,2
1,31,88,244
1,33,60,98
1,34,88,64
1,36,80,2
1,39,80,82
1,29,81,178
1,31,86,380
1,34,92,136
1,36,77,2
1,39,84,74
1,36,88,546
1,35,72,2
1,34,60,2
1,41,72,122
1,46,80,136
1,46,80,220
1,41,76,156
1,34,73,102
1,33,60,114
1,33,80,54
1,32,80,2
1,39,73,54
1,44,76,58
1,38,48,194
1,43,76,68
1,38,72,98
1,31,72,74
1,31,79,104
1,34,71,4
1,36,92,94
1,34,88,260
1,28,44,194
1,29,84,70
1,31,72,2
1,36,94,94
1,36,94,188
1,34,80,0
1,29,77,76
1,31,72,2
1,36,97,100
1,31,86,576
1,30,71,2
1,29,75,2
1,31,88,244
1,33,60,98
1,34,88,64
1,36,80,2
1,39,80,82
1,29,81,178
1,31,86,380
1,34,92,136
1,36,77,2
1,39,84,74
1,36,88,546
1,35,72,2
1,34,60,2
1,41,72,122
1,46,80,136
1,46,80,220
1,41,76,156
1,34,73,102
1,33,60,114
1,33,80,54
1,32,80,2
1,39,73,54
1,44,76,58
1,38,48,194
1,43,76,68
1,38,72,98
1,34,56,32
1,35,52,16
1,39,84,30
1,38,76,28
1,37,76,10
1,36,68,16
1,35,68,2
1,34,60,10
1,33,52,10
1,32,44,2
1,31,44,6
1,30,32,10
1,29,24,2
1,36,85,84
1,43,88,20
1,48,74,30
1,43,61,44
1,33,57,60
1,37,73,80
1,44,77,22
1,49,88,20
1,39,68,12
1,42,77,0
1,39,62,26
1,44,77,90
1,39,68,192
1,42,68,92
1,44,68,92
1,46,68,8
1,44,77,92
1,46,57,20
1,49,73,6
1,36,85,68
1,43,88,14
1,48,74,44
1,43,61,40
1,33,57,64
1,37,73,72
1,44,77,22
1,49,88,20
1,44,68,14
1,44,72,38
1,44,68,14
1,44,91,28
1,39,68,94
1,32,71,84
1,44,87,74
1,39,68,98
1,46,84,140
1,41,80,102
1,34,71,86
1,39,80,4
1,36,85,32
1,43,88,20
1,48,74,30
1,43,61,44
1,33,57,60
1,37,73,80
1,44,77,22
1,49,88,20
1,39,68,12
1,42,77,0
1,39,62,26
1,44,77,90
1,39,68,192
1,42,68,92
1,44,68,92
1,46,68,8
1,44,77,92
1,46,57,20
1,49,73,6
1,36,85,68
1,43,88,14
1,48,74,44
1,43,61,40
1,33,57,64
1,37,73,72
1,44,77,22
1,49,88,20
1,44,68,14
1,44,72,38
1,44,68,14
1,44,91,28
1,39,68,94
1,32,71,84
1,44,87,74
1,39,68,98
1,46,84,140
1,41,80,102
1,34,71,86
1,39,80,4
1,36,85,8
1,43,88,20
1,48,74,30
1,43,61,44
1,33,57,60
1,37,73,80
1,44,77,22
1,49,88,20
1,39,68,12
1,42,77,0
1,39,62,26
1,44,77,90
1,39,68,192
1,42,68,92
1,44,68,92
1,46,68,8
1,44,77,92
1,46,57,20
1,49,73,6
1,36,85,68
1,43,88,14
1,48,74,44
1,43,61,40
1,33,57,64
1,37,73,72
1,44,77,22
1,49,88,20
1,44,68,14
1,44,72,38
1,44,68,14
1,44,91,28
1,39,68,94
1,32,71,84
1,44,87,74
1,39,68,98
1,46,84,140
1,41,80,102
1,34,71,86
1,39,80,4
1,36,85,32
1,43,88,20
1,48,74,30
1,43,61,44
1,33,57,60
1,37,73,80
1,44,77,22
1,49,88,20
1,39,68,12
1,42,77,0
1,39,62,26
1,44,77,90
1,39,68,192
1,42,68,92
1,44,68,92
1,46,68,8
1,44,77,92
1,46,76,20
1,49,88,6
1,36,85,84
1,43,88,14
1,48,74,44
1,43,61,40
1,33,57,64
1,37,73,72
1,44,77,22
1,49,88,20
1,44,68,14
1,44,72,38
1,44,68,14
1,44,91,28
1,39,68,94
1,32,71,84
1,44,87,74
1,39,68,98
1,46,84,140
1,41,80,102
1,34,71,86
1,39,72,4
1,38,72,20
1,37,82,10
1,36,72,16
1,35,72,2
1,34,66,10
1,33,57,10
1,32,47,2
1,31,47,6
1,30,34,10
1,29,25,2
1,36,101,16
1,34,76,302
1,29,84,280
1,31,72,2
1,36,94,94
1,36,94,188
1,34,80,0
1,29,77,76
1,31,72,2
1,36,97,100
1,31,86,536
1,30,71,2
1,29,75,2
1,31,88,244
1,33,60,98
1,34,88,64
1,36,80,2
1,39,80,82
1,29,81,178
1,31,86,380
1,34,92,136
1,36,77,2
1,39,84,74
1,36,88,546
1,35,72,26
1,34,60,2
1,41,72,122
1,46,80,136
1,46,80,220
1,41,76,156
1,34,73,102
1,33,60,114
1,33,80,54
1,32,80,2
1,39,73,54
1,44,76,58
1,38,48,194
1,43,76,68
1,38,72,98
1,31,72,108
1,31,79,104
1,34,71,4
1,36,92,94
1,34,88,260
1,28,44,194
1,29,84,70
1,31,72,2
1,36,94,94
1,36,94,188
1,34,80,0
1,29,77,76
1,31,72,2
1,36,97,100
1,31,86,576
1,30,71,2
1,29,75,2
1,31,88,244
1,33,60,98
1,34,88,64
1,36,80,2
1,39,80,82
1,29,81,178
1,31,86,380
1,34,92,136
1,36,77,2
1,39,84,74
1,36,88,546
1,35,72,42
1,34,60,2
1,41,72,122
1,46,80,136
1,38,68,224
1,46,80,70
1,41,76,12
1,34,73,102
1,33,80,206
1,40,73,398
1,45,76,58
1,34,77,288
1,46,77,34
1,35,77,146
1,47,77,26
1,36,91,146
1,48,127,38
1,49,127,276
1,44,104,288
1,37,100,48
1,39,96,44
1,32,95,12
1,32,91,112
1,32,100,136
1,34,100,132
1,41,108,278
1,34,104,96
1,36,113,212
1,48,127,42
1,49,127,274
1,44,110,272
1,37,104,62
1,39,104,48
1,32,91,14
1,32,83,106
1,32,91,114
1,34,104,118
1,41,96,260
1,34,100,98
1,36,88,228
1,48,127,24
1,49,127,298
1,44,110,300
1,37,80,58
1,39,104,54
1,32,76,38
1,32,91,118
1,32,80,110
1,34,95,102
1,41,84,286
1,34,95,94
1,36,101,262
1,48,127,52
1,49,127,268
1,44,110,286
1,37,95,40
1,39,110,52
1,32,83,40
1,32,68,108
1,32,83,124
1,46,100,70
1,41,96,118
1,34,95,106
1,39,80,0
1,36,88,32
1,43,88,20
1,48,74,30
1,43,61,44
1,33,57,60
1,37,73,80
1,44,77,22
1,49,88,20
1,39,68,12
1,42,77,0
1,39,62,26
1,44,77,90
1,39,68,192
1,42,68,92
1,44,68,92
1,46,68,8
1,44,77,92
1,46,57,20
1,49,73,6
1,36,85,68
1,43,88,14
1,48,74,44
1,43,61,40
1,33,57,64
1,37,73,72
1,44,77,22
1,49,88,20
1,44,68,14
1,44,72,38
1,44,68,14
1,44,91,28
1,39,68,94
1,32,71,84
1,44,87,74
1,39,68,98
1,46,84,140
1,41,80,102
1,34,71,86
1,39,80,4
1,36,85,32
1,43,88,20
1,48,74,30
1,43,61,44
1,33,57,60
1,37,73,80
1,44,77,22
1,49,88,20
1,39,68,12
1,42,77,0
1,39,62,26
1,44,77,90
1,39,68,192
1,42,68,92
1,44,68,92
1,46,68,8
1,44,77,92
1,46,57,20
1,49,73,6
1,36,85,68
1,43,88,14
1,48,74,44
1,43,61,40
1,33,57,64
1,37,73,72
1,44,77,22
1,49,88,20
1,44,68,14
1,44,72,38
1,44,68,14
1,44,91,28
1,39,68,94
1,32,71,84
1,44,87,74
1,39,68,98
1,46,84,140
1,41,80,102
1,34,71,86
1,39,80,0
1,36,101,32
1,34,76,278
1,29,84,280
1,31,72,2
1,36,94,94
1,36,94,188
1,34,80,0
1,29,77,76
1,31,72,2
1,36,97,100
1,31,86,536
1,30,71,2
1,29,75,2
1,31,88,244
1,33,60,98
1,34,88,64
1,36,80,2
1,39,80,82
1,29,81,178
1,31,86,380
1,34,92,136
1,36,77,2
1,39,84,74
1,36,88,546
1,35,72,26
1,34,60,2
1,41,72,122
1,46,80,136
1,46,80,220
1,41,76,156
1,34,73,102
1,33,60,114
1,33,80,54
1,32,80,2
1,39,73,54
1,44,76,58
1,38,48,194
1,43,76,68
1,38,72,98
1,31,72,108
1,31,79,104
1,34,71,4
1,36,92,94
1,34,88,260
1,28,44,194
1,29,84,70
1,31,72,2
1,36,94,94
1,36,94,188
1,34,80,0
1,29,77,76
1,31,72,2
1,36,97,100
1,31,86,576
1,30,71,2
1,29,75,2
1,31,88,244
1,33,60,98
1,34,88,64
1,36,80,2
1,39,80,82
1,29,81,178
1,31,86,380
1,34,92,136
1,36,77,2
1,39,84,74
1,36,88,546
1,35,72,42
1,34,60,2
1,41,72,122
1,46,80,136
1,46,80,220
1,41,76,156
1,34,73,102
1,33,60,114
1,33,80,54
1,32,80,2
1,39,73,54
1,44,76,58
1,38,68,194
1,43,76,68
1,38,72,98
1,31,72,74
1,31,79,104
1,34,71,4
1,36,80,86
1,34,76,206
1,29,84,280
1,31,72,2
1,36,94,94
1,36,94,188
1,34,80,0
1,29,77,76
1,31,72,2
1,36,97,100
1,29,86,530
1,30,71,8
1,31,75,6
1,34,88,230
1,33,60,108
1,34,88,64
1,36,80,2
1,39,80,82
1,29,81,178
1,31,86,380
1,34,92,136
1,36,77,2
1,39,84,74
1,36,88,546
1,35,72,2
1,34,60,2
1,41,72,122
1,46,80,136
1,46,80,220
1,41,76,156
1,34,73,102
1,33,60,114
1,33,80,54
1,32,80,2
1,39,73,54
1,44,76,58
1,38,48,194
1,43,76,68
1,38,72,98
1,31,72,74
1,31,79,104
1,34,71,4
1,36,92,94
1,34,88,260
1,28,44,194
1,29,84,70
1,31,72,2
1,36,94,94
1,36,94,188
1,34,80,0
1,29,77,76
1,31,72,2
1,36,97,100
1,31,86,576
1,30,71,2
1,29,75,2
1,31,88,244
1,33,60,98
1,34,88,64
1,36,80,2
1,39,80,82
1,29,81,178
1,31,86,380
1,34,92,136
1,36,77,2
1,39,84,74
1,36,88,546
1,35,72,2
1,34,60,2
1,41,72,122
1,46,80,136
1,46,80,220
1,41,76,156
1,34,73,102
1,33,60,114
1,33,80,54
1,32,80,2
1,39,73,54
1,44,76,58
1,38,48,194
1,43,76,68
1,38,72,98
1,34,56,32
1,35,52,16
1,39,84,30
1,38,76,28
1,37,76,10
1,36,68,16
1,35,68,2
1,34,60,10
1,33,52,10
1,32,44,2
1,31,44,6
1,30,32,10
1,29,24,2
1,36,85,84
1,43,88,20
1,48,74,30
1,43,61,44
1,33,57,60
1,37,73,80
