track,note,velocity,time
2,34,80,14968
2,36,101,64
2,34,76,40
2,29,84,280
2,31,72,4
2,36,94,92
2,36,94,188
2,34,80,0
2,29,77,76
2,31,72,0
2,36,97,100
2,31,86,536
2,30,71,4
2,29,75,4
2,31,88,244
2,33,60,100
2,34,88,64
2,36,80,0
2,39,80,84
2,29,81,176
2,31,86,380
2,34,92,136
2,36,77,4
2,39,84,72
2,36,88,544
2,35,72,28
2,34,60,4
2,41,72,124
2,46,80,136
2,46,80,220
2,41,76,156
2,34,73,100
2,33,60,116
2,33,80,56
2,32,80,0
2,39,73,52
2,44,76,56
2,38,48,192
2,43,76,68
2,38,72,96
2,31,72,108
2,31,79,104
2,34,71,4
2,36,92,96
2,34,88,260
2,28,44,196
2,29,84,68
2,31,72,4
2,36,94,92
2,36,94,188
2,34,80,0
2,29,77,76
2,31,72,0
2,36,97,100
2,31,86,576
2,30,71,4
2,29,75,4
2,31,88,244
2,33,60,100
2,34,88,64
2,36,80,0
2,39,80,84
2,29,81,176
2,31,86,380
2,34,92,136
2,36,77,4
2,39,84,72
2,36,88,544
2,35,72,44
2,34,60,4
2,41,72,124
2,46,80,136
2,46,80,220
2,41,76,156
2,34,73,100
2,33,60,116
2,33,80,56
2,32,80,0
2,39,73,52
2,44,76,56
2,38,68,192
2,43,76,68
2,38,72,96
2,31,72,76
2,31,79,104
2,34,71,4
2,36,80,88
2,34,76,208
2,29,84,280
2,31,72,4
2,36,94,92
2,36,94,188
2,34,80,0
2,29,77,76
2,31,72,0
2,36,97,100
2,31,86,536
2,30,71,4
2,29,75,4
2,31,88,244
2,33,60,100
2,34,88,64
2,36,80,0
2,39,80,84
2,29,81,176
2,31,86,380
2,34,92,136
2,36,77,4
2,39,84,72
2,36,88,544
2,35,72,4
2,34,60,4
2,41,72,124
2,46,80,136
2,46,80,220
2,41,76,156
2,34,73,100
2,33,60,116
2,33,80,56
2,32,80,0
2,39,73,52
2,44,76,56
2,38,48,192
2,43,76,68
2,38,72,96
2,31,72,76
2,31,79,104
2,34,71,4
2,36,92,96
2,34,88,260
2,28,44,196
2,29,84,68
2,31,72,4
2,36,94,92
2,36,94,188
2,34,80,0
2,29,77,76
2,31,72,0
2,36,97,100
2,31,86,576
2,30,71,4
2,29,75,4
2,31,88,244
2,33,60,100
2,34,88,64
2,36,80,0
2,39,80,84
2,29,81,176
2,31,86,380
2,34,92,136
2,36,77,4
2,39,84,72
2,36,88,544
2,35,72,4
2,34,60,4
2,41,72,124
2,46,80,136
2,46,80,220
2,41,76,156
2,34,73,100
2,33,60,116
2,33,80,56
2,32,80,0
2,39,73,52
2,44,76,56
2,38,48,192
2,43,76,68
2,38,72,96
2,34,56,32
2,35,52,16
2,39,84,32
2,38,76,28
2,37,76,12
2,36,68,0
2,35,68,4
2,34,60,12
2,33,52,12
2,32,44,4
2,31,44,8
2,30,32,12
2,29,24,4
2,36,85,84
2,43,88,20
2,48,74,32
2,43,61,44
2,33,57,60
2,37,73,80
2,44,77,24
2,49,88,20
2,39,68,12
2,42,77,0
2,39,62,24
2,44,77,92
2,39,68,192
2,42,68,92
2,44,68,92
2,46,68,8
2,44,77,92
2,46,57,20
2,49,73,4
2,36,85,68
2,43,88,12
2,48,74,44
2,43,61,40
2,33,57,64
2,37,73,72
2,44,77,24
2,49,88,20
2,44,68,16
2,44,72,40
2,44,68,16
2,44,91,28
2,39,68,92
2,32,71,84
2,44,87,76
2,39,68,96
2,46,84,140
2,41,80,100
2,34,71,84
2,39,80,0
2,36,85,32
2,43,88,20
2,48,74,32
2,43,61,44
2,33,57,60
2,37,73,80
2,44,77,24
2,49,88,20
2,39,68,12
2,42,77,0
2,39,62,24
2,44,77,92
2,39,68,192
2,42,68,92
2,44,68,92
2,46,68,8
2,44,77,92
2,46,57,20
2,49,73,4
2,36,85,68
2,43,88,12
2,48,74,44
2,43,61,40
2,33,57,64
2,37,73,72
2,44,77,24
2,49,88,20
2,44,68,16
2,44,72,40
2,44,68,16
2,44,91,28
2,39,68,92
2,32,71,84
2,44,87,76
2,39,68,96
2,46,84,140
2,41,80,100
2,34,71,84
2,39,80,0
2,36,101,32
2,34,76,280
2,29,84,280
2,31,72,4
2,36,94,92
2,36,94,188
2,34,80,0
2,29,77,76
2,31,72,0
2,36,97,100
2,31,86,536
2,30,71,4
2,29,75,4
2,31,88,244
2,33,60,100
2,34,88,64
2,36,80,0
2,39,80,84
2,29,81,176
2,31,86,380
2,34,92,136
2,36,77,4
2,39,84,72
2,36,88,544
2,35,72,28
2,34,60,4
2,41,72,124
2,46,80,136
2,46,80,220
2,41,76,156
2,34,73,100
2,33,60,116
2,33,80,56
2,32,80,0
2,39,73,52
2,44,76,56
2,38,48,192
2,43,76,68
2,38,72,96
2,31,72,108
2,31,79,104
2,34,71,4
2,36,92,96
2,34,88,260
2,28,44,196
2,29,84,68
2,31,72,4
2,36,94,92
2,36,94,188
2,34,80,0
2,29,77,76
2,31,72,0
2,36,97,100
2,31,86,576
2,30,71,4
2,29,75,4
2,31,88,244
2,33,60,100
2,34,88,64
2,36,80,0
2,39,80,84
2,29,81,176
2,31,86,380
2,34,92,136
2,36,77,4
2,39,84,72
2,36,88,544
2,35,72,44
2,34,60,4
2,41,72,124
2,46,80,136
2,46,80,220
2,41,76,156
2,34,73,100
2,33,60,116
2,33,80,56
2,32,80,0
2,39,73,52
2,44,76,56
2,38,68,192
2,43,76,68
2,38,72,96
2,31,72,76
2,31,79,104
2,34,71,4
2,36,80,88
2,34,76,208
2,29,84,280
2,31,72,4
2,36,94,92
2,36,94,188
2,34,80,0
2,29,77,76
2,31,72,0
2,36,97,100
2,31,86,536
2,30,71,4
2,29,75,4
2,31,88,244
2,33,60,100
2,34,88,64
2,36,80,0
2,39,80,84
2,29,81,176
2,31,86,380
2,34,92,136
2,36,77,4
2,39,84,72
2,36,88,544
2,35,72,4
2,34,60,4
2,41,72,124
2,46,80,136
2,46,80,220
2,41,76,156
2,34,73,100
2,33,60,116
2,33,80,56
2,32,80,0
2,39,73,52
2,44,76,56
2,38,48,192
2,43,76,68
2,38,72,96
2,31,72,76
2,31,79,104
2,34,71,4
2,36,92,96
2,34,88,260
2,28,44,196
2,29,84,68
2,31,72,4
2,36,94,92
2,36,94,188
2,34,80,0
2,29,77,76
2,31,72,0
2,36,97,100
2,31,86,576
2,30,71,4
2,29,75,4
2,31,88,244
2,33,60,100
2,34,88,64
2,36,80,0
2,39,80,84
2,29,81,176
2,31,86,380
2,34,92,136
2,36,77,4
2,39,84,72
2,36,88,544
2,35,72,4
2,34,60,4
2,41,72,124
2,46,80,136
2,46,80,220
2,41,76,156
2,34,73,100
2,33,60,116
2,33,80,56
2,32,80,0
2,39,73,52
2,44,76,56
2,38,48,192
2,43,76,68
2,38,72,96
2,34,56,32
2,35,52,16
2,39,84,32
2,38,76,28
2,37,76,12
2,36,68,0
2,35,68,4
2,34,60,12
2,33,52,12
2,32,44,4
2,31,44,8
2,30,32,12
2,29,24,4
2,36,85,84
2,43,88,20
2,48,74,32
2,43,61,44
2,33,57,60
2,37,73,80
2,44,77,24
2,49,88,20
2,39,68,12
2,42,77,0
2,39,62,24
2,44,77,92
2,39,68,192
2,42,68,92
2,44,68,92
2,46,68,8
2,44,77,92
2,46,57,20
2,49,73,4
2,36,85,68
2,43,88,12
2,48,74,44
2,43,61,40
2,33,57,64
2,37,73,72
2,44,77,24
2,49,88,20
2,44,68,16
2,44,72,40
2,44,68,16
2,44,91,28
2,39,68,92
2,32,71,84
2,44,87,76
2,39,68,96
2,46,84,140
2,41,80,100
2,34,71,84
2,39,80,4
2,36,85,32
2,43,88,20
2,48,74,32
2,43,61,44
2,33,57,60
2,37,73,80
2,44,77,24
2,49,88,20
2,39,68,12
2,42,77,0
2,39,62,24
2,44,77,92
2,39,68,192
2,42,68,92
2,44,68,92
2,46,68,8
2,44,77,92
2,46,57,20
2,49,73,4
2,36,85,68
2,43,88,12
2,48,74,44
2,43,61,40
2,33,57,64
2,37,73,72
2,44,77,24
2,49,88,20
2,44,68,16
2,44,72,40
2,44,68,16
2,44,91,28
2,39,68,92
2,32,71,84
2,44,87,76
2,39,68,96
2,46,84,140
2,41,80,100
2,34,71,84
2,39,80,4
2,36,85,8
2,43,88,20
2,48,74,32
2,43,61,44
2,33,57,60
2,37,73,80
2,44,77,24
2,49,88,20
2,39,68,12
2,42,77,0
2,39,62,24
2,44,77,92
2,39,68,192
2,42,68,92
2,44,68,92
2,46,68,8
2,44,77,92
2,46,57,20
2,49,73,4
2,36,85,68
2,43,88,12
2,48,74,44
2,43,61,40
2,33,57,64
2,37,73,72
2,44,77,24
2,49,88,20
2,44,68,16
2,44,72,40
2,44,68,16
2,44,91,28
2,39,68,92
2,32,71,84
2,44,87,76
2,39,68,96
2,46,84,140
2,41,80,100
2,34,71,84
2,39,80,4
2,36,85,32
2,43,88,20
2,48,74,32
2,43,61,44
2,33,57,60
2,37,73,80
2,44,77,24
2,49,88,20
2,39,68,12
2,42,77,0
2,39,62,24
2,44,77,92
2,39,68,192
2,42,68,92
2,44,68,92
2,46,68,8
2,44,77,92
2,46,76,20
2,49,88,4
2,36,85,84
2,43,88,12
2,48,74,44
2,43,61,40
2,33,57,64
2,37,73,72
2,44,77,24
2,49,88,20
2,44,68,16
2,44,72,40
2,44,68,16
2,44,91,28
2,39,68,92
2,32,71,84
2,44,87,76
2,39,68,96
2,46,84,140
2,41,80,100
2,34,71,84
2,39,72,4
2,38,72,20
2,37,82,12
2,36,72,0
2,35,72,4
2,34,66,12
2,33,57,12
2,32,47,4
2,31,47,8
2,30,34,12
2,29,25,4
2,36,101,16
2,34,76,304
2,29,84,280
2,31,72,4
2,36,94,92
2,36,94,188
2,34,80,0
2,29,77,76
2,31,72,0
2,36,97,100
2,31,86,536
2,30,71,4
2,29,75,4
2,31,88,244
2,33,60,100
2,34,88,64
2,36,80,0
2,39,80,84
2,29,81,176
2,31,86,380
2,34,92,136
2,36,77,4
2,39,84,72
2,36,88,544
2,35,72,28
2,34,60,4
2,41,72,124
2,46,80,136
2,46,80,220
2,41,76,156
2,34,73,100
2,33,60,116
2,33,80,56
2,32,80,0
2,39,73,52
2,44,76,56
2,38,48,192
2,43,76,68
2,38,72,96
2,31,72,108
2,31,79,104
2,34,71,4
2,36,92,96
2,34,88,260
2,28,44,196
2,29,84,68
2,31,72,4
2,36,94,92
2,36,94,188
2,34,80,0
2,29,77,76
2,31,72,0
2,36,97,100
2,31,86,576
2,30,71,4
2,29,75,4
2,31,88,244
2,33,60,100
2,34,88,64
2,36,80,0
2,39,80,84
2,29,81,176
2,31,86,380
2,34,92,136
2,36,77,4
2,39,84,72
2,36,88,544
2,35,72,44
2,34,60,4
2,41,72,124
2,46,80,136
2,38,68,224
2,46,80,72
2,41,76,12
2,34,73,100
2,33,80,208
2,40,73,396
2,45,76,56
2,34,77,288
2,46,77,36
2,35,77,148
2,47,77,28
2,36,91,148
2,48,127,36
2,49,127,276
2,44,104,288
2,37,100,48
2,39,96,44
2,32,95,12
2,32,91,112
2,32,100,136
2,34,100,132
2,41,108,276
2,34,104,96
2,36,113,212
2,48,127,40
2,49,127,272
2,44,110,272
2,37,104,60
2,39,104,48
2,32,91,12
2,32,83,104
2,32,91,112
2,34,104,120
2,41,96,260
2,34,100,96
2,36,88,228
2,48,127,24
2,49,127,296
2,44,110,300
2,37,80,56
2,39,104,52
2,32,76,36
2,32,91,120
2,32,80,112
2,34,95,104
2,41,84,288
2,34,95,92
2,36,101,264
2,48,127,52
2,49,127,268
2,44,110,288
2,37,95,40
2,39,110,52
2,32,83,40
2,32,68,108
2,32,83,124
2,46,100,72
2,41,96,120
2,34,95,104
2,39,80,0
2,36,88,32
2,43,88,20
2,48,74,32
2,43,61,44
2,33,57,60
2,37,73,80
2,44,77,24
2,49,88,20
2,39,68,12
2,42,77,0
2,39,62,24
2,44,77,92
2,39,68,192
2,42,68,92
2,44,68,92
2,46,68,8
2,44,77,92
2,46,57,20
2,49,73,4
2,36,85,68
2,43,88,12
2,48,74,44
2,43,61,40
2,33,57,64
2,37,73,72
2,44,77,24
2,49,88,20
2,44,68,16
2,44,72,40
2,44,68,16
2,44,91,28
2,39,68,92
2,32,71,84
2,44,87,76
2,39,68,96
2,46,84,140
2,41,80,100
2,34,71,84
2,39,80,4
2,36,85,32
2,43,88,20
2,48,74,32
2,43,61,44
2,33,57,60
2,37,73,80
2,44,77,24
2,49,88,20
2,39,68,12
2,42,77,0
2,39,62,24
2,44,77,92
2,39,68,192
2,42,68,92
2,44,68,92
2,46,68,8
2,44,77,92
2,46,57,20
2,49,73,4
2,36,85,68
2,43,88,12
2,48,74,44
2,43,61,40
2,33,57,64
2,37,73,72
2,44,77,24
2,49,88,20
2,44,68,16
2,44,72,40
2,44,68,16
2,44,91,28
2,39,68,92
2,32,71,84
2,44,87,76
2,39,68,96
2,46,84,140
2,41,80,100
2,34,71,84
2,39,80,0
2,36,101,32
2,34,76,280
2,29,84,280
2,31,72,4
2,36,94,92
2,36,94,188
2,34,80,0
2,29,77,76
2,31,72,0
2,36,97,100
2,31,86,536
2,30,71,4
2,29,75,4
2,31,88,244
2,33,60,100
2,34,88,64
2,36,80,0
2,39,80,84
2,29,81,176
2,31,86,380
2,34,92,136
2,36,77,4
2,39,84,72
2,36,88,544
2,35,72,28
2,34,60,4
2,41,72,124
2,46,80,136
2,46,80,220
2,41,76,156
2,34,73,100
2,33,60,116
2,33,80,56
2,32,80,0
2,39,73,52
2,44,76,56
2,38,48,192
2,43,76,68
2,38,72,96
2,31,72,108
2,31,79,104
2,34,71,4
2,36,92,96
2,34,88,260
2,28,44,196
2,29,84,68
2,31,72,4
2,36,94,92
2,36,94,188
2,34,80,0
2,29,77,76
2,31,72,0
2,36,97,100
2,31,86,576
2,30,71,4
2,29,75,4
2,31,88,244
2,33,60,100
2,34,88,64
2,36,80,0
2,39,80,84
2,29,81,176
2,31,86,380
2,34,92,136
2,36,77,4
2,39,84,72
2,36,88,544
2,35,72,44
2,34,60,4
2,41,72,124
2,46,80,136
2,46,80,220
2,41,76,156
2,34,73,100
2,33,60,116
2,33,80,56
2,32,80,0
2,39,73,52
2,44,76,56
2,38,68,192
2,43,76,68
2,38,72,96
2,31,72,76
2,31,79,104
2,34,71,4
2,36,80,88
2,34,76,208
2,29,84,280
2,31,72,4
2,36,94,92
2,36,94,188
2,34,80,0
2,29,77,76
2,31,72,0
2,36,97,100
2,29,86,532
2,30,71,8
2,31,75,8
2,34,88,232
2,33,60,108
2,34,88,64
2,36,80,0
2,39,80,84
2,29,81,176
2,31,86,380
2,34,92,136
2,36,77,4
2,39,84,72
2,36,88,544
2,35,72,4
2,34,60,4
2,41,72,124
2,46,80,136
2,46,80,220
2,41,76,156
2,34,73,100
2,33,60,116
2,33,80,56
2,32,80,0
2,39,73,52
2,44,76,56
2,38,48,192
2,43,76,68
2,38,72,96
2,31,72,76
2,31,79,104
2,34,71,4
2,36,92,96
2,34,88,260
2,28,44,196
2,29,84,68
2,31,72,4
2,36,94,92
2,36,94,188
2,34,80,0
2,29,77,76
2,31,72,0
2,36,97,100
2,31,86,576
2,30,71,4
2,29,75,4
2,31,88,244
2,33,60,100
2,34,88,64
2,36,80,0
2,39,80,84
2,29,81,176
2,31,86,380
2,34,92,136
2,36,77,4
2,39,84,72
2,36,88,544
2,35,72,4
2,34,60,4
2,41,72,124
2,46,80,136
2,46,80,220
2,41,76,156
2,34,73,100
2,33,60,116
2,33,80,56
2,32,80,0
2,39,73,52
2,44,76,56
2,38,48,192
2,43,76,68
2,38,72,96
2,34,56,32
2,35,52,16
2,39,84,32
2,38,76,28
2,37,76,12
2,36,68,0
2,35,68,4
2,34,60,12
2,33,52,12
2,32,44,4
2,31,44,8
2,30,32,12
2,29,24,4
2,36,85,84
2,43,88,20
2,48,74,32
2,43,61,44
2,33,57,60
2,37,73,80
