track,note,velocity,time
1,72,40,0
1,70,40,704
1,72,40,128
1,70,40,128
1,72,40,152
1,75,40,704
1,74,40,140
1,74,40,152
1,67,40,344
1,70,40,128
1,67,40,128
1,72,40,128
1,72,40,152
1,72,40,344
1,70,40,128
1,70,40,128
1,72,40,152
1,70,40,704
1,72,40,128
1,70,40,128
1,72,40,152
1,75,40,704
1,74,40,140
1,74,40,152
1,67,40,344
1,70,40,128
1,67,40,128
1,72,40,128
1,72,40,152
1,72,40,344
1,70,40,128
1,70,40,128
1,72,40,152
1,70,40,704
1,72,40,128
1,70,40,128
1,72,40,152
1,75,40,704
1,74,40,140
1,74,40,152
1,67,40,344
1,70,40,128
1,67,40,128
1,72,40,128
1,72,40,152
1,72,40,344
1,70,40,128
1,70,40,128
1,72,40,152
1,70,40,704
1,72,40,128
1,70,40,128
1,72,40,152
1,75,40,704
1,74,40,140
1,74,40,152
1,67,40,344
1,70,40,128
1,67,40,128
1,72,40,128
1,72,40,152
1,72,40,344
1,70,40,128
1,70,40,128
1,72,40,152
1,70,40,704
1,72,40,128
1,70,40,128
1,72,40,152
1,75,40,704
1,74,40,140
1,74,40,152
1,67,40,344
1,70,40,128
1,67,40,128
1,72,40,128
1,72,40,152
1,72,40,344
1,70,40,128
1,70,40,128
1,72,40,12440
1,70,40,704
1,72,40,128
1,70,40,128
1,72,40,152
1,75,40,704
1,74,40,140
1,74,40,152
1,67,40,344
1,70,40,128
1,67,40,128
1,72,40,128
1,72,40,152
1,72,40,344
1,70,40,128
1,70,40,128
1,72,40,152
1,70,40,704
1,72,40,128
1,70,40,128
1,72,40,152
1,75,40,704
1,74,40,140
1,74,40,152
1,67,40,344
1,70,40,128
1,67,40,128
1,72,40,128
1,72,40,152
1,72,40,344
1,70,40,128
1,70,40,128
1,72,40,152
1,70,40,704
1,72,40,128
1,70,40,128
1,72,40,152
1,75,40,704
1,74,40,140
1,74,40,152
1,67,40,344
1,70,40,128
1,67,40,128
1,72,40,128
1,72,40,152
1,72,40,344
1,70,40,128
1,70,40,128
1,72,40,152
1,70,40,704
1,72,40,128
1,70,40,128
1,72,40,152
1,75,40,704
1,74,40,140
1,74,40,152
1,67,40,344
1,70,40,128
1,67,40,128
1,72,40,128
1,72,40,152
1,72,40,344
1,70,40,128
1,70,40,128
1,72,40,18584
1,70,40,704
1,72,40,128
1,70,40,128
1,72,40,152
1,75,40,704
1,74,40,140
1,74,40,152
1,67,40,344
1,70,40,128
1,67,40,128
1,72,40,128
1,72,40,152
1,72,40,344
1,70,40,128
1,70,40,128
1,72,40,152
1,70,40,704
1,72,40,128
1,70,40,128
1,72,40,152
1,75,40,704
1,74,40,140
1,74,40,152
1,67,40,344
1,70,40,128
1,67,40,128
1,72,40,128
1,72,40,152
1,72,40,344
1,70,40,128
1,70,40,128
2,60,50,192
2,60,50,320
2,60,50,320
2,58,50,320
2,56,50,320
2,56,50,320
2,55,50,320
2,58,50,320
2,60,50,320
2,60,50,320
2,60,50,320
2,58,50,320
2,53,50,320
2,53,50,320
2,55,50,320
2,58,50,320
2,60,50,320
2,60,50,320
2,60,50,320
2,58,50,320
2,56,50,320
2,56,50,320
2,55,50,320
2,58,50,320
2,60,50,320
2,60,50,320
2,60,50,320
2,58,50,320
2,53,50,320
2,53,50,320
2,55,50,320
2,58,50,320
2,60,50,320
2,60,50,320
2,60,50,320
2,58,50,320
2,56,50,320
2,56,50,320
2,55,50,320
2,58,50,320
2,60,50,320
2,60,50,320
2,60,50,320
2,58,50,320
2,53,50,320
2,53,50,320
2,55,50,320
2,58,50,320
2,60,50,320
2,60,50,320
2,60,50,320
2,58,50,320
2,56,50,320
2,56,50,320
2,55,50,320
2,58,50,320
2,60,50,320
2,60,50,320
2,60,50,320
2,58,50,320
2,53,50,320
2,53,50,320
2,55,50,320
2,58,50,320
2,60,50,320
2,60,50,320
2,60,50,320
2,58,50,320
2,56,50,320
2,56,50,320
2,55,50,320
2,58,50,320
2,60,50,320
2,60,50,320
2,60,50,320
2,58,50,320
2,53,50,320
2,53,50,320
2,55,50,320
2,58,50,320
2,60,50,12608
2,60,50,320
2,60,50,320
2,58,50,320
2,56,50,320
2,56,50,320
2,55,50,320
2,58,50,320
2,60,50,320
2,60,50,320
2,60,50,320
2,58,50,320
2,53,50,320
2,53,50,320
2,55,50,320
2,58,50,320
2,60,50,320
2,60,50,320
2,60,50,320
2,58,50,320
2,56,50,320
2,56,50,320
2,55,50,320
2,58,50,320
2,60,50,320
2,60,50,320
2,60,50,320
2,58,50,320
2,53,50,320
2,53,50,320
2,55,50,320
2,58,50,320
2,60,50,320
2,60,50,320
2,60,50,320
2,58,50,320
2,56,50,320
2,56,50,320
2,55,50,320
2,58,50,320
2,60,50,320
2,60,50,320
2,60,50,320
2,58,50,320
2,53,50,320
2,53,50,320
2,55,50,320
2,58,50,320
2,60,50,320
2,60,50,320
2,60,50,320
2,58,50,320
2,56,50,320
2,56,50,320
2,55,50,320
2,58,50,320
2,60,50,320
2,60,50,320
2,60,50,320
2,58,50,320
2,53,50,320
2,53,50,320
2,55,50,320
2,58,50,320
2,91,70,6272
2,60,50,196
2,60,50,320
2,60,50,320
2,58,50,320
2,56,50,320
2,56,50,320
2,55,50,320
2,58,50,320
2,60,50,320
2,60,50,320
2,60,50,320
2,58,50,320
2,53,50,320
2,53,50,320
2,55,50,320
2,58,50,320
2,60,50,320
2,60,50,320
2,60,50,320
2,58,50,320
2,56,50,320
2,56,50,320
2,55,50,320
2,58,50,320
2,60,50,320
2,60,50,320
2,60,50,320
2,58,50,320
2,53,50,320
2,53,50,320
2,55,50,320
2,58,50,320
3,48,50,0
3,55,50,512
3,50,50,104
3,41,50,104
3,41,50,104
3,55,50,128
3,50,50,128
3,40,50,128
3,40,50,128
3,55,50,128
3,50,50,128
3,41,50,128
3,41,50,128
3,55,50,128
3,50,50,128
3,48,50,128
3,55,50,512
3,50,50,104
3,41,50,104
3,41,50,104
3,55,50,128
3,50,50,128
3,40,50,128
3,40,50,128
3,55,50,128
3,50,50,128
3,41,50,128
3,41,50,128
3,55,50,128
3,50,50,128
3,48,50,128
3,55,50,512
3,50,50,104
3,41,50,104
3,41,50,104
3,55,50,128
3,50,50,128
3,40,50,128
3,40,50,128
3,55,50,128
3,50,50,128
3,41,50,128
3,41,50,128
3,55,50,128
3,50,50,128
3,48,50,128
3,55,50,512
3,50,50,104
3,41,50,104
3,41,50,104
3,55,50,128
3,50,50,128
3,40,50,128
3,40,50,128
3,55,50,128
3,50,50,128
3,41,50,128
3,41,50,128
3,55,50,128
3,50,50,128
3,48,50,128
3,55,50,512
3,50,50,104
3,41,50,104
3,41,50,104
3,55,50,128
3,50,50,128
3,40,50,128
3,40,50,128
3,55,50,128
3,50,50,128
3,41,50,128
3,41,50,128
3,55,50,128
3,50,50,128
3,48,50,12416
3,55,50,512
3,50,50,104
3,41,50,104
3,41,50,104
3,55,50,128
3,50,50,128
3,40,50,128
3,40,50,128
3,55,50,128
3,50,50,128
3,41,50,128
3,41,50,128
3,55,50,128
3,50,50,128
3,48,50,128
3,55,50,512
3,50,50,104
3,41,50,104
3,41,50,104
3,55,50,128
3,50,50,128
3,40,50,128
3,40,50,128
3,55,50,128
3,50,50,128
3,41,50,128
3,41,50,128
3,55,50,128
3,50,50,128
3,48,50,128
3,55,50,512
3,50,50,104
3,41,50,104
3,41,50,104
3,55,50,128
3,50,50,128
3,40,50,128
3,40,50,128
3,55,50,128
3,50,50,128
3,41,50,128
3,41,50,128
3,55,50,128
3,50,50,128
3,48,50,128
3,55,50,512
3,50,50,104
3,41,50,104
3,41,50,104
3,55,50,128
3,50,50,128
3,40,50,128
3,40,50,128
3,55,50,128
3,50,50,128
3,41,50,128
3,41,50,128
3,55,50,128
3,50,50,128
3,48,50,18560
3,55,50,512
3,50,50,104
3,41,50,104
3,41,50,104
3,55,50,128
3,50,50,128
3,40,50,128
3,40,50,128
3,55,50,128
3,50,50,128
3,41,50,128
3,41,50,128
3,55,50,128
3,50,50,128
3,48,50,128
3,55,50,512
3,50,50,104
3,41,50,104
3,41,50,104
3,55,50,128
3,50,50,128
3,40,50,128
3,40,50,128
3,55,50,128
3,50,50,128
3,41,50,128
3,41,50,128
3,55,50,128
3,50,50,128
4,63,35,0
4,63,35,216
4,63,35,84
4,65,35,136
4,67,35,64
4,67,35,216
4,67,35,24
4,65,35,64
4,67,35,152
4,67,35,192
4,67,35,80
4,67,35,80
4,65,35,152
4,65,35,192
4,65,35,80
4,65,35,80
4,63,35,152
4,63,35,216
4,63,35,84
4,65,35,136
4,67,35,64
4,67,35,216
4,67,35,24
4,65,35,64
4,67,35,152
4,67,35,192
4,67,35,80
4,67,35,80
4,65,35,152
4,65,35,192
4,65,35,80
4,65,35,80
4,63,35,152
4,63,35,216
4,63,35,84
4,65,35,136
4,67,35,64
4,67,35,216
4,67,35,24
4,65,35,64
4,67,35,152
4,67,35,192
4,67,35,80
4,67,35,80
4,65,35,152
4,65,35,192
4,65,35,80
4,65,35,80
4,63,35,152
4,63,35,216
4,63,35,84
4,65,35,136
4,67,35,64
4,67,35,216
4,67,35,24
4,65,35,64
4,67,35,152
4,67,35,192
4,67,35,80
4,67,35,80
4,65,35,152
4,65,35,192
4,65,35,80
4,65,35,80
4,63,35,152
4,63,35,216
4,63,35,84
4,65,35,136
4,67,35,64
4,67,35,216
4,67,35,24
4,65,35,64
4,67,35,152
4,67,35,192
4,67,35,80
4,67,35,80
4,65,35,152
4,65,35,192
4,65,35,80
4,65,35,80
4,63,35,152
4,63,35,11928
4,63,35,216
4,63,35,84
4,65,35,136
4,67,35,64
4,67,35,216
4,67,35,24
4,65,35,64
4,67,35,152
4,67,35,192
4,67,35,80
4,67,35,80
4,65,35,152
4,65,35,192
4,65,35,80
4,65,35,80
4,63,35,152
4,63,35,216
4,63,35,84
4,65,35,136
4,67,35,64
4,67,35,216
4,67,35,24
4,65,35,64
4,67,35,152
4,67,35,192
4,67,35,80
4,67,35,80
4,65,35,152
4,65,35,192
4,65,35,80
4,65,35,80
4,63,35,152
4,63,35,216
4,63,35,84
4,65,35,136
4,67,35,64
4,67,35,216
4,67,35,24
4,65,35,64
4,67,35,152
4,67,35,192
4,67,35,80
4,67,35,80
4,65,35,152
4,65,35,192
4,65,35,80
4,65,35,80
4,63,35,152
4,63,35,216
4,63,35,84
4,65,35,136
4,67,35,64
4,67,35,216
4,67,35,24
4,65,35,64
4,67,35,152
4,67,35,192
4,67,35,80
4,67,35,80
4,65,35,152
4,65,35,192
4,65,35,80
4,65,35,80
4,63,35,152
4,63,35,5784
4,63,35,11928
4,63,35,216
4,63,35,84
4,65,35,136
4,67,35,64
4,67,35,216
4,67,35,24
4,65,35,64
4,67,35,152
4,67,35,192
4,67,35,80
4,67,35,80
4,65,35,152
4,65,35,192
4,65,35,80
4,65,35,80
4,63,35,152
4,63,35,216
4,63,35,84
4,65,35,136
4,67,35,64
4,67,35,216
4,67,35,24
4,65,35,64
4,67,35,152
4,67,35,192
4,67,35,80
4,67,35,80
4,65,35,152
4,65,35,192
4,65,35,80
4,65,35,80
4,63,35,152
4,63,100,11928
5,60,60,5376
5,67,60,112
5,65,60,32
5,65,60,100
5,63,60,32
5,60,60,128
5,67,60,1280
5,65,60,1164
5,67,60,80
5,67,60,1260
5,60,60,824
5,67,60,112
5,65,60,32
5,65,60,100
5,63,60,32
5,60,60,128
5,67,60,1280
5,65,60,1164
5,70,60,0
5,67,60,80
5,72,60,0
5,67,60,1260
5,72,60,0
5,60,60,824
5,67,60,112
5,65,60,32
5,65,60,100
5,63,60,32
5,60,60,128
5,65,60,1088
5,70,60,0
5,72,60,32
5,67,60,0
5,67,60,1304
5,67,60,1336
5,63,60,0
5,72,60,32
5,67,60,0
5,60,60,736
5,67,60,112
5,65,60,32
5,65,60,100
5,63,60,32
5,60,60,128
5,67,60,1280
5,65,60,1164
5,70,60,0
5,67,60,80
5,72,60,0
5,67,60,1260
5,72,60,0
5,60,60,824
5,67,60,112
5,65,60,32
5,65,60,100
5,63,60,32
5,60,60,128
5,60,60,1280
5,72,60,0
5,69,60,0
5,62,60,0
5,60,60,160
5,72,60,0
5,69,60,0
5,62,60,0
5,60,60,224
5,72,60,0
5,68,60,0
5,61,60,0
5,68,60,1600
5,65,60,0
5,60,60,0
5,68,60,88
5,65,60,0
5,60,60,0
5,67,60,160
5,60,60,0
5,60,60,1600
5,72,60,0
5,69,60,0
5,62,60,0
5,60,60,160
5,72,60,0
5,69,60,0
5,62,60,0
5,60,60,224
5,72,60,0
5,68,60,0
5,61,60,0
5,68,60,1600
5,65,60,0
5,60,60,0
5,68,60,88
5,65,60,0
5,60,60,0
5,67,60,160
5,60,60,0
5,67,60,1600
5,65,60,1164
5,67,60,32
5,67,60,1260
5,60,60,824
5,67,60,112
5,65,60,32
5,65,60,100
5,63,60,32
5,60,60,128
5,67,60,1280
5,65,60,1164
5,70,60,0
5,67,60,80
5,72,60,0
5,67,60,1260
5,72,60,0
5,60,60,824
5,67,60,112
5,65,60,32
5,65,60,100
5,63,60,32
5,60,60,128
5,65,60,1088
5,70,60,0
5,72,60,32
5,67,60,0
5,67,60,1304
5,67,60,1336
5,72,60,52
5,60,60,736
5,67,60,112
5,65,60,32
5,65,60,100
5,63,60,32
5,60,60,128
5,67,60,1280
5,65,60,1164
5,70,60,0
5,67,60,80
5,72,60,0
5,67,60,1260
5,72,60,0
5,60,60,824
5,67,60,112
5,65,60,32
5,65,60,100
5,63,60,32
5,60,60,128
5,60,60,1280
5,72,60,0
5,69,60,0
5,62,60,0
5,60,60,160
5,72,60,0
5,69,60,0
5,62,60,0
5,60,60,224
5,72,60,0
5,68,60,0
5,61,60,0
5,68,60,1600
5,65,60,0
5,60,60,0
5,68,60,88
5,65,60,0
5,60,60,0
5,67,60,160
5,60,60,0
5,67,60,13888
5,67,60,1260
5,67,60,1260
5,60,60,824
5,67,60,112
5,65,60,32
5,65,60,100
5,63,60,32
5,60,60,128
5,67,60,1280
5,65,60,1164
5,70,60,0
5,67,60,80
5,72,60,0
5,67,60,1260
5,72,60,0
5,60,60,824
5,67,60,112
5,65,60,32
5,65,60,100
5,63,60,32
5,60,60,128
5,60,60,1280
5,72,60,0
5,69,60,0
5,62,60,0
5,60,60,160
5,72,60,0
5,69,60,0
5,62,60,0
5,60,60,224
5,72,60,0
5,68,60,0
5,61,60,0
5,68,60,1600
5,65,60,0
5,60,60,0
5,68,60,88
5,65,60,0
5,60,60,0
5,67,60,160
5,60,60,0
5,60,60,1600
5,72,60,0
5,69,60,0
5,62,60,0
5,60,60,160
5,72,60,0
5,69,60,0
5,62,60,0
5,60,60,224
5,72,60,0
5,68,60,0
5,61,60,0
5,68,60,1600
5,65,60,0
5,60,60,0
5,68,60,88
5,65,60,0
5,60,60,0
5,67,60,160
5,60,60,0
5,60,60,64
5,60,50,1280
5,72,50,0
5,69,50,0
5,62,50,0
5,60,50,160
5,72,50,0
5,69,50,0
5,62,50,0
5,60,50,224
5,72,50,0
5,68,50,0
5,61,50,0
5,68,40,1600
5,65,40,0
5,60,40,0
5,68,40,88
5,65,40,0
5,60,40,0
5,67,40,160
5,60,40,0
5,60,20,1600
5,72,20,0
5,69,20,0
5,62,20,0
5,60,20,160
5,72,20,0
5,69,20,0
5,62,20,0
5,60,20,224
5,72,20,0
5,68,20,0
5,61,20,0
5,68,5,1600
5,65,5,0
5,60,5,0
5,68,3,88
5,65,3,0
5,60,3,0
5,67,5,160
5,60,5,0
5,60,7,1600
5,72,7,0
5,69,7,0
5,62,7,0
5,60,7,160
5,72,7,0
5,69,7,0
5,62,7,0
5,60,7,224
5,72,7,0
5,68,7,0
5,61,7,0
5,68,1,1600
5,65,1,0
5,60,1,0
5,68,1,88
5,65,1,0
5,60,1,0
5,67,1,160
5,60,1,0
6,60,60,5376
6,67,60,112
6,65,60,32
6,65,60,100
6,63,60,32
6,60,60,128
6,67,60,1280
6,65,60,1164
6,67,60,32
6,67,60,1260
6,60,60,824
6,67,60,112
