track,note,velocity,time
1,63,100,0
1,62,100,0
1,77,50,120
1,63,100,0
1,61,100,120
1,64,100,0
1,63,100,120
1,77,50,0
1,64,100,0
1,63,100,0
1,62,100,0
1,64,100,0
1,63,100,0
1,77,50,0
1,63,100,0
1,61,100,0
1,64,100,0
1,63,100,0
1,77,50,0
1,64,100,0
1,63,100,0
1,62,100,0
1,77,50,120
1,63,100,0
1,61,100,0
1,64,100,0
1,63,100,0
1,77,50,0
1,64,100,0
1,63,100,0
1,62,100,0
1,64,100,0
1,63,100,0
1,77,50,0
1,63,100,0
1,64,100,0
1,61,100,0
1,63,100,0
1,77,50,0
1,64,100,0
1,63,100,0
1,62,100,0
1,77,50,120
1,63,100,0
1,61,100,0
1,64,100,0
1,63,100,0
1,77,50,0
1,64,100,0
1,63,100,0
1,62,100,0
1,64,100,0
1,63,100,0
1,77,50,0
1,63,100,0
1,61,100,0
1,64,100,0
1,77,50,120
1,63,100,0
1,64,100,0
1,63,100,0
1,62,100,0
1,40,127,0
1,77,50,120
1,35,127,0
1,63,100,0
1,61,100,0
1,64,100,0
1,40,127,7
1,63,100,0
1,77,50,0
1,35,127,7
1,64,100,0
1,63,100,0
1,62,100,0
1,64,100,0
1,40,127,7
1,63,100,0
1,77,50,0
1,35,127,7
1,63,100,0
1,64,100,0
1,40,127,7
1,61,100,0
1,63,100,0
1,77,50,0
1,35,127,0
1,64,100,0
1,49,127,0
1,35,127,0
1,44,85,0
1,63,100,0
1,62,100,0
1,44,85,120
1,77,50,0
1,63,100,0
1,40,127,120
1,44,85,0
1,61,100,0
1,64,100,0
1,44,85,120
1,63,100,0
1,77,50,0
1,64,100,0
1,35,127,0
1,44,85,0
1,63,100,0
1,62,100,0
1,64,100,0
1,63,100,0
1,44,85,0
1,77,50,0
1,63,100,0
1,40,127,0
1,44,85,0
1,61,100,0
1,64,100,0
1,63,100,0
1,44,85,0
1,77,50,0
1,64,100,0
1,35,127,0
1,44,85,0
1,63,100,0
1,62,100,0
1,44,85,120
1,77,50,0
1,63,100,0
1,61,100,0
1,40,127,0
1,44,85,0
1,64,100,0
1,63,100,0
1,44,85,0
1,77,50,0
1,64,100,0
1,35,127,0
1,44,85,0
1,63,100,0
1,62,100,0
1,64,100,0
1,63,100,0
1,44,85,0
1,77,50,0
1,63,100,0
1,40,127,0
1,44,85,0
1,64,100,0
1,61,100,0
1,44,85,0
1,63,100,0
1,77,50,0
1,64,100,0
1,42,85,0
1,63,100,0
1,62,100,0
1,44,85,0
1,35,127,0
1,77,50,120
1,63,100,0
1,44,85,0
1,61,100,120
1,64,100,0
1,40,127,0
1,44,85,0
1,63,100,120
1,77,50,0
1,44,85,0
1,64,100,0
1,35,85,0
1,63,100,0
1,62,100,0
1,64,100,0
1,35,127,0
1,44,85,0
1,63,100,0
1,77,50,0
1,44,85,0
1,35,85,0
1,63,100,0
1,61,100,0
1,64,100,0
1,40,127,0
1,44,85,0
1,63,100,0
1,77,50,0
1,44,85,0
1,64,100,0
1,63,100,0
1,62,100,0
1,35,127,0
1,44,85,0
1,77,50,120
1,63,100,0
1,44,85,0
1,61,100,0
1,64,100,0
1,40,127,0
1,44,85,0
1,63,100,0
1,77,50,0
1,44,85,0
1,64,100,0
1,35,85,0
1,63,100,0
1,62,100,0
1,64,100,0
1,35,127,0
1,44,85,0
1,46,85,0
1,63,100,0
1,40,85,0
1,77,50,0
1,44,85,0
1,35,85,0
1,63,100,0
1,64,100,0
1,44,85,0
1,35,85,0
1,40,127,0
1,61,100,0
1,63,100,0
1,77,50,0
1,44,85,0
1,35,85,0
1,64,100,0
1,40,85,0
1,42,85,0
1,62,100,0
1,63,100,0
1,44,85,0
1,35,127,0
1,49,127,0
1,44,85,120
1,77,50,0
1,63,100,0
1,40,127,120
1,44,85,0
1,61,100,0
1,64,100,0
1,44,85,120
1,63,100,0
1,77,50,0
1,64,100,0
1,35,127,0
1,44,85,0
1,63,100,0
1,62,100,0
1,64,100,0
1,63,100,0
1,44,85,0
1,77,50,0
1,63,100,0
1,40,127,0
1,44,85,0
1,61,100,0
1,64,100,0
1,63,100,0
1,44,85,0
1,77,50,0
1,64,100,0
1,44,85,0
1,63,100,0
1,62,100,0
1,35,127,0
1,44,85,120
1,77,50,0
1,63,100,0
1,61,100,0
1,44,85,0
1,64,100,0
1,40,127,0
1,63,100,0
1,44,85,0
1,77,50,0
1,64,100,0
1,35,85,0
1,44,85,0
1,63,100,0
1,62,100,0
1,64,100,0
1,35,127,0
1,63,100,0
1,44,85,0
1,77,50,0
1,35,85,0
1,63,100,0
1,44,85,0
1,64,100,0
1,40,127,0
1,61,100,0
1,44,85,0
1,63,100,0
1,77,50,0
1,64,100,0
1,42,85,0
1,35,127,0
1,44,85,0
1,63,100,0
1,62,100,0
1,44,85,120
1,77,50,0
1,63,100,0
1,40,127,120
1,44,85,0
1,61,100,0
1,64,100,0
1,44,85,120
1,63,100,0
1,77,50,0
1,35,127,0
1,64,100,0
1,35,127,0
1,44,85,0
1,63,100,0
1,62,100,0
1,64,100,0
1,63,100,0
1,44,85,0
1,77,50,0
1,63,100,0
1,40,127,0
1,44,85,0
1,61,100,0
1,64,100,0
1,63,100,0
1,35,127,0
1,44,85,0
1,77,50,0
1,64,100,0
1,35,127,0
1,44,85,0
1,63,100,0
1,62,100,0
1,35,127,0
1,44,85,120
1,77,50,0
1,63,100,0
1,61,100,0
1,44,85,0
1,64,100,0
1,40,127,0
1,63,100,0
1,44,85,0
1,77,50,0
1,35,127,0
1,64,100,0
1,44,85,0
1,63,100,0
1,62,100,0
1,64,100,0
1,35,127,0
1,63,100,0
1,40,127,0
1,44,85,0
1,77,50,0
1,35,127,0
1,46,127,0
1,63,100,0
1,44,85,0
1,64,100,0
1,35,127,0
1,61,100,0
1,40,127,0
1,44,85,0
1,63,100,0
1,77,50,0
1,40,127,0
1,46,127,0
1,64,100,0
1,49,127,0
1,35,127,0
1,44,85,0
1,62,60,0
1,44,90,0
1,44,85,40
1,77,60,0
1,44,90,0
1,40,127,40
1,44,85,0
1,63,60,0
1,42,90,0
1,44,85,40
1,77,60,0
1,44,90,0
1,35,127,40
1,44,85,0
1,62,60,0
1,42,90,0
1,44,85,40
1,77,60,0
1,44,90,0
1,40,127,40
1,44,85,0
1,63,60,0
1,44,90,0
1,44,85,40
1,77,60,0
1,42,90,0
1,35,127,40
1,62,60,0
1,44,85,0
1,44,90,0
1,77,60,40
1,44,85,0
1,44,90,0
1,40,127,40
1,63,60,0
1,44,85,0
1,42,90,0
1,77,60,40
1,44,85,0
1,35,127,0
1,44,90,0
1,35,85,0
1,62,60,0
1,44,85,0
1,42,90,0
1,35,127,40
1,77,60,0
1,44,85,0
1,44,90,0
1,40,127,40
1,63,60,0
1,44,85,0
1,44,90,0
1,77,60,40
1,44,85,0
1,42,90,0
1,35,127,40
1,62,60,0
1,44,85,0
1,44,90,0
1,77,60,40
1,44,85,0
1,44,90,0
1,40,127,40
1,63,60,0
1,44,85,0
1,42,90,0
1,77,60,40
1,44,85,0
1,35,127,0
1,44,90,0
1,35,127,0
1,62,60,0
1,44,85,0
1,42,90,0
1,35,127,40
1,77,60,0
1,44,85,0
1,44,90,0
1,40,127,40
1,63,60,0
1,44,85,0
1,44,90,0
1,77,60,40
1,44,85,0
1,42,90,0
1,35,127,40
1,62,60,0
1,44,85,0
1,44,90,0
1,77,60,40
1,44,85,0
1,44,90,0
1,40,127,40
1,63,60,0
1,44,85,0
1,42,90,0
1,77,60,40
1,44,85,0
1,35,127,0
1,44,90,0
1,35,85,0
1,62,60,0
1,44,85,0
1,42,90,0
1,35,127,40
1,77,60,0
1,44,85,0
1,44,90,0
1,40,127,40
1,63,60,0
1,44,85,0
1,44,90,0
1,77,60,40
1,35,127,0
1,44,85,0
1,42,90,0
1,62,60,40
1,35,127,0
1,44,85,0
1,44,90,0
1,77,60,40
1,44,85,0
1,44,90,0
1,40,127,40
1,63,60,0
1,44,85,0
1,42,90,0
1,77,60,40
1,44,85,0
1,44,90,0
1,35,127,40
1,62,60,0
1,44,85,0
1,42,90,0
1,77,60,40
1,44,85,0
1,44,90,0
1,40,127,40
1,63,60,0
1,44,85,0
1,44,90,0
1,77,60,40
1,44,85,0
1,42,90,0
1,35,127,40
1,62,60,0
1,44,85,0
1,44,90,0
1,77,60,40
1,44,85,0
1,44,90,0
1,40,127,40
1,63,60,0
1,44,85,0
1,42,90,0
1,77,60,40
1,44,85,0
1,35,127,0
1,44,90,0
1,35,85,0
1,62,60,0
1,44,85,0
1,42,90,0
1,35,127,40
1,77,60,0
1,44,85,0
1,44,90,0
1,40,127,40
1,63,60,0
1,44,85,0
1,44,90,0
1,77,60,40
1,44,85,0
1,42,90,0
1,35,127,40
1,62,60,0
1,44,85,0
1,44,90,0
1,77,60,40
1,44,85,0
1,44,90,0
1,40,127,40
1,63,60,0
1,44,85,0
1,42,90,0
1,77,60,40
1,44,85,0
1,35,127,0
1,44,90,0
1,35,127,0
1,62,60,0
1,44,85,0
1,42,90,0
1,35,127,40
1,77,60,0
1,44,85,0
1,44,90,0
1,40,127,40
1,63,60,0
1,44,85,0
1,44,90,0
1,77,60,40
1,44,85,0
1,42,90,0
1,35,127,40
1,62,60,0
1,44,85,0
1,44,90,0
1,77,60,40
1,44,85,0
1,44,90,0
1,40,127,40
1,63,60,0
1,44,85,0
1,42,90,0
1,77,60,40
1,44,85,0
1,35,127,0
1,44,90,0
1,35,85,0
1,62,60,0
1,44,85,0
1,42,90,0
1,77,60,40
1,40,127,0
1,44,85,0
1,46,90,0
1,44,90,0
1,63,60,40
1,35,127,0
1,44,85,0
1,40,127,0
1,44,90,0
1,77,60,0
1,40,127,0
1,44,85,0
1,42,90,0
1,35,127,40
1,62,60,0
1,44,85,0
1,44,90,0
1,77,60,40
1,44,85,0
1,44,90,0
1,40,127,40
1,63,60,0
1,44,85,0
1,42,90,0
1,77,60,40
1,44,85,0
1,44,90,0
1,35,127,40
1,62,60,0
1,44,85,0
1,42,90,0
1,77,60,40
1,44,85,0
1,44,90,0
1,40,127,40
1,63,60,0
1,44,85,0
1,44,90,0
1,77,60,40
1,44,85,0
1,42,90,0
1,35,127,40
1,62,60,0
1,44,85,0
1,44,90,0
1,77,60,40
1,44,85,0
1,44,90,0
1,40,127,40
1,63,60,0
1,44,85,0
1,42,90,0
1,77,60,40
1,44,85,0
1,35,127,0
1,44,90,0
1,35,85,0
1,62,60,0
1,44,85,0
1,42,90,0
1,35,127,40
1,77,60,0
1,44,85,0
1,44,90,0
1,40,127,40
1,63,60,0
1,44,85,0
1,44,90,0
1,77,60,40
1,44,85,0
1,42,90,0
1,35,127,40
1,62,60,0
1,44,85,0
1,44,90,0
1,77,60,40
1,44,85,0
1,44,90,0
1,40,127,40
1,63,60,0
1,44,85,0
1,42,90,0
1,77,60,40
1,44,85,0
1,35,127,0
1,44,90,0
1,35,127,0
1,62,60,0
1,44,85,0
1,42,90,0
1,35,127,40
1,77,60,0
1,44,85,0
1,44,90,0
1,40,127,40
1,63,60,0
1,44,85,0
1,44,90,0
1,77,60,40
1,44,85,0
1,42,90,0
1,35,127,40
1,62,60,0
1,44,85,0
1,44,90,0
1,77,60,40
1,44,85,0
1,44,90,0
1,40,127,40
1,63,60,0
1,44,85,0
1,42,90,0
1,77,60,40
1,44,85,0
1,35,85,0
1,44,90,0
1,62,60,0
1,35,127,0
1,44,85,0
1,40,85,0
1,42,90,0
1,77,60,0
1,46,80,0
1,35,85,0
1,44,85,0
1,44,90,0
1,63,60,40
1,35,85,0
1,40,127,0
1,44,85,0
1,44,90,0
1,77,60,40
1,46,80,0
1,35,85,0
1,44,85,0
1,40,85,0
1,42,90,0
1,62,60,0
1,35,127,0
1,44,85,0
1,44,90,0
1,77,60,40
1,44,85,0
1,44,90,0
1,40,127,40
1,63,60,0
1,44,85,0
1,42,90,0
1,77,60,40
1,44,85,0
1,44,90,0
1,35,127,40
1,62,60,0
1,44,85,0
1,42,90,0
1,77,60,40
1,44,85,0
1,44,90,0
1,40,127,40
1,63,60,0
1,44,85,0
1,44,90,0
1,77,60,40
1,44,85,0
1,42,90,0
1,35,127,40
1,62,60,0
1,44,85,0
1,44,90,0
1,77,60,40
1,44,85,0
1,44,90,0
1,40,127,40
1,63,60,0
1,44,85,0
1,42,90,0
1,77,60,40
1,44,85,0
1,35,127,0
1,44,90,0
1,35,85,0
1,62,60,0
1,44,85,0
1,42,90,0
1,35,127,40
1,77,60,0
1,44,85,0
1,44,90,0
1,40,127,40
1,63,60,0
1,44,85,0
1,44,90,0
1,77,60,40
1,44,85,0
1,42,90,0
1,35,127,40
1,62,60,0
1,44,85,0
1,44,90,0
1,77,60,40
1,44,85,0
1,44,90,0
1,40,127,40
1,63,60,0
1,44,85,0
1,42,90,0
1,77,60,40
1,44,85,0
1,35,127,0
1,44,90,0
1,35,127,0
1,62,60,0
1,44,85,0
1,42,90,0
1,35,127,40
1,77,60,0
1,44,85,0
1,44,90,0
1,40,127,40
1,63,60,0
1,44,85,0
1,44,90,0
1,77,60,40
1,44,85,0
1,42,90,0
1,62,60,40
1,44,85,0
1,40,127,0
1,44,90,0
1,77,60,40
1,44,85,0
1,35,127,0
1,44,90,0
1,63,60,40
1,44,90,0
1,40,127,0
1,77,60,120
1,44,90,0
1,35,127,0
1,62,60,120
1,44,90,0
1,40,127,0
1,77,60,120
1,44,90,0
1,35,127,0
1,35,127,0
1,63,60,0
1,44,90,0
1,40,127,0
1,77,60,120
1,44,90,0
1,35,127,0
1,44,127,120
1,35,127,0
1,44,127,120
1,44,127,120
1,40,127,0
1,44,127,120
1,35,127,0
1,44,127,120
1,35,127,0
1,44,127,120
1,44,127,120
1,40,127,0
1,44,127,120
1,44,127,120
1,35,127,0
1,44,127,120
1,44,127,120
1,40,127,0
1,44,127,120
1,44,127,120
1,35,127,0
1,35,127,120
1,46,127,0
1,40,127,120
1,44,127,0
1,44,127,120
1,35,127,120
1,44,127,0
1,44,127,120
1,44,127,120
1,40,127,0
1,44,127,120
1,35,127,0
1,44,127,120
1,35,127,0
1,44,127,120
1,44,127,120
1,40,127,0
1,44,127,120
1,44,127,120
1,35,127,0
1,44,127,120
1,44,127,120
1,40,127,0
1,44,127,120
1,35,85,0
1,44,127,0
1,35,127,0
1,40,85,0
1,44,127,0
1,35,85,0
1,44,127,120
1,35,85,0
1,40,127,0
1,44,127,120
1,35,85,0
1,40,85,0
1,35,127,0
1,44,127,0
1,44,127,120
1,44,127,120
1,40,127,0
1,44,127,120
1,35,127,0
1,44,127,120
1,35,127,0
1,44,127,120
1,44,127,120
1,40,127,0
1,44,127,120
1,44,127,120
1,35,127,0
1,44,127,120
1,44,127,120
1,40,127,0
1,44,127,120
1,44,127,120
1,35,127,0
1,35,127,120
1,46,127,0
1,44,127,120
1,40,127,0
1,44,127,120
1,35,127,120
1,44,127,0
1,44,127,120
1,44,127,120
1,40,127,0
1,44,127,120
1,35,127,0
1,44,127,120
1,35,127,0
1,44,127,120
1,44,127,120
1,40,127,0
1,44,127,120
1,44,127,120
1,35,127,0
1,44,127,120
1,44,127,120
1,40,127,0
1,44,127,120
1,35,85,0
1,44,127,0
1,35,127,0
1,40,85,0
1,44,127,0
1,35,85,0
1,44,127,120
1,40,127,0
1,40,127,0
1,44,127,0
1,35,85,0
1,49,127,120
1,35,127,0
1,44,127,0
1,44,127,120
1,44,127,120
1,40,127,0
1,44,127,120
1,35,127,0
1,44,127,120
1,35,127,0
1,44,127,120
1,44,127,120
1,40,127,0
1,44,127,120
1,44,127,120
1,35,127,0
1,44,127,120
1,44,127,120
1,40,127,0
1,44,127,120
1,44,127,120
1,35,127,0
1,35,127,120
1,46,127,0
1,44,127,120
1,40,127,0
1,44,127,120
1,35,127,120
1,44,127,0
1,44,127,120
1,44,127,120
1,40,127,0
1,44,127,120
1,35,127,0
1,44,127,120
1,35,127,0
1,44,127,120
