track,note,velocity,time
0,88,103,0
0,52,50,0
0,83,103,384
0,81,103,384
0,86,103,256
0,83,103,0
0,55,50,0
0,76,103,128
0,74,103,128
0,52,50,0
0,79,103,128
0,76,103,0
0,52,50,0
0,71,103,128
0,69,103,128
0,74,103,128
0,71,103,0
0,55,50,0
0,64,103,128
0,62,103,384
0,52,50,0
0,40,100,32
0,36,100,0
0,40,100,32
0,36,100,0
0,67,103,0
0,36,100,128
0,57,100,0
0,36,100,0
0,44,103,0
0,42,51,0
0,38,100,0
0,64,103,0
0,52,50,0
0,93,70,0
0,69,100,0
0,44,103,32
0,50,100,0
0,67,100,0
0,44,103,32
0,36,100,0
0,69,100,0
0,44,103,32
0,67,100,0
0,39,80,32
0,40,100,0
0,36,100,0
0,44,103,0
0,38,100,0
0,69,100,0
0,42,51,32
0,44,103,32
0,42,51,32
0,33,100,0
0,72,100,0
0,36,100,32
0,44,103,0
0,38,100,0
0,76,127,0
0,42,51,32
0,74,100,0
0,44,103,32
0,38,100,0
0,42,51,32
0,76,100,0
0,39,80,32
0,40,100,0
0,36,100,0
0,44,103,0
0,38,100,0
0,42,51,32
0,44,103,32
0,39,100,0
0,42,51,4
0,40,100,0
0,88,103,0
0,36,100,0
0,44,103,0
0,81,70,0
0,42,51,32
0,44,103,32
0,40,100,0
0,42,51,32
0,39,80,32
0,40,100,0
0,36,100,0
0,44,103,0
0,40,100,0
0,76,100,0
0,42,51,32
0,77,100,0
0,44,103,32
0,42,51,32
0,79,100,0
0,36,100,32
0,44,103,0
0,33,100,0
0,42,51,32
0,76,100,0
0,44,103,32
0,42,51,32
0,45,100,0
0,72,100,0
0,39,80,32
0,40,100,0
0,36,100,0
0,44,103,0
0,43,100,0
0,42,51,32
0,44,103,32
0,42,51,32
0,26,100,0
0,76,100,0
0,36,100,0
0,44,103,0
0,38,100,0
0,88,70,0
0,42,51,32
0,50,100,0
0,74,100,0
0,44,103,32
0,46,103,0
0,36,100,0
0,74,100,32
0,39,80,96
0,40,100,0
0,36,100,0
0,44,103,0
0,38,100,0
0,42,51,32
0,44,103,32
0,42,51,32
0,33,100,0
0,36,100,32
0,44,103,0
0,38,100,0
0,44,103,32
0,42,51,0
0,44,103,32
0,38,100,0
0,42,51,32
0,39,80,32
0,40,100,0
0,36,100,0
0,44,103,0
0,38,100,0
0,69,100,0
0,42,51,32
0,72,100,0
0,44,103,32
0,39,100,0
0,42,51,32
0,40,100,0
0,75,100,0
0,36,100,0
0,44,103,0
0,76,70,0
0,42,51,32
0,74,100,0
0,44,103,32
0,40,100,0
0,42,51,32
0,74,100,0
0,39,80,32
0,40,100,0
0,36,100,0
0,44,103,0
0,40,100,0
0,42,51,32
0,44,103,32
0,42,51,32
0,36,100,32
0,44,103,0
0,33,100,0
0,42,51,32
0,44,103,32
0,42,51,32
0,45,100,0
0,39,80,32
0,40,100,0
0,36,100,0
0,44,103,0
0,43,100,0
0,42,51,32
0,44,103,32
0,42,51,32
0,26,100,0
0,76,100,0
0,36,100,0
0,44,103,0
0,60,70,0
0,38,100,0
0,74,70,0
0,46,103,32
0,50,100,0
0,74,100,0
0,44,103,32
0,50,70,0
0,36,100,0
0,42,51,32
0,64,70,0
0,39,80,32
0,40,100,0
0,36,100,0
0,44,103,0
0,62,70,0
0,38,100,0
0,42,51,32
0,60,70,0
0,44,103,32
0,62,70,0
0,44,127,32
0,64,70,0
0,33,100,0
0,36,100,32
0,44,103,0
0,60,70,0
0,38,100,0
0,74,70,0
0,42,51,32
0,62,70,0
0,44,103,32
0,64,70,0
0,38,100,0
0,42,51,32
0,62,70,0
0,39,80,28
0,40,100,0
0,36,100,0
0,44,103,0
0,60,70,0
0,38,100,0
0,81,127,0
0,69,70,0
0,42,51,16
0,62,70,0
0,69,100,0
0,44,103,32
0,64,70,0
0,39,100,0
0,42,51,32
0,64,70,0
0,40,100,0
0,76,100,0
0,76,100,0
0,36,100,32
0,44,103,0
0,60,70,0
0,42,51,32
0,74,100,0
0,44,103,32
0,50,70,0
0,40,100,0
0,42,51,32
0,64,70,0
0,39,80,32
0,40,100,0
0,36,100,0
0,44,103,0
0,62,70,0
0,40,100,0
0,69,95,0
0,42,51,32
0,60,70,0
0,44,103,32
0,62,70,0
0,44,103,32
0,64,70,0
0,36,100,32
0,44,103,0
0,60,70,0
0,33,100,0
0,42,51,32
0,62,70,0
0,44,103,32
0,50,70,0
0,42,51,32
0,62,70,0
0,45,100,0
0,39,80,28
0,40,100,0
0,36,100,0
0,44,103,0
0,60,70,0
0,43,100,0
0,42,51,32
0,62,70,0
0,69,100,0
0,44,103,32
0,64,70,0
0,42,51,32
0,64,70,0
0,26,100,0
0,76,100,0
0,36,100,32
0,44,103,0
0,60,70,0
0,38,100,0
0,74,70,0
0,72,100,0
0,42,51,32
0,62,70,0
0,50,100,0
0,44,103,24
0,46,103,0
0,50,70,0
0,36,100,0
0,74,100,0
0,60,70,32
0,39,80,32
0,40,100,0
0,36,100,0
0,44,103,0
0,60,70,0
0,38,100,0
0,42,51,32
0,62,70,0
0,44,103,32
0,60,70,0
0,44,103,32
0,50,70,0
0,33,100,0
0,36,100,32
0,44,103,0
0,60,70,0
0,38,100,0
0,74,70,0
0,42,51,32
0,62,70,0
0,44,103,32
0,64,70,0
0,38,100,0
0,42,51,32
0,60,70,0
0,39,80,32
0,40,100,0
0,36,100,0
0,44,103,0
0,60,70,0
0,38,100,0
0,81,70,0
0,69,127,0
0,42,51,28
0,62,70,0
0,44,103,32
0,64,70,0
0,39,100,0
0,42,51,32
0,62,70,0
0,40,100,0
0,76,100,0
0,36,100,32
0,44,103,0
0,60,70,0
0,42,51,32
0,62,70,0
0,44,103,32
0,50,70,0
0,40,100,0
0,42,61,32
0,64,70,0
0,39,80,32
0,40,100,0
0,36,100,0
0,44,103,0
0,62,70,0
0,40,100,0
0,69,95,0
0,42,72,32
0,60,70,0
0,44,103,32
0,62,70,0
0,42,82,32
0,64,70,0
0,36,100,32
0,44,103,0
0,60,70,0
0,33,100,0
0,42,92,32
0,62,70,0
0,44,103,32
0,64,70,0
0,40,70,32
0,36,100,0
0,42,103,0
0,62,70,0
0,45,100,0
0,39,80,32
0,40,100,0
0,36,100,0
0,44,103,0
0,60,70,0
0,43,100,0
0,42,103,32
0,62,70,0
0,40,70,32
0,36,100,0
0,44,103,0
0,64,70,0
0,40,100,32
0,36,100,0
0,42,103,0
0,64,70,0
0,26,100,0
0,57,100,32
0,36,100,0
0,44,103,0
0,42,51,0
0,60,70,0
0,38,100,0
0,88,60,0
0,62,70,32
0,50,100,0
0,44,103,32
0,46,103,0
0,50,70,0
0,36,100,0
0,60,70,32
0,39,80,32
0,40,100,0
0,36,100,0
0,44,103,0
0,60,70,0
0,38,100,0
0,42,51,32
0,62,70,0
0,44,103,32
0,60,70,0
0,42,51,32
0,50,70,0
0,33,100,0
0,36,100,32
0,44,103,0
0,60,70,0
0,38,100,0
0,42,51,32
0,62,70,0
0,44,103,32
0,64,70,0
0,38,100,0
0,42,51,32
0,60,70,0
0,39,80,32
0,40,100,0
0,36,100,0
0,44,103,0
0,60,70,0
0,38,100,0
0,42,51,32
0,62,70,0
0,44,103,32
0,64,70,0
0,39,100,0
0,42,51,32
0,62,70,0
0,40,100,0
0,36,100,0
0,44,103,0
0,60,70,0
0,100,60,0
0,42,51,32
0,62,70,0
0,44,103,32
0,50,70,0
0,40,100,0
0,42,51,32
0,64,70,0
0,39,80,32
0,40,100,0
0,36,100,0
0,36,100,0
0,44,103,0
0,62,70,0
0,40,100,0
0,42,51,32
0,60,70,0
0,44,103,32
0,62,70,0
0,42,51,32
0,64,70,0
0,36,100,32
0,44,103,0
0,60,70,0
0,33,100,0
0,42,51,32
0,62,70,0
0,44,103,32
0,64,70,0
0,42,51,32
0,62,70,0
0,45,100,0
0,39,80,32
0,40,100,0
0,36,100,0
0,36,100,0
0,44,103,0
0,60,70,0
0,43,100,0
0,42,51,32
0,62,70,0
0,44,103,32
0,64,70,0
0,42,51,32
0,62,70,0
0,26,100,0
0,36,100,0
0,44,103,0
0,60,70,0
0,38,100,0
0,103,60,0
0,42,51,32
0,50,100,0
0,44,103,32
0,46,103,0
0,50,70,0
0,36,100,0
0,64,70,32
0,39,80,96
0,40,100,0
0,36,100,0
0,36,100,0
0,44,103,0
0,62,70,0
0,38,100,0
0,42,51,32
0,60,70,0
0,44,103,32
0,62,70,0
0,42,51,32
0,64,70,0
0,33,100,0
0,36,100,32
0,44,103,0
0,60,70,0
0,38,100,0
0,44,103,32
0,42,51,0
0,62,70,0
0,44,103,32
0,64,70,0
0,38,100,0
0,42,51,32
0,62,70,0
0,39,80,32
0,40,100,0
0,36,100,0
0,36,100,0
0,44,103,0
0,60,70,0
0,38,100,0
0,42,51,32
0,62,70,0
0,44,103,32
0,64,70,0
0,39,100,0
0,42,51,32
0,64,70,0
0,40,100,0
0,36,100,0
0,44,103,0
0,60,70,0
0,88,60,0
0,42,51,32
0,44,103,32
0,50,70,0
0,40,100,0
0,42,51,32
0,64,70,0
0,39,80,32
0,40,100,0
0,36,100,0
0,36,100,0
0,44,103,0
0,62,70,0
0,40,100,0
0,42,51,32
0,60,70,0
0,44,103,32
0,62,70,0
0,42,51,32
0,64,70,0
0,36,100,32
0,44,103,0
0,60,70,0
0,33,100,0
0,42,51,32
0,62,70,0
0,44,103,32
0,50,70,0
0,42,51,32
0,62,70,0
0,45,100,0
0,39,80,32
0,40,100,0
0,36,100,0
0,36,100,0
0,44,103,0
0,60,70,0
0,43,100,0
0,42,51,32
0,62,70,0
0,44,103,32
0,64,70,0
0,42,51,32
0,64,70,0
0,26,100,0
0,36,100,0
0,44,103,0
0,60,70,0
0,38,100,0
0,76,55,0
0,46,103,32
0,62,70,0
0,50,100,0
0,44,103,32
0,50,70,0
0,36,100,0
0,42,51,32
0,60,70,0
0,39,80,32
0,40,100,0
0,36,100,0
0,44,103,0
0,60,70,0
0,38,100,0
0,42,51,32
0,62,70,0
0,44,103,32
0,60,70,0
0,44,127,32
0,50,70,0
0,33,100,0
0,36,100,32
0,44,103,0
0,60,70,0
0,38,100,0
0,42,51,32
0,62,70,0
0,44,103,32
0,64,70,0
0,38,100,0
0,42,51,32
0,60,70,0
0,39,80,32
0,40,100,0
0,36,100,0
0,44,103,0
0,60,70,0
0,38,100,0
0,42,51,32
0,62,70,0
0,44,103,32
0,64,70,0
0,39,100,0
0,42,51,32
0,62,70,0
0,40,100,0
0,36,100,0
0,44,103,0
0,60,70,0
0,88,50,0
0,42,51,32
0,62,70,0
0,44,103,32
0,50,70,0
0,40,100,0
0,42,51,32
0,64,70,0
0,39,80,32
0,40,100,0
0,36,100,0
0,44,103,0
0,62,70,0
0,40,100,0
0,42,51,32
0,60,70,0
0,44,103,32
0,62,70,0
0,44,103,32
0,64,70,0
0,36,100,32
0,44,103,0
0,60,70,0
0,33,100,0
0,46,103,32
0,62,70,0
0,44,103,32
0,64,70,0
0,42,51,32
0,62,70,0
0,45,100,0
0,39,80,32
0,40,100,0
0,36,100,0
0,44,103,0
0,60,70,0
0,43,100,0
0,42,51,32
0,62,70,0
0,44,103,32
0,64,70,0
0,42,51,32
0,64,70,0
0,26,100,0
0,36,100,0
0,44,103,0
0,60,70,0
0,38,100,0
0,93,45,0
0,42,51,32
0,62,70,0
0,50,100,0
0,44,103,32
0,46,103,0
0,50,70,0
0,36,100,0
0,60,70,32
0,39,80,32
0,40,100,0
0,36,100,0
0,44,103,0
0,60,70,0
0,38,100,0
0,42,51,32
0,62,70,0
0,44,103,32
0,60,70,0
0,44,103,32
0,50,70,0
0,33,100,0
0,36,100,32
0,44,103,0
0,60,70,0
0,38,100,0
0,42,51,32
0,62,70,0
0,44,103,32
0,64,70,0
0,38,100,0
0,42,51,32
0,60,70,0
0,39,80,32
0,40,100,0
0,36,100,0
0,44,103,0
0,60,70,0
0,38,100,0
0,42,51,32
0,62,70,0
0,44,103,32
0,64,70,0
0,39,100,0
0,42,51,32
0,62,70,0
0,40,100,0
0,36,100,0
0,44,103,0
0,60,70,0
0,88,40,0
0,42,51,32
0,62,70,0
0,44,103,32
0,50,70,0
0,40,100,0
0,42,61,32
0,64,70,0
0,39,80,32
0,40,100,0
0,36,100,0
0,44,103,0
0,62,70,0
0,40,100,0
0,42,72,32
0,60,70,0
0,44,103,32
0,62,70,0
0,42,82,32
0,64,70,0
0,36,100,32
0,44,103,0
0,60,70,0
0,33,100,0
0,46,103,32
0,62,70,0
0,44,103,32
0,64,70,0
0,40,110,32
0,36,100,0
0,42,103,0
0,62,70,0
0,45,100,0
0,39,80,32
0,40,127,0
0,36,100,0
0,44,103,0
0,60,70,0
0,43,100,0
0,42,103,32
0,62,70,0
0,40,100,32
0,36,100,0
0,44,103,0
0,64,70,0
0,40,127,32
0,36,100,0
0,42,103,0
0,62,70,0
0,27,100,0
0,57,115,0
0,36,100,0
0,44,103,0
0,42,51,0
0,60,70,0
0,39,100,0
0,65,82,0
0,65,60,0
0,44,103,32
0,51,100,0
0,44,103,32
0,50,70,0
0,37,100,0
0,44,103,32
0,64,70,0
0,75,30,0
0,63,20,0
0,39,80,32
0,40,100,0
0,36,100,0
0,44,103,0
0,62,70,0
0,39,100,0
0,42,51,32
0,60,70,0
0,44,103,32
0,62,70,0
0,42,51,32
0,64,70,0
0,34,100,0
0,36,100,32
0,44,103,0
0,60,70,0
0,39,100,0
0,70,82,0
0,65,60,0
0,42,51,32
0,62,70,0
0,44,103,32
0,64,70,0
0,39,100,0
0,42,51,32
0,62,70,0
0,75,30,0
0,63,20,0
0,39,80,32
0,40,100,0
0,36,100,0
0,44,103,0
0,60,70,0
0,39,100,0
0,42,51,32
0,62,70,0
0,44,103,32
0,64,70,0
0,39,100,0
0,42,51,32
0,64,70,0
0,41,100,0
0,36,100,0
0,44,103,0
0,60,70,0
0,68,82,0
0,68,60,0
0,42,51,32
0,44,103,32
0,50,70,0
0,41,100,0
0,66,30,0
0,42,51,32
0,64,70,0
0,39,80,32
0,40,100,0
0,36,100,0
0,44,103,0
0,62,70,0
0,41,100,0
0,65,60,0
0,42,51,32
0,60,70,0
0,44,103,32
0,62,70,0
0,63,60,0
0,42,51,32
0,64,70,0
0,65,60,0
0,36,100,32
0,44,103,0
0,60,70,0
0,34,100,0
0,75,82,0
0,42,51,32
0,62,70,0
0,44,103,32
0,50,70,0
0,42,51,32
0,62,70,0
0,46,100,0
0,39,80,32
0,40,100,0
0,36,100,0
0,44,103,0
0,60,70,0
0,44,100,0
0,42,51,32
0,62,70,0
0,44,103,32
0,64,70,0
0,42,51,32
0,64,70,0
0,27,100,0
0,36,100,0
0,44,103,0
0,60,70,0
0,39,100,0
0,70,82,0
0,65,60,0
0,42,51,32
0,62,70,0
0,51,100,0
0,44,103,32
0,46,103,0
0,50,70,0
0,37,100,0
0,66,55,0
0,60,70,32
0,39,80,32
0,40,100,0
0,36,100,0
0,44,103,0
0,60,70,0
0,39,100,0
0,63,60,0
0,42,51,32
0,62,70,0
0,44,103,32
0,60,70,0
0,42,51,32
0,50,70,0
0,34,100,0
0,36,100,32
0,44,103,0
0,60,70,0
0,39,100,0
0,65,82,0
0,65,60,0
0,44,103,32
0,42,51,0
0,62,70,0
0,66,60,0
0,44,103,32
0,64,70,0
0,39,100,0
0,42,51,32
0,60,70,0
0,63,60,0
0,39,80,32
0,40,100,0
0,36,100,0
0,44,103,0
0,60,70,0
0,39,100,0
0,42,51,32
0,62,70,0
0,44,103,32
0,64,70,0
0,39,100,0
0,42,51,32
0,62,70,0
0,41,100,0
0,36,100,0
0,44,103,0
0,60,70,0
0,63,82,0
0,68,60,0
0,42,51,32
0,62,70,0
0,44,103,32
0,50,70,0
0,41,100,0
0,66,30,0
0,42,51,32
0,60,70,0
0,39,80,32
0,40,100,0
0,36,100,0
0,44,103,0
0,60,70,0
0,41,100,0
0,65,60,0
0,42,51,32
0,62,70,0
