track,note,velocity,time
1,38,127,1920
1,38,127,0
1,38,127,0
1,33,92,0
1,35,127,0
1,38,127,0
1,38,127,0
1,38,127,0
1,38,127,0
1,38,122,0
1,35,122,0
1,33,125,0
1,31,112,0
1,31,125,0
1,31,122,0
1,26,104,0
1,28,120,0
1,31,127,0
1,31,127,0
1,31,127,0
1,31,120,0
1,31,127,0
1,33,110,0
1,35,120,0
1,38,127,0
1,38,127,0
1,38,127,0
1,33,120,0
1,35,127,0
1,38,127,0
1,38,127,0
1,38,127,0
1,38,127,0
1,38,125,0
1,33,117,0
1,35,127,0
1,31,122,0
1,31,127,0
1,31,122,0
1,26,106,0
1,28,127,0
1,31,127,0
1,31,122,0
1,31,104,0
1,31,125,0
1,31,120,0
1,33,122,0
1,35,127,0
1,38,127,0
1,38,127,0
1,38,127,0
1,33,92,0
1,35,127,0
1,38,127,0
1,38,127,0
1,38,127,0
1,38,127,0
1,38,122,0
1,35,122,0
1,33,125,0
1,31,112,0
1,31,125,0
1,31,122,0
1,26,104,0
1,28,120,0
1,31,127,0
1,31,127,0
1,31,127,0
1,31,120,0
1,31,127,0
1,33,110,0
1,35,120,0
1,38,127,0
1,38,127,0
1,38,127,0
1,33,120,0
1,35,127,0
1,38,127,0
1,38,127,0
1,38,127,0
1,38,127,0
1,38,125,0
1,33,117,0
1,35,127,0
1,31,122,0
1,31,127,0
1,31,122,0
1,26,106,0
1,28,127,0
1,31,127,0
1,31,122,0
1,31,104,0
1,31,125,0
1,31,120,0
1,33,122,0
1,35,127,0
1,36,127,0
1,36,127,0
1,36,127,0
1,36,120,0
1,36,127,0
1,36,127,0
1,36,127,0
1,36,127,0
1,36,127,0
1,36,125,0
1,33,117,0
1,35,127,0
1,38,122,0
1,38,127,0
1,38,122,0
1,33,106,0
1,35,127,0
1,38,127,0
1,38,122,0
1,38,104,0
1,38,125,0
1,38,120,0
1,33,122,0
1,35,127,0
1,36,125,0
1,36,114,0
1,36,127,0
1,36,127,0
1,31,127,0
1,31,114,1200
1,31,127,0
1,38,122,0
1,38,127,0
1,38,122,0
1,33,106,0
1,35,127,0
1,38,127,0
1,38,122,0
1,38,104,0
1,38,125,0
1,38,120,0
1,33,122,0
1,35,127,0
1,36,125,0
1,36,114,0
1,36,127,0
1,36,127,0
1,31,127,0
1,31,114,1200
1,31,127,0
1,38,122,0
1,38,127,0
1,38,122,0
1,33,106,0
1,35,127,0
1,38,127,0
1,38,122,0
1,38,104,0
1,38,125,0
1,38,120,0
1,33,122,0
1,35,127,0
1,38,127,0
1,38,127,0
1,38,127,0
1,33,92,0
1,35,127,0
1,38,127,0
1,38,127,0
1,38,127,0
1,38,127,0
1,38,122,0
1,35,122,0
1,33,125,0
1,31,112,0
1,31,125,0
1,31,122,0
1,26,104,0
1,28,120,0
1,31,127,0
1,31,127,0
1,31,127,0
1,31,120,0
1,31,127,0
1,33,110,0
1,35,120,0
1,38,127,0
1,38,127,0
1,38,127,0
1,33,120,0
1,35,127,0
1,38,127,0
1,38,127,0
1,38,127,0
1,38,127,0
1,38,125,0
1,33,117,0
1,35,127,0
1,31,122,0
1,31,127,0
1,31,122,0
1,26,106,0
1,28,127,0
1,31,127,0
1,31,122,0
1,31,104,0
1,31,125,0
1,31,120,0
1,33,122,0
1,35,127,0
1,38,127,0
1,38,127,0
1,38,127,0
1,33,92,0
1,35,127,0
1,38,127,0
1,38,127,0
1,38,127,0
1,38,127,0
1,38,122,0
1,35,122,0
1,33,125,0
1,31,112,0
1,31,125,0
1,31,122,0
1,26,104,0
1,28,120,0
1,31,127,0
1,31,127,0
1,31,127,0
1,31,120,0
1,31,127,0
1,33,110,0
1,35,120,0
1,38,127,0
1,38,127,0
1,38,127,0
1,33,120,0
1,35,127,0
1,38,127,0
1,38,127,0
1,38,127,0
1,38,127,0
1,38,125,0
1,33,117,0
1,35,127,0
1,31,122,0
1,31,127,0
1,31,122,0
1,26,106,0
1,28,127,0
1,31,127,0
1,31,122,0
1,31,104,0
1,31,125,0
1,31,120,0
1,33,122,0
1,35,127,0
1,36,127,0
1,36,127,0
1,36,127,0
1,36,120,0
1,36,127,0
1,36,127,0
1,36,127,0
1,36,127,0
1,36,127,0
1,36,125,0
1,33,117,0
1,35,127,0
1,38,122,0
1,38,127,0
1,38,122,0
1,33,106,0
1,35,127,0
1,38,127,0
1,38,122,0
1,38,104,0
1,38,125,0
1,38,120,0
1,33,122,0
1,35,127,0
1,36,125,0
1,36,114,0
1,36,127,0
1,36,127,0
1,31,127,0
1,31,114,1200
1,31,127,0
1,38,122,0
1,38,127,0
1,38,122,0
1,33,106,0
1,35,127,0
1,38,127,0
1,38,122,0
1,38,104,0
1,38,125,0
1,38,120,0
1,33,122,0
1,35,127,0
1,36,125,0
1,36,114,0
1,36,127,0
1,36,127,0
1,31,127,0
1,31,114,1200
1,31,127,0
1,38,122,0
1,38,127,0
1,38,122,0
1,33,106,0
1,35,127,0
1,38,127,0
1,38,122,0
1,38,104,0
1,38,125,0
1,38,120,0
1,33,122,0
1,35,127,0
1,38,127,0
1,38,127,0
1,38,127,0
1,33,92,0
1,35,127,0
1,38,127,0
1,38,127,0
1,38,127,0
1,38,127,0
1,38,122,0
1,35,122,0
1,33,125,0
1,31,112,0
1,31,125,0
1,31,122,0
1,26,104,0
1,28,120,0
1,31,127,0
1,31,127,0
1,31,127,0
1,31,120,0
1,31,127,0
1,33,110,0
1,35,120,0
1,38,127,0
1,38,127,0
1,38,127,0
1,33,120,0
1,35,127,0
1,38,127,0
1,38,127,0
1,38,127,0
1,38,127,0
1,38,125,0
1,33,117,0
1,35,127,0
1,31,122,0
1,31,127,0
1,31,122,0
1,26,106,0
1,28,127,0
1,31,127,0
1,31,122,0
1,31,104,0
1,31,125,0
1,31,120,0
1,33,122,0
1,35,127,0
1,36,127,0
1,36,127,0
1,36,127,0
1,36,120,0
1,36,127,0
1,36,127,0
1,36,127,0
1,36,127,0
1,36,127,0
1,36,125,0
1,33,117,0
1,35,127,0
1,38,122,0
1,38,127,0
1,38,122,0
1,33,106,0
1,35,127,0
1,38,127,0
1,38,122,0
1,38,104,0
1,38,125,0
1,38,120,0
1,33,122,0
1,35,127,0
1,36,125,0
1,36,114,0
1,36,127,0
1,36,127,0
1,31,127,0
1,31,114,1200
1,31,127,0
1,38,122,0
1,38,127,0
1,38,122,0
1,33,106,0
1,35,127,0
1,38,127,0
1,38,122,0
1,38,104,0
1,38,125,0
1,38,120,0
1,33,122,0
1,35,127,0
1,36,125,0
1,36,114,0
1,36,127,0
1,36,127,0
1,31,127,0
1,31,114,1200
1,31,127,0
1,38,122,0
1,38,127,0
1,38,122,0
1,33,106,0
1,35,127,0
1,38,127,0
1,38,122,0
1,38,104,0
1,38,125,0
1,38,120,0
1,33,122,0
1,35,127,0
1,36,125,0
1,36,114,0
1,36,127,0
1,36,127,0
1,31,127,0
1,31,114,1200
1,31,127,0
1,38,127,0
1,36,127,0
2,74,127,1440
2,81,127,480
2,83,127,0
2,81,127,0
2,83,127,0
2,81,127,0
2,74,127,0
2,81,127,480
2,83,127,0
2,81,127,0
2,83,127,0
2,81,127,0
2,74,127,0
2,81,127,480
2,83,127,0
2,81,127,0
2,83,127,0
2,81,127,0
2,74,127,0
2,81,127,480
2,83,127,0
2,81,127,0
2,83,127,0
2,81,127,0
2,79,127,0
2,74,127,0
2,72,127,13
2,79,127,0
2,78,127,0
2,74,127,0
2,79,127,0
2,72,127,0
2,79,127,0
2,74,127,0
2,78,127,0
2,74,127,0
2,79,127,0
2,72,127,0
2,79,127,0
2,74,127,0
2,78,127,0
2,74,127,0
2,74,127,3360
2,81,127,0
2,83,127,0
2,81,127,0
2,83,127,0
2,81,127,0
2,74,127,0
2,81,127,480
2,83,127,0
2,81,127,0
2,83,127,0
2,81,127,0
2,74,127,0
2,81,127,480
2,83,127,0
2,81,127,0
2,83,127,0
2,81,127,0
2,74,127,0
2,81,127,480
2,83,127,0
2,81,127,0
2,83,127,0
2,81,127,0
2,79,127,0
2,74,127,0
2,72,127,13
2,79,127,0
2,78,127,0
2,74,127,0
2,79,127,0
2,72,127,0
2,79,127,0
2,74,127,0
2,78,127,0
2,74,127,0
2,79,127,0
2,72,127,0
2,79,127,0
2,74,127,0
2,74,127,3360
2,81,127,480
2,83,127,0
2,81,127,0
2,83,127,0
2,81,127,0
2,74,127,0
2,81,127,480
2,83,127,0
2,81,127,0
2,83,127,0
2,81,127,0
2,79,127,0
2,74,127,0
2,72,127,13
2,79,127,0
2,78,127,0
2,74,127,0
2,79,127,0
2,72,127,0
2,79,127,0
2,74,127,0
2,78,127,0
2,74,127,0
2,79,127,0
2,72,127,0
2,79,127,0
2,74,127,0
2,79,127,3840
2,72,127,0
2,79,127,0
2,74,127,0
2,69,108,0
2,81,106,0
2,66,99,0
2,62,88,0
2,74,114,0
2,78,104,0
3,54,127,1920
3,50,127,0
3,62,127,0
3,57,127,0
3,50,127,0
3,50,127,0
3,62,127,0
3,57,127,0
3,54,127,0
3,50,127,0
3,54,127,0
3,62,127,0
3,50,127,0
3,57,127,0
3,54,127,0
3,50,127,0
3,67,127,0
3,54,127,0
3,50,127,0
3,66,127,0
3,57,127,0
3,54,127,0
3,62,127,0
3,64,127,0
3,50,127,240
3,54,127,0
3,66,127,0
3,57,127,0
3,50,127,0
3,62,127,0
3,54,127,0
3,50,127,0
3,62,127,0
3,57,127,0
3,54,127,0
3,50,127,0
3,62,127,0
3,50,127,0
3,57,127,0
3,54,127,0
3,50,127,0
3,54,127,0
3,50,127,0
3,62,127,0
3,54,127,0
3,57,127,0
3,50,127,0
3,54,127,0
3,43,127,0
3,47,127,0
3,50,127,0
3,62,127,0
3,59,127,0
3,55,127,0
3,50,127,0
3,55,127,0
3,62,127,0
3,43,127,0
3,59,127,0
3,47,127,0
3,50,127,0
3,43,127,0
3,47,127,0
3,50,127,0
3,43,127,0
3,55,127,0
3,59,127,0
3,62,127,0
3,67,127,0
3,47,127,0
3,59,127,0
3,62,127,0
3,50,127,0
3,43,127,0
3,47,127,0
3,55,127,0
3,62,127,0
3,59,127,0
3,66,127,0
3,50,127,0
3,64,127,0
3,59,127,0
3,47,127,0
3,43,127,0
3,50,127,0
3,47,127,0
3,50,127,0
3,43,127,0
3,59,127,0
3,55,127,0
3,43,127,0
3,50,127,0
3,47,127,0
3,66,127,0
3,43,127,0
3,50,127,0
3,47,127,0
3,55,127,0
3,62,127,0
3,59,127,0
3,43,127,0
3,50,127,0
3,47,127,0
3,62,127,0
3,59,127,0
3,43,127,0
3,47,127,0
3,50,127,0
3,55,127,0
3,43,127,0
3,50,127,0
3,47,127,0
3,62,127,0
3,59,127,0
3,43,127,0
3,50,127,0
3,47,127,0
3,55,127,0
3,43,127,120
3,47,127,0
3,55,127,0
3,50,127,0
3,54,127,0
3,50,127,0
3,62,127,0
3,57,127,0
3,50,127,0
3,50,127,0
3,62,127,0
3,57,127,0
3,54,127,0
3,50,127,0
3,54,127,0
3,62,127,0
3,50,127,0
3,57,127,0
3,54,127,0
3,50,127,0
3,67,127,0
3,54,127,0
3,50,127,0
3,66,127,0
3,57,127,0
3,54,127,0
3,62,127,0
3,64,127,0
3,50,127,240
3,54,127,0
3,66,127,0
3,57,127,0
3,50,127,0
3,62,127,0
3,54,127,0
3,50,127,0
3,62,127,0
3,57,127,0
3,54,127,0
3,50,127,0
3,62,127,0
3,50,127,0
3,57,127,0
3,54,127,0
3,50,127,0
3,54,127,0
3,50,127,0
3,62,127,0
3,54,127,0
3,57,127,0
3,50,127,0
3,54,127,0
3,43,127,0
3,47,127,0
3,50,127,0
3,62,127,0
3,59,127,0
3,55,127,0
3,50,127,0
3,55,127,0
3,62,127,0
3,43,127,0
3,59,127,0
3,47,127,0
3,50,127,0
3,43,127,0
3,47,127,0
3,50,127,0
3,43,127,0
3,55,127,0
3,59,127,0
3,62,127,0
3,67,127,0
3,47,127,0
3,59,127,0
3,62,127,0
3,50,127,0
3,43,127,0
3,47,127,0
3,55,127,0
3,62,127,0
3,59,127,0
3,66,127,0
3,50,127,0
3,64,127,0
3,59,127,0
3,47,127,0
3,43,127,0
3,50,127,0
3,47,127,0
3,50,127,0
3,43,127,0
3,59,127,0
3,55,127,0
3,43,127,0
3,50,127,0
3,47,127,0
3,66,127,0
3,43,127,0
3,50,127,0
3,47,127,0
3,55,127,0
3,62,127,0
3,59,127,0
3,43,127,0
3,50,127,0
3,47,127,0
3,62,127,0
3,59,127,0
3,43,127,0
3,47,127,0
3,50,127,0
3,55,127,0
3,43,127,0
3,50,127,0
3,47,127,0
3,62,127,0
3,59,127,0
3,43,127,0
3,50,127,0
3,47,127,0
3,55,127,0
3,43,127,120
3,47,127,0
3,55,127,0
3,50,127,0
3,54,127,0
3,50,127,0
3,62,127,0
3,57,127,0
3,50,127,0
3,50,127,0
3,62,127,0
3,57,127,0
3,54,127,0
3,50,127,0
3,54,127,0
3,62,127,0
3,50,127,0
3,57,127,0
3,54,127,0
3,50,127,0
3,67,127,0
3,54,127,0
3,50,127,0
3,66,127,0
3,57,127,0
3,54,127,0
3,62,127,0
3,64,127,0
3,50,127,240
3,54,127,0
3,66,127,0
3,57,127,0
3,50,127,0
3,62,127,0
3,54,127,0
3,50,127,0
3,62,127,0
3,57,127,0
3,54,127,0
3,50,127,0
3,62,127,0
3,50,127,0
3,57,127,0
3,54,127,0
3,50,127,0
3,54,127,0
3,50,127,0
3,62,127,0
3,54,127,0
3,57,127,0
3,50,127,0
3,54,127,0
3,43,127,0
3,47,127,0
3,50,127,0
3,62,127,0
3,59,127,0
3,55,127,0
3,50,127,0
3,55,127,0
3,62,127,0
3,43,127,0
3,59,127,0
3,47,127,0
3,50,127,0
3,43,127,0
3,47,127,0
3,50,127,0
3,43,127,0
3,55,127,0
3,59,127,0
3,62,127,0
3,67,127,0
3,47,127,0
3,59,127,0
3,62,127,0
3,50,127,0
3,43,127,0
3,47,127,0
3,55,127,0
3,62,127,0
3,59,127,0
3,66,127,0
3,50,127,0
3,64,127,0
3,59,127,0
3,47,127,0
3,43,127,0
3,50,127,0
3,47,127,0
3,50,127,0
3,43,127,0
3,59,127,0
3,55,127,0
3,43,127,0
3,50,127,0
3,47,127,0
3,66,127,0
3,43,127,0
3,50,127,0
3,47,127,0
3,55,127,0
3,62,127,0
3,59,127,0
3,43,127,0
3,50,127,0
3,47,127,0
3,62,127,0
3,59,127,0
3,43,127,0
3,47,127,0
3,50,127,0
3,55,127,0
3,43,127,0
3,50,127,0
3,47,127,0
3,62,127,0
3,59,127,0
3,43,127,0
3,50,127,0
3,47,127,0
3,55,127,0
3,43,127,120
3,47,127,0
3,55,127,0
3,50,127,0
3,54,127,0
3,50,127,0
3,62,127,0
3,57,127,0
3,50,127,0
3,50,127,0
3,62,127,0
3,57,127,0
3,54,127,0
3,50,127,0
3,54,127,0
3,62,127,0
3,50,127,0
3,57,127,0
3,54,127,0
3,50,127,0
3,67,127,0
3,54,127,0
3,50,127,0
3,66,127,0
3,57,127,0
3,54,127,0
3,62,127,0
3,64,127,0
3,50,127,240
3,54,127,0
3,66,127,0
3,57,127,0
3,50,127,0
3,62,127,0
3,54,127,0
3,50,127,0
3,62,127,0
3,57,127,0
3,54,127,0
3,50,127,0
3,62,127,0
3,50,127,0
3,57,127,0
3,54,127,0
3,50,127,0
3,54,127,0
3,50,127,0
3,62,127,0
3,54,127,0
3,57,127,0
3,50,127,0
3,54,127,0
3,43,127,0
3,47,127,0
3,50,127,0
3,62,127,0
3,59,127,0
3,55,127,0
3,50,127,0
3,55,127,0
3,62,127,0
3,43,127,0
3,59,127,0
3,47,127,0
3,50,127,0
3,43,127,0
3,47,127,0
3,50,127,0
3,43,127,0
3,55,127,0
3,59,127,0
3,62,127,0
3,67,127,0
3,47,127,0
3,59,127,0
3,62,127,0
3,50,127,0
3,43,127,0
3,47,127,0
3,55,127,0
3,62,127,0
3,59,127,0
3,66,127,0
