track,note,velocity,time
1,42,106,12288
1,42,106,128
1,42,106,128
1,42,106,128
1,42,106,128
1,42,106,320
1,42,106,128
1,42,106,128
1,42,106,128
1,42,106,128
1,42,106,128
1,42,106,128
1,42,106,128
1,42,106,128
1,42,106,128
1,42,106,128
1,42,106,128
1,42,106,128
1,42,106,128
1,42,106,128
1,42,106,128
1,42,106,128
1,42,106,128
1,42,106,128
1,42,106,128
1,42,106,128
1,42,106,128
1,42,106,128
1,42,106,128
1,42,106,128
1,42,106,128
1,42,106,128
1,42,106,128
1,42,106,128
1,42,106,128
1,42,106,128
1,42,106,320
1,42,106,128
1,42,106,128
1,42,106,128
1,42,106,128
1,42,106,128
1,42,106,128
1,42,106,128
1,42,106,128
1,42,106,128
1,42,106,128
1,42,106,128
1,42,106,128
1,42,106,128
1,42,106,128
1,42,106,320
1,42,106,128
1,42,106,128
1,42,106,128
1,42,106,128
1,42,106,128
1,42,106,128
1,42,106,128
1,42,106,128
1,42,106,128
1,42,106,128
1,42,106,128
1,42,106,128
1,42,106,128
1,42,106,128
1,42,106,320
1,42,106,128
1,42,106,128
1,42,106,128
1,42,106,128
1,42,106,128
1,42,106,128
1,42,106,128
1,42,106,128
1,42,106,128
1,42,106,128
1,42,106,128
1,42,106,128
1,42,106,128
1,42,106,128
1,42,106,128
1,42,106,128
1,42,106,128
1,42,106,128
1,42,106,128
1,42,106,128
1,42,106,128
1,42,106,128
1,42,106,128
1,42,106,128
1,42,106,128
1,42,106,128
1,42,106,128
1,42,106,128
1,42,106,128
1,42,106,128
1,42,106,320
1,42,106,128
1,42,106,128
1,42,106,128
1,42,106,128
1,42,106,128
1,42,106,128
1,42,106,128
1,42,106,128
1,42,106,128
1,42,106,128
1,42,106,128
1,42,106,128
1,42,106,128
1,42,106,128
1,42,106,320
1,42,106,128
1,42,106,128
1,42,106,128
1,42,106,128
1,42,106,128
1,42,106,128
1,42,106,128
1,42,106,128
1,42,106,128
1,42,106,128
1,42,106,128
1,42,106,128
1,42,106,128
1,42,106,128
1,42,106,320
1,42,106,128
1,42,106,128
1,42,106,128
1,42,106,128
1,42,106,128
1,42,106,128
1,42,106,128
1,42,106,128
1,42,106,128
1,42,106,128
1,42,106,128
1,42,106,128
1,42,106,128
1,42,106,128
1,42,106,128
1,42,106,128
1,42,106,128
1,42,106,128
1,42,106,128
1,42,106,128
1,42,106,128
1,42,106,128
1,42,106,128
1,42,106,128
1,42,106,128
1,42,106,320
1,42,106,128
1,42,106,128
1,42,106,128
1,42,106,320
1,42,106,128
1,42,106,128
1,42,106,128
1,42,106,128
1,42,106,128
1,42,106,128
1,42,106,128
1,42,106,128
1,42,106,128
1,42,106,128
1,42,106,128
1,42,106,128
1,42,106,128
1,42,106,128
1,42,106,320
1,42,106,128
1,42,106,128
1,42,106,128
1,42,106,128
1,42,106,128
1,42,106,128
1,42,106,128
1,42,106,128
1,42,106,128
1,42,106,128
1,42,106,128
1,42,106,128
1,42,106,128
1,42,106,128
1,42,106,320
1,42,106,128
1,42,106,128
1,42,106,128
1,42,106,128
1,42,106,128
1,42,106,128
1,42,106,128
1,42,106,128
1,42,106,128
1,42,106,128
1,42,106,128
1,42,106,128
1,42,106,128
1,42,106,128
1,42,106,128
1,42,106,128
1,42,106,128
1,42,106,128
1,42,106,128
1,42,106,128
1,42,106,128
1,42,106,128
1,42,106,128
1,42,106,128
1,42,106,128
1,42,106,128
1,42,106,128
1,42,106,128
1,42,106,128
1,42,106,128
1,42,106,320
1,42,106,128
1,42,106,128
1,42,106,128
1,42,106,128
1,42,106,128
1,42,106,128
1,42,106,128
1,42,106,128
1,42,106,128
1,42,106,128
1,42,106,128
1,42,106,128
1,42,106,128
1,42,106,128
1,42,106,320
1,42,106,128
1,42,106,128
1,42,106,128
1,42,106,128
1,42,106,128
1,42,106,128
1,42,106,128
1,42,106,128
1,42,106,128
1,42,106,128
1,42,106,128
1,42,106,128
1,42,106,128
1,42,106,128
1,42,106,320
1,42,106,128
1,42,106,128
1,42,106,128
1,42,106,128
1,42,106,128
1,42,106,128
1,42,106,128
1,42,106,128
1,42,106,128
1,42,106,128
1,42,106,128
1,42,106,128
1,42,106,128
1,42,106,128
1,42,106,128
1,42,106,128
1,42,106,128
1,42,106,128
1,42,106,128
1,42,106,128
1,42,106,128
1,42,106,128
1,42,106,128
1,42,106,128
1,42,106,128
1,42,106,128
1,42,106,128
1,42,106,128
1,42,106,128
1,42,106,128
1,42,106,320
1,42,106,128
1,42,106,128
1,42,106,128
1,42,106,128
1,42,106,128
1,42,106,128
1,42,106,128
1,42,106,128
1,42,106,128
1,42,106,128
1,42,106,128
1,42,106,128
1,42,106,128
1,42,106,128
1,42,106,128
1,42,106,128
1,42,106,128
1,42,106,128
1,42,106,128
1,42,106,128
1,42,106,128
1,42,106,128
1,42,106,128
1,42,106,128
1,42,106,128
1,42,106,128
1,42,106,128
1,42,106,128
1,42,106,128
1,42,106,128
1,42,106,320
1,42,106,128
1,42,106,128
1,42,106,128
1,42,106,128
1,42,106,128
1,42,106,128
1,42,106,128
1,42,106,128
1,42,106,128
1,42,106,128
1,42,106,128
1,42,106,128
1,42,106,128
1,42,106,128
1,42,106,128
1,42,106,128
1,42,106,128
1,42,106,128
1,42,106,128
1,42,106,128
1,42,106,128
1,42,106,128
1,42,106,128
1,42,106,128
1,42,106,128
1,42,106,128
1,42,106,128
1,42,106,128
1,42,106,128
1,42,106,128
1,42,106,320
1,42,106,128
1,42,106,128
1,42,106,128
1,42,106,128
1,42,106,128
1,42,106,128
1,42,106,128
1,42,106,128
1,42,106,128
1,42,106,128
1,42,106,128
1,42,106,128
1,42,106,128
1,42,106,128
1,42,106,128
1,42,106,128
1,42,106,128
1,42,106,128
1,42,106,128
1,42,106,128
1,42,106,128
1,42,106,128
1,42,106,128
1,42,106,128
1,42,106,128
1,42,106,128
1,42,106,128
1,42,106,128
1,42,106,128
1,42,106,128
1,42,106,128
1,42,106,128
1,42,106,128
1,42,106,128
1,42,106,128
1,42,106,128
1,42,106,128
1,42,106,128
1,42,106,128
1,42,106,128
1,42,106,128
1,42,106,128
1,42,106,128
1,42,106,128
1,42,106,128
1,42,106,128
1,42,106,320
1,42,106,128
1,42,106,128
1,42,106,128
1,42,106,128
1,42,106,128
1,42,106,128
1,42,106,128
1,42,106,128
1,42,106,0
1,42,106,128
1,42,106,0
1,42,106,128
1,42,106,128
1,42,106,128
1,42,106,128
1,42,106,128
1,42,106,128
1,42,106,128
1,42,106,128
1,42,106,128
1,42,106,128
1,42,106,128
1,42,106,128
1,42,106,128
1,42,106,128
1,42,106,128
1,42,106,128
1,42,106,128
1,42,106,128
1,42,106,128
1,42,106,128
1,42,106,128
1,42,106,320
1,42,106,128
1,42,106,128
1,42,106,128
1,42,106,128
1,42,106,128
1,42,106,128
1,42,106,128
1,42,106,128
1,42,106,0
1,42,106,128
1,42,106,0
1,42,106,128
1,42,106,128
1,42,106,128
1,42,106,128
1,42,106,128
1,42,106,320
1,42,106,128
1,42,106,128
1,42,106,128
1,42,106,128
1,42,106,128
1,42,106,128
1,42,106,128
1,42,106,128
1,42,106,128
1,42,106,128
1,42,106,128
1,42,106,128
1,42,106,128
1,42,106,128
1,42,106,128
1,42,106,128
1,42,106,128
1,42,106,128
1,42,106,128
1,42,106,128
1,42,106,128
1,42,106,128
1,42,106,128
1,42,106,128
1,42,106,128
1,42,106,128
1,42,106,128
1,42,106,128
1,42,106,128
1,42,106,128
1,42,106,320
1,42,106,128
1,42,106,128
1,42,106,128
1,42,106,128
1,42,106,128
1,42,106,128
1,42,106,128
1,42,106,128
1,42,106,128
1,42,106,128
1,42,106,128
1,42,106,128
1,42,106,128
1,42,106,128
1,42,106,128
1,42,106,128
1,42,106,128
1,42,106,128
1,42,106,128
1,42,106,128
1,42,106,128
1,42,106,128
1,42,106,128
1,42,106,128
1,42,106,128
1,42,53,128
1,42,53,192
1,42,53,128
1,42,53,32
1,42,53,32
1,42,53,32
1,42,53,32
1,42,53,192
1,42,53,128
1,42,53,32
1,42,53,32
1,42,53,32
1,42,53,32
1,42,53,192
1,42,53,128
1,42,53,32
1,42,53,32
1,42,53,32
1,42,53,32
1,42,53,192
1,46,53,32
1,42,53,32
1,42,53,32
1,42,53,32
1,42,53,32
1,42,53,32
1,42,53,192
1,42,53,128
1,42,53,32
1,42,53,32
1,42,53,32
1,42,53,32
1,42,53,192
1,42,53,128
1,42,53,32
1,42,53,32
1,42,53,32
1,42,53,32
1,42,53,192
1,42,53,128
1,42,53,32
1,42,53,32
1,42,53,32
1,42,53,32
1,42,53,192
1,46,53,32
1,42,53,32
1,42,53,32
1,42,53,32
1,42,53,32
1,42,53,32
1,42,53,192
1,42,53,128
1,42,53,128
1,42,53,32
1,42,53,32
1,42,53,192
1,42,53,128
1,42,53,128
1,42,53,128
1,42,53,192
1,42,53,128
1,42,53,128
1,42,53,128
1,42,53,192
1,46,53,32
1,42,53,128
1,42,53,32
1,42,53,32
1,42,53,32
1,42,53,192
1,42,53,128
1,42,53,128
1,42,53,128
1,46,53,96
1,42,53,96
1,42,53,128
1,42,53,128
1,42,53,128
1,42,53,192
1,46,53,32
1,42,53,128
1,42,53,128
1,42,53,32
1,42,53,192
1,46,53,32
1,42,53,64
1,46,53,32
1,42,53,96
1,42,42,32
1,42,42,128
1,42,42,128
1,42,42,128
1,42,42,128
1,42,42,128
1,42,42,128
1,42,42,128
1,42,42,128
1,42,42,128
1,42,42,128
1,42,42,128
1,42,42,128
1,42,42,128
1,42,42,128
1,42,42,128
1,42,42,128
1,42,42,128
1,42,42,128
1,42,42,128
1,42,42,128
1,42,42,128
1,42,42,128
1,42,42,128
1,42,42,128
1,42,42,128
1,42,42,128
1,42,42,128
1,42,42,128
1,42,42,128
1,42,42,128
1,42,42,128
1,42,42,128
1,42,42,128
1,42,42,128
1,42,42,32
1,42,42,32
1,42,42,128
1,42,42,128
1,42,42,32
1,42,42,32
1,42,42,128
1,42,42,128
1,42,42,32
1,42,42,32
1,42,42,32
1,42,42,32
1,42,42,128
1,42,42,128
1,42,42,32
1,42,42,32
1,42,42,128
1,42,42,32
1,42,42,32
1,42,42,128
1,59,42,0
1,42,42,128
1,42,42,128
1,59,42,0
1,42,42,32
1,42,42,32
1,42,42,128
1,59,42,0
1,42,42,128
1,42,42,32
1,42,42,32
1,59,42,0
1,42,42,128
1,42,42,128
1,59,42,0
1,42,42,32
1,42,42,32
1,42,42,32
1,42,42,32
1,59,42,0
1,42,42,128
1,42,42,128
1,59,42,0
1,42,42,32
1,42,42,32
1,42,42,128
1,59,42,0
1,42,42,32
1,42,42,32
1,42,42,128
1,59,42,0
1,42,42,128
1,42,42,128
1,59,42,0
1,42,42,32
1,42,42,32
1,42,42,128
1,59,42,0
1,42,42,128
1,42,42,32
1,42,42,32
1,59,42,0
1,42,42,128
1,42,42,128
1,59,42,0
1,42,42,32
1,42,42,32
1,42,42,32
1,42,42,32
1,59,42,0
1,42,42,128
1,42,42,128
1,59,42,0
1,42,42,32
1,42,42,32
1,42,42,128
1,59,42,0
1,42,42,32
1,42,42,32
1,42,42,128
1,59,42,0
1,42,42,128
1,42,42,128
1,59,42,0
1,42,42,32
1,42,42,32
1,42,42,128
1,59,42,0
1,42,42,128
1,42,42,32
1,42,42,32
1,59,42,0
1,42,42,128
1,42,42,128
1,59,42,0
1,42,42,32
1,42,42,32
1,42,42,32
1,42,42,32
1,59,42,0
1,42,42,128
1,42,42,128
1,59,42,0
1,42,42,32
1,42,42,32
1,42,42,128
1,59,42,0
1,42,42,32
1,42,42,32
1,42,42,128
1,42,42,32
1,42,42,32
1,42,42,32
1,42,42,32
1,42,42,128
1,42,42,128
1,42,42,32
1,42,42,32
1,42,42,128
1,42,42,32
1,42,42,32
1,42,42,128
1,59,42,0
1,42,42,128
1,42,42,128
1,59,42,0
1,42,42,32
1,42,42,32
1,42,42,128
1,59,42,0
1,42,42,128
1,42,42,32
1,42,42,32
1,59,42,0
1,42,42,128
1,42,42,128
1,59,42,0
1,42,42,32
1,42,42,32
1,42,42,32
1,42,42,32
1,59,42,0
1,42,42,128
1,42,42,128
1,59,42,0
1,42,42,32
1,42,42,32
1,42,42,128
1,59,42,0
1,42,42,32
1,42,42,32
1,42,42,128
1,59,42,0
1,42,42,128
1,42,42,128
1,59,42,0
1,42,42,32
1,42,42,32
1,42,42,128
1,59,42,0
1,42,42,128
1,42,42,32
1,42,42,32
1,59,42,0
1,42,42,128
2,70,103,12288
2,70,61,32
2,70,103,32
2,70,61,32
2,70,103,32
2,70,61,32
2,70,103,32
2,70,61,32
2,70,103,32
2,70,61,32
2,70,61,32
2,70,61,32
2,70,103,32
2,70,61,32
2,70,103,32
2,70,61,32
2,70,103,32
2,70,61,32
2,70,103,32
2,70,61,32
2,70,103,32
2,70,61,32
2,70,103,32
2,70,61,32
2,70,103,32
2,70,61,32
2,70,103,32
2,70,61,32
2,70,103,32
2,70,61,32
2,70,103,32
2,70,61,32
2,70,103,32
2,70,61,32
2,70,103,32
2,70,61,32
2,70,103,32
2,70,61,32
2,70,103,32
2,70,61,32
2,70,103,32
2,70,61,32
2,70,103,32
2,70,61,32
2,70,103,32
2,70,61,32
2,70,103,32
2,70,61,32
2,70,103,32
2,70,61,32
2,70,103,32
2,70,61,32
2,70,103,32
2,70,61,32
2,70,103,32
2,70,61,32
2,70,103,32
2,70,61,32
2,70,103,32
2,70,61,32
2,70,103,32
2,70,61,32
2,70,103,32
2,70,61,32
2,70,103,32
2,70,61,32
2,70,103,32
2,70,61,32
2,70,103,32
2,70,61,32
2,70,103,32
2,70,61,32
2,70,103,32
2,70,61,32
2,70,61,32
2,70,61,32
2,70,103,32
2,70,61,32
2,70,103,32
2,70,61,32
2,70,103,32
2,70,61,32
2,70,103,32
2,70,61,32
2,70,103,32
2,70,61,32
2,70,103,32
2,70,61,32
2,70,103,32
2,70,61,32
2,70,103,32
2,70,61,32
2,70,103,32
2,70,61,32
2,70,103,32
2,70,61,32
2,70,103,32
2,70,61,32
2,70,103,32
2,70,61,32
2,70,103,32
2,70,61,32
2,70,103,32
2,70,61,32
2,70,103,32
2,70,61,32
2,70,61,32
2,70,61,32
2,70,103,32
2,70,61,32
2,70,103,32
2,70,61,32
2,70,103,32
2,70,61,32
2,70,103,32
2,70,61,32
2,70,103,32
2,70,61,32
2,70,103,32
2,70,61,32
2,70,103,32
2,70,61,32
2,70,103,32
2,70,61,32
2,70,103,32
2,70,61,32
2,70,103,32
2,70,61,32
2,70,103,32
2,70,61,32
2,70,103,32
2,70,61,32
2,70,103,32
2,70,61,32
2,70,103,32
2,70,61,32
2,70,103,32
2,70,61,32
2,70,61,32
2,70,61,32
2,70,103,32
2,70,61,32
2,70,103,32
2,70,61,32
2,70,103,32
2,70,61,32
2,70,103,32
2,70,61,32
2,70,103,32
2,70,61,32
2,70,103,32
2,70,61,32
2,70,103,32
2,70,61,32
2,70,103,32
2,70,61,32
2,70,103,32
2,70,61,32
2,70,103,32
2,70,61,32
2,70,103,32
2,70,61,32
2,70,103,32
2,70,61,32
2,70,103,32
2,70,61,32
2,70,103,32
2,70,61,32
2,70,103,32
2,70,61,32
2,70,103,32
2,70,61,32
2,70,103,32
2,70,61,32
2,70,103,32
2,70,61,32
2,70,103,32
2,70,61,32
2,70,103,32
2,70,61,32
2,70,103,32
2,70,61,32
2,70,103,32
2,70,61,32
2,70,103,32
2,70,61,32
2,70,103,32
2,70,61,32
2,70,103,32
2,70,61,32
2,70,103,32
2,70,61,32
2,70,103,32
2,70,61,32
2,70,103,32
2,70,61,32
2,70,103,32
2,70,61,32
2,70,103,32
2,70,61,32
2,70,103,32
2,70,61,32
2,70,61,32
2,70,61,32
2,70,103,32
2,70,61,32
2,70,103,32
2,70,61,32
2,70,103,32
2,70,61,32
2,70,103,32
2,70,61,32
2,70,103,32
2,70,61,32
2,70,103,32
2,70,61,32
