track,note,velocity,time
1,35,103,21504
1,57,103,0
1,40,103,128
1,36,103,0
1,35,103,128
1,40,103,128
1,36,103,0
1,35,103,128
1,40,103,128
1,36,103,0
1,35,103,128
1,40,103,128
1,36,103,0
1,35,103,128
1,40,103,128
1,36,103,0
1,35,103,128
1,40,103,128
1,36,103,0
1,35,103,128
1,40,103,128
1,36,103,0
1,35,103,128
1,40,103,128
1,36,103,0
1,35,103,32
1,35,103,32
1,40,103,128
1,36,103,0
1,35,103,128
1,40,103,128
1,36,103,0
1,35,103,128
1,40,103,128
1,36,103,0
1,35,103,128
1,40,103,128
1,36,103,0
1,35,103,128
1,40,103,128
1,36,103,0
1,35,103,128
1,40,103,128
1,36,103,0
1,35,103,128
1,40,103,128
1,36,103,0
1,35,103,128
1,40,103,128
1,36,103,0
1,35,103,128
1,40,103,128
1,36,103,0
1,35,103,128
1,40,103,128
1,36,103,0
1,35,103,128
1,40,103,128
1,36,103,0
1,35,103,128
1,40,103,128
1,36,103,0
1,35,103,128
1,40,103,128
1,36,103,0
1,35,103,128
1,40,103,128
1,36,103,0
1,35,103,128
1,40,103,128
1,36,103,0
1,35,103,128
1,40,103,32
1,36,103,0
1,40,103,96
1,36,103,0
1,35,103,64
1,35,103,64
1,40,103,128
1,36,103,0
1,35,103,128
1,40,103,128
1,36,103,0
1,35,103,128
1,40,103,128
1,36,103,0
1,35,103,128
1,40,103,128
1,36,103,0
1,35,103,128
1,40,103,128
1,36,103,0
1,35,103,128
1,40,103,128
1,36,103,0
1,35,103,128
1,40,103,128
1,36,103,0
1,35,103,128
1,40,103,32
1,36,103,0
1,40,103,96
1,36,103,0
1,35,103,64
1,35,103,64
1,40,103,128
1,36,103,0
1,35,103,128
1,40,103,128
1,36,103,0
1,35,103,128
1,40,103,128
1,36,103,0
1,35,103,128
1,40,103,128
1,36,103,0
1,35,103,128
1,40,103,128
1,36,103,0
1,35,103,128
1,40,103,128
1,36,103,0
1,35,103,128
1,40,103,128
1,36,103,0
1,35,103,128
1,40,103,32
1,36,103,0
1,40,103,96
1,36,103,0
1,35,103,64
1,35,103,64
1,40,103,128
1,36,103,0
1,35,103,128
1,40,103,128
1,36,103,0
1,35,103,128
1,40,103,128
1,36,103,0
1,35,103,128
1,40,103,128
1,36,103,0
1,35,103,128
1,40,103,128
1,36,103,0
1,35,103,128
1,40,103,128
1,36,103,0
1,35,103,128
1,40,103,128
1,36,103,0
1,35,103,128
1,40,103,32
1,36,103,0
1,40,103,96
1,36,103,0
1,35,103,64
1,35,103,64
1,57,103,0
1,40,103,128
1,36,103,0
1,35,103,128
1,40,103,128
1,36,103,0
1,35,103,128
1,40,103,128
1,36,103,0
1,35,103,128
1,40,103,128
1,36,103,0
1,35,103,128
1,40,103,128
1,36,103,0
1,35,103,128
1,40,103,128
1,36,103,0
1,35,103,128
1,40,103,128
1,36,103,0
1,35,103,128
1,40,103,32
1,36,103,0
1,40,103,96
1,36,103,0
1,35,103,64
1,35,103,64
1,84,103,0
1,84,66,192
1,40,103,128
1,36,103,0
1,35,103,64
1,40,103,128
1,36,103,0
1,35,103,128
1,40,103,128
1,36,103,0
1,35,103,128
1,40,103,128
1,36,103,0
1,35,103,128
1,36,103,128
1,40,103,0
1,35,103,128
1,40,103,128
1,36,103,0
1,35,103,128
1,40,103,128
1,36,103,0
1,35,103,128
1,40,103,32
1,36,103,0
1,40,103,96
1,36,103,0
1,35,103,64
1,35,103,64
1,57,127,0
1,40,103,128
1,36,103,0
1,35,103,128
1,40,103,128
1,36,103,0
1,35,103,128
1,40,103,128
1,36,103,0
1,35,103,128
1,40,103,128
1,36,103,0
1,35,103,128
1,40,103,128
1,36,103,0
1,35,103,128
1,40,103,128
1,36,103,0
1,35,103,128
1,40,103,128
1,36,103,0
1,35,103,128
1,40,103,32
1,36,103,0
1,40,103,96
1,36,103,0
1,35,103,64
1,35,103,64
1,40,103,128
1,36,103,0
1,35,103,128
1,40,103,128
1,36,103,0
1,35,103,128
1,40,103,128
1,36,103,0
1,35,103,128
1,40,103,128
1,36,103,0
1,35,103,128
1,40,103,128
1,36,103,0
1,35,103,128
1,40,103,128
1,36,103,0
1,35,103,128
1,40,103,128
1,36,103,0
1,35,103,128
1,40,103,32
1,36,103,0
1,40,103,96
1,36,103,0
1,35,103,64
1,35,103,64
1,40,103,128
1,36,103,0
1,35,103,128
1,40,103,128
1,36,103,0
1,35,103,128
1,40,103,128
1,36,103,0
1,35,103,128
1,40,103,128
1,36,103,0
1,35,103,128
1,40,103,128
1,36,103,0
1,35,103,128
1,40,103,128
1,36,103,0
1,35,103,128
1,40,103,128
1,36,103,0
1,35,103,128
1,40,103,32
1,36,103,0
1,40,103,96
1,36,103,0
1,35,103,64
1,35,103,64
1,40,103,128
1,36,103,0
1,35,103,128
1,40,103,128
1,36,103,0
1,35,103,128
1,40,103,128
1,36,103,0
1,35,103,128
1,40,103,128
1,36,103,0
1,35,103,128
1,40,103,128
1,36,103,0
1,35,103,128
1,40,103,128
1,36,103,0
1,35,103,128
1,40,103,128
1,36,103,0
1,35,103,128
1,40,103,32
1,36,103,0
1,40,103,96
1,36,103,0
1,35,103,64
1,35,103,64
1,40,103,128
1,36,103,0
1,35,103,128
1,40,103,128
1,36,103,0
1,35,103,128
1,40,103,128
1,36,103,0
1,35,103,128
1,40,103,128
1,36,103,0
1,35,103,128
1,40,103,128
1,36,103,0
1,35,103,128
1,40,103,128
1,36,103,0
1,35,103,128
1,40,103,128
1,36,103,0
1,35,103,128
1,40,103,32
1,36,103,0
1,40,103,96
1,36,103,0
1,35,103,64
1,35,103,64
1,40,103,128
1,36,103,0
1,35,103,128
1,40,103,128
1,36,103,0
1,35,103,128
1,40,103,128
1,36,103,0
1,35,103,128
1,40,103,128
1,36,103,0
1,35,103,128
1,40,103,128
1,36,103,0
1,35,103,128
1,40,103,128
1,36,103,0
1,35,103,128
1,40,103,128
1,36,103,0
1,35,103,128
1,40,103,32
1,36,103,0
1,40,103,96
1,36,103,0
1,35,103,64
1,35,103,64
1,57,103,0
1,40,103,128
1,36,103,0
1,35,103,128
1,40,103,128
1,36,103,0
1,35,103,128
1,40,103,128
1,36,103,0
1,35,103,128
1,40,103,128
1,36,103,0
1,35,103,128
1,40,103,128
1,36,103,0
1,35,103,128
1,40,103,128
1,36,103,0
1,35,103,128
1,40,103,128
1,36,103,0
1,35,103,128
1,40,103,32
1,36,103,0
1,40,103,96
1,36,103,0
1,35,103,64
1,35,103,64
1,40,103,128
1,36,103,0
1,35,103,128
1,40,103,128
1,36,103,0
1,35,103,128
1,40,103,128
1,36,103,0
1,35,103,128
1,40,103,128
1,36,103,0
1,35,103,128
1,36,103,128
1,40,103,0
1,35,103,128
1,40,103,128
1,36,103,0
1,35,103,128
1,40,103,128
1,36,103,0
1,35,103,128
1,40,103,32
1,36,103,0
1,40,103,96
1,36,103,0
1,35,103,64
1,35,103,64
1,57,103,0
1,40,103,128
1,36,103,0
1,35,103,128
1,40,103,128
1,36,103,0
1,35,103,128
1,40,103,128
1,36,103,0
1,35,103,128
1,40,103,128
1,36,103,0
1,35,103,128
1,40,103,128
1,36,103,0
1,35,103,128
1,40,103,128
1,36,103,0
1,35,103,128
1,40,103,128
1,36,103,0
1,35,103,128
1,40,103,32
1,36,103,0
1,40,103,96
1,36,103,0
1,35,103,64
1,35,103,64
1,40,103,128
1,36,103,0
1,35,103,128
1,40,103,128
1,36,103,0
1,35,103,128
1,40,103,128
1,36,103,0
1,35,103,128
1,40,103,128
1,36,103,0
1,35,103,128
1,36,103,128
1,40,103,0
1,35,103,128
1,40,103,128
1,36,103,0
1,35,103,128
1,40,103,128
1,36,103,0
1,35,103,128
1,40,103,32
1,36,103,0
1,40,103,96
1,36,103,0
1,35,103,64
1,35,103,64
1,57,103,0
1,40,103,128
1,36,103,0
1,35,103,128
1,40,103,128
1,36,103,0
1,35,103,128
1,40,103,128
1,36,103,0
1,35,103,128
1,40,103,128
1,36,103,0
1,35,103,128
1,40,103,128
1,36,103,0
1,35,103,128
1,40,103,128
1,36,103,0
1,35,103,128
1,40,103,128
1,36,103,0
1,35,103,128
1,40,103,32
1,36,103,0
1,40,103,96
1,36,103,0
1,35,103,64
1,35,103,64
1,40,103,128
1,36,103,0
1,35,103,128
1,40,103,128
1,36,103,0
1,35,103,128
1,40,103,128
1,36,103,0
1,35,103,128
1,40,103,128
1,36,103,0
1,35,103,128
1,36,103,128
1,40,103,0
1,35,103,128
1,40,103,128
1,36,103,0
1,35,103,128
1,40,103,128
1,36,103,0
1,35,103,128
1,40,103,32
1,36,103,0
1,40,103,96
1,36,103,0
1,35,103,64
1,35,103,64
1,57,103,0
1,40,103,128
1,36,103,0
1,35,103,128
1,40,103,128
1,36,103,0
1,35,103,128
1,40,103,128
1,36,103,0
1,35,103,128
1,40,103,128
1,36,103,0
1,35,103,128
1,40,103,128
1,36,103,0
1,35,103,128
1,40,103,128
1,36,103,0
1,35,103,128
1,40,103,128
1,36,103,0
1,35,103,128
1,40,103,32
1,36,103,0
1,40,103,96
1,36,103,0
1,35,103,64
1,35,103,64
1,40,103,128
1,36,103,0
1,35,103,128
1,40,103,128
1,36,103,0
1,35,103,128
1,40,103,128
1,36,103,0
1,35,103,128
1,40,103,128
1,36,103,0
1,35,103,128
1,36,103,128
1,40,103,0
1,35,103,128
1,40,103,128
1,36,103,0
1,35,103,128
1,40,103,128
1,36,103,0
1,35,103,128
1,40,103,32
1,36,103,0
1,40,103,96
1,36,103,0
1,35,103,64
1,37,127,448
1,37,127,704
1,37,127,704
1,37,127,704
1,37,127,704
1,37,127,704
1,37,127,704
1,37,127,704
1,37,127,704
1,37,127,704
1,37,127,704
1,37,127,704
1,37,127,704
1,37,127,704
1,37,127,704
1,37,127,704
2,42,99,21504
2,42,46,32
2,42,62,32
2,42,62,32
2,42,85,32
2,42,39,32
2,42,85,32
2,42,62,32
2,42,99,32
2,42,46,32
2,42,62,32
2,42,62,32
2,42,99,0
2,42,85,32
2,42,39,32
2,42,85,32
2,42,62,32
2,42,99,32
2,42,46,32
2,42,62,32
2,42,62,32
2,42,85,32
2,42,39,32
2,42,85,32
2,42,62,32
2,42,99,32
2,42,46,32
2,42,62,32
2,42,62,32
2,42,85,32
2,42,39,32
2,42,85,32
2,42,62,32
2,42,99,32
2,42,46,32
2,42,62,32
2,42,62,32
2,42,85,32
2,42,39,32
2,42,85,32
2,42,62,32
2,42,99,32
2,42,46,32
2,42,62,32
2,42,62,32
2,42,85,32
2,42,39,32
2,46,62,0
2,42,85,32
2,42,62,32
2,42,99,32
2,42,46,32
2,42,62,32
2,42,62,32
2,42,85,32
2,42,39,32
2,42,85,32
2,42,62,32
2,42,99,32
2,42,46,32
2,42,62,32
2,42,62,32
2,42,85,32
2,42,39,32
2,42,85,32
2,42,62,32
2,42,99,32
2,42,46,32
2,42,62,32
2,42,62,32
2,42,85,32
2,42,39,32
2,42,85,32
2,42,62,32
2,42,99,32
2,42,46,32
2,42,62,32
2,42,62,32
2,42,99,0
2,42,85,32
2,42,39,32
2,42,85,32
2,42,62,32
2,42,99,32
2,42,46,32
2,42,62,32
2,42,62,32
2,42,85,32
2,42,39,32
2,42,85,32
2,42,62,32
2,42,99,32
2,42,46,32
2,42,62,32
2,42,62,32
2,42,85,32
2,42,39,32
2,42,85,32
2,42,62,32
2,42,99,32
2,42,46,32
2,42,62,32
2,42,62,32
2,42,85,32
2,42,39,32
2,42,85,32
2,42,62,32
2,42,99,32
2,42,46,32
2,42,62,32
2,42,62,32
2,42,85,32
2,42,39,32
2,46,62,0
2,42,85,32
2,42,62,32
2,42,99,32
2,42,46,32
2,42,62,32
2,42,62,32
2,42,85,32
2,42,39,32
2,42,85,32
2,42,62,32
2,42,99,32
2,42,46,32
2,42,62,32
2,42,62,32
2,42,85,32
2,42,39,32
2,42,85,32
2,42,62,32
2,42,99,32
2,42,46,32
2,42,62,32
2,42,62,32
2,42,85,32
2,42,39,32
2,42,85,32
2,42,62,32
2,42,99,32
2,42,46,32
2,42,62,32
2,42,62,32
2,42,85,32
2,42,39,32
2,42,85,32
2,42,62,32
2,42,99,32
2,42,46,32
2,42,62,32
2,42,62,32
2,42,85,32
2,42,39,32
2,42,85,32
2,42,62,32
2,42,99,32
2,42,46,32
2,42,62,32
2,42,62,32
2,42,85,32
2,42,39,32
2,46,62,0
2,42,85,32
2,42,62,32
2,42,99,32
2,42,46,32
2,42,62,32
2,42,62,32
2,42,85,32
2,42,39,32
2,42,85,32
2,42,62,32
2,42,99,32
2,42,46,32
2,42,62,32
2,42,62,32
2,42,99,0
2,42,85,32
2,42,39,32
2,42,85,32
2,42,62,32
2,42,99,32
2,42,46,32
2,42,62,32
2,42,62,32
2,42,85,32
2,42,39,32
2,42,85,32
2,42,62,32
2,42,99,32
2,42,46,32
2,42,62,32
2,42,62,32
2,42,85,32
2,42,39,32
2,42,85,32
2,46,78,0
2,42,99,128
2,42,46,32
2,42,62,32
2,42,62,32
2,42,85,32
2,42,39,32
2,42,85,32
2,42,62,32
2,42,99,32
2,42,46,32
2,42,62,32
2,42,62,32
2,42,85,32
2,42,39,32
2,42,85,32
2,42,62,32
2,42,99,32
2,42,46,32
2,42,62,32
2,42,62,32
2,42,85,32
2,42,39,32
2,42,85,32
2,42,62,32
2,42,99,32
2,42,46,32
2,42,62,32
2,42,62,32
2,42,85,32
2,42,39,32
2,46,62,0
2,42,85,32
2,42,62,32
2,42,99,32
2,42,46,32
2,42,62,32
2,42,62,32
2,42,85,32
2,42,39,32
2,42,85,32
2,42,62,32
2,42,99,32
2,42,46,32
2,42,62,32
2,42,62,32
2,42,99,0
2,42,85,32
2,42,39,32
2,42,85,32
2,42,62,32
2,42,99,32
2,42,46,32
2,42,62,32
2,42,62,32
2,42,85,32
2,42,39,32
2,42,85,32
2,42,62,32
2,42,99,32
2,42,46,32
2,42,62,32
2,42,62,32
2,42,85,32
2,42,39,32
2,42,85,32
2,46,78,0
2,42,99,128
2,42,46,32
2,42,62,32
2,42,62,32
2,42,85,32
2,42,39,32
2,42,85,32
2,42,62,32
2,42,99,32
2,42,46,32
2,42,62,32
2,42,62,32
2,42,85,32
2,42,39,32
2,42,85,32
2,42,62,32
2,42,99,32
2,42,46,32
2,42,62,32
2,42,62,32
2,42,85,32
2,42,39,32
2,42,85,32
2,42,62,32
2,42,99,32
2,42,46,32
2,42,62,32
2,42,62,32
2,42,85,32
2,42,39,32
2,46,62,0
2,42,85,32
2,42,62,32
2,42,99,32
2,42,46,32
2,42,62,32
2,42,62,32
2,42,85,32
2,42,39,32
2,42,85,32
2,42,62,32
2,42,99,32
2,42,46,32
2,42,62,32
2,42,62,32
2,42,99,0
2,42,85,32
2,42,39,32
2,42,85,32
2,42,62,32
2,42,99,32
2,42,46,32
2,42,62,32
2,42,62,32
2,42,85,32
2,42,39,32
2,42,85,32
2,42,62,32
2,42,99,32
2,42,46,32
2,42,62,32
2,42,62,32
2,42,85,32
2,42,39,32
2,42,85,32
2,46,78,0
2,42,99,128
2,42,46,32
2,42,62,32
2,42,62,32
2,42,85,32
2,42,39,32
2,42,85,32
2,42,62,32
2,42,99,32
2,42,46,32
2,42,62,32
2,42,62,32
2,42,85,32
2,42,39,32
2,42,85,32
2,42,62,32
2,42,99,32
2,42,46,32
2,42,62,32
2,42,62,32
2,42,85,32
2,42,39,32
2,42,85,32
2,42,62,32
2,42,99,32
2,42,46,32
2,42,62,32
2,42,62,32
2,42,85,32
2,42,39,32
2,46,62,0
2,42,85,32
2,42,62,32
2,42,99,32
2,42,46,32
2,42,62,32
2,42,62,32
2,42,85,32
2,42,39,32
2,42,85,32
2,42,62,32
2,42,99,32
2,42,46,32
2,42,62,32
2,42,62,32
2,42,99,0
2,42,85,32
2,42,39,32
2,42,85,32
2,42,62,32
2,42,99,32
2,42,46,32
2,42,62,32
2,42,62,32
2,42,85,32
2,42,39,32
