track,note,velocity,time
1,57,100,6144
1,36,100,0
1,36,110,32
1,40,110,32
1,36,100,224
1,36,85,128
1,36,100,128
1,40,110,32
1,36,40,32
1,36,60,32
1,36,80,32
1,36,100,32
1,36,15,96
1,36,25,32
1,36,110,32
1,40,110,32
1,36,100,224
1,36,30,32
1,36,85,32
1,36,30,32
1,36,100,32
1,40,110,32
1,36,40,32
1,36,60,32
1,36,80,32
1,36,100,32
1,36,15,96
1,36,25,32
1,36,110,32
1,40,110,32
1,36,100,224
1,36,30,32
1,36,85,32
1,36,30,32
1,36,100,32
1,40,110,32
1,36,40,32
1,36,60,32
1,36,80,32
1,36,100,32
1,36,15,96
1,36,25,32
1,36,110,32
1,40,110,32
1,36,100,224
1,36,30,32
1,36,85,32
1,36,30,32
1,36,100,32
1,40,110,32
1,36,40,32
1,36,60,32
1,36,80,32
1,36,100,32
1,36,15,96
1,36,25,32
1,36,110,32
1,40,110,32
1,36,100,224
1,36,30,32
1,36,85,32
1,36,30,32
1,36,100,32
1,40,110,32
1,36,40,32
1,36,60,32
1,36,80,32
1,36,100,32
1,36,15,96
1,36,25,32
1,36,110,32
1,40,110,32
1,36,100,224
1,36,30,32
1,36,85,32
1,36,30,32
1,36,100,32
1,40,110,32
1,36,40,32
1,36,60,32
1,36,80,32
1,36,100,32
1,36,15,96
1,36,25,32
1,36,110,32
1,40,110,32
1,36,100,224
1,36,30,32
1,36,85,32
1,36,30,32
1,36,100,32
1,40,110,32
1,36,40,32
1,36,60,32
1,36,80,32
1,36,100,32
1,36,15,96
1,36,25,32
1,36,110,32
1,40,110,32
1,36,100,224
1,36,30,32
1,36,85,32
1,36,30,32
1,36,100,32
1,40,110,32
1,36,40,32
1,36,60,32
1,36,80,32
1,57,100,32
1,36,100,0
1,36,110,32
1,40,110,32
1,36,100,224
1,36,85,128
1,36,100,128
1,40,110,32
1,36,40,32
1,36,60,32
1,36,80,32
1,36,100,32
1,36,15,96
1,36,25,32
1,36,110,32
1,40,110,32
1,36,100,224
1,36,30,32
1,36,85,32
1,36,30,32
1,36,100,32
1,40,110,32
1,36,40,32
1,36,60,32
1,36,80,32
1,36,100,32
1,36,15,96
1,36,25,32
1,36,110,32
1,40,110,32
1,36,100,224
1,36,30,32
1,36,85,32
1,36,30,32
1,36,100,32
1,40,110,32
1,36,40,32
1,36,60,32
1,36,80,32
1,36,100,32
1,36,15,96
1,36,25,32
1,36,110,32
1,40,110,32
1,36,100,224
1,36,30,32
1,36,85,32
1,36,30,32
1,36,100,32
1,40,110,32
1,36,40,32
1,36,60,32
1,36,80,32
1,36,100,32
1,36,15,96
1,36,25,32
1,36,110,32
1,40,110,32
1,36,100,224
1,36,30,32
1,36,85,32
1,36,30,32
1,36,100,32
1,40,110,32
1,36,40,32
1,36,60,32
1,36,80,32
1,36,100,32
1,36,15,96
1,36,25,32
1,36,110,32
1,40,110,32
1,36,100,224
1,36,30,32
1,36,85,32
1,36,30,32
1,36,100,32
1,40,110,32
1,36,40,32
1,36,60,32
1,36,80,32
1,36,100,32
1,36,15,96
1,36,25,32
1,36,110,32
1,40,110,32
1,36,100,224
1,36,30,32
1,36,85,32
1,36,30,32
1,36,100,32
1,40,110,32
1,36,40,32
1,36,60,32
1,36,80,32
1,36,100,32
1,36,15,96
1,36,25,32
1,36,110,32
1,40,110,32
1,36,100,224
1,36,30,32
1,36,85,32
1,36,30,32
1,36,100,32
1,40,110,32
1,36,40,32
1,43,100,0
1,36,60,32
1,41,100,0
1,36,80,32
1,40,100,0
1,57,100,32
1,36,100,0
1,36,110,32
1,40,110,32
1,36,100,224
1,36,85,128
1,36,100,128
1,40,110,32
1,36,40,32
1,36,60,32
1,36,80,32
1,36,100,32
1,36,15,96
1,36,25,32
1,36,110,32
1,40,110,32
1,36,100,224
1,36,30,32
1,36,85,32
1,36,30,32
1,36,100,32
1,40,110,32
1,36,40,32
1,36,60,32
1,36,80,32
1,36,100,32
1,36,15,96
1,36,25,32
1,36,110,32
1,40,110,32
1,36,100,224
1,36,30,32
1,36,85,32
1,36,30,32
1,36,100,32
1,40,110,32
1,36,40,32
1,36,60,32
1,36,80,32
1,36,100,32
1,36,15,96
1,36,25,32
1,36,110,32
1,40,110,32
1,36,100,224
1,36,30,32
1,36,85,32
1,36,30,32
1,36,100,32
1,40,110,32
1,36,40,32
1,36,60,32
1,36,80,32
1,36,100,32
1,36,15,96
1,36,25,32
1,36,110,32
1,40,110,32
1,36,100,224
1,36,30,32
1,36,85,32
1,36,30,32
1,36,100,32
1,40,110,32
1,36,40,32
1,36,60,32
1,36,80,32
1,36,100,32
1,36,15,96
1,36,25,32
1,36,110,32
1,40,110,32
1,36,100,224
1,36,30,32
1,36,85,32
1,36,30,32
1,36,100,32
1,40,110,32
1,36,40,32
1,36,60,32
1,36,80,32
1,36,100,32
1,36,15,96
1,36,25,32
1,36,110,32
1,40,110,32
1,36,100,224
1,36,30,32
1,36,85,32
1,36,30,32
1,36,100,32
1,40,110,32
1,36,40,32
1,36,60,32
1,36,80,32
1,36,100,32
1,36,15,96
1,36,25,32
1,36,110,32
1,40,110,32
1,36,100,224
1,36,30,32
1,36,85,32
1,36,30,32
1,36,100,32
1,40,110,32
1,36,40,32
1,35,100,0
1,36,60,32
1,35,100,0
1,36,80,32
1,35,100,0
1,57,100,32
1,36,100,0
1,36,110,32
1,40,110,32
1,36,100,224
1,36,85,128
1,36,100,128
1,40,110,32
1,36,40,32
1,36,60,32
1,36,80,32
1,36,100,32
1,36,15,96
1,36,25,32
1,36,110,32
1,40,110,32
1,36,100,224
1,36,30,32
1,36,85,32
1,36,30,32
1,36,100,32
1,40,110,32
1,36,40,32
1,36,60,32
1,36,80,32
1,36,100,32
1,36,15,96
1,36,25,32
1,36,110,32
1,40,110,32
1,36,100,224
1,36,30,32
1,36,85,32
1,36,30,32
1,36,100,32
1,40,110,32
1,36,40,32
1,36,60,32
1,36,80,32
1,36,100,32
1,36,15,96
1,36,25,32
1,36,110,32
1,40,110,32
1,36,100,224
1,36,30,32
1,36,85,32
1,36,30,32
1,36,100,32
1,40,110,32
1,36,40,32
1,36,60,32
1,36,80,32
1,36,100,32
1,36,15,96
1,36,25,32
1,36,110,32
1,40,110,32
1,36,100,224
1,36,30,32
1,36,85,32
1,36,30,32
1,36,100,32
1,40,110,32
1,36,40,32
1,36,60,32
1,36,80,32
1,36,100,32
1,36,15,96
1,36,25,32
1,36,110,32
1,40,110,32
1,36,100,224
1,36,30,32
1,36,85,32
1,36,30,32
1,36,100,32
1,40,110,32
1,36,40,32
1,36,60,32
1,36,80,32
1,36,100,32
1,36,15,96
1,36,25,32
1,36,110,32
1,40,110,32
1,36,100,224
1,36,30,32
1,36,85,32
1,36,30,32
1,36,100,32
1,40,110,32
1,36,40,32
1,36,60,32
1,36,80,32
1,36,100,32
1,36,101,96
1,36,103,32
1,36,105,32
1,40,106,32
1,36,112,224
1,36,113,32
1,36,115,32
1,36,117,32
1,40,117,0
1,36,118,32
1,40,120,32
1,36,122,32
1,43,122,0
1,40,122,0
1,36,124,32
1,41,124,0
1,36,125,32
1,40,125,0
1,36,127,32
1,57,100,0
1,49,100,0
1,40,127,128
1,36,127,32
1,36,127,96
1,40,127,128
1,36,127,128
1,40,127,128
1,36,127,32
1,36,127,96
1,40,80,64
1,36,127,32
1,40,127,96
1,36,127,128
1,40,127,128
1,36,127,32
1,36,127,32
1,40,127,128
1,36,127,128
1,40,80,96
1,36,127,32
1,36,127,32
1,40,127,32
1,36,127,32
1,36,127,32
1,40,127,128
1,36,127,32
1,36,127,32
1,36,127,224
1,40,127,32
1,36,127,320
1,36,127,32
1,40,75,0
1,36,127,32
1,36,127,32
1,40,127,32
1,36,127,320
1,40,127,128
1,36,127,32
1,36,127,96
1,40,100,64
1,36,100,32
1,40,127,128
1,36,100,0
1,36,100,32
1,36,127,32
1,40,100,0
1,36,100,32
1,40,100,32
1,36,100,32
1,36,100,32
1,40,100,32
1,36,127,32
1,36,127,96
1,40,100,0
1,36,127,32
1,40,100,0
1,36,100,32
1,36,100,32
1,40,100,32
1,36,100,32
1,36,127,32
1,41,100,0
1,40,100,0
1,36,127,32
1,41,100,0
1,40,100,0
1,36,100,32
1,36,100,32
1,41,100,32
1,40,100,0
1,36,100,32
1,36,127,32
1,60,100,0
1,40,100,0
1,36,127,32
1,45,100,0
1,40,100,0
1,60,100,0
1,36,100,32
1,36,100,32
1,45,100,32
1,40,100,0
1,36,100,0
1,60,100,0
1,36,100,32
1,36,127,32
1,57,100,0
1,49,100,0
1,40,127,128
1,36,127,32
1,36,127,96
1,40,127,128
1,36,127,128
1,40,127,128
1,36,127,32
1,36,127,96
1,40,80,64
1,36,127,32
1,40,127,96
1,36,127,128
1,40,127,128
1,36,127,32
1,36,127,32
1,40,127,128
1,36,127,128
1,40,80,96
1,36,127,32
1,36,127,32
1,40,127,32
1,36,127,32
1,36,127,32
1,40,127,128
1,36,127,32
1,36,127,32
1,36,127,224
1,40,127,32
1,36,127,320
1,36,127,32
1,40,75,0
1,36,127,32
1,36,127,32
1,40,127,32
1,36,127,320
1,40,127,128
1,36,127,32
1,36,127,96
1,40,100,64
1,36,100,32
1,40,127,128
1,36,100,0
1,36,100,32
1,36,127,32
1,40,100,0
1,36,100,32
1,40,100,32
1,36,100,32
1,36,100,32
1,40,100,32
1,36,127,32
1,36,127,96
1,40,100,0
1,36,127,32
1,40,100,0
1,36,100,32
1,36,100,32
1,40,100,32
1,36,100,32
1,36,127,32
1,41,100,0
1,40,100,0
1,36,127,32
1,41,100,0
1,40,100,0
1,36,100,32
1,36,100,32
1,41,100,32
1,40,100,0
1,36,100,32
1,36,127,32
1,60,100,0
1,40,100,0
1,36,127,32
1,45,100,0
1,40,100,0
1,60,100,0
1,36,100,32
1,36,100,32
1,45,100,32
1,40,100,0
1,36,100,0
1,60,100,0
1,36,100,32
1,36,127,32
1,49,100,0
1,40,127,128
1,36,127,32
1,36,127,96
1,40,127,128
1,36,127,128
1,40,127,128
1,36,127,32
1,36,127,96
1,40,80,64
1,36,127,32
1,40,127,96
1,36,127,128
1,40,127,128
1,36,127,32
1,36,127,32
1,40,127,128
1,36,127,128
1,40,80,96
1,36,127,32
1,36,127,32
1,40,127,32
1,36,127,32
1,36,127,32
1,40,127,128
1,36,127,32
1,36,127,32
1,36,127,224
1,40,127,32
1,36,127,320
1,36,127,32
1,40,75,0
1,36,127,32
1,36,127,32
1,40,127,32
1,36,127,320
1,40,127,128
1,36,127,32
1,36,127,96
1,40,100,64
1,36,100,32
1,40,127,128
1,36,100,0
1,36,100,32
1,36,127,32
1,40,100,0
1,36,100,32
1,40,100,32
1,36,100,32
1,36,100,32
1,36,127,128
1,36,127,96
1,36,127,32
1,45,100,0
1,36,100,32
1,36,100,32
1,40,100,32
1,45,100,0
1,36,100,32
1,36,127,32
1,41,100,0
1,40,100,0
1,36,127,32
1,41,100,0
1,40,100,0
1,36,100,32
1,36,100,32
1,41,100,32
1,40,100,0
1,36,100,32
1,40,100,0
1,36,127,32
1,40,100,0
1,40,100,32
1,36,127,32
1,45,100,0
1,40,100,0
1,36,100,32
1,43,100,0
1,45,100,0
1,36,100,32
1,45,100,0
1,45,100,32
1,40,100,0
1,36,100,0
1,36,100,32
1,36,127,32
1,49,127,0
1,57,127,0
1,40,127,128
1,36,127,32
1,36,127,96
1,40,127,128
1,36,100,128
1,36,127,0
1,40,127,128
1,36,127,32
1,36,127,96
1,40,80,64
1,36,127,32
1,40,127,96
1,36,127,128
1,40,127,128
1,36,127,32
1,36,127,32
1,40,127,128
1,36,127,128
1,40,80,96
1,36,127,32
1,36,127,32
1,40,127,32
1,36,127,32
1,36,127,32
1,40,127,128
1,36,127,32
1,36,127,32
1,36,127,224
1,40,127,32
1,36,127,320
1,36,127,32
1,40,75,0
1,36,127,32
1,36,127,32
1,40,127,32
1,36,127,320
1,40,127,128
1,36,127,32
1,36,127,96
1,40,100,64
1,36,100,32
1,40,127,128
1,36,100,0
1,36,100,32
1,36,127,32
1,40,127,128
1,36,127,32
1,36,127,96
1,40,100,64
1,36,100,32
1,40,127,128
1,36,100,0
1,36,100,32
1,36,127,32
1,40,127,128
1,36,127,32
1,36,127,96
1,40,100,64
1,36,100,32
1,40,127,128
1,36,100,0
1,36,100,32
1,36,127,32
1,49,127,0
1,57,127,0
1,40,127,128
1,36,127,32
1,36,127,96
1,40,127,128
1,36,100,128
1,36,127,0
1,40,127,128
1,36,127,32
1,36,127,96
1,40,80,64
1,36,127,32
1,40,127,96
1,36,127,128
1,40,127,128
1,36,127,32
1,36,127,32
1,40,127,128
1,36,127,128
1,40,80,96
1,36,127,32
1,36,127,32
1,40,127,32
1,36,127,32
1,36,127,32
1,40,127,128
1,36,127,32
1,36,127,32
1,36,127,224
1,40,127,32
1,36,127,320
1,36,127,32
1,40,75,0
1,36,127,32
1,36,127,32
1,40,127,32
1,36,127,320
1,40,127,128
1,36,127,32
1,36,127,96
1,40,100,64
1,36,100,32
1,40,127,128
1,36,100,0
1,36,100,32
1,36,127,32
1,40,127,128
1,36,127,32
1,36,127,96
1,40,100,64
1,36,100,32
1,40,127,128
1,36,100,0
1,36,100,32
1,36,127,32
1,40,100,32
1,40,127,32
1,40,100,96
1,36,127,32
1,36,127,96
1,40,100,64
1,36,100,32
1,41,100,0
1,45,100,0
1,41,100,32
1,40,127,32
1,36,100,0
1,45,100,0
1,45,100,32
1,38,100,0
1,45,100,32
1,38,100,0
1,36,100,32
1,45,100,0
1,57,127,32
1,36,100,0
1,49,127,0
1,59,100,32
1,40,100,32
1,36,100,0
1,59,100,0
1,59,100,0
1,36,100,128
1,40,100,128
1,57,100,0
1,36,100,0
1,36,100,128
1,59,100,32
1,40,100,32
1,36,100,0
1,59,100,0
1,59,100,0
1,36,100,128
1,40,70,96
1,40,80,96
1,40,90,32
1,40,100,64
1,36,100,0
1,40,110,64
1,48,70,0
1,48,85,96
1,48,100,32
1,43,70,0
1,57,127,64
1,49,127,0
1,36,100,0
1,38,100,0
1,40,40,128
1,36,100,0
1,38,100,0
1,40,60,32
1,40,80,96
1,36,100,0
1,36,100,32
1,38,100,0
1,57,127,32
1,49,127,0
1,36,100,32
1,36,100,32
1,40,30,0
1,38,100,0
1,40,40,128
1,40,60,32
1,36,100,0
1,57,127,32
1,49,127,0
1,40,80,0
1,36,100,0
1,38,100,32
1,38,100,32
1,36,100,32
1,59,100,96
1,40,40,32
1,35,100,0
1,59,100,32
1,40,60,0
1,40,80,32
1,36,100,0
1,59,100,0
1,59,100,0
1,38,100,96
1,38,100,32
1,59,100,0
1,43,100,0
1,35,100,32
1,59,100,0
1,36,100,32
1,59,100,0
1,40,70,32
1,50,100,0
1,40,80,32
1,40,90,32
1,48,100,0
1,40,100,32
1,36,100,0
1,40,110,64
1,48,70,0
1,48,85,96
1,48,100,32
1,43,70,0
1,57,127,64
1,49,127,0
1,36,100,0
1,38,100,0
1,40,40,128
1,36,100,0
1,38,100,0
1,40,60,32
1,40,80,96
1,36,100,0
1,36,100,32
1,38,100,0
1,57,127,32
1,49,127,0
1,36,100,32
1,36,100,32
1,40,30,0
1,38,100,0
1,40,40,128
1,40,60,32
1,36,100,0
1,57,127,32
1,49,127,0
1,40,80,0
1,36,100,0
1,38,100,32
1,38,100,32
1,36,100,32
1,59,100,96
1,40,40,32
1,35,100,0
1,59,100,32
1,40,60,0
1,40,80,32
1,36,100,0
1,59,100,0
1,59,100,0
1,38,100,96
1,38,100,32
1,59,100,0
1,43,100,0
1,35,100,32
1,59,100,0
1,36,100,32
1,59,100,0
1,40,70,32
1,50,100,0
1,40,80,32
1,40,90,32
1,48,100,0
1,40,100,32
1,36,100,0
1,40,110,64
1,48,70,0
1,48,85,96
1,48,100,32
1,43,70,0
1,57,127,64
1,49,127,0
1,36,100,0
1,38,100,0
1,40,40,128
1,36,100,0
1,38,100,0
1,40,60,32
