track,note,velocity,time
1,63,63,106
1,66,69,0
1,61,50,2
1,51,56,4
1,70,76,120
1,53,32,1
1,63,61,0
1,65,66,0
1,68,57,0
1,71,64,126
1,54,60,12
1,63,64,0
1,64,60,0
1,68,60,0
1,70,62,1
1,61,63,1
1,66,63,0
1,35,52,0
1,47,52,0
1,61,66,0
1,63,66,0
1,66,64,0
1,59,63,127
1,36,63,1
1,60,73,0
1,63,67,1
1,58,52,1
1,54,60,1
1,48,63,3
1,35,60,0
1,66,67,2
1,58,51,1
1,63,66,0
1,47,60,0
1,54,61,0
1,34,56,242
1,56,47,1
1,46,56,0
1,58,47,5
1,62,66,14
1,66,76,10
1,46,90,958
1,39,108,0
1,58,104,43
1,61,104,0
1,63,104,0
1,66,104,0
1,39,86,19
1,32,105,5
1,44,112,0
1,56,100,42
1,60,106,0
1,63,102,0
1,66,108,0
1,44,97,0
1,37,111,5
1,49,111,0
1,59,95,42
1,63,100,0
1,65,105,0
1,68,105,0
1,49,105,2
1,42,116,20
1,58,102,42
1,61,104,0
1,65,112,0
1,66,106,0
1,43,98,5
1,36,101,0
1,48,116,0
1,58,98,43
1,60,104,0
1,63,95,0
1,66,105,0
1,42,86,0
1,35,105,5
1,47,110,0
1,58,98,41
1,59,98,0
1,63,104,0
1,66,102,0
1,42,89,0
1,34,101,8
1,46,104,0
1,56,100,42
1,58,100,0
1,62,112,0
1,66,101,0
1,46,104,3
1,39,96,21
1,58,93,42
1,61,93,0
1,63,93,0
1,66,93,0
1,39,74,19
1,32,94,5
1,44,101,0
1,56,88,42
1,60,95,0
1,63,90,0
1,66,96,0
1,44,86,0
1,37,100,6
1,49,100,0
1,59,83,41
1,63,88,0
1,65,94,0
1,68,94,0
1,49,94,3
1,42,104,19
1,58,90,41
1,61,93,0
1,65,101,0
1,66,95,0
1,43,87,5
1,36,89,0
1,48,104,0
1,58,87,42
1,60,93,0
1,63,83,0
1,66,94,0
1,42,74,1
1,35,94,5
1,47,98,0
1,58,87,42
1,59,87,0
1,63,93,0
1,66,90,0
1,47,78,0
1,34,89,4
1,46,93,0
1,56,88,42
1,58,88,0
1,62,101,0
1,66,89,0
1,46,93,4
1,39,96,0
1,51,96,0
1,58,93,43
1,61,93,0
1,63,93,0
1,66,93,0
1,46,74,18
1,39,96,5
1,61,93,42
1,63,93,0
1,66,93,0
1,70,93,0
1,39,74,19
1,32,94,5
1,44,101,0
1,60,95,42
1,63,90,0
1,66,96,0
1,70,88,0
1,44,86,1
1,37,90,5
1,49,90,0
1,59,83,42
1,63,88,0
1,65,94,0
1,68,94,0
1,49,94,2
1,42,104,20
1,58,90,41
1,61,93,0
1,65,89,0
1,66,106,0
1,43,87,6
1,36,89,21
1,48,104,0
1,54,94,41
1,58,87,0
1,60,93,0
1,63,100,0
1,42,74,2
1,35,94,4
1,47,98,0
1,54,90,43
1,58,87,0
1,59,87,0
1,63,104,0
1,47,78,0
1,34,89,7
1,46,93,0
1,56,88,42
1,58,98,0
1,62,89,0
1,66,101,0
1,46,93,4
1,39,96,0
1,51,96,0
1,58,93,42
1,61,93,0
1,63,93,0
1,66,93,0
1,30,117,0
1,42,96,1
1,31,111,3
1,43,104,43
1,32,87,4
1,44,96,0
1,54,89,42
1,58,83,0
1,60,83,1
1,63,74,0
1,44,88,7
1,49,93,2
1,37,83,1
1,65,94,38
1,59,93,1
1,63,80,0
1,68,88,1
1,37,104,1
1,30,78,19
1,42,87,0
1,58,82,41
1,61,82,0
1,65,89,0
1,66,78,0
1,43,88,26
1,36,89,12
1,48,101,0
1,58,81,41
1,60,83,0
1,63,82,0
1,66,82,0
1,36,82,6
1,35,90,8
1,47,90,0
1,58,82,43
1,59,88,0
1,63,89,0
1,66,88,0
1,35,108,0
1,34,87,19
1,46,95,0
1,56,75,40
1,58,86,0
1,62,86,0
1,66,88,0
1,46,89,0
1,39,83,1
1,51,111,0
1,58,88,42
1,61,90,0
1,63,90,0
1,66,93,0
1,46,94,7
1,39,89,20
1,51,87,0
1,58,88,40
1,61,87,0
1,63,87,0
1,66,90,0
1,39,81,22
1,32,87,15
1,44,96,0
1,54,89,40
1,58,83,0
1,60,83,0
1,63,74,0
1,44,88,1
1,37,83,2
1,49,93,0
1,65,94,39
1,59,93,1
1,63,80,0
1,68,88,0
1,37,104,0
1,30,78,0
1,42,87,0
1,58,82,42
1,61,82,0
1,65,89,0
1,66,78,0
1,43,88,25
1,36,90,11
1,48,111,0
1,58,82,40
1,60,93,0
1,63,89,0
1,66,93,0
1,42,89,5
1,35,90,3
1,47,90,0
1,58,82,42
1,59,88,0
1,63,89,0
1,66,88,0
1,35,108,1
1,34,82,20
1,46,89,0
1,56,82,40
1,58,90,0
1,62,94,0
1,66,89,0
1,34,88,12
1,46,81,0
1,56,87,22
1,58,87,0
1,62,96,0
1,66,93,0
1,35,91,8
1,58,84,43
1,59,88,0
1,63,85,0
1,66,89,0
1,35,85,1
1,38,81,18
1,56,79,39
1,58,88,0
1,62,99,0
1,66,85,0
1,41,97,21
1,38,99,5
1,39,99,51
1,58,81,42
1,61,72,0
1,63,78,0
1,66,91,0
1,39,84,2
1,32,91,2
1,56,85,42
1,59,95,0
1,63,69,0
1,66,95,0
1,34,88,2
1,56,88,0
1,58,88,0
1,62,88,0
1,65,88,0
1,35,91,10
1,58,84,43
1,59,88,0
1,63,85,0
1,66,89,0
1,35,85,1
1,38,81,18
1,56,79,38
1,58,88,0
1,62,99,0
1,66,85,0
1,41,97,22
1,38,99,5
1,39,97,52
1,58,90,42
1,61,85,0
1,63,89,0
1,66,91,0
1,39,82,4
1,32,99,4
1,56,72,43
1,59,82,0
1,63,64,0
1,66,82,0
1,34,88,3
1,58,88,0
1,62,88,0
1,68,88,0
1,66,75,22
1,58,78,4
1,62,97,0
1,68,91,0
1,35,91,0
1,58,84,42
1,59,88,0
1,63,85,0
1,66,89,0
1,35,85,0
1,38,81,19
1,56,79,38
1,58,88,0
1,62,99,0
1,66,85,0
1,41,97,22
1,38,99,6
1,39,99,51
1,58,81,43
1,61,72,0
1,63,78,0
1,66,91,0
1,39,84,1
1,32,91,2
1,56,85,43
1,59,95,0
1,63,69,0
1,66,95,0
1,34,88,2
1,56,88,0
1,58,88,0
1,62,88,0
1,65,88,0
1,35,103,11
1,59,94,42
1,63,89,0
1,66,95,0
1,70,94,0
1,59,82,0
1,63,90,0
1,66,88,0
1,70,95,0
1,35,85,0
1,34,89,15
1,58,91,39
1,62,96,0
1,65,96,0
1,68,94,0
1,39,85,39
1,58,72,43
1,61,78,0
1,63,95,0
1,66,95,0
1,39,85,1
1,32,89,6
1,56,71,42
1,59,84,0
1,63,75,0
1,66,88,0
1,34,96,1
1,58,90,38
1,62,94,0
1,68,102,0
1,39,105,8
1,61,102,42
1,63,102,0
1,66,102,0
1,70,102,0
1,39,81,18
1,32,103,5
1,44,111,0
1,60,104,42
1,63,99,0
1,66,105,0
1,70,96,0
1,44,94,0
1,37,99,5
1,49,99,0
1,59,91,42
1,63,96,0
1,65,103,0
1,68,103,0
1,49,103,2
1,42,114,20
1,58,99,41
1,61,102,0
1,65,97,0
1,66,116,0
1,43,95,6
1,36,97,21
1,48,114,0
1,58,95,42
1,60,102,0
1,63,110,0
1,66,103,0
1,42,81,1
1,35,103,4
1,47,107,0
1,58,95,43
1,59,95,0
1,63,114,0
1,66,99,0
1,47,85,1
1,34,97,4
1,46,102,0
1,56,96,41
1,58,107,0
1,62,97,0
1,66,111,0
1,46,102,4
1,39,105,0
1,51,105,0
1,58,102,42
1,61,102,0
1,63,102,0
1,66,102,0
1,30,127,0
1,42,105,0
1,31,122,4
1,43,114,42
1,32,95,3
1,44,105,0
1,54,97,42
1,58,91,1
1,60,91,0
1,63,81,0
1,44,96,7
1,49,102,2
1,37,91,1
1,65,103,38
1,63,88,1
1,70,102,0
1,68,96,1
1,37,114,1
1,30,85,1
1,42,95,0
1,58,90,41
1,61,90,0
1,65,97,0
1,66,85,0
1,43,96,26
1,36,97,11
1,48,111,0
1,58,89,41
1,60,91,0
1,63,90,0
1,66,90,0
1,36,90,5
1,35,99,10
1,47,99,0
1,58,90,42
1,59,96,0
1,63,97,0
1,66,96,0
1,35,118,1
1,34,95,20
1,46,104,0
1,56,82,39
1,58,94,0
1,62,94,0
1,66,96,0
1,46,97,0
1,39,91,0
1,51,122,0
1,58,96,42
1,61,99,0
1,63,99,0
1,66,102,0
1,46,103,6
1,32,95,21
1,44,105,0
1,54,97,41
1,58,91,1
1,60,91,0
1,63,81,0
1,44,96,1
1,37,91,2
1,49,102,0
1,65,103,39
1,59,102,1
1,63,88,0
1,68,96,0
1,37,114,0
1,30,85,1
1,42,95,0
1,58,90,42
1,61,90,0
1,65,97,0
1,66,85,0
1,43,96,25
1,36,97,11
1,48,111,0
1,58,89,40
1,60,91,0
1,63,90,0
1,66,90,0
1,36,90,6
1,35,99,9
1,47,99,0
1,58,90,42
1,59,96,0
1,63,97,0
1,66,96,0
1,35,118,1
1,34,95,20
1,46,104,0
1,56,82,39
1,58,94,0
1,62,94,0
1,66,96,0
1,37,111,0
1,49,91,42
1,38,111,12
1,46,97,0
1,39,114,0
1,58,84,43
1,61,97,0
1,63,99,0
1,66,103,0
1,30,99,4
1,42,111,42
1,31,111,1
1,43,114,42
1,32,95,1
1,44,105,0
1,54,97,42
1,58,91,0
1,60,91,0
1,63,81,0
1,44,96,0
1,37,91,2
1,49,102,0
1,65,103,39
1,59,102,1
1,63,88,0
1,68,96,0
1,37,114,0
1,30,85,0
1,42,95,0
1,58,90,42
1,61,90,0
1,65,97,0
1,66,85,0
1,43,96,25
1,36,97,11
1,48,111,0
1,58,89,42
1,60,91,0
1,63,90,0
1,66,90,0
1,36,90,5
1,35,99,10
1,47,99,0
1,58,90,41
1,59,96,0
1,63,97,0
1,66,96,0
1,35,118,1
1,34,95,20
1,46,104,0
1,56,82,39
1,58,94,0
1,62,94,0
1,66,96,0
1,46,97,0
1,35,91,0
1,58,84,43
1,59,88,0
1,63,85,0
1,66,89,0
1,35,85,1
1,38,81,17
1,56,79,39
1,58,88,0
1,62,99,0
1,66,85,0
1,41,97,21
1,38,99,5
1,39,99,52
1,58,81,41
1,61,72,0
1,63,78,0
1,66,91,0
1,39,84,3
1,32,91,1
1,56,85,43
1,59,95,0
1,63,69,0
1,66,95,0
1,34,88,2
1,56,88,0
1,58,88,0
1,62,88,0
1,65,88,0
1,35,91,9
1,58,84,43
1,59,88,0
1,63,85,0
1,66,89,0
1,35,85,1
1,38,81,17
1,56,79,39
1,58,88,0
1,62,99,0
1,66,85,0
1,41,97,21
1,38,99,5
1,39,97,51
1,58,90,42
1,61,85,0
1,63,89,0
1,66,91,0
1,39,82,4
1,32,99,6
1,56,72,42
1,59,82,0
1,63,64,0
1,66,82,0
1,34,88,4
1,58,88,0
1,62,88,0
1,68,88,0
1,66,75,21
1,58,78,3
1,62,97,0
1,68,91,0
1,35,91,0
1,58,84,42
1,59,88,0
1,63,85,0
1,66,89,0
1,35,85,0
1,38,81,19
1,56,79,39
1,58,88,0
1,62,99,0
1,66,85,0
1,41,97,21
1,38,99,5
1,39,99,50
1,58,81,43
1,61,72,0
1,63,78,0
1,66,91,0
1,39,84,1
1,32,91,2
1,56,85,42
1,59,95,0
1,63,69,0
1,66,95,0
1,34,88,1
1,56,88,0
1,58,88,0
1,62,88,0
1,65,88,0
1,35,103,11
1,59,94,42
1,63,89,0
1,66,95,0
1,70,94,0
1,59,82,0
1,63,90,0
1,66,88,0
1,70,95,0
1,35,85,0
1,34,89,15
1,58,91,40
1,62,96,0
1,65,96,0
1,68,94,0
1,39,85,38
1,58,72,43
1,61,78,0
1,63,95,0
1,66,95,0
1,39,85,1
1,32,89,7
1,56,71,41
1,59,84,0
1,63,75,0
1,66,88,0
1,34,96,1
1,58,90,38
1,62,94,0
1,68,102,0
1,35,91,8
1,58,84,42
1,59,88,0
1,63,85,0
1,66,89,0
1,35,85,0
1,38,81,18
1,56,79,39
1,58,88,0
1,62,99,0
1,66,85,0
1,41,97,20
1,38,99,7
1,39,99,51
1,58,81,42
1,61,72,0
1,63,78,0
1,66,91,0
1,39,84,2
1,32,91,3
1,56,85,41
1,59,95,0
1,63,69,0
1,66,95,0
1,34,88,2
1,56,88,0
1,58,88,0
1,62,88,0
1,65,88,0
1,35,91,10
1,58,84,43
1,59,88,0
1,63,85,0
1,66,89,0
1,35,85,1
1,38,81,18
1,56,79,39
1,58,88,0
1,62,99,0
1,66,85,0
1,41,97,21
1,38,99,6
1,39,97,51
1,58,90,42
1,61,85,0
1,63,89,0
1,66,91,0
1,39,82,4
1,32,99,6
1,56,72,42
1,59,82,0
1,63,64,0
1,66,82,0
1,34,88,4
1,58,88,0
1,62,88,0
1,68,88,0
1,66,75,21
1,58,78,4
1,62,97,0
1,68,91,0
1,35,91,0
1,58,84,43
1,59,88,0
1,63,85,0
1,66,89,0
1,35,85,0
1,38,81,17
1,56,79,38
1,58,88,0
1,62,99,0
1,66,85,0
1,41,97,22
1,38,99,6
1,39,99,52
1,58,81,42
1,61,72,0
1,63,78,0
1,66,91,0
1,39,84,2
1,32,91,2
1,56,85,42
1,59,95,0
1,63,69,0
1,66,95,0
1,34,88,2
1,56,88,0
1,58,88,0
1,62,88,0
1,65,88,0
1,35,103,10
1,59,94,42
1,63,89,0
1,66,95,0
1,70,94,0
1,59,82,0
1,63,90,0
1,66,88,0
1,70,95,0
1,35,85,0
1,34,89,15
1,58,91,39
1,62,96,0
1,65,96,0
1,68,94,0
1,39,85,39
1,58,72,43
1,61,78,0
1,63,95,0
1,66,95,0
1,39,85,1
1,32,89,7
1,56,71,42
1,59,84,0
1,63,75,0
1,66,88,0
1,34,96,0
1,58,90,37
1,62,94,0
1,68,102,0
1,39,118,9
1,58,114,42
1,61,114,0
1,63,114,0
1,66,114,0
1,39,94,18
1,32,115,5
1,44,123,0
1,56,110,42
1,60,116,0
1,63,112,0
1,66,118,0
1,44,106,0
1,37,122,4
1,49,122,0
1,59,104,43
1,63,110,0
1,65,115,0
1,68,115,0
1,49,115,1
1,42,127,20
1,58,112,41
1,61,114,0
1,65,123,0
1,66,116,0
1,43,107,7
1,36,111,0
1,48,127,0
1,58,107,41
1,60,114,0
1,63,104,0
1,66,115,0
1,42,94,1
1,35,115,3
1,47,121,0
1,58,107,43
1,59,107,0
1,63,114,0
1,66,112,0
1,42,97,0
1,34,111,8
1,46,114,0
1,56,110,42
1,58,110,0
1,62,123,0
1,66,111,0
1,37,111,0
1,38,127,26
1,34,115,3
1,39,118,1
1,58,114,42
1,61,114,0
1,63,114,0
1,66,114,0
1,39,94,19
1,32,115,4
1,44,123,0
1,56,110,42
1,60,116,0
1,63,112,0
1,66,118,0
1,44,106,0
1,37,122,5
1,49,122,0
1,59,104,43
1,63,110,0
1,65,115,0
1,68,115,0
1,49,115,1
1,42,127,0
1,58,112,42
1,61,114,0
1,65,123,0
1,66,116,0
1,43,107,6
1,36,111,0
1,48,127,0
1,58,107,42
1,60,114,0
1,63,104,0
1,66,115,0
1,42,94,1
1,35,115,4
1,47,121,0
1,58,107,42
1,59,107,0
1,63,114,0
1,66,112,0
1,42,97,0
1,34,111,8
1,46,114,0
1,56,110,42
1,58,110,0
1,62,123,0
1,66,111,0
1,34,97,1
1,34,111,0
1,35,91,1
1,58,84,42
1,59,88,0
1,63,85,0
1,66,89,0
1,35,85,1
1,38,81,17
1,56,79,39
1,58,88,0
1,62,99,0
1,66,85,0
1,41,97,21
1,38,99,6
1,39,99,51
1,58,81,42
1,61,72,0
1,63,78,0
1,66,91,0
1,39,84,2
1,32,91,2
1,56,85,42
1,59,95,0
1,63,69,0
1,66,95,0
1,34,88,2
1,56,88,0
1,58,88,0
1,62,88,0
1,65,88,0
1,35,91,10
1,58,84,42
1,59,88,0
1,63,85,0
1,66,89,0
1,35,85,0
1,38,81,17
1,56,79,40
1,58,88,0
