track,note,velocity,time
0,85,127,722
0,85,126,2
0,85,126,2
0,73,110,24
0,68,105,21
0,65,102,21
0,37,95,6
0,61,102,15
0,73,111,2
0,68,107,21
0,65,103,20
0,61,100,17
0,61,94,18
0,68,100,2
0,80,92,2
0,87,123,0
0,61,94,2
0,68,100,2
0,80,92,2
0,87,124,0
0,61,94,2
0,68,100,2
0,80,92,2
0,87,127,0
0,61,94,2
0,80,92,2
0,87,127,0
0,68,100,1
0,61,94,2
0,68,100,2
0,80,120,1
0,87,120,0
0,61,94,2
0,68,100,2
0,80,126,2
0,87,126,0
0,61,94,2
0,68,100,2
0,80,92,2
0,87,127,0
0,61,94,2
0,68,100,2
0,80,92,2
0,87,127,0
0,73,100,1
0,68,100,17
0,65,100,21
0,61,100,21
0,61,94,2
0,68,100,2
0,80,92,3
0,85,123,0
0,61,94,2
0,68,100,2
0,80,92,2
0,87,124,0
0,61,94,2
0,68,100,2
0,80,92,2
0,85,127,0
0,61,94,2
0,80,92,2
0,87,127,0
0,68,100,1
0,61,94,2
0,68,100,2
0,80,92,1
0,85,127,0
0,61,94,2
0,68,100,2
0,80,92,2
0,87,127,0
0,61,94,2
0,68,100,2
0,80,92,2
0,85,127,0
0,61,94,2
0,68,100,2
0,80,92,2
0,85,127,0
0,85,122,163
0,79,114,19
0,73,107,11
0,70,102,0
0,41,95,2
0,64,100,11
0,64,94,2
0,70,100,2
0,79,118,2
0,85,118,0
0,64,94,2
0,70,100,2
0,79,118,2
0,85,118,0
0,64,94,2
0,70,100,2
0,79,122,2
0,87,122,0
0,64,94,2
0,70,100,2
0,79,126,2
0,87,126,0
0,64,94,2
0,79,92,2
0,87,127,0
0,70,100,1
0,64,94,2
0,70,100,2
0,79,121,1
0,87,121,0
0,64,94,2
0,70,100,2
0,79,126,2
0,87,126,0
0,64,94,2
0,70,100,2
0,79,120,2
0,87,120,0
0,64,94,2
0,70,100,2
0,79,123,2
0,87,123,0
0,64,94,2
0,70,100,2
0,79,92,2
0,87,127,0
0,64,94,2
0,70,100,2
0,79,127,3
0,85,127,0
0,64,94,2
0,70,100,2
0,79,92,2
0,87,124,0
0,64,94,2
0,70,100,2
0,79,122,2
0,85,122,0
0,64,94,2
0,79,92,2
0,87,127,0
0,70,100,1
0,64,94,2
0,70,100,2
0,79,92,1
0,85,127,0
0,64,94,2
0,70,100,2
0,79,92,2
0,87,127,0
0,64,94,2
0,70,100,2
0,79,92,2
0,85,127,0
0,64,94,2
0,70,100,2
0,79,92,2
0,85,127,0
0,79,110,43
0,73,105,21
0,70,102,20
0,67,102,21
0,73,111,2
0,70,107,21
0,67,103,20
0,61,100,17
0,37,95,1
0,49,125,0
0,53,95,4
0,56,95,12
0,61,105,12
0,60,95,6
0,61,95,9
0,63,109,11
0,61,95,12
0,58,95,10
0,59,103,9
0,56,83,11
0,53,112,13
0,51,95,18
0,50,95,11
0,49,104,12
0,61,93,44
0,59,88,2
0,63,103,120
0,62,81,9
0,61,81,11
0,61,63,2
0,59,59,2
0,61,121,29
0,61,111,14
0,42,84,2
0,58,51,0
0,54,43,1
0,66,48,0
0,58,54,2
0,61,47,0
0,62,107,6
0,58,93,32
0,61,98,0
0,66,103,0
0,58,72,1
0,54,81,1
0,61,75,0
0,63,120,0
0,66,75,0
0,62,116,79
0,58,48,33
0,54,41,4
0,58,46,0
0,66,54,0
0,63,116,1
0,37,84,2
0,61,46,0
0,54,90,26
0,58,81,0
0,66,72,0
0,58,89,3
0,61,98,0
0,66,109,0
0,61,78,1
0,62,121,62
0,58,42,45
0,63,121,1
0,42,84,1
0,66,39,3
0,61,49,4
0,54,39,1
0,58,45,0
0,78,77,2
0,58,86,55
0,54,81,1
0,58,81,0
0,61,98,0
0,66,109,0
0,66,75,0
0,61,81,5
0,77,79,2
0,75,80,42
0,66,55,52
0,37,84,2
0,58,47,2
0,78,80,4
0,54,41,1
0,61,50,0
0,77,77,104
0,75,86,44
0,66,72,8
0,54,81,1
0,58,81,0
0,61,78,0
0,58,93,1
0,61,103,1
0,66,103,1
0,74,71,4
0,61,107,6
0,73,73,55
0,56,41,2
0,59,57,1
0,61,44,0
0,65,57,0
0,44,84,4
0,59,50,0
0,61,121,1
0,62,105,5
0,63,116,2
0,59,90,5
0,56,85,1
0,61,93,0
0,61,78,0
0,65,87,0
0,56,98,1
0,59,100,1
0,65,91,0
0,62,116,16
0,59,46,6
0,56,36,1
0,63,117,0
0,37,84,1
0,59,62,0
0,65,51,1
0,61,43,7
0,56,72,2
0,59,85,0
0,65,83,0
0,61,70,5
0,56,93,2
0,59,103,1
0,61,103,0
0,65,89,1
0,62,118,20
0,65,64,1
0,56,44,1
0,59,58,0
0,61,41,3
0,63,116,3
0,44,84,3
0,59,54,1
0,80,77,102
0,59,85,40
0,56,72,1
0,65,85,0
0,56,93,1
0,59,98,0
0,61,89,0
0,65,85,0
0,61,66,1
0,77,84,7
0,75,80,59
0,56,41,53
0,59,62,0
0,65,60,0
0,37,84,4
0,80,69,4
0,61,56,2
0,77,74,109
0,75,80,41
0,56,93,8
0,56,81,0
0,59,95,0
0,59,95,0
0,61,89,0
0,61,78,0
0,65,85,0
0,65,87,0
0,74,80,2
0,61,115,9
0,73,80,5
0,59,58,7
0,65,57,1
0,44,84,3
0,59,52,0
0,61,37,0
0,56,33,1
0,61,120,0
0,74,74,117
0,62,113,2
0,56,78,47
0,59,92,1
0,61,75,1
0,65,85,1
0,75,80,0
0,56,98,5
0,59,95,0
0,61,89,0
0,65,87,0
0,63,122,2
0,76,82,87
0,64,119,8
0,72,79,3
0,56,51,8
0,59,67,0
0,65,66,0
0,61,46,1
0,77,86,1
0,37,84,1
0,65,124,0
0,59,56,4
0,73,67,3
0,56,93,44
0,59,103,0
0,61,93,0
0,59,92,4
0,56,78,2
0,65,83,0
0,61,81,1
0,65,85,0
0,72,74,1
0,76,82,3
0,64,122,12
0,77,74,2
0,59,60,2
0,65,61,0
0,73,80,0
0,65,113,1
0,44,84,2
0,56,42,0
0,59,49,0
0,61,50,0
0,72,69,6
0,76,82,11
0,64,117,2
0,73,65,41
0,56,75,1
0,65,105,0
0,59,90,1
0,61,75,0
0,65,81,0
0,56,86,1
0,59,98,1
0,61,89,0
0,65,87,0
0,77,74,1
0,72,69,2
0,64,122,14
0,76,80,0
0,73,75,17
0,56,36,10
0,59,55,1
0,65,55,0
0,61,46,2
0,65,118,1
0,37,84,1
0,77,79,2
0,56,93,8
0,59,91,0
0,61,89,0
0,65,87,0
0,56,81,1
0,59,85,0
0,61,81,0
0,65,83,0
0,73,90,1
0,73,83,14
0,61,117,20
0,74,83,7
0,70,69,6
0,54,44,2
0,58,49,0
0,66,60,0
0,42,84,2
0,61,43,2
0,63,107,4
0,58,47,5
0,75,67,13
0,54,78,3
0,58,81,0
0,66,78,1
0,61,98,2
0,61,81,0
0,66,98,0
0,58,89,1
0,69,80,4
0,62,118,2
0,74,70,0
0,63,121,10
0,70,73,1
0,37,84,1
0,75,73,2
0,54,58,1
0,58,50,0
0,66,66,0
0,58,47,6
0,61,45,3
0,58,86,57
0,61,98,0
0,66,103,0
0,66,72,0
0,54,81,1
0,58,85,0
0,61,85,0
0,74,77,5
0,69,79,1
0,62,121,19
0,70,75,1
0,75,69,1
0,63,121,1
0,54,41,5
0,58,47,0
0,66,60,0
0,61,49,5
0,42,84,1
0,58,47,7
0,74,80,1
0,69,77,1
0,66,72,52
0,75,73,2
0,58,85,3
0,54,90,1
0,61,81,0
0,70,77,5
0,58,93,4
0,61,103,0
0,66,109,0
0,74,77,8
0,69,71,6
0,75,73,14
0,54,43,1
0,58,49,0
0,66,56,0
0,70,71,1
0,61,46,4
0,37,84,3
0,58,81,58
0,66,72,0
0,54,85,2
0,58,89,0
0,61,103,0
0,61,72,0
0,66,109,0
0,61,108,6
0,42,84,13
0,58,51,0
0,61,123,0
0,73,103,0
0,54,43,1
0,66,48,0
0,58,54,2
0,61,63,0
0,62,111,2
0,58,89,1
0,66,103,0
0,61,98,1
0,63,120,0
0,58,72,1
0,54,81,1
0,61,75,0
0,66,75,0
0,58,48,20
0,54,41,11
0,58,46,0
0,66,54,0
0,75,103,1
0,37,84,2
0,61,46,0
0,62,118,2
0,63,116,8
0,54,90,7
0,58,81,0
0,66,72,0
0,58,89,1
0,61,98,0
0,66,103,0
0,61,78,3
0,75,103,7
0,62,111,2
0,76,103,7
0,77,103,6
0,58,42,3
0,63,121,2
0,42,84,2
0,66,39,3
0,61,49,1
0,54,39,1
0,58,45,0
0,78,123,8
0,54,81,8
0,58,89,0
0,58,81,0
0,61,103,0
0,66,109,0
0,66,75,0
0,61,81,5
0,66,55,20
0,37,84,2
0,58,47,2
0,54,41,1
0,61,50,0
0,77,103,47
0,75,103,49
0,58,89,1
0,61,98,0
0,66,109,0
0,66,72,1
0,54,81,1
0,58,81,0
0,61,78,0
0,74,103,2
0,61,119,2
0,73,103,5
0,56,41,1
0,59,57,1
0,61,44,0
0,65,57,0
0,44,84,6
0,59,50,0
0,61,116,3
0,62,109,6
0,56,98,6
0,59,100,0
0,61,98,0
0,59,90,2
0,56,85,1
0,61,78,0
0,65,87,0
0,65,85,1
0,63,122,5
0,59,46,9
0,56,36,1
0,37,84,1
0,59,62,0
0,65,51,1
0,61,43,3
0,75,103,2
0,62,118,6
0,56,72,43
0,59,85,0
0,65,83,0
0,61,70,5
0,63,116,0
0,56,93,3
0,59,100,1
0,61,93,0
0,65,89,0
0,77,103,3
0,78,103,1
0,62,118,1
0,79,103,16
0,65,64,14
0,56,44,1
0,59,58,0
0,61,41,1
0,63,116,2
0,44,67,3
0,51,75,0
0,80,103,1
0,59,54,2
0,59,85,9
0,56,72,1
0,65,85,0
0,56,98,1
0,59,100,0
0,61,98,0
0,61,66,1
0,65,89,0
0,56,41,34
0,59,62,0
0,65,60,0
0,37,84,2
0,61,56,6
0,77,103,28
0,75,103,47
0,56,81,2
0,59,95,0
0,61,78,0
0,65,87,0
0,56,89,4
0,61,93,0
0,65,89,0
0,59,100,1
0,74,103,86
0,61,118,3
0,73,103,2
0,59,58,5
0,65,57,1
0,44,84,1
0,59,52,0
0,61,37,0
0,56,33,1
0,61,107,0
0,62,113,1
0,71,103,9
0,56,78,10
0,59,92,1
0,61,89,1
0,56,98,2
0,59,98,0
0,61,75,0
0,65,85,0
0,65,85,1
0,63,121,2
0,64,118,8
0,56,51,22
0,59,67,0
0,65,66,0
0,68,103,3
0,61,46,1
0,65,111,0
0,37,84,2
0,59,56,4
0,56,89,2
0,59,100,0
0,61,98,0
0,65,83,0
0,59,92,4
0,56,78,2
0,61,81,1
0,65,85,0
0,64,119,86
0,65,124,2
0,59,60,1
0,65,61,0
0,44,84,2
0,56,42,0
0,59,49,0
0,61,50,0
0,64,121,76
0,56,75,44
0,59,90,1
0,61,75,0
0,65,81,0
0,56,98,1
0,59,100,0
0,61,103,0
0,65,111,1
0,65,85,1
0,64,121,87
0,65,118,2
0,56,36,16
0,59,55,1
0,65,55,0
0,61,46,2
0,37,84,2
0,54,103,1
0,58,103,0
0,61,87,2
0,66,100,0
0,82,103,0
0,70,121,0
0,56,81,2
0,59,85,0
0,61,81,0
0,65,83,0
0,73,103,0
0,77,103,0
0,42,52,50
0,54,44,26
0,58,49,0
0,66,60,0
0,70,103,3
0,73,103,0
0,78,103,0
0,42,84,4
0,61,43,1
0,66,116,1
0,58,93,1
0,61,109,0
0,66,115,0
0,49,116,2
0,51,116,109
0,53,100,6
0,54,120,79
0,58,116,2
0,63,116,10
0,60,117,6
0,61,117,2
0,61,120,39
0,61,116,8
0,42,84,8
0,58,51,0
0,70,105,0
0,54,43,1
0,66,48,0
0,58,54,2
0,61,47,0
0,62,105,2
0,63,122,11
0,58,93,8
0,61,98,0
0,66,103,0
0,58,72,1
0,54,81,1
0,61,75,0
0,66,75,0
0,58,48,33
0,73,105,7
0,54,41,4
0,58,46,0
0,66,54,0
0,37,84,3
0,61,46,0
0,62,121,3
0,54,90,26
0,58,81,0
0,66,72,0
0,58,89,3
0,61,98,0
0,66,109,0
0,61,78,1
0,63,122,2
0,62,103,27
0,58,42,4
0,63,121,5
0,42,84,1
0,66,39,3
0,61,49,1
0,54,39,1
0,58,45,0
0,82,105,0
0,58,86,55
0,54,81,1
0,58,81,0
0,61,98,0
0,66,109,0
0,66,75,0
0,61,81,5
0,70,122,19
0,66,55,10
0,37,84,2
0,58,47,2
0,75,124,3
0,54,41,2
0,61,50,0
0,78,105,112
0,77,105,51
0,66,72,1
0,54,81,1
0,58,81,0
0,61,78,0
0,58,93,1
0,61,103,1
0,66,103,1
0,75,105,76
0,61,122,5
0,56,41,37
0,71,105,0
0,59,57,1
0,61,44,0
0,65,57,0
0,44,84,1
0,59,50,0
0,61,122,1
0,62,118,9
0,59,90,32
0,56,85,1
0,61,93,0
0,61,78,0
0,65,87,0
0,56,98,1
0,59,100,1
0,65,91,0
0,63,121,1
0,59,46,34
0,56,36,1
0,37,84,1
0,59,62,0
0,65,51,1
0,75,105,6
0,61,43,1
0,62,116,2
0,56,72,43
0,59,85,0
0,65,83,0
0,61,70,5
0,56,93,1
0,59,103,1
0,61,103,0
0,63,121,0
0,65,89,2
0,62,109,2
0,65,64,14
0,56,44,1
0,59,58,0
0,61,41,2
0,63,121,5
0,83,105,1
0,44,84,2
0,59,54,4
0,59,85,40
0,56,72,1
0,65,85,0
0,56,93,1
0,59,98,0
0,61,89,0
0,65,85,0
0,61,66,1
0,71,122,30
0,56,41,12
0,59,62,0
0,65,60,0
0,37,84,4
0,61,56,6
0,75,122,13
0,80,105,1
0,56,93,49
0,56,81,0
0,59,95,0
0,59,95,0
0,61,89,0
0,61,78,0
0,65,85,0
0,65,87,0
0,77,105,0
0,75,105,9
0,61,121,13
0,73,105,12
0,61,111,2
0,59,58,1
0,65,57,1
0,44,84,1
0,59,52,0
0,61,37,0
0,56,33,1
0,62,109,2
0,56,78,47
0,59,92,1
0,63,122,1
0,61,75,2
0,65,85,1
0,56,98,5
0,59,95,0
0,61,89,0
0,65,87,0
0,56,51,20
0,59,67,0
0,65,66,0
0,61,46,4
0,37,84,2
0,59,56,4
0,77,105,9
0,62,113,2
0,63,121,3
0,56,93,4
0,59,103,0
0,61,93,0
0,59,92,4
0,56,78,2
0,65,83,0
0,61,81,1
0,65,85,0
0,64,111,0
0,65,121,5
0,59,60,1
0,65,61,0
0,85,105,2
0,44,84,3
0,56,42,0
0,59,49,0
0,61,50,0
0,89,105,3
0,56,75,44
0,59,90,1
0,61,75,0
0,65,81,0
0,56,86,1
0,59,98,1
0,61,89,0
0,65,87,0
0,73,110,91
0,77,110,0
0,77,110,5
0,73,111,4
0,77,105,4
0,73,105,1
0,56,36,1
0,59,55,1
0,65,55,0
0,61,46,2
0,37,84,4
0,56,93,26
0,59,91,0
0,61,89,0
0,65,87,0
0,56,81,5
0,59,85,0
0,61,81,0
0,65,83,0
0,69,122,17
0,74,122,1
0,65,115,2
0,66,113,2
0,70,113,2
0,75,113,4
0,78,105,0
0,54,44,1
0,58,49,0
0,66,60,0
0,73,105,0
0,42,84,7
0,61,43,2
0,54,78,40
0,58,81,0
0,66,78,1
0,61,98,2
0,61,81,0
0,66,98,0
0,58,89,1
0,69,100,1
0,74,124,2
0,65,98,1
0,70,107,2
0,66,104,2
0,37,84,3
0,75,121,1
0,54,58,4
0,58,50,0
0,66,66,0
0,61,45,9
0,58,86,8
0,61,98,0
0,66,103,0
0,66,72,0
0,54,81,1
0,58,85,0
0,61,85,0
0,65,103,10
0,69,107,2
0,74,118,2
0,70,104,6
0,66,107,1
0,54,41,2
0,58,47,0
0,66,60,0
0,61,49,5
0,75,127,0
0,42,84,1
0,65,95,4
0,69,103,2
0,74,116,1
0,66,72,49
0,58,85,1
0,54,90,1
0,61,81,0
0,66,104,1
0,58,93,3
0,61,103,0
0,66,109,0
0,70,101,2
0,75,127,4
0,69,97,1
