track,note,velocity,time
1,65,55,84
1,65,0,10
1,67,60,0
1,67,0,10
1,70,65,2
1,74,70,12
1,70,0,4
1,79,75,8
1,74,0,3
1,79,0,3
1,77,70,18
1,77,0,11
1,72,55,0
1,67,65,0
1,72,0,2
1,67,0,68
1,65,55,0
1,65,0,8
1,67,60,0
1,67,0,11
1,70,65,1
1,74,70,12
1,70,0,6
1,79,75,6
1,74,0,4
1,79,0,2
1,77,60,18
1,77,0,10
1,79,70,0
1,79,0,10
1,79,55,0
1,79,0,11
1,75,65,1
1,75,0,32
1,65,55,0
1,65,0,8
1,67,60,0
1,67,0,11
1,70,65,1
1,74,70,12
1,70,0,6
1,79,75,6
1,74,0,4
1,79,0,2
1,77,70,18
1,77,0,10
1,72,60,0
1,67,65,0
1,72,0,4
1,67,0,66
1,70,75,0
1,70,0,8
1,65,70,0
1,65,0,11
1,62,65,1
1,62,0,11
1,58,75,1
1,58,0,11
1,57,70,1
1,57,0,10
1,51,75,0
1,51,0,10
1,71,75,0
1,67,65,12
1,71,0,4
1,64,60,8
1,67,0,2
1,64,0,8
1,72,73,2
1,69,63,12
1,72,0,4
1,67,57,8
1,69,0,2
1,67,0,8
1,74,70,2
1,71,60,12
1,74,0,4
1,69,55,8
1,71,0,2
1,69,0,8
1,76,65,2
1,72,60,12
1,76,0,4
1,70,55,8
1,72,0,2
1,70,0,8
1,77,60,2
1,74,53,12
1,77,0,4
1,71,50,8
1,74,0,2
1,71,0,8
1,65,55,2
1,65,0,10
1,67,60,0
1,67,0,10
1,70,65,2
1,74,70,12
1,70,0,4
1,79,75,8
1,74,0,3
1,79,0,3
1,77,70,18
1,77,0,11
1,72,60,0
1,67,65,0
1,72,0,2
1,67,0,68
1,65,55,0
1,65,0,8
1,67,60,0
1,67,0,11
1,70,65,1
1,74,70,12
1,70,0,6
1,79,75,6
1,74,0,4
1,79,0,2
1,77,60,18
1,77,0,10
1,79,70,0
1,79,0,10
1,79,55,0
1,79,0,11
1,75,65,1
1,75,0,32
1,65,55,0
1,65,0,8
1,67,60,0
1,67,0,11
1,70,65,1
1,74,70,12
1,70,0,6
1,79,75,6
1,74,0,4
1,79,0,2
1,77,70,18
1,77,0,10
1,72,60,0
1,67,65,0
1,72,0,4
1,67,0,66
1,70,75,0
1,70,0,8
1,65,70,0
1,65,0,11
1,62,65,1
1,62,0,11
1,58,75,1
1,58,0,11
1,57,70,1
1,57,0,10
1,51,75,0
1,51,0,10
1,71,75,0
1,67,65,12
1,71,0,4
1,64,60,8
1,67,0,2
1,64,0,8
1,72,73,2
1,69,63,12
1,72,0,4
1,67,57,8
1,69,0,2
1,67,0,8
1,74,70,2
1,71,60,12
1,74,0,4
1,69,55,8
1,71,0,2
1,69,0,8
1,76,65,2
1,72,60,12
1,76,0,4
1,70,55,8
1,72,0,2
1,70,0,8
1,77,60,2
1,74,53,12
1,77,0,4
1,71,50,8
1,74,0,2
1,71,0,9
1,65,55,1
1,65,0,10
1,67,60,0
1,67,0,10
1,70,65,2
1,74,70,12
1,70,0,4
1,79,75,8
1,74,0,3
1,79,0,3
1,77,70,18
1,77,0,11
1,72,60,0
1,67,65,0
1,72,0,2
1,67,0,68
1,65,55,0
1,65,0,8
1,67,60,0
1,67,0,11
1,70,65,1
1,74,70,12
1,70,0,6
1,79,75,6
1,74,0,4
1,79,0,2
1,77,60,18
1,77,0,10
1,79,70,0
1,79,0,10
1,79,55,0
1,79,0,11
1,75,65,1
1,75,0,32
1,65,55,0
1,65,0,8
1,67,60,0
1,67,0,11
1,70,65,1
1,74,70,12
1,70,0,6
1,79,75,6
1,74,0,4
1,79,0,2
1,77,70,18
1,77,0,10
1,72,60,0
1,67,65,0
1,72,0,4
1,67,0,66
1,70,75,0
1,70,0,8
1,65,70,0
1,65,0,11
1,62,65,1
1,62,0,11
1,58,75,1
1,58,0,11
1,57,70,1
1,57,0,10
1,51,75,0
1,51,0,10
1,71,75,0
1,67,65,12
1,71,0,4
1,64,60,8
1,67,0,2
1,64,0,8
1,72,73,2
1,69,63,12
1,72,0,4
1,67,57,8
1,69,0,2
1,67,0,8
1,74,70,2
1,71,60,12
1,74,0,4
1,69,55,8
1,71,0,2
1,69,0,8
1,76,65,2
1,72,60,12
1,76,0,4
1,71,55,8
1,72,0,2
1,71,0,9
1,64,65,1
1,64,0,10
1,69,75,0
1,69,0,10
1,69,75,12
1,74,75,1
1,69,0,31
1,74,0,2
1,67,75,2
1,74,75,1
1,67,0,31
1,74,0,2
1,66,75,0
1,74,75,1
1,66,0,44
1,74,0,2
1,52,85,0
1,52,0,10
1,57,95,0
1,57,0,10
1,66,75,24
1,71,75,1
1,71,0,28
1,66,0,0
1,64,75,7
1,71,75,1
1,71,0,24
1,64,0,0
1,62,75,0
1,71,75,1
1,62,0,39
1,71,0,2
1,52,76,0
1,52,0,9
1,57,85,0
1,57,0,10
1,52,105,0
1,52,0,20
1,52,100,124
1,52,0,10
1,57,110,0
1,57,0,10
1,52,100,144
1,52,0,10
1,57,110,0
1,57,0,10
1,40,105,0
1,40,0,20
1,52,100,124
1,52,0,10
1,57,110,0
1,57,0,10
1,52,100,144
1,52,0,10
1,57,110,0
1,57,0,10
1,52,100,144
1,52,0,10
1,57,110,0
1,57,0,10
1,52,100,144
1,52,0,10
1,57,110,0
1,57,0,10
1,52,100,144
1,52,0,10
1,57,110,0
1,57,0,10
1,55,105,24
1,55,0,20
1,50,100,100
1,50,0,10
1,55,100,0
1,55,0,20
1,50,95,124
1,50,0,10
1,55,100,0
1,55,0,10
1,45,105,0
1,45,0,10
1,48,65,0
1,48,0,13
1,55,65,11
1,60,65,1
1,55,0,12
1,60,0,1
1,55,65,10
1,60,65,1
1,55,0,12
1,60,0,1
1,55,65,10
1,60,65,1
1,55,0,12
1,60,0,1
1,55,65,10
1,60,65,1
1,55,0,12
1,60,0,1
1,55,65,10
1,60,65,1
1,55,0,12
1,60,0,1
1,55,65,10
1,60,65,1
1,55,0,12
1,60,0,1
1,55,65,10
1,60,65,1
1,55,0,89
1,60,0,1
1,55,65,5
1,60,65,1
1,55,0,12
1,60,0,1
1,55,65,10
1,60,65,1
1,55,0,12
1,60,0,1
1,55,65,10
1,60,65,1
1,55,0,12
1,60,0,1
1,55,65,10
1,60,65,1
1,55,0,12
1,60,0,1
1,53,65,10
1,60,65,1
1,53,0,89
1,60,0,1
1,53,65,5
1,60,65,1
1,53,0,96
1,60,0,1
1,52,100,334
1,52,0,10
1,57,90,0
1,57,0,19
1,52,105,29
1,52,0,20
1,52,100,124
1,52,0,10
1,57,110,0
1,57,0,10
1,52,100,144
1,52,0,10
1,57,110,0
1,57,0,10
1,40,105,0
1,40,0,20
1,52,100,124
1,52,0,10
1,57,110,0
1,57,0,10
1,52,100,144
1,52,0,10
1,57,110,0
1,57,0,10
1,52,100,144
1,52,0,10
1,57,110,0
1,57,0,10
1,52,100,144
1,52,0,10
1,57,110,0
1,57,0,10
1,52,100,144
1,52,0,10
1,57,110,0
1,57,0,10
1,55,105,24
1,55,0,20
1,50,100,100
1,50,0,10
1,55,100,0
1,55,0,20
1,50,95,124
1,50,0,10
1,55,100,0
1,55,0,10
1,45,105,0
1,45,0,10
1,48,65,0
1,48,0,13
1,55,65,11
1,60,65,1
1,55,0,12
1,60,0,1
1,55,65,10
1,60,65,1
1,55,0,12
1,60,0,1
1,55,65,10
1,60,65,1
1,55,0,12
1,60,0,1
1,55,65,10
1,60,65,1
1,55,0,12
1,60,0,1
1,55,65,10
1,60,65,1
1,55,0,12
1,60,0,1
1,55,65,10
1,60,65,1
1,55,0,12
1,60,0,1
1,55,65,10
1,60,65,1
1,55,0,89
1,60,0,1
1,55,65,5
1,60,65,1
1,55,0,12
1,60,0,1
1,55,65,10
1,60,65,1
1,55,0,12
1,60,0,1
1,55,65,10
1,60,65,1
1,55,0,12
1,60,0,1
1,55,65,10
1,60,65,1
1,55,0,12
1,60,0,1
1,53,65,10
1,60,65,1
1,53,0,89
1,60,0,1
1,53,65,5
1,60,65,1
1,53,0,96
1,60,0,1
1,52,100,334
1,52,0,8
1,57,110,0
1,57,0,10
1,52,105,24
1,52,0,20
1,52,100,124
1,52,0,10
1,57,110,0
1,57,0,10
1,52,100,144
1,52,0,10
1,57,110,0
1,57,0,10
1,40,105,0
1,40,0,20
1,52,100,124
1,52,0,10
1,57,110,0
1,57,0,10
1,52,100,144
1,52,0,10
1,57,110,0
1,57,0,10
1,52,100,144
1,52,0,10
1,57,110,0
1,57,0,10
1,52,100,144
1,52,0,10
1,57,110,0
1,57,0,10
1,52,100,144
1,52,0,10
1,57,110,0
1,57,0,10
1,55,105,24
1,55,0,20
1,50,100,100
1,50,0,10
1,55,100,0
1,55,0,23
1,50,100,121
1,50,0,10
1,55,105,0
1,55,0,10
1,45,105,0
1,45,0,10
1,65,90,2
1,65,0,8
1,67,60,0
1,67,0,10
1,70,65,2
1,74,70,12
1,70,0,4
1,79,75,8
1,74,0,3
1,79,0,3
1,77,70,18
1,77,0,11
1,72,60,0
1,67,65,0
1,72,0,2
1,67,0,68
1,65,55,0
1,65,0,8
1,67,60,0
1,67,0,11
1,70,65,1
1,74,70,12
1,70,0,6
1,79,75,6
1,74,0,4
1,79,0,2
1,77,60,18
1,77,0,10
1,79,70,0
1,79,0,10
1,79,55,0
1,79,0,11
1,75,65,1
1,75,0,32
1,65,55,0
1,65,0,8
1,67,60,0
1,67,0,11
1,70,65,1
1,74,70,12
1,70,0,6
1,79,75,6
1,74,0,4
1,79,0,2
1,77,70,18
1,77,0,10
1,72,60,0
1,67,65,0
1,72,0,4
1,67,0,66
1,70,75,0
1,70,0,8
1,65,70,0
1,65,0,11
1,62,65,1
1,62,0,11
1,58,75,1
1,58,0,11
1,57,70,1
1,57,0,10
1,51,75,0
1,51,0,10
1,71,75,0
1,67,65,12
1,71,0,4
1,64,60,8
1,67,0,2
1,64,0,8
1,72,73,2
1,69,63,12
1,72,0,4
1,67,57,8
1,69,0,2
1,67,0,8
1,74,70,2
1,71,60,12
1,74,0,4
1,69,55,8
1,71,0,2
1,69,0,8
1,76,65,2
1,72,60,12
1,76,0,4
1,70,55,8
1,72,0,2
1,70,0,8
1,77,60,2
1,74,53,12
1,77,0,4
1,71,50,8
1,74,0,2
1,71,0,9
1,65,55,1
1,65,0,10
1,67,60,0
1,67,0,10
1,70,65,2
1,74,70,12
1,70,0,4
1,79,75,8
1,74,0,3
1,79,0,3
1,77,70,18
1,77,0,11
1,72,60,0
1,67,65,0
1,72,0,2
1,67,0,68
1,65,55,0
1,65,0,8
1,67,60,0
1,67,0,11
1,70,65,1
1,74,70,12
1,70,0,6
1,79,75,6
1,74,0,4
1,79,0,2
1,77,60,18
1,77,0,10
1,79,70,0
1,79,0,10
1,79,55,0
1,79,0,11
1,75,65,1
1,75,0,32
1,65,55,0
1,65,0,8
1,67,60,0
1,67,0,11
1,70,65,1
1,74,70,12
1,70,0,6
1,79,75,6
1,74,0,4
1,79,0,2
1,77,70,18
1,77,0,10
1,72,60,0
1,67,65,0
1,72,0,4
1,67,0,66
1,70,75,0
1,70,0,8
1,65,70,0
1,65,0,11
1,62,65,1
1,62,0,11
1,58,75,1
1,58,0,11
1,57,70,1
1,57,0,10
1,51,75,0
1,51,0,10
1,71,75,0
1,67,65,12
1,71,0,4
1,64,60,8
1,67,0,2
1,64,0,8
1,72,73,2
1,69,63,12
1,72,0,4
1,67,57,8
1,69,0,2
1,67,0,8
1,74,70,2
1,71,60,12
1,74,0,4
1,69,55,8
1,71,0,2
1,69,0,8
1,76,65,2
1,72,60,12
1,76,0,4
1,70,55,8
1,72,0,2
1,70,0,8
1,52,65,2
1,52,0,10
1,57,75,0
1,57,0,10
1,52,100,0
1,52,0,23
1,52,100,121
1,52,0,10
1,57,110,0
1,57,0,10
1,52,100,144
1,52,0,10
1,57,110,0
1,57,0,10
1,40,105,0
1,40,0,20
1,52,100,124
1,52,0,10
1,57,110,0
1,57,0,10
1,52,100,144
1,52,0,10
1,57,110,0
1,57,0,10
1,52,100,144
1,52,0,10
1,57,110,0
1,57,0,10
1,52,100,144
1,52,0,10
1,57,110,0
1,57,0,10
1,52,100,144
1,52,0,10
1,57,110,0
1,57,0,10
1,55,105,24
1,55,0,20
1,50,100,100
1,50,0,10
1,55,100,0
1,55,0,20
1,57,125,0
1,57,0,121
1,56,85,24
1,56,0,7
1,57,95,1
1,57,0,7
1,59,105,1
1,59,0,14
1,59,90,18
1,59,0,7
1,61,100,1
1,61,0,7
1,63,110,1
1,63,0,14
1,64,85,18
1,64,0,6
1,66,90,0
1,66,0,6
1,68,100,0
1,68,0,11
1,64,90,1
1,64,0,6
1,66,95,0
1,66,0,6
1,68,105,0
1,68,0,11
1,66,95,1
1,66,0,6
1,68,100,0
1,68,0,6
1,69,105,0
1,69,0,11
1,66,100,1
1,66,0,6
1,68,105,0
1,68,0,6
1,69,110,0
1,69,0,11
1,68,105,1
1,68,0,6
1,69,110,0
1,69,0,6
1,71,115,0
1,71,0,11
1,69,110,1
1,69,0,6
1,68,105,0
1,66,100,6
1,68,0,2
1,66,0,4
1,66,95,0
1,68,100,6
1,66,0,2
1,68,0,4
1,69,105,0
1,69,0,6
1,68,110,0
1,66,105,6
1,68,0,2
1,66,0,4
1,64,100,0
1,64,0,6
1,63,95,0
1,61,85,6
1,63,0,2
1,61,0,4
1,59,80,0
1,59,0,6
1,61,85,0
1,63,95,6
1,61,0,2
1,63,0,4
1,64,100,0
1,64,0,12
1,64,110,0
1,64,0,6
1,64,105,0
1,64,0,6
1,66,105,0
1,66,0,6
1,66,110,0
1,68,115,6
1,66,0,2
1,68,0,4
1,66,110,0
1,66,0,6
1,64,105,0
1,64,0,12
1,63,100,0
1,63,0,6
1,63,95,0
1,61,90,6
1,63,0,2
1,61,0,4
1,59,85,0
1,59,0,6
1,57,90,0
1,59,85,6
1,57,0,2
1,59,0,4
1,61,90,0
1,61,0,6
1,61,95,0
1,63,100,6
1,61,0,2
1,63,0,4
1,64,105,0
1,64,0,6
1,66,110,0
1,66,0,6
1,64,95,0
1,64,0,5
1,63,85,1
1,63,0,22
1,63,100,0
1,63,0,6
1,63,95,0
1,61,90,6
1,63,0,2
1,61,0,4
1,59,85,0
1,59,0,6
1,57,90,0
1,59,85,6
1,57,0,2
1,59,0,4
1,61,90,0
1,61,0,6
1,61,95,0
1,63,100,6
1,61,0,2
1,63,0,4
1,64,105,0
1,64,0,6
1,66,110,0
1,66,0,6
1,64,95,0
1,64,0,5
1,63,85,1
1,63,0,22
2,65,90,372
2,65,0,10
2,67,95,0
2,67,0,12
2,69,100,0
2,69,0,12
2,74,105,0
2,79,110,12
2,74,0,2
2,79,0,6
2,77,105,16
2,77,0,10
2,72,100,0
2,67,95,12
2,72,0,2
2,67,0,69
2,63,90,1
2,63,0,8
2,65,95,0
2,65,0,12
2,67,100,0
2,67,0,12
2,72,105,0
2,77,110,12
2,72,0,2
2,77,0,6
2,75,105,16
2,75,0,10
2,70,105,0
2,65,95,12
2,70,0,2
2,65,0,69
2,63,90,1
2,63,0,8
2,65,95,0
2,65,0,12
2,67,100,0
2,67,0,12
2,72,105,0
2,77,110,12
2,72,0,2
2,77,0,6
2,75,105,16
2,75,0,10
2,70,100,0
2,62,95,12
2,70,0,2
2,62,0,80
2,65,90,1718
2,65,0,10
2,67,95,0
2,67,0,12
2,69,100,0
2,69,0,12
2,74,105,0
2,79,110,12
2,74,0,2
2,79,0,6
2,77,105,16
2,77,0,10
2,72,100,0
2,67,95,12
2,72,0,2
2,67,0,69
2,65,90,1
2,65,0,8
2,67,95,0
2,67,0,12
2,69,100,0
2,69,0,12
2,74,105,0
2,79,110,12
2,74,0,2
2,79,0,6
2,77,105,16
2,77,0,10
2,72,100,0
2,67,95,12
2,72,0,2
2,67,0,69
2,65,90,1
2,65,0,8
2,67,95,0
2,67,0,12
2,69,100,0
2,69,0,12
