track,note,velocity,time
3,39,64,781
3,63,73,0
3,70,73,0
3,67,91,1
3,63,73,126
3,67,82,0
3,70,82,0
3,62,60,129
3,65,82,0
3,70,64,0
3,65,73,121
3,70,64,0
3,62,60,1
3,46,60,359
3,51,82,81
3,60,64,0
3,63,73,0
3,70,64,0
3,60,73,144
3,63,64,0
3,70,73,0
3,65,64,140
3,70,60,0
3,62,60,3
3,62,60,103
3,65,64,0
3,70,64,0
3,39,64,103
3,63,73,1
3,67,82,0
3,70,73,0
3,63,73,148
3,67,73,0
3,70,73,0
3,46,64,114
3,62,64,0
3,65,73,0
3,70,60,0
3,62,64,111
3,65,73,0
3,70,73,0
3,51,73,61
3,63,60,0
3,70,73,0
3,67,73,1
3,63,64,174
3,67,64,0
3,70,73,0
3,63,60,174
3,67,73,0
3,70,64,0
3,63,64,134
3,67,73,0
3,70,73,0
3,63,64,169
3,70,56,1
3,51,64,1
3,67,73,0
3,63,60,158
3,67,64,0
3,70,64,0
3,48,64,90
3,63,73,5
3,67,82,0
3,70,73,0
3,41,56,14
3,65,73,0
3,60,64,1
3,69,73,4
3,46,56,24
3,65,64,4
3,70,52,0
3,62,48,1
3,65,73,152
3,62,73,4
3,70,60,0
3,62,60,200
3,65,73,0
3,70,60,0
3,65,60,141
3,62,52,1
3,70,52,0
3,44,73,163
3,63,64,1
3,68,73,1
3,60,56,2
3,63,73,90
3,68,60,0
3,60,52,2
3,46,73,131
3,70,64,1
3,62,64,1
3,65,73,0
3,65,64,122
3,70,64,0
3,62,60,1
3,62,60,87
3,47,64,2
3,55,64,0
3,67,73,0
3,62,60,114
3,55,60,1
3,67,64,0
3,48,56,52
3,63,56,3
3,67,60,1
3,60,60,1
3,63,64,172
3,60,64,3
3,67,60,1
3,51,73,175
3,68,56,0
3,63,60,2
3,72,73,0
3,63,64,68
3,68,60,0
3,72,82,1
3,46,52,2
3,63,56,4
3,67,64,0
3,70,52,0
3,63,60,75
3,67,64,0
3,70,56,1
3,46,56,49
3,63,73,0
3,58,60,1
3,67,64,0
3,62,64,59
3,58,56,2
3,65,56,2
3,51,64,33
3,58,56,3
3,63,56,0
3,67,60,0
3,46,48,12
3,58,56,1
3,62,73,2
3,65,64,0
3,39,64,5
3,63,73,1
3,67,82,0
3,70,73,0
3,63,73,148
3,67,73,0
3,70,73,0
3,46,64,114
3,62,64,0
3,65,73,0
3,70,60,0
3,62,64,111
3,65,73,0
3,70,73,0
3,51,73,61
3,63,60,0
3,70,73,0
3,67,73,1
3,63,64,174
3,67,64,0
3,70,73,0
3,63,60,174
3,67,73,0
3,70,64,0
3,63,64,134
3,67,73,0
3,70,73,0
3,63,64,169
3,70,56,1
3,51,64,1
3,67,73,0
3,63,60,158
3,67,64,0
3,70,64,0
3,48,64,90
3,63,73,5
3,67,82,0
3,70,73,0
3,41,56,14
3,65,73,0
3,60,64,1
3,69,73,4
3,46,56,24
3,65,64,4
3,70,52,0
3,62,48,1
3,65,73,152
3,62,73,4
3,70,60,0
3,62,60,200
3,65,73,0
3,70,60,0
3,65,60,141
3,62,52,1
3,70,52,0
3,44,73,163
3,63,64,1
3,68,73,1
3,60,56,2
3,63,73,90
3,68,60,0
3,60,52,2
3,46,73,131
3,70,64,1
3,62,64,1
3,65,73,0
3,65,64,122
3,70,64,0
3,62,60,1
3,62,60,87
3,47,64,2
3,55,64,0
3,67,73,0
3,62,60,114
3,55,60,1
3,67,64,0
3,48,56,52
3,63,56,3
3,67,60,1
3,60,60,1
3,63,64,172
3,60,64,3
3,67,60,1
3,51,73,175
3,68,56,0
3,63,60,2
3,72,73,0
3,63,64,68
3,68,60,0
3,72,82,1
3,46,52,2
3,63,56,4
3,67,64,0
3,70,52,0
3,63,60,75
3,67,64,0
3,70,56,1
3,46,56,49
3,63,73,0
3,58,60,1
3,67,64,0
3,62,64,59
3,58,56,2
3,65,56,2
3,51,64,33
3,58,56,3
3,63,56,0
3,67,60,0
3,46,48,12
3,58,56,1
3,62,73,2
3,65,64,0
3,39,64,5
3,63,73,1
3,67,82,0
3,70,73,0
3,63,73,148
3,67,73,0
3,70,73,0
3,46,64,114
3,62,64,0
3,65,73,0
3,70,60,0
3,62,64,111
3,65,73,0
3,70,73,0
3,51,73,61
3,63,60,0
3,70,73,0
3,67,73,1
3,63,64,174
3,67,64,0
3,70,73,0
3,63,60,174
3,67,73,0
3,70,64,0
3,63,64,134
3,67,73,0
3,70,73,0
3,63,64,169
3,70,56,1
3,51,64,1
3,67,73,0
3,63,60,158
3,67,64,0
3,70,64,0
3,48,64,90
3,63,73,5
3,67,82,0
3,70,73,0
3,41,56,14
3,65,73,0
3,60,64,1
3,69,73,4
3,46,56,24
3,65,64,4
3,70,52,0
3,62,48,1
3,65,73,152
3,62,73,4
3,70,60,0
3,62,60,200
3,65,73,0
3,70,60,0
3,65,60,141
3,62,52,1
3,70,52,0
3,44,73,163
3,63,64,1
3,68,73,1
3,60,56,2
3,63,73,90
3,68,60,0
3,60,52,2
3,46,73,131
3,70,64,1
3,62,64,1
3,65,73,0
3,65,64,122
3,70,64,0
3,62,60,1
3,62,60,87
3,47,64,2
3,55,64,0
3,67,73,0
3,62,60,114
3,55,60,1
3,67,64,0
3,48,56,52
3,63,56,3
3,67,60,1
3,60,60,1
3,63,64,172
3,60,64,3
3,67,60,1
3,51,73,175
3,68,56,0
3,63,60,2
3,72,73,0
3,63,64,68
3,68,60,0
3,72,82,1
3,46,52,2
3,63,56,4
3,67,64,0
3,70,52,0
3,63,60,75
3,67,64,0
3,70,56,1
3,46,56,49
3,63,73,0
3,58,60,1
3,67,64,0
3,62,64,59
3,58,56,2
3,65,56,2
3,51,64,33
3,58,56,3
3,63,56,0
3,67,60,0
3,58,87,15
3,62,96,5
3,65,87,3
3,63,87,155
3,58,78,8
3,67,78,6
3,58,87,116
3,62,96,4
3,65,78,6
3,63,78,154
3,58,69,6
3,67,78,0
3,58,78,82
3,62,87,0
3,65,87,5
3,63,78,90
3,58,78,3
3,67,78,2
3,60,91,158
3,63,82,3
3,55,82,5
3,63,91,4
3,60,73,8
3,67,73,1
3,63,73,53
3,60,60,7
3,68,73,5
3,60,73,63
3,63,82,0
3,67,82,1
3,68,82,128
3,60,64,3
3,65,91,3
3,60,64,85
3,63,82,0
3,67,73,5
3,60,73,119
3,68,82,0
3,65,73,2
3,63,86,66
3,60,86,4
3,67,73,1
3,65,87,76
3,60,87,4
3,68,87,4
3,65,83,95
3,62,83,4
3,58,83,5
3,65,82,61
3,70,91,6
3,62,82,4
3,65,64,4
3,70,82,0
3,74,73,1
3,74,73,200
3,70,73,2
3,77,82,3
3,62,82,88
3,67,73,0
3,59,73,5
3,59,60,114
3,62,73,184
3,67,73,1
3,59,82,98
3,63,73,20
3,60,64,2
3,67,73,2
3,63,73,56
3,67,73,5
3,60,60,245
3,63,82,77
3,68,73,0
3,60,73,3
3,63,64,24
3,68,64,9
3,60,55,226
3,63,73,30
3,68,73,0
3,60,73,2
3,63,73,67
3,68,73,1
3,60,64,9
3,63,82,100
3,67,91,8
3,70,82,1
3,67,64,40
3,70,73,6
3,63,52,240
3,63,82,20
3,58,64,4
3,65,73,3
3,63,64,82
3,58,60,3
3,65,73,5
3,58,56,111
3,58,60,70
3,62,64,1
3,65,60,3
3,58,87,117
3,62,96,5
3,65,87,3
3,63,87,155
3,58,78,8
3,67,78,6
3,58,87,116
3,62,96,4
3,65,78,6
3,63,78,154
3,58,69,6
3,67,78,0
3,58,78,82
3,62,87,0
3,65,87,5
3,63,78,90
3,58,78,3
3,67,78,2
3,60,91,158
3,63,82,3
3,55,82,5
3,63,91,4
3,60,73,8
3,67,73,1
3,63,73,53
3,60,60,7
3,68,73,5
3,60,73,63
3,63,82,0
3,67,82,1
3,68,82,128
3,60,64,3
3,65,91,3
3,60,64,85
3,63,82,0
3,67,73,5
3,60,73,119
3,68,82,0
3,65,73,2
3,63,73,66
3,60,73,4
3,67,73,1
3,65,73,76
3,60,64,4
3,68,73,4
3,65,73,95
3,62,82,4
3,58,82,5
3,65,82,1
3,70,91,6
3,62,82,4
3,65,64,4
3,70,82,0
3,74,73,1
3,74,73,200
3,70,73,2
3,77,82,3
3,62,82,88
3,67,73,0
3,59,73,5
3,59,60,114
3,62,73,184
3,67,73,1
3,59,82,98
3,63,73,20
3,60,64,2
3,67,73,2
3,63,73,56
3,67,73,5
3,60,60,245
3,63,82,77
3,68,73,0
3,60,73,3
3,63,64,24
3,68,64,9
3,60,68,226
3,63,73,30
3,68,73,0
3,60,73,2
3,63,73,67
3,68,73,1
3,60,64,9
3,63,82,100
3,67,91,8
3,70,82,1
3,67,64,40
3,70,73,6
3,63,52,240
3,63,59,20
3,58,59,4
3,65,60,3
3,58,30,110
3,62,30,70
3,65,27,31
3,39,64,592
3,75,73,0
3,67,82,1
3,70,73,0
3,75,73,147
3,67,73,1
3,70,73,0
3,74,64,113
3,46,64,1
3,65,73,0
3,70,60,0
3,74,64,110
3,65,73,1
3,70,73,0
3,75,60,60
3,51,73,1
3,70,73,0
3,67,73,1
3,75,64,173
3,67,64,1
3,70,73,0
3,75,60,173
3,67,73,1
3,70,64,0
3,75,64,133
3,67,73,1
3,70,73,0
3,75,64,163
3,70,56,7
3,51,64,1
3,67,73,0
3,75,60,152
3,67,64,6
3,70,64,0
3,75,73,89
3,48,64,1
3,67,82,5
3,70,73,0
3,72,64,9
3,41,56,5
3,65,73,0
3,69,73,5
3,74,48,23
3,46,56,1
3,65,64,4
3,70,52,0
3,74,73,150
3,65,73,2
3,70,60,4
3,74,60,194
3,65,73,6
3,70,60,0
3,74,52,136
3,65,60,5
3,70,52,1
3,72,56,162
3,44,73,1
3,63,64,1
3,68,73,1
3,72,52,87
3,63,73,3
3,68,60,0
3,74,64,128
3,46,73,3
3,70,64,1
3,65,73,1
3,74,60,116
3,65,64,6
3,70,64,0
3,74,60,84
3,47,64,5
3,55,64,0
3,67,73,0
3,74,60,114
3,55,60,5
3,67,64,0
3,48,56,56
3,72,60,2
3,63,56,1
3,67,60,1
3,72,64,171
3,63,64,1
3,67,60,4
3,51,73,175
3,68,56,0
3,63,60,2
3,72,73,0
3,63,64,68
3,68,60,0
3,72,82,1
3,46,52,2
3,63,56,4
3,67,64,0
3,70,52,0
3,63,60,75
3,67,64,0
3,70,56,1
3,46,56,49
3,63,73,0
3,70,60,0
3,67,64,1
3,62,64,59
3,70,56,1
3,65,56,3
3,51,64,33
3,70,56,2
3,63,56,1
3,67,60,0
3,48,48,17
3,67,73,0
3,72,64,0
3,76,56,0
3,41,64,0
3,65,73,1
3,69,82,0
3,72,73,0
3,65,73,148
3,69,73,0
3,72,73,0
3,48,64,114
3,64,64,0
3,67,73,0
3,72,60,0
3,64,64,111
3,67,73,0
3,72,73,0
3,53,73,61
3,65,60,0
3,72,73,0
3,69,73,1
3,65,64,174
3,69,64,0
3,72,73,0
3,65,60,174
3,69,73,0
3,72,64,0
3,65,64,134
3,69,73,0
3,72,73,0
3,65,64,169
3,72,56,1
3,53,64,1
3,69,73,0
3,65,60,158
3,69,64,0
3,72,64,0
3,50,64,90
3,65,73,5
3,69,82,0
3,72,73,0
3,43,56,14
3,67,73,0
3,62,64,1
3,71,73,4
3,48,56,24
3,67,64,4
3,72,52,0
3,64,48,1
3,67,73,152
3,64,73,4
3,72,60,0
3,64,60,200
3,67,73,0
3,72,60,0
3,67,60,141
3,64,52,1
3,72,52,0
3,46,73,163
3,65,64,1
3,70,73,1
3,62,56,2
3,65,73,90
3,70,60,0
3,62,52,2
3,48,73,131
3,72,64,1
3,64,64,1
3,67,73,0
3,67,64,122
3,72,64,0
3,64,60,1
3,64,60,87
3,49,64,2
3,57,64,0
3,69,73,0
3,64,60,114
3,57,60,1
3,69,64,0
3,50,56,52
3,65,56,3
3,69,60,1
3,62,60,1
3,65,64,172
3,62,64,3
3,69,60,1
3,53,73,175
3,70,56,0
3,65,60,2
3,74,73,0
3,65,64,68
3,70,60,0
3,74,82,1
3,48,52,2
3,65,56,4
3,69,64,0
3,72,52,0
3,65,60,75
3,69,64,0
3,72,56,1
3,48,56,49
3,65,73,0
3,60,60,1
3,69,64,0
3,64,64,59
3,60,56,2
3,67,56,2
3,53,64,33
3,60,56,3
3,65,56,0
3,69,60,0
3,60,82,15
3,64,91,5
3,67,82,3
3,65,82,155
3,60,73,8
3,69,73,6
3,60,82,116
3,64,91,4
3,67,73,6
3,65,73,154
3,60,64,6
3,69,73,0
3,60,73,82
3,64,82,0
3,67,82,5
3,65,73,90
3,60,73,3
3,69,73,2
3,62,91,158
3,65,82,3
3,57,82,5
3,65,91,4
3,62,73,8
3,69,73,1
3,65,73,53
3,62,60,7
3,70,73,5
3,62,73,63
3,65,82,0
3,69,82,1
3,70,82,128
3,62,64,3
3,67,91,3
3,62,64,85
3,65,82,0
3,69,73,5
3,62,73,119
3,70,82,0
3,67,73,2
3,65,73,66
3,62,73,4
3,69,73,1
3,67,73,76
3,62,64,4
3,70,73,4
3,67,73,95
3,64,82,4
3,60,82,5
3,67,82,276
3,72,91,6
3,64,82,4
3,67,64,4
3,72,82,0
3,76,73,1
3,76,73,200
3,72,73,2
3,79,82,3
3,67,73,80
3,73,91,0
3,76,73,7
3,73,82,82
3,76,64,4
3,67,73,6
3,71,82,77
3,67,73,5
3,74,82,0
3,67,64,90
3,73,91,2
3,76,82,1
3,74,82,94
3,77,91,0
3,69,64,1
3,74,82,80
3,77,73,0
3,69,56,4
3,72,73,65
3,76,73,3
3,67,64,3
3,70,73,109
3,74,73,0
3,65,60,18
3,65,64,60
3,70,82,4
3,74,73,5
3,70,91,90
3,74,73,0
3,65,64,2
3,65,64,90
3,74,73,3
3,70,82,2
3,65,73,38
3,69,82,0
3,72,73,10
3,65,73,75
3,69,82,1
3,72,64,4
3,74,100,109
3,67,91,4
3,76,52,108
3,72,56,8
3,60,82,953
3,64,91,5
3,67,82,3
3,65,82,11
3,60,73,8
3,69,73,6
3,60,82,116
3,64,91,4
3,67,73,6
3,65,73,154
3,60,64,6
3,69,73,0
3,60,73,82
3,64,82,0
3,67,82,5
3,65,73,90
3,60,73,3
3,69,73,2
3,62,91,158
3,65,82,3
3,57,82,5
3,65,91,4
3,62,73,8
3,69,73,1
3,65,73,53
3,62,60,7
3,70,73,5
3,62,73,63
3,65,82,0
3,69,82,1
3,70,82,128
3,62,64,3
3,67,91,3
3,62,64,85
3,65,82,0
3,69,73,5
3,62,73,119
3,70,82,0
3,67,73,2
3,65,73,66
3,62,73,4
3,69,73,1
3,67,73,76
3,62,64,4
3,70,73,4
3,67,73,95
3,64,82,4
3,60,82,5
3,67,82,276
3,72,91,6
3,64,82,4
3,67,64,4
3,72,82,0
3,76,73,1
3,76,73,200
3,72,73,2
3,79,82,3
3,67,73,80
3,73,91,0
3,76,73,7
3,73,82,82
3,76,64,4
3,67,73,6
3,71,82,77
3,67,73,5
3,74,82,0
3,67,64,90
3,73,91,2
3,76,82,1
3,74,82,94
3,77,91,0
3,69,64,1
3,74,82,80
3,77,73,0
3,69,56,4
3,72,73,65
3,76,73,3
3,67,64,3
3,70,73,109
3,74,73,0
3,65,60,18
3,65,64,60
3,70,82,4
3,74,73,5
3,70,91,90
3,74,73,0
3,65,64,2
3,65,64,90
3,74,73,3
3,70,82,2
3,65,73,38
3,69,82,0
3,72,73,10
3,65,73,75
3,69,82,1
3,72,64,4
3,74,100,109
3,67,91,4
3,76,52,108
3,72,56,8
3,62,91,220
3,67,82,0
3,64,91,101
3,60,82,114
3,69,91,15
3,65,91,6
3,72,82,1
3,60,82,112
3,64,91,5
3,67,82,3
3,65,82,11
3,60,73,8
3,69,73,6
3,60,82,116
3,64,91,4
3,67,73,6
3,65,73,154
3,60,64,6
3,69,73,0
3,60,73,82
3,64,82,0
3,67,82,5
3,65,73,90
3,60,73,3
3,69,73,2
3,62,91,158
3,65,82,3
3,57,82,5
3,65,91,4
