track,note,velocity,time
1,37,100,1860
1,73,100,0
1,85,100,0
1,61,100,0
1,49,100,0
1,49,0,60
1,85,0,0
1,37,0,0
1,73,0,0
1,61,0,0
1,39,100,0
1,87,100,0
1,51,100,0
1,63,100,0
1,75,100,0
1,75,0,60
1,51,0,0
1,39,0,0
1,87,0,0
1,63,0,0
1,39,100,1860
1,51,100,0
1,63,100,0
1,75,100,0
1,87,100,0
1,87,0,60
1,63,0,0
1,39,0,0
1,51,0,0
1,75,0,0
1,73,100,1800
1,85,100,0
1,61,100,0
1,49,100,0
1,49,0,60
1,73,0,0
1,85,0,0
1,61,0,0
1,87,100,0
1,51,100,0
1,63,100,0
1,75,100,0
1,75,0,60
1,87,0,0
1,51,0,0
1,63,0,0
1,73,100,3720
1,85,100,0
1,61,100,0
1,49,100,0
1,49,0,60
1,73,0,0
1,85,0,0
1,61,0,0
1,87,100,0
1,51,100,0
1,63,100,0
1,75,100,0
1,75,0,60
1,87,0,0
1,51,0,0
1,63,0,0
1,87,100,3780
1,51,100,0
1,63,100,0
1,75,100,0
1,75,0,60
1,87,0,0
1,51,0,0
1,63,0,0
1,73,100,3720
1,85,100,0
1,61,100,0
1,49,100,0
1,49,0,60
1,73,0,0
1,85,0,0
1,61,0,0
1,87,100,0
1,51,100,0
1,63,100,0
1,75,100,0
1,75,0,60
1,87,0,0
1,51,0,0
1,63,0,0
1,73,100,3720
1,85,100,0
1,61,100,0
1,49,100,0
1,49,0,60
1,73,0,0
1,85,0,0
1,61,0,0
1,87,100,0
1,51,100,0
1,63,100,0
1,75,100,0
1,75,0,60
1,87,0,0
1,51,0,0
1,63,0,0
1,73,100,840
1,85,100,0
1,61,100,0
1,49,100,0
1,49,0,60
1,73,0,0
1,85,0,0
1,61,0,0
1,87,100,4800
1,51,100,0
1,63,100,0
1,75,100,0
1,75,0,60
1,87,0,0
1,51,0,0
1,63,0,0
1,87,100,4260
1,51,100,0
1,63,100,0
1,75,100,0
1,75,0,60
1,87,0,0
1,51,0,0
1,63,0,0
1,87,100,3780
1,51,100,0
1,63,100,0
1,75,100,0
1,75,0,60
1,87,0,0
1,51,0,0
1,63,0,0
1,73,100,3720
1,85,100,0
1,61,100,0
1,49,100,0
1,49,0,60
1,73,0,0
1,85,0,0
1,61,0,0
1,87,100,0
1,51,100,0
1,63,100,0
1,75,100,0
1,75,0,60
1,87,0,0
1,51,0,0
1,63,0,0
1,73,100,3720
1,85,100,0
1,61,100,0
1,49,100,0
1,49,0,60
1,73,0,0
1,85,0,0
1,61,0,0
1,87,100,0
1,51,100,0
1,63,100,0
1,75,100,0
1,75,0,60
1,87,0,0
1,51,0,0
1,63,0,0
1,73,100,3720
1,85,100,0
1,61,100,0
1,49,100,0
1,49,0,60
1,73,0,0
1,85,0,0
1,61,0,0
1,87,100,0
1,51,100,0
1,63,100,0
1,75,100,0
1,75,0,60
1,87,0,0
1,51,0,0
1,63,0,0
1,63,100,1740
1,51,100,0
1,75,100,0
1,75,0,60
1,51,0,0
1,63,0,0
2,49,100,1860
2,37,100,0
2,37,0,60
2,49,0,0
2,39,100,0
2,51,100,0
2,51,0,120
2,39,0,0
2,39,100,1800
2,51,100,0
2,51,0,120
2,39,0,0
2,39,100,1800
2,39,0,60
2,39,100,120
2,39,0,60
2,39,100,240
2,39,0,60
2,39,100,0
2,39,0,120
2,39,100,0
2,39,0,60
2,39,100,240
2,39,0,60
2,39,100,120
2,39,0,60
2,37,100,180
2,37,0,60
2,39,100,0
2,39,0,60
2,39,100,0
2,39,0,60
2,37,100,0
2,37,0,60
2,39,100,0
2,39,0,180
2,39,100,120
2,39,0,60
2,39,100,120
2,39,0,60
2,39,100,240
2,39,0,60
2,39,100,0
2,39,0,120
2,39,100,0
2,39,0,60
2,39,100,240
2,39,0,60
2,39,100,120
2,39,0,60
2,37,100,180
2,37,0,60
2,39,100,0
2,39,0,60
2,39,100,0
2,39,0,60
2,37,100,0
2,37,0,60
2,39,100,0
2,39,0,180
2,39,100,120
2,39,0,480
2,37,100,0
2,37,0,480
2,35,100,0
2,35,0,840
2,37,100,0
2,37,0,120
2,39,100,0
2,39,0,480
2,37,100,0
2,37,0,480
2,35,100,0
2,35,0,840
2,37,100,0
2,37,0,120
2,39,100,0
2,39,0,60
2,39,100,120
2,39,0,60
2,39,100,240
2,39,0,60
2,39,100,0
2,39,0,120
2,39,100,0
2,39,0,60
2,39,100,240
2,39,0,60
2,39,100,120
2,39,0,60
2,37,100,180
2,37,0,60
2,39,100,0
2,39,0,60
2,39,100,0
2,39,0,60
2,37,100,0
2,37,0,60
2,39,100,0
2,39,0,180
2,39,100,120
2,39,0,60
2,39,100,120
2,39,0,60
2,39,100,240
2,39,0,60
2,39,100,0
2,39,0,120
2,39,100,0
2,39,0,60
2,39,100,240
2,39,0,60
2,39,100,120
2,39,0,60
2,37,100,180
2,37,0,60
2,39,100,0
2,39,0,60
2,39,100,0
2,39,0,60
2,37,100,0
2,37,0,60
2,39,100,0
2,39,0,180
2,39,100,120
2,39,0,480
2,37,100,0
2,37,0,480
2,35,100,0
2,35,0,840
2,37,100,0
2,37,0,120
2,39,100,0
2,39,0,480
2,37,100,0
2,37,0,480
2,35,100,0
2,35,0,420
2,37,100,0
2,37,0,60
2,39,100,0
2,39,0,60
2,39,100,0
2,39,0,60
2,37,100,0
2,37,0,60
2,39,100,0
2,39,0,120
2,42,100,2100
2,42,0,360
2,42,100,0
2,42,0,30
2,44,100,0
2,44,0,30
2,42,100,0
2,42,0,30
2,37,100,0
2,37,0,30
2,39,100,0
2,39,0,60
2,37,100,360
2,37,0,60
2,39,100,0
2,39,0,60
2,42,100,0
2,42,0,60
2,44,100,0
2,44,0,240
2,42,100,0
2,42,0,30
2,44,100,0
2,44,0,30
2,42,100,0
2,42,0,30
2,37,100,0
2,37,0,30
2,39,100,0
2,39,0,60
2,42,100,420
2,42,0,360
2,42,100,0
2,42,0,30
2,44,100,0
2,44,0,30
2,42,100,0
2,42,0,30
2,37,100,0
2,37,0,30
2,39,100,0
2,39,0,60
2,44,100,180
2,44,0,60
2,42,100,0
2,42,0,30
2,39,100,0
2,39,0,30
2,37,100,0
2,37,0,30
2,34,100,0
2,34,0,30
2,30,100,0
2,30,0,30
2,37,100,0
2,37,0,30
2,39,100,0
2,39,0,60
2,42,100,0
2,42,0,60
2,44,100,0
2,44,0,240
2,42,100,0
2,42,0,30
2,44,100,0
2,44,0,30
2,42,100,0
2,42,0,30
2,37,100,0
2,37,0,30
2,39,100,0
2,39,0,60
2,39,100,420
2,39,0,480
2,37,100,0
2,37,0,480
2,34,100,0
2,34,0,180
2,30,100,0
2,30,0,300
2,28,100,0
2,28,0,480
2,39,100,0
2,39,0,480
2,37,100,0
2,37,0,480
2,35,100,0
2,35,0,480
2,34,100,0
2,34,0,960
2,39,100,0
2,39,0,480
2,37,100,0
2,37,0,480
2,35,100,0
2,35,0,840
2,37,100,0
2,37,0,120
2,39,100,0
2,39,0,480
2,37,100,0
2,37,0,480
2,35,100,0
2,35,0,420
2,37,100,0
2,37,0,60
2,39,100,0
2,39,0,60
2,39,100,0
2,39,0,60
2,37,100,0
2,37,0,60
2,39,100,0
2,39,0,120
2,39,100,180
2,39,0,60
2,39,100,120
2,39,0,60
2,39,100,240
2,39,0,60
2,39,100,0
2,39,0,120
2,39,100,0
2,39,0,60
2,39,100,240
2,39,0,60
2,39,100,120
2,39,0,60
2,37,100,180
2,37,0,60
2,39,100,0
2,39,0,60
2,39,100,0
2,39,0,60
2,37,100,0
2,37,0,60
2,39,100,0
2,39,0,180
2,39,100,120
2,39,0,60
2,39,100,120
2,39,0,60
2,39,100,240
2,39,0,60
2,39,100,0
2,39,0,120
2,39,100,0
2,39,0,60
2,39,100,240
2,39,0,60
2,39,100,120
2,39,0,60
2,37,100,180
2,37,0,60
2,39,100,0
2,39,0,60
2,39,100,0
2,39,0,60
2,37,100,0
2,37,0,60
2,39,100,0
2,39,0,180
2,39,100,120
2,39,0,480
2,37,100,0
2,37,0,480
2,35,100,0
2,35,0,840
2,37,100,0
2,37,0,120
2,39,100,0
2,39,0,480
2,37,100,0
2,37,0,480
2,35,100,0
2,35,0,420
2,37,100,0
2,37,0,60
2,39,100,0
2,39,0,60
2,39,100,0
2,39,0,60
2,37,100,0
2,37,0,60
2,39,100,0
2,39,0,300
2,39,100,0
2,39,0,480
2,37,100,0
2,37,0,480
2,35,100,0
2,35,0,840
2,37,100,0
2,37,0,120
2,39,100,0
2,39,0,480
2,37,100,0
2,37,0,480
2,35,100,0
2,35,0,420
2,37,100,0
2,37,0,60
2,39,100,0
2,39,0,60
2,39,100,0
2,39,0,60
2,37,100,0
2,37,0,60
2,39,100,0
2,39,0,300
2,39,100,0
2,39,0,480
2,37,100,0
2,37,0,480
2,35,100,0
2,35,0,420
2,37,100,0
2,37,0,60
2,39,100,0
2,39,0,60
2,39,100,0
2,39,0,60
2,37,100,0
2,37,0,60
2,39,100,0
2,39,0,180
3,63,100,5760
3,66,100,0
3,70,100,0
3,70,0,480
3,66,0,0
3,63,0,0
3,61,100,0
3,65,100,0
3,68,100,0
3,68,0,480
3,65,0,0
3,61,0,0
3,58,100,0
3,61,100,0
3,65,100,0
3,65,0,480
3,61,0,0
3,58,0,0
3,58,100,0
3,66,100,0
3,63,100,0
3,63,0,480
3,66,0,0
3,58,0,0
3,63,100,0
3,66,100,0
3,70,100,0
3,70,0,480
3,66,0,0
3,63,0,0
3,61,100,0
3,65,100,0
3,68,100,0
3,68,0,480
3,65,0,0
3,61,0,0
3,58,100,0
3,61,100,0
3,65,100,0
3,65,0,480
3,61,0,0
3,58,0,0
3,58,100,0
3,66,100,0
3,63,100,0
3,63,0,480
3,66,0,0
3,58,0,0
3,63,100,0
3,66,100,0
3,70,100,0
3,70,0,480
3,66,0,0
3,63,0,0
3,61,100,0
3,65,100,0
3,70,100,0
3,70,0,480
3,65,0,0
3,61,0,0
3,59,100,0
3,63,100,0
3,66,100,0
3,70,100,0
3,70,0,840
3,59,0,0
3,63,0,0
3,66,0,0
3,68,100,0
3,70,100,0
3,61,100,0
3,65,100,0
3,65,0,120
3,68,0,0
3,70,0,0
3,61,0,0
3,66,100,0
3,70,100,0
3,63,100,0
3,63,0,480
3,70,0,0
3,66,0,0
3,61,100,0
3,65,100,0
3,70,100,0
3,70,0,480
3,65,0,0
3,61,0,0
3,59,100,0
3,63,100,0
3,70,100,0
3,66,100,0
3,66,0,840
3,59,0,0
3,63,0,0
3,70,0,0
3,68,100,0
3,65,100,0
3,61,100,0
3,70,100,0
3,70,0,60
3,68,0,0
3,65,0,0
3,61,0,0
3,61,100,0
3,73,100,0
3,73,0,60
3,61,0,0
3,63,100,0
3,66,100,0
3,70,100,0
3,70,0,480
3,66,0,0
3,63,0,0
3,61,100,0
3,65,100,0
3,68,100,0
3,68,0,480
3,65,0,0
3,61,0,0
3,58,100,0
3,61,100,0
3,65,100,0
3,65,0,480
3,61,0,0
3,58,0,0
3,58,100,0
3,66,100,0
3,63,100,0
3,63,0,480
3,66,0,0
3,58,0,0
3,63,100,0
3,66,100,0
3,70,100,0
3,70,0,480
3,66,0,0
3,63,0,0
3,61,100,0
3,65,100,0
3,68,100,0
3,68,0,480
3,65,0,0
3,61,0,0
3,58,100,0
3,61,100,0
3,65,100,0
3,65,0,480
3,61,0,0
3,58,0,0
3,58,100,0
3,66,100,0
3,63,100,0
3,63,0,480
3,66,0,0
3,58,0,0
3,63,100,0
3,66,100,0
3,70,100,0
3,70,0,480
3,66,0,0
3,63,0,0
3,61,100,0
3,65,100,0
3,70,100,0
3,70,0,480
3,65,0,0
3,61,0,0
3,59,100,0
3,63,100,0
3,66,100,0
3,70,100,0
3,70,0,840
3,59,0,0
3,63,0,0
3,66,0,0
3,68,100,0
3,70,100,0
3,61,100,0
3,65,100,0
3,65,0,120
3,68,0,0
3,70,0,0
3,61,0,0
3,66,100,0
3,70,100,0
3,63,100,0
3,63,0,480
3,70,0,0
3,66,0,0
3,61,100,0
3,65,100,0
3,70,100,0
3,70,0,480
3,65,0,0
3,61,0,0
3,59,100,0
3,63,100,0
3,66,100,0
3,70,100,0
3,70,0,420
3,59,0,0
3,63,0,0
3,66,0,0
3,73,100,0
3,73,0,60
3,63,100,0
3,66,100,0
3,70,100,0
3,75,100,0
3,75,0,120
3,63,0,0
3,66,0,0
3,70,0,0
3,61,100,0
3,65,100,0
3,73,100,0
3,68,100,0
3,68,0,60
3,61,0,0
3,65,0,0
3,73,0,0
3,63,100,0
3,66,100,0
3,70,100,0
3,75,100,0
3,75,0,180
3,63,0,0
3,66,0,0
3,70,0,0
3,66,100,2040
3,70,100,0
3,63,100,0
3,63,0,3840
3,70,0,0
3,66,0,0
3,63,100,0
3,66,100,0
3,70,100,0
3,70,0,480
3,66,0,0
3,63,0,0
3,61,100,0
3,65,100,0
3,68,100,0
3,68,0,480
3,65,0,0
3,61,0,0
3,61,100,0
3,65,100,0
3,58,100,0
3,58,0,480
3,65,0,0
3,61,0,0
3,68,100,0
3,64,100,0
3,59,100,0
3,59,0,480
3,64,0,0
3,68,0,0
3,63,100,0
3,58,100,0
3,66,100,0
3,66,0,480
3,58,0,0
3,63,0,0
3,61,100,0
3,64,100,0
3,68,100,0
3,68,0,480
3,64,0,0
3,61,0,0
3,59,100,0
3,63,100,0
3,66,100,0
3,66,0,480
3,63,0,0
3,59,0,0
3,61,100,0
3,58,100,0
3,68,100,0
3,65,100,0
3,65,0,960
3,61,0,0
3,58,0,0
3,68,0,0
3,63,100,0
3,66,100,0
3,70,100,0
3,70,0,480
3,66,0,0
3,63,0,0
3,61,100,0
3,65,100,0
3,70,100,0
3,70,0,480
3,65,0,0
3,61,0,0
3,59,100,0
3,63,100,0
3,66,100,0
3,70,100,0
3,70,0,840
3,59,0,0
3,63,0,0
3,66,0,0
3,68,100,0
3,70,100,0
3,61,100,0
3,65,100,0
3,65,0,120
3,68,0,0
3,70,0,0
3,61,0,0
3,66,100,0
3,70,100,0
3,63,100,0
3,63,0,480
3,70,0,0
3,66,0,0
3,61,100,0
3,65,100,0
3,70,100,0
3,70,0,480
3,65,0,0
3,61,0,0
3,59,100,0
3,63,100,0
3,66,100,0
3,70,100,0
3,70,0,420
3,59,0,0
3,63,0,0
3,66,0,0
3,73,100,0
3,73,0,60
3,63,100,0
3,66,100,0
3,70,100,0
3,75,100,0
3,75,0,120
3,63,0,0
3,66,0,0
3,70,0,0
3,61,100,0
3,65,100,0
3,73,100,0
3,68,100,0
3,68,0,60
3,61,0,0
3,65,0,0
3,73,0,0
3,63,100,0
3,66,100,0
3,70,100,0
3,75,100,0
3,75,0,180
3,63,0,0
3,66,0,0
3,70,0,0
3,63,100,120
3,66,100,0
3,70,100,0
3,70,0,480
3,66,0,0
3,63,0,0
3,61,100,0
3,65,100,0
3,68,100,0
3,68,0,480
3,65,0,0
3,61,0,0
3,58,100,0
3,61,100,0
3,65,100,0
3,65,0,480
3,61,0,0
3,58,0,0
3,58,100,0
3,66,100,0
3,63,100,0
3,63,0,480
3,66,0,0
3,58,0,0
3,63,100,0
3,66,100,0
3,70,100,0
3,70,0,480
3,66,0,0
3,63,0,0
3,61,100,0
3,65,100,0
3,68,100,0
3,68,0,480
3,65,0,0
3,61,0,0
3,58,100,0
3,61,100,0
3,65,100,0
3,65,0,480
3,61,0,0
3,58,0,0
3,58,100,0
3,66,100,0
3,63,100,0
3,63,0,480
3,66,0,0
3,58,0,0
3,63,100,0
3,66,100,0
3,70,100,0
3,70,0,480
3,66,0,0
3,63,0,0
3,61,100,0
3,65,100,0
3,70,100,0
3,70,0,480
3,65,0,0
3,61,0,0
3,59,100,0
3,63,100,0
3,66,100,0
3,70,100,0
3,70,0,840
3,59,0,0
3,63,0,0
3,66,0,0
3,68,100,0
3,70,100,0
3,61,100,0
3,65,100,0
3,65,0,120
3,68,0,0
3,70,0,0
3,61,0,0
3,66,100,0
3,70,100,0
