track,note,velocity,time
3,30,116,28044
3,30,0,564
3,30,116,108
3,30,0,738
3,30,115,126
3,30,0,606
3,30,116,66
3,30,0,472
3,42,100,8
3,42,0,8
3,30,115,150
3,30,0,198
3,30,116,90
3,30,0,28
3,30,115,68
3,30,0,214
3,30,114,74
3,30,0,18
3,30,116,78
3,30,0,198
3,30,115,90
3,30,0,26
3,30,115,70
3,30,0,42
3,30,115,54
3,30,0,122
3,30,113,70
3,30,0,18
3,30,113,30
3,30,0,18
3,30,116,30
3,30,0,254
3,30,115,34
3,30,0,30
3,30,115,66
3,30,0,208
3,30,114,80
3,30,0,26
3,30,115,70
3,30,0,196
3,30,116,92
3,30,0,88
3,28,116,8
3,28,0,44
3,28,116,52
3,28,0,142
3,28,115,50
3,28,0,76
3,26,117,20
3,26,0,208
3,26,116,80
3,26,0,28
3,26,116,68
3,26,0,210
3,26,116,78
3,26,0,24
3,26,116,72
3,26,0,194
3,26,116,94
3,26,0,28
3,26,116,68
3,26,0,42
3,26,116,54
3,26,0,114
3,32,116,78
3,32,0,70
3,33,115,26
3,33,0,184
3,33,114,104
3,33,0,32
3,33,116,64
3,33,0,304
3,33,115,80
3,33,0,208
3,33,115,80
3,33,0,36
3,33,116,60
3,33,0,114
3,33,115,78
3,33,0,166
3,35,115,26
3,35,0,176
3,33,114,16
3,33,0,44
3,35,115,52
3,35,0,80
3,33,115,112
3,33,0,72
3,35,115,24
3,35,0,226
3,35,115,62
3,35,0,62
3,30,114,34
3,30,0,82
3,33,115,14
3,33,0,72
3,35,115,24
3,35,0,56
3,35,114,40
3,35,0,224
3,37,114,64
3,37,0,174
3,35,111,18
3,35,0,52
3,37,114,44
3,37,0,56
3,35,110,136
3,35,0,58
3,37,114,38
3,37,0,240
3,37,114,48
3,37,0,148
3,37,113,44
3,37,0,78
3,33,113,18
3,33,0,84
3,37,114,12
3,37,0,210
3,38,115,78
3,38,0,176
3,33,114,16
3,33,0,60
3,38,115,36
3,38,0,68
3,33,115,124
3,33,0,74
3,38,114,22
3,38,0,222
3,38,116,66
3,38,0,140
3,38,115,52
3,38,0,74
3,33,115,22
3,33,0,84
3,38,116,12
3,38,0,126
3,38,112,66
3,38,0,94
3,30,116,2
3,30,0,150
3,30,115,42
3,30,0,78
3,30,114,18
3,30,0,34
3,30,115,62
3,30,0,36
3,30,116,60
3,30,0,44
3,30,115,52
3,30,0,36
3,30,116,60
3,30,0,226
3,30,115,62
3,30,0,46
3,30,114,50
3,30,0,36
3,30,114,12
3,30,0,84
3,37,114,60
3,37,0,82
3,40,112,14
3,40,0,88
3,42,114,8
3,42,0,338
3,42,112,46
3,42,0,58
3,42,114,38
3,42,0,56
3,42,115,40
3,42,0,62
3,42,115,34
3,42,0,95
3,30,117,1
3,30,0,191
3,42,108,1
3,42,0,28
3,42,111,68
3,42,0,22
3,42,114,74
3,42,0,44
3,42,114,52
3,42,0,80
3,30,116,16
3,30,0,95
3,34,115,1
3,34,0,148
3,35,115,44
3,35,0,194
3,35,115,94
3,35,0,26
3,35,115,70
3,35,0,220
3,35,115,68
3,35,0,302
3,35,114,82
3,35,0,30
3,35,114,66
3,35,0,194
3,35,115,94
3,35,0,314
3,35,114,70
3,35,0,28
3,35,113,68
3,35,0,174
3,35,115,114
3,35,0,284
3,35,114,100
3,35,0,32
3,35,115,64
3,35,0,128
3,35,115,64
3,35,0,79
3,30,115,1
3,30,0,194
3,30,114,94
3,30,0,300
3,30,112,84
3,30,0,16
3,30,115,80
3,30,0,190
3,30,115,98
3,30,0,298
3,30,115,86
3,30,0,95
3,28,115,1
3,28,0,192
3,28,116,96
3,28,0,302
3,28,112,82
3,28,0,26
3,28,115,70
3,28,0,200
3,28,115,88
3,28,0,188
3,30,114,4
3,30,0,76
3,34,112,20
3,34,0,190
3,35,115,2
3,35,0,194
3,35,115,94
3,35,0,26
3,35,115,70
3,35,0,220
3,35,115,68
3,35,0,302
3,35,114,82
3,35,0,30
3,35,114,66
3,35,0,194
3,35,115,94
3,35,0,314
3,35,114,70
3,35,0,28
3,35,113,68
3,35,0,174
3,35,115,114
3,35,0,284
3,35,114,100
3,35,0,32
3,35,115,64
3,35,0,128
3,35,115,64
3,35,0,79
3,30,115,1
3,30,0,194
3,30,114,94
3,30,0,300
3,30,112,84
3,30,0,16
3,30,115,80
3,30,0,190
3,30,115,98
3,30,0,298
3,30,115,86
3,30,0,95
3,28,115,1
3,28,0,192
3,28,116,96
3,28,0,302
3,28,112,82
3,28,0,26
3,28,116,70
3,28,0,212
3,28,116,76
3,28,0,244
3,28,115,44
3,28,0,144
3,26,116,48
3,26,0,192
3,26,115,96
3,26,0,306
3,26,114,78
3,26,0,92
3,25,114,4
3,25,0,214
3,25,116,74
3,25,0,304
3,25,114,80
3,25,0,26
3,26,115,70
3,26,0,214
3,26,115,74
3,26,0,140
3,26,114,52
3,26,0,148
3,25,115,44
3,25,0,304
3,25,114,80
3,25,0,95
3,37,113,1
3,37,0,94
3,25,108,2
3,25,0,95
3,37,111,1
3,37,0,154
3,30,116,10790
3,30,0,150
3,30,115,42
3,30,0,78
3,30,114,18
3,30,0,34
3,30,115,62
3,30,0,36
3,30,116,60
3,30,0,44
3,30,115,52
3,30,0,36
3,30,116,60
3,30,0,226
3,30,115,62
3,30,0,46
3,30,114,50
3,30,0,188
3,37,114,4
3,37,0,82
3,40,112,14
3,40,0,88
3,42,114,8
3,42,0,338
3,42,112,46
3,42,0,58
3,42,114,38
3,42,0,56
3,42,115,40
3,42,0,62
3,42,115,34
3,42,0,95
3,30,117,1
3,30,0,191
3,42,108,1
3,42,0,28
3,42,111,68
3,42,0,22
3,42,114,74
3,42,0,44
3,42,114,52
3,42,0,80
3,30,116,16
3,30,0,92
3,34,115,4
3,34,0,188
3,35,115,4
3,35,0,194
3,35,115,94
3,35,0,26
3,35,115,70
3,35,0,220
3,35,115,68
3,35,0,302
3,35,114,82
3,35,0,30
3,35,114,66
3,35,0,194
3,35,115,94
3,35,0,314
3,35,114,70
3,35,0,28
3,35,113,68
3,35,0,174
3,35,115,114
3,35,0,284
3,35,114,100
3,35,0,32
3,35,115,64
3,35,0,128
3,35,115,64
3,35,0,79
3,30,115,1
3,30,0,194
3,30,114,94
3,30,0,300
3,30,112,84
3,30,0,16
3,30,115,80
3,30,0,190
3,30,115,98
3,30,0,298
3,30,115,86
3,30,0,95
3,28,115,1
3,28,0,192
3,28,116,96
3,28,0,302
3,28,112,82
3,28,0,26
3,28,115,70
3,28,0,200
3,28,115,88
3,28,0,188
3,30,114,4
3,30,0,76
3,34,112,20
3,34,0,190
3,35,115,2
3,35,0,194
3,35,115,94
3,35,0,26
3,35,115,70
3,35,0,220
3,35,115,68
3,35,0,302
3,35,114,82
3,35,0,30
3,35,114,66
3,35,0,194
3,35,115,94
3,35,0,314
3,35,114,70
3,35,0,28
3,35,113,68
3,35,0,174
3,35,115,114
3,35,0,284
3,35,114,100
3,35,0,32
3,35,115,64
3,35,0,128
3,35,115,64
3,35,0,79
3,30,115,1
3,30,0,194
3,30,114,94
3,30,0,300
3,30,112,84
3,30,0,16
3,30,115,80
3,30,0,190
3,30,115,98
3,30,0,298
3,30,115,86
3,30,0,95
3,28,115,1
3,28,0,192
3,28,116,96
3,28,0,302
3,28,112,82
3,28,0,26
3,28,116,70
3,28,0,212
3,28,116,76
3,28,0,244
3,28,115,44
3,28,0,144
3,26,116,48
3,26,0,192
3,26,115,96
3,26,0,306
3,26,114,78
3,26,0,92
3,25,114,4
3,25,0,214
3,25,116,74
3,25,0,304
3,25,114,80
3,25,0,26
3,26,115,70
3,26,0,214
3,26,115,74
3,26,0,140
3,26,114,52
3,26,0,148
3,25,115,44
3,25,0,304
3,25,114,80
3,25,0,95
3,37,113,1
3,37,0,94
3,25,108,2
3,25,0,95
3,37,111,1
3,37,0,154
3,30,116,38
3,30,0,182
3,30,113,58
3,30,0,42
3,30,114,6
3,30,0,146
3,30,114,46
3,30,0,156
3,30,113,36
3,30,0,62
3,30,115,34
3,30,0,184
3,30,111,56
3,30,0,36
3,30,115,12
3,30,0,144
3,30,114,48
3,30,0,174
3,30,113,18
3,30,0,54
3,30,114,42
3,30,0,176
3,30,113,16
3,30,0,58
3,30,114,38
3,30,0,170
3,30,112,22
3,30,0,124
3,30,114,68
3,30,0,92
3,42,114,4
3,42,0,188
3,30,112,4
3,30,0,92
3,42,114,4
3,42,0,188
3,30,114,4
3,30,0,95
3,42,115,1
3,42,0,2
3,35,115,16
3,35,0,194
3,35,115,94
3,35,0,26
3,35,115,70
3,35,0,220
3,35,115,68
3,35,0,302
3,35,114,82
3,35,0,30
3,35,114,66
3,35,0,194
3,35,115,94
3,35,0,314
3,35,114,70
3,35,0,28
3,35,113,68
3,35,0,174
3,35,115,114
3,35,0,284
3,35,114,100
3,35,0,32
3,35,115,64
3,35,0,128
3,35,115,64
3,35,0,79
3,30,115,1
3,30,0,194
3,30,114,94
3,30,0,300
3,30,112,84
3,30,0,16
3,30,115,80
3,30,0,190
3,30,115,98
3,30,0,298
3,30,115,86
3,30,0,95
3,28,115,1
3,28,0,192
3,28,116,96
3,28,0,302
3,28,112,82
3,28,0,26
3,28,115,70
3,28,0,200
3,28,115,88
3,28,0,188
3,30,114,4
3,30,0,76
3,34,112,20
3,34,0,190
3,38,115,2
3,38,0,202
3,26,114,86
3,38,113,0
3,38,0,346
3,26,0,22
3,38,109,16
3,38,0,82
3,37,115,14
3,37,0,194
3,37,116,94
3,37,0,386
3,26,115,94
3,26,0,214
3,26,115,74
3,26,0,140
3,26,114,52
3,26,0,148
3,25,115,44
3,25,0,304
3,25,114,80
3,25,0,95
3,37,113,1
3,37,0,94
3,25,108,2
3,25,0,95
3,37,111,1
3,37,0,154
3,30,114,38
3,30,0,258
3,30,113,30
3,30,0,452
3,30,114,28
3,30,0,252
3,30,115,36
3,30,0,436
3,30,113,44
3,30,0,276
3,30,114,12
3,30,0,432
3,30,115,48
3,30,0,242
3,30,115,46
3,30,0,287
3,42,116,1
3,42,0,76
3,30,116,20
3,30,0,332
3,30,115,52
3,30,0,428
3,30,114,52
3,30,0,276
3,30,114,12
3,30,0,468
3,30,114,12
3,30,0,276
3,30,114,12
3,30,0,372
3,42,111,12
3,42,0,84
3,30,114,12
3,30,0,246
3,30,114,42
3,30,0,172
3,30,113,20
3,30,0,230
3,30,114,58
3,30,0,258
3,30,113,30
3,30,0,452
3,30,114,28
3,30,0,252
3,30,115,36
3,30,0,436
3,30,113,44
3,30,0,276
3,30,114,12
3,30,0,432
3,30,115,48
3,30,0,242
3,30,115,46
3,30,0,287
3,42,116,1
3,42,0,76
3,30,116,20
3,30,0,82
3,30,114,14
3,30,0,258
3,30,113,30
3,30,0,452
3,30,114,28
3,30,0,252
3,30,115,36
3,30,0,436
3,30,113,44
3,30,0,276
3,30,114,12
3,30,0,432
3,30,115,48
3,30,0,242
3,30,115,46
3,30,0,287
3,42,116,1
3,42,0,76
3,30,116,20
3,30,0,86
3,30,114,10
3,30,0,258
3,30,113,30
3,30,0,452
3,30,114,28
3,30,0,252
3,30,115,36
3,30,0,436
3,30,113,44
3,30,0,276
3,30,114,12
3,30,0,432
3,30,115,48
3,30,0,242
3,30,115,46
3,30,0,287
3,42,116,1
3,42,0,76
3,30,116,20
3,30,0,86
3,30,114,10
3,30,0,258
3,30,113,30
3,30,0,452
3,30,114,28
3,30,0,252
3,30,115,36
3,30,0,436
3,30,113,44
3,30,0,276
3,30,114,12
3,30,0,432
3,30,115,48
3,30,0,242
3,30,115,46
3,30,0,287
3,42,116,1
3,42,0,76
3,30,116,20
3,30,0,78
3,30,114,18
3,30,0,258
3,30,113,30
3,30,0,452
3,30,114,28
3,30,0,252
3,30,115,36
3,30,0,436
3,30,113,44
3,30,0,276
3,30,114,12
3,30,0,432
3,30,115,48
3,30,0,242
3,30,115,46
3,30,0,287
3,42,116,1
3,42,0,76
3,30,116,20
3,30,0,78
3,30,114,18
3,30,0,258
3,30,113,30
3,30,0,452
3,30,114,28
3,30,0,252
3,30,115,36
3,30,0,436
3,30,113,44
3,30,0,276
3,30,114,12
3,30,0,432
3,30,115,48
3,30,0,242
3,30,115,46
3,30,0,287
3,42,116,1
3,42,0,76
3,30,116,20
3,30,0,86
3,30,114,10
3,30,0,258
3,30,113,30
3,30,0,452
3,30,114,28
3,30,0,252
3,30,115,36
3,30,0,436
3,30,113,44
3,30,0,276
3,30,114,12
3,30,0,432
3,30,115,48
3,30,0,242
3,30,115,46
3,30,0,287
3,42,116,1
3,42,0,76
3,30,116,20
3,30,0,78
3,30,114,18
3,30,0,258
3,30,113,30
3,30,0,452
3,30,114,28
3,30,0,252
3,30,115,36
3,30,0,436
3,30,113,44
3,30,0,276
3,30,114,12
3,30,0,432
3,30,115,48
3,30,0,242
3,30,115,46
3,30,0,287
3,42,116,1
3,42,0,76
3,30,116,20
3,30,0,82
3,30,111,14
3,42,112,0
3,30,0,238
3,42,0,20
4,54,62,1914
4,59,68,0
4,54,0,760
4,59,0,4
4,54,70,4
4,57,79,0
4,54,0,760
4,57,0,4
4,54,60,4
4,59,69,0
4,54,0,760
4,51,90,8
4,54,29,0
4,59,0,730
4,54,0,14
4,51,0,14
4,54,62,10
4,59,68,0
4,54,0,756
4,59,0,8
4,54,70,4
4,57,79,0
4,54,0,756
4,57,0,8
4,54,60,4
4,59,69,0
4,54,0,756
4,51,90,12
4,54,29,0
4,59,0,746
4,51,0,18
4,54,0,0
4,59,71,4
4,64,81,0
4,64,0,764
4,62,82,4
4,62,0,764
4,61,80,4
4,61,0,764
4,62,76,4
4,59,0,748
4,62,0,16
4,54,70,4
4,59,64,0
4,59,0,764
4,57,87,4
4,57,0,764
4,59,86,4
4,59,0,764
4,57,80,4
4,57,0,756
4,54,0,4
4,57,51,8
4,64,58,0
4,64,0,764
4,62,79,4
4,57,0,762
4,62,0,2
4,59,70,4
4,64,82,0
4,59,0,764
4,57,75,4
4,57,0,380
4,56,75,4
4,59,66,0
4,59,0,368
4,56,0,12
4,64,0,2
4,54,70,2
4,59,64,0
4,59,0,764
4,57,87,4
4,57,0,764
4,59,86,4
4,59,0,764
4,57,80,4
4,57,0,760
4,57,51,8
4,64,58,0
4,54,0,4
4,64,0,760
4,62,79,4
4,57,0,762
4,62,0,2
4,59,62,4
4,64,51,0
4,59,0,764
4,57,73,4
4,57,0,752
4,64,0,4
4,57,63,12
4,62,82,0
4,62,0,1532
4,59,77,4
4,64,87,0
4,57,0,1518
4,59,0,14
4,64,0,0
4,54,73,4
4,57,64,0
4,62,80,0
4,66,72,768
4,66,0,744
4,57,0,6
4,62,0,2
4,54,0,8
4,61,114,8
4,71,108,0
4,61,0,660
4,71,0,0
4,61,116,12
4,69,114,0
4,61,0,852
4,69,0,0
4,61,112,12
4,68,112,0
4,61,0,660
4,68,0,0
4,63,116,12
4,66,106,0
4,63,0,860
4,66,0,0
4,54,70,4
4,59,64,0
4,59,0,764
4,57,87,4
4,57,0,764
4,59,86,4
4,59,0,764
4,57,80,4
4,57,0,764
4,54,0,4
4,57,51,0
4,64,58,0
4,64,0,764
4,62,79,4
4,57,0,738
4,62,0,26
4,59,62,4
4,64,51,0
4,59,0,764
4,57,73,4
4,57,0,744
4,64,0,4
4,57,63,20
4,62,82,0
4,62,0,1532
4,59,77,4
4,64,87,0
4,57,0,1510
4,59,0,22
4,64,0,0
4,54,73,4
4,57,64,0
4,62,80,0
4,66,67,768
4,57,0,746
4,62,0,2
4,66,0,4
4,54,0,4
4,61,114,12
4,71,108,0
4,61,0,648
4,71,0,0
4,61,116,24
4,69,114,0
4,61,0,840
4,69,0,0
4,61,112,24
4,68,112,0
4,61,0,648
4,68,0,0
4,63,116,24
4,66,106,0
4,63,0,852
4,66,0,0
4,54,102,12
4,59,98,0
4,54,0,764
4,56,104,4
4,59,0,752
4,56,0,12
4,57,104,4
4,59,96,0
4,57,0,764
4,56,104,4
