track,note,velocity,time
3,42,127,3063
3,61,107,0
3,73,95,0
3,73,0,745
3,61,0,9
3,74,87,17
3,62,91,0
3,74,0,768
3,62,0,0
3,63,91,0
3,75,83,0
3,63,0,729
3,75,0,9
3,62,71,30
3,74,91,0
3,74,0,752
3,62,0,8
3,61,95,8
3,73,87,0
3,61,0,760
3,73,0,8
3,62,75,0
3,74,67,0
3,74,0,768
3,63,115,0
3,75,95,0
3,62,0,12
3,63,0,732
3,75,0,8
3,62,79,16
3,74,99,0
3,42,0,45
3,74,0,91
3,62,0,8
3,71,80,37488
3,71,0,3820
3,73,59,13
3,75,74,770
3,73,0,46
3,75,0,2619
3,76,83,18
3,75,107,387
3,76,0,28
3,73,87,1508
3,75,0,6
3,73,0,754
3,74,91,8
3,74,0,768
3,75,91,2
3,75,0,1439
3,61,127,379
3,73,127,2
3,59,127,384
3,71,127,4
3,61,0,11
3,73,0,8
3,71,0,542
3,59,0,3
3,57,127,5
3,69,127,2
3,56,127,190
3,68,127,0
3,69,0,10
3,57,0,14
3,68,0,248
3,56,0,8
3,61,127,107
3,73,127,0
3,59,127,387
3,71,127,0
3,61,0,5
3,73,0,0
3,71,0,762
3,59,0,16
3,61,127,365
3,73,127,1
3,59,127,384
3,71,127,3
3,73,0,5
3,61,0,7
3,59,0,554
3,71,0,3
3,58,127,1
3,70,127,3
3,70,0,183
3,68,127,8
3,56,127,1
3,58,0,6
3,63,127,378
3,75,123,1
3,68,0,12
3,56,0,1
3,63,0,1170
3,75,0,1
3,61,127,348
3,73,127,1
3,59,127,386
3,71,127,0
3,73,0,14
3,61,0,8
3,58,127,552
3,70,127,0
3,71,0,8
3,59,0,0
3,56,127,184
3,68,127,1
3,70,0,7
3,58,0,0
3,56,0,183
3,68,0,2
3,61,127,189
3,73,127,7
3,73,0,352
3,71,127,25
3,59,127,3
3,61,0,13
3,59,0,555
3,71,0,85
3,61,127,117
3,73,127,0
3,73,0,760
3,59,127,5
3,71,127,0
3,61,0,11
3,58,127,757
3,70,127,1
3,59,0,15
3,71,0,0
3,58,0,1361
3,70,0,16
3,59,51,1730
3,59,0,1
3,59,75,16
3,59,0,16
3,59,87,159
3,59,0,1
3,59,103,16
3,59,0,22
3,59,127,151
3,59,0,64
3,59,83,1088
3,59,0,1
3,71,83,0
3,71,0,1
3,59,79,17
3,71,83,0
3,71,0,14
3,59,0,7
3,59,115,154
3,71,91,0
3,71,0,1
3,59,0,0
3,59,123,18
3,71,99,0
3,59,0,20
3,71,0,0
3,59,127,152
3,71,123,0
3,59,0,32
3,71,0,16
3,71,107,336
3,59,127,3
3,59,0,368
3,58,115,13
3,70,127,0
3,71,0,8
3,58,0,176
3,56,107,8
3,68,127,0
3,70,0,8
3,75,107,376
3,63,127,3
3,68,0,7
3,56,0,0
3,63,0,932
3,75,0,7
3,61,127,587
3,64,107,0
3,73,127,2
3,76,107,0
3,76,0,351
3,64,0,14
3,71,83,14
3,75,115,0
3,59,107,3
3,63,115,0
3,73,0,3
3,61,0,6
3,59,0,480
3,63,0,0
3,71,0,30
3,75,0,8
3,61,127,620
3,64,127,0
3,73,127,2
3,76,127,0
3,64,0,382
3,76,0,2
3,59,91,3
3,63,115,0
3,71,95,0
3,75,123,0
3,73,0,24
3,61,0,12
3,59,0,500
3,63,0,0
3,75,0,16
3,71,0,9
3,64,99,205
3,66,127,576
3,64,0,8
3,66,0,184
3,63,127,0
3,64,91,576
3,63,0,8
3,61,91,184
3,64,0,9
3,61,0,574
3,63,127,955
3,46,71,0
3,46,0,1487
3,63,0,8
4,28,127,33793
4,28,0,689
4,35,127,73
4,35,0,736
4,28,127,30
4,28,0,728
4,35,127,40
4,35,0,752
4,28,127,18
4,28,0,719
4,27,127,47
4,27,0,720
4,32,127,48
4,32,0,761
4,39,127,9
4,39,0,728
4,32,127,38
4,32,0,743
4,27,127,25
4,27,0,760
4,32,127,10
4,32,0,745
4,30,127,21
4,30,0,751
4,40,127,17
4,40,0,728
4,38,127,40
4,38,0,711
4,39,127,57
4,39,0,752
4,27,123,16
4,27,0,728
4,28,127,3
4,28,0,696
4,35,127,70
4,35,0,746
4,28,127,22
4,28,0,729
4,35,127,41
4,35,0,752
4,28,127,14
4,28,0,728
4,27,127,40
4,27,0,721
4,32,127,49
4,32,0,753
4,39,127,13
4,39,0,737
4,32,127,31
4,32,0,744
4,27,127,26
4,27,0,752
4,32,127,16
4,32,0,741
4,30,127,25
4,30,0,760
4,40,127,10
4,40,0,722
4,38,127,44
4,38,0,713
4,39,127,55
4,39,0,752
4,27,123,18
4,27,0,718
4,38,127,50
4,38,0,751
4,33,127,15
4,33,0,759
4,38,127,11
4,38,0,752
4,33,127,14
4,33,0,768
4,38,127,2
4,38,0,760
4,33,127,8
4,33,0,377
4,34,127,7
4,34,0,374
4,28,127,12298
4,28,0,697
4,35,127,69
4,35,0,743
4,28,127,25
4,28,0,727
4,35,127,43
4,35,0,744
4,28,127,24
4,28,0,718
4,27,127,50
4,27,0,711
4,32,127,55
4,32,0,756
4,39,127,12
4,39,0,735
4,32,127,35
4,32,0,736
4,27,127,30
4,27,0,759
4,32,127,11
4,32,0,744
4,30,127,22
4,30,0,751
4,40,127,17
4,40,0,728
4,38,127,40
4,38,0,712
4,39,127,56
4,39,0,752
4,27,123,16
4,27,0,727
4,28,127,9
4,28,0,695
4,35,127,71
4,35,0,743
4,28,127,25
4,28,0,727
4,35,127,43
4,35,0,743
4,28,127,23
4,28,0,727
4,27,127,41
4,27,0,720
4,32,127,49
4,32,0,752
4,39,127,15
4,39,0,736
4,32,127,32
4,32,0,743
4,27,127,25
4,27,0,759
4,32,127,9
4,32,0,744
4,30,127,24
4,30,0,750
4,40,127,18
4,40,0,720
4,38,127,48
4,38,0,711
4,39,127,57
4,39,0,752
4,27,123,16
4,27,0,720
4,28,127,11
4,28,0,703
4,35,127,65
4,35,0,744
4,28,127,24
4,28,0,720
4,35,127,48
4,35,0,752
4,28,127,16
4,28,0,729
4,27,127,39
4,27,0,713
4,32,127,55
4,32,0,760
4,39,127,8
4,39,0,735
4,32,127,32
4,32,0,744
4,27,127,24
4,27,0,760
4,32,127,9
4,32,0,744
4,30,127,24
4,30,0,744
4,37,127,24
4,37,0,727
4,35,127,40
4,35,0,713
4,34,127,56
4,34,0,743
4,27,123,25
4,27,0,728
4,32,95,40
4,32,0,15
4,32,127,48
4,44,127,0
4,32,0,72
4,44,0,0
5,42,91,1
5,49,83,177
5,54,99,192
5,42,0,32
5,54,0,15
5,49,0,0
5,42,99,26
5,50,83,153
5,56,83,193
5,56,0,56
5,42,0,15
5,50,0,8
5,42,99,41
5,51,75,161
5,57,91,193
5,42,0,48
5,57,0,8
5,51,0,14
5,42,91,42
5,50,91,170
5,50,0,176
5,42,0,7
5,56,83,9
5,56,0,32
5,42,99,9
5,49,79,154
5,54,79,192
5,49,0,16
5,42,0,7
5,54,0,24
5,42,91,50
5,50,83,170
5,56,87,192
5,50,0,8
5,42,0,8
5,56,0,24
5,42,95,49
5,51,91,169
5,51,0,153
5,42,0,23
5,57,87,16
5,57,0,48
5,42,91,66
5,50,79,186
5,56,91,192
5,50,0,24
5,42,0,0
5,56,0,16
5,42,91,40
5,49,75,176
5,54,83,192
5,49,0,40
5,54,0,8
5,42,0,8
5,42,103,57
5,50,83,186
5,56,91,192
5,50,0,40
5,42,0,9
5,56,0,23
5,42,95,49
5,51,83,170
5,57,91,192
5,57,0,72
5,42,0,24
5,51,0,8
5,42,95,57
5,50,83,170
5,50,0,192
5,56,99,0
5,42,0,7
5,56,0,41
5,42,83,81
5,49,83,184
5,42,0,113
5,54,83,79
5,54,0,112
5,49,0,8
5,42,83,32
5,50,83,128
5,56,83,192
5,50,0,56
5,56,0,16
5,42,0,16
5,42,83,48
5,51,67,168
5,57,83,192
5,42,0,88
5,51,0,24
5,57,0,8
5,42,83,32
5,52,83,128
5,58,91,192
5,52,0,65
5,58,0,23
5,42,0,32
5,47,83,8
5,54,87,88
5,59,103,194
5,47,0,126
5,54,0,17
5,59,0,2
5,46,103,237
5,54,87,32
5,61,87,194
5,46,0,94
5,54,0,49
5,61,0,2
5,45,83,32
5,54,91,144
5,62,95,192
5,45,0,48
5,54,0,64
5,62,0,16
5,44,91,8
5,54,91,128
5,66,99,192
5,54,0,120
5,66,0,0
5,44,0,8
5,40,83,106
5,59,47,0
5,59,0,9
5,47,79,168
5,40,0,178
5,55,91,14
5,47,0,72
5,55,0,48
5,45,83,47
5,52,79,144
5,61,87,192
5,52,0,80
5,45,0,8
5,61,0,8
5,46,83,8
5,54,95,192
5,61,91,194
5,46,0,29
5,61,0,27
5,54,0,14
5,47,83,16
5,54,71,184
5,47,0,16
5,54,0,80
5,62,87,98
5,62,0,48
5,43,83,17
5,50,91,58
5,50,0,88
5,59,99,104
5,59,0,56
5,43,0,110
5,43,83,18
5,50,83,42
5,50,0,144
5,66,91,48
5,43,0,24
5,66,0,8
5,43,83,26
5,43,0,176
5,50,83,16
5,50,0,192
5,53,99,0
5,53,0,40
5,59,91,152
5,59,0,65
5,42,83,8
5,52,75,192
5,58,87,192
5,52,0,281
5,42,0,15
5,58,0,0
5,47,83,88
5,54,83,183
5,47,0,114
5,59,83,78
5,59,0,121
5,54,0,8
5,47,83,32
5,55,83,128
5,61,83,192
5,55,0,56
5,61,0,24
5,47,0,9
5,47,83,50
5,56,67,160
5,62,83,192
5,47,0,81
5,56,0,32
5,62,0,8
5,47,83,32
5,57,83,128
5,63,91,192
5,57,0,64
5,63,0,24
5,47,0,42
5,52,83,9
5,59,87,88
5,64,103,194
5,52,0,119
5,59,0,22
5,64,0,3
5,51,103,238
5,59,87,35
5,66,87,192
5,51,0,95
5,59,0,42
5,66,0,8
5,50,83,33
5,59,91,137
5,67,95,192
5,50,0,40
5,59,0,81
5,67,0,7
5,49,91,9
5,59,91,120
5,71,99,194
5,59,0,112
5,71,0,2
5,49,0,7
5,45,83,107
5,52,95,183
5,60,115,194
5,45,0,350
5,47,83,34
5,52,0,7
5,60,0,16
5,54,95,169
5,63,127,190
5,54,0,282
5,47,0,8
5,63,0,24
5,48,91,72
5,55,91,190
5,64,115,194
5,64,0,225
5,55,0,6
5,48,0,1
5,47,91,152
5,55,87,192
5,62,103,192
5,47,0,200
5,55,0,7
5,62,0,7
5,45,91,170
5,52,87,190
5,60,107,194
5,60,0,289
5,52,0,7
5,45,0,7
5,42,99,81
5,52,87,192
5,57,111,192
5,52,0,256
5,42,0,7
5,57,0,1
5,47,91,120
5,59,83,0
5,63,91,0
5,59,0,328
5,63,0,8
5,57,103,48
5,60,103,0
5,60,0,351
5,57,0,18
5,55,103,15
5,59,103,0
5,55,0,352
5,59,0,7
5,54,103,25
5,57,103,0
5,54,0,295
5,57,0,32
5,47,0,15
5,47,83,29225
5,54,83,191
5,47,0,114
5,59,83,80
5,59,0,105
5,54,0,13
5,47,83,40
5,55,83,134
5,61,83,192
5,55,0,64
5,61,0,17
5,47,0,1
5,47,83,55
5,56,67,174
5,62,83,192
5,47,0,81
5,56,0,31
5,62,0,8
5,47,83,29
5,57,83,132
5,63,91,194
5,57,0,64
5,63,0,16
5,47,0,38
5,52,83,14
5,59,87,94
5,64,103,194
5,52,0,118
5,59,0,24
5,64,0,3
5,51,103,239
5,59,87,39
5,66,87,192
5,51,0,89
5,59,0,46
5,66,0,8
5,50,83,30
5,59,91,149
5,67,95,194
5,50,0,39
5,59,0,71
5,67,0,10
5,49,91,16
5,59,91,131
5,71,99,192
5,49,0,112
5,59,0,0
5,71,0,8
5,45,83,104
5,52,95,188
5,60,115,194
5,45,0,350
5,52,0,31
5,47,83,3
5,60,0,25
5,54,95,167
5,63,127,192
5,54,0,280
5,47,0,8
5,63,0,16
5,48,91,80
5,55,91,190
5,64,115,194
5,64,0,226
5,48,0,6
5,55,0,0
5,47,91,152
5,55,87,192
5,62,103,192
5,47,0,201
5,55,0,8
5,62,0,8
5,45,91,167
5,52,87,190
5,60,107,194
5,60,0,287
5,52,0,7
5,45,0,9
5,42,99,81
5,52,87,192
5,57,111,192
5,52,0,256
5,57,0,6
5,42,0,0
5,47,91,122
5,59,83,0
5,63,91,0
5,59,0,319
5,63,0,9
5,57,103,56
5,60,103,0
5,60,0,353
5,57,0,16
5,55,103,15
5,59,103,0
5,55,0,351
5,59,0,7
5,54,103,26
5,57,103,0
5,54,0,295
5,57,0,33
5,47,0,15
6,42,91,1
6,49,83,177
6,54,99,192
6,42,0,40
6,49,0,7
6,54,0,8
6,42,99,17
6,50,83,153
6,56,83,193
6,56,0,56
6,42,0,15
6,50,0,8
6,42,99,41
6,51,75,161
6,57,91,191
6,42,0,58
6,57,0,6
6,51,0,8
6,42,91,42
6,50,91,160
6,42,0,184
6,50,0,0
6,56,83,9
6,56,0,40
6,42,99,9
6,49,79,154
6,54,79,192
6,49,0,16
6,42,0,7
6,54,0,24
6,42,91,50
6,50,83,170
6,56,87,192
6,50,0,8
6,42,0,8
6,56,0,32
6,42,95,49
6,51,91,169
6,51,0,153
6,42,0,17
6,57,87,22
6,57,0,48
6,42,91,66
6,50,79,178
6,56,91,192
6,42,0,16
6,50,0,8
6,56,0,16
6,42,91,40
6,49,75,176
6,54,83,192
6,49,0,40
6,54,0,8
6,42,0,17
6,42,103,57
6,50,83,178
6,56,91,192
6,50,0,49
6,42,0,0
6,56,0,15
6,42,95,49
6,51,83,170
6,57,91,192
6,57,0,80
6,42,0,16
6,51,0,8
6,42,95,57
6,50,83,170
6,50,0,192
6,56,99,0
6,42,0,7
6,56,0,41
6,42,83,81
6,49,83,184
6,42,0,106
6,54,83,86
6,54,0,112
6,49,0,8
6,42,87,32
6,50,83,130
6,56,83,190
6,50,0,50
6,56,0,22
6,42,0,16
6,42,83,40
6,51,67,168
6,57,83,192
6,42,0,96
6,57,0,8
6,51,0,8
6,42,107,34
6,52,83,128
6,58,91,192
6,52,0,65
6,58,0,23
6,42,0,26
6,47,95,8
6,54,103,90
6,59,95,190
6,47,0,128
6,54,0,11
6,59,0,14
6,46,91,231
6,54,87,24
6,61,87,192
6,46,0,104
6,54,0,41
6,61,0,8
6,45,83,26
6,54,91,144
6,62,95,192
6,45,0,42
6,54,0,70
6,62,0,16
6,44,95,256
6,54,91,128
6,66,99,192
6,66,0,120
6,54,0,0
6,44,0,8
6,40,83,106
6,47,79,168
6,40,0,178
6,55,91,14
6,47,0,72
6,55,0,48
6,45,83,47
6,52,79,144
6,61,87,192
6,52,0,80
6,45,0,8
6,61,0,8
6,46,83,112
6,54,95,192
6,61,91,194
6,46,0,38
6,61,0,18
6,54,0,14
6,47,83,159
6,54,71,184
6,47,0,16
6,54,0,80
6,62,87,96
6,62,0,56
6,43,83,138
6,50,83,47
6,50,0,64
6,59,91,130
6,59,0,56
6,43,0,96
6,43,83,10
6,50,83,40
6,50,0,152
6,66,91,40
6,43,0,34
6,66,0,6
6,43,83,19
6,43,0,176
6,50,83,14
6,53,99,194
6,50,0,6
6,53,0,34
6,59,91,152
6,59,0,65
6,42,83,8
6,52,75,192
6,58,87,192
6,52,0,288
6,58,0,8
6,42,0,0
6,47,83,88
6,54,83,183
6,47,0,114
6,59,83,78
6,59,0,121
6,54,0,8
6,47,87,32
6,55,83,120
6,61,83,194
6,55,0,54
6,61,0,18
6,47,0,22
6,47,83,42
6,56,67,160
6,62,83,192
6,47,0,81
6,62,0,24
6,56,0,8
6,47,107,34
6,57,83,120
6,63,91,192
6,57,0,64
6,63,0,24
6,47,0,36
6,52,95,9
6,59,103,88
6,64,95,192
6,52,0,121
6,59,0,22
6,64,0,9
6,51,91,234
6,59,87,35
6,66,87,190
6,51,0,89
6,59,0,50
6,66,0,14
6,50,83,27
6,59,91,137
6,67,95,192
6,50,0,42
6,59,0,79
6,67,0,7
6,49,95,9
6,59,91,120
6,71,99,194
6,71,0,114
6,49,0,7
6,59,0,0
6,45,91,107
6,52,95,183
6,60,115,194
6,45,0,350
