track,note,velocity,time
3,76,127,3360
3,76,0,120
3,73,127,0
3,73,0,120
3,73,127,60
3,73,0,60
3,69,127,0
3,69,0,120
3,72,127,0
3,72,0,60
3,72,127,0
3,72,0,60
3,69,127,0
3,69,0,60
3,74,127,0
3,74,0,120
3,69,127,0
3,69,0,60
3,69,127,0
3,69,0,120
3,76,127,0
3,76,0,120
3,73,127,0
3,73,0,120
3,69,127,0
3,69,0,60
3,73,127,0
3,73,0,60
3,69,127,0
3,69,0,60
3,72,127,60
3,72,0,60
3,72,127,0
3,72,0,60
3,69,127,0
3,69,0,60
3,74,127,0
3,74,0,120
3,69,127,0
3,69,0,60
3,71,127,0
3,71,0,60
3,69,127,0
3,69,0,60
3,76,127,0
3,76,0,120
3,73,127,0
3,73,0,120
3,69,127,60
3,69,0,60
3,69,127,0
3,69,0,60
3,69,127,0
3,69,0,60
3,71,127,0
3,71,0,60
3,71,127,0
3,71,0,60
3,71,127,0
3,71,0,60
3,71,127,0
3,71,0,60
3,73,127,0
3,73,0,120
3,69,127,60
3,69,0,60
3,72,127,0
3,72,0,60
3,72,127,0
3,72,0,60
3,72,127,0
3,72,0,60
3,74,127,0
3,74,0,120
3,69,127,0
3,69,0,60
3,69,127,0
3,69,0,60
3,69,127,0
3,69,0,60
3,72,127,0
3,72,0,60
3,72,127,0
3,72,0,60
3,72,127,0
3,72,0,60
3,74,127,0
3,74,0,180
3,76,127,120
3,76,0,120
3,73,127,0
3,73,0,120
3,69,127,180
3,69,0,60
3,72,127,0
3,72,0,60
3,72,127,0
3,72,0,60
3,72,127,0
3,72,0,60
3,74,127,0
3,74,0,180
3,76,127,120
3,76,0,120
3,73,127,0
3,73,0,120
3,69,127,180
3,69,0,60
3,72,127,0
3,72,0,60
3,72,127,0
3,72,0,60
3,69,127,0
3,69,0,60
3,76,127,0
3,76,0,120
3,74,127,0
3,74,0,90
3,73,127,0
3,73,0,30
3,69,127,0
3,69,0,60
3,76,127,0
3,76,0,120
3,73,127,0
3,73,0,120
3,69,127,60
3,69,0,60
3,69,127,0
3,69,0,60
3,69,127,0
3,69,0,60
3,71,127,0
3,71,0,60
3,71,127,0
3,71,0,60
3,71,127,0
3,71,0,60
3,72,127,0
3,72,0,120
3,69,127,120
3,69,0,60
3,72,127,0
3,72,0,60
3,72,127,0
3,72,0,60
3,72,127,0
3,72,0,60
3,72,127,0
3,72,0,60
3,72,127,0
3,72,0,60
3,72,127,0
3,72,0,60
3,72,127,0
3,72,0,60
3,69,127,0
3,69,0,60
3,72,127,60
3,72,0,60
3,72,127,0
3,72,0,60
3,69,127,0
3,69,0,60
3,76,127,60
3,76,0,30
3,74,127,0
3,74,0,30
3,76,127,0
3,76,0,30
3,74,127,0
3,74,0,90
3,76,127,0
3,76,0,120
3,74,127,0
3,74,0,60
3,73,127,0
3,73,0,60
3,69,127,0
3,69,0,120
3,71,127,0
3,71,0,60
3,69,127,0
3,69,0,60
3,74,127,0
3,74,0,60
3,74,127,0
3,74,0,60
3,74,127,0
3,74,0,60
3,72,127,0
3,72,0,60
3,76,127,0
3,76,0,30
3,74,127,0
3,74,0,90
3,76,127,180
3,76,0,60
3,77,127,0
3,77,0,60
3,74,127,0
3,74,0,60
3,76,127,0
3,76,0,60
3,74,127,0
3,74,0,60
3,72,127,0
3,72,0,60
3,79,127,0
3,79,0,60
3,76,127,0
3,76,0,120
3,74,127,180
3,74,0,60
3,74,127,0
3,74,0,120
3,76,127,0
3,76,0,120
3,74,127,0
3,74,0,60
3,73,127,0
3,73,0,60
3,69,127,0
3,69,0,120
3,71,127,0
3,71,0,60
3,69,127,0
3,69,0,60
3,74,127,0
3,74,0,60
3,74,127,0
3,74,0,60
3,74,127,0
3,74,0,90
3,72,127,0
3,72,0,30
3,76,127,0
3,76,0,60
3,74,127,0
3,74,0,120
3,72,127,120
3,72,0,60
3,77,127,0
3,77,0,60
3,74,127,0
3,74,0,60
3,76,127,0
3,76,0,60
3,74,127,0
3,74,0,60
3,72,127,0
3,72,0,60
3,79,127,0
3,79,0,60
3,76,127,0
3,76,0,120
3,67,127,180
3,67,0,60
3,69,127,0
3,69,0,60
3,69,127,0
3,69,0,60
3,69,127,0
3,69,0,120
3,67,127,660
3,67,0,60
3,69,127,0
3,69,0,120
3,69,127,0
3,69,0,120
3,72,127,720
3,72,0,120
3,73,127,0
3,73,0,120
3,76,127,840
3,76,0,120
3,73,127,0
3,73,0,120
3,69,127,60
3,69,0,60
3,69,127,0
3,69,0,60
3,69,127,0
3,69,0,60
3,72,127,0
3,72,0,60
3,72,127,0
3,72,0,60
3,72,127,0
3,72,0,60
3,74,127,0
3,74,0,180
3,69,127,0
3,69,0,60
3,69,127,0
3,69,0,60
3,76,127,0
3,76,0,120
3,73,127,0
3,73,0,120
3,69,127,60
3,69,0,60
3,69,127,0
3,69,0,60
3,69,127,0
3,69,0,60
3,72,127,0
3,72,0,60
3,72,127,0
3,72,0,60
3,69,127,0
3,69,0,60
3,76,127,0
3,76,0,120
3,74,127,0
3,74,0,60
3,69,127,0
3,69,0,60
3,69,127,0
3,69,0,60
3,76,127,0
3,76,0,120
3,73,127,0
3,73,0,120
3,69,127,60
3,69,0,60
3,69,127,0
3,69,0,60
3,69,127,0
3,69,0,60
3,71,127,0
3,71,0,60
3,71,127,0
3,71,0,60
3,71,127,0
3,71,0,60
3,72,127,0
3,72,0,120
3,69,127,120
3,69,0,60
3,72,127,0
3,72,0,60
3,72,127,0
3,72,0,60
3,72,127,0
3,72,0,60
3,72,127,0
3,72,0,60
3,72,127,0
3,72,0,60
3,72,127,0
3,72,0,60
3,72,127,0
3,72,0,60
3,69,127,0
3,69,0,60
3,69,127,0
3,69,0,60
3,72,127,0
3,72,0,60
3,76,127,0
3,76,0,60
3,69,127,0
3,69,0,60
3,76,127,60
3,76,0,30
3,74,127,0
3,74,0,30
3,76,127,0
3,76,0,30
3,74,127,0
3,74,0,90
3,76,127,0
3,76,0,120
3,74,127,0
3,74,0,60
3,73,127,0
3,73,0,60
3,69,127,0
3,69,0,120
3,71,127,0
3,71,0,60
3,69,127,0
3,69,0,60
3,74,127,0
3,74,0,60
3,74,127,0
3,74,0,60
3,74,127,0
3,74,0,60
3,72,127,0
3,72,0,60
3,76,127,0
3,76,0,30
3,74,127,0
3,74,0,90
3,76,127,180
3,76,0,60
3,77,127,0
3,77,0,60
3,74,127,0
3,74,0,60
3,76,127,0
3,76,0,60
3,74,127,0
3,74,0,60
3,72,127,0
3,72,0,60
3,79,127,0
3,79,0,60
3,76,127,0
3,76,0,120
3,74,127,180
3,74,0,60
3,74,127,0
3,74,0,120
3,76,127,0
3,76,0,120
3,74,127,0
3,74,0,60
3,73,127,0
3,73,0,60
3,69,127,0
3,69,0,120
3,71,127,0
3,71,0,60
3,69,127,0
3,69,0,60
3,74,127,0
3,74,0,60
3,74,127,0
3,74,0,60
3,74,127,0
3,74,0,90
3,72,127,0
3,72,0,30
3,76,127,0
3,76,0,60
3,74,127,0
3,74,0,120
3,72,127,120
3,72,0,60
3,77,127,0
3,77,0,60
3,74,127,0
3,74,0,60
3,76,127,0
3,76,0,60
3,74,127,0
3,74,0,60
3,72,127,0
3,72,0,60
3,79,127,0
3,79,0,60
3,76,127,0
3,76,0,120
3,67,127,180
3,67,0,60
3,69,127,0
3,69,0,60
3,69,127,0
3,69,0,60
3,69,127,0
3,69,0,120
3,67,127,660
3,67,0,60
3,69,127,0
3,69,0,120
3,69,127,0
3,69,0,120
3,75,127,3540
3,75,0,60
3,76,127,0
3,76,0,30
3,75,127,0
3,75,0,90
3,76,127,0
3,76,0,120
3,74,127,0
3,74,0,60
3,73,127,0
3,73,0,60
3,69,127,0
3,69,0,120
3,69,127,0
3,69,0,60
3,69,127,0
3,69,0,60
3,74,127,0
3,74,0,60
3,74,127,0
3,74,0,60
3,74,127,0
3,74,0,60
3,72,127,0
3,72,0,60
3,74,127,0
3,74,0,30
3,74,127,0
3,74,0,90
3,76,127,180
3,76,0,60
3,77,127,0
3,77,0,60
3,74,127,0
3,74,0,60
3,76,127,0
3,76,0,60
3,74,127,0
3,74,0,60
3,72,127,0
3,72,0,60
3,79,127,0
3,79,0,60
3,76,127,0
3,76,0,120
3,74,127,180
3,74,0,60
3,74,127,0
3,74,0,120
3,76,127,0
3,76,0,120
3,74,127,0
3,74,0,60
3,73,127,0
3,73,0,60
3,69,127,0
3,69,0,120
3,69,127,0
3,69,0,60
3,69,127,0
3,69,0,60
3,74,127,0
3,74,0,60
3,74,127,0
3,74,0,60
3,74,127,0
3,74,0,90
3,72,127,0
3,72,0,30
3,74,127,0
3,74,0,60
3,74,127,0
3,74,0,120
3,72,127,120
3,72,0,60
3,77,127,0
3,77,0,60
3,74,127,0
3,74,0,60
3,76,127,0
3,76,0,60
3,74,127,0
3,74,0,60
3,72,127,0
3,72,0,60
3,79,127,0
3,79,0,60
3,76,127,0
3,76,0,120
3,74,127,240
3,74,0,120
3,76,127,0
3,76,0,120
3,74,127,0
3,74,0,60
3,73,127,0
3,73,0,60
3,69,127,0
3,69,0,120
3,69,127,0
3,69,0,60
3,69,127,0
3,69,0,60
3,74,127,0
3,74,0,60
3,74,127,0
3,74,0,60
3,74,127,0
3,74,0,60
3,72,127,0
3,72,0,60
3,74,127,0
3,74,0,30
3,74,127,0
3,74,0,90
3,76,127,180
3,76,0,60
3,77,127,0
3,77,0,60
3,74,127,0
3,74,0,60
3,76,127,0
3,76,0,60
3,74,127,0
3,74,0,60
3,72,127,0
3,72,0,60
3,79,127,0
3,79,0,60
3,76,127,0
3,76,0,120
3,74,127,180
3,74,0,60
3,74,127,0
3,74,0,120
3,76,127,0
3,76,0,120
3,74,127,0
3,74,0,60
3,73,127,0
3,73,0,60
3,69,127,0
3,69,0,120
3,69,127,0
3,69,0,60
3,69,127,0
3,69,0,60
3,74,127,0
3,74,0,60
3,74,127,0
3,74,0,60
3,74,127,0
3,74,0,90
3,72,127,0
3,72,0,30
3,74,127,0
3,74,0,60
3,74,127,0
3,74,0,120
3,72,127,120
3,72,0,60
3,77,127,0
3,77,0,60
3,74,127,0
3,74,0,60
3,76,127,0
3,76,0,60
3,74,127,0
3,74,0,60
3,72,127,0
3,72,0,60
3,79,127,0
3,79,0,60
3,76,127,0
3,76,0,120
3,67,127,180
3,67,0,60
3,69,127,0
3,69,0,60
3,69,127,0
3,69,0,60
3,69,127,0
3,69,0,120
3,81,127,420
3,81,0,240
3,76,127,0
3,76,0,60
3,76,127,0
3,76,0,120
3,76,127,0
3,76,0,120
3,76,127,540
3,76,0,60
3,77,127,0
3,77,0,60
3,77,127,0
3,77,0,60
3,77,127,0
3,77,0,60
3,79,127,0
3,79,0,60
3,76,127,0
3,76,0,120
3,76,127,540
3,76,0,60
3,77,127,0
3,77,0,60
3,77,127,0
3,77,0,60
3,77,127,0
3,77,0,60
3,79,127,0
3,79,0,60
3,76,127,0
3,76,0,120
3,76,127,420
3,76,0,60
3,77,127,0
3,77,0,60
3,77,127,0
3,77,0,60
3,77,127,0
3,77,0,60
3,77,127,0
3,77,0,60
3,77,127,0
3,77,0,60
3,79,127,0
3,79,0,60
3,76,127,0
3,76,0,120
3,76,127,420
3,76,0,60
3,77,127,0
3,77,0,60
3,77,127,0
3,77,0,60
3,77,127,0
3,77,0,60
3,77,127,0
3,77,0,60
3,77,127,0
3,77,0,60
3,79,127,0
3,79,0,60
3,76,127,0
3,76,0,120
3,76,127,540
3,76,0,60
3,77,127,0
3,77,0,60
3,77,127,0
3,77,0,60
3,77,127,0
3,77,0,60
3,79,127,0
3,79,0,60
3,76,127,0
3,76,0,120
3,76,127,540
3,76,0,60
3,77,127,0
3,77,0,60
3,77,127,0
3,77,0,60
3,77,127,0
3,77,0,60
3,79,127,0
3,79,0,60
3,76,127,0
3,76,0,120
3,76,127,540
3,76,0,60
3,77,127,0
3,77,0,60
3,77,127,0
3,77,0,60
3,77,127,0
3,77,0,60
3,79,127,0
3,79,0,60
3,76,127,0
3,76,0,120
3,76,127,540
3,76,0,60
3,77,127,0
3,77,0,60
3,77,127,0
3,77,0,60
3,77,127,0
3,77,0,120
3,69,127,5
3,69,0,1
3,69,127,2
3,69,0,120
3,69,127,0
3,69,0,120
3,71,127,0
3,83,127,0
3,83,0,60
3,71,0,0
3,68,127,0
3,80,127,0
3,80,0,60
3,68,0,0
3,69,127,0
3,81,127,0
3,81,0,120
3,69,0,0
3,76,127,0
3,76,0,120
3,76,127,540
3,76,0,60
3,77,127,0
3,77,0,60
3,77,127,0
3,77,0,60
3,77,127,0
3,77,0,60
3,79,127,0
3,79,0,60
3,76,127,0
3,76,0,120
3,76,127,540
3,76,0,60
3,77,127,0
3,77,0,60
3,77,127,0
3,77,0,60
3,77,127,0
3,77,0,60
3,79,127,0
3,79,0,60
3,76,127,0
3,76,0,120
3,76,127,420
3,76,0,60
3,77,127,0
3,77,0,60
3,77,127,0
3,77,0,60
3,77,127,0
3,77,0,60
3,77,127,0
3,77,0,60
3,77,127,0
3,77,0,60
3,79,127,0
3,79,0,60
3,76,127,0
3,76,0,120
3,76,127,420
3,76,0,60
3,77,127,0
3,77,0,60
3,77,127,0
3,77,0,60
3,77,127,0
3,77,0,60
3,77,127,0
3,77,0,60
3,77,127,0
3,77,0,60
3,79,127,0
3,79,0,60
3,76,127,0
3,76,0,120
3,76,127,540
3,76,0,60
3,77,127,0
3,77,0,60
3,77,127,0
3,77,0,60
3,77,127,0
3,77,0,60
3,79,127,0
3,79,0,60
3,76,127,0
3,76,0,120
3,76,127,540
3,76,0,60
3,77,127,0
3,77,0,60
3,77,127,0
3,77,0,60
3,77,127,0
3,77,0,60
3,79,127,0
3,79,0,60
3,76,127,0
3,76,0,120
3,76,127,540
3,76,0,60
3,77,127,0
3,77,0,60
3,77,127,0
3,77,0,60
3,77,127,0
3,77,0,60
3,79,127,0
3,79,0,60
3,76,127,0
3,76,0,120
3,76,127,540
3,76,0,60
3,77,127,0
3,77,0,60
3,77,127,0
3,77,0,60
3,77,127,0
3,77,0,120
3,81,127,1200
3,81,0,60
3,81,127,60
3,81,0,60
3,81,127,0
3,81,0,60
3,93,127,0
3,81,127,0
3,81,0,180
3,93,0,0
4,76,100,3360
4,76,0,120
4,73,100,0
4,73,0,120
4,76,100,720
4,76,0,120
4,73,100,0
4,73,0,120
4,76,100,720
4,76,0,120
4,73,100,0
4,73,0,120
4,76,100,1680
4,76,0,120
4,73,100,0
4,73,0,120
4,76,100,720
4,76,0,120
4,73,100,0
4,73,0,120
4,76,100,720
4,76,0,120
4,73,100,0
4,73,0,120
4,76,100,8400
4,76,0,120
4,73,100,0
4,73,0,120
4,76,100,720
4,76,0,120
4,73,100,0
4,73,0,120
4,76,100,720
4,76,0,120
4,73,100,0
4,73,0,120
4,84,100,7320
4,84,0,120
4,88,100,0
4,88,0,60
4,85,100,0
4,85,0,120
4,69,110,15540
4,69,0,60
4,69,110,0
4,69,0,60
4,69,110,900
4,69,0,60
4,64,110,780
4,64,0,120
4,65,110,0
4,65,0,120
4,64,110,720
4,64,0,120
4,65,110,0
4,65,0,120
4,57,100,5
4,57,0,2
4,64,110,1740
4,64,0,120
4,65,110,0
4,65,0,120
4,64,110,720
4,64,0,120
4,65,110,0
4,65,0,120
4,64,110,720
4,64,0,120
4,65,110,0
4,65,0,120
4,81,100,660
4,81,0,60
4,76,100,60
4,76,0,60
4,77,100,0
4,77,0,120
4,81,100,660
4,81,0,60
4,76,100,60
4,76,0,60
4,77,100,0
4,77,0,120
4,81,100,660
4,81,0,60
4,76,100,60
4,76,0,60
4,77,100,0
4,77,0,120
4,81,100,660
4,81,0,60
4,76,100,60
4,76,0,60
4,77,100,0
4,77,0,120
4,81,120,1740
4,81,0,60
4,81,110,0
4,81,0,60
4,69,127,0
4,81,127,0
4,81,0,180
4,69,0,0
5,72,127,39360
5,72,0,60
5,81,127,0
5,81,0,60
5,77,127,0
5,77,0,60
