track,note,velocity,time
0,43,87,7
0,69,107,0
0,62,10,0
0,70,83,47
0,67,47,20
0,62,67,48
0,63,75,15
0,55,79,0
0,58,43,41
0,67,55,47
0,58,31,33
0,43,95,1
0,64,75,0
0,58,47,41
0,67,55,33
0,58,10,9
0,64,43,5
0,63,63,5
0,55,39,0
0,58,10,45
0,70,35,25
0,79,107,25
0,74,107,0
0,55,107,0
0,82,107,0
0,70,107,0
0,62,71,0
0,67,95,0
0,70,107,0
0,43,95,0
0,55,107,1
0,45,105,3
0,57,110,0
0,36,95,0
0,40,12,0
0,43,117,0
0,55,117,1
0,74,117,0
0,70,117,0
0,62,117,0
0,67,117,0
0,40,15,4
0,69,127,0
0,43,127,0
0,70,127,0
0,67,127,1
0,62,127,0
0,40,16,1
0,67,51,0
0,45,125,4
0,40,18,0
0,40,19,4
0,40,20,4
0,62,63,0
0,40,21,4
0,40,22,4
0,40,24,4
0,40,25,4
0,40,26,4
0,40,27,4
0,74,107,0
0,40,28,4
0,40,30,4
0,40,31,4
0,40,31,0
0,70,75,0
0,40,32,4
0,40,33,1
0,70,59,0
0,79,51,0
0,67,55,0
0,62,27,1
0,40,34,3
0,79,75,4
0,40,36,0
0,70,51,0
0,40,38,0
0,40,39,4
0,40,40,0
0,79,107,0
0,40,42,4
0,75,117,0
0,63,81,1
0,79,59,0
0,55,107,0
0,63,95,0
0,40,43,3
0,63,127,0
0,40,44,4
0,79,51,0
0,40,45,4
0,79,99,0
0,40,46,4
0,40,48,4
0,79,107,1
0,40,49,4
0,74,19,0
0,62,15,1
0,40,50,3
0,40,51,4
0,70,59,0
0,40,52,1
0,40,54,1
0,75,107,4
0,40,55,1
0,70,107,0
0,40,56,0
0,74,107,1
0,40,56,3
0,75,107,0
0,40,57,4
0,40,58,4
0,45,125,0
0,40,60,1
0,40,61,4
0,40,62,4
0,45,109,1
0,40,63,0
0,67,10,0
0,63,10,0
0,79,67,0
0,40,64,1
0,70,75,0
0,82,27,0
0,79,107,0
0,40,66,1
0,40,67,1
0,79,107,1
0,70,75,0
0,40,68,4
0,55,107,0
0,82,55,0
0,76,87,4
0,40,69,1
0,64,97,1
0,76,117,0
0,43,95,0
0,40,70,2
0,64,107,0
0,64,127,0
0,40,72,1
0,40,73,5
0,70,107,1
0,40,74,4
0,79,67,0
0,40,75,1
0,70,67,0
0,79,107,1
0,40,76,4
0,67,63,1
0,40,78,1
0,76,43,0
0,70,83,0
0,40,79,5
0,70,107,1
0,40,80,4
0,76,107,0
0,40,81,1
0,76,107,1
0,70,67,0
0,40,82,4
0,70,107,4
0,76,107,0
0,40,84,1
0,74,83,1
0,40,85,1
0,70,107,1
0,40,86,4
0,76,107,0
0,70,107,0
0,40,87,1
0,76,107,1
0,40,88,1
0,70,59,0
0,40,90,4
0,76,107,0
0,40,91,1
0,70,107,1
0,76,107,0
0,40,92,4
0,64,10,0
0,40,93,5
0,70,107,0
0,76,107,1
0,40,94,1
0,40,94,0
0,70,107,1
0,40,95,4
0,40,96,1
0,55,107,1
0,70,107,0
0,40,97,4
0,75,107,0
0,63,25,0
0,75,93,0
0,63,107,0
0,63,127,1
0,36,107,0
0,57,107,0
0,70,91,0
0,70,107,5
0,75,27,3
0,70,107,9
0,75,75,5
0,70,107,12
0,75,107,1
0,45,105,4
0,70,107,0
0,75,107,1
0,55,107,0
0,70,107,3
0,45,97,1
0,75,91,1
0,70,107,9
0,43,77,1
0,70,107,3
0,75,91,1
0,70,107,0
0,75,107,1
0,43,85,0
0,70,107,0
0,41,100,0
0,70,107,0
0,67,107,0
0,74,107,0
0,57,117,0
0,62,65,0
0,55,117,0
0,43,117,0
0,36,55,0
0,40,55,0
0,72,57,0
0,74,93,0
0,62,107,0
0,43,107,1
0,70,127,0
0,74,127,0
0,67,127,0
0,62,127,0
0,43,127,0
0,70,107,0
0,40,52,0
0,74,107,1
0,40,51,0
0,40,49,1
0,70,107,0
0,40,47,1
0,74,107,0
0,40,46,0
0,70,107,0
0,67,107,4
0,40,45,0
0,74,107,0
0,40,44,4
0,70,107,0
0,40,43,4
0,74,107,1
0,40,42,3
0,40,41,4
0,70,107,0
0,74,107,0
0,40,41,0
0,40,41,4
0,70,107,0
0,55,107,0
0,74,107,0
0,74,107,0
0,40,41,0
0,70,107,1
0,40,41,0
0,74,107,0
0,40,41,1
0,40,41,4
0,70,107,0
0,74,107,4
0,40,40,0
0,40,40,0
0,70,107,0
0,62,107,0
0,74,107,4
0,40,39,0
0,40,39,0
0,70,107,0
0,40,40,0
0,74,107,0
0,40,39,0
0,70,107,0
0,40,39,0
0,75,107,0
0,63,29,0
0,75,65,0
0,40,38,0
0,63,107,0
0,63,127,1
0,40,38,0
0,70,107,0
0,75,107,0
0,40,37,0
0,70,107,4
0,40,37,0
0,75,107,0
0,40,36,0
0,70,107,4
0,40,36,0
0,75,107,1
0,67,27,0
0,40,37,0
0,40,39,1
0,70,107,0
0,75,107,4
0,40,39,0
0,45,117,0
0,40,42,0
0,70,107,0
0,40,43,1
0,75,107,0
0,40,45,4
0,70,107,4
0,70,107,0
0,45,113,0
0,40,46,0
0,40,46,1
0,75,107,0
0,70,107,0
0,75,107,0
0,40,46,0
0,40,46,4
0,70,107,0
0,40,46,1
0,75,107,0
0,40,46,0
0,70,107,0
0,40,46,4
0,75,107,0
0,63,103,1
0,40,46,0
0,70,107,0
0,40,46,4
0,75,107,1
0,45,117,4
0,40,46,1
0,70,107,0
0,79,107,1
0,40,46,0
0,40,46,0
0,70,107,1
0,76,107,0
0,64,127,0
0,76,97,0
0,64,69,1
0,45,127,0
0,40,48,1
0,64,107,0
0,40,48,0
0,76,107,1
0,70,107,0
0,40,48,0
0,76,11,1
0,40,51,0
0,70,107,0
0,76,107,4
0,40,54,0
0,40,55,1
0,70,107,1
0,40,57,4
0,76,107,0
0,67,51,0
0,40,58,1
0,70,107,1
0,40,60,4
0,76,107,0
0,40,61,1
0,70,107,1
0,76,107,3
0,40,63,1
0,40,63,1
0,70,107,1
0,40,66,4
0,76,107,0
0,70,103,0
0,70,107,0
0,40,67,1
0,40,69,5
0,76,107,0
0,40,70,1
0,70,107,1
0,40,72,1
0,76,107,0
0,40,73,1
0,70,107,0
0,40,75,1
0,76,107,0
0,64,103,0
0,70,99,0
0,40,76,1
0,76,107,1
0,40,78,1
0,41,77,5
0,40,79,0
0,76,107,0
0,70,107,1
0,40,81,1
0,76,107,0
0,75,107,0
0,70,107,0
0,40,82,1
0,41,127,1
0,40,84,0
0,75,61,0
0,63,1,0
0,63,107,0
0,63,127,0
0,70,107,0
0,40,85,1
0,75,91,0
0,40,88,1
0,70,107,0
0,40,88,5
0,75,107,0
0,40,88,5
0,75,107,0
0,70,107,0
0,40,87,5
0,40,86,5
0,70,107,0
0,67,23,0
0,75,107,1
0,40,86,1
0,70,107,0
0,75,107,4
0,40,86,1
0,40,84,1
0,70,107,0
0,75,107,0
0,40,82,5
0,40,83,5
0,40,88,0
0,82,107,1
0,70,79,0
0,75,75,0
0,77,11,8
0,74,59,0
0,76,108,4
0,72,103,4
0,69,96,0
0,67,73,0
0,65,64,0
0,62,61,0
0,63,61,1
0,60,57,0
0,58,53,1
0,57,53,0
0,55,50,2
0,51,32,0
0,53,32,1
0,62,17,9
0,43,45,1
0,67,65,0
0,70,65,0
0,55,57,0
0,55,59,48
0,55,55,7
0,62,37,12
0,55,88,9
0,55,82,7
0,67,69,23
0,63,65,0
0,57,48,46
0,57,74,8
0,57,93,3
0,43,53,11
0,58,65,14
0,64,69,0
0,60,43,33
0,60,76,14
0,67,22,7
0,64,50,0
0,60,82,3
0,58,57,4
0,43,2,8
0,57,80,3
0,55,71,5
0,65,62,6
0,62,42,0
0,59,2,0
0,62,42,20
0,65,58,4
0,50,38,44
0,67,70,0
0,60,74,0
0,63,78,0
0,48,90,1
0,60,71,44
0,60,74,3
0,67,58,4
0,63,54,0
0,60,95,7
0,60,83,1
0,48,46,11
0,47,54,0
0,65,58,1
0,62,30,3
0,62,95,29
0,63,94,12
0,65,38,13
0,65,80,16
0,47,14,13
0,62,71,7
0,67,58,1
0,60,38,0
0,63,58,4
0,46,66,0
0,67,95,5
0,63,30,13
0,67,58,0
0,58,42,2
0,64,46,0
0,64,54,13
0,60,30,0
0,46,46,24
0,65,74,0
0,41,78,0
0,68,79,3
0,60,54,1
0,68,70,0
0,67,88,10
0,65,98,6
0,65,66,4
0,68,50,0
0,60,34,0
0,63,86,8
0,65,69,6
0,67,74,1
0,58,10,4
0,62,42,0
0,65,34,1
0,46,66,1
0,65,73,5
0,70,50,63
0,62,34,1
0,39,66,0
0,67,50,0
0,65,62,28
0,67,80,7
0,62,10,3
0,67,14,0
0,65,70,9
0,63,79,9
0,62,55,5
0,46,26,1
0,63,49,4
0,67,18,1
0,58,22,0
0,62,26,0
0,65,22,0
0,63,29,6
0,65,14,9
0,62,22,0
0,67,22,0
0,46,42,1
0,68,42,15
0,65,42,0
0,60,38,0
0,41,54,0
0,65,59,36
0,65,61,9
0,68,42,8
0,65,58,0
0,65,78,8
0,65,73,16
0,65,76,6
0,68,66,14
0,65,62,0
0,63,79,2
0,67,49,8
0,65,56,6
0,65,66,34
0,68,54,0
0,41,58,36
0,51,63,2
0,67,67,8
0,60,58,0
0,43,78,1
0,51,67,1
0,63,50,34
0,63,55,12
0,60,42,9
0,63,74,0
0,63,55,13
0,63,103,12
0,43,42,12
0,55,38,8
0,59,66,0
0,62,74,0
0,62,64,13
0,51,63,3
0,72,58,2
0,62,52,8
0,51,79,13
0,79,58,39
0,86,94,8
0,82,58,4
0,84,94,4
0,87,82,0
0,89,58,0
0,91,58,0
0,93,58,0
0,94,110,0
0,63,50,4
0,60,62,0
0,55,66,0
0,48,78,0
0,44,51,2
0,96,82,0
0,60,66,32
0,62,71,3
0,63,62,14
0,60,58,0
0,63,90,6
0,48,66,3
0,79,82,0
0,60,71,2
0,56,90,12
0,60,70,0
0,80,58,0
0,62,73,10
0,63,94,5
0,65,102,2
0,60,30,10
0,56,14,0
0,75,80,2
0,60,68,13
0,48,26,8
0,81,94,5
0,63,62,0
0,60,58,0
0,64,42,0
0,57,82,1
0,44,91,1
0,67,110,7
0,60,14,10
0,63,46,0
0,65,98,1
0,63,103,2
0,48,10,14
0,62,95,1
0,82,82,5
0,64,22,1
0,60,10,0
0,58,10,0
0,60,88,5
0,51,59,7
0,88,100,15
0,60,58,3
0,64,66,0
0,51,31,2
0,75,80,7
0,89,82,9
0,41,78,2
0,60,78,0
0,56,70,0
0,68,82,0
0,65,66,1
0,84,58,0
0,44,87,1
0,65,90,41
0,67,88,4
0,64,26,17
0,65,78,0
0,60,66,0
0,68,94,3
0,41,54,3
0,65,70,4
0,91,82,1
0,67,82,1
0,52,98,0
0,58,62,0
0,65,50,0
0,88,70,0
0,67,58,9
0,68,98,8
0,70,103,6
0,67,78,6
0,75,80,2
0,67,88,12
0,52,78,10
0,72,114,6
0,92,100,0
0,65,74,0
0,68,66,0
0,60,62,0
0,72,38,0
0,51,66,0
0,44,75,2
0,72,66,12
0,65,70,0
0,68,66,0
0,51,46,28
0,72,70,5
0,69,70,1
0,63,46,0
0,93,94,0
0,51,27,61
0,90,34,11
0,69,82,4
0,63,70,1
0,72,78,0
0,51,39,1
0,51,102,0
0,75,80,2
0,51,51,1
0,85,34,10
0,89,58,1
0,82,93,0
0,46,70,1
0,61,102,0
0,70,98,0
0,65,98,0
0,73,98,0
0,51,67,1
0,44,93,0
0,73,110,2
0,72,80,9
0,70,94,0
0,73,54,17
0,70,70,0
0,65,74,0
0,68,64,6
0,46,90,25
0,70,74,4
0,75,85,1
0,72,68,0
0,67,70,4
0,64,62,0
0,60,58,0
0,72,70,0
0,48,82,1
0,70,79,7
0,70,60,8
0,67,70,29
0,72,46,1
0,64,58,0
0,48,58,21
0,75,80,2
0,87,82,5
0,80,34,0
0,84,46,0
0,65,70,1
0,61,54,0
0,68,58,0
0,49,70,0
0,44,87,2
0,68,82,34
0,68,82,8
0,65,38,2
0,68,58,0
0,68,94,11
0,68,98,7
0,49,58,5
0,68,82,12
0,77,100,8
0,44,30,12
0,63,54,0
0,60,30,0
0,63,46,14
0,63,58,0
0,60,66,0
0,79,70,1
0,44,102,24
0,75,80,2
0,73,110,0
0,82,85,1
0,58,50,1
0,61,66,0
0,65,66,0
0,46,78,0
0,44,91,2
0,68,72,37
0,68,90,10
0,61,66,5
0,65,66,0
0,68,103,10
0,68,90,14
0,68,103,11
0,61,58,1
0,65,66,0
0,68,90,10
0,68,58,15
0,70,103,17
0,65,58,5
0,61,58,0
0,70,86,9
0,46,42,1
0,75,78,2
0,68,70,18
0,60,38,5
0,67,50,0
0,48,22,0
0,72,58,0
0,44,91,2
0,67,78,10
0,68,70,6
0,67,90,6
0,65,22,7
0,68,46,10
0,67,46,4
0,58,2,3
0,36,34,0
0,67,38,15
0,53,90,51
0,41,70,7
0,35,85,3
0,44,47,1
0,65,47,4
0,65,83,11
0,65,95,4
0,65,88,6
0,65,74,4
0,60,54,27
0,65,78,0
0,69,78,0
0,33,89,2
0,44,47,0
0,60,51,3
0,69,47,0
0,33,83,17
0,33,79,12
0,33,71,3
0,48,58,5
0,44,75,1
0,33,79,0
0,67,51,2
0,64,59,1
0,60,71,23
0,60,62,0
0,33,101,2
0,60,65,1
0,65,83,3
0,60,74,1
0,67,98,0
0,64,98,0
0,44,85,2
0,72,74,3
0,67,88,0
0,69,86,3
0,41,102,1
0,44,75,2
0,35,89,0
0,65,90,1
0,69,47,2
0,65,67,0
0,60,78,14
0,60,46,38
0,65,98,0
0,69,102,0
0,44,87,2
0,33,79,0
0,72,85,2
0,33,55,21
0,33,47,12
0,33,51,4
0,48,90,3
0,64,102,0
0,67,78,0
0,44,83,2
0,33,75,0
0,67,99,1
0,64,75,0
0,48,100,1
0,33,89,39
0,72,102,43
0,44,87,2
0,72,67,3
0,60,93,14
0,48,102,1
0,60,78,17
0,69,98,8
0,29,87,5
0,53,102,0
0,41,102,0
0,69,102,0
0,65,102,0
0,35,79,2
0,44,59,0
0,60,59,2
0,65,95,0
0,69,95,0
0,81,54,0
0,77,78,1
0,65,78,0
0,60,42,1
0,69,93,1
0,69,102,13
0,65,102,0
0,69,106,1
0,44,79,1
0,41,70,11
0,60,70,0
0,69,102,0
0,74,106,6
0,28,67,1
0,74,54,0
0,64,54,0
0,80,54,0
0,76,66,0
0,44,91,1
0,40,98,2
0,68,98,0
0,62,82,0
0,64,82,0
0,68,55,0
0,64,71,1
0,62,67,0
0,62,58,8
0,74,93,1
0,71,102,6
0,52,82,1
0,64,74,0
0,68,78,0
0,44,47,1
0,71,67,3
0,74,80,1
0,62,102,13
0,71,68,0
0,57,88,1
0,81,88,0
0,72,60,0
0,69,93,7
0,33,31,0
0,69,102,0
0,64,102,0
0,60,102,0
0,68,30,0
0,44,71,1
0,35,79,0
0,45,102,0
0,69,59,1
0,64,75,0
0,60,2,8
0,72,102,50
0,44,83,2
0,60,63,2
0,60,58,9
0,45,34,0
0,76,84,4
0,52,90,0
0,80,24,0
0,71,100,0
0,64,66,0
0,40,102,0
0,62,54,1
0,68,90,0
0,74,20,0
0,44,91,1
0,64,85,2
0,47,78,15
0,59,67,4
0,46,55,22
0,52,102,20
0,38,85,2
0,44,89,0
0,68,78,2
0,62,91,0
0,62,102,0
0,38,59,2
0,56,24,0
0,69,90,4
0,57,90,0
0,76,90,0
0,72,90,0
0,81,90,1
0,45,102,4
0,72,102,0
0,60,102,0
0,64,102,0
0,69,90,0
0,35,93,2
0,44,101,0
0,76,119,1
0,33,127,1
0,60,75,0
0,69,91,0
0,57,101,0
0,76,95,17
0,64,102,18
0,69,102,0
0,44,87,2
0,45,82,13
0,28,127,0
0,40,90,1
0,62,102,0
0,64,102,0
0,68,102,0
0,52,84,0
0,44,93,2
0,35,85,0
0,52,95,1
0,62,51,0
0,59,47,0
0,74,100,0
