track,note,velocity,time
1,42,61,2360
1,61,61,0
1,54,61,0
1,57,61,0
1,52,61,0
1,52,0,960
1,42,0,0
1,61,0,0
1,47,61,0
1,62,61,0
1,59,61,0
1,47,0,960
1,57,0,0
1,54,0,0
1,56,61,0
1,52,61,0
1,40,61,0
1,40,0,960
1,59,0,0
1,56,0,0
1,62,0,0
1,45,61,0
1,57,61,0
1,61,61,0
1,61,0,960
1,52,0,0
1,45,0,0
1,57,0,0
1,53,61,0
1,49,61,0
1,56,61,0
1,61,61,0
1,61,0,960
1,56,0,0
1,53,0,0
1,54,61,0
1,42,61,0
1,59,61,0
1,59,0,480
1,57,61,0
1,57,0,480
1,42,0,0
1,49,0,0
1,57,61,0
1,47,61,0
1,62,61,0
1,59,61,0
1,59,0,480
1,47,0,0
1,62,0,0
1,57,0,0
1,57,61,0
1,45,61,0
1,59,61,0
1,62,61,0
1,62,0,480
1,45,0,0
1,54,0,0
1,57,0,0
1,59,0,0
1,49,49,0
1,37,49,0
1,66,49,0
1,61,49,0
1,68,49,0
1,66,0,960
1,65,49,0
1,65,0,960
1,68,0,0
1,49,0,0
1,37,0,0
1,61,0,0
1,42,61,0
1,57,61,0
1,66,61,0
1,61,61,0
1,61,0,480
1,66,0,0
1,57,0,0
1,57,61,0
1,61,61,0
1,66,61,0
1,66,0,480
1,42,0,0
1,57,0,0
1,61,0,0
1,54,61,0
1,57,61,0
1,47,61,0
1,62,61,0
1,59,61,0
1,59,0,480
1,57,0,0
1,54,0,0
1,62,0,0
1,54,61,0
1,59,61,0
1,57,61,0
1,62,61,0
1,62,0,480
1,59,0,0
1,47,0,0
1,54,0,0
1,57,0,0
1,56,61,0
1,52,61,0
1,40,61,0
1,59,61,0
1,59,0,480
1,56,0,0
1,52,0,0
1,52,61,0
1,56,61,0
1,59,61,0
1,59,0,480
1,40,0,0
1,52,0,0
1,56,0,0
1,45,61,0
1,57,61,0
1,52,61,0
1,61,61,0
1,61,0,480
1,52,0,0
1,57,0,0
1,61,61,0
1,52,61,0
1,57,61,0
1,57,0,480
1,45,0,0
1,61,0,0
1,52,0,0
1,56,61,0
1,53,61,0
1,37,61,0
1,62,61,0
1,62,0,480
1,56,0,0
1,53,0,0
1,53,61,0
1,61,61,0
1,56,61,0
1,56,0,480
1,37,0,0
1,53,0,0
1,61,0,0
1,54,61,0
1,49,61,0
1,42,61,0
1,59,61,0
1,59,0,480
1,54,0,0
1,49,0,0
1,49,61,0
1,54,61,0
1,57,61,0
1,57,0,480
1,42,0,0
1,49,0,0
1,54,0,0
1,62,61,0
1,54,61,0
1,59,61,0
1,47,61,0
1,47,0,480
1,62,0,0
1,54,0,0
1,59,0,0
1,62,61,0
1,59,61,0
1,54,61,0
1,57,61,0
1,45,61,0
1,45,0,480
1,54,0,0
1,62,0,0
1,59,0,0
1,57,0,0
1,56,61,0
1,37,61,0
1,66,61,0
1,61,61,0
1,61,0,480
1,66,0,0
1,56,0,0
1,56,43,0
1,61,43,0
1,65,43,0
1,65,0,480
1,37,0,0
1,56,0,0
1,61,0,0
1,54,61,0
1,42,61,0
1,61,61,0
1,57,61,0
1,57,0,480
1,61,0,0
1,54,0,0
1,54,61,0
1,57,61,0
1,61,61,0
1,61,0,480
1,42,0,0
1,54,0,0
1,57,0,0
1,62,61,0
1,59,61,0
1,54,61,0
1,57,61,0
1,47,61,0
1,57,0,480
1,54,0,0
1,62,0,0
1,59,0,0
1,59,61,0
1,54,61,0
1,57,61,0
1,62,61,0
1,62,0,480
1,54,0,0
1,47,0,0
1,59,0,0
1,57,0,0
1,40,61,0
1,52,61,0
1,56,61,0
1,59,61,0
1,59,0,480
1,56,0,0
1,52,0,0
1,56,61,0
1,52,61,0
1,59,61,0
1,59,0,480
1,40,0,0
1,56,0,0
1,52,0,0
1,45,61,0
1,61,61,0
1,57,61,0
1,52,61,0
1,52,0,480
1,57,0,0
1,61,0,0
1,52,61,0
1,61,61,0
1,57,61,0
1,57,0,480
1,45,0,0
1,52,0,0
1,61,0,0
1,53,61,0
1,62,61,0
1,56,61,0
1,44,61,0
1,56,0,480
1,53,0,0
1,62,0,0
1,53,61,0
1,61,61,0
1,56,61,0
1,56,0,480
1,44,0,0
1,53,0,0
1,61,0,0
1,57,61,0
1,54,61,0
1,61,61,0
1,42,61,0
1,61,0,480
1,57,0,0
1,54,0,0
1,54,61,0
1,61,61,0
1,61,0,480
1,54,0,0
1,42,0,0
1,53,43,0
1,37,43,0
1,61,43,0
1,56,43,0
1,56,0,1920
1,53,0,0
1,37,0,0
1,61,0,0
1,57,57,53760
1,66,57,0
1,61,57,0
1,42,57,0
1,69,57,480
1,69,0,480
1,61,0,0
1,57,0,0
1,66,0,0
1,42,0,0
1,47,57,0
1,54,57,0
1,59,57,0
1,62,57,0
1,62,0,480
1,59,0,0
1,54,0,0
1,62,57,0
1,66,63,0
1,59,57,0
1,59,0,480
1,47,0,0
1,62,0,0
1,66,0,0
1,56,57,0
1,59,57,0
1,40,57,0
1,64,57,480
1,40,0,480
1,56,0,0
1,59,0,0
1,45,57,0
1,61,57,0
1,57,57,0
1,69,57,480
1,69,0,480
1,61,0,0
1,64,0,0
1,45,0,0
1,57,0,0
1,37,57,0
1,61,57,0
1,56,57,0
1,66,57,0
1,66,0,480
1,65,63,0
1,65,0,480
1,56,0,0
1,61,0,0
1,37,0,0
1,42,57,0
1,54,57,0
1,49,57,0
1,59,57,0
1,59,0,480
1,57,63,0
1,57,0,480
1,49,0,0
1,54,0,0
1,42,0,0
1,59,57,0
1,54,57,0
1,47,57,0
1,62,57,0
1,47,0,480
1,45,57,0
1,57,57,0
1,57,0,480
1,62,0,0
1,45,0,0
1,59,0,0
1,61,57,0
1,56,57,0
1,37,57,0
1,54,0,480
1,53,42,0
1,53,0,480
1,37,0,0
1,56,0,0
1,61,0,0
1,61,65,52800
1,66,65,0
1,58,65,0
1,58,0,240
1,66,0,0
1,61,0,0
1,61,45,0
1,66,45,0
1,58,45,0
1,58,0,720
1,66,0,0
1,61,0,0
1,58,65,0
1,61,65,0
1,65,65,0
1,65,0,240
1,61,0,0
1,58,0,0
1,58,45,0
1,61,45,0
1,65,45,0
1,65,0,720
1,61,0,0
1,58,0,0
1,59,65,0
1,66,65,0
1,63,65,0
1,63,0,240
1,66,0,0
1,59,0,0
1,66,45,0
1,63,45,0
1,59,45,0
1,59,0,720
1,63,0,0
1,66,0,0
1,59,65,0
1,61,65,0
1,66,65,0
1,66,0,480
1,61,0,0
1,59,0,0
1,59,65,0
1,65,65,0
1,61,65,0
1,61,0,480
1,65,0,0
1,59,0,0
1,58,65,0
1,66,65,0
1,61,65,0
1,61,0,240
1,66,0,0
1,58,0,0
1,61,45,0
1,66,45,0
1,58,45,0
1,58,0,720
1,66,0,0
1,61,0,0
1,58,65,0
1,61,65,0
1,65,65,0
1,65,0,240
1,61,0,0
1,58,0,0
1,61,45,0
1,65,45,0
1,58,45,0
1,58,0,720
1,65,0,0
1,61,0,0
1,63,65,0
1,59,65,0
1,66,65,0
1,66,0,240
1,59,0,0
1,63,0,0
1,63,45,0
1,59,45,0
1,66,45,0
1,66,0,720
1,59,0,0
1,63,0,0
1,59,65,0
1,66,65,0
1,61,65,0
1,61,0,480
1,66,0,0
1,59,0,0
1,59,65,0
1,65,65,0
1,61,65,0
1,61,0,480
1,65,0,0
1,59,0,0
1,63,65,0
1,59,65,0
1,66,65,0
1,66,0,960
1,59,0,0
1,63,0,0
1,56,65,0
1,61,65,0
1,66,65,0
1,66,0,960
1,61,0,0
1,56,0,0
1,65,65,0
1,58,65,0
1,61,65,0
1,61,0,960
1,58,0,0
1,65,0,0
1,66,65,0
1,63,65,0
1,58,65,0
1,58,0,960
1,63,0,0
1,66,0,0
1,56,65,0
1,63,65,0
1,60,65,0
1,66,65,0
1,66,0,960
1,56,0,0
1,63,0,0
1,60,0,0
1,63,54,0
1,60,54,0
1,56,54,0
1,66,54,0
1,66,0,960
1,63,0,0
1,60,0,0
1,56,0,0
1,59,65,0
1,56,65,0
1,66,65,0
1,63,65,0
1,63,0,960
1,59,0,0
1,56,0,0
1,66,0,0
1,61,54,0
1,56,54,0
1,66,54,0
1,66,0,2400
1,56,0,0
1,61,0,0
2,42,60,2550
2,42,0,240
2,45,60,0
2,45,0,240
2,49,60,0
2,49,0,240
2,50,60,0
2,50,0,960
2,40,60,240
2,40,0,240
2,44,60,0
2,44,0,240
2,47,60,0
2,47,0,240
2,49,60,0
2,49,0,960
2,37,60,240
2,37,0,240
2,41,60,0
2,41,0,240
2,44,60,0
2,44,0,240
2,47,60,0
2,45,60,480
2,47,0,17
2,45,0,463
2,47,60,0
2,45,60,480
2,47,0,5
2,45,0,475
2,37,60,0
2,37,0,1920
2,37,80,25560
2,37,0,925
2,30,80,35
2,30,0,808
2,30,68,32
2,30,0,56
2,30,80,64
2,30,0,83
2,30,80,157
2,42,100,720
2,30,0,13
2,42,0,738
2,42,88,89
2,42,0,50
2,42,100,70
2,42,0,56
2,42,88,184
2,42,0,372
2,42,88,108
2,42,0,50
2,42,88,70
2,42,0,87
2,35,100,33
2,35,0,522
2,35,88,78
2,35,0,53
2,35,88,67
2,35,0,50
2,37,100,190
2,37,0,77
2,37,88,163
2,37,0,283
2,37,88,77
2,37,0,50
2,37,88,70
2,37,0,50
2,42,100,190
2,42,0,750
2,42,88,90
2,42,0,50
2,42,100,70
2,42,0,62
2,42,88,178
2,42,0,483
2,42,88,117
2,42,0,85
2,35,100,35
2,35,0,535
2,35,88,65
2,35,0,57
2,35,88,63
2,35,0,68
2,37,100,172
2,37,0,76
2,37,88,164
2,37,0,303
2,37,88,57
2,37,0,50
2,37,88,70
2,37,0,50
2,35,100,190
2,35,0,701
2,42,88,19
2,42,0,180
2,46,38,0
2,47,86,60
2,46,0,30
2,46,80,930
2,47,0,7
2,41,88,713
2,46,0,5
2,41,0,226
2,39,100,9
2,39,0,616
2,39,88,104
2,39,0,110
2,34,88,10
2,34,0,116
2,32,100,4
2,32,0,745
2,32,88,95
2,32,0,51
2,32,100,69
2,32,0,81
2,32,88,159
2,32,0,300
2,32,88,60
2,32,0,353
2,32,100,7
2,32,0,660
2,35,88,60
2,35,0,93
2,36,88,27
2,36,0,82
2,37,100,38
2,30,100,960
2,37,0,6
2,30,0,745
2,42,88,89
2,42,0,50
2,42,100,70
2,42,0,56
2,42,88,184
2,42,0,372
2,42,88,108
2,42,0,50
2,42,88,70
2,42,0,87
2,35,100,33
2,35,0,522
2,35,88,78
2,35,0,53
2,35,88,67
2,35,0,50
2,37,100,190
2,37,0,77
2,37,88,163
2,37,0,283
2,37,88,77
2,37,0,50
2,37,88,70
2,37,0,50
2,42,100,190
2,42,0,750
2,42,88,90
2,42,0,50
2,42,100,70
2,42,0,62
2,42,88,178
2,42,0,483
2,42,88,117
2,42,0,85
2,35,100,35
2,35,0,535
2,35,88,65
2,35,0,57
2,35,88,63
2,35,0,68
2,37,100,172
2,37,0,76
2,37,88,164
2,37,0,303
2,37,88,57
2,37,0,50
2,37,88,70
2,37,0,50
2,35,100,190
2,35,0,701
2,42,88,19
2,42,0,180
2,46,38,0
2,47,86,60
2,46,0,30
2,46,80,930
2,47,0,7
2,41,88,713
2,46,0,5
2,41,0,226
2,39,100,9
2,39,0,616
2,39,88,104
2,39,0,110
2,34,88,10
2,34,0,116
2,32,100,4
2,32,0,745
2,32,88,95
2,32,0,51
2,32,100,69
2,32,0,81
2,32,88,159
2,32,0,300
2,32,88,60
2,32,0,353
2,32,100,7
2,32,0,660
2,35,88,60
2,35,0,93
2,36,88,27
2,36,0,82
2,37,100,38
2,30,90,960
2,37,0,6
2,30,0,954
2,35,90,0
2,28,90,960
2,35,0,13
2,33,90,947
2,28,0,6
2,33,0,714
2,35,82,0
2,35,0,120
2,37,82,0
2,38,90,120
2,37,0,11
2,38,0,949
2,31,90,0
2,31,0,720
2,33,76,0
2,33,0,120
2,35,76,0
2,37,90,120
2,35,0,1
2,37,0,1919
2,30,100,0
2,30,0,750
2,30,89,90
2,30,0,85
2,35,100,35
2,35,0,957
2,28,100,3
2,28,0,781
2,28,89,59
2,28,0,60
2,33,100,60
2,33,0,780
2,33,89,60
2,33,0,120
2,37,100,0
2,37,0,660
2,37,89,60
2,37,0,115
2,41,74,5
2,42,64,120
2,41,0,1
2,42,0,959
2,47,56,0
2,45,56,480
2,47,0,7
2,45,0,470
2,37,100,3
2,37,0,942
2,28,100,18
2,28,0,762
2,28,86,78
2,28,0,101
2,33,100,19
2,33,0,653
2,33,86,67
2,33,0,50
2,33,86,70
2,33,0,116
2,37,100,4
2,37,0,797
2,37,86,43
2,37,0,91
2,42,80,29
2,42,0,476
2,40,86,4
2,40,0,456
2,39,86,24
2,39,0,652
2,39,86,68
2,39,0,240
2,37,86,0
2,37,0,752
2,37,86,88
2,37,0,106
2,37,100,14
2,37,0,662
2,37,86,58
2,37,0,51
2,37,100,69
2,42,100,120
2,37,0,11
2,42,0,740
2,42,88,89
2,42,0,50
2,42,100,70
2,42,0,56
2,42,88,184
2,42,0,372
2,42,88,108
2,42,0,50
2,42,88,70
2,42,0,87
2,35,100,33
2,35,0,522
2,35,88,78
2,35,0,53
2,35,88,67
2,35,0,50
2,37,100,190
2,37,0,77
2,37,88,163
2,37,0,283
2,37,88,77
2,37,0,50
2,37,88,70
2,37,0,50
2,42,100,190
2,42,0,750
2,42,88,90
2,42,0,50
2,42,100,70
2,42,0,62
2,42,88,178
2,42,0,483
2,42,88,117
2,42,0,85
2,35,100,35
2,35,0,535
2,35,88,65
2,35,0,57
2,35,88,63
2,35,0,68
2,37,100,172
2,37,0,76
2,37,88,164
2,37,0,303
2,37,88,57
2,37,0,50
2,37,88,70
2,37,0,50
2,35,100,190
2,35,0,701
2,42,88,19
2,42,0,180
2,46,38,0
2,47,86,60
2,46,0,30
2,46,80,930
2,47,0,7
2,41,88,713
2,46,0,5
2,41,0,226
2,39,100,9
2,39,0,616
2,39,88,104
2,39,0,110
2,34,88,10
2,34,0,116
2,32,100,4
2,32,0,745
2,32,88,95
2,32,0,51
2,32,100,69
2,32,0,81
2,32,88,159
2,32,0,300
2,32,88,60
2,32,0,353
2,32,100,7
2,32,0,660
2,35,88,60
2,35,0,93
2,36,88,27
2,36,0,82
2,37,100,38
2,30,100,960
2,37,0,6
2,30,0,745
2,42,88,89
2,42,0,50
2,42,100,70
2,42,0,56
2,42,88,184
2,42,0,372
2,42,88,108
2,42,0,50
2,42,88,70
2,42,0,87
2,35,100,33
2,35,0,522
2,35,88,78
2,35,0,53
2,35,88,67
2,35,0,50
2,37,100,190
2,37,0,77
2,37,88,163
2,37,0,283
2,37,88,77
2,37,0,50
2,37,88,70
2,37,0,50
2,42,100,190
2,42,0,750
2,42,88,90
2,42,0,50
2,42,100,70
2,42,0,62
2,42,88,178
2,42,0,483
2,42,88,117
2,42,0,85
2,35,100,35
2,35,0,535
2,35,88,65
2,35,0,57
2,35,88,63
2,35,0,68
2,37,100,172
2,37,0,76
2,37,88,164
2,37,0,303
2,37,88,57
2,37,0,50
2,37,88,70
2,37,0,50
2,35,100,190
2,35,0,701
2,42,88,19
2,42,0,180
2,46,38,0
2,47,86,60
2,46,0,30
2,46,80,930
2,47,0,7
2,41,88,713
2,46,0,5
2,41,0,226
2,39,100,9
2,39,0,616
2,39,88,104
2,39,0,110
2,34,88,10
2,34,0,116
2,32,100,4
2,32,0,745
2,32,88,95
2,32,0,51
2,32,100,69
2,32,0,81
2,32,88,159
2,32,0,300
2,32,88,60
2,32,0,353
2,32,100,7
2,32,0,660
2,35,88,60
2,35,0,93
2,36,88,27
2,36,0,82
2,37,100,38
2,42,100,960
2,37,0,6
2,42,0,745
2,42,88,89
2,42,0,50
2,42,100,70
2,42,0,56
2,42,88,184
2,42,0,372
2,42,88,108
2,42,0,50
2,42,88,70
2,42,0,87
2,35,100,33
2,35,0,522
2,35,88,78
2,35,0,53
