track,note,velocity,time
1,67,50,840
1,72,41,40
1,72,0,40
1,74,41,0
1,74,0,40
1,67,0,0
1,75,72,0
1,75,0,120
1,66,47,0
1,66,0,120
1,72,50,0
1,72,0,120
1,75,50,0
1,75,0,120
1,74,71,0
1,74,0,120
1,65,45,0
1,65,0,120
1,71,50,0
1,71,0,120
1,74,50,0
1,74,0,120
1,72,71,0
1,72,0,120
1,69,46,0
1,69,0,120
1,66,50,0
1,66,0,120
1,63,50,0
1,63,0,120
1,67,50,360
1,72,41,40
1,72,0,40
1,74,41,0
1,74,0,40
1,67,0,0
1,75,72,0
1,75,0,120
1,66,47,0
1,66,0,120
1,72,50,0
1,72,0,120
1,75,50,0
1,75,0,120
1,74,71,0
1,74,0,120
1,65,45,0
1,65,0,120
1,71,50,0
1,71,0,120
1,74,50,0
1,74,0,120
1,72,71,0
1,72,0,120
1,69,46,0
1,69,0,120
1,66,50,0
1,66,0,120
1,63,50,0
1,63,0,120
1,63,50,360
1,67,41,40
1,67,0,40
1,68,41,0
1,68,0,40
1,63,0,0
1,70,71,0
1,70,0,120
1,61,42,0
1,61,0,120
1,67,47,0
1,67,0,120
1,70,40,0
1,70,0,120
1,68,66,0
1,68,0,120
1,60,40,0
1,60,0,120
1,65,46,0
1,65,0,120
1,68,42,0
1,68,0,120
1,67,66,0
1,67,0,120
1,64,40,0
1,64,0,120
1,61,45,0
1,61,0,120
1,58,40,0
1,58,0,120
1,58,50,360
1,61,41,40
1,61,0,40
1,64,41,0
1,64,0,40
1,58,0,0
1,65,67,0
1,65,0,120
1,56,42,0
1,56,0,120
1,60,47,0
1,60,0,120
1,65,40,0
1,65,0,120
1,62,66,0
1,62,0,120
1,53,40,0
1,53,0,120
1,59,46,0
1,59,0,120
1,62,42,0
1,62,0,120
1,60,66,0
1,60,0,96
1,55,40,0
1,55,0,96
1,51,45,0
1,51,0,96
1,48,40,0
1,48,0,96
1,43,40,0
1,43,0,96
1,67,50,360
1,72,41,40
1,72,0,40
1,74,41,0
1,74,0,40
1,67,0,0
1,75,72,0
1,75,0,120
1,66,47,0
1,66,0,120
1,72,50,0
1,72,0,120
1,75,50,0
1,75,0,120
1,74,71,0
1,74,0,120
1,65,45,0
1,65,0,120
1,71,50,0
1,71,0,120
1,74,50,0
1,74,0,120
1,72,71,0
1,72,0,120
1,69,46,0
1,69,0,120
1,66,50,0
1,66,0,120
1,63,50,0
1,63,0,120
1,67,50,360
1,72,41,40
1,72,0,40
1,74,41,0
1,74,0,40
1,67,0,0
1,75,72,0
1,75,0,120
1,66,47,0
1,66,0,120
1,72,50,0
1,72,0,120
1,75,50,0
1,75,0,120
1,74,71,0
1,74,0,120
1,65,45,0
1,65,0,120
1,71,50,0
1,71,0,120
1,74,50,0
1,74,0,120
1,72,71,0
1,72,0,120
1,69,46,0
1,69,0,120
1,66,50,0
1,66,0,120
1,63,50,0
1,63,0,120
1,63,50,360
1,67,41,40
1,67,0,40
1,68,41,0
1,68,0,40
1,63,0,0
1,70,71,0
1,70,0,120
1,61,42,0
1,61,0,120
1,67,47,0
1,67,0,120
1,70,40,0
1,70,0,120
1,68,66,0
1,68,0,120
1,60,40,0
1,60,0,120
1,65,46,0
1,65,0,120
1,68,42,0
1,68,0,120
1,67,66,0
1,67,0,120
1,64,40,0
1,64,0,120
1,61,45,0
1,61,0,120
1,58,40,0
1,58,0,120
1,58,50,360
1,61,41,40
1,61,0,40
1,64,41,0
1,64,0,40
1,58,0,0
1,65,67,0
1,65,0,120
1,56,42,0
1,56,0,120
1,60,47,0
1,60,0,120
1,65,40,0
1,65,0,120
1,62,66,0
1,62,0,120
1,53,40,0
1,53,0,120
1,59,46,0
1,59,0,120
1,62,42,0
1,62,0,120
1,60,66,0
1,60,0,96
1,55,40,0
1,55,0,96
1,51,45,0
1,51,0,96
1,48,40,0
1,48,0,96
1,43,40,0
1,43,0,96
1,62,59,240
1,62,0,120
1,63,43,0
1,63,0,120
1,62,67,0
1,58,41,120
1,58,0,120
1,57,46,0
1,57,0,120
1,55,39,0
1,55,0,120
1,62,0,240
1,62,57,0
1,67,57,0
1,62,0,120
1,63,46,0
1,67,0,60
1,63,0,60
1,62,70,0
1,66,70,0
1,62,0,120
1,60,44,0
1,60,0,120
1,58,45,0
1,58,0,120
1,57,45,0
1,57,0,120
1,66,0,240
1,62,62,0
1,63,45,120
1,62,0,60
1,63,0,60
1,62,72,0
1,58,41,120
1,58,0,120
1,57,46,0
1,57,0,120
1,55,39,0
1,55,0,120
1,62,0,240
1,62,53,0
1,67,53,0
1,62,0,120
1,63,46,0
1,67,0,60
1,63,0,60
1,62,69,0
1,66,69,0
1,62,0,120
1,60,44,0
1,60,0,120
1,58,45,0
1,58,0,120
1,57,45,0
1,57,0,120
1,66,0,240
1,62,57,0
1,63,45,120
1,63,0,120
1,62,0,0
1,62,68,0
1,58,41,120
1,58,0,120
1,57,46,0
1,57,0,120
1,55,39,0
1,55,0,120
1,62,0,0
1,70,69,0
1,70,0,240
1,63,53,0
1,65,46,120
1,65,0,120
1,63,0,0
1,63,70,0
1,58,41,120
1,58,0,120
1,57,46,0
1,57,0,120
1,55,39,0
1,55,0,120
1,63,0,0
1,75,76,0
1,75,0,240
1,63,53,0
1,65,46,120
1,65,0,120
1,63,0,0
1,63,70,0
1,57,41,120
1,57,0,120
1,55,46,0
1,55,0,120
1,53,39,0
1,53,0,120
1,63,0,0
1,69,73,0
1,69,0,240
1,62,53,0
1,63,46,120
1,63,0,120
1,62,0,0
1,62,70,0
1,57,41,120
1,57,0,120
1,55,46,0
1,55,0,120
1,53,39,0
1,53,0,120
1,62,0,0
1,74,76,0
1,74,0,240
1,62,53,0
1,63,46,120
1,63,0,120
1,62,0,0
1,62,70,0
1,55,41,120
1,55,0,120
1,53,46,0
1,53,0,120
1,51,39,0
1,51,0,120
1,62,0,0
1,67,73,0
1,67,0,240
1,60,53,0
1,62,46,120
1,62,0,120
1,60,0,0
1,60,70,0
1,55,41,120
1,55,0,120
1,53,46,0
1,53,0,120
1,51,39,0
1,51,0,120
1,60,0,0
1,72,76,0
1,72,0,240
1,60,53,0
1,62,46,120
1,62,0,120
1,60,0,0
1,60,70,0
1,54,41,120
1,54,0,120
1,52,46,0
1,52,0,120
1,50,39,0
1,50,0,120
1,60,0,0
1,66,73,0
1,66,0,240
1,72,53,0
1,74,46,120
1,74,0,120
1,72,0,0
1,72,70,0
1,66,41,120
1,66,0,120
1,64,46,0
1,64,0,120
1,62,39,0
1,62,0,120
1,72,0,0
1,78,73,0
1,78,0,240
1,74,64,0
1,75,47,120
1,74,0,60
1,75,0,60
1,74,73,0
1,70,45,120
1,70,0,120
1,69,50,0
1,69,0,120
1,67,42,0
1,67,0,120
1,74,0,240
1,74,62,0
1,79,62,0
1,74,0,120
1,75,50,0
1,79,0,60
1,75,0,60
1,74,77,0
1,78,77,0
1,74,0,120
1,72,48,0
1,72,0,120
1,70,49,0
1,70,0,120
1,69,49,0
1,69,0,120
1,78,0,240
1,74,68,0
1,75,49,120
1,74,0,60
1,75,0,60
1,74,79,0
1,70,45,120
1,70,0,120
1,69,50,0
1,69,0,120
1,67,42,0
1,67,0,120
1,74,0,240
1,74,58,0
1,79,58,0
1,74,0,120
1,75,50,0
1,79,0,60
1,75,0,60
1,74,75,0
1,78,75,0
1,74,0,120
1,72,48,0
1,72,0,120
1,70,49,0
1,70,0,120
1,69,49,0
1,69,0,120
1,78,0,240
1,74,62,0
1,75,49,120
1,75,0,120
1,74,0,0
1,74,74,0
1,70,45,120
1,70,0,120
1,69,50,0
1,69,0,120
1,67,42,0
1,67,0,120
1,74,0,0
1,82,75,0
1,82,0,240
1,75,58,0
1,77,50,120
1,77,0,120
1,75,0,0
1,75,77,0
1,70,45,120
1,70,0,120
1,69,50,0
1,69,0,120
1,67,42,0
1,67,0,120
1,75,0,0
1,87,83,0
1,87,0,240
1,75,58,0
1,77,50,120
1,77,0,120
1,75,0,0
1,75,77,0
1,69,45,120
1,69,0,120
1,67,50,0
1,67,0,120
1,65,42,0
1,65,0,120
1,75,0,0
1,81,65,0
1,81,0,240
1,74,58,0
1,75,50,120
1,75,0,120
1,74,0,0
1,74,77,0
1,69,45,120
1,69,0,120
1,67,50,0
1,67,0,120
1,65,42,0
1,65,0,120
1,74,0,0
1,86,80,0
1,86,0,240
1,74,58,0
1,75,50,120
1,75,0,120
1,74,0,0
1,74,77,0
1,67,45,120
1,67,0,120
1,65,50,0
1,65,0,120
1,63,42,0
1,63,0,120
1,74,0,0
1,79,69,0
1,79,0,240
1,72,58,0
1,74,50,120
1,74,0,120
1,72,0,0
1,72,77,0
1,67,45,120
1,67,0,120
1,65,50,0
1,65,0,120
1,63,42,0
1,63,0,120
1,72,0,0
1,84,83,0
1,84,0,240
1,72,53,0
1,74,46,120
1,74,0,120
1,72,0,0
1,72,70,0
1,66,41,120
1,66,0,120
1,64,46,0
1,64,0,120
1,62,39,0
1,62,0,120
1,72,0,0
1,78,68,0
1,78,0,240
1,72,53,0
1,74,46,120
1,74,0,120
1,72,0,0
1,72,70,0
1,66,41,120
1,66,0,120
1,64,46,0
1,64,0,120
1,62,39,0
1,62,0,120
1,72,0,0
1,84,73,0
1,84,0,240
1,74,62,120
1,79,53,40
1,79,0,40
1,81,56,0
1,81,0,40
1,74,0,0
1,82,79,0
1,82,0,120
1,73,51,0
1,73,0,120
1,79,55,0
1,79,0,120
1,82,55,0
1,82,0,120
1,81,78,0
1,81,0,120
1,72,49,0
1,72,0,120
1,78,55,0
1,78,0,120
1,81,55,0
1,81,0,120
1,79,78,0
1,79,0,120
1,76,61,0
1,76,0,120
1,73,65,0
1,73,0,120
1,70,69,0
1,70,0,120
1,74,64,360
1,79,56,40
1,79,0,40
1,81,58,0
1,81,0,40
1,74,0,0
1,82,79,0
1,82,0,120
1,73,51,0
1,73,0,120
1,79,55,0
1,79,0,120
1,82,55,0
1,82,0,120
1,81,78,0
1,81,0,120
1,72,49,0
1,72,0,120
1,78,55,0
1,78,0,120
1,81,55,0
1,81,0,120
1,79,78,0
1,79,0,120
1,76,58,0
1,76,0,120
1,73,62,0
1,73,0,120
1,70,65,0
1,70,0,120
1,70,63,360
1,74,51,40
1,74,0,40
1,75,57,0
1,75,0,40
1,70,0,0
1,77,78,0
1,77,0,120
1,68,46,0
1,68,0,120
1,74,51,0
1,74,0,120
1,77,44,0
1,77,0,120
1,75,72,0
1,75,0,120
1,67,44,0
1,67,0,120
1,72,50,0
1,72,0,120
1,75,46,0
1,75,0,120
1,74,72,0
1,74,0,120
1,71,44,0
1,71,0,120
1,68,49,0
1,68,0,120
1,65,44,0
1,65,0,120
1,65,63,288
1,68,45,64
1,68,0,64
1,71,56,0
1,71,0,64
1,65,0,0
1,72,73,0
1,72,0,120
1,63,46,0
1,63,0,120
1,67,51,0
1,67,0,120
1,72,44,0
1,72,0,120
1,69,72,0
1,69,0,120
1,60,44,0
1,60,0,120
1,66,50,0
1,66,0,120
1,69,46,0
1,69,0,120
1,67,72,0
1,67,0,96
1,62,52,0
1,62,0,96
1,58,55,0
1,58,0,96
1,55,58,0
1,55,0,96
1,50,61,0
1,50,0,96
1,60,54,4080
1,60,0,120
1,59,41,0
1,59,0,120
1,60,61,0
1,62,45,120
1,60,0,24
1,62,0,96
1,60,52,0
1,62,44,120
1,60,0,24
1,62,0,96
1,58,54,0
1,60,45,120
1,58,0,24
1,60,0,96
1,57,50,0
1,58,43,120
1,57,0,24
1,58,0,96
1,55,54,0
1,55,0,120
1,57,45,0
1,57,0,120
1,58,45,0
1,58,0,120
1,62,51,0
1,62,0,120
1,67,50,0
1,67,0,120
1,69,54,0
1,69,0,120
1,70,58,0
1,70,0,120
1,66,50,0
1,66,0,120
1,67,60,0
1,66,45,120
1,67,0,24
1,66,0,96
1,67,53,0
1,62,45,120
1,67,0,24
1,62,0,96
1,63,54,0
1,62,43,120
1,63,0,24
1,62,0,96
1,63,48,0
1,59,42,120
1,63,0,24
1,59,0,96
1,60,52,0
1,59,45,120
1,60,0,24
1,59,0,96
1,60,48,0
1,55,43,120
1,60,0,24
1,55,0,96
1,59,51,0
1,55,50,120
1,59,0,24
1,55,0,96
1,67,66,0
1,66,50,120
1,67,0,24
1,66,0,96
1,67,74,0
1,68,55,120
1,67,0,24
1,68,0,96
1,65,63,0
1,67,53,120
1,65,0,24
1,67,0,96
1,63,66,0
1,65,55,120
1,63,0,24
1,65,0,96
1,62,61,0
1,63,52,120
1,62,0,24
1,63,0,96
1,60,66,0
1,60,0,120
1,62,56,0
1,62,0,120
1,63,56,0
1,63,0,120
1,67,62,0
1,67,0,120
1,72,61,0
1,72,0,120
1,74,66,0
1,74,0,120
1,75,71,0
1,75,0,120
1,66,61,0
1,66,0,120
1,74,73,0
1,74,0,120
1,67,56,0
1,67,0,120
1,70,64,0
1,70,0,120
1,74,56,0
1,74,0,120
1,72,66,0
1,72,0,120
1,63,52,0
1,63,0,120
1,69,59,0
1,69,0,120
1,72,51,0
1,72,0,120
1,66,63,0
1,66,0,120
1,60,55,0
1,60,0,120
1,62,59,0
1,62,0,120
1,66,52,0
1,66,0,120
1,59,59,0
1,67,70,0
1,67,0,240
1,59,0,0
1,60,54,3840
1,60,0,120
1,59,41,0
1,59,0,120
1,60,61,0
1,62,45,120
1,60,0,24
1,62,0,96
1,60,52,0
1,62,44,120
1,60,0,24
1,62,0,96
1,58,54,0
1,60,45,120
1,58,0,24
1,60,0,96
1,57,50,0
1,58,43,120
1,57,0,24
1,58,0,96
1,55,54,0
1,55,0,120
1,57,45,0
1,57,0,120
1,58,45,0
1,58,0,120
1,62,51,0
1,62,0,120
1,67,50,0
1,67,0,120
1,69,54,0
1,69,0,120
1,70,58,0
1,70,0,120
1,66,50,0
1,66,0,120
1,67,60,0
1,66,45,120
1,67,0,24
1,66,0,96
1,67,53,0
1,62,45,120
1,67,0,24
1,62,0,96
1,63,54,0
1,62,43,120
1,63,0,24
1,62,0,96
1,63,48,0
1,59,42,120
1,63,0,24
1,59,0,96
1,60,52,0
1,59,45,120
1,60,0,24
1,59,0,96
1,60,48,0
1,55,43,120
1,60,0,24
1,55,0,96
1,59,51,0
1,55,50,120
1,59,0,24
1,55,0,96
1,67,66,0
1,66,50,120
1,67,0,24
1,66,0,96
1,67,74,0
1,68,55,120
1,67,0,24
1,68,0,96
1,65,63,0
1,67,53,120
1,65,0,24
1,67,0,96
1,63,66,0
1,65,55,120
1,63,0,24
1,65,0,96
1,62,61,0
1,63,52,120
1,62,0,24
1,63,0,96
1,60,66,0
1,60,0,120
1,62,56,0
1,62,0,120
1,63,56,0
1,63,0,120
1,67,62,0
1,67,0,120
1,72,61,0
1,72,0,120
1,74,66,0
1,74,0,120
1,75,71,0
1,75,0,120
1,66,61,0
1,66,0,120
1,74,73,0
1,74,0,120
1,67,56,0
1,67,0,120
1,70,64,0
1,70,0,120
1,74,56,0
1,74,0,120
1,72,66,0
1,72,0,120
1,63,52,0
1,63,0,120
1,69,59,0
1,69,0,120
1,72,51,0
1,72,0,120
1,66,63,0
1,66,0,120
1,60,55,0
1,60,0,120
1,62,59,0
1,62,0,120
1,66,52,0
1,66,0,120
1,59,59,0
1,67,70,0
1,67,0,240
1,59,0,0
1,72,54,0
1,72,0,120
1,71,41,0
1,71,0,120
1,72,61,0
1,72,0,120
1,73,45,0
1,73,0,120
1,70,52,0
1,70,0,120
1,72,44,0
1,72,0,120
1,68,54,0
1,68,0,120
1,70,45,0
1,70,0,120
1,67,50,0
1,67,0,120
1,68,43,0
1,68,0,120
1,65,54,0
1,65,0,120
1,67,45,0
1,67,0,120
1,68,45,0
1,68,0,120
1,72,51,0
1,72,0,120
1,77,50,0
1,77,0,120
1,79,54,0
1,79,0,120
1,80,58,0
1,80,0,120
1,75,50,0
1,75,0,120
1,74,60,0
1,74,0,120
1,75,45,0
1,75,0,120
1,72,53,0
1,72,0,120
