track,note,velocity,time
0,41,95,1
0,57,99,1
0,60,103,0
0,65,103,0
0,41,83,161
0,57,103,0
0,60,103,0
0,65,103,0
0,60,30,8
0,48,30,59
0,41,79,102
0,59,95,0
0,62,107,0
0,67,103,0
0,41,79,165
0,59,91,0
0,62,107,0
0,67,99,0
0,40,91,168
0,59,103,0
0,62,111,0
0,67,107,0
0,59,99,25
0,64,107,0
0,68,75,0
0,62,99,50
0,45,91,9
0,57,95,0
0,60,103,0
0,64,99,0
0,45,83,88
0,57,95,0
0,60,103,0
0,64,103,0
0,43,95,68
0,55,99,0
0,59,103,0
0,62,103,0
0,48,30,6
0,41,91,1
0,57,103,0
0,60,107,0
0,64,107,0
0,41,95,18
0,57,91,0
0,60,103,0
0,64,103,0
0,60,30,11
0,43,91,10
0,53,91,0
0,57,111,0
0,60,107,0
0,43,87,4
0,55,99,0
0,59,107,0
0,48,30,1
0,60,99,6
0,41,87,2
0,53,71,0
0,57,99,0
0,60,95,0
0,60,69,8
0,60,95,4
0,41,75,26
0,53,71,0
0,57,95,0
0,60,91,0
0,41,71,48
0,55,75,0
0,59,91,0
0,62,103,0
0,62,103,2
0,60,87,6
0,41,59,14
0,55,71,0
0,59,87,0
0,62,99,0
0,62,95,4
0,69,95,1
0,69,99,5
0,40,40,4
0,40,59,0
0,55,71,0
0,59,75,0
0,62,91,0
0,40,20,11
0,40,20,1
0,40,20,8
0,40,40,7
0,40,75,0
0,55,84,0
0,59,79,0
0,62,92,0
0,60,30,3
0,67,91,7
0,48,30,1
0,40,20,5
0,64,100,0
0,40,20,1
0,65,71,7
0,40,20,20
0,40,40,2
0,45,91,0
0,52,83,0
0,57,99,0
0,60,91,0
0,64,67,5
0,40,20,2
0,40,20,3
0,40,20,6
0,40,40,20
0,45,87,0
0,52,83,0
0,57,95,0
0,60,103,0
0,40,20,5
0,40,20,6
0,40,20,8
0,43,83,0
0,59,107,0
0,60,79,11
0,40,20,5
0,40,20,16
0,60,95,0
0,40,40,4
0,41,75,0
0,53,79,0
0,57,103,0
0,60,95,0
0,60,75,2
0,40,20,5
0,40,20,6
0,60,83,0
0,40,20,7
0,40,40,13
0,41,83,0
0,53,79,0
0,57,103,0
0,60,91,0
0,64,83,3
0,62,91,2
0,40,20,2
0,40,20,1
0,40,20,3
0,40,40,3
0,41,95,0
0,55,91,0
0,59,99,0
0,62,87,0
0,40,20,11
0,40,20,19
0,40,20,6
0,40,40,11
0,41,95,0
0,55,87,0
0,59,95,0
0,62,91,0
0,40,20,9
0,62,83,8
0,40,20,16
0,40,20,11
0,62,93,5
0,40,20,17
0,69,100,2
0,40,20,2
0,48,30,2
0,40,40,1
0,40,87,0
0,59,95,0
0,64,99,0
0,67,107,0
0,69,98,4
0,40,20,3
0,40,20,7
0,40,20,16
0,40,40,9
0,40,43,0
0,59,83,0
0,64,91,0
0,67,95,0
0,60,30,12
0,67,82,1
0,40,20,8
0,40,20,5
0,40,20,12
0,40,40,4
0,40,71,0
0,59,71,0
0,64,83,0
0,67,87,0
0,40,20,17
0,40,20,3
0,40,20,18
0,40,40,20
0,40,51,0
0,59,87,0
0,64,99,0
0,67,103,0
0,40,20,5
0,40,20,8
0,40,20,14
0,40,20,17
0,40,20,5
0,48,30,0
0,40,40,2
0,41,87,0
0,53,83,0
0,57,111,0
0,60,99,0
0,72,111,1
0,40,20,4
0,40,20,19
0,40,20,10
0,40,40,19
0,41,79,0
0,53,71,0
0,57,99,0
0,60,99,0
0,71,107,0
0,40,20,15
0,40,20,1
0,69,95,8
0,40,20,14
0,67,99,5
0,40,40,7
0,41,87,0
0,55,91,0
0,59,95,0
0,62,103,0
0,65,99,3
0,40,20,6
0,40,20,2
0,40,20,6
0,40,40,20
0,41,83,0
0,55,91,0
0,59,103,0
0,62,103,0
0,40,20,1
0,65,95,10
0,40,20,18
0,40,20,12
0,67,95,3
0,40,20,17
0,69,103,6
0,40,20,10
0,40,40,10
0,40,91,0
0,55,95,0
0,59,103,0
0,62,99,0
0,67,99,9
0,67,99,6
0,40,20,2
0,40,20,2
0,67,99,4
0,40,20,17
0,64,91,6
0,40,40,2
0,40,87,0
0,59,103,0
0,64,103,0
0,68,91,0
0,40,20,4
0,62,99,0
0,40,20,4
0,62,99,2
0,40,20,14
0,60,75,4
0,40,40,1
0,45,87,0
0,57,99,0
0,60,99,0
0,64,103,0
0,40,20,55
0,40,20,2
0,40,20,18
0,40,40,20
0,40,20,18
0,40,20,8
0,40,20,16
0,43,95,0
0,59,103,0
0,40,20,17
0,60,95,3
0,40,20,16
0,60,97,1
0,40,40,1
0,41,95,0
0,53,83,0
0,57,103,0
0,60,99,0
0,60,81,14
0,40,20,10
0,60,93,1
0,40,20,5
0,40,20,16
0,40,40,7
0,41,87,0
0,57,79,0
0,60,95,0
0,64,99,0
0,40,20,1
0,64,99,4
0,40,20,4
0,40,20,2
0,62,75,2
0,40,40,3
0,43,71,0
0,53,87,0
0,57,99,0
0,60,95,0
0,40,20,4
0,60,79,3
0,40,20,6
0,40,20,10
0,59,59,4
0,40,40,11
0,43,79,0
0,55,87,0
0,59,91,0
0,40,20,3
0,40,20,3
0,40,20,5
0,40,20,18
0,62,91,12
0,40,20,6
0,40,40,16
0,41,91,0
0,53,87,0
0,57,107,0
0,60,99,0
0,62,91,2
0,40,20,2
0,40,20,19
0,40,20,9
0,40,40,7
0,40,79,0
0,52,95,0
0,55,99,0
0,60,71,0
0,40,20,12
0,38,87,0
0,50,95,0
0,53,95,0
0,60,75,0
0,40,20,7
0,40,20,8
0,60,75,2
0,36,120,2
0,36,75,0
0,48,95,0
0,52,95,0
0,60,84,0
0,36,120,6
0,60,108,0
0,36,120,22
0,36,120,7
0,36,120,152
0,42,100,0
0,54,90,0
0,31,120,1
0,43,88,0
0,70,90,0
0,55,84,1
0,57,88,0
0,62,88,0
0,69,125,0
0,31,120,13
0,42,84,0
0,54,70,0
0,70,90,0
0,62,125,1
0,46,104,15
0,54,70,0
0,70,90,0
0,31,120,16
0,54,70,0
0,70,90,0
0,64,125,1
0,69,95,0
0,36,120,17
0,42,104,0
0,54,90,0
0,70,90,0
0,62,95,1
0,42,64,12
0,54,70,0
0,70,90,0
0,62,125,1
0,46,100,12
0,54,70,0
0,70,90,0
0,31,120,1
0,64,95,0
0,69,125,0
0,31,120,14
0,54,70,0
0,70,90,0
0,36,120,17
0,42,88,0
0,54,90,0
0,31,120,1
0,62,125,0
0,70,90,0
0,62,95,1
0,31,120,11
0,42,88,0
0,54,70,0
0,70,90,0
0,64,125,1
0,69,95,0
0,46,104,17
0,54,70,0
0,70,90,0
0,54,70,14
0,70,90,0
0,31,120,1
0,62,95,0
0,62,125,0
0,36,120,17
0,42,92,0
0,54,90,0
0,70,90,0
0,31,120,1
0,69,125,0
0,64,95,1
0,42,92,8
0,54,70,0
0,70,90,0
0,62,125,1
0,46,108,17
0,54,70,0
0,70,90,0
0,31,120,1
0,74,125,0
0,62,95,1
0,31,120,16
0,54,70,0
0,70,90,0
0,62,125,1
0,69,95,0
0,36,120,3
0,42,100,0
0,54,90,0
0,70,90,0
0,33,120,1
0,45,84,0
0,64,84,0
0,62,95,1
0,69,125,0
0,33,120,13
0,42,84,0
0,54,70,0
0,70,90,0
0,62,125,1
0,74,95,0
0,46,104,15
0,54,70,0
0,62,95,0
0,70,90,0
0,33,120,16
0,54,70,0
0,70,90,0
0,64,125,1
0,69,95,0
0,36,120,17
0,42,104,0
0,54,90,0
0,70,90,0
0,62,95,1
0,42,64,12
0,54,70,0
0,70,90,0
0,62,125,1
0,46,100,12
0,54,70,0
0,70,90,0
0,33,120,1
0,69,125,0
0,64,95,1
0,33,120,14
0,54,70,0
0,70,90,0
0,36,120,17
0,42,88,0
0,54,90,0
0,70,90,0
0,33,120,1
0,62,125,0
0,62,95,1
0,33,120,11
0,42,88,0
0,54,70,0
0,70,90,0
0,64,125,1
0,69,95,0
0,46,104,17
0,54,70,0
0,70,90,0
0,33,120,14
0,54,70,0
0,70,90,0
0,62,95,1
0,62,125,0
0,36,120,17
0,42,92,0
0,54,90,0
0,70,90,0
0,33,120,1
0,69,125,0
0,64,95,1
0,42,92,8
0,54,70,0
0,70,90,0
0,62,125,1
0,46,108,17
0,54,70,0
0,70,90,0
0,33,120,1
0,74,125,0
0,62,95,1
0,33,120,16
0,54,70,0
0,70,90,0
0,62,125,1
0,69,95,0
0,36,120,5
0,42,100,0
0,54,90,0
0,70,90,0
0,38,120,1
0,50,88,0
0,62,95,1
0,69,125,0
0,38,120,14
0,42,84,0
0,54,70,0
0,70,90,0
0,62,125,1
0,74,95,0
0,46,104,15
0,54,70,0
0,62,95,0
0,70,90,0
0,38,120,16
0,54,70,0
0,70,90,0
0,64,125,1
0,69,95,0
0,36,120,17
0,42,104,0
0,54,90,0
0,70,90,0
0,62,95,1
0,42,64,11
0,54,70,0
0,70,90,0
0,62,125,1
0,46,100,12
0,54,70,0
0,70,90,0
0,38,120,1
0,69,125,0
0,64,95,1
0,38,120,14
0,54,70,0
0,70,90,0
0,36,120,17
0,42,88,0
0,54,90,0
0,70,90,0
0,38,120,1
0,62,125,0
0,62,95,1
0,38,120,11
0,42,88,0
0,54,70,0
0,70,90,0
0,64,125,1
0,69,95,0
0,46,104,17
0,54,70,0
0,70,90,0
0,54,70,14
0,70,90,0
0,38,120,1
0,62,95,0
0,62,125,0
0,36,120,17
0,42,92,0
0,54,90,0
0,70,90,0
0,38,120,1
0,69,125,0
0,64,95,1
0,42,92,8
0,54,70,0
0,70,90,0
0,62,125,1
0,46,108,17
0,54,70,0
0,70,90,0
0,38,120,1
0,74,125,0
0,62,95,1
0,38,120,16
0,54,70,0
0,70,90,0
0,62,125,1
0,69,95,0
0,36,120,3
0,42,100,0
0,54,90,0
0,35,120,1
0,70,90,0
0,47,92,1
0,62,95,0
0,69,125,0
0,42,84,13
0,54,70,0
0,70,90,0
0,35,120,1
0,62,125,0
0,74,95,0
0,46,104,15
0,54,70,0
0,70,90,0
0,62,95,1
0,35,120,16
0,54,70,0
0,70,90,0
0,64,125,1
0,69,95,0
0,36,120,17
0,42,104,0
0,54,90,0
0,70,90,0
0,62,95,1
0,42,64,11
0,54,70,0
0,70,90,0
0,62,125,1
0,35,120,12
0,46,100,0
0,54,70,0
0,70,90,0
0,64,95,1
0,69,125,0
0,35,120,14
0,54,70,0
0,70,90,0
0,36,120,17
0,42,88,0
0,54,90,0
0,70,90,0
0,35,120,1
0,62,125,0
0,62,95,1
0,35,120,11
0,42,88,0
0,54,70,0
0,70,90,0
0,64,125,1
0,69,95,0
0,46,104,17
0,54,70,0
0,70,90,0
0,35,120,14
0,54,70,0
0,70,90,0
0,62,95,1
0,62,125,0
0,36,120,17
0,42,92,0
0,54,90,0
0,70,90,0
0,35,120,1
0,69,125,0
0,64,95,1
0,42,92,8
0,54,70,0
0,70,90,0
0,62,125,1
0,35,120,17
0,46,108,0
0,54,70,0
0,70,90,0
0,62,95,1
0,74,125,0
0,35,120,16
0,54,70,0
0,70,90,0
0,62,125,1
0,69,95,0
0,36,120,4
0,42,100,0
0,54,90,0
0,70,90,0
0,31,120,1
0,43,88,0
0,55,88,1
0,62,95,0
0,69,125,0
0,31,120,13
0,42,84,0
0,54,70,0
0,70,90,0
0,62,125,1
0,74,95,0
0,46,104,15
0,54,70,0
0,70,90,0
0,62,95,1
0,31,120,15
0,54,70,0
0,70,90,0
0,64,125,1
0,69,95,0
0,36,120,17
0,42,104,0
0,54,90,0
0,70,90,0
0,62,95,1
0,42,64,11
0,54,70,0
0,70,90,0
0,62,125,1
0,31,120,12
0,46,100,0
0,54,70,0
0,70,90,0
0,64,95,1
0,69,125,0
0,31,120,14
0,54,70,0
0,70,90,0
0,36,120,4
0,42,88,0
0,54,90,0
0,70,90,0
0,31,120,1
0,62,125,0
0,62,95,1
0,42,88,11
0,54,70,0
0,70,90,0
0,31,120,1
0,64,125,0
0,69,95,0
0,46,104,17
0,54,70,0
0,70,90,0
0,31,120,14
0,54,70,0
0,70,90,0
0,62,95,1
0,62,125,0
0,36,120,17
0,42,92,0
0,54,90,0
0,70,90,0
0,31,120,1
0,69,125,0
0,64,95,1
0,42,92,8
0,54,70,0
0,70,90,0
0,62,125,1
0,46,108,17
0,54,70,0
0,70,90,0
0,31,120,1
0,74,125,0
0,62,95,1
0,31,120,16
0,54,70,0
0,70,90,0
0,62,125,1
0,69,95,0
0,36,120,17
0,42,100,0
0,54,90,0
0,70,90,0
0,33,120,1
0,45,84,0
0,62,95,1
0,64,80,0
0,69,125,0
0,42,84,13
0,54,70,0
0,70,90,0
0,33,120,1
0,62,125,0
0,74,95,1
0,46,104,15
0,54,70,0
0,70,90,0
0,62,95,1
0,54,70,16
0,70,90,0
0,33,120,1
0,64,125,0
0,69,95,0
0,36,120,17
0,42,104,0
0,54,90,0
0,70,90,0
0,62,95,1
0,42,64,11
0,54,70,0
0,70,90,0
0,62,125,1
0,33,120,12
0,46,100,0
0,54,70,0
0,70,90,0
0,64,95,1
0,69,125,0
0,33,120,14
0,54,70,0
0,70,90,0
0,36,120,17
0,42,88,0
0,54,90,0
0,70,90,0
0,33,120,1
0,62,125,0
0,62,95,1
0,42,88,11
0,54,70,0
0,70,90,0
0,33,120,1
0,64,125,0
0,69,95,0
0,46,104,17
0,54,70,0
0,70,90,0
0,33,120,14
0,54,70,0
0,70,90,0
0,62,95,1
0,62,125,0
0,36,120,17
0,42,92,0
0,54,90,0
0,33,120,1
0,69,125,0
0,70,90,0
0,64,95,1
0,42,92,8
0,54,70,0
0,62,125,0
0,70,90,0
0,33,120,17
0,46,108,0
0,54,70,0
0,70,90,0
0,62,95,1
0,74,125,0
0,33,120,16
0,54,70,0
0,70,90,0
0,62,125,1
0,69,95,0
0,36,120,3
0,42,100,0
0,54,90,0
0,70,90,0
0,38,120,1
0,50,84,0
0,62,95,1
0,69,125,0
0,42,84,13
0,54,70,0
0,70,90,0
0,38,120,1
0,62,125,0
0,74,95,0
0,46,104,16
0,54,70,0
0,70,90,0
0,62,95,1
0,38,120,16
0,54,70,0
0,70,90,0
0,64,125,1
0,69,95,0
0,36,120,17
0,42,104,0
0,54,90,0
0,70,90,0
0,62,95,1
0,42,64,11
0,54,70,0
0,62,125,0
0,70,90,0
0,38,120,12
0,46,100,0
0,54,70,0
0,70,90,0
0,64,95,1
0,69,125,0
0,38,120,14
0,54,70,0
0,70,90,0
0,36,120,17
0,42,88,0
0,54,90,0
0,70,90,0
0,38,120,1
0,62,125,0
0,62,95,1
0,42,88,11
0,54,70,0
0,70,90,0
0,38,120,1
0,64,125,0
0,69,95,0
0,46,104,17
0,54,70,0
0,70,90,0
0,38,120,14
0,54,70,0
0,70,90,0
0,62,95,1
0,62,125,0
0,36,120,17
0,42,92,0
0,54,90,0
0,70,90,0
0,38,120,1
0,69,125,0
0,64,95,1
0,42,92,8
0,54,70,0
0,62,125,0
0,70,90,0
0,38,120,17
0,46,108,0
0,54,70,0
0,70,90,0
0,62,95,1
0,74,125,0
0,38,120,16
0,54,70,0
0,70,90,0
0,62,125,1
0,69,95,0
0,36,120,17
0,42,100,0
0,54,90,0
0,70,90,0
0,38,120,1
0,69,125,0
0,62,95,1
0,42,84,13
0,54,70,0
0,70,90,0
0,38,120,1
0,62,125,0
0,74,95,1
0,40,120,16
0,46,104,0
0,54,70,0
0,70,90,0
0,62,95,1
0,38,120,12
0,54,70,0
0,70,90,0
0,64,125,1
0,69,95,0
0,36,120,17
0,42,104,0
0,54,90,0
0,70,90,0
0,60,108,1
0,62,95,0
0,40,120,11
0,42,64,0
0,54,70,0
0,70,90,0
0,62,125,1
0,38,120,13
0,46,100,0
0,54,70,0
0,70,90,0
0,64,95,1
0,69,125,0
0,38,120,14
0,54,70,0
0,70,90,0
0,36,120,17
0,40,120,0
0,42,88,0
0,54,90,0
0,38,120,1
0,70,90,0
0,62,95,1
0,62,125,0
