track,note,velocity,time
4,31,94,9402
4,31,0,724
4,30,94,44
4,30,0,287
4,30,94,1
4,30,0,74
4,35,94,22
4,35,0,260
4,35,94,28
4,35,0,34
4,35,94,14
4,35,0,47
4,40,94,1
4,40,0,383
4,28,94,1
4,28,0,383
4,31,94,1
4,31,0,465
4,43,94,15
4,43,0,10
4,43,84,38
4,43,0,10
4,24,94,16
4,24,0,1
4,36,94,1
4,36,0,4
4,48,58,1
4,48,0,4
4,48,94,1
4,48,0,720
4,47,94,48
4,47,0,720
4,28,94,48
4,28,0,4
4,33,94,1
4,33,0,95
4,33,94,1
4,33,0,253
4,33,94,35
4,33,0,40
4,33,94,56
4,33,0,336
4,40,94,48
4,40,0,182
4,43,94,10
4,43,0,182
4,45,94,10
4,45,0,151
4,33,94,10
4,33,0,191
4,38,94,1
4,38,0,241
4,38,94,47
4,38,0,61
4,38,94,35
4,38,0,239
4,49,94,1
4,49,0,46
4,50,94,2
4,50,0,47
4,33,94,1
4,33,0,47
4,38,94,1
4,38,0,240
4,38,94,48
4,38,0,57
4,38,94,39
4,38,0,239
4,33,94,1
4,33,0,43
4,35,94,5
4,35,0,43
4,33,94,5
4,33,0,42
4,31,94,6
4,31,0,221
4,31,94,67
4,31,0,81
4,31,94,15
4,31,0,357
4,38,94,27
4,38,0,231
4,38,94,57
4,38,0,81
4,38,94,15
4,38,0,247
4,33,94,41
4,33,0,37
4,35,94,11
4,35,0,46
4,31,94,2
4,31,0,231
4,31,94,57
4,31,0,47
4,31,94,49
4,31,0,339
4,43,94,13
4,43,0,25
4,38,94,7
4,38,0,233
4,38,94,55
4,38,0,57
4,38,94,39
4,38,0,201
4,38,76,55
4,38,0,8
4,34,94,24
4,34,0,95
4,35,94,1
4,35,0,240
4,35,94,48
4,35,0,64
4,35,94,32
4,35,0,221
4,35,94,67
4,35,0,78
4,28,94,18
4,28,0,227
4,40,94,29
4,40,0,8
4,28,94,24
4,28,0,46
4,28,94,50
4,28,0,183
4,40,94,9
4,40,0,90
4,28,94,6
4,28,0,79
4,33,94,17
4,33,0,191
4,35,94,1
4,35,0,181
4,36,94,11
4,36,0,169
4,37,94,23
4,37,0,191
4,38,94,1
4,38,0,239
4,38,94,49
4,38,0,55
4,38,94,41
4,38,0,5
4,45,94,1
4,45,0,8
4,31,94,10
4,31,0,225
4,31,94,63
4,31,0,39
4,31,94,57
4,31,0,163
4,31,94,29
4,31,0,95
4,37,94,1
4,37,0,95
4,38,94,1
4,38,0,227
4,38,94,61
4,38,0,39
4,38,94,57
4,38,0,2
4,45,94,1
4,45,0,4
4,43,94,13
4,43,0,199
4,38,94,41
4,38,0,35
4,35,94,13
4,35,0,43
4,33,94,5
4,33,0,38
4,31,94,10
4,31,0,191
4,38,94,1
4,38,0,52
4,43,94,3
4,43,0,46
4,33,94,2
4,33,0,47
4,38,94,1
4,38,0,244
4,38,94,44
4,38,0,43
4,38,94,53
4,38,0,139
4,31,68,5
4,31,0,47
4,36,94,1
4,36,0,143
4,30,68,1
4,30,0,41
4,35,94,7
4,35,0,193
4,35,61,47
4,35,0,6
4,35,94,42
4,35,0,86
4,35,94,10
4,35,0,194
4,35,62,46
4,35,0,5
4,30,94,43
4,30,0,94
4,28,94,2
4,28,0,192
4,28,61,48
4,28,0,9
4,28,94,39
4,28,0,77
4,28,94,19
4,28,0,196
4,28,94,92
4,28,0,95
4,36,94,1
4,36,0,215
4,32,94,73
4,32,0,95
4,33,94,1
4,33,0,6
4,40,94,1
4,40,0,158
4,38,94,7
4,38,0,197
4,38,94,91
4,38,0,89
4,38,94,7
4,38,0,4
4,45,94,1
4,45,0,146
4,31,104,23
4,31,0,194
4,31,104,94
4,31,0,78
4,31,104,18
4,31,0,254
4,31,104,34
4,31,0,84
4,30,104,12
4,30,0,345
4,35,104,39
4,35,0,282
4,30,104,6
4,30,0,47
4,29,77,1
4,29,0,42
4,28,104,6
4,28,0,225
4,28,104,63
4,28,0,86
4,28,104,10
4,28,0,203
4,28,104,85
4,28,0,37
4,30,76,11
4,30,0,39
4,31,104,9
4,31,0,207
4,31,104,81
4,31,0,22
4,31,76,26
4,31,0,35
4,38,104,13
4,38,0,3
4,43,104,1
4,43,0,146
4,36,104,22
4,36,0,196
4,36,104,92
4,36,0,79
4,36,104,17
4,36,0,86
4,36,77,10
4,36,0,9
4,36,77,39
4,36,0,10
4,33,55,102
4,33,0,23
4,36,80,1
4,36,0,71
4,36,104,4
4,36,0,195
4,36,104,93
4,36,0,74
4,36,104,22
4,36,0,192
4,35,104,192
4,35,0,196
4,35,104,92
4,35,0,84
4,35,104,12
4,35,0,192
4,28,104,192
4,28,0,200
4,28,104,88
4,28,0,74
4,28,104,22
4,28,0,188
4,40,104,4
4,40,0,185
4,33,104,7
4,33,0,207
4,33,104,81
4,33,0,70
4,33,104,26
4,33,0,202
4,40,104,182
4,40,0,183
4,43,104,9
4,43,0,9
4,45,104,2
4,45,0,176
4,33,104,5
4,33,0,191
4,38,104,1
4,38,0,212
4,38,104,76
4,38,0,53
4,38,104,43
4,38,0,218
4,38,104,70
4,38,0,45
4,33,82,3
4,33,0,42
4,38,104,6
4,38,0,197
4,38,104,91
4,38,0,45
4,38,104,51
4,38,0,8
4,45,104,1
4,45,0,145
4,31,94,22
4,31,0,221
4,31,94,67
4,31,0,81
4,31,94,15
4,31,0,357
4,38,94,27
4,38,0,231
4,38,94,57
4,38,0,81
4,38,94,15
4,38,0,247
4,33,94,41
4,33,0,37
4,35,94,11
4,35,0,46
4,31,94,2
4,31,0,231
4,31,94,57
4,31,0,47
4,31,94,49
4,31,0,339
4,43,94,13
4,43,0,25
4,38,94,7
4,38,0,233
4,38,94,55
4,38,0,57
4,38,94,39
4,38,0,201
4,38,76,55
4,38,0,8
4,34,94,24
4,34,0,95
4,35,94,1
4,35,0,240
4,35,94,48
4,35,0,64
4,35,94,32
4,35,0,221
4,35,94,67
4,35,0,78
4,28,94,18
4,28,0,227
4,40,94,29
4,40,0,8
4,28,94,24
4,28,0,46
4,28,94,50
4,28,0,183
4,40,94,9
4,40,0,90
4,28,94,6
4,28,0,79
4,33,94,17
4,33,0,191
4,35,94,1
4,35,0,181
4,36,94,11
4,36,0,169
4,37,94,23
4,37,0,191
4,38,94,1
4,38,0,239
4,38,94,49
4,38,0,55
4,38,94,41
4,38,0,5
4,45,94,1
4,45,0,8
4,31,94,10
4,31,0,225
4,31,94,63
4,31,0,39
4,31,94,57
4,31,0,163
4,31,94,29
4,31,0,95
4,37,94,1
4,37,0,95
4,38,94,1
4,38,0,227
4,38,94,61
4,38,0,39
4,38,94,57
4,38,0,2
4,45,94,1
4,45,0,4
4,43,94,13
4,43,0,199
4,38,94,41
4,38,0,35
4,35,94,13
4,35,0,43
4,33,94,5
4,33,0,38
4,31,94,10
4,31,0,191
4,38,94,1
4,38,0,52
4,43,94,3
4,43,0,46
4,33,94,2
4,33,0,47
4,38,94,1
4,38,0,244
4,38,94,44
4,38,0,43
4,38,94,53
4,38,0,139
4,31,68,5
4,31,0,47
4,36,94,1
4,36,0,143
4,30,68,1
4,30,0,41
4,35,94,7
4,35,0,193
4,35,61,47
4,35,0,6
4,35,94,42
4,35,0,86
4,35,94,10
4,35,0,194
4,35,62,46
4,35,0,5
4,30,94,43
4,30,0,94
4,28,94,2
4,28,0,192
4,28,61,48
4,28,0,9
4,28,94,39
4,28,0,77
4,28,94,19
4,28,0,196
4,28,94,92
4,28,0,95
4,36,94,1
4,36,0,215
4,32,94,73
4,32,0,95
4,33,94,1
4,33,0,6
4,40,94,1
4,40,0,158
4,38,94,7
4,38,0,197
4,38,94,91
4,38,0,89
4,38,94,7
4,38,0,4
4,45,94,1
4,45,0,146
4,43,94,23
4,43,0,9
4,38,94,1
4,38,0,34
4,26,94,14
4,26,0,43
4,31,94,5
4,31,0,188
4,38,94,3
4,38,0,52
4,43,94,11
4,43,0,92
4,42,94,4
4,42,0,13
4,28,94,4
4,28,0,35
4,30,94,10
4,30,0,188
4,35,94,4
4,35,0,5
4,42,94,1
4,42,0,61
4,40,94,14
4,40,0,234
4,35,94,6
4,35,0,9
4,35,94,39
4,35,0,31
4,26,94,17
4,26,0,47
4,28,94,1
4,28,0,200
4,28,94,40
4,28,0,43
4,30,94,5
4,30,0,95
4,31,94,1
4,31,0,340
4,38,94,1
4,38,0,45
4,43,94,2
4,43,0,188
4,38,94,4
4,38,0,42
4,31,94,6
4,31,0,37
4,36,94,11
4,36,0,230
4,36,94,58
4,36,0,75
4,36,94,21
4,36,0,4
4,43,94,3
4,43,0,50
4,48,94,1
4,48,0,93
4,36,94,3
4,36,0,95
4,36,94,1
4,36,0,6
4,36,94,282
4,36,0,58
4,36,94,38
4,36,0,121
4,28,94,23
4,28,0,17
4,31,94,31
4,31,0,167
4,35,94,25
4,35,0,233
4,35,94,55
4,35,0,47
4,35,94,49
4,35,0,212
4,28,94,28
4,28,0,8
4,30,94,40
4,30,0,93
4,28,94,3
4,28,0,216
4,28,94,72
4,28,0,44
4,28,94,52
4,28,0,256
4,31,94,32
4,31,0,38
4,32,94,10
4,32,0,43
4,33,94,5
4,33,0,201
4,33,94,87
4,33,0,48
4,33,94,48
4,33,0,192
4,45,94,48
4,45,0,41
4,38,94,7
4,38,0,26
4,39,94,22
4,39,0,30
4,40,94,18
4,40,0,7
4,43,94,1
4,43,0,2
4,45,94,2
4,45,0,6
4,33,94,1
4,33,0,170
4,38,94,22
4,38,0,223
4,38,94,65
4,38,0,3
4,45,94,2
4,45,0,48
4,50,94,3
4,50,0,36
4,38,94,12
4,38,0,23
4,38,94,121
4,38,0,387
4,50,94,45
4,50,0,47
4,45,94,1
4,45,0,71
4,38,94,25
4,38,0,47
4,35,94,1
4,35,0,38
4,34,94,10
4,34,0,39
4,33,94,9
4,33,0,42
4,34,94,6
4,34,0,217
4,34,94,71
4,34,0,79
4,34,94,17
4,34,0,182
4,34,94,58
4,34,0,7
4,32,94,41
4,32,0,79
4,33,94,17
4,33,0,184
4,36,94,8
4,36,0,191
4,38,94,1
4,38,0,181
4,45,94,6
4,45,0,136
4,43,94,26
4,43,0,240
4,38,94,48
4,38,0,39
4,26,94,9
4,26,0,46
4,31,94,2
4,31,0,119
4,31,94,25
4,31,0,1
4,38,94,1
4,38,0,50
4,43,94,1
4,43,0,47
4,29,94,1
4,29,0,47
4,34,94,1
4,34,0,233
4,34,94,55
4,34,0,73
4,41,94,12
4,41,0,118
4,29,94,8
4,29,0,19
4,34,94,29
4,34,0,143
4,29,94,1
4,29,0,35
4,39,94,13
4,39,0,249
4,39,94,39
4,39,0,53
4,39,94,43
4,39,0,140
4,27,94,4
4,27,0,28
4,34,94,20
4,34,0,95
4,39,94,1
4,39,0,44
4,27,94,4
4,27,0,42
4,38,94,6
4,38,0,207
4,38,94,33
4,38,0,46
4,32,94,2
4,32,0,38
4,32,94,10
4,32,0,44
4,31,94,4
4,31,0,191
4,38,94,1
4,38,0,119
4,31,94,1
4,31,0,35
4,36,94,13
4,36,0,237
4,34,94,3
4,34,0,9
4,36,94,39
4,36,0,82
4,36,94,14
4,36,0,192
4,36,94,48
4,36,0,21
4,38,94,27
4,38,0,33
4,39,94,63
4,39,0,238
4,39,94,50
4,39,0,54
4,39,94,42
4,39,0,166
4,34,94,26
4,34,0,94
4,27,94,2
4,27,0,29
4,27,94,19
4,27,0,15
4,32,94,33
4,32,0,236
4,32,94,52
4,32,0,55
4,32,94,41
4,32,0,90
4,39,94,6
4,39,0,51
4,44,94,1
4,44,0,285
4,32,94,3
4,32,0,138
4,32,94,54
4,32,0,51
4,32,94,45
4,32,0,174
4,39,94,4
4,39,0,47
4,44,94,3
4,44,0,47
4,39,94,1
4,39,0,47
4,43,94,1
4,43,0,207
4,43,94,33
4,43,0,7
4,31,94,41
4,31,0,50
4,31,94,46
4,31,0,119
4,31,94,25
4,31,0,29
4,34,94,19
4,34,0,36
4,34,94,12
4,34,0,13
4,35,94,35
4,35,0,36
4,35,94,12
4,35,0,13
4,36,94,35
4,36,0,234
4,31,94,6
4,31,0,12
4,36,94,36
4,36,0,53
4,36,94,43
4,36,0,162
4,31,94,30
4,31,0,40
4,27,77,8
4,27,0,18
4,30,94,30
4,30,0,44
4,27,77,4
4,27,0,18
4,29,94,30
4,29,0,238
4,29,94,50
4,29,0,18
4,29,94,30
4,29,0,9
4,29,94,39
4,29,0,248
4,35,94,40
4,35,0,32
4,36,74,16
4,36,0,17
4,41,94,31
4,41,0,213
4,36,75,27
4,36,0,19
4,43,94,29
4,43,0,47
4,44,94,1
4,44,0,47
4,45,94,1
4,45,0,283
4,45,94,5
4,45,0,60
4,46,94,36
4,46,0,265
4,34,94,23
4,34,0,56
4,34,94,40
4,34,0,92
4,46,94,4
4,46,0,266
4,33,94,22
4,33,0,191
4,45,94,1
4,45,0,191
4,50,94,1
4,50,0,360
4,55,107,24
4,55,0,239
4,52,50,1
4,52,0,16
4,50,94,32
4,50,0,47
4,47,94,1
4,47,0,45
4,43,94,3
4,43,0,122
4,43,94,22
4,43,0,2
4,50,94,1
4,50,0,36
4,55,94,15
4,55,0,84
4,54,106,12
4,54,0,208
4,54,50,32
4,54,0,9
4,48,94,39
4,48,0,91
4,47,94,5
4,47,0,141
4,35,94,3
4,35,0,33
4,42,94,15
4,42,0,95
4,41,94,1
4,41,0,95
4,40,94,1
4,40,0,206
4,40,94,34
4,40,0,12
4,35,94,36
4,35,0,42
4,33,94,6
4,33,0,34
4,28,94,14
4,28,0,271
4,28,94,17
4,28,0,87
4,31,94,9
4,31,0,241
4,31,94,47
4,31,0,36
4,31,94,12
4,31,0,32
4,36,94,16
4,36,0,51
4,36,94,45
4,36,0,47
4,37,94,1
4,37,0,39
4,38,94,9
4,38,0,143
4,31,94,1
4,31,0,43
4,36,94,5
4,36,0,223
4,36,94,65
4,36,0,57
4,36,94,39
4,36,0,6
4,43,94,6
4,43,0,55
4,36,94,3
4,36,0,11
4,48,94,8
4,48,0,82
4,48,94,1
4,48,0,1
4,48,94,335
4,48,0,10
4,36,94,38
4,36,0,131
4,28,94,13
4,28,0,15
4,31,94,33
4,31,0,114
4,31,94,30
4,31,0,20
4,35,94,28
4,35,0,244
4,35,94,44
4,35,0,46
4,35,94,50
4,35,0,344
4,28,94,40
4,28,0,226
4,40,94,14
4,40,0,6
4,28,94,42
4,28,0,45
4,28,94,51
4,28,0,59
4,28,94,37
4,28,0,92
4,40,94,4
4,40,0,172
4,33,94,20
4,33,0,4
4,40,94,7
4,40,0,167
4,43,94,1
4,43,0,191
4,45,94,1
4,45,0,8
4,33,94,3
4,33,0,1
4,38,94,7
4,38,0,275
4,38,94,1
4,38,0,48
4,38,94,48
4,38,0,907
4,38,94,53
4,38,0,187
4,31,94,5
4,31,0,816
5,50,72,9518
5,62,66,192
5,55,87,96
5,67,78,192
5,62,0,68
5,62,45,28
5,55,0,67
5,55,70,29
5,50,0,80
5,54,78,16
5,55,0,82
5,57,50,14
5,62,0,72
5,60,87,24
5,57,0,185
5,59,66,7
5,60,0,83
5,63,78,13
5,67,0,77
5,66,92,19
5,54,0,176
5,52,62,16
5,63,0,171
5,64,54,21
5,66,0,68
5,67,92,28
5,64,0,72
5,64,81,24
5,59,0,80
5,59,64,16
5,52,0,93
5,52,57,3
5,52,0,182
5,53,54,10
5,59,0,78
5,57,72,18
5,64,0,84
5,60,93,12
5,67,0,82
5,65,93,14
5,57,0,84
5,55,45,12
5,60,0,76
5,62,70,20
5,65,0,75
5,67,84,21
5,62,0,71
5,62,75,25
5,55,0,73
5,55,84,23
5,62,0,88
5,64,40,8
5,67,0,78
5,67,87,18
5,64,0,72
5,64,90,24
5,53,0,183
5,52,32,9
5,55,0,75
5,55,90,21
5,64,0,73
5,64,94,23
5,55,0,84
5,57,94,12
5,64,0,88
5,62,57,8
5,67,0,68
5,66,87,28
5,62,0,81
5,62,66,15
5,66,0,74
5,66,93,22
