track,note,velocity,time
1,46,90,286
1,53,90,0
1,65,111,48
1,60,112,48
1,58,111,48
1,50,95,1
1,57,90,0
1,57,113,2
1,62,111,48
1,48,90,1
1,52,95,0
1,55,95,0
1,60,111,0
1,46,101,1
1,53,95,0
1,65,112,42
1,60,111,48
1,58,111,48
1,50,101,1
1,57,95,0
1,62,112,48
1,65,111,48
1,48,101,1
1,55,95,0
1,60,95,0
1,64,111,0
1,46,101,1
1,53,95,0
1,65,111,48
1,60,112,48
1,58,111,48
1,50,101,1
1,57,100,0
1,57,113,2
1,62,111,48
1,48,101,1
1,52,95,0
1,55,95,0
1,60,111,0
1,46,101,1
1,53,95,0
1,65,112,42
1,60,111,48
1,58,111,48
1,50,101,1
1,57,95,0
1,62,112,48
1,65,111,48
1,48,101,1
1,55,95,0
1,60,95,0
1,64,111,0
1,46,101,1
1,53,95,0
1,65,111,46
1,60,112,48
1,58,111,48
1,50,101,1
1,57,100,0
1,57,113,2
1,62,111,48
1,48,101,1
1,52,95,0
1,55,95,0
1,60,111,0
1,46,101,1
1,53,101,0
1,65,111,42
1,60,111,48
1,58,111,48
1,48,101,1
1,53,111,0
1,58,111,45
1,65,111,48
1,41,101,4
1,57,95,0
1,60,95,0
1,65,111,0
1,46,101,4
1,53,95,0
1,65,112,48
1,60,111,48
1,58,111,48
1,50,101,1
1,57,95,0
1,62,112,48
1,65,111,48
1,48,101,1
1,55,95,0
1,60,95,0
1,64,111,0
1,41,101,1
1,60,111,0
1,69,111,48
1,65,111,48
1,60,111,38
1,45,101,3
1,60,95,48
1,57,95,48
1,62,95,48
1,46,101,0
1,53,95,0
1,65,112,48
1,60,111,48
1,58,111,48
1,50,101,1
1,57,95,0
1,62,112,48
1,65,111,48
1,48,101,1
1,55,95,0
1,60,95,0
1,64,111,0
1,46,101,1
1,53,101,0
1,65,111,48
1,60,111,48
1,58,111,48
1,48,101,15
1,55,111,0
1,60,111,39
1,64,111,48
1,50,101,11
1,57,95,0
1,62,95,0
1,65,111,0
1,46,101,10
1,53,95,0
1,65,112,48
1,60,111,48
1,58,111,48
1,50,101,1
1,57,95,0
1,62,112,48
1,65,111,48
1,48,101,1
1,55,95,0
1,60,95,0
1,64,111,0
1,53,95,1
1,65,90,0
1,72,111,46
1,69,111,48
1,65,90,28
1,72,111,34
1,69,111,45
1,65,90,41
1,51,95,12
1,72,111,22
1,69,111,37
1,65,90,36
1,72,111,25
1,69,111,40
1,65,90,41
1,57,90,0
1,65,103,0
1,69,103,0
1,74,103,0
1,60,90,9
1,65,103,0
1,69,103,0
1,72,103,0
1,58,90,11
1,65,103,0
1,70,103,0
1,72,103,0
1,77,103,0
1,53,90,11
1,60,90,0
1,65,103,0
1,69,103,0
1,72,103,0
1,77,103,0
1,57,90,9
1,65,103,0
1,69,103,0
1,74,103,0
1,60,90,9
1,65,103,0
1,69,103,0
1,72,103,0
1,58,90,11
1,65,103,0
1,70,103,0
1,72,103,0
1,77,103,0
1,60,90,11
1,65,103,0
1,69,103,0
1,72,103,0
1,77,103,0
1,58,90,11
1,65,103,0
1,70,103,0
1,72,103,0
1,77,103,0
1,57,90,9
1,65,103,0
1,69,103,0
1,74,103,0
1,55,90,9
1,64,103,0
1,67,103,0
1,72,103,0
1,46,101,1
1,53,95,0
1,65,111,48
1,60,112,48
1,58,111,48
1,50,101,1
1,57,100,0
1,57,113,2
1,62,111,48
1,48,101,1
1,52,95,0
1,55,95,0
1,60,111,0
1,46,101,1
1,53,95,0
1,65,112,42
1,60,111,48
1,58,111,48
1,50,101,1
1,57,95,0
1,62,112,48
1,65,111,48
1,48,101,1
1,55,95,0
1,60,95,0
1,64,111,0
1,46,101,1
1,53,95,0
1,65,111,48
1,60,112,48
1,58,111,48
1,50,101,1
1,57,100,0
1,57,113,2
1,62,111,48
1,48,101,1
1,52,95,0
1,55,95,0
1,60,111,0
1,46,101,1
1,53,101,0
1,65,111,42
1,60,111,48
1,58,111,48
1,48,101,1
1,53,111,0
1,58,111,45
1,65,111,48
1,41,101,4
1,57,95,0
1,60,95,0
1,65,111,0
1,46,101,4
1,53,95,0
1,65,112,48
1,60,111,48
1,58,111,48
1,50,101,1
1,57,95,0
1,62,112,48
1,65,111,48
1,48,101,1
1,55,95,0
1,60,95,0
1,64,111,0
1,41,101,1
1,60,111,0
1,69,111,48
1,65,111,48
1,60,111,38
1,45,101,3
1,60,95,48
1,57,95,48
1,62,95,48
1,46,101,0
1,53,95,0
1,65,112,48
1,60,111,48
1,58,111,48
1,50,101,1
1,57,95,0
1,62,112,48
1,65,111,48
1,48,101,1
1,55,95,0
1,60,95,0
1,64,111,0
1,46,101,1
1,53,101,0
1,65,111,48
1,60,111,48
1,58,111,48
1,48,101,15
1,55,111,0
1,60,111,39
1,64,111,48
1,50,101,11
1,57,95,0
1,62,95,0
1,65,111,0
1,46,101,10
1,53,95,0
1,65,112,48
1,60,111,48
1,58,111,48
1,50,101,1
1,57,95,0
1,62,112,48
1,65,111,48
1,48,101,1
1,55,95,0
1,60,95,0
1,64,111,0
1,53,95,1
1,65,90,0
1,72,111,46
1,69,111,48
1,65,90,28
1,72,111,34
1,69,111,45
1,65,90,41
1,51,95,12
1,72,111,22
1,69,111,37
1,65,90,36
1,72,111,25
1,69,111,40
1,65,90,41
1,57,90,0
1,65,103,0
1,69,103,0
1,74,103,0
1,60,90,17
1,65,103,0
1,69,103,0
1,72,103,0
1,58,90,6
1,65,103,0
1,70,103,0
1,72,103,0
1,77,103,0
1,60,90,24
1,65,103,0
1,69,103,0
1,72,103,0
1,77,103,0
1,57,90,1
1,65,103,0
1,69,103,0
1,74,103,0
1,60,90,16
1,65,103,0
1,69,103,0
1,72,103,0
1,58,90,27
1,65,103,0
1,70,103,0
1,72,103,0
1,77,103,0
1,60,90,31
1,65,103,0
1,69,103,0
1,72,103,0
1,77,103,0
1,58,90,24
1,65,103,0
1,70,103,0
1,72,103,0
1,77,103,0
1,57,90,54
1,65,103,0
1,69,103,0
1,74,103,0
1,55,90,18
1,64,103,0
1,67,103,0
1,72,103,0
1,46,101,4
1,53,95,0
1,65,112,48
1,60,111,48
1,58,111,48
1,50,101,1
1,57,95,0
1,62,112,48
1,65,111,48
1,48,101,1
1,55,95,0
1,60,95,0
1,64,111,0
1,46,101,1
1,53,95,0
1,65,112,48
1,60,111,48
1,58,111,48
1,50,101,1
1,57,95,0
1,62,112,48
1,65,111,48
1,48,101,1
1,55,95,0
1,60,95,0
1,64,111,0
1,46,101,1
1,53,95,0
1,65,112,48
1,60,111,48
1,58,111,48
1,50,101,1
1,57,95,0
1,62,112,48
1,65,111,48
1,48,101,1
1,55,95,0
1,60,95,0
1,64,111,0
1,53,95,1
1,65,90,0
1,72,111,48
1,69,111,48
1,65,90,28
1,72,111,34
1,69,111,45
1,65,90,41
1,51,95,12
1,72,111,22
1,69,111,37
1,65,90,36
1,72,111,25
1,69,111,40
1,65,90,41
1,57,90,0
1,65,103,0
1,69,103,0
1,74,103,0
1,60,90,17
1,65,103,0
1,69,103,0
1,72,103,0
1,58,90,6
1,65,103,0
1,70,103,0
1,72,103,0
1,77,103,0
1,60,90,24
1,65,103,0
1,69,103,0
1,72,103,0
1,77,103,0
1,57,90,1
1,65,103,0
1,69,103,0
1,74,103,0
1,60,90,16
1,65,103,0
1,69,103,0
1,72,103,0
1,58,90,27
1,65,103,0
1,70,103,0
1,72,103,0
1,77,103,0
1,60,90,31
1,65,103,0
1,69,103,0
1,72,103,0
1,77,103,0
1,58,90,24
1,65,103,0
1,70,103,0
1,72,103,0
1,77,103,0
1,57,90,54
1,65,103,0
1,69,103,0
1,74,103,0
1,55,90,18
1,64,103,0
1,67,103,0
1,72,103,0
1,46,101,4
1,53,95,0
1,65,112,48
1,60,111,48
1,58,111,48
1,50,101,1
1,57,95,0
1,62,112,48
1,65,111,48
1,48,101,1
1,55,95,0
1,60,95,0
1,64,111,0
1,46,101,1
1,53,95,0
1,65,112,46
1,60,111,48
1,58,111,48
1,50,101,1
1,57,95,0
1,62,112,48
1,65,111,48
1,48,101,1
1,55,95,0
1,60,95,0
1,64,111,0
1,46,101,1
1,53,95,0
1,65,112,46
1,60,111,48
1,58,111,48
1,50,101,1
1,57,95,0
1,62,112,48
1,65,111,48
1,48,101,1
1,55,95,0
1,60,95,0
1,64,111,0
1,46,101,1
1,53,95,0
1,65,112,46
1,60,111,48
1,58,111,48
1,50,101,1
1,57,95,0
1,62,112,48
1,65,111,48
1,48,101,1
1,55,95,0
1,60,95,0
1,64,111,0
1,46,101,1
1,53,95,0
1,65,112,46
1,60,111,48
1,58,111,48
1,50,101,1
1,57,95,0
1,62,112,48
1,65,111,48
1,48,101,1
1,55,95,0
1,60,95,0
1,64,111,0
1,46,101,1
1,53,95,0
1,65,112,46
1,60,111,48
1,58,111,48
1,50,101,1
1,57,95,0
1,62,112,48
1,65,111,48
1,48,101,1
1,55,95,0
1,60,95,0
1,64,111,0
1,46,101,1
1,53,95,0
1,65,111,46
1,60,111,48
1,58,111,48
1,50,101,1
1,62,111,0
1,65,111,48
1,69,111,48
1,48,101,1
1,60,95,0
1,64,95,0
1,67,111,0
1,46,101,16
1,53,101,0
1,65,111,48
1,60,111,48
1,58,111,48
1,48,101,1
1,53,111,0
1,58,111,45
1,65,111,48
1,41,101,4
1,57,95,0
1,60,95,0
1,65,111,0
1,46,101,4
1,53,95,0
1,65,112,48
1,60,111,48
1,58,111,48
1,50,101,1
1,57,95,0
1,62,112,48
1,65,111,48
1,48,101,1
1,55,95,0
1,60,95,0
1,64,111,0
1,46,101,1
1,53,95,0
1,65,112,46
1,60,111,48
1,58,111,48
1,50,101,1
1,57,95,0
1,62,112,48
1,65,111,48
1,48,101,1
1,55,95,0
1,60,95,0
1,64,111,0
1,46,101,1
1,53,95,0
1,65,111,46
1,60,111,48
1,58,111,48
1,50,101,1
1,62,111,0
1,65,111,48
1,69,111,48
1,48,101,1
1,60,95,0
1,64,95,0
1,67,111,0
1,46,101,16
1,65,101,0
1,77,111,48
1,72,111,48
1,70,111,48
1,48,101,1
1,65,111,0
1,70,111,45
1,77,111,48
1,41,101,4
1,69,95,0
1,72,95,0
1,77,111,0
2,34,110,1814
2,38,110,21
2,36,110,4
2,34,110,32
2,38,110,18
2,36,110,10
2,34,110,12
2,38,110,28
2,36,110,11
2,34,110,26
2,36,110,22
2,29,110,13
2,34,110,23
2,38,110,22
2,36,110,12
2,29,110,14
2,33,110,18
2,34,110,192
2,38,110,21
2,36,110,4
2,34,110,32
2,36,110,30
2,38,110,5
2,34,110,15
2,38,110,18
2,36,110,10
2,41,110,12
2,41,110,23
2,41,110,15
2,41,110,20
2,39,110,16
2,39,110,18
2,39,110,21
2,39,110,14
2,39,110,12
2,38,110,14
2,38,110,42
2,38,110,28
2,38,110,39
2,41,110,48
2,41,110,36
2,41,110,37
2,41,110,32
2,34,110,35
2,34,110,34
2,34,110,42
2,34,110,37
2,41,110,43
2,41,110,37
2,41,110,36
2,41,110,39
2,38,110,39
2,38,110,27
2,38,110,35
2,38,110,39
2,41,110,28
2,41,110,23
2,41,110,28
2,41,110,35
2,34,110,28
2,34,110,39
2,34,110,31
2,34,110,37
2,41,110,38
2,41,110,30
2,41,110,37
2,41,110,35
2,34,110,37
2,34,110,34
2,34,110,38
2,34,110,40
2,38,110,47
2,38,110,35
2,38,110,44
2,38,110,38
2,36,110,33
2,36,110,42
2,36,110,43
2,36,110,39
2,34,110,40
2,38,110,21
2,36,110,4
2,34,110,32
2,38,110,18
2,36,110,10
2,34,110,12
2,38,110,28
2,36,110,11
2,34,110,26
2,36,110,22
2,29,110,13
2,34,110,23
2,38,110,22
2,36,110,12
2,29,110,14
2,33,110,18
2,34,110,192
2,38,110,21
2,36,110,4
2,34,110,32
2,36,110,30
2,38,110,5
2,34,110,15
2,38,110,18
2,36,110,10
2,41,110,12
2,41,110,23
2,41,110,15
2,41,110,20
2,39,110,16
2,39,110,18
2,39,110,21
2,39,110,14
2,39,110,12
2,38,110,14
2,38,110,42
2,38,110,28
2,38,110,39
2,41,110,48
2,41,110,36
2,41,110,37
2,41,110,32
2,34,110,35
2,34,110,34
2,34,110,42
2,34,110,37
2,41,110,43
2,41,110,37
2,41,110,36
2,41,110,39
2,38,110,39
2,38,110,27
2,38,110,35
2,38,110,39
2,41,110,28
2,41,110,23
2,41,110,28
2,41,110,35
2,34,110,28
2,34,110,39
2,34,110,31
2,34,110,37
2,41,110,38
2,41,110,30
2,41,110,37
2,41,110,35
2,34,110,37
2,34,110,34
2,34,110,38
2,34,110,40
2,38,110,47
2,38,110,35
2,38,110,44
2,38,110,38
2,36,110,33
2,36,110,42
2,36,110,43
2,36,110,39
2,34,110,40
2,38,110,18
2,36,110,10
2,34,110,12
2,38,110,18
2,36,110,10
2,34,110,12
2,38,110,18
2,36,110,10
2,41,110,12
2,41,110,23
2,41,110,15
2,41,110,20
2,39,110,16
2,39,110,18
2,39,110,21
2,39,110,14
2,39,110,12
2,38,110,14
2,38,110,42
2,38,110,28
2,38,110,39
2,41,110,48
2,41,110,36
2,41,110,37
2,41,110,32
2,34,110,35
2,34,110,34
2,34,110,42
2,34,110,37
2,41,110,43
2,41,110,37
2,41,110,36
2,41,110,39
2,38,110,39
2,38,110,27
2,38,110,35
2,38,110,39
2,41,110,28
2,41,110,23
2,41,110,28
2,41,110,35
2,34,110,28
2,34,110,39
2,34,110,31
2,34,110,37
2,41,110,38
2,41,110,30
2,41,110,37
2,41,110,35
2,34,110,37
2,34,110,34
2,34,110,38
2,34,110,40
2,38,110,47
2,38,110,35
2,38,110,44
2,38,110,38
2,36,110,33
2,36,110,42
2,36,110,43
2,36,110,39
2,34,110,40
2,38,110,18
2,36,110,10
2,34,110,12
2,38,110,18
2,36,110,10
2,34,110,12
2,38,110,18
2,36,110,10
2,34,110,12
2,38,110,18
2,36,110,10
2,34,110,12
2,38,110,18
2,36,110,10
2,34,110,12
2,38,110,18
2,36,110,10
2,34,110,12
2,38,110,18
2,36,110,10
2,34,110,12
2,36,110,22
2,29,110,13
2,34,110,23
2,38,110,18
2,36,110,10
2,34,110,12
2,38,110,18
2,36,110,10
2,34,110,12
2,38,110,18
2,36,110,10
2,34,110,12
2,36,110,22
2,29,110,13
3,65,80,8338
3,69,80,0
3,72,80,0
3,74,80,43
3,77,80,0
3,72,80,14
3,70,80,4
3,69,80,4
3,74,80,25
3,72,80,384
3,70,80,16
3,69,80,0
3,70,80,16
3,74,80,26
3,77,80,0
3,81,80,0
3,72,80,39
3,76,80,0
3,79,80,0
3,65,80,6499
3,69,80,0
3,72,80,0
3,74,80,43
3,77,80,0
3,72,80,14
3,70,80,4
3,69,80,4
3,74,80,25
3,72,80,384
3,70,80,16
3,69,80,0
3,70,80,16
3,74,80,26
3,77,80,0
3,81,80,0
3,72,80,39
3,76,80,0
3,79,80,0
3,65,80,2275
3,69,80,0
3,72,80,0
3,74,80,43
3,77,80,0
3,72,80,14
3,70,80,4
3,69,80,4
3,74,80,25
3,72,80,384
3,70,80,16
3,69,80,0
3,70,80,16
3,74,80,26
3,77,80,0
3,81,80,0
3,72,80,39
3,76,80,0
3,79,80,0
4,74,102,3005
4,77,103,10
4,74,94,48
4,77,100,9
4,77,100,11
4,80,80,16
4,81,103,6
4,77,93,418
4,77,100,65
4,72,95,62
4,74,97,6
4,74,101,349
4,77,103,25
4,74,101,0
4,81,106,25
4,79,102,10
4,77,106,46
4,77,105,203
4,77,96,17
4,77,103,14
4,74,100,1
4,81,112,12
4,79,97,48
4,77,102,41
4,77,103,12
4,72,100,1
4,81,96,16
4,81,95,23
4,81,100,22
4,79,98,48
4,77,105,11
4,84,94,96
4,77,101,350
4,77,100,35
4,72,97,4
4,72,96,24
4,74,94,0
4,72,112,18
4,74,105,407
4,77,108,27
4,74,102,2
4,81,110,25
4,79,108,5
4,77,108,56
4,74,105,318
4,77,97,5
4,77,103,14
