track,note,velocity,time
0,69,58,234
0,46,90,2
0,53,90,0
0,69,0,3
0,69,58,42
0,65,111,3
0,69,0,2
0,69,117,43
0,60,112,3
0,69,0,2
0,69,58,43
0,58,111,3
0,69,0,2
0,46,0,28
0,69,58,15
0,60,0,2
0,53,0,0
0,65,0,0
0,58,0,0
0,50,95,1
0,57,90,0
0,69,0,2
0,69,58,43
0,57,0,1
0,57,113,2
0,69,0,2
0,69,117,43
0,62,111,3
0,69,0,2
0,50,0,39
0,69,58,4
0,57,0,2
0,62,0,0
0,48,90,1
0,52,95,0
0,55,95,0
0,60,111,0
0,69,0,2
0,69,58,43
0,69,0,5
0,69,58,43
0,69,0,5
0,69,117,43
0,69,0,5
0,69,58,43
0,69,0,5
0,69,58,43
0,69,0,5
0,69,58,43
0,69,0,5
0,69,117,43
0,69,0,5
0,69,58,43
0,69,0,5
0,48,0,32
0,69,58,11
0,55,0,1
0,52,0,1
0,46,101,1
0,53,95,0
0,69,0,2
0,60,0,4
0,69,58,39
0,65,112,3
0,69,0,2
0,69,117,43
0,60,111,3
0,69,0,2
0,69,58,43
0,58,111,3
0,69,0,2
0,46,0,21
0,69,58,22
0,60,0,2
0,53,0,0
0,65,0,0
0,58,0,0
0,50,101,1
0,57,95,0
0,69,0,2
0,69,58,43
0,62,112,3
0,69,0,2
0,69,117,43
0,65,111,3
0,69,0,2
0,50,0,34
0,69,58,9
0,62,0,2
0,65,0,0
0,57,0,0
0,48,101,1
0,55,95,0
0,60,95,0
0,64,111,0
0,69,0,2
0,69,58,43
0,69,0,5
0,69,58,43
0,69,0,5
0,69,117,43
0,69,0,5
0,69,58,43
0,69,0,5
0,69,58,43
0,69,0,5
0,69,58,43
0,69,0,5
0,69,117,43
0,69,0,5
0,69,58,43
0,69,0,5
0,48,0,25
0,64,0,13
0,55,0,2
0,34,110,3
0,46,75,0
0,69,58,0
0,74,117,1
0,86,119,0
0,60,0,1
0,46,101,1
0,53,95,0
0,69,0,2
0,46,0,0
0,74,0,19
0,86,0,4
0,69,58,20
0,65,111,3
0,69,0,2
0,69,117,43
0,74,117,1
0,86,119,0
0,60,112,2
0,69,0,2
0,74,0,18
0,86,0,6
0,69,58,19
0,58,111,3
0,69,0,2
0,34,0,22
0,46,0,9
0,38,110,12
0,69,58,0
0,77,117,1
0,89,119,0
0,65,0,1
0,53,0,0
0,60,0,0
0,58,0,0
0,50,101,1
0,57,100,0
0,69,0,2
0,77,0,21
0,89,0,3
0,69,58,19
0,57,0,1
0,57,113,2
0,69,0,2
0,69,117,43
0,62,111,3
0,69,0,2
0,50,0,37
0,38,0,2
0,36,110,4
0,69,58,0
0,74,117,1
0,86,119,0
0,57,0,1
0,62,0,0
0,48,101,1
0,52,95,0
0,55,95,0
0,60,111,0
0,69,0,2
0,74,0,19
0,86,0,3
0,69,58,21
0,69,0,5
0,69,58,43
0,72,117,1
0,84,119,0
0,69,0,4
0,72,0,18
0,84,0,3
0,69,117,22
0,69,0,5
0,69,58,43
0,72,117,1
0,84,119,0
0,69,0,4
0,72,0,22
0,84,0,1
0,69,58,20
0,69,0,5
0,69,58,43
0,72,117,1
0,84,119,0
0,69,0,4
0,72,0,15
0,84,0,3
0,69,117,25
0,69,0,5
0,69,58,43
0,72,117,1
0,84,119,0
0,69,0,4
0,36,0,11
0,72,0,5
0,84,0,4
0,48,0,12
0,34,110,11
0,69,58,0
0,55,0,1
0,74,117,0
0,86,119,0
0,52,0,1
0,46,101,1
0,53,95,0
0,69,0,2
0,60,0,4
0,74,0,9
0,86,0,4
0,69,58,26
0,65,112,3
0,69,0,2
0,69,117,43
0,74,117,1
0,86,119,0
0,60,111,2
0,69,0,2
0,74,0,16
0,86,0,5
0,69,58,22
0,58,111,3
0,69,0,2
0,46,0,23
0,34,0,2
0,38,110,18
0,69,58,0
0,77,117,1
0,89,119,0
0,53,0,1
0,65,0,0
0,60,0,0
0,58,0,0
0,50,101,1
0,57,95,0
0,69,0,2
0,77,0,21
0,89,0,1
0,69,58,21
0,62,112,3
0,69,0,2
0,69,117,43
0,74,117,1
0,86,119,0
0,65,111,2
0,69,0,2
0,74,0,18
0,86,0,4
0,50,0,11
0,38,0,0
0,36,110,10
0,69,58,0
0,72,117,1
0,84,119,0
0,65,0,1
0,57,0,0
0,62,0,0
0,48,101,1
0,55,95,0
0,60,95,0
0,64,111,0
0,69,0,2
0,72,0,21
0,84,0,3
0,69,58,19
0,69,0,5
0,69,58,43
0,74,102,1
0,69,0,4
0,74,0,34
0,69,117,9
0,77,103,1
0,72,81,0
0,84,75,0
0,69,0,4
0,69,58,43
0,74,94,1
0,77,0,1
0,69,0,3
0,74,0,35
0,69,58,8
0,77,100,1
0,69,0,4
0,77,0,33
0,69,58,10
0,77,100,1
0,69,0,4
0,69,117,43
0,69,0,5
0,77,0,22
0,80,80,16
0,69,58,5
0,81,103,1
0,69,0,4
0,80,0,14
0,36,0,17
0,64,0,7
0,55,0,2
0,34,110,3
0,35,120,0
0,69,58,0
0,60,0,2
0,46,101,1
0,53,95,0
0,69,0,2
0,48,0,0
0,35,0,0
0,84,0,8
0,72,0,0
0,69,58,35
0,65,111,3
0,69,0,2
0,81,0,10
0,35,120,33
0,69,117,0
0,60,112,3
0,69,0,2
0,35,0,0
0,69,58,43
0,58,111,3
0,69,0,2
0,34,0,15
0,46,0,13
0,38,110,15
0,35,120,0
0,69,58,0
0,65,0,2
0,60,0,0
0,53,0,0
0,58,0,0
0,50,101,1
0,57,100,0
0,69,0,2
0,35,0,0
0,69,58,43
0,57,0,1
0,57,113,2
0,69,0,2
0,35,120,43
0,69,117,0
0,62,111,3
0,69,0,2
0,35,0,0
0,38,0,32
0,50,0,7
0,36,110,4
0,69,58,0
0,62,0,2
0,57,0,0
0,48,101,1
0,52,95,0
0,55,95,0
0,60,111,0
0,69,0,2
0,35,120,43
0,69,58,0
0,69,0,5
0,35,0,0
0,69,58,43
0,69,0,5
0,35,120,43
0,69,117,0
0,77,93,1
0,69,0,4
0,35,0,0
0,77,0,27
0,69,58,16
0,69,0,5
0,35,120,43
0,69,58,0
0,77,100,1
0,69,0,4
0,35,0,0
0,77,0,30
0,69,58,13
0,69,0,5
0,35,120,43
0,69,117,0
0,72,95,1
0,69,0,4
0,35,0,0
0,72,0,38
0,69,58,5
0,74,97,1
0,69,0,4
0,36,0,17
0,48,0,15
0,34,110,11
0,35,120,0
0,69,58,0
0,55,0,1
0,52,0,1
0,46,101,1
0,53,101,0
0,35,0,2
0,69,0,0
0,60,0,4
0,69,58,39
0,65,111,3
0,69,0,2
0,74,0,31
0,35,120,12
0,69,117,0
0,60,111,3
0,69,0,2
0,35,0,0
0,69,58,43
0,58,111,3
0,69,0,2
0,53,0,9
0,34,0,12
0,65,0,19
0,46,0,3
0,36,110,0
0,35,120,0
0,69,58,0
0,60,0,2
0,48,101,1
0,53,111,0
0,35,0,2
0,69,0,0
0,58,0,1
0,69,58,42
0,58,111,3
0,69,0,2
0,35,120,43
0,69,117,0
0,65,111,3
0,69,0,2
0,35,0,0
0,53,0,29
0,36,0,1
0,65,0,1
0,58,0,4
0,48,0,7
0,29,110,1
0,69,58,0
0,41,101,3
0,57,95,0
0,60,95,0
0,65,111,0
0,69,0,2
0,35,120,43
0,69,58,0
0,69,0,5
0,35,0,0
0,69,58,43
0,74,101,1
0,69,0,4
0,74,0,19
0,35,120,24
0,69,117,0
0,77,103,1
0,69,0,4
0,35,0,0
0,69,58,43
0,77,0,1
0,74,101,0
0,69,0,4
0,74,0,19
0,35,120,24
0,69,58,0
0,81,106,1
0,69,0,4
0,35,0,0
0,81,0,34
0,69,58,9
0,79,102,1
0,69,0,4
0,35,120,43
0,69,117,0
0,79,0,3
0,69,0,2
0,35,0,0
0,69,58,43
0,77,106,1
0,69,0,4
0,29,0,20
0,41,0,17
0,65,0,1
0,57,0,1
0,60,0,3
0,34,110,1
0,35,120,0
0,69,58,0
0,46,101,3
0,53,95,0
0,69,0,2
0,35,0,0
0,69,58,43
0,65,112,3
0,69,0,2
0,35,120,43
0,69,117,0
0,60,111,3
0,69,0,2
0,35,0,0
0,77,0,33
0,69,58,10
0,58,111,3
0,69,0,2
0,34,0,21
0,46,0,0
0,38,110,22
0,35,120,0
0,69,58,0
0,65,0,2
0,53,0,0
0,60,0,0
0,58,0,0
0,50,101,1
0,57,95,0
0,69,0,2
0,35,0,0
0,69,58,43
0,62,112,3
0,69,0,2
0,35,120,43
0,69,117,0
0,65,111,3
0,69,0,2
0,35,0,0
0,38,0,31
0,50,0,3
0,36,110,9
0,69,58,0
0,77,105,1
0,62,0,1
0,57,0,0
0,65,0,0
0,48,101,1
0,55,95,0
0,60,95,0
0,64,111,0
0,69,0,2
0,35,120,43
0,69,58,0
0,69,0,5
0,35,0,0
0,77,0,27
0,69,58,16
0,77,96,1
0,69,0,4
0,77,0,30
0,35,120,13
0,69,117,0
0,77,103,1
0,69,0,4
0,35,0,0
0,77,0,43
0,69,58,0
0,74,100,1
0,69,0,4
0,74,0,32
0,35,120,11
0,69,58,0
0,81,112,1
0,69,0,4
0,35,0,0
0,69,58,43
0,79,97,1
0,69,0,4
0,81,0,3
0,35,120,40
0,69,117,0
0,77,102,1
0,69,0,4
0,35,0,0
0,79,0,2
0,77,0,30
0,69,58,11
0,77,103,1
0,69,0,4
0,48,0,25
0,36,0,4
0,64,0,9
0,55,0,2
0,29,110,3
0,35,120,0
0,69,58,0
0,60,0,2
0,41,101,1
0,60,111,0
0,35,0,2
0,69,0,0
0,77,0,43
0,69,58,0
0,72,100,1
0,69,111,2
0,69,0,2
0,72,0,28
0,35,120,15
0,69,117,0
0,81,96,1
0,65,111,2
0,69,0,2
0,35,0,0
0,60,0,8
0,81,0,13
0,69,58,22
0,81,95,1
0,60,117,0
0,60,111,2
0,69,0,2
0,65,0,19
0,81,0,3
0,69,0,1
0,60,0,0
0,29,0,2
0,41,0,8
0,60,0,10
0,33,110,0
0,35,120,0
0,69,58,0
0,81,100,1
0,45,101,2
0,69,0,2
0,35,0,0
0,69,58,43
0,79,98,1
0,81,0,2
0,60,95,0
0,69,0,2
0,35,120,43
0,69,117,0
0,57,95,3
0,69,0,2
0,35,0,0
0,79,0,33
0,69,58,10
0,77,105,1
0,62,117,0
0,62,95,2
0,69,0,2
0,60,0,2
0,62,0,18
0,45,0,21
0,34,110,2
0,35,120,0
0,69,58,0
0,62,0,2
0,57,0,1
0,33,0,0
0,46,101,0
0,53,95,0
0,35,0,2
0,69,0,0
0,69,58,43
0,84,94,1
0,62,117,0
0,65,112,2
0,77,0,1
0,69,0,1
0,62,0,14
0,84,0,16
0,35,120,13
0,69,117,0
0,60,111,3
0,69,0,2
0,35,0,0
0,69,58,43
0,58,117,1
0,58,111,2
0,69,0,2
0,58,0,12
0,46,0,9
0,34,0,1
0,38,110,21
0,35,120,0
0,69,58,0
0,53,0,2
0,60,0,0
0,58,0,0
0,65,0,0
0,50,101,1
0,57,95,0
0,69,0,2
0,35,0,0
0,69,58,43
0,62,117,1
0,62,112,2
0,69,0,2
0,62,0,13
0,35,120,30
0,69,117,0
0,65,111,3
0,69,0,2
0,35,0,0
0,50,0,34
0,38,0,5
0,36,110,4
0,69,58,0
0,60,117,1
0,57,0,1
0,65,0,0
0,62,0,0
0,48,101,1
0,55,95,0
0,60,95,0
0,64,111,0
0,69,0,2
0,60,0,13
0,35,120,30
0,69,58,0
0,69,0,5
0,35,0,0
0,69,58,43
0,77,101,1
0,60,117,0
0,69,0,4
0,60,0,13
0,35,120,30
0,69,117,0
0,69,0,5
0,35,0,0
0,77,0,9
0,69,58,34
0,77,100,1
0,60,117,0
0,69,0,4
0,60,0,13
0,35,120,30
0,69,58,0
0,69,0,5
0,35,0,0
0,77,0,40
0,69,58,3
0,72,97,1
0,60,117,0
0,69,0,4
0,60,0,12
0,72,0,8
0,35,120,23
0,69,117,0
0,72,96,1
0,74,94,0
0,69,0,4
0,35,0,0
0,72,0,14
0,69,58,29
0,60,117,1
0,69,0,4
0,60,0,11
0,36,0,0
0,48,0,14
0,74,0,1
0,64,0,12
0,55,0,2
0,34,110,3
0,35,120,0
0,69,58,0
0,72,112,1
0,60,0,1
0,46,101,1
0,53,101,0
0,69,0,2
0,35,0,0
0,72,0,21
0,69,58,22
0,62,117,1
0,65,111,2
0,69,0,2
0,62,0,13
0,35,120,30
0,69,117,0
0,60,111,3
0,69,0,2
0,35,0,0
0,69,58,43
0,58,117,1
0,58,111,2
0,69,0,2
0,34,0,13
0,58,0,2
0,53,0,1
0,46,0,6
0,65,0,9
0,36,110,12
0,35,120,0
0,69,58,0
0,48,101,3
0,55,111,0
0,69,0,2
0,35,0,0
0,60,0,7
0,58,0,0
0,69,58,36
0,60,117,1
0,60,111,2
0,69,0,2
0,60,0,13
0,35,120,30
0,69,117,0
0,64,111,3
0,69,0,2
0,35,0,0
0,55,0,20
0,48,0,11
0,60,0,1
0,64,0,3
0,36,0,3
0,38,110,5
0,69,58,0
0,62,117,1
0,50,101,2
0,57,95,0
0,62,95,0
0,65,111,0
0,69,0,2
0,62,0,12
0,35,120,31
0,69,58,0
0,69,0,5
0,35,0,0
0,69,58,43
0,74,105,1
0,62,117,0
0,69,0,4
0,62,0,13
0,74,0,4
0,35,120,26
0,69,117,0
0,77,108,1
0,69,0,4
0,35,0,0
0,77,0,42
0,69,58,1
0,74,102,1
0,62,117,0
0,69,0,4
0,62,0,5
0,74,0,14
0,62,117,1
0,62,0,12
0,35,120,11
0,69,58,0
0,81,110,1
0,57,117,0
0,69,0,4
0,35,0,0
0,57,0,19
0,81,0,20
0,69,58,4
0,79,108,1
0,62,117,0
0,69,0,4
0,62,0,11
0,79,0,25
0,35,120,7
0,69,117,0
0,57,117,1
0,69,0,4
0,35,0,0
0,57,0,11
0,69,58,32
0,77,108,1
0,55,117,0
0,69,0,4
0,55,0,11
0,65,0,13
0,57,0,3
0,38,0,1
0,62,0,1
0,50,0,7
0,34,110,7
0,35,120,0
0,69,58,0
0,53,117,1
0,46,101,2
0,53,95,0
0,69,0,2
0,35,0,0
0,53,0,15
0,69,58,28
0,53,117,1
0,65,112,2
0,69,0,2
0,77,0,14
0,53,0,6
0,35,120,23
0,69,117,0
0,60,111,3
0,69,0,2
0,35,0,0
0,69,58,43
0,53,117,1
0,58,111,2
0,69,0,2
0,53,0,19
0,46,0,4
0,34,0,2
0,38,110,18
0,35,120,0
0,69,58,0
0,53,0,2
0,60,0,0
0,58,0,0
0,65,0,0
0,50,101,1
0,57,95,0
0,69,0,2
0,35,0,0
0,69,58,43
0,53,117,1
0,62,112,2
0,69,0,2
0,53,0,17
0,35,120,26
0,69,117,0
0,65,111,3
0,69,0,2
0,35,0,0
0,50,0,33
0,38,0,0
0,36,110,10
0,69,58,0
0,53,117,1
0,57,0,1
0,65,0,0
0,62,0,0
0,48,101,1
0,55,95,0
0,60,95,0
0,64,111,0
0,69,0,2
0,53,0,13
0,35,120,30
0,69,58,0
0,74,105,1
0,69,0,4
0,35,0,0
0,74,0,39
0,69,58,4
0,77,97,1
0,60,117,0
0,69,0,4
0,60,0,14
0,77,0,16
0,35,120,13
0,69,117,0
0,77,103,1
0,69,0,4
0,35,0,0
0,77,0,43
0,69,58,0
0,74,106,1
0,60,117,0
0,69,0,4
0,60,0,17
0,74,0,4
0,35,120,22
0,69,58,0
0,81,113,1
0,69,0,4
0,35,0,0
0,69,58,43
0,79,96,1
0,60,117,0
0,69,0,4
0,81,0,4
0,60,0,12
0,35,120,27
0,69,117,0
0,77,103,1
0,69,0,4
0,35,0,0
0,79,0,2
0,77,0,25
0,69,58,16
0,77,108,1
0,60,117,0
0,69,0,4
0,60,0,20
0,36,0,11
0,64,0,7
0,55,0,2
0,41,110,3
0,35,120,0
0,69,58,0
0,65,80,1
0,69,80,0
0,72,80,0
0,65,112,0
0,60,0,1
0,53,95,1
0,65,90,0
0,35,0,2
