track,note,velocity,time
1,45,85,478
1,38,72,1
1,38,0,26
1,45,0,3
1,38,82,30
1,45,93,0
1,45,0,90
1,38,0,0
1,38,85,30
1,45,85,0
1,38,0,19
1,45,0,3
1,45,86,38
1,38,72,0
1,45,0,22
1,38,0,2
1,45,89,36
1,38,82,0
1,45,0,93
1,38,0,3
1,45,89,24
1,38,73,0
1,38,0,20
1,45,0,2
1,45,86,38
1,38,71,0
1,45,0,22
1,38,0,1
1,38,77,36
1,45,89,0
1,45,0,96
1,38,0,5
1,38,73,19
1,45,85,1
1,38,0,21
1,45,0,2
1,45,82,36
1,38,80,0
1,38,0,24
1,45,0,2
1,45,89,34
1,38,83,0
1,45,0,99
1,38,0,1
1,45,78,21
1,38,77,0
1,38,0,21
1,45,0,3
1,45,89,38
1,38,86,0
1,38,0,25
1,45,0,0
1,38,77,32
1,45,89,0
1,45,0,99
1,38,0,2
1,38,70,22
1,45,85,0
1,38,0,21
1,45,0,1
1,45,91,37
1,38,82,0
1,38,0,21
1,45,0,1
1,38,82,37
1,45,89,0
1,45,0,90
1,38,0,3
1,38,85,27
1,45,91,0
1,38,0,21
1,45,0,1
1,45,86,38
1,38,82,0
1,38,0,19
1,45,0,1
1,45,85,39
1,38,80,1
1,45,0,94
1,38,0,1
1,45,86,25
1,38,77,0
1,38,0,18
1,45,0,4
1,38,72,37
1,45,85,0
1,38,0,21
1,45,0,1
1,45,91,37
1,38,85,0
1,38,0,98
1,45,0,0
1,38,70,23
1,45,85,0
1,38,0,20
1,45,0,3
1,38,83,37
1,45,91,0
1,38,0,18
1,45,0,2
1,38,83,40
1,45,89,0
1,45,0,89
1,38,0,3
1,45,89,28
1,38,82,0
1,38,0,20
1,45,0,3
1,45,85,37
1,38,80,0
1,38,0,21
1,45,0,1
1,38,78,38
1,45,89,0
1,45,0,102
1,38,0,3
1,38,71,16
1,45,82,0
1,38,0,19
1,45,0,4
1,45,86,36
1,38,85,1
1,38,0,24
1,45,0,0
1,38,82,35
1,45,86,0
1,45,0,101
1,38,0,2
1,45,82,18
1,38,80,1
1,38,0,22
1,45,0,2
1,38,91,35
1,45,89,0
1,45,0,23
1,38,0,1
1,45,91,35
1,38,83,0
1,38,0,98
1,45,0,0
1,38,71,22
1,45,89,1
1,38,0,45
1,45,0,6
1,50,62,8
1,43,103,0
1,43,0,23
1,50,0,6
1,43,68,30
1,50,83,0
1,50,0,95
1,43,0,1
1,43,68,23
1,50,89,1
1,43,0,20
1,50,0,3
1,43,86,36
1,50,89,1
1,50,0,26
1,43,0,1
1,43,89,31
1,50,77,1
1,43,0,99
1,50,0,1
1,43,80,22
1,50,78,0
1,50,0,22
1,43,0,0
1,50,83,38
1,43,91,0
1,43,0,24
1,50,0,1
1,43,96,34
1,50,86,1
1,50,0,117
1,43,0,2
1,50,86,61
1,50,0,181
1,43,89,1
1,43,0,54
1,38,78,5
1,45,96,0
1,38,0,23
1,45,0,6
1,38,78,30
1,45,89,0
1,38,0,94
1,45,0,1
1,45,85,25
1,38,80,0
1,38,0,20
1,45,0,3
1,45,89,37
1,38,71,0
1,38,0,19
1,45,0,2
1,45,85,37
1,38,75,1
1,38,0,95
1,45,0,0
1,38,69,27
1,45,93,0
1,45,0,174
1,38,0,4
1,42,100,1
1,43,100,119
1,42,0,4
1,33,75,119
1,45,100,0
1,43,0,9
1,45,0,97
1,33,0,4
1,45,83,12
1,38,82,1
1,38,0,23
1,45,0,6
1,45,83,27
1,38,89,1
1,38,0,97
1,45,0,2
1,45,80,19
1,38,70,1
1,38,0,21
1,45,0,6
1,38,68,32
1,45,85,0
1,45,0,27
1,38,0,3
1,38,82,30
1,45,89,0
1,45,0,102
1,38,0,2
1,38,68,17
1,45,85,0
1,38,0,21
1,45,0,4
1,38,71,34
1,45,85,1
1,38,0,22
1,45,0,2
1,45,78,35
1,38,82,0
1,38,0,103
1,45,0,1
1,38,73,17
1,45,91,0
1,38,0,21
1,45,0,3
1,38,80,35
1,45,85,0
1,45,0,24
1,38,0,0
1,45,91,36
1,38,83,0
1,45,0,101
1,38,0,1
1,38,75,19
1,45,93,0
1,38,0,20
1,45,0,2
1,38,73,37
1,45,75,1
1,38,0,25
1,45,0,1
1,45,91,33
1,38,80,0
1,45,0,107
1,38,0,2
1,38,67,13
1,45,83,0
1,38,0,21
1,45,0,6
1,38,80,33
1,45,78,0
1,45,0,25
1,38,0,1
1,45,96,32
1,38,77,1
1,45,0,94
1,38,0,2
1,45,86,23
1,38,80,0
1,38,0,20
1,45,0,5
1,38,75,35
1,45,78,0
1,45,0,26
1,38,0,1
1,45,89,33
1,38,83,0
1,45,0,102
1,38,0,1
1,45,85,18
1,38,73,1
1,38,0,19
1,45,0,5
1,38,82,35
1,45,91,0
1,45,0,29
1,38,0,5
1,38,80,25
1,45,98,0
1,45,0,102
1,38,0,2
1,45,80,16
1,38,72,1
1,38,0,48
1,45,0,0
1,50,89,11
1,50,0,26
1,43,103,33
1,50,86,1
1,50,0,94
1,43,0,2
1,43,82,23
1,50,82,0
1,43,0,21
1,50,0,3
1,43,85,37
1,50,83,0
1,50,0,25
1,43,0,0
1,43,91,35
1,50,91,0
1,43,0,97
1,50,0,4
1,50,78,20
1,43,83,0
1,43,0,21
1,50,0,4
1,43,78,35
1,50,85,0
1,43,0,22
1,50,0,1
1,43,93,36
1,50,82,0
1,50,0,102
1,43,0,14
1,50,86,63
1,43,83,182
1,50,0,1
1,43,0,54
1,45,86,4
1,38,75,0
1,38,0,25
1,45,0,6
1,45,82,29
1,38,75,0
1,38,0,102
1,45,0,2
1,45,85,18
1,38,68,0
1,38,0,20
1,45,0,4
1,38,73,35
1,45,86,0
1,45,0,24
1,38,0,1
1,38,73,34
1,45,91,0
1,38,0,103
1,45,0,4
1,38,71,15
1,45,82,0
1,38,0,20
1,45,0,5
1,38,66,34
1,45,89,0
1,38,0,22
1,45,0,1
1,38,78,36
1,45,93,1
1,38,0,90
1,45,0,1
1,45,83,29
1,38,58,1
1,38,0,49
1,45,0,7
1,42,92,3
1,43,113,119
1,42,0,2
1,43,0,117
1,45,106,0
1,33,85,0
1,45,0,167
1,33,0,2
1,45,108,17
1,33,86,0
1,33,0,287
1,45,0,3
1,43,117,9
1,31,98,0
1,31,0,153
1,43,0,1
1,43,103,23
1,31,86,0
1,47,103,120
1,31,0,5
1,43,0,3
1,49,96,53
1,47,0,11
1,49,0,46
1,50,73,3
1,50,0,60
1,38,80,2
1,45,91,0
1,38,0,18
1,45,0,4
1,45,91,35
1,38,73,1
1,45,0,98
1,38,0,1
1,45,89,20
1,38,83,0
1,38,0,21
1,45,0,6
1,38,80,33
1,45,93,0
1,38,0,23
1,45,0,2
1,45,96,35
1,38,80,0
1,38,0,95
1,45,0,3
1,45,80,20
1,38,82,1
1,45,106,1
1,38,83,0
1,38,0,16
1,45,0,6
1,45,0,20
1,38,0,0
1,45,80,16
1,38,75,1
1,38,0,18
1,45,0,1
1,45,89,40
1,38,83,0
1,38,0,96
1,45,0,2
1,38,61,23
1,45,80,1
1,38,0,22
1,45,0,6
1,45,91,32
1,38,70,0
1,45,0,59
1,42,100,1
1,38,0,2
1,43,98,118
1,42,0,7
1,45,111,54
1,33,70,0
1,43,0,5
1,45,0,152
1,33,0,1
1,45,93,22
1,33,82,2
1,33,0,151
1,45,0,5
1,45,93,21
1,33,73,1
1,33,0,104
1,45,0,3
1,43,108,11
1,31,75,0
1,31,0,159
1,43,0,1
1,31,82,21
1,43,108,0
1,43,0,161
1,31,0,1
1,43,98,18
1,31,93,1
1,31,0,111
1,43,0,2
1,35,89,6
1,47,106,0
1,47,0,466
1,35,0,2
1,47,96,16
1,35,93,1
1,47,0,156
1,35,0,2
1,47,100,20
1,35,73,1
1,35,0,110
1,47,0,2
1,30,89,4
1,42,96,1
1,30,0,118
1,43,93,1
1,31,80,1
1,42,0,8
1,45,103,54
1,33,89,0
1,31,0,2
1,43,0,1
1,45,0,157
1,33,0,3
1,45,98,18
1,33,86,0
1,33,0,283
1,45,0,1
1,43,103,13
1,31,91,0
1,31,0,161
1,43,0,0
1,43,96,19
1,31,68,0
1,47,86,118
1,43,0,5
1,31,0,2
1,49,94,55
1,47,0,16
1,49,0,41
1,50,71,2
1,50,0,58
1,45,89,3
1,38,70,0
1,38,0,25
1,45,0,8
1,45,89,27
1,38,78,0
1,38,0,101
1,45,0,0
1,45,83,18
1,38,63,0
1,38,0,27
1,45,0,4
1,45,80,29
1,38,66,0
1,38,0,28
1,45,0,1
1,38,73,31
1,45,86,0
1,45,0,94
1,38,0,0
1,45,83,25
1,38,73,0
1,38,0,25
1,45,0,3
1,38,71,32
1,45,93,1
1,38,0,24
1,45,0,2
1,38,86,33
1,45,96,0
1,45,0,98
1,38,0,2
1,45,85,21
1,38,63,0
1,38,0,22
1,45,0,9
1,45,89,28
1,38,69,1
1,38,0,59
1,45,0,0
1,42,104,1
1,43,108,119
1,42,0,12
1,45,111,48
1,33,89,0
1,43,0,1
1,31,75,482
1,43,117,1
1,33,0,4
1,45,0,2
1,31,0,464
1,43,0,1
1,40,100,6
1,28,82,1
1,40,0,277
1,40,93,22
1,28,0,17
1,42,82,44
1,40,0,10
1,43,93,50
1,42,0,4
1,33,96,57
1,45,117,1
1,43,0,1
1,45,0,330
1,45,96,28
1,45,0,87
1,33,0,1
1,45,89,32
1,38,86,0
1,38,0,25
1,45,0,0
1,38,77,32
1,45,89,0
1,45,0,99
1,38,0,2
1,38,70,22
1,45,85,0
1,38,0,21
1,45,0,1
1,45,91,37
1,38,82,0
1,38,0,21
1,45,0,1
1,38,82,37
1,45,89,0
1,45,0,90
1,38,0,3
1,38,85,27
1,45,91,0
1,38,0,21
1,45,0,1
1,45,86,38
1,38,82,0
1,38,0,19
1,45,0,1
1,45,85,39
1,38,80,1
1,45,0,94
1,38,0,1
1,45,86,25
1,38,77,0
1,38,0,18
1,45,0,4
1,38,72,37
1,45,85,0
1,38,0,21
1,45,0,1
1,45,91,37
1,38,85,0
1,38,0,98
1,45,0,0
1,38,70,23
1,45,85,0
1,38,0,20
1,45,0,3
1,38,83,37
1,45,91,0
1,38,0,18
1,45,0,2
1,38,83,40
1,45,89,0
1,45,0,89
1,38,0,3
1,45,89,28
1,38,82,0
1,38,0,20
1,45,0,3
1,45,85,37
1,38,80,0
1,38,0,21
1,45,0,1
1,38,78,38
1,45,89,0
1,45,0,102
1,38,0,3
1,38,71,16
1,45,82,0
1,38,0,19
1,45,0,4
1,45,86,36
1,38,85,1
1,38,0,24
1,45,0,0
1,38,82,35
1,45,86,0
1,45,0,101
1,38,0,2
1,45,82,18
1,38,80,1
1,38,0,22
1,45,0,2
1,38,91,35
1,45,89,0
1,45,0,23
1,38,0,1
1,45,91,35
1,38,83,0
1,38,0,98
1,45,0,0
1,38,71,22
1,45,89,1
1,38,0,45
1,45,0,6
1,50,62,8
1,43,103,0
1,43,0,23
1,50,0,6
1,43,68,30
1,50,83,0
1,50,0,95
1,43,0,1
1,43,68,23
1,50,89,1
1,43,0,20
1,50,0,3
1,43,86,36
1,50,89,1
1,50,0,26
1,43,0,1
1,43,89,31
1,50,77,1
1,43,0,99
1,50,0,1
1,43,80,22
1,50,78,0
1,50,0,22
1,43,0,0
1,50,83,38
1,43,91,0
1,43,0,24
1,50,0,1
1,43,96,34
1,50,86,1
1,50,0,117
1,43,0,2
1,50,86,61
1,50,0,181
1,43,89,1
1,43,0,54
1,38,78,5
1,45,96,0
1,38,0,23
1,45,0,6
1,38,78,30
1,45,89,0
1,38,0,94
1,45,0,1
1,45,85,25
1,38,80,0
1,38,0,20
1,45,0,3
1,45,89,37
1,38,71,0
1,38,0,19
1,45,0,2
1,45,85,37
1,38,75,1
1,38,0,95
1,45,0,0
1,38,69,27
1,45,93,0
1,45,0,174
1,38,0,4
1,42,100,1
1,43,100,119
1,42,0,4
1,33,75,119
1,45,100,0
1,43,0,9
1,45,0,97
1,33,0,4
1,45,83,12
1,38,82,1
1,38,0,23
1,45,0,6
1,45,83,27
1,38,89,1
1,38,0,97
1,45,0,2
1,45,80,19
1,38,70,1
1,38,0,21
1,45,0,6
1,38,68,32
1,45,85,0
1,45,0,27
1,38,0,3
1,38,82,30
1,45,89,0
1,45,0,102
1,38,0,2
1,38,68,17
1,45,85,0
1,38,0,21
1,45,0,4
1,38,71,34
1,45,85,1
1,38,0,22
1,45,0,2
1,45,78,35
1,38,82,0
1,38,0,103
1,45,0,1
1,38,73,17
1,45,91,0
1,38,0,21
1,45,0,3
1,38,80,35
1,45,85,0
1,45,0,24
1,38,0,0
1,45,91,36
1,38,83,0
1,45,0,101
1,38,0,1
1,38,75,19
1,45,93,0
1,38,0,20
1,45,0,2
1,38,73,37
1,45,75,1
1,38,0,25
1,45,0,1
1,45,91,33
1,38,80,0
1,45,0,107
1,38,0,2
1,38,67,13
1,45,83,0
1,38,0,21
1,45,0,6
1,38,80,33
1,45,78,0
1,45,0,25
1,38,0,1
1,45,96,32
1,38,77,1
1,45,0,94
1,38,0,2
1,45,86,23
1,38,80,0
1,38,0,20
1,45,0,5
1,38,75,35
1,45,78,0
1,45,0,26
1,38,0,1
1,45,89,33
1,38,83,0
1,45,0,102
1,38,0,1
1,45,85,18
1,38,73,1
1,38,0,19
1,45,0,5
1,38,82,35
1,45,91,0
1,45,0,29
1,38,0,5
1,38,80,25
1,45,98,0
1,45,0,102
1,38,0,2
1,45,80,16
1,38,72,1
1,38,0,48
1,45,0,0
1,50,89,11
1,50,0,26
1,43,103,33
1,50,86,1
1,50,0,94
1,43,0,2
1,43,82,23
1,50,82,0
1,43,0,21
1,50,0,3
1,43,85,37
1,50,83,0
1,50,0,25
1,43,0,0
1,43,91,35
1,50,91,0
1,43,0,97
1,50,0,4
1,50,78,20
1,43,83,0
1,43,0,21
1,50,0,4
1,43,78,35
1,50,85,0
1,43,0,22
1,50,0,1
1,43,93,36
1,50,82,0
1,50,0,102
1,43,0,14
1,50,86,63
1,43,83,182
1,50,0,1
1,43,0,54
1,45,86,4
1,38,75,0
1,38,0,25
1,45,0,6
1,45,82,29
1,38,75,0
1,38,0,102
1,45,0,2
1,45,85,18
1,38,68,0
1,38,0,20
1,45,0,4
1,38,73,35
1,45,86,0
1,45,0,24
1,38,0,1
1,38,73,34
1,45,91,0
1,38,0,103
1,45,0,4
1,38,71,15
1,45,82,0
1,38,0,20
1,45,0,5
1,38,66,34
1,45,89,0
1,38,0,22
1,45,0,1
1,38,78,36
1,45,93,1
1,38,0,90
1,45,0,1
1,45,83,29
1,38,58,1
1,38,0,49
1,45,0,7
1,42,92,3
1,43,113,119
1,42,0,2
1,43,0,117
1,45,106,0
1,33,85,0
1,45,0,167
1,33,0,2
1,45,108,17
1,33,86,0
1,33,0,287
1,45,0,3
1,43,117,9
1,31,98,0
1,31,0,153
1,43,0,1
1,43,103,23
1,31,86,0
1,47,103,120
1,31,0,5
1,43,0,3
1,49,96,53
1,47,0,11
1,49,0,46
1,50,73,3
1,50,0,60
1,38,80,2
1,45,91,0
1,38,0,18
1,45,0,4
1,45,91,35
1,38,73,1
1,45,0,98
1,38,0,1
1,45,89,20
1,38,83,0
1,38,0,21
1,45,0,6
1,38,80,33
1,45,93,0
1,38,0,23
1,45,0,2
1,45,96,35
1,38,80,0
1,38,0,95
1,45,0,3
1,45,80,20
1,38,82,1
1,45,106,1
1,38,83,0
1,38,0,16
1,45,0,6
1,45,0,20
1,38,0,0
1,45,80,16
1,38,75,1
1,38,0,18
1,45,0,1
1,45,89,40
1,38,83,0
1,38,0,96
1,45,0,2
1,38,61,23
1,45,80,1
1,38,0,22
1,45,0,6
1,45,91,32
1,38,70,0
1,45,0,59
1,42,100,1
1,38,0,2
1,43,98,118
1,42,0,7
1,45,111,54
1,33,70,0
1,43,0,5
1,45,0,152
1,33,0,1
1,45,93,22
1,33,82,2
1,33,0,151
1,45,0,5
1,45,93,21
1,33,73,1
