track,note,velocity,time
1,78,126,55804
1,78,126,40
1,79,126,40
1,81,126,40
1,81,126,78
1,80,126,78
1,80,126,40
1,80,126,32
1,81,126,40
1,81,126,78
1,79,126,78
1,81,126,40
1,78,126,40
1,81,126,40
1,81,126,78
1,83,126,78
1,81,126,78
1,78,126,1038
1,78,126,40
1,80,102,40
1,81,126,40
1,81,126,78
1,80,126,78
1,80,126,40
1,80,126,32
1,81,126,40
1,81,126,78
1,81,126,40
1,76,126,16
1,81,126,40
1,78,126,232
1,81,126,40
1,81,126,0
1,81,126,40
1,83,126,40
1,81,127,40
1,81,126,60
1,81,126,116
1,80,126,0
1,80,126,116
1,79,126,0
1,79,126,116
1,81,126,0
1,78,126,116
1,81,126,1152
1,81,126,116
1,80,126,0
1,80,126,116
1,81,126,0
1,81,126,40
1,81,126,40
1,81,126,78
1,83,126,40
1,81,126,0
1,83,126,1614
1,83,126,40
1,83,126,40
1,83,126,40
1,83,126,40
1,83,126,40
1,81,126,78
1,83,126,1422
1,83,126,40
1,83,126,40
1,83,126,40
1,83,126,40
1,83,126,40
1,86,126,40
1,81,126,78
1,83,126,1038
1,83,126,40
1,83,126,40
1,83,126,40
1,83,126,40
1,83,126,40
1,83,126,78
1,86,126,40
1,83,126,40
1,81,126,78
1,81,126,40
1,81,126,232
1,86,126,40
1,83,126,40
1,81,126,78
1,83,126,0
1,83,126,884
1,81,127,154
1,83,126,1542
1,84,126,56
1,84,126,78
1,83,126,78
1,83,126,78
1,81,126,78
1,83,126,462
1,81,126,154
1,83,126,1548
1,86,126,78
1,85,126,78
1,83,126,78
1,81,126,78
1,83,126,20
1,81,126,20
1,79,125,40
1,83,126,796
1,81,126,78
1,79,126,462
1,83,126,78
1,81,126,78
1,83,126,462
1,84,126,78
1,83,126,78
1,84,126,78
1,83,126,78
1,81,126,78
1,83,126,20
1,81,126,20
1,79,126,40
1,78,126,17868
1,80,126,40
1,81,126,40
1,81,126,78
1,80,126,78
1,80,126,40
1,80,126,48
1,81,126,40
1,81,126,78
1,81,126,82
1,81,126,34
1,81,126,78
1,81,126,78
1,79,126,76
1,78,126,40
1,78,126,1384
1,78,126,40
1,80,126,40
1,81,126,40
1,81,126,78
1,80,126,78
1,80,126,40
1,81,125,112
1,81,126,18
1,81,126,38
1,81,126,100
1,83,126,106
1,86,126,110
1,83,126,40
1,81,126,16
1,81,126,40
1,81,126,1384
1,81,126,116
1,83,126,0
1,83,126,116
1,84,126,0
1,84,126,116
1,83,126,0
1,81,126,116
1,81,126,1152
1,81,126,116
1,83,126,0
1,83,126,116
1,83,126,560
1,83,126,40
1,83,126,40
1,83,126,40
1,83,126,40
1,84,126,78
1,81,126,40
1,83,126,1038
1,83,126,40
1,83,126,40
1,83,126,40
1,83,126,40
1,83,126,40
1,86,126,40
1,81,126,78
1,84,124,1230
1,84,126,20
1,84,126,40
1,83,126,40
1,81,126,40
1,83,126,78
1,84,126,40
1,84,126,40
1,83,126,78
1,81,126,40
1,83,126,78
1,83,126,40
1,84,126,40
1,84,126,40
1,84,126,40
1,83,126,40
1,81,126,40
1,83,126,78
1,81,126,40
1,83,126,462
1,83,126,78
1,85,126,78
1,83,126,27956
1,81,124,154
1,83,126,1560
1,84,126,78
1,84,126,78
1,83,126,78
1,83,126,78
1,81,126,78
1,83,126,462
1,81,123,154
1,86,126,1548
1,86,126,78
1,85,126,78
1,83,126,78
1,81,126,78
1,83,126,20
1,81,126,20
1,79,127,40
1,83,126,972
1,81,126,78
1,79,126,462
1,83,126,78
1,81,126,78
1,83,126,462
1,84,126,78
1,84,126,78
1,84,126,78
1,83,126,78
1,81,126,78
1,83,126,20
1,81,126,20
1,79,126,40
1,79,126,2074
1,79,126,40
1,79,126,78
1,79,126,1924
1,79,126,40
1,79,126,78
1,79,126,16
1,81,126,1614
1,81,126,40
1,81,126,40
1,81,126,40
1,81,126,40
1,83,126,40
1,81,126,78
1,81,126,1422
1,81,126,40
1,81,126,40
1,81,126,40
1,81,126,40
1,83,126,40
1,81,126,78
1,84,126,1038
1,84,126,40
1,84,126,78
1,84,126,40
1,84,126,616
1,84,126,40
1,84,126,78
1,84,126,40
1,84,126,1192
1,84,126,78
1,84,126,40
1,84,126,40
1,84,126,78
1,81,126,40
1,84,126,40
1,84,126,40
1,84,126,40
1,84,126,78
1,84,126,462
1,84,126,78
1,86,126,654
1,84,125,40
1,84,126,82
1,84,126,656
1,84,126,78
1,86,126,654
1,84,125,40
1,84,126,94
2,74,97,55750
2,74,75,40
2,76,73,24
2,78,90,50
2,78,95,142
2,76,88,236
2,76,73,84
2,74,81,114
2,76,83,42
2,76,75,128
2,76,76,148
2,76,70,20
2,78,83,26
2,78,75,14
2,78,78,130
2,79,72,102
2,78,68,92
2,74,98,996
2,74,75,36
2,76,73,24
2,78,90,50
2,78,96,142
2,76,88,140
2,76,72,44
2,74,81,60
2,76,83,42
2,76,75,128
2,76,76,26
2,76,66,44
2,78,83,40
2,78,75,210
2,78,78,18
2,78,99,42
2,78,104,34
2,79,72,36
2,78,64,56
2,78,104,66
2,74,100,0
2,78,107,68
2,74,95,0
2,76,90,80
2,74,85,0
2,71,86,0
2,71,86,64
2,74,94,0
2,76,94,0
2,72,94,92
2,76,95,0
2,76,100,66
2,72,88,0
2,78,116,100
2,74,104,0
2,69,80,52
2,74,100,0
2,78,83,1542
2,74,92,0
2,74,87,72
2,78,79,0
2,76,91,176
2,71,83,0
2,74,86,0
2,76,78,64
2,74,70,0
2,71,66,0
2,76,126,6544
2,79,126,0
2,76,126,40
2,79,126,0
2,76,126,40
2,79,126,0
2,76,126,40
2,79,126,0
2,76,126,40
2,79,126,0
2,76,126,40
2,79,126,0
2,74,126,78
2,78,126,0
2,76,126,1038
2,79,126,0
2,76,126,40
2,79,126,0
2,76,126,40
2,79,126,0
2,76,126,40
2,79,126,0
2,76,126,40
2,79,126,0
2,76,126,40
2,79,126,0
2,76,126,78
2,79,126,0
2,76,126,40
2,79,126,0
2,76,126,40
2,79,126,0
2,74,126,78
2,78,126,0
2,74,126,40
2,78,126,0
2,74,126,232
2,78,126,0
2,79,126,40
2,76,96,4
2,76,126,36
2,79,126,0
2,74,126,78
2,78,126,0
2,76,126,0
2,79,126,0
2,79,100,884
2,74,100,0
2,74,82,154
2,78,83,0
2,79,100,4232
2,74,100,0
2,74,82,154
2,78,83,0
2,79,126,5004
2,74,126,0
2,78,126,74
2,74,126,0
2,78,126,462
2,74,126,0
2,79,126,78
2,74,126,0
2,78,126,78
2,74,126,0
2,74,126,462
2,78,126,4
2,74,117,74
2,79,126,0
2,74,114,78
2,79,126,0
2,74,114,78
2,79,126,0
2,78,126,78
2,74,126,0
2,76,126,78
2,72,126,0
2,72,127,70
2,76,127,0
2,74,126,17864
2,75,126,40
2,78,126,40
2,78,126,74
2,76,126,80
2,76,126,40
2,76,126,48
2,76,126,40
2,76,126,78
2,76,126,82
2,78,126,34
2,78,126,78
2,78,126,78
2,76,126,76
2,74,126,40
2,74,126,1384
2,74,126,40
2,75,126,40
2,78,126,40
2,78,126,78
2,76,126,78
2,76,126,40
2,76,125,112
2,76,126,18
2,76,126,38
2,76,126,100
2,79,126,106
2,83,126,110
2,79,126,40
2,78,126,16
2,78,126,40
2,74,102,1384
2,78,126,0
2,74,100,102
2,78,126,4
2,80,126,8
2,76,100,4
2,80,126,114
2,76,100,6
2,79,126,0
2,76,106,4
2,76,106,96
2,79,126,4
2,78,126,8
2,74,103,0
2,74,101,98
2,78,126,14
2,74,102,1152
2,78,126,0
2,74,100,102
2,78,126,4
2,76,89,8
2,80,107,2
2,76,91,314
2,80,110,0
2,79,126,666
2,79,126,40
2,79,126,40
2,79,126,40
2,79,126,40
2,79,126,82
2,78,126,36
2,79,126,1038
2,79,126,40
2,79,126,40
2,79,126,40
2,79,126,40
2,79,126,40
2,83,126,40
2,78,126,82
2,79,126,1224
2,81,126,0
2,79,126,28
2,81,126,0
2,79,126,40
2,81,126,0
2,79,126,40
2,81,126,0
2,79,126,40
2,81,126,0
2,79,126,78
2,81,126,0
2,78,126,40
2,81,126,0
2,78,126,40
2,81,126,0
2,78,126,78
2,81,126,0
2,78,126,40
2,81,126,0
2,78,126,78
2,81,126,0
2,78,126,40
2,81,126,0
2,79,126,36
2,81,126,0
2,79,126,44
2,81,126,0
2,79,126,44
2,81,126,0
2,79,126,36
2,81,126,0
2,79,126,40
2,81,126,0
2,79,126,78
2,81,126,0
2,78,126,40
2,81,126,0
2,76,126,462
2,80,126,0
2,76,126,78
2,80,126,0
2,76,126,78
2,81,126,0
2,79,100,27956
2,74,100,0
2,74,82,154
2,78,83,0
2,79,100,4232
2,74,100,0
2,74,82,154
2,78,83,0
2,79,126,5004
2,74,126,0
2,78,126,74
2,74,126,0
2,78,126,462
2,74,126,0
2,79,126,78
2,74,126,0
2,78,126,78
2,74,126,0
2,74,126,462
2,78,126,4
2,74,117,74
2,79,126,0
2,74,114,78
2,79,126,0
2,74,114,78
2,79,126,0
2,78,126,78
2,74,126,0
2,76,126,78
2,72,126,0
2,76,126,70
2,72,126,0
2,72,126,2074
2,76,126,0
2,72,126,40
2,76,126,0
2,72,126,78
2,76,126,0
2,72,126,1924
2,76,126,0
2,72,126,40
2,76,126,0
2,72,126,78
2,76,126,0
2,72,126,16
2,76,126,0
2,74,126,1614
2,78,126,0
2,74,126,40
2,78,126,0
2,74,126,40
2,78,126,0
2,74,126,40
2,78,126,0
2,74,126,40
2,78,126,0
2,76,126,40
2,79,126,0
2,74,126,78
2,78,126,0
2,74,126,1422
2,78,126,0
2,74,126,40
2,78,126,0
2,74,126,40
2,78,126,0
2,74,126,40
2,78,126,0
2,74,126,40
2,78,126,0
2,76,126,40
2,79,126,0
2,74,126,78
2,78,126,0
2,81,126,1038
2,78,126,4
2,78,126,36
2,81,126,0
2,78,126,78
2,81,126,0
2,78,126,40
2,81,126,0
2,78,126,616
2,81,126,0
2,78,126,40
2,81,126,0
2,79,126,78
2,81,126,0
2,79,126,40
2,81,126,0
2,79,126,1192
2,81,126,0
2,79,126,78
2,81,126,0
2,79,126,40
2,81,126,0
2,79,126,40
2,81,126,0
2,79,126,78
2,81,126,0
2,74,126,40
2,78,126,0
2,78,126,40
2,81,126,0
2,78,126,40
2,81,126,0
2,78,126,40
2,81,126,0
2,78,126,78
2,81,126,0
2,79,126,462
2,81,126,0
2,79,126,78
2,81,126,0
2,79,126,654
2,83,126,0
2,79,125,40
2,81,125,0
2,79,126,82
2,81,126,0
2,81,126,656
2,79,126,4
2,79,126,74
2,81,126,0
2,79,126,654
2,83,126,0
2,79,125,40
2,81,125,0
2,79,126,94
2,81,126,0
3,85,80,0
3,81,80,0
3,76,80,0
3,83,80,116
3,80,80,0
3,76,80,0
3,85,80,232
3,81,80,0
3,76,80,0
3,86,80,12
3,81,80,0
3,78,80,0
3,85,80,14
3,81,80,0
3,76,80,0
3,83,80,140
3,80,80,0
3,76,80,0
3,85,80,40
3,81,80,0
3,76,80,0
3,76,80,28
3,81,80,0
3,85,80,0
3,76,80,116
3,80,80,0
3,83,80,0
3,76,80,146
3,81,80,0
3,85,80,0
3,78,80,232
3,81,80,0
3,86,80,0
3,76,80,232
3,81,80,0
3,85,80,0
3,76,80,230
3,80,80,0
3,83,80,0
3,76,80,40
3,81,80,0
3,85,80,0
3,85,80,102
3,81,80,0
3,76,80,0
3,83,80,116
3,80,80,0
3,76,80,0
3,85,80,134
3,81,80,0
3,76,80,0
3,86,80,122
3,81,80,0
3,78,80,0
3,85,80,60
3,81,80,0
3,76,80,0
3,83,80,220
3,80,80,0
3,76,80,0
3,81,80,36
3,78,80,4
3,74,80,0
3,85,80,8
3,81,80,0
3,78,80,0
3,83,80,0
3,80,80,0
3,76,80,0
3,81,80,154
3,78,80,0
3,74,80,0
3,74,80,40
3,78,80,0
3,81,80,0
3,81,80,40
3,78,80,0
3,74,80,0
3,76,80,232
3,81,80,0
3,85,80,0
3,76,80,116
3,80,80,0
3,83,80,0
3,76,80,232
3,81,80,0
3,85,80,0
3,78,80,232
3,81,80,0
3,86,80,0
3,76,80,232
3,81,80,0
3,85,80,0
3,76,80,232
3,80,80,0
3,83,80,0
3,76,80,40
3,81,80,0
3,85,80,0
3,85,80,232
3,81,80,0
3,76,80,0
3,83,80,116
3,80,80,0
3,76,80,0
3,85,80,232
3,81,80,0
3,76,80,0
3,86,80,232
3,81,80,0
3,78,80,0
3,85,80,232
3,81,80,0
3,76,80,0
3,83,80,232
3,80,80,0
3,76,80,0
3,85,80,40
3,81,80,0
3,76,80,0
3,76,80,232
3,81,80,0
3,85,80,0
3,76,80,116
3,80,80,0
3,83,80,0
3,76,80,232
3,81,80,0
3,85,80,0
3,78,80,232
3,81,80,0
3,86,80,0
3,76,80,232
3,81,80,0
3,85,80,0
3,76,80,232
3,80,80,0
3,83,80,0
3,86,80,40
3,81,80,0
3,78,80,0
3,78,80,116
3,81,80,0
3,85,80,0
3,76,80,0
3,80,80,0
3,83,80,0
3,81,114,154
3,78,114,0
3,74,114,0
3,81,113,78
3,78,113,0
3,74,113,0
3,81,116,80
3,78,116,0
3,74,116,0
3,85,85,278
3,81,87,0
3,76,83,0
3,83,84,98
3,80,82,0
3,76,83,0
3,80,83,98
3,83,82,0
3,76,81,0
3,85,82,98
3,76,82,0
3,81,86,0
3,85,83,98
3,81,85,0
3,76,82,0
3,86,84,98
3,78,83,0
3,81,87,0
3,86,82,98
3,78,80,0
3,81,85,0
3,85,80,98
3,81,85,0
3,76,82,0
3,85,82,98
3,81,85,0
3,76,81,0
3,83,85,98
3,80,82,0
3,76,81,0
3,85,82,98
3,81,84,0
3,76,80,0
3,85,81,98
3,76,82,0
3,81,85,0
3,85,81,98
3,81,85,0
3,76,81,0
3,85,83,98
3,81,87,0
3,76,84,0
3,81,87,98
3,85,85,0
3,76,83,0
3,80,82,98
3,76,83,0
3,83,84,0
3,80,83,98
3,83,82,0
3,76,81,0
3,85,82,98
3,76,82,0
3,81,86,0
3,85,83,98
3,81,85,0
3,76,82,0
3,86,84,98
3,78,83,0
3,81,87,0
3,86,82,98
3,78,80,0
3,81,85,0
3,85,80,98
3,81,85,0
3,76,82,0
3,85,82,98
3,81,85,0
3,76,81,0
3,83,85,98
3,80,82,0
3,76,81,0
3,85,82,98
3,81,84,0
3,76,80,0
3,85,81,98
3,76,82,0
3,81,85,0
3,85,81,98
3,81,85,0
3,76,81,0
3,85,83,98
3,81,87,0
3,76,84,0
3,85,85,98
3,81,87,0
3,76,83,0
3,80,82,98
3,76,83,0
3,83,84,0
3,80,83,98
3,83,82,0
3,76,81,0
3,85,82,98
3,76,82,0
3,81,86,0
3,85,83,98
3,81,85,0
3,76,82,0
3,86,84,98
3,78,83,0
3,81,87,0
3,86,82,98
3,78,80,0
3,81,85,0
3,85,81,98
3,81,80,0
3,76,78,0
3,85,79,98
3,81,80,0
3,76,80,0
3,76,83,98
3,80,81,0
3,83,79,0
3,78,81,98
3,81,81,0
3,86,80,0
3,86,80,98
3,81,80,0
3,78,80,0
3,78,80,98
3,81,80,0
3,86,81,0
3,85,80,98
3,81,80,0
3,78,80,0
3,81,81,98
3,78,80,0
3,85,80,0
3,78,80,98
3,81,80,0
3,85,81,0
3,80,80,98
3,76,80,0
3,83,80,0
3,76,80,98
3,80,80,0
3,83,80,0
3,80,80,98
3,76,80,0
3,83,80,0
3,80,80,98
3,76,80,0
3,83,80,0
3,74,80,98
3,78,80,0
3,81,80,0
3,74,80,98
3,78,80,0
3,81,80,0
3,74,80,98
3,78,80,0
3,81,80,0
3,74,80,98
3,78,81,0
3,81,80,0
3,85,80,98
3,81,80,0
3,83,80,116
3,80,80,0
3,85,80,232
3,81,80,0
3,86,80,232
3,81,80,0
3,85,80,40
3,81,80,0
3,83,80,78
3,80,80,0
3,81,80,40
3,85,80,0
3,81,80,232
3,85,80,0
3,80,80,116
3,83,80,0
3,81,80,232
3,85,80,0
3,81,80,232
3,86,80,0
3,85,80,40
3,81,80,0
