track,note,velocity,time
1,62,75,0
1,64,77,192
1,69,80,192
1,62,75,192
1,64,78,80
1,66,85,80
1,62,75,80
1,64,90,80
1,62,75,80
1,64,95,80
1,64,100,80
1,62,76,80
1,64,95,80
1,66,80,80
1,62,75,192
1,64,100,80
1,62,80,80
1,64,100,80
1,62,80,80
1,64,100,80
1,64,127,80
1,66,75,80
1,62,75,80
1,64,105,80
1,62,90,656
1,69,75,192
1,64,75,0
1,71,80,192
1,66,80,0
1,62,90,4
1,69,80,192
1,64,80,0
1,71,85,4
1,66,85,0
1,62,95,4
1,71,85,192
1,66,85,0
1,57,90,4
1,69,80,4
1,64,80,0
1,71,85,192
1,66,85,0
1,71,75,156
1,69,85,40
1,64,85,0
1,71,90,4
1,66,90,0
1,57,90,4
1,71,90,192
1,66,90,0
1,59,90,4
1,69,80,4
1,64,80,0
1,71,85,192
1,66,85,0
1,59,90,4
1,69,80,192
1,64,80,0
1,71,85,4
1,66,85,0
1,59,95,4
1,71,85,192
1,62,85,0
1,55,100,4
1,74,100,0
1,66,100,0
1,64,90,4
1,67,85,192
1,62,80,4
1,64,95,4
1,69,90,0
1,55,80,4
1,64,90,192
1,55,85,4
1,62,90,4
1,69,75,192
1,64,75,0
1,71,80,192
1,66,80,0
1,62,90,4
1,69,80,192
1,64,80,0
1,71,85,4
1,66,85,0
1,62,95,4
1,71,85,192
1,66,85,0
1,57,90,4
1,69,80,4
1,64,80,0
1,71,85,192
1,66,85,0
1,57,90,4
1,71,75,152
1,69,85,40
1,64,85,0
1,71,90,4
1,66,90,0
1,57,90,4
1,71,90,192
1,66,90,0
1,71,85,4
1,62,85,0
1,74,100,0
1,66,100,0
1,59,100,0
1,64,90,4
1,67,85,192
1,62,80,4
1,69,95,4
1,62,95,0
1,55,95,0
1,62,90,772
1,64,85,192
1,66,85,192
1,62,90,192
1,74,85,80
1,64,85,80
1,62,90,80
1,69,85,80
1,57,85,80
1,61,85,4
1,62,85,80
1,57,85,4
1,61,85,80
1,62,85,4
1,57,85,4
1,61,100,80
1,55,95,4
1,59,90,4
1,62,90,80
1,55,100,4
1,62,95,80
1,59,90,4
1,55,95,4
1,59,95,4
1,61,90,4
1,62,95,80
1,59,90,192
1,71,95,4
1,66,95,4
1,59,100,4
1,64,85,4
1,57,90,4
1,69,95,4
1,62,80,4
1,61,75,192
1,69,100,4
1,62,95,0
1,69,95,192
1,61,90,0
1,57,70,4
1,57,80,4
1,62,75,0
1,59,80,4
1,62,80,0
1,55,80,4
1,62,80,0
1,59,80,4
1,62,80,4
1,57,80,0
1,55,100,192
1,57,85,4
1,57,85,4
1,57,80,4
1,59,85,580
1,61,100,192
1,57,90,196
1,57,100,196
1,62,100,4
1,66,100,192
1,74,100,192
1,78,100,4
1,86,100,0
1,85,100,196
1,76,100,0
1,83,90,4
1,74,90,0
1,81,80,4
1,73,80,0
1,74,95,192
1,73,80,4
1,81,85,0
1,67,90,192
1,67,100,4
1,69,80,4
1,71,85,4
1,67,85,4
1,69,80,4
1,71,85,192
1,67,85,4
1,69,80,4
1,66,100,4
1,74,100,4
1,71,100,4
1,83,100,192
1,74,100,0
1,83,100,4
1,74,100,0
1,69,100,192
1,69,100,196
1,81,100,4
1,73,100,0
1,74,100,192
1,81,100,4
1,73,100,0
1,67,100,4
1,67,100,4
1,69,100,4
1,74,100,0
1,69,100,4
1,64,100,0
1,57,100,384
1,62,100,0
1,57,100,196
1,64,100,580
1,61,100,192
1,64,100,4
1,61,100,4
1,66,65,0
1,62,100,4
1,61,100,4
1,62,100,4
1,61,100,4
1,62,100,4
1,61,100,4
1,62,100,4
1,61,100,4
1,62,100,4
1,59,90,4
1,64,90,4
1,66,90,4
1,67,90,4
1,57,90,580
1,62,90,192
1,64,90,4
1,66,90,4
1,69,90,0
1,62,90,4
1,66,90,0
1,62,90,4
1,57,90,388
1,56,90,192
1,57,90,4
1,66,60,196
1,73,60,252
1,75,60,252
1,71,60,252
1,59,90,252
1,64,90,192
1,66,90,4
1,67,90,4
1,57,90,580
1,62,90,192
1,64,90,4
1,66,90,4
1,69,90,0
1,62,90,4
1,66,90,0
1,62,90,4
1,57,90,388
1,56,90,192
1,57,90,4
1,66,60,196
1,73,60,252
1,75,60,252
1,71,60,252
1,59,90,252
1,64,90,192
1,66,90,4
1,67,90,4
1,57,90,580
1,62,90,192
1,64,90,4
1,66,90,4
1,69,90,0
1,62,90,4
1,66,90,0
1,62,90,4
1,57,90,388
1,56,90,192
1,57,90,4
1,66,60,196
1,73,60,252
1,75,60,252
1,71,60,252
1,57,100,5052
1,56,100,40
1,57,100,40
1,57,100,60
1,57,100,0
1,74,90,0
1,76,90,4
1,78,95,40
1,74,90,192
1,74,100,4
1,78,100,4
1,86,100,0
1,74,70,4
1,85,100,192
1,76,100,0
1,74,75,40
1,83,90,4
1,74,90,0
1,73,75,192
1,81,80,4
1,73,80,0
1,74,95,192
1,73,80,4
1,81,85,0
1,67,90,192
1,67,90,4
1,69,75,4
1,71,80,4
1,67,80,4
1,69,80,4
1,71,80,192
1,79,100,4
1,71,100,0
1,69,75,4
1,66,100,4
1,74,90,4
1,71,95,4
1,83,100,192
1,74,90,0
1,74,90,4
1,83,90,4
1,83,74,4
1,74,100,0
1,69,100,192
1,69,100,196
1,81,100,4
1,73,100,0
1,74,100,192
1,81,100,4
1,73,100,0
1,67,85,4
1,67,85,4
1,69,85,4
1,74,85,0
1,69,85,4
1,64,85,0
1,57,85,384
1,62,85,0
1,57,85,196
1,61,100,196
1,62,100,192
1,64,100,4
1,69,65,0
1,62,100,4
1,61,100,192
1,57,75,4
1,57,75,0
1,74,65,0
1,76,65,4
1,78,70,40
1,74,65,192
1,74,75,4
1,78,75,4
1,86,75,0
1,74,45,4
1,85,75,192
1,76,75,0
1,74,50,40
1,83,65,4
1,74,65,0
1,73,50,192
1,81,55,4
1,73,55,0
1,74,70,192
1,73,55,4
1,81,60,0
1,67,65,192
1,67,65,4
1,69,50,4
1,71,55,4
1,67,55,4
1,69,55,4
1,71,55,192
1,79,75,4
1,71,75,0
1,69,50,4
1,66,75,4
1,74,65,4
1,71,70,4
1,83,75,192
1,74,65,0
1,74,65,4
1,83,65,4
1,83,49,4
1,74,75,0
1,69,75,192
1,69,75,196
1,81,75,4
1,73,75,0
1,74,75,192
1,81,75,4
1,73,75,0
1,67,60,4
1,67,60,4
1,69,60,4
1,74,60,0
1,69,60,4
1,64,60,0
1,57,60,384
1,62,60,0
1,57,60,196
1,57,100,196
1,59,100,192
1,69,65,4
1,61,100,0
1,59,100,4
1,57,100,192
1,57,100,4
1,62,100,196
1,71,100,0
1,61,100,4
1,69,100,0
1,59,90,196
1,64,90,192
1,66,90,4
1,67,90,4
1,57,90,580
1,62,90,192
1,64,90,4
1,66,90,4
1,69,90,0
1,62,90,4
1,66,90,0
1,62,90,4
1,57,90,388
1,56,90,192
1,57,90,4
1,66,60,196
1,73,60,252
1,75,60,252
1,71,60,252
1,59,90,252
1,64,90,192
1,66,90,4
1,67,90,4
1,57,90,580
1,62,90,192
1,64,90,4
1,66,90,4
1,69,90,0
1,62,90,4
1,66,90,0
1,62,90,4
1,57,90,388
1,56,90,192
1,57,90,4
1,66,60,196
1,73,60,252
1,75,60,252
1,71,60,252
1,59,90,252
1,64,90,192
1,66,90,4
1,67,90,4
1,57,90,580
1,62,90,192
1,64,90,4
1,66,90,4
1,69,90,0
1,62,90,4
1,66,90,0
1,62,90,4
1,57,90,388
1,56,90,192
1,57,90,4
1,66,60,196
1,73,60,252
1,75,60,252
1,71,60,252
1,57,100,5052
1,56,100,40
1,57,100,40
1,62,90,60
1,69,75,192
1,64,75,0
1,71,80,192
1,66,80,0
1,62,90,4
1,69,80,192
1,64,80,0
1,71,85,4
1,66,85,0
1,62,95,4
1,71,85,192
1,66,85,0
1,57,90,4
1,69,80,4
1,64,80,0
1,71,85,192
1,66,85,0
1,71,75,156
1,69,85,40
1,64,85,0
1,71,90,4
1,66,90,0
1,57,90,4
1,71,90,192
1,66,90,0
1,59,90,4
1,69,80,4
1,64,80,0
1,71,85,192
1,66,85,0
1,59,90,4
1,69,80,192
1,64,80,0
1,71,85,4
1,66,85,0
1,59,95,4
1,71,85,192
1,62,85,0
1,55,100,4
1,74,100,0
1,66,100,0
1,64,90,4
1,67,85,192
1,62,80,4
1,64,95,4
1,69,90,0
1,55,80,4
1,64,90,192
1,55,85,4
1,62,90,4
1,69,75,192
1,64,75,0
1,71,80,192
1,66,80,0
1,62,90,4
1,69,80,192
1,64,80,0
1,71,85,4
1,66,85,0
1,62,95,4
1,71,85,192
1,66,85,0
1,57,90,4
1,69,80,4
1,64,80,0
1,71,85,192
1,66,85,0
1,57,90,4
1,71,75,152
1,69,85,40
1,64,85,0
1,71,90,4
1,66,90,0
1,57,90,4
1,71,90,192
1,66,90,0
1,71,85,4
1,62,85,0
1,74,100,0
1,66,100,0
1,59,100,0
1,64,90,4
1,67,85,192
1,62,80,4
1,69,95,4
1,62,95,0
1,55,95,0
1,74,95,580
1,81,85,4
1,74,90,4
1,76,85,192
1,78,85,192
1,74,90,192
1,86,85,80
1,76,85,80
1,74,90,80
1,81,85,0
1,76,85,80
1,69,85,80
1,73,85,4
1,74,85,4
1,69,85,192
1,73,85,80
1,74,85,4
1,69,85,4
1,73,100,80
1,67,95,4
1,71,90,4
1,73,90,80
1,67,100,4
1,71,95,80
1,67,90,4
1,74,95,4
1,71,95,4
1,74,90,4
1,76,95,80
1,74,90,192
1,71,95,4
1,78,95,4
1,83,100,0
1,76,85,4
1,69,90,4
1,73,95,4
1,74,80,4
1,73,75,192
1,69,95,4
1,81,95,192
1,73,90,0
1,69,70,4
1,67,100,196
1,69,75,148
1,74,80,44
1,71,80,0
1,74,80,4
1,69,80,0
1,62,85,4
1,74,80,4
1,67,80,0
1,59,100,4
1,74,100,388
1,66,100,0
1,74,100,20
1,64,100,0
1,55,75,60
1,71,100,196
1,73,80,192
1,64,85,0
1,64,100,192
1,62,90,4
1,61,90,4
1,57,75,4
1,57,75,0
1,74,65,0
1,76,65,4
1,78,70,40
1,74,65,192
1,74,75,4
1,78,75,4
1,86,75,0
1,74,45,4
1,85,75,192
1,76,75,0
1,74,50,40
1,83,65,4
1,74,65,0
1,73,50,192
1,81,55,4
1,73,55,0
1,74,70,192
1,73,55,4
1,81,60,0
1,67,65,192
1,67,65,4
1,69,50,4
1,71,55,4
1,67,55,4
1,69,55,4
1,71,55,192
1,79,75,4
1,71,75,0
1,69,50,4
1,66,75,4
1,74,65,4
1,71,70,4
1,83,75,192
1,74,65,0
1,74,65,4
1,83,65,4
1,83,49,4
1,74,75,0
1,69,75,192
1,69,75,196
1,81,75,4
1,73,75,0
1,74,75,192
1,81,75,4
1,73,75,0
1,67,60,4
1,67,60,4
1,69,60,4
1,74,60,0
1,69,60,4
1,64,60,0
1,57,60,384
1,62,60,0
1,57,60,196
1,57,100,388
1,69,65,192
1,64,100,0
1,61,100,4
1,55,100,196
1,67,100,196
1,62,100,0
1,59,100,196
1,62,100,0
1,57,100,196
1,59,100,192
1,69,65,4
1,61,100,0
1,59,100,4
1,57,100,192
1,57,100,4
1,62,100,196
1,71,100,0
1,61,100,4
1,69,100,0
1,71,90,196
1,76,90,192
1,78,90,4
1,79,90,4
1,69,90,580
1,74,90,192
1,76,90,4
1,78,90,4
1,81,90,0
1,74,90,4
1,78,90,0
1,74,90,4
1,69,90,388
1,68,90,192
1,69,90,4
1,78,60,196
1,85,60,252
1,87,60,252
1,83,60,252
1,71,90,252
1,76,90,192
1,78,90,4
1,79,90,4
1,69,90,580
1,74,90,192
1,76,90,4
1,78,90,4
1,81,90,0
1,74,90,4
1,78,90,0
1,74,90,4
1,69,90,388
1,68,90,192
1,69,90,4
1,69,100,388
1,68,100,40
1,69,100,40
1,74,90,60
1,81,75,192
1,76,75,0
1,83,80,192
1,78,80,0
1,74,90,4
1,81,80,192
1,76,80,0
1,83,85,4
1,78,85,0
1,74,95,4
1,83,85,192
1,78,85,0
1,69,90,4
1,81,80,4
1,76,80,0
1,83,85,192
1,78,85,0
1,83,75,156
1,81,85,40
1,76,85,0
1,83,90,4
1,78,90,0
1,69,90,4
1,83,90,192
1,78,90,0
1,71,90,4
1,81,80,4
1,76,80,0
1,83,85,192
1,78,85,0
1,71,90,4
1,81,80,192
1,76,80,0
1,83,85,4
1,78,85,0
1,71,95,4
1,83,85,192
1,74,85,0
1,67,100,4
1,86,100,0
1,78,100,0
1,76,90,4
1,79,85,192
1,74,80,4
1,76,95,4
1,81,90,0
1,67,80,4
1,76,90,192
1,67,85,4
1,74,90,4
1,81,75,192
1,76,75,0
1,83,80,192
1,78,80,0
1,74,90,4
1,81,80,192
1,76,80,0
1,83,85,4
1,78,85,0
1,74,95,4
1,83,85,192
1,78,85,0
1,69,90,4
1,81,80,4
1,76,80,0
1,83,85,192
1,78,85,0
1,69,90,4
1,83,75,152
1,81,85,40
1,76,85,0
1,83,90,4
1,78,90,0
1,69,90,4
1,83,90,192
1,78,90,0
1,83,85,4
1,74,85,0
1,86,100,0
1,78,100,0
1,71,100,0
1,76,90,4
1,81,95,192
1,74,85,0
1,73,80,4
1,86,95,4
1,79,95,0
2,50,100,12288
2,38,100,0
2,43,80,10756
2,50,85,0
2,50,85,384
2,50,100,4
2,38,80,4
2,52,75,0
2,45,80,192
2,50,75,192
2,52,85,4
2,50,80,196
2,45,75,196
2,40,100,4
2,52,80,192
2,45,90,4
2,52,85,384
2,45,80,192
2,38,100,4
2,50,100,0
2,50,100,8644
2,45,100,384
2,33,100,4
2,45,100,0
2,33,100,4
2,45,100,0
2,33,100,4
2,45,100,0
2,33,100,4
2,45,100,0
2,33,100,4
2,45,100,0
2,40,100,196
2,38,100,4
2,42,100,4
2,49,100,192
2,54,100,192
2,54,100,4
2,42,75,4
2,54,75,576
2,52,75,40
2,51,75,60
2,47,75,80
2,40,100,80
2,38,100,4
2,42,100,4
2,49,100,192
2,54,100,192
2,54,100,4
2,42,75,4
2,54,75,576
2,52,75,40
2,51,75,60
2,47,75,80
2,40,100,80
2,38,100,4
2,42,100,4
2,49,100,192
2,54,100,192
2,54,100,4
2,42,75,4
2,54,75,576
2,52,75,40
2,51,75,60
2,47,75,80
2,42,80,3152
2,45,90,1152
2,49,100,40
2,37,100,40
2,25,100,0
2,42,100,20
2,30,100,0
2,37,100,60
2,49,100,192
2,38,75,20
2,50,75,0
2,50,100,8644
2,45,100,384
2,33,100,4
2,45,75,0
2,45,100,4
2,40,100,384
2,33,100,4
2,45,75,0
2,38,75,4
2,50,75,0
2,38,100,1152
2,45,100,4
2,50,100,7604
2,45,100,384
2,33,100,4
2,45,75,0
2,45,100,4
2,33,80,4
2,45,75,0
2,52,100,4
2,33,100,4
2,45,75,0
2,45,100,192
2,40,100,192
2,45,100,4
2,33,100,0
2,33,100,4
2,45,75,0
2,40,100,24
2,38,100,4
2,42,100,4
2,49,100,192
2,54,100,192
2,54,100,4
2,42,75,4
2,54,75,576
2,52,75,40
2,51,75,60
2,47,75,80
2,40,100,80
2,38,100,4
2,42,100,4
2,49,100,192
2,54,100,192
2,54,100,4
2,42,75,4
2,54,75,576
2,52,75,40
2,51,75,60
2,47,75,80
2,40,100,80
2,38,100,4
2,42,100,4
2,49,100,192
2,54,100,192
2,54,100,4
2,42,75,4
2,54,75,576
2,52,75,40
2,51,75,60
2,47,75,80
2,42,80,3152
2,45,90,1152
2,49,100,40
2,37,100,40
2,25,100,0
2,42,100,20
2,30,100,0
2,37,100,60
2,49,100,192
2,50,100,20
2,38,100,0
2,50,100,3076
2,38,100,0
2,50,90,12292
2,50,80,388
2,54,100,192
2,52,100,1156
2,45,100,192
2,38,75,4
2,50,75,0
2,38,100,1152
2,45,100,4
2,50,100,7604
2,45,100,384
2,33,90,4
2,45,65,0
2,45,90,4
2,33,70,4
2,45,65,0
2,52,90,4
2,31,90,4
2,43,65,0
2,43,90,192
