track,note,velocity,time
1,57,103,0
1,64,103,384
1,57,103,0
1,59,103,0
1,57,103,20
1,59,103,20
1,59,103,32
1,54,103,0
1,62,92,0
1,62,103,384
1,54,103,0
1,59,87,292
1,59,92,4
1,69,97,100
1,64,92,0
1,62,82,0
1,57,77,192
1,69,103,4
1,66,103,0
1,57,82,4
1,69,127,4
1,64,103,0
1,57,103,100
1,62,92,4
1,64,87,4
1,69,103,0
1,66,82,4
1,81,97,96
1,76,72,0
1,78,77,0
1,62,72,4
1,64,77,44
1,64,103,4
1,71,103,0
1,76,103,36
1,64,72,248
1,68,92,4
1,71,103,4
1,59,103,4
1,64,93,64
1,66,103,96
1,69,103,4
1,57,77,4
1,74,72,88
1,66,82,4
1,81,72,8
1,64,77,4
1,69,72,0
1,57,103,4
1,64,103,0
1,59,103,0
1,59,82,288
1,57,92,4
1,64,87,0
1,59,87,0
1,64,82,20
1,59,82,0
1,57,82,0
1,69,87,0
1,64,82,4
1,69,87,0
1,59,92,4
1,64,92,0
1,57,92,0
1,54,103,20
1,62,92,0
1,61,103,0
1,59,103,0
1,59,87,100
1,61,92,4
1,62,103,4
1,54,103,0
1,66,97,0
1,71,97,100
1,66,92,0
1,59,103,96
1,66,103,4
1,59,103,0
1,66,72,100
1,59,72,0
1,57,72,0
1,69,103,100
1,64,103,8
1,57,103,16
1,66,103,20
1,57,87,148
1,64,92,96
1,66,103,4
1,69,127,0
1,57,87,4
1,69,97,4
1,64,97,0
1,57,87,192
1,62,92,4
1,62,103,4
1,64,103,4
1,69,82,0
1,69,103,272
1,64,103,4
1,68,103,16
1,56,72,80
1,59,103,84
1,68,103,4
1,64,103,0
1,59,103,4
1,69,103,4
1,64,103,0
1,81,103,4
1,74,103,0
1,73,103,4
1,81,103,4
1,73,103,0
1,81,103,4
1,73,103,0
1,81,103,4
1,73,103,0
1,69,103,192
1,81,103,176
1,80,103,4
1,71,103,0
1,76,92,4
1,69,92,0
1,57,87,100
1,64,97,4
1,66,103,96
1,61,72,0
1,57,72,0
1,64,103,4
1,59,92,0
1,56,92,0
1,76,103,384
1,68,103,0
1,69,92,288
1,69,103,4
1,76,92,0
1,68,97,4
1,68,92,4
1,59,82,0
1,56,82,0
1,66,87,4
1,66,103,4
1,76,92,0
1,68,103,4
1,59,82,0
1,56,82,0
1,64,103,4
1,76,103,4
1,69,103,0
1,61,103,0
1,64,72,192
1,57,66,0
1,76,103,4
1,69,103,0
1,64,87,124
1,57,77,0
1,64,82,80
1,69,92,4
1,74,103,4
1,64,92,0
1,73,82,4
1,69,82,4
1,64,81,4
1,71,96,4
1,66,92,0
1,59,92,0
1,68,82,0
1,64,82,192
1,71,103,40
1,66,103,0
1,59,103,0
1,68,103,0
1,64,92,40
1,59,103,96
1,71,82,40
1,66,103,0
1,68,82,0
1,64,103,40
1,66,103,96
1,64,103,12
1,71,103,12
1,66,103,0
1,59,103,0
1,68,103,0
1,64,103,40
1,68,103,192
1,62,103,0
1,68,92,20
1,62,87,0
1,66,103,20
1,62,103,0
1,66,92,20
1,62,87,0
1,71,103,20
1,62,103,0
1,71,97,20
1,62,87,0
1,68,103,20
1,62,103,0
1,68,103,20
1,62,103,0
1,57,103,96
1,69,103,20
1,62,103,0
1,64,103,1076
1,59,103,0
1,68,103,4
1,59,103,0
1,69,103,372
1,59,82,16
1,61,82,0
1,68,103,16
1,59,92,4
1,57,92,0
1,59,103,4
1,57,103,0
1,68,103,0
1,61,103,4
1,69,103,0
1,61,92,100
1,66,97,4
1,69,103,96
1,59,82,0
1,69,103,4
1,62,103,0
1,64,103,0
1,57,87,192
1,64,92,96
1,69,127,4
1,66,103,0
1,64,97,4
1,69,103,4
1,62,103,0
1,69,97,4
1,57,92,96
1,59,87,4
1,54,77,0
1,69,103,4
1,68,103,0
1,61,103,0
1,57,88,192
1,69,103,176
1,59,82,4
1,61,82,0
1,68,103,16
1,59,92,4
1,57,92,0
1,59,103,4
1,57,103,0
1,68,103,0
1,61,103,4
1,69,103,0
1,61,92,100
1,66,97,4
1,69,103,96
1,59,82,0
1,69,103,4
1,62,103,0
1,64,103,0
1,57,87,192
1,64,92,96
1,69,127,4
1,66,103,0
1,64,97,4
1,69,103,4
1,62,92,0
1,64,87,96
1,69,97,4
1,66,103,0
1,57,78,96
1,62,103,0
1,64,103,4
1,69,103,4
1,57,87,0
1,35,77,4
1,68,103,4
1,59,103,0
1,40,92,0
1,52,82,0
1,69,103,4
1,68,103,0
1,61,103,0
1,57,88,100
1,69,103,176
1,59,82,4
1,61,82,0
1,68,103,16
1,59,92,4
1,57,92,0
1,59,87,4
1,57,82,0
1,68,82,0
1,69,77,4
1,61,77,0
1,61,92,96
1,66,97,96
1,81,103,4
1,73,82,0
1,69,103,4
1,62,103,0
1,64,103,0
1,57,72,192
1,64,82,96
1,69,127,4
1,64,103,0
1,66,97,4
1,69,72,4
1,62,72,0
1,69,97,4
1,57,92,96
1,54,87,192
1,59,87,4
1,59,87,4
1,54,77,0
1,57,87,4
1,61,82,0
1,57,92,288
1,62,103,4
1,59,103,0
1,61,92,4
1,57,92,0
1,57,87,96
1,62,103,4
1,59,103,0
1,61,103,4
1,57,103,0
1,59,103,4
1,56,103,0
1,59,92,288
1,57,103,96
1,64,103,0
1,59,92,4
1,56,87,4
1,62,103,4
1,57,103,0
1,61,92,4
1,57,92,0
1,61,92,4
1,57,92,0
1,64,72,4
1,63,72,0
1,56,72,0
1,61,72,192
1,64,72,40
1,63,72,0
1,56,72,0
1,61,72,40
1,64,92,96
1,56,103,0
1,64,72,40
1,63,92,20
1,63,87,20
1,64,77,20
1,56,82,0
1,63,82,20
1,61,92,20
1,66,92,20
1,69,92,0
1,69,92,4
1,64,92,0
1,62,87,96
1,57,82,4
1,69,92,4
1,64,92,0
1,57,87,100
1,71,92,4
1,64,92,0
1,64,82,100
1,66,77,4
1,66,82,4
1,69,87,4
1,64,92,4
1,76,61,96
1,69,51,0
1,76,103,4
1,64,103,0
1,69,103,4
1,64,87,188
1,69,92,96
1,76,103,4
1,69,103,0
1,64,103,56
1,64,103,4
1,71,103,0
1,73,103,96
1,69,92,4
1,64,82,4
1,69,87,4
1,64,87,0
1,69,103,4
1,64,103,0
1,76,92,4
1,64,92,0
1,71,97,4
1,59,82,188
1,64,87,96
1,69,103,4
1,64,103,0
1,71,87,4
1,69,103,4
1,64,103,0
1,68,103,4
1,64,103,0
1,76,103,0
1,64,82,4
1,76,77,4
1,68,82,0
1,64,82,0
1,68,87,96
1,62,87,0
1,64,72,100
1,63,72,0
1,56,72,0
1,61,72,192
1,64,72,40
1,63,72,0
1,56,72,0
1,61,72,40
1,64,72,40
1,63,92,0
1,56,103,0
1,61,87,20
1,56,92,96
1,61,77,20
1,64,82,20
1,56,82,0
1,68,85,0
1,63,92,0
1,80,103,12
1,74,103,0
1,83,103,140
1,76,103,0
1,68,103,196
1,62,103,0
1,69,103,196
1,64,103,0
1,66,103,96
1,69,103,4
1,62,103,0
1,57,103,96
1,64,92,4
1,57,92,0
1,59,92,0
1,57,72,192
1,64,87,192
1,57,87,0
1,59,87,0
1,57,87,192
1,64,89,116
1,57,89,0
1,59,89,0
1,57,72,80
1,59,92,20
1,61,92,60
1,64,92,20
1,57,92,0
1,59,92,0
1,59,87,20
1,62,92,0
1,61,92,0
1,59,72,192
1,62,87,192
1,61,87,0
1,59,87,192
1,59,89,116
1,59,72,80
1,61,89,0
1,59,92,20
1,71,92,20
1,66,92,0
1,62,92,0
1,59,87,20
1,69,97,0
1,64,92,0
1,66,82,0
1,62,77,192
1,64,77,96
1,69,92,4
1,66,96,0
1,57,82,4
1,69,92,96
1,64,92,0
1,57,87,4
1,81,91,4
1,76,82,0
1,78,76,0
1,62,76,4
1,64,72,0
1,57,77,0
1,57,72,0
1,64,77,44
1,64,87,4
1,69,69,0
1,76,82,0
1,68,84,36
1,59,72,196
1,80,91,4
1,64,87,0
1,71,93,0
1,64,93,64
1,81,97,4
1,74,103,0
1,73,77,96
1,73,72,92
1,66,82,4
1,81,72,8
1,73,66,100
1,81,66,0
1,64,92,4
1,57,92,0
1,59,92,0
1,57,72,192
1,64,87,192
1,59,87,0
1,59,87,0
1,57,87,192
1,57,89,116
1,59,89,0
1,57,72,80
1,59,92,20
1,61,92,60
1,69,92,20
1,64,92,0
1,59,92,0
1,59,87,20
1,71,92,0
1,62,92,0
1,59,72,192
1,62,87,96
1,66,87,96
1,59,87,192
1,59,89,116
1,59,72,20
1,61,89,0
1,59,91,20
1,71,72,20
1,66,65,0
1,62,61,0
1,59,87,20
1,69,97,0
1,64,92,0
1,66,82,0
1,62,77,192
1,64,77,96
1,81,74,0
1,76,69,0
1,69,92,4
1,66,96,0
1,57,82,4
1,62,69,96
1,64,72,0
1,62,76,292
1,64,72,0
1,57,77,0
1,57,72,0
1,64,77,44
1,64,87,4
1,69,69,0
1,76,82,0
1,68,84,36
1,59,59,196
1,80,52,4
1,64,60,0
1,71,58,0
1,64,77,64
1,81,97,4
1,74,86,0
1,73,77,96
1,73,72,92
1,64,82,4
1,81,72,8
1,73,72,100
1,81,77,0
1,81,103,4
1,73,103,0
1,69,103,192
1,81,103,176
1,80,103,4
1,71,103,0
1,76,92,4
1,69,92,0
1,57,87,100
1,57,72,4
1,64,72,0
1,61,97,0
1,66,103,96
1,64,103,4
1,59,92,0
1,56,92,0
1,66,81,192
1,66,90,12
1,76,103,12
1,68,82,0
1,66,77,96
1,68,77,12
1,69,92,12
1,69,103,4
1,76,92,0
1,68,97,4
1,68,92,4
1,59,82,0
1,56,82,0
1,66,87,4
1,66,103,4
1,76,92,0
1,68,103,4
1,59,82,0
1,56,82,0
1,64,103,4
1,76,103,4
1,69,103,0
1,61,103,0
1,64,72,192
1,57,66,0
1,76,103,4
1,69,103,0
1,64,87,124
1,57,77,0
1,64,82,80
1,73,87,0
1,74,86,4
1,71,92,0
1,73,103,4
1,69,103,0
1,69,82,96
1,64,81,4
1,61,82,4
1,71,81,12
1,66,77,0
1,59,77,0
1,68,66,0
1,64,66,192
1,71,87,40
1,66,87,0
1,59,87,0
1,68,87,0
1,64,77,40
1,59,87,96
1,71,66,40
1,66,87,0
1,68,66,0
1,66,103,40
1,66,103,96
1,59,103,0
1,68,103,0
1,66,103,108
1,59,103,0
1,64,103,40
1,68,103,136
1,62,103,0
1,68,92,20
1,62,87,0
1,66,103,20
1,62,103,0
1,66,92,20
1,62,87,0
1,71,103,20
1,62,103,0
1,71,97,20
1,62,87,0
1,68,103,20
1,62,103,0
1,68,103,20
1,62,103,0
1,57,103,96
1,69,103,20
1,62,103,0
1,64,103,668
1,69,103,24
1,66,103,0
1,64,103,28
1,62,103,104
1,64,103,20
1,59,103,0
1,68,103,4
1,59,103,0
1,69,103,372
1,59,82,16
1,61,82,0
1,68,103,16
1,59,92,4
1,57,92,0
1,59,103,96
1,57,83,0
1,59,72,4
1,57,103,0
1,68,103,0
1,61,103,4
1,69,103,0
1,61,92,100
1,66,97,4
1,69,103,96
1,59,82,0
1,69,103,4
1,62,103,0
1,64,103,0
1,57,87,192
1,64,92,96
1,69,127,4
1,66,103,0
1,64,97,4
1,69,103,4
1,62,103,0
1,74,97,4
1,69,92,96
1,62,103,96
1,59,87,4
1,54,77,0
1,69,103,4
1,68,103,0
1,61,103,0
1,57,88,4
1,69,103,176
1,59,82,4
1,61,82,0
1,68,103,16
1,59,92,4
1,57,92,0
1,59,103,4
1,69,103,0
1,61,103,0
1,61,92,100
1,66,97,96
1,69,103,96
1,59,82,0
1,69,103,4
1,62,103,0
1,64,103,0
1,57,87,192
1,64,92,96
1,69,127,4
1,66,103,0
1,64,97,4
1,69,103,4
1,62,92,0
1,64,87,96
1,69,97,4
1,66,103,0
1,74,103,0
1,62,103,96
1,69,78,0
1,64,103,4
1,69,103,4
1,74,87,0
1,35,77,4
1,68,103,4
1,59,103,0
1,40,92,0
1,52,82,0
1,69,103,4
1,68,103,0
1,61,103,0
1,57,88,100
1,69,103,176
1,59,82,4
1,61,82,0
1,68,103,16
1,59,92,4
1,57,92,0
1,59,87,4
1,57,82,0
1,68,82,0
1,69,77,4
1,61,77,0
1,61,92,96
1,66,97,96
1,81,103,4
1,73,82,0
1,69,103,4
1,62,103,0
1,64,103,0
1,57,72,192
1,64,82,96
1,69,127,4
1,64,103,0
1,66,97,4
1,69,72,4
1,62,72,0
1,69,97,4
1,57,92,96
1,54,87,192
1,59,87,4
1,59,87,4
1,54,77,0
1,57,87,4
1,61,82,0
1,57,92,288
1,62,103,4
1,59,103,0
1,61,92,4
1,57,92,0
1,57,87,96
1,62,103,4
1,59,103,0
1,61,103,4
1,57,103,0
1,59,103,4
1,56,103,0
1,59,92,288
1,57,103,96
1,64,103,0
1,59,92,4
1,56,87,4
1,62,103,4
1,57,103,0
1,61,92,4
1,57,92,0
1,61,92,4
1,57,92,0
1,57,87,4
1,61,82,0
1,69,103,0
1,69,94,32
1,68,92,0
1,61,87,4
1,57,103,0
1,57,103,44
1,61,103,0
1,69,103,0
1,61,103,4
1,57,103,0
1,69,103,96
1,59,103,4
1,56,103,0
1,59,92,288
1,57,103,96
1,64,103,0
1,59,77,4
1,56,72,4
1,62,87,4
1,57,87,0
1,61,77,4
1,57,77,0
1,61,77,4
1,57,77,0
1,76,72,4
1,75,72,0
1,80,72,0
1,73,72,192
1,76,72,40
1,75,72,0
1,80,72,0
1,73,72,40
1,76,92,96
1,80,103,0
1,76,72,40
1,75,92,20
1,75,87,20
1,80,82,0
1,76,77,20
1,75,82,20
1,73,92,20
1,78,92,20
1,81,92,0
1,81,92,4
1,76,92,0
1,74,87,96
1,69,82,4
1,81,92,4
1,76,92,0
1,57,87,100
1,71,92,4
1,64,92,0
1,64,82,100
1,66,77,4
1,66,82,4
1,69,87,4
1,64,92,4
1,76,61,96
1,69,51,0
1,76,103,4
1,64,103,0
1,69,103,4
1,64,87,188
1,69,92,96
1,76,103,4
1,69,103,0
1,64,103,56
1,64,103,4
1,71,103,0
1,73,103,96
1,69,92,4
1,64,82,4
1,69,87,4
1,64,87,0
1,69,103,4
1,64,103,0
1,76,92,4
1,64,92,0
1,71,97,4
1,59,82,188
1,64,87,96
1,69,103,4
1,64,103,0
1,71,87,4
1,64,103,4
1,68,103,0
1,68,103,4
1,64,103,0
1,76,103,0
1,64,82,4
1,76,77,4
1,68,82,0
1,64,82,0
1,68,87,96
1,62,87,0
1,64,72,100
1,63,72,0
1,56,72,0
1,61,72,192
1,64,72,40
1,63,72,0
1,56,72,0
1,61,72,40
1,64,72,40
1,63,92,0
1,56,103,0
1,61,87,20
1,56,92,96
1,61,77,20
1,64,82,20
1,56,82,0
1,68,85,0
1,63,92,0
1,74,103,12
1,66,103,0
1,69,103,0
1,64,103,0
1,74,103,192
1,66,103,0
1,69,103,0
1,64,103,12
1,64,103,20
1,74,103,0
1,69,103,0
1,66,103,12
1,64,92,20
1,69,92,0
1,74,103,0
1,64,82,136
1,66,77,4
1,66,82,4
1,69,87,4
1,64,92,4
1,76,61,96
1,69,51,0
1,76,103,4
1,64,103,0
1,88,103,0
1,69,103,4
1,85,103,188
1,83,103,0
1,86,103,12
1,83,103,0
1,86,103,12
1,83,103,0
1,85,103,12
1,81,103,0
1,85,103,12
1,81,103,0
1,76,103,0
1,73,103,12
1,76,103,0
1,64,103,12
1,71,103,0
1,73,103,96
1,69,92,4
1,64,82,4
1,69,87,4
1,64,87,0
1,69,103,4
1,64,103,0
1,76,92,4
1,64,92,0
1,71,97,4
1,59,82,188
1,64,87,96
1,64,103,4
1,69,103,0
1,64,103,56
1,71,103,0
1,64,103,4
1,68,103,0
1,76,103,4
1,64,82,100
1,76,77,4
1,68,82,0
1,64,82,0
1,68,87,96
1,62,87,0
1,64,72,100
1,63,72,0
1,56,72,0
1,61,72,192
1,64,72,40
1,63,72,0
1,56,72,0
1,61,72,40
1,64,72,40
1,63,92,0
1,56,103,0
