track,note,velocity,time
1,65,103,0
1,58,103,0
1,65,103,4
1,58,103,0
1,58,103,4
1,65,103,0
1,65,103,8
1,60,103,0
1,65,103,4
1,60,103,0
1,60,103,4
1,65,103,0
1,65,103,8
1,58,103,0
1,65,103,4
1,58,103,0
1,58,103,4
1,65,103,0
1,65,103,8
1,60,103,0
1,65,103,4
1,60,103,0
1,60,103,4
1,65,103,0
1,65,103,8
1,58,103,0
1,65,103,4
1,58,103,0
1,58,103,4
1,65,103,0
1,65,103,8
1,57,103,0
1,65,103,4
1,57,103,0
1,65,103,4
1,57,103,0
1,62,103,8
1,55,103,0
1,62,103,4
1,55,103,0
1,55,103,4
1,62,103,0
1,65,103,8
1,57,103,0
1,62,103,4
1,69,103,0
1,57,103,0
1,69,103,4
1,64,103,0
1,57,103,0
1,65,103,96
1,62,103,4
1,70,103,4
1,65,103,0
1,70,103,4
1,63,103,0
1,70,103,4
1,65,103,0
1,58,89,192
1,69,103,4
1,62,103,0
1,69,103,4
1,64,103,0
1,69,103,4
1,62,103,0
1,67,103,8
1,60,103,0
1,67,103,4
1,60,103,0
1,67,103,12
1,72,103,0
1,72,103,4
1,65,103,0
1,72,103,4
1,65,103,0
1,65,103,100
1,60,103,0
1,65,103,4
1,60,103,0
1,65,103,4
1,60,103,0
1,65,103,4
1,60,103,0
1,65,103,4
1,58,103,0
1,65,103,4
1,60,103,0
1,58,103,4
1,65,103,0
1,69,103,8
1,74,103,0
1,69,103,4
1,74,103,0
1,69,103,4
1,74,103,0
1,70,103,8
1,63,103,0
1,70,103,4
1,65,103,0
1,70,103,4
1,63,103,0
1,65,103,8
1,57,103,0
1,62,103,4
1,69,103,0
1,57,103,0
1,69,103,4
1,64,103,0
1,57,103,0
1,65,103,96
1,62,103,4
1,70,103,4
1,65,103,0
1,70,103,4
1,63,103,0
1,70,103,4
1,65,103,0
1,58,89,192
1,67,103,4
1,60,103,0
1,67,103,4
1,60,103,0
1,67,103,4
1,60,103,0
1,70,103,8
1,62,103,0
1,70,103,4
1,62,103,0
1,62,103,4
1,65,103,0
1,58,89,192
1,60,103,4
1,65,103,0
1,65,103,4
1,60,103,0
1,65,103,4
1,60,103,0
1,62,103,4
1,58,103,0
1,62,103,4
1,57,103,0
1,62,103,4
1,55,103,0
1,58,103,8
1,53,103,0
1,58,103,4
1,55,103,0
1,58,103,4
1,53,103,0
1,65,103,8
1,58,103,0
1,60,103,964
1,62,103,192
1,58,103,4
1,62,103,4
1,62,103,4
1,63,103,4
1,65,103,4
1,65,103,4
1,60,103,196
1,60,103,4
1,62,103,4
1,63,103,4
1,63,103,4
1,67,103,0
1,62,103,4
1,67,103,0
1,63,103,4
1,67,103,0
1,62,103,4
1,67,103,0
1,62,103,4
1,63,103,4
1,67,103,0
1,72,103,4
1,63,103,0
1,63,103,4
1,70,103,4
1,63,103,0
1,70,103,4
1,63,103,0
1,70,103,4
1,63,103,0
1,65,103,4
1,58,103,0
1,60,103,4
1,62,103,192
1,58,103,4
1,62,103,4
1,62,103,4
1,63,103,4
1,65,103,4
1,65,103,4
1,60,103,196
1,60,103,4
1,62,103,4
1,63,103,4
1,63,103,4
1,67,103,0
1,62,103,4
1,67,103,0
1,63,103,4
1,67,103,0
1,62,103,4
1,67,103,0
1,62,103,4
1,63,103,4
1,67,103,0
1,72,103,4
1,63,103,0
1,63,103,4
1,70,103,4
1,63,103,0
1,70,103,4
1,63,103,0
1,70,103,4
1,63,103,0
1,65,103,4
1,58,103,0
1,70,103,4
1,65,103,0
1,65,103,4
1,58,103,0
1,58,103,4
1,65,77,0
1,65,103,8
1,57,103,0
1,65,103,4
1,57,103,0
1,65,103,4
1,57,103,0
1,62,103,8
1,55,103,0
1,62,103,4
1,55,103,0
1,55,103,4
1,62,103,0
1,65,103,8
1,57,103,0
1,62,103,4
1,69,103,0
1,57,103,0
1,69,103,4
1,65,103,0
1,57,103,0
1,62,103,4
1,63,103,0
1,70,103,4
1,65,103,0
1,70,103,4
1,63,103,0
1,70,103,4
1,65,103,0
1,58,89,192
1,69,103,4
1,62,103,0
1,69,103,4
1,74,103,0
1,69,103,4
1,62,103,0
1,67,103,8
1,72,103,0
1,67,103,4
1,60,103,0
1,67,103,12
1,72,103,0
1,72,103,4
1,65,103,0
1,72,103,4
1,65,103,0
1,65,103,100
1,60,103,0
1,65,103,4
1,60,103,0
1,65,103,4
1,60,103,0
1,65,103,4
1,60,103,0
1,60,103,4
1,62,103,192
1,58,103,4
1,62,103,4
1,62,103,4
1,63,103,4
1,65,103,4
1,65,103,4
1,60,103,196
1,60,103,4
1,62,103,4
1,63,103,4
1,63,103,4
1,67,103,0
1,62,103,4
1,67,103,0
1,63,103,4
1,67,103,0
1,62,103,4
1,67,103,0
1,62,103,4
1,63,103,4
1,67,103,0
1,72,103,4
1,63,103,0
1,63,103,4
1,70,103,4
1,63,103,0
1,70,103,4
1,63,103,0
1,70,103,4
1,63,103,0
1,65,103,4
1,58,103,0
1,60,103,4
1,62,103,192
1,58,103,4
1,62,103,4
1,62,103,4
1,63,103,4
1,65,103,4
1,65,103,4
1,60,103,196
1,60,103,4
1,62,103,4
1,63,103,4
1,63,103,4
1,67,103,0
1,62,103,4
1,67,103,0
1,63,103,4
1,67,103,0
1,62,103,4
1,67,103,0
1,62,103,4
1,63,103,4
1,67,103,0
1,72,103,4
1,63,103,0
1,63,103,4
1,70,103,4
1,63,103,0
1,70,103,4
1,63,103,0
1,70,103,4
1,63,103,0
1,65,103,4
1,58,103,0
1,65,103,4
1,70,103,0
1,65,103,4
1,70,103,0
1,65,103,4
1,70,103,0
1,65,103,8
1,57,103,0
1,65,103,4
1,57,103,0
1,65,103,4
1,57,103,0
1,62,103,8
1,55,103,0
1,62,103,4
1,55,103,0
1,55,103,4
1,62,103,0
1,65,103,8
1,57,103,0
1,62,103,4
1,69,103,0
1,57,103,0
1,69,103,4
1,64,103,0
1,57,103,0
1,65,103,96
1,62,103,4
1,70,103,4
1,65,103,0
1,67,103,24
1,65,103,100
1,63,103,28
1,70,103,0
1,63,103,16
1,70,103,0
1,70,103,16
1,65,103,0
1,58,89,192
1,69,103,4
1,62,103,0
1,69,103,4
1,74,103,0
1,69,103,4
1,62,103,0
1,67,103,8
1,60,103,0
1,67,103,4
1,60,103,0
1,67,103,12
1,72,103,0
1,72,103,4
1,65,103,0
1,72,103,4
1,65,103,0
1,65,103,100
1,60,103,0
1,65,103,4
1,60,103,0
1,65,103,4
1,60,103,0
1,65,103,4
1,60,103,0
1,65,103,4
1,70,103,0
1,65,103,4
1,70,103,0
1,65,103,4
1,70,103,0
1,69,103,8
1,74,103,0
1,69,103,4
1,74,103,0
1,69,103,4
1,74,103,0
1,70,103,8
1,75,103,0
1,70,103,4
1,65,103,0
1,70,103,4
1,63,103,0
1,65,103,8
1,57,103,0
1,62,103,4
1,69,103,0
1,57,103,0
1,69,103,4
1,64,103,0
1,57,103,0
1,65,103,96
1,62,103,4
1,70,103,4
1,65,103,0
1,67,103,24
1,65,103,100
1,63,103,28
1,70,103,0
1,63,103,16
1,70,103,0
1,70,103,16
1,65,103,0
1,58,89,192
1,67,103,4
1,60,103,0
1,70,103,0
1,67,103,4
1,60,103,0
1,70,103,0
1,67,103,4
1,60,103,0
1,70,103,0
1,70,103,4
1,62,103,0
1,70,103,4
1,62,103,0
1,62,85,4
1,65,88,0
1,58,89,192
1,60,103,4
1,65,103,0
1,65,103,4
1,60,103,0
1,62,103,4
1,58,103,0
1,62,103,4
1,57,103,0
1,62,103,4
1,55,103,0
1,58,103,8
1,53,103,0
1,58,103,4
1,55,103,0
1,58,103,4
1,53,103,0
1,62,103,8
1,58,103,0
1,62,103,4
1,57,103,0
1,62,103,4
1,55,103,0
1,70,103,8
1,65,103,0
1,70,103,4
1,67,103,0
1,70,103,4
1,65,103,0
1,65,103,8
1,58,103,0
2,46,100,0
2,53,100,0
2,46,100,4
2,53,100,0
2,53,100,4
2,46,100,0
2,48,100,8
2,53,100,0
2,48,100,4
2,53,100,0
2,53,100,4
2,48,100,0
2,46,100,8
2,53,100,0
2,46,100,4
2,53,100,0
2,53,100,4
2,46,100,0
2,48,100,8
2,53,100,0
2,48,100,4
2,53,100,0
2,53,100,4
2,48,100,0
2,46,100,8
2,53,100,0
2,46,100,4
2,53,100,0
2,53,100,4
2,46,100,0
2,53,100,8
2,45,100,0
2,53,100,4
2,45,100,0
2,53,100,4
2,45,100,0
2,43,100,8
2,50,100,0
2,43,100,4
2,50,100,0
2,50,100,4
2,43,100,0
2,50,100,8
2,45,100,0
2,50,100,4
2,45,100,0
2,38,100,8
2,45,100,0
2,50,100,4
2,39,100,4
2,46,100,0
2,39,100,4
2,46,100,0
2,39,100,4
2,46,100,0
2,38,100,8
2,45,100,0
2,38,100,4
2,45,100,0
2,38,100,4
2,45,100,0
2,50,100,192
2,48,100,96
2,36,100,4
2,43,100,0
2,36,100,4
2,43,100,0
2,36,100,4
2,43,100,0
2,52,100,192
2,53,100,4
2,41,100,4
2,48,100,0
2,48,100,4
2,41,74,0
2,53,100,4
2,48,71,0
2,48,100,4
2,50,100,96
2,51,100,4
2,48,100,4
2,41,100,0
2,41,100,580
2,46,100,4
2,53,100,0
2,46,100,4
2,53,100,0
2,53,100,4
2,46,100,0
2,45,100,8
2,50,100,0
2,45,100,4
2,50,100,0
2,45,100,4
2,50,100,0
2,39,100,8
2,46,100,0
2,39,100,4
2,46,100,0
2,46,100,4
2,39,100,0
2,50,100,8
2,45,100,0
2,50,100,4
2,45,100,0
2,38,100,8
2,45,100,0
2,50,100,4
2,39,100,4
2,46,100,0
2,39,100,4
2,46,100,0
2,39,100,4
2,46,100,0
2,40,100,8
2,48,100,0
2,40,100,4
2,48,100,0
2,48,100,4
2,40,100,0
2,55,87,192
2,41,100,4
2,50,100,0
2,41,100,4
2,50,100,0
2,41,100,4
2,50,100,0
2,41,100,8
2,48,100,0
2,41,100,8
2,48,100,0
2,41,100,8
2,48,100,0
2,43,100,8
2,50,100,0
2,43,100,4
2,50,100,0
2,43,100,4
2,50,100,0
2,46,87,192
2,39,100,4
2,46,100,0
2,39,100,4
2,46,100,0
2,39,100,4
2,46,100,0
2,51,87,192
2,46,100,4
2,53,100,0
2,53,100,580
2,41,100,0
2,34,100,288
2,53,100,4
2,46,100,0
2,53,100,4
2,46,100,100
2,34,100,0
2,53,100,4
2,53,100,4
2,53,100,4
2,46,100,0
2,34,100,96
2,53,100,4
2,46,100,0
2,34,100,4
2,53,100,4
2,45,100,0
2,33,100,0
2,48,100,192
2,53,100,4
2,53,100,4
2,53,100,4
2,33,100,0
2,53,100,4
2,45,100,0
2,33,100,96
2,53,100,4
2,45,100,4
2,46,100,4
2,43,100,4
2,36,100,0
2,36,68,4
2,48,75,288
2,43,83,96
2,43,100,4
2,48,100,4
2,50,100,4
2,51,100,4
2,51,100,4
2,39,80,288
2,39,100,100
2,39,100,4
2,41,100,100
2,29,100,96
2,53,100,4
2,46,100,0
2,53,100,4
2,46,100,100
2,34,100,0
2,53,100,4
2,53,100,4
2,53,100,4
2,46,100,0
2,34,100,96
2,53,100,4
2,46,100,0
2,34,100,4
2,53,100,4
2,45,100,0
2,33,100,0
2,48,100,192
2,53,100,4
2,53,100,4
2,53,100,4
2,33,100,0
2,53,100,4
2,45,100,0
2,33,100,96
2,53,100,4
2,45,100,4
2,46,100,4
2,43,100,4
2,36,100,0
2,36,68,4
2,48,75,288
2,43,83,96
2,43,100,4
2,48,100,4
2,50,100,4
2,51,100,4
2,51,100,4
2,39,80,288
2,39,100,100
2,39,100,4
2,41,100,100
2,29,100,96
2,46,100,4
2,53,100,0
2,46,100,4
2,53,100,0
2,53,100,4
2,46,100,0
2,53,100,8
2,45,100,0
2,53,100,4
2,45,100,0
2,53,100,4
2,45,100,0
2,43,100,8
2,50,100,0
2,43,100,4
2,50,100,0
2,50,100,4
2,43,100,0
2,50,100,8
2,45,100,0
2,50,100,4
2,45,100,0
2,38,100,8
2,45,100,0
2,50,100,4
2,39,100,4
2,46,100,0
2,39,100,4
2,46,100,0
2,39,100,4
2,46,100,0
2,38,100,8
2,45,100,0
2,38,100,4
2,45,100,0
2,38,100,4
2,45,100,0
2,50,100,192
2,48,100,96
2,36,100,4
2,43,100,0
2,36,100,4
2,43,100,0
2,36,100,4
2,43,100,0
2,52,100,192
2,53,100,4
2,41,100,4
2,48,100,0
2,48,100,4
2,41,74,0
2,53,100,4
2,48,71,0
2,48,100,4
2,50,100,96
2,51,100,4
2,48,100,4
2,41,100,0
2,41,100,580
2,53,100,4
2,46,100,0
2,53,100,4
2,46,100,100
2,34,100,0
2,53,100,4
2,53,100,4
2,53,100,4
2,46,100,0
2,34,100,96
2,53,100,4
2,46,100,0
2,34,100,4
2,53,100,4
2,45,100,0
2,33,100,0
2,48,100,192
2,53,100,4
2,53,100,4
2,53,100,4
2,33,100,0
2,53,100,4
2,45,100,0
2,33,100,96
2,53,100,4
2,45,100,4
2,46,100,4
2,43,100,4
2,36,100,0
2,36,68,4
2,48,75,288
2,43,83,96
2,43,100,4
2,48,100,4
2,50,100,4
2,51,100,4
2,51,100,4
2,39,80,288
2,39,100,100
2,39,100,4
2,41,100,100
2,29,100,96
2,53,100,4
2,46,100,0
2,53,100,4
2,46,100,100
2,34,100,0
2,53,100,4
2,53,100,4
2,53,100,4
2,46,100,0
2,34,100,96
2,53,100,4
2,46,100,0
2,34,100,4
2,53,100,4
2,45,100,0
2,33,100,0
2,48,100,192
2,53,100,4
2,53,100,4
2,53,100,4
2,33,100,0
2,53,100,4
2,45,100,0
2,33,100,96
2,53,100,4
2,45,100,4
2,46,100,4
2,43,100,4
2,36,100,0
2,36,68,4
2,48,75,288
2,43,83,96
2,43,100,4
2,48,100,4
2,50,100,4
2,51,100,4
2,51,100,4
2,39,80,288
2,39,100,100
2,39,100,4
2,41,100,100
2,29,100,96
2,46,100,4
2,53,100,0
2,46,100,4
2,53,100,0
2,53,100,4
2,46,100,0
2,53,100,8
2,45,100,0
2,53,100,4
2,45,100,0
2,53,100,4
2,45,100,0
2,43,100,8
2,50,100,0
2,43,100,4
2,50,100,0
2,50,100,4
2,43,100,0
2,50,100,8
2,45,100,0
2,50,100,4
2,45,100,0
2,38,100,8
2,45,100,0
2,50,100,4
2,39,100,4
2,46,100,0
2,39,100,4
2,46,100,0
2,39,100,4
2,46,100,0
2,38,100,8
2,45,100,0
2,38,100,4
2,45,100,0
2,38,100,8
2,45,100,0
2,50,100,384
2,48,100,96
2,36,100,4
2,43,100,0
2,36,100,4
2,43,100,0
2,36,100,4
2,43,100,0
2,52,100,192
2,53,100,4
2,41,100,4
2,48,100,0
2,48,100,4
2,41,74,0
2,53,100,4
2,48,71,0
2,48,100,4
2,50,100,96
2,51,100,4
2,48,100,4
2,41,100,0
2,41,100,580
2,46,100,4
2,53,100,0
2,46,100,4
2,53,100,0
2,53,100,4
2,46,100,0
2,45,100,8
2,50,100,0
2,45,100,4
2,50,100,0
2,45,100,4
2,50,100,0
2,39,100,8
2,46,100,0
2,39,100,4
2,46,100,0
2,46,100,4
2,39,100,0
2,50,100,8
2,45,100,0
2,50,100,4
2,45,100,0
2,38,100,8
2,45,100,0
2,50,100,4
2,39,100,4
2,46,100,0
2,39,100,4
2,46,100,0
2,39,100,4
2,46,100,0
2,40,100,8
2,48,100,0
2,40,100,4
2,48,100,0
2,48,100,4
2,40,100,0
2,55,87,192
2,41,100,4
2,50,100,0
2,41,100,4
2,50,100,0
2,41,100,4
2,50,100,0
2,41,100,8
2,48,100,0
2,41,100,8
2,48,100,0
2,43,100,8
2,50,100,0
2,43,100,4
2,50,100,0
2,43,100,4
2,50,100,0
2,46,87,192
2,39,100,4
2,46,100,0
2,39,100,4
2,46,100,0
2,39,100,4
2,46,100,0
2,51,87,192
2,43,100,4
2,50,100,0
2,43,100,4
2,50,100,0
2,43,100,4
2,50,100,0
