track,note,velocity,time
1,53,75,0
1,58,75,192
1,53,75,4
1,58,75,4
1,46,75,4
1,51,75,192
1,58,75,4
1,53,75,4
1,58,75,4
1,53,75,4
1,58,75,4
1,46,75,4
1,51,75,192
1,58,75,4
1,53,75,4
1,58,75,4
1,53,75,4
1,58,75,4
1,46,75,4
1,51,75,192
1,58,75,4
1,53,75,27460
1,58,75,192
1,53,75,4
1,58,75,4
1,46,75,4
1,51,75,192
1,58,75,4
1,53,75,4
1,58,75,4
1,53,75,4
1,58,75,4
1,46,75,4
1,51,75,192
1,58,75,4
1,53,75,4
1,58,75,4
1,53,75,4
1,58,75,4
1,46,75,4
1,51,75,192
1,58,75,4
1,53,75,4
1,58,75,4
1,53,75,4
1,58,75,4
1,46,75,4
1,51,75,192
1,58,75,4
1,53,75,4
1,58,75,4
1,53,75,4
1,58,75,4
1,46,75,4
1,51,75,192
1,58,75,4
1,53,75,4
1,58,75,4
1,53,75,4
1,58,75,4
1,46,75,4
1,51,75,192
1,58,75,4
1,53,75,35140
1,58,75,192
1,53,75,4
1,58,75,4
1,46,75,4
1,51,75,192
1,58,75,4
1,53,75,4
1,58,75,4
1,53,75,4
1,58,75,4
1,46,75,4
1,51,75,192
1,58,75,4
1,53,75,4
1,58,75,4
1,53,75,4
1,58,75,4
1,46,75,4
1,51,75,192
1,58,75,4
1,53,75,4
1,58,75,4
1,53,75,4
1,58,75,4
1,46,75,4
1,51,75,192
1,58,75,4
1,53,75,4
1,58,75,4
1,53,75,4
1,58,75,4
1,46,75,4
1,51,75,192
1,58,75,4
1,53,75,4
1,58,75,4
1,53,75,4
1,58,75,4
1,46,75,4
1,51,75,192
1,58,75,4
1,53,75,4
1,58,75,4
1,53,75,4
1,58,75,4
1,46,75,4
1,51,75,192
1,58,75,4
1,53,75,4
1,58,75,4
1,53,75,4
1,58,75,4
1,46,75,4
1,51,75,192
1,58,75,4
1,53,75,4
1,58,75,4
1,53,75,4
1,58,75,4
1,46,75,4
1,51,75,192
1,58,75,4
1,53,75,4
1,58,75,4
1,53,75,4
1,58,75,4
1,46,75,4
1,51,75,192
1,58,75,4
1,53,75,4
1,58,75,4
1,53,75,4
1,58,75,4
1,46,75,4
1,51,75,192
1,58,75,4
1,53,75,4
1,58,75,4
1,53,75,4
1,58,75,4
1,46,75,4
1,51,75,192
1,58,75,4
1,53,75,44356
1,58,75,192
1,53,75,4
1,58,75,4
1,46,75,4
1,51,75,192
1,58,75,4
1,53,75,4
1,58,75,4
1,53,75,4
1,58,75,4
1,46,75,4
1,51,75,192
1,58,75,4
1,53,75,4
1,58,75,4
1,53,75,4
1,58,75,4
1,46,75,4
1,51,75,192
1,58,75,4
1,53,75,4
1,58,75,4
1,53,75,4
1,58,75,4
1,46,75,4
1,51,75,192
1,58,75,4
1,53,75,4
1,58,75,4
1,53,75,4
1,58,75,4
1,46,75,4
1,51,75,192
1,58,75,4
1,53,75,4
1,58,75,4
1,53,75,4
1,58,75,4
1,46,75,4
1,51,75,192
1,58,75,4
1,53,75,4
1,58,75,4
1,53,75,4
1,58,75,4
1,46,75,4
1,51,75,192
1,58,75,4
1,53,75,4
1,58,75,4
1,53,75,4
1,58,75,4
1,46,75,4
1,51,75,192
1,58,75,4
1,53,75,4
1,58,75,4
1,53,75,4
1,58,75,4
1,46,75,4
1,51,75,192
1,58,75,4
1,53,75,4
1,58,75,4
1,53,75,4
1,58,75,4
1,46,75,4
1,51,75,192
1,58,75,4
1,53,75,4
1,58,75,4
1,53,75,4
1,58,75,4
1,46,75,4
1,51,75,192
1,58,75,4
1,53,75,4
1,58,75,4
1,53,75,4
1,58,75,4
1,46,75,4
1,51,75,192
1,58,75,4
1,53,75,4
1,58,75,4
1,53,75,4
1,58,75,4
1,46,75,4
1,51,75,192
1,58,75,4
1,53,75,4
1,58,75,4
1,53,75,4
1,58,75,4
1,46,75,4
1,51,75,192
1,58,75,4
1,53,75,4
1,58,75,4
1,53,75,4
1,58,75,4
1,46,75,4
1,51,75,192
1,58,75,4
1,53,75,4
1,58,75,4
1,53,75,4
1,58,75,4
1,46,75,4
1,51,75,192
1,58,75,4
1,53,75,4
1,58,75,4
1,53,75,4
1,58,75,4
1,46,75,4
1,51,75,192
1,58,75,4
1,53,75,4
1,58,75,4
1,53,75,4
1,58,75,4
1,46,75,4
1,51,75,192
1,58,75,4
1,53,75,4
1,58,75,4
1,53,75,4
1,58,75,4
1,46,75,4
1,51,75,192
1,58,75,4
1,53,75,4
1,58,75,4
1,53,75,4
1,58,75,4
1,46,75,4
1,51,75,192
1,58,75,4
2,78,44,1344
2,55,41,2984
2,48,41,0
2,55,33,60
2,48,28,0
2,45,41,156
2,68,44,732
2,84,59,448
2,68,59,252
2,84,59,444
3,77,53,4608
3,70,15,0
3,77,53,4
3,70,15,0
3,77,53,4
3,70,15,0
3,77,53,4
3,70,15,0
3,80,53,0
3,74,15,0
3,77,53,4
3,70,15,0
3,77,53,4
3,70,15,0
3,77,53,4
3,70,15,0
3,77,53,4
3,70,15,0
3,80,53,0
3,74,15,0
3,77,53,4
3,70,15,0
3,77,53,4
3,70,15,0
3,77,53,4
3,70,15,0
3,77,53,104
3,70,15,0
3,77,53,104
3,70,15,0
3,77,53,4
3,70,15,0
3,77,53,4
3,70,15,0
3,77,53,4
3,70,15,0
3,80,53,0
3,74,15,0
3,77,53,4
3,70,15,0
3,77,53,4
3,70,15,0
3,77,53,4
3,70,15,0
3,77,53,4
3,70,15,0
3,80,53,0
3,74,15,0
3,77,53,4
3,70,15,0
3,77,53,4
3,70,15,0
3,77,53,4
3,70,15,0
3,77,53,4
3,70,15,0
3,80,53,0
3,74,15,0
3,77,53,4
3,70,15,0
3,77,53,96
3,70,15,0
3,77,53,104
3,70,15,0
3,77,53,4
3,70,15,0
3,77,53,4
3,70,15,0
3,77,53,4
3,70,15,0
3,80,53,0
3,74,15,0
3,77,53,4
3,70,15,0
3,77,53,4
3,70,15,0
3,77,53,4
3,70,15,0
3,77,53,4
3,70,15,0
3,80,53,0
3,74,15,0
3,77,53,4
3,70,15,0
3,77,53,4
3,70,15,0
3,77,53,4
3,70,15,0
3,77,53,4
3,70,15,0
3,80,53,0
3,74,15,0
3,77,53,4
3,70,15,0
3,77,53,4
3,70,15,0
3,77,53,4
3,70,15,0
3,77,53,4
3,70,15,0
3,80,53,0
3,74,15,0
3,80,53,4
3,73,15,0
3,82,53,104
3,75,15,0
3,82,53,96
3,75,15,0
3,77,53,104
3,70,15,0
3,77,53,4
3,70,15,0
3,77,53,4
3,70,15,0
3,77,53,4
3,70,15,0
3,80,53,0
3,74,15,0
3,77,53,4
3,70,15,0
3,77,53,4
3,70,15,0
3,77,53,4
3,70,15,0
3,77,53,4
3,70,15,0
3,80,53,0
3,74,15,0
3,77,53,4
3,70,15,0
3,77,53,4
3,70,15,0
3,77,53,4
3,70,15,0
3,77,53,4
3,70,15,0
3,80,53,0
3,74,15,0
3,77,53,4
3,70,15,0
3,77,53,96
3,70,15,0
3,77,53,104
3,70,15,0
3,77,53,4
3,70,15,0
3,77,53,4
3,70,15,0
3,77,53,4
3,70,15,0
3,80,53,0
3,74,15,0
3,77,53,4
3,70,15,0
3,77,53,4
3,70,15,0
3,77,53,4
3,70,15,0
3,77,53,4
3,70,15,0
3,80,53,0
3,74,15,0
3,77,53,4
3,70,15,0
3,77,53,4
3,70,15,0
3,77,53,4
3,70,15,0
3,77,53,4
3,70,15,0
3,80,53,0
3,74,15,0
3,77,53,4
3,70,15,0
3,77,53,4
3,70,15,0
3,77,53,4
3,70,15,0
3,77,53,4
3,70,15,0
3,80,53,0
3,74,15,0
3,83,53,4
3,80,53,0
3,77,15,0
3,73,15,0
3,82,53,104
3,75,15,0
3,82,53,96
3,75,15,0
3,77,53,32064
3,70,15,0
3,77,53,4
3,70,15,0
3,77,53,4
3,70,15,0
3,77,53,4
3,70,15,0
3,80,53,0
3,74,15,0
3,77,53,4
3,70,15,0
3,77,53,0
3,70,15,0
3,77,53,4
3,70,15,0
3,77,53,0
3,70,15,0
3,77,53,4
3,70,15,0
3,77,53,0
3,70,15,0
3,77,53,4
3,70,15,0
3,77,53,0
3,70,15,0
3,80,53,0
3,74,15,0
3,80,53,0
3,74,15,0
3,77,53,4
3,70,15,0
3,77,53,4
3,70,15,0
3,77,53,4
3,70,15,0
3,77,53,4
3,70,15,0
3,80,53,0
3,74,15,0
3,77,53,4
3,70,15,0
3,77,53,4
3,70,15,0
3,77,53,4
3,70,15,0
3,77,53,4
3,70,15,0
3,80,53,0
3,74,15,0
3,77,53,4
3,70,15,0
3,77,53,4
3,70,15,0
3,77,53,4
3,70,15,0
3,77,53,4
3,70,15,0
3,80,53,0
3,74,15,0
3,77,53,4
3,70,15,0
3,77,53,4
3,70,15,0
3,77,53,4
3,70,15,0
3,77,53,4
3,70,15,0
3,80,53,0
3,74,15,0
3,80,53,4
3,73,15,0
3,82,53,104
3,75,15,0
3,82,53,96
3,75,15,0
3,77,53,104
3,70,15,0
3,77,53,4
3,70,15,0
3,77,53,4
3,70,15,0
3,77,53,4
3,70,15,0
3,80,53,0
3,74,15,0
3,77,53,0
3,70,15,0
3,77,53,4
3,70,15,0
3,77,53,4
3,70,15,0
3,77,53,4
3,70,15,0
3,80,53,0
3,74,15,0
3,83,53,0
3,80,53,0
3,77,15,0
3,73,15,0
3,82,53,104
3,75,15,0
3,82,53,96
3,75,15,0
4,77,87,10752
4,82,87,0
4,82,87,384
4,77,87,0
4,82,87,252
4,77,87,0
4,77,87,252
4,70,87,0
4,82,87,60
4,77,87,0
4,77,87,232
4,70,87,0
4,82,87,60
4,77,87,0
4,82,87,232
4,77,87,0
4,82,87,252
4,77,87,0
4,77,87,60
4,70,87,0
4,77,87,192
4,82,87,0
4,82,87,232
4,77,87,0
4,82,87,252
4,77,87,0
4,77,87,252
4,70,87,0
4,85,87,60
4,80,87,0
4,85,87,232
4,80,87,0
4,82,87,252
4,87,87,0
4,87,87,252
4,82,87,0
4,77,87,252
4,70,87,0
4,77,87,60
4,82,87,0
4,82,87,232
4,77,87,0
4,82,87,252
4,77,87,0
4,77,87,252
4,70,87,0
4,82,87,60
4,77,87,0
4,77,87,232
4,70,87,0
4,82,87,60
4,77,87,0
4,77,87,636
4,82,87,0
4,82,87,384
4,77,87,0
4,82,87,252
4,77,87,0
4,77,87,252
4,70,87,0
4,82,87,60
4,77,87,0
4,77,87,232
4,70,87,0
4,82,87,60
4,77,87,0
4,82,87,232
4,77,87,0
4,82,87,252
4,77,87,0
4,80,87,0
4,85,87,0
4,85,87,384
4,80,87,0
4,70,87,252
4,75,87,0
4,87,87,192
4,82,87,0
4,75,87,232
4,87,87,60
4,82,87,0
4,77,87,636
4,82,87,0
4,82,87,384
4,77,87,0
4,82,87,252
4,77,87,0
4,77,87,252
4,70,87,0
4,82,87,60
4,77,87,0
4,77,87,232
4,70,87,0
4,82,87,60
4,77,87,0
4,82,87,232
4,77,87,0
4,82,87,252
4,77,87,0
4,77,87,60
4,70,87,0
4,77,87,192
4,82,87,0
4,82,87,232
4,77,87,0
4,82,87,252
4,77,87,0
4,77,87,252
4,70,87,0
4,85,87,60
4,80,87,0
4,85,87,232
4,80,87,0
4,82,87,252
4,87,87,0
4,87,87,252
4,82,87,0
4,77,87,252
4,70,87,0
4,77,87,60
4,70,87,0
4,77,87,0
4,82,87,0
4,82,87,232
4,77,87,0
4,82,87,252
4,77,87,0
4,77,87,252
4,70,87,0
4,82,87,60
4,77,87,0
4,77,87,232
4,70,87,0
4,82,87,60
4,77,87,0
4,77,87,636
4,82,87,0
4,82,87,384
4,77,87,0
4,82,87,252
4,77,87,0
4,77,87,252
4,70,87,0
4,82,87,60
4,77,87,0
4,77,87,232
4,70,87,0
4,82,87,60
4,77,87,0
4,82,87,232
4,77,87,0
4,82,87,252
4,77,87,0
4,80,87,0
4,85,87,0
4,85,87,384
4,80,87,0
4,70,87,252
4,75,87,0
4,87,87,192
4,82,87,0
4,75,87,232
4,87,87,60
4,82,87,0
4,77,87,636
4,82,87,0
4,82,87,384
4,77,87,0
4,82,87,252
4,77,87,0
4,77,87,252
4,70,87,0
4,77,87,3112
4,82,87,0
4,94,87,0
4,77,73,60
4,82,69,0
4,94,73,0
4,77,87,60
4,82,87,0
4,94,87,0
4,77,73,60
4,82,69,0
4,94,73,0
4,77,87,60
4,82,87,0
4,94,87,0
4,77,73,60
4,82,69,0
4,94,73,0
4,77,87,60
4,82,87,0
4,94,87,0
4,77,73,60
4,82,69,0
4,94,73,0
4,77,87,60
4,82,87,0
4,94,87,0
4,77,73,60
4,82,69,0
4,94,73,0
4,77,87,60
4,82,87,0
4,94,87,0
4,77,73,60
4,82,69,0
4,94,73,0
4,77,87,60
4,82,87,0
4,94,87,0
4,77,73,60
4,82,69,0
4,94,73,0
4,77,87,60
4,82,87,0
4,94,87,0
4,77,73,60
4,82,69,0
4,94,73,0
4,80,87,60
4,85,87,0
4,97,87,0
4,80,73,60
4,85,69,0
4,97,73,0
4,80,87,60
4,85,87,0
4,97,87,0
4,80,73,60
4,85,69,0
4,97,73,0
4,80,87,60
4,85,87,0
4,97,87,0
4,80,73,60
4,85,69,0
4,97,73,0
4,80,87,60
4,85,87,0
4,97,87,0
4,80,73,60
4,85,69,0
4,97,73,0
4,80,87,60
4,85,87,0
4,97,87,0
4,80,73,60
4,85,69,0
4,97,73,0
4,80,87,60
4,85,87,0
4,97,87,0
4,80,73,60
4,85,69,0
4,97,73,0
4,80,87,60
4,85,87,0
4,97,87,0
4,80,73,60
4,85,69,0
4,97,73,0
4,80,87,60
4,85,87,0
4,97,87,0
4,80,73,60
4,85,69,0
4,97,73,0
4,82,87,60
4,87,87,0
4,99,87,0
4,82,73,60
4,87,69,0
4,99,73,0
4,82,87,60
4,87,87,0
4,99,87,0
4,82,73,60
4,87,69,0
4,99,73,0
4,82,87,60
4,87,87,0
4,99,87,0
4,82,73,60
4,87,69,0
4,99,73,0
4,82,87,60
4,87,87,0
4,99,87,0
4,82,73,60
4,87,69,0
4,99,73,0
4,82,87,60
4,87,87,0
4,99,87,0
4,82,73,60
4,87,69,0
4,99,73,0
4,82,87,60
4,87,87,0
4,99,87,0
4,82,73,60
4,87,69,0
4,99,73,0
4,82,87,60
4,87,87,0
4,97,87,0
4,82,73,60
4,87,69,0
4,97,73,0
4,82,87,60
4,87,87,0
4,96,87,0
4,82,73,60
4,87,69,0
4,96,73,0
4,77,87,60
4,82,87,0
4,94,87,0
4,77,73,60
4,82,69,0
4,94,73,0
4,77,87,60
4,82,87,0
4,94,87,0
4,77,73,60
4,82,69,0
4,94,73,0
4,77,87,60
4,82,87,0
4,94,87,0
4,77,73,60
4,82,69,0
4,94,73,0
4,77,87,60
4,82,87,0
4,94,87,0
4,77,73,60
4,82,69,0
4,94,73,0
4,73,87,60
4,80,87,0
4,92,87,0
4,73,73,60
4,80,69,0
4,92,73,0
4,73,87,60
4,80,87,0
4,92,87,0
4,73,73,60
4,80,69,0
4,80,87,60
4,92,87,0
4,75,73,60
4,82,69,0
4,94,73,0
4,75,87,60
4,82,87,0
4,94,87,0
4,75,73,60
4,82,69,0
4,94,73,0
4,77,87,60
4,82,87,0
4,94,87,0
4,77,73,60
4,82,69,0
4,94,73,0
4,77,87,60
4,82,87,0
4,94,87,0
4,77,73,60
4,82,69,0
4,94,73,0
4,77,87,60
4,82,87,0
4,94,87,0
4,77,73,60
4,82,69,0
4,94,73,0
4,77,87,60
4,82,87,0
4,94,87,0
4,77,73,60
4,82,69,0
4,94,73,0
4,77,87,60
4,82,87,0
4,94,87,0
4,77,73,60
4,82,69,0
4,94,73,0
4,77,87,60
4,82,87,0
4,94,87,0
4,77,73,60
4,82,69,0
4,94,73,0
4,77,87,60
4,82,87,0
4,94,87,0
4,77,73,60
4,82,69,0
4,94,73,0
4,77,87,60
4,82,87,0
4,94,87,0
4,77,73,60
4,82,69,0
