track,note,velocity,time
1,44,100,0
1,51,100,0
1,63,100,60
1,63,0,30
1,63,100,0
1,63,0,30
1,63,100,0
1,63,0,30
1,63,100,0
1,63,0,30
1,63,100,0
1,63,0,30
1,63,100,0
1,63,0,30
1,51,0,0
1,44,0,0
1,65,100,0
1,53,100,0
1,46,100,0
1,65,0,30
1,63,100,0
1,63,0,90
1,63,100,60
1,63,0,30
1,65,100,0
1,65,0,30
1,46,0,0
1,53,0,0
1,61,100,0
1,49,100,0
1,42,100,0
1,61,0,60
1,61,100,0
1,61,0,60
1,63,100,0
1,63,0,90
1,63,100,0
1,42,0,30
1,49,0,0
1,51,100,0
1,44,100,0
1,63,0,120
1,44,0,60
1,51,0,0
1,42,100,0
1,42,0,30
1,44,100,0
1,44,0,30
1,51,100,0
1,44,100,0
1,63,100,30
1,63,0,25
1,63,100,5
1,63,0,25
1,63,100,5
1,63,0,25
1,63,100,5
1,63,0,25
1,63,100,5
1,63,0,25
1,63,100,5
1,63,0,60
1,44,0,0
1,51,0,0
1,65,100,0
1,53,100,0
1,46,100,0
1,65,0,60
1,63,100,0
1,63,0,60
1,61,100,60
1,61,0,30
1,61,100,0
1,61,0,30
1,46,0,0
1,53,0,0
1,49,100,0
1,42,100,0
1,61,100,60
1,61,0,30
1,61,100,0
1,61,0,30
1,61,100,0
1,61,0,30
1,61,100,0
1,61,0,30
1,61,100,0
1,61,0,30
1,61,100,0
1,61,0,60
1,61,100,0
1,61,0,60
1,63,100,0
1,42,0,30
1,49,0,0
1,63,0,30
1,63,100,0
1,63,0,30
1,42,100,0
1,63,100,0
1,63,0,30
1,42,0,0
1,44,100,0
1,63,100,0
1,63,0,30
1,44,0,0
1,51,100,0
1,44,100,0
1,63,100,0
1,63,0,30
1,63,100,0
1,63,0,30
1,63,100,0
1,63,0,60
1,63,100,0
1,63,0,30
1,63,100,0
1,63,0,90
1,44,0,0
1,51,0,0
1,53,100,0
1,46,100,0
1,65,100,0
1,65,0,30
1,63,100,0
1,63,0,90
1,63,100,30
1,63,0,30
1,63,100,0
1,63,0,30
1,65,100,0
1,65,0,30
1,46,0,0
1,53,0,0
1,49,100,0
1,42,100,0
1,61,100,0
1,61,0,60
1,61,100,0
1,61,0,60
1,61,100,0
1,61,0,30
1,61,100,0
1,61,0,60
1,63,100,0
1,42,0,30
1,49,0,0
1,51,100,0
1,44,100,0
1,44,0,180
1,51,0,0
1,42,100,0
1,42,0,30
1,44,100,0
1,44,0,30
1,63,0,0
1,51,100,0
1,44,100,0
1,63,100,60
1,63,0,30
1,63,100,0
1,63,0,30
1,63,100,0
1,63,0,30
1,63,100,0
1,63,0,60
1,65,100,0
1,44,0,30
1,51,0,0
1,53,100,0
1,46,100,0
1,65,0,30
1,63,100,0
1,63,0,60
1,61,100,0
1,61,0,30
1,61,100,0
1,61,0,90
1,61,100,0
1,61,0,30
1,46,0,0
1,53,0,0
1,49,100,0
1,42,100,0
1,61,100,60
1,61,0,120
1,63,100,0
1,63,0,60
1,63,100,0
1,63,0,60
1,61,100,0
1,61,0,60
1,42,0,0
1,49,0,0
1,59,100,0
1,59,0,60
1,61,100,0
1,61,0,60
1,59,100,0
1,63,100,0
1,42,100,0
1,63,0,30
1,63,100,0
1,63,0,90
1,63,100,0
1,63,0,60
1,63,100,0
1,63,0,60
1,42,0,0
1,59,0,0
1,58,100,0
1,63,100,0
1,42,100,0
1,63,0,60
1,61,100,0
1,61,0,60
1,61,100,0
1,61,0,60
1,61,100,0
1,61,0,60
1,42,0,0
1,58,0,0
1,56,100,0
1,61,100,0
1,44,100,0
1,61,0,60
1,59,100,0
1,59,0,120
1,44,0,0
1,44,100,0
1,63,100,0
1,44,0,30
1,42,100,0
1,42,0,30
1,63,0,0
1,56,0,0
1,61,100,0
1,40,100,0
1,68,100,30
1,68,0,30
1,70,100,0
1,70,0,30
1,71,100,0
1,71,0,30
1,61,0,0
1,56,100,0
1,56,0,30
1,59,100,0
1,59,0,30
1,63,100,0
1,63,0,30
1,56,100,0
1,56,0,30
1,40,0,0
1,66,100,0
1,58,100,0
1,42,100,0
1,66,0,30
1,66,100,0
1,66,0,90
1,66,100,0
1,66,0,60
1,66,100,0
1,66,0,60
1,42,0,0
1,58,0,0
1,66,100,0
1,59,100,0
1,44,100,0
1,66,0,60
1,64,100,0
1,64,0,60
1,63,100,0
1,44,0,60
1,44,100,0
1,44,0,30
1,63,0,0
1,42,100,0
1,63,100,0
1,63,0,30
1,42,0,0
1,59,0,0
1,64,100,0
1,56,100,0
1,40,100,0
1,64,0,60
1,63,100,0
1,63,0,60
1,63,100,0
1,63,0,30
1,61,100,0
1,61,0,60
1,61,100,0
1,40,0,30
1,56,0,0
1,58,100,0
1,42,100,0
1,58,0,120
1,61,0,0
1,59,100,0
1,59,0,60
1,61,100,0
1,61,0,60
1,42,0,0
1,63,100,0
1,59,100,0
1,47,100,0
1,63,0,60
1,63,100,0
1,63,0,60
1,63,100,0
1,63,0,60
1,64,100,0
1,64,0,60
1,47,0,0
1,59,0,0
1,63,100,0
1,58,100,0
1,42,100,0
1,63,0,30
1,61,100,0
1,61,0,90
1,61,100,0
1,61,0,30
1,61,100,0
1,61,0,30
1,61,100,0
1,61,0,30
1,59,100,0
1,59,0,30
1,42,0,0
1,58,0,0
1,63,100,0
1,56,100,0
1,44,100,0
1,63,0,30
1,61,100,0
1,61,0,60
1,59,100,0
1,44,0,150
1,44,100,0
1,44,0,120
1,59,0,0
1,56,0,0
1,56,100,0
1,51,100,0
1,42,100,0
1,56,0,60
1,58,100,0
1,58,0,60
1,42,0,0
1,51,0,0
1,59,100,0
1,56,100,0
1,51,100,0
1,40,100,0
1,59,0,120
1,59,100,0
1,40,0,120
1,40,100,0
1,56,0,120
1,59,0,0
1,63,100,0
1,59,100,0
1,63,0,60
1,63,100,0
1,63,0,60
1,59,0,0
1,51,0,0
1,40,0,0
1,40,100,0
1,47,100,0
1,56,100,0
1,59,100,0
1,59,0,90
1,56,0,0
1,54,100,0
1,59,100,90
1,59,0,30
1,52,100,0
1,52,0,30
1,47,0,0
1,40,0,0
1,40,100,0
1,59,100,0
1,59,0,120
1,54,0,0
1,59,100,0
1,59,0,60
1,40,0,0
1,61,100,0
1,42,100,0
1,42,0,60
1,61,0,0
1,59,100,0
1,63,100,0
1,44,100,0
1,59,0,60
1,56,100,0
1,56,0,30
1,59,100,0
1,59,0,30
1,44,0,0
1,56,100,0
1,44,100,0
1,56,0,30
1,59,100,0
1,44,0,60
1,44,100,0
1,44,0,30
1,59,0,0
1,63,0,0
1,63,100,0
1,56,100,0
1,59,100,0
1,52,100,0
1,49,100,0
1,63,0,60
1,64,100,0
1,64,0,30
1,63,100,0
1,49,0,30
1,52,0,0
1,37,100,0
1,63,0,60
1,61,100,0
1,61,0,60
1,37,0,0
1,59,0,0
1,56,0,0
1,58,100,0
1,61,100,0
1,42,100,0
1,58,0,60
1,56,100,0
1,56,0,30
1,58,100,0
1,58,0,30
1,42,0,0
1,54,100,0
1,42,100,0
1,42,0,90
1,42,100,0
1,42,0,30
1,54,0,0
1,61,0,0
1,56,100,0
1,59,100,0
1,49,100,0
1,52,100,0
1,59,0,60
1,61,100,0
1,61,0,60
1,52,0,0
1,49,0,0
1,63,100,0
1,37,100,0
1,63,0,90
1,56,0,0
1,63,100,0
1,59,100,0
1,37,0,30
1,44,100,0
1,59,0,60
1,44,0,60
1,44,100,0
1,63,0,60
1,44,0,30
1,44,100,0
1,63,100,0
1,63,0,30
1,44,0,0
1,63,100,0
1,56,100,0
1,59,100,0
1,49,100,0
1,52,100,0
1,63,0,60
1,64,100,0
1,64,0,30
1,63,100,0
1,52,0,30
1,49,0,0
1,37,100,0
1,63,0,60
1,61,100,0
1,61,0,60
1,37,0,0
1,59,0,0
1,56,0,0
1,42,100,0
1,58,100,0
1,61,100,0
1,58,0,60
1,56,100,0
1,56,0,30
1,58,100,0
1,58,0,30
1,42,0,0
1,42,100,0
1,54,100,0
1,42,0,90
1,42,100,0
1,42,0,30
1,54,0,0
1,61,0,0
1,61,100,0
1,52,100,0
1,49,100,0
1,56,100,0
1,61,0,30
1,61,100,0
1,61,0,30
1,59,100,0
1,59,0,30
1,61,100,0
1,52,0,30
1,49,0,0
1,37,100,0
1,61,0,30
1,61,100,0
1,61,0,30
1,37,0,0
1,61,100,0
1,49,100,0
1,49,0,30
1,61,0,0
1,59,100,0
1,42,100,0
1,42,0,30
1,59,0,0
1,56,0,0
1,58,100,0
1,63,100,0
1,44,100,0
1,63,0,60
1,61,100,0
1,61,0,30
1,58,0,0
1,63,100,0
1,59,100,0
1,44,0,30
1,44,100,0
1,44,0,60
1,51,100,0
1,51,0,30
1,63,0,0
1,63,100,0
1,44,100,0
1,44,0,30
1,63,0,0
1,59,0,0
1,63,100,0
1,56,100,0
1,59,100,0
1,52,100,0
1,49,100,0
1,63,0,60
1,64,100,0
1,64,0,30
1,63,100,0
1,49,0,30
1,52,0,0
1,37,100,0
1,63,0,60
1,61,100,0
1,61,0,60
1,37,0,0
1,59,0,0
1,56,0,0
1,58,100,0
1,61,100,0
1,42,100,0
1,58,0,60
1,56,100,0
1,56,0,30
1,58,100,0
1,58,0,30
1,42,0,0
1,54,100,0
1,42,100,0
1,42,0,90
1,42,100,0
1,42,0,30
1,54,0,0
1,61,0,0
1,59,100,0
1,56,100,0
1,49,100,0
1,52,100,0
1,59,0,60
1,61,100,0
1,61,0,60
1,52,0,0
1,49,0,0
1,56,0,0
1,59,100,0
1,63,100,0
1,37,100,0
1,37,0,60
1,63,0,0
1,66,100,0
1,49,100,0
1,49,0,30
1,42,100,0
1,42,0,30
1,66,0,0
1,59,0,0
1,63,100,0
1,59,100,0
1,44,100,0
1,59,0,60
1,56,100,0
1,56,0,30
1,59,100,0
1,59,0,30
1,44,0,0
1,44,100,0
1,56,100,0
1,56,0,30
1,59,100,0
1,44,0,60
1,63,0,0
1,63,100,0
1,44,100,0
1,44,0,30
1,63,0,0
1,59,0,0
1,63,100,0
1,56,100,0
1,59,100,0
1,49,100,0
1,52,100,0
1,63,0,60
1,64,100,0
1,64,0,30
1,63,100,0
1,52,0,30
1,49,0,0
1,37,100,0
1,63,0,60
1,61,100,0
1,61,0,60
1,37,0,0
1,59,0,0
1,56,0,0
1,58,100,0
1,61,100,0
1,42,100,0
1,58,0,60
1,59,100,0
1,59,0,30
1,61,100,0
1,61,0,30
1,42,0,0
1,61,0,0
1,54,100,0
1,42,100,0
1,61,100,60
1,61,0,30
1,59,100,0
1,59,0,30
1,42,0,0
1,54,0,0
1,61,100,0
1,56,100,0
1,52,100,0
1,49,100,0
1,61,0,90
1,59,100,0
1,59,0,30
1,49,0,0
1,52,0,0
1,61,100,0
1,44,100,0
1,61,0,30
1,63,100,0
1,63,0,30
1,59,100,0
1,59,0,30
1,59,100,0
1,44,0,30
1,37,100,0
1,37,0,120
1,59,0,0
1,56,0,0
1,52,100,0
1,61,100,30
1,61,0,30
1,61,100,0
1,61,0,30
1,59,100,0
1,59,0,30
1,52,0,0
1,40,100,0
1,61,100,0
1,56,100,0
1,61,0,90
1,59,100,0
1,59,0,30
1,40,0,0
1,47,100,0
1,61,100,0
1,61,0,30
1,63,100,0
1,63,0,30
1,59,100,0
1,47,0,60
1,40,100,0
1,40,0,60
1,59,0,0
1,59,100,0
1,47,100,0
1,47,0,30
1,52,100,0
1,52,0,30
1,59,0,0
1,56,0,0
1,56,100,0
1,59,100,0
1,51,100,0
1,51,0,30
1,49,100,0
1,49,0,30
1,47,100,0
1,47,0,30
1,46,100,0
1,46,0,30
1,59,0,0
1,56,0,0
1,44,100,0
1,68,100,0
1,59,100,0
1,63,100,0
1,68,0,30
1,71,100,0
1,71,0,30
1,68,100,0
1,68,0,30
1,66,100,0
1,66,0,30
1,63,0,0
1,59,0,0
1,44,0,0
1,44,100,0
1,59,100,0
1,63,100,0
1,63,0,30
1,66,100,0
1,66,0,30
1,63,100,0
1,63,0,30
1,44,0,0
1,46,100,0
1,61,100,0
1,61,0,30
1,46,0,0
1,59,0,0
1,47,100,0
1,54,100,0
1,59,100,0
1,63,100,0
1,47,0,120
1,35,100,0
1,35,0,90
1,39,100,0
1,39,0,30
1,54,0,0
1,59,0,0
1,63,0,0
1,40,100,0
1,64,100,0
1,64,0,30
1,66,100,0
1,66,0,30
1,68,100,0
1,64,100,0
1,64,0,30
1,68,0,0
1,71,100,0
1,71,0,30
1,40,0,0
1,40,100,0
1,59,100,0
1,63,100,0
1,63,0,30
1,59,0,0
1,66,100,0
1,66,0,30
1,64,100,0
1,56,100,0
1,64,0,30
1,40,0,0
1,47,100,0
1,63,100,0
1,63,0,30
1,47,0,0
1,56,0,0
1,56,100,0
1,49,100,0
1,52,100,0
1,61,100,0
1,56,0,90
1,54,100,0
1,54,0,30
1,49,0,0
1,52,0,0
1,56,100,0
1,37,100,0
1,56,0,30
1,54,100,0
1,54,0,30
1,56,100,0
1,56,0,30
1,56,100,0
1,56,0,30
1,37,0,0
1,61,0,0
1,44,100,0
1,68,100,0
1,59,100,0
1,63,100,0
1,68,0,30
1,71,100,0
1,71,0,30
1,68,100,0
1,68,0,30
1,66,100,0
1,66,0,30
1,63,0,0
1,59,0,0
1,44,0,0
1,44,100,0
1,59,100,0
1,63,100,0
1,63,0,30
1,66,100,0
1,66,0,30
1,63,100,0
1,63,0,30
1,44,0,0
1,46,100,0
1,61,100,0
1,61,0,30
1,46,0,0
1,59,0,0
1,47,100,0
1,54,100,0
1,59,100,0
1,63,100,0
1,47,0,120
1,35,100,0
1,35,0,90
1,39,100,0
1,39,0,30
1,54,0,0
1,59,0,0
1,63,0,0
1,40,100,0
1,64,100,0
1,64,0,30
1,66,100,0
1,66,0,30
1,68,100,0
1,64,100,0
1,64,0,30
1,68,0,0
1,71,100,0
1,71,0,30
1,40,0,0
1,40,100,0
1,59,100,0
1,63,100,0
1,63,0,30
1,59,0,0
1,66,100,0
1,66,0,30
1,64,100,0
1,56,100,0
1,64,0,30
1,40,0,0
1,47,100,0
1,63,100,0
1,63,0,30
1,47,0,0
1,56,0,0
1,56,100,0
1,49,100,0
1,52,100,0
1,61,100,0
1,52,0,120
1,49,0,0
1,37,100,0
1,37,0,120
1,56,0,0
1,61,0,0
1,44,100,0
1,51,100,0
1,63,100,60
1,63,0,30
1,63,100,0
1,63,0,30
1,63,100,0
1,63,0,30
1,63,100,0
1,63,0,30
1,63,100,0
1,63,0,30
1,63,100,0
1,63,0,30
1,51,0,0
1,44,0,0
1,65,100,0
1,53,100,0
1,46,100,0
1,65,0,30
1,63,100,0
1,63,0,90
1,63,100,60
1,63,0,30
1,65,100,0
1,65,0,30
1,46,0,0
1,53,0,0
1,61,100,0
1,49,100,0
1,42,100,0
1,61,0,60
1,61,100,0
1,61,0,60
1,63,100,0
1,63,0,90
1,63,100,0
1,42,0,30
1,49,0,0
1,51,100,0
1,44,100,0
1,63,0,120
1,44,0,60
1,51,0,0
1,42,100,0
1,42,0,30
1,44,100,0
1,44,0,30
1,51,100,0
1,44,100,0
1,63,100,30
1,63,0,25
1,63,100,5
1,63,0,25
1,63,100,5
1,63,0,25
1,63,100,5
1,63,0,25
1,63,100,5
1,63,0,25
1,63,100,5
1,63,0,60
1,44,0,0
1,51,0,0
1,65,100,0
1,53,100,0
1,46,100,0
1,65,0,60
1,63,100,0
1,63,0,60
1,61,100,60
1,61,0,30
1,61,100,0
1,61,0,30
1,46,0,0
1,53,0,0
1,49,100,0
1,42,100,0
1,61,100,60
1,61,0,30
1,61,100,0
1,61,0,30
1,61,100,0
1,61,0,30
1,61,100,0
1,61,0,30
1,61,100,0
1,61,0,30
1,61,100,0
1,61,0,60
1,61,100,0
1,61,0,60
1,63,100,0
1,42,0,30
1,49,0,0
1,63,0,30
1,63,100,0
1,63,0,30
1,42,100,0
1,63,100,0
1,63,0,30
1,42,0,0
1,44,100,0
1,63,100,0
