track,note,velocity,time
0,38,100,10
0,50,95,0
0,33,97,8
0,45,92,0
0,38,97,8
0,50,92,0
0,33,95,8
0,45,90,0
0,38,103,8
0,50,98,0
0,33,88,8
0,45,83,0
0,38,95,8
0,50,90,0
0,33,90,8
0,45,85,0
0,38,100,8
0,50,95,0
0,33,84,8
0,45,79,0
0,38,97,8
0,50,92,0
0,33,84,8
0,45,79,0
0,38,97,8
0,50,92,0
0,33,92,8
0,45,87,0
0,38,95,8
0,50,90,0
0,33,88,8
0,45,83,0
0,38,103,8
0,50,98,0
0,33,84,8
0,45,79,0
0,38,95,8
0,50,90,0
0,33,90,11
0,45,85,0
0,38,95,8
0,50,90,0
0,33,84,8
0,45,79,0
0,38,97,8
0,50,92,0
0,33,95,11
0,45,90,0
0,38,100,8
0,50,95,0
0,33,90,8
0,45,85,0
0,38,97,8
0,50,92,0
0,33,90,14
0,45,85,0
0,38,95,8
0,50,90,0
0,62,80,9
0,33,92,5
0,45,87,0
0,62,0,36
0,62,74,1
0,38,95,7
0,50,90,0
0,62,0,48
0,64,80,12
0,33,90,4
0,45,85,0
0,64,0,40
0,65,84,2
0,38,106,6
0,50,96,0
0,65,0,38
0,65,88,10
0,33,90,8
0,45,85,0
0,65,0,39
0,38,100,8
0,50,95,0
0,33,88,16
0,45,83,0
0,38,103,8
0,50,98,0
0,65,78,1
0,65,0,39
0,65,70,9
0,33,86,6
0,45,81,0
0,65,0,35
0,65,74,2
0,38,100,6
0,50,95,0
0,65,0,41
0,67,79,7
0,33,86,9
0,45,81,0
0,67,0,34
0,69,81,4
0,38,103,4
0,50,98,0
0,69,0,46
0,69,87,13
0,33,88,5
0,45,83,0
0,69,0,42
0,38,97,8
0,50,92,0
0,33,95,12
0,45,90,0
0,38,103,8
0,50,98,0
0,33,88,17
0,45,83,0
0,38,100,8
0,50,95,0
0,33,92,18
0,45,87,0
0,38,109,8
0,50,94,0
0,33,92,15
0,45,87,0
0,38,103,11
0,50,98,0
0,33,88,18
0,45,83,0
0,38,103,16
0,50,98,0
0,74,91,15
0,33,90,3
0,45,85,0
0,74,0,52
0,74,85,7
0,38,97,1
0,50,92,0
0,74,0,57
0,76,91,15
0,33,92,3
0,45,87,0
0,76,0,49
0,38,106,8
0,50,96,0
0,77,96,2
0,77,0,52
0,33,95,18
0,45,90,0
0,77,101,2
0,77,0,52
0,38,97,8
0,50,92,0
0,33,97,11
0,45,92,0
0,77,105,9
0,38,95,8
0,50,90,0
0,77,0,64
0,33,92,12
0,45,87,0
0,77,98,17
0,77,0,54
0,38,97,8
0,50,97,0
0,76,95,7
0,76,0,52
0,33,109,18
0,45,82,0
0,74,88,2
0,74,0,48
0,72,91,14
0,43,92,4
0,55,89,0
0,72,0,63
0,70,83,4
0,38,80,4
0,50,75,0
0,70,0,59
0,43,106,8
0,55,96,0
0,38,97,16
0,50,92,0
0,43,100,8
0,55,95,0
0,38,95,11
0,50,90,0
0,43,95,8
0,55,90,0
0,38,90,8
0,50,85,0
0,43,103,8
0,55,98,0
0,38,86,11
0,50,81,0
0,43,103,8
0,55,98,0
0,38,90,8
0,50,85,0
0,43,97,8
0,55,92,0
0,64,80,17
0,38,84,1
0,50,79,0
0,64,0,49
0,64,75,4
0,43,95,4
0,55,90,0
0,64,0,56
0,65,83,8
0,38,80,4
0,50,75,0
0,65,0,56
0,67,87,7
0,43,106,1
0,55,98,0
0,67,0,57
0,67,92,7
0,38,88,1
0,50,83,0
0,67,0,52
0,43,100,8
0,55,95,0
0,38,88,16
0,50,83,0
0,67,89,8
0,67,0,47
0,43,100,8
0,55,95,0
0,67,78,2
0,67,0,42
0,67,83,14
0,38,90,1
0,50,85,0
0,67,0,40
0,67,88,2
0,43,97,9
0,55,92,0
0,67,0,40
0,69,91,9
0,38,86,9
0,50,81,0
0,69,0,43
0,70,96,41
0,43,106,8
0,55,98,0
0,70,0,49
0,70,88,2
0,38,88,9
0,50,83,0
0,70,0,40
0,43,103,8
0,55,98,0
0,38,84,11
0,50,79,0
0,43,103,8
0,55,98,0
0,38,88,16
0,50,83,0
0,43,100,8
0,55,95,0
0,38,80,18
0,50,75,0
0,43,105,12
0,55,97,0
0,38,90,11
0,50,85,0
0,43,103,8
0,55,98,0
0,38,92,11
0,50,87,0
0,43,106,8
0,55,98,0
0,73,93,13
0,38,92,3
0,50,87,0
0,73,0,44
0,73,87,5
0,43,106,3
0,55,99,0
0,73,0,50
0,74,88,3
0,38,95,13
0,50,90,0
0,74,0,43
0,76,92,3
0,45,112,9
0,57,104,0
0,76,0,51
0,76,95,7
0,40,88,4
0,52,83,0
0,76,0,49
0,45,106,8
0,57,101,0
0,40,97,18
0,52,92,0
0,76,95,9
0,76,0,51
0,45,103,8
0,57,98,0
0,76,101,8
0,76,0,45
0,40,95,8
0,52,90,0
0,76,91,6
0,76,0,55
0,45,106,8
0,57,101,0
0,74,91,2
0,74,0,52
0,40,106,18
0,52,101,0
0,73,92,4
0,73,0,49
0,74,101,14
0,38,106,4
0,50,85,0
0,74,0,64
0,33,94,18
0,45,74,0
0,38,108,8
0,50,103,0
0,33,95,18
0,45,90,0
0,38,103,8
0,50,96,0
0,33,92,18
0,45,87,0
0,38,106,8
0,50,101,0
0,33,79,18
0,45,74,0
0,38,113,8
0,50,103,0
0,44,112,0
0,33,92,16
0,45,87,0
0,40,85,0
0,38,106,8
0,50,101,0
0,40,112,0
0,44,112,0
0,33,103,18
0,45,98,0
0,40,117,0
0,38,100,8
0,50,95,0
0,40,117,0
0,44,107,0
0,43,109,40
0,62,94,15
0,33,97,3
0,45,92,0
0,45,95,0
0,62,0,33
0,47,95,7
0,62,89,6
0,38,106,6
0,50,101,0
0,40,117,0
0,44,102,0
0,62,0,39
0,64,93,11
0,33,113,7
0,45,108,0
0,47,127,0
0,48,117,40
0,64,0,3
0,65,102,12
0,38,113,4
0,50,78,0
0,35,122,0
0,49,127,0
0,77,50,0
0,81,54,0
0,86,58,0
0,65,0,33
0,65,95,1
0,33,122,7
0,45,87,0
0,65,0,40
0,38,109,8
0,50,74,0
0,62,106,0
0,65,112,0
0,40,116,0
0,42,106,0
0,61,97,1
0,64,100,0
0,33,117,1
0,45,82,0
0,62,92,0
0,65,98,0
0,35,122,0
0,42,64,0
0,65,89,4
0,38,103,4
0,50,68,0
0,42,119,0
0,65,0,31
0,65,89,8
0,33,109,2
0,45,74,0
0,35,122,0
0,42,81,0
0,65,0,30
0,65,93,0
0,38,106,8
0,50,71,0
0,40,117,0
0,42,120,0
0,65,0,30
0,67,89,0
0,33,109,8
0,45,74,0
0,35,118,0
0,42,67,0
0,67,0,38
0,69,95,0
0,38,106,8
0,50,71,0
0,35,122,0
0,42,119,0
0,69,0,35
0,69,95,43
0,33,103,8
0,45,68,0
0,42,50,0
0,69,0,31
0,38,109,8
0,50,74,0
0,62,103,0
0,65,108,0
0,40,117,0
0,42,119,0
0,61,94,1
0,64,99,0
0,33,103,1
0,45,68,0
0,62,99,0
0,65,103,0
0,35,122,0
0,42,59,0
0,38,103,8
0,50,68,0
0,42,106,0
0,74,104,12
0,33,100,6
0,45,65,0
0,35,123,0
0,42,72,0
0,74,0,31
0,74,93,5
0,38,97,3
0,50,62,0
0,40,117,0
0,42,120,0
0,74,0,41
0,76,99,13
0,33,103,5
0,45,68,0
0,35,109,0
0,42,75,0
0,76,0,43
0,77,106,5
0,38,97,3
0,50,62,0
0,35,123,0
0,42,115,0
0,77,0,46
0,77,109,13
0,33,103,3
0,45,68,0
0,42,58,0
0,77,0,42
0,38,100,8
0,50,65,0
0,62,101,0
0,65,109,0
0,40,116,0
0,42,120,0
0,61,87,1
0,64,95,0
0,33,103,1
0,45,68,0
0,62,96,0
0,65,102,0
0,35,118,0
0,42,73,0
0,77,114,7
0,38,92,8
0,50,57,0
0,42,115,0
0,77,0,46
0,33,97,8
0,45,62,0
0,35,122,0
0,42,65,0
0,77,109,4
0,77,0,54
0,38,100,8
0,50,65,0
0,40,117,0
0,42,120,0
0,76,92,3
0,76,0,51
0,33,113,8
0,45,78,0
0,35,99,0
0,46,118,0
0,74,103,4
0,81,0,46
0,74,0,2
0,77,0,1
0,72,96,16
0,43,109,2
0,55,74,0
0,35,123,0
0,42,119,0
0,79,48,0
0,82,47,0
0,72,0,58
0,70,89,10
0,38,74,2
0,50,39,0
0,42,70,0
0,70,0,46
0,43,103,8
0,55,68,0
0,67,101,0
0,70,106,0
0,40,116,0
0,42,120,0
0,66,91,1
0,69,98,0
0,38,80,1
0,50,45,0
0,67,96,0
0,70,103,0
0,35,122,0
0,42,56,0
0,43,97,8
0,55,62,0
0,42,119,0
0,38,80,8
0,50,45,0
0,35,123,0
0,42,61,0
0,64,96,5
0,64,0,43
0,64,85,7
0,43,100,1
0,55,65,0
0,40,117,0
0,42,119,0
0,64,0,46
0,65,90,9
0,38,80,2
0,50,45,0
0,35,118,0
0,42,55,0
0,65,0,45
0,67,93,10
0,43,106,1
0,55,71,0
0,35,122,0
0,42,115,0
0,67,0,46
0,67,99,6
0,38,72,2
0,50,37,0
0,42,54,0
0,67,0,45
0,43,92,11
0,55,57,0
0,67,109,0
0,70,118,0
0,40,117,0
0,42,120,0
0,66,90,1
0,69,88,0
0,38,74,1
0,50,39,0
0,67,93,0
0,70,99,0
0,35,123,0
0,42,56,0
0,67,99,4
0,67,0,20
0,43,95,8
0,55,60,0
0,42,115,0
0,67,89,3
0,67,0,37
0,67,96,7
0,38,76,1
0,50,41,0
0,35,122,0
0,42,62,0
0,67,0,44
0,67,98,2
0,43,97,6
0,55,62,0
0,40,112,0
0,42,110,0
0,67,0,38
0,69,105,5
0,38,77,6
0,50,42,0
0,35,109,0
0,42,72,0
0,69,0,45
0,70,95,1
0,43,95,7
0,55,60,0
0,35,123,0
0,42,110,0
0,70,0,51
0,70,89,3
0,38,69,5
0,50,34,0
0,42,61,0
0,70,0,43
0,43,103,8
0,55,68,0
0,67,101,0
0,70,109,0
0,40,116,0
0,42,115,0
0,66,85,1
0,69,92,0
0,38,80,1
0,50,45,0
0,67,95,0
0,70,110,0
0,35,118,0
0,42,79,0
0,43,92,8
0,55,57,0
0,42,102,0
0,38,73,11
0,50,38,0
0,35,118,0
0,42,90,0
0,73,99,5
0,73,0,48
0,73,92,5
0,43,103,3
0,55,68,0
0,40,116,0
0,42,110,0
0,42,85,40
0,73,0,6
0,74,97,6
0,38,84,6
0,50,49,0
0,35,113,0
0,46,127,0
0,74,0,37
0,79,0,1
0,82,0,0
0,86,0,0
0,76,97,15
0,45,103,3
0,57,68,0
0,35,118,0
0,42,115,0
0,81,48,0
0,85,50,0
0,88,54,0
0,76,0,43
0,76,101,15
0,40,80,3
0,52,45,0
0,42,93,0
0,76,0,43
0,45,103,8
0,57,68,0
0,69,97,0
0,73,103,0
0,40,116,0
0,42,120,0
0,68,86,1
0,72,96,0
0,76,106,0
0,40,72,1
0,52,37,0
0,69,97,0
0,73,104,0
0,35,118,0
0,42,81,0
0,76,0,11
0,76,94,1
0,45,100,7
0,57,65,0
0,42,119,0
0,76,0,32
0,76,103,5
0,40,80,10
0,52,45,0
0,35,118,0
0,42,66,0
0,76,0,34
0,74,94,41
0,45,97,8
0,57,62,0
0,40,112,0
0,42,115,0
0,74,0,34
0,73,96,2
0,40,79,10
0,52,44,0
0,35,113,0
0,42,64,0
0,73,0,31
0,88,0,20
0,85,0,1
0,81,0,5
0,74,104,0
0,38,95,15
0,50,60,0
0,53,98,0
0,57,87,0
0,62,64,0
0,50,90,0
0,53,96,0
0,57,89,0
0,62,103,0
0,35,122,0
0,42,119,0
0,77,50,0
0,81,50,0
0,86,57,0
0,74,0,30
0,33,113,10
0,45,78,0
0,50,60,0
0,62,102,0
0,74,102,0
0,42,63,0
0,62,0,5
0,62,0,21
0,38,109,8
0,50,74,0
0,53,71,0
0,57,68,0
0,65,123,0
0,77,127,0
0,62,98,0
0,40,116,0
0,42,119,0
0,31,126,4
0,43,91,0
0,50,108,0
0,62,107,0
0,74,102,0
0,35,122,0
0,42,67,0
0,53,0,2
0,81,0,5
0,86,0,1
0,77,0,7
0,31,122,9
0,43,87,0
0,55,101,0
0,59,112,0
0,62,74,0
0,50,80,0
0,55,82,0
0,59,88,0
0,67,105,0
0,79,86,0
0,59,119,0
0,42,115,0
0,79,54,0
0,83,55,0
0,86,60,0
0,68,116,5
0,80,116,0
0,69,96,9
0,81,96,0
0,31,122,4
0,43,87,0
0,72,116,0
0,84,110,0
0,59,113,0
0,35,122,0
0,42,58,0
0,55,0,0
0,31,126,12
0,43,91,0
0,69,115,0
0,81,115,0
0,40,116,0
0,42,119,0
0,69,0,34
0,81,0,0
0,67,100,6
0,79,110,0
0,62,0,9
0,79,0,2
0,83,0,0
0,86,0,0
0,38,126,5
0,50,93,0
0,53,108,0
0,57,95,0
0,62,79,0
0,65,124,0
0,77,113,0
0,62,115,0
0,35,122,0
0,42,88,0
0,77,50,0
0,81,54,0
0,86,58,0
0,65,0,27
0,50,96,31
0,53,98,0
0,57,100,0
0,62,86,0
0,74,127,0
0,35,123,0
0,46,127,0
0,81,0,6
0,86,0,0
0,77,0,1
0,74,0,6
0,53,0,0
0,33,110,12
0,45,92,0
0,57,90,0
0,61,56,0
0,64,75,0
0,45,73,0
0,57,73,0
0,61,55,0
0,64,81,0
0,69,72,0
0,40,85,0
0,45,0,0
0,33,103,22
0,45,70,0
0,57,87,0
0,61,81,0
0,64,81,0
0,45,87,0
0,57,87,0
0,61,83,0
0,64,82,0
0,69,85,0
0,40,103,0
0,44,112,0
0,45,0,6
0,33,106,13
0,45,82,0
0,57,85,0
0,61,95,0
0,64,77,0
0,45,93,0
0,57,91,0
0,61,93,0
0,64,89,0
0,69,93,0
0,40,117,0
0,44,76,0
0,45,0,4
0,33,115,13
0,45,87,0
0,57,90,0
0,61,101,0
0,64,85,0
0,45,98,0
0,57,87,0
0,61,91,0
0,64,94,0
0,69,98,0
0,40,117,0
0,44,107,0
0,45,0,1
0,33,115,21
0,45,87,0
0,57,90,0
0,61,95,0
0,64,83,0
0,45,103,0
0,57,96,0
0,61,107,0
0,64,94,0
0,69,104,0
0,40,117,0
0,45,0,4
0,33,117,21
0,45,87,0
0,57,85,0
0,61,95,0
0,64,79,0
0,45,102,0
0,57,105,0
0,61,102,0
0,64,95,0
0,69,113,0
0,40,117,0
0,44,107,0
0,45,0,5
0,33,116,21
0,45,87,0
0,57,72,0
0,61,68,0
0,64,67,0
0,45,106,0
0,57,106,0
0,61,104,0
0,64,98,0
0,69,116,0
0,40,117,0
0,45,0,4
0,38,106,26
0,35,123,0
0,40,117,0
0,42,119,0
0,49,127,0
0,65,82,0
0,69,81,0
0,74,73,0
0,77,109,0
0,81,109,0
0,86,100,0
0,74,105,7
0,42,72,88
0,74,0,26
0,38,113,62
0,35,122,0
0,40,117,0
0,42,119,0
0,74,100,2
0,74,0,53
0,33,117,8
0,74,104,0
0,42,56,0
0,74,0,44
0,74,109,9
0,38,109,7
0,40,116,0
0,42,120,0
0,74,0,6
0,33,122,8
0,35,122,0
0,46,118,0
0,76,112,3
0,38,109,8
0,40,117,0
0,42,106,0
0,76,0,44
0,77,115,33
0,33,113,8
0,35,122,0
0,46,118,0
0,65,124,1
0,29,109,5
0,35,123,0
0,40,117,0
0,42,119,0
0,69,86,0
0,72,83,0
0,77,79,0
0,81,103,0
0,84,104,0
0,89,99,0
0,42,72,88
0,65,0,10
0,65,112,57
0,29,117,15
0,35,122,0
0,40,117,0
0,42,119,0
0,65,0,40
0,65,112,3
0,36,97,13
0,42,56,0
0,65,0,34
0,65,112,41
0,41,92,8
0,40,116,0
0,42,120,0
0,65,0,57
0,67,124,10
0,36,90,1
0,35,122,0
0,46,118,0
0,41,92,11
0,40,117,0
0,42,106,0
0,67,0,52
0,69,118,13
0,36,92,5
0,35,122,0
0,46,118,0
0,77,0,30
0,29,117,8
0,35,123,0
0,40,117,0
