track,note,velocity,time
1,70,64,960
1,75,57,0
1,75,0,72
1,70,0,0
1,75,74,24
1,70,56,0
1,70,0,36
1,75,0,0
1,77,64,12
1,77,0,36
1,73,72,12
1,80,55,0
1,80,0,168
1,73,0,0
1,80,56,24
1,75,58,0
1,75,0,72
1,77,73,24
1,77,0,72
1,80,0,0
1,71,70,24
1,78,54,0
1,78,0,168
1,71,0,0
1,80,63,24
1,73,63,0
1,73,0,168
1,80,0,0
1,73,70,24
1,68,60,0
1,68,0,168
1,73,0,0
1,70,63,24
1,75,74,0
1,75,0,168
1,70,0,0
1,70,65,216
1,75,56,0
1,75,0,72
1,70,0,0
1,75,55,24
1,70,55,0
1,70,0,36
1,75,0,0
1,77,63,12
1,77,0,36
1,73,55,12
1,80,74,0
1,80,0,168
1,73,0,0
1,80,64,24
1,75,71,0
1,75,0,72
1,77,72,24
1,77,0,72
1,80,0,0
1,73,64,24
1,78,71,0
1,78,0,132
1,73,0,0
1,77,74,12
1,77,0,36
1,77,73,12
1,77,0,72
1,75,60,24
1,70,64,0
1,70,0,72
1,75,0,0
1,75,73,24
1,70,56,0
1,70,0,72
1,68,55,24
1,68,0,72
1,70,63,24
1,70,0,72
1,68,54,24
1,68,0,72
1,68,55,24
1,68,0,72
1,68,74,24
1,68,0,72
1,70,65,24
1,70,0,168
1,75,0,0
1,70,72,216
1,75,70,0
1,75,0,72
1,70,0,0
1,75,59,24
1,75,0,72
1,73,59,24
1,68,58,0
1,68,0,168
1,73,0,0
1,75,54,24
1,75,0,72
1,77,73,24
1,77,0,72
1,78,62,24
1,71,65,0
1,71,0,168
1,78,0,0
1,73,65,24
1,80,64,0
1,80,0,168
1,73,0,0
1,68,71,24
1,73,55,0
1,73,0,120
1,68,0,0
1,75,66,24
1,75,0,36
1,75,72,12
1,70,64,0
1,70,0,168
1,75,0,0
1,70,73,216
1,75,55,0
1,75,0,72
1,70,0,0
1,75,66,24
1,75,0,72
1,73,61,24
1,68,70,0
1,68,0,168
1,73,0,0
1,75,56,24
1,75,0,72
1,77,64,24
1,77,0,72
1,78,55,24
1,73,65,0
1,73,0,120
1,78,0,0
1,77,72,24
1,77,0,36
1,77,71,12
1,77,0,72
1,75,74,24
1,70,64,0
1,70,0,72
1,75,0,0
1,75,55,24
1,70,55,0
1,70,0,72
1,68,73,24
1,68,0,72
1,70,58,24
1,70,0,168
1,75,0,0
1,70,73,168
1,70,0,36
1,70,66,12
1,75,74,0
1,75,0,36
1,70,0,0
1,75,72,12
1,75,0,36
1,75,57,12
1,70,74,0
1,70,0,36
1,75,0,0
1,77,62,12
1,77,0,36
1,73,74,12
1,68,63,0
1,68,0,36
1,73,0,0
1,73,70,12
1,73,0,36
1,71,65,12
1,71,0,36
1,73,66,12
1,73,0,36
1,73,74,12
1,73,0,72
1,75,70,24
1,75,0,36
1,77,71,12
1,77,0,36
1,71,68,12
1,78,57,0
1,78,0,168
1,71,0,0
1,80,72,24
1,73,70,0
1,73,0,168
1,80,0,0
1,68,69,24
1,73,69,0
1,73,0,120
1,68,0,0
1,75,72,24
1,75,0,36
1,75,55,12
1,70,63,0
1,70,0,168
1,75,0,0
1,70,59,168
1,70,0,36
1,75,66,12
1,70,73,0
1,70,0,72
1,75,0,0
1,75,70,24
1,75,0,72
1,73,70,24
1,68,56,0
1,68,0,168
1,73,0,0
1,75,55,24
1,75,0,72
1,77,74,24
1,77,0,72
1,73,62,24
1,78,54,0
1,78,0,132
1,73,0,0
1,77,69,12
1,77,0,36
1,77,70,12
1,77,0,72
1,75,54,24
1,70,54,0
1,70,0,72
1,75,0,0
1,75,63,24
1,70,61,0
1,70,0,72
1,68,74,24
1,68,0,72
1,70,58,24
1,70,0,72
1,68,67,24
1,68,0,84
1,68,74,12
1,68,0,72
1,68,70,24
1,68,0,72
1,70,71,24
1,70,0,168
1,75,0,0
1,70,72,216
1,75,67,0
1,75,0,72
1,70,0,0
1,75,65,24
1,75,0,72
1,73,67,24
1,68,70,0
1,68,0,168
1,73,0,0
1,68,65,24
1,75,73,0
1,75,0,72
1,68,0,0
1,77,64,24
1,77,0,72
1,78,70,24
1,71,65,0
1,71,0,168
1,78,0,0
1,73,69,24
1,80,54,0
1,80,0,168
1,73,0,0
1,73,58,24
1,68,64,0
1,68,0,132
1,73,0,0
1,75,65,12
1,75,0,36
1,75,60,12
1,70,64,0
1,70,0,168
1,75,0,0
1,75,67,216
1,70,65,0
1,70,0,72
1,75,0,0
1,75,63,24
1,75,0,72
1,77,55,24
1,77,0,72
1,73,59,24
1,68,73,0
1,68,0,72
1,73,0,0
1,75,74,24
1,80,65,0
1,80,0,72
1,75,0,0
1,77,72,24
1,77,0,72
1,71,66,24
1,78,72,0
1,78,0,72
1,71,0,0
1,77,73,24
1,77,0,36
1,77,74,12
1,77,0,36
1,77,56,12
1,77,0,36
1,75,63,12
1,75,0,36
1,75,63,12
1,68,62,0
1,68,0,72
1,75,0,0
1,68,70,24
1,75,72,0
1,75,0,168
1,68,0,0
1,63,71,24
1,70,56,0
1,70,0,72
1,63,0,0
1,61,71,24
1,68,72,0
1,68,0,36
1,61,0,0
1,73,55,12
1,73,0,36
1,65,62,12
1,70,58,0
1,70,0,120
1,65,0,0
1,58,64,24
1,58,0,36
1,58,66,12
1,63,63,0
1,63,0,72
1,58,0,0
1,63,65,24
1,63,0,72
1,61,74,24
1,56,73,0
1,56,0,168
1,61,0,0
1,63,71,24
1,63,0,72
1,65,68,24
1,65,0,72
1,59,64,24
1,66,73,0
1,66,0,168
1,59,0,0
1,68,66,24
1,61,74,0
1,61,0,168
1,68,0,0
1,61,60,24
1,56,64,0
1,56,0,168
1,61,0,0
1,58,67,24
1,63,74,0
1,63,0,168
1,58,0,0
1,63,56,216
1,58,73,0
1,58,0,72
1,63,0,0
1,63,63,24
1,63,0,72
1,61,72,24
1,56,64,0
1,56,0,120
1,61,0,0
1,61,57,24
1,61,0,36
1,63,68,12
1,58,56,0
1,58,0,72
1,63,0,0
1,65,70,24
1,65,0,72
1,59,62,24
1,66,63,0
1,66,0,72
1,59,0,0
1,65,54,24
1,65,0,36
1,65,58,12
1,65,0,36
1,65,54,12
1,65,0,36
1,63,55,12
1,63,0,36
1,63,59,12
1,58,54,0
1,58,0,72
1,63,0,0
1,63,59,24
1,58,55,0
1,58,0,72
1,56,64,24
1,56,0,72
1,58,60,24
1,58,0,72
1,56,55,24
1,56,0,72
1,56,61,24
1,56,0,72
1,56,56,24
1,56,0,72
1,58,67,24
1,58,0,168
1,63,0,0
1,58,63,24
1,66,54,0
1,66,0,72
1,58,0,0
1,58,66,24
1,66,56,0
1,66,0,72
1,58,0,0
1,58,73,24
1,66,54,0
1,66,0,72
1,58,0,0
1,58,56,24
1,66,61,0
1,66,0,72
1,58,0,0
1,58,54,24
1,66,67,0
1,66,0,72
1,58,0,0
1,61,72,24
1,68,73,0
1,68,0,72
1,61,0,0
1,66,59,24
1,70,60,0
1,70,0,72
1,66,0,0
1,65,62,24
1,68,73,0
1,68,0,72
1,65,0,0
1,65,72,24
1,68,73,0
1,68,0,72
1,65,0,0
1,58,73,24
1,58,0,72
1,63,61,24
1,66,74,0
1,66,0,72
1,63,0,0
1,70,70,24
1,70,0,72
1,68,56,24
1,61,54,0
1,61,0,72
1,59,55,24
1,59,0,72
1,68,0,0
1,61,73,24
1,66,61,0
1,66,0,168
1,61,0,0
1,58,69,24
1,66,58,0
1,66,0,72
1,58,0,0
1,58,64,24
1,66,70,0
1,66,0,72
1,58,0,0
1,58,54,24
1,66,61,0
1,66,0,72
1,58,0,0
1,58,61,24
1,66,70,0
1,66,0,72
1,58,0,0
1,58,56,24
1,66,64,0
1,66,0,72
1,58,0,0
1,61,71,24
1,68,56,0
1,68,0,72
1,61,0,0
1,66,64,24
1,70,72,0
1,70,0,72
1,66,0,0
1,65,64,24
1,68,71,0
1,68,0,72
1,65,0,0
1,65,64,24
1,68,55,0
1,68,0,72
1,65,0,0
1,63,63,24
1,66,73,0
1,58,56,96
1,58,0,72
1,66,0,0
1,63,0,0
1,59,65,24
1,63,65,0
1,63,0,72
1,59,0,0
1,59,73,24
1,63,73,0
1,63,0,72
1,61,66,24
1,59,0,72
1,59,67,24
1,66,55,0
1,66,0,168
1,59,0,0
1,61,0,0
1,58,56,24
1,66,74,0
1,66,0,72
1,58,0,0
1,58,72,24
1,66,64,0
1,66,0,72
1,58,0,0
1,58,64,24
1,66,64,0
1,66,0,72
1,58,0,0
1,58,71,24
1,66,70,0
1,66,0,72
1,58,0,0
1,58,70,24
1,66,74,0
1,66,0,72
1,58,0,0
1,61,68,24
1,68,57,0
1,68,0,72
1,61,0,0
1,66,55,24
1,70,60,0
1,70,0,72
1,66,0,0
1,65,54,24
1,68,62,0
1,68,0,72
1,65,0,0
1,65,58,24
1,68,55,0
1,58,58,96
1,58,0,72
1,68,0,0
1,65,0,0
1,63,55,24
1,66,65,0
1,66,0,72
1,63,0,0
1,63,70,24
1,63,0,72
1,63,58,24
1,66,68,0
1,71,54,0
1,71,0,72
1,71,60,24
1,71,0,72
1,66,0,0
1,63,0,0
1,66,70,24
1,63,72,0
1,71,73,0
1,71,0,72
1,71,61,24
1,71,0,72
1,63,0,0
1,66,0,0
1,66,62,24
1,70,73,0
1,70,0,72
1,66,0,0
1,68,68,24
1,65,73,0
1,65,0,72
1,68,0,0
1,65,70,24
1,68,68,0
1,61,73,0
1,61,0,72
1,58,60,24
1,58,0,72
1,61,55,24
1,61,0,168
1,68,0,0
1,65,0,0
1,61,58,24
1,58,73,0
1,66,68,0
1,66,0,168
1,58,0,0
1,61,0,0
1,63,64,24
1,59,64,0
1,59,0,72
1,56,56,24
1,56,0,72
1,61,69,24
1,61,0,72
1,56,63,24
1,56,0,72
1,63,0,0
1,59,59,24
1,63,73,0
1,71,64,0
1,71,0,72
1,71,57,24
1,71,0,72
1,63,0,0
1,59,0,0
1,71,69,24
1,63,56,0
1,59,60,0
1,59,0,168
1,63,0,0
1,71,0,0
1,66,62,24
1,70,54,0
1,70,0,72
1,66,0,0
1,68,63,24
1,65,56,0
1,58,70,96
1,65,0,72
1,68,0,0
1,63,69,24
1,66,70,0
1,66,0,72
1,63,0,0
1,58,0,0
1,66,72,24
1,63,64,0
1,63,0,72
1,66,0,0
1,63,55,24
1,66,74,0
1,58,66,96
1,66,0,72
1,63,0,0
1,68,56,24
1,68,0,72
1,58,0,0
1,68,56,24
1,59,60,0
1,59,0,72
1,63,59,24
1,63,0,72
1,68,0,0
1,59,68,24
1,63,72,96
1,63,0,72
1,59,0,0
1,71,55,24
1,63,58,0
1,59,57,0
1,71,0,72
1,71,54,24
1,71,0,72
1,59,0,0
1,63,0,0
1,71,73,24
1,59,55,0
1,63,56,0
1,71,0,72
1,71,73,24
1,71,0,72
1,63,0,0
1,59,0,0
1,61,71,24
1,66,63,0
1,70,55,0
1,70,0,72
1,66,0,0
1,68,72,24
1,68,0,72
1,61,0,0
1,68,73,24
1,61,71,0
1,61,0,72
1,66,56,24
1,66,0,72
1,58,70,24
1,58,0,72
1,61,54,24
1,61,0,72
1,68,0,0
1,58,57,24
1,66,67,0
1,66,0,72
1,58,0,0
1,61,56,24
1,68,64,0
1,68,0,72
1,61,0,0
1,59,63,24
1,63,73,0
1,59,0,72
1,54,72,24
1,54,0,72
1,61,65,24
1,61,0,72
1,63,0,0
1,54,57,24
1,63,70,0
1,63,0,72
1,54,0,0
1,63,64,24
1,71,64,0
1,71,0,72
1,71,73,24
1,71,0,72
1,63,0,0
1,63,54,24
1,71,73,0
1,63,0,72
1,66,56,24
1,66,0,72
1,71,0,0
1,66,57,24
1,70,60,0
1,70,0,72
1,66,0,0
1,65,74,24
1,68,65,0
1,58,61,0
1,58,0,72
1,63,73,24
1,63,0,72
1,58,56,24
1,58,0,72
1,68,0,12
1,65,0,0
1,68,64,12
1,65,67,0
1,63,61,0
1,63,0,72
1,58,70,24
1,65,0,180
1,68,0,0
1,63,62,12
1,66,68,0
1,66,0,36
1,63,0,0
1,65,71,12
1,61,57,0
1,58,0,24
1,61,0,12
1,65,0,0
1,61,74,12
1,65,73,0
1,54,66,96
1,54,0,72
1,59,60,24
1,59,0,72
1,54,57,24
1,54,0,72
1,56,72,24
1,56,0,72
1,61,0,24
1,61,70,0
1,65,0,72
1,65,70,24
1,68,61,0
1,68,0,168
1,65,0,0
1,61,0,24
1,63,59,0
1,58,65,0
1,54,59,0
1,54,0,552
1,58,0,0
1,63,0,0
1,70,63,24
1,75,58,0
1,75,0,72
1,70,0,0
1,77,54,24
1,77,0,72
1,78,65,24
1,71,66,0
1,71,0,168
1,78,0,0
1,73,63,24
1,80,60,0
1,80,0,168
1,73,0,0
1,73,61,24
1,68,61,0
1,68,0,168
1,73,0,0
1,70,68,24
1,75,73,0
1,75,0,168
1,70,0,0
1,70,72,216
1,75,55,0
1,75,0,72
1,70,0,0
1,75,59,24
1,75,0,72
1,73,66,24
1,68,70,0
1,68,0,168
1,73,0,0
1,75,64,24
1,75,0,72
1,77,71,24
1,77,0,72
1,78,58,24
1,71,64,0
1,71,0,168
1,78,0,0
1,73,56,24
1,80,64,0
1,80,0,168
1,73,0,0
1,68,64,24
1,73,58,0
1,73,0,120
1,68,0,0
1,75,60,24
1,75,0,36
1,75,74,12
1,70,58,0
1,70,0,168
1,75,0,0
1,70,54,216
1,75,57,0
1,75,0,72
1,70,0,0
1,75,58,24
1,75,0,72
1,73,65,24
1,68,72,0
1,68,0,168
1,73,0,0
1,75,61,24
1,75,0,72
1,77,61,24
1,77,0,72
1,78,67,24
1,73,70,0
1,73,0,120
1,78,0,0
1,77,70,24
1,77,0,36
1,77,64,12
1,77,0,72
1,75,64,24
1,70,65,0
1,70,0,72
1,75,0,0
1,75,55,24
1,70,62,0
1,70,0,72
1,68,54,24
1,68,0,72
1,70,57,24
1,70,0,168
1,75,0,0
1,70,73,168
1,70,0,36
1,70,68,12
1,75,72,0
1,75,0,36
1,70,0,0
1,75,61,12
1,75,0,36
1,75,62,12
1,70,59,0
1,70,0,36
1,75,0,0
1,77,64,12
1,77,0,36
1,73,59,12
1,68,57,0
1,68,0,36
1,73,0,0
1,73,55,12
1,73,0,36
1,71,54,12
1,71,0,36
1,73,65,12
1,73,0,36
1,73,55,12
1,73,0,72
1,75,57,24
1,75,0,36
1,77,74,12
1,77,0,36
1,71,57,12
1,78,60,0
1,78,0,168
1,71,0,0
1,80,69,24
1,73,70,0
1,73,0,168
1,80,0,0
1,68,74,24
1,73,58,0
1,73,0,120
1,68,0,0
1,75,73,24
1,75,0,36
1,75,58,12
1,70,73,0
1,70,0,168
1,75,0,0
1,70,55,168
1,70,0,36
1,75,64,12
1,70,73,0
1,70,0,72
1,75,0,0
1,75,70,24
1,75,0,72
1,73,64,24
1,68,64,0
1,68,0,168
1,73,0,0
1,75,72,24
1,75,0,72
1,77,71,24
1,77,0,72
1,73,68,24
1,78,73,0
1,78,0,132
1,73,0,0
1,77,58,12
1,77,0,36
1,77,55,12
1,77,0,72
1,75,65,24
1,70,60,0
1,70,0,72
1,75,0,0
1,75,64,24
1,70,63,0
1,70,0,72
1,68,60,24
1,68,0,72
1,70,65,24
1,70,0,72
1,68,58,24
1,68,0,84
1,68,58,12
1,68,0,72
1,68,73,24
1,68,0,72
1,70,57,24
1,70,0,168
1,75,0,0
1,70,74,216
1,75,63,0
1,75,0,72
1,70,0,0
1,75,64,24
1,75,0,72
1,73,70,24
1,68,61,0
1,68,0,168
1,73,0,0
1,68,65,24
1,75,58,0
1,75,0,72
1,68,0,0
1,77,65,24
1,77,0,72
1,78,56,24
1,71,73,0
1,71,0,168
1,78,0,0
1,73,58,24
1,80,63,0
1,80,0,168
1,73,0,0
1,73,54,24
1,68,58,0
1,68,0,132
1,73,0,0
1,75,71,12
1,75,0,36
1,75,70,12
1,70,68,0
1,70,0,168
1,75,0,0
1,75,64,216
1,70,73,0
