track,note,velocity,time
1,64,80,19440
1,64,80,12
1,67,80,24
1,64,80,48
1,64,80,12
1,67,80,24
1,64,80,48
1,67,80,12
1,66,80,36
1,64,80,12
1,67,80,24
1,66,80,24
1,64,80,2148
1,64,80,12
1,67,80,12
1,64,80,72
1,64,80,168
1,71,80,24
1,69,80,24
1,69,80,24
1,60,80,24
1,60,80,24
1,64,80,24
1,59,80,24
1,64,80,1776
1,64,80,12
1,67,80,12
1,64,80,72
1,64,80,12
1,67,80,12
1,64,80,48
1,67,80,24
1,69,80,24
1,67,80,36
1,66,80,36
1,64,80,12
1,66,80,12
1,64,80,1968
1,64,80,12
1,67,80,24
1,64,80,48
1,64,80,12
1,67,80,24
1,64,80,48
1,67,80,12
1,69,80,36
1,67,80,36
1,66,80,36
1,64,80,12
1,69,80,24
1,67,80,48
1,66,80,36
1,64,80,12
1,64,80,48
1,69,80,24
1,71,80,24
1,67,80,48
1,64,80,12
1,64,80,48
1,64,80,24
1,72,80,24
1,71,80,72
1,64,80,72
1,64,80,24
1,69,80,24
1,71,80,48
1,67,80,48
1,66,80,24
1,64,80,12
1,64,80,24
1,72,80,36
1,71,80,72
1,71,80,96
1,72,80,24
1,71,80,72
1,71,80,96
1,72,80,24
1,71,80,72
1,71,80,192
1,72,80,24
1,76,80,48
1,71,80,24
1,69,80,72
1,69,80,48
1,71,80,24
1,67,80,48
1,64,80,12
1,67,80,48
1,67,80,12
1,67,80,12
1,64,80,12
1,69,80,12
1,69,80,48
1,67,80,48
1,66,80,24
1,64,80,48
1,64,80,24
1,64,80,336
1,64,80,12
1,67,80,12
1,64,80,12
1,69,80,12
1,69,80,48
1,67,80,48
1,66,80,24
1,64,80,24
1,67,80,24
1,66,80,12
1,60,80,3732
1,60,80,24
1,60,80,36
1,59,80,12
1,59,80,96
1,59,80,12
1,59,80,12
1,60,80,12
1,62,80,24
1,62,80,24
1,61,80,12
1,61,80,312
1,61,80,24
1,64,80,36
1,62,80,48
1,61,80,12
1,62,80,36
1,61,80,48
1,62,80,12
1,64,80,36
1,62,80,12
1,60,80,36
1,61,80,12
1,64,80,36
1,62,80,12
1,61,80,36
1,62,80,24
1,62,80,120
1,61,80,12
1,59,80,96
1,59,80,12
1,59,80,12
1,60,80,12
1,62,80,24
1,60,80,24
1,61,80,12
1,60,80,288
1,59,80,12
1,64,80,408
1,64,80,12
1,67,80,24
1,64,80,48
1,64,80,12
1,67,80,24
1,64,80,48
1,67,80,12
1,69,80,36
1,67,80,36
1,66,80,36
1,64,80,12
1,64,80,144
1,64,80,12
1,71,80,24
1,64,80,48
1,64,80,12
1,67,80,24
1,64,80,48
1,67,80,12
1,69,80,36
1,67,80,36
1,66,80,36
1,64,80,12
1,64,80,7368
1,69,80,24
1,71,80,72
1,64,80,192
1,69,80,24
1,71,80,24
1,67,80,48
1,64,80,12
1,64,80,48
1,64,80,24
1,72,80,24
1,71,80,72
1,64,80,72
1,64,80,24
1,69,80,24
1,71,80,48
1,67,80,48
1,66,80,24
1,64,80,12
1,64,80,24
1,69,80,36
1,69,80,36
1,69,80,12
1,69,80,12
1,67,80,12
1,67,80,48
1,64,80,48
1,69,80,24
1,71,80,24
1,67,80,24
1,71,80,24
1,64,80,72
1,64,80,12
1,64,80,12
1,64,80,12
1,72,80,12
1,71,80,72
1,71,80,96
1,72,80,24
1,71,80,12
1,72,80,12
1,71,80,12
1,69,80,48
1,69,80,24
1,72,80,24
1,71,80,72
1,71,80,96
1,72,80,24
1,71,80,72
1,71,80,96
1,72,80,24
1,71,80,72
1,71,80,192
1,72,80,24
1,76,80,48
1,71,80,24
1,69,80,72
1,69,80,48
1,71,80,24
1,67,80,48
1,64,80,12
1,67,80,48
1,67,80,12
1,67,80,12
1,64,80,12
1,69,80,12
1,69,80,48
1,67,80,48
1,66,80,24
1,64,80,48
1,64,80,24
1,64,80,336
1,64,80,12
1,67,80,12
1,64,80,12
1,69,80,12
1,71,80,288
1,69,80,12
1,67,80,24
1,71,80,36
1,64,80,24
1,64,80,408
1,64,80,12
1,67,80,12
1,64,80,12
1,69,80,12
1,69,80,48
1,67,80,48
1,66,80,24
1,64,80,24
1,64,80,24
2,40,80,23040
2,40,80,0
2,40,80,24
2,40,80,0
2,72,80,264
2,79,80,120
2,72,80,24
2,86,80,24
2,84,80,24
2,63,80,24
2,81,80,24
2,35,80,19464
2,47,80,0
2,35,80,0
2,47,80,0
2,47,80,3984
2,52,80,0
2,52,80,48
2,47,80,0
2,54,80,0
2,47,80,24
2,52,80,0
2,55,80,0
2,49,80,216
2,57,80,0
2,54,80,48
2,47,80,0
2,52,80,0
2,52,80,24
2,47,80,0
2,55,80,0
2,47,80,48
2,57,80,0
2,52,80,0
2,52,80,72
2,47,80,0
2,47,80,48
2,52,80,0
2,54,80,0
2,47,80,24
2,52,80,0
2,55,80,0
2,47,80,216
2,52,80,0
2,52,80,48
2,47,80,0
2,54,80,0
2,55,80,24
2,47,80,0
2,52,80,0
2,57,80,15
2,52,80,0
2,47,80,0
2,52,80,72
2,47,80,0
2,47,80,48
2,52,80,0
2,54,80,0
2,52,80,24
2,55,80,0
2,47,80,0
2,45,80,216
2,61,80,0
2,52,80,0
2,47,80,48
2,54,80,0
2,52,80,0
2,52,80,24
2,47,80,0
2,55,80,0
2,52,80,48
2,47,80,0
2,57,80,0
2,76,80,72
2,88,80,0
2,72,80,480
2,84,80,120
2,71,80,72
2,83,80,120
2,83,80,48
2,76,80,48
2,88,80,0
2,72,80,480
2,84,80,120
2,71,80,72
2,83,80,120
2,83,80,48
3,78,80,36480
3,79,80,72
3,78,80,24
3,76,80,72
3,78,80,24
3,76,80,72
3,76,80,96
3,78,80,24
3,76,80,72
3,78,80,33624
3,79,80,72
3,78,80,24
3,76,80,72
3,78,80,24
3,76,80,72
3,76,80,96
3,78,80,24
3,76,80,72
4,76,80,11280
4,78,80,12
4,79,80,12
4,83,80,12
4,72,80,60
4,76,80,0
4,81,80,24
4,79,80,48
4,83,80,24
4,78,80,120
4,74,80,0
4,79,80,144
4,83,80,24
4,67,80,24
4,76,80,0
4,71,80,0
4,78,80,24
4,81,80,48
4,72,80,0
4,71,80,24
4,79,80,0
4,78,80,48
4,71,80,0
4,67,80,0
4,76,80,72
4,78,80,12
4,79,80,12
4,83,80,12
4,72,80,60
4,76,80,0
4,81,80,24
4,79,80,48
4,83,80,24
4,71,80,120
4,74,80,0
4,79,80,144
4,83,80,24
4,76,80,24
4,71,80,0
4,67,80,0
4,78,80,48
4,81,80,24
4,72,80,0
4,76,80,24
4,71,80,0
4,79,80,0
4,69,80,96
4,74,80,0
4,78,80,0
4,60,80,13327
4,64,80,0
4,69,80,0
4,67,80,72
4,60,80,24
4,64,80,0
4,69,80,0
4,71,80,72
4,67,80,24
4,62,80,0
4,72,80,0
4,71,80,72
4,66,80,24
4,59,80,0
4,63,80,0
4,69,80,0
4,64,80,96
4,59,80,0
4,67,80,0
4,72,80,96
4,69,80,0
4,71,80,72
4,74,80,0
4,72,80,24
4,69,80,0
4,71,80,72
4,67,80,0
4,72,80,24
4,69,80,0
4,67,80,72
4,71,80,0
4,71,80,96
4,67,80,0
4,72,80,24
4,69,80,0
4,67,80,72
4,71,80,0
4,72,80,24
4,76,80,0
4,64,80,0
4,69,80,0
4,69,80,192
4,76,80,0
4,76,80,16656
4,78,80,12
4,79,80,12
4,81,80,12
4,76,80,12
4,72,80,0
4,81,80,120
4,79,80,48
4,83,80,24
4,74,80,120
4,78,80,0
4,79,80,144
4,83,80,24
4,67,80,24
4,76,80,0
4,71,80,0
4,78,80,24
4,72,80,48
4,81,80,0
4,71,80,24
4,79,80,0
4,67,80,48
4,78,80,0
4,71,80,0
4,76,80,72
4,78,80,12
4,79,80,12
4,83,80,12
4,76,80,60
4,72,80,0
4,81,80,24
4,79,80,48
4,83,80,24
4,74,80,120
4,71,80,0
4,79,80,144
4,83,80,24
4,76,80,24
4,71,80,0
4,67,80,0
4,78,80,48
4,72,80,24
4,81,80,0
4,79,80,24
4,71,80,0
4,76,80,0
4,60,80,456
4,64,80,0
4,69,80,0
4,67,80,72
4,60,80,24
4,64,80,0
4,69,80,0
4,71,80,72
4,67,80,24
4,62,80,0
4,72,80,0
4,71,80,72
4,69,80,24
4,66,80,0
4,59,80,0
4,63,80,0
4,64,80,96
4,67,80,0
4,59,80,0
4,60,80,96
4,64,80,0
4,69,80,0
4,67,80,72
4,60,80,24
4,64,80,0
4,69,80,0
4,71,80,72
4,67,80,24
4,62,80,0
4,72,80,0
4,71,80,72
4,63,80,24
4,69,80,0
4,66,80,0
4,59,80,0
4,67,80,96
4,64,80,0
4,59,80,0
4,72,80,96
4,69,80,0
4,71,80,72
4,74,80,0
4,72,80,24
4,69,80,0
4,71,80,72
4,67,80,0
4,72,80,24
4,69,80,0
4,67,80,72
4,71,80,0
4,71,80,96
4,67,80,0
4,72,80,24
4,69,80,0
4,67,80,72
4,71,80,0
4,72,80,24
4,76,80,0
4,64,80,0
4,69,80,0
4,69,80,192
4,76,80,0
5,64,80,7920
5,67,80,0
5,72,80,0
5,66,80,24
5,71,80,0
5,62,80,0
5,71,80,48
5,67,80,0
5,62,80,0
5,72,80,24
5,69,80,0
5,64,80,0
5,71,80,24
5,67,80,0
5,62,80,0
5,67,80,24
5,62,80,0
5,71,80,0
5,73,80,24
5,67,80,0
5,64,80,0
5,71,80,24
5,66,80,0
5,62,80,0
5,62,80,48
5,71,80,0
5,66,80,0
5,71,80,24
5,66,80,0
5,76,80,0
5,59,80,24
5,64,80,0
5,71,80,0
5,72,80,144
5,67,80,0
5,64,80,0
5,71,80,24
5,62,80,0
5,66,80,0
5,62,80,48
5,67,80,0
5,71,80,0
5,72,80,24
5,69,80,0
5,64,80,0
5,71,80,24
5,67,80,0
5,62,80,0
5,67,80,24
5,71,80,0
5,62,80,0
5,67,80,24
5,73,80,0
5,64,80,0
5,66,80,24
5,71,80,0
5,62,80,0
5,62,80,48
5,66,80,0
5,71,80,0
5,71,80,24
5,66,80,0
5,76,80,0
5,71,80,24
5,64,80,0
5,59,80,0
5,67,80,9744
5,64,80,0
5,72,80,0
5,71,80,24
5,62,80,0
5,66,80,0
5,71,80,48
5,62,80,0
5,67,80,0
5,72,80,24
5,64,80,0
5,69,80,0
5,71,80,24
5,67,80,0
5,62,80,0
5,71,80,24
5,62,80,0
5,67,80,0
5,64,80,24
5,73,80,0
5,67,80,0
5,62,80,24
5,66,80,0
5,71,80,0
5,71,80,48
5,62,80,0
5,66,80,0
5,66,80,24
5,76,80,0
5,71,80,0
5,71,80,24
5,64,80,0
5,59,80,0
5,64,80,2064
5,67,80,0
5,72,80,0
5,71,80,24
5,66,80,0
5,62,80,0
5,67,80,48
5,71,80,0
5,62,80,0
5,72,80,24
5,69,80,0
5,64,80,0
5,71,80,24
5,67,80,0
5,62,80,0
5,67,80,24
5,62,80,0
5,71,80,0
5,64,80,24
5,73,80,0
5,67,80,0
5,71,80,24
5,66,80,0
5,62,80,0
5,71,80,48
5,66,80,0
5,62,80,0
5,71,80,24
5,66,80,0
5,76,80,0
5,64,80,24
5,71,80,0
5,59,80,0
5,67,80,2064
5,72,80,0
5,64,80,0
5,66,80,24
5,62,80,0
5,71,80,0
5,71,80,48
5,67,80,0
5,62,80,0
5,72,80,24
5,64,80,0
5,69,80,0
5,71,80,24
5,67,80,0
5,62,80,0
5,67,80,24
5,62,80,0
5,71,80,0
5,73,80,24
5,67,80,0
5,64,80,0
5,71,80,24
5,66,80,0
5,62,80,0
5,62,80,48
5,71,80,0
5,66,80,0
5,71,80,24
5,66,80,0
5,76,80,0
5,71,80,24
5,64,80,0
5,59,80,0
5,67,80,14544
5,64,80,0
5,72,80,0
5,62,80,24
5,66,80,0
5,71,80,0
5,71,80,48
5,62,80,0
5,67,80,0
5,72,80,24
5,64,80,0
5,69,80,0
5,71,80,24
5,67,80,0
5,62,80,0
5,71,80,24
5,62,80,0
5,67,80,0
5,67,80,24
5,64,80,0
5,73,80,0
5,62,80,24
5,66,80,0
5,71,80,0
5,71,80,48
5,62,80,0
5,66,80,0
5,76,80,24
5,71,80,0
5,66,80,0
5,71,80,24
5,64,80,0
5,59,80,0
5,72,80,144
5,64,80,0
5,67,80,0
5,66,80,24
5,71,80,0
5,62,80,0
5,62,80,48
5,67,80,0
5,71,80,0
5,69,80,24
5,72,80,0
5,64,80,0
5,71,80,24
5,67,80,0
5,62,80,0
5,62,80,24
5,71,80,0
5,67,80,0
5,64,80,24
5,73,80,0
5,67,80,0
5,71,80,24
5,66,80,0
5,62,80,0
5,66,80,48
5,71,80,0
5,62,80,0
5,76,80,24
5,66,80,0
5,71,80,0
5,59,80,24
5,64,80,0
5,71,80,0
5,67,80,5904
5,72,80,0
5,64,80,0
5,71,80,24
5,62,80,0
5,66,80,0
5,62,80,48
5,67,80,0
5,71,80,0
5,69,80,24
5,64,80,0
5,72,80,0
5,62,80,24
5,67,80,0
5,71,80,0
5,62,80,24
5,71,80,0
5,67,80,0
5,64,80,24
5,67,80,0
5,73,80,0
5,66,80,24
5,71,80,0
5,62,80,0
5,62,80,48
5,71,80,0
5,66,80,0
5,71,80,24
5,66,80,0
5,76,80,0
5,64,80,24
5,59,80,0
5,71,80,0
5,64,80,144
5,72,80,0
5,67,80,0
5,71,80,24
5,62,80,0
5,66,80,0
5,71,80,48
5,62,80,0
5,67,80,0
5,64,80,24
5,69,80,0
5,72,80,0
5,67,80,24
5,62,80,0
5,71,80,0
5,67,80,24
5,62,80,0
5,71,80,0
5,67,80,24
5,73,80,0
5,64,80,0
5,71,80,24
5,62,80,0
5,66,80,0
5,62,80,48
5,71,80,0
5,66,80,0
5,76,80,24
5,71,80,0
5,66,80,0
5,64,80,23424
5,67,80,0
5,72,80,0
5,71,80,24
5,62,80,0
5,66,80,0
5,67,80,48
5,62,80,0
5,71,80,0
5,64,80,24
5,69,80,0
5,72,80,0
5,71,80,24
5,67,80,0
5,62,80,0
5,62,80,24
5,67,80,0
5,71,80,0
5,73,80,24
5,67,80,0
5,64,80,0
5,66,80,24
5,71,80,0
5,62,80,0
5,66,80,48
5,62,80,0
5,71,80,0
5,76,80,24
5,71,80,0
5,66,80,0
5,64,80,24
5,71,80,0
5,59,80,0
6,59,80,3840
6,64,80,48
6,66,80,24
6,59,80,24
6,64,80,48
6,67,80,24
6,59,80,24
6,64,80,48
6,66,80,24
6,59,80,984
6,64,80,48
6,66,80,24
6,59,80,24
6,64,80,48
6,67,80,24
6,59,80,24
6,64,80,48
6,66,80,24
6,59,80,984
6,64,80,48
6,66,80,24
6,59,80,24
6,64,80,48
6,67,80,24
6,59,80,24
6,64,80,48
6,66,80,24
6,59,80,984
6,64,80,48
6,66,80,24
6,59,80,24
6,64,80,48
6,67,80,24
6,59,80,24
6,64,80,48
6,66,80,24
6,59,80,2904
6,64,80,48
6,66,80,24
6,59,80,24
6,64,80,48
6,67,80,24
6,71,80,2064
6,67,80,15
6,64,80,7
6,59,80,3235
6,64,80,48
6,66,80,24
6,59,80,24
6,64,80,48
6,67,80,24
6,59,80,14424
6,64,80,48
6,66,80,24
6,59,80,24
6,64,80,48
6,67,80,24
6,59,80,24
6,64,80,48
6,66,80,24
6,59,80,10584
6,64,80,48
6,66,80,24
6,59,80,24
6,64,80,48
6,67,80,24
6,59,80,24
6,64,80,48
6,66,80,24
6,59,80,984
6,64,80,48
6,66,80,24
6,59,80,24
6,64,80,48
6,67,80,24
6,59,80,24
6,64,80,48
6,66,80,24
7,40,80,0
7,45,80,48
7,47,80,12
7,52,80,12
7,43,80,36
7,40,80,36
7,45,80,48
7,47,80,72
7,48,80,24
7,40,80,96
7,45,80,48
7,47,80,12
7,52,80,12
7,43,80,36
7,40,80,36
7,45,80,48
7,47,80,72
7,48,80,24
7,40,80,96
7,45,80,48
7,47,80,12
7,52,80,12
7,43,80,36
7,40,80,36
7,45,80,48
7,47,80,72
7,48,80,24
7,40,80,96
7,45,80,48
