track,note,velocity,time
2,61,110,0
2,61,110,2
2,61,110,2
2,61,110,32
2,61,110,2
2,61,110,194
2,63,110,2
2,59,110,2
2,61,110,2
2,61,110,224
2,63,110,2
2,59,110,2
2,61,110,32
2,66,110,32
2,68,110,32
2,66,110,224
2,61,110,224
2,61,110,2
2,61,110,2
2,61,110,2
2,61,110,2
2,61,110,32
2,61,110,2
2,61,110,2
2,63,110,2
2,59,110,2
2,61,110,32
2,61,110,224
2,63,110,2
2,59,110,2
2,61,110,2
2,61,110,2
2,59,110,32
2,61,110,2
2,63,110,2
2,59,110,32
2,61,110,32
2,63,110,32
2,61,110,32
2,61,110,32
2,61,110,2
2,61,110,2
2,61,110,224
2,63,110,2
2,59,110,2
2,61,110,2
2,61,110,2
2,61,110,224
2,63,110,2
2,59,110,2
2,61,110,2
2,71,110,194
2,70,110,2
2,68,110,2
2,61,110,32
2,69,110,432
2,69,110,2
2,73,110,2
2,69,110,32
2,68,110,224
2,68,110,2
2,71,110,2
2,59,110,32
2,59,110,2
2,59,110,32
2,58,110,32
2,61,110,2
2,61,110,2
2,61,110,432
2,61,110,2
2,61,110,2
2,61,110,32
2,61,110,2
2,61,110,194
2,63,110,2
2,59,110,2
2,61,110,2
2,59,110,128
2,61,110,2
2,63,110,2
2,59,110,2
2,61,110,32
2,59,110,32
2,61,110,2
2,63,110,2
2,59,110,32
2,61,110,2
2,61,110,2
2,63,110,32
2,61,110,32
2,61,110,32
2,61,110,32
2,63,110,2
2,61,110,32
2,63,110,2
2,63,110,194
2,61,110,2
2,61,110,32
2,61,110,2
2,65,110,144
2,65,110,2
2,66,110,144
2,66,110,2
2,61,110,32
2,61,110,32
2,61,110,32
2,63,110,2
2,61,110,32
2,63,110,2
2,63,110,194
2,61,110,2
2,61,110,32
2,61,110,2
2,61,110,1200
2,61,110,2
2,61,110,2
2,61,110,2
2,61,110,2
2,61,110,224
2,63,110,2
2,59,110,2
2,61,110,2
2,61,110,2
2,61,110,224
2,63,110,2
2,59,110,2
2,61,110,2
2,71,110,194
2,70,110,2
2,68,110,2
2,61,110,32
2,69,110,432
2,69,110,2
2,73,110,2
2,69,110,32
2,68,110,224
2,68,110,2
2,71,110,2
2,59,110,32
2,59,110,2
2,59,110,32
2,58,110,32
2,61,110,2
2,61,110,2
2,69,110,624
2,69,110,2
2,73,110,2
2,69,110,32
2,68,110,224
2,68,110,2
2,71,110,2
2,59,110,32
2,59,110,2
2,59,110,32
2,58,110,2
2,61,110,2
2,61,110,32
2,61,110,816
2,56,110,32
2,58,110,32
2,63,110,32
2,54,110,32
2,56,110,32
2,61,110,128
2,64,110,2
2,63,110,2
2,61,110,32
2,59,110,2
2,59,110,2
2,61,110,2
2,56,110,2
2,61,110,128
2,54,110,32
2,56,110,32
2,63,110,32
2,54,110,32
2,56,110,32
2,66,110,32
2,65,110,2
2,63,110,2
2,63,110,2
2,63,110,32
2,65,110,32
2,63,110,2
2,61,110,2
2,61,110,2
2,61,110,48
2,54,110,32
2,56,110,32
2,63,110,32
2,54,110,32
2,56,110,32
2,61,110,128
2,64,110,2
2,63,110,2
2,61,110,32
2,59,110,2
2,59,110,2
2,61,110,2
2,56,110,2
2,61,110,128
2,54,110,32
2,56,110,32
2,63,110,32
2,54,110,32
2,56,110,32
2,66,110,32
2,65,110,2
2,63,110,2
2,63,110,2
2,63,110,32
2,66,110,32
2,65,110,2
2,63,110,2
2,63,110,2
2,61,110,48
2,61,110,32
2,61,110,2
2,61,110,2
2,61,110,224
2,63,110,2
2,59,110,2
2,61,110,32
2,61,110,224
2,63,110,2
2,59,110,2
2,61,110,32
2,66,110,32
2,68,110,2
2,66,110,224
2,61,110,224
2,61,110,32
2,61,110,2
2,61,110,2
2,61,110,32
2,61,110,2
2,61,110,2
2,63,110,2
2,59,110,2
2,61,110,32
2,61,110,224
2,63,110,2
2,59,110,2
2,61,110,32
2,59,110,32
2,61,110,2
2,63,110,2
2,59,110,32
2,61,110,32
2,63,110,32
2,73,110,32
2,68,110,32
2,68,110,2
2,68,110,2
2,73,110,224
2,68,110,2
2,68,110,2
2,68,110,2
2,68,110,2
2,73,110,224
2,68,110,2
2,68,110,2
2,68,110,32
2,66,110,32
2,68,110,2
2,70,110,2
2,65,110,32
2,66,110,2
2,68,110,2
2,66,110,32
2,61,110,32
2,61,110,32
2,61,110,32
2,63,110,2
2,61,110,194
2,63,110,2
2,63,110,194
2,61,110,2
2,61,110,32
2,66,110,1088
2,66,110,2
2,61,110,32
2,61,110,32
2,61,110,32
2,63,110,2
2,61,110,194
2,63,110,2
2,63,110,194
2,61,110,2
2,61,110,32
2,66,110,1088
2,66,110,2
2,61,110,32
2,61,110,32
2,61,110,32
2,63,110,2
2,61,110,194
2,63,110,2
2,63,110,194
2,61,110,2
2,61,110,32
3,73,110,0
3,80,110,0
3,73,110,2
3,73,110,2
3,80,110,0
3,73,110,32
3,80,110,0
3,73,110,2
3,73,110,194
3,80,110,0
3,75,110,2
3,82,110,0
3,78,110,2
3,73,110,2
3,80,110,0
3,73,110,224
3,80,110,0
3,75,110,2
3,82,110,0
3,78,110,2
3,73,110,32
3,80,110,0
3,78,110,32
3,82,110,0
3,80,110,32
3,83,110,0
3,78,110,48
3,82,110,0
3,73,110,48
3,80,110,0
3,73,110,2
3,73,110,2
3,80,110,0
3,73,110,2
3,73,110,2
3,80,110,0
3,73,110,32
3,80,110,0
3,73,110,2
3,73,110,2
3,80,110,0
3,75,110,2
3,82,110,0
3,71,110,2
3,78,110,0
3,73,110,32
3,80,110,0
3,73,110,224
3,80,110,0
3,75,110,2
3,82,110,0
3,71,110,2
3,78,110,0
3,73,110,2
3,73,110,2
3,80,110,0
3,71,110,32
3,78,110,0
3,73,110,2
3,80,110,0
3,75,110,2
3,82,110,0
3,71,110,32
3,78,110,0
3,73,110,32
3,80,110,0
3,75,110,32
3,82,110,0
3,73,110,32
3,80,110,0
3,73,110,32
3,80,110,0
3,73,110,2
3,80,110,0
3,73,110,2
3,80,110,0
3,73,110,224
3,80,110,0
3,75,110,2
3,82,110,0
3,71,110,2
3,78,110,0
3,73,110,2
3,73,110,2
3,80,110,0
3,73,110,224
3,80,110,0
3,75,110,2
3,82,110,0
3,71,110,2
3,78,110,0
3,73,110,2
3,80,110,0
3,80,110,194
3,83,110,0
3,78,110,2
3,82,110,0
3,73,110,2
3,80,110,0
3,73,110,32
3,78,110,32
3,82,110,0
3,63,110,32
3,77,110,0
3,80,110,0
3,68,110,2
3,69,110,2
3,69,110,2
3,76,110,2
3,81,110,2
3,81,110,2
3,64,110,2
3,76,110,0
3,85,110,0
3,73,110,32
3,81,110,0
3,80,110,224
3,80,110,2
3,76,110,2
3,83,110,0
3,71,110,32
3,71,110,2
3,59,110,32
3,66,110,0
3,58,110,32
3,66,110,0
3,61,110,2
3,61,110,2
3,66,110,0
3,59,110,32
3,66,110,0
3,58,110,32
3,66,110,0
3,59,110,32
3,66,110,0
3,58,110,32
3,66,110,0
3,73,110,32
3,80,110,0
3,73,110,2
3,73,110,2
3,80,110,0
3,73,110,32
3,80,110,0
3,73,110,2
3,73,110,194
3,80,110,0
3,75,110,2
3,82,110,0
3,78,110,2
3,73,110,2
3,80,110,0
3,73,110,224
3,80,110,0
3,75,110,2
3,82,110,0
3,78,110,2
3,73,110,32
3,80,110,0
3,71,110,32
3,78,110,0
3,73,110,2
3,80,110,0
3,75,110,2
3,82,110,0
3,82,110,32
3,73,110,32
3,80,110,0
3,75,110,32
3,82,110,0
3,73,110,32
3,80,110,0
3,73,110,32
3,80,110,0
3,73,110,32
3,80,110,0
3,75,110,2
3,82,110,0
3,73,110,32
3,80,110,0
3,75,110,2
3,82,110,0
3,75,110,194
3,82,110,0
3,73,110,2
3,80,110,0
3,73,110,32
3,80,110,0
3,68,110,32
3,73,110,0
3,80,110,0
3,68,110,32
3,73,110,0
3,80,110,0
3,70,110,2
3,65,110,32
3,73,110,0
3,65,110,2
3,71,110,0
3,66,110,144
3,73,110,0
3,66,110,2
3,73,110,0
3,73,110,32
3,80,110,0
3,73,110,32
3,80,110,0
3,73,110,32
3,80,110,0
3,75,110,2
3,82,110,0
3,73,110,32
3,80,110,0
3,75,110,2
3,82,110,0
3,75,110,194
3,82,110,0
3,73,110,2
3,80,110,0
3,73,110,32
3,80,110,0
3,73,110,2
3,80,110,0
3,68,110,32
3,73,110,0
3,80,110,0
3,68,110,32
3,73,110,0
3,80,110,0
3,70,110,2
3,73,110,0
3,80,110,0
3,68,127,32
3,73,127,0
3,80,127,0
3,68,127,32
3,73,127,0
3,80,127,0
3,68,127,32
3,73,127,0
3,80,127,0
3,68,127,2
3,73,127,0
3,80,127,0
3,68,127,32
3,73,127,0
3,80,127,0
3,73,110,32
3,80,110,0
3,73,110,2
3,73,110,2
3,80,110,0
3,73,110,2
3,73,110,2
3,80,110,0
3,73,110,224
3,80,110,0
3,75,110,2
3,82,110,0
3,78,110,2
3,73,110,2
3,73,110,2
3,80,110,0
3,73,110,224
3,80,110,0
3,75,110,2
3,82,110,0
3,78,110,2
3,73,110,2
3,80,110,0
3,80,110,194
3,83,110,0
3,78,110,2
3,82,110,0
3,73,110,2
3,80,110,0
3,73,110,32
3,66,110,32
3,78,110,0
3,82,110,0
3,66,110,2
3,71,110,32
3,77,110,0
3,80,110,0
3,68,110,2
3,69,110,2
3,81,110,194
3,81,110,2
3,64,110,2
3,76,110,0
3,85,110,0
3,73,110,32
3,81,110,0
3,80,110,224
3,80,110,2
3,76,110,2
3,83,110,0
3,71,110,32
3,71,110,2
3,59,110,32
3,66,110,0
3,58,110,32
3,66,110,0
3,61,110,2
3,61,110,2
3,66,110,0
3,59,110,32
3,66,110,0
3,58,110,32
3,66,110,0
3,59,110,32
3,66,110,0
3,58,110,32
3,66,110,0
3,81,110,224
3,81,110,2
3,76,110,2
3,85,110,0
3,81,110,32
3,80,110,224
3,80,110,2
3,76,110,2
3,83,110,0
3,71,110,32
3,71,110,2
3,59,110,32
3,66,110,0
3,58,110,32
3,66,110,0
3,61,110,2
3,61,110,2
3,66,110,0
3,59,110,32
3,66,110,0
3,58,110,32
3,66,110,0
3,59,110,32
3,66,110,0
3,58,110,32
3,66,110,0
3,61,110,32
3,54,110,32
3,56,110,32
3,63,110,32
3,54,110,32
3,56,110,32
3,64,110,224
3,73,110,0
3,63,110,32
3,71,110,0
3,59,110,32
3,66,110,0
3,61,110,32
3,68,110,0
3,59,110,32
3,66,110,0
3,61,110,32
3,54,110,32
3,56,110,32
3,63,110,32
3,54,110,32
3,56,110,32
3,66,110,32
3,73,110,0
3,65,110,32
3,73,110,0
3,63,110,32
3,73,110,0
3,65,110,32
3,73,110,0
3,63,110,32
3,68,110,0
3,61,110,32
3,68,110,0
3,61,110,32
3,54,110,32
3,56,110,32
3,63,110,32
3,54,110,32
3,56,110,32
3,76,110,224
3,83,110,0
3,75,110,32
3,83,110,0
3,73,110,32
3,80,110,0
3,71,110,32
3,78,110,0
3,68,110,32
3,75,110,0
3,66,110,32
3,73,110,0
3,61,110,32
3,66,110,0
3,59,110,32
3,63,110,32
3,54,110,32
3,56,110,32
3,66,110,32
3,66,110,0
3,73,110,0
3,61,110,2
3,65,110,2
3,65,110,0
3,73,110,0
3,61,110,2
3,63,110,2
3,63,110,0
3,73,110,0
3,61,110,2
3,66,110,2
3,73,110,0
3,61,110,2
3,65,110,2
3,73,110,0
3,61,110,2
3,63,110,2
3,73,110,0
3,61,110,32
3,68,110,0
3,61,110,32
3,68,110,0
3,61,110,2
3,61,110,2
3,68,110,0
3,61,110,32
3,68,110,0
3,61,110,32
3,68,110,0
3,63,110,2
3,59,110,2
3,66,110,0
3,61,110,32
3,68,110,0
3,61,110,224
3,68,110,0
3,63,110,2
3,59,110,2
3,66,110,0
3,61,110,32
3,68,110,0
3,66,110,32
3,70,110,0
3,68,110,2
3,71,110,0
3,68,110,2
3,71,110,0
3,66,110,48
3,70,110,0
3,73,110,48
3,80,110,0
3,73,110,32
3,80,110,0
3,73,110,2
3,73,110,2
3,80,110,0
3,73,110,32
3,80,110,0
3,73,110,2
3,73,110,2
3,80,110,0
3,75,110,2
3,82,110,0
3,71,110,2
3,78,110,0
3,73,110,32
3,80,110,0
3,73,110,224
3,80,110,0
3,75,110,2
3,82,110,0
3,71,110,2
3,78,110,0
3,73,110,32
3,80,110,0
3,71,110,32
3,78,110,0
3,73,110,2
3,80,110,0
3,75,110,2
3,82,110,0
3,71,110,32
3,78,110,0
3,73,110,32
3,80,110,0
3,75,110,32
3,82,110,0
3,73,110,32
3,80,110,0
3,85,110,0
3,68,110,32
3,75,110,0
3,80,110,0
3,68,110,32
3,75,110,0
3,80,110,0
3,68,110,32
3,75,110,0
3,80,110,0
3,73,110,32
3,80,110,0
3,85,110,0
3,68,110,32
3,75,110,0
3,80,110,0
3,68,110,32
3,75,110,0
3,80,110,0
3,68,110,32
3,75,110,0
3,80,110,0
3,73,110,32
3,80,110,0
3,85,110,0
3,68,110,32
3,75,110,0
3,80,110,0
3,68,110,32
3,75,110,0
3,80,110,0
3,66,110,32
3,73,110,0
3,78,110,0
3,68,110,2
3,70,110,2
3,82,110,0
3,65,110,32
3,77,110,0
3,66,110,2
3,78,110,0
3,68,110,2
3,80,110,0
3,66,110,32
3,73,110,0
3,78,110,0
3,73,110,32
3,80,110,0
3,73,110,32
3,80,110,0
3,73,110,32
3,78,110,0
3,75,110,2
3,80,110,0
3,73,110,194
3,80,110,0
3,75,110,2
3,82,110,0
3,75,110,194
3,82,110,0
3,73,110,2
3,80,110,0
3,73,110,144
3,80,110,0
3,73,110,32
3,80,110,0
3,73,110,32
3,80,110,0
3,75,110,2
3,82,110,0
3,73,127,98
3,80,127,0
3,73,127,32
3,80,127,0
3,73,110,32
3,80,110,0
3,75,110,2
3,82,110,0
3,75,110,2
3,82,110,0
3,73,110,32
3,80,110,0
3,73,110,32
3,80,110,0
3,73,110,32
3,78,110,0
3,75,110,2
3,80,110,0
3,73,110,194
3,80,110,0
3,75,110,2
3,82,110,0
3,75,110,194
3,82,110,0
3,73,110,2
3,80,110,0
3,73,110,144
3,80,110,0
3,73,110,32
3,80,110,0
3,73,110,32
3,80,110,0
3,75,110,2
3,82,110,0
3,73,127,98
3,80,127,0
3,73,127,32
3,80,127,0
3,73,110,32
3,80,110,0
3,75,110,2
3,82,110,0
3,75,110,2
3,82,110,0
3,73,110,32
3,80,110,0
3,73,110,32
3,80,110,0
3,73,110,32
3,80,110,0
3,75,110,2
3,82,110,0
3,73,110,194
3,80,110,0
3,75,110,2
3,82,110,0
3,75,110,194
3,82,110,0
3,73,110,2
3,80,110,0
4,66,110,0
4,66,110,64
4,71,110,64
4,70,110,2
4,71,110,2
4,66,110,2
4,66,110,64
4,71,110,64
4,70,110,2
4,71,110,2
4,66,110,2
4,66,110,64
4,71,110,64
4,70,110,2
4,71,110,2
4,66,110,2
4,66,110,64
4,71,110,64
4,70,110,2
4,71,110,2
4,66,110,2
4,66,110,64
4,71,110,64
4,70,110,2
4,71,110,2
4,66,110,2
4,66,110,64
4,71,110,64
4,70,110,2
4,71,110,2
4,66,110,2
4,66,110,64
4,71,110,64
4,70,110,2
4,71,110,2
4,66,110,2
4,66,110,64
4,71,110,64
4,70,110,2
4,71,110,2
4,59,110,2
4,59,110,64
4,66,110,64
4,65,110,2
4,66,110,2
4,59,110,2
4,59,110,64
4,66,110,64
4,65,110,2
4,66,110,2
4,59,110,2
4,59,110,64
4,66,110,64
4,65,110,2
4,66,110,2
4,59,110,2
4,59,110,64
4,66,110,64
4,65,110,2
4,66,110,2
4,58,110,2
4,58,110,64
4,66,127,64
4,66,110,128
4,65,110,128
4,66,110,98
4,65,110,98
4,54,110,194
4,54,110,64
4,59,110,64
4,58,110,2
4,59,110,2
4,54,110,2
4,54,110,64
4,59,110,64
4,58,110,2
4,59,110,2
4,54,110,2
4,54,110,64
4,59,110,64
