track,note,velocity,time
1,70,98,9984
1,67,95,232
1,70,86,46
1,70,95,206
1,70,89,244
1,72,92,8
1,70,86,576
1,70,95,228
1,70,89,250
1,70,101,218
1,70,98,140
1,72,101,212
1,70,89,112
1,68,95,36
1,70,98,1008
1,68,95,230
1,70,89,34
1,70,89,238
1,70,86,236
1,72,89,8
1,70,89,192
1,70,89,474
1,70,98,254
1,70,98,244
1,72,95,242
1,70,95,222
1,67,95,4
1,70,101,890
1,70,98,228
1,70,95,214
1,70,89,230
1,70,86,238
1,75,92,192
1,70,95,662
1,70,89,254
1,75,98,248
1,75,95,248
1,75,98,248
1,74,89,56
1,72,98,36
1,74,98,980
1,75,92,384
1,75,98,248
1,74,95,166
1,72,86,384
1,75,92,0
1,70,83,202
1,70,92,58
1,70,89,272
1,68,89,192
1,68,92,184
1,67,86,104
1,68,92,18
1,70,95,18
1,74,101,766
1,75,98,0
1,75,104,266
1,74,98,166
1,72,77,384
1,75,98,124
1,72,95,192
1,70,95,192
1,70,89,322
1,72,98,50
1,72,101,206
1,74,104,152
1,75,95,214
1,77,101,44
1,70,104,1370
1,72,104,134
1,74,101,78
1,75,108,380
1,63,114,16
1,63,108,74
1,62,120,34
1,63,120,66
1,75,105,1222
1,74,99,0
1,72,99,0
1,70,105,192
1,70,96,60
1,70,102,76
1,69,108,18
1,70,114,0
1,74,108,192
1,70,123,1146
1,72,114,62
1,73,108,80
1,70,105,96
1,74,114,0
1,70,102,90
1,74,114,0
1,70,105,86
1,74,117,0
1,70,102,66
1,74,114,0
1,68,99,52
1,72,117,0
1,68,99,66
1,72,105,0
1,68,108,76
1,72,114,0
1,68,102,52
1,72,108,0
1,67,105,68
1,70,114,0
1,67,90,80
1,70,105,0
1,67,105,70
1,70,108,0
1,67,108,56
1,70,108,0
1,65,108,78
1,68,105,0
1,65,105,40
1,68,96,0
1,65,105,68
1,68,105,0
1,65,105,92
1,68,96,0
1,67,108,8
1,75,102,0
1,55,105,78
1,63,114,0
1,55,114,48
1,63,105,0
1,53,108,0
1,62,114,0
1,55,114,30
1,63,111,0
1,70,114,1008
1,72,114,68
1,74,117,72
1,75,108,48
1,63,114,16
1,63,108,74
1,62,120,34
1,63,120,66
1,75,105,1222
1,74,99,0
1,72,99,0
1,70,105,192
1,70,96,60
1,70,102,76
1,69,108,18
1,70,114,0
1,74,108,192
1,70,123,1146
1,72,114,62
1,73,108,80
1,70,105,96
1,74,114,0
1,70,102,90
1,74,114,0
1,70,105,86
1,74,117,0
1,70,102,66
1,74,114,0
1,68,99,52
1,72,117,0
1,68,99,66
1,72,105,0
1,68,108,76
1,72,114,0
1,68,102,52
1,72,108,0
1,67,105,68
1,70,114,0
1,67,90,80
1,70,105,0
1,67,105,70
1,70,108,0
1,67,108,56
1,70,108,0
1,65,108,78
1,68,105,0
1,65,105,40
1,68,96,0
1,65,105,68
1,68,105,0
1,65,105,92
1,68,96,0
1,67,108,8
1,75,102,0
1,55,105,78
1,63,114,0
1,55,114,48
1,63,105,0
1,53,108,0
1,62,114,0
1,55,114,30
1,63,111,0
1,70,108,1008
1,69,105,192
1,70,99,140
1,68,102,72
1,72,114,0
1,68,96,70
1,72,102,0
1,68,96,66
1,72,105,0
1,68,87,70
1,72,105,0
1,68,84,48
1,70,105,0
1,74,111,0
1,70,105,68
1,74,102,0
1,70,111,66
1,74,102,0
1,70,90,60
1,74,105,0
1,67,111,66
1,75,120,0
1,70,98,13228
1,67,95,232
1,70,86,46
1,70,95,206
1,70,89,244
1,72,92,8
1,70,86,576
1,70,95,228
1,70,89,250
1,70,101,218
1,70,98,140
1,72,101,212
1,70,89,112
1,68,95,36
1,70,98,1008
1,68,95,230
1,70,89,34
1,70,89,238
1,70,86,236
1,72,89,8
1,70,89,192
1,70,89,474
1,70,98,254
1,70,98,244
1,72,95,242
1,70,95,222
1,67,95,4
1,70,101,890
1,70,98,228
1,70,95,214
1,70,89,230
1,70,86,238
1,75,92,192
1,70,95,662
1,70,89,254
1,75,98,248
1,75,95,248
1,75,98,248
1,74,89,56
1,72,98,36
1,74,98,980
1,75,92,384
1,75,98,248
1,74,95,166
1,72,86,384
1,75,92,0
1,70,83,202
1,70,92,58
1,70,89,272
1,68,89,192
1,68,92,184
1,67,86,104
1,68,92,18
1,70,95,18
1,74,101,766
1,75,98,0
1,75,104,266
1,74,98,166
1,72,77,384
1,75,98,124
1,72,95,192
1,70,95,192
1,70,89,322
1,72,98,50
1,72,101,206
1,74,104,152
1,75,95,214
1,77,101,44
1,70,104,1370
1,72,104,134
1,74,101,78
1,75,108,380
1,63,114,16
1,63,108,74
1,62,120,34
1,63,120,66
1,75,105,1222
1,74,99,0
1,72,99,0
1,70,105,192
1,70,96,60
1,70,102,76
1,69,108,18
1,70,114,0
1,74,108,192
1,70,123,1146
1,72,114,62
1,73,108,80
1,70,105,96
1,74,114,0
1,70,102,90
1,74,114,0
1,70,105,86
1,74,117,0
1,70,102,66
1,74,114,0
1,68,99,52
1,72,117,0
1,68,99,66
1,72,105,0
1,68,108,76
1,72,114,0
1,68,102,52
1,72,108,0
1,67,105,68
1,70,114,0
1,67,90,80
1,70,105,0
1,67,105,70
1,70,108,0
1,67,108,56
1,70,108,0
1,65,108,78
1,68,105,0
1,65,105,40
1,68,96,0
1,65,105,68
1,68,105,0
1,65,105,92
1,68,96,0
1,67,108,8
1,75,102,0
1,55,105,78
1,63,114,0
1,55,114,48
1,63,105,0
1,53,108,0
1,62,114,0
1,55,114,30
1,63,111,0
1,70,114,1008
1,72,114,68
1,74,117,72
1,75,108,48
1,63,114,16
1,63,108,74
1,62,120,34
1,63,120,66
1,75,105,1222
1,74,99,0
1,72,99,0
1,70,105,192
1,70,96,60
1,70,102,76
1,69,108,18
1,70,114,0
1,74,108,192
1,70,123,1146
1,72,114,62
1,73,108,80
1,70,105,96
1,74,114,0
1,70,102,90
1,74,114,0
1,70,105,86
1,74,117,0
1,70,102,66
1,74,114,0
1,68,99,52
1,72,117,0
1,68,99,66
1,72,105,0
1,68,108,76
1,72,114,0
1,68,102,52
1,72,108,0
1,67,105,68
1,70,114,0
1,67,90,80
1,70,105,0
1,67,105,70
1,70,108,0
1,67,108,56
1,70,108,0
1,65,108,78
1,68,105,0
1,65,105,40
1,68,96,0
1,65,105,68
1,68,105,0
1,65,105,92
1,68,96,0
1,67,108,8
1,75,102,0
1,55,105,78
1,63,114,0
1,55,114,48
1,63,105,0
1,53,108,0
1,62,114,0
1,55,114,30
1,63,111,0
1,70,108,1008
1,69,105,192
1,70,99,140
1,68,102,72
1,72,114,0
1,68,96,70
1,72,102,0
1,68,96,66
1,72,105,0
1,68,87,70
1,72,105,0
1,68,84,48
1,70,105,0
1,74,111,0
1,70,105,68
1,74,102,0
1,70,111,66
1,74,102,0
1,70,90,60
1,74,105,0
1,67,111,66
1,75,120,0
1,72,104,940
1,75,98,0
1,68,92,206
1,72,98,0
1,72,95,106
1,75,89,0
1,72,101,244
1,75,92,0
1,72,95,216
1,75,92,0
1,73,95,236
1,77,86,0
1,72,89,86
1,75,86,0
1,72,92,62
1,75,83,0
1,72,98,382
1,75,89,0
1,63,86,264
1,67,89,0
1,67,89,96
1,70,89,0
1,67,92,246
1,70,83,0
1,67,92,278
1,70,89,0
1,68,101,266
1,72,95,0
1,67,86,32
1,70,83,0
1,67,89,46
1,70,71,0
1,67,92,400
1,70,92,0
1,68,86,224
1,72,95,0
1,72,95,92
1,75,89,0
1,72,98,282
1,75,92,0
1,72,92,270
1,75,92,0
1,73,98,272
1,77,92,0
1,72,98,54
1,75,71,0
1,72,95,656
1,75,89,0
1,70,92,144
1,74,92,0
1,70,77,136
1,74,77,0
1,70,89,108
1,74,83,0
1,72,83,130
1,75,86,0
1,70,92,134
1,74,98,0
1,70,86,14570
1,72,101,88
1,74,101,84
1,75,108,88
1,63,114,16
1,63,108,74
1,62,120,34
1,63,120,66
1,75,105,1222
1,74,99,0
1,72,99,0
1,70,105,192
1,70,96,60
1,70,102,76
1,69,108,18
1,70,114,0
1,74,108,192
1,70,123,1146
1,72,114,62
1,73,108,80
1,70,105,96
1,74,114,0
1,70,102,90
1,74,114,0
1,70,105,86
1,74,117,0
1,70,102,66
1,74,114,0
1,68,99,52
1,72,117,0
1,68,99,66
1,72,105,0
1,68,108,76
1,72,114,0
1,68,102,52
1,72,108,0
1,67,105,68
1,70,114,0
1,67,90,80
1,70,105,0
1,67,105,70
1,70,108,0
1,67,108,56
1,70,108,0
1,65,108,78
1,68,105,0
1,65,105,40
1,68,96,0
1,65,105,68
1,68,105,0
1,65,105,92
1,68,96,0
1,67,108,8
1,75,102,0
1,55,105,78
1,63,114,0
1,55,114,48
1,63,105,0
1,53,108,0
1,62,114,0
1,55,114,30
1,63,111,0
1,70,114,1008
1,72,114,68
1,74,117,72
1,75,108,48
1,63,114,16
1,63,108,74
1,62,120,34
1,63,120,66
1,75,105,1222
1,74,99,0
1,72,99,0
1,70,105,192
1,70,96,60
1,70,102,76
1,69,108,18
1,70,114,0
1,74,108,192
1,70,123,1146
1,72,114,62
1,73,108,80
1,70,105,96
1,74,114,0
1,70,102,90
1,74,114,0
1,70,105,86
1,74,117,0
1,70,102,66
1,74,114,0
1,68,99,52
1,72,117,0
1,68,99,66
1,72,105,0
1,68,108,76
1,72,114,0
1,68,102,52
1,72,108,0
1,67,105,68
1,70,114,0
1,67,90,80
1,70,105,0
1,67,105,70
1,70,108,0
1,67,108,56
1,70,108,0
1,65,108,78
1,68,105,0
1,65,105,40
1,68,96,0
1,65,105,68
1,68,105,0
1,65,105,92
1,68,96,0
1,67,108,8
1,75,102,0
1,55,105,78
1,63,114,0
1,55,114,48
1,63,105,0
1,53,108,0
1,62,114,0
1,55,114,30
1,63,111,0
1,70,108,1008
1,69,105,192
1,70,99,140
1,68,102,72
1,72,114,0
1,68,96,70
1,72,102,0
1,68,96,66
1,72,105,0
1,68,87,70
1,72,105,0
1,68,84,48
1,70,105,0
1,74,111,0
1,70,105,68
1,74,102,0
1,70,111,66
1,74,102,0
1,70,90,60
1,74,105,0
1,67,111,66
1,75,120,0
1,70,104,1324
1,72,104,134
1,74,101,78
1,75,108,380
1,63,114,16
1,63,108,74
1,62,120,34
1,63,120,66
1,75,105,1222
1,74,99,0
1,72,99,0
1,70,105,192
1,70,96,60
1,70,102,76
1,69,108,18
1,70,114,0
1,74,108,192
1,70,123,1146
1,72,114,62
1,73,108,80
1,70,105,96
1,74,114,0
1,70,102,90
1,74,114,0
1,70,105,86
1,74,117,0
1,70,102,66
1,74,114,0
1,68,99,52
1,72,117,0
1,68,99,66
1,72,105,0
1,68,108,76
1,72,114,0
1,68,102,52
1,72,108,0
1,67,105,68
1,70,114,0
1,67,90,80
1,70,105,0
1,67,105,70
1,70,108,0
1,67,108,56
1,70,108,0
1,65,108,78
1,68,105,0
1,65,105,40
1,68,96,0
1,65,105,68
1,68,105,0
1,65,105,92
1,68,96,0
1,67,108,8
1,75,102,0
1,55,105,78
1,63,114,0
1,55,114,48
1,63,105,0
1,53,108,0
1,62,114,0
1,55,114,30
1,63,111,0
1,70,114,1008
1,72,114,68
1,74,117,72
1,75,108,48
1,63,114,16
1,63,108,74
1,62,120,34
1,63,120,66
1,75,105,1222
1,74,99,0
1,72,99,0
1,70,105,192
1,70,96,60
1,70,102,76
1,69,108,18
1,70,114,0
1,74,108,192
1,70,123,1146
1,72,114,62
1,73,108,80
1,70,105,96
1,74,114,0
1,70,102,90
1,74,114,0
1,70,105,86
1,74,117,0
1,70,102,66
1,74,114,0
1,68,99,52
1,72,117,0
1,68,99,66
1,72,105,0
1,68,108,76
1,72,114,0
1,68,102,52
1,72,108,0
1,67,105,68
1,70,114,0
1,67,90,80
1,70,105,0
1,67,105,70
1,70,108,0
1,67,108,56
1,70,108,0
1,65,108,78
1,68,105,0
1,65,105,40
1,68,96,0
1,65,105,68
1,68,105,0
1,65,105,92
1,68,96,0
1,67,108,8
1,75,102,0
1,55,105,78
1,63,114,0
1,55,114,48
1,63,105,0
1,53,108,0
1,62,114,0
1,55,114,30
1,63,111,0
1,70,108,1008
1,69,105,192
1,70,99,140
1,68,102,72
1,72,114,0
1,68,96,70
1,72,102,0
1,68,96,66
1,72,105,0
1,68,87,70
1,72,105,0
1,68,84,48
1,70,105,0
1,74,111,0
1,70,105,68
1,74,102,0
1,70,111,66
1,74,102,0
1,70,90,60
1,74,105,0
1,67,111,66
1,75,120,0
1,70,95,748
1,69,95,38
1,70,98,192
1,68,102,34
1,72,114,0
1,68,96,70
1,72,102,0
1,68,96,66
1,72,105,0
1,68,87,70
1,72,105,0
1,68,84,48
1,70,105,0
1,74,111,0
1,70,105,68
1,74,102,0
1,70,111,66
1,74,102,0
1,70,90,60
1,74,105,0
1,67,111,66
1,75,120,0
1,70,95,748
1,69,95,38
1,70,98,192
1,68,102,34
1,72,114,0
1,68,96,70
1,72,102,0
1,68,96,66
1,72,105,0
1,68,87,70
1,72,105,0
1,68,84,48
1,70,105,0
1,74,111,0
1,70,105,68
1,74,102,0
1,70,111,66
1,74,102,0
1,70,90,60
1,74,105,0
1,67,111,66
1,75,120,0
2,60,68,3072
2,63,58,0
2,68,62,0
2,62,74,636
2,65,74,0
2,70,66,0
2,58,68,650
2,63,64,0
2,67,68,0
2,58,68,256
2,63,60,0
2,67,60,0
2,58,46,636
2,63,48,0
2,67,50,0
2,58,44,264
2,63,52,0
2,67,52,0
2,58,54,236
2,63,56,0
2,67,62,0
2,60,71,1024
2,63,64,0
2,68,66,0
2,62,74,624
2,65,71,0
2,70,68,0
2,58,60,646
2,63,60,0
2,67,62,0
2,58,68,252
2,63,60,0
2,67,66,0
2,67,64,1020
2,70,54,0
2,75,68,0
2,67,52,648
2,70,62,0
2,75,58,0
2,67,58,648
2,70,56,0
2,75,60,0
2,67,60,666
2,70,64,0
2,75,60,0
2,67,62,664
2,70,64,0
2,75,58,0
2,67,60,652
2,70,62,0
2,75,58,0
2,65,62,650
2,70,60,0
2,74,64,0
2,65,62,646
2,70,60,0
2,74,66,0
2,65,64,636
2,70,58,0
2,74,66,0
2,65,60,664
2,70,60,0
2,74,64,0
2,65,54,664
2,70,60,0
2,74,62,0
2,65,54,644
2,70,62,0
2,74,64,0
2,65,64,650
2,70,60,0
2,74,64,0
2,65,66,648
2,70,62,0
2,74,71,0
2,67,60,646
2,70,60,0
2,75,62,0
2,67,66,628
2,70,62,0
2,75,68,0
2,67,62,628
2,70,60,0
2,75,62,0
2,67,62,644
2,70,62,0
2,75,66,0
2,67,66,638
2,70,58,0
2,75,68,0
2,67,68,638
2,70,64,0
2,75,64,0
2,68,66,642
2,72,71,0
2,75,62,0
2,68,60,636
2,72,68,0
2,75,62,0
2,68,66,638
2,72,71,0
2,75,62,0
2,68,60,636
2,72,68,0
2,75,62,0
2,68,60,638
2,72,71,0
2,75,62,0
2,68,50,634
2,72,71,0
2,75,62,0
2,67,60,636
2,70,54,0
2,75,54,0
2,67,62,666
2,70,60,0
2,75,68,0
2,65,60,648
2,70,60,0
2,74,68,0
2,65,62,664
2,70,66,0
2,74,64,0
2,67,62,656
2,70,60,0
2,75,71,0
2,67,71,628
2,70,60,0
2,75,71,0
2,68,64,644
2,72,74,0
2,75,62,0
2,68,71,636
2,72,71,0
2,75,71,0
2,67,60,618
2,70,60,0
2,75,66,0
2,67,74,648
2,70,66,0
2,75,74,0
2,65,71,640
2,69,64,0
2,72,71,0
2,65,74,662
2,69,74,0
2,72,74,0
2,65,83,264
2,70,86,0
2,74,86,0
2,67,71,6422
2,70,44,0
2,75,74,0
2,67,80,554
2,70,86,0
2,75,83,0
2,67,80,664
2,70,83,0
2,75,83,0
2,67,86,644
2,70,74,0
2,75,83,0
2,65,77,644
2,70,89,0
2,74,80,0
2,65,77,648
2,70,89,0
2,74,83,0
2,65,86,660
2,70,89,0
2,74,83,0
2,65,83,660
2,70,77,0
2,74,77,0
2,65,83,672
2,70,89,0
2,74,83,0
2,63,86,654
