track,note,velocity,time
1,73,112,15536
1,73,106,60
1,74,110,24
1,73,108,16
1,76,112,100
1,76,110,124
1,73,108,68
1,73,106,60
1,74,98,20
1,73,108,0
1,73,106,84
1,71,104,80
1,71,108,88
1,71,108,52
1,73,108,76
1,71,104,28
1,76,110,96
1,76,112,104
1,71,108,88
1,71,102,48
1,73,108,44
1,71,104,32
1,71,112,112
1,69,108,96
1,73,108,104
1,73,104,56
1,74,108,44
1,73,104,20
1,76,112,76
1,76,110,124
1,73,110,84
1,73,110,48
1,74,106,20
1,73,108,128
1,73,108,96
1,71,106,88
1,71,108,80
1,71,104,52
1,73,108,60
1,71,104,128
1,76,112,96
1,76,112,128
1,71,108,60
1,71,98,40
1,73,106,56
1,71,108,8
1,71,106,128
1,69,112,108
1,73,112,48
1,73,106,60
1,74,110,24
1,73,108,16
1,76,112,100
1,76,110,124
1,73,108,68
1,73,106,60
1,74,98,20
1,73,108,0
1,73,106,84
1,71,104,80
1,71,108,88
1,71,108,52
1,73,108,76
1,71,104,28
1,76,110,96
1,76,112,104
1,71,108,88
1,71,102,48
1,73,108,44
1,71,104,32
1,71,112,112
1,69,108,96
1,73,108,104
1,73,104,56
1,74,108,44
1,73,104,20
1,76,112,76
1,76,110,124
1,73,110,84
1,73,110,48
1,74,106,20
1,73,108,128
1,73,108,96
1,71,106,88
1,71,108,80
1,71,104,52
1,73,108,60
1,71,104,128
1,76,112,96
1,76,112,128
1,71,108,60
1,71,98,40
1,73,106,56
1,71,108,8
1,71,106,128
1,69,112,108
1,73,112,48
1,73,106,60
1,74,110,24
1,73,108,16
1,76,112,100
1,76,110,124
1,73,108,68
1,73,106,60
1,74,98,20
1,73,108,0
1,73,106,84
1,71,104,80
1,71,108,88
1,71,108,52
1,73,108,76
1,71,104,28
1,76,110,96
1,76,112,104
1,71,108,88
1,71,102,48
1,73,108,44
1,71,104,32
1,71,112,112
1,69,108,96
1,73,108,104
1,73,104,56
1,74,108,44
1,73,104,20
1,76,112,76
1,76,110,124
1,73,110,84
1,73,110,48
1,74,106,20
1,73,108,128
1,73,108,96
1,71,106,88
1,71,108,80
1,71,104,52
1,73,108,60
1,71,104,128
1,76,112,96
1,76,112,128
1,71,108,60
1,71,98,40
1,73,106,56
1,71,108,8
1,71,106,128
1,69,112,108
1,76,112,48
1,81,112,12
1,81,106,92
1,81,102,60
1,81,106,144
1,81,106,112
1,81,104,124
1,81,104,60
1,81,104,84
1,81,106,64
1,80,104,80
1,76,112,116
1,76,108,116
1,80,102,32
1,80,106,92
1,80,106,64
1,80,108,92
1,80,108,120
1,80,106,128
1,78,108,36
1,80,106,80
1,78,110,32
1,78,110,112
1,76,112,100
1,81,112,28
1,81,106,60
1,81,110,64
1,81,96,56
1,81,108,120
1,81,112,112
1,81,110,140
1,81,104,48
1,81,98,68
1,81,106,80
1,80,106,64
1,76,112,112
1,76,108,80
1,80,104,32
1,80,104,88
1,80,106,68
1,80,106,108
1,80,108,104
1,78,108,112
1,80,106,68
1,78,110,40
1,78,110,108
1,76,110,88
1,73,112,144
1,73,106,60
1,74,110,24
1,73,108,16
1,76,112,100
1,76,110,124
1,73,108,68
1,73,106,60
1,74,98,20
1,73,108,0
1,73,106,84
1,71,104,80
1,71,108,88
1,71,108,52
1,73,108,76
1,71,104,28
1,76,110,96
1,76,112,104
1,71,108,88
1,71,102,48
1,73,108,44
1,71,104,32
1,71,112,112
1,69,108,96
1,73,108,104
1,73,104,56
1,74,108,44
1,73,104,20
1,76,112,76
1,76,110,124
1,73,110,84
1,73,110,48
1,74,106,20
1,73,108,128
1,73,108,96
1,71,106,88
1,71,108,80
1,71,104,52
1,73,108,60
1,71,104,128
1,76,112,96
1,76,112,128
1,71,108,60
1,71,98,40
1,73,106,56
1,71,108,8
1,71,106,128
1,69,112,108
1,73,106,12464
1,74,110,24
1,73,108,16
1,76,112,100
1,76,110,124
1,73,108,68
1,73,106,60
1,74,98,20
1,73,108,0
1,73,106,84
1,71,104,80
1,71,108,88
1,71,108,52
1,73,108,76
1,71,104,28
1,76,110,96
1,76,112,104
1,71,108,88
1,71,102,48
1,73,108,44
1,71,104,32
1,71,112,112
1,69,108,96
1,73,108,104
1,73,104,56
1,74,108,44
1,73,104,20
1,76,112,76
1,76,110,124
1,73,110,84
1,73,110,48
1,74,106,20
1,73,108,128
1,73,108,96
1,71,106,88
1,71,108,80
1,71,104,52
1,73,108,60
1,71,104,128
1,76,112,96
1,76,112,128
1,71,108,60
1,71,98,40
1,73,106,56
1,71,108,8
1,71,106,128
1,69,112,108
1,76,112,48
1,81,112,12
1,81,106,92
1,81,102,60
1,81,106,144
1,81,106,112
1,81,104,124
1,81,104,60
1,81,104,84
1,81,106,64
1,80,104,80
1,76,112,116
1,76,108,116
1,80,102,32
1,80,106,92
1,80,106,64
1,80,108,92
1,80,108,120
1,80,106,128
1,78,108,36
1,80,106,80
1,78,110,32
1,78,110,112
1,76,112,100
1,81,112,28
1,81,106,60
1,81,110,64
1,81,96,56
1,81,108,120
1,81,112,112
1,81,110,140
1,81,104,48
1,81,98,68
1,81,106,80
1,80,106,64
1,76,112,112
1,76,108,80
1,80,104,32
1,80,104,88
1,80,106,68
1,80,106,108
1,80,108,104
1,78,108,112
1,80,106,68
1,78,110,40
1,78,110,108
1,76,110,88
1,73,112,144
1,73,106,60
1,74,110,24
1,73,108,16
1,76,112,100
1,76,110,124
1,73,108,68
1,73,106,60
1,74,98,20
1,73,108,0
1,73,106,84
1,71,104,80
1,71,108,88
1,71,108,52
1,73,108,76
1,71,104,28
1,76,110,96
1,76,112,104
1,71,108,88
1,71,102,48
1,73,108,44
1,71,104,32
1,71,112,112
1,69,108,96
1,73,108,104
1,73,104,56
1,74,108,44
1,73,104,20
1,76,112,76
1,76,110,124
1,73,110,84
1,73,110,48
1,74,106,20
1,73,108,128
1,73,108,96
1,71,106,88
1,71,108,80
1,71,104,52
1,73,108,60
1,71,104,128
1,76,112,96
1,76,112,128
1,71,108,60
1,71,98,40
1,73,106,56
1,71,108,8
1,71,106,128
1,69,112,108
1,73,106,15536
1,74,106,40
1,75,108,128
1,76,112,92
1,76,112,104
1,76,112,88
1,74,108,0
1,76,108,4
1,74,110,20
1,74,108,96
1,73,110,88
2,40,96,580
2,45,100,32
2,45,98,188
2,45,100,180
2,45,98,196
2,42,94,100
2,40,98,68
2,40,98,188
2,40,100,204
2,40,90,224
2,35,94,76
2,40,98,20
2,40,102,188
2,40,98,196
2,40,96,160
2,40,94,84
2,45,98,52
2,45,100,168
2,45,98,180
2,45,98,160
2,40,96,124
2,45,100,56
2,45,98,164
2,45,96,208
2,45,98,184
2,42,98,104
2,40,98,64
2,40,98,160
2,40,100,208
2,40,100,180
2,35,96,116
2,40,96,8
2,40,102,164
2,40,98,160
2,40,100,140
2,40,96,68
2,45,100,52
2,45,100,176
2,45,96,164
2,45,100,140
2,40,96,64
2,45,100,52
2,45,98,188
2,45,100,180
2,45,98,196
2,42,94,100
2,40,98,68
2,40,98,188
2,40,100,204
2,40,90,224
2,35,94,76
2,40,98,20
2,40,102,188
2,40,98,196
2,40,96,160
2,40,94,84
2,45,98,52
2,45,100,168
2,45,98,180
2,45,98,160
2,40,96,124
2,45,100,56
2,45,98,164
2,45,96,208
2,45,98,184
2,42,98,104
2,40,98,64
2,40,98,160
2,40,100,208
2,40,100,180
2,35,96,116
2,40,96,8
2,40,102,164
2,40,98,160
2,40,100,140
2,40,96,68
2,45,100,52
2,45,100,176
2,45,96,164
2,45,100,140
2,40,96,64
2,45,100,52
2,45,98,188
2,45,100,180
2,45,98,196
2,42,94,100
2,40,98,68
2,40,98,188
2,40,100,204
2,40,90,224
2,35,94,76
2,40,98,20
2,40,102,188
2,40,98,196
2,40,96,160
2,40,94,84
2,45,98,52
2,45,100,168
2,45,98,180
2,45,98,160
2,40,96,124
2,45,100,56
2,45,98,164
2,45,96,208
2,45,98,184
2,42,98,104
2,40,98,64
2,40,98,160
2,40,100,208
2,40,100,180
2,35,96,116
2,40,96,8
2,40,102,164
2,40,98,160
2,40,100,140
2,40,96,68
2,45,100,52
2,45,100,176
2,45,96,164
2,45,100,140
2,40,96,64
2,45,100,52
2,45,98,188
2,45,100,180
2,45,98,196
2,42,94,100
2,40,98,68
2,40,98,188
2,40,100,204
2,40,90,224
2,35,94,76
2,40,98,20
2,40,102,188
2,40,98,196
2,40,96,160
2,40,94,84
2,45,98,52
2,45,100,168
2,45,98,180
2,45,98,160
2,40,96,124
2,45,100,56
2,45,98,164
2,45,96,208
2,45,98,184
2,42,98,104
2,40,98,64
2,40,98,160
2,40,100,208
2,40,100,180
2,35,96,116
2,40,96,8
2,40,102,164
2,40,98,160
2,40,100,140
2,40,96,68
2,45,100,52
2,45,100,176
2,45,96,164
2,45,100,140
2,40,96,64
2,45,100,52
2,45,98,188
2,45,100,180
2,45,98,196
2,42,94,100
2,40,98,68
2,40,98,188
2,40,100,204
2,40,90,224
2,35,94,76
2,40,98,20
2,40,102,188
2,40,98,196
2,40,96,160
2,40,94,84
2,45,98,52
2,45,100,168
2,45,98,180
2,45,98,160
2,40,96,124
2,45,100,56
2,45,98,164
2,45,96,208
2,45,98,184
2,42,98,104
2,40,98,64
2,40,98,160
2,40,100,208
2,40,100,180
2,35,96,116
2,40,96,8
2,40,102,164
2,40,98,160
2,40,100,140
2,40,96,68
2,45,100,52
2,45,100,176
2,45,96,164
2,45,100,140
2,40,96,64
2,45,100,52
2,45,98,188
2,45,100,180
2,45,98,196
2,42,94,100
2,40,98,68
2,40,98,188
2,40,100,204
2,40,90,224
2,35,94,76
2,40,98,20
2,40,102,188
2,40,98,196
2,40,96,160
2,40,94,84
2,45,98,52
2,45,100,168
2,45,98,180
2,45,98,160
2,40,96,124
2,45,100,56
2,45,98,164
2,45,96,208
2,45,98,184
2,42,98,104
2,40,98,64
2,40,98,160
2,40,100,208
2,40,100,180
2,35,96,116
2,40,96,8
2,40,102,164
2,40,98,160
2,40,100,140
2,40,96,68
2,45,100,52
2,45,100,176
2,45,96,164
2,45,100,140
2,41,96,64
2,45,100,52
2,45,98,188
2,45,100,180
2,45,98,196
2,42,94,100
2,40,98,68
2,40,98,188
2,40,100,204
2,40,90,224
2,35,94,76
2,40,98,20
2,40,102,188
2,40,98,196
2,40,96,160
2,40,94,84
2,45,98,52
2,45,100,168
2,45,98,180
2,45,98,160
2,40,96,124
2,45,100,56
2,45,98,164
2,45,96,208
2,45,98,184
2,42,98,104
2,40,98,64
2,40,98,160
2,40,100,208
2,40,100,180
2,35,96,116
2,40,96,8
2,40,102,164
2,40,98,160
2,40,100,140
2,40,96,68
2,45,100,52
2,45,100,176
2,45,96,164
2,45,100,140
2,40,96,64
2,45,100,52
2,45,98,188
2,45,100,180
2,45,98,196
2,42,94,100
2,40,98,68
2,40,98,188
2,40,100,204
2,40,90,224
2,35,94,76
2,40,98,20
2,40,102,188
2,40,98,196
2,40,96,160
2,40,94,84
2,45,98,52
2,45,100,168
2,45,98,180
2,45,98,160
2,40,96,124
2,45,100,56
2,45,98,164
2,45,96,208
2,45,98,184
2,42,98,104
2,40,98,64
2,40,98,160
2,40,100,208
2,40,100,180
2,35,96,116
2,40,96,8
2,40,102,164
2,40,98,160
2,40,100,140
2,40,96,68
2,45,100,52
2,45,100,176
2,45,96,164
2,45,100,140
2,40,96,64
2,45,100,52
2,45,98,188
2,45,100,180
2,45,98,196
2,42,94,100
2,40,98,68
2,40,98,188
2,40,100,204
2,40,90,224
2,35,94,76
2,40,98,20
2,40,102,188
2,40,98,196
2,40,96,160
2,40,94,84
2,45,98,52
2,45,100,168
2,45,98,180
2,45,98,160
2,40,96,124
2,45,100,56
2,45,98,164
2,45,96,208
2,45,98,184
2,42,98,104
2,40,98,64
2,40,98,160
2,40,100,208
2,40,100,180
2,35,96,116
2,40,96,8
2,40,102,164
2,40,98,160
2,40,100,140
2,40,96,68
2,45,100,52
2,45,100,176
2,45,96,164
2,45,100,140
2,40,96,64
2,45,100,52
2,45,98,188
2,45,100,180
2,45,98,196
2,42,94,100
2,40,98,68
2,40,98,188
2,40,100,204
2,40,90,224
2,35,94,76
2,40,98,20
2,40,102,188
2,40,98,196
2,40,96,160
2,40,94,84
2,45,98,52
2,45,100,168
2,45,98,180
2,45,98,160
2,40,96,124
2,45,100,56
2,45,98,164
2,45,96,208
2,45,98,184
2,42,98,104
2,40,98,64
2,40,98,160
2,40,100,208
2,40,100,180
2,35,96,116
2,40,96,8
2,40,102,164
2,40,98,160
2,40,100,140
2,40,96,68
2,45,100,52
2,45,100,176
2,45,96,164
2,45,100,140
2,40,96,64
2,41,96,0
2,45,100,32
2,45,98,188
2,45,100,180
2,45,98,196
2,42,94,100
2,40,98,68
2,40,98,188
2,40,100,204
2,40,90,224
2,35,94,76
2,40,98,20
2,40,102,188
2,40,98,196
2,40,96,160
2,40,94,84
2,45,98,52
2,45,100,168
2,45,98,180
2,45,98,160
2,40,96,124
2,45,100,56
2,45,98,164
2,45,96,208
2,45,98,184
2,42,98,104
2,40,98,64
2,40,98,160
2,40,100,208
2,40,100,180
2,35,96,116
2,40,96,8
2,40,102,164
2,40,98,160
2,40,100,140
2,40,96,68
2,45,100,52
2,45,100,176
2,45,96,164
2,45,100,140
2,40,96,64
2,40,96,0
2,45,100,52
2,45,98,188
2,45,100,180
2,45,98,196
2,42,94,100
2,40,98,68
2,40,98,188
2,40,100,204
2,40,90,224
2,35,94,76
2,40,98,20
2,40,102,188
2,40,98,196
2,40,96,160
2,40,94,84
2,45,98,52
2,45,100,168
2,45,98,180
2,45,98,160
2,40,96,124
2,45,100,56
2,45,98,164
2,45,96,208
2,45,98,184
2,42,98,104
2,40,98,64
2,40,98,160
2,40,100,208
2,40,100,180
2,35,96,116
2,40,96,8
2,40,102,164
2,40,98,160
2,40,100,140
2,40,96,68
2,45,100,52
2,45,96,48
3,64,88,53288
3,69,88,0
3,73,88,0
3,64,88,8
3,68,88,0
3,71,88,0
3,74,88,0
3,64,88,8
3,68,88,0
3,71,88,0
3,64,88,8
3,69,88,0
3,73,88,0
3,64,88,8
3,69,88,0
3,73,88,0
3,64,88,8
3,68,88,0
3,71,88,0
3,74,88,0
3,64,88,8
3,68,88,0
3,71,88,0
3,64,88,8
3,69,88,0
3,73,88,0
3,64,88,37640
3,69,88,0
3,73,88,0
3,64,88,8
3,68,88,0
3,71,88,0
3,74,88,0
3,64,88,8
3,68,88,0
3,71,88,0
3,64,88,8
3,69,88,0
3,73,88,0
3,64,88,8
3,69,88,0
3,73,88,0
3,64,88,8
3,68,88,0
3,71,88,0
3,74,88,0
3,64,88,8
3,68,88,0
3,71,88,0
3,64,88,8
3,69,88,0
3,73,88,0
4,73,104,3248
4,73,104,20
4,73,108,4
4,73,104,184
4,71,102,48
4,71,112,172
4,69,116,240
4,69,98,232
4,69,88,24
4,69,88,16
4,69,102,184
4,68,104,68
4,66,120,172
4,64,112,260
4,71,102,232
4,71,102,8
4,71,74,8
4,71,74,0
4,71,98,208
4,68,90,64
4,66,120,172
4,64,116,276
4,68,94,248
4,68,94,24
4,68,94,12
4,68,104,180
4,66,108,52
4,66,108,148
4,64,112,272
4,73,104,248
4,73,104,0
4,73,104,0
4,73,104,20
4,73,108,4
4,73,104,184
4,71,102,48
4,71,112,172
4,69,116,240
4,69,98,232
4,69,88,24
4,69,88,16
4,69,102,184
4,68,104,68
4,66,120,172
4,64,112,260
4,71,102,232
4,71,102,8
4,71,74,8
4,71,74,0
4,71,98,208
4,68,90,64
4,66,120,172
4,64,116,276
4,68,94,248
4,68,94,24
4,68,94,12
4,68,104,180
4,66,108,52
4,66,108,148
4,64,112,272
4,69,94,1912
4,73,120,0
4,71,98,64
4,74,106,0
4,69,94,32
4,73,104,0
4,69,94,112
4,73,104,0
4,68,94,104
4,71,106,0
4,68,100,1736
4,71,90,0
4,69,70,72
4,73,100,0
4,68,90,28
4,71,102,0
