track,note,velocity,time
0,55,101,2230
0,35,109,10
0,43,104,0
0,44,80,0
0,49,85,0
0,31,100,2
0,67,103,2
0,71,102,6
0,74,107,0
0,79,93,0
0,38,94,198
0,55,99,32
0,35,109,10
0,43,99,0
0,44,80,0
0,31,100,2
0,67,106,2
0,71,98,6
0,74,107,0
0,79,93,0
0,38,92,194
0,55,102,38
0,35,109,10
0,43,104,0
0,44,80,0
0,31,102,2
0,67,106,2
0,71,93,6
0,74,98,0
0,79,93,0
0,38,97,186
0,55,100,44
0,35,109,10
0,43,99,0
0,44,80,0
0,31,98,2
0,67,105,2
0,71,98,6
0,74,107,0
0,79,89,0
0,38,79,40
0,38,105,18
0,55,89,156
0,35,109,10
0,43,104,0
0,44,80,0
0,31,88,2
0,67,88,2
0,79,76,0
0,71,89,6
0,74,93,0
0,79,76,0
0,38,97,0
0,48,74,50
0,55,80,16
0,48,99,6
0,31,91,2
0,67,97,2
0,79,84,0
0,71,80,6
0,74,85,0
0,79,72,0
0,55,89,82
0,35,109,10
0,38,105,0
0,43,94,0
0,44,80,0
0,31,89,2
0,67,97,2
0,79,93,0
0,71,85,6
0,74,89,0
0,79,62,0
0,55,102,78
0,48,94,10
0,31,93,2
0,67,110,2
0,79,101,0
0,71,89,6
0,74,93,0
0,79,76,0
0,38,97,2
0,48,99,50
0,55,111,16
0,35,109,6
0,44,80,0
0,48,99,0
0,31,99,2
0,67,110,2
0,79,106,0
0,71,93,6
0,74,98,0
0,79,76,0
0,43,74,68
0,55,117,16
0,38,103,6
0,43,104,0
0,31,93,2
0,67,115,2
0,79,110,0
0,71,93,6
0,74,93,0
0,79,80,0
0,55,117,82
0,35,109,10
0,38,105,0
0,43,104,0
0,44,80,0
0,31,104,2
0,67,121,2
0,79,110,0
0,71,93,6
0,74,93,0
0,79,76,0
0,38,97,4
0,55,123,66
0,38,96,10
0,31,103,2
0,67,121,2
0,79,110,0
0,71,93,6
0,74,93,0
0,79,93,0
0,60,127,90
0,35,109,10
0,44,80,0
0,64,98,2
0,36,102,0
0,72,118,2
0,84,127,0
0,76,98,6
0,79,113,0
0,84,119,0
0,64,109,180
0,64,106,26
0,62,91,218
0,60,105,36
0,62,91,2
0,57,82,162
0,60,82,0
0,65,82,0
0,53,106,18
0,35,109,0
0,42,77,0
0,54,49,0
0,57,85,0
0,57,104,2
0,29,100,0
0,46,57,0
0,54,63,0
0,69,48,2
0,60,110,2
0,65,106,0
0,69,107,0
0,72,102,6
0,77,102,0
0,81,102,0
0,53,101,82
0,35,109,10
0,38,105,0
0,42,73,0
0,54,49,0
0,29,100,2
0,39,97,0
0,46,57,0
0,54,63,0
0,69,48,0
0,72,102,8
0,77,107,0
0,81,102,0
0,53,106,80
0,35,109,10
0,42,77,0
0,54,49,0
0,29,100,2
0,46,57,0
0,54,63,0
0,69,48,2
0,72,102,8
0,77,113,0
0,81,107,0
0,56,104,80
0,35,109,10
0,38,105,0
0,42,73,0
0,54,49,0
0,32,100,2
0,39,97,0
0,57,99,52
0,33,100,2
0,60,103,52
0,46,57,0
0,54,63,0
0,36,100,2
0,69,48,0
0,72,98,8
0,77,107,0
0,81,107,0
0,53,103,56
0,35,109,10
0,42,77,0
0,54,49,0
0,69,114,2
0,29,100,0
0,46,57,0
0,54,63,0
0,69,101,2
0,69,48,0
0,60,110,2
0,65,115,0
0,69,106,0
0,72,102,4
0,77,102,0
0,81,107,0
0,53,102,2
0,35,109,10
0,38,105,0
0,42,73,0
0,54,49,0
0,29,100,2
0,39,97,0
0,46,57,0
0,54,63,0
0,69,103,2
0,69,48,0
0,72,102,4
0,77,102,0
0,81,107,0
0,53,103,82
0,35,109,10
0,42,77,0
0,54,49,0
0,29,100,2
0,46,57,0
0,54,63,0
0,67,105,0
0,41,96,0
0,69,48,0
0,72,98,8
0,77,107,0
0,81,107,0
0,56,108,66
0,35,109,10
0,38,105,0
0,42,73,0
0,54,49,0
0,65,109,2
0,32,100,0
0,39,97,0
0,57,92,26
0,65,100,2
0,33,100,0
0,60,101,52
0,46,57,0
0,54,63,0
0,36,100,2
0,69,48,0
0,72,93,8
0,77,102,0
0,81,107,0
0,55,82,8
0,60,82,0
0,64,82,0
0,48,106,12
0,35,109,10
0,42,77,0
0,54,49,0
0,64,109,2
0,36,100,0
0,46,57,0
0,54,63,0
0,69,48,2
0,60,115,2
0,64,115,0
0,67,115,0
0,72,89,6
0,76,93,0
0,79,98,0
0,48,101,80
0,35,109,10
0,38,105,0
0,42,73,0
0,54,49,0
0,36,100,2
0,39,97,0
0,46,57,0
0,54,63,0
0,69,48,0
0,72,98,8
0,76,107,0
0,79,98,0
0,48,106,84
0,35,109,10
0,42,77,0
0,54,49,0
0,36,100,2
0,38,101,0
0,46,57,0
0,54,63,0
0,69,48,2
0,72,98,8
0,76,102,0
0,79,98,0
0,51,104,84
0,35,109,10
0,38,105,0
0,42,73,0
0,54,49,0
0,31,100,2
0,39,97,0
0,52,99,52
0,38,103,10
0,55,106,14
0,46,57,10
0,54,63,0
0,36,100,2
0,69,48,0
0,72,102,8
0,76,102,0
0,79,102,0
0,38,97,0
0,48,114,66
0,35,109,10
0,42,77,0
0,54,49,0
0,64,105,2
0,36,100,0
0,46,57,0
0,54,63,0
0,64,100,2
0,69,48,0
0,60,106,2
0,64,106,0
0,67,115,0
0,72,98,4
0,76,102,0
0,79,98,0
0,48,110,20
0,35,109,10
0,38,105,0
0,42,73,0
0,54,49,0
0,36,100,2
0,39,97,0
0,46,57,0
0,54,63,0
0,64,105,2
0,69,48,0
0,72,93,0
0,76,102,0
0,79,98,0
0,48,106,0
0,35,109,10
0,42,77,0
0,54,49,0
0,36,100,2
0,46,57,0
0,54,63,0
0,62,96,0
0,69,48,0
0,72,102,8
0,76,107,0
0,79,98,0
0,51,108,64
0,35,109,10
0,38,105,0
0,42,73,0
0,54,49,0
0,60,109,2
0,31,100,0
0,39,97,0
0,52,103,54
0,55,101,52
0,46,57,0
0,54,63,0
0,62,99,2
0,69,48,0
0,72,98,8
0,76,102,0
0,79,93,0
0,57,82,8
0,60,82,0
0,65,82,0
0,53,106,18
0,35,109,0
0,42,77,0
0,54,49,0
0,57,104,2
0,29,100,0
0,46,57,0
0,54,63,0
0,69,48,2
0,60,115,2
0,65,110,0
0,69,115,0
0,72,98,6
0,77,98,0
0,81,98,0
0,53,101,86
0,35,109,10
0,38,105,0
0,42,73,0
0,54,49,0
0,29,100,2
0,39,97,0
0,46,57,0
0,54,63,0
0,69,48,2
0,72,98,8
0,77,98,0
0,81,93,0
0,53,106,86
0,35,109,10
0,42,77,0
0,54,49,0
0,29,100,2
0,46,57,0
0,54,63,0
0,69,48,2
0,72,93,8
0,77,102,0
0,81,98,0
0,56,97,88
0,35,109,10
0,38,105,0
0,42,73,0
0,54,49,0
0,32,100,2
0,39,97,0
0,57,101,52
0,33,100,2
0,60,106,52
0,46,57,0
0,54,63,0
0,36,100,2
0,69,48,0
0,72,98,8
0,77,102,0
0,81,98,0
0,53,114,56
0,35,109,10
0,42,77,0
0,54,49,0
0,69,114,2
0,29,100,0
0,46,57,0
0,54,63,0
0,69,101,2
0,69,48,0
0,60,106,2
0,65,110,0
0,69,106,0
0,72,98,4
0,77,102,0
0,81,107,0
0,53,110,2
0,35,109,10
0,38,105,0
0,42,73,0
0,54,49,0
0,29,100,2
0,39,97,0
0,46,57,0
0,54,63,0
0,69,103,2
0,69,48,0
0,72,93,0
0,77,98,0
0,81,98,0
0,53,106,86
0,35,109,10
0,42,77,0
0,54,49,0
0,29,100,2
0,46,57,0
0,54,63,0
0,67,105,0
0,41,96,0
0,69,48,0
0,72,98,8
0,77,102,0
0,81,102,0
0,56,108,66
0,35,109,10
0,38,105,0
0,42,73,0
0,54,49,0
0,65,109,2
0,32,100,0
0,39,97,0
0,57,103,26
0,65,100,2
0,33,100,0
0,60,101,52
0,46,57,0
0,54,63,0
0,36,100,2
0,69,48,0
0,72,93,8
0,77,93,0
0,81,93,0
0,55,82,8
0,60,82,0
0,64,82,0
0,48,106,12
0,35,109,10
0,42,77,0
0,54,49,0
0,64,109,2
0,36,100,0
0,46,57,0
0,54,63,0
0,69,48,2
0,60,110,2
0,64,115,0
0,67,106,0
0,72,93,6
0,76,98,0
0,79,98,0
0,48,101,84
0,35,109,10
0,38,105,0
0,42,73,0
0,54,49,0
0,36,100,2
0,39,97,0
0,46,57,0
0,54,63,0
0,69,48,0
0,72,98,8
0,76,107,0
0,79,98,0
0,48,106,82
0,35,109,10
0,42,77,0
0,54,49,0
0,36,100,2
0,46,57,0
0,54,63,0
0,55,100,2
0,69,48,0
0,60,110,2
0,64,115,0
0,67,110,0
0,72,93,6
0,76,102,0
0,79,102,0
0,51,104,0
0,35,109,10
0,38,105,0
0,42,73,0
0,54,49,0
0,64,103,2
0,31,100,0
0,39,97,0
0,52,99,36
0,64,100,12
0,55,106,14
0,46,57,10
0,54,63,0
0,33,100,2
0,69,48,0
0,72,98,8
0,76,107,0
0,79,93,0
0,55,82,8
0,59,82,0
0,62,82,0
0,43,114,18
0,35,109,10
0,42,77,0
0,54,49,0
0,62,102,2
0,31,100,0
0,46,57,0
0,54,63,0
0,69,48,2
0,59,101,2
0,62,110,0
0,65,106,0
0,67,97,0
0,71,93,4
0,74,98,0
0,79,98,0
0,43,110,80
0,35,109,10
0,38,105,0
0,42,73,0
0,54,49,0
0,31,100,2
0,39,97,0
0,46,57,0
0,54,63,0
0,55,92,2
0,69,48,0
0,71,98,0
0,74,102,0
0,79,98,0
0,43,106,30
0,35,109,10
0,42,77,0
0,54,49,0
0,62,104,2
0,31,100,0
0,38,101,0
0,46,57,0
0,54,63,0
0,64,98,0
0,69,48,0
0,59,106,2
0,62,110,0
0,65,110,0
0,67,110,0
0,71,98,6
0,74,102,0
0,79,93,0
0,46,108,28
0,35,109,10
0,38,105,0
0,42,73,0
0,54,49,0
0,62,101,2
0,31,100,0
0,39,97,0
0,47,103,54
0,38,103,10
0,50,101,10
0,46,57,10
0,54,63,0
0,60,104,2
0,69,48,0
0,71,107,8
0,74,102,0
0,79,98,0
0,38,97,2
0,55,82,8
0,60,82,0
0,64,82,0
0,48,103,18
0,35,109,10
0,42,77,0
0,49,75,0
0,54,49,0
0,36,100,2
0,67,125,2
0,76,127,0
0,46,57,6
0,54,63,0
0,69,48,2
0,65,105,2
0,74,113,0
0,67,93,6
0,72,98,0
0,76,98,0
0,35,109,6
0,38,105,0
0,42,73,0
0,54,49,0
0,36,100,2
0,39,97,0
0,64,110,2
0,72,118,0
0,46,57,6
0,54,63,0
0,69,48,2
0,62,110,2
0,71,118,0
0,67,98,6
0,72,98,0
0,76,102,0
0,35,109,56
0,42,77,0
0,54,49,0
0,36,100,2
0,46,57,172
0,54,63,0
0,69,48,2
0,64,105,2
0,72,113,0
0,67,102,6
0,72,107,0
0,76,102,0
0,35,109,34
0,38,105,0
0,42,73,0
0,54,49,0
0,36,100,2
0,39,97,0
0,55,82,8
0,59,82,0
0,62,82,0
0,43,94,18
0,38,105,0
0,46,57,0
0,54,63,0
0,57,85,0
0,31,100,2
0,69,48,0
0,65,116,2
0,74,124,0
0,67,98,6
0,71,107,0
0,74,98,0
0,35,109,50
0,42,77,0
0,54,49,0
0,31,100,2
0,46,57,172
0,54,63,0
0,69,48,2
0,67,110,2
0,76,118,0
0,67,93,6
0,71,102,0
0,74,102,0
0,35,109,14
0,38,105,0
0,42,73,0
0,54,49,0
0,31,100,2
0,39,97,0
0,69,105,2
0,77,113,0
0,46,57,6
0,54,63,0
0,69,48,2
0,67,114,2
0,76,122,0
0,67,98,6
0,71,107,0
0,74,98,0
0,35,109,70
0,42,77,0
0,54,49,0
0,31,100,2
0,38,101,172
0,46,57,0
0,54,63,0
0,69,48,2
0,65,105,2
0,74,113,0
0,67,93,6
0,71,107,0
0,74,98,0
0,43,96,50
0,35,109,10
0,38,105,0
0,42,73,0
0,54,49,0
0,55,101,2
0,31,100,0
0,39,97,0
0,38,103,74
0,46,57,76
0,54,63,0
0,69,48,2
0,67,98,8
0,71,107,0
0,74,89,0
0,38,97,2
0,55,72,8
0,60,72,0
0,64,72,0
0,48,106,8
0,35,109,10
0,42,77,0
0,54,49,0
0,60,103,2
0,36,100,0
0,46,57,124
0,54,63,0
0,55,87,0
0,69,48,2
0,60,87,2
0,64,87,4
0,35,109,58
0,38,105,0
0,42,73,0
0,54,49,0
0,55,97,2
0,36,100,0
0,39,97,0
0,46,57,10
0,54,63,0
0,55,91,0
0,60,101,2
0,69,48,0
0,60,87,2
0,64,91,4
0,35,109,110
0,42,77,0
0,54,49,0
0,36,100,2
0,64,93,8
0,67,93,0
0,72,98,0
0,46,57,114
0,54,63,0
0,55,91,0
0,60,93,2
0,69,48,0
0,60,91,2
0,64,91,4
0,48,111,2
0,35,109,10
0,38,105,0
0,42,73,0
0,54,49,0
0,64,95,2
0,36,100,0
0,39,97,0
0,52,99,4
0,55,97,52
0,46,57,10
0,54,63,0
0,55,78,0
0,69,48,2
0,60,91,2
0,64,87,4
0,64,93,2
0,67,93,0
0,72,98,0
0,48,106,36
0,35,109,10
0,42,77,0
0,54,49,0
0,67,101,2
0,36,100,0
0,46,57,62
0,54,63,0
0,55,91,0
0,67,94,2
0,69,48,0
0,60,96,2
0,64,87,4
0,35,109,66
0,38,105,0
0,42,73,0
0,54,49,0
0,67,87,2
0,36,100,0
0,39,97,0
0,46,57,2
0,54,63,0
0,55,83,0
0,67,95,0
0,69,48,0
0,60,83,2
0,64,86,4
0,35,109,118
0,42,77,0
0,54,49,0
0,36,100,2
0,46,57,62
0,54,63,0
0,55,83,0
0,64,87,2
0,69,48,0
0,60,91,2
0,64,87,4
0,48,106,102
0,35,109,10
0,38,105,0
0,42,73,0
0,54,49,0
0,36,100,2
0,39,97,0
0,52,97,16
0,55,97,62
0,46,57,10
0,54,63,0
0,55,83,0
0,69,48,2
0,60,91,2
0,64,87,4
0,55,72,8
0,59,72,0
0,62,72,0
0,43,106,18
0,35,109,10
0,42,77,0
0,54,49,0
0,67,91,2
0,31,100,0
0,46,57,50
0,54,63,0
0,55,87,0
0,67,91,2
0,69,48,0
0,59,87,2
0,62,87,2
0,35,109,46
0,38,105,0
0,42,73,0
0,54,49,0
0,67,91,2
0,31,100,0
0,39,97,0
0,46,57,42
0,54,63,0
0,55,83,0
0,67,104,2
0,69,48,0
0,59,87,2
0,62,87,4
0,35,109,112
0,42,77,0
0,54,49,0
0,31,100,2
0,62,93,8
0,67,93,0
0,71,98,0
0,46,57,42
0,54,63,0
0,55,78,0
0,67,104,0
0,69,48,0
0,59,91,2
0,62,83,4
0,43,97,20
0,35,109,10
0,38,105,0
0,42,73,0
0,54,49,0
0,65,95,2
0,31,100,0
0,39,97,0
0,47,106,2
0,50,93,62
0,46,57,10
0,54,63,0
0,55,78,0
0,69,48,2
0,59,91,2
0,62,83,0
0,64,85,2
0,67,89,0
0,72,93,0
0,55,72,8
0,60,72,0
0,64,72,0
0,48,117,18
0,35,109,10
0,42,77,0
0,54,49,0
0,65,108,2
0,36,100,0
0,46,57,0
0,54,63,0
0,55,83,0
0,64,91,2
0,69,48,0
0,60,91,2
0,64,78,4
0,35,109,118
0,38,105,0
0,42,73,0
0,54,49,0
0,36,100,2
0,39,97,0
0,46,57,134
0,54,63,0
0,55,87,0
0,64,100,2
0,69,48,0
0,60,87,2
0,64,87,4
0,35,109,90
0,42,77,0
0,54,49,0
0,36,100,2
0,46,57,78
0,54,63,0
0,55,87,0
0,69,48,2
0,60,86,2
0,64,83,4
0,48,106,108
0,35,109,10
0,38,105,0
0,42,73,0
0,54,49,0
0,36,100,2
0,39,97,0
0,52,89,58
0,55,93,56
0,38,101,10
0,46,57,0
0,54,63,0
0,55,87,0
0,55,98,2
0,69,48,0
0,60,83,2
0,64,83,4
0,38,97,20
0,55,72,8
0,60,72,0
0,64,72,0
0,48,106,12
0,35,109,10
