track,note,velocity,time
1,68,81,2008
1,79,86,8
1,86,85,0
1,74,82,4
1,63,72,0
1,83,83,0
1,55,71,4
1,60,66,0
1,52,76,640
1,83,87,8
1,69,89,0
1,73,83,0
1,66,79,4
1,79,85,4
1,62,71,0
1,59,68,0
1,62,64,260
1,59,49,48
1,54,56,48
1,55,53,60
1,52,57,32
1,47,56,8
1,40,50,16
1,71,52,1084
1,74,57,60
1,74,89,136
1,81,85,0
1,67,74,0
1,71,81,84
1,78,85,0
1,64,72,8
1,67,81,96
1,74,82,0
1,59,70,8
1,58,86,48
1,69,86,12
1,76,82,0
1,57,49,528
1,55,52,140
1,53,50,0
1,50,52,0
1,48,53,8
1,43,49,20
1,38,50,4
1,31,52,12
1,69,61,1464
1,86,67,8
1,79,62,8
1,77,74,60
1,84,73,8
1,67,72,0
1,74,86,148
1,64,79,8
1,81,79,0
1,77,81,116
1,70,83,4
1,60,81,0
1,67,80,40
1,57,81,8
1,74,81,0
1,79,92,100
1,62,89,0
1,72,89,0
1,57,72,764
1,55,67,116
1,53,67,76
1,48,58,24
1,50,71,76
1,46,56,68
1,41,48,8
1,34,56,8
1,41,40,68
1,46,56,0
1,48,46,56
1,50,51,20
1,53,56,0
1,55,61,4
1,57,64,24
1,46,56,0
1,62,71,0
1,53,62,24
1,65,76,0
1,62,67,8
1,55,61,0
1,64,73,8
1,67,81,36
1,64,76,96
1,47,56,0
1,65,78,8
1,53,58,12
1,57,66,92
1,62,72,48
1,64,82,28
1,64,66,24
1,56,81,4
1,59,86,0
1,67,87,0
1,59,63,68
1,53,73,108
1,43,66,4
1,56,79,12
1,64,76,52
1,61,81,88
1,36,72,20
1,55,86,0
1,58,79,4
1,63,74,32
1,35,66,8
1,54,83,0
1,53,78,8
1,40,68,0
1,56,72,48
1,62,78,4
1,61,75,60
1,53,64,48
1,56,74,68
1,58,71,0
1,53,64,8
1,44,57,0
1,59,68,16
1,60,72,0
1,65,78,20
1,64,71,16
1,63,74,24
1,64,70,28
1,65,80,8
1,74,86,8
1,45,59,0
1,52,64,0
1,55,68,88
1,60,58,148
1,64,62,16
1,72,63,16
1,71,57,20
1,69,66,0
1,72,64,0
1,71,63,0
1,64,58,20
1,60,47,8
1,68,57,4
1,69,63,116
1,71,61,12
1,69,59,20
1,60,44,0
1,55,48,36
1,64,63,0
1,72,81,84
1,54,59,28
1,72,86,16
1,60,61,56
1,64,71,116
1,71,79,24
1,72,81,0
1,74,85,40
1,60,55,36
1,54,47,16
1,59,45,136
1,60,54,32
1,69,52,12
1,68,54,12
1,66,64,0
1,64,61,12
1,63,57,20
1,64,52,20
1,60,41,20
1,54,40,192
1,64,58,116
1,72,74,0
1,70,75,4
1,71,76,28
1,53,57,104
1,70,83,0
1,56,61,32
1,58,63,116
1,60,66,32
1,63,78,104
1,68,82,28
1,67,72,4
1,63,75,20
1,60,70,0
1,67,75,36
1,65,74,0
1,63,72,16
1,60,66,16
1,58,59,20
1,63,72,12
1,60,82,16
1,56,74,8
1,55,72,68
1,53,59,68
1,48,67,12
1,41,73,12
1,55,42,36
1,56,44,20
1,58,66,28
1,60,64,20
1,62,55,8
1,63,72,48
1,65,72,40
1,67,68,8
1,68,64,32
1,70,72,20
1,72,72,48
1,70,62,56
1,68,66,24
1,67,66,28
1,65,70,12
1,67,61,4
1,68,66,44
1,63,45,4
1,70,68,8
1,67,49,436
1,65,48,0
1,68,48,8
1,70,46,20
1,68,62,1208
1,50,66,68
1,74,86,0
1,75,89,28
1,51,89,8
1,50,59,0
1,74,72,0
1,48,63,0
1,72,72,20
1,70,72,24
1,46,59,20
1,44,66,8
1,68,81,0
1,50,78,88
1,74,81,8
1,48,90,96
1,72,89,8
1,53,56,220
1,53,83,8
1,43,86,0
1,55,85,0
1,58,82,0
1,62,85,0
1,36,75,0
1,53,61,60
1,55,68,36
1,53,92,28
1,58,90,0
1,43,86,4
1,62,86,0
1,36,80,4
1,58,63,132
1,43,83,60
1,36,78,8
1,53,89,0
1,58,90,0
1,60,85,0
1,43,78,136
1,60,36,100
1,63,72,48
1,49,71,8
1,68,86,8
1,56,57,8
1,65,59,12
1,64,68,36
1,58,57,0
1,62,72,16
1,59,66,0
1,67,89,92
1,48,67,4
1,64,63,20
1,55,50,0
1,57,48,0
1,62,58,4
1,58,68,0
1,61,72,0
1,47,86,108
1,66,90,4
1,63,63,488
1,62,59,20
1,60,63,8
1,59,64,32
1,62,75,0
1,60,90,56
1,57,85,4
1,56,82,8
1,66,92,32
1,74,86,8
1,66,86,0
1,69,81,8
1,71,81,0
1,67,80,4
1,40,62,96
1,47,61,100
1,49,71,96
1,50,81,116
1,49,56,0
1,47,61,96
1,40,76,8
1,47,56,8
1,59,51,4
1,62,50,0
1,49,48,8
1,50,83,8
1,62,90,4
1,69,86,4
1,66,66,68
1,49,66,20
1,62,68,8
1,62,82,76
1,64,81,8
1,47,67,8
1,43,62,96
1,50,67,28
1,52,61,68
1,53,83,96
1,58,68,92
1,60,61,0
1,57,64,0
1,52,74,8
1,58,64,96
1,57,62,0
1,60,50,0
1,50,67,124
1,43,53,32
1,50,66,8
1,52,64,0
1,53,86,8
1,57,81,8
1,62,61,120
1,52,67,32
1,69,90,0
1,50,66,24
1,64,63,0
1,67,89,124
1,46,64,20
1,53,66,32
1,55,67,8
1,57,85,0
1,62,81,4
1,65,86,0
1,60,76,0
1,64,68,0
1,60,68,16
1,62,72,8
1,65,67,4
1,55,74,104
1,46,54,64
1,53,64,40
1,55,66,0
1,57,93,0
1,62,63,20
1,65,81,28
1,62,52,56
1,53,56,8
1,64,76,68
1,47,66,4
1,62,85,8
1,65,89,0
1,57,81,136
1,64,57,20
1,43,66,48
1,64,76,0
1,59,83,0
1,67,87,4
1,53,81,32
1,55,85,12
1,63,85,0
1,58,85,4
1,36,63,4
1,38,24,32
1,35,70,28
1,62,75,0
1,54,81,8
1,57,75,0
1,56,85,4
1,53,81,0
1,40,79,4
1,61,85,4
1,53,83,8
1,44,79,4
1,60,86,0
1,60,68,120
1,65,83,0
1,64,70,8
1,74,89,16
1,71,85,8
1,52,83,0
1,45,75,0
1,55,57,36
1,60,56,112
1,64,76,140
1,71,57,120
1,74,64,48
1,79,67,20
1,83,93,96
1,81,70,28
1,76,89,12
1,84,90,8
1,54,59,20
1,60,79,16
1,64,89,0
1,83,66,28
1,54,70,20
1,86,92,8
1,78,93,0
1,62,57,116
1,59,55,0
1,54,81,24
1,60,85,220
1,57,76,0
1,54,56,0
1,59,74,108
1,62,82,0
1,54,62,0
1,60,76,84
1,64,86,4
1,84,86,8
1,76,89,0
1,75,80,48
1,83,80,0
1,53,59,16
1,74,71,12
1,82,71,0
1,56,72,0
1,60,40,60
1,72,92,52
1,80,90,0
1,53,78,28
1,58,81,20
1,62,81,0
1,67,87,12
1,72,83,8
1,68,86,0
1,53,78,20
1,60,82,260
1,63,95,0
1,67,64,60
1,68,71,48
1,70,81,40
1,72,86,104
1,74,79,20
1,77,89,84
1,75,86,20
1,74,79,24
1,68,81,0
1,74,86,28
1,72,89,80
1,36,68,112
1,43,63,44
1,48,80,116
1,53,87,20
1,60,86,4
1,58,82,8
1,48,72,16
1,53,97,124
1,63,92,0
1,58,92,0
1,53,87,0
1,62,89,0
1,43,81,0
1,58,79,0
1,60,53,72
1,43,81,28
1,53,87,8
1,58,90,0
1,36,72,0
1,62,85,4
1,43,80,0
1,60,76,0
1,63,63,8
1,65,62,28
1,67,81,36
1,49,78,96
1,68,90,0
1,56,64,16
1,65,64,12
1,64,66,16
1,58,59,8
1,62,79,16
1,59,72,4
1,48,78,88
1,67,89,8
1,55,61,0
1,64,66,20
1,57,49,8
1,62,67,12
1,58,81,8
1,61,79,0
1,47,90,96
1,66,90,8
1,63,59,492
1,62,63,20
1,60,64,0
1,59,72,36
1,62,81,36
1,60,90,48
1,56,85,8
1,57,86,0
1,66,95,176
1,74,89,0
1,66,85,0
1,69,79,8
1,71,79,4
1,67,75,0
1,40,64,100
1,47,66,88
1,49,71,96
1,50,92,104
1,49,63,128
1,47,68,96
1,40,81,104
1,47,63,252
1,59,57,0
1,62,61,48
1,49,56,0
1,50,89,68
1,62,95,12
1,69,89,0
1,66,67,68
1,49,70,20
1,62,74,8
1,60,82,76
1,57,81,0
1,64,76,4
1,62,74,0
1,47,68,128
1,43,55,100
1,50,76,96
1,52,70,96
1,53,92,0
1,58,78,96
1,57,72,0
1,60,70,0
1,52,63,0
1,58,79,68
1,60,70,0
1,57,72,4
1,50,78,124
1,43,71,16
1,50,74,128
1,52,81,56
1,72,83,0
1,74,85,4
1,53,89,80
1,72,87,8
1,69,75,128
1,52,78,32
1,65,83,0
1,62,50,60
1,50,64,84
1,62,79,4
1,60,85,4
1,67,83,0
1,64,75,0
1,46,68,88
1,53,76,88
1,55,66,48
1,57,89,92
1,65,87,16
1,69,86,0
1,60,85,0
1,65,78,76
1,60,79,48
1,64,75,0
1,62,74,0
1,67,75,4
1,53,78,112
1,46,63,88
1,53,72,88
1,55,54,112
1,57,89,96
1,60,66,56
1,62,68,96
1,55,75,72
1,64,81,4
1,53,73,8
1,62,92,12
1,65,89,8
1,47,78,124
1,64,68,8
1,59,86,0
1,53,86,0
1,61,90,0
1,67,83,0
1,64,75,4
1,43,73,0
1,59,81,12
1,61,86,8
1,64,82,0
1,43,86,60
1,36,66,136
1,63,95,12
1,55,99,0
1,58,90,0
1,35,76,124
1,54,81,56
1,57,76,8
1,62,71,0
1,60,64,4
1,40,71,4
1,53,89,136
1,56,92,0
1,47,92,0
1,61,90,4
1,60,82,60
1,59,45,44
1,53,89,48
1,44,82,0
1,65,86,0
1,64,59,40
1,71,90,124
1,74,89,4
1,45,63,20
1,52,73,12
1,55,82,0
1,60,71,128
1,64,86,116
1,71,70,136
1,72,78,60
1,76,73,32
1,79,85,48
1,78,82,88
1,81,82,20
1,76,89,88
1,84,93,4
1,54,72,4
1,53,40,4
1,60,76,0
1,64,81,4
1,83,75,48
1,54,81,20
1,86,93,0
1,76,86,4
1,59,72,60
1,62,79,0
1,54,80,0
1,64,86,244
1,60,76,0
1,54,59,20
1,59,78,8
1,62,86,0
1,54,71,0
1,60,82,40
1,57,76,0
1,59,45,4
1,76,86,8
1,84,87,8
1,83,87,12
1,75,86,0
1,82,86,12
1,74,82,0
1,53,78,0
1,56,72,8
1,60,72,0
1,72,83,100
1,80,72,8
1,53,66,24
1,67,87,16
1,72,83,0
1,68,85,12
1,62,61,84
1,58,67,0
1,53,74,4
1,63,92,12
1,60,81,0
1,67,64,20
1,68,72,8
1,70,72,24
1,74,85,104
1,50,80,100
1,74,89,4
1,75,89,20
1,51,87,4
1,50,63,60
1,74,76,4
1,68,75,76
1,44,71,0
1,48,63,0
1,72,66,4
1,50,87,0
1,74,86,16
1,48,86,100
1,72,87,0
1,53,52,208
1,43,87,12
1,53,83,0
1,58,90,0
1,62,89,8
1,36,81,0
1,53,66,0
1,58,57,84
1,43,86,88
1,36,80,8
1,58,86,0
1,53,89,0
1,62,86,0
1,58,68,104
1,58,90,104
1,53,92,0
1,62,86,0
1,43,87,4
1,36,83,4
1,43,80,148
1,60,49,96
1,63,72,40
1,65,71,44
1,67,80,48
1,49,81,8
1,68,93,8
1,56,66,124
1,65,73,28
1,58,64,8
1,64,72,0
1,59,74,12
1,62,79,0
1,48,80,80
1,67,92,0
1,55,55,0
1,64,66,16
1,57,44,12
1,62,71,8
1,58,72,0
1,61,82,4
1,47,92,88
1,66,92,0
1,63,64,500
1,62,67,32
1,60,72,56
1,59,78,12
1,62,81,12
1,57,90,36
1,56,86,0
1,60,90,4
1,52,76,16
1,54,89,104
1,62,81,0
1,59,80,0
1,86,97,4
1,88,86,8
1,55,67,8
1,86,66,20
1,52,71,12
1,81,66,0
1,64,68,36
1,59,67,0
1,57,70,0
1,61,67,0
1,83,75,4
1,83,70,40
1,57,75,12
1,59,68,0
1,64,73,8
1,61,71,0
1,76,64,28
1,52,59,28
1,81,89,0
1,83,81,20
1,62,72,4
1,54,80,0
1,59,70,0
1,81,89,16
1,83,62,4
1,55,66,12
1,78,62,16
1,52,70,24
1,74,59,28
1,61,75,16
1,54,71,0
1,57,66,4
1,76,79,8
1,76,64,40
1,52,56,24
1,74,64,144
1,55,66,8
1,79,67,8
1,81,82,40
1,58,85,32
1,62,72,0
1,65,71,0
1,57,55,20
1,79,86,20
1,55,71,96
1,74,60,0
1,60,57,8
1,64,61,0
1,58,61,0
1,57,49,0
1,79,81,12
1,79,82,48
1,58,78,8
1,64,73,0
1,60,70,0
1,57,72,0
1,74,60,20
1,55,61,32
1,81,89,16
1,79,73,40
1,58,85,0
1,65,73,0
1,62,68,4
1,74,60,24
1,57,58,8
1,77,87,20
1,55,66,28
1,74,56,44
1,64,72,0
1,58,78,0
1,60,64,4
1,76,86,24
1,57,72,100
1,74,74,32
1,55,67,8
1,72,59,28
1,53,74,96
1,74,81,0
1,58,90,24
1,62,81,0
1,74,71,12
1,57,64,80
1,53,70,84
1,57,72,108
1,60,63,8
1,64,57,0
1,77,83,124
1,76,86,12
1,74,71,12
1,57,81,4
1,60,75,0
1,64,73,4
1,72,58,0
1,74,76,24
1,53,58,20
1,76,74,28
1,58,86,12
1,62,78,8
1,77,89,4
1,57,55,0
1,76,59,40
1,53,67,8
1,75,80,8
1,64,72,4
1,60,70,0
1,74,56,36
1,58,72,4
1,62,64,0
1,77,75,12
1,57,72,16
1,81,79,0
1,84,80,40
1,53,73,0
1,47,61,28
1,89,99,40
1,62,82,88
1,65,86,0
1,57,68,8
1,88,87,20
1,43,50,20
1,80,85,52
1,53,81,84
1,64,85,0
1,59,83,0
1,67,83,4
1,88,93,4
1,64,79,56
1,67,75,12
1,59,78,0
1,85,79,24
1,36,75,60
1,79,86,20
1,58,78,104
1,63,78,0
1,55,72,8
1,84,93,20
1,35,59,40
1,87,80,8
1,62,71,80
1,54,76,8
1,57,66,0
1,77,58,16
1,80,59,12
1,56,79,0
1,53,81,0
1,61,82,0
1,40,64,12
1,86,93,16
1,83,83,56
1,77,54,40
1,80,50,40
1,64,89,0
1,60,89,8
1,45,66,4
1,83,70,8
1,86,93,8
1,59,67,0
1,52,76,0
1,83,61,0
1,59,75,40
1,62,75,8
1,54,81,8
1,84,87,0
1,84,90,4
1,81,81,44
1,62,82,40
1,54,81,0
1,59,78,0
1,76,76,8
1,74,86,28
1,52,62,4
1,72,39,8
1,59,83,4
1,62,82,4
1,74,79,0
1,76,82,16
1,55,68,8
1,52,78,8
1,72,87,12
1,54,76,28
1,60,73,4
1,57,71,8
1,69,71,8
1,69,72,16
1,72,80,0
1,52,72,4
1,74,86,16
1,76,82,0
1,54,62,20
1,64,75,0
1,60,72,4
1,72,75,12
1,57,56,32
1,54,64,108
1,59,66,128
1,62,61,0
1,59,78,104
1,62,64,0
1,76,97,0
1,72,72,36
1,59,83,0
1,62,74,4
1,69,54,8
1,71,63,8
1,54,71,32
1,78,92,0
1,74,76,24
1,60,55,4
1,57,50,4
1,71,55,4
1,72,61,4
1,57,72,48
1,60,66,0
1,79,93,12
1,76,81,20
1,57,76,28
1,72,56,0
1,60,73,8
1,74,63,0
1,54,63,0
1,81,93,12
1,78,74,20
1,74,56,20
1,59,74,0
1,62,71,0
1,76,66,4
1,54,83,56
1,83,93,0
1,79,79,52
1,76,67,36
1,78,74,12
1,81,76,32
1,53,87,0
1,84,81,16
1,86,86,40
1,87,86,48
1,58,86,76
1,60,81,0
1,56,74,8
1,56,63,56
1,53,74,16
1,80,90,12
1,56,79,20
1,58,79,0
1,60,66,16
1,62,67,0
1,56,81,68
1,58,81,8
1,62,67,4
1,60,63,0
1,91,83,8
1,89,86,20
1,87,83,20
1,53,76,12
1,84,81,0
1,80,85,40
1,56,85,28
1,63,81,12
1,60,72,0
1,79,81,8
1,77,67,0
1,55,56,8
1,82,82,8
1,79,79,68
1,53,74,8
1,75,74,32
1,72,66,12
