track,note,velocity,time
1,76,108,17954
1,71,80,0
1,74,127,14
1,78,106,146
1,83,108,2
1,76,124,18
1,81,124,0
1,74,124,0
1,71,100,176
1,73,100,0
1,78,100,2
1,78,120,0
1,71,120,2
1,73,120,0
1,71,91,78
1,70,84,112
1,71,88,146
1,74,123,2
1,76,125,2
1,81,127,0
1,71,101,288
1,73,101,0
1,78,101,2
1,78,119,112
1,71,117,0
1,73,118,2
1,71,95,38
1,70,89,2
1,71,94,16
1,74,115,80
1,76,115,0
1,81,115,2
1,71,101,192
1,73,101,0
1,78,101,2
1,78,120,8
1,71,120,0
1,73,120,0
1,67,99,70
1,74,99,0
1,66,99,16
1,73,99,0
1,69,99,0
1,59,99,0
1,61,99,2
1,66,99,0
1,66,121,30
1,71,121,0
1,75,121,2
1,65,110,2
1,70,110,0
1,74,110,0
1,64,119,16
1,71,118,0
1,66,119,2
1,64,110,190
1,69,112,0
1,66,110,80
1,71,125,0
1,76,110,224
1,81,110,2
1,78,115,78
1,83,127,2
1,78,89,2418
1,85,120,32
1,83,104,16
1,74,120,82
1,76,120,0
1,81,120,0
1,71,100,68
1,73,100,0
1,78,100,2
1,66,114,18
1,71,114,0
1,73,114,2
1,71,99,42
1,70,87,14
1,71,101,178
1,74,116,0
1,76,116,2
1,81,117,0
1,71,102,322
1,73,99,0
1,78,101,0
1,66,115,64
1,71,115,0
1,73,115,2
1,71,93,124
1,74,112,130
1,76,113,0
1,81,118,0
1,73,110,178
1,78,110,0
1,66,119,272
1,71,120,0
1,73,120,2
1,67,97,56
1,74,97,0
1,66,110,0
1,73,110,2
1,69,110,0
1,59,116,0
1,61,116,2
1,66,116,0
1,66,110,34
1,71,110,0
1,75,110,0
1,65,110,176
1,70,110,0
1,74,110,2
1,64,119,14
1,66,119,0
1,71,119,0
1,64,110,192
1,69,110,0
1,66,117,64
1,71,117,2
1,76,110,240
1,81,110,0
1,78,117,66
1,83,117,2
1,71,110,2736
1,74,110,0
1,71,100,98
1,76,119,0
1,73,100,2
1,78,110,2
1,71,100,0
1,76,110,2
1,69,100,0
1,74,120,2
1,71,100,0
1,76,110,0
1,69,100,80
1,74,110,0
1,66,100,0
1,71,110,0
1,69,100,0
1,74,110,2
1,66,100,94
1,71,110,0
1,69,100,0
1,74,110,2
1,66,100,0
1,71,110,2
1,64,110,448
1,69,110,0
1,74,110,0
1,71,103,32
1,74,96,2
1,71,99,2
1,76,110,0
1,73,99,2
1,78,110,2
1,71,100,0
1,76,110,2
1,69,100,2
1,74,110,0
1,71,100,0
1,76,110,2
1,69,100,94
1,74,110,0
1,66,100,2
1,71,110,0
1,69,100,0
1,74,110,2
1,66,100,2
1,71,110,0
1,69,100,2
1,74,110,0
1,66,100,96
1,71,110,0
1,59,110,446
1,64,110,0
1,69,110,2
1,71,101,96
1,74,97,0
1,71,100,2
1,76,110,0
1,73,100,2
1,78,110,2
1,71,100,0
1,76,110,0
1,69,100,2
1,74,110,0
1,71,100,94
1,76,110,0
1,69,100,2
1,74,110,2
1,66,100,2
1,71,110,0
1,69,100,2
1,74,110,2
1,66,100,0
1,71,110,2
1,69,100,96
1,74,110,0
1,66,100,0
1,71,110,2
1,64,110,446
1,69,110,0
1,74,110,2
1,71,102,32
1,74,97,2
1,71,100,2
1,76,110,0
1,73,100,0
1,78,110,0
1,71,100,0
1,76,110,0
1,69,100,96
1,74,110,0
1,71,100,0
1,76,110,2
1,69,99,94
1,74,110,0
1,66,99,2
1,71,110,0
1,69,100,2
1,74,110,2
1,66,100,0
1,71,110,0
1,69,100,96
1,74,110,0
1,66,100,0
1,71,110,0
1,59,110,450
1,64,110,0
1,69,110,0
1,71,110,4128
1,69,110,0
1,66,110,0
1,64,110,0
1,62,110,0
1,59,110,0
1,57,110,2
1,59,110,286
1,62,110,194
1,59,110,2
1,64,110,0
1,62,110,0
1,66,110,2
1,74,110,194
1,76,110,2
1,73,110,2
1,69,110,194
1,69,110,190
1,66,110,2
1,71,110,2
1,64,110,0
1,69,110,482
1,69,110,192
1,66,110,2
1,69,110,2
1,71,110,2
1,66,110,2
1,59,110,0
1,62,110,2
1,59,110,0
1,62,110,96
1,64,110,2
1,71,110,288
1,69,110,0
1,64,110,96
1,66,110,96
1,64,110,94
1,69,110,2
1,78,110,194
1,76,110,0
1,73,110,2
1,66,110,0
1,69,110,0
1,66,110,2
1,71,110,2
1,71,110,0
1,69,110,0
1,66,110,0
1,64,110,96
1,62,110,0
1,59,110,0
1,66,110,17856
1,71,110,0
1,75,110,0
1,65,110,2
1,70,110,0
1,74,110,0
1,64,110,2
1,66,110,0
1,71,110,0
1,64,110,2
1,66,110,0
1,71,110,0
1,64,110,382
1,69,110,0
1,66,110,2
1,71,110,0
1,76,110,192
1,81,110,0
1,78,110,2
1,83,110,0
1,76,110,2496
1,78,110,0
1,81,110,0
1,78,110,96
1,83,120,4
1,85,110,2
1,83,103,0
1,83,124,2
1,85,110,0
1,83,103,0
1,81,106,0
1,78,105,96
1,76,110,0
1,81,110,0
1,78,110,96
1,81,125,98
1,83,110,2
1,81,110,2
1,81,123,0
1,83,110,0
1,81,104,0
1,78,110,2
1,76,110,0
1,73,110,2
1,71,110,2
1,69,110,2
1,83,125,98
1,85,110,96
1,83,110,0
1,83,127,2
1,85,110,0
1,83,110,0
1,81,110,0
1,78,110,0
1,76,110,0
1,81,110,0
1,78,110,2
1,76,110,0
1,81,124,2
1,83,110,0
1,81,110,2
1,81,127,0
1,83,110,0
1,81,110,2
1,78,110,2
1,76,110,2
1,73,110,0
1,71,110,0
1,69,110,94
1,83,127,98
1,85,110,2
1,83,110,0
1,83,124,0
1,85,110,0
1,83,110,96
1,81,110,0
1,78,110,2
1,76,110,2
1,81,126,0
1,83,110,0
1,81,110,96
1,81,127,0
1,83,110,0
1,81,110,0
1,78,110,0
1,76,110,2
1,73,110,2
1,71,110,2
1,76,127,98
1,78,110,0
1,76,110,0
1,76,121,2
1,78,110,0
1,76,110,2
1,73,110,0
1,71,110,2
1,69,110,2
1,71,121,2
1,73,110,2
1,71,110,0
1,69,110,2
1,66,110,2
1,64,110,0
1,83,110,674
1,81,110,0
1,78,110,0
1,76,110,2
1,78,110,0
1,81,110,2
1,78,110,0
1,83,125,2
1,85,110,0
1,83,110,0
1,83,127,0
1,85,110,96
1,83,110,0
1,81,110,2
1,78,110,2
1,76,110,0
1,81,110,0
1,78,110,2
1,81,127,98
1,83,110,2
1,81,110,0
1,81,124,0
1,83,110,96
1,81,110,2
1,78,110,2
1,76,110,94
1,73,110,0
1,71,110,0
1,69,110,96
1,83,125,98
1,85,110,0
1,83,110,0
1,83,125,0
1,85,110,2
1,83,110,0
1,81,110,2
1,78,110,0
1,76,110,0
1,81,110,96
1,78,110,0
1,76,110,2
1,81,125,0
1,83,110,2
1,81,110,0
1,81,121,96
1,83,110,0
1,81,110,96
1,78,110,2
1,76,110,0
1,73,110,0
1,71,110,2
1,69,110,2
1,83,125,96
1,85,110,0
1,83,110,0
1,83,126,96
1,85,110,0
1,83,110,2
1,81,110,2
1,78,110,0
1,76,110,0
1,81,122,0
1,83,110,0
1,81,110,2
1,81,125,0
1,83,110,0
1,81,110,0
1,78,110,96
1,76,110,0
1,73,110,96
1,71,110,2
1,76,124,98
1,78,110,2
1,76,110,2
1,76,127,0
1,78,110,0
1,76,110,2
1,73,110,0
1,71,110,96
1,69,110,2
1,71,127,2
1,73,110,2
1,71,110,0
1,69,110,96
1,66,110,2
1,64,110,0
1,83,117,96
1,85,110,96
1,83,110,0
1,81,110,2
1,78,110,2
1,81,127,96
1,83,110,0
1,81,110,0
1,78,110,2
1,76,110,0
1,74,110,2
1,71,110,0
1,76,110,2
1,73,110,94
1,78,110,0
1,71,110,0
1,76,110,2
1,71,110,192
1,74,110,2
1,71,110,0
1,76,110,2
1,73,110,62
1,78,110,14
1,71,110,2
1,76,110,0
1,78,110,80
1,73,110,0
1,71,110,0
1,76,110,0
1,69,110,80
1,74,110,0
1,71,110,0
1,76,110,0
1,69,110,2
1,74,110,0
1,71,110,2
1,76,110,0
1,69,110,0
1,74,110,2
1,66,110,0
1,71,110,0
1,74,110,0
1,69,110,0
1,66,110,16
1,71,110,2
1,69,110,78
1,74,110,0
1,66,110,2
1,71,110,0
1,66,110,32
1,71,110,0
1,75,110,0
1,65,110,190
1,70,110,0
1,74,110,0
1,64,110,2
1,66,110,0
1,71,110,0
1,64,110,192
1,69,110,0
1,66,110,2
1,71,110,0
1,76,110,192
1,81,110,0
1,78,110,2
1,83,110,2
1,71,110,2304
1,69,110,96
1,66,110,0
1,64,110,2
1,62,110,0
1,59,110,96
1,54,110,2
1,57,110,2
1,62,110,186
1,54,110,0
1,59,110,0
1,62,110,194
1,52,110,0
1,57,110,0
1,49,110,288
1,54,110,0
1,52,110,192
1,54,110,0
1,52,110,0
1,57,110,0
1,54,110,288
1,59,110,0
1,62,110,194
1,64,110,2
1,66,110,0
1,71,110,0
1,69,110,96
1,71,110,2
1,66,110,2
1,71,110,0
1,69,110,96
1,66,110,0
1,64,110,0
1,62,110,2
1,59,110,0
1,52,110,0
1,57,110,0
1,62,110,2
1,54,110,2
1,59,110,2
1,62,110,2
1,59,110,2
1,66,110,0
1,64,110,2
1,62,110,0
1,52,110,96
1,57,110,0
1,49,110,2
1,54,110,2
1,52,110,194
1,54,110,96
1,52,110,0
1,57,110,2
1,54,110,2
1,59,110,2
1,62,110,0
1,59,110,0
1,62,110,2
1,64,110,2
1,66,110,0
1,71,110,0
1,69,110,0
1,71,110,2
1,66,110,0
1,69,110,0
1,71,110,2
1,74,110,2
1,76,110,0
1,78,110,96
1,81,110,0
1,83,110,96
1,86,110,0
1,85,110,96
1,81,110,0
1,83,110,2
1,83,110,0
1,74,110,0
1,76,110,0
1,78,110,0
1,81,110,2
1,83,110,2
1,86,110,0
1,79,110,48
1,84,110,0
1,88,110,0
1,77,110,96
1,82,110,2
1,86,110,0
1,76,110,286
1,78,110,0
1,83,110,0
1,76,127,96
1,78,127,0
1,83,127,2
2,33,95,9220
2,35,95,270
2,38,88,224
2,33,96,98
2,30,95,288
2,28,80,210
2,30,80,34
2,33,95,32
2,35,95,2
2,38,94,210
2,40,86,18
2,42,85,18
2,47,86,18
2,45,95,18
2,42,97,0
2,35,91,208
2,30,85,30
2,33,95,18
2,35,95,2
2,38,94,210
2,33,95,50
2,30,94,2
2,28,93,210
2,30,89,18
2,33,95,16
2,35,95,0
2,38,90,224
2,40,88,48
2,42,88,34
2,47,88,32
2,45,96,32
2,42,95,290
2,30,71,498
2,33,95,34
2,35,95,272
2,38,88,224
2,33,96,96
2,30,95,2
2,28,80,210
2,30,80,32
2,33,95,16
2,35,95,0
2,38,94,210
2,40,86,16
2,42,85,16
2,47,86,14
2,45,95,18
2,42,97,0
2,35,91,208
2,30,85,32
2,33,95,18
2,35,95,288
2,38,94,210
2,33,95,50
2,30,94,2
2,28,93,210
2,30,89,16
2,33,95,18
2,35,95,286
2,38,90,224
2,40,88,50
2,42,88,34
2,47,88,32
2,45,96,34
2,42,95,0
2,30,71,496
2,33,95,36
2,35,95,272
2,38,88,224
2,33,96,96
2,30,95,0
2,28,80,210
2,30,80,34
2,33,95,32
2,35,95,2
2,38,94,208
2,40,86,16
2,42,85,18
2,47,86,18
2,45,95,18
2,42,97,288
2,35,91,210
2,30,85,18
2,33,95,16
2,35,95,2
2,38,94,210
2,33,95,50
2,30,94,288
2,28,93,208
2,30,89,18
2,33,95,16
2,35,95,2
2,38,90,226
2,40,88,48
2,42,88,34
2,47,88,34
2,45,96,30
2,42,95,2
2,30,71,496
2,33,95,34
2,35,95,272
2,38,88,224
2,33,96,96
2,30,95,2
2,28,80,208
2,30,80,32
2,33,95,18
2,35,95,0
2,38,94,208
2,40,86,18
2,42,85,18
2,47,86,14
2,45,95,18
2,42,97,0
2,35,91,210
2,30,85,32
2,33,95,16
2,35,95,2
2,38,94,210
2,33,95,48
2,30,94,0
2,28,93,208
2,30,89,14
2,33,95,18
2,35,95,288
2,38,90,224
2,40,88,48
2,42,88,32
2,47,88,34
2,45,96,34
2,42,95,2
2,30,71,498
2,33,95,34
2,35,95,270
2,38,88,224
2,33,96,98
2,30,95,2
2,28,80,210
2,30,80,18
2,33,95,34
2,35,95,0
2,38,94,208
2,40,86,16
2,42,85,16
2,47,86,16
2,45,95,16
2,42,97,0
2,35,91,208
2,30,85,34
2,33,95,20
2,35,95,270
2,38,88,224
2,33,96,96
2,30,95,0
2,28,80,208
2,30,80,16
2,33,95,32
2,35,95,0
2,38,94,206
2,40,86,16
2,42,85,16
2,47,86,16
2,45,95,16
2,42,97,0
2,35,91,208
2,30,85,32
2,33,95,18
2,35,95,0
2,38,94,206
2,33,95,50
2,30,94,0
2,28,93,208
2,30,89,18
2,33,95,16
2,35,95,0
2,38,90,224
2,40,88,46
2,42,88,34
2,47,88,34
2,45,96,34
2,42,95,2
2,30,71,498
2,33,104,34
2,35,104,0
2,38,104,192
2,35,104,0
2,40,104,0
2,38,104,2
2,42,104,0
2,50,104,196
2,52,104,0
2,49,104,0
2,45,104,194
2,45,104,194
2,42,104,0
2,47,104,2
2,40,104,0
2,45,104,480
2,45,104,194
2,42,104,0
2,45,104,0
2,47,104,0
2,42,104,0
2,35,104,0
2,38,104,0
2,35,104,0
2,38,104,0
2,40,104,0
2,47,104,290
2,45,104,0
2,40,104,0
2,42,104,98
2,40,104,96
2,45,104,0
2,54,104,194
2,52,104,0
2,49,104,2
2,42,104,0
2,45,104,0
2,42,104,2
2,47,104,2
2,47,104,0
2,45,104,0
2,42,104,0
2,40,104,0
2,38,104,2
2,35,104,2
2,33,95,18
2,35,95,270
2,38,88,224
2,33,96,96
2,30,95,0
2,28,80,208
2,30,80,18
2,33,95,32
2,35,95,0
2,38,94,208
2,40,86,16
2,42,85,16
2,47,86,18
2,45,95,18
2,42,97,2
2,35,91,210
2,30,85,30
2,33,95,18
2,35,95,288
2,38,94,208
2,33,95,50
2,30,94,288
2,28,93,210
2,30,89,16
2,33,95,18
2,35,95,286
2,38,90,226
2,40,88,48
2,42,88,30
2,47,88,32
2,45,96,32
2,42,95,286
2,30,71,496
2,33,95,36
2,35,95,270
2,38,88,224
2,33,96,96
2,30,95,0
2,28,80,208
2,30,80,32
2,33,95,18
2,35,95,0
2,38,94,210
2,40,86,16
2,42,85,16
2,47,86,18
2,45,95,16
2,42,97,2
2,35,91,210
2,30,85,32
2,33,95,18
2,35,95,270
2,38,88,224
2,33,96,96
2,30,95,288
2,28,80,208
2,30,80,32
2,33,95,16
2,35,95,2
2,38,94,210
2,40,86,18
2,42,85,18
2,47,86,16
2,45,95,16
2,42,97,288
2,35,91,210
2,30,85,18
2,33,95,18
2,35,95,288
2,38,94,210
2,33,95,48
2,30,94,2
2,28,93,210
2,30,89,16
2,33,95,14
2,35,95,0
2,38,90,224
2,40,88,48
2,42,88,34
2,47,88,32
2,45,96,32
2,42,95,0
2,30,71,482
2,33,95,34
2,35,95,270
2,38,88,224
2,33,96,98
2,30,95,0
2,28,80,210
2,30,80,16
2,33,95,32
2,35,95,0
2,38,94,208
2,40,86,18
2,42,85,18
2,47,86,14
2,45,95,18
2,42,97,0
2,35,91,210
2,30,85,32
2,33,95,18
2,35,95,0
2,38,94,208
2,33,95,50
2,30,94,0
2,28,93,206
2,30,89,18
2,33,95,16
2,35,95,2
2,38,90,226
2,40,88,48
2,42,88,34
2,47,88,32
2,45,96,34
2,42,95,0
2,30,71,482
2,33,95,32
2,35,95,274
2,38,88,224
2,33,96,96
2,30,95,0
2,28,80,208
2,30,80,32
2,33,95,16
2,35,95,0
2,38,94,208
2,40,86,18
2,42,85,18
2,47,86,18
2,45,95,18
2,42,97,0
2,35,91,210
2,30,85,32
2,33,95,16
2,35,95,0
2,38,94,210
2,33,95,50
2,30,94,0
2,28,93,210
2,30,89,18
2,33,95,18
2,35,95,0
2,38,90,226
2,40,88,50
