track,note,velocity,time
3,31,92,590
3,31,0,1436
3,38,102,4
3,38,0,202
3,38,104,38
3,38,0,236
3,31,86,4
3,31,0,1410
3,38,100,30
3,38,0,202
3,38,104,38
3,38,0,236
3,31,96,4
3,31,0,1407
3,38,98,33
3,38,0,202
3,38,100,38
3,38,0,236
3,31,94,4
3,31,0,1430
3,38,96,10
3,38,0,157
3,38,106,83
3,38,0,215
3,31,110,25
3,31,0,1436
3,38,104,4
3,38,0,175
3,38,104,65
3,38,0,220
3,31,104,20
3,31,0,1435
3,38,106,5
3,38,0,170
3,38,104,70
3,38,0,170
3,38,108,70
3,38,0,630
3,38,102,90
3,38,0,716
3,45,98,4
3,45,0,200
3,45,98,40
3,45,0,220
3,38,100,20
3,38,0,665
3,38,94,55
3,38,0,716
3,33,100,4
3,33,0,170
3,33,92,70
3,33,0,236
3,26,90,4
3,26,0,675
3,26,106,45
3,26,0,690
3,33,94,30
3,33,0,205
3,33,100,35
3,33,0,236
3,26,102,4
3,26,0,660
3,26,106,60
3,26,0,662
3,33,104,58
3,33,0,210
3,33,102,30
3,33,0,205
3,26,100,35
3,26,0,657
3,26,104,63
3,26,0,710
3,33,96,10
3,33,0,210
3,33,98,30
3,33,0,236
3,26,106,4
3,26,0,652
3,26,110,68
3,26,0,685
3,30,108,35
3,30,0,440
3,31,106,40
3,31,0,672
3,31,102,48
3,31,0,716
3,38,104,4
3,38,0,435
3,31,110,45
3,31,0,660
3,31,108,60
3,31,0,680
3,29,106,40
3,29,0,350
3,34,112,130
3,34,0,357
3,34,112,123
3,34,0,162
3,34,102,78
3,34,0,195
3,29,114,45
3,29,0,236
3,36,70,4
3,36,0,236
3,41,104,4
3,41,0,230
3,36,92,10
3,36,0,162
3,34,112,78
3,34,0,307
3,34,114,173
3,34,0,195
3,29,112,45
3,29,0,215
3,27,112,25
3,27,0,235
3,39,114,5
3,39,0,215
3,29,112,25
3,29,0,225
3,41,108,15
3,41,0,160
3,34,116,80
3,34,0,225
3,34,112,255
3,34,0,212
3,29,106,28
3,29,0,210
3,34,116,30
3,34,0,232
3,29,106,8
3,29,0,215
3,34,112,25
3,34,0,235
3,29,112,5
3,29,0,215
3,34,112,25
3,34,0,300
3,34,112,180
3,34,0,235
3,29,90,5
3,29,0,236
3,34,110,4
3,34,0,236
3,29,102,4
3,29,0,236
3,34,108,4
3,34,0,236
3,29,106,4
3,29,0,225
3,34,112,15
3,34,0,357
3,34,112,123
3,34,0,162
3,34,102,78
3,34,0,195
3,29,114,45
3,29,0,236
3,36,70,4
3,36,0,236
3,41,104,4
3,41,0,230
3,36,92,10
3,36,0,162
3,34,112,78
3,34,0,420
3,34,114,60
3,34,0,342
3,27,110,138
3,27,0,225
3,39,112,15
3,39,0,200
3,38,114,40
3,38,0,236
3,26,116,4
3,26,0,217
3,31,114,23
3,31,0,367
3,31,114,113
3,31,0,355
3,26,90,5
3,26,0,116
3,31,102,4
3,31,0,147
3,31,108,93
3,31,0,476
3,26,110,4
3,26,0,236
3,31,114,4
3,31,0,235
3,31,112,125
3,31,0,285
3,31,112,75
3,31,0,212
3,31,112,28
3,31,0,287
3,31,110,73
3,31,0,220
3,31,102,140
3,31,0,185
3,36,114,55
3,36,0,730
3,36,110,110
3,36,0,42
3,39,110,78
3,39,0,75
3,36,116,45
3,36,0,47
3,41,116,73
3,41,0,227
3,43,108,13
3,43,0,200
3,39,114,40
3,39,0,200
3,29,118,40
3,29,0,470
3,33,112,10
3,33,0,287
3,29,114,73
3,29,0,35
3,36,114,85
3,36,0,70
3,29,118,50
3,29,0,32
3,39,110,88
3,39,0,205
3,36,112,35
3,36,0,222
3,33,112,18
3,33,0,207
3,36,116,33
3,36,0,425
3,36,100,55
3,36,0,287
3,36,92,73
3,36,0,55
3,39,116,65
3,39,0,175
3,43,80,65
3,43,0,217
3,39,110,23
3,39,0,236
3,36,108,4
3,36,0,202
3,29,114,38
3,29,0,442
3,33,112,38
3,33,0,297
3,29,112,63
3,29,0,42
3,36,98,78
3,36,0,116
3,29,114,4
3,29,0,42
3,33,114,78
3,33,0,225
3,29,118,15
3,29,0,212
3,33,114,28
3,33,0,110
3,36,116,130
3,36,0,432
3,39,110,48
3,39,0,337
3,36,112,23
3,36,0,50
3,43,96,70
3,43,0,236
3,36,112,4
3,36,0,202
3,39,108,38
3,39,0,212
3,36,100,28
3,36,0,236
3,34,110,4
3,34,0,445
3,37,110,35
3,37,0,467
3,43,102,13
3,43,0,452
3,37,102,28
3,37,0,352
3,38,116,128
3,26,114,480
3,38,0,365
3,38,104,115
3,26,0,97
3,38,0,139
3,26,112,4
3,26,0,236
3,38,122,4
3,38,0,252
3,31,92,2628
3,31,0,1436
3,38,102,4
3,38,0,202
3,38,104,38
3,38,0,236
3,31,86,4
3,31,0,1410
3,38,100,30
3,38,0,202
3,38,104,38
3,38,0,236
3,31,96,4
3,31,0,1407
3,38,98,33
3,38,0,202
3,38,100,38
3,38,0,236
3,31,94,4
3,31,0,1430
3,38,96,10
3,38,0,157
3,38,106,83
3,38,0,215
3,31,110,25
3,31,0,1436
3,38,104,4
3,38,0,175
3,38,104,65
3,38,0,220
3,31,104,20
3,31,0,1435
3,38,106,5
3,38,0,170
3,38,104,70
3,38,0,170
3,38,108,70
3,38,0,630
3,38,102,90
3,38,0,716
3,45,98,4
3,45,0,200
3,45,98,40
3,45,0,220
3,38,100,20
3,38,0,665
3,38,94,55
3,38,0,716
3,33,100,4
3,33,0,170
3,33,92,70
3,33,0,236
3,26,90,4
3,26,0,675
3,26,106,45
3,26,0,690
3,33,94,30
3,33,0,205
3,33,100,35
3,33,0,236
3,26,102,4
3,26,0,660
3,26,106,60
3,26,0,662
3,33,104,58
3,33,0,210
3,33,102,30
3,33,0,205
3,26,100,35
3,26,0,657
3,26,104,63
3,26,0,710
3,33,96,10
3,33,0,210
3,33,98,30
3,33,0,236
3,26,106,4
3,26,0,652
3,26,110,68
3,26,0,685
3,30,108,35
3,30,0,440
3,31,106,40
3,31,0,672
3,31,102,48
3,31,0,716
3,38,104,4
3,38,0,435
3,31,110,45
3,31,0,660
3,31,108,60
3,31,0,680
3,29,106,40
3,29,0,350
3,34,112,130
3,34,0,357
3,34,112,123
3,34,0,162
3,34,102,78
3,34,0,195
3,29,114,45
3,29,0,236
3,36,70,4
3,36,0,236
3,41,104,4
3,41,0,230
3,36,92,10
3,36,0,162
3,34,112,78
3,34,0,307
3,34,114,173
3,34,0,195
3,29,112,45
3,29,0,215
3,27,112,25
3,27,0,235
3,39,114,5
3,39,0,215
3,29,112,25
3,29,0,225
3,41,108,15
3,41,0,160
3,34,116,80
3,34,0,225
3,34,112,255
3,34,0,212
3,29,106,28
3,29,0,210
3,34,116,30
3,34,0,232
3,29,106,8
3,29,0,215
3,34,112,25
3,34,0,235
3,29,112,5
3,29,0,215
3,34,112,25
3,34,0,415
3,34,98,65
3,34,0,236
3,29,92,4
3,29,0,236
3,34,120,4
3,34,0,250
3,34,110,110
3,34,0,102
3,29,114,18
3,29,0,440
3,34,112,40
3,34,0,357
3,34,112,123
3,34,0,162
3,34,102,78
3,34,0,195
3,29,114,45
3,29,0,236
3,36,70,4
3,36,0,236
3,41,104,4
3,41,0,230
3,36,92,10
3,36,0,162
3,34,112,78
3,34,0,420
3,34,114,60
3,34,0,342
3,27,110,138
3,27,0,225
3,39,112,15
3,39,0,200
3,38,114,40
3,26,116,240
3,38,0,120
3,26,0,97
3,31,114,23
3,31,0,367
3,31,114,113
3,31,0,355
3,26,90,5
3,26,0,116
3,31,102,4
3,31,0,147
3,31,108,93
3,31,0,476
3,26,110,4
3,26,0,236
3,31,114,4
3,31,0,235
3,31,112,125
3,31,0,285
3,31,112,75
3,31,0,212
3,31,112,28
3,31,0,287
3,31,110,73
3,31,0,220
3,31,102,140
3,31,0,185
3,36,114,55
3,36,0,730
3,36,110,110
3,36,0,42
3,39,110,78
3,39,0,75
3,36,116,45
3,36,0,47
3,41,116,73
3,41,0,227
3,43,108,13
3,43,0,200
3,39,114,40
3,39,0,200
3,29,118,40
3,29,0,470
3,33,112,10
3,33,0,287
3,29,114,73
3,29,0,35
3,36,114,85
3,36,0,70
3,29,118,50
3,29,0,32
3,39,110,88
3,39,0,205
3,36,112,35
3,36,0,222
3,33,112,18
3,33,0,207
3,36,116,33
3,36,0,425
3,36,100,55
3,36,0,287
3,36,92,73
3,36,0,55
3,39,116,65
3,39,0,175
3,43,80,65
3,43,0,217
3,39,110,23
3,39,0,236
3,36,108,4
3,36,0,202
3,29,114,38
3,29,0,442
3,33,112,38
3,33,0,297
3,29,112,63
3,29,0,42
3,36,98,78
3,36,0,116
3,29,114,4
3,29,0,42
3,33,114,78
3,33,0,225
3,29,118,15
3,29,0,212
3,33,114,28
3,33,0,110
3,36,116,130
3,36,0,432
3,39,110,48
3,39,0,337
3,36,112,23
3,36,0,50
3,43,96,70
3,43,0,236
3,36,112,4
3,36,0,202
3,39,108,38
3,39,0,212
3,36,100,28
3,36,0,236
3,34,110,4
3,34,0,445
3,37,110,35
3,37,0,467
3,43,102,13
3,43,0,452
3,37,102,28
3,37,0,352
3,38,116,128
3,26,114,480
3,38,0,365
3,38,104,115
3,26,0,97
3,38,0,139
3,26,112,4
3,26,0,236
3,38,122,4
3,38,0,252
3,26,114,228
3,38,116,360
3,26,0,492
3,26,114,108
3,38,0,333
3,38,110,27
3,26,0,195
3,26,112,165
3,38,0,85
3,26,0,75
3,36,114,80
3,36,0,730
3,36,110,110
3,36,0,42
3,39,110,78
3,39,0,75
3,36,116,45
3,36,0,47
3,41,116,73
3,41,0,227
3,43,108,13
3,43,0,200
3,39,114,40
3,39,0,200
3,29,118,40
3,29,0,470
3,33,112,10
3,33,0,287
3,29,114,73
3,29,0,35
3,36,114,85
3,36,0,70
3,29,118,50
3,29,0,32
3,39,110,88
3,39,0,205
3,36,112,35
3,36,0,222
3,33,112,18
3,33,0,207
3,36,116,33
3,36,0,425
3,36,100,55
3,36,0,287
3,36,92,73
3,36,0,55
3,39,116,65
3,39,0,175
3,43,80,65
3,43,0,217
3,39,110,23
3,39,0,236
3,36,108,4
3,36,0,202
3,29,114,38
3,29,0,442
3,33,112,38
3,33,0,297
3,29,112,63
3,29,0,42
3,36,98,78
3,36,0,116
3,29,114,4
3,29,0,42
3,33,114,78
3,33,0,225
3,29,118,15
3,29,0,212
3,33,114,28
3,33,0,110
3,36,116,130
3,36,0,432
3,39,110,48
3,39,0,337
3,36,112,23
3,36,0,50
3,43,96,70
3,43,0,236
3,36,112,4
3,36,0,202
3,39,108,38
3,39,0,212
3,36,100,28
3,36,0,236
3,34,110,4
3,34,0,445
3,37,110,35
3,37,0,467
3,43,102,13
3,43,0,452
3,37,102,28
3,37,0,352
3,38,116,128
3,26,114,480
3,38,0,365
3,38,104,115
3,26,0,97
3,38,0,139
3,26,112,4
3,26,0,236
3,38,122,4
3,38,0,252
3,26,114,228
3,38,116,360
3,26,0,492
3,26,114,108
3,38,0,332
3,38,110,28
3,26,0,195
3,26,112,165
3,38,0,85
3,26,0,75
3,31,116,80
3,31,0,836
3,38,94,4
3,38,0,92
3,43,104,28
3,43,0,236
3,38,106,4
3,38,0,230
3,29,116,10
3,29,0,235
3,41,108,5
3,41,0,236
3,27,112,4
3,27,0,462
3,39,108,18
3,39,0,356
3,27,108,4
3,27,0,32
3,39,110,88
3,39,0,135
3,29,118,105
3,29,0,236
3,41,114,4
3,41,0,236
3,29,110,4
3,29,0,236
3,34,112,4
3,34,0,836
3,41,74,4
3,41,0,116
3,46,106,4
3,46,0,185
3,41,102,55
3,41,0,236
3,34,114,4
3,34,0,200
3,46,104,40
3,46,0,202
3,27,108,38
3,27,0,476
3,39,112,4
3,27,112,240
3,39,0,157
3,27,0,38
3,38,114,45
3,38,0,180
3,26,114,60
3,26,0,236
3,38,116,4
3,38,0,225
3,26,116,15
3,26,0,145
3,31,116,95
3,31,0,836
3,38,94,4
3,38,0,92
3,43,104,28
3,43,0,236
3,38,106,4
3,38,0,230
3,29,116,10
3,29,0,235
3,41,108,5
3,41,0,236
3,27,112,4
3,27,0,462
3,39,108,18
3,39,0,356
3,27,108,4
3,27,0,32
3,39,110,88
3,39,0,135
3,29,118,105
3,29,0,236
3,41,114,4
3,41,0,236
3,29,110,4
3,29,0,236
3,34,112,4
3,34,0,836
3,41,74,4
3,41,0,116
3,46,106,4
3,46,0,185
3,41,102,55
3,41,0,236
3,34,114,4
3,34,0,200
3,46,104,40
3,46,0,202
3,27,108,38
3,27,0,476
3,39,112,4
3,27,112,240
3,39,0,157
3,27,0,38
3,38,114,45
3,38,0,180
3,26,114,60
3,26,0,236
3,38,116,4
3,38,0,225
3,26,116,15
3,26,0,145
3,31,116,95
3,31,0,836
3,38,94,4
3,38,0,92
3,43,104,28
3,43,0,236
3,38,106,4
3,38,0,230
3,29,116,10
3,29,0,235
3,41,108,5
3,41,0,236
3,27,112,4
3,27,0,222
3,39,108,18
3,39,0,356
3,27,108,4
3,27,0,32
3,39,110,88
3,39,0,135
3,29,118,105
3,29,0,236
3,41,114,2
3,41,0,236
3,29,110,4
3,29,0,236
3,34,112,4
3,34,0,120
3,41,74,4
3,41,0,116
3,46,106,4
3,46,0,30
3,41,102,55
3,41,0,121
3,34,114,4
3,34,0,200
3,46,104,40
3,46,0,168
3,27,108,6
3,27,0,83
3,39,112,4
3,27,112,127
3,39,0,84
3,27,0,38
3,38,114,45
3,38,0,148
3,26,114,8
3,26,0,44
3,38,116,4
3,38,0,73
3,26,116,15
3,26,0,34
3,31,116,95
3,31,0,166
3,38,94,4
3,38,0,62
3,43,104,28
3,43,0,127
3,38,106,4
3,38,0,161
3,29,116,10
3,29,0,7
3,41,108,5
3,41,0,48
3,27,112,4
3,27,0,115
3,39,108,18
3,39,0,89
3,27,108,4
3,27,0,32
3,39,110,14
3,39,0,135
3,29,118,54
3,29,0,90
3,41,114,4
3,41,0,131
3,29,110,4
3,29,0,171
3,34,112,4
3,34,0,12
3,41,74,4
3,41,0,116
3,46,106,4
3,46,0,122
3,41,102,55
3,41,0,13
3,34,114,4
3,34,0,18
3,46,104,40
3,46,0,60
3,27,108,38
3,27,0,175
3,39,112,4
3,27,112,19
3,39,0,157
3,27,0,15
3,38,114,45
3,38,0,40
3,26,114,60
3,26,0,136
3,38,116,4
3,38,0,166
3,26,116,15
3,26,0,126
4,74,94,27470
4,77,96,0
4,82,84,0
4,77,0,937
4,74,0,19
4,82,0,0
4,72,78,4
4,77,94,0
4,81,96,0
4,72,0,956
4,81,0,0
4,74,92,4
4,82,88,0
4,77,0,870
4,82,0,27
4,74,0,59
4,75,98,4
4,79,92,0
4,82,70,0
4,75,0,476
4,79,0,0
4,82,0,0
4,72,90,4
4,77,72,0
4,81,86,0
4,77,0,422
4,72,0,54
4,81,0,0
4,77,78,4
4,82,100,0
4,82,0,362
4,77,0,18
4,74,94,3460
4,77,96,0
4,82,84,0
4,77,0,937
4,74,0,19
4,82,0,0
4,72,78,4
4,77,94,0
4,81,96,0
4,77,0,943
4,72,0,13
4,81,0,0
4,74,92,4
4,77,92,0
4,82,75,0
4,77,0,785
4,82,0,100
4,74,0,71
4,75,92,4
4,79,96,0
4,82,64,0
4,75,0,476
4,79,0,0
4,82,0,0
4,74,96,4
4,78,100,0
4,74,0,455
4,78,0,21
4,74,82,4
4,79,84,0
4,79,0,1912
4,74,0,15
4,75,80,9593
4,79,74,0
4,75,0,1887
4,79,0,5
4,73,82,28
4,76,86,0
4,73,0,1797
4,76,0,25
4,74,94,31298
4,77,96,0
4,82,84,0
4,77,0,937
4,74,0,19
4,82,0,0
4,72,78,4
4,77,94,0
4,81,96,0
4,72,0,956
4,81,0,0
4,74,92,4
4,82,88,0
4,77,0,870
4,82,0,27
4,74,0,59
4,75,98,4
4,79,92,0
4,82,70,0
4,75,0,476
4,79,0,0
4,82,0,0
4,72,90,4
4,77,72,0
4,81,86,0
4,72,0,476
