track,note,velocity,time
1,52,45,1792
1,76,52,12
1,57,62,16
1,81,71,8
1,60,66,112
1,84,83,0
1,88,87,4
1,64,75,8
1,62,74,8
1,86,82,8
1,60,66,4
1,84,67,4
1,59,54,0
1,83,70,0
1,86,82,4
1,62,63,4
1,60,64,36
1,84,78,8
1,57,53,12
1,81,62,0
1,57,44,336
1,81,52,12
1,88,86,0
1,64,72,0
1,62,72,116
1,86,85,0
1,62,72,56
1,86,86,0
1,60,61,16
1,84,72,0
1,88,86,48
1,64,66,4
1,62,79,16
1,86,85,8
1,60,54,12
1,84,61,8
1,86,74,12
1,62,61,0
1,77,55,388
1,53,45,8
1,57,49,0
1,81,56,0
1,86,93,104
1,62,75,0
1,88,86,8
1,64,75,8
1,62,66,8
1,86,68,12
1,60,64,8
1,84,73,0
1,83,54,56
1,81,72,8
1,57,57,4
1,59,57,0
1,83,66,0
1,60,63,32
1,84,72,0
1,86,82,20
1,62,75,8
1,88,86,32
1,64,76,0
1,86,89,28
1,62,86,8
1,62,85,40
1,86,85,8
1,60,49,4
1,84,54,0
1,59,48,12
1,83,59,8
1,62,81,0
1,86,89,8
1,84,75,4
1,60,66,0
1,59,58,12
1,83,72,8
1,57,63,0
1,81,71,0
1,60,75,24
1,84,83,4
1,83,81,48
1,59,70,0
1,55,46,8
1,79,50,12
1,52,43,20
1,76,50,8
1,52,57,660
1,76,67,8
1,57,71,0
1,81,79,4
1,84,80,8
1,60,72,0
1,64,89,228
1,88,99,4
1,89,72,8
1,65,76,0
1,91,83,20
1,67,66,8
1,69,86,12
1,93,89,0
1,67,89,68
1,91,95,0
1,65,71,0
1,89,71,4
1,64,71,36
1,88,80,12
1,62,74,36
1,86,82,0
1,88,99,0
1,64,89,0
1,88,87,56
1,64,81,0
1,81,66,24
1,57,49,0
1,62,75,0
1,86,86,8
1,88,81,36
1,64,85,4
1,86,82,96
1,62,78,8
1,60,70,8
1,84,80,0
1,83,73,12
1,59,63,8
1,84,73,4
1,60,62,0
1,62,68,68
1,86,79,8
1,88,83,48
1,64,76,8
1,84,81,0
1,60,73,4
1,86,89,0
1,62,89,4
1,53,56,348
1,77,55,20
1,55,59,8
1,79,56,0
1,57,59,16
1,81,68,0
1,57,58,164
1,81,64,8
1,59,56,0
1,83,63,8
1,50,73,356
1,74,85,4
1,77,87,24
1,53,78,0
1,83,90,68
1,59,81,0
1,86,86,20
1,62,82,0
1,52,78,72
1,76,82,0
1,79,85,0
1,55,79,0
1,60,85,68
1,84,86,8
1,64,81,8
1,88,83,0
1,53,80,64
1,77,83,0
1,57,79,92
1,81,82,8
1,86,89,80
1,62,86,0
1,89,87,0
1,65,92,0
1,55,79,0
1,79,86,0
1,57,76,116
1,81,86,0
1,65,83,12
1,89,83,8
1,57,76,4
1,81,86,16
1,83,86,0
1,59,72,0
1,65,81,8
1,89,86,0
1,59,72,8
1,83,86,0
1,84,83,24
1,60,68,0
1,65,83,20
1,89,87,0
1,88,83,96
1,64,75,0
1,86,76,0
1,62,74,0
1,84,78,0
1,60,66,4
1,64,81,16
1,88,87,4
1,60,62,12
1,84,73,0
1,62,90,8
1,86,92,4
1,60,55,0
1,84,59,16
1,59,57,20
1,83,61,0
1,81,72,32
1,57,56,8
1,55,64,8
1,79,74,8
1,60,90,8
1,84,99,0
1,59,56,20
1,83,62,12
1,57,58,12
1,81,61,0
1,79,73,40
1,55,57,8
1,53,66,0
1,77,72,8
1,55,66,4
1,79,76,0
1,56,71,60
1,80,72,8
1,53,53,8
1,77,55,0
1,55,51,8
1,79,56,0
1,52,43,20
1,76,50,8
1,55,48,8
1,79,52,0
1,57,49,48
1,81,57,8
1,81,47,12
1,57,39,0
1,52,55,528
1,76,63,4
1,57,66,0
1,81,72,8
1,60,76,4
1,84,93,8
1,57,56,16
1,81,62,24
1,62,81,20
1,86,93,8
1,59,67,0
1,83,71,12
1,60,89,8
1,84,95,8
1,57,57,0
1,81,64,12
1,57,62,92
1,81,61,4
1,57,57,380
1,81,71,8
1,67,83,80
1,91,87,8
1,93,93,48
1,69,90,0
1,69,90,60
1,93,101,16
1,57,75,60
1,81,75,4
1,57,76,40
1,81,70,12
1,65,80,60
1,89,87,12
1,91,95,28
1,67,89,0
1,65,78,80
1,89,73,0
1,64,70,0
1,88,71,0
1,86,79,0
1,62,61,4
1,89,90,36
1,65,86,0
1,62,66,12
1,86,74,0
1,88,93,24
1,64,86,8
1,62,66,0
1,86,79,0
1,62,75,68
1,86,85,0
1,64,90,112
1,88,95,4
1,60,55,28
1,84,56,8
1,86,74,0
1,62,74,4
1,88,86,0
1,64,71,12
1,60,70,8
1,84,72,0
1,62,74,4
1,86,79,0
1,64,73,0
1,88,78,0
1,84,78,12
1,60,72,0
1,86,92,8
1,62,82,8
1,62,81,408
1,86,97,8
1,91,73,8
1,67,57,8
1,71,66,32
1,95,89,0
1,74,81,8
1,98,89,0
1,60,81,88
1,84,90,0
1,89,67,0
1,65,66,4
1,69,74,16
1,93,86,0
1,72,80,8
1,71,90,120
1,95,93,0
1,67,67,8
1,91,73,8
1,62,74,0
1,86,76,12
1,83,81,24
1,59,56,0
1,60,90,80
1,84,93,8
1,62,72,8
1,86,82,0
1,64,81,0
1,88,83,0
1,60,71,0
1,84,80,8
1,62,81,20
1,86,85,8
1,59,68,0
1,83,71,8
1,59,78,476
1,83,95,8
1,86,74,16
1,62,63,0
1,67,67,36
1,91,86,8
1,71,82,20
1,95,89,8
1,93,92,0
1,69,92,0
1,89,66,0
1,65,57,4
1,60,72,32
1,84,78,0
1,57,64,0
1,81,81,8
1,55,85,68
1,79,89,8
1,59,66,16
1,83,66,0
1,64,75,32
1,88,81,0
1,91,95,32
1,67,89,0
1,89,90,68
1,65,89,8
1,64,75,8
1,88,78,0
1,86,79,0
1,62,64,0
1,65,83,12
1,89,90,0
1,62,63,12
1,86,72,0
1,88,93,28
1,64,85,8
1,62,67,8
1,86,79,12
1,59,64,8
1,83,70,20
1,88,93,8
1,64,86,0
1,62,71,4
1,86,79,0
1,59,66,8
1,83,75,8
1,86,89,0
1,62,92,12
1,60,68,0
1,84,73,0
1,57,64,16
1,81,73,12
1,57,68,56
1,81,68,8
1,55,47,16
1,79,57,0
1,59,75,28
1,83,87,0
1,81,85,28
1,57,75,0
1,57,53,88
1,81,62,0
1,64,55,320
1,62,52,28
1,60,59,28
1,59,54,44
1,57,49,8
1,52,54,40
1,45,46,32
1,57,76,8
1,81,86,4
1,91,95,84
1,67,83,8
1,69,86,16
1,93,89,4
1,57,82,40
1,81,89,16
1,89,87,60
1,65,80,8
1,91,87,28
1,67,86,0
1,57,79,40
1,81,85,0
1,64,81,0
1,88,80,0
1,65,86,12
1,89,86,8
1,57,79,8
1,81,81,0
1,62,86,48
1,86,86,8
1,88,90,48
1,64,89,0
1,62,82,76
1,86,85,0
1,84,73,0
1,60,71,0
1,83,81,52
1,59,56,0
1,86,89,4
1,62,79,4
1,83,80,12
1,59,68,8
1,84,83,28
1,60,72,0
1,83,81,20
1,59,72,8
1,57,63,36
1,81,72,8
1,81,62,108
1,57,55,8
1,64,57,448
1,62,57,28
1,59,61,20
1,52,51,20
1,57,49,4
1,45,54,20
1,52,62,172
1,57,61,28
1,59,66,4
1,62,71,40
1,64,73,0
1,62,59,56
1,59,55,12
1,57,61,20
1,52,50,12
1,45,44,32
1,57,89,452
1,81,97,8
1,59,72,96
1,83,73,0
1,84,80,4
1,60,66,8
1,86,82,0
1,62,68,4
1,64,89,12
1,88,87,8
1,62,89,84
1,86,97,0
1,60,72,0
1,84,72,0
1,59,72,20
1,83,72,16
1,81,68,20
1,55,68,0
1,79,74,0
1,57,71,48
1,81,72,8
1,59,66,40
1,83,75,0
1,60,59,12
1,84,81,20
1,62,85,4
1,86,92,8
1,59,83,20
1,83,90,12
1,60,82,16
1,84,87,4
1,83,83,0
1,59,74,0
1,57,73,8
1,81,82,0
1,55,75,60
1,79,85,0
1,60,89,48
1,84,95,0
1,59,83,20
1,83,86,16
1,57,66,56
1,81,89,28
1,79,82,0
1,55,66,0
1,81,82,32
1,57,72,8
1,59,72,8
1,83,83,0
1,60,76,8
1,84,86,0
1,83,87,28
1,59,81,0
1,55,71,12
1,79,79,4
1,53,67,16
1,77,83,4
1,81,85,16
1,57,70,0
1,79,81,8
1,55,71,0
1,55,46,128
1,79,52,8
1,79,48,1120
1,65,52,204
1,79,55,0
1,67,51,0
1,79,47,452
1,79,55,216
1,79,67,4
1,62,57,0
1,77,72,4
1,65,62,0
1,67,54,0
1,72,62,0
1,69,64,0
1,79,71,184
1,79,63,684
1,67,80,4
1,62,78,0
1,76,74,0
1,69,81,8
1,79,79,0
1,79,71,28
1,65,80,8
1,77,81,4
1,60,71,0
1,71,76,0
1,79,79,4
1,79,76,12
1,79,68,100
1,64,79,4
1,74,81,4
1,67,78,0
1,79,85,0
1,59,74,0
1,79,72,8
1,62,74,8
1,79,89,0
1,69,86,0
1,76,82,0
1,57,72,0
1,79,79,60
1,60,79,376
1,65,86,0
1,74,82,0
1,71,76,0
1,65,64,0
1,74,82,4
1,62,82,0
1,67,87,0
1,67,43,100
1,67,55,84
1,55,75,8
1,62,75,4
1,74,76,4
1,69,75,0
1,62,57,16
1,62,74,0
1,60,71,4
1,67,67,0
1,69,71,36
1,50,66,8
1,65,66,4
1,60,53,8
1,69,64,12
1,67,61,4
1,62,66,0
1,55,63,4
1,67,62,128
1,60,56,4
1,57,61,0
1,64,58,0
1,67,61,0
1,57,54,16
1,60,56,0
1,53,62,0
1,67,61,32
1,65,71,4
1,55,64,0
1,60,62,0
1,55,61,104
1,60,62,0
1,65,71,0
1,55,66,136
1,60,55,8
1,65,62,0
1,67,63,0
1,48,55,4
1,57,57,4
1,41,47,4
1,62,57,0
1,67,58,0
1,50,61,4
1,55,58,0
1,62,57,4
1,60,55,0
1,43,52,0
1,50,64,0
1,62,59,8
1,43,57,0
1,60,56,0
1,55,57,4
1,62,59,88
1,67,61,20
1,48,54,4
1,41,55,4
1,62,64,4
1,57,61,0
1,67,56,20
1,55,64,0
1,50,66,4
1,62,64,4
1,60,58,0
1,43,56,0
1,50,64,96
1,62,63,8
1,43,58,0
1,55,58,8
1,60,62,0
1,62,59,100
1,67,61,12
1,48,53,228
1,41,51,4
1,62,61,0
1,57,55,4
1,67,56,20
1,50,54,8
1,55,55,8
1,43,50,0
1,62,53,0
1,60,46,4
1,50,51,8
1,62,52,8
1,55,51,0
1,60,49,0
1,43,43,0
1,50,59,136
1,55,54,256
1,60,43,148
1,62,55,136
1,67,49,56
1,72,45,124
1,74,52,124
1,81,61,68
1,74,61,92
1,50,52,4
1,43,50,4
1,67,51,0
1,81,64,4
1,52,55,64
1,76,56,8
1,45,49,0
1,74,53,0
1,71,54,0
1,52,50,12
1,45,42,4
1,71,44,4
1,76,50,0
1,74,50,0
1,74,47,268
1,52,45,4
1,76,47,0
1,45,42,0
1,71,40,0
1,45,47,208
1,52,45,152
1,55,55,28
1,59,46,124
1,62,45,0
1,64,46,8
1,59,33,492
1,57,31,12
1,52,29,8
1,76,49,1476
1,52,43,4
1,57,57,8
1,81,73,4
1,83,81,108
1,59,63,0
1,84,87,0
1,60,75,0
1,83,81,20
1,59,62,0
1,55,54,12
1,79,57,8
1,81,68,0
1,57,58,0
1,59,63,164
1,83,83,0
1,60,76,16
1,84,83,4
1,55,53,8
1,79,53,0
1,57,68,0
1,81,76,4
1,59,62,8
1,83,81,0
1,60,68,20
1,84,78,8
1,53,54,12
1,77,54,0
1,57,57,4
1,81,75,20
1,83,78,28
1,59,72,8
1,57,66,212
1,81,72,8
1,50,49,16
1,74,56,12
1,50,55,96
1,74,51,16
1,52,58,160
1,76,63,0
1,53,62,156
1,77,72,0
1,55,61,4
1,79,71,4
1,57,75,4
1,81,81,8
1,79,73,12
1,55,64,0
1,77,63,0
1,53,61,0
1,52,48,4
1,76,53,8
1,55,68,20
1,79,79,8
1,53,59,40
1,77,68,8
1,52,58,12
1,76,61,0
1,74,62,60
1,50,56,0
1,77,72,28
1,53,66,0
1,52,59,8
1,76,64,0
1,48,49,8
1,72,57,8
1,45,50,4
1,69,57,8
1,69,55,84
1,45,50,8
1,57,81,152
1,81,86,4
1,57,75,80
1,81,85,0
1,58,78,40
1,82,86,8
1,57,59,36
1,81,73,8
1,57,71,56
1,81,75,4
1,57,59,48
1,81,79,12
1,58,66,44
1,82,81,0
1,57,70,8
1,81,81,4
1,55,57,8
1,79,67,0
1,57,70,12
1,81,76,8
1,55,66,8
1,79,71,8
1,55,66,72
1,79,67,4
1,53,55,0
1,77,61,4
1,76,49,4
1,52,43,4
1,55,57,16
1,79,81,0
1,80,75,32
1,56,74,4
1,55,59,20
1,79,71,8
1,53,61,0
1,77,68,4
1,52,53,16
1,76,61,4
1,55,64,12
1,79,71,8
1,77,68,12
1,53,62,8
1,50,52,4
1,74,53,16
1,50,51,96
1,74,55,8
1,53,59,20
1,77,67,8
1,76,59,124
1,52,56,4
1,50,50,28
1,74,50,4
1,48,42,132
1,72,51,8
1,47,56,108
1,71,57,8
1,45,49,116
1,69,57,12
1,59,48,156
1,64,64,44
1,59,50,28
1,45,46,12
1,62,58,16
1,59,52,12
1,66,66,72
1,62,55,36
1,45,53,20
1,64,63,8
1,57,58,12
1,33,46,172
1,59,54,0
1,64,63,4
1,59,50,24
1,45,48,20
1,62,63,8
1,59,50,8
1,62,63,88
1,45,47,8
1,66,89,40
1,69,89,32
1,33,50,0
1,64,68,28
1,45,44,168
1,45,46,128
1,33,42,164
1,45,64,196
1,62,53,48
1,45,58,156
1,66,68,0
1,69,68,8
1,66,72,8
1,69,66,0
1,33,49,0
1,69,72,80
1,66,75,0
1,45,59,12
1,66,71,20
1,69,66,8
1,45,58,112
1,69,74,4
1,66,72,0
1,73,83,124
1,69,85,8
1,33,54,8
1,69,63,76
1,73,70,0
1,73,80,56
1,76,82,0
1,45,62,0
1,73,75,56
1,76,81,4
1,45,63,16
1,74,82,12
1,71,85,0
1,33,54,8
1,66,74,32
1,71,68,8
1,45,50,76
1,45,68,64
1,33,54,164
1,45,66,132
1,66,63,0
1,59,54,4
1,62,53,0
1,62,58,88
1,45,58,4
1,66,67,4
1,59,54,0
1,33,54,4
1,66,67,4
1,59,58,8
1,62,61,0
1,66,67,100
1,62,61,4
1,59,56,0
1,45,71,12
1,62,67,40
1,66,71,0
1,59,67,8
1,45,70,96
1,66,68,12
1,59,66,8
1,62,64,0
1,62,67,116
1,33,57,0
1,66,64,4
1,59,61,0
1,66,58,96
1,62,45,4
1,66,90,12
1,45,66,0
1,69,89,8
1,62,79,0
1,63,40,20
1,62,89,68
1,66,85,4
1,69,85,0
1,45,68,16
1,61,85,0
1,64,76,4
1,68,76,4
1,33,52,76
1,61,67,8
1,59,66,0
1,64,66,0
1,45,51,8
1,45,54,88
1,33,45,148
1,45,55,192
1,45,57,80
1,33,48,124
1,64,59,28
1,45,61,4
1,74,73,16
1,69,75,8
1,66,78,0
1,71,70,4
1,64,79,0
1,45,49,20
1,64,79,48
1,45,58,8
1,74,79,56
1,69,78,8
1,71,71,0
1,66,79,0
1,33,66,12
1,64,79,8
1,45,81,72
1,71,70,16
1,66,82,0
1,69,74,0
1,74,73,0
1,64,71,8
1,62,78,48
1,45,58,0
1,61,71,20
1,33,53,80
1,45,57,116
1,57,53,36
1,45,61,156
1,61,78,0
1,62,75,12
1,33,56,8
1,59,61,28
1,45,62,88
1,62,72,8
1,66,89,20
1,45,56,12
1,68,89,12
1,45,47,12
1,52,66,112
1,64,64,20
1,52,64,12
1,61,68,8
1,45,56,8
1,69,86,0
1,62,66,36
1,50,55,40
1,66,82,48
1,54,71,20
1,69,86,0
1,71,86,28
1,45,55,0
1,52,54,104
1,64,55,24
1,52,50,8
1,68,64,8
1,45,49,0
1,73,81,8
1,50,51,36
1,66,66,8
1,69,59,56
1,54,53,108
1,73,68,16
1,76,73,20
