track,note,velocity,time
1,79,89,1984
1,59,61,0
1,64,59,136
1,69,66,0
1,74,64,40
1,79,82,48
1,40,50,20
1,76,81,8
1,47,59,4
1,56,51,0
1,65,59,24
1,68,70,8
1,71,81,68
1,41,59,20
1,72,81,0
1,48,48,0
1,57,52,20
1,64,55,8
1,69,66,64
1,45,45,0
1,55,48,80
1,61,61,0
1,66,56,0
1,58,45,8
1,50,56,8
1,57,58,12
1,69,72,36
1,73,67,4
1,76,72,0
1,78,81,4
1,81,81,4
1,66,78,8
1,78,79,0
1,73,70,4
1,70,67,0
1,67,63,0
1,42,54,8
1,52,62,36
1,43,56,8
1,66,56,4
1,74,57,0
1,69,57,0
1,64,48,0
1,71,55,4
1,50,56,0
1,59,42,48
1,54,44,20
1,47,47,0
1,63,57,0
1,67,52,4
1,57,47,0
1,71,57,0
1,60,50,4
1,57,47,124
1,57,55,8
1,48,46,164
1,59,47,0
1,55,53,0
1,67,67,28
1,71,81,20
1,59,49,112
1,67,58,12
1,68,76,100
1,47,55,12
1,54,59,48
1,57,52,8
1,54,58,20
1,46,66,20
1,53,61,20
1,69,74,56
1,57,56,128
1,72,66,64
1,74,74,28
1,45,45,40
1,52,56,12
1,55,57,124
1,48,29,144
1,47,29,28
1,41,61,0
1,48,59,120
1,50,83,0
1,69,86,0
1,48,55,48
1,42,61,0
1,71,72,8
1,48,59,104
1,50,71,0
1,48,51,8
1,72,74,0
1,43,61,12
1,48,63,8
1,50,61,20
1,48,61,8
1,81,72,16
1,73,67,0
1,78,67,0
1,70,66,4
1,48,56,0
1,43,62,60
1,36,50,8
1,42,50,0
1,35,42,4
1,82,73,8
1,68,70,8
1,78,68,0
1,73,63,0
1,42,61,104
1,39,61,156
1,78,66,0
1,67,62,4
1,73,62,0
1,46,63,0
1,75,62,0
1,71,56,4
1,75,63,8
1,47,55,8
1,71,55,0
1,66,59,0
1,61,61,4
1,40,48,4
1,65,58,8
1,60,52,8
1,44,51,0
1,54,50,0
1,71,55,0
1,66,58,0
1,71,55,0
1,62,54,4
1,59,46,0
1,50,48,4
1,43,47,0
1,75,72,0
1,68,70,0
1,63,57,4
1,66,66,0
1,52,53,8
1,71,66,0
1,59,51,0
1,56,52,0
1,75,44,0
1,79,76,4
1,65,72,0
1,70,70,0
1,49,56,4
1,60,58,0
1,53,58,8
1,56,57,0
1,79,82,8
1,75,80,0
1,72,80,4
1,82,79,0
1,53,62,8
1,46,66,0
1,60,66,0
1,56,68,0
1,77,81,8
1,70,78,0
1,65,78,8
1,61,75,0
1,69,75,0
1,73,74,0
1,55,71,4
1,65,56,8
1,74,61,0
1,57,53,0
1,81,63,8
1,77,61,0
1,69,57,0
1,50,50,0
1,69,72,8
1,76,74,0
1,65,73,4
1,72,70,0
1,53,66,0
1,43,64,0
1,57,68,4
1,79,63,12
1,53,51,0
1,44,48,0
1,68,56,8
1,73,58,0
1,76,56,0
1,71,48,8
1,45,43,328
1,69,82,76
1,71,79,0
1,64,79,0
1,74,81,0
1,60,68,152
1,73,72,20
1,70,64,8
1,72,64,56
1,63,68,0
1,68,62,8
1,50,66,108
1,60,72,8
1,51,43,188
1,41,50,0
1,56,57,8
1,70,63,28
1,67,57,0
1,56,51,16
1,66,66,36
1,69,66,0
1,56,59,36
1,65,62,16
1,68,63,0
1,53,54,100
1,43,50,8
1,61,63,0
1,63,58,4
1,59,48,8
1,67,52,0
1,53,56,0
1,52,46,224
1,36,46,0
1,43,47,12
1,81,89,12
1,79,76,40
1,52,64,0
1,77,74,20
1,76,71,8
1,40,54,76
1,47,71,12
1,56,58,192
1,41,56,16
1,72,67,168
1,74,72,28
1,48,61,8
1,72,56,4
1,71,64,20
1,69,64,36
1,45,38,4
1,52,66,48
1,50,63,216
1,78,79,68
1,81,79,76
1,57,66,4
1,83,86,36
1,85,93,28
1,42,66,16
1,82,74,8
1,52,34,20
1,79,73,8
1,77,72,8
1,78,71,0
1,43,53,0
1,81,90,40
1,50,70,0
1,86,89,20
1,83,90,36
1,47,55,40
1,54,56,28
1,57,75,176
1,59,63,8
1,48,58,0
1,55,59,8
1,62,61,0
1,64,56,12
1,59,38,68
1,67,64,0
1,71,85,16
1,69,86,48
1,47,56,20
1,68,79,0
1,59,40,40
1,64,49,28
1,68,73,28
1,54,66,8
1,71,73,4
1,76,66,56
1,80,85,20
1,46,61,8
1,81,89,48
1,77,72,44
1,53,56,72
1,72,66,40
1,71,58,36
1,45,50,76
1,74,73,8
1,52,66,144
1,55,61,28
1,41,70,40
1,48,58,180
1,50,81,116
1,48,61,28
1,42,66,8
1,71,93,104
1,48,61,4
1,50,80,156
1,48,59,8
1,43,71,8
1,72,87,8
1,48,71,100
1,50,80,8
1,48,67,0
1,73,80,48
1,70,74,8
1,78,74,0
1,81,75,0
1,48,73,104
1,43,81,128
1,36,68,8
1,42,90,156
1,35,76,8
1,68,90,280
1,82,89,0
1,73,81,0
1,78,81,4
1,42,78,0
1,46,79,152
1,39,72,0
1,59,81,76
1,61,78,0
1,66,72,0
1,55,55,48
1,39,72,72
1,46,66,8
1,66,68,56
1,61,66,0
1,59,55,0
1,47,61,68
1,54,72,0
1,59,68,4
1,63,75,4
1,40,53,12
1,47,68,16
1,54,78,156
1,72,89,0
1,44,72,0
1,71,75,0
1,70,63,0
1,65,52,36
1,68,71,56
1,70,74,32
1,71,75,28
1,72,72,24
1,73,80,28
1,59,67,20
1,50,67,0
1,74,74,24
1,78,76,28
1,81,86,44
1,78,72,16
1,80,86,36
1,63,58,20
1,56,53,12
1,59,51,0
1,78,89,0
1,52,46,8
1,76,72,40
1,63,81,44
1,82,89,60
1,56,66,20
1,80,76,4
1,49,49,4
1,53,58,0
1,60,50,0
1,79,81,32
1,77,74,32
1,60,81,8
1,84,93,28
1,46,68,16
1,82,79,20
1,80,81,40
1,79,76,8
1,60,76,12
1,56,75,12
1,53,66,4
1,85,89,32
1,45,63,28
1,84,87,0
1,82,82,40
1,81,85,36
1,65,83,4
1,61,79,4
1,55,74,0
1,88,90,88
1,60,70,20
1,55,66,0
1,57,68,0
1,50,59,8
1,53,63,0
1,86,85,12
1,84,86,8
1,81,79,12
1,60,82,28
1,86,86,0
1,84,78,28
1,81,76,28
1,43,58,16
1,77,78,4
1,74,74,60
1,72,72,16
1,69,73,20
1,59,70,16
1,53,67,0
1,65,62,12
1,67,72,20
1,44,68,0
1,68,68,8
1,71,66,24
1,64,89,12
1,76,89,8
1,53,89,80
1,74,76,20
1,72,75,36
1,45,59,24
1,52,80,132
1,69,81,4
1,64,79,8
1,55,81,0
1,50,72,20
1,63,86,180
1,60,66,0
1,68,86,0
1,72,80,4
1,74,85,4
1,54,66,4
1,60,75,44
1,60,63,20
1,41,58,64
1,70,72,12
1,67,70,0
1,60,4,4
1,69,66,68
1,66,71,4
1,56,54,28
1,51,55,8
1,65,61,8
1,68,64,0
1,43,57,16
1,63,61,88
1,59,57,0
1,61,61,0
1,67,58,0
1,53,71,108
1,53,74,0
1,48,55,140
1,71,70,4
1,74,68,24
1,79,73,4
1,55,66,16
1,83,90,12
1,64,63,0
1,79,79,4
1,83,87,32
1,80,82,28
1,52,66,20
1,76,79,32
1,71,63,32
1,76,71,8
1,56,72,0
1,80,76,0
1,83,80,44
1,84,80,36
1,88,86,8
1,41,66,0
1,84,71,8
1,86,92,28
1,48,70,16
1,84,83,0
1,83,78,8
1,81,81,36
1,45,63,28
1,82,85,0
1,80,66,16
1,81,86,40
1,77,81,20
1,55,81,0
1,73,70,24
1,69,44,40
1,71,36,28
1,50,58,12
1,76,53,8
1,74,56,0
1,81,86,36
1,78,76,96
1,61,74,8
1,57,71,0
1,76,81,8
1,73,80,32
1,72,75,84
1,42,66,24
1,71,75,20
1,70,70,32
1,64,61,28
1,67,67,36
1,52,63,0
1,70,72,24
1,73,83,20
1,70,34,20
1,74,86,28
1,43,66,0
1,71,79,0
1,50,70,20
1,66,72,8
1,62,48,12
1,59,45,16
1,63,71,12
1,71,89,12
1,47,66,68
1,69,78,24
1,67,70,20
1,63,71,20
1,60,73,4
1,54,66,20
1,59,67,20
1,57,68,48
1,55,61,28
1,36,57,80
1,43,52,180
1,59,63,4
1,55,68,0
1,52,52,0
1,67,67,0
1,62,61,0
1,64,63,4
1,61,89,12
1,66,81,4
1,47,72,0
1,59,81,0
1,68,86,4
1,57,68,0
1,54,70,0
1,64,73,4
1,69,82,24
1,60,79,0
1,62,79,0
1,65,78,0
1,46,61,4
1,53,67,0
1,57,61,12
1,74,76,12
1,69,74,8
1,71,70,0
1,45,54,0
1,67,70,4
1,52,61,0
1,55,58,4
1,60,57,280
1,41,56,20
1,63,67,8
1,67,66,0
1,69,67,0
1,48,61,148
1,50,72,4
1,48,59,24
1,42,78,0
1,71,86,16
1,48,75,184
1,50,87,120
1,48,71,0
1,72,87,48
1,43,80,0
1,48,80,164
1,50,81,0
1,48,78,180
1,70,83,32
1,73,83,0
1,81,85,8
1,78,79,0
1,48,78,4
1,43,83,116
1,36,74,0
1,35,85,152
1,66,90,36
1,61,89,4
1,56,72,44
1,42,82,88
1,61,81,20
1,55,82,12
1,46,89,8
1,59,81,20
1,63,75,16
1,67,83,40
1,39,71,8
1,71,75,36
1,75,83,20
1,40,70,16
1,78,86,4
1,75,83,84
1,71,68,16
1,47,78,88
1,66,64,0
1,75,83,36
1,66,61,96
1,44,66,12
1,70,70,12
1,75,86,28
1,70,61,28
1,71,75,48
1,54,78,0
1,75,68,8
1,78,73,0
1,43,76,12
1,83,93,4
1,78,92,112
1,74,89,4
1,71,86,0
1,59,75,4
1,50,72,0
1,54,86,12
1,40,73,8
1,47,82,0
1,63,82,0
1,59,80,0
1,66,82,0
1,60,85,32
1,79,89,0
1,70,87,4
1,65,92,4
1,75,86,0
1,49,67,0
1,56,79,0
1,53,71,4
1,48,86,8
1,36,82,8
1,46,92,8
1,34,75,0
1,82,12,104
1,75,89,52
1,72,89,8
1,79,85,0
1,67,86,136
1,56,85,8
1,62,78,4
1,72,67,132
1,75,72,0
1,45,82,16
1,33,75,0
1,73,87,72
1,77,81,8
1,81,85,0
1,65,87,172
1,61,81,4
1,55,82,4
1,69,64,48
1,74,82,60
1,79,86,8
1,76,82,0
1,38,80,64
1,45,85,12
1,53,72,20
1,69,72,0
1,43,66,12
1,77,86,0
1,41,67,4
1,76,64,60
1,75,78,12
1,74,73,0
1,59,78,28
1,77,86,0
1,53,73,4
1,80,76,0
1,82,74,64
1,83,81,32
1,86,74,40
1,53,93,8
1,44,89,0
1,91,99,0
1,83,95,4
1,86,61,8
1,88,81,60
1,45,81,20
1,86,97,16
1,52,86,100
1,55,95,12
1,64,89,8
1,74,85,0
1,71,81,0
1,60,89,144
1,63,95,0
1,72,86,0
1,68,85,4
1,54,86,4
1,60,79,16
1,70,74,8
1,67,70,0
1,41,66,0
1,66,72,72
1,69,68,0
1,51,55,16
1,56,51,0
1,68,66,4
1,65,58,8
1,43,67,0
1,61,74,76
1,59,62,0
1,63,67,0
1,67,61,4
1,53,86,0
1,53,89,124
1,74,61,0
1,79,72,12
1,36,64,56
1,83,95,20
1,79,71,0
1,83,95,32
1,43,63,8
1,79,85,36
1,74,81,16
1,72,80,40
1,76,92,76
1,40,64,8
1,72,86,28
1,68,73,36
1,65,81,28
1,47,72,0
1,62,64,8
1,64,63,4
1,62,66,32
1,41,47,16
1,60,68,20
1,48,66,0
1,45,76,16
1,61,86,168
1,59,81,8
1,69,81,0
1,66,79,0
1,55,86,4
1,53,14,0
1,78,92,116
1,38,81,8
1,81,93,32
1,78,85,20
1,81,86,20
1,78,86,0
1,45,75,8
1,73,72,28
1,71,56,48
1,42,72,20
1,78,89,20
1,71,4,48
1,73,86,28
1,70,80,80
1,67,72,36
1,58,75,8
1,52,71,0
1,64,72,48
1,66,61,76
1,43,62,0
1,64,73,16
1,62,74,28
1,50,83,48
1,47,79,8
1,63,86,176
1,67,83,0
1,60,82,0
1,57,64,8
1,54,66,0
1,71,82,0
1,54,80,96
1,57,85,0
1,48,78,8
1,64,73,176
1,55,66,8
1,71,86,8
1,62,49,4
1,74,68,8
1,79,71,20
1,55,71,8
1,64,63,8
1,83,99,8
1,80,90,48
1,47,67,4
1,78,86,44
1,76,71,36
1,69,78,60
1,68,86,40
1,57,82,16
1,54,76,0
1,64,63,28
1,66,75,20
1,67,75,16
1,46,72,4
1,72,83,36
1,67,81,76
1,69,79,48
1,53,70,40
1,57,66,24
1,45,79,4
1,52,74,280
1,55,75,0
1,64,89,4
1,69,89,0
1,71,86,0
1,74,89,0
1,41,76,12
1,69,89,172
1,63,89,8
1,67,72,0
1,62,48,28
1,51,72,16
1,57,68,0
1,63,68,0
1,69,79,40
1,60,70,4
1,42,67,0
1,62,74,4
1,63,79,36
1,65,66,40
1,66,74,48
1,51,80,8
1,69,72,76
1,74,81,16
1,72,92,32
1,43,70,8
1,71,85,4
1,69,72,48
1,67,78,20
1,48,81,4
1,58,82,4
1,67,80,96
1,70,89,4
1,81,90,0
1,64,81,8
1,73,87,0
1,78,86,0
1,43,89,0
1,36,83,0
1,42,95,108
1,35,79,0
1,82,93,232
1,68,93,8
1,73,87,0
1,78,86,0
1,46,90,8
1,39,85,0
1,55,90,12
1,59,83,0
1,61,90,0
1,66,90,0
1,39,75,76
1,46,67,12
1,66,86,4
1,78,82,0
1,71,81,0
1,73,80,0
1,75,78,0
1,47,95,160
1,40,86,4
1,75,83,0
1,61,92,8
1,66,89,0
1,71,82,4
1,54,81,8
1,44,75,8
1,65,92,176
1,60,90,8
1,71,86,0
1,66,86,0
1,54,83,36
1,44,85,0
1,50,78,12
1,71,71,0
1,43,67,8
1,49,81,8
1,42,79,0
1,48,78,8
1,41,76,4
1,47,86,20
1,66,89,4
1,75,86,0
1,40,76,0
1,71,85,0
1,46,86,0
1,39,79,4
1,45,82,12
1,38,66,0
1,44,81,20
1,37,75,8
1,75,86,8
1,70,86,0
1,79,82,0
1,43,78,12
1,36,61,0
1,42,89,96
1,35,76,0
1,41,83,16
1,82,89,0
1,74,82,0
1,77,83,0
1,72,86,4
1,34,81,0
1,79,82,0
1,45,54,4
1,73,86,104
1,77,86,4
1,69,85,0
1,55,85,0
1,50,67,4
1,69,86,8
1,60,66,0
1,74,82,0
1,81,82,8
1,77,80,0
1,79,79,0
1,57,66,4
1,53,56,0
1,55,52,4
1,60,85,24
1,79,89,128
1,43,58,24
1,76,79,28
1,71,66,0
1,53,71,36
1,59,64,16
1,77,78,0
1,75,70,8
1,44,66,0
1,71,66,0
1,79,73,8
1,76,68,20
1,53,72,24
1,53,67,144
1,74,73,8
1,77,68,8
1,52,56,56
1,45,56,16
1,71,82,116
1,64,85,0
1,74,81,0
1,55,82,0
1,73,72,0
1,69,68,4
1,50,47,20
1,68,70,68
1,63,71,0
1,72,66,4
1,60,85,8
1,54,83,0
1,60,85,128
1,41,66,96
1,70,70,68
1,67,67,8
1,69,71,84
1,66,66,0
1,51,58,12
1,65,63,0
1,68,64,8
1,43,54,20
1,61,64,8
1,63,64,0
1,67,62,0
1,53,48,0
1,59,54,8
1,53,86,136
1,71,66,144
1,79,74,36
1,36,64,0
1,81,85,20
1,79,89,8
1,43,61,48
1,52,71,4
1,77,66,16
1,79,61,4
1,40,57,0
1,76,74,20
1,47,72,48
1,68,76,16
1,65,78,0
1,73,74,4
1,56,66,0
1,76,72,0
1,71,53,4
1,41,57,116
1,48,47,52
1,67,72,8
1,69,72,0
1,72,72,0
1,64,70,4
1,57,68,8
1,45,49,8
1,69,61,0
1,61,59,4
1,58,56,0
1,66,53,8
1,55,51,8
1,64,44,4
1,76,72,252
1,38,68,20
1,81,82,8
1,83,87,8
1,81,86,20
1,54,81,68
1,79,81,152
1,42,72,28
1,78,86,12
1,52,81,0
1,73,80,8
1,58,92,4
1,76,79,0
1,67,80,0
1,70,80,0
1,43,58,136
1,50,57,68
1,74,71,20
1,71,68,12
1,69,61,0
