track,note,velocity,time
1,62,84,1344
1,72,72,2
1,74,110,2
1,62,90,2
1,70,69,2
1,72,113,2
1,72,116,2
1,62,84,1346
1,74,110,10
1,76,81,504
1,77,110,498
1,72,98,10
1,70,78,2
1,67,110,2
1,62,78,1730
1,74,110,2
1,76,107,2
1,76,72,2
1,77,119,2
1,72,98,2
1,70,81,2
1,67,110,2
1,70,64,2
1,70,104,2
1,69,69,2
1,65,110,2
1,69,101,2
1,67,95,2
1,65,78,2
1,62,110,2
1,62,81,1346
1,72,69,2
1,74,113,2
1,62,69,2
1,72,95,2
1,72,107,2
1,62,66,1346
1,74,110,2
1,76,98,2
1,76,72,2
1,77,110,2
1,70,81,2
1,72,110,2
1,70,75,2
1,67,110,2
1,62,72,1730
1,74,104,2
1,76,87,2
1,77,95,2
1,72,107,2
1,70,84,2
1,67,69,2
1,70,58,2
1,67,107,2
1,70,87,2
1,70,101,2
1,69,78,2
1,65,107,2
1,62,87,2
1,65,75,2
1,69,107,2
1,67,98,2
1,65,72,2
1,64,110,2
1,62,90,2
1,67,110,2
1,65,87,2
1,65,72,2
1,67,69,2
1,62,113,2
1,64,69,2
1,65,98,2
1,74,110,314
1,70,107,0
1,69,69,20
1,70,93,190
1,69,110,300
1,71,64,2
1,72,83,2
1,73,102,2
1,74,122,2
1,76,95,152
1,77,119,22
1,79,93,68
1,81,113,74
1,79,93,154
1,77,113,140
1,74,84,86
1,76,107,192
1,77,107,256
1,74,116,0
1,62,84,50
1,72,72,2
1,74,110,2
1,62,90,2
1,70,69,2
1,72,113,2
1,72,116,2
1,62,84,1346
1,74,110,10
1,76,81,504
1,77,110,498
1,72,98,10
1,70,78,2
1,67,110,2
1,62,78,1730
1,74,110,2
1,76,107,2
1,76,72,2
1,77,119,2
1,72,98,2
1,70,81,2
1,67,110,2
1,70,64,2
1,70,104,2
1,69,69,2
1,65,110,2
1,69,101,2
1,67,95,2
1,65,78,2
1,62,110,2
1,65,72,482
1,67,69,2
1,62,113,2
1,64,69,2
1,65,98,2
1,74,110,314
1,70,107,0
1,69,69,20
1,70,93,190
1,69,110,300
1,74,122,2
1,76,90,152
1,77,79,22
1,79,51,68
1,81,47,74
1,79,43,154
1,77,40,140
1,74,22,86
1,76,17,192
1,77,11,256
2,74,98,96
2,69,98,0
2,65,98,0
2,74,81,96
2,69,81,0
2,65,81,0
2,74,93,90
2,69,93,0
2,65,93,0
2,74,107,90
2,69,107,0
2,65,107,0
2,74,90,282
2,69,90,0
2,65,90,0
2,65,69,90
2,69,69,0
2,74,69,0
2,65,110,90
2,69,110,0
2,74,110,0
2,65,84,186
2,69,84,0
2,74,84,0
2,65,113,90
2,69,113,0
2,74,113,0
2,65,98,282
2,69,98,0
2,74,98,0
2,65,72,186
2,69,72,0
2,74,72,0
2,65,93,90
2,69,93,0
2,74,93,0
2,65,113,186
2,69,113,0
2,74,113,0
2,65,90,282
2,69,90,0
2,74,90,0
2,65,110,90
2,69,110,0
2,74,110,0
2,65,110,282
2,69,110,0
2,74,110,0
2,65,93,378
2,69,93,0
2,74,93,0
2,65,81,90
2,70,81,0
2,74,81,0
2,65,93,90
2,70,93,0
2,74,93,0
2,65,107,90
2,70,107,0
2,74,107,0
2,65,110,186
2,70,110,0
2,74,110,0
2,65,93,282
2,70,93,0
2,74,93,0
2,65,78,90
2,70,78,0
2,74,78,0
2,65,110,90
2,70,110,0
2,74,110,0
2,65,98,186
2,70,98,0
2,74,98,0
2,65,110,90
2,70,110,0
2,74,110,0
2,65,81,282
2,70,81,0
2,74,81,0
2,65,98,90
2,70,98,0
2,74,98,0
2,65,87,186
2,70,87,0
2,74,87,0
2,65,95,90
2,70,95,0
2,74,95,0
2,65,107,90
2,70,107,0
2,74,107,0
2,65,87,282
2,70,87,0
2,74,87,0
2,65,101,90
2,70,101,0
2,74,101,0
2,65,101,378
2,70,101,0
2,74,101,0
2,65,93,282
2,70,93,0
2,74,93,0
2,74,98,90
2,69,98,0
2,65,98,0
2,74,81,96
2,69,81,0
2,65,81,0
2,74,93,90
2,69,93,0
2,65,93,0
2,74,107,90
2,69,107,0
2,65,107,0
2,74,90,282
2,69,90,0
2,65,90,0
2,65,69,90
2,69,69,0
2,74,69,0
2,65,110,90
2,69,110,0
2,74,110,0
2,65,84,186
2,69,84,0
2,74,84,0
2,65,113,90
2,69,113,0
2,74,113,0
2,65,98,282
2,69,98,0
2,74,98,0
2,65,72,186
2,69,72,0
2,74,72,0
2,65,93,90
2,69,93,0
2,74,93,0
2,65,113,186
2,69,113,0
2,74,113,0
2,65,90,282
2,69,90,0
2,74,90,0
2,65,110,90
2,69,110,0
2,74,110,0
2,65,110,282
2,69,110,0
2,74,110,0
2,65,93,378
2,69,93,0
2,74,93,0
2,65,81,90
2,70,81,0
2,74,81,0
2,65,93,90
2,70,93,0
2,74,93,0
2,65,107,90
2,70,107,0
2,74,107,0
2,65,110,186
2,70,110,0
2,74,110,0
2,65,93,282
2,70,93,0
2,74,93,0
2,65,78,90
2,70,78,0
2,74,78,0
2,65,110,90
2,70,110,0
2,74,110,0
2,65,98,186
2,70,98,0
2,74,98,0
2,65,110,90
2,70,110,0
2,74,110,0
2,65,81,282
2,70,81,0
2,74,81,0
2,65,98,90
2,70,98,0
2,74,98,0
2,65,87,186
2,70,87,0
2,74,87,0
2,65,95,90
2,70,95,0
2,74,95,0
2,65,107,90
2,70,107,0
2,74,107,0
2,65,87,282
2,70,87,0
2,74,87,0
2,65,101,90
2,70,101,0
2,74,101,0
2,65,101,378
2,70,101,0
2,74,101,0
2,65,93,282
2,70,93,0
2,74,93,0
2,74,98,90
2,69,98,0
2,65,98,0
2,74,81,96
2,69,81,0
2,65,81,0
2,74,93,90
2,69,93,0
2,65,93,0
2,74,107,90
2,69,107,0
2,65,107,0
2,74,90,282
2,69,90,0
2,65,90,0
2,65,69,90
2,69,69,0
2,74,69,0
2,65,110,90
2,69,110,0
2,74,110,0
2,65,84,186
2,69,84,0
2,74,84,0
2,65,113,90
2,69,113,0
2,74,113,0
2,65,98,282
2,69,98,0
2,74,98,0
2,65,72,186
2,69,72,0
2,74,72,0
2,65,93,90
2,69,93,0
2,74,93,0
2,65,113,186
2,69,113,0
2,74,113,0
2,65,90,282
2,69,90,0
2,74,90,0
2,65,110,90
2,69,110,0
2,74,110,0
2,65,110,282
2,69,110,0
2,74,110,0
2,65,93,378
2,69,93,0
2,74,93,0
2,65,81,90
2,70,81,0
2,74,81,0
2,65,93,90
2,70,93,0
2,74,93,0
2,65,107,90
2,70,107,0
2,74,107,0
2,65,110,186
2,70,110,0
2,74,110,0
2,65,93,282
2,70,93,0
2,74,93,0
2,65,78,90
2,70,78,0
2,74,78,0
2,65,110,90
2,70,110,0
2,74,110,0
2,65,98,186
2,70,98,0
2,74,98,0
2,65,110,90
2,70,110,0
2,74,110,0
2,65,81,282
2,70,81,0
2,74,81,0
2,65,98,90
2,70,98,0
2,74,98,0
2,65,87,186
2,70,87,0
2,74,87,0
2,65,95,90
2,70,95,0
2,74,95,0
2,65,107,90
2,70,107,0
2,74,107,0
2,65,87,282
2,70,87,0
2,74,87,0
2,65,101,90
2,70,101,0
2,74,101,0
2,65,101,378
2,70,101,0
2,74,101,0
2,65,93,282
2,70,93,0
2,74,93,0
2,74,98,90
2,69,98,0
2,65,98,0
2,74,81,96
2,69,81,0
2,65,81,0
2,74,93,90
2,69,93,0
2,65,93,0
2,74,107,90
2,69,107,0
2,65,107,0
2,74,90,282
2,69,90,0
2,65,90,0
2,65,69,90
2,69,69,0
2,74,69,0
2,65,110,90
2,69,110,0
2,74,110,0
2,65,84,186
2,69,84,0
2,74,84,0
2,65,113,90
2,69,113,0
2,74,113,0
2,65,98,282
2,69,98,0
2,74,98,0
2,65,72,186
2,69,72,0
2,74,72,0
2,65,93,90
2,69,93,0
2,74,93,0
2,65,113,186
2,69,113,0
2,74,113,0
2,65,90,282
2,69,90,0
2,74,90,0
2,65,110,90
2,69,110,0
2,74,110,0
2,65,110,282
2,69,110,0
2,74,110,0
2,65,93,378
2,69,93,0
2,74,93,0
2,65,81,90
2,70,81,0
2,74,81,0
2,65,93,90
2,70,93,0
2,74,93,0
2,65,107,90
2,70,107,0
2,74,107,0
2,65,110,186
2,70,110,0
2,74,110,0
2,65,93,282
2,70,93,0
2,74,93,0
2,65,78,90
2,70,78,0
2,74,78,0
2,65,110,90
2,70,110,0
2,74,110,0
2,65,98,186
2,70,98,0
2,74,98,0
2,65,110,90
2,70,110,0
2,74,110,0
2,65,81,282
2,70,81,0
2,74,81,0
2,65,98,90
2,70,98,0
2,74,98,0
2,65,87,186
2,70,87,0
2,74,87,0
2,65,95,90
2,70,95,0
2,74,95,0
2,65,107,90
2,70,107,0
2,74,107,0
2,65,87,282
2,70,87,0
2,74,87,0
2,65,101,90
2,70,101,0
2,74,101,0
2,65,101,378
2,70,101,0
2,74,101,0
2,65,93,282
2,70,93,0
2,74,93,0
2,74,98,90
2,69,98,0
2,65,98,0
2,74,81,96
2,69,81,0
2,65,81,0
2,74,93,90
2,69,93,0
2,65,93,0
2,74,107,90
2,69,107,0
2,65,107,0
2,74,90,282
2,69,90,0
2,65,90,0
2,65,69,90
2,69,69,0
2,74,69,0
2,65,110,90
2,69,110,0
2,74,110,0
2,65,84,186
2,69,84,0
2,74,84,0
2,65,113,90
2,69,113,0
2,74,113,0
2,65,98,282
2,69,98,0
2,74,98,0
2,65,72,186
2,69,72,0
2,74,72,0
2,65,93,90
2,69,93,0
2,74,93,0
2,65,113,186
2,69,113,0
2,74,113,0
2,65,90,282
2,69,90,0
2,74,90,0
2,65,110,90
2,69,110,0
2,74,110,0
2,65,110,282
2,69,110,0
2,74,110,0
2,65,93,378
2,69,93,0
2,74,93,0
2,65,81,90
2,70,81,0
2,74,81,0
2,65,93,90
2,70,93,0
2,74,93,0
2,65,107,90
2,70,107,0
2,74,107,0
2,65,110,186
2,70,110,0
2,74,110,0
2,65,93,282
2,70,93,0
2,74,93,0
2,65,78,90
2,70,78,0
2,74,78,0
2,65,110,90
2,70,110,0
2,74,110,0
2,65,98,186
2,70,98,0
2,74,98,0
2,65,110,90
2,70,110,0
2,74,110,0
2,65,81,282
2,70,81,0
2,74,81,0
2,65,98,90
2,70,98,0
2,74,98,0
2,65,87,186
2,70,87,0
2,74,87,0
2,65,95,90
2,70,95,0
2,74,95,0
2,65,107,90
2,70,107,0
2,74,107,0
2,65,87,282
2,70,87,0
2,74,87,0
2,65,101,90
2,70,101,0
2,74,101,0
2,65,101,378
2,70,101,0
2,74,101,0
2,65,93,282
2,70,93,0
2,74,93,0
2,74,98,90
2,69,98,0
2,65,98,0
2,74,81,96
2,69,81,0
2,65,81,0
2,74,93,90
2,69,93,0
2,65,93,0
2,74,107,90
2,69,107,0
2,65,107,0
2,74,90,282
2,69,90,0
2,65,90,0
2,65,69,90
2,69,69,0
2,74,69,0
2,65,110,90
2,69,110,0
2,74,110,0
2,65,84,186
2,69,84,0
2,74,84,0
2,65,113,90
2,69,113,0
2,74,113,0
2,65,98,282
2,69,98,0
2,74,98,0
2,65,72,186
2,69,72,0
2,74,72,0
2,65,93,90
2,69,93,0
2,74,93,0
2,65,113,186
2,69,113,0
2,74,113,0
2,65,90,282
2,69,90,0
2,74,90,0
2,65,110,90
2,69,110,0
2,74,110,0
2,65,110,282
2,69,110,0
2,74,110,0
2,65,93,378
2,69,93,0
2,74,93,0
2,65,81,90
2,70,81,0
2,74,81,0
2,65,93,90
2,70,93,0
2,74,93,0
2,65,107,90
2,70,107,0
2,74,107,0
2,65,110,186
2,70,110,0
2,74,110,0
2,65,93,282
2,70,93,0
2,74,93,0
2,65,78,90
2,70,78,0
2,74,78,0
2,65,110,90
2,70,110,0
2,74,110,0
2,65,98,186
2,70,98,0
2,74,98,0
2,65,110,90
2,70,110,0
2,74,110,0
2,65,81,282
2,70,81,0
2,74,81,0
2,65,98,90
2,70,98,0
2,74,98,0
2,65,87,186
2,70,87,0
2,74,87,0
2,65,95,90
2,70,95,0
2,74,95,0
2,65,107,90
2,70,107,0
2,74,107,0
2,65,87,282
2,70,87,0
2,74,87,0
2,65,101,90
2,70,101,0
2,74,101,0
2,65,101,378
2,70,101,0
2,74,101,0
2,65,93,282
2,70,93,0
2,74,93,0
2,74,98,90
2,69,98,0
2,65,98,0
2,74,81,96
2,69,81,0
2,65,81,0
2,74,93,90
2,69,93,0
2,65,93,0
2,74,107,90
2,69,107,0
2,65,107,0
2,74,90,282
2,69,90,0
2,65,90,0
2,65,69,90
2,69,69,0
2,74,69,0
2,65,110,90
2,69,110,0
2,74,110,0
2,65,84,186
2,69,84,0
2,74,84,0
2,65,113,90
2,69,113,0
2,74,113,0
2,65,98,282
2,69,98,0
2,74,98,0
2,65,72,186
2,69,72,0
2,74,72,0
2,65,93,90
2,69,93,0
2,74,93,0
2,65,113,186
2,69,113,0
2,74,113,0
2,65,90,282
2,69,90,0
2,74,90,0
2,65,110,90
2,69,110,0
2,74,110,0
2,65,110,282
2,69,110,0
2,74,110,0
2,65,93,378
2,69,93,0
2,74,93,0
2,65,81,90
2,70,81,0
2,74,81,0
2,65,93,90
2,70,93,0
2,74,93,0
2,65,107,90
2,70,107,0
2,74,107,0
2,65,110,186
2,70,110,0
2,74,110,0
2,65,93,282
2,70,93,0
2,74,93,0
2,65,78,90
2,70,78,0
2,74,78,0
2,65,110,90
2,70,110,0
2,74,110,0
2,65,98,186
2,70,98,0
2,74,98,0
2,65,110,90
2,70,110,0
2,74,110,0
2,65,81,282
2,70,81,0
2,74,81,0
2,65,98,90
2,70,98,0
2,74,98,0
2,65,87,186
2,70,87,0
2,74,87,0
2,65,95,90
2,70,95,0
2,74,95,0
2,65,107,90
2,70,107,0
2,74,107,0
2,65,87,282
2,70,87,0
2,74,87,0
2,65,101,90
2,70,101,0
2,74,101,0
2,65,101,378
2,70,101,0
2,74,101,0
2,65,93,282
2,70,93,0
2,74,93,0
2,74,98,90
2,69,98,0
2,65,98,0
2,74,81,96
2,69,81,0
2,65,81,0
2,74,93,90
2,69,93,0
2,65,93,0
2,74,107,90
2,69,107,0
2,65,107,0
2,74,90,282
2,69,90,0
2,65,90,0
2,65,69,90
2,69,69,0
2,74,69,0
2,65,110,90
2,69,110,0
2,74,110,0
2,65,84,186
2,69,84,0
2,74,84,0
2,65,113,90
2,69,113,0
2,74,113,0
2,65,98,282
2,69,98,0
2,74,98,0
2,65,72,186
2,69,72,0
2,74,72,0
2,65,93,90
2,69,93,0
2,74,93,0
2,65,113,186
2,69,113,0
2,74,113,0
2,65,90,282
2,69,90,0
2,74,90,0
2,65,110,90
2,69,110,0
2,74,110,0
2,65,110,282
2,69,110,0
2,74,110,0
2,65,93,378
2,69,93,0
2,74,93,0
2,65,81,90
2,70,81,0
2,74,81,0
2,65,93,90
2,70,93,0
2,74,93,0
2,65,107,90
2,70,107,0
2,74,107,0
2,65,110,186
2,70,110,0
2,74,110,0
2,65,93,282
2,70,93,0
2,74,93,0
2,65,78,90
2,70,78,0
2,74,78,0
2,65,110,90
2,70,110,0
2,74,110,0
2,65,98,186
2,70,98,0
2,74,98,0
2,65,110,90
2,70,110,0
2,74,110,0
2,65,81,282
2,70,81,0
2,74,81,0
2,65,98,90
2,70,98,0
2,74,98,0
2,65,87,186
2,70,87,0
2,74,87,0
2,65,95,90
2,70,95,0
2,74,95,0
2,65,107,90
2,70,107,0
2,74,107,0
2,65,87,282
2,70,87,0
2,74,87,0
2,65,101,90
2,70,101,0
2,74,101,0
2,65,101,378
2,70,101,0
2,74,101,0
2,65,93,282
2,70,93,0
2,74,93,0
2,74,98,90
2,69,98,0
2,65,98,0
2,74,81,96
2,69,81,0
2,65,81,0
2,74,93,90
2,69,93,0
2,65,93,0
2,74,107,90
2,69,107,0
2,65,107,0
2,74,90,282
2,69,90,0
2,65,90,0
2,65,69,90
2,69,69,0
2,74,69,0
2,65,110,90
