track,note,velocity,time
1,57,73,1912
1,81,79,8
1,86,82,144
1,62,72,8
1,91,87,152
1,67,80,4
1,90,81,192
1,66,72,0
1,64,62,0
1,88,70,4
1,62,66,0
1,86,74,0
1,88,86,100
1,64,76,0
1,64,71,280
1,88,83,8
1,59,54,16
1,83,66,12
1,85,63,20
1,61,61,0
1,64,85,8
1,88,87,8
1,57,57,0
1,81,58,20
1,83,70,4
1,59,58,0
1,86,85,0
1,62,78,8
1,55,82,20
1,79,86,8
1,67,75,8
1,91,87,8
1,90,86,132
1,66,78,4
1,59,57,96
1,83,61,0
1,86,85,12
1,62,78,0
1,88,87,8
1,64,86,0
1,86,82,8
1,62,79,0
1,62,74,96
1,86,79,0
1,85,73,0
1,61,68,8
1,81,75,8
1,57,66,4
1,59,58,24
1,83,66,12
1,86,72,12
1,62,68,0
1,88,90,44
1,64,85,0
1,62,59,52
1,86,64,0
1,85,73,0
1,61,57,4
1,81,82,0
1,57,66,8
1,61,57,28
1,85,74,16
1,83,73,4
1,59,61,4
1,79,81,32
1,55,75,0
1,81,86,28
1,57,79,0
1,93,68,240
1,45,54,8
1,62,57,4
1,69,58,0
1,78,74,0
1,61,61,4
1,66,57,0
1,38,71,4
1,81,72,16
1,81,82,0
1,67,58,8
1,59,52,0
1,60,55,0
1,64,50,0
1,83,86,12
1,38,67,108
1,83,70,224
1,57,45,16
1,58,48,0
1,62,46,4
1,65,50,0
1,76,71,0
1,38,67,16
1,79,64,32
1,76,72,16
1,79,89,0
1,54,53,8
1,62,54,8
1,59,54,0
1,55,56,0
1,81,76,12
1,74,74,0
1,38,73,28
1,57,51,132
1,60,48,0
1,53,53,4
1,52,46,0
1,38,72,0
1,74,74,8
1,77,63,36
1,74,73,4
1,77,72,0
1,55,64,12
1,58,72,8
1,50,67,8
1,51,66,0
1,79,85,4
1,79,82,0
1,38,76,4
1,78,72,20
1,79,76,40
1,82,89,20
1,45,79,0
1,73,86,0
1,81,85,48
1,72,81,0
1,72,86,4
1,50,72,0
1,77,86,8
1,38,61,0
1,69,82,28
1,74,82,8
1,50,76,8
1,67,68,4
1,59,64,0
1,60,68,4
1,38,57,0
1,64,63,0
1,50,63,8
1,38,63,4
1,62,81,0
1,69,81,4
1,66,79,0
1,61,82,4
1,50,67,84
1,50,66,4
1,50,76,0
1,70,78,48
1,63,79,0
1,38,63,0
1,67,72,0
1,62,75,4
1,50,59,0
1,38,57,16
1,72,80,0
1,64,81,4
1,65,78,0
1,69,75,0
1,50,72,72
1,50,62,108
1,50,74,16
1,38,63,16
1,74,81,0
1,67,80,4
1,66,81,4
1,71,75,0
1,50,63,128
1,38,62,8
1,73,78,0
1,68,81,0
1,69,81,4
1,76,81,0
1,50,78,16
1,68,70,156
1,69,67,60
1,73,70,56
1,76,76,0
1,70,89,8
1,77,86,0
1,38,68,8
1,50,66,120
1,69,71,4
1,74,71,4
1,38,68,8
1,79,86,4
1,72,87,0
1,71,71,176
1,76,73,8
1,50,66,0
1,83,70,232
1,81,79,44
1,77,81,28
1,78,89,20
1,69,78,0
1,61,72,0
1,62,68,4
1,66,72,4
1,38,74,8
1,81,73,0
1,81,79,8
1,67,56,4
1,64,58,8
1,60,57,0
1,59,54,0
1,83,86,12
1,67,70,116
1,38,74,20
1,81,62,76
1,79,66,52
1,78,71,24
1,77,78,20
1,76,86,8
1,58,67,4
1,57,66,4
1,65,74,4
1,62,66,0
1,38,72,8
1,79,71,12
1,76,74,16
1,79,85,0
1,62,63,8
1,54,59,0
1,55,66,0
1,59,61,8
1,81,89,4
1,78,71,20
1,76,72,32
1,74,74,48
1,38,81,8
1,60,56,88
1,52,56,8
1,53,57,0
1,57,57,0
1,38,76,0
1,74,62,116
1,77,72,12
1,74,72,12
1,77,81,0
1,51,61,20
1,50,72,0
1,58,79,0
1,55,72,0
1,79,85,20
1,79,85,68
1,38,81,8
1,78,67,28
1,79,79,40
1,45,72,12
1,82,81,0
1,73,72,12
1,82,85,8
1,73,83,0
1,72,75,56
1,81,75,0
1,77,83,0
1,72,75,4
1,38,66,0
1,74,85,12
1,69,82,8
1,50,70,100
1,50,87,108
1,64,76,8
1,67,81,8
1,59,80,0
1,60,75,0
1,38,62,96
1,38,70,0
1,62,86,8
1,61,86,0
1,66,85,0
1,69,86,4
1,38,92,268
1,38,51,36
1,38,55,96
1,63,74,48
1,62,72,8
1,38,72,0
1,70,72,0
1,67,68,4
1,38,59,108
1,38,62,56
1,64,86,4
1,38,78,4
1,72,81,0
1,65,81,0
1,69,78,4
1,38,61,92
1,38,89,100
1,38,47,12
1,38,72,68
1,38,89,24
1,66,92,8
1,74,85,0
1,38,61,80
1,38,59,48
1,67,62,0
1,71,61,0
1,38,72,96
1,68,86,8
1,76,74,8
1,38,82,8
1,68,93,0
1,76,86,0
1,38,59,0
1,69,66,16
1,73,62,0
1,38,70,76
1,69,85,4
1,77,83,0
1,38,82,96
1,69,89,0
1,77,83,8
1,38,59,40
1,70,56,0
1,74,55,8
1,38,81,12
1,71,89,0
1,79,86,8
1,38,81,100
1,76,81,0
1,72,78,0
1,81,79,24
1,57,72,8
1,86,86,20
1,62,81,0
1,67,87,184
1,91,93,0
1,66,68,0
1,90,73,12
1,64,62,16
1,88,78,0
1,86,72,44
1,62,71,0
1,88,87,104
1,64,81,0
1,93,89,164
1,69,72,8
1,98,92,152
1,74,85,4
1,97,68,4
1,73,66,0
1,95,75,48
1,71,61,0
1,93,79,40
1,69,63,4
1,71,81,108
1,95,86,4
1,90,73,164
1,66,81,0
1,61,78,132
1,85,82,0
1,62,57,40
1,86,68,8
1,64,71,12
1,88,73,0
1,62,71,60
1,86,79,4
1,59,58,16
1,83,73,8
1,59,58,116
1,83,72,4
1,85,73,8
1,61,67,12
1,88,87,24
1,64,81,0
1,57,56,40
1,81,55,12
1,59,61,20
1,83,71,8
1,86,92,36
1,62,79,8
1,85,64,36
1,61,54,12
1,83,75,12
1,59,57,0
1,55,72,40
1,79,82,0
1,57,82,24
1,81,89,0
1,45,63,116
1,93,76,0
1,55,81,12
1,79,92,0
1,54,50,8
1,78,71,0
1,52,63,0
1,76,67,0
1,79,92,16
1,55,79,0
1,54,52,12
1,78,63,8
1,52,59,0
1,76,68,20
1,74,74,52
1,50,72,0
1,52,61,0
1,76,72,8
1,55,75,0
1,79,72,8
1,81,85,32
1,57,85,0
1,52,66,28
1,76,57,8
1,78,67,0
1,54,71,0
1,86,89,8
1,62,89,0
1,54,55,36
1,78,61,20
1,55,66,20
1,79,61,8
1,64,89,12
1,88,93,8
1,86,86,28
1,62,78,0
1,61,72,8
1,85,79,8
1,81,85,16
1,57,79,0
1,78,92,164
1,79,89,8
1,55,89,0
1,54,66,0
1,78,79,20
1,74,79,8
1,50,76,0
1,57,82,88
1,81,86,8
1,52,53,20
1,76,74,12
1,54,70,4
1,78,76,0
1,52,66,8
1,76,73,4
1,74,76,0
1,50,62,8
1,76,89,20
1,52,86,0
1,74,73,8
1,50,76,0
1,49,62,16
1,73,68,8
1,74,85,20
1,50,80,0
1,73,74,0
1,49,62,0
1,47,64,12
1,71,66,0
1,73,81,32
1,49,66,0
1,71,76,56
1,47,68,0
1,45,66,0
1,69,74,8
1,47,89,28
1,71,90,0
1,76,85,368
1,86,85,0
1,35,85,8
1,81,79,0
1,83,83,0
1,78,82,0
1,59,57,492
1,61,72,0
1,62,86,56
1,64,81,0
1,66,79,0
1,69,75,0
1,71,75,0
1,74,79,0
1,86,79,380
1,86,76,100
1,66,78,8
1,85,79,0
1,59,68,8
1,78,81,0
1,79,66,8
1,57,59,4
1,64,61,0
1,74,56,4
1,83,66,0
1,79,73,8
1,57,62,0
1,74,59,8
1,64,64,0
1,83,70,0
1,74,67,8
1,74,81,116
1,73,75,0
1,54,81,0
1,66,85,0
1,47,78,4
1,52,58,0
1,67,62,0
1,45,55,4
1,71,59,4
1,62,56,0
1,67,68,0
1,62,56,0
1,52,66,4
1,71,66,0
1,45,61,4
1,64,63,16
1,64,71,108
1,47,81,0
1,40,66,8
1,62,72,0
1,57,66,8
1,66,71,0
1,64,59,4
1,59,55,0
1,49,56,0
1,42,57,0
1,69,56,8
1,42,59,116
1,49,58,0
1,64,68,4
1,59,68,0
1,69,66,4
1,42,35,404
1,42,86,4
1,59,74,0
1,30,85,0
1,62,68,0
1,66,67,36
1,71,75,52
1,74,74,0
1,78,73,68
1,81,75,48
1,76,71,60
1,78,73,56
1,74,72,60
1,71,75,0
1,69,67,44
1,66,72,8
1,64,73,0
1,62,68,0
1,57,73,20
1,43,92,4
1,31,89,4
1,59,81,0
1,62,75,8
1,66,67,28
1,71,81,40
1,74,79,0
1,78,74,60
1,81,72,0
1,76,61,20
1,78,71,56
1,74,73,48
1,71,75,12
1,69,64,32
1,66,74,4
1,64,72,8
1,62,68,8
1,57,76,16
1,45,90,8
1,33,83,0
1,59,80,4
1,62,75,16
1,66,66,20
1,71,76,48
1,74,74,0
1,78,72,76
1,81,68,60
1,76,47,0
1,78,66,52
1,74,73,36
1,71,75,8
1,69,57,44
1,66,57,4
1,64,71,12
1,62,74,0
1,57,70,8
1,47,95,12
1,35,85,8
1,59,68,0
1,62,75,24
1,66,68,0
1,62,72,76
1,64,72,20
1,69,78,24
1,73,68,16
1,69,67,0
1,71,79,8
1,74,76,16
1,78,71,4
1,74,73,0
1,76,79,8
1,81,82,4
1,86,89,0
1,66,90,100
1,59,83,0
1,78,93,0
1,86,85,4
1,85,86,0
1,79,66,4
1,74,61,0
1,83,66,8
1,64,61,0
1,57,57,0
1,57,57,0
1,64,55,8
1,79,73,0
1,74,62,0
1,83,71,4
1,74,66,16
1,74,85,8
1,54,81,0
1,47,79,4
1,66,90,0
1,73,75,4
1,52,62,4
1,45,58,0
1,67,63,8
1,71,61,0
1,62,58,0
1,52,66,4
1,45,61,4
1,67,67,8
1,62,63,0
1,71,66,0
1,64,66,0
1,66,72,112
1,47,68,4
1,62,59,0
1,57,54,8
1,40,53,0
1,64,58,8
1,59,52,8
1,49,50,0
1,69,54,4
1,42,51,0
1,64,57,108
1,59,55,8
1,42,56,0
1,49,52,0
1,69,61,4
1,42,89,80
1,30,85,0
1,59,74,8
1,62,66,4
1,66,66,28
1,71,79,48
1,74,73,0
1,78,73,60
1,81,66,0
1,76,64,0
1,78,68,52
1,74,73,56
1,71,70,28
1,69,64,8
1,66,74,0
1,64,68,4
1,62,71,4
1,57,71,0
1,59,75,16
1,43,93,4
1,31,89,4
1,62,71,24
1,66,61,20
1,71,73,40
1,74,74,0
1,78,68,60
1,81,72,0
1,76,61,8
1,78,66,48
1,74,74,40
1,71,64,12
1,69,66,16
1,66,74,0
1,64,70,20
1,62,67,20
1,57,75,8
1,45,93,4
1,59,78,0
1,33,87,4
1,62,74,12
1,66,67,20
1,71,76,52
1,74,73,8
1,78,73,56
1,81,70,52
1,76,53,0
1,78,71,56
1,74,73,0
1,71,68,20
1,69,67,12
1,66,72,0
1,64,71,0
1,62,63,4
1,57,70,20
1,59,80,8
1,47,95,0
1,35,86,0
1,62,72,20
1,66,71,4
1,62,74,76
1,64,62,20
1,69,78,16
1,73,67,20
1,69,58,72
1,71,72,12
1,74,73,32
1,78,73,16
1,74,66,0
1,76,63,8
1,81,81,20
1,86,86,8
1,66,99,8
1,78,93,0
1,85,82,8
1,86,82,0
1,59,89,0
1,64,71,8
1,79,68,8
1,74,64,0
1,57,66,0
1,83,72,0
1,64,82,4
1,57,76,8
1,79,82,0
1,83,75,0
1,74,73,0
1,74,68,8
1,54,83,8
1,74,73,0
1,47,81,0
1,66,86,4
1,73,75,0
1,67,61,4
1,71,62,4
1,52,63,0
1,62,56,0
1,45,59,4
1,52,72,8
1,67,68,0
1,62,64,8
1,45,68,0
1,71,70,4
1,64,71,200
1,47,79,92
1,62,74,4
1,40,64,0
1,64,59,0
1,66,74,8
1,57,70,0
1,64,54,8
1,49,51,4
1,59,54,0
1,42,54,4
1,69,56,4
1,64,76,8
1,59,78,0
1,49,70,0
1,42,72,0
1,69,82,4
1,54,66,716
1,59,62,88
1,71,56,0
1,69,56,4
1,64,49,4
1,66,54,0
1,64,73,648
1,47,72,20
1,64,63,0
1,40,61,8
1,66,74,8
1,62,71,0
1,57,62,4
1,49,56,76
1,64,56,0
1,59,54,8
1,42,54,0
1,69,61,0
1,64,59,4
1,49,57,8
1,59,61,0
1,42,54,8
1,69,63,0
1,54,52,424
1,64,49,60
1,71,54,0
1,76,54,0
1,81,56,8
1,59,50,0
1,78,52,0
1,54,46,0
1,76,49,8
1,71,45,4
1,64,50,8
1,78,51,0
1,81,48,0
1,59,40,0
1,64,54,4
1,67,80,8
1,69,68,40
1,64,49,24
1,66,81,20
1,43,46,4
1,50,55,24
1,59,51,140
1,69,85,44
1,64,48,48
1,42,47,8
1,69,79,0
1,64,72,4
1,71,75,4
1,49,52,8
1,54,59,116
1,61,59,20
1,64,47,120
1,71,81,88
1,69,81,0
1,64,57,28
1,69,72,48
1,71,66,16
1,64,55,40
1,41,66,0
1,63,86,4
1,68,85,0
1,74,82,8
1,51,58,8
1,57,68,56
1,73,87,28
1,63,89,4
1,68,82,4
1,57,76,144
1,62,46,76
1,40,51,20
1,64,81,8
1,69,85,0
1,66,79,0
1,62,81,4
1,47,53,0
1,55,14,4
1,55,71,4
1,66,86,28
1,58,89,0
1,55,82,0
1,61,85,8
1,52,76,0
1,45,71,4
1,40,57,156
1,47,64,68
1,59,75,0
1,54,73,0
1,55,72,4
1,39,59,32
1,54,72,88
1,53,74,0
1,58,78,8
1,46,71,0
1,61,81,284
1,54,67,4
1,58,74,4
1,51,70,0
1,63,71,0
1,66,59,48
1,69,72,100
1,69,81,88
1,60,82,8
1,65,83,8
1,54,87,0
1,44,81,0
1,71,68,0
1,72,72,4
1,60,85,180
1,54,74,4
1,71,85,0
1,65,83,0
1,69,82,0
1,74,82,28
1,37,71,12
1,65,92,8
1,73,87,0
1,44,74,4
1,59,66,212
1,53,76,8
1,69,74,8
1,65,74,0
1,59,74,0
1,61,79,0
1,43,67,0
1,56,55,76
1,56,74,8
1,63,79,0
1,52,72,8
1,42,66,0
1,49,67,0
1,59,74,4
1,66,78,0
1,63,79,0
1,62,79,16
1,61,74,88
1,52,67,28
1,55,75,12
1,58,79,20
1,57,56,0
1,61,90,24
1,58,75,24
1,58,66,88
1,43,56,4
1,59,78,8
1,50,66,16
1,59,80,136
1,69,67,116
1,74,73,132
1,78,86,32
1,59,78,0
1,74,36,8
1,81,85,40
1,76,89,0
1,83,90,8
1,42,72,4
1,49,54,12
1,54,63,84
1,61,64,136
1,64,90,8
1,76,61,124
1,81,79,60
1,83,80,4
1,76,47,32
1,76,73,76
1,81,82,4
1,83,86,0
1,76,86,68
1,83,83,8
1,81,82,0
1,77,89,36
1,86,85,0
1,37,62,12
1,44,66,0
1,53,70,116
1,85,89,128
1,59,78,8
1,76,89,8
1,38,61,196
1,73,89,48
1,71,90,0
1,54,80,0
1,81,89,8
1,78,86,0
1,54,66,68
1,59,75,116
1,69,85,8
1,71,81,0
1,78,86,0
1,73,75,0
1,64,90,116
1,69,66,12
1,71,75,40
1,73,68,48
1,78,86,48
1,83,81,0
1,40,63,108
1,81,90,8
1,74,89,4
1,78,82,0
1,47,61,32
1,55,81,132
1,71,86,32
1,78,86,0
1,74,76,8
1,75,6,0
1,42,78,36
1,69,89,0
1,49,86,0
1,74,86,0
1,54,73,76
1,64,56,136
1,69,74,44
1,74,68,28
1,76,86,96
1,64,75,8
1,76,86,88
1,64,76,8
1,78,85,28
1,71,43,20
1,74,73,32
1,39,86,4
1,78,92,4
1,46,57,16
1,55,72,116
1,67,81,12
1,61,82,132
1,73,78,8
1,76,86,36
1,71,66,40
1,38,76,112
1,77,89,4
1,65,64,132
1,60,75,40
1,54,74,8
1,70,86,4
1,75,64,44
1,59,75,40
1,43,67,8
1,53,78,0
1,69,90,4
1,64,86,0
1,42,81,40
