track,note,velocity,time
1,43,96,384
1,31,86,0
1,58,74,0
1,56,74,0
1,55,70,0
1,57,50,0
1,53,77,0
1,51,78,0
1,50,87,0
1,48,92,0
1,46,82,0
1,44,81,0
1,43,88,0
1,41,84,0
1,39,78,0
1,38,97,0
1,36,100,2
1,24,99,132
1,72,96,192
1,84,99,42
1,84,93,74
1,96,97,166
1,36,103,250
1,24,100,150
1,48,44,180
1,50,55,60
1,51,76,32
1,53,73,10
1,55,78,54
1,56,72,38
1,58,53,10
1,57,43,2
1,60,72,10
1,62,75,54
1,63,74,38
1,65,86,4
1,67,76,38
1,68,75,32
1,70,65,22
1,72,77,10
1,74,73,54
1,75,83,38
1,77,83,22
1,79,75,32
1,80,75,16
1,82,83,2
1,84,97,32
1,58,81,96
1,63,79,64
1,65,83,64
1,75,89,64
1,80,81,74
1,87,82,52
1,94,91,80
1,99,97,64
1,36,104,500
1,24,101,6
1,58,74,272
1,63,75,64
1,65,72,48
1,67,75,64
1,70,77,48
1,75,76,4
1,72,77,4
1,74,76,60
1,75,89,48
1,77,90,0
1,79,75,64
1,82,78,0
1,84,85,4
1,86,74,60
1,87,79,44
1,89,80,10
1,91,73,54
1,94,81,54
1,95,26,2
1,99,94,10
1,96,77,64
1,101,76,32
1,106,76,22
1,107,57,16
1,108,99,22
1,108,93,410
1,106,80,54
1,101,80,64
1,96,88,4
1,103,50,22
1,99,70,4
1,96,90,38
1,95,58,10
1,96,36,38
1,89,93,42
1,87,79,10
1,84,81,2
1,82,77,22
1,80,77,42
1,77,84,42
1,75,81,0
1,72,75,0
1,70,77,4
1,68,76,48
1,65,75,4
1,63,71,22
1,60,71,4
1,58,72,2
1,56,70,52
1,55,76,54
1,48,81,38
1,41,83,0
1,48,92,74
1,53,78,42
1,55,97,2
1,56,87,4
1,63,89,4
1,60,90,2
1,47,93,234
1,40,79,0
1,47,96,58
1,55,95,48
1,62,95,4
1,59,92,0
1,54,90,4
1,53,97,0
1,46,79,48
1,53,86,76
1,68,95,16
1,60,101,0
1,65,99,4
1,61,88,0
1,51,87,220
1,44,88,4
1,51,82,60
1,63,96,0
1,59,100,4
1,58,76,0
1,66,86,0
1,50,92,204
1,43,78,4
1,50,95,76
1,53,100,48
1,59,93,10
1,65,96,2
1,70,97,4
1,59,99,240
1,62,78,0
1,63,79,0
1,65,93,48
1,67,95,48
1,68,80,48
1,70,75,48
1,71,81,22
1,74,76,4
1,77,78,60
1,75,76,4
1,74,67,4
1,72,69,38
1,74,72,2
1,75,80,2
1,67,44,4
1,60,44,0
1,63,36,2
1,72,62,4
1,79,57,32
1,63,39,0
1,75,53,4
1,56,35,0
1,65,42,0
1,72,58,0
1,55,41,24
1,69,51,0
1,65,38,2
1,72,55,0
1,60,40,4
1,65,56,20
1,58,44,4
1,62,42,2
1,53,55,0
1,69,52,4
1,65,49,0
1,58,44,4
1,67,52,0
1,62,40,0
1,51,52,0
1,72,44,2
1,70,59,12
1,64,70,4
1,60,52,12
1,50,45,0
1,67,55,0
1,55,52,4
1,48,77,208
1,55,58,112
1,58,59,64
1,60,59,16
1,62,59,0
1,63,69,0
1,65,68,4
1,67,60,60
1,68,70,44
1,70,43,4
1,72,66,16
1,74,65,48
1,75,73,32
1,77,75,2
1,79,70,52
1,80,75,42
1,82,81,32
1,80,66,26
1,44,70,154
1,51,74,96
1,70,77,336
1,79,79,0
1,65,75,4
1,75,75,0
1,60,74,0
1,41,74,24
1,48,75,40
1,53,75,118
1,58,71,48
1,63,74,48
1,65,76,182
1,70,68,90
1,67,79,74
1,72,74,64
1,75,69,64
1,72,55,48
1,82,100,48
1,79,74,22
1,77,66,16
1,74,57,16
1,36,69,304
1,48,75,4
1,59,97,2
1,62,93,0
1,67,93,10
1,57,76,64
1,60,73,0
1,63,86,122
1,55,86,2
1,58,80,4
1,60,61,62
1,55,46,2
1,56,46,4
1,48,76,54
1,36,71,96
1,55,57,0
1,56,82,22
1,60,97,4
1,63,80,2
1,55,52,0
1,58,79,26
1,62,88,4
1,53,40,76
1,58,80,2
1,62,85,20
1,53,69,80
1,48,52,144
1,55,53,10
1,58,59,4
1,60,74,16
1,63,60,10
1,67,74,32
1,70,77,80
1,63,77,32
1,72,75,4
1,63,76,100
1,72,69,16
1,60,69,2
1,70,49,0
1,67,74,32
1,60,55,0
1,63,69,64
1,60,68,2
1,57,52,256
1,79,99,0
1,64,68,48
1,68,76,84
1,72,52,52
1,77,75,2
1,76,93,16
1,57,57,64
1,64,54,16
1,67,56,64
1,71,57,74
1,74,91,2
1,57,55,4
1,62,50,26
1,66,50,76
1,69,50,48
1,71,76,16
1,57,51,54
1,62,37,76
1,65,53,52
1,67,42,74
1,72,73,26
1,58,46,52
1,60,42,40
1,64,38,44
1,67,74,16
1,69,73,16
1,57,53,54
1,63,42,0
1,65,52,16
1,65,54,96
1,70,88,10
1,56,44,28
1,60,55,36
1,62,44,76
1,65,61,16
1,67,84,16
1,55,63,36
1,61,46,0
1,63,59,4
1,63,33,102
1,68,97,0
1,50,59,16
1,56,47,80
1,60,72,22
1,63,53,74
1,65,69,16
1,67,74,22
1,65,76,22
1,59,103,4
1,53,100,0
1,43,90,2
1,62,73,16
1,67,91,0
1,48,72,4
1,63,75,0
1,60,83,4
1,58,74,76
1,55,73,0
1,63,74,92
1,46,76,10
1,57,64,2
1,62,91,4
1,60,73,4
1,53,57,2
1,65,74,16
1,63,75,26
1,53,90,2
1,55,93,0
1,51,80,4
1,60,99,0
1,44,82,6
1,67,72,100
1,63,83,24
1,53,99,16
1,43,90,0
1,50,83,0
1,60,101,4
1,55,65,304
1,60,71,0
1,51,62,0
1,44,63,4
1,45,52,160
1,51,55,4
1,55,58,2
1,60,68,0
1,56,63,166
1,55,71,128
1,38,55,4
1,54,63,2
1,67,85,740
1,63,79,38
1,43,75,36
1,53,78,4
1,60,92,2
1,67,68,352
1,63,75,64
1,60,90,16
1,55,79,0
1,51,79,10
1,44,86,2
1,55,83,288
1,60,79,4
1,45,70,2
1,51,74,0
1,38,73,128
1,54,77,22
1,67,78,150
1,63,77,42
1,60,93,22
1,55,77,4
1,39,87,2
1,60,104,266
1,54,107,2
1,38,93,4
1,37,85,6
1,53,101,0
1,60,95,4
1,54,83,202
1,53,58,106
1,52,76,42
1,36,70,0
1,67,84,294
1,63,79,32
1,60,97,26
1,53,101,2
1,50,91,4
1,43,91,4
1,55,80,310
1,60,80,0
1,44,81,10
1,51,80,2
1,55,92,20
1,60,95,0
1,45,75,2
1,51,78,0
1,56,76,4
1,55,71,0
1,54,89,10
1,38,87,2
1,67,69,0
1,63,58,0
1,60,93,10
1,55,81,2
1,39,95,20
1,54,100,292
1,60,97,4
1,38,95,12
1,37,103,64
1,53,97,0
1,60,103,0
1,54,88,32
1,53,73,80
1,36,84,12
1,52,96,0
1,55,85,96
1,56,76,60
1,58,74,60
1,60,80,4
1,61,75,60
1,63,80,4
1,64,78,38
1,67,91,2
1,68,93,62
1,70,81,26
1,67,90,16
1,68,101,54
1,41,62,102
1,56,73,128
1,53,47,548
1,60,36,60
1,63,53,26
1,67,63,64
1,72,69,54
1,75,75,64
1,79,79,48
1,82,96,192
1,87,94,96
1,94,104,106
1,68,91,240
1,66,74,16
1,51,57,0
1,66,88,64
1,68,100,0
1,68,91,64
1,65,76,0
1,75,90,176
1,61,68,4
1,77,88,0
1,78,87,4
1,66,74,2
1,70,93,0
1,77,75,0
1,75,80,12
1,68,95,166
1,59,70,4
1,73,82,0
1,49,62,2
1,54,59,10
1,56,63,2
1,47,73,4
1,63,79,4
1,68,80,2
1,51,68,4
1,46,39,166
1,61,75,48
1,53,56,4
1,68,80,2
1,72,64,12
1,75,87,36
1,72,55,106
1,73,75,86
1,75,76,4
1,77,80,16
1,80,85,2
1,84,84,4
1,82,86,4
1,80,76,0
1,77,84,0
1,75,76,10
1,72,70,20
1,70,70,38
1,68,74,64
1,67,93,10
1,55,83,2
1,79,97,4
1,67,91,4
1,77,93,86
1,67,80,62
1,43,70,22
1,75,93,4
1,67,91,76
1,74,80,64
1,72,78,32
1,71,83,4
1,74,83,4
1,71,87,0
1,72,81,22
1,67,88,22
1,55,29,32
1,63,69,38
1,60,76,0
1,62,93,2
1,65,77,4
1,63,77,4
1,43,58,12
1,62,72,48
1,60,77,0
1,59,72,10
1,62,93,22
1,65,92,0
1,68,83,74
1,67,85,62
1,66,80,22
1,65,84,4
1,64,86,0
1,55,60,0
1,62,99,176
1,63,86,16
1,65,93,4
1,67,84,76
1,43,75,4
1,70,88,12
1,72,83,0
1,74,87,74
1,77,83,16
1,75,90,64
1,72,100,0
1,54,96,4
1,69,78,2
1,72,78,22
1,75,80,16
1,77,86,0
1,78,88,4
1,81,87,16
1,86,97,16
1,55,75,6
1,82,96,4
1,43,73,112
1,74,97,4
1,79,97,10
1,86,78,22
1,84,80,22
1,82,85,0
1,81,84,74
1,42,72,22
1,82,95,4
1,74,69,48
1,78,78,4
1,81,90,0
1,84,93,2
1,81,93,84
1,82,82,16
1,79,81,0
1,41,76,10
1,74,92,2
1,70,78,38
1,69,73,64
1,67,72,0
1,74,79,4
1,69,85,60
1,70,94,16
1,62,79,0
1,40,71,0
1,67,86,2
1,70,82,22
1,67,78,0
1,68,89,16
1,69,85,10
1,45,68,2
1,81,87,80
1,79,96,128
1,38,83,12
1,77,91,4
1,50,73,68
1,69,76,166
1,77,79,0
1,62,55,4
1,74,70,0
1,57,55,0
1,81,76,0
1,50,59,140
1,57,58,126
1,62,67,102
1,64,71,80
1,65,74,0
1,69,76,74
1,74,87,22
1,77,103,294
1,76,101,0
1,81,101,4
1,45,95,374
1,38,95,0
1,54,97,16
1,60,93,4
1,65,96,0
1,45,93,204
1,57,99,228
1,63,97,0
1,68,101,2
1,44,95,106
1,56,93,182
1,62,85,10
1,67,90,2
1,43,100,112
1,43,103,160
1,59,101,192
1,65,93,4
1,70,104,2
1,36,106,316
1,64,90,246
1,58,96,0
1,69,91,0
1,41,99,0
1,57,92,356
1,68,101,4
1,63,95,0
1,36,99,128
1,29,96,70
1,36,99,528
1,41,96,86
1,57,96,90
1,68,103,2
1,63,97,4
1,35,103,192
1,57,77,890
1,63,76,2
1,68,75,4
1,34,101,614
1,56,91,496
1,62,87,4
1,67,85,0
1,34,103,108
1,33,101,4
1,55,93,572
1,66,96,4
1,61,100,2
1,33,96,86
1,32,108,16
1,54,105,208
1,65,96,10
1,60,95,2
1,32,100,74
1,31,95,38
1,33,92,4
1,62,99,16
1,71,110,0
1,75,104,4
1,82,105,0
1,53,106,6
1,59,93,2
1,43,101,256
1,31,101,96
1,59,55,10
1,62,70,64
1,63,76,52
1,64,81,4
1,67,91,60
1,68,81,44
1,70,78,10
1,71,81,0
1,74,78,48
1,75,96,48
1,76,87,4
1,79,80,38
1,80,76,42
1,82,63,0
1,83,75,16
1,86,73,48
1,87,70,44
1,89,92,16
1,91,101,54
1,67,99,202
1,103,97,2
1,91,100,4
1,103,103,106
1,91,104,4
1,67,95,0
1,92,100,12
1,104,99,20
1,68,95,4
1,65,90,80
1,89,91,16
1,101,97,0
1,87,89,74
1,99,97,10
1,64,30,22
1,60,79,70
1,84,100,2
1,96,85,4
1,82,93,86
1,58,75,4
1,94,90,12
1,56,79,80
1,80,89,0
1,92,80,4
1,55,80,76
1,91,77,0
1,79,92,4
1,53,83,60
1,77,78,4
1,89,86,12
1,75,89,64
1,87,85,4
1,51,79,0
1,86,85,64
1,74,85,4
1,50,77,0
1,48,100,80
1,72,99,16
1,84,75,0
1,86,80,0
1,74,53,4
1,48,76,374
1,55,47,112
1,63,65,60
1,67,64,62
1,70,73,0
1,74,75,0
1,77,81,0
1,82,77,192
1,89,91,80
1,48,74,84
1,55,56,64
1,63,68,42
1,67,55,64
1,70,60,38
1,74,66,64
1,77,68,48
1,51,62,144
1,61,57,22
1,66,61,16
1,70,52,10
1,73,70,38
1,77,66,48
1,80,75,42
1,80,69,966
1,77,66,16
1,75,60,32
1,73,56,4
1,70,58,38
1,66,42,38
1,61,35,26
1,51,37,54
1,73,59,310
1,70,64,0
1,44,35,0
1,66,63,12
1,59,24,0
1,54,53,4
1,51,46,4
1,63,41,4
1,85,81,230
1,80,97,74
1,63,59,214
1,75,86,4
1,70,73,0
1,59,55,140
1,77,69,0
1,54,59,128
1,78,80,10
1,73,88,12
1,68,78,4
1,52,57,2
1,63,53,0
1,71,64,90
1,64,57,0
1,51,56,10
1,70,61,0
1,61,46,0
1,76,61,304
1,82,48,32
1,87,63,32
1,82,47,48
1,76,45,22
1,75,63,64
1,70,46,74
1,64,38,10
1,61,48,102
1,51,37,80
1,39,97,1222
1,40,58,560
1,27,108,20
1,51,49,54
1,58,41,26
1,61,51,64
1,64,66,54
1,70,58,32
1,75,58,2
1,76,70,48
1,82,79,4
1,87,80,4
1,51,44,20
1,59,40,22
1,63,55,22
1,67,42,80
1,71,59,0
1,75,64,0
1,76,72,10
1,79,63,0
1,82,63,48
1,83,79,32
1,82,57,26
1,79,70,26
1,76,70,32
1,51,48,126
1,56,42,16
1,59,48,32
1,63,54,16
1,67,46,26
1,68,57,32
1,70,63,38
1,71,47,32
1,73,58,0
1,74,30,4
1,75,72,12
1,77,70,52
1,79,72,32
1,80,65,22
1,82,65,16
1,83,80,22
1,82,74,26
1,75,63,16
1,51,25,484
1,55,54,10
1,59,53,52
1,62,40,32
1,67,43,28
1,71,53,0
1,74,49,16
1,79,62,54
1,81,46,48
1,83,77,10
1,86,52,2
1,83,38,52
1,81,57,38
1,79,63,32
1,79,59,454
1,91,66,38
1,79,57,582
1,81,44,32
1,83,61,38
1,86,59,16
1,83,33,10
1,81,52,16
1,79,47,38
1,62,23,22
1,59,39,16
1,55,29,26
1,51,44,64
1,79,47,496
1,81,44,0
1,83,54,32
1,86,49,48
1,83,33,0
1,81,53,38
1,79,55,10
1,62,36,32
1,59,45,22
1,55,35,32
1,51,41,58
1,67,15,630
1,69,37,2
1,71,44,0
1,74,40,0
1,71,22,0
1,69,42,32
1,67,51,26
1,62,28,0
1,59,42,32
1,55,45,42
1,51,42,64
1,79,43,278
1,81,30,32
1,83,53,38
1,86,39,4
1,83,19,22
1,81,32,26
1,79,49,46
1,52,42,26
1,55,41,12
1,57,47,26
1,59,30,0
1,62,49,10
1,67,48,0
1,66,42,0
1,69,54,26
1,74,33,22
1,71,9,42
1,69,41,38
1,66,38,16
1,67,40,48
1,62,21,26
1,59,28,38
1,57,11,4
1,55,40,4
1,52,40,22
1,64,22,0
1,67,41,4
1,69,36,28
1,71,30,16
1,74,47,26
1,76,41,38
1,78,59,26
1,81,64,32
1,83,51,22
1,86,49,32
1,78,65,38
1,79,65,16
1,71,12,128
1,74,30,54
1,76,23,74
1,78,38,54
1,81,40,74
1,86,49,84
1,83,44,26
1,74,40,64
1,71,23,80
1,69,25,54
1,67,54,38
1,64,54,16
1,67,44,64
1,69,39,64
1,71,27,48
1,74,49,26
1,79,46,86
1,78,73,32
1,81,75,64
1,83,58,4
1,86,61,2
1,83,45,10
1,81,55,16
1,78,57,2
1,64,54,0
1,79,69,0
1,79,55,80
1,78,44,16
1,81,42,4
1,86,45,2
1,83,40,0
1,52,43,566
1,55,49,54
1,57,45,4
1,59,42,0
1,62,64,2
1,67,58,0
1,71,54,10
1,74,49,22
1,78,65,64
1,81,74,32
1,78,63,48
1,81,1,26
1,74,30,22
1,71,36,16
1,67,55,26
1,62,22,42
1,59,57,22
1,52,52,64
1,74,49,272
1,67,40,4
1,71,37,0
1,66,42,12
1,52,49,86
1,55,56,38
1,57,40,26
1,59,49,2
1,62,44,36
1,67,40,26
1,66,59,38
1,71,56,26
1,74,52,4
1,52,40,48
1,55,47,32
1,57,35,32
1,59,32,32
1,62,56,10
1,67,44,48
1,66,45,38
1,71,50,26
1,74,39,0
1,52,40,2
1,74,39,4
1,67,73,724
1,72,85,204
1,65,63,0
1,67,63,4
1,70,73,4
