track,note,velocity,time
1,67,127,9792
1,69,126,14
1,67,126,14
1,69,110,14
1,67,110,14
1,69,88,14
1,67,97,14
1,69,88,14
1,67,85,10
1,69,115,14
1,67,111,14
1,69,85,14
1,67,87,14
1,69,87,10
1,67,87,14
1,69,87,14
1,67,87,14
1,69,87,14
1,67,87,14
1,69,87,14
1,67,80,14
1,69,81,10
1,67,69,14
1,69,74,14
1,67,69,14
1,69,69,14
1,67,68,14
1,69,65,14
1,67,64,14
1,69,62,14
1,67,68,14
1,69,68,14
1,67,64,14
1,69,95,14
1,67,91,14
1,69,91,14
1,67,87,14
1,69,95,14
1,67,87,14
1,69,95,14
1,67,80,14
1,69,83,14
1,67,63,14
1,69,76,14
1,67,65,14
1,69,95,14
1,67,58,14
1,69,100,14
1,67,83,14
1,69,95,14
1,67,80,14
1,69,95,14
1,67,83,14
1,69,100,14
1,67,87,14
1,69,95,14
1,67,87,14
1,69,100,14
1,67,87,14
1,69,95,14
1,67,80,14
1,69,95,14
1,67,76,14
1,69,87,14
1,67,83,14
1,69,95,14
1,67,87,14
1,69,91,14
1,67,65,16
1,69,87,14
1,67,76,14
1,69,91,14
1,67,65,14
1,69,95,14
1,67,76,14
1,69,91,12
1,67,61,14
1,69,80,14
1,67,65,14
1,69,95,14
1,67,68,14
1,69,91,12
1,67,56,14
1,69,91,14
1,67,80,14
1,69,95,14
1,67,70,14
1,69,80,14
1,67,87,14
1,69,95,14
1,67,83,14
1,69,95,14
1,67,91,14
1,69,95,14
1,67,91,14
1,69,87,14
1,67,91,14
1,69,91,14
1,67,91,14
1,69,95,14
1,67,87,14
1,69,91,14
1,67,91,14
1,69,100,14
1,45,126,202
1,52,126,202
1,67,126,36
1,52,126,20
1,40,123,238
1,40,123,216
1,40,123,216
1,45,116,20
1,47,93,24
1,52,123,24
1,52,123,24
1,52,123,80
1,40,123,78
1,52,123,104
1,40,118,78
1,55,118,200
1,55,73,8
1,52,123,4
1,50,110,78
1,40,118,200
1,40,113,206
1,40,118,206
1,50,113,110
1,52,79,14
1,55,126,14
1,67,127,154
1,40,123,58
1,40,123,196
1,50,101,206
1,50,113,206
1,40,105,206
1,40,123,216
1,40,118,216
1,45,92,24
1,47,69,24
1,52,123,24
1,52,123,24
1,52,123,80
1,40,123,78
1,52,123,104
1,40,118,78
1,55,118,200
1,55,73,8
1,52,113,8
1,50,83,8
1,40,118,200
1,40,113,206
1,40,118,206
1,50,113,110
1,52,79,14
1,55,123,14
1,52,123,154
1,40,123,72
1,40,123,206
1,50,101,206
1,50,113,206
1,40,118,206
1,40,109,202
1,50,123,10
1,52,101,10
1,42,123,10
1,42,123,10
1,54,112,78
1,42,123,10
1,54,123,78
1,57,123,180
1,45,118,58
1,45,123,202
1,50,86,10
1,52,76,10
1,38,123,10
1,38,109,10
1,50,76,10
1,51,77,10
1,52,113,10
1,40,113,110
1,40,118,206
1,40,101,14
1,42,123,14
1,54,123,96
1,54,123,78
1,42,123,8
1,54,112,78
1,45,123,14
1,57,126,78
1,57,123,14
1,57,126,80
1,45,113,14
1,48,123,206
1,48,88,14
1,50,94,14
1,38,123,14
1,38,123,14
1,50,88,14
1,51,86,14
1,40,118,206
1,40,109,202
1,50,123,10
1,52,101,10
1,42,123,10
1,42,123,10
1,54,112,78
1,42,123,10
1,54,119,78
1,57,118,106
1,45,118,10
1,45,123,202
1,50,86,10
1,52,76,10
1,38,123,10
1,38,109,10
1,50,76,10
1,51,77,10
1,50,113,10
1,52,101,14
1,40,123,14
1,40,123,14
1,52,123,78
1,40,123,78
1,50,118,14
1,52,101,14
1,42,119,14
1,40,101,14
1,52,113,110
1,52,123,14
1,45,123,14
1,57,126,80
1,45,113,110
1,47,113,110
1,50,118,14
1,52,123,1646
1,52,123,88
1,40,105,90
1,40,123,216
1,40,118,216
1,45,92,20
1,47,69,24
1,52,123,24
1,52,123,24
1,52,123,80
1,40,123,78
1,52,123,104
1,40,118,78
1,55,118,200
1,55,73,8
1,52,113,8
1,50,83,8
1,40,118,200
1,40,113,206
1,40,118,206
1,50,113,110
1,52,79,14
1,55,123,14
1,52,123,174
1,40,123,72
1,40,123,206
1,50,101,206
1,50,113,206
1,40,105,206
1,40,123,212
1,40,118,216
1,45,92,24
1,47,69,20
1,52,123,24
1,52,123,24
1,52,123,78
1,40,123,78
1,52,123,100
1,40,118,78
1,55,118,200
1,55,73,8
1,52,113,8
1,50,83,8
1,40,118,200
1,40,118,196
1,40,118,200
1,52,123,200
1,55,88,170
1,52,105,14
1,50,123,14
1,47,105,110
1,40,109,14
1,45,123,1070
1,45,123,90
1,57,126,8
1,45,123,296
1,57,123,104
1,45,123,8
1,47,123,488
1,59,117,8
1,47,123,8
1,47,123,4
1,49,123,1160
1,61,123,8
1,49,123,8
1,49,123,8
1,49,123,296
1,49,123,200
1,49,123,488
1,50,121,4
1,45,121,872
1,45,123,200
1,57,123,8
1,45,123,296
1,57,121,8
1,45,117,8
1,47,123,488
1,59,123,4
1,47,123,8
1,47,123,8
1,48,123,1156
1,60,118,4
1,48,101,8
1,48,123,8
1,48,123,392
1,48,123,4
1,50,123,484
1,62,101,4
1,50,109,8
1,50,113,4
1,50,123,100
1,50,123,104
1,50,118,104
1,52,101,104
1,52,123,8
1,40,123,196
1,40,123,216
1,40,123,212
1,45,116,20
1,47,93,24
1,52,123,24
1,52,123,24
1,52,123,80
1,40,123,78
1,52,123,104
1,40,118,78
1,55,118,200
1,55,73,8
1,52,113,8
1,50,83,8
1,40,118,200
1,40,113,202
1,40,118,206
1,50,113,110
1,52,79,14
1,62,126,14
1,55,123,78
1,61,123,88
1,40,123,12
1,52,123,14
1,52,123,88
1,40,123,84
1,43,123,14
1,67,123,192
1,42,123,10
1,40,105,206
1,40,123,212
1,40,118,216
1,45,92,20
1,47,69,24
1,52,123,24
1,52,123,24
1,52,123,80
1,40,123,78
1,52,123,104
1,40,118,78
1,55,118,196
1,55,73,8
1,52,113,4
1,50,83,4
1,52,123,8
1,52,123,94
1,40,123,90
1,40,123,198
1,40,118,202
1,50,113,10
1,50,123,90
1,52,113,10
1,64,126,10
1,52,123,78
1,64,123,84
1,52,123,74
1,64,123,10
1,64,123,78
1,67,126,84
1,66,123,10
1,64,123,10
1,61,126,10
1,61,123,10
1,60,127,132
1,60,118,10
1,52,123,136
1,52,123,80
1,40,123,78
1,40,123,212
1,40,123,216
1,45,116,24
1,47,93,20
1,52,123,20
1,52,123,20
1,52,123,80
1,40,123,78
1,52,123,104
1,40,118,78
1,55,118,200
1,55,73,4
1,52,123,8
1,50,110,78
1,40,118,200
1,40,113,206
1,40,118,206
1,50,113,110
1,55,123,110
1,43,113,64
1,55,118,78
1,40,123,78
1,40,123,196
1,50,101,206
1,50,113,206
1,40,105,206
1,40,123,216
1,40,118,212
1,45,92,24
1,47,69,24
1,52,123,20
1,52,123,24
1,52,123,80
1,40,123,78
1,52,123,100
1,40,118,78
1,55,118,200
1,55,73,8
1,52,113,8
1,50,83,8
1,40,118,200
1,40,113,206
1,40,118,206
1,50,113,110
1,52,79,14
1,55,123,14
1,40,123,58
1,52,123,88
1,40,123,84
1,40,123,200
1,55,123,178
1,52,118,200
1,50,123,116
1,47,123,38
1,40,118,218
1,40,109,202
1,50,123,10
1,52,101,10
1,42,123,10
1,42,123,10
1,54,112,78
1,42,123,10
1,54,119,78
1,57,118,106
1,45,118,10
1,45,123,202
1,50,86,10
1,52,76,10
1,38,123,10
1,38,109,10
1,50,76,10
1,51,77,10
1,52,113,10
1,40,113,110
1,40,118,206
1,40,101,14
1,42,123,14
1,54,123,96
1,54,123,78
1,42,123,8
1,54,112,78
1,45,123,14
1,57,118,78
1,57,123,14
1,57,123,80
1,45,113,14
1,48,123,206
1,48,88,14
1,50,94,14
1,38,123,14
1,38,123,14
1,50,88,14
1,51,86,14
1,40,118,206
1,40,109,202
1,50,123,10
1,52,101,10
1,42,123,10
1,42,123,10
1,54,112,78
1,42,123,10
1,54,119,78
1,57,118,106
1,45,118,10
1,45,123,202
1,50,86,10
1,52,76,10
1,38,123,10
1,38,109,10
1,50,76,10
1,51,77,10
1,50,113,10
1,52,101,14
1,40,123,14
1,40,123,14
1,52,123,78
1,40,123,78
1,50,118,14
1,52,101,14
1,42,119,14
1,40,101,14
1,52,113,110
1,52,123,14
1,45,123,14
1,45,113,10
1,47,123,10
1,47,118,10
1,47,118,88
1,50,123,10
1,40,123,1738
1,40,123,216
1,40,123,216
1,45,116,24
1,47,93,24
1,52,123,24
1,52,123,20
1,52,123,80
1,40,123,78
1,52,123,104
1,40,118,78
1,55,118,200
1,55,73,4
1,52,123,8
1,50,110,78
1,40,118,200
1,40,113,206
1,40,118,206
1,50,113,110
1,52,79,14
1,55,123,14
1,52,123,154
1,40,123,58
1,40,123,196
1,50,101,206
1,50,113,206
1,40,105,206
1,40,123,216
1,40,118,216
1,45,92,24
1,47,69,20
1,52,123,20
1,52,123,20
1,52,123,78
1,40,123,78
1,52,123,100
1,40,118,78
1,55,118,196
1,55,73,8
1,52,113,8
1,50,83,8
1,40,118,200
1,40,113,206
1,40,118,206
1,50,113,110
1,52,79,14
1,55,123,14
1,40,123,58
1,52,123,24
1,40,113,78
1,40,109,84
1,40,123,84
1,57,123,788
1,45,123,184
1,45,123,228
1,57,123,4
1,45,123,296
1,57,123,8
1,45,123,8
1,47,123,488
1,59,123,8
1,47,123,4
1,47,123,8
1,47,123,296
1,47,123,100
1,49,123,488
1,61,123,8
1,49,123,8
1,49,123,8
1,49,123,296
1,49,123,200
1,49,123,490
1,50,118,24
1,42,123,20
1,43,123,20
1,42,123,20
1,45,118,500
1,57,123,8
1,45,109,8
1,45,118,4
1,45,113,298
1,45,113,200
1,47,118,484
1,59,118,8
1,47,118,4
1,47,118,8
1,47,118,296
1,47,123,104
1,45,118,488
1,45,113,8
1,45,113,4
1,45,113,8
1,45,118,296
1,45,118,196
1,62,101,200
1,50,122,2696
1,47,122,120
1,45,117,116
1,43,122,116
1,38,124,116
1,43,113,20
1,40,113,20
2,74,103,15650
2,73,118,58
2,71,113,60
2,69,122,442
2,68,112,340
2,71,113,436
2,66,126,152
2,74,113,4376
2,73,106,52
2,71,117,56
2,69,106,440
2,68,126,346
2,71,117,632
2,66,126,154
2,74,97,4180
2,73,112,56
2,71,122,52
2,69,113,440
2,74,113,2356
2,73,95,58
2,71,106,56
2,69,122,438
2,74,103,2356
2,73,112,56
2,71,113,56
2,69,117,442
2,74,113,2356
2,73,112,58
2,71,109,52
2,69,122,442
2,74,122,3128
2,73,118,52
2,71,122,58
2,69,109,440
2,68,118,344
2,71,109,440
2,66,126,152
2,74,109,4376
2,73,112,56
2,71,117,56
2,69,109,440
2,68,118,342
2,71,113,632
2,66,126,150
2,57,103,3712
2,59,76,2
2,62,85,16
2,62,93,102
2,59,93,16
2,62,87,284
2,64,90,12
2,64,96,114
2,64,80,50
2,66,102,32
2,62,85,16
2,66,90,10
2,69,96,36
2,64,85,36
2,67,90,22
2,69,70,8
2,67,80,12
2,67,78,58
2,69,78,38
2,64,93,106
2,66,96,28
2,57,103,38
2,59,85,12
2,62,90,12
2,62,99,86
2,59,103,54
2,62,90,18
2,64,96,26
2,64,107,112
2,67,78,38
2,69,87,24
2,66,117,98
2,62,90,20
2,66,102,12
2,69,96,76
2,67,82,234
2,64,103,38
2,67,90,10
2,74,85,96
2,72,107,78
2,71,87,0
2,79,109,6
2,79,100,150
2,79,109,150
2,79,103,150
2,79,109,58
2,62,92,170
2,66,90,28
2,68,112,6
2,71,113,84
2,74,100,84
2,78,118,80
2,74,92,80
2,78,86,64
2,78,110,4
2,79,110,10
2,80,112,30
2,62,95,818
2,66,100,4
2,68,106,2
2,71,103,84
2,74,97,74
2,78,118,68
2,74,95,72
2,78,110,58
2,79,79,0
2,80,86,30
2,76,117,96
2,78,112,4
2,76,69,30
2,74,105,26
2,71,103,4
2,62,86,3204
2,66,95,34
2,68,90,38
2,71,103,86
2,74,100,66
2,78,112,68
2,74,109,72
2,78,71,58
2,79,74,24
2,80,86,16
2,76,97,88
2,83,103,472
2,79,109,138
2,76,106,164
2,74,113,488
2,71,103,6
2,69,100,5028
2,70,95,34
2,69,71,38
2,67,82,70
2,70,95,134
2,71,76,46
2,74,82,36
2,69,68,16
2,70,90,46
2,69,64,10
2,67,76,4
2,69,77,12
2,67,88,298
2,64,58,26
2,62,69,26
2,67,82,32
2,64,60,12
2,64,66,50
2,67,70,192
2,64,49,4
2,81,113,3492
2,79,117,224
2,74,106,138
2,76,84,0
2,79,103,16
2,76,95,10
2,74,103,4
2,69,100,132
2,70,95,42
2,71,86,42
2,76,90,6
2,71,77,46
2,70,53,4
2,69,74,14
2,67,76,12
2,69,92,16
2,67,103,14
2,64,95,16
2,64,106,122
2,76,109,2824
2,78,117,80
2,67,97,70
2,71,100,78
2,71,95,78
2,70,118,78
2,73,106,80
2,70,112,78
2,71,86,78
2,71,90,78
2,66,95,78
2,67,92,78
2,66,112,80
2,74,117,1520
2,76,103,68
2,67,113,68
2,71,113,74
2,74,109,72
2,73,118,68
2,69,113,38
2,67,113,168
2,69,109,78
2,64,97,78
2,67,103,78
2,66,118,80
2,62,113,44
2,69,122,1430
2,81,106,126
2,73,126,92
2,74,92,12
2,73,76,48
2,69,77,30
2,66,126,228
2,67,80,42
2,66,73,64
2,62,69,20
2,69,103,1434
2,71,110,54
2,74,92,70
2,76,95,58
2,79,97,64
2,83,110,78
2,79,117,106
2,81,120,16
2,74,117,1132
2,73,126,60
2,71,122,60
2,69,113,444
2,68,126,348
2,71,113,444
2,66,127,152
2,74,109,4374
2,73,106,54
2,71,122,54
2,69,117,436
2,68,127,342
2,71,117,630
2,66,126,150
2,57,100,3690
2,59,90,24
2,62,92,20
2,62,109,106
2,59,106,60
2,62,92,14
2,64,100,46
2,64,103,92
2,64,97,48
2,66,112,26
2,62,109,66
2,66,100,28
2,69,103,36
2,62,103,60
2,64,86,42
2,67,109,38
2,64,88,12
2,67,103,10
2,67,103,54
2,69,80,32
2,64,103,90
2,66,95,26
2,57,113,62
2,59,117,32
2,62,103,18
2,62,117,112
2,57,113,102
2,59,86,36
2,62,100,58
2,64,106,70
2,64,103,106
2,64,100,44
2,66,95,24
2,63,118,60
2,66,112,28
2,71,106,48
2,64,117,64
2,67,113,38
2,74,109,76
2,74,117,1790
2,71,113,108
2,69,106,118
2,67,106,118
2,62,106,118
2,67,109,26
2,64,117,26
3,57,113,52806
3,59,86,2
3,62,95,8
3,62,103,98
3,59,103,12
3,62,97,286
3,64,100,10
3,64,106,112
3,64,90,48
3,66,112,32
3,62,95,14
3,66,100,6
3,69,106,36
3,64,95,32
3,67,100,20
3,69,80,6
3,67,90,12
3,67,88,50
3,69,88,40
3,64,103,106
3,66,106,24
3,57,113,38
3,59,95,10
3,62,100,12
3,62,109,84
3,59,113,52
3,62,100,16
3,64,106,22
3,64,117,108
3,67,88,38
3,69,97,26
3,66,127,96
3,62,100,20
3,66,112,10
3,69,106,74
3,67,92,236
3,64,113,32
3,67,100,10
3,74,95,94
3,72,117,78
3,71,97,4
3,79,92,3932
3,74,92,0
3,76,92,14
3,71,92,0
3,74,97,16
3,69,97,4
3,71,95,22
3,66,95,0
3,69,80,30
3,64,80,0
3,67,82,6
3,62,82,4
3,64,86,20
3,59,86,0
3,67,100,100
3,62,100,0
3,64,97,16
3,59,97,0
3,69,95,20
3,64,95,0
3,67,90,16
3,62,90,0
3,64,100,20
3,59,100,2
3,79,92,4326
3,74,92,0
3,76,92,14
3,71,92,0
3,74,97,16
3,69,97,0
3,71,95,22
3,66,95,0
3,69,80,30
3,64,80,0
3,67,82,6
3,62,82,4
3,64,86,20
3,59,86,0
3,67,100,100
3,62,100,0
3,64,97,16
3,59,97,4
3,69,95,24
3,64,95,0
3,67,90,16
3,62,90,0
3,64,100,22
3,59,100,0
3,79,106,29120
3,76,113,1308
3,74,106,16
3,76,106,30
3,85,126,4910
3,79,106,0
3,69,100,844
