track,note,velocity,time
1,65,125,18800
1,77,127,0
1,65,0,40
1,77,0,0
1,77,127,80
1,65,127,0
1,78,125,60
1,66,109,0
1,77,0,20
1,65,0,0
1,79,127,40
1,67,127,0
1,78,0,20
1,66,0,0
1,79,0,220
1,67,0,0
1,65,125,19680
1,77,127,0
1,65,0,40
1,77,0,0
1,77,127,80
1,65,127,0
1,78,125,60
1,66,109,0
1,77,0,20
1,65,0,0
1,79,127,40
1,67,127,0
1,78,0,20
1,66,0,0
1,79,0,220
1,67,0,0
1,68,125,23520
1,80,127,0
1,68,0,40
1,80,0,0
1,80,127,80
1,68,127,0
1,81,125,60
1,69,109,0
1,80,0,20
1,68,0,0
1,82,127,40
1,70,127,0
1,81,0,20
1,69,0,0
1,82,0,220
1,70,0,0
1,65,125,18720
1,77,127,0
1,65,0,40
1,77,0,0
1,77,127,80
1,65,127,0
1,78,125,60
1,66,109,0
1,77,0,20
1,65,0,0
1,79,127,40
1,67,127,0
1,78,0,20
1,66,0,0
1,79,0,220
1,67,0,0
2,64,125,1830
2,64,0,800
2,70,119,60
2,70,0,100
2,72,116,130
2,72,0,690
2,74,127,140
2,74,0,800
2,77,119,40
2,77,0,120
2,74,111,130
2,74,0,600
2,62,81,4190
2,62,0,30
2,67,114,80
2,65,119,130
2,67,0,30
2,65,0,510
2,62,93,1140
2,62,0,30
2,67,114,90
2,65,114,110
2,67,0,20
2,65,0,440
2,67,102,40
2,67,0,40
2,67,104,1160
2,67,0,30
2,72,118,80
2,70,114,120
2,72,0,10
2,70,0,530
2,67,90,1150
2,67,0,20
2,72,116,90
2,70,114,120
2,72,0,10
2,70,0,560
2,71,116,1250
2,67,114,0
2,71,0,300
2,67,0,0
2,67,102,40
2,71,114,0
2,67,0,50
2,71,0,0
2,72,121,560
2,67,127,0
2,72,0,320
2,67,0,0
2,67,109,30
2,72,116,0
2,67,0,50
2,72,0,0
2,71,116,560
2,74,112,0
2,71,0,320
2,74,0,0
2,74,102,40
2,71,111,0
2,74,0,40
2,71,0,0
2,76,107,550
2,67,112,0
2,72,121,0
2,76,0,330
2,67,0,0
2,72,0,0
2,76,111,50
2,72,118,0
2,67,116,0
2,76,0,40
2,72,0,0
2,67,0,0
2,79,127,300
2,74,127,0
2,79,0,130
2,74,0,0
2,67,127,830
2,67,0,820
2,70,112,20
2,70,0,130
2,72,121,120
2,72,0,750
2,74,127,90
2,74,0,790
2,77,122,60
2,77,0,100
2,74,123,130
2,74,0,610
2,67,97,2270
2,67,0,30
2,72,125,90
2,70,117,120
2,72,0,10
2,72,107,450
2,70,0,10
2,72,0,30
2,62,101,1170
2,62,0,40
2,67,118,70
2,65,110,120
2,67,0,20
2,65,0,520
2,62,76,1150
2,62,0,30
2,67,121,80
2,71,114,10
2,71,0,110
2,69,72,0
2,65,103,10
2,67,0,20
2,69,0,560
2,65,0,0
2,67,72,1110
2,67,0,20
2,72,121,90
2,76,116,0
2,76,0,120
2,74,74,0
2,70,101,10
2,72,0,20
2,74,0,430
2,70,0,0
2,72,101,0
2,76,85,10
2,72,0,20
2,76,0,0
2,67,77,1190
2,67,0,20
2,72,125,100
2,76,116,0
2,76,0,120
2,74,78,0
2,70,103,10
2,72,0,20
2,74,0,430
2,72,97,20
2,76,104,0
2,70,0,10
2,72,0,20
2,76,0,0
2,74,111,1310
2,71,121,0
2,67,116,0
2,74,0,290
2,71,0,0
2,67,0,0
2,74,112,40
2,67,125,0
2,71,127,0
2,74,0,60
2,67,0,0
2,71,0,0
2,72,121,560
2,67,118,0
2,76,116,0
2,72,0,350
2,67,0,0
2,76,0,0
2,76,107,10
2,72,116,0
2,67,111,0
2,76,0,40
2,72,0,0
2,67,0,0
2,71,116,550
2,74,125,0
2,79,116,10
2,71,0,320
2,74,0,0
2,79,0,0
2,71,109,30
2,74,118,0
2,79,114,0
2,71,0,40
2,74,0,0
2,79,0,0
2,76,123,580
2,79,118,0
2,72,118,0
2,76,0,310
2,79,0,0
2,72,0,0
2,76,114,40
2,79,112,0
2,72,127,0
2,76,0,40
2,79,0,0
2,72,0,0
2,71,118,330
2,74,127,0
2,79,127,0
2,71,0,110
2,74,0,0
2,79,0,0
2,67,127,830
2,67,0,810
2,70,122,40
2,70,0,110
2,72,127,130
2,72,0,690
2,74,127,150
2,74,0,790
2,77,119,50
2,77,0,110
2,74,116,130
2,74,0,120
2,72,123,120
2,72,0,110
2,70,119,120
2,70,0,130
2,69,123,230
2,57,93,0
2,59,76,50
2,71,96,10
2,69,0,10
2,57,0,0
2,60,83,40
2,59,0,10
2,71,0,0
2,72,100,0
2,59,82,60
2,71,104,0
2,60,0,10
2,72,0,0
2,59,0,30
2,71,0,20
2,69,118,0
2,57,111,0
2,69,0,510
2,57,0,0
2,71,127,210
2,59,109,0
2,71,0,60
2,59,0,0
2,60,78,0
2,72,101,0
2,62,78,50
2,74,97,0
2,60,0,10
2,72,0,0
2,72,104,50
2,60,82,10
2,62,0,10
2,74,0,0
2,72,0,40
2,60,0,0
2,59,105,0
2,71,118,0
2,59,0,510
2,71,0,0
2,60,102,220
2,72,127,10
2,74,97,50
2,60,0,10
2,72,0,0
2,62,78,0
2,61,62,0
2,61,0,20
2,75,89,20
2,74,0,10
2,62,0,20
2,63,89,0
2,74,98,40
2,62,84,10
2,75,0,10
2,63,0,0
2,74,0,40
2,62,0,0
2,72,125,0
2,60,116,0
2,72,0,490
2,60,0,20
2,79,117,210
2,73,123,0
2,82,119,0
2,79,0,140
2,73,0,0
2,82,0,0
2,81,112,340
2,72,125,0
2,78,127,0
2,81,0,150
2,72,0,0
2,78,0,0
2,67,98,2370
2,67,0,40
2,72,116,80
2,70,114,130
2,72,0,10
2,72,105,460
2,70,0,20
2,72,0,0
2,62,88,1180
2,62,0,30
2,67,118,90
2,71,111,0
2,71,0,110
2,69,70,0
2,65,103,10
2,67,0,30
2,69,0,490
2,65,0,0
2,62,82,1160
2,62,0,20
2,67,118,100
2,71,112,0
2,71,0,120
2,69,75,0
2,65,101,0
2,67,0,30
2,69,0,420
2,67,94,20
2,71,92,0
2,65,0,10
2,67,0,20
2,71,0,0
2,67,83,1190
2,67,0,20
2,76,114,100
2,72,118,0
2,76,0,110
2,74,75,0
2,70,101,10
2,72,0,20
2,74,0,420
2,72,93,10
2,76,86,0
2,70,0,10
2,72,0,20
2,76,0,0
2,67,76,1190
2,67,0,20
2,72,123,100
2,76,127,0
2,76,0,120
2,74,73,0
2,70,101,10
2,72,0,20
2,74,0,430
2,72,86,20
2,70,0,10
2,76,86,0
2,72,0,20
2,76,0,0
2,77,114,1300
2,82,121,0
2,74,114,0
2,77,0,330
2,82,0,0
2,74,0,0
2,77,112,40
2,82,112,0
2,74,114,0
2,77,0,40
2,82,0,0
2,74,0,0
2,79,118,550
2,75,114,0
2,82,121,0
2,79,0,350
2,75,0,0
2,82,0,0
2,82,111,20
2,75,111,0
2,79,121,0
2,82,0,40
2,75,0,0
2,79,0,0
2,74,123,550
2,71,112,0
2,79,118,0
2,74,0,330
2,71,0,0
2,79,0,0
2,74,114,40
2,71,109,0
2,79,116,0
2,74,0,30
2,71,0,0
2,79,0,0
2,76,125,550
2,79,125,0
2,72,127,0
2,76,0,300
2,79,0,0
2,72,0,0
2,79,112,40
2,76,121,0
2,72,109,0
2,79,0,60
2,76,0,0
2,72,0,0
2,57,93,330
2,69,123,0
2,59,76,50
2,71,96,10
2,57,0,10
2,69,0,0
2,60,83,40
2,59,0,10
2,71,0,0
2,72,100,0
2,59,82,60
2,71,104,0
2,60,0,10
2,72,0,0
2,59,0,30
2,71,0,20
2,69,118,0
2,57,111,0
2,69,0,510
2,57,0,0
2,59,109,210
2,71,127,0
2,59,0,60
2,71,0,0
2,60,78,0
2,72,101,0
2,62,78,50
2,74,97,0
2,60,0,10
2,72,0,0
2,72,104,50
2,60,82,10
2,62,0,10
2,74,0,0
2,72,0,40
2,60,0,0
2,59,105,0
2,71,118,0
2,59,0,510
2,71,0,0
2,60,102,220
2,72,127,10
2,74,97,50
2,60,0,10
2,72,0,0
2,62,78,0
2,61,62,0
2,61,0,20
2,75,89,20
2,74,0,10
2,62,0,20
2,63,89,0
2,74,98,40
2,62,84,10
2,75,0,10
2,63,0,0
2,74,0,40
2,62,0,0
2,72,125,0
2,60,116,0
2,72,0,490
2,60,0,20
2,82,119,210
2,73,123,0
2,79,117,0
2,82,0,140
2,73,0,0
2,79,0,0
2,81,112,340
2,72,125,0
2,78,127,0
2,81,0,150
2,72,0,0
2,78,0,0
2,62,81,4280
2,62,0,30
2,67,114,80
2,65,119,130
2,67,0,30
2,65,0,510
2,62,93,1140
2,62,0,30
2,67,114,90
2,65,114,110
2,67,0,20
2,65,0,440
2,67,102,40
2,67,0,40
2,67,104,1160
2,67,0,30
2,72,118,80
2,70,114,120
2,72,0,10
2,70,0,530
2,67,90,1150
2,67,0,20
2,72,116,90
2,70,114,120
2,72,0,10
2,70,0,560
2,71,116,1250
2,67,114,0
2,71,0,300
2,67,0,0
2,67,102,40
2,71,114,0
2,67,0,50
2,71,0,0
2,72,121,560
2,67,127,0
2,72,0,320
2,67,0,0
2,67,109,30
2,72,116,0
2,67,0,50
2,72,0,0
2,71,116,560
2,74,112,0
2,71,0,320
2,74,0,0
2,74,102,40
2,71,111,0
2,74,0,40
2,71,0,0
2,76,107,550
2,67,112,0
2,72,121,0
2,76,0,330
2,67,0,0
2,72,0,0
2,76,111,50
2,72,118,0
2,67,116,0
2,76,0,40
2,72,0,0
2,67,0,0
2,74,127,310
2,71,125,0
2,79,127,0
2,74,0,90
2,71,0,0
2,79,0,0
2,67,127,870
2,67,0,810
2,70,117,50
2,70,0,100
2,72,123,140
2,72,0,680
2,74,127,140
2,74,0,780
2,77,125,70
2,77,0,110
2,74,114,130
2,74,0,110
2,72,121,120
2,72,0,110
2,70,119,120
2,70,0,280
2,65,112,340
2,71,121,0
2,74,112,0
2,65,0,320
2,71,0,0
2,74,0,0
2,74,96,40
2,65,108,0
2,71,107,0
2,74,0,50
2,65,0,0
2,71,0,0
2,72,112,540
2,76,107,0
2,67,104,0
2,72,0,330
2,76,0,0
2,67,0,0
2,67,104,30
2,76,102,0
2,72,116,0
2,67,0,40
2,76,0,0
2,72,0,0
2,65,117,580
2,74,111,0
2,71,118,0
2,65,0,290
2,74,0,0
2,71,0,0
2,74,97,40
2,71,109,0
2,65,104,0
2,74,0,50
2,71,0,0
2,65,0,0
2,72,121,550
2,76,114,0
2,67,116,0
2,72,0,340
2,76,0,0
2,67,0,0
2,72,116,40
2,76,102,0
2,67,109,0
2,72,0,40
2,76,0,0
2,67,0,0
2,70,103,540
2,65,114,0
2,74,112,0
2,71,127,0
2,70,0,10
2,65,0,320
2,74,0,0
2,71,0,0
2,71,111,40
2,65,108,0
2,74,107,0
2,71,0,50
2,65,0,0
2,74,0,0
2,74,111,550
2,70,122,0
2,67,114,0
2,74,0,330
2,70,0,0
2,67,0,0
2,74,111,40
2,70,112,0
2,67,104,0
2,74,0,40
2,70,0,0
2,67,0,0
2,70,87,550
2,65,112,0
2,74,111,0
2,71,127,0
2,70,0,10
2,65,0,300
2,74,0,0
2,71,0,0
2,74,102,50
2,71,109,0
2,65,106,0
2,74,0,40
2,71,0,0
2,65,0,0
2,70,119,560
2,76,114,0
2,67,109,0
2,70,0,330
2,76,0,0
2,67,0,0
2,70,117,50
2,67,111,0
2,76,114,0
2,70,0,30
2,67,0,0
2,76,0,20
2,67,127,290
2,67,0,820
2,70,119,30
2,70,0,110
2,72,121,130
2,72,0,700
2,74,123,140
2,74,0,770
2,77,122,60
2,77,0,120
2,74,118,120
2,74,0,120
2,72,121,130
2,72,0,100
2,70,122,140
2,70,0,170
2,74,127,210
2,67,121,0
2,79,121,0
2,79,0,120
2,74,0,20
2,67,0,30
3,70,127,2760
3,70,0,110
3,72,127,130
3,72,0,670
3,73,127,170
3,74,127,20
3,73,0,20
3,74,0,730
3,77,127,80
3,77,0,100
3,74,127,130
3,74,0,790
3,62,107,3990
3,62,0,30
3,67,127,100
3,65,127,130
3,67,0,10
3,65,0,520
3,62,118,1160
3,62,0,30
3,67,127,80
3,65,122,110
3,67,0,20
3,65,0,580
3,67,100,1080
3,67,0,20
3,72,127,100
3,70,127,120
3,72,0,20
3,70,0,590
3,67,122,1070
3,67,0,30
3,72,127,90
3,70,127,120
3,72,0,30
3,70,0,560
3,71,111,1220
3,65,96,0
3,71,0,340
3,65,0,0
3,65,96,30
3,71,127,0
3,65,0,40
3,71,0,0
3,72,119,550
3,67,109,0
3,72,0,310
3,67,0,0
3,67,123,40
3,72,127,0
3,67,0,40
3,72,0,0
3,65,114,580
3,71,127,0
3,65,0,310
3,71,0,0
3,71,127,30
3,65,127,0
3,71,0,40
3,65,0,0
3,72,127,570
3,67,127,0
3,72,0,310
3,67,0,0
3,67,127,50
3,72,127,0
3,67,0,50
3,72,0,20
3,67,127,280
3,55,125,0
3,67,0,90
3,55,0,20
3,67,127,850
3,67,0,810
3,70,127,30
3,70,0,130
3,72,127,110
3,72,0,690
3,74,127,160
3,74,0,810
3,77,127,40
3,77,0,110
3,74,127,130
3,74,0,770
3,67,119,2100
3,67,0,20
3,72,127,100
3,70,126,110
3,72,0,10
3,70,0,590
3,62,101,1080
3,62,0,40
3,67,127,80
3,65,127,120
3,67,0,10
3,65,0,400
3,62,109,1260
3,62,0,30
3,67,127,90
3,65,127,120
3,67,0,20
3,65,0,570
3,67,110,1100
3,67,0,30
3,72,127,90
3,70,127,120
3,72,0,30
3,72,124,470
3,70,0,10
3,72,0,0
3,67,96,1170
3,67,0,20
3,72,127,100
3,70,127,130
3,72,0,10
3,70,0,600
3,71,127,1190
3,65,127,0
3,71,0,340
3,65,0,0
3,65,122,20
3,71,127,0
3,65,0,30
3,71,0,0
3,72,127,570
3,67,127,0
3,72,0,340
3,67,0,0
3,67,127,20
3,72,127,0
3,67,0,30
3,72,0,0
3,65,127,570
3,71,127,0
3,65,0,350
3,71,0,0
3,65,127,10
3,71,125,0
3,65,0,40
3,71,0,0
3,72,127,560
3,67,127,0
3,72,0,350
3,67,0,0
3,67,127,10
3,72,127,0
3,67,0,100
3,72,0,0
3,67,127,260
3,79,127,0
3,67,0,110
3,79,0,0
3,67,127,850
3,67,0,770
3,70,127,60
3,70,0,110
3,72,127,130
3,72,0,660
3,74,127,190
3,74,0,780
3,77,127,60
3,77,0,110
3,74,127,130
3,74,0,120
3,72,127,120
3,72,0,110
3,70,127,120
3,70,0,150
3,57,118,210
3,69,127,10
3,59,111,50
3,71,120,0
3,57,0,10
3,69,0,0
3,59,0,50
3,71,0,0
3,72,115,0
3,60,118,0
3,71,123,60
3,59,107,10
3,72,0,10
3,60,0,0
3,69,127,40
3,71,0,10
3,59,0,0
3,57,127,0
3,69,0,530
3,57,0,0
3,59,127,180
3,71,127,10
3,60,107,40
3,72,121,10
3,59,0,20
3,71,0,0
3,62,111,20
3,60,0,10
3,74,118,10
3,72,0,10
3,60,117,40
3,72,123,10
3,62,0,10
3,74,0,20
3,60,0,30
3,71,127,0
3,59,127,0
3,72,0,20
3,71,0,480
3,59,0,0
3,60,115,200
3,72,127,10
3,60,0,70
3,72,0,0
3,74,126,0
3,62,109,0
3,75,116,50
3,63,113,0
3,74,0,10
3,62,0,0
3,74,127,50
3,62,111,0
3,75,0,10
3,63,0,0
3,74,0,50
3,62,0,0
3,60,125,0
3,72,127,0
3,60,0,500
3,72,0,0
3,63,127,230
3,75,127,0
3,63,0,120
3,75,0,0
3,74,127,340
3,62,127,0
3,74,0,120
3,62,0,0
3,67,127,2420
3,67,0,30
3,72,127,90
3,70,127,120
3,72,0,20
3,70,0,510
3,62,111,1150
3,62,0,30
3,67,127,90
3,65,127,120
3,67,0,20
3,65,0,360
3,62,105,1300
3,62,0,20
3,67,127,100
3,65,127,130
3,67,0,10
3,65,0,420
3,67,113,1240
3,67,0,20
3,72,127,100
3,70,127,120
3,72,0,20
3,72,115,460
3,70,0,20
3,72,0,0
