track,note,velocity,time
1,33,127,148992
1,36,127,30
1,38,127,40
1,36,127,44
1,33,127,30
2,33,101,29180
2,33,91,156
2,33,100,70
2,33,82,158
2,33,98,58
2,33,82,132
2,33,101,64
2,33,87,152
2,33,98,56
2,33,82,152
2,33,98,56
2,33,84,154
2,33,98,62
2,33,82,146
2,33,100,56
2,33,81,156
2,33,101,54
2,33,91,156
2,33,100,70
2,33,82,158
2,33,98,58
2,33,82,132
2,33,101,64
2,33,87,152
2,33,98,56
2,33,82,152
2,33,98,56
2,33,84,154
2,33,98,62
2,33,82,146
2,33,100,56
2,33,81,156
2,33,101,54
2,33,91,156
2,33,100,70
2,33,82,158
2,33,98,58
2,33,82,132
2,33,101,64
2,36,87,152
2,36,98,56
2,38,82,152
2,38,98,56
2,38,84,154
2,38,98,62
2,38,82,146
2,38,100,56
2,28,81,156
2,28,101,54
2,28,91,156
2,28,100,70
2,28,82,158
2,28,98,58
2,28,82,132
2,28,101,64
2,43,87,152
2,43,98,56
2,40,82,152
2,40,98,56
2,38,84,154
2,38,98,62
2,36,82,146
2,36,100,56
2,33,81,156
2,33,101,54
2,33,91,156
2,33,100,70
2,33,82,158
2,33,98,58
2,33,82,132
2,33,101,64
2,36,87,152
2,36,98,56
2,38,82,152
2,38,98,56
2,38,84,154
2,38,98,62
2,38,82,146
2,38,100,56
2,28,81,156
2,28,101,54
2,28,91,156
2,28,100,70
2,28,82,158
2,28,98,58
2,28,82,132
2,28,101,64
2,43,87,152
2,43,98,56
2,40,82,152
2,40,98,56
2,38,84,154
2,38,98,62
2,36,82,146
2,36,100,56
2,33,81,156
2,33,101,54
2,33,91,156
2,33,100,70
2,33,82,158
2,33,98,58
2,33,82,132
2,33,101,64
2,33,87,152
2,33,98,56
2,33,82,152
2,33,98,56
2,33,84,154
2,33,98,62
2,33,82,146
2,33,100,56
2,33,81,156
2,38,101,54
2,38,91,156
2,38,100,70
2,38,82,158
2,38,98,58
2,38,82,132
2,38,101,64
2,38,87,152
2,38,98,56
2,38,82,152
2,38,98,56
2,38,84,154
2,38,98,62
2,38,82,146
2,38,100,56
2,38,81,156
2,38,101,54
2,38,91,156
2,38,100,70
2,38,82,158
2,38,98,58
2,38,82,132
2,38,101,64
2,38,87,152
2,38,98,56
2,38,82,152
2,38,98,56
2,38,84,154
2,38,98,62
2,38,82,146
2,38,100,56
2,38,81,156
2,33,101,54
2,33,91,156
2,33,100,70
2,33,82,158
2,33,98,58
2,33,82,132
2,33,101,64
2,33,87,152
2,33,98,56
2,33,82,152
2,33,98,56
2,33,84,154
2,33,98,62
2,33,82,146
2,33,100,56
2,33,81,156
2,33,101,54
2,33,91,156
2,33,100,70
2,33,82,158
2,33,98,58
2,33,82,132
2,33,101,64
2,33,87,152
2,33,98,56
2,33,82,152
2,33,98,56
2,33,84,154
2,33,98,62
2,33,82,146
2,33,100,56
2,33,81,156
2,38,101,54
2,38,91,156
2,38,100,70
2,38,82,158
2,38,98,58
2,38,82,132
2,38,101,64
2,38,87,152
2,38,98,56
2,38,82,152
2,38,98,56
2,38,84,154
2,38,98,62
2,38,82,146
2,38,100,56
2,38,81,156
2,38,101,54
2,38,91,156
2,38,100,70
2,38,82,158
2,38,98,58
2,38,82,132
2,38,101,64
2,38,87,152
2,38,98,56
2,38,82,152
2,38,98,56
2,38,84,154
2,38,98,62
2,38,82,146
2,38,100,56
2,38,81,156
2,33,101,54
2,33,91,156
2,33,100,70
2,33,82,158
2,33,98,58
2,33,82,132
2,33,101,64
2,33,87,152
2,38,98,54
2,38,82,152
2,38,98,56
2,38,84,154
2,38,98,62
2,38,82,146
2,38,100,56
2,38,81,156
2,33,101,56
2,33,91,156
2,33,100,70
2,33,82,158
2,33,98,58
2,33,82,132
2,33,101,64
2,33,87,152
2,38,98,54
2,38,82,152
2,38,98,56
2,38,84,154
2,38,98,62
2,38,82,146
2,38,100,56
2,38,81,156
2,45,98,56
2,45,75,66
2,45,91,66
2,43,69,62
2,43,82,66
2,43,91,66
2,40,61,58
2,40,82,66
2,40,91,66
2,38,75,58
2,38,87,68
2,38,91,70
2,33,100,46
2,33,101,1446
2,33,91,156
2,33,100,70
2,33,82,158
2,33,98,58
2,33,82,132
2,33,101,64
2,36,87,152
2,36,98,56
2,38,82,152
2,38,98,56
2,38,84,154
2,38,98,62
2,38,82,146
2,38,100,56
2,28,81,156
2,28,101,54
2,28,91,156
2,28,100,70
2,28,82,158
2,28,98,58
2,28,82,132
2,28,101,64
2,43,87,152
2,43,98,56
2,40,82,152
2,40,98,56
2,38,84,154
2,38,98,62
2,36,82,146
2,36,100,56
2,33,81,156
2,33,101,54
2,33,91,156
2,33,100,70
2,33,82,158
2,33,98,58
2,33,82,132
2,33,101,64
2,36,87,152
2,36,98,56
2,38,82,152
2,38,98,56
2,38,84,154
2,38,98,62
2,38,82,146
2,38,100,56
2,28,81,156
2,28,101,54
2,28,91,156
2,28,100,70
2,28,82,158
2,28,98,58
2,28,82,132
2,28,101,64
2,43,87,152
2,43,98,56
2,40,82,152
2,40,98,56
2,38,84,154
2,38,98,62
2,36,82,146
2,36,100,56
2,33,81,156
2,33,101,54
2,33,91,156
2,33,100,70
2,33,82,158
2,33,98,58
2,33,82,132
2,33,101,64
2,33,87,152
2,33,98,56
2,33,82,152
2,33,98,56
2,33,84,154
2,33,98,62
2,33,82,146
2,33,100,56
2,33,81,156
2,38,101,54
2,38,91,156
2,38,100,70
2,38,82,158
2,38,98,58
2,38,82,132
2,38,101,64
2,38,87,152
2,38,98,56
2,38,82,152
2,38,98,56
2,38,84,154
2,38,98,62
2,38,82,146
2,38,100,56
2,38,81,156
2,38,101,54
2,38,91,156
2,38,100,70
2,38,82,158
2,38,98,58
2,38,82,132
2,38,101,64
2,38,87,152
2,38,98,56
2,38,82,152
2,38,98,56
2,38,84,154
2,38,98,62
2,38,82,146
2,38,100,56
2,38,81,156
2,33,101,54
2,33,91,156
2,33,100,70
2,33,82,158
2,33,98,58
2,33,82,132
2,33,101,64
2,33,87,152
2,33,98,56
2,33,82,152
2,33,98,56
2,33,84,154
2,33,98,62
2,33,82,146
2,33,100,56
2,33,81,156
2,33,101,54
2,33,91,156
2,33,100,70
2,33,82,158
2,33,98,58
2,33,82,132
2,33,101,64
2,33,87,152
2,33,98,56
2,33,82,152
2,33,98,56
2,33,84,154
2,33,98,62
2,33,82,146
2,33,100,56
2,33,81,156
2,38,101,54
2,38,91,156
2,38,100,70
2,38,82,158
2,38,98,58
2,38,82,132
2,38,101,64
2,38,87,152
2,38,98,56
2,38,82,152
2,38,98,56
2,38,84,154
2,38,98,62
2,38,82,146
2,38,100,56
2,38,81,156
2,38,101,54
2,38,91,156
2,38,100,70
2,38,82,158
2,38,98,58
2,38,82,132
2,38,101,64
2,38,87,152
2,38,98,56
2,38,82,152
2,38,98,56
2,38,84,154
2,38,98,62
2,38,82,146
2,38,100,56
2,38,81,156
2,33,101,54
2,33,91,156
2,33,100,70
2,33,82,158
2,33,98,58
2,33,82,132
2,33,101,64
2,33,87,152
2,38,98,54
2,38,82,152
2,38,98,56
2,38,84,154
2,38,98,62
2,38,82,146
2,38,100,56
2,38,81,156
2,33,101,56
2,33,91,156
2,33,100,70
2,33,82,158
2,33,98,58
2,33,82,132
2,33,101,64
2,33,87,152
2,38,98,54
2,38,82,152
2,38,98,56
2,38,84,154
2,38,98,62
2,38,82,146
2,38,100,56
2,38,81,156
2,45,98,56
2,45,75,66
2,45,91,66
2,43,69,62
2,43,82,66
2,43,91,66
2,40,61,58
2,40,82,66
2,40,91,66
2,38,75,58
2,38,87,68
2,38,91,70
2,33,100,46
2,33,101,1446
2,33,91,156
2,33,100,70
2,33,82,158
2,33,98,58
2,33,82,132
2,33,101,64
2,36,87,152
2,36,98,56
2,38,82,152
2,38,98,56
2,38,84,154
2,38,98,62
2,38,82,146
2,38,100,56
2,28,81,156
2,28,101,54
2,28,91,156
2,28,100,70
2,28,82,158
2,28,98,58
2,28,82,132
2,28,101,64
2,43,87,152
2,43,98,56
2,40,82,152
2,40,98,56
2,38,84,154
2,38,98,62
2,36,82,146
2,36,100,56
2,33,81,156
2,33,101,54
2,33,91,156
2,33,100,70
2,33,82,158
2,33,98,58
2,33,82,132
2,33,101,64
2,36,87,152
2,36,98,56
2,38,82,152
2,38,98,56
2,38,84,154
2,38,98,62
2,38,82,146
2,38,100,56
2,28,81,156
2,28,101,54
2,28,91,156
2,28,100,70
2,28,82,158
2,28,98,58
2,28,82,132
2,28,101,64
2,43,87,152
2,43,98,56
2,40,82,152
2,40,98,56
2,38,84,154
2,38,98,62
2,36,82,146
2,36,100,56
2,33,81,156
2,35,101,21558
2,35,91,114
2,35,100,70
2,35,82,158
2,35,98,58
2,35,82,132
2,35,101,64
2,35,87,152
2,37,98,56
2,37,82,116
2,37,98,56
2,37,84,154
2,37,98,62
2,37,82,146
2,37,100,56
2,37,81,156
2,38,101,54
2,38,91,104
2,38,100,70
2,38,82,158
2,38,98,58
2,38,82,132
2,38,101,64
2,38,87,152
2,29,98,54
2,29,96,90
2,28,101,1196
2,28,98,96
2,38,101,1200
2,38,91,156
2,38,100,70
2,38,82,158
2,38,98,58
2,38,82,132
2,38,101,64
2,38,87,152
2,38,98,56
2,38,82,152
2,38,98,56
2,38,84,154
2,38,98,62
2,38,82,146
2,38,100,56
2,38,81,156
2,38,101,54
2,38,91,156
2,38,100,70
2,38,82,158
2,38,98,58
2,38,82,132
2,38,101,64
2,38,87,152
2,38,98,56
2,38,82,152
2,38,98,56
2,38,84,154
2,38,98,62
2,38,82,146
2,38,100,56
2,38,81,156
2,33,101,54
2,33,91,156
2,33,100,70
2,33,82,158
2,33,98,58
2,33,82,132
2,33,101,64
2,33,87,152
2,33,98,56
2,33,82,152
2,33,98,56
2,33,84,154
2,33,98,62
2,33,82,146
2,33,100,56
2,33,81,156
2,33,101,54
2,33,91,156
2,33,100,70
2,33,82,158
2,33,98,58
2,33,82,132
2,33,101,64
2,33,87,152
2,33,98,56
2,33,82,152
2,33,98,56
2,33,84,154
2,33,98,62
2,33,82,146
2,33,100,56
2,33,81,156
2,38,101,54
2,38,91,156
2,38,100,70
2,38,82,158
2,38,98,58
2,38,82,132
2,38,101,64
2,38,87,152
2,38,98,56
2,38,82,152
2,38,98,56
2,38,84,154
2,38,98,62
2,38,82,146
2,38,100,56
2,38,81,156
2,38,101,54
2,38,91,156
2,38,100,70
2,38,82,158
2,38,98,58
2,38,82,132
2,38,101,64
2,38,87,152
2,38,98,56
2,38,82,152
2,38,98,56
2,38,84,154
2,38,98,62
2,38,82,146
2,38,100,56
2,38,81,156
2,33,101,54
2,33,91,156
2,33,100,70
2,33,82,158
2,33,98,58
2,33,82,132
2,33,101,64
2,33,87,152
2,38,98,54
2,38,82,152
2,38,98,56
2,38,84,154
2,38,98,62
2,38,82,146
2,38,100,56
2,38,81,156
2,33,101,56
2,33,91,156
2,33,100,70
2,33,82,158
2,33,98,58
2,33,82,132
2,33,101,64
2,33,87,152
2,38,98,54
2,38,82,152
2,38,98,56
2,38,84,154
2,38,98,62
2,38,82,146
2,38,100,56
2,38,81,156
2,45,98,56
2,45,75,66
2,45,91,66
2,43,69,62
2,43,82,66
2,43,91,66
2,40,61,58
2,40,82,66
2,40,91,66
2,38,75,58
2,38,87,68
2,38,91,70
2,33,100,46
2,33,101,1446
2,33,91,156
2,33,100,70
2,33,82,158
2,33,98,58
2,33,82,132
2,33,101,64
2,36,87,152
2,36,98,56
2,38,82,152
2,38,98,56
2,38,84,154
2,38,98,62
2,38,82,146
2,38,100,56
2,28,81,156
2,28,101,54
2,28,91,156
2,28,100,70
2,28,82,158
2,28,98,58
2,28,82,132
2,28,101,64
2,43,87,152
2,43,98,56
2,40,82,152
2,40,98,56
2,38,84,154
2,38,98,62
2,36,82,146
2,36,100,56
2,33,81,156
2,33,101,54
2,33,91,156
2,33,100,70
2,33,82,158
2,33,98,58
2,33,82,132
2,33,101,64
2,36,87,152
2,36,98,56
2,38,82,152
2,38,98,56
2,38,84,154
2,38,98,62
2,38,82,146
2,38,100,56
2,28,81,156
2,28,101,54
2,28,91,156
2,28,100,70
2,28,82,158
2,28,98,58
2,28,82,132
2,28,101,64
2,43,87,152
2,43,98,56
2,40,82,152
2,40,98,56
2,38,84,154
2,38,98,62
2,36,82,146
2,36,100,56
2,33,81,156
2,33,101,54
2,33,91,156
2,33,100,70
2,33,82,158
2,33,98,58
2,33,82,132
2,33,101,64
2,33,87,152
2,38,98,54
2,38,82,152
2,38,98,56
2,38,84,154
2,38,98,62
2,38,82,146
2,38,100,56
2,38,81,156
2,33,101,56
2,33,91,156
2,33,100,70
2,33,82,158
2,33,98,58
2,33,82,132
2,33,101,64
2,33,87,152
2,38,98,54
2,38,82,152
2,38,98,56
2,38,84,154
2,38,98,62
2,38,82,146
2,38,100,56
2,38,81,156
2,33,101,56
2,33,91,156
2,33,100,70
2,33,82,158
2,33,98,58
2,33,82,132
2,33,101,64
2,33,87,152
2,38,98,54
2,38,82,152
2,38,98,56
2,38,84,154
2,38,98,62
2,38,82,146
2,38,100,56
2,38,81,156
2,33,101,56
2,33,91,156
2,33,100,70
2,33,82,40
2,33,98,18
2,33,82,54
2,33,101,46
2,33,87,52
2,38,98,54
2,38,82,90
2,38,98,56
2,38,84,46
2,38,98,18
2,38,82,36
2,38,100,42
2,38,81,86
2,33,101,56
2,33,91,8
2,33,100,52
2,33,82,72
2,33,98,42
2,33,82,70
2,33,101,64
2,33,87,50
2,38,98,54
2,38,82,6
2,38,98,56
2,38,84,108
2,38,98,56
2,38,82,94
2,38,100,56
2,38,81,18
2,33,101,56
2,33,91,102
2,33,100,52
2,33,82,22
2,33,98,58
2,33,82,36
2,33,101,64
2,33,87,60
2,38,98,14
2,38,82,66
2,38,98,56
2,38,84,74
2,38,98,60
2,38,82,34
2,38,100,44
2,38,81,58
2,33,101,56
2,33,91,50
2,33,100,64
2,33,82,90
2,33,98,36
2,33,82,50
2,33,101,64
2,33,87,4
2,38,98,16
2,38,82,72
2,38,98,56
2,38,84,38
2,38,98,62
2,38,82,104
2,38,100,34
2,38,81,80
2,33,101,56
2,33,91,80
2,33,100,70
2,33,82,16
2,33,98,58
2,33,82,132
2,33,101,30
2,33,87,48
2,38,98,54
2,38,82,60
2,38,98,38
2,38,84,12
2,38,98,62
2,38,82,138
2,38,100,56
2,38,81,32
3,49,52,96
3,44,58,0
3,37,73,0
3,35,73,24
3,42,58,0
3,47,52,0
3,33,64,117120
3,36,64,376
3,38,73,348
3,36,56,0
3,33,64,0
4,68,100,27642
4,68,82,62
4,68,91,54
4,66,82,70
4,66,73,44
4,66,82,68
4,63,82,54
4,63,73,62
4,63,91,52
4,61,82,72
4,61,91,44
4,61,91,50
4,66,100,20672
4,69,100,24
4,69,100,56
4,66,91,30
4,71,91,46
4,66,100,62
4,69,100,368
4,71,100,54
4,66,100,56
4,66,100,1530
4,69,100,56
4,71,100,68
4,66,73,332
4,69,100,38
4,69,100,66
4,66,109,48
4,64,64,656
4,66,91,48
4,69,91,26
4,69,109,54
4,66,109,36
4,64,64,1014
4,66,100,48
4,69,91,30
4,69,91,42
4,71,100,38
4,66,100,46
4,66,91,690
4,69,100,52
4,71,109,54
4,66,100,830
4,69,100,40
4,66,109,54
4,66,73,1082
4,73,100,38
4,73,100,64
4,73,91,56
4,71,100,26
4,69,100,20
4,69,100,58
4,69,91,706
4,69,100,64
4,69,100,58
4,66,109,46
4,71,100,744
4,66,109,40
4,66,91,1088
4,73,100,26
4,73,100,60
4,73,91,54
4,71,91,40
4,69,100,30
4,71,100,52
4,66,109,36
4,66,73,294
4,69,100,30
4,69,91,66
4,69,109,50
4,69,100,936
4,69,100,1318
4,69,100,62
4,66,100,10
4,72,100,1024
4,74,109,120
4,76,109,412
4,79,100,194
4,76,100,200
4,74,91,184
4,72,100,170
4,74,61,204
4,72,82,6
4,69,100,0
4,69,100,974
