track,note,velocity,time
0,35,111,764
0,35,111,92
0,38,115,92
0,72,95,380
0,60,91,0
0,72,85,0
0,79,49,0
0,76,51,0
0,72,56,0
0,67,94,0
0,64,94,0
0,60,95,0
0,60,91,0
0,64,89,0
0,67,85,0
0,36,110,0
0,35,115,0
0,42,73,0
0,49,99,0
0,67,85,2
0,36,115,0
0,42,73,0
0,64,89,2
0,36,119,0
0,38,115,0
0,42,74,0
0,74,98,2
0,60,91,0
0,74,82,0
0,79,50,0
0,76,51,0
0,72,56,0
0,67,96,0
0,64,100,0
0,60,99,0
0,60,85,0
0,64,86,0
0,67,82,0
0,36,119,0
0,35,110,0
0,42,79,0
0,67,91,2
0,36,114,0
0,35,118,0
0,42,78,0
0,64,91,2
0,36,114,0
0,42,74,0
0,76,98,2
0,60,85,0
0,76,89,0
0,36,115,0
0,38,110,0
0,42,73,0
0,64,83,2
0,79,45,0
0,76,46,0
0,72,50,0
0,67,102,0
0,64,102,0
0,60,101,0
0,60,88,0
0,64,85,0
0,67,90,0
0,36,112,0
0,42,75,0
0,79,96,2
0,60,82,0
0,79,86,0
0,36,117,0
0,35,112,0
0,42,77,0
0,67,88,2
0,36,118,0
0,42,76,0
0,64,91,2
0,36,113,0
0,38,116,0
0,42,70,0
0,74,100,2
0,60,91,0
0,74,85,0
0,79,49,0
0,76,50,0
0,72,51,0
0,67,95,0
0,64,100,0
0,60,96,0
0,60,83,0
0,64,90,0
0,67,91,0
0,36,119,0
0,35,114,0
0,42,77,0
0,67,87,2
0,36,118,0
0,35,117,0
0,42,72,0
0,64,89,2
0,36,111,0
0,42,71,0
0,76,95,2
0,60,90,0
0,76,89,0
0,40,116,0
0,38,118,0
0,42,75,0
0,64,84,2
0,79,56,0
0,76,56,0
0,72,53,0
0,67,102,0
0,64,98,0
0,60,101,0
0,60,91,0
0,64,90,0
0,67,82,0
0,43,116,0
0,42,74,0
0,72,98,2
0,57,88,0
0,72,91,0
0,45,111,0
0,35,112,0
0,42,74,0
0,64,83,2
0,45,115,0
0,42,77,0
0,60,84,2
0,45,115,0
0,38,117,0
0,42,75,0
0,74,103,2
0,57,91,0
0,74,88,0
0,79,49,0
0,76,54,0
0,72,53,0
0,67,102,0
0,64,95,0
0,60,96,0
0,60,88,0
0,64,85,0
0,67,87,0
0,45,113,0
0,35,119,0
0,42,73,0
0,64,85,2
0,45,113,0
0,35,117,0
0,42,75,0
0,60,86,2
0,45,118,0
0,42,74,0
0,76,100,2
0,57,83,0
0,76,90,0
0,45,112,0
0,38,117,0
0,42,75,0
0,60,89,2
0,79,51,0
0,76,51,0
0,72,53,0
0,67,99,0
0,64,99,0
0,60,95,0
0,60,82,0
0,64,86,0
0,67,86,0
0,45,116,0
0,42,71,0
0,79,102,2
0,57,82,0
0,79,84,0
0,45,119,0
0,35,112,0
0,42,75,0
0,64,85,2
0,45,119,0
0,42,72,0
0,60,84,2
0,45,118,0
0,38,114,0
0,42,72,0
0,74,96,2
0,57,85,0
0,74,84,0
0,79,51,0
0,76,46,0
0,72,53,0
0,67,101,0
0,64,97,0
0,60,95,0
0,60,84,0
0,64,87,0
0,67,85,0
0,45,110,0
0,35,115,0
0,42,78,0
0,64,88,2
0,45,116,0
0,35,119,0
0,42,75,0
0,60,90,2
0,45,115,0
0,42,79,0
0,76,100,2
0,57,82,0
0,76,85,0
0,45,115,0
0,38,118,0
0,42,79,0
0,60,82,2
0,79,49,0
0,76,46,0
0,72,51,0
0,67,94,0
0,64,103,0
0,60,103,0
0,60,82,0
0,64,88,0
0,67,86,0
0,43,112,0
0,42,78,0
0,72,98,2
0,57,89,0
0,72,89,0
0,41,115,0
0,35,112,0
0,42,79,0
0,65,85,2
0,41,118,0
0,42,79,0
0,60,89,2
0,41,115,0
0,38,114,0
0,42,78,0
0,76,101,2
0,57,84,0
0,76,85,0
0,79,50,0
0,76,54,0
0,72,51,0
0,67,100,0
0,64,98,0
0,60,99,0
0,60,84,0
0,64,86,0
0,67,84,0
0,41,116,0
0,35,112,0
0,42,75,0
0,65,87,2
0,41,118,0
0,35,115,0
0,42,77,0
0,60,90,2
0,41,114,0
0,42,77,0
0,72,103,2
0,57,85,0
0,72,90,0
0,41,119,0
0,38,119,0
0,42,73,0
0,60,91,2
0,79,58,0
0,74,54,0
0,72,56,0
0,67,96,0
0,62,100,0
0,60,98,0
0,60,88,0
0,62,89,0
0,67,87,0
0,38,118,0
0,42,75,0
0,74,100,2
0,60,87,0
0,74,85,0
0,43,116,0
0,35,114,0
0,42,75,0
0,67,87,2
0,43,113,0
0,42,70,0
0,62,82,2
0,43,119,0
0,38,118,0
0,42,71,0
0,67,101,2
0,59,84,0
0,67,90,0
0,79,51,0
0,74,50,0
0,71,46,0
0,67,102,0
0,62,94,0
0,59,96,0
0,59,83,0
0,62,85,0
0,67,89,0
0,43,114,0
0,35,114,0
0,42,78,0
0,67,89,2
0,43,111,0
0,35,115,0
0,42,79,0
0,62,91,2
0,43,117,0
0,42,75,0
0,59,85,2
0,43,113,0
0,38,115,0
0,42,75,0
0,62,83,2
0,79,56,0
0,74,54,0
0,71,51,0
0,67,99,0
0,62,100,0
0,59,96,0
0,59,88,0
0,62,86,0
0,67,87,0
0,43,115,0
0,42,75,0
0,74,101,2
0,59,83,0
0,74,83,0
0,43,119,0
0,35,112,0
0,42,77,0
0,67,87,2
0,43,113,0
0,42,78,0
0,62,84,2
0,43,113,0
0,38,112,0
0,42,71,0
0,59,90,2
0,79,51,0
0,74,50,0
0,71,46,0
0,62,95,0
0,59,89,0
0,62,90,0
0,67,89,0
0,43,116,0
0,35,117,0
0,42,77,0
0,67,86,2
0,43,116,0
0,35,116,0
0,42,73,0
0,62,90,2
0,60,99,0
0,43,112,0
0,38,111,0
0,42,73,0
0,59,82,2
0,59,100,0
0,43,115,0
0,38,116,0
0,42,79,0
0,62,87,2
0,79,56,0
0,76,54,0
0,72,51,0
0,60,94,0
0,60,88,0
0,64,83,0
0,67,85,0
0,43,115,0
0,42,75,0
0,45,115,26
0,72,97,2
0,60,86,0
0,72,82,0
0,36,116,0
0,35,112,0
0,42,72,0
0,67,89,2
0,36,110,0
0,42,72,0
0,64,89,2
0,36,111,0
0,38,111,0
0,42,74,0
0,74,102,2
0,60,90,0
0,74,87,0
0,79,51,0
0,76,50,0
0,72,46,0
0,60,88,0
0,64,90,0
0,67,88,0
0,36,112,0
0,35,117,0
0,42,79,0
0,67,91,2
0,62,97,0
0,36,114,0
0,35,115,0
0,42,79,0
0,36,118,100
0,42,76,0
0,76,101,2
0,74,89,0
0,76,87,0
0,36,110,0
0,38,119,0
0,42,72,0
0,79,56,2
0,76,54,0
0,72,51,0
0,64,95,0
0,60,86,0
0,64,85,0
0,67,85,0
0,36,112,0
0,42,76,0
0,79,98,2
0,79,82,0
0,36,118,0
0,35,111,0
0,42,70,0
0,36,112,98
0,42,73,0
0,36,117,72
0,38,116,0
0,42,73,0
0,74,97,2
0,74,86,0
0,79,51,0
0,76,50,0
0,72,46,0
0,60,84,0
0,64,85,0
0,67,87,0
0,36,115,0
0,35,114,0
0,42,76,0
0,62,101,2
0,36,113,0
0,35,117,0
0,42,73,0
0,55,121,22
0,48,117,0
0,42,73,0
0,55,121,2
0,76,100,0
0,60,85,0
0,76,88,0
0,79,56,0
0,76,54,0
0,72,51,0
0,64,101,0
0,60,84,0
0,64,84,0
0,67,89,0
0,45,116,0
0,38,115,0
0,42,72,0
0,52,120,2
0,64,90,0
0,40,113,0
0,42,71,0
0,55,122,2
0,60,92,0
0,64,90,0
0,67,92,0
0,72,102,0
0,60,88,0
0,72,88,0
0,60,84,0
0,64,83,0
0,67,85,0
0,36,117,0
0,35,113,0
0,42,74,0
0,67,82,2
0,36,112,0
0,42,77,0
0,57,118,2
0,64,88,0
0,36,110,0
0,38,111,0
0,42,79,0
0,60,89,2
0,36,112,0
0,35,116,0
0,42,74,0
0,67,86,2
0,36,118,0
0,35,111,0
0,42,76,0
0,55,121,2
0,64,91,0
0,36,118,0
0,42,71,0
0,62,122,2
0,60,91,0
0,36,114,0
0,38,119,0
0,42,70,0
0,60,122,2
0,64,88,0
0,36,118,0
0,42,71,0
0,60,89,2
0,36,118,0
0,35,118,0
0,42,72,0
0,62,118,2
0,67,88,0
0,36,113,0
0,42,79,0
0,64,83,2
0,36,112,0
0,38,115,0
0,42,79,0
0,60,87,2
0,36,117,0
0,35,116,0
0,42,79,0
0,60,121,2
0,67,87,0
0,36,113,0
0,35,113,0
0,42,76,0
0,62,122,2
0,64,88,0
0,36,110,0
0,42,71,0
0,60,119,2
0,60,91,0
0,36,111,0
0,38,119,0
0,42,75,0
0,62,122,2
0,64,87,0
0,36,112,0
0,42,70,0
0,64,118,2
0,57,90,0
0,60,92,0
0,64,93,0
0,57,83,0
0,57,87,0
0,60,87,0
0,64,86,0
0,41,116,0
0,35,116,0
0,42,76,0
0,64,82,2
0,41,115,0
0,42,70,0
0,60,90,2
0,41,117,0
0,38,112,0
0,42,71,0
0,57,88,2
0,41,114,0
0,35,113,0
0,42,79,0
0,64,86,2
0,41,111,0
0,35,118,0
0,42,78,0
0,57,118,2
0,60,88,0
0,41,116,0
0,42,79,0
0,52,118,2
0,57,83,0
0,41,110,0
0,38,119,0
0,42,77,0
0,55,120,2
0,60,89,0
0,41,118,0
0,42,77,0
0,55,91,2
0,59,90,0
0,62,89,0
0,55,89,0
0,55,85,0
0,59,87,0
0,62,86,0
0,43,115,0
0,35,113,0
0,42,78,0
0,62,84,2
0,43,112,0
0,42,78,0
0,59,84,2
0,43,111,0
0,38,116,0
0,42,76,0
0,52,121,2
0,55,84,0
0,43,114,0
0,35,115,0
0,42,72,0
0,55,121,2
0,62,82,0
0,43,118,0
0,35,119,0
0,42,77,0
0,59,86,2
0,43,117,0
0,42,71,0
0,57,119,2
0,55,86,0
0,43,118,0
0,38,117,0
0,42,70,0
0,52,121,2
0,62,88,0
0,33,112,0
0,42,78,0
0,55,120,2
0,60,92,0
0,64,91,0
0,67,89,0
0,60,90,0
0,60,87,0
0,64,82,0
0,67,85,0
0,36,110,0
0,35,119,0
0,42,76,0
0,67,86,2
0,36,115,0
0,42,72,0
0,57,122,2
0,64,84,0
0,36,114,0
0,38,111,0
0,42,76,0
0,55,122,2
0,60,86,0
0,36,119,0
0,35,114,0
0,42,71,0
0,67,82,2
0,36,110,0
0,35,114,0
0,42,78,0
0,55,122,2
0,64,83,0
0,43,111,0
0,42,70,0
0,62,118,2
0,60,87,0
0,36,118,0
0,38,114,0
0,42,70,0
0,60,121,2
0,64,86,0
0,36,111,0
0,42,70,0
0,60,84,2
0,36,111,0
0,35,111,0
0,42,74,0
0,62,121,2
0,67,86,0
0,36,116,0
0,42,75,0
0,64,85,2
0,36,111,0
0,38,114,0
0,42,71,0
0,60,91,2
0,36,115,0
0,35,112,0
0,42,76,0
0,60,118,2
0,67,83,0
0,36,118,0
0,35,110,0
0,42,78,0
0,62,122,2
0,64,84,0
0,36,116,0
0,42,72,0
0,60,122,2
0,60,87,0
0,40,110,0
0,38,119,0
0,42,78,0
0,62,120,2
0,64,87,0
0,36,113,0
0,42,76,0
0,64,121,2
0,57,90,0
0,60,91,0
0,64,92,0
0,57,86,0
0,57,82,0
0,60,82,0
0,64,83,0
0,41,112,0
0,35,112,0
0,42,70,0
0,64,89,2
0,41,116,0
0,42,77,0
0,60,91,2
0,41,115,0
0,38,111,0
0,42,78,0
0,57,82,2
0,41,113,0
0,35,111,0
0,42,72,0
0,64,86,2
0,41,111,0
0,35,114,0
0,42,71,0
0,69,118,2
0,60,84,0
0,41,114,0
0,42,79,0
0,64,120,2
0,57,83,0
0,41,117,0
0,38,116,0
0,42,74,0
0,67,119,2
0,64,90,0
0,40,115,0
0,42,78,0
0,59,90,2
0,62,93,0
0,67,89,0
0,55,91,0
0,59,85,0
0,62,83,0
0,67,82,0
0,35,111,0
0,42,71,0
0,49,104,0
0,62,90,2
0,40,112,0
0,42,76,0
0,43,111,0
0,59,85,2
0,40,117,0
0,38,117,0
0,42,77,0
0,55,90,2
0,40,116,0
0,35,110,0
0,42,71,0
0,62,82,2
0,40,117,0
0,35,119,0
0,42,77,0
0,59,88,2
0,40,114,0
0,42,71,0
0,43,119,0
0,55,90,2
0,40,116,0
0,38,110,0
0,42,77,0
0,67,120,2
0,59,87,0
0,38,118,0
0,42,75,0
0,74,73,2
0,71,120,0
0,67,93,0
0,71,92,0
0,76,89,0
0,55,85,0
0,67,91,0
0,71,83,0
0,76,88,0
0,40,119,0
0,35,113,0
0,42,72,0
0,49,97,0
0,64,82,2
0,40,113,0
0,42,75,0
0,59,89,2
0,40,110,0
0,38,115,0
0,42,73,0
0,71,74,2
0,67,122,0
0,55,91,0
0,40,116,0
0,35,116,0
0,42,75,0
0,71,74,2
0,67,119,0
0,64,86,0
0,40,112,0
0,35,112,0
0,42,77,0
0,59,90,2
0,40,118,0
0,42,70,0
0,55,88,2
0,40,119,0
0,38,111,0
0,42,71,0
0,71,74,2
0,67,119,0
0,59,87,0
0,40,110,0
0,42,74,0
0,74,74,2
0,71,121,0
0,55,82,0
0,40,114,0
0,35,116,0
0,42,77,0
0,64,83,2
0,40,114,0
0,42,79,0
0,59,91,2
0,40,116,0
0,38,113,0
0,42,70,0
0,71,74,2
0,67,119,0
0,55,90,0
0,40,110,0
0,35,117,0
0,42,74,0
0,67,72,2
0,64,119,0
0,72,73,2
0,69,118,0
0,64,85,0
0,40,111,0
0,35,118,0
0,42,73,0
0,71,73,2
0,67,122,0
0,59,88,0
0,40,112,0
0,42,75,0
0,55,82,2
0,40,110,0
0,38,111,0
0,42,78,0
0,59,91,2
0,40,113,0
0,42,77,0
0,67,74,2
0,64,119,0
0,65,92,0
0,69,90,0
0,72,89,0
0,57,88,0
0,65,88,0
0,69,84,0
0,72,86,0
0,41,114,0
0,35,117,0
0,42,70,0
0,65,83,2
0,41,113,0
0,42,79,0
0,65,73,2
0,62,120,0
0,60,91,0
0,41,115,0
0,38,111,0
0,42,73,0
0,60,122,2
0,57,87,0
0,41,114,0
0,35,110,0
0,42,73,0
0,65,73,2
0,60,119,0
0,65,88,0
0,41,118,0
0,35,112,0
0,42,77,0
0,60,86,2
0,41,111,0
0,42,72,0
0,65,74,2
0,60,120,0
0,57,85,0
0,41,110,0
0,38,119,0
0,42,79,0
0,60,84,2
0,41,112,0
0,42,70,0
0,71,74,2
0,67,121,0
0,67,91,0
0,71,92,0
0,74,89,0
0,59,85,0
0,62,87,0
0,67,87,0
0,74,102,0
0,71,101,0
0,67,95,0
0,67,87,0
0,71,87,0
0,74,85,0
0,43,110,0
0,35,113,0
0,38,119,0
0,42,75,0
0,71,72,2
0,67,118,0
0,67,91,0
0,71,89,0
0,74,93,0
0,59,84,0
0,62,87,0
0,67,89,0
0,74,98,0
0,71,99,0
0,67,94,0
0,67,88,0
0,71,83,0
0,74,82,0
0,43,119,0
0,38,113,0
0,42,75,0
0,72,73,2
0,69,118,0
0,65,89,0
0,69,93,0
0,72,93,0
0,57,84,0
0,60,86,0
0,65,85,0
0,72,97,0
0,69,97,0
0,65,100,0
0,65,89,0
0,69,83,0
0,72,82,0
0,43,119,0
0,38,111,0
0,42,76,0
0,64,118,2
0,64,103,0
0,67,97,0
0,72,99,0
0,35,112,192
0,35,113,4
0,62,121,92
0,62,94,0
0,65,100,0
0,69,94,0
0,38,119,0
0,42,75,0
0,60,121,28
0,60,101,0
0,64,100,0
0,67,97,0
0,33,111,0
0,42,70,0
0,60,121,36
0,60,96,0
0,64,102,0
0,67,98,0
0,72,96,0
0,60,91,0
0,72,89,0
0,79,49,0
0,76,51,0
0,72,56,0
0,67,103,0
0,64,95,0
0,60,101,0
0,60,91,0
0,64,84,0
0,67,89,0
0,36,111,0
0,35,117,0
0,42,73,0
0,49,99,0
0,67,90,2
0,36,117,0
0,42,76,0
0,64,85,2
0,36,110,0
0,38,119,0
