track,note,velocity,time
0,55,74,1536
0,58,73,0
0,62,70,0
0,55,85,0
0,58,84,0
0,62,81,0
0,31,114,0
0,36,111,0
0,42,94,0
0,42,65,92
0,42,65,92
0,31,116,12
0,36,110,0
0,42,63,0
0,67,110,12
0,74,110,0
0,79,110,0
0,36,110,0
0,42,68,0
0,55,74,12
0,58,74,0
0,62,71,0
0,55,85,0
0,58,85,0
0,62,82,0
0,42,67,0
0,67,105,0
0,74,105,0
0,79,105,0
0,31,113,0
0,42,61,0
0,42,65,92
0,53,70,0
0,57,71,0
0,62,73,0
0,67,75,0
0,74,75,0
0,79,75,0
0,53,81,0
0,57,82,0
0,62,84,0
0,38,114,0
0,36,111,0
0,42,73,0
0,42,56,92
0,67,55,0
0,74,55,0
0,79,55,0
0,42,59,0
0,38,115,12
0,42,60,0
0,67,35,0
0,74,35,0
0,79,35,0
0,36,111,0
0,42,67,0
0,53,70,7
0,57,73,0
0,62,72,0
0,53,81,0
0,57,84,0
0,62,83,0
0,42,60,0
0,67,14,0
0,74,14,0
0,79,14,0
0,38,117,0
0,42,66,0
0,42,57,92
0,51,70,0
0,55,74,0
0,58,70,0
0,51,81,0
0,55,85,0
0,58,81,0
0,39,116,0
0,36,112,0
0,42,76,0
0,42,64,36
0,42,58,92
0,39,116,12
0,36,110,0
0,42,64,0
0,67,110,12
0,74,110,0
0,79,110,0
0,36,111,0
0,42,77,0
0,51,71,12
0,55,72,0
0,58,74,0
0,51,82,0
0,55,83,0
0,58,85,0
0,42,57,0
0,67,105,0
0,74,105,0
0,79,105,0
0,38,115,0
0,42,66,0
0,42,64,92
0,51,74,0
0,55,71,0
0,58,71,0
0,62,72,0
0,67,75,0
0,74,75,0
0,79,75,0
0,51,85,0
0,55,82,0
0,58,82,0
0,62,83,0
0,36,116,0
0,36,113,0
0,42,73,0
0,42,60,92
0,67,55,0
0,74,55,0
0,79,55,0
0,42,60,0
0,36,116,12
0,42,63,0
0,67,35,0
0,74,35,0
0,79,35,0
0,36,113,0
0,42,70,0
0,51,71,12
0,55,74,0
0,58,73,0
0,62,72,0
0,51,82,0
0,55,85,0
0,58,84,0
0,62,83,0
0,42,61,0
0,67,14,0
0,74,14,0
0,79,14,0
0,38,114,0
0,42,59,0
0,46,79,92
0,55,73,0
0,58,74,0
0,62,72,0
0,55,84,0
0,58,85,0
0,62,83,0
0,31,114,0
0,36,113,0
0,42,69,0
0,42,64,92
0,42,59,92
0,31,116,12
0,36,111,0
0,42,56,0
0,67,110,12
0,74,110,0
0,79,110,0
0,36,113,0
0,42,75,0
0,55,74,12
0,58,74,0
0,62,72,0
0,55,85,0
0,58,85,0
0,62,83,0
0,42,61,0
0,67,105,0
0,74,105,0
0,79,105,0
0,31,116,0
0,42,57,0
0,42,58,92
0,53,73,0
0,57,74,0
0,62,73,0
0,67,75,0
0,74,75,0
0,79,75,0
0,53,84,0
0,57,85,0
0,62,84,0
0,38,116,0
0,36,110,0
0,42,66,0
0,42,57,92
0,67,55,0
0,74,55,0
0,79,55,0
0,42,57,0
0,38,117,12
0,42,59,0
0,67,35,0
0,74,35,0
0,79,35,0
0,36,112,0
0,42,69,0
0,53,70,12
0,57,74,0
0,62,74,0
0,53,81,0
0,57,85,0
0,62,85,0
0,42,67,0
0,67,14,0
0,74,14,0
0,79,14,0
0,38,114,0
0,42,66,0
0,42,56,92
0,51,72,0
0,55,72,0
0,58,73,0
0,51,83,0
0,55,83,0
0,58,84,0
0,39,117,0
0,36,111,0
0,42,66,0
0,42,60,92
0,42,58,92
0,39,117,12
0,36,113,0
0,42,65,0
0,67,110,12
0,74,113,0
0,79,109,0
0,36,110,0
0,42,71,0
0,51,74,12
0,55,70,0
0,58,74,0
0,51,85,0
0,55,81,0
0,58,85,0
0,42,65,0
0,67,109,0
0,74,111,0
0,79,109,0
0,38,116,0
0,42,57,0
0,42,65,92
0,51,72,12
0,55,73,0
0,58,72,0
0,62,72,0
0,51,83,0
0,55,84,0
0,58,83,0
0,62,83,0
0,36,117,0
0,36,112,0
0,57,94,0
0,51,72,12
0,55,74,0
0,58,73,0
0,62,70,0
0,51,83,0
0,55,85,0
0,58,84,0
0,62,81,0
0,36,115,0
0,55,120,0
0,62,83,0
0,67,87,0
0,70,85,0
0,31,114,0
0,36,111,0
0,42,74,0
0,42,64,92
0,42,58,92
0,31,116,12
0,36,113,0
0,42,61,0
0,57,121,12
0,67,110,0
0,74,110,0
0,79,109,0
0,36,112,0
0,42,68,0
0,58,121,12
0,42,64,0
0,67,73,0
0,74,73,0
0,79,73,0
0,31,114,0
0,42,58,0
0,57,118,92
0,42,60,0
0,67,54,0
0,74,54,0
0,79,54,0
0,65,86,0
0,69,86,0
0,38,113,0
0,36,111,0
0,42,70,0
0,42,58,92
0,67,36,0
0,74,36,0
0,79,36,0
0,42,63,0
0,38,117,12
0,42,61,0
0,36,112,0
0,42,76,0
0,57,121,92
0,42,64,0
0,57,118,12
0,38,115,0
0,42,56,0
0,42,63,12
0,57,119,0
0,63,84,0
0,67,86,0
0,70,85,0
0,39,113,0
0,36,112,0
0,42,77,0
0,42,63,92
0,42,59,92
0,58,121,0
0,39,114,0
0,36,111,0
0,42,67,0
0,67,111,12
0,74,111,0
0,79,112,0
0,36,112,0
0,42,67,0
0,42,61,24
0,55,121,0
0,67,64,0
0,74,64,0
0,79,64,0
0,38,113,0
0,42,65,0
0,42,59,92
0,67,42,0
0,74,42,0
0,79,42,0
0,36,114,0
0,36,111,0
0,42,67,0
0,42,59,92
0,67,20,0
0,74,20,0
0,79,20,0
0,42,64,0
0,36,113,12
0,42,56,0
0,36,112,0
0,42,67,0
0,42,66,92
0,38,117,92
0,42,65,0
0,46,83,92
0,62,86,0
0,31,114,0
0,36,109,0
0,42,74,0
0,42,56,92
0,55,118,92
0,42,64,0
0,55,118,12
0,31,116,0
0,36,112,0
0,42,65,0
0,67,111,12
0,74,110,0
0,79,110,0
0,36,110,0
0,42,71,0
0,57,121,12
0,42,60,0
0,58,117,0
0,67,60,0
0,74,60,0
0,79,60,0
0,31,115,0
0,42,62,0
0,42,64,92
0,57,117,0
0,67,42,0
0,74,42,0
0,79,42,0
0,65,84,0
0,69,86,0
0,38,117,0
0,36,113,0
0,42,71,0
0,42,65,92
0,50,117,0
0,67,25,0
0,74,25,0
0,79,25,0
0,42,62,0
0,38,113,92
0,42,57,0
0,36,109,0
0,42,70,0
0,42,67,92
0,63,121,0
0,38,113,0
0,42,60,0
0,42,64,36
0,62,119,0
0,66,87,0
0,26,116,0
0,36,110,0
0,42,73,0
0,42,67,92
0,42,64,92
0,26,114,12
0,36,110,0
0,42,65,0
0,69,111,12
0,74,110,0
0,78,110,0
0,81,109,0
0,36,112,0
0,42,72,0
0,60,121,12
0,42,57,0
0,58,121,0
0,69,64,0
0,74,64,0
0,78,64,0
0,81,64,0
0,33,116,0
0,42,56,0
0,62,117,12
0,42,67,0
0,69,46,0
0,74,46,0
0,78,46,0
0,81,46,0
0,26,115,0
0,36,110,0
0,42,71,0
0,42,66,92
0,69,27,0
0,74,27,0
0,78,27,0
0,81,27,0
0,42,62,0
0,26,117,12
0,42,62,0
0,72,84,0
0,36,113,0
0,42,74,0
0,42,65,92
0,30,114,92
0,42,59,0
0,42,57,92
0,67,118,0
0,67,84,0
0,70,87,0
0,31,117,0
0,36,110,0
0,42,74,0
0,42,60,92
0,42,58,92
0,31,117,12
0,36,113,0
0,42,60,0
0,67,113,12
0,79,111,0
0,36,112,0
0,42,73,0
0,42,58,92
0,62,119,12
0,31,117,0
0,42,66,0
0,60,121,12
0,42,67,0
0,66,110,0
0,78,110,0
0,66,85,0
0,30,113,0
0,36,113,0
0,42,71,0
0,58,119,12
0,42,59,0
0,42,62,92
0,30,115,12
0,42,58,0
0,36,113,12
0,42,69,0
0,60,119,92
0,42,56,0
0,61,121,12
0,30,113,0
0,42,61,0
0,60,121,12
0,42,66,0
0,65,85,0
0,29,114,0
0,36,112,0
0,42,67,0
0,42,65,92
0,42,59,92
0,29,114,12
0,36,112,0
0,42,57,0
0,65,111,12
0,77,110,0
0,36,111,0
0,42,74,0
0,58,118,12
0,42,59,0
0,60,119,12
0,29,115,0
0,42,65,0
0,55,117,12
0,42,58,0
0,64,113,0
0,76,111,0
0,64,87,0
0,28,115,0
0,36,111,0
0,42,71,0
0,42,67,92
0,42,64,92
0,28,113,12
0,42,56,0
0,36,109,12
0,42,66,0
0,42,63,12
0,55,118,92
0,28,117,0
0,42,61,0
0,42,65,92
0,63,117,0
0,63,87,0
0,67,83,0
0,39,114,0
0,36,109,0
0,42,74,0
0,63,119,12
0,42,59,0
0,42,67,12
0,63,119,12
0,39,117,0
0,36,113,0
0,42,60,0
0,75,111,12
0,79,109,0
0,82,113,0
0,36,112,0
0,42,72,0
0,42,65,92
0,63,119,12
0,38,117,0
0,42,56,0
0,42,64,12
0,63,121,0
0,70,110,0
0,75,113,0
0,79,112,0
0,36,116,0
0,36,110,0
0,42,69,0
0,63,121,12
0,42,60,0
0,42,66,92
0,36,114,12
0,42,56,0
0,65,121,12
0,36,110,0
0,42,73,0
0,42,59,92
0,67,120,12
0,36,114,0
0,42,60,0
0,42,60,92
0,69,121,0
0,62,83,0
0,66,83,0
0,69,84,0
0,38,115,0
0,36,109,0
0,42,67,0
0,68,120,12
0,42,67,0
0,69,118,12
0,42,67,0
0,38,117,12
0,36,109,0
0,42,60,0
0,69,111,12
0,74,112,0
0,78,111,0
0,36,110,0
0,42,75,0
0,42,65,92
0,33,116,92
0,42,67,0
0,42,60,92
0,69,111,0
0,74,111,0
0,78,112,0
0,74,83,0
0,26,114,0
0,36,110,0
0,42,70,0
0,42,67,92
0,42,62,92
0,26,116,12
0,42,63,0
0,72,84,0
0,36,110,0
0,42,72,0
0,57,118,92
0,42,62,0
0,33,114,92
0,46,79,0
0,55,118,0
0,62,84,0
0,67,83,0
0,70,87,0
0,31,115,0
0,77,104,0
0,57,91,0
0,42,60,92
0,69,53,92
0,42,66,0
0,31,117,12
0,77,104,0
0,36,110,0
0,42,65,0
0,67,110,12
0,74,110,0
0,79,109,0
0,69,49,0
0,36,111,0
0,42,71,0
0,57,120,92
0,42,64,0
0,58,118,0
0,67,73,0
0,74,73,0
0,79,73,0
0,31,115,0
0,77,105,0
0,69,52,0
0,42,57,0
0,57,120,12
0,42,64,0
0,67,54,0
0,74,54,0
0,79,54,0
0,65,84,0
0,69,86,0
0,38,113,0
0,69,49,0
0,36,112,0
0,42,68,0
0,42,59,92
0,67,36,0
0,74,36,0
0,79,36,0
0,77,103,0
0,69,52,0
0,42,66,0
0,38,117,12
0,42,56,0
0,69,51,0
0,36,110,0
0,42,73,0
0,62,119,12
0,77,107,0
0,42,57,0
0,38,117,12
0,69,52,0
0,42,57,0
0,62,118,92
0,42,67,0
0,67,120,0
0,63,87,0
0,67,86,0
0,70,83,0
0,39,113,0
0,77,107,0
0,69,52,0
0,36,111,0
0,42,75,0
0,62,121,12
0,42,59,0
0,60,117,12
0,69,50,0
0,42,57,0
0,58,118,12
0,39,113,0
0,77,104,0
0,36,110,0
0,42,63,0
0,67,111,12
0,74,111,0
0,79,112,0
0,69,49,0
0,36,110,0
0,42,67,0
0,55,117,92
0,42,61,0
0,67,64,0
0,74,64,0
0,79,64,0
0,38,113,0
0,77,106,0
0,69,51,0
0,42,57,0
0,42,60,92
0,67,42,0
0,74,42,0
0,79,42,0
0,36,115,0
0,69,50,0
0,36,110,0
0,42,73,0
0,42,65,12
0,67,20,0
0,74,20,0
0,79,20,0
0,77,106,0
0,69,52,0
0,42,61,0
0,36,113,12
0,42,58,0
0,69,51,0
0,36,109,0
0,42,70,0
0,77,106,92
0,42,65,0
0,38,114,92
0,69,53,0
0,46,79,0
0,62,84,0
0,31,113,0
0,77,107,0
0,69,50,0
0,36,111,0
0,42,72,0
0,42,65,92
0,55,118,92
0,69,53,0
0,42,65,0
0,55,120,12
0,31,113,0
0,77,106,0
0,36,112,0
0,42,61,0
0,67,111,12
0,74,110,0
0,79,110,0
0,69,52,0
0,36,111,0
0,42,77,0
0,57,117,12
0,42,64,0
0,58,118,0
0,67,60,0
0,74,60,0
0,79,60,0
0,31,116,0
0,77,107,0
0,69,49,0
0,42,59,0
0,57,119,12
0,42,58,0
0,67,42,0
0,74,42,0
0,79,42,0
0,65,86,0
0,69,86,0
0,38,117,0
0,69,51,0
0,36,111,0
0,42,76,0
0,42,62,92
0,67,25,0
0,74,25,0
0,79,25,0
0,77,107,0
0,69,53,0
0,42,62,0
0,38,113,92
0,42,65,0
0,69,51,0
0,36,112,0
0,42,68,0
0,62,118,12
0,77,104,0
0,42,62,0
0,62,119,12
0,38,114,0
0,69,51,0
0,42,64,0
0,63,119,0
0,42,58,0
0,62,118,0
0,66,84,0
0,26,117,0
0,77,106,0
0,69,49,0
0,36,111,0
0,42,74,0
0,42,64,92
0,69,50,92
0,42,62,0
0,26,113,12
0,77,107,0
0,36,111,0
0,42,59,0
0,69,111,12
0,74,110,0
0,78,110,0
0,81,109,0
0,69,50,0
0,36,112,0
0,42,76,0
0,60,119,12
0,42,63,0
0,58,118,0
0,69,64,0
0,74,64,0
0,78,64,0
0,81,64,0
0,33,116,0
0,77,105,0
0,69,51,0
0,42,66,0
0,62,120,12
0,42,62,0
0,69,46,0
0,74,46,0
0,78,46,0
0,81,46,0
0,26,113,0
0,69,50,0
0,36,110,0
0,42,73,0
0,42,66,92
0,69,27,0
0,74,27,0
0,78,27,0
0,81,27,0
0,77,106,0
0,69,49,0
0,42,67,0
0,26,116,12
0,42,61,0
0,72,83,0
0,69,53,0
0,36,110,0
0,42,66,0
0,62,118,12
0,77,104,0
0,42,64,0
0,30,114,92
0,69,50,0
0,42,67,0
0,42,57,92
0,67,100,0
0,67,119,0
0,67,84,0
0,70,83,0
0,31,113,0
0,77,104,0
0,69,50,0
0,36,109,0
0,42,67,0
0,67,99,12
0,67,121,0
0,42,58,0
0,69,52,12
0,42,61,0
0,31,114,12
0,77,104,0
0,36,111,0
0,67,110,12
0,79,112,0
0,67,124,0
0,79,127,0
0,69,51,0
0,36,109,0
0,38,110,0
0,57,94,0
0,62,121,0
0,42,65,0
0,60,121,12
0,31,113,0
0,77,105,0
0,69,50,0
0,42,57,0
0,58,118,12
0,42,63,0
0,60,119,0
0,66,113,0
0,78,113,0
0,66,86,0
0,30,115,0
0,69,50,0
0,36,113,0
0,42,72,0
0,58,117,12
0,42,56,0
0,55,120,12
0,77,103,0
0,69,51,0
0,42,57,0
0,60,117,12
0,30,116,0
0,42,62,0
0,69,49,12
0,36,113,0
0,42,76,0
0,62,121,12
0,77,107,0
0,42,64,0
0,30,115,92
0,69,53,0
0,42,63,0
0,42,66,12
0,65,85,0
0,29,115,0
0,77,107,0
0,69,52,0
0,36,110,0
0,42,68,0
0,42,65,92
0,55,117,92
0,69,51,0
0,42,58,0
0,29,113,12
0,77,104,0
0,36,111,0
0,42,60,0
0,58,120,12
0,65,109,0
0,77,113,0
0,67,125,0
0,79,125,0
0,69,52,0
0,57,69,0
0,36,109,0
0,38,113,0
0,49,69,0
0,67,126,0
0,79,126,0
0,57,70,0
0,38,111,0
0,49,70,0
0,55,120,0
0,29,116,0
0,77,106,0
0,69,53,0
0,42,65,0
0,42,65,92
0,61,118,0
0,64,112,0
0,76,111,0
0,64,84,0
0,28,116,0
0,69,51,0
0,36,113,0
0,42,73,0
0,60,118,12
0,42,67,0
0,77,106,92
0,69,51,0
0,42,65,0
0,58,120,12
0,28,117,0
0,42,66,0
0,60,119,12
0,69,52,0
0,36,111,0
0,42,68,0
0,58,121,12
0,77,106,0
0,42,64,0
0,28,116,92
0,69,49,0
0,46,69,0
0,63,83,0
0,67,83,0
0,39,115,0
0,77,107,0
0,69,53,0
0,36,113,0
0,42,76,0
0,42,58,92
0,67,118,0
0,69,50,0
0,42,58,0
0,67,121,12
0,39,116,0
0,77,106,0
