track,note,velocity,time
1,62,120,1536
1,65,120,0
1,56,120,0
1,55,120,0
1,65,120,0
1,62,120,0
1,58,120,0
1,56,120,0
1,49,120,0
1,63,120,0
1,48,120,0
1,55,120,0
1,65,120,0
1,60,120,0
1,57,120,0
1,47,120,0
1,67,120,0
1,62,120,0
1,51,120,0
1,67,120,256
1,57,120,0
1,47,120,0
1,62,120,0
1,51,120,0
1,52,100,0
1,59,100,0
1,55,100,0
1,61,100,576
1,54,100,0
1,57,100,0
1,55,100,192
1,62,100,0
1,59,100,0
1,54,100,384
1,61,100,0
1,57,100,0
1,52,100,480
1,59,100,0
1,55,100,0
1,61,100,576
1,57,100,0
1,54,100,0
1,62,100,192
1,59,100,0
1,55,100,0
1,54,100,384
1,61,100,0
1,57,100,0
1,59,100,480
1,52,100,0
1,55,100,0
1,61,100,576
1,57,100,0
1,54,100,0
1,59,100,352
1,62,100,0
1,55,100,0
1,57,100,492
1,61,100,0
1,54,100,0
1,55,100,480
1,59,100,0
1,52,100,0
1,57,100,576
1,61,100,0
1,54,100,0
1,59,100,352
1,55,100,0
1,62,100,0
1,54,100,492
1,61,100,0
1,57,100,0
1,55,100,480
1,59,100,0
1,52,100,0
1,57,100,576
1,54,100,0
1,61,100,0
1,55,100,352
1,59,100,0
1,62,100,0
1,54,100,492
1,61,100,0
1,57,100,0
1,55,100,480
1,59,100,0
1,52,100,0
1,57,100,576
1,61,100,0
1,54,100,0
1,62,100,352
1,55,100,0
1,59,100,0
1,54,100,492
1,61,100,0
1,57,100,0
1,52,100,480
1,57,100,0
1,61,100,0
1,62,100,576
1,54,100,0
1,59,100,0
1,55,100,352
1,61,100,0
1,64,100,0
1,54,100,492
1,59,100,0
1,62,100,0
1,55,100,480
1,52,100,0
1,59,100,0
1,61,100,576
1,54,100,0
1,57,100,0
1,62,100,352
1,59,100,0
1,55,100,0
1,61,100,492
1,54,100,0
1,57,100,0
1,59,100,480
1,55,100,0
1,52,100,0
1,54,100,576
1,61,100,0
1,57,100,0
1,59,100,352
1,55,100,0
1,62,100,0
1,61,100,492
1,57,100,0
1,54,100,0
1,59,100,480
1,52,100,0
1,55,100,0
1,61,100,576
1,57,100,0
1,54,100,0
1,55,100,352
1,59,100,0
1,62,100,0
1,61,100,492
1,54,100,0
1,57,100,0
1,55,100,480
1,52,100,0
1,59,100,0
1,57,100,576
1,54,100,0
1,61,100,0
1,55,100,352
1,62,100,0
1,59,100,0
1,61,100,492
1,57,100,0
1,54,100,0
1,52,100,480
1,59,100,0
1,55,100,0
1,61,100,576
1,54,100,0
1,57,100,0
1,55,100,352
1,62,100,0
1,59,100,0
1,57,100,492
1,61,100,0
1,54,100,0
1,55,100,480
1,52,100,0
1,59,100,0
1,61,100,576
1,57,100,0
1,54,100,0
1,62,100,352
1,55,100,0
1,59,100,0
1,57,100,492
1,54,100,0
1,61,100,0
1,59,100,480
1,55,100,0
1,52,100,0
1,61,100,576
1,54,100,0
1,57,100,0
1,62,100,352
1,59,100,0
1,55,100,0
1,57,100,492
1,61,100,0
1,54,100,0
1,52,100,480
1,61,100,0
1,57,100,0
1,62,100,576
1,54,100,0
1,59,100,0
1,61,100,352
1,55,100,0
1,64,100,0
1,54,100,492
1,62,100,0
1,59,100,0
1,59,100,480
1,55,100,0
1,52,100,0
1,61,100,576
1,54,100,0
1,57,100,0
1,62,100,352
1,55,100,0
1,59,100,0
1,57,100,492
1,54,100,0
1,61,100,0
1,65,120,480
1,56,120,0
1,62,120,0
1,62,120,0
1,55,120,0
1,65,120,0
1,49,120,0
1,56,120,0
1,58,120,0
1,63,120,0
1,65,120,0
1,60,120,0
1,55,120,0
1,48,120,0
1,67,120,0
1,47,120,0
1,62,120,0
1,57,120,0
1,51,120,0
1,62,120,256
1,57,120,0
1,67,120,0
1,51,120,0
1,47,120,0
1,59,100,0
1,52,100,0
1,55,100,0
1,57,100,576
1,54,100,0
1,61,100,0
1,59,100,192
1,55,100,0
1,62,100,0
1,61,100,384
1,54,100,0
1,57,100,0
1,52,100,480
1,55,100,0
1,59,100,0
1,54,100,576
1,57,100,0
1,61,100,0
1,62,100,192
1,59,100,0
1,55,100,0
1,57,100,384
1,54,100,0
1,61,100,0
1,52,100,480
1,59,100,0
1,55,100,0
1,61,100,576
1,57,100,0
1,54,100,0
1,55,100,352
1,59,100,0
1,62,100,0
1,61,100,492
1,54,100,0
1,57,100,0
1,55,100,480
1,52,100,0
1,59,100,0
1,61,100,576
1,54,100,0
1,57,100,0
1,59,100,352
1,55,100,0
1,62,100,0
1,61,100,492
1,57,100,0
1,54,100,0
1,55,100,480
1,59,100,0
1,52,100,0
1,61,100,576
1,57,100,0
1,54,100,0
1,62,100,352
1,55,100,0
1,59,100,0
1,54,100,492
1,61,100,0
1,57,100,0
1,59,100,480
1,52,100,0
1,55,100,0
1,57,100,576
1,61,100,0
1,54,100,0
1,59,100,352
1,62,100,0
1,55,100,0
1,54,100,492
1,61,100,0
1,57,100,0
1,52,100,480
1,57,100,0
1,61,100,0
1,62,100,576
1,54,100,0
1,59,100,0
1,61,100,352
1,55,100,0
1,64,100,0
1,59,100,492
1,54,100,0
1,62,100,0
1,52,100,480
1,55,100,0
1,59,100,0
1,57,100,576
1,61,100,0
1,54,100,0
1,59,100,352
1,62,100,0
1,55,100,0
1,54,100,492
1,57,100,0
1,61,100,0
1,56,120,480
1,65,120,0
1,62,120,0
1,55,120,0
1,62,120,0
1,65,120,0
1,63,120,0
1,49,120,0
1,56,120,0
1,58,120,0
1,48,120,0
1,65,120,0
1,55,120,0
1,60,120,0
1,47,120,0
1,67,120,0
1,62,120,0
1,57,120,0
1,51,120,0
1,62,120,256
1,51,120,0
1,67,120,0
1,57,120,0
1,47,120,0
1,59,100,0
1,55,100,0
1,52,100,0
1,57,100,576
1,54,100,0
1,61,100,0
1,59,100,192
1,55,100,0
1,62,100,0
1,61,100,384
1,54,100,0
1,57,100,0
1,55,100,480
1,52,100,0
1,59,100,0
1,57,100,576
1,54,100,0
1,61,100,0
1,59,100,192
1,62,100,0
1,55,100,0
1,57,100,384
1,61,100,0
1,54,100,0
1,64,100,480
1,55,100,0
1,61,100,0
1,52,100,0
1,52,100,96
1,55,100,0
1,64,100,0
1,54,100,192
1,62,100,0
1,57,100,0
1,66,100,0
1,52,100,0
1,61,100,0
1,55,100,0
1,64,100,0
1,52,100,576
1,55,100,0
1,61,100,0
1,64,100,0
1,62,100,192
1,66,100,0
1,57,100,0
1,54,100,0
1,61,100,96
1,55,100,0
1,49,100,0
1,52,100,0
1,52,100,64
1,61,100,0
1,64,100,0
1,55,100,0
1,55,100,576
1,61,100,0
1,52,100,0
1,64,100,0
1,64,100,96
1,55,100,0
1,52,100,0
1,62,100,192
1,57,100,0
1,54,100,0
1,66,100,0
1,64,100,0
1,52,100,0
1,55,100,0
1,61,100,0
1,52,100,576
1,61,100,0
1,64,100,0
1,55,100,0
1,54,100,192
1,66,100,0
1,57,100,0
1,62,100,0
1,49,100,96
1,61,100,0
1,55,100,0
1,52,100,0
1,61,100,64
1,55,100,0
1,64,100,0
1,52,100,0
1,64,100,576
1,55,100,0
1,52,100,0
1,61,100,0
1,52,100,96
1,64,100,0
1,55,100,0
1,54,100,192
1,57,100,0
1,62,100,0
1,66,100,0
1,55,100,0
1,64,100,0
1,61,100,0
1,52,100,0
1,61,100,576
1,64,100,0
1,55,100,0
1,52,100,0
1,62,100,192
1,54,100,0
1,57,100,0
1,66,100,0
1,52,100,96
1,55,100,0
1,61,100,0
1,49,100,0
1,64,100,64
1,52,100,0
1,55,100,0
1,61,100,0
1,52,100,576
1,55,100,0
1,64,100,0
1,61,100,0
1,55,100,96
1,64,100,0
1,52,100,0
1,66,100,192
1,54,100,0
1,62,100,0
1,57,100,0
1,55,100,0
1,52,100,0
1,61,100,0
1,64,100,0
1,64,100,576
1,52,100,0
1,55,100,0
1,61,100,0
1,54,100,192
1,62,100,0
1,66,100,0
1,57,100,0
1,52,100,96
1,61,100,0
1,55,100,0
1,49,100,0
1,64,100,64
1,55,100,0
1,61,100,0
1,52,100,0
1,55,100,576
1,64,100,0
1,52,100,0
1,59,100,4
1,52,100,92
1,59,100,0
1,55,100,0
1,64,100,0
1,66,100,192
1,54,100,0
1,57,100,0
1,61,100,4
1,59,100,96
1,52,100,0
1,55,100,0
1,64,100,0
1,64,100,944
1,59,100,16
1,67,100,6
1,62,100,86
1,57,100,4
1,66,100,0
1,54,100,384
1,57,100,0
1,62,100,0
1,62,100,96
1,59,100,0
1,64,100,0
1,64,100,96
1,62,100,0
1,59,100,0
1,59,100,192
1,62,100,0
1,64,100,0
1,59,100,2112
1,62,100,0
1,64,100,0
1,62,100,96
1,64,100,0
1,59,100,0
1,59,100,192
1,64,100,0
1,62,100,0
1,64,100,1136
1,59,100,16
1,67,100,6
1,62,100,86
1,57,100,4
1,66,100,0
1,54,100,384
1,57,100,0
1,62,100,0
1,64,100,96
1,55,100,0
1,52,100,0
1,59,100,4
1,64,100,92
1,52,100,0
1,59,100,0
1,55,100,0
1,57,100,192
1,54,100,0
1,66,100,0
1,61,100,4
1,52,100,96
1,64,100,0
1,59,100,0
1,55,100,0
1,76,101,1734
1,74,104,0
1,66,100,0
1,71,105,0
1,62,103,4
1,76,105,0
1,74,100,0
1,71,94,0
1,71,98,0
1,73,96,96
1,59,99,0
1,64,94,0
1,78,98,22
1,71,101,96
1,76,101,0
1,74,102,22
1,66,101,74
1,62,98,0
1,71,104,96
1,62,103,0
1,73,106,0
1,66,97,0
1,64,97,96
1,69,96,0
1,59,95,0
1,71,104,0
1,74,106,96
1,71,99,192
1,73,97,0
1,66,95,0
1,74,94,0
1,62,94,0
1,73,105,0
1,74,97,0
1,76,102,0
1,78,103,0
1,76,96,96
1,78,100,0
1,64,95,0
1,59,106,0
1,79,99,0
1,79,101,0
1,78,98,0
1,79,96,0
1,81,104,0
1,81,106,0
1,79,98,0
1,81,102,0
1,66,100,0
1,62,94,0
1,83,106,6
1,81,105,0
1,78,102,64
1,66,94,0
1,62,97,0
1,78,105,0
1,76,100,96
1,59,101,0
1,64,96,0
1,83,100,62
1,81,99,66
1,78,100,80
1,64,103,0
1,59,101,0
1,74,98,38
1,76,102,0
1,56,94,0
1,64,95,2
1,76,105,0
1,83,98,96
1,83,98,0
1,80,98,0
1,54,97,94
1,63,97,2
1,80,101,94
1,75,103,62
1,87,88,0
1,75,105,96
1,87,88,0
1,71,94,32
1,83,88,0
1,73,102,160
1,64,96,0
1,56,95,16
1,69,106,0
1,81,88,0
1,71,103,16
1,83,88,0
1,73,103,16
1,85,88,0
1,85,88,22
1,73,95,0
1,54,105,42
1,63,95,0
1,71,99,0
1,83,88,0
1,73,102,94
1,85,88,2
1,63,100,96
1,75,96,0
1,87,88,0
1,54,97,0
1,63,106,0
1,54,96,0
1,87,88,0
1,75,106,0
1,56,106,0
1,64,106,0
1,71,102,0
1,83,88,10
1,85,88,0
1,73,97,0
1,87,88,0
1,75,96,0
1,87,88,92
1,75,100,4
1,54,102,4
1,63,104,6
1,73,103,0
1,85,88,4
1,75,103,0
1,87,88,0
1,88,86,0
1,76,103,0
1,88,86,96
1,76,95,0
1,64,102,0
1,56,101,0
1,87,88,112
1,75,105,0
1,56,104,8
1,64,104,0
1,88,86,84
1,76,94,0
1,78,106,0
1,90,84,4
1,54,103,68
1,63,98,0
1,78,105,24
1,90,84,0
1,87,88,24
1,75,104,0
1,76,102,0
1,88,96,10
1,78,98,0
1,90,94,0
1,75,98,0
1,76,106,0
1,78,103,0
1,66,94,0
1,74,106,0
1,62,100,4
1,76,106,0
1,78,105,0
1,78,104,0
1,76,100,96
1,78,102,0
1,78,101,96
1,64,104,0
1,59,98,0
1,79,95,0
1,79,98,0
1,78,100,0
1,79,99,0
1,81,103,0
1,81,102,0
1,79,100,0
1,81,100,0
1,66,102,0
1,83,104,0
1,62,98,0
1,83,98,0
1,81,103,0
1,83,101,0
1,85,98,0
1,62,105,0
1,66,102,0
1,85,101,0
1,83,105,0
1,59,102,0
1,85,95,0
1,64,94,0
1,86,102,0
1,86,98,0
1,85,102,0
1,81,104,0
1,85,101,188
1,86,105,4
1,88,102,92
1,56,105,4
1,90,97,0
1,64,99,0
1,90,97,92
1,88,96,8
1,86,95,0
1,85,104,0
1,86,104,0
1,88,101,0
1,92,105,0
1,61,97,0
1,54,105,0
1,92,106,0
1,90,95,0
1,88,99,0
1,85,97,0
1,85,97,0
1,83,95,0
1,81,95,0
1,64,99,0
1,78,94,0
1,56,105,0
1,76,104,96
1,78,104,0
1,64,106,0
1,80,99,0
1,56,94,0
1,80,97,0
1,78,97,0
1,61,106,0
1,80,106,0
1,54,105,0
1,81,104,0
1,81,95,0
1,80,98,0
1,81,99,0
1,83,102,0
1,76,94,10
1,78,102,86
1,80,104,0
1,81,70,0
1,81,64,150
1,65,70,5652
1,58,70,0
1,62,70,0
1,67,64,0
1,60,70,0
1,64,70,0
1,62,70,0
1,59,70,0
1,69,60,0
1,57,70,0
1,60,70,0
1,59,70,0
1,69,60,0
1,62,70,0
1,40,60,40
1,47,60,0
1,52,60,0
1,55,60,0
1,59,60,0
1,52,60,0
1,55,60,0
1,59,60,0
1,64,60,0
1,59,60,0
1,64,60,0
1,67,60,0
1,71,60,0
1,64,60,0
1,67,60,0
1,71,60,0
1,76,60,0
1,67,60,0
1,71,60,0
1,76,60,0
1,79,60,0
1,76,60,0
1,79,60,0
1,83,60,0
1,88,60,0
1,83,60,0
1,79,60,0
1,76,60,0
1,71,60,0
1,67,60,0
1,64,60,0
1,59,60,48
1,55,60,0
1,52,60,6
1,65,70,2
1,62,70,0
1,71,60,0
1,71,60,0
1,60,70,0
1,64,70,0
1,67,64,0
1,62,70,0
1,59,70,0
1,69,60,0
1,60,70,0
1,57,70,0
1,62,70,0
1,69,60,0
1,59,70,0
1,55,100,2304
1,59,100,0
1,52,100,0
1,57,100,576
1,54,100,0
1,61,100,0
1,62,100,352
1,55,100,0
1,59,100,0
1,57,100,492
1,54,100,0
1,61,100,0
1,59,100,480
1,55,100,0
1,52,100,0
1,54,100,576
1,57,100,0
1,61,100,0
1,59,100,352
1,55,100,0
1,62,100,0
1,61,100,492
1,54,100,0
1,57,100,0
1,52,100,480
1,59,100,0
1,55,100,0
1,61,100,576
1,57,100,0
1,54,100,0
1,59,100,352
1,62,100,0
1,55,100,0
1,61,100,492
1,54,100,0
1,57,100,0
1,59,100,480
1,55,100,0
1,52,100,0
1,54,100,576
1,61,100,0
1,57,100,0
1,59,100,352
1,62,100,0
1,55,100,0
1,54,100,492
1,57,100,0
1,61,100,0
1,57,100,480
1,52,100,0
1,61,100,0
1,62,100,576
1,59,100,0
1,54,100,0
1,64,100,352
1,61,100,0
1,55,100,0
1,62,100,492
1,59,100,0
1,54,100,0
1,52,100,480
1,59,100,0
1,55,100,0
1,61,100,576
1,57,100,0
1,54,100,0
1,59,100,352
1,62,100,0
1,55,100,0
1,61,100,492
1,54,100,0
1,57,100,0
1,56,120,480
1,65,120,0
1,62,120,0
1,65,120,0
1,62,120,0
1,55,120,0
1,49,120,0
1,63,120,0
1,56,120,0
1,58,120,0
1,48,120,0
1,65,120,0
1,55,120,0
1,60,120,0
1,67,120,0
1,62,120,0
1,57,120,0
1,51,120,0
1,47,120,0
1,51,120,256
1,67,120,0
1,62,120,0
1,57,120,0
1,47,120,0
2,56,100,1536
2,44,100,0
2,65,103,0
2,55,100,0
2,43,100,0
2,62,102,0
2,63,101,0
2,56,100,0
2,37,100,0
2,55,100,0
2,60,100,0
2,65,103,0
2,36,100,0
2,57,100,0
2,51,100,0
2,62,100,0
2,67,100,0
2,67,100,256
2,51,100,0
2,57,100,0
2,62,100,0
2,44,100,49152
2,56,100,0
2,65,103,0
2,62,102,0
2,55,100,0
2,43,100,0
2,63,101,0
2,56,100,0
2,37,100,0
2,36,100,0
2,60,100,0
2,55,100,0
2,65,103,0
