track,note,velocity,time
3,55,116,695
3,48,110,0
3,55,106,145
3,48,92,0
3,53,80,15
3,46,84,0
3,48,96,45
3,55,110,0
3,55,100,120
3,48,78,0
3,53,84,15
3,46,106,0
3,48,92,70
3,55,110,0
3,48,84,125
3,55,110,0
3,51,106,110
3,58,116,0
3,57,106,5
3,50,80,0
3,56,98,35
3,49,98,0
3,55,110,20
3,48,88,0
3,59,74,1820
3,55,84,0
3,64,106,320
3,59,70,60
3,55,68,0
3,57,100,55
3,55,84,0
3,64,92,260
3,57,88,60
3,55,48,0
3,55,92,15
3,59,96,0
3,64,100,295
3,59,88,70
3,55,78,0
3,55,78,30
3,57,106,125
3,64,100,280
3,55,92,110
3,57,100,105
3,60,110,35
3,57,74,0
3,65,110,320
3,60,92,45
3,57,80,0
3,59,100,15
3,57,92,0
3,65,100,320
3,57,74,145
3,57,96,10
3,60,110,0
3,65,100,35
3,57,74,0
3,60,96,290
3,59,106,40
3,57,96,0
3,65,106,280
3,57,92,65
3,60,110,25
3,57,100,0
3,65,106,60
3,57,78,0
3,57,80,60
3,60,80,0
3,55,110,40
3,59,106,0
3,65,96,315
3,55,100,150
3,60,116,10
3,57,100,0
3,65,100,40
3,57,74,0
3,57,80,40
3,60,80,0
3,55,100,30
3,59,110,0
3,65,88,320
3,55,92,130
3,48,100,70
3,60,106,0
3,55,96,0
3,60,78,80
3,55,70,0
3,48,70,0
3,53,70,85
3,58,78,0
3,46,60,0
3,60,106,50
3,55,92,0
3,48,88,0
3,55,60,105
3,48,88,60
3,60,78,45
3,55,80,0
3,48,80,0
3,48,70,55
3,55,68,0
3,55,106,65
3,60,106,0
3,48,88,0
3,55,74,50
3,48,62,60
3,48,70,65
3,48,92,50
3,48,88,50
3,59,88,40
3,64,106,0
3,48,84,0
3,48,70,35
3,59,78,50
3,67,110,160
3,48,60,65
3,59,56,60
3,48,66,50
3,64,100,25
3,48,78,0
3,48,68,35
3,67,96,45
3,59,74,0
3,48,52,90
3,59,96,105
3,64,88,0
3,59,58,0
3,48,66,55
3,57,100,20
3,50,78,0
3,62,106,0
3,57,74,30
3,65,88,0
3,50,42,60
3,57,74,0
3,62,50,0
3,57,78,50
3,60,84,0
3,50,56,0
3,65,106,55
3,57,66,0
3,50,44,55
3,57,68,30
3,50,68,160
3,55,110,35
3,43,96,0
3,59,100,0
3,55,74,70
3,53,78,40
3,59,92,0
3,43,58,0
3,43,68,10
3,57,92,5
3,62,116,0
3,50,70,0
3,65,92,25
3,57,80,0
3,62,96,60
3,57,74,0
3,60,74,45
3,57,74,0
3,65,96,320
3,50,74,125
3,57,78,25
3,60,80,0
3,50,70,125
3,55,100,15
3,59,100,0
3,43,100,0
3,55,68,65
3,43,88,50
3,59,68,35
3,55,52,0
3,59,88,60
3,55,68,0
3,55,92,60
3,59,106,0
3,55,74,65
3,43,62,45
3,55,70,25
3,43,92,90
3,60,88,65
3,55,84,0
3,48,96,0
3,60,66,135
3,55,66,0
3,48,78,0
3,60,106,80
3,55,110,0
3,48,106,0
3,48,68,190
3,55,60,0
3,60,92,0
3,55,110,100
3,60,100,0
3,48,100,0
3,55,66,200
3,60,88,0
3,48,68,0
3,63,84,75
3,58,106,0
3,51,90,0
3,62,92,15
3,50,80,0
3,49,106,45
3,56,90,0
3,61,78,0
3,55,116,30
3,60,96,0
3,48,92,0
3,59,74,1825
3,55,84,0
3,64,106,320
3,59,70,60
3,55,68,0
3,57,100,55
3,55,84,0
3,64,92,260
3,57,88,60
3,55,48,0
3,55,92,15
3,59,96,0
3,64,100,295
3,59,88,70
3,55,78,0
3,55,78,30
3,57,106,125
3,64,100,280
3,55,92,110
3,57,100,105
3,60,110,35
3,57,74,0
3,65,110,320
3,60,92,45
3,57,80,0
3,59,100,15
3,57,92,0
3,65,100,320
3,57,74,145
3,57,96,10
3,60,110,0
3,65,100,35
3,57,70,0
3,60,96,290
3,59,106,40
3,57,96,0
3,65,106,280
3,57,92,65
3,60,110,25
3,57,100,0
3,65,106,60
3,57,78,0
3,57,80,60
3,60,80,0
3,55,110,40
3,59,106,0
3,65,96,315
3,55,100,150
3,60,116,10
3,57,100,0
3,65,100,40
3,57,74,0
3,57,80,40
3,60,80,0
3,55,100,30
3,59,110,0
3,65,88,320
3,55,92,130
3,48,100,70
3,60,106,0
3,55,96,0
3,60,78,80
3,55,70,0
3,48,70,0
3,53,70,85
3,58,78,0
3,46,60,0
3,60,106,50
3,55,92,0
3,48,88,0
3,55,60,105
3,48,88,60
3,60,78,45
3,55,80,0
3,48,80,0
3,48,70,55
3,55,68,0
3,55,106,65
3,60,106,0
3,48,88,0
3,55,74,50
3,48,62,60
3,48,70,65
3,48,92,50
3,48,88,50
3,59,88,40
3,64,106,0
3,48,84,0
3,48,70,35
3,59,78,50
3,67,110,160
3,48,60,65
3,59,56,60
3,48,66,50
3,64,100,25
3,48,78,0
3,48,68,35
3,67,96,45
3,59,74,0
3,48,52,90
3,59,96,105
3,64,88,0
3,59,58,0
3,48,66,55
3,57,100,20
3,50,78,0
3,62,106,0
3,57,74,30
3,65,88,0
3,50,42,60
3,57,74,0
3,62,50,0
3,57,78,50
3,60,84,0
3,50,56,0
3,65,106,55
3,57,66,0
3,50,44,55
3,57,68,30
3,50,68,160
3,55,110,35
3,43,96,0
3,59,100,0
3,55,74,70
3,53,78,40
3,59,92,0
3,43,58,0
3,43,68,10
3,57,92,5
3,62,116,0
3,50,70,0
3,65,92,25
3,57,64,0
3,62,96,60
3,57,74,0
3,60,74,45
3,57,74,0
3,65,96,320
3,50,74,125
3,57,78,25
3,60,80,0
3,50,70,125
3,55,100,15
3,59,100,0
3,43,100,0
3,55,68,65
3,43,88,50
3,59,68,35
3,55,52,0
3,59,88,60
3,55,68,0
3,55,92,60
3,59,106,0
3,55,74,65
3,43,62,45
3,55,70,25
3,43,92,90
3,55,110,65
3,60,106,0
3,55,46,180
3,55,88,60
3,60,110,0
3,55,60,65
3,60,78,70
3,55,60,0
3,60,110,80
3,56,106,0
3,56,106,50
3,61,106,0
3,49,88,0
3,56,74,50
3,49,62,60
3,49,70,65
3,49,92,50
3,49,88,50
3,60,88,40
3,65,106,0
3,49,84,0
3,49,70,35
3,60,78,50
3,68,110,160
3,49,60,65
3,60,56,60
3,49,66,50
3,65,100,25
3,49,78,0
3,49,68,35
3,68,96,45
3,60,74,0
3,49,52,90
3,60,96,105
3,65,88,0
3,60,58,0
3,49,66,55
3,58,100,20
3,51,78,0
3,63,106,0
3,58,74,30
3,66,88,0
3,51,42,60
3,58,74,0
3,63,50,0
3,58,78,50
3,61,84,0
3,51,56,0
3,66,106,55
3,58,66,0
3,58,68,30
3,51,68,160
3,56,110,35
3,44,96,0
3,60,100,0
3,56,74,70
3,54,78,40
3,60,92,0
3,44,58,0
3,44,68,10
3,58,92,5
3,63,116,0
3,51,70,0
3,66,92,25
3,58,64,0
3,63,96,60
3,58,74,0
3,61,74,45
3,58,74,0
3,66,96,320
3,51,74,125
3,58,78,25
3,61,80,0
3,51,70,125
3,56,100,15
3,60,100,0
3,44,100,0
3,44,88,50
3,60,68,35
3,56,52,0
3,60,88,60
3,56,68,0
3,56,92,60
3,60,106,0
3,56,74,65
3,44,62,45
3,56,70,25
3,44,92,90
3,61,88,65
3,56,84,0
3,49,96,0
3,49,78,135
3,61,60,0
3,56,66,0
3,61,106,90
3,56,110,0
3,49,106,0
3,61,96,190
3,49,78,0
3,56,60,0
3,56,110,90
3,61,100,0
3,49,100,0
3,56,66,200
3,61,88,0
3,49,68,0
3,64,84,75
3,59,106,0
3,52,90,0
3,63,92,15
3,51,80,0
3,50,106,45
3,57,90,0
3,62,78,0
3,56,116,30
3,61,96,0
3,49,92,0
3,60,74,1825
3,56,84,0
3,65,106,320
3,60,70,60
3,56,68,0
3,58,100,55
3,56,84,0
3,65,92,260
3,58,88,60
3,56,48,0
3,56,92,15
3,60,96,0
3,65,100,295
3,60,88,70
3,56,78,0
3,56,78,30
3,58,106,125
3,65,100,280
3,56,92,110
3,58,100,105
3,61,110,35
3,58,74,0
3,66,110,320
3,61,92,45
3,58,80,0
3,60,100,15
3,58,92,0
3,66,100,320
3,58,74,145
3,58,96,10
3,61,110,0
3,66,100,35
3,58,68,0
3,61,96,290
3,60,106,40
3,58,96,0
3,66,106,280
3,58,92,65
3,61,110,25
3,58,100,0
3,66,106,60
3,58,78,0
3,58,80,60
3,61,80,0
3,56,110,40
3,60,106,0
3,66,96,315
3,56,100,150
3,61,116,10
3,58,100,0
3,66,100,40
3,58,74,0
3,58,80,40
3,61,80,0
3,56,100,30
3,60,110,0
3,66,88,320
3,56,92,130
3,49,100,70
3,61,106,0
3,56,96,0
3,61,78,80
3,56,70,0
3,49,70,0
3,54,78,85
3,59,78,0
3,47,60,0
3,61,106,50
3,56,92,0
3,49,88,0
3,56,60,105
3,49,88,60
3,61,78,45
3,56,80,0
3,49,80,0
3,49,70,55
3,56,64,0
3,56,106,65
3,61,106,0
3,49,88,0
3,56,74,50
3,49,62,60
3,49,70,65
3,49,92,50
3,49,88,50
3,60,88,40
3,65,106,0
3,49,84,0
3,49,70,35
3,60,78,50
3,68,110,160
3,49,60,65
3,60,56,60
3,65,100,25
3,49,78,0
3,49,68,35
3,68,96,45
3,60,74,0
3,49,52,90
3,60,96,105
3,65,88,0
3,60,58,0
3,49,66,55
3,58,100,20
3,51,78,0
3,63,106,0
3,58,74,30
3,66,88,0
3,51,42,60
3,58,74,0
3,63,50,0
3,58,78,50
3,61,84,0
3,51,56,0
3,66,106,55
3,58,66,0
3,58,68,30
3,51,68,160
3,56,110,35
3,44,96,0
3,60,100,0
3,56,74,70
3,54,78,40
3,60,92,0
3,44,58,0
3,44,68,10
3,58,92,5
3,63,116,0
3,51,70,0
3,66,92,25
3,58,68,0
3,63,96,60
3,58,74,0
3,61,74,45
3,58,74,0
3,66,96,320
3,51,74,125
3,58,78,25
3,61,80,0
3,51,70,125
3,51,106,15
3,56,78,0
3,49,98,1725
3,56,116,0
3,56,90,135
3,49,98,0
3,47,92,80
3,54,98,0
3,49,106,50
3,56,116,0
3,56,80,135
3,49,98,0
3,47,84,0
3,54,106,0
3,56,126,60
3,49,116,0
3,49,98,140
3,56,116,0
3,49,80,20
3,56,84,0
3,59,110,60
3,52,116,0
3,58,116,45
3,51,98,0
3,57,92,20
3,50,106,0
3,56,126,40
3,49,98,0
3,56,116,845
3,60,106,0
4,36,100,650
4,36,100,110
4,34,98,15
4,36,110,55
4,36,96,115
4,34,106,80
4,36,110,70
4,36,100,130
4,36,68,15
4,39,126,85
4,38,84,40
4,37,106,30
4,36,100,15
4,36,106,1755
4,36,84,40
4,36,110,75
4,31,106,30
4,36,100,20
4,36,106,70
4,36,106,90
4,36,96,15
4,37,126,35
4,38,110,20
4,38,106,80
4,31,96,35
4,38,96,25
4,38,92,85
4,31,116,40
4,38,110,5
4,38,78,115
4,31,110,25
4,38,116,25
4,38,106,95
4,31,106,40
4,36,116,80
4,36,106,105
4,34,116,95
4,36,110,70
4,36,92,70
4,34,116,85
4,36,110,75
4,36,100,65
4,36,126,75
4,36,110,45
4,36,88,90
4,36,122,90
4,31,116,50
4,36,116,25
4,36,96,75
4,36,116,95
4,38,116,15
4,33,100,40
4,38,110,65
4,33,106,0
4,38,116,20
4,31,126,5
4,31,78,80
4,31,126,75
4,38,122,5
4,33,92,50
4,38,100,25
4,33,100,15
4,38,84,10
4,31,126,10
4,31,84,40
4,31,122,90
4,36,110,65
4,36,100,70
4,34,126,15
4,36,116,55
4,36,84,95
4,34,116,15
4,36,122,45
4,36,60,85
4,36,92,15
4,39,126,45
4,38,106,25
4,37,116,30
4,36,122,50
4,36,116,1770
4,36,74,55
4,36,100,85
4,31,110,40
4,36,110,25
4,36,96,105
4,36,116,95
4,38,96,20
4,38,96,90
4,38,92,80
4,33,110,40
4,38,100,20
4,38,74,45
4,38,106,95
4,38,74,60
4,38,84,90
4,33,96,55
4,38,116,55
4,31,116,25
4,36,110,45
4,36,92,105
4,34,98,95
4,36,92,95
4,36,68,60
4,34,60,95
4,36,110,95
4,36,88,55
4,36,110,95
4,36,122,90
4,36,92,55
4,36,122,95
4,31,106,35
4,36,100,160
4,36,92,55
4,36,116,95
4,36,88,45
4,37,116,40
4,38,116,50
4,33,110,40
4,38,116,25
4,33,100,640
4,38,116,30
4,31,122,30
4,31,122,95
4,31,122,95
4,38,116,35
4,38,80,75
4,38,110,95
4,33,92,640
4,38,100,10
4,31,122,10
4,31,100,50
4,31,126,90
4,36,116,65
4,36,84,45
4,36,96,75
4,32,126,50
4,37,110,60
4,37,100,65
4,37,126,75
4,37,110,45
4,37,88,90
4,37,122,90
4,32,116,50
4,37,116,25
4,37,96,75
4,37,116,95
4,39,116,15
4,34,100,40
4,39,110,65
4,34,106,0
4,39,116,20
4,32,126,5
4,32,78,80
4,32,126,75
4,39,122,5
4,34,92,50
4,39,100,25
4,34,100,15
4,39,84,10
4,32,126,10
4,32,84,40
4,32,122,90
4,37,110,65
4,37,100,70
4,35,126,15
4,37,116,55
4,37,84,95
4,35,116,15
4,37,122,45
4,37,60,85
4,37,92,15
4,40,126,45
4,39,106,25
4,38,116,30
4,37,122,50
4,37,116,1770
4,37,74,55
4,37,100,85
4,32,110,40
4,37,110,25
4,37,96,105
4,37,116,95
4,39,96,20
4,39,96,90
4,39,92,80
4,34,110,40
4,39,100,20
4,39,74,45
4,39,106,95
4,39,100,60
4,39,84,90
4,34,96,55
4,39,116,55
4,32,116,25
4,37,110,45
4,37,92,105
4,35,98,95
4,37,92,95
4,37,68,60
4,35,60,95
4,37,110,95
4,37,88,55
4,37,110,95
4,37,122,90
4,37,92,55
4,37,122,95
4,32,106,35
4,37,100,160
4,37,92,55
4,37,116,95
4,37,88,45
4,38,116,40
4,39,116,50
4,34,110,40
4,39,116,25
4,34,100,640
4,39,116,30
4,32,122,30
4,32,122,95
4,32,122,95
4,39,116,35
4,39,80,75
4,39,110,95
4,34,92,640
4,39,100,10
4,32,126,10
4,37,126,1785
4,37,116,120
4,35,110,5
4,37,126,35
4,37,106,115
4,35,110,0
4,37,126,40
4,37,116,135
4,37,126,15
4,40,110,70
4,39,98,50
4,38,84,40
4,37,116,45
4,37,126,820
5,64,101,4370
5,59,111,15
5,57,101,70
5,59,127,75
5,57,125,360
5,65,127,830
5,60,103,10
5,59,127,110
5,60,127,490
5,59,127,50
5,60,101,10
5,62,107,0
5,59,101,25
5,64,125,35
5,60,101,10
5,62,127,10
5,59,101,10
5,60,127,25
5,64,127,5
5,67,101,85
5,74,127,5
5,71,101,5
5,72,127,10
5,69,127,5
5,71,127,485
5,67,127,5
5,64,121,0
5,60,101,40
5,65,107,0
5,62,111,25
5,59,115,205
5,65,127,105
5,69,127,0
5,72,127,5
5,71,127,0
5,67,125,15
5,69,127,10
5,65,127,5
5,62,101,260
5,59,105,365
5,64,127,20
5,60,127,20
5,65,127,125
5,59,127,5
5,64,127,60
5,57,119,65
5,59,127,5
5,57,109,0
5,60,107,5
5,65,127,15
5,59,127,110
5,60,127,0
5,59,101,250
5,60,121,985
5,59,115,55
5,62,101,0
5,64,121,45
5,60,115,0
5,62,127,35
5,59,127,0
5,64,127,25
5,60,121,0
5,67,101,100
5,71,101,510
5,74,127,5
5,72,127,50
5,69,127,5
5,67,123,20
5,71,127,0
5,64,111,5
5,60,101,825
5,62,127,35
5,65,127,10
5,59,115,1025
5,65,127,70
5,72,121,125
5,69,127,10
5,71,127,5
5,67,127,10
5,69,127,180
5,65,127,0
5,62,127,5
5,59,101,440
5,64,111,10
5,60,101,5
5,56,109,15
5,61,127,120
5,65,127,0
5,68,101,20
5,72,101,970
5,75,127,40
5,73,127,5
5,70,127,10
5,72,127,0
5,68,127,10
5,65,127,5
5,63,127,1895
5,66,127,0
5,73,127,475
5,70,127,5
5,72,127,455
5,68,127,0
5,70,127,0
5,66,127,5
5,63,127,5
5,60,101,940
