track,note,velocity,time
1,64,127,49400
1,60,127,0
1,55,127,0
1,62,127,1920
1,59,127,0
1,55,127,0
1,55,0,0
1,64,0,0
1,60,0,0
1,55,127,1440
1,59,127,0
1,64,127,0
1,62,0,0
1,55,0,0
1,59,0,0
1,65,127,480
1,57,127,0
1,62,127,0
1,55,0,0
1,64,0,0
1,59,0,0
1,67,127,1920
1,55,127,0
1,62,127,0
1,65,0,0
1,62,0,0
1,57,0,0
1,64,127,1920
1,60,127,0
1,55,127,0
1,67,0,0
1,62,0,0
1,55,0,0
1,59,127,1920
1,54,127,0
1,63,127,0
1,64,0,0
1,55,0,0
1,60,0,0
1,55,127,1920
1,64,127,0
1,59,127,0
1,59,0,0
1,63,0,0
1,54,0,0
1,28,100,3840
1,40,100,0
1,55,0,0
1,59,0,0
1,64,0,0
1,28,0,226
1,40,0,11
1,64,127,22803
1,60,127,0
1,55,127,0
1,62,127,1920
1,59,127,0
1,55,127,0
1,55,0,0
1,64,0,0
1,60,0,0
1,55,127,1440
1,59,127,0
1,64,127,0
1,62,0,0
1,55,0,0
1,59,0,0
1,65,127,480
1,57,127,0
1,62,127,0
1,55,0,0
1,64,0,0
1,59,0,0
1,67,127,1920
1,55,127,0
1,62,127,0
1,65,0,0
1,62,0,0
1,57,0,0
1,64,127,1920
1,60,127,0
1,55,127,0
1,67,0,0
1,62,0,0
1,55,0,0
1,59,127,1920
1,54,127,0
1,63,127,0
1,64,0,0
1,55,0,0
1,60,0,0
1,55,127,1920
1,64,127,0
1,59,127,0
1,59,0,0
1,63,0,0
1,54,0,0
1,28,124,2880
1,40,124,0
1,55,0,960
1,59,0,0
1,64,0,0
1,28,0,960
1,40,0,0
1,64,127,37440
1,60,127,0
1,55,127,0
1,62,127,1920
1,59,127,0
1,55,127,0
1,55,0,0
1,64,0,0
1,60,0,0
1,55,123,1440
1,59,123,0
1,64,123,0
1,62,0,0
1,55,0,0
1,59,0,0
1,65,127,480
1,57,127,0
1,62,127,0
1,55,0,0
1,64,0,0
1,59,0,0
1,67,122,1920
1,55,127,0
1,62,127,0
1,65,0,0
1,62,0,0
1,57,0,0
1,64,127,1920
1,60,127,0
1,55,127,0
1,67,0,0
1,62,0,0
1,55,0,0
1,59,127,1920
1,54,127,0
1,63,127,0
1,64,0,0
1,55,0,0
1,60,0,0
1,55,127,1920
1,64,127,0
1,59,127,0
1,59,0,0
1,63,0,0
1,54,0,0
1,28,114,2880
1,40,114,0
1,55,0,960
1,59,0,0
1,64,0,0
1,28,0,960
1,40,0,0
1,76,98,6720
1,72,112,0
1,45,112,0
1,69,112,0
1,57,106,240
1,76,0,10
1,72,0,12
1,69,0,13
1,76,98,85
1,72,111,0
1,69,106,0
1,57,0,2
1,76,0,236
1,57,106,2
1,69,0,5
1,72,0,0
1,76,98,115
1,72,117,0
1,69,117,0
1,57,0,7
1,57,106,233
1,76,0,10
1,69,0,12
1,72,0,1
1,76,98,97
1,72,123,0
1,69,117,0
1,57,0,7
1,57,106,233
1,76,0,8
1,72,0,32
1,69,0,2
1,67,106,78
1,71,94,0
1,74,111,0
1,67,0,111
1,71,0,19
1,74,0,1
1,69,106,109
1,77,94,0
1,72,94,0
1,69,0,102
1,77,0,1
1,72,0,15
1,45,0,49
1,57,0,36
1,76,117,37
1,72,100,0
1,69,100,0
1,45,94,0
1,57,106,240
1,72,0,22
1,76,0,3
1,69,0,0
1,57,0,57
1,76,98,38
1,72,117,0
1,69,117,0
1,76,0,172
1,72,0,9
1,69,0,6
1,45,0,26
1,76,98,1347
1,72,112,0
1,45,112,0
1,69,112,0
1,57,106,240
1,76,0,10
1,72,0,12
1,69,0,13
1,76,98,85
1,72,111,0
1,69,106,0
1,57,0,2
1,76,0,236
1,57,106,2
1,69,0,5
1,72,0,0
1,76,98,115
1,72,117,0
1,69,117,0
1,57,0,7
1,57,106,233
1,76,0,10
1,69,0,12
1,72,0,1
1,76,98,97
1,72,123,0
1,69,117,0
1,57,0,7
1,57,106,233
1,76,0,8
1,72,0,32
1,69,0,2
1,67,106,78
1,71,94,0
1,74,111,0
1,67,0,111
1,71,0,19
1,74,0,1
1,69,106,109
1,77,94,0
1,72,94,0
1,69,0,102
1,77,0,1
1,72,0,15
1,45,0,49
1,57,0,36
1,76,117,37
1,72,100,0
1,69,100,0
1,45,94,0
1,57,106,240
1,72,0,22
1,76,0,3
1,69,0,0
1,57,0,57
1,76,98,38
1,72,117,0
1,69,117,0
1,76,0,172
1,72,0,9
1,69,0,6
1,45,0,26
1,76,98,1347
1,72,112,0
1,45,112,0
1,69,112,0
1,57,106,240
1,76,0,10
1,72,0,12
1,69,0,13
1,76,98,85
1,72,111,0
1,69,106,0
1,57,0,2
1,76,0,236
1,57,106,2
1,69,0,5
1,72,0,0
1,76,98,115
1,72,117,0
1,69,117,0
1,57,0,7
1,57,106,233
1,76,0,10
1,69,0,12
1,72,0,1
1,76,98,97
1,72,123,0
1,69,117,0
1,57,0,7
1,57,106,233
1,76,0,8
1,72,0,32
1,69,0,2
1,67,106,78
1,71,94,0
1,74,111,0
1,67,0,111
1,71,0,19
1,74,0,1
1,69,106,109
1,77,94,0
1,72,94,0
1,69,0,102
1,77,0,1
1,72,0,15
1,45,0,49
1,57,0,36
1,76,117,37
1,72,100,0
1,69,100,0
1,45,94,0
1,57,106,240
1,72,0,22
1,76,0,3
1,69,0,0
1,57,0,57
1,76,98,38
1,72,117,0
1,69,117,0
1,76,0,172
1,72,0,9
1,69,0,6
1,45,0,26
1,76,98,1347
1,72,112,0
1,45,112,0
1,69,112,0
1,57,106,240
1,76,0,10
1,72,0,12
1,69,0,13
1,76,98,85
1,72,111,0
1,69,106,0
1,57,0,2
1,76,0,236
1,57,106,2
1,69,0,5
1,72,0,0
1,76,98,115
1,72,117,0
1,69,117,0
1,57,0,7
1,57,106,233
1,76,0,10
1,69,0,12
1,72,0,1
1,76,98,97
1,72,123,0
1,69,117,0
1,57,0,7
1,57,106,233
1,76,0,8
1,72,0,32
1,69,0,2
1,67,106,78
1,71,94,0
1,74,111,0
1,67,0,111
1,71,0,19
1,74,0,1
1,69,106,109
1,77,94,0
1,72,94,0
1,69,0,102
1,77,0,1
1,72,0,15
1,45,0,49
1,57,0,36
1,76,117,37
1,72,100,0
1,69,100,0
1,45,94,0
1,57,106,240
1,72,0,22
1,76,0,3
1,69,0,0
1,57,0,57
1,76,98,38
1,72,117,0
1,69,117,0
1,76,0,172
1,72,0,9
1,69,0,6
1,45,0,26
1,76,98,1347
1,72,112,0
1,45,112,0
1,69,112,0
1,57,106,240
1,76,0,10
1,72,0,12
1,69,0,13
1,76,98,85
1,72,111,0
1,69,106,0
1,57,0,2
1,76,0,236
1,57,106,2
1,69,0,5
1,72,0,0
1,76,98,115
1,72,117,0
1,69,117,0
1,57,0,7
1,57,106,233
1,76,0,10
1,69,0,12
1,72,0,1
1,76,98,97
1,72,123,0
1,69,117,0
1,57,0,7
1,57,106,233
1,76,0,8
1,72,0,32
1,69,0,2
1,67,106,78
1,71,94,0
1,74,111,0
1,67,0,111
1,71,0,19
1,74,0,1
1,69,106,109
1,77,94,0
1,72,94,0
1,69,0,102
1,77,0,1
1,72,0,15
1,45,0,49
1,57,0,36
1,76,117,37
1,72,100,0
1,69,100,0
1,45,94,0
1,57,106,240
1,72,0,22
1,76,0,3
1,69,0,0
1,57,0,57
1,76,98,38
1,72,117,0
1,69,117,0
1,76,0,172
1,72,0,9
1,69,0,6
1,45,0,26
1,76,98,1347
1,72,112,0
1,45,112,0
1,69,112,0
1,57,106,240
1,76,0,10
1,72,0,12
1,69,0,13
1,76,98,85
1,72,111,0
1,69,106,0
1,57,0,2
1,76,0,236
1,57,106,2
1,69,0,5
1,72,0,0
1,76,98,115
1,72,117,0
1,69,117,0
1,57,0,7
1,57,106,233
1,76,0,10
1,69,0,12
1,72,0,1
1,76,98,97
1,72,123,0
1,69,117,0
1,57,0,7
1,57,106,233
1,76,0,8
1,72,0,32
1,69,0,2
1,67,106,78
1,71,94,0
1,74,111,0
1,67,0,111
1,71,0,19
1,74,0,1
1,69,106,109
1,77,94,0
1,72,94,0
1,69,0,102
1,77,0,1
1,72,0,15
1,45,0,49
1,57,0,36
1,76,117,37
1,72,100,0
1,69,100,0
1,45,94,0
1,57,106,240
1,72,0,22
1,76,0,3
1,69,0,0
1,57,0,57
1,76,98,38
1,72,117,0
1,69,117,0
1,76,0,172
1,72,0,9
1,69,0,6
1,45,0,26
1,76,98,1347
1,72,112,0
1,45,112,0
1,69,112,0
1,57,106,240
1,76,0,10
1,72,0,12
1,69,0,13
1,76,98,85
1,72,111,0
1,69,106,0
1,57,0,2
1,76,0,236
1,57,106,2
1,69,0,5
1,72,0,0
1,76,98,115
1,72,117,0
1,69,117,0
1,57,0,7
1,57,106,233
1,76,0,10
1,69,0,12
1,72,0,1
1,76,98,97
1,72,123,0
1,69,117,0
1,57,0,7
1,57,106,233
1,76,0,8
1,72,0,32
1,69,0,2
1,67,106,78
1,71,94,0
1,74,111,0
1,67,0,111
1,71,0,19
1,74,0,1
1,69,106,109
1,77,94,0
1,72,94,0
1,69,0,102
1,77,0,1
1,72,0,15
1,45,0,49
1,57,0,36
1,76,117,37
1,72,100,0
1,69,100,0
1,45,94,0
1,57,106,240
1,72,0,22
1,76,0,3
1,69,0,0
1,57,0,57
1,76,98,38
1,72,117,0
1,69,117,0
1,76,0,172
1,72,0,9
1,69,0,6
1,45,0,26
1,76,98,1347
1,72,112,0
1,45,112,0
1,69,112,0
1,57,106,240
1,76,0,10
1,72,0,12
1,69,0,13
1,76,98,85
1,72,111,0
1,69,106,0
1,57,0,2
1,76,0,236
1,57,106,2
1,69,0,5
1,72,0,0
1,76,98,115
1,72,117,0
1,69,117,0
1,57,0,7
1,57,106,233
1,76,0,10
1,69,0,12
1,72,0,1
1,76,98,97
1,72,123,0
1,69,117,0
1,57,0,7
1,57,106,233
1,76,0,8
1,72,0,32
1,69,0,2
1,67,106,78
1,71,94,0
1,74,111,0
1,67,0,111
1,71,0,19
1,74,0,1
1,69,106,109
1,77,94,0
1,72,94,0
1,69,0,102
1,77,0,1
1,72,0,15
1,45,0,49
1,57,0,36
1,76,117,37
1,72,100,0
1,69,100,0
1,45,94,0
1,57,106,240
1,72,0,22
1,76,0,3
1,69,0,0
1,57,0,57
1,76,98,38
1,72,117,0
1,69,117,0
1,76,0,172
1,72,0,9
1,69,0,6
1,45,0,26
1,76,98,1347
1,72,112,0
1,45,112,0
1,69,112,0
1,57,106,240
1,76,0,10
1,72,0,12
1,69,0,13
1,76,98,85
1,72,111,0
1,69,106,0
1,57,0,2
1,76,0,236
1,57,106,2
1,69,0,5
1,72,0,0
1,76,98,115
1,72,117,0
1,69,117,0
1,57,0,7
1,57,106,233
1,76,0,10
1,69,0,12
1,72,0,1
1,76,98,97
1,72,123,0
1,69,117,0
1,57,0,7
1,57,106,233
1,76,0,8
1,72,0,32
1,69,0,2
1,67,106,78
1,71,94,0
1,74,111,0
1,67,0,111
1,71,0,19
1,74,0,1
1,69,106,109
1,77,94,0
1,72,94,0
1,69,0,102
1,77,0,1
1,72,0,15
1,45,0,49
1,57,0,36
1,76,117,37
1,72,100,0
1,69,100,0
1,45,94,0
1,57,106,240
1,72,0,22
1,76,0,3
1,69,0,0
1,57,0,57
1,76,98,38
1,72,117,0
1,69,117,0
1,76,0,172
1,72,0,9
1,69,0,6
1,45,0,26
1,76,98,1347
1,72,112,0
1,45,112,0
1,69,112,0
1,57,106,240
1,76,0,10
1,72,0,12
1,69,0,13
1,76,98,85
1,72,111,0
1,69,106,0
1,57,0,2
1,76,0,236
1,57,106,2
1,69,0,5
1,72,0,0
1,76,98,115
1,72,117,0
1,69,117,0
1,57,0,7
1,57,106,233
1,76,0,10
1,69,0,12
1,72,0,1
1,76,98,97
1,72,123,0
1,69,117,0
1,57,0,7
1,57,106,233
1,76,0,8
1,72,0,32
1,69,0,2
1,67,106,78
1,71,94,0
1,74,111,0
1,67,0,111
1,71,0,19
1,74,0,1
1,69,106,109
1,77,94,0
1,72,94,0
1,69,0,102
1,77,0,1
1,72,0,15
1,45,0,49
1,57,0,36
1,76,117,37
1,72,100,0
1,69,100,0
1,45,94,0
1,57,106,240
1,72,0,22
1,76,0,3
1,69,0,0
1,57,0,57
1,76,98,38
1,72,117,0
1,69,117,0
1,76,0,172
1,72,0,9
1,69,0,6
1,45,0,26
1,76,98,1347
1,72,112,0
1,45,112,0
1,69,112,0
1,57,106,240
1,76,0,10
1,72,0,12
1,69,0,13
1,76,98,85
1,72,111,0
1,69,106,0
1,57,0,2
1,76,0,236
1,57,106,2
1,69,0,5
1,72,0,0
1,76,98,115
1,72,117,0
1,69,117,0
1,57,0,7
1,57,106,233
1,76,0,10
1,69,0,12
1,72,0,1
1,76,98,97
1,72,123,0
1,69,117,0
1,57,0,7
1,57,106,233
1,76,0,8
1,72,0,32
1,69,0,2
1,67,106,78
1,71,94,0
1,74,111,0
1,67,0,111
1,71,0,19
1,74,0,1
1,69,106,109
1,77,94,0
1,72,94,0
1,69,0,102
1,77,0,1
1,72,0,15
1,45,0,49
1,57,0,36
1,76,117,37
1,72,100,0
1,69,100,0
1,45,94,0
1,57,106,240
1,72,0,22
1,76,0,3
1,69,0,0
1,57,0,57
1,76,98,38
1,72,117,0
1,69,117,0
1,76,0,172
1,72,0,9
1,69,0,6
1,45,0,26
1,76,98,1347
1,72,112,0
1,45,112,0
1,69,112,0
1,57,106,240
1,76,0,10
1,72,0,12
1,69,0,13
1,76,98,85
1,72,111,0
1,69,106,0
1,57,0,2
1,76,0,236
1,57,106,2
1,69,0,5
1,72,0,0
1,76,98,115
1,72,117,0
1,69,117,0
1,57,0,7
1,57,106,233
1,76,0,10
1,69,0,12
1,72,0,1
1,76,98,97
1,72,123,0
1,69,117,0
1,57,0,7
1,57,106,233
1,76,0,8
1,72,0,32
1,69,0,2
1,67,106,78
1,71,94,0
1,74,111,0
1,67,0,111
1,71,0,19
1,74,0,1
1,69,106,109
1,77,94,0
1,72,94,0
1,69,0,102
1,77,0,1
1,72,0,15
1,45,0,49
1,57,0,36
1,76,117,37
1,72,100,0
1,69,100,0
1,45,94,0
1,57,106,240
1,72,0,22
1,76,0,3
1,69,0,0
1,57,0,57
1,76,98,38
1,72,117,0
1,69,117,0
1,76,0,172
1,72,0,9
1,69,0,6
1,45,0,26
2,33,104,3270
2,33,0,120
2,33,96,240
2,33,0,133
2,33,104,227
2,33,0,138
2,33,99,222
2,33,0,240
2,31,104,120
2,34,99,240
2,31,0,0
2,33,104,240
2,34,0,0
2,33,0,120
2,33,96,240
2,33,0,133
2,33,104,227
2,33,0,138
2,33,99,222
2,33,0,240
2,31,104,120
2,34,99,240
2,31,0,0
2,33,104,240
2,34,0,0
2,33,0,120
2,33,96,240
2,33,0,133
2,33,104,227
2,33,0,138
2,33,99,222
2,33,0,240
2,31,104,120
2,34,99,240
2,31,0,0
2,33,104,240
2,34,0,0
2,33,0,120
2,33,96,240
2,33,0,133
2,33,104,227
2,33,0,138
2,33,99,222
2,33,0,240
2,31,104,120
2,34,99,240
2,31,0,0
2,33,104,240
2,34,0,0
2,33,0,120
2,33,96,240
2,33,0,133
2,33,104,227
2,33,0,138
2,33,99,222
2,33,0,240
2,31,104,120
2,34,99,240
2,31,0,0
2,33,104,240
2,34,0,0
2,33,0,120
2,33,96,240
2,33,0,133
2,33,104,227
2,33,0,138
2,33,99,222
2,33,0,240
2,31,104,120
2,34,99,240
2,31,0,0
2,33,104,240
2,34,0,0
2,33,0,120
2,33,96,240
2,33,0,133
2,33,104,227
2,33,0,138
2,33,99,222
2,33,0,240
2,31,104,120
2,34,99,240
2,31,0,0
2,33,104,240
2,34,0,0
2,33,0,120
2,33,96,240
2,33,0,133
2,33,104,227
2,33,0,138
2,33,99,222
2,33,0,240
2,31,104,120
2,34,99,240
2,31,0,0
2,33,104,240
2,34,0,0
2,33,0,120
2,33,96,240
2,33,0,133
