track,note,velocity,time
1,50,49,5376
1,55,64,12
1,59,64,16
1,52,64,0
1,60,64,16
1,54,64,0
1,50,91,0
1,57,64,0
1,50,64,0
1,55,87,12
1,59,64,28
1,53,84,0
1,59,64,8
1,62,64,24
1,48,64,24
1,55,64,12
1,60,64,0
1,64,73,16
1,50,74,0
1,55,64,16
1,59,64,16
1,62,74,20
1,65,56,4
1,67,57,8
1,71,55,16
1,74,63,12
1,48,64,4
1,55,64,0
1,60,64,0
1,50,64,8
1,57,64,12
1,62,64,40
1,50,64,0
1,55,64,8
1,59,64,12
1,62,64,20
1,60,64,8
1,64,64,4
1,55,64,0
1,48,64,8
1,49,64,0
1,55,64,8
1,61,64,8
1,64,64,28
1,59,64,4
1,55,64,0
1,50,64,0
1,54,64,96
1,57,64,0
1,50,64,0
1,55,64,140
1,50,64,0
1,47,64,0
1,48,64,100
1,52,64,0
1,50,64,4
1,55,64,0
1,47,64,0
1,55,56,148
1,50,59,0
1,57,57,0
1,62,64,12
1,59,64,0
1,55,64,0
1,55,64,8
1,59,64,0
1,62,64,0
1,55,64,36
1,64,64,0
1,60,64,0
1,60,64,84
1,57,64,0
1,55,64,108
1,59,64,4
1,62,64,0
1,55,73,0
1,59,78,24
1,62,68,4
1,65,80,32
1,60,64,76
1,55,64,0
1,55,69,208
1,60,70,12
1,64,70,12
1,67,69,20
1,55,64,36
1,59,64,24
1,62,64,8
1,55,68,248
1,59,67,24
1,62,67,12
1,65,70,24
1,55,64,8
1,60,64,0
1,64,64,0
1,57,64,136
1,62,64,8
1,66,64,48
1,59,64,276
1,62,64,28
1,67,64,28
1,64,64,304
1,60,64,0
1,55,64,0
1,64,64,132
1,61,64,0
1,55,64,0
1,67,64,0
1,59,64,0
1,62,64,0
1,67,64,0
1,57,70,140
1,62,69,20
1,66,73,36
1,59,69,192
1,62,70,16
1,67,69,20
1,59,52,72
1,62,57,0
1,65,63,0
1,59,58,100
1,62,59,0
1,65,69,0
1,62,65,92
1,59,64,0
1,65,64,0
1,62,72,104
1,59,72,0
1,65,78,0
1,62,74,100
1,59,78,0
1,65,91,0
1,62,84,96
1,65,94,0
1,59,80,0
1,62,64,10376
1,59,64,0
1,55,64,0
1,55,64,8
1,59,64,0
1,62,64,0
1,55,64,36
1,64,64,0
1,60,64,0
1,60,64,84
1,57,64,0
1,55,64,108
1,59,64,4
1,62,64,0
1,55,73,0
1,59,78,24
1,62,68,4
1,65,80,32
1,60,64,76
1,55,64,0
1,55,69,208
1,60,70,12
1,64,70,12
1,67,69,20
1,55,64,36
1,59,64,24
1,62,64,8
1,55,68,248
1,59,67,24
1,62,67,12
1,65,70,24
1,55,64,8
1,60,64,0
1,64,64,0
1,57,64,136
1,62,64,8
1,66,64,48
1,59,64,276
1,62,64,28
1,67,64,28
1,64,64,304
1,60,64,0
1,55,64,0
1,64,64,324
1,61,64,0
1,55,64,0
1,67,64,0
1,59,64,0
1,62,64,0
1,67,64,0
1,57,70,140
1,62,69,20
1,66,73,36
1,59,69,192
1,59,58,4
1,63,54,0
1,66,54,12
1,60,57,100
1,64,54,16
1,67,55,36
1,67,47,192
1,71,46,32
1,74,42,20
1,69,44,96
1,66,46,0
1,62,46,0
1,67,45,64
1,71,45,20
1,74,38,12
1,65,47,60
1,71,47,12
1,74,47,12
1,51,50,48288
1,56,49,52
1,60,52,32
1,63,56,20
1,68,57,32
2,38,82,768
2,50,64,40
2,33,73,76
2,35,68,52
2,38,82,44
2,50,63,8
2,33,73,64
2,35,70,48
2,38,56,32
2,38,66,44
2,38,73,48
2,38,82,44
2,38,73,40
2,38,87,36
2,38,91,44
2,37,64,332
2,36,61,48
2,35,55,24
2,34,43,44
2,33,34,24
2,32,29,0
2,31,20,36
2,31,73,492
2,31,73,136
2,33,73,36
2,38,73,56
2,31,73,24
2,31,73,140
2,43,73,112
2,31,73,140
2,36,73,112
2,36,73,136
2,36,73,36
2,36,73,136
2,31,73,36
2,31,73,140
2,43,73,32
2,31,73,140
2,36,73,32
2,36,73,136
2,38,73,36
2,38,73,136
2,43,73,36
2,40,73,212
2,38,73,56
2,36,73,32
2,48,73,52
2,49,73,40
2,50,73,36
2,50,73,136
2,50,73,36
2,45,73,84
2,50,73,52
2,43,73,36
2,38,73,140
2,43,73,32
2,38,73,56
2,40,73,56
2,38,73,60
2,31,73,52
2,31,73,136
2,33,73,36
2,38,73,56
2,31,73,24
2,31,73,140
2,43,73,112
2,31,73,140
2,36,73,112
2,36,73,136
2,36,73,36
2,36,73,136
2,31,73,36
2,31,73,140
2,43,73,32
2,31,73,140
2,36,73,32
2,36,73,136
2,38,73,36
2,42,70,92
2,38,73,60
2,43,73,36
2,40,73,212
2,38,73,56
2,36,73,32
2,48,73,52
2,49,73,40
2,50,73,36
2,50,73,136
2,50,73,36
2,45,73,84
2,50,73,52
2,43,73,36
2,38,73,140
2,43,73,32
2,31,73,140
2,36,73,32
2,36,73,136
2,36,73,36
2,36,73,136
2,31,73,36
2,31,73,140
2,43,73,112
2,31,64,44
2,33,73,36
2,31,73,56
2,36,73,12
2,36,73,136
2,33,73,36
2,35,64,68
2,36,73,36
2,38,73,36
2,38,73,160
2,38,73,156
2,38,73,156
2,38,73,156
2,38,73,156
2,31,73,156
2,31,73,136
2,33,73,36
2,38,73,56
2,31,73,24
2,31,73,140
2,43,73,112
2,31,73,140
2,36,73,112
2,36,73,136
2,36,73,36
2,36,73,136
2,31,73,36
2,31,73,140
2,43,73,32
2,38,73,56
2,35,73,32
2,31,73,36
2,36,73,32
2,36,73,136
2,38,73,36
2,38,73,136
2,43,73,36
2,55,60,20
2,48,73,36
2,48,59,60
2,49,73,32
2,50,73,40
2,38,73,44
2,50,73,576
2,50,73,52
2,35,73,0
2,35,73,140
2,36,73,32
2,37,73,56
2,40,73,44
2,37,73,44
2,38,73,12
2,38,73,140
2,50,73,32
2,38,73,140
2,31,73,12
2,43,73,32
2,36,73,32
2,48,73,24
2,43,73,188
2,36,73,36
2,36,64,32
2,31,73,44
2,43,73,36
2,31,75,384
2,43,73,32
2,31,73,28
2,31,73,32
2,31,64,60
2,33,73,36
2,31,73,56
2,36,73,12
2,31,70,168
2,36,73,0
2,33,73,36
2,38,64,68
2,45,73,36
2,38,64,36
2,38,73,44
2,38,73,48
2,38,73,48
2,38,73,44
2,38,73,56
2,38,73,28
2,38,73,40
2,38,73,40
2,50,82,40
2,50,73,32
2,38,73,40
2,39,64,40
2,39,64,20
2,39,73,56
2,39,64,20
2,39,73,56
2,39,73,44
2,39,73,56
2,39,64,28
2,39,73,44
2,39,73,48
2,39,73,48
2,39,73,44
2,39,73,56
2,32,73,28
2,32,73,136
2,34,73,36
2,39,73,56
2,32,73,24
2,39,64,16
2,44,76,16
2,46,64,60
2,44,73,8
2,39,73,28
2,44,73,36
2,37,73,44
2,32,73,136
2,37,73,36
2,39,64,56
2,41,73,32
2,32,73,36
2,32,73,140
2,42,73,32
2,42,72,32
2,41,73,28
2,39,73,52
2,36,82,56
2,32,64,52
2,37,73,8
2,37,73,72
2,37,73,36
2,39,73,36
2,41,73,28
2,43,73,36
2,44,73,36
2,48,75,88
2,36,75,132
2,37,75,36
2,38,75,36
2,39,73,36
2,53,73,0
2,52,64,36
2,51,73,28
2,36,73,40
2,37,73,20
2,38,73,36
2,39,73,36
2,51,73,16
3,74,97,752
3,66,94,0
3,69,60,0
3,74,86,132
3,69,64,0
3,66,91,4
3,69,64,140
3,66,91,0
3,74,91,4
3,66,91,140
3,74,93,0
3,69,73,4
3,65,100,492
3,71,100,0
3,68,60,0
3,68,52,128
3,71,91,8
3,65,91,0
3,68,82,132
3,71,93,4
3,65,91,0
3,65,90,140
3,68,82,0
3,71,105,4
3,84,91,480
3,78,64,8
3,66,94,4
3,72,94,0
3,69,60,0
3,84,91,124
3,78,64,4
3,66,91,4
3,69,64,0
3,72,100,0
3,78,73,128
3,66,91,0
3,72,91,0
3,69,64,8
3,84,82,0
3,76,73,124
3,85,82,0
3,73,91,4
3,67,82,4
3,64,100,0
3,85,91,116
3,73,100,16
3,76,73,4
3,64,90,4
3,67,82,0
3,73,100,116
3,64,100,8
3,77,73,8
3,81,69,0
3,67,91,4
3,84,77,0
3,85,80,20
3,86,104,48
3,66,100,4
3,69,73,0
3,72,109,0
3,78,91,4
3,64,78,38164
3,67,78,0
3,72,78,0
3,64,78,140
3,72,78,0
3,67,78,0
3,72,78,132
3,67,78,4
3,64,78,4
3,67,78,688
3,72,78,4
3,64,78,0
3,76,78,0
3,64,78,124
3,67,78,0
3,72,78,0
3,76,78,0
3,67,78,136
3,72,78,0
3,76,78,0
3,64,78,0
3,74,78,688
3,79,78,0
3,83,78,4
3,74,78,136
3,79,78,0
3,83,78,0
3,83,78,140
3,79,78,0
3,74,78,0
3,83,78,716
3,77,78,0
3,74,78,0
3,77,78,132
3,83,78,0
3,74,78,0
3,77,78,140
3,83,78,0
3,74,78,4
3,76,78,716
3,72,78,4
3,76,78,144
3,72,78,0
3,76,78,144
3,72,78,0
3,72,78,140
3,76,78,552
3,72,78,0
3,79,78,0
3,76,78,148
3,72,78,0
3,79,78,0
3,76,78,148
3,72,78,0
3,79,78,0
3,59,69,528
3,66,67,1152
3,57,67,0
3,65,67,540
3,59,64,0
3,59,67,0
3,60,59,548
3,66,64,0
3,60,64,0
3,61,56,544
3,67,45,0
3,61,52,0
3,67,44,4
3,62,64,12680
3,57,64,1152
3,59,70,24
3,60,67,1152
3,61,67,4
3,62,59,16
3,59,61,2308
3,55,63,0
3,53,77,1152
3,67,80,192
3,72,80,4
3,76,80,0
3,72,80,140
3,76,80,0
3,67,80,0
3,76,80,140
3,72,80,0
3,67,80,0
3,76,80,724
3,72,80,0
3,67,80,0
3,72,80,136
3,76,80,0
3,67,80,0
3,76,80,144
3,72,80,4
3,67,80,0
3,74,80,712
3,79,80,0
3,83,80,0
3,74,80,132
3,79,80,0
3,83,80,0
3,83,80,136
3,74,80,0
3,79,80,0
3,77,80,664
3,83,80,0
3,74,80,0
3,77,80,144
3,74,80,0
3,83,80,4
3,77,80,128
3,83,80,0
3,74,80,4
3,46,82,5100
3,48,56,84
3,49,64,48
3,51,91,48
3,53,73,92
3,55,82,56
3,56,82,84
3,58,69,88
3,60,95,80
3,56,82,64
3,58,100,8
3,60,87,96
3,61,104,4
3,58,91,4
3,60,84,8
3,61,107,92
3,58,87,76
3,77,60,80
3,65,112,0
3,75,68,64
3,63,85,8
3,67,112,0
3,79,94,12
3,75,94,76
3,63,103,4
3,82,94,0
3,70,94,0
3,79,85,84
3,67,76,4
3,89,112,4
3,77,103,4
3,87,94,0
3,75,94,4
3,80,80,4836
3,77,73,0
3,77,75,140
3,73,74,0
3,77,75,140
3,80,73,0
3,80,69,692
3,77,71,0
3,73,68,136
3,77,70,0
3,80,70,144
3,77,76,0
3,80,67,672
3,75,70,4
3,66,66,128
3,72,66,0
3,75,66,0
3,80,67,112
3,66,66,0
3,66,66,708
3,80,65,0
3,75,64,0
3,66,66,124
3,75,64,0
3,72,67,0
3,75,66,128
3,80,67,0
3,66,67,0
3,61,64,516
3,89,52,4
3,77,52,0
3,63,64,0
3,79,56,0
3,91,54,4
3,92,62,1152
3,80,57,0
3,60,64,552
3,61,64,4
3,89,54,16
3,62,64,4
3,77,57,0
3,63,64,540
3,75,56,0
3,87,55,4
3,67,42,4
3,72,44,0
3,73,44,20
3,68,40,0
3,74,65,16
3,68,67,0
3,65,66,0
3,75,45,0
3,72,46,0
3,70,41,1152
3,44,92,1152
3,44,64,16
3,77,46,1148
3,44,64,0
3,73,49,0
3,44,64,0
3,72,51,548
3,44,64,0
3,68,54,556
3,44,64,56
3,60,45,4
3,59,47,16
3,56,45,1156
3,49,44,0
4,64,100,4804
4,62,100,560
4,59,100,20
4,55,91,0
4,57,100,212
4,60,101,568
4,59,93,0
4,57,91,124
4,55,91,124
4,55,91,932
4,64,91,216
4,64,100,40
4,60,100,8
4,62,91,12
4,64,98,8
4,62,98,16
4,55,91,920
4,64,100,16
4,64,100,40
4,66,100,12
4,64,91,764
4,66,91,12
4,67,91,12
4,64,87,744
4,67,100,4
4,64,101,4
4,64,107,32
4,62,91,544
4,59,93,344
4,59,91,36
4,57,100,0
4,55,82,8
4,57,100,8
4,55,100,8
4,64,100,580
4,62,98,4
4,59,90,756
4,55,95,192
4,57,95,0
4,60,91,8
4,59,95,8
4,57,95,112
4,55,101,120
4,55,100,904
4,64,100,8
4,64,93,24
4,64,95,24
4,67,98,28
4,62,101,760
4,64,100,16
4,62,100,20
4,55,100,924
4,64,100,24
4,64,100,44
4,66,100,28
4,64,100,20
4,66,100,32
4,67,100,32
4,64,91,752
4,67,91,24
4,64,100,20
4,64,101,28
4,62,98,32
4,59,101,20
4,59,91,36
4,57,100,20
4,55,82,16
4,57,100,24
4,55,100,16
4,55,100,932
4,64,100,28
4,64,91,52
4,64,91,48
4,60,104,24
4,62,101,4
4,64,98,24
4,62,98,28
4,59,100,8
4,62,100,28
4,55,91,120
4,64,101,16
4,64,91,52
4,64,100,40
4,60,100,16
4,62,91,36
4,64,100,36
4,62,100,40
4,59,100,24
4,55,95,16
4,57,100,20
4,64,100,576
4,62,100,40
4,59,98,4
4,55,95,8
4,57,100,16
4,60,100,20
4,59,93,12
4,57,95,0
4,55,95,4
4,55,91,908
4,64,100,12
4,64,82,52
4,64,91,52
4,60,100,24
4,62,91,16
4,64,82,28
4,62,91,24
4,55,91,892
4,64,100,12
4,64,91,44
4,66,95,44
4,67,82,20
4,69,91,12
4,67,100,28
4,69,101,20
4,67,104,12
4,64,109,0
4,64,104,140
4,62,101,20
4,59,100,0
4,59,91,36
4,57,100,8
4,55,91,0
4,57,91,16
4,59,100,20
4,64,100,548
4,62,100,64
4,59,91,20
4,59,91,40
4,57,100,24
4,55,100,764
4,57,100,28
4,55,100,20
4,67,109,5424
4,64,109,8
4,64,100,40
4,64,100,40
4,60,100,16
4,62,101,12
4,64,107,32
4,62,109,32
4,66,100,28
4,67,100,40
4,69,110,16
4,70,100,12
4,63,91,704
4,68,100,20
4,68,91,44
4,68,100,36
4,68,100,48
4,68,100,48
4,65,100,4
4,68,91,12
4,68,100,716
4,65,109,408
4,65,100,44
4,65,91,36
4,68,91,32
4,65,91,20
4,61,91,20
4,63,100,36
4,68,100,952
4,65,100,16
4,70,100,24
4,67,100,16
4,68,91,28
4,70,82,32
4,72,100,36
4,70,100,24
4,68,100,8
4,70,91,36
4,68,91,4
4,65,93,12
4,65,100,44
4,63,100,20
4,60,100,8
4,56,91,4
4,58,100,20
4,56,100,8
4,58,91,24
4,60,100,32
4,65,100,516
4,63,91,40
4,60,91,20
4,60,100,40
4,58,101,0
4,68,91,16
4,67,73,552
4,65,82,96
4,63,73,124
4,65,100,384
4,63,100,8
4,68,98,1108
4,67,109,636
4,68,101,548
5,49,122,119600
5,56,125,384
5,61,125,192
5,64,119,8
5,68,125,92
5,76,125,96
5,80,122,0
5,82,119,96
5,82,115,40
5,80,113,32
5,82,110,20
5,80,110,24
5,82,101,0
5,80,104,44
5,82,104,44
5,80,101,36
5,82,101,52
5,80,98,44
5,82,98,0
5,80,98,48
5,82,98,52
5,80,98,0
5,82,98,52
5,80,95,0
5,82,93,56
5,80,90,0
6,50,73,724
6,62,109,2312
6,64,100,12
6,62,91,372
6,62,55,1128
6,67,59,0
6,71,66,0
6,59,67,4
6,69,64,0
6,60,73,4
6,64,73,0
6,66,64,0
6,60,71,0
6,57,69,4
6,62,70,20
6,59,72,0
6,71,64,0
6,67,64,0
6,65,64,1136
6,67,59,4
6,60,67,0
6,64,71,0
6,72,55,0
6,55,78,1152
6,62,66,4
6,71,69,0
6,67,63,0
6,59,63,0
6,65,73,1152
6,55,48,4
6,60,64,0
6,67,48,0
6,64,64,0
6,57,64,12
6,62,64,4
6,69,64,0
6,66,64,0
6,62,64,12
6,59,64,0
6,71,64,0
6,67,64,0
6,64,64,12
6,72,64,0
6,67,64,0
