track,note,velocity,time
1,29,91,13824
1,41,91,92
1,39,91,120
1,51,91,96
1,24,91,60
1,36,91,72
1,39,91,84
1,29,91,108
1,41,91,124
1,29,91,360
1,36,91,8
1,39,91,84
1,41,91,84
1,25,91,84
1,37,91,92
1,27,91,284
1,39,91,20
1,36,91,76
1,39,91,68
1,29,91,44
1,39,91,544
1,36,91,32
1,34,91,96
1,32,91,72
1,29,91,76
1,41,91,92
1,39,91,120
1,51,91,96
1,24,91,60
1,36,91,72
1,39,91,84
1,29,91,108
1,41,91,124
1,29,91,360
1,36,91,8
1,39,91,84
1,41,91,84
1,25,91,84
1,37,91,92
1,27,91,284
1,39,91,20
1,36,91,76
1,39,91,68
1,29,91,44
1,39,91,544
1,36,91,32
1,34,91,96
1,32,91,72
1,29,91,76
1,41,91,92
1,39,91,120
1,51,91,96
1,24,91,60
1,36,91,72
1,39,91,84
1,29,91,108
1,41,91,124
1,29,91,360
1,36,91,8
1,39,91,84
1,41,91,84
1,25,91,84
1,37,91,92
1,27,91,284
1,39,91,20
1,36,91,76
1,39,91,68
1,29,91,44
1,39,91,544
1,36,91,32
1,34,91,96
1,32,91,72
1,29,91,76
1,41,91,92
1,39,91,120
1,51,91,96
1,24,91,60
1,36,91,72
1,39,91,84
1,29,91,108
1,41,91,124
1,29,91,360
1,36,91,8
1,39,91,84
1,41,91,84
1,25,91,84
1,37,91,92
1,27,91,284
1,39,91,20
1,36,91,76
1,39,91,68
1,29,91,44
1,39,91,544
1,36,91,32
1,34,91,96
1,32,91,72
1,29,91,76
1,41,91,92
1,39,91,120
1,51,91,96
1,24,91,60
1,36,91,72
1,39,91,84
1,29,91,108
1,41,91,124
1,29,91,360
1,36,91,8
1,39,91,84
1,41,91,84
1,25,91,84
1,37,91,92
1,27,91,284
1,39,91,20
1,36,91,76
1,39,91,68
1,29,91,44
1,39,91,544
1,36,91,32
1,34,91,96
1,32,91,72
1,29,91,76
1,41,91,92
1,39,91,120
1,51,91,96
1,24,91,60
1,36,91,72
1,39,91,84
1,29,91,108
1,41,91,124
1,29,91,360
1,36,91,8
1,39,91,84
1,41,91,84
1,25,91,84
1,37,91,92
1,27,91,284
1,39,91,20
1,36,91,76
1,39,91,68
1,29,91,44
1,39,91,544
1,36,91,32
1,34,91,96
1,32,91,72
1,29,91,76
1,41,91,92
1,39,91,120
1,51,91,96
1,24,91,60
1,36,91,72
1,39,91,84
1,29,91,108
1,41,91,92
1,39,91,120
1,51,91,96
1,24,91,60
1,36,91,72
1,39,91,84
1,29,102,108
1,29,91,1488
1,41,91,92
1,39,91,120
1,51,91,96
1,24,91,60
1,36,91,72
1,39,91,84
1,29,91,108
1,41,91,124
1,29,91,360
1,36,91,8
1,39,91,84
1,41,91,84
1,25,91,84
1,37,91,92
1,27,91,284
1,39,91,20
1,36,91,76
1,39,91,68
1,29,91,44
1,39,91,544
1,36,91,32
1,34,91,96
1,32,91,72
1,29,91,76
1,41,91,92
1,39,91,120
1,51,91,96
1,24,91,60
1,36,91,72
1,39,91,84
1,29,91,108
1,41,91,124
1,29,91,360
1,36,91,8
1,39,91,84
1,41,91,84
1,25,91,84
1,37,91,92
1,27,91,284
1,39,91,20
1,36,91,76
1,39,91,68
1,29,91,44
1,39,91,544
1,36,91,32
1,34,91,96
1,32,91,72
1,29,91,76
1,41,91,92
1,39,91,120
1,51,91,96
1,24,91,60
1,36,91,72
1,39,91,84
1,29,91,108
1,41,91,124
1,29,91,360
1,36,91,8
1,39,91,84
1,41,91,84
1,25,91,84
1,37,91,92
1,27,91,284
1,39,91,20
1,36,91,76
1,39,91,68
1,29,91,44
1,39,91,544
1,36,91,32
1,34,91,96
1,32,91,72
1,29,91,76
1,41,91,92
1,39,91,120
1,51,91,96
1,24,91,60
1,36,91,72
1,39,91,84
1,29,91,108
1,41,91,124
1,29,91,360
1,36,91,8
1,39,91,84
1,41,91,84
1,25,91,84
1,37,91,92
1,27,91,284
1,39,91,20
1,36,91,76
1,39,91,68
1,29,91,44
1,44,91,544
1,39,91,52
1,41,91,92
1,43,91,140
1,44,91,132
1,44,91,784
1,39,91,56
1,44,91,72
1,39,91,124
1,41,91,96
1,41,91,792
1,39,91,44
1,41,91,108
1,39,91,128
1,42,91,100
1,39,91,880
1,42,91,0
1,42,91,108
1,44,91,128
1,39,91,136
1,44,91,752
1,39,91,48
1,41,91,108
1,43,91,140
1,44,91,140
1,44,91,804
1,39,91,48
1,44,91,108
1,39,91,132
1,41,91,120
1,41,91,808
1,39,91,48
1,41,91,112
1,39,91,140
1,42,91,112
1,42,91,800
1,39,91,44
1,42,91,116
1,44,91,144
1,39,91,144
1,44,91,792
1,39,91,48
1,41,91,108
1,43,91,136
1,44,91,140
1,44,91,808
1,39,91,36
1,44,91,108
1,39,91,120
1,41,91,92
1,41,91,776
1,39,91,44
1,41,91,116
1,39,91,120
1,42,91,72
1,42,91,772
1,39,91,40
1,42,91,104
1,44,91,136
1,39,91,132
1,44,91,752
1,39,91,48
1,41,91,96
1,43,91,140
1,44,91,140
1,44,91,808
1,39,91,44
1,44,91,112
1,39,91,140
1,41,91,128
1,41,91,804
1,39,91,40
1,41,91,104
1,39,91,132
1,42,91,116
1,42,91,800
1,39,91,44
1,42,91,92
1,44,91,144
1,39,91,148
1,39,91,200
1,39,91,196
1,39,91,848
1,39,91,200
1,39,91,208
1,29,91,868
1,41,91,92
1,39,91,120
1,51,91,96
1,24,91,60
1,36,91,72
1,39,91,84
1,29,91,108
1,41,91,124
1,29,91,360
1,36,91,8
1,39,91,84
1,41,91,84
1,25,91,84
1,37,91,92
1,27,91,284
1,39,91,20
1,36,91,76
1,39,91,68
1,29,91,44
1,39,91,544
1,36,91,32
1,34,91,96
1,32,91,72
1,29,91,76
1,41,91,92
1,39,91,120
1,51,91,96
1,24,91,60
1,36,91,72
1,39,91,84
1,29,91,108
1,41,91,124
1,29,91,360
1,36,91,8
1,39,91,84
1,41,91,84
1,25,91,84
1,37,91,92
1,27,91,284
1,39,91,20
1,36,91,76
1,39,91,68
1,29,91,44
1,39,91,544
1,36,91,32
1,34,91,96
1,32,91,72
1,25,91,76
1,37,91,92
1,27,91,284
1,39,91,20
1,36,91,76
1,39,91,68
1,29,91,44
1,39,91,544
1,36,91,32
1,34,91,96
1,32,91,72
1,29,91,76
1,41,91,92
1,39,91,120
1,51,91,96
1,24,91,60
1,36,91,72
1,39,91,84
1,29,91,108
1,41,91,124
1,29,91,360
1,36,91,8
1,39,91,84
1,41,91,84
1,25,91,84
1,37,91,92
1,27,91,284
1,39,91,20
1,36,91,76
1,39,91,68
1,29,91,44
1,39,91,544
1,36,91,32
1,34,91,96
1,32,91,72
1,29,91,76
1,41,91,92
1,39,91,120
1,51,91,96
1,24,91,60
1,36,91,72
1,39,91,84
1,29,91,108
1,41,91,124
1,29,91,360
1,36,91,8
1,39,91,84
1,41,91,84
1,25,91,84
1,37,91,92
1,27,91,284
1,39,91,20
1,36,91,76
1,39,91,68
1,29,91,44
1,39,91,544
1,36,91,32
1,34,91,96
1,32,91,72
2,87,118,92160
2,84,118,20
2,82,118,96
2,80,118,52
2,80,118,100
2,82,118,96
2,84,118,60
2,87,118,64
2,84,118,52
2,82,118,92
2,80,118,84
2,87,118,92
2,84,118,0
2,82,118,96
2,80,118,52
2,80,118,92
2,82,118,96
2,84,118,60
2,87,118,72
2,84,118,40
2,82,118,68
2,80,118,92
2,87,118,96
2,84,118,20
2,82,118,96
2,80,118,52
2,80,118,100
2,82,118,96
2,84,118,60
2,87,118,64
2,84,118,52
2,82,118,92
2,80,118,84
2,87,118,92
2,84,118,20
2,82,118,96
2,80,118,52
2,80,118,100
2,82,118,96
2,84,118,60
2,87,118,64
2,84,118,52
2,82,118,92
2,80,118,84
2,87,118,92
2,84,118,20
2,82,118,96
2,80,118,52
2,80,118,100
2,82,118,96
2,84,118,60
2,87,118,64
2,84,118,52
2,82,118,92
2,80,118,84
2,87,118,92
2,84,118,0
2,82,118,96
2,80,118,52
2,80,118,92
2,82,118,96
2,84,118,60
2,87,118,72
2,84,118,40
2,82,118,68
2,80,118,92
2,87,118,96
2,84,118,20
2,82,118,96
2,80,118,52
2,80,118,100
2,82,118,96
2,84,118,60
2,87,118,64
2,84,118,52
2,82,118,92
2,80,118,84
2,87,118,92
2,84,118,20
2,82,118,96
2,80,118,52
2,80,118,100
2,82,118,96
2,84,118,60
2,87,118,64
2,84,118,52
2,82,118,92
2,80,118,84
2,87,118,92
2,84,118,20
2,82,118,96
2,80,118,52
2,80,118,100
2,82,118,96
2,84,118,60
2,87,118,64
2,84,118,52
2,82,118,92
2,80,118,84
3,75,127,79872
3,80,127,0
3,68,127,244
3,75,127,0
3,75,127,172
3,80,127,0
3,68,127,224
3,75,127,0
3,68,127,96
3,75,127,0
3,80,127,20
3,68,127,128
3,75,127,0
3,75,127,104
3,80,127,0
3,68,127,224
3,75,127,0
3,75,127,184
3,80,127,0
3,68,127,216
3,75,127,0
3,68,127,120
3,75,127,0
3,75,127,36
3,80,127,0
3,75,127,52
3,80,127,0
3,68,127,48
3,75,127,0
3,75,127,100
3,80,127,0
3,68,127,232
3,75,127,0
3,75,127,188
3,80,127,0
3,68,127,224
3,75,127,0
3,68,127,104
3,75,127,0
3,75,127,32
3,80,127,0
3,68,127,132
3,75,127,0
3,75,127,100
3,80,127,0
3,68,127,232
3,75,127,0
3,75,127,188
3,80,127,0
3,68,127,220
3,75,127,0
3,68,127,124
3,75,127,0
3,75,127,24
3,80,127,0
3,68,127,132
3,75,127,0
3,75,127,116
3,80,127,0
3,84,127,0
3,68,127,164
3,75,127,0
3,80,127,0
3,75,127,184
3,80,127,0
3,84,127,0
3,68,127,152
3,75,127,0
3,80,127,0
3,68,127,108
3,75,127,0
3,80,127,0
3,75,127,40
3,80,127,0
3,84,127,0
3,68,127,84
3,75,127,0
3,80,127,0
3,75,127,128
3,80,127,0
3,84,127,0
3,68,127,172
3,75,127,0
3,80,127,0
3,75,127,192
3,80,127,0
3,84,127,0
3,68,127,184
3,75,127,0
3,80,127,0
3,68,127,116
3,75,127,0
3,80,127,0
3,75,127,52
3,80,127,0
3,84,127,0
3,75,127,24
3,80,127,0
3,84,127,0
3,68,127,44
3,75,127,0
3,80,127,0
3,75,127,136
3,80,127,0
3,84,127,0
3,68,127,220
3,75,127,0
3,80,127,0
3,75,127,180
3,80,127,0
3,84,127,0
3,68,127,196
3,75,127,0
3,80,127,0
3,68,127,124
3,75,127,0
3,80,127,0
3,75,127,56
3,80,127,0
3,84,127,0
3,68,127,80
3,75,127,0
3,80,127,0
3,75,127,112
3,80,127,0
3,84,127,0
3,68,127,204
3,75,127,0
3,80,127,0
3,75,127,200
3,80,127,0
3,84,127,0
3,68,127,200
3,75,127,0
3,80,127,0
3,68,127,116
3,75,127,0
3,80,127,0
3,75,127,44
3,80,127,0
3,84,127,0
3,68,127,76
3,75,127,0
3,80,127,0
3,75,127,120
3,80,127,0
3,68,127,244
3,75,127,0
3,75,127,172
3,80,127,0
3,68,127,224
3,75,127,0
3,68,127,96
3,75,127,0
3,80,127,20
3,68,127,128
3,75,127,0
3,75,127,104
3,80,127,0
3,68,127,224
3,75,127,0
3,75,127,184
3,80,127,0
3,68,127,216
3,75,127,0
3,68,127,120
3,75,127,0
3,75,127,36
3,80,127,0
3,75,127,52
3,80,127,0
3,68,127,48
3,75,127,0
3,75,127,100
3,80,127,0
3,68,127,232
3,75,127,0
3,75,127,188
3,80,127,0
3,68,127,224
3,75,127,0
3,68,127,104
3,75,127,0
3,75,127,32
3,80,127,0
3,68,127,132
3,75,127,0
3,75,127,100
3,80,127,0
3,68,127,232
3,75,127,0
3,75,127,188
3,80,127,0
3,68,127,220
3,75,127,0
3,68,127,124
3,75,127,0
3,75,127,24
3,80,127,0
3,68,127,132
3,75,127,0
3,75,127,116
3,80,127,0
3,84,127,0
3,68,127,164
3,75,127,0
3,80,127,0
3,75,127,184
3,80,127,0
3,84,127,0
3,68,127,152
3,75,127,0
3,80,127,0
3,68,127,108
3,75,127,0
3,80,127,0
3,75,127,40
3,80,127,0
3,84,127,0
3,68,127,84
3,75,127,0
3,80,127,0
3,75,127,128
3,80,127,0
3,84,127,0
3,68,127,172
3,75,127,0
3,80,127,0
3,75,127,192
3,80,127,0
3,84,127,0
3,68,127,184
3,75,127,0
3,80,127,0
3,68,127,116
3,75,127,0
3,80,127,0
3,75,127,52
3,80,127,0
3,84,127,0
3,75,127,24
3,80,127,0
3,84,127,0
3,68,127,44
3,75,127,0
3,80,127,0
3,75,127,136
3,80,127,0
3,84,127,0
3,68,127,220
3,75,127,0
3,80,127,0
3,75,127,180
3,80,127,0
3,84,127,0
3,68,127,196
3,75,127,0
3,80,127,0
3,68,127,124
3,75,127,0
3,80,127,0
3,75,127,56
3,80,127,0
3,84,127,0
3,68,127,80
3,75,127,0
3,80,127,0
3,75,127,112
3,80,127,0
3,84,127,0
3,68,127,204
3,75,127,0
3,80,127,0
3,75,127,200
3,80,127,0
3,84,127,0
3,68,127,200
3,75,127,0
3,80,127,0
3,68,127,116
3,75,127,0
3,80,127,0
3,75,127,44
3,80,127,0
3,84,127,0
3,68,127,76
3,75,127,0
3,80,127,0
3,75,127,120
3,80,127,0
3,84,127,0
3,68,127,204
3,75,127,0
3,80,127,0
3,75,127,200
3,80,127,0
3,84,127,0
3,68,127,200
3,75,127,0
3,80,127,0
3,68,127,116
3,75,127,0
3,80,127,0
3,75,127,44
3,80,127,0
3,84,127,0
3,68,127,76
3,75,127,0
3,80,127,0
4,98,100,38400
4,98,100,36
4,99,100,24
4,98,100,56
4,100,100,32
4,98,100,40
4,99,100,36
4,98,100,52
4,98,100,40
4,98,100,36
4,96,100,28
4,98,100,40
4,97,100,20
4,98,100,48
4,98,100,24
4,98,100,32
4,96,100,32
4,98,100,32
4,95,100,20
4,98,100,52
4,96,100,28
4,98,100,36
4,97,100,20
4,98,100,48
4,98,100,32
4,98,100,40
4,99,100,24
4,98,100,40
4,100,100,24
4,98,100,16
4,99,100,20
4,98,100,32
4,98,100,16
4,98,100,28
4,97,100,20
4,98,100,44
4,96,100,4
4,100,100,24
4,99,100,16
4,100,100,48
4,100,100,28
4,100,100,36
4,98,100,20
4,100,100,32
4,97,100,24
4,100,100,40
4,96,100,24
4,100,100,40
4,98,100,24
4,100,100,36
4,99,100,24
4,100,100,48
4,98,100,20
4,100,100,28
4,97,100,24
4,100,100,56
4,96,100,20
4,100,100,40
4,94,100,20
4,100,100,56
4,96,100,16
4,100,100,40
4,98,100,12
4,100,100,40
4,99,100,12
4,100,100,40
4,98,100,32
4,100,100,32
4,97,100,28
4,100,100,52
4,96,100,28
4,100,100,36
4,95,100,32
4,100,100,48
4,96,100,28
4,100,100,48
4,97,100,12
4,100,100,48
4,98,100,28
4,100,100,44
4,99,100,20
4,100,100,48
4,98,100,24
4,100,100,36
4,97,100,12
4,100,100,40
4,96,100,12
4,100,100,36
4,95,100,16
4,100,100,40
4,96,100,96
4,100,100,40
4,97,100,8
4,100,100,48
4,95,100,0
4,100,100,44
4,96,100,12
4,100,100,40
4,97,100,12
4,100,100,52
4,95,100,16
4,100,100,36
4,96,100,16
4,100,100,44
4,97,100,20
4,100,100,36
4,95,100,4
4,100,100,40
4,96,100,4
4,100,100,40
4,97,100,12
4,100,100,48
4,98,100,16
4,100,100,24
4,97,100,8
4,100,100,48
4,96,100,0
4,100,100,28
4,98,100,8
4,98,100,0
4,100,100,92
4,99,100,4
4,100,100,36
4,98,100,12
4,100,100,16
4,97,100,12
4,100,100,40
4,96,100,8
4,100,100,20
4,98,100,12
4,100,100,32
4,99,100,4
4,100,100,44
4,98,100,8
4,100,100,32
4,97,100,4
4,100,100,56
4,96,100,4
4,100,100,36
4,98,100,12
4,100,100,28
4,99,100,12
4,100,100,40
4,98,100,4
4,100,100,24
4,97,100,96
4,100,100,48
4,96,100,96
4,100,100,32
