track,note,velocity,time
0,47,110,160
0,47,84,0
0,35,108,0
0,69,32,0
0,86,50,0
0,90,62,0
0,64,74,70
0,65,64,0
0,47,39,229
0,57,76,220
0,61,74,0
0,62,72,0
0,66,102,0
0,46,65,0
0,69,32,0
0,47,90,0
0,57,52,0
0,61,64,0
0,62,60,0
0,44,79,45
0,69,30,0
0,42,75,0
0,44,94,65
0,47,84,0
0,47,92,80
0,42,59,0
0,69,32,0
0,46,73,0
0,85,64,4
0,88,58,0
0,45,102,0
0,35,108,0
0,69,32,0
0,45,75,0
0,64,74,75
0,65,64,0
0,57,60,469
0,59,68,0
0,61,66,0
0,64,72,0
0,57,82,0
0,59,88,0
0,61,86,0
0,64,90,0
0,45,84,0
0,46,65,0
0,69,32,0
0,40,80,75
0,44,79,0
0,69,30,0
0,45,78,65
0,44,94,0
0,45,94,0
0,46,75,0
0,42,59,0
0,69,32,0
0,86,56,4
0,90,60,0
0,47,108,0
0,47,78,0
0,35,108,0
0,69,32,0
0,64,74,100
0,65,64,0
0,47,52,229
0,57,56,205
0,61,70,0
0,62,60,0
0,57,70,0
0,61,68,0
0,62,70,0
0,66,94,0
0,46,65,0
0,69,32,0
0,47,84,0
0,44,79,35
0,69,30,0
0,42,71,0
0,44,94,85
0,47,78,0
0,47,94,40
0,42,59,0
0,69,32,0
0,46,75,0
0,85,54,4
0,88,62,0
0,45,100,0
0,35,108,0
0,69,32,0
0,45,78,0
0,64,74,95
0,65,64,0
0,57,78,469
0,59,86,0
0,61,78,0
0,64,86,0
0,45,75,0
0,57,64,0
0,59,74,0
0,61,70,0
0,64,76,0
0,46,65,0
0,69,32,0
0,40,75,5
0,44,79,0
0,69,30,0
0,45,71,65
0,44,94,0
0,66,102,65
0,46,71,0
0,42,59,0
0,69,32,0
0,54,42,4
0,59,46,0
0,62,44,0
0,78,40,0
0,90,56,0
0,71,98,0
0,47,75,0
0,35,79,0
0,42,59,0
0,59,68,0
0,62,78,0
0,66,64,0
0,42,59,15
0,37,80,40
0,46,65,0
0,47,73,229
0,35,84,0
0,42,59,0
0,47,67,75
0,35,98,0
0,42,59,0
0,42,59,45
0,73,102,229
0,42,65,0
0,37,80,0
0,46,65,0
0,74,98,35
0,46,63,0
0,42,59,0
0,76,98,60
0,47,65,0
0,35,79,0
0,42,59,0
0,42,59,40
0,74,90,30
0,37,80,0
0,46,65,0
0,47,71,229
0,35,84,0
0,42,59,0
0,73,80,120
0,47,73,0
0,35,98,0
0,42,59,0
0,42,59,229
0,74,102,50
0,47,63,0
0,37,80,0
0,46,65,0
0,46,52,15
0,42,59,0
0,57,64,4
0,61,68,0
0,76,56,0
0,88,62,0
0,57,58,0
0,61,64,0
0,64,58,0
0,73,94,0
0,45,71,0
0,35,79,0
0,42,59,0
0,71,86,50
0,42,59,35
0,69,76,0
0,37,80,10
0,46,65,0
0,45,67,229
0,35,84,0
0,42,59,0
0,64,10,85
0,45,67,0
0,35,98,0
0,42,59,0
0,42,59,80
0,73,98,229
0,40,67,0
0,37,80,0
0,46,65,0
0,73,86,40
0,44,65,0
0,42,59,0
0,74,98,70
0,45,65,0
0,35,79,0
0,42,59,0
0,42,59,65
0,73,90,50
0,37,80,0
0,46,65,0
0,45,48,229
0,35,84,0
0,42,59,0
0,74,94,30
0,45,63,0
0,35,98,0
0,42,59,0
0,42,59,229
0,73,90,40
0,45,52,0
0,37,80,0
0,46,65,0
0,44,61,120
0,42,59,0
0,74,50,4
0,86,36,0
0,55,48,0
0,59,54,0
0,62,58,0
0,55,60,0
0,59,66,0
0,62,58,0
0,71,90,0
0,43,67,0
0,35,79,0
0,42,59,0
0,69,94,30
0,42,59,30
0,67,98,0
0,37,80,40
0,46,65,0
0,43,65,229
0,35,84,0
0,42,59,0
0,43,65,90
0,35,98,0
0,42,59,0
0,42,59,115
0,69,76,229
0,38,75,0
0,37,80,0
0,46,65,0
0,71,94,30
0,42,67,0
0,42,59,0
0,73,94,30
0,43,65,0
0,35,79,0
0,42,59,0
0,42,59,120
0,71,94,110
0,37,80,0
0,46,65,0
0,43,52,229
0,35,84,0
0,42,59,0
0,69,102,30
0,43,75,0
0,35,98,0
0,42,59,0
0,42,59,35
0,67,94,60
0,43,65,0
0,37,80,0
0,46,65,0
0,42,59,15
0,67,62,4
0,52,38,0
0,54,52,0
0,58,56,0
0,61,34,0
0,54,70,0
0,58,80,0
0,61,82,0
0,66,86,0
0,42,67,0
0,35,79,0
0,42,59,0
0,66,64,0
0,67,78,0
0,42,59,0
0,66,64,0
0,67,76,0
0,66,74,0
0,37,80,0
0,46,65,0
0,67,72,0
0,66,80,0
0,67,70,0
0,42,73,0
0,35,84,0
0,42,59,0
0,66,82,0
0,67,68,0
0,66,74,0
0,42,67,0
0,35,98,0
0,42,59,0
0,67,72,0
0,66,86,0
0,67,74,0
0,42,59,0
0,66,78,0
0,67,78,0
0,66,82,0
0,37,54,0
0,37,80,0
0,46,65,0
0,67,86,0
0,66,96,0
0,67,88,0
0,41,65,0
0,42,59,0
0,66,100,0
0,42,71,75
0,35,98,0
0,46,65,0
0,78,96,0
0,79,64,20
0,78,88,20
0,42,73,10
0,46,65,0
0,79,64,0
0,78,82,20
0,79,78,20
0,40,67,15
0,35,86,0
0,40,88,0
0,46,65,0
0,78,80,0
0,79,82,20
0,78,70,20
0,40,58,20
0,35,75,0
0,46,65,0
0,79,66,0
0,78,86,20
0,79,86,20
0,38,71,5
0,35,102,0
0,46,65,0
0,78,76,0
0,79,88,5
0,78,98,5
0,38,61,5
0,35,90,0
0,46,65,0
0,79,86,0
0,78,114,5
0,37,65,35
0,35,90,0
0,40,96,0
0,46,65,0
0,79,90,19
0,81,80,60
0,82,80,0
0,83,78,25
0,85,100,25
0,66,98,0
0,37,56,0
0,35,98,0
0,40,96,0
0,46,65,0
0,86,98,0
0,88,96,0
0,54,42,25
0,59,46,0
0,62,44,0
0,59,68,0
0,62,78,0
0,66,64,0
0,71,94,0
0,47,75,0
0,35,79,0
0,49,61,0
0,90,110,0
0,42,59,20
0,86,114,10
0,37,80,0
0,46,65,0
0,47,73,170
0,35,84,0
0,42,59,0
0,83,106,75
0,47,67,0
0,35,98,0
0,42,59,0
0,42,59,40
0,73,102,229
0,78,106,0
0,42,65,0
0,37,80,0
0,46,65,0
0,74,90,35
0,46,63,0
0,42,59,0
0,74,110,70
0,78,90,0
0,47,65,0
0,35,79,0
0,42,59,0
0,42,59,40
0,37,80,229
0,46,65,0
0,74,94,70
0,47,71,0
0,35,84,0
0,42,59,0
0,73,102,30
0,47,73,0
0,35,98,0
0,42,59,0
0,42,59,229
0,74,98,40
0,47,63,0
0,37,80,0
0,46,65,0
0,46,52,10
0,42,59,0
0,57,64,0
0,61,68,0
0,88,114,0
0,57,58,0
0,61,64,0
0,64,58,0
0,73,102,0
0,45,71,0
0,35,79,0
0,42,59,0
0,71,90,40
0,42,59,30
0,69,94,0
0,85,114,40
0,37,80,0
0,46,65,0
0,45,67,175
0,35,84,0
0,42,59,0
0,64,10,85
0,81,110,0
0,45,67,0
0,35,98,0
0,42,59,0
0,42,59,80
0,71,108,229
0,76,108,0
0,40,67,0
0,37,80,0
0,46,65,0
0,73,98,40
0,44,65,0
0,42,59,0
0,73,108,70
0,74,102,0
0,45,65,0
0,35,79,0
0,42,59,0
0,42,59,65
0,73,94,30
0,37,80,0
0,46,65,0
0,45,48,229
0,35,84,0
0,42,59,0
0,74,90,70
0,45,63,0
0,35,98,0
0,42,59,0
0,42,59,229
0,73,98,185
0,45,52,0
0,37,80,0
0,46,65,0
0,44,61,120
0,42,59,0
0,55,48,60
0,59,54,0
0,62,58,0
0,86,120,0
0,55,60,0
0,59,66,0
0,62,58,0
0,71,86,0
0,43,67,0
0,35,79,0
0,42,59,0
0,69,98,40
0,42,59,10
0,67,94,0
0,83,110,229
0,37,80,0
0,46,65,0
0,43,65,150
0,35,84,0
0,42,59,0
0,79,106,95
0,43,65,0
0,35,98,0
0,42,59,0
0,42,59,115
0,69,98,229
0,74,116,0
0,38,75,0
0,37,80,0
0,46,65,0
0,71,94,50
0,42,67,0
0,42,59,0
0,67,110,60
0,73,94,0
0,43,65,0
0,35,79,0
0,42,59,0
0,42,59,120
0,71,102,70
0,37,80,0
0,46,65,0
0,43,52,229
0,35,84,0
0,42,59,0
0,69,94,10
0,43,75,0
0,35,98,0
0,42,59,0
0,42,59,35
0,67,90,120
0,43,65,0
0,37,80,0
0,46,65,0
0,42,59,15
0,54,52,20
0,58,58,0
0,85,110,0
0,58,70,0
0,61,66,0
0,66,64,0
0,42,73,0
0,35,79,0
0,42,59,0
0,42,59,110
0,82,106,229
0,37,80,0
0,46,65,0
0,42,71,155
0,35,84,0
0,42,59,0
0,78,108,5
0,42,67,0
0,35,98,0
0,42,59,0
0,42,59,5
0,73,106,90
0,37,65,0
0,37,80,0
0,46,65,0
0,66,108,75
0,42,71,0
0,42,59,0
0,55,60,100
0,59,70,0
0,55,64,0
0,62,74,0
0,67,102,0
0,43,67,0
0,35,79,0
0,42,59,0
0,67,98,125
0,42,59,0
0,67,94,50
0,37,80,120
0,46,65,0
0,59,74,160
0,43,65,0
0,35,84,0
0,42,59,0
0,43,67,115
0,35,98,0
0,42,59,0
0,67,108,85
0,42,59,0
0,38,67,80
0,69,108,0
0,37,80,0
0,46,65,0
0,43,71,45
0,67,90,0
0,42,59,0
0,54,40,60
0,58,86,0
0,58,76,0
0,61,66,0
0,42,71,0
0,66,98,0
0,35,79,0
0,42,59,0
0,66,94,60
0,42,59,0
0,64,94,50
0,37,80,0
0,46,65,0
0,42,67,80
0,66,94,0
0,35,84,0
0,42,59,0
0,42,52,35
0,35,98,0
0,42,59,0
0,61,102,0
0,66,112,0
0,42,59,40
0,37,48,40
0,37,80,0
0,46,65,0
0,42,71,40
0,42,59,0
0,55,60,4
0,59,62,0
0,59,68,0
0,62,66,0
0,43,67,0
0,35,79,0
0,42,59,0
0,59,93,0
0,62,90,0
0,64,95,0
0,67,94,0
0,42,59,100
0,67,114,229
0,37,80,0
0,46,65,0
0,43,63,30
0,69,114,0
0,35,84,0
0,42,59,0
0,43,61,50
0,71,108,0
0,35,98,0
0,42,59,0
0,73,102,15
0,42,59,0
0,38,67,50
0,76,108,0
0,37,80,0
0,46,65,0
0,43,65,55
0,74,114,0
0,42,59,0
0,54,68,40
0,58,102,0
0,58,80,0
0,61,68,0
0,42,71,0
0,73,108,0
0,35,79,0
0,42,59,0
0,42,59,229
0,73,90,80
0,37,80,115
0,46,65,0
0,42,67,30
0,71,98,0
0,35,84,0
0,42,59,0
0,42,61,30
0,73,94,0
0,35,98,0
0,42,59,0
0,42,59,75
0,37,43,229
0,37,80,0
0,46,65,0
0,42,54,45
0,42,59,0
0,42,78,100
0,54,82,0
0,66,86,0
0,54,68,0
0,58,88,0
0,30,61,0
0,35,39,0
0,40,37,0
0,46,65,0
0,42,45,210
0,35,56,0
0,40,75,0
0,46,65,0
0,42,48,55
0,35,73,0
0,40,84,0
0,46,65,0
0,30,60,125
0,35,75,0
0,40,86,0
0,46,65,0
0,42,60,155
0,35,90,0
0,40,96,0
0,46,65,0
0,30,71,200
0,35,81,0
0,40,86,0
0,46,65,0
0,42,65,5
0,35,81,0
0,40,94,0
0,45,80,0
0,30,71,5
0,35,94,0
0,40,94,0
0,45,84,0
0,47,78,115
0,59,66,0
0,62,80,0
0,66,64,0
0,74,114,0
0,78,54,0
0,90,54,0
0,35,71,0
0,35,79,0
0,57,61,0
0,73,102,40
0,51,65,0
0,59,44,20
0,71,90,0
0,37,80,0
0,51,74,0
0,54,71,0
0,75,80,0
0,35,73,229
0,62,46,0
0,35,94,0
0,51,74,0
0,79,60,4
0,91,58,0
0,35,75,0
0,47,58,0
0,59,58,0
0,62,62,0
0,67,74,0
0,35,94,0
0,51,74,0
0,47,82,95
0,51,74,0
0,59,58,145
0,37,80,0
0,51,74,0
0,54,71,0
0,75,86,0
0,30,71,140
0,62,48,0
0,51,74,0
0,80,54,4
0,92,60,0
0,35,73,0
0,47,60,0
0,59,52,0
0,62,70,0
0,68,76,0
0,35,79,0
0,51,74,0
0,51,65,150
0,68,60,20
0,37,80,0
0,51,74,0
0,54,71,0
0,75,80,0
0,35,73,130
0,47,58,0
0,35,94,0
0,51,74,0
0,76,102,4
0,79,54,0
0,91,60,0
0,35,75,0
0,59,64,0
0,62,70,0
0,67,78,0
0,35,94,0
0,51,74,0
0,47,58,110
0,51,74,0
0,74,90,50
0,59,52,120
0,37,80,0
0,51,74,0
0,54,71,0
0,75,86,0
0,35,67,60
0,76,80,0
0,62,52,0
0,51,74,0
0,74,90,20
0,78,70,4
0,90,72,0
0,35,73,0
0,47,60,0
0,59,58,0
0,62,68,0
0,66,78,0
0,35,79,0
0,51,74,0
0,73,114,0
0,51,65,30
0,71,86,0
0,37,80,229
0,51,74,0
0,54,71,0
0,75,80,0
0,35,73,60
0,59,56,0
0,62,60,0
0,66,62,0
0,35,94,0
0,51,74,0
0,35,75,90
0,47,58,0
0,35,94,0
0,51,74,0
0,86,90,55
0,59,58,5
0,51,74,0
0,85,98,69
0,30,56,25
0,62,60,0
0,37,80,0
0,51,74,0
0,54,71,0
0,75,86,0
0,83,88,0
0,78,96,80
0,35,71,60
0,66,54,0
0,51,74,0
0,74,76,20
0,35,73,5
0,47,62,0
0,35,79,0
0,51,74,0
0,73,86,0
0,51,65,229
0,71,114,85
0,59,46,5
0,71,92,0
0,37,80,0
0,51,74,0
0,54,71,0
0,75,80,0
0,73,108,0
0,35,71,40
0,59,60,0
0,62,60,0
0,66,60,0
0,35,94,0
0,51,74,0
0,74,102,0
0,35,75,20
0,47,48,0
0,35,94,0
0,51,74,0
0,76,114,0
0,59,50,20
0,51,74,0
0,74,98,0
0,35,65,50
0,62,58,0
0,66,68,0
0,37,80,0
0,51,74,0
0,54,71,0
0,75,86,0
0,73,102,0
0,39,73,15
0,47,58,0
0,51,74,0
0,71,94,0
0,40,71,20
0,40,64,0
0,55,56,0
0,59,60,0
0,61,64,0
0,64,58,0
0,35,79,0
0,51,74,0
0,73,72,0
0,51,65,210
0,55,42,15
0,37,80,0
0,51,74,0
0,54,71,0
0,75,80,0
0,64,92,60
0,40,67,55
0,55,42,0
0,59,66,0
0,61,60,0
0,64,52,0
0,35,94,0
0,51,74,0
0,67,102,25
0,40,78,55
0,35,94,0
0,51,74,0
0,71,102,0
0,73,98,35
0,52,52,5
0,51,74,0
0,76,90,5
0,40,61,0
0,55,28,0
0,37,80,0
0,51,74,0
0,54,71,0
0,75,86,0
0,79,82,0
0,83,92,30
0,35,61,25
0,59,48,0
0,51,74,0
0,85,82,30
0,40,67,0
0,40,78,0
0,35,79,0
0,51,74,0
0,79,56,0
0,85,54,0
0,88,58,0
0,51,65,229
0,73,114,20
0,52,50,0
0,37,80,0
0,51,74,0
0,54,71,0
0,75,80,0
0,40,71,40
0,74,98,0
0,55,54,0
0,59,60,0
0,61,60,0
0,64,60,0
0,35,94,0
0,51,74,0
0,40,78,60
0,78,98,0
0,35,94,0
0,51,74,0
0,40,64,10
0,51,74,0
0,76,98,20
0,35,75,60
0,55,60,0
0,59,70,0
0,61,64,0
0,64,72,0
0,37,80,0
0,51,74,0
0,54,71,0
0,75,86,0
0,76,90,40
0,52,70,10
0,51,74,0
0,74,72,0
0,83,51,5
0,40,71,0
0,40,88,0
0,35,79,0
0,51,74,0
0,73,102,0
0,51,65,5
0,52,62,5
0,73,108,0
0,37,80,0
0,51,74,0
0,54,71,0
0,75,80,0
0,40,67,30
0,55,68,0
0,59,86,0
0,61,64,0
0,64,82,0
0,74,94,0
0,35,94,0
0,51,74,0
0,40,75,60
0,78,98,0
0,35,94,0
0,51,74,0
0,55,58,0
0,51,74,0
0,76,98,105
0,35,67,10
0,59,58,0
0,61,48,0
0,64,60,0
0,37,80,0
0,51,74,0
0,54,71,0
0,75,86,0
0,76,86,60
