track,note,velocity,time
1,40,86,5760
1,52,86,768
1,47,77,16
1,40,77,384
1,44,77,0
1,47,77,0
1,40,86,40
1,45,77,26
1,47,95,16
1,35,86,1152
1,40,77,0
1,47,86,4
1,35,69,24
1,40,95,44
1,45,86,16
1,47,86,32
1,35,77,1152
1,40,86,358
1,52,86,752
1,40,95,30
1,44,77,2
1,47,86,384
1,45,86,0
1,42,86,768
1,45,77,8
1,47,104,56
1,35,77,10
1,40,95,6
1,47,86,12
1,35,86,0
1,40,95,66
1,44,77,4
1,47,86,384
1,45,86,0
1,42,86,768
1,45,77,8
1,47,104,56
1,35,77,10
1,40,86,6
1,52,86,768
1,47,77,16
1,40,77,384
1,44,77,0
1,47,77,0
1,40,86,40
1,45,77,26
1,47,95,16
1,35,86,1152
1,40,77,0
1,47,86,4
1,35,69,24
1,40,95,44
1,45,86,16
1,47,86,32
1,35,77,1152
1,40,86,358
1,52,86,752
1,40,95,30
1,44,77,2
1,47,86,384
1,45,86,0
1,42,86,768
1,45,77,8
1,47,104,56
1,35,77,10
1,40,95,6
1,47,86,12
1,35,86,0
1,40,95,66
1,44,77,4
1,47,86,384
1,45,86,0
1,42,86,768
1,45,77,8
1,47,104,56
1,35,77,10
1,40,86,6
1,52,86,768
1,47,77,16
1,40,77,384
1,44,77,0
1,47,77,0
1,40,86,40
1,45,77,26
1,47,95,16
1,35,86,1152
1,40,77,0
1,47,86,4
1,35,69,24
1,40,95,44
1,45,86,16
1,47,86,32
1,35,77,1152
1,40,86,358
1,52,86,752
1,40,95,30
1,44,77,2
1,47,86,384
1,45,86,0
1,42,86,768
1,45,77,8
1,47,104,56
1,35,77,10
1,40,95,6
1,47,86,12
1,35,86,0
1,40,95,66
1,44,77,4
1,47,86,384
1,45,86,0
1,42,86,768
1,45,77,8
1,47,104,56
1,35,77,10
1,40,86,6
1,52,86,768
1,47,77,16
1,40,77,384
1,44,77,0
1,47,77,0
1,40,77,40
1,44,69,768
1,47,86,6
1,45,77,16
1,42,73,30
1,47,77,128
1,54,73,576
1,54,69,96
1,47,73,0
1,52,73,384
1,40,69,0
1,47,86,384
1,40,77,80
1,44,69,768
1,47,86,6
1,45,77,16
1,42,73,30
1,47,86,128
1,35,86,4
1,40,95,32
1,47,77,768
1,35,77,378
1,40,95,56
1,44,77,2
1,47,86,384
1,45,86,0
1,42,86,768
1,45,77,8
1,47,104,56
1,35,77,10
1,40,95,6
1,47,86,12
1,35,86,0
1,40,95,66
1,44,77,4
1,47,86,384
1,45,86,0
1,42,86,768
1,45,77,8
1,47,104,56
1,35,77,10
1,40,86,6
1,52,86,768
1,47,77,16
1,40,95,0
1,44,77,2
1,47,86,384
1,45,86,0
1,42,86,768
1,45,77,8
1,47,104,56
1,35,77,10
1,40,95,6
1,47,86,12
1,35,86,0
1,40,95,66
1,44,77,4
1,47,86,384
1,45,86,0
1,42,86,768
1,45,77,8
1,47,104,56
1,35,77,10
1,40,86,6
1,52,86,768
1,47,77,16
1,40,86,0
1,47,86,768
1,35,77,8
1,40,86,384
1,47,77,764
1,35,77,2
1,40,86,384
2,71,76,1152
2,71,76,0
2,70,72,192
2,71,76,0
2,76,76,40
2,73,76,192
2,71,76,188
2,70,76,186
2,45,76,0
2,69,85,0
2,54,76,192
2,57,76,0
2,61,85,0
2,52,76,0
2,64,94,192
2,57,60,0
2,69,76,0
2,61,76,32
2,73,76,0
2,69,85,64
2,47,72,0
2,68,68,0
2,71,76,192
2,54,72,0
2,61,60,0
2,69,76,0
2,57,76,96
2,66,76,0
2,63,72,48
2,54,72,0
2,52,85,32
2,56,72,0
2,64,85,0
2,56,85,32
2,59,94,0
2,68,60,192
2,64,68,80
2,47,85,42
2,59,68,144
2,52,85,6
2,64,85,0
2,56,76,14
2,59,68,0
2,68,68,192
2,64,68,64
2,47,76,32
2,59,76,0
2,52,85,32
2,56,72,0
2,64,85,0
2,56,85,32
2,59,94,0
2,68,60,192
2,64,68,80
2,47,85,42
2,59,68,144
2,66,72,6
2,57,68,0
2,61,72,576
2,52,76,0
2,69,85,64
2,61,76,48
2,57,64,12
2,66,68,192
2,66,76,12
2,59,72,0
2,63,64,384
2,69,72,22
2,54,68,0
2,63,72,32
2,59,72,16
2,66,68,192
2,64,85,16
2,52,72,0
2,59,68,384
2,68,85,26
2,56,60,0
2,64,85,32
2,59,85,0
2,47,76,0
2,56,76,192
2,52,60,20
2,59,72,192
2,64,72,192
2,68,68,18
2,56,68,0
2,64,85,32
2,59,72,64
2,47,85,16
2,64,85,32
2,57,76,0
2,66,72,192
2,61,72,192
2,52,85,10
2,66,68,32
2,61,72,32
2,57,76,2
2,66,76,32
2,59,72,0
2,63,64,384
2,69,72,22
2,54,68,0
2,63,72,32
2,59,72,16
2,66,68,192
2,64,85,16
2,52,72,0
2,59,68,384
2,68,85,26
2,56,60,0
2,64,85,32
2,71,85,0
2,47,76,0
2,52,72,20
2,64,76,192
2,59,76,28
2,56,68,0
2,68,72,192
2,47,76,8
2,66,76,24
2,57,76,0
2,52,76,576
2,61,85,0
2,66,68,32
2,57,76,192
2,59,72,32
2,47,76,0
2,63,72,192
2,69,85,192
2,54,85,8
2,59,68,32
2,47,76,192
2,63,76,32
2,64,85,16
2,52,68,0
2,56,64,18
2,68,85,192
2,64,68,32
2,59,72,192
2,47,85,0
2,56,85,162
2,52,76,16
2,59,68,192
2,64,72,192
2,68,76,8
2,56,72,0
2,64,76,32
2,47,76,192
2,59,76,32
2,57,85,32
2,61,68,192
2,66,72,192
2,69,85,192
2,52,72,0
2,66,72,32
2,57,68,32
2,61,72,0
2,66,68,32
2,47,72,16
2,66,72,192
2,69,76,192
2,54,68,192
2,71,85,0
2,69,85,0
2,66,76,82
2,47,76,0
2,52,85,32
2,56,72,0
2,64,85,0
2,56,85,32
2,59,94,0
2,68,60,192
2,64,68,80
2,47,85,42
2,59,68,144
2,52,85,6
2,64,85,0
2,56,76,14
2,59,68,0
2,68,68,192
2,64,68,64
2,47,76,32
2,59,76,0
2,52,85,32
2,56,72,0
2,64,85,0
2,56,85,32
2,59,94,0
2,68,60,192
2,64,68,80
2,47,85,42
2,59,68,144
2,66,72,6
2,57,68,0
2,61,72,576
2,52,76,0
2,69,85,64
2,61,76,48
2,57,64,12
2,66,68,192
2,66,76,12
2,59,72,0
2,63,64,384
2,69,72,22
2,54,68,0
2,63,72,32
2,59,72,16
2,66,68,192
2,64,85,16
2,52,72,0
2,59,68,384
2,68,85,26
2,56,60,0
2,64,85,32
2,59,85,0
2,47,76,0
2,56,76,192
2,52,60,20
2,59,72,192
2,64,72,192
2,68,68,18
2,56,68,0
2,64,85,32
2,59,72,64
2,47,85,16
2,64,85,32
2,57,76,0
2,66,72,192
2,61,72,192
2,52,85,10
2,66,68,32
2,61,72,32
2,57,76,2
2,66,76,32
2,59,72,0
2,63,64,384
2,69,72,22
2,54,68,0
2,63,72,32
2,59,72,16
2,66,68,192
2,64,85,16
2,52,72,0
2,59,68,384
2,68,85,26
2,56,60,0
2,64,85,32
2,71,85,0
2,47,76,0
2,52,72,20
2,64,76,192
2,59,76,28
2,56,68,0
2,68,72,192
2,47,76,8
2,66,76,24
2,57,76,0
2,52,76,576
2,61,85,0
2,66,68,32
2,57,76,192
2,59,72,32
2,47,76,0
2,63,72,192
2,69,85,192
2,54,85,8
2,59,68,32
2,47,76,192
2,63,76,32
2,64,85,16
2,52,68,0
2,56,64,18
2,68,85,192
2,64,68,32
2,59,72,192
2,47,85,0
2,56,85,162
2,52,76,16
2,59,68,192
2,64,72,192
2,68,76,8
2,56,72,0
2,64,76,32
2,47,76,192
2,59,76,32
2,57,85,32
2,61,68,192
2,66,72,192
2,69,85,192
2,52,72,0
2,66,72,32
2,57,68,32
2,61,72,0
2,66,68,32
2,47,72,16
2,66,72,192
2,69,76,192
2,54,68,192
2,71,85,0
2,69,85,0
2,66,76,82
2,47,76,0
2,52,85,32
2,56,72,0
2,64,85,0
2,56,85,32
2,59,94,0
2,68,60,192
2,64,68,80
2,47,85,42
2,59,68,144
2,52,85,6
2,64,85,0
2,56,76,14
2,59,68,0
2,68,68,192
2,64,68,64
2,47,76,32
2,59,76,0
2,52,85,32
2,56,72,0
2,64,85,0
2,56,85,32
2,59,94,0
2,68,60,192
2,64,68,80
2,47,85,42
2,59,68,144
2,66,72,6
2,57,68,0
2,61,72,576
2,52,76,0
2,69,85,64
2,61,76,48
2,57,64,12
2,66,68,192
2,66,76,12
2,59,72,0
2,63,64,384
2,69,72,22
2,54,68,0
2,63,72,32
2,59,72,16
2,66,68,192
2,64,85,16
2,52,72,0
2,59,68,384
2,68,85,26
2,56,60,0
2,64,85,32
2,59,85,0
2,47,76,0
2,56,76,192
2,52,60,20
2,59,72,192
2,64,72,192
2,68,68,18
2,56,68,0
2,64,85,32
2,59,72,64
2,47,85,16
2,64,85,32
2,57,76,0
2,66,72,192
2,61,72,192
2,52,85,10
2,66,68,32
2,61,72,32
2,57,76,2
2,66,76,32
2,59,72,0
2,63,64,384
2,69,72,22
2,54,68,0
2,63,72,32
2,59,72,16
2,66,68,192
2,64,85,16
2,52,72,0
2,59,68,384
2,68,85,26
2,56,60,0
2,64,85,32
2,71,85,0
2,47,76,0
2,52,72,20
2,64,76,192
2,59,76,28
2,56,68,0
2,68,72,192
2,47,76,8
2,66,76,24
2,57,76,0
2,52,76,576
2,61,85,0
2,66,68,32
2,57,76,192
2,59,72,32
2,47,76,0
2,63,72,192
2,69,85,192
2,54,85,8
2,59,68,32
2,47,76,192
2,63,76,32
2,64,85,16
2,52,68,0
2,56,64,18
2,68,85,192
2,64,68,32
2,59,72,192
2,47,85,0
2,56,85,162
2,52,76,16
2,59,68,192
2,64,72,192
2,68,76,8
2,56,72,0
2,64,76,32
2,47,76,192
2,59,76,32
2,57,85,32
2,61,68,192
2,66,72,192
2,69,85,192
2,52,72,0
2,66,72,32
2,57,68,32
2,61,72,0
2,66,68,32
2,47,72,16
2,66,72,192
2,69,76,192
2,54,68,192
2,71,85,0
2,69,85,0
2,66,76,82
2,47,76,0
2,52,85,32
2,56,72,0
2,64,85,0
2,56,85,32
2,59,94,0
2,68,60,192
2,64,68,80
2,47,85,42
2,59,68,144
2,52,85,6
2,64,85,0
2,56,76,14
2,59,68,0
2,68,68,192
2,64,68,64
2,47,76,32
2,59,76,0
2,52,85,32
2,56,72,0
2,64,85,0
2,56,85,32
2,59,94,0
2,68,60,192
2,64,68,80
2,47,85,42
2,59,68,144
2,66,72,6
2,57,68,0
2,61,72,576
2,52,76,0
2,69,85,64
2,61,76,48
2,57,64,12
2,66,68,192
2,66,76,12
2,59,72,0
2,63,64,384
2,69,72,22
2,54,68,0
2,63,72,32
2,59,72,16
2,66,68,192
2,64,85,16
2,52,72,0
2,59,68,384
2,68,85,26
2,56,60,0
2,64,85,32
2,59,85,0
2,47,76,0
2,56,76,192
2,52,60,20
2,59,72,192
2,64,72,192
2,68,68,18
2,56,68,0
2,64,85,32
2,59,72,64
2,47,85,16
2,64,85,32
2,57,76,0
2,66,72,192
2,61,72,192
2,52,85,10
2,66,68,32
2,61,72,32
2,57,76,2
2,66,76,32
2,59,72,0
2,63,64,384
2,69,72,22
2,54,68,0
2,63,72,32
2,59,72,16
2,66,68,192
2,64,85,16
2,52,72,0
2,59,68,384
2,68,85,26
2,56,60,0
2,64,85,32
2,71,85,0
2,47,76,0
2,52,72,20
2,64,76,192
2,59,76,28
2,56,68,0
2,68,72,192
2,47,76,8
2,66,76,24
2,57,76,0
2,52,76,576
2,61,85,0
2,66,68,32
2,57,76,192
2,59,72,32
2,47,76,0
2,63,72,192
2,69,85,192
2,54,85,8
2,59,68,32
2,47,76,192
2,63,76,32
2,64,85,16
2,52,68,0
2,56,64,18
2,68,85,192
2,64,68,32
2,59,72,192
2,47,85,0
2,56,85,162
2,52,76,16
2,59,68,192
2,64,72,192
2,68,76,8
2,56,72,0
2,64,76,32
2,47,76,192
2,59,76,32
2,57,85,32
2,61,68,192
2,66,72,192
2,69,85,192
2,52,72,0
2,66,72,32
2,57,68,32
2,61,72,0
2,66,68,32
2,47,72,16
2,66,72,192
2,69,76,192
2,54,68,192
2,71,85,0
2,69,85,0
2,66,76,82
2,47,76,0
2,52,85,32
2,56,72,0
2,64,85,0
2,59,94,32
2,56,85,0
2,68,60,192
2,64,68,80
2,47,85,42
2,71,68,32
2,52,72,0
2,64,76,192
2,59,76,28
2,56,68,0
2,68,72,192
2,47,76,8
2,66,76,24
2,57,76,0
2,52,76,576
2,61,85,0
2,66,68,32
2,57,76,192
2,59,72,32
2,47,76,0
2,63,72,192
2,69,85,192
2,54,85,8
2,59,68,32
2,47,76,192
2,63,76,32
2,64,85,16
2,52,68,0
2,56,64,18
2,68,85,192
2,64,68,32
2,59,72,192
2,47,85,0
2,56,85,162
2,52,76,16
2,59,68,192
2,64,72,192
2,68,76,8
2,56,72,0
2,64,76,32
2,47,76,192
2,59,76,32
2,57,85,32
2,61,68,192
2,66,72,192
2,69,85,192
2,52,72,0
2,66,72,32
2,57,68,32
2,61,72,0
2,66,68,32
2,47,72,16
2,66,72,192
2,69,76,192
2,54,68,192
2,71,85,0
2,69,85,0
2,66,76,82
2,47,76,0
2,52,85,32
2,56,72,0
2,64,85,0
2,56,85,32
2,59,94,0
2,68,60,192
2,64,68,80
2,47,85,42
2,59,68,144
2,52,85,6
2,64,85,0
2,56,76,14
2,59,68,0
2,68,68,192
2,64,68,64
2,59,76,32
2,47,76,0
2,52,85,56
2,64,85,32
2,56,76,14
2,59,68,0
2,68,68,64
2,64,68,64
2,47,76,32
2,71,76,0
2,40,94,16
2,47,68,0
2,52,68,0
2,56,68,32
2,59,85,16
2,64,85,16
3,71,58,34840
3,76,74,56
3,80,74,48
3,73,54,250
3,76,83,66
3,75,41,1408
3,78,70,64
3,81,74,62
3,75,62,236
3,80,83,64
3,83,74,62
3,71,66,300
3,76,62,52
3,80,70,78
3,73,50,294
3,76,74,66
3,81,74,60
3,75,58,276
3,78,74,58
3,81,74,58
3,71,40,592
3,76,66,38
3,80,54,92
3,71,66,332
3,76,62,52
3,80,70,78
3,73,50,294
3,76,74,66
3,81,74,60
3,75,58,276
3,78,74,58
3,81,74,58
3,71,40,592
3,76,66,38
3,80,54,92
3,76,74,360
3,80,74,48
3,83,83,48
3,80,70,922
3,83,74,48
3,88,74,62
3,78,54,156
3,81,83,66
3,85,83,54
3,73,62,894
3,78,70,64
3,81,92,46
3,71,70,184
3,75,74,54
3,80,83,50
3,69,74,918
3,73,83,56
3,78,83,62
3,69,70,168
3,73,74,48
3,78,74,62
3,68,70,192
3,71,83,52
3,76,92,46
3,56,83,450
3,59,74,4
3,68,70,0
3,57,74,48
3,66,83,0
3,64,92,154
3,56,70,0
3,56,83,160
3,64,83,8
3,56,74,16
3,64,83,12
3,56,62,16
3,64,83,12
3,56,66,16
3,64,74,24
3,56,70,16
3,64,74,0
3,56,83,16
3,64,74,8
3,56,83,16
3,64,74,12
3,47,83,80
3,56,83,8
3,47,74,16
3,56,83,12
3,47,62,16
3,56,83,12
3,47,66,16
3,56,74,24
3,47,70,16
3,56,74,0
3,47,83,16
3,56,74,8
3,47,83,16
3,56,74,12
3,47,74,16
3,56,74,10
3,47,74,16
3,56,74,16
3,47,74,8
3,56,74,14
3,47,74,16
3,56,74,10
3,47,70,16
3,49,83,38
3,57,83,8
3,49,74,16
3,57,83,12
3,49,62,16
3,57,83,12
3,49,66,16
3,57,74,24
3,49,70,16
3,57,74,0
3,49,83,16
3,57,74,8
3,49,83,16
3,57,74,12
3,49,74,16
3,57,74,10
3,49,74,16
3,57,74,16
3,49,74,8
3,57,74,14
3,49,74,16
3,57,74,10
3,49,70,16
3,51,83,38
3,59,83,8
3,51,74,16
3,59,83,12
3,51,62,16
3,59,83,12
3,51,66,16
3,59,74,24
3,51,70,16
3,59,74,0
3,51,83,16
3,59,74,8
3,51,83,16
3,59,74,12
