track,note,velocity,time
1,0,0,798
1,0,0,0
9,36,93,2078
9,36,0,26
9,36,96,70
9,33,99,96
9,36,0,16
9,33,0,78
9,31,89,2
9,36,89,96
9,31,0,14
9,36,0,24
9,31,96,58
9,33,89,96
9,31,0,10
9,33,0,78
9,31,83,8
9,36,91,96
9,31,0,12
9,36,0,18
9,36,97,66
9,36,0,92
9,33,89,4
9,31,93,96
9,33,0,10
9,36,96,86
9,31,0,16
9,36,0,18
9,36,91,62
9,43,79,96
9,36,0,18
9,36,93,78
9,43,0,2
9,36,0,40
9,41,96,54
9,41,0,38
9,41,99,58
9,38,93,96
9,41,0,10
9,36,91,86
9,38,0,6
9,41,89,90
9,36,0,10
9,41,0,36
9,36,96,50
9,38,91,96
9,36,0,8
9,36,89,88
9,38,0,2
9,41,91,94
9,36,0,16
9,41,0,24
9,41,86,56
9,41,0,78
9,33,91,18
9,33,0,56
9,33,89,40
9,34,91,96
9,33,0,4
9,34,0,44
9,34,89,48
9,35,90,96
9,34,0,8
9,35,0,38
9,35,90,50
9,35,0,62
9,36,96,34
9,36,0,42
9,36,93,54
9,33,83,96
9,36,0,6
9,31,85,90
9,33,0,2
9,36,91,94
9,31,0,22
9,36,0,18
9,31,93,56
9,33,85,96
9,31,0,12
9,31,91,84
9,33,0,2
9,36,93,94
9,31,0,14
9,36,0,26
9,36,99,56
9,36,0,90
9,33,85,6
9,31,91,96
9,33,0,2
9,36,94,94
9,31,0,8
9,36,0,30
9,36,93,58
9,36,0,56
9,43,93,40
9,36,91,96
9,43,0,20
9,36,0,20
9,41,89,56
9,41,0,32
9,41,93,64
9,38,91,96
9,41,0,18
9,36,85,78
9,38,0,6
9,41,91,90
9,36,0,12
9,41,0,34
9,36,99,50
9,38,96,96
9,36,0,8
9,36,86,88
9,38,0,10
9,41,99,86
9,36,0,6
9,41,0,32
9,41,97,58
9,45,88,96
9,41,0,4
9,45,0,76
9,46,93,112
9,46,0,66
9,46,90,126
9,48,89,96
9,46,0,6
9,48,0,58
9,36,93,32
9,36,0,26
9,36,96,70
9,33,99,96
9,36,0,16
9,33,0,78
9,31,89,2
9,36,89,96
9,31,0,14
9,36,0,24
9,31,96,58
9,33,89,96
9,31,0,10
9,33,0,78
9,31,83,8
9,36,91,96
9,31,0,12
9,36,0,18
9,36,97,66
9,36,0,92
9,33,89,4
9,31,93,96
9,33,0,10
9,36,96,86
9,31,0,16
9,36,0,18
9,36,91,62
9,43,79,96
9,36,0,18
9,36,93,78
9,43,0,2
9,36,0,40
9,41,96,54
9,41,0,38
9,41,99,58
9,38,93,96
9,41,0,10
9,36,91,86
9,38,0,6
9,41,89,90
9,36,0,10
9,41,0,36
9,36,96,50
9,38,91,96
9,36,0,8
9,36,89,88
9,38,0,2
9,41,91,94
9,36,0,16
9,41,0,24
9,41,86,56
9,41,0,78
9,33,91,18
9,33,0,56
9,33,89,40
9,34,91,96
9,33,0,4
9,34,0,44
9,34,89,48
9,35,90,96
9,34,0,8
9,35,0,38
9,35,90,50
9,35,0,85
9,36,96,11
9,36,0,42
9,36,93,54
9,33,83,96
9,36,0,6
9,31,85,90
9,33,0,2
9,36,91,94
9,31,0,22
9,36,0,18
9,31,93,56
9,33,85,96
9,31,0,12
9,31,91,84
9,33,0,2
9,36,93,94
9,31,0,14
9,36,0,26
9,36,99,56
9,36,0,90
9,33,85,6
9,31,91,96
9,33,0,2
9,36,94,94
9,31,0,8
9,36,0,30
9,36,93,58
9,36,0,56
9,43,93,40
9,36,91,96
9,43,0,20
9,36,0,20
9,41,89,56
9,41,0,32
9,41,93,64
9,38,91,96
9,41,0,18
9,36,85,78
9,38,0,6
9,41,91,90
9,36,0,12
9,41,0,34
9,36,99,50
9,38,96,96
9,36,0,8
9,36,86,88
9,38,0,10
9,41,99,86
9,36,0,6
9,41,0,24
9,41,99,66
9,38,93,96
9,41,0,12
9,38,0,84
9,36,86,0
9,41,105,96
9,36,0,8
9,41,0,32
9,36,86,56
9,36,0,38
9,29,89,58
9,29,0,92
9,31,83,4
9,31,0,76
9,33,89,20
9,33,0,40
9,33,81,56
9,33,0,70
9,33,72,26
9,33,0,36
9,33,91,60
9,33,0,66
9,33,70,30
9,33,0,34
9,33,81,62
9,33,0,72
9,33,78,24
9,33,0,42
9,33,83,54
9,33,0,64
9,33,72,32
9,33,0,36
9,33,81,60
9,33,0,60
9,33,73,36
9,33,0,36
9,33,81,60
9,33,0,70
9,33,73,26
9,33,0,38
9,33,75,58
9,33,0,66
9,33,73,30
9,33,0,44
9,28,85,52
9,28,0,76
9,29,85,20
9,29,0,54
9,29,91,42
9,29,0,66
9,29,76,30
9,29,0,40
9,29,89,56
9,29,0,68
9,29,81,28
9,29,0,42
9,29,85,54
9,29,0,56
9,29,78,40
9,29,0,48
9,29,78,48
9,29,0,62
9,29,69,34
9,29,0,46
9,29,91,50
9,29,0,58
9,33,89,38
9,33,0,48
9,33,85,48
9,33,0,60
9,34,86,36
9,34,0,44
9,34,84,52
9,34,0,46
9,35,99,50
9,35,0,46
9,35,96,50
9,35,0,52
9,36,93,44
9,36,0,26
9,36,96,70
9,33,99,96
9,36,0,16
9,33,0,78
9,31,89,2
9,36,89,96
9,31,0,14
9,36,0,24
9,31,96,58
9,33,89,96
9,31,0,10
9,33,0,78
9,31,83,8
9,36,91,96
9,31,0,12
9,36,0,18
9,36,97,66
9,36,0,92
9,33,89,4
9,31,93,96
9,33,0,10
9,36,96,86
9,31,0,16
9,36,0,18
9,36,91,62
9,43,79,96
9,36,0,18
9,36,93,78
9,43,0,2
9,36,0,40
9,41,96,54
9,41,0,38
9,41,99,58
9,38,93,96
9,41,0,10
9,36,91,86
9,38,0,6
9,41,89,90
9,36,0,10
9,41,0,36
9,36,96,50
9,38,91,96
9,36,0,8
9,36,89,88
9,38,0,2
9,41,91,94
9,36,0,16
9,41,0,24
9,41,86,56
9,41,0,78
9,33,91,18
9,33,0,56
9,33,89,40
9,34,91,96
9,33,0,4
9,34,0,44
9,34,89,48
9,35,90,96
9,34,0,8
9,35,0,38
9,35,90,50
9,35,0,62
9,36,96,34
9,36,0,42
9,36,93,54
9,33,83,96
9,36,0,6
9,31,85,90
9,33,0,2
9,36,91,94
9,31,0,4
9,36,0,36
9,31,93,56
9,33,85,96
9,31,0,12
9,31,91,84
9,33,0,2
9,36,93,94
9,31,0,14
9,36,0,26
9,36,99,56
9,36,0,90
9,33,85,6
9,31,91,96
9,33,0,2
9,36,94,94
9,31,0,8
9,36,0,30
9,36,93,58
9,36,0,56
9,43,93,40
9,36,91,96
9,43,0,20
9,36,0,20
9,41,89,56
9,41,0,32
9,41,93,64
9,38,91,96
9,41,0,18
9,36,85,78
9,38,0,6
9,41,91,90
9,36,0,12
9,41,0,34
9,36,99,50
9,38,96,96
9,36,0,8
9,36,86,88
9,38,0,10
9,41,99,86
9,36,0,6
9,41,0,24
9,41,99,66
9,38,93,96
9,41,0,12
9,38,0,84
9,36,86,0
9,41,105,96
9,36,0,8
9,41,0,32
9,36,86,56
9,36,0,38
9,29,89,58
9,29,0,92
9,31,83,4
9,31,0,76
9,33,89,20
9,33,0,40
9,33,81,56
9,33,0,70
9,33,72,26
9,33,0,36
9,33,91,60
9,33,0,66
9,33,70,30
9,33,0,34
9,33,81,62
9,33,0,72
9,33,78,24
9,33,0,42
9,33,83,54
9,33,0,64
9,33,72,32
9,33,0,36
9,33,81,60
9,33,0,60
9,33,73,36
9,33,0,36
9,33,81,60
9,33,0,70
9,33,73,26
9,33,0,38
9,33,75,58
9,33,0,66
9,33,73,30
9,33,0,44
9,28,85,52
9,28,0,76
9,29,85,20
9,29,0,54
9,29,91,42
9,29,0,66
9,29,76,30
9,29,0,40
9,29,89,56
9,29,0,68
9,29,81,28
9,29,0,42
9,29,85,54
9,29,0,56
9,29,78,40
9,29,0,48
9,29,78,48
9,29,0,62
9,29,69,34
9,29,0,46
9,29,91,50
9,29,0,58
9,33,89,38
9,33,0,48
9,33,85,48
9,33,0,60
9,34,86,36
9,34,0,44
9,34,84,52
9,34,0,46
9,35,99,50
9,35,0,46
9,35,96,50
9,35,0,52
9,36,94,44
9,36,0,30
9,36,96,66
9,33,93,96
9,36,0,10
9,31,91,86
9,33,0,6
9,36,99,90
9,31,0,12
9,36,0,24
9,36,96,60
9,38,96,96
9,36,0,10
9,36,93,86
9,38,0,14
9,36,0,40
9,41,95,42
9,41,0,40
9,41,92,56
9,33,91,96
9,41,0,10
9,33,0,24
9,33,93,62
9,34,84,96
9,33,0,4
9,34,0,32
9,34,93,60
9,35,96,96
9,34,0,4
9,35,0,34
9,35,94,58
9,36,96,96
9,35,0,4
9,36,0,28
9,36,96,64
9,33,93,96
9,36,0,4
9,31,83,92
9,33,0,10
9,36,95,86
9,31,0,6
9,36,0,28
9,36,97,62
9,33,93,96
9,36,0,2
9,31,99,94
9,33,0,2
9,31,0,44
9,31,91,146
9,31,0,44
9,31,99,52
9,31,0,40
9,31,102,56
9,31,0,42
9,31,97,54
9,31,0,58
9,36,93,326
9,36,0,26
9,36,96,70
9,33,99,96
9,36,0,16
9,33,0,78
9,31,89,2
9,36,89,96
9,31,0,14
9,36,0,24
9,31,96,58
9,33,89,96
9,31,0,10
9,33,0,78
9,31,83,8
9,36,91,96
9,31,0,12
9,36,0,18
9,36,97,66
9,36,0,92
9,33,89,4
9,31,93,96
9,33,0,10
9,36,96,86
9,31,0,16
9,36,0,18
9,36,91,62
9,43,79,96
9,36,0,18
9,36,93,78
9,43,0,2
9,36,0,40
9,41,96,54
9,41,0,38
9,41,99,58
9,38,93,96
9,41,0,10
9,36,91,86
9,38,0,6
9,41,89,90
9,36,0,10
9,41,0,36
9,36,96,50
9,38,91,96
9,36,0,8
9,36,89,88
9,38,0,2
9,41,93,94
9,36,0,16
9,41,0,20
9,41,99,60
9,38,96,96
9,41,0,8
9,36,93,88
9,38,0,2
9,41,102,94
9,36,0,16
9,41,0,8
9,41,96,24
9,41,0,30
9,33,102,18
9,34,93,96
9,33,0,2
9,35,105,94
9,34,0,18
9,35,0,74
9,36,96,4
9,36,0,42
9,36,93,54
9,33,83,96
9,36,0,6
9,31,85,90
9,33,0,2
9,36,91,94
9,31,0,22
9,36,0,18
9,31,93,56
9,33,85,96
9,31,0,12
9,31,91,84
9,33,0,2
9,36,93,94
9,31,0,14
9,36,0,26
9,36,99,56
9,36,0,90
9,33,85,6
9,31,91,96
9,33,0,2
9,36,94,94
9,31,0,8
9,36,0,30
9,36,93,58
9,36,0,56
9,43,93,40
9,36,91,96
9,43,0,20
9,36,0,20
9,41,89,56
9,41,0,32
9,41,93,64
9,38,91,96
9,41,0,18
9,36,85,78
9,38,0,6
9,41,91,90
9,36,0,12
9,41,0,34
9,36,99,50
9,38,96,96
9,36,0,8
9,36,86,88
9,38,0,10
9,41,99,86
9,36,0,6
9,41,0,24
9,41,99,66
9,38,93,96
9,41,0,12
9,38,0,84
9,36,86,0
9,41,105,96
9,36,0,8
9,41,0,32
9,36,86,56
9,36,0,38
9,29,89,58
9,29,0,92
9,31,83,4
9,31,0,76
9,33,89,20
9,33,0,40
9,33,81,56
9,33,0,70
9,33,72,26
9,33,0,36
9,33,91,60
9,33,0,66
9,33,70,30
9,33,0,34
9,33,81,62
9,33,0,72
9,33,78,24
9,33,0,42
9,33,83,54
9,33,0,64
9,33,72,32
9,33,0,36
9,33,81,60
9,33,0,60
9,33,73,36
9,33,0,36
9,33,81,60
9,33,0,70
9,33,73,26
9,33,0,38
9,33,75,58
9,33,0,66
9,33,73,30
9,33,0,44
9,28,85,52
9,28,0,76
9,29,85,20
9,29,0,54
9,29,91,42
9,29,0,66
9,29,76,30
9,29,0,40
9,29,89,56
9,29,0,68
9,29,81,28
9,29,0,42
9,29,85,54
9,29,0,56
9,29,78,40
9,29,0,48
9,29,78,48
9,29,0,62
9,29,69,34
9,29,0,46
9,29,91,50
9,29,0,58
9,33,89,38
9,33,0,48
9,33,85,48
9,33,0,60
9,34,86,36
9,34,0,44
9,34,84,52
9,34,0,46
9,35,99,50
9,35,0,46
9,35,96,50
9,35,0,52
9,36,93,44
9,36,0,26
9,36,96,70
9,33,99,96
9,36,0,16
9,33,0,78
9,31,89,2
9,36,89,96
9,31,0,14
9,36,0,24
9,31,96,58
9,33,89,96
9,31,0,10
9,33,0,78
9,31,83,8
9,36,91,96
9,31,0,12
9,36,0,18
9,36,97,66
9,36,0,92
9,33,89,4
9,31,93,96
9,33,0,10
9,36,96,86
9,31,0,16
9,36,0,18
9,36,91,62
9,43,79,96
9,36,0,18
9,36,93,78
9,43,0,2
9,36,0,40
9,41,96,54
9,41,0,38
9,41,99,58
9,38,93,96
9,41,0,10
9,36,91,86
9,38,0,6
9,41,89,90
9,36,0,10
9,41,0,36
9,36,96,50
9,38,91,96
9,36,0,8
9,36,89,88
9,38,0,2
9,41,91,94
9,36,0,16
9,41,0,24
9,41,86,56
9,41,0,78
9,33,91,18
9,33,0,56
9,33,89,40
9,34,91,96
9,33,0,4
9,34,0,44
9,34,89,48
9,35,90,96
9,34,0,8
9,35,0,38
9,35,90,50
9,35,0,62
9,36,96,34
9,36,0,42
9,36,93,54
9,33,83,96
9,36,0,6
9,31,85,90
9,33,0,2
9,36,91,94
9,31,0,4
9,36,0,36
9,31,93,56
9,33,85,96
9,31,0,12
9,31,91,84
9,33,0,2
9,36,93,94
9,31,0,14
9,36,0,26
9,36,99,56
9,36,0,90
9,33,85,6
9,31,91,96
9,33,0,2
9,36,94,94
9,31,0,8
9,36,0,30
9,36,93,58
9,36,0,56
9,43,93,40
9,36,91,96
9,43,0,20
9,36,0,20
9,41,89,56
9,41,0,32
9,41,93,64
9,38,91,96
9,41,0,18
9,36,85,78
9,38,0,6
9,41,91,90
9,36,0,12
9,41,0,34
9,36,99,50
9,38,96,96
9,36,0,8
9,36,86,88
9,38,0,10
9,41,99,86
9,36,0,6
9,41,0,24
9,41,99,66
9,38,93,96
9,41,0,12
9,38,0,84
9,36,86,0
9,41,105,96
9,36,0,8
9,41,0,32
9,36,86,56
9,36,0,38
9,29,89,58
9,29,0,92
9,31,83,4
9,31,0,76
9,33,89,20
9,33,0,40
9,33,81,56
9,33,0,70
9,33,72,26
9,33,0,36
9,33,91,60
9,33,0,66
9,33,70,30
9,33,0,34
9,33,81,62
9,33,0,72
9,33,78,24
9,33,0,42
9,33,83,54
9,33,0,64
9,33,72,32
9,33,0,36
9,33,81,60
9,33,0,60
9,33,73,36
9,33,0,36
9,33,81,60
9,33,0,70
9,33,73,26
9,33,0,38
9,33,75,58
9,33,0,66
9,33,73,30
9,33,0,44
9,28,85,52
9,28,0,76
9,29,85,20
9,29,0,54
9,29,91,42
9,29,0,66
9,29,76,30
9,29,0,40
9,29,89,56
9,29,0,68
9,29,81,28
9,29,0,42
9,29,85,54
9,29,0,56
9,29,78,40
9,29,0,48
9,29,78,48
9,29,0,62
9,29,69,34
9,29,0,46
9,29,91,50
9,29,0,58
9,33,89,38
9,33,0,48
9,33,85,48
9,33,0,60
9,34,86,36
9,34,0,44
9,34,84,52
9,34,0,46
9,35,99,50
9,35,0,46
9,35,96,50
9,35,0,52
9,36,96,44
9,36,0,28
9,36,99,68
9,33,85,96
9,36,0,8
9,31,90,88
9,33,0,14
9,36,87,82
9,31,0,4
9,36,0,36
9,36,85,56
9,38,85,96
9,36,0,6
9,36,87,90
9,38,0,8
9,36,0,26
9,41,93,62
9,41,0,38
9,41,93,58
9,33,85,96
9,41,0,10
9,33,0,26
9,33,80,60
9,34,88,96
9,33,0,4
9,34,0,30
9,34,88,62
9,35,93,96
9,34,0,6
9,35,0,30
9,35,92,60
9,36,93,96
9,35,0,10
9,36,0,22
9,36,96,64
9,33,82,96
9,36,0,10
9,33,0,84
9,31,85,2
9,36,90,96
9,31,0,6
9,36,0,32
9,36,93,58
9,43,93,96
9,36,0,10
9,36,87,86
9,43,0,4
9,36,0,62
