track,note,velocity,time
1,59,55,1440
1,59,0,360
1,71,52,0
1,71,0,120
1,71,62,0
1,71,0,1440
1,72,58,10
1,72,0,480
1,71,62,0
1,71,0,1440
1,72,58,0
1,72,0,480
1,71,62,0
1,71,0,1430
1,72,59,0
1,72,0,480
1,71,64,0
1,71,0,1440
1,70,58,5
1,70,0,480
1,69,62,0
1,69,0,1440
1,71,63,0
1,71,0,480
1,69,66,0
1,69,0,1440
1,71,67,0
1,71,0,480
1,69,67,0
1,71,66,1435
1,69,0,5
1,71,0,355
1,69,57,0
1,69,0,120
1,69,62,10
1,69,0,1430
1,68,62,0
1,68,0,960
1,69,65,0
1,69,0,240
1,71,69,0
1,71,0,240
1,74,74,0
1,74,0,240
1,72,65,0
1,72,0,240
1,64,68,0
1,64,0,240
1,69,62,0
1,69,0,240
1,66,62,0
1,66,0,1440
1,69,57,0
1,69,0,480
1,66,62,0
1,66,0,1380
1,71,52,0
1,71,0,60
1,69,62,0
1,69,0,480
1,67,62,0
1,67,0,240
1,66,46,0
1,66,0,240
1,60,54,0
1,60,0,240
1,59,42,0
1,59,0,240
1,63,64,0
1,63,0,240
1,66,59,0
1,66,0,240
1,74,65,0
1,74,0,160
1,72,62,0
1,72,0,160
1,71,57,0
1,71,0,160
1,71,62,0
1,71,0,1440
1,72,68,10
1,72,0,480
1,71,71,0
1,72,74,1435
1,71,0,5
1,72,0,475
1,71,76,0
1,71,0,1435
1,72,77,0
1,72,0,480
1,71,84,0
1,71,0,360
1,70,78,0
1,70,0,120
1,70,85,0
1,70,0,240
1,71,70,0
1,71,0,60
1,70,73,0
1,70,0,60
1,69,76,0
1,69,0,60
1,70,79,0
1,70,0,60
1,79,88,0
1,79,0,480
1,78,91,0
1,78,0,360
1,76,77,0
1,76,0,120
1,76,89,0
1,76,0,240
1,75,86,0
1,75,0,240
1,84,92,0
1,84,0,240
1,75,85,0
1,75,0,240
1,75,88,0
1,75,0,240
1,76,82,0
1,76,0,240
1,79,85,0
1,79,0,240
1,71,77,0
1,71,0,240
1,74,80,0
1,74,0,240
1,72,69,0
1,72,0,240
1,76,77,0
1,76,0,160
1,64,67,0
1,64,0,160
1,69,67,0
1,69,0,160
1,66,73,0
1,66,0,720
1,69,69,0
1,69,0,240
1,66,64,0
1,66,0,1380
1,71,47,0
1,71,0,60
1,69,57,0
1,69,0,480
1,66,57,0
1,66,0,1800
1,64,52,0
1,64,0,120
1,64,57,0
1,64,0,1440
1,66,52,0
1,66,0,480
1,64,52,0
1,64,0,1440
1,66,47,0
1,66,0,480
1,64,47,0
1,64,0,960
1,52,28,960
1,64,33,0
1,54,28,0
1,59,28,0
1,59,0,960
1,52,0,0
1,64,0,0
1,54,0,0
1,54,28,0
1,59,28,0
1,51,28,0
1,63,33,0
1,63,0,960
1,54,0,0
1,59,0,0
1,51,0,0
1,64,33,0
1,59,28,0
1,52,28,0
1,55,28,0
1,55,0,1920
1,64,0,0
1,59,0,0
1,52,0,0
2,55,21,0
2,59,25,0
2,64,31,0
2,64,0,216
2,59,0,0
2,55,0,0
2,55,18,24
2,59,22,0
2,64,27,0
2,64,0,216
2,59,0,0
2,55,0,0
2,55,18,24
2,59,22,0
2,64,27,0
2,64,0,216
2,59,0,0
2,55,0,0
2,55,18,24
2,59,22,0
2,64,27,0
2,64,0,216
2,59,0,0
2,55,0,0
2,55,18,24
2,59,22,0
2,64,27,0
2,64,0,216
2,59,0,0
2,55,0,0
2,55,18,24
2,59,22,0
2,64,27,0
2,64,0,216
2,59,0,0
2,55,0,0
2,55,16,24
2,59,19,0
2,64,24,0
2,64,0,103
2,59,0,0
2,55,0,0
2,55,16,24
2,59,19,0
2,64,24,0
2,64,0,216
2,59,0,0
2,55,0,0
2,54,21,24
2,64,31,0
2,57,25,0
2,57,0,125
2,64,0,0
2,54,0,0
2,54,18,24
2,57,22,0
2,64,27,0
2,64,0,216
2,57,0,0
2,54,0,0
2,54,18,24
2,64,27,0
2,57,22,0
2,57,0,216
2,64,0,0
2,54,0,0
2,57,22,24
2,54,18,0
2,64,27,0
2,64,0,216
2,54,0,0
2,57,0,0
2,57,22,24
2,54,18,0
2,63,27,0
2,63,0,113
2,54,0,0
2,57,0,0
2,63,27,24
2,57,22,0
2,54,18,0
2,54,0,216
2,57,0,0
2,63,0,0
2,54,16,24
2,57,19,0
2,63,24,0
2,63,0,90
2,57,0,0
2,54,0,0
2,54,16,24
2,57,19,0
2,63,24,0
2,63,0,216
2,57,0,0
2,54,0,0
2,53,21,24
2,57,25,0
2,63,31,0
2,63,0,92
2,57,0,0
2,53,0,0
2,53,18,24
2,63,27,0
2,57,22,0
2,57,0,216
2,63,0,0
2,53,0,0
2,63,27,24
2,57,22,0
2,53,18,0
2,53,0,216
2,57,0,0
2,63,0,0
2,53,18,24
2,57,22,0
2,63,27,0
2,63,0,216
2,57,0,0
2,53,0,0
2,57,22,24
2,62,27,0
2,53,18,0
2,53,0,108
2,62,0,0
2,57,0,0
2,53,18,24
2,62,27,0
2,57,22,0
2,57,0,216
2,62,0,0
2,53,0,0
2,53,16,24
2,62,24,0
2,56,19,0
2,56,0,125
2,62,0,0
2,53,0,0
2,53,16,24
2,56,19,0
2,62,24,0
2,62,0,216
2,56,0,0
2,53,0,0
2,52,21,24
2,56,25,0
2,62,31,0
2,62,0,136
2,56,0,0
2,52,0,0
2,56,22,24
2,62,27,0
2,52,18,0
2,52,0,216
2,62,0,0
2,56,0,0
2,56,22,24
2,62,27,0
2,52,18,0
2,52,0,216
2,62,0,0
2,56,0,0
2,62,27,24
2,56,22,0
2,52,18,0
2,52,0,216
2,56,0,0
2,62,0,0
2,62,27,24
2,55,22,0
2,52,18,0
2,52,0,125
2,55,0,0
2,62,0,0
2,52,18,24
2,55,22,0
2,62,27,0
2,62,0,216
2,55,0,0
2,52,0,0
2,61,24,24
2,52,16,0
2,55,19,0
2,55,0,113
2,52,0,0
2,61,0,0
2,52,16,24
2,55,19,0
2,61,24,0
2,61,0,216
2,55,0,0
2,52,0,0
2,52,21,24
2,60,31,0
2,55,25,0
2,55,0,115
2,60,0,0
2,52,0,0
2,55,22,24
2,52,18,0
2,60,27,0
2,60,0,216
2,52,0,0
2,55,0,0
2,55,23,24
2,52,18,0
2,60,28,0
2,60,0,216
2,52,0,0
2,55,0,0
2,55,23,24
2,60,28,0
2,52,19,0
2,52,0,216
2,60,0,0
2,55,0,0
2,60,31,24
2,52,20,0
2,54,26,0
2,54,0,102
2,52,0,0
2,60,0,0
2,60,34,24
2,52,22,0
2,54,26,0
2,54,0,216
2,52,0,0
2,60,0,0
2,54,23,24
2,52,19,0
2,60,31,0
2,60,0,102
2,52,0,0
2,54,0,0
2,52,19,24
2,54,25,0
2,60,32,0
2,60,0,216
2,54,0,0
2,52,0,0
2,54,34,24
2,60,39,0
2,52,27,0
2,52,0,102
2,60,0,0
2,54,0,0
2,54,27,24
2,60,35,0
2,52,23,0
2,52,0,216
2,60,0,0
2,54,0,0
2,54,27,24
2,60,35,0
2,52,22,0
2,52,0,216
2,60,0,0
2,54,0,0
2,52,22,24
2,60,34,0
2,54,26,0
2,54,0,216
2,60,0,0
2,52,0,0
2,51,26,24
2,60,32,0
2,54,26,0
2,54,0,90
2,60,0,0
2,51,0,0
2,51,25,24
2,54,25,0
2,60,32,0
2,60,0,216
2,54,0,0
2,51,0,0
2,51,20,24
2,54,20,0
2,60,27,0
2,60,0,79
2,54,0,0
2,51,0,0
2,54,20,24
2,60,26,0
2,51,20,0
2,51,0,216
2,60,0,0
2,54,0,0
2,54,29,24
2,50,25,0
2,60,37,0
2,60,0,117
2,50,0,0
2,54,0,0
2,50,20,24
2,54,26,0
2,60,32,0
2,60,0,216
2,54,0,0
2,50,0,0
2,54,26,24
2,60,32,0
2,50,20,0
2,50,0,216
2,60,0,0
2,54,0,0
2,60,32,24
2,50,20,0
2,54,26,0
2,54,0,216
2,50,0,0
2,60,0,0
2,60,32,24
2,50,20,0
2,54,26,0
2,54,0,216
2,50,0,0
2,60,0,0
2,50,20,24
2,54,26,0
2,60,32,0
2,60,0,216
2,54,0,0
2,50,0,0
2,50,17,24
2,60,26,0
2,54,20,0
2,54,0,216
2,60,0,0
2,50,0,0
2,54,20,24
2,50,17,0
2,60,26,0
2,60,0,216
2,50,0,0
2,54,0,0
2,53,25,24
2,50,21,0
2,60,31,0
2,60,0,113
2,50,0,0
2,53,0,0
2,60,27,24
2,53,22,0
2,50,18,0
2,50,0,216
2,53,0,0
2,60,0,0
2,50,18,24
2,53,22,0
2,60,27,0
2,60,0,216
2,53,0,0
2,50,0,0
2,50,18,24
2,60,27,0
2,53,22,0
2,53,0,216
2,60,0,0
2,50,0,0
2,50,18,24
2,53,22,0
2,59,27,0
2,59,0,113
2,53,0,0
2,50,0,0
2,50,18,24
2,53,22,0
2,59,27,0
2,59,0,216
2,53,0,0
2,50,0,0
2,53,19,24
2,59,24,0
2,50,16,0
2,50,0,101
2,59,0,0
2,53,0,0
2,53,19,24
2,59,24,0
2,50,16,0
2,50,0,216
2,59,0,0
2,53,0,0
2,52,29,24
2,59,29,0
2,48,24,0
2,48,0,75
2,59,0,0
2,52,0,0
2,48,23,24
2,59,28,0
2,52,28,0
2,52,0,216
2,59,0,0
2,48,0,0
2,48,26,24
2,57,32,0
2,52,32,0
2,52,0,75
2,57,0,0
2,48,0,0
2,57,35,24
2,48,27,0
2,52,35,0
2,52,0,216
2,48,0,0
2,57,0,0
2,48,27,24
2,52,35,0
2,57,35,0
2,57,0,75
2,52,0,0
2,48,0,0
2,48,26,24
2,57,32,0
2,52,32,0
2,52,0,216
2,57,0,0
2,48,0,0
2,52,26,24
2,48,20,0
2,57,26,0
2,57,0,18
2,48,0,0
2,52,0,0
2,52,25,24
2,48,20,0
2,57,25,0
2,57,0,216
2,48,0,0
2,52,0,0
2,52,29,24
2,57,29,0
2,47,24,0
2,47,0,125
2,57,0,0
2,52,0,0
2,57,27,24
2,47,22,0
2,52,27,0
2,52,0,216
2,47,0,0
2,57,0,0
2,57,27,24
2,47,22,0
2,51,27,0
2,51,0,125
2,47,0,0
2,57,0,0
2,47,22,24
2,51,27,0
2,57,27,0
2,57,0,216
2,51,0,0
2,47,0,0
2,48,22,24
2,57,27,0
2,52,27,0
2,52,0,90
2,57,0,0
2,48,0,0
2,48,22,24
2,52,27,0
2,57,27,0
2,57,0,216
2,52,0,0
2,48,0,0
2,48,19,24
2,52,23,0
2,57,23,0
2,57,0,216
2,52,0,0
2,48,0,0
2,48,19,24
2,52,23,0
2,57,23,0
2,57,0,216
2,52,0,0
2,48,0,0
2,47,24,24
2,51,29,0
2,57,29,0
2,57,0,160
2,51,0,0
2,47,0,0
2,47,22,24
2,51,27,0
2,57,27,0
2,57,0,216
2,51,0,0
2,47,0,0
2,47,22,24
2,51,27,0
2,57,27,0
2,57,0,216
2,51,0,0
2,47,0,0
2,47,22,24
2,51,27,0
2,57,27,0
2,57,0,216
2,51,0,0
2,47,0,0
2,48,22,24
2,52,27,0
2,57,27,0
2,57,0,106
2,52,0,0
2,48,0,0
2,48,22,24
2,52,27,0
2,57,27,0
2,57,0,216
2,52,0,0
2,48,0,0
2,48,19,24
2,52,23,0
2,57,23,0
2,57,0,216
2,52,0,0
2,48,0,0
2,48,19,24
2,52,23,0
2,57,23,0
2,57,0,216
2,52,0,0
2,48,0,0
2,47,24,24
2,51,29,0
2,57,29,0
2,57,0,470
2,51,0,0
2,47,0,0
2,55,21,0
2,59,25,0
2,64,31,0
2,64,0,216
2,59,0,0
2,55,0,0
2,55,18,24
2,59,22,0
2,64,27,0
2,64,0,216
2,59,0,0
2,55,0,0
2,55,18,24
2,59,22,0
2,64,29,0
2,64,0,216
2,59,0,0
2,55,0,0
2,55,19,24
2,59,24,0
2,64,29,0
2,64,0,216
2,59,0,0
2,55,0,0
2,55,19,24
2,59,25,0
2,64,31,0
2,64,0,216
2,59,0,0
2,55,0,0
2,55,20,24
2,59,26,0
2,64,32,0
2,64,0,216
2,59,0,0
2,55,0,0
2,55,20,24
2,59,24,0
2,64,32,0
2,64,0,75
2,59,0,0
2,55,0,0
2,55,20,24
2,59,26,0
2,64,33,0
2,64,0,216
2,59,0,0
2,55,0,0
2,54,23,24
2,64,35,0
2,57,28,0
2,57,0,125
2,64,0,0
2,54,0,0
2,54,20,24
2,57,25,0
2,64,32,0
2,64,0,216
2,57,0,0
2,54,0,0
2,54,21,24
2,64,33,0
2,57,26,0
2,57,0,216
2,64,0,0
2,54,0,0
2,57,27,24
2,54,22,0
2,64,35,0
2,64,0,216
2,54,0,0
2,57,0,0
2,57,28,24
2,53,22,0
2,63,35,0
2,63,0,113
2,53,0,0
2,57,0,0
2,63,38,24
2,57,29,0
2,53,24,0
2,53,0,216
2,57,0,0
2,63,0,0
2,53,24,24
2,57,27,0
2,63,38,0
2,63,0,90
2,57,0,0
2,53,0,0
2,53,25,24
2,57,30,0
2,63,38,0
2,63,0,216
2,57,0,0
2,53,0,0
2,53,30,24
2,56,37,0
2,63,45,0
2,63,0,101
2,56,0,0
2,53,0,0
2,53,26,24
2,63,40,0
2,56,33,0
2,56,0,216
2,63,0,0
2,53,0,0
2,62,41,24
2,56,34,0
2,53,27,0
2,53,0,67
2,56,0,0
2,62,0,0
2,53,27,24
2,56,36,0
2,62,41,0
2,62,0,216
2,56,0,0
2,53,0,0
2,56,36,24
2,62,44,0
2,52,29,0
2,52,0,113
2,62,0,0
2,56,0,0
2,52,29,24
2,62,45,0
2,56,37,0
2,56,0,216
2,62,0,0
2,52,0,0
2,52,27,24
2,62,40,0
2,56,31,0
2,56,0,56
2,62,0,0
2,52,0,0
2,52,27,24
2,56,31,0
2,62,41,0
2,62,0,216
2,56,0,0
2,52,0,0
2,52,42,24
2,55,42,0
2,62,50,0
2,62,0,165
2,55,0,0
2,52,0,0
2,52,36,24
2,55,36,0
2,62,42,0
2,62,0,216
2,55,0,0
2,52,0,0
2,52,38,24
2,55,38,0
2,61,45,0
2,61,0,144
2,55,0,0
2,52,0,0
2,52,46,24
2,55,46,0
2,61,55,0
2,61,0,216
2,55,0,0
2,52,0,0
2,49,46,24
2,52,46,0
2,58,56,0
2,58,0,144
2,52,0,0
2,49,0,0
2,49,43,24
2,52,43,0
2,58,52,0
2,58,0,216
2,52,0,0
2,49,0,0
2,48,43,24
2,52,43,0
2,57,52,0
2,57,0,159
2,52,0,0
2,48,0,0
2,48,45,24
2,52,45,0
2,57,54,0
2,57,0,216
2,52,0,0
2,48,0,0
2,35,57,24
2,47,69,0
2,47,0,67
2,35,0,0
2,69,54,24
2,66,54,0
2,60,45,0
2,57,45,0
2,57,0,216
2,69,0,0
2,66,0,0
2,60,0,0
2,57,45,24
2,60,45,0
2,66,54,0
2,69,54,0
2,69,0,216
2,57,0,0
2,60,0,0
2,66,0,0
2,57,45,24
2,60,45,0
2,66,54,0
2,69,54,0
2,69,0,216
2,57,0,0
2,60,0,0
2,66,0,0
2,66,57,24
2,63,57,0
2,59,47,0
2,55,47,0
2,55,0,125
2,66,0,0
2,63,0,0
2,59,0,0
2,64,49,24
2,59,41,0
2,55,41,0
2,55,0,125
2,59,0,0
2,64,0,0
2,55,41,24
2,59,41,0
2,64,49,0
2,64,0,113
2,59,0,0
2,55,0,0
2,55,41,24
2,59,41,0
2,64,49,0
2,64,0,216
2,59,0,0
2,55,0,0
2,64,53,24
2,60,44,0
2,57,44,0
2,57,0,124
2,60,0,0
2,64,0,0
2,57,38,24
2,60,38,0
2,64,46,0
2,64,0,216
2,60,0,0
2,57,0,0
2,45,44,24
2,45,0,89
2,60,44,24
2,54,37,0
2,52,37,0
2,52,0,216
2,54,0,0
2,60,0,0
2,47,38,24
2,52,38,0
2,59,46,0
2,59,0,124
2,52,0,0
2,47,0,0
2,47,33,24
2,52,33,0
2,59,38,0
2,59,0,216
2,52,0,0
2,47,0,0
2,48,33,24
2,52,33,0
2,57,38,0
2,57,0,131
