track,note,velocity,time
1,23,120,24544
1,26,112,0
1,26,102,48
1,26,117,48
1,26,102,48
1,26,112,48
1,26,102,48
1,26,117,48
1,26,112,48
1,26,112,48
1,26,102,48
1,26,122,48
1,26,102,48
1,26,112,48
1,26,102,48
1,26,117,48
1,26,112,48
1,31,112,48
1,31,102,48
1,31,117,48
1,31,102,48
1,31,112,48
1,31,102,48
1,31,117,48
1,31,112,48
1,31,112,48
1,31,102,48
1,31,122,48
1,31,102,48
1,31,112,48
1,31,102,48
1,31,117,48
1,31,112,48
1,26,112,48
1,26,102,48
1,26,117,48
1,26,102,48
1,26,112,48
1,26,102,48
1,26,117,48
1,26,112,48
1,26,112,48
1,26,102,48
1,26,122,48
1,26,102,48
1,26,112,48
1,26,102,48
1,26,117,48
1,26,112,48
1,31,112,48
1,31,102,48
1,31,112,48
1,31,102,48
1,31,112,48
1,43,97,48
1,44,102,0
1,45,107,48
1,36,112,48
1,37,102,48
1,38,112,48
1,29,102,48
1,30,112,48
1,31,112,48
1,24,117,8
1,26,112,48
1,26,112,48
1,26,102,48
1,33,112,48
1,26,102,48
1,36,112,48
1,26,102,48
1,38,117,64
1,26,112,192
1,36,102,32
1,26,102,48
1,38,107,48
1,38,112,48
1,28,102,48
1,38,107,0
1,43,107,48
1,43,112,48
1,43,107,48
1,31,102,32
1,43,107,0
1,41,117,48
1,43,107,0
1,43,112,128
1,43,112,48
1,38,112,0
1,41,102,192
1,41,112,32
1,43,107,32
1,43,112,32
1,38,102,32
1,26,112,32
1,26,102,48
1,33,112,48
1,26,102,0
1,36,112,48
1,26,102,0
1,38,117,128
1,26,102,0
1,36,107,192
1,36,112,32
1,26,102,32
1,36,107,32
1,43,107,32
1,43,117,32
1,43,102,32
1,31,102,0
1,43,107,32
1,41,117,32
1,43,107,0
1,43,112,128
1,43,112,32
1,38,112,32
1,41,102,192
1,41,112,32
1,43,107,16
1,43,112,16
1,38,102,32
1,26,114,32
1,26,104,32
1,33,114,32
1,26,104,32
1,36,114,32
1,26,104,32
1,38,119,96
1,26,104,32
1,26,104,32
1,36,109,32
1,36,114,32
1,26,104,32
1,36,109,32
1,43,109,32
1,43,114,32
1,43,109,32
1,31,104,32
1,43,109,32
1,41,119,32
1,43,109,0
1,43,114,128
1,38,114,224
1,41,104,192
1,41,114,32
1,43,109,0
1,43,114,24
1,38,104,0
1,26,114,32
1,26,104,32
1,33,114,32
1,26,104,32
1,36,114,32
1,26,104,32
1,38,119,128
1,26,114,192
1,33,104,16
1,36,109,224
1,36,114,32
1,26,104,32
1,36,109,32
1,43,109,32
1,43,114,32
1,43,109,16
1,43,115,16
1,43,109,16
1,41,119,16
1,43,109,16
1,43,114,128
1,43,107,8
1,45,107,0
1,36,112,80
1,37,107,0
1,38,107,0
1,31,107,0
1,32,107,0
1,33,117,0
1,52,117,0
1,45,117,0
1,47,92,0
1,43,117,24
1,38,117,8
1,33,117,8
1,33,112,16
1,33,117,0
1,33,122,288
1,33,112,16
1,33,117,0
1,33,117,288
1,33,112,16
1,33,117,0
1,33,117,192
1,35,117,0
1,38,117,0
1,43,117,0
1,50,117,0
1,26,117,1344
1,24,112,192
1,26,117,16
1,26,112,128
1,26,117,16
1,24,112,192
1,26,117,16
1,26,117,16
1,26,112,192
1,31,117,48
1,31,112,96
1,31,117,192
1,35,117,32
1,35,117,216
1,36,117,208
1,36,117,16
1,37,117,192
1,38,117,192
1,36,112,0
1,33,117,0
1,26,122,112
1,26,112,0
1,26,112,192
1,38,112,16
1,36,112,96
1,36,117,0
1,38,112,32
1,38,102,0
1,31,117,64
1,31,112,32
1,31,122,48
1,31,112,32
1,31,117,48
1,31,112,32
1,31,122,48
1,31,112,32
1,31,117,48
1,31,112,32
1,23,122,48
1,24,112,384
1,25,112,368
1,26,112,368
1,26,102,64
1,26,112,64
1,26,102,64
1,26,112,64
1,26,102,64
1,26,102,64
1,26,117,64
1,26,102,64
1,26,102,64
1,26,102,64
1,26,102,64
1,26,112,64
1,26,102,64
1,26,102,64
1,30,102,64
1,31,112,16
1,31,102,64
1,31,102,64
1,31,102,64
1,31,112,64
1,31,102,64
1,31,102,64
1,31,102,64
1,31,112,64
1,31,102,64
1,31,102,64
1,31,102,64
1,31,112,64
1,31,102,64
1,31,102,64
1,26,112,64
1,26,112,16
1,26,102,64
1,26,102,64
1,26,102,64
1,26,102,64
1,26,102,64
1,26,102,64
1,26,102,64
1,26,112,64
1,26,102,64
1,26,102,64
1,26,102,64
1,26,112,64
1,26,102,64
1,26,102,64
1,31,102,64
1,31,112,16
1,31,102,64
1,31,102,64
1,31,102,64
1,42,112,64
1,43,102,64
1,44,102,64
1,45,102,64
1,36,112,64
1,37,102,64
1,38,102,64
1,31,112,64
1,32,102,64
1,33,102,64
1,24,112,0
1,26,112,32
1,26,112,32
1,26,107,0
1,33,107,0
1,26,107,0
1,36,89,0
1,26,107,0
1,38,112,0
1,26,112,192
1,26,107,16
1,26,107,16
1,36,107,16
1,36,107,16
1,26,107,16
1,36,107,16
1,43,107,16
1,43,112,16
1,43,107,0
1,31,107,0
1,43,107,16
1,41,112,16
1,43,107,16
1,43,107,16
1,43,102,208
1,31,117,192
1,32,107,0
1,33,107,0
1,24,117,32
1,26,102,0
1,26,102,64
1,26,102,64
1,26,102,64
1,26,112,64
1,26,102,64
1,26,102,64
1,26,107,64
1,26,112,64
1,26,102,64
1,26,102,64
1,26,102,64
1,26,102,64
1,26,102,64
1,26,102,64
1,26,92,64
1,31,102,64
1,31,102,32
1,31,102,32
1,31,102,32
1,31,102,32
1,31,112,32
1,31,114,176
1,43,92,192
1,44,94,0
1,45,96,0
1,36,98,80
1,37,100,0
1,38,102,0
1,31,104,0
1,32,106,0
1,33,112,0
1,33,112,0
1,40,107,0
1,33,112,16
1,33,112,16
1,33,102,0
1,33,112,0
1,45,117,8
1,43,117,8
1,38,117,8
1,33,117,8
1,33,112,64
1,33,117,32
1,33,122,80
1,33,112,16
1,33,117,16
1,33,117,320
1,33,102,32
1,33,117,16
1,33,92,96
1,35,117,192
1,38,117,8
1,43,117,0
1,26,117,1536
1,26,112,16
1,24,102,144
1,26,117,0
1,26,112,16
1,24,102,160
1,26,117,16
1,24,107,160
1,26,117,16
1,24,107,192
1,26,107,16
1,31,112,16
1,31,112,128
1,31,112,144
1,35,112,0
1,35,112,216
1,36,112,0
1,38,112,192
1,38,117,0
1,36,112,0
1,33,112,0
1,26,112,64
1,26,112,0
1,26,112,176
1,26,112,16
1,24,112,240
1,26,117,16
1,26,112,0
1,26,102,0
1,31,112,16
1,31,112,32
1,31,112,32
1,31,112,32
1,31,112,224
1,35,112,32
1,35,112,32
1,36,113,32
1,36,108,32
1,36,114,8
1,36,109,32
1,37,115,8
1,37,110,32
1,38,116,8
1,38,111,32
1,38,112,32
1,36,107,0
1,33,107,0
1,26,117,96
1,26,112,0
1,26,117,16
1,24,102,48
1,26,112,0
1,26,117,48
1,24,102,48
1,26,112,0
1,26,117,48
1,26,102,48
1,31,112,0
1,31,112,64
1,31,112,64
1,31,112,64
1,31,112,256
1,35,112,64
1,35,112,64
1,36,113,64
1,36,108,48
1,36,114,8
1,36,109,48
1,37,115,8
1,37,110,56
1,38,116,8
1,38,117,8
1,36,107,0
1,33,107,0
1,26,117,96
1,26,112,0
1,26,117,16
1,24,102,48
1,26,112,0
1,26,117,48
1,24,102,64
1,26,112,0
1,26,117,48
1,26,102,48
1,31,112,0
1,31,112,64
1,31,112,64
1,31,112,64
1,31,112,256
1,31,112,64
1,31,112,64
1,31,112,64
1,31,112,48
1,35,112,32
1,35,112,0
1,36,112,0
1,36,112,0
1,37,112,0
1,38,112,0
1,26,112,5312
1,26,112,384
1,26,112,1136
1,24,112,192
1,26,112,560
1,31,112,2208
1,26,127,0
1,24,127,0
1,33,122,0
1,31,102,0
1,38,127,8
1,40,127,0
1,43,90,0
1,24,90,96
1,26,117,0
1,24,102,192
1,26,117,0
1,26,112,0
1,24,102,192
1,26,117,16
1,24,107,160
1,26,117,16
1,26,117,0
1,24,107,160
1,31,112,16
1,31,112,16
1,31,112,192
1,31,112,192
1,35,112,32
1,35,112,216
1,36,112,0
1,37,112,0
1,38,112,240
1,38,117,0
1,36,112,0
1,33,112,96
1,26,112,96
1,24,112,160
1,26,112,16
1,24,112,128
1,26,117,16
1,26,112,80
1,26,112,80
1,26,102,80
1,31,112,80
1,31,112,64
1,31,112,64
1,31,112,64
1,31,112,224
1,35,112,64
1,35,112,64
1,36,113,8
1,36,108,64
1,36,114,8
1,36,109,72
1,37,115,8
1,37,110,80
1,38,116,8
1,38,111,80
1,38,117,8
1,36,114,80
1,33,112,72
1,26,112,16
1,26,116,32
1,26,114,32
1,26,112,24
1,26,112,8
1,26,117,32
1,26,114,80
1,26,112,72
1,26,112,16
1,26,116,32
1,26,114,40
1,26,112,24
1,26,112,8
1,31,112,32
1,31,112,80
1,31,112,72
1,31,112,64
1,31,112,40
1,35,112,24
1,35,112,8
1,35,112,8
1,35,117,72
1,35,112,48
1,36,112,0
1,36,112,40
1,37,112,0
1,37,112,0
1,38,112,8
1,36,112,0
1,33,112,80
1,26,112,64
1,26,116,48
1,26,114,40
1,26,112,24
1,26,117,16
1,26,117,80
1,26,114,80
1,26,112,80
1,26,112,32
1,26,116,48
1,26,114,40
1,26,112,24
1,26,112,16
1,31,112,80
1,31,112,80
1,31,112,80
1,31,112,64
1,31,112,40
1,35,112,32
1,35,112,16
1,35,112,80
1,35,112,80
1,35,112,8
1,35,112,64
1,36,112,8
1,36,112,40
1,37,112,32
1,37,112,0
2,62,100,25312
2,50,100,0
2,62,80,32
2,50,80,0
2,62,100,32
2,50,100,0
2,62,80,32
2,50,80,0
2,62,100,32
2,50,100,0
2,62,80,32
2,50,80,0
2,62,80,32
2,50,80,0
2,62,100,32
2,50,100,0
2,62,80,16
2,50,80,0
2,62,80,32
2,50,80,0
2,62,80,32
2,50,80,0
2,62,80,32
2,50,80,0
2,62,100,32
2,50,100,0
2,62,80,32
2,50,80,0
2,62,80,32
2,50,80,0
2,67,90,32
2,55,90,0
2,67,90,16
2,55,90,0
2,67,80,32
2,55,80,0
2,67,85,32
2,55,85,0
2,67,80,32
2,55,80,0
2,67,80,32
2,55,80,0
2,67,80,32
2,55,80,0
2,67,85,32
2,55,85,0
2,67,100,32
2,55,100,0
2,67,80,16
2,55,80,0
2,67,80,32
2,55,80,0
2,67,80,32
2,55,80,0
2,67,80,32
2,55,80,0
2,67,80,32
2,55,80,0
2,67,80,32
2,55,80,0
2,67,90,32
2,55,90,0
2,62,90,32
2,50,90,0
2,62,90,16
2,50,90,0
2,62,80,32
2,50,80,0
2,62,85,32
2,50,85,0
2,62,80,32
2,50,80,0
2,62,80,32
2,50,80,0
2,62,80,32
2,50,80,0
2,62,80,32
2,50,80,0
2,62,100,32
2,50,100,0
2,62,80,0
2,50,80,0
2,62,80,32
2,50,80,0
2,62,85,32
2,50,85,0
2,62,80,32
2,50,80,0
2,62,80,32
2,50,80,0
2,62,80,32
2,50,80,0
2,62,80,32
2,50,80,0
2,67,100,32
2,55,100,0
2,67,80,16
2,55,80,0
2,67,80,32
2,55,80,0
2,67,85,32
2,55,85,0
2,67,80,32
2,55,80,0
2,67,80,32
2,55,80,0
2,67,80,32
2,55,80,0
2,67,85,32
2,55,85,0
2,67,100,32
2,55,100,0
2,67,80,16
2,55,80,0
2,67,80,32
2,55,80,0
2,67,90,32
2,55,90,0
2,67,80,32
2,55,80,0
2,67,95,32
2,55,95,0
2,67,80,32
2,55,80,0
2,67,90,32
2,55,90,0
2,62,100,32
2,50,100,0
2,62,85,16
2,50,80,0
2,62,80,32
2,50,80,0
2,62,80,32
2,57,85,0
2,50,80,0
2,62,85,32
2,50,85,0
2,62,80,32
2,60,85,0
2,50,80,0
2,62,80,32
2,50,80,0
2,62,80,32
2,57,85,0
2,50,80,0
2,62,100,32
2,50,90,0
2,62,75,32
2,50,80,0
2,62,85,32
2,57,80,0
2,50,80,0
2,62,80,32
2,50,80,0
2,62,80,32
2,60,82,0
2,50,80,0
2,62,80,32
2,60,90,0
2,50,80,0
2,62,80,32
2,50,80,0
2,62,80,32
2,57,80,0
2,50,80,0
2,67,90,32
2,55,90,0
2,67,90,32
2,55,90,0
2,67,90,32
2,55,90,0
2,67,85,32
2,62,80,0
2,55,85,0
2,67,80,32
2,55,80,0
2,67,80,32
2,65,90,0
2,55,80,0
2,67,80,16
2,55,80,0
2,67,85,32
2,62,85,0
2,55,85,0
2,67,85,32
2,55,100,0
2,67,85,16
2,55,85,0
2,67,85,32
2,62,90,0
2,55,85,0
2,67,85,32
2,55,85,0
2,67,85,32
2,65,85,0
2,55,85,0
2,67,85,16
2,65,95,0
2,55,85,0
2,67,85,32
2,55,85,0
2,67,85,32
2,62,85,0
2,55,85,0
2,62,90,32
2,50,90,0
2,62,80,16
2,50,80,0
2,62,95,32
2,50,80,0
2,62,80,16
2,57,90,0
2,50,80,0
2,62,90,16
2,50,90,0
2,62,80,32
2,60,85,0
2,50,80,0
2,62,85,32
2,50,80,0
2,62,80,32
2,57,80,0
2,50,80,0
2,62,95,32
2,50,95,0
2,62,80,32
2,50,80,0
2,62,80,32
2,57,80,0
2,50,80,0
2,62,80,32
2,50,80,0
2,62,80,32
2,60,85,0
2,50,80,0
2,62,80,32
2,60,90,0
2,50,80,0
2,62,80,32
2,57,80,0
2,50,80,0
2,62,80,32
2,60,80,0
2,50,80,0
2,67,95,32
2,55,95,0
2,67,90,32
2,55,90,0
2,67,80,32
2,55,80,0
2,67,90,32
2,55,90,0
2,67,80,32
2,55,80,0
2,65,95,32
2,55,90,0
2,67,80,16
2,55,80,0
2,67,90,32
2,55,90,0
2,67,90,32
2,55,90,0
2,67,90,16
2,55,90,0
2,67,80,32
2,62,80,0
2,55,80,0
2,67,80,32
2,55,80,0
2,67,85,32
2,65,85,0
2,55,85,0
2,67,90,32
2,65,90,0
2,55,90,0
2,67,90,32
2,55,90,0
2,67,90,32
2,55,80,0
2,62,90,32
2,50,90,0
2,62,80,16
2,50,80,0
2,62,80,32
2,50,80,0
2,62,90,32
2,57,95,0
2,50,90,0
2,62,80,32
2,50,80,0
2,62,80,32
2,60,80,0
2,50,90,0
2,62,90,32
2,50,90,0
2,62,80,32
2,57,80,0
2,50,80,0
2,62,100,32
2,50,95,0
2,62,80,32
2,50,80,0
2,62,95,32
2,57,95,0
2,50,95,0
2,62,80,16
2,50,80,0
2,62,90,32
2,60,90,0
2,50,90,0
2,62,85,32
2,60,95,0
2,50,85,0
2,62,95,32
2,50,95,0
2,62,80,32
2,57,80,0
2,50,80,0
2,67,100,32
2,55,100,0
2,67,90,32
2,55,84,0
2,67,91,32
2,55,85,0
2,67,92,32
2,55,86,0
2,67,93,32
2,55,87,0
2,67,94,32
2,65,88,0
2,55,88,0
2,67,95,32
2,55,89,0
2,67,99,32
2,55,90,0
2,67,90,32
2,55,90,0
2,67,95,16
2,55,95,0
2,67,90,32
2,62,90,0
2,55,90,0
2,67,85,16
2,55,85,0
2,67,90,32
2,65,95,0
2,55,90,0
2,67,90,32
2,65,100,0
2,55,90,0
2,67,70,16
2,55,85,0
2,67,95,32
2,55,90,0
2,62,95,32
2,50,95,0
2,62,80,16
2,50,80,0
2,62,80,32
2,50,80,0
2,62,90,32
2,57,95,0
2,50,90,0
2,62,80,16
2,50,80,0
2,62,80,32
2,60,95,0
2,50,80,0
2,62,80,32
2,50,80,0
2,62,90,32
2,57,90,0
2,50,90,0
2,62,95,32
2,50,95,0
2,62,80,32
2,50,80,0
2,62,80,32
2,57,80,0
2,50,80,0
2,62,90,32
2,50,90,0
2,62,80,32
2,60,85,0
2,50,80,0
2,62,90,32
2,60,90,0
2,50,90,0
2,62,80,32
2,50,80,0
2,62,90,32
2,57,90,0
2,50,90,0
2,67,100,32
2,60,80,0
2,55,100,0
2,67,85,16
2,55,85,0
2,67,85,0
