track,note,velocity,time
1,68,111,13980
1,68,109,16
1,68,111,190
1,69,104,22
1,69,111,118
1,69,106,42
1,71,109,166
1,71,113,186
1,66,108,246
1,68,81,32
1,66,97,22
1,64,91,20
1,68,114,1218
1,68,104,4
1,68,108,130
1,69,115,186
1,68,110,38
1,64,94,370
1,66,107,170
1,68,66,30
1,64,105,2494
1,68,111,22
1,68,101,22
1,68,104,96
1,69,115,48
1,69,103,144
1,69,111,26
1,69,109,176
1,71,101,10
1,71,94,18
1,71,113,22
1,68,103,58
1,66,97,54
1,64,93,38
1,68,113,1582
1,68,103,30
1,68,110,16
1,68,116,152
1,69,109,156
1,68,112,82
1,66,96,52
1,66,97,24
1,66,101,32
1,68,105,10
1,66,101,978
1,68,110,26
1,71,111,200
1,68,115,196
1,73,113,24
1,73,113,20
1,73,109,154
1,71,91,4
1,71,112,26
1,71,112,68
1,68,108,36
1,64,107,1754
1,69,115,36
1,69,112,112
1,69,100,154
1,69,107,28
1,68,113,82
1,64,93,6
1,66,97,128
1,64,100,1116
1,64,100,32
1,68,113,8
1,69,112,166
1,71,115,26
1,66,103,160
1,68,104,32
1,66,97,26
1,64,95,20
1,61,97,806
1,64,99,18
1,64,97,20
1,64,105,4060
1,68,110,200
1,68,113,28
1,69,111,96
1,69,107,124
1,69,109,26
1,71,113,40
1,71,107,118
1,69,114,52
1,68,111,26
1,69,104,16
1,68,109,1536
1,68,97,28
1,68,90,12
1,68,93,32
1,68,91,18
1,69,109,36
1,69,109,346
1,68,104,40
1,64,95,170
1,66,104,26
1,68,101,68
1,66,101,46
1,64,111,28
1,68,113,1210
1,68,113,172
1,69,111,30
1,69,111,4
1,69,117,26
1,71,118,40
1,71,114,182
1,68,114,46
1,69,106,32
1,68,109,1362
1,68,113,20
1,68,111,22
1,68,88,22
1,68,97,24
1,69,111,20
1,68,116,302
1,66,105,36
1,66,113,76
1,66,100,22
1,64,113,844
1,68,102,24
1,71,116,16
1,68,97,204
1,73,113,4
1,73,113,22
1,73,113,216
1,71,76,0
1,71,107,32
1,71,107,114
1,68,108,40
1,64,112,1702
1,69,111,22
1,69,107,28
1,69,108,26
1,69,107,16
1,71,114,176
1,71,115,22
1,73,95,44
1,71,115,194
1,64,106,730
1,64,90,32
1,68,114,38
1,69,113,256
1,71,115,30
1,68,113,214
1,66,101,28
1,64,84,22
1,61,93,1012
1,64,109,2
1,64,100,36
1,71,114,47940
1,71,113,22
1,71,111,28
1,71,119,196
1,73,112,42
1,73,110,18
1,73,110,4
1,71,109,82
1,71,117,154
1,64,111,196
1,71,116,1030
1,71,113,24
1,73,111,36
1,73,109,20
1,71,117,234
1,69,97,4
1,69,111,36
1,71,108,20
1,69,114,48
1,66,105,26
1,64,112,1686
1,71,116,28
1,71,117,36
1,73,110,88
1,73,101,26
1,73,108,24
1,71,111,62
1,71,111,242
1,71,111,48
1,71,113,10
1,68,93,38
1,68,93,16
1,69,101,32
1,69,119,396
1,73,114,56
1,71,96,30
1,71,94,28
1,71,105,24
1,71,111,32
1,71,109,18
1,69,114,64
1,71,114,80
1,69,109,54
1,71,107,26
1,64,111,682
1,68,113,22
1,71,114,28
1,68,101,180
1,73,115,18
1,73,114,22
1,73,113,198
1,71,93,0
1,71,113,8
1,71,116,26
1,68,106,32
1,64,101,1696
1,69,113,26
1,69,115,30
1,69,107,16
1,69,109,34
1,71,115,358
1,73,116,28
1,71,113,64
1,64,101,796
1,64,114,38
1,68,119,208
1,69,114,192
1,71,113,6
1,68,117,170
1,66,107,36
1,64,109,26
1,73,113,908
1,71,104,42
1,71,107,22
1,73,115,56
1,73,114,36
1,76,104,38
1,73,114,154
1,71,101,38
1,69,90,24
1,69,101,20
1,73,113,812
1,73,111,20
1,71,101,58
1,71,107,22
1,73,109,44
1,73,112,144
1,76,101,6
1,73,113,44
1,71,104,42
1,69,101,26
1,69,104,16
1,59,101,762
1,61,80,16
1,64,115,0
1,64,110,16
1,73,112,2416
1,71,110,12
1,68,105,2
1,71,116,6
2,80,50,63532
2,83,57,182
2,83,61,60
2,85,56,26
2,85,52,120
2,85,50,96
2,88,58,190
2,88,58,78
2,83,54,6
2,85,55,214
2,68,101,7682
2,83,61,22
2,68,95,70
2,83,56,36
2,69,94,176
2,85,60,2
2,69,101,62
2,85,56,6
2,85,53,78
2,69,97,18
2,71,105,20
2,88,57,4
2,71,101,64
2,88,57,26
2,68,93,48
2,83,51,2
2,85,53,210
2,69,94,2
2,69,97,7252
2,88,57,14
2,69,95,90
2,88,60,36
2,69,109,108
2,90,51,46
2,68,88,342
2,88,56,12
2,68,115,84
2,88,59,6
2,64,108,48
2,83,49,4
2,73,81,1290
2,85,57,80
2,73,82,62
2,85,56,16
2,73,75,80
2,85,60,38
2,73,80,48
2,85,56,44
2,73,85,84
2,85,61,16
2,73,79,164
2,88,55,6
2,88,64,78
2,73,85,10
2,78,88,24
2,88,59,20
2,87,51,1722
2,68,75,502
2,76,52,16
2,69,83,1466
2,78,50,32
2,73,93,0
2,81,52,30
2,71,90,728
2,80,53,4
2,78,50,0
2,69,84,4
2,66,81,746
2,75,48,2
2,68,75,730
2,76,46,8
2,71,51,47902
2,68,87,0
2,69,84,24
2,73,50,6
2,68,76,82
2,71,56,14
2,68,52,794
2,64,48,700
2,71,53,364
2,68,74,0
2,69,79,6
2,73,48,56
2,66,75,94
2,71,51,32
2,71,52,498
2,68,81,0
2,69,84,0
2,73,48,32
2,68,75,240
2,73,50,10
2,71,53,790
2,64,48,690
2,80,50,522
2,71,94,0
2,80,48,54
2,80,51,64
2,71,89,0
2,71,87,80
2,80,54,14
2,73,85,82
2,81,54,6
2,80,56,202
2,71,87,4
2,69,83,16
2,76,52,0
2,75,46,198
2,66,81,34
2,69,97,1712
2,88,57,14
2,69,95,90
2,88,60,36
2,69,109,108
2,90,51,46
2,68,88,342
2,88,56,12
2,68,115,84
2,88,59,6
2,64,108,48
2,83,49,4
2,73,81,1290
2,85,57,80
2,73,82,62
2,85,56,16
2,73,75,80
2,85,60,38
2,73,80,48
2,85,56,44
2,73,85,84
2,85,61,16
2,73,79,164
2,88,55,6
2,88,64,78
2,73,85,10
2,78,88,24
2,88,59,20
2,87,51,1722
2,80,50,502
2,71,92,0
2,73,82,26
2,81,54,20
2,73,84,112
2,80,49,24
2,71,92,6
2,75,87,750
2,78,50,6
2,80,55,200
2,71,88,0
2,73,82,2
2,81,53,16
2,81,52,64
2,73,81,0
2,76,88,184
2,85,53,20
2,73,78,306
2,81,54,6
2,71,90,750
2,80,51,16
2,75,86,696
2,78,51,22
2,71,87,338
2,80,55,38
2,73,81,4
2,81,53,16
2,73,81,62
2,81,52,2
2,76,94,204
2,85,53,2
2,81,54,322
2,73,91,4
2,80,51,2
2,71,87,6
2,75,93,4
2,78,51,14
2,73,81,3376
2,81,84,2
2,78,81,786
2,69,94,0
2,76,80,540
2,68,87,4
2,75,79,154
2,66,82,4
2,78,81,702
2,69,94,14
2,68,81,0
2,76,80,18
2,73,78,1544
2,81,83,22
2,78,81,746
2,69,88,12
2,68,81,518
2,76,79,4
2,66,81,148
2,75,75,4
2,78,78,8
2,69,84,0
2,68,81,756
2,76,73,0
2,81,88,1574
2,73,82,16
2,69,84,744
2,78,81,14
2,68,81,548
2,76,80,8
2,66,75,138
2,75,75,4
2,78,74,744
2,69,82,6
2,68,79,758
2,76,75,0
3,40,102,1506
3,40,108,174
3,35,99,134
3,35,111,182
3,40,105,108
3,40,110,204
3,35,101,108
3,35,113,160
3,40,110,128
3,40,97,178
3,35,103,142
3,35,113,156
3,40,103,114
3,40,104,150
3,35,103,108
3,35,109,160
3,40,110,116
3,40,107,138
3,35,100,94
3,35,110,150
3,40,110,140
3,40,103,188
3,35,104,120
3,35,110,196
3,40,107,118
3,40,103,156
3,35,101,116
3,35,108,180
3,40,103,120
3,40,105,170
3,35,103,112
3,35,108,176
3,40,107,118
3,40,110,164
3,35,105,118
3,40,103,226
3,45,103,96
3,45,103,180
3,40,103,106
3,35,100,158
3,40,109,118
3,40,98,162
3,35,110,108
3,40,103,194
3,45,103,102
3,45,104,192
3,40,103,92
3,40,105,280
3,40,105,196
3,35,111,116
3,40,106,180
3,45,103,84
3,45,97,160
3,40,105,102
3,40,103,164
3,35,109,122
3,35,110,156
3,42,109,90
3,45,97,166
3,47,107,142
3,47,113,74
3,42,92,258
3,45,98,2
3,45,107,92
3,44,92,0
3,42,92,0
3,40,107,14
3,40,103,166
3,35,105,128
3,40,105,182
3,45,106,116
3,45,101,170
3,40,100,118
3,35,104,156
3,40,103,108
3,40,103,156
3,35,96,122
3,40,109,156
3,45,106,110
3,45,98,146
3,40,102,88
3,35,110,178
3,40,96,96
3,40,101,178
3,35,110,108
3,40,103,182
3,45,104,108
3,45,98,152
3,40,104,102
3,40,103,192
3,47,104,84
3,47,103,156
3,42,91,96
3,42,96,164
3,47,109,92
3,47,105,146
3,42,91,92
3,42,96,190
3,45,88,90
3,45,97,174
3,40,98,100
3,40,116,168
3,45,103,96
3,45,106,166
3,40,106,108
3,35,108,140
3,40,105,110
3,40,101,164
3,35,106,118
3,35,105,176
3,40,103,118
3,40,99,166
3,35,110,108
3,40,104,176
3,45,108,112
3,45,103,168
3,40,102,104
3,40,103,158
3,45,105,102
3,45,103,184
3,40,103,98
3,42,105,320
3,42,103,156
3,37,107,104
3,47,105,284
3,47,105,188
3,42,92,104
3,47,108,106
3,40,110,158
3,40,103,156
3,35,110,116
3,30,107,372
3,30,105,176
3,37,102,88
3,33,110,282
3,33,100,182
3,40,114,66
3,35,103,240
3,35,103,122
3,35,111,134
3,40,98,292
3,40,110,152
3,35,103,122
3,35,108,168
3,40,110,100
3,40,111,134
3,35,103,96
3,37,97,0
3,40,103,0
3,37,97,0
3,40,103,26
3,40,98,170
3,35,109,116
3,35,105,150
3,40,101,90
3,40,98,152
3,35,110,116
3,35,103,168
3,40,103,86
3,40,105,192
3,35,104,86
3,40,106,236
3,45,101,62
3,45,96,160
3,40,102,102
3,35,100,146
3,40,102,86
3,40,103,150
3,35,104,106
3,40,107,172
3,45,102,80
3,45,96,160
3,40,103,112
3,35,108,166
3,40,101,82
3,40,103,168
3,35,104,100
3,35,94,134
3,45,98,76
3,45,95,192
3,40,103,106
3,40,107,144
3,47,104,72
3,47,106,166
3,42,96,98
3,42,94,192
3,47,111,80
3,42,100,154
3,47,102,70
3,47,127,38
3,40,110,202
3,40,106,128
3,35,110,96
3,40,110,150
3,45,110,106
3,45,100,150
3,40,103,102
3,35,103,144
3,40,109,90
3,40,103,148
3,35,110,90
3,40,108,166
3,45,104,106
3,45,100,170
3,40,103,102
3,35,106,162
3,40,109,86
3,40,105,138
3,35,110,96
3,40,108,194
3,45,108,74
3,45,98,180
3,40,107,96
3,40,111,164
3,47,110,86
3,47,108,158
3,42,92,80
3,42,97,176
3,47,111,96
3,47,111,162
3,42,100,80
3,44,97,0
3,47,96,0
3,44,97,0
3,45,100,68
3,45,96,162
3,40,106,120
3,40,107,176
3,45,100,102
3,45,98,192
3,40,103,96
3,35,105,144
3,40,105,80
3,40,103,156
3,35,108,100
3,35,104,176
3,40,106,90
3,40,105,204
3,35,110,82
3,40,114,208
3,45,103,192
3,45,104,148
3,40,106,110
3,40,106,184
3,45,103,102
3,45,103,170
3,40,107,118
3,40,110,186
3,47,98,80
3,47,109,202
3,42,91,104
3,42,104,188
3,47,110,92
3,47,104,172
3,42,94,96
3,42,104,220
3,40,110,208
3,40,109,166
3,35,109,122
3,35,111,188
3,30,117,144
3,30,121,196
3,37,114,96
3,37,107,166
3,33,105,78
3,33,105,138
3,40,114,112
3,40,103,174
3,35,106,92
3,35,103,160
3,42,104,82
3,40,111,256
3,40,100,134
3,35,105,100
3,40,100,298
3,40,102,144
3,35,103,120
3,40,103,310
3,40,107,158
3,35,103,104
3,40,103,294
3,40,110,180
3,35,105,64
3,37,104,0
3,40,100,0
3,37,95,0
3,40,114,22
3,40,96,150
3,35,110,128
3,40,101,162
3,45,103,112
3,45,103,146
3,40,100,104
3,35,102,90
3,40,105,98
3,40,103,128
3,35,107,110
3,40,103,190
3,45,103,102
3,45,105,150
3,40,98,102
3,35,99,116
3,40,106,116
3,40,105,170
3,35,107,102
3,40,96,194
3,45,110,106
3,40,108,128
3,42,103,112
3,44,96,0
3,45,94,0
3,42,101,0
3,47,110,70
3,47,102,164
3,42,91,124
3,42,101,152
3,47,110,98
3,47,105,138
3,42,96,58
3,44,98,0
3,45,95,0
3,42,103,0
3,40,106,32
3,40,100,138
3,35,107,124
3,40,103,160
3,45,104,106
3,45,99,148
3,40,107,110
3,35,106,154
3,40,98,98
3,40,104,140
3,35,103,112
3,40,106,166
3,45,103,98
3,45,92,182
3,40,100,114
3,35,98,162
3,40,99,102
3,40,100,168
3,35,107,92
3,40,103,200
3,45,107,88
3,40,103,156
3,42,104,102
3,44,97,0
3,45,94,0
3,42,88,0
3,47,109,46
3,47,99,160
3,42,88,108
3,42,97,180
3,47,109,104
3,47,104,134
3,42,101,94
3,44,107,10
3,45,103,0
3,42,91,0
3,45,103,48
3,45,103,160
3,40,105,106
3,40,103,150
3,45,110,84
3,37,111,50
3,40,104,28
3,40,107,74
3,42,97,0
3,37,104,0
3,40,103,46
3,40,106,166
3,35,105,118
3,35,105,178
3,40,110,92
3,35,101,112
3,40,118,68
3,39,97,0
3,37,100,0
3,35,111,4
3,33,110,24
3,33,100,182
3,40,102,96
3,40,101,180
3,33,103,88
3,33,104,202
3,40,100,58
3,40,102,196
3,35,105,66
3,35,102,128
3,42,95,48
3,42,100,176
3,47,110,68
3,42,90,0
3,45,99,0
3,44,98,234
3,42,98,0
3,39,101,0
3,35,96,0
3,40,98,24
3,40,98,166
3,35,100,100
3,35,99,188
3,30,111,80
3,30,98,164
3,37,97,0
3,33,107,196
3,33,103,170
3,40,106,16
3,35,110,214
3,35,107,208
3,42,93,0
3,40,106,272
3,45,97,140
3,40,103,358
3,40,103,172
3,35,106,86
3,35,103,180
3,45,96,0
3,45,100,160
3,40,104,12
3,40,105,298
3,40,101,156
3,35,107,80
3,40,106,148
3,45,103,48
3,45,93,178
3,40,104,96
3,40,105,180
3,47,97,10
3,47,106,150
3,42,93,40
3,42,91,162
3,47,105,64
3,42,100,68
3,45,104,70
3,44,97,0
3,42,97,0
3,39,103,0
3,40,102,0
3,40,103,178
3,35,102,0
3,40,110,220
3,45,90,0
3,45,95,218
3,40,103,0
3,40,103,348
3,40,103,208
3,35,105,6
3,40,105,204
3,45,103,0
3,45,94,188
3,40,103,0
3,45,100,56
3,40,105,152
3,40,100,172
3,35,102,0
3,40,104,236
3,45,94,0
3,45,96,160
3,40,101,32
3,40,104,166
3,47,96,0
3,47,105,144
3,42,97,0
3,42,95,172
3,47,110,16
3,47,103,144
3,42,93,0
3,44,91,0
3,47,108,0
3,44,94,0
3,45,96,60
3,45,103,134
3,40,103,0
3,40,107,144
3,45,98,8
3,45,101,154
3,40,101,32
3,35,104,118
3,40,103,2
3,40,103,162
3,35,105,2
3,35,105,192
3,40,107,20
3,40,106,204
3,35,108,0
3,37,97,0
3,40,105,0
3,37,98,0
3,45,99,44
3,45,106,182
3,40,100,0
3,40,103,166
3,45,103,0
3,45,98,182
3,40,104,0
3,40,103,208
3,47,98,36
3,47,107,164
3,42,92,0
3,42,95,180
3,47,106,12
3,47,106,170
3,42,94,0
3,44,100,0
3,47,108,0
3,44,103,0
3,40,110,58
3,40,111,180
3,35,106,0
3,35,101,182
3,30,111,0
3,30,97,134
3,30,107,106
3,33,117,212
3,33,110,162
3,40,107,0
3,35,106,206
3,35,104,160
3,42,91,0
3,35,103,108
3,40,98,0
3,40,103,138
3,35,104,0
3,35,110,180
3,30,103,46
3,30,97,154
3,37,97,0
3,33,110,288
3,33,103,166
3,40,96,0
3,40,97,140
3,35,110,0
3,35,108,162
3,42,95,0
3,40,108,350
3,40,104,202
3,35,106,0
3,35,109,194
3,30,104,0
3,30,102,202
3,37,93,0
