track,note,velocity,time
1,62,79,80400
1,71,79,0
1,72,79,0
1,64,79,0
1,62,79,0
1,69,79,0
1,64,79,80
1,62,79,0
1,71,79,0
1,62,79,165
1,71,79,0
1,72,79,0
1,64,79,0
1,62,79,0
1,69,79,0
1,64,79,80
1,62,79,0
1,71,79,0
1,62,79,165
1,71,79,0
1,72,79,0
1,64,79,0
1,62,79,0
1,69,79,0
1,64,79,140
1,62,79,0
1,71,79,0
1,62,79,165
1,71,79,0
1,72,79,0
1,64,79,0
1,66,79,0
1,62,79,0
1,69,79,0
1,67,79,0
1,64,79,0
1,71,79,0
1,72,79,0
1,69,79,0
1,66,79,0
1,71,79,0
1,67,79,0
1,74,79,0
2,71,79,1800
2,71,79,20
2,75,79,40
2,76,79,40
2,68,79,0
2,69,79,20
2,71,79,220
2,71,79,20
2,71,79,20
2,69,79,40
2,71,79,0
2,71,79,20
2,68,79,0
2,68,79,20
2,68,79,200
2,68,79,20
2,68,79,20
2,71,79,40
2,71,79,40
2,69,79,0
2,69,79,20
2,69,79,40
2,71,79,0
2,71,79,180
2,73,79,20
2,71,79,20
2,69,79,40
2,68,79,20
2,66,79,0
2,64,79,0
2,70,79,500
2,71,79,20
2,75,79,40
2,76,79,40
2,68,79,40
2,69,79,20
2,71,79,280
2,71,79,20
2,71,79,20
2,69,79,20
2,68,79,0
2,68,79,20
2,68,79,520
2,68,79,20
2,71,79,40
2,71,79,40
2,69,79,0
2,69,79,20
2,69,79,20
2,68,79,0
2,66,79,0
2,66,79,160
2,66,79,20
2,64,79,0
2,64,79,20
2,64,79,20
2,71,79,60
2,71,79,20
2,75,79,40
2,76,79,20
2,76,79,40
2,73,79,20
2,71,79,0
2,69,79,0
2,73,79,280
2,71,79,20
2,70,79,40
2,71,79,0
2,71,79,20
2,68,79,0
2,68,79,20
2,68,79,220
2,68,79,20
2,66,79,20
2,68,79,20
2,71,79,40
2,71,79,20
2,69,79,0
2,69,79,20
2,69,79,40
2,71,79,0
2,73,79,280
2,71,79,40
2,71,79,40
2,71,79,20
2,68,79,20
2,66,79,30
2,64,79,0
2,70,79,280
2,71,79,40
2,75,79,40
2,76,79,40
2,68,79,0
2,68,79,20
2,69,79,20
2,71,79,280
2,71,79,20
2,71,79,20
2,69,79,40
2,71,79,20
2,68,79,520
2,68,79,20
2,71,79,40
2,71,79,20
2,69,79,0
2,69,79,40
2,69,79,20
2,68,79,0
2,66,79,0
2,63,79,280
2,68,79,20
2,66,79,20
2,64,79,0
2,64,79,20
2,64,79,20
2,71,79,60
2,71,79,40
2,75,79,40
2,76,79,20
2,76,79,20
2,73,79,40
2,71,79,0
2,69,79,0
2,73,79,200
2,71,79,40
2,71,79,20
2,71,79,20
2,68,79,20
2,66,79,0
2,64,79,0
2,71,79,400
2,71,79,40
2,75,79,40
2,76,79,20
2,68,79,40
2,69,79,20
2,73,79,280
2,71,79,20
2,71,79,20
2,69,79,40
2,71,79,0
2,67,79,20
2,68,79,0
2,70,79,420
2,71,79,40
2,75,79,40
2,76,79,40
2,68,79,40
2,69,79,20
2,73,79,200
2,71,79,20
2,69,79,40
2,71,79,0
2,71,79,20
2,70,79,380
2,71,79,20
2,70,79,20
2,71,79,20
2,75,79,40
2,76,79,20
2,68,79,40
2,69,79,20
2,71,79,280
2,71,79,20
2,71,79,20
2,69,79,40
2,71,95,0
2,71,95,20
2,71,79,60
2,70,79,20
2,71,79,20
2,75,79,20
2,76,79,0
2,76,79,20
2,76,79,20
2,73,79,40
2,71,79,0
2,69,79,0
2,71,79,280
2,71,79,20
2,69,79,40
2,71,79,20
2,68,79,40
2,68,79,280
2,68,79,20
2,68,79,20
2,68,79,40
2,71,79,0
2,71,79,20
2,69,79,0
2,69,79,20
2,69,79,20
2,71,79,0
2,71,79,280
2,71,79,20
2,71,79,20
2,69,79,0
2,69,79,20
2,68,79,20
2,71,79,520
2,71,79,20
2,71,79,20
2,75,79,20
2,76,79,0
2,76,79,80
2,76,79,20
2,73,79,40
2,71,79,0
2,69,79,0
2,73,79,280
2,71,79,40
2,71,79,20
2,71,79,20
2,68,79,20
2,66,79,0
2,64,79,0
2,68,79,400
2,68,79,20
2,71,79,40
2,71,79,40
2,69,79,20
2,69,79,40
2,68,79,0
2,66,79,0
2,66,79,220
2,66,79,20
2,68,79,20
2,66,79,20
2,64,79,0
2,63,79,20
2,64,79,20
2,71,79,860
2,71,79,20
2,71,79,20
2,71,79,20
2,75,79,40
2,76,79,0
2,76,79,10
2,76,79,100
2,73,79,20
2,71,79,0
2,69,79,0
2,73,79,220
2,71,79,40
2,71,79,20
2,71,79,20
2,68,79,20
2,68,79,360
2,68,79,20
2,68,79,20
2,68,79,20
2,71,79,20
2,71,79,60
2,69,79,40
2,69,79,20
2,69,79,20
2,71,79,200
2,73,79,20
2,71,79,20
2,71,79,20
2,71,79,20
2,68,79,20
2,66,79,0
2,64,79,10
2,70,79,460
2,70,79,20
2,71,79,40
2,75,79,40
2,76,79,40
2,68,79,40
2,69,79,20
2,71,79,200
2,71,79,20
2,69,79,40
2,71,79,20
2,71,79,440
2,71,79,40
2,75,79,40
2,76,79,20
2,76,79,40
2,73,79,20
2,71,79,0
2,69,79,0
2,71,79,280
2,71,79,20
2,71,79,20
2,69,79,0
2,69,79,20
2,71,79,20
2,74,79,120
2,73,79,20
2,74,79,0
2,79,79,20
2,79,79,40
2,79,79,40
2,76,79,20
2,74,79,0
2,72,79,0
2,74,79,220
2,76,79,20
2,74,79,40
2,74,79,20
2,74,79,20
2,71,79,20
2,69,79,0
2,67,79,0
2,71,79,380
2,71,79,20
2,71,79,20
2,71,79,20
2,74,79,20
2,74,79,20
2,72,79,20
2,74,79,20
2,76,79,400
2,74,79,20
2,74,79,20
2,74,79,20
2,74,79,60
2,71,79,20
2,69,79,0
2,67,79,0
2,73,79,400
2,74,79,20
2,73,79,20
2,74,79,20
2,79,79,40
2,79,79,20
2,79,79,20
2,76,79,60
2,74,79,0
2,72,79,0
2,76,79,280
2,74,79,40
2,74,79,20
2,74,79,20
2,71,79,20
2,69,79,0
2,67,79,0
2,67,79,380
2,71,79,20
2,69,79,20
2,71,79,20
2,74,79,20
2,74,79,40
2,72,79,0
2,72,79,20
2,72,79,20
2,71,79,0
2,69,79,0
2,69,79,380
2,71,79,20
2,69,79,20
2,67,79,20
2,67,79,40
2,71,79,60
2,74,79,20
2,73,79,20
2,74,79,0
2,79,79,40
2,79,79,20
2,79,79,40
2,76,79,20
2,74,79,0
2,72,79,0
2,76,79,280
2,74,79,10
2,74,79,30
2,71,79,40
2,74,79,40
2,74,79,20
2,71,79,40
2,69,79,0
2,67,79,0
2,74,79,280
2,73,79,20
2,74,79,20
2,79,79,20
2,79,79,40
2,79,79,20
2,76,79,40
2,74,79,0
2,72,79,0
2,76,79,280
2,74,79,20
2,74,79,20
2,72,79,40
2,74,79,20
2,74,79,20
2,71,79,40
2,69,79,0
2,67,79,0
2,74,79,220
2,74,79,40
2,73,79,20
2,74,79,20
2,79,79,20
2,79,79,20
2,79,79,40
2,76,79,20
2,74,79,0
2,72,79,0
2,69,79,160
2,76,79,20
2,74,79,20
2,74,79,20
2,74,79,40
2,74,79,20
2,69,79,20
2,71,79,20
2,74,79,280
2,73,79,20
2,74,79,20
2,79,79,40
2,79,79,40
2,71,79,0
2,72,79,20
2,72,79,20
2,62,79,220
2,69,79,20
2,71,79,20
2,69,79,20
2,67,79,0
2,67,79,20
2,67,79,20
2,74,95,920
2,74,95,40
2,79,95,20
2,79,95,60
2,79,95,20
2,76,95,40
2,74,95,0
2,72,95,0
2,82,95,280
2,83,95,0
2,81,95,20
2,79,95,20
2,79,95,20
2,76,95,20
2,74,95,0
2,83,95,490
2,81,95,40
2,79,95,40
2,81,95,40
2,79,95,40
2,76,95,20
2,74,95,0
2,72,95,0
2,74,95,0
2,76,95,0
2,76,95,200
2,74,95,20
2,74,95,20
2,73,95,40
2,74,95,0
2,71,95,30
2,74,95,440
2,74,95,40
2,79,95,40
2,79,95,40
2,71,95,40
2,72,95,20
2,82,95,100
2,83,95,0
2,81,95,60
2,79,95,20
2,76,95,20
2,74,95,0
2,74,95,340
2,74,95,20
2,74,95,40
2,78,95,40
2,79,95,0
2,79,95,20
2,71,95,40
2,72,95,20
2,71,95,280
2,71,95,20
2,71,95,40
2,74,111,40
2,79,111,0
2,83,111,0
2,81,111,0
2,79,111,0
2,83,111,0
2,84,111,0
2,83,111,0
2,74,111,0
2,74,111,0
2,76,111,0
3,68,79,0
3,59,79,0
3,52,79,0
3,76,79,0
3,52,79,0
3,59,79,0
3,52,79,5
3,59,79,0
3,52,79,20
3,59,79,0
3,59,79,85
3,52,79,0
3,69,79,0
3,68,79,80
3,61,79,0
3,45,79,0
3,76,79,0
3,45,79,80
3,61,79,0
3,61,79,5
3,45,79,0
3,80,79,0
3,45,79,20
3,61,79,0
3,66,79,80
3,61,79,0
3,45,79,0
3,78,79,0
3,68,79,80
3,59,79,0
3,52,79,0
3,76,79,0
3,52,79,80
3,59,79,0
3,52,79,5
3,59,79,0
3,52,79,20
3,59,79,0
3,59,79,85
3,52,79,0
3,69,79,0
3,68,79,80
3,61,79,0
3,45,79,0
3,76,79,0
3,45,79,80
3,61,79,0
3,61,79,5
3,45,79,0
3,80,79,0
3,61,79,5
3,45,79,20
3,45,79,0
3,66,79,25
3,61,79,0
3,45,79,0
3,78,79,0
3,61,79,5
3,45,79,20
3,45,79,0
3,62,79,0
3,67,79,0
3,43,79,0
3,83,79,0
3,43,79,0
3,62,79,0
3,62,79,5
3,43,79,0
3,66,79,0
3,43,79,20
3,62,79,0
3,62,79,80
3,65,79,0
3,43,79,0
3,84,79,0
3,64,79,80
3,64,79,0
3,36,79,0
3,83,79,0
3,36,79,80
3,64,79,0
3,36,79,80
3,64,79,0
3,36,79,20
3,64,79,0
3,36,79,85
3,64,79,0
3,67,79,80
3,62,79,0
3,43,79,0
3,83,79,0
3,43,79,80
3,62,79,0
3,62,79,5
3,43,79,0
3,69,79,0
3,43,79,20
3,62,79,0
3,62,79,80
3,43,79,0
3,71,79,0
3,84,79,0
3,64,79,80
3,64,79,0
3,36,79,0
3,83,79,0
3,36,79,80
3,64,79,0
3,36,79,80
3,64,79,0
3,36,79,20
3,64,79,0
3,36,79,85
3,64,79,0
3,67,79,80
3,62,79,0
3,38,79,0
3,79,79,0
3,74,79,3205
3,71,79,0
3,72,79,165
3,71,79,165
3,69,79,165
3,72,79,0
3,71,79,165
3,72,79,165
3,71,79,165
3,69,79,165
3,72,79,0
3,71,79,165
3,72,79,165
3,71,79,165
3,69,79,165
3,72,79,0
3,71,79,0
3,67,79,0
3,74,79,0
3,71,79,80
3,67,79,0
3,74,79,0
3,72,79,80
3,67,79,0
3,76,79,0
3,72,79,80
3,67,79,0
3,76,79,0
3,69,79,80
3,67,79,0
3,72,79,0
3,69,79,80
3,67,79,0
3,72,79,0
3,71,79,80
3,67,79,0
3,74,79,0
3,71,79,165
3,67,79,0
3,74,79,0
3,72,79,165
3,67,79,0
3,76,79,0
3,72,79,80
3,67,79,0
3,76,79,0
3,69,79,80
3,67,79,0
3,72,79,0
3,71,79,165
3,67,79,0
3,74,79,0
3,71,79,165
3,67,79,0
3,74,79,0
3,71,79,80
3,67,79,0
3,74,79,0
3,72,79,80
3,67,79,0
3,76,79,0
3,67,79,80
3,72,79,0
3,76,79,0
3,69,79,80
3,67,79,0
3,72,79,0
3,69,79,80
3,67,79,0
3,72,79,0
3,71,79,80
3,67,79,0
3,74,79,0
3,71,79,165
3,67,79,0
3,74,79,0
3,72,79,165
3,69,79,0
3,67,79,0
3,76,79,0
3,74,79,165
3,72,79,0
3,69,79,0
3,78,79,0
3,74,79,165
3,71,79,0
3,67,79,0
3,79,79,0
3,67,79,0
3,62,79,0
3,55,79,0
3,71,79,0
3,59,79,0
3,67,79,80
3,60,79,0
3,57,79,0
3,72,79,0
3,66,79,165
3,62,79,0
3,57,79,0
3,69,79,0
3,71,79,80
3,72,79,40
3,67,79,40
3,62,79,0
3,55,79,0
3,71,79,0
3,67,79,165
3,62,79,0
3,55,79,0
3,71,79,0
3,57,79,85
3,62,79,40
3,67,79,40
3,60,79,0
3,60,79,0
3,72,79,0
3,66,79,165
3,62,79,0
3,57,79,0
3,69,79,0
3,55,79,165
3,62,79,0
3,67,79,0
3,71,79,0
3,67,79,80
3,74,79,0
3,72,79,40
3,67,79,40
3,62,79,0
3,55,79,0
3,71,79,0
3,57,79,80
3,62,79,40
3,60,79,40
3,60,79,0
3,72,79,0
3,66,79,165
3,62,79,0
3,57,79,0
3,69,79,0
3,64,79,80
3,66,79,40
3,71,79,40
3,67,79,0
3,62,79,0
3,55,79,0
3,79,79,0
3,71,79,165
3,67,79,0
3,62,79,0
3,55,79,0
3,79,79,0
3,67,79,165
3,64,79,0
3,48,79,0
3,72,79,0
3,66,79,165
3,62,79,0
3,50,79,0
3,69,79,0
3,67,79,165
3,43,79,0
3,62,79,0
3,71,79,0
3,43,79,80
3,62,79,0
3,67,79,0
3,67,79,80
3,62,79,0
3,43,79,0
3,79,79,0
3,62,79,20
3,43,79,0
3,67,79,0
3,62,79,140
3,43,79,0
3,67,79,0
3,67,79,80
3,62,79,0
3,43,79,0
3,79,79,0
3,48,79,165
3,64,79,0
3,66,79,165
3,62,79,0
3,50,79,0
3,78,79,0
3,67,79,165
3,43,79,0
3,62,95,0
3,79,79,0
3,59,95,40
3,60,95,20
3,62,95,20
3,55,95,40
3,67,79,40
3,62,79,0
3,43,79,0
3,79,79,0
3,48,79,165
3,64,79,0
3,69,79,165
3,60,79,0
3,48,79,0
3,78,79,0
3,67,79,165
3,59,79,0
3,43,79,0
3,79,79,0
3,67,79,165
3,62,79,0
3,43,79,0
3,79,79,0
3,48,79,165
3,64,79,0
3,66,79,165
3,50,79,0
3,60,79,0
3,78,79,0
3,67,79,165
3,43,79,0
3,62,95,0
3,79,79,0
3,59,95,40
3,60,95,20
3,62,95,20
3,59,95,40
3,67,79,40
3,59,79,0
3,43,79,0
3,79,79,0
3,48,79,165
3,60,79,0
3,69,79,165
3,62,79,0
3,50,79,0
3,78,79,0
3,71,79,165
3,62,79,0
3,43,79,0
3,79,79,0
3,71,79,80
3,43,79,0
3,79,79,0
3,71,79,80
3,43,79,0
3,79,79,0
3,71,79,20
3,43,79,0
3,79,79,0
3,72,79,85
3,43,79,0
3,79,79,0
3,79,79,80
3,43,79,0
3,43,79,0
3,43,79,80
3,43,79,20
3,43,79,140
3,43,79,80
3,43,79,80
3,43,79,80
3,43,79,20
3,43,79,140
3,43,79,80
3,43,79,80
3,43,79,80
3,43,79,20
3,43,79,140
3,43,79,80
3,43,79,80
3,43,79,80
3,43,79,20
3,43,79,85
3,79,79,80
3,43,79,0
3,79,79,0
3,81,79,80
3,43,79,0
3,81,79,0
3,83,79,80
3,43,79,0
3,83,79,0
3,43,79,20
3,84,79,80
3,43,79,0
3,84,79,0
3,43,79,0
3,86,79,0
3,43,79,0
3,43,79,80
3,43,79,20
3,43,79,85
3,43,79,80
3,88,79,0
3,43,79,80
3,43,79,80
3,43,79,20
3,43,79,85
3,43,79,80
3,86,79,0
3,43,79,80
3,43,79,80
3,43,79,20
3,43,79,85
3,43,79,80
3,88,79,0
3,43,79,80
3,43,79,80
3,43,79,20
3,43,79,85
3,74,79,80
3,43,79,0
3,91,79,0
3,43,79,80
3,43,79,80
3,43,79,20
3,43,79,85
3,79,79,80
3,43,79,0
3,88,79,0
3,43,79,80
3,81,79,0
3,43,79,80
3,83,79,0
3,43,79,20
3,43,79,80
3,84,79,0
3,86,79,80
3,91,79,0
3,43,79,0
3,43,79,80
3,43,79,80
3,43,79,20
3,43,79,140
3,43,79,80
3,43,79,80
3,43,79,80
3,43,79,20
3,43,79,140
3,43,79,80
3,43,79,80
3,43,79,80
3,43,79,20
3,43,79,140
3,43,79,80
3,43,79,80
3,43,79,80
