track,note,velocity,time
1,79,110,17120
1,77,109,96
1,74,121,48
1,72,110,24
1,70,110,24
1,70,116,260
1,72,106,48
1,70,116,48
1,70,108,48
1,72,112,48
1,74,108,24
1,74,124,500
1,77,109,96
1,74,110,96
1,72,110,24
1,70,99,72
1,72,105,48
1,70,110,48
1,70,110,96
1,65,117,48
1,67,115,24
1,79,121,500
1,77,101,48
1,74,110,144
1,72,111,24
1,70,109,24
1,72,123,144
1,70,111,48
1,70,105,48
1,72,110,48
1,74,124,24
1,72,110,120
1,70,115,48
1,72,103,48
1,74,105,24
1,77,112,72
1,74,113,48
1,72,107,24
1,72,113,72
1,72,111,48
1,70,110,48
1,72,112,48
1,70,117,48
1,70,110,48
1,65,122,48
1,67,105,24
1,76,110,504
1,84,106,0
1,74,110,192
1,82,104,0
1,72,109,192
1,74,99,48
1,72,111,96
1,74,110,96
1,77,117,260
1,74,116,48
1,72,119,96
1,74,115,24
1,72,105,24
1,70,113,96
1,72,114,48
1,70,108,96
1,67,111,96
1,76,105,500
1,84,111,0
1,74,109,192
1,82,115,0
1,72,102,192
1,74,110,48
1,72,110,96
1,74,108,96
1,77,111,144
1,74,119,48
1,72,103,48
1,74,116,48
1,72,119,48
1,72,103,48
1,70,115,48
1,72,111,48
1,70,109,96
1,67,100,48
1,79,99,48
1,67,114,7460
1,79,96,48
1,77,98,96
1,74,102,48
1,72,110,48
1,70,108,48
1,72,110,144
1,70,109,48
1,70,107,48
1,72,99,48
1,74,107,24
1,74,105,500
1,77,117,96
1,74,110,48
1,72,109,48
1,70,105,48
1,70,114,96
1,72,119,48
1,70,113,48
1,67,110,96
1,79,110,500
1,77,117,96
1,74,97,48
1,72,116,48
1,72,108,48
1,72,95,48
1,70,109,48
1,72,112,48
1,70,110,48
1,72,110,96
1,74,104,24
1,72,98,120
1,70,110,48
1,74,111,48
1,77,110,48
1,74,110,48
1,72,113,24
1,70,113,24
1,72,121,48
1,70,117,48
1,72,108,48
1,70,106,48
1,70,102,48
1,67,110,48
1,67,109,48
1,67,110,48
1,76,115,500
1,84,101,0
1,74,110,192
1,82,117,0
1,72,110,192
1,74,109,48
1,72,109,96
1,74,115,96
1,77,112,260
1,74,109,48
1,72,112,96
1,74,119,24
1,72,96,24
1,70,97,96
1,72,119,48
1,70,107,96
1,67,108,96
1,76,99,500
1,84,110,0
1,74,113,192
1,82,110,0
1,72,110,192
1,74,109,48
1,72,105,96
1,74,110,96
1,77,100,144
1,74,121,48
1,72,111,48
1,74,113,48
1,72,123,48
1,72,113,48
1,70,99,48
1,72,107,48
1,70,110,96
1,67,116,48
1,79,115,48
1,74,121,7700
1,79,110,0
1,82,105,0
1,70,107,240
1,74,107,0
1,79,119,0
1,74,110,48
1,79,110,0
1,82,110,0
1,72,112,48
1,77,100,0
1,81,107,0
1,70,113,288
1,74,106,0
1,79,108,0
1,74,96,48
1,79,111,0
1,82,110,0
1,72,121,48
1,78,109,0
1,81,111,0
1,70,102,288
1,74,115,0
1,79,111,0
1,72,110,48
1,78,110,0
1,81,103,0
1,70,103,48
1,74,114,0
1,79,108,0
1,74,110,48
1,79,110,0
1,82,124,0
1,72,107,48
1,78,115,0
1,81,112,0
1,70,112,48
1,74,109,0
1,79,113,0
1,67,110,48
1,70,104,0
1,74,102,0
1,74,108,144
1,79,118,0
1,82,123,0
1,70,117,240
1,74,109,0
1,79,105,0
1,74,110,48
1,79,110,0
1,82,110,0
1,72,104,48
1,77,112,0
1,81,104,0
1,70,125,288
1,74,110,0
1,79,117,0
1,74,105,48
1,79,113,0
1,82,106,0
1,72,111,48
1,78,105,0
1,81,123,0
1,70,109,288
1,74,115,0
1,79,108,0
1,72,113,48
1,78,110,0
1,81,108,0
1,70,102,48
1,74,110,0
1,79,113,0
1,74,111,48
1,79,110,0
1,82,110,0
1,72,113,48
1,78,108,0
1,81,108,0
1,70,111,48
1,74,116,0
1,79,110,0
1,67,122,48
1,70,106,0
1,74,97,0
1,79,107,144
1,79,110,48
1,77,118,96
1,74,107,48
1,70,108,48
1,72,103,48
1,70,106,48
1,70,104,96
1,79,122,48
1,77,106,48
1,74,111,48
1,70,100,48
1,72,110,48
1,70,105,48
1,74,110,48
1,70,102,48
1,74,106,48
1,77,110,48
1,74,110,48
1,70,113,48
1,72,109,48
1,67,110,48
1,67,108,48
1,67,119,48
1,74,110,960
1,74,105,48
1,79,105,48
1,77,108,48
1,74,111,48
1,70,111,48
1,72,116,48
1,70,113,48
1,79,112,144
1,77,116,48
1,74,125,48
1,70,102,48
1,72,110,48
1,70,122,48
1,70,109,48
1,70,106,48
1,74,101,48
1,77,110,48
1,74,108,48
1,72,98,24
1,70,104,24
1,72,99,48
1,70,101,48
1,72,116,48
1,70,120,48
1,72,108,48
1,67,100,48
1,67,96,96
1,76,120,480
1,84,112,0
1,74,109,192
1,82,116,0
1,72,113,192
1,74,108,48
1,72,111,96
1,74,101,96
1,77,109,240
1,74,121,48
1,72,118,96
1,74,110,24
1,72,112,24
1,70,110,96
1,72,108,48
1,70,98,96
1,67,117,96
1,76,117,480
1,84,110,0
1,74,101,192
1,82,105,0
1,72,110,192
1,74,101,48
1,72,110,96
1,74,102,96
1,77,113,144
1,74,113,48
1,72,110,48
1,74,109,48
1,72,97,48
1,72,111,48
1,70,99,48
1,72,116,48
1,70,100,96
1,67,119,48
1,79,110,48
2,58,110,1720
2,62,108,0
2,67,110,0
2,58,110,192
2,62,110,0
2,67,113,0
2,57,103,192
2,60,122,0
2,65,114,0
2,53,109,48
2,57,111,0
2,62,105,0
2,53,113,96
2,57,121,0
2,62,108,0
2,57,123,20
2,60,107,0
2,65,110,0
2,53,108,48
2,57,109,0
2,62,97,0
2,53,110,96
2,57,111,0
2,62,111,0
2,60,110,240
2,55,111,0
2,58,101,48
2,53,119,0
2,50,125,96
2,55,100,0
2,53,113,192
2,55,98,260
2,62,110,48
2,58,99,0
2,60,110,96
2,64,114,0
2,58,112,48
2,62,110,0
2,55,122,288
2,62,102,48
2,58,113,0
2,60,111,96
2,64,107,0
2,58,116,48
2,62,110,0
2,55,115,288
2,62,107,48
2,58,98,0
2,60,111,96
2,64,101,0
2,58,124,48
2,62,111,0
2,55,111,288
2,62,111,48
2,58,103,0
2,60,106,96
2,64,117,0
2,58,98,48
2,62,112,0
2,67,118,4
2,67,110,96
2,67,110,48
2,69,110,260
2,69,110,500
2,69,100,500
2,69,114,96
2,69,116,96
2,67,110,260
2,65,110,144
2,62,122,96
2,62,118,48
2,67,96,500
2,67,114,48
2,67,112,144
2,67,118,48
2,69,115,144
2,69,110,500
2,69,109,500
2,69,115,96
2,69,110,48
2,67,111,816
2,65,123,48
2,62,111,260
2,64,105,500
2,69,111,0
2,72,108,0
2,62,103,192
2,67,113,0
2,70,110,0
2,69,122,192
2,72,96,0
2,69,106,48
2,74,117,0
2,69,120,96
2,72,110,0
2,69,110,96
2,74,119,0
2,69,111,144
2,69,117,48
2,69,103,96
2,67,117,260
2,70,109,96
2,65,109,0
2,67,111,96
2,62,106,0
2,64,99,240
2,69,95,0
2,72,123,0
2,62,106,192
2,67,117,0
2,70,122,0
2,69,112,192
2,72,123,0
2,69,110,48
2,74,114,0
2,69,110,96
2,72,105,0
2,69,114,96
2,74,110,0
2,69,106,144
2,69,106,144
2,67,109,260
2,70,106,260
2,74,112,0
2,62,110,4
2,65,103,0
2,70,108,0
2,58,110,192
2,62,113,0
2,67,108,0
2,57,121,192
2,60,118,0
2,65,110,0
2,54,109,48
2,57,107,0
2,62,107,0
2,54,111,96
2,57,108,0
2,62,110,0
2,65,108,240
2,69,110,0
2,62,109,48
2,66,98,0
2,60,116,48
2,64,110,0
2,62,109,48
2,66,99,0
2,60,119,96
2,64,120,0
2,58,116,48
2,62,109,0
2,60,98,48
2,64,110,0
2,58,118,96
2,62,106,0
2,55,110,48
2,58,121,0
2,62,116,48
2,67,123,0
2,67,105,192
2,67,113,48
2,79,111,0
2,67,121,96
2,77,110,0
2,67,119,48
2,74,119,0
2,72,101,48
2,67,113,48
2,70,112,0
2,69,121,144
2,69,109,500
2,69,99,500
2,74,106,0
2,69,103,96
2,77,98,0
2,69,106,48
2,74,110,0
2,72,124,48
2,70,101,48
2,70,110,96
2,67,101,48
2,72,112,0
2,65,113,48
2,70,117,0
2,62,118,96
2,67,114,0
2,67,110,240
2,79,118,0
2,67,110,96
2,77,113,0
2,67,108,48
2,74,109,0
2,67,112,48
2,72,125,0
2,67,98,48
2,72,112,0
2,67,109,48
2,72,106,0
2,70,110,48
2,69,111,48
2,69,99,500
2,69,106,144
2,69,112,96
2,74,117,0
2,77,110,48
2,69,114,48
2,74,115,0
2,72,109,24
2,70,106,24
2,69,97,48
2,72,116,0
2,70,104,48
2,69,109,48
2,72,115,0
2,70,110,48
2,65,109,48
2,70,117,0
2,62,108,48
2,67,118,0
2,62,96,48
2,67,102,0
2,62,124,48
2,67,104,0
2,64,116,500
2,69,124,0
2,72,113,0
2,62,123,192
2,67,104,0
2,70,110,0
2,69,99,192
2,72,112,0
2,69,115,48
2,74,122,0
2,69,108,96
2,72,109,0
2,69,120,96
2,74,111,0
2,69,119,144
2,69,96,48
2,69,110,96
2,67,110,260
2,70,106,96
2,65,110,0
2,67,125,96
2,62,106,0
2,64,117,240
2,69,110,0
2,72,109,0
2,62,109,192
2,67,110,0
2,70,114,0
2,69,124,192
2,72,110,0
2,69,99,48
2,74,107,0
2,69,110,96
2,72,112,0
2,69,115,96
2,74,112,0
2,69,110,144
2,69,105,144
2,67,103,260
2,70,100,260
2,74,121,0
2,62,104,4
2,65,97,0
2,70,122,0
2,58,124,192
2,62,124,0
2,67,111,0
2,57,110,192
2,60,99,0
2,65,110,0
2,54,124,48
2,57,121,0
2,62,114,0
2,54,112,96
2,57,117,0
2,62,112,0
2,65,112,240
2,69,106,0
2,62,122,48
2,66,118,0
2,60,108,48
2,64,110,0
2,62,112,48
2,66,105,0
2,60,110,96
2,64,110,0
2,58,100,48
2,62,112,0
2,60,117,48
2,64,106,0
2,58,113,96
2,62,121,0
2,55,119,48
2,58,107,0
2,62,96,48
2,67,109,0
2,70,69,240
2,67,61,0
2,62,69,0
2,58,70,240
2,62,70,0
2,67,68,0
2,62,70,48
2,67,66,0
2,70,74,0
2,60,71,48
2,65,60,0
2,69,70,0
2,58,60,288
2,62,72,0
2,67,69,0
2,62,67,48
2,67,55,0
2,70,70,0
2,60,73,48
2,66,70,0
2,69,70,0
2,58,84,288
2,62,64,0
2,67,75,0
2,60,70,48
2,66,72,0
2,69,61,0
2,58,68,48
2,62,70,0
2,67,70,0
2,62,73,48
2,67,56,0
2,70,78,0
2,60,75,48
2,66,72,0
2,69,81,0
2,58,70,48
2,62,76,0
2,67,78,0
2,55,56,48
2,58,76,0
2,62,64,0
2,62,62,144
2,67,74,0
2,70,70,0
2,58,76,240
2,62,84,0
2,67,71,0
2,62,72,48
2,67,71,0
2,70,70,0
2,60,71,48
2,65,70,0
2,69,84,0
2,58,70,288
2,62,67,0
2,67,78,0
2,62,74,48
2,67,60,0
2,70,67,0
2,60,71,48
2,66,70,0
2,69,69,0
2,58,70,288
2,62,76,0
2,67,79,0
2,60,70,48
2,66,79,0
2,69,63,0
2,58,68,48
2,62,74,0
2,67,65,0
2,62,67,48
2,67,72,0
2,70,77,0
2,60,74,48
2,66,71,0
2,69,65,0
2,58,81,48
2,62,74,0
2,67,70,0
2,55,70,48
2,58,71,0
2,62,76,0
2,79,106,4
2,67,118,0
2,67,104,48
2,79,117,0
2,77,108,96
2,67,119,48
2,74,111,0
2,70,113,48
2,67,105,48
2,72,119,0
2,70,120,48
2,70,104,96
2,67,101,48
2,79,110,0
2,77,118,48
2,67,114,48
2,74,108,0
2,70,115,48
2,67,115,48
2,72,105,0
2,70,98,48
2,67,111,48
2,74,108,0
2,70,124,48
2,67,111,48
2,74,106,0
2,77,99,48
2,67,98,48
2,74,122,0
2,70,110,48
2,67,116,48
2,72,110,0
2,67,108,48
2,62,103,48
2,67,105,0
2,67,110,48
2,62,98,0
2,74,110,336
2,74,123,48
2,67,110,48
2,67,102,96
2,67,116,96
2,67,102,192
2,67,110,96
2,67,102,96
2,67,111,96
2,67,109,48
2,65,113,48
2,65,110,96
2,64,122,96
2,64,107,96
2,67,115,96
2,72,110,0
2,62,110,48
2,67,125,0
2,62,112,96
2,67,108,0
2,64,116,240
2,69,100,0
2,72,107,0
2,62,108,192
2,67,114,0
2,70,105,0
2,69,110,192
2,72,98,0
2,69,113,48
2,74,107,0
2,69,116,96
2,72,115,0
2,69,110,96
2,74,112,0
2,69,110,144
2,69,109,48
2,69,98,96
2,67,111,240
2,65,107,96
2,70,118,0
2,62,115,96
2,67,116,0
2,64,118,240
2,69,101,0
2,72,102,0
2,62,109,192
2,67,101,0
2,70,112,0
2,69,104,192
2,72,110,0
2,69,101,48
2,74,112,0
2,69,111,96
2,72,110,0
2,69,111,96
2,74,108,0
2,69,119,144
2,69,105,144
2,67,107,240
2,70,104,240
2,74,111,0
2,65,120,4
2,69,111,0
2,62,114,48
2,66,110,0
2,60,111,48
2,64,107,0
2,62,124,48
2,66,99,0
2,60,111,96
2,64,97,0
2,58,113,48
2,62,110,0
2,60,102,48
2,64,105,0
2,58,95,96
2,62,108,0
2,48,121,48
2,53,115,0
2,50,121,96
2,55,110,0
3,43,62,2000
3,58,64,240
3,70,49,240
3,62,70,0
3,65,65,40
3,60,65,0
3,57,65,0
3,41,55,0
3,65,60,40
3,62,60,0
3,57,60,0
3,50,57,340
3,65,63,240
3,62,63,0
3,57,63,0
3,65,65,0
3,60,65,0
3,57,65,0
3,41,55,0
3,65,60,40
3,62,60,0
3,57,60,0
3,50,57,340
3,65,63,240
3,62,63,0
3,57,63,0
3,43,62,520
3,58,64,240
3,70,49,240
3,62,70,0
3,62,62,0
3,70,54,0
3,58,57,96
3,70,59,240
3,62,71,0
3,43,56,28
3,67,61,480
3,70,60,0
3,58,66,0
3,43,62,464
3,58,64,240
3,70,49,240
3,62,70,0
3,62,60,0
3,58,60,0
3,55,60,0
3,62,62,0
3,70,54,0
3,58,57,96
3,70,59,240
3,62,71,0
3,50,62,508
3,57,64,240
3,69,49,240
3,60,70,0
3,66,55,0
3,50,62,240
3,57,64,240
3,69,49,240
3,60,70,0
3,66,55,0
3,62,62,40
3,70,54,0
3,58,57,80
3,70,59,240
3,62,71,0
3,62,62,268
3,70,54,0
3,58,57,72
3,70,59,240
3,62,71,0
3,50,56,28
3,66,61,480
3,69,60,0
3,60,66,0
3,50,62,464
3,57,64,240
3,69,49,240
3,60,70,0
3,66,55,0
3,62,62,0
3,70,54,0
3,58,57,72
3,70,59,240
3,62,71,0
3,70,60,28
3,67,60,0
3,62,60,0
3,66,60,8
3,62,60,0
3,60,60,0
3,69,60,0
3,60,62,40
3,66,54,0
3,57,57,80
3,66,59,240
3,60,71,0
3,43,62,508
3,58,64,240
3,70,49,240
3,62,70,0
3,43,62,520
3,58,64,240
3,70,49,240
3,62,70,0
3,66,60,0
3,62,60,0
3,60,60,0
3,69,60,0
3,50,62,520
3,57,64,240
3,69,49,240
3,60,70,0
3,66,55,0
3,43,56,0
3,67,61,240
3,70,60,0
3,58,66,0
3,46,57,40
3,62,63,480
3,58,63,0
3,53,63,0
3,43,57,40
3,70,63,480
3,67,63,0
3,62,63,0
3,65,65,0
3,60,65,0
3,57,65,0
3,41,55,0
3,66,60,40
3,62,60,0
3,57,60,0
3,66,60,100
3,62,60,0
3,57,60,0
3,65,65,40
3,60,65,0
3,57,65,0
3,41,55,0
3,66,60,40
3,62,60,0
3,57,60,0
3,64,60,40
3,60,60,0
3,55,60,0
3,64,65,340
3,60,65,0
3,55,65,0
3,48,55,0
3,62,60,0
3,58,60,0
3,55,60,0
3,70,65,92
3,67,65,0
3,62,65,0
3,43,55,0
3,62,62,40
3,70,54,0
3,58,57,104
3,70,59,240
3,62,71,0
3,60,62,268
