track,note,velocity,time
3,50,100,1
3,50,0,28
3,52,100,0
3,52,0,30
3,57,100,0
3,57,0,30
3,52,100,0
3,52,0,30
3,55,100,0
3,55,0,51
3,52,100,2
3,52,0,30
3,50,100,0
3,50,0,26
3,47,100,4
3,47,0,41
3,43,100,2
3,43,0,21
3,40,100,3
3,40,0,120
3,50,100,0
3,50,0,30
3,52,100,0
3,52,0,30
3,57,100,0
3,57,0,30
3,52,100,0
3,52,0,30
3,55,100,0
3,55,0,48
3,52,100,3
3,52,0,30
3,50,100,0
3,50,0,30
3,47,100,0
3,47,0,53
3,43,100,3
3,43,0,2
3,50,100,1
3,50,0,28
3,52,100,0
3,52,0,30
3,57,100,0
3,57,0,30
3,52,100,0
3,52,0,30
3,55,100,0
3,55,0,51
3,52,100,2
3,52,0,30
3,50,100,0
3,50,0,26
3,47,100,4
3,47,0,41
3,43,100,2
3,43,0,24
3,40,100,3
3,40,0,60
3,50,100,0
3,50,0,30
3,52,100,0
3,52,0,30
3,57,100,0
3,57,0,30
3,52,100,0
3,52,0,27
3,55,100,3
3,55,0,56
3,52,100,2
3,52,0,27
3,50,100,3
3,50,0,27
3,47,100,3
3,47,0,27
3,45,100,3
3,45,0,27
3,43,100,3
3,43,0,56
3,50,100,1
3,50,0,28
3,52,100,0
3,52,0,30
3,57,100,0
3,57,0,30
3,52,100,0
3,52,0,30
3,55,100,0
3,55,0,51
3,52,100,2
3,52,0,30
3,50,100,0
3,50,0,26
3,47,100,4
3,47,0,41
3,43,100,2
3,43,0,51
3,40,100,3
3,40,0,120
3,50,100,0
3,50,0,30
3,52,100,0
3,52,0,30
3,57,100,0
3,57,0,30
3,52,100,0
3,52,0,30
3,55,100,0
3,55,0,48
3,52,100,3
3,52,0,30
3,50,100,0
3,50,0,30
3,47,100,0
3,47,0,53
3,43,100,3
3,43,0,2
3,50,100,1
3,50,0,28
3,52,100,0
3,52,0,30
3,57,100,0
3,57,0,30
3,52,100,0
3,52,0,30
3,55,100,0
3,55,0,51
3,52,100,2
3,52,0,30
3,50,100,0
3,50,0,26
3,47,100,4
3,47,0,41
3,43,100,2
3,43,0,51
3,40,100,3
3,40,0,60
3,50,100,0
3,50,0,30
3,52,100,0
3,52,0,30
3,57,100,0
3,57,0,30
3,52,100,0
3,52,0,27
3,55,100,3
3,55,0,56
3,52,100,2
3,52,0,27
3,50,100,3
3,50,0,27
3,47,100,3
3,47,0,27
3,45,100,3
3,45,0,27
3,43,100,3
3,50,100,0
3,50,0,60
3,43,0,0
3,45,100,0
3,52,100,0
3,52,0,60
3,45,0,0
3,46,100,0
3,53,100,0
3,53,0,60
3,46,0,0
3,47,100,0
3,54,100,0
3,54,0,60
3,47,0,0
3,40,90,0
3,40,0,60
3,55,90,0
3,55,0,30
3,52,90,0
3,52,0,30
3,52,90,60
3,52,0,60
3,52,90,0
3,52,0,120
3,52,90,0
3,52,0,90
3,52,90,0
3,52,0,10
3,40,90,20
3,40,0,10
3,55,90,50
3,55,0,30
3,52,90,0
3,52,0,30
3,52,90,60
3,52,0,120
3,50,90,0
3,50,0,30
3,47,90,0
3,47,0,30
3,43,90,0
3,43,0,60
3,55,90,62
3,55,0,30
3,52,90,0
3,52,0,30
3,52,90,60
3,52,0,55
3,52,90,2
3,52,0,108
3,52,90,0
3,52,0,90
3,52,90,0
3,52,0,10
3,52,81,20
3,52,0,10
3,55,80,50
3,55,0,30
3,52,80,0
3,52,0,30
3,52,78,60
3,52,0,60
3,50,76,0
3,50,0,30
3,47,76,0
3,47,0,30
3,43,75,0
3,43,0,53
3,52,64,2
3,59,64,0
3,64,64,0
3,64,0,90
3,59,0,0
3,52,0,0
3,52,64,0
3,59,64,0
3,64,64,0
3,64,0,30
3,59,0,0
3,52,0,0
3,52,90,540
3,59,90,0
3,64,90,0
3,64,0,10
3,59,0,0
3,52,0,0
3,64,90,20
3,59,90,0
3,52,90,0
3,52,0,10
3,59,0,0
3,64,0,0
3,52,90,20
3,59,90,0
3,64,90,0
3,64,0,60
3,59,0,0
3,52,0,0
3,52,90,0
3,59,90,0
3,64,90,0
3,64,0,10
3,59,0,0
3,52,0,0
3,52,90,20
3,59,90,0
3,64,90,0
3,64,0,10
3,59,0,0
3,52,0,0
3,50,90,5
3,57,90,0
3,62,90,0
3,62,0,10
3,57,0,0
3,50,0,0
3,52,74,956
3,59,74,0
3,64,74,0
3,64,0,120
3,59,0,0
3,52,0,0
3,52,83,540
3,59,83,0
3,64,83,0
3,64,0,10
3,59,0,0
3,52,0,0
3,64,83,20
3,59,83,0
3,52,83,0
3,52,0,10
3,59,0,0
3,64,0,0
3,52,83,20
3,59,83,0
3,64,83,0
3,64,0,60
3,59,0,0
3,52,0,0
3,52,83,0
3,59,83,0
3,64,83,0
3,64,0,10
3,59,0,0
3,52,0,0
3,52,83,20
3,59,83,0
3,64,83,0
3,64,0,10
3,59,0,0
3,52,0,0
3,50,83,5
3,57,83,0
3,62,83,0
3,62,0,10
3,57,0,0
3,50,0,0
3,57,72,956
3,64,72,0
3,69,72,0
3,69,0,720
3,64,0,0
3,57,0,0
3,40,88,240
3,40,0,30
3,55,88,30
3,55,0,30
3,52,88,0
3,52,0,30
3,52,88,60
3,52,0,60
3,52,88,0
3,52,0,120
3,52,88,0
3,52,0,120
3,52,100,0
3,52,0,10
3,55,100,50
3,55,0,30
3,52,100,0
3,52,0,30
3,52,100,60
3,52,0,60
3,50,100,0
3,50,0,30
3,47,100,0
3,47,0,30
3,44,100,0
3,44,0,60
3,45,100,0
3,45,0,60
3,46,100,0
3,46,0,60
3,59,72,0
3,66,72,0
3,71,72,0
3,71,0,960
3,66,0,0
3,59,0,0
3,57,72,0
3,64,72,0
3,67,72,0
3,73,72,0
3,73,0,900
3,57,0,0
3,64,0,0
3,67,0,0
3,52,100,0
3,57,100,0
3,57,0,15
3,52,0,0
3,52,100,15
3,57,100,0
3,57,0,15
3,52,0,0
3,50,100,1
3,50,0,28
3,52,100,0
3,52,0,30
3,57,100,0
3,57,0,30
3,52,100,0
3,52,0,30
3,55,100,0
3,55,0,51
3,52,100,2
3,52,0,30
3,50,100,0
3,50,0,26
3,47,100,4
3,47,0,41
3,43,100,2
3,43,0,51
3,40,100,3
3,40,0,120
3,50,100,0
3,50,0,30
3,52,100,0
3,52,0,30
3,57,100,0
3,57,0,30
3,52,100,0
3,52,0,30
3,55,100,0
3,55,0,48
3,52,100,3
3,52,0,30
3,50,100,0
3,50,0,30
3,47,100,0
3,47,0,53
3,43,100,3
3,43,0,2
3,50,100,1
3,50,0,28
3,52,100,0
3,52,0,30
3,57,100,0
3,57,0,30
3,52,100,0
3,52,0,30
3,55,100,0
3,55,0,51
3,52,100,2
3,52,0,30
3,50,100,0
3,50,0,26
3,47,100,4
3,47,0,41
3,43,100,2
3,43,0,51
3,40,100,3
3,40,0,60
3,50,100,0
3,50,0,30
3,52,100,0
3,52,0,30
3,57,90,0
3,57,0,30
3,52,90,0
3,52,0,27
3,55,90,3
3,55,0,56
3,52,90,2
3,52,0,27
3,50,90,3
3,50,0,27
3,47,90,3
3,47,0,27
3,45,90,3
3,45,0,27
3,43,90,3
3,50,90,0
3,50,0,60
3,43,0,0
3,45,90,0
3,52,90,0
3,52,0,60
3,45,0,0
3,46,90,0
3,53,90,0
3,53,0,60
3,46,0,0
3,47,90,0
3,54,90,0
3,54,0,60
3,47,0,0
3,40,90,0
3,40,0,60
3,55,90,0
3,55,0,30
3,52,90,0
3,52,0,30
3,52,90,60
3,52,0,60
3,52,90,0
3,52,0,120
3,52,90,0
3,52,0,90
3,52,90,0
3,52,0,10
3,40,90,20
3,40,0,10
3,55,90,50
3,55,0,30
3,52,90,0
3,52,0,30
3,52,90,60
3,52,0,120
3,50,90,0
3,50,0,30
3,47,90,0
3,47,0,30
3,43,90,0
3,43,0,60
3,55,90,62
3,55,0,30
3,52,90,0
3,52,0,30
3,52,90,60
3,52,0,55
3,52,90,2
3,52,0,108
3,52,90,0
3,52,0,90
3,52,90,0
3,52,0,10
3,52,90,20
3,52,0,10
3,55,90,50
3,55,0,30
3,52,90,0
3,52,0,30
3,52,90,60
3,52,0,60
3,50,90,0
3,50,0,30
3,47,90,0
3,47,0,30
3,43,90,0
3,43,0,53
3,52,64,2
3,59,64,0
3,64,64,0
3,64,0,90
3,59,0,0
3,52,0,0
3,52,64,0
3,59,64,0
3,64,64,0
3,64,0,30
3,59,0,0
3,52,0,0
3,52,90,540
3,59,90,0
3,64,90,0
3,64,0,10
3,59,0,0
3,52,0,0
3,64,90,20
3,59,90,0
3,52,90,0
3,52,0,10
3,59,0,0
3,64,0,0
3,52,90,20
3,59,90,0
3,64,90,0
3,64,0,60
3,59,0,0
3,52,0,0
3,52,90,0
3,59,90,0
3,64,90,0
3,64,0,10
3,59,0,0
3,52,0,0
3,52,90,20
3,59,90,0
3,64,90,0
3,64,0,10
3,59,0,0
3,52,0,0
3,50,90,5
3,57,90,0
3,62,90,0
3,62,0,10
3,57,0,0
3,50,0,0
3,52,90,956
3,59,90,0
3,64,90,0
3,64,0,120
3,59,0,0
3,52,0,0
3,52,90,540
3,59,90,0
3,64,90,0
3,64,0,10
3,59,0,0
3,52,0,0
3,64,90,20
3,59,90,0
3,52,90,0
3,52,0,10
3,59,0,0
3,64,0,0
3,52,90,20
3,59,90,0
3,64,90,0
3,64,0,60
3,59,0,0
3,52,0,0
3,52,90,0
3,59,90,0
3,64,90,0
3,64,0,10
3,59,0,0
3,52,0,0
3,52,90,20
3,59,90,0
3,64,90,0
3,64,0,10
3,59,0,0
3,52,0,0
3,50,90,5
3,57,90,0
3,62,90,0
3,62,0,10
3,57,0,0
3,50,0,0
3,45,72,956
3,52,72,0
3,57,72,0
3,57,0,720
3,52,0,0
3,45,0,0
3,40,81,240
3,40,0,60
3,55,81,0
3,55,0,30
3,52,81,0
3,52,0,30
3,52,81,60
3,52,0,60
3,52,81,0
3,52,0,120
3,52,81,0
3,52,0,120
3,52,81,0
3,52,0,15
3,55,81,45
3,55,0,30
3,52,81,0
3,52,0,30
3,52,81,60
3,52,0,60
3,50,81,0
3,50,0,30
3,47,81,0
3,47,0,30
3,44,81,0
3,44,0,60
3,45,81,0
3,45,0,60
3,46,81,0
3,46,0,60
3,47,81,0
3,59,81,0
3,54,81,0
3,54,0,960
3,59,0,0
3,47,0,0
3,45,72,0
3,52,72,0
3,55,72,0
3,61,72,0
3,61,0,240
3,45,0,0
3,52,0,0
3,55,0,0
3,45,72,0
3,54,72,0
3,55,72,0
3,62,72,0
3,62,0,240
3,45,0,0
3,54,0,0
3,55,0,0
3,45,90,0
3,55,90,0
3,64,90,0
3,64,0,420
3,55,0,0
3,45,0,0
3,52,99,0
3,57,99,0
3,57,0,30
3,52,0,0
3,52,99,0
3,57,99,0
3,57,0,30
3,52,0,0
3,50,100,1
3,50,0,28
3,52,100,0
3,52,0,30
3,57,100,0
3,57,0,30
3,52,100,0
3,52,0,30
3,55,100,0
3,55,0,51
3,52,100,2
3,52,0,30
3,50,100,0
3,50,0,26
3,47,100,4
3,47,0,41
3,43,100,2
3,43,0,51
3,40,100,3
3,40,0,120
3,50,100,0
3,50,0,30
3,52,100,0
3,52,0,30
3,57,100,0
3,57,0,30
3,52,100,0
3,52,0,30
3,55,100,0
3,55,0,48
3,52,100,3
3,52,0,30
3,50,100,0
3,50,0,30
3,47,100,0
3,47,0,53
3,43,100,3
3,43,0,2
3,50,100,1
3,50,0,28
3,52,100,0
3,52,0,30
3,57,100,0
3,57,0,30
3,52,100,0
3,52,0,30
3,55,100,0
3,55,0,51
3,52,100,2
3,52,0,30
3,50,100,0
3,50,0,26
3,47,100,4
3,47,0,41
3,43,100,2
3,43,0,51
3,40,100,3
3,40,0,60
3,50,100,0
3,50,0,30
3,52,100,0
3,52,0,30
3,57,100,0
3,57,0,30
3,52,100,0
3,52,0,27
3,55,100,3
3,55,0,56
3,52,100,2
3,52,0,27
3,50,100,3
3,50,0,27
3,47,100,3
3,47,0,27
3,45,100,3
3,45,0,27
3,43,100,3
3,43,0,62
3,50,100,1
3,50,0,28
3,52,100,0
3,52,0,30
3,57,100,0
3,57,0,30
3,52,100,0
3,52,0,30
3,55,100,0
3,55,0,51
3,52,100,2
3,52,0,30
3,50,100,0
3,50,0,26
3,47,100,4
3,47,0,41
3,43,100,2
3,43,0,51
3,40,100,3
3,40,0,120
3,50,100,0
3,50,0,30
3,52,100,0
3,52,0,30
3,57,100,0
3,57,0,30
3,52,100,0
3,52,0,30
3,55,100,0
3,55,0,48
3,52,100,3
3,52,0,30
3,50,100,0
3,50,0,30
3,47,100,0
3,47,0,53
3,43,100,3
3,43,0,2
3,50,100,1
3,50,0,28
3,52,100,0
3,52,0,30
3,57,100,0
3,57,0,30
3,52,100,0
3,52,0,30
3,55,100,0
3,55,0,51
3,52,100,2
3,52,0,30
3,50,100,0
3,50,0,26
3,47,100,4
3,47,0,41
3,43,100,2
3,43,0,51
3,40,100,3
3,40,0,60
3,50,100,0
3,50,0,30
3,52,100,0
3,52,0,30
3,57,100,0
3,57,0,30
3,52,100,0
3,52,0,27
3,55,100,3
3,55,0,56
3,52,100,2
3,52,0,27
3,50,100,3
3,50,0,27
3,47,100,3
3,47,0,27
3,45,100,3
3,45,0,27
3,43,100,3
3,43,0,60
3,45,100,0
3,45,0,60
3,46,100,0
3,46,0,60
3,47,100,0
3,47,0,60
3,47,81,0
3,54,81,0
3,54,0,60
3,47,0,0
3,47,81,0
3,54,81,0
3,54,0,60
3,47,0,0
3,47,81,0
3,54,81,0
3,54,0,360
3,47,0,0
3,59,81,0
3,54,81,0
3,47,81,0
3,47,0,360
3,54,0,0
3,59,0,0
3,47,81,0
3,54,81,0
3,59,81,0
3,59,0,120
3,54,0,0
3,47,0,0
3,50,81,0
3,57,81,0
3,62,81,0
3,62,0,540
3,57,0,0
3,50,0,0
3,62,81,0
3,57,81,0
3,50,81,0
3,50,0,60
3,57,0,0
3,62,0,0
3,50,81,0
3,57,81,0
3,62,81,0
3,62,0,120
3,57,0,0
3,50,0,0
3,62,81,0
3,57,81,0
3,50,81,0
3,50,0,120
3,57,0,0
3,62,0,0
3,62,81,0
3,57,81,0
3,50,81,0
3,50,0,120
3,57,0,0
3,62,0,0
3,47,81,0
3,54,81,0
3,59,81,0
3,59,0,30
3,54,0,0
3,47,0,0
3,47,81,90
3,54,81,0
3,59,81,0
3,59,0,30
3,54,0,0
3,47,0,0
3,47,81,390
3,54,81,0
3,59,81,0
3,59,0,30
3,54,0,0
3,47,0,0
3,47,81,0
3,54,81,0
3,59,81,0
3,59,0,30
3,54,0,0
3,47,0,0
3,47,81,0
3,54,81,0
3,59,81,0
3,59,0,30
3,54,0,0
3,47,0,0
3,47,81,0
3,54,81,0
3,59,81,0
3,59,0,30
3,54,0,0
3,47,0,0
3,47,81,60
3,54,81,0
3,59,81,0
3,59,0,60
3,54,0,0
3,47,0,0
3,59,81,60
3,54,81,0
3,47,81,0
3,47,0,60
3,54,0,0
3,59,0,0
3,45,81,60
3,52,81,0
3,57,81,0
3,61,81,0
3,61,0,480
3,45,0,0
3,52,0,0
3,57,0,0
3,52,100,0
3,52,0,60
3,44,100,0
3,44,0,60
3,45,100,0
3,45,0,60
3,46,100,0
3,46,0,60
3,47,100,0
3,47,0,60
3,49,100,0
3,49,0,60
3,50,100,0
3,50,0,60
3,51,100,0
3,51,0,60
3,52,72,3840
3,59,72,0
3,64,72,0
3,64,0,120
3,59,0,0
3,52,0,0
3,52,72,540
3,59,72,0
3,64,72,0
3,64,0,10
3,59,0,0
3,52,0,0
3,64,72,20
3,59,72,0
3,52,72,0
3,52,0,10
3,59,0,0
3,64,0,0
3,52,72,20
3,59,72,0
3,64,72,0
3,64,0,60
3,59,0,0
3,52,0,0
3,52,72,0
3,59,72,0
3,64,72,0
3,64,0,10
3,59,0,0
3,52,0,0
3,52,72,20
3,59,72,0
