track,note,velocity,time
0,67,91,1276
0,62,96,30
0,67,61,34
0,67,121,0
0,59,100,0
0,43,114,0
0,35,124,0
0,42,64,0
0,59,48,132
0,62,45,0
0,67,47,0
0,42,68,0
0,59,87,0
0,62,85,0
0,67,88,0
0,37,124,0
0,42,68,0
0,43,111,0
0,59,47,0
0,62,44,0
0,67,47,0
0,35,124,0
0,42,66,0
0,38,111,0
0,59,59,0
0,62,59,0
0,67,59,0
0,35,125,0
0,42,66,0
0,59,45,32
0,62,48,0
0,67,47,0
0,42,68,0
0,59,86,48
0,62,87,0
0,67,86,0
0,37,122,0
0,42,68,0
0,38,112,0
0,59,48,0
0,62,45,0
0,67,48,0
0,42,65,0
0,66,57,0
0,66,117,0
0,43,113,0
0,59,66,0
0,62,65,0
0,66,67,0
0,35,123,0
0,42,66,0
0,59,44,0
0,62,44,0
0,66,45,0
0,42,66,0
0,59,89,48
0,62,87,0
0,66,89,0
0,37,122,0
0,42,68,0
0,43,114,0
0,59,47,0
0,62,46,0
0,66,45,0
0,35,123,0
0,42,66,0
0,66,59,0
0,66,119,0
0,43,111,0
0,59,56,0
0,62,58,0
0,66,57,0
0,35,122,0
0,42,66,0
0,59,46,0
0,62,46,0
0,66,47,0
0,42,65,0
0,66,57,0
0,66,117,0
0,59,87,0
0,62,86,0
0,66,86,0
0,50,111,0
0,37,125,0
0,42,64,0
0,43,112,0
0,59,44,0
0,62,48,0
0,66,48,0
0,42,65,0
0,64,57,0
0,64,117,0
0,48,110,0
0,60,66,0
0,64,68,0
0,67,66,0
0,35,124,0
0,42,66,0
0,60,47,32
0,64,48,0
0,42,65,0
0,60,86,48
0,64,89,0
0,67,86,0
0,37,124,0
0,42,66,0
0,48,113,0
0,60,46,0
0,64,48,0
0,67,45,0
0,35,122,0
0,42,66,0
0,43,112,0
0,60,57,0
0,64,58,0
0,67,59,0
0,35,124,0
0,42,66,0
0,60,44,32
0,64,47,0
0,67,44,0
0,42,67,0
0,60,87,48
0,64,88,0
0,67,88,0
0,37,125,0
0,42,64,0
0,43,111,0
0,60,44,0
0,64,48,0
0,67,46,0
0,42,67,0
0,59,57,0
0,59,117,0
0,48,112,0
0,60,64,0
0,64,67,0
0,67,68,0
0,35,121,0
0,42,66,0
0,60,45,0
0,64,48,0
0,67,47,0
0,42,65,0
0,55,58,0
0,55,118,0
0,60,85,0
0,64,87,0
0,67,87,0
0,37,124,0
0,42,64,0
0,48,110,0
0,60,48,0
0,64,44,0
0,67,46,0
0,35,122,0
0,42,65,0
0,57,60,0
0,57,120,0
0,43,114,0
0,60,55,0
0,64,56,0
0,67,57,0
0,35,122,0
0,42,65,0
0,43,110,0
0,60,45,0
0,64,47,0
0,67,46,0
0,42,68,0
0,59,59,0
0,59,119,0
0,60,85,0
0,64,85,0
0,67,89,0
0,48,114,0
0,37,125,0
0,42,66,0
0,60,47,0
0,64,47,0
0,67,45,0
0,42,67,0
0,45,111,0
0,60,65,0
0,64,64,0
0,69,65,0
0,35,123,0
0,42,66,0
0,60,48,32
0,64,45,0
0,69,48,0
0,42,67,0
0,60,85,48
0,64,88,0
0,69,87,0
0,37,125,0
0,42,66,0
0,45,114,0
0,60,46,0
0,64,44,0
0,69,47,0
0,35,125,0
0,42,65,0
0,55,59,0
0,55,119,0
0,40,114,0
0,60,55,0
0,64,59,0
0,69,56,0
0,35,121,0
0,42,66,0
0,60,47,32
0,64,44,0
0,69,46,0
0,42,66,0
0,59,57,0
0,59,117,0
0,60,89,0
0,64,88,0
0,69,88,0
0,37,122,0
0,42,64,0
0,60,45,0
0,64,45,0
0,69,47,0
0,42,67,0
0,59,59,0
0,59,119,0
0,38,110,0
0,62,68,0
0,66,68,0
0,69,65,0
0,35,125,0
0,42,64,0
0,62,47,32
0,66,45,0
0,69,44,0
0,42,64,0
0,57,58,16
0,57,118,0
0,62,86,0
0,66,85,0
0,69,86,0
0,37,121,0
0,42,64,0
0,38,113,0
0,62,46,0
0,66,45,0
0,69,44,0
0,35,122,0
0,42,65,0
0,55,61,0
0,55,121,0
0,45,110,0
0,62,56,0
0,66,55,0
0,69,56,0
0,35,123,0
0,42,67,0
0,62,48,16
0,66,46,0
0,69,46,0
0,42,67,0
0,55,61,0
0,55,121,0
0,62,86,0
0,66,89,0
0,69,88,0
0,37,121,0
0,42,65,0
0,62,48,0
0,66,44,0
0,69,47,0
0,42,67,0
0,43,112,48
0,59,64,0
0,62,66,0
0,67,67,0
0,35,124,0
0,42,68,0
0,59,47,32
0,62,48,0
0,67,48,0
0,42,65,0
0,62,61,16
0,62,121,0
0,66,57,0
0,66,117,0
0,59,87,0
0,62,89,0
0,67,86,0
0,37,123,0
0,42,66,0
0,43,112,0
0,59,48,0
0,62,44,0
0,67,47,0
0,35,123,0
0,42,66,0
0,38,112,0
0,59,59,0
0,62,58,0
0,67,59,0
0,35,121,0
0,42,67,0
0,59,45,32
0,62,44,0
0,67,47,0
0,42,67,0
0,60,60,12
0,60,120,0
0,64,57,0
0,64,117,0
0,59,89,0
0,62,87,0
0,67,85,0
0,37,121,0
0,42,68,0
0,38,114,0
0,59,47,0
0,62,46,0
0,67,47,0
0,42,66,0
0,43,113,0
0,59,67,0
0,62,67,0
0,67,66,0
0,35,123,0
0,42,65,0
0,59,47,32
0,62,44,0
0,67,46,0
0,42,65,0
0,59,60,12
0,59,120,0
0,62,57,0
0,62,117,0
0,59,85,0
0,62,87,0
0,67,88,0
0,37,122,0
0,42,65,0
0,43,113,0
0,59,46,0
0,62,48,0
0,67,48,0
0,35,125,0
0,42,66,0
0,59,58,0
0,59,118,0
0,62,61,0
0,62,121,0
0,38,112,0
0,59,59,0
0,62,59,0
0,67,56,0
0,35,122,0
0,42,65,0
0,59,46,32
0,62,48,0
0,67,44,0
0,42,64,0
0,57,61,12
0,57,121,0
0,60,60,0
0,60,120,0
0,59,89,0
0,62,89,0
0,67,89,0
0,37,125,0
0,42,66,0
0,38,112,0
0,59,44,0
0,62,45,0
0,67,46,0
0,42,66,0
0,71,115,0
0,59,58,0
0,59,118,0
0,62,58,0
0,62,118,0
0,43,112,0
0,59,66,0
0,62,64,0
0,67,68,0
0,35,122,0
0,42,67,0
0,71,112,32
0,59,48,0
0,62,45,0
0,67,47,0
0,42,64,0
0,59,87,0
0,62,85,0
0,67,88,0
0,37,122,0
0,42,67,0
0,71,115,112
0,43,114,0
0,59,47,0
0,62,44,0
0,67,47,0
0,35,125,0
0,42,64,0
0,43,111,0
0,59,59,0
0,62,59,0
0,67,59,0
0,35,123,0
0,42,64,0
0,59,45,32
0,62,48,0
0,67,47,0
0,42,64,0
0,71,112,48
0,59,86,0
0,62,87,0
0,67,86,0
0,37,124,0
0,42,64,0
0,59,48,188
0,62,45,0
0,67,48,0
0,42,68,0
0,71,114,0
0,43,114,0
0,59,66,0
0,62,65,0
0,66,67,0
0,35,122,0
0,42,64,0
0,71,113,32
0,59,44,0
0,62,44,0
0,66,45,0
0,42,66,0
0,59,89,0
0,62,87,0
0,66,89,0
0,37,125,0
0,42,65,0
0,71,113,112
0,43,114,0
0,59,47,0
0,62,46,0
0,66,45,0
0,35,124,0
0,42,67,0
0,43,112,0
0,59,56,0
0,62,58,0
0,66,57,0
0,35,121,0
0,42,68,0
0,59,46,32
0,62,46,0
0,66,47,0
0,42,67,0
0,69,112,16
0,59,87,0
0,62,86,0
0,66,86,0
0,37,122,0
0,42,66,0
0,69,114,0
0,59,44,0
0,62,48,0
0,66,48,0
0,42,66,0
0,36,112,0
0,60,66,0
0,64,68,0
0,67,66,0
0,35,123,0
0,42,66,0
0,67,113,16
0,60,47,0
0,64,48,0
0,42,66,0
0,60,86,48
0,64,89,0
0,67,86,0
0,37,122,0
0,42,66,0
0,36,111,0
0,60,46,0
0,64,48,0
0,67,45,0
0,35,123,0
0,42,68,0
0,43,113,0
0,60,57,0
0,64,58,0
0,67,59,0
0,35,122,0
0,42,68,0
0,60,44,32
0,64,47,0
0,67,44,0
0,42,66,0
0,60,87,48
0,64,88,0
0,67,88,0
0,37,125,0
0,42,64,0
0,60,44,188
0,64,48,0
0,67,46,0
0,42,68,0
0,36,113,0
0,60,64,0
0,64,67,0
0,67,68,0
0,35,125,0
0,42,64,0
0,60,45,32
0,64,48,0
0,67,47,0
0,42,68,0
0,60,85,0
0,64,87,0
0,67,87,0
0,37,121,0
0,42,68,0
0,36,114,188
0,60,48,0
0,64,44,0
0,67,46,0
0,35,124,0
0,42,67,0
0,43,112,0
0,60,55,0
0,64,56,0
0,67,57,0
0,35,124,0
0,42,67,0
0,60,45,32
0,64,47,0
0,67,46,0
0,42,66,0
0,60,85,0
0,64,85,0
0,67,89,0
0,36,114,0
0,37,123,0
0,42,65,0
0,60,47,188
0,64,47,0
0,67,45,0
0,42,66,0
0,69,115,0
0,33,110,0
0,60,65,0
0,64,64,0
0,69,65,0
0,35,124,0
0,42,67,0
0,60,48,32
0,64,45,0
0,69,48,0
0,42,65,0
0,69,113,48
0,60,85,0
0,64,88,0
0,69,87,0
0,37,123,0
0,42,66,0
0,69,116,0
0,33,112,0
0,60,46,0
0,64,44,0
0,69,47,0
0,35,123,0
0,42,68,0
0,40,112,0
0,60,55,0
0,64,59,0
0,69,56,0
0,35,123,0
0,42,64,0
0,60,47,32
0,64,44,0
0,69,46,0
0,42,67,0
0,71,114,16
0,60,89,0
0,64,88,0
0,69,88,0
0,37,125,0
0,42,68,0
0,69,112,16
0,60,45,0
0,64,45,0
0,69,47,0
0,42,65,0
0,33,114,0
0,60,65,0
0,64,64,0
0,69,65,0
0,35,125,0
0,42,65,0
0,60,48,32
0,64,45,0
0,69,48,0
0,42,68,0
0,67,112,0
0,60,85,0
0,64,88,0
0,69,87,0
0,37,124,0
0,42,67,0
0,33,111,188
0,60,46,0
0,64,44,0
0,69,47,0
0,35,122,0
0,42,67,0
0,66,113,0
0,40,112,0
0,60,55,0
0,64,59,0
0,69,56,0
0,35,125,0
0,42,68,0
0,67,116,16
0,60,47,0
0,64,44,0
0,69,46,0
0,42,68,0
0,60,89,48
0,64,88,0
0,69,88,0
0,37,122,0
0,42,66,0
0,69,112,0
0,40,114,0
0,60,45,0
0,64,45,0
0,69,47,0
0,42,66,0
0,38,113,0
0,62,68,0
0,66,68,0
0,69,65,0
0,35,124,0
0,42,67,0
0,62,47,32
0,66,45,0
0,69,44,0
0,42,65,0
0,62,86,0
0,66,85,0
0,69,86,0
0,37,124,0
0,42,68,0
0,38,112,188
0,62,46,0
0,66,45,0
0,69,44,0
0,35,121,0
0,42,66,0
0,45,112,0
0,62,56,0
0,66,55,0
0,69,56,0
0,35,122,0
0,42,66,0
0,62,48,32
0,66,46,0
0,69,46,0
0,42,64,0
0,62,86,48
0,66,89,0
0,69,88,0
0,37,124,0
0,42,65,0
0,45,113,0
0,62,48,0
0,66,44,0
0,69,47,0
0,42,67,0
0,38,110,0
0,62,68,0
0,66,68,0
0,69,65,0
0,35,124,0
0,42,64,0
0,62,47,32
0,66,45,0
0,69,44,0
0,42,67,0
0,62,86,0
0,66,85,0
0,69,86,0
0,37,123,0
0,42,65,0
0,38,110,188
0,62,46,0
0,66,45,0
0,69,44,0
0,35,124,0
0,42,66,0
0,40,114,0
0,62,56,0
0,66,55,0
0,69,56,0
0,35,121,0
0,42,67,0
0,62,48,32
0,66,46,0
0,69,46,0
0,42,66,0
0,62,86,0
0,66,89,0
0,69,88,0
0,42,110,0
0,37,123,0
0,42,67,0
0,67,115,188
0,62,48,0
0,66,44,0
0,69,47,0
0,42,68,0
0,71,116,0
0,43,113,0
0,59,66,0
0,62,64,0
0,67,68,0
0,35,123,0
0,42,67,0
0,71,112,16
0,59,48,0
0,62,45,0
0,67,47,0
0,42,65,0
0,59,87,48
0,62,85,0
0,67,88,0
0,37,121,0
0,42,66,0
0,71,114,0
0,43,114,0
0,59,47,0
0,62,44,0
0,67,47,0
0,35,124,0
0,42,68,0
0,43,110,0
0,59,59,0
0,62,59,0
0,67,59,0
0,35,124,0
0,42,65,0
0,59,45,32
0,62,48,0
0,67,47,0
0,42,64,0
0,59,86,48
0,62,87,0
0,67,86,0
0,37,122,0
0,42,67,0
0,43,111,0
0,59,48,0
0,62,45,0
0,67,48,0
0,42,66,0
0,71,116,0
0,43,110,0
0,59,66,0
0,62,65,0
0,66,67,0
0,35,125,0
0,42,68,0
0,71,114,32
0,59,44,0
0,62,44,0
0,66,45,0
0,42,67,0
0,59,89,48
0,62,87,0
0,66,89,0
0,37,124,0
0,42,67,0
0,71,114,0
0,43,113,0
0,59,47,0
0,62,46,0
0,66,45,0
0,35,121,0
0,42,67,0
0,43,110,0
0,59,56,0
0,62,58,0
0,66,57,0
0,35,122,0
0,42,64,0
0,59,46,32
0,62,46,0
0,66,47,0
0,42,66,0
0,69,113,16
0,59,87,0
0,62,86,0
0,66,86,0
0,37,121,0
0,42,68,0
0,69,116,0
0,43,114,0
0,59,44,0
0,62,48,0
0,66,48,0
0,42,64,0
0,36,114,0
0,60,66,0
0,64,68,0
0,67,66,0
0,35,121,0
0,42,64,0
0,67,112,16
0,60,47,0
0,64,48,0
0,42,68,0
0,60,86,48
0,64,89,0
0,67,86,0
0,37,122,0
0,42,68,0
0,36,113,0
0,60,46,0
0,64,48,0
0,67,45,0
0,35,124,0
0,42,64,0
0,43,114,0
0,60,57,0
0,64,58,0
0,67,59,0
0,35,125,0
0,42,64,0
0,43,110,0
0,60,44,0
0,64,47,0
0,67,44,0
0,42,67,0
0,60,87,48
0,64,88,0
0,67,88,0
0,37,123,0
0,42,66,0
0,43,110,0
0,60,44,0
0,64,48,0
0,67,46,0
0,42,67,0
0,36,113,0
0,60,64,0
0,64,67,0
0,67,68,0
0,35,122,0
0,42,68,0
0,60,45,32
0,64,48,0
0,67,47,0
0,42,67,0
0,60,85,0
0,64,87,0
0,67,87,0
0,37,124,0
0,42,65,0
0,36,111,188
0,60,48,0
0,64,44,0
0,67,46,0
0,35,123,0
0,42,64,0
0,60,56,0
0,43,114,0
0,60,55,0
0,64,56,0
0,67,57,0
0,35,123,0
0,42,64,0
0,60,45,32
0,64,47,0
0,67,46,0
0,42,67,0
0,60,85,0
0,64,85,0
0,67,89,0
0,36,112,0
0,37,122,0
0,42,68,0
0,64,116,188
0,60,47,0
0,64,47,0
0,67,45,0
0,42,67,0
0,69,112,0
0,33,113,0
0,60,65,0
0,64,64,0
0,69,65,0
0,35,123,0
0,42,65,0
0,69,115,16
0,60,48,0
0,64,45,0
0,69,48,0
0,42,68,0
0,60,85,48
0,64,88,0
0,69,87,0
0,37,125,0
0,42,66,0
0,69,116,0
0,33,111,0
0,60,46,0
0,64,44,0
0,69,47,0
0,35,125,0
0,42,65,0
0,40,110,0
0,60,55,0
0,64,59,0
0,69,56,0
0,35,122,0
0,42,67,0
0,60,47,32
0,64,44,0
0,69,46,0
0,42,65,0
0,71,114,0
0,60,89,0
0,64,88,0
0,69,88,0
0,37,121,0
0,42,66,0
0,69,115,0
0,40,112,0
0,60,45,0
0,64,45,0
0,69,47,0
0,42,66,0
0,33,112,0
0,60,64,0
0,64,67,0
0,67,68,0
0,35,122,0
0,42,64,0
0,60,45,32
0,64,48,0
0,67,47,0
0,42,64,0
0,60,85,48
0,64,87,0
0,67,87,0
0,37,124,0
0,42,68,0
0,64,115,0
0,33,114,0
0,60,48,0
0,64,44,0
0,67,46,0
0,35,125,0
0,42,67,0
0,67,115,0
0,40,110,0
0,60,55,0
0,64,56,0
0,67,57,0
0,35,124,0
0,42,64,0
0,69,114,16
0,60,45,0
0,64,47,0
0,67,46,0
0,42,67,0
0,60,85,0
0,64,85,0
0,67,89,0
0,38,114,0
0,37,122,0
0,42,67,0
0,69,115,0
0,60,47,0
0,64,47,0
0,67,45,0
0,42,66,0
0,43,110,0
0,59,66,0
0,62,64,0
0,67,68,0
0,35,125,0
0,42,64,0
0,67,113,16
0,59,48,0
0,62,45,0
0,67,47,0
