track,note,velocity,time
3,62,79,40200
3,71,79,0
3,62,0,157
3,71,0,83
3,72,79,0
3,64,79,0
3,64,0,157
3,72,0,83
3,62,79,0
3,69,79,0
3,62,0,80
3,64,79,40
3,64,0,80
3,69,0,40
3,62,79,0
3,71,79,0
3,71,0,157
3,62,0,0
3,62,79,83
3,71,79,0
3,62,0,157
3,71,0,83
3,72,79,0
3,64,79,0
3,64,0,157
3,72,0,83
3,62,79,0
3,69,79,0
3,62,0,80
3,64,79,40
3,64,0,80
3,69,0,40
3,62,79,0
3,71,79,0
3,71,0,157
3,62,0,0
3,62,79,83
3,71,79,0
3,62,0,157
3,71,0,83
3,72,79,0
3,64,79,0
3,64,0,157
3,72,0,83
3,62,79,0
3,69,79,0
3,62,0,80
3,64,79,70
3,64,0,80
3,69,0,10
3,62,79,0
3,71,79,0
3,71,0,157
3,62,0,0
3,62,79,83
3,71,79,0
3,62,0,157
3,71,0,83
3,72,79,0
3,64,79,0
3,64,0,157
3,72,0,83
3,66,79,0
3,62,79,0
3,69,79,0
3,62,0,80
3,66,0,0
3,69,0,40
3,67,79,0
3,64,79,0
3,71,79,0
3,64,0,40
3,67,0,0
3,71,0,20
3,72,79,0
3,69,79,0
3,66,79,0
3,66,0,40
3,69,0,0
3,72,0,20
3,71,79,0
3,67,79,0
3,74,79,0
3,74,0,317
3,67,0,0
3,71,0,0
4,71,79,900
4,71,0,20
4,71,79,10
4,71,0,70
4,75,79,20
4,75,0,40
4,76,79,20
4,76,0,60
4,68,79,0
4,68,0,20
4,69,79,10
4,69,0,70
4,71,79,110
4,71,0,20
4,71,79,10
4,71,0,20
4,71,79,10
4,71,0,70
4,69,79,20
4,69,0,30
4,71,79,0
4,71,0,20
4,71,79,10
4,71,0,90
4,68,79,0
4,68,0,20
4,68,79,10
4,68,0,80
4,68,79,100
4,68,0,20
4,68,79,10
4,68,0,20
4,68,79,10
4,68,0,40
4,71,79,20
4,71,0,40
4,71,79,20
4,71,0,30
4,69,79,0
4,69,0,20
4,69,79,10
4,69,0,40
4,69,79,20
4,69,0,30
4,71,79,0
4,71,0,60
4,71,79,90
4,71,0,20
4,73,79,10
4,73,0,20
4,71,79,10
4,71,0,40
4,69,79,20
4,69,0,20
4,68,79,10
4,68,0,45
4,66,79,0
4,66,0,15
4,64,79,0
4,64,0,20
4,70,79,250
4,70,0,20
4,71,79,10
4,71,0,70
4,75,79,20
4,75,0,40
4,76,79,20
4,76,0,40
4,68,79,20
4,68,0,20
4,69,79,10
4,69,0,70
4,71,79,140
4,71,0,20
4,71,79,10
4,71,0,20
4,71,79,10
4,71,0,20
4,69,79,10
4,69,0,30
4,68,79,0
4,68,0,20
4,68,79,10
4,68,0,70
4,68,79,260
4,68,0,20
4,68,79,10
4,68,0,70
4,71,79,20
4,71,0,40
4,71,79,20
4,71,0,30
4,69,79,0
4,69,0,20
4,69,79,10
4,69,0,20
4,69,79,10
4,69,0,60
4,68,79,0
4,68,0,30
4,66,79,0
4,66,0,40
4,66,79,80
4,66,0,20
4,66,79,10
4,66,0,60
4,64,79,0
4,64,0,20
4,64,79,10
4,64,0,20
4,64,79,10
4,64,0,187
4,71,79,30
4,71,0,20
4,71,79,10
4,71,0,40
4,75,79,20
4,75,0,20
4,76,79,10
4,76,0,70
4,76,79,20
4,76,0,20
4,73,79,10
4,73,0,15
4,71,79,0
4,71,0,15
4,69,79,0
4,69,0,40
4,73,79,140
4,73,0,20
4,71,79,10
4,71,0,70
4,70,79,20
4,70,0,30
4,71,79,0
4,71,0,20
4,71,79,10
4,71,0,90
4,68,79,0
4,68,0,20
4,68,79,10
4,68,0,40
4,68,79,110
4,68,0,20
4,68,79,10
4,68,0,20
4,66,79,10
4,66,0,20
4,68,79,10
4,68,0,40
4,71,79,20
4,71,0,20
4,71,79,10
4,71,0,30
4,69,79,0
4,69,0,20
4,69,79,10
4,69,0,40
4,69,79,20
4,69,0,30
4,71,79,0
4,71,0,40
4,73,79,140
4,73,0,40
4,71,79,20
4,71,0,40
4,71,79,20
4,71,0,80
4,71,79,10
4,71,0,20
4,68,79,10
4,66,79,15
4,68,0,15
4,64,79,0
4,66,0,15
4,64,0,55
4,70,79,140
4,70,0,40
4,71,79,20
4,71,0,40
4,75,79,20
4,75,0,40
4,76,79,20
4,76,0,30
4,68,79,0
4,68,0,20
4,68,79,10
4,68,0,20
4,69,79,10
4,69,0,70
4,71,79,140
4,71,0,20
4,71,79,10
4,71,0,20
4,71,79,10
4,71,0,40
4,69,79,20
4,69,0,20
4,71,79,10
4,71,0,70
4,68,79,260
4,68,0,20
4,68,79,10
4,68,0,70
4,71,79,20
4,71,0,20
4,71,79,10
4,71,0,30
4,69,79,0
4,69,0,40
4,69,79,20
4,69,0,20
4,69,79,10
4,69,0,15
4,68,79,0
4,68,0,15
4,66,79,0
4,66,0,40
4,63,79,140
4,63,0,20
4,68,79,10
4,68,0,20
4,66,79,10
4,66,0,30
4,64,79,0
4,64,0,20
4,64,79,10
4,64,0,20
4,64,79,10
4,64,0,110
4,71,79,30
4,71,0,40
4,71,79,20
4,71,0,40
4,75,79,20
4,75,0,20
4,76,79,10
4,76,0,50
4,76,79,10
4,76,0,40
4,73,79,20
4,73,0,15
4,71,79,0
4,71,0,15
4,69,79,0
4,69,0,80
4,73,79,100
4,73,0,40
4,71,79,20
4,71,0,20
4,71,79,10
4,71,0,20
4,71,79,10
4,71,0,80
4,68,79,10
4,68,0,15
4,66,79,0
4,66,0,15
4,64,79,0
4,64,0,40
4,71,79,200
4,71,0,40
4,71,79,20
4,71,0,40
4,75,79,20
4,75,0,20
4,76,79,10
4,76,0,70
4,68,79,20
4,68,0,20
4,69,79,10
4,69,0,70
4,73,79,140
4,73,0,20
4,71,79,10
4,71,0,20
4,71,79,10
4,71,0,40
4,69,79,20
4,69,0,30
4,71,79,0
4,71,0,20
4,67,79,10
4,67,0,30
4,68,79,0
4,68,0,60
4,70,79,210
4,70,0,40
4,71,79,20
4,71,0,40
4,75,79,20
4,75,0,40
4,76,79,20
4,76,0,40
4,68,79,20
4,68,0,20
4,69,79,10
4,69,0,110
4,73,79,100
4,73,0,20
4,71,79,10
4,71,0,70
4,69,79,20
4,69,0,30
4,71,79,0
4,71,0,20
4,71,79,10
4,71,0,80
4,70,79,190
4,70,0,20
4,71,79,10
4,71,0,20
4,70,79,10
4,70,0,20
4,71,79,10
4,71,0,40
4,75,79,20
4,75,0,20
4,76,79,10
4,76,0,70
4,68,79,20
4,68,0,20
4,69,79,10
4,69,0,70
4,71,79,140
4,71,0,20
4,71,79,10
4,71,0,20
4,71,79,10
4,71,0,40
4,69,79,20
4,69,0,30
4,71,95,0
4,71,0,20
4,71,95,10
4,71,0,317
4,71,79,30
4,71,0,20
4,70,79,10
4,70,0,20
4,71,79,10
4,71,0,20
4,75,79,10
4,75,0,30
4,76,79,0
4,76,0,20
4,76,79,10
4,76,0,50
4,76,79,10
4,76,0,40
4,73,79,20
4,73,0,15
4,71,79,0
4,71,0,15
4,69,79,0
4,69,0,40
4,71,79,140
4,71,0,20
4,71,79,10
4,71,0,70
4,69,79,20
4,69,0,20
4,71,79,10
4,71,0,70
4,68,79,20
4,68,0,100
4,68,79,140
4,68,0,20
4,68,79,10
4,68,0,20
4,68,79,10
4,68,0,40
4,68,79,20
4,68,0,30
4,71,79,0
4,71,0,20
4,71,79,10
4,71,0,30
4,69,79,0
4,69,0,20
4,69,79,10
4,69,0,20
4,69,79,10
4,69,0,30
4,71,79,0
4,71,0,40
4,71,79,140
4,71,0,20
4,71,79,10
4,71,0,20
4,71,79,10
4,71,0,30
4,69,79,0
4,69,0,20
4,69,79,10
4,69,0,20
4,68,79,10
4,68,0,70
4,71,79,260
4,71,0,20
4,71,79,10
4,71,0,20
4,71,79,10
4,71,0,20
4,75,79,10
4,75,0,30
4,76,79,0
4,76,0,20
4,76,79,40
4,76,0,20
4,76,79,10
4,76,0,40
4,73,79,20
4,73,0,15
4,71,79,0
4,71,0,15
4,69,79,0
4,69,0,40
4,73,79,140
4,73,0,40
4,71,79,20
4,71,0,20
4,71,79,10
4,71,0,20
4,71,79,10
4,71,0,80
4,68,79,10
4,68,0,15
4,66,79,0
4,66,0,15
4,64,79,0
4,64,0,40
4,68,79,200
4,68,0,20
4,68,79,10
4,68,0,70
4,71,79,20
4,71,0,40
4,71,79,20
4,71,0,20
4,69,79,10
4,69,0,40
4,69,79,20
4,69,0,15
4,68,79,0
4,68,0,15
4,66,79,0
4,66,0,40
4,66,79,110
4,66,0,20
4,66,79,10
4,66,0,20
4,68,79,10
4,68,0,20
4,66,79,10
4,66,0,30
4,64,79,0
4,64,0,20
4,63,79,10
4,63,0,20
4,64,79,10
4,64,0,110
4,71,79,430
4,71,0,20
4,71,79,10
4,71,0,20
4,71,79,10
4,71,0,50
4,71,79,10
4,71,0,40
4,75,79,20
4,75,0,15
4,76,79,0
4,76,0,10
4,76,79,5
4,76,0,40
4,76,79,50
4,76,0,20
4,73,79,10
4,73,0,15
4,71,79,0
4,71,0,15
4,69,79,0
4,69,0,40
4,73,79,110
4,73,0,40
4,71,79,20
4,71,0,20
4,71,79,10
4,71,0,20
4,71,79,10
4,71,0,80
4,68,79,10
4,68,0,60
4,68,79,180
4,68,0,20
4,68,79,10
4,68,0,20
4,68,79,10
4,68,0,20
4,68,79,10
4,68,0,20
4,71,79,10
4,71,0,60
4,71,79,30
4,71,0,40
4,69,79,20
4,69,0,20
4,69,79,10
4,69,0,50
4,69,79,10
4,69,0,20
4,71,79,100
4,71,0,20
4,73,79,10
4,73,0,20
4,71,79,10
4,71,0,20
4,71,79,10
4,71,0,20
4,71,79,10
4,71,0,20
4,68,79,10
4,68,0,15
4,66,79,0
4,66,0,10
4,64,79,5
4,64,0,70
4,70,79,230
4,70,0,20
4,70,79,10
4,70,0,40
4,71,79,20
4,71,0,40
4,75,79,20
4,75,0,40
4,76,79,20
4,76,0,40
4,68,79,20
4,68,0,20
4,69,79,10
4,69,0,110
4,71,79,100
4,71,0,20
4,71,79,10
4,71,0,70
4,69,79,20
4,69,0,20
4,71,79,10
4,71,0,110
4,71,79,220
4,71,0,40
4,71,79,20
4,71,0,40
4,75,79,20
4,75,0,20
4,76,79,10
4,76,0,70
4,76,79,20
4,76,0,20
4,73,79,10
4,73,0,15
4,71,79,0
4,71,0,15
4,69,79,0
4,69,0,40
4,71,79,140
4,71,0,20
4,71,79,10
4,71,0,20
4,71,79,10
4,71,0,30
4,69,79,0
4,69,0,20
4,69,79,10
4,69,0,20
4,71,79,10
4,71,0,267
4,74,79,60
4,74,0,20
4,73,79,10
4,73,0,20
4,74,79,0
4,74,0,20
4,79,79,10
4,79,0,40
4,79,79,20
4,79,0,70
4,79,79,20
4,79,0,20
4,76,79,10
4,76,0,15
4,74,79,0
4,74,0,15
4,72,79,0
4,72,0,40
4,74,79,110
4,74,0,20
4,76,79,10
4,76,0,40
4,74,79,20
4,74,0,20
4,74,79,10
4,74,0,20
4,74,79,10
4,74,0,80
4,71,79,10
4,71,0,15
4,69,79,0
4,69,0,15
4,67,79,0
4,67,0,20
4,71,79,190
4,71,0,20
4,71,79,10
4,71,0,20
4,71,79,10
4,71,0,20
4,71,79,10
4,71,0,20
4,74,79,10
4,74,0,20
4,74,79,10
4,74,0,20
4,72,79,10
4,72,0,50
4,74,79,10
4,74,0,40
4,76,79,200
4,76,0,20
4,74,79,10
4,74,0,20
4,74,79,10
4,74,0,20
4,74,79,10
4,74,0,60
4,74,79,30
4,74,0,20
4,71,79,10
4,71,0,15
4,69,79,0
4,69,0,15
4,67,79,0
4,67,0,40
4,73,79,200
4,73,0,20
4,74,79,10
4,74,0,20
4,73,79,10
4,73,0,20
4,74,79,10
4,74,0,40
4,79,79,20
4,79,0,20
4,79,79,10
4,79,0,20
4,79,79,10
4,79,0,60
4,76,79,30
4,76,0,15
4,74,79,0
4,74,0,15
4,72,79,0
4,72,0,40
4,76,79,140
4,76,0,40
4,74,79,20
4,74,0,20
4,74,79,10
4,74,0,20
4,74,79,10
4,74,0,80
4,71,79,10
4,71,0,15
4,69,79,0
4,69,0,15
4,67,79,0
4,67,0,20
4,67,79,190
4,67,0,20
4,71,79,10
4,71,0,20
4,69,79,10
4,69,0,20
4,71,79,10
4,71,0,20
4,74,79,10
4,74,0,40
4,74,79,20
4,74,0,15
4,72,79,0
4,72,0,35
4,72,79,10
4,72,0,20
4,72,79,10
4,72,0,15
4,71,79,0
4,71,0,15
4,69,79,0
4,69,0,20
4,69,79,190
4,69,0,20
4,71,79,10
4,71,0,20
4,69,79,10
4,69,0,20
4,67,79,10
4,67,0,40
4,67,79,20
4,67,0,70
4,71,79,30
4,71,0,20
4,74,79,10
4,74,0,20
4,73,79,10
4,73,0,20
4,74,79,0
4,74,0,40
4,79,79,20
4,79,0,20
4,79,79,10
4,79,0,70
4,79,79,20
4,79,0,20
4,76,79,10
4,76,0,15
4,74,79,0
4,74,0,15
4,72,79,0
4,72,0,40
4,76,79,140
4,76,0,10
4,74,79,5
4,74,0,30
4,74,79,15
4,74,0,40
4,71,79,20
4,71,0,40
4,74,79,20
4,74,0,20
4,74,79,10
4,74,0,40
4,71,79,20
4,71,0,15
4,69,79,0
4,69,0,15
4,67,79,0
4,67,0,40
4,74,79,140
4,74,0,20
4,73,79,10
4,73,0,20
4,74,79,10
4,74,0,20
4,79,79,10
4,79,0,40
4,79,79,20
4,79,0,50
4,79,79,10
4,79,0,40
4,76,79,20
4,76,0,15
4,74,79,0
4,74,0,15
4,72,79,0
4,72,0,40
4,76,79,140
4,76,0,20
4,74,79,10
4,74,0,50
4,74,79,10
4,74,0,40
4,72,79,20
4,72,0,20
4,74,79,10
4,74,0,20
4,74,79,10
4,74,0,40
4,71,79,20
4,71,0,15
4,69,79,0
4,69,0,15
4,67,79,0
4,67,0,40
4,74,79,110
4,74,0,40
4,74,79,20
4,74,0,20
4,73,79,10
4,73,0,20
4,74,79,10
4,74,0,20
4,79,79,10
4,79,0,80
4,79,79,10
4,79,0,40
4,79,79,20
4,79,0,20
4,76,79,10
4,76,0,15
4,74,79,0
4,74,0,15
4,72,79,0
4,72,0,40
4,69,79,80
4,69,0,20
4,76,79,10
4,76,0,20
4,74,79,10
4,74,0,50
4,74,79,10
4,74,0,40
4,74,79,20
4,74,0,50
4,74,79,10
4,74,0,20
4,69,79,10
4,69,0,20
4,71,79,10
4,71,0,70
4,74,79,140
4,74,0,20
4,73,79,10
4,73,0,20
4,74,79,10
4,74,0,40
4,79,79,20
4,79,0,40
4,79,79,20
4,79,0,30
4,71,79,0
4,71,0,20
4,72,79,10
4,72,0,20
4,72,79,10
4,72,0,70
4,62,79,110
4,62,0,20
4,69,79,10
4,69,0,20
4,71,79,10
4,71,0,20
4,69,79,10
4,69,0,30
4,67,79,0
4,67,0,20
4,67,79,10
4,67,0,20
4,67,79,10
4,67,0,110
4,74,95,460
4,74,0,40
4,74,95,20
4,74,0,20
4,79,95,10
4,79,0,60
4,79,95,30
4,79,0,20
4,79,95,10
4,79,0,40
4,76,95,20
4,76,0,15
4,74,95,0
4,74,0,15
4,72,95,0
4,72,0,40
4,82,95,140
4,82,0,30
4,83,95,0
4,83,0,20
4,81,95,10
4,81,0,20
4,79,95,10
4,79,0,20
4,79,95,10
4,79,0,80
4,76,95,10
4,76,0,15
4,74,95,0
4,74,0,10
4,83,95,245
4,83,0,40
4,81,95,20
4,81,0,40
4,79,95,20
4,79,0,40
4,81,95,20
4,81,0,40
4,79,95,20
4,79,0,20
4,76,95,10
4,76,0,15
4,74,95,0
4,74,0,15
4,72,95,0
4,72,0,45
4,74,95,0
4,74,0,15
4,76,95,0
4,76,0,20
4,76,95,100
4,76,0,20
4,74,95,10
4,74,0,20
4,74,95,10
4,74,0,40
4,73,95,20
4,73,0,15
4,74,95,0
4,74,0,30
4,71,95,15
4,71,0,80
4,74,95,220
4,74,0,40
