track,note,velocity,time
3,62,79,80400
3,71,79,0
3,72,79,0
3,64,79,0
3,62,79,0
3,69,79,0
3,64,79,80
3,62,79,0
3,71,79,0
3,62,79,165
3,71,79,0
3,72,79,0
3,64,79,0
3,62,79,0
3,69,79,0
3,64,79,80
3,62,79,0
3,71,79,0
3,62,79,165
3,71,79,0
3,72,79,0
3,64,79,0
3,62,79,0
3,69,79,0
3,64,79,140
3,62,79,0
3,71,79,0
3,62,79,165
3,71,79,0
3,72,79,0
3,64,79,0
3,66,79,0
3,62,79,0
3,69,79,0
3,67,79,0
3,64,79,0
3,71,79,0
3,72,79,0
3,69,79,0
3,66,79,0
3,71,79,0
3,67,79,0
3,74,79,0
4,71,79,1800
4,71,79,20
4,75,79,40
4,76,79,40
4,68,79,0
4,69,79,20
4,71,79,220
4,71,79,20
4,71,79,20
4,69,79,40
4,71,79,0
4,71,79,20
4,68,79,0
4,68,79,20
4,68,79,200
4,68,79,20
4,68,79,20
4,71,79,40
4,71,79,40
4,69,79,0
4,69,79,20
4,69,79,40
4,71,79,0
4,71,79,180
4,73,79,20
4,71,79,20
4,69,79,40
4,68,79,20
4,66,79,0
4,64,79,0
4,70,79,500
4,71,79,20
4,75,79,40
4,76,79,40
4,68,79,40
4,69,79,20
4,71,79,280
4,71,79,20
4,71,79,20
4,69,79,20
4,68,79,0
4,68,79,20
4,68,79,520
4,68,79,20
4,71,79,40
4,71,79,40
4,69,79,0
4,69,79,20
4,69,79,20
4,68,79,0
4,66,79,0
4,66,79,160
4,66,79,20
4,64,79,0
4,64,79,20
4,64,79,20
4,71,79,60
4,71,79,20
4,75,79,40
4,76,79,20
4,76,79,40
4,73,79,20
4,71,79,0
4,69,79,0
4,73,79,280
4,71,79,20
4,70,79,40
4,71,79,0
4,71,79,20
4,68,79,0
4,68,79,20
4,68,79,220
4,68,79,20
4,66,79,20
4,68,79,20
4,71,79,40
4,71,79,20
4,69,79,0
4,69,79,20
4,69,79,40
4,71,79,0
4,73,79,280
4,71,79,40
4,71,79,40
4,71,79,20
4,68,79,20
4,66,79,30
4,64,79,0
4,70,79,280
4,71,79,40
4,75,79,40
4,76,79,40
4,68,79,0
4,68,79,20
4,69,79,20
4,71,79,280
4,71,79,20
4,71,79,20
4,69,79,40
4,71,79,20
4,68,79,520
4,68,79,20
4,71,79,40
4,71,79,20
4,69,79,0
4,69,79,40
4,69,79,20
4,68,79,0
4,66,79,0
4,63,79,280
4,68,79,20
4,66,79,20
4,64,79,0
4,64,79,20
4,64,79,20
4,71,79,60
4,71,79,40
4,75,79,40
4,76,79,20
4,76,79,20
4,73,79,40
4,71,79,0
4,69,79,0
4,73,79,200
4,71,79,40
4,71,79,20
4,71,79,20
4,68,79,20
4,66,79,0
4,64,79,0
4,71,79,400
4,71,79,40
4,75,79,40
4,76,79,20
4,68,79,40
4,69,79,20
4,73,79,280
4,71,79,20
4,71,79,20
4,69,79,40
4,71,79,0
4,67,79,20
4,68,79,0
4,70,79,420
4,71,79,40
4,75,79,40
4,76,79,40
4,68,79,40
4,69,79,20
4,73,79,200
4,71,79,20
4,69,79,40
4,71,79,0
4,71,79,20
4,70,79,380
4,71,79,20
4,70,79,20
4,71,79,20
4,75,79,40
4,76,79,20
4,68,79,40
4,69,79,20
4,71,79,280
4,71,79,20
4,71,79,20
4,69,79,40
4,71,95,0
4,71,95,20
4,71,79,60
4,70,79,20
4,71,79,20
4,75,79,20
4,76,79,0
4,76,79,20
4,76,79,20
4,73,79,40
4,71,79,0
4,69,79,0
4,71,79,280
4,71,79,20
4,69,79,40
4,71,79,20
4,68,79,40
4,68,79,280
4,68,79,20
4,68,79,20
4,68,79,40
4,71,79,0
4,71,79,20
4,69,79,0
4,69,79,20
4,69,79,20
4,71,79,0
4,71,79,280
4,71,79,20
4,71,79,20
4,69,79,0
4,69,79,20
4,68,79,20
4,71,79,520
4,71,79,20
4,71,79,20
4,75,79,20
4,76,79,0
4,76,79,80
4,76,79,20
4,73,79,40
4,71,79,0
4,69,79,0
4,73,79,280
4,71,79,40
4,71,79,20
4,71,79,20
4,68,79,20
4,66,79,0
4,64,79,0
4,68,79,400
4,68,79,20
4,71,79,40
4,71,79,40
4,69,79,20
4,69,79,40
4,68,79,0
4,66,79,0
4,66,79,220
4,66,79,20
4,68,79,20
4,66,79,20
4,64,79,0
4,63,79,20
4,64,79,20
4,71,79,860
4,71,79,20
4,71,79,20
4,71,79,20
4,75,79,40
4,76,79,0
4,76,79,10
4,76,79,100
4,73,79,20
4,71,79,0
4,69,79,0
4,73,79,220
4,71,79,40
4,71,79,20
4,71,79,20
4,68,79,20
4,68,79,360
4,68,79,20
4,68,79,20
4,68,79,20
4,71,79,20
4,71,79,60
4,69,79,40
4,69,79,20
4,69,79,20
4,71,79,200
4,73,79,20
4,71,79,20
4,71,79,20
4,71,79,20
4,68,79,20
4,66,79,0
4,64,79,10
4,70,79,460
4,70,79,20
4,71,79,40
4,75,79,40
4,76,79,40
4,68,79,40
4,69,79,20
4,71,79,200
4,71,79,20
4,69,79,40
4,71,79,20
4,71,79,440
4,71,79,40
4,75,79,40
4,76,79,20
4,76,79,40
4,73,79,20
4,71,79,0
4,69,79,0
4,71,79,280
4,71,79,20
4,71,79,20
4,69,79,0
4,69,79,20
4,71,79,20
4,74,79,120
4,73,79,20
4,74,79,0
4,79,79,20
4,79,79,40
4,79,79,40
4,76,79,20
4,74,79,0
4,72,79,0
4,74,79,220
4,76,79,20
4,74,79,40
4,74,79,20
4,74,79,20
4,71,79,20
4,69,79,0
4,67,79,0
4,71,79,380
4,71,79,20
4,71,79,20
4,71,79,20
4,74,79,20
4,74,79,20
4,72,79,20
4,74,79,20
4,76,79,400
4,74,79,20
4,74,79,20
4,74,79,20
4,74,79,60
4,71,79,20
4,69,79,0
4,67,79,0
4,73,79,400
4,74,79,20
4,73,79,20
4,74,79,20
4,79,79,40
4,79,79,20
4,79,79,20
4,76,79,60
4,74,79,0
4,72,79,0
4,76,79,280
4,74,79,40
4,74,79,20
4,74,79,20
4,71,79,20
4,69,79,0
4,67,79,0
4,67,79,380
4,71,79,20
4,69,79,20
4,71,79,20
4,74,79,20
4,74,79,40
4,72,79,0
4,72,79,20
4,72,79,20
4,71,79,0
4,69,79,0
4,69,79,380
4,71,79,20
4,69,79,20
4,67,79,20
4,67,79,40
4,71,79,60
4,74,79,20
4,73,79,20
4,74,79,0
4,79,79,40
4,79,79,20
4,79,79,40
4,76,79,20
4,74,79,0
4,72,79,0
4,76,79,280
4,74,79,10
4,74,79,30
4,71,79,40
4,74,79,40
4,74,79,20
4,71,79,40
4,69,79,0
4,67,79,0
4,74,79,280
4,73,79,20
4,74,79,20
4,79,79,20
4,79,79,40
4,79,79,20
4,76,79,40
4,74,79,0
4,72,79,0
4,76,79,280
4,74,79,20
4,74,79,20
4,72,79,40
4,74,79,20
4,74,79,20
4,71,79,40
4,69,79,0
4,67,79,0
4,74,79,220
4,74,79,40
4,73,79,20
4,74,79,20
4,79,79,20
4,79,79,20
4,79,79,40
4,76,79,20
4,74,79,0
4,72,79,0
4,69,79,160
4,76,79,20
4,74,79,20
4,74,79,20
4,74,79,40
4,74,79,20
4,69,79,20
4,71,79,20
4,74,79,280
4,73,79,20
4,74,79,20
4,79,79,40
4,79,79,40
4,71,79,0
4,72,79,20
4,72,79,20
4,62,79,220
4,69,79,20
4,71,79,20
4,69,79,20
4,67,79,0
4,67,79,20
4,67,79,20
4,74,95,920
4,74,95,40
4,79,95,20
4,79,95,60
4,79,95,20
4,76,95,40
4,74,95,0
4,72,95,0
4,82,95,280
4,83,95,0
4,81,95,20
4,79,95,20
4,79,95,20
4,76,95,20
4,74,95,0
4,83,95,490
4,81,95,40
4,79,95,40
4,81,95,40
4,79,95,40
4,76,95,20
4,74,95,0
4,72,95,0
4,74,95,0
4,76,95,0
4,76,95,200
4,74,95,20
4,74,95,20
4,73,95,40
4,74,95,0
4,71,95,30
4,74,95,440
4,74,95,40
4,79,95,40
4,79,95,40
4,71,95,40
4,72,95,20
4,82,95,100
4,83,95,0
4,81,95,60
4,79,95,20
4,76,95,20
4,74,95,0
4,74,95,340
4,74,95,20
4,74,95,40
4,78,95,40
4,79,95,0
4,79,95,20
4,71,95,40
4,72,95,20
4,71,95,280
4,71,95,20
4,71,95,40
4,74,111,40
4,79,111,0
4,83,111,0
4,81,111,0
4,79,111,0
4,83,111,0
4,84,111,0
4,83,111,0
4,74,111,0
4,74,111,0
4,76,111,0
5,68,79,0
5,59,79,0
5,52,79,0
5,76,79,0
5,52,79,0
5,59,79,0
5,52,79,5
5,59,79,0
5,52,79,20
5,59,79,0
5,59,79,85
5,52,79,0
5,69,79,0
5,68,79,80
5,61,79,0
5,45,79,0
5,76,79,0
5,45,79,80
5,61,79,0
5,61,79,5
5,45,79,0
5,80,79,0
5,45,79,20
5,61,79,0
5,66,79,80
5,61,79,0
5,45,79,0
5,78,79,0
5,68,79,80
5,59,79,0
5,52,79,0
5,76,79,0
5,52,79,80
5,59,79,0
5,52,79,5
5,59,79,0
5,52,79,20
5,59,79,0
5,59,79,85
5,52,79,0
5,69,79,0
5,68,79,80
5,61,79,0
5,45,79,0
5,76,79,0
5,45,79,80
5,61,79,0
5,61,79,5
5,45,79,0
5,80,79,0
5,61,79,5
5,45,79,20
5,45,79,0
5,66,79,25
5,61,79,0
5,45,79,0
5,78,79,0
5,61,79,5
5,45,79,20
5,45,79,0
5,62,79,0
5,67,79,0
5,43,79,0
5,83,79,0
5,43,79,0
5,62,79,0
5,62,79,5
5,43,79,0
5,66,79,0
5,43,79,20
5,62,79,0
5,62,79,80
5,65,79,0
5,43,79,0
5,84,79,0
5,64,79,80
5,64,79,0
5,36,79,0
5,83,79,0
5,36,79,80
5,64,79,0
5,36,79,80
5,64,79,0
5,36,79,20
5,64,79,0
5,36,79,85
5,64,79,0
5,67,79,80
5,62,79,0
5,43,79,0
5,83,79,0
5,43,79,80
5,62,79,0
5,62,79,5
5,43,79,0
5,69,79,0
5,43,79,20
5,62,79,0
5,62,79,80
5,43,79,0
5,71,79,0
5,84,79,0
5,64,79,80
5,64,79,0
5,36,79,0
5,83,79,0
5,36,79,80
5,64,79,0
5,36,79,80
5,64,79,0
5,36,79,20
5,64,79,0
5,36,79,85
5,64,79,0
5,67,79,80
5,62,79,0
5,38,79,0
5,79,79,0
5,74,79,3205
5,71,79,0
5,72,79,165
5,71,79,165
5,69,79,165
5,72,79,0
5,71,79,165
5,72,79,165
5,71,79,165
5,69,79,165
5,72,79,0
5,71,79,165
5,72,79,165
5,71,79,165
5,69,79,165
5,72,79,0
5,71,79,0
5,67,79,0
5,74,79,0
5,71,79,80
5,67,79,0
5,74,79,0
5,72,79,80
5,67,79,0
5,76,79,0
5,72,79,80
5,67,79,0
5,76,79,0
5,69,79,80
5,67,79,0
5,72,79,0
5,69,79,80
5,67,79,0
5,72,79,0
5,71,79,80
5,67,79,0
5,74,79,0
5,71,79,165
5,67,79,0
5,74,79,0
5,72,79,165
5,67,79,0
5,76,79,0
5,72,79,80
5,67,79,0
5,76,79,0
5,69,79,80
5,67,79,0
5,72,79,0
5,71,79,165
5,67,79,0
5,74,79,0
5,71,79,165
5,67,79,0
5,74,79,0
5,71,79,80
5,67,79,0
5,74,79,0
5,72,79,80
5,67,79,0
5,76,79,0
5,67,79,80
5,72,79,0
5,76,79,0
5,69,79,80
5,67,79,0
5,72,79,0
5,69,79,80
5,67,79,0
5,72,79,0
5,71,79,80
5,67,79,0
5,74,79,0
5,71,79,165
5,67,79,0
5,74,79,0
5,72,79,165
5,69,79,0
5,67,79,0
5,76,79,0
5,74,79,165
5,72,79,0
5,69,79,0
5,78,79,0
5,74,79,165
5,71,79,0
5,67,79,0
5,79,79,0
5,67,79,0
5,62,79,0
5,55,79,0
5,71,79,0
5,59,79,0
5,67,79,80
5,60,79,0
5,57,79,0
5,72,79,0
5,66,79,165
5,62,79,0
5,57,79,0
5,69,79,0
5,71,79,80
5,72,79,40
5,67,79,40
5,62,79,0
5,55,79,0
5,71,79,0
5,67,79,165
5,62,79,0
5,55,79,0
5,71,79,0
5,57,79,85
5,62,79,40
5,67,79,40
5,60,79,0
5,60,79,0
5,72,79,0
5,66,79,165
5,62,79,0
5,57,79,0
5,69,79,0
5,55,79,165
5,62,79,0
5,67,79,0
5,71,79,0
5,67,79,80
5,74,79,0
5,72,79,40
5,67,79,40
5,62,79,0
5,55,79,0
5,71,79,0
5,57,79,80
5,62,79,40
5,60,79,40
5,60,79,0
5,72,79,0
5,66,79,165
5,62,79,0
5,57,79,0
5,69,79,0
5,64,79,80
5,66,79,40
5,71,79,40
5,67,79,0
5,62,79,0
5,55,79,0
5,79,79,0
5,71,79,165
5,67,79,0
5,62,79,0
5,55,79,0
5,79,79,0
5,67,79,165
5,64,79,0
5,48,79,0
5,72,79,0
5,66,79,165
5,62,79,0
5,50,79,0
5,69,79,0
5,67,79,165
5,43,79,0
5,62,79,0
5,71,79,0
5,43,79,80
5,62,79,0
5,67,79,0
5,67,79,80
5,62,79,0
5,43,79,0
5,79,79,0
5,62,79,20
5,43,79,0
5,67,79,0
5,62,79,140
5,43,79,0
5,67,79,0
5,67,79,80
5,62,79,0
5,43,79,0
5,79,79,0
5,48,79,165
5,64,79,0
5,66,79,165
5,62,79,0
5,50,79,0
5,78,79,0
5,67,79,165
5,43,79,0
5,62,95,0
5,79,79,0
5,59,95,40
5,60,95,20
5,62,95,20
5,55,95,40
5,67,79,40
5,62,79,0
5,43,79,0
5,79,79,0
5,48,79,165
5,64,79,0
5,69,79,165
5,60,79,0
5,48,79,0
5,78,79,0
5,67,79,165
5,59,79,0
5,43,79,0
5,79,79,0
5,67,79,165
5,62,79,0
5,43,79,0
5,79,79,0
5,48,79,165
5,64,79,0
5,66,79,165
5,50,79,0
5,60,79,0
5,78,79,0
5,67,79,165
5,43,79,0
5,62,95,0
5,79,79,0
5,59,95,40
5,60,95,20
5,62,95,20
5,59,95,40
5,67,79,40
5,59,79,0
5,43,79,0
5,79,79,0
5,48,79,165
5,60,79,0
5,69,79,165
5,62,79,0
5,50,79,0
5,78,79,0
5,71,79,165
5,62,79,0
5,43,79,0
5,79,79,0
5,71,79,80
5,43,79,0
5,79,79,0
5,71,79,80
5,43,79,0
5,79,79,0
5,71,79,20
5,43,79,0
5,79,79,0
5,72,79,85
5,43,79,0
5,79,79,0
5,79,79,80
5,43,79,0
5,43,79,0
5,43,79,80
5,43,79,20
5,43,79,140
5,43,79,80
5,43,79,80
5,43,79,80
5,43,79,20
5,43,79,140
5,43,79,80
5,43,79,80
5,43,79,80
5,43,79,20
5,43,79,140
5,43,79,80
5,43,79,80
5,43,79,80
5,43,79,20
5,43,79,85
5,79,79,80
5,43,79,0
5,79,79,0
5,81,79,80
5,43,79,0
5,81,79,0
5,83,79,80
5,43,79,0
5,83,79,0
5,43,79,20
5,84,79,80
5,43,79,0
5,84,79,0
5,43,79,0
5,86,79,0
5,43,79,0
5,43,79,80
5,43,79,20
5,43,79,85
5,43,79,80
5,88,79,0
5,43,79,80
5,43,79,80
5,43,79,20
5,43,79,85
5,43,79,80
5,86,79,0
5,43,79,80
5,43,79,80
5,43,79,20
5,43,79,85
5,43,79,80
5,88,79,0
5,43,79,80
5,43,79,80
5,43,79,20
5,43,79,85
5,74,79,80
5,43,79,0
5,91,79,0
5,43,79,80
5,43,79,80
5,43,79,20
5,43,79,85
5,79,79,80
5,43,79,0
5,88,79,0
5,43,79,80
5,81,79,0
5,43,79,80
5,83,79,0
5,43,79,20
5,43,79,80
5,84,79,0
5,91,79,80
5,86,79,0
5,43,79,0
5,43,79,80
5,43,79,80
5,43,79,20
5,43,79,140
5,43,79,80
5,43,79,80
5,43,79,80
5,43,79,20
5,43,79,140
5,43,79,80
5,43,79,80
5,43,79,80
5,43,79,20
5,43,79,140
5,43,79,80
5,43,79,80
5,43,79,80
