track,note,velocity,time
3,48,63,1920
3,47,56,0
3,45,63,0
3,43,58,0
3,43,58,192
3,50,63,0
3,43,73,192
3,38,80,0
3,38,80,192
3,38,77,0
3,40,75,0
3,42,73,0
3,43,96,0
3,43,99,0
3,50,97,0
3,48,96,0
3,47,92,0
3,45,92,0
3,38,94,0
3,38,80,0
3,38,61,96
3,40,65,0
3,42,80,0
3,43,92,0
3,43,92,0
3,38,89,0
3,38,87,0
3,43,89,0
3,43,89,0
3,38,80,0
3,38,80,0
3,36,89,0
3,36,89,0
3,43,80,0
3,43,75,0
3,36,75,0
3,36,75,0
3,43,87,0
3,40,89,0
3,38,96,0
3,38,99,0
3,45,94,0
3,45,94,192
3,38,96,0
3,38,101,0
3,45,99,0
3,45,99,0
3,43,103,0
3,43,110,0
3,50,87,0
3,43,94,0
3,38,94,0
3,38,94,0
3,40,110,0
3,42,106,0
3,43,103,0
3,43,106,0
3,43,108,0
3,43,103,0
3,43,101,0
3,43,101,0
3,38,96,0
3,38,96,0
3,36,89,0
3,36,92,0
3,43,101,0
3,43,101,0
3,36,103,0
3,36,101,0
3,35,101,0
3,33,106,0
3,31,101,0
3,43,99,0
3,38,103,0
3,43,110,0
3,38,92,0
3,38,87,0
3,40,82,0
3,42,80,0
3,43,84,0
3,43,84,0
3,50,87,0
3,48,87,0
3,47,94,0
3,45,94,0
3,38,103,0
3,38,103,0
3,40,106,0
3,42,99,0
3,43,92,0
3,43,92,0
3,38,89,0
3,38,87,0
3,43,89,0
3,43,89,0
3,38,80,0
3,38,80,0
3,36,89,0
3,36,89,0
3,43,80,0
3,43,75,0
3,36,75,0
3,36,75,0
3,43,87,0
3,40,89,0
3,38,96,0
3,38,99,0
3,45,94,0
3,45,94,192
3,38,96,0
3,38,101,0
3,45,99,0
3,45,99,0
3,43,103,0
3,43,110,0
3,50,87,0
3,43,94,0
3,38,94,0
3,38,94,0
3,40,110,0
3,42,106,0
3,43,103,0
3,43,106,0
3,43,108,0
3,43,103,0
3,43,101,0
3,43,101,0
3,38,96,0
3,38,96,0
3,36,89,0
3,36,92,0
3,43,101,0
3,43,101,0
3,36,103,0
3,36,101,0
3,35,101,0
3,33,106,0
3,31,101,0
3,43,99,0
3,38,103,0
3,43,110,0
3,38,92,0
3,38,87,0
3,40,82,0
3,42,80,0
3,43,84,0
3,43,84,0
3,50,87,0
3,48,87,0
3,47,94,0
3,45,94,0
3,43,103,0
3,43,103,0
3,42,106,0
3,40,103,0
3,38,103,0
3,38,106,0
3,33,106,0
3,33,106,0
3,38,99,0
3,38,101,0
3,33,101,0
3,33,110,0
3,36,96,0
3,36,94,0
3,43,89,0
3,36,92,0
3,43,94,0
3,43,94,0
3,38,96,0
3,38,99,0
3,43,96,0
3,43,96,0
3,42,80,0
3,42,80,0
3,40,89,0
3,40,89,0
3,38,96,0
3,38,101,0
3,36,106,0
3,36,99,0
3,43,101,0
3,43,101,0
3,38,94,0
3,38,92,0
3,45,89,0
3,43,89,0
3,40,89,0
3,38,89,0
3,36,103,0
3,36,101,0
3,36,101,0
3,36,101,0
3,43,94,0
3,43,96,0
3,43,99,0
3,43,96,192
3,36,101,0
3,36,110,0
3,36,101,0
3,36,101,192
3,36,101,0
3,43,101,0
3,43,101,0
3,43,101,0
3,43,101,0
3,40,92,0
3,40,92,0
3,38,92,0
3,38,92,0
3,36,92,0
3,36,92,0
3,35,92,0
3,35,92,0
3,33,87,0
3,33,92,0
3,33,92,0
3,33,101,0
3,38,99,0
3,38,94,0
3,38,87,0
3,38,101,0
3,38,99,0
3,38,99,0
3,40,99,0
3,42,99,0
3,43,92,0
3,43,92,0
3,38,89,0
3,38,87,0
3,43,89,0
3,43,89,0
3,38,80,0
3,38,80,0
3,36,89,0
3,36,89,0
3,43,80,0
3,43,75,0
3,36,75,0
3,36,75,0
3,35,87,0
3,33,89,0
3,43,96,0
3,43,99,0
3,50,94,0
3,43,94,0
3,38,96,0
3,38,101,0
3,40,99,0
3,42,99,0
3,43,103,0
3,43,110,0
3,50,87,0
3,47,101,0
3,45,101,0
3,42,101,0
3,40,103,0
3,40,94,0
3,42,110,0
3,44,106,0
3,45,94,0
3,45,97,0
3,40,106,0
3,40,110,0
3,45,89,0
3,45,89,0
3,40,80,0
3,40,80,0
3,38,89,0
3,38,89,0
3,45,80,0
3,45,75,0
3,38,75,0
3,38,75,0
3,45,87,0
3,42,89,0
3,40,96,0
3,40,99,0
3,47,94,0
3,47,94,192
3,40,96,0
3,40,101,0
3,47,99,0
3,47,99,0
3,45,103,0
3,45,110,0
3,52,87,0
3,45,94,0
3,40,94,0
3,40,94,0
3,42,110,0
3,44,106,0
3,45,103,0
3,45,106,0
3,45,108,0
3,45,103,0
3,45,101,0
3,45,101,0
3,40,96,0
3,40,96,0
3,38,89,0
3,38,92,0
3,45,101,0
3,45,101,0
3,38,103,0
3,38,101,0
3,37,101,0
3,35,106,0
3,33,101,0
3,45,99,0
3,40,103,0
3,45,110,0
3,40,92,0
3,40,87,0
3,42,82,0
3,44,80,0
3,45,84,0
3,45,103,0
3,47,103,0
3,49,99,0
3,50,99,0
3,50,99,0
3,49,108,0
3,47,96,0
3,45,99,0
3,45,99,0
3,40,99,0
3,45,96,0
3,40,96,0
3,40,96,0
3,45,103,0
3,40,101,0
3,38,104,0
3,37,104,0
3,35,104,0
3,33,104,0
4,76,97,1920
4,72,80,0
4,79,87,0
4,60,72,0
4,48,97,0
4,74,96,98
4,71,79,0
4,79,81,0
4,47,71,0
4,59,77,0
4,76,85,161
4,69,80,0
4,72,101,0
4,57,75,0
4,45,78,0
4,71,88,172
4,67,82,0
4,74,86,0
4,55,80,0
4,43,83,0
4,50,97,384
4,71,94,3
4,67,80,0
4,55,93,192
4,74,86,0
4,71,95,17
4,69,97,192
4,50,86,0
4,67,89,7
4,64,71,136
4,62,78,0
4,38,65,0
4,69,87,0
4,66,111,0
4,50,65,0
4,69,81,130
4,62,78,0
4,66,101,0
4,45,95,192
4,69,68,61
4,62,76,0
4,66,97,0
4,71,78,136
4,67,89,0
4,64,83,0
4,52,77,0
4,40,83,0
4,54,100,219
4,42,108,0
4,69,99,0
4,66,93,0
4,74,86,0
4,71,99,154
4,55,97,0
4,67,81,0
4,43,90,0
4,74,86,0
4,50,89,384
4,71,101,33
4,67,80,0
4,74,93,192
4,55,103,0
4,71,90,94
4,69,87,192
4,50,69,0
4,67,93,88
4,69,84,143
4,62,89,0
4,38,81,0
4,66,110,0
4,50,77,0
4,69,86,132
4,62,85,0
4,66,113,0
4,45,95,192
4,69,75,46
4,62,83,0
4,66,117,0
4,71,84,115
4,67,95,0
4,40,90,0
4,64,86,0
4,52,72,0
4,69,93,251
4,42,107,0
4,74,76,0
4,54,102,0
4,66,74,0
4,71,85,235
4,67,71,0
4,74,80,0
4,55,80,0
4,43,80,0
4,50,92,384
4,71,97,74
4,67,75,0
4,55,102,192
4,74,77,15
4,50,83,170
4,71,74,12
4,67,66,0
4,74,77,0
4,65,80,128
4,71,82,0
4,74,71,0
4,55,72,0
4,43,79,0
4,50,96,384
4,71,83,5
4,65,75,0
4,74,81,0
4,69,101,192
4,55,101,0
4,71,110,336
4,50,72,0
4,48,93,331
4,36,69,0
4,60,72,0
4,67,83,0
4,64,90,0
4,43,94,384
4,64,103,43
4,67,94,0
4,60,84,0
4,76,92,139
4,48,96,0
4,74,107,55
4,72,93,162
4,43,79,0
4,74,107,48
4,48,113,168
4,76,107,0
4,36,51,77
4,76,117,108
4,74,108,192
4,48,122,0
4,72,90,40
4,74,110,191
4,43,96,0
4,76,99,7
4,38,103,192
4,50,101,0
4,45,81,365
4,62,82,0
4,66,114,0
4,62,78,0
4,66,106,0
4,69,91,192
4,50,89,0
4,66,94,101
4,64,66,182
4,45,77,0
4,62,92,28
4,50,89,95
4,38,85,0
4,62,77,0
4,69,76,0
4,66,89,0
4,45,86,384
4,66,94,29
4,62,86,0
4,69,77,0
4,64,102,192
4,50,87,0
4,45,103,320
4,66,120,0
4,71,85,306
4,67,75,0
4,74,83,0
4,55,75,0
4,43,76,0
4,50,93,384
4,71,86,19
4,67,75,0
4,55,91,192
4,74,83,0
4,71,91,114
4,69,91,176
4,50,92,0
4,67,102,80
4,69,72,141
4,62,89,0
4,66,111,0
4,38,82,0
4,50,80,0
4,69,83,133
4,62,86,0
4,66,110,0
4,45,92,192
4,69,77,9
4,62,78,0
4,66,103,0
4,67,90,143
4,71,86,0
4,64,81,0
4,40,91,0
4,52,86,0
4,69,101,234
4,74,88,0
4,66,88,0
4,54,115,0
4,42,103,0
4,71,90,214
4,67,69,0
4,55,89,0
4,43,90,0
4,74,73,0
4,50,98,384
4,71,86,60
4,67,71,0
4,55,108,192
4,74,79,37
4,50,91,173
4,71,102,6
4,65,85,116
4,71,86,0
4,55,86,0
4,43,89,0
4,74,83,0
4,50,98,384
4,71,77,24
4,65,75,0
4,74,77,0
4,69,100,192
4,55,93,0
4,72,68,295
4,50,108,0
4,71,106,0
4,64,96,307
4,60,75,0
4,67,89,0
4,36,98,0
4,48,119,0
4,43,99,384
4,64,99,28
4,67,89,0
4,60,81,0
4,48,101,141
4,76,113,0
4,74,99,109
4,72,106,14
4,43,88,0
4,74,111,141
4,48,123,192
4,76,110,0
4,48,114,127
4,36,108,0
4,76,113,0
4,72,103,0
4,79,107,0
4,74,110,112
4,71,98,0
4,79,108,0
4,35,105,0
4,47,81,0
4,72,117,147
4,69,101,0
4,76,102,0
4,45,84,0
4,33,101,0
4,71,108,134
4,67,101,0
4,31,123,0
4,74,105,0
4,43,92,0
4,38,101,384
4,71,107,114
4,67,87,0
4,43,105,192
4,74,102,69
4,38,114,190
4,71,111,145
4,69,98,143
4,38,74,0
4,62,103,0
4,50,78,0
4,66,127,0
4,45,98,384
4,69,86,10
4,62,90,0
4,66,122,0
4,40,106,138
4,52,87,0
4,71,94,0
4,67,107,0
4,64,94,0
4,69,106,234
4,74,97,0
4,66,97,0
4,54,117,0
4,42,106,0
4,71,102,174
4,67,76,0
4,55,90,0
4,74,86,0
4,43,88,0
4,50,106,384
4,71,111,35
4,67,89,0
4,55,110,192
4,74,86,0
4,71,106,106
4,69,95,167
4,50,86,0
4,67,108,110
4,69,83,138
4,62,94,0
4,66,120,0
4,38,82,0
4,50,85,0
4,69,93,127
4,62,97,0
4,66,125,0
4,45,93,192
4,69,75,0
4,62,83,0
4,66,106,0
4,71,95,138
4,67,102,0
4,64,92,0
4,40,103,0
4,52,86,0
4,69,79,238
4,74,84,0
4,42,114,0
4,54,127,0
4,66,105,0
4,71,106,266
4,67,96,0
4,55,91,0
4,74,97,0
4,43,90,0
4,50,98,384
4,71,101,118
4,67,86,0
4,55,115,192
4,74,100,38
4,50,95,177
4,71,94,4
4,43,95,123
4,55,98,0
4,71,87,0
4,74,86,0
4,65,89,0
4,50,95,384
4,71,75,54
4,74,81,0
4,65,72,0
4,69,100,192
4,55,100,0
4,50,102,330
4,71,100,0
4,64,87,316
4,67,82,0
4,60,67,0
4,36,101,0
4,48,117,0
4,43,96,384
4,64,91,54
4,60,80,0
4,67,93,1
4,48,103,0
4,64,108,109
4,62,100,192
4,43,75,0
4,60,87,128
4,48,127,192
4,64,100,116
4,67,95,0
4,60,97,0
4,36,97,0
4,48,96,0
4,62,127,26
4,43,95,0
4,48,119,316
4,64,119,0
4,38,100,183
4,62,81,0
4,69,86,0
4,50,89,0
4,66,113,0
4,45,98,384
4,62,77,112
4,66,110,0
4,50,103,192
4,69,105,229
4,45,85,0
4,69,79,53
4,62,84,0
4,66,114,0
4,66,110,130
4,62,87,0
4,69,90,0
4,50,93,0
4,38,90,0
4,45,89,384
4,66,110,17
4,62,84,0
4,69,80,0
4,64,114,192
4,50,108,0
4,62,108,137
4,64,107,183
4,45,84,0
4,66,90,34
4,69,90,0
4,74,75,124
4,71,96,0
4,67,92,0
4,43,68,0
4,55,74,0
4,50,95,384
4,71,106,31
4,67,81,0
4,74,89,0
4,55,107,134
4,83,122,0
4,81,111,81
4,79,103,183
4,50,98,0
4,83,113,1
4,38,122,162
4,50,120,0
4,62,97,175
4,66,127,0
4,45,101,192
4,69,87,115
4,62,94,0
4,66,125,0
4,67,114,101
4,71,96,0
4,64,99,0
4,40,103,0
4,52,105,0
4,54,122,217
4,69,82,0
4,42,102,0
4,74,102,0
4,66,119,0
4,71,105,193
4,55,91,0
4,67,86,0
4,43,97,0
4,74,89,0
4,50,103,384
4,71,105,34
4,67,82,0
4,55,106,192
4,74,91,24
4,50,89,178
4,74,80,85
4,71,89,0
4,67,76,0
4,55,93,122
4,71,90,0
4,65,90,0
4,74,86,0
4,43,91,0
4,50,98,384
4,71,81,2
4,74,84,0
4,65,76,0
4,69,113,192
4,55,97,0
4,71,106,336
4,50,108,0
4,36,97,337
4,64,101,0
4,67,95,0
4,60,90,0
4,48,113,0
4,43,103,384
4,64,106,60
4,60,89,0
4,48,115,192
4,67,89,105
4,43,87,179
4,67,81,2
4,64,88,0
4,60,80,0
4,36,102,129
4,48,99,0
4,64,103,0
4,67,99,0
4,60,97,0
4,36,113,139
4,76,102,0
4,48,107,0
4,72,101,0
4,79,98,0
4,79,91,137
4,74,96,0
4,71,94,0
4,35,94,0
4,47,72,0
4,72,115,161
4,33,99,0
4,76,97,0
4,45,87,0
4,69,94,0
4,71,93,152
4,67,85,0
4,31,122,0
4,74,89,0
4,43,86,0
4,38,102,384
4,71,105,96
4,67,86,0
4,43,96,192
4,74,92,104
4,38,119,189
4,50,89,323
4,38,89,0
4,62,89,0
4,69,96,0
4,66,114,0
4,45,101,384
4,69,85,42
4,62,87,0
4,66,111,0
4,67,101,142
4,71,93,0
4,64,83,0
4,52,86,0
4,40,90,0
4,69,96,232
4,42,110,0
4,74,98,0
4,66,102,0
4,54,101,0
4,71,106,228
4,67,89,0
4,74,96,0
4,55,100,0
4,43,79,0
4,50,106,384
4,74,91,311
4,55,110,0
4,71,96,122
4,69,110,192
4,50,81,0
4,67,97,102
4,55,127,192
4,67,103,146
4,74,99,0
4,71,115,0
4,43,107,0
4,55,114,0
4,69,103,226
4,74,101,0
4,66,120,0
4,42,115,0
4,54,113,0
4,67,114,260
4,64,103,0
4,71,102,0
4,40,119,0
4,52,110,0
4,36,94,154
4,38,90,0
4,50,96,0
4,69,98,0
4,62,103,0
4,66,127,0
4,45,91,316
4,62,87,137
4,66,114,0
4,50,100,192
4,69,96,73
4,45,92,181
4,69,73,2
4,62,79,0
4,66,98,0
4,62,95,135
4,66,119,0
4,69,97,0
4,50,99,0
4,38,102,0
4,66,125,147
4,69,100,0
4,45,103,0
4,64,111,61
4,62,107,192
4,50,111,0
4,64,123,135
4,66,122,192
4,45,102,0
4,69,114,16
4,64,108,108
4,60,99,0
4,67,101,0
4,36,80,0
4,48,113,0
4,43,97,384
4,64,108,50
4,60,89,0
4,67,106,192
4,48,119,0
4,64,123,300
4,43,113,0
4,71,115,331
4,67,98,0
4,74,103,0
4,55,96,0
4,43,98,0
4,50,95,309
4,83,120,0
4,81,106,57
4,79,110,11
4,81,119,192
4,55,110,0
4,83,114,75
4,50,108,128
4,86,100,0
4,74,106,89
4,55,94,0
4,71,110,0
4,43,92,0
4,67,110,0
4,50,94,384
4,71,80,32
4,74,90,0
4,69,86,114
4,74,88,0
4,66,114,0
4,54,87,0
4,42,97,0
4,50,101,384
4,69,81,3
4,74,83,0
4,66,80,0
4,40,60,131
4,64,77,0
4,67,81,0
4,52,60,0
4,71,79,0
4,47,87,384
4,67,89,15
4,64,84,0
4,71,88,0
4,62,97,122
4,66,115,0
4,69,92,0
4,38,91,0
4,50,80,0
4,45,99,384
4,62,84,14
4,69,88,0
4,66,102,0
4,64,100,122
4,60,100,0
4,67,94,0
4,36,86,0
4,48,80,0
4,43,86,384
4,60,91,59
4,64,103,0
4,67,100,192
4,48,115,0
4,64,114,307
4,43,106,0
4,69,78,247
4,62,83,0
4,66,101,0
