track,note,velocity,time
0,28,127,0
0,36,127,0
0,35,127,0
0,50,100,1
0,50,100,0
0,50,100,0
0,35,0,12
0,36,0,0
0,50,0,16
0,52,100,0
0,50,0,0
0,52,100,0
0,50,0,0
0,52,100,0
0,52,0,30
0,57,100,0
0,52,0,0
0,57,100,0
0,28,0,0
0,52,0,0
0,57,100,0
0,57,0,30
0,52,100,0
0,57,0,0
0,52,100,0
0,57,0,0
0,52,100,0
0,52,0,30
0,55,100,0
0,52,0,0
0,55,100,0
0,52,0,0
0,55,100,0
0,52,100,2
0,52,100,0
0,52,100,0
0,52,0,30
0,50,100,0
0,52,0,0
0,50,100,0
0,52,0,0
0,50,100,0
0,50,0,26
0,50,0,0
0,50,0,0
0,47,100,4
0,47,100,0
0,47,100,0
0,43,100,2
0,43,100,0
0,43,100,0
0,40,100,3
0,40,100,0
0,40,100,0
0,40,0,120
0,50,100,0
0,40,0,0
0,50,100,0
0,40,0,0
0,50,100,0
0,50,0,30
0,52,100,0
0,50,0,0
0,52,100,0
0,50,0,0
0,52,100,0
0,52,0,30
0,57,100,0
0,52,0,0
0,57,100,0
0,52,0,0
0,57,100,0
0,57,0,30
0,52,100,0
0,57,0,0
0,52,100,0
0,57,0,0
0,52,100,0
0,52,0,30
0,55,100,0
0,52,0,0
0,55,100,0
0,52,0,0
0,55,100,0
0,52,100,3
0,52,100,0
0,52,100,0
0,52,0,30
0,50,100,0
0,52,0,0
0,50,100,0
0,52,0,0
0,50,100,0
0,50,0,30
0,47,100,0
0,50,0,0
0,47,100,0
0,50,0,0
0,47,100,0
0,43,100,3
0,43,100,0
0,43,100,0
0,28,127,120
0,35,127,0
0,36,127,0
0,50,100,1
0,50,100,0
0,50,100,1
0,36,0,6
0,35,0,0
0,50,0,16
0,52,100,0
0,50,0,0
0,52,100,0
0,50,0,6
0,52,100,0
0,52,0,24
0,57,100,0
0,52,0,0
0,57,100,0
0,52,0,6
0,57,100,0
0,28,0,4
0,57,0,20
0,52,100,0
0,57,0,0
0,52,100,0
0,57,0,6
0,52,100,0
0,52,0,24
0,55,100,0
0,52,0,0
0,55,100,0
0,55,100,0
0,52,100,2
0,52,100,0
0,55,0,1
0,52,100,2
0,52,0,24
0,50,100,0
0,52,0,0
0,50,100,0
0,52,0,6
0,50,100,0
0,50,0,20
0,50,0,0
0,47,100,4
0,47,100,0
0,50,0,2
0,47,100,4
0,43,100,2
0,43,100,0
0,47,0,2
0,43,100,2
0,40,100,3
0,40,100,0
0,43,0,1
0,40,100,3
0,40,0,54
0,50,100,0
0,40,0,0
0,50,100,0
0,40,0,6
0,50,100,0
0,50,0,24
0,52,100,0
0,50,0,0
0,52,100,0
0,50,0,6
0,52,100,0
0,52,0,24
0,57,100,0
0,57,100,0
0,52,0,0
0,57,100,0
0,52,0,6
0,57,0,24
0,52,100,0
0,57,0,0
0,52,100,0
0,57,0,0
0,52,100,0
0,52,0,27
0,52,0,0
0,52,0,0
0,55,100,3
0,55,100,0
0,55,100,0
0,52,100,2
0,52,100,0
0,52,100,0
0,52,0,27
0,52,0,0
0,52,0,0
0,50,100,3
0,50,100,0
0,50,100,0
0,50,0,27
0,50,0,0
0,50,0,0
0,47,100,3
0,47,100,0
0,47,100,0
0,47,0,27
0,47,0,0
0,47,0,0
0,45,100,3
0,45,100,0
0,45,100,0
0,45,0,27
0,45,0,0
0,45,0,0
0,43,100,3
0,43,100,0
0,35,127,0
0,43,100,0
0,35,127,30
0,35,0,30
0,35,127,3
0,35,127,0
0,43,0,30
0,43,0,0
0,35,0,0
0,43,0,0
0,35,127,30
0,28,100,15
0,52,100,0
0,40,100,0
0,35,0,0
0,35,127,0
0,50,100,1
0,62,100,0
0,50,100,0
0,50,100,1
0,50,0,22
0,52,100,0
0,62,0,0
0,64,100,0
0,35,0,0
0,50,0,0
0,52,100,0
0,50,0,6
0,52,100,0
0,40,0,12
0,52,0,0
0,52,0,12
0,57,100,0
0,28,0,0
0,64,0,0
0,69,100,0
0,52,0,0
0,57,100,0
0,52,0,6
0,57,100,0
0,57,0,24
0,52,100,0
0,69,0,0
0,64,100,0
0,57,0,0
0,52,100,0
0,57,0,6
0,52,100,0
0,52,0,24
0,55,100,0
0,64,0,0
0,67,100,0
0,38,127,0
0,52,0,0
0,55,100,0
0,55,100,0
0,52,100,2
0,64,100,0
0,52,100,0
0,55,0,1
0,52,100,2
0,52,0,24
0,50,100,0
0,64,0,0
0,62,100,0
0,52,0,0
0,50,100,0
0,52,0,6
0,50,100,0
0,50,0,20
0,62,0,0
0,50,0,0
0,47,100,4
0,59,100,0
0,47,100,0
0,50,0,2
0,47,100,4
0,43,100,2
0,55,100,0
0,43,100,0
0,47,0,2
0,43,100,2
0,40,100,3
0,52,100,0
0,40,100,0
0,43,0,1
0,40,100,3
0,35,127,54
0,28,100,30
0,52,100,0
0,40,100,0
0,35,0,0
0,35,127,0
0,40,0,24
0,52,0,0
0,40,0,6
0,50,100,0
0,28,0,0
0,28,100,0
0,52,100,0
0,40,100,0
0,52,0,0
0,62,100,0
0,35,0,0
0,35,127,0
0,40,0,0
0,50,100,0
0,40,0,6
0,50,100,0
0,50,0,24
0,52,100,0
0,62,0,0
0,64,100,0
0,35,0,0
0,50,0,0
0,52,100,0
0,50,0,6
0,52,100,0
0,40,0,12
0,52,0,0
0,52,0,12
0,57,100,0
0,28,0,0
0,64,0,0
0,69,100,0
0,52,0,0
0,57,100,0
0,52,0,6
0,57,100,0
0,57,0,24
0,52,100,0
0,69,0,0
0,64,100,0
0,57,0,0
0,52,100,0
0,57,0,6
0,52,100,0
0,52,0,24
0,55,100,0
0,64,0,0
0,67,100,0
0,38,127,0
0,52,0,0
0,55,100,0
0,52,0,6
0,55,100,0
0,52,100,3
0,64,100,0
0,52,100,0
0,55,0,1
0,52,100,3
0,52,0,24
0,50,100,0
0,64,0,0
0,62,100,0
0,52,0,0
0,50,100,0
0,52,0,6
0,50,100,0
0,50,0,24
0,47,100,0
0,62,0,0
0,59,100,0
0,50,0,0
0,47,100,0
0,47,100,0
0,43,100,3
0,55,100,0
0,43,100,0
0,47,0,1
0,43,100,3
0,38,127,0
0,43,0,0
0,28,100,24
0,52,100,0
0,40,100,0
0,38,0,0
0,35,127,0
0,35,0,30
0,40,0,18
0,52,0,0
0,28,0,12
0,28,100,0
0,52,100,0
0,40,100,0
0,35,127,0
0,40,0,24
0,52,0,0
0,28,0,6
0,28,100,0
0,52,100,0
0,40,100,0
0,35,0,0
0,35,127,0
0,50,100,1
0,62,100,0
0,50,100,0
0,50,100,1
0,50,0,22
0,52,100,0
0,62,0,0
0,64,100,0
0,35,0,0
0,50,0,0
0,52,100,0
0,50,0,6
0,52,100,0
0,40,0,12
0,52,0,0
0,52,0,12
0,57,100,0
0,28,0,0
0,64,0,0
0,69,100,0
0,52,0,0
0,57,100,0
0,52,0,6
0,57,100,0
0,57,0,24
0,52,100,0
0,69,0,0
0,64,100,0
0,57,0,0
0,52,100,0
0,57,0,6
0,52,100,0
0,52,0,24
0,55,100,0
0,64,0,0
0,67,100,0
0,38,127,0
0,52,0,0
0,55,100,0
0,55,100,0
0,52,100,2
0,64,100,0
0,52,100,0
0,55,0,1
0,52,100,2
0,52,0,24
0,50,100,0
0,64,0,0
0,62,100,0
0,52,0,0
0,50,100,0
0,52,0,6
0,50,100,0
0,50,0,20
0,62,0,0
0,50,0,0
0,47,100,4
0,59,100,0
0,47,100,0
0,50,0,2
0,47,100,4
0,43,100,2
0,55,100,0
0,43,100,0
0,47,0,2
0,43,100,2
0,40,100,3
0,52,100,0
0,38,127,0
0,40,100,0
0,43,0,1
0,40,100,3
0,38,0,24
0,40,0,30
0,50,100,0
0,52,0,0
0,62,100,0
0,35,127,0
0,40,0,0
0,50,100,0
0,40,0,6
0,50,100,0
0,50,0,24
0,52,100,0
0,28,100,0
0,52,100,0
0,40,100,0
0,62,0,0
0,64,100,0
0,35,0,0
0,35,126,0
0,50,0,0
0,52,100,0
0,50,0,6
0,52,100,0
0,40,0,18
0,52,0,0
0,52,0,6
0,57,100,0
0,28,0,0
0,28,100,0
0,52,100,0
0,40,100,0
0,64,0,0
0,69,100,0
0,35,0,0
0,35,125,0
0,52,0,0
0,57,100,0
0,52,0,6
0,57,100,0
0,57,0,24
0,52,100,0
0,69,0,0
0,64,100,0
0,35,0,0
0,57,0,0
0,52,100,0
0,57,0,6
0,52,100,0
0,40,0,12
0,52,0,0
0,52,0,9
0,64,0,0
0,52,0,0
0,55,100,3
0,67,100,0
0,55,100,0
0,55,100,3
0,52,100,2
0,64,100,0
0,38,122,0
0,52,100,0
0,55,0,2
0,52,100,2
0,52,0,21
0,64,0,0
0,52,0,0
0,50,100,3
0,62,100,0
0,38,0,0
0,50,100,0
0,52,0,3
0,50,100,3
0,50,0,21
0,62,0,0
0,50,0,0
0,47,100,3
0,59,100,0
0,47,100,0
0,50,0,3
0,47,100,3
0,47,0,21
0,59,0,0
0,47,0,0
0,45,100,3
0,57,100,0
0,45,100,0
0,47,0,3
0,45,100,3
0,45,0,21
0,57,0,0
0,45,0,0
0,43,100,3
0,50,100,0
0,43,110,0
0,55,100,0
0,40,119,0
0,43,100,0
0,50,100,0
0,45,0,3
0,43,100,3
0,50,100,0
0,43,0,18
0,40,0,6
0,45,100,0
0,52,100,0
0,45,110,0
0,55,0,0
0,57,100,0
0,40,118,0
0,50,0,0
0,43,0,0
0,45,100,0
0,52,100,0
0,50,0,6
0,43,0,0
0,45,100,0
0,52,100,0
0,45,0,18
0,40,0,6
0,52,0,30
0,45,0,0
0,46,100,0
0,53,100,0
0,46,110,0
0,57,0,0
0,58,100,0
0,47,116,0
0,52,0,0
0,45,0,0
0,46,100,0
0,53,100,0
0,52,0,6
0,45,0,0
0,46,100,0
0,53,100,0
0,46,0,18
0,47,0,6
0,47,115,0
0,53,0,30
0,46,0,0
0,47,100,0
0,54,100,0
0,47,110,0
0,58,0,0
0,59,100,0
0,47,0,0
0,47,115,0
0,53,0,0
0,46,0,0
0,47,100,0
0,54,100,0
0,53,0,6
0,46,0,0
0,47,100,0
0,54,100,0
0,40,90,0
0,40,100,0
0,49,113,0
0,35,113,0
0,54,0,0
0,47,0,0
0,54,0,6
0,47,0,0
0,40,90,0
0,35,0,8
0,49,0,0
0,40,0,46
0,55,90,0
0,28,100,0
0,40,0,0
0,55,100,0
0,40,0,6
0,55,90,0
0,55,0,24
0,52,90,0
0,55,0,0
0,52,100,0
0,55,0,6
0,52,90,0
0,52,0,24
0,28,0,0
0,50,110,0
0,59,110,0
0,52,0,0
0,42,110,0
0,38,110,0
0,52,0,6
0,38,0,8
0,42,0,0
0,52,90,46
0,28,100,0
0,42,108,0
0,52,90,6
0,42,0,8
0,59,0,22
0,50,0,0
0,52,0,24
0,52,90,0
0,28,0,0
0,50,110,0
0,59,110,0
0,42,107,0
0,35,107,0
0,52,0,6
0,52,90,0
0,35,0,8
0,42,0,0
0,59,0,34
0,50,0,0
0,28,100,12
0,50,110,0
0,59,110,0
0,42,105,0
0,42,0,14
0,52,0,46
0,52,90,0
0,28,0,0
0,40,100,0
0,42,104,0
0,38,104,0
0,52,0,6
0,52,90,0
0,38,0,8
0,42,0,0
0,40,110,46
0,42,102,0
0,42,0,14
0,59,0,10
0,50,0,0
0,52,0,6
0,52,90,0
0,40,0,0
0,28,100,0
0,52,0,6
0,52,90,0
0,52,0,4
0,52,0,6
0,40,0,2
0,40,90,12
0,28,0,0
0,28,100,0
0,50,110,0
0,59,110,0
0,36,100,0
0,42,100,0
0,52,90,6
0,40,0,4
0,42,0,4
0,36,0,0
0,52,0,2
0,28,0,14
0,59,0,18
0,50,0,0
0,55,90,12
0,28,100,0
0,50,110,0
0,59,110,0
0,42,100,0
0,67,90,6
0,42,0,8
0,55,0,16
0,52,90,0
0,67,0,6
0,64,90,0
0,59,0,12
0,50,0,0
0,52,0,12
0,28,0,0
0,40,110,0
0,38,100,0
0,42,100,0
0,64,0,6
0,42,0,8
0,38,0,0
0,40,0,34
0,52,90,12
0,28,100,0
0,50,110,0
0,57,110,0
0,42,100,0
0,64,90,6
0,42,0,8
0,28,0,46
0,36,100,0
0,42,100,0
0,42,0,14
0,36,0,0
0,52,0,46
0,50,90,0
0,28,100,0
0,46,100,0
0,64,0,6
0,62,90,0
0,46,0,8
0,50,0,16
0,47,90,0
0,62,0,6
0,59,90,0
0,47,0,24
0,43,90,0
0,28,0,0
0,40,100,0
0,74,100,0
0,71,100,0
0,40,100,0
0,42,100,0
0,59,0,6
0,55,90,0
0,42,0,8
0,40,0,0
0,40,100,16
0,40,0,14
0,69,100,0
0,73,100,0
0,40,100,0
0,40,100,16
0,40,0,14
0,43,0,11
0,28,100,0
0,40,110,0
0,73,0,0
0,69,0,0
0,67,100,0
0,71,100,0
0,35,100,0
0,42,100,0
0,55,0,1
0,55,90,30
0,28,100,0
0,46,100,0
0,67,90,6
0,46,0,8
0,55,0,16
0,52,90,0
0,67,0,6
0,64,90,0
0,52,0,24
0,28,0,0
0,50,110,0
0,59,110,0
0,38,100,0
0,42,100,0
0,64,0,6
0,42,0,8
0,38,0,0
0,59,0,34
0,50,0,0
0,52,90,12
0,28,100,0
0,64,90,6
0,38,100,24
0,38,0,14
0,52,0,11
0,52,90,2
0,28,0,0
0,50,110,0
0,59,110,0
0,35,100,0
0,42,100,0
0,64,0,1
0,64,90,2
0,28,100,12
0,50,110,0
0,59,110,0
0,42,100,0
0,42,0,14
0,40,0,22
0,52,0,24
0,52,90,0
0,28,0,0
0,40,100,0
0,38,100,0
0,42,100,0
0,64,0,6
0,64,90,0
0,42,0,8
0,38,0,0
0,40,110,46
0,42,100,0
0,42,0,14
0,59,0,10
0,50,0,0
0,52,0,6
0,52,90,0
0,40,0,0
0,28,100,0
0,64,0,6
0,64,90,0
0,52,0,4
0,64,0,6
0,40,0,2
0,52,81,12
0,28,0,0
0,28,100,0
0,50,110,0
0,59,110,0
0,42,100,0
0,35,100,0
0,64,81,6
0,52,0,4
0,35,0,4
0,42,0,0
0,64,0,2
0,28,0,14
0,59,0,18
0,50,0,0
0,55,80,12
0,28,100,0
0,50,110,0
0,59,110,0
0,71,0,0
0,67,0,0
0,42,100,0
0,67,80,6
0,42,0,8
0,55,0,16
0,52,80,0
0,67,0,6
0,64,79,0
0,52,0,24
0,28,0,0
0,42,100,0
0,38,100,0
0,64,0,6
0,38,0,8
0,42,0,0
0,52,78,46
0,28,100,0
0,40,110,0
0,42,100,0
0,64,78,6
0,42,0,8
0,59,0,10
0,50,0,0
0,40,0,24
0,52,0,12
0,50,76,0
0,28,0,0
0,50,110,0
0,59,110,0
0,42,100,0
0,35,100,0
0,64,0,6
0,62,76,0
0,35,0,8
0,42,0,0
0,50,0,16
0,47,76,0
0,62,0,6
0,59,76,0
0,59,0,12
0,50,0,0
0,43,75,0
0,28,100,0
0,50,110,0
0,59,110,0
0,46,100,0
0,74,121,0
0,59,0,6
0,55,75,0
0,46,0,8
0,40,100,0
0,42,100,0
0,38,100,0
0,74,0,0
0,76,121,0
0,38,0,14
0,42,0,0
0,59,0,22
0,50,0,0
0,50,110,0
0,76,0,0
0,74,121,0
0,28,100,0
0,38,100,0
0,38,0,14
0,50,0,4
0,43,0,7
0,52,64,0
0,59,64,0
0,64,64,0
0,28,0,0
0,28,100,0
0,50,110,0
0,59,110,0
0,35,100,0
0,42,100,0
0,71,90,0
0,64,90,0
0,59,90,0
0,74,0,0
0,79,121,0
0,55,0,1
0,28,100,0
0,50,110,0
0,59,110,0
0,42,100,0
0,59,0,0
0,64,0,0
0,71,0,0
0,59,90,0
0,64,90,0
0,71,90,0
0,79,0,0
0,79,121,0
0,42,0,14
0,64,0,16
0,59,0,0
0,52,0,0
0,52,64,0
0,59,64,0
0,64,64,0
0,71,0,0
0,64,0,0
0,59,0,0
0,71,90,0
0,64,90,0
0,59,90,0
0,50,0,18
0,50,110,0
