track,note,velocity,time
1,71,106,7272
1,71,103,68
1,71,127,132
1,71,112,112
1,71,127,108
1,71,106,106
1,71,106,140
1,71,94,120
1,69,94,368
1,67,112,176
1,69,83,1608
1,69,92,108
1,69,112,116
1,71,127,62
1,69,112,152
1,67,127,770
1,66,120,56
1,67,127,2
1,68,74,0
1,69,81,34
1,69,92,1380
1,70,88,184
1,71,106,28
1,71,112,82
1,71,112,120
1,67,39,18
1,69,74,14
1,71,103,38
1,71,112,70
1,71,120,108
1,71,127,116
1,69,85,382
1,67,89,152
1,64,103,1510
1,67,106,22
1,69,100,108
1,69,92,80
1,71,100,34
1,69,127,48
1,67,89,760
1,64,81,34
1,67,103,2
1,67,127,88
1,71,81,1352
1,71,103,70
1,71,127,140
1,71,92,108
1,71,100,110
1,71,100,122
1,74,71,38
1,70,69,370
1,71,87,0
1,69,67,4
1,69,85,478
1,67,106,164
1,64,127,1244
1,67,103,18
1,69,112,46
1,69,94,68
1,69,100,84
1,69,103,122
1,69,106,110
1,67,127,188
1,66,127,504
1,67,127,0
1,68,20,298
1,69,127,64
1,67,127,842
1,69,85,198
1,71,94,24
1,71,97,90
1,71,120,102
1,71,100,108
1,71,100,100
1,71,94,76
1,74,103,28
1,71,100,20
1,69,106,544
1,67,120,164
1,68,78,2752
1,69,90,2
1,69,94,64
1,69,106,88
1,71,85,4
1,69,127,200
1,67,103,696
1,64,92,28
1,67,106,204
1,67,127,108
1,67,127,170
1,69,90,194
1,70,94,46
1,67,72,12
1,71,127,32
1,71,103,56
1,71,120,84
1,71,127,126
1,71,120,76
1,71,112,80
1,71,127,108
1,71,127,94
1,69,106,550
1,67,103,100
1,67,106,88
1,64,127,1630
1,67,112,30
1,69,80,76
1,69,106,88
1,71,97,28
1,69,120,206
1,67,127,722
1,66,127,106
1,67,112,0
1,68,13,336
1,69,94,42
1,69,100,160
1,70,17,302
1,71,97,6
1,71,103,72
1,71,120,94
1,71,127,106
1,75,127,408
1,76,127,22
1,74,127,346
1,70,102,356
1,71,120,6
1,69,36,460
1,71,127,84
1,69,106,198
1,67,112,166
1,67,127,130
1,67,76,48
1,64,103,24
1,67,100,176
1,69,120,58
1,69,90,64
1,69,127,132
1,71,92,10
1,69,127,200
1,67,127,528
1,64,120,332
1,67,127,192
1,67,127,60
1,67,109,402
1,71,123,6
1,74,127,212
1,74,127,280
1,71,127,4
1,67,127,2
1,74,127,162
1,71,119,118
1,69,112,200
1,67,115,156
1,62,115,206
1,67,123,4
1,67,109,1278
1,71,127,4
1,74,127,220
1,71,119,174
1,67,103,4
1,76,103,0
1,66,88,682
1,69,105,8
1,74,105,4
1,69,112,416
1,71,88,188
1,69,102,92
1,74,123,4
1,74,119,2
1,66,115,0
1,67,119,180
1,67,102,46
1,64,76,24
1,69,112,0
1,64,109,34
1,66,95,0
1,62,95,0
1,71,119,720
1,74,108,0
1,71,127,82
1,74,127,2
1,67,127,6
1,74,127,300
1,65,127,0
1,71,123,0
1,74,123,68
1,65,119,0
1,71,109,0
1,71,119,156
1,67,119,0
1,69,99,192
1,67,102,124
1,67,98,148
1,64,82,0
1,60,32,0
1,67,102,122
1,64,119,96
1,69,123,0
1,61,99,0
1,64,127,422
1,60,127,0
1,69,123,0
1,64,119,48
1,69,119,0
1,60,112,0
1,64,127,48
1,60,123,0
1,69,123,0
1,60,102,46
1,71,115,18
1,62,114,16
1,66,114,0
1,69,103,0
1,62,96,8
1,67,127,0
1,64,119,192
1,67,127,150
1,62,85,236
1,67,109,0
1,59,88,0
1,64,120,11416
1,67,97,196
1,69,83,18
1,71,103,0
1,71,103,108
1,71,127,94
1,71,127,104
1,71,120,74
1,71,127,140
1,71,69,106
1,68,39,304
1,69,87,36
1,67,127,230
1,64,103,1232
1,69,90,32
1,68,76,4
1,69,100,80
1,69,120,106
1,69,92,44
1,69,97,78
1,67,127,734
1,66,127,96
1,67,106,220
1,68,88,340
1,69,103,6
1,67,120,1340
1,69,90,208
1,71,94,210
1,71,106,122
1,71,100,90
1,71,106,94
1,71,94,50
1,71,100,104
1,71,103,122
1,69,127,240
1,67,127,190
1,64,127,1222
1,67,106,26
1,69,120,46
1,69,106,94
1,69,127,144
1,70,91,556
1,71,120,34
1,69,103,182
1,67,127,648
1,64,127,16
1,67,127,222
1,67,127,132
1,69,106,3022
1,70,102,158
1,71,103,38
1,71,94,46
1,71,127,116
1,71,112,84
1,71,127,94
1,71,103,82
1,74,127,42
1,71,112,316
1,71,87,58
1,68,56,204
1,69,103,0
1,67,106,204
1,67,127,148
1,67,97,130
1,69,83,42
1,69,100,92
1,68,127,118
1,69,127,42
1,69,94,60
1,69,92,64
1,75,127,174
1,76,78,14
1,74,60,12
1,74,127,36
1,70,127,8
1,71,120,0
1,69,87,26
1,67,127,2750
1,69,100,176
1,70,120,20
1,71,127,62
1,71,106,56
1,71,106,92
1,71,127,144
1,76,103,102
1,74,127,26
1,70,80,16
1,71,112,8
1,71,127,112
1,70,83,4
1,69,120,0
1,69,127,486
1,67,127,186
1,64,127,2394
1,68,102,146
1,69,78,22
1,69,92,70
1,69,106,74
1,71,92,544
1,69,127,176
1,67,127,694
1,64,112,138
1,67,127,14
1,67,127,114
1,67,109,10
1,71,123,6
1,74,127,212
1,69,123,158
1,70,99,214
1,74,127,16
1,71,127,4
1,67,127,2
1,74,127,162
1,71,119,118
1,69,112,200
1,67,115,156
1,62,115,206
1,67,123,4
1,67,109,1278
1,71,127,4
1,74,127,220
1,71,119,174
1,67,103,4
1,76,103,0
1,66,88,682
1,69,105,8
1,74,105,4
1,69,112,416
1,71,88,188
1,69,102,92
1,74,123,4
1,74,119,2
1,66,115,0
1,67,119,180
1,67,102,46
1,64,76,24
1,69,112,0
1,64,109,34
1,66,95,0
1,62,95,0
1,71,119,720
1,74,108,0
1,71,127,82
1,74,127,2
1,67,127,6
1,74,127,300
1,65,127,0
1,71,123,0
1,74,123,68
1,65,119,0
1,71,109,0
1,71,119,156
1,67,119,0
1,69,99,192
1,67,102,124
1,67,98,148
1,64,82,0
1,60,32,0
1,67,102,122
1,64,119,96
1,69,123,0
1,61,99,0
1,64,127,422
1,60,127,0
1,69,123,0
1,64,119,48
1,69,119,0
1,60,112,0
1,64,127,48
1,60,123,0
1,69,123,0
1,60,102,46
1,71,115,18
1,62,114,16
1,66,114,0
1,69,103,0
1,62,96,8
1,67,127,0
1,64,119,192
1,67,127,150
1,62,85,236
1,67,109,0
1,59,88,0
1,67,94,11562
1,71,127,52
1,71,112,66
1,71,127,104
1,71,120,134
1,71,127,114
1,71,127,112
1,71,127,154
1,71,120,82
1,68,127,322
1,69,112,32
1,67,127,226
1,64,127,1182
1,69,62,52
1,67,127,20
1,69,106,154
1,69,127,110
1,69,112,78
1,69,120,84
1,67,127,20
1,66,127,122
1,67,127,22
1,69,127,104
1,69,90,118
1,71,127,52
1,71,112,74
1,71,127,148
1,71,120,90
1,76,127,60
1,74,127,452
1,71,127,474
1,71,127,112
1,69,127,214
1,67,127,336
1,64,127,1574
1,67,120,8
1,68,127,190
1,69,90,14
1,69,127,62
1,69,120,80
1,71,103,12
1,69,127,208
1,67,127,704
1,64,127,20
1,67,127,232
1,67,127,122
1,69,106,4
1,67,127,198
1,70,127,144
1,71,92,8
1,71,112,56
1,71,127,70
1,71,103,46
1,76,127,434
1,74,127,306
1,71,127,368
1,71,106,84
1,68,91,316
1,69,103,10
1,67,127,218
1,67,127,120
1,64,120,2310
1,69,103,54
1,68,72,4
1,69,103,66
1,69,127,74
1,69,92,38
1,69,106,70
1,69,97,174
1,71,127,58
1,69,100,196
1,67,127,312
1,69,112,180
1,69,112,144
1,70,120,310
1,71,127,10
1,71,112,60
1,71,127,84
1,71,120,150
1,71,127,104
1,71,120,98
1,74,103,80
1,71,120,586
1,69,127,32
1,67,127,230
1,73,29,36
1,67,127,234
1,69,127,396
1,69,97,70
1,69,127,94
1,71,97,530
1,69,127,204
1,67,127,772
1,64,127,18
1,67,127,208
1,67,127,116
1,67,127,134
1,69,127,366
1,70,74,4
1,71,106,10
1,71,127,78
1,71,127,108
1,74,112,12
1,74,120,114
1,71,127,600
1,69,103,332
1,67,127,184
1,67,127,86
1,67,127,118
1,69,106,30
1,69,103,72
1,69,127,134
1,69,127,98
1,69,127,138
1,75,127,684
1,76,89,12
1,74,127,244
1,71,120,208
1,69,120,66
1,69,120,256
1,70,107,168
1,71,106,160
1,71,103,48
1,71,127,124
1,71,127,122
1,76,127,620
1,75,63,4
1,74,127,334
1,71,103,180
1,71,127,110
1,69,97,358
1,67,127,382
1,64,127,1522
1,67,127,194
1,69,106,22
1,69,103,76
1,69,127,116
1,71,100,532
1,69,127,196
1,67,127,702
1,64,120,12
1,67,127,210
1,67,127,100
1,67,109,10
1,71,123,6
1,74,127,212
1,69,123,158
1,70,99,214
1,74,127,16
1,71,127,4
1,67,127,2
1,74,127,162
1,71,119,118
1,69,112,200
1,67,115,156
1,62,115,206
1,67,123,4
1,67,109,1278
1,71,127,4
1,74,127,220
1,71,119,174
1,67,103,4
1,76,103,0
1,66,88,682
1,69,105,8
1,74,105,4
1,69,112,416
1,71,88,188
1,69,102,92
1,74,123,4
1,74,119,2
1,66,115,0
1,67,119,180
1,67,102,46
1,64,76,24
1,69,112,0
1,64,109,34
1,66,95,0
1,62,95,0
1,71,119,720
1,74,108,0
1,71,127,82
1,74,127,2
1,67,127,6
1,74,127,300
1,65,127,0
1,71,123,0
1,74,123,68
1,65,119,0
1,71,109,0
1,71,119,156
1,67,119,0
1,69,99,192
1,67,102,124
1,67,98,148
1,64,82,0
1,60,32,0
1,67,102,122
1,64,119,96
1,69,123,0
1,61,99,0
1,64,127,422
1,60,127,0
1,69,123,0
1,64,119,48
1,69,119,0
1,60,112,0
1,64,127,48
1,60,123,0
1,69,123,0
1,60,102,46
1,71,115,18
1,62,114,16
1,66,114,0
1,69,103,0
1,62,96,8
1,67,127,0
1,64,119,192
1,67,127,150
1,62,85,236
1,67,109,0
1,59,88,0
1,64,127,1440
1,60,127,0
1,69,123,0
1,64,119,48
1,69,119,0
1,60,112,0
1,64,127,48
1,60,123,0
1,69,123,0
1,60,102,46
1,71,115,18
1,62,114,16
1,66,114,0
1,69,103,0
1,62,96,8
1,67,127,0
1,64,119,192
1,67,127,150
1,62,85,236
1,67,109,0
1,59,88,0
1,64,127,3072
1,60,127,0
1,69,123,0
1,64,119,48
1,69,119,0
1,60,112,0
1,64,127,48
1,60,123,0
1,69,123,0
1,60,102,46
1,71,115,18
1,62,114,16
1,66,114,0
1,69,103,0
1,62,96,8
1,67,127,0
1,64,119,192
1,67,127,150
1,62,85,236
1,67,109,0
1,59,88,0
2,31,119,2
2,31,105,210
2,43,112,8
2,31,85,0
2,31,112,96
2,31,109,192
2,43,109,0
2,31,109,0
2,43,99,0
2,36,119,0
2,36,109,192
2,31,112,0
2,31,90,96
2,36,115,0
2,36,123,26
2,31,115,0
2,36,112,0
2,31,96,0
2,33,127,96
2,33,109,96
2,40,112,0
2,33,115,96
2,40,105,0
2,38,115,0
2,38,112,96
2,45,109,0
2,38,112,0
2,45,105,0
2,31,119,0
2,31,105,96
2,43,112,0
2,31,115,0
2,31,112,96
2,31,115,192
2,38,112,0
2,31,123,0
2,38,102,0
2,31,127,0
2,31,109,96
2,38,115,0
2,38,102,96
2,31,112,0
2,31,109,192
2,38,123,0
2,31,112,0
2,38,96,192
2,36,112,0
2,36,102,192
2,31,123,0
2,31,127,192
2,36,123,0
2,36,119,28
2,31,119,0
2,36,123,0
2,33,123,0
2,33,115,192
2,40,115,0
2,33,115,0
2,33,115,96
2,33,119,26
2,40,112,0
2,33,123,0
2,40,102,0
2,38,112,0
2,38,109,192
2,33,119,0
2,33,123,10
2,38,127,0
2,33,88,0
2,38,123,20
2,33,119,0
2,36,119,0
2,35,102,0
2,33,93,0
2,31,115,4
2,31,115,192
2,38,115,0
2,38,112,4
2,31,123,0
2,31,115,192
2,43,112,0
2,31,123,0
2,38,115,0
2,36,123,0
2,36,105,192
2,31,115,38
2,31,115,2
2,36,119,0
2,36,127,8
2,31,123,0
2,35,123,0
2,33,127,4
2,33,119,10
2,40,123,0
2,33,123,4
2,35,112,0
2,36,123,0
2,36,119,96
2,38,90,0
2,36,99,96
2,38,102,0
2,31,123,0
2,31,123,192
2,43,119,0
2,31,119,0
2,31,123,0
2,31,123,44
2,43,119,0
2,31,119,0
2,31,127,0
2,31,109,96
2,38,115,0
2,38,102,96
2,31,112,0
2,31,109,192
2,38,123,0
2,31,112,0
2,38,96,192
2,36,112,0
2,36,102,192
2,31,123,0
2,31,127,192
2,36,123,0
2,36,119,28
2,31,119,0
2,36,123,0
2,33,123,0
2,33,115,192
2,40,115,0
2,33,115,0
2,33,115,96
2,33,119,26
2,40,112,0
2,33,123,0
2,40,102,0
2,38,112,0
2,38,109,192
2,33,119,0
2,33,123,10
2,38,127,0
2,33,88,0
2,38,123,20
2,33,119,0
2,36,119,0
2,35,102,0
2,33,93,0
2,31,115,4
2,31,115,192
2,38,115,0
2,38,112,4
2,31,123,0
2,31,115,192
2,43,112,0
2,31,123,0
2,38,115,0
2,36,123,0
2,36,105,192
2,31,115,38
2,31,115,2
2,36,119,0
2,36,127,8
2,31,123,0
2,35,123,0
2,33,127,4
2,33,119,10
2,40,123,0
2,33,123,4
2,35,112,0
2,36,123,0
2,36,119,96
2,38,90,0
2,36,99,96
2,38,102,0
2,31,123,0
2,31,123,192
2,43,119,0
2,31,119,0
2,31,123,0
2,31,123,44
2,43,119,0
2,31,119,0
2,31,127,0
2,31,109,96
2,38,115,0
2,38,102,96
2,31,112,0
2,31,109,192
2,38,123,0
2,31,112,0
2,38,96,192
2,36,112,0
2,36,102,192
2,31,123,0
2,31,127,192
2,36,123,0
2,36,119,28
2,31,119,0
2,36,123,0
2,33,123,0
2,33,115,192
2,40,115,0
2,33,115,0
2,33,115,96
2,33,119,26
2,40,112,0
2,33,123,0
2,40,102,0
2,38,112,0
2,38,109,192
2,33,119,0
2,33,123,10
2,38,127,0
2,33,88,0
2,38,123,20
2,33,119,0
2,36,119,0
2,35,102,0
2,33,93,0
2,31,115,4
2,31,115,192
2,38,115,0
2,38,112,4
2,31,123,0
2,31,115,192
2,43,112,0
2,31,123,0
2,38,115,0
2,36,123,0
2,36,105,192
2,31,115,38
2,31,115,2
2,36,119,0
2,36,127,8
2,31,123,0
2,35,123,0
2,33,127,4
2,33,119,10
2,40,123,0
2,33,123,4
2,35,112,0
2,36,123,0
2,36,119,96
2,38,90,0
2,36,99,96
2,38,102,0
2,31,123,0
2,31,123,192
2,43,119,0
2,31,119,0
2,31,127,1536
2,31,115,100
2,31,127,108
2,31,127,2
2,31,127,8
2,31,127,6
2,31,127,2
2,31,127,4
2,31,127,4
2,36,127,222
2,31,127,6
2,31,127,2
2,30,119,156
2,28,127,110
2,28,127,150
2,28,127,124
2,35,127,6
2,35,127,4
2,35,127,128
2,33,127,2
2,33,123,14
2,33,123,10
2,38,123,174
2,38,127,8
2,38,127,116
2,36,109,280
2,31,127,136
2,31,119,10
2,31,127,2
2,43,127,6
2,43,119,208
2,43,123,2
2,36,123,56
2,36,127,6
2,36,127,4
2,35,127,8
2,33,127,4
2,33,119,22
2,43,78,78
2,45,127,0
2,33,127,2
2,33,119,184
2,33,123,14
2,38,119,66
2,38,127,6
2,38,123,124
2,36,109,376
2,35,109,48
2,31,119,2
2,31,105,210
2,43,112,8
2,31,85,0
2,31,112,96
2,31,109,192
2,43,109,0
2,31,109,0
2,43,99,0
2,36,119,0
2,36,109,192
2,31,112,0
2,31,90,96
2,36,115,0
2,36,123,26
2,31,115,0
2,36,112,0
2,31,96,0
2,33,127,96
2,33,109,96
2,40,112,0
2,33,115,96
2,40,105,0
2,38,115,0
2,38,112,96
2,45,109,0
2,38,112,0
2,45,105,0
2,31,119,0
2,31,105,96
2,43,112,0
2,31,115,0
2,31,112,96
2,31,115,192
2,38,112,0
2,31,123,0
