track,note,velocity,time
1,50,100,1
1,50,0,28
1,52,100,0
1,52,0,30
1,57,100,0
1,57,0,30
1,52,100,0
1,52,0,30
1,55,100,0
1,55,0,51
1,52,100,2
1,52,0,30
1,50,100,0
1,50,0,26
1,47,100,4
1,47,0,41
1,43,100,2
1,43,0,21
1,40,100,3
1,40,0,120
1,50,100,0
1,50,0,30
1,52,100,0
1,52,0,30
1,57,100,0
1,57,0,30
1,52,100,0
1,52,0,30
1,55,100,0
1,55,0,48
1,52,100,3
1,52,0,30
1,50,100,0
1,50,0,30
1,47,100,0
1,47,0,53
1,43,100,3
1,43,0,2
1,50,100,1
1,50,0,28
1,52,100,0
1,52,0,30
1,57,100,0
1,57,0,30
1,52,100,0
1,52,0,30
1,55,100,0
1,55,0,51
1,52,100,2
1,52,0,30
1,50,100,0
1,50,0,26
1,47,100,4
1,47,0,41
1,43,100,2
1,43,0,24
1,40,100,3
1,40,0,60
1,50,100,0
1,50,0,30
1,52,100,0
1,52,0,30
1,57,100,0
1,57,0,30
1,52,100,0
1,52,0,27
1,55,100,3
1,55,0,56
1,52,100,2
1,52,0,27
1,50,100,3
1,50,0,27
1,47,100,3
1,47,0,27
1,45,100,3
1,45,0,27
1,43,100,3
1,43,0,56
1,50,100,1
1,50,0,28
1,52,100,0
1,52,0,30
1,57,100,0
1,57,0,30
1,52,100,0
1,52,0,30
1,55,100,0
1,55,0,51
1,52,100,2
1,52,0,30
1,50,100,0
1,50,0,26
1,47,100,4
1,47,0,41
1,43,100,2
1,43,0,51
1,40,100,3
1,40,0,120
1,50,100,0
1,50,0,30
1,52,100,0
1,52,0,30
1,57,100,0
1,57,0,30
1,52,100,0
1,52,0,30
1,55,100,0
1,55,0,48
1,52,100,3
1,52,0,30
1,50,100,0
1,50,0,30
1,47,100,0
1,47,0,53
1,43,100,3
1,43,0,2
1,50,100,1
1,50,0,28
1,52,100,0
1,52,0,30
1,57,100,0
1,57,0,30
1,52,100,0
1,52,0,30
1,55,100,0
1,55,0,51
1,52,100,2
1,52,0,30
1,50,100,0
1,50,0,26
1,47,100,4
1,47,0,41
1,43,100,2
1,43,0,51
1,40,100,3
1,40,0,60
1,50,100,0
1,50,0,30
1,52,100,0
1,52,0,30
1,57,100,0
1,57,0,30
1,52,100,0
1,52,0,27
1,55,100,3
1,55,0,56
1,52,100,2
1,52,0,27
1,50,100,3
1,50,0,27
1,47,100,3
1,47,0,27
1,45,100,3
1,45,0,27
1,43,100,3
1,50,100,0
1,50,0,60
1,43,0,0
1,45,100,0
1,52,100,0
1,52,0,60
1,45,0,0
1,46,100,0
1,53,100,0
1,53,0,60
1,46,0,0
1,47,100,0
1,54,100,0
1,54,0,60
1,47,0,0
1,40,90,0
1,40,0,60
1,55,90,0
1,55,0,30
1,52,90,0
1,52,0,30
1,52,90,60
1,52,0,60
1,52,90,0
1,52,0,120
1,52,90,0
1,52,0,90
1,52,90,0
1,52,0,10
1,40,90,20
1,40,0,10
1,55,90,50
1,55,0,30
1,52,90,0
1,52,0,30
1,52,90,60
1,52,0,120
1,50,90,0
1,50,0,30
1,47,90,0
1,47,0,30
1,43,90,0
1,43,0,60
1,55,90,62
1,55,0,30
1,52,90,0
1,52,0,30
1,52,90,60
1,52,0,55
1,52,90,2
1,52,0,108
1,52,90,0
1,52,0,90
1,52,90,0
1,52,0,10
1,52,81,20
1,52,0,10
1,55,80,50
1,55,0,30
1,52,80,0
1,52,0,30
1,52,78,60
1,52,0,60
1,50,76,0
1,50,0,30
1,47,76,0
1,47,0,30
1,43,75,0
1,43,0,53
1,52,64,2
1,59,64,0
1,64,64,0
1,64,0,90
1,59,0,0
1,52,0,0
1,52,64,0
1,59,64,0
1,64,64,0
1,64,0,30
1,59,0,0
1,52,0,0
1,52,90,540
1,59,90,0
1,64,90,0
1,64,0,10
1,59,0,0
1,52,0,0
1,64,90,20
1,59,90,0
1,52,90,0
1,52,0,10
1,59,0,0
1,64,0,0
1,52,90,20
1,59,90,0
1,64,90,0
1,64,0,60
1,59,0,0
1,52,0,0
1,52,90,0
1,59,90,0
1,64,90,0
1,64,0,10
1,59,0,0
1,52,0,0
1,52,90,20
1,59,90,0
1,64,90,0
1,64,0,10
1,59,0,0
1,52,0,0
1,50,90,5
1,57,90,0
1,62,90,0
1,62,0,10
1,57,0,0
1,50,0,0
1,52,74,956
1,59,74,0
1,64,74,0
1,64,0,120
1,59,0,0
1,52,0,0
1,52,83,540
1,59,83,0
1,64,83,0
1,64,0,10
1,59,0,0
1,52,0,0
1,64,83,20
1,59,83,0
1,52,83,0
1,52,0,10
1,59,0,0
1,64,0,0
1,52,83,20
1,59,83,0
1,64,83,0
1,64,0,60
1,59,0,0
1,52,0,0
1,52,83,0
1,59,83,0
1,64,83,0
1,64,0,10
1,59,0,0
1,52,0,0
1,52,83,20
1,59,83,0
1,64,83,0
1,64,0,10
1,59,0,0
1,52,0,0
1,50,83,5
1,57,83,0
1,62,83,0
1,62,0,10
1,57,0,0
1,50,0,0
1,57,72,956
1,64,72,0
1,69,72,0
1,69,0,720
1,64,0,0
1,57,0,0
1,40,88,240
1,40,0,30
1,55,88,30
1,55,0,30
1,52,88,0
1,52,0,30
1,52,88,60
1,52,0,60
1,52,88,0
1,52,0,120
1,52,88,0
1,52,0,120
1,52,100,0
1,52,0,10
1,55,100,50
1,55,0,30
1,52,100,0
1,52,0,30
1,52,100,60
1,52,0,60
1,50,100,0
1,50,0,30
1,47,100,0
1,47,0,30
1,44,100,0
1,44,0,60
1,45,100,0
1,45,0,60
1,46,100,0
1,46,0,60
1,59,72,0
1,66,72,0
1,71,72,0
1,71,0,960
1,66,0,0
1,59,0,0
1,57,72,0
1,64,72,0
1,67,72,0
1,73,72,0
1,73,0,900
1,57,0,0
1,64,0,0
1,67,0,0
1,52,100,0
1,57,100,0
1,57,0,15
1,52,0,0
1,52,100,15
1,57,100,0
1,57,0,15
1,52,0,0
1,50,100,1
1,50,0,28
1,52,100,0
1,52,0,30
1,57,100,0
1,57,0,30
1,52,100,0
1,52,0,30
1,55,100,0
1,55,0,51
1,52,100,2
1,52,0,30
1,50,100,0
1,50,0,26
1,47,100,4
1,47,0,41
1,43,100,2
1,43,0,51
1,40,100,3
1,40,0,120
1,50,100,0
1,50,0,30
1,52,100,0
1,52,0,30
1,57,100,0
1,57,0,30
1,52,100,0
1,52,0,30
1,55,100,0
1,55,0,48
1,52,100,3
1,52,0,30
1,50,100,0
1,50,0,30
1,47,100,0
1,47,0,53
1,43,100,3
1,43,0,2
1,50,100,1
1,50,0,28
1,52,100,0
1,52,0,30
1,57,100,0
1,57,0,30
1,52,100,0
1,52,0,30
1,55,100,0
1,55,0,51
1,52,100,2
1,52,0,30
1,50,100,0
1,50,0,26
1,47,100,4
1,47,0,41
1,43,100,2
1,43,0,51
1,40,100,3
1,40,0,60
1,50,100,0
1,50,0,30
1,52,100,0
1,52,0,30
1,57,90,0
1,57,0,30
1,52,90,0
1,52,0,27
1,55,90,3
1,55,0,56
1,52,90,2
1,52,0,27
1,50,90,3
1,50,0,27
1,47,90,3
1,47,0,27
1,45,90,3
1,45,0,27
1,43,90,3
1,50,90,0
1,50,0,60
1,43,0,0
1,45,90,0
1,52,90,0
1,52,0,60
1,45,0,0
1,46,90,0
1,53,90,0
1,53,0,60
1,46,0,0
1,47,90,0
1,54,90,0
1,54,0,60
1,47,0,0
1,40,90,0
1,40,0,60
1,55,90,0
1,55,0,30
1,52,90,0
1,52,0,30
1,52,90,60
1,52,0,60
1,52,90,0
1,52,0,120
1,52,90,0
1,52,0,90
1,52,90,0
1,52,0,10
1,40,90,20
1,40,0,10
1,55,90,50
1,55,0,30
1,52,90,0
1,52,0,30
1,52,90,60
1,52,0,120
1,50,90,0
1,50,0,30
1,47,90,0
1,47,0,30
1,43,90,0
1,43,0,60
1,55,90,62
1,55,0,30
1,52,90,0
1,52,0,30
1,52,90,60
1,52,0,55
1,52,90,2
1,52,0,108
1,52,90,0
1,52,0,90
1,52,90,0
1,52,0,10
1,52,90,20
1,52,0,10
1,55,90,50
1,55,0,30
1,52,90,0
1,52,0,30
1,52,90,60
1,52,0,60
1,50,90,0
1,50,0,30
1,47,90,0
1,47,0,30
1,43,90,0
1,43,0,53
1,52,64,2
1,59,64,0
1,64,64,0
1,64,0,90
1,59,0,0
1,52,0,0
1,52,64,0
1,59,64,0
1,64,64,0
1,64,0,30
1,59,0,0
1,52,0,0
1,52,90,540
1,59,90,0
1,64,90,0
1,64,0,10
1,59,0,0
1,52,0,0
1,64,90,20
1,59,90,0
1,52,90,0
1,52,0,10
1,59,0,0
1,64,0,0
1,52,90,20
1,59,90,0
1,64,90,0
1,64,0,60
1,59,0,0
1,52,0,0
1,52,90,0
1,59,90,0
1,64,90,0
1,64,0,10
1,59,0,0
1,52,0,0
1,52,90,20
1,59,90,0
1,64,90,0
1,64,0,10
1,59,0,0
1,52,0,0
1,50,90,5
1,57,90,0
1,62,90,0
1,62,0,10
1,57,0,0
1,50,0,0
1,52,90,956
1,59,90,0
1,64,90,0
1,64,0,120
1,59,0,0
1,52,0,0
1,52,90,540
1,59,90,0
1,64,90,0
1,64,0,10
1,59,0,0
1,52,0,0
1,64,90,20
1,59,90,0
1,52,90,0
1,52,0,10
1,59,0,0
1,64,0,0
1,52,90,20
1,59,90,0
1,64,90,0
1,64,0,60
1,59,0,0
1,52,0,0
1,52,90,0
1,59,90,0
1,64,90,0
1,64,0,10
1,59,0,0
1,52,0,0
1,52,90,20
1,59,90,0
1,64,90,0
1,64,0,10
1,59,0,0
1,52,0,0
1,50,90,5
1,57,90,0
1,62,90,0
1,62,0,10
1,57,0,0
1,50,0,0
1,45,72,956
1,52,72,0
1,57,72,0
1,57,0,720
1,52,0,0
1,45,0,0
1,40,81,240
1,40,0,60
1,55,81,0
1,55,0,30
1,52,81,0
1,52,0,30
1,52,81,60
1,52,0,60
1,52,81,0
1,52,0,120
1,52,81,0
1,52,0,120
1,52,81,0
1,52,0,15
1,55,81,45
1,55,0,30
1,52,81,0
1,52,0,30
1,52,81,60
1,52,0,60
1,50,81,0
1,50,0,30
1,47,81,0
1,47,0,30
1,44,81,0
1,44,0,60
1,45,81,0
1,45,0,60
1,46,81,0
1,46,0,60
1,47,81,0
1,59,81,0
1,54,81,0
1,54,0,960
1,59,0,0
1,47,0,0
1,45,72,0
1,52,72,0
1,55,72,0
1,61,72,0
1,61,0,240
1,45,0,0
1,52,0,0
1,55,0,0
1,45,72,0
1,54,72,0
1,55,72,0
1,62,72,0
1,62,0,240
1,45,0,0
1,54,0,0
1,55,0,0
1,45,90,0
1,55,90,0
1,64,90,0
1,64,0,420
1,55,0,0
1,45,0,0
1,52,99,0
1,57,99,0
1,57,0,30
1,52,0,0
1,52,99,0
1,57,99,0
1,57,0,30
1,52,0,0
1,50,100,1
1,50,0,28
1,52,100,0
1,52,0,30
1,57,100,0
1,57,0,30
1,52,100,0
1,52,0,30
1,55,100,0
1,55,0,51
1,52,100,2
1,52,0,30
1,50,100,0
1,50,0,26
1,47,100,4
1,47,0,41
1,43,100,2
1,43,0,51
1,40,100,3
1,40,0,120
1,50,100,0
1,50,0,30
1,52,100,0
1,52,0,30
1,57,100,0
1,57,0,30
1,52,100,0
1,52,0,30
1,55,100,0
1,55,0,48
1,52,100,3
1,52,0,30
1,50,100,0
1,50,0,30
1,47,100,0
1,47,0,53
1,43,100,3
1,43,0,2
1,50,100,1
1,50,0,28
1,52,100,0
1,52,0,30
1,57,100,0
1,57,0,30
1,52,100,0
1,52,0,30
1,55,100,0
1,55,0,51
1,52,100,2
1,52,0,30
1,50,100,0
1,50,0,26
1,47,100,4
1,47,0,41
1,43,100,2
1,43,0,51
1,40,100,3
1,40,0,60
1,50,100,0
1,50,0,30
1,52,100,0
1,52,0,30
1,57,100,0
1,57,0,30
1,52,100,0
1,52,0,27
1,55,100,3
1,55,0,56
1,52,100,2
1,52,0,27
1,50,100,3
1,50,0,27
1,47,100,3
1,47,0,27
1,45,100,3
1,45,0,27
1,43,100,3
1,43,0,62
1,50,100,1
1,50,0,28
1,52,100,0
1,52,0,30
1,57,100,0
1,57,0,30
1,52,100,0
1,52,0,30
1,55,100,0
1,55,0,51
1,52,100,2
1,52,0,30
1,50,100,0
1,50,0,26
1,47,100,4
1,47,0,41
1,43,100,2
1,43,0,51
1,40,100,3
1,40,0,120
1,50,100,0
1,50,0,30
1,52,100,0
1,52,0,30
1,57,100,0
1,57,0,30
1,52,100,0
1,52,0,30
1,55,100,0
1,55,0,48
1,52,100,3
1,52,0,30
1,50,100,0
1,50,0,30
1,47,100,0
1,47,0,53
1,43,100,3
1,43,0,2
1,50,100,1
1,50,0,28
1,52,100,0
1,52,0,30
1,57,100,0
1,57,0,30
1,52,100,0
1,52,0,30
1,55,100,0
1,55,0,51
1,52,100,2
1,52,0,30
1,50,100,0
1,50,0,26
1,47,100,4
1,47,0,41
1,43,100,2
1,43,0,51
1,40,100,3
1,40,0,60
1,50,100,0
1,50,0,30
1,52,100,0
1,52,0,30
1,57,100,0
1,57,0,30
1,52,100,0
1,52,0,27
1,55,100,3
1,55,0,56
1,52,100,2
1,52,0,27
1,50,100,3
1,50,0,27
1,47,100,3
1,47,0,27
1,45,100,3
1,45,0,27
1,43,100,3
1,43,0,60
1,45,100,0
1,45,0,60
1,46,100,0
1,46,0,60
1,47,100,0
1,47,0,60
1,47,81,0
1,54,81,0
1,54,0,60
1,47,0,0
1,47,81,0
1,54,81,0
1,54,0,60
1,47,0,0
1,47,81,0
1,54,81,0
1,54,0,360
1,47,0,0
1,59,81,0
1,54,81,0
1,47,81,0
1,47,0,360
1,54,0,0
1,59,0,0
1,47,81,0
1,54,81,0
1,59,81,0
1,59,0,120
1,54,0,0
1,47,0,0
1,50,81,0
1,57,81,0
1,62,81,0
1,62,0,540
1,57,0,0
1,50,0,0
1,62,81,0
1,57,81,0
1,50,81,0
1,50,0,60
1,57,0,0
1,62,0,0
1,50,81,0
1,57,81,0
1,62,81,0
1,62,0,120
1,57,0,0
1,50,0,0
1,62,81,0
1,57,81,0
1,50,81,0
1,50,0,120
1,57,0,0
1,62,0,0
1,62,81,0
1,57,81,0
1,50,81,0
1,50,0,120
1,57,0,0
1,62,0,0
1,47,81,0
1,54,81,0
1,59,81,0
1,59,0,30
1,54,0,0
1,47,0,0
1,47,81,90
1,54,81,0
1,59,81,0
1,59,0,30
1,54,0,0
1,47,0,0
1,47,81,390
1,54,81,0
1,59,81,0
1,59,0,30
1,54,0,0
1,47,0,0
1,47,81,0
1,54,81,0
1,59,81,0
1,59,0,30
1,54,0,0
1,47,0,0
1,47,81,0
1,54,81,0
1,59,81,0
1,59,0,30
1,54,0,0
1,47,0,0
1,47,81,0
1,54,81,0
1,59,81,0
1,59,0,30
1,54,0,0
1,47,0,0
1,47,81,60
1,54,81,0
1,59,81,0
1,59,0,60
1,54,0,0
1,47,0,0
1,59,81,60
1,54,81,0
1,47,81,0
1,47,0,60
1,54,0,0
1,59,0,0
1,45,81,60
1,52,81,0
1,57,81,0
1,61,81,0
1,61,0,480
1,45,0,0
1,52,0,0
1,57,0,0
1,52,100,0
1,52,0,60
1,44,100,0
1,44,0,60
1,45,100,0
1,45,0,60
1,46,100,0
1,46,0,60
1,47,100,0
1,47,0,60
1,49,100,0
1,49,0,60
1,50,100,0
1,50,0,60
1,51,100,0
1,51,0,60
1,52,72,3840
1,59,72,0
1,64,72,0
1,64,0,120
1,59,0,0
1,52,0,0
1,52,72,540
1,59,72,0
1,64,72,0
1,64,0,10
1,59,0,0
1,52,0,0
1,64,72,20
1,59,72,0
1,52,72,0
1,52,0,10
1,59,0,0
1,64,0,0
1,52,72,20
1,59,72,0
1,64,72,0
1,64,0,60
1,59,0,0
1,52,0,0
1,52,72,0
1,59,72,0
1,64,72,0
1,64,0,10
1,59,0,0
1,52,0,0
1,52,72,20
1,59,72,0
