track,note,velocity,time
0,69,106,1320
0,38,91,0
0,50,105,0
0,57,85,0
0,38,105,0
0,45,105,0
0,57,105,0
0,62,105,0
0,66,105,0
0,35,110,0
0,49,80,0
0,50,74,30
0,57,54,0
0,42,50,0
0,40,110,50
0,42,110,0
0,50,77,0
0,57,57,0
0,42,50,0
0,50,79,45
0,57,59,0
0,35,110,0
0,42,110,0
0,42,50,160
0,45,75,120
0,40,110,0
0,42,110,0
0,42,50,55
0,50,79,180
0,57,85,0
0,35,110,0
0,42,110,0
0,50,82,30
0,57,54,0
0,42,50,0
0,40,110,50
0,42,110,0
0,50,79,0
0,57,57,0
0,42,50,0
0,50,77,45
0,57,59,0
0,35,110,0
0,42,110,0
0,57,96,0
0,62,96,0
0,66,114,0
0,33,95,0
0,67,109,0
0,42,50,0
0,33,96,0
0,45,62,0
0,40,110,0
0,42,110,0
0,57,96,0
0,62,96,0
0,69,111,0
0,46,50,5
0,35,91,0
0,47,79,0
0,35,110,0
0,42,110,0
0,35,105,0
0,42,105,0
0,57,105,0
0,62,105,0
0,66,105,0
0,47,77,70
0,42,50,0
0,40,110,70
0,42,110,0
0,47,75,0
0,42,50,0
0,47,84,55
0,35,110,0
0,42,110,0
0,42,50,160
0,42,59,120
0,40,110,0
0,42,110,0
0,42,50,160
0,47,82,180
0,35,110,0
0,42,110,0
0,47,72,60
0,42,50,0
0,40,110,80
0,42,110,0
0,47,77,180
0,42,50,0
0,47,82,25
0,35,110,0
0,42,110,0
0,57,96,0
0,62,86,0
0,66,114,0
0,28,91,0
0,67,109,0
0,42,50,0
0,29,105,0
0,47,62,0
0,40,110,0
0,42,110,0
0,57,96,0
0,62,96,0
0,69,111,0
0,42,50,180
0,30,108,0
0,42,76,0
0,35,110,0
0,42,110,0
0,42,105,0
0,49,105,0
0,57,105,0
0,61,105,0
0,64,105,0
0,42,74,60
0,42,50,0
0,40,110,5
0,42,110,0
0,42,78,180
0,42,50,0
0,42,76,60
0,35,110,0
0,42,110,0
0,42,50,180
0,40,110,120
0,42,110,0
0,42,50,180
0,42,91,180
0,35,110,0
0,42,110,0
0,42,68,45
0,42,50,0
0,40,110,5
0,42,110,0
0,42,80,180
0,35,80,0
0,42,50,0
0,42,87,70
0,35,110,0
0,42,110,0
0,42,50,0
0,57,104,0
0,62,109,0
0,64,111,0
0,40,110,0
0,42,110,0
0,46,50,180
0,31,112,0
0,43,79,0
0,35,110,0
0,42,110,0
0,43,105,0
0,50,105,0
0,55,105,0
0,59,105,0
0,62,105,0
0,43,74,70
0,42,50,0
0,40,110,30
0,42,110,0
0,43,79,180
0,42,50,0
0,43,82,45
0,35,110,0
0,42,110,0
0,42,50,180
0,40,110,0
0,42,110,0
0,42,50,0
0,64,109,0
0,33,116,0
0,45,84,0
0,45,92,0
0,52,92,0
0,57,92,0
0,61,92,0
0,35,110,0
0,42,110,0
0,45,66,45
0,42,50,0
0,40,110,5
0,42,110,0
0,45,87,180
0,69,105,0
0,42,50,0
0,69,105,25
0,45,74,0
0,35,110,0
0,42,110,0
0,57,96,0
0,61,109,0
0,69,105,0
0,62,109,0
0,42,50,0
0,69,105,0
0,40,110,0
0,42,110,0
0,57,96,0
0,64,109,0
0,69,105,120
0,46,50,0
0,38,91,0
0,50,105,0
0,57,85,0
0,35,110,0
0,49,80,0
0,38,92,0
0,45,92,0
0,57,92,0
0,62,92,0
0,66,92,0
0,50,74,30
0,57,54,0
0,69,105,0
0,42,50,0
0,40,110,45
0,42,110,0
0,50,77,180
0,57,57,0
0,42,50,0
0,50,79,60
0,57,59,0
0,35,110,0
0,42,110,0
0,42,50,180
0,45,75,120
0,40,110,0
0,42,110,0
0,42,50,55
0,78,64,0
0,50,79,0
0,57,85,0
0,69,74,0
0,35,110,0
0,42,110,0
0,50,82,30
0,57,54,0
0,42,50,0
0,40,110,50
0,42,110,0
0,50,79,180
0,57,57,0
0,42,50,0
0,50,77,45
0,57,59,0
0,35,110,0
0,42,110,0
0,33,95,15
0,42,50,0
0,33,96,40
0,45,62,0
0,40,110,0
0,42,110,0
0,57,96,0
0,62,96,0
0,66,111,0
0,69,105,0
0,69,64,0
0,46,50,0
0,35,91,0
0,69,105,0
0,47,79,0
0,35,110,0
0,42,110,0
0,35,94,0
0,42,94,0
0,57,94,0
0,66,94,0
0,74,94,0
0,47,77,70
0,42,50,0
0,69,105,70
0,40,110,0
0,42,110,0
0,69,105,110
0,47,75,0
0,42,50,0
0,47,84,55
0,35,110,0
0,42,110,0
0,69,105,155
0,42,50,0
0,69,105,110
0,42,59,0
0,40,110,0
0,42,110,0
0,42,50,180
0,47,82,165
0,35,110,0
0,42,110,0
0,47,72,60
0,42,50,0
0,40,110,80
0,42,110,0
0,47,77,180
0,42,50,0
0,47,82,25
0,35,110,0
0,42,110,0
0,57,96,0
0,62,86,0
0,69,114,0
0,28,91,0
0,67,109,0
0,42,50,0
0,29,105,0
0,47,62,0
0,40,110,0
0,42,110,0
0,57,96,0
0,62,96,0
0,66,111,0
0,69,105,180
0,42,50,0
0,30,108,0
0,69,105,0
0,42,76,0
0,35,110,0
0,42,110,0
0,42,99,0
0,49,99,0
0,57,99,0
0,61,99,0
0,64,99,0
0,42,74,60
0,69,105,0
0,42,50,0
0,69,105,5
0,40,110,0
0,42,110,0
0,69,105,120
0,42,78,0
0,42,50,0
0,42,76,60
0,35,110,0
0,42,110,0
0,69,105,115
0,42,50,0
0,69,105,120
0,40,110,0
0,42,110,0
0,42,50,180
0,42,91,155
0,35,110,0
0,42,110,0
0,42,68,45
0,42,50,0
0,40,110,5
0,42,110,0
0,42,80,180
0,35,80,0
0,42,50,0
0,42,87,70
0,35,110,0
0,42,110,0
0,42,50,120
0,40,110,50
0,42,110,0
0,57,104,0
0,61,109,0
0,69,105,0
0,64,111,0
0,46,50,0
0,31,112,0
0,71,105,0
0,43,79,0
0,35,110,0
0,42,110,0
0,43,105,0
0,50,105,0
0,55,105,0
0,59,105,0
0,62,105,0
0,43,74,60
0,69,105,0
0,42,50,0
0,69,105,30
0,40,110,0
0,42,110,0
0,69,105,85
0,43,79,0
0,42,50,0
0,43,82,45
0,35,110,0
0,42,110,0
0,69,105,105
0,42,50,0
0,40,110,0
0,42,110,0
0,42,50,0
0,33,116,0
0,45,84,0
0,35,110,0
0,42,110,0
0,45,92,0
0,52,92,0
0,57,92,0
0,61,92,0
0,64,102,0
0,45,66,45
0,42,50,0
0,40,110,5
0,42,110,0
0,45,87,180
0,69,105,0
0,42,50,0
0,69,105,25
0,45,74,0
0,35,110,0
0,42,110,0
0,57,96,0
0,61,109,0
0,69,105,0
0,59,109,0
0,62,109,0
0,42,50,0
0,69,105,0
0,40,110,0
0,42,110,0
0,61,96,0
0,64,109,0
0,69,105,100
0,46,50,0
0,38,81,0
0,50,105,0
0,57,85,0
0,35,110,0
0,49,80,0
0,38,92,0
0,45,92,0
0,57,92,0
0,62,92,0
0,66,92,0
0,50,74,30
0,57,54,0
0,69,105,0
0,42,50,0
0,40,110,20
0,42,110,0
0,50,77,180
0,57,57,0
0,42,50,0
0,50,79,60
0,57,59,0
0,35,110,0
0,42,110,0
0,42,50,180
0,45,75,120
0,40,110,0
0,42,110,0
0,66,90,0
0,71,99,0
0,42,50,0
0,50,79,180
0,57,85,0
0,35,110,0
0,42,110,0
0,50,82,30
0,57,54,0
0,42,50,0
0,40,110,50
0,42,110,0
0,50,79,180
0,57,57,0
0,42,50,0
0,50,77,45
0,57,59,0
0,35,110,0
0,42,110,0
0,33,85,15
0,42,50,0
0,33,86,40
0,45,62,0
0,40,110,0
0,42,110,0
0,57,104,0
0,62,104,0
0,69,104,0
0,69,105,5
0,46,50,0
0,35,81,0
0,69,105,0
0,47,79,0
0,35,110,0
0,42,110,0
0,35,94,0
0,42,94,0
0,57,94,0
0,62,94,0
0,66,104,0
0,47,77,70
0,69,105,0
0,42,50,0
0,69,105,70
0,40,110,0
0,42,110,0
0,69,105,135
0,47,75,0
0,42,50,0
0,47,84,55
0,69,105,0
0,35,110,0
0,42,110,0
0,69,105,150
0,42,50,0
0,69,105,120
0,42,59,0
0,40,110,0
0,42,110,0
0,42,50,70
0,47,82,180
0,35,110,0
0,42,110,0
0,47,72,60
0,42,50,0
0,40,110,80
0,42,110,0
0,47,77,180
0,42,50,0
0,47,82,25
0,35,110,0
0,42,110,0
0,57,96,0
0,62,86,0
0,66,114,0
0,28,81,0
0,67,109,0
0,42,50,0
0,29,95,0
0,47,62,0
0,40,110,0
0,42,110,0
0,57,96,0
0,62,96,0
0,69,111,0
0,69,105,180
0,42,50,0
0,30,98,0
0,69,105,0
0,42,76,0
0,35,110,0
0,42,110,0
0,42,99,0
0,49,99,0
0,57,99,0
0,61,99,0
0,64,99,0
0,42,74,60
0,69,105,0
0,42,50,0
0,71,105,5
0,40,110,0
0,42,110,0
0,42,78,180
0,42,50,0
0,42,76,60
0,66,105,0
0,35,110,0
0,42,110,0
0,42,50,180
0,40,110,120
0,42,110,0
0,42,50,180
0,42,91,180
0,35,110,0
0,42,110,0
0,42,68,45
0,42,50,0
0,40,110,5
0,42,110,0
0,42,80,180
0,35,80,0
0,42,50,0
0,42,87,25
0,35,110,0
0,42,110,0
0,42,63,0
0,49,63,0
0,57,63,0
0,61,63,0
0,42,78,25
0,49,78,0
0,57,78,0
0,61,78,0
0,42,50,0
0,40,110,25
0,42,110,0
0,42,92,0
0,49,92,0
0,57,92,0
0,61,92,0
0,66,92,0
0,69,105,0
0,42,106,0
0,49,106,0
0,57,106,0
0,61,106,0
0,69,106,0
0,46,50,0
0,31,102,0
0,69,105,0
0,43,79,0
0,35,110,0
0,42,110,0
0,43,63,0
0,50,120,0
0,59,120,0
0,62,120,0
0,67,120,0
0,43,74,15
0,43,84,0
0,42,50,0
0,69,105,60
0,40,110,25
0,42,110,0
0,43,88,0
0,69,105,25
0,43,79,0
0,43,92,0
0,42,50,0
0,43,82,40
0,35,110,0
0,42,110,0
0,43,96,0
0,69,105,25
0,43,100,0
0,42,50,0
0,40,110,0
0,42,110,0
0,43,104,0
0,42,50,0
0,33,106,0
0,45,84,0
0,35,110,0
0,40,100,0
0,42,110,0
0,45,113,0
0,52,113,0
0,57,113,0
0,61,113,0
0,64,113,0
0,69,105,360
0,69,105,110
0,69,105,85
0,69,105,50
0,69,105,85
0,69,45,165
0,74,45,0
0,78,45,0
0,50,123,75
0,57,72,0
0,62,81,0
0,66,123,0
0,35,110,0
0,49,80,0
0,38,91,0
0,50,105,0
0,57,85,0
0,50,74,30
0,57,54,0
0,42,50,0
0,40,110,50
0,42,110,0
0,50,77,85
0,57,57,0
0,66,105,0
0,42,50,0
0,50,79,60
0,57,59,0
0,35,110,0
0,42,110,0
0,42,50,180
0,45,75,120
0,40,110,0
0,42,110,0
0,42,50,55
0,50,79,180
0,57,85,0
0,35,110,0
0,42,110,0
0,74,81,0
0,78,109,0
0,50,82,30
0,57,54,0
0,42,50,0
0,40,110,50
0,42,110,0
0,50,79,160
0,57,57,0
0,42,50,0
0,50,77,45
0,57,59,0
0,35,110,0
0,42,110,0
0,33,95,15
0,42,50,0
0,74,81,0
0,78,109,0
0,33,96,0
0,45,62,0
0,76,109,0
0,79,109,0
0,40,110,0
0,42,110,0
0,46,50,5
0,69,72,0
0,74,109,0
0,78,113,0
0,35,91,125
0,47,79,0
0,69,105,0
0,54,72,0
0,59,123,0
0,35,110,0
0,42,110,0
0,69,105,70
0,47,77,0
0,42,50,0
0,71,105,70
0,40,110,0
0,42,110,0
0,69,105,120
0,47,75,0
0,42,50,0
0,47,84,55
0,69,105,0
0,35,110,0
0,42,110,0
0,69,105,140
0,42,50,0
0,71,105,20
0,42,59,0
0,40,110,0
0,42,110,0
0,42,50,180
0,47,82,160
0,35,110,0
0,42,110,0
0,47,72,60
0,42,50,0
0,40,110,80
0,42,110,0
0,47,77,30
0,42,50,0
0,78,125,0
0,47,82,0
0,54,107,0
0,59,107,0
0,69,107,0
0,74,107,0
0,79,127,0
0,35,110,0
0,42,110,0
0,28,91,0
0,66,105,0
0,42,50,0
0,81,127,0
0,29,105,0
0,66,105,0
0,47,62,0
0,54,107,0
0,59,107,0
0,66,107,0
0,69,107,0
0,78,127,0
0,40,110,0
0,42,110,0
0,67,105,0
0,42,50,0
0,74,127,0
0,69,45,10
0,73,45,0
0,76,45,0
0,30,108,0
0,69,105,0
0,42,76,0
0,54,116,0
0,61,116,0
0,69,116,0
0,73,116,0
0,76,127,0
0,35,110,0
0,42,110,0
0,42,74,45
0,42,50,0
0,69,105,60
0,40,110,5
0,42,110,0
0,69,105,180
0,42,78,0
0,42,50,0
0,42,76,60
0,35,110,0
0,42,110,0
0,71,105,50
0,42,50,0
0,40,110,120
0,42,110,0
0,42,50,90
0,42,91,160
0,35,110,0
0,42,110,0
0,42,68,45
0,42,50,0
0,40,110,5
0,42,110,0
0,42,80,60
0,35,80,0
0,42,50,0
0,61,99,0
0,42,87,15
0,57,89,0
0,61,89,0
0,66,118,0
0,35,110,0
0,42,110,0
0,69,105,0
0,42,50,0
0,57,89,0
0,61,89,0
0,64,113,0
0,71,105,15
0,57,89,0
0,61,89,0
0,66,115,0
0,40,110,0
0,42,110,0
0,69,105,15
0,46,50,0
0,57,89,0
0,61,89,0
0,64,113,0
0,67,45,0
0,71,45,0
0,74,45,0
0,31,112,0
0,69,105,0
0,43,79,0
0,55,105,0
0,62,105,0
0,67,105,0
0,71,115,0
0,35,110,0
0,42,110,0
0,43,74,70
0,69,105,0
0,42,50,0
0,69,105,30
0,40,110,0
0,42,110,0
0,69,105,110
0,43,79,0
0,42,50,0
0,43,82,45
0,35,110,0
0,42,110,0
0,69,105,170
0,42,50,0
0,40,110,0
0,42,110,0
0,42,50,0
0,69,45,85
0,73,45,0
0,76,45,0
0,33,116,0
0,45,84,0
0,35,110,0
0,42,110,0
0,57,92,0
0,64,92,0
0,69,92,0
0,73,112,0
0,45,66,45
0,42,50,0
0,40,110,5
0,42,110,0
0,45,87,180
0,81,105,0
0,42,50,0
0,81,105,25
0,45,74,0
0,35,110,0
0,42,110,0
0,69,96,0
0,73,109,0
0,81,105,0
0,71,109,0
0,74,109,0
0,42,50,0
0,81,105,0
0,40,110,0
0,42,110,0
0,73,96,0
0,76,109,0
0,46,50,180
0,69,45,75
0,74,45,0
0,78,45,0
0,38,91,0
0,81,105,0
0,50,105,0
0,57,85,0
0,35,110,0
0,49,80,0
0,50,123,0
0,66,123,0
0,69,72,0
0,74,81,0
0,50,74,30
0,57,54,0
0,42,50,0
0,40,110,50
0,42,110,0
0,50,77,55
0,57,57,0
0,78,105,0
0,42,50,0
0,50,79,60
0,57,59,0
0,35,110,0
0,42,110,0
0,42,50,180
0,45,75,5
0,40,110,0
0,42,110,0
0,42,50,55
0,50,79,180
0,57,85,0
0,35,110,0
0,42,110,0
0,50,82,30
0,57,54,0
0,42,50,0
0,40,110,50
0,42,110,0
0,50,79,180
0,57,57,0
0,42,50,0
0,50,77,45
0,57,59,0
0,35,110,0
0,42,110,0
0,33,95,15
0,42,50,0
0,33,96,40
0,45,62,0
0,40,110,0
0,42,110,0
0,78,105,5
0,46,50,0
0,35,91,30
0,81,105,0
0,47,79,0
0,35,110,0
0,42,110,0
0,54,72,0
0,59,123,0
0,66,113,0
0,69,72,0
0,74,109,0
0,47,77,70
0,81,105,0
0,42,50,0
0,81,105,70
0,40,110,0
0,42,110,0
0,81,105,135
0,47,75,0
0,42,50,0
0,47,84,55
0,81,105,0
0,35,110,0
0,42,110,0
0,78,105,30
0,42,50,0
0,83,105,85
0,42,59,0
0,40,110,0
0,42,110,0
0,42,50,180
0,47,82,160
0,35,110,0
0,42,110,0
0,47,72,60
0,42,50,0
0,40,110,80
0,42,110,0
0,47,77,180
0,42,50,0
0,47,82,70
0,35,110,0
0,42,110,0
0,28,91,0
0,78,105,0
0,42,50,0
0,29,105,5
0,79,105,0
0,47,62,0
