track,note,velocity,time
1,78,86,15839
1,78,0,835
1,78,86,5
1,78,0,115
1,78,86,5
1,78,0,235
1,76,86,5
1,76,0,235
1,74,86,5
1,74,0,235
1,69,86,5
1,69,0,235
1,78,86,5
1,78,0,475
1,78,86,245
1,78,0,115
1,78,86,5
1,78,0,115
1,78,86,5
1,78,0,115
1,76,86,5
1,76,0,355
1,74,86,5
1,74,0,235
1,74,86,5
1,74,0,235
1,76,86,5
1,76,0,475
1,74,86,5
1,74,0,955
1,78,86,1205
1,78,0,115
1,78,86,5
1,78,0,115
1,78,86,5
1,78,0,115
1,76,86,5
1,76,0,355
1,74,86,5
1,74,0,235
1,74,86,5
1,74,0,235
1,78,86,5
1,78,0,475
1,78,86,245
1,78,0,115
1,78,86,5
1,78,0,115
1,78,86,5
1,78,0,235
1,76,86,5
1,76,0,235
1,74,86,5
1,74,0,235
1,69,86,5
1,69,0,235
1,78,86,5
1,78,0,475
1,74,86,5
1,74,0,475
1,74,86,245
1,74,0,115
1,74,86,5
1,74,0,115
1,74,86,5
1,74,0,235
1,74,86,5
1,74,0,235
1,76,86,5
1,76,0,475
1,74,86,5
1,74,0,475
1,79,86,2885
1,79,0,475
1,78,86,5
1,78,0,475
1,76,86,5
1,76,0,475
1,76,86,365
1,76,0,115
1,78,86,5
1,78,0,235
1,76,86,5
1,76,0,115
1,76,86,5
1,76,0,235
1,74,86,5
1,74,0,235
1,74,86,5
1,74,0,235
1,71,86,5
1,71,0,115
1,69,86,5
1,69,0,475
1,79,86,245
1,79,0,475
1,78,86,5
1,78,0,475
1,76,86,5
1,76,0,475
1,69,86,365
1,69,0,115
1,71,86,5
1,71,0,235
1,74,86,5
1,74,0,115
1,76,86,5
1,76,0,235
1,74,86,5
1,74,0,115
1,74,86,5
1,74,0,1675
1,78,86,485
1,78,0,835
1,78,86,5
1,78,0,115
1,78,86,5
1,78,0,235
1,76,86,5
1,76,0,235
1,74,86,5
1,74,0,235
1,69,86,5
1,69,0,235
1,78,86,5
1,78,0,475
1,78,86,125
1,78,0,115
1,78,86,5
1,78,0,115
1,78,86,5
1,78,0,115
1,78,86,5
1,78,0,235
1,76,86,5
1,76,0,235
1,74,86,5
1,74,0,235
1,74,86,5
1,74,0,115
1,76,86,5
1,76,0,475
1,74,86,5
1,74,0,595
1,78,86,1685
1,78,0,115
1,78,86,5
1,78,0,115
1,78,86,5
1,78,0,235
1,76,86,5
1,76,0,235
1,74,86,5
1,74,0,235
1,74,86,5
1,74,0,235
1,78,86,5
1,78,0,475
1,78,86,245
1,78,0,115
1,78,86,5
1,78,0,115
1,78,86,5
1,78,0,235
1,76,86,5
1,76,0,235
1,74,86,5
1,74,0,235
1,81,86,5
1,81,0,235
1,74,86,5
1,74,0,475
1,78,86,245
1,78,0,115
1,78,86,5
1,78,0,115
1,78,86,5
1,78,0,235
1,74,86,5
1,74,0,235
1,74,86,5
1,74,0,235
1,76,86,5
1,76,0,115
1,76,86,5
1,76,0,475
1,74,86,5
1,74,0,835
1,73,86,2405
1,73,0,115
1,74,86,5
1,74,0,115
1,79,86,5
1,79,0,475
1,78,86,5
1,78,0,475
1,76,86,5
1,76,0,475
1,71,86,365
1,71,0,115
1,78,86,5
1,78,0,235
1,76,86,5
1,76,0,115
1,76,86,5
1,76,0,235
1,74,86,5
1,74,0,115
1,74,86,5
1,74,0,355
1,71,86,5
1,71,0,115
1,69,86,5
1,69,0,235
1,76,86,245
1,76,0,115
1,78,86,5
1,78,0,115
1,79,86,5
1,79,0,475
1,78,86,5
1,78,0,475
1,76,86,5
1,76,0,475
1,76,86,245
1,76,0,115
1,76,86,5
1,76,0,115
1,78,86,5
1,78,0,235
1,81,86,5
1,81,0,115
1,81,86,5
1,81,0,235
1,76,86,5
1,76,0,115
1,78,86,5
1,78,0,355
1,76,86,5
1,76,0,115
1,74,86,5
1,74,0,715
1,69,86,3605
1,69,0,115
1,69,86,5
1,69,0,115
1,78,86,5
1,78,0,235
1,76,86,5
1,76,0,235
1,74,86,5
1,74,0,235
1,76,86,5
1,76,0,115
1,78,86,5
1,78,0,595
1,69,86,5885
1,69,0,115
1,69,86,5
1,69,0,115
1,69,86,5
1,69,0,115
1,78,86,5
1,78,0,235
1,76,86,5
1,76,0,235
1,74,86,5
1,74,0,235
1,76,86,5
1,76,0,115
1,78,86,5
1,78,0,235
1,76,86,5
1,76,0,115
1,74,86,5
1,74,0,715
1,69,86,5525
1,69,0,115
1,69,86,5
1,69,0,115
1,78,86,5
1,78,0,235
1,76,86,5
1,76,0,235
1,74,86,5
1,74,0,1915
1,78,86,13925
1,78,0,715
1,78,86,5
1,78,0,235
1,78,86,5
1,78,0,235
1,76,86,5
1,76,0,235
1,74,86,5
1,74,0,235
1,71,86,5
1,71,0,235
1,78,86,5
1,78,0,475
1,78,86,125
1,78,0,115
1,78,86,5
1,78,0,115
1,78,86,5
1,78,0,115
1,76,86,5
1,76,0,235
1,74,86,5
1,74,0,235
1,74,86,5
1,74,0,115
1,71,86,5
1,71,0,115
1,76,86,5
1,76,0,475
1,74,86,5
1,74,0,715
1,78,86,1685
1,78,0,115
1,78,86,5
1,78,0,115
1,78,86,5
1,78,0,235
1,76,86,5
1,76,0,235
1,74,86,5
1,74,0,235
1,76,86,5
1,76,0,235
1,78,86,5
1,78,0,475
1,78,86,245
1,78,0,115
1,78,86,5
1,78,0,115
1,78,86,5
1,78,0,235
1,76,86,5
1,76,0,235
1,74,86,5
1,74,0,235
1,81,86,5
1,81,0,235
1,74,86,5
1,74,0,475
1,78,86,245
1,78,0,115
1,78,86,5
1,78,0,115
1,78,86,5
1,78,0,235
1,76,86,5
1,76,0,235
1,74,86,5
1,74,0,355
1,76,86,5
1,76,0,475
1,74,86,5
1,74,0,595
1,74,86,2645
1,74,0,115
1,74,86,5
1,74,0,115
1,79,86,5
1,79,0,475
1,78,86,5
1,78,0,475
1,76,86,5
1,76,0,475
1,76,86,365
1,76,0,115
1,78,86,5
1,78,0,235
1,76,86,5
1,76,0,115
1,76,86,5
1,76,0,235
1,74,86,5
1,74,0,235
1,74,86,5
1,74,0,235
1,71,86,5
1,71,0,115
1,69,86,5
1,69,0,475
1,79,86,245
1,79,0,475
1,81,86,5
1,81,0,475
1,76,86,5
1,76,0,475
1,76,86,245
1,76,0,115
1,76,86,5
1,76,0,115
1,83,86,5
1,83,0,235
1,81,86,5
1,81,0,115
1,81,86,5
1,81,0,235
1,81,86,5
1,81,0,115
1,78,86,5
1,78,0,355
1,76,86,5
1,76,0,115
1,74,86,5
1,74,0,1195
1,69,86,3125
1,69,0,115
1,69,86,5
1,69,0,115
1,78,86,5
1,78,0,235
1,76,86,5
1,76,0,235
1,74,86,5
1,74,0,235
1,76,86,5
1,76,0,115
1,78,86,5
1,78,0,1075
1,69,86,5525
1,69,0,115
1,69,86,5
1,69,0,115
1,78,86,5
1,78,0,235
1,76,86,5
1,76,0,235
1,74,86,5
1,74,0,235
1,76,86,5
1,76,0,115
1,78,86,5
1,78,0,235
1,76,86,5
1,76,0,115
1,74,86,5
1,74,0,715
1,74,86,5525
1,74,0,115
1,74,86,5
1,74,0,115
1,83,86,5
1,83,0,235
1,81,86,5
1,81,0,115
1,81,86,5
1,81,0,235
1,76,86,5
1,76,0,115
1,78,86,5
1,78,0,355
1,76,86,5
1,76,0,115
1,74,86,5
1,74,0,1675
1,78,86,5765
1,78,0,115
1,76,86,5
1,76,0,235
1,74,86,5
1,74,0,595
1,78,86,5
1,78,0,115
1,76,86,5
1,76,0,235
1,74,86,5
1,74,0,595
1,78,86,5
1,78,0,115
1,76,86,5
1,76,0,235
1,74,86,5
1,74,0,115
1,74,86,5
1,74,0,115
1,71,86,5
1,71,0,115
1,76,86,5
1,76,0,355
1,74,86,5
1,74,0,355
1,74,86,7925
1,74,0,115
1,74,86,5
1,74,0,115
1,83,86,5
1,83,0,235
1,81,86,5
1,81,0,1435
1,74,86,1925
1,74,0,115
1,74,86,5
1,74,0,115
1,83,86,5
1,83,0,235
1,81,86,5
1,81,0,1195
1,83,86,5
1,83,0,115
1,81,86,5
1,81,0,115
1,79,86,5
1,79,0,115
1,76,86,5
1,76,0,235
1,78,86,5
1,78,0,115
1,86,86,1445
1,86,0,115
1,86,86,5
1,86,0,115
1,86,86,5
1,86,0,235
1,81,86,5
1,81,0,115
1,81,86,5
1,81,0,115
1,83,86,5
1,83,0,235
1,81,86,5
1,81,0,115
1,81,86,5
1,81,0,115
1,81,86,5
1,81,0,235
1,78,86,5
1,78,0,115
1,78,86,5
1,78,0,115
1,78,86,5
1,78,0,235
1,86,86,5
1,86,0,115
1,86,86,5
1,86,0,115
1,86,86,5
1,86,0,235
1,81,86,5
1,81,0,115
1,83,86,5
1,83,0,115
1,83,86,5
1,83,0,235
1,81,86,5
1,81,0,115
1,81,86,5
1,81,0,115
1,81,86,5
1,81,0,235
1,78,86,5
1,78,0,115
1,78,86,5
1,78,0,115
1,78,86,5
1,78,0,235
1,86,86,5
1,86,0,115
1,86,86,5
1,86,0,115
1,86,86,5
1,86,0,235
1,81,86,5
1,81,0,115
1,83,86,5
1,83,0,115
1,83,86,5
1,83,0,235
1,81,86,5
1,81,0,115
1,81,86,5
1,81,0,115
1,81,86,5
1,81,0,235
1,78,86,5
1,78,0,115
1,78,86,5
1,78,0,115
1,78,86,5
1,78,0,235
1,76,86,5
1,76,0,115
1,74,86,5
1,74,0,115
1,78,86,5
1,78,0,115
1,79,86,5
1,79,0,115
1,81,86,5
1,81,0,115
1,86,86,1325
1,86,0,115
1,86,86,5
1,86,0,115
1,86,86,5
1,86,0,113
1,81,86,5
1,81,0,112
1,83,86,5
1,83,0,111
1,83,86,5
1,83,0,109
1,81,86,5
1,81,0,108
1,81,86,5
1,81,0,107
1,81,86,5
1,81,0,106
1,78,86,5
1,78,0,105
1,78,86,5
1,78,0,104
1,78,86,5
1,78,0,102
1,86,86,5
1,86,0,101
1,86,86,5
1,86,0,100
1,86,86,5
1,86,0,98
1,81,86,5
1,81,0,97
1,83,86,5
1,83,0,96
1,83,86,5
1,83,0,94
1,81,86,5
1,81,0,93
1,81,86,5
1,81,0,92
1,81,86,5
1,81,0,91
1,78,86,5
1,78,0,90
1,78,86,5
1,78,0,89
1,74,86,5
1,74,0,87
1,86,86,5
1,86,0,86
1,86,86,5
1,86,0,85
1,86,86,5
1,86,0,83
1,79,86,5
1,79,0,82
1,81,86,5
1,81,0,81
1,81,86,5
1,81,0,79
1,81,86,5
1,81,0,78
1,81,86,5
1,81,0,77
1,81,86,5
1,81,0,75
1,78,86,5
1,78,0,75
1,78,86,5
1,78,0,74
1,78,86,5
1,78,0,72
1,76,86,5
1,76,0,71
1,74,86,5
1,74,0,70
1,78,86,5
1,78,0,69
1,79,86,5
1,79,0,68
1,81,86,5
1,81,0,67
2,83,86,31199
2,83,0,475
2,81,86,5
2,81,0,475
2,79,86,5
2,79,0,475
2,79,86,365
2,79,0,115
2,81,86,5
2,81,0,235
2,79,86,5
2,79,0,115
2,79,86,5
2,79,0,235
2,78,86,5
2,78,0,235
2,78,86,5
2,78,0,235
2,76,86,5
2,76,0,115
2,74,86,5
2,74,0,475
2,83,86,245
2,83,0,475
2,81,86,5
2,81,0,475
2,79,86,5
2,79,0,475
2,74,86,365
2,74,0,115
2,74,86,5
2,74,0,235
2,74,86,5
2,74,0,115
2,79,86,5
2,79,0,235
2,78,86,5
2,78,0,115
2,78,86,5
2,78,0,1675
2,74,86,485
2,81,86,0
2,74,0,835
2,81,0,0
2,74,86,5
2,81,86,0
2,74,0,115
2,81,0,0
2,74,86,5
2,81,86,0
2,74,0,235
2,81,0,0
2,71,86,5
2,79,86,0
2,71,0,235
2,79,0,0
2,69,86,5
2,78,86,0
2,69,0,235
2,78,0,0
2,66,86,5
2,74,86,0
2,66,0,235
2,74,0,0
2,74,86,5
2,81,86,0
2,74,0,475
2,81,0,0
2,74,86,125
2,81,86,0
2,74,0,115
2,81,0,0
2,74,86,5
2,81,86,0
2,74,0,115
2,81,0,0
2,74,86,5
2,81,86,0
2,74,0,115
2,81,0,0
2,74,86,5
2,81,86,0
2,74,0,235
2,81,0,0
2,71,86,5
2,79,86,0
2,71,0,235
2,79,0,0
2,69,86,5
2,78,86,0
2,69,0,235
2,78,0,0
2,69,86,5
2,78,86,0
2,69,0,115
2,78,0,0
2,71,86,5
2,79,86,0
2,71,0,475
2,79,0,0
2,69,86,5
2,78,86,0
2,69,0,595
2,78,0,0
2,74,86,1685
2,81,86,0
2,74,0,115
2,81,0,0
2,74,86,5
2,81,86,0
2,74,0,115
2,81,0,0
2,74,86,5
2,81,86,0
2,74,0,235
2,81,0,0
2,71,86,5
2,79,86,0
2,71,0,235
2,79,0,0
2,69,86,5
2,78,86,0
2,69,0,235
2,78,0,0
2,69,86,5
2,78,86,0
2,69,0,235
2,78,0,0
2,74,86,5
2,81,86,0
2,74,0,475
2,81,0,0
2,74,86,245
2,81,86,0
2,74,0,115
2,81,0,0
2,74,86,5
2,81,86,0
2,74,0,115
2,81,0,0
2,74,86,5
2,81,86,0
2,74,0,235
2,81,0,0
2,71,86,5
2,79,86,0
2,71,0,235
2,79,0,0
2,78,86,5
2,69,86,0
2,78,0,235
2,69,0,0
2,78,86,5
2,86,86,0
2,78,0,235
2,86,0,0
2,69,86,5
2,78,86,0
2,69,0,475
2,78,0,0
2,74,86,245
2,81,86,0
2,74,0,115
2,81,0,0
2,74,86,5
2,81,86,0
2,74,0,115
2,81,0,0
2,74,86,5
2,81,86,0
2,74,0,235
2,81,0,0
2,71,86,5
2,78,86,0
2,71,0,235
2,78,0,0
2,71,86,5
2,78,86,0
2,71,0,235
2,78,0,0
2,71,86,5
2,79,86,0
2,71,0,115
2,79,0,0
2,71,86,5
2,79,86,0
2,71,0,475
2,79,0,0
2,69,86,5
2,78,86,0
2,69,0,835
2,78,0,0
2,78,86,2405
2,78,0,115
2,79,86,5
2,79,0,115
2,83,86,5
2,83,0,475
2,81,86,5
2,81,0,475
2,79,86,5
2,79,0,475
2,79,86,365
2,79,0,115
2,81,86,5
2,81,0,235
2,79,86,5
2,79,0,115
2,79,86,5
2,79,0,235
2,78,86,5
2,78,0,115
2,78,86,5
2,78,0,355
2,76,86,5
2,76,0,115
2,74,86,5
2,74,0,235
2,79,86,245
2,79,0,115
2,81,86,5
2,81,0,115
2,83,86,5
2,83,0,475
2,81,86,5
2,81,0,475
2,79,86,5
2,79,0,475
2,79,86,245
2,79,0,115
2,79,86,5
2,79,0,115
2,81,86,5
2,81,0,235
2,86,86,5
2,86,0,115
2,86,86,5
2,86,0,235
2,79,86,5
2,79,0,115
2,81,86,5
2,81,0,355
2,79,86,5
2,79,0,115
2,78,86,5
2,78,0,715
2,66,86,18965
2,66,0,115
2,66,86,5
2,66,0,115
2,74,86,5
2,81,86,0
2,74,0,235
2,81,0,0
2,71,86,5
2,79,86,0
2,71,0,235
2,79,0,0
2,69,86,5
2,78,86,0
2,69,0,1915
2,78,0,0
2,79,86,29045
2,79,0,115
2,79,86,5
2,79,0,115
2,83,86,5
2,83,0,475
2,81,86,5
2,81,0,475
2,79,86,5
2,79,0,475
2,79,86,365
2,79,0,115
2,81,86,5
2,81,0,235
2,79,86,5
2,79,0,115
2,79,86,5
2,79,0,235
2,78,86,5
2,78,0,235
2,78,86,5
2,78,0,235
2,76,86,5
2,76,0,115
2,74,86,5
2,74,0,475
2,83,86,245
2,83,0,475
2,85,86,5
2,85,0,475
2,79,86,5
2,79,0,475
2,79,86,245
2,79,0,115
2,79,86,5
2,79,0,115
2,86,86,5
2,86,0,235
2,85,86,5
2,85,0,115
2,85,86,5
2,85,0,235
2,85,86,5
2,85,0,115
2,81,86,5
2,81,0,355
2,79,86,5
2,79,0,115
2,78,86,5
2,78,0,1195
2,81,86,46325
2,81,0,115
2,81,86,5
2,81,0,115
2,81,86,5
2,81,0,235
2,76,86,5
2,76,0,115
2,76,86,5
2,76,0,115
2,78,86,5
2,78,0,235
