track,note,velocity,time
1,31,121,960
1,43,73,600
1,43,0,45
1,43,86,75
1,43,0,61
1,43,111,59
1,43,0,662
1,43,98,58
1,31,0,51
1,31,98,69
1,31,0,70
1,43,0,25
1,31,114,25
1,55,105,720
1,31,0,57
1,55,0,147
1,55,98,36
1,55,0,423
1,55,105,57
1,55,0,192
1,55,103,48
1,50,103,120
1,55,0,36
1,50,0,199
1,31,114,5
1,43,84,720
1,31,0,12
1,43,0,62
1,43,98,46
1,43,0,683
1,43,111,37
1,38,103,120
1,43,0,36
1,38,0,54
1,31,101,30
1,31,0,814
1,43,105,26
1,43,0,65
1,43,111,55
1,43,0,965
1,31,118,115
1,31,0,313
1,31,101,47
1,31,0,44
1,31,118,76
1,31,0,396
1,31,111,84
1,31,0,294
1,31,101,66
1,31,0,45
1,31,116,75
1,31,0,395
1,31,114,85
1,31,0,298
1,31,101,62
1,31,0,52
1,31,116,68
1,31,0,418
1,31,116,62
1,31,0,318
1,31,107,42
1,31,0,53
1,31,118,67
1,31,0,383
1,31,116,97
1,31,0,304
1,31,116,56
1,31,0,114
1,38,109,6
1,38,0,421
1,36,116,59
1,36,0,290
1,36,105,70
1,36,0,45
1,36,114,75
1,36,0,427
1,31,118,53
1,31,0,291
1,31,107,69
1,31,0,46
1,31,114,74
1,31,0,436
1,38,121,44
1,38,0,281
1,38,105,79
1,38,0,46
1,38,118,74
1,38,0,384
1,36,118,96
1,36,0,280
1,36,116,80
1,36,0,54
1,36,118,66
1,36,0,439
1,31,121,41
1,31,0,296
1,31,109,64
1,31,0,54
1,31,118,66
1,31,0,381
1,28,118,99
1,28,0,269
1,28,109,91
1,28,0,49
1,28,116,71
1,28,0,417
1,28,111,63
1,28,0,284
1,28,105,76
1,28,0,56
1,28,116,64
1,28,0,108
1,40,101,12
1,28,109,120
1,40,0,1
1,28,0,210
1,36,116,29
1,36,0,268
1,36,111,92
1,36,0,44
1,36,116,76
1,36,0,441
1,31,121,39
1,31,0,278
1,31,98,82
1,31,0,44
1,31,118,76
1,31,0,441
1,33,114,39
1,33,0,295
1,33,105,65
1,33,0,54
1,33,111,66
1,33,0,388
1,36,118,92
1,36,0,254
1,36,101,106
1,36,0,51
1,36,114,69
1,36,0,386
1,40,116,94
1,40,0,282
1,40,103,78
1,40,0,56
1,40,105,64
1,40,0,444
1,28,114,36
1,28,0,301
1,28,114,59
1,28,0,52
1,28,121,68
1,28,0,289
1,36,127,71
1,36,0,395
1,36,118,85
1,36,0,42
1,36,118,78
1,36,0,453
1,31,116,27
1,31,0,275
1,31,111,85
1,31,0,48
1,31,118,72
1,31,0,213
1,33,111,27
1,33,0,67
1,35,105,53
1,35,0,61
1,36,116,59
1,36,0,289
1,36,111,71
1,36,0,42
1,36,118,78
1,36,0,429
1,31,121,51
1,31,0,292
1,31,114,68
1,31,0,120
1,43,103,0
1,31,107,120
1,43,0,20
1,31,0,96
1,38,103,4
1,31,101,120
1,38,0,9
1,31,0,97
1,33,114,14
1,33,0,265
1,33,105,95
1,33,0,47
1,33,109,73
1,33,0,365
1,36,118,115
1,36,0,285
1,36,109,75
1,36,0,45
1,36,118,75
1,36,0,426
1,31,118,54
1,31,0,275
1,31,109,85
1,31,0,43
1,31,118,77
1,31,0,401
1,31,111,79
1,31,0,288
1,31,111,72
1,31,0,52
1,31,118,68
1,31,0,394
1,31,114,86
1,31,0,289
1,31,103,71
1,31,0,46
1,31,116,74
1,31,0,385
1,31,118,95
1,31,0,288
1,31,116,72
1,31,0,49
1,31,118,71
1,31,0,341
1,31,114,139
1,31,0,298
1,31,101,62
1,31,0,52
1,31,116,68
1,31,0,418
1,31,116,62
1,31,0,318
1,31,107,42
1,31,0,53
1,31,118,67
1,31,0,383
1,31,116,97
1,31,0,304
1,31,116,56
1,31,0,114
1,38,109,6
1,38,0,421
1,36,116,59
1,36,0,290
1,36,105,70
1,36,0,45
1,36,114,75
1,36,0,427
1,31,118,53
1,31,0,291
1,31,107,69
1,31,0,46
1,31,114,74
1,31,0,436
1,38,121,44
1,38,0,281
1,38,105,79
1,38,0,46
1,38,118,74
1,38,0,384
1,36,118,96
1,36,0,280
1,36,116,80
1,36,0,54
1,36,118,66
1,36,0,439
1,31,121,41
1,31,0,296
1,31,109,64
1,31,0,54
1,31,118,66
1,31,0,381
1,28,121,99
1,28,0,287
1,28,111,73
1,28,0,47
1,28,114,73
1,28,0,297
1,28,118,63
1,28,0,114
1,38,116,6
1,38,0,278
1,38,114,82
1,38,0,42
1,38,126,78
1,38,0,297
1,38,123,63
1,38,0,50
1,36,116,70
1,36,0,268
1,36,111,92
1,36,0,44
1,36,116,76
1,36,0,441
1,31,121,39
1,31,0,278
1,31,98,82
1,31,0,44
1,31,118,76
1,31,0,441
1,33,114,39
1,33,0,295
1,33,105,65
1,33,0,54
1,33,111,66
1,33,0,388
1,36,118,92
1,36,0,254
1,36,101,106
1,36,0,51
1,36,114,69
1,36,0,386
1,31,126,94
1,31,0,286
1,31,107,74
1,31,0,41
1,31,123,79
1,31,0,391
1,31,118,89
1,31,0,299
1,31,116,61
1,31,0,51
1,31,126,69
1,31,0,105
1,43,111,15
1,43,0,111
1,38,118,9
1,31,121,120
1,38,0,1
1,31,0,99
1,31,114,20
1,31,0,298
1,31,101,62
1,31,0,52
1,31,116,68
1,31,0,418
1,31,116,62
1,31,0,318
1,31,107,42
1,31,0,53
1,31,118,67
1,31,0,383
1,31,116,97
1,31,0,304
1,31,116,56
1,31,0,114
1,38,109,6
1,38,0,421
1,36,116,59
1,36,0,290
1,36,105,70
1,36,0,45
1,36,114,75
1,36,0,427
1,31,118,53
1,31,0,291
1,31,107,69
1,31,0,46
1,31,114,74
1,31,0,436
1,38,121,44
1,38,0,281
1,38,105,79
1,38,0,46
1,38,118,74
1,38,0,384
1,36,118,96
1,36,0,280
1,36,116,80
1,36,0,54
1,36,118,66
1,36,0,439
1,31,121,41
1,31,0,296
1,31,109,64
1,31,0,54
1,31,118,66
1,31,0,381
1,28,121,99
1,28,0,287
1,28,111,73
1,28,0,47
1,28,114,73
1,28,0,297
1,28,118,63
1,28,0,114
1,38,116,6
1,38,0,278
1,38,114,82
1,38,0,42
1,38,126,78
1,38,0,297
1,38,123,63
1,38,0,50
1,36,116,70
1,36,0,268
1,36,111,92
1,36,0,44
1,36,116,76
1,36,0,441
1,31,121,39
1,31,0,278
1,31,98,82
1,31,0,44
1,31,118,76
1,31,0,441
1,33,114,39
1,33,0,295
1,33,105,65
1,33,0,54
1,33,111,66
1,33,0,388
1,36,118,92
1,36,0,254
1,36,101,106
1,36,0,51
1,36,114,69
1,36,0,386
1,28,126,94
1,28,0,272
1,28,123,88
1,28,0,52
1,28,127,68
1,28,0,303
1,28,123,57
1,28,0,109
1,40,116,11
1,28,118,120
1,40,0,19
1,28,0,95
1,40,118,6
1,40,0,100
1,38,118,20
1,38,0,184
1,38,126,56
1,38,0,188
1,38,126,52
1,38,0,71
1,31,114,49
1,31,0,298
1,31,101,62
1,31,0,52
1,31,116,68
1,31,0,418
1,31,116,62
1,31,0,318
1,31,107,42
1,31,0,53
1,31,118,67
1,31,0,383
1,31,116,97
1,31,0,304
1,31,116,56
1,31,0,114
1,38,109,6
1,38,0,421
1,33,127,59
1,33,0,268
1,33,121,92
1,33,0,50
1,33,127,70
1,33,0,279
1,33,121,81
1,33,0,59
1,31,118,61
1,31,0,291
1,31,107,69
1,31,0,46
1,31,114,74
1,31,0,436
1,38,121,44
1,38,0,281
1,38,105,79
1,38,0,46
1,38,118,74
1,38,0,384
1,36,118,96
1,36,0,280
1,36,116,80
1,36,0,54
1,36,118,66
1,36,0,439
1,31,121,41
1,31,0,296
1,31,109,64
1,31,0,54
1,31,118,66
1,31,0,381
1,28,118,99
1,28,0,269
1,28,109,91
1,28,0,49
1,28,116,71
1,28,0,417
1,28,111,63
1,28,0,284
1,28,105,76
1,28,0,56
1,28,116,64
1,28,0,108
1,40,101,12
1,28,109,120
1,40,0,1
1,28,0,210
1,36,116,29
1,36,0,268
1,36,111,92
1,36,0,44
1,36,116,76
1,36,0,441
1,31,121,39
1,31,0,278
1,31,98,82
1,31,0,44
1,31,118,76
1,31,0,441
1,33,114,39
1,33,0,295
1,33,105,65
1,33,0,54
1,33,111,66
1,33,0,388
1,36,118,92
1,36,0,254
1,36,101,106
1,36,0,51
1,36,114,69
1,36,0,386
1,40,116,94
1,40,0,282
1,40,103,78
1,40,0,56
1,40,105,64
1,40,0,444
1,28,118,36
1,28,0,275
1,28,114,85
1,28,0,51
1,28,121,69
1,40,114,120
1,28,0,5
1,28,121,115
1,40,0,24
1,28,0,70
1,36,127,26
1,36,0,320
1,36,126,40
1,36,0,314
1,36,118,46
1,36,0,182
1,36,116,58
1,36,0,113
1,31,118,7
1,31,0,258
1,31,103,102
1,31,0,46
1,31,116,74
1,31,0,305
1,36,127,55
1,36,0,328
1,36,118,32
1,36,0,299
1,36,114,61
1,36,0,189
1,36,114,51
1,36,0,59
1,31,127,61
1,31,0,286
1,31,114,74
1,31,0,46
1,31,118,74
1,31,0,343
1,33,121,137
1,33,0,267
1,33,114,93
1,33,0,46
1,33,126,74
1,33,0,320
1,33,118,40
1,33,0,111
1,36,118,9
1,36,0,281
1,36,105,79
1,36,0,52
1,36,118,68
1,36,0,206
1,36,118,34
1,36,0,76
1,31,127,44
1,31,0,1808
1,36,123,232
1,36,0,261
1,36,103,99
1,36,0,47
1,36,114,73
1,36,0,359
1,36,118,121
1,36,0,269
1,36,109,91
1,36,0,43
1,36,118,77
1,35,101,240
1,36,0,3
1,33,105,117
1,35,0,11
1,33,0,78
1,31,121,31
1,31,0,280
1,31,111,80
1,31,0,46
1,31,118,74
1,31,0,393
1,31,118,87
1,31,0,269
1,31,111,91
1,31,0,44
1,31,118,76
1,31,0,399
1,36,126,81
1,36,0,282
1,36,111,78
1,36,0,43
1,36,118,77
1,36,0,376
1,36,118,104
1,36,0,274
1,36,118,86
1,36,0,41
1,36,121,79
1,36,0,376
1,31,127,104
1,31,0,284
1,31,118,76
1,31,0,41
1,31,123,79
1,31,0,389
1,31,126,91
1,31,0,257
1,31,121,103
1,31,0,41
1,31,126,79
1,31,0,305
1,31,127,55
1,31,0,65
1,36,123,55
1,36,0,296
1,36,118,64
1,36,0,39
1,36,126,81
1,36,0,373
1,36,126,107
1,36,0,256
1,36,118,104
1,36,0,50
1,36,123,70
1,36,0,364
1,31,127,116
1,31,0,251
1,31,107,109
1,31,0,49
1,31,121,71
1,31,0,452
1,29,127,28
1,29,0,270
1,29,116,90
1,29,0,43
1,29,127,77
1,29,0,423
1,36,118,57
1,36,0,275
1,36,116,85
1,36,0,41
1,36,121,79
1,36,0,377
1,36,121,103
1,36,0,292
1,36,109,68
1,36,0,42
1,36,123,78
1,36,0,410
1,31,127,70
1,31,0,294
1,31,114,66
1,31,0,41
1,31,126,79
1,31,0,384
1,29,123,96
1,29,0,257
1,29,116,103
1,29,0,59
1,29,121,61
1,29,0,424
1,36,127,56
1,36,0,276
1,36,118,84
1,36,0,48
1,36,121,72
1,36,0,392
1,36,127,88
1,36,0,276
1,36,116,84
1,36,0,50
1,36,126,70
1,36,0,453
1,28,123,27
1,28,0,2024
2,62,122,960
2,59,107,0
2,67,113,0
2,59,0,1815
2,67,0,14
2,62,0,5
2,60,110,86
2,64,113,0
2,67,107,0
2,60,0,846
2,67,0,6
2,64,0,5
2,57,116,103
2,64,116,0
2,67,113,0
2,57,0,873
2,67,0,10
2,64,0,1
2,62,110,76
2,59,110,0
2,67,107,0
2,59,0,1810
2,67,0,6
2,62,0,2
2,60,119,102
2,64,122,0
2,67,110,0
2,60,0,867
2,67,0,10
2,64,0,8
2,57,113,75
2,64,110,0
2,67,110,0
2,57,0,828
2,64,0,3
2,67,0,12
2,55,87,117
2,59,98,0
2,62,100,0
2,59,0,1588
2,62,0,12
2,55,0,0
2,43,68,320
2,55,85,0
2,62,91,0
2,59,91,0
2,43,0,1786
2,55,0,43
2,62,0,0
2,59,0,6
2,62,105,85
2,55,98,0
2,59,105,0
2,55,0,36
2,59,0,21
2,62,0,5
2,57,76,120
2,66,87,0
2,62,91,0
2,50,87,0
2,66,0,60
2,57,0,13
2,62,0,3
2,50,0,3
2,55,85,50
2,60,93,0
2,64,100,0
2,48,89,0
2,64,0,678
2,60,0,19
2,55,0,62
2,48,0,12
2,62,93,189
2,59,89,0
2,55,89,0
2,55,0,10
2,59,0,20
2,62,0,9
2,62,87,63
2,66,82,0
2,57,74,0
2,50,87,0
2,57,0,108
2,66,0,18
2,62,0,13
2,50,0,12
2,55,87,41
2,64,105,0
2,60,93,0
2,48,87,0
2,64,0,53
2,60,0,18
2,55,0,2
2,48,0,27
2,62,87,29
2,55,78,0
2,59,91,0
2,43,72,0
2,43,0,49
2,55,0,25
2,62,0,11
2,59,0,3
2,59,85,36
2,52,93,0
2,67,91,0
2,64,85,0
2,59,0,16
2,67,0,20
2,52,0,2
2,64,0,15
2,55,89,26
2,48,91,0
2,60,89,0
2,64,102,0
2,55,0,52
2,48,0,9
2,64,0,6
2,60,0,9
2,55,87,22
2,59,91,0
2,62,91,0
2,55,0,150
2,59,0,9
2,62,0,6
2,60,98,78
2,64,89,0
2,45,82,0
2,57,85,0
2,45,0,50
2,57,0,26
2,60,0,2
2,64,0,16
2,60,85,54
2,55,80,0
2,64,82,0
2,48,82,0
2,48,0,27
2,55,0,11
2,60,0,16
2,64,0,8
2,59,87,37
2,64,93,0
2,55,87,0
2,52,85,0
2,55,0,239
2,52,0,6
2,59,0,1
2,64,0,18
2,62,89,29
2,66,85,0
2,66,0,606
2,62,0,0
2,64,105,354
2,60,98,0
2,67,95,0
2,67,0,49
2,64,0,5
2,60,0,18
2,43,82,13
2,62,93,0
2,55,93,0
2,59,89,0
2,43,0,26
2,55,0,11
2,59,0,7
2,62,0,5
2,55,89,40
2,48,85,0
2,60,91,0
2,64,105,0
2,64,0,58
2,55,0,1
2,60,0,12
2,48,0,10
2,43,82,34
2,62,89,0
2,59,82,0
2,55,87,0
2,43,0,124
2,55,0,7
2,59,0,2
2,62,0,10
2,45,95,29
2,57,89,0
2,60,102,0
2,64,102,0
2,45,0,31
2,60,0,22
2,57,0,3
2,64,0,16
2,55,89,30
2,48,91,0
2,60,98,0
2,64,102,0
2,55,0,65
2,64,0,9
2,48,0,10
2,60,0,2
2,43,89,15
2,62,100,0
2,59,98,0
2,55,91,0
2,43,0,1683
2,55,0,4
2,59,0,2
2,62,0,9
2,43,68,2142
2,55,85,0
2,62,91,0
2,59,91,0
2,43,0,1786
2,55,0,43
2,62,0,0
2,59,0,6
2,62,105,85
2,55,98,0
2,59,105,0
2,55,0,36
2,59,0,21
2,62,0,5
2,57,76,120
2,66,87,0
2,62,91,0
2,50,87,0
2,66,0,60
2,57,0,13
2,62,0,3
2,50,0,3
2,55,85,50
2,60,93,0
2,64,100,0
2,48,89,0
2,64,0,678
2,60,0,19
2,55,0,62
2,48,0,12
2,62,93,189
2,59,89,0
2,55,89,0
2,55,0,10
2,59,0,20
2,62,0,9
2,62,87,63
2,66,82,0
2,57,74,0
2,50,87,0
2,57,0,108
2,66,0,18
2,62,0,13
2,50,0,12
2,55,87,41
2,64,105,0
2,60,93,0
2,48,87,0
2,64,0,53
2,60,0,18
2,55,0,2
2,48,0,27
2,62,87,29
2,55,78,0
2,59,91,0
2,43,72,0
2,43,0,49
2,55,0,25
2,62,0,11
2,59,0,3
2,59,105,36
2,64,127,0
2,55,113,0
2,52,110,0
2,64,0,84
2,59,0,27
2,55,0,2
2,52,0,10
2,54,95,351
2,57,105,0
2,62,105,0
2,57,0,759
2,54,0,6
2,62,0,16
2,55,89,179
2,48,91,0
2,60,89,0
2,64,102,0
2,55,0,52
2,48,0,9
2,64,0,6
2,60,0,9
2,55,87,22
2,59,91,0
2,62,91,0
2,55,0,150
2,59,0,9
2,62,0,6
2,60,98,78
2,64,89,0
