track,note,velocity,time
5,64,67,14690
5,64,0,46
5,66,64,3
5,66,60,44
5,66,0,2
5,66,0,92
5,64,68,2
5,64,0,46
5,64,63,6
5,64,61,46
5,64,0,0
5,64,0,94
5,66,66,2
5,66,0,92
5,64,59,291
5,64,0,92
5,66,68,6
5,66,0,62
5,64,64,1
5,64,0,62
5,64,64,2
5,64,0,62
5,64,65,5
5,64,0,190
5,64,62,286
5,64,0,92
5,66,59,6
5,66,0,92
5,64,64,2
5,64,0,46
5,64,60,2
5,64,0,46
5,64,61,3
5,64,0,94
5,66,62,1
5,66,0,94
5,66,59,259
5,66,0,62
5,66,68,5
5,66,0,62
5,66,60,0
5,66,0,62
5,64,67,1
5,64,0,62
5,64,64,2
5,64,0,62
5,64,61,4
5,64,0,188
5,66,67,290
5,66,0,46
5,67,66,2
5,67,0,46
5,66,67,2
5,66,0,94
5,64,59,2
5,64,0,46
5,62,67,4
5,62,67,46
5,62,0,0
5,62,0,94
5,66,61,0
5,66,0,94
5,62,62,244
5,62,0,46
5,66,68,1
5,66,0,46
5,66,66,2
5,66,0,46
5,66,67,3
5,66,0,62
5,64,66,1
5,64,0,62
5,62,68,5
5,62,0,62
5,62,61,1
5,62,0,190
5,64,67,290
5,64,0,46
5,64,67,2
5,64,66,46
5,64,0,0
5,64,0,46
5,64,59,5
5,64,64,43
5,64,0,3
5,64,0,43
5,62,67,5
5,62,0,46
5,64,60,5
5,62,67,92
5,64,0,2
5,62,0,44
5,64,65,2
5,64,0,140
5,66,68,198
5,66,0,46
5,66,59,2
5,66,0,46
5,66,59,1
5,66,0,94
5,64,64,4
5,64,60,46
5,64,0,0
5,64,0,94
5,64,67,2
5,64,0,140
5,66,63,292
5,66,0,46
5,66,62,2
5,66,0,46
5,67,67,50
5,67,0,46
5,66,62,2
5,66,0,46
5,66,61,1
5,66,0,46
5,67,65,5
5,67,0,94
5,66,59,2
5,66,0,94
5,66,66,288
5,66,59,51
5,66,0,43
5,66,60,0
5,64,63,48
5,66,0,3
5,66,0,43
5,64,0,48
5,64,64,3
5,64,0,238
5,64,59,390
5,64,0,46
5,64,67,0
5,64,0,46
5,64,65,2
5,64,0,46
5,62,66,0
5,62,0,46
5,64,66,5
5,64,63,45
5,64,0,1
5,64,0,93
5,66,64,4
5,66,0,46
5,66,61,49
5,66,0,46
5,66,59,4
5,66,0,46
5,66,65,0
5,66,0,46
5,66,64,3
5,66,0,62
5,66,61,0
5,66,0,62
5,66,62,2
5,66,0,62
5,66,67,4
5,66,0,62
5,64,67,2
5,64,0,62
5,64,66,2
5,64,0,62
5,64,59,50
5,64,0,140
5,66,64,290
5,66,0,46
5,66,67,4
5,66,0,46
5,66,61,1
5,64,60,61
5,66,0,1
5,64,0,61
5,62,59,7
5,62,66,62
5,62,0,0
5,62,0,94
5,66,64,3
5,66,0,94
5,59,63,291
5,59,0,46
5,57,62,0
5,57,0,46
5,66,60,2
5,64,68,94
5,66,0,0
5,64,0,46
5,62,64,3
5,62,0,46
5,62,60,6
5,62,0,188
5,64,65,290
5,64,67,45
5,64,0,1
5,64,0,45
5,64,63,4
5,64,0,46
5,64,64,2
5,64,0,46
5,64,65,2
5,64,0,46
5,62,65,0
5,62,0,46
5,64,68,2
5,64,0,46
5,62,60,7
5,64,64,93
5,62,0,1
5,64,0,139
5,66,61,193
5,66,0,46
5,64,60,7
5,66,61,43
5,64,0,3
5,66,0,91
5,70,62,6
5,70,0,94
5,64,61,3
5,64,0,190
5,67,64,287
5,67,0,46
5,67,64,3
5,67,0,46
5,67,61,50
5,67,0,46
5,67,66,1
5,67,0,46
5,67,62,6
5,67,65,91
5,67,0,3
5,67,0,139
5,69,63,6
5,69,0,94
5,67,62,1
5,67,0,46
5,67,66,1
5,67,0,92
5,67,67,4
5,67,0,44
5,66,68,580
5,66,0,46
5,66,65,0
5,66,0,46
5,66,68,4
5,66,0,92
5,66,60,3
5,66,0,44
5,66,62,7
5,66,0,128
5,64,67,399
5,64,0,46
5,64,62,2
5,64,67,46
5,64,0,0
5,64,0,92
5,64,66,4
5,64,0,44
5,64,63,6
5,64,0,130
5,67,66,491
5,67,0,46
5,67,60,3
5,67,0,46
5,67,68,3
5,67,0,46
5,67,65,2
5,67,0,94
5,67,67,2
5,67,0,46
5,67,68,47
5,67,0,46
5,67,65,4
5,67,68,94
5,67,0,0
5,67,0,94
5,69,62,6
5,67,60,92
5,69,0,2
5,67,0,44
5,67,61,3
5,67,0,92
5,67,68,7
5,67,0,46
5,64,67,575
5,64,0,46
5,66,62,7
5,66,0,46
5,66,66,1
5,66,0,94
5,66,59,2
5,66,0,46
5,66,66,2
5,66,0,142
5,64,67,385
5,67,62,46
5,64,0,0
5,67,0,46
5,67,64,1
5,67,0,92
5,67,59,6
5,67,0,46
5,67,64,1
5,67,0,142
5,64,59,531
5,64,0,46
5,66,59,3
5,66,0,42
5,66,62,3
5,66,0,46
5,67,63,4
5,67,0,62
5,66,67,1
5,66,0,62
5,66,61,2
5,66,0,62
5,67,65,5
5,67,0,94
5,66,67,1
5,66,0,94
5,66,64,239
5,66,0,46
5,66,62,4
5,66,0,46
5,66,68,1
5,66,0,46
5,66,65,0
5,66,0,94
5,64,64,5
5,64,0,46
5,64,66,2
5,64,0,46
5,64,65,51
5,64,0,140
5,64,63,241
5,64,0,46
5,64,67,6
5,64,68,45
5,64,0,1
5,64,0,45
5,64,65,5
5,64,60,44
5,64,0,2
5,64,0,44
5,66,61,3
5,66,0,46
5,64,64,2
5,64,0,46
5,66,61,52
5,64,61,45
5,66,0,1
5,64,0,45
5,64,62,5
5,64,0,140
5,66,65,290
5,66,0,46
5,64,65,2
5,64,0,94
5,64,68,2
5,64,0,236
5,64,64,291
5,64,0,46
5,66,67,6
5,66,0,46
5,66,63,0
5,66,0,94
5,64,68,1
5,64,0,46
5,62,63,4
5,62,0,46
5,62,60,0
5,62,0,94
5,66,63,4
5,66,0,94
5,66,59,195
5,66,0,190
5,64,65,64
5,64,0,62
5,62,68,4
5,62,63,62
5,62,0,0
5,62,0,190
5,64,66,291
5,64,0,94
5,64,59,1
5,64,0,94
5,64,66,4
5,62,67,46
5,64,0,0
5,62,0,46
5,66,59,2
5,66,0,94
5,64,61,3
5,64,0,94
5,66,62,291
5,66,68,93
5,66,0,1
5,66,0,93
5,64,61,3
5,64,0,46
5,64,62,3
5,64,0,46
5,64,67,50
5,64,0,140
5,66,67,291
5,66,0,46
5,66,59,0
5,66,0,46
5,66,60,51
5,66,0,46
5,66,61,6
5,66,0,46
5,66,64,2
5,66,0,46
5,67,59,0
5,66,59,94
5,67,0,0
5,66,0,94
5,64,64,245
5,64,0,140
5,66,63,49
5,66,0,46
5,64,66,4
5,64,0,46
5,64,65,0
5,64,0,46
5,64,63,3
5,64,0,46
5,64,66,4
5,64,0,140
5,64,63,241
5,64,0,46
5,64,60,1
5,64,0,46
5,64,66,4
5,64,0,46
5,64,67,68
5,64,62,61
5,64,0,1
5,64,0,61
5,64,62,49
5,64,0,46
5,64,68,2
5,64,0,46
5,64,62,5
5,64,0,140
5,61,62,4
5,61,0,94
5,66,59,98
5,66,0,46
5,66,67,3
5,66,0,46
5,64,59,64
5,64,0,62
5,64,62,2
5,64,0,62
5,64,59,3
5,64,0,188
5,66,65,290
5,66,0,94
5,66,68,3
5,66,0,94
5,66,62,4
5,66,62,94
5,66,0,0
5,66,0,46
5,64,65,1
5,64,0,46
5,62,60,4
5,62,0,46
5,62,59,1
5,62,0,94
5,64,66,2
5,64,0,46
5,66,67,2
5,66,0,94
5,66,64,4
5,62,68,284
5,66,0,2
5,62,0,44
5,62,61,4
5,62,0,428
5,64,62,100
5,64,0,46
5,64,64,4
5,64,0,46
5,64,65,1
5,64,0,94
5,64,59,3
5,62,68,45
5,64,0,1
5,62,0,45
5,64,62,4
5,64,0,46
5,64,59,0
5,64,0,46
5,64,68,2
5,64,0,46
5,62,59,4
5,62,0,46
5,66,62,2
5,66,0,94
5,66,68,193
5,66,0,46
5,64,62,1
5,64,0,46
5,66,67,1
5,66,0,94
5,69,62,3
5,69,0,94
5,64,61,3
5,64,0,142
5,64,68,2
5,64,0,236
5,67,61,100
5,67,0,46
5,67,60,3
5,67,0,46
5,67,68,52
5,67,0,46
5,67,60,0
5,67,67,45
5,67,0,1
5,67,0,93
5,67,67,4
5,67,0,142
5,69,66,4
5,69,0,94
5,67,67,0
5,67,0,46
5,67,64,1
5,67,0,92
5,67,66,4
5,67,0,46
5,66,68,578
5,66,0,46
5,66,63,5
5,66,0,46
5,66,66,1
5,66,59,94
5,66,0,0
5,66,0,46
5,66,62,3
5,66,0,142
5,64,64,385
5,64,0,46
5,64,63,5
5,64,0,46
5,64,62,0
5,64,0,94
5,64,63,1
5,64,0,46
5,64,64,1
5,64,0,142
5,59,66,436
5,59,0,46
5,67,61,3
5,67,62,45
5,67,0,1
5,67,0,45
5,67,67,3
5,67,0,46
5,67,67,2
5,67,0,94
5,67,66,2
5,67,0,46
5,67,59,50
5,67,0,46
5,67,65,2
5,67,0,94
5,67,67,0
5,67,0,94
5,69,63,4
5,69,0,94
5,67,65,3
5,67,0,46
5,67,64,1
5,67,0,94
5,67,68,1
5,67,0,46
5,64,68,581
5,64,0,46
5,66,59,2
5,66,64,46
5,66,0,0
5,66,0,94
5,66,66,3
5,66,0,46
5,66,63,3
5,66,0,142
5,64,63,386
5,67,61,45
5,64,0,1
5,67,0,45
5,67,66,4
5,67,65,94
5,67,0,0
5,67,0,46
5,67,68,7
5,67,0,430
5,66,59,287
5,66,0,46
5,66,60,1
5,66,0,110
5,67,63,4
5,67,0,62
5,66,59,1
5,66,0,62
5,67,68,3
5,67,0,94
5,66,67,2
5,66,0,190
5,66,67,190
5,66,0,46
5,66,64,6
5,66,0,110
5,66,66,2
5,64,67,61
5,66,0,1
5,64,0,61
5,66,61,4
5,66,0,142
5,66,64,340
5,66,0,46
5,64,67,0
5,64,0,46
5,64,60,0
5,64,0,94
5,64,61,4
5,64,0,94
5,66,61,0
5,66,0,62
5,64,67,3
5,64,0,62
5,64,62,5
5,64,0,60
5,66,59,4
5,66,0,94
5,64,60,195
5,64,0,46
5,66,59,3
5,66,0,46
5,66,60,3
5,66,0,118
5,62,65,14
5,62,0,62
5,62,63,2
5,62,0,190
5,66,67,282
5,66,0,46
5,66,68,4
5,66,0,110
5,66,62,2
5,66,0,62
5,62,63,7
5,62,0,62
5,62,62,3
5,62,0,94
5,64,63,3
5,64,0,94
5,66,61,285
5,66,0,90
5,64,63,4
5,64,0,62
5,64,68,3
5,64,0,62
5,62,65,9
5,62,0,62
5,62,64,21
5,62,0,190
5,64,63,263
5,64,0,90
5,64,61,4
5,64,0,62
5,64,68,5
5,64,0,62
5,62,61,6
5,62,0,62
5,64,68,41
5,64,0,46
5,62,65,6
5,62,0,46
5,64,61,3
5,64,0,138
5,64,64,5
5,64,0,46
5,62,59,2
5,62,0,42
5,66,62,4
5,66,0,94
5,66,64,0
5,66,0,94
5,66,67,49
5,66,0,96
5,66,62,6
5,66,0,40
5,66,62,6
5,66,0,190
5,66,60,290
5,66,0,90
5,66,64,6
5,66,0,62
5,67,64,0
5,67,0,62
5,66,67,4
5,66,0,60
5,67,67,1
5,67,0,94
5,66,63,5
5,66,0,94
5,66,62,287
5,66,0,46
5,66,61,8
5,66,0,42
5,66,59,65
5,66,0,62
5,64,60,6
5,64,0,56
5,66,66,6
5,66,0,190
5,57,66,336
5,57,0,46
5,64,67,4
5,64,62,45
5,64,0,1
5,64,0,45
5,64,59,5
5,64,0,46
5,64,60,4
5,64,0,42
5,64,65,5
5,64,0,46
5,64,62,2
5,64,0,94
5,64,66,2
5,64,0,138
5,66,61,4
5,66,0,46
5,66,64,6
5,66,0,40
5,66,60,1
5,66,0,94
5,66,65,4
5,66,0,90
5,66,59,7
5,66,0,94
5,62,68,5
5,64,66,46
5,62,0,0
5,64,0,232
5,62,61,296
5,62,0,46
5,66,68,4
5,66,0,142
5,64,63,1
5,64,0,46
5,62,68,5
5,62,0,40
5,62,66,3
5,62,0,94
5,66,62,3
5,66,0,94
5,62,65,98
5,62,0,46
5,59,66,2
5,59,0,46
5,64,61,98
5,64,0,46
5,62,64,3
5,62,0,46
5,62,59,45
5,62,0,96
5,59,62,8
5,59,0,40
5,64,64,3
5,64,0,190
5,64,60,293
5,64,0,46
5,64,59,2
5,64,0,42
5,64,63,4
5,64,0,42
5,64,68,4
5,64,0,46
5,64,65,2
5,64,0,46
5,62,64,6
5,62,0,42
5,64,64,66
5,64,0,62
5,62,64,7
5,62,0,60
5,66,65,1
5,66,0,94
5,66,62,144
5,66,0,46
5,66,65,2
5,66,0,46
5,66,62,8
5,66,0,104
5,70,66,2
5,70,0,62
5,66,61,3
5,66,0,60
5,66,60,6
5,66,0,186
6,62,105,26976
6,71,106,1
6,62,0,45
6,62,109,1
6,71,0,0
6,71,108,0
6,62,0,46
6,71,0,0
6,62,113,51
6,71,111,0
6,62,0,46
6,71,0,0
6,62,108,2
6,71,113,1
6,62,0,45
6,71,114,1
6,71,0,0
6,62,109,1
6,71,0,93
6,62,0,1
6,62,108,1
6,71,109,1
6,62,0,141
6,71,0,1
6,73,105,2
6,64,112,0
6,73,0,94
6,64,0,0
6,71,107,2
6,62,113,1
6,71,0,45
6,62,0,1
6,71,110,1
6,62,108,1
6,71,0,45
6,69,105,1
6,62,0,0
6,57,105,2
6,69,0,44
6,57,0,2
6,69,112,2
6,62,109,0
6,69,0,46
6,62,0,0
6,70,109,962
6,66,112,0
6,70,0,46
6,66,105,0
6,66,0,0
6,70,107,2
6,66,0,44
6,70,0,2
6,66,106,1
6,70,113,1
6,66,0,45
6,70,0,1
6,64,108,0
6,68,109,2
6,64,0,44
6,68,0,2
6,68,112,1
6,64,107,1
6,68,0,45
6,64,0,1
6,64,113,0
6,68,107,1
6,64,0,141
6,68,0,1
6,71,114,866
6,62,112,1
6,71,0,45
6,62,0,1
6,71,110,1
6,62,107,0
6,71,0,46
6,62,0,0
6,62,111,1
6,71,105,0
6,62,0,46
6,71,0,0
6,71,107,2
6,62,114,0
6,71,0,94
6,62,0,0
6,62,111,3
6,71,106,1
6,62,0,45
6,71,0,1
6,62,107,49
6,71,113,1
6,62,0,45
6,71,0,1
6,71,105,1
6,62,112,0
6,71,0,94
6,62,0,0
6,71,107,2
6,62,114,0
6,71,0,94
6,62,0,0
6,73,107,1
6,64,108,1
6,73,0,93
6,64,0,1
6,71,113,1
6,62,108,1
6,71,0,45
6,62,0,1
6,71,108,1
6,62,109,1
6,71,0,45
6,62,0,1
6,57,112,2
6,69,110,1
6,57,112,46
6,69,108,1
6,57,0,46
6,69,0,1
6,57,0,46
6,69,0,1
6,67,114,914
6,64,105,0
6,67,0,46
6,64,0,0
6,66,107,1
6,69,109,1
6,66,0,45
6,69,0,1
6,69,112,2
6,66,113,1
6,69,0,45
6,64,107,1
6,66,0,0
6,67,112,2
6,64,0,44
6,67,112,2
6,67,0,0
6,64,112,2
6,67,0,44
6,64,0,2
6,67,113,0
6,64,114,2
6,67,0,140
6,64,0,2
6,62,111,13248
6,71,106,1
6,62,0,45
6,71,0,1
6,71,112,2
6,62,113,0
6,71,0,46
6,62,0,0
6,71,108,50
6,62,105,1
6,71,0,45
6,62,0,1
6,62,114,0
6,71,112,2
6,62,0,44
6,71,0,2
6,71,107,1
6,62,107,0
6,71,0,94
6,62,0,0
6,71,112,1
6,62,108,0
6,71,0,142
6,62,0,0
6,64,109,2
6,73,112,2
6,64,0,92
6,73,0,2
6,71,105,2
6,62,112,0
6,71,0,46
6,62,110,0
6,62,0,0
6,71,114,2
6,62,0,44
6,71,0,2
6,57,113,1
6,69,112,1
6,57,0,45
6,69,0,1
6,69,113,0
6,57,110,1
6,69,0,45
6,57,0,1
6,66,111,961
6,70,114,1
6,66,0,45
6,70,0,1
6,70,112,1
6,66,106,2
6,70,0,44
6,66,0,2
