track,note,velocity,time
3,31,108,1544
3,31,108,100
3,31,108,100
3,31,108,104
3,31,108,120
3,31,108,88
3,31,108,120
3,31,108,120
3,31,108,136
3,31,108,104
3,31,108,132
3,31,108,148
3,31,108,136
3,31,108,120
3,31,108,120
3,36,108,104
3,43,108,76
3,43,108,92
3,38,108,168
3,38,108,100
3,43,108,28
3,43,108,172
3,38,108,164
3,38,108,192
3,43,108,44
3,43,108,140
3,38,108,152
3,38,108,164
3,43,108,44
3,43,108,172
3,38,108,152
3,43,108,8
3,43,108,108
3,43,108,140
3,38,108,72
3,38,108,188
3,38,108,140
3,38,108,132
3,38,108,172
3,38,108,136
3,34,108,152
3,36,108,192
3,34,108,12
3,31,108,220
3,43,108,332
3,43,108,108
3,43,108,140
3,38,108,76
3,38,108,184
3,38,108,136
3,38,108,136
3,38,108,172
3,38,108,136
3,34,108,152
3,36,108,192
3,34,108,12
3,31,108,220
3,46,108,332
3,40,108,12
3,43,108,156
3,38,108,40
3,41,108,172
3,38,108,188
3,38,108,252
3,38,108,120
3,38,108,156
3,41,108,136
3,38,108,8
3,38,108,188
3,38,108,168
3,34,108,88
3,36,108,156
3,34,108,12
3,31,108,28
3,46,108,252
3,40,108,12
3,43,108,156
3,38,108,40
3,41,108,172
3,38,108,188
3,38,108,252
3,38,108,120
3,38,108,156
3,41,108,136
3,38,108,8
3,38,108,188
3,38,108,168
3,34,108,88
3,36,108,156
3,34,108,12
3,31,108,24
3,46,108,248
3,46,108,140
3,43,108,172
3,38,108,120
3,41,108,156
3,38,108,8
3,38,108,284
3,38,108,188
3,41,108,140
3,38,108,4
3,36,108,12
3,38,108,8
3,36,108,40
3,34,108,12
3,36,108,188
3,34,108,380
3,31,108,104
3,43,108,136
3,43,108,52
3,43,108,76
3,43,108,152
3,38,108,124
3,38,108,132
3,38,108,76
3,38,108,148
3,33,108,384
3,38,108,168
3,38,108,132
3,38,108,88
3,38,108,152
3,34,108,384
3,36,108,12
3,34,108,192
3,31,108,204
3,43,108,376
3,43,108,48
3,43,108,72
3,43,108,152
3,38,108,124
3,38,108,132
3,38,108,76
3,38,108,152
3,33,108,384
3,38,108,172
3,38,108,132
3,38,108,88
3,38,108,152
3,34,108,384
3,36,108,12
3,34,108,192
3,31,108,204
3,46,108,376
3,40,108,12
3,43,108,156
3,38,108,40
3,41,108,172
3,38,108,188
3,38,108,252
3,38,108,120
3,38,108,156
3,41,108,140
3,38,108,8
3,38,108,188
3,38,108,168
3,34,108,88
3,36,108,152
3,34,108,12
3,31,108,28
3,46,108,252
3,40,108,8
3,43,108,152
3,38,108,40
3,41,108,172
3,38,108,188
3,38,108,252
3,38,108,120
3,38,108,156
3,41,108,136
3,38,108,8
3,38,108,188
3,38,108,168
3,34,108,88
3,36,108,152
3,34,108,12
3,31,108,28
3,46,108,252
3,46,108,88
3,46,108,116
3,38,108,60
3,41,108,28
3,41,108,12
3,41,108,268
3,41,108,156
3,41,108,44
3,42,108,220
3,36,108,108
3,38,108,24
3,36,108,88
3,34,108,88
3,31,108,64
3,46,108,136
3,46,108,92
3,46,108,120
3,38,108,60
3,41,108,28
3,41,108,12
3,41,108,268
3,41,108,156
3,41,108,44
3,42,108,220
3,36,108,108
3,38,108,24
3,36,108,88
3,34,108,88
3,31,108,68
3,43,108,120
3,43,108,168
3,38,108,24
3,38,108,140
3,43,108,156
3,43,108,148
3,38,108,28
3,38,108,140
3,36,108,156
3,36,108,180
3,34,108,8
3,34,108,120
3,34,108,76
3,31,108,152
3,43,108,280
3,38,108,36
3,38,108,140
3,38,108,136
3,43,108,140
3,43,108,136
3,38,108,24
3,38,108,136
3,43,108,120
3,43,108,100
3,38,108,40
3,38,108,140
3,34,108,252
3,34,108,128
3,36,108,24
3,36,108,124
3,31,108,156
3,31,108,92
3,38,108,276
3,43,108,88
3,41,108,0
3,38,108,12
3,31,108,12
3,43,108,156
3,43,108,108
3,43,108,120
3,43,108,100
3,43,108,116
3,43,108,120
3,43,108,120
3,43,108,120
3,38,108,120
3,38,108,116
3,38,108,120
3,38,108,120
3,38,108,120
3,38,108,120
3,38,108,120
3,38,108,120
3,38,108,120
3,38,108,120
3,38,108,120
3,38,108,116
3,38,108,120
3,38,108,120
3,38,108,120
3,38,108,120
3,43,108,120
3,43,108,120
3,43,108,120
3,43,108,104
3,43,108,116
3,43,108,120
3,43,108,120
3,43,108,104
3,43,108,120
3,43,108,116
3,43,108,136
3,43,108,120
3,43,108,116
3,43,108,120
3,43,108,120
3,43,108,104
3,38,108,100
3,38,108,104
3,38,108,136
3,38,108,104
3,38,108,116
3,38,108,120
3,38,108,120
3,38,108,104
3,38,108,120
3,38,108,120
3,38,108,136
3,38,108,120
3,38,108,136
3,38,108,136
3,38,108,120
3,38,108,120
3,43,108,136
3,43,108,120
3,43,108,136
3,43,108,104
3,43,108,116
3,43,108,156
3,43,108,124
3,43,108,124
3,46,108,120
3,40,108,156
3,43,108,152
3,38,108,108
3,41,108,156
3,38,108,28
3,38,108,188
3,38,108,188
3,41,108,156
3,38,108,12
3,38,108,156
3,38,108,184
3,36,108,136
3,34,108,8
3,31,108,24
3,31,108,152
3,46,108,152
3,46,108,140
3,43,108,152
3,38,108,120
3,41,108,168
3,38,108,44
3,38,108,184
3,41,108,136
3,38,108,8
3,38,108,140
3,34,108,168
3,36,108,152
3,34,108,8
3,31,108,56
3,43,108,960
3,43,108,208
3,38,108,8
3,38,108,140
3,43,108,140
3,43,108,80
3,38,108,24
3,38,108,124
3,36,108,152
3,34,108,12
3,31,108,24
3,43,108,8
3,38,108,284
3,41,108,72
3,38,108,0
3,41,108,12
3,38,108,124
3,41,108,124
3,43,108,132
3,43,108,132
3,38,108,8
3,38,108,140
3,43,108,184
3,43,108,176
3,38,108,24
3,38,108,124
3,34,108,156
3,36,108,12
3,31,108,24
3,43,108,384
3,41,108,244
3,38,108,24
3,41,108,16
3,38,108,28
3,41,108,124
3,38,108,28
3,43,108,136
3,43,108,108
3,43,108,136
3,43,108,120
3,43,108,116
3,43,108,104
3,43,108,120
3,38,108,120
3,38,108,120
3,38,108,100
3,38,108,120
3,38,108,104
3,38,108,116
3,38,108,120
3,38,108,120
3,38,108,120
3,38,108,120
3,38,108,120
3,38,108,120
3,38,108,104
3,38,108,120
3,38,108,120
3,38,108,104
3,36,108,120
3,34,108,72
3,31,108,24
3,43,108,960
3,43,108,136
3,43,108,120
3,43,108,120
3,43,108,116
3,43,108,120
3,43,108,120
3,43,108,120
3,38,108,116
3,38,108,120
3,38,108,120
3,38,108,104
3,38,108,116
3,38,108,120
3,38,108,120
3,38,108,120
3,38,108,120
3,38,108,116
3,38,108,136
3,38,108,120
3,38,108,120
3,38,108,116
3,38,108,120
3,36,108,120
3,34,108,8
3,31,108,384
3,38,108,360
3,41,108,184
3,38,108,4
3,41,108,108
3,38,108,176
3,36,108,172
3,38,108,188
3,36,108,380
3,34,108,12
3,36,108,192
3,34,108,360
3,31,108,8
3,31,108,60
3,41,108,44
3,38,108,192
3,36,108,188
3,38,108,188
3,36,108,12
3,34,108,192
3,36,108,184
3,34,108,380
3,29,108,172
3,31,108,188
4,67,92,1544
4,67,92,8
4,65,92,12
4,62,92,188
4,62,92,72
4,65,92,60
4,62,92,188
4,62,92,72
4,60,92,964
4,58,92,152
4,55,92,8
4,67,92,964
4,67,92,108
4,65,92,24
4,62,92,188
4,62,92,56
4,65,92,12
4,62,92,184
4,62,92,88
4,60,92,28
4,58,92,4
4,58,92,60
4,60,92,0
4,55,92,248
4,58,92,4
4,60,92,12
4,57,92,0
4,55,92,188
4,58,92,0
4,58,92,12
4,55,92,196
4,58,92,0
4,60,92,12
4,57,92,0
4,55,92,188
4,58,92,0
4,58,92,12
4,55,92,200
4,58,92,0
4,60,92,12
4,57,92,0
4,55,92,188
4,58,92,0
4,58,92,12
4,55,92,200
4,58,92,4
4,60,92,12
4,57,92,0
4,55,92,188
4,58,92,0
4,58,92,12
4,72,92,24588
4,65,92,28
4,69,92,28
4,72,92,12
4,72,92,252
4,77,92,156
4,74,92,192
4,72,92,12
4,74,92,60
4,72,92,44
4,70,92,12
4,72,92,12
4,70,92,28
4,67,92,192
4,79,92,188
4,72,92,24556
4,65,92,28
4,69,92,44
4,72,92,192
4,72,92,236
4,72,92,188
4,69,92,12
4,67,92,12
4,69,92,192
4,74,92,156
4,77,92,204
4,74,92,8
4,72,92,12
4,70,92,76
4,67,92,8
4,72,92,60
4,65,92,60
4,69,92,60
4,72,92,192
4,69,92,12
4,72,92,28
4,72,92,156
4,69,92,28
4,67,92,192
4,69,92,188
4,74,92,140
4,77,92,188
4,74,92,12
4,72,92,28
4,70,92,60
4,67,92,12
4,55,92,380
4,58,92,0
4,53,92,92
4,57,92,0
4,55,92,156
4,58,92,0
4,55,92,588
4,58,92,0
4,57,92,92
4,53,92,0
4,58,92,156
4,55,92,0
4,60,92,540
4,55,92,0
4,58,92,92
4,55,92,0
4,55,92,172
4,60,92,0
4,55,92,600
4,58,92,0
4,53,92,88
4,57,92,4
4,55,92,156
4,58,92,0
4,55,92,620
4,58,92,0
4,53,92,88
4,57,92,0
4,55,92,152
4,58,92,0
4,55,92,572
4,58,92,0
4,53,92,92
4,57,92,0
4,55,92,156
4,58,92,0
4,57,92,1212
4,53,92,0
4,53,92,348
4,57,92,0
4,55,92,540
4,58,92,0
4,53,92,108
4,57,92,0
4,55,92,156
4,58,92,0
4,67,92,12492
4,67,92,12
4,65,92,12
4,62,92,192
4,62,92,76
4,65,92,60
4,62,92,192
4,62,92,76
4,60,92,960
4,58,92,156
4,55,92,8
4,67,92,964
4,67,92,108
4,65,92,28
4,62,92,192
4,62,92,60
4,65,92,12
4,62,92,192
4,62,92,92
4,60,92,28
4,58,92,12
4,58,92,56
4,60,92,4
4,77,92,24604
4,74,92,192
4,72,92,12
4,74,92,28
4,72,92,60
4,70,92,60
4,72,92,28
4,70,92,384
4,67,92,12
4,79,92,192
4,65,92,172
4,62,92,192
4,60,92,12
4,62,92,12
4,60,92,384
4,58,92,188
4,60,92,184
4,58,92,12
4,53,92,192
4,55,92,12
5,58,80,1544
5,58,80,124
5,60,80,44
5,57,80,192
5,57,80,12
5,60,80,60
5,57,80,192
5,57,80,60
5,55,80,960
5,53,80,156
5,50,80,12
5,58,80,44
5,58,80,60
5,60,80,28
5,57,80,192
5,57,80,12
5,60,80,12
5,57,80,8
5,60,80,0
5,57,80,124
5,55,80,960
5,53,80,188
5,55,80,8
5,76,80,30732
5,74,80,152
5,72,80,12
5,74,80,12
5,74,80,236
5,81,80,156
5,78,80,192
5,76,80,12
5,78,80,12
5,76,80,12
5,74,80,60
5,76,80,60
5,74,80,384
5,70,80,28
5,74,80,28
5,65,80,24636
5,62,80,44
5,62,80,124
5,65,80,192
5,65,80,236
5,62,80,156
5,65,80,192
5,65,80,204
5,62,80,76
5,65,80,156
5,62,80,28
5,60,80,192
5,58,80,108
5,55,80,32
5,65,80,12
5,62,80,48
5,62,80,156
5,65,80,192
5,65,80,236
5,62,80,172
5,65,80,192
5,65,80,220
5,69,80,92
5,72,80,92
5,69,80,28
5,67,80,12
5,65,80,76
5,62,80,0
5,77,105,18108
5,72,105,0
5,58,80,5288
5,58,80,124
5,60,80,44
5,57,80,192
5,57,80,12
5,60,80,60
5,57,80,192
5,57,80,60
5,55,80,960
5,53,80,156
5,50,80,12
5,58,80,44
5,58,80,60
5,60,80,28
5,57,80,192
5,57,80,12
5,60,80,12
5,57,80,12
5,60,80,0
5,57,80,124
5,55,80,960
5,53,80,188
5,55,80,12
5,69,80,24556
5,65,80,192
5,64,80,156
5,65,80,188
5,64,80,364
5,62,80,12
5,64,80,12
5,62,80,12
5,58,80,192
5,62,80,188
5,69,80,44
5,66,80,192
5,64,80,140
5,66,80,172
5,64,80,380
5,62,80,188
5,64,80,188
5,62,80,380
5,58,80,188
5,62,80,172
6,55,80,1540
6,58,80,0
6,58,80,124
6,55,80,0
6,53,80,108
6,57,80,0
6,53,80,28
6,57,80,0
6,57,80,140
6,53,80,0
6,53,80,156
6,57,80,0
6,53,80,28
6,57,80,0
6,57,80,124
6,53,80,0
6,53,80,140
6,57,80,0
6,53,80,44
6,57,80,0
6,50,80,108
6,55,80,0
6,55,80,172
6,58,80,0
6,55,80,172
6,58,80,0
6,53,80,124
6,57,80,0
6,53,80,44
6,57,80,0
6,57,80,124
6,53,80,0
6,53,80,252
6,57,80,0
6,53,80,44
6,57,80,0
6,57,80,140
6,53,80,0
6,55,80,188
6,58,80,0
6,53,80,12
6,58,80,12
6,55,80,0
6,53,80,1176
6,55,80,12
6,53,80,408
6,55,80,196
6,53,80,136
6,55,80,196
6,53,80,104
6,55,80,196
6,70,80,684
6,74,80,0
6,67,80,0
6,74,80,716
6,70,80,0
6,67,80,0
6,66,80,716
6,62,80,0
6,69,80,0
6,66,80,716
6,62,80,0
6,69,80,0
6,66,80,716
6,69,80,0
6,62,80,0
6,66,80,716
6,62,80,0
6,69,80,0
6,74,80,716
6,67,80,0
6,70,80,0
6,67,80,716
6,74,80,0
6,70,80,0
6,70,80,716
6,74,80,0
6,67,80,0
6,74,80,712
6,70,80,4
6,67,80,0
6,66,80,716
6,62,80,0
6,69,80,0
6,66,80,716
6,62,80,0
6,69,80,0
6,66,80,716
6,69,80,0
6,62,80,0
6,66,80,716
6,62,80,0
6,69,80,0
6,74,80,716
6,67,80,0
6,70,80,0
6,67,80,716
6,74,80,0
6,70,80,0
6,70,80,716
6,74,80,0
6,67,80,0
6,74,80,716
6,70,80,0
6,67,80,0
6,66,80,716
6,62,80,0
6,69,80,0
6,66,80,716
6,62,80,0
6,69,80,0
6,66,80,716
6,69,80,0
6,62,80,0
6,66,80,716
6,62,80,0
6,69,80,0
6,74,80,716
6,67,80,0
6,70,80,0
6,67,80,716
6,74,80,0
6,70,80,0
6,70,80,716
6,74,80,0
6,67,80,0
6,74,80,716
6,70,80,0
6,67,80,0
6,66,80,716
6,62,80,0
6,69,80,0
6,66,80,716
6,62,80,0
6,69,80,0
6,66,80,716
6,69,80,0
6,62,80,0
6,66,80,716
6,62,80,0
6,69,80,0
6,74,80,716
6,67,80,0
6,70,80,0
6,67,80,716
6,74,80,0
6,70,80,0
6,70,80,6860
6,74,80,0
6,67,80,0
6,74,80,716
6,70,80,0
6,67,80,0
6,66,80,716
6,62,80,0
6,69,80,0
6,66,80,716
6,62,80,0
6,69,80,0
6,66,80,716
6,69,80,0
6,62,80,0
6,66,80,716
6,62,80,0
6,69,80,0
6,74,80,716
6,67,80,0
6,70,80,0
6,67,80,716
6,74,80,0
6,70,80,0
6,70,80,712
6,74,80,4
6,67,80,0
6,74,80,716
6,70,80,0
6,67,80,0
6,66,80,716
6,62,80,0
6,69,80,0
6,66,80,716
6,62,80,0
6,69,80,0
6,66,80,716
6,69,80,0
6,62,80,0
6,66,80,716
6,62,80,0
6,69,80,0
6,74,80,716
6,67,80,0
6,70,80,0
6,67,80,716
6,74,80,0
6,70,80,0
6,70,80,716
6,74,80,0
6,67,80,0
6,74,80,716
6,70,80,0
6,67,80,0
6,66,80,712
6,62,80,4
6,69,80,0
6,66,80,716
6,62,80,0
6,69,80,0
6,66,80,716
6,69,80,0
6,62,80,0
6,66,80,716
6,62,80,0
6,69,80,0
6,74,80,716
6,67,80,0
6,70,80,0
6,67,80,716
6,74,80,0
6,70,80,0
6,70,80,716
6,74,80,0
6,67,80,0
6,74,80,716
6,70,80,0
6,67,80,0
6,66,80,716
6,62,80,0
6,69,80,0
6,66,80,716
6,62,80,0
6,69,80,0
6,66,80,716
6,69,80,0
6,62,80,0
6,66,80,716
6,62,80,0
6,69,80,0
6,74,80,716
6,67,80,0
6,70,80,0
6,67,80,716
6,74,80,0
6,70,80,0
6,55,80,37196
6,58,80,0
6,58,80,124
6,55,80,0
6,53,80,108
6,57,80,0
6,53,80,28
6,57,80,0
6,57,80,140
6,53,80,0
6,53,80,156
6,57,80,0
