track,note,velocity,time
3,66,127,7740
3,66,0,30
3,66,127,0
3,66,0,30
3,66,127,0
3,66,0,60
3,64,127,0
3,64,0,30
3,64,127,0
3,64,0,30
3,64,127,0
3,64,0,60
3,64,127,0
3,64,0,15
3,66,127,0
3,66,0,45
3,64,127,180
3,64,0,30
3,66,127,0
3,66,0,30
3,66,127,0
3,66,0,30
3,64,127,0
3,64,0,60
3,64,127,0
3,64,0,30
3,64,127,0
3,64,0,120
3,64,127,180
3,64,0,30
3,66,127,0
3,66,0,30
3,66,127,0
3,66,0,60
3,64,127,0
3,64,0,30
3,64,127,0
3,64,0,30
3,64,127,0
3,64,0,60
3,64,127,0
3,64,0,15
3,66,127,0
3,66,0,45
3,66,127,150
3,66,0,60
3,66,127,0
3,66,0,30
3,66,127,0
3,66,0,40
3,64,127,0
3,64,0,40
3,64,127,0
3,64,0,40
3,64,127,0
3,64,0,45
3,62,127,0
3,62,0,15
3,59,127,0
3,59,0,60
3,66,127,180
3,66,0,30
3,66,127,0
3,66,0,30
3,66,127,0
3,66,0,60
3,64,127,0
3,64,0,30
3,62,127,0
3,62,0,30
3,62,127,0
3,62,0,60
3,65,127,0
3,65,0,15
3,66,127,0
3,66,0,45
3,62,127,150
3,62,0,30
3,66,127,0
3,66,0,30
3,66,127,0
3,66,0,30
3,66,127,0
3,66,0,40
3,64,127,0
3,64,0,40
3,62,127,0
3,62,0,40
3,62,127,0
3,62,0,15
3,57,127,0
3,57,0,45
3,62,127,210
3,62,0,30
3,64,127,0
3,64,0,30
3,64,127,0
3,64,0,30
3,64,127,0
3,64,0,30
3,64,127,0
3,64,0,30
3,64,127,0
3,64,0,30
3,62,127,0
3,62,0,30
3,64,127,0
3,64,0,60
3,62,127,0
3,62,0,30
3,66,127,0
3,66,0,90
3,64,127,90
3,64,0,30
3,66,127,0
3,66,0,30
3,66,127,0
3,66,0,30
3,66,127,0
3,66,0,60
3,64,127,0
3,64,0,30
3,64,127,0
3,64,0,60
3,64,127,0
3,64,0,15
3,66,127,0
3,66,0,75
3,66,127,180
3,66,0,30
3,66,127,0
3,66,0,60
3,67,127,0
3,67,0,30
3,66,127,0
3,66,0,30
3,66,127,0
3,66,0,30
3,67,127,0
3,67,0,60
3,66,127,0
3,66,0,60
3,61,127,150
3,61,0,30
3,64,127,0
3,64,0,30
3,66,127,0
3,66,0,30
3,66,127,0
3,66,0,30
3,64,127,0
3,64,0,60
3,64,127,0
3,64,0,90
3,57,127,270
3,57,0,30
3,64,127,0
3,64,0,30
3,64,127,0
3,64,0,30
3,64,127,0
3,64,0,30
3,62,127,0
3,62,0,30
3,64,127,0
3,64,0,30
3,64,127,0
3,64,0,60
3,66,127,0
3,66,0,60
3,66,127,0
3,66,0,30
3,66,127,0
3,66,0,30
3,66,127,0
3,66,0,30
3,66,127,0
3,66,0,40
3,66,127,0
3,66,0,40
3,66,127,0
3,66,0,40
3,66,127,0
3,66,0,40
3,64,127,0
3,64,0,40
3,64,127,0
3,64,0,40
3,64,127,0
3,64,0,60
3,62,127,0
3,62,0,30
3,59,127,0
3,59,0,90
3,66,127,120
3,66,0,30
3,66,127,0
3,66,0,30
3,66,127,0
3,66,0,40
3,64,127,0
3,64,0,40
3,62,127,0
3,62,0,40
3,62,127,0
3,62,0,60
3,64,127,0
3,64,0,15
3,66,127,0
3,66,0,45
3,57,127,180
3,57,0,30
3,62,127,0
3,62,0,30
3,66,127,0
3,66,0,60
3,64,127,0
3,64,0,30
3,62,127,0
3,62,0,30
3,62,127,0
3,62,0,45
3,59,127,0
3,59,0,15
3,57,127,0
3,57,0,60
3,64,127,180
3,64,0,30
3,64,127,0
3,64,0,30
3,64,127,0
3,64,0,30
3,64,127,0
3,64,0,30
3,64,127,0
3,64,0,30
3,64,127,0
3,64,0,30
3,64,127,0
3,64,0,60
3,62,127,0
3,62,0,30
3,64,127,0
3,64,0,15
3,66,127,0
3,66,0,75
3,66,127,90
3,66,0,30
3,66,127,0
3,66,0,30
3,64,127,0
3,64,0,30
3,66,127,0
3,66,0,60
3,69,127,0
3,69,0,30
3,70,127,0
3,70,0,30
3,66,127,0
3,66,0,30
3,64,127,0
3,64,0,90
3,67,127,180
3,67,0,23
3,67,127,7
3,67,0,47
3,67,127,13
3,67,0,23
3,67,127,7
3,67,0,23
3,67,127,7
3,67,0,47
3,67,127,13
3,67,0,71
3,67,127,19
3,67,0,20
3,69,127,0
3,69,0,33
3,67,127,7
3,67,0,23
3,67,127,7
3,67,0,20
3,66,127,0
3,66,0,33
3,66,127,7
3,66,0,71
3,66,127,319
3,66,0,23
3,66,127,7
3,66,0,23
3,66,127,7
3,66,0,30
3,64,127,0
3,64,0,23
3,64,127,7
3,64,0,23
3,64,127,7
3,64,0,83
3,64,127,247
3,64,0,23
3,64,127,7
3,64,0,23
3,64,127,7
3,64,0,30
3,62,127,0
3,62,0,23
3,62,127,7
3,62,0,23
3,62,127,7
3,62,0,83
3,67,127,307
3,67,0,23
3,67,127,7
3,67,0,23
3,67,127,7
3,67,0,23
3,67,127,7
3,67,0,53
3,67,127,7
3,67,0,53
3,67,127,7
3,67,0,23
3,67,127,7
3,67,0,53
3,67,127,7
3,67,0,53
3,67,127,7
3,67,0,30
3,69,127,0
3,69,0,23
3,67,127,7
3,67,0,23
3,67,127,7
3,67,0,30
3,66,127,0
3,66,0,23
3,66,127,7
3,66,0,83
3,64,127,307
3,64,0,23
3,66,127,7
3,66,0,23
3,66,127,7
3,66,0,30
3,64,127,0
3,64,0,23
3,64,127,7
3,64,0,23
3,64,127,7
3,64,0,83
3,67,127,247
3,67,0,23
3,67,127,7
3,67,0,23
3,67,127,7
3,67,0,30
3,66,127,0
3,66,0,23
3,66,127,7
3,66,0,23
3,66,127,7
3,66,0,83
3,66,127,337
3,66,0,23
3,66,127,7
3,66,0,23
3,66,127,7
3,66,0,23
3,67,127,7
3,67,0,35
3,66,127,5
3,66,0,35
3,66,127,5
3,66,0,35
3,67,127,5
3,67,0,53
3,65,127,7
3,65,0,30
3,66,127,0
3,66,0,23
3,66,127,157
3,66,0,23
3,66,127,7
3,66,0,23
3,66,127,7
3,66,0,23
3,66,127,7
3,66,0,35
3,64,127,5
3,64,0,35
3,64,127,5
3,64,0,35
3,64,127,35
3,64,0,30
3,66,127,0
3,66,0,53
3,54,127,7
3,54,0,23
3,64,127,127
3,64,0,23
3,64,127,7
3,64,0,23
3,64,127,7
3,64,0,23
3,64,127,7
3,64,0,23
3,64,127,7
3,64,0,23
3,66,127,7
3,66,0,23
3,64,127,7
3,64,0,23
3,66,127,47
3,66,0,35
3,64,127,5
3,64,0,35
3,66,127,5
3,66,0,53
3,59,127,157
3,59,0,23
3,66,127,7
3,66,0,23
3,64,127,7
3,64,0,53
3,64,127,7
3,64,0,60
3,62,127,0
3,62,0,30
3,59,127,0
3,59,0,60
3,66,127,180
3,66,0,23
3,66,127,7
3,66,0,23
3,66,127,7
3,66,0,53
3,64,127,7
3,64,0,23
3,62,127,7
3,62,0,23
3,62,127,7
3,62,0,53
3,64,127,7
3,64,0,30
3,66,127,0
3,66,0,23
3,65,127,127
3,65,0,30
3,66,127,0
3,66,0,130
3,64,127,0
3,64,0,35
3,62,127,5
3,62,0,35
3,62,127,5
3,62,0,30
3,57,127,0
3,57,0,90
3,64,127,180
3,64,0,53
3,64,127,7
3,64,0,53
3,64,127,7
3,64,0,23
3,62,127,7
3,62,0,23
3,64,127,7
3,64,0,30
3,66,127,0
3,66,0,30
3,62,127,0
3,62,0,30
3,64,127,0
3,64,0,30
3,66,127,180
3,66,0,53
3,66,127,7
3,66,0,35
3,64,127,5
3,64,0,35
3,64,127,5
3,64,0,35
3,64,127,5
3,64,0,30
3,66,127,0
3,66,0,90
3,66,127,180
3,66,0,23
3,66,127,7
3,66,0,53
3,66,127,7
3,66,0,23
3,66,127,7
3,66,0,23
3,66,127,7
3,66,0,23
3,67,127,7
3,67,0,53
3,64,127,7
3,64,0,30
3,66,127,0
3,66,0,23
3,64,127,157
3,64,0,30
3,66,127,0
3,66,0,53
3,66,127,7
3,66,0,35
3,64,127,5
3,64,0,35
3,64,127,5
3,64,0,35
3,64,127,5
3,64,0,30
3,66,127,0
3,66,0,90
3,52,127,30
3,52,0,23
3,54,127,7
3,54,0,53
3,64,127,47
3,64,0,35
3,64,127,5
3,64,0,35
3,64,127,5
3,64,0,35
3,64,127,5
3,64,0,35
3,64,127,5
3,64,0,35
3,64,127,5
3,64,0,35
3,64,127,5
3,64,0,35
3,64,127,5
3,64,0,100
3,59,127,0
3,59,0,53
3,66,127,67
3,66,0,53
3,66,127,7
3,66,0,35
3,64,127,5
3,64,0,35
3,64,127,5
3,64,0,35
3,64,127,5
3,64,0,30
3,62,127,0
3,62,0,30
3,59,127,0
3,59,0,60
3,64,127,180
3,64,0,30
3,66,127,0
3,66,0,23
3,66,127,7
3,66,0,53
3,66,127,7
3,66,0,53
3,66,127,7
3,66,0,23
3,64,127,7
3,64,0,23
3,62,127,7
3,62,0,23
3,62,127,7
3,62,0,53
3,64,127,7
3,64,0,23
3,66,127,7
3,66,0,53
3,66,127,7
3,66,0,150
3,64,127,0
3,64,0,23
3,62,127,7
3,62,0,23
3,62,127,7
3,62,0,180
3,59,127,0
3,59,0,30
3,57,127,0
3,57,0,30
3,64,127,60
3,64,0,23
3,64,127,7
3,64,0,23
3,64,127,7
3,64,0,23
3,64,127,7
3,64,0,53
3,64,127,7
3,64,0,23
3,62,127,7
3,62,0,23
3,64,127,7
3,64,0,23
3,64,127,7
3,64,0,23
3,64,127,7
3,64,0,23
3,62,127,7
3,62,0,23
3,64,127,7
3,64,0,30
3,66,127,0
3,66,0,30
3,66,127,120
3,66,0,23
3,64,127,7
3,64,0,23
3,66,127,7
3,66,0,53
3,69,127,7
3,69,0,30
3,70,127,0
3,70,0,30
3,66,127,0
3,66,0,30
3,64,127,0
3,64,0,90
3,64,127,0
3,64,0,30
3,66,127,0
3,66,0,90
3,67,127,60
3,67,0,23
3,67,127,7
3,67,0,47
3,67,127,13
3,67,0,23
3,67,127,7
3,67,0,23
3,67,127,7
3,67,0,47
3,67,127,13
3,67,0,71
3,67,127,19
3,67,0,20
3,69,127,0
3,69,0,33
3,67,127,7
3,67,0,23
3,67,127,7
3,67,0,20
3,66,127,0
3,66,0,33
3,66,127,7
3,66,0,71
3,66,127,319
3,66,0,23
3,66,127,7
3,66,0,23
3,66,127,7
3,66,0,30
3,64,127,0
3,64,0,23
3,64,127,7
3,64,0,23
3,64,127,7
3,64,0,83
3,64,127,247
3,64,0,23
3,64,127,7
3,64,0,23
3,64,127,7
3,64,0,30
3,62,127,0
3,62,0,23
3,62,127,7
3,62,0,23
3,59,127,7
3,59,0,83
3,62,127,277
3,62,0,23
3,67,127,7
3,67,0,23
3,67,127,7
3,67,0,23
3,67,127,7
3,67,0,23
3,67,127,7
3,67,0,53
3,67,127,7
3,67,0,53
3,67,127,7
3,67,0,23
3,67,127,7
3,67,0,53
3,67,127,7
3,67,0,53
3,67,127,7
3,67,0,30
3,69,127,0
3,69,0,23
3,67,127,7
3,67,0,23
3,67,127,7
3,67,0,30
3,66,127,0
3,66,0,23
3,66,127,7
3,66,0,83
3,64,127,307
3,64,0,23
3,66,127,7
3,66,0,23
3,66,127,7
3,66,0,30
3,64,127,0
3,64,0,23
3,64,127,7
3,64,0,23
3,64,127,7
3,64,0,83
3,67,127,247
3,67,0,23
3,67,127,7
3,67,0,23
3,67,127,7
3,67,0,30
3,66,127,0
3,66,0,23
3,66,127,7
3,66,0,23
3,66,127,7
3,66,0,263
3,66,127,187
3,66,0,23
3,66,127,7
3,66,0,53
3,67,127,7
3,67,0,53
3,66,127,7
3,66,0,23
3,67,127,7
3,67,0,53
3,64,127,7
3,64,0,30
3,66,127,0
3,66,0,83
3,52,127,97
3,52,0,23
3,66,127,7
3,66,0,23
3,66,127,7
3,66,0,53
3,66,127,7
3,66,0,53
3,64,127,7
3,64,0,23
3,64,127,7
3,64,0,30
3,66,127,0
3,66,0,23
3,52,127,37
3,52,0,23
3,54,127,7
3,54,0,23
3,54,127,7
3,54,0,23
3,66,127,127
3,66,0,23
3,64,127,7
3,64,0,23
3,64,127,7
3,64,0,53
3,64,127,7
3,64,0,53
3,66,127,7
3,66,0,35
3,64,127,5
3,64,0,35
3,64,127,5
3,64,0,35
3,64,127,5
3,64,0,30
3,66,127,0
3,66,0,83
3,66,127,67
3,66,0,23
3,66,127,7
3,66,0,23
3,66,127,7
3,66,0,30
3,64,127,0
3,64,0,53
3,62,127,7
3,62,0,23
3,62,127,7
3,62,0,53
3,62,127,217
3,62,0,23
3,66,127,7
3,66,0,23
3,66,127,7
3,66,0,23
3,66,127,7
3,66,0,53
3,64,127,7
3,64,0,53
3,62,127,7
3,62,0,53
3,66,127,7
3,66,0,53
3,54,127,157
3,54,0,23
3,66,127,7
3,66,0,53
3,64,127,7
3,64,0,35
3,64,127,5
3,64,0,35
3,62,127,5
3,62,0,35
3,62,127,5
3,62,0,53
3,52,127,217
3,52,0,23
3,64,127,7
3,64,0,53
3,64,127,7
3,64,0,35
3,64,127,5
3,64,0,35
3,62,127,5
3,62,0,35
3,64,127,35
3,64,0,53
3,62,127,7
3,62,0,23
3,66,127,7
3,66,0,53
3,66,127,7
3,66,0,23
3,62,127,7
3,62,0,23
3,66,127,7
3,66,0,53
3,66,127,7
3,66,0,53
3,66,127,37
3,66,0,53
3,64,127,7
3,64,0,23
3,66,127,7
3,66,0,53
3,66,127,247
3,66,0,53
3,66,127,7
3,66,0,35
3,67,127,5
3,67,0,35
3,66,127,5
3,66,0,35
3,67,127,5
3,67,0,53
3,65,127,7
3,65,0,30
3,66,127,0
3,66,0,23
3,59,127,67
3,59,0,30
3,59,127,0
3,59,0,23
3,66,127,67
3,66,0,23
3,66,127,7
3,66,0,53
3,66,127,7
3,66,0,23
3,64,127,7
3,64,0,23
3,64,127,7
3,64,0,30
3,66,127,0
3,66,0,53
3,64,127,277
3,64,0,23
3,64,127,7
3,64,0,23
3,64,127,7
3,64,0,23
3,64,127,7
3,64,0,23
3,64,127,7
3,64,0,23
3,64,127,7
3,64,0,23
3,64,127,7
3,64,0,53
3,64,127,7
3,64,0,30
3,66,127,0
3,66,0,53
3,66,127,7
3,66,0,23
3,66,127,7
3,66,0,23
3,66,127,7
3,66,0,53
3,66,127,7
3,66,0,53
3,66,127,7
3,66,0,30
3,64,127,0
3,64,0,23
3,62,127,7
3,62,0,23
3,64,127,7
3,64,0,60
3,62,127,0
3,62,0,30
3,59,127,0
3,59,0,60
3,62,127,180
3,62,0,23
3,66,127,7
3,66,0,83
3,64,127,7
3,64,0,23
3,62,127,7
3,62,0,23
3,62,127,7
3,62,0,53
3,64,127,7
3,64,0,30
3,66,127,0
3,66,0,23
3,57,127,67
3,57,0,23
3,59,127,7
3,59,0,83
3,54,127,7
3,54,0,23
3,54,127,7
3,54,0,53
3,54,127,7
3,54,0,53
3,55,127,7
3,55,0,23
3,54,127,7
3,54,0,60
3,52,127,0
3,52,0,30
3,50,127,0
3,50,0,30
3,64,127,180
3,64,0,23
3,64,127,7
3,64,0,23
3,64,127,7
3,64,0,23
3,64,127,7
3,64,0,23
3,64,127,7
3,64,0,23
3,62,127,7
3,62,0,53
3,64,127,7
3,64,0,53
3,62,127,7
3,62,0,23
3,64,127,7
3,64,0,30
3,66,127,0
3,66,0,23
3,66,127,97
3,66,0,23
3,66,127,7
3,66,0,23
3,66,127,7
3,66,0,53
3,70,127,7
3,70,0,23
3,66,127,7
3,66,0,53
3,66,127,7
3,66,0,30
3,64,127,0
3,64,0,30
3,66,127,0
3,66,0,60
4,71,91,15420
4,62,91,0
4,62,0,30
4,71,0,0
4,71,91,0
4,62,91,0
4,62,0,60
4,71,0,0
4,62,91,0
4,71,91,0
4,71,0,30
4,62,0,0
4,62,91,0
4,71,91,0
4,71,0,30
4,62,0,0
