track,note,velocity,time
1,43,127,3072
1,43,117,116
1,43,127,84
1,43,121,112
1,43,127,124
1,43,121,112
1,43,127,124
1,43,121,112
1,43,127,124
1,43,106,76
1,43,127,100
1,43,121,108
1,43,127,100
1,43,121,108
1,43,127,100
1,43,127,100
1,33,127,100
1,33,121,112
1,33,127,124
1,33,98,80
1,38,127,136
1,38,127,88
1,38,127,80
1,38,112,0
1,43,127,76
1,43,106,76
1,43,127,100
1,43,106,128
1,43,127,100
1,43,121,112
1,43,127,124
1,43,121,108
1,43,127,100
1,43,117,116
1,43,127,84
1,43,127,56
1,43,127,84
1,43,121,80
1,43,127,112
1,43,127,96
1,38,127,116
1,38,127,88
1,38,127,80
1,38,112,0
1,38,98,76
1,38,127,56
1,38,127,112
1,42,117,12
1,45,127,0
1,42,127,0
1,33,127,80
1,33,106,76
1,33,127,100
1,38,127,72
1,38,121,108
1,38,127,100
1,38,127,64
1,43,127,80
1,43,127,88
1,43,127,80
1,43,127,88
1,43,127,80
1,43,106,76
1,43,127,100
1,43,127,88
1,43,127,80
1,43,127,100
1,43,127,100
1,38,102,0
1,43,127,52
1,43,127,84
1,43,127,104
1,43,127,52
1,38,127,84
1,38,106,128
1,38,127,100
1,38,92,96
1,38,126,136
1,38,127,112
1,33,117,72
1,35,67,32
1,38,127,40
1,35,127,40
1,33,127,76
1,33,121,108
1,33,127,100
1,33,127,64
1,38,127,80
1,38,127,100
1,38,127,100
1,33,102,0
1,43,127,52
1,43,106,76
1,43,127,100
1,43,106,76
1,43,127,100
1,43,127,88
1,43,127,80
1,43,95,128
1,40,127,124
1,40,127,88
1,40,127,80
1,40,112,0
1,36,127,76
1,36,95,128
1,36,121,124
1,40,127,124
1,40,121,108
1,40,127,100
1,40,127,64
1,36,127,80
1,36,127,100
1,36,127,100
1,31,102,0
1,40,127,52
1,40,127,88
1,40,127,80
1,40,112,0
1,33,127,76
1,33,121,112
1,33,127,124
1,33,98,80
1,38,127,136
1,38,95,128
1,38,121,124
1,38,127,124
1,38,117,116
1,38,127,84
1,38,127,56
1,43,127,84
1,43,127,88
1,43,127,80
1,43,112,0
1,43,98,76
1,43,127,56
1,43,127,112
1,47,117,12
1,50,127,0
1,47,127,0
1,38,127,80
1,38,121,112
1,38,127,124
1,38,98,80
1,38,127,136
1,38,117,72
1,38,127,116
1,38,127,56
1,33,127,116
1,33,117,116
1,33,127,84
1,33,127,56
1,38,127,84
1,38,121,108
1,38,127,100
1,38,127,64
1,43,127,80
1,43,127,88
1,43,127,80
1,43,106,128
1,43,127,100
1,43,121,112
1,43,127,124
1,43,98,80
1,43,127,136
1,43,121,108
1,43,127,100
1,43,127,64
1,43,127,80
1,43,127,104
1,43,127,120
1,43,127,60
1,38,127,96
1,38,127,88
1,38,127,80
1,38,112,0
1,38,98,76
1,38,127,56
1,38,127,112
1,42,117,12
1,45,127,0
1,42,127,0
1,33,127,80
1,33,127,88
1,33,127,80
1,33,112,0
1,38,127,76
1,38,127,88
1,38,127,80
1,38,112,0
1,43,127,76
1,43,117,116
1,43,127,84
1,43,127,56
1,43,127,84
1,43,121,80
1,43,127,112
1,43,127,96
1,43,127,116
1,43,121,112
1,43,127,124
1,43,98,80
1,43,127,136
1,43,117,72
1,43,127,116
1,43,127,56
1,38,127,116
1,38,121,108
1,38,127,100
1,38,127,64
1,38,127,80
1,38,127,104
1,38,127,120
1,38,127,60
1,33,127,96
1,33,127,88
1,33,127,80
1,33,112,0
1,38,127,76
1,38,106,76
1,38,127,100
1,43,127,72
1,43,117,116
1,43,127,84
1,43,127,56
1,43,127,84
1,43,121,80
1,43,127,112
1,43,127,96
1,33,127,116
1,33,127,100
1,33,127,100
1,28,102,0
1,38,127,52
1,38,121,108
1,38,127,100
1,38,127,64
1,35,127,80
1,35,127,100
1,35,127,100
1,30,102,0
1,40,127,52
1,40,121,108
1,40,127,100
1,40,127,64
1,33,127,80
1,33,127,100
1,33,127,100
1,28,102,0
1,35,127,52
1,35,106,76
1,35,127,100
1,40,127,72
1,40,121,112
1,40,127,124
1,40,98,80
1,33,127,136
1,33,106,76
1,33,127,100
1,43,127,72
1,43,117,116
1,43,127,84
1,43,127,56
1,43,127,84
1,43,121,80
1,43,127,112
1,43,127,96
1,38,127,116
1,38,121,112
1,38,127,124
1,38,98,80
1,38,127,136
1,38,121,112
1,43,127,124
1,43,121,108
1,33,127,100
1,33,121,112
1,33,127,124
1,33,98,80
1,38,127,136
1,38,95,128
1,38,121,124
1,43,127,124
1,43,127,100
1,43,127,100
1,43,106,76
1,43,127,100
1,43,106,76
1,43,127,100
1,43,117,116
1,43,127,84
1,43,127,88
1,43,127,80
1,43,121,112
1,43,127,124
1,43,117,116
1,43,127,84
1,43,106,76
1,43,127,100
1,43,95,128
1,43,127,124
1,43,106,128
1,43,127,100
1,43,121,112
1,43,127,124
1,43,127,88
1,43,127,80
1,43,127,88
1,43,127,80
1,43,112,0
1,43,127,76
1,43,117,116
1,43,127,84
1,43,127,56
2,35,90,3072
2,42,90,0
2,49,80,0
2,54,90,0
2,70,60,0
2,42,40,96
2,54,40,0
2,70,22,0
2,69,60,0
2,42,70,96
2,37,115,0
2,54,60,0
2,39,80,0
2,70,60,0
2,69,90,0
2,35,70,96
2,42,40,0
2,54,40,0
2,70,22,0
2,35,90,96
2,42,90,0
2,54,90,0
2,70,60,0
2,42,40,96
2,54,40,0
2,70,22,0
2,69,60,0
2,42,70,96
2,37,115,0
2,54,60,0
2,39,80,0
2,70,60,0
2,69,90,0
2,35,70,96
2,42,40,0
2,54,40,0
2,70,22,0
2,35,90,96
2,42,90,0
2,54,90,0
2,70,60,0
2,42,55,96
2,54,40,0
2,70,22,0
2,69,60,0
2,42,95,96
2,37,115,0
2,54,60,0
2,39,80,0
2,70,60,0
2,69,90,0
2,35,70,96
2,42,50,0
2,54,40,0
2,70,22,0
2,35,90,96
2,42,108,0
2,54,90,0
2,70,60,0
2,42,90,96
2,54,40,0
2,70,22,0
2,69,60,0
2,42,100,96
2,37,115,0
2,54,60,0
2,39,80,0
2,70,60,0
2,69,90,0
2,35,75,96
2,46,90,0
2,54,40,0
2,70,22,0
2,35,90,96
2,42,90,0
2,54,90,0
2,70,60,0
2,42,40,96
2,54,40,0
2,70,22,0
2,69,60,0
2,42,90,96
2,37,115,0
2,54,60,0
2,39,80,0
2,70,60,0
2,69,90,0
2,35,70,96
2,42,60,0
2,54,40,0
2,70,22,0
2,35,90,96
2,42,90,0
2,54,90,0
2,70,60,0
2,42,40,96
2,54,40,0
2,70,22,0
2,69,60,0
2,42,90,96
2,37,115,0
2,54,60,0
2,39,80,0
2,70,60,0
2,69,90,0
2,35,70,96
2,42,40,0
2,54,40,0
2,70,22,0
2,35,90,96
2,42,90,0
2,54,90,0
2,70,60,0
2,42,40,96
2,54,40,0
2,70,22,0
2,69,60,0
2,42,100,96
2,37,115,0
2,54,60,0
2,39,80,0
2,70,60,0
2,69,90,0
2,35,70,96
2,42,40,0
2,54,40,0
2,70,22,0
2,35,90,96
2,42,90,0
2,54,90,0
2,70,60,0
2,42,40,96
2,54,40,0
2,70,22,0
2,69,60,0
2,42,100,96
2,37,115,0
2,54,60,0
2,39,80,0
2,70,60,0
2,69,90,0
2,35,75,96
2,42,50,0
2,54,40,0
2,70,22,0
2,35,90,96
2,42,90,0
2,54,90,0
2,70,60,0
2,42,40,96
2,54,40,0
2,70,22,0
2,69,60,0
2,42,90,96
2,37,115,0
2,54,60,0
2,39,80,0
2,70,60,0
2,69,90,0
2,35,70,96
2,42,60,0
2,54,40,0
2,70,22,0
2,35,90,96
2,42,90,0
2,54,90,0
2,70,60,0
2,42,40,96
2,54,40,0
2,70,22,0
2,69,60,0
2,42,90,96
2,37,115,0
2,54,60,0
2,39,80,0
2,70,60,0
2,69,90,0
2,35,70,96
2,42,40,0
2,54,40,0
2,70,22,0
2,35,90,96
2,42,90,0
2,54,90,0
2,70,60,0
2,42,40,96
2,54,40,0
2,70,22,0
2,69,60,0
2,42,100,96
2,37,115,0
2,54,60,0
2,39,80,0
2,70,60,0
2,69,90,0
2,35,70,96
2,42,40,0
2,54,40,0
2,70,22,0
2,35,90,96
2,42,90,0
2,54,90,0
2,70,60,0
2,42,40,96
2,54,40,0
2,70,22,0
2,69,60,0
2,42,100,96
2,37,115,0
2,54,60,0
2,39,80,0
2,70,60,0
2,69,90,0
2,35,75,96
2,42,50,0
2,54,40,0
2,70,22,0
2,35,90,96
2,42,90,0
2,54,90,0
2,70,60,0
2,42,40,96
2,54,40,0
2,70,22,0
2,69,60,0
2,42,90,96
2,37,115,0
2,54,60,0
2,39,80,0
2,70,60,0
2,69,90,0
2,35,70,96
2,42,60,0
2,54,40,0
2,70,22,0
2,35,90,96
2,42,90,0
2,54,90,0
2,70,60,0
2,46,90,96
2,54,40,0
2,70,22,0
2,69,60,0
2,42,90,96
2,37,115,0
2,54,60,0
2,39,80,0
2,70,60,0
2,69,90,0
2,35,70,96
2,42,40,0
2,54,40,0
2,70,22,0
2,42,70,0
2,35,90,0
2,42,90,0
2,54,90,0
2,70,60,0
2,42,44,96
2,54,40,0
2,70,22,0
2,69,60,0
2,42,100,96
2,37,115,0
2,54,60,0
2,39,80,0
2,70,60,0
2,69,90,0
2,35,70,96
2,42,55,0
2,54,40,0
2,70,22,0
2,35,90,96
2,42,90,0
2,54,90,0
2,70,60,0
2,42,44,96
2,54,40,0
2,70,22,0
2,69,60,0
2,46,90,96
2,37,115,0
2,54,60,0
2,39,80,0
2,70,60,0
2,69,90,0
2,35,75,96
2,42,60,0
2,54,40,0
2,70,22,0
2,35,90,96
2,42,90,0
2,54,90,0
2,70,60,0
2,42,40,96
2,54,40,0
2,70,22,0
2,69,60,0
2,42,90,96
2,37,115,0
2,54,60,0
2,39,80,0
2,70,60,0
2,69,90,0
2,35,70,96
2,42,60,0
2,54,40,0
2,70,22,0
2,54,70,0
2,35,90,0
2,42,90,0
2,54,90,0
2,70,60,0
2,42,40,96
2,54,40,0
2,70,22,0
2,69,60,0
2,42,90,96
2,37,115,0
2,54,60,0
2,39,80,0
2,70,60,0
2,69,90,0
2,35,70,96
2,42,40,0
2,54,40,0
2,70,22,0
2,42,70,0
2,35,90,0
2,42,90,0
2,54,90,0
2,70,60,0
2,42,55,96
2,54,40,0
2,70,22,0
2,69,60,0
2,42,95,96
2,37,115,0
2,54,60,0
2,39,80,0
2,70,60,0
2,69,90,0
2,35,70,96
2,42,50,0
2,54,40,0
2,70,22,0
2,35,90,96
2,42,108,0
2,54,90,0
2,70,60,0
2,42,90,96
2,54,40,0
2,70,22,0
2,69,60,0
2,42,100,96
2,37,115,0
2,54,60,0
2,39,80,0
2,70,60,0
2,69,90,0
2,35,75,96
2,46,90,0
2,54,40,0
2,70,22,0
2,35,90,96
2,42,90,0
2,54,90,0
2,70,60,0
2,42,40,96
2,54,40,0
2,70,22,0
2,69,60,0
2,42,90,96
2,37,115,0
2,54,60,0
2,39,80,0
2,70,60,0
2,69,90,0
2,35,70,96
2,42,60,0
2,54,40,0
2,70,22,0
2,35,90,96
2,42,90,0
2,54,90,0
2,70,60,0
2,42,40,96
2,54,40,0
2,70,22,0
2,69,60,0
2,42,90,96
2,37,115,0
2,54,60,0
2,39,80,0
2,70,60,0
2,69,90,0
2,35,70,96
2,42,40,0
2,54,40,0
2,70,22,0
2,35,90,96
2,42,90,0
2,54,90,0
2,70,60,0
2,42,44,96
2,54,40,0
2,70,22,0
2,69,60,0
2,42,100,96
2,37,115,0
2,54,60,0
2,39,80,0
2,70,60,0
2,69,90,0
2,35,70,96
2,42,55,0
2,54,40,0
2,70,22,0
2,35,90,96
2,38,115,0
2,42,90,0
2,54,90,0
2,70,60,0
2,46,54,96
2,54,40,0
2,70,22,0
2,69,60,0
2,42,90,96
2,54,60,0
2,39,80,0
2,70,60,0
2,69,90,0
2,54,50,0
2,35,75,0
2,38,90,0
2,42,60,0
2,54,70,0
2,70,22,0
2,54,90,0
2,35,90,0
2,42,90,0
2,54,90,0
2,70,60,0
2,42,40,96
2,54,40,0
2,70,22,0
2,69,60,0
2,42,90,96
2,37,115,0
2,54,60,0
2,39,80,0
2,70,60,0
2,69,90,0
2,35,70,96
2,42,60,0
2,54,40,0
2,70,22,0
2,54,70,0
2,35,90,0
2,42,90,0
2,54,90,0
2,70,60,0
2,42,40,96
2,54,40,0
2,70,22,0
2,69,60,0
2,42,90,96
2,37,115,0
2,54,60,0
2,39,80,0
2,70,60,0
2,69,90,0
2,35,70,96
2,42,40,0
2,54,40,0
2,70,22,0
2,35,90,96
2,42,90,0
2,54,90,0
2,70,60,0
2,42,55,96
2,54,40,0
2,70,22,0
2,69,60,0
2,42,95,96
2,37,115,0
2,54,60,0
2,39,80,0
2,70,60,0
2,69,90,0
2,35,70,96
2,42,72,0
2,54,40,0
2,70,22,0
2,35,90,96
2,42,108,0
2,54,90,0
2,70,60,0
2,42,60,96
2,54,40,0
2,70,22,0
2,69,60,0
2,42,100,96
2,37,115,0
2,54,60,0
2,39,80,0
2,70,60,0
2,69,90,0
2,35,75,96
2,46,90,0
2,54,40,0
2,70,22,0
2,35,90,96
2,42,90,0
2,54,90,0
2,70,60,0
2,42,40,96
2,54,40,0
2,70,22,0
2,69,60,0
2,42,90,96
2,37,115,0
2,54,60,0
2,39,80,0
2,70,60,0
2,69,90,0
2,35,70,96
2,42,60,0
2,54,40,0
2,70,22,0
2,35,90,96
2,42,90,0
2,54,90,0
2,70,60,0
2,42,40,96
2,54,40,0
2,70,22,0
2,69,60,0
2,42,90,96
2,37,115,0
2,54,60,0
2,39,80,0
2,70,60,0
2,69,90,0
2,35,70,96
2,42,40,0
2,54,40,0
2,70,22,0
2,35,90,96
2,42,90,0
2,54,90,0
2,70,60,0
2,42,40,96
2,54,40,0
2,70,22,0
2,69,60,0
2,42,100,96
2,37,115,0
2,54,60,0
2,39,80,0
2,70,60,0
2,69,90,0
2,35,70,96
2,42,40,0
2,54,40,0
2,70,22,0
2,35,90,96
2,42,90,0
2,54,90,0
2,70,60,0
2,42,40,96
2,54,40,0
2,70,22,0
2,69,60,0
2,42,100,96
2,37,115,0
2,54,60,0
2,39,80,0
2,70,60,0
2,69,90,0
2,35,75,96
2,42,50,0
2,54,40,0
2,70,22,0
2,35,90,96
2,42,90,0
2,54,90,0
2,70,60,0
2,42,40,96
2,54,40,0
2,70,22,0
2,69,60,0
2,42,90,96
2,37,115,0
2,54,60,0
2,39,80,0
2,70,60,0
2,69,90,0
2,35,70,96
2,42,60,0
2,54,40,0
2,70,22,0
2,35,90,96
2,42,90,0
2,54,90,0
2,70,60,0
2,42,40,96
2,54,40,0
2,70,22,0
2,69,60,0
2,42,90,96
2,37,115,0
2,54,60,0
2,39,80,0
2,70,60,0
2,69,90,0
2,35,70,96
2,42,40,0
2,54,40,0
2,70,22,0
2,35,90,96
2,42,90,0
2,54,90,0
2,70,60,0
2,42,55,96
2,54,40,0
2,70,22,0
2,69,60,0
2,42,95,96
2,37,115,0
2,54,60,0
2,39,80,0
2,70,60,0
2,69,90,0
2,35,70,96
2,42,72,0
2,54,40,0
2,70,22,0
2,35,90,96
2,42,80,0
2,54,90,0
2,70,60,0
2,42,60,96
2,54,40,0
2,70,22,0
2,69,60,0
2,42,100,96
2,37,115,0
2,54,60,0
2,39,80,0
2,70,60,0
2,69,90,0
2,35,75,96
2,46,90,0
2,54,40,0
2,70,22,0
2,35,90,96
2,42,90,0
2,54,90,0
2,70,60,0
2,42,40,96
2,54,40,0
2,70,22,0
2,69,60,0
2,42,90,96
2,37,115,0
2,54,60,0
2,39,80,0
2,70,60,0
2,69,90,0
2,35,70,96
2,42,60,0
2,54,40,0
2,70,22,0
2,54,70,0
2,35,90,0
2,42,90,0
2,54,90,0
2,70,60,0
2,42,40,96
2,54,40,0
2,70,22,0
2,69,60,0
2,42,90,96
2,37,115,0
2,54,60,0
2,39,80,0
