track,note,velocity,time
1,64,56,49152
1,60,56,0
1,55,56,0
1,62,56,12
1,59,56,0
1,55,56,0
1,64,56,12
1,60,56,0
1,55,56,0
1,62,56,204
1,59,56,0
1,55,56,0
1,64,56,0
1,60,56,0
1,55,56,0
1,62,56,204
1,59,56,0
1,55,56,0
1,64,56,0
1,60,56,0
1,55,56,0
1,64,56,12
1,60,56,0
1,55,56,0
1,64,56,0
1,60,56,0
1,55,56,0
1,65,56,192
1,62,56,0
1,58,56,0
1,65,56,0
1,62,56,0
1,57,56,0
1,65,56,12
1,60,56,0
1,57,56,0
1,65,56,12
1,62,56,0
1,57,56,0
1,64,73,12
1,60,73,0
1,57,73,0
1,64,70,96
1,60,70,0
1,57,70,0
1,64,56,640
1,60,56,0
1,55,56,0
1,65,56,192
1,62,56,0
1,57,56,0
1,64,56,192
1,60,56,0
1,55,56,0
1,62,56,0
1,59,56,0
1,55,56,0
1,64,56,204
1,60,56,0
1,55,56,0
1,62,56,192
1,59,56,0
1,55,56,0
1,64,56,192
1,60,56,0
1,55,56,0
1,62,56,0
1,59,56,0
1,55,56,0
1,64,56,204
1,60,56,0
1,55,56,0
1,62,56,0
1,59,56,0
1,55,56,0
1,64,56,204
1,60,56,0
1,55,56,0
1,62,56,192
1,59,56,0
1,55,56,0
1,64,56,0
1,60,56,0
1,55,56,0
1,64,56,12
1,60,56,0
1,55,56,0
1,64,56,0
1,60,56,0
1,55,56,0
1,65,56,0
1,62,56,0
1,58,56,0
1,65,56,204
1,62,56,0
1,58,56,0
1,65,56,0
1,62,56,0
1,58,56,0
1,65,56,204
1,62,56,0
1,58,56,0
1,65,56,192
1,60,56,0
1,57,56,0
1,65,56,192
1,60,56,0
1,57,56,0
1,65,56,0
1,60,56,0
1,57,56,0
1,65,56,12
1,60,56,0
1,57,56,0
1,64,56,12
1,60,56,0
1,55,56,0
1,62,56,12
1,59,56,0
1,55,56,0
1,64,56,204
1,60,56,0
1,55,56,0
1,62,56,192
1,59,56,0
1,55,56,0
1,64,56,0
1,60,56,0
1,55,56,0
1,62,56,204
1,59,56,0
1,55,56,0
1,64,56,0
1,60,56,0
1,55,56,0
1,62,56,12
1,59,56,0
1,55,56,0
1,64,56,12
1,60,56,0
1,55,56,0
1,62,56,12
1,59,56,0
1,55,56,0
1,64,56,204
1,60,56,0
1,55,56,0
1,64,56,0
1,60,56,0
1,55,56,0
1,64,56,0
1,60,56,0
1,55,56,0
1,65,56,192
1,62,56,0
1,58,56,0
1,65,56,192
1,62,56,0
1,58,56,0
1,62,56,192
1,58,56,0
1,53,56,0
1,65,56,0
1,62,56,0
1,58,56,0
1,65,56,12
1,60,56,0
1,57,56,0
1,65,56,204
1,60,56,0
1,57,56,0
1,65,56,0
1,60,56,0
1,57,56,0
1,65,56,204
1,60,56,0
1,57,56,0
1,64,56,192
1,60,56,0
1,55,56,0
1,62,56,192
1,59,56,0
1,55,56,0
1,64,56,192
1,60,56,0
1,55,56,0
1,62,56,192
1,59,56,0
1,55,56,0
1,64,56,0
1,60,56,0
1,55,56,0
1,62,56,204
1,59,56,0
1,55,56,0
1,64,56,192
1,60,56,0
1,55,56,0
1,62,56,0
1,59,56,0
1,55,56,0
1,64,56,204
1,60,56,0
1,55,56,0
1,62,56,0
1,59,56,0
1,55,56,0
1,64,56,204
1,60,56,0
1,55,56,0
1,64,56,0
1,60,56,0
1,55,56,0
1,64,56,0
1,60,56,0
1,55,56,0
1,62,56,192
1,58,56,0
1,53,56,0
1,65,56,0
1,62,56,0
1,58,56,0
1,65,56,204
1,62,56,0
1,58,56,0
1,65,56,0
1,62,56,0
1,58,56,0
1,65,56,204
1,60,56,0
1,57,56,0
1,65,56,192
1,60,56,0
1,57,56,0
1,65,56,0
1,60,56,0
1,57,56,0
1,65,56,12
1,60,56,0
1,57,56,0
1,64,56,12
1,60,56,0
1,55,56,0
1,62,56,204
1,59,56,0
1,55,56,0
1,64,56,0
1,60,56,0
1,55,56,0
1,62,56,12
1,59,56,0
1,55,56,0
1,64,56,12
1,60,56,0
1,55,56,0
1,62,56,204
1,59,56,0
1,55,56,0
1,64,56,0
1,60,56,0
1,55,56,0
1,64,56,12
1,60,56,0
1,55,56,0
1,64,56,0
1,60,56,0
1,55,56,0
1,65,56,0
1,62,56,0
1,58,56,0
1,65,56,12
1,62,56,0
1,58,56,0
1,65,56,12
1,62,56,0
1,58,56,0
1,65,56,12
1,62,56,0
1,58,56,0
1,65,56,204
1,60,56,0
1,57,56,0
1,65,56,0
1,60,56,0
1,57,56,0
1,65,56,12
1,60,56,0
1,57,56,0
1,65,56,204
1,60,56,0
1,57,56,0
1,64,56,192
1,60,56,0
1,55,56,0
1,62,56,192
1,59,56,0
1,55,56,0
1,64,56,0
1,60,56,0
1,55,56,0
1,64,56,12
1,60,56,0
1,55,56,0
1,64,56,0
1,60,56,0
1,55,56,0
1,62,56,192
1,58,56,0
1,53,56,0
1,65,56,192
1,62,56,0
1,58,56,0
1,65,45,0
1,62,45,0
1,58,45,0
1,65,56,316
1,62,56,0
1,58,56,0
1,65,56,0
1,62,56,0
1,58,56,0
1,62,73,12
1,58,73,0
1,53,73,0
1,62,70,96
1,58,70,0
1,53,70,0
1,65,56,448
1,60,56,0
1,57,56,0
1,65,56,204
1,60,56,0
1,57,56,0
1,65,56,192
1,60,56,0
1,57,56,0
1,65,56,192
1,60,56,0
1,57,56,0
1,65,56,0
1,60,56,0
1,57,56,0
1,65,56,12
1,60,56,0
1,57,56,0
1,65,56,12
1,60,56,0
1,57,56,0
1,65,56,12
1,60,56,0
1,57,56,0
1,65,56,0
1,60,56,0
1,57,56,0
1,65,56,192
1,62,56,0
1,58,56,0
1,65,56,0
1,62,56,0
1,58,56,0
1,62,61,12
1,65,54,0
1,58,33,0
1,53,61,192
1,50,52,192
1,65,56,224
1,62,56,0
1,58,56,0
1,65,56,204
1,62,56,0
1,58,56,0
1,62,61,0
1,65,54,0
1,58,33,0
1,53,61,192
1,50,52,192
1,65,56,416
1,60,56,0
1,57,56,0
1,65,56,192
1,60,56,0
1,57,56,0
1,65,56,192
1,60,56,0
1,57,56,0
1,65,56,192
1,60,56,0
1,57,56,0
1,65,56,0
1,60,56,0
1,57,56,0
1,65,56,204
1,60,56,0
1,57,56,0
1,65,56,192
1,60,56,0
1,57,56,0
1,65,56,0
1,60,56,0
1,57,56,0
1,65,56,0
1,60,56,0
1,57,56,0
1,65,56,0
1,62,56,0
1,58,56,0
1,62,56,12
1,58,56,0
1,53,56,0
1,53,73,204
1,58,54,384
1,62,70,0
1,62,56,232
1,58,56,0
1,53,56,0
1,65,56,0
1,62,56,0
1,58,56,0
1,46,50,12
1,65,70,0
1,60,64,0
1,62,56,16
1,60,54,192
1,58,73,0
1,65,56,0
1,60,56,0
1,57,56,0
1,65,56,204
1,60,56,0
1,57,56,0
1,65,56,0
1,60,56,0
1,57,56,0
1,65,56,12
1,60,56,0
1,57,56,0
1,65,56,12
1,60,56,0
1,57,56,0
1,64,56,204
1,61,56,0
1,57,56,0
1,65,56,192
1,62,56,0
1,58,56,0
1,64,56,0
1,60,56,0
1,55,56,0
1,64,56,204
1,60,56,0
1,55,56,0
1,62,56,0
1,59,56,0
1,55,56,0
1,64,56,204
1,60,56,0
1,55,56,0
1,62,56,0
1,59,56,0
1,55,56,0
1,65,56,12
1,62,56,0
1,58,56,0
1,65,56,12
1,60,56,0
1,57,56,0
1,65,56,12
1,62,56,0
1,58,56,0
1,65,56,204
1,60,56,0
1,57,56,0
1,64,45,0
1,60,45,0
1,55,45,0
2,48,87,49152
2,52,63,0
2,48,98,0
2,48,102,88
2,50,87,60
2,55,63,0
2,55,88,0
2,55,88,100
2,48,98,60
2,48,64,384
2,52,74,0
2,48,102,4
2,55,98,80
2,50,68,192
2,55,77,0
2,55,102,88
2,48,91,0
2,48,68,192
2,52,77,0
2,48,63,128
2,50,68,0
2,55,70,0
2,55,102,0
2,50,68,212
2,55,80,0
2,55,80,112
2,48,87,124
2,52,63,0
2,48,102,0
2,48,70,76
2,48,68,60
2,52,70,0
2,55,102,0
2,48,68,0
2,52,70,0
2,45,88,0
2,46,102,0
2,46,68,192
2,50,77,0
2,46,80,108
2,50,68,0
2,53,70,0
2,50,98,0
2,50,68,212
2,53,80,0
2,50,77,116
2,53,102,84
2,48,68,192
2,53,77,0
2,53,70,76
2,50,102,0
2,50,64,384
2,53,74,0
2,50,80,4
2,48,61,124
2,52,56,0
2,45,21,0
2,45,102,0
2,48,77,216
2,45,59,0
2,52,77,0
2,45,80,28
2,45,102,124
2,45,65,80
2,48,87,136
2,52,63,0
2,48,102,0
2,48,80,108
2,50,87,60
2,53,63,0
2,50,98,0
2,50,102,88
2,48,102,60
2,48,68,192
2,52,77,0
2,48,80,108
2,55,91,0
2,50,68,192
2,55,77,0
2,55,63,128
2,48,88,0
2,48,68,192
2,52,77,0
2,48,88,100
2,55,91,0
2,50,68,192
2,55,77,0
2,55,63,128
2,48,87,0
2,52,63,0
2,48,102,0
2,48,70,76
2,50,87,60
2,55,63,0
2,55,91,0
2,55,63,128
2,48,68,60
2,52,70,0
2,48,88,0
2,48,68,212
2,52,80,0
2,48,88,100
2,55,88,100
2,50,68,192
2,55,77,0
2,55,88,100
2,48,68,0
2,52,70,0
2,48,98,0
2,48,68,212
2,52,80,0
2,48,102,88
2,55,88,80
2,50,64,384
2,55,74,0
2,55,88,4
2,48,88,100
2,48,68,192
2,52,77,0
2,48,88,100
2,48,68,0
2,52,70,0
2,55,88,0
2,48,68,0
2,52,70,0
2,45,102,0
2,46,102,0
2,46,68,192
2,50,77,0
2,46,70,128
2,50,98,0
2,46,64,384
2,50,74,0
2,50,102,4
2,53,98,80
2,46,68,192
2,50,77,0
2,53,102,88
2,46,87,0
2,50,63,0
2,50,98,0
2,50,102,88
2,48,68,60
2,53,70,0
2,53,102,0
2,48,68,212
2,53,80,0
2,53,80,108
2,48,87,100
2,53,63,0
2,45,88,0
2,45,88,100
2,48,68,60
2,53,70,0
2,48,98,0
2,48,68,212
2,53,80,0
2,48,77,116
2,48,68,84
2,53,70,0
2,45,91,0
2,48,68,212
2,53,80,0
2,45,63,128
2,48,87,124
2,52,63,0
2,48,102,0
2,48,70,128
2,50,68,60
2,55,70,0
2,55,102,0
2,50,68,212
2,55,80,0
2,55,70,76
2,48,98,100
2,48,64,384
2,52,74,0
2,48,102,4
2,50,68,80
2,55,70,0
2,55,102,0
2,50,68,212
2,55,80,0
2,55,70,76
2,48,68,100
2,52,70,0
2,48,98,0
2,48,68,212
2,52,80,0
2,48,102,88
2,50,87,80
2,55,63,0
2,55,88,0
2,55,88,100
2,48,98,60
2,48,68,192
2,52,77,0
2,48,77,116
2,50,87,0
2,55,63,0
2,55,88,0
2,55,88,100
2,48,87,60
2,52,63,0
2,48,88,0
2,48,88,100
2,50,87,60
2,55,63,0
2,55,102,0
2,55,80,108
2,48,102,60
2,48,64,384
2,52,74,0
2,48,80,4
2,48,68,100
2,52,70,0
2,55,91,0
2,48,68,0
2,52,70,0
2,45,102,0
2,46,102,0
2,46,64,384
2,50,74,0
2,46,70,4
2,46,87,100
2,50,63,0
2,50,102,0
2,50,80,108
2,53,102,60
2,46,68,192
2,50,77,0
2,53,70,76
2,50,102,0
2,46,68,192
2,50,77,0
2,50,80,112
2,53,98,0
2,48,68,192
2,53,77,0
2,53,77,116
2,48,87,0
2,53,63,0
2,45,102,0
2,45,80,108
2,48,102,60
2,48,64,384
2,53,74,0
2,48,70,4
2,45,98,100
2,48,68,192
2,53,77,0
2,45,102,88
2,48,68,0
2,52,70,0
2,48,102,0
2,48,68,212
2,52,80,0
2,48,70,76
2,50,87,100
2,55,63,0
2,55,88,0
2,55,88,100
2,48,102,60
2,48,68,192
2,52,77,0
2,48,80,112
2,50,68,0
2,55,70,0
2,55,91,0
2,50,68,212
2,55,80,0
2,55,63,128
2,48,68,124
2,52,70,0
2,48,102,0
2,48,68,212
2,52,80,0
2,48,80,112
2,55,102,124
2,50,64,384
2,55,74,0
2,55,80,4
2,48,98,124
2,48,64,384
2,52,74,0
2,48,77,4
2,55,102,84
2,50,64,384
2,55,74,0
2,55,80,4
2,48,102,124
2,48,68,192
2,52,77,0
2,48,80,112
2,50,68,0
2,55,70,0
2,55,102,0
2,50,68,212
2,55,80,0
2,55,80,108
2,48,87,100
2,52,63,0
2,48,88,0
2,48,88,100
2,48,68,60
2,52,70,0
2,55,88,0
2,48,68,0
2,52,70,0
2,45,88,0
2,46,68,0
2,50,70,0
2,46,102,0
2,46,68,212
2,50,80,0
2,46,80,108
2,50,88,100
2,46,68,192
2,50,77,0
2,50,88,100
2,46,68,0
2,50,70,0
2,53,102,0
2,46,68,212
2,50,80,0
2,53,80,112
2,46,68,124
2,50,70,0
2,50,88,0
2,46,68,212
2,50,80,0
2,50,88,100
2,53,102,100
2,48,64,384
2,53,74,0
2,53,80,4
2,45,98,124
2,48,68,192
2,53,77,0
2,45,77,116
2,48,91,0
2,48,68,192
2,53,77,0
2,48,63,128
2,45,88,0
2,48,68,192
2,53,77,0
2,45,88,100
2,48,87,0
2,52,63,0
2,48,102,0
2,48,70,76
2,55,102,60
2,50,64,384
2,55,74,0
2,55,70,4
2,48,87,100
2,52,63,0
2,48,98,0
2,48,77,116
2,50,68,60
2,55,70,0
2,55,102,0
2,50,68,212
2,55,80,0
2,55,80,112
2,48,87,124
2,52,63,0
2,48,102,0
2,48,70,76
2,55,102,60
2,50,68,192
2,55,77,0
2,55,80,112
2,48,98,0
2,48,68,192
2,52,77,0
2,48,77,116
2,48,68,0
2,52,70,0
2,55,98,0
2,48,68,0
2,52,70,0
2,45,102,0
2,46,87,0
2,50,63,0
2,46,91,0
2,46,63,128
2,50,98,60
2,46,64,384
2,50,74,0
2,50,102,4
2,53,91,80
2,46,68,192
2,50,77,0
2,53,63,128
2,50,102,0
2,46,64,384
2,50,74,0
2,50,70,4
2,48,68,100
2,53,70,0
2,53,102,0
2,48,68,212
2,53,80,0
2,53,70,76
2,45,88,100
2,48,64,384
2,53,74,0
2,45,88,4
2,48,68,100
2,53,70,0
2,48,102,0
2,48,68,212
2,53,80,0
2,48,80,112
2,48,87,124
2,53,63,0
2,45,98,0
2,45,102,88
2,48,68,60
2,52,70,0
2,48,102,0
2,48,68,212
2,52,80,0
2,48,70,76
2,55,102,100
2,50,68,192
2,55,77,0
2,55,80,112
2,48,98,0
2,48,68,192
2,52,77,0
2,48,102,88
2,48,68,0
2,52,70,0
2,55,102,0
2,48,68,0
2,52,70,0
2,45,88,0
2,46,102,0
2,46,68,192
2,50,77,0
2,46,80,108
2,46,87,0
2,50,63,0
2,50,102,0
2,50,80,112
2,53,102,60
2,46,64,192
2,50,77,0
2,41,88,76
2,53,70,0
2,50,70,20
2,46,49,0
2,53,94,0
2,46,87,24
2,50,63,0
2,46,98,0
2,46,77,116
2,50,102,60
2,46,68,192
2,50,77,0
2,50,70,76
2,53,98,0
2,46,81,192
2,50,80,0
2,41,68,116
2,53,77,0
2,50,88,84
2,46,68,0
2,53,88,0
2,53,98,56
2,48,68,72
2,53,70,0
2,53,102,0
2,48,68,212
2,53,80,0
2,53,80,108
2,45,102,100
2,48,64,384
2,53,74,0
2,45,70,4
2,48,102,100
2,48,64,384
2,53,74,0
2,48,80,4
2,45,102,100
2,48,64,384
2,53,74,0
2,45,80,4
2,53,98,100
2,48,68,192
2,53,77,0
2,53,77,116
2,45,102,0
2,48,68,192
2,53,77,0
2,45,80,108
2,48,88,0
2,48,68,192
2,53,77,0
2,48,88,100
2,48,68,0
2,53,70,0
2,48,98,0
2,48,68,0
2,53,70,0
2,50,102,0
2,46,91,0
2,46,64,384
2,50,74,0
2,46,63,4
2,50,102,124
2,46,68,192
2,50,77,0
2,50,80,112
2,53,98,0
2,46,81,192
2,50,80,0
2,41,68,116
2,53,77,0
2,50,88,84
2,46,68,0
2,53,88,0
