track,note,velocity,time
1,31,121,1536
1,43,73,960
1,43,86,120
1,43,111,96
1,43,98,96
1,31,98,112
1,31,114,40
1,55,105,1152
1,55,98,60
1,55,105,92
1,55,103,80
1,50,103,192
1,31,114,8
1,43,84,1152
1,43,98,76
1,43,111,60
1,38,103,192
1,31,101,48
1,43,105,44
1,43,111,88
1,31,118,184
1,31,101,76
1,31,118,124
1,31,111,136
1,31,101,108
1,31,116,120
1,31,114,136
1,31,101,100
1,31,116,112
1,31,116,100
1,31,107,68
1,31,118,108
1,31,116,156
1,31,116,92
1,38,109,12
1,36,116,96
1,36,105,112
1,36,114,120
1,31,118,88
1,31,107,112
1,31,114,120
1,38,121,72
1,38,105,128
1,38,118,120
1,36,118,156
1,36,116,128
1,36,118,108
1,31,121,68
1,31,109,104
1,31,118,108
1,28,118,160
1,28,109,148
1,28,116,116
1,28,111,104
1,28,105,124
1,28,116,104
1,40,101,20
1,28,109,0
1,36,116,48
1,36,111,148
1,36,116,124
1,31,121,64
1,31,98,132
1,31,118,124
1,33,114,64
1,33,105,104
1,33,111,108
1,36,118,148
1,36,101,172
1,36,114,112
1,40,116,152
1,40,103,128
1,40,105,104
1,28,114,60
1,28,114,96
1,28,121,112
1,36,127,116
1,36,118,136
1,36,118,128
1,31,116,44
1,31,111,136
1,31,118,116
1,33,111,44
1,35,105,88
1,36,116,96
1,36,111,116
1,36,118,128
1,31,121,84
1,31,114,112
1,43,103,0
1,31,107,192
1,38,103,8
1,31,101,192
1,33,114,24
1,33,105,152
1,33,109,120
1,36,118,184
1,36,109,120
1,36,118,120
1,31,118,88
1,31,109,136
1,31,118,124
1,31,111,128
1,31,111,116
1,31,118,112
1,31,114,140
1,31,103,116
1,31,116,120
1,31,118,152
1,31,116,116
1,31,118,116
1,31,114,224
1,31,101,100
1,31,116,112
1,31,116,100
1,31,107,68
1,31,118,108
1,31,116,156
1,31,116,92
1,38,109,12
1,36,116,96
1,36,105,112
1,36,114,120
1,31,118,88
1,31,107,112
1,31,114,120
1,38,121,72
1,38,105,128
1,38,118,120
1,36,118,156
1,36,116,128
1,36,118,108
1,31,121,68
1,31,109,104
1,31,118,108
1,28,121,160
1,28,111,120
1,28,114,120
1,28,118,104
1,38,116,12
1,38,114,132
1,38,126,128
1,38,123,104
1,36,116,112
1,36,111,148
1,36,116,124
1,31,121,64
1,31,98,132
1,31,118,124
1,33,114,64
1,33,105,104
1,33,111,108
1,36,118,148
1,36,101,172
1,36,114,112
1,31,126,152
1,31,107,120
1,31,123,128
1,31,118,144
1,31,116,100
1,31,126,112
1,43,111,24
1,38,118,16
1,31,121,0
1,31,114,32
1,31,101,100
1,31,116,112
1,31,116,100
1,31,107,68
1,31,118,108
1,31,116,156
1,31,116,92
1,38,109,12
1,36,116,96
1,36,105,112
1,36,114,120
1,31,118,88
1,31,107,112
1,31,114,120
1,38,121,72
1,38,105,128
1,38,118,120
1,36,118,156
1,36,116,128
1,36,118,108
1,31,121,68
1,31,109,104
1,31,118,108
1,28,121,160
1,28,111,120
1,28,114,120
1,28,118,104
1,38,116,12
1,38,114,132
1,38,126,128
1,38,123,104
1,36,116,112
1,36,111,148
1,36,116,124
1,31,121,64
1,31,98,132
1,31,118,124
1,33,114,64
1,33,105,104
1,33,111,108
1,36,118,148
1,36,101,172
1,36,114,112
1,28,126,152
1,28,123,144
1,28,127,112
1,28,123,92
1,40,116,20
1,28,118,192
1,40,118,12
1,38,118,32
1,38,126,92
1,38,126,84
1,31,114,80
1,31,101,100
1,31,116,112
1,31,116,100
1,31,107,68
1,31,118,108
1,31,116,156
1,31,116,92
1,38,109,12
1,33,127,96
1,33,121,148
1,33,127,112
1,33,121,132
1,31,118,100
1,31,107,112
1,31,114,120
1,38,121,72
1,38,105,128
1,38,118,120
1,36,118,156
1,36,116,128
1,36,118,108
1,31,121,68
1,31,109,104
1,31,118,108
1,28,118,160
1,28,109,148
1,28,116,116
1,28,111,104
1,28,105,124
1,28,116,104
1,40,101,20
1,28,109,0
1,36,116,48
1,36,111,148
1,36,116,124
1,31,121,64
1,31,98,132
1,31,118,124
1,33,114,64
1,33,105,104
1,33,111,108
1,36,118,148
1,36,101,172
1,36,114,112
1,40,116,152
1,40,103,128
1,40,105,104
1,28,118,60
1,28,114,136
1,28,121,112
1,40,114,192
1,28,121,184
1,36,127,44
1,36,126,64
1,36,118,76
1,36,116,96
1,31,118,12
1,31,103,164
1,31,116,120
1,36,127,88
1,36,118,52
1,36,114,100
1,36,114,84
1,31,127,100
1,31,114,120
1,31,118,120
1,33,121,220
1,33,114,152
1,33,126,120
1,33,118,64
1,36,118,16
1,36,105,128
1,36,118,112
1,36,118,56
1,31,127,72
1,36,123,372
1,36,103,160
1,36,114,120
1,36,118,196
1,36,109,148
1,36,118,124
1,35,101,384
1,33,105,188
1,31,121,52
1,31,111,128
1,31,118,120
1,31,118,140
1,31,111,148
1,31,118,124
1,36,126,132
1,36,111,128
1,36,118,124
1,36,118,168
1,36,118,140
1,36,121,128
1,31,127,168
1,31,118,124
1,31,123,128
1,31,126,148
1,31,121,168
1,31,126,128
1,31,127,88
1,36,123,88
1,36,118,104
1,36,126,132
1,36,126,172
1,36,118,168
1,36,123,112
1,31,127,188
1,31,107,176
1,31,121,116
1,29,127,48
1,29,116,144
1,29,127,124
1,36,118,92
1,36,116,136
1,36,121,128
1,36,121,168
1,36,109,112
1,36,123,128
1,31,127,112
1,31,114,108
1,31,126,128
1,29,123,156
1,29,116,168
1,29,121,100
1,36,127,92
1,36,118,136
1,36,121,116
1,36,127,144
1,36,116,136
1,36,126,112
1,28,123,44
2,62,127,1536
2,59,119,0
2,67,126,0
2,60,123,140
2,64,126,0
2,67,119,0
2,57,127,168
2,64,127,0
2,67,126,0
2,62,123,124
2,59,123,0
2,67,119,0
2,60,127,164
2,64,127,0
2,67,123,0
2,57,126,120
2,64,123,0
2,67,123,0
2,55,97,188
2,59,109,0
2,62,112,0
2,43,76,512
2,55,95,0
2,62,101,0
2,59,101,0
2,62,117,136
2,55,109,0
2,59,117,0
2,57,85,192
2,66,97,0
2,62,101,0
2,50,97,0
2,55,95,80
2,60,104,0
2,64,112,0
2,48,99,0
2,62,104,304
2,59,99,0
2,55,99,0
2,62,97,104
2,66,91,0
2,57,82,0
2,50,97,0
2,55,97,68
2,64,117,0
2,60,104,0
2,48,97,0
2,62,97,48
2,55,87,0
2,59,101,0
2,43,80,0
2,59,95,60
2,52,104,0
2,67,101,0
2,64,95,0
2,55,99,44
2,48,101,0
2,60,99,0
2,64,114,0
2,55,97,36
2,59,101,0
2,62,101,0
2,60,109,128
2,64,99,0
2,45,91,0
2,57,95,0
2,60,95,88
2,55,89,0
2,64,91,0
2,48,91,0
2,59,97,60
2,64,104,0
2,55,97,0
2,52,95,0
2,62,99,48
2,66,95,0
2,64,117,568
2,60,109,0
2,67,106,0
2,43,91,24
2,62,104,0
2,55,104,0
2,59,99,0
2,55,99,64
2,48,95,0
2,60,101,0
2,64,117,0
2,43,91,56
2,62,99,0
2,59,91,0
2,55,97,0
2,45,106,48
2,57,99,0
2,60,114,0
2,64,114,0
2,55,99,48
2,48,101,0
2,60,109,0
2,64,114,0
2,43,99,24
2,62,112,0
2,59,109,0
2,55,101,0
2,43,76,3428
2,55,95,0
2,62,101,0
2,59,101,0
2,62,117,136
2,55,109,0
2,59,117,0
2,57,85,192
2,66,97,0
2,62,101,0
2,50,97,0
2,55,95,80
2,60,104,0
2,64,112,0
2,48,99,0
2,62,104,304
2,59,99,0
2,55,99,0
2,62,97,104
2,66,91,0
2,57,82,0
2,50,97,0
2,55,97,68
2,64,117,0
2,60,104,0
2,48,97,0
2,62,97,48
2,55,87,0
2,59,101,0
2,43,80,0
2,59,117,60
2,64,127,0
2,55,126,0
2,52,123,0
2,54,106,564
2,57,117,0
2,62,117,0
2,55,99,288
2,48,101,0
2,60,99,0
2,64,114,0
2,55,97,36
2,59,101,0
2,62,101,0
2,60,109,128
2,64,99,0
2,45,91,0
2,57,95,0
2,60,95,88
2,55,89,0
2,64,91,0
2,48,91,0
2,62,123,60
2,67,119,0
2,59,126,0
2,50,99,104
2,43,109,0
2,59,117,0
2,55,112,0
2,62,126,0
2,55,70,108
2,50,101,0
2,59,109,0
2,62,119,0
2,43,95,128
2,55,99,0
2,50,101,0
2,62,123,0
2,59,114,0
2,50,117,124
2,43,114,0
2,55,114,0
2,62,119,0
2,59,119,0
3,59,95,1536
3,62,113,0
3,67,105,0
3,64,110,176
3,60,105,0
3,67,102,0
3,67,102,84
3,57,105,0
3,64,105,0
3,59,105,128
3,62,110,0
3,67,105,0
3,64,110,140
3,60,105,0
3,67,102,0
3,64,116,116
3,67,107,0
3,57,102,0
3,62,113,4
3,59,118,0
3,62,113,4
3,59,118,0
3,62,110,72
3,59,118,0
3,60,116,148
3,57,118,0
3,59,102,60
3,55,118,0
3,57,98,72
3,52,118,0
3,55,100,32
3,50,118,0
3,52,100,0
3,47,118,0
3,50,85,52
3,45,118,0
3,47,105,68
3,43,118,0
3,62,113,34248
3,59,118,0
3,62,113,4
3,59,118,0
3,62,110,72
3,59,118,0
3,60,116,148
3,57,118,0
3,59,102,60
3,55,118,0
3,57,98,72
3,52,118,0
3,55,100,32
3,50,118,0
3,52,100,0
3,47,118,0
3,50,85,52
3,45,118,0
3,47,105,68
3,43,118,0
3,52,107,9864
3,40,89,192
3,52,100,224
3,40,82,192
3,52,89,40
3,50,93,12
3,50,98,152
3,50,110,304
3,50,87,112
3,48,87,24
3,48,100,116
3,48,100,248
3,50,80,192
3,48,82,0
3,43,102,12
3,55,100,0
3,43,87,384
3,55,66,44
3,59,120,6120
3,67,120,92
3,62,120,0
3,71,120,0
3,59,120,344
3,67,120,156
3,62,120,0
3,71,120,0
3,59,120,8
3,64,120,80
3,64,120,88
3,67,120,20
3,62,120,0
3,71,120,0
3,59,120,4
3,57,120,84
3,55,120,76
3,59,120,12
3,59,120,60
3,57,120,8
3,59,120,56
3,57,120,8
3,55,120,112
3,55,120,84
3,48,120,192
3,55,120,136
3,48,120,320
3,55,120,152
3,57,120,148
3,50,120,0
3,65,120,240
3,60,120,0
3,57,120,28
3,55,120,172
3,64,120,144
3,60,120,80
3,67,120,0
3,64,120,0
3,64,120,84
3,62,120,136
3,67,120,104
3,67,120,60
3,67,120,4
3,64,120,4
3,67,120,192
3,69,120,68
3,69,120,72
3,69,120,100
3,67,120,196
3,69,120,184
3,71,120,8
3,76,120,0
3,71,120,56
3,76,120,0
3,71,120,96
3,76,120,0
3,76,120,4
3,71,120,0
3,71,120,84
3,76,120,0
3,71,120,108
3,76,120,0
3,74,120,200
3,69,120,384
3,66,120,128
3,62,120,192
3,67,120,12
3,69,120,200
3,69,120,44
3,67,120,192
3,69,120,36
3,69,120,40
3,69,120,8
3,67,120,124
3,69,120,236
3,71,120,384
3,72,120,192
3,71,120,364
3,69,120,144
3,64,120,80
3,66,120,384
3,67,120,0
3,66,120,0
3,64,120,40
3,67,120,4
3,64,120,0
3,71,120,0
3,64,120,52
3,67,120,0
3,71,120,0
3,64,120,96
3,71,120,0
3,67,120,0
3,71,120,52
3,64,120,0
3,67,120,0
3,64,120,76
3,71,120,0
3,67,120,0
3,64,120,96
3,71,120,0
3,67,120,0
3,71,120,92
3,64,120,0
3,69,120,88
3,67,120,160
3,74,120,12
3,69,120,0
3,78,120,0
3,40,110,23236
3,52,110,0
3,40,110,312
3,52,98,16
3,52,110,808
3,52,105,272
3,50,107,192
3,52,85,32
3,43,113,420
3,43,113,304
3,48,113,304
3,48,107,472
3,50,87,8
3,48,110,192
3,43,116,408
3,43,116,300
3,55,87,16
3,43,102,192
3,48,110,6732
3,48,105,488
3,52,113,584
3,52,105,476
3,55,68,16
3,52,107,192
3,55,113,280
3,55,105,492
3,43,100,192
3,43,119,212
3,43,98,304
3,43,116,312
3,43,116,116
3,55,102,24
3,43,113,192
3,48,105,248
3,48,113,480
3,52,116,520
3,52,113,300
3,52,72,144
3,52,100,76
3,48,110,4
3,43,110,276
3,43,113,292
3,55,98,112
3,55,57,148
3,55,107,156
3,43,113,80
3,43,113,288
3,43,113,288
3,55,98,88
3,53,119,192
3,48,116,236
3,48,105,492
3,48,110,196
3,48,110,488
3,59,105,512
3,62,102,0
3,55,98,0
3,60,107,104
3,57,100,0
3,53,98,0
3,55,98,156
3,48,100,0
3,52,102,0
3,48,119,552
3,48,116,492
3,55,100,440
3,59,110,0
3,62,105,0
3,67,110,768
3,53,91,188
3,57,100,0
3,60,100,0
3,65,110,768
3,48,95,264
3,55,93,0
3,52,102,0
3,59,127,64
3,57,105,160
3,57,127,228
4,59,127,1536
4,67,127,0
4,62,127,0
4,43,127,0
4,50,127,0
4,59,36,176
4,62,60,0
4,67,73,0
4,59,127,112
4,67,127,0
4,62,127,0
4,67,76,96
4,62,96,0
4,59,127,156
4,62,127,0
4,67,127,0
4,50,116,12
4,43,93,20
4,62,127,124
4,59,127,0
4,67,127,0
4,59,127,116
4,67,127,0
4,62,127,0
4,50,84,80
4,59,89,136
4,67,90,0
4,62,116,0
4,59,127,140
4,62,127,0
4,67,127,0
4,43,127,288
4,50,127,0
4,59,109,116
4,62,127,0
4,67,122,0
4,59,114,96
4,62,127,0
4,67,127,0
4,60,127,28
4,64,127,0
4,67,127,0
4,48,127,0
4,55,127,0
4,64,114,96
4,67,119,0
4,60,101,0
4,60,127,124
4,67,127,0
4,64,127,0
4,48,119,244
4,55,114,0
4,60,127,88
4,64,127,0
4,67,127,0
4,60,127,108
4,57,127,0
4,64,127,0
4,67,127,0
4,60,98,76
4,64,119,0
4,67,109,0
4,60,119,112
4,64,127,0
4,67,127,0
4,57,127,12
4,64,127,72
4,60,119,0
4,67,116,0
4,64,127,68
4,67,119,0
4,60,127,0
4,60,127,108
4,64,127,0
4,67,127,0
4,50,119,16
4,62,127,40
4,50,127,0
4,59,127,0
4,43,127,0
4,67,127,0
4,59,76,16
4,62,116,0
4,67,98,0
4,67,127,124
4,59,127,0
4,62,127,0
4,43,127,272
4,50,127,0
4,59,93,96
4,62,125,0
4,67,119,0
4,59,127,112
4,62,127,0
4,67,127,0
4,50,127,260
4,43,127,0
4,59,90,108
4,62,116,0
4,67,114,0
4,59,127,120
4,67,127,0
4,62,127,0
4,43,108,40
4,50,116,0
4,59,98,120
4,62,127,0
4,67,114,0
4,43,127,32
4,50,127,0
4,59,122,20
4,67,127,0
4,62,127,0
4,59,122,112
4,62,127,0
4,67,127,0
4,60,127,40
4,64,127,0
4,67,127,0
4,55,127,0
4,48,127,0
4,60,114,0
4,67,116,0
4,64,127,0
4,64,127,108
4,60,127,0
4,67,127,0
4,55,127,68
4,48,127,0
4,64,127,108
4,60,127,0
4,67,127,0
4,64,127,112
4,60,127,0
4,67,127,0
4,60,127,8
4,67,127,0
4,64,127,0
4,57,127,0
4,64,127,20
4,60,122,0
4,67,114,0
4,64,127,96
4,60,127,0
4,67,127,0
4,57,127,52
4,64,127,104
4,60,127,0
4,67,127,0
4,67,127,104
4,60,127,0
4,64,127,0
4,60,127,92
4,64,127,0
4,67,127,0
4,64,127,88
4,60,127,0
4,67,127,0
4,62,127,52
4,59,127,0
4,67,127,0
4,43,127,0
4,50,127,0
4,62,127,32
4,59,119,0
4,67,127,0
4,43,104,80
4,50,127,0
4,59,109,128
4,67,108,0
4,62,127,0
4,59,109,128
4,67,125,0
4,62,127,0
4,43,125,108
4,50,127,0
4,59,108,136
4,67,109,0
4,62,127,0
4,62,127,124
4,59,119,0
4,67,127,0
4,50,114,64
4,43,109,0
4,62,127,132
4,67,119,0
4,59,104,0
4,50,127,124
4,43,127,0
4,62,127,128
4,59,108,0
4,67,116,0
4,62,127,116
4,59,116,0
4,67,127,0
4,43,127,104
4,50,127,0
4,62,119,96
4,59,93,0
4,67,109,0
4,59,127,92
4,67,127,0
4,62,127,0
4,50,127,0
4,43,127,0
4,62,127,112
4,67,119,0
