track,note,velocity,time
1,52,113,6336
1,50,103,4
1,48,99,30
1,45,99,192
1,43,97,184
1,40,101,190
1,38,103,8
1,36,106,24
1,36,97,142
1,43,82,30
1,31,95,88
1,36,95,32
1,36,106,148
1,43,106,10
1,43,106,84
1,38,95,8
1,38,106,184
1,45,101,10
1,33,99,24
1,38,97,30
1,38,103,184
1,45,88,16
1,43,93,384
1,36,106,128
1,36,97,142
1,43,82,30
1,31,95,88
1,36,95,32
1,36,106,148
1,43,106,10
1,43,106,84
1,38,95,8
1,38,106,184
1,45,101,10
1,33,99,24
1,38,97,30
1,38,103,184
1,45,88,16
1,43,93,384
1,36,106,128
1,36,97,142
1,43,82,30
1,31,95,88
1,36,95,32
1,36,106,148
1,43,106,10
1,43,106,84
1,38,95,8
1,38,106,184
1,45,101,10
1,33,99,24
1,38,97,30
1,38,103,184
1,45,88,16
1,43,93,384
1,40,106,128
1,28,93,154
1,28,99,100
1,40,93,384
1,38,99,48
1,38,93,164
1,38,93,104
1,40,99,90
1,40,90,126
1,40,95,120
1,28,88,192
1,40,93,10
1,28,95,10
1,31,101,16
1,36,99,180
1,36,99,110
1,36,103,138
1,38,106,158
1,38,95,148
1,33,90,10
1,38,84,14
1,36,93,90
1,36,88,196
1,43,80,192
1,36,93,16
1,43,90,68
1,41,82,8
1,40,80,30
1,38,99,384
1,36,106,52
1,36,97,142
1,43,82,30
1,31,95,88
1,36,95,32
1,36,106,148
1,43,106,10
1,43,106,84
1,38,95,8
1,38,106,184
1,45,101,10
1,33,99,24
1,38,97,30
1,38,103,184
1,45,88,16
1,43,93,384
1,36,106,128
1,36,97,142
1,43,82,30
1,31,95,88
1,36,95,32
1,36,106,148
1,43,106,10
1,43,106,84
1,38,95,8
1,38,106,184
1,45,101,10
1,33,99,24
1,38,97,30
1,38,103,184
1,45,88,16
1,43,93,384
1,40,106,128
1,28,93,154
1,28,99,100
1,40,93,384
1,38,99,48
1,38,93,164
1,38,93,104
1,40,99,90
1,40,90,126
1,40,95,120
1,28,88,192
1,40,93,10
1,28,95,10
1,38,101,16
1,38,108,138
1,38,108,144
1,33,97,192
1,38,106,10
1,31,101,110
1,36,99,180
1,36,99,110
1,36,103,138
1,38,106,158
1,38,95,148
1,33,90,10
1,38,84,14
1,36,93,90
1,36,88,196
1,43,80,192
1,36,93,16
1,43,90,68
1,41,82,8
1,40,80,30
1,38,99,384
1,36,106,52
1,36,97,142
1,43,82,30
1,31,95,88
1,36,95,32
1,36,106,148
1,43,106,10
1,43,106,84
1,38,95,8
1,38,106,184
1,45,101,10
1,33,99,24
1,38,97,30
1,38,103,184
1,45,88,16
1,43,93,384
1,36,106,128
1,36,97,142
1,43,82,30
1,31,95,88
1,36,95,32
1,36,106,148
1,43,106,10
1,43,106,84
1,38,95,8
1,38,106,184
1,45,101,10
1,33,99,24
1,38,97,30
1,38,103,184
1,45,88,16
1,43,93,384
1,41,95,128
1,41,93,176
1,41,95,132
1,36,93,0
1,29,90,4
1,29,93,120
1,29,101,128
1,29,99,58
1,36,95,14
1,36,86,186
1,36,95,144
1,31,90,52
1,36,84,14
1,36,93,176
1,36,95,144
1,36,97,72
1,41,95,24
1,41,95,96
1,41,93,122
1,29,93,20
1,41,78,20
1,41,103,144
1,41,103,126
1,41,97,96
1,38,108,56
1,31,108,42
1,43,93,960
1,41,86,174
1,38,80,16
1,36,106,62
1,36,97,142
1,43,82,30
1,31,95,88
1,36,95,32
1,36,106,148
1,43,106,10
1,43,106,84
1,38,95,8
1,38,106,184
1,45,101,10
1,33,99,24
1,38,97,30
1,38,103,184
1,45,88,16
1,43,93,384
1,36,106,128
1,36,97,142
1,43,82,30
1,31,95,88
1,36,95,32
1,36,106,148
1,43,106,10
1,43,106,84
1,38,95,8
1,38,106,184
1,45,101,10
1,33,99,24
1,38,97,30
1,38,103,184
1,45,88,16
1,43,93,384
1,40,106,128
1,28,93,154
1,28,99,100
1,40,93,384
1,38,99,48
1,38,93,164
1,38,93,104
1,40,99,90
1,40,90,126
1,40,95,120
1,28,88,192
1,40,93,10
1,28,95,10
1,38,101,16
1,38,108,138
1,38,108,144
1,33,97,192
1,38,106,10
1,31,101,110
1,36,99,180
1,36,99,110
1,36,103,138
1,38,106,158
1,38,95,148
1,33,90,10
1,38,84,14
1,36,93,90
1,36,88,196
1,43,80,192
1,36,93,16
1,43,90,68
1,41,82,8
1,40,80,30
1,38,99,384
1,36,106,52
1,36,97,142
1,43,82,30
1,31,95,88
1,36,95,32
1,36,106,148
1,43,106,10
1,43,106,84
1,38,95,8
1,38,106,184
1,45,101,10
1,33,99,24
1,38,97,30
1,38,103,184
1,45,88,16
1,43,93,384
1,36,106,128
1,36,97,142
1,43,82,30
1,31,95,88
1,36,95,32
1,36,106,148
1,43,106,10
1,43,106,84
1,38,95,8
1,38,106,184
1,45,101,10
1,33,99,24
1,38,97,30
1,38,103,184
1,45,88,16
1,43,93,384
1,36,106,128
1,36,97,142
1,43,82,30
1,31,95,88
1,36,95,32
1,36,106,148
1,43,106,10
1,43,106,84
1,38,95,8
1,38,106,184
1,45,101,10
1,33,99,24
1,38,97,30
1,38,103,184
1,45,88,16
1,43,93,384
1,36,106,128
1,36,97,142
1,43,82,30
1,31,95,88
1,36,95,32
1,36,106,148
1,43,106,10
1,43,106,84
1,38,95,8
1,38,106,184
1,45,101,10
1,33,99,24
1,38,97,30
1,38,103,184
1,45,88,16
1,43,93,384
1,36,95,128
2,55,63,1536
2,64,82,0
2,59,82,0
2,48,72,0
2,55,60,92
2,60,78,0
2,64,82,0
2,64,53,2
2,55,57,0
2,60,60,0
2,55,66,60
2,64,68,0
2,48,70,0
2,59,70,0
2,55,72,52
2,60,91,0
2,64,89,0
2,48,68,0
2,60,72,88
2,55,63,0
2,64,70,0
2,48,74,0
2,64,85,74
2,59,87,0
2,55,80,0
2,53,61,0
2,50,74,0
2,50,76,66
2,60,82,0
2,64,82,0
2,57,76,0
2,50,60,80
2,64,63,0
2,60,66,0
2,57,63,0
2,55,82,42
2,64,89,0
2,50,87,0
2,59,85,0
2,50,76,34
2,60,82,0
2,57,70,0
2,64,87,0
2,50,64,88
2,60,82,0
2,57,72,0
2,64,85,0
2,55,63,172
2,64,82,0
2,59,82,0
2,48,72,0
2,55,60,92
2,60,78,0
2,64,82,0
2,64,53,2
2,55,57,0
2,60,60,0
2,55,66,60
2,64,68,0
2,48,70,0
2,59,70,0
2,55,72,52
2,60,91,0
2,64,89,0
2,48,68,0
2,60,72,88
2,55,63,0
2,64,70,0
2,48,74,0
2,64,85,74
2,59,87,0
2,55,80,0
2,53,61,0
2,50,74,0
2,50,76,66
2,60,82,0
2,64,82,0
2,57,76,0
2,50,60,80
2,64,63,0
2,60,66,0
2,57,63,0
2,55,82,42
2,64,89,0
2,50,87,0
2,59,85,0
2,50,76,34
2,60,82,0
2,57,70,0
2,64,87,0
2,50,64,88
2,60,82,0
2,57,72,0
2,64,85,0
2,55,63,172
2,64,82,0
2,59,82,0
2,48,72,0
2,55,60,92
2,60,78,0
2,64,82,0
2,64,53,2
2,55,57,0
2,60,60,0
2,55,66,60
2,64,68,0
2,48,70,0
2,59,70,0
2,55,72,52
2,60,91,0
2,64,89,0
2,48,68,0
2,60,72,88
2,55,63,0
2,64,70,0
2,48,74,0
2,64,85,74
2,59,87,0
2,55,80,0
2,53,61,0
2,50,74,0
2,50,76,66
2,60,82,0
2,64,82,0
2,57,76,0
2,50,60,80
2,64,63,0
2,60,66,0
2,57,63,0
2,55,82,42
2,64,89,0
2,50,87,0
2,59,85,0
2,50,76,34
2,60,82,0
2,57,70,0
2,64,87,0
2,50,64,88
2,60,82,0
2,57,72,0
2,64,85,0
2,55,63,172
2,64,82,0
2,59,82,0
2,48,72,0
2,55,60,92
2,60,78,0
2,64,82,0
2,64,53,2
2,55,57,0
2,60,60,0
2,55,66,60
2,64,68,0
2,48,70,0
2,59,70,0
2,55,72,52
2,60,91,0
2,64,89,0
2,48,68,0
2,60,72,88
2,55,63,0
2,64,70,0
2,48,74,0
2,64,85,74
2,59,87,0
2,55,80,0
2,53,61,0
2,50,74,0
2,50,76,66
2,60,82,0
2,64,82,0
2,57,76,0
2,50,60,80
2,64,63,0
2,60,66,0
2,57,63,0
2,55,82,42
2,64,89,0
2,50,87,0
2,59,85,0
2,50,76,34
2,60,82,0
2,57,70,0
2,64,87,0
2,50,64,88
2,60,82,0
2,57,72,0
2,64,85,0
2,52,91,172
2,62,98,0
2,55,91,0
2,59,91,0
2,55,91,114
2,62,105,80
2,59,100,0
2,53,76,8
2,60,85,0
2,57,85,0
2,50,89,0
2,64,107,198
2,67,107,338
2,59,91,8
2,62,91,0
2,55,78,0
2,52,87,0
2,52,85,112
2,55,89,106
2,62,100,0
2,59,100,0
2,43,85,14
2,60,93,0
2,57,100,0
2,53,87,0
2,60,74,18
2,64,89,0
2,55,60,0
2,52,64,0
2,48,68,0
2,62,87,14
2,50,72,0
2,57,70,0
2,53,63,0
2,60,87,88
2,64,91,0
2,52,61,174
2,60,72,0
2,55,80,0
2,48,78,0
2,64,87,0
2,55,70,144
2,67,74,38
2,67,89,40
2,71,98,0
2,69,89,2
2,65,78,0
2,64,76,42
2,67,80,0
2,62,70,8
2,65,78,0
2,55,63,158
2,64,82,0
2,59,82,0
2,48,72,0
2,55,60,92
2,60,78,0
2,64,82,0
2,64,53,2
2,55,57,0
2,60,60,0
2,55,66,60
2,64,68,0
2,48,70,0
2,59,70,0
2,55,72,52
2,60,91,0
2,64,89,0
2,48,68,0
2,60,72,88
2,55,63,0
2,64,70,0
2,48,74,0
2,64,85,74
2,59,87,0
2,55,80,0
2,53,61,0
2,50,74,0
2,50,76,66
2,60,82,0
2,64,82,0
2,57,76,0
2,50,60,80
2,64,63,0
2,60,66,0
2,57,63,0
2,55,82,42
2,64,89,0
2,50,87,0
2,59,85,0
2,50,76,34
2,60,82,0
2,57,70,0
2,64,87,0
2,50,64,88
2,60,82,0
2,57,72,0
2,64,85,0
2,55,63,172
2,64,82,0
2,59,82,0
2,48,72,0
2,55,60,92
2,60,78,0
2,64,82,0
2,64,53,2
2,55,57,0
2,60,60,0
2,55,66,60
2,64,68,0
2,48,70,0
2,59,70,0
2,55,72,52
2,60,91,0
2,64,89,0
2,48,68,0
2,60,72,88
2,55,63,0
2,64,70,0
2,48,74,0
2,64,85,74
2,59,87,0
2,55,80,0
2,53,61,0
2,50,74,0
2,50,76,66
2,60,82,0
2,64,82,0
2,57,76,0
2,50,60,80
2,64,63,0
2,60,66,0
2,57,63,0
2,55,82,42
2,64,89,0
2,50,87,0
2,59,85,0
2,50,76,34
2,60,82,0
2,57,70,0
2,64,87,0
2,50,64,88
2,60,82,0
2,57,72,0
2,64,85,0
2,52,91,172
2,62,98,0
2,55,91,0
2,59,91,0
2,55,91,114
2,62,105,80
2,59,100,0
2,53,76,8
2,60,85,0
2,57,85,0
2,50,89,0
2,64,107,198
2,67,107,338
2,59,91,8
2,62,91,0
2,55,78,0
2,52,87,0
2,52,85,112
2,55,89,106
2,62,100,0
2,59,100,0
2,57,87,14
2,53,82,0
2,50,95,0
2,64,102,0
2,60,98,0
2,62,107,10
2,60,98,6
2,43,85,140
2,60,93,0
2,57,100,0
2,53,87,0
2,60,74,18
2,64,89,0
2,55,60,0
2,52,64,0
2,48,68,0
2,62,87,14
2,50,72,0
2,57,70,0
2,53,63,0
2,60,87,88
2,64,91,0
2,52,61,174
2,60,72,0
2,55,80,0
2,48,78,0
2,64,87,0
2,55,70,144
2,67,74,38
2,67,89,40
2,71,98,0
2,69,89,2
2,65,78,0
2,64,76,42
2,67,80,0
2,62,70,8
2,65,78,0
2,55,63,158
2,64,82,0
2,59,82,0
2,48,72,0
2,55,60,92
2,60,78,0
2,64,82,0
2,64,53,2
2,55,57,0
2,60,60,0
2,55,66,60
2,64,68,0
2,48,70,0
2,59,70,0
2,55,72,52
2,60,91,0
2,64,89,0
2,48,68,0
2,60,72,88
2,55,63,0
2,64,70,0
2,48,74,0
2,64,85,74
2,59,87,0
2,55,80,0
2,53,61,0
2,50,74,0
2,50,76,66
2,60,82,0
2,64,82,0
2,57,76,0
2,50,60,80
2,64,63,0
2,60,66,0
2,57,63,0
2,55,82,42
2,64,89,0
2,50,87,0
2,59,85,0
2,50,76,34
2,60,82,0
2,57,70,0
2,64,87,0
2,50,64,88
2,60,82,0
2,57,72,0
2,64,85,0
2,55,63,172
2,64,82,0
2,59,82,0
2,48,72,0
2,55,60,92
2,60,78,0
2,64,82,0
2,64,53,2
2,55,57,0
2,60,60,0
2,55,66,60
2,64,68,0
2,48,70,0
2,59,70,0
2,55,72,52
2,60,91,0
2,64,89,0
2,48,68,0
2,60,72,88
2,55,63,0
2,64,70,0
2,48,74,0
2,64,85,74
2,59,87,0
2,55,80,0
2,53,61,0
2,50,74,0
2,50,76,66
2,60,82,0
2,64,82,0
2,57,76,0
2,50,60,80
2,64,63,0
2,60,66,0
2,57,63,0
2,55,82,42
2,64,89,0
2,50,87,0
2,59,85,0
2,50,76,34
2,60,82,0
2,57,70,0
2,64,87,0
2,50,64,88
2,60,82,0
2,57,72,0
2,64,85,0
2,41,85,172
2,60,100,0
2,53,85,0
2,56,87,0
2,68,82,330
2,65,68,0
2,48,64,36
2,52,59,0
2,55,62,0
2,60,85,0
2,64,89,0
2,64,85,372
2,59,74,0
2,48,61,136
2,52,58,0
2,60,61,0
2,67,82,0
2,64,66,0
2,55,52,0
2,60,91,1432
2,56,89,0
2,53,82,0
2,41,80,0
2,65,95,388
2,60,98,0
2,57,76,18
2,53,68,0
2,50,76,0
2,60,85,0
2,64,91,0
2,43,78,40
2,55,70,0
2,59,78,0
2,55,63,142
2,64,82,0
2,59,82,0
2,48,72,0
2,55,60,92
2,60,78,0
2,64,82,0
2,64,53,2
2,55,57,0
2,60,60,0
2,55,66,60
2,64,68,0
2,48,70,0
2,59,70,0
2,55,72,52
2,60,91,0
2,64,89,0
2,48,68,0
2,60,72,88
2,55,63,0
2,64,70,0
2,48,74,0
2,64,85,74
2,59,87,0
2,55,80,0
2,53,61,0
2,50,74,0
2,50,76,66
2,60,82,0
2,64,82,0
2,57,76,0
2,50,60,80
2,64,63,0
2,60,66,0
2,57,63,0
2,55,82,42
2,64,89,0
2,50,87,0
2,59,85,0
2,50,76,34
2,60,82,0
2,57,70,0
2,64,87,0
2,50,64,88
2,60,82,0
2,57,72,0
2,64,85,0
2,55,63,172
2,64,82,0
2,59,82,0
2,48,72,0
2,55,60,92
2,60,78,0
2,64,82,0
2,64,53,2
2,55,57,0
2,60,60,0
2,55,66,60
2,64,68,0
2,48,70,0
2,59,70,0
2,55,72,52
2,60,91,0
2,64,89,0
2,48,68,0
2,60,72,88
2,55,63,0
2,64,70,0
2,48,74,0
2,64,85,74
2,59,87,0
2,55,80,0
2,53,61,0
2,50,74,0
2,50,76,66
2,60,82,0
2,64,82,0
2,57,76,0
2,50,60,80
2,64,63,0
2,60,66,0
2,57,63,0
2,55,82,42
2,64,89,0
2,50,87,0
2,59,85,0
2,50,76,34
2,60,82,0
2,57,70,0
2,64,87,0
2,50,64,88
2,60,82,0
2,57,72,0
2,64,85,0
2,52,91,172
2,62,98,0
2,55,91,0
2,59,91,0
2,55,91,114
2,62,105,80
2,59,100,0
2,53,76,8
2,60,85,0
2,57,85,0
2,50,89,0
2,64,107,198
2,67,107,338
2,59,91,8
2,62,91,0
2,55,78,0
2,52,87,0
2,52,85,112
2,55,89,106
2,62,100,0
2,59,100,0
2,57,87,14
2,53,82,0
2,50,95,0
2,64,102,0
2,60,98,0
2,62,107,10
2,60,98,6
2,43,85,140
2,60,93,0
2,57,100,0
2,53,87,0
2,60,74,18
2,64,89,0
2,55,60,0
2,52,64,0
2,48,68,0
2,62,87,14
2,50,72,0
2,57,70,0
2,53,63,0
2,60,87,88
2,64,91,0
2,52,61,174
2,60,72,0
2,55,80,0
