track,note,velocity,time
1,78,116,15420
1,78,116,0
1,78,116,0
1,76,116,0
1,76,116,0
1,76,116,0
1,76,116,0
1,78,116,0
1,76,116,360
1,78,116,0
1,78,116,0
1,76,116,0
1,76,116,0
1,76,116,0
1,76,116,360
1,78,116,0
1,78,116,0
1,76,116,0
1,76,116,0
1,76,116,0
1,76,116,0
1,78,116,0
1,78,116,300
1,78,116,0
1,78,116,0
1,76,116,0
1,76,116,0
1,76,116,0
1,74,116,0
1,71,116,0
1,78,116,360
1,78,116,0
1,78,116,0
1,76,116,0
1,74,116,0
1,74,116,0
1,77,116,0
1,78,116,0
1,74,116,300
1,78,116,0
1,78,116,0
1,78,116,0
1,76,116,0
1,74,116,0
1,74,116,0
1,69,116,0
1,74,116,420
1,76,116,0
1,76,116,0
1,76,116,0
1,76,116,0
1,76,116,0
1,74,116,0
1,76,116,0
1,74,116,0
1,78,116,0
1,76,116,180
1,78,116,0
1,78,116,0
1,78,116,0
1,76,116,0
1,76,116,0
1,76,116,0
1,78,116,0
1,78,116,360
1,78,116,0
1,79,116,0
1,78,116,0
1,78,116,0
1,79,116,0
1,78,116,0
1,73,116,300
1,76,116,0
1,78,116,0
1,78,116,0
1,76,116,0
1,76,116,0
1,69,116,540
1,76,116,0
1,76,116,0
1,76,116,0
1,74,116,0
1,76,116,0
1,76,116,0
1,78,116,0
1,78,116,0
1,78,116,0
1,78,116,0
1,78,116,0
1,78,116,0
1,78,116,0
1,78,116,0
1,76,116,0
1,76,116,0
1,76,116,0
1,74,116,0
1,71,116,0
1,78,116,240
1,78,116,0
1,78,116,0
1,76,116,0
1,74,116,0
1,74,116,0
1,76,116,0
1,78,116,0
1,69,116,360
1,74,116,0
1,78,116,0
1,76,116,0
1,74,116,0
1,74,116,0
1,71,116,0
1,69,116,0
1,76,116,360
1,76,116,0
1,76,116,0
1,76,116,0
1,76,116,0
1,76,116,0
1,76,116,0
1,74,116,0
1,76,116,0
1,78,116,0
1,78,116,180
1,78,116,0
1,76,116,0
1,78,116,0
1,81,116,0
1,82,116,0
1,78,116,0
1,76,116,0
1,79,117,360
1,79,117,12
1,79,117,24
1,79,117,12
1,79,117,12
1,79,117,24
1,79,117,36
1,81,117,0
1,79,117,12
1,79,117,12
1,78,117,0
1,78,117,12
1,78,117,636
1,78,117,12
1,78,117,12
1,76,117,0
1,76,117,12
1,76,117,12
1,76,117,492
1,76,117,12
1,76,117,12
1,74,117,0
1,74,117,12
1,74,117,12
1,79,117,612
1,79,117,12
1,79,117,12
1,79,117,12
1,79,117,12
1,79,117,12
1,79,117,12
1,79,117,12
1,79,117,12
1,81,117,0
1,79,117,12
1,79,117,12
1,78,117,0
1,78,117,12
1,76,117,612
1,78,117,12
1,78,117,12
1,76,117,0
1,76,117,12
1,76,117,12
1,79,117,492
1,79,117,12
1,79,117,12
1,78,117,0
1,78,117,12
1,78,117,12
1,78,117,672
1,78,117,12
1,78,117,12
1,79,117,12
1,78,117,8
1,78,117,8
1,79,117,8
1,77,117,12
1,78,117,0
1,78,117,312
1,78,117,12
1,78,117,12
1,78,117,12
1,76,117,8
1,76,117,8
1,76,117,68
1,78,117,0
1,66,117,12
1,76,117,252
1,76,117,12
1,76,117,12
1,76,117,12
1,76,117,12
1,78,117,12
1,76,117,12
1,78,117,92
1,76,117,8
1,78,117,8
1,71,117,312
1,78,117,12
1,76,117,12
1,76,117,12
1,74,117,0
1,71,117,0
1,78,117,360
1,78,117,12
1,78,117,12
1,76,117,12
1,74,117,12
1,74,117,12
1,76,117,12
1,78,117,0
1,77,117,252
1,78,117,0
1,76,117,0
1,74,117,10
1,74,117,10
1,69,117,0
1,76,117,360
1,76,117,12
1,76,117,12
1,74,117,12
1,76,117,12
1,78,117,0
1,74,117,0
1,76,117,0
1,78,117,360
1,78,117,12
1,76,117,8
1,76,117,8
1,76,117,8
1,78,117,0
1,78,118,360
1,78,118,12
1,78,118,12
1,78,118,12
1,78,118,12
1,79,118,12
1,76,118,12
1,78,118,0
1,76,118,312
1,78,118,0
1,78,118,12
1,76,118,8
1,76,118,8
1,76,118,8
1,78,118,0
1,64,118,60
1,66,118,12
1,76,118,92
1,76,118,8
1,76,118,8
1,76,118,8
1,76,118,8
1,76,118,8
1,76,118,8
1,76,118,8
1,71,118,0
1,78,118,132
1,78,118,12
1,76,118,8
1,76,118,8
1,76,118,8
1,74,118,0
1,71,118,0
1,76,118,360
1,78,118,0
1,78,118,12
1,78,118,12
1,78,118,12
1,76,118,12
1,74,118,12
1,74,118,12
1,76,118,12
1,78,118,12
1,78,118,12
1,76,118,0
1,74,118,12
1,74,118,12
1,71,118,0
1,69,118,0
1,76,118,120
1,76,118,12
1,76,118,12
1,76,118,12
1,76,118,12
1,74,118,12
1,76,118,12
1,76,118,12
1,76,118,12
1,74,118,12
1,76,118,12
1,78,118,0
1,78,118,240
1,76,118,12
1,78,118,12
1,81,118,12
1,82,118,0
1,78,118,0
1,76,118,0
1,76,118,0
1,78,118,0
1,79,118,120
1,79,118,12
1,79,118,24
1,79,118,12
1,79,118,12
1,79,118,24
1,79,118,36
1,81,118,0
1,79,118,12
1,79,118,12
1,78,118,0
1,78,118,12
1,78,118,636
1,78,118,12
1,78,118,12
1,76,118,0
1,76,118,12
1,76,118,12
1,76,118,492
1,76,118,12
1,76,118,12
1,74,118,0
1,74,118,12
1,71,118,12
1,74,118,552
1,79,118,12
1,79,118,12
1,79,118,12
1,79,118,12
1,79,118,12
1,79,118,12
1,79,118,12
1,79,118,12
1,79,118,12
1,81,118,0
1,79,118,12
1,79,118,12
1,78,118,0
1,78,118,12
1,76,118,612
1,78,118,12
1,78,118,12
1,76,118,0
1,76,118,12
1,76,118,12
1,79,118,492
1,79,118,12
1,79,118,12
1,78,118,0
1,78,118,12
1,78,118,12
1,78,119,372
1,78,119,12
1,79,119,12
1,78,119,12
1,79,119,12
1,76,119,12
1,78,119,0
1,64,119,192
1,78,119,12
1,78,119,12
1,78,119,12
1,76,119,12
1,76,119,12
1,78,119,0
1,64,119,72
1,66,119,12
1,66,119,12
1,78,119,252
1,76,119,12
1,76,119,12
1,76,119,12
1,78,119,12
1,76,119,8
1,76,119,10
1,76,119,8
1,78,119,0
1,78,119,132
1,78,119,12
1,78,119,12
1,76,119,0
1,74,119,12
1,74,119,12
1,74,119,432
1,78,119,12
1,78,119,12
1,78,119,12
1,76,119,12
1,74,119,12
1,78,119,12
1,66,119,312
1,78,119,12
1,76,119,12
1,76,119,8
1,74,119,8
1,74,119,8
1,64,119,432
1,76,119,12
1,76,119,12
1,76,119,8
1,74,119,8
1,76,119,68
1,74,119,12
1,78,119,12
1,78,119,12
1,74,119,12
1,78,127,12
1,78,127,12
1,78,127,72
1,76,127,12
1,78,127,12
1,78,127,492
1,78,127,12
1,79,127,8
1,78,127,8
1,79,127,8
1,77,127,12
1,78,127,0
1,71,127,132
1,71,127,0
1,78,127,132
1,78,127,12
1,78,127,12
1,76,127,12
1,76,127,12
1,78,127,0
1,76,127,552
1,76,127,12
1,76,127,12
1,76,127,12
1,76,127,12
1,76,127,12
1,76,127,12
1,76,127,12
1,78,127,0
1,78,127,12
1,78,127,12
1,78,127,12
1,78,127,12
1,78,127,12
1,76,127,0
1,74,127,12
1,76,127,12
1,74,127,0
1,71,127,0
1,74,127,360
1,78,127,12
1,76,127,12
1,74,127,12
1,74,127,12
1,76,127,12
1,78,127,0
1,69,127,132
1,71,127,12
1,66,127,12
1,66,127,12
1,66,127,12
1,67,127,12
1,66,127,12
1,64,127,0
1,62,127,0
1,76,127,360
1,76,127,12
1,76,127,12
1,76,127,12
1,76,127,12
1,74,127,12
1,76,127,12
1,74,127,12
1,76,127,12
1,78,127,0
1,78,127,192
1,78,127,12
1,78,127,12
1,82,127,12
1,78,127,12
1,78,127,12
1,76,127,0
1,78,127,0
2,71,100,30840
2,62,100,0
2,71,100,0
2,62,100,0
2,62,100,0
2,71,100,0
2,62,100,0
2,71,100,0
2,62,100,0
2,71,100,0
2,71,100,0
2,62,100,0
2,71,100,0
2,62,100,0
2,73,100,0
2,64,100,0
2,71,100,0
2,62,100,0
2,62,100,0
2,71,100,0
2,69,100,0
2,69,100,0
2,62,100,0
2,70,100,1080
2,66,100,0
2,70,100,0
2,66,100,0
2,66,100,0
2,70,100,0
2,68,100,0
2,64,100,0
2,64,100,0
2,68,100,0
2,64,100,0
2,68,100,0
2,71,100,1080
2,62,100,0
2,71,100,0
2,62,100,0
2,71,100,0
2,62,100,0
2,71,100,0
2,62,100,0
2,71,100,0
2,62,100,0
2,71,100,0
2,62,100,0
2,71,100,0
2,62,100,0
2,62,100,0
2,71,100,0
2,62,100,0
2,71,100,0
2,73,100,0
2,64,100,0
2,62,100,0
2,71,100,0
2,62,100,0
2,71,100,0
2,69,100,0
2,62,100,0
2,69,100,0
2,67,100,1080
2,64,100,0
2,69,100,0
2,66,100,0
2,69,100,0
2,66,100,0
2,67,100,0
2,64,100,0
2,67,100,0
2,64,100,0
2,67,100,0
2,64,100,0
2,71,100,16560
2,62,100,0
2,71,100,0
2,62,100,0
2,62,100,0
2,71,100,0
2,62,100,0
2,71,100,0
2,62,100,0
2,71,100,0
2,71,100,0
2,62,100,0
2,71,100,0
2,62,100,0
2,73,100,0
2,64,100,0
2,71,100,0
2,62,100,0
2,62,100,0
2,71,100,0
2,69,100,0
2,69,100,0
2,62,100,0
2,70,100,1080
2,66,100,0
2,70,100,0
2,66,100,0
2,66,100,0
2,70,100,0
2,68,100,0
2,64,100,0
2,64,100,0
2,68,100,0
2,64,100,0
2,68,100,0
2,69,100,1020
2,59,100,0
2,71,100,0
2,62,100,0
2,71,100,0
2,62,100,0
2,71,100,0
2,62,100,0
2,71,100,0
2,62,100,0
2,71,100,0
2,62,100,0
2,71,100,0
2,62,100,0
2,71,100,0
2,62,100,0
2,62,100,0
2,71,100,0
2,62,100,0
2,71,100,0
2,73,100,0
2,64,100,0
2,62,100,0
2,71,100,0
2,62,100,0
2,71,100,0
2,69,100,0
2,62,100,0
2,69,100,0
2,67,100,1080
2,64,100,0
2,69,100,0
2,66,100,0
2,69,100,0
2,66,100,0
2,67,100,0
2,64,100,0
2,67,100,0
2,64,100,0
2,67,100,0
2,64,100,0
3,54,100,0
3,59,100,6
3,54,100,6
3,59,100,0
3,59,100,0
3,54,115,0
3,62,100,0
3,59,100,0
3,66,100,0
3,58,92,0
3,64,100,120
3,66,100,0
3,64,100,0
3,58,100,0
3,57,100,0
3,64,92,120
3,69,100,0
3,64,100,0
3,57,100,0
3,64,92,0
3,52,100,0
3,64,92,0
3,56,115,0
3,59,100,120
3,62,100,0
3,59,100,0
3,62,115,0
3,55,100,0
3,59,100,120
3,59,92,0
3,55,100,0
3,62,92,0
3,55,100,0
3,57,92,0
3,59,100,0
3,57,100,0
3,57,100,0
3,62,100,120
3,66,100,0
3,57,92,0
3,54,115,0
3,62,100,0
3,50,115,0
3,57,92,0
3,52,115,0
3,59,92,120
3,62,100,0
3,59,92,0
3,67,100,0
3,62,100,0
3,47,115,0
3,54,100,0
3,58,100,120
3,64,100,0
3,58,92,0
3,64,100,0
3,54,115,0
3,59,100,6
3,62,100,6
3,59,92,0
3,59,100,0
3,54,92,0
3,62,100,0
3,59,100,0
3,66,100,0
3,58,100,0
3,64,100,120
3,66,100,0
3,64,100,0
3,58,115,0
3,57,115,0
3,64,100,120
3,69,92,0
3,64,92,0
3,57,99,0
3,64,100,0
3,52,100,0
3,64,92,0
3,56,99,0
3,59,100,120
3,62,100,0
3,59,100,0
3,62,115,0
3,55,115,0
3,59,100,120
3,59,100,0
3,55,100,0
3,62,100,0
3,55,100,0
3,57,115,0
3,59,107,0
3,57,115,0
3,57,115,0
3,62,100,120
3,66,115,0
3,57,107,0
3,54,115,0
3,62,100,0
3,50,122,0
3,57,100,0
3,52,115,0
3,59,107,120
3,62,100,0
3,59,115,0
3,67,100,0
3,62,122,0
3,47,92,0
3,54,115,0
3,58,115,120
3,64,107,0
3,58,115,0
3,64,127,0
3,62,100,0
3,59,100,0
3,54,100,0
3,59,100,0
3,59,115,0
3,54,100,0
3,62,100,0
3,59,100,0
3,66,100,0
3,58,115,0
3,64,100,120
3,66,100,0
3,64,92,0
3,58,115,0
3,57,115,0
3,64,100,120
3,69,100,0
3,64,100,0
3,57,100,0
3,64,100,0
3,52,100,0
3,64,92,0
3,56,115,0
3,59,92,120
3,62,100,0
3,59,115,0
3,62,115,0
3,55,115,0
3,59,100,120
3,59,115,0
3,55,100,0
3,62,115,0
3,55,100,0
3,57,115,0
3,59,115,0
3,57,115,0
3,57,115,0
3,62,100,120
3,66,100,0
3,57,115,0
3,54,115,0
3,62,100,0
3,50,115,0
3,57,100,0
3,52,115,0
3,59,100,120
3,62,100,0
3,59,115,0
3,67,92,0
3,62,100,0
3,47,115,0
3,54,100,0
3,58,100,120
3,64,100,0
3,58,100,0
3,64,115,0
3,59,85,0
3,62,85,0
3,66,85,0
3,71,85,0
3,71,85,0
3,66,85,0
3,62,85,0
3,59,85,0
3,59,85,0
3,62,85,0
3,66,85,0
3,71,85,0
3,59,85,0
3,62,85,0
3,66,85,0
3,71,85,0
3,71,85,0
3,66,85,0
3,62,85,0
3,59,85,0
3,59,85,0
3,62,85,0
3,66,85,0
3,71,85,0
3,59,85,0
3,62,85,0
3,66,85,0
3,71,85,0
3,59,85,0
3,62,85,0
3,66,85,0
3,71,85,0
3,73,85,0
3,66,85,0
3,64,85,0
3,58,85,0
3,58,85,0
3,64,85,0
3,66,85,0
3,73,85,0
3,73,85,0
3,66,85,0
3,64,85,0
3,58,85,0
3,73,85,0
3,66,85,0
3,64,85,0
3,58,85,0
3,71,86,0
3,64,86,0
3,61,86,0
3,57,86,0
3,57,86,0
3,61,86,0
3,64,86,0
3,71,86,0
3,71,86,0
3,64,86,0
3,61,86,0
3,57,86,0
3,57,86,0
3,61,86,0
3,64,86,0
3,71,86,0
3,57,86,0
3,61,86,0
3,64,86,0
3,71,86,0
3,71,86,0
3,66,86,0
3,62,86,0
3,56,86,0
3,56,87,0
3,62,87,0
3,66,87,0
3,71,87,0
3,71,87,0
3,66,87,0
3,62,87,0
3,56,87,0
3,71,87,0
3,66,87,0
3,62,87,0
3,56,87,0
3,55,87,0
3,59,87,0
3,62,87,0
3,67,87,0
3,67,87,0
3,62,87,0
3,59,87,0
3,55,87,0
3,55,87,0
3,59,87,0
3,62,87,0
3,67,87,0
3,67,87,0
3,62,87,0
3,59,87,0
3,55,87,0
3,55,87,0
3,59,87,0
3,62,87,0
3,67,87,0
3,55,87,0
3,59,87,0
3,62,87,0
3,67,87,0
3,67,87,0
3,62,87,0
3,59,87,0
3,55,87,0
3,55,88,0
3,59,88,0
3,62,88,0
3,67,88,0
3,67,88,0
3,62,88,0
3,59,88,0
3,55,88,0
3,66,88,0
3,62,88,0
3,57,88,0
3,50,88,0
3,50,88,0
3,57,88,0
3,62,88,0
3,66,88,0
3,66,88,0
3,62,88,0
3,57,88,0
3,50,88,0
3,50,88,0
3,57,88,0
3,62,88,0
3,66,88,0
3,66,88,0
3,62,88,0
3,57,88,0
3,50,88,0
3,52,88,0
3,59,88,0
3,64,88,0
3,67,88,0
3,52,88,0
3,59,88,0
3,64,88,0
3,67,88,0
3,67,88,0
3,64,88,0
3,59,88,0
3,52,88,0
3,52,89,0
3,59,89,0
3,64,89,0
3,67,89,0
3,67,81,0
3,64,81,0
3,59,81,0
3,52,81,0
3,52,89,0
3,59,89,0
3,64,89,0
3,67,89,0
3,52,89,0
3,59,89,0
3,64,89,0
3,67,89,0
3,58,89,0
3,61,89,0
3,70,89,0
3,66,89,0
3,70,89,0
3,66,89,0
3,61,89,0
3,58,89,0
3,58,89,0
3,61,89,0
3,66,89,0
3,70,89,0
3,70,89,0
3,66,89,0
3,61,89,0
3,58,89,0
3,70,89,0
3,66,89,0
3,61,89,0
3,58,89,0
3,70,81,0
3,66,89,0
