track,note,velocity,time
1,78,127,15420
1,78,0,60
1,78,127,0
1,78,0,60
1,78,127,0
1,78,0,120
1,76,127,0
1,76,0,60
1,76,127,0
1,76,0,60
1,76,127,0
1,76,0,120
1,76,127,0
1,76,0,30
1,78,127,0
1,78,0,90
1,76,127,360
1,76,0,60
1,78,127,0
1,78,0,60
1,78,127,0
1,78,0,60
1,76,127,0
1,76,0,120
1,76,127,0
1,76,0,60
1,76,127,0
1,76,0,240
1,76,127,360
1,76,0,60
1,78,127,0
1,78,0,60
1,78,127,0
1,78,0,120
1,76,127,0
1,76,0,60
1,76,127,0
1,76,0,60
1,76,127,0
1,76,0,120
1,76,127,0
1,76,0,30
1,78,127,0
1,78,0,90
1,78,127,300
1,78,0,120
1,78,127,0
1,78,0,60
1,78,127,0
1,78,0,80
1,76,127,0
1,76,0,80
1,76,127,0
1,76,0,80
1,76,127,0
1,76,0,90
1,74,127,0
1,74,0,30
1,71,127,0
1,71,0,120
1,78,127,360
1,78,0,60
1,78,127,0
1,78,0,60
1,78,127,0
1,78,0,120
1,76,127,0
1,76,0,60
1,74,127,0
1,74,0,60
1,74,127,0
1,74,0,120
1,77,127,0
1,77,0,30
1,78,127,0
1,78,0,90
1,74,127,300
1,74,0,60
1,78,127,0
1,78,0,60
1,78,127,0
1,78,0,60
1,78,127,0
1,78,0,80
1,76,127,0
1,76,0,80
1,74,127,0
1,74,0,80
1,74,127,0
1,74,0,30
1,69,127,0
1,69,0,90
1,74,127,420
1,74,0,60
1,76,127,0
1,76,0,60
1,76,127,0
1,76,0,60
1,76,127,0
1,76,0,60
1,76,127,0
1,76,0,60
1,76,127,0
1,76,0,60
1,74,127,0
1,74,0,60
1,76,127,0
1,76,0,120
1,74,127,0
1,74,0,60
1,78,127,0
1,78,0,180
1,76,127,180
1,76,0,60
1,78,127,0
1,78,0,60
1,78,127,0
1,78,0,60
1,78,127,0
1,78,0,120
1,76,127,0
1,76,0,60
1,76,127,0
1,76,0,120
1,76,127,0
1,76,0,30
1,78,127,0
1,78,0,150
1,78,127,360
1,78,0,60
1,78,127,0
1,78,0,120
1,79,127,0
1,79,0,60
1,78,127,0
1,78,0,60
1,78,127,0
1,78,0,60
1,79,127,0
1,79,0,120
1,78,127,0
1,78,0,120
1,73,127,300
1,73,0,60
1,76,127,0
1,76,0,60
1,78,127,0
1,78,0,60
1,78,127,0
1,78,0,60
1,76,127,0
1,76,0,120
1,76,127,0
1,76,0,180
1,69,127,540
1,69,0,60
1,76,127,0
1,76,0,60
1,76,127,0
1,76,0,60
1,76,127,0
1,76,0,60
1,74,127,0
1,74,0,60
1,76,127,0
1,76,0,60
1,76,127,0
1,76,0,120
1,78,127,0
1,78,0,120
1,78,127,0
1,78,0,60
1,78,127,0
1,78,0,60
1,78,127,0
1,78,0,60
1,78,127,0
1,78,0,80
1,78,127,0
1,78,0,80
1,78,127,0
1,78,0,80
1,78,127,0
1,78,0,80
1,76,127,0
1,76,0,80
1,76,127,0
1,76,0,80
1,76,127,0
1,76,0,120
1,74,127,0
1,74,0,60
1,71,127,0
1,71,0,180
1,78,127,240
1,78,0,60
1,78,127,0
1,78,0,60
1,78,127,0
1,78,0,80
1,76,127,0
1,76,0,80
1,74,127,0
1,74,0,80
1,74,127,0
1,74,0,120
1,76,127,0
1,76,0,30
1,78,127,0
1,78,0,90
1,69,127,360
1,69,0,60
1,74,127,0
1,74,0,60
1,78,127,0
1,78,0,120
1,76,127,0
1,76,0,60
1,74,127,0
1,74,0,60
1,74,127,0
1,74,0,90
1,71,127,0
1,71,0,30
1,69,127,0
1,69,0,120
1,76,127,360
1,76,0,60
1,76,127,0
1,76,0,60
1,76,127,0
1,76,0,60
1,76,127,0
1,76,0,60
1,76,127,0
1,76,0,60
1,76,127,0
1,76,0,60
1,76,127,0
1,76,0,120
1,74,127,0
1,74,0,60
1,76,127,0
1,76,0,30
1,78,127,0
1,78,0,150
1,78,127,180
1,78,0,60
1,78,127,0
1,78,0,60
1,76,127,0
1,76,0,60
1,78,127,0
1,78,0,120
1,81,127,0
1,81,0,60
1,82,127,0
1,82,0,60
1,78,127,0
1,78,0,60
1,76,127,0
1,76,0,180
1,79,127,360
1,79,0,48
1,79,127,12
1,79,0,96
1,79,127,24
1,79,0,48
1,79,127,12
1,79,0,48
1,79,127,12
1,79,0,96
1,79,127,24
1,79,0,144
1,79,127,36
1,79,0,40
1,81,127,0
1,81,0,68
1,79,127,12
1,79,0,48
1,79,127,12
1,79,0,40
1,78,127,0
1,78,0,68
1,78,127,12
1,78,0,144
1,78,127,636
1,78,0,48
1,78,127,12
1,78,0,48
1,78,127,12
1,78,0,60
1,76,127,0
1,76,0,48
1,76,127,12
1,76,0,48
1,76,127,12
1,76,0,168
1,76,127,492
1,76,0,48
1,76,127,12
1,76,0,48
1,76,127,12
1,76,0,60
1,74,127,0
1,74,0,48
1,74,127,12
1,74,0,48
1,74,127,12
1,74,0,168
1,79,127,612
1,79,0,48
1,79,127,12
1,79,0,48
1,79,127,12
1,79,0,48
1,79,127,12
1,79,0,108
1,79,127,12
1,79,0,108
1,79,127,12
1,79,0,48
1,79,127,12
1,79,0,108
1,79,127,12
1,79,0,108
1,79,127,12
1,79,0,60
1,81,127,0
1,81,0,48
1,79,127,12
1,79,0,48
1,79,127,12
1,79,0,60
1,78,127,0
1,78,0,48
1,78,127,12
1,78,0,168
1,76,127,612
1,76,0,48
1,78,127,12
1,78,0,48
1,78,127,12
1,78,0,60
1,76,127,0
1,76,0,48
1,76,127,12
1,76,0,48
1,76,127,12
1,76,0,168
1,79,127,492
1,79,0,48
1,79,127,12
1,79,0,48
1,79,127,12
1,79,0,60
1,78,127,0
1,78,0,48
1,78,127,12
1,78,0,48
1,78,127,12
1,78,0,168
1,78,127,672
1,78,0,48
1,78,127,12
1,78,0,48
1,78,127,12
1,78,0,48
1,79,127,12
1,79,0,72
1,78,127,8
1,78,0,72
1,78,127,8
1,78,0,72
1,79,127,8
1,79,0,108
1,77,127,12
1,77,0,60
1,78,127,0
1,78,0,48
1,78,127,312
1,78,0,48
1,78,127,12
1,78,0,48
1,78,127,12
1,78,0,48
1,78,127,12
1,78,0,72
1,76,127,8
1,76,0,72
1,76,127,8
1,76,0,72
1,76,127,68
1,76,0,60
1,78,127,0
1,78,0,108
1,66,127,12
1,66,0,48
1,76,127,252
1,76,0,48
1,76,127,12
1,76,0,48
1,76,127,12
1,76,0,48
1,76,127,12
1,76,0,48
1,76,127,12
1,76,0,48
1,78,127,12
1,78,0,48
1,76,127,12
1,76,0,48
1,78,127,92
1,78,0,72
1,76,127,8
1,76,0,72
1,78,127,8
1,78,0,108
1,71,127,312
1,71,0,48
1,78,127,12
1,78,0,48
1,76,127,12
1,76,0,108
1,76,127,12
1,76,0,120
1,74,127,0
1,74,0,60
1,71,127,0
1,71,0,120
1,78,127,360
1,78,0,48
1,78,127,12
1,78,0,48
1,78,127,12
1,78,0,108
1,76,127,12
1,76,0,48
1,74,127,12
1,74,0,48
1,74,127,12
1,74,0,108
1,76,127,12
1,76,0,60
1,78,127,0
1,78,0,48
1,77,127,252
1,77,0,60
1,78,127,0
1,78,0,260
1,76,127,0
1,76,0,70
1,74,127,10
1,74,0,70
1,74,127,10
1,74,0,60
1,69,127,0
1,69,0,180
1,76,127,360
1,76,0,108
1,76,127,12
1,76,0,108
1,76,127,12
1,76,0,48
1,74,127,12
1,74,0,48
1,76,127,12
1,76,0,60
1,78,127,0
1,78,0,60
1,74,127,0
1,74,0,60
1,76,127,0
1,76,0,60
1,78,127,360
1,78,0,108
1,78,127,12
1,78,0,72
1,76,127,8
1,76,0,72
1,76,127,8
1,76,0,72
1,76,127,8
1,76,0,60
1,78,127,0
1,78,0,180
1,78,127,360
1,78,0,48
1,78,127,12
1,78,0,108
1,78,127,12
1,78,0,48
1,78,127,12
1,78,0,48
1,78,127,12
1,78,0,48
1,79,127,12
1,79,0,108
1,76,127,12
1,76,0,60
1,78,127,0
1,78,0,48
1,76,127,312
1,76,0,60
1,78,127,0
1,78,0,108
1,78,127,12
1,78,0,72
1,76,127,8
1,76,0,72
1,76,127,8
1,76,0,72
1,76,127,8
1,76,0,60
1,78,127,0
1,78,0,180
1,64,127,60
1,64,0,48
1,66,127,12
1,66,0,108
1,76,127,92
1,76,0,72
1,76,127,8
1,76,0,72
1,76,127,8
1,76,0,72
1,76,127,8
1,76,0,72
1,76,127,8
1,76,0,72
1,76,127,8
1,76,0,72
1,76,127,8
1,76,0,72
1,76,127,8
1,76,0,200
1,71,127,0
1,71,0,108
1,78,127,132
1,78,0,108
1,78,127,12
1,78,0,72
1,76,127,8
1,76,0,72
1,76,127,8
1,76,0,72
1,76,127,8
1,76,0,60
1,74,127,0
1,74,0,60
1,71,127,0
1,71,0,120
1,76,127,360
1,76,0,60
1,78,127,0
1,78,0,48
1,78,127,12
1,78,0,108
1,78,127,12
1,78,0,108
1,78,127,12
1,78,0,48
1,76,127,12
1,76,0,48
1,74,127,12
1,74,0,48
1,74,127,12
1,74,0,108
1,76,127,12
1,76,0,48
1,78,127,12
1,78,0,108
1,78,127,12
1,78,0,300
1,76,127,0
1,76,0,48
1,74,127,12
1,74,0,48
1,74,127,12
1,74,0,360
1,71,127,0
1,71,0,60
1,69,127,0
1,69,0,60
1,76,127,120
1,76,0,48
1,76,127,12
1,76,0,48
1,76,127,12
1,76,0,48
1,76,127,12
1,76,0,108
1,76,127,12
1,76,0,48
1,74,127,12
1,74,0,48
1,76,127,12
1,76,0,48
1,76,127,12
1,76,0,48
1,76,127,12
1,76,0,48
1,74,127,12
1,74,0,48
1,76,127,12
1,76,0,60
1,78,127,0
1,78,0,60
1,78,127,240
1,78,0,48
1,76,127,12
1,76,0,48
1,78,127,12
1,78,0,108
1,81,127,12
1,81,0,60
1,82,127,0
1,82,0,60
1,78,127,0
1,78,0,60
1,76,127,0
1,76,0,180
1,76,127,0
1,76,0,60
1,78,127,0
1,78,0,180
1,79,127,120
1,79,0,48
1,79,127,12
1,79,0,96
1,79,127,24
1,79,0,48
1,79,127,12
1,79,0,48
1,79,127,12
1,79,0,96
1,79,127,24
1,79,0,144
1,79,127,36
1,79,0,40
1,81,127,0
1,81,0,68
1,79,127,12
1,79,0,48
1,79,127,12
1,79,0,40
1,78,127,0
1,78,0,68
1,78,127,12
1,78,0,144
1,78,127,636
1,78,0,48
1,78,127,12
1,78,0,48
1,78,127,12
1,78,0,60
1,76,127,0
1,76,0,48
1,76,127,12
1,76,0,48
1,76,127,12
1,76,0,168
1,76,127,492
1,76,0,48
1,76,127,12
1,76,0,48
1,76,127,12
1,76,0,60
1,74,127,0
1,74,0,48
1,74,127,12
1,74,0,48
1,71,127,12
1,71,0,168
1,74,127,552
1,74,0,48
1,79,127,12
1,79,0,48
1,79,127,12
1,79,0,48
1,79,127,12
1,79,0,48
1,79,127,12
1,79,0,108
1,79,127,12
1,79,0,108
1,79,127,12
1,79,0,48
1,79,127,12
1,79,0,108
1,79,127,12
1,79,0,108
1,79,127,12
1,79,0,60
1,81,127,0
1,81,0,48
1,79,127,12
1,79,0,48
1,79,127,12
1,79,0,60
1,78,127,0
1,78,0,48
1,78,127,12
1,78,0,168
1,76,127,612
1,76,0,48
1,78,127,12
1,78,0,48
1,78,127,12
1,78,0,60
1,76,127,0
1,76,0,48
1,76,127,12
1,76,0,48
1,76,127,12
1,76,0,168
1,79,127,492
1,79,0,48
1,79,127,12
1,79,0,48
1,79,127,12
1,79,0,60
1,78,127,0
1,78,0,48
1,78,127,12
1,78,0,48
1,78,127,12
1,78,0,528
1,78,127,372
1,78,0,48
1,78,127,12
1,78,0,108
1,79,127,12
1,79,0,108
1,78,127,12
1,78,0,48
1,79,127,12
1,79,0,108
1,76,127,12
1,76,0,60
1,78,127,0
1,78,0,168
1,64,127,192
1,64,0,48
1,78,127,12
1,78,0,48
1,78,127,12
1,78,0,108
1,78,127,12
1,78,0,108
1,76,127,12
1,76,0,48
1,76,127,12
1,76,0,60
1,78,127,0
1,78,0,48
1,64,127,72
1,64,0,48
1,66,127,12
1,66,0,48
1,66,127,12
1,66,0,48
1,78,127,252
1,78,0,48
1,76,127,12
1,76,0,48
1,76,127,12
1,76,0,108
1,76,127,12
1,76,0,108
1,78,127,12
1,78,0,72
1,76,127,8
1,76,0,70
1,76,127,10
1,76,0,72
1,76,127,8
1,76,0,60
1,78,127,0
1,78,0,168
1,78,127,132
1,78,0,48
1,78,127,12
1,78,0,48
1,78,127,12
1,78,0,60
1,76,127,0
1,76,0,108
1,74,127,12
1,74,0,48
1,74,127,12
1,74,0,108
1,74,127,432
1,74,0,48
1,78,127,12
1,78,0,48
1,78,127,12
1,78,0,48
1,78,127,12
1,78,0,108
1,76,127,12
1,76,0,108
1,74,127,12
1,74,0,108
1,78,127,12
1,78,0,108
1,66,127,312
1,66,0,48
1,78,127,12
1,78,0,108
1,76,127,12
1,76,0,72
1,76,127,8
1,76,0,72
1,74,127,8
1,74,0,72
1,74,127,8
1,74,0,108
1,64,127,432
1,64,0,48
1,76,127,12
1,76,0,108
1,76,127,12
1,76,0,72
1,76,127,8
1,76,0,72
1,74,127,8
1,74,0,72
1,76,127,68
1,76,0,108
1,74,127,12
1,74,0,48
1,78,127,12
1,78,0,108
1,78,127,12
1,78,0,48
1,74,127,12
1,74,0,48
1,78,127,12
1,78,0,108
1,78,127,12
1,78,0,108
1,78,127,72
1,78,0,108
1,76,127,12
1,76,0,48
1,78,127,12
1,78,0,108
1,78,127,492
1,78,0,108
1,78,127,12
1,78,0,72
1,79,127,8
1,79,0,72
1,78,127,8
1,78,0,72
1,79,127,8
1,79,0,108
1,77,127,12
1,77,0,60
1,78,127,0
1,78,0,48
1,71,127,132
1,71,0,60
1,71,127,0
1,71,0,48
1,78,127,132
1,78,0,48
1,78,127,12
1,78,0,108
1,78,127,12
1,78,0,48
1,76,127,12
1,76,0,48
1,76,127,12
1,76,0,60
1,78,127,0
1,78,0,108
1,76,127,552
1,76,0,48
1,76,127,12
1,76,0,48
1,76,127,12
1,76,0,48
1,76,127,12
1,76,0,48
1,76,127,12
1,76,0,48
1,76,127,12
1,76,0,48
1,76,127,12
1,76,0,108
1,76,127,12
1,76,0,60
1,78,127,0
1,78,0,108
1,78,127,12
1,78,0,48
1,78,127,12
1,78,0,48
1,78,127,12
1,78,0,108
1,78,127,12
1,78,0,108
1,78,127,12
1,78,0,60
1,76,127,0
1,76,0,48
1,74,127,12
1,74,0,48
1,76,127,12
1,76,0,120
1,74,127,0
1,74,0,60
1,71,127,0
1,71,0,120
1,74,127,360
1,74,0,48
1,78,127,12
1,78,0,168
1,76,127,12
1,76,0,48
1,74,127,12
1,74,0,48
1,74,127,12
1,74,0,108
1,76,127,12
1,76,0,60
1,78,127,0
1,78,0,48
1,69,127,132
1,69,0,48
1,71,127,12
1,71,0,168
1,66,127,12
1,66,0,48
1,66,127,12
1,66,0,108
1,66,127,12
1,66,0,108
1,67,127,12
1,67,0,48
1,66,127,12
1,66,0,120
1,64,127,0
1,64,0,60
1,62,127,0
1,62,0,60
1,76,127,360
1,76,0,48
1,76,127,12
1,76,0,48
1,76,127,12
1,76,0,48
1,76,127,12
1,76,0,48
1,76,127,12
1,76,0,48
1,74,127,12
1,74,0,108
1,76,127,12
1,76,0,108
1,74,127,12
1,74,0,48
1,76,127,12
1,76,0,60
1,78,127,0
1,78,0,48
1,78,127,192
1,78,0,48
1,78,127,12
1,78,0,48
1,78,127,12
1,78,0,108
1,82,127,12
1,82,0,48
1,78,127,12
1,78,0,108
1,78,127,12
1,78,0,60
1,76,127,0
1,76,0,60
1,78,127,0
1,78,0,120
2,71,127,30840
2,62,127,0
2,62,0,60
2,71,0,0
2,71,127,0
2,62,127,0
2,62,0,120
2,71,0,0
2,62,127,0
2,71,127,0
2,71,0,60
2,62,0,0
2,62,127,0
2,71,127,0
2,71,0,60
2,62,0,0
