track,note,velocity,time
1,62,100,0
1,62,0,60
1,65,100,0
1,65,0,30
1,60,100,0
1,60,0,10
1,67,100,20
1,67,0,10
1,62,100,20
1,62,0,10
1,60,100,20
1,60,0,30
1,58,100,0
1,58,0,60
1,60,100,0
1,60,0,30
1,58,100,0
1,58,0,30
1,62,100,0
1,62,0,60
1,60,100,0
1,60,0,30
1,58,100,30
1,58,0,30
1,60,100,0
1,60,0,30
1,55,100,0
1,55,0,2
1,58,100,0
1,58,0,30
1,62,100,118
1,62,0,60
1,65,100,0
1,65,0,30
1,60,100,0
1,60,0,10
1,67,100,20
1,67,0,10
1,62,100,20
1,62,0,10
1,60,100,20
1,60,0,30
1,58,100,0
1,58,0,60
1,60,100,0
1,60,0,30
1,62,100,30
1,62,0,3
1,60,100,0
1,60,0,20
1,58,100,0
1,58,0,20
1,55,100,0
1,55,0,30
1,62,100,30
1,62,0,60
1,65,100,0
1,65,0,30
1,67,100,30
1,67,0,10
1,62,100,20
1,62,0,10
1,60,100,20
1,60,0,30
1,58,100,0
1,58,0,30
1,60,100,150
1,60,0,30
1,58,100,0
1,58,0,30
1,60,100,0
1,60,0,56
1,58,100,4
1,58,0,104
1,58,100,2
1,58,0,115
1,62,100,5
1,62,0,60
1,65,100,0
1,65,0,30
1,67,100,30
1,67,0,10
1,62,100,20
1,62,0,10
1,60,100,20
1,60,0,30
1,58,100,0
1,58,0,30
1,60,100,30
1,60,0,29
1,58,100,0
1,58,0,30
1,55,100,0
1,55,0,3
2,55,100,720
2,60,100,0
2,64,100,0
2,64,0,120
2,60,0,0
2,55,0,0
2,55,100,0
2,60,100,0
2,64,100,0
2,64,0,9
2,60,0,0
2,55,0,0
2,55,100,1676
2,60,100,0
2,64,100,0
2,64,0,120
2,60,0,0
2,55,0,0
2,55,100,0
2,60,100,0
2,64,100,0
2,64,0,9
2,60,0,0
2,55,0,0
2,55,100,1676
2,60,100,0
2,64,100,0
2,64,0,120
2,60,0,0
2,55,0,0
2,55,100,0
2,60,100,0
2,64,100,0
2,64,0,9
2,60,0,0
2,55,0,0
2,55,100,1676
2,60,100,0
2,64,100,0
2,64,0,120
2,60,0,0
2,55,0,0
2,55,100,0
2,60,100,0
2,64,100,0
2,64,0,9
2,60,0,0
2,55,0,0
2,55,100,1676
2,60,100,0
2,64,100,0
2,64,0,120
2,60,0,0
2,55,0,0
2,55,100,0
2,60,100,0
2,64,100,0
2,64,0,9
2,60,0,0
2,55,0,0
2,55,100,1676
2,60,100,0
2,64,100,0
2,64,0,120
2,60,0,0
2,55,0,0
2,55,100,0
2,60,100,0
2,64,100,0
2,64,0,9
2,60,0,0
2,55,0,0
2,65,100,8
2,65,0,48
2,65,100,0
2,65,0,60
2,70,100,0
2,70,0,60
2,65,100,0
2,65,0,55
2,72,100,2
2,72,0,40
2,70,100,0
2,70,0,120
2,70,100,0
2,70,0,60
2,70,100,0
2,70,0,60
2,70,100,0
2,70,0,120
2,65,100,3
2,65,0,48
2,70,100,0
2,70,0,60
2,72,100,0
2,72,0,55
2,74,100,2
2,77,100,41
2,77,0,300
2,74,0,0
2,72,100,0
2,72,0,44
2,68,100,2
2,68,0,2
2,70,100,120
2,65,100,0
2,65,0,105
2,70,0,0
2,65,100,0
2,65,0,60
2,65,100,0
2,65,0,60
2,70,100,0
2,70,0,60
2,65,100,0
2,65,0,55
2,72,100,2
2,72,0,33
2,70,100,0
2,70,0,120
2,72,100,0
2,72,0,30
2,70,100,30
2,70,0,30
2,72,100,30
2,72,0,30
2,70,100,30
2,70,0,30
2,77,100,30
2,77,0,60
2,82,100,0
2,82,0,60
2,82,100,0
2,82,0,55
2,84,100,2
2,84,0,98
2,86,100,3
2,86,0,18
2,77,100,2
2,77,0,3
2,74,100,5
2,74,0,48
2,77,100,0
2,77,0,60
2,75,100,0
2,75,0,55
2,74,100,3
2,74,0,42
2,70,100,0
2,70,0,60
2,65,100,0
2,65,0,55
2,69,100,2
2,69,0,448
2,68,100,1
2,63,100,0
2,63,0,2
2,68,0,0
2,68,100,1
2,63,100,0
2,63,0,2
2,68,0,0
2,68,100,1
2,63,100,0
2,63,0,2
2,68,0,0
2,55,100,122
2,60,100,0
2,64,100,0
2,64,0,120
2,60,0,0
2,55,0,0
2,55,100,0
2,60,100,0
2,64,100,0
2,64,0,5
2,60,0,0
2,55,0,0
2,68,100,1
2,63,100,0
2,63,0,2
2,68,0,0
2,68,100,1
2,63,100,0
2,63,0,2
2,68,0,0
2,68,100,1
2,63,100,0
2,63,0,2
2,68,0,0
2,55,100,122
2,60,100,0
2,64,100,0
2,64,0,120
2,60,0,0
2,55,0,0
2,55,100,0
2,60,100,0
2,64,100,0
2,64,0,5
2,60,0,0
2,55,0,0
2,68,100,1
2,63,100,0
2,63,0,2
2,68,0,0
2,68,100,1
2,63,100,0
2,63,0,2
2,68,0,0
2,68,100,1
2,63,100,0
2,63,0,2
2,68,0,0
2,55,100,122
2,60,100,0
2,64,100,0
2,64,0,120
2,60,0,0
2,55,0,0
2,55,100,0
2,60,100,0
2,64,100,0
2,64,0,5
2,60,0,0
2,55,0,0
2,68,100,1
2,63,100,0
2,63,0,2
2,68,0,0
2,68,100,1
2,63,100,0
2,63,0,2
2,68,0,0
2,68,100,1
2,63,100,0
2,63,0,2
2,68,0,0
2,55,100,122
2,60,100,0
2,64,100,0
2,64,0,120
2,60,0,0
2,55,0,0
2,55,100,0
2,60,100,0
2,64,100,0
2,64,0,5
2,60,0,0
2,55,0,0
2,65,100,8
2,65,0,48
2,65,100,0
2,65,0,60
2,70,100,0
2,70,0,60
2,65,100,0
2,65,0,55
2,72,100,2
2,72,0,35
2,68,100,2
2,68,0,2
2,70,100,46
2,65,100,0
2,74,100,60
2,74,0,180
2,65,0,0
2,70,0,0
2,65,100,1
2,65,0,39
2,70,100,4
2,70,0,55
2,72,100,5
2,72,0,55
2,72,100,5
2,75,100,46
2,75,0,1
2,72,0,3
2,74,100,0
2,74,0,43
2,77,100,0
2,77,0,60
2,74,100,0
2,74,0,15
2,70,100,3
2,70,0,55
2,74,100,2
2,74,0,41
2,77,100,5
2,77,0,55
2,74,100,5
2,74,0,15
2,70,100,2
2,70,0,415
2,65,100,18
2,70,100,40
2,65,0,235
2,70,0,5
2,74,100,60
2,74,0,60
2,82,100,0
2,82,0,115
2,84,100,3
2,84,0,97
2,86,100,3
2,86,0,18
2,77,100,2
2,77,0,2
2,74,100,2
2,74,0,46
2,77,100,0
2,77,0,60
2,74,100,0
2,74,0,55
2,74,100,2
2,74,0,50
2,70,100,0
2,70,0,60
2,65,100,0
2,65,0,55
2,69,100,2
2,69,0,1
2,75,120,3
2,75,0,58
2,72,120,2
2,72,0,56
2,72,120,1
2,72,0,42
2,70,120,0
2,70,0,30
2,67,120,0
2,67,0,385
2,65,120,2
2,65,0,1
2,69,120,2
2,69,0,53
2,67,120,5
2,67,0,115
2,69,120,2
2,69,0,53
2,67,120,5
2,67,0,1
2,60,120,2
2,60,0,25
2,63,120,2
2,63,0,13
2,72,120,1
2,72,0,33
2,79,120,1
2,79,0,55
2,79,120,5
2,79,0,120
2,79,120,0
2,79,0,55
2,76,120,5
2,76,0,10
2,81,120,20
2,81,0,27
2,77,120,2
2,77,0,15
2,74,120,5
2,74,0,30
2,77,120,0
2,77,0,86
2,79,120,2
2,79,0,16
2,72,120,2
2,72,0,40
2,70,120,0
2,70,0,30
2,67,120,0
2,67,0,86
2,79,120,2
2,79,0,19
2,72,120,2
2,72,0,40
2,70,120,0
2,70,0,30
2,67,120,0
2,67,0,86
2,79,120,2
2,79,0,15
2,72,120,3
2,72,0,43
2,70,120,0
2,70,0,30
2,72,120,0
2,72,0,60
2,70,120,0
2,70,0,30
2,72,120,0
2,72,0,55
2,74,120,2
2,74,0,13
2,70,120,0
2,70,0,37
2,65,120,5
2,65,0,2
2,68,108,0
2,68,0,2
2,74,108,0
2,77,108,0
2,77,0,120
2,74,0,0
2,77,108,0
2,77,0,175
2,65,108,3
2,65,0,44
2,70,99,5
2,74,99,60
2,70,0,60
2,70,99,0
2,74,0,55
2,77,99,5
2,77,0,295
2,70,0,0
2,72,90,5
2,72,0,60
2,74,89,0
2,74,0,60
2,72,89,0
2,72,0,120
2,65,89,0
2,70,89,0
2,70,0,6
2,65,0,0
2,65,89,120
2,70,89,0
2,70,0,163
2,65,0,0
2,65,89,0
2,65,0,60
2,70,89,0
2,70,0,60
2,65,89,0
2,65,0,60
2,73,89,0
2,73,0,30
2,72,89,0
2,72,0,30
2,70,89,0
2,70,0,60
2,65,89,0
2,65,0,6
2,82,88,230
2,82,0,115
2,84,88,1
2,84,0,101
2,86,88,2
2,86,0,19
2,77,88,2
2,77,0,1
2,74,88,3
2,74,0,49
2,77,88,0
2,77,0,41
2,74,87,2
2,74,0,49
2,70,87,0
2,70,0,55
2,72,87,2
2,72,0,34
2,70,87,5
2,70,0,55
2,72,87,2
2,72,0,37
2,70,87,5
2,70,0,55
2,75,87,5
2,75,0,55
2,74,87,2
2,74,0,43
2,77,87,5
2,77,0,55
2,72,87,2
2,72,0,37
2,70,87,5
2,70,0,55
2,75,87,5
2,75,0,55
2,74,87,2
2,74,0,43
2,70,87,5
2,70,0,240
2,74,86,0
2,74,0,55
2,77,86,5
2,77,0,55
2,74,86,5
2,74,0,30
2,72,86,0
2,72,0,30
2,70,86,0
2,70,0,295
2,74,86,5
2,74,0,55
2,77,86,5
2,77,0,55
2,74,86,5
2,74,0,30
2,72,86,0
2,72,0,30
2,70,86,0
2,70,0,175
2,74,103,2
2,74,0,103
2,63,102,2
2,68,102,0
2,72,102,0
2,72,0,1
2,68,0,0
2,63,0,0
2,70,102,2
2,65,102,0
2,65,0,101
2,70,0,0
2,65,102,5
2,65,0,60
2,65,102,0
2,65,0,60
2,70,102,0
2,70,0,60
2,65,102,0
2,65,0,60
2,73,102,0
2,73,0,30
2,72,102,0
2,72,0,30
2,70,102,0
2,70,0,54
2,63,102,5
2,63,0,1
2,82,100,175
2,82,0,60
2,82,100,0
2,82,0,115
2,84,100,1
2,84,0,96
2,86,100,2
2,86,0,18
2,77,100,2
2,77,0,1
2,74,100,90
2,74,0,46
2,77,100,0
2,77,0,41
2,74,100,1
2,74,0,42
2,70,100,0
2,70,0,60
2,65,100,0
2,65,0,60
2,70,99,0
2,70,0,60
2,70,99,0
2,70,0,30
2,70,99,0
2,70,0,150
2,82,99,0
2,82,0,115
2,84,99,2
2,84,0,91
2,86,99,2
2,86,0,40
2,79,99,0
2,79,0,2
2,74,99,0
2,74,0,45
2,77,99,0
2,77,0,44
2,74,99,5
2,74,0,43
2,70,98,0
2,70,0,180
2,82,98,0
2,82,0,115
2,84,98,1
2,84,0,88
2,86,98,2
2,86,0,42
2,79,98,0
2,79,0,176
2,77,98,4
2,77,0,46
2,72,98,5
2,72,0,40
2,70,98,5
2,70,0,37
3,43,100,0
3,50,100,0
3,55,100,0
3,55,0,48
3,50,0,0
3,43,0,0
3,48,100,672
3,55,100,0
3,60,100,0
3,60,0,96
3,55,0,0
3,48,0,0
3,48,100,24
3,55,100,0
3,60,100,0
3,60,0,96
3,55,0,0
3,48,0,0
3,43,100,24
3,50,100,0
3,55,100,0
3,55,0,48
3,50,0,0
3,43,0,0
3,46,100,432
3,53,100,0
3,58,100,0
3,58,0,96
3,53,0,0
3,46,0,0
3,45,100,144
3,52,100,0
3,57,100,0
3,57,0,96
3,52,0,0
3,45,0,0
3,43,100,144
3,50,100,0
3,55,100,0
3,55,0,48
3,50,0,0
3,43,0,0
3,48,100,672
3,55,100,0
3,60,100,0
3,60,0,96
3,55,0,0
3,48,0,0
3,48,100,24
3,55,100,0
3,60,100,0
3,60,0,96
3,55,0,0
3,48,0,0
3,43,100,24
3,50,100,0
3,55,100,0
3,55,0,48
3,50,0,0
3,43,0,0
3,43,100,912
3,50,100,0
3,55,100,0
3,55,0,48
3,50,0,0
3,43,0,0
3,43,100,192
3,50,100,0
3,55,100,0
3,55,0,48
3,50,0,0
3,43,0,0
3,43,100,192
3,50,100,0
3,55,100,0
3,55,0,48
3,50,0,0
3,43,0,0
3,60,100,192
3,48,100,0
3,55,100,0
3,55,0,96
3,48,0,0
3,60,0,0
3,60,100,24
3,55,100,0
3,48,100,0
3,48,0,96
3,55,0,0
3,60,0,0
3,43,100,24
3,50,100,0
3,55,100,0
3,55,0,48
3,50,0,0
3,43,0,0
3,43,100,192
3,50,100,0
3,55,100,0
3,55,0,48
3,50,0,0
3,43,0,0
3,46,100,192
3,53,100,0
3,58,100,0
3,58,0,192
3,53,0,0
3,46,0,0
3,45,100,48
3,52,100,0
3,57,100,0
3,57,0,192
3,52,0,0
3,45,0,0
3,43,100,48
3,50,100,0
3,55,100,0
3,55,0,51
3,50,0,0
3,43,0,0
3,43,100,189
3,50,100,0
3,55,100,0
3,55,0,51
3,50,0,0
3,43,0,0
3,43,100,189
3,50,100,0
3,55,100,0
3,55,0,51
3,50,0,0
3,43,0,0
3,48,100,189
3,60,100,0
3,55,100,0
3,55,0,102
3,60,0,0
3,48,0,0
3,48,100,18
3,55,100,0
3,60,100,0
3,60,0,102
3,55,0,0
3,48,0,0
3,43,100,18
3,50,100,0
3,55,100,0
3,55,0,51
3,50,0,0
3,43,0,0
3,48,100,189
3,60,100,0
3,55,100,0
3,55,0,102
3,60,0,0
3,48,0,0
3,48,100,18
3,55,100,0
3,60,100,0
3,60,0,102
3,55,0,0
3,48,0,0
3,43,100,18
3,50,100,0
3,55,100,0
3,55,0,408
3,50,0,0
3,43,0,0
3,43,100,72
3,50,100,0
3,55,100,0
3,55,0,51
3,50,0,0
3,43,0,0
3,43,100,189
3,50,100,0
3,55,100,0
3,55,0,51
3,50,0,0
3,43,0,0
3,43,100,189
3,50,100,0
3,55,100,0
3,55,0,51
3,50,0,0
3,43,0,0
3,48,100,189
3,60,100,0
3,55,100,0
3,55,0,102
3,60,0,0
3,48,0,0
3,48,100,18
3,55,100,0
3,60,100,0
3,60,0,102
3,55,0,0
3,48,0,0
3,43,100,18
3,50,100,0
3,55,100,0
3,55,0,51
3,50,0,0
3,43,0,0
3,43,100,189
3,50,100,0
3,55,100,0
3,55,0,51
3,50,0,0
3,43,0,0
3,46,90,189
3,53,90,60
3,53,0,51
3,58,90,9
3,58,0,51
3,53,90,9
3,46,0,24
3,53,0,27
3,45,90,9
3,52,90,60
3,52,0,51
3,57,90,9
3,57,0,51
3,52,90,9
3,45,0,24
3,52,0,27
3,43,100,9
3,50,100,0
3,55,100,0
3,55,0,51
3,50,0,0
3,43,0,0
3,43,100,189
3,50,100,0
3,55,100,0
3,55,0,51
3,50,0,0
3,43,0,0
3,43,100,189
3,50,100,0
3,55,100,0
3,55,0,51
3,50,0,0
3,43,0,0
3,48,100,189
3,60,100,0
3,55,100,0
3,55,0,102
3,60,0,0
3,48,0,0
3,48,100,18
3,55,100,0
3,60,100,0
3,60,0,102
3,55,0,0
3,48,0,0
3,43,100,18
3,50,100,0
3,55,100,0
3,55,0,51
3,50,0,0
3,43,0,0
3,48,100,189
3,60,100,0
3,55,100,0
3,55,0,102
3,60,0,0
3,48,0,0
3,48,100,18
3,55,100,0
3,60,100,0
3,60,0,102
3,55,0,0
3,48,0,0
3,43,90,18
3,50,90,0
3,55,90,0
3,55,0,102
3,50,0,0
3,43,0,0
3,53,90,18
3,57,90,0
3,57,0,51
3,53,0,0
3,53,90,9
3,57,90,0
3,57,0,51
3,53,0,0
3,58,90,9
3,55,90,0
3,55,0,51
3,58,0,0
3,55,90,9
3,58,90,0
3,58,0,51
3,55,0,0
3,60,90,9
3,60,0,47
3,56,90,2
3,56,0,2
3,46,90,2
3,53,90,60
3,53,0,51
3,58,90,9
3,58,0,51
3,53,90,9
3,53,0,51
3,62,90,9
3,46,0,66
3,45,90,54
3,62,0,84
3,45,0,18
3,43,90,18
3,50,90,60
3,50,0,51
3,55,90,9
3,55,0,51
3,50,90,9
