track,note,velocity,time
0,43,69,221
0,43,69,192
0,69,117,843
0,70,113,17
0,70,120,17
0,69,112,3
0,69,104,16
0,43,69,0
0,67,113,8
0,67,105,15
0,65,105,9
0,67,97,1
0,43,69,0
0,64,104,132
0,62,105,3
0,65,89,2
0,67,109,95
0,65,112,4
0,70,113,2
0,69,85,4
0,43,36,0
0,43,36,0
0,67,102,666
0,43,72,0
0,67,105,160
0,43,72,0
0,69,105,11
0,69,112,18
0,67,84,12
0,67,85,16
0,65,113,7
0,67,108,1
0,65,93,3
0,62,96,124
0,65,113,9
0,58,100,10
0,62,113,9
0,55,104,12
0,58,104,11
0,65,108,7
0,43,48,0
0,63,84,23
0,43,48,0
0,60,89,348
0,65,112,7
0,64,88,1
0,62,97,188
0,64,113,18
0,43,57,0
0,65,112,10
0,67,92,6
0,43,57,0
0,69,96,225
0,67,101,1
0,65,69,268
0,43,57,0
0,43,57,0
0,65,124,156
0,34,101,0
0,60,85,0
0,62,108,0
0,65,108,0
0,65,124,19
0,67,125,7
0,72,124,10
0,35,90,0
0,59,91,0
0,69,112,9
0,36,101,0
0,60,113,0
0,69,97,0
0,67,104,27
0,40,53,65
0,65,116,111
0,40,53,77
0,37,70,0
0,64,85,0
0,70,116,2
0,69,82,6
0,38,61,0
0,65,75,0
0,69,108,139
0,70,120,10
0,69,117,9
0,69,105,24
0,67,113,7
0,36,66,7
0,64,67,0
0,65,120,10
0,62,112,1
0,40,81,0
0,67,112,17
0,35,61,10
0,62,74,0
0,67,65,0
0,40,81,0
0,65,89,11
0,62,96,308
0,34,59,0
0,60,58,0
0,65,54,0
0,67,96,2
0,65,81,4
0,36,59,0
0,58,53,0
0,40,56,0
0,40,56,0
0,41,125,76
0,53,125,0
0,57,124,0
0,60,124,0
0,48,91,3
0,48,91,192
0,37,124,20
0,53,121,0
0,56,125,0
0,60,125,0
0,61,125,0
0,41,124,23
0,53,125,0
0,57,125,0
0,60,125,0
0,64,124,0
0,94,113,8
0,38,125,191
0,96,125,47
0,47,125,47
0,45,117,17
0,55,125,0
0,61,124,0
0,65,125,0
0,47,125,8
0,45,113,95
0,45,121,46
0,45,117,15
0,55,124,0
0,61,124,0
0,65,125,0
0,45,124,8
0,43,125,95
0,43,125,4
0,50,125,39
0,57,124,0
0,60,125,0
0,65,124,0
0,38,125,0
0,62,125,0
0,35,125,0
0,57,75,0
0,50,117,16
0,65,124,0
0,42,65,0
0,64,117,34
0,65,124,0
0,38,125,0
0,42,113,0
0,38,121,11
0,60,120,0
0,62,124,0
0,35,125,0
0,42,44,0
0,38,124,9
0,65,125,0
0,35,124,0
0,42,108,0
0,42,40,95
0,57,125,19
0,60,124,0
0,65,125,0
0,38,124,8
0,42,113,0
0,31,108,75
0,42,53,0
0,32,96,10
0,45,124,5
0,55,124,0
0,60,124,0
0,64,124,0
0,33,121,8
0,45,124,0
0,65,124,0
0,35,124,0
0,42,81,0
0,69,121,16
0,42,61,0
0,67,108,10
0,69,124,0
0,38,124,0
0,42,112,0
0,33,121,7
0,60,121,0
0,65,124,0
0,35,124,0
0,42,65,0
0,33,125,2
0,69,124,0
0,35,125,0
0,42,65,0
0,42,49,95
0,38,124,42
0,42,112,0
0,42,45,17
0,46,125,37
0,58,124,0
0,62,124,0
0,65,125,0
0,33,125,8
0,58,117,0
0,62,121,0
0,65,121,0
0,69,124,0
0,35,125,0
0,42,105,0
0,36,120,8
0,72,124,0
0,35,125,0
0,42,40,0
0,41,117,2
0,57,124,0
0,60,124,0
0,65,124,0
0,29,121,6
0,57,112,0
0,60,125,0
0,65,121,0
0,65,124,0
0,38,125,0
0,42,113,0
0,33,121,11
0,69,124,0
0,42,41,0
0,43,121,2
0,58,121,0
0,60,124,0
0,65,124,0
0,36,121,7
0,58,121,0
0,60,120,0
0,65,117,0
0,60,124,0
0,35,125,0
0,42,108,0
0,38,112,0
0,62,125,0
0,35,124,0
0,42,56,0
0,36,109,0
0,53,124,0
0,58,124,0
0,60,124,0
0,43,121,2
0,53,109,0
0,58,116,0
0,60,121,0
0,67,124,0
0,38,125,0
0,57,75,0
0,41,124,4
0,57,124,0
0,60,124,0
0,65,124,0
0,41,113,8
0,53,93,0
0,65,124,0
0,35,125,0
0,57,74,0
0,57,104,3
0,60,108,9
0,42,65,83
0,38,125,95
0,46,113,0
0,35,125,11
0,44,77,0
0,41,112,95
0,38,125,0
0,38,124,47
0,47,100,8
0,47,92,27
0,45,118,39
0,61,115,0
0,64,117,0
0,70,109,0
0,33,125,8
0,45,116,0
0,43,80,40
0,43,112,40
0,50,122,2
0,60,104,0
0,65,112,0
0,69,99,0
0,38,125,8
0,62,124,0
0,35,125,0
0,57,74,0
0,50,117,17
0,65,125,0
0,42,53,0
0,64,117,34
0,65,125,0
0,38,125,0
0,42,112,0
0,38,124,12
0,60,120,0
0,62,124,0
0,35,124,0
0,42,25,0
0,38,124,10
0,65,124,0
0,35,125,0
0,42,84,0
0,42,15,95
0,38,125,30
0,42,113,0
0,31,113,61
0,42,44,0
0,32,93,5
0,45,116,1
0,60,118,0
0,64,113,0
0,67,115,0
0,33,124,8
0,45,125,0
0,65,125,0
0,35,125,0
0,42,89,0
0,69,125,5
0,42,8,0
0,67,108,10
0,69,125,0
0,38,125,0
0,42,108,0
0,33,121,9
0,60,121,0
0,65,124,0
0,35,124,0
0,42,1,0
0,33,124,11
0,69,124,0
0,35,125,0
0,42,88,0
0,42,15,95
0,38,124,33
0,42,112,0
0,42,44,95
0,46,120,39
0,58,124,0
0,62,124,0
0,65,125,0
0,34,125,8
0,58,116,0
0,62,121,0
0,65,120,0
0,69,124,0
0,35,125,0
0,42,105,0
0,72,124,10
0,35,124,0
0,42,24,0
0,45,120,3
0,57,125,0
0,60,124,0
0,65,124,0
0,33,124,3
0,57,112,0
0,60,124,0
0,65,120,0
0,65,124,0
0,38,125,0
0,42,108,0
0,69,116,11
0,42,29,0
0,43,124,1
0,58,124,0
0,60,124,0
0,65,124,0
0,31,125,2
0,58,121,0
0,60,120,0
0,65,116,0
0,60,124,0
0,35,124,0
0,42,93,0
0,62,124,13
0,35,125,0
0,42,24,0
0,36,112,6
0,53,124,0
0,58,125,0
0,60,124,0
0,36,120,3
0,53,109,0
0,58,117,0
0,60,120,0
0,67,124,0
0,38,125,0
0,42,112,0
0,42,80,8
0,35,125,6
0,46,117,0
0,41,124,50
0,57,124,0
0,60,125,0
0,65,125,0
0,29,124,8
0,57,124,0
0,60,124,0
0,65,125,0
0,65,124,0
0,38,124,0
0,57,74,0
0,47,64,136
0,48,85,10
0,48,113,19
0,45,116,1
0,55,116,0
0,58,117,0
0,61,67,0
0,64,113,0
0,45,108,5
0,33,124,1
0,45,121,0
0,44,97,0
0,45,73,86
0,36,112,0
0,55,124,0
0,47,113,1
0,40,109,94
0,58,96,0
0,43,112,0
0,44,88,0
0,43,112,14
0,64,93,0
0,43,105,0
0,43,105,33
0,50,124,2
0,57,124,0
0,60,124,0
0,65,124,0
0,38,124,4
0,50,116,0
0,62,125,0
0,35,124,0
0,57,75,0
0,57,116,16
0,65,125,0
0,42,65,0
0,64,116,34
0,65,124,0
0,38,125,0
0,42,113,0
0,38,121,11
0,60,120,0
0,62,125,0
0,35,125,0
0,42,44,0
0,38,125,9
0,65,124,0
0,35,124,0
0,42,108,0
0,42,41,95
0,57,124,19
0,60,124,0
0,65,124,0
0,38,125,8
0,42,112,0
0,31,108,75
0,42,52,0
0,32,96,10
0,45,124,5
0,55,124,0
0,60,124,0
0,64,125,0
0,33,120,8
0,45,124,0
0,65,124,0
0,35,125,0
0,42,80,0
0,69,121,16
0,42,60,0
0,67,108,10
0,69,125,0
0,38,124,0
0,42,112,0
0,33,121,7
0,60,120,0
0,65,125,0
0,35,124,0
0,42,64,0
0,33,125,2
0,69,125,0
0,35,125,0
0,42,64,0
0,42,48,95
0,38,124,42
0,42,113,0
0,42,45,17
0,46,125,37
0,58,124,0
0,62,125,0
0,65,124,0
0,33,124,8
0,58,116,0
0,62,121,0
0,65,121,0
0,69,125,0
0,35,124,0
0,42,105,0
0,36,120,8
0,72,125,0
0,35,124,0
0,42,40,0
0,41,116,2
0,57,125,0
0,60,125,0
0,65,125,0
0,29,121,6
0,57,113,0
0,60,124,0
0,65,120,0
0,65,124,0
0,38,125,0
0,42,112,0
0,33,120,11
0,69,125,0
0,42,40,0
0,43,121,2
0,58,121,0
0,60,125,0
0,65,124,0
0,36,120,7
0,58,120,0
0,60,121,0
0,65,116,0
0,60,124,0
0,35,124,0
0,42,109,0
0,38,112,0
0,62,125,0
0,35,124,0
0,42,56,0
0,36,109,0
0,53,124,0
0,58,125,0
0,60,125,0
0,43,120,2
0,53,108,0
0,58,117,0
0,60,121,0
0,67,125,0
0,38,125,0
0,57,75,0
0,41,124,4
0,57,124,0
0,60,125,0
0,65,125,0
0,41,112,8
0,53,92,0
0,65,124,0
0,35,125,0
0,57,75,0
0,57,104,3
0,60,108,9
0,42,64,83
0,38,124,95
0,46,112,0
0,35,124,11
0,44,76,0
0,41,112,95
0,38,125,0
0,38,124,47
0,47,101,8
0,47,93,27
0,45,118,39
0,61,115,0
0,64,116,0
0,70,108,0
0,33,124,8
0,45,117,0
0,43,81,40
0,43,113,40
0,50,123,2
0,60,105,0
0,65,113,0
0,69,98,0
0,38,124,8
0,62,124,0
0,35,124,0
0,57,75,0
0,50,117,17
0,65,125,0
0,42,53,0
0,64,116,34
0,65,125,0
0,38,125,0
0,42,113,0
0,38,125,12
0,60,121,0
0,62,124,0
0,35,125,0
0,42,24,0
0,38,125,10
0,65,125,0
0,35,125,0
0,42,84,0
0,42,15,95
0,38,124,30
0,42,112,0
0,31,113,61
0,42,45,0
0,32,92,5
0,45,116,1
0,60,119,0
0,64,113,0
0,67,115,0
0,33,124,8
0,45,124,0
0,65,124,0
0,35,124,0
0,42,88,0
0,69,124,5
0,42,8,0
0,67,108,10
0,69,125,0
0,38,125,0
0,42,109,0
0,33,120,9
0,60,120,0
0,65,125,0
0,35,124,0
0,42,1,0
0,33,125,11
0,69,125,0
0,35,124,0
0,42,88,0
0,42,15,95
0,38,124,33
0,42,112,0
0,42,44,95
0,46,121,39
0,58,124,0
0,62,124,0
0,65,125,0
0,34,124,8
0,58,116,0
0,62,120,0
0,65,120,0
0,69,124,0
0,35,125,0
0,42,104,0
0,72,124,10
0,35,125,0
0,42,24,0
0,45,121,3
0,57,125,0
0,60,124,0
0,65,124,0
0,33,124,3
0,57,112,0
0,60,124,0
0,65,121,0
0,65,125,0
0,38,124,0
0,44,108,0
0,69,117,11
0,44,29,0
0,43,125,1
0,58,124,0
0,60,125,0
0,65,125,0
0,70,95,0
0,31,125,2
0,58,120,0
0,60,120,0
0,65,116,0
0,60,125,0
0,35,124,0
0,44,63,0
0,62,125,13
0,35,124,0
0,44,71,0
0,36,113,6
0,53,125,0
0,58,124,0
0,60,125,0
0,72,96,0
0,36,121,3
0,53,109,0
0,58,117,0
0,60,120,0
0,67,124,0
0,38,124,0
0,44,83,0
0,44,88,8
0,35,125,6
0,46,116,0
0,38,125,46
0,50,125,0
0,57,125,0
0,60,124,0
0,65,125,0
0,69,125,0
0,74,124,0
0,38,124,8
0,57,124,0
0,65,125,0
0,69,125,0
0,74,125,0
0,65,124,0
0,38,124,0
0,57,74,0
0,47,73,85
0,48,116,6
0,47,88,15
0,48,112,4
0,45,89,88
0,47,109,5
0,44,97,1
0,45,73,85
0,47,109,6
0,45,120,91
0,44,85,6
0,43,108,90
0,43,101,47
0,39,124,1
0,53,124,0
0,57,124,0
0,60,125,0
0,65,124,0
0,69,124,0
0,39,124,1
0,35,124,0
0,57,75,0
0,38,125,95
0,44,93,95
0,47,65,40
0,48,84,10
0,43,77,2
0,51,121,0
0,55,121,0
0,62,120,0
0,67,125,0
0,70,116,0
0,44,82,7
0,45,109,1
0,45,73,88
0,47,112,9
0,43,113,90
0,44,79,0
0,43,104,95
0,43,105,47
0,29,120,1
0,41,120,0
0,48,92,0
0,53,120,0
0,57,124,0
0,60,125,0
0,65,94,0
0,69,95,0
0,29,124,0
0,62,125,0
0,60,65,0
0,72,35,0
0,35,124,0
0,57,75,0
0,29,71,0
0,53,124,95
0,42,88,0
0,65,124,70
0,65,125,0
0,38,124,0
0,49,75,0
0,29,125,63
0,60,124,0
0,46,52,0
0,50,87,1
0,36,124,1
0,62,64,0
0,74,34,0
0,35,124,0
0,42,120,0
0,35,124,95
0,42,88,0
0,67,125,95
0,38,124,0
0,42,125,0
0,42,52,95
0,48,82,1
0,29,125,1
0,53,124,0
0,65,124,0
0,60,64,0
0,72,35,0
0,35,124,0
0,42,124,0
0,42,88,94
0,65,124,22
0,69,120,0
0,38,125,0
0,42,125,0
0,29,120,34
0,60,124,0
0,42,89,0
0,50,79,1
0,36,120,1
0,65,125,0
0,62,65,0
0,74,35,0
0,35,124,0
0,42,124,0
0,35,124,95
0,42,76,0
0,72,124,84
0,38,125,0
0,42,125,0
0,42,65,95
0,48,99,1
0,29,124,1
0,53,124,0
0,69,125,0
0,60,65,0
0,72,34,0
0,35,124,0
0,42,125,0
0,67,125,10
0,42,76,0
0,65,124,95
0,38,124,0
0,42,124,0
0,65,125,16
0,29,116,48
0,60,124,0
0,42,80,0
0,36,124,4
0,35,125,0
0,42,124,0
0,35,125,95
0,42,88,0
0,34,124,0
0,46,124,0
0,57,125,0
0,62,124,0
0,65,125,0
0,74,125,0
0,34,124,1
0,58,124,0
0,62,65,0
0,74,35,0
0,38,124,0
0,49,75,0
0,34,71,0
0,42,108,95
0,65,125,95
0,35,125,0
0,42,124,0
0,48,120,9
0,42,80,7
0,72,125,3
0,38,124,42
0,42,124,0
0,46,124,11
0,70,124,37
0,42,88,2
0,41,125,90
0,35,124,4
0,42,121,0
0,69,117,30
0,35,124,21
0,42,73,0
0,34,124,6
0,38,125,2
0,44,73,0
0,67,120,13
0,46,105,0
0,36,120,1
0,62,125,2
0,38,108,1
0,50,108,0
0,60,109,0
0,38,124,1
0,50,125,0
0,60,55,0
0,72,25,0
0,35,124,0
0,57,75,0
0,38,60,0
0,42,68,95
0,64,120,95
0,38,125,0
0,42,125,0
0,38,125,4
0,60,125,0
0,42,88,0
0,38,125,58
0,35,125,0
0,42,112,0
0,35,124,95
0,44,60,0
0,38,124,95
0,44,125,0
0,33,104,13
0,38,120,1
0,46,125,0
0,48,84,0
0,58,92,14
0,36,126,1
0,48,126,0
0,53,113,0
0,55,109,0
0,58,112,0
0,62,116,0
0,36,125,0
0,69,121,0
0,62,64,0
0,74,35,0
0,35,124,0
0,49,74,0
0,36,120,0
0,65,121,5
0,42,89,90
0,38,124,95
0,42,113,0
0,36,125,17
0,67,125,0
0,42,113,0
0,36,125,33
0,35,125,0
0,42,117,0
0,62,120,18
0,35,125,0
0,42,93,0
0,67,125,17
0,38,125,0
0,42,125,0
0,42,92,95
0,42,125,0
0,29,127,3
0,41,126,0
0,53,121,0
0,57,120,0
0,60,120,0
0,29,124,1
0,53,125,0
0,65,125,0
0,60,65,0
0,72,34,0
0,35,124,0
0,57,74,0
0,29,126,0
0,42,92,95
0,65,125,95
0,38,124,0
0,42,125,0
0,29,124,46
0,60,117,0
0,42,121,0
0,29,124,31
0,35,124,0
0,42,124,0
0,35,124,95
0,42,124,0
0,38,124,95
0,42,125,0
0,42,125,40
0,35,125,4
0,38,88,2
0,36,126,0
0,48,126,0
0,53,124,0
0,55,124,0
0,58,125,0
0,62,125,0
0,36,124,1
0,62,65,0
0,74,35,0
0,38,124,0
0,36,127,0
0,47,125,91
0,58,125,3
0,60,125,0
0,65,124,0
0,48,125,7
0,35,124,88
0,47,125,46
0,48,125,3
0,36,108,26
0,55,121,0
0,36,124,16
0,67,124,0
0,35,125,0
0,45,125,2
0,47,124,2
0,62,125,89
0,45,124,1
0,47,125,5
0,43,125,86
0,60,121,1
0,35,124,0
0,43,124,41
0,43,125,46
0,29,120,2
