track,note,velocity,time
1,43,113,1248
1,43,113,148
1,38,113,12
1,31,119,76
1,31,124,116
1,38,113,12
1,31,113,16
1,36,108,48
1,36,103,172
1,31,124,20
1,36,108,128
1,36,108,136
1,31,113,12
1,36,113,4
1,33,119,20
1,33,113,152
1,40,97,12
1,38,113,148
1,38,113,148
1,33,113,192
1,38,113,48
1,31,113,56
1,31,119,120
1,38,113,20
1,43,113,112
1,43,113,136
1,38,103,20
1,38,113,100
1,31,113,148
1,31,113,120
1,38,108,192
1,43,103,32
1,43,119,100
1,38,92,4
1,43,97,20
1,38,82,192
1,36,82,180
1,36,113,172
1,31,108,192
1,31,103,100
1,36,108,4
1,36,108,136
1,31,113,192
1,36,108,8
1,35,108,8
1,33,113,8
1,33,119,168
1,28,103,192
1,33,103,24
1,33,113,96
1,33,108,160
1,28,108,12
1,33,108,40
1,38,113,120
1,38,103,184
1,33,108,0
1,33,113,120
1,38,113,0
1,38,119,124
1,33,113,192
1,38,113,56
1,31,108,68
1,31,108,136
1,38,108,4
1,38,108,124
1,43,108,64
1,43,103,112
1,38,103,32
1,31,113,16
1,36,92,32
1,36,97,172
1,31,113,8
1,31,108,108
1,36,108,8
1,31,108,28
1,36,108,8
1,35,113,36
1,33,113,96
1,33,108,156
1,28,103,12
1,33,108,48
1,38,97,108
1,38,108,168
1,33,87,0
1,38,103,384
1,31,113,36
1,31,103,128
1,43,92,192
1,31,108,8
1,31,113,4
1,31,103,128
1,43,92,192
1,31,108,8
1,31,113,4
1,31,113,120
1,38,108,192
1,43,103,32
1,43,119,100
1,38,92,4
1,43,97,20
1,38,82,192
1,36,82,180
1,36,113,172
1,31,108,192
1,31,103,100
1,36,108,4
1,36,108,136
1,31,113,192
1,36,108,8
1,35,108,8
1,33,113,8
1,33,119,168
1,28,103,192
1,33,103,24
1,33,113,96
1,33,108,160
1,28,108,12
1,33,108,40
1,38,113,120
1,38,103,184
1,33,108,0
1,33,113,120
1,38,113,0
1,38,119,124
1,33,113,192
1,38,113,56
1,31,108,68
1,31,108,136
1,38,108,4
1,38,108,124
1,43,108,64
1,43,103,112
1,38,103,32
1,31,113,16
1,36,92,32
1,36,97,172
1,31,113,8
1,31,108,108
1,36,108,8
1,31,108,28
1,36,108,8
1,35,113,36
1,33,113,96
1,33,108,156
1,28,103,12
1,33,108,48
1,38,97,108
1,38,108,168
1,33,87,0
1,38,103,384
1,31,113,36
1,31,103,128
1,43,92,192
1,31,108,8
1,36,103,4
1,36,124,184
1,38,113,12
1,31,113,252
1,31,113,120
1,38,108,192
1,43,103,32
1,43,119,100
1,38,92,4
1,43,97,20
1,38,82,192
1,36,82,180
1,36,113,172
1,31,108,192
1,31,103,100
1,36,108,4
1,36,108,136
1,31,113,192
1,36,108,8
1,35,108,8
1,33,113,8
1,33,119,168
1,28,103,192
1,33,103,24
1,33,113,96
1,33,108,160
1,28,108,12
1,33,108,40
1,38,113,120
1,38,103,184
1,33,108,0
1,33,113,120
1,38,113,0
1,38,119,124
1,33,113,192
1,38,113,56
1,31,108,68
1,31,108,136
1,38,108,4
1,38,108,124
1,43,108,64
1,43,103,112
1,38,103,32
1,31,113,16
1,36,92,32
1,36,97,172
1,31,113,8
1,31,108,108
1,36,108,8
1,31,108,28
1,36,108,8
1,35,113,36
1,33,113,96
1,33,108,156
1,28,103,12
1,33,108,48
1,38,97,108
1,38,108,168
1,33,87,0
1,38,103,384
1,31,113,36
1,31,103,128
1,43,92,192
1,31,108,8
1,31,127,4
1,31,124,296
1,31,113,80
1,31,124,120
1,31,119,144
1,31,113,132
1,31,119,116
1,31,127,192
1,31,108,164
1,38,119,4
1,38,124,168
1,43,113,68
1,31,113,48
1,43,119,192
1,42,113,8
1,40,108,160
1,40,113,180
1,40,113,112
1,40,113,132
1,35,108,112
1,35,113,180
1,35,119,104
1,35,108,48
1,33,124,112
1,33,119,144
1,40,108,8
1,45,113,60
1,38,113,56
1,38,113,180
1,38,124,108
1,33,119,8
1,31,113,128
1,31,113,176
1,43,113,8
1,38,87,0
1,31,113,24
1,31,119,168
1,31,124,104
1,33,108,0
1,35,87,192
1,36,108,24
1,36,108,220
1,36,113,116
1,36,103,80
1,35,108,4
1,33,124,20
1,33,124,160
1,40,113,0
1,45,113,56
1,33,124,48
1,33,108,152
1,33,113,96
1,45,108,0
1,38,119,48
1,38,119,168
1,38,127,124
1,38,124,60
1,43,113,208
1,43,113,148
1,38,113,12
1,31,119,76
1,31,124,116
1,38,113,12
1,31,113,16
1,36,108,48
1,36,103,172
1,31,124,20
1,36,108,128
1,36,108,136
1,31,113,12
1,36,113,4
1,33,119,20
1,33,113,152
1,40,97,12
1,38,113,148
1,38,113,148
1,33,113,192
1,38,113,48
1,31,113,56
1,31,119,120
1,38,113,20
1,43,113,112
1,43,113,136
1,38,103,20
1,38,113,100
1,31,113,148
1,31,113,120
1,38,108,192
1,43,103,32
1,43,119,100
1,38,92,4
1,43,97,20
1,38,82,192
1,36,82,180
1,36,113,172
1,31,108,192
1,31,103,100
1,36,108,4
1,36,108,136
1,31,113,192
1,36,108,8
1,35,108,8
1,33,113,8
1,33,119,168
1,28,103,192
1,33,103,24
1,33,113,96
1,33,108,160
1,28,108,12
1,33,108,40
1,38,113,120
1,38,103,184
1,33,108,0
1,33,113,120
1,38,113,0
1,38,119,124
1,33,113,192
1,38,113,56
1,31,108,68
1,31,108,136
1,38,108,4
1,38,108,124
1,43,108,64
1,43,103,112
1,38,103,32
1,31,113,16
1,36,92,32
1,36,97,172
1,31,113,8
1,31,108,108
1,36,108,8
1,31,108,28
1,36,108,8
1,35,113,36
1,33,113,96
1,33,108,156
1,28,103,12
1,33,108,48
1,38,97,108
1,38,108,168
1,33,87,0
1,38,103,384
1,31,113,36
1,31,103,128
1,43,92,192
1,31,108,8
1,36,103,4
1,36,124,184
1,38,113,12
1,31,113,252
1,31,113,120
1,38,108,192
1,43,103,32
1,43,119,100
1,38,92,4
1,43,97,20
1,38,82,192
1,36,82,180
1,36,113,172
1,31,108,192
1,31,103,100
1,36,108,4
1,36,108,136
1,31,113,192
1,36,108,8
1,35,108,8
1,33,113,8
1,33,119,168
1,28,103,192
1,33,103,24
1,33,113,96
1,33,108,160
1,28,108,12
1,33,108,40
1,38,113,120
1,38,103,184
1,33,108,0
1,33,113,120
1,38,113,0
1,38,119,124
1,33,113,192
1,38,113,56
1,31,108,68
1,31,108,136
1,38,108,4
1,38,108,124
1,43,108,64
1,43,103,112
1,38,103,32
1,31,113,16
1,36,92,32
1,36,97,172
1,31,113,8
1,31,108,108
1,36,108,8
1,31,108,28
1,36,108,8
1,35,113,36
1,33,113,96
1,33,108,156
1,28,103,12
1,33,108,48
1,38,97,108
1,38,108,168
1,33,87,0
1,38,103,384
1,31,113,36
1,31,103,128
1,43,92,192
1,31,108,8
1,31,127,4
1,31,124,296
1,31,113,80
1,31,124,120
1,31,119,144
1,31,113,132
1,31,119,116
1,31,127,192
1,31,108,164
1,38,119,4
1,38,124,168
1,43,113,68
1,31,113,48
1,43,119,192
1,42,113,8
1,40,108,160
1,40,113,180
1,40,113,112
1,40,113,132
1,35,108,112
1,35,113,180
1,35,119,104
1,35,108,48
1,33,124,112
1,33,119,144
1,40,108,8
1,45,113,60
1,38,113,56
1,38,113,180
1,38,124,108
1,33,119,8
1,31,113,128
1,31,113,176
1,43,113,8
1,38,87,0
1,31,113,24
1,31,119,168
1,31,124,104
1,33,108,0
1,35,87,192
1,36,108,24
1,36,108,220
1,36,113,116
1,36,103,80
1,35,108,4
1,33,124,20
1,33,124,160
1,40,113,0
1,45,113,56
1,33,124,48
1,33,108,152
1,33,113,96
1,45,108,0
1,38,119,48
1,38,119,168
1,38,127,124
1,38,124,60
1,43,113,208
1,43,113,148
1,38,113,12
1,31,119,76
1,31,124,116
1,38,113,12
1,31,113,16
1,36,108,48
1,36,103,172
1,31,124,20
1,36,108,128
1,36,108,136
1,31,113,12
1,36,113,4
1,33,119,20
1,33,113,152
1,40,97,12
1,38,113,148
1,38,113,148
1,33,113,192
1,38,113,48
1,31,113,56
1,31,119,120
1,38,113,20
1,43,113,112
1,43,113,136
1,38,103,20
1,38,113,100
1,31,113,148
1,31,113,120
1,38,108,192
1,43,103,32
1,43,119,100
1,38,92,4
1,43,97,20
1,38,82,192
1,36,82,180
1,36,113,172
1,31,108,192
1,31,103,100
1,36,108,4
1,36,108,136
1,31,113,192
1,36,108,8
1,35,108,8
1,33,113,8
1,33,119,168
1,28,103,192
1,33,103,24
1,33,113,96
1,33,108,160
1,28,108,12
1,33,108,40
1,38,113,120
1,38,103,184
1,33,108,0
1,33,113,120
1,38,113,0
1,38,119,124
1,33,113,192
1,38,113,56
1,31,108,68
1,31,108,136
1,38,108,4
1,38,108,124
1,43,108,64
1,43,103,112
1,38,103,32
1,31,113,16
1,36,92,32
1,36,97,172
1,31,113,8
1,31,108,108
1,36,108,8
1,31,108,28
1,36,108,8
1,35,113,36
1,33,113,96
1,33,108,156
1,28,103,12
1,33,108,48
1,38,97,108
1,38,108,168
1,33,87,0
1,38,103,384
1,31,113,36
1,114,1,0
1,31,103,128
1,43,92,192
1,31,108,8
1,36,103,4
1,36,124,184
1,38,113,12
1,31,113,252
1,31,113,120
1,38,108,192
1,43,103,32
1,43,119,100
1,38,92,4
1,43,97,20
1,38,82,192
1,36,82,180
1,36,113,172
1,31,108,192
1,31,103,100
1,36,108,4
1,36,108,136
1,31,113,192
1,36,108,8
1,35,108,8
1,33,113,8
1,33,119,168
1,28,103,192
1,33,103,24
1,33,113,96
1,33,108,160
1,28,108,12
1,33,108,40
1,38,113,120
1,38,103,184
1,33,108,0
1,33,113,120
1,38,113,0
1,38,119,124
1,33,113,192
1,38,113,56
1,31,108,68
1,31,108,136
1,38,108,4
1,38,108,124
1,43,108,64
1,43,103,112
1,38,103,32
1,31,113,16
1,36,92,32
1,36,97,172
1,31,113,8
1,31,108,108
1,36,108,8
1,31,108,28
1,36,108,8
1,35,113,36
1,33,113,96
1,33,108,156
1,28,103,12
1,33,108,48
1,38,97,108
1,38,108,168
1,33,87,0
1,38,103,384
1,31,113,36
1,31,103,128
1,43,92,192
1,31,108,8
1,36,103,4
1,36,124,184
1,38,113,12
1,31,113,252
1,31,113,120
1,38,108,192
1,43,103,32
1,43,119,100
1,38,92,4
1,43,97,20
1,38,82,192
1,36,82,180
1,36,113,172
1,31,108,192
1,31,103,100
1,36,108,4
1,36,108,136
1,31,113,192
1,36,108,8
1,35,108,8
1,33,113,8
1,33,119,168
1,28,103,192
1,33,103,24
1,33,113,96
1,33,108,160
1,28,108,12
1,33,108,40
1,38,113,120
1,38,103,184
1,33,108,0
1,33,113,120
1,38,113,0
1,38,119,124
1,33,113,192
1,38,113,56
1,31,108,68
1,31,108,136
1,38,108,4
1,38,108,124
1,43,108,64
1,43,103,112
1,38,103,32
1,31,113,16
1,36,92,32
1,36,97,172
1,31,113,8
1,31,108,108
1,36,108,8
1,31,108,28
1,36,108,8
1,35,113,36
1,33,113,96
1,33,108,156
1,28,103,12
1,33,108,48
1,38,97,108
1,38,108,168
1,33,87,0
1,38,103,384
1,31,113,36
1,31,103,128
1,43,92,192
1,31,108,8
1,31,127,4
1,31,124,296
1,31,113,80
1,31,124,120
1,31,119,144
1,31,113,132
1,31,119,116
1,31,127,192
1,31,108,164
1,38,119,4
1,38,124,168
1,43,113,68
1,31,113,48
1,43,119,192
1,42,113,8
1,40,108,160
1,40,113,180
1,40,113,112
1,40,113,132
1,35,108,112
1,35,113,180
1,35,119,104
1,35,108,48
1,33,124,112
1,33,119,144
1,40,108,8
1,45,113,60
1,38,113,56
1,38,113,180
1,38,124,108
1,33,119,8
1,31,113,128
1,31,113,176
1,43,113,8
1,38,87,0
1,31,113,24
1,31,119,168
1,31,124,104
1,33,108,0
1,35,87,192
1,36,108,24
1,36,108,220
1,36,113,116
1,36,103,80
1,35,108,4
1,33,124,20
1,33,124,160
1,40,113,0
1,45,113,56
1,33,124,48
1,33,108,152
1,33,113,96
1,45,108,0
1,38,119,48
1,38,119,168
1,38,127,124
1,38,124,60
1,31,124,208
1,31,127,172
1,38,127,28
1,38,124,168
1,43,119,88
1,43,124,152
1,38,124,20
1,43,127,56
1,33,124,244
1,33,108,152
1,33,113,96
1,45,108,0
1,38,119,48
1,38,119,168
1,38,127,124
1,38,124,60
1,31,124,208
1,31,127,172
1,38,127,28
1,38,124,168
1,43,119,88
1,43,124,152
1,38,124,20
1,43,127,56
1,33,124,244
1,33,108,152
1,33,113,96
1,45,108,0
1,38,119,48
1,38,119,168
1,38,127,124
1,38,124,60
1,31,124,208
1,31,127,172
1,38,127,28
1,38,124,168
1,43,119,88
1,43,124,152
1,38,124,20
1,43,127,56
1,33,124,244
1,33,108,152
1,33,113,96
1,45,108,0
1,38,119,48
1,38,119,168
1,38,127,124
1,38,124,60
1,31,113,208
2,59,69,1192
2,67,86,0
2,62,86,0
2,43,82,0
2,50,86,16
2,59,90,20
2,62,77,164
2,50,86,24
2,67,90,100
2,59,65,8
2,66,77,0
2,62,77,0
2,43,69,0
2,50,65,384
2,59,60,52
2,59,60,116
2,62,86,0
2,66,77,0
2,59,60,112
2,62,65,0
2,66,73,0
2,67,69,288
2,48,77,0
2,60,69,0
2,64,77,0
2,55,62,376
2,60,58,16
2,60,73,108
2,67,90,112
2,62,101,0
2,48,69,296
2,67,86,0
2,62,90,0
2,64,73,164
2,55,73,56
2,60,82,24
2,64,69,428
2,57,69,0
2,60,82,0
2,45,82,0
2,52,82,376
2,57,77,8
2,60,86,76
2,64,82,76
2,50,90,280
2,54,82,12
2,62,82,64
2,57,69,0
2,50,77,8
2,54,56,96
2,57,56,56
2,62,62,32
2,55,58,0
2,59,58,0
2,43,73,0
2,50,73,768
2,55,45,80
2,62,62,112
2,55,53,0
2,59,62,0
2,55,55,60
2,59,55,0
2,62,60,0
2,62,69,68
2,55,56,0
2,59,69,0
2,62,77,48
2,55,62,0
2,59,77,0
2,55,73,184
2,43,86,0
2,59,82,0
2,62,82,0
2,59,77,8
2,62,90,0
2,67,86,0
2,43,77,0
2,67,86,8
2,60,73,0
2,48,73,0
2,64,95,0
2,55,86,384
2,67,99,200
2,62,101,0
2,64,82,48
2,60,101,20
2,64,82,16
2,57,62,0
2,60,77,0
2,45,86,0
2,66,65,8
2,50,69,0
2,57,55,0
2,62,86,0
2,62,86,676
2,66,90,0
2,69,90,0
2,69,86,272
2,66,73,0
2,74,90,0
2,62,82,136
2,66,73,0
2,69,82,0
2,55,65,420
2,43,73,0
2,62,86,0
2,59,73,0
2,50,86,132
2,55,86,32
2,59,77,24
2,43,73,112
2,66,86,336
2,62,86,176
2,59,60,16
2,48,73,52
2,55,62,384
2,60,69,192
2,64,60,192
2,45,73,736
2,64,77,0
2,57,62,0
2,60,82,0
2,50,73,72
2,54,65,192
2,57,69,192
2,62,73,192
2,43,69,40
2,55,62,0
2,59,73,0
2,62,77,0
2,55,62,116
2,62,86,0
2,59,82,0
2,43,69,316
2,55,62,0
2,59,73,0
2,62,77,0
2,55,62,116
2,62,86,0
2,59,82,0
2,55,73,316
2,43,86,0
2,59,82,0
2,62,82,0
2,59,77,8
2,62,90,0
2,67,86,0
2,43,77,0
2,67,86,8
2,60,73,0
2,48,73,0
2,64,95,0
2,55,86,384
2,67,99,200
2,62,101,0
2,64,82,48
2,60,101,20
2,64,82,16
2,57,62,0
2,60,77,0
2,45,86,0
2,66,65,8
2,50,69,0
2,57,55,0
2,62,86,0
2,62,86,676
2,66,90,0
2,69,90,0
2,69,86,272
2,66,73,0
2,74,90,0
2,62,82,136
2,66,73,0
2,69,82,0
2,55,65,420
2,43,73,0
2,62,86,0
2,59,73,0
2,50,86,132
2,55,86,32
2,59,77,24
2,43,73,112
2,66,86,336
2,62,86,176
2,59,60,16
2,48,73,52
2,55,62,384
2,60,69,192
2,64,60,192
2,45,73,736
2,64,77,0
