track,note,velocity,time
0,36,113,1152
0,49,126,0
0,34,112,0
0,34,90,0
0,62,107,0
0,58,94,0
0,53,92,0
0,53,75,0
0,58,61,0
0,62,69,0
0,74,95,0
0,62,92,0
0,51,100,16
0,53,77,0
0,58,67,0
0,62,60,0
0,51,90,256
0,51,101,16
0,53,68,0
0,58,71,0
0,62,60,0
0,53,77,16
0,58,61,0
0,62,67,0
0,36,119,4
0,36,110,16
0,38,119,0
0,51,90,0
0,54,97,0
0,34,124,0
0,34,105,0
0,53,94,0
0,58,94,0
0,62,93,0
0,53,71,0
0,58,76,0
0,62,68,0
0,74,102,0
0,62,100,0
0,51,104,16
0,36,114,0
0,36,93,0
0,58,105,0
0,53,91,0
0,62,90,0
0,53,60,0
0,58,64,0
0,62,74,0
0,75,98,0
0,63,91,0
0,51,89,256
0,51,104,16
0,38,125,0
0,38,100,0
0,53,106,0
0,58,104,0
0,62,99,0
0,53,62,0
0,58,66,0
0,62,76,0
0,77,92,0
0,65,105,0
0,53,76,16
0,58,75,0
0,62,72,0
0,36,126,4
0,36,119,16
0,51,102,0
0,39,117,0
0,39,107,0
0,55,101,0
0,63,92,0
0,55,77,0
0,58,64,0
0,63,59,0
0,70,101,0
0,58,100,0
0,51,89,16
0,55,77,0
0,58,64,0
0,63,63,0
0,51,106,256
0,51,90,16
0,55,65,0
0,58,71,0
0,63,60,0
0,34,124,16
0,55,65,0
0,58,64,0
0,63,61,0
0,36,127,4
0,36,120,8
0,38,116,0
0,51,89,0
0,54,97,0
0,39,116,0
0,39,97,0
0,58,96,0
0,55,99,0
0,63,92,0
0,55,76,0
0,58,60,0
0,63,76,0
0,77,92,0
0,69,102,0
0,79,99,0
0,67,101,0
0,77,95,16
0,69,96,0
0,51,106,16
0,38,123,0
0,38,94,0
0,62,92,0
0,55,78,0
0,58,70,0
0,63,71,0
0,75,91,0
0,67,94,0
0,77,109,0
0,65,100,0
0,38,127,16
0,38,110,16
0,55,78,0
0,58,76,0
0,63,74,0
0,38,118,8
0,51,103,0
0,36,115,0
0,36,104,0
0,60,104,0
0,55,69,0
0,58,68,0
0,63,64,0
0,63,97,0
0,70,97,0
0,75,94,0
0,63,98,0
0,55,65,16
0,58,66,0
0,63,61,0
0,36,127,4
0,36,114,16
0,51,106,0
0,34,127,0
0,34,96,0
0,62,97,0
0,58,109,0
0,53,102,0
0,53,67,0
0,58,68,0
0,62,72,0
0,70,94,0
0,62,109,0
0,74,98,0
0,62,100,0
0,51,89,16
0,53,75,0
0,58,62,0
0,62,59,0
0,51,102,256
0,51,95,16
0,53,74,0
0,58,60,0
0,62,78,0
0,53,65,16
0,36,122,4
0,36,116,8
0,38,113,0
0,51,90,0
0,54,97,0
0,34,127,0
0,34,101,0
0,58,96,0
0,62,95,0
0,53,99,0
0,53,73,0
0,58,76,0
0,62,60,0
0,65,101,0
0,77,105,0
0,65,104,0
0,51,104,16
0,36,121,0
0,53,95,0
0,62,109,0
0,58,107,0
0,53,64,0
0,58,65,0
0,62,62,0
0,63,102,0
0,75,103,0
0,63,96,0
0,51,95,148
0,51,106,8
0,38,116,0
0,38,100,0
0,58,94,0
0,53,76,0
0,58,63,0
0,62,75,0
0,62,107,0
0,74,92,0
0,62,100,0
0,53,73,16
0,36,121,4
0,36,111,16
0,51,97,0
0,41,114,0
0,41,107,0
0,60,98,0
0,57,92,0
0,53,61,0
0,57,77,0
0,60,72,0
0,60,102,0
0,72,102,0
0,60,108,0
0,51,104,16
0,53,71,0
0,57,59,0
0,60,74,0
0,51,102,256
0,51,103,16
0,53,67,0
0,57,77,0
0,60,78,0
0,69,83,0
0,72,70,0
0,77,79,0
0,41,126,16
0,53,75,0
0,36,112,4
0,36,120,16
0,38,114,0
0,51,97,0
0,54,110,0
0,39,127,0
0,39,97,0
0,55,100,0
0,58,108,0
0,51,108,0
0,51,66,0
0,55,59,0
0,58,65,0
0,58,103,0
0,70,96,0
0,58,98,0
0,51,97,16
0,51,71,0
0,55,78,0
0,58,66,0
0,38,125,16
0,51,59,0
0,38,116,16
0,51,102,0
0,51,63,0
0,55,77,0
0,58,76,0
0,67,74,0
0,70,77,0
0,75,72,0
0,62,127,0
0,31,121,16
0,65,116,0
0,36,118,4
0,36,112,0
0,51,97,0
0,34,114,0
0,34,109,0
0,53,96,0
0,58,99,0
0,62,93,0
0,53,67,0
0,58,70,0
0,62,74,0
0,58,90,0
0,70,101,0
0,65,112,0
0,51,102,16
0,53,69,0
0,58,77,0
0,62,63,0
0,51,95,16
0,58,73,0
0,62,77,0
0,62,119,0
0,58,127,16
0,53,75,16
0,36,116,4
0,36,123,16
0,38,127,0
0,51,97,0
0,54,108,0
0,34,123,0
0,34,100,0
0,53,99,0
0,62,109,0
0,58,97,0
0,53,70,0
0,58,66,0
0,62,72,0
0,58,127,0
0,51,89,16
0,36,116,0
0,36,99,0
0,58,77,0
0,62,68,0
0,53,72,16
0,51,102,16
0,38,112,0
0,38,109,0
0,53,75,0
0,58,63,0
0,62,68,0
0,60,113,0
0,62,110,16
0,53,65,16
0,36,114,4
0,36,127,16
0,51,106,0
0,39,117,0
0,39,100,0
0,55,100,0
0,51,104,0
0,58,93,0
0,55,72,0
0,58,60,0
0,63,68,0
0,60,116,0
0,51,90,16
0,55,73,0
0,58,74,0
0,63,70,0
0,58,111,0
0,51,97,16
0,55,61,0
0,58,60,0
0,63,60,0
0,55,73,16
0,36,127,4
0,58,95,96
0,63,105,4
0,36,112,12
0,38,122,0
0,51,105,0
0,54,103,0
0,39,116,0
0,39,109,0
0,67,97,0
0,55,66,0
0,58,60,0
0,63,64,0
0,51,96,12
0,38,125,0
0,38,91,0
0,58,93,0
0,62,97,0
0,65,107,0
0,55,75,0
0,58,60,0
0,63,72,0
0,55,78,16
0,51,95,16
0,36,112,0
0,36,108,0
0,63,102,0
0,58,104,0
0,55,75,0
0,58,59,0
0,63,78,0
0,62,127,0
0,55,61,16
0,65,120,0
0,36,116,4
0,36,127,16
0,51,90,0
0,34,119,0
0,34,101,0
0,53,104,0
0,62,95,0
0,58,107,0
0,53,74,0
0,58,61,0
0,62,65,0
0,65,120,0
0,51,94,16
0,53,73,0
0,58,73,0
0,62,67,0
0,62,114,0
0,51,102,16
0,53,75,0
0,58,77,0
0,62,66,0
0,53,73,16
0,58,116,0
0,36,120,4
0,36,127,16
0,38,117,0
0,51,106,0
0,54,110,0
0,34,123,0
0,34,105,0
0,53,108,0
0,58,95,0
0,62,103,0
0,53,61,0
0,58,64,0
0,62,63,0
0,58,125,0
0,51,98,16
0,36,121,0
0,36,90,0
0,53,59,0
0,58,67,0
0,62,60,0
0,60,110,0
0,53,70,16
0,51,97,16
0,38,110,0
0,38,109,0
0,53,72,0
0,58,71,0
0,62,68,0
0,62,126,16
0,53,74,16
0,36,121,4
0,36,126,16
0,51,106,0
0,39,127,0
0,39,103,0
0,63,101,0
0,55,107,0
0,55,69,0
0,58,59,0
0,63,61,0
0,55,116,0
0,51,94,16
0,55,61,0
0,58,72,0
0,63,66,0
0,51,92,16
0,55,77,0
0,58,73,0
0,63,64,0
0,55,75,16
0,36,120,4
0,58,92,96
0,63,105,4
0,36,110,12
0,38,127,0
0,51,106,0
0,54,97,0
0,39,127,0
0,39,105,0
0,67,98,0
0,58,64,0
0,63,73,0
0,51,91,8
0,38,115,0
0,38,100,0
0,65,99,0
0,58,94,0
0,55,70,0
0,58,65,0
0,63,74,0
0,55,70,16
0,51,101,128
0,36,114,0
0,36,97,0
0,60,96,0
0,63,108,0
0,58,74,0
0,63,75,0
0,62,114,0
0,55,63,16
0,65,115,0
0,36,125,4
0,36,115,16
0,51,106,0
0,34,122,0
0,34,93,0
0,53,97,0
0,58,90,0
0,62,103,0
0,53,64,0
0,58,77,0
0,62,65,0
0,65,102,0
0,70,93,0
0,65,116,0
0,51,89,16
0,53,71,0
0,58,78,0
0,62,78,0
0,58,126,0
0,51,90,16
0,58,61,0
0,62,75,0
0,65,67,0
0,70,66,0
0,74,75,0
0,58,114,16
0,34,127,16
0,53,76,0
0,58,119,0
0,36,124,4
0,36,121,16
0,38,127,0
0,51,98,0
0,54,104,0
0,38,121,0
0,38,102,0
0,54,103,0
0,62,90,0
0,57,101,0
0,60,93,0
0,54,60,0
0,57,59,0
0,62,76,0
0,66,96,0
0,72,104,0
0,66,127,0
0,60,110,16
0,51,92,16
0,54,65,0
0,57,70,0
0,62,71,0
0,58,122,16
0,58,124,16
0,51,89,16
0,54,71,0
0,57,65,0
0,62,76,0
0,66,76,0
0,69,79,0
0,74,77,0
0,58,120,16
0,38,121,16
0,54,66,0
0,36,117,4
0,36,121,16
0,51,97,0
0,43,110,0
0,43,103,0
0,58,107,0
0,55,99,0
0,62,105,0
0,55,64,0
0,58,60,0
0,62,59,0
0,74,103,0
0,67,108,0
0,60,126,0
0,62,123,16
0,60,119,16
0,51,95,16
0,55,68,0
0,58,71,0
0,62,76,0
0,58,127,0
0,51,97,16
0,55,70,0
0,58,67,0
0,62,65,0
0,67,69,0
0,70,79,0
0,74,78,0
0,38,121,16
0,38,106,0
0,55,77,0
0,58,121,0
0,36,113,4
0,36,126,16
0,38,118,0
0,51,106,0
0,54,101,0
0,43,112,0
0,43,96,0
0,55,95,0
0,58,108,0
0,62,106,0
0,58,74,0
0,62,74,0
0,53,127,0
0,62,115,0
0,58,127,0
0,38,119,16
0,51,106,16
0,43,122,0
0,62,91,0
0,55,97,0
0,58,93,0
0,55,69,0
0,58,67,0
0,62,66,0
0,55,113,0
0,63,112,0
0,60,126,0
0,55,63,16
0,51,100,16
0,38,126,0
0,62,98,0
0,55,90,0
0,58,96,0
0,58,72,0
0,62,65,0
0,67,78,0
0,70,68,0
0,74,74,0
0,58,112,0
0,65,110,0
0,62,127,0
0,55,71,16
0,36,111,4
0,36,127,16
0,51,92,0
0,41,124,0
0,41,90,0
0,53,101,0
0,57,108,0
0,60,102,0
0,53,69,0
0,57,76,0
0,60,75,0
0,65,104,0
0,72,99,0
0,57,126,0
0,65,124,0
0,60,110,0
0,53,67,16
0,51,92,128
0,57,70,0
0,60,72,0
0,53,70,16
0,51,92,4
0,38,125,16
0,51,98,0
0,54,98,0
0,60,90,0
0,57,99,0
0,53,109,0
0,57,75,0
0,60,63,0
0,65,69,0
0,69,70,0
0,72,66,0
0,62,118,16
0,41,110,16
0,41,105,0
0,53,68,0
0,60,124,0
0,36,117,4
0,36,118,16
0,51,104,0
0,39,111,0
0,39,90,0
0,57,95,0
0,51,96,0
0,60,105,0
0,53,67,0
0,57,74,0
0,60,74,0
0,62,126,0
0,65,122,16
0,53,74,16
0,51,102,128
0,57,59,0
0,60,65,0
0,53,65,16
0,51,104,4
0,38,111,16
0,51,106,0
0,54,95,0
0,60,103,0
0,51,102,0
0,57,108,0
0,57,63,0
0,60,66,0
0,65,71,0
0,69,67,0
0,72,77,0
0,39,127,16
0,39,100,0
0,53,77,0
0,36,123,4
0,36,118,0
0,51,104,0
0,38,125,0
0,38,104,0
0,53,103,0
0,62,107,0
0,58,93,0
0,53,64,0
0,58,71,0
0,62,71,0
0,74,90,0
0,58,112,0
0,53,66,16
0,51,99,0
0,62,92,0
0,53,107,0
0,58,92,0
0,58,59,0
0,62,72,0
0,53,66,16
0,65,124,0
0,51,95,4
0,38,127,0
0,51,92,0
0,54,98,0
0,62,100,0
0,53,109,0
0,58,107,0
0,58,75,0
0,62,75,0
0,65,81,0
0,70,76,0
0,74,66,0
0,65,127,0
0,38,123,16
0,38,96,0
0,53,70,0
0,65,114,0
0,36,124,4
0,36,125,16
0,38,127,0
0,51,95,0
0,54,102,0
0,36,119,0
0,36,98,0
0,53,96,0
0,57,97,0
0,60,100,0
0,57,76,0
0,60,61,0
0,72,95,0
0,57,120,0
0,67,127,0
0,38,111,124
0,38,122,16
0,53,68,0
0,36,118,16
0,47,125,0
0,60,106,0
0,57,98,0
0,53,97,0
0,57,70,0
0,60,66,0
0,65,110,0
0,47,118,124
0,45,127,16
0,53,62,0
0,36,115,16
0,45,127,0
0,53,102,0
0,57,97,0
0,60,99,0
0,57,67,0
0,60,75,0
0,65,79,0
0,69,73,0
0,72,81,0
0,67,115,0
0,43,127,16
0,36,119,0
0,53,65,0
0,65,112,0
0,36,122,0
0,49,110,0
0,34,111,0
0,34,92,0
0,62,103,0
0,58,102,0
0,53,106,0
0,53,75,0
0,58,66,0
0,62,67,0
0,65,101,0
0,74,99,0
0,70,103,0
0,65,121,0
0,51,106,16
0,53,64,0
0,58,72,0
0,62,73,0
0,58,126,0
0,51,101,16
0,53,73,0
0,58,78,0
0,62,68,0
0,53,64,16
0,58,76,0
0,62,68,0
0,36,115,4
0,36,126,16
0,38,120,0
0,51,102,0
0,54,106,0
0,34,126,0
0,34,101,0
0,62,103,0
0,53,93,0
0,58,100,0
0,53,69,0
0,58,64,0
0,62,64,0
0,62,80,0
0,65,78,0
0,70,81,0
0,58,127,0
0,65,121,0
0,62,120,0
0,51,91,16
0,36,127,0
0,36,101,0
0,53,73,0
0,58,73,0
0,62,59,0
0,60,112,0
0,65,117,0
0,62,125,0
0,51,92,16
0,38,119,0
0,38,93,0
0,53,66,0
0,58,72,0
0,62,70,0
0,62,127,0
0,65,121,0
0,60,126,0
0,53,73,16
0,58,74,0
0,62,78,0
0,36,125,4
0,36,123,16
0,51,106,0
0,39,116,0
0,39,105,0
0,63,99,0
0,55,90,0
0,55,61,0
0,58,64,0
0,63,68,0
0,67,93,0
0,75,90,0
0,60,115,0
0,65,118,0
0,60,125,0
0,58,124,16
0,63,114,0
0,58,110,0
0,58,117,16
0,63,123,0
0,58,124,0
0,51,106,16
0,55,78,0
0,58,78,0
0,63,63,0
0,51,99,16
0,55,64,0
0,58,75,0
0,63,62,0
0,58,113,16
0,34,126,16
0,55,70,0
0,58,77,0
0,63,66,0
0,58,119,0
0,36,118,4
0,36,120,16
0,38,120,0
0,51,91,0
0,54,108,0
0,39,115,0
0,39,90,0
0,58,103,0
0,67,96,0
0,63,101,0
0,55,63,0
0,58,75,0
0,63,60,0
0,67,83,0
0,70,69,0
0,75,68,0
0,67,126,0
0,65,119,16
0,65,123,16
0,51,97,16
0,38,121,0
0,38,91,0
0,65,90,0
0,58,101,0
0,55,61,0
0,58,78,0
0,63,59,0
0,38,124,144
0,38,126,16
0,51,98,0
0,36,127,0
0,36,96,0
0,63,106,0
0,58,108,0
0,55,76,0
0,58,76,0
0,63,63,0
0,60,114,16
0,55,73,16
0,58,61,0
0,63,68,0
0,36,119,4
0,36,127,16
0,51,89,0
0,34,113,0
0,34,107,0
0,53,102,0
0,62,97,0
0,58,91,0
0,53,77,0
0,58,61,0
0,62,78,0
0,65,100,0
0,74,98,0
0,62,114,0
0,60,127,16
0,58,125,16
0,51,91,16
0,53,65,0
0,58,70,0
0,62,72,0
0,51,99,16
0,53,75,0
0,58,63,0
0,62,69,0
0,53,67,16
0,58,60,0
0,36,121,4
0,36,127,16
0,38,116,0
0,51,103,0
0,54,96,0
0,34,117,0
0,34,98,0
0,53,93,0
0,62,99,0
0,58,92,0
0,53,72,0
0,58,65,0
0,62,70,0
0,65,68,0
0,70,68,0
0,74,75,0
0,58,115,0
0,65,114,0
0,62,111,0
0,51,93,16
0,36,126,0
0,36,104,0
0,53,59,0
0,58,67,0
0,62,75,0
0,60,123,0
0,65,127,0
0,62,111,0
0,51,98,16
0,38,121,0
0,38,101,0
0,53,77,0
0,58,69,0
0,62,68,0
0,62,127,0
0,65,125,0
0,62,115,72
0,53,75,16
0,58,74,0
0,62,72,0
0,36,113,4
0,36,127,16
0,51,97,0
0,39,115,0
0,39,102,0
0,55,107,0
0,51,96,0
0,58,99,0
0,55,71,0
0,58,67,0
0,63,72,0
0,67,93,0
0,75,105,0
0,60,117,0
0,65,125,0
0,60,112,0
0,58,127,16
0,63,113,0
0,58,127,0
0,58,122,16
0,63,124,0
0,58,110,0
0,51,96,16
0,55,71,0
