track,note,velocity,time
1,76,124,7677
1,76,0,384
1,74,110,96
1,74,0,192
1,71,108,48
1,71,0,192
1,69,106,48
1,69,0,192
1,67,105,48
1,67,0,192
1,69,105,48
1,69,0,192
1,67,110,48
1,67,0,384
1,67,110,96
1,67,0,700
1,67,113,740
1,67,0,192
1,71,116,48
1,71,0,192
1,74,113,48
1,74,0,192
1,74,109,48
1,74,0,384
1,71,111,96
1,71,0,192
1,76,101,48
1,76,0,700
1,76,109,1940
1,76,0,384
1,74,110,96
1,74,0,192
1,71,118,48
1,71,0,192
1,69,108,48
1,69,0,192
1,67,98,48
1,67,0,192
1,69,110,48
1,69,0,192
1,67,102,48
1,67,0,384
1,67,111,96
1,67,0,700
1,67,113,740
1,67,0,192
1,71,114,48
1,71,0,192
1,74,110,48
1,74,0,192
1,74,108,48
1,74,0,192
1,74,108,48
1,74,0,384
1,74,101,96
1,74,0,288
1,71,110,72
1,71,0,96
1,69,118,24
1,69,0,700
1,76,111,1460
1,76,0,192
1,74,114,48
1,74,0,192
1,74,109,48
1,74,0,192
1,71,110,48
1,71,0,192
1,69,124,48
1,69,0,192
1,67,105,48
1,67,0,192
1,69,110,48
1,69,0,192
1,67,120,48
1,67,0,384
1,67,108,96
1,67,0,384
1,67,99,96
1,67,0,220
1,71,107,980
1,71,0,192
1,74,107,48
1,74,0,192
1,74,122,48
1,74,0,192
1,74,110,48
1,74,0,384
1,76,109,96
1,76,0,700
1,76,106,1940
1,76,0,192
1,74,115,48
1,74,0,192
1,74,112,48
1,74,0,192
1,71,113,48
1,71,0,192
1,69,100,48
1,69,0,192
1,67,108,48
1,67,0,192
1,69,110,48
1,69,0,192
1,67,124,48
1,67,0,192
1,67,101,48
1,67,0,96
1,64,101,24
1,64,0,96
1,69,108,24
1,69,0,384
1,67,122,96
1,67,0,220
1,71,111,980
1,71,0,192
1,74,111,48
1,74,0,192
1,74,111,48
1,74,0,192
1,74,105,48
1,74,0,384
1,71,108,96
1,71,0,384
1,69,110,96
1,69,0,576
1,71,110,1824
1,71,0,192
1,76,96,48
1,76,0,192
1,79,95,48
1,79,0,192
1,79,100,48
1,79,0,192
1,76,108,48
1,76,0,192
1,82,115,48
1,82,0,384
1,81,114,96
1,81,0,192
1,79,110,48
1,79,0,192
1,79,120,48
1,79,0,460
1,72,112,260
1,72,0,192
1,82,114,48
1,82,0,384
1,81,121,96
1,81,0,192
1,79,95,48
1,79,0,192
1,79,111,48
1,79,0,384
1,77,110,96
1,77,0,192
1,74,110,48
1,74,0,288
1,72,110,72
1,72,0,96
1,71,110,24
1,71,0,220
1,74,98,2180
1,74,0,192
1,79,115,48
1,79,0,192
1,76,98,48
1,76,0,192
1,79,110,48
1,79,0,192
1,76,117,48
1,76,0,192
1,82,111,48
1,82,0,384
1,81,113,96
1,81,0,192
1,79,95,48
1,79,0,192
1,79,98,48
1,79,0,460
1,72,109,260
1,72,0,192
1,82,112,48
1,82,0,384
1,81,112,96
1,81,0,192
1,79,123,48
1,79,0,192
1,79,110,48
1,79,0,384
1,79,100,96
1,79,0,192
1,81,95,48
1,81,0,700
1,77,105,820
1,77,0,256
1,78,109,64
1,78,0,256
1,78,114,64
1,78,0,96
1,76,107,24
1,76,0,96
1,74,111,24
1,74,0,220
1,76,96,1940
1,76,0,384
1,74,97,96
1,74,0,192
1,71,100,48
1,71,0,192
1,69,95,48
1,69,0,192
1,67,123,48
1,67,0,192
1,69,98,48
1,69,0,192
1,67,112,48
1,67,0,384
1,67,111,96
1,67,0,700
1,79,112,500
1,79,0,256
1,78,99,104
1,78,0,256
1,76,104,24
1,76,0,256
1,76,110,64
1,76,0,256
1,74,96,104
1,74,0,256
1,74,106,24
1,74,0,256
1,71,97,64
1,71,0,96
1,69,111,24
1,69,0,96
1,71,117,24
1,71,0,700
1,79,107,740
1,79,0,192
1,81,106,48
1,81,0,384
1,79,123,96
1,79,0,192
1,79,105,48
1,79,0,384
1,79,110,96
1,79,0,192
1,67,109,48
1,67,0,192
1,67,113,48
1,67,0,192
1,69,116,48
1,69,0,192
1,67,103,48
1,67,0,384
1,67,100,96
1,67,0,700
1,62,110,740
1,62,0,192
1,71,103,48
1,71,0,192
1,74,124,48
1,74,0,192
1,74,99,48
1,74,0,192
1,74,109,48
1,74,0,192
1,74,105,48
1,74,0,96
1,71,100,24
1,71,0,96
1,69,108,24
1,69,0,700
1,76,100,3860
1,76,0,384
1,74,118,96
1,74,0,192
1,71,122,48
1,71,0,192
1,69,108,48
1,69,0,192
1,67,111,48
1,67,0,192
1,69,107,48
1,69,0,192
1,67,110,48
1,67,0,384
1,67,109,96
1,67,0,384
1,69,114,96
1,69,0,220
1,79,100,500
1,79,0,256
1,78,123,104
1,78,0,256
1,76,113,24
1,76,0,256
1,74,106,64
1,74,0,460
1,74,111,260
1,74,0,96
1,76,124,24
1,76,0,96
1,71,121,24
1,71,0,940
1,76,104,1460
1,76,0,384
1,74,101,96
1,74,0,192
1,74,112,48
1,74,0,192
1,74,105,48
1,74,0,192
1,74,110,48
1,74,0,192
1,76,110,48
1,76,0,192
1,76,122,48
1,76,0,384
1,76,117,96
1,76,0,288
1,74,110,72
1,74,0,96
1,72,107,24
1,72,0,220
1,62,110,740
1,62,0,192
1,71,113,48
1,71,0,192
1,74,110,48
1,74,0,192
1,74,107,48
1,74,0,192
1,74,109,48
1,74,0,192
1,74,125,48
1,74,0,192
1,74,110,48
1,74,0,192
1,78,123,48
1,78,0,192
1,78,103,48
1,78,0,384
1,78,110,96
1,78,0,288
1,76,98,72
1,76,0,96
1,74,110,24
1,74,0,700
1,71,104,740
1,71,0,192
1,76,111,48
1,76,0,192
1,79,97,48
1,79,0,192
1,79,111,48
1,79,0,192
1,76,108,48
1,76,0,192
1,82,111,48
1,82,0,384
1,81,106,96
1,81,0,192
1,79,110,48
1,79,0,192
1,79,110,48
1,79,0,460
1,72,97,260
1,72,0,192
1,82,120,48
1,82,0,384
1,81,112,96
1,81,0,192
1,79,110,48
1,79,0,192
1,79,106,48
1,79,0,384
1,77,119,96
1,77,0,192
1,74,116,48
1,74,0,288
1,72,109,72
1,72,0,96
1,71,111,24
1,71,0,220
1,74,110,2180
1,74,0,192
1,79,96,48
1,79,0,192
1,76,100,48
1,76,0,192
1,79,97,48
1,79,0,192
1,76,116,48
1,76,0,192
1,82,110,48
1,82,0,384
1,81,117,96
1,81,0,192
1,79,110,48
1,79,0,192
1,79,107,48
1,79,0,460
1,72,102,260
1,72,0,192
1,82,108,48
1,82,0,384
1,81,106,96
1,81,0,192
1,79,123,48
1,79,0,192
1,79,109,48
1,79,0,384
1,79,111,96
1,79,0,192
1,81,98,48
1,81,0,700
1,83,112,860
1,83,0,256
1,81,112,24
1,81,0,256
1,78,111,64
1,78,0,96
1,76,103,24
1,76,0,96
1,74,105,24
1,74,0,220
1,76,111,260
1,76,0,192
1,79,119,48
1,79,0,192
1,79,110,48
1,79,0,192
1,79,115,48
1,79,0,192
1,79,100,48
1,79,0,192
1,82,114,48
1,82,0,384
1,81,116,96
1,81,0,192
1,79,111,48
1,79,0,192
1,79,114,48
1,79,0,460
1,74,123,260
1,74,0,192
1,82,110,48
1,82,0,384
1,81,124,96
1,81,0,192
1,79,109,48
1,79,0,192
1,79,110,48
1,79,0,460
1,72,98,260
1,72,0,192
1,82,111,48
1,82,0,384
1,81,99,96
1,81,0,192
1,79,100,48
1,79,0,192
1,79,106,48
1,79,0,460
1,72,111,260
1,72,0,192
1,82,114,48
1,82,0,384
1,81,105,96
1,81,0,96
1,79,108,24
1,79,0,96
1,79,110,24
1,79,0,384
1,76,107,96
1,76,0,192
1,79,106,48
1,79,0,96
1,76,114,24
1,76,0,96
1,79,110,24
1,79,0,96
1,76,122,24
1,76,0,96
1,82,108,24
1,82,0,384
1,81,97,96
1,81,0,192
1,79,110,48
1,79,0,192
1,79,110,48
1,79,0,96
1,76,108,24
1,76,0,96
1,74,112,24
1,74,0,96
1,74,117,384
1,74,0,192
1,82,125,48
1,82,0,384
1,81,108,96
1,81,0,192
1,79,111,48
1,79,0,192
1,79,107,48
1,79,0,384
1,77,111,96
1,77,0,192
1,79,124,48
1,79,0,672
1,76,110,13488
1,76,0,384
1,74,103,96
1,74,0,192
1,71,112,48
1,71,0,192
1,69,122,48
1,69,0,192
1,67,102,48
1,67,0,192
1,69,110,48
1,69,0,192
1,67,110,48
1,67,0,384
1,67,109,96
1,67,0,700
1,67,123,740
1,67,0,192
1,71,108,48
1,71,0,192
1,74,115,48
1,74,0,192
1,74,115,48
1,74,0,384
1,71,110,96
1,71,0,192
1,76,112,48
1,76,0,700
1,76,106,1940
1,76,0,384
1,74,104,96
1,74,0,192
1,71,110,48
1,71,0,192
1,69,112,48
1,69,0,192
1,67,111,48
1,67,0,192
1,69,125,48
1,69,0,192
1,67,107,48
1,67,0,384
1,67,113,96
1,67,0,700
1,67,98,740
1,67,0,192
1,71,107,48
1,71,0,192
1,74,103,48
1,74,0,192
1,74,110,48
1,74,0,192
1,74,110,48
1,74,0,384
1,74,105,96
1,74,0,288
1,71,111,72
1,71,0,96
1,69,106,24
1,69,0,700
1,76,111,1460
1,76,0,192
1,74,108,48
1,74,0,192
1,74,108,48
1,74,0,192
1,71,108,48
1,71,0,192
1,69,122,48
1,69,0,192
1,67,110,48
1,67,0,192
1,69,120,48
1,69,0,192
1,67,110,48
1,67,0,384
1,67,95,96
1,67,0,384
1,67,111,96
1,67,0,220
1,71,110,980
1,71,0,192
1,74,110,48
1,74,0,192
1,74,112,48
1,74,0,192
1,74,101,48
1,74,0,384
1,76,112,96
1,76,0,700
1,76,109,1940
1,76,0,192
1,74,111,48
1,74,0,192
1,74,100,48
1,74,0,192
1,71,122,48
1,71,0,192
1,69,116,48
1,69,0,192
1,67,109,48
1,67,0,192
1,69,110,48
1,69,0,192
1,67,102,48
1,67,0,192
1,67,119,48
1,67,0,96
1,64,105,24
1,64,0,96
1,69,97,24
1,69,0,384
1,67,96,96
1,67,0,220
1,71,111,980
1,71,0,192
1,74,110,48
1,74,0,192
1,74,111,48
1,74,0,192
1,74,98,48
1,74,0,384
1,71,121,96
1,71,0,384
1,69,95,96
1,69,0,700
1,71,110,1700
1,71,0,192
1,76,108,48
1,76,0,192
1,79,107,48
1,79,0,192
1,79,111,48
1,79,0,192
1,76,108,48
1,76,0,192
1,82,108,48
1,82,0,384
1,81,103,96
1,81,0,192
1,79,98,48
1,79,0,192
1,79,110,48
1,79,0,460
1,72,110,260
1,72,0,192
1,82,111,48
1,82,0,384
1,81,109,96
1,81,0,192
1,79,110,48
1,79,0,192
1,79,110,48
1,79,0,384
1,77,109,96
1,77,0,192
1,74,112,48
1,74,0,288
1,72,109,72
1,72,0,96
1,71,109,24
1,71,0,220
1,74,124,2180
1,74,0,192
1,79,110,48
1,79,0,192
1,76,110,48
1,76,0,192
1,79,104,48
1,79,0,192
1,76,106,48
1,76,0,192
1,82,117,48
1,82,0,384
1,81,110,96
1,81,0,192
1,79,105,48
1,79,0,192
1,79,110,48
1,79,0,460
1,72,106,260
1,72,0,192
1,82,116,48
1,82,0,384
1,81,108,96
1,81,0,192
1,79,110,48
1,79,0,192
1,79,99,48
1,79,0,384
1,79,111,96
1,79,0,192
1,81,115,48
1,81,0,700
1,81,107,980
1,81,0,192
1,78,114,48
1,78,0,288
1,76,103,72
1,76,0,96
1,74,110,24
1,74,0,220
1,79,109,980
1,79,0,192
1,79,99,48
1,79,0,192
1,82,96,48
1,82,0,192
1,82,103,48
1,82,0,192
1,82,116,48
1,82,0,192
1,79,110,48
1,79,0,192
1,82,104,48
1,82,0,192
1,82,107,48
1,82,0,192
1,82,110,48
1,82,0,192
1,79,112,48
1,79,0,192
1,82,123,48
1,82,0,192
1,82,125,48
1,82,0,192
1,82,110,48
1,82,0,192
1,79,118,48
1,79,0,192
1,82,108,48
1,82,0,384
1,82,107,96
1,82,0,192
1,79,117,48
1,79,0,192
1,82,120,48
1,82,0,192
1,82,104,48
1,82,0,192
1,82,110,48
1,82,0,192
1,79,110,48
1,79,0,192
1,82,109,48
1,82,0,192
1,82,108,48
1,82,0,192
1,82,108,48
1,82,0,192
1,79,108,48
1,79,0,192
1,82,104,48
1,82,0,192
1,82,112,48
1,82,0,192
1,82,115,48
1,82,0,192
1,79,124,48
1,79,0,192
1,79,119,48
1,79,0,192
1,76,110,48
1,76,0,192
1,79,97,48
1,79,0,192
1,76,104,48
1,76,0,220
1,82,110,260
1,82,0,192
1,81,106,48
1,81,0,192
1,79,111,48
1,79,0,192
1,79,108,48
1,79,0,96
1,76,97,24
1,76,0,96
1,74,121,24
1,74,0,384
1,74,105,96
1,74,0,192
1,82,107,48
1,82,0,384
1,81,95,96
1,81,0,192
1,79,111,48
1,79,0,192
1,79,112,48
1,79,0,384
1,77,110,96
1,77,0,192
1,79,111,48
1,79,0,700
1,79,99,1100
1,79,0,96
1,77,110,24
1,77,0,96
1,74,112,144
1,74,0,96
1,72,109,24
1,72,0,96
1,70,109,24
1,70,0,220
1,76,105,740
1,76,0,192
1,79,103,48
1,79,0,96
1,76,107,24
1,76,0,96
1,82,114,24
1,82,0,576
1,81,97,144
1,81,0,192
1,79,108,48
1,79,0,192
1,79,111,48
1,79,0,96
1,76,100,24
1,76,0,96
1,74,103,24
1,74,0,384
1,74,109,96
1,74,0,192
1,82,99,48
1,82,0,384
1,81,109,96
1,81,0,192
1,79,111,48
1,79,0,576
1,77,110,144
1,77,0,192
1,79,117,48
1,79,0,700
2,71,101,7672
2,71,0,384
2,71,106,96
2,71,0,192
2,67,109,48
2,67,0,192
2,66,101,48
2,66,0,192
2,62,99,48
2,62,0,192
2,66,99,48
2,66,0,192
2,62,97,48
2,62,0,384
2,62,86,96
2,62,0,700
2,62,101,740
2,62,0,192
2,67,94,48
2,67,0,192
2,71,105,48
2,71,0,192
2,71,103,48
2,71,0,384
2,67,94,96
2,67,0,192
2,71,95,48
2,71,0,700
2,71,102,1940
2,71,0,384
2,71,97,96
2,71,0,192
2,67,108,48
2,67,0,192
2,66,105,48
2,66,0,192
2,62,101,48
2,62,0,192
2,66,106,48
2,66,0,192
2,62,111,48
2,62,0,384
2,62,107,96
2,62,0,700
2,62,100,740
2,62,0,192
2,67,108,48
2,67,0,192
2,71,88,48
2,71,0,192
2,71,100,48
2,71,0,192
2,71,111,48
2,71,0,384
2,71,112,96
2,71,0,288
2,67,100,72
2,67,0,96
2,62,97,24
2,62,0,700
2,72,99,1460
2,72,0,192
2,71,100,48
2,71,0,192
2,71,100,48
2,71,0,192
2,67,99,48
2,67,0,192
2,66,103,48
2,66,0,192
2,62,97,48
2,62,0,192
2,64,98,48
2,64,0,192
2,64,98,48
2,64,0,384
2,64,111,96
2,64,0,384
2,64,91,96
2,64,0,220
2,67,88,980
2,67,0,192
2,71,113,48
2,71,0,192
2,71,98,48
2,71,0,192
2,71,100,48
2,71,0,384
2,71,93,96
2,71,0,700
2,72,95,1940
2,72,0,192
2,71,100,48
2,71,0,192
2,71,100,48
2,71,0,192
2,67,96,48
2,67,0,192
2,66,96,48
2,66,0,192
2,62,106,48
2,62,0,192
2,65,99,48
2,65,0,192
2,64,106,48
2,64,0,192
2,64,99,48
2,64,0,96
2,60,105,24
2,60,0,96
2,64,97,24
2,64,0,384
2,64,99,96
2,64,0,220
2,67,91,980
2,67,0,192
2,71,100,48
2,71,0,192
2,71,101,48
2,71,0,192
2,71,88,48
2,71,0,384
2,67,99,96
2,67,0,228
2,66,98,20
2,66,0,136
2,66,98,96
2,66,0,576
2,67,100,1824
2,67,0,192
2,73,105,48
2,73,0,192
2,74,100,48
2,74,0,192
2,76,104,48
2,76,0,192
2,73,111,48
2,73,0,192
2,79,104,48
2,79,0,384
2,77,101,96
2,77,0,192
2,76,103,48
2,76,0,192
2,76,100,48
2,76,0,460
2,67,98,260
2,67,0,192
2,79,87,48
2,79,0,384
2,77,107,96
2,77,0,192
2,76,103,48
2,76,0,192
