track,note,velocity,time
1,71,80,720
1,71,0,158
1,69,80,0
1,69,0,82
1,69,80,0
1,69,0,120
1,67,80,0
1,67,0,480
1,71,80,8
1,69,80,112
1,71,0,8
1,69,0,112
1,67,80,0
1,67,0,120
1,64,80,0
1,64,0,120
1,67,80,0
1,67,0,120
1,64,80,0
1,64,0,120
1,69,80,0
1,69,0,240
1,67,80,0
1,67,0,240
1,67,80,0
1,67,0,60
1,67,80,0
1,67,0,60
1,71,80,0
1,71,0,120
1,74,80,0
1,74,0,120
1,71,80,0
1,71,0,120
1,76,80,0
1,76,0,240
1,74,80,4
1,74,80,236
1,74,0,4
1,74,0,116
1,71,80,0
1,71,0,120
1,69,80,0
1,69,0,120
1,67,80,0
1,67,0,120
1,69,80,0
1,69,0,240
1,71,80,0
1,71,0,120
1,69,80,0
1,69,0,120
1,67,80,0
1,67,0,120
1,71,80,0
1,74,80,116
1,71,0,4
1,74,0,476
1,71,80,4
1,71,0,120
1,69,80,0
1,69,0,120
1,67,80,0
1,67,0,120
1,64,80,0
1,64,0,120
1,67,80,0
1,67,0,120
1,64,80,0
1,64,0,120
1,69,80,0
1,69,0,240
1,67,80,0
1,67,0,240
1,67,80,0
1,67,0,120
1,71,80,0
1,71,0,120
1,74,80,0
1,74,0,120
1,71,80,0
1,71,0,120
1,76,80,0
1,76,0,240
1,74,80,0
1,74,0,120
1,71,80,0
1,71,0,180
1,67,80,0
1,67,0,60
1,69,80,0
1,69,0,120
1,71,80,0
1,71,0,120
1,69,80,0
1,69,0,120
1,67,80,0
1,67,0,840
1,67,80,120
1,67,0,60
1,67,80,0
1,67,0,60
1,79,80,0
1,79,0,120
1,79,80,0
1,79,0,120
1,79,80,0
1,79,0,120
1,79,80,0
1,79,0,60
1,78,80,0
1,76,80,160
1,78,0,5
1,76,0,115
1,74,80,20
1,74,0,180
1,74,80,0
1,74,0,60
1,76,80,0
1,76,0,120
1,76,80,0
1,76,0,120
1,76,80,0
1,76,0,120
1,74,80,0
1,74,0,60
1,74,80,0
1,74,0,180
1,71,80,0
1,71,0,120
1,62,80,60
1,62,0,60
1,62,80,0
1,62,0,60
1,62,80,0
1,62,0,60
1,67,80,0
1,67,0,120
1,67,80,0
1,67,0,120
1,71,80,0
1,71,0,120
1,67,80,0
1,67,0,120
1,69,80,0
1,69,0,120
1,67,80,0
1,67,0,120
1,64,80,0
1,64,0,120
1,67,80,0
1,67,0,120
1,71,80,0
1,62,80,0
1,62,0,480
1,71,0,0
1,67,80,356
1,67,0,60
1,67,80,4
1,67,0,60
1,79,80,0
1,79,0,120
1,79,80,0
1,79,0,60
1,81,80,0
1,81,0,180
1,81,80,0
1,78,80,116
1,81,0,4
1,78,0,116
1,74,80,4
1,74,0,240
1,71,80,0
1,71,0,60
1,74,80,0
1,74,0,60
1,76,80,0
1,76,0,120
1,76,80,0
1,76,0,120
1,78,80,0
1,78,0,120
1,79,80,0
1,79,0,120
1,74,80,0
1,74,0,120
1,71,80,0
1,71,0,240
1,71,80,0
1,71,0,60
1,69,80,0
1,69,0,60
1,71,80,0
1,71,0,120
1,71,80,0
1,71,0,120
1,76,80,0
1,76,0,120
1,71,80,0
1,71,0,120
1,67,80,0
1,67,0,120
1,64,80,0
1,64,0,120
1,71,80,0
1,71,0,120
1,69,80,0
1,69,0,60
1,67,80,0
1,67,0,60
1,69,80,0
1,69,0,480
1,71,80,0
1,71,0,360
1,69,80,0
1,69,0,120
1,69,80,0
1,69,0,120
1,67,80,0
1,67,0,480
1,71,80,8
1,69,80,112
1,71,0,8
1,69,0,112
1,67,80,0
1,67,0,120
1,64,80,0
1,64,0,120
1,67,80,0
1,67,0,120
1,64,80,0
1,64,0,120
1,69,80,0
1,69,0,240
1,67,80,0
1,67,0,240
1,64,80,0
1,64,0,60
1,67,80,0
1,67,0,60
1,71,80,0
1,71,0,120
1,74,80,0
1,74,0,120
1,71,80,0
1,71,0,120
1,76,80,0
1,76,0,240
1,74,80,4
1,74,80,236
1,74,0,4
1,74,0,116
1,71,80,0
1,71,0,120
1,69,80,0
1,69,0,120
1,67,80,0
1,67,0,120
1,69,80,0
1,69,0,240
1,71,80,0
1,71,0,120
1,69,80,0
1,69,0,120
1,67,80,0
1,67,0,120
1,71,80,0
1,74,80,116
1,71,0,4
1,74,0,476
1,71,80,4
1,71,0,120
1,69,80,0
1,69,0,120
1,67,80,0
1,67,0,120
1,64,80,0
1,64,0,120
1,67,80,0
1,67,0,120
1,64,80,0
1,64,0,120
1,69,80,0
1,69,0,240
1,67,80,0
1,67,80,236
1,67,0,4
1,67,0,56
1,67,80,0
1,67,0,60
1,71,80,4
1,71,0,120
1,74,80,0
1,74,0,120
1,71,80,0
1,71,0,120
1,76,80,0
1,76,0,240
1,74,80,0
1,74,0,120
1,71,80,0
1,71,0,180
1,67,80,0
1,67,0,60
1,69,80,0
1,69,0,120
1,71,80,0
1,71,0,120
1,69,80,0
1,69,0,120
1,67,80,0
1,67,0,600
1,67,80,360
1,67,0,60
1,67,80,0
1,67,0,60
1,79,80,0
1,79,0,120
1,79,80,0
1,79,0,120
1,79,80,0
1,79,0,120
1,79,80,0
1,79,0,60
1,78,80,0
1,76,80,160
1,78,0,5
1,76,0,115
1,74,80,20
1,74,0,180
1,74,80,0
1,74,0,60
1,76,80,0
1,76,0,120
1,76,80,0
1,76,0,120
1,76,80,0
1,76,0,120
1,74,80,0
1,74,0,60
1,74,80,0
1,74,0,180
1,71,80,0
1,71,0,120
1,62,80,60
1,62,0,60
1,62,80,0
1,62,0,60
1,62,80,0
1,62,0,60
1,67,80,0
1,67,0,120
1,67,80,0
1,67,0,120
1,71,80,0
1,71,0,120
1,67,80,0
1,67,0,120
1,69,80,0
1,69,0,120
1,67,80,0
1,67,0,120
1,64,80,0
1,64,0,120
1,67,80,0
1,67,0,120
1,71,80,0
1,71,0,480
1,67,80,356
1,67,0,60
1,67,80,4
1,67,0,60
1,79,80,0
1,79,0,120
1,79,80,0
1,79,0,60
1,81,80,0
1,81,0,180
1,81,80,0
1,78,80,116
1,81,0,4
1,78,0,116
1,74,80,4
1,74,0,240
1,71,80,0
1,71,0,60
1,74,80,0
1,74,0,60
1,76,80,0
1,76,0,120
1,76,80,0
1,76,0,120
1,78,80,0
1,78,0,120
1,79,80,0
1,79,0,120
1,74,80,0
1,74,0,120
1,71,80,0
1,71,0,240
1,71,80,0
1,71,0,60
1,69,80,0
1,69,0,60
1,71,80,0
1,71,0,120
1,71,80,0
1,71,0,120
1,76,80,0
1,76,0,120
1,71,80,0
1,71,0,120
1,67,80,0
1,67,0,180
1,64,80,0
1,64,0,60
1,71,80,0
1,71,0,120
1,69,80,0
1,69,0,60
1,67,80,0
1,67,0,60
1,69,80,0
1,69,0,1320
1,71,80,120
1,71,0,360
1,69,80,0
1,69,0,120
1,69,80,0
1,69,0,120
1,67,80,0
1,67,0,360
1,71,80,120
1,71,0,120
1,69,80,0
1,69,0,120
1,67,80,0
1,67,0,120
1,64,80,0
1,64,0,120
1,67,80,0
1,67,0,120
1,64,80,0
1,64,0,120
1,69,80,0
1,69,0,240
1,67,80,0
1,67,0,240
1,67,80,0
1,67,0,120
1,71,80,0
1,71,0,120
1,74,80,0
1,74,0,120
1,74,80,0
1,74,0,120
1,74,80,0
1,71,80,240
1,74,0,11
1,71,0,49
1,69,80,0
1,69,0,60
1,67,80,0
1,67,0,240
1,71,80,120
1,69,80,116
1,71,0,4
1,69,0,116
1,67,80,4
1,67,0,120
1,69,80,0
1,69,0,240
1,71,80,60
1,71,0,60
1,69,80,0
1,69,0,60
1,67,80,0
1,67,0,60
1,71,80,0
1,71,0,120
1,74,80,0
1,74,0,360
1,71,80,120
1,71,0,120
1,69,80,0
1,69,0,120
1,67,80,0
1,67,0,120
1,64,80,0
1,67,80,116
1,64,0,4
1,67,0,116
1,64,80,4
1,64,0,120
1,69,80,0
1,69,0,240
1,67,80,0
1,67,0,120
1,67,80,60
1,67,0,60
1,69,80,0
1,69,0,60
1,67,80,0
1,67,0,60
1,71,80,0
1,71,0,120
1,74,80,0
1,74,0,120
1,74,80,0
1,74,0,60
1,71,80,0
1,71,0,60
1,76,80,0
1,76,0,240
1,74,80,0
1,74,0,360
1,76,80,0
1,76,0,120
1,79,80,0
1,79,0,120
1,79,80,0
1,79,0,60
1,76,80,0
1,76,0,60
1,81,80,0
1,81,0,240
1,79,80,0
1,79,0,120
1,71,80,60
1,71,0,60
1,69,80,0
1,69,0,60
1,67,80,0
1,67,0,60
1,71,80,0
1,71,0,120
1,74,80,0
1,74,0,120
1,74,80,0
1,74,0,60
1,71,80,0
1,71,0,60
1,76,80,0
1,76,0,240
1,71,80,0
1,71,0,60
1,69,80,0
1,69,0,60
1,67,80,0
1,67,0,180
1,67,80,0
1,67,0,60
1,69,80,0
1,69,0,120
1,71,80,0
1,71,0,240
1,69,80,0
1,69,0,120
1,67,80,0
1,67,0,480
1,71,80,120
1,71,0,120
1,69,80,0
1,69,0,120
1,67,80,0
1,67,0,120
1,64,80,0
1,64,0,120
1,67,80,0
1,67,0,120
1,64,80,0
1,64,0,120
1,69,80,0
1,69,0,240
1,67,80,0
1,67,0,120
1,67,80,0
1,67,0,120
1,69,80,0
1,69,0,120
1,71,80,0
1,67,80,0
1,62,80,0
1,62,0,135
1,67,0,0
1,71,0,0
2,43,80,960
2,43,0,480
2,41,80,0
2,41,0,480
2,36,80,0
2,36,0,480
2,36,80,0
2,36,0,480
2,43,80,0
2,43,0,240
2,42,80,0
2,42,0,240
2,40,80,0
2,40,0,480
2,45,80,0
2,45,0,480
2,38,80,0
2,38,0,480
2,43,80,0
2,43,0,240
2,43,80,0
2,43,0,240
2,41,80,0
2,41,0,480
2,36,80,0
2,36,0,480
2,36,80,0
2,36,0,480
2,38,80,0
2,38,0,240
2,39,80,0
2,39,0,240
2,40,80,0
2,40,0,480
2,37,80,0
2,37,0,240
2,35,80,0
2,35,0,240
2,43,80,0
2,43,0,240
2,43,80,0
2,43,0,240
2,42,80,0
2,42,0,240
2,42,80,0
2,42,0,240
2,40,80,0
2,40,0,240
2,40,80,0
2,40,0,240
2,35,80,24
2,36,80,456
2,35,0,24
2,36,0,216
2,36,80,0
2,36,0,240
2,43,80,0
2,43,0,240
2,42,80,0
2,42,0,240
2,40,80,0
2,40,0,480
2,36,80,0
2,36,0,480
2,43,80,0
2,43,0,240
2,43,80,0
2,43,0,240
2,42,80,0
2,42,0,240
2,42,80,0
2,42,0,240
2,40,80,0
2,40,0,240
2,40,80,0
2,40,0,240
2,35,80,24
2,36,80,456
2,35,0,24
2,36,0,216
2,36,80,0
2,36,0,240
2,43,80,0
2,43,0,240
2,43,80,12
2,40,80,228
2,43,0,12
2,40,0,468
2,45,80,12
2,38,80,468
2,45,0,12
2,38,0,228
2,38,80,0
2,38,0,240
2,38,80,12
2,38,0,468
2,43,80,0
2,43,0,480
2,41,80,0
2,41,0,480
2,36,80,0
2,36,0,480
2,36,80,0
2,36,0,480
2,43,80,0
2,43,0,240
2,42,80,0
2,42,0,240
2,40,80,0
2,40,0,480
2,45,80,0
2,45,0,480
2,38,80,0
2,38,0,480
2,43,80,0
2,43,0,240
2,43,80,0
2,43,0,240
2,41,80,0
2,41,0,480
2,36,80,0
2,36,0,480
2,36,80,0
2,36,0,480
2,38,80,0
2,38,0,240
2,39,80,0
2,39,0,240
2,40,80,0
2,40,0,480
2,37,80,0
2,37,0,240
2,35,80,0
2,35,0,240
2,43,80,0
2,43,0,240
2,43,80,0
2,43,0,240
2,42,80,0
2,42,0,240
2,42,80,0
2,42,0,240
2,40,80,0
2,40,0,240
2,40,80,0
2,40,0,240
2,35,80,24
2,36,80,456
2,35,0,24
2,36,0,216
2,36,80,0
2,36,0,240
2,43,80,0
2,43,0,240
2,42,80,0
2,42,0,240
2,40,80,0
2,40,0,480
2,36,80,0
2,36,0,480
2,43,80,0
2,43,0,240
2,43,80,0
2,43,0,240
2,42,80,0
2,42,0,240
2,42,80,0
2,42,0,240
2,40,80,0
2,40,0,240
2,40,80,0
2,40,0,240
2,35,80,24
2,36,80,456
2,35,0,24
2,36,0,216
2,36,80,0
2,36,0,240
2,43,80,0
2,43,0,240
2,43,80,12
2,40,80,228
2,43,0,12
2,40,0,468
2,45,80,0
2,45,0,480
2,45,80,0
2,45,0,360
2,45,80,0
2,45,0,120
2,45,80,0
2,45,0,360
2,45,80,0
2,45,0,120
2,50,80,0
2,50,0,360
2,50,80,0
2,50,0,120
2,50,80,0
2,50,0,360
2,50,80,0
2,50,0,120
2,43,80,0
2,43,0,240
2,43,80,8
2,41,80,232
2,43,0,8
2,41,0,472
2,36,80,0
2,36,0,480
2,36,80,0
2,36,0,480
2,43,80,0
2,43,0,240
2,42,80,0
2,42,0,240
2,40,80,0
2,40,0,480
2,45,80,8
2,38,80,472
2,45,0,8
2,38,0,472
2,43,80,0
2,43,0,240
2,43,80,0
2,43,0,240
2,38,80,0
2,38,0,480
2,36,80,0
2,36,0,480
2,36,80,0
2,36,0,480
2,43,80,0
2,43,0,240
2,42,80,0
2,42,0,240
2,40,80,0
2,40,0,240
2,38,80,0
2,38,0,240
2,36,80,0
2,36,0,240
2,35,80,0
2,35,0,240
2,33,80,0
2,33,0,480
2,38,80,0
2,38,0,240
2,39,80,0
2,39,0,240
2,40,80,0
2,40,0,480
2,38,80,0
2,38,0,240
2,38,80,0
2,38,0,240
2,43,80,0
2,43,0,360
2,41,80,0
2,41,0,600
2,36,80,0
2,36,0,480
2,36,80,0
2,36,0,480
2,38,80,0
2,31,80,0
2,31,0,13
2,38,0,0
3,62,80,960
3,59,80,0
3,55,80,0
3,55,0,240
3,59,0,0
3,62,0,0
3,62,80,0
3,59,80,0
3,55,80,0
3,55,0,240
3,59,0,0
3,62,0,0
3,62,80,0
3,59,80,0
3,55,80,0
3,53,80,0
3,53,0,240
3,62,0,0
3,59,0,0
3,55,0,0
3,62,80,0
3,59,80,0
3,55,80,0
3,53,80,0
3,53,0,240
3,62,0,0
3,59,0,0
3,55,0,0
3,55,80,0
3,52,80,0
3,48,80,0
3,48,0,240
3,52,0,0
3,55,0,0
3,55,80,0
3,52,80,0
3,48,80,0
3,48,0,240
3,52,0,0
3,55,0,0
3,63,80,0
3,55,80,0
3,51,80,0
3,48,80,0
3,48,0,240
3,63,0,0
3,55,0,0
3,51,0,0
3,63,80,0
3,55,80,0
3,51,80,0
3,48,80,0
3,48,0,240
3,63,0,0
3,55,0,0
3,51,0,0
3,59,80,0
3,55,80,0
3,55,0,240
3,59,0,0
3,59,80,0
3,54,80,0
3,54,0,240
3,59,0,0
3,59,80,0
3,55,80,0
3,52,80,0
3,52,0,240
3,55,0,0
3,59,0,0
3,59,80,0
3,55,80,0
3,52,80,0
3,52,0,240
3,55,0,0
3,59,0,0
3,64,80,0
3,61,80,0
3,59,80,0
3,50,80,240
3,50,0,120
3,64,0,0
3,61,0,0
3,59,0,0
3,66,80,0
3,60,80,0
3,50,80,0
3,50,0,600
3,60,0,0
3,66,0,0
3,62,80,0
3,59,80,0
3,55,80,0
3,55,0,240
3,59,0,0
3,59,80,0
3,55,80,0
3,55,0,240
3,59,0,0
3,62,0,0
3,62,80,0
3,59,80,0
3,55,80,0
3,53,80,0
3,53,0,240
3,62,0,0
3,59,0,0
3,55,0,0
3,62,80,0
3,59,80,0
3,55,80,0
3,53,80,0
3,53,0,240
3,62,0,0
3,59,0,0
3,55,0,0
3,55,80,0
3,52,80,0
3,48,80,0
3,48,0,240
3,52,0,0
3,55,0,0
3,55,80,0
3,52,80,0
3,48,80,0
3,48,0,240
3,52,0,0
3,55,0,0
3,63,80,0
3,55,80,0
3,51,80,0
3,48,80,0
3,48,0,240
3,63,0,0
3,55,0,0
3,51,0,0
3,63,80,0
3,55,80,0
3,51,80,0
3,48,80,0
3,48,0,240
3,63,0,0
3,55,0,0
3,51,0,0
3,59,80,0
3,55,80,0
