track,note,velocity,time
1,48,26,3722
1,52,28,18
1,60,29,19
1,55,29,6
1,48,0,44
1,52,0,65
1,55,0,241
1,60,0,313
1,50,37,77
1,53,37,2
1,56,39,12
1,50,0,366
1,53,0,49
1,56,0,395
1,48,21,99
1,52,25,18
1,55,30,29
1,60,29,25
1,48,0,2
1,52,0,75
1,55,0,239
1,60,0,505
1,53,27,38
1,57,30,20
1,60,30,12
1,53,0,46
1,57,0,182
1,60,0,162
1,50,28,35
1,55,30,23
1,59,32,18
1,50,0,49
1,55,0,83
1,59,0,348
1,72,33,4
1,72,0,384
1,72,33,79
1,72,0,415
1,72,33,65
1,72,0,402
1,72,32,86
1,72,0,412
1,72,32,67
1,72,0,389
1,72,33,84
1,72,0,389
1,72,32,106
1,72,0,363
1,65,31,111
1,72,31,1
1,65,0,154
1,71,31,15
1,67,31,13
1,72,0,7
1,71,0,22
1,67,0,13
1,75,42,1402
1,74,45,35
1,75,0,7
1,72,47,16
1,74,0,26
1,72,0,34
1,68,63,7
1,68,0,120
1,56,63,0
1,56,0,120
1,53,63,0
1,53,0,120
1,55,56,0
1,55,0,480
1,57,40,1444
1,53,40,116
1,57,0,2
1,48,40,117
1,53,0,5
1,57,40,116
1,48,0,5
1,57,0,115
1,55,40,0
1,55,0,121
1,52,41,1
1,52,0,111
1,48,41,7
1,52,41,120
1,48,0,6
1,53,41,114
1,52,0,3
1,53,0,117
1,50,41,0
1,50,0,120
1,47,42,9
1,50,42,115
1,47,0,2
1,52,42,114
1,50,0,4
1,53,42,116
1,52,0,6
1,55,42,118
1,53,0,1
1,52,42,115
1,55,0,24
1,57,40,96
1,52,0,4
1,57,0,110
1,53,40,6
1,48,40,124
1,53,0,6
1,57,40,110
1,48,0,13
1,55,40,107
1,57,0,6
1,55,0,114
1,60,41,0
1,60,0,120
1,55,41,0
1,55,0,120
1,52,41,0
1,52,0,120
1,57,41,0
1,57,0,116
1,53,41,9
1,53,0,115
1,52,41,2
1,52,0,117
1,53,42,1
1,53,0,118
1,50,42,10
1,50,0,227
1,62,42,5
1,62,0,240
1,60,42,0
1,60,0,240
1,60,51,600
1,59,51,115
1,60,0,2
1,59,0,113
1,57,53,1
1,55,54,127
1,57,0,2
1,55,0,115
1,53,55,3
1,53,0,115
1,52,55,11
1,52,0,115
1,50,51,3
1,50,0,92
1,62,74,1110
1,62,0,20
1,62,75,0
1,62,0,60
1,67,84,9
1,67,0,51
1,67,82,7
1,67,0,111
1,62,80,14
1,60,82,44
1,62,0,6
1,57,83,49
1,60,0,8
1,57,0,122
1,79,77,1150
1,79,0,45
1,77,79,18
1,77,0,43
1,76,79,47
1,76,0,33
1,74,81,60
1,74,0,49
1,72,81,37
1,72,0,44
1,69,80,42
1,69,0,34
1,71,77,33
1,71,0,168
1,69,74,16212
1,67,74,118
1,69,0,32
1,65,72,88
1,67,0,30
1,64,73,90
1,65,0,30
1,62,74,90
1,64,0,30
1,60,75,90
1,62,0,25
1,55,76,94
1,60,0,31
1,56,75,90
1,44,75,4
1,55,0,25
1,56,0,421
1,44,0,499
1,36,80,4
1,44,96,960
1,36,0,7
1,36,92,970
1,44,0,3
1,36,0,239
1,36,94,228
1,36,0,180
1,38,97,0
1,38,0,180
1,40,96,0
1,40,0,120
1,41,95,0
1,41,0,450
1,40,97,19
1,38,94,486
1,40,0,1
1,40,96,365
1,38,0,3
1,41,97,582
1,40,0,1
1,41,0,479
1,40,98,14
1,40,0,480
1,38,97,9
1,38,0,510
1,40,78,5481
1,40,0,234
1,41,78,6
1,41,0,226
1,43,77,14
1,43,0,233
1,44,76,7
1,44,0,940
1,40,82,260
1,40,0,234
1,41,79,6
1,43,79,240
1,41,0,4
1,43,0,232
1,44,79,4
1,46,78,780
1,44,0,17
1,46,0,155
1,36,78,8
1,36,0,240
1,40,78,0
1,41,78,240
1,40,0,17
1,41,0,221
1,43,78,5
1,43,0,219
1,44,82,18
1,41,81,480
1,44,0,11
1,36,81,469
1,41,0,26
1,36,0,814
2,64,55,11664
2,64,0,244
2,65,55,6
2,67,55,240
2,65,0,2
2,68,55,236
2,67,0,7
2,68,0,921
2,67,57,29
2,67,0,220
2,64,57,35
2,65,59,231
2,64,0,2
2,67,58,230
2,65,0,3
2,67,0,231
2,69,57,0
2,71,60,486
2,69,0,9
2,71,0,440
2,76,74,9153
2,72,74,3
2,72,0,444
2,76,0,2
2,78,69,20
2,71,69,3
2,74,69,1
2,78,0,476
2,71,0,3
2,74,0,1
2,68,67,1
2,80,67,1
2,64,67,1
2,71,67,2
2,76,67,1
2,64,0,446
2,68,0,4
2,80,0,1
2,71,0,4
2,76,0,3
2,76,67,18
2,69,67,6
2,72,67,6
2,76,0,858
2,69,0,40
2,72,0,2
2,71,74,47
2,74,74,2
2,71,0,470
2,71,80,4
2,74,0,1
2,76,78,1
2,71,0,468
2,76,0,4
2,69,80,7
2,76,68,3
2,69,0,901
2,71,75,66
2,74,75,1
2,76,0,3
2,71,0,430
2,74,0,20
2,76,60,12
2,83,60,2
2,83,0,471
2,76,0,5
2,76,78,5
2,69,68,15
2,76,0,440
2,69,0,15
2,67,65,16
2,74,65,2
2,74,0,444
2,67,0,4
2,72,72,31
2,65,72,2
2,72,0,411
2,65,0,6
2,72,71,54
2,67,71,1
2,72,0,472
2,67,0,7
2,77,31,10
2,72,31,3
2,77,0,237
2,72,0,3
2,76,56,952
2,77,60,252
2,76,0,7
2,77,0,207
2,79,51,16
2,80,48,231
2,79,0,22
2,79,54,956
2,80,0,8
2,79,0,926
2,74,64,9
2,74,0,950
2,84,50,17
2,83,54,3599
2,84,0,13
2,84,37,230
2,83,0,9
2,84,0,471
2,79,60,4791
2,84,61,2
2,79,0,474
2,80,50,47
2,80,0,912
2,79,69,4
2,79,0,868
2,80,72,93
2,80,0,877
2,79,66,86
2,79,0,280
2,84,0,13
2,84,83,676
2,77,83,2
2,77,0,423
2,84,0,31
2,79,76,6
2,79,0,442
2,74,76,41
2,81,50,2
2,81,0,365
2,74,0,1
2,79,80,18
2,79,0,542
2,84,60,18
2,77,74,4
2,84,0,441
2,77,0,23
2,84,63,35
2,79,63,0
2,79,0,480
2,84,0,0
2,81,65,0
2,74,65,0
2,74,0,480
2,81,0,0
2,76,46,5518
2,79,46,2
2,77,46,236
2,81,46,4
2,79,0,6
2,76,0,3
2,77,0,210
2,81,0,11
2,79,46,8
2,76,46,3
2,79,0,218
2,76,0,7
2,84,46,10
2,80,45,6
2,84,0,944
2,84,44,13
2,79,44,3
2,80,0,9
2,79,0,210
2,84,0,20
2,79,44,4
2,76,44,0
2,77,43,237
2,79,0,2
2,81,43,0
2,76,0,5
2,77,0,224
2,81,0,7
2,76,43,0
2,79,43,0
2,76,0,231
2,84,43,9
2,79,0,4
2,80,43,1
2,84,0,940
2,80,0,12
2,84,44,11
2,79,44,1
2,84,0,215
2,79,0,1
2,76,41,17
2,79,41,6
2,79,0,207
2,77,41,30
2,81,41,0
2,76,0,14
2,77,0,208
2,81,0,13
2,76,39,1
2,79,39,8
2,79,0,226
2,76,0,10
2,80,39,0
2,84,39,4
2,84,0,431
2,80,0,29
2,81,41,16
2,77,41,4
2,81,0,446
2,77,0,13
2,72,45,12
2,79,45,0
2,76,45,4
2,79,0,806
2,76,0,4
2,72,0,20
3,36,66,3745
3,36,0,936
3,29,40,24
3,29,0,704
3,34,37,6
3,32,35,124
3,34,0,2
3,32,0,113
3,31,58,12
3,31,0,915
3,31,48,45
3,31,0,449
3,31,50,30
3,31,0,470
3,41,54,17
3,40,45,464
3,41,0,3
3,40,0,477
3,38,41,1
3,40,44,481
3,38,0,10
3,41,50,473
3,40,0,9
3,40,43,476
3,41,0,11
3,38,40,466
3,40,0,2
3,38,0,471
3,43,63,8
3,43,0,470
3,36,50,12
3,36,0,923
3,29,58,43
3,34,56,721
3,29,0,9
3,34,0,101
3,32,52,1
3,32,0,126
3,31,58,2
3,31,0,933
3,31,52,22
3,31,0,454
3,31,60,32
3,31,0,472
3,41,64,4
3,41,0,470
3,40,52,13
3,38,48,480
3,40,0,1
3,38,0,477
3,40,48,2
3,41,58,474
3,40,0,8
3,40,45,466
3,41,0,4
3,38,47,480
3,40,0,12
3,31,48,477
3,38,0,5
3,31,0,456
3,33,70,19
3,44,39,470
3,33,0,27
3,44,0,434
3,43,44,17
3,42,36,473
3,43,0,4
3,41,44,485
3,42,0,2
3,41,0,918
3,28,64,508
3,41,53,503
3,28,0,5
3,41,0,456
3,31,57,3
3,31,0,469
3,36,67,5
3,36,0,574
3,35,80,38
3,36,80,6
3,35,0,10
3,36,0,43
3,35,77,61
3,35,0,45
3,33,64,7
3,33,0,51
3,31,60,13
3,31,0,73
3,35,98,53
3,28,76,472
3,35,0,11
3,28,0,448
3,33,92,37
3,33,0,401
3,33,78,16
3,33,0,29
3,33,86,20
3,33,0,470
3,35,92,13
3,35,0,482
3,28,80,1
3,33,86,477
3,28,0,4
3,33,0,696
3,33,74,20
3,33,0,68
3,33,78,14
3,34,72,93
3,33,0,7
3,34,0,53
3,35,72,6
3,35,0,450
3,28,78,31
3,33,86,473
3,28,0,2
3,31,70,481
3,33,0,1
3,31,0,476
3,29,74,5
3,29,0,440
3,36,86,41
3,38,64,480
3,36,0,4
3,31,86,476
3,38,0,4
3,31,0,480
3,36,75,7
3,36,0,926
3,29,61,25
3,29,0,725
3,34,92,4
3,34,0,121
3,32,56,3
3,31,68,115
3,32,0,2
3,31,0,863
3,31,62,68
3,31,0,474
3,31,56,21
3,31,0,379
3,41,79,109
3,41,0,469
3,40,68,7
3,38,62,476
3,40,0,4
3,38,0,344
3,40,78,4
3,40,0,345
3,40,56,23
3,40,0,62
3,38,56,0
3,38,0,55
3,40,64,5
3,40,0,116
3,41,70,11
3,40,68,467
3,41,0,8
3,40,0,467
3,38,62,4
3,43,54,479
3,38,0,2
3,44,45,249
3,43,0,8
3,45,61,225
3,44,0,4
3,45,0,450
3,44,60,35
3,44,0,462
3,43,70,15
3,42,60,473
3,43,0,7
3,42,0,477
3,41,68,0
3,41,0,937
3,40,32,28
3,40,0,406
3,28,81,71
3,28,0,479
3,41,56,7
3,41,0,452
3,31,58,23
3,31,0,470
3,36,57,2
3,36,0,480
3,36,25,6
3,36,0,60
3,36,27,0
3,36,0,60
3,36,33,0
3,36,0,60
3,36,43,0
3,36,0,60
3,36,47,0
3,36,0,60
3,36,58,0
3,36,0,60
3,36,67,0
3,36,0,60
3,36,74,0
3,36,0,60
3,32,92,0
3,32,0,450
3,32,70,30
3,32,0,217
3,32,58,15
3,32,0,231
3,36,62,17
3,36,0,220
3,36,61,20
3,36,0,223
3,36,66,17
3,36,0,56
3,36,65,4
3,36,0,106
3,36,64,14
3,36,0,95
3,36,60,25
3,36,0,28
3,36,66,32
3,36,0,108
3,32,62,12
3,32,0,203
3,32,72,34
3,32,0,226
3,32,62,19
3,32,0,223
3,32,74,19
3,32,0,79
3,32,67,37
3,36,70,120
3,32,0,2
3,36,0,219
3,36,89,19
3,36,0,60
3,36,78,71
3,36,0,7
3,38,79,7
3,38,0,11
3,40,78,0
3,40,0,18
3,41,98,0
3,41,0,379
3,40,78,30
3,38,72,132
3,40,0,3
3,38,0,279
3,40,104,18
3,40,0,338
3,40,70,23
3,38,60,56
3,40,0,7
3,38,0,46
3,40,78,2
3,40,0,122
3,41,121,5
3,40,86,481
3,41,0,5
3,38,70,487
3,40,0,7
3,43,72,473
3,38,0,5
3,44,65,232
3,43,0,2
3,45,46,236
3,44,0,2
3,45,0,22
3,44,46,10
3,44,0,183
3,43,46,25
3,43,0,460
3,42,46,25
3,42,0,455
3,41,30,20
3,41,0,455
3,40,125,1
3,38,68,50
3,40,0,11
3,38,0,459
3,41,58,11
3,41,0,244
3,43,70,5
3,36,92,227
3,43,0,3
3,36,0,238
3,40,88,12
3,40,0,222
3,41,104,8
3,43,109,236
3,41,0,47
3,44,98,200
3,43,0,4
3,44,0,381
3,44,88,32
3,44,0,25
3,44,88,35
3,46,90,300
3,44,0,22
3,48,78,159
3,46,0,4
3,40,91,38
3,48,0,3
3,41,78,241
3,40,0,4
3,41,0,223
3,43,98,11
3,44,98,237
3,43,0,17
3,44,0,463
3,44,89,3
3,46,92,240
3,44,0,44
3,46,0,196
3,48,88,0
3,40,92,243
3,48,0,29
3,41,92,221
3,40,0,4
3,43,90,235
3,41,0,5
3,44,76,223
3,43,0,12
3,44,0,455
3,41,76,13
3,41,0,467
3,36,73,8
3,36,0,480
4,42,56,144
4,42,0,42
4,42,63,1398
4,42,0,42
4,36,62,83
4,36,0,49
4,36,62,68
4,36,0,165
4,42,64,73
4,42,0,42
4,42,64,918
4,42,0,42
4,42,65,438
4,42,0,42
4,38,99,20951
4,40,99,2
4,40,0,49
4,38,0,6
4,45,98,70
4,45,0,17
4,43,86,43
4,43,0,14
4,41,115,46
4,41,0,31
4,49,100,89
4,36,100,0
4,36,0,120
4,49,0,0
4,44,100,0
4,44,0,120
4,38,100,0
4,44,100,0
4,44,0,120
4,38,0,0
4,44,100,0
4,44,0,120
4,36,100,0
4,44,100,0
4,44,0,120
4,36,0,0
4,44,100,0
4,44,0,120
4,38,100,0
4,44,100,0
4,44,0,120
4,38,0,0
4,44,100,0
4,44,0,120
4,44,100,0
4,36,100,0
4,36,0,120
4,44,0,0
4,44,100,0
4,44,0,120
4,44,100,0
4,38,100,0
4,38,0,120
4,44,0,0
4,44,100,0
4,36,100,60
4,36,0,60
4,44,0,0
4,36,100,0
4,44,100,0
4,44,0,120
4,36,0,0
4,44,100,0
4,38,100,0
4,38,0,120
4,44,0,0
4,45,100,0
4,44,100,0
4,45,0,60
4,43,100,0
4,43,0,60
4,44,0,0
4,41,100,0
4,44,100,0
4,41,0,60
4,36,92,59
4,44,0,1
4,36,100,0
4,44,100,0
4,49,100,0
4,36,0,13
4,49,0,47
4,44,0,60
4,36,0,0
4,44,100,0
4,44,0,120
4,38,100,0
4,44,100,0
4,44,0,120
4,38,0,0
4,44,100,0
4,44,0,120
4,36,100,0
4,44,100,0
4,44,0,60
4,36,0,0
4,44,100,60
4,44,0,60
4,44,100,60
4,38,100,0
4,38,0,60
4,44,0,0
4,44,100,60
4,44,0,60
4,44,100,60
4,36,100,0
4,36,0,60
4,44,0,0
4,44,100,60
4,44,0,60
4,44,100,60
4,38,100,0
4,38,0,60
4,44,0,0
4,44,100,60
4,44,0,60
4,44,100,60
4,36,100,0
4,36,0,60
4,44,0,0
4,44,100,60
4,44,0,60
4,44,100,57
4,38,100,0
4,44,0,45
4,38,0,20
4,36,100,28
4,44,100,0
4,44,0,65
4,36,0,0
4,44,100,25
4,36,100,0
4,44,100,60
4,36,100,2
4,36,0,3
4,44,0,0
4,44,0,60
4,36,0,2
4,44,100,53
4,44,0,120
4,38,100,0
4,44,100,0
4,44,0,120
4,38,0,0
4,44,100,0
4,44,0,120
4,36,100,0
4,44,100,0
4,44,0,120
4,36,0,0
4,44,100,0
4,44,0,120
4,44,100,0
4,38,100,0
4,38,0,120
4,44,0,0
4,44,100,0
4,44,0,120
4,44,100,0
4,36,100,0
4,36,0,120
4,44,0,0
4,44,100,0
4,44,0,120
4,44,100,0
4,38,100,0
4,38,0,120
4,44,0,0
4,44,100,0
4,44,0,120
4,36,100,0
4,44,100,0
4,44,0,120
4,36,0,0
4,44,100,0
4,44,0,120
4,38,100,0
4,44,100,0
4,44,0,120
4,38,0,0
4,44,100,0
4,44,0,120
4,44,100,0
4,36,100,0
4,36,0,120
4,44,0,0
4,44,100,0
4,44,0,120
4,44,100,0
4,38,100,0
4,38,0,120
4,44,0,0
4,44,100,0
4,44,0,120
4,44,100,0
4,36,100,0
4,36,0,120
4,44,0,0
4,44,100,0
4,44,0,120
4,44,100,0
4,38,100,0
4,38,0,120
4,44,0,0
4,44,100,0
4,44,0,120
4,44,100,0
4,36,100,0
4,36,0,120
4,44,0,0
4,46,44,240
4,46,0,56
4,46,68,181
4,46,0,88
