track,note,velocity,time
1,63,72,0
1,67,72,0
1,75,88,0
1,75,0,720
1,67,0,0
1,67,73,0
1,67,0,240
1,63,0,0
1,70,84,0
1,67,70,0
1,63,70,0
1,63,0,480
1,67,0,0
1,70,0,0
1,72,78,0
1,67,64,0
1,63,64,0
1,67,0,240
1,72,0,0
1,67,73,0
1,67,0,240
1,63,0,0
1,70,80,0
1,63,67,0
1,67,67,0
1,67,0,960
1,63,0,0
1,70,0,0
1,63,62,0
1,67,66,0
1,70,81,0
1,70,0,240
1,72,70,0
1,72,0,240
1,67,0,0
1,63,0,0
1,63,68,0
1,67,81,0
1,67,0,240
1,72,68,0
1,72,0,240
1,63,0,0
1,70,80,0
1,67,67,0
1,63,67,0
1,63,0,960
1,67,0,0
1,70,0,0
1,63,68,0
1,67,68,0
1,70,81,0
1,70,0,960
1,67,0,0
1,63,0,0
1,77,84,0
1,65,70,0
1,70,70,0
1,65,0,720
1,77,0,0
1,79,77,0
1,67,64,0
1,67,0,240
1,79,0,0
1,65,70,0
1,77,84,0
1,77,0,480
1,65,0,0
1,70,0,0
1,68,68,0
1,60,68,0
1,72,81,0
1,72,0,240
1,60,0,0
1,62,66,0
1,74,78,0
1,74,0,240
1,62,0,0
1,68,0,0
1,75,84,0
1,63,70,0
1,67,70,0
1,67,0,960
1,63,0,0
1,75,0,0
1,63,67,0
1,67,67,0
1,75,80,0
1,75,0,240
1,63,0,0
1,62,58,0
1,74,69,0
1,74,0,240
1,62,0,0
1,67,0,0
1,72,75,0
1,60,63,0
1,68,63,0
1,60,0,240
1,72,0,0
1,74,64,0
1,62,53,0
1,62,0,240
1,74,0,0
1,68,0,0
1,67,65,0
1,63,65,0
1,58,65,0
1,70,77,0
1,58,0,960
1,58,72,0
1,67,0,480
1,70,0,0
1,63,0,0
1,70,71,0
1,68,59,0
1,65,59,0
1,65,0,480
1,58,0,0
1,70,0,0
1,68,0,0
1,67,62,0
1,70,73,0
1,58,60,0
1,63,60,0
1,58,0,960
1,58,72,0
1,67,0,480
1,63,0,0
1,70,0,0
1,65,59,0
1,68,59,0
1,70,71,0
1,70,0,480
1,58,0,0
1,65,0,0
1,68,0,0
1,63,72,0
1,67,73,0
1,75,88,0
1,75,0,720
1,67,0,0
1,67,73,0
1,67,0,240
1,63,0,0
1,70,84,0
1,67,70,0
1,63,70,0
1,63,0,480
1,67,0,0
1,70,0,0
1,72,78,0
1,67,64,0
1,63,64,0
1,67,0,240
1,72,0,0
1,67,73,0
1,67,0,240
1,63,0,0
1,70,80,0
1,67,67,0
1,63,67,0
1,63,0,960
1,67,0,0
1,70,0,0
1,67,66,0
1,63,62,0
1,70,81,0
1,70,0,240
1,72,70,0
1,72,0,240
1,63,0,0
1,67,0,0
1,63,68,0
1,67,81,0
1,67,0,240
1,72,68,0
1,72,0,240
1,63,0,0
1,63,67,0
1,70,80,0
1,67,67,0
1,67,0,960
1,70,0,0
1,63,0,0
1,70,81,0
1,67,68,0
1,63,68,0
1,63,0,960
1,67,0,0
1,70,0,0
1,77,84,0
1,65,70,0
1,70,70,0
1,65,0,720
1,77,0,0
1,67,64,0
1,79,77,0
1,79,0,240
1,67,0,0
1,65,70,0
1,77,84,0
1,77,0,480
1,65,0,0
1,70,0,0
1,72,81,0
1,60,68,0
1,68,68,0
1,60,0,240
1,72,0,0
1,62,66,0
1,74,78,0
1,74,0,240
1,62,0,0
1,68,0,0
1,67,70,0
1,63,70,0
1,75,84,0
1,75,0,960
1,63,0,0
1,67,0,0
1,63,67,0
1,67,67,0
1,75,80,0
1,75,0,240
1,63,0,0
1,62,58,0
1,74,69,0
1,74,0,240
1,62,0,0
1,67,0,0
1,72,75,0
1,60,63,0
1,68,63,0
1,60,0,240
1,72,0,0
1,74,64,0
1,62,53,0
1,62,0,240
1,74,0,0
1,68,0,0
1,70,73,0
1,67,62,0
1,63,62,0
1,63,0,960
1,63,70,0
1,63,0,240
1,62,66,0
1,62,0,240
1,67,0,0
1,70,0,0
1,66,59,0
1,72,71,0
1,60,61,0
1,60,0,240
1,62,58,0
1,62,0,240
1,72,0,0
1,66,0,0
1,67,74,0
1,60,62,0
1,62,62,0
1,60,0,960
1,59,63,0
1,59,0,240
1,62,0,0
1,67,0,0
1,55,80,240
1,55,0,480
1,60,75,0
1,60,0,120
1,63,66,360
1,67,80,0
1,60,61,0
1,60,0,480
1,67,0,0
1,63,0,0
1,62,67,0
1,62,0,240
1,65,67,240
1,67,81,0
1,62,62,0
1,62,0,480
1,67,0,0
1,65,0,0
1,63,73,0
1,63,0,240
1,62,58,240
1,65,58,0
1,67,69,0
1,62,0,240
1,60,71,0
1,60,0,240
1,67,0,0
1,65,0,0
1,59,66,0
1,59,0,240
1,67,80,240
1,55,60,0
1,65,63,0
1,65,0,480
1,55,0,0
1,67,0,0
1,60,75,0
1,60,0,240
1,60,66,240
1,67,80,0
1,63,66,0
1,63,0,480
1,67,0,0
1,60,0,0
1,57,67,0
1,57,0,240
1,57,66,240
1,65,66,0
1,67,81,0
1,57,0,240
1,59,67,0
1,59,0,240
1,67,0,0
1,65,0,0
1,60,75,0
1,60,0,240
1,63,66,240
1,67,80,0
1,60,66,0
1,60,0,480
1,67,0,0
1,63,0,0
1,75,71,0
1,79,85,0
1,67,71,0
1,72,71,0
1,72,0,240
1,75,0,0
1,79,0,0
1,67,0,0
1,67,81,240
1,55,67,0
1,55,0,480
1,67,0,0
1,72,75,0
1,67,75,0
1,63,75,0
1,60,75,0
1,60,0,240
1,72,0,0
1,67,0,0
1,63,0,0
1,60,66,240
1,72,80,0
1,72,0,480
1,60,0,0
1,62,66,0
1,74,80,0
1,71,66,0
1,67,66,0
1,67,0,240
1,62,0,0
1,74,0,0
1,71,0,0
1,62,67,240
1,74,81,0
1,74,0,480
1,62,0,0
1,67,75,0
1,63,75,0
1,75,75,0
1,72,75,0
1,72,0,240
1,67,0,0
1,63,0,0
1,75,0,0
1,62,66,240
1,74,80,0
1,74,0,240
1,62,0,0
1,72,80,0
1,60,66,0
1,60,0,240
1,72,0,0
1,62,66,0
1,67,66,0
1,71,66,0
1,74,80,0
1,74,0,240
1,62,0,0
1,67,0,0
1,71,0,0
1,55,67,240
1,67,81,0
1,67,0,480
1,55,0,0
1,60,79,0
1,72,79,0
1,72,0,240
1,60,0,0
1,75,74,240
1,79,88,0
1,67,74,0
1,72,74,0
1,72,0,480
1,75,0,0
1,79,0,0
1,67,0,0
1,63,71,0
1,75,85,0
1,75,0,240
1,63,0,0
1,62,72,240
1,67,72,0
1,71,72,0
1,74,86,0
1,74,0,240
1,62,0,0
1,67,0,0
1,71,0,0
1,75,86,0
1,63,72,0
1,63,0,240
1,75,0,0
1,60,73,0
1,72,86,0
1,72,0,240
1,60,0,0
1,75,99,0
1,79,99,0
1,67,83,0
1,72,83,0
1,72,0,240
1,75,0,0
1,79,0,0
1,67,0,0
1,77,100,0
1,80,100,0
1,68,83,0
1,72,83,0
1,72,0,960
1,77,0,0
1,80,0,0
1,68,0,0
1,70,81,0
1,74,81,0
1,77,96,0
1,82,96,0
1,82,0,480
1,70,0,0
1,74,0,0
1,77,0,0
1,67,78,0
1,70,78,0
1,79,92,0
1,75,92,0
1,75,0,240
1,67,0,0
1,70,0,0
1,79,0,0
1,75,92,0
1,72,78,0
1,67,78,0
1,79,92,0
1,79,0,240
1,75,0,0
1,72,0,0
1,67,0,0
1,77,99,0
1,72,83,0
1,68,83,0
1,80,99,0
1,80,0,960
1,77,0,0
1,72,0,0
1,68,0,0
1,77,99,0
1,82,99,0
1,74,83,0
1,70,83,0
1,70,0,480
1,77,0,0
1,82,0,0
1,74,0,0
1,67,81,0
1,70,81,0
1,75,96,0
1,79,96,0
1,79,0,240
1,67,0,0
1,70,0,0
1,75,0,0
1,87,79,240
1,79,79,0
1,79,0,120
1,87,0,0
1,75,70,0
1,75,0,120
1,75,70,120
1,75,0,120
1,86,79,0
1,79,79,0
1,79,0,120
1,86,0,0
1,74,62,0
1,74,0,120
1,74,63,120
1,74,0,120
1,84,77,0
1,78,77,0
1,78,0,120
1,84,0,0
1,72,63,0
1,72,0,120
1,72,63,120
1,72,0,120
1,74,75,0
1,79,75,0
1,83,75,0
1,83,0,120
1,79,0,0
1,74,0,0
1,71,62,0
1,71,0,120
1,71,62,120
1,71,0,120
1,80,77,0
1,74,77,0
1,71,77,0
1,71,0,120
1,74,0,0
1,80,0,0
1,68,60,0
1,68,0,120
1,68,61,120
1,68,0,120
1,72,75,0
1,79,75,0
1,79,0,120
1,72,0,0
1,67,58,0
1,67,0,120
1,67,58,120
1,67,0,120
1,67,73,0
1,71,73,0
1,77,73,0
1,77,0,120
1,71,0,0
1,67,0,0
1,65,57,0
1,65,0,120
1,65,57,120
1,65,0,120
1,63,73,0
1,75,86,0
1,67,73,0
1,72,73,0
1,72,0,240
1,63,0,0
1,75,0,0
1,67,0,0
1,67,83,0
1,72,83,0
1,75,99,0
1,79,99,0
1,79,0,240
1,67,0,0
1,72,0,0
1,75,0,0
1,68,83,0
1,72,83,0
1,80,100,0
1,77,100,0
1,77,0,960
1,68,0,0
1,72,0,0
1,80,0,0
1,77,96,0
1,74,81,0
1,70,81,0
1,82,96,0
1,82,0,480
1,77,0,0
1,74,0,0
1,70,0,0
1,75,92,0
1,70,78,0
1,67,78,0
1,79,92,0
1,79,0,240
1,75,0,0
1,70,0,0
1,67,0,0
1,75,92,0
1,79,92,0
1,67,78,0
1,72,78,0
1,72,0,240
1,75,0,0
1,79,0,0
1,67,0,0
1,68,83,0
1,80,99,0
1,77,99,0
1,72,83,0
1,72,0,960
1,68,0,0
1,80,0,0
1,77,0,0
1,70,83,0
1,82,99,0
1,74,83,0
1,77,99,0
1,77,0,480
1,70,0,0
1,82,0,0
1,74,0,0
1,67,81,0
1,70,81,0
1,75,96,0
1,79,96,0
1,79,0,240
1,67,0,0
1,70,0,0
1,75,0,0
1,79,79,240
1,75,79,0
1,75,0,120
1,79,0,0
1,67,70,0
1,67,0,120
1,67,70,120
1,67,0,120
1,80,79,0
1,75,79,0
1,75,0,120
1,80,0,0
1,68,62,0
1,68,0,120
1,68,63,120
1,68,0,120
1,82,77,0
1,75,77,0
1,75,0,120
1,82,0,0
1,70,63,0
1,70,0,120
1,70,63,120
1,70,0,120
1,84,75,0
1,75,75,0
1,75,0,120
1,84,0,0
1,72,62,0
1,72,0,120
1,72,62,120
1,72,0,120
1,79,77,0
1,83,77,0
1,83,0,120
1,79,0,0
1,71,60,0
1,71,0,120
1,71,61,120
1,71,0,120
1,84,75,0
1,79,75,0
1,79,0,120
1,84,0,0
1,72,58,0
1,72,0,120
1,72,58,120
1,72,0,120
1,86,73,0
1,79,73,0
1,79,0,120
1,86,0,0
1,74,57,0
1,74,0,120
1,74,57,120
1,74,0,120
1,79,73,0
1,75,73,0
1,87,86,0
1,87,0,240
1,75,0,0
1,79,0,0
1,75,83,0
1,79,83,0
1,87,99,0
1,84,99,0
1,84,0,240
1,75,0,0
1,79,0,0
1,87,0,0
1,89,100,0
1,84,100,0
1,77,83,0
1,77,0,960
1,84,0,0
1,89,0,0
1,85,96,0
1,77,96,0
1,73,81,0
1,73,0,480
1,77,0,0
1,85,0,0
1,74,78,0
1,86,92,0
1,77,92,0
1,77,0,240
1,86,0,0
1,74,0,0
1,84,92,0
1,87,92,0
1,75,78,0
1,79,78,0
1,79,0,240
1,84,0,0
1,87,0,0
1,75,0,0
1,77,83,0
1,84,99,0
1,89,99,0
1,89,0,960
1,84,0,0
1,77,0,0
1,73,83,0
1,77,99,0
1,85,99,0
1,85,0,480
1,77,0,0
1,73,0,0
1,86,75,0
1,82,75,0
1,77,75,0
1,77,0,120
1,82,0,0
1,86,0,0
1,74,62,0
1,74,0,120
1,74,62,120
1,74,0,120
1,78,77,0
1,81,77,0
1,81,0,120
1,78,0,0
1,69,60,0
1,69,0,120
1,69,61,120
1,69,0,120
1,82,75,0
1,77,75,0
1,77,0,120
1,82,0,0
1,70,58,0
1,70,0,120
1,70,58,120
1,70,0,120
1,78,73,0
1,69,73,0
1,69,0,120
1,78,0,0
1,66,57,0
1,66,0,120
1,66,57,120
1,66,0,120
1,77,72,0
1,70,72,0
1,70,0,120
1,77,0,0
1,65,56,0
1,65,0,120
1,65,56,120
1,65,0,120
1,66,69,0
1,69,69,0
1,69,0,120
1,66,0,0
1,63,57,0
1,63,0,120
1,63,53,120
1,63,0,120
1,70,68,0
1,65,68,0
1,65,0,120
1,70,0,0
1,62,56,0
1,62,0,120
1,62,57,120
1,62,0,120
1,63,64,0
1,57,64,0
1,57,0,120
1,63,0,0
1,54,56,0
1,54,0,120
1,54,56,120
1,54,0,120
1,65,67,0
1,58,67,0
1,58,0,120
1,65,0,0
1,53,51,0
1,53,0,120
1,53,51,120
1,53,0,120
1,54,63,0
1,57,63,0
1,57,0,120
1,54,0,0
1,51,52,0
1,51,0,120
1,51,49,120
1,51,0,120
1,58,62,0
1,53,62,0
1,53,0,120
1,58,0,0
1,50,51,0
1,50,0,120
1,50,52,120
1,50,0,120
1,57,59,0
1,51,59,0
1,51,0,120
1,57,0,0
1,48,51,0
1,48,0,120
1,48,51,120
1,48,0,120
1,50,59,0
1,58,59,0
1,58,0,120
1,50,0,0
1,46,46,0
1,46,0,120
1,46,46,120
1,46,0,120
1,51,57,0
1,57,57,0
1,57,0,120
1,51,0,0
1,48,47,0
1,48,0,120
1,48,44,120
1,48,0,120
1,50,56,0
1,58,56,0
1,58,0,120
1,50,0,0
1,46,46,0
1,46,0,120
1,46,47,120
1,46,0,120
1,57,52,0
1,51,52,0
1,51,0,120
1,57,0,0
1,48,46,0
1,48,0,120
1,48,46,120
1,48,0,120
1,50,59,0
1,58,59,0
1,58,0,240
1,50,0,0
1,50,49,240
1,50,0,160
1,53,51,0
1,53,0,160
1,58,49,0
1,58,0,160
1,62,52,0
1,62,0,160
1,58,54,0
1,58,0,160
1,62,56,0
1,62,0,160
1,65,58,0
1,65,0,160
1,70,60,0
1,70,0,160
1,74,61,0
1,74,0,160
1,63,64,0
1,75,79,0
1,67,64,0
1,67,0,720
1,75,0,0
1,67,68,0
1,67,0,240
1,63,0,0
1,63,56,0
1,67,56,0
1,70,71,0
1,70,0,480
1,67,0,0
1,63,0,0
1,72,70,0
1,67,57,0
1,63,57,0
1,67,0,240
1,72,0,0
1,67,65,0
1,67,0,240
1,63,0,0
1,70,71,0
1,67,60,0
1,63,60,0
1,63,0,960
1,67,0,0
1,70,0,0
1,63,53,0
1,67,57,0
1,70,70,0
1,72,61,240
1,70,0,20
1,63,0,220
1,67,0,0
1,72,0,0
1,63,59,0
1,67,70,0
1,72,59,240
1,67,0,20
1,72,0,220
1,63,0,0
1,67,60,0
1,63,60,0
1,70,71,0
1,70,0,1120
1,63,0,0
1,67,0,0
1,62,57,0
1,62,0,160
1,63,57,0
1,63,0,160
1,67,58,0
1,67,0,160
1,70,62,0
1,70,0,160
1,75,66,0
1,75,0,160
1,77,75,0
1,65,63,0
1,70,63,0
1,79,69,720
1,67,57,0
1,65,0,20
1,77,0,0
1,65,63,220
1,77,75,0
1,79,0,20
1,67,0,0
1,65,0,460
1,70,0,0
1,77,0,0
1,72,72,0
1,60,61,0
1,68,61,0
1,72,0,240
1,62,59,0
1,74,70,0
1,60,0,20
1,74,0,220
1,62,0,0
1,63,63,0
1,67,63,0
1,75,75,0
1,68,0,20
1,63,0,1180
1,75,0,0
1,62,52,0
1,74,62,0
1,67,0,240
1,72,67,0
1,60,56,0
1,68,56,0
1,74,0,20
1,62,0,0
1,62,47,220
1,74,57,0
1,60,0,20
1,72,0,0
1,68,0,220
1,62,0,0
1,74,0,0
1,63,55,0
1,67,55,0
1,70,69,0
1,70,0,480
1,67,0,0
1,63,0,0
1,63,53,0
1,67,53,0
1,70,66,0
1,63,0,720
1,62,56,0
1,62,0,240
1,70,0,0
1,67,0,0
1,68,50,0
1,70,63,0
