track,note,velocity,time
1,59,110,25328
1,59,119,0
1,62,123,0
1,59,119,0
1,64,119,0
1,59,119,0
1,59,125,0
1,62,125,0
1,64,119,0
1,62,123,0
1,62,127,0
1,59,123,0
1,57,123,0
1,55,123,0
1,55,112,0
1,55,115,0
1,57,119,0
1,59,117,0
1,57,119,0
1,55,119,0
1,57,115,0
1,59,115,0
1,57,117,0
1,55,125,0
1,57,115,0
1,57,115,0
1,57,119,0
1,55,117,0
1,55,123,0
1,59,119,0
1,64,119,0
1,62,125,0
1,59,115,0
1,62,119,0
1,64,123,0
1,59,115,0
1,64,127,0
1,62,127,0
1,59,127,0
1,62,125,0
1,59,125,0
1,60,127,0
1,64,119,0
1,62,125,0
1,62,127,0
1,62,127,0
1,62,119,0
1,62,125,0
1,59,127,0
1,57,119,0
1,55,127,0
1,57,127,0
1,57,125,0
1,55,117,0
1,57,127,0
1,59,125,0
1,59,127,0
1,57,127,0
1,55,127,0
1,57,119,0
1,59,127,0
1,55,127,0
1,64,127,0
1,62,127,0
1,62,127,0
1,59,125,0
1,62,127,0
1,59,127,0
1,62,119,0
1,64,127,0
1,62,125,0
1,59,119,0
1,67,115,0
1,64,112,0
1,64,117,0
1,62,125,0
1,62,127,0
1,67,119,0
1,67,127,0
1,64,127,0
1,64,125,0
1,64,119,0
1,64,119,0
1,62,127,0
1,62,125,0
1,62,127,0
1,60,127,0
1,59,127,0
1,67,115,0
1,64,125,0
1,64,125,0
1,62,119,0
1,62,127,0
1,67,127,0
1,64,117,0
1,64,127,0
1,64,127,0
1,62,123,0
1,64,127,0
1,64,115,0
1,62,125,0
1,66,117,0
1,66,115,0
1,66,115,0
1,66,125,0
1,59,115,0
1,59,119,0
1,62,125,0
1,59,127,0
1,64,119,0
1,59,119,0
1,59,125,0
1,62,125,0
1,64,119,0
1,62,123,0
1,62,127,0
1,59,123,0
1,57,123,0
1,55,123,0
1,55,112,0
1,55,115,0
1,57,119,0
1,59,117,0
1,57,119,0
1,55,119,0
1,57,115,0
1,59,115,0
1,57,117,0
1,55,125,0
1,57,115,0
1,57,115,0
1,57,119,0
1,55,117,0
1,55,123,0
1,59,119,0
1,64,119,0
1,62,125,0
1,59,115,0
1,62,119,0
1,64,123,0
1,59,115,0
1,64,127,0
1,62,127,0
1,59,127,0
1,62,125,0
1,59,125,0
1,60,127,0
1,64,119,0
1,62,125,0
1,62,127,0
1,62,127,0
1,62,119,0
1,62,125,0
1,59,127,0
1,57,119,0
1,55,127,0
1,57,127,0
1,57,125,0
1,55,117,0
1,57,127,0
1,59,125,0
1,59,127,0
1,57,127,0
1,55,127,0
1,57,119,0
1,59,127,0
1,55,127,0
1,64,127,0
1,62,127,0
1,62,127,0
1,59,125,0
1,62,127,0
1,59,127,0
1,62,119,0
1,64,127,0
1,62,125,0
1,59,119,0
1,67,115,0
1,64,112,0
1,64,117,0
1,62,125,0
1,62,127,0
1,67,119,0
1,67,127,0
1,64,127,0
1,64,125,0
1,64,119,0
1,64,119,0
1,62,127,0
1,62,125,0
1,62,127,0
1,60,127,0
1,59,127,0
1,67,115,0
1,64,125,0
1,64,125,0
1,62,119,0
1,62,127,0
1,67,127,0
1,64,117,0
1,64,127,0
1,64,127,0
1,62,123,0
1,64,127,0
1,64,115,0
1,62,125,0
1,66,112,0
1,66,110,0
1,66,117,0
1,66,123,0
1,67,119,0
1,67,119,0
1,69,127,0
1,67,125,0
1,71,127,0
1,71,119,0
1,71,119,0
1,71,119,0
1,69,119,0
1,67,127,0
1,64,125,0
1,62,125,0
1,64,127,0
1,62,119,0
1,62,125,0
1,59,119,0
1,64,119,0
1,62,127,0
1,62,125,0
1,59,127,0
1,57,125,0
1,55,125,0
1,64,115,0
1,62,115,0
1,62,125,0
1,59,115,0
1,62,119,0
1,64,125,0
1,64,119,0
1,62,119,0
1,62,123,0
1,59,119,0
1,62,125,0
1,59,123,0
1,57,119,0
1,55,127,0
1,64,125,0
1,62,119,0
1,62,125,0
1,62,119,0
1,64,119,0
1,67,119,0
1,67,127,0
1,59,115,0
1,57,119,0
1,55,119,0
1,67,117,0
1,67,125,0
1,69,117,0
1,67,125,0
1,71,125,0
1,71,119,0
1,71,125,0
1,71,117,0
1,69,125,0
1,67,119,0
1,76,123,0
1,71,119,0
1,74,119,0
1,76,115,0
1,76,119,0
1,71,119,0
1,74,127,0
1,71,127,0
1,69,127,0
1,67,127,0
1,67,117,0
1,67,123,0
1,69,115,0
1,67,119,0
1,71,125,0
1,71,119,0
1,72,115,0
1,74,127,0
1,71,123,0
1,69,125,0
1,67,119,0
1,67,125,0
1,67,127,0
1,67,123,0
1,71,119,0
1,71,112,0
1,69,125,0
1,67,119,0
1,67,127,0
1,67,127,0
1,67,123,0
1,71,123,0
1,69,119,0
1,67,119,0
1,67,127,0
1,67,119,0
1,67,127,0
1,71,125,0
1,71,119,0
1,71,125,0
1,71,117,0
1,69,125,0
1,67,119,0
1,76,123,0
1,71,119,0
1,74,119,0
1,76,115,0
1,76,119,0
1,71,119,0
1,74,127,0
1,71,127,0
1,69,127,0
1,67,127,0
1,67,117,0
1,67,123,0
1,69,115,0
1,67,119,0
1,71,125,0
1,71,119,0
1,72,115,0
1,74,127,0
1,71,123,0
1,69,125,0
1,67,119,0
1,67,125,0
1,67,127,0
1,67,123,0
1,71,119,0
1,71,112,0
1,69,125,0
1,67,119,0
1,67,127,0
1,67,127,0
1,67,123,0
1,71,123,0
1,69,119,0
1,67,119,0
1,67,127,0
1,67,119,0
1,67,127,0
2,40,104,1712
2,52,115,4
2,76,105,196
2,67,76,0
2,71,76,0
2,40,104,196
2,52,115,4
2,76,105,196
2,67,76,0
2,71,76,0
2,40,104,196
2,52,115,4
2,76,105,196
2,67,76,0
2,71,76,0
2,40,104,196
2,52,115,4
2,76,105,196
2,67,76,0
2,71,76,0
2,40,104,196
2,52,115,4
2,76,105,196
2,67,76,0
2,71,76,0
2,40,104,196
2,52,115,4
2,76,105,196
2,67,76,0
2,71,76,0
2,40,104,196
2,52,115,4
2,76,105,196
2,67,76,0
2,71,76,0
2,40,104,196
2,52,115,4
2,76,105,196
2,67,76,0
2,71,76,0
2,40,104,196
2,52,115,4
2,76,105,196
2,67,76,0
2,71,76,0
2,40,104,196
2,52,115,4
2,76,105,196
2,67,76,0
2,71,76,0
2,40,104,196
2,52,115,4
2,76,105,196
2,67,76,0
2,71,76,0
2,40,104,196
2,52,115,4
2,76,105,196
2,67,76,0
2,71,76,0
2,40,104,196
2,52,115,4
2,76,105,196
2,67,76,0
2,71,76,0
2,40,104,196
2,52,115,4
2,76,105,196
2,67,76,0
2,71,76,0
2,40,104,196
2,52,115,4
2,76,105,196
2,67,76,0
2,71,76,0
2,40,104,1732
2,52,119,4
2,67,77,196
2,71,84,0
2,76,127,0
2,40,104,196
2,52,119,4
2,67,77,196
2,71,84,0
2,76,127,0
2,40,104,196
2,52,119,4
2,67,77,196
2,71,84,0
2,76,127,0
2,40,104,196
2,52,119,4
2,67,77,196
2,71,84,0
2,76,127,0
2,40,104,196
2,52,119,4
2,67,77,196
2,71,84,0
2,76,127,0
2,40,104,196
2,52,119,4
2,67,77,196
2,71,84,0
2,76,127,0
2,40,104,196
2,52,119,4
2,67,77,196
2,71,84,0
2,76,127,0
2,40,104,196
2,52,119,4
2,67,77,196
2,71,84,0
2,76,127,0
2,40,104,196
2,52,119,4
2,67,77,196
2,71,84,0
2,76,127,0
2,40,104,196
2,52,119,4
2,67,77,196
2,71,84,0
2,76,127,0
2,40,104,196
2,52,119,4
2,67,77,196
2,71,84,0
2,76,127,0
2,40,104,196
2,52,119,4
2,67,77,196
2,71,84,0
2,76,127,0
2,40,104,196
2,52,119,4
2,67,77,196
2,71,84,0
2,76,127,0
2,40,104,196
2,52,119,4
2,67,77,196
2,71,84,0
2,76,127,0
2,40,104,196
2,52,119,4
2,67,77,196
2,71,84,0
2,76,127,0
2,71,110,388
2,66,107,0
2,62,112,0
2,67,52,4
2,64,61,0
2,60,72,0
2,71,105,0
2,67,64,4
2,64,74,0
2,60,69,0
2,71,105,0
2,55,84,4
2,71,84,0
2,66,97,0
2,62,89,0
2,66,99,4
2,55,80,0
2,71,89,0
2,62,72,0
2,67,94,384
2,74,98,0
2,69,95,4
2,76,104,0
2,74,105,4
2,67,99,0
2,72,101,4
2,66,99,0
2,67,62,4
2,64,68,0
2,60,53,0
2,71,112,0
2,64,76,4
2,67,46,0
2,71,99,0
2,60,80,0
2,57,66,4
2,64,62,0
2,60,72,0
2,69,104,0
2,71,84,4
2,66,85,0
2,59,90,0
2,62,95,0
2,62,101,4
2,66,89,0
2,71,85,0
2,59,94,0
2,62,104,4
2,71,86,0
2,66,89,0
2,59,101,0
2,62,112,4
2,59,104,0
2,66,97,0
2,71,89,0
2,40,104,964
2,52,119,4
2,67,77,196
2,71,84,0
2,76,127,0
2,40,104,196
2,52,119,4
2,67,77,196
2,71,84,0
2,76,127,0
2,40,104,196
2,52,119,4
2,67,77,196
2,71,84,0
2,76,127,0
2,40,104,196
2,52,119,4
2,67,77,196
2,71,84,0
2,76,127,0
2,40,104,196
2,52,119,4
2,67,77,196
2,71,84,0
2,76,127,0
2,40,104,196
2,52,119,4
2,67,77,196
2,71,84,0
2,76,127,0
2,40,104,196
2,52,119,4
2,67,77,196
2,71,84,0
2,76,127,0
2,40,104,196
2,52,119,4
2,67,77,196
2,71,84,0
2,76,127,0
2,40,104,196
2,52,119,4
2,67,77,196
2,71,84,0
2,76,127,0
2,40,104,196
2,52,119,4
2,67,77,196
2,71,84,0
2,76,127,0
2,40,104,196
2,52,119,4
2,67,77,196
2,71,84,0
2,76,127,0
2,40,104,196
2,52,119,4
2,67,77,196
2,71,84,0
2,76,127,0
2,40,104,196
2,52,119,4
2,67,77,196
2,71,84,0
2,76,127,0
2,40,104,196
2,52,119,4
2,67,77,196
2,71,84,0
2,76,127,0
2,40,104,196
2,52,119,4
2,67,77,196
2,71,84,0
2,76,127,0
2,71,110,388
2,66,107,0
2,62,112,0
2,67,52,4
2,64,61,0
2,60,72,0
2,71,105,0
2,67,64,4
2,64,74,0
2,60,69,0
2,71,105,0
2,55,84,4
2,71,84,0
2,66,97,0
2,62,89,0
2,66,99,4
2,55,80,0
2,71,89,0
2,62,72,0
2,67,94,384
2,74,98,0
2,69,95,4
2,76,104,0
2,74,105,4
2,67,99,0
2,72,101,4
2,66,99,0
2,67,62,4
2,64,68,0
2,60,53,0
2,71,112,0
2,64,76,4
2,67,46,0
2,71,99,0
2,60,80,0
2,57,66,4
2,64,62,0
2,60,72,0
2,69,104,0
2,66,95,4
2,59,93,0
2,71,94,0
2,62,94,0
2,66,93,4
2,62,112,0
2,71,84,0
2,59,105,0
2,62,107,4
2,59,104,0
2,66,97,0
2,71,98,0
2,62,110,4
2,59,105,0
2,66,103,0
2,71,99,0
2,72,110,388
2,74,117,4
2,72,115,4
2,74,123,4
2,67,119,388
2,64,125,4
2,64,119,4
2,62,119,4
2,59,115,4
2,57,112,4
2,55,119,4
2,57,119,4
2,55,119,4
2,64,125,4
2,64,115,4
2,62,125,4
2,59,115,4
2,57,119,4
2,55,117,4
2,59,119,4
2,57,119,4
2,55,119,4
2,67,119,388
2,69,123,4
2,67,127,4
2,57,125,4
2,59,119,4
2,55,123,4
2,52,117,4
2,55,119,4
2,57,119,4
2,67,123,196
2,57,123,4
2,59,119,4
2,55,123,4
2,52,117,4
2,55,123,4
2,57,127,4
2,59,125,4
2,64,115,4
2,59,125,4
2,64,107,4
2,59,119,0
2,57,115,4
2,62,99,0
2,71,125,772
2,69,123,4
2,67,119,4
2,69,119,4
2,67,119,1156
2,71,104,0
2,67,117,4
2,71,99,0
2,67,125,4
2,71,93,0
2,67,112,4
2,71,107,0
2,67,117,4
2,71,95,0
2,66,110,4
2,62,105,0
2,57,125,196
2,59,112,4
2,62,119,4
2,64,125,100
2,62,125,100
2,64,117,4
2,64,127,4
2,74,117,4
2,71,123,4
2,67,127,4
2,64,125,4
2,62,127,100
2,59,125,100
2,57,117,4
2,55,119,4
2,59,117,4
2,59,117,4
2,55,123,4
2,52,123,4
2,50,117,4
2,52,125,4
2,62,125,4
2,64,119,4
2,60,123,4
2,59,119,4
2,55,125,4
2,57,119,4
2,55,119,4
2,52,119,4
2,52,119,4
2,60,123,4
2,59,119,4
2,55,119,4
2,57,119,4
2,55,125,4
2,64,123,4
2,64,127,4
2,67,119,4
2,67,119,4
2,57,119,4
2,59,112,4
2,59,119,4
2,62,125,100
2,64,119,100
2,62,119,4
2,59,119,4
2,69,119,4
2,67,125,4
2,64,119,4
2,69,123,4
2,71,123,4
2,69,119,196
2,71,119,4
2,67,73,4
2,64,73,0
2,60,74,0
2,71,112,0
2,67,72,4
2,64,89,0
2,71,115,0
2,60,80,0
2,55,80,4
2,71,95,0
2,66,99,0
2,62,94,0
2,55,78,4
2,71,94,0
2,66,105,0
2,62,86,0
2,69,93,960
2,76,99,0
2,72,112,0
2,72,93,4
2,76,115,0
2,79,110,0
2,67,110,4
2,71,115,0
2,76,98,0
2,71,104,4
2,67,115,0
2,64,112,0
2,62,93,4
2,69,94,0
2,66,107,0
2,67,67,4
2,64,74,0
2,60,73,0
2,71,112,0
2,60,74,4
2,64,81,0
2,71,110,0
2,67,59,0
2,55,73,4
2,66,89,0
2,71,82,0
2,62,80,0
2,71,77,4
2,66,78,0
2,55,72,0
2,62,72,0
2,64,74,4
2,67,69,0
2,60,70,0
2,71,112,0
2,67,43,4
2,64,73,0
2,60,66,0
2,71,112,0
2,55,77,4
2,66,95,0
2,71,94,0
2,62,84,0
2,71,86,4
2,66,91,0
2,55,74,0
2,62,74,0
2,60,53,4
2,67,58,0
2,64,74,0
2,71,107,0
2,71,104,4
2,67,74,0
2,64,77,0
2,60,70,0
2,55,85,4
2,71,84,0
2,62,94,0
2,66,87,0
2,55,76,4
2,66,91,0
2,71,84,0
2,62,98,0
2,64,74,4
2,67,69,0
2,60,70,0
2,71,112,0
2,67,43,4
2,64,73,0
2,60,66,0
2,71,112,0
2,55,77,4
2,66,95,0
2,71,94,0
2,62,84,0
2,71,86,4
2,66,91,0
2,55,74,0
2,62,74,0
2,60,53,4
2,67,58,0
2,64,74,0
2,71,107,0
2,71,104,4
2,67,74,0
2,64,77,0
2,60,70,0
2,55,85,4
2,71,84,0
2,62,94,0
2,66,87,0
2,55,76,4
2,66,91,0
2,71,84,0
2,62,98,0
2,62,110,4
2,59,123,0
2,55,115,0
3,57,76,13808
3,66,107,0
3,62,81,0
3,59,81,4
3,67,90,0
3,64,94,0
3,57,76,4
3,66,107,0
3,62,81,0
3,59,81,4
3,67,90,0
3,64,94,0
3,62,85,4
3,65,65,0
3,59,80,0
3,64,94,4
3,67,80,0
3,60,89,0
3,66,117,4
3,57,73,0
3,62,70,0
3,67,76,4
3,59,81,0
3,64,76,0
3,62,95,1440
3,59,99,0
3,66,115,0
3,62,105,4
3,59,104,0
3,66,107,0
3,62,105,4
3,59,105,0
3,66,105,0
3,62,105,4
3,59,104,0
3,66,112,0
3,71,89,4
3,67,86,0
3,64,94,0
3,71,72,4
3,67,81,0
3,64,80,0
3,71,78,4
3,67,94,0
3,64,86,0
3,67,90,4
3,64,89,0
3,71,86,0
3,71,81,196
3,67,94,0
3,64,94,0
3,67,90,196
3,71,84,0
3,64,86,0
3,71,84,196
3,66,74,0
3,62,98,0
3,66,69,4
3,62,94,0
3,71,82,0
3,66,78,4
3,62,99,0
3,71,98,0
3,66,74,4
3,62,94,0
3,71,99,0
3,62,94,196
3,66,79,0
3,71,94,0
3,62,99,196
3,66,79,0
3,71,99,0
3,71,99,196
3,67,94,0
3,64,99,0
3,71,89,4
3,64,94,0
3,67,89,0
3,71,93,4
3,67,99,0
3,64,94,0
3,71,104,4
3,67,104,0
3,64,99,0
3,71,94,196
3,67,105,0
3,64,105,0
3,71,94,196
3,64,95,0
3,67,101,0
3,71,99,196
