track,note,velocity,time
1,32,82,1536
1,27,64,176
1,32,64,0
1,39,56,64
1,39,56,48
1,27,64,16
1,32,73,16
1,32,60,112
1,32,64,128
1,32,64,192
1,44,64,0
1,44,73,80
1,39,60,48
1,32,64,0
1,32,64,144
1,32,73,128
1,27,82,176
1,27,82,176
1,30,73,0
1,35,99,0
1,35,113,160
1,35,113,112
1,35,113,144
1,35,99,208
1,35,99,128
1,42,88,48
1,41,99,32
1,40,99,64
1,40,127,192
1,40,127,128
1,28,99,80
1,28,88,160
1,28,88,128
1,37,113,48
1,35,99,80
1,35,99,192
1,35,99,96
1,35,99,144
1,35,88,160
1,35,88,112
1,42,88,48
1,41,99,64
1,40,88,48
1,40,127,160
1,40,113,112
1,39,113,208
1,39,127,176
1,27,99,16
1,29,113,96
1,30,88,32
1,32,99,16
1,32,88,192
1,32,99,96
1,32,99,128
1,32,88,144
1,32,88,112
1,28,99,96
1,28,80,176
1,28,99,96
1,27,113,112
1,27,113,128
1,39,127,16
1,32,99,208
1,32,88,176
1,32,80,96
1,32,99,192
1,28,99,112
1,28,99,128
1,27,113,48
1,30,88,64
1,34,99,32
1,35,99,0
1,35,113,160
1,35,113,112
1,35,113,128
1,35,99,192
1,35,99,128
1,42,88,48
1,41,99,32
1,40,99,80
1,40,127,192
1,40,127,144
1,28,99,80
1,28,88,144
1,28,88,128
1,37,113,48
1,35,99,80
1,35,99,192
1,35,99,112
1,35,99,144
1,35,88,160
1,35,88,112
1,42,88,48
1,41,99,48
1,40,88,64
1,40,127,176
1,40,113,128
1,39,113,208
1,39,127,176
1,27,99,16
1,29,113,80
1,30,88,32
1,32,99,16
1,32,88,192
1,32,99,96
1,32,99,128
1,32,88,144
1,32,88,112
1,28,99,96
1,28,80,176
1,28,99,96
1,27,113,112
1,27,113,128
1,39,127,32
1,32,113,192
1,32,99,176
1,32,113,112
1,32,99,144
1,32,113,176
1,32,99,80
1,25,99,32
1,27,113,32
1,28,88,48
1,28,99,128
1,28,88,112
1,27,113,64
1,27,99,160
1,27,99,112
1,28,99,128
1,28,113,176
1,28,113,112
1,27,99,32
1,32,99,80
1,32,99,112
1,32,99,144
1,32,113,192
1,27,113,96
1,32,99,48
1,32,99,112
1,32,113,112
1,27,99,112
1,27,127,144
1,34,127,0
1,35,113,0
1,35,113,208
1,35,113,128
1,35,99,144
1,42,88,80
1,44,99,48
1,47,64,32
1,44,88,32
1,42,71,64
1,41,113,48
1,40,99,16
1,40,127,160
1,28,88,192
1,28,88,144
1,28,88,128
1,28,88,112
1,37,113,0
1,35,113,48
1,35,99,176
1,35,99,128
1,35,113,144
1,35,113,144
1,35,99,112
1,42,99,64
1,41,88,32
1,40,99,16
1,40,113,144
1,28,99,32
1,39,113,80
1,39,127,192
1,27,113,192
1,29,127,32
1,30,99,32
1,32,99,48
1,32,99,192
1,32,99,96
1,32,99,128
1,32,80,112
1,32,80,128
1,25,113,16
1,27,113,0
1,28,88,16
1,28,88,128
1,28,88,112
1,27,99,32
1,39,99,32
1,32,99,112
1,32,99,176
1,32,113,112
1,32,99,112
1,32,88,144
1,32,99,80
1,25,113,16
1,27,99,192
1,28,88,16
1,28,88,128
1,28,99,96
1,27,127,16
1,27,113,80
1,39,99,16
1,27,113,0
1,28,99,64
1,28,88,160
1,28,99,112
1,27,113,16
1,27,99,32
1,27,127,128
1,28,99,48
1,28,88,192
1,28,99,112
1,27,113,80
1,27,99,160
1,27,113,112
1,28,99,160
1,28,99,192
1,32,88,0
1,35,80,0
1,37,80,0
1,40,71,48
1,39,88,82
1,39,99,192
1,39,113,112
1,25,99,32
1,27,80,192
1,28,99,16
1,28,113,160
1,32,80,0
1,35,88,16
1,37,71,0
1,40,80,32
1,39,99,64
1,39,113,208
1,39,113,96
1,42,71,48
1,41,80,48
1,40,113,16
1,35,71,32
1,28,99,192
1,32,71,352
1,35,64,48
1,37,80,16
1,39,99,272
1,39,113,208
1,39,113,144
1,25,113,0
1,27,113,48
1,28,99,4
1,28,113,160
1,32,80,0
1,35,88,16
1,37,71,0
1,40,80,48
1,39,99,80
1,39,113,224
1,39,113,96
1,42,71,64
1,41,80,48
1,40,113,32
1,35,71,48
1,28,99,192
1,32,71,352
1,35,64,32
1,37,80,16
1,39,99,288
1,39,113,192
1,39,113,128
1,25,113,0
1,27,113,48
1,28,88,0
1,28,99,160
1,32,88,0
1,35,88,32
1,37,80,48
1,40,71,48
1,39,113,80
1,39,99,160
1,39,113,80
1,25,127,0
1,27,80,0
1,32,99,32
1,32,99,160
1,32,99,128
1,32,99,176
1,39,99,64
1,39,99,32
1,27,113,16
1,32,99,16
1,32,88,112
1,32,113,112
1,27,113,112
2,44,113,1536
2,56,71,768
2,59,88,0
2,63,113,0
2,59,88,128
2,56,80,0
2,63,99,0
2,58,88,112
2,61,64,0
2,54,64,0
2,44,99,0
2,39,113,112
2,44,99,64
2,59,88,768
2,56,88,0
2,63,88,0
2,59,99,128
2,56,71,0
2,63,99,0
2,61,99,112
2,54,80,0
2,58,99,0
2,39,113,160
2,44,99,96
2,59,88,768
2,56,80,0
2,63,113,0
2,59,88,144
2,63,99,0
2,56,80,0
2,58,99,144
2,61,80,0
2,54,80,0
2,39,88,96
2,44,99,80
2,63,80,768
2,56,69,0
2,59,88,0
2,59,88,160
2,63,99,0
2,56,80,0
2,39,113,128
2,54,71,0
2,58,99,0
2,61,99,0
2,54,99,0
2,58,88,192
2,61,64,0
2,54,49,48
2,51,69,0
2,47,56,0
2,63,88,0
2,58,113,0
2,66,64,0
2,63,99,256
2,52,88,0
2,56,88,0
2,59,80,0
2,61,71,80
2,59,69,192
2,61,80,16
2,58,88,112
2,47,69,0
2,54,52,0
2,66,64,0
2,63,80,0
2,52,34,336
2,56,29,0
2,63,88,0
2,66,80,0
2,59,71,0
2,56,43,160
2,63,71,0
2,58,71,0
2,46,43,0
2,51,52,0
2,44,52,208
2,59,80,0
2,56,69,0
2,63,80,0
2,54,71,64
2,58,88,0
2,44,64,0
2,61,71,0
2,56,80,96
2,59,69,0
2,52,71,0
2,66,49,256
2,58,88,0
2,54,56,0
2,51,88,0
2,63,80,0
2,46,80,0
2,51,69,128
2,46,80,0
2,55,69,0
2,58,88,0
2,63,99,0
2,67,69,0
2,56,71,80
2,59,80,0
2,63,80,0
2,61,69,112
2,54,69,0
2,58,88,0
2,59,69,128
2,56,69,0
2,52,64,0
2,56,99,96
2,59,88,0
2,52,88,0
2,54,80,96
2,51,99,0
2,58,113,0
2,54,99,96
2,58,113,0
2,54,49,32
2,58,113,0
2,66,64,0
2,51,69,0
2,47,56,0
2,63,88,0
2,63,99,256
2,52,88,0
2,56,88,0
2,59,80,0
2,61,71,80
2,59,69,192
2,61,80,16
2,47,69,128
2,54,52,0
2,66,64,0
2,63,80,0
2,58,88,0
2,56,29,224
2,52,34,0
2,63,88,96
2,66,80,0
2,59,71,0
2,55,43,240
2,67,69,0
2,63,71,0
2,58,71,0
2,46,43,0
2,51,52,0
2,44,52,208
2,59,80,0
2,56,69,0
2,63,80,0
2,54,71,64
2,58,88,0
2,44,64,0
2,61,71,0
2,56,80,96
2,59,69,0
2,52,71,0
2,66,49,256
2,58,88,0
2,54,56,0
2,51,88,0
2,63,80,0
2,46,80,0
2,51,69,160
2,46,80,0
2,55,69,0
2,58,88,0
2,63,99,0
2,67,69,0
2,63,80,80
2,56,69,0
2,44,71,0
2,59,80,0
2,54,71,160
2,58,99,0
2,61,64,0
2,44,71,0
2,56,80,80
2,59,69,0
2,52,71,0
2,58,25,336
2,51,56,0
2,46,69,0
2,54,56,0
2,46,56,192
2,55,40,0
2,67,71,0
2,58,99,0
2,51,52,0
2,63,99,0
2,63,88,128
2,59,80,0
2,56,64,0
2,66,69,384
2,54,52,0
2,58,99,0
2,63,88,0
2,51,69,0
2,46,69,0
2,44,113,32
2,59,88,768
2,56,69,0
2,63,99,0
2,59,88,160
2,56,80,0
2,63,99,0
2,54,80,240
2,58,113,0
2,61,80,0
2,44,99,144
2,59,88,768
2,56,69,0
2,63,99,0
2,59,88,128
2,56,69,0
2,63,99,0
2,39,80,192
2,61,71,0
2,58,113,0
2,54,69,0
2,54,80,0
2,58,113,192
2,61,71,0
2,47,64,64
2,51,88,0
2,54,80,0
2,66,80,0
2,63,127,0
2,58,88,0
2,61,80,128
2,66,80,0
2,58,80,0
2,66,71,0
2,63,69,0
2,58,80,0
2,56,80,16
2,63,113,0
2,59,80,0
2,52,52,0
2,61,69,32
2,63,88,192
2,61,71,160
2,63,88,48
2,54,43,0
2,47,56,0
2,66,60,0
2,58,80,0
2,61,71,48
2,66,56,0
2,58,71,0
2,63,71,48
2,61,69,16
2,63,88,80
2,59,56,0
2,56,69,0
2,52,52,0
2,46,26,64
2,55,28,0
2,67,80,0
2,63,99,0
2,58,99,0
2,51,56,0
2,63,127,192
2,67,69,144
2,56,69,32
2,59,80,0
2,63,88,0
2,44,71,0
2,54,64,64
2,44,71,0
2,61,60,0
2,58,80,0
2,59,60,224
2,56,52,0
2,52,60,0
2,63,99,0
2,66,71,80
2,58,88,0
2,63,88,0
2,51,64,0
2,46,88,0
2,54,40,0
2,55,46,80
2,58,88,0
2,67,88,0
2,51,60,0
2,63,88,0
2,46,69,0
2,59,60,32
2,63,80,0
2,56,52,0
2,54,71,80
2,58,99,0
2,61,71,0
2,44,60,0
2,59,64,144
2,56,69,0
2,52,71,0
2,63,99,0
2,66,69,80
2,58,99,0
2,46,36,0
2,63,69,0
2,54,43,0
2,51,52,0
2,55,52,96
2,67,71,0
2,58,80,0
2,46,56,0
2,63,80,0
2,51,52,0
2,52,20,64
2,63,64,32
2,59,64,0
2,66,69,0
2,56,26,0
2,54,46,128
2,51,80,0
2,46,88,0
2,66,52,0
2,63,71,0
2,71,56,224
2,66,69,0
2,63,60,0
2,59,64,0
2,56,64,0
2,52,52,0
2,66,71,96
2,58,113,0
2,63,99,0
2,54,64,0
2,46,113,0
2,51,99,0
2,63,69,224
2,58,69,192
2,51,99,1634
2,66,64,0
2,58,80,0
2,63,80,0
2,68,80,80
2,52,80,0
2,59,69,0
2,63,80,0
2,58,80,112
2,51,71,0
2,66,69,0
2,63,88,0
2,68,71,96
2,52,80,0
2,59,69,0
2,63,71,0
2,51,88,64
2,58,80,0
2,66,64,0
2,63,80,0
2,68,80,116
2,52,80,0
2,59,69,0
2,63,80,0
2,58,80,96
2,51,71,0
2,66,69,0
2,63,88,0
2,68,71,96
2,52,80,0
2,59,69,0
2,63,71,0
2,51,88,80
2,58,80,0
2,66,64,0
2,63,80,0
2,68,69,128
2,52,80,0
2,59,80,0
2,63,80,0
2,58,80,80
2,51,113,0
2,63,88,0
2,66,69,0
2,63,71,864
2,59,80,0
2,44,88,0
2,56,69,0
2,59,88,112
2,56,71,0
2,63,99,0
2,44,99,0
2,58,113,144
2,44,113,0
2,61,88,0
2,54,71,0
2,44,88,816
2,59,88,0
2,56,69,0
2,63,99,0
2,59,99,112
2,63,99,0
2,56,71,0
2,44,88,0
2,39,88,128
2,61,80,0
2,54,88,0
2,58,99,0
3,51,80,7104
3,51,99,80
3,39,88,48
3,44,99,0
3,80,99,0
3,44,80,64
3,44,99,96
3,44,99,192
3,56,88,64
3,56,69,80
3,51,71,128
3,44,88,64
3,44,99,144
3,44,99,96
3,39,99,176
3,39,80,176
3,42,99,0
3,47,99,48
3,47,99,224
3,47,99,96
3,47,99,160
3,47,99,160
3,47,99,128
3,42,99,48
3,41,113,0
3,40,113,16
3,40,113,208
3,40,113,128
3,40,88,112
3,40,99,160
3,40,113,112
3,49,113,32
3,47,99,80
3,47,113,176
3,47,113,128
3,47,99,128
3,47,99,144
3,47,99,112
3,42,88,48
3,41,113,0
3,40,99,16
3,40,113,160
3,40,99,112
3,51,113,96
3,51,99,112
3,39,113,16
3,41,113,48
3,42,88,32
3,80,113,32
3,44,80,0
3,44,113,208
3,44,99,96
3,78,64,112
3,44,88,0
3,44,99,144
3,44,88,112
3,76,49,0
3,40,99,0
3,40,99,160
3,40,88,96
3,39,99,32
3,79,60,160
3,39,113,0
3,51,113,0
3,68,46,160
3,75,52,0
3,71,49,0
3,44,88,0
3,44,88,192
3,44,99,96
3,70,60,160
3,73,49,0
3,66,56,0
3,44,88,0
3,40,80,160
3,40,113,112
3,39,88,48
3,42,99,64
3,46,99,16
3,47,99,128
3,47,99,144
3,47,99,96
3,47,99,176
3,47,99,160
3,47,99,128
3,42,99,48
3,41,113,0
3,40,113,16
3,40,113,224
3,40,113,128
3,40,88,112
3,40,99,160
3,40,113,112
3,49,113,16
3,47,99,80
3,47,113,160
3,47,113,128
3,47,99,112
3,47,99,144
3,47,99,112
3,42,88,64
3,41,113,0
3,40,99,16
3,40,113,160
3,40,99,112
3,51,113,96
3,51,99,112
3,39,113,16
3,41,113,48
3,42,88,32
3,80,113,16
3,44,80,0
3,44,113,208
3,44,99,96
3,78,64,112
3,44,88,0
3,44,99,144
3,44,88,112
3,76,49,16
3,40,99,0
3,40,99,160
3,40,88,96
3,38,46,16
3,39,99,0
3,39,113,144
3,79,60,0
3,51,113,0
3,80,99,160
3,44,113,0
3,44,113,160
3,44,113,112
3,78,80,128
3,44,99,0
3,44,113,160
3,44,99,96
3,37,113,0
3,39,113,0
3,76,40,48
3,40,88,0
3,40,99,192
3,40,113,112
3,78,56,48
3,39,99,0
3,39,99,16
3,79,71,0
3,39,99,112
3,51,113,0
3,39,99,192
3,40,113,0
3,80,43,0
3,40,113,160
3,40,113,128
3,78,60,0
3,39,113,0
3,44,113,32
3,68,69,160
3,75,88,0
3,71,71,0
3,44,113,0
3,71,80,144
3,75,88,0
3,68,71,0
3,44,113,0
3,70,80,176
3,73,52,0
3,66,60,0
3,44,113,0
3,51,113,64
3,51,113,48
3,39,99,32
3,44,113,0
3,71,80,128
3,68,71,0
3,75,80,0
3,44,99,0
3,44,113,128
3,71,80,0
3,68,71,0
3,75,88,0
3,39,113,64
3,73,71,0
3,70,88,0
3,66,71,0
3,63,113,0
3,39,127,144
3,46,113,0
3,59,60,16
3,63,71,0
3,66,60,0
3,70,80,0
3,75,88,0
3,47,99,0
3,47,99,192
3,47,113,160
3,47,99,128
3,54,80,48
3,56,80,0
3,59,69,0
3,73,60,0
3,56,80,0
3,75,99,16
3,54,88,0
3,73,60,32
3,53,88,0
3,52,88,0
3,75,64,0
3,68,14,0
3,71,64,0
3,64,43,0
3,52,88,160
3,40,88,192
3,40,99,0
3,80,80,0
3,76,71,0
3,75,60,0
3,78,64,0
3,40,88,144
3,76,60,32
3,80,56,0
3,40,88,0
3,49,88,48
3,82,46,0
3,78,52,0
3,66,43,16
3,75,28,0
3,63,43,0
3,59,38,0
3,47,88,0
3,47,88,144
3,47,99,96
3,47,99,144
3,47,99,144
3,73,71,0
3,47,99,0
3,75,80,192
3,73,69,0
3,54,88,0
3,53,88,32
3,75,99,0
3,71,56,32
3,76,46,0
3,68,52,0
3,64,64,0
3,52,88,0
3,75,88,368
3,52,88,160
3,73,56,0
3,40,99,0
3,75,88,384
3,64,69,16
3,75,80,0
3,51,113,0
3,63,11,96
3,51,113,128
3,79,52,0
3,67,52,0
3,39,113,0
3,41,113,0
3,42,80,0
3,80,99,0
3,44,99,0
3,44,99,192
3,44,113,144
3,78,80,128
3,44,99,0
3,44,88,144
3,44,71,96
3,37,113,0
3,39,99,192
3,76,60,16
3,40,71,0
3,40,99,192
3,40,99,112
3,39,99,16
3,79,40,0
3,51,113,0
3,44,88,176
3,80,36,0
3,44,88,160
3,44,99,112
3,78,31,128
3,44,99,0
3,44,88,128
3,44,88,80
3,37,113,32
3,39,113,192
3,76,56,0
3,40,80,0
3,40,88,128
3,40,99,112
3,39,99,32
3,79,38,112
3,39,113,0
3,51,113,32
3,39,113,0
3,76,49,0
3,80,34,0
3,40,99,0
3,40,99,192
3,40,88,112
3,78,49,0
3,39,113,0
3,39,113,160
3,39,113,112
3,39,99,96
