track,note,velocity,time
0,36,77,763
0,69,80,1
0,63,88,0
0,69,0,23
0,63,0,4
0,36,0,44
0,69,80,25
0,63,79,1
0,63,0,21
0,69,0,3
0,64,89,21
0,64,0,24
0,37,123,22
0,63,89,4
0,69,80,0
0,63,0,22
0,69,0,15
0,37,0,32
0,36,102,24
0,69,80,0
0,64,87,1
0,69,0,20
0,64,0,0
0,36,0,26
0,69,80,48
0,63,78,0
0,36,114,5
0,63,0,18
0,69,0,12
0,69,80,62
0,64,118,4
0,36,0,5
0,64,0,15
0,69,0,4
0,69,80,69
0,63,110,1
0,37,120,1
0,63,0,20
0,69,0,22
0,37,0,18
0,69,80,36
0,63,101,0
0,69,0,20
0,63,0,2
0,69,80,70
0,36,111,1
0,63,96,4
0,69,0,23
0,63,0,6
0,36,0,60
0,63,78,3
0,69,80,2
0,63,0,26
0,69,0,1
0,64,99,23
0,64,0,20
0,63,87,23
0,37,125,3
0,69,80,1
0,63,0,22
0,69,0,10
0,37,0,40
0,64,85,20
0,69,80,4
0,36,113,0
0,69,0,21
0,64,0,5
0,36,0,14
0,69,80,53
0,36,104,1
0,63,77,3
0,63,0,18
0,69,0,7
0,69,80,69
0,64,111,2
0,36,0,4
0,69,0,19
0,64,0,1
0,69,80,67
0,37,127,0
0,63,113,1
0,63,0,22
0,69,0,14
0,37,0,21
0,69,80,40
0,63,92,1
0,63,0,20
0,69,0,7
0,36,106,62
0,47,91,4
0,63,96,1
0,69,80,2
0,47,81,1
0,42,71,1
0,47,69,2
0,54,72,3
0,59,59,1
0,62,95,1
0,66,91,1
0,69,0,18
0,63,0,6
0,47,0,46
0,47,0,4
0,36,0,7
0,69,80,3
0,63,82,2
0,54,74,1
0,54,92,1
0,69,0,18
0,63,0,5
0,54,0,17
0,54,0,1
0,64,99,2
0,62,88,2
0,59,73,1
0,64,0,31
0,62,0,9
0,37,127,6
0,63,86,1
0,59,91,2
0,69,80,1
0,63,0,30
0,59,0,3
0,69,0,3
0,59,0,4
0,62,80,5
0,66,96,3
0,37,0,24
0,36,110,19
0,69,80,2
0,64,73,3
0,69,0,19
0,64,0,5
0,62,0,8
0,66,0,3
0,59,75,10
0,36,0,0
0,62,97,2
0,59,0,39
0,62,0,2
0,63,73,3
0,36,106,1
0,66,79,3
0,69,80,0
0,71,91,1
0,69,0,24
0,63,0,1
0,66,0,57
0,71,0,1
0,69,80,8
0,47,88,1
0,54,75,1
0,54,92,0
0,36,0,1
0,64,113,2
0,64,0,21
0,69,0,4
0,47,0,54
0,54,0,1
0,54,0,0
0,69,80,13
0,63,105,0
0,37,121,1
0,62,72,1
0,62,92,2
0,63,0,18
0,69,0,15
0,37,0,19
0,62,0,29
0,62,0,2
0,63,101,8
0,64,93,1
0,64,79,2
0,69,80,1
0,54,0,5
0,69,0,12
0,66,0,1
0,63,0,6
0,47,0,1
0,62,0,7
0,59,0,8
0,42,0,9
0,64,0,31
0,64,0,2
0,36,108,6
0,69,80,5
0,42,80,1
0,58,96,0
0,63,94,0
0,42,78,1
0,49,75,1
0,58,77,3
0,49,77,0
0,52,76,2
0,54,58,0
0,58,66,1
0,64,80,2
0,61,88,0
0,63,0,19
0,69,0,2
0,42,0,52
0,58,0,0
0,49,0,2
0,58,0,3
0,52,0,2
0,36,0,2
0,63,77,2
0,64,73,1
0,69,80,0
0,64,86,1
0,69,0,20
0,63,0,3
0,64,0,17
0,64,0,1
0,66,81,5
0,66,94,2
0,64,94,0
0,64,0,28
0,63,96,17
0,69,80,1
0,37,127,0
0,63,0,26
0,69,0,8
0,66,0,1
0,61,80,15
0,37,0,26
0,64,86,20
0,69,80,3
0,36,103,1
0,66,0,21
0,69,0,2
0,64,0,1
0,61,0,9
0,36,0,10
0,52,74,2
0,64,87,2
0,52,0,39
0,64,0,2
0,36,114,3
0,66,93,2
0,69,80,0
0,63,81,0
0,58,76,1
0,66,77,1
0,61,79,0
0,69,0,26
0,63,0,0
0,58,0,56
0,66,0,1
0,61,0,0
0,58,75,13
0,69,80,0
0,64,111,1
0,36,0,6
0,69,0,12
0,64,0,1
0,58,0,21
0,58,73,6
0,66,0,22
0,58,0,19
0,37,127,4
0,58,75,2
0,69,80,0
0,63,107,1
0,52,76,1
0,54,87,0
0,63,0,21
0,69,0,21
0,37,0,16
0,54,0,13
0,58,0,1
0,61,0,6
0,58,0,3
0,52,0,2
0,64,0,1
0,49,0,4
0,63,102,4
0,69,80,1
0,58,72,5
0,42,0,4
0,69,0,18
0,63,0,1
0,54,0,46
0,58,0,14
0,36,114,6
0,63,99,2
0,45,79,1
0,40,65,3
0,57,86,0
0,69,80,0
0,45,81,2
0,52,78,2
0,57,86,1
0,59,97,1
0,64,84,1
0,69,0,16
0,63,0,11
0,45,0,46
0,57,0,3
0,36,0,5
0,64,86,4
0,69,80,0
0,52,79,4
0,63,84,0
0,69,0,24
0,63,0,2
0,64,0,11
0,52,0,4
0,57,76,4
0,64,97,1
0,69,96,1
0,64,0,27
0,63,90,19
0,69,80,2
0,37,127,0
0,63,0,30
0,69,0,4
0,69,0,1
0,71,94,14
0,37,0,18
0,57,0,8
0,69,80,17
0,64,73,1
0,59,81,1
0,36,108,0
0,69,0,28
0,64,0,1
0,71,0,9
0,36,0,1
0,59,0,2
0,64,86,6
0,61,74,1
0,64,0,40
0,61,0,1
0,36,102,6
0,63,78,2
0,69,90,1
0,69,80,0
0,57,73,2
0,63,0,25
0,69,0,5
0,64,114,61
0,69,80,3
0,36,0,2
0,64,0,14
0,69,0,9
0,69,0,46
0,57,0,2
0,63,112,19
0,64,93,1
0,37,122,1
0,52,75,1
0,69,80,0
0,63,0,17
0,69,0,21
0,37,0,15
0,57,0,6
0,64,0,17
0,45,0,10
0,52,0,2
0,59,0,2
0,63,99,3
0,69,80,3
0,40,0,14
0,63,0,14
0,69,0,0
0,64,0,41
0,52,0,2
0,36,102,23
0,52,72,1
0,69,80,1
0,52,93,2
0,63,98,0
0,40,71,3
0,47,81,6
0,56,89,0
0,52,83,0
0,59,84,1
0,66,91,5
0,69,0,6
0,63,0,6
0,52,0,53
0,52,0,3
0,63,73,8
0,36,0,2
0,59,79,1
0,59,87,1
0,69,80,1
0,63,0,20
0,69,0,0
0,59,0,19
0,59,0,1
0,64,100,3
0,62,76,3
0,62,93,2
0,64,0,25
0,37,123,18
0,69,80,1
0,63,88,1
0,63,0,25
0,62,0,11
0,69,0,0
0,62,0,2
0,66,80,10
0,66,92,2
0,37,0,23
0,69,80,22
0,36,101,0
0,64,82,3
0,64,0,21
0,69,0,5
0,66,0,7
0,66,0,2
0,36,0,6
0,62,79,5
0,62,93,0
0,62,0,41
0,62,0,0
0,71,88,5
0,63,86,0
0,59,72,3
0,40,0,0
0,36,105,1
0,69,80,0
0,63,0,21
0,69,0,4
0,52,0,63
0,36,0,8
0,69,80,0
0,64,106,0
0,66,0,1
0,59,0,10
0,69,0,10
0,47,0,3
0,64,0,1
0,56,0,3
0,63,106,64
0,37,127,2
0,69,80,2
0,63,0,21
0,69,0,14
0,37,0,24
0,69,80,34
0,63,94,3
0,63,0,21
0,69,0,5
0,71,0,17
0,59,0,3
0,36,108,46
0,63,91,1
0,69,80,0
0,55,76,1
0,62,72,0
0,55,97,3
0,59,76,1
0,43,75,0
0,59,69,2
0,50,80,2
0,55,85,2
0,47,103,1
0,67,96,1
0,69,0,15
0,63,0,3
0,55,0,53
0,62,0,0
0,55,0,3
0,59,0,1
0,36,0,1
0,59,96,8
0,69,80,0
0,59,80,1
0,63,86,2
0,63,0,18
0,69,0,3
0,59,0,17
0,59,0,1
0,62,73,7
0,62,97,0
0,64,90,1
0,64,0,29
0,63,96,19
0,37,127,1
0,69,80,0
0,63,0,26
0,62,0,7
0,62,0,0
0,69,0,1
0,67,94,11
0,67,75,2
0,37,0,24
0,67,0,15
0,67,0,2
0,64,87,3
0,36,105,0
0,59,77,4
0,69,80,0
0,59,88,1
0,64,0,17
0,69,0,6
0,59,0,17
0,59,0,1
0,36,0,3
0,55,76,3
0,62,97,2
0,55,0,39
0,62,0,2
0,63,81,1
0,59,77,1
0,69,80,0
0,67,94,1
0,62,90,2
0,36,112,0
0,55,92,2
0,59,87,0
0,63,0,20
0,69,0,10
0,59,0,48
0,67,0,1
0,62,0,2
0,55,0,2
0,59,0,0
0,55,73,8
0,36,0,2
0,69,80,1
0,64,106,0
0,55,91,1
0,64,0,15
0,69,0,10
0,67,0,48
0,43,0,3
0,55,0,1
0,55,0,2
0,47,0,0
0,55,0,4
0,59,0,5
0,50,0,3
0,57,72,1
0,37,127,0
0,57,96,2
0,63,104,0
0,69,80,2
0,63,0,16
0,57,0,21
0,69,0,1
0,57,0,1
0,59,93,5
0,59,78,1
0,37,0,7
0,59,0,33
0,59,0,1
0,62,92,7
0,69,80,1
0,62,72,2
0,63,93,0
0,69,0,22
0,63,0,0
0,62,0,58
0,62,0,3
0,36,113,5
0,63,94,4
0,57,86,1
0,54,73,1
0,57,78,1
0,69,80,0
0,45,71,1
0,50,46,2
0,57,102,1
0,62,96,3
0,66,94,4
0,69,0,12
0,63,0,11
0,57,0,47
0,54,0,1
0,57,0,1
0,36,0,7
0,50,75,4
0,69,80,0
0,63,81,0
0,62,96,2
0,69,0,18
0,63,0,6
0,50,0,15
0,62,0,2
0,54,76,3
0,64,101,2
0,66,90,1
0,64,0,26
0,69,80,24
0,63,94,0
0,37,127,0
0,63,0,22
0,54,0,8
0,66,0,3
0,69,0,1
0,62,81,13
0,74,90,0
0,37,0,17
0,74,0,24
0,69,80,3
0,64,77,0
0,36,114,0
0,64,0,24
0,69,0,3
0,62,0,12
0,36,0,5
0,50,72,6
0,50,0,41
0,69,80,5
0,63,87,2
0,54,77,3
0,50,78,0
0,54,87,0
0,36,113,0
0,63,0,23
0,69,0,5
0,54,0,55
0,50,0,0
0,54,0,0
0,54,74,10
0,50,80,0
0,69,80,0
0,36,0,1
0,64,114,0
0,57,75,1
0,57,96,0
0,62,92,1
0,64,0,20
0,69,0,3
0,54,0,15
0,50,0,0
0,57,0,2
0,57,0,0
0,62,0,1
0,54,73,4
0,57,86,0
0,50,78,1
0,62,87,0
0,57,72,2
0,54,0,38
0,57,0,0
0,50,0,1
0,62,0,0
0,57,0,2
0,69,80,2
0,50,93,1
0,50,77,2
0,63,111,0
0,37,127,0
0,63,0,16
0,69,0,24
0,37,0,17
0,50,0,22
0,50,0,4
0,66,0,0
0,45,0,1
0,62,0,5
0,57,72,5
0,63,94,0
0,57,0,1
0,69,80,2
0,54,81,2
0,69,0,16
0,63,0,10
0,57,0,10
0,54,0,5
0,50,80,4
0,50,0,21
0,50,0,20
0,36,107,5
0,69,80,0
0,63,96,0
0,52,78,2
0,40,94,0
0,40,54,1
0,47,77,3
0,52,61,1
0,55,68,1
0,62,88,2
0,59,88,1
0,63,0,20
0,69,0,3
0,52,0,51
0,40,0,0
0,47,92,11
0,69,80,0
0,59,76,1
0,36,0,1
0,63,77,2
0,69,0,25
0,63,0,0
0,47,0,12
0,59,0,1
0,64,94,5
0,59,81,2
0,64,80,3
0,62,93,1
0,64,0,28
0,63,97,15
0,69,80,3
0,37,127,0
0,63,0,23
0,69,0,8
0,59,0,2
0,64,0,3
0,62,0,1
0,67,77,9
0,67,87,0
0,37,0,27
0,64,82,22
0,69,80,1
0,36,115,1
0,64,0,18
0,69,0,4
0,67,0,10
0,67,0,0
0,36,0,4
0,52,72,8
0,62,97,2
0,52,0,39
0,62,0,2
0,36,112,5
0,71,93,1
0,64,79,1
0,69,80,0
0,63,82,0
0,59,80,1
0,67,76,0
0,63,0,22
0,69,0,9
0,64,0,51
0,59,0,1
0,67,0,0
0,69,80,10
0,52,74,1
0,59,77,1
0,64,116,2
0,36,0,3
0,64,0,13
0,69,0,4
0,52,0,18
0,59,0,1
0,52,77,5
0,59,72,3
0,71,0,21
0,52,0,17
0,59,0,3
0,52,72,4
0,63,109,1
0,37,127,0
0,47,77,1
0,69,80,0
0,47,91,2
0,63,0,15
0,69,0,20
0,37,0,21
0,40,0,3
0,55,0,10
0,47,0,3
0,62,0,4
0,59,0,0
0,52,0,10
0,69,80,8
0,63,100,2
0,69,0,17
0,63,0,5
0,52,0,45
0,47,0,2
0,47,0,2
0,36,101,20
0,54,97,2
0,69,80,0
0,63,94,0
0,42,57,1
0,42,80,1
0,54,74,3
0,49,62,1
0,58,92,1
0,61,83,0
0,64,92,4
0,69,0,18
0,63,0,9
0,54,0,45
0,42,0,2
0,36,0,8
0,63,73,1
0,52,74,3
0,61,92,0
0,69,80,0
0,49,79,1
0,63,0,20
0,69,0,6
0,52,0,14
0,61,0,0
0,49,0,1
0,64,93,6
0,64,97,0
0,52,80,1
0,64,0,21
0,69,80,24
0,37,125,1
0,63,91,1
0,63,0,28
0,69,0,4
0,64,0,3
0,52,0,1
0,66,87,12
0,66,75,1
0,37,0,24
0,66,0,17
0,58,76,6
0,69,80,0
0,36,107,1
0,64,81,0
0,69,0,23
0,64,0,4
0,66,0,7
0,58,0,6
0,61,72,6
0,64,88,0
0,36,0,0
0,61,0,41
0,64,0,0
0,66,97,7
0,69,80,0
0,66,77,1
0,36,109,0
0,64,73,1
0,61,78,1
0,63,74,0
0,63,0,20
0,69,0,8
0,69,80,64
0,64,116,3
0,36,0,7
0,64,0,15
0,69,0,4
0,37,127,67
0,63,113,0
0,69,80,3
0,63,0,17
0,69,0,24
0,37,0,16
0,61,0,8
0,54,0,15
0,49,0,3
0,58,0,2
0,64,0,2
0,69,80,7
0,42,0,1
0,63,98,0
0,63,0,20
0,69,0,7
0,66,0,19
0,66,0,1
0,64,0,1
0,61,0,1
0,36,113,44
0,35,94,1
0,47,76,1
0,69,80,0
0,63,89,1
0,50,87,0
0,47,92,0
0,69,0,26
0,63,0,4
0,47,0,51
0,47,0,2
0,36,0,3
0,63,76,8
0,69,80,1
0,54,74,1
0,54,97,1
0,63,0,18
0,69,0,5
0,54,0,17
0,54,0,1
0,59,79,3
0,59,96,2
0,64,91,2
0,64,0,27
0,59,0,12
0,69,80,5
0,47,97,2
0,37,127,2
0,63,95,0
0,63,0,24
0,69,0,6
0,59,0,1
0,47,0,8
0,54,88,7
0,62,80,1
0,37,0,23
0,54,0,17
0,64,86,4
0,69,80,0
0,59,94,3
0,36,110,0
0,64,0,23
0,69,0,2
0,62,0,11
0,36,0,9
0,50,0,3
0,59,75,1
0,59,0,34
0,59,0,7
0,63,78,3
0,69,80,1
0,66,81,1
0,52,92,0
0,36,113,0
0,66,91,1
0,63,0,20
0,69,0,12
0,66,0,50
0,54,76,12
0,64,107,1
0,69,80,1
0,36,0,8
0,69,0,11
0,64,0,1
0,52,0,50
0,66,0,1
0,54,0,10
0,63,116,12
0,62,81,2
0,54,97,0
0,62,97,0
0,69,80,0
0,37,123,0
0,63,0,17
0,69,0,25
0,37,0,19
0,62,0,22
0,64,73,11
0,35,0,0
0,63,94,2
0,69,80,3
0,69,0,19
0,63,0,3
0,54,0,46
0,62,0,0
0,64,0,10
0,36,113,9
0,52,92,5
0,42,93,0
0,69,80,0
0,63,99,1
0,42,90,1
0,52,75,3
0,42,73,0
0,49,73,1
0,58,76,2
0,69,0,21
0,63,0,4
0,42,0,52
0,52,0,3
0,42,0,0
0,49,0,1
0,58,0,2
0,69,80,4
0,64,80,2
0,54,92,0
0,36,0,1
0,63,75,1
0,69,0,21
0,63,0,0
0,64,0,18
0,54,0,0
0,58,93,9
0,64,96,0
0,66,78,1
0,52,0,19
0,64,0,5
0,69,80,21
0,63,98,1
0,37,121,0
0,63,0,23
0,69,0,7
0,58,0,6
0,66,0,1
0,61,75,10
0,61,86,2
0,37,0,18
0,50,90,28
0,69,80,0
0,64,78,1
0,36,104,0
0,69,0,21
0,64,0,3
0,50,0,2
0,52,86,6
0,61,0,2
0,61,0,2
0,36,0,8
0,58,97,3
0,52,74,3
0,52,0,9
0,50,88,4
0,58,0,25
0,50,0,2
