track,note,velocity,time
3,68,79,17520
3,68,0,160
3,68,79,80
3,68,0,160
3,69,79,80
3,69,0,160
3,71,79,80
3,71,0,160
3,73,79,80
3,73,0,120
3,75,79,0
3,75,0,440
3,73,79,160
3,73,0,160
3,71,79,80
3,71,0,400
3,69,79,80
3,69,0,400
3,68,79,80
3,68,0,120
3,69,79,0
3,69,0,200
3,69,79,40
3,69,0,120
3,71,79,0
3,71,0,160
3,73,79,4400
3,73,0,150
3,73,79,90
3,73,0,150
3,73,79,90
3,73,0,150
3,75,79,90
3,75,0,120
3,73,79,0
3,73,0,120
3,71,79,0
3,71,0,160
3,71,79,80
3,71,0,400
3,71,79,560
3,71,0,80
3,68,79,40
3,68,0,80
3,71,79,40
3,71,0,80
3,68,79,40
3,68,0,160
3,71,79,80
3,71,0,200
3,71,79,40
3,71,0,80
3,68,79,40
3,68,0,120
3,66,79,0
3,66,0,120
3,64,79,0
3,64,0,160
3,68,79,4160
3,68,0,160
3,69,79,80
3,69,0,160
3,71,79,80
3,71,0,160
3,73,79,80
3,73,0,120
3,75,79,0
3,75,0,440
3,73,79,400
3,73,0,80
3,71,79,40
3,71,0,280
3,69,79,80
3,69,0,320
3,68,79,40
3,68,0,160
3,69,79,80
3,69,0,280
3,69,79,80
3,69,0,120
3,71,79,0
3,71,0,280
3,73,79,4160
3,73,0,150
3,73,79,90
3,73,0,150
3,73,79,90
3,73,0,150
3,75,79,90
3,75,0,120
3,73,79,0
3,73,0,120
3,71,79,0
3,71,0,160
3,71,79,80
3,71,0,400
3,73,79,560
3,73,0,80
3,71,79,40
3,71,0,80
3,71,79,40
3,71,0,160
3,68,79,80
3,68,0,160
3,71,79,80
3,71,0,80
3,71,79,40
3,71,0,80
3,68,79,40
3,68,0,120
3,66,79,0
3,66,0,120
3,64,79,0
3,64,0,160
3,73,79,4160
3,73,0,160
3,75,79,80
3,75,0,160
3,76,79,80
3,76,0,160
3,73,79,80
3,73,0,120
3,75,79,0
3,75,0,120
3,73,79,0
3,73,0,160
3,73,79,80
3,73,0,400
3,68,79,2000
3,68,0,160
3,73,79,80
3,73,0,160
3,75,79,80
3,75,0,320
3,76,79,40
3,76,0,120
3,73,79,0
3,73,0,160
3,73,79,80
3,73,0,320
3,73,79,2560
3,73,0,160
3,75,79,80
3,75,0,160
3,76,79,80
3,76,0,160
3,73,79,80
3,73,0,160
3,75,79,80
3,75,0,240
3,73,79,0
3,73,0,160
3,73,79,80
3,73,0,160
3,61,95,2000
3,61,0,80
3,69,95,40
3,69,0,120
3,71,95,0
3,71,0,240
3,68,95,120
3,68,0,200
3,71,95,40
3,71,0,240
3,71,95,120
3,71,0,240
3,68,95,0
3,68,0,120
3,66,95,0
3,66,0,280
3,68,95,2000
3,68,0,160
3,68,95,80
3,68,0,210
3,69,95,110
3,69,0,210
3,71,95,110
3,71,0,210
3,73,95,110
3,73,0,120
3,75,95,0
3,75,0,360
3,73,95,0
3,73,0,160
3,73,95,80
3,73,0,240
3,71,95,0
3,71,0,210
3,69,95,110
3,69,0,210
3,68,95,110
3,68,0,210
3,69,95,110
3,69,0,320
3,69,95,160
3,69,0,160
3,71,95,80
3,71,0,120
3,68,95,0
3,68,0,120
3,66,95,0
3,66,0,320
3,73,79,3520
3,73,0,160
3,73,79,80
3,73,0,160
3,73,79,80
3,73,0,160
3,75,79,80
3,75,0,120
3,73,79,0
3,73,0,120
3,71,79,0
3,71,0,160
3,71,79,80
3,71,0,160
3,68,79,560
3,68,0,160
3,71,79,80
3,71,0,160
3,66,79,80
3,66,0,120
3,68,79,0
3,68,0,80
3,68,79,40
3,68,0,160
3,68,79,80
3,68,0,120
3,66,79,0
3,66,0,120
3,64,79,0
3,64,0,160
3,68,79,4160
3,68,0,160
3,68,79,80
3,68,0,210
3,69,79,110
3,69,0,210
3,71,79,110
3,71,0,210
3,78,79,110
3,78,0,480
3,76,79,0
3,76,0,160
3,76,79,80
3,76,0,160
3,71,79,80
3,71,0,160
3,69,79,80
3,69,0,400
3,68,79,80
3,68,0,160
3,69,79,80
3,69,0,320
3,69,79,160
3,69,0,160
3,71,79,80
3,71,0,360
3,68,79,0
3,68,0,120
3,66,79,0
3,66,0,160
3,68,79,1520
3,68,0,310
3,71,79,170
3,71,0,310
3,73,79,650
3,73,0,800
3,75,79,160
3,75,0,120
3,73,79,0
3,73,0,120
3,71,79,0
3,71,0,160
3,69,79,80
3,69,0,120
3,71,79,0
3,71,0,520
3,68,79,80
3,68,0,160
3,71,79,80
3,71,0,480
3,71,79,240
3,71,0,160
3,68,79,80
3,68,0,120
3,66,79,0
3,66,0,120
3,64,79,0
3,64,0,160
3,73,79,4400
3,73,0,160
3,75,79,80
3,75,0,160
3,76,79,80
3,76,0,160
3,73,79,80
3,73,0,120
3,75,79,0
3,75,0,120
3,73,79,0
3,73,0,160
3,73,79,80
3,73,0,400
3,68,79,2000
3,68,0,160
3,73,79,80
3,73,0,160
3,75,79,80
3,75,0,320
3,76,79,40
3,76,0,120
3,73,79,0
3,73,0,160
3,73,79,80
3,73,0,320
3,73,79,2560
3,73,0,160
3,75,79,80
3,75,0,400
3,76,79,80
3,76,0,160
3,75,79,80
3,75,0,240
3,73,79,0
3,73,0,160
3,73,79,80
3,73,0,320
3,73,95,1840
3,73,0,160
3,73,95,80
3,73,0,210
3,75,95,110
3,75,0,210
3,76,95,110
3,76,0,210
3,78,95,110
3,78,0,720
3,80,95,0
3,80,0,120
3,78,95,0
3,78,0,120
3,76,95,0
3,76,0,480
3,78,95,0
3,78,0,240
3,76,95,0
3,76,0,1190
3,71,79,15130
3,71,0,160
3,71,79,80
3,71,0,210
3,73,79,110
3,73,0,210
3,75,79,110
3,75,0,210
3,75,79,110
3,75,0,320
3,75,79,640
3,75,0,210
3,76,79,110
3,76,0,210
3,78,79,110
3,78,0,210
3,76,79,110
3,76,0,120
3,78,79,0
3,78,0,600
3,76,79,0
3,76,0,160
3,76,79,80
3,76,0,320
3,71,79,3280
3,71,0,160
3,71,79,80
3,71,0,210
3,73,79,110
3,73,0,210
3,75,79,110
3,75,0,210
3,75,79,110
3,75,0,320
3,71,79,400
3,71,0,160
3,81,79,80
3,81,0,210
3,80,79,110
3,80,0,210
3,78,79,110
3,78,0,210
3,78,79,110
3,78,0,720
3,76,79,0
3,76,0,160
3,76,79,80
3,76,0,320
3,68,79,400
3,68,0,160
3,75,79,80
3,75,0,720
3,73,79,0
3,73,0,160
3,73,79,80
3,73,0,320
3,72,95,640
3,72,0,720
3,71,95,0
3,71,0,160
3,71,111,80
3,71,0,240
3,69,111,0
3,69,0,160
3,69,111,80
3,69,0,320
3,76,95,160
3,76,0,720
3,78,95,0
3,78,0,160
3,78,95,80
3,78,0,480
3,71,79,1200
3,71,0,160
3,71,79,80
3,71,0,210
3,72,79,110
3,72,0,210
3,74,79,110
3,74,0,210
3,76,79,110
3,76,0,120
3,78,79,0
3,78,0,360
3,76,79,0
3,76,0,160
3,76,79,80
3,76,0,160
3,74,79,80
3,74,0,320
3,72,79,160
3,72,0,80
3,71,79,40
3,71,0,80
3,72,79,40
3,72,0,360
3,71,79,0
3,71,0,120
3,69,79,0
3,69,0,160
3,69,79,80
3,69,0,160
3,67,79,3920
3,67,0,80
3,67,79,40
3,67,0,80
3,76,79,40
3,76,0,160
3,76,79,80
3,76,0,160
3,76,79,80
3,76,0,160
3,74,79,80
3,74,0,160
3,78,79,80
3,78,0,120
3,76,79,0
3,76,0,120
3,74,79,0
3,74,0,160
3,74,79,80
3,74,0,160
3,76,79,320
3,76,0,160
3,72,79,80
3,72,0,120
3,74,79,0
3,74,0,680
3,74,79,40
3,74,0,80
3,71,79,40
3,71,0,120
3,69,79,0
3,69,0,120
3,67,79,0
3,67,0,320
3,79,79,3760
3,79,0,160
3,79,79,80
3,79,0,160
3,78,79,80
3,78,0,160
3,76,79,80
3,76,0,160
3,78,79,80
3,78,0,120
3,76,79,0
3,76,0,120
3,74,79,0
3,74,0,320
3,71,79,400
3,71,0,160
3,74,79,80
3,74,0,160
3,76,79,80
3,76,0,160
3,71,79,80
3,71,0,160
3,71,79,80
3,71,0,80
3,72,79,40
3,72,0,240
3,71,79,0
3,71,0,120
3,69,79,0
3,69,0,160
3,69,79,80
3,69,0,160
3,71,79,2560
3,71,0,210
3,74,79,110
3,74,0,210
3,76,79,110
3,76,0,210
3,76,79,110
3,76,0,210
3,76,79,110
3,76,0,210
3,76,79,110
3,76,0,210
3,74,79,110
3,74,0,210
3,74,79,110
3,69,79,200
3,74,0,10
3,69,0,110
3,71,79,0
3,71,0,210
3,74,79,110
3,74,0,210
3,74,79,110
3,69,79,200
3,74,0,10
3,69,0,110
3,71,79,0
3,71,0,210
3,69,79,30
3,71,79,80
3,69,0,40
3,71,0,170
3,71,79,110
3,71,0,210
3,71,79,110
3,71,0,120
3,69,79,0
3,69,0,120
3,67,79,0
3,67,0,560
3,76,79,4000
3,76,0,210
3,78,79,110
3,78,0,210
3,79,79,110
3,79,0,210
3,78,79,110
3,78,0,240
3,76,79,0
3,76,0,160
3,76,79,80
3,76,0,320
3,71,79,1840
3,71,0,80
3,71,79,40
3,71,0,80
3,76,79,40
3,76,0,210
3,78,79,110
3,78,0,210
3,79,79,110
3,79,0,210
3,76,79,110
3,76,0,320
3,76,79,2560
3,76,0,150
3,78,79,90
3,78,0,150
3,79,79,90
3,79,0,150
3,76,79,90
3,76,0,150
3,78,79,90
3,78,0,240
3,76,79,0
3,76,0,160
3,76,79,80
3,76,0,320
3,71,79,400
3,71,0,120
3,69,79,0
3,69,0,120
3,67,79,0
3,67,0,160
3,67,79,80
3,67,0,560
3,64,79,400
3,64,0,160
3,76,79,80
3,76,0,240
3,78,79,120
3,78,0,280
3,79,79,80
3,79,0,120
3,78,79,0
3,78,0,80
3,78,79,40
3,78,0,320
3,71,95,400
3,71,0,160
3,78,95,80
3,78,0,240
3,80,95,120
3,80,0,280
3,81,95,80
3,81,0,120
3,80,95,0
3,80,0,80
3,80,95,40
3,78,95,1140
3,78,0,60
3,80,0,0
3,80,95,0
3,78,95,300
3,78,0,60
3,80,0,0
3,80,95,0
3,80,0,360
3,78,95,0
3,78,0,80
3,80,95,0
3,80,0,80
3,78,95,0
3,78,0,80
3,75,95,0
3,75,0,110
3,76,95,850
3,76,0,120
3,78,95,0
3,78,0,200
3,76,95,40
3,76,0,520
3,73,95,80
3,73,0,120
3,71,95,0
3,71,0,120
3,69,95,0
3,69,0,320
3,75,95,1600
3,75,0,160
3,75,95,80
3,75,0,160
3,75,95,80
3,75,0,210
3,76,95,110
3,76,0,210
3,78,95,110
3,78,0,210
3,76,95,110
3,76,0,1920
3,75,95,0
3,75,0,1440
3,73,95,0
3,73,0,120
3,75,95,0
3,75,0,360
3,73,95,0
3,73,0,950
3,75,95,970
3,75,0,160
3,75,95,80
3,75,0,160
3,75,95,80
3,75,0,160
3,75,95,80
3,75,0,160
3,75,95,80
3,75,0,160
3,76,95,80
3,76,0,320
3,78,95,40
3,78,0,120
3,76,95,0
3,76,0,160
3,76,95,80
3,76,0,1920
3,75,95,0
3,75,0,1440
3,73,95,0
3,73,0,120
3,75,95,0
3,75,0,360
3,73,95,0
3,73,0,1920
3,72,95,0
3,72,0,630
3,76,95,3210
3,76,0,160
3,75,95,80
3,75,0,160
3,75,95,80
3,75,0,160
3,73,95,80
3,73,0,160
3,73,95,80
3,73,0,160
3,71,95,80
3,71,0,160
3,68,95,80
3,68,0,160
3,71,95,80
3,71,0,160
3,73,95,80
3,73,0,160
3,68,95,80
3,68,0,400
3,68,95,80
3,68,0,160
3,68,95,80
3,68,0,630
3,76,95,4170
3,76,0,160
3,75,95,80
3,75,0,160
3,75,95,80
3,75,0,160
3,73,95,80
3,73,0,160
3,73,95,80
3,73,0,160
3,71,95,80
3,71,0,160
3,68,95,80
3,68,0,160
3,71,95,80
3,71,0,160
3,73,95,80
3,73,0,160
3,68,95,80
3,68,0,400
3,68,95,80
3,68,0,160
3,68,95,80
3,68,0,630
3,76,95,4170
3,76,0,160
3,75,95,80
3,75,0,160
3,75,95,80
3,75,0,160
3,73,95,80
3,73,0,160
3,73,95,80
3,73,0,160
3,71,95,80
3,71,0,160
3,76,111,2240
3,76,0,120
3,78,111,0
3,78,0,280
3,76,111,80
3,76,0,160
3,78,111,80
3,78,0,160
3,73,111,80
3,73,0,160
3,76,111,80
3,76,0,160
3,73,111,80
3,73,0,160
3,71,111,80
3,71,0,320
3,83,111,160
3,83,0,1920
3,83,95,0
3,83,0,240
3,80,95,0
3,80,0,240
3,78,95,0
3,78,0,240
3,76,95,0
3,76,0,240
3,75,95,0
3,75,0,240
3,76,95,0
3,76,0,240
3,75,95,0
3,75,0,240
3,71,95,0
3,71,0,240
3,73,95,0
3,73,0,630
3,76,95,5130
3,76,0,160
3,75,95,80
3,75,0,160
3,75,95,80
3,75,0,160
3,73,95,80
3,73,0,160
3,73,95,80
3,73,0,160
3,71,95,80
3,71,0,160
3,78,95,2480
3,78,0,160
3,76,95,80
3,76,0,160
3,76,95,80
3,76,0,160
3,76,95,80
3,76,0,160
3,73,95,80
3,73,0,160
3,71,95,80
3,71,0,160
3,66,111,0
3,66,0,120
3,68,111,0
3,68,0,120
3,71,111,0
3,71,0,120
3,73,111,0
3,73,0,120
3,68,111,0
3,68,0,120
3,71,111,0
3,71,0,120
3,73,111,0
3,73,0,120
3,76,111,0
3,76,0,120
3,73,111,0
3,73,0,120
3,71,111,0
3,71,0,120
3,68,111,0
3,68,0,60
3,66,111,0
3,66,0,60
3,71,111,0
3,71,0,60
3,68,111,0
3,68,0,20
3,71,111,60
3,71,0,20
4,76,79,48480
4,76,0,160
4,78,79,80
4,78,0,160
4,80,79,80
4,80,0,160
4,76,79,80
4,76,0,120
4,78,79,0
4,78,0,120
4,76,79,0
4,76,0,80
4,76,79,160
4,76,0,400
4,73,79,2000
4,73,0,160
4,76,79,80
4,76,0,160
4,78,79,80
4,78,0,320
4,80,79,40
4,80,0,120
4,76,79,0
4,76,0,160
4,76,79,80
4,76,0,320
4,76,79,2560
4,76,0,160
4,78,79,80
4,78,0,160
4,80,79,80
4,80,0,160
4,76,79,80
4,76,0,160
4,78,79,80
4,78,0,240
4,76,79,0
4,76,0,160
4,76,79,80
4,76,0,160
4,81,79,1280
4,73,79,0
4,76,79,0
4,76,0,1920
4,73,0,0
4,81,0,0
4,78,79,0
4,75,79,0
4,71,79,0
4,71,0,1270
4,75,0,0
4,78,0,650
4,76,79,0
4,68,79,0
4,71,79,0
4,71,0,720
4,71,79,0
4,71,0,160
4,71,79,80
4,71,0,210
4,73,79,110
4,73,0,210
4,75,79,110
4,75,0,210
4,76,0,110
4,76,79,0
4,76,0,120
4,78,79,0
4,78,0,360
4,76,79,0
4,76,0,160
4,76,79,80
4,76,0,160
4,75,79,80
4,75,0,210
4,68,0,100
4,73,79,10
4,73,0,210
4,71,79,110
4,71,0,210
4,73,79,110
4,73,0,320
4,73,79,160
4,73,0,160
4,75,79,80
4,75,0,120
4,73,79,0
4,73,0,120
4,71,79,0
4,71,0,320
4,71,79,10960
4,71,0,160
4,71,79,80
4,71,0,210
4,73,79,110
4,73,0,210
4,75,79,110
4,75,0,210
4,81,79,110
4,81,0,480
4,80,79,0
4,80,0,160
4,80,79,80
4,80,0,160
4,76,79,80
4,76,0,160
4,73,79,80
4,73,0,400
4,71,79,80
4,71,0,160
4,73,79,80
4,73,0,320
4,73,79,160
4,73,0,160
4,75,79,80
4,75,0,360
4,73,79,0
4,73,0,120
4,71,79,0
4,71,0,160
4,76,79,2960
4,73,79,0
4,69,79,0
4,81,79,0
4,81,0,800
4,76,0,0
4,73,0,0
4,69,0,0
4,78,79,160
4,75,79,0
4,71,79,0
4,83,79,0
4,83,0,120
4,78,0,0
4,75,0,0
4,71,0,0
4,76,79,0
4,73,79,0
4,69,79,0
4,81,79,0
4,81,0,120
4,76,0,0
4,73,0,0
4,69,0,0
4,75,79,0
4,71,79,0
4,66,79,0
4,78,79,0
