track,note,velocity,time
4,64,111,384
4,72,111,0
4,62,95,0
4,71,111,0
4,66,95,0
4,74,111,0
4,66,95,0
4,74,111,0
4,66,95,0
4,74,111,0
4,66,95,0
4,74,111,0
4,66,95,0
4,74,111,0
4,66,95,0
4,74,111,0
4,66,95,0
4,74,111,0
4,64,95,0
4,72,111,0
4,64,95,0
4,72,111,0
4,62,95,0
4,71,111,0
4,64,95,1920
4,72,111,0
4,64,95,0
4,72,111,0
4,64,95,0
4,72,111,0
4,64,95,0
4,72,111,0
4,64,95,0
4,72,111,0
4,62,95,0
4,71,111,0
4,61,95,0
4,69,111,0
4,62,95,0
4,71,111,0
4,64,95,0
4,72,111,0
4,62,95,2112
4,71,111,0
4,66,95,0
4,74,111,0
4,66,95,0
4,74,111,0
4,66,95,0
4,74,111,0
4,66,95,0
4,74,111,0
4,71,95,0
4,79,111,0
4,69,95,0
4,77,111,0
4,66,95,192
4,74,111,0
4,66,95,0
4,74,111,0
4,64,95,0
4,72,111,0
4,62,95,0
4,71,111,0
4,66,95,1536
4,74,111,0
4,62,95,0
4,71,111,0
4,64,95,0
4,72,111,0
4,64,95,0
4,72,111,0
4,64,95,0
4,72,111,0
4,66,95,0
4,74,111,0
4,64,95,0
4,72,111,0
4,62,95,0
4,71,111,0
4,59,95,0
4,67,111,0
4,62,95,0
4,71,111,0
4,62,95,0
4,71,111,0
4,74,111,1536
4,66,111,0
4,83,111,0
4,78,111,0
4,69,111,0
4,86,111,0
4,78,111,0
4,69,111,0
4,86,111,0
4,78,111,0
4,69,111,0
4,86,111,0
4,74,111,0
4,66,111,0
4,83,111,0
4,67,111,0
4,71,111,0
4,76,95,0
4,67,111,0
4,71,111,0
4,76,79,0
4,71,111,768
4,74,111,0
4,76,111,0
4,74,111,0
4,78,111,0
4,79,111,0
4,78,111,0
4,76,111,0
4,79,111,0
4,81,111,0
4,74,111,0
4,78,111,0
4,71,111,0
4,67,111,0
4,69,111,0
4,71,111,576
4,62,111,0
4,79,111,0
4,74,111,0
4,66,111,0
4,83,111,0
4,78,111,0
4,69,111,0
4,86,111,0
4,74,111,0
4,78,111,0
4,69,111,0
4,86,111,0
4,74,111,0
4,78,111,0
4,71,111,0
4,74,111,0
4,67,111,0
4,71,111,0
4,67,111,0
4,71,111,0
4,69,111,0
4,72,111,0
4,69,111,0
4,72,111,0
4,69,111,0
4,72,111,0
4,69,111,0
4,72,111,0
4,71,111,0
4,74,111,0
4,69,111,0
4,72,111,0
4,69,111,0
4,72,111,0
4,67,111,0
4,71,111,0
4,64,111,0
4,67,111,0
4,67,111,0
4,71,111,0
4,67,111,0
4,71,111,0
4,67,95,1536
4,71,95,0
4,66,95,0
4,69,95,0
4,64,95,0
4,67,95,0
4,60,111,0
4,64,111,0
4,62,111,0
4,66,111,0
4,66,95,0
4,74,111,0
4,66,95,0
4,74,111,0
4,66,95,0
4,74,111,0
4,66,95,0
4,74,111,0
4,66,95,0
4,74,111,0
4,66,95,0
4,74,111,0
4,66,95,0
4,74,111,0
4,64,95,0
4,72,111,0
4,64,95,0
4,72,111,0
4,62,95,0
4,71,111,0
4,64,95,1920
4,72,111,0
4,64,95,0
4,72,111,0
4,64,95,0
4,72,111,0
4,64,95,0
4,72,111,0
4,64,95,0
4,72,111,0
4,62,95,0
4,71,111,0
4,61,95,0
4,69,111,0
4,62,95,0
4,71,111,0
4,64,95,0
4,72,111,0
4,62,95,2112
4,71,111,0
4,66,95,0
4,74,111,0
4,66,95,0
4,74,111,0
4,66,95,0
4,74,111,0
4,66,95,0
4,74,111,0
4,71,95,0
4,79,111,0
4,69,95,0
4,77,111,0
4,66,95,192
4,74,111,0
4,66,95,0
4,74,111,0
4,64,95,0
4,72,111,0
4,62,95,0
4,71,111,0
4,66,95,1536
4,74,111,0
4,62,95,0
4,71,111,0
4,64,95,0
4,72,111,0
4,64,95,0
4,72,111,0
4,64,95,0
4,72,111,0
4,66,95,0
4,74,111,0
4,64,95,0
4,72,111,0
4,62,95,0
4,71,111,0
4,59,95,0
4,67,111,0
4,62,95,0
4,71,111,0
4,62,95,0
4,71,111,0
4,74,111,1536
4,66,111,0
4,83,111,0
4,78,111,0
4,69,111,0
4,86,111,0
4,78,111,0
4,69,111,0
4,86,111,0
4,78,111,0
4,69,111,0
4,86,111,0
4,74,111,0
4,66,111,0
4,83,111,0
4,67,111,0
4,71,111,0
4,76,95,0
4,67,111,0
4,71,111,0
4,76,79,0
4,71,111,768
4,74,111,0
4,76,111,0
4,74,111,0
4,78,111,0
4,79,111,0
4,78,111,0
4,76,111,0
4,79,111,0
4,81,111,0
4,74,111,0
4,78,111,0
4,71,111,0
4,67,111,0
4,69,111,0
4,71,111,576
4,62,111,0
4,79,111,0
4,74,111,0
4,66,111,0
4,83,111,0
4,78,111,0
4,69,111,0
4,86,111,0
4,74,111,0
4,78,111,0
4,69,111,0
4,86,111,0
4,74,111,0
4,78,111,0
4,71,111,0
4,74,111,0
4,67,111,0
4,71,111,0
4,67,111,0
4,71,111,0
4,69,111,0
4,72,111,0
4,69,111,0
4,72,111,0
4,69,111,0
4,72,111,0
4,69,111,0
4,72,111,0
4,71,111,0
4,74,111,0
4,69,111,0
4,72,111,0
4,69,111,0
4,72,111,0
4,67,111,0
4,71,111,0
4,64,111,0
4,67,111,0
4,67,111,0
4,71,111,0
4,67,111,0
4,71,111,0
4,67,95,1536
4,71,95,0
4,66,95,0
4,69,95,0
4,64,95,0
4,67,95,0
4,64,95,0
4,67,95,0
4,60,111,0
4,64,111,0
4,60,111,0
4,64,111,0
4,62,111,0
4,66,111,0
4,62,111,0
4,66,111,0
4,64,111,24192
4,72,111,0
4,62,95,0
4,71,111,0
4,66,95,0
4,74,111,0
4,66,95,0
4,74,111,0
4,66,95,0
4,74,111,0
4,66,95,0
4,74,111,0
4,66,95,0
4,74,111,0
4,66,95,0
4,74,111,0
4,66,95,0
4,74,111,0
4,64,95,0
4,72,111,0
4,64,95,0
4,72,111,0
4,62,95,0
4,71,111,0
4,64,95,1920
4,72,111,0
4,64,95,0
4,72,111,0
4,64,95,0
4,72,111,0
4,64,95,0
4,72,111,0
4,64,95,0
4,72,111,0
4,62,95,0
4,71,111,0
4,61,95,0
4,69,111,0
4,62,95,0
4,71,111,0
4,64,95,0
4,72,111,0
4,62,95,2112
4,71,111,0
4,66,95,0
4,74,111,0
4,66,95,0
4,74,111,0
4,66,95,0
4,74,111,0
4,66,95,0
4,74,111,0
4,71,95,0
4,79,111,0
4,69,95,0
4,77,111,0
4,66,95,192
4,74,111,0
4,66,95,0
4,74,111,0
4,64,95,0
4,72,111,0
4,62,95,0
4,71,111,0
4,66,95,1536
4,74,111,0
4,62,95,0
4,71,111,0
4,64,95,0
4,72,111,0
4,64,95,0
4,72,111,0
4,64,95,0
4,72,111,0
4,66,95,0
4,74,111,0
4,64,95,0
4,72,111,0
4,62,95,0
4,71,111,0
4,59,95,0
4,67,111,0
4,62,95,0
4,71,111,0
4,62,95,0
4,71,111,0
4,74,111,1536
4,66,111,0
4,83,111,0
4,78,111,0
4,69,111,0
4,86,111,0
4,78,111,0
4,69,111,0
4,86,111,0
4,78,111,0
4,69,111,0
4,86,111,0
4,74,111,0
4,66,111,0
4,83,111,0
4,67,111,0
4,71,111,0
4,76,95,0
4,67,111,0
4,71,111,0
4,76,79,0
4,71,111,768
4,74,111,0
4,76,111,0
4,74,111,0
4,78,111,0
4,79,111,0
4,78,111,0
4,76,111,0
4,79,111,0
4,81,111,0
4,74,111,0
4,78,111,0
4,71,111,0
4,67,111,0
4,69,111,0
4,71,111,576
4,62,111,0
4,79,111,0
4,74,111,0
4,66,111,0
4,83,111,0
4,78,111,0
4,69,111,0
4,86,111,0
4,74,111,0
4,78,111,0
4,69,111,0
4,86,111,0
4,74,111,0
4,78,111,0
4,71,111,0
4,74,111,0
4,67,111,0
4,71,111,0
4,67,111,0
4,71,111,0
4,69,111,0
4,72,111,0
4,69,111,0
4,72,111,0
4,69,111,0
4,72,111,0
4,69,111,0
4,72,111,0
4,71,111,0
4,74,111,0
4,69,111,0
4,72,111,0
4,69,111,0
4,72,111,0
4,67,111,0
4,71,111,0
4,64,111,0
4,67,111,0
4,67,111,0
4,71,111,0
4,67,111,0
4,71,111,0
4,67,111,0
4,71,111,0
4,69,111,1536
4,72,111,0
4,69,111,0
4,72,111,0
4,69,111,0
4,72,111,0
4,71,111,0
4,74,111,0
4,69,111,0
4,72,111,0
4,69,111,0
4,72,111,0
4,67,111,0
4,71,111,0
4,64,111,0
4,67,111,0
4,67,111,0
4,71,111,0
4,67,111,0
4,71,111,0
4,67,111,0
4,71,111,0
4,69,111,1536
4,72,111,0
4,69,111,0
4,72,111,0
4,69,111,0
4,72,111,0
4,71,111,0
4,74,111,0
4,69,111,0
4,72,111,0
4,69,111,0
4,72,111,0
4,67,111,0
4,71,111,0
4,64,111,0
4,67,111,0
4,67,111,0
4,71,111,0
4,67,111,0
4,71,111,0
5,74,111,60864
5,79,111,0
5,79,111,0
5,74,111,0
5,83,111,0
5,90,88,13824
5,91,107,0
5,86,93,72
5,86,89,480
5,88,111,0
5,86,85,96
5,84,85,160
5,83,86,96
5,81,85,544
5,83,114,16
5,79,96,16
5,79,85,856
5,81,85,0
5,83,98,0
5,79,85,32
5,62,91,8336
5,67,92,0
5,71,85,0
5,50,85,1104
5,55,85,0
5,59,85,16
5,66,95,200
5,74,85,912
5,79,98,16
5,83,85,16
5,74,85,72
5,77,85,400
5,74,61,16
5,79,85,16
5,77,85,48
5,74,85,24
5,76,85,2376
5,72,85,0
5,79,85,0
5,86,85,1504
5,91,85,208
5,95,89,192
5,91,88,104
5,86,85,136
5,79,111,12424
5,74,111,0
5,83,111,0
5,74,111,73152
5,79,111,0
5,79,111,0
5,74,111,0
5,83,111,0
5,67,79,0
5,71,111,0
5,66,79,0
5,69,111,0
5,64,79,0
5,67,111,0
6,31,111,0
6,31,111,96
6,38,111,32
6,38,111,192
6,30,111,64
6,30,111,96
6,30,111,64
6,30,111,192
6,36,111,0
6,36,111,96
6,31,111,64
6,31,111,192
6,36,111,0
6,36,111,96
6,31,111,64
6,31,111,32
6,36,111,32
6,31,111,32
6,33,111,32
6,33,111,96
6,28,111,32
6,28,111,192
6,38,111,32
6,38,111,32
6,33,111,64
6,33,111,192
6,31,111,32
6,31,111,32
6,38,111,64
6,38,111,192
6,31,111,0
6,31,111,32
6,38,111,64
6,38,111,192
6,31,111,0
6,31,111,96
6,31,111,32
6,31,111,128
6,31,111,96
6,31,111,96
6,36,111,128
6,36,111,96
6,31,111,64
6,31,111,192
6,36,111,0
6,36,111,96
6,31,111,64
6,36,111,64
6,33,111,64
6,33,111,96
6,40,111,32
6,40,111,256
6,33,111,32
6,33,111,96
6,28,111,32
6,28,111,192
6,38,111,32
6,38,111,32
6,33,111,64
6,33,111,192
6,38,111,32
6,38,111,32
6,28,111,64
6,30,111,0
6,31,111,0
6,31,111,96
6,31,111,32
6,31,111,128
6,31,111,96
6,31,111,96
6,36,111,128
6,36,111,96
6,31,111,32
6,31,111,192
6,36,111,32
6,36,111,96
6,31,111,32
6,31,111,32
6,36,111,32
6,33,111,64
6,33,111,96
6,28,111,32
6,28,111,192
6,36,111,32
6,36,111,96
6,31,111,32
6,31,111,192
6,31,111,32
6,31,111,96
6,38,111,32
6,38,111,192
6,31,111,0
6,31,111,96
6,38,111,32
6,38,111,192
6,31,111,0
6,31,111,96
6,31,111,96
6,31,111,128
6,31,111,96
6,31,111,96
6,36,111,128
6,36,111,96
6,31,111,96
6,31,111,192
6,36,111,32
6,36,111,96
6,31,111,96
6,36,111,0
6,33,111,0
6,33,111,96
6,33,111,32
6,33,111,128
6,33,111,96
6,33,111,32
6,36,111,64
6,38,111,64
6,38,111,96
6,33,111,32
6,33,111,192
6,38,111,32
6,38,111,96
6,28,111,32
6,30,111,0
6,31,111,0
6,31,111,96
6,31,111,32
6,31,111,128
6,31,111,96
6,31,111,32
6,36,111,128
6,36,111,96
6,31,111,32
6,31,111,192
6,36,111,32
6,36,111,96
6,31,111,32
6,36,111,0
6,33,111,0
6,33,111,96
6,28,111,32
6,28,111,192
6,36,111,32
6,36,111,96
6,31,111,32
6,31,111,192
6,31,111,32
6,31,111,96
6,38,111,32
6,38,111,192
6,36,111,32
6,36,111,96
6,38,111,32
6,31,111,0
6,31,111,96
6,31,111,32
6,31,111,128
6,31,111,96
6,31,111,96
6,36,111,128
6,36,111,96
6,31,111,64
6,31,111,192
6,36,111,0
6,36,111,96
6,31,111,64
6,36,111,64
6,33,111,64
6,33,111,96
6,40,111,32
6,40,111,256
6,33,111,32
6,33,111,96
6,28,111,32
6,28,111,192
6,38,111,32
6,38,111,32
6,33,111,64
6,33,111,192
6,38,111,32
6,38,111,32
6,28,111,64
6,30,111,0
6,31,111,0
6,31,111,96
6,31,111,32
6,31,111,128
6,31,111,96
6,31,111,96
6,36,111,128
6,36,111,96
6,31,111,32
6,31,111,192
6,36,111,32
6,36,111,96
6,31,111,32
6,31,111,32
6,36,111,32
6,33,111,64
6,33,111,96
6,28,111,32
6,28,111,192
6,36,111,32
6,36,111,96
6,31,111,32
6,31,111,192
6,31,111,32
6,31,111,96
6,38,111,32
6,38,111,192
6,31,127,0
6,31,111,0
6,43,111,0
6,31,111,0
6,31,111,0
6,30,111,0
6,28,111,0
6,28,111,96
6,35,111,32
6,35,111,192
6,35,111,0
6,35,111,96
6,35,111,32
6,35,111,192
6,33,111,0
6,28,111,0
6,33,111,0
6,33,111,192
6,38,111,0
6,38,111,0
6,33,111,0
6,38,111,0
6,31,111,0
6,31,111,96
6,31,111,32
6,43,111,128
6,43,111,96
6,43,111,32
6,36,111,128
6,36,111,96
6,31,111,32
6,36,111,0
6,33,111,0
6,33,111,96
6,28,111,32
6,33,111,0
6,33,111,0
6,33,111,96
6,28,111,32
6,33,111,0
6,35,111,0
6,38,111,0
6,38,111,96
6,33,111,32
6,38,111,0
6,31,111,0
6,31,111,96
6,38,111,32
6,38,111,192
6,30,111,64
6,30,111,96
6,30,111,64
6,30,111,192
6,36,111,0
6,36,111,96
6,31,111,64
6,31,111,192
6,36,111,0
6,36,111,96
6,31,111,64
6,31,111,32
6,36,111,32
6,31,111,32
6,33,111,32
6,33,111,96
6,28,111,32
6,28,111,192
6,38,111,32
6,38,111,32
6,33,111,64
6,33,111,192
6,31,111,32
6,31,111,32
6,38,111,64
6,38,111,192
6,31,111,0
6,31,111,32
6,38,111,64
6,38,111,192
6,31,111,0
6,31,111,96
6,31,111,32
6,31,111,128
6,31,111,96
6,31,111,96
6,36,111,128
6,36,111,96
6,31,111,64
6,31,111,192
6,36,111,0
6,36,111,96
6,31,111,64
6,36,111,64
6,33,111,64
6,33,111,96
6,40,111,32
6,40,111,256
6,33,111,32
6,33,111,96
6,28,111,32
6,28,111,192
6,38,111,0
6,38,111,96
6,36,111,32
6,36,111,96
6,35,111,32
6,35,111,96
6,33,111,32
6,33,111,96
6,31,111,32
6,31,111,96
6,31,111,32
6,31,111,128
6,31,111,96
6,31,111,96
6,36,111,128
6,36,111,96
6,31,111,32
6,31,111,192
6,36,111,32
6,36,111,96
6,31,111,32
6,31,111,32
6,36,111,32
6,33,111,64
6,33,111,96
6,28,111,32
6,28,111,192
6,36,111,32
6,36,111,96
6,31,111,32
6,31,111,192
6,31,111,32
6,31,111,96
6,38,111,32
6,38,111,192
6,31,111,0
6,31,111,96
6,38,111,32
6,38,111,192
6,31,111,0
6,31,111,96
6,31,111,32
6,31,111,128
6,31,111,96
6,31,111,96
6,36,111,128
6,36,111,96
6,31,111,64
6,31,111,192
6,36,111,0
6,36,111,96
6,31,111,64
6,36,111,64
6,33,111,64
6,33,111,96
6,40,111,32
6,40,111,256
6,33,111,32
6,33,111,96
6,28,111,32
6,28,111,192
6,38,111,32
6,38,111,32
6,33,111,64
6,33,111,192
6,38,111,32
6,38,111,32
6,28,111,64
6,30,111,0
6,31,111,0
