track,note,velocity,time
1,57,100,0
1,57,0,60
1,59,100,0
1,59,0,60
1,64,100,0
1,64,0,60
1,59,100,0
1,59,0,120
1,57,100,0
1,57,0,60
1,59,100,0
1,59,0,60
1,64,100,0
1,64,0,60
1,57,100,0
1,57,0,60
1,59,100,0
1,59,0,60
1,64,100,0
1,64,0,60
1,59,100,0
1,59,0,120
1,57,100,0
1,57,0,60
1,59,100,0
1,59,0,60
1,64,100,0
1,64,0,60
1,57,100,0
1,57,0,60
1,59,100,0
1,59,0,60
1,64,100,0
1,64,0,60
1,59,100,0
1,59,0,120
1,57,100,0
1,57,0,60
1,59,100,0
1,59,0,60
1,64,100,0
1,64,0,60
1,57,100,0
1,57,0,60
1,59,100,0
1,59,0,60
1,64,100,0
1,64,0,60
1,59,100,0
1,59,0,120
1,57,100,0
1,57,0,60
1,59,100,0
1,59,0,60
1,64,100,0
1,64,0,60
1,57,100,0
1,57,0,60
1,59,100,0
1,59,0,60
1,64,100,0
1,64,0,60
1,59,100,0
1,59,0,120
1,57,100,0
1,57,0,60
1,59,100,0
1,59,0,60
1,64,100,0
1,64,0,60
1,57,100,0
1,57,0,60
1,59,100,0
1,59,0,60
1,64,100,0
1,64,0,60
1,59,100,0
1,59,0,120
1,57,100,0
1,57,0,60
1,59,100,0
1,59,0,60
1,64,100,0
1,64,0,60
1,57,100,0
1,57,0,60
1,59,100,0
1,59,0,60
1,64,100,0
1,64,0,60
1,59,100,0
1,59,0,120
1,57,100,0
1,57,0,60
1,59,100,0
1,59,0,60
1,64,100,0
1,64,0,60
1,57,100,0
1,57,0,60
1,59,100,0
1,59,0,60
1,64,100,0
1,64,0,60
1,59,100,0
1,59,0,120
1,57,100,0
1,57,0,60
1,59,100,0
1,59,0,60
1,64,100,0
1,64,0,60
1,57,100,0
1,57,0,60
1,59,100,0
1,59,0,60
1,64,100,0
1,64,0,60
1,59,100,0
1,59,0,120
1,57,100,0
1,57,0,60
1,59,100,0
1,59,0,60
1,64,100,0
1,64,0,60
1,57,100,0
1,57,0,60
1,59,100,0
1,59,0,60
1,64,100,0
1,64,0,60
1,59,100,0
1,59,0,120
1,57,100,0
1,57,0,60
1,59,100,0
1,59,0,60
1,64,100,0
1,64,0,60
1,57,100,0
1,57,0,60
1,59,100,0
1,59,0,60
1,64,100,0
1,64,0,60
1,59,100,0
1,59,0,120
1,57,100,0
1,57,0,60
1,59,100,0
1,59,0,60
1,64,100,0
1,64,0,60
1,57,100,0
1,57,0,60
1,59,100,0
1,59,0,60
1,64,100,0
1,64,0,60
1,59,100,0
1,59,0,120
1,57,100,0
1,57,0,60
1,59,100,0
1,59,0,60
1,64,100,0
1,64,0,60
1,57,100,0
1,57,0,60
1,59,100,0
1,59,0,60
1,64,100,0
1,64,0,60
1,59,100,0
1,59,0,120
1,57,100,0
1,57,0,60
1,59,100,0
1,59,0,60
1,64,100,0
1,64,0,60
1,57,100,0
1,57,0,60
1,59,100,0
1,59,0,60
1,64,100,0
1,64,0,60
1,59,100,0
1,59,0,120
1,57,100,0
1,57,0,60
1,59,100,0
1,59,0,60
1,64,100,0
1,64,0,60
1,57,100,0
1,57,0,60
1,59,100,0
1,59,0,60
1,64,100,0
1,64,0,60
1,59,100,0
1,59,0,120
1,57,100,0
1,57,0,60
1,59,100,0
1,59,0,60
1,64,100,0
1,64,0,60
1,57,100,0
1,57,0,60
1,59,100,0
1,59,0,60
1,64,100,0
1,64,0,60
1,59,100,0
1,59,0,120
1,57,100,0
1,57,0,60
1,59,100,0
1,59,0,60
1,64,100,0
1,64,0,60
1,57,100,0
1,57,0,60
1,59,100,0
1,59,0,60
1,64,100,0
1,64,0,60
1,59,100,0
1,59,0,120
1,57,100,0
1,57,0,60
1,59,100,0
1,59,0,60
1,64,100,0
1,64,0,60
1,57,100,0
1,57,0,60
1,59,100,0
1,59,0,60
1,64,100,0
1,64,0,60
1,59,100,0
1,59,0,120
1,57,100,0
1,57,0,60
1,59,100,0
1,59,0,60
1,64,100,0
1,64,0,60
1,57,100,0
1,57,0,60
1,59,100,0
1,59,0,60
1,64,100,0
1,64,0,60
1,59,100,0
1,59,0,120
1,57,100,0
1,57,0,60
1,59,100,0
1,59,0,60
1,64,100,0
1,64,0,60
1,57,100,0
1,57,0,60
1,59,100,0
1,59,0,60
1,64,100,0
1,64,0,60
1,59,100,0
1,59,0,120
1,57,100,0
1,57,0,60
1,59,100,0
1,59,0,60
1,64,100,0
1,64,0,60
1,57,100,0
1,57,0,60
1,59,100,0
1,59,0,60
1,64,100,0
1,64,0,60
1,59,100,0
1,59,0,120
1,57,100,0
1,57,0,60
1,59,100,0
1,59,0,60
1,64,100,0
1,64,0,60
1,57,100,0
1,57,0,60
1,59,100,0
1,59,0,60
1,64,100,0
1,64,0,60
1,59,100,0
1,59,0,120
1,57,100,0
1,57,0,60
1,59,100,0
1,59,0,60
1,64,100,0
1,64,0,60
1,57,100,0
1,57,0,60
1,59,100,0
1,59,0,60
1,64,100,0
1,64,0,60
1,59,100,0
1,59,0,120
1,57,100,0
1,57,0,60
1,59,100,0
1,59,0,60
1,64,100,0
1,64,0,60
1,57,100,0
1,57,0,60
1,59,100,0
1,59,0,60
1,64,100,0
1,64,0,60
1,59,100,0
1,59,0,120
1,57,100,0
1,57,0,60
1,59,100,0
1,59,0,60
1,64,100,0
1,64,0,60
1,57,100,0
1,57,0,60
1,59,100,0
1,59,0,60
1,64,100,0
1,64,0,60
1,59,100,0
1,59,0,120
1,57,100,0
1,57,0,60
1,59,100,0
1,59,0,60
1,64,100,0
1,64,0,60
1,57,100,0
1,57,0,60
1,59,100,0
1,59,0,60
1,64,100,0
1,64,0,60
1,59,100,0
1,59,0,120
1,57,100,0
1,57,0,60
1,59,100,0
1,59,0,60
1,64,100,0
1,64,0,60
1,57,100,0
1,57,0,60
1,59,100,0
1,59,0,60
1,64,100,0
1,64,0,60
1,59,100,0
1,59,0,120
1,57,100,0
1,57,0,60
1,59,100,0
1,59,0,60
1,64,100,0
1,64,0,60
1,57,100,0
1,57,0,60
1,59,100,0
1,59,0,60
1,64,100,0
1,64,0,60
1,59,100,0
1,59,0,120
1,57,100,0
1,57,0,60
1,59,100,0
1,59,0,60
1,64,100,0
1,64,0,60
1,57,100,0
1,57,0,60
1,59,100,0
1,59,0,60
1,64,100,0
1,64,0,60
1,59,100,0
1,59,0,120
1,57,100,0
1,57,0,60
1,59,100,0
1,59,0,60
1,64,100,0
1,64,0,60
1,57,100,0
1,57,0,60
1,59,100,0
1,59,0,60
1,64,100,0
1,64,0,60
1,59,100,0
1,59,0,120
1,57,100,0
1,57,0,60
1,59,100,0
1,59,0,60
1,64,100,0
1,64,0,60
1,57,100,0
1,57,0,60
1,59,100,0
1,59,0,60
1,64,100,0
1,64,0,60
1,59,100,0
1,59,0,120
1,57,100,0
1,57,0,60
1,59,100,0
1,59,0,60
1,64,100,0
1,64,0,60
1,57,100,0
1,57,0,60
1,59,100,0
1,59,0,60
1,64,100,0
1,64,0,60
1,59,100,0
1,59,0,120
1,57,100,0
1,57,0,60
1,59,100,0
1,59,0,60
1,64,100,0
1,64,0,60
1,57,100,0
1,57,0,60
1,59,100,0
1,59,0,60
1,64,100,0
1,64,0,60
1,59,100,0
1,59,0,120
1,57,100,0
1,57,0,60
1,59,100,0
1,59,0,60
1,64,100,0
1,64,0,60
1,57,100,0
1,57,0,60
1,59,100,0
1,59,0,60
1,64,100,0
1,64,0,60
1,59,100,0
1,59,0,120
1,57,100,0
1,57,0,60
1,59,100,0
1,59,0,60
1,64,100,0
1,64,0,60
1,57,100,0
1,57,0,60
1,59,100,0
1,59,0,60
1,64,100,0
1,64,0,60
1,59,100,0
1,59,0,120
1,57,100,0
1,57,0,60
1,59,100,0
1,59,0,60
1,64,100,0
1,64,0,60
1,57,100,0
1,57,0,60
1,59,100,0
1,59,0,60
1,64,100,0
1,64,0,60
1,59,100,0
1,59,0,120
1,57,100,0
1,57,0,60
1,59,100,0
1,59,0,60
1,64,100,0
1,64,0,60
1,57,100,0
1,57,0,60
1,59,100,0
1,59,0,60
1,64,100,0
1,64,0,60
1,59,100,0
1,59,0,120
1,57,100,0
1,57,0,60
1,59,100,0
1,59,0,60
1,64,100,0
1,64,0,60
1,57,100,0
1,57,0,60
1,59,100,0
1,59,0,60
1,64,100,0
1,64,0,60
1,59,100,0
1,59,0,120
1,57,100,0
1,57,0,60
1,59,100,0
1,59,0,60
1,64,100,0
1,64,0,60
1,57,100,0
1,57,0,60
1,59,100,0
1,59,0,60
1,64,100,0
1,64,0,60
1,59,100,0
1,59,0,120
1,57,100,0
1,57,0,60
1,59,100,0
1,59,0,60
1,64,100,0
1,64,0,60
1,57,100,0
1,57,0,60
1,59,100,0
1,59,0,60
1,64,100,0
1,64,0,60
1,59,100,0
1,59,0,120
1,57,100,0
1,57,0,60
1,59,100,0
1,59,0,60
1,64,100,0
1,64,0,60
1,57,100,0
1,57,0,60
1,62,100,0
1,62,0,60
1,66,100,0
1,66,0,60
1,62,100,0
1,62,0,120
1,57,100,0
1,57,0,60
1,62,100,0
1,62,0,60
1,66,100,0
1,66,0,120
1,57,100,0
1,57,0,60
1,66,100,0
1,66,0,60
1,62,100,0
1,62,0,120
1,57,100,0
1,57,0,60
1,62,100,0
1,62,0,60
1,66,100,0
1,66,0,120
1,57,100,0
1,57,0,60
1,66,100,0
1,66,0,60
1,61,100,0
1,61,0,120
1,57,100,0
1,57,0,60
1,61,100,0
1,61,0,60
1,66,100,0
1,66,0,120
1,57,100,1
1,57,0,60
1,66,100,0
1,66,0,60
1,61,100,0
1,61,0,120
1,57,100,0
1,57,0,60
1,61,100,0
1,61,0,60
1,66,100,0
1,57,100,119
1,66,0,1
1,57,0,59
1,66,100,0
1,66,0,60
1,62,100,0
1,62,0,120
1,57,100,2
1,62,100,58
1,57,0,2
1,62,0,58
1,66,100,2
1,66,0,120
1,57,100,1
1,57,0,60
1,66,100,0
1,66,0,60
1,62,100,0
1,62,0,120
1,57,100,0
1,57,0,60
1,62,100,0
1,62,0,60
1,66,100,0
1,56,100,117
1,66,0,3
1,56,0,57
1,59,100,0
1,59,0,60
1,64,100,0
1,64,0,120
1,56,100,0
1,56,0,60
1,59,100,0
1,59,0,60
1,64,100,0
1,64,0,120
1,56,100,0
1,56,0,60
1,59,100,0
1,59,0,60
1,64,100,0
1,64,0,300
1,57,100,0
1,57,0,60
1,59,100,0
1,59,0,60
1,64,100,0
1,64,0,60
1,59,100,0
1,59,0,120
1,57,100,0
1,57,0,60
1,59,100,0
1,59,0,60
1,64,100,0
1,64,0,60
1,57,100,0
1,57,0,60
1,59,100,0
1,59,0,60
1,64,100,0
1,64,0,60
1,59,100,0
1,59,0,120
1,57,100,0
1,57,0,60
1,59,100,0
1,59,0,60
1,64,100,0
1,64,0,60
1,57,100,0
1,57,0,60
1,59,100,0
1,59,0,60
1,64,100,0
1,64,0,60
1,59,100,0
1,59,0,120
1,57,100,0
1,57,0,60
1,59,100,0
1,59,0,60
1,64,100,0
1,64,0,60
1,57,100,0
1,57,0,60
1,59,100,0
1,59,0,60
1,64,100,0
1,64,0,60
1,59,100,0
1,59,0,120
1,57,100,0
1,57,0,60
1,59,100,0
1,59,0,60
1,64,100,0
1,64,0,60
1,57,100,0
1,57,0,60
1,59,100,0
1,59,0,60
1,64,100,0
1,64,0,60
1,59,100,0
1,59,0,120
1,57,100,0
1,57,0,60
1,59,100,0
1,59,0,60
1,64,100,0
1,64,0,60
1,57,100,0
1,57,0,60
1,59,100,0
1,59,0,60
1,64,100,0
1,64,0,60
1,59,100,0
1,59,0,120
1,57,100,0
1,57,0,60
1,59,100,0
1,59,0,60
1,64,100,0
1,64,0,60
1,57,100,0
1,57,0,60
1,59,100,0
1,59,0,60
1,64,100,0
1,64,0,60
1,59,100,0
1,59,0,120
1,57,100,0
1,57,0,60
1,59,100,0
1,59,0,60
1,64,100,0
1,64,0,60
1,57,100,0
1,57,0,60
1,59,100,0
1,59,0,60
1,64,100,0
1,64,0,60
1,59,100,0
1,59,0,120
1,57,100,0
1,57,0,60
1,59,100,0
1,59,0,60
1,64,100,0
1,64,0,60
1,57,100,0
1,57,0,60
1,59,100,0
1,59,0,60
1,64,100,0
1,64,0,60
1,59,100,0
1,59,0,120
1,57,100,0
1,57,0,60
1,59,100,0
1,59,0,60
1,64,100,0
1,64,0,60
1,57,100,0
1,57,0,60
1,59,100,0
1,59,0,60
1,64,100,0
1,64,0,60
1,59,100,0
1,59,0,120
1,57,100,0
1,57,0,60
1,59,100,0
1,59,0,60
1,64,100,0
1,64,0,60
1,57,100,0
1,57,0,60
1,59,100,0
1,59,0,60
1,64,100,0
1,64,0,60
1,59,100,0
1,59,0,120
1,57,100,0
1,57,0,60
1,59,100,0
1,59,0,60
1,64,100,0
1,64,0,60
1,57,100,0
1,57,0,60
1,59,100,0
1,59,0,60
1,64,100,0
1,64,0,60
1,59,100,0
1,59,0,120
1,57,100,0
1,57,0,60
1,59,100,0
1,59,0,60
1,64,100,0
1,64,0,60
1,57,100,0
1,57,0,60
1,59,100,0
1,59,0,60
1,64,100,0
1,64,0,60
1,59,100,0
1,59,0,120
1,57,100,0
1,57,0,60
1,59,100,0
1,59,0,60
1,64,100,0
1,64,0,60
1,57,100,0
1,57,0,60
1,59,100,0
1,59,0,60
1,64,100,0
1,64,0,60
1,59,100,0
1,59,0,120
1,57,100,0
1,57,0,60
1,59,100,0
1,59,0,60
1,64,100,0
1,64,0,60
1,57,100,0
1,57,0,60
1,59,100,0
1,59,0,60
1,64,100,0
1,64,0,60
1,59,100,0
1,59,0,120
1,57,100,0
1,57,0,60
1,59,100,0
1,59,0,60
1,64,100,0
1,64,0,60
1,57,100,0
1,57,0,60
1,59,100,0
1,59,0,60
1,64,100,0
1,64,0,60
1,59,100,0
1,59,0,120
1,57,100,0
1,57,0,60
1,59,100,0
1,59,0,60
1,64,100,0
1,64,0,60
1,57,100,0
1,57,0,60
1,62,100,0
1,62,0,60
1,66,100,0
1,66,0,60
1,62,100,0
1,62,0,120
1,57,100,0
1,57,0,60
1,62,100,0
1,62,0,60
1,66,100,0
1,66,0,120
1,57,100,0
1,57,0,60
1,66,100,0
1,66,0,60
1,62,100,0
1,62,0,120
1,57,100,0
1,57,0,60
1,62,100,0
1,62,0,60
1,66,100,0
1,66,0,120
1,57,100,0
1,57,0,60
1,66,100,0
1,66,0,60
1,61,100,0
1,61,0,120
1,57,100,0
1,57,0,60
1,61,100,0
1,61,0,60
1,66,100,0
1,66,0,120
1,57,100,1
1,57,0,60
1,66,100,0
1,66,0,60
1,61,100,0
1,61,0,120
1,57,100,0
1,57,0,60
1,61,100,0
1,61,0,60
1,66,100,0
1,57,100,119
1,66,0,1
1,57,0,59
1,66,100,0
1,66,0,60
1,62,100,0
1,62,0,120
1,57,100,2
1,62,100,58
1,57,0,2
1,62,0,58
1,66,100,2
1,66,0,120
1,57,100,1
1,57,0,60
1,66,100,0
1,66,0,60
1,62,100,0
1,62,0,120
1,57,100,0
1,57,0,60
1,62,100,0
1,62,0,60
1,66,100,0
1,56,100,117
1,66,0,3
1,56,0,57
1,59,100,0
1,59,0,60
1,64,100,0
1,64,0,120
1,56,100,0
1,56,0,60
1,59,100,0
1,59,0,60
1,64,100,0
1,64,0,120
1,56,100,0
1,56,0,60
1,59,100,0
1,59,0,60
1,64,100,0
1,64,0,300
1,57,100,0
1,57,0,60
1,59,100,0
1,59,0,60
1,64,100,0
1,64,0,60
1,59,100,0
1,59,0,120
1,57,100,0
1,57,0,60
1,59,100,0
1,59,0,60
1,64,100,0
1,64,0,60
1,57,100,0
1,57,0,60
1,59,100,0
1,59,0,60
1,64,100,0
1,64,0,60
1,59,100,0
1,59,0,120
1,57,100,0
1,57,0,60
1,59,100,0
1,59,0,60
1,64,100,0
1,64,0,60
1,57,100,0
1,57,0,60
1,59,100,0
1,59,0,60
