track,note,velocity,time
3,68,79,8760
3,68,0,80
3,68,79,40
3,68,0,80
3,69,79,40
3,69,0,80
3,71,79,40
3,71,0,80
3,73,79,40
3,73,0,60
3,75,79,0
3,75,0,220
3,73,79,80
3,73,0,80
3,71,79,40
3,71,0,200
3,69,79,40
3,69,0,200
3,68,79,40
3,68,0,60
3,69,79,0
3,69,0,100
3,69,79,20
3,69,0,60
3,71,79,0
3,71,0,80
3,73,79,2200
3,73,0,75
3,73,79,45
3,73,0,75
3,73,79,45
3,73,0,75
3,75,79,45
3,75,0,60
3,73,79,0
3,73,0,60
3,71,79,0
3,71,0,80
3,71,79,40
3,71,0,200
3,71,79,280
3,71,0,40
3,68,79,20
3,68,0,40
3,71,79,20
3,71,0,40
3,68,79,20
3,68,0,80
3,71,79,40
3,71,0,100
3,71,79,20
3,71,0,40
3,68,79,20
3,68,0,60
3,66,79,0
3,66,0,60
3,64,79,0
3,64,0,80
3,68,79,2080
3,68,0,80
3,69,79,40
3,69,0,80
3,71,79,40
3,71,0,80
3,73,79,40
3,73,0,60
3,75,79,0
3,75,0,220
3,73,79,200
3,73,0,40
3,71,79,20
3,71,0,140
3,69,79,40
3,69,0,160
3,68,79,20
3,68,0,80
3,69,79,40
3,69,0,140
3,69,79,40
3,69,0,60
3,71,79,0
3,71,0,140
3,73,79,2080
3,73,0,75
3,73,79,45
3,73,0,75
3,73,79,45
3,73,0,75
3,75,79,45
3,75,0,60
3,73,79,0
3,73,0,60
3,71,79,0
3,71,0,80
3,71,79,40
3,71,0,200
3,73,79,280
3,73,0,40
3,71,79,20
3,71,0,40
3,71,79,20
3,71,0,80
3,68,79,40
3,68,0,80
3,71,79,40
3,71,0,40
3,71,79,20
3,71,0,40
3,68,79,20
3,68,0,60
3,66,79,0
3,66,0,60
3,64,79,0
3,64,0,80
3,73,79,2080
3,73,0,80
3,75,79,40
3,75,0,80
3,76,79,40
3,76,0,80
3,73,79,40
3,73,0,60
3,75,79,0
3,75,0,60
3,73,79,0
3,73,0,80
3,73,79,40
3,73,0,200
3,68,79,1000
3,68,0,80
3,73,79,40
3,73,0,80
3,75,79,40
3,75,0,160
3,76,79,20
3,76,0,60
3,73,79,0
3,73,0,80
3,73,79,40
3,73,0,160
3,73,79,1280
3,73,0,80
3,75,79,40
3,75,0,80
3,76,79,40
3,76,0,80
3,73,79,40
3,73,0,80
3,75,79,40
3,75,0,120
3,73,79,0
3,73,0,80
3,73,79,40
3,73,0,80
3,61,95,1000
3,61,0,40
3,69,95,20
3,69,0,60
3,71,95,0
3,71,0,120
3,68,95,60
3,68,0,100
3,71,95,20
3,71,0,120
3,71,95,60
3,71,0,120
3,68,95,0
3,68,0,60
3,66,95,0
3,66,0,140
3,68,95,1000
3,68,0,80
3,68,95,40
3,68,0,105
3,69,95,55
3,69,0,105
3,71,95,55
3,71,0,105
3,73,95,55
3,73,0,60
3,75,95,0
3,75,0,180
3,73,95,0
3,73,0,80
3,73,95,40
3,73,0,120
3,71,95,0
3,71,0,105
3,69,95,55
3,69,0,105
3,68,95,55
3,68,0,105
3,69,95,55
3,69,0,160
3,69,95,80
3,69,0,80
3,71,95,40
3,71,0,60
3,68,95,0
3,68,0,60
3,66,95,0
3,66,0,160
3,73,79,1760
3,73,0,80
3,73,79,40
3,73,0,80
3,73,79,40
3,73,0,80
3,75,79,40
3,75,0,60
3,73,79,0
3,73,0,60
3,71,79,0
3,71,0,80
3,71,79,40
3,71,0,80
3,68,79,280
3,68,0,80
3,71,79,40
3,71,0,80
3,66,79,40
3,66,0,60
3,68,79,0
3,68,0,40
3,68,79,20
3,68,0,80
3,68,79,40
3,68,0,60
3,66,79,0
3,66,0,60
3,64,79,0
3,64,0,80
3,68,79,2080
3,68,0,80
3,68,79,40
3,68,0,105
3,69,79,55
3,69,0,105
3,71,79,55
3,71,0,105
3,78,79,55
3,78,0,240
3,76,79,0
3,76,0,80
3,76,79,40
3,76,0,80
3,71,79,40
3,71,0,80
3,69,79,40
3,69,0,200
3,68,79,40
3,68,0,80
3,69,79,40
3,69,0,160
3,69,79,80
3,69,0,80
3,71,79,40
3,71,0,180
3,68,79,0
3,68,0,60
3,66,79,0
3,66,0,80
3,68,79,760
3,68,0,155
3,71,79,85
3,71,0,155
3,73,79,325
3,73,0,400
3,75,79,80
3,75,0,60
3,73,79,0
3,73,0,60
3,71,79,0
3,71,0,80
3,69,79,40
3,69,0,60
3,71,79,0
3,71,0,260
3,68,79,40
3,68,0,80
3,71,79,40
3,71,0,240
3,71,79,120
3,71,0,80
3,68,79,40
3,68,0,60
3,66,79,0
3,66,0,60
3,64,79,0
3,64,0,80
3,73,79,2200
3,73,0,80
3,75,79,40
3,75,0,80
3,76,79,40
3,76,0,80
3,73,79,40
3,73,0,60
3,75,79,0
3,75,0,60
3,73,79,0
3,73,0,80
3,73,79,40
3,73,0,200
3,68,79,1000
3,68,0,80
3,73,79,40
3,73,0,80
3,75,79,40
3,75,0,160
3,76,79,20
3,76,0,60
3,73,79,0
3,73,0,80
3,73,79,40
3,73,0,160
3,73,79,1280
3,73,0,80
3,75,79,40
3,75,0,200
3,76,79,40
3,76,0,80
3,75,79,40
3,75,0,120
3,73,79,0
3,73,0,80
3,73,79,40
3,73,0,160
3,73,95,920
3,73,0,80
3,73,95,40
3,73,0,105
3,75,95,55
3,75,0,105
3,76,95,55
3,76,0,105
3,78,95,55
3,78,0,360
3,80,95,0
3,80,0,60
3,78,95,0
3,78,0,60
3,76,95,0
3,76,0,240
3,78,95,0
3,78,0,120
3,76,95,0
3,76,0,595
3,71,79,7565
3,71,0,80
3,71,79,40
3,71,0,105
3,73,79,55
3,73,0,105
3,75,79,55
3,75,0,105
3,75,79,55
3,75,0,160
3,75,79,320
3,75,0,105
3,76,79,55
3,76,0,105
3,78,79,55
3,78,0,105
3,76,79,55
3,76,0,60
3,78,79,0
3,78,0,300
3,76,79,0
3,76,0,80
3,76,79,40
3,76,0,160
3,71,79,1640
3,71,0,80
3,71,79,40
3,71,0,105
3,73,79,55
3,73,0,105
3,75,79,55
3,75,0,105
3,75,79,55
3,75,0,160
3,71,79,200
3,71,0,80
3,81,79,40
3,81,0,105
3,80,79,55
3,80,0,105
3,78,79,55
3,78,0,105
3,78,79,55
3,78,0,360
3,76,79,0
3,76,0,80
3,76,79,40
3,76,0,160
3,68,79,200
3,68,0,80
3,75,79,40
3,75,0,360
3,73,79,0
3,73,0,80
3,73,79,40
3,73,0,160
3,72,95,320
3,72,0,360
3,71,95,0
3,71,0,80
3,71,111,40
3,71,0,120
3,69,111,0
3,69,0,80
3,69,111,40
3,69,0,160
3,76,95,80
3,76,0,360
3,78,95,0
3,78,0,80
3,78,95,40
3,78,0,240
3,71,79,600
3,71,0,80
3,71,79,40
3,71,0,105
3,72,79,55
3,72,0,105
3,74,79,55
3,74,0,105
3,76,79,55
3,76,0,60
3,78,79,0
3,78,0,180
3,76,79,0
3,76,0,80
3,76,79,40
3,76,0,80
3,74,79,40
3,74,0,160
3,72,79,80
3,72,0,40
3,71,79,20
3,71,0,40
3,72,79,20
3,72,0,180
3,71,79,0
3,71,0,60
3,69,79,0
3,69,0,80
3,69,79,40
3,69,0,80
3,67,79,1960
3,67,0,40
3,67,79,20
3,67,0,40
3,76,79,20
3,76,0,80
3,76,79,40
3,76,0,80
3,76,79,40
3,76,0,80
3,74,79,40
3,74,0,80
3,78,79,40
3,78,0,60
3,76,79,0
3,76,0,60
3,74,79,0
3,74,0,80
3,74,79,40
3,74,0,80
3,76,79,160
3,76,0,80
3,72,79,40
3,72,0,60
3,74,79,0
3,74,0,340
3,74,79,20
3,74,0,40
3,71,79,20
3,71,0,60
3,69,79,0
3,69,0,60
3,67,79,0
3,67,0,160
3,79,79,1880
3,79,0,80
3,79,79,40
3,79,0,80
3,78,79,40
3,78,0,80
3,76,79,40
3,76,0,80
3,78,79,40
3,78,0,60
3,76,79,0
3,76,0,60
3,74,79,0
3,74,0,160
3,71,79,200
3,71,0,80
3,74,79,40
3,74,0,80
3,76,79,40
3,76,0,80
3,71,79,40
3,71,0,80
3,71,79,40
3,71,0,40
3,72,79,20
3,72,0,120
3,71,79,0
3,71,0,60
3,69,79,0
3,69,0,80
3,69,79,40
3,69,0,80
3,71,79,1280
3,71,0,105
3,74,79,55
3,74,0,105
3,76,79,55
3,76,0,105
3,76,79,55
3,76,0,105
3,76,79,55
3,76,0,105
3,76,79,55
3,76,0,105
3,74,79,55
3,74,0,105
3,74,79,55
3,69,79,100
3,74,0,5
3,69,0,55
3,71,79,0
3,71,0,105
3,74,79,55
3,74,0,105
3,74,79,55
3,69,79,100
3,74,0,5
3,69,0,55
3,71,79,0
3,71,0,105
3,69,79,15
3,71,79,40
3,69,0,20
3,71,0,85
3,71,79,55
3,71,0,105
3,71,79,55
3,71,0,60
3,69,79,0
3,69,0,60
3,67,79,0
3,67,0,280
3,76,79,2000
3,76,0,105
3,78,79,55
3,78,0,105
3,79,79,55
3,79,0,105
3,78,79,55
3,78,0,120
3,76,79,0
3,76,0,80
3,76,79,40
3,76,0,160
3,71,79,920
3,71,0,40
3,71,79,20
3,71,0,40
3,76,79,20
3,76,0,105
3,78,79,55
3,78,0,105
3,79,79,55
3,79,0,105
3,76,79,55
3,76,0,160
3,76,79,1280
3,76,0,75
3,78,79,45
3,78,0,75
3,79,79,45
3,79,0,75
3,76,79,45
3,76,0,75
3,78,79,45
3,78,0,120
3,76,79,0
3,76,0,80
3,76,79,40
3,76,0,160
3,71,79,200
3,71,0,60
3,69,79,0
3,69,0,60
3,67,79,0
3,67,0,80
3,67,79,40
3,67,0,280
3,64,79,200
3,64,0,80
3,76,79,40
3,76,0,120
3,78,79,60
3,78,0,140
3,79,79,40
3,79,0,60
3,78,79,0
3,78,0,40
3,78,79,20
3,78,0,160
3,71,95,200
3,71,0,80
3,78,95,40
3,78,0,120
3,80,95,60
3,80,0,140
3,81,95,40
3,81,0,60
3,80,95,0
3,80,0,40
3,80,95,20
3,78,95,570
3,78,0,30
3,80,0,0
3,80,95,0
3,78,95,150
3,78,0,30
3,80,0,0
3,80,95,0
3,80,0,180
3,78,95,0
3,78,0,40
3,80,95,0
3,80,0,40
3,78,95,0
3,78,0,40
3,75,95,0
3,75,0,55
3,76,95,425
3,76,0,60
3,78,95,0
3,78,0,100
3,76,95,20
3,76,0,260
3,73,95,40
3,73,0,60
3,71,95,0
3,71,0,60
3,69,95,0
3,69,0,160
3,75,95,800
3,75,0,80
3,75,95,40
3,75,0,80
3,75,95,40
3,75,0,105
3,76,95,55
3,76,0,105
3,78,95,55
3,78,0,105
3,76,95,55
3,76,0,960
3,75,95,0
3,75,0,720
3,73,95,0
3,73,0,60
3,75,95,0
3,75,0,180
3,73,95,0
3,73,0,475
3,75,95,485
3,75,0,80
3,75,95,40
3,75,0,80
3,75,95,40
3,75,0,80
3,75,95,40
3,75,0,80
3,75,95,40
3,75,0,80
3,76,95,40
3,76,0,160
3,78,95,20
3,78,0,60
3,76,95,0
3,76,0,80
3,76,95,40
3,76,0,960
3,75,95,0
3,75,0,720
3,73,95,0
3,73,0,60
3,75,95,0
3,75,0,180
3,73,95,0
3,73,0,960
3,72,95,0
3,72,0,315
3,76,95,1605
3,76,0,80
3,75,95,40
3,75,0,80
3,75,95,40
3,75,0,80
3,73,95,40
3,73,0,80
3,73,95,40
3,73,0,80
3,71,95,40
3,71,0,80
3,68,95,40
3,68,0,80
3,71,95,40
3,71,0,80
3,73,95,40
3,73,0,80
3,68,95,40
3,68,0,200
3,68,95,40
3,68,0,80
3,68,95,40
3,68,0,315
3,76,95,2085
3,76,0,80
3,75,95,40
3,75,0,80
3,75,95,40
3,75,0,80
3,73,95,40
3,73,0,80
3,73,95,40
3,73,0,80
3,71,95,40
3,71,0,80
3,68,95,40
3,68,0,80
3,71,95,40
3,71,0,80
3,73,95,40
3,73,0,80
3,68,95,40
3,68,0,200
3,68,95,40
3,68,0,80
3,68,95,40
3,68,0,315
3,76,95,2085
3,76,0,80
3,75,95,40
3,75,0,80
3,75,95,40
3,75,0,80
3,73,95,40
3,73,0,80
3,73,95,40
3,73,0,80
3,71,95,40
3,71,0,80
3,76,111,1120
3,76,0,60
3,78,111,0
3,78,0,140
3,76,111,40
3,76,0,80
3,78,111,40
3,78,0,80
3,73,111,40
3,73,0,80
3,76,111,40
3,76,0,80
3,73,111,40
3,73,0,80
3,71,111,40
3,71,0,160
3,83,111,80
3,83,0,960
3,83,95,0
3,83,0,120
3,80,95,0
3,80,0,120
3,78,95,0
3,78,0,120
3,76,95,0
3,76,0,120
3,75,95,0
3,75,0,120
3,76,95,0
3,76,0,120
3,75,95,0
3,75,0,120
3,71,95,0
3,71,0,120
3,73,95,0
3,73,0,315
3,76,95,2565
3,76,0,80
3,75,95,40
3,75,0,80
3,75,95,40
3,75,0,80
3,73,95,40
3,73,0,80
3,73,95,40
3,73,0,80
3,71,95,40
3,71,0,80
3,78,95,1240
3,78,0,80
3,76,95,40
3,76,0,80
3,76,95,40
3,76,0,80
3,76,95,40
3,76,0,80
3,73,95,40
3,73,0,80
3,71,95,40
3,71,0,80
3,66,111,0
3,66,0,60
3,68,111,0
3,68,0,60
3,71,111,0
3,71,0,60
3,73,111,0
3,73,0,60
3,68,111,0
3,68,0,60
3,71,111,0
3,71,0,60
3,73,111,0
3,73,0,60
3,76,111,0
3,76,0,60
3,73,111,0
3,73,0,60
3,71,111,0
3,71,0,60
3,68,111,0
3,68,0,30
3,66,111,0
3,66,0,30
3,71,111,0
3,71,0,30
3,68,111,0
3,68,0,10
3,71,111,30
3,71,0,10
4,76,79,24240
4,76,0,80
4,78,79,40
4,78,0,80
4,80,79,40
4,80,0,80
4,76,79,40
4,76,0,60
4,78,79,0
4,78,0,60
4,76,79,0
4,76,0,40
4,76,79,80
4,76,0,200
4,73,79,1000
4,73,0,80
4,76,79,40
4,76,0,80
4,78,79,40
4,78,0,160
4,80,79,20
4,80,0,60
4,76,79,0
4,76,0,80
4,76,79,40
4,76,0,160
4,76,79,1280
4,76,0,80
4,78,79,40
4,78,0,80
4,80,79,40
4,80,0,80
4,76,79,40
4,76,0,80
4,78,79,40
4,78,0,120
4,76,79,0
4,76,0,80
4,76,79,40
4,76,0,80
4,81,79,640
4,73,79,0
4,76,79,0
4,76,0,960
4,73,0,0
4,81,0,0
4,78,79,0
4,75,79,0
4,71,79,0
4,71,0,635
4,75,0,0
4,78,0,325
4,76,79,0
4,68,79,0
4,71,79,0
4,71,0,360
4,71,79,0
4,71,0,80
4,71,79,40
4,71,0,105
4,73,79,55
4,73,0,105
4,75,79,55
4,75,0,105
4,76,0,55
4,76,79,0
4,76,0,60
4,78,79,0
4,78,0,180
4,76,79,0
4,76,0,80
4,76,79,40
4,76,0,80
4,75,79,40
4,75,0,105
4,68,0,50
4,73,79,5
4,73,0,105
4,71,79,55
4,71,0,105
4,73,79,55
4,73,0,160
4,73,79,80
4,73,0,80
4,75,79,40
4,75,0,60
4,73,79,0
4,73,0,60
4,71,79,0
4,71,0,160
4,71,79,5480
4,71,0,80
4,71,79,40
4,71,0,105
4,73,79,55
4,73,0,105
4,75,79,55
4,75,0,105
4,81,79,55
4,81,0,240
4,80,79,0
4,80,0,80
4,80,79,40
4,80,0,80
4,76,79,40
4,76,0,80
4,73,79,40
4,73,0,200
4,71,79,40
4,71,0,80
4,73,79,40
4,73,0,160
4,73,79,80
4,73,0,80
4,75,79,40
4,75,0,180
4,73,79,0
4,73,0,60
4,71,79,0
4,71,0,80
4,76,79,1480
4,73,79,0
4,69,79,0
4,81,79,0
4,81,0,400
4,76,0,0
4,73,0,0
4,69,0,0
4,78,79,80
4,75,79,0
4,71,79,0
4,83,79,0
4,83,0,60
4,78,0,0
4,75,0,0
4,71,0,0
4,76,79,0
4,73,79,0
4,69,79,0
4,81,79,0
4,81,0,60
4,76,0,0
4,73,0,0
4,69,0,0
4,75,79,0
4,71,79,0
4,66,79,0
4,78,79,0
