track,note,velocity,time
1,31,113,1536
1,43,65,960
1,43,78,120
1,43,103,96
1,43,90,94
1,31,90,112
1,31,106,40
1,55,97,1152
1,55,90,58
1,55,97,92
1,55,95,78
1,50,95,192
1,31,106,8
1,43,76,1152
1,43,90,74
1,43,103,60
1,38,95,192
1,31,93,48
1,43,97,42
1,43,103,88
1,31,110,184
1,31,93,76
1,31,110,122
1,31,103,136
1,31,93,106
1,31,108,120
1,31,106,136
1,31,93,100
1,31,108,110
1,31,108,100
1,31,99,68
1,31,110,108
1,31,108,156
1,31,108,90
1,38,101,10
1,36,108,96
1,36,97,112
1,36,106,120
1,31,110,86
1,31,99,112
1,31,106,120
1,38,113,72
1,38,97,128
1,38,110,120
1,36,110,154
1,36,108,128
1,36,110,106
1,31,113,66
1,31,101,104
1,31,110,106
1,28,110,160
1,28,101,146
1,28,108,114
1,28,103,102
1,28,97,122
1,28,108,104
1,40,93,20
1,28,101,0
1,36,108,48
1,36,103,148
1,36,108,122
1,31,113,64
1,31,90,132
1,31,110,122
1,33,106,64
1,33,97,104
1,33,103,106
1,36,110,148
1,36,93,170
1,36,106,112
1,40,108,152
1,40,95,126
1,40,97,104
1,28,106,58
1,28,106,96
1,28,113,110
1,36,121,114
1,36,110,136
1,36,110,126
1,31,108,44
1,31,103,136
1,31,110,116
1,33,103,44
1,35,97,86
1,36,108,96
1,36,103,114
1,36,110,126
1,31,113,82
1,31,106,110
1,43,95,0
1,31,99,192
1,38,95,8
1,31,93,192
1,33,106,24
1,33,97,152
1,33,101,118
1,36,110,184
1,36,101,120
1,36,110,120
1,31,110,88
1,31,101,136
1,31,110,124
1,31,103,128
1,31,103,116
1,31,110,110
1,31,106,138
1,31,95,114
1,31,108,120
1,31,110,152
1,31,108,116
1,31,110,114
1,31,106,224
1,31,93,100
1,31,108,110
1,31,108,100
1,31,99,68
1,31,110,108
1,31,108,156
1,31,108,90
1,38,101,10
1,36,108,96
1,36,97,112
1,36,106,120
1,31,110,86
1,31,99,112
1,31,106,120
1,38,113,72
1,38,97,128
1,38,110,120
1,36,110,154
1,36,108,128
1,36,110,106
1,31,113,66
1,31,101,104
1,31,110,106
1,28,113,160
1,28,103,118
1,28,106,118
1,28,110,102
1,38,108,10
1,38,106,132
1,38,118,126
1,38,115,102
1,36,108,112
1,36,103,148
1,36,108,122
1,31,113,64
1,31,90,132
1,31,110,122
1,33,106,64
1,33,97,104
1,33,103,106
1,36,110,148
1,36,93,170
1,36,106,112
1,31,118,152
1,31,99,120
1,31,115,128
1,31,110,144
1,31,108,98
1,31,118,112
1,43,103,24
1,38,110,16
1,31,113,0
1,31,106,32
1,31,93,100
1,31,108,110
1,31,108,100
1,31,99,68
1,31,110,108
1,31,108,156
1,31,108,90
1,38,101,10
1,36,108,96
1,36,97,112
1,36,106,120
1,31,110,86
1,31,99,112
1,31,106,120
1,38,113,72
1,38,97,128
1,38,110,120
1,36,110,154
1,36,108,128
1,36,110,106
1,31,113,66
1,31,101,104
1,31,110,106
1,28,113,160
1,28,103,118
1,28,106,118
1,28,110,102
1,38,108,10
1,38,106,132
1,38,118,126
1,38,115,102
1,36,108,112
1,36,103,148
1,36,108,122
1,31,113,64
1,31,90,132
1,31,110,122
1,33,106,64
1,33,97,104
1,33,103,106
1,36,110,148
1,36,93,170
1,36,106,112
1,28,118,152
1,28,115,142
1,28,124,110
1,28,115,92
1,40,108,18
1,28,110,192
1,40,110,10
1,38,110,32
1,38,118,90
1,38,118,84
1,31,106,80
1,31,93,100
1,31,108,110
1,31,108,100
1,31,99,68
1,31,110,108
1,31,108,156
1,31,108,90
1,38,101,10
1,33,121,96
1,33,113,148
1,33,121,112
1,33,113,130
1,31,110,98
1,31,99,112
1,31,106,120
1,38,113,72
1,38,97,128
1,38,110,120
1,36,110,154
1,36,108,128
1,36,110,106
1,31,113,66
1,31,101,104
1,31,110,106
1,28,110,160
1,28,101,146
1,28,108,114
1,28,103,102
1,28,97,122
1,28,108,104
1,40,93,20
1,28,101,0
1,36,108,48
1,36,103,148
1,36,108,122
1,31,113,64
1,31,90,132
1,31,110,122
1,33,106,64
1,33,97,104
1,33,103,106
1,36,110,148
1,36,93,170
1,36,106,112
1,40,108,152
1,40,95,126
1,40,97,104
1,28,110,58
1,28,106,136
1,28,113,112
1,40,106,192
1,28,113,184
1,36,124,42
1,36,118,64
1,36,110,74
1,36,108,94
1,31,110,12
1,31,95,164
1,31,108,120
1,36,127,88
1,36,110,52
1,36,106,98
1,36,106,82
1,31,121,98
1,31,106,120
1,31,110,120
1,33,113,220
1,33,106,150
1,33,118,120
1,33,110,64
1,36,110,16
1,36,97,128
1,36,110,110
1,36,110,56
1,31,127,72
1,36,115,372
1,36,95,160
1,36,106,118
1,36,110,194
1,36,101,146
1,36,110,124
1,35,93,384
1,33,97,188
1,31,113,50
1,31,103,128
1,31,110,120
1,31,110,140
1,31,103,146
1,31,110,122
1,36,118,130
1,36,103,126
1,36,110,124
1,36,110,168
1,36,110,138
1,36,113,128
1,31,121,168
1,31,110,122
1,31,115,128
1,31,118,146
1,31,113,166
1,31,118,128
1,31,121,88
1,36,115,88
1,36,110,104
1,36,118,130
1,36,118,172
1,36,110,168
1,36,115,112
1,31,124,186
1,31,99,176
1,31,113,114
1,29,121,46
1,29,108,144
1,29,121,124
1,36,110,92
1,36,108,136
1,36,113,128
1,36,113,166
1,36,101,110
1,36,115,126
1,31,121,112
1,31,106,106
1,31,118,128
1,29,115,154
1,29,108,166
1,29,113,98
1,36,124,90
1,36,110,136
1,36,113,116
1,36,121,142
1,36,108,136
1,36,118,112
1,28,115,44
2,62,124,1536
2,59,109,0
2,67,115,0
2,60,112,138
2,64,115,0
2,67,109,0
2,57,118,166
2,64,118,0
2,67,115,0
2,62,112,124
2,59,112,0
2,67,109,0
2,60,121,164
2,64,124,0
2,67,112,0
2,57,115,120
2,64,112,0
2,67,112,0
2,55,89,188
2,59,100,0
2,62,102,0
2,43,70,512
2,55,87,0
2,62,93,0
2,59,93,0
2,62,107,136
2,55,100,0
2,59,107,0
2,57,78,192
2,66,89,0
2,62,93,0
2,50,89,0
2,55,87,80
2,60,95,0
2,64,102,0
2,48,91,0
2,62,95,304
2,59,91,0
2,55,91,0
2,62,89,102
2,66,84,0
2,57,76,0
2,50,89,0
2,55,89,66
2,64,107,0
2,60,95,0
2,48,89,0
2,62,89,48
2,55,80,0
2,59,93,0
2,43,74,0
2,59,87,58
2,52,95,0
2,67,93,0
2,64,87,0
2,55,91,42
2,48,93,0
2,60,91,0
2,64,104,0
2,55,89,36
2,59,93,0
2,62,93,0
2,60,100,126
2,64,91,0
2,45,84,0
2,57,87,0
2,60,87,88
2,55,82,0
2,64,84,0
2,48,84,0
2,59,89,60
2,64,95,0
2,55,89,0
2,52,87,0
2,62,91,48
2,66,87,0
2,64,107,568
2,60,100,0
2,67,97,0
2,43,84,22
2,62,95,0
2,55,95,0
2,59,91,0
2,55,91,64
2,48,87,0
2,60,93,0
2,64,107,0
2,43,84,56
2,62,91,0
2,59,84,0
2,55,89,0
2,45,97,48
2,57,91,0
2,60,104,0
2,64,104,0
2,55,91,48
2,48,93,0
2,60,100,0
2,64,104,0
2,43,91,24
2,62,102,0
2,59,100,0
2,55,93,0
2,43,70,3428
2,55,87,0
2,62,93,0
2,59,93,0
2,62,107,136
2,55,100,0
2,59,107,0
2,57,78,192
2,66,89,0
2,62,93,0
2,50,89,0
2,55,87,80
2,60,95,0
2,64,102,0
2,48,91,0
2,62,95,304
2,59,91,0
2,55,91,0
2,62,89,102
2,66,84,0
2,57,76,0
2,50,89,0
2,55,89,66
2,64,107,0
2,60,95,0
2,48,89,0
2,62,89,48
2,55,80,0
2,59,93,0
2,43,74,0
2,59,107,58
2,64,125,0
2,55,115,0
2,52,112,0
2,54,97,562
2,57,107,0
2,62,107,0
2,55,91,288
2,48,93,0
2,60,91,0
2,64,104,0
2,55,89,36
2,59,93,0
2,62,93,0
2,60,100,126
2,64,91,0
2,45,84,0
2,57,87,0
2,60,87,88
2,55,82,0
2,64,84,0
2,48,84,0
2,62,112,60
2,67,109,0
2,59,115,0
2,50,91,104
2,43,100,0
2,59,107,0
2,55,102,0
2,62,115,0
2,55,65,108
2,50,93,0
2,59,100,0
2,62,109,0
2,43,87,128
2,55,91,0
2,50,93,0
2,62,112,0
2,59,104,0
2,50,107,124
2,43,104,0
2,55,104,0
2,62,109,0
2,59,109,0
2,43,70,112
2,55,87,0
2,62,93,0
2,59,93,0
2,62,107,136
2,55,100,0
2,59,107,0
2,57,78,192
2,66,89,0
2,62,93,0
2,50,89,0
2,55,87,80
2,60,95,0
2,64,102,0
2,48,91,0
2,62,95,304
2,59,91,0
2,55,91,0
2,62,89,102
2,66,84,0
2,57,76,0
2,50,89,0
2,55,89,66
2,64,107,0
2,60,95,0
2,48,89,0
2,62,89,48
2,55,80,0
2,59,93,0
2,43,74,0
2,59,107,58
2,64,125,0
2,55,115,0
2,52,112,0
2,54,97,562
2,57,107,0
2,62,107,0
2,55,91,288
2,48,93,0
2,60,91,0
2,64,104,0
2,55,89,36
2,59,93,0
2,62,93,0
2,60,100,126
2,64,91,0
2,45,84,0
2,57,87,0
2,60,87,88
2,55,82,0
2,64,84,0
2,48,84,0
2,64,107,60
2,55,91,0
2,52,95,0
2,59,91,0
2,52,97,80
2,55,100,0
2,64,104,0
2,59,102,0
2,57,97,466
2,50,102,0
2,66,104,0
2,62,102,0
2,43,70,244
2,55,87,0
2,62,93,0
2,59,93,0
2,62,107,136
2,55,100,0
2,59,107,0
2,57,78,192
2,66,89,0
2,62,93,0
2,50,89,0
2,64,97,80
2,57,93,0
2,60,102,0
2,45,89,0
2,52,109,960
2,57,72,134
2,62,95,236
2,59,91,0
2,55,91,0
2,62,89,102
2,66,84,0
2,57,76,0
2,50,89,0
2,55,89,66
2,64,107,0
2,60,95,0
2,48,89,0
2,62,89,48
2,55,80,0
2,59,93,0
2,43,74,0
2,59,87,58
2,52,95,0
2,67,93,0
2,64,87,0
2,55,91,42
2,48,93,0
2,60,91,0
2,64,104,0
2,55,89,36
2,59,93,0
2,62,93,0
2,60,100,126
2,64,91,0
2,45,84,0
2,57,87,0
2,60,87,88
2,55,82,0
2,64,84,0
2,48,84,0
2,59,89,60
2,64,95,0
2,55,89,0
2,52,87,0
2,52,93,48
2,59,104,0
2,40,76,0
2,55,102,0
2,52,80,16
2,59,109,96
2,55,121,0
2,52,107,106
2,55,107,198
2,67,112,0
2,60,115,0
2,64,115,0
2,48,109,0
2,67,100,96
2,71,104,0
2,62,78,0
2,59,70,0
2,55,76,0
2,67,121,94
2,64,125,0
2,60,124,0
2,55,74,24
2,43,87,0
2,62,93,0
2,59,89,0
2,57,102,52
2,45,84,0
2,60,107,0
2,64,102,0
2,64,104,64
2,55,89,0
2,60,100,0
2,48,100,0
2,67,118,68
2,59,112,0
2,62,107,0
2,55,112,0
2,55,102,356
2,48,102,0
2,60,97,0
2,64,104,0
2,55,100,12
2,67,102,0
2,60,102,0
2,48,102,0
2,64,104,0
2,43,100,74
2,59,97,0
2,62,107,0
2,67,102,0
2,67,107,72
2,59,87,0
2,43,104,0
2,62,104,0
2,55,89,206
2,64,95,0
2,60,87,0
2,67,100,0
2,48,91,0
2,67,102,18
2,64,104,0
2,60,89,0
2,55,89,0
2,48,91,0
2,43,84,72
2,59,95,0
2,67,97,0
2,62,97,0
2,59,87,98
2,67,95,0
2,62,102,0
2,43,89,0
2,55,93,142
2,67,102,0
2,64,102,0
2,60,102,0
2,48,100,0
2,55,100,120
2,67,100,0
2,64,100,0
2,60,95,0
2,48,102,0
2,62,109,80
2,59,102,0
2,67,102,0
2,43,97,0
2,41,102,42
2,57,115,0
2,53,107,0
2,60,104,0
2,64,104,24
2,55,93,0
2,67,109,0
2,48,100,0
2,60,100,0
2,43,89,356
2,62,100,0
2,55,91,0
2,59,102,0
2,60,100,66
2,41,102,0
2,53,93,0
2,57,107,0
2,55,93,34
2,64,97,0
2,60,84,0
2,48,84,0
2,67,93,0
2,41,104,300
2,40,100,0
3,71,100,1536
3,74,118,0
3,79,110,0
3,76,115,174
3,72,110,0
3,79,107,0
3,79,107,84
3,69,110,0
3,76,110,0
3,71,110,128
3,74,115,0
3,79,110,0
3,76,115,138
3,72,110,0
3,79,107,0
3,76,121,118
3,79,112,0
3,69,107,0
3,74,118,4
3,71,123,0
3,74,118,2
3,71,123,0
3,74,115,72
3,71,123,0
3,72,121,148
3,69,123,0
3,71,107,60
3,67,123,0
3,69,103,72
3,64,123,0
3,67,105,32
3,62,123,0
3,64,105,0
3,59,123,0
3,62,90,52
3,57,123,0
3,59,110,66
3,55,123,0
3,74,118,34248
3,71,123,0
3,74,118,2
3,71,123,0
3,74,115,72
3,71,123,0
3,72,121,148
3,69,123,0
3,71,107,60
3,67,123,0
3,69,103,72
3,64,123,0
3,67,105,32
3,62,123,0
3,64,105,0
3,59,123,0
3,62,90,52
3,57,123,0
3,59,110,66
3,55,123,0
3,64,112,9864
3,52,94,192
3,64,105,224
3,52,87,192
3,64,94,40
3,62,98,10
3,62,103,152
3,62,115,302
3,62,92,112
3,60,92,24
3,60,105,116
3,60,105,248
3,62,85,192
3,60,87,0
3,55,107,10
3,67,105,0
3,55,92,384
3,67,71,42
3,71,123,6120
3,79,123,92
3,74,123,0
3,83,123,0
3,71,123,342
3,79,123,156
3,74,123,0
3,83,123,0
3,71,123,8
3,76,123,80
3,76,123,86
3,79,123,20
3,74,123,0
3,83,123,0
3,71,123,4
3,69,123,82
3,67,123,74
3,71,123,10
3,71,123,60
3,69,123,6
3,71,123,54
3,69,123,8
3,67,123,112
3,67,123,84
3,60,123,192
3,67,123,134
3,60,123,320
3,67,123,152
3,69,123,148
3,62,123,0
3,77,123,240
3,72,123,0
3,69,123,26
3,67,123,172
3,76,123,144
3,72,123,78
3,79,123,0
3,76,123,168
3,76,123,82
3,74,123,136
3,79,123,102
3,79,123,60
3,79,123,4
3,76,123,4
3,79,123,192
3,81,123,68
3,81,123,72
3,81,123,100
3,79,123,194
3,81,123,184
3,83,123,8
3,88,123,0
3,83,123,56
3,88,123,0
3,83,123,94
3,88,123,0
3,88,123,4
3,83,123,0
3,83,123,82
3,88,123,0
3,83,123,106
3,88,123,0
3,86,123,200
3,81,123,384
3,78,123,128
3,74,123,192
3,79,123,12
3,81,123,200
3,81,123,44
3,79,123,192
3,81,123,36
3,81,123,38
3,81,123,8
3,79,123,122
3,81,123,236
3,83,123,384
3,84,123,192
3,83,123,362
3,81,123,144
3,76,123,80
3,78,123,384
3,79,123,0
3,78,123,384
3,76,123,40
3,79,123,2
3,76,123,0
3,83,123,0
3,76,123,50
3,79,123,0
3,83,123,0
3,76,123,96
3,83,123,0
3,79,123,0
3,83,123,52
3,76,123,0
3,79,123,0
3,76,123,76
3,83,123,0
3,79,123,0
3,76,123,96
3,83,123,0
3,79,123,0
3,83,123,92
3,76,123,0
3,81,123,88
3,79,123,160
3,86,123,10
3,81,123,0
3,90,123,0
3,52,115,23234
3,64,115,0
3,52,115,310
3,64,103,16
3,64,115,806
3,64,110,270
3,62,112,192
3,64,90,32
3,55,118,420
3,55,118,302
3,60,118,304
3,60,112,472
3,62,92,8
3,60,115,192
3,55,121,406
3,55,121,298
3,67,92,14
3,55,107,192
3,60,115,6730
3,60,110,488
3,64,118,582
3,64,110,476
3,67,73,14
3,64,112,192
3,67,118,280
3,67,110,490
3,55,105,192
3,55,124,210
3,55,103,302
3,55,121,312
3,55,121,116
3,67,107,24
3,55,118,192
3,60,110,248
3,60,118,480
3,64,121,520
3,64,118,300
3,64,77,142
3,64,105,76
3,60,115,2
3,55,115,276
3,55,118,292
3,67,103,110
3,67,62,146
3,67,112,154
3,55,118,80
3,55,118,288
3,55,118,286
3,67,103,88
3,65,124,192
3,60,121,236
3,60,110,492
3,60,115,194
3,60,115,488
3,71,110,510
3,74,107,0
3,67,103,0
