track,note,velocity,time
0,42,75,384
0,42,0,6
0,42,75,186
0,42,0,6
0,42,75,186
0,42,0,6
0,42,50,90
0,42,0,6
0,42,50,90
0,42,0,6
0,42,50,90
0,42,0,6
0,49,110,138
0,49,0,43
0,50,110,5
0,52,110,3
0,54,110,39
0,52,0,8
0,54,0,40
0,55,110,0
0,55,0,21
0,57,110,9
0,55,110,11
0,57,0,10
0,55,0,9
0,59,90,2
0,62,90,0
0,67,90,0
0,43,99,3
0,50,86,0
0,55,89,0
0,62,79,0
0,57,84,0
0,36,112,0
0,57,104,0
0,44,87,0
0,57,104,0
0,57,102,1
0,50,79,1
0,44,87,5
0,47,115,0
0,55,102,0
0,52,99,42
0,55,0,8
0,43,0,8
0,52,0,14
0,62,0,4
0,50,0,1
0,55,0,2
0,59,0,6
0,62,0,0
0,67,0,0
0,57,90,2
0,62,90,0
0,66,90,0
0,38,107,3
0,50,81,0
0,57,83,0
0,62,78,0
0,49,76,0
0,36,96,0
0,57,99,0
0,49,0,6
0,36,0,0
0,57,0,33
0,50,91,0
0,44,103,10
0,57,99,0
0,47,115,1
0,55,99,0
0,54,99,7
0,45,107,1
0,52,102,0
0,45,0,6
0,44,99,0
0,41,115,0
0,50,107,0
0,44,0,6
0,41,0,0
0,60,90,2
0,64,90,0
0,67,90,0
0,36,99,3
0,48,92,0
0,55,89,0
0,60,78,0
0,57,95,0
0,36,96,0
0,51,104,0
0,57,0,6
0,36,0,0
0,52,104,2
0,44,95,3
0,60,103,0
0,52,0,1
0,54,102,6
0,55,99,1
0,64,99,48
0,55,0,19
0,44,99,29
0,44,0,6
0,64,0,31
0,55,99,11
0,55,0,17
0,36,0,4
0,36,111,12
0,64,97,0
0,67,97,0
0,40,103,20
0,50,82,0
0,50,0,6
0,64,0,24
0,67,0,0
0,44,111,18
0,48,115,0
0,67,102,0
0,64,102,0
0,44,0,6
0,48,0,0
0,40,0,13
0,41,91,29
0,47,103,0
0,62,104,0
0,64,0,3
0,47,0,3
0,67,0,1
0,62,0,9
0,47,111,32
0,67,112,0
0,64,112,0
0,41,0,2
0,47,0,4
0,42,111,42
0,45,111,0
0,62,112,0
0,64,0,5
0,45,0,1
0,67,0,5
0,62,0,8
0,44,115,29
0,43,107,0
0,60,112,0
0,67,112,0
0,44,0,6
0,43,0,0
0,43,97,3
0,41,111,0
0,57,112,0
0,41,0,6
0,43,0,16
0,67,0,6
0,57,0,1
0,60,0,14
0,64,0,0
0,67,0,0
0,59,90,2
0,62,90,0
0,67,90,0
0,43,115,3
0,50,92,0
0,55,94,0
0,62,81,0
0,43,103,0
0,57,82,0
0,36,100,0
0,57,104,0
0,55,95,0
0,62,91,0
0,44,115,1
0,38,117,0
0,57,104,0
0,45,87,0
0,47,82,40
0,57,102,0
0,45,0,1
0,50,84,1
0,52,107,12
0,44,115,0
0,38,105,0
0,55,102,0
0,62,0,0
0,55,0,5
0,44,0,1
0,38,0,0
0,40,69,3
0,52,99,0
0,40,61,4
0,40,0,6
0,62,0,3
0,55,0,1
0,40,103,2
0,50,0,1
0,40,0,5
0,52,0,0
0,43,0,3
0,59,0,10
0,62,0,0
0,67,0,0
0,57,90,2
0,62,90,0
0,66,90,0
0,52,0,2
0,38,111,1
0,50,92,0
0,57,92,0
0,62,81,0
0,50,99,0
0,49,103,0
0,36,100,0
0,57,99,0
0,50,99,0
0,57,99,0
0,49,0,6
0,36,0,0
0,57,0,33
0,44,115,5
0,38,121,0
0,57,99,0
0,55,99,3
0,54,99,7
0,54,0,47
0,52,102,1
0,44,111,10
0,38,105,0
0,50,107,0
0,44,0,6
0,38,0,0
0,50,0,1
0,57,0,0
0,40,95,1
0,50,0,2
0,40,0,4
0,40,103,2
0,60,90,2
0,64,90,0
0,67,90,0
0,36,107,3
0,48,94,0
0,55,94,0
0,60,81,0
0,48,99,0
0,57,103,0
0,36,108,0
0,51,104,0
0,48,103,0
0,55,95,0
0,57,0,6
0,36,0,0
0,52,104,3
0,44,115,0
0,38,121,0
0,60,103,0
0,52,0,1
0,55,121,5
0,48,0,0
0,50,84,0
0,54,102,0
0,57,94,1
0,52,79,0
0,55,99,0
0,50,0,3
0,55,0,18
0,60,97,27
0,55,87,0
0,64,99,0
0,57,0,1
0,52,0,9
0,55,0,9
0,60,0,2
0,55,0,1
0,62,101,26
0,57,103,0
0,44,115,0
0,38,117,0
0,44,0,6
0,38,0,0
0,55,99,1
0,55,95,0
0,48,107,0
0,48,87,1
0,55,95,0
0,36,103,2
0,48,105,0
0,55,83,0
0,60,105,0
0,55,99,0
0,64,97,0
0,67,97,0
0,55,73,0
0,48,66,0
0,62,0,1
0,40,115,25
0,38,94,0
0,38,0,6
0,44,115,2
0,38,83,0
0,67,102,0
0,64,102,0
0,41,99,1
0,38,89,0
0,62,104,0
0,38,105,1
0,67,112,0
0,64,112,0
0,41,0,1
0,38,0,5
0,42,99,15
0,38,105,0
0,62,112,0
0,64,0,5
0,38,0,1
0,67,0,5
0,38,81,1
0,38,0,6
0,38,97,5
0,38,0,6
0,55,0,7
0,48,0,0
0,88,79,0
0,44,107,0
0,38,117,0
0,60,112,0
0,67,112,0
0,44,0,6
0,38,0,0
0,38,87,0
0,86,79,0
0,38,127,0
0,57,112,0
0,59,90,1
0,62,90,0
0,67,90,0
0,43,107,0
0,43,86,0
0,50,92,0
0,88,90,0
0,57,95,0
0,36,108,0
0,43,89,0
0,50,101,0
0,57,0,6
0,36,0,0
0,50,0,12
0,42,101,2
0,43,78,0
0,50,89,0
0,43,77,0
0,52,92,0
0,86,86,0
0,42,113,0
0,38,117,0
0,54,80,0
0,43,83,0
0,52,97,0
0,42,0,6
0,38,0,0
0,54,0,0
0,43,0,2
0,43,0,11
0,52,0,2
0,43,0,17
0,52,0,2
0,40,107,8
0,42,105,0
0,36,96,0
0,43,79,0
0,50,97,0
0,86,0,3
0,42,0,3
0,36,0,0
0,50,0,12
0,43,0,1
0,40,0,13
0,38,111,0
0,43,78,0
0,50,89,0
0,86,82,0
0,42,109,0
0,36,104,0
0,43,86,0
0,50,105,0
0,42,0,6
0,36,0,0
0,43,0,13
0,50,0,0
0,86,0,9
0,38,0,15
0,86,82,0
0,42,109,0
0,43,78,0
0,50,101,0
0,42,0,6
0,43,0,9
0,50,0,6
0,43,0,1
0,50,0,0
0,43,76,26
0,52,78,0
0,42,105,0
0,38,125,0
0,54,80,0
0,43,92,0
0,52,109,0
0,86,0,1
0,42,0,5
0,38,0,0
0,54,0,0
0,43,0,11
0,52,0,5
0,52,0,0
0,43,0,1
0,38,107,0
0,50,81,0
0,57,92,0
0,86,94,0
0,42,109,0
0,43,83,0
0,50,101,0
0,42,0,6
0,57,90,0
0,62,90,0
0,66,90,0
0,38,115,3
0,42,105,0
0,36,104,0
0,50,86,0
0,57,83,0
0,50,77,0
0,57,89,0
0,86,98,0
0,42,117,0
0,50,78,0
0,57,86,0
0,50,77,23
0,59,92,0
0,42,97,0
0,38,117,0
0,54,80,0
0,50,86,0
0,59,101,0
0,42,0,6
0,38,0,0
0,54,0,0
0,86,0,1
0,38,0,7
0,59,0,2
0,50,0,4
0,35,107,0
0,59,0,0
0,81,106,0
0,42,109,0
0,36,92,0
0,50,76,0
0,57,97,0
0,33,115,25
0,50,74,0
0,57,78,0
0,42,113,0
0,36,100,0
0,50,73,0
0,57,97,0
0,42,0,6
0,36,0,0
0,81,0,5
0,50,0,6
0,57,0,1
0,33,0,24
0,42,105,6
0,50,86,0
0,57,97,0
0,42,0,6
0,50,0,9
0,57,0,5
0,50,0,0
0,57,0,1
0,50,77,27
0,59,89,0
0,42,121,0
0,38,127,0
0,54,80,0
0,50,92,0
0,59,113,0
0,42,0,6
0,38,0,0
0,54,0,0
0,59,0,15
0,50,0,1
0,59,0,21
0,50,0,1
0,33,115,0
0,81,98,0
0,46,107,0
0,50,83,0
0,57,105,0
0,46,0,6
0,50,0,11
0,57,0,2
0,33,0,4
0,57,0,20
0,62,0,0
0,66,0,0
0,60,90,2
0,64,90,0
0,67,90,0
0,36,107,0
0,48,81,0
0,55,89,0
0,81,0,0
0,81,98,0
0,42,105,0
0,36,108,0
0,48,86,0
0,55,101,0
0,42,0,6
0,36,0,0
0,79,102,0
0,42,101,0
0,48,79,0
0,55,97,0
0,55,0,5
0,48,0,1
0,42,0,0
0,48,0,12
0,55,0,3
0,48,76,0
0,57,77,0
0,79,0,0
0,79,102,0
0,42,113,0
0,38,117,0
0,54,80,0
0,48,92,0
0,57,101,0
0,42,0,6
0,38,0,0
0,54,0,0
0,33,119,1
0,42,105,0
0,36,96,0
0,48,76,0
0,55,92,0
0,57,0,1
0,31,107,8
0,48,77,0
0,55,86,0
0,42,109,0
0,36,104,0
0,48,76,0
0,55,92,0
0,42,0,6
0,36,0,0
0,55,0,11
0,48,0,3
0,42,109,1
0,48,83,0
0,55,94,0
0,42,0,6
0,48,0,11
0,55,0,1
0,48,0,4
0,48,94,1
0,57,94,0
0,42,105,0
0,38,125,0
0,54,80,0
0,48,89,0
0,57,101,0
0,31,115,13
0,48,89,0
0,55,89,0
0,42,109,0
0,48,79,0
0,55,92,0
0,42,0,6
0,31,0,10
0,48,0,0
0,55,0,3
0,55,0,13
0,48,0,5
0,36,111,11
0,42,105,0
0,36,96,0
0,48,77,0
0,55,97,0
0,42,0,6
0,36,0,0
0,48,0,11
0,55,0,2
0,36,0,6
0,39,107,23
0,48,89,0
0,42,117,0
0,38,125,0
0,48,86,0
0,55,97,0
0,42,0,6
0,38,0,0
0,48,0,14
0,55,0,1
0,48,0,18
0,50,89,9
0,46,87,0
0,54,80,0
0,48,79,0
0,57,105,0
0,46,0,6
0,54,0,0
0,39,0,8
0,48,0,4
0,57,0,2
0,36,107,28
0,50,0,0
0,52,89,0
0,42,109,0
0,36,84,0
0,48,76,0
0,55,97,0
0,42,0,6
0,36,0,0
0,48,0,13
0,55,0,0
0,52,0,2
0,40,115,2
0,53,91,0
0,58,91,0
0,42,113,0
0,40,111,0
0,48,76,0
0,55,92,0
0,36,99,29
0,42,105,0
0,36,100,0
0,48,79,0
0,55,94,0
0,40,0,3
0,42,0,3
0,36,0,0
0,58,0,1
0,53,0,1
0,41,107,0
0,53,102,0
0,58,102,0
0,88,79,0
0,42,121,0
0,40,115,0
0,54,80,0
0,48,92,0
0,57,97,0
0,42,115,0
0,86,68,0
0,46,107,0
0,36,104,0
0,48,86,0
0,55,101,0
0,46,0,6
0,36,0,0
0,48,0,7
0,55,0,2
0,53,0,2
0,58,0,2
0,86,0,3
0,42,0,14
0,60,0,7
0,64,0,0
0,67,0,0
0,59,90,2
0,62,90,0
0,67,90,0
0,43,107,0
0,43,86,0
0,50,92,0
0,88,94,0
0,42,105,0
0,36,108,0
0,43,94,0
0,50,94,0
0,42,0,6
0,36,0,0
0,43,89,2
0,50,86,0
0,42,101,0
0,43,79,0
0,50,89,0
0,43,86,0
0,52,97,0
0,86,94,0
0,42,113,0
0,38,117,0
0,54,80,0
0,43,73,0
0,52,89,0
0,42,0,6
0,38,0,0
0,54,0,0
0,43,0,2
0,52,0,11
0,43,0,1
0,86,94,0
0,40,107,24
0,42,105,0
0,36,96,0
0,43,72,0
0,50,86,0
0,42,0,6
0,36,0,0
0,52,0,3
0,43,0,3
0,50,0,7
0,43,0,1
0,86,0,4
0,40,0,8
0,38,111,0
0,43,109,0
0,50,109,0
0,86,94,0
0,42,109,0
0,36,104,0
0,43,76,0
0,50,89,0
0,42,0,6
0,36,0,0
0,50,0,12
0,43,0,2
0,38,0,23
0,42,109,5
0,43,78,0
0,50,92,0
0,42,0,6
0,86,0,1
0,43,81,0
0,52,83,0
0,86,82,0
0,42,105,0
0,38,125,0
0,54,80,0
0,43,83,0
0,52,86,0
0,38,107,0
0,50,92,0
0,57,109,0
0,86,98,0
0,42,109,0
0,43,74,0
0,50,89,0
0,42,0,6
0,38,0,9
0,43,0,3
0,50,0,1
0,59,0,24
0,62,0,0
0,67,0,0
0,57,90,2
0,62,90,0
0,66,90,0
0,38,115,3
0,42,105,0
0,36,104,0
0,50,89,0
0,57,105,0
0,86,0,1
0,50,0,2
0,57,0,3
0,42,0,0
0,36,0,0
0,50,0,9
0,57,0,1
0,50,86,0
0,57,94,0
0,86,94,0
0,42,117,0
0,50,81,0
0,57,86,0
0,42,0,6
0,50,0,11
0,50,92,3
0,59,97,0
0,42,97,0
0,38,117,0
0,54,80,0
0,50,94,0
0,59,113,0
0,35,107,5
0,42,109,0
0,36,92,0
0,50,77,0
0,57,89,0
0,42,0,6
0,36,0,0
0,59,0,2
0,50,0,1
0,50,0,9
0,57,0,2
0,35,0,3
0,33,115,0
0,50,97,0
0,57,97,0
0,81,102,0
0,42,113,0
0,36,100,0
0,50,77,0
0,57,86,0
0,42,105,6
0,50,79,0
0,57,89,0
0,42,0,6
0,50,0,13
0,50,0,1
0,81,0,1
0,57,0,0
0,57,0,9
0,50,83,0
0,59,97,0
0,81,110,0
0,42,121,0
0,38,127,0
0,54,80,0
0,50,94,0
0,59,101,0
0,42,0,6
0,38,0,0
0,54,0,0
0,50,0,14
0,59,0,0
0,50,0,2
0,59,0,0
0,33,115,0
0,48,97,0
0,55,105,0
0,81,0,0
0,81,110,0
0,46,107,0
0,50,81,0
0,57,94,0
0,60,90,2
0,64,90,0
0,67,90,0
0,36,111,3
0,42,105,0
0,36,108,0
0,48,76,0
0,55,105,0
0,42,0,6
0,36,0,0
0,48,0,1
0,55,0,0
0,48,0,11
0,55,0,1
0,81,0,5
0,48,89,24
0,55,89,0
0,79,106,0
0,42,101,0
0,48,77,0
0,55,89,0
0,42,0,6
0,48,0,8
0,55,0,6
0,48,0,2
0,55,0,0
0,48,92,2
0,57,101,0
0,42,113,0
0,38,117,0
0,54,80,0
0,48,83,0
0,57,94,0
0,33,111,2
0,42,105,0
0,36,96,0
0,48,73,0
0,55,86,0
0,57,0,2
0,31,115,22
0,48,109,0
0,55,109,0
0,42,109,0
0,36,104,0
0,48,74,0
0,55,89,0
0,42,109,8
0,48,78,0
0,55,94,0
0,42,0,6
0,48,0,13
0,55,0,0
0,48,0,2
0,55,0,2
0,48,78,25
0,57,79,0
0,42,105,0
0,38,125,0
0,54,80,0
0,48,83,0
0,57,105,0
0,42,0,6
0,38,0,0
0,54,0,0
0,48,0,14
0,48,0,1
0,57,0,1
0,57,0,3
0,79,0,9
0,31,107,2
0,48,92,0
0,55,105,0
0,42,109,0
0,48,74,0
0,55,89,0
0,36,111,27
0,42,105,0
0,36,104,0
0,48,78,0
0,55,97,0
0,48,0,4
0,55,0,0
0,42,0,2
0,36,0,0
0,55,0,12
0,48,0,3
0,48,92,27
0,55,101,0
0,42,117,0
0,48,76,0
0,55,94,0
0,42,0,6
0,48,0,12
0,48,0,4
0,55,0,0
0,55,0,1
0,48,97,0
0,57,101,0
0,42,97,0
0,38,117,0
0,54,80,0
0,48,89,0
0,57,92,0
0,42,0,6
0,38,0,0
0,54,0,0
0,36,0,15
0,48,0,1
0,57,0,0
0,33,107,0
0,42,109,0
0,36,92,0
0,48,76,0
0,55,86,0
0,42,0,6
0,36,0,0
0,48,0,6
0,57,0,2
0,48,0,4
0,55,0,2
0,33,0,11
0,31,103,0
0,48,94,0
0,55,101,0
0,42,113,0
0,36,100,0
0,48,73,0
0,55,94,0
0,42,0,6
0,36,0,0
0,48,0,11
0,55,0,3
0,31,0,15
0,86,82,0
0,42,105,0
0,40,107,0
0,48,76,0
0,55,94,0
0,42,0,6
0,40,0,0
0,48,0,10
0,55,0,3
0,48,0,2
0,55,0,1
0,86,0,2
0,48,101,0
0,57,97,0
0,88,77,0
0,42,121,0
0,40,119,0
0,54,80,0
0,48,83,0
0,57,97,0
0,42,0,6
0,40,0,0
0,54,0,0
0,57,0,12
0,48,0,6
0,48,0,19
0,57,0,2
0,88,0,0
0,31,115,0
0,86,71,0
0,46,107,0
0,36,108,0
0,48,89,0
0,55,109,0
