track,note,velocity,time
1,75,125,9968
1,78,117,4
1,78,115,4
1,75,119,4
1,73,117,4
1,71,125,4
1,73,123,4
1,73,117,4
1,71,125,4
1,71,123,4
1,75,112,1156
1,78,117,4
1,78,123,4
1,75,115,4
1,73,125,4
1,71,123,4
1,73,123,4
1,75,115,4
1,68,123,4
1,75,123,772
1,78,115,4
1,78,127,4
1,75,119,4
1,73,112,4
1,71,119,4
1,71,127,4
1,71,125,4
1,79,119,4
1,74,119,4
1,73,117,4
1,71,119,4
1,71,127,4
1,71,123,4
1,73,115,4
1,73,112,4
1,75,115,4
1,73,117,4
1,71,119,4
1,75,117,388
1,76,107,4
1,78,107,4
1,78,117,4
1,78,112,644
1,78,112,4
1,78,123,4
1,80,112,4
1,78,115,4
1,80,115,4
1,78,117,4
1,78,112,4
1,75,117,4
1,73,119,4
1,71,127,4
1,83,119,388
1,82,123,4
1,82,123,4
1,82,119,4
1,80,117,4
1,78,115,4
1,71,117,4
1,71,119,4
1,80,117,4
1,78,125,4
1,78,117,4
1,75,112,4
1,73,117,4
1,71,123,4
1,83,123,4
1,82,117,4
1,82,117,4
1,82,119,4
1,80,117,4
1,80,127,4
1,71,119,4
1,71,125,4
1,80,123,4
1,78,117,4
1,80,115,4
1,78,115,4
1,78,115,4
1,75,117,4
1,76,123,4
1,75,110,4
1,73,117,4
1,71,125,1540
1,71,119,4
1,80,117,4
1,78,123,4
1,78,125,4
1,75,112,260
1,83,123,4
1,82,123,4
1,82,112,4
1,75,117,260
1,83,117,4
1,82,123,4
1,82,127,4
1,75,117,4
1,83,123,4
1,85,117,4
1,83,119,4
1,73,123,1028
1,83,115,128
1,83,127,4
1,83,127,4
1,83,127,4
1,83,127,4
1,78,123,4
1,71,117,260
1,83,119,128
1,83,125,4
1,83,119,4
1,78,112,4
1,71,125,644
1,80,115,4
1,83,119,4
1,80,119,388
1,78,112,4
1,78,117,4
1,73,107,4
1,75,123,4
1,75,112,196
1,73,117,4
1,71,123,4
1,73,123,4
1,71,123,4
1,75,119,7684
1,78,112,4
1,78,115,4
1,75,119,4
1,73,117,4
1,71,125,4
1,73,123,4
1,73,117,4
1,71,125,4
1,71,123,4
1,75,112,1156
1,78,117,4
1,78,123,4
1,75,115,4
1,73,125,4
1,71,123,4
1,73,123,4
1,75,115,4
1,68,123,4
1,75,123,772
1,78,115,4
1,78,127,4
1,75,119,4
1,73,112,4
1,71,119,4
1,71,127,4
1,71,125,4
1,79,119,4
1,74,119,4
1,73,117,4
1,71,119,4
1,71,127,4
1,71,123,4
1,73,115,4
1,73,112,4
1,75,115,4
1,73,117,4
1,71,119,4
1,75,117,388
1,76,107,4
1,78,107,4
1,78,117,4
1,78,112,644
1,78,112,4
1,78,123,4
1,80,112,4
1,78,115,4
1,80,115,4
1,78,117,4
1,78,112,4
1,75,117,4
1,73,119,4
1,71,127,4
1,83,119,388
1,82,123,4
1,82,123,4
1,82,119,4
1,80,117,4
1,78,115,4
1,71,117,4
1,71,119,4
1,80,117,4
1,78,125,4
1,78,117,4
1,75,112,4
1,73,117,4
1,71,123,4
1,83,123,4
1,82,117,4
1,82,117,4
1,82,119,4
1,80,117,4
1,80,127,4
1,71,119,4
1,71,125,4
1,80,123,4
1,78,117,4
1,80,115,4
1,78,115,4
1,78,115,4
1,75,117,4
1,76,123,4
1,75,110,4
1,73,117,4
1,71,125,1540
1,71,119,4
1,80,117,4
1,78,123,4
1,78,125,4
1,75,112,260
1,83,123,4
1,82,123,4
1,82,112,4
1,75,117,260
1,83,117,4
1,82,123,4
1,82,127,4
1,75,117,4
1,83,123,4
1,85,117,4
1,83,119,4
1,73,123,1028
1,83,115,128
1,83,127,4
1,83,127,4
1,83,127,4
1,83,127,4
1,78,123,4
1,71,117,260
1,83,119,128
1,83,125,4
1,83,119,4
1,78,112,4
1,71,125,644
1,80,115,4
1,83,119,4
1,80,119,388
1,78,112,4
1,78,117,4
1,73,107,4
1,75,123,4
1,75,112,196
1,73,117,4
1,71,123,4
1,83,110,1924
1,87,115,4
1,83,119,388
1,82,123,4
1,82,123,4
1,78,117,4
1,83,123,388
1,87,123,4
1,83,117,388
1,82,123,4
1,82,123,4
1,78,115,4
1,83,127,388
1,87,117,4
1,83,119,388
1,82,117,4
1,82,123,4
1,78,117,4
1,75,107,196
1,73,125,4
1,71,119,4
1,73,112,4
1,75,110,4
1,73,123,4
1,71,117,4
1,83,123,4
1,87,117,4
1,83,127,388
1,82,119,4
1,82,123,4
1,78,123,4
1,83,127,388
1,87,123,4
1,83,127,388
1,82,117,4
1,82,117,4
1,78,127,4
1,83,125,388
1,87,123,4
1,83,119,388
1,82,127,4
1,82,123,4
1,78,112,4
1,75,117,4
1,73,119,4
1,71,125,4
1,73,123,4
1,75,123,4
1,73,123,4
1,71,127,4
1,83,123,4
1,87,117,4
1,83,127,388
1,82,119,4
1,82,123,4
1,78,123,4
1,83,127,388
1,87,123,4
1,83,127,388
1,82,117,4
1,82,117,4
1,78,127,4
1,83,125,388
1,87,123,4
1,83,119,388
1,82,127,4
1,82,123,4
1,78,112,4
1,75,117,4
1,73,119,4
1,71,125,4
1,73,123,4
1,75,123,4
1,73,123,4
1,71,127,4
1,83,123,4
1,87,117,4
1,83,127,388
1,82,119,4
1,82,123,4
1,78,123,4
1,83,127,388
1,87,123,4
1,83,127,388
1,82,117,4
1,82,117,4
1,78,127,4
1,83,125,388
1,87,123,4
1,83,119,388
1,82,127,4
1,82,123,4
1,78,112,4
1,75,117,4
1,73,119,4
1,71,125,4
1,73,123,4
1,75,123,4
1,73,123,4
1,71,127,4
2,63,117,1136
2,63,117,4
2,64,105,4
2,66,123,4
2,59,112,4
2,47,97,4
2,52,97,0
2,59,97,0
2,59,97,0
2,64,97,0
2,49,98,4
2,54,98,0
2,61,98,0
2,66,98,0
2,49,94,4
2,54,94,0
2,61,94,0
2,66,94,0
2,47,96,4
2,52,96,0
2,59,96,0
2,59,96,0
2,64,96,0
2,44,100,196
2,47,100,0
2,56,100,0
2,59,100,0
2,68,100,0
2,66,97,4
2,71,95,0
2,64,119,4
2,66,101,4
2,64,110,4
2,61,105,196
2,63,115,4
2,54,101,4
2,56,95,4
2,64,94,4
2,59,112,0
2,64,95,196
2,59,105,0
2,63,117,4
2,61,125,4
2,71,80,9988
2,63,97,0
2,66,95,0
2,67,73,964
2,70,68,0
2,75,115,0
2,71,80,964
2,68,99,0
2,75,79,0
2,71,80,964
2,68,99,0
2,75,79,0
2,73,76,964
2,70,101,0
2,66,93,0
2,66,101,964
2,70,125,0
2,73,87,0
2,63,93,964
2,71,89,0
2,66,99,0
2,73,80,964
2,66,112,0
2,70,110,0
2,71,72,1348
2,63,95,0
2,66,93,0
2,71,86,2116
2,64,94,0
2,68,87,0
2,63,107,2116
2,71,95,0
2,66,97,0
2,71,89,2116
2,66,101,0
2,68,105,4
2,73,112,0
2,68,105,4
2,73,107,0
2,68,123,4
2,73,107,0
2,63,115,196
2,66,105,0
2,64,90,4
2,61,112,0
2,64,73,1156
2,73,112,0
2,68,61,0
2,54,112,580
2,56,110,4
2,59,112,4
2,59,115,4
2,71,65,4
2,64,93,0
2,68,93,0
2,54,110,580
2,56,110,4
2,59,115,4
2,73,87,772
2,70,105,0
2,66,77,0
2,73,87,964
2,70,105,0
2,66,77,0
2,73,87,964
2,70,105,0
2,66,77,0
2,73,87,964
2,70,105,0
2,66,77,0
2,64,94,196
2,59,105,0
2,54,117,4
2,56,107,4
2,59,115,4
2,59,112,4
2,64,94,4
2,59,105,0
2,54,117,4
2,56,107,4
2,59,115,4
2,59,112,4
2,64,99,4
2,59,112,0
2,63,112,2116
2,63,112,4
2,64,115,4
2,66,110,4
2,59,117,4
2,64,94,4
2,59,105,0
2,61,91,4
2,66,91,0
2,66,105,4
2,61,97,0
2,66,99,4
2,61,110,0
2,71,89,196
2,68,112,0
2,66,115,4
2,71,95,0
2,64,117,4
2,66,117,4
2,64,117,4
2,61,117,196
2,63,112,4
2,61,112,4
2,54,119,4
2,56,117,4
2,59,112,4
2,64,94,0
2,59,104,196
2,64,89,0
2,61,112,4
2,59,110,4
2,71,80,9988
2,63,97,0
2,66,95,0
2,67,73,964
2,70,68,0
2,75,115,0
2,71,80,964
2,68,99,0
2,75,79,0
2,71,80,964
2,68,99,0
2,75,79,0
2,73,76,964
2,70,101,0
2,66,93,0
2,66,101,964
2,70,125,0
2,73,87,0
2,63,93,964
2,71,89,0
2,66,99,0
2,73,80,964
2,66,112,0
2,70,110,0
2,71,72,1348
2,63,95,0
2,66,93,0
2,71,86,2116
2,64,94,0
2,68,87,0
2,63,107,2116
2,71,95,0
2,66,97,0
2,71,89,2116
2,66,101,0
2,68,105,4
2,73,112,0
2,68,105,4
2,73,107,0
2,68,123,4
2,73,107,0
2,63,115,196
2,66,105,0
2,64,90,4
2,61,112,0
2,64,73,1156
2,73,112,0
2,68,61,0
2,54,112,580
2,56,110,4
2,59,112,4
2,59,115,4
2,71,65,4
2,64,93,0
2,68,93,0
2,54,110,580
2,56,110,4
2,59,115,4
2,73,87,772
2,70,105,0
2,66,77,0
2,73,87,964
2,70,105,0
2,66,77,0
2,73,87,964
2,70,105,0
2,66,77,0
2,73,87,964
2,70,105,0
2,66,77,0
2,64,94,196
2,59,105,0
2,54,117,4
2,56,107,4
2,59,115,4
2,59,112,4
2,64,94,4
2,59,105,0
2,54,117,4
2,56,107,4
2,59,115,4
2,59,112,4
2,64,99,4
2,59,112,0
2,47,81,5188
2,56,81,0
2,59,81,0
2,68,81,0
2,64,76,0
2,49,74,964
2,54,74,0
2,58,74,0
2,61,74,0
2,66,74,0
2,47,81,964
2,56,81,0
2,59,81,0
2,68,81,0
2,64,76,0
2,49,74,964
2,54,74,0
2,58,74,0
2,61,74,0
2,66,74,0
2,49,82,1732
2,54,82,0
2,58,82,0
2,61,82,0
2,66,82,0
2,68,105,3268
2,59,76,0
2,64,73,0
2,70,71,964
2,61,89,0
2,66,97,0
2,68,105,964
2,59,76,0
2,64,73,0
2,70,71,964
2,61,89,0
2,66,97,0
2,68,105,964
2,59,76,0
2,64,73,0
2,70,71,964
2,61,89,0
2,66,97,0
2,68,105,3268
2,59,76,0
2,64,73,0
2,70,71,964
2,61,89,0
2,66,97,0
2,68,105,964
2,59,76,0
2,64,73,0
2,70,71,964
2,61,89,0
2,66,97,0
2,68,105,964
2,59,76,0
2,64,73,0
2,70,71,964
2,61,89,0
2,66,97,0
2,68,105,3268
2,59,76,0
2,64,73,0
2,70,71,964
2,61,89,0
2,66,97,0
2,68,105,964
2,59,76,0
2,64,73,0
2,70,71,964
2,61,89,0
2,66,97,0
2,68,105,964
2,59,76,0
2,64,73,0
2,70,71,964
2,61,89,0
2,66,97,0
3,75,115,1136
3,71,89,0
3,63,63,0
3,66,69,0
3,75,101,4
3,66,62,0
3,71,84,0
3,71,70,4
3,76,112,0
3,68,50,0
3,64,62,0
3,78,97,4
3,59,61,0
3,75,112,0
3,66,49,0
3,71,72,0
3,64,76,4
3,71,85,0
3,68,95,0
3,64,94,4
3,71,86,0
3,68,89,0
3,71,85,4
3,63,87,0
3,66,80,0
3,71,80,4
3,68,93,0
3,64,81,0
3,61,65,0
3,75,115,4
3,63,64,0
3,71,71,0
3,66,63,0
3,78,115,4
3,71,70,0
3,63,62,0
3,66,61,0
3,76,107,4
3,71,63,0
3,59,68,0
3,64,69,0
3,75,112,4
3,71,70,0
3,59,76,0
3,63,48,0
3,61,42,4
3,73,115,0
3,70,43,0
3,66,60,0
3,59,72,4
3,68,99,0
3,71,78,0
3,64,80,0
3,59,69,9220
3,66,46,0
3,63,48,0
3,71,125,0
3,70,112,4
3,67,53,0
3,63,59,0
3,61,64,0
3,68,91,4
3,63,89,0
3,59,81,0
3,56,89,0
3,66,70,4
3,58,103,0
3,61,99,0
3,58,99,4
3,66,82,0
3,61,110,0
3,58,97,4
3,61,119,0
3,66,93,0
3,58,110,4
3,66,85,0
3,61,110,0
3,59,93,4
3,66,80,0
3,63,103,0
3,61,105,4
3,66,81,0
3,58,99,0
3,59,105,4
3,63,89,0
3,75,117,4
3,59,104,0
3,63,99,0
3,73,112,4
3,59,84,0
3,63,70,0
3,66,64,0
3,71,117,4
3,59,71,4
3,64,72,0
3,68,112,0
3,59,105,4
3,63,89,0
3,75,117,4
3,59,104,0
3,63,99,0
3,73,112,4
3,59,84,0
3,63,70,0
3,66,64,0
3,71,117,4
3,59,71,4
3,64,72,0
3,68,112,0
3,64,84,4
3,61,101,0
3,68,78,0
3,61,101,4
3,64,84,0
3,68,85,0
3,66,95,4
3,63,103,0
3,59,115,0
3,68,112,4
3,64,78,0
3,59,84,0
3,68,119,4
3,64,76,0
3,59,85,0
3,68,117,4
3,59,86,0
3,64,78,0
3,61,87,4
3,70,65,0
3,66,91,0
3,64,104,4
3,71,77,0
3,68,83,0
3,66,99,4
3,73,69,0
3,70,95,0
3,71,62,4
3,76,117,0
3,64,69,0
3,68,58,0
3,75,107,4
3,71,77,0
3,66,110,0
3,64,65,4
3,71,68,0
3,68,43,0
3,76,119,0
3,66,66,4
3,78,95,0
3,71,76,0
3,75,103,0
3,71,62,4
3,76,117,0
3,64,69,0
3,68,58,0
3,75,107,4
3,71,77,0
3,66,110,0
3,64,65,4
3,71,68,0
3,68,43,0
3,76,119,0
3,66,66,4
3,78,95,0
3,71,76,0
3,75,103,0
3,75,123,2308
3,63,62,0
3,71,77,0
3,66,65,0
3,75,107,4
3,66,73,0
3,71,76,0
3,64,45,4
3,71,53,0
3,68,46,0
3,76,117,0
3,78,95,4
3,75,105,0
3,59,55,0
3,66,48,0
3,71,65,0
3,71,93,4
3,64,104,0
3,68,85,0
3,64,94,4
3,71,89,0
3,68,91,0
3,63,91,4
3,71,78,0
3,66,101,0
3,64,94,4
3,68,87,0
3,71,80,0
3,61,89,0
3,75,115,4
3,71,85,0
3,63,52,0
3,66,63,0
3,71,68,4
3,63,87,0
3,66,74,0
3,78,112,0
3,64,68,4
3,71,73,0
3,59,58,0
3,76,112,0
3,75,115,4
3,59,50,0
3,63,46,0
3,71,69,0
3,70,59,4
3,61,49,0
3,73,112,0
3,66,63,0
3,59,67,4
3,68,95,0
3,71,89,0
3,64,80,0
3,59,69,9220
3,66,46,0
3,63,48,0
3,71,125,0
3,70,112,4
3,67,53,0
3,63,59,0
3,61,64,0
3,68,91,4
3,63,89,0
3,59,81,0
3,56,89,0
3,66,70,4
3,58,103,0
3,61,99,0
3,58,99,4
3,66,82,0
3,61,110,0
3,58,97,4
3,61,119,0
3,66,93,0
3,58,110,4
3,66,85,0
3,61,110,0
3,59,93,4
3,66,80,0
3,63,103,0
3,61,105,4
3,66,81,0
3,58,99,0
3,59,105,4
3,63,89,0
3,75,117,4
3,59,104,0
3,63,99,0
3,73,112,4
3,59,84,0
3,63,70,0
3,66,64,0
3,71,117,4
3,59,71,4
3,64,72,0
3,68,112,0
3,59,105,4
3,63,89,0
3,75,117,4
3,59,104,0
3,63,99,0
3,73,112,4
3,59,84,0
3,63,70,0
3,66,64,0
3,71,117,4
3,59,71,4
3,64,72,0
3,68,112,0
3,64,84,4
3,61,101,0
3,68,78,0
3,61,101,4
3,64,84,0
3,68,85,0
3,66,95,4
3,63,103,0
3,59,115,0
3,68,112,4
3,64,78,0
3,59,84,0
3,68,119,4
3,64,76,0
3,59,85,0
3,68,117,4
3,59,86,0
3,64,78,0
3,61,87,4
3,70,65,0
3,66,91,0
3,64,104,4
3,71,77,0
3,68,83,0
3,66,99,4
3,73,69,0
3,70,95,0
3,71,62,4
3,76,117,0
3,64,69,0
3,68,58,0
3,75,107,4
3,71,77,0
3,66,110,0
3,64,65,4
3,71,68,0
3,68,43,0
3,76,119,0
3,66,66,4
3,78,95,0
3,71,76,0
3,75,103,0
3,71,62,4
3,76,117,0
3,64,69,0
3,68,58,0
3,75,107,4
3,71,77,0
3,66,110,0
3,64,65,4
3,71,68,0
3,68,43,0
3,76,119,0
3,66,66,4
