track,note,velocity,time
1,75,80,31200
1,75,80,0
1,75,0,1192
1,75,0,0
1,73,80,8
1,73,0,232
1,71,80,8
1,71,0,232
1,76,80,8
1,76,0,472
1,76,80,8
1,76,0,472
1,71,80,8
1,71,0,19
1,66,80,1
1,66,0,232
1,75,80,8
1,75,0,472
1,73,80,8
1,73,0,232
1,73,80,8
1,73,0,712
1,71,80,8
1,71,0,232
1,73,80,8
1,73,0,232
1,75,80,8
1,75,0,19
1,66,80,1200
1,66,0,232
1,73,80,8
1,73,0,232
1,75,80,8
1,75,0,232
1,75,80,8
1,75,0,232
1,73,80,8
1,73,0,232
1,75,80,8
1,75,0,232
1,76,80,8
1,76,0,472
1,76,80,8
1,76,0,472
1,71,80,8
1,71,0,19
1,66,80,1
1,66,0,232
1,75,80,8
1,75,0,472
1,73,80,8
1,73,0,232
1,73,80,8
1,73,0,712
1,75,80,8
1,75,0,232
1,75,80,8
1,75,0,19
1,75,80,2160
1,75,0,232
1,73,80,8
1,73,0,232
1,75,80,8
1,75,0,232
1,76,80,8
1,76,0,472
1,76,80,8
1,76,0,472
1,71,80,8
1,71,0,19
1,66,80,1
1,66,0,232
1,75,80,8
1,75,0,472
1,73,80,8
1,73,0,232
1,73,80,8
1,73,0,712
1,71,80,8
1,71,0,232
1,73,80,8
1,73,0,232
1,75,80,8
1,75,0,19
1,66,80,1200
1,66,0,232
1,75,80,8
1,75,0,232
1,75,80,8
1,75,0,232
1,75,80,8
1,75,0,232
1,73,80,8
1,73,0,232
1,75,80,8
1,75,0,232
1,76,80,8
1,76,0,472
1,76,80,8
1,76,0,472
1,71,80,8
1,71,0,19
1,66,80,1
1,66,0,232
1,75,80,8
1,75,0,472
1,73,80,8
1,73,0,232
1,70,80,8
1,70,0,712
1,70,80,8
1,70,0,232
1,71,80,8
1,71,0,19
1,75,80,3600
1,75,0,232
1,75,80,8
1,75,0,232
1,75,80,8
1,75,0,232
1,73,80,8
1,73,0,232
1,71,80,8
1,71,0,232
1,76,80,8
1,76,0,712
1,76,80,8
1,76,0,232
1,71,80,8
1,71,0,19
1,66,80,8
1,66,0,232
1,75,80,8
1,75,0,472
1,73,80,8
1,73,0,232
1,73,80,8
1,73,0,712
1,71,80,8
1,71,0,232
1,73,80,8
1,73,0,472
1,75,80,8
1,75,0,472
1,75,80,8
1,75,0,19
1,63,80,960
1,63,0,232
1,75,80,8
1,75,0,232
1,73,80,8
1,73,0,232
1,75,80,8
1,75,0,232
1,76,80,8
1,76,0,472
1,76,80,8
1,76,0,472
1,71,80,8
1,71,0,19
1,66,80,1
1,66,0,232
1,75,80,8
1,75,0,472
1,73,80,8
1,73,0,232
1,73,80,8
1,73,0,472
1,75,80,8
1,75,0,472
1,75,80,8
1,75,0,19
1,66,80,1920
1,66,0,232
1,75,80,8
1,75,0,232
1,73,80,8
1,73,0,232
1,75,80,8
1,75,0,232
1,76,80,8
1,76,0,472
1,78,80,8
1,78,0,472
1,71,80,8
1,71,0,19
1,66,80,1
1,66,0,232
1,75,80,8
1,75,0,472
1,73,80,8
1,73,0,232
1,73,80,8
1,73,0,712
1,71,80,8
1,71,0,232
1,73,80,8
1,73,0,232
1,75,80,8
1,75,0,19
1,63,80,1200
1,63,0,232
1,75,80,8
1,75,0,232
1,75,80,8
1,75,0,232
1,75,80,8
1,75,0,232
1,73,80,8
1,73,0,232
1,75,80,8
1,75,0,232
1,76,80,8
1,76,0,472
1,76,80,8
1,76,0,472
1,71,80,8
1,71,0,19
1,66,80,1
1,66,0,232
1,75,80,8
1,75,0,472
1,73,80,8
1,73,0,232
1,70,80,8
1,70,0,712
1,70,80,8
1,70,0,232
1,71,80,8
1,71,0,19
1,80,80,1200
1,80,0,2632
1,80,80,8
1,80,0,232
1,80,80,8
1,80,0,312
1,78,80,8
1,78,0,312
1,75,80,8
1,75,0,312
1,75,80,8
1,75,0,19
1,75,80,2240
1,75,0,312
1,78,80,8
1,78,0,312
1,80,80,8
1,80,0,312
1,80,80,8
1,80,0,312
1,80,80,8
1,80,0,312
1,80,80,8
1,80,0,312
1,80,80,8
1,80,0,312
1,80,80,8
1,80,0,312
1,80,80,8
1,80,0,312
1,80,80,8
1,80,0,312
1,80,80,8
1,80,0,312
1,80,80,8
1,80,0,312
1,78,80,8
1,75,80,320
1,78,0,12
1,75,0,300
1,80,80,8
1,80,0,1912
1,78,80,8
1,78,0,19
1,66,80,1200
1,66,0,232
1,75,80,8
1,75,0,232
1,73,80,8
1,73,0,232
1,75,80,8
1,75,0,232
1,76,80,8
1,76,0,472
1,76,80,8
1,76,0,472
1,71,80,8
1,71,0,19
1,66,80,1
1,66,0,232
1,75,80,8
1,75,0,472
1,73,80,8
1,73,0,232
1,73,80,8
1,73,0,712
1,75,80,8
1,75,0,232
1,75,80,8
1,75,0,19
1,63,80,1920
1,63,0,232
1,75,80,8
1,75,0,232
1,73,80,8
1,73,0,232
1,75,80,8
1,75,0,232
1,76,80,8
1,76,0,472
1,76,80,8
1,76,0,472
1,71,80,8
1,71,0,19
1,66,80,1
1,66,0,232
1,75,80,8
1,75,0,472
1,73,80,8
1,73,0,232
1,70,80,8
1,70,0,712
1,70,80,8
1,70,0,232
1,71,80,8
1,71,0,19
1,66,80,16320
1,66,0,232
1,71,80,8
1,71,0,952
1,71,80,8
1,71,0,952
1,70,80,8
1,70,0,19
1,66,80,240
1,66,0,232
1,71,80,8
1,71,0,952
1,71,80,8
1,71,0,952
1,70,80,8
1,70,0,19
1,71,80,480
1,71,0,952
1,71,80,8
1,71,0,952
1,70,80,8
1,70,0,472
1,66,80,8
1,66,0,232
1,66,80,8
1,66,0,19
1,66,80,240
1,66,0,232
1,80,80,8
1,80,0,472
1,80,80,8
1,80,0,472
1,75,80,8
1,75,0,232
1,75,80,8
1,75,0,472
1,73,80,8
1,73,0,19
1,76,80,960
1,76,0,232
1,76,80,8
1,76,0,232
1,76,80,8
1,76,0,232
1,76,80,8
1,76,0,232
1,76,80,8
1,76,0,232
1,78,80,8
1,78,0,472
1,76,80,8
1,76,0,472
1,76,80,8
1,76,0,19
1,76,80,1
1,76,0,232
1,83,80,8
1,83,0,232
1,83,80,8
1,83,0,232
1,83,80,8
1,83,0,232
1,83,80,8
1,83,0,232
1,81,80,8
1,81,0,232
1,81,80,8
1,81,0,232
1,80,80,8
1,80,0,232
1,76,80,8
1,76,0,19
1,78,80,1200
1,78,0,232
1,78,80,8
1,78,0,232
1,78,80,8
1,78,0,232
1,78,80,8
1,78,0,232
1,78,80,8
1,78,0,232
1,78,80,8
1,78,0,232
1,80,80,8
1,80,0,472
1,78,80,8
1,78,0,472
1,73,80,8
1,73,0,19
1,78,80,480
1,78,0,232
1,78,80,8
1,78,0,232
1,78,80,8
1,78,0,232
1,80,80,8
1,80,0,232
1,78,80,8
1,78,0,472
1,85,80,8
1,85,0,19
1,75,80,8
1,75,0,232
1,73,80,8
1,73,0,232
1,75,80,8
1,75,0,232
1,71,80,8
1,71,0,19
1,75,80,1
1,75,0,232
1,73,80,8
1,73,0,232
1,75,80,8
1,75,0,232
1,76,80,8
1,76,0,472
1,76,80,8
1,76,0,472
1,71,80,8
1,71,0,19
1,66,80,1
1,66,0,232
1,75,80,8
1,75,0,472
1,73,80,8
1,73,0,232
1,73,80,8
1,73,0,712
1,75,80,8
1,75,0,232
1,75,80,8
1,75,0,19
1,66,80,1440
1,66,0,232
1,75,80,8
1,75,0,232
1,75,80,8
1,75,0,232
1,75,80,8
1,75,0,312
1,73,80,8
1,73,0,312
1,75,80,8
1,75,0,312
1,76,80,8
1,76,0,472
1,76,80,8
1,76,0,232
1,75,80,8
1,75,0,472
1,71,80,8
1,71,0,232
1,68,80,8
1,68,0,232
1,66,80,8
1,66,0,19
1,75,80,1
1,75,0,232
1,73,80,8
1,73,0,232
1,70,80,8
1,70,0,472
1,70,80,8
1,70,0,232
1,71,80,8
1,71,0,19
1,66,80,1920
1,66,0,232
1,75,80,8
1,75,0,232
1,73,80,8
1,73,0,232
1,75,80,8
1,75,0,232
1,76,80,8
1,76,0,472
1,78,80,8
1,78,0,472
1,71,80,8
1,71,0,19
1,66,80,1
1,66,0,472
1,75,80,88
1,75,0,312
1,73,80,8
1,73,0,312
1,73,80,8
1,73,0,312
1,75,80,8
1,75,0,392
1,75,80,8
1,75,0,19
1,66,80,1920
1,66,0,232
1,75,80,8
1,75,0,232
1,73,80,8
1,73,0,232
1,71,80,8
1,71,0,232
1,73,80,8
1,73,0,472
1,73,80,8
1,73,0,472
1,73,80,8
1,73,0,472
1,71,80,8
1,71,0,19
1,66,80,8
1,66,0,232
1,75,80,8
1,75,0,472
1,73,80,8
1,73,0,232
1,70,80,8
1,70,0,712
1,70,80,8
1,70,0,232
1,71,80,8
1,71,0,19
1,75,80,1440
1,75,0,232
1,73,80,8
1,73,0,232
1,71,80,8
1,71,0,232
1,74,80,8
1,74,0,232
1,73,80,8
1,73,0,232
1,71,80,8
1,71,0,232
1,73,80,8
1,73,0,472
1,73,80,8
1,73,0,472
1,73,80,8
1,73,0,472
1,71,80,8
1,71,0,19
1,66,80,8
1,66,0,232
1,75,80,8
1,75,0,472
1,73,80,8
1,73,0,232
1,70,80,8
1,70,0,712
1,70,80,8
1,70,0,232
1,71,80,8
1,71,0,19
2,83,80,94560
2,75,80,0
2,83,0,2632
2,75,0,0
2,83,80,8
2,75,80,0
2,83,0,232
2,75,0,0
2,83,80,8
2,75,80,0
2,83,0,312
2,75,0,0
2,82,80,8
2,73,80,0
2,82,0,312
2,73,0,0
2,78,80,8
2,70,80,0
2,78,0,312
2,70,0,0
2,78,80,8
2,70,80,0
2,78,0,19
2,70,0,0
2,78,80,2240
2,70,80,0
2,78,0,312
2,70,0,0
2,82,80,8
2,75,80,0
2,82,0,312
2,75,0,0
2,83,80,8
2,75,80,0
2,83,0,312
2,75,0,0
2,83,80,8
2,75,80,0
2,83,0,312
2,75,0,0
2,83,80,8
2,75,80,0
2,83,0,312
2,75,0,0
2,83,80,8
2,75,80,0
2,83,0,312
2,75,0,0
2,83,80,8
2,75,80,0
2,83,0,312
2,75,0,0
2,83,80,8
2,75,80,0
2,83,0,312
2,75,0,0
2,83,80,8
2,75,80,0
2,83,0,312
2,75,0,0
2,83,80,8
2,75,80,0
2,83,0,312
2,75,0,0
2,83,80,8
2,75,80,0
2,83,0,312
2,75,0,0
2,83,80,8
2,75,80,0
2,83,0,312
2,75,0,0
2,82,80,8
2,73,80,0
2,80,80,320
2,71,80,0
2,82,0,12
2,73,0,0
2,80,0,300
2,71,0,0
2,83,80,8
2,73,80,0
2,83,0,1912
2,82,80,8
2,73,0,19
2,82,0,0
2,73,80,31200
2,78,80,0
2,73,0,952
2,78,0,0
2,73,80,8
2,78,80,0
2,73,0,952
2,78,0,0
2,73,80,8
2,78,80,0
2,73,0,19
2,78,0,0
2,73,80,480
2,78,80,0
2,73,0,952
2,78,0,0
2,73,80,8
2,78,80,0
2,73,0,952
2,78,0,0
2,73,80,8
2,78,80,0
2,73,0,19
2,78,0,0
2,76,80,480
2,80,80,0
2,76,0,952
2,80,0,0
2,75,80,8
2,78,80,0
2,75,0,952
2,78,0,0
2,73,80,8
2,76,80,0
2,73,0,472
2,76,0,0
2,73,80,8
2,70,80,0
2,73,0,232
2,70,0,0
2,73,80,8
2,70,80,0
2,73,0,19
2,70,0,0
2,73,80,240
2,70,80,0
2,73,0,232
2,70,0,0
2,83,80,8
2,76,80,0
2,83,0,472
2,76,0,0
2,83,80,8
2,76,80,0
2,83,0,472
2,76,0,0
2,71,80,8
2,78,80,0
2,71,0,232
2,78,0,0
2,71,80,8
2,78,80,0
2,71,0,472
2,78,0,0
2,70,80,8
2,78,80,0
2,70,0,19
2,78,0,0
3,71,80,156000
3,76,80,0
3,81,80,0
3,81,0,1912
3,80,80,8
3,71,0,19
3,76,0,0
3,80,0,0
3,71,80,1
3,76,80,0
3,81,80,0
3,81,0,1912
3,80,80,8
3,71,0,19
3,76,0,0
3,80,0,0
3,73,80,1
3,78,80,0
3,83,80,0
3,83,0,1912
3,82,80,8
3,73,0,19
3,78,0,0
3,82,0,0
3,73,80,1
3,78,80,0
3,83,80,0
3,83,0,1912
3,82,80,8
3,73,0,19
3,78,0,0
3,82,0,0
4,66,80,15836
4,59,80,2
4,54,80,2
4,47,80,2
4,66,0,1426
4,59,0,2
4,54,0,2
4,47,0,2
4,64,80,242
4,59,80,2
4,55,80,2
4,52,80,2
4,64,0,1666
4,59,0,2
4,55,0,2
4,52,0,2
4,64,80,242
4,59,80,2
4,58,80,2
4,54,80,2
4,64,0,1666
4,59,0,2
4,58,0,2
4,54,0,2
4,66,80,242
4,59,80,2
4,54,80,2
4,47,80,2
4,66,0,2146
4,59,0,2
4,54,0,2
4,47,0,2
4,66,80,2
4,59,80,2
4,54,80,2
4,47,80,2
4,66,0,1426
4,59,0,2
4,54,0,2
4,47,0,2
4,64,80,242
4,59,80,2
4,55,80,2
4,52,80,2
4,64,0,1666
4,59,0,2
4,55,0,2
4,52,0,2
4,64,80,242
4,59,80,2
4,58,80,2
4,54,80,2
4,64,0,946
4,59,0,2
4,58,0,2
4,54,0,2
4,64,80,2
4,61,80,2
4,58,80,2
4,54,80,2
4,64,0,946
4,61,0,2
4,58,0,2
4,54,0,2
4,66,80,2
4,59,80,2
4,54,80,2
4,47,80,2
4,66,0,1666
4,59,0,2
4,54,0,2
4,47,0,2
4,66,80,482
4,59,80,2
4,54,80,2
4,47,80,2
4,66,0,1426
4,59,0,2
4,54,0,2
4,47,0,2
4,64,80,242
4,59,80,2
4,55,80,2
4,52,80,2
4,64,0,1666
4,59,0,2
4,55,0,2
4,52,0,2
4,64,80,242
4,59,80,2
4,58,80,2
4,54,80,2
4,64,0,1666
4,59,0,2
4,58,0,2
4,54,0,2
4,66,80,242
4,59,80,2
4,54,80,2
4,47,80,2
4,66,0,2146
4,59,0,2
4,54,0,2
4,47,0,2
4,66,80,2
4,59,80,2
4,54,80,2
4,47,80,2
4,66,0,1426
4,59,0,2
4,54,0,2
4,47,0,2
4,64,80,242
4,59,80,2
4,55,80,2
4,52,80,2
4,64,0,1666
4,59,0,2
4,55,0,2
4,52,0,2
4,64,80,242
4,59,80,2
4,58,80,2
4,54,80,2
4,64,0,946
4,59,0,2
4,58,0,2
4,54,0,2
4,64,80,2
4,61,80,2
4,58,80,2
4,54,80,2
4,64,0,946
4,61,0,2
4,58,0,2
4,54,0,2
4,66,80,2
4,59,80,2
4,54,80,2
4,47,80,2
4,66,0,1666
4,59,0,2
4,54,0,2
4,47,0,2
4,66,80,482
4,59,80,2
4,54,80,2
4,47,80,2
4,66,0,1426
4,59,0,2
4,54,0,2
4,47,0,2
4,64,80,242
4,59,80,2
4,55,80,2
4,52,80,2
4,64,0,1666
4,59,0,2
4,55,0,2
4,52,0,2
4,64,80,242
4,59,80,2
4,58,80,2
4,54,80,2
4,64,0,1666
4,59,0,2
4,58,0,2
4,54,0,2
4,66,80,242
4,59,80,2
4,54,80,2
4,47,80,2
4,66,0,2146
4,59,0,2
4,54,0,2
4,47,0,2
4,66,80,2
4,59,80,2
4,54,80,2
4,47,80,2
4,66,0,1426
4,59,0,2
4,54,0,2
4,47,0,2
4,64,80,242
4,59,80,2
4,55,80,2
4,52,80,2
4,64,0,1666
4,59,0,2
4,55,0,2
4,52,0,2
4,64,80,242
4,59,80,2
4,58,80,2
4,54,80,2
4,64,0,946
4,59,0,2
4,58,0,2
4,54,0,2
4,64,80,2
4,61,80,2
4,58,80,2
4,54,80,2
4,64,0,946
4,61,0,2
4,58,0,2
4,54,0,2
4,66,80,2
4,59,80,2
4,54,80,2
4,47,80,2
4,66,0,3586
4,59,0,2
4,54,0,2
4,47,0,2
4,66,80,482
4,59,80,2
4,54,80,2
4,47,80,2
4,66,0,226
4,59,0,2
4,54,0,2
4,47,0,2
4,66,80,2
4,59,80,2
4,54,80,2
4,47,80,2
4,66,0,226
4,59,0,2
4,54,0,2
4,47,0,2
4,66,80,2
4,59,80,2
