track,note,velocity,time
3,41,127,15360
3,53,127,0
3,60,127,0
3,53,127,0
3,55,127,0
3,53,127,0
3,55,127,0
3,60,127,0
3,41,127,0
3,53,127,0
3,60,127,0
3,53,127,0
3,55,127,0
3,53,127,0
3,55,127,0
3,60,127,0
3,50,127,0
3,53,127,0
3,60,127,0
3,55,127,0
3,53,127,0
3,55,127,0
3,60,127,0
3,50,127,0
3,53,127,0
3,60,127,0
3,55,127,0
3,53,127,0
3,55,127,0
3,60,127,0
3,46,127,0
3,53,127,0
3,60,127,0
3,53,127,0
3,55,127,0
3,53,127,0
3,55,127,0
3,60,127,0
3,46,127,0
3,53,127,0
3,60,127,0
3,53,127,0
3,55,127,0
3,53,127,0
3,55,127,0
3,60,127,0
3,48,127,0
3,53,127,0
3,55,127,0
3,60,127,0
3,55,127,0
3,53,127,0
3,55,127,0
3,60,127,0
3,48,127,0
3,52,127,0
3,55,127,0
3,60,127,0
3,52,127,0
3,53,127,0
3,55,127,0
3,60,127,0
3,41,127,0
3,53,127,0
3,60,127,0
3,55,127,0
3,53,127,0
3,55,127,0
3,60,127,0
3,41,127,0
3,53,127,0
3,60,127,0
3,55,127,0
3,53,127,0
3,55,127,0
3,60,127,0
3,50,127,0
3,53,127,0
3,60,127,0
3,55,127,0
3,53,127,0
3,55,127,0
3,60,127,0
3,50,127,0
3,53,127,0
3,60,127,0
3,55,127,0
3,53,127,0
3,55,127,0
3,60,127,0
3,46,127,0
3,53,127,24
3,57,127,24
3,60,127,48
3,60,127,0
3,53,127,0
3,55,127,0
3,48,127,0
3,53,127,168
3,55,127,0
3,60,127,0
3,48,127,24
3,53,127,0
3,55,127,0
3,60,127,0
3,52,127,0
3,53,127,192
3,48,127,24
3,48,127,24
3,53,127,0
3,60,127,0
3,55,127,0
3,53,127,0
3,55,127,0
3,60,127,0
3,41,127,0
3,53,127,0
3,60,127,0
3,55,127,0
3,53,127,0
3,55,127,0
3,60,127,0
3,46,127,24576
3,53,127,0
3,62,127,0
3,58,127,0
3,53,127,0
3,58,127,0
3,62,127,0
3,46,127,0
3,53,127,0
3,62,127,0
3,58,127,0
3,53,127,0
3,58,127,0
3,62,127,0
3,50,127,0
3,53,127,0
3,62,127,0
3,57,127,0
3,53,127,0
3,57,127,0
3,62,127,0
3,57,127,0
3,53,127,0
3,62,127,0
3,53,127,0
3,57,127,0
3,62,127,0
3,50,127,0
3,55,127,0
3,53,127,0
3,62,127,0
3,55,127,0
3,53,127,0
3,55,127,0
3,62,127,0
3,53,127,0
3,62,127,0
3,55,127,0
3,53,127,0
3,55,127,0
3,62,127,0
3,48,127,0
3,60,127,0
3,52,127,0
3,55,127,0
3,60,127,0
3,46,127,0
3,52,127,0
3,55,127,0
3,60,127,0
3,45,127,0
3,52,127,0
3,55,127,0
3,60,127,0
3,43,127,0
3,53,127,12480
3,60,127,0
3,55,127,0
3,53,127,0
3,55,127,0
3,60,127,0
3,41,127,0
3,53,127,0
3,60,127,0
3,55,127,0
3,53,127,0
3,55,127,0
3,60,127,0
3,50,127,0
3,53,127,0
3,60,127,0
3,55,127,0
3,53,127,0
3,55,127,0
3,60,127,0
3,50,127,0
3,53,127,0
3,60,127,0
3,55,127,0
3,53,127,0
3,55,127,0
3,60,127,0
3,46,127,0
3,53,127,0
3,60,127,0
3,55,127,0
3,53,127,0
3,55,127,0
3,60,127,0
3,46,127,0
3,53,127,0
3,60,127,0
3,55,127,0
3,53,127,0
3,55,127,0
3,60,127,0
3,48,127,0
3,53,127,0
3,60,127,0
3,55,127,0
3,53,127,0
3,55,127,0
3,60,127,0
3,41,127,0
3,53,127,0
3,60,127,0
3,55,127,0
3,53,127,0
3,55,127,0
3,60,127,0
3,41,127,12288
3,53,127,0
3,60,127,0
3,53,127,0
3,55,127,0
3,53,127,0
3,55,127,0
3,60,127,0
3,41,127,0
3,53,127,0
3,60,127,0
3,53,127,0
3,55,127,0
3,53,127,0
3,55,127,0
3,60,127,0
3,50,127,0
3,53,127,0
3,60,127,0
3,55,127,0
3,53,127,0
3,55,127,0
3,60,127,0
3,50,127,0
3,53,127,0
3,60,127,0
3,55,127,0
3,53,127,0
3,55,127,0
3,60,127,0
3,46,127,0
3,53,127,0
3,60,127,0
3,53,127,0
3,55,127,0
3,53,127,0
3,55,127,0
3,60,127,0
3,46,127,0
3,53,127,0
3,60,127,0
3,53,127,0
3,55,127,0
3,53,127,0
3,55,127,0
3,60,127,0
3,48,127,0
3,53,127,0
3,55,127,0
3,60,127,0
3,55,127,0
3,53,127,0
3,55,127,0
3,60,127,0
3,48,127,0
3,52,127,0
3,55,127,0
3,60,127,0
3,52,127,0
3,53,127,0
3,55,127,0
3,60,127,0
3,41,127,0
3,53,127,0
3,60,127,0
3,55,127,0
3,53,127,0
3,55,127,0
3,60,127,0
3,41,127,0
3,53,127,0
3,60,127,0
3,55,127,0
3,53,127,0
3,55,127,0
3,60,127,0
3,50,127,0
3,53,127,0
3,60,127,0
3,55,127,0
3,53,127,0
3,55,127,0
3,60,127,0
3,50,127,0
3,53,127,0
3,60,127,0
3,55,127,0
3,53,127,0
3,55,127,0
3,60,127,0
3,46,127,0
3,53,127,24
3,57,127,24
3,60,127,48
3,60,127,0
3,53,127,0
3,55,127,0
3,48,127,0
3,53,127,168
3,55,127,0
3,60,127,0
3,48,127,0
3,53,127,0
3,60,127,0
3,55,127,0
3,48,127,0
3,53,127,0
3,60,127,0
3,55,127,0
3,48,127,0
3,53,127,0
3,60,127,0
3,55,127,0
3,53,127,0
3,55,127,0
3,60,127,0
3,50,127,0
3,53,127,0
3,60,127,0
3,55,127,0
3,53,127,0
3,55,127,0
3,60,127,0
3,50,127,0
3,53,127,0
3,60,127,0
3,55,127,0
3,53,127,0
3,55,127,0
3,60,127,0
3,46,127,0
3,53,127,0
3,57,127,0
3,55,127,0
3,53,127,0
3,55,127,0
3,60,127,0
3,48,127,0
3,53,127,0
3,55,127,0
3,60,127,0
3,41,127,0
3,53,127,0
3,60,127,0
3,55,127,0
3,53,127,0
3,55,127,0
3,60,127,0
3,41,127,0
3,53,127,0
3,60,127,0
3,55,127,0
3,53,127,0
3,55,127,0
3,60,127,0
3,41,127,0
3,53,127,0
3,60,127,0
3,55,127,0
3,53,127,0
3,55,127,0
3,60,127,0
3,41,127,0
3,48,127,48
3,53,127,48
3,55,127,48
3,60,127,48
4,41,127,39936
4,53,127,0
4,60,127,0
4,53,127,0
4,55,127,0
4,53,127,0
4,55,127,0
4,60,127,0
4,41,127,0
4,53,127,0
4,60,127,0
4,53,127,0
4,55,127,0
4,53,127,0
4,55,127,0
4,60,127,0
4,50,127,0
4,53,127,0
4,60,127,0
4,55,127,0
4,53,127,0
4,55,127,0
4,60,127,0
4,50,127,0
4,53,127,0
4,60,127,0
4,55,127,0
4,53,127,0
4,55,127,0
4,60,127,0
4,46,127,0
4,53,127,0
4,60,127,0
4,53,127,0
4,55,127,0
4,53,127,0
4,55,127,0
4,60,127,0
4,46,127,0
4,53,127,0
4,60,127,0
4,53,127,0
4,55,127,0
4,53,127,0
4,55,127,0
4,60,127,0
4,48,127,0
4,53,127,0
4,55,127,0
4,60,127,0
4,55,127,0
4,53,127,0
4,55,127,0
4,60,127,0
4,48,127,0
4,52,127,0
4,55,127,0
4,60,127,0
4,52,127,0
4,53,127,0
4,55,127,0
4,60,127,0
4,41,127,0
4,53,127,0
4,60,127,0
4,55,127,0
4,53,127,0
4,55,127,0
4,60,127,0
4,41,127,0
4,53,127,0
4,60,127,0
4,55,127,0
4,53,127,0
4,55,127,0
4,60,127,0
4,50,127,0
4,53,127,0
4,60,127,0
4,55,127,0
4,53,127,0
4,55,127,0
4,60,127,0
4,50,127,0
4,53,127,0
4,60,127,0
4,55,127,0
4,53,127,0
4,55,127,0
4,60,127,0
4,46,127,0
4,53,127,24
4,57,127,24
4,60,127,48
4,60,127,0
4,53,127,0
4,55,127,0
4,48,127,0
4,53,127,168
4,55,127,0
4,60,127,0
4,48,127,24
4,53,127,0
4,55,127,0
4,60,127,0
4,52,127,0
4,53,127,192
4,48,127,24
4,48,127,24
4,53,127,0
4,60,127,0
4,55,127,0
4,53,127,0
4,55,127,0
4,60,127,0
4,41,127,0
4,53,127,0
4,60,127,0
4,55,127,0
4,53,127,0
4,55,127,0
4,60,127,0
4,41,127,12288
4,53,127,0
4,60,127,0
4,53,127,0
4,55,127,0
4,53,127,0
4,55,127,0
4,60,127,0
4,41,127,0
4,53,127,0
4,60,127,0
4,53,127,0
4,55,127,0
4,53,127,0
4,55,127,0
4,60,127,0
4,50,127,0
4,53,127,0
4,60,127,0
4,55,127,0
4,53,127,0
4,55,127,0
4,60,127,0
4,50,127,0
4,53,127,0
4,60,127,0
4,55,127,0
4,53,127,0
4,55,127,0
4,60,127,0
4,46,127,0
4,53,127,0
4,60,127,0
4,53,127,0
4,55,127,0
4,53,127,0
4,55,127,0
4,60,127,0
4,46,127,0
4,53,127,0
4,60,127,0
4,53,127,0
4,55,127,0
4,53,127,0
4,55,127,0
4,60,127,0
4,48,127,0
4,53,127,0
4,55,127,0
4,60,127,0
4,52,127,24
4,53,127,0
4,60,127,0
4,48,127,0
4,53,127,0
4,60,127,0
4,57,127,0
4,55,127,0
4,53,127,24
4,55,127,0
4,60,127,0
4,46,127,12096
4,53,127,0
4,62,127,0
4,58,127,0
4,53,127,0
4,58,127,0
4,62,127,0
4,46,127,0
4,53,127,0
4,62,127,0
4,58,127,0
4,53,127,0
4,58,127,0
4,62,127,0
4,50,127,0
4,53,127,0
4,62,127,0
4,57,127,0
4,53,127,0
4,57,127,0
4,62,127,0
4,57,127,0
4,53,127,0
4,62,127,0
4,53,127,0
4,57,127,0
4,62,127,0
4,50,127,0
4,55,127,0
4,53,127,0
4,62,127,0
4,55,127,0
4,53,127,0
4,55,127,0
4,62,127,0
4,53,127,0
4,62,127,0
4,55,127,0
4,53,127,0
4,55,127,0
4,62,127,0
4,48,127,0
4,60,127,0
4,52,127,0
4,55,127,0
4,60,127,0
4,46,127,0
4,52,127,0
4,55,127,0
4,60,127,0
4,45,127,0
4,52,127,0
4,55,127,0
4,60,127,0
4,43,127,0
5,41,92,0
5,53,92,0
5,60,92,0
5,55,92,0
5,53,92,0
5,55,92,0
5,60,92,0
5,41,92,0
5,53,92,0
5,60,92,0
5,55,92,0
5,53,92,0
5,55,92,0
5,60,92,0
5,50,92,0
5,53,92,0
5,60,92,0
5,55,92,0
5,53,92,0
5,55,92,0
5,60,92,0
5,50,92,0
5,53,92,0
5,60,92,0
5,55,92,0
5,53,92,0
5,55,92,0
5,60,92,0
5,46,92,0
5,53,92,0
5,60,92,0
5,55,92,0
5,53,92,0
5,55,92,0
5,60,92,0
5,46,92,0
5,53,92,0
5,60,92,0
5,55,92,0
5,53,92,0
5,55,92,0
5,60,92,0
5,48,92,0
5,53,92,0
5,60,92,0
5,55,92,0
5,53,92,0
5,55,92,0
5,60,92,0
5,53,92,0
5,55,92,0
5,60,92,0
5,55,92,0
5,60,92,0
6,48,83,11520
6,53,83,24
6,55,83,24
6,57,83,24
6,60,83,24
6,48,83,0
6,55,83,0
6,57,83,0
6,60,83,0
6,48,83,0
6,53,83,24
6,55,83,24
6,57,83,24
6,60,83,24
6,48,83,0
6,55,83,0
6,57,83,0
6,60,83,0
6,50,83,0
6,53,83,24
6,55,83,24
6,57,83,0
6,62,83,24
6,53,83,0
6,55,83,0
6,62,83,0
6,50,83,24
6,57,83,0
6,50,83,48
6,53,83,24
6,55,83,24
6,57,83,0
6,62,83,24
6,53,83,0
6,55,83,0
6,62,83,0
6,50,83,24
6,57,83,0
6,46,83,48
6,50,83,24
6,55,83,24
6,60,83,24
6,65,83,24
6,46,83,0
6,50,83,0
6,55,83,0
6,60,83,0
6,65,83,24
6,46,83,0
6,50,83,24
6,55,83,24
6,60,83,24
6,65,83,24
6,46,83,0
6,50,83,0
6,55,83,0
6,60,83,0
6,65,83,24
6,48,83,0
6,53,83,0
6,60,83,24
6,67,83,0
6,48,83,0
6,53,83,0
6,60,83,24
6,67,83,0
6,48,83,48
6,52,83,24
6,55,83,0
6,60,83,24
6,48,83,24
6,60,83,0
6,52,83,24
6,55,83,0
6,48,83,24
6,53,83,24
6,55,83,24
6,57,83,24
6,60,83,24
6,48,83,0
6,55,83,0
6,57,83,0
6,60,83,0
6,48,83,0
6,53,83,24
6,55,83,24
6,57,83,24
6,60,83,24
6,48,83,0
6,55,83,0
6,57,83,0
6,60,83,0
6,50,83,0
6,53,83,24
6,55,83,24
6,57,83,0
6,62,83,24
6,53,83,0
6,55,83,0
6,62,83,0
6,50,83,24
6,57,83,0
6,50,83,48
6,53,83,24
6,55,83,24
6,57,83,0
6,62,83,24
6,53,83,0
6,55,83,0
6,62,83,0
6,50,83,24
6,57,83,0
6,46,83,48
6,50,83,24
6,55,83,24
6,60,83,24
6,65,83,24
6,46,83,0
6,50,83,0
6,55,83,0
6,60,83,0
6,65,83,24
6,48,83,0
6,53,83,0
6,60,83,24
6,67,83,0
6,48,83,192
6,52,83,24
6,55,83,0
6,60,83,24
6,53,83,0
6,57,83,24
6,55,83,24
6,60,83,72
6,53,83,24
6,55,83,24
6,60,83,24
6,65,83,24
6,69,83,0
6,46,83,24576
6,53,83,24
6,58,83,24
6,62,83,24
6,50,83,0
6,53,83,0
6,62,83,24
6,57,83,24
6,43,83,24
6,50,83,0
6,53,83,24
6,58,83,48
6,50,83,0
6,52,83,0
6,55,83,0
6,46,83,0
6,52,83,0
6,55,83,0
6,45,83,0
6,52,83,0
6,55,83,0
6,43,83,0
6,60,83,0
6,53,83,0
6,65,83,0
6,67,83,0
6,65,83,0
6,67,83,0
6,60,83,0
6,53,83,0
6,65,83,0
6,67,83,0
6,67,83,0
6,65,83,0
6,67,83,0
6,67,83,0
6,65,83,0
6,62,83,0
6,57,83,0
6,65,83,0
6,67,83,0
6,65,83,0
6,67,83,0
6,62,83,0
6,57,83,0
6,65,83,0
6,67,83,0
6,67,83,0
6,65,83,0
6,67,83,0
6,72,83,0
6,67,83,0
6,65,83,0
6,58,83,0
6,65,83,0
6,67,83,0
6,65,83,0
6,67,83,0
6,58,83,0
6,65,83,0
6,67,83,0
6,65,83,0
6,67,83,0
6,53,83,0
6,67,83,0
6,65,83,0
6,60,83,0
6,65,83,0
6,67,83,0
6,65,83,0
6,67,83,0
6,60,83,0
6,65,83,0
6,60,83,0
6,65,83,0
6,48,83,12288
6,53,83,24
6,55,83,24
6,57,83,24
6,60,83,24
6,48,83,0
6,55,83,0
6,57,83,0
6,60,83,0
6,48,83,0
6,53,83,24
6,55,83,24
6,57,83,24
6,60,83,24
6,48,83,0
6,55,83,0
6,57,83,0
6,60,83,0
6,50,83,0
6,53,83,24
6,55,83,24
6,57,83,0
6,62,83,24
6,53,83,0
6,55,83,0
6,62,83,0
6,50,83,24
6,57,83,0
6,50,83,48
6,53,83,24
6,55,83,24
6,57,83,0
6,62,83,24
6,53,83,0
6,55,83,0
6,62,83,0
6,50,83,24
6,57,83,0
6,46,83,48
6,50,83,24
6,55,83,24
6,60,83,24
6,65,83,24
6,46,83,0
6,50,83,0
6,55,83,0
6,60,83,0
6,65,83,24
6,46,83,0
6,50,83,24
6,55,83,24
6,60,83,24
6,65,83,24
6,46,83,0
6,50,83,0
6,55,83,0
6,60,83,0
6,65,83,24
6,48,83,0
6,53,83,0
6,60,83,24
6,67,83,0
6,48,83,0
6,53,83,0
6,60,83,24
6,67,83,0
6,48,83,48
6,52,83,24
6,55,83,0
6,60,83,24
6,48,83,24
6,60,83,0
6,52,83,24
6,55,83,0
6,48,83,24
6,53,83,24
6,55,83,24
6,57,83,24
6,60,83,24
6,48,83,0
6,55,83,0
6,57,83,0
6,60,83,0
6,48,83,0
6,53,83,24
6,55,83,24
6,57,83,24
6,60,83,24
6,48,83,0
6,55,83,0
6,57,83,0
6,60,83,0
6,50,83,0
6,53,83,24
6,55,83,24
