track,note,velocity,time
1,65,44,0
1,69,49,0
1,77,52,480
1,69,0,480
1,65,0,0
1,69,49,0
1,67,44,0
1,77,0,480
1,76,53,0
1,67,0,480
1,69,0,0
1,65,36,0
1,69,42,0
1,76,0,240
1,74,52,0
1,74,0,240
1,69,0,0
1,65,0,0
1,68,54,0
1,68,0,240
1,69,50,0
1,69,0,240
1,62,42,0
1,69,42,0
1,74,52,0
1,74,0,720
1,72,47,0
1,72,0,240
1,69,0,0
1,67,47,0
1,70,52,0
1,70,0,480
1,67,0,0
1,62,0,0
1,70,59,0
1,62,49,480
1,60,44,0
1,70,0,480
1,66,57,0
1,60,0,480
1,62,0,0
1,58,36,0
1,62,36,0
1,66,0,240
1,67,57,0
1,67,0,240
1,62,0,0
1,58,0,0
1,67,36,0
1,64,34,0
1,76,62,0
1,76,0,240
1,74,58,0
1,74,0,240
1,64,0,0
1,67,0,0
1,64,36,0
1,67,36,0
1,74,59,0
1,74,0,480
1,73,56,0
1,73,0,480
1,67,0,0
1,64,0,0
1,69,58,160
1,69,0,160
1,71,55,0
1,71,0,160
1,73,57,0
1,73,0,160
1,74,61,0
1,74,0,160
1,76,64,0
1,76,0,160
1,81,68,0
1,81,0,1120
1,69,61,0
1,69,0,160
1,71,57,0
1,71,0,160
1,73,61,0
1,73,0,160
1,74,65,0
1,74,0,160
1,76,68,0
1,76,0,160
1,81,72,0
1,81,0,720
1,74,67,0
1,74,0,240
1,79,69,0
1,79,0,160
1,77,65,0
1,77,0,160
1,76,64,0
1,76,0,100
1,74,62,0
1,74,0,30
1,76,62,0
1,76,0,30
1,74,69,0
1,74,0,160
1,73,64,0
1,73,0,160
1,74,64,0
1,74,0,160
1,77,69,0
1,77,0,640
1,76,63,0
1,76,0,160
1,74,57,0
1,74,0,320
1,73,68,0
1,73,0,160
1,72,58,0
1,72,0,320
1,71,66,0
1,71,0,160
1,70,57,0
1,70,0,320
1,69,63,0
1,69,0,160
1,65,55,0
1,65,0,420
1,64,50,0
1,64,0,30
1,65,50,0
1,65,0,30
1,64,56,0
1,64,0,160
1,62,54,0
1,62,0,240
1,69,49,480
1,69,0,480
1,71,53,0
1,71,0,480
1,73,57,0
1,73,0,480
1,74,49,0
1,74,0,480
1,73,54,0
1,73,0,480
1,72,53,0
1,72,0,240
1,70,52,0
1,70,0,240
1,69,51,0
1,69,0,240
1,67,57,0
1,67,0,240
1,62,53,0
1,62,0,480
1,74,67,0
1,74,0,480
1,70,63,0
1,70,0,480
1,69,57,0
1,69,0,480
1,67,57,0
1,67,0,480
1,68,56,0
1,68,0,480
1,69,55,0
1,69,0,480
1,64,53,0
1,64,0,240
1,72,69,160
1,72,0,160
1,74,70,0
1,74,0,160
1,76,73,0
1,76,0,160
1,77,70,0
1,77,0,160
1,79,67,0
1,79,0,160
1,72,74,0
1,72,0,960
1,69,71,160
1,69,0,160
1,71,71,0
1,71,0,160
1,73,73,0
1,73,0,160
1,74,70,0
1,74,0,160
1,76,67,0
1,76,0,160
1,69,74,0
1,69,0,960
1,64,71,160
1,64,0,100
1,65,70,60
1,65,0,100
1,67,71,60
1,67,0,100
1,69,70,60
1,69,0,100
1,70,71,60
1,70,0,320
1,70,71,0
1,70,0,160
1,69,67,0
1,69,0,320
1,68,69,0
1,68,0,160
1,67,66,0
1,67,0,320
1,66,68,0
1,66,0,160
1,65,62,0
1,65,0,320
1,63,66,0
1,63,0,160
1,64,61,0
1,53,38,160
1,57,38,0
1,64,0,320
1,61,55,0
1,61,0,160
1,61,55,0
1,61,0,320
1,62,50,0
1,62,0,160
1,57,0,0
1,53,0,0
1,67,58,160
1,67,0,160
1,69,58,0
1,69,0,160
1,70,57,0
1,70,0,160
1,71,60,0
1,71,0,160
1,72,63,0
1,72,0,160
1,77,67,0
1,77,0,320
1,76,63,0
1,76,0,160
1,76,65,0
1,76,0,320
1,74,63,0
1,74,0,160
1,74,64,0
1,64,54,160
1,64,0,160
1,65,54,0
1,65,0,160
1,74,0,0
1,66,56,0
1,72,67,0
1,66,0,160
1,67,56,0
1,67,0,160
1,68,56,0
1,68,0,160
1,70,67,0
1,72,0,160
1,72,56,0
1,72,0,160
1,71,56,0
1,71,0,160
1,70,0,0
1,74,61,0
1,69,45,0
1,74,0,320
1,72,58,0
1,72,0,160
1,69,0,0
1,67,58,160
1,67,0,160
1,69,58,0
1,69,0,160
1,70,57,0
1,70,0,160
1,71,60,0
1,71,0,160
1,72,63,0
1,72,0,160
1,77,67,0
1,77,0,320
1,76,63,0
1,76,0,160
1,76,65,0
1,76,0,320
1,74,63,0
1,74,0,160
1,74,64,0
1,64,54,160
1,64,0,160
1,63,54,0
1,63,0,160
1,74,0,0
1,64,56,0
1,73,67,0
1,64,0,160
1,65,56,0
1,65,0,160
1,64,56,0
1,64,0,160
1,70,67,0
1,73,0,160
1,74,64,0
1,74,0,160
1,73,62,0
1,73,0,160
1,70,0,0
1,69,54,0
1,76,68,0
1,76,0,320
1,74,58,0
1,74,0,160
1,69,0,0
1,77,68,0
1,67,60,160
1,67,0,160
1,66,60,0
1,66,0,160
1,77,0,0
1,67,70,0
1,76,70,0
1,67,0,160
1,69,60,0
1,69,0,160
1,67,60,0
1,67,0,160
1,74,72,0
1,76,0,160
1,77,67,0
1,77,0,160
1,76,67,0
1,76,0,70
1,67,54,60
1,73,63,15
1,74,0,15
1,82,71,0
1,82,0,320
1,81,57,0
1,81,0,160
1,73,0,0
1,67,0,0
1,81,65,160
1,81,0,160
1,80,66,0
1,80,0,160
1,82,70,0
1,82,0,320
1,81,64,0
1,81,0,160
1,81,67,0
1,81,0,160
1,79,59,0
1,79,0,160
1,78,61,0
1,78,0,160
1,81,62,0
1,81,0,320
1,79,63,0
1,79,0,100
1,79,65,220
1,79,0,160
1,78,63,0
1,78,0,160
1,81,67,0
1,81,0,320
1,79,64,0
1,79,0,160
1,79,69,0
1,79,0,160
1,77,66,0
1,77,0,160
1,76,64,0
1,76,0,160
1,79,70,0
1,79,0,320
1,77,62,0
1,77,0,100
1,77,65,220
1,77,0,160
1,76,63,0
1,76,0,160
1,79,70,0
1,79,0,320
1,77,65,0
1,77,0,160
1,77,69,0
1,77,0,160
1,76,66,0
1,76,0,160
1,74,64,0
1,74,0,160
1,77,69,0
1,77,0,160
1,76,67,0
1,76,0,160
1,74,65,0
1,74,0,160
1,67,61,160
1,67,0,160
1,69,62,0
1,69,0,160
1,70,66,0
1,70,0,160
1,77,62,0
1,77,0,160
1,76,58,0
1,76,0,160
1,74,64,0
1,74,0,160
1,73,61,0
1,73,0,160
1,72,59,0
1,72,0,160
1,73,62,0
1,73,0,320
1,69,55,0
1,69,0,160
1,81,55,160
1,81,0,160
1,80,53,0
1,80,0,160
1,82,58,0
1,82,0,320
1,81,54,0
1,81,0,160
1,81,56,0
1,81,0,160
1,79,52,0
1,79,0,160
1,78,50,0
1,78,0,160
1,81,59,0
1,81,0,320
1,79,53,0
1,79,0,100
1,79,55,220
1,79,0,160
1,78,53,0
1,78,0,160
1,81,58,0
1,81,0,320
1,79,53,0
1,79,0,160
1,79,57,0
1,79,0,160
1,77,56,0
1,77,0,160
1,76,54,0
1,76,0,160
1,79,58,0
1,79,0,320
1,77,52,0
1,77,0,100
1,77,55,220
1,77,0,160
1,76,56,0
1,76,0,160
1,79,59,0
1,79,0,320
1,77,56,0
1,77,0,160
1,77,58,0
1,77,0,160
1,76,56,0
1,76,0,160
1,74,54,0
1,74,0,160
1,77,58,0
1,77,0,160
1,76,56,0
1,76,0,160
1,74,55,0
1,74,0,160
1,67,55,160
1,67,0,160
1,69,56,0
1,69,0,160
1,70,59,0
1,70,0,160
1,77,56,0
1,77,0,160
1,76,52,0
1,76,0,160
1,74,57,0
1,74,0,160
1,73,55,0
1,73,0,160
1,72,53,0
1,72,0,160
1,73,56,0
1,73,0,320
1,69,49,0
1,69,0,160
1,62,49,0
1,67,51,160
1,67,0,160
1,66,51,0
1,66,0,160
1,69,54,0
1,69,0,320
1,67,52,0
1,67,0,160
1,62,0,0
1,61,41,0
1,67,49,0
1,67,0,240
1,61,0,0
1,62,49,720
1,67,51,160
1,67,0,160
1,66,51,0
1,66,0,160
1,69,54,0
1,69,0,320
1,67,52,0
1,67,0,160
1,62,0,0
1,61,41,0
1,67,49,0
1,67,0,240
1,61,0,0
1,65,44,4560
1,69,49,0
1,77,53,480
1,69,0,480
1,65,0,0
1,69,49,0
1,67,44,0
1,77,0,480
1,76,54,0
1,67,0,480
1,69,0,0
1,65,36,0
1,69,42,0
1,76,0,240
1,74,52,0
1,74,0,240
1,69,0,0
1,65,0,0
1,68,55,0
1,68,0,240
1,69,52,0
1,69,0,240
1,62,42,0
1,69,42,0
1,74,52,0
1,74,0,720
1,72,50,0
1,72,0,240
1,69,0,0
1,67,47,0
1,70,52,0
1,70,0,480
1,67,0,0
1,62,0,0
1,70,59,0
1,62,49,480
1,60,44,0
1,70,0,480
1,66,57,0
1,60,0,480
1,62,0,0
1,58,36,0
1,62,36,0
1,66,0,240
1,67,57,0
1,67,0,240
1,62,0,0
1,58,0,0
1,64,36,0
1,67,36,0
1,76,62,0
1,76,0,240
1,74,58,0
1,74,0,240
1,67,0,0
1,64,0,0
1,64,36,0
1,67,36,0
1,74,59,0
1,74,0,480
1,73,56,0
1,73,0,480
1,67,0,0
1,64,0,0
1,69,58,160
1,69,0,160
1,71,55,0
1,71,0,160
1,73,61,0
1,73,0,160
1,74,63,0
1,74,0,160
1,76,67,0
1,76,0,160
1,81,68,0
1,81,0,1120
1,69,61,0
1,69,0,160
1,71,58,0
1,71,0,160
1,73,61,0
1,73,0,160
1,74,62,0
1,74,0,160
1,76,65,0
1,76,0,160
1,81,68,0
1,81,0,720
1,74,68,0
1,74,0,240
1,79,70,0
1,79,0,160
1,77,67,0
1,77,0,160
1,76,66,0
1,76,0,100
1,74,62,0
1,74,0,30
1,76,62,0
1,76,0,30
1,74,69,0
1,74,0,160
1,73,64,0
1,73,0,160
1,74,64,0
1,74,0,160
1,77,69,0
1,77,0,640
1,76,63,0
1,76,0,160
1,74,57,0
1,74,0,320
1,73,68,0
1,73,0,160
1,72,58,0
1,72,0,320
1,71,66,0
1,71,0,160
1,70,57,0
1,70,0,320
1,69,63,0
1,69,0,160
1,65,55,0
1,65,0,420
1,64,50,0
1,64,0,30
1,65,50,0
1,65,0,30
1,64,56,0
1,64,0,160
1,62,54,0
1,62,0,240
1,69,49,480
1,69,0,480
1,71,53,0
1,71,0,480
1,73,57,0
1,73,0,480
1,74,49,0
1,74,0,480
1,73,54,0
1,73,0,480
1,72,53,0
1,72,0,240
1,70,52,0
1,70,0,240
1,69,51,0
1,69,0,240
1,67,57,0
1,67,0,240
1,62,53,0
1,62,0,480
1,74,67,0
1,74,0,480
1,70,63,0
1,70,0,480
1,69,57,0
1,69,0,480
1,67,57,0
1,67,0,480
1,68,56,0
1,68,0,480
1,69,55,0
1,69,0,480
1,64,53,0
1,64,0,240
1,72,69,160
1,72,0,160
1,74,70,0
1,74,0,160
1,76,73,0
1,76,0,160
1,77,70,0
1,77,0,160
1,79,67,0
1,79,0,160
1,72,74,0
1,72,0,960
1,69,71,160
1,69,0,160
1,71,71,0
1,71,0,160
1,73,73,0
1,73,0,160
1,74,70,0
1,74,0,160
1,76,67,0
1,76,0,160
1,69,74,0
1,69,0,960
1,64,71,160
1,64,0,100
1,65,70,60
1,65,0,100
1,67,71,60
1,67,0,100
1,69,70,60
1,69,0,100
1,70,71,60
1,70,0,320
1,70,71,0
1,70,0,160
1,69,67,0
1,69,0,320
1,68,69,0
1,68,0,160
1,67,66,0
1,67,0,320
1,66,68,0
1,66,0,160
1,65,62,0
1,65,0,320
1,63,66,0
1,63,0,160
1,64,61,0
1,53,38,160
1,57,38,0
1,64,0,320
1,61,51,0
1,61,0,160
1,61,50,0
1,61,0,320
1,62,45,0
1,62,0,158
1,57,0,2
1,53,0,0
1,64,45,160
1,64,0,160
1,63,46,0
1,63,0,160
1,64,45,0
1,64,0,160
1,65,43,0
1,65,0,160
1,64,43,0
1,53,28,160
1,57,28,0
1,64,0,320
1,61,40,0
1,61,0,160
1,61,45,0
1,61,0,320
1,62,42,0
1,62,0,158
1,57,0,2
1,53,0,0
1,67,45,160
1,67,0,160
1,69,46,0
1,69,0,160
1,70,47,0
1,57,28,480
1,62,28,0
1,70,0,160
1,65,46,0
1,65,0,160
1,67,45,0
1,67,0,160
1,69,49,0
1,69,0,480
1,62,0,0
1,57,0,0
1,64,45,160
1,64,0,160
1,63,46,0
1,63,0,160
1,64,45,0
1,64,0,160
1,65,43,0
1,65,0,160
1,64,43,0
1,53,28,160
1,57,28,0
1,64,0,320
1,61,40,0
1,61,0,160
1,61,45,0
1,61,0,320
1,62,42,0
1,62,0,158
1,57,0,2
1,53,0,0
1,55,40,160
1,57,41,160
1,55,0,20
1,58,42,140
1,57,0,20
1,58,0,620
1,53,41,0
1,55,40,160
1,53,0,20
1,57,44,140
1,55,0,20
1,57,0,460
1,55,40,160
1,57,41,160
1,55,0,20
1,58,42,140
1,57,0,20
1,58,0,620
1,53,41,0
1,55,40,160
1,53,0,20
1,57,44,140
1,55,0,20
1,57,0,780
1,58,36,0
1,58,0,160
1,58,39,0
1,57,36,320
1,58,0,20
1,57,0,140
1,58,39,0
1,57,34,320
1,58,0,20
1,57,0,140
1,58,36,0
1,57,30,320
1,58,0,20
1,57,0,140
1,60,35,0
1,60,0,800
1,58,23,0
1,57,22,160
1,58,0,40
1,57,0,920
2,50,35,0
2,62,39,0
2,57,35,0
2,57,0,960
2,62,0,0
2,50,0,0
2,50,27,0
2,57,31,0
2,61,31,0
2,61,0,667
2,57,0,0
2,50,0,0
2,50,33,0
2,62,36,0
2,57,33,0
2,57,0,389
2,62,0,0
2,50,0,0
2,57,36,480
2,53,40,0
2,53,0,320
2,54,38,0
2,54,0,480
2,57,0,0
2,55,41,0
2,55,0,297
2,45,27,480
2,50,31,0
2,50,0,709
2,45,0,0
2,50,42,0
2,46,36,0
2,58,34,343
2,58,0,480
2,46,0,0
2,50,0,0
2,45,32,0
2,57,36,0
2,52,32,0
2,52,0,754
2,57,0,0
2,45,0,0
2,55,48,0
2,61,37,189
2,57,37,0
2,64,41,0
2,64,0,480
2,55,0,0
2,61,0,0
2,57,0,0
2,53,40,0
2,65,36,354
2,57,33,0
2,62,36,0
2,62,0,480
2,53,0,0
2,65,0,0
2,57,0,0
2,52,49,0
2,67,47,383
2,57,41,0
2,61,41,0
2,61,0,480
2,52,0,0
2,67,0,0
2,57,0,0
2,50,50,0
2,60,37,303
2,57,37,0
2,66,41,0
2,66,0,480
2,50,0,0
2,60,0,0
2,57,0,0
2,43,50,0
2,43,0,429
2,67,41,0
2,58,37,0
2,55,37,0
2,62,37,0
2,62,0,480
2,67,0,0
2,58,0,0
2,55,0,0
2,44,48,0
2,44,0,325
2,62,36,0
2,59,36,0
2,56,36,0
2,65,40,0
2,65,0,480
2,62,0,0
2,59,0,0
2,56,0,0
2,45,49,0
2,45,0,414
2,65,45,0
2,62,39,0
2,57,39,0
2,57,0,395
2,62,0,0
2,65,0,0
2,45,48,0
2,45,0,401
2,61,41,0
2,57,37,0
2,55,37,0
2,55,0,423
2,57,0,0
2,61,0,0
2,53,42,0
2,57,50,0
2,50,40,0
2,65,60,274
2,50,0,480
2,53,0,0
2,57,0,0
2,55,49,0
2,57,55,0
2,65,0,263
2,64,62,0
2,57,0,480
2,55,0,0
2,53,41,0
2,57,47,0
2,64,0,159
2,62,58,0
2,62,0,240
2,57,0,0
2,53,0,0
2,56,61,0
2,57,57,233
2,56,0,10
2,62,62,230
2,54,47,0
2,62,0,621
2,60,55,0
2,60,0,180
2,54,0,0
2,57,0,0
2,43,47,0
2,50,47,30
2,58,57,30
2,58,0,184
2,50,0,240
2,43,0,0
2,58,64,0
2,48,49,480
2,50,55,0
2,58,0,395
2,54,53,0
2,50,0,480
