track,note,velocity,time
3,38,102,5637
3,38,0,96
3,38,85,24
3,38,0,26
3,38,93,34
3,38,0,94
3,38,76,76
3,38,0,14
3,38,93,33
3,38,0,54
3,38,93,25
3,38,0,53
3,38,98,57
3,38,0,31
3,36,89,4
3,33,98,60
3,36,0,6
3,36,89,54
3,33,0,2
3,36,0,52
3,38,98,6
3,38,0,2
3,38,102,24
3,38,0,7
3,38,98,82
3,38,0,43
3,38,93,77
3,26,89,120
3,38,0,4
3,26,0,46
3,38,80,10
3,38,0,31
3,38,102,29
3,36,93,120
3,38,0,18
3,33,98,42
3,36,0,1
3,33,0,105
3,38,93,14
3,38,0,136
3,38,102,44
3,38,0,46
3,38,98,74
3,38,0,61
3,38,98,59
3,38,0,76
3,38,98,44
3,38,0,57
3,38,98,63
3,36,93,120
3,38,0,11
3,36,0,45
3,31,98,4
3,31,0,45
3,36,102,15
3,36,0,44
3,38,93,16
3,38,0,93
3,38,98,27
3,38,0,39
3,38,107,81
3,36,107,60
3,38,0,15
3,36,0,30
3,33,107,15
3,33,0,49
3,38,102,11
3,38,0,55
3,26,119,5
3,26,0,68
3,38,98,412
3,38,0,32
3,38,107,50
3,38,0,41
3,38,93,79
3,38,0,52
3,33,89,5
3,33,0,34
3,38,72,10
3,38,0,26
3,38,93,34
3,38,0,53
3,38,68,36
3,38,0,9
3,38,89,43
3,38,0,27
3,38,76,33
3,38,0,18
3,38,102,42
3,38,0,100
3,33,93,3
3,33,0,46
3,38,93,14
3,38,0,84
3,38,85,9
3,38,0,80
3,38,64,22
3,38,0,21
3,38,76,39
3,38,0,62
3,38,80,42
3,38,0,21
3,38,98,39
3,38,0,18
3,38,98,49
3,38,0,35
3,38,107,51
3,36,98,9
3,38,0,3
3,36,0,52
3,33,102,5
3,38,98,60
3,33,0,6
3,38,0,34
3,38,98,44
3,38,0,52
3,38,93,68
3,36,85,21
3,38,0,7
3,36,0,40
3,33,98,7
3,33,0,51
3,38,89,9
3,38,0,58
3,38,89,11
3,38,0,29
3,38,102,31
3,38,0,60
3,38,93,14
3,38,0,39
3,38,102,21
3,36,93,55
3,38,0,6
3,36,0,15
3,38,93,15
3,38,0,27
3,38,98,13
3,38,0,70
3,38,89,12
3,38,0,33
3,38,93,27
3,38,0,68
3,38,98,22
3,38,0,36
3,38,93,24
3,38,0,92
3,38,93,14
3,38,0,26
3,38,107,34
3,38,0,5
3,38,93,45
3,36,98,60
3,38,0,10
3,36,0,27
3,38,98,15
3,38,0,14
3,31,113,8
3,43,76,10
3,31,0,14
3,31,93,46
3,43,0,5
3,43,72,55
3,31,0,26
3,43,0,0
3,43,102,34
3,43,0,24
3,31,93,7
3,43,80,60
3,31,0,1
3,43,0,6
3,43,98,26
3,43,0,42
3,43,102,33
3,31,98,83
3,43,0,2
3,43,93,36
3,31,0,17
3,38,98,15
3,43,0,8
3,38,0,35
3,33,107,12
3,45,93,120
3,33,0,13
3,33,107,47
3,45,0,6
3,45,93,54
3,33,0,10
3,45,0,27
3,45,107,23
3,45,0,34
3,45,107,34
3,33,107,44
3,45,0,4
3,45,93,26
3,33,0,2
3,45,0,37
3,45,107,21
3,33,119,120
3,45,0,33
3,33,0,17
3,38,98,10
3,38,0,55
3,45,107,5
3,45,0,42
3,26,107,18
3,38,80,60
3,26,0,4
3,26,80,56
3,38,0,11
3,26,0,46
3,38,98,3
3,26,76,60
3,38,0,2
3,26,0,54
3,38,102,4
3,38,0,57
3,26,85,3
3,38,107,60
3,26,0,5
3,38,0,48
3,26,72,7
3,38,93,60
3,26,0,2
3,38,0,56
3,26,93,2
3,26,0,59
3,38,107,1
3,38,0,53
3,26,102,7
3,38,102,60
3,26,0,1
3,26,98,59
3,38,0,15
3,26,0,42
3,38,93,3
3,38,0,52
3,29,102,8
3,41,72,60
3,29,0,11
3,41,0,48
3,29,102,1
3,29,0,54
3,41,107,6
3,29,102,60
3,41,0,2
3,29,0,57
3,41,93,1
3,41,0,55
3,29,93,5
3,41,102,60
3,29,0,6
3,41,0,51
3,29,93,3
3,29,0,57
3,41,98,3
3,29,98,60
3,41,0,2
3,29,0,58
3,41,102,0
3,41,0,59
3,29,93,1
3,29,0,57
3,41,107,3
3,29,98,60
3,41,0,11
3,29,0,48
3,41,102,1
3,41,0,55
3,31,113,5
3,43,93,60
3,31,0,10
3,31,89,50
3,43,0,4
3,31,0,54
3,43,93,2
3,31,93,60
3,43,0,4
3,43,93,56
3,31,0,2
3,31,107,58
3,43,0,6
3,31,0,52
3,43,102,2
3,31,102,60
3,43,0,6
3,31,0,53
3,43,98,1
3,31,107,60
3,43,0,5
3,31,0,47
3,43,98,8
3,31,107,60
3,43,0,6
3,31,0,53
3,43,102,1
3,31,107,60
3,43,0,11
3,31,0,43
3,43,98,6
3,43,0,48
3,26,113,12
3,38,98,60
3,26,0,16
3,38,0,44
3,26,107,0
3,38,107,60
3,26,0,1
3,26,102,59
3,38,0,2
3,26,0,56
3,38,107,2
3,26,102,60
3,38,0,4
3,26,0,56
3,38,107,0
3,26,107,60
3,38,0,13
3,38,102,47
3,26,0,4
3,26,107,56
3,38,0,8
3,26,0,46
3,38,102,6
3,38,0,79
3,38,113,41
3,36,107,60
3,38,0,10
3,36,0,39
3,33,119,11
3,33,0,50
3,26,107,10
3,38,80,60
3,26,0,4
3,26,80,56
3,38,0,11
3,26,0,46
3,38,98,3
3,26,76,60
3,38,0,2
3,26,0,54
3,38,102,4
3,38,0,57
3,26,85,3
3,38,107,60
3,26,0,5
3,38,0,48
3,26,72,7
3,38,93,60
3,26,0,2
3,38,0,56
3,26,93,2
3,26,0,59
3,38,107,1
3,38,0,53
3,26,102,7
3,38,102,60
3,26,0,1
3,26,98,59
3,38,0,15
3,26,0,42
3,38,93,3
3,38,0,52
3,29,102,8
3,41,72,60
3,29,0,11
3,41,0,48
3,29,102,1
3,29,0,54
3,41,107,6
3,29,102,60
3,41,0,2
3,29,0,57
3,41,93,1
3,41,0,55
3,29,93,5
3,41,102,60
3,29,0,6
3,41,0,51
3,29,93,3
3,29,0,57
3,41,98,3
3,29,98,60
3,41,0,2
3,29,0,58
3,41,102,0
3,41,0,59
3,29,93,1
3,29,0,57
3,41,107,3
3,29,98,60
3,41,0,11
3,29,0,48
3,41,102,1
3,41,0,55
3,31,113,5
3,43,93,60
3,31,0,10
3,31,89,50
3,43,0,4
3,31,0,54
3,43,93,2
3,31,93,60
3,43,0,4
3,43,93,56
3,31,0,2
3,31,107,58
3,43,0,6
3,31,0,52
3,43,102,2
3,31,102,60
3,43,0,6
3,31,0,53
3,43,98,1
3,31,107,60
3,43,0,5
3,31,0,47
3,43,98,8
3,31,107,60
3,43,0,6
3,31,0,53
3,43,102,1
3,31,107,60
3,43,0,11
3,31,0,43
3,43,98,6
3,43,0,48
3,38,93,12
3,38,0,93
3,38,98,27
3,38,0,39
3,38,107,81
3,36,107,60
3,38,0,15
3,36,0,30
3,33,107,15
3,33,0,49
3,38,102,11
3,38,0,55
3,26,119,5
3,26,0,68
3,38,98,412
3,38,0,32
3,38,107,50
3,38,0,41
3,38,93,79
3,38,0,52
3,33,89,5
3,33,0,34
3,38,72,10
3,38,0,26
3,38,93,34
3,38,0,53
3,38,68,36
3,38,0,9
3,38,89,43
3,38,0,27
3,38,76,33
3,38,0,18
3,38,102,42
3,38,0,100
3,33,93,3
3,33,0,46
3,38,93,14
3,38,0,84
3,38,85,9
3,38,0,80
3,38,64,22
3,38,0,21
3,38,76,39
3,38,0,62
3,38,80,42
3,38,0,21
3,38,98,39
3,38,0,18
3,38,98,49
3,38,0,35
3,38,107,51
3,36,98,9
3,38,0,3
3,36,0,52
3,33,102,5
3,38,98,60
3,33,0,6
3,38,0,34
3,38,98,44
3,38,0,52
3,38,93,68
3,36,85,21
3,38,0,7
3,36,0,40
3,33,98,7
3,33,0,51
3,38,89,9
3,38,0,58
3,38,89,11
3,38,0,29
3,38,102,31
3,38,0,60
3,38,93,14
3,38,0,39
3,38,102,21
3,36,93,55
3,38,0,6
3,36,0,15
3,38,93,15
3,38,0,27
3,38,98,13
3,38,0,70
3,38,89,12
3,38,0,33
3,38,93,27
3,38,0,68
3,38,98,22
3,38,0,36
3,38,93,24
3,38,0,92
3,38,93,14
3,38,0,26
3,38,107,34
3,38,0,5
3,38,93,45
3,36,98,60
3,38,0,10
3,36,0,27
3,38,98,15
3,38,0,14
3,31,113,8
3,43,76,10
3,31,0,14
3,31,93,46
3,43,0,5
3,43,72,55
3,31,0,26
3,43,0,0
3,43,102,34
3,43,0,24
3,31,93,7
3,43,80,60
3,31,0,1
3,43,0,6
3,43,98,26
3,43,0,42
3,43,102,33
3,31,98,83
3,43,0,2
3,43,93,36
3,31,0,17
3,38,98,15
3,43,0,8
3,38,0,35
3,33,107,12
3,45,93,120
3,33,0,13
3,33,107,47
3,45,0,6
3,45,93,54
3,33,0,10
3,45,0,27
3,45,107,23
3,45,0,34
3,45,107,34
3,33,107,44
3,45,0,4
3,45,93,26
3,33,0,2
3,45,0,37
3,45,107,21
3,33,119,120
3,45,0,33
3,33,0,17
3,38,98,10
3,38,0,55
3,45,107,5
3,45,0,42
3,26,107,18
3,38,80,60
3,26,0,4
3,26,80,56
3,38,0,11
3,26,0,46
3,38,98,3
3,26,76,60
3,38,0,2
3,26,0,54
3,38,102,4
3,38,0,57
3,26,85,3
3,38,107,60
3,26,0,5
3,38,0,48
3,26,72,7
3,38,93,60
3,26,0,2
3,38,0,56
3,26,93,2
3,26,0,59
3,38,107,1
3,38,0,53
3,26,102,7
3,38,102,60
3,26,0,1
3,26,98,59
3,38,0,15
3,26,0,42
3,38,93,3
3,38,0,52
3,29,102,8
3,41,72,60
3,29,0,11
3,41,0,48
3,29,102,1
3,29,0,54
3,41,107,6
3,29,102,60
3,41,0,2
3,29,0,57
3,41,93,1
3,41,0,55
3,29,93,5
3,41,102,60
3,29,0,6
3,41,0,51
3,29,93,3
3,29,0,57
3,41,98,3
3,29,98,60
3,41,0,2
3,29,0,58
3,41,102,0
3,41,0,59
3,29,93,1
3,29,0,57
3,41,107,3
3,29,98,60
3,41,0,11
3,29,0,48
3,41,102,1
3,41,0,55
3,31,113,5
3,43,93,60
3,31,0,10
3,31,89,50
3,43,0,4
3,31,0,54
3,43,93,2
3,31,93,60
3,43,0,4
3,43,93,56
3,31,0,2
3,31,107,58
3,43,0,6
3,31,0,52
3,43,102,2
3,31,102,60
3,43,0,6
3,31,0,53
3,43,98,1
3,31,107,60
3,43,0,5
3,31,0,47
3,43,98,8
3,31,107,60
3,43,0,6
3,31,0,53
3,43,102,1
3,31,107,60
3,43,0,11
3,31,0,43
3,43,98,6
3,43,0,48
3,26,113,12
3,38,98,60
3,26,0,16
3,38,0,44
3,26,107,0
3,38,107,60
3,26,0,1
3,26,102,59
3,38,0,2
3,26,0,56
3,38,107,2
3,26,102,60
3,38,0,4
3,26,0,56
3,38,107,0
3,26,107,60
3,38,0,13
3,38,102,47
3,26,0,4
3,26,107,56
3,38,0,8
3,26,0,46
3,38,102,6
3,38,0,79
3,38,113,41
3,36,107,60
3,38,0,10
3,36,0,39
3,33,119,11
3,33,0,50
3,26,107,10
3,38,80,60
3,26,0,4
3,26,80,56
3,38,0,11
3,26,0,46
3,38,98,3
3,26,76,60
3,38,0,2
3,26,0,54
3,38,102,4
3,38,0,57
3,26,85,3
3,38,107,60
3,26,0,5
3,38,0,48
3,26,72,7
3,38,93,60
3,26,0,2
3,38,0,56
3,26,93,2
3,26,0,59
3,38,107,1
3,38,0,53
3,26,102,7
3,38,102,60
3,26,0,1
3,26,98,59
3,38,0,15
3,26,0,42
3,38,93,3
3,38,0,52
3,29,102,8
3,41,72,60
3,29,0,11
3,41,0,48
3,29,102,1
3,29,0,54
3,41,107,6
3,29,102,60
3,41,0,2
3,29,0,57
3,41,93,1
3,41,0,55
3,29,93,5
3,41,102,60
3,29,0,6
3,41,0,51
3,29,93,3
3,29,0,57
3,41,98,3
3,29,98,60
3,41,0,2
3,29,0,58
3,41,102,0
3,41,0,59
3,29,93,1
3,29,0,57
3,41,107,3
3,29,98,60
3,41,0,11
3,29,0,48
3,41,102,1
3,41,0,55
3,31,113,5
3,43,93,60
3,31,0,10
3,31,89,50
3,43,0,4
3,31,0,54
3,43,93,2
3,31,93,60
3,43,0,4
3,43,93,56
3,31,0,2
3,31,107,58
3,43,0,6
3,31,0,52
3,43,102,2
3,31,102,60
3,43,0,6
3,31,0,53
3,43,98,1
3,31,107,60
3,43,0,5
3,31,0,47
3,43,98,8
3,31,107,60
3,43,0,6
3,31,0,53
3,43,102,1
3,31,107,60
3,43,0,11
3,31,0,43
3,43,98,6
3,43,0,48
3,26,113,12
3,38,98,60
3,26,0,16
3,38,0,44
3,26,107,0
3,38,107,60
3,26,0,1
3,26,102,59
3,38,0,2
3,26,0,56
3,38,107,2
3,26,102,60
3,38,0,4
3,26,0,56
3,38,107,0
3,26,107,60
3,38,0,13
3,38,102,47
3,26,0,4
3,26,107,56
3,38,0,8
3,26,0,46
3,38,102,6
3,38,0,79
3,38,113,41
3,36,107,60
3,38,0,10
3,36,0,39
3,33,119,11
3,33,0,50
3,26,107,10
3,38,80,60
3,26,0,4
3,26,80,56
3,38,0,11
3,26,0,46
3,38,98,3
3,26,76,60
3,38,0,2
3,26,0,54
3,38,102,4
3,38,0,57
3,26,85,3
3,38,107,60
3,26,0,5
3,38,0,48
3,26,72,7
3,38,93,60
3,26,0,2
3,38,0,56
3,26,93,2
3,26,0,59
3,38,107,1
3,38,0,53
3,26,102,7
3,38,102,60
3,26,0,1
3,26,98,59
3,38,0,15
3,26,0,42
3,38,93,3
3,38,0,52
3,29,102,8
3,41,72,60
3,29,0,11
3,41,0,48
3,29,102,1
3,29,0,54
3,41,107,6
3,29,102,60
3,41,0,2
3,29,0,57
3,41,93,1
3,41,0,55
3,29,93,5
3,41,102,60
3,29,0,6
3,41,0,51
3,29,93,3
3,29,0,57
3,41,98,3
3,29,98,60
3,41,0,2
3,29,0,58
3,41,102,0
3,41,0,59
3,29,93,1
3,29,0,57
3,41,107,3
3,29,98,60
3,41,0,11
3,29,0,48
3,41,102,1
3,41,0,55
3,31,113,5
3,43,93,60
3,31,0,10
3,31,89,50
3,43,0,4
3,31,0,54
3,43,93,2
3,31,93,60
3,43,0,4
3,43,93,56
3,31,0,2
3,31,107,58
3,43,0,6
3,31,0,52
3,43,102,2
3,31,102,60
3,43,0,6
3,31,0,53
3,43,98,1
3,31,107,60
3,43,0,5
3,31,0,47
3,43,98,8
3,31,107,60
3,43,0,6
3,31,0,53
3,43,102,1
3,31,107,60
3,43,0,11
3,31,0,43
3,43,98,6
3,43,0,48
3,26,113,12
3,38,98,60
3,26,0,16
3,38,0,44
3,26,107,0
3,38,107,60
3,26,0,1
3,26,102,59
3,38,0,2
3,26,0,56
3,38,107,2
3,26,102,60
3,38,0,4
3,26,0,56
3,38,107,0
3,26,107,60
3,38,0,13
3,38,102,47
3,26,0,4
3,26,107,56
3,38,0,8
3,26,0,46
3,38,102,6
3,38,0,79
3,38,113,41
3,36,107,60
3,38,0,10
3,36,0,39
3,33,119,11
3,33,0,50
3,36,102,10
3,36,0,101
3,36,89,19
3,36,0,45
3,36,93,30
3,36,0,95
3,36,98,25
3,36,0,88
3,36,93,32
3,36,0,93
3,36,98,27
3,36,0,86
3,36,102,34
3,36,0,86
3,36,113,34
3,36,0,30
3,36,119,30
3,36,0,86
3,38,102,34
3,38,0,31
3,38,113,29
3,38,0,70
3,38,127,50
3,38,0,79
3,36,119,641
3,36,0,111
3,36,93,19
3,36,0,4
3,36,98,36
3,36,0,107
3,33,107,13
3,33,0,74
3,33,93,22
3,33,0,49
3,33,93,8
3,33,0,29
3,33,98,23
3,33,0,97
3,33,102,23
3,33,0,93
3,33,102,27
3,33,0,89
3,33,102,31
3,33,0,93
3,33,102,27
3,33,0,13
3,33,102,28
3,33,0,37
