track,note,velocity,time
1,68,79,8760
1,68,79,40
1,69,79,40
1,71,79,40
1,73,79,40
1,75,79,0
1,73,79,80
1,71,79,40
1,69,79,40
1,68,79,40
1,69,79,0
1,69,79,20
1,71,79,0
1,73,79,2200
1,73,79,45
1,73,79,45
1,75,79,45
1,73,79,0
1,71,79,0
1,71,79,40
1,71,79,280
1,68,79,20
1,71,79,20
1,68,79,20
1,71,79,40
1,71,79,20
1,68,79,20
1,66,79,0
1,64,79,0
1,68,79,2080
1,69,79,40
1,71,79,40
1,73,79,40
1,75,79,0
1,73,79,200
1,71,79,20
1,69,79,40
1,68,79,20
1,69,79,40
1,69,79,40
1,71,79,0
1,73,79,2080
1,73,79,45
1,73,79,45
1,75,79,45
1,73,79,0
1,71,79,0
1,71,79,40
1,73,79,280
1,71,79,20
1,71,79,20
1,68,79,40
1,71,79,40
1,71,79,20
1,68,79,20
1,66,79,0
1,64,79,0
1,73,79,2080
1,75,79,40
1,76,79,40
1,73,79,40
1,75,79,0
1,73,79,0
1,73,79,40
1,68,79,1000
1,73,79,40
1,75,79,40
1,76,79,20
1,73,79,0
1,73,79,40
1,73,79,1280
1,75,79,40
1,76,79,40
1,73,79,40
1,75,79,40
1,73,79,0
1,73,79,40
1,61,95,1000
1,69,95,20
1,71,95,0
1,68,95,60
1,71,95,20
1,71,95,60
1,68,95,0
1,66,95,0
1,68,95,1000
1,68,95,40
1,69,95,55
1,71,95,55
1,73,95,55
1,75,95,0
1,73,95,0
1,73,95,40
1,71,95,0
1,69,95,55
1,68,95,55
1,69,95,55
1,69,95,80
1,71,95,40
1,68,95,0
1,66,95,0
1,73,79,1760
1,73,79,40
1,73,79,40
1,75,79,40
1,73,79,0
1,71,79,0
1,71,79,40
1,68,79,280
1,71,79,40
1,66,79,40
1,68,79,0
1,68,79,20
1,68,79,40
1,66,79,0
1,64,79,0
1,68,79,2080
1,68,79,40
1,69,79,55
1,71,79,55
1,78,79,55
1,76,79,0
1,76,79,40
1,71,79,40
1,69,79,40
1,68,79,40
1,69,79,40
1,69,79,80
1,71,79,40
1,68,79,0
1,66,79,0
1,68,79,760
1,71,79,85
1,73,79,325
1,75,79,80
1,73,79,0
1,71,79,0
1,69,79,40
1,71,79,0
1,68,79,40
1,71,79,40
1,71,79,120
1,68,79,40
1,66,79,0
1,64,79,0
1,73,79,2200
1,75,79,40
1,76,79,40
1,73,79,40
1,75,79,0
1,73,79,0
1,73,79,40
1,68,79,1000
1,73,79,40
1,75,79,40
1,76,79,20
1,73,79,0
1,73,79,40
1,73,79,1280
1,75,79,40
1,76,79,40
1,75,79,40
1,73,79,0
1,73,79,40
1,73,95,920
1,73,95,40
1,75,95,55
1,76,95,55
1,78,95,55
1,80,95,0
1,78,95,0
1,76,95,0
1,78,95,0
1,76,95,0
1,71,79,7565
1,71,79,40
1,73,79,55
1,75,79,55
1,75,79,55
1,75,79,320
1,76,79,55
1,78,79,55
1,76,79,55
1,78,79,0
1,76,79,0
1,76,79,40
1,71,79,1640
1,71,79,40
1,73,79,55
1,75,79,55
1,75,79,55
1,71,79,200
1,81,79,40
1,80,79,55
1,78,79,55
1,78,79,55
1,76,79,0
1,76,79,40
1,68,79,200
1,75,79,40
1,73,79,0
1,73,79,40
1,72,95,320
1,71,95,0
1,71,111,40
1,69,111,0
1,69,111,40
1,76,95,80
1,78,95,0
1,78,95,40
1,71,79,600
1,71,79,40
1,72,79,55
1,74,79,55
1,76,79,55
1,78,79,0
1,76,79,0
1,76,79,40
1,74,79,40
1,72,79,80
1,71,79,20
1,72,79,20
1,71,79,0
1,69,79,0
1,69,79,40
1,67,79,1960
1,67,79,20
1,76,79,20
1,76,79,40
1,76,79,40
1,74,79,40
1,78,79,40
1,76,79,0
1,74,79,0
1,74,79,40
1,76,79,160
1,72,79,40
1,74,79,0
1,74,79,20
1,71,79,20
1,69,79,0
1,67,79,0
1,79,79,1880
1,79,79,40
1,78,79,40
1,76,79,40
1,78,79,40
1,76,79,0
1,74,79,0
1,71,79,200
1,74,79,40
1,76,79,40
1,71,79,40
1,71,79,40
1,72,79,20
1,71,79,0
1,69,79,0
1,69,79,40
1,71,79,1280
1,74,79,55
1,76,79,55
1,76,79,55
1,76,79,55
1,76,79,55
1,74,79,55
1,74,79,55
1,69,79,100
1,71,79,0
1,74,79,55
1,74,79,55
1,69,79,100
1,71,79,0
1,69,79,15
1,71,79,40
1,71,79,55
1,71,79,55
1,69,79,0
1,67,79,0
1,76,79,2000
1,78,79,55
1,79,79,55
1,78,79,55
1,76,79,0
1,76,79,40
1,71,79,920
1,71,79,20
1,76,79,20
1,78,79,55
1,79,79,55
1,76,79,55
1,76,79,1280
1,78,79,45
1,79,79,45
1,76,79,45
1,78,79,45
1,76,79,0
1,76,79,40
1,71,79,200
1,69,79,0
1,67,79,0
1,67,79,40
1,64,79,200
1,76,79,40
1,78,79,60
1,79,79,40
1,78,79,0
1,78,79,20
1,71,95,200
1,78,95,40
1,80,95,60
1,81,95,40
1,80,95,0
1,80,95,20
1,78,95,570
1,80,95,0
1,78,95,150
1,80,95,0
1,78,95,0
1,80,95,0
1,78,95,0
1,75,95,0
1,76,95,425
1,78,95,0
1,76,95,20
1,73,95,40
1,71,95,0
1,69,95,0
1,75,95,800
1,75,95,40
1,75,95,40
1,76,95,55
1,78,95,55
1,76,95,55
1,75,95,0
1,73,95,0
1,75,95,0
1,73,95,0
1,75,95,485
1,75,95,40
1,75,95,40
1,75,95,40
1,75,95,40
1,76,95,40
1,78,95,20
1,76,95,0
1,76,95,40
1,75,95,0
1,73,95,0
1,75,95,0
1,73,95,0
1,72,95,0
1,76,95,1605
1,75,95,40
1,75,95,40
1,73,95,40
1,73,95,40
1,71,95,40
1,68,95,40
1,71,95,40
1,73,95,40
1,68,95,40
1,68,95,40
1,68,95,40
1,76,95,2085
1,75,95,40
1,75,95,40
1,73,95,40
1,73,95,40
1,71,95,40
1,68,95,40
1,71,95,40
1,73,95,40
1,68,95,40
1,68,95,40
1,68,95,40
1,76,95,2085
1,75,95,40
1,75,95,40
1,73,95,40
1,73,95,40
1,71,95,40
1,76,111,1120
1,78,111,0
1,76,111,40
1,78,111,40
1,73,111,40
1,76,111,40
1,73,111,40
1,71,111,40
1,83,111,80
1,83,95,0
1,80,95,0
1,78,95,0
1,76,95,0
1,75,95,0
1,76,95,0
1,75,95,0
1,71,95,0
1,73,95,0
1,76,95,2565
1,75,95,40
1,75,95,40
1,73,95,40
1,73,95,40
1,71,95,40
1,78,95,1240
1,76,95,40
1,76,95,40
1,76,95,40
1,73,95,40
1,71,95,40
1,66,111,0
1,68,111,0
1,71,111,0
1,73,111,0
1,68,111,0
1,71,111,0
1,73,111,0
1,76,111,0
1,73,111,0
1,71,111,0
1,68,111,0
1,66,111,0
1,71,111,0
1,68,111,0
1,71,111,30
2,76,79,24240
2,78,79,40
2,80,79,40
2,76,79,40
2,78,79,0
2,76,79,0
2,76,79,80
2,73,79,1000
2,76,79,40
2,78,79,40
2,80,79,20
2,76,79,0
2,76,79,40
2,76,79,1280
2,78,79,40
2,80,79,40
2,76,79,40
2,78,79,40
2,76,79,0
2,76,79,40
2,81,79,640
2,73,79,0
2,76,79,0
2,78,79,0
2,75,79,0
2,71,79,0
2,76,79,0
2,68,79,0
2,71,79,0
2,71,79,0
2,71,79,40
2,73,79,55
2,75,79,55
2,76,79,0
2,78,79,0
2,76,79,0
2,76,79,40
2,75,79,40
2,73,79,5
2,71,79,55
2,73,79,55
2,73,79,80
2,75,79,40
2,73,79,0
2,71,79,0
2,71,79,5480
2,71,79,40
2,73,79,55
2,75,79,55
2,81,79,55
2,80,79,0
2,80,79,40
2,76,79,40
2,73,79,40
2,71,79,40
2,73,79,40
2,73,79,80
2,75,79,40
2,73,79,0
2,71,79,0
2,76,79,1480
2,73,79,0
2,69,79,0
2,81,79,0
2,78,79,80
2,75,79,0
2,71,79,0
2,83,79,0
2,76,79,0
2,73,79,0
2,69,79,0
2,81,79,0
2,75,79,0
2,71,79,0
2,66,79,0
2,78,79,0
2,73,79,40
2,69,79,0
2,66,79,0
2,78,79,0
2,68,79,0
2,71,79,0
2,75,79,0
2,80,79,0
2,71,79,40
2,68,79,0
2,63,79,0
2,75,79,0
2,75,79,40
2,71,79,0
2,68,79,0
2,80,79,0
2,75,79,120
2,71,79,0
2,68,79,0
2,80,79,0
2,71,79,40
2,68,79,0
2,64,79,0
2,76,79,0
2,80,111,1400
2,78,111,0
2,76,79,400
2,78,79,40
2,80,79,40
2,76,79,40
2,78,79,0
2,76,79,0
2,76,79,40
2,68,79,1000
2,73,79,0
2,73,79,40
2,76,79,0
2,70,79,40
2,78,79,0
2,71,79,20
2,80,79,0
2,78,79,0
2,70,79,40
2,76,79,0
2,76,79,1280
2,78,79,40
2,80,79,40
2,78,79,40
2,76,79,0
2,76,79,40
2,81,63,560
2,66,63,0
2,69,63,0
2,73,63,0
2,76,63,0
2,76,95,0
2,76,95,40
2,78,95,55
2,80,95,55
2,63,79,0
2,69,79,0
2,71,79,0
2,75,79,0
2,78,79,0
2,81,95,0
2,83,95,0
2,81,95,0
2,80,95,0
2,81,95,0
2,80,95,0
2,71,79,0
2,68,79,0
2,64,79,0
2,75,79,7565
2,75,79,40
2,76,79,55
2,78,79,55
2,78,79,55
2,78,79,320
2,80,79,55
2,81,79,55
2,80,79,55
2,81,79,0
2,80,79,0
2,80,79,40
2,66,79,1640
2,75,79,0
2,66,79,40
2,75,79,0
2,71,79,55
2,76,79,0
2,71,79,55
2,78,79,0
2,71,79,55
2,78,79,0
2,66,79,200
2,75,79,0
2,78,79,40
2,85,79,0
2,76,79,55
2,83,79,0
2,75,79,55
2,81,79,0
2,75,79,55
2,81,79,0
2,73,79,0
2,80,79,0
2,73,79,40
2,80,79,0
2,68,79,200
2,80,79,0
2,71,79,40
2,78,79,0
2,70,79,0
2,76,79,0
2,70,79,40
2,76,79,0
2,76,79,320
2,79,79,0
2,74,79,0
2,78,79,0
2,74,79,40
2,78,79,0
2,72,79,0
2,76,79,0
2,72,79,40
2,76,79,0
2,79,79,80
2,72,79,0
2,84,79,0
2,81,79,120
2,74,79,0
2,86,79,0
2,81,79,40
2,74,79,0
2,86,79,0
2,86,79,120
2,74,79,0
2,79,79,0
2,83,79,0
2,83,79,6605
2,83,79,40
2,81,79,40
2,79,79,40
2,81,79,40
2,79,79,0
2,78,79,0
2,74,79,2400
2,66,79,0
2,78,79,0
2,78,79,55
2,71,79,0
2,83,79,0
2,79,63,55
2,72,63,0
2,84,63,0
2,79,63,55
2,72,63,0
2,84,63,0
2,79,63,55
2,72,63,0
2,84,63,0
2,79,63,55
2,72,63,0
2,84,63,0
2,78,63,55
2,69,63,0
2,81,63,0
2,78,63,55
2,69,63,0
2,81,63,0
2,74,63,55
2,66,63,0
2,78,63,0
2,78,63,55
2,69,63,0
2,81,63,0
2,78,63,55
2,69,63,0
2,81,63,0
2,74,63,55
2,66,63,0
2,78,63,0
2,74,63,55
2,66,63,0
2,78,63,0
2,74,63,55
2,66,63,0
2,78,63,0
2,74,79,55
2,66,79,0
2,78,79,0
2,72,79,0
2,64,79,0
2,76,79,0
2,62,79,0
2,71,79,0
2,74,79,0
2,79,79,2000
2,81,79,55
2,83,79,55
2,81,79,55
2,79,79,0
2,79,79,40
2,71,79,920
2,76,79,0
2,71,79,20
2,76,79,0
2,71,79,20
2,79,79,0
2,73,79,55
2,81,79,0
2,74,79,55
2,83,79,0
2,73,79,55
2,79,79,0
2,79,79,1280
2,81,79,40
2,83,79,40
2,79,79,40
2,81,79,40
2,79,79,0
2,79,79,40
2,84,79,560
2,72,79,0
2,76,79,0
2,79,79,0
2,79,79,0
2,81,79,60
2,83,79,40
2,81,79,0
2,71,79,0
2,78,79,0
2,75,79,0
2,81,79,0
2,83,79,0
2,83,79,0
2,75,79,0
2,81,79,40
2,83,79,60
2,85,79,40
2,83,79,0
2,71,79,0
2,76,79,0
2,80,79,0
2,83,79,0
2,83,79,0
2,81,79,569
2,83,79,0
2,83,79,0
2,81,79,30
2,83,79,0
2,78,79,120
2,83,79,0
2,78,79,0
2,75,79,0
2,71,79,0
2,83,79,0
2,80,79,29
2,78,79,0
2,76,79,245
2,73,79,0
2,69,79,0
2,81,79,0
2,83,79,0
2,78,79,0
2,75,79,0
2,71,79,0
2,73,79,0
2,69,79,0
2,64,79,0
2,76,79,0
2,78,79,725
2,78,79,40
2,78,79,40
2,80,79,55
2,81,79,55
2,83,79,55
2,71,79,0
2,76,79,0
2,80,79,0
2,80,79,0
2,78,79,0
2,78,79,0
2,75,79,0
2,71,79,0
2,83,79,0
2,76,79,245
2,76,79,0
2,73,79,0
2,69,79,0
2,81,79,0
2,83,79,0
2,78,79,0
2,78,79,0
2,75,79,0
2,71,79,0
2,76,79,0
2,73,79,0
2,69,79,0
2,64,79,0
2,76,79,0
2,78,79,485
2,78,79,40
2,78,79,40
2,78,79,40
2,78,79,40
2,80,79,40
2,81,79,20
2,80,79,0
2,83,79,40
2,71,79,0
2,76,79,0
2,80,79,0
2,80,79,0
2,78,79,0
2,78,79,0
2,75,79,0
2,71,79,0
2,83,79,0
2,76,79,245
2,76,79,0
2,73,79,0
2,69,79,0
2,81,79,0
2,83,79,0
2,78,79,0
2,78,79,0
2,75,79,0
2,71,79,0
2,64,79,0
2,69,79,0
2,73,79,0
2,76,79,0
2,76,79,0
2,76,79,0
2,72,79,0
2,69,79,0
2,64,79,0
2,76,79,0
2,81,79,485
2,78,79,0
2,85,79,0
2,80,79,0
2,76,79,0
2,83,79,0
2,80,79,0
2,76,79,0
2,83,79,0
2,78,79,1125
2,75,79,0
2,81,79,0
2,80,79,0
2,76,79,0
2,83,79,0
2,76,79,0
2,73,79,0
2,80,79,0
2,76,79,0
2,73,79,0
2,80,79,0
2,81,79,1125
2,78,79,0
2,85,79,0
2,76,79,0
2,80,79,0
2,83,79,0
2,80,79,0
2,76,79,0
2,83,79,0
2,80,79,165
2,78,79,40
2,78,79,40
2,76,79,40
2,78,79,40
2,76,79,40
2,71,79,40
2,75,79,40
2,76,79,40
2,78,79,0
2,75,79,0
2,81,79,0
2,71,79,40
2,80,79,0
2,76,79,0
2,83,79,0
2,71,79,0
2,76,79,0
2,73,79,0
2,80,79,0
2,71,79,0
2,76,79,0
2,73,79,0
2,80,79,0
2,73,79,885
2,71,79,0
2,76,79,0
2,75,79,40
2,71,79,0
2,78,79,0
2,76,79,40
2,73,79,0
2,80,79,0
2,71,79,40
2,68,79,0
2,76,79,0
2,71,79,40
2,68,79,0
2,76,79,0
2,71,79,40
2,68,79,0
2,76,79,0
2,73,79,1040
2,71,79,0
2,76,79,0
2,75,79,40
2,71,79,0
2,78,79,0
2,76,79,40
2,73,79,0
2,80,79,0
2,71,79,40
2,68,79,0
2,76,79,0
2,73,79,0
2,73,79,40
2,68,79,0
2,76,79,0
2,73,79,40
2,68,79,0
2,76,79,0
2,73,79,1040
2,71,79,0
2,76,79,0
2,75,79,40
2,71,79,0
2,78,79,0
2,76,79,40
2,73,79,0
2,80,79,0
2,71,79,40
2,68,79,0
2,76,79,0
2,71,79,40
2,68,79,0
2,76,79,0
2,71,79,40
2,68,79,0
2,76,79,0
2,73,79,1040
2,71,79,0
2,76,79,0
2,75,79,40
2,71,79,0
2,78,79,0
2,76,79,40
2,73,79,0
2,80,79,0
2,71,79,40
2,68,79,0
2,76,79,0
2,73,79,0
2,73,79,40
2,68,79,0
2,76,79,0
2,73,79,40
2,68,79,0
2,76,79,0
2,73,79,1040
2,71,79,0
2,76,79,0
2,75,79,40
2,71,79,0
2,78,79,0
2,76,79,40
2,73,79,0
2,80,79,0
2,71,79,40
2,68,79,0
2,76,79,0
2,71,79,40
2,68,79,0
2,76,79,0
2,71,79,40
2,68,79,0
2,76,79,0
2,73,79,1040
2,71,79,0
2,76,79,0
2,75,79,40
2,71,79,0
2,78,79,0
2,76,79,40
2,73,79,0
2,80,79,0
2,71,79,40
2,68,79,0
2,76,79,0
