track,note,velocity,time
1,57,100,0
1,59,100,0
1,64,100,0
1,59,100,0
1,57,100,0
1,59,100,0
1,64,100,0
1,57,100,0
1,59,100,0
1,64,100,0
1,59,100,0
1,57,100,0
1,59,100,0
1,64,100,0
1,57,100,0
1,59,100,0
1,64,100,0
1,59,100,0
1,57,100,0
1,59,100,0
1,64,100,0
1,57,100,0
1,59,100,0
1,64,100,0
1,59,100,0
1,57,100,0
1,59,100,0
1,64,100,0
1,57,100,0
1,59,100,0
1,64,100,0
1,59,100,0
1,57,100,0
1,59,100,0
1,64,100,0
1,57,100,0
1,59,100,0
1,64,100,0
1,59,100,0
1,57,100,0
1,59,100,0
1,64,100,0
1,57,100,0
1,59,100,0
1,64,100,0
1,59,100,0
1,57,100,0
1,59,100,0
1,64,100,0
1,57,100,0
1,59,100,0
1,64,100,0
1,59,100,0
1,57,100,0
1,59,100,0
1,64,100,0
1,57,100,0
1,59,100,0
1,64,100,0
1,59,100,0
1,57,100,0
1,59,100,0
1,64,100,0
1,57,100,0
1,59,100,0
1,64,100,0
1,59,100,0
1,57,100,0
1,59,100,0
1,64,100,0
1,57,100,0
1,59,100,0
1,64,100,0
1,59,100,0
1,57,100,0
1,59,100,0
1,64,100,0
1,57,100,0
1,59,100,0
1,64,100,0
1,59,100,0
1,57,100,0
1,59,100,0
1,64,100,0
1,57,100,0
1,59,100,0
1,64,100,0
1,59,100,0
1,57,100,0
1,59,100,0
1,64,100,0
1,57,100,0
1,59,100,0
1,64,100,0
1,59,100,0
1,57,100,0
1,59,100,0
1,64,100,0
1,57,100,0
1,59,100,0
1,64,100,0
1,59,100,0
1,57,100,0
1,59,100,0
1,64,100,0
1,57,100,0
1,59,100,0
1,64,100,0
1,59,100,0
1,57,100,0
1,59,100,0
1,64,100,0
1,57,100,0
1,59,100,0
1,64,100,0
1,59,100,0
1,57,100,0
1,59,100,0
1,64,100,0
1,57,100,0
1,59,100,0
1,64,100,0
1,59,100,0
1,57,100,0
1,59,100,0
1,64,100,0
1,57,100,0
1,59,100,0
1,64,100,0
1,59,100,0
1,57,100,0
1,59,100,0
1,64,100,0
1,57,100,0
1,59,100,0
1,64,100,0
1,59,100,0
1,57,100,0
1,59,100,0
1,64,100,0
1,57,100,0
1,59,100,0
1,64,100,0
1,59,100,0
1,57,100,0
1,59,100,0
1,64,100,0
1,57,100,0
1,59,100,0
1,64,100,0
1,59,100,0
1,57,100,0
1,59,100,0
1,64,100,0
1,57,100,0
1,59,100,0
1,64,100,0
1,59,100,0
1,57,100,0
1,59,100,0
1,64,100,0
1,57,100,0
1,59,100,0
1,64,100,0
1,59,100,0
1,57,100,0
1,59,100,0
1,64,100,0
1,57,100,0
1,59,100,0
1,64,100,0
1,59,100,0
1,57,100,0
1,59,100,0
1,64,100,0
1,57,100,0
1,59,100,0
1,64,100,0
1,59,100,0
1,57,100,0
1,59,100,0
1,64,100,0
1,57,100,0
1,59,100,0
1,64,100,0
1,59,100,0
1,57,100,0
1,59,100,0
1,64,100,0
1,57,100,0
1,59,100,0
1,64,100,0
1,59,100,0
1,57,100,0
1,59,100,0
1,64,100,0
1,57,100,0
1,59,100,0
1,64,100,0
1,59,100,0
1,57,100,0
1,59,100,0
1,64,100,0
1,57,100,0
1,59,100,0
1,64,100,0
1,59,100,0
1,57,100,0
1,59,100,0
1,64,100,0
1,57,100,0
1,59,100,0
1,64,100,0
1,59,100,0
1,57,100,0
1,59,100,0
1,64,100,0
1,57,100,0
1,59,100,0
1,64,100,0
1,59,100,0
1,57,100,0
1,59,100,0
1,64,100,0
1,57,100,0
1,59,100,0
1,64,100,0
1,59,100,0
1,57,100,0
1,59,100,0
1,64,100,0
1,57,100,0
1,59,100,0
1,64,100,0
1,59,100,0
1,57,100,0
1,59,100,0
1,64,100,0
1,57,100,0
1,59,100,0
1,64,100,0
1,59,100,0
1,57,100,0
1,59,100,0
1,64,100,0
1,57,100,0
1,59,100,0
1,64,100,0
1,59,100,0
1,57,100,0
1,59,100,0
1,64,100,0
1,57,100,0
1,59,100,0
1,64,100,0
1,59,100,0
1,57,100,0
1,59,100,0
1,64,100,0
1,57,100,0
1,59,100,0
1,64,100,0
1,59,100,0
1,57,100,0
1,59,100,0
1,64,100,0
1,57,100,0
1,59,100,0
1,64,100,0
1,59,100,0
1,57,100,0
1,59,100,0
1,64,100,0
1,57,100,0
1,59,100,0
1,64,100,0
1,59,100,0
1,57,100,0
1,59,100,0
1,64,100,0
1,57,100,0
1,62,100,0
1,66,100,0
1,62,100,0
1,57,100,0
1,62,100,0
1,66,100,0
1,57,100,0
1,66,100,0
1,62,100,0
1,57,100,0
1,62,100,0
1,66,100,0
1,57,100,0
1,66,100,0
1,61,100,0
1,57,100,0
1,61,100,0
1,66,100,0
1,57,100,1
1,66,100,0
1,61,100,0
1,57,100,0
1,61,100,0
1,66,100,0
1,57,100,191
1,66,100,0
1,62,100,0
1,57,100,3
1,62,100,93
1,66,100,3
1,57,100,1
1,66,100,0
1,62,100,0
1,57,100,0
1,62,100,0
1,66,100,0
1,56,100,188
1,59,100,0
1,64,100,0
1,56,100,0
1,59,100,0
1,64,100,0
1,56,100,0
1,59,100,0
1,64,100,0
1,57,100,0
1,59,100,0
1,64,100,0
1,59,100,0
1,57,100,0
1,59,100,0
1,64,100,0
1,57,100,0
1,59,100,0
1,64,100,0
1,59,100,0
1,57,100,0
1,59,100,0
1,64,100,0
1,57,100,0
1,59,100,0
1,64,100,0
1,59,100,0
1,57,100,0
1,59,100,0
1,64,100,0
1,57,100,0
1,59,100,0
1,64,100,0
1,59,100,0
1,57,100,0
1,59,100,0
1,64,100,0
1,57,100,0
1,59,100,0
1,64,100,0
1,59,100,0
1,57,100,0
1,59,100,0
1,64,100,0
1,57,100,0
1,59,100,0
1,64,100,0
1,59,100,0
1,57,100,0
1,59,100,0
1,64,100,0
1,57,100,0
1,59,100,0
1,64,100,0
1,59,100,0
1,57,100,0
1,59,100,0
1,64,100,0
1,57,100,0
1,59,100,0
1,64,100,0
1,59,100,0
1,57,100,0
1,59,100,0
1,64,100,0
1,57,100,0
1,59,100,0
1,64,100,0
1,59,100,0
1,57,100,0
1,59,100,0
1,64,100,0
1,57,100,0
1,59,100,0
1,64,100,0
1,59,100,0
1,57,100,0
1,59,100,0
1,64,100,0
1,57,100,0
1,59,100,0
1,64,100,0
1,59,100,0
1,57,100,0
1,59,100,0
1,64,100,0
1,57,100,0
1,59,100,0
1,64,100,0
1,59,100,0
1,57,100,0
1,59,100,0
1,64,100,0
1,57,100,0
1,59,100,0
1,64,100,0
1,59,100,0
1,57,100,0
1,59,100,0
1,64,100,0
1,57,100,0
1,59,100,0
1,64,100,0
1,59,100,0
1,57,100,0
1,59,100,0
1,64,100,0
1,57,100,0
1,59,100,0
1,64,100,0
1,59,100,0
1,57,100,0
1,59,100,0
1,64,100,0
1,57,100,0
1,59,100,0
1,64,100,0
1,59,100,0
1,57,100,0
1,59,100,0
1,64,100,0
1,57,100,0
1,62,100,0
1,66,100,0
1,62,100,0
1,57,100,0
1,62,100,0
1,66,100,0
1,57,100,0
1,66,100,0
1,62,100,0
1,57,100,0
1,62,100,0
1,66,100,0
1,57,100,0
1,66,100,0
1,61,100,0
1,57,100,0
1,61,100,0
1,66,100,0
1,57,100,1
1,66,100,0
1,61,100,0
1,57,100,0
1,61,100,0
1,66,100,0
1,57,100,191
1,66,100,0
1,62,100,0
1,57,100,3
1,62,100,93
1,66,100,3
1,57,100,1
1,66,100,0
1,62,100,0
1,57,100,0
1,62,100,0
1,66,100,0
1,56,100,188
1,59,100,0
1,64,100,0
1,56,100,0
1,59,100,0
1,64,100,0
1,56,100,0
1,59,100,0
1,64,100,0
1,57,100,0
1,59,100,0
1,64,100,0
1,59,100,0
1,57,100,0
1,59,100,0
1,64,100,0
1,57,100,0
1,59,100,0
1,64,100,0
1,59,100,0
1,57,100,0
1,59,100,0
1,64,100,0
1,57,100,0
1,59,100,0
1,64,100,0
1,59,100,0
1,57,100,0
1,59,100,0
1,64,100,0
1,57,100,0
1,59,100,0
1,64,100,0
1,59,100,0
1,57,100,0
1,59,100,0
1,64,100,0
1,57,100,0
1,59,100,0
1,64,100,0
1,59,100,0
1,57,100,0
1,59,100,0
1,64,100,0
1,57,100,0
1,59,100,0
1,64,100,0
1,59,100,0
1,57,100,0
1,59,100,0
1,64,100,0
1,57,100,0
1,59,100,0
1,64,100,0
1,59,100,0
1,57,100,0
1,59,100,0
1,64,100,0
1,57,100,0
1,59,100,0
1,64,100,0
1,59,100,0
1,57,100,0
1,59,100,0
1,64,100,0
1,57,100,0
1,59,100,0
1,64,100,0
1,59,100,0
1,57,100,0
1,59,100,0
1,64,100,0
1,57,100,0
1,59,100,0
1,64,100,0
1,59,100,0
1,57,100,0
1,59,100,0
1,64,100,0
1,57,100,0
1,59,100,0
1,64,100,0
1,59,100,0
1,57,100,0
1,59,100,0
1,64,100,0
1,57,100,0
1,59,100,0
1,64,100,0
1,59,100,0
1,57,100,0
1,59,100,0
1,64,100,0
1,57,100,0
1,59,100,0
1,64,100,0
1,59,100,0
1,57,100,0
1,59,100,0
1,64,100,0
1,57,100,0
1,59,100,0
1,64,100,0
1,59,100,0
1,57,100,0
1,59,100,0
1,64,100,0
1,57,100,0
1,59,100,0
1,64,100,0
1,59,100,0
1,57,100,0
1,59,100,0
1,64,100,0
1,57,100,0
1,59,100,0
1,64,100,0
1,59,100,0
1,57,100,0
1,59,100,0
1,64,100,0
1,57,100,0
1,59,100,0
1,64,100,0
1,59,100,0
1,57,100,0
1,59,100,0
1,64,100,0
1,57,100,0
1,59,100,0
1,64,100,0
1,59,100,0
1,57,100,0
1,59,100,0
1,64,100,0
1,57,100,0
1,59,100,0
1,64,100,0
1,59,100,0
1,57,100,0
1,59,100,0
1,64,100,0
1,57,100,0
1,59,100,0
1,64,100,0
1,59,100,0
1,57,100,0
1,59,100,0
1,64,100,0
1,57,100,0
1,59,100,0
1,64,100,0
1,59,100,0
1,57,100,0
1,59,100,0
1,64,100,0
1,57,100,768
1,59,100,0
1,64,100,0
1,59,100,0
1,57,100,0
1,59,100,0
1,64,100,0
1,57,100,0
1,59,100,0
1,64,100,0
1,59,100,0
1,57,100,0
1,59,100,0
1,64,100,0
1,57,100,0
1,59,100,0
1,64,100,0
1,59,100,0
1,57,100,0
1,59,100,0
1,64,100,0
1,57,100,0
1,59,100,8
1,61,100,8
1,64,100,8
2,45,90,0
2,45,90,0
2,37,100,0
2,40,100,0
2,42,100,0
2,42,100,0
2,42,100,0
2,38,100,0
2,38,100,0
2,40,100,0
2,40,100,0
2,45,100,0
2,45,100,0
2,37,100,0
2,40,100,0
2,42,100,0
2,42,100,0
2,42,100,0
2,38,100,0
2,38,100,0
2,40,100,0
2,40,100,0
2,45,100,0
2,45,100,0
2,37,100,0
2,40,100,0
2,42,100,0
2,42,100,0
2,42,100,0
2,42,100,0
2,38,100,0
2,38,100,0
2,40,100,0
2,45,100,0
2,45,100,0
2,45,100,0
2,45,100,0
2,45,100,0
2,37,100,0
2,40,100,0
2,42,100,0
2,42,100,0
2,42,100,0
2,38,100,0
2,38,100,0
2,38,100,0
2,40,100,0
2,28,100,0
2,28,100,0
2,45,100,0
2,45,100,0
2,45,100,0
2,37,100,0
2,40,100,0
2,42,100,0
2,42,100,0
2,42,100,0
2,42,100,0
2,38,100,0
2,38,100,0
2,40,100,0
2,45,100,0
2,45,100,0
2,45,100,0
2,35,100,384
2,37,100,0
2,38,100,0
2,38,100,0
2,38,100,0
2,40,100,0
2,41,100,0
2,42,100,0
2,42,100,0
2,42,100,0
2,35,100,0
2,35,100,0
2,35,100,0
2,33,100,0
2,37,100,0
2,38,100,0
2,40,100,0
2,38,100,0
2,37,100,0
2,35,100,0
2,45,100,0
2,45,100,0
2,45,100,0
2,37,100,0
2,40,100,0
2,42,100,0
2,42,100,0
2,42,100,0
2,42,100,0
2,38,100,0
2,38,100,0
2,40,100,0
2,45,100,0
2,45,100,0
2,45,100,0
2,42,100,0
2,40,100,0
2,33,100,0
2,33,100,0
2,33,100,0
2,37,100,0
2,40,100,0
2,42,100,0
2,42,100,0
2,42,100,0
2,42,100,0
2,38,100,0
2,38,100,0
2,38,100,0
2,33,100,0
2,33,100,0
2,33,100,0
2,37,100,0
2,40,100,0
2,38,100,0
2,38,100,0
2,38,100,0
2,40,100,0
2,41,100,0
2,42,100,0
2,42,100,0
2,42,100,0
2,35,100,0
2,35,100,0
2,35,100,0
2,33,100,0
2,37,100,0
2,38,100,0
2,40,100,0
2,38,100,0
2,37,100,0
2,35,100,0
2,45,100,0
2,45,100,0
2,37,100,0
2,40,100,0
2,42,100,0
2,42,100,0
2,42,100,0
2,42,100,0
2,38,100,0
2,38,100,0
2,38,100,0
2,40,100,0
2,40,100,0
2,45,100,0
2,45,100,0
2,45,100,0
2,37,100,0
2,40,100,0
2,42,100,0
2,42,100,0
2,42,100,0
2,42,100,0
2,38,100,0
2,38,100,0
2,40,100,0
2,45,100,0
2,37,100,0
2,40,100,0
2,42,100,0
2,42,100,0
2,38,100,0
2,38,100,0
2,40,100,0
2,45,100,0
2,37,100,0
2,40,100,0
2,42,100,0
2,42,100,0
2,38,100,0
2,38,100,0
2,40,100,0
2,45,100,0
2,45,100,0
2,45,100,0
2,45,100,0
2,45,100,0
2,33,100,0
3,69,100,2688
3,68,100,0
3,67,100,0
3,66,100,0
3,65,100,0
3,64,100,0
3,66,100,0
3,66,100,0
3,65,100,0
3,64,100,0
3,63,100,0
3,62,100,0
3,61,100,0
3,64,100,0
3,66,100,0
3,64,100,0
3,61,100,0
3,57,80,5088
3,56,80,0
3,56,80,0
3,57,80,0
3,56,80,0
3,56,80,0
3,57,80,11232
3,56,80,0
3,56,80,0
3,57,80,0
3,56,80,0
3,56,80,0
3,61,127,18048
3,64,127,0
3,66,127,0
3,64,127,0
3,66,127,480
3,64,127,0
3,61,127,0
3,61,127,576
3,64,127,0
3,57,127,0
3,62,127,0
3,66,127,0
3,69,127,96
3,74,127,0
3,69,127,96
3,74,127,0
3,69,127,0
3,71,127,0
3,73,127,0
3,74,127,0
3,73,127,0
3,69,127,0
3,64,127,96
3,57,80,11328
3,56,80,0
3,56,80,0
3,57,80,0
3,56,80,0
3,56,80,0
3,64,127,4608
3,69,127,0
3,66,127,0
3,69,127,1536
3,64,127,0
3,66,127,0
3,61,127,2688
3,59,127,0
3,57,127,0
3,57,127,0
3,57,127,0
3,61,127,0
3,64,127,0
4,61,100,5856
4,64,100,0
4,66,100,0
4,64,100,0
4,64,100,0
4,66,100,288
4,64,100,0
4,61,100,0
4,61,100,0
4,59,100,0
4,57,100,0
4,59,100,0
4,61,100,0
4,57,100,0
4,61,100,672
4,64,100,0
4,64,100,0
4,57,100,0
4,61,100,384
4,64,100,0
4,64,100,0
4,61,100,0
4,64,100,0
4,61,100,0
4,59,100,0
4,61,100,768
4,64,100,0
4,66,100,0
4,64,100,2
4,64,100,0
4,66,100,288
4,64,100,0
4,62,100,0
4,61,100,0
4,59,100,0
4,57,100,0
4,57,100,0
4,59,100,0
4,57,100,0
4,61,100,0
4,59,100,0
4,57,100,0
4,61,100,624
4,64,100,0
4,64,100,0
4,57,100,0
4,62,100,192
4,64,100,0
4,61,100,0
4,59,100,0
4,57,100,0
4,57,100,0
4,61,100,864
4,64,100,0
4,66,100,0
4,64,100,0
4,64,100,0
4,66,100,288
4,64,100,0
4,62,100,0
4,61,100,0
4,61,100,0
4,59,100,0
4,57,100,0
4,59,100,0
4,61,100,0
4,59,100,0
4,57,100,0
4,57,100,624
4,61,100,0
4,64,100,0
4,64,100,0
4,59,100,0
4,57,100,0
4,61,100,288
4,64,100,0
4,64,100,0
4,61,100,0
4,64,100,0
4,61,100,0
4,59,100,0
4,61,100,672
4,64,100,0
4,66,100,0
4,64,100,0
4,64,100,0
4,66,100,288
4,64,100,0
4,62,100,0
4,61,100,0
