track,note,velocity,time
1,52,76,0
1,52,0,240
1,74,63,480
1,86,75,0
1,83,63,0
1,83,0,720
1,86,0,0
1,74,0,0
1,81,73,0
1,84,73,0
1,72,62,0
1,72,0,720
1,84,0,0
1,81,0,0
1,78,63,0
1,69,63,0
1,81,75,0
1,81,0,720
1,69,0,0
1,78,0,0
1,83,70,0
1,71,59,0
1,79,59,0
1,79,0,120
1,71,0,0
1,83,0,0
1,67,52,120
1,76,52,0
1,79,62,0
1,79,0,120
1,76,0,0
1,67,0,0
1,81,70,120
1,78,54,0
1,69,55,0
1,69,0,120
1,78,0,0
1,81,0,0
1,78,63,120
1,75,53,0
1,66,53,0
1,66,0,120
1,75,0,0
1,78,0,0
1,79,70,120
1,76,59,0
1,67,59,0
1,67,0,120
1,76,0,0
1,79,0,0
1,64,54,120
1,76,64,0
1,73,54,0
1,73,0,120
1,76,0,0
1,64,0,0
1,78,70,120
1,66,59,0
1,75,59,0
1,75,0,120
1,66,0,0
1,78,0,0
1,66,58,360
1,78,69,0
1,75,58,0
1,75,0,120
1,78,0,0
1,66,0,0
1,73,62,1080
1,61,52,0
1,61,0,120
1,73,0,0
1,63,54,120
1,75,64,0
1,75,0,120
1,63,0,0
1,64,56,120
1,76,66,0
1,76,0,120
1,64,0,0
1,66,56,120
1,78,67,0
1,78,0,120
1,66,0,0
1,67,58,120
1,79,69,0
1,79,0,120
1,67,0,0
1,66,59,120
1,78,70,0
1,75,59,0
1,75,0,120
1,78,0,0
1,66,0,0
1,71,58,360
1,83,69,0
1,83,0,120
1,71,0,0
1,73,62,1080
1,61,52,0
1,61,0,120
1,73,0,0
1,63,54,120
1,75,64,0
1,75,0,120
1,63,0,0
1,64,56,120
1,76,66,0
1,76,0,120
1,64,0,0
1,66,56,120
1,78,67,0
1,78,0,120
1,66,0,0
1,67,58,120
1,79,69,0
1,79,0,120
1,67,0,0
1,69,59,120
1,81,70,0
1,78,59,0
1,78,0,120
1,81,0,0
1,69,0,0
1,74,58,360
1,86,69,0
1,86,0,120
1,74,0,0
1,55,76,840
1,55,0,240
1,89,63,480
1,93,75,0
1,81,63,0
1,81,0,720
1,93,0,0
1,89,0,0
1,91,73,0
1,88,73,0
1,79,62,0
1,79,0,720
1,88,0,0
1,91,0,0
1,84,63,0
1,76,63,0
1,88,75,0
1,88,0,720
1,76,0,0
1,84,0,0
1,86,59,0
1,89,70,0
1,77,59,0
1,77,0,120
1,89,0,0
1,86,0,0
1,86,62,120
1,83,52,0
1,74,52,0
1,74,0,120
1,83,0,0
1,86,0,0
1,84,54,120
1,76,55,0
1,88,70,0
1,88,0,120
1,76,0,0
1,84,0,0
1,81,53,120
1,84,63,0
1,72,53,0
1,72,0,120
1,84,0,0
1,81,0,0
1,74,59,120
1,86,70,0
1,83,59,0
1,83,0,120
1,86,0,0
1,74,0,0
1,71,54,120
1,83,64,0
1,79,54,0
1,79,0,120
1,83,0,0
1,71,0,0
1,81,59,120
1,72,59,0
1,84,70,0
1,84,0,120
1,72,0,0
1,81,0,0
1,81,58,360
1,72,58,0
1,84,69,0
1,84,0,120
1,72,0,0
1,81,0,0
1,69,59,120
1,81,70,0
1,77,59,0
1,77,0,720
1,81,0,0
1,69,0,0
1,79,56,240
1,67,47,0
1,67,0,120
1,79,0,0
1,71,49,120
1,83,58,0
1,83,0,120
1,71,0,0
1,84,60,120
1,72,51,0
1,72,0,120
1,84,0,0
1,74,52,120
1,86,62,0
1,86,0,120
1,74,0,0
1,76,54,120
1,88,64,0
1,88,0,120
1,76,0,0
1,79,60,60
1,84,60,30
1,91,70,30
1,91,0,120
1,84,0,0
1,79,0,0
1,77,49,360
1,89,58,0
1,89,0,120
1,77,0,0
1,84,57,120
1,72,48,0
1,72,0,720
1,84,0,0
1,81,58,240
1,69,48,0
1,69,0,120
1,81,0,0
1,71,53,120
1,83,63,0
1,83,0,120
1,71,0,0
1,84,67,120
1,72,57,0
1,72,0,120
1,84,0,0
1,86,73,120
1,74,61,0
1,74,0,120
1,86,0,0
1,76,65,120
1,88,78,0
1,88,0,120
1,76,0,0
1,79,75,60
1,87,75,30
1,91,87,30
1,91,0,120
1,87,0,0
1,79,0,0
1,90,69,360
1,78,58,0
1,78,0,120
1,90,0,0
1,69,56,120
1,81,67,0
1,81,0,720
1,69,0,0
1,52,76,0
1,52,0,240
1,83,63,480
1,86,75,0
1,74,63,0
1,74,0,720
1,86,0,0
1,83,0,0
1,72,62,0
1,84,73,0
1,81,73,0
1,81,0,720
1,84,0,0
1,72,0,0
1,78,63,0
1,69,63,0
1,81,75,0
1,81,0,720
1,69,0,0
1,78,0,0
1,83,70,0
1,71,59,0
1,79,59,0
1,79,0,120
1,71,0,0
1,83,0,0
1,76,52,120
1,79,62,0
1,67,52,0
1,67,0,120
1,79,0,0
1,76,0,0
1,78,54,120
1,69,55,0
1,81,70,0
1,81,0,120
1,69,0,0
1,78,0,0
1,75,53,120
1,78,63,0
1,66,53,0
1,66,0,120
1,78,0,0
1,75,0,0
1,79,70,120
1,67,59,0
1,76,59,0
1,76,0,120
1,67,0,0
1,79,0,0
1,64,54,120
1,73,54,0
1,76,64,0
1,76,0,120
1,73,0,0
1,64,0,0
1,75,59,120
1,66,59,0
1,78,70,0
1,78,0,120
1,66,0,0
1,75,0,0
1,66,58,360
1,75,58,0
1,78,69,0
1,78,0,120
1,75,0,0
1,66,0,0
1,61,52,1080
1,73,62,0
1,73,0,120
1,61,0,0
1,75,64,120
1,63,54,0
1,63,0,120
1,75,0,0
1,76,66,120
1,64,56,0
1,64,0,120
1,76,0,0
1,66,56,120
1,78,67,0
1,78,0,120
1,66,0,0
1,79,69,120
1,67,58,0
1,67,0,120
1,79,0,0
1,78,70,120
1,75,59,0
1,66,59,0
1,66,0,120
1,75,0,0
1,78,0,0
1,83,69,360
1,71,58,0
1,71,0,120
1,83,0,0
1,61,52,1080
1,73,62,0
1,73,0,120
1,61,0,0
1,75,64,120
1,63,54,0
1,63,0,120
1,75,0,0
1,64,56,120
1,76,66,0
1,76,0,120
1,64,0,0
1,78,67,120
1,66,56,0
1,66,0,120
1,78,0,0
1,67,58,120
1,79,69,0
1,79,0,120
1,67,0,0
1,69,59,120
1,78,59,0
1,81,70,0
1,81,0,120
1,78,0,0
1,69,0,0
1,86,69,360
1,74,58,0
1,74,0,120
1,86,0,0
1,55,76,840
1,55,0,240
1,89,63,480
1,81,63,0
1,93,75,0
1,93,0,720
1,81,0,0
1,89,0,0
1,88,73,0
1,91,73,0
1,79,62,0
1,79,0,720
1,91,0,0
1,88,0,0
1,88,75,0
1,76,63,0
1,84,63,0
1,84,0,720
1,76,0,0
1,88,0,0
1,89,70,0
1,77,59,0
1,86,59,0
1,86,0,120
1,77,0,0
1,89,0,0
1,74,52,120
1,86,62,0
1,83,52,0
1,83,0,120
1,86,0,0
1,74,0,0
1,76,55,120
1,88,70,0
1,84,54,0
1,84,0,120
1,88,0,0
1,76,0,0
1,84,63,120
1,72,53,0
1,81,53,0
1,81,0,120
1,72,0,0
1,84,0,0
1,83,59,120
1,86,70,0
1,74,59,0
1,74,0,120
1,86,0,0
1,83,0,0
1,83,64,120
1,71,54,0
1,79,54,0
1,79,0,120
1,71,0,0
1,83,0,0
1,81,59,120
1,72,59,0
1,84,70,0
1,84,0,120
1,72,0,0
1,81,0,0
1,84,69,360
1,72,58,0
1,81,58,0
1,81,0,120
1,72,0,0
1,84,0,0
1,77,59,120
1,69,59,0
1,81,70,0
1,81,0,720
1,69,0,0
1,77,0,0
1,67,47,240
1,79,56,0
1,79,0,120
1,67,0,0
1,71,49,120
1,83,58,0
1,83,0,120
1,71,0,0
1,84,60,120
1,72,51,0
1,72,0,120
1,84,0,0
1,86,62,120
1,74,52,0
1,74,0,120
1,86,0,0
1,76,54,120
1,88,64,0
1,88,0,120
1,76,0,0
1,79,60,60
1,84,60,30
1,91,70,30
1,91,0,120
1,84,0,0
1,79,0,0
1,89,58,360
1,77,49,0
1,77,0,120
1,89,0,0
1,84,57,120
1,72,48,0
1,72,0,720
1,84,0,0
1,69,48,240
1,81,58,0
1,81,0,120
1,69,0,0
1,83,63,120
1,71,53,0
1,71,0,120
1,83,0,0
1,72,57,120
1,84,67,0
1,84,0,120
1,72,0,0
1,86,73,120
1,74,61,0
1,74,0,120
1,86,0,0
1,88,78,120
1,76,65,0
1,76,0,120
1,88,0,0
1,79,75,60
1,87,75,30
1,91,87,30
1,91,0,120
1,87,0,0
1,79,0,0
1,90,69,360
1,78,58,0
1,78,0,120
1,90,0,0
1,69,56,120
1,81,67,0
1,81,0,720
1,69,0,0
1,48,76,0
1,48,0,240
1,67,59,480
1,70,71,0
1,58,59,0
1,58,0,720
1,70,0,0
1,67,0,0
1,57,58,0
1,69,69,0
1,65,69,0
1,65,0,720
1,69,0,0
1,57,0,0
1,62,59,0
1,65,71,0
1,53,59,0
1,53,0,720
1,65,0,0
1,62,0,0
1,55,56,0
1,67,66,0
1,64,56,0
1,64,0,120
1,67,0,0
1,55,0,0
1,64,58,120
1,52,49,0
1,52,0,120
1,64,0,0
1,65,66,120
1,53,52,0
1,53,0,120
1,65,0,0
1,62,59,120
1,50,50,0
1,50,0,120
1,62,0,0
1,64,66,120
1,52,56,0
1,52,0,120
1,64,0,0
1,61,60,120
1,49,51,0
1,49,0,120
1,61,0,0
1,62,66,120
1,50,56,0
1,50,0,120
1,62,0,0
1,50,55,360
1,62,65,0
1,62,0,120
1,50,0,0
1,51,76,840
1,51,0,240
1,73,71,480
1,70,59,0
1,61,59,0
1,61,0,720
1,70,0,0
1,73,0,0
1,72,69,0
1,68,69,0
1,60,58,0
1,60,0,720
1,68,0,0
1,72,0,0
1,68,71,0
1,65,59,0
1,56,59,0
1,56,0,720
1,65,0,0
1,68,0,0
1,58,56,0
1,67,56,0
1,70,66,0
1,70,0,120
1,67,0,0
1,58,0,0
1,67,58,120
1,55,49,0
1,55,0,120
1,67,0,0
1,68,66,120
1,56,52,0
1,56,0,120
1,68,0,0
1,65,59,120
1,53,50,0
1,53,0,120
1,65,0,0
1,67,66,120
1,55,56,0
1,55,0,120
1,67,0,0
1,64,60,120
1,52,51,0
1,52,0,120
1,64,0,0
1,53,56,120
1,65,66,0
1,65,0,120
1,53,0,0
1,53,55,360
1,65,65,0
1,65,0,120
1,53,0,0
1,54,76,840
1,54,0,240
1,76,67,480
1,88,81,0
1,85,67,0
1,85,0,720
1,88,0,0
1,76,0,0
1,83,79,0
1,87,79,0
1,75,66,0
1,75,0,720
1,87,0,0
1,83,0,0
1,71,67,0
1,83,81,0
1,80,67,0
1,80,0,720
1,83,0,0
1,71,0,0
1,64,42,720
1,64,0,720
1,62,41,0
1,62,0,720
1,59,42,0
1,59,0,720
1,54,91,0
1,54,0,240
1,88,78,240
1,85,64,0
1,76,64,0
1,76,0,240
1,85,0,0
1,88,0,0
1,83,75,0
1,75,75,0
1,87,75,0
1,87,0,480
1,75,0,0
1,83,0,0
1,71,64,0
1,83,78,0
1,80,64,0
1,80,0,240
1,83,0,0
1,71,0,0
1,92,78,480
1,80,64,0
1,88,64,0
1,88,0,240
1,80,0,0
1,92,0,0
1,90,75,0
1,87,75,0
1,78,75,0
1,78,0,480
1,87,0,0
1,90,0,0
1,75,64,0
1,87,78,0
1,83,64,0
1,83,0,240
1,87,0,0
1,75,0,0
1,64,42,480
1,64,0,240
1,62,41,0
1,62,0,480
1,59,42,0
1,59,0,240
1,61,42,480
1,61,0,240
1,59,41,0
1,59,0,480
1,55,42,0
1,55,0,240
1,54,41,0
1,54,0,480
1,66,26,1680
1,64,22,0
1,58,22,0
1,61,22,0
1,61,0,120
1,66,0,0
1,64,0,0
1,58,0,0
1,61,25,120
1,58,25,0
1,64,25,0
1,66,30,0
1,66,0,120
1,61,0,0
1,58,0,0
1,64,0,0
1,58,22,120
1,66,26,0
1,61,22,0
1,64,22,0
1,64,0,120
1,58,0,0
1,66,0,0
1,61,0,0
1,66,33,120
1,59,28,0
1,63,28,0
1,63,0,120
1,59,0,0
1,66,0,0
1,61,26,600
1,52,22,0
1,54,22,0
1,58,22,0
1,58,0,120
1,61,0,0
1,52,0,0
1,54,0,0
1,52,25,120
1,54,25,0
1,58,25,0
1,63,30,0
1,63,0,120
1,52,0,0
1,54,0,0
1,58,0,0
1,52,22,120
1,54,22,0
1,58,22,0
1,61,26,0
1,61,0,120
1,52,0,0
1,54,0,0
1,58,0,0
1,51,28,120
1,54,28,0
1,59,33,0
1,59,0,120
1,54,0,0
1,51,0,0
1,58,22,600
1,66,26,0
1,61,22,0
1,64,22,0
1,64,0,120
1,58,0,0
1,66,0,0
1,61,0,0
1,58,25,120
1,61,25,0
1,64,25,0
1,66,30,0
1,66,0,120
1,58,0,0
1,61,0,0
1,64,0,0
1,61,22,120
1,66,26,0
1,64,22,0
1,58,22,0
1,58,0,120
1,61,0,0
1,66,0,0
1,64,0,0
1,66,33,120
1,63,28,0
1,59,28,0
1,59,0,120
1,63,0,0
1,66,0,0
1,58,22,600
1,61,26,0
1,52,22,0
1,54,22,0
1,54,0,120
1,58,0,0
1,61,0,0
1,52,0,0
1,58,25,120
1,52,25,0
1,54,25,0
1,63,30,0
1,63,0,120
1,58,0,0
1,52,0,0
1,54,0,0
1,58,22,120
1,52,22,0
1,61,26,0
1,54,22,0
1,54,0,120
1,58,0,0
1,52,0,0
1,61,0,0
1,54,28,120
1,59,33,0
1,51,28,0
1,51,0,120
1,59,0,0
1,54,0,0
1,66,23,600
1,60,23,0
1,63,23,0
1,68,28,0
1,68,0,120
1,66,0,0
1,60,0,0
1,63,0,0
1,66,27,120
1,68,33,0
1,63,27,0
1,60,27,0
1,60,0,120
1,66,0,0
1,68,0,0
1,63,0,0
1,63,25,120
1,60,25,0
1,66,25,0
1,68,29,0
1,68,0,120
1,63,0,0
1,60,0,0
1,66,0,0
1,64,32,120
1,61,32,0
1,68,38,0
1,68,0,120
1,61,0,0
1,64,0,0
1,58,27,600
1,61,27,0
1,64,27,0
1,66,32,0
1,66,0,120
1,58,0,0
1,61,0,0
1,64,0,0
1,58,32,120
1,63,32,0
1,64,32,0
1,66,38,0
1,66,0,120
1,58,0,0
1,63,0,0
1,64,0,0
1,64,28,120
1,66,34,0
1,58,28,0
1,61,28,0
1,61,0,120
1,64,0,0
1,66,0,0
1,58,0,0
1,59,37,120
1,63,37,0
1,66,43,0
1,66,0,120
1,63,0,0
1,59,0,0
1,63,31,600
1,69,31,0
1,71,36,0
1,66,31,0
1,66,0,120
1,63,0,0
1,69,0,0
1,71,0,0
1,63,36,120
1,66,36,0
1,69,36,0
1,71,43,0
1,71,0,120
1,63,0,0
1,66,0,0
1,69,0,0
1,63,32,120
1,66,32,0
1,69,32,0
1,71,38,0
1,71,0,120
1,63,0,0
1,66,0,0
1,69,0,0
1,64,42,120
1,71,49,0
1,68,42,0
1,68,0,120
1,71,0,0
1,64,0,0
1,73,47,600
1,65,39,0
1,68,39,0
1,71,39,0
1,71,0,120
1,73,0,0
1,65,0,0
1,68,0,0
1,73,55,120
1,71,46,0
1,68,46,0
1,65,46,0
1,65,0,120
1,73,0,0
1,71,0,0
1,68,0,0
1,68,41,120
1,65,41,0
1,73,48,0
1,71,41,0
1,71,0,120
1,68,0,0
1,65,0,0
1,73,0,0
1,70,52,120
1,66,52,0
1,73,63,0
1,73,0,120
1,66,0,0
1,70,0,0
1,85,55,600
1,90,65,0
1,82,55,0
1,76,55,0
1,76,0,120
1,85,0,0
1,90,0,0
1,82,0,0
1,76,62,120
1,90,74,0
1,85,62,0
1,82,62,0
1,82,0,120
1,76,0,0
1,90,0,0
1,85,0,0
1,82,57,120
1,76,57,0
1,90,68,0
1,85,57,0
1,85,0,120
1,82,0,0
1,76,0,0
1,90,0,0
1,76,55,120
1,85,55,0
1,82,55,0
1,90,65,0
1,90,0,120
1,76,0,0
1,85,0,0
1,82,0,0
1,76,62,120
1,85,62,0
