track,note,velocity,time
0,47,105,235
0,50,102,44
0,47,0,6
0,50,0,34
0,55,109,10
0,55,0,46
0,55,93,2
0,55,0,42
0,50,101,1
0,53,111,77
0,50,0,4
0,53,0,2
0,57,103,12
0,55,96,13
0,57,0,10
0,52,91,31
0,55,0,10
0,52,0,73
0,28,83,17
0,36,83,2
0,38,88,0
0,42,75,0
0,51,64,0
0,57,78,0
0,47,111,1
0,52,111,0
0,36,0,3
0,38,0,0
0,42,0,0
0,51,0,0
0,57,0,0
0,47,0,26
0,52,0,0
0,47,102,14
0,52,102,1
0,28,0,31
0,52,0,18
0,42,60,2
0,47,0,0
0,42,0,4
0,42,75,92
0,47,75,0
0,51,66,0
0,52,75,0
0,42,0,4
0,51,0,0
0,47,0,10
0,52,0,0
0,52,109,51
0,47,109,1
0,42,62,1
0,42,0,4
0,47,0,52
0,52,0,0
0,42,76,40
0,51,66,0
0,42,0,4
0,51,0,0
0,57,103,80
0,40,77,3
0,42,60,2
0,59,80,0
0,42,0,4
0,59,0,0
0,40,0,35
0,57,0,4
0,35,81,1
0,57,111,27
0,35,0,9
0,38,81,1
0,42,76,2
0,51,64,0
0,64,85,0
0,42,0,4
0,51,0,0
0,64,0,0
0,55,95,7
0,57,0,5
0,52,101,28
0,42,60,3
0,53,87,0
0,55,0,2
0,42,0,2
0,53,0,0
0,52,0,83
0,38,0,6
0,28,83,1
0,36,82,2
0,38,88,0
0,42,78,0
0,47,111,0
0,51,68,0
0,52,111,0
0,36,0,4
0,38,0,0
0,42,0,0
0,51,0,0
0,47,0,45
0,52,0,0
0,28,0,8
0,42,60,18
0,47,80,0
0,52,80,0
0,42,0,4
0,47,0,10
0,52,0,0
0,47,79,34
0,52,79,0
0,52,0,14
0,47,0,2
0,42,78,32
0,47,77,0
0,51,68,0
0,52,77,0
0,42,0,4
0,51,0,0
0,52,0,9
0,47,0,4
0,47,76,31
0,52,76,0
0,52,0,17
0,47,0,4
0,33,81,25
0,41,92,2
0,42,60,0
0,57,93,3
0,62,93,0
0,41,0,1
0,42,0,0
0,33,0,31
0,67,104,19
0,69,110,0
0,38,79,5
0,42,75,2
0,51,69,0
0,42,0,4
0,51,0,0
0,42,60,92
0,42,0,4
0,38,0,81
0,33,83,9
0,42,75,2
0,51,68,0
0,42,0,4
0,51,0,0
0,42,60,92
0,42,0,4
0,52,51,5
0,55,57,0
0,59,57,1
0,33,0,1
0,40,84,5
0,36,83,2
0,38,88,0
0,42,75,0
0,51,64,0
0,36,0,4
0,38,0,0
0,42,0,0
0,51,0,0
0,69,0,90
0,42,60,2
0,42,0,4
0,67,0,6
0,42,75,86
0,51,66,0
0,42,0,4
0,51,0,0
0,64,93,89
0,42,62,3
0,71,56,0
0,42,0,4
0,71,0,0
0,64,0,22
0,64,93,63
0,42,76,7
0,51,66,0
0,64,54,0
0,42,0,4
0,51,0,0
0,64,0,0
0,64,0,40
0,62,93,1
0,62,0,35
0,42,60,16
0,59,80,0
0,62,93,3
0,42,0,1
0,59,0,0
0,42,76,92
0,51,64,0
0,64,85,0
0,42,0,4
0,51,0,0
0,64,0,0
0,62,0,79
0,59,93,6
0,42,60,7
0,53,87,0
0,42,0,4
0,53,0,0
0,59,0,37
0,57,0,7
0,62,0,0
0,54,56,3
0,57,61,1
0,50,51,1
0,55,0,2
0,52,0,1
0,40,0,15
0,38,84,1
0,36,82,2
0,38,88,0
0,42,78,0
0,51,68,0
0,62,93,0
0,36,0,4
0,38,0,0
0,42,0,0
0,51,0,0
0,59,0,11
0,62,0,48
0,64,93,1
0,42,60,32
0,42,0,4
0,64,0,31
0,42,78,61
0,51,68,0
0,42,0,4
0,51,0,0
0,41,96,92
0,42,60,0
0,43,68,0
0,48,98,0
0,41,0,4
0,42,0,0
0,43,0,0
0,48,0,0
0,42,75,92
0,51,69,0
0,42,0,4
0,51,0,0
0,42,60,92
0,42,0,4
0,42,75,92
0,51,68,0
0,42,0,4
0,51,0,0
0,42,60,92
0,42,0,4
0,54,0,34
0,50,0,5
0,49,52,8
0,52,59,0
0,38,0,42
0,33,84,1
0,36,83,2
0,38,88,0
0,42,75,0
0,51,64,0
0,36,0,4
0,38,0,0
0,42,0,0
0,51,0,0
0,42,60,92
0,42,0,4
0,42,75,92
0,51,66,0
0,42,0,4
0,51,0,0
0,42,62,92
0,64,93,0
0,42,0,4
0,64,0,25
0,64,93,61
0,42,76,6
0,51,66,0
0,42,0,4
0,51,0,0
0,64,0,91
0,42,60,1
0,59,80,0
0,62,93,0
0,42,0,4
0,59,0,0
0,62,0,68
0,42,76,24
0,51,64,0
0,64,85,0
0,42,0,4
0,51,0,0
0,64,0,0
0,62,93,69
0,42,60,23
0,53,87,0
0,42,0,4
0,53,0,0
0,62,0,25
0,61,90,3
0,61,0,24
0,61,82,32
0,36,82,8
0,38,88,0
0,42,78,0
0,51,68,0
0,36,0,4
0,38,0,0
0,42,0,0
0,51,0,0
0,42,60,92
0,42,0,4
0,42,78,92
0,51,68,0
0,42,0,4
0,51,0,0
0,61,0,70
0,61,82,16
0,41,92,6
0,42,60,0
0,43,68,0
0,48,98,0
0,41,0,4
0,42,0,0
0,43,0,0
0,48,0,0
0,42,75,92
0,51,69,0
0,42,0,4
0,51,0,0
0,61,0,31
0,57,103,57
0,42,60,4
0,42,0,1
0,57,0,12
0,33,0,14
0,57,101,0
0,35,79,2
0,42,75,2
0,51,68,0
0,42,0,4
0,51,0,0
0,55,92,1
0,57,0,10
0,42,60,34
0,43,64,0
0,55,0,2
0,42,0,2
0,43,0,0
0,52,94,3
0,57,0,41
0,55,62,3
0,59,61,0
0,49,0,12
0,35,0,29
0,40,84,2
0,36,83,2
0,38,88,0
0,42,75,0
0,51,64,0
0,36,0,4
0,38,0,0
0,42,0,0
0,51,0,0
0,42,60,92
0,42,0,4
0,42,75,92
0,51,66,0
0,42,0,4
0,51,0,0
0,64,93,90
0,42,62,2
0,71,56,0
0,42,0,4
0,71,0,0
0,64,0,21
0,64,93,28
0,42,76,20
0,51,66,0
0,64,54,0
0,42,0,4
0,51,0,0
0,64,0,0
0,64,0,24
0,62,93,16
0,62,0,34
0,42,60,18
0,59,80,0
0,42,0,4
0,59,0,0
0,62,93,7
0,42,76,85
0,51,64,0
0,64,85,0
0,42,0,4
0,51,0,0
0,64,0,0
0,62,0,87
0,59,93,1
0,42,60,4
0,53,87,0
0,42,0,4
0,53,0,0
0,59,0,31
0,50,51,16
0,57,62,0
0,54,60,1
0,55,0,0
0,59,0,12
0,52,0,10
0,52,0,3
0,40,0,15
0,62,93,1
0,38,84,1
0,36,82,2
0,38,88,0
0,42,78,0
0,51,68,0
0,36,0,4
0,38,0,0
0,42,0,0
0,51,0,0
0,62,0,67
0,64,93,1
0,42,60,24
0,42,0,4
0,64,0,41
0,66,92,1
0,42,78,50
0,51,68,0
0,42,0,4
0,51,0,0
0,41,96,92
0,42,60,0
0,43,68,0
0,48,98,0
0,41,0,4
0,42,0,0
0,43,0,0
0,48,0,0
0,42,75,92
0,51,69,0
0,42,0,4
0,51,0,0
0,66,0,72
0,64,93,1
0,42,60,19
0,42,0,4
0,64,0,48
0,62,93,1
0,42,75,43
0,51,68,0
0,42,0,4
0,51,0,0
0,62,0,53
0,42,60,39
0,42,0,4
0,54,0,41
0,52,62,8
0,49,49,5
0,50,0,5
0,38,0,17
0,33,84,14
0,36,83,2
0,38,88,0
0,42,75,0
0,51,64,0
0,36,0,4
0,38,0,0
0,42,0,0
0,51,0,0
0,42,60,92
0,42,0,4
0,42,75,92
0,51,66,0
0,42,0,4
0,51,0,0
0,42,62,92
0,42,0,4
0,42,76,92
0,51,66,0
0,42,0,4
0,51,0,0
0,42,60,92
0,59,80,0
0,42,0,4
0,59,0,0
0,33,0,89
0,35,82,1
0,42,76,2
0,51,64,0
0,64,85,0
0,42,0,4
0,51,0,0
0,64,0,0
0,42,60,92
0,53,87,0
0,42,0,4
0,53,0,0
0,55,61,47
0,59,62,2
0,57,0,14
0,49,0,1
0,35,0,12
0,40,88,14
0,36,82,2
0,38,88,0
0,42,78,0
0,51,68,0
0,36,0,4
0,38,0,0
0,42,0,0
0,51,0,0
0,42,60,92
0,42,0,4
0,42,78,92
0,51,68,0
0,42,0,4
0,51,0,0
0,64,93,89
0,41,92,3
0,42,60,0
0,41,0,4
0,42,0,0
0,64,0,22
0,64,93,63
0,42,75,7
0,51,69,0
0,42,0,4
0,51,0,0
0,64,0,40
0,62,93,1
0,62,0,35
0,42,60,16
0,62,93,3
0,42,0,1
0,42,75,92
0,51,68,0
0,42,0,4
0,51,0,0
0,62,0,79
0,59,93,6
0,42,60,7
0,42,0,4
0,59,0,37
0,59,0,6
0,54,56,4
0,57,61,1
0,50,51,1
0,55,0,2
0,52,0,11
0,40,0,26
0,38,88,2
0,36,83,2
0,38,88,0
0,42,75,0
0,51,64,0
0,62,93,0
0,36,0,4
0,38,0,0
0,42,0,0
0,51,0,0
0,62,0,59
0,64,93,1
0,42,60,32
0,42,0,4
0,64,0,31
0,42,75,61
0,51,66,0
0,42,0,4
0,51,0,0
0,42,62,92
0,43,67,0
0,48,97,0
0,41,94,1
0,42,0,3
0,43,0,0
0,48,0,0
0,41,0,1
0,42,76,91
0,51,66,0
0,42,0,4
0,51,0,0
0,42,60,92
0,59,80,0
0,42,0,4
0,59,0,0
0,42,76,92
0,51,64,0
0,64,85,0
0,42,0,4
0,51,0,0
0,64,0,0
0,42,60,92
0,53,87,0
0,42,0,4
0,53,0,0
0,54,0,35
0,50,0,5
0,52,59,7
0,49,52,1
0,38,0,37
0,33,88,5
0,36,82,2
0,38,88,0
0,42,78,0
0,51,68,0
0,36,0,4
0,38,0,0
0,42,0,0
0,51,0,0
0,42,60,92
0,42,0,4
0,42,78,92
0,51,68,0
0,42,0,4
0,51,0,0
0,41,96,92
0,42,60,0
0,64,93,0
0,41,0,4
0,42,0,0
0,64,0,25
0,64,93,61
0,42,75,6
0,51,69,0
0,42,0,4
0,51,0,0
0,64,0,91
0,42,60,1
0,62,93,0
0,42,0,4
0,62,0,68
0,42,75,24
0,51,68,0
0,42,0,4
0,51,0,0
0,62,93,69
0,42,60,23
0,42,0,4
0,62,0,25
0,61,90,3
0,61,0,24
0,61,82,32
0,36,83,8
0,38,88,0
0,42,75,0
0,51,64,0
0,36,0,4
0,38,0,0
0,42,0,0
0,51,0,0
0,33,0,52
0,40,79,38
0,42,60,2
0,42,0,4
0,40,0,40
0,45,83,50
0,42,75,2
0,51,66,0
0,42,0,4
0,51,0,0
0,61,0,22
0,61,82,16
0,43,66,2
0,48,96,0
0,42,62,4
0,43,0,0
0,48,0,0
0,41,95,1
0,42,0,3
0,41,0,1
0,49,105,72
0,42,76,6
0,51,66,0
0,42,0,4
0,51,0,0
0,61,0,31
0,42,60,6
0,52,107,0
0,59,80,0
0,57,82,1
0,42,0,3
0,59,0,0
0,49,0,5
0,52,0,70
0,57,0,0
0,54,105,13
0,57,81,1
0,42,76,3
0,51,64,0
0,64,85,0
0,42,0,4
0,51,0,0
0,64,0,0
0,57,0,79
0,54,0,4
0,52,111,3
0,57,77,3
0,42,60,3
0,53,87,0
0,42,0,4
0,53,0,0
0,57,0,28
0,54,63,19
0,57,63,0
0,62,63,1
0,49,0,11
0,52,0,1
0,57,0,19
0,52,0,6
0,50,100,1
0,57,100,0
0,45,0,2
0,38,88,2
0,36,82,2
0,38,88,0
0,42,78,0
0,49,76,0
0,51,68,0
0,36,0,4
0,38,0,0
0,42,0,0
0,49,0,0
0,51,0,0
0,42,60,92
0,42,0,4
0,42,78,92
0,51,68,0
0,42,0,4
0,51,0,0
0,67,99,86
0,41,92,6
0,42,60,0
0,43,68,0
0,48,98,0
0,41,0,4
0,42,0,0
0,43,0,0
0,48,0,0
0,67,0,32
0,42,75,12
0,51,69,0
0,67,105,2
0,42,0,2
0,51,0,0
0,67,0,15
0,66,93,6
0,42,60,0
0,42,0,4
0,66,0,7
0,64,104,17
0,42,75,3
0,51,68,0
0,42,0,0
0,51,0,0
0,64,0,6
0,62,93,11
0,42,60,8
0,43,64,0
0,42,0,4
0,43,0,0
0,62,0,6
0,64,93,1
0,62,0,12
0,61,62,3
0,52,62,1
0,54,0,4
0,38,0,13
0,33,88,1
0,38,88,2
0,36,83,0
0,42,75,0
0,51,64,0
0,36,0,4
0,38,0,0
0,42,0,0
0,51,0,0
0,57,0,3
0,50,0,2
0,42,60,12
0,42,0,4
0,42,75,8
0,51,66,0
0,42,0,4
0,51,0,0
0,42,62,16
0,71,56,0
0,71,0,4
0,42,0,0
0,42,76,12
0,51,66,0
0,64,54,0
0,42,0,4
0,51,0,0
0,64,0,0
0,42,60,92
0,59,80,0
0,64,0,0
0,62,93,1
0,42,0,3
0,59,0,0
0,42,76,92
0,51,64,0
0,64,85,0
0,42,0,4
0,51,0,0
0,64,0,0
0,62,0,88
0,64,93,1
0,42,60,3
0,53,87,0
0,42,0,4
0,53,0,0
0,61,0,41
0,57,0,4
0,55,64,2
0,59,64,0
0,33,0,17
0,40,86,26
0,36,82,2
0,38,88,0
0,42,78,0
0,51,68,0
0,36,0,4
0,38,0,0
0,42,0,0
0,51,0,0
0,42,60,72
0,42,0,4
0,40,0,16
0,38,88,26
0,42,78,50
0,51,68,0
0,42,0,4
0,51,0,0
0,38,0,28
0,64,0,18
0,40,88,44
0,41,96,2
0,42,60,0
0,83,100,0
0,41,0,4
0,42,0,0
0,83,0,38
0,85,86,6
0,85,0,34
0,42,75,14
0,51,69,0
0,86,113,1
0,42,0,3
0,51,0,0
0,86,0,47
0,42,60,45
0,83,83,0
0,42,0,4
0,83,0,38
0,85,69,5
0,85,0,34
0,42,75,15
0,51,68,0
0,86,95,3
0,42,0,1
0,51,0,0
0,86,0,49
0,42,60,43
0,83,60,0
0,42,0,4
0,83,0,38
0,85,44,2
0,40,0,23
0,85,0,15
0,28,90,12
0,36,83,2
0,38,88,0
0,42,75,0
0,51,64,0
0,86,71,3
0,36,0,1
0,38,0,0
0,42,0,0
0,51,0,0
0,86,0,41
0,83,67,50
0,42,60,1
0,42,0,4
0,83,0,41
0,85,49,3
0,85,0,34
0,42,75,14
0,51,66,0
0,42,0,4
0,51,0,0
0,86,76,3
0,86,0,42
0,42,62,47
0,83,80,1
0,42,0,3
0,83,0,39
0,85,66,6
0,85,0,34
0,42,76,13
0,51,66,0
0,86,93,2
0,42,0,2
0,51,0,0
0,86,0,48
0,42,60,44
0,59,80,0
0,83,58,1
0,42,0,3
0,59,0,0
0,83,0,39
0,85,44,5
0,85,0,34
0,42,76,14
0,51,64,0
0,64,85,0
0,42,0,4
0,51,0,0
0,64,0,0
0,86,70,0
0,86,0,50
0,42,60,42
0,53,87,0
0,83,40,1
0,42,0,3
0,53,0,0
0,59,0,13
0,55,0,16
0,52,0,2
0,83,0,8
0,85,24,2
0,54,63,6
0,57,63,0
0,62,63,1
0,85,0,31
0,28,0,10
0,38,89,1
0,36,83,2
0,38,88,0
0,42,75,0
0,49,78,0
0,51,64,0
0,36,0,4
0,38,0,0
0,42,0,0
0,49,0,0
0,51,0,0
0,86,51,0
0,42,60,92
0,42,0,4
0,86,0,86
0,42,75,6
0,51,66,0
0,42,0,4
0,51,0,0
0,67,101,87
0,42,62,5
0,42,0,4
0,67,0,26
0,42,76,66
0,51,66,0
0,67,99,2
0,42,0,2
0,51,0,0
0,67,0,52
0,66,89,6
0,42,60,34
0,59,80,0
0,42,0,4
0,59,0,0
0,66,0,8
0,67,97,34
0,42,76,50
0,51,64,0
0,64,85,0
0,67,0,3
0,42,0,1
0,51,0,0
0,64,0,0
0,66,90,0
0,66,0,47
0,64,93,25
0,38,0,1
0,33,86,17
0,42,60,2
0,53,87,0
0,42,0,4
0,53,0,0
0,62,0,28
0,61,62,3
0,52,62,1
0,54,0,4
0,33,0,28
0,33,88,10
0,36,82,2
0,38,88,0
0,42,78,0
0,51,68,0
0,36,0,4
