track,note,velocity,time
1,75,79,8400
1,75,0,80
1,75,79,40
1,75,0,175
1,75,79,25
1,75,0,25
1,75,79,15
1,75,0,80
1,77,79,0
1,77,0,25
1,77,79,15
1,77,0,80
1,79,79,0
1,79,0,25
1,70,79,95
1,70,0,25
1,72,79,15
1,72,0,25
1,75,79,15
1,75,0,25
1,75,79,15
1,75,0,200
1,72,79,80
1,72,0,80
1,70,79,0
1,70,0,120
1,75,79,160
1,75,0,80
1,75,79,40
1,75,0,175
1,75,79,25
1,75,0,25
1,75,79,15
1,75,0,175
1,77,79,25
1,77,0,25
1,77,79,15
1,77,0,40
1,79,79,0
1,79,0,55
1,75,79,25
1,75,0,80
1,77,79,0
1,77,0,200
1,67,79,440
1,67,0,80
1,70,79,40
1,70,0,80
1,72,79,40
1,72,0,80
1,65,79,40
1,65,0,55
1,67,79,25
1,67,0,120
1,65,79,40
1,65,0,80
1,63,79,40
1,63,0,155
1,63,79,525
1,63,0,25
1,72,79,15
1,72,0,80
1,70,79,40
1,70,0,80
1,70,79,40
1,70,0,80
1,70,79,40
1,70,0,80
1,72,79,0
1,72,0,25
1,65,79,15
1,65,0,40
1,67,79,0
1,67,0,55
1,67,79,25
1,67,0,80
1,65,79,0
1,65,0,25
1,67,79,15
1,67,0,40
1,65,79,0
1,65,0,40
1,63,79,0
1,63,0,120
1,63,79,480
1,63,0,25
1,75,79,15
1,75,0,80
1,70,79,40
1,70,0,40
1,72,79,0
1,72,0,55
1,67,79,105
1,67,0,25
1,70,79,15
1,70,0,160
1,67,79,160
1,67,0,25
1,68,79,15
1,68,0,80
1,67,79,40
1,67,0,55
1,65,79,25
1,65,0,95
1,63,79,25
1,63,0,25
1,63,79,15
1,63,0,160
1,67,79,200
1,67,0,475
1,70,79,2045
1,70,0,80
1,72,79,40
1,72,0,80
1,74,79,40
1,74,0,80
1,75,79,40
1,75,0,80
1,75,79,40
1,75,0,80
1,75,79,40
1,75,0,80
1,72,79,40
1,72,0,40
1,74,79,0
1,74,0,55
1,72,79,25
1,72,0,80
1,70,79,0
1,70,0,25
1,70,79,15
1,70,0,80
1,70,79,40
1,70,0,80
1,72,79,0
1,72,0,360
1,70,79,240
1,70,0,25
1,75,79,15
1,75,0,80
1,75,79,40
1,75,0,80
1,75,79,40
1,75,0,80
1,75,79,40
1,75,0,80
1,72,79,40
1,72,0,40
1,74,79,0
1,74,0,55
1,72,79,25
1,72,0,80
1,70,79,0
1,70,0,25
1,72,79,15
1,72,0,80
1,70,79,0
1,70,0,200
1,67,79,3680
1,67,0,80
1,70,79,40
1,70,0,80
1,65,79,40
1,65,0,80
1,67,79,40
1,67,0,80
1,70,79,40
1,70,0,80
1,70,79,40
1,70,0,80
1,72,79,40
1,72,0,175
1,67,79,25
1,67,0,25
1,65,79,15
1,65,0,80
1,63,79,40
1,63,0,80
1,65,79,0
1,65,0,25
1,65,79,15
1,65,0,40
1,67,79,0
1,67,0,55
1,70,79,505
1,70,0,40
1,72,79,0
1,72,0,55
1,70,79,25
1,70,0,80
1,70,79,40
1,70,0,80
1,70,79,40
1,70,0,40
1,72,79,0
1,72,0,55
1,67,79,25
1,67,0,80
1,65,79,0
1,65,0,25
1,67,79,15
1,67,0,80
1,65,79,0
1,65,0,25
1,67,79,15
1,67,0,40
1,65,79,0
1,65,0,40
1,63,79,0
1,63,0,120
1,75,79,520
1,75,0,80
1,70,79,40
1,70,0,40
1,72,79,0
1,72,0,55
1,67,79,105
1,67,0,25
1,70,79,15
1,70,0,160
1,67,79,160
1,67,0,25
1,68,79,15
1,68,0,55
1,67,79,25
1,67,0,25
1,68,79,15
1,68,0,55
1,67,79,25
1,67,0,25
1,68,79,15
1,68,0,55
1,67,79,25
1,67,0,25
1,68,79,15
1,68,0,25
1,70,79,15
1,70,0,55
1,72,79,25
1,72,0,80
1,74,79,40
1,74,0,80
1,75,79,40
1,75,0,80
1,75,79,40
1,75,0,80
1,75,79,40
1,75,0,80
1,72,79,40
1,72,0,40
1,74,79,0
1,74,0,55
1,72,79,25
1,72,0,80
1,70,79,0
1,70,0,25
1,70,79,15
1,70,0,80
1,70,79,40
1,70,0,80
1,72,79,0
1,72,0,360
1,75,79,280
1,75,0,80
1,75,79,40
1,75,0,175
1,75,79,25
1,75,0,25
1,75,79,15
1,75,0,50
1,72,79,30
1,72,0,40
1,74,79,0
1,74,0,80
1,72,79,40
1,72,0,80
1,70,79,0
1,70,0,25
1,74,79,15
1,74,0,40
1,72,79,0
1,72,0,40
1,70,79,0
1,70,0,200
1,75,79,440
1,75,0,80
1,75,79,40
1,75,0,175
1,77,79,25
1,77,0,25
1,72,79,15
1,72,0,80
1,74,79,0
1,74,0,25
1,72,79,15
1,72,0,80
1,70,79,0
1,70,0,25
1,70,79,135
1,70,0,40
1,72,79,0
1,72,0,55
1,70,79,25
1,70,0,175
1,72,79,25
1,72,0,25
1,67,79,15
1,67,0,80
1,65,79,0
1,65,0,120
1,75,79,160
1,75,0,80
1,75,79,40
1,75,0,80
1,75,79,40
1,75,0,80
1,75,79,40
1,75,0,80
1,74,79,40
1,74,0,80
1,72,79,0
1,72,0,25
1,72,79,15
1,72,0,80
1,70,79,0
1,70,0,25
1,74,79,15
1,74,0,40
1,72,79,0
1,72,0,40
1,70,79,0
1,70,0,200
1,74,79,440
1,77,79,0
1,74,0,160
1,77,0,80
1,75,79,0
1,79,79,0
1,75,0,80
1,79,0,40
1,74,79,0
1,77,79,0
1,74,0,160
1,77,0,80
1,79,79,0
1,75,79,0
1,75,0,80
1,79,0,40
1,72,79,0
1,75,79,0
1,75,0,240
1,72,0,0
1,75,79,480
1,70,79,0
1,70,0,360
1,69,79,0
1,69,0,360
1,68,79,0
1,75,0,360
1,74,79,0
1,68,0,120
1,74,0,40
1,74,79,200
1,77,79,0
1,74,0,160
1,77,0,80
1,75,79,0
1,79,79,0
1,75,0,80
1,79,0,40
1,74,79,0
1,77,79,0
1,74,0,160
1,77,0,80
1,79,79,0
1,75,79,0
1,75,0,80
1,79,0,40
1,72,79,0
1,75,79,0
1,75,0,240
1,72,0,0
1,75,79,480
1,70,79,0
1,70,0,240
1,69,79,120
1,69,0,240
1,68,79,120
1,75,0,360
1,74,79,0
1,74,0,160
1,68,0,0
1,74,79,0
1,77,79,0
1,74,0,40
1,77,0,30
1,75,79,0
1,79,79,0
1,75,0,50
1,79,0,30
1,74,79,0
1,77,79,0
1,74,0,10
1,77,0,30
1,79,79,0
1,75,79,0
1,75,0,20
1,79,0,40
1,72,79,0
1,75,79,0
1,75,0,30
1,72,0,0
1,75,79,30
1,70,79,0
1,70,0,60
1,69,79,30
1,69,0,30
1,68,79,0
1,75,0,60
1,74,79,0
1,74,0,10
1,68,0,0
1,74,79,0
1,77,79,0
1,74,0,10
1,77,0,60
1,75,79,0
1,79,79,0
1,75,0,20
1,79,0,30
1,74,79,0
1,77,79,0
1,74,0,40
1,77,0,60
1,79,79,0
1,75,79,0
1,75,0,50
1,79,0,30
1,72,79,0
1,75,79,0
1,75,0,30
1,72,0,0
1,75,79,60
1,70,79,0
1,70,0,30
1,69,79,0
1,69,0,60
1,68,79,30
1,75,0,30
1,74,79,0
1,74,0,40
1,68,0,0
2,72,79,15600
2,75,79,0
2,75,0,360
2,72,0,0
2,70,79,0
2,74,79,0
2,74,0,120
2,70,0,0
2,72,79,0
2,75,79,0
2,75,0,120
2,72,0,0
2,77,79,0
2,74,79,0
2,74,0,120
2,77,0,0
2,74,79,0
2,77,79,0
2,77,0,40
2,74,0,0
2,75,79,0
2,79,79,0
2,79,0,160
2,75,0,0
2,75,79,520
2,70,79,0
2,79,79,0
2,79,0,360
2,70,0,0
2,75,0,0
2,77,79,0
2,69,79,0
2,75,79,0
2,75,0,360
2,69,0,0
2,77,0,0
2,75,79,0
2,68,79,0
2,77,79,0
2,77,0,240
2,75,0,0
2,74,79,0
2,77,79,0
2,77,0,55
2,74,0,0
2,68,0,0
2,80,79,3305
2,75,79,0
2,84,79,0
2,84,0,360
2,75,0,0
2,80,0,0
2,86,79,0
2,77,79,0
2,82,79,0
2,79,95,270
2,79,0,30
2,82,0,0
2,82,95,0
2,82,0,30
2,87,95,0
2,87,0,30
2,77,0,0
2,86,0,0
2,84,79,0
2,80,79,0
2,89,79,0
2,89,0,120
2,80,0,0
2,84,0,0
2,82,79,0
2,79,79,0
2,87,79,0
2,87,0,320
2,79,0,0
2,82,0,0
2,72,79,6040
2,72,0,55
2,70,79,25
2,70,0,25
2,72,79,15
2,72,0,55
2,70,79,25
2,70,0,25
2,72,79,15
2,72,0,55
2,70,79,25
2,70,0,25
2,65,79,15
2,72,79,0
2,72,0,25
2,65,0,0
2,67,79,15
2,74,79,0
2,74,0,55
2,67,0,0
2,68,79,25
2,75,79,0
2,75,0,80
2,68,0,0
2,70,79,40
2,77,79,0
2,77,0,80
2,70,0,0
2,72,79,40
2,79,79,0
2,79,0,80
2,72,0,0
2,72,79,40
2,79,79,0
2,79,0,80
2,72,0,0
2,72,79,40
2,79,79,0
2,79,0,80
2,72,0,0
2,68,79,40
2,75,79,0
2,75,0,40
2,68,0,0
2,70,79,0
2,77,79,0
2,77,0,55
2,70,0,0
2,68,79,25
2,75,79,0
2,75,0,80
2,68,0,0
2,67,79,0
2,74,79,0
2,74,0,25
2,67,0,0
2,67,79,15
2,74,79,0
2,74,0,80
2,67,0,0
2,67,79,40
2,74,79,0
2,74,0,80
2,67,0,0
2,68,79,0
2,75,79,0
2,75,0,360
2,68,0,0
2,70,79,280
2,79,79,0
2,79,0,80
2,70,0,0
2,70,79,40
2,79,79,0
2,79,0,175
2,70,0,0
2,70,79,25
2,79,79,0
2,79,0,25
2,70,0,0
2,70,79,15
2,79,79,0
2,79,0,55
2,70,0,0
2,69,79,25
2,75,79,0
2,75,0,40
2,77,79,0
2,77,0,80
2,69,0,0
2,69,79,40
2,75,79,0
2,69,0,55
2,68,79,5
2,74,79,0
2,75,0,20
2,74,0,20
2,68,0,0
2,70,79,20
2,77,79,0
2,70,0,25
2,77,0,15
2,68,79,0
2,75,79,0
2,75,0,40
2,68,0,0
2,68,79,0
2,74,79,0
2,74,0,200
2,68,0,0
2,72,79,440
2,79,79,0
2,79,0,80
2,72,0,0
2,72,79,40
2,79,79,0
2,79,0,175
2,72,0,0
2,74,79,25
2,82,79,0
2,82,0,25
2,74,0,0
2,68,79,15
2,75,79,0
2,68,0,55
2,75,0,25
2,70,79,0
2,77,79,0
2,77,0,25
2,70,0,0
2,68,79,15
2,75,79,0
2,68,0,55
2,75,0,25
2,67,79,0
2,74,79,0
2,74,0,25
2,67,0,0
2,67,79,135
2,74,79,0
2,67,0,25
2,74,0,15
2,68,79,0
2,75,79,0
2,75,0,55
2,68,0,0
2,67,79,25
2,74,79,0
2,74,0,175
2,67,0,0
2,68,79,25
2,75,79,0
2,75,0,25
2,68,0,0
2,67,79,15
2,70,79,0
2,70,0,55
2,67,0,25
2,65,79,0
2,68,79,0
2,68,0,120
2,65,0,0
2,70,79,160
2,79,79,0
2,79,0,80
2,70,0,0
2,70,79,40
2,79,79,0
2,79,0,80
2,70,0,0
2,70,79,40
2,79,79,0
2,79,0,80
2,70,0,0
2,69,79,40
2,79,79,0
2,79,0,80
2,69,0,0
2,69,79,40
2,77,79,0
2,77,0,80
2,75,79,0
2,75,0,40
2,69,0,0
2,69,79,0
2,75,79,0
2,69,0,55
2,75,0,25
2,68,79,0
2,74,79,0
2,74,0,25
2,68,0,0
2,68,79,15
2,77,79,0
2,77,0,40
2,75,79,0
2,75,0,40
2,74,79,0
2,74,0,200
2,68,0,0
2,82,79,3320
2,82,0,720
2,82,79,0
2,82,0,240
2,80,79,0
2,80,0,120
2,79,79,0
2,79,0,240
2,77,79,0
2,77,0,80
2,70,79,40
2,79,79,0
2,70,0,80
2,75,79,40
2,75,0,80
2,79,0,40
2,79,79,0
2,79,0,80
2,77,79,40
2,77,0,160
2,72,79,80
2,72,0,80
2,75,79,40
2,77,79,0
2,75,0,240
2,74,79,120
2,74,0,160
2,77,0,0
2,86,79,200
2,82,79,0
2,82,0,55
2,86,0,60
2,82,79,0
2,86,79,0
2,82,0,40
2,86,0,60
2,80,79,0
2,84,79,0
2,80,0,20
2,84,0,40
2,79,79,0
2,82,79,0
2,79,0,40
2,82,0,60
2,77,79,0
2,80,79,0
2,80,0,20
2,77,0,0
2,79,79,0
2,70,79,0
2,82,79,0
2,70,0,20
2,75,79,0
2,75,0,20
2,79,0,40
2,79,79,0
2,79,0,20
2,82,0,40
2,81,79,0
2,77,79,0
2,79,79,0
2,77,0,40
2,79,0,60
2,72,79,0
2,72,0,20
2,81,0,40
2,77,79,0
2,75,79,0
2,80,79,0
2,75,0,60
2,74,79,0
2,74,0,40
2,80,0,0
2,77,0,0
2,86,79,60
2,82,79,0
2,82,0,55
2,86,0,60
2,82,79,0
2,86,79,0
2,82,0,40
2,86,0,60
2,80,79,0
2,84,79,0
2,80,0,20
2,84,0,40
2,79,79,0
2,82,79,0
2,79,0,40
2,82,0,60
2,77,79,0
2,80,79,0
2,80,0,20
2,77,0,0
2,79,79,0
2,70,79,0
2,82,79,0
2,70,0,20
2,75,79,0
2,75,0,20
2,79,0,40
2,79,79,0
2,79,0,20
2,82,0,40
2,81,79,0
2,77,79,0
2,79,79,0
2,77,0,40
2,79,0,60
2,72,79,0
2,72,0,20
2,81,0,40
2,77,79,0
2,75,79,0
2,80,79,0
2,75,0,60
2,74,79,0
2,74,0,40
2,80,0,0
2,77,0,0
3,79,111,22260
3,82,111,20
3,79,0,10
3,82,0,15
3,87,111,15
3,87,0,40
3,87,111,80
3,87,0,80
3,82,111,40
3,82,0,40
3,84,111,80
3,84,0,40
3,82,111,0
3,82,0,25
3,79,111,15
3,79,0,25
3,82,111,15
3,82,0,240
3,78,111,120
3,78,0,80
3,79,111,0
3,79,0,25
3,82,111,15
3,82,0,80
3,79,111,40
3,79,0,80
3,77,111,0
3,77,0,25
3,75,111,15
3,75,0,80
3,91,111,120
3,91,0,25
3,91,111,15
3,91,0,50
3,91,111,30
3,91,0,25
3,91,111,15
3,91,0,40
3,92,111,0
3,92,0,55
3,91,111,25
3,91,0,40
3,89,111,80
3,89,0,80
3,87,111,0
3,87,0,25
3,82,111,15
3,82,0,475
4,63,79,6900
4,63,0,60
4,65,79,0
4,65,0,225
4,63,79,135
4,63,0,225
4,63,79,75
4,63,0,60
4,65,79,0
4,65,0,240
4,63,79,120
4,63,0,225
4,75,79,135
4,70,79,0
4,67,79,0
4,63,79,0
4,79,79,0
4,79,0,295
4,67,0,0
4,75,0,0
4,70,0,0
4,63,0,0
4,75,79,25
4,70,79,0
4,67,79,0
4,63,79,0
4,79,79,0
4,79,0,25
4,67,0,0
4,75,0,0
4,70,0,0
4,63,0,0
4,75,79,15
4,70,79,0
4,67,79,0
4,63,79,0
4,79,79,0
4,79,0,240
4,67,0,0
4,75,0,0
4,70,0,0
4,63,0,0
4,74,79,120
4,70,79,0
4,65,79,0
4,63,79,0
4,82,79,0
4,82,0,240
4,65,0,0
4,74,0,0
4,70,0,0
4,63,0,0
4,75,79,120
4,72,79,0
4,68,79,0
4,80,79,0
4,80,0,80
4,75,0,0
4,72,0,0
4,68,0,0
4,75,79,40
4,72,79,0
4,65,79,0
4,80,79,0
4,80,0,80
4,75,0,0
4,72,0,0
4,65,0,0
4,74,79,40
4,70,79,0
4,65,79,0
4,62,79,0
4,58,79,0
4,82,79,0
4,82,0,80
4,70,0,0
4,65,0,0
4,74,0,0
4,58,0,0
4,62,0,0
4,75,79,40
4,70,79,0
4,67,79,0
4,63,79,0
4,79,79,0
4,79,0,295
4,67,0,0
4,75,0,0
4,70,0,0
4,63,0,0
4,75,79,25
4,70,79,0
4,67,79,0
4,63,79,0
4,79,79,0
4,79,0,25
4,67,0,0
4,75,0,0
4,70,0,0
4,63,0,0
4,75,79,15
4,70,79,0
4,67,79,0
4,63,79,0
