track,note,velocity,time
3,78,102,25404
3,78,0,18
3,78,113,59
3,78,0,37
3,78,127,34
3,78,0,154
3,76,127,38
3,76,0,45
3,74,127,51
3,74,0,53
3,76,122,43
3,76,0,104
3,78,122,88
3,78,0,586
3,78,122,182
3,78,0,45
3,78,113,51
3,78,0,47
3,78,120,49
3,76,118,96
3,78,0,5
3,76,0,70
3,76,105,117
3,76,0,54
3,76,118,42
3,76,0,400
3,76,125,560
3,76,0,73
3,76,125,119
3,76,0,215
3,76,118,73
3,76,0,58
3,78,118,38
3,78,0,160
3,76,113,32
3,76,0,43
3,76,118,53
3,76,0,146
3,76,105,46
3,76,0,148
3,74,109,44
3,74,0,93
3,76,122,3
3,76,0,131
3,76,120,61
3,76,0,116
3,76,125,76
3,76,0,160
3,74,118,32
3,74,0,67
3,76,105,29
3,76,0,173
3,74,102,19
3,74,0,78
3,71,118,18
3,71,0,417
3,78,109,351
3,78,0,49
3,78,107,47
3,78,0,51
3,78,122,45
3,78,0,168
3,76,100,24
3,76,0,67
3,74,113,29
3,74,0,73
3,74,127,23
3,74,0,133
3,78,120,59
3,78,0,350
3,74,127,418
3,74,0,88
3,78,122,104
3,78,0,164
3,76,120,28
3,76,0,75
3,74,122,21
3,74,0,51
3,74,127,45
3,74,0,546
3,76,125,414
3,76,0,96
3,76,122,96
3,76,0,135
3,76,120,57
3,76,0,80
3,74,107,16
3,74,0,80
3,76,122,16
3,76,0,124
3,76,107,68
3,76,0,38
3,76,125,58
3,76,0,276
3,78,125,396
3,78,0,91
3,78,122,101
3,78,0,157
3,82,109,35
3,82,0,59
3,78,127,37
3,78,0,460
3,78,102,596
3,78,0,18
3,78,113,59
3,78,0,37
3,78,127,34
3,78,0,154
3,76,127,38
3,76,0,45
3,74,127,51
3,74,0,53
3,76,122,43
3,76,0,104
3,78,122,88
3,78,0,586
3,78,122,182
3,78,0,45
3,78,113,51
3,78,0,47
3,78,120,49
3,76,118,96
3,78,0,5
3,76,0,70
3,76,105,117
3,76,0,54
3,76,118,42
3,76,0,400
3,76,125,560
3,76,0,73
3,76,125,119
3,76,0,215
3,76,118,73
3,76,0,58
3,78,118,38
3,78,0,160
3,76,113,32
3,76,0,43
3,76,118,53
3,76,0,146
3,76,105,46
3,76,0,148
3,74,109,44
3,74,0,93
3,76,122,3
3,76,0,131
3,76,120,61
3,76,0,116
3,76,125,76
3,76,0,160
3,74,118,32
3,74,0,67
3,76,105,29
3,76,0,173
3,74,102,19
3,74,0,78
3,71,118,18
3,71,0,417
3,78,109,351
3,78,0,49
3,78,107,47
3,78,0,51
3,78,122,45
3,78,0,168
3,76,100,24
3,76,0,67
3,74,113,29
3,74,0,73
3,74,127,23
3,74,0,133
3,78,120,59
3,78,0,350
3,74,127,418
3,74,0,88
3,78,122,104
3,78,0,164
3,76,120,28
3,76,0,75
3,74,122,21
3,74,0,51
3,74,127,45
3,74,0,546
3,76,125,414
3,76,0,96
3,76,122,96
3,76,0,135
3,76,120,57
3,76,0,80
3,74,107,16
3,74,0,80
3,76,122,16
3,76,0,124
3,76,107,68
3,76,0,38
3,76,125,58
3,76,0,276
3,78,125,396
3,78,0,91
3,78,122,101
3,78,0,157
3,82,109,35
3,82,0,59
3,78,127,37
3,78,0,460
3,79,107,404
3,79,0,29
3,79,102,53
3,79,0,40
3,79,109,56
3,79,0,34
3,79,127,62
3,79,0,42
3,79,127,147
3,79,0,33
3,79,107,113
3,79,0,29
3,79,127,67
3,79,0,89
3,79,122,44
3,79,0,44
3,81,125,52
3,81,0,20
3,79,127,41
3,79,0,123
3,79,120,2
3,79,0,138
3,78,127,4
3,78,0,67
3,78,125,989
3,78,0,49
3,78,109,75
3,78,0,49
3,78,125,47
3,78,0,42
3,76,118,18
3,76,0,67
3,76,122,29
3,76,0,852
3,76,127,108
3,76,0,67
3,76,127,125
3,76,0,43
3,76,127,53
3,76,0,161
3,74,127,31
3,74,0,44
3,74,127,52
3,74,0,818
3,79,107,430
3,79,0,29
3,79,102,53
3,79,0,40
3,79,109,56
3,79,0,34
3,79,127,62
3,79,0,42
3,79,127,147
3,79,0,33
3,79,107,113
3,79,0,29
3,79,127,67
3,79,0,89
3,79,122,44
3,79,0,44
3,81,125,52
3,81,0,20
3,79,127,41
3,79,0,123
3,79,120,2
3,79,0,138
3,78,127,4
3,78,0,67
3,78,125,989
3,78,0,49
3,78,109,75
3,78,0,49
3,78,127,47
3,78,0,153
3,76,125,39
3,76,0,46
3,76,127,50
3,76,0,860
3,79,122,100
3,79,0,97
3,79,113,95
3,79,0,45
3,79,127,51
3,79,0,140
3,78,115,52
3,78,0,38
3,78,127,58
3,78,0,845
3,78,102,595
3,78,0,18
3,78,113,59
3,78,0,37
3,78,127,34
3,78,0,154
3,76,127,38
3,76,0,45
3,74,127,51
3,74,0,53
3,76,122,43
3,76,0,104
3,78,122,88
3,78,0,586
3,78,122,182
3,78,0,45
3,78,113,51
3,78,0,47
3,78,120,49
3,76,118,96
3,78,0,5
3,76,0,70
3,76,105,117
3,76,0,54
3,76,118,42
3,76,0,400
3,76,125,560
3,76,0,73
3,76,125,119
3,76,0,215
3,76,118,73
3,76,0,58
3,78,118,38
3,78,0,160
3,76,113,32
3,76,0,43
3,76,118,53
3,76,0,146
3,76,105,46
3,76,0,148
3,74,109,44
3,74,0,93
3,76,122,3
3,76,0,131
3,76,120,61
3,76,0,116
3,76,125,76
3,76,0,160
3,74,118,32
3,74,0,67
3,76,105,29
3,76,0,173
3,74,102,19
3,74,0,78
3,71,118,18
3,71,0,417
3,78,109,351
3,78,0,49
3,78,107,47
3,78,0,51
3,78,122,45
3,78,0,168
3,76,100,24
3,76,0,67
3,74,113,29
3,74,0,73
3,74,127,23
3,74,0,133
3,78,120,59
3,78,0,350
3,74,127,418
3,74,0,88
3,78,122,104
3,78,0,164
3,76,120,28
3,76,0,75
3,74,122,21
3,74,0,51
3,74,127,45
3,74,0,546
3,76,125,414
3,76,0,96
3,76,122,96
3,76,0,135
3,76,120,57
3,76,0,80
3,74,107,16
3,74,0,80
3,76,122,16
3,76,0,124
3,76,107,68
3,76,0,38
3,76,125,58
3,76,0,276
3,78,125,396
3,78,0,91
3,78,122,101
3,78,0,157
3,82,109,35
3,82,0,59
3,78,127,37
3,78,0,460
3,78,102,596
3,78,0,18
3,78,113,59
3,78,0,37
3,78,127,34
3,78,0,154
3,76,127,38
3,76,0,45
3,74,127,51
3,74,0,53
3,76,122,43
3,76,0,104
3,78,122,88
3,78,0,586
3,78,122,182
3,78,0,45
3,78,113,51
3,78,0,47
3,78,120,49
3,76,118,96
3,78,0,5
3,76,0,70
3,76,105,117
3,76,0,54
3,76,118,42
3,76,0,400
3,76,125,560
3,76,0,73
3,76,125,119
3,76,0,215
3,76,118,73
3,76,0,58
3,78,118,38
3,78,0,160
3,76,113,32
3,76,0,43
3,76,118,53
3,76,0,146
3,76,105,46
3,76,0,148
3,74,109,44
3,74,0,93
3,76,122,3
3,76,0,131
3,76,120,61
3,76,0,116
3,76,125,76
3,76,0,160
3,74,118,32
3,74,0,67
3,76,105,29
3,76,0,173
3,74,102,19
3,74,0,78
3,71,118,18
3,71,0,417
3,78,109,351
3,78,0,49
3,78,107,47
3,78,0,51
3,78,122,45
3,78,0,168
3,76,100,24
3,76,0,67
3,74,113,29
3,74,0,73
3,74,127,23
3,74,0,133
3,78,120,59
3,78,0,350
3,74,127,418
3,74,0,88
3,78,122,104
3,78,0,164
3,76,120,28
3,76,0,75
3,74,122,21
3,74,0,51
3,74,127,45
3,74,0,546
3,76,125,414
3,76,0,96
3,76,122,96
3,76,0,135
3,76,120,57
3,76,0,80
3,74,107,16
3,74,0,80
3,76,122,16
3,76,0,124
3,76,107,68
3,76,0,38
3,76,125,58
3,76,0,276
3,78,125,396
3,78,0,91
3,78,122,101
3,78,0,157
3,82,109,35
3,82,0,59
3,78,127,37
3,78,0,460
3,79,107,404
3,79,0,29
3,79,102,53
3,79,0,40
3,79,109,56
3,79,0,34
3,79,127,62
3,79,0,42
3,79,127,147
3,79,0,33
3,79,107,113
3,79,0,29
3,79,127,67
3,79,0,89
3,79,122,44
3,79,0,44
3,81,125,52
3,81,0,20
3,79,127,41
3,79,0,123
3,79,120,2
3,79,0,138
3,78,127,4
3,78,0,67
3,78,125,989
3,78,0,49
3,78,109,75
3,78,0,49
3,78,125,47
3,78,0,42
3,76,118,18
3,76,0,67
3,76,122,29
3,76,0,852
3,76,127,108
3,76,0,67
3,76,127,125
3,76,0,43
3,76,127,53
3,76,0,161
3,74,127,31
3,74,0,44
3,74,127,52
3,74,0,818
3,79,107,430
3,79,0,29
3,79,102,53
3,79,0,40
3,79,109,56
3,79,0,34
3,79,127,62
3,79,0,42
3,79,127,147
3,79,0,33
3,79,107,113
3,79,0,29
3,79,127,67
3,79,0,89
3,79,122,44
3,79,0,44
3,81,125,52
3,81,0,20
3,79,127,41
3,79,0,123
3,79,120,2
3,79,0,138
3,78,127,4
3,78,0,67
3,78,125,989
3,78,0,49
3,78,109,75
3,78,0,49
3,78,127,47
3,78,0,153
3,76,125,39
3,76,0,46
3,76,127,50
3,76,0,860
3,79,122,100
3,79,0,97
3,79,113,95
3,79,0,45
3,79,127,51
3,79,0,140
3,78,115,52
3,78,0,38
3,78,127,58
3,78,0,845
3,78,102,595
3,78,0,18
3,78,113,59
3,78,0,37
3,78,127,34
3,78,0,154
3,76,127,38
3,76,0,45
3,74,127,51
3,74,0,53
3,76,122,43
3,76,0,104
3,78,122,88
3,78,0,586
3,78,122,182
3,78,0,45
3,78,113,51
3,78,0,47
3,78,120,49
3,76,118,96
3,78,0,5
3,76,0,70
3,76,105,117
3,76,0,54
3,76,118,42
3,76,0,400
3,76,125,560
3,76,0,73
3,76,125,119
3,76,0,215
3,76,118,73
3,76,0,58
3,78,118,38
3,78,0,160
3,76,113,32
3,76,0,43
3,76,118,53
3,76,0,146
3,76,105,46
3,76,0,148
3,74,109,44
3,74,0,93
3,76,122,3
3,76,0,131
3,76,120,61
3,76,0,116
3,76,125,76
3,76,0,160
3,74,118,32
3,74,0,67
3,76,105,29
3,76,0,173
3,74,102,19
3,74,0,78
3,71,118,18
3,71,0,417
3,78,109,351
3,78,0,49
3,78,107,47
3,78,0,51
3,78,122,45
3,78,0,168
3,76,100,24
3,76,0,67
3,74,113,29
3,74,0,73
3,74,127,23
3,74,0,133
3,78,120,59
3,78,0,350
3,74,127,418
3,74,0,88
3,78,122,104
3,78,0,164
3,76,120,28
3,76,0,75
3,74,122,21
3,74,0,51
3,74,127,45
3,74,0,546
3,76,125,414
3,76,0,96
3,76,122,96
3,76,0,135
3,76,120,57
3,76,0,80
3,74,107,16
3,74,0,80
3,76,122,16
3,76,0,124
3,76,107,68
3,76,0,38
3,76,125,58
3,76,0,276
3,78,125,396
3,78,0,91
3,78,122,101
3,78,0,157
3,82,109,35
3,82,0,59
3,78,127,37
3,78,0,460
3,78,102,596
3,78,0,18
3,78,113,59
3,78,0,37
3,78,127,34
3,78,0,154
3,76,127,38
3,76,0,45
3,74,127,51
3,74,0,53
3,76,122,43
3,76,0,104
3,78,122,88
3,78,0,586
3,78,122,182
3,78,0,45
3,78,113,51
3,78,0,47
3,78,120,49
3,76,118,96
3,78,0,5
3,76,0,70
3,76,105,117
3,76,0,54
3,76,118,42
3,76,0,400
3,76,125,560
3,76,0,73
3,76,125,119
3,76,0,215
3,76,118,73
3,76,0,58
3,78,118,38
3,78,0,160
3,76,113,32
3,76,0,43
3,76,118,53
3,76,0,146
3,76,105,46
3,76,0,148
3,74,109,44
3,74,0,93
3,76,122,3
3,76,0,131
3,76,120,61
3,76,0,116
3,76,125,76
3,76,0,160
3,74,118,32
3,74,0,67
3,76,105,29
3,76,0,173
3,74,102,19
3,74,0,78
3,71,118,18
3,71,0,417
3,78,109,351
3,78,0,49
3,78,107,47
3,78,0,51
3,78,122,45
3,78,0,168
3,76,100,24
3,76,0,67
3,74,113,29
3,74,0,73
3,74,127,23
3,74,0,133
3,78,120,59
3,78,0,350
3,74,127,418
3,74,0,88
3,78,122,104
3,78,0,164
3,76,120,28
3,76,0,75
3,74,122,21
3,74,0,51
3,74,127,45
3,74,0,546
3,76,125,414
3,76,0,96
3,76,122,96
3,76,0,135
3,76,120,57
3,76,0,80
3,74,107,16
3,74,0,80
3,76,122,16
3,76,0,124
3,76,107,68
3,76,0,38
3,76,125,58
3,76,0,276
3,78,125,396
3,78,0,91
3,78,122,101
3,78,0,157
3,82,109,35
3,82,0,59
3,78,127,37
3,78,0,96
4,35,112,636
4,35,0,1529
4,30,94,7
4,30,0,1529
4,33,101,7
4,33,0,1529
4,40,103,7
4,40,0,1529
4,31,107,7
4,31,0,1529
4,38,97,7
4,38,0,1529
4,40,105,7
4,40,0,1529
4,30,97,7
4,30,0,1529
4,35,112,7
4,35,0,1529
4,30,94,7
4,30,0,1529
4,33,101,7
4,33,0,1529
4,40,103,7
4,40,0,1529
4,31,107,7
4,31,0,1529
4,38,97,7
4,38,0,1529
4,40,105,7
4,40,0,1529
4,30,97,7
4,30,0,1337
4,47,110,199
4,47,0,40
4,47,103,56
4,47,0,75
4,42,97,21
4,42,0,76
4,47,114,20
4,47,0,59
4,35,117,229
4,35,0,72
4,42,97,24
4,42,0,55
4,47,110,41
4,47,0,72
4,35,101,24
4,35,0,63
4,42,107,33
4,42,0,266
4,42,110,310
4,42,0,48
4,42,110,48
4,42,0,95
4,49,82,1
4,49,0,74
4,54,114,22
4,54,0,72
4,46,71,216
4,46,0,93
4,49,82,3
4,49,0,76
4,54,99,20
4,49,86,96
4,54,0,34
4,49,0,52
4,42,112,10
4,42,0,366
4,33,112,210
4,33,0,45
4,33,114,51
4,33,0,89
4,40,99,7
4,40,0,61
4,45,117,35
4,45,0,70
4,33,117,314
4,33,0,88
4,45,114,8
4,45,0,80
4,33,114,16
4,33,0,52
4,40,110,44
4,40,0,220
4,40,117,356
4,40,0,44
4,40,117,52
4,40,0,87
4,47,101,9
4,47,0,69
4,52,119,27
4,52,0,56
4,47,112,328
4,47,0,68
4,52,107,28
4,52,0,59
4,47,101,37
4,47,0,60
4,40,119,36
4,40,0,345
4,43,112,231
4,43,0,49
4,43,112,47
4,43,0,94
4,50,82,2
4,50,0,85
4,55,117,11
4,55,0,62
4,50,101,322
4,50,0,72
4,55,103,24
4,55,0,72
4,50,103,24
4,50,0,54
4,43,114,42
4,43,0,397
4,43,101,83
4,43,0,89
4,38,112,7
4,45,99,192
4,38,0,8
4,45,0,35
4,50,101,53
4,50,0,68
4,45,99,316
4,45,0,53
4,50,94,43
4,50,0,70
4,45,103,26
4,45,0,70
4,38,92,26
4,38,0,240
4,38,112,48
4,38,0,92
4,50,97,4
4,50,0,72
4,38,101,24
4,38,0,64
4,40,110,32
4,40,0,43
4,40,94,53
4,40,0,91
4,38,101,5
4,38,0,77
4,40,117,19
4,40,0,64
4,40,119,224
4,40,0,75
4,35,103,21
4,35,0,80
4,40,103,16
4,40,0,76
4,28,112,20
4,28,0,63
4,40,110,33
4,40,0,368
4,42,92,208
4,42,0,52
4,42,97,44
4,46,72,96
4,42,0,2
4,46,0,81
4,49,107,13
4,49,0,68
4,42,103,316
4,42,0,74
4,46,107,22
4,46,0,72
4,42,99,24
4,42,0,64
4,37,112,32
4,37,0,74
4,30,112,118
4,30,0,229
4,47,110,155
4,47,0,40
4,47,103,56
4,47,0,75
4,42,97,21
4,42,0,76
4,47,114,20
4,47,0,59
4,35,117,229
4,35,0,72
4,42,97,24
4,42,0,55
4,47,110,41
4,47,0,72
4,35,101,24
4,35,0,63
4,42,107,33
4,42,0,266
4,42,110,310
4,42,0,48
4,42,110,48
4,42,0,95
4,49,82,1
4,49,0,74
4,54,114,22
4,54,0,72
4,46,71,216
4,46,0,93
4,49,82,3
4,49,0,76
4,54,99,20
4,49,86,96
4,54,0,34
4,49,0,52
4,42,112,10
4,42,0,366
4,33,112,210
4,33,0,45
