track,note,velocity,time
1,36,115,18432
1,36,119,188
1,31,95,182
1,33,115,84
1,36,107,176
1,36,115,134
1,31,99,296
1,33,119,114
1,35,119,134
1,35,123,146
1,28,107,296
1,31,115,100
1,35,115,130
1,35,115,166
1,28,111,328
1,31,119,120
1,33,119,116
1,33,123,188
1,28,115,302
1,31,115,132
1,33,119,104
1,33,123,150
1,26,111,326
1,28,115,116
1,31,119,182
1,31,127,186
1,26,99,290
1,28,119,116
1,31,115,144
1,31,123,160
1,28,111,322
1,31,115,110
1,29,115,88
1,29,127,238
1,29,127,336
1,29,127,246
1,31,127,208
1,31,127,516
1,31,127,112
1,33,127,112
1,33,127,180
1,33,127,344
1,31,127,248
1,31,127,212
1,31,127,512
1,33,127,192
1,31,127,180
1,29,127,68
1,29,127,154
1,29,127,376
1,31,127,208
1,31,127,198
1,31,127,534
1,43,127,192
1,36,115,196
1,36,119,190
1,31,95,180
1,33,115,106
1,36,107,180
1,36,115,132
1,31,99,296
1,33,119,112
1,35,119,134
1,35,123,150
1,28,107,294
1,31,115,102
1,35,115,128
1,35,115,160
1,28,111,318
1,31,119,114
1,33,119,120
1,33,123,184
1,28,115,304
1,31,115,132
1,33,119,104
1,33,123,152
1,26,111,328
1,28,115,114
1,31,119,180
1,31,127,184
1,26,99,290
1,28,119,114
1,31,115,168
1,31,123,160
1,28,111,324
1,31,115,118
1,29,115,78
1,29,127,238
1,29,127,336
1,29,127,240
1,31,127,206
1,31,127,516
1,31,127,114
1,33,127,112
1,33,127,186
1,33,127,348
1,31,127,246
1,31,127,210
1,31,127,510
1,33,127,192
1,31,127,176
1,29,127,62
1,29,127,146
1,29,127,372
1,31,127,208
1,31,127,198
1,31,127,532
1,43,127,192
1,29,123,200
1,29,119,56
1,29,119,84
1,29,119,72
1,29,123,64
1,29,119,68
1,29,115,82
1,31,119,66
1,31,115,92
1,31,115,78
1,31,119,62
1,31,115,86
1,31,115,78
1,31,115,86
1,31,115,86
1,31,115,100
1,33,123,82
1,33,119,90
1,33,119,102
1,33,123,100
1,38,119,68
1,38,123,76
1,38,119,88
1,31,119,64
1,31,115,44
1,31,111,82
1,31,111,80
1,31,111,98
1,31,123,98
1,31,115,94
1,31,111,92
1,33,123,70
1,29,123,18
1,29,111,66
1,29,111,80
1,29,111,98
1,29,111,100
1,29,107,100
1,29,111,100
1,33,123,98
1,33,115,104
1,33,119,96
1,33,115,100
1,33,119,94
1,33,111,98
1,33,107,98
1,33,115,96
1,33,115,98
1,38,123,96
1,36,123,50
1,29,123,960
1,34,127,570
1,29,123,170
1,29,119,66
1,29,119,78
1,29,119,60
1,29,123,66
1,29,119,64
1,29,115,80
1,31,119,68
1,31,115,92
1,31,115,96
1,31,119,64
1,31,115,84
1,31,115,84
1,31,115,86
1,31,115,80
1,31,115,92
1,33,123,78
1,33,119,88
1,33,119,96
1,33,123,96
1,38,119,64
1,38,123,80
1,38,119,78
1,31,119,68
1,31,115,58
1,31,111,82
1,31,111,98
1,31,111,94
1,31,123,98
1,31,115,100
1,31,111,98
1,33,123,64
1,29,123,18
1,29,111,80
1,29,111,82
1,29,111,98
1,29,111,100
1,29,107,96
1,29,111,100
1,33,123,96
1,33,115,104
1,33,119,96
1,33,115,100
1,33,119,94
1,33,111,94
1,33,107,96
1,33,115,94
1,33,115,96
1,38,123,96
1,36,123,48
1,29,123,960
1,34,127,570
1,29,115,1708
1,29,127,238
1,29,127,336
1,29,127,246
1,31,127,206
1,31,127,516
1,31,127,118
1,33,127,114
1,33,127,178
1,33,127,344
1,31,127,240
1,31,127,214
1,31,127,514
1,33,127,192
1,31,127,182
1,29,127,66
1,29,127,158
1,29,127,374
1,31,127,210
1,31,127,188
1,31,127,532
1,43,127,192
1,38,115,198
1,38,119,192
1,33,95,182
1,35,115,82
1,38,107,182
1,38,115,132
1,33,99,288
1,35,119,116
1,37,119,130
1,37,123,152
1,30,107,294
1,33,115,102
1,37,115,138
1,37,115,160
1,30,111,320
1,33,119,112
1,35,119,110
1,35,123,176
1,30,115,306
1,33,115,134
1,35,119,102
1,35,123,152
1,28,111,328
1,30,115,114
1,33,119,176
1,33,127,172
1,28,99,296
1,30,119,114
1,33,115,154
1,33,123,160
1,30,111,330
1,33,115,112
1,31,115,88
1,31,127,240
1,31,127,346
1,31,127,246
1,33,127,214
1,33,127,510
1,33,127,110
1,35,127,118
1,35,127,188
1,35,127,348
1,33,127,246
1,33,127,214
1,33,127,516
1,35,127,192
1,33,127,190
1,31,127,64
1,31,127,144
1,31,127,378
1,33,127,212
1,33,127,190
1,33,127,526
1,45,127,192
1,31,123,194
1,31,119,64
1,31,119,78
1,31,119,72
1,31,123,68
1,31,119,64
1,31,115,84
1,33,119,68
1,33,115,96
1,33,115,96
1,33,119,64
1,33,115,86
1,33,115,82
1,33,115,88
1,33,115,100
1,33,115,98
1,35,123,80
1,35,119,98
1,35,119,98
1,35,123,100
1,40,119,66
1,40,123,88
1,40,119,82
1,33,119,66
1,33,115,62
1,33,111,82
1,33,111,98
1,33,111,100
1,33,123,100
1,33,115,100
1,33,111,96
1,35,123,66
1,31,123,18
1,31,111,74
1,31,111,84
1,31,111,96
1,31,111,94
1,31,107,100
1,31,111,94
1,35,123,96
1,35,115,104
1,35,119,98
1,35,115,102
1,35,119,100
1,35,111,96
1,35,107,96
1,35,115,96
1,35,115,98
1,40,123,94
1,38,123,50
1,31,123,6
1,36,127,576
1,31,123,174
1,31,119,64
1,31,119,80
1,31,119,68
1,31,123,62
1,31,119,64
1,31,115,80
1,33,119,68
1,33,115,82
1,33,115,100
1,33,119,68
1,33,115,84
1,33,115,82
1,33,115,80
1,33,115,98
1,33,115,100
1,35,123,80
1,35,119,94
1,35,119,96
1,35,123,98
1,40,119,66
1,40,123,88
1,40,119,80
1,33,119,64
1,33,115,74
1,33,111,80
1,33,111,80
1,33,111,100
1,33,123,100
1,33,115,96
1,33,111,98
1,35,123,68
1,31,123,22
1,31,111,76
1,31,111,82
1,31,111,96
1,31,111,96
1,31,107,98
1,31,111,98
1,35,123,92
1,35,115,106
1,35,119,96
1,35,115,98
1,35,119,94
1,35,111,98
1,35,107,96
1,35,115,98
1,35,115,98
1,40,123,102
1,38,123,52
1,31,123,8
1,36,127,576
1,31,115,1704
1,31,127,238
1,31,127,342
1,31,127,246
1,33,127,208
1,33,127,514
1,33,127,114
1,35,127,124
1,35,127,178
1,35,127,338
1,33,127,248
1,33,127,206
1,33,127,518
1,35,127,192
1,33,127,178
1,31,127,66
1,31,127,156
1,31,127,372
1,33,127,214
1,33,127,206
1,33,127,532
1,45,127,192
1,31,115,200
1,31,127,236
1,31,127,342
1,31,127,244
1,33,127,214
1,33,127,514
1,33,127,114
1,35,127,122
1,35,127,186
1,35,127,336
1,33,127,240
1,33,127,210
1,33,127,516
1,35,127,192
1,33,127,178
1,31,127,68
1,31,127,158
1,31,127,366
1,33,127,208
1,33,127,196
1,33,127,532
1,45,127,192
1,31,115,196
1,31,127,240
1,31,127,336
1,31,127,244
1,33,127,208
1,33,127,522
1,33,127,118
1,35,127,118
1,35,127,188
1,35,127,342
1,33,127,240
1,33,127,206
1,33,127,514
1,35,127,192
1,33,127,178
1,31,127,68
1,31,127,156
1,31,127,368
1,33,127,210
1,33,127,190
1,33,127,532
1,45,127,192
1,31,123,198
1,31,119,62
1,31,119,80
1,31,119,64
1,31,123,62
1,31,119,64
1,31,115,86
1,33,119,68
1,33,115,94
1,33,115,100
1,33,119,66
1,33,115,82
1,33,115,82
1,33,115,86
1,33,115,82
1,33,115,96
1,35,123,78
1,35,119,84
1,35,119,96
1,35,123,100
1,40,119,62
1,40,123,68
1,40,119,78
1,33,119,68
1,33,115,50
1,33,111,80
1,33,111,100
1,33,111,102
1,33,123,98
1,33,115,96
1,33,111,98
1,35,123,50
1,31,123,20
1,31,111,74
1,31,111,78
1,31,111,96
1,31,111,94
1,31,107,98
1,31,111,100
1,35,123,102
1,35,115,98
1,35,119,100
1,35,115,106
1,35,119,98
1,35,111,94
1,35,107,100
1,35,115,96
1,35,115,98
1,40,123,98
1,38,123,52
1,31,123,960
1,36,127,0
1,31,115,176
1,31,127,238
1,31,127,346
1,31,127,246
1,33,127,214
1,33,127,514
1,33,127,112
1,35,127,122
1,35,127,184
1,35,127,346
1,33,127,244
1,33,127,212
1,33,127,516
1,35,127,192
1,33,127,180
1,31,127,66
1,31,127,144
1,31,127,364
1,33,127,210
1,33,127,206
1,33,127,536
1,45,127,192
1,36,115,194
2,60,60,1536
2,53,71,0
2,55,79,6
2,52,31,1536
2,57,59,0
2,55,51,0
2,53,59,126
2,57,59,0
2,41,59,0
2,43,51,1230
2,55,51,0
2,57,43,38
2,41,71,0
2,53,43,0
2,43,71,1526
2,55,71,0
2,57,51,1504
2,52,51,0
2,45,51,0
2,43,59,1490
2,55,59,0
2,53,43,1464
2,41,43,0
2,57,43,0
2,55,51,1494
2,43,51,0
2,64,24,290
2,55,40,0
2,60,59,0
2,59,63,26
2,57,71,42
2,60,71,0
2,55,59,3042
2,59,43,0
2,60,60,24
2,53,71,0
2,55,79,16
2,52,31,1536
2,57,59,0
2,55,51,1502
2,53,59,130
2,57,59,0
2,41,59,0
2,43,51,4
2,55,51,0
2,64,24,0
2,55,43,0
2,60,59,0
2,59,63,30
2,57,71,40
2,60,71,0
2,55,59,3044
2,59,43,0
2,60,60,22
2,53,71,0
2,55,79,14
2,52,31,1536
2,57,59,0
2,55,51,4
2,53,59,138
2,57,59,0
2,41,59,0
2,43,51,1234
2,55,51,0
2,53,115,4
2,57,119,0
2,60,115,0
2,59,115,88
2,55,115,0
2,62,103,0
2,59,127,124
2,58,127,0
2,57,123,20
2,55,111,288
2,60,111,14
2,52,127,0
2,54,115,24
2,62,39,0
2,59,87,2
2,55,107,0
2,65,111,78
2,60,119,0
2,57,123,0
2,64,91,944
2,57,123,82
2,52,115,0
2,60,107,0
2,57,123,100
2,65,127,0
2,62,123,0
2,64,115,34
2,55,123,0
2,60,127,0
2,57,123,70
2,53,127,0
2,60,123,0
2,62,115,52
2,58,119,0
2,53,123,0
2,53,115,922
2,57,119,0
2,60,115,0
2,59,115,2
2,55,115,0
2,62,103,0
2,59,127,124
2,58,127,0
2,57,123,14
2,55,111,288
2,60,111,20
2,52,127,0
2,54,115,24
2,62,39,0
2,59,87,64
2,55,107,0
2,65,111,84
2,60,119,0
2,57,123,0
2,64,91,932
2,57,123,92
2,52,115,0
2,60,107,0
2,65,127,94
2,62,123,0
2,57,123,0
2,64,115,30
2,55,123,0
2,60,127,0
2,57,123,64
2,53,127,0
2,60,123,0
2,62,115,54
2,58,119,0
2,53,123,0
2,60,60,1548
2,53,71,0
2,55,79,10
2,52,31,1536
2,57,59,0
2,55,51,1508
2,53,59,126
2,57,59,0
2,41,59,0
2,43,51,1234
2,55,51,0
2,66,24,0
2,57,40,0
2,62,59,0
2,61,63,30
2,59,71,44
2,62,71,0
2,57,59,3046
2,61,43,0
2,62,60,30
2,55,71,0
2,57,79,10
2,54,31,1536
2,59,59,0
2,57,51,14
2,55,59,142
2,59,59,0
2,43,59,0
2,45,51,1232
2,57,51,0
2,55,115,2
2,59,119,0
2,62,115,0
2,64,103,0
2,61,115,0
2,57,115,0
2,61,127,124
2,60,127,0
2,59,123,18
2,57,111,288
2,54,127,44
2,62,111,0
2,56,115,18
2,64,39,0
2,61,87,4
2,57,107,0
2,67,111,76
2,62,119,0
2,59,123,0
2,66,91,938
2,59,123,88
2,54,115,0
2,62,107,0
2,59,123,96
2,67,127,0
2,64,123,0
2,66,115,32
2,57,123,0
2,62,127,0
2,59,123,68
2,55,127,0
2,62,123,0
2,64,115,52
2,60,119,0
2,55,123,0
2,55,115,920
2,59,119,0
2,62,115,0
2,64,103,96
2,61,115,0
2,57,115,0
2,61,127,116
2,60,127,0
2,59,123,12
2,57,111,288
2,54,127,36
2,62,111,0
2,56,115,12
2,64,39,0
2,61,87,6
2,57,107,0
2,67,111,78
2,62,119,0
2,59,123,0
2,66,91,0
2,59,123,92
2,54,115,0
2,62,107,0
2,64,123,98
2,59,123,0
2,67,127,0
2,57,123,52
2,62,127,0
2,66,115,0
2,59,123,64
2,55,127,0
2,62,123,0
2,64,115,52
2,60,119,0
2,55,123,0
2,62,60,1548
2,55,71,0
2,57,79,14
2,54,31,1536
2,59,59,0
2,57,51,2
2,55,59,130
2,59,59,0
2,43,59,0
2,45,51,0
2,57,51,0
2,62,60,0
2,55,71,0
2,57,79,10
2,54,31,1536
2,59,59,0
2,57,51,1506
2,55,59,138
2,59,59,0
2,43,59,0
2,45,51,1232
2,57,51,0
2,59,43,40
2,43,71,0
2,55,43,0
2,45,71,1530
2,57,71,0
2,59,51,1520
2,54,51,0
2,47,51,0
2,45,59,1494
2,57,59,0
2,55,43,1470
2,43,43,0
2,59,43,0
2,57,51,1490
2,45,51,0
2,55,115,292
2,59,119,0
2,62,115,0
2,61,115,0
2,57,115,0
2,64,103,0
2,61,127,126
2,60,127,0
2,59,123,16
2,57,111,288
2,54,127,20
2,62,111,0
2,56,115,16
2,64,39,0
2,61,87,2
2,57,107,0
2,67,111,78
2,62,119,0
2,59,123,0
2,66,91,934
2,59,123,92
2,54,115,0
2,62,107,0
2,59,123,100
2,67,127,0
2,64,123,0
2,66,115,32
2,57,123,0
2,62,127,0
2,59,123,62
2,55,127,0
2,62,123,0
2,64,115,52
2,60,119,0
2,55,123,0
2,62,60,2
2,55,71,0
2,57,79,14
2,54,31,1536
2,59,59,0
2,57,51,8
2,55,59,136
2,59,59,0
2,43,59,0
2,45,51,1232
2,57,51,0
2,55,111,4
2,62,111,0
3,48,127,1536
3,47,127,384
3,48,127,184
3,47,127,0
3,48,127,384
3,47,127,354
3,48,127,370
3,52,127,368
3,50,127,178
3,48,127,338
3,47,127,376
3,48,127,188
3,47,127,356
3,48,127,352
3,47,127,16
3,48,127,384
3,52,127,160
3,50,127,144
3,48,127,160
3,48,127,80
3,47,127,0
3,48,127,192
3,47,127,360
3,48,127,366
3,55,127,340
3,50,127,0
3,48,127,0
3,47,127,370
3,48,127,188
3,47,127,358
3,48,127,352
3,47,127,372
3,48,127,358
3,52,127,336
3,50,127,178
3,48,127,0
3,47,127,6
3,48,127,192
3,47,127,336
3,48,127,354
3,47,127,354
3,48,127,356
3,55,127,2
3,48,127,576
3,47,127,288
3,48,127,186
3,47,127,356
3,48,127,364
3,50,127,358
3,55,127,0
3,52,99,322
3,64,103,96
3,52,83,6
3,62,95,96
3,52,79,192
3,55,91,66
3,60,99,94
3,52,83,34
3,64,95,98
3,52,91,4
3,62,95,100
3,52,83,0
3,55,83,100
3,60,99,118
3,52,91,212
3,64,103,96
3,52,91,86
3,62,99,96
3,52,71,192
3,55,91,86
3,59,91,112
3,52,87,34
3,64,107,80
3,52,91,192
3,62,103,98
3,52,79,20
3,55,107,120
3,59,103,38
3,52,91,244
3,64,99,98
3,52,75,34
3,62,99,98
3,52,83,2
3,57,87,98
3,60,95,120
3,52,87,16
3,64,95,98
3,52,83,22
3,62,99,112
3,52,87,24
3,57,99,116
3,60,95,98
3,52,95,228
3,64,99,98
3,52,79,64
3,62,103,116
3,52,71,36
3,55,95,116
3,59,95,96
3,52,87,2
3,64,95,94
3,52,79,192
3,62,99,114
3,52,83,4
3,55,91,110
3,59,99,92
3,48,127,78
3,47,127,0
3,48,127,192
3,47,127,352
3,48,127,378
3,47,127,376
3,48,127,368
3,52,127,374
3,50,127,180
3,48,127,336
3,47,127,368
3,48,127,186
3,47,127,360
3,48,127,352
3,47,127,20
3,48,127,384
3,52,127,162
3,50,127,146
3,48,127,164
3,48,127,84
3,47,127,4
3,48,127,192
3,47,127,362
3,48,127,368
3,55,127,336
3,50,127,0
3,52,99,182
3,64,103,94
3,52,83,192
3,62,95,98
3,52,79,192
3,55,91,70
3,60,99,98
3,52,83,30
3,64,95,96
3,52,91,6
3,62,95,98
3,52,83,192
3,55,83,96
3,60,99,118
3,52,91,208
3,64,103,94
