track,note,velocity,time
1,69,120,1440
1,71,120,4
1,48,120,4
1,72,120,0
1,60,120,4
1,67,120,4
1,72,120,4
1,60,120,4
1,67,120,4
1,72,120,4
1,60,120,4
1,59,120,4
1,67,120,0
1,72,120,4
1,60,120,4
1,67,120,4
1,72,120,4
1,60,120,4
1,67,120,4
1,72,120,4
1,57,120,4
1,60,120,0
1,65,120,4
1,72,120,4
1,60,120,4
1,65,120,4
1,72,120,4
1,60,120,4
1,65,120,4
1,53,120,4
1,72,120,0
1,60,120,4
1,65,120,4
1,72,120,4
1,60,120,4
1,65,120,4
1,72,120,4
1,69,120,4
1,60,120,0
1,71,120,4
1,72,120,4
1,36,120,0
1,60,120,4
1,67,120,4
1,72,120,4
1,60,120,4
1,67,120,4
1,72,120,4
1,60,120,4
1,35,120,4
1,67,120,0
1,72,120,4
1,60,120,4
1,67,120,4
1,72,120,4
1,60,120,4
1,67,120,4
1,72,120,4
1,33,120,4
1,60,120,0
1,65,120,4
1,72,120,4
1,60,120,4
1,65,120,4
1,72,120,4
1,60,120,4
1,65,120,4
1,29,120,4
1,72,120,0
1,60,120,4
1,65,120,4
1,72,120,4
1,60,120,4
1,65,120,4
1,72,120,4
1,60,120,4
1,36,120,4
1,60,120,96
1,62,120,4
1,67,120,0
1,60,120,4
1,31,120,4
1,67,120,0
1,62,120,0
1,67,120,4
1,64,120,0
1,60,120,4
1,36,120,4
1,67,120,0
1,62,120,0
1,60,120,4
1,67,120,4
1,62,120,0
1,60,120,4
1,31,120,4
1,62,120,0
1,67,120,0
1,67,120,4
1,64,120,0
1,60,120,4
1,61,120,4
1,34,120,4
1,65,120,0
1,62,120,0
1,70,120,4
1,74,120,0
1,34,120,4
1,74,120,0
1,70,120,0
1,70,120,4
1,74,120,0
1,29,120,4
1,72,120,0
1,69,120,0
1,67,120,4
1,65,120,4
1,29,120,4
1,72,120,0
1,65,120,0
1,60,120,4
1,62,120,4
1,36,120,4
1,64,120,0
1,67,120,0
1,60,120,4
1,67,120,4
1,62,120,0
1,60,120,4
1,31,120,4
1,67,120,0
1,62,120,0
1,64,120,4
1,67,120,0
1,60,120,4
1,36,120,4
1,67,120,0
1,62,120,0
1,60,120,4
1,62,120,4
1,67,120,0
1,60,120,4
1,43,120,4
1,67,120,0
1,62,120,0
1,64,120,4
1,67,120,0
1,60,120,4
1,61,120,4
1,34,120,4
1,65,120,0
1,62,120,0
1,62,120,4
1,65,120,0
1,34,120,4
1,65,120,0
1,62,120,0
1,62,120,4
1,65,120,0
1,31,120,4
1,62,120,0
1,59,120,0
1,57,120,4
1,55,120,4
1,31,120,4
1,62,120,0
1,55,120,0
1,60,120,4
1,62,120,4
1,36,120,4
1,64,120,0
1,67,120,0
1,60,120,4
1,62,120,4
1,67,120,0
1,60,120,4
1,31,120,4
1,67,120,0
1,62,120,0
1,64,120,4
1,67,120,0
1,60,120,4
1,36,120,4
1,62,120,0
1,67,120,0
1,60,120,4
1,67,120,4
1,62,120,0
1,60,120,4
1,31,120,4
1,62,120,0
1,67,120,0
1,67,120,4
1,64,120,0
1,60,120,4
1,61,120,4
1,34,120,4
1,65,120,0
1,62,120,0
1,70,120,4
1,67,120,0
1,34,120,4
1,70,120,0
1,67,120,0
1,67,120,4
1,70,120,0
1,29,120,4
1,69,120,0
1,65,120,0
1,67,120,4
1,65,120,4
1,29,120,4
1,65,120,0
1,72,120,0
1,69,120,4
1,41,120,4
1,68,120,4
1,69,120,4
1,71,120,4
1,74,120,4
1,42,120,0
1,72,120,4
1,71,120,4
1,69,120,4
1,67,120,4
1,43,120,0
1,66,120,4
1,67,120,4
1,68,120,4
1,69,120,4
1,45,120,0
1,67,120,4
1,65,120,4
1,64,120,4
1,62,120,4
1,38,120,0
1,61,120,4
1,62,120,4
1,64,120,4
1,67,120,4
1,43,120,0
1,65,120,4
1,64,120,4
1,62,120,4
1,60,120,4
1,36,120,0
1,43,120,4
1,36,120,4
1,48,120,4
1,72,120,0
1,60,120,4
1,67,120,4
1,72,120,4
1,60,120,4
1,67,120,4
1,72,120,4
1,60,120,4
1,59,120,4
1,67,120,0
1,72,120,4
1,60,120,4
1,67,120,4
1,72,120,4
1,60,120,4
1,67,120,4
1,72,120,4
1,57,120,4
1,60,120,0
1,65,120,4
1,72,120,4
1,60,120,4
1,65,120,4
1,72,120,4
1,60,120,4
1,65,120,4
1,53,120,4
1,72,120,0
1,60,120,4
1,65,120,4
1,72,120,4
1,60,120,4
1,65,120,4
1,72,120,4
1,60,120,4
1,72,120,4
1,36,120,0
1,60,120,4
1,67,120,4
1,72,120,4
1,60,120,4
1,67,120,4
1,72,120,4
1,60,121,4
1,35,121,4
1,67,121,0
1,72,121,4
1,60,121,4
1,67,121,4
1,72,121,4
1,60,121,4
1,67,121,4
1,72,121,4
1,33,121,4
1,60,121,0
1,65,121,4
1,72,121,4
1,60,121,4
1,65,121,4
1,72,121,4
1,60,121,4
1,65,121,4
1,29,121,4
1,72,121,0
1,60,121,4
1,65,121,4
1,72,121,4
1,60,121,4
1,65,121,4
1,72,121,4
1,60,121,4
1,36,121,4
1,60,121,96
1,62,121,4
1,67,121,0
1,60,121,4
1,31,121,4
1,67,121,0
1,62,121,0
1,67,121,4
1,64,121,0
1,60,121,4
1,36,121,4
1,67,121,0
1,62,121,0
1,60,121,4
1,67,121,4
1,62,121,0
1,60,121,4
1,31,121,4
1,62,121,0
1,67,121,0
1,67,121,4
1,64,121,0
1,60,121,4
1,61,121,4
1,34,121,4
1,65,121,0
1,62,121,0
1,70,121,4
1,74,121,0
1,34,121,4
1,74,121,0
1,70,121,0
1,70,121,4
1,74,121,0
1,29,121,4
1,72,121,0
1,69,121,0
1,67,121,4
1,65,121,4
1,29,121,4
1,72,121,0
1,65,121,0
1,60,121,4
1,62,121,4
1,36,121,4
1,64,121,0
1,67,121,0
1,60,121,4
1,67,121,4
1,62,121,0
1,60,121,4
1,31,121,4
1,67,121,0
1,62,121,0
1,64,121,4
1,67,121,0
1,60,121,4
1,36,121,4
1,67,121,0
1,62,121,0
1,60,121,4
1,62,121,4
1,67,121,0
1,60,121,4
1,43,121,4
1,67,121,0
1,62,121,0
1,64,121,4
1,67,121,0
1,60,121,4
1,61,121,4
1,34,121,4
1,65,121,0
1,62,121,0
1,62,121,4
1,65,121,0
1,34,121,4
1,65,121,0
1,62,121,0
1,62,121,4
1,65,121,0
1,31,121,4
1,62,121,0
1,59,121,0
1,57,121,4
1,55,121,4
1,31,121,4
1,62,121,0
1,55,121,0
1,60,121,4
1,62,121,4
1,36,121,4
1,64,121,0
1,67,121,0
1,60,121,4
1,62,121,4
1,67,121,0
1,60,121,4
1,31,121,4
1,67,121,0
1,62,121,0
1,64,121,4
1,67,121,0
1,60,121,4
1,36,121,4
1,62,121,0
1,67,121,0
1,60,121,4
1,67,121,4
1,62,121,0
1,60,121,4
1,31,121,4
1,62,121,0
1,67,121,0
1,67,121,4
1,64,121,0
1,60,121,4
1,61,121,4
1,34,121,4
1,65,121,0
1,62,121,0
1,70,121,4
1,67,121,0
1,34,121,4
1,70,121,0
1,67,121,0
1,67,121,4
1,70,121,0
1,29,121,4
1,69,121,0
1,65,121,0
1,67,121,4
1,65,121,4
1,29,121,4
1,65,121,0
1,72,121,0
1,69,121,4
1,41,121,4
1,68,121,4
1,69,121,4
1,71,121,4
1,74,121,4
1,42,121,0
1,72,121,4
1,71,121,4
1,69,121,4
1,67,121,4
1,43,121,0
1,66,121,4
1,67,121,4
1,68,121,4
1,69,121,4
1,45,121,0
1,67,121,4
1,65,121,4
1,64,121,4
1,62,121,4
1,38,121,0
1,61,121,4
1,62,121,4
1,64,121,4
1,67,121,4
1,43,121,0
1,65,121,4
1,64,121,4
1,62,121,4
1,60,121,4
1,36,121,0
1,43,121,4
1,36,121,4
1,69,121,288
1,70,121,4
1,59,121,4
1,71,121,0
1,67,121,0
1,43,121,0
1,72,121,4
1,60,121,0
1,69,121,0
1,45,121,0
1,61,121,4
1,73,121,0
1,70,121,0
1,46,121,0
1,62,121,4
1,74,121,0
1,71,121,0
1,47,121,0
1,64,121,4
1,72,121,0
1,76,121,0
1,48,121,0
1,74,121,4
1,71,121,0
1,62,121,0
1,47,121,0
1,59,121,4
1,67,121,0
1,71,121,0
1,43,121,0
1,55,121,4
1,67,121,0
1,64,121,0
1,40,121,0
1,64,121,4
1,72,121,0
1,76,121,0
1,36,121,0
1,77,121,4
1,74,121,0
1,65,121,0
1,38,121,0
1,66,121,4
1,75,121,0
1,78,121,0
1,39,121,0
1,79,121,4
1,76,121,0
1,67,121,0
1,40,121,0
1,69,121,4
1,77,121,0
1,81,121,0
1,41,121,0
1,67,121,4
1,76,121,0
1,79,121,0
1,40,121,0
1,69,121,4
1,81,121,0
1,77,121,0
1,41,121,0
1,76,121,4
1,79,121,0
1,67,121,0
1,40,121,0
1,59,121,4
1,67,121,0
1,71,121,0
1,43,121,0
1,72,121,4
1,69,121,0
1,60,121,0
1,45,121,0
1,61,121,4
1,70,121,0
1,73,121,0
1,46,121,0
1,62,121,4
1,74,121,0
1,71,121,0
1,47,121,0
1,64,121,4
1,72,121,0
1,76,121,0
1,48,121,0
1,74,121,4
1,71,121,0
1,62,121,0
1,47,121,0
1,59,121,4
1,67,121,0
1,71,121,0
1,43,121,0
1,55,121,4
1,64,121,0
1,67,121,0
1,40,121,0
1,57,121,4
1,65,121,0
1,69,121,0
1,41,121,0
1,55,121,4
1,67,121,0
1,64,121,0
1,40,121,0
1,60,121,4
1,72,121,0
1,65,121,0
1,69,121,0
1,38,121,0
1,60,121,4
1,72,121,0
1,67,121,0
1,64,121,0
1,36,121,0
1,60,121,4
1,72,121,0
1,48,121,0
1,36,121,0
1,31,121,196
1,59,121,96
1,67,121,0
1,71,121,0
1,33,121,4
1,60,121,96
1,72,121,0
1,69,121,0
1,34,121,4
1,61,121,96
1,70,121,0
1,73,121,0
1,35,121,4
1,62,121,96
1,71,121,0
1,74,121,0
1,36,121,4
1,64,121,96
1,72,121,0
1,76,121,0
1,35,121,4
1,62,121,96
1,74,121,0
1,71,121,0
1,31,121,4
1,59,121,96
1,67,121,0
1,71,121,0
1,28,121,4
1,55,121,96
1,64,121,0
1,67,121,0
1,36,121,4
1,64,121,96
1,72,121,0
1,76,121,0
1,38,121,4
1,74,121,96
1,77,121,0
1,65,121,0
1,39,121,4
1,66,121,96
1,75,121,0
1,78,121,0
1,40,121,4
1,67,121,96
1,76,121,0
1,79,121,0
1,41,121,4
1,69,121,96
1,77,121,0
1,81,121,0
1,40,121,4
1,67,121,96
1,79,121,0
1,76,121,0
1,41,121,4
1,69,121,96
1,77,121,0
1,81,121,0
1,40,122,4
1,67,122,96
1,76,122,0
1,79,122,0
1,41,122,4
1,81,122,96
1,72,122,4
1,69,122,4
1,81,122,4
1,42,122,0
1,78,122,4
1,72,122,4
1,69,122,4
1,79,122,4
1,43,122,0
1,72,122,4
1,67,122,4
1,79,122,4
1,81,122,0
1,73,122,0
1,45,122,4
1,79,122,4
1,81,122,0
1,73,122,0
1,66,122,4
1,76,122,0
1,38,122,0
1,72,122,4
1,76,122,4
1,72,122,4
1,76,122,4
1,65,122,0
1,43,122,0
1,72,122,4
1,74,122,4
1,64,122,4
1,72,122,0
1,67,122,0
1,36,122,0
1,43,122,4
1,36,122,4
1,69,122,288
1,71,122,4
1,48,122,4
1,72,122,0
1,60,122,4
1,67,122,4
1,72,122,4
1,60,122,4
1,67,122,4
1,72,122,4
1,60,122,4
1,59,122,4
1,67,122,0
1,72,122,4
1,60,122,4
1,67,122,4
1,72,122,4
1,60,122,4
1,67,122,4
1,72,122,4
1,57,122,4
1,60,122,0
1,65,122,4
1,72,122,4
1,60,122,4
1,65,122,4
1,72,122,4
1,60,122,4
1,65,122,4
1,53,122,4
1,72,122,0
1,60,122,4
1,65,122,4
1,72,122,4
1,60,122,4
1,65,122,4
1,72,122,4
1,69,122,4
1,60,122,0
1,71,122,4
1,72,122,4
1,36,122,0
1,60,122,4
1,67,122,4
1,72,122,4
1,60,122,4
1,67,122,4
1,72,122,4
1,60,122,4
1,35,122,4
1,67,122,0
1,72,122,4
1,60,122,4
1,67,122,4
1,72,122,4
1,60,122,4
1,67,122,4
1,72,122,4
1,33,122,4
1,60,122,0
1,65,122,4
1,72,122,4
1,60,122,4
1,65,122,4
1,72,122,4
1,60,122,4
1,65,122,4
1,29,122,4
1,72,122,0
1,60,122,4
1,65,122,4
1,72,122,4
1,60,122,4
1,65,122,4
1,72,122,4
1,60,122,4
1,36,122,4
1,72,122,96
1,74,122,4
1,79,122,0
1,72,122,4
1,31,122,4
1,79,122,0
1,74,122,0
1,79,122,4
1,76,122,0
1,72,122,4
1,36,122,4
1,79,122,0
1,74,122,0
1,72,122,4
1,79,122,4
1,74,122,0
1,72,122,4
1,31,122,4
1,74,122,0
1,79,122,0
1,79,122,4
1,76,122,0
1,72,122,4
1,73,122,4
1,34,122,4
1,77,122,0
1,74,122,0
1,82,122,4
1,86,122,0
1,34,122,4
1,86,122,0
1,82,122,0
1,82,122,4
1,86,122,0
1,29,122,4
1,84,122,0
1,81,122,0
1,79,122,4
1,77,122,4
1,29,122,4
1,84,122,0
1,77,122,0
1,72,122,4
1,74,122,4
1,36,122,4
1,76,122,0
1,79,122,0
1,72,122,4
1,79,122,4
1,74,122,0
1,72,122,4
1,31,122,4
1,79,122,0
1,74,122,0
1,76,122,4
1,79,122,0
1,72,122,4
1,36,122,4
1,79,122,0
1,74,122,0
1,72,122,4
1,74,122,4
1,79,122,0
1,72,122,4
1,31,122,4
1,79,122,0
1,74,122,0
1,76,122,4
1,79,122,0
1,72,122,4
1,73,122,4
1,34,122,4
1,77,122,0
1,74,122,0
1,74,122,4
1,77,122,0
1,34,122,4
1,77,122,0
1,74,122,0
1,74,122,4
1,77,122,0
1,31,122,4
1,74,122,0
1,71,122,0
1,69,122,4
1,67,122,4
1,31,122,4
1,74,122,0
1,67,122,0
1,72,122,4
1,74,122,4
1,36,122,4
1,76,122,0
1,79,122,0
1,72,122,4
1,74,122,4
1,79,122,0
1,72,122,4
1,31,122,4
1,79,122,0
1,74,122,0
1,76,122,4
1,79,122,0
1,72,122,4
1,36,122,4
1,74,122,0
1,79,122,0
1,72,122,4
1,79,122,4
1,74,122,0
1,72,122,4
1,31,122,4
1,74,122,0
1,79,122,0
1,79,122,4
1,76,122,0
1,72,122,4
1,73,122,4
1,34,122,4
1,77,122,0
1,74,122,0
1,82,122,4
1,79,122,0
1,34,122,4
1,82,122,0
1,79,122,0
1,79,122,4
1,82,122,0
1,29,122,4
1,81,122,0
1,77,122,0
1,79,122,4
1,77,122,4
1,29,122,4
1,77,122,0
1,84,122,0
1,81,122,4
1,41,122,4
1,80,122,4
1,81,122,4
1,83,122,4
1,42,122,4
1,86,122,0
1,84,122,4
1,83,122,4
1,81,122,4
1,43,122,4
1,79,122,0
1,78,122,4
1,79,122,4
1,80,122,4
1,45,122,4
1,81,122,0
1,79,122,4
1,77,122,4
1,76,122,4
1,38,122,4
1,74,122,0
1,73,122,4
1,74,122,4
1,76,122,4
1,43,122,4
1,79,122,0
1,77,122,4
1,76,122,4
1,74,122,4
1,36,122,4
1,72,122,0
1,67,122,0
1,64,122,0
1,43,122,4
1,36,122,4
1,69,122,4
1,41,122,0
1,65,122,4
1,60,122,4
1,67,122,4
1,40,122,0
1,61,122,4
1,57,122,4
1,61,122,4
1,65,122,4
1,38,122,0
1,62,122,4
1,57,122,4
1,62,122,4
1,63,122,4
1,36,122,0
1,60,122,4
1,55,122,4
1,60,122,4
1,34,122,4
1,62,122,0
1,58,122,4
1,53,122,4
1,33,122,4
1,60,122,0
1,57,123,4
1,53,123,4
1,31,123,4
1,59,123,0
1,55,123,4
1,53,123,4
1,55,123,4
1,36,123,4
1,58,123,0
1,55,123,4
1,52,123,4
1,55,123,4
1,41,123,4
1,69,123,96
1,65,123,4
