track,note,velocity,time
1,26,109,3435
1,26,0,250
1,26,108,38
1,26,0,51
1,26,109,45
1,26,0,367
1,26,108,17
1,26,0,240
1,26,104,48
1,26,0,63
1,26,108,33
1,26,0,349
1,26,109,35
1,26,0,245
1,26,105,43
1,26,0,49
1,26,109,47
1,26,0,344
1,26,108,40
1,26,0,256
1,26,109,32
1,26,0,48
1,26,110,48
1,26,0,9
1,31,107,2
1,31,0,252
1,31,108,35
1,31,0,46
1,31,108,50
1,31,0,342
1,31,108,42
1,31,0,257
1,31,108,31
1,31,0,49
1,31,107,47
1,31,0,339
1,31,111,45
1,31,0,249
1,31,108,39
1,31,0,64
1,31,105,32
1,31,0,340
1,31,107,44
1,31,0,259
1,31,108,29
1,31,0,51
1,31,109,45
1,31,0,177
1,33,110,15
1,33,0,1
1,26,109,1
1,26,0,250
1,26,108,38
1,26,0,51
1,26,109,45
1,26,0,367
1,26,108,17
1,26,0,240
1,26,104,48
1,26,0,63
1,26,108,33
1,26,0,349
1,26,109,35
1,26,0,245
1,26,105,43
1,26,0,49
1,26,109,47
1,26,0,344
1,26,108,40
1,26,0,256
1,26,109,32
1,26,0,48
1,26,110,48
1,26,0,9
1,31,107,2
1,31,0,252
1,31,108,35
1,31,0,46
1,31,108,50
1,31,0,342
1,31,108,42
1,31,0,257
1,31,108,31
1,31,0,49
1,31,107,47
1,31,0,339
1,31,111,45
1,31,0,249
1,31,108,39
1,31,0,64
1,31,105,32
1,31,0,340
1,31,107,44
1,31,0,259
1,31,108,29
1,31,0,51
1,31,109,45
1,31,0,177
1,33,110,15
1,33,0,1
1,26,109,1
1,26,0,250
1,26,108,38
1,26,0,51
1,26,109,45
1,26,0,367
1,26,108,17
1,26,0,240
1,26,104,48
1,26,0,63
1,26,108,33
1,26,0,349
1,26,109,35
1,26,0,245
1,26,105,43
1,26,0,49
1,26,109,47
1,26,0,344
1,26,108,40
1,26,0,256
1,26,109,32
1,26,0,48
1,26,110,48
1,26,0,9
1,31,107,2
1,31,0,252
1,31,108,35
1,31,0,46
1,31,108,50
1,31,0,342
1,31,108,42
1,31,0,257
1,31,108,31
1,31,0,49
1,31,107,47
1,31,0,339
1,31,111,45
1,31,0,249
1,31,108,39
1,31,0,64
1,31,105,32
1,31,0,340
1,31,107,44
1,31,0,259
1,31,108,29
1,31,0,51
1,31,109,45
1,31,0,177
1,33,110,15
1,33,0,1
1,26,109,1
1,26,0,250
1,26,108,38
1,26,0,51
1,26,109,45
1,26,0,367
1,26,108,17
1,26,0,240
1,26,104,48
1,26,0,63
1,26,108,33
1,26,0,349
1,26,109,35
1,26,0,245
1,26,105,43
1,26,0,49
1,26,109,47
1,26,0,344
1,26,108,40
1,26,0,256
1,26,106,32
1,26,0,48
1,30,110,64
1,30,0,76
1,33,108,4
1,33,0,88
1,30,109,8
1,30,0,88
1,26,109,8
1,26,0,88
1,36,109,8
1,36,0,250
1,36,108,38
1,36,0,51
1,36,109,45
1,36,0,367
1,36,108,17
1,36,0,240
1,36,104,48
1,36,0,63
1,36,108,33
1,36,0,349
1,36,109,35
1,36,0,245
1,36,105,43
1,36,0,49
1,36,109,47
1,36,0,344
1,36,108,40
1,36,0,256
1,36,109,32
1,36,0,48
1,36,110,48
1,36,0,184
1,36,109,8
1,36,0,92
1,30,105,4
1,30,0,92
1,31,109,5
1,31,0,252
1,31,108,35
1,31,0,46
1,31,108,50
1,31,0,342
1,31,108,42
1,31,0,257
1,31,108,31
1,31,0,49
1,31,107,47
1,31,0,339
1,26,111,45
1,26,0,249
1,26,108,39
1,26,0,64
1,26,109,32
1,26,0,177
1,38,108,15
1,38,0,176
1,26,107,16
1,26,0,259
1,26,108,29
1,26,0,51
1,35,109,45
1,35,0,81
1,38,108,15
1,38,0,92
1,35,110,4
1,35,0,80
1,31,108,16
1,31,0,92
1,36,109,4
1,36,0,250
1,36,108,38
1,36,0,51
1,36,109,45
1,36,0,367
1,36,108,17
1,36,0,240
1,36,104,48
1,36,0,63
1,36,108,33
1,36,0,349
1,36,109,35
1,36,0,245
1,36,105,43
1,36,0,49
1,36,109,47
1,36,0,344
1,36,108,40
1,36,0,256
1,36,109,32
1,36,0,48
1,36,110,48
1,36,0,9
1,31,107,2
1,31,0,252
1,31,108,35
1,31,0,46
1,31,108,50
1,31,0,342
1,31,108,42
1,31,0,257
1,31,108,31
1,31,0,49
1,31,107,47
1,31,0,339
1,26,111,45
1,26,0,249
1,26,108,39
1,26,0,64
1,26,105,32
1,26,0,340
1,26,107,44
1,26,0,259
1,26,108,29
1,26,0,51
1,26,109,45
1,26,0,177
1,31,110,15
1,31,0,80
1,38,108,16
1,38,0,13
1,36,109,1
1,36,0,250
1,36,108,38
1,36,0,51
1,36,109,45
1,36,0,367
1,36,108,17
1,36,0,240
1,36,104,48
1,36,0,63
1,36,108,33
1,36,0,349
1,36,109,35
1,36,0,197
1,42,108,379
1,42,0,6
1,26,109,1
1,26,0,245
1,26,105,42
1,26,0,49
1,26,109,47
1,26,0,344
1,26,108,40
1,26,0,256
1,26,109,32
1,26,0,48
1,26,110,48
1,26,0,9
1,31,107,2
1,31,0,252
1,31,108,35
1,31,0,46
1,31,108,50
1,31,0,342
1,31,107,42
1,31,0,259
1,31,108,29
1,31,0,51
1,31,109,45
1,31,0,177
1,33,110,15
1,33,0,1
1,26,109,1
1,26,0,245
1,26,105,43
1,26,0,49
1,26,109,47
1,26,0,344
1,26,108,40
1,26,0,256
1,26,109,32
1,26,0,48
1,26,110,48
1,26,0,9
1,31,107,2
1,31,0,252
1,31,108,35
1,31,0,46
1,31,108,50
1,31,0,342
1,31,107,42
1,31,0,259
1,31,108,29
1,31,0,51
1,31,109,45
1,31,0,177
1,33,110,15
1,33,0,1
1,26,109,1
1,26,0,250
1,26,108,38
1,26,0,51
1,26,109,45
1,26,0,367
1,26,108,17
1,26,0,240
1,26,104,48
1,26,0,63
1,26,108,33
1,26,0,349
1,26,109,35
1,26,0,245
1,26,105,43
1,26,0,49
1,26,109,47
1,26,0,344
1,26,108,40
1,26,0,256
1,26,106,32
1,26,0,48
1,30,110,64
1,30,0,76
1,33,108,4
1,33,0,88
1,30,109,8
1,30,0,88
1,26,109,8
1,26,0,88
1,26,109,8
1,26,0,250
1,26,108,38
1,26,0,51
1,26,109,45
1,26,0,367
1,26,108,17
1,26,0,240
1,26,104,48
1,26,0,63
1,26,108,33
1,26,0,349
1,26,109,35
1,26,0,245
1,26,105,43
1,26,0,49
1,26,109,47
1,26,0,344
1,26,108,40
1,26,0,256
1,26,109,32
1,26,0,48
1,26,110,48
1,26,0,9
1,31,107,2
1,31,0,252
1,31,108,35
1,31,0,46
1,31,108,50
1,31,0,342
1,31,108,42
1,31,0,257
1,31,108,31
1,31,0,49
1,31,107,47
1,31,0,339
1,31,111,45
1,31,0,249
1,31,108,39
1,31,0,64
1,31,105,32
1,31,0,340
1,31,107,44
1,31,0,259
1,31,108,29
1,31,0,51
1,31,109,45
1,31,0,177
1,33,110,15
1,33,0,1
1,26,109,1
1,26,0,250
1,26,108,38
1,26,0,51
1,26,109,45
1,26,0,367
1,26,108,17
1,26,0,240
1,26,104,48
1,26,0,63
1,26,108,33
1,26,0,349
1,26,109,35
1,26,0,245
1,26,105,43
1,26,0,49
1,26,109,47
1,26,0,344
1,26,108,40
1,26,0,256
1,26,109,32
1,26,0,48
1,26,110,48
1,26,0,9
1,31,107,2
1,31,0,252
1,31,108,35
1,31,0,46
1,31,108,50
1,31,0,342
1,31,108,42
1,31,0,257
1,31,108,31
1,31,0,49
1,31,107,47
1,31,0,339
1,31,111,45
1,31,0,249
1,31,108,39
1,31,0,64
1,31,105,32
1,31,0,340
1,31,107,44
1,31,0,259
1,31,108,29
1,31,0,51
1,31,109,45
1,31,0,177
1,33,110,15
1,33,0,1
1,26,109,1
1,26,0,250
1,26,108,38
1,26,0,51
1,26,109,45
1,26,0,367
1,26,108,17
1,26,0,240
1,26,104,48
1,26,0,63
1,26,108,33
1,26,0,349
1,26,109,35
1,26,0,245
1,26,105,43
1,26,0,49
1,26,109,47
1,26,0,344
1,26,108,40
1,26,0,256
1,26,106,32
1,26,0,48
1,30,110,64
1,30,0,76
1,33,108,4
1,33,0,88
1,30,109,8
1,30,0,88
1,26,109,8
1,26,0,88
1,36,109,8
1,36,0,250
1,36,108,38
1,36,0,51
1,36,109,45
1,36,0,367
1,36,108,17
1,36,0,240
1,36,104,48
1,36,0,63
1,36,108,33
1,36,0,349
1,36,109,35
1,36,0,245
1,36,105,43
1,36,0,49
1,36,109,47
1,36,0,344
1,36,108,40
1,36,0,256
1,36,109,32
1,36,0,48
1,36,110,48
1,36,0,184
1,36,109,8
1,36,0,92
1,30,105,4
1,30,0,92
1,31,109,5
1,31,0,252
1,31,108,35
1,31,0,46
1,31,108,50
1,31,0,342
1,31,108,42
1,31,0,257
1,31,108,31
1,31,0,49
1,31,107,47
1,31,0,339
1,26,111,45
1,26,0,249
1,26,108,39
1,26,0,64
1,26,109,32
1,26,0,177
1,38,108,15
1,38,0,176
1,26,107,16
1,26,0,259
1,26,108,29
1,26,0,51
1,35,109,45
1,35,0,81
1,38,108,15
1,38,0,92
1,35,110,4
1,35,0,80
1,31,108,16
1,31,0,92
1,36,109,4
1,36,0,250
1,36,108,38
1,36,0,51
1,36,109,45
1,36,0,367
1,36,108,17
1,36,0,240
1,36,104,48
1,36,0,63
1,36,108,33
1,36,0,349
1,36,109,35
1,36,0,245
1,36,105,43
1,36,0,49
1,36,109,47
1,36,0,344
1,36,108,40
1,36,0,256
1,36,109,32
1,36,0,48
1,36,110,48
1,36,0,9
1,31,107,2
1,31,0,252
1,31,108,35
1,31,0,46
1,31,108,50
1,31,0,342
1,31,108,42
1,31,0,257
1,31,108,31
1,31,0,49
1,31,107,47
1,31,0,339
1,26,111,45
1,26,0,249
1,26,108,39
1,26,0,64
1,26,105,32
1,26,0,340
1,26,107,44
1,26,0,259
1,26,108,29
1,26,0,51
1,26,109,45
1,26,0,177
1,31,110,15
1,31,0,80
1,38,108,16
1,38,0,13
1,36,109,1
1,36,0,250
1,36,108,38
1,36,0,51
1,36,109,45
1,36,0,367
1,36,108,17
1,36,0,240
1,36,104,48
1,36,0,63
1,36,108,33
1,36,0,349
1,36,109,35
1,36,0,197
1,42,108,379
1,42,0,6
1,26,109,1
1,26,0,245
1,26,105,42
1,26,0,49
1,26,109,47
1,26,0,344
1,26,108,40
1,26,0,256
1,26,109,32
1,26,0,48
1,26,110,48
1,26,0,9
1,31,107,2
1,31,0,252
1,31,108,35
1,31,0,46
1,31,108,50
1,31,0,342
1,31,107,42
1,31,0,259
1,31,108,29
1,31,0,51
1,31,109,45
1,31,0,177
1,33,110,15
1,33,0,1
1,26,109,1
1,26,0,245
1,26,105,43
1,26,0,49
1,26,109,47
1,26,0,344
1,26,108,40
1,26,0,256
1,26,109,32
1,26,0,48
1,26,110,48
1,26,0,9
1,31,107,2
1,31,0,252
1,31,108,35
1,31,0,46
1,31,108,50
1,31,0,342
1,31,107,42
1,31,0,259
1,31,108,29
1,31,0,51
1,31,109,45
1,31,0,177
1,33,110,15
1,33,0,1
1,26,109,1
1,26,0,245
1,26,105,42
1,26,0,49
1,26,109,47
1,26,0,344
1,26,108,40
1,26,0,256
1,26,109,32
1,26,0,48
1,26,110,48
1,26,0,9
1,31,107,2
1,31,0,252
1,31,108,35
1,31,0,46
1,31,108,50
1,31,0,342
1,31,107,42
1,31,0,259
1,31,108,29
1,31,0,51
1,31,109,45
1,31,0,177
1,33,110,15
1,33,0,1
1,26,109,1
1,26,0,245
1,26,105,42
1,26,0,49
1,26,109,47
1,26,0,344
1,26,108,40
1,26,0,256
1,26,109,32
1,26,0,48
1,26,110,48
1,26,0,9
1,31,107,2
1,31,0,252
1,31,108,35
1,31,0,46
1,31,108,50
1,31,0,342
1,31,107,42
1,31,0,259
1,31,108,29
1,31,0,51
1,31,109,45
1,31,0,177
1,33,110,15
1,33,0,1
1,26,109,1
1,26,0,166
1,26,105,34
1,26,0,49
1,26,109,44
1,26,0,214
1,26,108,40
1,26,0,166
1,26,109,26
1,26,0,48
1,26,110,36
1,26,0,9
1,31,107,2
1,31,0,147
1,31,108,10
1,31,0,46
1,31,108,18
1,31,0,8
1,31,107,42
1,31,0,41
2,55,52,6493
2,59,59,2
2,66,74,1
2,64,69,764
2,66,0,9
2,55,0,715
2,55,60,44
2,66,73,0
2,64,0,22
2,66,0,742
2,64,73,4
2,59,0,720
2,55,0,44
2,64,0,0
2,50,52,4
2,54,59,0
2,57,59,0
2,64,74,0
2,62,69,768
2,64,0,5
2,50,0,718
2,50,60,45
2,64,73,0
2,62,0,22
2,64,0,742
2,62,73,4
2,54,0,717
2,57,0,47
2,62,0,0
2,55,52,4
2,59,59,0
2,66,74,0
2,64,69,768
2,66,0,5
2,55,0,718
2,55,60,45
2,66,73,0
2,64,0,22
2,66,0,742
2,64,73,4
2,64,0,702
2,59,0,15
2,50,0,34
2,55,0,0
2,50,52,17
2,54,59,0
2,57,59,0
2,64,74,0
2,62,69,768
2,64,0,5
2,50,0,718
2,50,60,45
2,64,73,0
2,62,0,22
2,64,0,742
2,62,73,4
2,54,0,717
2,57,0,47
2,62,0,0
2,55,52,4
2,59,59,0
2,66,74,0
2,64,69,768
2,66,0,5
2,55,0,718
2,55,60,45
2,66,73,0
2,64,0,22
2,66,0,742
2,64,73,4
2,64,0,702
2,59,0,15
2,50,0,34
2,55,0,0
2,50,52,17
2,54,59,0
2,57,59,0
2,64,74,0
2,62,69,768
2,64,0,5
2,50,0,718
2,50,60,45
2,64,73,0
2,62,0,22
2,64,0,742
2,62,73,4
2,54,0,717
2,50,0,47
2,57,0,0
2,62,0,0
2,60,60,4
2,64,61,0
2,67,60,0
2,71,60,0
2,60,0,3068
2,64,0,0
2,67,0,0
2,71,0,0
2,59,54,4
2,62,63,0
2,69,57,0
2,67,60,768
2,69,0,10
2,59,0,716
2,62,0,3
2,67,0,35
2,57,57,4
2,62,62,0
2,66,61,0
2,60,60,1536
2,64,61,0
2,67,60,0
2,71,60,0
2,57,0,3
2,62,0,3
2,66,0,7
2,60,0,3055
2,64,0,0
2,67,0,0
2,71,0,0
2,59,54,4
2,62,63,0
2,69,57,0
2,67,60,768
2,69,0,10
2,59,0,716
2,62,0,3
2,67,0,35
2,57,57,4
2,62,62,0
2,66,61,0
2,62,0,1534
2,67,54,0
2,62,68,4
2,64,64,0
2,57,0,1
2,62,0,3
2,66,0,7
2,60,60,270
2,60,0,465
2,62,76,2
2,62,0,290
2,60,58,6
2,62,70,470
2,60,0,3
2,64,0,123
2,62,0,48
2,67,0,52
2,62,64,562
2,57,65,1
2,54,58,1
2,57,0,1492
2,54,0,43
2,55,64,4
2,59,67,4
2,59,0,1343
2,57,68,4
2,55,0,26
2,62,0,121
2,57,0,26
2,57,68,3
2,62,65,0
2,54,62,2
2,57,0,1497
2,54,0,38
2,55,61,4
2,59,67,8
2,57,68,1324
2,62,0,191
2,55,0,7
2,59,0,0
2,57,0,1
2,50,52,4
2,54,59,0
2,57,59,0
2,64,74,0
2,62,69,768
2,64,0,5
2,50,0,718
2,50,60,45
2,64,73,0
2,62,0,22
2,64,0,742
2,62,73,4
2,54,0,717
2,50,0,47
2,57,0,0
2,62,0,0
2,50,52,5
2,54,59,1
2,57,59,0
2,64,74,3
2,62,69,763
2,64,0,10
2,50,0,714
2,50,60,44
2,64,73,0
2,62,0,22
2,64,0,742
2,62,73,4
2,54,0,719
2,62,0,45
2,57,0,2
2,55,52,2
2,59,59,0
2,66,74,0
2,64,69,768
2,66,0,5
2,55,0,718
2,55,60,45
2,66,73,0
2,64,0,22
2,66,0,742
2,64,73,4
2,64,0,702
2,59,0,15
2,50,0,34
2,55,0,0
2,50,52,17
2,54,59,0
2,57,59,0
2,64,74,0
2,62,69,768
2,64,0,5
2,50,0,718
2,50,60,45
2,64,73,0
2,62,0,22
