track,note,velocity,time
2,58,127,3068
2,45,127,4
2,61,56,2680
2,58,81,0
2,45,127,32
2,61,107,0
2,49,108,2208
2,49,117,40
2,55,127,4
2,45,119,320
2,51,74,4
2,55,72,32
2,49,102,4
2,51,68,124
2,45,89,0
2,55,63,84
2,49,102,4
2,51,64,120
2,45,89,4
2,55,60,96
2,49,105,4
2,51,60,124
2,45,100,0
2,55,68,104
2,49,102,0
2,51,62,120
2,45,87,4
2,55,74,120
2,49,102,0
2,51,70,124
2,45,85,0
2,55,74,116
2,49,102,0
2,45,91,128
2,51,63,0
2,55,66,120
2,49,102,0
2,51,59,128
2,45,98,4
2,55,62,112
2,49,91,0
2,49,72,36
2,51,78,48
2,45,102,4
2,55,68,100
2,49,102,0
2,51,72,132
2,45,95,4
2,55,72,112
2,49,107,4
2,51,59,132
2,45,95,8
2,55,68,112
2,49,107,8
2,51,63,124
2,45,98,0
2,55,68,108
2,49,110,4
2,51,68,132
2,45,100,0
2,55,68,120
2,49,105,0
2,51,64,140
2,45,95,4
2,55,70,120
2,49,107,4
2,51,78,132
2,45,89,4
2,55,72,116
2,49,107,4
2,51,72,132
2,45,105,4
2,55,74,116
2,49,95,4
2,49,100,40
2,51,87,40
2,45,105,8
2,55,74,100
2,49,107,8
2,51,87,124
2,45,95,8
2,49,107,112
2,55,89,8
2,45,95,128
2,51,87,4
2,55,87,120
2,49,107,0
2,51,85,124
2,45,89,8
2,55,85,112
2,49,105,4
2,51,85,124
2,45,85,8
2,55,85,112
2,49,107,8
2,51,82,124
2,45,95,4
2,55,70,112
2,49,107,4
2,51,85,128
2,45,102,8
2,55,76,108
2,49,107,4
2,51,82,124
2,45,105,8
2,55,87,108
2,49,105,4
2,51,93,120
2,45,107,4
2,55,85,104
2,49,107,4
2,51,100,128
2,45,102,0
2,55,95,104
2,49,107,0
2,51,110,128
2,45,107,0
2,49,105,92
2,55,91,4
2,51,113,120
2,45,105,0
2,55,102,88
2,49,105,0
2,45,102,116
2,51,105,0
2,55,105,92
2,49,107,4
2,51,107,120
2,45,110,4
2,55,107,88
2,49,107,4
2,51,122,120
2,45,122,4
2,49,127,296
2,64,127,8
2,51,72,316
2,45,91,12
2,51,52,100
2,51,52,124
2,51,48,104
2,51,60,116
2,51,57,116
2,51,60,128
2,51,82,124
2,45,87,0
2,55,85,124
2,45,110,0
2,51,46,132
2,51,57,96
2,51,53,132
2,51,59,132
2,51,72,132
2,51,82,140
2,45,102,136
2,51,74,4
2,51,119,128
2,45,127,0
2,51,53,16
2,51,48,124
2,51,54,120
2,51,61,128
2,51,60,120
2,51,70,124
2,51,87,116
2,49,127,124
2,55,127,4
2,51,113,124
2,45,113,4
2,51,116,208
2,49,127,4
2,55,127,8
2,45,127,4
2,64,127,56
2,49,127,8
2,45,116,112
2,51,107,8
2,51,45,116
2,51,52,128
2,51,52,132
2,51,51,136
2,51,55,140
2,51,54,140
2,51,55,136
2,45,93,4
2,51,113,136
2,45,122,4
2,51,53,128
2,51,68,132
2,51,62,140
2,51,80,148
2,51,70,144
2,51,93,144
2,51,95,140
2,64,127,128
2,55,113,0
2,45,113,0
2,51,105,64
2,49,127,0
2,55,116,92
2,45,110,0
2,51,102,108
2,49,127,4
2,55,110,92
2,45,107,0
2,51,72,108
2,49,122,0
2,64,127,4
2,55,95,52
2,45,107,4
2,51,110,108
2,49,122,0
2,45,105,112
2,55,98,0
2,49,113,128
2,51,98,0
2,64,127,36
2,45,102,44
2,55,93,4
2,49,113,120
2,51,107,4
2,45,127,124
2,55,107,0
2,49,127,320
2,51,116,4
2,64,127,0
2,45,107,132
2,55,91,8
2,51,66,100
2,45,61,8
2,55,87,52
2,49,127,8
2,51,85,0
2,45,54,8
2,55,91,124
2,45,116,8
2,51,82,104
2,45,78,4
2,51,64,4
2,55,89,48
2,49,127,8
2,51,89,16
2,45,80,0
2,55,89,132
2,45,113,4
2,51,89,108
2,45,91,4
2,55,87,108
2,49,127,0
2,51,89,48
2,45,68,4
2,55,102,132
2,45,119,0
2,51,91,116
2,45,85,0
2,49,127,108
2,55,102,0
2,51,82,24
2,45,89,0
2,51,70,48
2,55,95,44
2,45,107,0
2,45,107,120
2,51,89,4
2,55,105,120
2,49,127,0
2,51,89,20
2,45,91,4
2,55,98,128
2,45,107,4
2,51,91,116
2,45,93,4
2,49,127,116
2,55,89,0
2,45,87,28
2,51,91,4
2,55,98,112
2,45,113,0
2,51,66,28
2,45,95,60
2,55,85,28
2,51,93,40
2,49,127,0
2,55,105,24
2,45,107,0
2,51,116,136
2,45,127,8
2,51,89,44
2,55,113,120
2,49,127,0
2,55,105,112
2,45,91,0
2,51,70,120
2,45,74,8
2,51,61,36
2,55,89,44
2,49,127,0
2,51,60,36
2,45,72,28
2,51,70,40
2,55,87,44
2,45,93,0
2,51,64,24
2,45,72,60
2,51,72,32
2,55,105,52
2,49,127,4
2,51,72,36
2,45,63,36
2,51,58,36
2,45,89,56
2,55,102,4
2,51,76,24
2,45,74,56
2,51,91,40
2,55,102,48
2,49,127,4
2,51,85,32
2,45,70,52
2,51,91,36
2,55,110,48
2,45,107,4
2,51,74,32
2,45,91,60
2,51,89,28
2,55,93,48
2,49,127,0
2,51,82,44
2,55,82,44
2,45,91,4
2,51,85,40
2,55,102,44
2,45,110,4
2,51,89,32
2,45,74,56
2,51,87,32
2,55,107,44
2,49,127,0
2,51,78,36
2,45,87,40
2,51,76,44
2,55,110,56
2,45,102,0
2,51,72,36
2,45,82,56
2,51,85,32
2,55,113,48
2,49,127,0
2,51,82,28
2,45,72,32
2,51,91,44
2,55,116,52
2,45,102,4
2,51,105,16
2,45,80,52
2,55,113,32
2,51,110,40
2,49,127,8
2,45,87,32
2,51,122,4
2,55,122,136
2,45,122,4
2,64,127,0
2,51,127,308
2,49,127,0
2,51,122,180
2,45,107,0
2,55,113,20
2,49,110,32
2,51,119,48
2,45,91,44
2,55,116,4
2,49,110,132
2,51,119,4
2,55,113,52
2,45,107,40
2,55,110,52
2,49,110,36
2,51,122,4
2,45,107,148
2,51,127,0
2,49,119,144
2,51,127,4
2,45,127,132
2,64,110,4
2,51,127,0
2,45,127,1480
2,51,116,4
2,55,113,36
2,49,122,32
2,51,116,48
2,55,110,40
2,45,113,8
2,49,122,128
2,51,110,0
2,55,110,40
2,45,113,32
2,55,100,52
2,51,113,36
2,49,127,0
2,45,119,140
2,51,122,0
2,49,127,136
2,51,127,4
2,51,127,140
2,45,127,0
2,64,127,0
2,49,102,1292
2,51,107,4
2,49,89,48
2,51,105,8
2,51,113,48
2,45,119,4
2,55,110,32
2,49,122,28
2,51,105,52
2,55,107,28
2,45,122,8
2,51,113,128
2,49,127,4
2,55,107,36
2,51,52,32
2,45,113,4
2,55,85,48
2,51,116,40
2,49,116,0
2,51,127,140
2,45,119,0
2,49,122,140
2,51,127,4
2,49,127,324
2,55,110,4
2,51,116,128
2,45,107,0
2,55,110,132
2,49,110,0
2,45,105,124
2,51,110,0
2,49,102,132
2,55,98,4
2,51,100,128
2,45,110,4
2,49,110,128
2,55,98,4
2,45,102,128
2,51,113,0
2,49,119,128
2,55,91,4
2,51,116,128
2,45,110,0
2,55,98,140
2,49,127,0
2,51,113,140
2,45,113,4
2,55,100,132
2,49,116,4
2,51,110,132
2,45,113,4
2,55,100,136
2,49,113,0
2,51,113,132
2,45,119,4
2,55,85,132
2,49,113,0
2,51,116,136
2,45,119,8
2,55,105,136
2,49,113,0
2,51,127,136
2,45,127,0
2,64,127,324
2,58,127,340
2,45,122,4
2,61,61,2916
2,58,83,16
2,45,127,4
2,61,113,4
2,54,64,1656
2,54,93,156
2,54,92,244
2,54,113,56
2,52,98,152
2,50,64,164
2,64,127,340
2,51,110,4
2,45,127,0
2,55,113,120
2,49,113,0
2,51,98,128
2,45,102,4
2,49,110,124
2,55,105,0
2,51,107,132
2,45,107,0
2,55,100,136
2,49,110,0
2,51,102,136
2,45,107,4
2,49,113,136
2,55,102,0
2,55,78,60
2,51,105,52
2,45,107,0
2,55,91,128
2,49,110,4
2,45,102,140
2,51,110,4
2,55,102,132
2,49,110,0
2,45,100,140
2,51,107,0
2,55,102,140
2,49,110,0
2,45,100,132
2,51,113,0
2,49,110,140
2,55,105,4
2,64,107,144
2,45,110,0
2,51,107,4
2,55,107,132
2,49,110,0
2,51,113,124
2,45,105,4
2,55,110,136
2,49,110,0
2,51,110,128
2,45,107,8
2,55,105,132
2,49,110,4
2,51,113,140
2,45,110,4
2,55,105,132
2,49,110,8
2,51,113,136
2,45,100,4
2,55,107,144
2,49,110,0
2,51,116,136
2,45,107,4
2,55,107,128
2,49,113,0
2,51,116,132
2,45,110,4
2,49,107,128
2,55,110,4
2,45,110,128
2,51,116,4
2,49,105,128
2,55,113,4
2,49,102,36
2,51,116,52
2,64,127,0
2,45,113,4
2,55,113,128
2,49,110,8
2,51,113,136
2,45,110,8
2,55,105,132
2,49,110,0
2,51,116,136
2,45,116,8
2,49,110,128
2,55,113,0
2,51,116,136
2,45,113,0
2,55,113,124
2,49,110,0
2,51,113,136
2,45,113,8
2,55,113,128
2,49,110,4
2,51,116,132
2,45,113,4
2,55,113,132
2,49,110,0
2,45,113,136
2,51,113,4
2,49,110,136
2,55,110,4
2,51,110,136
2,45,110,4
2,49,113,132
2,55,113,4
2,64,110,124
2,45,119,4
2,51,110,4
2,49,113,124
2,55,110,0
2,51,80,136
2,45,119,0
2,49,110,80
2,55,85,0
2,51,89,112
2,45,110,0
2,64,113,0
2,49,107,96
2,55,89,4
2,51,91,116
2,45,116,0
2,55,89,108
2,49,110,0
2,51,78,128
2,64,122,0
2,45,116,4
2,49,110,108
2,55,87,0
2,51,89,124
2,45,116,4
2,55,102,112
2,49,110,8
2,51,119,128
2,64,119,0
2,45,127,4
2,49,119,112
2,58,119,136
2,45,127,8
2,51,110,308
2,64,127,4
2,45,127,4
2,55,85,116
2,51,87,332
2,51,119,152
2,55,102,128
2,51,100,316
2,45,113,0
2,64,91,144
2,51,122,4
2,45,127,0
2,55,105,116
2,51,119,324
2,51,127,152
2,55,110,136
2,51,116,324
2,45,116,0
2,64,40,4
2,51,127,148
2,64,119,0
2,45,127,0
2,55,113,120
2,51,113,328
2,51,116,144
2,55,113,140
2,51,113,312
2,45,100,8
2,58,82,116
2,51,127,8
2,45,122,4
2,61,107,136
2,55,127,4
2,45,127,0
2,58,100,320
2,51,127,4
2,45,127,0
2,61,102,136
2,45,127,4
2,55,127,0
2,64,127,308
2,51,127,8
2,49,127,8
2,51,127,200
2,45,127,0
2,64,110,8
2,51,98,44
2,45,122,52
2,55,100,4
2,62,122,120
2,51,110,0
2,49,127,0
2,51,66,52
2,55,72,4
2,45,91,0
2,51,82,120
2,45,127,0
2,51,76,44
2,45,113,52
2,55,87,0
2,62,127,120
2,51,93,8
2,49,127,4
2,51,89,60
2,55,98,48
2,45,91,0
2,51,78,124
2,45,127,4
2,64,119,0
2,51,72,20
2,55,89,44
2,45,119,0
2,51,85,128
2,49,127,0
2,62,127,12
2,51,70,40
2,55,91,20
2,45,102,0
2,51,89,116
2,45,127,0
2,51,74,36
2,45,113,24
2,55,89,4
2,62,127,100
2,51,91,16
2,49,127,0
2,51,91,36
2,45,91,8
2,55,95,4
2,51,98,120
2,45,110,0
2,64,127,0
2,51,64,28
2,49,122,28
2,55,85,4
2,45,113,108
2,51,89,4
2,51,82,36
2,49,127,24
2,55,91,8
2,45,110,108
2,64,127,4
2,51,93,4
2,51,66,32
2,49,119,36
2,55,89,12
2,64,127,12
2,51,100,8
2,45,107,8
2,51,95,48
2,49,127,12
2,55,105,8
2,45,113,100
2,64,127,0
2,51,98,4
2,51,87,40
2,49,116,44
2,55,105,0
2,64,127,20
2,51,100,12
2,45,110,24
2,51,74,40
2,55,89,28
2,49,116,8
2,51,116,116
2,64,127,0
2,45,122,4
2,51,98,120
2,55,113,104
2,64,119,0
2,49,127,8
2,51,113,204
2,64,127,0
2,45,110,4
2,51,91,24
2,55,98,44
2,49,110,4
2,55,87,28
2,64,127,52
2,51,113,4
2,45,113,0
2,51,93,40
2,49,110,36
2,55,85,4
2,55,89,52
2,51,122,48
2,45,119,0
2,64,127,0
2,51,116,40
2,49,119,40
2,55,91,0
2,55,89,52
2,64,127,0
2,51,119,48
2,45,110,0
2,51,100,48
2,49,116,40
2,55,89,4
2,55,80,52
2,45,116,56
2,64,127,0
2,51,127,0
2,51,107,40
2,55,107,44
2,49,119,0
2,51,127,52
2,64,122,0
2,45,116,36
2,51,127,52
2,55,127,36
2,49,127,8
2,64,127,116
2,51,127,4
2,45,127,8
2,64,127,324
2,55,127,0
2,49,127,4
3,36,127,3064
3,31,102,28
3,24,105,196
3,36,110,60
3,31,107,220
3,36,107,188
3,31,102,164
3,34,93,156
3,34,105,136
3,29,98,108
3,29,107,108
3,36,98,124
3,31,110,144
3,36,102,180
3,31,95,136
3,34,110,68
3,34,93,100
3,31,107,68
3,33,103,0
3,35,105,0
3,36,110,4
3,31,107,132
3,36,105,116
3,31,95,84
3,34,110,80
3,34,107,92
3,29,110,80
3,29,105,92
3,29,102,92
3,30,116,68
3,31,105,60
3,33,110,48
3,38,95,20
3,31,110,48
3,36,107,44
3,24,107,392
3,31,116,116
3,36,102,28
3,31,107,4
3,29,93,1540
3,28,95,4
3,26,107,220
3,24,119,84
3,36,107,28
3,31,113,264
3,36,98,12
3,29,105,48
3,30,116,32
3,31,113,36
3,33,110,36
3,38,110,104
3,31,118,0
3,36,105,140
3,24,107,384
3,41,107,36
3,40,102,28
3,38,107,20
3,36,102,28
3,34,87,48
3,33,98,4
3,31,116,64
3,36,95,12
3,29,102,20
3,28,89,388
3,26,116,24
3,24,105,16
3,34,107,0
3,36,102,384
3,41,108,12
3,29,105,0
3,36,107,16
3,35,102,24
3,33,105,36
3,31,85,16
3,29,100,48
3,28,113,36
3,26,107,48
3,31,95,400
3,36,89,36
3,35,107,20
3,33,98,16
3,31,105,68
3,29,102,44
3,31,107,24
3,36,91,4
3,24,105,140
3,31,107,36
3,29,122,84
3,28,122,100
3,26,122,88
3,24,110,108
3,31,107,1368
3,29,113,36
3,28,116,84
3,26,110,88
3,24,127,76
3,31,107,1356
3,29,102,20
3,28,113,60
3,26,110,52
3,36,107,368
3,35,110,4
3,34,116,28
3,33,110,44
3,28,107,48
3,29,110,64
3,30,127,52
3,31,127,4
3,33,100,12
3,38,93,64
3,31,105,28
3,36,113,24
3,24,103,0
3,36,81,192
3,31,122,192
3,24,110,12
3,36,93,460
3,31,107,92
3,36,105,140
3,31,98,100
3,34,98,88
3,34,107,72
3,29,105,84
3,29,89,92
3,36,89,108
3,31,87,92
3,36,91,44
3,31,105,92
3,34,107,72
3,34,107,76
3,31,98,44
3,33,103,0
3,35,93,0
3,36,105,4
3,31,107,112
3,36,91,68
3,31,102,60
3,34,113,64
3,34,110,96
3,29,95,56
3,29,85,84
3,29,102,68
3,30,110,68
3,31,102,76
3,33,105,32
3,38,87,16
3,31,107,388
3,36,107,108
3,24,107,4
3,31,68,48
3,31,98,212
3,36,105,184
3,36,91,32
3,31,107,4
3,29,116,108
3,28,122,64
3,26,107,76
3,24,91,76
3,36,116,388
3,31,113,192
3,36,113,28
3,29,98,60
3,30,116,28
3,31,113,40
3,33,110,0
3,38,91,100
3,31,91,0
3,36,105,104
3,24,116,388
3,29,100,144
3,30,127,60
3,31,119,32
3,33,95,0
3,38,87,116
3,31,105,0
3,31,95,36
3,36,105,0
3,24,107,384
4,72,91,3072
4,60,63,8
4,67,74,96
4,72,91,72
4,60,78,92
4,67,75,92
4,72,84,68
4,60,70,0
4,67,78,96
4,72,92,60
4,60,88,88
4,67,82,76
4,72,93,48
4,60,77,68
4,67,83,28
4,72,98,24
4,60,88,40
4,65,81,60
4,72,92,4
4,60,89,92
4,65,91,88
4,72,92,44
4,60,86,72
4,65,85,68
4,72,95,40
4,60,90,68
4,65,89,52
4,72,97,52
4,60,84,80
