track,note,velocity,time
3,57,100,480
3,60,100,0
3,62,100,0
3,65,100,0
3,65,0,180
3,57,0,0
3,60,0,0
3,62,0,0
3,57,100,0
3,60,100,0
3,62,100,0
3,65,100,0
3,62,0,120
3,57,0,0
3,60,0,0
3,57,100,0
3,57,0,120
3,62,100,0
3,62,0,60
3,65,0,0
3,58,100,0
3,56,100,0
3,61,100,0
3,65,100,0
3,65,0,180
3,58,0,0
3,56,0,0
3,61,0,0
3,56,100,0
3,58,100,0
3,61,100,0
3,65,100,0
3,65,0,180
3,56,0,0
3,58,0,0
3,61,0,0
3,56,85,0
3,56,0,30
3,58,85,0
3,58,0,30
3,61,85,0
3,61,0,60
3,54,100,0
3,58,100,0
3,61,100,0
3,65,100,0
3,65,0,180
3,54,0,0
3,58,0,0
3,61,0,0
3,54,100,0
3,58,100,0
3,61,100,0
3,65,100,0
3,65,0,210
3,54,0,0
3,58,0,0
3,61,0,0
3,54,85,0
3,54,0,30
3,58,85,0
3,58,0,30
3,61,85,0
3,61,0,30
3,54,100,0
3,58,100,0
3,61,100,0
3,65,100,0
3,65,0,30
3,54,0,0
3,58,0,0
3,61,0,0
3,54,100,30
3,58,100,0
3,61,100,0
3,65,100,0
3,65,0,120
3,54,0,0
3,58,0,0
3,61,0,0
3,58,100,0
3,60,100,0
3,63,100,0
3,67,100,0
3,67,0,180
3,58,0,0
3,60,0,0
3,63,0,0
3,55,100,0
3,58,100,0
3,60,100,0
3,63,100,0
3,63,0,120
3,55,0,0
3,58,0,0
3,60,0,0
3,57,100,0
3,60,100,0
3,62,100,0
3,65,100,0
3,65,0,180
3,57,0,0
3,60,0,0
3,62,0,0
3,57,100,0
3,60,100,0
3,62,100,0
3,65,100,0
3,62,0,120
3,57,0,0
3,60,0,0
3,57,85,0
3,57,0,120
3,62,85,0
3,62,0,60
3,65,0,0
3,58,100,0
3,56,100,0
3,61,100,0
3,65,100,0
3,65,0,180
3,58,0,0
3,56,0,0
3,61,0,0
3,56,100,0
3,58,100,0
3,61,100,0
3,65,100,0
3,65,0,180
3,56,0,0
3,58,0,0
3,61,0,0
3,56,85,0
3,56,0,30
3,58,85,0
3,58,0,30
3,61,85,0
3,61,0,60
3,54,100,0
3,58,100,0
3,61,100,0
3,65,100,0
3,65,0,180
3,54,0,0
3,58,0,0
3,61,0,0
3,54,100,0
3,58,100,0
3,61,100,0
3,65,100,0
3,65,0,210
3,54,0,0
3,58,0,0
3,61,0,0
3,54,85,0
3,54,0,30
3,58,85,0
3,58,0,30
3,61,85,0
3,61,0,30
3,54,100,60
3,58,100,0
3,61,100,0
3,65,100,0
3,65,0,30
3,54,0,0
3,58,0,0
3,61,0,0
3,54,100,90
3,58,100,0
3,61,100,0
3,65,100,0
3,65,0,180
3,54,0,0
3,58,0,0
3,61,0,0
3,55,85,0
3,58,85,0
3,63,85,0
3,65,85,0
3,65,0,120
3,55,0,0
3,58,0,0
3,63,0,0
3,57,90,0
3,62,90,0
3,62,0,120
3,63,90,0
3,63,0,60
3,57,0,0
3,57,90,0
3,62,90,0
3,65,90,0
3,57,0,120
3,53,90,0
3,53,0,120
3,65,0,0
3,62,0,0
3,54,90,0
3,54,0,120
3,54,90,0
3,58,90,0
3,61,90,0
3,65,90,0
3,65,0,120
3,54,0,0
3,58,0,0
3,61,0,0
3,63,90,0
3,63,0,60
3,54,90,0
3,58,90,0
3,61,90,0
3,61,0,240
3,58,0,0
3,54,0,0
3,53,90,0
3,56,90,0
3,58,90,0
3,61,90,0
3,61,0,60
3,61,90,0
3,61,0,120
3,63,90,0
3,63,0,180
3,53,0,0
3,56,0,0
3,58,0,0
3,54,90,60
3,54,0,60
3,53,90,0
3,53,0,60
3,63,90,0
3,60,90,0
3,56,90,0
3,56,0,120
3,60,0,0
3,63,0,0
3,54,90,0
3,58,90,0
3,61,90,0
3,61,0,120
3,63,90,0
3,58,0,60
3,54,0,0
3,54,90,0
3,58,90,0
3,63,0,60
3,65,90,0
3,65,0,60
3,58,0,0
3,54,0,0
3,57,90,0
3,60,90,0
3,62,90,0
3,65,90,0
3,65,0,300
3,57,0,0
3,60,0,0
3,62,0,0
3,53,90,0
3,53,0,120
3,54,90,0
3,54,0,120
3,54,90,0
3,58,90,0
3,61,90,0
3,65,90,0
3,65,0,120
3,54,0,0
3,58,0,0
3,61,0,0
3,63,90,0
3,63,0,60
3,54,90,0
3,58,90,0
3,61,90,0
3,61,0,240
3,58,0,0
3,54,0,0
3,53,90,0
3,56,90,0
3,58,90,0
3,61,90,0
3,61,0,60
3,61,90,0
3,61,0,120
3,63,90,0
3,63,0,180
3,53,0,0
3,56,0,0
3,58,0,0
3,53,90,60
3,53,0,60
3,54,90,0
3,54,0,60
3,63,90,0
3,61,90,0
3,58,90,0
3,54,90,0
3,54,0,120
3,63,0,0
3,61,0,0
3,58,0,0
3,61,90,0
3,58,90,0
3,54,90,0
3,61,0,120
3,61,90,0
3,61,0,60
3,54,0,0
3,58,0,0
3,63,90,0
3,63,0,60
3,65,90,0
3,62,102,60
3,65,99,0
3,58,88,0
3,58,0,6
3,65,0,5
3,62,0,0
3,62,85,45
3,65,96,0
3,58,62,0
3,58,0,4
3,65,0,10
3,62,0,1
3,62,76,44
3,65,88,1
3,58,68,0
3,58,0,9
3,65,0,6
3,62,0,0
3,62,102,45
3,65,106,0
3,58,93,0
3,58,0,15
3,65,0,0
3,62,0,0
3,62,80,45
3,65,93,0
3,58,70,0
3,65,0,4
3,65,0,5
3,62,0,6
3,58,0,0
3,62,76,44
3,65,81,1
3,58,64,0
3,58,0,10
3,65,0,5
3,62,0,0
3,62,85,44
3,65,103,1
3,58,81,0
3,58,0,10
3,65,0,5
3,62,0,0
3,62,82,45
3,65,86,0
3,58,66,0
3,58,0,10
3,65,0,0
3,62,0,10
3,58,81,39
3,61,99,1
3,66,96,0
3,66,0,15
3,61,0,0
3,58,0,0
3,61,74,44
3,66,63,1
3,63,69,0
3,58,60,0
3,58,0,10
3,63,0,0
3,61,0,4
3,66,0,1
3,61,79,45
3,66,66,0
3,63,73,0
3,58,61,0
3,58,0,10
3,61,0,5
3,66,0,0
3,63,0,0
3,61,106,45
3,66,99,0
3,63,99,0
3,58,88,0
3,58,0,15
3,61,0,0
3,66,0,0
3,63,0,0
3,61,81,45
3,66,57,0
3,58,68,0
3,63,75,0
3,63,0,10
3,61,0,5
3,66,0,0
3,58,0,0
3,61,79,45
3,63,70,0
3,58,62,0
3,66,54,0
3,66,0,15
3,58,0,0
3,63,0,0
3,61,0,5
3,61,93,40
3,63,93,0
3,66,79,0
3,58,75,0
3,58,0,10
3,61,0,5
3,63,0,0
3,66,0,0
3,61,81,45
3,66,61,0
3,63,75,0
3,58,49,0
3,58,0,5
3,63,0,10
3,66,0,0
3,61,0,5
3,65,106,40
3,61,99,0
3,66,86,0
3,66,0,15
3,61,0,0
3,65,0,0
3,65,91,45
3,61,91,0
3,66,63,0
3,66,0,10
3,61,0,5
3,65,0,0
3,65,84,45
3,61,84,0
3,66,61,0
3,66,0,15
3,65,0,0
3,61,0,5
3,66,79,40
3,61,103,0
3,58,96,0
3,63,99,0
3,63,0,10
3,66,0,5
3,61,0,0
3,58,0,0
3,61,73,45
3,63,67,0
3,66,43,0
3,58,54,0
3,58,0,10
3,66,0,5
3,63,0,0
3,61,0,5
3,61,75,40
3,66,52,0
3,63,70,0
3,58,57,0
3,58,0,10
3,61,0,5
3,66,0,0
3,63,0,0
3,61,91,45
3,66,84,0
3,63,86,0
3,58,78,0
3,58,0,15
3,63,0,0
3,66,0,5
3,61,0,0
3,61,91,40
3,66,78,0
3,63,88,0
3,58,75,0
3,63,0,14
3,58,0,1
3,66,0,0
3,61,0,5
3,61,115,40
3,58,106,0
3,56,93,0
3,65,99,0
3,65,0,10
3,61,0,0
3,58,0,0
3,56,0,5
3,58,79,45
3,65,75,0
3,56,74,0
3,61,79,0
3,61,0,9
3,58,0,6
3,65,0,0
3,56,0,0
3,65,70,45
3,58,73,0
3,56,60,0
3,61,81,0
3,61,0,10
3,56,0,0
3,58,0,5
3,65,0,5
3,63,96,40
3,55,76,0
3,60,99,0
3,58,84,0
3,60,0,85
3,58,0,4
3,63,0,0
3,55,0,21
3,60,99,10
3,63,93,0
3,58,74,0
3,58,0,10
3,63,0,0
3,60,0,0
3,55,93,50
3,60,106,0
3,63,96,0
3,58,81,0
3,58,0,105
3,55,0,0
3,60,0,0
3,63,0,0
3,62,102,19
3,65,99,0
3,58,88,0
3,58,0,6
3,65,0,5
3,62,0,0
3,62,85,45
3,65,96,0
3,58,62,0
3,58,0,4
3,65,0,10
3,62,0,1
3,62,76,44
3,65,88,1
3,58,68,0
3,58,0,9
3,65,0,6
3,62,0,0
3,62,102,45
3,65,106,0
3,58,93,0
3,58,0,15
3,65,0,0
3,62,0,0
3,62,80,45
3,65,93,0
3,58,70,0
3,65,0,9
3,58,0,6
3,62,0,0
3,62,76,44
3,65,81,1
3,58,64,0
3,58,0,10
3,65,0,5
3,62,0,0
3,62,85,44
3,65,103,1
3,58,81,0
3,58,0,10
3,65,0,5
3,62,0,0
3,62,82,45
3,65,86,0
3,58,66,0
3,58,0,10
3,65,0,0
3,62,0,10
3,58,81,39
3,61,99,1
3,66,96,0
3,66,0,15
3,61,0,0
3,58,0,0
3,61,74,44
3,66,63,1
3,63,69,0
3,58,60,0
3,58,0,10
3,63,0,0
3,61,0,4
3,66,0,1
3,61,79,45
3,66,66,0
3,63,73,0
3,58,61,0
3,58,0,10
3,61,0,5
3,66,0,0
3,63,0,0
3,61,106,45
3,66,99,0
3,63,99,0
3,58,88,0
3,58,0,15
3,61,0,0
3,66,0,0
3,63,0,0
3,61,81,45
3,66,57,0
3,58,68,0
3,63,75,0
3,63,0,10
3,61,0,5
3,66,0,0
3,58,0,0
3,61,79,45
3,63,70,0
3,58,62,0
3,66,54,0
3,66,0,15
3,58,0,0
3,63,0,0
3,61,0,5
3,61,93,40
3,63,93,0
3,66,79,0
3,58,75,0
3,58,0,10
3,61,0,5
3,63,0,0
3,66,0,0
3,61,81,45
3,66,61,0
3,63,75,0
3,58,49,0
3,58,0,5
3,63,0,10
3,66,0,0
3,61,0,5
3,65,106,40
3,61,99,0
3,66,86,0
3,66,0,15
3,61,0,0
3,65,0,0
3,65,91,45
3,61,91,0
3,66,63,0
3,66,0,10
3,61,0,5
3,65,0,0
3,65,84,45
3,61,84,0
3,66,61,0
3,66,0,15
3,65,0,0
3,61,0,5
3,66,79,40
3,61,103,0
3,58,96,0
3,63,99,0
3,63,0,10
3,66,0,5
3,61,0,0
3,58,0,0
3,61,73,45
3,63,67,0
3,66,43,0
3,58,54,0
3,58,0,10
3,66,0,5
3,63,0,0
3,61,0,5
3,61,75,40
3,66,52,0
3,63,70,0
3,58,57,0
3,58,0,10
3,61,0,5
3,66,0,0
3,63,0,0
3,61,91,45
3,66,84,0
3,63,86,0
3,58,78,0
3,58,0,15
3,63,0,0
3,66,0,5
3,61,0,0
3,61,91,40
3,66,78,0
3,63,88,0
3,58,75,0
3,63,0,14
3,58,0,1
3,66,0,0
3,61,0,5
3,61,115,40
3,58,106,0
3,56,93,0
3,65,99,0
3,65,0,10
3,61,0,0
3,58,0,0
3,56,0,5
3,58,79,45
3,65,75,0
3,56,74,0
3,61,79,0
3,61,0,9
3,58,0,6
3,65,0,0
3,56,0,0
3,65,70,45
3,58,73,0
3,56,60,0
3,61,81,0
3,61,0,10
3,56,0,0
3,58,0,5
3,65,0,5
3,63,96,40
3,55,76,0
3,60,99,0
3,58,84,0
3,60,0,85
3,58,0,4
3,63,0,0
3,55,0,21
3,60,99,10
3,63,93,0
3,58,74,0
3,58,0,10
3,63,0,0
3,60,0,0
3,55,93,50
3,60,106,0
3,63,96,0
3,58,81,0
3,58,0,105
3,55,0,0
3,60,0,0
3,63,0,0
3,57,90,19
3,62,90,0
3,62,0,120
3,63,90,0
3,63,0,60
3,57,0,0
3,57,90,0
3,62,90,0
3,65,90,0
3,57,0,120
3,53,90,0
3,53,0,120
3,65,0,0
3,62,0,0
3,54,90,0
3,54,0,120
3,54,90,0
3,58,90,0
3,61,90,0
3,65,90,0
3,65,0,120
3,54,0,0
3,58,0,0
3,61,0,0
3,63,90,0
3,63,0,60
3,54,90,0
3,58,90,0
3,61,90,0
3,61,0,240
3,58,0,0
3,54,0,0
3,53,90,0
3,56,90,0
3,58,90,0
3,61,90,0
3,61,0,60
3,61,90,0
3,61,0,120
3,63,90,0
3,63,0,180
3,53,0,0
3,56,0,0
3,58,0,0
3,54,90,60
3,54,0,60
3,53,90,0
3,53,0,60
3,63,90,0
3,60,90,0
3,56,90,0
3,56,0,120
3,60,0,0
3,63,0,0
3,54,90,0
3,58,90,0
3,61,90,0
3,61,0,120
3,63,90,0
3,58,0,60
3,54,0,0
3,54,90,0
3,58,90,0
3,63,0,60
3,65,90,0
3,65,0,60
3,58,0,0
3,54,0,0
3,57,90,0
3,60,90,0
3,62,90,0
3,65,90,0
3,65,0,300
3,57,0,0
3,60,0,0
3,62,0,0
3,53,90,0
3,53,0,120
3,54,90,0
3,54,0,120
3,54,90,0
3,58,90,0
3,61,90,0
3,65,90,0
3,65,0,120
3,54,0,0
3,58,0,0
3,61,0,0
3,63,90,0
3,63,0,60
3,54,90,0
3,58,90,0
3,61,90,0
3,61,0,240
3,58,0,0
3,54,0,0
3,53,90,0
3,56,90,0
3,58,90,0
3,61,90,0
3,61,0,60
3,61,90,0
3,61,0,120
3,63,90,0
3,63,0,180
3,53,0,0
3,56,0,0
3,58,0,0
3,53,90,60
3,53,0,60
3,54,90,0
3,54,0,60
3,63,90,0
3,61,90,0
3,58,90,0
3,54,90,0
3,54,0,120
3,63,0,0
3,61,0,0
3,58,0,0
3,61,90,0
3,58,90,0
3,54,90,0
3,61,0,120
3,61,90,0
3,61,0,60
3,54,0,0
3,58,0,0
3,63,90,0
3,63,0,60
3,65,90,0
3,62,102,60
3,65,99,0
3,58,88,0
3,58,0,6
3,65,0,5
3,62,0,0
3,62,85,45
3,65,96,0
3,58,62,0
3,58,0,4
3,65,0,10
3,62,0,1
3,62,76,44
3,65,88,1
3,58,68,0
3,58,0,9
3,65,0,6
3,62,0,0
3,62,102,45
3,65,106,0
3,58,93,0
3,58,0,15
3,65,0,0
3,62,0,0
3,62,80,45
3,65,93,0
3,58,70,0
3,65,0,4
3,65,0,5
3,62,0,6
3,58,0,0
3,62,76,44
3,65,81,1
3,58,64,0
3,58,0,10
3,65,0,5
3,62,0,0
3,62,85,44
3,65,103,1
3,58,81,0
3,58,0,10
3,65,0,5
3,62,0,0
3,62,82,45
3,65,86,0
3,58,66,0
3,58,0,10
3,65,0,0
3,62,0,10
3,58,81,39
3,61,99,1
3,66,96,0
3,66,0,15
3,61,0,0
3,58,0,0
3,61,74,44
3,66,63,1
3,63,69,0
3,58,60,0
3,58,0,10
3,63,0,0
3,61,0,4
3,66,0,1
3,61,79,45
3,66,66,0
3,63,73,0
3,58,61,0
3,58,0,10
3,61,0,5
3,66,0,0
3,63,0,0
3,61,106,45
3,66,99,0
3,63,99,0
3,58,88,0
3,58,0,15
3,61,0,0
3,66,0,0
3,63,0,0
3,61,81,45
3,66,57,0
3,58,68,0
3,63,75,0
3,63,0,10
3,61,0,5
3,66,0,0
3,58,0,0
3,61,79,45
3,63,70,0
3,58,62,0
3,66,54,0
3,66,0,15
3,58,0,0
3,63,0,0
3,61,0,5
3,61,93,40
3,63,93,0
3,66,79,0
3,58,75,0
3,58,0,10
3,61,0,5
3,63,0,0
3,66,0,0
3,61,81,45
3,66,61,0
3,63,75,0
3,58,49,0
3,58,0,5
3,63,0,10
3,66,0,0
3,61,0,5
3,65,106,40
3,61,99,0
3,66,86,0
3,66,0,15
3,61,0,0
3,65,0,0
3,65,91,45
3,61,91,0
3,66,63,0
3,66,0,10
3,61,0,5
3,65,0,0
3,65,84,45
3,61,84,0
