track,note,velocity,time
1,62,127,4320
1,62,127,120
1,59,127,0
1,59,127,120
1,57,127,120
1,57,127,840
1,57,127,120
1,59,127,120
1,52,127,0
1,52,127,0
1,52,127,0
1,50,127,1080
1,52,127,0
1,49,95,0
1,50,70,120
1,57,127,360
1,59,127,0
1,57,127,0
1,59,127,0
1,64,127,0
1,62,127,0
1,62,127,240
1,59,127,0
1,59,127,0
1,57,127,0
1,57,127,720
1,57,127,0
1,57,127,0
1,57,127,0
1,59,127,0
1,52,127,0
1,52,127,0
1,52,127,0
1,52,127,840
1,52,127,0
1,52,127,0
1,62,127,1680
1,67,114,0
1,62,127,0
1,67,114,0
1,62,127,0
1,67,114,0
1,62,127,0
1,67,114,0
1,59,127,0
1,67,114,0
1,59,127,0
1,67,114,0
1,57,127,7
1,66,114,0
1,54,127,0
1,64,114,0
1,64,114,0
1,52,127,0
1,52,127,0
1,64,114,0
1,62,127,0
1,52,127,0
1,62,127,960
1,62,127,0
1,62,127,0
1,62,127,0
1,62,127,0
1,59,127,0
1,59,127,0
1,57,127,0
1,66,127,590
1,66,127,0
1,57,127,117
1,57,127,0
1,59,127,0
1,57,127,0
1,59,127,0
1,62,127,0
1,59,127,0
1,57,127,0
1,62,127,0
1,57,127,480
1,59,127,0
1,62,127,0
1,59,127,0
1,62,127,120
1,59,127,0
1,57,127,0
1,64,127,120
1,62,127,0
1,57,127,240
1,59,127,0
1,62,127,0
1,59,127,0
1,62,127,120
1,59,127,7
1,66,127,230
1,62,127,360
1,57,127,360
1,66,127,0
1,67,127,0
1,62,127,0
1,59,127,0
1,57,127,0
1,55,127,0
1,54,127,0
1,62,127,120
1,66,127,240
1,62,127,0
1,59,127,0
1,57,127,0
1,62,127,0
1,57,127,600
1,59,127,0
1,62,127,0
1,59,127,0
1,62,127,120
1,59,127,0
1,57,127,0
1,64,127,120
1,62,127,0
1,57,127,240
1,59,127,0
1,62,127,0
1,59,127,0
1,62,127,120
1,59,127,7
1,66,127,230
1,62,127,360
1,57,127,360
1,67,127,0
1,67,127,0
1,62,127,0
1,59,127,0
1,57,127,0
1,55,127,0
1,54,127,0
1,62,127,120
1,62,127,720
1,62,127,0
1,62,127,7
1,62,127,0
1,59,127,0
1,59,127,120
1,57,127,120
1,57,127,600
1,59,127,7
1,57,127,240
1,59,127,7
1,52,127,0
1,52,127,0
1,55,127,0
1,50,127,1066
1,50,127,0
1,52,127,0
1,57,127,604
1,57,127,0
1,59,127,7
1,57,127,0
1,59,127,0
1,62,127,0
1,62,127,360
1,66,127,127
1,66,127,0
1,62,127,233
1,59,127,359
1,57,127,0
1,64,127,120
1,57,127,727
1,59,127,0
1,57,127,6
1,59,127,356
1,66,127,11
1,66,127,0
1,62,127,360
1,59,127,0
1,62,127,600
1,59,127,0
1,66,127,120
1,66,127,0
1,62,127,0
1,71,127,600
1,70,127,0
1,69,127,0
1,67,127,0
1,62,127,240
1,67,127,0
1,62,127,0
1,67,114,0
1,62,127,0
1,67,114,0
1,62,127,0
1,67,114,0
1,62,127,0
1,67,114,0
1,59,127,0
1,67,114,0
1,59,127,0
1,67,114,0
1,57,127,7
1,66,114,0
1,54,127,0
1,64,114,0
1,64,114,0
1,52,127,0
1,52,127,0
1,64,114,0
1,62,127,0
1,52,127,0
1,62,127,960
1,62,127,0
1,62,127,0
1,62,127,0
1,62,127,0
1,59,127,0
1,59,127,0
1,57,127,0
1,66,127,590
1,66,127,0
1,57,127,117
1,57,127,0
1,59,127,0
1,57,127,0
1,59,127,0
1,62,127,0
1,59,127,0
1,57,127,0
1,62,127,0
1,57,127,480
1,59,127,0
1,62,127,0
1,59,127,0
1,62,127,120
1,59,127,0
1,57,127,0
1,64,127,120
1,62,127,0
1,57,127,240
1,59,127,0
1,62,127,0
1,59,127,0
1,62,127,120
1,59,127,7
1,66,127,230
1,62,127,360
1,57,127,360
1,66,127,0
1,67,127,0
1,62,127,0
1,59,127,0
1,57,127,0
1,55,127,0
1,54,127,0
1,62,127,120
1,66,127,240
1,62,127,0
1,59,127,0
1,57,127,0
1,62,127,0
1,57,127,600
1,59,127,0
1,62,127,0
1,59,127,0
1,62,127,120
1,59,127,0
1,57,127,0
1,64,127,120
1,62,127,0
1,57,127,240
1,59,127,0
1,62,127,0
1,59,127,0
1,62,127,120
1,59,127,7
1,66,127,230
1,62,127,360
1,57,127,360
1,67,127,0
1,67,127,0
1,62,127,0
1,59,127,0
1,57,127,0
1,55,127,0
1,54,127,0
1,62,127,120
1,64,127,1440
1,64,127,120
1,64,127,0
1,64,127,120
1,64,127,0
1,60,127,0
1,57,127,360
1,64,127,0
1,64,127,0
1,64,127,0
1,64,127,0
1,64,127,0
1,60,127,0
1,64,127,720
1,64,127,0
1,64,127,0
1,64,127,0
1,64,127,0
1,52,127,480
1,64,127,0
1,64,127,120
1,64,127,0
1,67,127,0
1,64,127,3
1,59,127,480
1,64,127,0
1,64,127,0
1,64,127,0
1,64,127,0
1,64,127,0
1,62,127,490
1,64,127,0
1,64,127,0
1,64,127,0
1,64,127,0
1,64,127,0
1,62,127,1320
1,62,127,0
1,64,127,0
1,62,127,960
1,67,114,0
1,62,127,0
1,67,114,0
1,62,127,0
1,67,114,0
1,62,127,0
1,67,114,0
1,59,127,0
1,67,114,0
1,59,127,0
1,67,114,0
1,66,114,7
1,64,114,0
1,64,114,0
1,69,127,140
1,64,114,0
1,67,127,0
1,62,127,0
1,69,127,0
1,67,127,0
1,66,127,0
1,69,127,120
1,67,127,7
1,67,127,113
1,67,127,0
1,67,127,0
1,67,127,0
1,71,127,0
1,69,127,7
1,67,127,120
1,69,127,120
1,57,127,0
1,69,127,0
1,57,127,0
1,57,127,240
1,69,127,0
1,70,127,0
1,58,127,0
1,72,127,0
1,60,127,0
1,70,127,0
1,58,127,0
1,72,127,0
1,60,127,0
1,63,127,0
1,75,127,0
1,60,127,0
1,72,127,0
1,58,127,0
1,70,127,0
1,63,127,0
1,58,127,480
1,60,127,0
1,63,127,0
1,60,127,0
1,63,127,120
1,60,127,0
1,58,127,0
1,65,127,120
1,63,127,0
1,70,127,240
1,58,127,0
1,72,127,0
1,60,127,0
1,75,127,0
1,63,127,0
1,72,127,0
1,60,127,0
1,75,127,120
1,63,127,0
1,72,127,7
1,60,127,0
1,67,127,230
1,63,127,360
1,58,127,360
1,67,127,0
1,68,127,0
1,63,127,0
1,60,127,0
1,58,127,0
1,56,127,0
1,55,127,0
1,63,127,0
1,63,127,0
1,63,127,0
1,67,127,240
1,63,127,0
1,67,127,0
1,60,127,0
1,70,127,0
1,58,127,0
1,63,127,0
1,58,127,600
1,60,127,0
1,63,127,0
1,70,127,0
1,60,127,0
1,63,127,120
1,75,127,110
1,60,127,0
1,74,127,0
1,58,127,0
1,65,127,120
1,63,127,0
1,58,127,240
1,60,127,0
1,63,127,0
1,60,127,0
1,63,127,120
1,60,127,7
1,70,127,0
1,70,127,0
1,70,127,110
1,67,127,0
1,68,127,0
1,63,127,240
1,58,127,360
1,68,127,0
1,68,127,0
1,63,127,0
1,60,127,0
1,58,127,0
1,56,127,0
1,55,127,0
1,70,127,0
1,70,127,0
1,63,127,0
1,70,127,0
1,70,127,120
1,66,127,0
1,70,127,0
1,63,127,0
1,60,127,0
1,75,127,0
1,58,127,0
1,75,127,113
1,63,127,0
1,70,127,0
1,58,127,360
1,60,127,0
1,63,127,0
1,60,127,0
1,63,127,120
1,60,127,0
1,58,127,0
1,65,127,120
1,63,127,0
1,58,127,240
1,60,127,0
1,63,127,0
1,60,127,0
1,63,127,120
1,60,127,7
1,67,127,230
1,63,127,360
1,58,127,360
1,68,127,0
1,68,127,0
1,63,127,0
1,60,127,0
1,58,127,0
1,56,127,0
1,55,127,0
1,63,127,120
1,67,127,0
1,70,127,0
1,70,127,240
1,70,127,120
1,70,127,1440
1,70,127,127
2,66,127,3840
2,62,127,0
2,64,127,0
2,61,127,0
2,67,127,0
2,64,127,0
2,59,127,0
2,62,127,2400
2,66,127,0
2,61,127,0
2,64,127,0
2,64,127,0
2,67,127,0
2,67,127,0
2,64,127,0
2,88,127,960
2,86,127,0
2,83,127,0
2,81,127,0
2,67,127,0
2,62,127,0
2,55,127,0
2,43,127,0
2,66,127,0
2,57,127,0
2,49,127,0
2,69,127,0
2,61,127,0
2,52,127,0
2,55,127,0
2,62,127,0
2,67,127,0
2,45,127,0
2,64,127,0
2,69,127,0
2,57,127,0
2,45,127,0
2,57,127,0
2,45,127,0
2,74,127,0
2,64,127,0
2,52,127,0
2,76,127,0
2,78,127,0
2,74,127,0
2,66,127,0
2,69,127,0
2,81,127,0
2,74,127,240
2,69,127,0
2,64,127,0
2,62,127,120
2,67,127,0
2,64,127,120
2,69,127,0
2,74,127,0
2,71,127,120
2,67,127,0
2,62,127,0
2,71,127,120
2,69,127,0
2,67,127,0
2,64,127,0
2,78,127,120
2,74,127,0
2,66,127,0
2,69,127,0
2,81,127,0
2,74,127,240
2,69,127,0
2,64,127,0
2,62,127,120
2,67,127,0
2,64,127,120
2,69,127,0
2,74,127,0
2,71,127,120
2,67,127,0
2,62,127,0
2,71,127,120
2,69,127,0
2,67,127,0
2,64,127,0
2,66,127,120
2,62,127,0
2,64,127,0
2,61,127,0
2,67,127,0
2,64,127,0
2,59,127,0
2,59,127,240
2,64,127,0
2,67,127,0
2,62,127,720
2,66,127,0
2,61,127,0
2,64,127,0
2,64,127,0
2,67,127,0
2,67,127,0
2,64,127,0
2,88,127,960
2,86,127,0
2,83,127,0
2,81,127,0
2,62,127,0
2,67,127,0
2,55,127,0
2,43,127,0
2,66,127,0
2,57,127,0
2,49,127,0
2,69,127,0
2,61,127,0
2,52,127,0
2,55,127,0
2,62,127,0
2,67,127,0
2,45,127,0
2,64,127,0
2,69,127,0
2,57,127,0
2,45,127,0
2,57,127,0
2,45,127,0
2,74,127,0
2,64,127,0
2,52,127,0
2,76,127,0
2,78,127,0
2,74,127,0
2,66,127,0
2,62,127,0
2,50,127,0
2,69,127,0
2,81,127,0
2,74,127,240
2,69,127,0
2,64,127,0
2,62,127,120
2,67,127,0
2,64,127,120
2,69,127,0
2,74,127,0
2,71,127,120
2,67,127,0
2,62,127,0
2,71,127,120
2,69,127,0
2,67,127,0
2,64,127,0
2,78,127,120
2,74,127,0
2,66,127,0
2,69,127,0
2,81,127,0
2,74,127,240
2,69,127,0
2,64,127,0
2,62,127,120
2,67,127,0
2,64,127,120
2,69,127,0
2,74,127,0
2,71,127,120
2,67,127,0
2,62,127,0
2,71,127,120
2,69,127,0
2,67,127,0
2,64,127,0
2,76,127,11880
2,64,127,0
2,76,127,0
2,64,127,0
2,52,127,957
2,64,127,0
2,52,127,0
2,64,127,0
2,64,127,0
2,52,127,0
2,64,127,0
2,52,127,0
2,64,127,0
2,52,127,0
2,64,127,0
2,52,127,0
2,62,127,120
2,67,127,0
2,55,127,0
2,43,127,0
2,66,127,0
2,57,127,0
2,49,127,0
2,69,127,0
2,61,127,0
2,52,127,0
2,55,127,0
2,62,127,0
2,67,127,0
2,45,127,0
2,64,127,0
2,57,127,0
2,69,127,0
2,45,127,0
2,58,127,0
2,46,127,0
2,70,127,0
2,74,127,130
2,58,127,0
2,46,127,0
2,76,127,0
2,65,127,0
2,53,127,0
2,51,127,0
2,63,127,0
2,67,127,0
2,75,127,0
2,79,127,0
2,70,127,0
2,82,127,0
2,75,127,240
2,70,127,0
2,65,127,0
2,63,127,120
2,68,127,0
2,65,127,120
2,70,127,0
2,75,127,0
2,72,127,120
2,68,127,0
2,63,127,0
2,72,127,120
2,70,127,0
2,68,127,0
2,65,127,0
2,75,127,120
2,67,127,0
2,79,127,0
2,70,127,0
2,82,127,0
2,75,127,240
2,70,127,0
2,65,127,0
2,63,127,120
2,68,127,0
2,65,127,120
2,70,127,0
2,75,127,0
2,72,127,120
2,68,127,0
2,63,127,0
2,72,127,120
2,70,127,0
2,68,127,0
2,65,127,0
2,75,127,120
2,67,127,0
2,79,127,0
2,70,127,0
2,82,127,0
2,75,127,240
2,70,127,0
2,65,127,0
2,63,127,120
2,68,127,0
2,65,127,120
2,70,127,0
2,75,127,0
2,72,127,120
2,68,127,0
2,63,127,0
2,72,127,120
2,70,127,0
2,68,127,0
2,65,127,0
2,79,119,120
2,67,119,0
2,75,119,0
2,82,111,0
2,70,111,0
2,75,111,240
2,70,111,0
2,65,111,0
2,68,103,120
2,63,103,0
2,65,103,120
2,70,103,0
2,75,103,0
2,63,95,120
2,68,95,0
2,72,95,0
2,72,95,120
2,70,95,0
2,68,95,0
2,65,95,0
2,79,87,120
2,67,87,0
2,75,87,0
2,82,79,0
2,70,79,0
2,75,79,240
2,70,79,0
2,65,79,0
2,68,71,120
2,63,71,0
2,65,71,120
2,70,71,0
2,75,71,0
2,63,63,120
2,68,63,0
2,72,63,0
2,72,63,120
2,70,63,0
2,68,63,0
2,65,63,0
2,79,55,120
2,67,55,0
2,75,55,0
2,82,47,0
2,70,47,0
2,75,47,240
2,70,47,0
2,65,47,0
2,68,39,120
2,63,39,0
2,65,39,120
2,70,39,0
2,75,39,0
2,63,31,120
2,68,31,0
2,72,31,0
2,72,31,120
2,70,31,0
2,68,31,0
2,65,31,0
2,79,23,120
2,67,23,0
2,75,23,0
2,82,15,0
2,70,15,0
2,75,15,240
2,70,15,0
2,65,15,0
2,68,7,120
2,63,7,0
2,65,7,120
2,70,7,0
2,75,7,0
2,63,1,120
2,68,1,0
2,72,1,0
2,72,1,120
2,70,1,0
2,68,1,0
2,65,1,0
3,38,127,3840
3,38,127,0
3,35,127,0
3,33,127,0
3,28,127,0
3,33,127,0
3,35,127,0
3,38,127,0
3,40,127,0
3,38,127,1800
3,33,127,0
3,28,127,0
3,28,127,0
3,40,127,0
3,40,127,0
3,38,127,0
3,35,127,0
3,33,127,0
3,31,127,0
3,38,127,0
3,38,127,0
3,31,127,0
3,30,127,0
3,37,127,0
3,37,127,0
3,30,127,0
3,28,127,0
3,28,127,0
3,28,127,120
3,33,127,0
3,33,127,120
3,38,127,0
3,38,127,120
3,38,127,0
3,35,127,0
3,33,127,0
3,33,127,120
3,33,127,0
3,31,127,0
3,28,127,0
3,28,127,120
3,28,127,0
3,33,127,0
3,31,127,0
3,33,127,120
3,33,127,0
3,38,127,120
3,38,127,120
3,42,127,0
3,38,127,0
3,42,127,0
3,43,127,0
3,45,127,0
3,40,127,0
3,45,127,0
3,40,127,0
3,33,127,0
3,42,127,0
3,40,127,0
3,33,127,0
3,40,127,0
3,40,127,0
3,43,127,0
3,45,127,0
3,40,127,0
3,33,127,0
3,40,127,0
3,38,127,0
3,38,127,0
3,35,127,0
3,33,127,0
3,28,127,0
3,33,127,0
3,35,127,0
3,38,127,0
3,40,127,0
3,38,127,1800
3,33,127,0
3,28,127,0
3,28,127,0
3,40,127,0
3,40,127,0
3,38,127,0
3,35,127,0
3,33,127,0
3,31,127,0
3,38,127,0
3,38,127,0
3,31,127,0
3,30,127,0
3,37,127,0
3,37,127,0
3,30,127,0
3,28,127,0
3,28,127,0
3,28,127,120
3,33,127,0
3,33,127,120
3,38,127,0
3,38,127,120
3,38,127,0
3,35,127,0
3,33,127,0
3,33,127,120
3,33,127,0
3,31,127,0
3,28,127,0
3,28,127,120
3,28,127,0
3,33,127,0
3,31,127,0
3,33,127,120
3,33,127,0
3,38,127,120
3,38,127,120
3,42,127,0
3,38,127,0
3,42,127,0
3,43,127,0
3,45,127,0
3,40,127,0
3,45,127,0
3,40,127,0
3,33,127,0
3,42,127,0
3,40,127,0
3,33,127,0
3,40,127,0
3,40,127,0
3,43,127,0
3,45,127,0
3,40,127,0
3,33,127,0
3,40,127,0
3,41,127,0
3,36,127,0
3,36,127,120
3,45,127,0
3,33,127,0
3,40,127,0
3,40,127,120
3,40,127,117
3,41,127,0
3,36,127,0
3,36,127,120
3,41,127,0
3,40,127,0
3,35,127,240
3,36,127,0
3,43,127,0
3,43,127,120
3,36,127,0
3,35,127,0
