track,note,velocity,time
1,63,101,4992
1,63,101,96
1,63,101,92
1,68,101,188
1,66,101,572
1,65,101,92
1,63,101,1998
1,63,101,92
1,63,101,92
1,68,101,188
1,66,101,186
1,66,101,572
1,65,101,380
1,63,101,188
1,65,101,376
1,65,101,858
1,65,101,92
1,66,101,188
1,65,101,92
1,63,101,284
1,63,101,756
1,61,101,188
1,60,101,188
1,61,101,380
1,70,101,1138
1,70,101,188
1,63,101,188
1,63,101,92
1,61,101,284
1,63,101,188
1,63,101,1916
1,63,101,92
1,63,101,92
1,68,101,188
1,66,101,564
1,65,101,72
1,63,101,2008
1,63,101,92
1,63,101,92
1,63,101,92
1,68,101,92
1,66,101,188
1,66,101,572
1,65,101,380
1,63,101,188
1,65,101,380
1,65,101,860
1,65,101,92
1,66,101,188
1,65,101,92
1,63,101,252
1,63,101,764
1,61,101,188
1,60,101,188
1,61,101,356
1,70,101,1126
1,70,101,188
1,70,101,188
1,70,101,92
1,72,101,284
1,72,101,188
1,68,101,956
1,73,101,162
1,75,101,188
1,78,101,188
1,77,101,380
1,73,101,380
1,68,101,178
1,70,101,380
1,68,101,1148
1,73,101,284
1,75,101,92
1,78,101,188
1,77,101,380
1,80,101,188
1,73,101,764
1,73,101,188
1,77,101,380
1,75,101,380
1,78,101,572
1,78,101,188
1,77,101,284
1,77,101,92
1,77,101,188
1,75,101,380
1,77,101,380
1,75,101,188
1,73,101,92
1,70,101,1226
1,77,101,186
1,75,101,188
1,75,101,92
1,70,101,284
1,77,101,174
1,75,101,188
1,75,101,92
1,73,101,284
1,73,101,166
1,72,101,380
1,70,101,368
1,72,101,572
1,73,101,184
1,63,101,3452
1,63,101,92
1,63,101,92
1,63,101,92
1,68,101,92
1,66,101,572
1,65,101,90
1,63,101,2006
1,63,101,92
1,63,101,92
1,68,101,188
1,66,101,188
1,66,101,572
1,65,101,380
1,63,101,188
1,65,101,378
1,65,101,858
1,65,101,92
1,66,101,188
1,65,101,92
1,63,101,284
1,63,101,764
1,61,101,188
1,60,101,188
1,61,101,378
1,70,101,1148
1,70,101,188
1,63,101,188
1,63,101,92
1,61,101,284
1,63,101,188
1,63,101,1916
1,63,101,92
1,63,101,92
1,68,101,188
1,66,101,188
1,65,101,380
1,63,101,2108
1,63,101,92
1,63,101,92
1,68,101,188
1,66,101,188
1,66,101,572
1,65,101,380
1,63,101,166
1,65,101,380
1,65,101,840
1,65,101,92
1,66,101,188
1,65,101,92
1,63,101,284
1,63,101,764
1,61,101,188
1,60,101,188
1,61,101,380
1,70,101,1148
1,70,101,188
1,70,101,188
1,70,101,92
1,72,101,284
1,72,101,188
1,68,101,956
1,73,101,186
1,75,101,188
1,78,101,188
1,77,101,380
1,73,101,380
1,68,101,184
1,70,101,380
1,68,101,1148
1,73,101,268
1,75,101,92
1,78,101,188
1,77,101,380
1,80,101,188
1,73,101,764
1,73,101,188
1,77,101,380
1,75,101,380
1,78,101,572
1,78,101,188
1,77,101,284
1,77,101,92
1,77,101,188
1,77,101,92
1,75,101,284
1,75,101,188
1,77,101,188
1,75,101,188
1,73,101,92
1,70,101,1234
1,77,101,188
1,75,101,188
1,75,101,92
1,70,101,284
1,77,101,180
1,75,101,188
1,75,101,92
1,73,101,284
1,73,101,188
1,72,101,380
1,70,101,368
1,72,101,188
1,73,101,376
1,70,101,560
1,72,101,188
1,73,101,92
1,68,101,276
1,68,101,92
1,68,101,284
1,78,101,188
1,78,101,188
1,78,101,92
1,78,101,284
1,78,101,188
1,77,101,188
1,77,101,92
1,75,101,284
1,77,101,188
1,77,101,188
1,77,101,92
1,78,101,284
1,77,101,188
1,75,101,188
1,75,101,92
1,77,101,284
1,77,101,188
1,80,101,1244
1,80,101,92
1,80,101,92
1,80,101,92
1,79,101,380
1,75,101,380
1,70,101,188
1,72,101,380
1,70,101,1148
1,75,101,242
1,77,101,92
1,80,101,188
1,79,101,380
1,82,101,188
1,75,101,764
1,75,101,188
1,79,101,380
1,77,101,378
1,79,101,476
1,80,101,92
1,80,101,188
1,79,101,284
1,79,101,92
1,79,101,188
1,79,101,92
1,77,101,284
1,77,101,188
1,79,101,188
1,77,101,188
1,75,101,92
1,72,101,1244
1,79,101,188
1,77,101,188
1,77,101,82
1,72,101,284
1,79,101,188
1,77,101,188
1,77,101,92
1,75,101,284
1,75,101,188
1,74,101,380
1,72,101,380
1,80,101,188
1,80,101,188
1,80,101,188
1,80,101,188
1,79,101,380
1,75,101,378
1,70,101,182
1,72,101,380
1,70,101,1148
1,75,101,180
1,77,101,188
1,80,101,188
1,79,101,380
1,82,101,188
1,75,101,764
1,75,101,188
1,79,101,380
1,77,101,380
1,80,101,572
1,80,101,188
1,79,101,284
1,79,101,92
1,79,101,188
1,79,101,92
1,77,101,284
1,77,101,182
1,79,101,188
1,77,101,188
1,75,101,92
1,72,101,1214
1,79,101,188
1,77,101,188
1,77,101,92
1,72,101,284
1,79,101,188
1,77,101,188
1,77,101,92
1,75,101,284
1,75,101,188
1,74,101,380
1,72,101,380
1,74,101,572
1,75,101,176
1,79,101,2972
1,79,101,92
1,77,101,188
1,77,101,92
1,72,101,284
1,79,101,188
1,77,101,188
1,77,101,92
1,75,101,284
1,75,101,186
1,74,101,380
1,79,101,380
1,75,101,572
1,75,101,188
2,32,119,44544
2,32,119,26
2,33,119,8
2,34,119,0
2,34,119,46
2,36,119,16
2,32,119,28
2,37,119,24
2,37,119,34
2,41,119,8
2,33,119,20
2,34,119,768
2,39,119,2
2,39,119,54
2,39,119,44
2,32,119,20
2,32,119,38
2,32,119,26
2,33,119,8
2,33,119,62
2,34,119,0
2,41,119,14
2,46,119,0
2,36,119,768
2,32,119,28
2,36,119,0
2,36,119,64
2,37,119,24
2,32,119,34
2,37,119,0
2,37,119,62
2,39,119,0
2,41,119,0
2,32,119,4
2,33,119,0
2,33,119,58
2,34,119,0
2,41,119,18
2,46,119,0
2,41,119,16
2,39,119,32
2,41,119,54
2,43,119,44
2,41,119,20
2,37,119,80
2,32,119,16
2,37,119,0
2,41,119,0
2,44,119,0
2,41,119,48
2,37,119,0
2,42,119,0
2,42,119,48
2,41,119,0
2,44,119,0
2,37,119,48
2,37,119,0
2,39,119,0
2,41,119,0
2,37,119,96
2,42,119,0
2,46,119,0
2,44,119,0
2,39,119,0
2,44,119,0
2,41,119,0
2,32,119,0
2,37,119,0
2,37,119,96
2,39,119,0
2,41,119,0
2,29,119,0
2,33,119,0
2,34,119,0
2,41,119,0
2,46,119,0
2,39,119,0
2,39,119,96
2,32,119,0
2,32,119,256
2,34,119,0
2,34,119,38
2,36,119,0
2,32,119,32
2,32,119,16
2,32,119,48
2,37,119,0
2,32,119,48
2,37,119,8
2,37,119,40
2,37,119,24
2,41,119,40
2,42,119,0
2,36,119,6
2,32,119,6
2,34,119,14
2,41,119,24
2,46,119,0
2,41,119,40
2,46,119,0
2,38,119,48
2,39,119,0
2,34,119,16
2,39,119,0
2,43,119,0
2,46,119,0
2,43,119,48
2,39,119,0
2,44,119,0
2,44,119,48
2,43,119,0
2,46,119,0
2,39,119,48
2,39,119,0
2,41,119,0
2,43,119,0
2,39,119,96
2,44,119,0
2,48,119,0
2,46,119,0
2,41,119,0
2,46,119,0
2,43,119,0
2,34,119,0
2,39,119,0
2,39,119,96
2,41,119,0
2,43,119,0
2,31,119,0
2,35,119,0
2,36,119,0
2,31,119,0
2,36,119,0
2,36,119,104
2,36,117,32
2,41,117,0
2,29,117,24
2,41,117,16
2,36,117,24
2,29,117,24
2,29,117,48
2,34,117,0
2,34,117,32
2,41,117,0
2,29,119,16
2,39,119,0
2,34,119,16
2,39,119,0
2,43,119,0
2,46,119,0
2,43,119,48
2,39,119,0
2,44,119,0
2,44,119,48
2,43,119,0
2,46,119,0
2,39,119,48
2,39,119,0
2,41,119,0
2,43,119,0
2,39,119,96
2,44,119,0
2,48,119,0
2,46,119,0
2,41,119,0
2,46,119,0
2,43,119,0
2,34,119,0
2,39,119,0
2,43,88,8
2,31,119,24
2,36,80,0
2,36,72,96
2,41,64,0
2,29,64,8
2,34,48,0
2,46,52,0
2,32,45,0
2,31,45,0
2,41,45,0
2,29,52,64
2,34,45,56
2,46,45,0
2,27,45,0
3,68,32,194
3,73,40,192
3,75,52,126
3,78,60,74
3,61,60,8
3,77,56,336
3,53,64,18
3,65,64,4
3,73,64,16
3,68,60,566
3,54,60,0
3,70,60,2
3,61,60,176
3,68,64,192
3,70,56,28
3,73,56,40
3,56,64,4
3,66,64,2
3,56,64,36
3,68,64,10
3,72,44,18
3,63,68,168
3,68,64,54
3,72,64,40
3,69,64,46
3,72,64,2
3,57,77,2
3,63,64,186
3,69,68,66
3,72,64,62
3,75,72,42
3,72,77,2
3,58,72,10
3,75,64,30
3,72,77,4
3,65,64,198
3,58,68,34
3,73,68,4
3,70,77,4
3,73,68,36
3,70,68,6
3,65,64,196
3,75,68,26
3,60,68,10
3,63,64,180
3,68,60,198
3,75,68,96
3,60,64,36
3,80,64,14
3,68,64,54
3,75,68,192
3,80,77,128
3,61,72,28
3,78,72,6
3,65,64,82
3,68,72,198
3,73,64,192
3,77,64,52
3,65,64,102
3,68,64,170
3,73,72,192
3,77,68,14
3,53,68,10
3,60,72,146
3,65,72,190
3,70,72,196
3,57,68,52
3,69,77,4
3,65,72,156
3,77,68,34
3,75,72,116
3,72,68,20
3,75,68,2
3,58,68,0
3,65,72,190
3,70,68,194
3,75,68,26
3,72,68,10
3,70,64,12
3,58,64,0
3,73,64,0
3,73,68,46
3,70,72,10
3,65,64,184
3,75,68,16
3,51,77,4
3,70,77,2
3,63,64,154
3,58,64,26
3,70,64,22
3,55,68,8
3,70,68,8
3,63,68,150
3,68,68,158
3,70,68,18
3,73,68,64
3,56,68,4
3,63,68,150
3,68,68,122
3,73,64,12
3,72,72,44
3,68,60,4
3,56,60,0
3,60,77,30
3,63,77,10
3,44,77,0
3,56,56,180
3,60,68,40
3,63,68,10
3,56,52,60
3,60,77,30
3,45,77,0
3,65,77,0
3,57,77,134
3,60,84,42
3,63,68,146
3,60,77,40
3,46,77,0
3,63,77,2
3,63,77,62
3,65,77,0
3,60,64,44
3,58,77,4
3,61,77,0
3,46,77,0
3,65,77,76
3,61,77,6
3,68,84,2
3,48,88,18
3,60,77,2
3,68,88,2
3,63,77,6
3,56,77,192
3,60,77,24
3,63,77,2
3,56,56,60
3,48,77,44
3,60,77,6
3,56,60,54
3,63,77,84
3,65,77,182
3,49,77,50
3,61,77,4
3,66,77,4
3,56,56,184
3,61,77,72
3,66,60,168
3,65,56,44
3,56,77,4
3,61,56,2
3,49,56,8
3,56,64,62
3,65,77,2
3,61,64,10
3,56,56,40
3,41,77,40
3,53,68,196
3,60,77,38
3,65,77,4
3,57,77,6
3,53,48,188
3,45,64,32
3,53,77,100
3,63,77,188
3,60,77,0
3,57,77,8
3,51,77,104
3,61,77,44
3,58,77,4
3,63,77,4
3,46,77,2
3,63,72,40
3,65,77,6
3,58,77,96
3,46,77,38
3,65,77,4
3,61,77,2
3,58,77,60
3,65,77,0
3,61,77,6
3,58,77,50
3,39,77,46
3,68,77,0
3,63,77,12
3,58,77,4
3,68,77,2
3,67,77,8
3,43,77,8
3,58,77,74
3,63,77,2
3,41,77,2
3,65,77,0
3,60,77,2
3,57,77,2
3,72,60,388
3,69,56,0
3,65,52,6
3,63,44,10
3,70,77,2
3,63,77,2
3,44,77,0
3,58,77,4
3,54,77,4
3,66,60,174
3,63,77,12
3,56,77,0
3,68,77,4
3,48,77,4
3,60,77,4
3,61,77,8
3,37,77,2
3,56,77,2
3,66,77,6
3,65,77,36
3,61,77,0
3,56,52,18
3,65,77,34
3,61,77,0
3,41,77,6
3,65,77,30
3,61,77,4
3,68,77,8
3,42,77,32
3,58,77,8
3,66,77,2
3,61,77,0
3,61,77,16
3,66,77,2
3,70,77,10
3,73,77,20
3,70,77,2
3,66,77,0
3,73,77,26
3,44,76,0
3,68,77,2
3,63,77,2
3,75,80,18
3,72,77,4
3,68,77,0
3,49,77,16
3,73,77,4
3,68,77,0
3,78,77,4
3,77,77,22
3,68,77,2
3,73,77,4
3,80,77,8
3,77,77,0
3,73,77,6
3,53,77,0
3,73,60,42
3,77,77,16
3,68,77,0
3,73,77,4
3,42,77,16
3,66,77,2
3,70,77,0
3,73,77,4
3,70,77,28
3,46,77,2
3,73,77,6
3,77,77,2
3,44,77,364
3,68,77,2
3,75,77,2
3,72,77,2
3,72,56,18
3,63,77,178
3,73,77,2
3,65,77,6
3,37,77,0
3,68,77,2
3,68,56,0
3,68,77,2
3,65,77,4
3,73,77,8
3,68,60,34
3,72,77,12
3,41,77,0
3,65,77,0
3,69,77,6
3,65,77,0
3,60,77,2
3,69,77,4
3,46,77,376
3,70,77,0
3,65,77,2
3,73,77,0
3,46,77,24
3,63,77,24
3,68,77,0
3,58,77,2
3,68,77,16
3,58,77,0
3,63,77,4
3,58,77,20
3,63,77,8
3,67,77,6
3,63,77,2
3,58,77,8
3,67,77,4
3,44,77,4
3,73,77,4
3,63,77,6
3,68,77,2
3,68,77,22
3,72,77,4
3,63,77,4
3,70,77,24
3,63,77,2
3,68,77,8
3,49,77,18
3,56,77,198
3,61,64,188
3,65,68,188
3,61,77,30
3,66,77,2
3,65,60,154
3,66,77,60
3,61,77,6
3,63,56,178
3,49,77,2
3,56,77,192
3,65,77,196
3,68,77,2
3,65,68,14
3,61,72,10
3,61,64,10
3,56,77,6
3,44,77,0
3,63,92,18
3,60,92,4
3,56,68,188
3,58,76,46
3,60,88,46
3,60,104,12
3,65,96,4
3,45,92,6
3,57,77,180
3,60,88,54
3,63,88,142
3,63,77,34
3,46,88,6
3,60,92,4
3,63,77,64
3,60,77,42
3,58,77,50
3,46,77,4
3,61,77,2
3,61,77,80
3,63,77,186
3,60,77,10
3,48,77,6
3,63,77,0
3,56,77,194
3,68,104,32
3,56,68,0
3,48,76,38
3,63,77,4
3,75,92,4
3,68,92,360
3,56,77,6
3,65,68,174
3,66,77,0
3,61,84,0
3,49,72,0
3,75,77,6
3,56,77,152
3,61,77,86
3,75,77,154
3,66,77,2
3,73,77,58
3,56,77,8
3,49,77,4
3,61,77,0
3,65,77,0
3,65,77,52
3,56,77,4
3,61,77,2
3,56,77,38
3,41,77,44
3,53,77,190
3,60,77,42
3,65,77,194
3,53,77,6
3,69,77,30
3,45,49,0
3,53,77,122
3,60,77,94
3,63,77,4
3,57,77,6
3,51,77,92
3,72,77,40
3,46,77,2
3,61,77,4
3,58,77,0
3,75,77,6
3,75,77,34
3,72,77,6
3,63,77,4
3,58,77,102
3,73,77,48
3,46,77,2
3,70,77,4
3,61,77,2
3,70,77,54
3,61,77,8
3,58,77,4
3,65,77,0
3,58,77,38
3,39,77,40
3,75,77,4
3,68,77,2
3,63,77,190
3,68,77,6
3,58,77,6
3,70,77,174
3,67,77,20
3,63,77,124
3,67,77,48
3,58,77,0
3,70,77,192
3,56,77,12
3,73,77,6
3,73,77,48
3,72,77,186
3,56,77,46
3,58,77,188
3,60,77,158
3,60,77,32
3,44,77,0
3,63,77,4
3,56,77,184
3,60,77,50
3,56,77,46
3,63,77,2
3,65,77,24
3,45,77,8
3,57,77,198
3,60,77,54
3,77,92,194
3,63,68,4
3,46,77,34
3,63,77,6
3,75,77,0
3,60,77,6
3,65,77,178
3,63,77,58
3,77,88,36
3,60,77,2
3,61,77,34
3,46,77,4
3,58,77,2
3,73,77,6
3,65,77,86
3,61,77,0
3,68,77,2
3,68,77,22
3,60,77,0
3,63,77,2
3,48,77,6
3,56,77,186
3,60,77,32
3,56,77,56
3,75,77,6
3,63,77,6
3,60,77,40
3,48,77,4
3,56,77,64
3,72,77,80
3,63,77,6
3,68,68,90
3,65,52,26
3,63,72,32
3,61,77,42
3,49,77,2
3,66,77,4
3,56,77,40
3,61,77,80
3,66,77,170
3,49,77,48
3,65,77,0
3,61,77,0
3,56,77,8
3,65,77,64
3,56,77,2
3,61,77,2
3,56,77,34
