track,note,velocity,time
2,35,102,16896
2,35,102,360
2,35,102,360
2,35,102,360
2,35,102,360
2,35,102,360
2,35,102,360
2,35,102,360
2,35,102,360
2,35,102,360
2,35,102,360
2,35,102,360
2,35,102,360
2,35,102,360
2,35,102,360
2,35,102,360
2,35,102,552
2,35,102,168
2,35,102,168
2,35,102,168
2,35,102,360
2,35,102,360
2,35,102,360
2,35,102,360
2,35,102,360
2,35,102,360
2,35,102,360
2,35,102,360
2,35,102,360
2,35,102,360
2,35,102,360
2,35,102,360
2,35,102,360
2,35,102,360
2,35,102,360
2,35,102,360
2,35,102,360
2,35,102,168
2,35,102,168
2,35,102,360
2,35,102,360
2,35,102,360
2,35,102,360
2,35,102,360
2,35,102,360
2,35,102,360
2,35,102,360
2,35,102,360
2,35,102,360
2,35,102,360
2,35,102,360
2,35,102,360
2,35,102,360
2,35,102,168
2,35,102,168
2,35,102,168
2,35,102,168
2,35,102,360
2,35,102,360
2,35,102,360
2,35,102,360
2,35,102,360
2,35,102,360
2,35,102,360
2,35,102,360
2,35,102,360
2,35,102,360
2,35,102,360
2,35,102,360
2,35,102,360
2,35,102,360
2,35,102,360
2,35,102,168
2,35,102,168
2,35,102,360
2,35,102,360
2,35,102,360
2,35,102,360
2,35,102,360
2,35,102,360
2,35,102,360
2,35,102,360
2,35,102,360
2,35,102,360
2,35,102,360
2,35,102,360
2,35,102,360
2,35,102,360
2,35,102,168
2,35,102,168
2,35,102,168
2,35,102,168
2,35,102,360
2,35,102,360
2,35,102,360
2,35,102,360
2,35,102,360
2,35,102,360
2,35,102,360
2,35,102,168
2,35,102,168
2,35,102,360
2,35,102,360
2,35,102,360
2,35,102,360
2,35,102,360
2,35,102,360
2,35,102,360
2,35,102,360
2,35,102,168
2,35,102,168
2,35,102,168
2,35,102,168
2,35,102,168
2,35,102,168
2,35,102,168
2,35,102,360
2,35,102,168
2,35,102,168
2,35,102,168
2,35,102,360
2,35,102,360
2,35,102,360
2,35,102,360
2,35,102,360
2,35,102,360
2,35,102,360
2,35,102,360
2,35,102,360
2,35,102,360
2,35,102,360
2,35,102,360
2,35,102,360
2,35,102,552
2,35,102,168
2,35,102,168
2,35,102,168
2,35,102,360
2,35,102,360
2,35,102,360
2,35,102,360
2,35,102,360
2,35,102,360
2,35,102,360
2,35,102,360
2,35,102,360
2,35,102,360
2,35,102,360
2,35,102,360
2,35,102,360
2,35,102,360
2,35,102,360
2,35,102,360
2,35,102,360
2,35,102,168
2,35,102,168
2,35,102,360
2,35,102,360
2,35,102,360
2,35,102,360
2,35,102,360
2,35,102,360
2,35,102,360
2,35,102,360
2,35,102,360
2,35,102,360
2,35,102,360
2,35,102,360
2,35,102,360
2,35,102,360
2,35,102,168
2,35,102,168
2,35,102,168
2,35,102,168
2,35,102,360
2,35,102,360
2,35,102,360
2,35,102,360
2,35,102,360
2,35,102,360
2,35,102,360
2,35,102,360
2,35,102,360
2,35,102,360
2,35,102,360
2,35,102,360
2,35,102,360
2,35,102,360
2,35,102,360
2,35,102,168
2,35,102,168
2,35,102,360
2,35,102,360
2,35,102,360
2,35,102,360
2,35,102,360
2,35,102,360
2,35,102,360
2,35,102,360
2,35,102,360
2,35,102,360
2,35,102,360
2,35,102,360
2,35,102,360
2,35,102,360
2,35,102,168
2,35,102,168
2,35,102,168
2,35,102,168
2,35,102,360
2,35,102,360
2,35,102,360
2,35,102,360
2,35,102,360
2,35,102,360
2,35,102,360
2,35,102,168
2,35,102,168
2,35,102,360
2,35,102,360
2,35,102,360
2,35,102,360
2,35,102,360
2,35,102,360
2,35,102,360
2,35,102,360
2,35,102,168
2,35,102,168
2,35,102,168
2,35,102,168
2,35,102,168
2,35,102,168
2,35,102,168
2,35,102,360
2,35,102,168
2,35,102,168
2,35,102,168
2,35,102,360
2,35,102,360
2,35,102,360
2,35,102,360
2,35,102,360
2,35,102,360
2,35,102,360
2,35,102,360
2,35,102,360
2,35,102,360
2,35,102,360
2,35,102,360
2,35,102,360
2,35,102,552
2,35,102,168
2,35,102,168
2,35,102,168
2,35,102,360
2,35,102,360
2,35,102,360
2,35,102,360
2,35,102,360
2,35,102,360
2,35,102,360
2,35,102,360
2,35,102,360
2,35,102,360
2,35,102,360
2,35,102,360
2,35,102,360
2,35,102,552
2,35,102,168
2,35,102,168
2,35,102,168
2,35,102,360
2,35,102,360
2,35,102,360
2,35,102,360
2,35,102,360
2,35,102,360
2,35,102,360
2,35,102,360
2,35,102,360
2,35,102,360
2,35,102,360
2,35,102,360
2,35,102,360
2,35,102,552
2,35,102,168
2,35,102,168
2,35,102,168
2,35,102,360
2,35,102,360
2,35,102,360
2,35,102,360
2,35,102,360
2,35,102,360
2,35,102,360
2,35,102,360
2,35,102,360
2,35,102,360
2,35,102,360
2,35,102,360
2,35,102,360
2,35,102,360
2,35,102,360
2,35,102,360
2,35,102,360
2,35,102,168
2,35,102,168
2,35,102,360
2,35,102,360
2,35,102,360
2,35,102,360
2,35,102,360
2,35,102,360
2,35,102,360
2,35,102,360
2,35,102,360
2,35,102,360
2,35,102,360
2,35,102,168
2,35,102,168
2,35,102,360
2,35,102,360
2,35,102,360
2,35,102,360
2,35,102,360
2,35,102,360
2,35,102,360
2,35,102,360
2,35,102,360
2,35,102,360
2,35,102,360
2,35,102,360
2,35,102,360
2,35,102,360
2,35,102,360
2,35,102,360
2,35,102,360
2,35,102,360
2,35,102,360
2,35,102,168
2,35,102,168
2,35,102,168
2,35,102,168
2,35,102,168
2,35,102,168
2,35,102,168
2,35,102,168
2,35,102,168
2,35,102,168
2,35,102,360
2,35,102,360
2,35,102,360
2,35,102,360
2,35,102,360
2,35,102,360
2,35,102,360
2,35,102,360
2,35,102,360
2,35,102,360
2,35,102,360
2,35,102,360
2,35,102,360
2,35,102,360
2,35,102,360
2,35,102,360
2,35,102,360
2,35,102,360
2,35,102,360
2,35,102,360
2,35,102,360
2,35,102,360
2,35,102,360
2,35,102,360
2,35,102,360
2,35,102,360
2,35,102,360
2,35,102,360
2,35,102,360
2,35,102,360
2,35,102,360
2,35,102,360
2,35,102,1704
2,35,102,168
2,35,102,168
2,35,102,168
2,35,102,360
2,35,102,360
2,35,102,360
2,35,102,360
2,35,102,360
2,35,102,360
2,35,102,360
2,35,102,360
2,35,102,360
2,35,102,360
2,35,102,360
2,35,102,360
2,35,102,360
2,35,102,552
2,35,102,168
2,35,102,168
2,35,102,168
2,35,102,360
2,35,102,360
2,35,102,360
2,35,102,360
2,35,102,360
2,35,102,360
2,35,102,360
2,35,102,360
2,35,102,360
2,35,102,360
2,35,102,360
2,35,102,360
2,35,102,360
2,35,102,552
2,35,102,168
2,35,102,168
2,35,102,168
2,35,102,360
2,35,102,360
2,35,102,360
2,35,102,360
2,35,102,360
2,35,102,360
2,35,102,360
2,35,102,360
2,35,102,360
2,35,102,360
2,35,102,360
2,35,102,360
2,35,102,360
2,35,102,552
2,35,102,168
2,35,102,168
2,35,102,168
2,35,102,360
2,35,102,360
2,35,102,360
2,35,102,360
2,35,102,360
2,35,102,360
2,35,102,360
2,35,102,360
2,35,102,360
2,35,102,360
2,35,102,360
2,35,102,360
2,35,102,360
2,35,102,552
2,35,102,168
2,35,102,168
2,35,102,168
2,35,102,360
2,35,102,360
2,35,102,360
2,35,102,360
2,35,102,360
2,35,102,360
2,35,102,360
2,35,102,360
2,35,102,360
2,35,102,360
2,35,102,360
2,35,102,360
2,35,102,360
2,35,102,552
2,35,102,168
2,35,102,168
2,35,102,168
2,35,102,360
2,35,102,360
2,35,102,360
2,35,102,360
2,35,102,360
2,35,102,360
2,35,102,360
2,35,102,360
2,35,102,360
2,35,102,360
2,35,102,360
2,35,102,360
2,35,102,360
2,35,102,360
2,35,102,360
2,35,102,360
2,35,102,360
2,35,102,168
2,35,102,168
2,35,80,1896
3,42,60,16896
3,42,60,360
3,42,60,360
3,42,60,360
3,42,60,360
3,42,60,360
3,42,60,360
3,42,60,360
3,42,60,360
3,42,60,360
3,42,60,360
3,42,60,360
3,42,60,360
3,42,60,360
3,42,60,360
3,42,60,360
3,42,60,360
3,42,60,360
3,42,60,360
3,42,60,360
3,42,60,360
3,42,60,360
3,42,60,360
3,42,60,360
3,42,60,360
3,42,60,360
3,42,60,360
3,42,60,360
3,42,60,360
3,42,60,360
3,42,60,360
3,42,60,360
3,42,60,360
3,42,60,360
3,42,60,360
3,42,60,360
3,42,60,360
3,42,60,360
3,42,60,360
3,42,60,360
3,42,60,360
3,42,60,360
3,42,60,360
3,42,60,360
3,42,60,360
3,42,60,360
3,42,60,360
3,42,60,360
3,42,60,360
3,42,60,360
3,42,60,360
3,42,60,360
3,42,60,360
3,42,60,360
3,42,60,360
3,42,60,360
3,42,60,360
3,42,60,360
3,42,60,360
3,42,60,360
3,42,60,360
3,42,60,360
3,42,60,360
3,42,60,360
3,42,60,360
3,42,60,360
3,42,60,360
3,42,60,360
3,42,60,360
3,42,60,360
3,42,60,360
3,42,60,360
3,42,60,360
3,42,60,360
3,42,60,360
3,42,60,360
3,42,60,360
3,42,60,360
3,42,60,360
3,42,60,360
3,42,60,360
3,42,60,360
3,42,60,360
3,42,60,360
3,42,60,360
3,42,60,360
3,42,60,360
3,42,60,360
3,42,60,360
3,42,60,360
3,42,60,360
3,42,60,360
3,42,60,360
3,42,60,360
3,42,60,360
3,42,60,360
3,42,60,360
3,42,60,360
3,42,60,360
3,42,60,360
3,42,60,360
3,42,60,360
3,42,60,360
3,42,60,360
3,42,60,360
3,42,60,360
3,42,60,360
3,42,60,360
3,42,60,360
3,42,60,360
3,42,60,360
3,42,60,360
3,42,60,360
3,42,60,360
3,42,60,360
3,42,60,360
3,42,60,360
3,42,60,360
3,42,60,360
3,42,60,360
3,42,60,360
3,42,60,360
3,42,60,360
3,42,60,360
3,42,60,360
3,42,60,360
3,42,60,360
3,42,60,360
3,42,60,360
3,42,60,360
3,42,60,360
3,42,60,360
3,42,60,360
3,42,60,360
3,42,60,360
3,42,60,360
3,42,60,360
3,42,60,360
3,42,60,360
3,42,60,360
3,42,60,360
3,42,60,360
3,42,60,360
3,42,60,360
3,42,60,360
3,42,60,360
3,42,60,360
3,42,60,360
3,42,60,360
3,42,60,360
3,42,60,360
3,42,60,360
3,42,60,360
3,42,60,360
3,42,60,360
3,42,60,360
3,42,60,360
3,42,60,360
3,42,60,360
3,42,60,360
3,42,60,360
3,42,60,360
3,42,60,360
3,42,60,360
3,42,60,360
3,42,60,360
3,42,60,360
3,42,60,360
3,42,60,360
3,42,60,360
3,42,60,360
3,42,60,360
3,42,60,360
3,42,60,360
3,42,60,360
3,42,60,360
3,42,60,360
3,42,60,360
3,42,60,360
3,42,60,360
3,42,60,360
3,42,60,360
3,42,60,360
3,42,60,360
3,42,60,360
3,42,60,360
3,42,60,360
3,42,60,360
3,42,60,360
3,42,60,360
3,42,60,360
3,42,60,360
3,42,60,360
3,42,60,360
3,42,60,360
3,42,60,360
3,42,60,360
3,42,60,360
3,42,60,360
3,42,60,360
3,42,60,360
3,42,60,360
3,42,60,360
3,42,60,360
3,42,60,360
3,42,60,360
3,42,60,360
3,42,60,360
3,42,60,360
3,42,60,360
3,42,60,360
3,42,60,360
3,42,60,360
3,42,60,360
3,42,60,360
3,42,60,360
3,42,60,360
3,42,60,360
3,42,60,360
3,42,60,360
3,42,60,360
3,42,60,360
3,42,60,360
3,42,60,360
3,42,60,360
3,42,60,360
3,42,60,360
3,42,60,360
3,42,60,360
3,42,60,360
3,42,60,360
3,42,60,360
3,42,60,360
3,42,60,360
3,42,60,360
3,42,60,360
3,42,60,360
3,42,60,360
3,42,60,360
3,42,60,360
3,42,60,360
3,42,60,360
3,42,60,360
3,42,60,360
3,42,60,360
3,42,60,360
3,42,60,360
3,42,60,360
3,42,60,360
3,42,60,360
3,42,60,360
3,42,60,360
3,42,60,360
3,42,60,360
3,42,60,360
3,42,60,360
3,42,60,360
3,42,60,360
3,42,60,360
3,42,60,360
3,42,60,360
3,42,60,360
3,42,60,360
3,42,60,360
3,42,60,360
3,42,60,360
3,42,60,360
3,42,60,360
3,42,60,360
3,42,60,360
3,42,60,360
3,42,60,360
3,42,60,360
3,42,60,360
3,42,60,360
3,42,60,360
3,42,15,360
3,42,12,72
3,42,1,72
3,42,1,72
3,42,12,72
3,42,1,72
3,42,1,72
3,42,2,72
3,42,12,72
3,42,1,72
3,42,1,72
3,42,1,72
3,42,5,72
3,42,1,72
3,42,1,72
3,42,1,72
3,42,9,72
3,42,1,72
3,42,1,72
3,42,1,72
3,42,12,72
3,42,1,72
3,42,1,72
3,42,1,72
3,42,10,72
3,42,1,72
3,42,2,72
3,42,1,72
3,42,9,72
3,42,1,72
3,42,2,72
3,42,1,72
3,42,10,72
3,42,3,72
3,42,1,72
3,42,1,72
3,42,10,72
3,42,1,72
3,42,1,72
3,42,1,72
3,42,4,72
3,42,2,72
3,42,1,72
3,42,1,72
3,42,11,72
3,42,2,72
3,42,1,72
3,42,1,72
3,42,12,72
3,42,1,72
3,42,1,72
3,42,5,72
3,42,6,72
3,42,1,72
3,42,1,72
3,42,1,72
3,42,13,72
3,42,2,72
3,42,1,72
3,42,1,72
3,42,12,72
3,42,6,72
3,42,3,72
3,42,1,72
3,42,12,4680
3,42,1,72
3,42,1,72
3,42,5,72
3,42,6,72
3,42,1,72
3,42,1,72
3,42,1,72
3,42,13,72
3,42,2,72
3,42,1,72
3,42,1,72
3,42,12,72
3,42,6,72
3,42,3,72
3,42,1,72
3,42,12,72
3,42,1,72
3,42,1,72
3,42,5,72
3,42,6,72
3,42,1,72
3,42,1,72
3,42,1,72
3,42,13,72
3,42,2,72
3,42,1,72
3,42,1,72
3,42,12,72
3,42,6,72
3,42,3,72
3,42,1,72
3,42,60,13896
3,42,60,360
3,42,60,360
3,42,60,360
3,42,60,360
3,42,60,360
3,42,60,360
3,42,60,360
3,42,60,360
3,42,60,360
3,42,60,360
3,42,60,360
3,42,60,360
3,42,60,360
3,42,60,360
3,42,60,360
3,42,60,360
3,42,60,360
3,42,60,360
3,42,60,360
3,42,60,360
3,42,60,360
3,42,60,360
3,42,60,360
3,42,60,360
3,42,60,360
3,42,60,360
3,42,60,360
3,42,60,360
3,42,60,360
3,42,60,360
3,42,60,360
3,42,60,360
3,42,60,360
3,42,60,360
3,42,60,360
3,42,60,360
3,42,60,360
3,42,60,360
3,42,60,360
3,42,60,360
3,42,60,360
3,42,60,360
3,42,60,360
3,42,60,360
3,42,60,360
3,42,60,360
3,42,60,360
3,42,60,360
3,42,60,360
3,42,60,360
3,42,60,360
3,42,60,360
3,42,60,360
3,42,60,360
3,42,60,360
3,42,60,360
3,42,60,360
3,42,60,360
3,42,60,360
3,42,60,360
3,42,60,360
3,42,60,360
3,42,60,360
3,42,60,360
3,42,60,360
3,42,60,360
3,42,60,360
3,42,60,360
3,42,60,360
3,42,60,360
3,42,60,360
3,42,60,360
3,42,60,360
3,42,60,360
3,42,60,360
3,42,60,360
3,42,60,360
3,42,60,360
3,42,60,360
3,42,60,360
3,42,60,360
3,42,60,360
3,42,60,360
3,42,60,360
3,42,60,360
3,42,60,360
3,42,60,360
3,42,60,360
3,42,60,360
3,42,60,360
3,42,60,360
3,42,60,360
3,42,60,360
3,42,60,360
3,42,60,360
3,42,60,360
3,42,60,360
3,42,60,360
3,42,60,360
4,46,85,17088
4,46,85,360
4,46,85,360
4,46,85,360
4,46,85,360
4,46,85,360
4,46,85,360
4,46,85,360
4,46,85,360
4,46,85,360
4,46,85,360
4,46,85,360
4,46,85,360
4,46,85,360
4,46,85,360
4,46,85,360
4,46,85,360
4,46,85,360
4,46,85,360
4,46,85,360
4,46,85,360
4,46,85,360
4,46,85,360
4,46,85,360
4,46,85,360
4,46,85,360
4,46,85,360
4,46,85,360
4,46,85,360
4,46,85,360
4,46,85,360
4,46,85,360
4,46,85,360
4,46,85,360
4,46,85,360
4,46,85,360
4,46,85,360
4,46,85,360
