track,note,velocity,time
0,59,36,3990
0,55,40,10
0,55,35,4
0,62,48,6
0,35,60,18
0,71,78,0
0,51,56,4
0,59,43,0
0,47,52,2
0,62,62,16
0,59,34,144
0,50,53,10
0,62,54,64
0,51,46,6
0,59,42,2
0,72,59,142
0,67,57,4
0,59,31,2
0,71,70,30
0,71,59,0
0,51,49,0
0,67,60,30
0,51,40,2
0,57,36,6
0,54,41,0
0,60,49,6
0,59,55,12
0,45,56,2
0,33,60,2
0,69,73,0
0,51,37,160
0,50,43,4
0,72,60,158
0,59,48,2
0,57,49,0
0,51,34,152
0,74,60,10
0,69,73,34
0,78,56,14
0,59,46,10
0,81,64,146
0,59,37,12
0,59,31,6
0,59,28,4
0,55,40,14
0,73,64,8
0,51,40,0
0,59,36,4
0,62,49,6
0,47,60,0
0,35,60,4
0,74,73,0
0,51,56,6
0,55,45,134
0,59,34,10
0,59,57,150
0,83,60,2
0,51,46,4
0,59,31,148
0,79,60,0
0,67,65,156
0,77,64,12
0,51,49,2
0,51,40,164
0,51,26,58
0,67,30,8
0,63,50,0
0,60,36,6
0,59,55,12
0,48,52,0
0,72,60,0
0,36,56,4
0,79,48,10
0,72,59,4
0,51,37,2
0,55,48,12
0,67,56,6
0,59,48,160
0,60,56,2
0,72,73,2
0,51,34,152
0,79,73,22
0,57,52,62
0,33,60,26
0,59,46,0
0,75,60,20
0,72,64,104
0,59,49,54
0,67,64,24
0,38,57,10
0,71,48,0
0,44,60,0
0,71,78,2
0,51,56,0
0,62,33,4
0,50,52,2
0,59,48,4
0,55,44,2
0,59,34,10
0,55,37,12
0,69,73,36
0,74,56,10
0,51,46,0
0,71,56,2
0,59,48,4
0,62,48,2
0,59,31,148
0,55,44,14
0,51,40,110
0,74,56,6
0,59,48,2
0,62,56,2
0,83,48,6
0,67,56,30
0,51,31,26
0,55,36,8
0,59,55,74
0,38,55,2
0,46,56,2
0,50,52,0
0,62,60,0
0,86,60,8
0,79,52,6
0,55,48,168
0,59,48,26
0,71,52,12
0,74,56,2
0,62,56,2
0,59,36,4
0,67,64,0
0,62,49,22
0,68,31,28
0,69,48,30
0,59,46,18
0,67,52,18
0,71,76,10
0,74,59,140
0,60,48,10
0,38,57,0
0,52,48,2
0,51,46,0
0,50,65,2
0,55,52,8
0,67,55,0
0,72,51,0
0,69,73,4
0,59,34,144
0,55,39,16
0,64,32,2
0,69,48,0
0,51,46,2
0,60,50,0
0,67,57,10
0,72,64,2
0,59,31,8
0,57,40,4
0,69,47,0
0,54,32,156
0,54,41,0
0,57,56,4
0,51,49,6
0,66,60,4
0,59,37,158
0,62,27,2
0,57,34,2
0,69,44,10
0,59,31,6
0,59,28,4
0,51,40,28
0,59,48,8
0,67,48,2
0,31,55,0
0,67,52,2
0,50,32,0
0,53,56,0
0,43,48,4
0,55,36,4
0,62,40,124
0,50,48,10
0,71,44,158
0,67,46,2
0,55,37,20
0,67,60,90
0,74,52,8
0,55,40,28
0,59,32,6
0,71,91,6
0,50,56,0
0,31,60,0
0,42,64,0
0,74,60,0
0,35,53,0
0,43,60,0
0,83,57,2
0,62,48,0
0,50,48,38
0,67,91,26
0,59,64,14
0,42,60,6
0,59,41,2
0,79,56,2
0,71,44,6
0,62,82,18
0,42,52,22
0,55,52,2
0,43,50,0
0,67,49,8
0,47,64,2
0,47,52,4
0,35,60,2
0,37,73,4
0,42,60,0
0,74,64,4
0,50,52,136
0,50,44,6
0,62,51,4
0,42,25,2
0,62,52,4
0,64,36,0
0,62,52,14
0,67,51,8
0,55,52,0
0,42,60,6
0,62,56,20
0,74,56,8
0,62,64,0
0,55,56,2
0,67,44,4
0,61,48,4
0,64,64,0
0,61,60,0
0,58,52,2
0,73,56,2
0,34,60,2
0,42,52,2
0,64,60,0
0,61,56,0
0,67,82,2
0,67,56,162
0,35,23,6
0,60,48,26
0,64,60,16
0,45,56,0
0,60,73,2
0,35,53,6
0,42,64,0
0,33,64,0
0,72,64,2
0,67,82,4
0,64,52,34
0,42,31,6
0,52,36,2
0,45,48,156
0,67,64,6
0,55,56,2
0,42,60,10
0,60,56,8
0,57,52,4
0,72,73,0
0,42,27,10
0,64,56,94
0,76,73,2
0,42,52,0
0,45,60,108
0,79,64,20
0,33,60,4
0,42,22,0
0,57,48,2
0,66,48,2
0,62,48,2
0,50,55,6
0,69,56,0
0,50,68,2
0,66,57,0
0,78,73,4
0,66,91,4
0,38,64,2
0,37,73,0
0,42,60,2
0,57,52,136
0,45,32,10
0,60,56,24
0,50,52,0
0,66,52,8
0,42,60,2
0,74,48,0
0,69,52,4
0,57,38,4
0,62,48,0
0,42,52,2
0,57,40,8
0,62,32,6
0,42,24,2
0,35,23,2
0,60,38,88
0,64,46,8
0,55,44,12
0,45,49,6
0,72,82,0
0,42,64,2
0,35,53,0
0,33,64,0
0,64,60,0
0,72,56,2
0,45,52,0
0,52,40,30
0,52,40,4
0,42,31,6
0,71,82,20
0,64,70,16
0,60,44,8
0,42,60,4
0,52,40,0
0,67,56,2
0,57,46,158
0,42,27,4
0,60,51,22
0,72,56,2
0,64,28,12
0,52,42,0
0,42,52,2
0,60,38,0
0,69,73,132
0,57,48,2
0,79,56,2
0,42,22,8
0,54,44,2
0,38,48,12
0,64,73,0
0,45,64,0
0,37,73,8
0,38,60,0
0,42,60,2
0,72,44,0
0,78,48,0
0,45,48,130
0,50,54,6
0,42,25,12
0,62,56,158
0,42,60,10
0,50,56,2
0,62,40,4
0,66,70,154
0,66,38,0
0,66,51,0
0,57,52,12
0,42,52,4
0,60,52,6
0,66,60,0
0,57,40,4
0,42,24,162
0,35,23,2
0,69,56,4
0,66,73,10
0,64,51,12
0,43,64,2
0,55,37,4
0,42,64,0
0,35,53,0
0,61,44,0
0,61,49,0
0,31,64,2
0,43,48,0
0,64,82,0
0,52,48,40
0,42,31,0
0,58,32,2
0,52,64,2
0,64,49,4
0,73,56,0
0,67,56,4
0,43,40,2
0,55,68,4
0,42,60,0
0,61,73,2
0,76,56,6
0,42,27,0
0,70,56,6
0,61,48,12
0,55,56,12
0,79,52,2
0,42,52,0
0,73,48,6
0,52,60,154
0,88,64,14
0,42,22,2
0,50,40,0
0,62,47,6
0,59,28,4
0,55,60,14
0,79,60,4
0,37,73,2
0,43,40,0
0,86,67,0
0,42,60,2
0,31,64,2
0,59,56,2
0,42,25,40
0,83,56,2
0,74,54,4
0,50,29,2
0,42,60,10
0,71,52,0
0,79,48,8
0,59,28,6
0,55,25,2
0,50,31,6
0,42,25,6
0,55,44,4
0,42,52,0
0,74,57,8
0,67,52,2
0,59,40,2
0,50,40,164
0,46,37,4
0,35,23,2
0,71,43,40
0,62,48,30
0,67,36,4
0,43,64,6
0,31,60,0
0,35,53,0
0,42,64,0
0,71,91,0
0,67,48,0
0,59,60,0
0,43,36,2
0,42,31,40
0,50,64,12
0,55,46,0
0,62,64,2
0,42,60,6
0,50,48,2
0,69,82,0
0,42,27,162
0,55,56,8
0,67,82,10
0,42,52,0
0,59,56,4
0,55,40,2
0,67,56,0
0,50,64,152
0,42,22,18
0,74,48,0
0,59,56,12
0,47,73,26
0,47,52,0
0,35,60,0
0,37,73,2
0,42,60,2
0,74,64,0
0,62,82,0
0,50,64,130
0,62,56,16
0,50,30,2
0,42,25,2
0,55,64,136
0,67,73,2
0,42,60,2
0,55,60,0
0,62,44,72
0,62,52,0
0,74,64,4
0,42,25,4
0,58,52,78
0,67,38,14
0,62,40,0
0,46,64,0
0,46,51,2
0,34,63,0
0,58,48,0
0,42,52,2
0,65,56,0
0,70,44,0
0,67,82,2
0,46,40,76
0,35,23,2
0,45,56,6
0,69,64,4
0,62,44,0
0,66,42,0
0,45,64,2
0,57,49,0
0,42,64,4
0,35,53,0
0,62,52,4
0,33,64,0
0,66,48,2
0,66,91,14
0,57,56,36
0,57,48,2
0,42,31,2
0,62,64,148
0,62,70,8
0,42,60,0
0,54,57,142
0,69,64,10
0,42,27,10
0,57,73,156
0,66,60,4
0,42,52,6
0,33,60,0
0,78,44,0
0,42,22,8
0,79,56,44
0,54,44,26
0,54,36,4
0,69,48,8
0,57,48,10
0,81,73,6
0,42,59,16
0,69,91,2
0,74,52,4
0,42,64,2
0,37,73,0
0,62,64,2
0,42,60,0
0,78,56,4
0,69,48,4
0,42,25,12
0,66,48,8
0,57,40,2
0,74,60,4
0,42,60,8
0,54,38,14
0,62,44,4
0,69,48,2
0,42,25,8
0,54,31,10
0,62,42,6
0,62,48,2
0,42,52,6
0,57,38,2
0,57,27,0
0,46,43,0
0,66,56,2
0,35,23,0
0,64,36,4
0,61,52,0
0,69,52,2
0,35,53,4
0,69,56,0
0,42,64,0
0,40,64,0
0,40,52,0
0,61,36,4
0,40,48,8
0,69,82,0
0,45,52,36
0,42,31,4
0,49,38,4
0,64,56,6
0,57,47,2
0,52,60,2
0,64,73,4
0,61,40,2
0,57,49,0
0,67,60,2
0,42,60,4
0,61,48,10
0,57,46,156
0,42,27,6
0,66,48,2
0,64,44,4
0,66,82,10
0,64,52,4
0,73,56,4
0,61,73,2
0,42,52,2
0,52,54,82
0,42,22,16
0,67,59,2
0,59,56,8
0,45,60,4
0,67,82,2
0,33,45,2
0,67,60,2
0,76,60,2
0,45,73,2
0,37,73,0
0,33,60,0
0,42,60,2
0,42,25,148
0,57,60,24
0,61,27,14
0,66,52,6
0,57,48,2
0,66,44,2
0,42,60,6
0,66,91,10
0,42,25,172
0,64,48,16
0,59,27,2
0,55,60,18
0,64,78,12
0,69,51,0
0,61,51,2
0,42,52,4
0,46,43,168
0,35,23,2
0,62,48,4
0,54,36,2
0,62,73,10
0,50,64,0
0,38,48,2
0,35,53,4
0,42,64,0
0,45,56,2
0,66,48,6
0,38,64,2
0,74,56,0
0,57,48,2
0,42,31,40
0,45,52,6
0,57,36,2
0,62,56,0
0,42,60,0
0,66,64,0
0,50,36,4
0,54,30,158
0,64,56,0
0,42,27,4
0,54,44,2
0,45,48,8
0,33,56,10
0,42,52,4
0,62,73,0
0,69,60,0
0,74,73,62
0,42,22,10
0,57,32,112
0,50,44,0
0,66,40,28
0,38,60,6
0,76,73,0
0,50,52,0
0,81,56,6
0,37,73,2
0,42,60,2
0,38,64,6
0,78,56,4
0,64,56,74
0,74,52,14
0,62,52,0
0,42,25,4
0,66,64,126
0,69,40,10
0,57,48,2
0,42,60,8
0,67,64,42
0,66,56,14
0,42,25,14
0,69,64,142
0,46,52,2
0,69,60,2
0,71,64,146
0,35,23,2
0,50,36,0
0,72,60,10
0,60,44,0
0,45,48,2
0,57,47,0
0,69,64,0
0,38,67,0
0,60,54,0
0,35,62,0
0,57,48,2
0,69,91,0
0,38,64,0
0,50,38,4
0,45,37,0
0,42,31,2
0,62,48,2
0,81,60,116
0,69,56,2
0,60,56,0
0,42,60,6
0,60,60,0
0,50,45,2
0,54,38,102
0,54,22,2
0,42,27,6
0,62,40,2
0,79,64,152
0,66,64,4
0,60,56,10
0,67,64,2
0,42,52,2
0,57,47,0
0,54,37,88
0,60,43,0
0,62,44,4
0,42,22,2
0,78,70,2
0,60,56,0
0,50,64,0
0,66,56,2
0,62,91,0
0,57,64,4
0,37,73,0
0,42,60,2
0,38,60,0
0,50,56,2
0,79,65,126
0,62,36,16
0,42,25,6
0,81,51,2
0,66,52,16
0,60,48,2
0,42,60,0
0,62,44,2
0,60,40,2
0,42,25,6
0,74,64,150
0,42,52,2
0,66,52,4
0,42,37,168
0,62,54,0
0,35,32,0
0,74,60,4
0,55,41,16
0,59,48,4
0,62,38,0
0,67,64,2
0,43,54,2
0,43,60,0
0,59,56,4
0,31,64,2
0,67,91,0
0,35,62,0
0,42,64,0
0,50,51,24
0,42,31,4
0,47,40,0
0,62,48,0
0,83,60,146
0,62,51,10
0,67,44,0
0,59,30,4
0,42,60,4
0,50,45,2
0,55,32,156
0,62,48,2
0,42,27,4
0,55,45,4
0,81,64,132
0,67,60,8
0,71,55,2
0,50,52,2
0,79,58,0
0,42,52,2
0,47,39,34
0,62,46,2
0,42,22,2
0,79,70,14
0,62,91,2
0,43,48,4
0,55,32,6
0,59,51,0
0,67,59,4
0,37,73,0
0,31,64,2
0,42,60,0
0,59,40,0
0,81,65,106
0,55,52,34
0,42,25,4
0,62,48,0
0,83,51,116
0,59,56,2
0,67,64,0
0,50,52,0
0,42,60,2
0,62,56,158
0,42,25,8
0,71,73,156
0,42,52,8
0,69,73,152
0,46,43,10
0,35,32,2
0,67,53,10
0,64,44,4
0,55,38,4
0,52,48,4
0,67,60,8
0,40,60,0
0,67,91,0
0,64,52,2
0,40,48,2
0,40,64,0
0,42,64,0
0,35,62,0
0,47,40,2
0,59,56,0
0,47,45,0
0,42,31,2
0,52,48,22
0,52,51,4
0,67,91,4
0,64,64,4
0,42,60,0
0,67,56,0
0,42,27,0
0,59,56,0
0,55,44,0
0,62,47,18
0,28,64,8
0,50,48,0
0,42,52,2
0,59,73,0
0,67,91,0
0,62,73,4
0,59,60,2
0,42,22,162
0,52,38,12
0,61,40,32
0,67,100,4
0,45,40,0
0,57,64,4
0,57,73,0
0,33,60,0
0,45,60,0
0,37,73,2
0,61,60,0
0,42,60,2
0,52,35,48
0,52,52,2
0,42,25,8
0,66,54,118
0,73,60,16
0,66,49,4
0,42,60,4
0,57,46,2
0,66,82,0
0,57,46,4
0,52,44,62
0,42,25,4
0,67,56,40
0,69,56,0
0,76,56,4
0,67,48,0
0,67,100,2
0,42,52,0
0,57,29,6
0,46,46,168
0,69,51,4
0,57,40,36
0,50,32,10
0,60,56,6
0,69,59,0
0,35,62,8
0,42,64,0
0,38,64,0
0,50,60,2
0,74,64,0
0,38,60,0
0,50,48,0
0,54,52,0
0,69,91,2
0,60,52,8
0,62,56,38
0,42,31,2
0,66,56,148
0,42,60,6
0,69,64,160
0,42,27,2
0,35,32,4
0,53,36,0
0,53,56,2
0,71,56,12
0,62,48,6
0,59,60,8
0,38,56,0
0,71,82,2
0,48,48,0
0,53,56,0
0,71,64,2
0,65,60,4
0,62,56,2
0,42,52,2
0,35,53,2
0,38,64,2
0,62,48,0
0,42,22,44
0,54,48,8
0,72,54,8
0,50,48,8
0,72,82,6
0,37,73,2
0,42,60,2
0,66,64,2
0,38,64,0
0,54,48,0
0,48,56,0
0,72,64,2
0,62,60,0
0,38,56,4
0,54,56,2
0,60,52,6
0,42,25,50
0,66,43,8
0,42,60,128
0,62,49,10
0,42,25,172
0,46,52,164
0,74,56,4
0,76,56,80
0,78,64,104
0,67,48,2
0,62,52,18
0,71,54,12
0,62,48,2
0,67,38,2
0,59,64,2
0,71,91,2
0,50,56,4
0,42,64,0
0,43,64,0
0,35,62,0
0,43,48,4
0,79,63,2
0,55,56,12
0,42,31,40
0,50,52,8
0,43,32,16
0,72,91,12
0,67,40,2
0,42,60,2
0,74,64,2
0,59,56,6
0,42,27,162
0,50,48,0
0,55,38,24
0,42,52,0
0,35,53,2
0,74,52,8
0,67,30,2
0,55,48,8
0,71,73,20
0,62,57,6
0,42,22,8
0,81,48,24
0,79,56,70
0,60,56,4
0,66,41,4
0,69,48,4
0,78,64,6
0,69,91,0
0,69,56,2
0,37,73,0
0,42,60,2
0,38,66,0
0,50,28,0
0,50,52,0
0,54,31,148
0,42,25,0
0,42,60,168
0,57,54,2
0,66,44,42
0,74,36,6
0,50,48,6
0,42,25,8
0,66,52,0
0,48,56,0
0,48,54,24
0,66,73,6
0,74,60,8
0,42,52,0
0,60,44,20
0,35,52,72
0,46,37,0
0,69,73,0
0,67,40,6
0,74,52,2
0,62,51,22
0,47,54,14
0,47,64,0
0,47,48,4
0,71,91,0
0,42,64,0
0,35,69,0
0,35,62,0
0,71,64,0
0,79,60,4
0,50,32,18
0,42,31,0
0,55,41,4
0,71,48,2
0,77,64,2
0,59,40,30
0,42,60,2
0,77,64,0
0,69,91,2
0,71,64,0
0,55,56,0
0,42,27,162
0,62,64,6
0,62,64,6
0,67,56,2
0,42,52,6
