track,note,velocity,time
0,63,127,435
0,56,127,0
0,51,127,0
0,51,0,25
0,56,0,0
0,63,0,0
0,63,70,95
0,56,70,0
0,51,70,0
0,51,0,25
0,56,0,0
0,63,0,0
0,63,70,95
0,56,70,0
0,51,70,0
0,51,0,25
0,56,0,0
0,63,0,0
0,63,127,95
0,56,127,0
0,51,127,0
0,51,0,25
0,56,0,0
0,63,0,0
0,63,70,95
0,56,70,0
0,51,70,0
0,51,0,25
0,56,0,0
0,63,0,0
0,63,70,95
0,56,70,0
0,51,70,0
0,51,0,25
0,56,0,0
0,63,0,0
0,63,127,95
0,56,127,0
0,51,127,0
0,51,0,25
0,56,0,0
0,63,0,0
0,63,70,40
0,56,70,0
0,51,70,0
0,51,0,25
0,56,0,0
0,63,0,0
0,63,70,95
0,56,70,0
0,51,70,0
0,51,0,25
0,56,0,0
0,63,0,0
0,63,127,95
0,51,127,0
0,56,127,0
0,56,0,25
0,51,0,0
0,63,0,0
0,63,70,95
0,56,70,0
0,51,70,0
0,51,0,25
0,56,0,0
0,63,0,0
0,61,70,40
0,54,70,0
0,49,70,0
0,49,0,25
0,54,0,0
0,61,0,0
0,61,127,95
0,49,127,0
0,54,127,0
0,54,0,25
0,49,0,0
0,61,0,0
0,63,70,95
0,56,70,0
0,51,70,0
0,51,0,25
0,56,0,0
0,63,0,0
0,63,70,95
0,56,70,0
0,51,70,0
0,51,0,25
0,56,0,0
0,63,0,0
0,63,70,95
0,56,70,0
0,51,70,0
0,51,0,25
0,56,0,0
0,63,0,0
0,63,127,95
0,56,127,0
0,51,127,0
0,51,0,25
0,56,0,0
0,63,0,0
0,63,70,95
0,56,70,0
0,51,70,0
0,51,0,25
0,56,0,0
0,63,0,0
0,63,70,95
0,56,70,0
0,51,70,0
0,51,0,25
0,56,0,0
0,63,0,0
0,63,127,95
0,56,127,0
0,51,127,0
0,51,0,25
0,56,0,0
0,63,0,0
0,63,70,95
0,56,70,0
0,51,70,0
0,51,0,25
0,56,0,0
0,63,0,0
0,63,70,95
0,56,70,0
0,51,70,0
0,51,0,25
0,56,0,0
0,63,0,0
0,63,127,95
0,56,127,0
0,51,127,0
0,51,0,25
0,56,0,0
0,63,0,0
0,63,70,40
0,56,70,0
0,51,70,0
0,51,0,25
0,56,0,0
0,63,0,0
0,63,70,95
0,56,70,0
0,51,70,0
0,51,0,25
0,56,0,0
0,63,0,0
0,63,127,95
0,51,127,0
0,56,127,0
0,56,0,25
0,51,0,0
0,63,0,0
0,63,70,95
0,56,70,0
0,51,70,0
0,51,0,25
0,56,0,0
0,63,0,0
0,61,70,40
0,54,70,0
0,49,70,0
0,49,0,25
0,54,0,0
0,61,0,0
0,61,127,95
0,49,127,0
0,54,127,0
0,54,0,25
0,49,0,0
0,61,0,0
0,63,70,95
0,56,70,0
0,51,70,0
0,51,0,25
0,56,0,0
0,63,0,0
0,63,70,95
0,56,70,0
0,51,70,0
0,51,0,25
0,56,0,0
0,63,0,0
0,63,70,95
0,56,70,0
0,51,70,0
0,51,0,25
0,56,0,0
0,63,0,0
0,63,127,95
0,56,127,0
0,51,127,0
0,51,0,25
0,56,0,0
0,63,0,0
0,63,70,95
0,56,70,0
0,51,70,0
0,51,0,25
0,56,0,0
0,63,0,0
0,63,70,95
0,56,70,0
0,51,70,0
0,51,0,25
0,56,0,0
0,63,0,0
0,63,127,95
0,56,127,0
0,51,127,0
0,51,0,25
0,56,0,0
0,63,0,0
0,63,70,95
0,56,70,0
0,51,70,0
0,51,0,25
0,56,0,0
0,63,0,0
0,63,70,95
0,56,70,0
0,51,70,0
0,51,0,25
0,56,0,0
0,63,0,0
0,63,127,95
0,56,127,0
0,51,127,0
0,51,0,25
0,56,0,0
0,63,0,0
0,63,70,40
0,56,70,0
0,51,70,0
0,51,0,25
0,56,0,0
0,63,0,0
0,63,70,95
0,56,70,0
0,51,70,0
0,51,0,25
0,56,0,0
0,63,0,0
0,63,127,95
0,51,127,0
0,56,127,0
0,56,0,25
0,51,0,0
0,63,0,0
0,63,70,95
0,56,70,0
0,51,70,0
0,51,0,25
0,56,0,0
0,63,0,0
0,61,70,40
0,54,70,0
0,49,70,0
0,49,0,25
0,54,0,0
0,61,0,0
0,61,127,95
0,49,127,0
0,54,127,0
0,54,0,25
0,49,0,0
0,61,0,0
0,63,70,95
0,56,70,0
0,51,70,0
0,51,0,25
0,56,0,0
0,63,0,0
0,63,70,0
0,56,70,0
0,51,70,0
0,63,70,0
0,56,70,0
0,51,70,0
0,63,127,0
0,56,127,0
0,51,127,0
0,63,70,50
0,56,70,0
0,51,70,0
0,51,0,25
0,56,0,0
0,63,0,0
0,63,70,0
0,56,70,0
0,51,70,0
0,51,0,25
0,56,0,0
0,63,0,0
0,63,127,95
0,56,127,0
0,51,127,0
0,51,0,25
0,56,0,0
0,63,0,0
0,63,70,95
0,56,70,0
0,51,70,0
0,51,0,25
0,56,0,0
0,63,0,0
0,63,70,95
0,56,70,0
0,51,70,0
0,51,0,25
0,56,0,0
0,63,0,0
0,63,127,0
0,51,127,0
0,56,127,0
0,56,0,25
0,51,0,0
0,63,0,0
0,61,127,160
0,54,127,0
0,49,127,0
0,49,0,25
0,54,0,0
0,61,0,0
0,58,127,0
0,46,127,0
0,51,127,0
0,51,0,25
0,46,0,0
0,58,0,0
0,70,127,160
0,58,127,0
0,63,127,0
0,63,0,25
0,58,0,0
0,70,0,0
0,32,72,0
0,32,115,0
0,35,127,0
0,42,54,0
0,42,55,0
0,44,72,0
0,63,127,0
0,56,127,0
0,51,127,0
0,44,115,0
0,42,113,0
0,44,72,0
0,63,70,0
0,56,70,0
0,51,70,0
0,44,115,0
0,42,54,0
0,32,72,0
0,63,70,0
0,56,70,0
0,51,70,0
0,32,115,0
0,38,70,0
0,35,127,0
0,42,54,0
0,51,0,25
0,56,0,0
0,63,0,0
0,42,0,20
0,35,0,0
0,38,0,0
0,32,0,15
0,32,0,0
0,44,72,60
0,63,127,0
0,56,127,0
0,51,127,0
0,44,115,0
0,42,54,0
0,51,0,25
0,56,0,0
0,63,0,0
0,42,0,20
0,44,0,15
0,44,0,0
0,44,72,60
0,63,70,0
0,56,70,0
0,51,70,0
0,44,115,0
0,46,83,0
0,51,0,25
0,56,0,0
0,63,0,0
0,46,0,20
0,44,0,15
0,44,0,0
0,32,72,60
0,63,70,0
0,56,70,0
0,51,70,0
0,32,115,0
0,51,0,25
0,56,0,0
0,63,0,0
0,32,0,35
0,32,0,0
0,44,72,0
0,63,127,0
0,56,127,0
0,51,127,0
0,44,115,0
0,35,127,0
0,42,54,0
0,51,0,25
0,56,0,0
0,63,0,0
0,44,72,40
0,63,70,0
0,56,70,0
0,51,70,0
0,44,115,0
0,42,55,0
0,51,0,25
0,56,0,0
0,63,0,0
0,42,0,20
0,44,0,15
0,44,0,0
0,32,72,60
0,63,70,0
0,56,70,0
0,51,70,0
0,32,115,0
0,42,113,0
0,51,0,25
0,56,0,0
0,63,0,0
0,42,0,20
0,32,0,15
0,32,0,0
0,44,72,60
0,63,127,0
0,51,127,0
0,56,127,0
0,44,115,0
0,42,54,0
0,56,0,25
0,51,0,0
0,63,0,0
0,42,0,20
0,44,0,15
0,44,0,0
0,44,72,0
0,63,70,0
0,56,70,0
0,51,70,0
0,44,115,0
0,38,70,0
0,35,127,0
0,42,54,0
0,32,72,40
0,61,70,0
0,54,70,0
0,49,70,0
0,32,115,0
0,42,54,0
0,49,0,25
0,54,0,0
0,61,0,0
0,42,0,20
0,32,0,15
0,32,0,0
0,44,72,60
0,61,127,0
0,49,127,0
0,54,127,0
0,44,115,0
0,46,83,0
0,54,0,25
0,49,0,0
0,61,0,0
0,46,0,20
0,63,70,75
0,56,70,0
0,51,70,0
0,51,0,25
0,56,0,0
0,63,0,0
0,32,72,0
0,63,70,0
0,56,70,0
0,51,70,0
0,32,115,0
0,35,127,0
0,42,54,0
0,63,70,0
0,56,70,0
0,51,70,0
0,42,55,0
0,44,72,10
0,63,127,0
0,56,127,0
0,51,127,0
0,44,115,0
0,42,113,0
0,51,0,25
0,56,0,0
0,63,0,0
0,42,0,20
0,44,0,15
0,44,0,0
0,44,72,60
0,63,70,0
0,56,70,0
0,51,70,0
0,44,115,0
0,42,54,0
0,51,0,25
0,56,0,0
0,63,0,0
0,42,0,20
0,32,72,0
0,63,70,0
0,56,70,0
0,51,70,0
0,32,115,0
0,38,70,0
0,35,127,0
0,42,54,0
0,51,0,25
0,56,0,0
0,63,0,0
0,42,0,20
0,35,0,0
0,38,0,0
0,32,0,15
0,32,0,0
0,44,72,60
0,63,127,0
0,56,127,0
0,51,127,0
0,44,115,0
0,42,54,0
0,51,0,25
0,56,0,0
0,63,0,0
0,42,0,20
0,44,0,15
0,44,0,0
0,44,72,60
0,63,70,0
0,56,70,0
0,51,70,0
0,44,115,0
0,46,83,0
0,51,0,25
0,56,0,0
0,63,0,0
0,46,0,20
0,44,0,15
0,44,0,0
0,32,72,60
0,63,70,0
0,56,70,0
0,51,70,0
0,32,115,0
0,51,0,25
0,56,0,0
0,63,0,0
0,44,72,0
0,63,127,0
0,56,127,0
0,51,127,0
0,44,115,0
0,35,127,0
0,42,54,0
0,44,72,40
0,63,70,0
0,56,70,0
0,51,70,0
0,44,115,0
0,42,55,0
0,51,0,25
0,56,0,0
0,63,0,0
0,42,0,20
0,44,0,15
0,44,0,0
0,32,72,60
0,63,70,0
0,56,70,0
0,51,70,0
0,32,115,0
0,42,113,0
0,51,0,25
0,56,0,0
0,63,0,0
0,42,0,20
0,32,0,15
0,32,0,0
0,44,72,60
0,63,127,0
0,51,127,0
0,56,127,0
0,44,115,0
0,42,54,0
0,56,0,25
0,51,0,0
0,63,0,0
0,42,0,20
0,63,70,75
0,56,70,0
0,51,70,0
0,38,70,0
0,35,127,0
0,42,54,0
0,32,72,40
0,61,70,0
0,54,70,0
0,49,70,0
0,32,115,0
0,42,54,0
0,49,0,25
0,54,0,0
0,61,0,0
0,42,0,20
0,32,0,15
0,32,0,0
0,44,72,60
0,61,127,0
0,49,127,0
0,54,127,0
0,44,115,0
0,46,83,0
0,54,0,25
0,49,0,0
0,61,0,0
0,46,0,20
0,63,70,75
0,56,70,0
0,51,70,0
0,51,0,25
0,56,0,0
0,63,0,0
0,44,0,85
0,44,0,0
0,32,72,10
0,63,70,0
0,56,70,0
0,51,70,0
0,32,115,0
0,35,127,0
0,42,54,0
0,51,0,25
0,56,0,0
0,63,0,0
0,42,0,20
0,35,0,0
0,63,70,75
0,56,70,0
0,51,70,0
0,42,55,0
0,51,0,25
0,56,0,0
0,63,0,0
0,42,0,20
0,32,0,44
0,32,0,0
0,44,72,31
0,63,127,0
0,56,127,0
0,51,127,0
0,44,115,0
0,42,113,0
0,51,0,25
0,56,0,0
0,63,0,0
0,42,0,20
0,44,0,15
0,44,0,0
0,44,72,60
0,63,70,0
0,56,70,0
0,51,70,0
0,44,115,0
0,42,54,0
0,51,0,25
0,56,0,0
0,63,0,0
0,42,0,20
0,44,0,15
0,44,0,0
0,32,72,60
0,63,70,0
0,56,70,0
0,51,70,0
0,32,115,0
0,38,70,0
0,35,127,0
0,42,54,0
0,51,0,25
0,56,0,0
0,63,0,0
0,42,0,20
0,35,0,0
0,38,0,0
0,32,0,15
0,32,0,0
0,44,72,60
0,63,127,0
0,56,127,0
0,51,127,0
0,44,115,0
0,42,54,0
0,51,0,25
0,56,0,0
0,63,0,0
0,42,0,20
0,44,0,15
0,44,0,0
0,44,72,60
0,63,70,0
0,56,70,0
0,51,70,0
0,44,115,0
0,46,83,0
0,51,0,25
0,56,0,0
0,63,0,0
0,46,0,20
0,44,0,15
0,44,0,0
0,32,72,60
0,63,70,0
0,56,70,0
0,51,70,0
0,32,115,0
0,51,0,25
0,56,0,0
0,63,0,0
0,32,0,35
0,32,0,0
0,44,72,60
0,63,127,0
0,56,127,0
0,51,127,0
0,44,115,0
0,35,127,0
0,42,54,0
0,44,72,40
0,63,70,0
0,56,70,0
0,51,70,0
0,44,115,0
0,42,55,0
0,51,0,25
0,56,0,0
0,63,0,0
0,42,0,20
0,44,0,15
0,44,0,0
0,32,72,60
0,63,70,0
0,56,70,0
0,51,70,0
0,32,115,0
0,42,113,0
0,51,0,25
0,56,0,0
0,63,0,0
0,42,0,20
0,32,0,15
0,32,0,0
0,44,72,60
0,63,127,0
0,51,127,0
0,56,127,0
0,44,115,0
0,42,54,0
0,56,0,25
0,51,0,0
0,63,0,0
0,42,0,20
0,63,70,75
0,56,70,0
0,51,70,0
0,38,70,0
0,35,127,0
0,42,54,0
0,32,72,40
0,61,70,0
0,54,70,0
0,49,70,0
0,32,115,0
0,42,54,0
0,49,0,25
0,54,0,0
0,61,0,0
0,42,0,20
0,32,0,15
0,32,0,0
0,44,72,60
0,61,127,0
0,49,127,0
0,54,127,0
0,44,115,0
0,46,83,0
0,54,0,25
0,49,0,0
0,61,0,0
0,46,0,20
0,63,70,75
0,56,70,0
0,51,70,0
0,51,0,25
0,56,0,0
0,63,0,0
0,44,0,85
0,44,0,0
0,32,72,10
0,63,70,0
0,56,70,0
0,51,70,0
0,32,115,0
0,35,127,0
0,42,54,0
0,51,0,25
0,56,0,0
0,63,0,0
0,42,0,20
0,35,0,0
0,63,70,75
0,56,70,0
0,51,70,0
0,42,55,0
0,51,0,25
0,56,0,0
0,63,0,0
0,42,0,20
0,32,0,44
0,32,0,0
0,44,72,31
0,63,127,0
0,56,127,0
0,51,127,0
0,44,115,0
0,42,113,0
0,51,0,25
0,56,0,0
0,63,0,0
0,42,0,20
0,44,0,15
0,44,0,0
0,44,72,60
0,63,70,0
0,56,70,0
0,51,70,0
0,44,115,0
0,42,54,0
0,51,0,25
0,56,0,0
0,63,0,0
0,42,0,20
0,44,0,15
0,44,0,0
0,32,72,60
0,63,70,0
0,56,70,0
0,51,70,0
0,32,115,0
0,38,70,0
0,35,127,0
0,42,54,0
0,51,0,25
0,56,0,0
0,63,0,0
0,42,0,20
0,35,0,0
0,38,0,0
0,32,0,15
0,32,0,0
0,44,72,60
0,63,127,0
0,56,127,0
0,51,127,0
0,44,115,0
0,42,54,0
0,51,0,25
0,56,0,0
0,63,0,0
0,42,0,20
0,44,0,15
0,44,0,0
0,44,72,60
0,63,70,0
0,56,70,0
0,51,70,0
0,44,115,0
0,46,83,0
0,51,0,25
0,56,0,0
0,63,0,0
0,46,0,20
0,44,0,15
0,44,0,0
0,32,72,60
0,63,70,0
0,56,70,0
0,51,70,0
0,32,115,0
0,51,0,25
0,56,0,0
0,63,0,0
0,32,0,35
0,32,0,0
0,44,72,60
0,63,127,0
0,51,127,0
0,56,127,0
0,44,115,0
0,35,127,0
0,42,54,0
0,42,55,40
0,42,0,45
0,44,0,35
0,44,0,0
0,32,72,40
0,61,127,0
0,54,127,0
0,49,127,0
0,32,115,0
0,42,113,0
0,49,0,25
0,54,0,0
0,61,0,0
0,42,0,20
0,32,0,15
0,32,0,0
0,44,72,60
0,44,115,0
0,42,54,0
0,42,0,45
0,58,127,75
0,46,127,0
0,51,127,0
0,38,70,0
0,35,127,0
0,42,54,0
0,32,72,40
0,32,115,0
0,42,54,0
0,42,0,45
0,32,0,15
0,32,0,0
0,44,72,60
0,70,127,0
0,58,127,0
0,63,127,0
0,44,115,0
0,46,83,0
0,63,0,25
0,58,0,0
0,70,0,0
0,46,0,20
0,44,0,185
0,44,0,0
0,32,57,10
0,39,59,0
0,35,127,0
0,42,54,0
0,63,71,0
0,63,0,45
0,39,0,0
0,35,0,0
0,42,0,0
0,39,59,75
0,42,55,0
0,63,34,0
0,63,0,45
0,42,0,0
0,39,0,0
0,39,59,75
0,42,113,0
0,62,35,3
0,42,0,42
0,39,0,0
0,62,0,3
0,39,49,72
0,42,54,0
0,62,65,1
0,42,0,44
0,39,0,0
0,62,0,1
0,32,0,21
0,39,57,53
0,35,127,0
0,42,54,0
0,62,26,0
0,62,0,45
0,39,0,0
