track,note,velocity,time
0,63,127,435
0,56,127,0
0,51,127,0
0,51,0,25
0,56,0,0
0,63,0,0
0,63,70,95
0,56,70,0
0,51,70,0
0,51,0,25
0,56,0,0
0,63,0,0
0,56,70,95
0,63,70,0
0,51,70,0
0,51,0,25
0,63,0,0
0,56,0,0
0,51,127,95
0,56,127,0
0,63,127,0
0,63,0,25
0,56,0,0
0,51,0,0
0,51,70,95
0,63,70,0
0,56,70,0
0,56,0,25
0,63,0,0
0,51,0,0
0,56,70,95
0,63,70,0
0,51,70,0
0,51,0,25
0,63,0,0
0,56,0,0
0,56,127,95
0,63,127,0
0,51,127,0
0,51,0,25
0,63,0,0
0,56,0,0
0,51,70,40
0,63,70,0
0,56,70,0
0,56,0,25
0,63,0,0
0,51,0,0
0,51,70,95
0,56,70,0
0,63,70,0
0,63,0,25
0,56,0,0
0,51,0,0
0,63,127,95
0,56,127,0
0,51,127,0
0,51,0,25
0,56,0,0
0,63,0,0
0,51,70,95
0,56,70,0
0,63,70,0
0,63,0,25
0,56,0,0
0,51,0,0
0,54,70,40
0,49,70,0
0,61,70,0
0,61,0,25
0,49,0,0
0,54,0,0
0,49,127,95
0,54,127,0
0,61,127,0
0,61,0,25
0,54,0,0
0,49,0,0
0,56,70,95
0,51,70,0
0,63,70,0
0,63,0,25
0,51,0,0
0,56,0,0
0,63,70,95
0,51,70,0
0,56,70,0
0,56,0,25
0,51,0,0
0,63,0,0
0,51,70,95
0,56,70,0
0,63,70,0
0,63,0,25
0,56,0,0
0,51,0,0
0,63,127,95
0,51,127,0
0,56,127,0
0,56,0,25
0,51,0,0
0,63,0,0
0,63,70,95
0,51,70,0
0,56,70,0
0,56,0,25
0,51,0,0
0,63,0,0
0,51,70,95
0,56,70,0
0,63,70,0
0,63,0,25
0,56,0,0
0,51,0,0
0,51,127,95
0,56,127,0
0,63,127,0
0,63,0,25
0,56,0,0
0,51,0,0
0,56,70,95
0,63,70,0
0,51,70,0
0,51,0,25
0,63,0,0
0,56,0,0
0,56,70,95
0,51,70,0
0,63,70,0
0,63,0,25
0,51,0,0
0,56,0,0
0,51,127,95
0,63,127,0
0,56,127,0
0,56,0,25
0,63,0,0
0,51,0,0
0,63,70,40
0,51,70,0
0,56,70,0
0,56,0,25
0,51,0,0
0,63,0,0
0,63,70,95
0,51,70,0
0,56,70,0
0,56,0,25
0,51,0,0
0,63,0,0
0,56,127,95
0,51,127,0
0,63,127,0
0,63,0,25
0,51,0,0
0,56,0,0
0,56,70,95
0,51,70,0
0,63,70,0
0,63,0,25
0,51,0,0
0,56,0,0
0,61,70,40
0,49,70,0
0,54,70,0
0,54,0,25
0,49,0,0
0,61,0,0
0,54,127,95
0,49,127,0
0,61,127,0
0,61,0,25
0,49,0,0
0,54,0,0
0,56,70,95
0,51,70,0
0,63,70,0
0,63,0,25
0,51,0,0
0,56,0,0
0,51,70,95
0,63,70,0
0,56,70,0
0,56,0,25
0,63,0,0
0,51,0,0
0,51,70,95
0,56,70,0
0,63,70,0
0,63,0,25
0,56,0,0
0,51,0,0
0,51,127,95
0,56,127,0
0,63,127,0
0,63,0,25
0,56,0,0
0,51,0,0
0,51,70,95
0,63,70,0
0,56,70,0
0,56,0,25
0,63,0,0
0,51,0,0
0,63,70,95
0,56,70,0
0,51,70,0
0,51,0,25
0,56,0,0
0,63,0,0
0,63,127,95
0,56,127,0
0,51,127,0
0,51,0,25
0,56,0,0
0,63,0,0
0,56,70,95
0,63,70,0
0,51,70,0
0,51,0,25
0,63,0,0
0,56,0,0
0,63,70,95
0,51,70,0
0,56,70,0
0,56,0,25
0,51,0,0
0,63,0,0
0,51,127,95
0,56,127,0
0,63,127,0
0,63,0,25
0,56,0,0
0,51,0,0
0,51,70,40
0,63,70,0
0,56,70,0
0,56,0,25
0,63,0,0
0,51,0,0
0,56,70,95
0,51,70,0
0,63,70,0
0,63,0,25
0,51,0,0
0,56,0,0
0,56,127,95
0,63,127,0
0,51,127,0
0,51,0,25
0,63,0,0
0,56,0,0
0,56,70,95
0,63,70,0
0,51,70,0
0,51,0,25
0,63,0,0
0,56,0,0
0,61,70,40
0,54,70,0
0,49,70,0
0,49,0,25
0,54,0,0
0,61,0,0
0,61,127,95
0,54,127,0
0,49,127,0
0,49,0,25
0,54,0,0
0,61,0,0
0,51,70,95
0,56,70,0
0,63,70,0
0,63,0,25
0,56,0,0
0,51,0,0
0,51,70,5
0,63,70,0
0,56,70,0
0,56,0,5
0,63,0,0
0,51,0,0
0,63,70,5
0,56,70,0
0,51,70,0
0,51,0,5
0,56,0,0
0,63,0,0
0,56,127,5
0,63,127,0
0,51,127,0
0,51,0,5
0,63,0,0
0,56,0,0
0,63,70,50
0,56,70,0
0,51,70,0
0,51,0,25
0,56,0,0
0,63,0,0
0,56,70,20
0,63,70,0
0,51,70,0
0,51,0,25
0,63,0,0
0,56,0,0
0,51,127,95
0,63,127,0
0,56,127,0
0,56,0,25
0,63,0,0
0,51,0,0
0,51,70,95
0,63,70,0
0,56,70,0
0,56,0,25
0,63,0,0
0,51,0,0
0,56,70,95
0,63,70,0
0,51,70,0
0,51,0,25
0,63,0,0
0,56,0,0
0,51,127,0
0,63,127,0
0,56,127,0
0,56,0,25
0,63,0,0
0,51,0,0
0,54,127,160
0,49,127,0
0,61,127,0
0,61,0,25
0,49,0,0
0,54,0,0
0,51,127,0
0,58,127,0
0,46,127,0
0,46,0,25
0,58,0,0
0,51,0,0
0,70,127,160
0,63,127,0
0,58,127,0
0,58,0,25
0,63,0,0
0,70,0,0
0,32,115,0
0,42,54,0
0,35,127,0
0,32,72,0
0,35,0,5
0,42,0,0
0,42,55,5
0,42,0,5
0,32,0,4
0,32,0,0
0,42,113,5
0,51,127,0
0,44,115,0
0,63,127,0
0,56,127,0
0,44,72,0
0,56,0,5
0,63,0,0
0,51,0,0
0,42,0,5
0,44,0,5
0,44,0,0
0,63,70,0
0,51,70,0
0,56,70,0
0,42,54,0
0,44,72,0
0,44,115,0
0,56,0,10
0,63,0,0
0,51,0,0
0,42,0,20
0,44,0,15
0,44,0,0
0,35,127,40
0,51,70,0
0,63,70,0
0,42,54,0
0,32,115,0
0,38,70,0
0,56,70,0
0,32,72,0
0,56,0,25
0,63,0,0
0,51,0,0
0,42,0,20
0,35,0,0
0,38,0,0
0,32,0,15
0,32,0,0
0,51,127,60
0,56,127,0
0,44,115,0
0,63,127,0
0,44,72,0
0,42,54,0
0,63,0,25
0,56,0,0
0,51,0,0
0,42,0,20
0,44,0,15
0,44,0,0
0,46,83,60
0,63,70,0
0,51,70,0
0,44,115,0
0,44,72,0
0,56,70,0
0,56,0,25
0,63,0,0
0,51,0,0
0,46,0,20
0,44,0,15
0,44,0,0
0,51,70,60
0,32,115,0
0,63,70,0
0,32,72,0
0,56,70,0
0,56,0,25
0,63,0,0
0,51,0,0
0,32,0,35
0,32,0,0
0,44,72,45
0,56,127,0
0,35,127,0
0,42,54,0
0,63,127,0
0,51,127,0
0,44,115,0
0,51,0,25
0,56,0,0
0,63,0,0
0,42,0,5
0,35,0,0
0,44,0,15
0,44,0,0
0,42,55,40
0,56,70,0
0,51,70,0
0,44,72,0
0,63,70,0
0,44,115,0
0,63,0,25
0,51,0,0
0,56,0,0
0,42,0,20
0,44,0,15
0,44,0,0
0,32,72,60
0,51,70,0
0,63,70,0
0,42,113,0
0,56,70,0
0,32,115,0
0,56,0,25
0,63,0,0
0,51,0,0
0,42,0,20
0,32,0,15
0,32,0,0
0,44,115,60
0,56,127,0
0,44,72,0
0,42,54,0
0,51,127,0
0,63,127,0
0,63,0,25
0,56,0,0
0,51,0,0
0,42,0,20
0,44,0,15
0,44,0,0
0,51,70,50
0,56,70,0
0,38,70,0
0,44,72,0
0,35,127,0
0,44,115,0
0,42,54,0
0,63,70,0
0,63,0,25
0,56,0,0
0,51,0,0
0,38,0,5
0,35,0,0
0,42,0,0
0,44,0,15
0,44,0,0
0,54,70,40
0,61,70,0
0,42,54,0
0,49,70,0
0,32,115,0
0,32,72,0
0,49,0,25
0,61,0,0
0,54,0,0
0,42,0,20
0,32,0,15
0,32,0,0
0,44,115,60
0,49,127,0
0,44,72,0
0,46,83,0
0,61,127,0
0,54,127,0
0,54,0,25
0,49,0,0
0,61,0,0
0,46,0,20
0,51,70,75
0,63,70,0
0,56,70,0
0,56,0,25
0,51,0,0
0,63,0,0
0,44,0,5
0,44,0,0
0,32,115,5
0,42,54,0
0,32,72,0
0,63,70,0
0,35,127,0
0,51,70,0
0,56,70,0
0,56,0,5
0,63,0,0
0,51,0,0
0,42,0,5
0,35,0,0
0,56,70,5
0,42,55,0
0,51,70,0
0,63,70,0
0,63,0,5
0,56,0,0
0,51,0,0
0,42,0,5
0,32,0,4
0,32,0,0
0,42,113,10
0,56,127,0
0,44,115,0
0,44,72,0
0,63,127,0
0,51,127,0
0,51,0,25
0,56,0,0
0,63,0,0
0,42,0,20
0,44,0,15
0,44,0,0
0,56,70,60
0,63,70,0
0,44,115,0
0,44,72,0
0,42,54,0
0,51,70,0
0,51,0,25
0,56,0,0
0,63,0,0
0,42,0,20
0,44,0,15
0,44,0,0
0,35,127,60
0,38,70,0
0,42,54,0
0,32,115,0
0,51,70,0
0,32,72,0
0,63,70,0
0,56,70,0
0,56,0,25
0,63,0,0
0,51,0,0
0,42,0,20
0,35,0,0
0,38,0,0
0,32,0,15
0,32,0,0
0,63,127,60
0,51,127,0
0,44,115,0
0,56,127,0
0,44,72,0
0,42,54,0
0,56,0,25
0,51,0,0
0,63,0,0
0,42,0,20
0,44,0,15
0,44,0,0
0,56,70,60
0,44,115,0
0,63,70,0
0,46,83,0
0,44,72,0
0,51,70,0
0,51,0,25
0,56,0,0
0,63,0,0
0,46,0,20
0,44,0,15
0,44,0,0
0,32,72,60
0,63,70,0
0,51,70,0
0,32,115,0
0,56,70,0
0,56,0,25
0,51,0,0
0,63,0,0
0,32,0,5
0,32,0,0
0,51,127,60
0,56,127,0
0,44,72,0
0,63,127,0
0,42,54,0
0,44,115,0
0,35,127,0
0,63,0,5
0,56,0,0
0,51,0,0
0,42,0,20
0,35,0,0
0,44,0,15
0,44,0,0
0,44,72,40
0,44,115,0
0,42,55,0
0,63,70,0
0,56,70,0
0,51,70,0
0,51,0,25
0,63,0,0
0,56,0,0
0,42,0,20
0,44,0,15
0,44,0,0
0,32,72,60
0,56,70,0
0,42,113,0
0,32,115,0
0,51,70,0
0,63,70,0
0,63,0,25
0,56,0,0
0,51,0,0
0,42,0,20
0,32,0,15
0,32,0,0
0,44,72,60
0,56,127,0
0,63,127,0
0,51,127,0
0,44,115,0
0,42,54,0
0,51,0,25
0,63,0,0
0,56,0,0
0,42,0,20
0,63,70,75
0,35,127,0
0,51,70,0
0,56,70,0
0,42,54,0
0,38,70,0
0,56,0,5
0,63,0,0
0,51,0,0
0,38,0,20
0,35,0,0
0,42,0,0
0,44,0,25
0,44,0,0
0,32,72,40
0,61,70,0
0,32,115,0
0,49,70,0
0,54,70,0
0,42,54,0
0,54,0,25
0,49,0,0
0,61,0,0
0,42,0,20
0,32,0,15
0,32,0,0
0,44,72,60
0,49,127,0
0,54,127,0
0,44,115,0
0,46,83,0
0,61,127,0
0,61,0,25
0,49,0,0
0,54,0,0
0,46,0,20
0,51,70,75
0,63,70,0
0,56,70,0
0,56,0,25
0,51,0,0
0,63,0,0
0,44,0,85
0,44,0,0
0,42,54,10
0,56,70,0
0,63,70,0
0,32,115,0
0,35,127,0
0,32,72,0
0,51,70,0
0,51,0,25
0,56,0,0
0,63,0,0
0,42,0,20
0,35,0,0
0,42,55,75
0,51,70,0
0,63,70,0
0,56,70,0
0,56,0,25
0,51,0,0
0,63,0,0
0,42,0,20
0,32,0,44
0,32,0,0
0,51,127,31
0,44,115,0
0,44,72,0
0,56,127,0
0,42,113,0
0,63,127,0
0,63,0,25
0,51,0,0
0,56,0,0
0,42,0,20
0,44,0,15
0,44,0,0
0,56,70,60
0,63,70,0
0,44,115,0
0,42,54,0
0,51,70,0
0,44,72,0
0,51,0,25
0,63,0,0
0,56,0,0
0,42,0,20
0,44,0,15
0,44,0,0
0,32,115,60
0,42,54,0
0,38,70,0
0,32,72,0
0,63,70,0
0,56,70,0
0,51,70,0
0,35,127,0
0,51,0,25
0,56,0,0
0,63,0,0
0,35,0,20
0,38,0,0
0,42,0,0
0,32,0,15
0,32,0,0
0,51,127,60
0,56,127,0
0,44,115,0
0,42,54,0
0,44,72,0
0,63,127,0
0,63,0,25
0,51,0,0
0,56,0,0
0,42,0,20
0,44,0,15
0,44,0,0
0,56,70,60
0,44,115,0
0,44,72,0
0,51,70,0
0,63,70,0
0,46,83,0
0,63,0,25
0,51,0,0
0,56,0,0
0,46,0,20
0,44,0,15
0,44,0,0
0,32,115,60
0,56,70,0
0,32,72,0
0,51,70,0
0,63,70,0
0,63,0,25
0,56,0,0
0,51,0,0
0,32,0,35
0,32,0,0
0,51,127,60
0,56,127,0
0,42,54,0
0,63,127,0
0,44,115,0
0,44,72,0
0,35,127,0
0,63,0,5
0,56,0,0
0,51,0,0
0,42,0,20
0,35,0,0
0,44,0,15
0,44,0,0
0,51,70,40
0,56,70,0
0,42,55,0
0,44,72,0
0,44,115,0
0,63,70,0
0,63,0,25
0,51,0,0
0,56,0,0
0,42,0,20
0,44,0,15
0,44,0,0
0,63,70,60
0,56,70,0
0,32,72,0
0,42,113,0
0,32,115,0
0,51,70,0
0,51,0,25
0,63,0,0
0,56,0,0
0,42,0,20
0,32,0,15
0,32,0,0
0,56,127,60
0,51,127,0
0,42,54,0
0,44,72,0
0,44,115,0
0,63,127,0
0,63,0,25
0,56,0,0
0,51,0,0
0,42,0,20
0,56,70,75
0,63,70,0
0,38,70,0
0,35,127,0
0,51,70,0
0,42,54,0
0,51,0,5
0,56,0,0
0,63,0,0
0,42,0,20
0,38,0,0
0,35,0,0
0,44,0,25
0,44,0,0
0,49,70,40
0,54,70,0
0,32,115,0
0,32,72,0
0,61,70,0
0,42,54,0
0,61,0,25
0,54,0,0
0,49,0,0
0,42,0,20
0,32,0,15
0,32,0,0
0,44,115,60
0,49,127,0
0,44,72,0
0,61,127,0
0,46,83,0
0,54,127,0
0,54,0,25
0,49,0,0
0,61,0,0
0,46,0,20
0,51,70,75
0,63,70,0
0,56,70,0
0,56,0,25
0,51,0,0
0,63,0,0
0,44,0,85
0,44,0,0
0,56,70,10
0,35,127,0
0,32,115,0
0,32,72,0
0,63,70,0
0,42,54,0
0,51,70,0
0,51,0,25
0,56,0,0
0,63,0,0
0,35,0,20
0,42,0,0
0,51,70,75
0,63,70,0
0,42,55,0
0,56,70,0
0,56,0,25
0,51,0,0
0,63,0,0
0,42,0,20
0,32,0,44
0,32,0,0
0,51,127,31
0,56,127,0
0,42,113,0
0,44,115,0
0,63,127,0
0,44,72,0
0,63,0,25
0,56,0,0
0,51,0,0
0,42,0,20
0,44,0,15
0,44,0,0
0,42,54,60
0,44,72,0
0,56,70,0
0,51,70,0
0,44,115,0
0,63,70,0
0,63,0,25
0,56,0,0
0,51,0,0
0,42,0,20
0,44,0,15
0,44,0,0
0,38,70,60
0,35,127,0
0,42,54,0
0,56,70,0
0,32,72,0
0,63,70,0
0,32,115,0
0,51,70,0
0,51,0,25
0,63,0,0
0,56,0,0
0,38,0,20
0,42,0,0
0,35,0,0
0,32,0,15
0,32,0,0
0,44,72,60
0,63,127,0
0,44,115,0
0,56,127,0
0,51,127,0
0,42,54,0
0,51,0,25
0,56,0,0
0,63,0,0
0,42,0,20
0,44,0,15
0,44,0,0
0,56,70,60
0,44,72,0
0,63,70,0
0,44,115,0
0,46,83,0
0,51,70,0
0,51,0,25
0,56,0,0
0,63,0,0
0,46,0,20
0,44,0,15
0,44,0,0
0,32,115,60
0,51,70,0
0,32,72,0
0,56,70,0
0,63,70,0
0,63,0,25
0,51,0,0
0,56,0,0
0,32,0,35
0,32,0,0
