track,note,velocity,time
1,55,120,6144
1,43,123,192
1,55,120,208
1,55,113,60
1,48,113,1366
1,36,126,28
1,48,117,224
1,38,125,24
1,55,123,152
1,43,123,166
1,55,123,216
1,55,120,48
1,38,125,978
1,38,125,232
1,50,123,234
1,38,125,28
1,50,120,48
1,38,126,34
1,50,120,42
1,55,120,108
1,43,123,152
1,55,117,176
1,55,101,44
1,50,120,582
1,50,120,62
1,38,99,232
1,38,120,248
1,50,120,74
1,38,117,50
1,50,120,40
1,55,123,118
1,43,117,174
1,55,123,216
1,55,107,48
1,50,125,592
1,50,120,106
1,38,97,238
1,38,125,252
1,38,125,228
1,38,126,132
1,50,120,42
1,55,120,122
1,43,123,152
1,55,117,176
1,55,101,44
1,50,120,582
1,50,120,62
1,38,99,232
1,38,120,248
1,50,120,74
1,38,117,50
1,50,120,40
1,55,123,118
1,43,117,174
1,55,123,216
1,55,107,48
1,50,125,592
1,50,120,106
1,38,97,238
1,38,125,252
1,38,125,228
1,38,126,132
1,50,120,42
1,43,117,122
1,43,120,5978
1,43,125,5992
1,43,123,214
1,55,120,238
1,43,107,226
1,55,117,58
1,43,120,138
1,45,120,136
1,45,110,296
1,57,117,142
1,38,123,136
1,38,110,92
1,50,117,44
1,38,120,120
1,50,110,136
1,43,120,138
1,43,117,512
1,43,107,232
1,55,113,54
1,43,120,122
1,50,120,136
1,38,125,384
1,50,110,136
1,38,92,38
1,50,110,64
1,38,120,192
1,50,113,122
1,45,113,16
1,43,123,178
1,43,120,210
1,43,117,240
1,41,65,240
1,43,97,0
1,55,107,54
1,43,123,132
1,45,120,136
1,45,113,314
1,57,117,128
1,38,117,86
1,38,113,228
1,50,113,46
1,38,120,22
1,43,110,126
1,43,123,318
1,55,110,130
1,43,120,292
1,55,120,126
1,43,120,112
1,50,123,140
1,50,104,72
1,38,104,192
1,50,107,46
1,38,110,192
1,50,110,40
1,38,120,288
1,50,113,34
1,55,123,116
1,43,117,240
1,55,117,112
1,55,78,34
1,55,123,216
1,43,117,134
1,50,120,146
1,50,123,316
1,50,104,138
1,38,117,54
1,50,110,224
1,38,110,8
1,50,97,42
1,55,123,136
1,43,120,222
1,55,113,230
1,55,104,52
1,55,123,200
1,43,113,134
1,50,120,146
1,50,107,426
1,38,113,32
1,50,120,126
1,50,120,144
1,50,120,142
1,38,120,32
1,55,125,208
1,43,125,208
1,55,120,232
1,55,113,54
1,55,125,214
1,43,123,232
1,50,113,430
1,38,117,248
1,38,117,226
1,38,99,102
1,50,113,58
1,38,110,104
1,50,107,42
1,55,123,136
1,43,117,224
1,55,117,240
1,55,101,48
1,55,120,188
1,45,88,124
1,43,117,0
1,50,120,142
1,50,110,68
1,38,110,34
1,50,104,48
1,50,107,98
1,45,107,10
1,38,117,108
1,38,117,120
1,50,117,46
1,43,117,90
1,46,114,202
1,48,101,224
1,50,110,210
1,48,99,216
1,46,109,112
1,45,90,40
1,43,99,24
1,46,114,184
1,48,104,214
1,46,114,214
1,43,107,210
1,41,83,6
1,43,120,76
1,46,114,184
1,48,104,224
1,50,110,214
1,48,104,216
1,46,119,118
1,45,86,26
1,43,101,36
1,46,114,196
1,48,104,202
1,46,119,212
1,43,104,104
1,41,107,110
1,43,117,120
1,43,120,5978
1,43,125,5992
1,43,123,214
1,55,120,238
1,43,107,226
1,55,117,58
1,43,120,138
1,45,120,136
1,45,110,296
1,57,117,142
1,38,123,136
1,38,110,92
1,50,117,44
1,38,120,120
1,50,110,136
1,43,120,138
1,43,117,512
1,43,107,232
1,55,113,54
1,43,120,122
1,50,120,136
1,38,125,384
1,50,110,136
1,38,92,38
1,50,110,64
1,38,120,192
1,50,113,122
1,45,113,16
1,43,123,178
1,43,120,210
1,43,117,240
1,41,65,240
1,43,97,0
1,55,107,54
1,43,123,132
1,45,120,136
1,45,113,314
1,57,117,128
1,38,117,86
1,38,113,228
1,50,113,46
1,38,120,22
1,43,110,126
1,43,123,318
1,55,110,130
1,43,120,292
1,55,120,126
1,43,120,112
1,50,123,140
1,50,104,72
1,38,104,192
1,50,107,46
1,38,110,192
1,50,110,40
1,38,120,288
1,50,113,34
1,55,123,116
1,43,117,240
1,55,117,112
1,55,78,34
1,55,123,216
1,43,117,134
1,50,120,146
1,50,123,316
1,50,104,138
1,38,117,54
1,50,110,224
1,38,110,8
1,50,97,42
1,55,123,136
1,43,120,222
1,55,113,230
1,55,104,52
1,55,123,200
1,43,113,134
1,50,120,146
1,50,107,426
1,38,113,32
1,50,120,126
1,50,120,144
1,50,120,142
1,38,120,32
1,55,125,208
1,43,125,208
1,55,120,232
1,55,113,54
1,55,125,214
1,43,123,232
1,50,113,430
1,38,117,248
1,38,117,226
1,38,99,102
1,50,113,58
1,38,110,104
1,50,107,42
1,55,123,136
1,43,117,224
1,55,117,240
1,55,101,48
1,55,120,188
1,45,88,124
1,43,117,0
1,50,120,142
1,50,110,68
1,38,110,34
1,50,104,48
1,50,107,98
1,45,107,10
1,38,117,108
1,38,117,120
1,50,117,46
1,55,120,90
1,43,123,152
1,55,117,176
1,55,101,44
1,50,120,582
1,50,120,62
1,38,99,232
1,38,120,248
1,50,120,74
1,38,117,50
1,50,120,40
1,55,120,118
1,43,123,152
1,55,117,176
1,55,101,44
1,50,120,582
1,50,120,62
1,38,99,232
1,38,120,248
1,50,120,74
1,38,117,50
1,50,120,40
1,55,120,118
1,43,123,152
1,55,117,176
1,55,101,44
1,50,120,582
1,50,120,62
1,38,99,232
1,38,120,248
1,50,120,74
1,38,117,50
1,50,120,40
1,55,123,118
1,43,117,174
1,55,123,216
1,55,107,48
1,50,125,592
1,50,120,106
1,38,97,238
1,38,125,252
1,38,125,228
1,38,126,132
1,50,120,42
1,48,110,122
1,48,88,64
1,60,92,16
1,48,97,64
1,48,83,58
1,60,86,28
1,48,92,288
1,60,74,38
1,47,99,0
1,47,75,56
1,59,82,24
1,47,86,78
1,47,86,116
1,59,83,192
1,57,99,76
1,47,99,88
1,48,90,86
1,48,86,64
1,60,85,16
1,48,88,32
1,48,92,100
1,60,70,8
1,48,92,96
1,59,86,72
1,47,85,288
1,59,83,22
1,52,99,112
1,52,86,78
1,47,90,192
1,52,85,44
1,40,104,96
1,48,104,40
1,48,83,28
1,60,88,24
1,48,99,112
1,48,83,84
1,48,75,4
1,60,85,16
1,47,94,6
1,47,79,48
1,59,94,22
1,52,104,104
1,52,104,96
1,40,97,192
1,52,97,38
1,45,99,40
1,45,82,34
1,57,97,30
1,45,94,8
1,57,110,34
1,45,104,192
1,50,110,56
1,50,88,56
1,38,94,4
1,50,88,44
1,38,107,192
1,50,110,32
1,43,117,166
1,46,114,202
1,48,101,224
1,50,110,210
1,48,99,216
1,46,109,112
1,45,90,40
1,43,99,24
1,46,114,184
1,48,104,214
1,46,114,214
1,43,107,210
1,41,83,6
1,43,120,76
1,46,114,184
1,48,104,224
1,50,110,214
1,48,104,216
1,46,119,118
1,45,86,26
1,43,101,36
1,46,114,196
1,48,104,202
1,46,119,212
1,43,104,104
1,41,107,110
1,43,117,120
1,46,114,202
1,48,101,224
1,50,110,210
1,48,99,216
1,46,109,112
1,45,90,40
1,43,99,24
1,46,114,184
1,48,104,214
1,46,114,214
1,43,107,210
1,41,83,6
1,43,120,76
1,46,114,184
1,48,104,224
1,50,110,214
1,48,104,216
1,46,119,118
1,45,86,26
1,43,101,36
1,46,114,196
1,48,104,202
1,46,119,212
1,43,104,104
1,41,107,110
1,43,117,120
1,46,114,202
1,48,101,224
1,50,110,210
1,48,99,216
1,46,109,112
1,45,90,40
1,43,99,24
1,43,120,1432
1,46,114,184
1,48,104,224
1,50,110,214
1,48,104,216
1,46,119,118
1,45,86,26
1,43,101,36
1,43,117,1444
1,46,114,202
1,48,101,224
1,50,110,210
1,48,99,216
1,46,109,112
1,45,90,40
1,43,99,24
1,43,120,1432
1,46,114,184
1,48,104,224
1,50,110,214
1,48,104,216
1,46,119,118
1,45,86,26
1,43,101,36
1,55,110,1444
1,43,104,96
1,55,101,8
1,55,110,182
1,55,110,406
1,55,107,126
1,55,94,54
1,41,117,210
1,53,107,20
1,41,110,10
1,53,113,204
1,53,110,412
1,53,120,128
1,41,101,18
1,53,110,12
1,43,104,36
1,55,107,24
1,43,101,96
1,55,117,576
1,43,101,14
1,55,113,98
1,55,113,114
1,41,113,96
1,53,107,24
1,53,107,662
1,41,110,0
1,53,113,102
1,53,110,114
1,43,110,90
1,55,110,24
1,43,107,2
1,55,79,200
1,55,117,406
1,55,117,126
1,43,110,0
1,41,104,156
1,53,99,16
1,41,99,0
1,53,113,594
1,41,99,8
1,53,117,92
1,53,101,112
1,43,110,90
1,55,107,16
1,55,101,370
1,43,110,8
1,43,101,88
1,43,110,112
1,55,113,18
1,43,110,16
1,41,110,92
1,53,101,16
1,53,113,386
1,41,101,10
1,41,104,98
1,41,110,102
1,53,110,18
1,41,110,52
1,43,125,94
1,43,123,214
1,55,120,238
1,43,107,226
1,55,117,58
1,43,120,138
1,45,120,136
1,45,110,296
1,57,117,142
1,38,123,136
1,38,110,92
1,50,117,44
1,38,120,120
1,50,110,136
1,43,120,138
1,43,117,512
1,43,107,232
1,55,113,54
1,43,120,122
1,50,120,136
1,38,125,384
1,50,110,136
1,38,92,38
1,50,110,64
1,38,120,192
1,50,113,122
1,45,113,16
1,43,123,178
1,43,120,210
1,43,117,240
1,41,65,240
1,43,97,0
1,55,107,54
1,43,123,132
1,45,120,136
1,45,113,314
1,57,117,128
1,38,117,86
1,38,113,228
1,50,113,46
1,38,120,22
1,43,110,126
1,43,123,318
1,55,110,130
1,43,120,292
1,55,120,126
1,43,120,112
1,50,123,140
1,50,104,72
1,38,104,192
1,50,107,46
1,38,110,192
1,50,110,40
1,38,120,288
1,50,113,34
1,55,123,116
1,43,117,240
1,55,117,112
1,55,78,34
1,55,123,216
1,43,117,134
1,50,120,146
1,50,123,316
1,50,104,138
1,38,117,54
1,50,110,224
1,38,110,8
1,50,97,42
1,55,123,136
1,43,120,222
1,55,113,230
1,55,104,52
1,55,123,200
1,43,113,134
1,50,120,146
1,50,107,426
1,38,113,32
1,50,120,126
1,50,120,144
1,50,120,142
1,38,120,32
1,55,125,208
1,43,125,208
1,55,120,232
1,55,113,54
1,55,125,214
1,43,123,232
1,50,113,430
1,38,117,248
1,38,117,226
1,38,99,102
1,50,113,58
1,38,110,104
1,50,107,42
1,55,123,136
1,43,117,224
1,55,117,240
1,55,101,48
1,55,120,188
1,45,88,124
1,43,117,0
1,50,120,142
1,50,110,68
1,38,110,34
1,50,104,48
1,50,107,98
1,45,107,10
1,38,117,108
1,38,117,120
1,50,117,46
1,55,123,90
1,43,117,240
1,55,117,112
1,55,78,34
1,55,123,216
1,43,117,134
1,50,120,146
1,50,123,316
1,50,104,138
1,38,117,54
1,50,110,224
1,38,110,8
1,50,97,42
1,55,123,136
1,43,120,222
1,55,113,230
1,55,104,52
1,55,123,200
1,43,113,134
1,50,120,146
1,50,107,426
1,38,113,32
1,50,120,126
1,50,120,144
1,50,120,142
1,38,120,32
1,55,125,208
1,43,125,208
1,55,120,232
1,55,113,54
1,55,125,214
1,43,123,232
1,50,113,430
1,38,117,248
1,38,117,226
1,38,99,102
1,50,113,58
1,38,110,104
1,50,107,42
1,55,123,136
1,43,117,224
1,55,117,240
1,55,101,48
1,55,120,188
1,45,88,124
1,43,117,0
1,50,120,142
1,50,110,68
1,38,110,34
1,50,104,48
1,50,107,98
1,45,107,10
1,38,117,108
1,38,117,120
1,50,117,46
1,43,120,90
2,55,92,6144
2,74,92,0
2,67,94,0
2,71,104,0
2,62,90,0
2,69,113,0
2,55,94,2954
2,62,90,0
2,74,97,0
2,67,92,0
2,71,99,0
2,69,107,0
2,71,110,2958
2,62,94,0
2,55,97,0
2,74,99,0
2,67,92,0
2,69,113,0
2,67,101,1236
2,72,94,0
2,79,97,0
2,76,94,0
2,69,107,0
2,71,110,1604
2,62,94,0
2,55,97,0
2,74,99,0
2,67,92,0
2,69,113,0
2,67,113,1236
2,72,101,0
2,79,113,0
2,69,117,0
2,76,104,0
2,57,104,824
2,60,71,0
2,62,80,0
2,67,80,0
2,64,82,0
2,67,82,132
2,60,80,0
2,64,88,0
2,62,90,0
2,57,107,0
2,67,72,140
2,62,88,0
2,64,79,0
2,60,74,0
2,57,104,0
2,64,101,54
2,60,86,0
2,62,104,0
2,67,92,0
2,57,101,0
2,71,110,126
2,62,94,0
2,55,97,0
2,74,99,0
2,67,92,0
2,69,113,0
2,67,101,1236
2,72,94,0
2,79,97,0
2,76,94,0
2,69,107,0
2,71,110,1604
2,62,94,0
2,55,97,0
2,74,99,0
2,67,92,0
2,69,113,0
2,67,113,1236
2,72,101,0
2,79,113,0
2,69,117,0
2,76,104,0
2,57,104,824
2,60,71,0
2,62,80,0
2,67,80,0
2,64,82,0
2,67,82,132
2,60,80,0
2,64,88,0
2,62,90,0
2,57,107,0
2,67,72,140
2,62,88,0
2,64,79,0
2,60,74,0
2,57,104,0
2,64,101,54
2,60,86,0
2,62,104,0
2,67,92,0
2,57,101,0
2,79,85,126
2,62,79,0
2,71,90,0
2,55,80,0
2,69,85,0
2,74,92,0
2,55,110,12166
2,59,99,0
2,62,107,0
2,57,107,0
2,67,97,0
2,79,104,60
2,67,107,158
2,67,101,156
2,67,99,72
2,79,107,156
2,67,94,154
2,79,92,72
2,67,107,168
2,57,99,0
2,67,92,0
2,60,101,0
2,64,101,0
2,62,113,638
2,67,101,0
2,64,113,0
2,60,104,0
2,55,107,438
2,57,107,0
2,59,88,0
2,62,104,0
2,67,97,0
2,79,120,90
2,67,97,154
2,67,101,164
2,79,104,66
2,67,110,160
2,67,110,156
2,79,113,60
2,60,97,148
2,67,97,0
2,62,110,0
2,64,99,0
2,55,110,352
2,59,99,0
2,62,107,0
2,57,107,0
2,67,97,0
2,79,107,60
2,67,97,156
2,67,107,160
2,79,92,72
2,67,107,168
2,67,107,160
2,79,107,68
2,57,99,150
2,67,92,0
2,60,101,0
2,64,101,0
2,79,107,638
2,62,113,0
2,67,101,0
2,64,113,0
2,60,104,0
2,67,101,56
2,55,107,438
2,57,107,0
2,59,88,0
2,62,104,0
2,67,97,0
2,79,113,90
2,67,101,160
2,67,110,160
2,79,104,64
2,67,107,156
2,67,107,160
2,79,110,64
2,60,97,152
2,67,97,0
2,62,110,0
2,64,99,0
2,67,85,352
2,71,104,0
2,69,104,0
2,74,94,0
2,62,110,0
2,57,90,1242
2,64,88,0
2,79,86,0
2,69,86,0
2,76,90,0
2,72,92,0
2,62,113,1640
2,71,113,0
2,67,94,0
2,69,113,0
2,74,94,0
2,79,94,1224
2,69,94,0
2,72,104,0
2,57,99,0
2,64,92,0
2,76,99,0
2,69,110,1654
2,71,104,0
2,67,97,0
2,74,97,0
2,62,113,0
2,57,94,1232
2,64,92,0
2,72,99,0
2,79,88,0
2,69,92,0
2,76,94,0
2,69,113,1648
2,67,94,0
2,71,107,0
2,74,99,0
2,62,113,0
2,57,101,1240
2,69,97,0
2,79,94,0
2,64,94,0
2,72,107,0
2,76,99,0
2,67,94,184
2,69,104,0
2,71,97,0
2,74,94,0
2,60,117,4496
2,67,101,0
2,64,110,0
2,72,110,0
2,69,117,0
2,74,99,0
2,79,85,100
2,62,79,0
2,71,90,0
2,55,80,0
2,69,85,0
2,74,92,0
2,81,110,2278
2,69,117,38
2,57,97,320
2,72,107,2442
2,72,90,58
2,60,104,10
2,55,110,6658
2,59,99,0
2,62,107,0
2,57,107,0
2,67,97,0
2,79,104,60
2,67,107,158
2,67,101,156
2,67,99,72
2,79,107,156
2,67,94,154
2,79,92,72
2,67,107,168
2,57,99,0
2,67,92,0
2,60,101,0
2,64,101,0
2,62,113,638
2,67,101,0
2,64,113,0
2,60,104,0
2,55,107,438
2,57,107,0
2,59,88,0
2,62,104,0
2,67,97,0
2,79,120,90
2,67,97,154
2,67,101,164
2,79,104,66
2,67,110,160
2,67,110,156
2,79,113,60
2,60,97,148
2,67,97,0
