track,note,velocity,time
1,67,78,960
1,64,66,0
1,59,66,0
1,55,66,0
1,55,0,120
1,67,0,0
1,64,0,0
1,59,0,0
1,55,70,360
1,59,70,0
1,64,70,0
1,67,84,0
1,67,0,720
1,66,77,0
1,66,0,240
1,64,0,0
1,59,0,0
1,55,0,0
1,64,68,0
1,55,57,0
1,55,0,120
1,64,0,0
1,57,70,360
1,66,70,0
1,69,84,0
1,69,0,240
1,66,0,0
1,57,0,0
1,69,37,720
1,66,31,0
1,66,0,480
1,69,0,0
1,66,37,0
1,69,45,0
1,69,0,720
1,66,0,0
1,67,40,0
1,67,0,240
1,69,41,0
1,66,35,0
1,66,0,360
1,69,0,0
1,71,43,120
1,67,36,0
1,67,0,360
1,71,0,0
1,71,78,600
1,67,66,0
1,62,66,0
1,59,66,0
1,59,0,120
1,71,0,0
1,67,0,0
1,62,0,0
1,62,70,360
1,59,70,0
1,67,70,0
1,71,84,0
1,71,0,720
1,69,77,0
1,69,0,240
1,67,0,0
1,59,0,0
1,62,0,0
1,67,68,0
1,59,57,0
1,59,0,120
1,67,0,0
1,61,70,360
1,70,70,0
1,73,84,0
1,73,0,240
1,70,0,0
1,61,0,0
1,73,37,720
1,70,31,0
1,70,0,480
1,73,0,0
1,70,37,0
1,73,45,0
1,73,0,720
1,70,0,0
1,71,40,0
1,71,0,240
1,73,41,0
1,70,35,0
1,70,0,360
1,73,0,0
1,74,43,120
1,71,36,0
1,71,0,360
1,74,0,0
1,74,70,600
1,74,0,960
1,79,70,0
1,79,0,480
1,76,62,0
1,76,0,480
1,74,66,0
1,74,0,480
1,72,56,0
1,72,0,456
1,72,61,24
1,72,0,960
1,81,61,0
1,81,0,480
1,72,52,0
1,72,0,960
1,71,61,0
1,71,0,456
1,71,55,24
1,71,0,960
1,67,50,0
1,67,0,456
1,67,44,24
1,67,0,960
1,64,43,0
1,64,0,456
1,64,41,24
1,64,0,960
1,55,36,0
1,55,0,480
1,52,24,0
1,52,0,480
1,51,24,0
1,59,28,0
1,59,0,864
1,51,0,0
1,76,51,96
1,88,61,0
1,88,0,1200
1,76,0,0
1,75,45,0
1,87,53,0
1,87,0,240
1,75,0,0
1,76,48,0
1,88,57,0
1,88,0,480
1,76,0,0
1,60,51,0
1,64,51,0
1,66,61,0
1,66,0,960
1,64,0,0
1,60,0,0
1,66,66,0
1,64,56,0
1,61,56,0
1,61,0,480
1,64,0,0
1,66,0,0
1,57,60,0
1,63,60,0
1,66,71,0
1,66,0,720
1,67,51,0
1,67,0,240
1,69,56,0
1,69,0,240
1,67,43,0
1,67,0,240
1,63,0,0
1,57,0,0
1,66,47,0
1,66,0,480
1,64,39,0
1,64,0,480
1,76,51,0
1,88,61,0
1,88,0,1200
1,76,0,0
1,75,52,0
1,87,61,0
1,87,0,240
1,75,0,0
1,76,56,0
1,88,66,0
1,88,0,480
1,76,0,0
1,60,51,0
1,64,51,0
1,66,61,0
1,66,0,960
1,64,0,0
1,60,0,0
1,66,52,0
1,64,44,0
1,61,44,0
1,61,0,480
1,64,0,0
1,66,0,0
1,57,46,0
1,63,46,0
1,66,55,0
1,66,0,720
1,69,38,0
1,69,0,240
1,67,41,0
1,67,0,240
1,66,32,0
1,66,0,240
1,63,0,0
1,57,0,0
1,55,30,0
1,64,36,0
1,64,0,480
1,55,0,0
1,59,30,480
1,71,36,0
1,71,0,120
1,59,0,0
1,71,41,360
1,59,34,0
1,59,0,960
1,71,0,0
1,64,30,0
1,76,36,0
1,76,0,120
1,64,0,0
1,76,42,360
1,64,35,0
1,64,0,960
1,76,0,0
1,71,30,0
1,83,36,0
1,83,0,120
1,71,0,0
1,83,40,360
1,71,34,0
1,71,0,960
1,83,0,0
1,88,36,0
1,76,30,0
1,76,0,120
1,88,0,0
1,76,34,360
1,88,41,0
1,88,0,960
1,76,0,0
1,77,70,0
1,83,70,0
1,86,70,0
1,89,82,0
1,89,0,120
1,77,0,0
1,83,0,0
1,86,0,0
1,77,76,360
1,83,76,0
1,86,76,0
1,89,90,0
1,89,0,720
1,77,0,0
1,83,0,0
1,86,0,0
1,88,70,0
1,86,69,120
1,88,0,12
1,84,68,108
1,86,0,12
1,83,68,108
1,84,0,12
1,81,68,108
1,83,0,12
1,79,66,108
1,81,0,12
1,77,64,108
1,79,0,12
1,76,64,108
1,77,0,12
1,74,64,108
1,76,0,12
1,72,64,108
1,74,0,12
1,71,63,108
1,72,0,12
1,69,63,68
1,71,0,8
1,67,63,72
1,69,0,8
1,65,63,72
1,67,0,8
1,64,63,72
1,65,0,8
1,62,63,72
1,64,0,8
1,60,63,72
1,62,0,8
1,59,63,88
1,60,0,10
1,57,63,86
1,59,0,10
1,55,62,86
1,57,0,10
1,54,62,86
1,55,0,10
1,55,89,86
1,54,0,10
1,55,0,230
1,65,40,720
1,62,34,0
1,55,34,0
1,55,0,120
1,62,0,0
1,65,0,0
1,64,45,360
1,60,38,0
1,55,38,0
1,55,0,240
1,60,0,0
1,64,0,0
1,74,76,720
1,80,76,0
1,83,76,0
1,86,90,0
1,86,0,120
1,74,0,0
1,80,0,0
1,83,0,0
1,74,84,360
1,80,84,0
1,83,84,0
1,86,98,0
1,86,0,720
1,74,0,0
1,80,0,0
1,83,0,0
1,84,70,0
1,83,69,120
1,84,0,12
1,81,68,108
1,83,0,12
1,80,68,108
1,81,0,12
1,78,68,108
1,80,0,12
1,76,66,108
1,78,0,12
1,74,64,108
1,76,0,12
1,72,64,108
1,74,0,12
1,71,64,108
1,72,0,12
1,69,64,108
1,71,0,12
1,68,63,108
1,69,0,12
1,66,63,68
1,68,0,8
1,64,63,72
1,66,0,8
1,62,63,72
1,64,0,8
1,60,63,72
1,62,0,8
1,59,63,72
1,60,0,8
1,57,63,72
1,59,0,8
1,56,63,88
1,57,0,10
1,54,63,86
1,56,0,10
1,52,62,86
1,54,0,10
1,51,62,86
1,52,0,10
1,52,89,86
1,51,0,10
1,52,0,470
1,62,40,480
1,59,34,0
1,52,34,0
1,52,0,120
1,59,0,0
1,62,0,0
1,60,45,360
1,57,38,0
1,52,38,0
1,52,0,240
1,57,0,0
1,60,0,0
1,82,57,720
1,82,0,450
1,82,60,30
1,82,0,720
1,81,53,0
1,79,53,120
1,81,0,12
1,77,51,108
1,79,0,12
1,75,51,108
1,77,0,12
1,74,51,108
1,75,0,12
1,72,51,108
1,74,0,12
1,70,51,108
1,72,0,12
1,69,50,108
1,70,0,12
1,67,49,108
1,69,0,12
1,65,49,108
1,67,0,12
1,63,53,108
1,65,0,12
1,62,49,148
1,63,0,16
1,60,44,144
1,62,0,16
1,58,53,144
1,60,0,16
1,58,0,454
1,58,53,10
1,58,0,2400
1,67,53,0
1,67,0,432
1,67,59,48
1,67,0,960
1,67,53,0
1,73,63,0
1,73,0,432
1,67,0,0
1,73,68,48
1,67,57,0
1,67,0,960
1,73,0,0
1,73,58,0
1,76,58,0
1,79,69,0
1,79,0,432
1,76,0,0
1,73,0,0
1,73,66,48
1,76,66,0
1,79,78,0
1,79,0,960
1,78,80,0
1,78,0,480
1,77,84,0
1,77,0,960
1,76,0,0
1,73,0,0
1,78,82,0
1,76,69,0
1,73,69,0
1,73,0,432
1,76,0,0
1,78,0,0
1,71,80,48
1,74,80,0
1,78,95,0
1,78,0,1440
1,74,0,0
1,71,0,0
1,71,80,0
1,78,80,0
1,83,94,0
1,83,0,1440
1,78,0,0
1,71,0,0
1,66,41,0
1,71,49,0
1,71,0,120
1,66,0,0
1,72,59,360
1,60,49,0
1,60,0,120
1,72,0,0
1,72,56,840
1,67,47,0
1,67,0,120
1,72,0,0
1,75,59,360
1,63,49,0
1,63,0,120
1,75,0,0
1,75,57,840
1,69,48,0
1,69,0,120
1,75,0,0
1,76,63,360
1,64,53,0
1,64,0,120
1,76,0,0
1,76,60,840
1,71,50,0
1,71,0,120
1,76,0,0
1,77,64,360
1,65,55,0
1,65,0,120
1,77,0,0
1,68,39,840
1,71,39,0
1,76,46,0
1,76,0,120
1,71,0,0
1,68,0,0
1,77,38,120
1,71,32,0
1,68,32,0
1,68,0,120
1,71,0,0
1,77,0,0
1,77,38,120
1,71,32,0
1,68,32,0
1,68,0,120
1,71,0,0
1,77,0,0
1,77,38,120
1,71,32,0
1,68,32,0
1,68,0,120
1,71,0,0
1,77,0,0
1,77,38,120
1,71,32,0
1,68,32,0
1,68,0,120
1,71,0,0
1,77,0,0
1,77,38,120
1,71,32,0
1,68,32,0
1,68,0,120
1,71,0,0
1,77,0,0
1,68,39,120
1,71,39,0
1,77,46,0
1,77,0,120
1,71,0,0
1,68,0,0
1,77,52,120
1,71,44,0
1,68,44,0
1,68,0,120
1,71,0,0
1,77,0,0
1,77,58,120
1,71,48,0
1,68,48,0
1,68,0,120
1,71,0,0
1,77,0,0
1,77,63,120
1,71,53,0
1,68,53,0
1,68,0,120
1,71,0,0
1,77,0,0
1,77,69,120
1,71,59,0
1,68,59,0
1,68,0,120
1,71,0,0
1,77,0,0
1,77,75,120
1,71,63,0
1,68,63,0
1,68,0,120
1,71,0,0
1,77,0,0
1,78,77,120
1,82,77,0
1,85,77,0
1,88,91,0
1,90,91,0
1,90,0,120
1,85,0,0
1,78,0,0
1,82,0,0
1,88,0,0
1,79,70,120
1,82,70,0
1,85,70,0
1,88,83,0
1,91,83,0
1,91,0,120
1,85,0,0
1,79,0,0
1,82,0,0
1,88,0,0
1,79,70,120
1,82,70,0
1,85,70,0
1,88,83,0
1,91,83,0
1,91,0,120
1,85,0,0
1,79,0,0
1,82,0,0
1,88,0,0
1,79,70,120
1,82,70,0
1,85,70,0
1,88,83,0
1,91,83,0
1,91,0,120
1,85,0,0
1,79,0,0
1,82,0,0
1,88,0,0
1,79,70,120
1,82,70,0
1,85,70,0
1,88,83,0
1,91,83,0
1,91,0,120
1,85,0,0
1,79,0,0
1,82,0,0
1,88,0,0
1,79,70,120
1,82,70,0
1,85,70,0
1,88,83,0
1,91,83,0
1,91,0,120
1,85,0,0
1,79,0,0
1,82,0,0
1,88,0,0
1,79,71,120
1,82,71,0
1,85,71,0
1,88,85,0
1,91,85,0
1,91,0,120
1,85,0,0
1,79,0,0
1,82,0,0
1,88,0,0
1,79,65,120
1,82,65,0
1,85,65,0
1,88,77,0
1,91,77,0
1,91,0,120
1,85,0,0
1,79,0,0
1,82,0,0
1,88,0,0
1,79,63,120
1,82,63,0
1,85,63,0
1,88,74,0
1,91,74,0
1,91,0,120
1,85,0,0
1,79,0,0
1,82,0,0
1,88,0,0
1,79,57,120
1,82,57,0
1,85,57,0
1,88,67,0
1,91,67,0
1,91,0,120
1,85,0,0
1,79,0,0
1,82,0,0
1,88,0,0
1,79,51,120
1,82,51,0
1,85,51,0
1,88,60,0
1,91,60,0
1,91,0,120
1,85,0,0
1,79,0,0
1,82,0,0
1,88,0,0
1,79,47,120
1,82,47,0
1,85,47,0
1,88,56,0
1,91,56,0
1,91,0,120
1,85,0,0
1,79,0,0
1,82,0,0
1,88,0,0
1,91,56,120
1,79,56,0
1,79,0,480
1,91,0,0
1,90,56,0
1,78,56,0
1,78,0,1440
1,90,0,0
1,71,56,0
1,83,56,0
1,83,0,1440
1,71,0,0
1,66,56,0
1,78,56,0
1,78,0,1440
1,66,0,0
1,59,56,0
1,71,56,0
1,59,0,960
1,71,0,480
1,67,63,0
1,67,0,480
1,66,57,0
1,66,0,470
1,66,65,10
1,66,0,960
1,70,58,0
1,70,0,480
1,71,56,0
1,71,0,240
1,79,68,0
1,79,0,240
1,91,74,0
1,91,0,720
1,90,56,0
1,90,0,240
1,90,69,240
1,90,0,240
1,85,66,0
1,85,0,720
1,83,51,0
1,83,0,240
1,83,73,240
1,83,0,240
1,79,70,0
1,79,0,720
1,78,53,0
1,78,0,240
1,78,70,240
1,78,0,240
1,73,65,0
1,73,0,720
1,71,56,0
1,71,0,230
1,71,63,10
1,71,0,480
1,67,63,0
1,67,0,480
1,66,65,0
1,66,0,470
1,66,71,10
1,66,0,240
1,62,65,0
1,62,0,240
1,59,71,0
1,59,0,240
1,55,65,0
1,55,0,240
1,54,70,0
1,54,0,240
1,58,76,0
1,58,0,240
1,59,80,0
1,59,0,480
1,59,79,960
1,55,67,0
1,55,0,1440
1,59,0,0
1,60,34,0
1,55,28,0
1,60,0,960
1,67,39,0
1,55,0,480
1,64,27,0
1,58,27,0
1,61,27,0
1,67,0,960
1,66,33,0
1,66,0,470
1,61,0,10
1,58,0,0
1,64,0,0
1,66,40,0
1,62,34,0
1,59,34,0
1,59,0,480
1,62,0,0
1,66,0,0
1,59,79,960
1,55,67,0
1,55,0,1440
1,59,0,0
1,60,34,0
1,55,28,0
1,60,0,960
1,67,39,0
1,55,0,480
1,64,27,0
1,58,27,0
1,61,27,0
1,67,0,960
1,66,33,0
1,66,0,470
1,61,0,10
1,58,0,0
1,64,0,0
1,67,39,987
1,59,24,453
1,62,24,0
1,67,0,987
1,66,33,0
1,62,0,453
1,59,0,0
1,66,0,27
1,67,39,960
1,61,24,453
1,64,24,0
1,70,33,960
1,67,0,27
1,61,0,453
1,64,0,0
1,70,0,0
1,59,28,0
1,62,28,0
1,71,33,0
1,71,0,480
1,62,0,0
1,59,0,0
1,59,28,960
1,62,28,0
1,71,33,0
1,71,0,480
1,62,0,0
1,59,0,0
1,59,28,960
1,62,28,0
1,71,33,0
1,71,0,480
1,62,0,0
1,59,0,0
1,71,33,960
1,71,0,1430
1,71,33,10
1,71,0,1430
1,71,33,10
1,71,0,950
1,81,42,10
1,71,34,0
1,71,0,120
1,81,0,0
1,71,33,120
1,71,0,120
1,71,34,120
1,81,46,0
1,71,0,120
1,71,30,120
1,71,0,120
1,71,30,120
1,71,0,120
1,81,0,120
1,71,30,0
1,79,42,0
1,71,0,120
1,79,0,120
1,71,30,0
1,78,37,0
1,78,0,120
1,71,0,0
1,71,30,120
1,71,0,120
1,71,34,120
1,83,46,0
1,79,46,0
1,71,0,120
1,79,0,120
1,83,0,0
1,71,30,0
1,71,0,120
1,71,30,120
1,71,0,120
1,71,30,120
1,71,0,120
1,71,30,120
1,83,40,0
1,79,22,0
1,71,0,120
1,71,30,120
1,71,0,120
1,79,0,120
1,83,0,0
1,71,34,0
1,83,46,0
1,80,27,0
1,71,0,120
1,71,30,120
1,71,0,120
1,71,30,120
1,71,0,120
1,80,0,120
1,83,0,0
1,71,30,0
1,81,40,0
1,71,0,120
1,81,0,120
1,71,30,0
1,83,37,0
1,80,24,0
1,71,0,120
1,80,0,120
1,83,0,0
1,71,30,0
1,71,0,120
1,72,34,120
1,81,46,0
1,84,25,0
1,84,0,480
1,81,0,0
1,72,0,0
1,72,48,480
1,84,48,0
1,84,0,120
1,72,0,0
1,72,54,360
1,84,54,0
1,84,0,720
1,72,0,0
1,71,54,0
1,83,54,0
1,83,0,240
1,71,0,0
1,69,48,0
1,81,48,0
1,81,0,120
1,69,0,0
1,86,64,360
1,74,64,0
1,74,0,240
1,86,0,0
1,74,64,720
1,86,64,0
1,86,0,120
1,74,0,0
1,74,73,360
1,86,73,0
1,86,0,720
1,74,0,0
1,72,69,0
1,84,69,0
1,84,0,240
1,72,0,0
1,74,64,0
1,86,64,0
1,86,0,120
1,74,0,0
1,75,81,360
1,87,97,0
1,87,0,720
1,75,0,0
1,74,62,0
1,86,74,0
1,86,0,240
1,74,0,0
1,87,84,0
1,75,71,0
1,75,0,240
1,87,0,0
1,63,89,240
1,63,0,720
1,62,62,0
1,62,0,240
1,63,71,0
1,63,0,240
1,63,75,240
1,66,90,6
1,63,0,714
1,65,63,0
1,62,53,0
1,66,0,6
1,62,0,234
1,65,0,0
1,66,73,0
1,63,62,0
1,63,0,240
1,66,0,0
1,78,92,240
1,75,78,0
1,75,0,720
1,78,0,0
1,77,65,0
1,74,55,0
1,74,0,240
1,77,0,0
1,78,75,0
1,75,63,0
1,75,0,240
1,78,0,0
1,84,94,240
1,72,79,0
1,72,0,720
1,84,0,0
1,83,66,0
1,71,56,0
