track,note,velocity,time
1,40,89,4592
1,40,95,140
1,35,87,52
1,38,97,48
1,38,93,80
1,40,96,72
1,40,88,144
1,38,76,8
1,35,84,52
1,38,79,16
1,40,86,112
1,35,76,48
1,38,85,32
1,35,89,192
1,38,90,44
1,40,91,72
1,40,84,128
1,38,90,52
1,35,95,24
1,38,83,20
1,40,93,140
1,40,98,112
1,35,79,0
1,35,81,64
1,38,81,20
1,35,96,192
1,33,99,24
1,33,85,148
1,45,83,8
1,33,76,192
1,45,78,152
1,33,77,12
1,40,98,8
1,40,82,140
1,35,92,16
1,35,93,68
1,38,80,28
1,35,87,192
1,40,98,32
1,40,78,132
1,38,85,4
1,35,90,24
1,38,84,40
1,35,81,192
1,40,95,48
1,40,99,160
1,35,84,12
1,35,91,80
1,38,77,36
1,35,88,192
1,40,98,32
1,40,97,152
1,40,83,148
1,38,77,192
1,40,92,48
1,35,97,72
1,35,89,200
1,30,80,4
1,30,87,92
1,30,88,96
1,35,85,24
1,35,89,148
1,35,94,104
1,38,87,8
1,40,84,100
1,40,76,132
1,35,91,24
1,35,78,80
1,38,98,32
1,35,84,192
1,40,84,20
1,40,83,152
1,40,82,88
1,38,83,192
1,35,89,64
1,45,94,0
1,45,85,176
1,40,97,40
1,45,99,68
1,45,77,92
1,45,80,124
1,43,91,192
1,40,80,0
1,33,78,0
1,45,93,192
1,40,98,56
1,40,84,188
1,40,93,108
1,40,92,136
1,33,93,64
1,33,79,128
1,33,77,88
1,33,96,144
1,40,78,52
1,40,76,168
1,35,86,0
1,40,92,192
1,35,77,20
1,28,80,36
1,35,82,1304
1,35,81,128
1,35,88,200
1,40,79,88
1,40,99,144
1,35,98,384
1,28,84,176
1,35,99,96
1,30,99,384
1,35,91,4
1,30,86,384
1,35,77,16
1,40,82,124
1,40,94,124
1,35,80,384
1,40,90,36
1,36,87,132
1,36,91,168
1,36,95,92
1,35,93,172
1,35,85,136
1,35,93,140
1,35,97,260
1,35,80,144
1,30,92,384
1,35,84,188
1,30,77,188
1,40,90,68
1,40,92,140
1,35,79,52
1,38,96,48
1,38,90,80
1,40,77,72
1,40,99,144
1,38,89,8
1,35,80,52
1,38,96,16
1,40,93,112
1,35,83,48
1,38,77,32
1,35,95,192
1,38,86,44
1,40,83,72
1,40,88,128
1,38,83,52
1,35,83,24
1,38,99,20
1,40,93,140
1,40,98,112
1,35,77,0
1,35,88,64
1,38,98,20
1,35,97,192
1,33,83,24
1,33,88,148
1,45,82,8
1,33,89,192
1,45,78,152
1,33,85,12
1,40,95,8
1,40,85,140
1,35,88,16
1,35,85,68
1,38,92,28
1,35,90,192
1,40,87,32
1,40,87,132
1,38,94,4
1,35,84,24
1,38,91,40
1,35,84,192
1,40,93,48
1,40,90,160
1,35,83,12
1,35,91,80
1,38,96,36
1,35,90,192
1,40,96,32
1,40,79,152
1,40,90,148
1,38,77,192
1,40,90,48
1,35,83,72
1,35,91,200
1,30,95,4
1,30,90,92
1,30,97,96
1,35,91,24
1,35,82,148
1,35,96,104
1,38,86,8
1,40,83,100
1,40,81,132
1,35,78,24
1,35,79,80
1,38,94,32
1,35,94,192
1,40,90,20
1,40,96,152
1,40,96,88
1,38,81,192
1,35,99,64
1,45,77,0
1,45,86,176
1,40,82,40
1,45,81,68
1,45,79,92
1,45,77,124
1,43,77,192
1,40,97,0
1,33,86,0
1,45,96,192
1,40,96,56
1,40,85,188
1,40,76,108
1,40,98,136
1,33,81,64
1,33,82,128
1,33,98,88
1,33,97,144
1,40,98,52
1,40,94,168
1,35,79,0
1,40,85,192
1,35,86,20
1,28,91,36
1,35,77,1304
1,35,91,128
1,35,95,200
1,40,92,88
1,40,92,144
1,35,94,384
1,28,96,176
1,35,92,96
1,30,89,384
1,35,77,4
1,30,79,384
1,35,90,16
1,40,98,124
1,40,92,124
1,35,79,384
1,40,88,36
1,36,78,132
1,36,86,168
1,36,94,92
1,35,99,172
1,35,96,136
1,35,86,140
1,35,94,260
1,35,85,144
1,30,99,384
1,35,82,188
1,30,81,188
1,40,90,68
1,40,98,140
1,35,94,52
1,38,91,48
1,38,86,80
1,40,91,72
1,40,91,144
1,38,86,8
1,35,88,52
1,38,88,16
1,40,85,112
1,35,76,48
1,38,80,32
1,35,85,192
1,38,77,44
1,40,79,72
1,40,86,128
1,38,92,52
1,35,92,24
1,38,96,20
1,40,80,140
1,40,97,112
1,35,99,0
1,35,97,64
1,38,86,20
1,35,93,192
1,33,82,24
1,33,85,148
1,45,93,8
1,33,97,192
1,45,85,152
1,33,83,12
1,40,89,8
1,40,93,140
1,35,93,16
1,35,79,68
1,38,82,28
1,35,97,192
1,40,88,32
1,40,97,132
1,38,88,4
1,35,86,24
1,38,78,40
1,35,77,192
1,40,84,48
1,40,92,160
1,35,85,12
1,35,92,80
1,38,80,36
1,35,90,192
1,40,89,32
1,40,89,152
1,40,99,148
1,38,99,192
1,40,88,48
1,35,92,72
1,35,85,200
1,30,95,4
1,30,77,92
1,30,94,96
1,35,83,24
1,35,76,148
1,35,88,104
1,38,94,8
1,40,84,100
1,40,98,132
1,35,99,24
1,35,89,80
1,38,85,32
1,35,82,192
1,40,90,20
1,40,76,152
1,40,86,88
1,38,98,192
1,35,93,64
1,45,95,0
1,45,89,176
1,40,77,40
1,45,87,68
1,45,90,92
1,45,95,124
1,43,84,192
1,40,82,0
1,33,81,0
1,45,84,192
1,40,78,56
1,40,91,188
1,40,80,108
1,40,97,136
1,33,99,64
1,33,97,128
1,33,98,88
1,33,97,144
1,40,80,52
1,40,82,168
1,35,93,0
1,40,80,192
1,35,87,20
1,28,95,36
1,35,78,1304
1,35,89,128
1,35,94,200
1,40,93,88
1,40,76,144
1,35,92,384
1,28,77,176
1,35,92,96
1,30,89,384
1,35,94,4
1,30,91,384
1,35,80,16
1,40,82,124
1,40,94,124
1,35,77,384
1,40,84,36
1,36,84,132
1,36,85,168
1,36,89,92
1,35,84,172
1,35,97,136
1,35,89,140
1,35,87,260
1,35,86,144
1,30,87,384
1,35,89,188
1,30,94,188
1,40,96,68
1,40,96,140
1,35,93,52
1,38,94,48
1,38,97,80
1,40,88,72
1,40,78,144
1,38,95,8
1,35,80,52
1,38,91,16
1,40,77,112
1,35,85,48
1,38,95,32
1,35,79,192
1,38,84,44
1,40,99,72
1,40,77,128
1,38,91,52
1,35,76,24
1,38,85,20
1,40,94,140
1,40,95,112
1,35,91,0
1,35,99,64
1,38,81,20
1,35,94,192
1,33,87,24
1,33,78,148
1,45,94,8
1,33,86,192
1,45,99,152
1,33,91,12
1,40,98,8
1,40,82,140
1,35,82,16
1,35,93,68
1,38,89,28
1,35,98,192
1,40,94,32
1,40,86,132
1,38,93,4
1,35,80,24
1,38,97,40
1,35,98,192
1,40,87,48
1,40,97,160
1,35,80,12
1,35,80,80
1,38,98,36
1,35,76,192
1,40,76,32
1,40,89,152
1,40,77,148
1,38,79,192
1,40,77,48
1,35,91,72
1,35,83,200
1,30,85,4
1,30,81,92
1,30,79,96
1,35,88,24
1,35,86,148
1,35,84,104
1,38,79,8
1,40,93,100
1,40,91,132
1,35,88,24
1,35,93,80
1,38,87,32
1,35,78,192
1,40,95,20
1,40,78,152
1,40,94,88
1,38,86,192
1,35,77,64
1,45,81,0
1,45,90,176
1,40,90,40
1,45,92,68
1,45,97,92
1,45,83,124
1,43,85,192
1,40,94,0
1,33,80,0
1,45,80,192
1,40,80,56
1,40,80,188
1,40,83,108
1,40,80,136
1,33,94,64
1,33,97,128
1,33,86,88
1,33,95,144
1,40,87,52
1,40,81,168
1,35,78,0
1,40,97,192
1,35,77,20
1,28,91,36
1,35,94,1304
1,35,97,128
1,35,80,200
1,40,77,88
1,40,94,144
1,35,76,384
1,28,89,176
1,35,97,96
1,30,83,384
1,35,87,4
1,30,91,384
1,35,94,16
1,40,81,124
1,40,77,124
1,35,76,384
1,40,92,36
1,36,86,132
1,36,91,168
1,36,87,92
1,35,77,172
1,35,79,136
1,35,98,140
1,35,84,260
1,35,77,144
1,30,81,384
1,35,82,188
1,30,80,188
1,40,96,68
1,40,97,140
1,35,90,52
1,38,80,48
1,38,84,80
1,40,80,72
1,40,90,144
1,38,97,8
1,35,93,52
1,38,99,16
1,40,96,112
1,35,84,48
1,38,80,32
1,35,93,192
1,38,76,44
1,40,95,72
1,40,95,128
1,38,93,52
1,35,91,24
1,38,97,20
1,40,94,140
1,40,76,140
1,35,86,52
1,38,98,48
1,38,81,80
1,40,97,72
1,40,76,144
1,38,81,8
1,35,95,52
1,38,83,16
1,28,99,120
1,40,91,568
1,28,95,20
1,40,84,88
1,28,89,24
1,40,78,4
1,28,97,12
1,40,98,12
1,28,96,72
1,40,86,32
1,28,91,52
1,40,90,44
1,28,76,56
1,40,79,32
1,28,83,0
1,40,89,36
1,28,90,48
1,40,86,44
1,40,93,144
1,40,88,108
1,40,76,96
1,40,84,92
1,40,87,72
1,40,77,100
1,40,76,140
1,28,99,60
1,40,92,20
1,28,95,60
1,40,90,60
1,28,96,36
1,40,93,76
1,28,76,56
1,40,91,144
1,40,85,188
1,40,82,180
1,38,97,184
1,40,98,156
1,38,88,132
1,35,99,212
1,33,86,136
1,31,83,156
1,28,87,36
1,40,76,24
1,28,81,44
2,59,127,1520
2,64,127,4
2,60,127,4
2,64,127,384
2,60,127,16
2,64,127,40
2,61,127,16
2,64,127,0
2,60,127,192
2,64,127,4
2,60,127,48
2,64,127,24
2,59,98,0
2,64,91,16
2,60,77,24
2,64,83,48
2,60,78,40
2,64,83,8
2,61,100,20
2,64,81,272
2,60,90,20
2,64,82,12
2,60,94,52
2,64,82,28
2,59,87,192
2,64,90,4
2,60,101,20
2,64,92,112
2,60,80,40
2,64,82,0
2,61,100,0
2,64,78,12
2,60,83,16
2,64,88,208
2,60,100,20
2,64,83,192
2,40,86,84
2,52,90,0
2,59,96,0
2,55,91,0
2,45,84,4
2,60,82,0
2,57,94,0
2,64,96,0
2,55,80,40
2,52,77,0
2,59,97,0
2,40,70,0
2,40,96,96
2,59,94,0
2,52,79,0
2,55,99,0
2,40,77,476
2,52,70,0
2,59,70,0
2,55,92,0
2,59,75,156
2,55,75,0
2,52,74,0
2,40,86,0
2,47,95,16
2,57,98,0
2,66,70,0
2,63,96,0
2,47,88,116
2,66,87,0
2,63,97,0
2,57,100,0
2,66,74,492
2,57,95,0
2,47,72,0
2,63,96,0
2,52,87,52
2,55,84,0
2,40,100,0
2,59,93,0
2,64,78,40
2,45,76,0
2,57,85,0
2,60,77,0
2,52,92,32
2,40,91,0
2,59,77,0
2,55,77,0
2,64,85,48
2,60,87,0
2,57,80,0
2,45,75,0
2,40,77,52
2,52,93,0
2,55,90,0
2,59,78,0
2,40,72,372
2,52,97,0
2,47,71,1448
2,62,70,0
2,66,89,0
2,59,89,0
2,52,94,960
2,40,92,0
2,59,97,0
2,55,83,0
2,59,70,924
2,66,71,0
2,62,78,0
2,47,77,0
2,52,86,20
2,59,72,0
2,55,100,0
2,40,80,0
2,55,79,16
2,60,101,0
2,64,72,0
2,67,79,0
2,48,90,0
2,66,78,760
2,57,76,0
2,63,75,0
2,66,73,40
2,57,94,0
2,47,71,0
2,63,92,0
2,59,88,324
2,64,72,0
2,64,101,16
2,60,89,24
2,64,88,48
2,60,101,40
2,64,71,8
2,61,78,20
2,64,95,272
2,60,98,20
2,64,93,12
2,60,71,52
2,64,81,28
2,59,91,192
2,64,77,4
2,60,81,20
2,64,91,112
2,60,79,40
2,64,87,0
2,61,77,0
2,64,73,12
2,60,97,16
2,64,96,208
2,60,85,20
2,64,99,192
2,40,89,84
2,52,97,0
2,59,96,0
2,55,79,0
2,45,74,4
2,60,92,0
2,57,101,0
2,64,83,0
2,55,91,40
2,52,75,0
2,59,76,0
2,40,94,0
2,40,85,96
2,59,100,0
2,52,88,0
2,55,88,0
2,40,83,476
2,52,83,0
2,59,96,0
2,55,79,0
2,59,89,156
2,55,90,0
2,52,100,0
2,40,76,0
2,47,80,16
2,57,95,0
2,66,73,0
2,63,78,0
2,47,96,116
2,66,79,0
2,63,88,0
2,57,101,0
2,66,81,492
2,57,82,0
2,47,98,0
2,63,82,0
2,52,86,52
2,55,89,0
2,40,72,0
2,59,76,0
2,64,80,40
2,45,90,0
2,57,72,0
2,60,74,0
2,52,96,32
2,40,101,0
2,59,73,0
2,55,78,0
2,64,88,48
2,60,73,0
2,57,81,0
2,45,86,0
2,40,79,52
2,52,79,0
2,55,94,0
2,59,82,0
2,40,93,372
2,52,72,0
2,47,94,1448
2,62,90,0
2,66,85,0
2,59,83,0
2,52,80,960
2,40,77,0
2,59,74,0
2,55,75,0
2,59,76,924
2,66,80,0
2,62,86,0
2,47,95,0
2,52,99,20
2,59,85,0
2,55,92,0
2,40,99,0
2,55,79,16
2,60,96,0
2,64,95,0
2,67,78,0
2,48,100,0
2,66,86,760
2,57,78,0
2,63,85,0
2,66,96,40
2,57,79,0
2,47,90,0
2,63,83,0
2,59,101,324
2,64,70,0
2,64,83,16
2,60,76,24
2,64,83,48
2,60,86,40
2,64,96,8
2,61,85,20
2,64,74,272
2,60,87,20
2,64,72,12
2,60,76,52
2,64,76,28
2,59,88,192
2,64,79,4
2,60,95,20
2,64,99,112
2,60,78,40
2,64,71,0
2,61,74,0
2,64,81,12
2,60,82,16
2,64,91,208
2,60,82,20
2,64,91,192
2,40,85,84
2,52,95,0
2,59,93,0
2,55,96,0
2,45,78,4
2,60,71,0
2,57,94,0
2,64,79,0
2,55,80,40
2,52,98,0
2,59,82,0
2,40,98,0
2,40,95,96
2,59,84,0
2,52,83,0
2,55,95,0
2,40,80,476
2,52,92,0
2,59,97,0
2,55,93,0
2,59,74,156
2,55,87,0
2,52,87,0
2,40,72,0
2,47,72,16
2,57,74,0
2,66,96,0
2,63,78,0
2,47,99,116
2,66,79,0
2,63,85,0
2,57,81,0
2,66,95,492
2,57,72,0
2,47,87,0
2,63,86,0
2,52,93,52
2,55,84,0
2,40,87,0
2,59,98,0
2,64,73,40
2,45,73,0
2,57,87,0
2,60,81,0
2,52,93,32
2,40,81,0
2,59,88,0
2,55,90,0
2,64,85,48
2,60,75,0
2,57,73,0
2,45,77,0
2,40,83,52
2,52,84,0
2,55,87,0
2,59,95,0
2,40,99,372
2,52,74,0
2,47,70,1448
2,62,87,0
2,66,70,0
2,59,98,0
2,52,74,960
2,40,87,0
2,59,90,0
2,55,82,0
2,59,73,924
2,66,86,0
2,62,80,0
2,47,78,0
2,52,87,20
2,59,85,0
2,55,91,0
2,40,88,0
2,55,99,16
2,60,91,0
2,64,77,0
2,67,73,0
2,48,96,0
2,66,84,760
2,57,83,0
2,63,73,0
2,66,81,40
2,57,86,0
2,47,82,0
2,63,90,0
2,59,96,324
2,64,72,0
2,64,81,16
2,60,96,24
2,64,78,48
2,60,75,40
2,64,94,8
2,61,78,20
2,64,87,272
2,60,80,20
2,64,91,12
2,60,91,52
2,64,71,28
2,59,100,192
2,64,79,4
2,60,81,20
2,64,100,112
2,60,78,40
2,64,94,0
2,61,78,0
2,64,80,12
2,60,70,16
2,64,90,208
2,60,93,20
2,64,86,192
2,40,88,84
2,52,70,0
2,59,87,0
2,55,88,0
2,45,70,4
2,60,87,0
2,57,79,0
2,64,96,0
2,55,79,40
2,52,82,0
2,59,82,0
2,40,91,0
2,40,92,96
2,59,93,0
2,52,94,0
2,55,78,0
2,40,78,476
2,52,101,0
2,59,76,0
2,55,89,0
2,59,85,156
2,55,81,0
2,52,77,0
2,40,88,0
2,47,99,16
2,57,90,0
2,66,90,0
2,63,73,0
2,47,76,116
2,66,93,0
2,63,94,0
2,57,87,0
2,66,97,492
2,57,93,0
2,47,74,0
2,63,74,0
2,52,89,52
2,55,96,0
2,40,72,0
2,59,89,0
2,64,84,40
2,45,88,0
2,57,88,0
2,60,93,0
2,52,73,32
2,40,71,0
2,59,73,0
2,55,83,0
2,64,84,48
2,60,78,0
2,57,98,0
2,45,84,0
2,40,77,52
