track,note,velocity,time
1,28,101,1447
1,40,86,83
1,40,75,53
1,40,88,53
1,28,88,3
1,28,82,53
1,40,83,12
1,28,82,100
1,40,83,2
1,28,94,100
1,30,100,45
1,42,73,86
1,42,77,54
1,30,100,17
1,42,86,2
1,42,75,48
1,42,86,53
1,30,86,102
1,42,96,2
1,28,86,28
1,40,83,78
1,40,80,53
1,35,94,27
1,28,82,45
1,40,90,28
1,40,83,62
1,28,78,101
1,40,86,95
1,30,89,37
1,42,84,79
1,42,86,52
1,30,100,16
1,42,92,4
1,30,96,12
1,42,84,100
1,30,96,94
1,42,92,11
1,40,85,53
1,40,83,81
1,40,80,53
1,40,76,87
1,40,79,51
1,40,78,53
1,35,90,0
1,40,85,3
1,35,85,101
1,42,77,3
1,42,81,90
1,42,77,61
1,37,92,36
1,42,86,11
1,42,81,72
1,42,81,54
1,37,81,100
1,42,96,11
1,40,78,29
1,40,83,86
1,40,79,62
1,35,88,11
1,40,90,11
1,35,97,12
1,40,88,11
1,35,99,101
1,40,88,2
1,35,90,101
1,42,71,12
1,42,84,78
1,42,84,61
1,37,86,18
1,42,75,12
1,37,96,11
1,42,75,19
1,42,79,61
1,42,84,35
1,33,85,29
1,33,75,70
1,33,97,61
1,33,82,36
1,32,86,27
1,32,79,87
1,32,81,61
1,30,100,70
1,30,86,78
1,30,86,61
1,30,84,52
1,33,86,45
1,33,80,61
1,33,86,53
1,33,86,52
1,40,85,29
1,40,75,78
1,40,76,53
1,40,90,61
1,33,92,37
1,33,85,66
1,33,88,59
1,33,92,70
1,28,92,29
1,28,92,80
1,40,85,48
1,40,83,87
1,40,80,53
1,40,76,87
1,40,79,55
1,40,78,53
1,35,90,0
1,40,85,3
1,35,85,101
1,42,77,3
1,42,81,95
1,42,77,61
1,37,92,37
1,42,86,11
1,42,81,76
1,42,81,53
1,37,81,101
1,42,96,12
1,40,78,27
1,40,83,86
1,40,79,61
1,35,88,12
1,40,90,11
1,35,97,10
1,40,88,11
1,35,99,100
1,40,88,1
1,35,90,102
1,42,71,11
1,42,84,78
1,42,84,63
1,37,86,19
1,42,75,11
1,37,96,11
1,42,75,18
1,42,79,61
1,42,84,35
1,33,85,28
1,33,75,69
1,33,97,61
1,33,82,37
1,32,86,23
1,32,79,86
1,32,81,63
1,30,100,71
1,30,86,76
1,30,86,63
1,30,84,54
1,33,86,45
1,33,80,62
1,33,86,52
1,33,86,53
1,40,85,28
1,40,75,71
1,40,76,53
1,40,90,61
1,33,92,36
1,33,85,72
1,33,88,61
1,33,92,69
1,28,92,29
1,28,92,78
1,38,120,48
1,38,110,74
1,38,104,61
1,38,110,78
1,43,107,28
1,43,104,69
1,43,107,45
1,43,110,31
1,43,113,61
1,36,117,71
1,36,107,95
1,36,97,61
1,36,110,69
1,35,104,37
1,35,99,61
1,35,110,51
1,35,120,79
1,35,120,87
1,36,113,80
1,36,92,75
1,36,99,62
1,36,92,70
1,35,110,54
1,35,101,69
1,35,104,61
1,35,94,53
1,33,101,53
1,33,86,69
1,33,94,61
1,33,88,69
1,31,97,45
1,31,88,54
1,31,107,64
1,31,104,71
1,35,92,20
1,35,94,27
1,35,85,30
1,35,88,45
1,40,85,60
1,40,83,82
1,40,80,53
1,40,76,88
1,40,79,53
1,40,78,53
1,35,90,0
1,40,85,1
1,35,85,102
1,42,77,4
1,42,81,96
1,42,77,61
1,37,92,36
1,42,86,12
1,42,81,76
1,42,81,53
1,37,81,101
1,42,96,11
1,40,78,29
1,40,83,87
1,40,79,61
1,35,88,10
1,40,90,12
1,35,97,10
1,40,88,9
1,35,99,102
1,40,88,2
1,35,90,104
1,42,71,11
1,42,84,77
1,42,84,61
1,37,86,20
1,42,75,11
1,37,96,10
1,42,75,19
1,42,79,61
1,42,84,36
1,33,85,28
1,33,75,69
1,33,97,61
1,33,82,37
1,32,86,23
1,32,79,86
1,32,81,61
1,30,100,69
1,30,86,78
1,30,86,61
1,30,84,53
1,33,86,45
1,33,80,63
1,33,86,53
1,33,86,53
1,40,85,29
1,40,75,79
1,40,76,53
1,40,90,61
1,33,92,35
1,33,85,66
1,33,88,61
1,33,92,70
1,28,92,27
1,28,92,78
1,40,85,44
1,40,83,86
1,40,80,53
1,40,76,87
1,40,79,53
1,40,78,53
1,35,90,0
1,40,85,2
1,35,85,101
1,42,77,9
1,42,81,96
1,42,77,61
1,37,92,35
1,42,86,12
1,42,81,71
1,42,81,53
1,37,81,101
1,42,96,10
1,40,78,29
1,40,83,87
1,40,79,60
1,35,88,10
1,40,90,12
1,35,97,12
1,40,88,10
1,35,99,101
1,40,88,3
1,35,90,101
1,42,71,12
1,42,84,81
1,42,84,63
1,37,86,19
1,42,75,12
1,37,96,11
1,42,75,20
1,42,79,60
1,42,84,36
1,33,85,28
1,33,75,70
1,33,97,61
1,33,82,36
1,32,86,24
1,32,79,89
1,32,81,61
1,30,100,70
1,30,86,73
1,30,86,63
1,30,84,53
1,33,86,51
1,33,80,61
1,33,86,54
1,33,86,53
1,40,85,29
1,40,75,74
1,40,76,52
1,40,90,61
1,33,92,36
1,33,85,69
1,33,88,67
1,33,92,68
1,28,92,25
1,28,92,79
1,40,92,48
1,40,94,57
1,40,99,69
1,35,104,54
1,40,92,11
1,40,85,76
1,40,90,61
1,40,83,46
1,42,81,53
1,42,79,61
1,42,84,63
1,37,96,0
1,42,96,19
1,42,89,36
1,42,84,53
1,42,84,61
1,42,84,53
1,42,75,53
1,40,90,70
1,40,83,61
1,40,85,63
1,35,104,70
1,28,94,58
1,40,99,45
1,40,86,53
1,35,97,3
1,40,97,10
1,42,79,37
1,42,92,78
1,42,81,61
1,42,104,62
1,42,96,49
1,42,96,61
1,42,96,69
1,42,96,61
1,42,89,66
1,40,101,80
1,40,101,88
1,40,90,61
1,35,107,27
1,28,86,45
1,35,101,65
1,40,97,6
1,35,94,101
1,40,88,3
1,35,92,103
1,42,96,4
1,42,96,86
1,42,100,71
1,42,89,54
1,42,104,62
1,42,92,45
1,42,96,70
1,42,92,69
1,42,89,53
1,42,96,61
1,28,110,62
2,71,92,1448
2,63,84,2
2,59,78,1
2,68,92,0
2,52,88,0
2,71,92,13
2,66,104,2
2,52,60,137
2,56,54,2
2,63,77,11
2,68,77,2
2,59,60,1
2,54,53,5
2,66,79,1
2,69,82,2
2,61,73,0
2,49,54,0
2,57,62,0
2,64,88,148
2,69,85,2
2,69,110,187
2,71,101,55
2,73,104,12
2,75,100,201
2,76,92,5
2,78,109,203
2,63,86,10
2,68,89,2
2,71,86,3
2,52,76,0
2,59,61,0
2,71,90,55
2,66,96,1
2,68,84,20
2,64,86,2
2,71,86,1
2,52,67,2
2,59,60,0
2,66,96,62
2,71,76,3
2,64,90,16
2,45,69,13
2,64,72,2
2,61,69,3
2,57,74,0
2,61,69,130
2,66,71,2
2,64,92,460
2,64,72,173
2,57,68,2
2,61,68,3
2,56,71,73
2,40,79,0
2,59,90,1
2,63,75,2
2,40,75,78
2,56,92,37
2,59,62,13
2,63,79,21
2,57,70,11
2,61,64,1
2,64,73,3
2,42,81,2
2,57,66,5
2,64,85,31
2,61,89,37
2,40,76,11
2,59,88,1
2,63,75,3
2,56,75,2
2,40,79,39
2,56,89,21
2,59,82,25
2,63,84,30
2,42,75,4
2,57,80,1
2,61,75,2
2,64,79,3
2,64,79,38
2,61,84,2
2,57,78,1
2,42,69,0
2,61,77,350
2,64,82,3
2,69,79,2
2,57,74,342
2,64,73,0
2,61,69,1
2,45,70,0
2,44,77,44
2,56,75,2
2,59,85,2
2,63,73,0
2,44,84,53
2,56,100,71
2,61,79,131
2,54,77,0
2,42,92,2
2,57,92,2
2,45,86,20
2,57,76,3
2,64,80,2
2,61,75,0
2,40,76,3
2,56,63,3
2,59,75,0
2,64,71,2
2,45,74,11
2,57,80,1
2,61,73,3
2,64,78,2
2,40,76,4
2,56,79,3
2,52,78,0
2,59,82,2
2,40,85,30
2,52,73,2
2,59,79,2
2,56,75,0
2,56,71,55
2,40,79,0
2,59,90,0
2,63,75,0
2,40,75,78
2,56,92,36
2,59,62,15
2,63,79,20
2,57,70,13
2,61,64,2
2,64,73,2
2,42,81,0
2,57,66,0
2,64,85,30
2,61,89,37
2,40,76,13
2,59,88,2
2,63,75,2
2,56,75,0
2,40,79,40
2,56,89,21
2,59,82,21
2,63,84,29
2,42,75,4
2,57,80,3
2,61,75,2
2,64,79,0
2,64,79,38
2,61,84,0
2,57,78,3
2,42,69,1
2,61,77,351
2,64,82,2
2,69,79,2
2,57,74,341
2,64,73,2
2,61,69,0
2,45,70,0
2,44,77,39
2,56,75,2
2,59,85,0
2,63,73,3
2,44,84,53
2,56,100,70
2,61,79,132
2,54,77,0
2,42,92,2
2,57,92,0
2,45,86,21
2,57,76,2
2,64,80,0
2,61,75,2
2,40,76,3
2,56,63,2
2,59,75,2
2,64,71,2
2,45,74,13
2,57,80,2
2,61,73,0
2,64,78,1
2,40,76,3
2,56,79,1
2,52,78,3
2,59,82,1
2,40,85,30
2,52,73,1
2,59,79,3
2,56,75,0
2,54,58,54
2,57,67,0
2,50,60,0
2,74,107,0
2,50,29,13
2,55,73,5
2,59,72,0
2,71,73,0
2,67,99,388
2,69,78,126
2,71,73,118
2,52,53,3
2,72,107,46
2,60,73,5
2,71,86,6
2,54,60,11
2,59,78,2
2,50,62,0
2,74,92,0
2,76,73,139
2,78,75,129
2,79,61,25
2,52,48,5
2,55,62,0
2,60,67,2
2,78,71,25
2,54,69,13
2,59,73,2
2,50,62,1
2,76,62,379
2,74,66,177
2,76,66,25
2,57,66,14
2,52,64,0
2,48,57,0
2,74,90,26
2,50,76,6
2,55,79,0
2,47,65,2
2,75,89,18
2,51,54,3
2,54,58,3
2,59,60,0
2,56,71,0
2,40,79,0
2,59,90,0
2,63,75,5
2,40,75,78
2,56,92,35
2,59,62,13
2,63,79,20
2,57,70,13
2,61,64,0
2,64,73,2
2,42,81,3
2,57,66,0
2,64,85,27
2,61,89,38
2,40,76,12
2,59,88,1
2,63,75,2
2,56,75,2
2,40,79,38
2,56,89,22
2,59,82,20
2,63,84,29
2,42,75,5
2,57,80,0
2,61,75,1
2,64,79,2
2,64,79,38
2,61,84,3
2,57,78,1
2,42,69,0
2,61,77,348
2,64,82,2
2,69,79,2
2,57,74,341
2,64,73,0
2,61,69,3
2,45,70,0
2,44,77,40
2,56,75,2
2,59,85,3
2,63,73,0
2,44,84,47
2,56,100,70
2,61,79,130
2,54,77,0
2,42,92,2
2,57,92,0
2,45,86,21
2,57,76,2
2,64,80,3
2,61,75,0
2,40,76,5
2,56,63,2
2,59,75,0
2,64,71,2
2,45,74,12
2,57,80,1
2,61,73,1
2,64,78,2
2,40,76,5
2,56,79,1
2,52,78,0
2,59,82,2
2,40,85,29
2,52,73,0
2,59,79,1
2,56,75,2
2,56,71,54
2,40,79,0
2,59,90,0
2,63,75,0
2,40,75,77
2,56,92,36
2,59,62,12
2,63,79,22
2,57,70,18
2,61,64,0
2,64,73,0
2,42,81,0
2,57,66,2
2,64,85,30
2,61,89,38
2,40,76,13
2,59,88,2
2,63,75,1
2,56,75,0
2,40,79,38
2,56,89,0
2,59,82,26
2,63,84,30
2,42,75,5
2,57,80,1
2,61,75,7
2,64,79,1
2,64,79,38
2,61,84,0
2,57,78,2
2,42,69,2
2,61,77,351
2,64,82,1
2,69,79,3
2,57,74,343
2,64,73,2
2,61,69,0
2,45,70,0
2,44,77,41
2,56,75,2
2,59,85,0
2,63,73,2
2,44,84,53
2,56,100,69
2,61,79,129
2,54,77,1
2,42,92,3
2,57,92,0
2,45,86,21
2,57,76,0
2,64,80,0
2,61,75,3
2,40,76,4
2,56,63,0
2,59,75,3
2,64,71,1
2,45,74,13
2,57,80,1
2,61,73,3
2,64,78,0
2,40,76,9
2,56,79,0
2,52,78,0
2,59,82,0
2,40,85,30
2,52,73,1
2,59,79,2
2,56,75,0
2,71,92,55
2,63,84,0
2,59,78,0
2,68,92,0
2,52,88,0
2,71,92,13
2,66,104,2
2,52,60,138
2,56,54,2
2,63,77,15
2,68,77,2
2,59,60,0
2,54,53,4
2,66,79,0
2,69,82,2
2,61,73,2
2,49,54,0
2,57,62,0
2,64,88,149
2,69,85,1
2,69,110,185
2,71,101,54
2,73,104,12
2,75,100,201
2,76,92,4
2,78,109,202
2,63,86,10
2,68,89,0
2,71,86,3
2,52,76,1
2,59,61,0
2,71,90,55
2,66,96,2
2,68,84,20
2,64,86,2
2,71,86,1
2,52,67,2
2,59,60,0
2,66,96,64
2,71,76,2
2,64,90,17
2,45,69,13
2,64,72,2
2,61,69,2
2,57,74,0
2,61,69,130
2,66,71,2
2,64,92,0
2,64,72,172
2,57,68,1
2,61,68,2
2,71,92,73
2,63,84,2
2,59,78,0
2,68,92,1
2,52,88,0
2,71,92,13
2,66,104,2
2,52,60,137
2,56,54,2
2,63,77,11
2,68,77,1
2,59,60,2
2,54,53,5
2,66,79,1
2,69,82,2
2,61,73,0
2,49,54,0
2,57,62,0
2,64,88,148
2,69,85,2
2,69,110,188
2,71,101,54
2,54,104,13
2,57,86,0
2,61,92,1
2,64,83,2
2,54,100,73
2,57,83,2
2,64,83,2
2,61,86,0
2,54,96,74
2,61,86,2
2,64,83,3
2,57,85,0
2,54,92,71
2,61,86,1
2,57,85,3
2,64,83,0
2,57,85,61
2,64,85,2
2,61,84,2
2,54,92,0
2,57,88,73
2,61,84,0
2,54,100,2
2,64,86,0
2,52,69,63
2,40,74,2
2,56,77,2
2,59,92,0
2,63,69,0
3,51,109,1648
3,63,109,2
3,51,109,97
3,63,109,2
3,47,104,97
3,59,104,2
3,47,113,46
3,59,113,3
3,44,100,102
3,56,100,0
3,44,114,140
3,56,114,2
3,40,107,0
3,52,107,4
3,42,114,105
3,54,114,0
3,42,89,20
3,54,89,1
3,51,109,1123
3,63,109,2
3,51,109,98
3,63,109,2
3,47,104,97
3,59,104,1
3,47,113,46
3,59,113,2
3,44,100,99
3,56,100,0
3,44,114,142
3,56,114,2
3,40,107,2
3,52,107,0
3,42,114,109
3,54,114,0
3,42,89,18
3,54,89,2
3,28,104,12259
3,52,82,53
3,52,82,61
3,47,86,52
3,49,64,1
3,47,104,1
3,44,109,101
3,28,120,0
3,52,85,61
3,52,82,62
3,47,83,46
3,49,84,51
3,47,92,3
3,44,114,53
3,44,71,2
3,28,79,0
3,47,90,0
3,51,75,0
3,28,75,79
3,44,92,38
3,47,62,18
3,51,79,23
3,45,70,17
3,49,64,0
3,52,73,0
3,30,81,0
3,45,66,2
3,52,85,31
3,49,89,39
3,28,76,17
3,47,88,0
3,51,75,0
3,44,75,0
3,28,79,41
3,44,89,23
3,47,82,25
3,51,84,31
3,30,75,9
3,45,80,0
3,49,75,0
3,52,79,0
3,52,79,42
3,49,84,0
3,45,78,0
3,30,69,0
3,49,77,355
3,52,82,0
3,57,79,0
3,45,74,0
3,52,73,0
3,49,69,0
3,33,70,0
3,32,77,44
3,44,75,0
3,47,85,0
3,51,73,0
3,32,84,55
3,44,100,72
3,49,79,0
3,42,77,0
3,30,92,0
3,45,92,0
3,33,86,25
3,45,76,0
3,52,80,0
3,49,75,0
3,28,76,9
3,44,63,0
3,47,75,0
3,52,71,0
3,33,74,16
3,45,80,0
3,49,73,0
3,52,78,0
3,28,104,8
3,52,82,53
3,52,82,62
3,47,86,53
3,49,64,1
3,47,104,2
3,44,109,101
3,28,120,0
3,52,85,61
3,52,82,61
3,47,83,46
3,49,84,51
3,47,92,3
3,44,114,53
3,42,58,5
3,45,67,0
3,38,60,0
3,62,107,0
3,38,29,18
3,43,73,0
3,47,72,0
3,59,73,0
3,55,99,388
3,57,78,126
3,59,73,118
3,40,53,3
3,60,107,46
3,48,73,5
3,59,86,13
3,42,60,0
3,47,78,0
3,38,62,0
3,62,92,0
3,64,73,140
3,66,75,131
3,67,61,25
3,40,48,9
3,43,62,0
3,48,67,0
3,66,71,25
3,42,69,16
3,47,73,0
