track,note,velocity,time
1,28,101,1536
1,40,86,150
1,40,75,106
1,40,88,104
1,28,88,8
1,28,82,110
1,40,83,20
1,28,82,192
1,40,83,4
1,28,94,192
1,30,100,96
1,42,73,170
1,42,77,112
1,30,100,36
1,42,86,4
1,42,75,96
1,42,86,110
1,30,86,192
1,42,96,6
1,28,86,50
1,40,83,150
1,40,80,110
1,35,94,52
1,28,82,88
1,40,90,62
1,40,83,114
1,28,78,192
1,40,86,184
1,30,89,68
1,42,84,150
1,42,86,108
1,30,100,48
1,42,92,6
1,30,96,20
1,42,84,192
1,30,96,188
1,42,92,18
1,40,85,100
1,40,83,168
1,40,80,106
1,40,76,162
1,40,79,100
1,40,78,108
1,35,90,0
1,40,85,6
1,35,85,192
1,42,77,6
1,42,81,180
1,42,77,120
1,37,92,72
1,42,86,18
1,42,81,138
1,42,81,106
1,37,81,192
1,42,96,32
1,40,78,64
1,40,83,166
1,40,79,120
1,35,88,26
1,40,90,22
1,35,97,20
1,40,88,32
1,35,99,192
1,40,88,16
1,35,90,192
1,42,71,20
1,42,84,152
1,42,84,118
1,37,86,34
1,42,75,26
1,37,96,24
1,42,75,46
1,42,79,114
1,42,84,80
1,33,85,60
1,33,75,130
1,33,97,122
1,33,82,78
1,32,86,48
1,32,79,176
1,32,81,124
1,30,100,136
1,30,86,154
1,30,86,120
1,30,84,102
1,33,86,90
1,33,80,118
1,33,86,108
1,33,86,112
1,40,85,64
1,40,75,154
1,40,76,98
1,40,90,122
1,33,92,70
1,33,85,136
1,33,88,114
1,33,92,134
1,28,92,50
1,28,92,156
1,40,85,84
1,40,83,168
1,40,80,106
1,40,76,162
1,40,79,100
1,40,78,108
1,35,90,0
1,40,85,6
1,35,85,192
1,42,77,6
1,42,81,180
1,42,77,120
1,37,92,72
1,42,86,18
1,42,81,138
1,42,81,106
1,37,81,192
1,42,96,32
1,40,78,64
1,40,83,166
1,40,79,120
1,35,88,26
1,40,90,22
1,35,97,20
1,40,88,32
1,35,99,192
1,40,88,16
1,35,90,192
1,42,71,20
1,42,84,152
1,42,84,118
1,37,86,34
1,42,75,26
1,37,96,24
1,42,75,46
1,42,79,114
1,42,84,80
1,33,85,60
1,33,75,130
1,33,97,122
1,33,82,78
1,32,86,48
1,32,79,176
1,32,81,124
1,30,100,136
1,30,86,154
1,30,86,120
1,30,84,102
1,33,86,90
1,33,80,118
1,33,86,108
1,33,86,112
1,40,85,64
1,40,75,154
1,40,76,98
1,40,90,122
1,33,92,70
1,33,85,136
1,33,88,114
1,33,92,134
1,28,92,50
1,28,92,156
1,38,120,84
1,38,110,148
1,38,104,122
1,38,110,160
1,43,107,50
1,43,104,130
1,43,107,96
1,43,110,72
1,43,113,116
1,36,117,132
1,36,107,182
1,36,97,128
1,36,110,132
1,35,104,72
1,35,99,116
1,35,110,112
1,35,120,156
1,35,120,168
1,36,113,158
1,36,92,156
1,36,99,122
1,36,92,138
1,35,110,100
1,35,101,136
1,35,104,118
1,35,94,106
1,33,101,104
1,33,86,144
1,33,94,124
1,33,88,136
1,31,97,96
1,31,88,102
1,31,107,126
1,31,104,134
1,35,92,42
1,35,94,50
1,35,85,64
1,35,88,84
1,40,85,116
1,40,83,168
1,40,80,106
1,40,76,162
1,40,79,100
1,40,78,108
1,35,90,0
1,40,85,6
1,35,85,192
1,42,77,6
1,42,81,180
1,42,77,120
1,37,92,72
1,42,86,18
1,42,81,138
1,42,81,106
1,37,81,192
1,42,96,32
1,40,78,64
1,40,83,166
1,40,79,120
1,35,88,26
1,40,90,22
1,35,97,20
1,40,88,32
1,35,99,192
1,40,88,16
1,35,90,192
1,42,71,20
1,42,84,152
1,42,84,118
1,37,86,34
1,42,75,26
1,37,96,24
1,42,75,46
1,42,79,114
1,42,84,80
1,33,85,60
1,33,75,130
1,33,97,122
1,33,82,78
1,32,86,48
1,32,79,176
1,32,81,124
1,30,100,136
1,30,86,154
1,30,86,120
1,30,84,102
1,33,86,90
1,33,80,118
1,33,86,108
1,33,86,112
1,40,85,64
1,40,75,154
1,40,76,98
1,40,90,122
1,33,92,70
1,33,85,136
1,33,88,114
1,33,92,134
1,28,92,50
1,28,92,156
1,40,85,84
1,40,83,168
1,40,80,106
1,40,76,162
1,40,79,100
1,40,78,108
1,35,90,0
1,40,85,6
1,35,85,192
1,42,77,6
1,42,81,180
1,42,77,120
1,37,92,72
1,42,86,18
1,42,81,138
1,42,81,106
1,37,81,192
1,42,96,32
1,40,78,64
1,40,83,166
1,40,79,120
1,35,88,26
1,40,90,22
1,35,97,20
1,40,88,32
1,35,99,192
1,40,88,16
1,35,90,192
1,42,71,20
1,42,84,152
1,42,84,118
1,37,86,34
1,42,75,26
1,37,96,24
1,42,75,46
1,42,79,114
1,42,84,80
1,33,85,60
1,33,75,130
1,33,97,122
1,33,82,78
1,32,86,48
1,32,79,176
1,32,81,124
1,30,100,136
1,30,86,154
1,30,86,120
1,30,84,102
1,33,86,90
1,33,80,118
1,33,86,108
1,33,86,112
1,40,85,64
1,40,75,154
1,40,76,98
1,40,90,122
1,33,92,70
1,33,85,136
1,33,88,114
1,33,92,134
1,28,92,50
1,28,92,156
1,40,92,84
1,40,94,126
1,40,99,138
1,35,104,112
1,40,92,20
1,40,85,154
1,40,90,122
1,40,83,94
1,42,81,102
1,42,79,120
1,42,84,114
1,37,96,4
1,42,96,44
1,42,89,70
1,42,84,112
1,42,84,114
1,42,84,104
1,42,75,108
1,40,90,142
1,40,83,126
1,40,85,128
1,35,104,132
1,28,94,112
1,40,99,92
1,40,86,108
1,35,97,2
1,40,97,24
1,42,79,78
1,42,92,160
1,42,81,128
1,42,104,120
1,42,96,104
1,42,96,128
1,42,96,136
1,42,96,124
1,42,89,128
1,40,101,146
1,40,101,168
1,40,90,122
1,35,107,60
1,28,86,82
1,35,101,136
1,40,97,16
1,35,94,192
1,40,88,6
1,35,92,192
1,42,96,4
1,42,96,172
1,42,100,130
1,42,89,106
1,42,104,128
1,42,92,88
1,42,96,130
1,42,92,128
1,42,89,102
1,42,96,116
1,28,110,120
2,71,116,1158
2,83,100,370
2,68,58,2
2,59,62,0
2,63,56,0
2,64,63,94
2,85,105,0
2,69,53,0
2,61,41,0
2,78,105,1868
2,81,81,0
2,85,100,210
2,88,84,232
2,87,85,264
2,59,57,2
2,83,93,0
2,63,46,0
2,68,41,0
2,85,110,8
2,61,50,6
2,64,64,0
2,69,62,0
2,78,100,1850
2,81,76,178
2,85,100,200
2,88,78,238
2,87,92,272
2,56,58,6
2,59,74,0
2,63,50,0
2,52,57,0
2,64,75,68
2,61,50,0
2,54,73,0
2,57,60,0
2,59,67,56
2,63,59,0
2,56,58,0
2,52,54,0
2,61,50,56
2,64,69,0
2,57,61,0
2,54,69,0
2,61,65,84
2,64,82,0
2,69,78,0
2,63,71,64
2,68,32,0
2,59,62,0
2,61,69,80
2,66,65,0
2,57,70,0
2,64,64,1408
2,56,54,126
2,59,72,0
2,64,65,0
2,57,72,2
2,61,52,0
2,52,70,46
2,83,88,80
2,56,58,0
2,59,74,0
2,63,50,0
2,52,57,0
2,85,71,68
2,64,75,0
2,61,50,0
2,54,73,0
2,57,60,0
2,80,73,8
2,81,69,192
2,83,75,188
2,88,58,2
2,87,49,192
2,83,64,56
2,59,67,0
2,63,59,0
2,56,58,0
2,52,54,0
2,85,80,56
2,61,50,0
2,64,69,0
2,57,61,0
2,54,69,0
2,88,69,10
2,87,67,384
2,85,50,84
2,61,65,0
2,64,82,0
2,69,78,0
2,83,76,64
2,63,71,0
2,68,32,0
2,59,62,0
2,81,76,10
2,61,69,0
2,66,65,0
2,57,70,0
2,80,59,1120
2,64,64,252
2,76,53,8
2,56,54,126
2,59,72,0
2,64,65,0
2,57,72,2
2,61,52,0
2,52,70,46
2,62,56,80
2,69,63,0
2,66,54,0
2,86,103,8
2,71,68,22
2,67,69,0
2,62,25,0
2,83,69,2
2,79,95,730
2,81,74,250
2,83,69,224
2,64,49,12
2,84,103,80
2,72,69,16
2,83,82,30
2,62,58,16
2,71,74,0
2,66,56,0
2,86,88,4
2,88,69,268
2,90,71,248
2,91,57,60
2,72,63,2
2,67,58,0
2,64,44,0
2,90,67,38
2,62,58,28
2,71,69,0
2,66,65,0
2,88,58,732
2,86,62,340
2,88,62,46
2,60,53,20
2,64,60,0
2,69,62,0
2,86,86,54
2,59,61,8
2,67,75,0
2,62,72,0
2,87,85,28
2,71,56,8
2,66,54,0
2,63,50,0
2,83,74,12
2,56,58,0
2,59,74,0
2,63,50,0
2,52,57,0
2,85,55,8
2,64,75,0
2,61,50,0
2,54,73,0
2,57,60,0
2,83,70,34
2,59,67,0
2,63,59,0
2,56,58,0
2,52,54,0
2,85,64,56
2,61,50,0
2,64,69,0
2,57,61,0
2,54,69,0
2,88,64,0
2,87,54,384
2,88,56,84
2,61,65,0
2,64,82,0
2,69,78,0
2,87,50,64
2,63,71,0
2,68,32,0
2,59,62,0
2,85,62,1106
2,83,68,150
2,85,77,80
2,61,69,0
2,66,65,0
2,57,70,0
2,64,64,1382
2,88,62,8
2,83,58,126
2,56,54,0
2,59,72,0
2,64,65,0
2,57,72,2
2,61,52,0
2,81,58,768
2,52,70,2
2,56,58,80
2,59,74,0
2,63,50,0
2,52,57,0
2,64,75,68
2,61,50,0
2,54,73,0
2,57,60,0
2,59,67,56
2,63,59,0
2,56,58,0
2,52,54,0
2,61,50,56
2,64,69,0
2,57,61,0
2,54,69,0
2,61,65,84
2,64,82,0
2,69,78,0
2,63,71,64
2,68,32,0
2,59,62,0
2,61,69,80
2,66,65,0
2,57,70,0
2,64,64,1408
2,56,54,126
2,59,72,0
2,64,65,0
2,57,72,2
2,61,52,0
2,52,70,46
2,68,58,80
2,83,100,0
2,59,62,0
2,63,56,0
2,64,63,94
2,85,105,0
2,69,53,0
2,61,41,0
2,78,105,1868
2,81,81,0
2,85,100,210
2,88,84,232
2,87,85,264
2,59,57,2
2,83,93,0
2,63,46,0
2,68,41,0
2,85,110,8
2,61,50,6
2,64,64,0
2,69,62,0
2,78,100,1850
2,81,76,178
2,85,100,200
2,88,78,238
2,87,92,272
2,68,58,6
2,83,100,0
2,59,62,0
2,63,56,0
2,64,63,94
2,85,105,0
2,69,53,0
2,61,41,0
2,78,105,1868
2,81,81,0
2,85,100,210
2,88,84,232
2,87,85,264
2,75,56,2
2,80,64,0
2,87,55,0
2,71,50,0
2,64,51,0
3,71,100,1536
3,63,92,0
3,59,86,0
3,68,100,0
3,52,96,0
3,71,100,20
3,66,112,0
3,52,68,272
3,56,62,0
3,63,85,24
3,68,85,0
3,59,68,0
3,54,61,14
3,66,87,0
3,69,90,0
3,61,81,0
3,49,62,0
3,57,70,0
3,64,96,282
3,69,93,0
3,69,118,368
3,71,109,110
3,73,112,32
3,75,108,384
3,76,100,2
3,78,117,384
3,63,94,16
3,68,97,0
3,71,94,0
3,52,84,0
3,59,69,0
3,71,98,104
3,66,104,0
3,68,92,46
3,64,94,0
3,71,94,0
3,52,75,0
3,59,68,0
3,66,104,124
3,71,84,0
3,64,98,32
3,45,77,18
3,64,80,0
3,61,77,0
3,57,82,0
3,61,77,250
3,66,79,0
3,64,100,866
3,64,80,330
3,57,76,0
3,61,76,0
3,56,79,142
3,40,87,0
3,59,98,0
3,63,83,0
3,40,83,154
3,56,100,76
3,59,70,26
3,63,87,48
3,57,78,20
3,61,72,0
3,64,81,0
3,42,89,0
3,57,74,0
3,64,93,56
3,61,97,80
3,40,84,24
3,59,96,0
3,63,83,0
3,56,83,0
3,40,87,74
3,56,97,48
3,59,90,48
3,63,92,52
3,42,83,16
3,57,88,0
3,61,83,0
3,64,87,0
3,64,87,70
3,61,92,0
3,57,86,0
3,42,77,0
3,61,85,670
3,64,90,0
3,69,87,0
3,57,82,656
3,64,81,0
3,61,77,0
3,45,78,0
3,44,85,78
3,56,83,0
3,59,93,0
3,63,81,0
3,44,92,100
3,56,108,142
3,61,87,250
3,54,85,0
3,42,100,0
3,57,100,0
3,45,94,38
3,57,84,0
3,64,88,0
3,61,83,0
3,40,84,16
3,56,71,0
3,59,83,0
3,64,79,0
3,45,82,26
3,57,88,0
3,61,81,0
3,64,86,0
3,40,84,8
3,56,87,0
3,52,86,0
3,59,90,0
3,40,93,54
3,52,81,0
3,59,87,0
3,56,83,0
3,56,79,96
3,40,87,0
3,59,98,0
3,63,83,0
3,40,83,154
3,56,100,76
3,59,70,26
3,63,87,48
3,57,78,20
3,61,72,0
3,64,81,0
3,42,89,0
3,57,74,0
3,64,93,56
3,61,97,80
3,40,84,24
3,59,96,0
3,63,83,0
3,56,83,0
3,40,87,74
3,56,97,48
3,59,90,48
3,63,92,52
3,42,83,16
3,57,88,0
3,61,83,0
3,64,87,0
3,64,87,70
3,61,92,0
3,57,86,0
3,42,77,0
3,61,85,670
3,64,90,0
3,69,87,0
3,57,82,656
3,64,81,0
3,61,77,0
3,45,78,0
3,44,85,78
3,56,83,0
3,59,93,0
3,63,81,0
3,44,92,100
3,56,108,142
3,61,87,250
3,54,85,0
3,42,100,0
3,57,100,0
3,45,94,38
3,57,84,0
3,64,88,0
3,61,83,0
3,40,84,16
3,56,71,0
3,59,83,0
3,64,79,0
3,45,82,26
3,57,88,0
3,61,81,0
3,64,86,0
3,40,84,8
3,56,87,0
3,52,86,0
3,59,90,0
3,40,93,54
3,52,81,0
3,59,87,0
3,56,83,0
3,54,66,96
3,57,75,0
3,50,68,0
3,74,115,8
3,50,37,22
3,55,81,0
3,59,80,0
3,71,81,2
3,67,107,730
3,69,86,250
3,71,81,224
3,52,61,12
3,72,115,80
3,60,81,16
3,71,94,30
3,54,68,16
3,59,86,0
3,50,70,0
3,74,100,4
3,76,81,268
3,78,83,248
3,79,69,60
3,52,56,2
3,55,70,0
3,60,75,0
3,78,79,38
3,54,77,28
3,59,81,0
3,50,70,0
3,76,70,732
3,74,74,340
3,76,74,46
3,57,74,20
3,52,72,0
3,48,65,0
3,74,98,54
3,50,84,8
3,55,87,0
3,47,73,0
3,75,97,28
3,51,62,8
3,54,66,0
3,59,68,0
3,56,79,12
3,40,87,0
3,59,98,0
3,63,83,0
3,40,83,154
3,56,100,76
3,59,70,26
3,63,87,48
3,57,78,20
3,61,72,0
3,64,81,0
3,42,89,0
3,57,74,0
3,64,93,56
3,61,97,80
3,40,84,24
3,59,96,0
3,63,83,0
3,56,83,0
3,40,87,74
3,56,97,48
3,59,90,48
3,63,92,52
3,42,83,16
3,57,88,0
3,61,83,0
3,64,87,0
3,64,87,70
3,61,92,0
3,57,86,0
3,42,77,0
3,61,85,670
3,64,90,0
3,69,87,0
3,57,82,656
3,64,81,0
3,61,77,0
3,45,78,0
3,44,85,78
3,56,83,0
3,59,93,0
3,63,81,0
3,44,92,100
3,56,108,142
3,61,87,250
3,54,85,0
3,42,100,0
3,57,100,0
3,45,94,38
3,57,84,0
3,64,88,0
3,61,83,0
3,40,84,16
3,56,71,0
3,59,83,0
3,64,79,0
3,45,82,26
3,57,88,0
3,61,81,0
3,64,86,0
3,40,84,8
3,56,87,0
3,52,86,0
3,59,90,0
3,40,93,54
3,52,81,0
3,59,87,0
3,56,83,0
3,56,79,96
3,40,87,0
3,59,98,0
3,63,83,0
3,40,83,154
3,56,100,76
3,59,70,26
3,63,87,48
3,57,78,20
3,61,72,0
3,64,81,0
3,42,89,0
3,57,74,0
3,64,93,56
3,61,97,80
3,40,84,24
3,59,96,0
3,63,83,0
3,56,83,0
3,40,87,74
3,56,97,48
3,59,90,48
3,63,92,52
3,42,83,16
3,57,88,0
3,61,83,0
3,64,87,0
3,64,87,70
3,61,92,0
3,57,86,0
3,42,77,0
3,61,85,670
3,64,90,0
3,69,87,0
3,57,82,656
3,64,81,0
3,61,77,0
3,45,78,0
3,44,85,78
3,56,83,0
3,59,93,0
3,63,81,0
3,44,92,100
3,56,108,142
3,61,87,250
3,54,85,0
3,42,100,0
3,57,100,0
3,45,94,38
3,57,84,0
