track,note,velocity,time
0,57,82,834
0,49,82,3
0,36,77,13
0,53,77,0
0,41,77,0
0,41,86,19
0,65,77,18
0,73,77,99
0,77,77,3
0,36,77,13
0,74,73,33
0,79,77,24
0,75,77,5
0,73,77,104
0,74,77,10
0,36,68,15
0,77,77,11
0,74,77,86
0,70,77,58
0,65,77,26
0,63,77,151
0,36,77,6
0,70,77,1
0,70,77,8
0,61,77,3
0,70,77,9
0,36,77,3
0,62,77,1
0,73,86,230
0,82,68,7
0,74,86,25
0,36,68,96
0,26,68,243
0,77,68,2
0,80,68,5
0,72,61,5
0,36,77,63
0,27,68,215
0,75,68,47
0,79,77,4
0,36,77,30
0,28,61,236
0,73,61,3
0,77,61,7
0,74,68,88
0,29,77,5
0,49,86,0
0,36,77,7
0,53,77,0
0,41,77,0
0,65,77,227
0,73,77,99
0,77,77,3
0,36,68,13
0,74,73,9
0,79,77,0
0,75,77,5
0,73,77,104
0,74,77,10
0,36,77,15
0,77,77,11
0,74,77,86
0,70,77,58
0,65,77,26
0,63,77,151
0,36,77,6
0,70,77,1
0,75,44,39
0,70,77,14
0,61,77,3
0,70,77,61
0,36,77,3
0,85,61,0
0,62,77,0
0,86,61,14
0,85,77,100
0,36,77,1
0,41,48,11
0,41,77,156
0,86,61,0
0,39,6,2
0,36,77,117
0,85,77,2
0,39,52,11
0,84,52,9
0,39,61,21
0,36,77,222
0,82,68,2
0,38,61,2
0,79,52,211
0,36,68,9
0,57,77,76
0,77,68,5
0,38,82,0
0,36,68,0
0,53,77,0
0,41,77,0
0,29,77,2
0,65,77,214
0,73,77,99
0,77,77,3
0,36,77,13
0,74,73,33
0,79,77,0
0,75,77,5
0,73,77,104
0,74,77,10
0,36,77,15
0,77,77,11
0,74,77,86
0,70,77,58
0,65,77,13
0,63,77,151
0,36,77,6
0,70,77,1
0,70,77,3
0,61,77,3
0,82,40,1
0,70,77,61
0,36,77,3
0,62,77,1
0,85,61,4
0,89,61,14
0,86,44,7
0,89,36,18
0,26,52,118
0,91,77,7
0,87,77,5
0,36,77,15
0,85,40,17
0,26,61,7
0,27,61,188
0,87,77,0
0,91,77,0
0,36,77,20
0,89,52,30
0,85,68,19
0,27,68,12
0,86,68,20
0,28,77,7
0,82,61,16
0,36,77,15
0,80,77,54
0,28,77,6
0,57,68,5
0,48,68,5
0,77,61,5
0,50,68,2
0,29,77,9
0,49,86,5
0,40,82,5
0,36,77,0
0,53,77,0
0,41,77,0
0,65,77,70
0,73,77,99
0,77,77,3
0,36,77,13
0,74,73,33
0,79,77,1
0,75,77,5
0,73,77,104
0,74,77,10
0,36,77,15
0,77,77,11
0,74,77,73
0,70,77,58
0,65,77,8
0,63,77,151
0,36,77,6
0,70,77,1
0,70,77,1
0,61,77,3
0,70,77,48
0,36,77,3
0,62,77,1
0,77,68,195
0,80,77,5
0,70,48,7
0,40,67,3
0,41,77,22
0,53,77,0
0,29,61,62
0,40,71,0
0,36,86,0
0,53,77,31
0,41,77,2
0,29,86,65
0,79,68,14
0,75,68,2
0,70,68,9
0,40,76,0
0,53,77,13
0,41,77,5
0,29,77,38
0,77,68,4
0,73,68,7
0,40,81,0
0,36,77,0
0,53,77,17
0,75,6,0
0,41,77,5
0,74,68,67
0,29,77,2
0,70,61,9
0,74,107,3
0,40,86,0
0,53,77,20
0,41,77,7
0,68,68,44
0,74,112,2
0,29,86,0
0,40,86,0
0,36,86,0
0,53,77,8
0,41,77,7
0,65,30,14
0,33,61,9
0,40,91,0
0,73,91,2
0,53,77,4
0,41,77,3
0,34,77,77
0,70,77,9
0,57,77,0
0,49,77,5
0,42,44,0
0,36,86,0
0,46,76,4
0,74,107,0
0,46,76,24
0,70,61,2
0,42,48,2
0,72,107,7
0,65,76,1
0,62,76,7
0,56,64,2
0,74,77,0
0,42,61,1
0,40,82,0
0,58,68,4
0,68,68,0
0,70,100,0
0,70,77,2
0,65,77,7
0,65,84,37
0,58,68,5
0,34,61,2
0,42,52,2
0,36,77,0
0,62,76,3
0,67,87,0
0,56,68,4
0,29,77,118
0,41,93,5
0,36,77,8
0,42,48,0
0,70,107,4
0,42,52,134
0,41,84,1
0,70,112,11
0,65,84,156
0,56,68,7
0,62,84,2
0,68,68,2
0,42,61,0
0,40,82,0
0,58,68,0
0,74,77,2
0,65,61,10
0,70,68,2
0,42,61,27
0,62,64,6
0,29,77,4
0,65,76,2
0,58,68,3
0,56,68,4
0,73,112,14
0,42,52,4
0,36,86,0
0,34,68,2
0,46,76,5
0,42,44,10
0,46,76,2
0,65,84,5
0,42,61,0
0,40,82,0
0,56,68,2
0,58,68,4
0,62,76,2
0,74,77,0
0,68,68,2
0,70,68,0
0,65,61,2
0,34,77,21
0,42,61,3
0,36,77,0
0,56,76,6
0,65,84,7
0,62,64,2
0,58,84,5
0,36,68,2
0,42,61,0
0,41,84,7
0,29,77,3
0,74,107,128
0,42,48,10
0,41,93,4
0,29,77,25
0,74,107,157
0,65,84,7
0,56,68,4
0,42,77,2
0,40,82,0
0,62,84,3
0,58,76,1
0,31,68,4
0,74,77,0
0,70,77,2
0,68,77,0
0,65,61,2
0,62,76,30
0,65,93,0
0,58,68,3
0,46,77,0
0,73,83,2
0,29,68,2
0,56,76,0
0,46,93,0
0,42,48,4
0,36,77,0
0,34,77,7
0,74,112,5
0,42,40,161
0,46,93,4
0,72,91,19
0,65,84,170
0,62,84,7
0,42,61,1
0,40,82,0
0,56,76,3
0,58,68,5
0,70,91,5
0,74,77,4
0,68,68,5
0,70,61,5
0,65,61,2
0,42,48,7
0,67,91,2
0,65,84,5
0,56,76,2
0,58,68,3
0,34,68,0
0,62,84,4
0,42,61,7
0,36,68,0
0,41,93,4
0,70,100,2
0,29,77,5
0,42,52,2
0,41,93,2
0,74,77,0
0,65,84,0
0,68,68,2
0,42,68,3
0,40,66,0
0,62,76,2
0,70,68,0
0,65,61,2
0,56,68,2
0,58,76,5
0,67,100,14
0,29,77,58
0,42,61,2
0,36,77,0
0,65,93,10
0,56,68,2
0,65,100,3
0,58,76,2
0,62,68,2
0,36,77,103
0,42,68,0
0,34,68,1
0,46,84,2
0,42,61,145
0,46,93,8
0,42,61,2
0,40,82,0
0,65,84,2
0,62,84,2
0,74,77,3
0,56,68,2
0,58,68,2
0,68,61,0
0,70,77,5
0,65,61,5
0,34,68,60
0,42,61,4
0,62,76,1
0,65,76,5
0,56,68,4
0,58,76,5
0,26,68,90
0,38,84,0
0,42,61,9
0,36,77,0
0,26,77,113
0,38,76,10
0,42,77,17
0,27,61,5
0,65,68,7
0,62,68,2
0,56,60,5
0,74,77,0
0,70,77,2
0,68,77,5
0,39,68,0
0,65,61,2
0,58,64,2
0,42,77,0
0,40,82,0
0,28,77,23
0,40,84,21
0,40,73,15
0,46,86,0
0,36,68,0
0,29,77,2
0,41,93,11
0,36,86,7
0,42,52,0
0,72,112,5
0,41,84,123
0,42,48,10
0,68,84,4
0,63,76,3
0,72,107,2
0,75,68,2
0,42,68,2
0,40,82,0
0,72,84,5
0,72,77,0
0,67,61,5
0,53,76,0
0,69,93,9
0,29,68,7
0,43,84,10
0,74,76,4
0,70,84,0
0,65,76,5
0,42,48,0
0,41,22,30
0,24,61,10
0,36,84,7
0,72,112,0
0,72,68,5
0,42,68,1
0,36,77,0
0,68,68,3
0,69,84,54
0,70,83,163
0,42,52,7
0,48,76,16
0,42,77,6
0,40,82,0
0,72,107,1
0,75,68,0
0,72,68,3
0,67,61,0
0,69,61,4
0,74,76,3
0,63,76,4
0,70,84,7
0,70,83,2
0,40,82,0
0,42,52,0
0,36,77,0
0,24,68,9
0,48,76,0
0,36,77,3
0,42,61,0
0,72,91,4
0,29,77,12
0,75,68,0
0,72,76,5
0,67,60,5
0,41,93,2
0,42,61,166
0,53,76,7
0,72,112,0
0,74,84,0
0,42,77,3
0,40,82,0
0,70,84,0
0,65,76,4
0,70,91,0
0,48,76,12
0,75,61,4
0,69,61,0
0,67,61,3
0,46,37,0
0,72,61,2
0,42,61,37
0,68,84,8
0,63,84,0
0,72,107,4
0,72,84,3
0,29,61,4
0,69,93,33
0,42,61,28
0,36,77,0
0,41,102,18
0,42,61,8
0,70,76,3
0,29,68,0
0,74,76,7
0,50,77,0
0,63,68,1
0,65,91,5
0,33,68,9
0,53,68,0
0,68,84,5
0,40,91,0
0,42,68,0
0,36,77,0
0,75,68,2
0,67,52,3
0,72,84,0
0,72,68,2
0,69,61,3
0,67,107,0
0,63,37,7
0,69,102,18
0,65,83,11
0,53,84,0
0,46,86,8
0,40,82,0
0,48,77,20
0,57,77,7
0,46,93,13
0,58,102,5
0,74,77,0
0,34,77,2
0,42,77,0
0,36,86,0
0,70,77,2
0,68,68,2
0,70,91,0
0,49,77,2
0,65,61,0
0,45,77,0
0,70,76,21
0,70,75,19
0,73,84,81
0,77,64,16
0,36,86,14
0,74,93,5
0,70,79,0
0,70,107,123
0,75,102,3
0,79,93,4
0,77,56,103
0,36,86,6
0,78,22,16
0,73,68,9
0,74,84,26
0,70,64,91
0,70,91,7
0,70,84,193
0,67,91,3
0,63,102,2
0,36,77,4
0,65,83,14
0,61,60,0
0,70,76,65
0,62,68,4
0,69,100,5
0,36,77,20
0,47,40,5
0,65,40,2
0,41,84,3
0,53,76,4
0,29,68,0
0,65,64,5
0,85,61,7
0,86,53,10
0,41,84,81
0,65,76,3
0,65,48,0
0,29,68,2
0,47,44,0
0,53,76,2
0,69,107,10
0,36,77,10
0,65,76,7
0,41,84,4
0,53,76,3
0,65,52,7
0,29,77,2
0,47,44,2
0,65,61,63
0,65,76,0
0,41,84,7
0,29,77,4
0,53,76,3
0,65,87,2
0,47,61,2
0,36,77,15
0,65,76,68
0,29,68,2
0,65,52,5
0,41,76,7
0,47,61,0
0,53,76,4
0,85,52,5
0,65,76,76
0,65,61,9
0,41,84,3
0,53,68,2
0,47,77,0
0,29,77,0
0,74,107,4
0,84,30,3
0,36,77,19
0,73,91,79
0,29,61,7
0,65,76,0
0,53,68,7
0,41,93,4
0,47,77,0
0,65,61,5
0,82,52,2
0,34,68,5
0,74,107,5
0,46,76,0
0,82,77,9
0,42,68,26
0,36,77,0
0,58,54,114
0,56,50,2
0,53,62,0
0,72,107,0
0,46,76,2
0,62,62,3
0,34,97,18
0,42,48,4
0,74,77,110
0,68,61,4
0,65,52,5
0,65,84,2
0,70,52,3
0,62,84,2
0,62,87,2
0,58,76,3
0,58,78,0
0,56,76,2
0,70,107,0
0,82,68,3
0,56,78,2
0,34,104,2
0,53,69,3
0,42,77,0
0,38,82,0
0,67,91,4
0,52,58,7
0,34,77,3
0,61,62,2
0,33,79,0
0,65,84,2
0,55,54,3
0,62,64,2
0,58,68,2
0,56,76,0
0,42,52,10
0,36,77,0
0,56,62,113
0,62,62,2
0,58,62,7
0,41,84,0
0,34,97,0
0,53,69,5
0,29,68,2
0,82,68,2
0,70,112,2
0,36,77,12
0,42,61,0
0,41,84,58
0,42,52,40
0,70,112,4
0,65,84,127
0,74,68,2
0,68,52,4
0,65,61,3
0,62,84,2
0,70,52,2
0,56,68,3
0,58,68,4
0,42,68,4
0,38,82,0
0,80,52,0
0,29,68,23
0,65,68,5
0,56,64,5
0,58,76,2
0,62,76,5
0,73,107,0
0,85,68,2
0,38,82,10
0,42,61,0
0,34,77,2
0,46,76,0
0,86,61,3
0,42,52,6
0,36,68,0
0,46,68,11
0,34,88,0
0,80,44,2
0,62,69,0
0,53,54,2
0,56,62,0
0,42,61,0
0,58,62,2
0,74,77,40
0,65,68,2
0,68,68,2
0,70,77,3
0,82,77,0
0,65,84,2
0,62,84,0
0,56,68,2
0,58,76,5
0,34,97,0
0,42,52,6
0,38,91,0
0,53,69,0
0,62,87,2
0,58,87,7
0,56,78,0
0,80,61,2
0,52,62,0
0,65,68,0
0,62,64,2
0,33,79,0
0,58,68,3
0,34,86,2
0,56,68,0
0,61,62,0
0,55,62,0
0,42,61,0
0,36,77,0
0,56,54,0
0,29,68,2
0,58,62,0
0,34,97,5
0,53,62,2
0,41,84,3
0,77,61,0
0,62,69,0
0,36,77,1
0,42,52,0
0,29,77,71
0,74,107,14
0,77,61,0
0,80,61,7
0,41,84,0
0,42,68,5
0,70,44,7
0,31,68,3
0,74,77,0
0,65,84,0
0,56,76,5
0,68,68,0
0,42,68,3
0,38,82,0
0,58,76,1
0,65,61,0
0,70,61,3
0,74,112,0
0,62,84,2
0,29,68,23
0,73,91,5
0,65,76,4
0,56,68,5
0,38,82,2
0,46,77,0
0,47,26,0
0,62,76,3
0,58,64,4
0,79,68,0
0,75,68,6
0,34,68,2
0,73,44,5
0,46,84,0
0,42,61,5
0,36,77,0
0,77,61,2
0,74,107,0
0,53,54,155
0,34,79,0
0,62,69,2
0,42,61,2
0,46,84,3
0,56,50,2
0,74,68,0
0,58,50,2
0,72,112,5
0,65,84,5
0,56,76,2
0,53,69,0
0,42,77,2
0,38,82,0
0,58,68,2
0,70,68,0
0,56,87,0
0,34,97,2
0,62,76,3
0,62,87,2
0,70,107,2
0,74,68,3
0,58,78,2
0,68,61,5
0,65,61,2
0,70,68,5
0,73,61,9
0,67,83,5
0,61,69,2
0,34,68,3
0,42,61,2
0,36,68,0
0,52,50,1
0,65,76,0
0,62,76,4
0,77,61,0
0,55,58,3
0,56,64,2
0,33,79,0
0,58,64,3
0,74,48,4
0,29,77,0
0,56,62,3
0,62,78,2
0,36,86,3
0,42,61,0
0,58,62,2
0,70,112,1
0,41,84,0
0,53,62,5
0,34,104,0
0,70,48,0
0,41,84,2
0,42,68,4
0,73,77,5
0,77,61,3
0,65,84,7
0,56,60,7
0,42,77,0
0,38,82,0
0,58,68,5
0,68,86,2
0,74,77,5
0,62,76,0
0,70,77,4
0,65,61,2
0,74,77,3
0,67,100,2
0,75,68,56
0,38,82,3
0,42,77,0
0,79,77,0
0,65,76,0
0,56,64,5
0,29,77,2
0,65,100,2
0,58,76,0
0,62,76,3
0,77,36,56
0,46,84,9
0,42,68,0
0,36,77,0
0,34,77,2
0,73,36,2
0,74,61,19
0,42,68,24
0,34,88,6
0,70,40,0
0,58,54,7
0,56,46,2
0,62,62,3
0,46,76,0
0,53,54,2
0,42,68,20
0,38,82,0
0,62,87,7
0,58,78,3
0,74,77,2
0,68,68,0
0,65,61,2
0,56,78,0
0,65,84,3
0,53,78,2
0,68,68,0
0,56,68,0
0,34,104,3
0,70,77,0
0,58,68,2
0,62,84,2
0,42,61,3
0,36,68,0
0,70,68,2
0,61,62,4
0,34,61,0
0,52,58,2
0,55,58,0
0,62,76,0
0,33,88,3
0,65,76,0
0,56,64,0
0,58,68,0
0,36,77,2
0,42,61,0
0,38,84,0
0,56,62,0
0,62,62,0
0,58,69,0
0,34,104,3
0,53,78,2
0,26,61,2
0,42,68,63
0,26,77,2
0,38,93,16
0,42,68,178
0,38,73,0
0,27,48,5
0,39,84,4
0,65,76,7
0,74,77,3
0,62,76,2
0,65,68,2
0,56,64,3
0,68,77,1
0,58,76,0
0,70,77,0
0,28,61,0
0,38,82,2
0,46,77,0
0,40,93,5
0,42,68,3
0,36,77,0
0,72,112,8
0,29,61,5
0,41,93,0
0,41,84,72
0,42,68,16
0,80,77,16
0,41,97,3
0,60,62,7
0,53,62,2
0,57,62,5
0,63,58,4
0,68,84,118
0,63,76,2
0,72,84,5
0,81,61,2
0,42,68,1
0,38,82,0
0,53,68,4
0,63,78,2
0,57,78,5
0,75,68,2
0,72,112,2
0,70,61,3
0,53,69,0
0,41,104,0
0,69,102,2
0,60,87,2
0,72,68,0
0,67,61,5
0,43,68,28
0,62,69,2
0,89,77,0
0,40,79,0
0,52,58,3
0,29,77,0
0,42,77,0
0,36,68,0
0,59,69,3
0,60,58,7
0,63,62,4
0,36,76,0
0,57,50,5
0,53,62,7
0,41,97,2
0,80,68,0
0,36,77,3
0,42,77,0
0,36,61,2
0,74,84,2
0,65,76,5
0,70,93,5
0,72,107,2
0,36,84,63
