track,note,velocity,time
2,74,61,3337
2,68,54,1
2,70,61,1
2,65,61,2
2,68,54,156
2,74,61,0
2,65,48,2
2,70,54,1
2,74,61,160
2,68,54,1
2,70,54,0
2,65,48,2
2,74,61,159
2,70,61,0
2,68,61,1
2,65,48,0
2,74,61,157
2,68,54,1
2,70,48,1
2,65,48,1
2,74,61,154
2,68,54,1
2,70,54,1
2,65,48,0
2,74,61,159
2,68,48,1
2,70,61,1
2,65,48,1
2,74,61,156
2,70,61,1
2,68,61,1
2,65,48,0
2,75,54,157
2,72,61,2
2,67,48,1
2,75,54,153
2,72,54,0
2,67,48,2
2,69,48,0
2,75,48,156
2,69,48,1
2,67,48,1
2,72,48,1
2,75,54,152
2,67,41,1
2,72,54,0
2,69,48,1
2,74,61,58
2,70,61,1
2,68,54,1
2,65,48,1
2,65,31,393
2,65,38,29
2,65,41,31
2,65,48,27
2,65,41,30
2,65,48,28
2,65,48,29
2,74,61,121
2,68,48,1
2,65,41,1
2,70,41,1
2,74,54,165
2,68,41,1
2,65,48,1
2,70,41,0
2,74,61,164
2,65,54,0
2,68,54,1
2,70,61,0
2,74,61,69
2,68,54,1
2,65,48,1
2,70,48,0
2,74,54,171
2,68,48,1
2,65,48,1
2,70,54,1
2,68,69,161
2,74,61,1
2,70,61,1
2,65,48,0
2,74,61,158
2,65,48,0
2,68,54,1
2,70,61,1
2,74,61,49
2,65,54,1
2,68,61,1
2,70,61,1
2,75,54,157
2,70,48,1
2,72,54,1
2,67,48,1
2,75,54,154
2,70,41,1
2,72,61,1
2,67,41,1
2,75,54,151
2,72,48,1
2,69,48,1
2,67,48,0
2,75,61,46
2,72,54,1
2,69,54,0
2,67,48,2
2,74,61,55
2,68,61,1
2,70,61,2
2,65,54,0
2,65,11,405
2,64,9,5
2,65,31,26
2,65,41,31
2,65,54,23
2,65,54,23
2,65,61,25
2,65,61,26
2,74,61,121
2,68,54,1
2,65,41,2
2,70,48,1
2,74,61,164
2,68,48,1
2,70,48,1
2,65,41,1
2,74,61,161
2,68,61,1
2,70,61,1
2,65,54,1
2,74,61,145
2,68,54,1
2,70,41,1
2,65,48,1
2,74,61,160
2,68,54,1
2,70,54,1
2,65,48,1
2,74,69,158
2,68,61,1
2,65,54,0
2,70,54,2
2,75,54,148
2,72,54,0
2,69,41,1
2,67,48,1
2,75,54,162
2,72,61,1
2,67,54,1
2,69,48,1
2,75,48,153
2,69,54,1
2,72,54,0
2,67,54,1
2,74,61,47
2,70,54,1
2,68,54,1
2,65,54,1
2,65,31,396
2,65,34,28
2,65,38,30
2,65,48,27
2,65,54,29
2,65,54,25
2,65,54,29
2,67,61,32
2,67,38,46
2,67,48,32
2,67,48,29
2,70,54,26
2,70,61,26
2,76,61,116
2,70,48,2
2,72,54,1
2,67,48,1
2,76,61,161
2,72,54,0
2,70,41,2
2,67,48,1
2,76,61,160
2,67,54,1
2,72,54,1
2,70,54,1
2,76,61,166
2,70,61,1
2,72,61,1
2,67,48,1
2,76,61,160
2,67,54,1
2,70,61,1
2,72,61,1
2,76,61,154
2,70,61,2
2,72,61,1
2,67,48,1
2,76,61,157
2,72,54,1
2,67,48,1
2,70,54,2
2,76,69,155
2,67,54,1
2,70,61,1
2,72,54,0
2,74,61,158
2,71,48,1
2,65,61,1
2,67,54,1
2,74,69,159
2,71,48,1
2,67,54,1
2,65,54,1
2,74,61,156
2,67,54,1
2,71,48,2
2,65,61,0
2,74,69,153
2,71,61,1
2,67,61,1
2,65,61,1
2,72,61,58
2,64,61,1
2,67,61,2
2,67,38,395
2,67,38,31
2,67,48,31
2,67,48,29
2,67,48,25
2,67,48,25
2,67,54,25
2,76,61,122
2,67,54,1
2,72,61,1
2,70,54,0
2,76,61,160
2,70,61,1
2,67,48,1
2,72,54,1
2,76,61,161
2,70,61,1
2,72,61,1
2,67,48,1
2,76,61,54
2,67,48,1
2,72,61,0
2,70,54,1
2,76,61,163
2,72,61,1
2,70,54,1
2,67,54,1
2,76,61,160
2,72,61,1
2,70,61,1
2,67,54,1
2,76,61,159
2,70,61,1
2,67,61,1
2,72,61,0
2,76,61,48
2,67,54,0
2,72,61,1
2,70,54,1
2,74,61,149
2,71,54,2
2,67,54,1
2,65,48,0
2,74,69,159
2,67,54,1
2,71,54,1
2,65,61,1
2,74,61,160
2,71,48,1
2,67,61,1
2,65,61,1
2,67,61,31
2,74,54,1
2,65,54,0
2,71,61,1
2,72,61,53
2,64,54,1
2,67,61,1
2,67,31,391
2,67,41,33
2,67,48,35
2,67,48,30
2,67,54,34
2,67,54,31
2,67,61,33
2,67,61,31
2,72,49,42
2,72,54,31
2,72,60,29
2,75,84,0
2,72,76,29
2,70,78,0
2,67,74,29
2,67,65,567
2,73,80,1
2,73,84,1
2,69,78,8
2,67,76,1
2,75,80,1
2,72,64,1
2,70,64,38
2,72,77,5
2,84,85,109
3,73,34,600
3,82,27,1
3,74,34,5
3,77,27,69
3,80,27,1
3,72,24,1
3,75,27,65
3,79,30,1
3,73,24,53
3,77,24,2
3,74,27,0
3,75,17,235
3,85,24,35
3,86,24,3
3,85,30,35
3,86,24,48
3,85,30,33
3,84,20,1
3,82,27,53
3,79,20,42
3,77,27,1
3,82,16,135
3,85,24,17
3,89,24,2
3,86,17,2
3,89,14,3
3,91,30,25
3,87,30,1
3,85,16,4
3,87,30,38
3,91,30,1
3,89,20,6
3,85,27,4
3,86,27,6
3,82,24,5
3,80,30,11
3,77,24,1
3,77,27,221
3,80,30,1
3,70,19,1
3,79,27,65
3,75,27,0
3,70,27,2
3,77,27,8
3,73,27,1
3,75,2,4
3,74,27,0
3,70,24,3
3,68,27,9
3,65,12,3
3,70,30,18
3,70,24,5
3,85,24,2655
3,86,21,2
3,85,20,177
3,84,12,4
3,82,20,1
3,82,30,33
3,82,27,45
3,82,27,54
3,80,20,102
3,85,27,31
3,86,24,44
3,80,17,6
3,82,30,35
3,80,24,47
3,77,24,3
3,77,24,40
3,80,24,2
3,70,17,2
3,79,27,17
3,75,27,1
3,73,17,2
3,77,24,2
3,74,27,42
3,70,27,2
3,73,24,11
3,77,24,5
3,74,19,1
3,70,19,4
3,73,30,32
3,77,24,1
3,74,30,8
3,75,27,23
3,79,30,1
3,77,14,11
3,73,14,1
3,74,24,14
3,70,16,6
3,68,27,6
3,70,27,1
3,80,30,147
3,81,24,0
3,89,30,47
3,80,27,47
3,81,20,0
3,89,30,50
3,80,27,44
3,81,27,45
3,89,27,42
3,88,27,27
3,80,24,3
3,87,27,32
3,79,24,1
3,85,24,17
3,82,24,33
3,70,8,456
3,82,27,30
3,73,30,1
3,70,17,8
3,74,24,32
3,82,27,1
3,70,16,7
3,82,30,34
3,75,24,1
3,70,14,11
3,77,24,4
3,73,27,1
3,74,27,17
3,70,19,5
3,70,30,33
3,73,30,68
3,77,24,1
3,74,30,8
3,70,20,7
3,70,27,38
3,77,30,62
3,80,27,1
3,70,17,7
3,75,30,37
3,79,30,1
3,77,20,10
3,73,24,1
3,74,20,1
3,70,20,3
3,70,30,33
3,77,24,71
3,73,30,1
3,74,34,8
3,70,17,5
3,70,27,36
3,73,34,65
3,77,27,1
3,74,30,13
3,70,17,1
3,70,30,34
3,77,27,58
3,80,24,1
3,70,12,8
3,79,34,37
3,75,30,1
3,73,24,9
3,77,19,1
3,74,24,0
3,70,24,3
3,70,30,31
3,77,10,117
3,84,27,34
3,80,27,1
3,82,30,22
3,86,30,0
3,84,20,7
3,80,19,6
3,81,24,0
3,77,17,5
3,80,34,37
3,84,27,2
3,81,30,5
3,82,19,5
3,86,20,0
3,85,14,5
3,83,16,29
3,87,17,0
3,84,8,2
3,85,16,12
3,87,20,1
3,84,20,1
3,86,30,22
3,82,30,1
3,80,8,2
3,86,30,42
3,82,34,1
3,84,20,14
3,80,30,4
3,81,27,6
3,77,24,0
3,75,24,12
3,82,30,34
3,79,30,734
3,90,34,307
3,96,30,2
3,91,34,7
3,96,30,69
3,89,34,2
3,91,24,9
3,87,30,1
3,88,30,11
3,90,2,11
3,84,17,3
3,78,34,36
3,84,30,1
3,79,34,8
3,84,30,49
3,77,30,2
3,79,20,6
3,75,27,2
3,72,24,6
3,72,20,14
3,79,27,20
3,75,34,2
3,76,20,23
3,72,20,109
3,72,27,74
3,72,27,63
3,72,24,56
3,78,30,12
3,82,30,1
3,72,13,10
3,81,30,35
3,77,30,1
3,75,24,9
3,79,24,1
3,76,27,1
3,72,20,4
3,72,27,30
3,72,20,115
3,74,27,0
3,72,20,66
3,78,19,19
3,84,20,2
3,84,24,7
3,79,24,0
3,78,27,17
3,84,27,0
3,79,27,17
3,84,27,1
3,84,24,15
3,77,24,3
3,79,24,8
3,75,27,2
3,76,24,1
3,72,16,3
3,70,24,10
3,67,24,8
3,70,20,241
3,71,20,44
3,74,19,7
3,77,30,10
3,74,17,3
3,76,30,34
3,76,30,56
3,74,19,46
3,70,27,43
3,71,24,1
3,67,17,3
3,72,30,46
3,72,10,399
3,84,30,32
3,78,34,1
3,72,14,13
3,78,30,33
3,82,30,2
3,72,17,6
3,81,30,35
3,77,30,1
3,76,19,1
3,75,27,12
3,79,24,1
3,76,24,45
3,72,20,6
3,72,30,33
3,72,30,55
3,72,24,17
3,79,27,54
3,75,30,0
3,76,17,0
3,72,20,242
3,78,20,28
3,82,24,2
3,79,24,7
3,82,24,1
3,78,27,17
3,82,27,1
3,79,24,9
3,82,27,1
3,78,27,17
3,82,27,1
3,79,19,12
3,82,20,1
3,77,27,21
3,81,27,1
3,75,2,5
3,77,30,37
3,81,27,0
3,75,2,6
3,77,30,40
3,81,30,1
3,79,20,10
3,75,30,2
3,76,30,3
3,72,24,3
3,72,27,11
3,91,30,249
3,85,30,1
3,86,34,8
3,91,30,58
3,84,30,2
3,86,2,8
3,82,24,67
3,86,20,1
3,83,27,45
3,79,17,4
3,86,16,7
3,82,19,5
3,83,19,2
3,79,8,6
3,77,24,7
3,79,24,4
3,79,24,40
3,82,27,27
3,79,24,4
3,82,24,3
3,84,30,5
3,87,32,1927
3,88,24,8
3,89,26,19
3,90,29,6
3,91,36,21
3,88,36,39
3,84,29,1
3,79,29,2
3,77,39,2
3,75,39,48
3,74,26,6
3,76,36,0
3,72,24,4
3,90,39,314
3,96,36,2
3,91,36,7
3,89,29,2
3,87,21,8
3,91,14,3
3,93,36,39
3,89,36,1
3,91,26,7
3,87,36,1
3,88,32,5
3,84,24,1
3,82,29,12
3,83,8,30
3,84,29,12
3,86,29,0
3,90,32,311
3,96,36,2
3,91,32,11
3,96,32,1
3,89,32,3
3,87,36,11
3,91,32,2
3,88,36,11
3,86,21,1
3,74,36,114
3,82,32,1
3,79,36,2
3,76,36,1
3,70,29,1
4,74,0,3096
4,74,0,30
4,73,0,52
4,74,0,35
4,72,0,49
4,70,0,40
4,67,0,40
4,70,0,46
4,70,0,29
4,73,0,54
4,74,0,134
4,74,0,32
4,73,0,1
4,74,0,1
4,72,0,48
4,70,0,39
4,67,0,2
4,70,0,23
4,67,0,8
4,65,0,1
4,72,0,270
4,72,0,46
4,72,0,47
4,70,0,48
4,72,0,47
4,70,0,47
4,72,0,1
4,72,0,35
4,70,0,48
4,72,0,0
4,65,0,57
4,67,0,0
4,65,0,2
4,70,0,52
4,70,0,37
4,70,0,38
4,70,0,35
4,70,0,43
4,67,0,0
4,65,0,4
4,69,0,28
4,69,0,32
4,65,0,32
4,74,0,41
4,73,0,43
4,74,0,1
4,72,0,48
4,70,0,42
4,67,0,1
4,70,0,54
4,70,0,20
4,73,0,46
4,74,0,128
4,74,0,36
4,73,0,45
4,74,0,1
4,72,0,50
4,70,0,39
4,67,0,3
4,70,0,27
4,67,0,8
4,65,0,2
4,72,0,274
4,72,0,55
4,72,0,53
4,70,0,47
4,72,0,0
4,70,0,47
4,72,0,0
4,72,0,31
4,70,0,48
4,72,0,2
4,65,0,46
4,67,0,48
4,65,0,2
4,70,0,49
4,70,0,35
4,70,0,33
4,70,0,35
4,70,0,40
4,67,0,0
4,65,0,1
4,69,0,29
4,69,0,27
4,65,0,20
4,82,0,572
4,70,0,1
4,74,0,0
4,77,0,1
4,82,0,164
4,74,0,1
4,70,0,1
4,77,0,1
4,82,0,545
4,70,0,0
4,82,0,62
4,70,0,1
4,79,0,30
4,67,0,1
4,65,0,2
4,77,0,2
4,72,0,149
4,84,0,0
4,84,0,137
4,72,0,0
4,84,0,91
4,72,0,0
4,70,0,10
4,82,0,0
4,84,0,27
4,72,0,0
4,77,0,46
4,65,0,1
4,67,0,25
4,79,0,1
4,70,0,27
4,82,0,2
4,82,0,241
4,70,0,0
4,82,0,116
4,70,0,0
4,84,0,28
4,72,0,0
4,73,0,76
4,85,0,0
4,74,0,1
4,86,0,0
4,89,0,48
4,77,0,0
4,79,0,28
4,91,0,0
4,76,0,571
4,76,0,31
4,75,0,1
4,76,0,47
4,74,0,49
4,72,0,42
4,69,0,0
4,72,0,50
4,72,0,19
4,75,0,56
4,76,0,144
4,76,0,35
4,75,0,46
4,76,0,0
4,74,0,47
4,72,0,41
4,69,0,3
4,72,0,35
4,69,0,21
4,67,0,1
4,74,0,270
4,74,0,47
4,74,0,53
4,72,0,47
4,74,0,42
4,72,0,44
4,74,0,40
4,74,0,31
4,72,0,48
4,74,0,43
4,67,0,50
4,69,0,45
4,67,0,44
4,72,0,47
4,72,0,36
4,72,0,34
4,72,0,33
4,72,0,35
4,69,0,0
4,67,0,2
4,71,0,32
4,71,0,23
4,67,0,27
4,76,0,47
4,75,0,2
4,76,0,47
4,74,0,52
4,72,0,42
4,69,0,1
4,72,0,51
4,72,0,26
4,75,0,57
4,76,0,126
4,76,0,38
4,75,0,45
4,76,0,44
4,74,0,47
4,72,0,40
4,69,0,1
4,72,0,29
4,69,0,19
4,67,0,0
4,74,0,279
4,74,0,52
4,74,0,55
4,72,0,48
4,74,0,43
4,72,0,44
4,74,0,0
4,74,0,29
4,72,0,49
4,74,0,3
4,67,0,53
4,69,0,1
4,67,0,1
4,72,0,0
4,72,0,35
4,72,0,38
4,72,0,31
4,72,0,40
4,69,0,48
4,67,0,4
4,71,0,34
4,71,0,30
4,67,0,17
4,67,0,2262
4,69,0,5
4,67,0,0
4,72,0,48
4,72,0,37
4,72,0,37
4,72,0,33
4,72,0,32
4,69,0,48
4,67,0,4
4,72,0,28
4,72,0,8
4,72,0,42
4,72,0,0
4,84,0,104
5,41,74,173
5,26,68,147
5,27,68,63
5,28,65,63
5,29,70,47
5,41,60,98
5,41,70,31
5,39,45,17
5,39,61,26
5,39,65,29
5,38,65,1
5,36,68,48
5,29,70,1
5,26,61,60
5,26,65,33
5,27,65,48
5,27,68,31
5,28,70,1
5,28,70,33
5,29,70,49
5,29,65,82
5,29,74,31
5,29,70,25
5,29,70,26
5,29,74,30
5,33,65,47
5,34,70,47
5,34,65,46
5,29,70,46
5,29,70,53
5,34,68,48
5,34,70,41
5,29,70,1
5,29,70,33
5,31,68,45
5,29,68,43
5,34,70,46
5,34,68,46
5,29,70,48
5,29,70,43
5,34,68,49
5,34,68,42
5,26,68,44
5,26,70,26
5,27,65,1
5,28,70,0
5,29,70,0
5,29,68,46
5,24,65,47
5,24,68,51
5,29,70,51
5,29,65,53
5,29,68,62
5,33,68,47
5,34,70,96
5,29,68,388
5,29,68,26
5,29,70,28
5,29,70,27
5,29,68,28
5,29,70,33
5,29,65,28
5,34,68,5
5,34,70,46
5,29,68,49
5,29,68,39
5,34,70,1
5,34,74,45
5,29,68,47
5,29,70,30
5,31,68,50
5,29,68,45
5,34,68,50
5,34,68,46
5,29,70,48
5,29,70,45
5,34,70,47
5,34,65,45
5,26,65,1
5,26,70,27
5,27,60,47
5,28,65,1
5,29,65,51
5,29,70,52
5,36,65,48
5,36,61,46
5,41,65,4
5,39,65,36
5,41,61,2
5,36,68,40
5,29,68,45
5,33,65,45
5,34,70,43
5,29,65,395
5,29,65,28
5,29,68,30
5,29,68,29
5,29,70,28
