track,note,velocity,time
1,41,99,8544
1,43,99,0
1,48,99,192
1,36,99,0
1,31,99,0
1,33,99,0
1,36,99,0
1,38,99,192
1,36,99,0
1,33,99,384
1,40,99,96
1,45,99,32
1,41,99,156
1,41,99,96
1,41,99,96
1,41,99,96
1,40,99,96
1,40,99,96
1,40,99,96
1,31,99,0
1,33,99,22
1,36,99,18
1,31,99,0
1,33,99,0
1,36,99,0
1,38,99,192
1,36,99,0
1,36,99,192
1,35,99,0
1,33,99,16
1,40,99,72
1,45,99,20
1,33,99,96
1,31,99,0
1,29,99,96
1,29,99,96
1,29,99,96
1,29,99,96
1,28,99,96
1,28,99,96
1,28,99,96
1,28,99,480
1,31,99,95
1,30,99,0
1,29,99,0
1,29,99,96
1,31,99,0
1,31,99,96
1,33,99,0
1,36,99,0
1,36,99,96
1,33,99,0
1,33,99,96
1,31,99,0
1,29,99,0
1,29,99,96
1,31,99,0
1,31,99,96
1,33,99,0
1,36,99,0
1,31,99,0
1,36,99,0
1,33,99,0
1,31,99,0
1,29,99,0
1,28,99,60
1,29,99,40
1,31,99,96
1,31,99,116
1,33,99,48
1,36,99,96
1,35,99,574
1,36,99,94
1,33,99,8
1,29,99,10
1,29,99,102
1,29,99,118
1,29,99,110
1,29,99,94
1,31,99,34
1,31,99,84
1,33,99,24
1,36,99,12
1,31,99,0
1,33,99,0
1,36,99,0
1,38,99,192
1,36,99,0
1,33,99,384
1,40,99,72
1,45,99,20
1,41,99,156
1,41,99,96
1,41,99,96
1,41,99,96
1,40,99,96
1,40,99,96
1,40,99,96
1,31,99,0
1,33,99,22
1,36,99,18
1,31,99,0
1,33,99,0
1,36,99,0
1,38,99,192
1,36,99,0
1,31,99,0
1,35,99,0
1,33,99,16
1,40,99,72
1,45,99,20
1,33,99,96
1,31,99,0
1,29,99,96
1,29,99,96
1,29,99,96
1,29,99,96
1,28,99,96
1,28,99,96
1,28,99,96
1,28,99,480
1,31,99,95
1,30,99,0
1,29,99,0
1,29,99,96
1,31,99,0
1,31,99,96
1,33,99,0
1,36,99,0
1,36,99,96
1,33,99,0
1,33,99,96
1,31,99,0
1,29,99,0
1,29,99,96
1,31,99,0
1,31,99,96
1,33,99,0
1,36,99,0
1,31,99,0
1,36,99,0
1,33,99,0
1,31,99,0
1,29,99,0
1,28,99,60
1,29,99,0
1,31,99,96
1,31,99,116
1,33,99,96
1,36,99,84
1,35,99,574
1,36,99,94
1,33,99,8
1,29,99,10
1,29,99,102
1,29,99,118
1,29,99,110
1,29,99,94
1,36,99,34
1,48,99,0
1,36,99,0
1,31,99,0
1,31,99,96
1,33,99,96
1,33,99,96
1,33,99,96
1,33,99,480
1,31,99,95
1,29,99,0
1,29,99,96
1,29,99,96
1,29,99,96
1,28,99,96
1,28,99,96
1,28,99,96
1,28,99,0
1,36,99,767
1,31,99,0
1,33,99,0
1,36,99,0
1,38,99,192
1,36,99,0
1,36,99,192
1,35,99,0
1,33,99,16
1,40,99,72
1,45,99,20
1,33,99,96
1,31,99,0
1,29,99,96
1,29,99,96
1,29,99,96
1,29,99,96
1,28,99,96
1,28,99,96
1,28,99,96
1,40,99,0
1,41,99,0
1,41,99,48
1,36,99,96
1,36,99,96
1,36,99,96
1,31,99,48
1,29,99,48
1,29,99,96
1,33,99,0
1,36,99,0
1,28,99,384
1,29,99,0
1,29,99,48
1,29,99,96
1,36,99,0
1,36,99,48
1,36,99,48
1,38,99,0
1,34,99,0
1,34,99,96
1,34,99,96
1,34,99,48
1,34,99,48
1,34,99,96
1,34,99,48
1,34,99,12
1,34,99,24
1,36,99,192
1,31,99,0
1,33,99,0
1,36,99,0
1,38,99,192
1,36,99,0
1,33,99,384
1,40,99,72
1,45,99,20
1,41,99,156
1,41,99,96
1,41,99,96
1,41,99,96
1,40,99,96
1,40,99,96
1,40,99,96
1,31,99,0
1,33,99,22
1,36,99,18
1,31,99,0
1,33,99,0
1,36,99,0
1,38,99,192
1,36,99,0
1,31,99,0
1,35,99,0
1,33,99,16
1,40,99,72
1,45,99,20
1,33,99,96
1,31,99,0
1,29,99,96
1,29,99,96
1,29,99,96
1,29,99,96
1,28,99,96
1,28,99,96
1,28,99,96
1,28,99,480
1,31,99,95
1,30,99,0
1,38,99,0
1,38,99,96
1,40,99,0
1,31,99,96
1,33,99,0
1,36,99,0
1,36,99,96
1,33,99,0
1,33,99,96
1,31,99,0
1,29,99,0
1,29,99,96
1,31,99,0
1,31,99,96
1,33,99,0
1,36,99,0
1,36,99,384
1,40,99,95
1,43,99,0
1,40,99,0
1,45,99,0
1,38,99,192
1,40,99,0
1,41,99,0
1,40,99,0
1,45,99,0
1,43,99,96
1,41,99,74
1,36,99,74
1,31,99,74
1,31,99,116
1,33,99,96
1,36,99,84
1,35,99,574
1,36,99,94
1,33,99,8
1,29,99,10
1,29,99,102
1,29,99,118
1,29,99,110
1,29,99,94
1,31,99,34
1,31,99,94
1,29,99,34
1,29,99,96
1,31,99,48
1,31,99,288
1,36,99,95
1,31,99,0
1,33,99,0
1,35,99,0
1,36,99,0
1,36,99,96
1,33,99,0
1,33,99,480
1,31,99,95
1,29,99,0
1,29,99,96
1,31,99,0
1,31,99,96
1,33,99,0
1,36,99,0
1,36,99,96
1,30,99,0
1,31,99,0
1,33,99,0
1,31,99,0
1,29,99,0
1,29,99,96
1,31,99,0
1,31,99,116
1,36,99,0
1,36,99,480
1,40,99,95
1,33,99,0
1,29,99,10
1,29,99,102
1,29,99,118
1,29,99,110
1,29,99,94
1,29,99,34
1,29,99,96
1,31,99,48
1,31,99,288
1,36,99,95
1,31,99,0
1,33,99,0
1,35,99,0
1,36,99,0
1,36,99,96
1,33,99,0
1,33,99,480
1,31,99,95
1,29,99,0
1,29,99,96
1,31,99,0
1,31,99,96
1,33,99,0
1,36,99,0
1,36,99,288
1,40,99,95
1,43,99,0
1,33,99,0
1,45,99,0
1,40,99,0
1,38,99,0
1,33,99,0
1,31,99,192
1,29,99,0
1,29,99,96
1,31,99,0
1,31,99,116
1,36,99,0
1,36,99,480
1,40,99,95
1,33,99,0
1,29,99,10
1,29,99,102
1,29,99,118
1,29,99,110
1,29,99,94
1,31,99,34
1,31,99,94
1,36,99,30
2,60,73,59058
2,62,73,10
2,64,73,32
2,62,72,780
2,67,72,8
2,59,71,12
2,64,71,0
2,57,71,0
2,43,93,576
2,45,114,0
2,47,113,552
2,48,112,180
2,50,112,372
2,47,111,358
2,45,110,0
2,47,108,56
2,45,107,24
2,44,104,82
2,52,70,756
2,48,70,0
2,50,70,0
2,48,70,0
2,55,69,0
2,52,69,0
2,57,68,768
2,59,68,0
2,60,68,0
2,59,79,180
2,57,79,0
2,55,79,0
2,53,79,0
2,52,79,0
2,50,79,0
2,48,79,0
2,59,98,0
2,57,79,192
2,56,79,0
2,53,79,0
2,52,79,0
2,65,64,19968
2,57,64,0
2,62,64,0
2,67,64,0
2,59,64,0
2,60,63,0
2,64,63,0
2,69,63,0
2,65,63,0
2,67,63,0
2,62,63,0
2,71,63,0
2,67,63,0
2,64,63,0
2,60,63,0
2,69,63,0
2,65,62,0
2,67,62,0
2,71,62,0
2,62,62,0
2,64,62,0
2,60,62,0
2,67,62,0
2,69,62,0
2,65,62,0
2,62,61,0
2,71,61,0
2,67,61,0
2,65,64,0
2,57,64,0
2,62,64,0
2,67,64,0
2,59,64,0
2,60,63,0
2,64,63,0
2,69,63,0
2,65,63,0
2,67,63,0
2,62,63,0
2,71,63,0
2,67,63,0
2,64,63,0
2,60,63,0
2,69,63,0
2,65,62,0
2,67,62,0
2,71,62,0
2,62,62,0
2,64,62,0
2,60,62,0
2,67,62,0
2,69,62,0
2,65,62,0
2,65,64,2304
2,60,64,0
2,69,64,0
2,57,69,0
2,69,69,0
2,55,69,0
2,67,69,0
2,53,69,0
2,65,69,0
2,52,68,0
2,64,68,0
2,50,68,0
2,62,68,0
2,64,64,0
2,67,64,0
2,55,67,0
2,67,67,0
2,53,67,0
2,65,67,0
2,52,67,0
2,64,67,0
2,50,66,0
2,62,66,0
2,48,66,0
2,60,66,0
2,65,63,0
2,69,63,0
2,57,65,0
2,69,65,0
2,55,65,0
2,67,65,0
2,53,65,0
2,65,65,0
2,52,65,0
2,64,65,0
2,50,64,0
2,62,64,0
2,64,63,0
2,67,63,0
2,55,64,0
2,67,64,0
2,53,63,0
2,65,63,0
2,52,63,0
2,64,63,0
2,50,63,0
2,62,63,0
2,48,63,0
2,60,63,0
2,65,63,0
2,69,63,0
2,57,62,0
2,69,62,0
2,55,62,0
2,67,62,0
2,53,61,0
2,65,61,0
2,52,61,0
2,64,61,0
2,50,61,0
2,62,61,0
2,64,62,0
2,67,62,0
2,55,60,0
2,67,60,0
2,53,60,0
2,65,60,0
2,52,60,0
2,64,60,0
2,50,59,0
2,62,59,0
2,48,59,0
2,60,59,0
2,65,62,0
2,62,61,2304
2,71,61,0
2,67,61,0
2,64,61,0
2,67,61,0
2,72,61,0
3,48,56,3072
3,55,56,0
3,48,56,0
3,55,56,0
3,55,55,192
3,48,55,96
3,55,55,0
3,48,55,96
3,55,55,0
3,55,54,96
3,55,54,96
3,48,56,0
3,55,56,0
3,48,56,0
3,55,56,0
3,48,56,0
3,55,55,96
3,55,55,96
3,48,55,0
3,55,55,0
3,48,55,96
3,55,55,0
3,48,55,0
3,55,54,0
3,48,56,96
3,55,56,0
3,55,56,96
3,48,56,0
3,55,56,0
3,48,56,191
3,55,55,0
3,48,55,96
3,55,55,0
3,48,55,96
3,55,55,0
3,55,54,96
3,55,54,96
3,48,56,0
3,55,56,0
3,48,56,0
3,55,56,0
3,55,55,192
3,48,55,96
3,55,55,0
3,48,55,96
3,55,55,0
3,55,54,96
3,48,56,96
3,55,56,96
3,48,56,96
3,55,56,95
3,55,56,96
3,48,56,0
3,55,56,96
3,48,56,0
3,55,56,96
3,55,56,96
3,45,56,0
3,55,56,96
3,45,56,96
3,55,56,95
3,55,56,96
3,45,56,0
3,55,56,96
3,55,56,96
3,45,56,0
3,55,56,96
3,41,56,0
3,55,56,96
3,41,56,96
3,55,56,95
3,55,56,96
3,41,56,0
3,55,56,96
3,41,56,0
3,55,56,96
3,41,56,0
3,40,56,0
3,57,56,96
3,40,56,0
3,56,56,96
3,40,56,0
3,40,56,192
3,56,56,95
3,40,56,0
3,56,56,96
3,56,56,96
3,48,56,0
3,55,56,96
3,48,56,96
3,55,56,95
3,55,56,96
3,48,56,0
3,55,56,96
3,48,56,0
3,55,56,96
3,55,56,96
3,45,56,0
3,55,56,96
3,45,56,96
3,55,56,95
3,55,56,96
3,45,56,0
3,55,56,96
3,55,56,96
3,45,56,0
3,55,56,96
3,41,56,0
3,55,56,96
3,41,56,96
3,55,56,95
3,55,56,96
3,41,56,0
3,55,56,96
3,41,56,0
3,55,56,96
3,41,56,0
3,40,56,0
3,57,56,96
3,40,56,0
3,56,56,96
3,40,56,0
3,40,56,192
3,56,56,95
3,40,56,0
3,56,56,96
3,56,56,96
3,48,56,12288
3,55,56,0
3,48,56,0
3,55,56,0
3,48,56,0
3,55,56,96
3,48,56,96
3,55,56,0
3,48,56,96
3,55,56,0
3,55,56,96
3,45,56,96
3,55,56,0
3,45,56,0
3,55,56,0
3,45,56,0
3,55,56,96
3,45,56,96
3,55,56,0
3,45,56,0
3,55,56,0
3,55,56,192
3,41,56,96
3,55,56,0
3,41,56,0
3,55,56,0
3,55,56,192
3,41,56,96
3,55,56,0
3,41,56,96
3,55,56,0
3,41,56,96
3,40,56,96
3,57,56,0
3,40,56,96
3,56,56,0
3,40,56,96
3,40,56,96
3,56,56,0
3,40,56,96
3,56,56,0
3,56,56,96
3,48,56,96
3,55,56,0
3,48,56,0
3,55,56,0
3,55,56,192
3,48,56,96
3,55,56,0
3,48,56,96
3,55,56,0
3,55,56,96
3,45,56,96
3,55,56,0
3,45,56,0
3,55,56,0
3,55,56,192
3,45,56,96
3,55,56,0
3,55,56,96
3,45,56,0
3,55,56,192
3,41,56,96
3,55,56,0
3,41,56,0
3,55,56,0
3,55,56,192
3,41,56,96
3,55,56,0
3,41,56,96
3,55,56,0
3,41,56,96
3,40,56,96
3,57,56,0
3,40,56,96
3,56,56,0
3,40,56,96
3,40,56,96
3,56,56,0
3,40,56,96
3,56,56,0
3,56,56,96
3,48,56,11616
3,55,56,0
3,48,56,0
3,55,56,0
3,48,56,0
3,55,56,96
3,48,56,96
3,55,56,0
3,48,56,96
3,55,56,0
3,55,56,96
3,45,56,96
3,55,56,0
3,45,56,0
3,55,56,0
3,45,56,0
3,55,56,96
3,45,56,96
3,55,56,0
3,45,56,0
3,55,56,0
3,55,56,192
3,41,56,96
3,57,56,0
3,41,56,0
3,57,56,84
3,41,56,12
3,57,56,96
3,41,56,96
3,57,56,0
3,41,56,96
3,57,56,0
3,41,56,96
3,40,56,96
3,57,56,0
3,40,56,96
3,56,56,0
3,40,56,96
3,40,56,96
3,56,56,0
3,40,56,96
3,56,56,0
3,56,56,96
3,48,56,96
3,55,56,0
3,48,56,0
3,55,56,0
3,48,56,0
3,55,56,96
3,48,56,96
3,55,56,0
3,48,56,96
3,55,56,0
3,55,56,96
3,45,56,96
3,55,56,0
3,45,56,0
3,55,56,0
3,45,56,0
3,55,56,96
3,45,56,96
3,55,56,0
3,45,56,0
3,55,56,0
3,55,56,192
3,41,56,96
3,57,56,0
3,41,56,0
3,57,56,84
3,41,56,12
3,57,56,96
3,41,56,96
3,57,56,0
3,41,56,96
3,57,56,0
3,41,56,96
3,40,56,96
3,56,56,12
3,40,56,84
3,56,56,0
3,40,56,96
3,40,56,96
3,56,56,0
3,40,56,96
3,56,56,0
3,56,56,96
3,48,56,96
3,53,56,0
3,48,56,192
3,53,56,0
3,48,56,0
3,53,56,0
3,48,56,0
3,55,56,0
3,48,56,0
3,55,56,0
3,48,56,192
3,55,56,0
3,48,56,0
3,53,56,96
3,48,56,144
3,53,56,0
3,48,56,0
3,53,56,0
3,48,56,0
3,55,56,0
3,48,56,0
3,55,56,0
3,48,56,192
3,55,56,0
3,48,56,0
3,53,56,96
3,48,56,0
3,53,56,0
3,48,56,0
3,53,56,0
3,48,56,0
3,55,56,96
3,48,56,0
3,55,56,0
3,48,56,192
3,55,56,0
3,46,56,96
3,53,56,48
3,46,56,144
3,53,56,48
3,46,56,0
3,53,56,0
3,46,56,0
3,53,56,96
3,46,56,144
3,53,56,48
3,50,56,0
3,53,56,0
3,46,56,0
3,53,56,0
3,46,56,192
3,53,56,0
3,46,56,192
3,53,56,96
3,46,56,0
3,46,56,144
3,53,56,0
3,46,56,192
3,48,56,96
3,55,56,0
3,48,56,0
3,55,56,0
3,48,56,0
3,55,56,96
3,48,56,96
3,55,56,0
3,48,56,96
3,55,56,0
3,55,56,96
3,45,56,96
3,55,56,0
3,45,56,0
3,55,56,0
3,45,56,0
3,55,56,96
3,45,56,96
3,55,56,0
3,45,56,0
3,55,56,0
3,55,56,192
3,41,56,96
3,55,56,0
3,41,56,0
3,55,56,0
3,55,56,192
3,41,56,96
3,55,56,0
3,41,56,96
3,55,56,0
3,41,56,96
3,40,56,96
3,57,56,0
3,40,56,96
3,56,56,0
3,40,56,96
3,40,56,96
3,56,56,0
3,40,56,96
3,56,56,0
3,56,56,96
3,48,56,96
3,55,56,0
3,48,56,0
3,55,56,0
3,55,56,192
3,48,56,96
3,55,56,0
3,48,56,96
3,55,56,0
3,55,56,96
3,45,56,96
3,55,56,0
3,45,56,0
3,55,56,0
3,55,56,192
3,45,56,96
3,55,56,0
3,55,56,96
3,45,56,0
3,55,56,192
3,41,56,96
3,55,56,0
3,41,56,0
3,55,56,0
3,55,56,192
3,41,56,96
3,55,56,0
3,41,56,96
3,55,56,0
3,41,56,96
3,40,56,96
3,57,56,0
3,40,56,96
3,56,56,0
3,40,56,96
3,40,56,96
3,56,56,0
3,40,56,96
3,56,56,0
3,56,56,96
3,50,56,96
3,53,56,0
3,53,56,96
3,53,56,0
