track,note,velocity,time
1,40,127,4620
1,40,113,96
1,35,93,4
1,35,105,64
1,38,121,20
1,40,121,48
1,40,113,68
1,35,105,84
1,35,117,48
1,38,113,20
1,40,127,86
1,40,113,96
1,35,93,4
1,35,105,64
1,38,121,20
1,40,121,48
1,40,113,68
1,35,105,84
1,35,117,48
1,38,113,20
1,40,109,84
1,40,113,156
1,35,121,68
1,35,101,84
1,38,113,28
1,45,117,160
1,45,105,50
1,45,113,68
1,40,105,44
1,45,117,48
1,38,121,68
1,40,121,90
1,40,105,80
1,35,113,84
1,38,121,20
1,40,121,70
1,40,117,84
1,35,121,96
1,35,101,48
1,38,121,32
1,40,109,32
1,40,117,112
1,35,121,96
1,35,113,84
1,38,117,32
1,40,113,84
1,40,121,132
1,35,125,86
1,35,101,96
1,40,121,48
1,47,109,98
1,47,117,112
1,42,121,92
1,42,113,80
1,45,117,32
1,47,113,86
1,47,121,132
1,42,125,84
1,42,101,98
1,47,121,50
1,40,109,96
1,40,117,112
1,35,121,96
1,35,113,80
1,38,117,28
1,40,113,84
1,40,121,132
1,35,125,80
1,35,101,96
1,40,121,48
1,45,113,92
1,40,109,64
1,43,105,32
1,45,113,64
1,45,89,64
1,40,121,20
1,40,105,80
1,43,109,20
1,40,117,32
1,40,93,92
1,35,105,28
1,38,113,16
1,45,113,92
1,45,117,44
1,40,89,16
1,45,125,28
1,38,113,4
1,40,121,48
1,40,97,108
1,35,117,84
1,38,117,44
1,40,121,74
1,47,113,1206
1,47,101,132
1,42,121,32
1,42,113,68
1,47,117,22
1,40,109,134
1,40,109,112
1,35,105,50
1,35,109,70
1,40,117,34
1,47,113,54
1,47,101,134
1,42,121,32
1,42,113,68
1,47,117,20
1,40,109,132
1,40,109,112
1,35,105,48
1,35,109,70
1,40,117,32
1,36,109,50
1,36,113,176
1,43,105,28
1,36,93,44
1,35,113,84
1,35,105,156
1,42,121,16
1,35,121,134
1,35,121,112
1,42,121,44
1,35,121,32
1,40,127,34
1,40,113,96
1,35,93,4
1,35,105,68
1,38,121,22
1,40,121,48
1,40,113,68
1,35,105,84
1,35,117,48
1,38,113,22
1,40,127,84
1,40,113,96
1,35,93,4
1,35,105,68
1,38,121,22
1,40,121,48
1,40,113,68
1,35,105,84
1,35,117,48
1,38,113,20
1,40,109,86
1,40,113,156
1,35,121,68
1,35,101,84
1,38,113,32
1,45,117,160
1,45,105,48
1,45,113,68
1,40,105,44
1,45,117,48
1,38,121,68
1,40,121,86
1,40,105,84
1,35,113,84
1,38,121,20
1,40,121,70
1,40,117,80
1,35,121,96
1,35,101,50
1,38,121,32
1,40,109,34
1,40,117,108
1,35,121,96
1,35,113,80
1,38,117,32
1,40,113,86
1,40,121,132
1,35,125,84
1,35,101,96
1,40,121,48
1,47,109,98
1,47,117,112
1,42,121,92
1,42,113,84
1,45,117,28
1,47,113,86
1,47,121,132
1,42,125,84
1,42,101,98
1,47,121,48
1,40,109,98
1,40,117,112
1,35,121,92
1,35,113,80
1,38,117,32
1,40,113,84
1,40,121,132
1,35,125,84
1,35,101,96
1,40,121,48
1,45,113,92
1,40,109,64
1,43,105,28
1,45,113,64
1,45,89,64
1,40,121,16
1,40,105,80
1,43,109,20
1,40,117,28
1,40,93,92
1,35,105,28
1,38,113,16
1,45,113,92
1,45,117,44
1,40,89,16
1,45,125,28
1,38,113,2
1,40,121,50
1,40,97,112
1,35,117,84
1,38,117,44
1,40,121,74
1,47,113,1206
1,47,101,132
1,42,121,32
1,42,113,68
1,47,117,20
1,40,109,134
1,40,109,112
1,35,105,48
1,35,109,70
1,40,117,34
1,47,113,54
1,47,101,132
1,42,121,32
1,42,113,68
1,47,117,22
1,40,109,134
1,40,109,112
1,35,105,48
1,35,109,70
1,40,117,32
1,36,109,50
1,36,113,176
1,43,105,28
1,36,93,48
1,35,113,86
1,35,105,160
1,42,121,16
1,35,121,134
1,35,121,112
1,42,121,44
1,35,121,32
1,40,127,32
1,40,113,96
1,35,93,4
1,35,105,64
1,38,121,20
1,40,121,48
1,40,113,68
1,35,105,84
1,35,117,48
1,38,113,20
1,40,127,86
1,40,113,96
1,35,93,6
1,35,105,68
1,38,121,20
1,40,121,48
1,40,113,68
1,35,105,84
1,35,117,50
1,38,113,20
1,40,109,90
1,40,113,156
1,35,121,66
1,35,101,84
1,38,113,34
1,45,117,162
1,45,105,54
1,45,113,64
1,40,105,48
1,45,117,48
1,38,121,64
1,40,121,82
1,40,105,84
1,35,113,84
1,38,121,22
1,40,121,70
1,40,117,86
1,35,121,92
1,35,101,48
1,38,121,34
1,40,109,34
1,40,117,112
1,35,121,98
1,35,113,82
1,38,117,32
1,40,113,86
1,40,121,132
1,35,125,86
1,35,101,98
1,40,121,46
1,47,109,102
1,47,117,112
1,42,121,96
1,42,113,86
1,45,117,32
1,47,113,86
1,47,121,134
1,42,125,84
1,42,101,102
1,47,121,48
1,40,109,98
1,40,117,112
1,35,121,96
1,35,113,84
1,38,117,34
1,40,113,86
1,40,121,132
1,35,125,84
1,35,101,98
1,40,121,48
1,45,113,96
1,40,109,68
1,43,105,28
1,45,113,64
1,45,89,68
1,40,121,20
1,40,105,86
1,43,109,20
1,40,117,32
1,40,93,92
1,35,105,32
1,38,113,16
1,45,113,96
1,45,117,48
1,40,89,20
1,45,125,34
1,38,113,4
1,40,121,50
1,40,97,112
1,35,117,82
1,38,117,50
1,40,121,74
1,47,113,1206
1,47,101,134
1,42,121,32
1,42,113,68
1,47,117,20
1,40,109,134
1,40,109,112
1,35,105,48
1,35,109,70
1,40,117,32
1,47,113,50
1,47,101,132
1,42,121,32
1,42,113,68
1,47,117,20
1,40,109,134
1,40,109,112
1,35,105,48
1,35,109,70
1,40,117,34
1,36,109,50
1,36,113,176
1,43,105,28
1,36,93,44
1,35,113,86
1,35,105,160
1,42,121,16
1,35,121,134
1,35,121,112
1,42,121,44
1,35,121,32
1,40,127,32
1,40,113,96
1,35,93,4
1,35,105,68
1,38,121,20
1,40,121,48
1,40,113,68
1,35,105,84
1,35,117,48
1,38,113,20
1,40,127,84
1,40,113,96
1,35,93,4
1,35,105,64
1,38,121,22
1,40,121,48
1,40,113,68
1,35,105,84
1,35,117,48
1,38,113,20
1,40,109,86
1,40,113,160
1,35,121,64
1,35,101,86
1,38,113,32
1,45,117,160
1,45,105,48
1,45,113,68
1,40,105,48
1,45,117,46
1,38,121,68
1,40,121,86
1,40,105,80
1,35,113,84
1,38,121,20
1,40,121,70
1,40,117,84
1,35,121,96
1,35,101,48
1,38,121,32
1,40,109,34
1,40,117,108
1,35,121,96
1,35,113,84
1,38,117,32
1,40,113,84
1,40,121,132
1,35,125,82
1,35,101,96
1,40,121,48
1,47,109,98
1,47,117,108
1,42,121,96
1,42,113,84
1,45,117,32
1,47,113,84
1,47,121,132
1,42,125,84
1,42,101,98
1,47,121,48
1,40,109,96
1,40,117,106
1,35,121,96
1,35,113,80
1,38,117,32
1,40,113,84
1,40,121,132
1,35,125,84
1,35,101,96
1,40,121,48
1,45,113,92
1,40,109,64
1,43,105,28
1,45,113,64
1,45,89,64
1,40,121,20
1,40,105,80
1,43,109,16
1,40,117,28
1,40,93,92
1,35,105,28
1,38,113,16
1,45,113,92
1,45,117,44
1,40,89,16
1,45,125,28
1,38,113,0
1,40,121,50
1,40,97,112
1,35,117,84
1,38,117,48
1,40,121,74
1,47,113,1202
1,47,101,134
1,42,121,32
1,42,113,68
1,47,117,20
1,40,109,134
1,40,109,112
1,35,105,48
1,35,109,70
1,40,117,32
1,47,113,54
1,47,101,132
1,42,121,32
1,42,113,68
1,47,117,20
1,40,109,134
1,40,109,114
1,35,105,48
1,35,109,70
1,40,117,34
1,36,109,50
1,36,113,172
1,43,105,28
1,36,93,44
1,35,113,84
1,35,105,160
1,42,121,16
1,35,121,134
1,35,121,108
1,42,121,44
1,35,121,28
1,40,127,34
1,40,113,96
1,35,93,4
1,35,105,68
1,38,121,22
1,40,121,48
1,40,113,68
1,35,105,84
1,35,117,48
1,38,113,20
1,40,127,84
1,40,113,96
1,35,93,4
1,35,105,68
1,38,121,20
1,40,121,48
1,40,113,68
1,35,105,84
1,35,117,48
1,38,113,20
1,40,127,86
1,40,113,96
1,35,93,4
1,35,105,68
1,38,121,20
1,40,121,48
1,40,113,68
1,35,105,84
1,35,117,48
1,38,113,20
1,40,127,84
1,40,127,468
1,40,125,70
2,59,98,1542
2,64,106,380
2,60,90,172
2,64,110,320
2,60,82,0
2,64,102,192
2,64,94,0
2,61,114,172
2,64,102,48
2,60,94,188
2,64,102,16
2,60,78,192
2,64,106,156
2,64,90,0
2,59,98,26
2,64,106,378
2,60,90,178
2,64,110,324
2,60,82,4
2,64,102,192
2,64,94,0
2,61,114,176
2,64,102,48
2,60,94,192
2,64,102,20
2,60,78,194
2,64,106,160
2,64,90,0
2,59,98,22
2,64,106,382
2,60,90,176
2,64,110,324
2,60,82,6
2,64,102,190
2,64,94,0
2,61,114,176
2,64,102,48
2,60,94,192
2,64,102,20
2,60,78,194
2,52,70,188
2,55,62,0
2,59,66,4
2,55,78,92
2,59,82,0
2,52,54,128
2,55,58,64
2,55,82,32
2,59,78,0
2,52,54,4
2,52,74,92
2,55,58,80
2,52,54,4
2,57,70,80
2,60,74,0
2,52,62,48
2,57,58,4
2,60,70,0
2,52,70,80
2,57,66,172
2,60,90,28
2,57,62,0
2,52,54,4
2,57,58,80
2,52,78,192
2,55,66,20
2,52,82,2
2,59,62,0
2,55,70,64
2,59,94,0
2,52,74,28
2,55,58,192
2,52,70,96
2,59,86,0
2,55,90,84
2,52,46,188
2,55,86,28
2,59,94,4
2,52,90,0
2,55,94,64
2,59,90,0
2,52,86,80
2,55,74,172
2,59,94,92
2,52,106,0
2,55,70,80
2,52,78,156
2,55,86,16
2,52,86,0
2,59,78,4
2,55,90,92
2,52,74,0
2,59,90,4
2,52,94,28
2,55,66,92
2,59,54,0
2,59,94,16
2,55,70,64
2,52,66,0
2,52,42,80
2,59,62,0
2,59,98,64
2,64,98,0
2,55,86,4
2,59,74,44
2,64,102,0
2,55,66,4
2,55,78,92
2,59,82,64
2,62,70,4
2,55,74,0
2,55,78,16
2,59,78,44
2,55,78,0
2,59,82,16
2,55,94,0
2,59,98,28
2,63,94,4
2,54,94,0
2,59,62,44
2,63,106,4
2,54,102,128
2,59,50,108
2,54,82,80
2,63,106,4
2,54,98,96
2,54,102,0
2,63,54,4
2,59,38,0
2,59,54,20
2,63,106,0
2,54,62,2
2,59,58,48
2,63,98,0
2,54,78,0
2,54,110,92
2,54,82,44
2,63,78,0
2,57,78,20
2,63,86,0
2,59,94,2
2,54,62,0
2,54,86,134
2,63,94,108
2,64,86,12
2,59,86,0
2,55,86,4
2,59,70,44
2,64,94,0
2,55,78,108
2,59,66,172
2,64,82,108
2,55,50,80
2,59,74,44
2,64,82,108
2,55,82,0
2,59,58,4
2,59,82,28
2,64,86,4
2,55,70,28
2,59,70,192
2,64,86,28
2,55,86,4
2,59,78,96
2,55,42,32
2,64,78,0
2,60,98,48
2,57,98,0
2,64,98,0
2,60,74,108
2,64,98,0
2,57,90,108
2,60,82,176
2,64,98,80
2,57,82,4
2,60,78,84
2,57,62,0
2,57,70,92
2,60,82,84
2,64,106,0
2,60,90,16
2,64,94,4
2,57,70,68
2,60,86,148
2,64,98,84
2,57,86,0
2,60,82,96
2,57,78,68
2,64,94,0
2,52,70,20
2,55,62,0
2,59,66,2
2,55,78,92
2,59,82,4
2,52,54,132
2,55,58,64
2,55,82,28
2,59,78,0
2,52,54,4
2,52,74,96
2,55,58,80
2,52,54,0
2,57,70,84
2,60,74,0
2,52,62,44
2,57,58,4
2,60,70,0
2,52,70,80
2,57,66,176
2,60,90,36
2,57,62,0
2,52,54,2
2,57,58,84
2,52,78,188
2,52,70,22
2,55,62,0
2,59,66,4
2,55,78,96
2,59,82,0
2,52,54,132
2,55,58,70
2,55,82,32
2,59,78,0
2,52,54,2
2,52,74,96
2,55,58,84
2,52,54,2
2,55,82,2
2,59,86,0
2,52,74,4
2,59,94,1248
2,62,86,2
2,54,110,0
2,59,86,144
2,54,102,4
2,66,98,68
2,54,102,0
2,54,86,32
2,62,74,44
2,59,50,0
2,54,86,32
2,59,54,0
2,59,70,128
2,59,94,28
2,55,94,4
2,64,98,0
2,55,86,36
2,59,78,0
2,64,106,112
2,55,90,48
2,59,86,48
2,55,90,192
2,59,94,32
2,55,90,0
2,64,94,0
2,59,94,28
2,62,86,6
2,54,110,0
2,59,86,144
2,54,102,4
2,66,98,68
2,54,102,0
2,54,86,32
2,62,74,44
2,59,50,0
2,54,86,32
2,59,54,0
2,59,70,128
2,59,94,28
2,55,94,4
2,64,98,0
2,55,86,36
2,59,78,0
2,64,106,112
2,55,90,48
2,59,86,48
2,55,90,192
2,59,94,28
2,55,90,4
2,64,94,0
2,67,94,32
2,60,106,0
2,64,110,2
2,70,110,570
2,67,82,28
2,66,106,44
2,59,106,0
2,64,94,4
2,69,90,196
2,66,102,16
2,66,102,92
2,64,94,4
2,59,106,0
2,66,106,2
2,69,86,80
2,66,110,28
2,63,86,196
2,59,98,22
2,64,106,384
2,60,90,176
2,64,110,326
2,60,82,6
2,64,102,190
2,64,94,0
2,61,114,176
2,64,102,50
2,60,94,192
2,64,102,20
2,60,78,194
2,64,106,160
2,64,90,0
2,59,98,6
2,64,106,382
2,60,90,176
2,64,110,324
2,60,82,6
2,64,102,186
2,64,94,4
2,61,114,174
2,64,102,48
2,60,94,192
2,64,102,22
2,60,78,192
2,52,70,192
2,55,62,0
2,59,66,2
2,55,78,92
2,59,82,0
2,52,54,128
2,55,58,64
2,55,82,28
2,59,78,0
2,52,54,4
2,52,74,92
2,55,58,80
2,52,54,0
2,57,70,80
2,60,74,0
2,52,62,44
2,57,58,4
2,60,70,0
2,52,70,80
2,57,66,172
2,60,90,28
2,57,62,0
2,52,54,4
2,57,58,80
2,52,78,192
2,55,66,4
2,52,82,0
2,59,62,0
2,55,70,64
2,59,94,0
2,52,74,28
2,55,58,192
2,52,70,96
2,59,86,0
2,55,90,84
2,52,46,192
2,55,86,32
2,59,94,0
2,52,90,0
2,55,94,68
2,59,90,0
2,52,86,80
2,55,74,176
2,59,94,96
2,52,106,0
2,55,70,84
2,52,78,156
2,55,86,16
2,52,86,4
2,59,78,0
2,55,90,92
2,52,74,0
2,59,90,4
2,52,94,28
2,55,66,92
2,59,54,0
2,59,94,16
2,55,70,64
2,52,66,0
2,52,42,80
2,59,62,4
2,59,98,64
2,64,98,4
2,55,86,0
2,59,74,44
2,64,102,4
2,55,66,0
2,55,78,92
2,59,82,64
2,62,70,0
2,55,74,4
2,55,78,16
2,59,78,44
2,55,78,0
2,59,82,16
2,55,94,4
2,59,98,28
2,63,94,4
2,54,94,0
2,59,62,44
2,63,106,0
2,54,102,128
2,59,50,108
2,54,82,80
2,63,106,0
2,54,98,92
2,54,102,0
2,63,54,4
2,59,38,0
2,59,54,20
2,63,106,0
2,54,62,0
2,59,58,44
2,63,98,0
2,54,78,4
2,54,110,92
2,54,82,48
2,63,78,0
2,57,78,20
2,63,86,0
2,59,94,0
2,54,62,2
2,54,86,128
2,63,94,108
2,64,86,0
2,59,86,4
2,55,86,0
2,59,70,44
2,64,94,0
2,55,78,108
2,59,66,172
2,64,82,108
2,55,50,80
2,59,74,44
2,64,82,108
2,55,82,0
2,59,58,4
2,59,82,28
2,64,86,4
2,55,70,32
2,59,70,192
2,64,86,28
2,55,86,0
2,59,78,92
2,55,42,32
2,64,78,0
2,60,98,48
2,57,98,0
2,64,98,0
2,60,74,108
2,64,98,0
2,57,90,112
2,60,82,172
2,64,98,80
2,57,82,0
2,60,78,84
2,57,62,0
2,57,70,92
2,60,82,84
2,64,106,0
2,60,90,16
2,64,94,4
2,57,70,68
2,60,86,148
2,64,98,84
2,57,86,0
2,60,82,96
2,57,78,68
2,64,94,0
2,52,70,20
2,55,62,0
2,59,66,0
