track,note,velocity,time
1,34,104,3
1,34,103,0
1,39,102,0
1,41,91,0
1,44,92,0
1,44,99,0
1,44,100,0
1,34,106,0
1,34,100,0
1,39,105,0
1,41,94,0
1,44,93,0
1,44,93,0
1,44,100,0
1,34,103,0
1,34,90,0
1,39,93,0
1,41,104,0
1,44,103,0
1,44,93,0
1,44,93,0
1,34,93,0
1,34,97,0
1,39,98,0
1,41,99,0
1,44,92,0
1,44,93,0
1,44,92,0
1,34,101,0
1,34,94,1440
1,34,98,1440
1,22,104,1440
1,22,102,720
1,24,102,0
1,26,103,0
1,27,92,0
1,27,96,0
1,34,103,0
1,37,96,0
1,39,95,0
1,39,93,0
1,34,101,0
1,37,99,0
1,46,92,0
1,46,103,0
1,41,101,0
1,44,94,0
1,34,98,0
1,34,104,0
1,29,104,0
1,34,91,0
1,41,98,0
1,41,102,0
1,36,96,0
1,41,98,0
1,39,98,0
1,39,98,0
1,34,97,0
1,39,98,0
1,34,92,0
1,29,94,0
1,31,93,0
1,33,91,0
1,34,90,0
1,29,96,0
1,29,103,0
1,29,98,0
1,29,98,0
1,29,91,0
1,34,99,480
1,41,101,720
1,34,96,0
1,41,103,720
1,34,100,0
1,41,106,720
1,34,94,0
1,41,99,720
1,34,90,0
1,41,103,720
1,34,94,0
1,41,103,720
1,34,95,0
1,41,105,720
1,34,92,0
1,34,99,720
1,36,102,0
1,38,94,0
1,39,93,0
1,39,103,0
1,34,102,0
1,37,105,0
1,39,105,0
1,39,96,0
1,34,91,0
1,37,94,0
1,34,97,0
1,34,99,0
1,29,106,0
1,32,98,0
1,34,98,0
1,34,106,0
1,29,90,0
1,34,101,0
1,41,104,0
1,41,106,0
1,36,93,0
1,41,99,0
1,39,92,0
1,39,93,0
1,34,106,0
1,39,92,0
1,34,104,0
1,29,90,0
1,31,98,0
1,33,92,0
1,34,105,0
1,34,94,0
1,29,103,0
1,29,95,0
1,29,95,0
1,29,93,0
1,29,95,0
1,34,95,480
1,41,104,720
1,34,90,0
1,41,102,720
1,34,105,0
1,41,99,720
1,34,97,0
1,41,96,720
1,34,100,0
1,41,104,720
1,34,98,0
1,41,91,720
1,34,102,0
1,41,97,720
1,34,91,0
1,34,92,720
1,36,93,0
1,38,98,0
1,39,90,0
1,39,98,0
1,34,97,0
1,37,101,0
1,39,104,0
1,39,91,0
1,34,101,0
1,37,94,0
1,34,95,0
1,34,97,0
1,29,94,0
1,32,101,0
1,34,94,0
1,34,98,0
1,29,103,0
1,34,90,0
1,41,91,0
1,41,95,0
1,36,95,0
1,41,102,0
1,39,97,0
1,39,100,0
1,34,104,0
1,39,99,0
1,34,96,0
1,29,100,0
1,31,102,0
1,33,98,0
1,34,104,0
1,34,93,0
1,29,97,0
1,29,99,0
1,29,94,0
1,29,98,0
1,29,106,0
1,34,94,480
1,41,95,720
1,34,97,0
1,41,106,720
1,34,97,0
1,41,103,720
1,34,106,0
1,41,106,720
1,34,98,0
1,41,100,720
1,34,106,0
1,41,96,720
1,34,95,0
1,41,103,720
1,34,93,0
1,34,99,720
1,36,100,0
1,38,95,0
1,39,96,0
1,39,92,0
1,34,105,0
1,37,99,0
1,39,98,0
1,39,103,0
1,34,104,0
1,37,101,0
1,34,104,0
1,34,91,0
1,29,97,0
1,32,96,0
1,34,96,0
1,34,106,0
1,29,106,0
1,34,100,0
1,41,102,0
1,41,98,0
1,36,93,0
1,41,101,0
1,39,94,0
1,39,104,0
1,34,102,0
1,39,106,0
1,34,90,0
1,29,105,0
1,31,94,0
1,33,102,0
1,34,92,0
1,29,94,0
1,29,103,0
1,29,98,0
1,29,92,0
1,29,103,0
1,34,102,480
1,41,93,720
1,34,101,0
1,41,97,720
1,34,104,0
1,41,99,720
1,34,90,0
1,41,105,720
1,34,99,0
1,41,104,720
1,34,94,0
1,41,90,720
1,34,100,0
1,41,92,720
1,34,101,0
1,34,92,180
1,36,82,0
1,38,87,0
1,39,80,0
1,39,86,0
1,34,81,0
1,37,83,0
1,39,73,0
1,39,75,0
1,34,73,0
1,37,62,0
1,34,72,0
1,34,71,0
1,29,70,0
1,32,60,0
1,34,63,0
1,34,61,0
1,29,61,0
1,34,56,0
1,41,56,0
1,41,48,0
1,36,37,0
1,41,48,0
1,39,42,0
1,39,28,0
1,34,27,0
1,39,37,0
1,34,32,0
1,29,18,0
1,31,22,0
1,33,22,0
1,34,23,0
1,29,18,0
1,29,8,0
1,29,14,0
1,29,18,0
1,29,17,0
2,46,96,15
2,46,106,0
2,51,104,0
2,53,92,0
2,56,104,0
2,56,96,0
2,56,95,0
2,46,101,0
2,46,99,0
2,51,92,0
2,53,92,0
2,56,94,0
2,56,99,0
2,56,101,0
2,46,106,0
2,46,91,0
2,51,98,0
2,53,96,0
2,56,99,0
2,56,90,0
2,56,93,0
2,46,99,0
2,46,90,0
2,51,103,0
2,53,98,0
2,56,98,0
2,56,103,0
2,56,104,0
2,46,94,0
2,46,97,1440
2,46,106,1440
2,34,94,1440
2,34,98,720
2,36,96,0
2,38,95,0
2,39,90,0
2,39,93,0
2,46,93,0
2,49,103,0
2,51,90,0
2,51,104,0
2,46,106,0
2,49,97,0
2,58,98,0
2,58,103,0
2,53,90,0
2,56,99,0
2,46,100,0
2,46,91,0
2,41,105,0
2,46,90,0
2,53,93,0
2,53,103,0
2,48,94,0
2,53,91,0
2,51,102,0
2,51,92,0
2,46,92,0
2,51,95,0
2,46,95,0
2,41,102,0
2,43,91,0
2,45,97,0
2,46,103,0
2,41,96,0
2,41,92,0
2,41,102,0
2,41,91,0
2,41,101,0
2,46,92,480
2,53,96,720
2,46,92,0
2,53,103,720
2,46,92,0
2,53,94,720
2,46,91,0
2,53,97,720
2,46,95,0
2,53,95,720
2,46,94,0
2,53,103,720
2,46,96,0
2,53,104,720
2,46,97,0
2,46,99,720
2,48,100,0
2,50,90,0
2,51,98,0
2,51,106,0
2,46,91,0
2,49,104,0
2,51,92,0
2,51,103,0
2,46,90,0
2,49,93,0
2,46,101,0
2,46,101,0
2,41,99,0
2,44,104,0
2,46,106,0
2,46,97,0
2,41,97,0
2,46,101,0
2,53,94,0
2,53,105,0
2,48,95,0
2,53,95,0
2,51,106,0
2,51,105,0
2,46,93,0
2,51,100,0
2,46,100,0
2,41,91,0
2,43,102,0
2,45,94,0
2,46,105,0
2,46,97,0
2,41,101,0
2,41,93,0
2,41,105,0
2,41,90,0
2,41,103,0
2,46,90,480
2,53,104,720
2,46,103,0
2,53,101,720
2,46,103,0
2,53,99,720
2,46,96,0
2,53,103,720
2,46,98,0
2,53,91,720
2,46,92,0
2,53,90,720
2,46,95,0
2,53,106,720
2,46,96,0
2,46,99,720
2,48,92,0
2,50,100,0
2,51,92,0
2,51,97,0
2,46,93,0
2,49,94,0
2,51,95,0
2,51,92,0
2,46,92,0
2,49,102,0
2,46,104,0
2,46,96,0
2,41,101,0
2,44,99,0
2,46,94,0
2,46,93,0
2,41,98,0
2,46,98,0
2,53,104,0
2,53,102,0
2,48,98,0
2,53,98,0
2,51,93,0
2,51,102,0
2,46,95,0
2,51,95,0
2,46,105,0
2,41,95,0
2,43,99,0
2,45,104,0
2,46,100,0
2,46,90,0
2,41,93,0
2,41,104,0
2,41,95,0
2,41,100,0
2,41,97,0
2,46,92,480
2,53,104,720
2,46,90,0
2,53,92,720
2,46,95,0
2,53,95,720
2,46,92,0
2,53,100,720
2,46,106,0
2,53,98,720
2,46,96,0
2,53,101,720
2,46,101,0
2,53,106,720
2,46,98,0
2,46,105,720
2,48,93,0
2,50,95,0
2,51,102,0
2,51,105,0
2,46,90,0
2,49,93,0
2,51,104,0
2,51,94,0
2,46,104,0
2,49,105,0
2,46,100,0
2,46,99,0
2,41,104,0
2,44,105,0
2,46,97,0
2,46,99,0
2,41,97,0
2,46,97,0
2,53,95,0
2,53,99,0
2,48,106,0
2,53,94,0
2,51,99,0
2,51,104,0
2,46,90,0
2,51,98,0
2,46,104,0
2,41,97,0
2,43,99,0
2,45,106,0
2,46,91,0
2,41,106,0
2,41,106,0
2,41,93,0
2,41,103,0
2,41,92,0
2,46,101,480
2,53,102,720
2,46,102,0
2,53,90,720
2,46,99,0
2,53,99,720
2,46,99,0
2,53,93,720
2,46,103,0
2,53,100,720
2,46,104,0
2,53,100,720
2,46,92,0
2,53,101,720
2,46,96,0
2,46,90,180
2,48,94,0
2,50,90,0
2,51,89,0
2,51,86,0
2,46,80,0
2,49,72,0
2,51,71,0
2,51,70,0
2,46,75,0
2,49,67,0
2,46,68,0
2,46,59,0
2,41,63,0
2,44,60,0
2,46,59,0
2,46,59,0
2,41,57,0
2,46,57,0
2,53,49,0
2,53,40,0
2,48,41,0
2,53,35,0
2,51,30,0
2,51,42,0
2,46,34,0
2,51,35,0
2,46,26,0
2,41,27,0
2,43,19,0
2,45,27,0
2,46,17,0
2,41,15,0
2,41,11,0
2,41,22,0
2,41,19,0
2,41,5,0
3,46,98,0
3,46,104,0
3,51,108,0
3,53,109,0
3,56,117,0
3,56,107,0
3,56,117,0
3,46,112,0
3,46,117,0
3,51,113,0
3,53,108,0
3,56,102,0
3,56,114,0
3,56,116,0
3,46,109,0
3,46,114,0
3,51,98,0
3,53,100,0
3,56,109,0
3,56,114,0
3,56,101,0
3,46,109,0
3,46,116,0
3,51,101,0
3,53,109,0
3,56,104,0
3,56,99,0
3,56,108,0
3,46,105,0
3,46,105,1440
3,46,109,1440
3,34,101,1440
3,34,101,720
3,36,112,0
3,38,98,0
3,39,106,0
3,39,113,0
3,46,117,0
3,49,99,0
3,51,115,0
3,51,102,0
3,46,105,0
3,49,117,0
3,58,98,0
3,58,107,0
3,53,102,0
3,56,109,0
3,46,107,0
3,46,107,0
3,41,99,0
3,46,117,0
3,53,105,0
3,53,99,0
3,48,113,0
3,53,103,0
3,51,110,0
3,51,103,0
3,46,101,0
3,51,100,0
3,46,99,0
3,41,103,0
3,43,98,0
3,45,98,0
3,46,98,0
3,41,109,0
3,41,116,0
3,41,108,0
3,41,115,0
3,41,113,0
3,46,109,480
3,53,99,720
3,46,117,0
3,53,103,720
3,46,107,0
3,53,109,720
3,46,116,0
3,53,108,720
3,46,101,0
3,53,98,720
3,46,116,0
3,53,114,720
3,46,106,0
3,53,98,720
3,46,106,0
3,46,113,720
3,48,98,0
3,50,108,0
3,51,102,0
3,51,114,0
3,46,114,0
3,49,113,0
3,51,107,0
3,51,117,0
3,46,113,0
3,49,108,0
3,46,99,0
3,46,112,0
3,41,100,0
3,44,107,0
3,46,113,0
3,46,100,0
3,41,108,0
3,46,115,0
3,53,98,0
3,53,118,0
3,48,104,0
3,53,115,0
3,51,109,0
3,51,106,0
3,46,117,0
3,51,108,0
3,46,117,0
3,41,112,0
3,43,116,0
3,45,109,0
3,46,102,0
3,46,109,0
3,41,101,0
3,41,99,0
3,41,109,0
3,41,107,0
3,41,103,0
3,46,107,480
3,53,107,720
3,46,99,0
3,53,102,720
3,46,113,0
3,53,98,720
3,46,118,0
3,53,110,720
3,46,106,0
3,53,113,720
3,46,114,0
3,53,106,720
3,46,99,0
3,53,109,720
3,46,116,0
3,46,118,720
3,48,118,0
3,50,99,0
3,51,118,0
3,51,112,0
3,46,99,0
3,49,108,0
3,51,109,0
3,51,102,0
3,46,105,0
3,49,105,0
3,46,112,0
3,46,107,0
3,41,113,0
3,44,99,0
3,46,109,0
3,46,116,0
3,41,108,0
3,46,99,0
3,53,104,0
3,53,99,0
3,48,104,0
3,53,117,0
3,51,102,0
3,51,118,0
3,46,107,0
3,51,109,0
3,46,116,0
3,41,108,0
3,43,99,0
3,45,117,0
3,46,102,0
3,46,114,0
3,41,99,0
3,41,99,0
3,41,108,0
3,41,99,0
3,41,118,0
3,46,118,480
3,53,118,720
3,46,102,0
3,53,109,720
3,46,117,0
3,53,104,720
3,46,101,0
3,53,118,720
3,46,112,0
3,53,101,720
3,46,105,0
3,53,112,720
3,46,109,0
3,53,100,720
3,46,109,0
3,46,101,720
3,48,115,0
3,50,118,0
3,51,101,0
3,51,109,0
3,46,98,0
3,49,98,0
3,51,111,0
3,51,118,0
3,46,116,0
3,49,98,0
3,46,105,0
3,46,98,0
3,41,118,0
3,44,111,0
3,46,114,0
3,46,114,0
3,41,102,0
3,46,118,0
3,53,115,0
3,53,104,0
3,48,99,0
3,53,99,0
3,51,107,0
3,51,101,0
3,46,118,0
3,51,98,0
3,46,114,0
3,41,103,0
3,43,118,0
3,45,116,0
3,46,99,0
3,41,99,0
3,41,117,0
3,41,102,0
3,41,104,0
3,41,107,0
3,46,104,480
3,53,100,720
3,46,105,0
3,53,107,720
3,46,107,0
3,53,113,720
3,46,118,0
3,53,115,720
3,46,99,0
3,53,107,720
3,46,118,0
3,53,103,720
3,46,98,0
3,53,99,720
3,46,105,0
3,46,91,180
3,48,103,0
3,50,104,0
3,51,100,0
3,51,85,0
3,46,95,0
3,49,85,0
3,51,81,0
3,51,83,0
3,46,87,0
3,49,85,0
3,46,80,0
3,46,73,0
3,41,81,0
3,44,67,0
3,46,58,0
3,46,74,0
3,41,61,0
3,46,65,0
3,53,54,0
3,53,46,0
3,48,56,0
3,53,58,0
3,51,41,0
3,51,39,0
3,46,34,0
3,51,51,0
3,46,30,0
3,41,36,0
3,43,34,0
3,45,22,0
3,46,31,0
3,41,35,0
3,41,19,0
3,41,26,0
3,41,20,0
3,41,19,0
4,65,89,483
4,68,94,0
4,70,92,0
4,65,103,480
4,68,93,0
4,70,99,0
4,65,98,480
4,68,96,0
4,70,89,0
4,65,104,480
4,68,105,0
4,70,101,0
4,65,103,480
4,68,90,0
4,70,89,0
4,65,107,480
4,68,90,0
4,70,89,0
4,65,107,480
4,68,99,0
4,70,90,0
4,65,90,480
4,68,106,0
4,70,105,0
4,70,91,0
4,74,99,0
4,62,93,0
4,70,100,1440
4,74,104,0
4,62,93,0
4,70,90,1440
4,74,98,0
4,62,93,0
4,70,99,480
4,73,109,0
4,68,101,0
4,75,107,1920
4,79,109,0
4,75,107,0
4,79,106,0
4,75,107,0
4,79,99,0
4,75,105,0
4,79,102,0
4,75,107,0
4,79,92,0
4,75,90,0
4,79,89,0
4,77,100,0
4,80,95,0
4,75,99,0
4,79,94,0
4,74,89,960
4,77,93,0
4,74,96,0
4,77,107,0
4,74,93,0
4,77,98,0
4,74,99,0
4,77,91,0
4,74,100,0
4,77,107,0
4,74,90,0
4,77,95,0
4,75,95,0
4,79,94,0
4,74,93,0
4,77,98,0
4,72,92,480
4,75,108,0
4,70,92,0
4,73,106,0
4,74,89,480
4,77,94,0
4,74,109,0
4,77,97,0
4,73,91,0
4,76,109,0
4,72,99,0
4,75,90,0
4,70,109,0
4,74,93,0
4,65,99,0
4,65,91,0
4,65,108,0
4,65,92,0
4,65,90,0
4,70,90,480
4,74,89,0
4,62,100,0
4,69,101,720
4,73,107,0
4,63,90,0
4,70,93,0
4,74,100,0
4,62,91,0
4,69,90,720
4,73,100,0
4,63,90,0
4,70,94,0
4,74,105,0
4,62,108,0
4,69,99,720
4,73,92,0
4,63,99,0
4,70,98,0
4,74,89,0
4,62,92,0
4,70,98,0
4,70,89,0
4,69,95,0
4,73,104,0
4,63,98,0
4,70,93,0
4,74,106,0
4,62,109,0
4,69,101,720
4,73,96,0
4,63,98,0
4,70,109,0
4,74,95,0
4,62,106,0
4,69,108,720
4,73,90,0
4,63,96,0
4,70,100,0
4,74,91,0
4,62,108,0
4,73,107,600
4,69,92,120
4,63,97,0
4,70,108,0
4,74,98,0
4,62,106,0
4,63,105,600
4,75,104,480
4,79,93,0
4,75,97,0
4,79,91,0
4,75,100,0
4,79,99,0
4,75,92,0
4,79,107,0
4,75,109,0
4,79,103,0
4,75,106,0
4,79,109,0
4,77,105,0
4,80,105,0
4,75,95,0
4,79,108,0
4,74,92,960
4,77,98,0
4,74,109,0
4,77,109,0
4,74,91,0
4,77,98,0
4,74,93,0
4,77,108,0
4,74,99,0
4,77,108,0
4,74,101,0
4,77,107,0
