track,note,velocity,time
1,34,127,1
1,34,127,0
1,39,127,0
1,41,127,0
1,44,127,0
1,44,127,0
1,44,127,0
1,34,127,0
1,34,127,0
1,39,127,0
1,41,127,0
1,44,127,0
1,44,127,0
1,44,127,0
1,34,127,0
1,34,127,0
1,39,127,0
1,41,127,0
1,44,127,0
1,44,127,0
1,44,127,0
1,34,127,0
1,34,127,0
1,39,127,0
1,41,127,0
1,44,127,0
1,44,127,0
1,44,127,0
1,34,127,0
1,34,127,288
1,34,127,288
1,22,127,288
1,22,127,144
1,24,127,0
1,26,127,0
1,27,127,0
1,27,127,0
1,34,127,0
1,37,127,0
1,39,127,0
1,39,127,0
1,34,127,0
1,37,127,0
1,46,127,0
1,46,127,0
1,41,127,0
1,44,127,0
1,34,127,0
1,34,127,0
1,29,127,0
1,34,127,0
1,41,127,0
1,41,127,0
1,36,127,0
1,41,127,0
1,39,127,0
1,39,127,0
1,34,127,0
1,39,127,0
1,34,127,0
1,29,127,0
1,31,127,0
1,33,127,0
1,34,127,0
1,29,127,0
1,29,127,0
1,29,127,0
1,29,127,0
1,29,127,0
1,34,127,96
1,41,127,144
1,34,127,0
1,41,127,144
1,34,127,0
1,41,127,144
1,34,127,0
1,41,127,144
1,34,127,0
1,41,127,144
1,34,127,0
1,41,127,144
1,34,127,0
1,41,127,144
1,34,127,0
1,34,127,144
1,36,127,0
1,38,127,0
1,39,127,0
1,39,127,0
1,34,127,0
1,37,127,0
1,39,127,0
1,39,127,0
1,34,127,0
1,37,127,0
1,34,127,0
1,34,127,0
1,29,127,0
1,32,127,0
1,34,127,0
1,34,127,0
1,29,127,0
1,34,127,0
1,41,127,0
1,41,127,0
1,36,127,0
1,41,127,0
1,39,127,0
1,39,127,0
1,34,127,0
1,39,127,0
1,34,127,0
1,29,127,0
1,31,127,0
1,33,127,0
1,34,127,0
1,34,127,0
1,29,127,0
1,29,127,0
1,29,127,0
1,29,127,0
1,29,127,0
1,34,127,96
1,41,127,144
1,34,127,0
1,41,127,144
1,34,127,0
1,41,127,144
1,34,127,0
1,41,127,144
1,34,127,0
1,41,127,144
1,34,127,0
1,41,127,144
1,34,127,0
1,41,127,144
1,34,127,0
1,34,127,144
1,36,127,0
1,38,127,0
1,39,127,0
1,39,127,0
1,34,127,0
1,37,127,0
1,39,127,0
1,39,127,0
1,34,127,0
1,37,127,0
1,34,127,0
1,34,127,0
1,29,127,0
1,32,127,0
1,34,127,0
1,34,127,0
1,29,127,0
1,34,127,0
1,41,127,0
1,41,127,0
1,36,127,0
1,41,127,0
1,39,127,0
1,39,127,0
1,34,127,0
1,39,127,0
1,34,127,0
1,29,127,0
1,31,127,0
1,33,127,0
1,34,127,0
1,34,127,0
1,29,127,0
1,29,127,0
1,29,127,0
1,29,127,0
1,29,127,0
1,34,127,96
1,41,127,144
1,34,127,0
1,41,127,144
1,34,127,0
1,41,127,144
1,34,127,0
1,41,127,144
1,34,127,0
1,41,127,144
1,34,127,0
1,41,127,144
1,34,127,0
1,41,127,144
1,34,127,0
1,34,127,144
1,36,127,0
1,38,127,0
1,39,127,0
1,39,127,0
1,34,127,0
1,37,127,0
1,39,127,0
1,39,127,0
1,34,127,0
1,37,127,0
1,34,127,0
1,34,127,0
1,29,127,0
1,32,127,0
1,34,127,0
1,34,127,0
1,29,127,0
1,34,127,0
1,41,127,0
1,41,127,0
1,36,127,0
1,41,127,0
1,39,127,0
1,39,127,0
1,34,127,0
1,39,127,0
1,34,127,0
1,29,127,0
1,31,127,0
1,33,127,0
1,34,127,0
1,29,127,0
1,29,127,0
1,29,127,0
1,29,127,0
1,29,127,0
1,34,127,96
1,41,127,144
1,34,127,0
1,41,127,144
1,34,127,0
1,41,127,144
1,34,127,0
1,41,127,144
1,34,127,0
1,41,127,144
1,34,127,0
1,41,127,144
1,34,127,0
1,41,127,144
1,34,127,0
1,34,127,36
1,36,127,0
1,38,127,0
1,39,127,0
1,39,127,0
1,34,127,0
1,37,127,0
1,39,127,0
1,39,127,0
1,34,127,0
1,37,127,0
1,34,127,0
1,34,127,0
1,29,127,0
1,32,127,0
1,34,127,0
1,34,127,0
1,29,127,0
1,34,127,0
1,41,127,0
1,41,127,0
1,36,127,0
1,41,127,0
1,39,127,0
1,39,127,0
1,34,127,0
1,39,127,0
1,34,127,0
1,29,127,0
1,31,127,0
1,33,127,0
1,34,127,0
1,29,127,0
1,29,127,0
1,29,127,0
1,29,127,0
1,29,127,0
2,34,96,3
2,34,96,0
2,39,96,0
2,41,96,0
2,44,96,0
2,44,96,0
2,44,96,0
2,34,96,0
2,34,96,0
2,39,96,0
2,41,96,0
2,44,96,0
2,44,96,0
2,44,96,0
2,34,96,0
2,34,96,0
2,39,96,0
2,41,96,0
2,44,96,0
2,44,96,0
2,44,96,0
2,34,96,0
2,34,96,0
2,39,96,0
2,41,96,0
2,44,96,0
2,44,96,0
2,44,96,0
2,34,96,0
2,34,96,288
2,34,96,288
2,22,96,288
2,22,96,144
2,24,96,0
2,26,96,0
2,27,96,0
2,27,96,0
2,34,96,0
2,37,96,0
2,39,96,0
2,39,96,0
2,34,96,0
2,37,96,0
2,46,96,0
2,46,96,0
2,41,96,0
2,44,96,0
2,34,96,0
2,34,96,0
2,29,96,0
2,34,96,0
2,41,96,0
2,41,96,0
2,36,96,0
2,41,96,0
2,39,96,0
2,39,96,0
2,34,96,0
2,39,96,0
2,34,96,0
2,29,96,0
2,31,96,0
2,33,96,0
2,34,96,0
2,29,96,0
2,29,96,0
2,29,96,0
2,29,96,0
2,29,96,0
2,34,96,96
2,41,96,144
2,34,96,0
2,41,96,144
2,34,96,0
2,41,96,144
2,34,96,0
2,41,96,144
2,34,96,0
2,41,96,144
2,34,96,0
2,41,96,144
2,34,96,0
2,41,96,144
2,34,96,0
2,34,96,144
2,36,96,0
2,38,96,0
2,39,96,0
2,39,96,0
2,34,96,0
2,37,96,0
2,39,96,0
2,39,96,0
2,34,96,0
2,37,96,0
2,34,96,0
2,34,96,0
2,29,96,0
2,32,96,0
2,34,96,0
2,34,96,0
2,29,96,0
2,34,96,0
2,41,96,0
2,41,96,0
2,36,96,0
2,41,96,0
2,39,96,0
2,39,96,0
2,34,96,0
2,39,96,0
2,34,96,0
2,29,96,0
2,31,96,0
2,33,96,0
2,34,96,0
2,34,96,0
2,29,96,0
2,29,96,0
2,29,96,0
2,29,96,0
2,29,96,0
2,34,96,96
2,41,96,144
2,34,96,0
2,41,96,144
2,34,96,0
2,41,96,144
2,34,96,0
2,41,96,144
2,34,96,0
2,41,96,144
2,34,96,0
2,41,96,144
2,34,96,0
2,41,96,144
2,34,96,0
2,34,96,144
2,36,96,0
2,38,96,0
2,39,96,0
2,39,96,0
2,34,96,0
2,37,96,0
2,39,96,0
2,39,96,0
2,34,96,0
2,37,96,0
2,34,96,0
2,34,96,0
2,29,96,0
2,32,96,0
2,34,96,0
2,34,96,0
2,29,96,0
2,34,96,0
2,41,96,0
2,41,96,0
2,36,96,0
2,41,96,0
2,39,96,0
2,39,96,0
2,34,96,0
2,39,96,0
2,34,96,0
2,29,96,0
2,31,96,0
2,33,96,0
2,34,96,0
2,34,96,0
2,29,96,0
2,29,96,0
2,29,96,0
2,29,96,0
2,29,96,0
2,34,96,96
2,41,96,144
2,34,96,0
2,41,96,144
2,34,96,0
2,41,96,144
2,34,96,0
2,41,96,144
2,34,96,0
2,41,96,144
2,34,96,0
2,41,96,144
2,34,96,0
2,41,96,144
2,34,96,0
2,34,96,144
2,36,96,0
2,38,96,0
2,39,96,0
2,39,96,0
2,34,96,0
2,37,96,0
2,39,96,0
2,39,96,0
2,34,96,0
2,37,96,0
2,34,96,0
2,34,96,0
2,29,96,0
2,32,96,0
2,34,96,0
2,34,96,0
2,29,96,0
2,34,96,0
2,41,96,0
2,41,96,0
2,36,96,0
2,41,96,0
2,39,96,0
2,39,96,0
2,34,96,0
2,39,96,0
2,34,96,0
2,29,96,0
2,31,96,0
2,33,96,0
2,34,96,0
2,29,96,0
2,29,96,0
2,29,96,0
2,29,96,0
2,29,96,0
2,34,96,96
2,41,96,144
2,34,96,0
2,41,96,144
2,34,96,0
2,41,96,144
2,34,96,0
2,41,96,144
2,34,96,0
2,41,96,144
2,34,96,0
2,41,96,144
2,34,96,0
2,41,96,144
2,34,96,0
2,34,96,36
2,36,96,0
2,38,96,0
2,39,96,0
2,39,96,0
2,34,94,0
2,37,89,0
2,39,89,0
2,39,88,0
2,34,92,0
2,37,87,0
2,34,87,0
2,34,82,0
2,29,84,0
2,32,82,0
2,34,82,0
2,34,82,0
2,29,80,0
2,34,80,0
2,41,76,0
2,41,71,0
2,36,71,0
2,41,68,0
2,39,64,0
2,39,71,0
2,34,67,0
2,39,68,0
2,34,62,0
2,29,63,0
2,31,59,0
2,33,63,0
2,34,57,0
2,29,56,0
2,29,54,0
2,29,61,0
2,29,59,0
2,29,50,0
3,46,127,0
3,46,127,0
3,51,127,0
3,53,127,0
3,56,127,0
3,56,127,0
3,56,127,0
3,46,127,0
3,46,127,0
3,51,127,0
3,53,127,0
3,56,127,0
3,56,127,0
3,56,127,0
3,46,127,0
3,46,127,0
3,51,127,0
3,53,127,0
3,56,127,0
3,56,127,0
3,56,127,0
3,46,127,0
3,46,127,0
3,51,127,0
3,53,127,0
3,56,127,0
3,56,127,0
3,56,127,0
3,46,127,0
3,46,127,288
3,46,127,288
3,34,127,288
3,34,127,144
3,36,127,0
3,38,127,0
3,39,127,0
3,39,127,0
3,46,127,0
3,49,127,0
3,51,127,0
3,51,127,0
3,46,127,0
3,49,127,0
3,58,127,0
3,58,127,0
3,53,127,0
3,56,127,0
3,46,127,0
3,46,127,0
3,41,127,0
3,46,127,0
3,53,127,0
3,53,127,0
3,48,127,0
3,53,127,0
3,51,127,0
3,51,127,0
3,46,127,0
3,51,127,0
3,46,127,0
3,41,127,0
3,43,127,0
3,45,127,0
3,46,127,0
3,41,127,0
3,41,127,0
3,41,127,0
3,41,127,0
3,41,127,0
3,46,127,96
3,53,127,144
3,46,127,0
3,53,127,144
3,46,127,0
3,53,127,144
3,46,127,0
3,53,127,144
3,46,127,0
3,53,127,144
3,46,127,0
3,53,127,144
3,46,127,0
3,53,127,144
3,46,127,0
3,46,127,144
3,48,127,0
3,50,127,0
3,51,127,0
3,51,127,0
3,46,127,0
3,49,127,0
3,51,127,0
3,51,127,0
3,46,127,0
3,49,127,0
3,46,127,0
3,46,127,0
3,41,127,0
3,44,127,0
3,46,127,0
3,46,127,0
3,41,127,0
3,46,127,0
3,53,127,0
3,53,127,0
3,48,127,0
3,53,127,0
3,51,127,0
3,51,127,0
3,46,127,0
3,51,127,0
3,46,127,0
3,41,127,0
3,43,127,0
3,45,127,0
3,46,127,0
3,46,127,0
3,41,127,0
3,41,127,0
3,41,127,0
3,41,127,0
3,41,127,0
3,46,127,96
3,53,127,144
3,46,127,0
3,53,127,144
3,46,127,0
3,53,127,144
3,46,127,0
3,53,127,144
3,46,127,0
3,53,127,144
3,46,127,0
3,53,127,144
3,46,127,0
3,53,127,144
3,46,127,0
3,46,127,144
3,48,127,0
3,50,127,0
3,51,127,0
3,51,127,0
3,46,127,0
3,49,127,0
3,51,127,0
3,51,127,0
3,46,127,0
3,49,127,0
3,46,127,0
3,46,127,0
3,41,127,0
3,44,127,0
3,46,127,0
3,46,127,0
3,41,127,0
3,46,127,0
3,53,127,0
3,53,127,0
3,48,127,0
3,53,127,0
3,51,127,0
3,51,127,0
3,46,127,0
3,51,127,0
3,46,127,0
3,41,127,0
3,43,127,0
3,45,127,0
3,46,127,0
3,46,127,0
3,41,127,0
3,41,127,0
3,41,127,0
3,41,127,0
3,41,127,0
3,46,127,96
3,53,127,144
3,46,127,0
3,53,127,144
3,46,127,0
3,53,127,144
3,46,127,0
3,53,127,144
3,46,127,0
3,53,127,144
3,46,127,0
3,53,127,144
3,46,127,0
3,53,127,144
3,46,127,0
3,46,127,144
3,48,127,0
3,50,127,0
3,51,127,0
3,51,127,0
3,46,127,0
3,49,127,0
3,51,127,0
3,51,127,0
3,46,127,0
3,49,127,0
3,46,127,0
3,46,127,0
3,41,127,0
3,44,127,0
3,46,127,0
3,46,127,0
3,41,127,0
3,46,127,0
3,53,127,0
3,53,127,0
3,48,127,0
3,53,127,0
3,51,127,0
3,51,127,0
3,46,127,0
3,51,127,0
3,46,127,0
3,41,127,0
3,43,127,0
3,45,127,0
3,46,127,0
3,41,127,0
3,41,127,0
3,41,127,0
3,41,127,0
3,41,127,0
3,46,127,96
3,53,127,144
3,46,127,0
3,53,127,144
3,46,127,0
3,53,127,144
3,46,127,0
3,53,127,144
3,46,127,0
3,53,127,144
3,46,127,0
3,53,127,144
3,46,127,0
3,53,127,144
3,46,127,0
3,46,126,36
3,48,127,0
3,50,127,0
3,51,127,0
3,51,117,0
3,46,127,0
3,49,117,0
3,51,112,0
3,51,115,0
3,46,120,0
3,49,117,0
3,46,110,0
3,46,101,0
3,41,112,0
3,44,93,0
3,46,80,0
3,46,102,0
3,41,83,0
3,46,89,0
3,53,74,0
3,53,63,0
3,48,77,0
3,53,80,0
3,51,56,0
3,51,54,0
3,46,47,0
3,51,70,0
3,46,41,0
3,41,49,0
3,43,47,0
3,45,29,0
3,46,42,0
3,41,48,0
3,41,25,0
3,41,35,0
3,41,27,0
3,41,25,0
4,65,90,97
4,68,94,0
4,70,92,0
4,65,104,96
4,68,93,0
4,70,99,0
4,65,99,96
4,68,97,0
4,70,90,0
4,65,105,96
4,68,106,0
4,70,102,0
4,65,104,96
4,68,90,0
4,70,90,0
4,65,108,96
4,68,90,0
4,70,90,0
4,65,108,96
4,68,99,0
4,70,90,0
4,65,90,96
4,68,108,0
4,70,106,0
4,70,91,0
4,74,99,0
4,62,93,0
4,70,101,288
4,74,105,0
4,62,93,0
4,70,90,288
4,74,99,0
4,62,93,0
4,70,99,96
4,73,108,0
4,68,102,0
4,75,108,384
4,79,108,0
4,75,108,0
4,79,108,0
4,75,108,0
4,79,99,0
4,75,106,0
4,79,103,0
4,75,108,0
4,79,92,0
4,75,90,0
4,79,90,0
4,77,101,0
4,80,96,0
4,75,99,0
4,79,94,0
4,74,90,192
4,77,93,0
4,74,97,0
4,77,108,0
4,74,93,0
4,77,99,0
4,74,99,0
4,77,91,0
4,74,101,0
4,77,108,0
4,74,90,0
4,77,96,0
4,75,96,0
4,79,94,0
4,74,93,0
4,77,99,0
4,72,92,96
4,75,108,0
4,70,92,0
4,73,108,0
4,74,90,96
4,77,94,0
4,74,108,0
4,77,98,0
4,73,91,0
4,76,108,0
4,72,99,0
4,75,90,0
4,70,108,0
4,74,93,0
4,65,99,0
4,65,91,0
4,65,108,0
4,65,92,0
4,65,90,0
4,70,90,96
4,74,90,0
4,62,101,0
4,69,102,144
4,73,108,0
4,63,90,0
4,70,93,0
4,74,101,0
4,62,91,0
4,69,90,144
4,73,101,0
4,63,90,0
4,70,94,0
4,74,106,0
4,62,108,0
4,69,99,144
4,73,92,0
4,63,99,0
4,70,99,0
4,74,90,0
4,62,92,0
4,70,99,0
4,70,90,0
4,69,96,0
4,73,105,0
4,63,99,0
4,70,93,0
4,74,108,0
4,62,108,0
4,69,102,144
4,73,97,0
4,63,99,0
4,70,108,0
4,74,96,0
4,62,108,0
4,69,108,144
4,73,90,0
4,63,97,0
4,70,101,0
4,74,91,0
4,62,108,0
4,73,108,120
4,69,92,24
4,63,98,0
4,70,108,0
4,74,99,0
4,62,108,0
4,63,106,120
4,75,105,96
4,79,93,0
4,75,98,0
4,79,91,0
4,75,101,0
4,79,99,0
4,75,92,0
4,79,108,0
4,75,108,0
4,79,104,0
4,75,108,0
4,79,108,0
4,77,106,0
4,80,106,0
4,75,96,0
4,79,108,0
4,74,92,192
4,77,99,0
4,74,108,0
4,77,108,0
4,74,91,0
4,77,99,0
4,74,93,0
4,77,108,0
4,74,99,0
4,77,108,0
4,74,102,0
4,77,108,0
