track,note,velocity,time
0,66,87,661
0,66,0,35
0,66,84,22
0,66,0,29
0,66,74,25
0,66,0,29
0,66,79,17
0,71,86,1
0,62,71,3
0,64,68,4
0,66,0,1
0,47,72,26
0,71,0,26
0,62,0,3
0,64,0,6
0,50,71,5
0,54,79,42
0,71,64,50
0,47,0,22
0,57,60,27
0,73,88,56
0,50,0,20
0,57,64,43
0,54,0,13
0,71,0,9
0,71,76,10
0,57,0,2
0,73,0,3
0,57,0,6
0,73,70,4
0,71,0,2
0,71,69,21
0,73,0,8
0,71,0,13
0,69,74,12
0,42,53,45
0,69,0,7
0,49,58,0
0,52,50,41
0,57,64,9
0,61,54,36
0,42,0,1
0,49,0,19
0,66,66,2
0,52,0,8
0,69,54,27
0,73,67,21
0,57,0,5
0,61,0,16
0,78,67,2
0,66,0,8
0,81,74,23
0,85,65,33
0,69,0,6
0,73,0,18
0,90,69,2
0,78,0,8
0,93,82,25
0,81,0,33
0,97,58,10
0,85,0,25
0,102,59,15
0,90,0,9
0,93,0,260
0,97,0,17
0,102,0,13
0,47,81,80
0,50,80,17
0,54,83,13
0,57,82,17
0,74,114,41
0,47,0,40
0,70,96,9
0,50,0,10
0,71,102,0
0,54,0,33
0,74,100,15
0,57,0,30
0,74,85,17
0,70,96,1
0,74,0,13
0,71,91,0
0,70,0,26
0,71,0,5
0,70,89,22
0,74,85,3
0,71,80,5
0,74,0,5
0,74,0,12
0,70,0,5
0,71,0,9
0,70,0,1
0,74,0,1
0,71,0,1
0,71,69,17
0,74,82,2
0,71,0,37
0,74,0,11
0,69,70,12
0,74,71,2
0,42,48,40
0,69,0,18
0,74,0,14
0,49,57,5
0,52,61,48
0,57,77,43
0,62,61,49
0,42,0,38
0,66,76,10
0,49,0,3
0,52,0,14
0,54,67,49
0,57,39,10
0,57,0,4
0,62,0,5
0,57,69,41
0,66,0,46
0,61,56,10
0,54,0,10
0,57,0,26
0,57,0,9
0,57,72,1
0,61,0,3
0,41,58,36
0,40,63,0
0,65,66,8
0,57,0,3
0,41,0,16
0,53,64,18
0,56,78,43
0,40,0,33
0,65,0,1
0,47,69,10
0,53,0,9
0,56,0,28
0,64,86,4
0,47,0,2
0,55,75,0
0,40,82,0
0,59,78,1
0,64,0,1
0,47,78,42
0,52,66,35
0,55,0,29
0,55,87,7
0,40,0,30
0,59,78,5
0,64,77,45
0,59,0,31
0,47,0,2
0,62,74,4
0,52,0,14
0,55,0,8
0,44,74,2
0,42,41,1
0,59,0,11
0,43,78,1
0,64,0,1
0,41,49,1
0,62,0,1
0,44,72,8
0,44,0,1
0,42,0,4
0,43,0,4
0,41,0,1
0,64,80,0
0,55,70,1
0,59,62,2
0,45,95,1
0,44,0,1
0,64,0,42
0,55,0,7
0,59,0,2
0,55,67,15
0,64,67,5
0,59,66,1
0,45,0,59
0,62,69,0
0,55,0,55
0,64,73,3
0,62,61,48
0,64,0,1
0,59,0,12
0,62,0,6
0,64,0,18
0,59,56,28
0,62,0,15
0,54,47,74
0,57,59,4
0,62,9,2
0,38,35,31
0,59,0,11
0,45,50,46
0,54,0,11
0,50,60,4
0,57,0,17
0,62,0,16
0,54,52,8
0,57,56,27
0,38,0,2
0,45,0,9
0,61,62,20
0,50,0,10
0,66,72,25
0,54,0,29
0,69,56,8
0,57,0,13
0,73,68,9
0,61,0,10
0,78,72,24
0,66,0,31
0,81,54,11
0,69,0,13
0,85,68,24
0,73,0,9
0,90,49,35
0,78,0,21
0,93,54,24
0,81,0,16
0,97,45,28
0,85,0,11
0,102,53,55
0,90,0,21
0,105,43,68
0,93,0,10
0,97,0,94
0,102,0,14
0,105,0,0
0,55,79,63
0,52,78,0
0,43,78,2
0,59,82,0
0,48,76,1
0,36,49,3
0,55,0,1
0,52,0,32
0,43,0,12
0,59,0,13
0,69,114,110
0,48,0,39
0,66,74,32
0,36,0,49
0,62,54,2
0,64,60,51
0,69,0,37
0,62,49,7
0,66,0,33
0,59,45,13
0,62,0,11
0,57,55,31
0,64,0,36
0,62,48,15
0,62,0,47
0,59,49,1
0,59,0,40
0,57,0,12
0,62,0,0
0,57,60,7
0,59,0,44
0,54,33,27
0,45,41,24
0,38,46,42
0,57,0,4
0,45,53,39
0,50,56,34
0,54,0,15
0,54,43,55
0,57,32,92
0,45,0,8
0,61,53,75
0,50,37,7
0,38,0,3
0,45,0,81
0,54,35,6
0,50,0,109
0,54,0,24
0,57,0,95
0,45,55,5
0,61,0,2
0,38,58,24
0,50,0,1
0,45,28,18
0,50,64,12
0,54,0,10
0,50,56,36
0,45,0,12
0,38,0,7
0,50,70,26
0,54,72,55
0,45,0,39
0,57,78,48
0,50,0,8
0,50,0,26
0,57,84,6
0,50,0,26
0,59,79,23
0,54,0,65
0,57,0,15
0,62,90,13
0,57,0,2
0,45,45,95
0,59,0,12
0,62,0,18
0,57,54,81
0,45,0,8
0,57,66,28
0,57,0,28
0,57,0,6
0,31,61,12
0,55,52,4
0,43,45,3
0,59,54,1
0,31,0,79
0,62,67,9
0,55,0,52
0,43,0,4
0,59,75,30
0,55,57,1
0,64,65,2
0,59,0,6
0,62,0,1
0,59,0,9
0,66,77,65
0,59,67,5
0,55,52,1
0,55,0,7
0,64,0,3
0,66,0,5
0,59,0,36
0,55,0,6
0,55,51,36
0,31,60,0
0,62,58,1
0,59,54,2
0,43,42,1
0,55,0,5
0,55,40,28
0,31,0,16
0,62,0,62
0,43,46,8
0,59,0,20
0,43,0,9
0,55,52,11
0,55,0,28
0,43,0,5
0,45,66,7
0,55,0,19
0,45,0,14
0,45,55,19
0,45,0,26
0,38,42,7
0,54,57,4
0,62,56,2
0,59,60,1
0,38,0,88
0,57,36,4
0,54,0,3
0,62,0,4
0,54,57,66
0,57,67,4
0,45,47,86
0,59,0,62
0,50,46,22
0,54,35,97
0,57,0,12
0,54,0,4
0,57,0,3
0,45,0,42
0,50,55,32
0,50,0,15
0,50,46,64
0,54,0,5
0,73,56,27
0,78,47,21
0,50,0,3
0,38,35,6
0,50,0,9
0,83,75,4
0,73,0,9
0,78,0,48
0,81,47,22
0,38,0,9
0,81,75,82
0,83,0,39
0,69,44,57
0,81,0,9
0,81,0,18
0,73,43,13
0,69,0,35
0,78,67,5
0,45,27,12
0,73,0,4
0,73,43,74
0,78,0,31
0,69,40,10
0,45,0,25
0,50,52,24
0,73,0,25
0,66,39,8
0,69,0,8
0,50,52,42
0,50,0,13
0,50,65,31
0,66,0,6
0,38,57,37
0,57,70,5
0,62,71,2
0,50,0,28
0,62,64,4
0,66,74,50
0,50,0,11
0,50,64,46
0,38,0,25
0,57,0,2
0,62,0,3
0,69,88,9
0,50,71,44
0,62,0,17
0,66,0,1
0,50,0,1
0,50,71,25
0,69,0,9
0,50,0,11
0,38,54,3
0,66,82,6
0,57,85,0
0,61,78,1
0,50,0,14
0,62,72,27
0,38,0,14
0,66,0,17
0,62,72,12
0,57,0,39
0,50,62,7
0,61,0,22
0,57,58,18
0,62,0,26
0,62,0,8
0,50,71,9
0,50,0,1
0,57,0,4
0,50,0,14
0,50,55,26
0,50,0,34
0,50,44,7
0,43,74,1
0,55,67,21
0,50,0,10
0,55,77,31
0,43,0,3
0,55,0,27
0,50,77,22
0,59,88,1
0,55,50,5
0,55,0,25
0,50,0,12
0,62,85,1
0,55,29,5
0,59,0,3
0,55,0,13
0,62,0,8
0,50,77,12
0,55,0,5
0,50,0,44
0,52,66,4
0,43,61,1
0,64,71,1
0,59,75,0
0,55,68,2
0,52,0,64
0,59,67,14
0,43,0,27
0,62,76,18
0,64,0,36
0,59,0,28
0,55,0,13
0,59,0,53
0,55,56,3
0,62,0,10
0,55,0,15
0,38,59,16
0,45,51,21
0,50,59,17
0,62,61,10
0,59,63,2
0,54,52,0
0,57,67,74
0,38,0,10
0,45,0,20
0,50,0,9
0,54,54,53
0,57,69,1
0,62,0,33
0,59,0,24
0,45,54,32
0,50,48,89
0,54,0,6
0,54,45,86
0,57,0,9
0,54,0,25
0,57,0,15
0,50,41,41
0,45,0,6
0,50,0,8
0,50,41,72
0,54,0,17
0,73,41,15
0,50,0,10
0,78,49,4
0,38,47,30
0,50,0,3
0,83,57,4
0,73,0,50
0,78,0,25
0,81,67,10
0,38,0,8
0,83,0,24
0,45,54,70
0,54,56,39
0,81,0,46
0,57,69,0
0,54,69,34
0,45,0,30
0,54,0,2
0,57,0,14
0,62,80,3
0,50,86,2
0,54,0,39
0,54,66,1
0,62,0,21
0,50,0,28
0,57,72,2
0,54,74,37
0,49,98,46
0,54,0,2
0,37,91,1
0,57,0,26
0,54,0,10
0,54,75,5
0,49,0,1
0,57,79,48
0,37,0,9
0,41,75,38
0,54,0,11
0,57,0,8
0,41,0,2
0,54,98,14
0,47,82,2
0,62,85,1
0,35,85,1
0,59,83,0
0,54,0,72
0,54,67,13
0,47,0,30
0,62,0,2
0,35,0,3
0,59,0,32
0,47,77,26
0,66,85,88
0,54,0,20
0,66,72,19
0,47,0,16
0,66,0,16
0,66,0,6
0,35,83,7
0,47,62,12
0,62,86,9
0,71,95,1
0,66,92,0
0,35,0,1
0,47,0,4
0,62,0,13
0,71,81,15
0,71,0,20
0,66,0,7
0,47,71,55
0,71,0,24
0,47,0,5
0,73,89,7
0,71,85,49
0,73,0,10
0,71,0,2
0,57,69,3
0,69,59,2
0,61,59,0
0,30,61,2
0,42,45,4
0,57,0,53
0,69,0,21
0,57,63,5
0,61,0,12
0,42,35,65
0,30,0,4
0,42,0,0
0,57,0,42
0,69,67,2
0,42,47,46
0,42,0,25
0,69,0,15
0,42,50,6
0,42,0,3
0,42,0,32
0,30,80,6
0,61,77,2
0,66,83,1
0,57,77,1
0,30,0,13
0,57,66,34
0,61,0,69
0,42,47,9
0,66,0,35
0,57,0,5
0,57,63,3
0,46,81,49
0,57,0,3
0,34,69,1
0,42,0,8
0,57,0,10
0,46,0,5
0,34,0,1
0,35,63,65
0,47,59,3
0,54,72,1
0,62,67,1
0,59,69,1
0,35,0,49
0,54,41,22
0,47,0,13
0,54,0,3
0,62,0,15
0,59,0,32
0,47,58,37
0,54,0,31
0,66,91,53
0,47,0,22
0,66,79,19
0,66,0,11
0,47,68,0
0,66,0,23
0,35,67,15
0,62,83,9
0,66,84,1
0,71,88,1
0,47,0,58
0,35,0,7
0,62,0,13
0,71,79,8
0,66,0,21
0,71,0,13
0,47,68,50
0,71,0,29
0,47,0,7
0,73,90,7
0,73,0,48
0,71,78,1
0,71,0,41
0,73,30,10
0,73,0,10
0,71,66,1
0,71,0,17
0,69,75,5
0,30,70,3
0,69,0,29
0,42,35,18
0,30,0,53
0,42,56,37
0,57,59,50
0,61,62,42
0,66,92,36
0,42,0,2
0,42,0,4
0,30,67,4
0,57,0,2
0,57,69,8
0,61,68,43
0,61,0,4
0,66,0,5
0,30,0,6
0,57,0,5
0,61,0,11
0,29,61,49
0,41,45,3
0,65,63,1
0,60,54,23
0,29,0,32
0,56,53,10
0,41,0,14
0,65,0,4
0,60,0,4
0,56,0,1
0,28,44,29
0,40,61,3
0,64,81,21
0,55,71,1
0,59,72,1
0,28,0,67
0,64,64,21
0,40,0,32
0,62,62,9
0,64,0,52
0,64,71,3
0,55,0,11
0,59,0,1
0,64,0,1
0,62,0,2
0,64,0,2
0,64,74,64
0,55,65,0
0,59,58,1
0,64,0,22
0,55,0,10
0,59,0,0
0,62,64,12
0,33,69,10
0,62,0,1
0,45,69,10
0,55,66,10
0,64,70,1
0,59,62,1
0,33,0,2
0,64,61,28
0,45,0,34
0,62,67,4
0,55,0,4
0,45,59,42
0,64,0,3
0,64,74,5
0,59,0,13
0,64,0,1
0,62,0,8
0,45,0,30
0,64,0,7
0,62,65,1
0,62,0,48
0,59,58,4
0,59,0,29
0,45,54,11
0,57,69,5
0,38,49,3
0,45,0,2
0,45,46,28
0,57,0,40
0,50,43,56
0,54,43,83
0,38,0,19
0,57,27,28
0,45,0,41
0,61,56,1
0,50,46,2
0,50,0,46
0,57,51,43
0,54,0,4
0,50,51,76
0,57,0,14
0,61,0,14
0,50,0,6
0,54,48,4
0,57,0,13
0,50,0,20
0,54,0,2
0,36,64,16
0,48,59,25
0,59,62,3
0,55,67,1
0,52,40,3
0,36,0,18
0,48,0,29
0,59,0,12
0,55,0,23
0,48,61,46
0,69,111,39
0,52,0,39
0,66,71,3
0,62,49,49
0,48,0,13
0,59,52,23
0,36,53,21
0,69,0,41
0,64,60,3
0,66,0,4
0,62,60,38
0,62,0,2
0,59,0,18
0,36,0,12
0,64,0,1
0,59,64,11
0,62,0,11
0,48,55,18
0,62,61,19
0,59,0,15
0,48,0,11
0,59,41,24
0,60,35,2
0,62,0,10
0,59,0,23
0,57,62,6
0,45,46,19
0,54,49,5
0,38,52,3
0,60,0,4
0,45,37,33
0,57,0,59
0,50,44,32
0,54,35,84
0,45,0,3
0,54,0,1
0,38,0,42
0,54,4,33
0,50,37,10
0,57,42,5
0,61,33,5
0,45,0,13
0,50,0,58
0,54,28,21
0,54,0,44
0,50,42,41
0,54,0,83
0,50,0,3
0,57,0,36
0,38,52,5
0,50,52,13
0,61,0,1
0,50,58,44
0,54,0,12
0,50,0,18
0,50,62,21
0,38,0,24
0,54,72,27
0,50,0,25
0,50,0,41
0,50,0,2
0,57,86,16
0,54,0,9
0,57,92,28
0,57,0,18
0,50,56,31
0,59,91,1
0,57,0,2
0,62,98,6
0,50,0,16
0,59,0,45
0,40,69,25
0,62,0,52
0,40,0,19
0,42,75,16
0,57,94,3
0,42,0,15
0,57,0,5
0,57,85,17
0,57,0,30
0,55,82,4
0,59,80,2
0,43,73,1
0,55,0,27
0,62,69,5
0,59,0,5
0,43,0,14
0,50,79,70
0,64,81,8
0,62,0,62
0,50,0,16
0,52,69,3
0,66,80,1
0,64,0,27
0,54,68,68
0,59,61,3
0,62,67,1
0,52,0,5
0,66,0,70
0,54,0,33
0,55,46,25
0,43,33,1
0,59,0,5
0,62,0,7
0,55,0,20
0,43,0,59
0,59,58,2
0,59,0,9
0,45,54,30
0,38,54,43
0,45,0,4
0,62,50,0
0,59,56,2
0,54,21,2
0,57,62,84
0,38,0,4
0,62,0,8
0,59,0,5
0,57,61,61
0,54,33,2
0,45,49,5
0,54,0,80
0,50,46,4
0,57,0,85
0,54,28,11
0,57,0,9
0,54,0,4
0,45,0,34
0,50,42,37
0,50,0,17
0,50,46,63
0,54,0,2
0,73,50,24
0,78,56,21
0,50,0,1
0,50,0,3
0,38,47,11
0,83,76,14
0,73,0,3
0,78,0,40
0,81,53,8
0,38,0,10
0,83,0,20
0,81,80,65
0,50,62,1
0,81,0,31
0,78,58,10
0,73,50,45
0,81,0,1
0,50,0,6
0,78,0,19
0,69,38,11
0,73,0,8
0,38,46,35
0,73,51,1
0,69,0,31
0,69,34,17
0,38,0,19
0,66,52,14
0,73,0,9
0,66,51,34
0,69,0,8
0,61,43,42
0,50,57,11
0,66,0,32
0,57,54,6
0,66,0,37
0,61,0,49
0,45,72,9
0,50,0,5
0,57,0,26
0,38,72,17
0,62,86,5
0,57,98,1
0,45,0,25
0,62,71,3
0,38,0,39
0,62,0,3
0,66,82,15
0,57,10,0
0,57,0,30
0,62,0,29
0,50,68,2
0,66,0,15
0,57,0,4
0,50,0,70
0,69,77,24
0,69,0,27
0,38,66,28
0,66,86,15
0,61,85,1
0,57,86,1
0,38,0,44
0,62,82,16
0,66,0,6
0,61,0,9
0,57,0,4
0,57,90,26
0,62,81,0
0,50,76,52
0,62,0,1
0,57,0,22
0,57,86,13
0,62,0,8
0,50,0,23
0,50,84,3
0,57,0,10
0,50,0,12
0,50,77,26
0,50,0,31
0,50,86,18
0,43,78,1
0,59,82,1
0,55,72,2
0,50,0,23
0,43,0,4
0,59,0,3
0,55,61,21
0,59,69,1
0,55,0,12
0,55,0,24
0,54,77,15
0,62,80,1
0,55,80,3
0,59,0,28
0,54,0,1
0,62,0,53
0,55,82,6
0,59,79,1
0,43,81,42
