track,note,velocity,time
1,67,91,2672
1,74,95,0
1,71,95,0
1,67,79,136
1,71,85,0
1,74,83,0
1,67,83,132
1,71,89,0
1,74,85,0
1,67,85,140
1,71,93,0
1,74,93,0
1,67,79,128
1,71,83,4
1,74,83,0
1,67,85,132
1,71,89,0
1,74,85,0
1,67,77,132
1,71,87,0
1,74,85,0
1,67,79,136
1,71,87,0
1,74,83,0
1,67,87,132
1,74,87,0
1,71,89,0
1,67,77,132
1,71,85,0
1,74,75,0
1,67,66,132
1,71,77,0
1,74,62,4
1,67,79,132
1,74,83,0
1,71,79,4
1,67,85,136
1,71,91,0
1,74,85,0
1,67,85,132
1,71,91,0
1,74,85,0
1,67,64,132
1,71,71,0
1,74,66,4
1,67,89,136
1,71,95,0
1,74,89,0
1,67,91,136
1,74,93,0
1,71,95,0
1,67,56,128
1,71,64,0
1,74,48,4
1,67,89,128
1,71,93,0
1,74,85,0
1,71,89,140
1,67,79,0
1,74,81,0
1,67,85,136
1,74,85,4
1,71,91,0
1,74,91,132
1,67,89,4
1,71,93,0
1,74,85,132
1,67,81,0
1,71,89,0
1,67,95,128
1,74,101,0
1,71,101,0
1,67,79,144
1,64,85,0
1,71,60,0
1,64,89,132
1,67,85,0
1,71,71,0
1,64,83,132
1,71,75,0
1,67,85,0
1,64,83,132
1,71,79,0
1,67,83,0
1,64,64,132
1,67,73,0
1,71,60,0
1,64,71,132
1,67,81,0
1,71,64,0
1,64,91,136
1,67,91,0
1,71,85,0
1,64,85,132
1,71,87,0
1,67,87,0
1,72,95,136
1,64,97,0
1,67,101,4
1,72,62,124
1,64,70,0
1,67,79,0
1,64,89,124
1,72,83,0
1,67,89,0
1,64,79,132
1,72,73,0
1,67,81,0
1,64,79,120
1,72,75,0
1,67,81,0
1,64,87,124
1,67,79,0
1,72,64,0
1,72,93,132
1,64,101,0
1,67,99,0
1,64,95,132
1,72,89,0
1,67,99,0
1,66,91,132
1,74,97,4
1,69,107,0
1,66,83,136
1,69,103,0
1,74,87,0
1,74,71,140
1,66,64,0
1,69,83,0
1,66,75,148
1,74,83,0
1,69,91,0
1,66,79,140
1,74,87,0
1,69,93,0
1,66,77,132
1,69,95,0
1,74,68,0
1,66,81,128
1,74,87,0
1,69,101,0
1,66,83,132
1,74,85,4
1,69,97,0
1,67,87,136
1,71,89,0
1,74,87,0
1,67,87,136
1,74,83,0
1,71,91,0
1,67,83,132
1,74,75,0
1,71,85,0
1,67,89,132
1,74,75,0
1,71,87,0
1,67,73,132
1,74,75,0
1,71,83,0
1,67,89,132
1,74,83,0
1,71,89,0
1,67,91,140
1,74,93,0
1,71,93,0
1,67,95,132
1,74,97,0
1,71,101,0
1,67,89,144
1,64,93,0
1,71,68,0
1,67,85,132
1,64,85,0
1,71,73,0
1,64,87,132
1,71,71,0
1,67,87,0
1,67,91,132
1,64,91,0
1,71,81,0
1,71,81,136
1,64,85,0
1,67,87,0
1,71,89,124
1,67,89,0
1,64,83,0
1,71,85,120
1,64,83,0
1,67,91,0
1,71,89,124
1,67,95,0
1,64,87,0
1,72,85,128
1,67,95,4
1,64,79,0
1,64,85,120
1,72,75,0
1,67,87,0
1,72,75,132
1,64,83,0
1,67,87,0
1,72,77,120
1,64,81,0
1,67,85,0
1,64,73,132
1,72,68,0
1,67,81,0
1,64,91,132
1,72,81,0
1,67,91,0
1,64,95,132
1,72,83,0
1,67,93,0
1,72,91,128
1,64,105,0
1,67,105,0
1,66,83,140
1,74,73,0
1,69,66,0
1,66,87,136
1,69,107,0
1,74,97,0
1,66,83,144
1,69,103,0
1,74,91,0
1,66,83,140
1,69,109,0
1,74,99,0
1,66,75,144
1,69,95,0
1,74,83,0
1,66,83,140
1,69,99,0
1,74,91,0
1,66,83,128
1,69,99,0
1,74,85,0
1,66,85,132
1,74,93,0
1,69,97,0
1,64,101,128
1,72,87,0
1,67,97,0
1,72,71,124
1,67,79,0
1,64,68,0
1,72,62,120
1,64,71,0
1,67,66,0
1,72,71,120
1,67,87,0
1,64,77,0
1,72,75,128
1,64,87,0
1,67,91,0
1,72,64,124
1,64,73,0
1,67,83,0
1,64,93,124
1,72,85,0
1,67,95,0
1,65,107,132
1,68,103,0
1,73,103,0
1,66,99,140
1,69,116,0
1,74,111,0
1,74,64,1472
1,67,60,4
1,71,77,0
1,67,77,128
1,71,91,0
1,74,79,0
1,67,83,136
1,71,87,0
1,74,81,0
1,67,93,128
1,71,97,4
1,74,93,0
1,74,68,132
1,67,68,0
1,71,79,0
1,67,87,124
1,71,95,0
1,74,93,0
1,67,75,136
1,71,79,0
1,74,75,0
1,67,91,132
1,74,91,0
1,71,89,0
1,67,85,136
1,74,89,0
1,71,93,0
1,67,79,132
1,71,91,0
1,74,73,0
1,67,91,132
1,71,97,0
1,74,91,0
1,67,83,132
1,74,85,0
1,71,89,0
1,67,75,132
1,71,85,0
1,74,75,0
1,67,85,132
1,71,93,0
1,74,87,0
1,67,81,136
1,71,91,0
1,74,83,0
1,67,85,132
1,74,85,0
1,71,89,0
1,67,83,140
1,71,91,0
1,74,79,0
1,67,71,132
1,71,85,0
1,74,71,0
1,67,79,136
1,71,85,0
1,74,75,0
1,67,73,136
1,71,83,0
1,74,68,0
1,67,77,136
1,74,79,0
1,71,85,0
1,67,77,132
1,74,66,0
1,71,79,0
1,67,89,136
1,74,87,0
1,71,93,0
1,67,93,136
1,71,101,0
1,74,95,0
1,67,89,140
1,64,93,0
1,71,70,0
1,64,81,140
1,67,79,0
1,71,66,0
1,64,95,128
1,71,87,0
1,67,95,0
1,67,85,128
1,64,79,0
1,71,71,0
1,64,68,132
1,71,62,0
1,67,75,0
1,64,85,132
1,71,83,0
1,67,89,0
1,64,85,136
1,71,75,0
1,67,87,0
1,71,99,128
1,64,97,0
1,67,103,0
1,72,95,128
1,67,101,0
1,64,93,0
1,67,83,124
1,64,71,0
1,72,60,0
1,72,75,128
1,67,85,4
1,64,79,0
1,64,87,124
1,72,79,0
1,67,89,0
1,64,83,128
1,72,71,0
1,67,85,0
1,72,83,132
1,64,81,0
1,67,89,0
1,72,83,132
1,64,93,0
1,67,93,0
1,64,91,128
1,72,85,0
1,67,97,0
1,66,85,140
1,74,89,0
1,69,101,0
1,66,79,144
1,69,93,0
1,74,68,0
1,66,68,136
1,69,89,0
1,74,68,0
1,66,73,144
1,74,83,0
1,69,95,0
1,66,79,144
1,69,93,0
1,74,75,0
1,69,99,136
1,66,77,0
1,74,79,0
1,69,93,144
1,74,81,0
1,66,73,0
1,66,83,128
1,74,97,0
1,69,103,0
1,71,103,132
1,67,89,0
1,74,99,0
1,67,87,140
1,71,97,0
1,74,93,0
1,74,93,136
1,67,85,0
1,71,93,0
1,67,73,132
1,74,70,0
1,71,81,0
1,67,93,128
1,74,93,0
1,71,95,0
1,67,71,128
1,74,60,0
1,71,79,0
1,67,85,132
1,74,81,0
1,71,91,0
1,74,85,128
1,67,85,0
1,71,91,0
1,71,79,140
1,67,91,0
1,64,83,0
1,67,85,128
1,64,75,0
1,71,66,0
1,67,97,132
1,64,91,0
1,71,87,0
1,67,81,128
1,64,81,0
1,71,77,0
1,64,81,140
1,67,85,0
1,71,81,0
1,67,89,136
1,64,85,0
1,71,83,0
1,67,87,132
1,64,85,4
1,71,85,0
1,67,91,128
1,71,95,4
1,64,87,0
1,67,107,140
1,64,97,0
1,72,101,0
1,64,70,128
1,67,79,4
1,72,60,0
1,64,85,132
1,72,79,0
1,67,87,4
1,72,73,128
1,67,81,0
1,64,71,4
1,64,83,132
1,72,75,0
1,67,87,0
1,64,95,140
1,72,85,0
1,67,97,0
1,72,87,140
1,67,99,0
1,64,97,0
1,64,107,140
1,67,111,0
1,72,101,0
1,74,99,148
1,66,93,0
1,69,112,0
1,66,79,140
1,69,91,0
1,74,71,0
1,66,83,140
1,69,103,0
1,74,87,0
1,66,81,140
1,69,103,0
1,74,95,0
1,69,97,140
1,74,85,0
1,66,75,4
1,66,85,144
1,74,99,0
1,69,105,0
1,66,79,144
1,69,97,0
1,74,89,0
1,66,87,124
1,69,111,0
1,74,103,0
1,64,105,136
1,72,99,0
1,67,103,0
1,67,95,136
1,64,89,0
1,72,89,0
1,64,89,136
1,72,85,0
1,67,93,0
1,67,97,132
1,72,89,0
1,64,93,0
1,72,81,136
1,67,89,0
1,64,79,0
1,72,91,132
1,67,101,0
1,64,95,0
1,64,103,128
1,72,95,0
1,67,107,0
1,68,112,132
1,65,101,0
1,73,77,0
1,66,99,140
1,74,109,0
1,69,115,0
1,74,79,1456
1,67,79,0
1,71,83,0
1,67,85,136
1,71,93,0
1,74,85,0
1,67,77,132
1,71,89,0
1,74,81,0
1,67,85,136
1,71,93,0
1,74,91,0
1,74,75,140
1,67,68,0
1,71,79,0
1,67,83,140
1,74,87,0
1,71,89,0
1,67,75,140
1,71,85,0
1,74,81,0
1,67,81,136
1,71,93,4
1,74,81,0
1,67,85,144
1,71,91,4
1,74,85,0
1,74,75,136
1,67,70,0
1,71,81,0
1,67,89,136
1,74,89,0
1,71,93,0
1,67,75,140
1,71,87,0
1,74,75,0
1,67,87,140
1,74,87,0
1,71,95,0
1,67,71,140
1,74,81,0
1,71,91,0
1,67,93,140
1,71,101,0
1,74,89,0
1,67,91,132
1,71,97,0
1,74,91,0
1,67,84,140
1,71,91,0
1,64,67,4
1,67,101,124
1,64,89,0
1,71,93,0
1,67,83,132
1,64,79,0
1,71,71,0
1,67,87,136
1,64,79,0
1,71,75,0
1,64,85,136
1,67,81,0
1,71,79,0
1,64,83,136
1,67,87,0
1,71,79,0
1,71,85,128
1,67,93,4
1,64,83,0
1,67,97,132
1,71,93,0
1,64,85,0
1,67,91,136
1,71,85,0
1,64,81,0
1,67,95,136
1,64,87,0
1,71,89,0
1,71,85,136
1,67,87,0
1,64,81,0
1,67,101,132
1,71,95,0
1,64,85,0
1,71,93,140
1,67,97,0
1,64,91,0
1,71,91,136
1,67,93,0
1,64,85,0
1,71,95,136
1,67,101,0
1,64,87,0
1,71,93,136
1,67,95,0
1,64,83,0
1,64,99,136
1,72,99,0
1,67,109,0
1,64,83,132
1,72,73,0
1,67,85,0
1,72,75,132
1,64,83,0
1,67,79,0
1,64,77,132
1,72,77,0
1,67,79,0
1,67,83,124
1,64,75,0
1,72,73,0
1,64,83,128
1,72,79,0
1,67,81,4
1,72,85,136
1,64,89,0
1,67,93,0
1,64,70,128
1,72,64,0
1,67,77,0
1,64,87,136
1,72,75,0
1,67,89,4
1,72,66,128
1,64,68,0
1,67,79,0
1,64,85,128
1,72,81,0
1,67,93,0
1,64,73,124
1,72,71,0
1,67,87,0
1,64,89,136
1,72,83,0
1,67,93,0
1,72,89,136
1,64,93,0
1,67,97,0
1,64,101,132
1,72,97,0
1,67,107,0
1,64,107,132
1,72,103,0
1,67,111,0
1,74,97,136
1,66,83,4
1,69,109,0
1,66,83,144
1,74,89,0
1,69,95,0
1,66,70,140
1,69,79,0
1,74,60,0
1,66,87,136
1,69,111,0
1,74,99,0
1,66,79,140
1,74,71,0
1,69,89,0
1,66,79,136
1,74,85,0
1,69,97,0
1,74,79,140
1,66,75,0
1,69,97,0
1,74,91,128
1,66,83,0
1,69,107,0
1,66,71,136
1,74,71,0
1,69,87,0
1,74,87,136
1,66,77,0
1,69,101,0
1,66,77,144
1,74,77,0
1,69,83,0
1,66,77,144
1,69,93,0
1,74,79,0
1,66,83,144
1,69,105,0
1,74,89,0
1,66,81,144
1,74,87,0
1,69,97,0
1,66,85,148
1,74,95,0
1,69,103,0
1,66,87,132
1,69,111,0
1,74,97,0
1,71,85,148
1,74,87,0
1,67,79,0
1,71,95,132
1,67,85,0
1,74,89,0
1,67,70,136
1,74,83,4
1,71,79,0
1,67,68,132
1,71,71,4
1,74,54,0
1,67,85,132
1,71,91,0
1,74,87,0
1,67,89,140
1,71,89,0
1,74,85,0
1,67,91,132
1,74,95,0
1,71,99,0
1,67,91,128
1,71,101,0
1,74,97,0
1,67,99,144
1,71,85,0
1,64,97,0
1,64,81,140
1,71,85,0
1,67,91,0
1,71,77,140
1,64,73,0
1,67,81,0
1,64,83,132
1,71,85,0
1,67,91,0
1,67,93,140
1,71,87,0
1,64,85,0
1,67,95,144
1,64,87,0
1,71,87,0
1,64,91,144
1,71,93,0
1,67,93,0
1,67,101,136
1,71,93,0
1,64,87,0
1,72,89,136
1,64,93,0
1,67,101,0
1,72,77,128
1,64,79,0
1,67,87,0
1,64,75,136
1,72,70,0
1,67,85,0
1,64,75,136
1,72,68,0
1,67,83,0
1,72,79,144
1,64,81,0
1,67,87,0
1,72,68,128
1,64,75,0
1,67,81,4
1,64,89,132
1,67,93,0
1,72,85,0
1,64,97,132
1,72,97,0
1,67,103,0
1,66,77,144
1,74,89,0
1,69,97,4
1,66,75,136
1,69,89,0
1,74,60,4
1,66,81,128
1,69,101,0
1,74,87,0
1,66,75,136
1,69,93,0
1,74,83,0
1,74,73,136
1,66,68,0
1,69,87,0
1,74,83,140
1,69,93,0
1,66,60,0
1,74,79,132
1,66,79,0
1,69,93,0
1,66,87,124
1,69,107,4
1,74,97,0
1,67,87,136
1,74,87,0
1,71,89,0
1,67,85,128
1,74,77,0
1,71,85,4
1,74,73,136
1,67,71,0
1,71,75,0
1,67,79,128
1,74,89,0
1,71,81,0
1,67,87,128
1,74,87,0
1,71,87,4
1,67,79,128
1,74,79,0
1,71,79,4
1,67,93,128
1,74,97,0
1,71,95,0
1,67,101,124
1,74,101,0
1,71,105,0
1,64,99,140
1,71,85,0
1,67,93,4
1,64,83,136
1,71,85,0
1,67,83,0
1,71,93,124
1,64,85,0
1,67,87,0
1,64,85,124
1,71,91,0
1,67,93,0
1,64,83,132
1,71,81,0
1,67,85,0
1,64,89,132
1,71,91,0
1,67,87,0
1,71,99,132
1,64,99,0
1,67,97,0
1,71,93,124
1,64,87,0
1,67,93,0
1,72,95,124
1,67,95,4
1,64,68,0
1,72,60,132
1,67,79,0
1,64,60,0
1,72,79,120
1,67,89,0
1,64,75,0
1,64,89,132
1,72,87,0
1,67,91,0
1,72,75,136
1,64,83,0
1,67,83,0
1,72,81,128
1,67,93,0
1,64,85,0
1,64,97,132
1,72,91,0
1,67,99,0
1,64,101,136
1,72,93,0
1,67,101,0
1,66,95,140
1,74,97,0
1,69,113,0
1,66,83,136
1,74,91,0
1,69,101,0
1,66,79,136
1,74,79,0
1,69,89,0
1,66,83,132
1,69,103,0
1,74,89,0
1,66,77,136
1,69,93,0
1,74,79,0
1,66,79,136
1,74,83,4
1,69,95,0
1,66,83,144
1,74,79,0
1,69,89,0
1,66,81,136
1,74,89,0
1,69,91,0
1,64,103,136
1,72,68,0
1,67,93,0
1,67,75,136
1,64,73,0
1,72,56,0
1,72,75,128
1,67,85,0
1,64,79,0
1,64,75,128
1,72,71,0
1,67,85,0
1,72,77,132
1,64,87,0
1,67,89,0
1,72,79,120
1,64,79,0
1,67,83,0
1,64,87,116
1,72,75,0
1,67,91,0
1,65,109,136
1,68,112,0
1,73,87,0
1,66,87,144
1,69,107,4
1,74,99,0
1,67,75,1452
1,74,83,0
1,71,85,4
1,74,81,128
1,67,75,0
1,71,79,0
1,71,97,136
1,74,91,0
1,67,93,0
1,67,83,140
1,71,91,0
1,74,85,0
1,67,87,144
1,71,99,0
1,74,95,0
1,67,85,140
1,71,91,0
1,74,91,0
1,67,89,140
1,74,97,0
1,71,97,0
1,67,81,144
1,71,91,0
1,74,87,0
1,67,87,140
1,71,93,0
1,74,93,0
1,67,87,140
1,71,93,0
1,74,87,0
1,67,97,136
1,71,97,0
1,74,93,0
1,67,81,132
1,74,77,0
1,71,79,0
1,74,91,140
1,67,79,0
1,71,91,0
1,71,101,132
1,67,91,0
1,74,91,0
1,71,99,140
1,67,85,0
1,74,91,0
1,67,99,136
1,71,107,0
1,74,101,0
1,67,97,144
1,71,79,0
1,64,87,0
1,67,91,124
1,64,89,0
1,71,85,0
1,64,70,132
