track,note,velocity,time
1,40,110,4224
1,35,101,186
1,40,101,168
1,35,97,176
1,40,99,176
1,35,94,160
1,40,97,144
1,35,104,32
1,37,89,24
1,39,92,48
1,40,107,44
1,35,104,192
1,33,97,164
1,28,94,166
1,32,96,134
1,37,100,100
1,37,100,150
1,37,96,160
1,33,99,164
1,33,107,110
1,35,110,156
1,35,107,174
1,39,100,24
1,40,90,34
1,35,94,174
1,33,107,128
1,28,99,128
1,32,89,150
1,37,96,150
1,37,109,116
1,37,109,110
1,32,109,204
1,32,100,50
1,39,89,26
1,39,92,32
1,32,117,64
1,32,99,68
1,33,92,108
1,35,104,150
1,40,107,74
1,32,97,128
1,37,109,124
1,32,100,52
1,37,104,8
1,35,80,32
1,33,117,32
1,40,104,54
1,35,99,110
1,40,107,50
1,35,113,40
1,37,104,14
1,39,96,24
1,40,107,80
1,35,104,192
1,33,97,164
1,28,94,166
1,32,96,134
1,37,100,100
1,37,100,150
1,37,96,160
1,33,99,164
1,33,107,110
1,35,110,156
1,35,107,174
1,39,100,24
1,40,90,34
1,35,94,174
1,33,107,128
1,28,99,128
1,32,89,150
1,37,96,150
1,37,109,116
1,37,109,110
1,32,109,204
1,32,100,50
1,39,89,26
1,39,92,32
1,32,117,64
1,32,99,68
1,33,92,108
1,35,104,150
1,40,107,74
1,32,97,128
1,37,109,124
1,32,100,52
1,37,104,8
1,33,117,108
1,37,109,54
1,32,114,72
1,37,109,64
1,32,114,66
1,37,104,54
1,32,114,70
1,37,114,80
1,32,109,72
1,33,117,136
1,35,117,28
1,40,107,160
1,44,100,154
1,37,104,144
1,32,100,148
1,33,101,62
1,32,96,222
1,37,92,130
1,32,109,112
1,33,104,62
1,40,104,210
1,37,104,120
1,37,100,142
1,32,100,56
1,33,97,98
1,33,85,98
1,40,99,94
1,35,97,76
1,40,101,20
1,35,101,52
1,37,96,6
1,39,92,38
1,40,107,66
1,35,104,192
1,33,97,164
1,28,94,166
1,32,96,134
1,37,100,100
1,37,100,150
1,37,96,160
1,33,99,164
1,33,107,110
1,35,110,156
1,35,107,174
1,39,100,24
1,40,90,34
1,35,94,174
1,33,107,128
1,28,99,128
1,32,89,150
1,37,96,150
1,37,109,116
1,37,109,110
1,32,109,204
1,32,100,50
1,39,89,26
1,39,92,32
1,32,117,64
1,32,99,68
1,33,92,108
1,35,104,150
1,40,97,74
1,32,104,32
1,37,114,26
1,32,96,2
1,37,109,18
1,35,120,16
1,33,117,66
1,40,104,54
1,35,99,110
1,36,107,50
1,36,113,40
1,38,104,14
1,40,96,24
1,41,107,80
1,36,104,192
1,34,97,164
1,29,94,166
1,33,96,134
1,38,100,100
1,38,100,150
1,38,96,160
1,34,99,164
1,34,107,110
1,36,110,156
1,36,107,174
1,40,100,24
1,41,90,34
1,36,94,174
1,34,107,128
1,29,99,128
1,33,89,150
1,38,96,150
1,38,109,116
1,38,109,110
1,33,109,204
1,33,100,50
1,40,89,26
1,40,92,32
1,33,117,64
1,33,99,68
1,34,92,108
1,36,104,150
1,41,107,74
1,33,97,128
1,38,109,124
1,33,100,52
1,38,104,8
1,34,117,108
1,38,109,54
1,33,114,72
1,38,109,64
1,33,114,66
1,38,104,54
1,33,114,70
1,38,114,80
1,33,109,72
1,34,117,136
1,36,117,28
1,41,107,160
1,45,100,154
1,38,104,144
1,33,100,148
1,34,101,62
1,33,96,222
1,38,92,130
1,33,109,112
1,34,104,62
1,41,97,210
1,38,94,66
1,38,94,80
1,36,104,58
1,41,107,112
1,45,100,154
1,38,104,144
1,33,100,148
1,34,101,62
1,33,96,222
1,38,92,130
1,33,109,112
1,34,104,62
1,41,92,210
1,38,67,98
1,33,74,96
1,29,82,38
1,38,61,102
1,33,56,88
1,38,57,44
1,33,62,96
1,38,88,62
1,33,86,48
1,38,76,46
1,33,65,64
1,38,73,32
1,33,68,40
1,38,79,32
1,33,85,10
1,26,82,22
2,56,86,14976
2,59,99,0
2,63,89,0
2,44,68,0
2,51,66,0
2,54,75,64
2,63,77,0
2,39,63,0
2,51,56,0
2,46,58,0
2,58,81,0
2,59,97,128
2,44,69,0
2,56,62,0
2,51,62,0
2,52,83,128
2,57,94,0
2,61,84,0
2,59,94,108
2,63,69,0
2,54,73,0
2,45,71,1672
2,57,65,0
2,52,70,0
2,64,85,0
2,61,71,0
2,69,79,0
2,71,92,1062
2,63,81,0
2,59,83,0
2,75,109,0
2,73,96,2
2,64,88,0
2,61,79,0
2,76,75,0
2,63,64,2
2,66,96,0
2,75,81,0
2,78,96,0
2,64,99,26
2,68,96,0
2,59,83,0
2,61,71,298
2,69,82,0
2,64,82,0
2,63,79,46
2,68,81,0
2,59,66,0
2,68,73,160
2,61,66,0
2,64,80,0
2,64,90,8
2,69,83,0
2,61,81,0
2,71,88,438
2,63,81,0
2,66,100,0
2,71,92,124
2,63,81,0
2,59,83,0
2,75,109,0
2,73,96,2
2,64,88,0
2,61,79,0
2,76,75,0
2,63,64,2
2,66,96,0
2,75,81,0
2,78,96,0
2,64,99,26
2,68,96,0
2,59,83,0
2,61,71,298
2,69,82,0
2,64,82,0
2,63,79,46
2,68,81,0
2,59,66,0
2,68,73,160
2,61,66,0
2,64,80,0
2,56,86,8
2,59,99,0
2,63,89,0
2,44,68,0
2,51,66,0
2,54,75,64
2,63,77,0
2,39,63,0
2,51,56,0
2,46,58,0
2,58,81,0
2,59,97,128
2,44,69,0
2,56,62,0
2,51,62,0
2,52,83,128
2,57,94,0
2,61,84,0
2,59,94,108
2,63,69,0
2,54,73,0
2,45,71,1672
2,57,65,0
2,52,70,0
2,64,85,0
2,61,71,0
2,69,79,0
2,49,73,102
2,37,79,0
2,52,86,0
2,56,96,0
2,61,96,0
2,64,104,136
2,68,109,0
2,73,104,0
2,64,80,32
2,73,96,0
2,64,104,32
2,68,104,0
2,73,114,0
2,64,104,72
2,71,94,0
2,75,114,0
2,66,96,48
2,71,97,0
2,75,100,0
2,66,104,46
2,71,94,0
2,75,104,0
2,68,89,4
2,73,96,0
2,76,97,0
2,64,92,22
2,68,96,0
2,73,114,0
2,64,99,80
2,68,81,0
2,71,86,0
2,64,83,32
2,68,96,0
2,71,94,0
2,64,97,30
2,68,109,0
2,71,101,0
2,64,101,68
2,68,104,0
2,73,114,0
2,64,107,38
2,68,104,0
2,75,109,0
2,64,104,58
2,69,120,0
2,73,119,0
2,66,109,22
2,71,99,0
2,75,114,0
2,40,104,176
2,59,110,0
2,56,92,0
2,64,94,0
2,59,90,38
2,56,79,0
2,51,84,0
2,68,92,0
2,63,96,0
2,44,75,0
2,49,75,28
2,56,86,0
2,61,100,0
2,37,81,0
2,64,90,0
2,59,86,20
2,51,73,0
2,56,73,0
2,44,71,0
2,63,79,0
2,61,100,38
2,45,101,0
2,57,94,0
2,64,92,0
2,59,75,50
2,68,81,0
2,56,71,0
2,63,81,0
2,44,75,0
2,51,81,0
2,49,73,92
2,37,75,0
2,56,84,0
2,61,84,0
2,64,82,0
2,44,71,14
2,59,86,0
2,63,77,0
2,51,69,0
2,56,60,0
2,64,94,64
2,45,113,0
2,57,97,0
2,61,114,0
2,75,109,3354
2,71,92,0
2,63,81,0
2,59,83,0
2,73,96,2
2,64,88,0
2,61,79,0
2,76,75,0
2,63,64,2
2,66,96,0
2,75,81,0
2,78,96,0
2,64,99,26
2,68,96,0
2,59,83,0
2,61,71,298
2,69,82,0
2,64,82,0
2,63,79,46
2,68,81,0
2,59,66,0
2,68,73,160
2,61,66,0
2,64,80,0
2,64,90,8
2,69,83,0
2,61,81,0
2,71,88,438
2,63,81,0
2,66,100,0
2,71,92,124
2,63,81,0
2,59,83,0
2,75,109,0
2,73,96,2
2,64,88,0
2,61,79,0
2,76,75,0
2,63,64,2
2,66,96,0
2,75,81,0
2,78,96,0
2,64,99,26
2,68,96,0
2,59,83,0
2,61,71,298
2,69,82,0
2,64,82,0
2,63,79,46
2,68,81,0
2,59,66,0
2,68,73,160
2,61,66,0
2,64,80,0
2,56,86,8
2,59,99,0
2,63,89,0
2,44,68,0
2,51,66,0
2,54,75,64
2,63,77,0
2,39,63,0
2,51,56,0
2,46,58,0
2,58,81,0
2,59,97,128
2,44,69,0
2,56,62,0
2,51,62,0
2,52,83,128
2,57,94,0
2,61,84,0
2,59,94,108
2,63,69,0
2,54,73,0
2,45,71,1672
2,57,65,0
2,52,70,0
2,64,85,0
2,61,71,0
2,69,79,0
2,76,109,1062
2,60,83,0
2,64,81,0
2,72,92,0
2,77,75,2
2,62,79,0
2,65,88,0
2,74,96,0
2,79,96,2
2,76,81,0
2,67,96,0
2,64,64,0
2,60,83,26
2,69,96,0
2,65,99,0
2,65,82,298
2,70,82,0
2,62,71,0
2,60,66,46
2,69,81,0
2,64,79,0
2,65,80,160
2,62,66,0
2,69,73,0
2,62,81,8
2,70,83,0
2,65,90,0
2,67,100,438
2,64,81,0
2,72,88,0
2,76,109,124
2,60,83,0
2,64,81,0
2,72,92,0
2,77,75,2
2,62,79,0
2,65,88,0
2,74,96,0
2,79,96,2
2,76,81,0
2,67,96,0
2,64,64,0
2,60,83,26
2,69,96,0
2,65,99,0
2,65,82,298
2,70,82,0
2,62,71,0
2,60,66,46
2,69,81,0
2,64,79,0
2,65,80,160
2,62,66,0
2,69,73,0
2,52,66,8
2,45,68,0
2,64,89,0
2,60,99,0
2,57,86,0
2,59,81,64
2,47,58,0
2,52,56,0
2,40,63,0
2,64,77,0
2,55,75,0
2,52,62,128
2,57,62,0
2,45,69,0
2,60,97,0
2,62,84,128
2,58,94,0
2,53,83,0
2,55,73,108
2,64,69,0
2,60,94,0
2,70,79,1672
2,62,71,0
2,65,85,0
2,53,70,0
2,58,65,0
2,46,71,0
2,62,96,102
2,57,96,0
2,53,86,0
2,38,79,0
2,50,73,0
2,74,104,136
2,69,109,0
2,65,104,0
2,74,96,32
2,65,80,0
2,74,114,32
2,69,104,0
2,65,104,0
2,76,114,72
2,72,94,0
2,65,104,0
2,76,100,48
2,72,97,0
2,67,96,0
2,76,104,46
2,72,94,0
2,67,104,0
2,77,97,4
2,74,96,0
2,69,89,0
2,74,114,22
2,69,96,0
2,65,92,0
2,72,86,80
2,69,81,0
2,65,99,0
2,72,94,32
2,69,96,0
2,65,83,0
2,72,101,30
2,69,109,0
2,65,97,0
2,74,114,68
2,69,104,0
2,65,101,0
2,76,109,38
2,69,104,0
2,65,107,0
2,74,119,58
2,70,120,0
2,65,104,0
2,76,114,22
2,72,99,0
2,67,109,0
2,65,94,176
2,57,92,0
2,60,110,0
2,41,104,0
2,45,75,38
2,64,96,0
2,69,92,0
2,52,84,0
2,57,79,0
2,60,90,0
2,65,90,28
2,38,81,0
2,62,100,0
2,57,86,0
2,50,75,0
2,64,79,20
2,45,71,0
2,57,73,0
2,52,73,0
2,60,86,0
2,62,100,38
2,46,101,0
2,58,94,0
2,65,92,0
2,52,81,50
2,45,75,0
2,64,81,0
2,57,71,0
2,69,81,0
2,60,75,0
2,65,82,92
2,62,84,0
2,57,84,0
2,38,75,0
2,50,73,0
2,57,60,14
2,52,69,0
2,64,77,0
2,60,86,0
2,45,71,0
2,65,94,64
2,46,113,0
2,58,97,0
2,62,114,0
2,65,94,1626
2,57,92,0
2,60,110,0
2,41,104,0
2,45,75,38
2,64,96,0
2,69,92,0
2,52,84,0
2,57,79,0
2,60,90,0
2,65,90,28
2,38,81,0
2,62,100,0
2,57,86,0
2,50,75,0
2,64,79,20
2,45,71,0
2,57,73,0
2,52,73,0
2,60,86,0
2,62,100,38
2,46,101,0
2,58,94,0
2,65,92,0
2,52,81,50
2,45,75,0
2,64,81,0
2,57,71,0
2,69,81,0
2,60,75,0
2,65,82,92
2,62,84,0
2,57,84,0
2,38,75,0
2,50,73,0
2,57,60,14
2,52,69,0
2,64,77,0
2,60,86,0
2,45,71,0
2,65,94,64
2,46,113,0
2,58,97,0
2,62,114,0
3,52,110,4224
3,47,101,186
3,52,101,168
3,47,97,176
3,52,99,176
3,47,94,160
3,52,97,144
3,47,104,32
3,49,89,24
3,51,92,48
3,52,107,44
3,47,104,192
3,45,97,164
3,40,94,166
3,44,96,134
3,49,100,100
3,49,100,150
3,49,96,160
3,45,99,164
3,45,107,110
3,47,110,156
3,47,107,174
3,51,100,24
3,52,90,34
3,47,94,174
3,45,107,128
3,40,99,128
3,44,89,150
3,49,96,150
3,49,109,116
3,49,109,110
3,68,86,204
3,71,99,0
3,75,89,0
3,56,68,0
3,63,66,0
3,66,75,64
3,75,77,0
3,51,63,0
3,63,56,0
3,58,58,0
3,70,81,0
3,71,97,128
3,56,69,0
3,68,62,0
3,63,62,0
3,64,83,128
3,69,94,0
3,73,84,0
3,71,94,108
3,75,69,0
3,66,73,0
3,52,107,136
3,44,97,128
3,49,109,124
3,44,100,52
3,49,104,8
3,47,80,32
3,45,117,32
3,52,104,54
3,47,99,110
3,52,107,50
3,47,113,40
3,49,104,14
3,51,96,24
3,52,107,80
3,47,104,192
3,45,97,164
3,40,94,166
3,44,96,134
3,49,100,100
3,49,100,150
3,49,96,160
3,45,99,164
3,45,107,110
3,47,110,156
3,47,107,174
3,51,100,24
3,52,90,34
3,47,94,174
3,45,107,128
3,40,99,128
3,44,89,150
3,49,96,150
3,49,109,116
3,49,109,110
3,68,86,204
3,71,99,0
3,75,89,0
3,56,68,0
3,63,66,0
3,66,75,64
3,75,77,0
3,51,63,0
3,63,56,0
3,58,58,0
3,70,81,0
3,71,97,128
3,56,69,0
3,68,62,0
3,63,62,0
3,64,83,128
3,69,94,0
3,73,84,0
3,71,94,108
3,75,69,0
3,66,73,0
3,52,107,136
3,44,97,128
3,49,109,124
3,44,100,52
3,49,104,8
3,45,117,108
3,76,66,14
3,68,57,0
3,73,60,0
3,68,64,52
3,73,69,0
3,76,71,0
3,68,79,54
3,73,86,0
3,76,85,0
3,68,84,56
3,73,89,0
3,76,82,0
3,61,109,56
3,68,77,0
3,73,81,0
3,76,80,0
3,68,77,0
3,73,71,0
3,76,76,0
3,61,89,4
3,68,73,40
3,76,74,0
3,73,79,0
3,68,69,56
3,76,79,0
3,73,75,0
3,61,109,32
3,68,58,48
3,73,60,0
3,76,65,0
3,68,79,64
3,73,86,0
3,76,80,0
3,61,96,8
3,76,66,44
3,68,63,0
3,73,71,0
3,68,73,60
3,73,81,0
3,76,79,0
3,61,104,30
3,68,77,48
3,73,84,0
3,76,80,0
3,68,77,50
3,73,86,0
3,76,82,0
3,68,86,48
3,76,88,0
3,73,92,0
3,61,89,0
3,68,73,2
3,73,81,0
3,76,78,0
3,61,89,12
3,76,80,32
3,68,79,0
3,73,86,0
3,76,82,92
3,73,89,0
3,68,73,0
3,57,94,42
3,73,84,0
3,69,79,0
3,76,75,0
3,73,92,24
3,76,85,0
3,69,82,0
3,59,94,132
3,71,85,0
3,78,86,0
3,75,86,0
3,52,104,158
3,71,110,0
3,68,92,0
3,76,94,0
3,71,90,38
3,68,79,0
3,63,84,0
3,80,92,0
3,75,96,0
3,56,75,0
3,61,75,28
3,68,86,0
3,73,100,0
3,49,81,0
3,76,90,0
3,71,86,20
3,63,73,0
3,68,73,0
3,56,71,0
3,75,79,0
3,73,100,38
3,57,101,0
3,69,94,0
3,76,92,0
3,71,75,50
3,80,81,0
3,68,71,0
3,75,81,0
3,56,75,0
3,63,81,0
3,61,73,92
3,49,75,0
3,68,84,0
3,73,84,0
3,76,82,0
3,56,71,14
3,71,86,0
3,75,77,0
3,63,69,0
3,68,60,0
3,76,94,64
3,57,113,0
3,69,97,0
3,73,114,0
3,52,104,90
3,49,104,120
3,49,100,142
3,44,100,56
3,45,97,98
3,45,85,98
3,52,99,94
3,47,97,76
3,52,101,20
3,47,101,52
3,49,96,6
3,51,92,38
3,64,83,66
3,68,73,0
3,71,92,0
3,76,80,0
3,76,66,30
3,71,70,0
3,68,49,0
3,64,80,36
3,71,54,52
3,76,54,0
3,68,64,64
3,76,73,0
3,71,82,0
3,64,79,8
3,69,76,132
