track,note,velocity,time
1,72,127,1924
1,72,127,224
1,69,127,416
1,72,127,60
1,72,127,76
1,72,127,82
1,69,127,96
1,75,127,556
1,74,127,190
1,72,127,18
1,69,127,184
1,72,127,82
1,72,127,122
1,75,127,0
1,69,127,1908
1,72,127,240
1,72,127,392
1,75,127,28
1,74,127,94
1,72,127,46
1,74,127,784
1,74,127,112
1,74,127,114
1,74,127,110
1,74,127,114
1,74,127,94
1,74,127,110
1,74,127,100
1,76,127,26
1,74,127,12
1,72,127,768
1,72,127,134
1,72,127,116
1,72,127,168
1,72,127,522
1,75,127,106
1,76,127,18
1,72,127,420
1,75,127,8
1,75,127,82
1,74,127,68
1,72,127,186
1,74,127,198
1,72,127,26
1,75,127,30
1,75,127,58
1,74,127,52
1,72,127,56
1,72,127,204
1,72,127,818
1,72,127,170
1,72,127,420
1,71,127,26
1,71,127,76
1,71,127,94
1,69,127,74
1,67,127,76
1,67,127,378
1,72,127,24
1,72,127,98
1,72,127,136
1,72,127,116
1,72,127,98
1,72,127,102
1,72,127,132
1,72,127,100
1,72,127,122
1,72,127,130
1,72,127,126
1,72,127,126
1,72,127,128
1,67,127,20
1,69,127,10
1,67,127,0
1,72,127,86
1,72,127,82
1,72,127,104
1,72,127,90
1,72,127,116
1,75,127,74
1,75,127,4
1,75,127,52
1,75,127,104
1,75,127,98
1,75,127,104
1,74,127,16
1,72,127,72
1,72,127,808
1,74,127,0
1,75,127,18
1,74,127,54
1,75,127,26
1,74,127,54
1,75,127,20
1,74,127,44
1,75,127,48
1,74,127,26
1,75,127,0
1,72,127,30
1,72,127,970
1,67,127,32
1,69,127,30
1,72,127,32
1,72,127,54
1,75,127,2334
1,76,127,8
1,75,127,68
1,76,127,4
1,75,127,70
1,76,127,0
1,75,127,66
1,76,127,6
1,74,127,70
1,72,127,5452
1,72,127,224
1,69,127,416
1,72,127,60
1,72,127,76
1,72,127,82
1,69,127,96
1,75,127,556
1,74,127,190
1,72,127,18
1,69,127,184
1,72,127,82
1,72,127,122
1,75,127,0
1,69,127,1908
1,72,127,240
1,72,127,392
1,75,127,28
1,74,127,94
1,72,127,46
1,74,127,784
1,74,127,112
1,74,127,114
1,74,127,110
1,74,127,114
1,74,127,94
1,74,127,110
1,74,127,100
1,76,127,26
1,74,127,12
1,72,127,768
1,72,127,134
1,72,127,116
1,72,127,168
1,72,127,522
1,75,127,106
1,76,127,18
1,72,127,420
1,75,127,8
1,75,127,82
1,74,127,68
1,72,127,186
1,74,127,198
1,72,127,26
1,75,127,30
1,75,127,58
1,74,127,52
1,72,127,56
1,72,127,204
1,72,127,818
1,72,127,170
1,72,127,420
1,71,127,26
1,71,127,76
1,71,127,94
1,69,127,74
1,67,127,76
1,67,127,378
1,72,127,24
1,72,127,98
1,72,127,136
1,72,127,116
1,72,127,98
1,72,127,102
1,72,127,132
1,72,127,100
1,72,127,122
1,72,127,130
1,72,127,126
1,72,127,126
1,72,127,128
1,67,127,20
1,69,127,10
1,67,127,0
1,72,127,56
1,72,127,112
1,72,127,142
1,72,127,122
1,72,127,108
1,74,127,386
1,75,127,20
1,75,127,1664
1,75,127,232
1,74,127,230
1,75,127,20
1,72,127,6
1,72,127,1724
1,72,127,242
1,69,127,14
1,72,127,36
1,75,127,8
1,76,127,12
1,67,127,2598
1,69,127,32
1,72,127,480
1,72,127,224
1,72,127,236
1,72,127,184
1,75,127,232
1,76,127,2
1,75,127,74
1,76,127,8
1,74,127,46
1,75,127,182
1,75,127,210
1,74,127,6
1,72,127,10
1,69,127,168
1,72,127,56
1,72,127,170
1,69,127,8
1,72,127,102
1,72,127,62
1,69,127,96
1,72,127,78
1,72,127,1806
1,72,127,224
1,69,127,416
1,72,127,60
1,72,127,76
1,72,127,82
1,69,127,96
1,75,127,556
1,74,127,190
1,72,127,18
1,69,127,184
1,72,127,82
1,72,127,122
1,75,127,0
1,69,127,1908
1,72,127,240
1,72,127,392
1,75,127,28
1,74,127,94
1,72,127,46
1,74,127,784
1,74,127,112
1,74,127,114
1,74,127,110
1,74,127,114
1,74,127,94
1,74,127,110
1,74,127,100
1,76,127,26
1,74,127,12
1,72,127,768
1,72,127,134
1,72,127,116
1,72,127,168
1,72,127,522
1,75,127,106
1,76,127,18
1,72,127,420
1,75,127,8
1,75,127,82
1,74,127,68
1,72,127,186
1,74,127,198
1,72,127,26
1,75,127,30
1,75,127,58
1,74,127,52
1,72,127,56
1,72,127,204
1,72,127,818
1,72,127,170
1,72,127,420
1,71,127,26
1,71,127,76
1,71,127,94
1,69,127,74
1,67,127,76
1,67,127,378
1,72,127,24
1,72,127,98
1,72,127,136
1,72,127,116
1,72,127,98
1,72,127,102
1,72,127,132
1,72,127,100
1,72,127,122
1,72,127,130
1,72,127,126
1,72,127,126
1,72,127,128
1,67,127,20
1,69,127,10
1,67,127,0
1,72,127,46
1,72,127,124
1,72,127,150
1,72,127,110
1,72,127,120
1,74,127,372
1,75,127,4
1,75,127,504
1,75,127,114
1,72,127,60
1,74,127,412
1,75,127,16
1,75,127,162
1,75,127,188
1,72,127,20
1,72,127,190
1,72,127,190
1,72,127,190
1,67,127,946
1,69,127,28
1,67,127,8
1,72,127,72
1,72,127,162
1,72,127,434
1,72,127,224
1,74,127,192
1,75,127,30
1,75,127,98
1,74,127,82
1,75,127,30
1,74,127,10
1,72,127,18
1,69,127,18
1,72,127,56
1,74,127,6
1,72,127,0
1,69,127,200
1,75,127,1130
1,74,127,22
1,76,127,8
1,75,127,68
1,76,127,12
1,74,127,100
1,72,127,76
1,74,127,102
1,75,127,20
1,74,127,50
1,72,127,66
1,67,127,68
1,69,127,30
1,72,127,30
1,72,127,3000
1,72,127,152
1,69,127,20
1,72,127,72
1,75,127,44
1,75,127,10294
1,76,127,26
1,77,127,8
1,75,127,74
1,76,127,6
1,75,127,78
1,76,127,16
1,74,127,0
1,72,127,38
1,74,127,8
1,75,127,32
1,74,127,114
1,72,127,168
1,67,127,24
1,69,127,38
1,72,127,42
2,43,107,960
2,45,107,192
2,47,107,12
2,48,107,10
2,60,87,0
2,64,87,0
2,67,78,2
2,60,52,82
2,64,69,0
2,67,48,0
2,60,60,90
2,64,73,0
2,67,37,14
2,60,82,38
2,64,87,0
2,67,73,0
2,60,52,160
2,64,65,0
2,67,33,0
2,60,52,8
2,64,69,0
2,67,52,0
2,60,73,126
2,64,82,0
2,67,60,0
2,60,69,118
2,64,69,0
2,67,29,0
2,60,73,124
2,64,78,0
2,67,65,0
2,60,52,108
2,64,73,0
2,67,42,0
2,60,44,136
2,64,82,0
2,67,60,0
2,60,69,142
2,64,87,0
2,67,78,0
2,60,52,122
2,64,73,0
2,67,48,0
2,60,52,136
2,64,78,0
2,67,65,0
2,60,65,136
2,64,82,0
2,67,78,0
2,60,56,116
2,64,73,0
2,67,42,0
2,60,65,132
2,64,82,0
2,67,78,0
2,60,69,114
2,64,78,0
2,67,65,0
2,60,42,112
2,64,73,0
2,67,60,0
2,60,65,116
2,64,82,0
2,67,60,0
2,60,48,122
2,64,78,0
2,67,48,0
2,60,65,128
2,64,82,0
2,67,56,0
2,60,65,120
2,64,82,0
2,67,65,0
2,60,56,132
2,64,78,0
2,67,52,0
2,60,69,132
2,64,87,0
2,67,73,0
2,60,39,124
2,64,42,0
2,60,65,128
2,64,78,0
2,67,65,0
2,60,69,108
2,64,87,0
2,67,73,0
2,60,44,108
2,64,69,0
2,60,52,110
2,64,73,0
2,67,69,0
2,60,52,110
2,64,73,0
2,67,73,0
2,60,69,116
2,64,87,0
2,67,60,0
2,60,69,108
2,62,82,0
2,66,93,0
2,60,52,90
2,62,69,0
2,66,56,0
2,60,52,102
2,62,73,0
2,66,52,0
2,60,82,110
2,62,78,0
2,66,87,0
2,60,60,88
2,62,69,0
2,66,73,0
2,60,69,110
2,62,73,0
2,66,82,0
2,60,73,90
2,62,93,0
2,66,82,0
2,60,73,102
2,62,87,0
2,66,78,0
2,59,87,64
2,62,73,0
2,67,78,0
2,59,52,78
2,62,56,0
2,67,60,0
2,59,69,102
2,62,69,0
2,67,52,0
2,59,69,102
2,62,73,0
2,67,78,0
2,59,65,86
2,62,69,0
2,67,60,0
2,59,69,108
2,62,69,0
2,67,56,0
2,59,69,102
2,62,65,0
2,67,73,0
2,59,73,100
2,62,52,0
2,67,73,0
2,59,87,96
2,60,93,0
2,74,78,4
2,71,73,30
2,72,65,0
2,67,73,40
2,69,78,0
2,62,69,0
2,64,65,0
2,65,56,0
2,59,69,0
2,60,65,0
2,55,69,0
2,57,69,0
2,52,60,0
2,53,73,0
2,50,65,0
2,48,107,0
2,51,60,0
2,60,107,0
2,72,89,0
2,76,102,0
2,79,98,0
2,72,72,0
2,76,89,0
2,79,76,0
2,72,85,0
2,76,85,0
2,79,85,0
2,72,89,144
2,76,98,0
2,79,93,0
2,72,85,132
2,76,85,0
2,79,89,0
2,72,80,128
2,76,85,0
2,79,76,0
2,72,93,138
2,76,89,0
2,79,76,0
2,72,85,144
2,76,89,0
2,79,89,0
2,72,93,138
2,76,98,0
2,79,93,0
2,72,93,138
2,76,93,0
2,79,85,0
2,72,72,144
2,76,85,0
2,79,80,0
2,72,98,148
2,76,98,0
2,79,89,0
2,72,68,134
2,76,85,0
2,79,62,0
2,72,85,130
2,76,72,0
2,79,68,0
2,72,76,148
2,76,80,0
2,79,85,0
2,72,85,132
2,76,89,0
2,79,76,0
2,72,85,132
2,76,89,0
2,79,76,0
2,72,76,134
2,76,80,0
2,79,72,0
2,72,80,130
2,76,80,0
2,79,68,0
2,72,93,132
2,76,93,0
2,79,85,0
2,72,72,122
2,76,80,0
2,79,68,0
2,72,68,144
2,76,93,0
2,79,72,0
2,72,72,132
2,76,89,0
2,79,80,0
2,72,68,130
2,76,89,0
2,79,76,0
2,72,89,132
2,76,98,0
2,79,89,0
2,72,64,136
2,76,68,0
2,79,64,0
2,72,80,156
2,76,89,0
2,79,72,0
2,72,89,138
2,76,98,0
2,79,89,0
2,72,72,130
2,76,80,0
2,79,76,0
2,72,85,150
2,76,89,0
2,79,72,0
2,72,89,154
2,76,89,0
2,79,85,0
2,72,85,148
2,76,85,0
2,79,93,0
2,72,72,114
2,75,102,0
2,81,89,0
2,72,56,118
2,75,89,0
2,81,60,0
2,72,85,130
2,75,98,0
2,81,72,0
2,72,93,132
2,75,107,0
2,81,89,0
2,72,76,112
2,75,107,0
2,81,76,0
2,72,85,124
2,75,107,0
2,81,64,0
2,72,85,130
2,75,107,0
2,81,72,0
2,72,85,116
2,75,107,0
2,81,72,0
2,72,98,124
2,75,107,0
2,81,68,0
2,72,89,126
2,75,102,0
2,81,62,0
2,72,93,138
2,75,107,0
2,81,62,0
2,72,89,140
2,75,107,0
2,81,68,0
2,72,89,130
2,75,107,0
2,81,68,0
2,72,89,128
2,75,107,0
2,81,62,0
2,72,89,130
2,75,107,0
2,81,59,0
2,72,89,132
2,75,102,0
2,81,72,0
2,72,76,92
2,76,93,0
2,79,93,0
2,72,62,110
2,76,85,0
2,79,76,0
2,72,68,134
2,76,85,0
2,79,72,0
2,72,85,132
2,76,102,0
2,79,89,0
2,72,68,118
2,76,93,0
2,79,72,0
2,72,68,130
2,76,89,0
2,79,72,0
2,72,85,132
2,76,89,0
2,79,85,0
2,72,68,132
2,76,68,0
2,79,72,0
2,72,72,122
2,76,93,0
2,79,85,0
2,72,72,96
2,76,93,0
2,79,76,0
2,72,89,110
2,76,89,0
2,79,85,0
2,72,89,112
2,76,89,0
2,79,85,0
2,72,76,106
2,76,89,0
2,79,89,0
2,72,85,112
2,76,98,0
2,79,85,0
2,72,76,102
2,76,89,0
2,79,89,0
2,72,93,118
2,76,89,0
2,79,93,0
2,71,107,106
2,77,89,0
2,82,107,0
2,71,89,92
2,77,76,0
2,82,85,0
2,71,93,112
2,77,80,0
2,82,93,0
2,71,107,112
2,77,102,0
2,82,107,0
2,71,98,100
2,77,72,0
2,82,89,0
2,71,102,104
2,77,89,0
2,82,102,0
2,71,107,108
2,77,98,0
2,82,102,0
2,71,107,94
2,77,93,0
2,82,93,0
2,72,93,24
2,75,102,0
2,81,85,0
2,72,72,106
2,75,89,0
2,81,76,0
2,72,72,120
2,75,102,0
2,81,76,0
2,72,98,116
2,75,107,0
2,81,89,0
2,72,72,98
2,75,102,0
2,81,68,0
2,72,72,124
2,75,102,0
2,81,76,0
2,72,80,118
2,75,107,0
2,81,85,0
2,72,68,120
2,75,107,0
2,81,72,0
2,72,85,68
2,76,98,0
2,79,98,0
2,72,62,110
2,76,93,0
2,79,85,0
2,72,72,124
2,76,89,0
2,79,89,0
2,72,85,128
2,76,102,0
2,79,89,0
2,72,72,120
2,76,93,0
2,79,85,0
2,72,76,126
2,76,98,0
2,79,85,0
2,72,85,132
2,76,93,0
2,79,89,0
2,72,85,100
2,76,98,0
2,79,89,0
2,72,72,0
2,76,93,0
2,79,76,0
2,43,107,122
2,55,107,0
2,43,107,98
2,55,102,0
2,43,107,98
2,55,102,0
2,43,107,112
2,55,102,0
2,43,107,110
2,55,107,0
2,45,107,108
2,57,107,0
2,47,107,106
2,59,107,0
2,48,107,108
2,60,87,0
2,64,87,0
2,67,78,2
2,60,52,82
2,64,69,0
2,67,48,0
2,60,60,90
2,64,73,0
2,67,37,14
2,60,82,38
2,64,87,0
2,67,73,0
2,60,52,160
2,64,65,0
2,67,33,0
2,60,52,8
2,64,69,0
2,67,52,0
2,60,73,126
2,64,82,0
2,67,60,0
2,60,69,118
2,64,69,0
2,67,29,0
2,60,73,124
2,64,78,0
2,67,65,0
2,60,52,108
2,64,73,0
2,67,42,0
2,60,44,136
2,64,82,0
2,67,60,0
2,60,69,142
2,64,87,0
2,67,78,0
2,60,52,122
2,64,73,0
2,67,48,0
2,60,52,136
2,64,78,0
2,67,65,0
2,60,65,136
2,64,82,0
2,67,78,0
2,60,56,116
2,64,73,0
2,67,42,0
2,60,65,132
2,64,82,0
2,67,78,0
2,60,69,114
2,64,78,0
2,67,65,0
2,60,42,112
2,64,73,0
2,67,60,0
2,60,65,116
2,64,82,0
2,67,60,0
2,60,48,122
2,64,78,0
2,67,48,0
2,60,65,128
2,64,82,0
2,67,56,0
2,60,65,120
2,64,82,0
2,67,65,0
2,60,56,132
2,64,78,0
2,67,52,0
2,60,69,132
2,64,87,0
2,67,73,0
2,60,39,124
2,64,42,0
2,60,65,128
2,64,78,0
2,67,65,0
2,60,69,108
2,64,87,0
2,67,73,0
2,60,44,108
2,64,69,0
2,60,52,110
2,64,73,0
2,67,69,0
2,60,52,110
2,64,73,0
2,67,73,0
2,60,69,116
2,64,87,0
2,67,60,0
2,60,69,108
2,62,82,0
2,66,93,0
2,60,52,90
2,62,69,0
2,66,56,0
2,60,52,102
2,62,73,0
2,66,52,0
2,60,82,110
2,62,78,0
2,66,87,0
2,60,60,88
2,62,69,0
2,66,73,0
2,60,69,110
2,62,73,0
2,66,82,0
2,60,73,90
2,62,93,0
2,66,82,0
2,60,73,102
2,62,87,0
2,66,78,0
2,59,87,64
2,62,73,0
2,67,78,0
2,59,52,78
2,62,56,0
2,67,60,0
2,59,69,102
2,62,69,0
2,67,52,0
2,59,69,102
2,62,73,0
2,67,78,0
2,59,65,86
2,62,69,0
2,67,60,0
2,59,69,108
2,62,69,0
2,67,56,0
2,59,69,102
2,62,65,0
2,67,73,0
2,59,73,100
2,62,52,0
2,67,73,0
2,59,87,96
2,74,78,4
2,71,73,0
2,72,65,0
2,67,73,40
2,69,78,0
2,62,69,0
2,64,65,0
2,65,56,0
2,59,69,0
2,60,65,0
2,55,69,0
2,57,69,0
2,52,60,0
2,53,73,0
2,50,65,70
2,48,107,0
2,51,60,0
2,60,107,0
2,72,89,0
2,76,102,0
2,79,98,0
2,72,72,0
2,76,89,0
2,79,76,0
2,72,85,96
2,76,85,0
2,79,85,0
2,72,89,144
2,76,98,0
2,79,93,0
2,72,85,132
2,76,85,0
2,79,89,0
2,72,80,128
2,76,85,0
