track,note,velocity,time
1,64,60,12959
1,65,64,8
1,64,0,8
1,65,0,26
1,62,73,0
1,60,73,48
1,62,0,7
1,60,0,90
1,53,40,150
1,53,0,42
1,65,73,1
1,65,0,46
1,65,73,48
1,65,0,55
1,65,73,42
1,65,0,78
1,65,60,20
1,65,0,36
1,65,52,10
1,65,0,30
1,63,64,22
1,62,60,0
1,64,73,6
1,62,0,4
1,63,0,8
1,64,0,32
1,62,60,8
1,62,0,28
1,60,56,12
1,60,0,28
1,60,64,18
1,60,0,140
1,53,20,638
1,53,0,30
1,58,60,16
1,58,0,36
1,58,60,6
1,58,0,32
1,58,64,16
1,58,0,32
1,58,82,10
1,58,0,110
1,58,60,33
1,58,0,63
1,60,60,40
1,60,0,89
1,62,64,3
1,62,0,45
1,55,56,49
1,56,82,1
1,55,0,13
1,57,60,1
1,56,0,15
1,57,0,210
1,55,60,6
1,55,0,43
1,53,40,5
1,55,60,41
1,53,0,0
1,55,0,147
1,64,60,564
1,65,73,11
1,64,0,5
1,65,0,208
1,65,52,25
1,65,0,15
1,65,73,34
1,65,0,47
1,67,60,7
1,67,0,224
1,62,56,58
1,63,82,0
1,64,73,6
1,62,0,8
1,63,0,8
1,62,29,32
1,64,0,0
1,62,0,32
1,64,64,12
1,62,56,20
1,64,0,4
1,60,64,22
1,62,0,1
1,60,0,245
1,58,56,6
1,57,56,42
1,58,0,8
1,58,52,33
1,57,0,7
1,60,73,42
1,58,0,0
1,62,82,47
1,60,0,7
1,62,0,38
1,58,64,293
1,58,0,38
1,58,64,11
1,58,0,29
1,58,64,17
1,58,0,84
1,58,60,14
1,58,0,28
1,60,82,66
1,60,0,50
1,62,60,45
1,62,0,15
1,55,60,40
1,56,73,1
1,57,52,16
1,55,0,0
1,56,0,8
1,57,0,191
1,56,73,18
1,57,73,6
1,56,0,9
1,55,48,32
1,57,0,7
1,55,0,24
1,53,60,19
1,53,0,33
1,55,82,16
1,55,0,142
1,64,73,575
1,64,0,23
1,65,29,8
1,65,0,350
1,64,60,2
1,64,0,98
1,64,56,55
1,64,0,57
1,65,60,14
1,65,0,36
1,65,60,29
1,67,60,16
1,65,0,8
1,65,60,173
1,67,0,0
1,64,48,46
1,65,0,0
1,64,0,28
1,64,52,66
1,64,0,151
1,61,64,278
1,60,56,3
1,60,0,6
1,62,56,1
1,61,0,15
1,62,0,32
1,65,52,33
1,65,0,51
1,65,73,53
1,65,0,67
1,62,91,125
1,62,0,55
1,65,73,41
1,65,0,48
1,68,91,50
1,67,60,95
1,68,0,0
1,67,0,46
1,65,64,4
1,65,0,100
1,65,60,42
1,65,0,28
1,62,52,18
1,62,0,24
1,65,91,28
1,62,56,95
1,65,0,0
1,62,0,21
1,65,91,26
1,62,60,96
1,65,0,0
1,62,0,14
1,65,100,28
1,65,0,80
1,62,64,48
1,60,64,41
1,62,0,0
1,60,0,93
1,57,73,197
1,60,56,95
1,57,0,0
1,60,0,70
1,65,73,26
1,65,0,86
1,67,56,10
1,67,0,76
1,65,60,21
1,65,0,203
1,56,64,84
1,57,64,0
1,56,0,14
1,57,0,48
1,55,73,34
1,53,40,47
1,55,0,0
1,53,0,39
1,50,64,9
1,50,0,97
1,58,64,480
1,58,0,62
1,58,60,35
1,58,0,77
1,58,60,18
1,58,0,79
1,60,60,17
1,60,0,70
1,62,64,25
1,62,0,55
1,56,91,42
1,57,82,0
1,56,0,22
1,57,0,170
1,55,82,96
1,53,31,47
1,55,0,0
1,53,0,31
1,55,73,18
1,55,0,110
1,57,60,659
1,60,60,95
1,57,0,0
1,60,0,79
1,65,64,18
1,65,0,86
1,67,56,9
1,67,0,79
1,65,64,17
1,65,0,198
1,56,82,89
1,55,56,1
1,57,56,0
1,55,0,6
1,56,0,8
1,57,0,30
1,55,82,53
1,55,0,43
1,53,31,3
1,53,0,40
1,50,64,9
1,50,0,97
1,58,60,480
1,58,0,47
1,58,82,49
1,58,0,65
1,58,60,31
1,58,0,70
1,60,64,25
1,60,0,78
1,62,73,17
1,62,0,55
1,56,82,42
1,55,31,1
1,57,40,0
1,55,0,1
1,56,0,12
1,57,0,177
1,55,82,97
1,53,52,47
1,55,0,0
1,53,0,23
1,55,82,26
1,55,0,110
1,67,48,177
1,69,73,0
1,67,0,7
1,69,0,40
1,67,64,0
1,65,56,48
1,67,0,0
1,65,0,97
1,53,64,3072
1,65,73,150
1,53,0,8
1,65,0,216
1,65,56,17
1,65,0,23
1,65,64,20
1,65,0,143
1,62,91,95
1,63,73,25
1,62,0,5
1,63,0,24
1,62,36,1
1,62,0,31
1,60,60,6
1,60,0,291
1,60,100,96
1,60,0,39
1,58,73,4
1,58,0,44
1,57,52,10
1,58,60,42
1,57,0,0
1,58,0,44
1,60,73,10
1,60,0,62
1,58,44,227
1,58,0,13
1,58,52,36
1,58,0,28
1,58,64,19
1,58,0,69
1,58,56,32
1,58,0,52
1,60,64,38
1,60,0,70
1,62,60,32
1,62,0,44
1,55,48,46
1,56,64,4
1,55,0,10
1,57,56,1
1,56,0,7
1,57,0,144
1,56,73,26
1,57,64,6
1,56,0,12
1,57,0,30
1,55,44,6
1,55,0,42
1,53,56,1
1,53,0,33
1,55,64,13
1,55,0,147
1,65,52,532
1,65,0,22
1,65,60,21
1,65,0,21
1,65,60,26
1,65,0,126
1,65,40,24
1,65,0,16
1,65,73,32
1,67,56,138
1,65,0,0
1,67,0,14
1,62,64,33
1,63,73,0
1,64,60,15
1,62,0,0
1,63,0,8
1,64,0,158
1,67,60,8
1,67,0,142
1,69,60,6
1,69,0,166
1,67,73,25
1,69,91,15
1,67,0,8
1,69,0,32
1,67,56,6
1,67,0,35
1,65,40,1
1,67,60,48
1,65,0,0
1,67,0,48
1,65,32,2
1,65,0,45
1,62,31,3
1,62,0,36
1,65,56,16
1,67,64,144
1,65,0,0
1,67,0,16
1,58,64,122
1,58,0,14
1,58,64,34
1,58,0,14
1,58,91,34
1,58,0,68
1,58,64,27
1,58,0,48
1,60,82,49
1,60,0,54
1,62,73,41
1,62,0,31
1,60,73,16
1,62,73,50
1,60,0,6
1,62,0,32
1,60,64,9
1,60,0,151
1,55,56,91
1,56,64,0
1,57,73,13
1,55,0,0
1,56,0,8
1,57,0,28
1,55,64,4
1,55,0,65
1,62,48,504
1,62,0,31
1,65,82,18
1,65,0,122
1,65,56,21
1,65,0,23
1,65,73,26
1,67,56,150
1,65,0,6
1,67,0,42
1,69,82,1
1,69,0,55
1,65,91,224
1,65,0,50
1,64,48,2
1,64,0,53
1,65,52,41
1,65,0,22
1,65,91,26
1,67,60,30
1,65,0,8
1,67,0,105
1,67,56,48
1,65,52,48
1,67,0,0
1,65,0,45
1,64,52,4
1,64,0,27
1,64,60,20
1,64,0,140
1,62,64,99
1,62,0,40
1,65,91,54
1,65,0,58
1,65,82,41
1,65,0,43
1,67,73,44
1,68,82,16
1,67,0,16
1,68,0,32
1,62,73,134
1,62,0,51
1,65,91,48
1,65,0,47
1,68,91,56
1,68,0,90
1,67,44,1
1,67,0,37
1,65,73,16
1,65,0,56
1,65,100,82
1,65,0,38
1,62,56,10
1,62,0,22
1,65,100,28
1,62,48,95
1,65,0,0
1,62,0,21
1,65,91,32
1,62,40,94
1,65,0,0
1,62,0,18
1,65,82,27
1,65,0,72
1,67,64,1
1,69,64,48
1,67,0,0
1,69,0,93
1,57,73,197
1,60,56,95
1,57,0,0
1,60,0,70
1,65,73,26
1,65,0,86
1,67,56,10
1,67,0,76
1,65,60,20
1,65,0,204
1,56,64,84
1,57,64,0
1,56,0,14
1,57,0,48
1,55,73,34
1,53,40,47
1,55,0,0
1,53,0,39
1,50,64,9
1,50,0,97
1,58,64,480
1,58,0,62
1,58,60,35
1,58,0,77
1,58,60,18
1,58,0,79
1,60,60,17
1,60,0,70
1,62,64,25
1,62,0,55
1,56,91,42
1,57,82,0
1,56,0,22
1,57,0,170
1,55,82,96
1,55,0,47
1,53,31,1
1,53,0,30
1,55,73,18
1,55,0,110
1,57,60,659
1,57,0,95
1,60,60,1
1,60,0,78
1,65,64,18
1,65,0,86
1,67,56,9
1,67,0,79
1,65,64,17
1,65,0,198
1,56,82,89
1,55,56,1
1,57,56,0
1,55,0,6
1,56,0,8
1,57,0,30
1,55,82,53
1,55,0,43
1,53,31,3
1,53,0,40
1,50,64,9
1,50,0,97
1,58,60,480
1,58,0,47
1,58,82,49
1,58,0,65
1,58,60,30
1,58,0,71
1,60,64,26
1,60,0,77
1,62,73,17
1,62,0,55
1,56,82,42
1,55,31,1
1,57,40,0
1,55,0,1
1,56,0,13
1,57,0,176
1,55,82,97
1,53,52,47
1,55,0,0
1,53,0,24
1,55,82,25
1,55,0,110
1,67,60,169
1,69,60,8
1,67,0,0
1,69,0,24
1,67,64,0
1,67,0,48
1,65,56,1
1,65,0,96
1,62,60,6102
1,62,0,16
1,65,82,33
1,65,0,69
1,65,64,16
1,65,0,16
1,65,91,36
1,67,56,143
1,65,0,1
1,69,64,47
1,67,0,1
1,69,0,62
1,68,64,329
1,67,52,48
1,68,0,0
1,67,0,40
1,65,25,15
1,65,0,17
1,67,73,64
1,67,0,79
1,67,82,65
1,67,0,55
1,65,40,1
1,65,0,43
1,64,64,5
1,64,0,99
1,62,56,240
1,62,0,12
1,65,82,30
1,65,0,74
1,62,52,18
1,62,0,10
1,65,91,42
1,65,0,58
1,65,44,40
1,65,0,8
1,65,100,40
1,65,0,40
1,62,56,62
1,62,0,18
1,65,91,24
1,65,0,64
1,68,100,76
1,68,0,56
1,67,52,38
1,67,0,28
1,65,82,24
1,65,0,56
1,65,91,84
1,65,0,36
1,62,52,10
1,62,0,22
1,65,91,29
1,62,44,96
1,65,0,0
1,62,0,13
1,65,91,33
1,65,0,87
1,62,32,10
1,62,0,14
1,65,91,34
1,65,0,40
1,67,64,81
1,69,64,41
1,67,0,0
1,69,0,93
1,57,73,197
1,60,56,95
1,57,0,0
1,60,0,70
1,65,73,25
1,65,0,88
1,67,56,9
1,67,0,74
1,65,60,23
1,65,0,201
1,56,64,86
1,57,64,0
1,56,0,14
1,57,0,48
1,55,73,34
1,53,40,47
1,55,0,0
1,53,0,39
1,50,64,9
1,50,0,97
1,58,64,480
1,58,0,62
1,58,60,35
1,58,0,77
1,58,60,17
1,58,0,80
1,60,60,17
1,60,0,70
1,62,64,25
1,62,0,55
1,56,91,42
1,57,82,0
1,56,0,22
1,57,0,170
1,55,82,96
1,53,31,47
1,55,0,0
1,53,0,31
1,55,73,18
1,55,0,110
1,57,60,659
1,60,60,95
1,57,0,0
1,60,0,79
1,65,64,18
1,65,0,86
1,67,56,9
1,67,0,79
1,65,64,18
1,65,0,197
1,56,82,89
1,55,56,0
1,57,56,1
1,55,0,6
1,56,0,8
1,57,0,30
1,55,82,52
1,55,0,42
1,53,31,5
1,53,0,40
1,50,64,9
1,50,0,97
1,58,60,480
1,58,0,47
1,58,82,49
1,58,0,67
1,58,60,29
1,58,0,70
1,60,64,26
1,60,0,77
1,62,73,17
1,62,0,55
1,56,82,42
1,55,31,0
1,57,40,1
1,55,0,1
1,56,0,13
1,57,0,176
1,55,82,97
1,53,52,47
1,55,0,0
1,53,0,24
1,55,82,25
1,55,0,110
1,67,64,1228
1,69,73,6
1,67,0,6
1,67,64,473
1,69,0,7
1,65,64,281
1,67,0,0
1,65,0,99
1,57,91,957
1,57,0,39
1,55,40,8
1,55,0,24
1,55,64,26
1,55,0,38
1,53,44,8
1,53,0,22
1,53,56,27
1,53,0,31
1,55,91,60
1,55,0,48
1,53,60,4
1,53,0,24
1,53,60,24
1,53,0,72
1,55,36,410
1,57,64,0
1,55,0,10
1,57,0,282
1,55,48,2
1,55,0,32
1,53,73,16
1,53,0,88
1,55,56,4
1,57,73,45
1,55,0,7
1,57,0,90
1,55,64,199
1,57,73,0
1,55,0,13
1,58,48,267
1,57,0,0
1,58,0,31
1,55,60,16
1,55,0,88
1,53,30,16
1,53,0,25
1,55,64,7
1,55,0,106
1,50,32,288
1,50,0,22
1,50,48,33
1,48,60,42
1,50,0,5
1,48,0,48
1,60,60,464
1,60,0,32
1,65,91,20
1,65,0,36
1,62,60,16
1,62,0,28
1,65,73,16
1,65,0,42
1,62,60,2
1,62,0,32
1,65,73,22
1,62,60,102
1,65,0,4
1,60,64,40
1,62,0,0
1,60,0,80
1,70,82,1121
1,72,73,16
1,71,31,0
1,70,0,5
1,71,0,2
1,72,0,270
1,70,52,1
1,70,0,385
1,69,56,1
1,69,0,375
1,67,48,1
1,65,52,53
1,67,0,0
1,65,0,35
1,67,82,151
1,69,100,8
1,67,0,16
1,69,0,65
1,67,52,11
1,67,0,26
1,65,82,18
1,65,0,72
1,65,52,32
1,65,0,16
1,67,73,24
1,69,91,8
1,67,0,8
1,69,0,96
2,41,82,3
2,41,0,206
2,41,73,81
2,41,0,47
2,41,64,49
2,48,73,192
2,41,0,0
2,49,73,96
2,48,0,0
2,50,82,96
2,49,0,7
2,50,0,208
2,50,73,73
2,50,0,47
2,50,64,49
2,50,0,133
2,50,64,10
2,50,0,32
2,57,91,17
2,55,91,89
2,57,0,1
2,55,0,206
2,43,56,81
2,43,0,55
2,43,82,41
2,43,0,317
2,48,82,67
2,48,0,199
2,48,64,89
2,48,0,47
2,48,73,49
2,48,0,309
2,41,82,75
2,41,0,199
2,41,60,89
2,41,0,55
2,41,82,41
2,41,0,165
2,48,73,27
2,48,0,95
2,49,91,1
2,50,73,96
2,49,0,0
2,50,0,207
2,57,44,128
2,65,56,49
2,57,0,0
2,65,0,47
2,57,25,1
2,57,0,47
2,64,60,1
2,64,0,47
2,57,30,1
2,62,64,48
2,57,0,0
2,62,0,47
2,57,48,1
2,57,0,47
2,53,60,1
2,53,0,47
2,57,32,1
2,55,82,48
2,57,0,0
2,55,0,219
2,43,44,69
2,43,0,47
2,43,73,49
2,43,0,319
2,48,91,65
2,48,0,213
2,48,82,75
2,48,0,55
2,48,91,41
2,48,0,295
2,41,64,90
2,53,73,142
2,41,0,8
2,53,0,32
2,41,60,105
2,41,0,39
2,41,60,57
2,41,0,87
2,53,73,8
2,53,0,32
2,48,60,1
2,48,0,47
2,41,56,1
2,43,52,47
2,41,0,8
2,43,0,30
2,46,64,11
2,46,0,192
2,46,64,96
2,46,0,43
2,46,91,53
2,46,0,47
2,46,82,337
2,46,0,125
2,46,91,18
2,46,0,30
2,46,60,115
2,46,0,31
2,46,91,65
2,46,0,45
2,58,60,147
2,58,0,0
2,48,64,1
2,48,0,124
2,48,73,18
2,48,0,40
2,48,64,105
2,48,0,47
2,48,82,49
2,48,0,69
2,41,73,315
2,41,0,143
2,53,73,1
2,53,0,48
2,41,73,96
2,41,0,39
2,41,64,57
2,41,0,47
2,53,73,48
2,48,64,32
2,53,0,14
2,48,0,34
2,41,52,1
2,41,0,47
2,43,60,1
2,43,0,39
2,46,73,9
2,46,0,193
2,46,82,95
2,46,0,47
2,46,91,49
2,46,0,53
2,46,82,331
2,46,0,111
2,46,64,33
2,46,0,29
2,46,82,115
2,46,0,32
2,46,91,64
2,46,0,55
2,58,73,137
2,58,0,0
2,48,64,1
2,48,0,100
2,48,64,42
2,48,0,32
2,48,60,113
2,48,0,39
2,48,73,57
2,48,0,85
2,48,91,299
2,48,0,199
2,48,82,88
2,48,0,40
2,48,82,57
2,48,0,295
2,41,73,89
2,41,0,119
2,41,73,25
2,41,0,63
2,41,60,81
2,41,0,48
2,41,73,48
2,41,0,199
2,45,73,185
2,45,0,119
2,45,73,25
2,45,0,55
2,45,82,89
2,45,0,48
2,45,82,48
2,45,0,205
2,46,64,179
2,46,0,111
2,46,64,32
2,46,0,49
2,46,82,96
2,46,0,39
2,46,73,57
2,46,0,199
2,48,73,185
2,48,0,111
2,48,60,33
2,48,0,48
2,48,60,96
2,48,0,45
2,48,56,51
2,48,0,71
2,60,60,25
2,62,52,48
2,60,0,0
2,55,64,48
2,62,0,0
2,48,48,48
2,55,0,0
2,53,64,48
