track,note,velocity,time
0,50,67,389
0,38,54,3
0,74,65,47
0,66,56,0
0,50,0,35
0,69,48,8
0,38,0,35
0,66,47,12
0,74,0,43
0,74,66,5
0,66,0,48
0,69,46,1
0,69,0,11
0,66,49,25
0,66,0,23
0,74,71,18
0,74,0,21
0,69,0,1
0,69,62,22
0,66,0,1
0,74,0,15
0,66,59,24
0,69,0,20
0,66,0,20
0,74,57,3
0,74,0,26
0,43,55,22
0,36,51,39
0,48,57,1
0,72,66,1
0,64,69,2
0,43,0,1
0,67,61,2
0,36,0,2
0,48,0,5
0,72,0,15
0,64,0,0
0,31,74,40
0,62,74,5
0,43,72,0
0,67,76,2
0,71,86,0
0,67,0,4
0,31,0,0
0,62,0,2
0,43,0,2
0,67,0,4
0,71,0,7
0,45,64,31
0,45,0,26
0,38,65,8
0,50,71,3
0,66,86,50
0,74,83,1
0,69,70,40
0,38,0,6
0,50,0,15
0,66,62,14
0,66,0,40
0,74,67,6
0,74,0,44
0,69,64,3
0,69,0,2
0,66,53,41
0,66,0,41
0,74,63,4
0,74,0,10
0,69,0,10
0,66,0,17
0,69,67,7
0,74,0,29
0,69,0,10
0,66,59,7
0,66,0,20
0,36,68,2
0,48,77,3
0,67,73,4
0,72,76,1
0,64,78,0
0,36,0,12
0,48,0,4
0,67,0,29
0,72,0,7
0,64,0,24
0,31,53,2
0,43,71,2
0,64,74,1
0,71,79,1
0,31,0,6
0,43,0,5
0,64,0,4
0,71,0,2
0,45,77,29
0,45,0,22
0,38,72,18
0,57,65,42
0,54,53,0
0,62,40,4
0,45,61,83
0,38,0,46
0,50,54,2
0,54,53,78
0,57,0,1
0,50,61,52
0,54,0,26
0,62,0,64
0,50,66,3
0,45,0,26
0,54,70,14
0,50,62,43
0,50,0,9
0,54,0,18
0,48,83,17
0,50,0,23
0,50,0,0
0,45,80,18
0,54,0,33
0,41,67,12
0,50,0,37
0,48,0,4
0,42,58,7
0,45,0,10
0,41,0,5
0,42,0,7
0,38,60,9
0,54,40,92
0,62,36,1
0,57,59,3
0,45,54,44
0,50,55,50
0,38,0,1
0,54,0,25
0,54,42,4
0,62,0,32
0,57,0,5
0,45,0,5
0,50,55,8
0,50,0,18
0,50,67,59
0,54,0,21
0,50,64,62
0,62,73,2
0,50,0,24
0,66,87,15
0,50,0,27
0,50,0,9
0,67,91,8
0,62,0,1
0,66,0,18
0,69,111,25
0,50,71,1
0,67,0,27
0,69,0,7
0,45,69,6
0,50,0,8
0,45,0,1
0,60,55,7
0,36,58,1
0,64,63,2
0,69,56,1
0,60,0,45
0,67,69,4
0,36,0,48
0,64,0,4
0,69,0,1
0,67,66,28
0,60,64,0
0,64,62,1
0,43,55,46
0,67,0,6
0,48,46,46
0,67,0,12
0,60,0,7
0,64,0,9
0,60,47,6
0,38,59,52
0,43,0,32
0,31,63,8
0,43,59,2
0,48,0,29
0,60,0,19
0,38,0,1
0,31,0,7
0,43,69,24
0,62,80,45
0,43,0,25
0,67,90,18
0,62,31,8
0,43,0,8
0,62,0,9
0,69,88,14
0,67,0,7
0,62,0,20
0,71,90,19
0,43,75,0
0,69,0,1
0,71,0,10
0,43,0,11
0,45,54,29
0,47,54,1
0,45,0,9
0,47,0,1
0,71,64,9
0,62,58,1
0,66,57,3
0,38,67,1
0,71,0,41
0,69,71,5
0,45,60,41
0,62,0,6
0,66,0,4
0,50,52,25
0,57,62,42
0,62,60,47
0,38,0,18
0,66,62,26
0,69,0,11
0,38,53,36
0,45,0,4
0,50,0,26
0,57,0,13
0,57,78,1
0,62,0,20
0,66,79,20
0,62,67,2
0,57,72,2
0,66,0,6
0,38,0,2
0,57,0,6
0,66,0,5
0,62,76,18
0,57,71,1
0,66,72,1
0,62,0,9
0,57,0,11
0,62,0,0
0,57,0,20
0,57,84,4
0,66,82,1
0,62,74,1
0,50,63,0
0,66,0,18
0,57,0,13
0,66,0,6
0,57,83,16
0,64,79,4
0,45,74,44
0,62,0,6
0,50,0,13
0,62,76,1
0,57,0,1
0,64,0,7
0,45,0,1
0,62,0,3
0,36,66,38
0,48,66,0
0,64,78,3
0,55,76,0
0,62,67,49
0,36,0,2
0,48,0,45
0,64,0,18
0,55,71,13
0,60,70,1
0,55,0,17
0,62,0,34
0,48,59,9
0,55,0,12
0,60,0,15
0,55,58,16
0,38,52,46
0,48,0,14
0,55,0,2
0,31,64,15
0,43,58,1
0,55,71,84
0,59,88,40
0,38,0,5
0,62,86,39
0,31,0,7
0,43,0,16
0,43,59,22
0,55,0,7
0,59,0,3
0,62,0,1
0,43,0,11
0,64,87,18
0,64,0,33
0,62,63,13
0,45,62,3
0,62,0,23
0,45,0,21
0,64,72,0
0,38,54,4
0,64,0,51
0,62,61,29
0,57,57,3
0,54,36,0
0,45,53,48
0,50,60,10
0,38,0,3
0,62,0,69
0,54,49,10
0,50,43,54
0,57,0,9
0,54,0,54
0,54,57,22
0,50,62,41
0,45,0,12
0,50,57,35
0,50,0,9
0,54,0,13
0,48,80,19
0,50,0,8
0,54,0,7
0,45,68,9
0,50,0,44
0,41,48,6
0,50,0,36
0,42,52,6
0,48,0,40
0,38,57,13
0,45,0,4
0,41,0,1
0,42,0,5
0,54,53,69
0,62,55,1
0,57,52,4
0,45,60,40
0,50,58,58
0,38,0,9
0,54,0,52
0,54,60,10
0,62,0,18
0,57,0,5
0,45,0,15
0,50,67,9
0,50,0,17
0,50,66,82
0,54,0,22
0,62,82,59
0,50,71,1
0,50,0,29
0,62,37,13
0,66,81,1
0,50,0,19
0,62,0,9
0,67,77,16
0,50,0,10
0,62,0,8
0,66,0,16
0,69,105,11
0,50,67,4
0,67,0,33
0,69,0,2
0,45,71,4
0,50,0,9
0,45,0,1
0,60,66,20
0,69,73,0
0,64,72,2
0,36,61,5
0,60,0,42
0,67,56,11
0,69,0,23
0,64,0,3
0,36,0,3
0,67,62,18
0,64,62,3
0,60,52,0
0,43,53,46
0,67,0,5
0,60,44,61
0,67,0,18
0,64,0,1
0,60,0,29
0,38,59,7
0,43,0,25
0,31,71,11
0,60,0,41
0,38,0,9
0,43,69,42
0,62,77,41
0,31,0,26
0,67,77,21
0,62,52,3
0,43,0,9
0,62,0,14
0,69,83,15
0,62,69,0
0,67,0,5
0,62,0,17
0,69,0,4
0,62,0,17
0,43,69,4
0,71,87,1
0,62,64,4
0,43,0,5
0,71,0,19
0,62,0,3
0,45,69,13
0,69,74,1
0,45,0,1
0,69,0,1
0,71,68,17
0,62,66,1
0,38,60,1
0,66,60,1
0,71,0,27
0,62,0,1
0,38,0,4
0,69,67,52
0,57,74,1
0,66,54,1
0,62,63,1
0,45,66,33
0,50,53,48
0,66,0,15
0,69,0,3
0,57,0,0
0,57,67,58
0,66,49,0
0,62,52,5
0,66,0,1
0,50,63,3
0,62,0,8
0,45,0,34
0,38,58,1
0,50,0,3
0,57,0,14
0,66,0,18
0,57,74,8
0,66,78,48
0,62,63,0
0,62,0,10
0,50,0,2
0,38,0,6
0,57,0,2
0,62,82,17
0,57,69,2
0,66,76,0
0,66,0,8
0,62,0,9
0,62,0,3
0,38,64,16
0,66,84,6
0,57,86,2
0,62,77,0
0,57,0,19
0,66,0,12
0,38,0,2
0,57,84,3
0,64,83,1
0,66,0,1
0,57,0,27
0,50,74,13
0,62,0,18
0,62,77,17
0,45,75,4
0,57,0,3
0,64,0,4
0,50,0,4
0,62,0,0
0,45,0,10
0,64,77,12
0,55,74,0
0,48,66,1
0,36,50,3
0,38,53,2
0,62,71,18
0,64,0,8
0,55,0,3
0,60,72,10
0,48,0,1
0,36,0,44
0,48,67,2
0,38,0,43
0,62,0,18
0,43,46,31
0,60,0,11
0,48,0,3
0,55,62,30
0,38,48,45
0,43,0,17
0,55,0,6
0,31,67,9
0,38,0,89
0,55,49,3
0,59,69,1
0,31,0,3
0,55,0,4
0,55,56,26
0,59,69,2
0,62,74,46
0,43,64,43
0,59,0,12
0,55,0,2
0,59,0,2
0,62,0,7
0,43,0,4
0,64,72,21
0,64,0,25
0,62,54,22
0,45,51,6
0,62,0,23
0,64,71,17
0,38,48,6
0,45,0,2
0,64,0,34
0,62,55,36
0,57,59,4
0,54,29,0
0,45,50,48
0,50,42,22
0,38,0,3
0,62,0,15
0,54,59,27
0,50,53,49
0,57,0,14
0,45,59,35
0,54,0,4
0,38,51,35
0,45,0,11
0,54,68,74
0,50,0,1
0,54,0,30
0,50,77,12
0,50,0,50
0,45,0,30
0,54,93,4
0,38,0,4
0,54,0,16
0,50,0,16
0,54,0,4
0,57,97,4
0,57,0,8
0,43,77,40
0,43,0,2
0,36,67,22
0,64,75,1
0,72,77,0
0,67,69,1
0,36,0,24
0,64,0,4
0,72,0,4
0,72,78,27
0,64,74,1
0,67,73,1
0,48,82,45
0,67,0,16
0,72,0,7
0,64,0,9
0,67,0,9
0,74,83,4
0,64,82,0
0,48,0,22
0,74,0,3
0,48,79,24
0,64,0,31
0,76,74,9
0,64,85,2
0,48,0,9
0,76,0,6
0,64,0,0
0,45,75,27
0,45,0,37
0,69,81,5
0,74,83,1
0,62,77,1
0,38,64,2
0,66,81,1
0,69,0,19
0,74,0,7
0,62,0,3
0,38,0,1
0,69,69,51
0,62,68,1
0,66,60,0
0,57,73,1
0,66,0,7
0,69,0,1
0,62,0,4
0,66,0,4
0,57,90,25
0,69,84,0
0,62,77,2
0,66,74,0
0,50,87,39
0,57,0,14
0,57,0,1
0,69,0,11
0,62,0,13
0,62,60,1
0,69,72,2
0,57,91,0
0,66,0,38
0,50,0,2
0,50,82,0
0,62,0,19
0,69,0,8
0,45,81,14
0,57,0,5
0,50,0,14
0,45,0,15
0,64,78,4
0,67,76,1
0,40,81,1
0,59,72,0
0,64,0,52
0,67,0,3
0,40,0,1
0,59,0,26
0,59,70,0
0,64,74,1
0,67,79,1
0,59,0,36
0,43,78,10
0,64,0,19
0,67,0,3
0,43,0,4
0,64,80,8
0,69,86,1
0,60,78,0
0,36,79,4
0,64,0,8
0,69,0,24
0,60,52,15
0,71,75,0
0,60,0,8
0,36,0,12
0,60,0,3
0,43,61,23
0,71,0,2
0,43,0,17
0,69,62,7
0,66,57,1
0,38,67,2
0,57,67,1
0,62,61,1
0,45,58,84
0,69,0,27
0,66,0,10
0,67,68,1
0,38,0,6
0,57,0,2
0,62,0,24
0,66,60,12
0,57,74,0
0,62,66,2
0,50,71,6
0,45,0,40
0,67,0,26
0,66,0,10
0,38,63,0
0,57,0,24
0,66,65,19
0,62,63,3
0,62,0,9
0,50,0,10
0,66,59,19
0,62,50,3
0,38,0,12
0,66,0,2
0,62,65,28
0,66,72,1
0,62,0,6
0,66,0,13
0,62,0,4
0,64,82,20
0,50,52,1
0,67,78,0
0,62,0,15
0,66,0,2
0,64,0,5
0,66,88,17
0,69,88,2
0,50,0,11
0,50,69,25
0,67,0,5
0,66,0,26
0,69,0,10
0,45,70,0
0,64,76,5
0,69,71,3
0,60,67,0
0,50,0,1
0,45,0,5
0,36,62,32
0,64,0,8
0,67,64,6
0,69,0,8
0,60,0,1
0,36,0,3
0,64,59,63
0,55,64,0
0,60,58,1
0,67,44,1
0,67,0,28
0,64,0,9
0,48,45,3
0,55,0,4
0,60,0,12
0,62,56,5
0,67,0,4
0,48,0,24
0,62,0,5
0,38,41,52
0,59,60,37
0,55,55,1
0,38,0,11
0,31,60,1
0,59,0,50
0,55,0,2
0,59,68,12
0,31,0,20
0,59,69,25
0,43,52,56
0,59,0,3
0,59,0,26
0,62,71,4
0,43,0,21
0,62,0,17
0,64,73,2
0,43,31,3
0,64,0,10
0,43,0,22
0,62,64,11
0,62,0,24
0,64,67,18
0,38,52,2
0,64,0,36
0,62,65,43
0,54,48,2
0,57,57,2
0,45,53,38
0,38,0,54
0,50,53,0
0,62,0,66
0,54,48,14
0,50,55,50
0,54,0,26
0,57,0,7
0,54,62,56
0,50,65,6
0,45,0,21
0,50,71,58
0,50,0,13
0,54,0,25
0,48,77,4
0,50,0,35
0,45,77,5
0,54,0,3
0,50,0,39
0,41,63,0
0,50,0,40
0,42,58,2
0,48,0,35
0,38,60,14
0,45,0,7
0,41,0,7
0,42,0,3
0,54,51,5
0,62,48,2
0,57,59,1
0,45,58,43
0,50,61,51
0,38,0,11
0,54,0,49
0,54,68,10
0,62,0,26
0,57,0,2
0,45,0,17
0,50,69,1
0,50,0,23
0,50,69,70
0,54,0,20
0,50,0,6
0,50,82,62
0,62,81,2
0,66,84,42
0,50,0,11
0,50,0,14
0,66,60,20
0,62,0,23
0,66,0,10
0,67,82,18
0,45,64,7
0,66,0,7
0,67,0,2
0,45,0,22
0,45,61,6
0,69,69,2
0,45,0,7
0,69,0,3
0,69,81,9
0,36,65,2
0,69,0,38
0,60,56,8
0,64,59,3
0,67,66,0
0,36,0,12
0,60,0,5
0,64,0,2
0,60,48,1
0,55,49,1
0,64,52,2
0,67,39,3
0,67,0,20
0,48,49,10
0,60,0,13
0,55,0,14
0,55,51,12
0,64,0,26
0,67,0,18
0,38,55,11
0,48,0,38
0,31,70,2
0,43,59,4
0,55,0,17
0,38,0,20
0,31,0,8
0,43,63,40
0,43,0,36
0,62,74,7
0,43,0,23
0,43,53,18
0,67,74,3
0,62,30,9
0,62,0,9
0,43,0,4
0,67,0,2
0,71,49,15
0,62,0,25
0,43,59,29
0,71,0,1
0,71,72,2
0,43,0,8
0,71,0,14
0,45,66,22
0,45,0,29
0,62,62,6
0,71,55,1
0,66,59,2
0,38,54,2
0,62,0,27
0,71,0,1
0,66,0,7
0,66,45,50
0,69,48,1
0,62,43,2
0,57,54,3
0,45,50,46
0,50,53,12
0,38,0,12
0,66,0,50
0,57,60,19
0,50,60,45
0,69,0,7
0,38,59,27
0,62,0,8
0,57,0,17
0,45,0,1
0,50,0,0
0,57,69,16
0,57,0,22
0,50,0,15
0,66,79,5
0,62,65,3
0,38,0,8
0,57,0,9
0,66,69,19
0,50,56,1
0,62,69,0
0,66,0,4
0,57,52,0
0,62,0,8
0,66,0,8
0,50,0,1
0,62,0,5
0,38,49,4
0,66,71,5
0,62,66,0
0,57,69,1
0,57,0,8
0,38,0,15
0,66,0,2
0,62,0,9
0,57,66,18
0,64,77,1
0,57,0,46
0,45,40,15
0,62,75,11
0,57,0,11
0,64,0,5
0,45,0,1
0,62,0,13
0,36,64,28
0,55,73,2
0,64,63,0
0,62,62,13
0,36,0,3
0,55,0,21
0,60,67,3
0,48,60,1
0,64,0,23
0,62,0,2
0,43,63,64
0,60,0,10
0,48,0,9
0,55,54,26
0,38,66,45
0,43,0,34
0,55,0,2
0,31,66,6
0,43,71,89
0,38,0,30
0,59,85,11
0,55,77,1
0,31,0,25
0,43,0,12
0,55,51,4
0,62,86,4
0,59,0,3
0,55,0,34
0,43,76,2
0,55,0,12
0,62,0,4
0,43,0,1
0,55,69,25
0,64,80,1
0,55,0,35
0,62,64,11
0,45,66,4
0,64,0,13
0,62,0,11
0,38,55,19
0,64,70,1
0,45,0,1
0,38,0,46
0,62,66,31
0,54,60,1
0,57,71,3
0,45,62,43
0,64,0,49
0,50,64,2
0,62,0,72
0,54,62,11
0,50,67,43
0,54,0,9
0,57,0,10
0,45,0,6
0,50,0,14
0,54,0,5
0,38,63,3
0,50,0,15
0,62,72,3
0,38,0,27
0,66,71,17
0,62,42,1
0,62,0,10
0,66,0,7
0,66,74,23
0,62,73,1
0,62,0,16
0,66,0,3
0,50,84,26
0,62,72,2
0,67,77,8
0,62,0,16
0,50,0,1
0,62,0,39
0,50,60,13
0,64,98,12
0,69,95,0
0,67,0,24
0,50,0,4
0,64,0,5
0,45,77,11
0,69,0,12
0,45,0,9
0,69,83,11
0,64,79,1
0,60,72,1
0,36,70,3
0,69,0,16
0,64,0,9
0,60,0,4
0,67,85,6
0,60,79,1
0,36,0,10
0,67,0,8
0,48,63,21
0,64,78,14
0,60,71,2
0,55,77,1
0,67,68,1
0,60,0,14
0,48,66,31
0,48,0,3
0,64,0,15
