track,note,velocity,time
1,36,107,1536
1,40,90,52
1,43,92,24
1,45,83,136
1,48,86,42
1,52,90,46
1,36,104,104
1,40,85,56
1,43,86,48
1,45,88,114
1,48,79,40
1,52,97,30
1,36,94,160
1,40,82,14
1,43,86,46
1,36,97,96
1,40,86,30
1,43,79,78
1,33,86,80
1,36,86,32
1,40,83,40
1,33,104,76
1,36,90,24
1,40,80,44
1,36,88,100
1,40,85,768
1,43,85,50
1,36,101,74
1,40,90,40
1,43,85,82
1,33,101,90
1,36,85,40
1,40,76,82
1,33,94,94
1,36,86,4
1,40,90,64
1,36,104,494
1,36,85,72
1,36,113,372
1,31,92,520
1,31,107,124
1,31,117,410
1,36,113,492
1,36,101,82
1,36,117,370
1,29,107,560
1,29,90,94
1,29,104,384
1,36,79,192
1,45,83,136
1,40,88,8
1,41,92,52
1,31,97,102
1,35,92,52
1,36,92,128
1,40,94,46
1,43,82,18
1,43,92,96
1,43,80,110
1,41,79,94
1,41,74,92
1,40,78,96
1,40,73,88
1,38,82,102
1,38,83,102
1,36,94,92
1,40,82,14
1,43,86,46
1,36,97,96
1,40,86,30
1,43,79,78
1,33,86,80
1,36,86,32
1,40,83,40
1,33,104,76
1,36,90,24
1,40,80,44
1,36,88,100
1,40,85,768
1,43,85,50
1,36,101,74
1,40,90,40
1,43,85,82
1,33,101,90
1,36,85,40
1,40,76,82
1,33,94,94
1,36,86,4
1,40,90,64
1,36,104,494
1,36,85,72
1,36,113,372
1,31,92,520
1,31,107,124
1,31,117,410
1,36,113,492
1,36,101,82
1,36,117,370
1,29,107,560
1,29,90,94
1,29,104,384
1,36,79,192
1,45,83,136
1,40,88,8
1,41,92,52
1,31,97,102
1,35,92,52
1,36,92,128
1,40,94,46
1,43,82,18
1,36,99,96
1,36,99,102
1,34,86,82
1,34,79,112
1,33,99,48
1,33,88,82
1,31,86,86
1,31,92,110
1,41,82,72
1,45,101,462
1,48,82,38
1,41,75,64
1,45,104,404
1,48,75,56
1,36,78,222
1,40,104,378
1,43,82,52
1,36,82,64
1,40,107,400
1,43,83,76
1,38,79,154
1,42,104,396
1,45,79,84
1,38,85,144
1,42,109,394
1,45,83,120
1,43,123,160
1,43,107,1372
1,43,90,100
1,41,86,100
1,41,83,100
1,40,86,92
1,40,86,98
1,38,94,94
1,38,104,96
1,36,94,98
1,40,82,14
1,43,86,46
1,36,97,96
1,40,86,30
1,43,79,78
1,33,86,80
1,36,86,32
1,40,83,40
1,33,104,76
1,36,90,24
1,40,80,44
1,36,88,100
1,40,85,768
1,43,85,50
1,36,101,74
1,40,90,40
1,43,85,82
1,33,101,90
1,36,85,40
1,40,76,82
1,33,94,94
1,36,86,4
1,40,90,64
1,36,104,494
1,36,85,72
1,36,113,372
1,31,92,520
1,31,107,124
1,31,117,410
1,36,113,492
1,36,101,82
1,36,117,370
1,29,107,560
1,29,90,94
1,29,104,384
1,36,79,192
1,45,83,136
1,40,88,8
1,41,92,52
1,31,97,102
1,35,92,52
1,36,92,128
1,40,94,46
1,43,82,18
1,44,104,96
1,42,100,58
1,42,96,112
1,41,88,80
1,41,82,106
1,39,100,94
1,39,100,96
1,37,94,80
1,41,82,14
1,44,86,46
1,37,97,96
1,41,86,30
1,44,79,78
1,34,86,80
1,37,86,32
1,41,83,40
1,34,104,76
1,37,90,24
1,41,80,44
1,37,88,100
1,41,85,768
1,44,85,50
1,37,101,74
1,41,90,40
1,44,85,82
1,34,101,90
1,37,85,40
1,41,76,82
1,34,94,94
1,37,86,4
1,41,90,64
1,37,104,494
1,37,85,72
1,37,113,372
1,32,92,520
1,32,107,124
1,32,117,410
1,37,113,492
1,37,101,82
1,37,117,370
1,30,107,560
1,30,90,94
1,30,104,384
1,37,79,192
1,46,83,136
1,41,88,8
1,42,92,52
1,32,97,102
1,36,92,52
1,37,107,128
1,41,90,52
1,44,92,24
1,46,83,136
1,49,86,42
1,53,90,46
1,37,104,104
1,41,85,56
1,44,86,48
1,46,88,114
1,49,79,40
1,53,97,30
1,37,107,160
1,41,90,52
1,44,92,24
1,46,83,136
1,49,86,42
1,53,90,46
1,37,104,104
1,41,85,56
1,44,86,48
1,46,88,114
1,49,79,40
1,53,97,30
1,37,104,160
1,41,85,56
1,44,86,48
1,46,88,114
1,49,79,40
1,53,97,30
1,37,117,160
2,64,95,1536
2,67,90,0
2,60,88,0
2,48,92,0
2,55,82,0
2,60,89,294
2,57,88,0
2,64,86,0
2,45,84,0
2,48,84,344
2,55,83,0
2,64,86,0
2,60,78,0
2,67,84,0
2,45,86,326
2,57,84,0
2,64,83,0
2,60,85,0
2,60,76,414
2,64,85,0
2,67,81,0
2,48,84,0
2,55,80,0
2,45,86,1138
2,64,84,0
2,60,88,0
2,57,83,0
2,67,90,1134
2,48,86,0
2,55,80,0
2,60,85,0
2,64,89,0
2,45,89,1088
2,57,75,0
2,64,80,0
2,60,82,0
2,67,96,1198
2,64,104,0
2,60,93,0
2,64,96,80
2,60,88,0
2,67,92,0
2,64,96,442
2,67,93,0
2,60,86,0
2,74,88,624
2,71,92,0
2,67,80,0
2,71,93,88
2,74,89,0
2,67,84,0
2,71,95,456
2,74,90,0
2,67,84,0
2,72,95,632
2,67,82,0
2,76,88,0
2,72,96,82
2,76,92,0
2,67,86,0
2,72,98,450
2,67,88,0
2,76,93,0
2,69,92,650
2,72,88,0
2,65,82,0
2,72,90,94
2,69,96,0
2,65,82,0
2,69,96,462
2,72,90,0
2,65,84,0
2,67,86,300
2,64,88,0
2,60,82,0
2,57,85,142
2,64,90,0
2,60,92,0
2,60,86,150
2,57,93,0
2,53,86,0
2,62,88,106
2,59,95,0
2,55,86,0
2,60,90,166
2,64,93,0
2,55,72,0
2,48,79,0
2,77,95,386
2,86,93,0
2,83,78,0
2,91,86,0
2,77,96,120
2,86,90,0
2,83,81,0
2,91,92,0
2,86,98,112
2,83,85,0
2,77,96,0
2,91,95,0
2,91,96,104
2,83,85,0
2,77,100,0
2,86,98,0
2,77,104,110
2,83,88,0
2,86,104,0
2,91,96,0
2,91,98,104
2,86,104,0
2,83,89,0
2,77,100,0
2,77,107,104
2,86,104,0
2,83,90,0
2,91,96,0
2,77,109,104
2,86,111,0
2,83,95,0
2,91,98,0
2,60,76,94
2,64,85,0
2,67,81,0
2,48,84,0
2,55,80,0
2,45,86,1138
2,64,84,0
2,60,88,0
2,57,83,0
2,67,90,1134
2,48,86,0
2,55,80,0
2,60,85,0
2,64,89,0
2,45,89,1088
2,57,75,0
2,64,80,0
2,60,82,0
2,67,96,1198
2,64,104,0
2,60,93,0
2,64,96,80
2,60,88,0
2,67,92,0
2,64,96,442
2,67,93,0
2,60,86,0
2,74,88,624
2,71,92,0
2,67,80,0
2,71,93,88
2,74,89,0
2,67,84,0
2,71,95,456
2,74,90,0
2,67,84,0
2,72,95,632
2,67,82,0
2,76,88,0
2,72,96,82
2,76,92,0
2,67,86,0
2,72,98,450
2,67,88,0
2,76,93,0
2,69,92,650
2,72,88,0
2,65,82,0
2,72,90,94
2,69,96,0
2,65,82,0
2,69,96,462
2,72,90,0
2,65,84,0
2,67,86,300
2,64,88,0
2,60,82,0
2,57,85,142
2,64,90,0
2,60,92,0
2,60,86,150
2,57,93,0
2,53,86,0
2,62,88,106
2,59,95,0
2,55,86,0
2,60,90,166
2,64,93,0
2,55,72,0
2,48,79,0
2,60,111,386
2,60,104,112
2,79,79,0
2,72,85,0
2,82,73,0
2,88,92,0
2,91,81,0
2,58,114,88
2,72,78,0
2,79,79,0
2,88,93,0
2,82,73,0
2,91,80,0
2,58,114,86
2,72,81,0
2,79,79,0
2,88,95,0
2,82,83,0
2,91,86,0
2,57,114,90
2,79,80,0
2,72,86,0
2,82,81,0
2,88,98,0
2,91,86,0
2,57,100,96
2,82,89,0
2,88,100,0
2,91,90,0
2,72,89,0
2,79,85,0
2,55,102,90
2,72,96,0
2,79,95,0
2,82,91,0
2,88,104,0
2,91,93,0
2,55,104,84
2,72,98,0
2,82,89,0
2,79,96,0
2,88,102,0
2,91,92,0
2,60,85,90
2,69,95,0
2,72,90,0
2,53,89,0
2,65,86,0
2,53,100,130
2,60,100,54
2,65,100,32
2,69,100,192
2,72,98,384
2,67,86,232
2,64,89,0
2,60,81,0
2,60,93,138
2,67,95,0
2,64,100,0
2,67,102,306
2,60,98,0
2,64,114,0
2,57,81,502
2,69,86,0
2,62,82,0
2,50,85,0
2,66,81,0
2,66,99,154
2,60,92,0
2,69,100,0
2,66,106,276
2,60,93,0
2,69,104,0
2,43,107,494
2,59,109,0
2,55,95,0
2,62,96,0
2,67,89,1400
2,71,100,0
2,74,93,0
2,71,96,102
2,67,84,0
2,74,89,0
2,74,89,106
2,71,96,0
2,67,85,0
2,67,85,114
2,71,98,0
2,74,86,0
2,71,96,100
2,67,85,0
2,74,88,0
2,71,95,98
2,67,84,0
2,74,84,0
2,67,86,106
2,71,98,0
2,74,89,0
2,67,95,100
2,71,100,0
2,74,95,0
2,60,76,112
2,64,85,0
2,67,81,0
2,48,84,0
2,55,80,0
2,45,86,1138
2,64,84,0
2,60,88,0
2,57,83,0
2,67,90,1134
2,48,86,0
2,55,80,0
2,60,85,0
2,64,89,0
2,45,89,1088
2,57,75,0
2,64,80,0
2,60,82,0
2,67,96,1198
2,64,104,0
2,60,93,0
2,64,96,80
2,60,88,0
2,67,92,0
2,64,96,442
2,67,93,0
2,60,86,0
2,74,88,624
2,71,92,0
2,67,80,0
2,71,93,88
2,74,89,0
2,67,84,0
2,71,95,456
2,74,90,0
2,67,84,0
2,72,95,632
2,67,82,0
2,76,88,0
2,72,96,82
2,76,92,0
2,67,86,0
2,72,98,450
2,67,88,0
2,76,93,0
2,69,92,650
2,72,88,0
2,65,82,0
2,72,90,94
2,69,96,0
2,65,82,0
2,69,96,462
2,72,90,0
2,65,84,0
2,67,86,300
2,64,88,0
2,60,82,0
2,57,85,142
2,64,90,0
2,60,92,0
2,60,86,150
2,57,93,0
2,53,86,0
2,62,88,106
2,59,95,0
2,55,86,0
2,60,90,166
2,64,93,0
2,55,72,0
2,48,79,0
2,66,59,578
2,68,70,0
2,60,68,0
2,63,73,0
2,56,53,118
2,66,56,0
2,68,73,0
2,63,72,0
2,60,67,0
2,44,67,0
2,56,70,98
2,51,67,0
2,66,69,0
2,60,72,0
2,63,73,0
2,44,70,0
2,68,81,0
2,56,73,82
2,51,87,0
2,63,89,0
2,66,85,0
2,60,84,0
2,68,85,0
2,44,78,0
2,68,91,88
2,66,91,0
2,63,94,0
2,60,92,0
2,44,81,0
2,56,79,0
2,51,91,0
2,66,106,88
2,63,106,0
2,68,96,0
2,51,94,0
2,56,87,0
2,60,96,0
2,44,83,0
2,56,83,88
2,51,91,0
2,44,87,0
2,63,106,0
2,66,102,0
2,68,94,0
2,60,98,0
2,56,80,82
2,49,84,0
2,68,81,0
2,65,85,0
2,61,76,0
2,58,83,1138
2,61,88,0
2,65,84,0
2,46,86,0
2,65,89,1134
2,61,85,0
2,56,80,0
2,49,86,0
2,68,90,0
2,61,82,1088
2,65,80,0
2,58,75,0
2,46,89,0
2,61,93,1198
2,65,104,0
2,68,96,0
2,68,92,80
2,61,88,0
2,65,96,0
2,61,86,442
2,68,93,0
2,65,96,0
2,68,80,624
2,72,92,0
2,75,88,0
2,68,84,88
2,75,89,0
2,72,93,0
2,68,84,456
2,75,90,0
2,72,95,0
2,77,88,632
2,68,82,0
2,73,95,0
2,68,86,82
2,77,92,0
2,73,96,0
2,77,93,450
2,68,88,0
2,73,98,0
2,66,82,650
2,73,88,0
2,70,92,0
2,66,82,94
2,70,96,0
2,73,90,0
2,66,84,462
2,73,90,0
2,70,96,0
2,61,82,300
2,65,88,0
2,68,86,0
2,61,92,142
2,65,90,0
2,58,85,0
2,54,86,150
2,58,93,0
2,61,86,0
2,56,86,106
2,60,95,0
2,63,88,0
2,56,82,166
2,49,92,0
2,61,88,0
2,68,90,0
2,65,95,0
2,46,84,294
2,65,86,0
2,58,88,0
2,61,89,0
2,68,84,344
2,61,78,0
2,65,86,0
2,56,83,0
2,49,84,0
2,61,85,326
2,65,83,0
2,58,84,0
2,46,86,0
2,56,82,414
2,49,92,0
2,61,88,0
2,68,90,0
2,65,95,0
2,46,84,294
2,65,86,0
2,58,88,0
2,61,89,0
2,68,84,344
2,61,78,0
2,65,86,0
2,56,83,0
2,49,84,0
2,61,85,326
2,65,83,0
2,58,84,0
2,46,86,0
2,68,84,414
2,61,78,0
2,65,86,0
2,56,83,0
2,49,84,0
2,61,85,326
2,65,83,0
2,58,84,0
2,46,86,0
2,68,86,414
2,65,90,0
2,49,100,0
2,61,83,0
3,67,99,1536
3,67,82,100
3,72,99,96
3,76,94,56
3,72,107,88
3,67,88,108
3,72,104,86
3,76,78,112
3,72,99,72
3,69,82,102
3,69,83,94
3,72,99,96
3,76,86,80
3,72,104,102
3,69,88,88
3,76,80,94
3,72,92,92
3,69,97,80
3,67,92,114
3,67,75,104
3,72,90,4
3,76,92,96
3,72,99,80
3,67,82,88
3,76,76,86
3,72,101,72
3,67,90,88
3,69,92,108
3,69,82,106
3,72,65,96
3,76,85,64
3,72,107,88
3,69,90,74
3,76,88,88
3,72,99,78
3,69,92,88
3,67,94,114
3,67,79,116
3,72,88,96
3,76,88,88
3,72,97,88
3,67,85,88
3,72,104,94
3,76,73,104
3,72,82,74
3,67,97,98
3,67,82,120
3,72,94,96
3,76,83,80
3,72,99,104
3,67,88,80
3,76,85,88
3,72,101,88
3,67,94,94
3,69,88,106
3,69,76,106
3,72,86,96
3,76,85,76
3,72,82,78
3,76,74,98
3,72,104,58
3,69,90,80
3,72,101,88
3,69,99,80
3,69,73,120
3,72,78,96
3,76,86,92
3,72,86,82
3,76,76,92
3,72,104,90
3,69,92,96
3,72,94,94
3,67,92,92
3,67,69,120
3,72,80,6
3,76,75,96
3,72,104,88
3,76,80,80
3,72,92,80
3,67,83,92
3,72,107,80
3,67,94,84
3,67,75,110
3,72,82,96
3,76,80,78
3,72,101,100
3,76,85,100
3,72,104,80
3,67,67,94
3,72,99,100
3,69,101,90
3,69,76,104
3,72,86,96
3,76,85,76
3,72,101,90
3,69,88,82
3,72,107,92
3,76,78,104
3,72,94,82
3,69,101,96
3,69,83,112
3,72,79,96
3,76,76,70
3,72,107,100
3,69,92,68
3,72,101,86
3,76,86,98
3,72,90,662
3,67,85,0
3,76,76,0
3,67,85,86
3,72,94,0
3,76,85,0
3,72,92,464
3,76,79,0
3,67,82,0
3,67,76,638
3,74,82,0
3,71,85,0
3,71,88,98
3,67,79,0
3,74,83,0
3,74,78,466
3,71,92,0
3,67,79,0
3,72,83,630
3,67,71,0
3,76,75,0
3,76,80,86
3,72,86,0
3,67,75,0
3,72,85,456
3,67,74,0
3,76,80,0
3,72,79,664
3,69,85,0
3,65,73,0
3,72,82,84
3,69,88,0
3,65,80,0
3,69,86,442
3,72,80,0
3,65,72,0
3,67,62,460
3,72,83,96
3,76,90,80
3,72,107,170
3,69,101,26
3,72,88,192
3,76,88,26
3,72,92,192
3,65,99,108
3,65,69,96
3,69,76,96
3,72,86,60
3,69,113,174
3,67,97,30
3,71,92,192
3,74,88,8
3,71,104,192
3,67,79,50
3,67,68,106
3,72,78,96
3,76,94,64
3,72,101,34
3,67,86,42
3,72,94,56
3,76,74,58
3,72,101,26
3,76,41,0
3,74,83,114
3,71,88,0
3,67,75,0
3,74,78,112
3,67,79,0
3,71,83,0
3,71,86,112
3,67,73,0
3,74,75,0
3,71,86,96
3,67,75,0
3,74,79,0
3,71,88,96
3,74,80,0
3,67,74,0
3,71,90,100
3,74,78,0
3,67,75,0
3,71,88,96
3,67,76,0
3,74,80,0
3,71,92,88
3,67,82,0
3,74,86,0
3,67,94,98
3,67,79,116
3,72,88,96
3,76,88,88
3,72,97,88
3,67,85,88
3,72,104,94
3,76,73,104
3,72,82,74
3,67,97,98
3,67,82,120
3,72,94,96
3,76,83,80
3,72,99,104
3,67,88,80
