track,note,velocity,time
0,36,118,64
0,42,64,0
0,54,28,0
0,44,61,36
0,54,36,0
0,42,61,92
0,54,52,0
0,64,55,0
0,26,123,0
0,69,86,0
0,72,87,0
0,76,88,0
0,44,57,16
0,54,56,0
0,38,116,92
0,42,58,0
0,54,32,0
0,62,53,0
0,28,118,0
0,67,91,0
0,71,85,0
0,74,87,0
0,44,58,92
0,54,32,0
0,64,49,0
0,42,57,92
0,54,58,0
0,36,99,16
0,44,56,0
0,54,53,0
0,64,49,0
0,36,115,92
0,42,55,0
0,54,29,0
0,29,117,0
0,65,85,0
0,69,91,0
0,72,90,0
0,44,60,92
0,54,33,0
0,42,56,92
0,54,58,0
0,64,53,0
0,44,58,16
0,54,54,0
0,31,121,0
0,67,86,0
0,71,90,0
0,74,91,0
0,42,62,92
0,54,28,0
0,44,64,92
0,54,34,0
0,42,60,92
0,54,54,0
0,44,62,92
0,54,56,0
0,36,117,92
0,42,61,0
0,54,31,0
0,44,61,16
0,54,34,0
0,42,58,92
0,54,58,0
0,64,53,0
0,26,119,0
0,69,85,0
0,72,88,0
0,76,90,0
0,44,55,12
0,54,49,0
0,38,124,92
0,42,57,0
0,54,34,0
0,62,53,0
0,28,119,0
0,67,88,0
0,71,91,0
0,74,91,0
0,44,56,92
0,54,34,0
0,42,60,16
0,54,54,0
0,36,95,16
0,44,64,0
0,54,54,0
0,64,51,0
0,36,118,92
0,42,56,0
0,54,30,0
0,29,120,0
0,72,86,0
0,76,85,0
0,79,84,0
0,44,61,92
0,54,31,0
0,42,55,16
0,54,51,0
0,76,85,0
0,44,57,16
0,54,58,0
0,62,49,0
0,31,123,0
0,67,85,0
0,71,86,0
0,74,88,0
0,42,57,92
0,54,30,0
0,62,50,0
0,74,87,0
0,44,62,16
0,54,28,0
0,64,55,0
0,72,80,0
0,42,58,16
0,54,57,0
0,64,50,0
0,69,83,0
0,44,58,16
0,54,49,0
0,72,81,0
0,36,120,16
0,42,62,0
0,54,27,0
0,44,60,16
0,54,34,0
0,42,55,92
0,54,50,0
0,64,51,0
0,26,119,0
0,69,92,0
0,72,84,0
0,76,89,0
0,44,61,16
0,54,52,0
0,38,121,92
0,42,60,0
0,54,28,0
0,62,54,0
0,28,118,0
0,67,86,0
0,71,84,0
0,74,86,0
0,44,61,92
0,54,36,0
0,64,56,0
0,42,58,92
0,54,58,0
0,36,98,16
0,44,59,0
0,54,50,0
0,36,123,92
0,42,63,0
0,54,32,0
0,29,116,0
0,65,87,0
0,69,86,0
0,72,92,0
0,74,82,0
0,44,57,16
0,54,29,0
0,76,84,0
0,42,57,16
0,54,57,0
0,64,51,0
0,44,60,16
0,54,52,0
0,31,122,0
0,67,86,0
0,71,87,0
0,74,85,0
0,74,81,0
0,42,57,16
0,54,29,0
0,62,52,0
0,44,59,92
0,54,30,0
0,42,58,92
0,54,49,0
0,44,59,16
0,54,57,0
0,67,88,0
0,36,124,16
0,42,57,0
0,54,36,0
0,33,115,0
0,69,90,0
0,72,87,0
0,72,79,0
0,44,61,92
0,54,33,0
0,42,55,92
0,54,52,0
0,64,55,0
0,44,61,92
0,54,56,0
0,38,115,92
0,42,63,0
0,54,27,0
0,44,61,16
0,54,29,0
0,64,53,0
0,42,61,92
0,54,51,0
0,67,88,0
0,36,99,16
0,44,63,0
0,54,49,0
0,69,81,0
0,69,98,0
0,36,122,16
0,42,59,0
0,54,33,0
0,72,81,0
0,76,101,0
0,72,96,0
0,44,64,16
0,54,28,0
0,72,79,0
0,42,59,16
0,54,52,0
0,44,64,92
0,54,50,0
0,62,51,0
0,72,81,0
0,42,61,16
0,54,29,0
0,62,56,0
0,44,58,92
0,54,36,0
0,64,58,0
0,42,60,92
0,54,54,0
0,64,52,0
0,67,80,0
0,44,62,16
0,54,56,0
0,72,79,0
0,36,118,16
0,42,59,0
0,54,36,0
0,44,63,92
0,54,33,0
0,42,62,92
0,54,51,0
0,64,55,0
0,44,60,92
0,54,57,0
0,38,117,92
0,42,57,0
0,54,28,0
0,62,54,0
0,44,60,92
0,54,31,0
0,64,57,0
0,42,58,92
0,54,51,0
0,67,82,0
0,36,98,16
0,44,60,0
0,54,57,0
0,69,84,0
0,36,124,16
0,42,62,0
0,54,27,0
0,60,81,0
0,44,64,16
0,54,36,0
0,42,57,92
0,54,56,0
0,60,122,0
0,44,61,36
0,54,55,0
0,64,58,0
0,60,79,0
0,42,58,16
0,54,30,0
0,62,52,0
0,62,114,0
0,44,57,92
0,54,31,0
0,64,55,0
0,42,56,16
0,54,56,0
0,60,116,0
0,44,62,16
0,54,55,0
0,36,119,16
0,42,59,0
0,54,29,0
0,36,118,0
0,72,90,0
0,76,89,0
0,79,90,0
0,64,121,0
0,44,60,92
0,54,34,0
0,42,60,16
0,54,49,0
0,64,57,0
0,67,116,0
0,44,61,16
0,54,52,0
0,38,121,92
0,42,56,0
0,54,32,0
0,62,55,0
0,69,119,0
0,44,60,16
0,54,31,0
0,64,55,0
0,42,64,92
0,54,52,0
0,72,115,0
0,36,94,36
0,44,62,0
0,54,55,0
0,64,52,0
0,36,122,92
0,42,58,0
0,54,32,0
0,44,64,92
0,54,31,0
0,42,64,16
0,54,57,0
0,64,54,0
0,69,119,0
0,44,56,16
0,54,57,0
0,42,56,16
0,54,33,0
0,72,88,0
0,77,91,0
0,81,92,0
0,44,58,16
0,54,30,0
0,72,85,0
0,76,91,0
0,79,85,0
0,42,58,16
0,54,52,0
0,44,63,92
0,54,52,0
0,60,118,0
0,36,124,16
0,42,57,0
0,54,34,0
0,33,123,0
0,72,88,0
0,76,85,0
0,79,84,0
0,64,119,0
0,44,57,92
0,54,35,0
0,42,60,16
0,54,55,0
0,64,58,0
0,67,117,0
0,44,63,16
0,54,58,0
0,69,123,0
0,38,117,36
0,42,59,0
0,54,27,0
0,62,58,0
0,44,59,92
0,54,35,0
0,42,62,16
0,54,52,0
0,64,114,0
0,36,92,92
0,44,58,0
0,54,54,0
0,64,56,0
0,36,117,92
0,42,62,0
0,54,30,0
0,44,62,92
0,54,28,0
0,42,56,16
0,54,51,0
0,44,58,92
0,54,49,0
0,62,52,0
0,42,59,92
0,54,34,0
0,62,50,0
0,44,62,92
0,54,34,0
0,64,56,0
0,42,62,92
0,54,58,0
0,64,51,0
0,44,61,16
0,54,51,0
0,36,121,16
0,42,58,0
0,54,29,0
0,29,117,0
0,65,85,0
0,69,92,0
0,74,90,0
0,62,116,0
0,44,64,92
0,54,28,0
0,42,56,16
0,54,55,0
0,64,56,0
0,60,117,0
0,44,62,16
0,54,52,0
0,38,118,92
0,42,55,0
0,54,27,0
0,62,58,0
0,60,123,0
0,44,64,16
0,54,35,0
0,64,57,0
0,42,61,92
0,54,51,0
0,65,89,0
0,69,86,0
0,72,88,0
0,60,119,0
0,36,90,92
0,44,57,0
0,54,49,0
0,36,122,92
0,42,58,0
0,54,30,0
0,44,62,16
0,54,29,0
0,42,59,92
0,54,58,0
0,64,58,0
0,44,57,92
0,54,58,0
0,42,57,92
0,54,33,0
0,62,55,0
0,44,62,92
0,54,27,0
0,69,115,0
0,42,55,92
0,54,56,0
0,44,63,16
0,54,52,0
0,72,116,0
0,36,116,16
0,42,57,0
0,54,27,0
0,26,117,0
0,69,115,0
0,44,60,92
0,54,31,0
0,42,55,92
0,54,54,0
0,64,49,0
0,65,92,0
0,69,86,0
0,72,85,0
0,44,59,16
0,54,49,0
0,38,120,16
0,42,59,0
0,54,33,0
0,28,120,0
0,67,90,0
0,71,84,0
0,74,84,0
0,67,123,0
0,44,59,92
0,54,33,0
0,64,52,0
0,42,58,92
0,54,54,0
0,36,95,16
0,44,60,0
0,54,53,0
0,36,117,16
0,42,59,0
0,54,35,0
0,29,115,0
0,69,90,0
0,72,93,0
0,76,88,0
0,69,115,0
0,44,62,36
0,54,32,0
0,42,62,92
0,54,50,0
0,44,58,16
0,54,51,0
0,62,58,0
0,42,64,16
0,54,33,0
0,62,54,0
0,31,119,0
0,67,85,0
0,71,86,0
0,74,92,0
0,44,63,16
0,54,31,0
0,64,53,0
0,42,56,92
0,54,56,0
0,64,50,0
0,44,55,16
0,54,56,0
0,67,121,0
0,36,115,16
0,42,55,0
0,54,30,0
0,36,123,0
0,72,85,0
0,76,92,0
0,79,92,0
0,67,119,0
0,44,60,16
0,54,33,0
0,42,61,92
0,54,58,0
0,64,56,0
0,72,122,0
0,44,56,16
0,54,50,0
0,38,118,92
0,42,59,0
0,54,29,0
0,62,58,0
0,74,123,0
0,44,61,16
0,54,32,0
0,64,57,0
0,42,63,92
0,54,51,0
0,76,119,0
0,36,99,36
0,44,61,0
0,54,54,0
0,36,116,92
0,42,57,0
0,54,29,0
0,44,59,16
0,54,36,0
0,42,64,92
0,54,56,0
0,74,114,0
0,44,55,16
0,54,57,0
0,64,49,0
0,42,60,92
0,54,29,0
0,62,53,0
0,72,85,0
0,77,93,0
0,81,89,0
0,44,58,16
0,54,28,0
0,64,56,0
0,72,90,0
0,76,86,0
0,79,91,0
0,74,119,0
0,42,55,16
0,54,49,0
0,44,56,92
0,54,57,0
0,76,117,0
0,36,123,16
0,42,55,0
0,54,27,0
0,33,115,0
0,72,92,0
0,76,85,0
0,79,91,0
0,74,121,0
0,44,63,92
0,54,34,0
0,42,55,16
0,54,51,0
0,64,56,0
0,69,117,0
0,44,61,16
0,54,50,0
0,69,120,0
0,38,117,16
0,42,55,0
0,54,29,0
0,62,57,0
0,44,60,92
0,54,30,0
0,42,59,92
0,54,57,0
0,69,121,0
0,36,93,92
0,44,61,0
0,54,49,0
0,36,116,92
0,42,57,0
0,54,33,0
0,44,64,92
0,54,35,0
0,42,55,16
0,54,58,0
0,64,58,0
0,44,62,92
0,54,51,0
0,62,49,0
0,42,62,92
0,54,36,0
0,62,57,0
0,44,57,92
0,54,30,0
0,64,57,0
0,42,59,92
0,54,56,0
0,64,51,0
0,44,63,16
0,54,49,0
0,36,122,16
0,42,60,0
0,54,35,0
0,29,115,0
0,65,91,0
0,69,89,0
0,74,93,0
0,64,122,0
0,44,55,92
0,54,34,0
0,42,61,16
0,54,55,0
0,64,57,0
0,67,119,0
0,44,58,16
0,54,56,0
0,38,121,92
0,42,62,0
0,54,33,0
0,62,56,0
0,69,120,0
0,44,55,16
0,54,31,0
0,64,53,0
0,42,64,92
0,54,50,0
0,65,88,0
0,69,93,0
0,72,89,0
0,64,118,0
0,36,98,92
0,44,62,0
0,54,52,0
0,36,122,92
0,42,59,0
0,54,27,0
0,44,59,92
0,54,32,0
0,42,62,16
0,54,56,0
0,64,49,0
0,62,123,0
0,44,64,16
0,54,57,0
0,60,116,0
0,42,64,16
0,54,27,0
0,62,57,0
0,44,59,92
0,54,36,0
0,42,59,92
0,54,55,0
0,44,57,16
0,54,56,0
0,36,122,16
0,42,56,0
0,54,34,0
0,26,121,0
0,67,114,0
0,44,61,92
0,54,28,0
0,42,57,92
0,54,58,0
0,64,52,0
0,65,87,0
0,69,90,0
0,72,93,0
0,44,57,16
0,54,57,0
0,38,117,16
0,42,60,0
0,54,30,0
0,28,122,0
0,67,91,0
0,71,84,0
0,74,92,0
0,69,123,0
0,44,59,92
0,54,29,0
0,42,60,92
0,54,57,0
0,64,52,0
0,36,95,16
0,44,62,0
0,54,49,0
0,72,120,0
0,36,119,16
0,42,62,0
0,54,32,0
0,29,117,0
0,69,93,0
0,72,87,0
0,76,86,0
0,69,118,0
0,44,56,92
0,54,33,0
0,42,63,16
0,54,50,0
0,64,53,0
0,67,116,0
0,44,62,16
0,54,55,0
0,62,51,0
0,42,55,16
0,54,28,0
0,62,49,0
0,31,124,0
0,67,84,0
0,71,85,0
0,74,85,0
0,44,56,92
0,54,35,0
0,64,56,0
0,42,58,92
0,54,58,0
0,64,58,0
0,44,64,16
0,54,54,0
0,67,117,0
0,36,121,16
0,42,61,0
0,54,33,0
0,36,121,0
0,72,93,0
0,76,89,0
0,79,85,0
0,72,117,0
0,44,56,16
0,54,30,0
0,31,115,0
0,42,62,16
0,54,54,0
0,64,49,0
0,24,120,0
0,74,119,0
0,44,59,16
0,54,49,0
0,38,121,16
0,42,59,0
0,54,32,0
0,62,55,0
0,36,121,0
0,72,117,0
0,44,63,16
0,54,30,0
0,64,50,0
0,42,59,16
0,54,54,0
0,36,121,0
0,76,119,0
0,36,98,16
0,44,62,0
0,54,58,0
0,64,58,0
0,36,121,92
0,42,58,0
0,54,32,0
0,44,56,16
0,54,29,0
0,42,59,92
0,54,58,0
0,64,49,0
0,74,116,0
0,44,55,92
0,54,52,0
0,42,56,92
0,54,32,0
0,44,60,92
0,54,29,0
0,42,62,16
0,54,50,0
0,33,124,0
0,44,56,16
0,54,53,0
0,31,120,0
0,76,119,0
0,36,117,16
0,42,57,0
0,54,32,0
0,33,122,0
0,72,84,0
0,76,90,0
0,79,86,0
0,74,122,0
0,44,59,16
0,54,32,0
0,42,59,16
0,54,58,0
0,64,54,0
0,72,117,0
0,44,64,92
0,54,53,0
0,33,120,0
0,38,118,16
0,42,64,0
0,54,29,0
0,62,57,0
0,28,122,0
0,69,123,0
0,44,63,16
0,54,27,0
0,42,61,16
0,54,49,0
0,33,124,0
0,74,119,0
0,36,90,36
0,44,62,0
0,54,56,0
0,64,57,0
0,36,119,16
0,42,61,0
0,54,27,0
0,72,118,0
0,44,56,92
0,54,27,0
0,42,56,92
0,54,49,0
0,44,57,16
0,54,51,0
0,62,57,0
0,42,60,16
0,54,31,0
0,62,50,0
0,72,91,0
0,76,88,0
0,81,89,0
0,44,63,16
0,54,28,0
0,64,58,0
0,42,57,92
0,54,50,0
0,64,58,0
0,33,117,0
0,74,85,0
0,79,92,0
0,83,92,0
0,44,59,16
0,54,58,0
0,31,118,0
0,36,115,16
0,42,56,0
0,54,35,0
0,29,121,0
0,76,85,0
0,81,84,0
0,84,91,0
0,64,117,0
0,44,60,92
0,54,32,0
0,42,56,16
0,54,56,0
0,64,55,0
0,67,123,0
0,44,61,16
0,54,58,0
0,29,115,0
0,38,121,16
0,42,58,0
0,54,28,0
0,62,53,0
0,24,119,0
0,69,118,0
0,44,60,16
0,54,32,0
0,64,56,0
0,42,62,16
0,54,52,0
0,29,123,0
0,69,92,0
0,72,85,0
0,64,115,0
0,36,94,92
0,44,57,0
0,54,49,0
0,36,117,16
0,42,55,0
0,54,35,0
0,44,60,92
0,54,34,0
0,42,64,16
0,54,54,0
0,64,58,0
0,62,114,0
0,44,61,92
0,54,51,0
0,42,57,16
0,54,35,0
0,62,56,0
0,60,122,0
0,44,60,92
0,54,35,0
0,42,64,16
0,54,50,0
0,29,115,0
0,44,56,16
0,54,55,0
0,28,122,0
0,36,122,16
0,42,58,0
0,54,33,0
0,26,115,0
0,44,57,92
0,54,31,0
0,42,60,92
0,54,50,0
0,64,55,0
0,65,87,0
0,69,92,0
0,72,89,0
0,69,115,0
0,44,63,16
0,54,49,0
0,38,116,16
0,42,58,0
0,54,32,0
0,28,119,0
0,67,85,0
0,71,89,0
0,74,86,0
0,44,63,92
0,54,29,0
0,64,58,0
0,42,55,16
0,54,54,0
0,67,115,0
0,36,91,16
0,44,58,0
0,54,56,0
0,36,121,16
0,42,62,0
0,54,34,0
0,29,118,0
0,69,91,0
0,72,85,0
0,76,89,0
0,67,118,0
0,44,63,92
0,54,34,0
0,42,61,92
0,54,52,0
0,44,55,16
0,54,58,0
0,62,54,0
0,42,56,16
0,54,33,0
0,62,50,0
0,31,120,0
0,67,88,0
0,71,90,0
0,74,88,0
0,44,60,92
0,54,28,0
0,64,54,0
0,42,58,92
0,54,56,0
0,64,49,0
0,44,59,16
0,54,58,0
0,69,114,0
0,36,115,16
0,42,61,0
0,54,32,0
0,36,119,0
0,72,84,0
0,76,88,0
0,79,85,0
0,69,116,0
0,44,63,16
0,54,32,0
0,31,121,0
0,42,63,16
0,54,54,0
0,64,56,0
0,24,115,0
0,72,115,0
0,44,60,16
0,54,57,0
0,74,118,0
0,38,119,16
