track,note,velocity,time
0,67,73,2072
0,79,73,0
0,40,78,36
0,42,85,0
0,68,64,0
0,80,64,0
0,81,64,64
0,69,64,0
0,82,60,52
0,70,60,0
0,71,48,12
0,83,48,0
0,84,60,12
0,72,60,0
0,85,64,20
0,73,64,0
0,86,73,48
0,74,73,0
0,36,90,4
0,38,80,0
0,36,72,0
0,52,48,0
0,62,73,0
0,48,48,0
0,49,68,0
0,64,64,0
0,67,65,0
0,71,64,0
0,67,75,0
0,55,64,4
0,62,64,0
0,59,64,4
0,31,54,88
0,46,94,0
0,67,81,4
0,64,85,4
0,67,53,0
0,64,46,0
0,33,64,4
0,71,75,0
0,38,80,8
0,36,90,0
0,42,52,0
0,88,68,8
0,76,68,0
0,64,73,4
0,36,71,0
0,42,90,0
0,67,64,4
0,64,56,4
0,71,64,0
0,88,73,4
0,76,73,0
0,64,64,0
0,67,100,4
0,64,82,0
0,38,80,0
0,36,90,0
0,42,60,0
0,64,60,92
0,71,64,0
0,67,73,0
0,42,90,0
0,31,57,4
0,74,56,0
0,67,64,0
0,64,64,0
0,71,64,0
0,67,70,4
0,64,83,0
0,33,71,0
0,42,52,8
0,38,80,0
0,36,90,0
0,74,84,4
0,71,64,56
0,59,48,4
0,55,48,4
0,46,90,0
0,36,54,0
0,62,73,4
0,67,64,0
0,48,48,0
0,42,60,44
0,36,96,0
0,36,72,0
0,38,80,0
0,64,64,0
0,71,64,0
0,67,75,0
0,31,54,88
0,42,95,0
0,67,77,4
0,64,79,8
0,67,53,0
0,71,75,0
0,33,64,0
0,64,46,0
0,42,52,8
0,38,80,0
0,36,106,0
0,36,71,36
0,42,90,0
0,67,64,4
0,64,56,12
0,71,64,0
0,59,64,44
0,71,72,0
0,83,72,0
0,64,82,4
0,67,100,0
0,38,80,0
0,36,106,0
0,42,48,0
0,42,87,92
0,67,73,0
0,71,64,0
0,64,60,0
0,31,57,4
0,84,72,0
0,72,72,0
0,60,64,0
0,76,56,0
0,72,64,0
0,67,70,4
0,67,64,0
0,64,60,0
0,64,73,0
0,33,71,0
0,42,72,8
0,38,80,0
0,36,106,0
0,74,84,4
0,36,54,64
0,46,93,4
0,88,72,12
0,76,72,0
0,64,64,12
0,69,64,0
0,62,75,4
0,60,52,0
0,57,62,8
0,42,60,0
0,38,80,0
0,74,69,0
0,36,90,0
0,65,74,0
0,38,72,0
0,50,60,0
0,69,65,0
0,65,60,4
0,33,54,88
0,42,90,0
0,69,81,4
0,65,85,4
0,65,46,0
0,69,53,0
0,74,64,4
0,36,64,0
0,38,80,8
0,42,52,0
0,36,90,0
0,62,64,4
0,86,69,4
0,42,90,0
0,38,71,0
0,74,69,0
0,69,64,4
0,65,56,12
0,74,64,0
0,62,64,0
0,86,81,0
0,74,81,0
0,65,82,4
0,69,100,0
0,36,90,0
0,38,80,0
0,42,60,0
0,42,90,92
0,69,73,0
0,65,60,0
0,74,64,0
0,33,57,4
0,69,70,4
0,65,83,0
0,36,71,0
0,38,80,8
0,36,90,0
0,42,52,0
0,76,84,4
0,38,54,64
0,46,90,0
0,42,60,4
0,74,69,0
0,69,65,0
0,38,72,0
0,65,74,0
0,38,80,0
0,36,90,0
0,76,73,72
0,88,73,0
0,33,54,16
0,42,90,0
0,64,91,4
0,76,97,4
0,69,81,4
0,65,85,4
0,88,86,32
0,76,86,0
0,69,53,0
0,65,46,0
0,36,64,4
0,74,64,0
0,36,90,8
0,38,80,0
0,42,52,0
0,89,60,8
0,77,60,0
0,86,73,0
0,74,73,0
0,38,71,12
0,42,90,0
0,62,93,4
0,74,100,4
0,69,64,4
0,65,56,0
0,74,64,0
0,86,91,48
0,74,91,0
0,65,82,4
0,69,100,0
0,42,60,0
0,38,80,0
0,36,90,0
0,76,64,16
0,88,64,0
0,72,73,0
0,84,73,0
0,42,90,16
0,69,73,0
0,65,60,0
0,74,64,0
0,33,57,0
0,60,100,0
0,72,100,12
0,84,82,56
0,72,82,0
0,69,70,4
0,65,83,0
0,36,71,0
0,42,52,8
0,38,80,0
0,36,90,0
0,76,84,4
0,74,64,8
0,86,64,0
0,38,54,8
0,46,90,0
0,57,91,4
0,69,73,0
0,81,73,0
0,69,100,4
0,62,73,24
0,86,73,4
0,74,73,0
0,67,75,16
0,64,64,0
0,71,64,0
0,52,64,0
0,49,68,0
0,67,65,0
0,36,72,0
0,38,80,0
0,36,90,0
0,48,48,0
0,62,64,4
0,55,64,0
0,59,64,4
0,31,54,88
0,46,94,0
0,67,81,4
0,64,85,4
0,64,46,0
0,67,53,0
0,67,64,4
0,71,75,0
0,33,64,0
0,36,90,8
0,42,52,0
0,38,80,0
0,76,68,8
0,88,68,0
0,36,71,0
0,42,90,0
0,64,69,8
0,67,64,4
0,64,56,12
0,71,64,0
0,76,73,4
0,88,73,0
0,67,100,4
0,64,82,0
0,36,90,0
0,38,80,0
0,42,60,0
0,64,60,92
0,42,90,0
0,67,73,0
0,71,64,0
0,31,57,4
0,74,56,0
0,67,64,0
0,71,64,0
0,64,64,0
0,67,70,4
0,64,83,0
0,33,71,0
0,42,52,8
0,38,80,0
0,36,90,0
0,74,84,4
0,71,64,56
0,59,48,4
0,36,54,4
0,55,48,0
0,46,90,0
0,48,48,4
0,62,73,0
0,67,64,0
0,42,60,44
0,71,64,0
0,38,80,0
0,64,64,0
0,36,96,0
0,67,75,0
0,36,72,0
0,31,54,88
0,42,95,0
0,67,77,4
0,64,79,8
0,33,64,0
0,71,75,0
0,64,46,0
0,67,53,0
0,42,52,8
0,36,106,0
0,38,80,0
0,36,71,36
0,42,90,0
0,67,64,4
0,64,56,12
0,71,64,0
0,71,72,0
0,83,72,0
0,86,64,0
0,74,64,0
0,67,100,4
0,59,56,0
0,64,82,0
0,62,56,0
0,42,48,0
0,38,80,0
0,36,106,0
0,64,60,92
0,71,64,0
0,67,73,0
0,42,87,0
0,31,57,4
0,84,72,0
0,72,72,0
0,76,56,0
0,72,64,0
0,76,64,0
0,88,64,0
0,67,64,0
0,67,70,0
0,64,73,0
0,64,60,0
0,64,52,0
0,33,71,0
0,60,56,0
0,42,72,4
0,38,80,0
0,36,106,0
0,74,84,4
0,36,54,64
0,46,93,4
0,88,72,4
0,76,72,0
0,91,56,4
0,79,56,0
0,64,48,0
0,67,60,4
0,65,74,4
0,36,90,0
0,38,72,0
0,69,65,0
0,42,60,0
0,74,69,0
0,45,64,0
0,38,80,0
0,76,82,4
0,67,73,0
0,72,64,4
0,60,64,0
0,64,64,4
0,33,54,88
0,46,90,0
0,69,81,4
0,65,85,4
0,65,46,0
0,69,53,0
0,74,64,4
0,36,64,0
0,36,90,8
0,38,80,0
0,42,52,0
0,62,60,24
0,89,66,0
0,77,66,0
0,65,54,4
0,62,73,0
0,60,64,0
0,57,60,0
0,38,71,4
0,46,90,0
0,86,69,0
0,74,69,0
0,50,56,4
0,74,82,4
0,69,73,4
0,65,48,4
0,69,64,4
0,65,56,12
0,74,64,0
0,86,81,0
0,74,81,0
0,89,64,0
0,77,64,0
0,62,56,0
0,65,82,4
0,69,100,0
0,36,90,0
0,65,56,0
0,42,60,0
0,38,80,0
0,65,60,92
0,69,73,0
0,46,90,0
0,76,64,0
0,33,57,4
0,69,70,4
0,65,83,4
0,36,71,0
0,36,90,4
0,38,46,0
0,42,52,0
0,76,84,4
0,38,54,64
0,47,40,4
0,47,62,44
0,47,80,20
0,36,90,0
0,74,82,112
0,62,91,0
0,77,82,0
0,89,82,0
0,77,91,0
0,55,91,0
0,69,91,0
0,72,91,0
0,31,69,16
0,74,70,4
0,65,80,0
0,69,73,0
0,36,55,4
0,45,52,0
0,77,90,4
0,89,90,0
0,74,90,0
0,55,93,0
0,62,93,0
0,72,93,0
0,77,93,0
0,69,93,0
0,69,55,4
0,65,75,4
0,31,74,0
0,36,81,4
0,45,80,0
0,74,63,4
0,77,91,284
0,69,91,0
0,62,91,0
0,72,91,0
0,55,91,0
0,31,69,12
0,74,73,4
0,77,73,0
0,89,73,0
0,36,55,4
0,45,52,0
0,77,91,104
0,62,91,0
0,69,91,0
0,72,91,0
0,55,91,0
0,89,91,12
0,74,91,0
0,77,91,0
0,31,78,12
0,45,80,0
0,36,81,0
0,38,86,120
0,60,56,272
0,55,60,0
0,67,91,16
0,63,73,0
0,67,75,0
0,72,64,0
0,64,56,0
0,38,80,0
0,72,64,0
0,60,44,0
0,67,56,0
0,72,83,0
0,49,68,0
0,84,64,0
0,67,64,0
0,36,90,0
0,36,72,0
0,76,60,0
0,64,64,28
0,31,54,64
0,46,94,0
0,72,73,0
0,76,82,0
0,67,81,4
0,64,85,4
0,67,53,0
0,64,46,0
0,33,64,4
0,72,75,0
0,38,80,8
0,36,90,0
0,42,52,0
0,60,56,12
0,55,52,8
0,36,71,16
0,67,64,0
0,42,90,0
0,64,56,4
0,72,60,0
0,72,88,4
0,76,82,0
0,72,83,0
0,67,79,0
0,67,64,4
0,64,56,12
0,72,64,0
0,64,82,4
0,67,100,0
0,38,80,0
0,36,90,0
0,42,60,0
0,67,75,36
0,67,73,4
0,42,90,12
0,67,80,0
0,72,71,0
0,64,61,0
0,31,57,4
0,67,63,4
0,72,79,0
0,69,73,0
0,64,83,0
0,76,71,0
0,39,71,0
0,61,41,0
0,42,52,0
0,38,80,0
0,36,90,0
0,85,61,0
0,72,84,0
0,40,54,60
0,46,90,0
0,72,73,0
0,72,73,0
0,67,60,4
0,76,73,0
0,62,44,32
0,86,64,0
0,84,64,12
0,60,44,0
0,67,84,12
0,36,96,4
0,63,73,0
0,67,75,0
0,72,64,0
0,36,72,0
0,42,60,0
0,38,80,0
0,64,64,48
0,31,54,64
0,42,95,0
0,72,82,12
0,76,73,8
0,67,73,0
0,67,81,4
0,64,85,4
0,76,36,0
0,67,52,0
0,67,53,0
0,64,46,0
0,33,64,4
0,72,75,0
0,72,73,0
0,72,74,0
0,76,64,0
0,36,106,4
0,38,80,0
0,42,52,0
0,67,64,28
0,36,71,8
0,42,90,0
0,72,74,4
0,67,64,4
0,72,64,0
0,64,56,0
0,76,56,16
0,62,52,8
0,86,72,0
0,67,60,4
0,55,52,4
0,60,52,4
0,72,82,0
0,76,82,0
0,74,83,0
0,67,100,4
0,64,82,0
0,42,48,0
0,38,80,0
0,36,106,0
0,72,71,92
0,64,61,0
0,67,80,0
0,42,87,0
0,31,57,4
0,67,48,4
0,76,56,16
0,67,56,4
0,88,73,12
0,64,53,0
0,67,63,4
0,72,73,0
0,64,83,0
0,76,74,0
0,33,71,0
0,76,91,0
0,55,60,0
0,60,64,0
0,36,106,8
0,46,72,0
0,38,80,0
0,72,84,4
0,36,54,64
0,46,93,4
0,76,56,8
0,67,60,8
0,55,56,4
0,59,56,4
0,71,82,8
0,83,64,0
0,59,44,0
0,67,60,4
0,64,56,0
0,71,64,0
0,42,60,8
0,71,64,0
0,67,91,0
0,67,75,0
0,63,73,0
0,38,80,0
0,36,72,0
0,36,90,0
0,64,64,28
0,31,54,64
0,71,73,0
0,76,82,0
0,42,90,0
0,67,81,4
0,64,85,4
0,67,53,0
0,64,46,0
0,33,64,4
0,71,75,0
0,42,52,8
0,38,80,0
0,36,90,0
0,59,60,16
0,55,56,4
0,71,74,0
0,67,60,8
0,71,60,4
0,64,60,0
0,42,90,4
0,36,71,0
0,76,82,8
0,71,88,0
0,67,79,0
0,67,64,4
0,64,56,12
0,71,64,0
0,67,100,4
0,64,82,0
0,36,90,0
0,38,80,0
0,42,60,0
0,67,73,36
0,67,73,4
0,64,61,12
0,42,90,0
0,67,80,0
0,71,71,0
0,31,57,4
0,86,73,68
0,62,53,0
0,67,63,4
0,69,82,0
0,64,83,0
0,71,79,0
0,39,71,0
0,76,71,0
0,36,90,0
0,38,80,0
0,42,52,0
0,71,84,4
0,40,54,60
0,71,73,0
0,71,78,0
0,46,90,0
0,76,73,4
0,67,60,0
0,59,44,4
0,83,64,0
0,67,84,24
0,67,75,4
0,63,73,0
0,36,90,0
0,71,64,0
0,42,60,0
0,36,72,0
0,38,80,0
0,64,64,28
0,31,54,64
0,42,90,0
0,71,64,0
0,76,73,0
0,67,64,4
0,67,81,4
0,64,85,4
0,76,52,16
0,67,48,0
0,71,64,8
0,76,73,4
0,67,53,0
0,64,46,0
0,72,83,0
0,71,75,4
0,33,64,0
0,42,52,8
0,38,80,0
0,36,90,0
0,67,64,28
0,72,83,0
0,42,90,8
0,36,71,0
0,67,64,4
0,64,56,0
0,71,64,0
0,62,49,0
0,86,69,0
0,76,52,4
0,67,64,4
0,55,48,0
0,59,64,0
0,71,82,4
0,76,82,0
0,64,82,4
0,67,100,0
0,42,60,0
0,38,80,0
0,36,90,0
0,74,83,4
0,67,80,92
0,42,90,0
0,64,61,0
0,71,71,0
0,31,57,4
0,67,49,4
0,76,56,0
0,67,60,12
0,88,75,4
0,64,55,0
0,67,63,4
0,64,83,0
0,71,73,0
0,33,71,0
0,59,64,0
0,76,91,0
0,36,90,8
0,42,52,0
0,38,80,0
0,55,56,4
0,71,84,0
0,76,83,12
0,46,90,64
0,36,54,0
0,76,48,4
0,67,56,20
0,58,44,8
0,82,64,0
0,64,60,4
0,70,60,0
0,58,44,0
0,55,56,4
0,38,80,4
0,63,73,0
0,70,64,0
0,67,75,0
0,36,72,0
0,70,74,0
0,36,90,0
0,67,91,0
0,67,64,0
0,42,60,0
0,64,64,28
0,31,54,64
0,70,73,0
0,76,82,0
0,42,94,0
0,72,76,4
0,64,70,4
0,67,68,0
0,67,53,0
0,64,46,0
0,72,52,4
0,33,64,0
0,42,52,8
0,36,90,0
0,38,80,0
0,58,56,0
0,55,56,4
0,70,56,20
0,64,60,4
0,67,64,0
0,42,90,8
0,36,71,0
0,70,76,4
0,70,88,4
0,76,82,0
0,67,79,0
0,67,64,4
0,64,56,12
0,72,64,0
0,67,100,4
0,64,82,0
0,36,90,0
0,42,60,0
0,38,80,0
0,67,75,36
0,67,73,4
0,72,71,12
0,42,90,0
0,64,61,0
0,67,80,0
0,31,57,4
0,62,53,20
0,86,73,0
0,67,63,4
0,70,79,0
0,64,83,0
0,69,73,0
0,39,71,0
0,76,71,0
0,38,80,0
0,42,52,0
0,36,90,0
0,72,84,4
0,70,75,56
0,70,73,4
0,40,54,0
0,46,90,0
0,76,73,4
0,67,60,0
0,82,64,64
0,58,44,0
0,67,64,24
0,38,80,4
0,36,96,0
0,36,72,0
0,63,73,0
0,42,60,0
0,70,64,0
0,67,75,0
0,64,64,76
0,76,64,48
0,31,54,0
0,70,52,0
0,42,95,0
0,67,73,16
0,72,76,4
0,64,70,4
0,67,68,0
0,76,48,20
0,72,74,20
0,70,56,0
0,84,69,4
0,76,64,0
0,70,64,0
0,60,49,0
0,64,46,0
0,67,53,0
0,33,64,4
0,72,52,0
0,36,106,8
0,38,80,0
0,42,52,0
0,67,64,28
0,36,71,8
0,42,90,0
0,67,64,0
0,64,56,0
0,72,64,0
0,76,52,12
0,70,52,4
0,58,44,4
0,86,82,0
0,55,56,0
0,74,83,0
0,62,62,0
0,70,82,4
0,76,82,0
0,67,100,4
0,64,82,0
0,42,48,0
0,36,106,0
0,38,80,0
0,64,61,92
0,72,71,0
0,67,80,0
0,42,87,0
0,36,57,4
0,67,48,4
0,76,56,24
0,70,48,4
0,58,44,0
0,88,82,4
0,64,62,0
0,55,64,0
0,76,83,0
0,67,63,4
0,70,73,0
0,64,83,0
0,38,71,0
0,76,91,0
0,46,72,8
0,38,80,0
0,36,106,0
0,72,84,4
0,40,54,64
0,46,93,4
0,55,60,16
0,60,56,8
0,76,83,4
0,88,82,4
0,64,62,0
0,72,56,0
0,67,56,0
0,64,60,0
0,69,82,0
0,76,73,8
0,72,56,0
0,69,52,0
0,65,64,0
0,72,73,0
0,72,65,4
0,69,74,0
0,41,72,0
0,36,90,0
0,76,69,0
0,42,60,0
0,38,80,0
0,36,54,88
0,42,90,0
0,72,81,4
0,69,85,4
0,69,46,0
0,72,53,0
0,38,64,0
