track,note,velocity,time
1,67,127,0
1,79,127,0
1,67,127,0
1,79,127,0
1,67,127,0
1,79,127,0
1,67,127,0
1,79,127,0
1,67,127,0
1,79,127,0
1,67,127,0
1,79,127,0
1,67,127,0
1,79,127,0
1,67,127,0
1,79,127,0
1,72,127,0
1,84,127,0
1,72,127,0
1,84,127,0
1,72,127,0
1,84,127,0
1,72,127,0
1,84,127,0
1,72,127,0
1,84,127,0
1,72,127,0
1,84,127,0
1,72,127,0
1,84,127,0
1,72,127,0
1,84,127,0
1,65,127,0
1,77,127,0
1,65,127,0
1,77,127,0
1,65,127,0
1,77,127,0
1,65,127,0
1,77,127,0
1,65,127,0
1,77,127,0
1,65,127,0
1,77,127,0
1,65,127,0
1,77,127,0
1,65,127,0
1,77,127,0
1,63,127,0
1,75,127,0
1,63,127,0
1,75,127,0
1,63,127,0
1,75,127,0
1,63,127,0
1,75,127,0
1,63,127,0
1,75,127,0
1,63,127,0
1,75,127,0
1,66,127,0
1,78,127,0
1,65,127,0
1,77,127,0
1,67,127,0
1,79,127,0
1,67,127,0
1,79,127,0
1,67,127,0
1,79,127,0
1,67,127,0
1,79,127,0
1,67,127,0
1,79,127,0
1,67,127,0
1,79,127,0
1,67,127,0
1,79,127,0
1,67,127,0
1,79,127,0
1,72,127,0
1,84,127,0
1,72,127,0
1,84,127,0
1,72,127,0
1,84,127,0
1,72,127,0
1,84,127,0
1,72,127,0
1,84,127,0
1,72,127,0
1,84,127,0
1,72,127,0
1,84,127,0
1,72,127,0
1,84,127,0
1,65,127,0
1,77,127,0
1,65,127,0
1,77,127,0
1,65,127,0
1,77,127,0
1,65,127,0
1,77,127,0
1,65,127,0
1,77,127,0
1,65,127,0
1,77,127,0
1,65,127,0
1,77,127,0
1,65,127,0
1,77,127,0
1,63,127,0
1,75,127,0
1,63,127,0
1,75,127,0
1,63,127,0
1,75,127,0
1,63,127,0
1,75,127,0
1,63,127,0
1,75,127,0
1,63,127,0
1,75,127,0
1,66,127,0
1,78,127,0
1,65,127,0
1,77,127,0
1,67,127,0
1,79,127,0
1,67,127,0
1,79,127,0
1,67,127,0
1,79,127,0
1,67,127,0
1,79,127,0
1,67,127,0
1,79,127,0
1,67,127,0
1,79,127,0
1,67,127,0
1,79,127,0
1,67,127,0
1,79,127,0
1,72,127,0
1,84,127,0
1,72,127,0
1,84,127,0
1,72,127,0
1,84,127,0
1,72,127,0
1,84,127,0
1,72,127,0
1,84,127,0
1,72,127,0
1,84,127,0
1,72,127,0
1,84,127,0
1,72,127,0
1,84,127,0
1,65,127,0
1,77,127,0
1,65,127,0
1,77,127,0
1,65,127,0
1,77,127,0
1,65,127,0
1,77,127,0
1,65,127,0
1,77,127,0
1,65,127,0
1,77,127,0
1,65,127,0
1,77,127,0
1,65,127,0
1,77,127,0
1,63,127,0
1,75,127,0
1,63,127,0
1,75,127,0
1,63,127,0
1,75,127,0
1,63,127,0
1,75,127,0
1,63,127,0
1,75,127,0
1,63,127,0
1,75,127,0
1,66,127,0
1,78,127,0
1,65,127,0
1,77,127,0
1,67,127,0
1,79,127,0
1,67,127,0
1,79,127,0
1,67,127,0
1,79,127,0
1,67,127,0
1,79,127,0
1,67,127,0
1,79,127,0
1,67,127,0
1,79,127,0
1,67,127,0
1,79,127,0
1,67,127,0
1,79,127,0
1,72,127,0
1,84,127,0
1,72,127,0
1,84,127,0
1,72,127,0
1,84,127,0
1,72,127,0
1,84,127,0
1,72,127,0
1,84,127,0
1,72,127,0
1,84,127,0
1,72,127,0
1,84,127,0
1,72,127,0
1,84,127,0
1,65,127,0
1,77,127,0
1,65,127,0
1,77,127,0
1,65,127,0
1,77,127,0
1,65,127,0
1,77,127,0
1,65,127,0
1,77,127,0
1,65,127,0
1,77,127,0
1,65,127,0
1,77,127,0
1,65,127,0
1,77,127,0
1,63,127,0
1,75,127,0
1,63,127,0
1,75,127,0
1,63,127,0
1,75,127,0
1,63,127,0
1,75,127,0
1,63,127,0
1,75,127,0
1,63,127,0
1,75,127,0
1,66,127,0
1,78,127,0
1,65,127,0
1,77,127,0
1,67,127,0
1,79,127,0
1,67,127,0
1,79,127,0
1,67,127,0
1,79,127,0
1,67,127,0
1,79,127,0
1,67,127,0
1,79,127,0
1,67,127,0
1,79,127,0
1,67,127,0
1,79,127,0
1,67,127,0
1,79,127,0
1,72,127,0
1,84,127,0
1,72,127,0
1,84,127,0
1,72,127,0
1,84,127,0
1,72,127,0
1,84,127,0
1,72,127,0
1,84,127,0
1,72,127,0
1,84,127,0
1,72,127,0
1,84,127,0
1,72,127,0
1,84,127,0
1,65,127,0
1,77,127,0
1,65,127,0
1,77,127,0
1,65,127,0
1,77,127,0
1,65,127,0
1,77,127,0
1,65,127,0
1,77,127,0
1,65,127,0
1,77,127,0
1,65,127,0
1,77,127,0
1,65,127,0
1,77,127,0
1,63,127,0
1,75,127,0
1,63,127,0
1,75,127,0
1,63,127,0
1,75,127,0
1,63,127,0
1,75,127,0
1,63,127,0
1,75,127,0
1,63,127,0
1,75,127,0
1,66,127,0
1,78,127,0
1,65,127,0
1,77,127,0
1,67,127,0
1,79,127,0
1,67,127,0
1,79,127,0
1,67,127,0
1,79,127,0
1,67,127,0
1,79,127,0
1,67,127,0
1,79,127,0
1,67,127,0
1,79,127,0
1,67,127,0
1,79,127,0
1,67,127,0
1,79,127,0
1,72,127,0
1,84,127,0
1,72,127,0
1,84,127,0
1,72,127,0
1,84,127,0
1,72,127,0
1,84,127,0
1,72,127,0
1,84,127,0
1,72,127,0
1,84,127,0
1,72,127,0
1,84,127,0
1,72,127,0
1,84,127,0
1,65,127,0
1,77,127,0
1,65,127,0
1,77,127,0
1,65,127,0
1,77,127,0
1,65,127,0
1,77,127,0
1,65,127,0
1,77,127,0
1,65,127,0
1,77,127,0
1,65,127,0
1,77,127,0
1,65,127,0
1,77,127,0
1,63,127,0
1,75,127,0
1,63,127,0
1,75,127,0
1,63,127,0
1,75,127,0
1,63,127,0
1,75,127,0
1,63,127,0
1,75,127,0
1,63,127,0
1,75,127,0
1,66,127,0
1,78,127,0
1,65,127,0
1,77,127,0
1,67,127,0
1,79,127,0
1,67,127,0
1,79,127,0
1,67,127,0
1,79,127,0
1,67,127,0
1,79,127,0
1,67,127,0
1,79,127,0
1,67,127,0
1,79,127,0
1,67,127,0
1,79,127,0
1,67,127,0
1,79,127,0
1,72,127,0
1,84,127,0
1,72,127,0
1,84,127,0
1,72,127,0
1,84,127,0
1,72,127,0
1,84,127,0
1,72,127,0
1,84,127,0
1,72,127,0
1,84,127,0
1,72,127,0
1,84,127,0
1,72,127,0
1,84,127,0
1,65,127,0
1,77,127,0
1,65,127,0
1,77,127,0
1,65,127,0
1,77,127,0
1,65,127,0
1,77,127,0
1,65,127,0
1,77,127,0
1,65,127,0
1,77,127,0
1,65,127,0
1,77,127,0
1,65,127,0
1,77,127,0
1,63,127,0
1,75,127,0
1,63,127,0
1,75,127,0
1,63,127,0
1,75,127,0
1,63,127,0
1,75,127,0
1,63,127,0
1,75,127,0
1,63,127,0
1,75,127,0
1,66,127,0
1,78,127,0
1,65,127,0
1,77,127,0
1,67,127,0
1,79,127,0
1,67,127,0
1,79,127,0
1,67,127,0
1,79,127,0
1,67,127,0
1,79,127,0
1,67,127,0
1,79,127,0
1,67,127,0
1,79,127,0
1,67,127,0
1,79,127,0
1,67,127,0
1,79,127,0
1,72,127,0
1,84,127,0
1,72,127,0
1,84,127,0
1,72,127,0
1,84,127,0
1,72,127,0
1,84,127,0
1,72,127,0
1,84,127,0
1,72,127,0
1,84,127,0
1,72,127,0
1,84,127,0
1,72,127,0
1,84,127,0
1,65,127,0
1,77,127,0
1,65,127,0
1,77,127,0
1,65,127,0
1,77,127,0
1,65,127,0
1,77,127,0
1,65,127,0
1,77,127,0
1,65,127,0
1,77,127,0
1,65,127,0
1,77,127,0
1,65,127,0
1,77,127,0
1,63,127,0
1,75,127,0
1,63,127,0
1,75,127,0
1,63,127,0
1,75,127,0
1,63,127,0
1,75,127,0
1,63,127,0
1,75,127,0
1,63,127,0
1,75,127,0
1,66,127,0
1,78,127,0
1,65,127,0
1,77,127,0
1,67,127,0
1,79,127,0
1,67,127,0
1,79,127,0
1,67,127,0
1,79,127,0
1,67,127,0
1,79,127,0
1,67,127,0
1,79,127,0
1,67,127,0
1,79,127,0
1,67,127,0
1,79,127,0
1,67,127,0
1,79,127,0
1,72,127,0
1,84,127,0
1,72,127,0
1,84,127,0
1,72,127,0
1,84,127,0
1,72,127,0
1,84,127,0
1,72,127,0
1,84,127,0
1,72,127,0
1,84,127,0
1,72,127,0
1,84,127,0
1,72,127,0
1,84,127,0
1,65,127,0
1,77,127,0
1,65,127,0
1,77,127,0
1,65,127,0
1,77,127,0
1,65,127,0
1,77,127,0
1,65,127,0
1,77,127,0
1,65,127,0
1,77,127,0
1,65,127,0
1,77,127,0
1,65,127,0
1,77,127,0
1,63,127,0
1,75,127,0
1,63,127,0
1,75,127,0
1,63,127,0
1,75,127,0
1,63,127,0
1,75,127,0
1,63,127,0
1,75,127,0
1,63,127,0
1,75,127,0
1,66,127,0
1,78,127,0
1,65,127,0
1,77,127,0
1,67,127,0
1,79,127,0
1,67,127,0
1,79,127,0
1,67,127,0
1,79,127,0
1,67,127,0
1,79,127,0
1,67,127,0
1,79,127,0
1,67,127,0
1,79,127,0
1,67,127,0
1,79,127,0
1,67,127,0
1,79,127,0
1,72,127,0
1,84,127,0
1,72,127,0
1,84,127,0
1,72,127,0
1,84,127,0
1,72,127,0
1,84,127,0
1,72,127,0
1,84,127,0
1,72,127,0
1,84,127,0
1,72,127,0
1,84,127,0
1,72,127,0
1,84,127,0
1,65,127,0
1,77,127,0
1,65,127,0
1,77,127,0
1,65,127,0
1,77,127,0
1,65,127,0
1,77,127,0
1,65,127,0
1,77,127,0
1,65,127,0
1,77,127,0
1,65,127,0
1,77,127,0
1,65,127,0
1,77,127,0
1,63,127,0
1,75,127,0
1,63,127,0
1,75,127,0
1,63,127,0
1,75,127,0
1,63,127,0
1,75,127,0
1,63,127,0
1,75,127,0
1,63,127,0
1,75,127,0
1,66,127,0
1,78,127,0
1,65,127,0
1,77,127,0
1,67,127,0
1,79,127,0
1,67,127,0
1,79,127,0
1,67,127,0
1,79,127,0
1,67,127,0
1,79,127,0
1,67,127,0
1,79,127,0
1,67,127,0
1,79,127,0
1,67,127,0
1,79,127,0
1,67,127,0
1,79,127,0
1,72,127,0
1,84,127,0
1,72,127,0
1,84,127,0
1,72,127,0
1,84,127,0
1,72,127,0
1,84,127,0
1,72,127,0
1,84,127,0
1,72,127,0
1,84,127,0
1,72,127,0
1,84,127,0
1,72,127,0
1,84,127,0
1,65,127,0
1,77,127,0
1,65,127,0
1,77,127,0
1,65,127,0
1,77,127,0
1,65,127,0
1,77,127,0
1,65,127,0
1,77,127,0
1,65,127,0
1,77,127,0
1,65,127,0
1,77,127,0
1,65,127,0
1,77,127,0
1,63,127,0
1,75,127,0
1,63,127,0
1,75,127,0
1,63,127,0
1,75,127,0
1,63,127,0
1,75,127,0
1,63,127,0
1,75,127,0
1,63,127,0
1,75,127,0
1,66,127,0
1,78,127,0
1,65,127,0
1,77,127,0
1,67,127,0
1,79,127,0
1,67,127,0
1,79,127,0
1,67,127,0
1,79,127,0
1,67,127,0
1,79,127,0
1,67,127,0
1,79,127,0
1,67,127,0
1,79,127,0
1,67,127,0
1,79,127,0
1,67,127,0
1,79,127,0
1,72,127,0
1,84,127,0
1,72,127,0
1,84,127,0
1,72,127,0
1,84,127,0
1,72,127,0
1,84,127,0
1,72,127,0
1,84,127,0
1,72,127,0
1,84,127,0
1,72,127,0
1,84,127,0
1,72,127,0
1,84,127,0
1,65,127,0
1,77,127,0
1,65,127,0
1,77,127,0
1,65,127,0
1,77,127,0
1,65,127,0
1,77,127,0
1,65,127,0
1,77,127,0
1,65,127,0
1,77,127,0
1,65,127,0
1,77,127,0
1,65,127,0
1,77,127,0
1,63,127,0
1,75,127,0
1,63,127,0
1,75,127,0
1,63,127,0
1,75,127,0
1,63,127,0
1,75,127,0
1,63,127,0
1,75,127,0
1,63,127,0
1,75,127,0
1,66,127,0
1,78,127,0
1,65,127,0
1,77,127,0
1,67,127,0
1,79,127,0
1,67,127,0
1,79,127,0
1,67,127,0
1,79,127,0
1,67,127,0
1,79,127,0
1,67,127,0
1,79,127,0
1,67,127,0
1,79,127,0
1,67,127,0
1,79,127,0
1,67,127,0
1,79,127,0
1,72,127,0
1,84,127,0
1,72,127,0
1,84,127,0
1,72,127,0
1,84,127,0
1,72,127,0
1,84,127,0
1,72,127,0
1,84,127,0
1,72,127,0
1,84,127,0
1,72,127,0
1,84,127,0
1,72,127,0
1,84,127,0
1,65,127,0
1,77,127,0
1,65,127,0
1,77,127,0
1,65,127,0
1,77,127,0
1,65,127,0
1,77,127,0
1,65,127,0
1,77,127,0
1,65,127,0
1,77,127,0
1,65,127,0
1,77,127,0
1,65,127,0
1,77,127,0
1,63,127,0
1,75,127,0
1,63,127,0
1,75,127,0
1,63,127,0
1,75,127,0
1,63,127,0
1,75,127,0
1,63,127,0
1,75,127,0
1,63,127,0
1,75,127,0
1,66,127,0
1,78,127,0
1,65,127,0
1,77,127,0
1,67,127,0
1,79,127,0
1,67,127,0
1,79,127,0
1,67,127,0
1,79,127,0
1,67,127,0
1,79,127,0
1,67,127,0
1,79,127,0
1,67,127,0
1,79,127,0
1,67,127,0
1,79,127,0
1,67,127,0
1,79,127,0
1,72,127,0
1,84,127,0
1,72,127,0
1,84,127,0
1,72,127,0
1,84,127,0
1,72,127,0
1,84,127,0
1,72,127,0
1,84,127,0
1,72,127,0
1,84,127,0
1,72,127,0
1,84,127,0
1,72,127,0
1,84,127,0
1,65,127,0
1,77,127,0
1,65,127,0
1,77,127,0
1,65,127,0
1,77,127,0
1,65,127,0
1,77,127,0
1,65,127,0
1,77,127,0
1,65,127,0
1,77,127,0
1,65,127,0
1,77,127,0
1,65,127,0
1,77,127,0
1,63,127,0
1,75,127,0
1,63,127,0
1,75,127,0
1,63,127,0
1,75,127,0
1,63,127,0
1,75,127,0
1,63,127,0
1,75,127,0
1,63,127,0
1,75,127,0
1,66,127,0
1,78,127,0
1,65,127,0
1,77,127,0
1,67,127,0
1,79,127,0
1,67,127,0
1,79,127,0
1,67,127,0
1,79,127,0
1,67,127,0
1,79,127,0
1,67,127,0
1,79,127,0
1,67,127,0
1,79,127,0
1,67,127,0
1,79,127,0
1,67,127,0
1,79,127,0
1,72,127,0
1,84,127,0
1,72,127,0
1,84,127,0
1,72,127,0
1,84,127,0
1,72,127,0
1,84,127,0
1,72,127,0
1,84,127,0
1,72,127,0
1,84,127,0
1,72,127,0
1,84,127,0
1,72,127,0
1,84,127,0
1,65,127,0
1,77,127,0
1,65,127,0
1,77,127,0
1,65,127,0
1,77,127,0
1,65,127,0
1,77,127,0
1,65,127,0
1,77,127,0
1,65,127,0
1,77,127,0
1,65,127,0
1,77,127,0
1,65,127,0
1,77,127,0
1,63,127,0
1,75,127,0
1,63,127,0
1,75,127,0
1,63,127,0
1,75,127,0
1,63,127,0
1,75,127,0
1,63,127,0
1,75,127,0
1,63,127,0
1,75,127,0
1,66,127,0
1,78,127,0
1,65,127,0
1,77,127,0
1,67,127,0
1,79,127,0
1,67,127,0
1,79,127,0
1,67,127,0
1,79,127,0
1,67,127,0
1,79,127,0
1,67,127,0
1,79,127,0
1,67,127,0
1,79,127,0
1,67,127,0
1,79,127,0
1,67,127,0
1,79,127,0
1,72,127,0
1,84,127,0
1,72,127,0
1,84,127,0
1,72,127,0
1,84,127,0
1,72,127,0
1,84,127,0
1,72,127,0
1,84,127,0
1,72,127,0
1,84,127,0
1,72,127,0
1,84,127,0
1,72,127,0
1,84,127,0
1,65,127,0
1,77,127,0
1,65,127,0
1,77,127,0
1,65,127,0
1,77,127,0
1,65,127,0
1,77,127,0
