track,note,velocity,time
1,58,127,25536
1,58,0,192
1,58,127,0
1,58,0,192
1,56,127,0
1,56,0,192
1,58,127,0
1,58,0,192
1,60,127,0
1,60,0,192
1,56,127,0
1,56,0,192
1,58,127,1920
1,58,0,192
1,58,127,0
1,58,0,192
1,56,127,0
1,56,0,192
1,58,127,0
1,58,0,192
1,60,127,0
1,60,0,192
1,56,127,0
1,56,0,192
1,58,127,1920
1,58,0,192
1,58,127,0
1,58,0,192
1,56,127,0
1,56,0,192
1,58,127,0
1,58,0,192
1,60,127,0
1,60,0,192
1,56,127,0
1,56,0,192
1,58,127,1920
1,58,0,192
1,58,127,0
1,58,0,192
1,58,127,0
1,58,0,192
1,58,127,0
1,58,0,192
1,60,127,0
1,60,0,192
1,56,127,0
1,56,0,384
1,53,127,1344
1,53,0,384
1,65,127,1728
1,65,0,192
1,65,127,0
1,65,0,192
1,65,127,0
1,65,0,192
1,65,127,0
1,65,0,192
1,65,127,0
1,65,0,192
1,65,127,0
1,65,0,192
1,65,127,0
1,65,0,384
1,65,127,1536
1,65,0,192
1,65,127,0
1,65,0,192
1,65,127,0
1,65,0,192
1,65,127,0
1,65,0,192
1,65,127,0
1,65,0,192
1,65,127,0
1,65,0,192
1,65,127,0
1,65,0,384
1,65,127,1536
1,65,0,192
1,65,127,0
1,65,0,192
1,65,127,0
1,65,0,192
1,65,127,0
1,65,0,192
1,65,127,0
1,65,0,192
1,65,127,0
1,65,0,384
1,60,127,0
1,60,0,384
1,65,127,192
1,65,0,384
1,60,127,0
1,60,0,192
1,60,127,0
1,60,0,192
1,65,127,0
1,65,0,384
1,60,127,0
1,60,0,192
1,60,127,0
1,60,0,192
1,65,127,0
1,65,0,192
1,60,127,0
1,60,0,192
1,60,127,0
1,60,0,192
1,65,127,0
1,65,0,192
1,60,127,192
1,60,0,192
1,60,127,0
1,60,0,192
1,61,127,0
1,61,0,192
1,56,127,0
1,56,0,576
1,65,127,1152
1,65,0,192
1,65,127,0
1,65,0,192
1,65,127,0
1,65,0,384
1,58,127,0
1,58,0,384
1,56,127,192
1,56,0,384
1,58,127,5184
1,58,0,192
1,58,127,0
1,58,0,192
1,56,127,0
1,56,0,192
1,58,127,0
1,58,0,192
1,60,127,0
1,60,0,192
1,56,127,0
1,56,0,192
1,58,127,1920
1,58,0,192
1,58,127,0
1,58,0,192
1,56,127,0
1,56,0,192
1,58,127,0
1,58,0,192
1,60,127,0
1,60,0,192
1,56,127,0
1,56,0,192
1,58,127,1920
1,58,0,192
1,58,127,0
1,58,0,192
1,56,127,0
1,56,0,192
1,58,127,0
1,58,0,192
1,60,127,0
1,60,0,192
1,56,127,0
1,56,0,192
1,58,127,1920
1,58,0,192
1,58,127,0
1,58,0,192
1,58,127,0
1,58,0,192
1,58,127,0
1,58,0,192
1,60,127,0
1,60,0,192
1,56,127,0
1,56,0,192
1,53,127,1536
1,53,0,384
1,65,127,1728
1,65,0,192
1,65,127,0
1,65,0,192
1,65,127,0
1,65,0,192
1,65,127,0
1,65,0,192
1,65,127,0
1,65,0,192
1,65,127,0
1,65,0,192
1,65,127,0
1,65,0,384
1,65,127,1536
1,65,0,192
1,65,127,0
1,65,0,192
1,65,127,0
1,65,0,192
1,65,127,0
1,65,0,192
1,65,127,0
1,65,0,192
1,65,127,0
1,65,0,192
1,65,127,0
1,65,0,384
1,65,127,1536
1,65,0,192
1,65,127,0
1,65,0,192
1,65,127,0
1,65,0,192
1,65,127,0
1,65,0,192
1,65,127,0
1,65,0,192
1,65,127,0
1,65,0,384
1,60,127,0
1,60,0,384
1,65,127,192
1,65,0,384
1,60,127,0
1,60,0,192
1,60,127,0
1,60,0,192
1,65,127,0
1,65,0,384
1,60,127,0
1,60,0,192
1,60,127,0
1,60,0,192
1,65,127,0
1,65,0,192
1,60,127,0
1,60,0,192
1,60,127,0
1,60,0,192
1,65,127,0
1,65,0,192
1,60,127,192
1,60,0,192
1,60,127,0
1,60,0,192
1,61,127,0
1,61,0,192
1,56,127,0
1,56,0,576
1,65,127,1152
1,65,0,192
1,65,127,0
1,65,0,192
1,65,127,0
1,65,0,384
1,58,127,0
1,58,0,384
1,56,127,192
1,56,0,384
1,65,127,2304
1,65,0,192
1,65,127,0
1,65,0,384
1,65,127,2496
1,65,0,192
1,65,127,0
1,65,0,384
1,65,127,2496
1,65,0,192
1,65,127,0
1,65,0,384
1,65,127,2496
1,65,0,384
1,65,100,0
1,65,0,384
2,36,127,1536
2,42,127,0
2,42,0,64
2,36,0,64
2,42,127,64
2,42,0,128
2,42,127,64
2,45,127,0
2,40,100,0
2,40,0,64
2,45,0,64
2,42,0,0
2,42,127,64
2,42,0,128
2,36,127,64
2,42,127,0
2,42,0,128
2,36,0,0
2,36,127,64
2,42,127,0
2,42,0,128
2,36,0,0
2,45,127,64
2,42,127,0
2,40,100,0
2,40,0,64
2,42,0,64
2,45,0,0
2,47,127,64
2,42,127,0
2,40,100,0
2,40,0,64
2,42,0,64
2,47,0,0
2,36,127,64
2,42,127,0
2,42,0,64
2,36,0,64
2,42,127,64
2,36,127,0
2,36,0,128
2,42,0,0
2,45,127,64
2,42,127,0
2,40,100,0
2,40,0,64
2,42,0,64
2,45,0,0
2,42,127,64
2,36,127,0
2,36,0,128
2,42,0,0
2,42,127,64
2,42,0,128
2,36,127,64
2,42,127,0
2,42,0,128
2,36,0,0
2,45,127,64
2,42,127,0
2,40,100,0
2,40,0,64
2,42,0,64
2,45,0,0
2,47,127,64
2,42,127,0
2,40,100,0
2,40,0,64
2,42,0,64
2,47,0,0
2,36,127,64
2,42,127,0
2,42,0,64
2,36,0,64
2,42,127,64
2,42,0,128
2,42,127,64
2,45,127,0
2,40,100,0
2,40,0,64
2,45,0,64
2,42,0,0
2,42,127,64
2,42,0,128
2,36,127,64
2,42,127,0
2,42,0,128
2,36,0,0
2,36,127,64
2,42,127,0
2,42,0,128
2,36,0,0
2,45,127,64
2,42,127,0
2,40,100,0
2,40,0,64
2,42,0,64
2,45,0,0
2,47,127,64
2,42,127,0
2,40,100,0
2,40,0,64
2,42,0,64
2,47,0,0
2,36,127,64
2,42,127,0
2,42,0,64
2,36,0,64
2,42,127,64
2,36,127,0
2,36,0,128
2,42,0,0
2,45,127,64
2,42,127,0
2,40,100,0
2,40,0,64
2,42,0,64
2,45,0,0
2,42,127,64
2,36,127,0
2,36,0,128
2,42,0,0
2,42,127,64
2,42,0,128
2,36,127,64
2,42,127,0
2,42,0,128
2,36,0,0
2,45,127,64
2,42,127,0
2,40,100,0
2,40,0,64
2,42,0,64
2,45,0,0
2,47,127,64
2,42,127,0
2,40,100,0
2,40,0,64
2,42,0,64
2,47,0,0
2,36,127,64
2,42,127,0
2,42,0,64
2,36,0,64
2,42,127,64
2,42,0,128
2,42,127,64
2,45,127,0
2,40,100,0
2,40,0,64
2,45,0,64
2,42,0,0
2,42,127,64
2,42,0,128
2,36,127,64
2,42,127,0
2,42,0,128
2,36,0,0
2,36,127,64
2,42,127,0
2,42,0,128
2,36,0,0
2,45,127,64
2,42,127,0
2,40,100,0
2,40,0,64
2,42,0,64
2,45,0,0
2,47,127,64
2,42,127,0
2,40,100,0
2,40,0,64
2,42,0,64
2,47,0,0
2,36,127,64
2,42,127,0
2,42,0,64
2,36,0,64
2,42,127,64
2,36,127,0
2,36,0,128
2,42,0,0
2,45,127,64
2,42,127,0
2,40,100,0
2,40,0,64
2,42,0,64
2,45,0,0
2,42,127,64
2,36,127,0
2,36,0,128
2,42,0,0
2,42,127,64
2,42,0,128
2,36,127,64
2,42,127,0
2,42,0,128
2,36,0,0
2,45,127,64
2,42,127,0
2,40,100,0
2,40,0,64
2,42,0,64
2,45,0,0
2,47,127,64
2,42,127,0
2,40,100,0
2,40,0,64
2,42,0,64
2,47,0,0
2,42,127,64
2,36,127,0
2,42,0,64
2,36,0,64
2,42,127,64
2,42,0,128
2,42,127,64
2,45,127,0
2,40,100,0
2,40,0,64
2,45,0,64
2,42,0,0
2,42,127,64
2,42,0,128
2,42,127,64
2,36,127,0
2,36,0,128
2,42,0,0
2,42,127,64
2,36,127,0
2,36,0,128
2,42,0,0
2,45,127,64
2,42,127,0
2,40,100,0
2,40,0,64
2,42,0,64
2,45,0,0
2,47,127,64
2,42,127,0
2,40,100,0
2,40,0,64
2,42,0,64
2,47,0,0
2,42,127,64
2,36,127,0
2,42,0,64
2,36,0,64
2,42,127,64
2,36,127,0
2,36,0,128
2,42,0,0
2,45,127,64
2,42,127,0
2,40,100,0
2,40,0,64
2,42,0,64
2,45,0,0
2,42,127,64
2,36,127,0
2,36,0,128
2,42,0,0
2,42,127,64
2,42,0,128
2,42,127,64
2,36,127,0
2,36,0,128
2,42,0,0
2,45,127,64
2,42,127,0
2,40,100,0
2,40,0,64
2,42,0,64
2,45,0,0
2,47,127,64
2,42,127,0
2,40,100,0
2,40,0,64
2,42,0,64
2,47,0,0
2,36,127,64
2,49,127,0
2,36,0,128
2,46,127,64
2,49,0,64
2,46,0,64
2,40,127,64
2,46,127,0
2,46,0,128
2,40,0,0
2,46,127,64
2,46,0,128
2,36,127,64
2,46,127,0
2,46,0,128
2,36,0,0
2,36,127,64
2,46,127,0
2,46,0,128
2,36,0,0
2,40,127,64
2,46,127,0
2,46,0,128
2,40,0,0
2,46,127,64
2,46,0,128
2,36,127,64
2,46,127,0
2,46,0,128
2,36,0,0
2,36,127,64
2,46,127,0
2,46,0,128
2,36,0,0
2,40,127,64
2,46,127,0
2,46,0,128
2,40,0,0
2,36,127,64
2,46,127,0
2,46,0,128
2,36,0,0
2,46,127,64
2,46,0,128
2,36,127,64
2,46,127,0
2,46,0,128
2,36,0,0
2,40,127,64
2,57,127,0
2,40,0,128
2,57,0,128
2,36,127,128
2,49,127,0
2,36,0,128
2,46,127,64
2,49,0,64
2,46,0,64
2,40,127,64
2,46,127,0
2,46,0,128
2,40,0,0
2,46,127,64
2,46,0,128
2,36,127,64
2,46,127,0
2,46,0,128
2,36,0,0
2,36,127,64
2,46,127,0
2,46,0,128
2,36,0,0
2,40,127,64
2,46,127,0
2,46,0,128
2,40,0,0
2,46,127,64
2,46,0,128
2,36,127,64
2,46,127,0
2,46,0,128
2,36,0,0
2,36,127,64
2,46,127,0
2,46,0,128
2,36,0,0
2,40,127,64
2,46,127,0
2,46,0,128
2,40,0,0
2,36,127,64
2,46,127,0
2,46,0,128
2,36,0,0
2,46,127,64
2,46,0,128
2,36,127,64
2,46,127,0
2,46,0,128
2,36,0,0
2,40,127,64
2,57,127,0
2,40,0,128
2,57,0,128
2,36,127,128
2,49,127,0
2,36,0,128
2,46,127,64
2,49,0,64
2,46,0,64
2,40,127,64
2,46,127,0
2,46,0,128
2,40,0,0
2,46,127,64
2,46,0,128
2,36,127,64
2,46,127,0
2,46,0,128
2,36,0,0
2,36,127,64
2,46,127,0
2,46,0,128
2,36,0,0
2,40,127,64
2,46,127,0
2,46,0,128
2,40,0,0
2,46,127,64
2,46,0,128
2,36,127,64
2,46,127,0
2,46,0,128
2,36,0,0
2,36,127,64
2,46,127,0
2,46,0,128
2,36,0,0
2,40,127,64
2,46,127,0
2,46,0,128
2,40,0,0
2,36,127,64
2,46,127,0
2,46,0,128
2,36,0,0
2,46,127,64
2,46,0,128
2,36,127,64
2,46,127,0
2,46,0,128
2,36,0,0
2,40,127,64
2,57,127,0
2,40,0,128
2,57,0,128
2,36,127,128
2,49,127,0
2,36,0,128
2,46,127,64
2,49,0,64
2,46,0,64
2,40,127,64
2,46,127,0
2,46,0,128
2,40,0,0
2,46,127,64
2,46,0,128
2,36,127,64
2,46,127,0
2,46,0,128
2,36,0,0
2,36,127,64
2,46,127,0
2,46,0,128
2,36,0,0
2,40,127,64
2,46,127,0
2,46,0,128
2,40,0,0
2,46,127,64
2,46,0,128
2,36,127,64
2,46,127,0
2,46,0,128
2,36,0,0
2,36,127,64
2,46,127,0
2,46,0,128
2,36,0,0
2,40,127,64
2,46,127,0
2,46,0,128
2,40,0,0
2,36,127,64
2,46,127,0
2,46,0,128
2,36,0,0
2,46,127,64
2,46,0,128
2,36,127,64
2,46,127,0
2,46,0,128
2,36,0,0
2,40,127,64
2,57,127,0
2,40,0,128
2,57,0,128
2,36,127,128
2,42,127,0
2,42,0,64
2,36,0,64
2,42,127,64
2,42,0,128
2,42,127,64
2,45,127,0
2,40,100,0
2,40,0,64
2,45,0,64
2,42,0,0
2,42,127,64
2,42,0,128
2,36,127,64
2,42,127,0
2,42,0,128
2,36,0,0
2,36,127,64
2,42,127,0
2,42,0,128
2,36,0,0
2,45,127,64
2,42,127,0
2,40,100,0
2,40,0,64
2,42,0,64
2,45,0,0
2,47,127,64
2,42,127,0
2,40,100,0
2,40,0,64
2,42,0,64
2,47,0,0
2,36,127,64
2,42,127,0
2,42,0,64
2,36,0,64
2,42,127,64
2,36,127,0
2,36,0,128
2,42,0,0
2,45,127,64
2,42,127,0
2,40,100,0
2,40,0,64
2,42,0,64
2,45,0,0
2,42,127,64
2,36,127,0
2,36,0,128
2,42,0,0
2,42,127,64
2,42,0,128
2,36,127,64
2,42,127,0
2,42,0,128
2,36,0,0
2,45,127,64
2,42,127,0
2,40,100,0
2,40,0,64
2,42,0,64
2,45,0,0
2,47,127,64
2,42,127,0
2,40,100,0
2,40,0,64
2,42,0,64
2,47,0,0
2,36,127,64
2,42,127,0
2,42,0,64
2,36,0,64
2,42,127,64
2,42,0,128
2,42,127,64
2,45,127,0
2,40,100,0
2,40,0,64
2,45,0,64
2,42,0,0
2,42,127,64
2,42,0,128
2,36,127,64
2,42,127,0
2,42,0,128
2,36,0,0
2,36,127,64
2,42,127,0
2,42,0,128
2,36,0,0
2,45,127,64
2,42,127,0
2,40,100,0
2,40,0,64
2,42,0,64
2,45,0,0
2,47,127,64
2,42,127,0
2,40,100,0
2,40,0,64
2,42,0,64
2,47,0,0
2,36,127,64
2,42,127,0
2,42,0,64
2,36,0,64
2,42,127,64
2,36,127,0
2,36,0,128
2,42,0,0
2,45,127,64
2,42,127,0
2,40,100,0
2,40,0,64
2,42,0,64
2,45,0,0
2,42,127,64
2,36,127,0
2,36,0,128
2,42,0,0
2,42,127,64
2,42,0,128
2,36,127,64
2,42,127,0
2,42,0,128
2,36,0,0
2,45,127,64
2,42,127,0
2,40,100,0
2,40,0,64
2,42,0,64
2,45,0,0
2,47,127,64
2,42,127,0
2,40,100,0
2,40,0,64
2,42,0,64
2,47,0,0
2,36,127,64
2,42,127,0
2,42,0,64
2,36,0,64
2,42,127,64
2,42,0,128
2,42,127,64
2,45,127,0
2,40,100,0
2,40,0,64
2,45,0,64
2,42,0,0
2,42,127,64
2,42,0,128
2,36,127,64
2,42,127,0
2,42,0,128
2,36,0,0
2,36,127,64
2,42,127,0
2,42,0,128
2,36,0,0
2,45,127,64
2,42,127,0
2,40,100,0
2,40,0,64
2,42,0,64
2,45,0,0
2,47,127,64
2,42,127,0
2,40,100,0
2,40,0,64
2,42,0,64
2,47,0,0
2,36,127,64
2,42,127,0
2,42,0,64
2,36,0,64
2,42,127,64
2,36,127,0
2,36,0,128
2,42,0,0
2,45,127,64
2,42,127,0
2,40,100,0
2,40,0,64
2,42,0,64
2,45,0,0
2,42,127,64
2,36,127,0
2,36,0,128
2,42,0,0
2,42,127,64
2,42,0,128
2,36,127,64
2,42,127,0
2,42,0,128
2,36,0,0
2,45,127,64
2,42,127,0
2,40,100,0
2,40,0,64
2,42,0,64
2,45,0,0
2,47,127,64
2,42,127,0
2,40,100,0
2,40,0,64
2,42,0,64
2,47,0,0
2,36,127,64
2,42,127,0
2,42,0,64
2,36,0,64
2,42,127,64
2,42,0,128
2,42,127,64
2,45,127,0
2,40,100,0
2,40,0,64
2,45,0,64
2,42,0,0
2,42,127,64
2,42,0,128
2,36,127,64
2,42,127,0
2,42,0,128
2,36,0,0
2,36,127,64
2,42,127,0
2,42,0,128
2,36,0,0
2,45,127,64
2,42,127,0
2,40,100,0
2,40,0,64
