track,note,velocity,time
1,53,127,7920
1,60,127,0
1,53,127,0
1,60,127,0
1,53,127,0
1,60,127,0
1,53,127,95
1,60,127,0
1,51,127,95
1,58,127,0
1,51,127,0
1,58,127,0
1,51,127,0
1,58,127,0
1,51,127,0
1,58,127,0
1,51,127,95
1,58,127,0
1,56,127,95
1,63,127,0
1,56,127,0
1,63,127,0
1,58,127,0
1,65,127,0
1,67,100,6
1,60,100,0
1,60,127,18
1,67,127,0
1,72,127,0
1,60,127,0
1,67,127,0
1,72,127,0
1,60,127,0
1,67,127,0
1,72,127,0
1,53,127,240
1,60,127,0
1,53,127,0
1,60,127,0
1,53,127,0
1,60,127,0
1,53,127,95
1,60,127,0
1,51,127,95
1,58,127,0
1,51,127,0
1,58,127,0
1,51,127,0
1,58,127,0
1,51,127,0
1,58,127,0
1,51,127,95
1,58,127,0
1,56,127,95
1,63,127,0
1,68,127,0
1,56,127,0
1,63,127,0
1,68,127,0
1,58,127,0
1,65,127,0
1,70,127,0
1,72,100,6
1,67,100,0
1,60,100,0
1,60,127,18
1,67,127,0
1,72,127,0
1,60,127,0
1,67,127,0
1,72,127,0
1,60,127,0
1,67,127,0
1,72,127,0
1,60,127,15600
1,53,127,0
1,53,127,0
1,60,127,0
1,53,127,0
1,60,127,0
1,53,127,95
1,60,127,0
1,51,127,95
1,58,127,0
1,51,127,0
1,58,127,0
1,51,127,0
1,58,127,0
1,51,127,0
1,58,127,0
1,51,127,95
1,58,127,0
1,56,127,95
1,63,127,0
1,56,127,0
1,63,127,0
1,58,127,0
1,65,127,0
1,67,100,6
1,60,100,0
1,60,127,18
1,67,127,0
1,72,127,0
1,60,127,0
1,67,127,0
1,72,127,0
1,60,127,0
1,67,127,0
1,72,127,0
1,53,127,240
1,60,127,0
1,53,127,0
1,60,127,0
1,53,127,0
1,60,127,0
1,53,127,95
1,60,127,0
1,51,127,95
1,58,127,0
1,51,127,0
1,58,127,0
1,51,127,0
1,58,127,0
1,51,127,0
1,58,127,0
1,51,127,95
1,58,127,0
1,56,127,95
1,63,127,0
1,56,127,0
1,63,127,0
1,58,127,0
1,65,127,0
1,67,100,6
1,60,100,0
1,60,127,18
1,67,127,0
1,72,127,0
1,60,127,0
1,67,127,0
1,72,127,0
1,60,127,0
1,67,127,0
1,72,127,0
1,53,127,240
1,60,127,0
1,53,127,0
1,60,127,0
1,53,127,0
1,60,127,0
1,53,127,95
1,60,127,0
1,51,127,95
1,58,127,0
1,51,127,0
1,58,127,0
1,51,127,0
1,58,127,0
1,51,127,0
1,58,127,0
1,51,127,95
1,58,127,0
1,56,127,95
1,63,127,0
1,56,127,0
1,63,127,0
1,58,127,0
1,65,127,0
1,67,100,6
1,60,100,0
1,60,127,18
1,67,127,0
1,72,127,0
1,60,127,0
1,67,127,0
1,72,127,0
1,60,127,0
1,67,127,0
1,72,127,0
1,53,127,240
1,60,127,0
1,53,127,0
1,60,127,0
1,53,127,0
1,60,127,0
1,53,127,95
1,60,127,0
1,51,127,95
1,58,127,0
1,51,127,0
1,58,127,0
1,51,127,0
1,58,127,0
1,51,127,0
1,58,127,0
1,51,127,95
1,58,127,0
1,56,127,95
1,63,127,0
1,56,127,0
1,63,127,0
1,58,127,0
1,65,127,0
1,67,100,6
1,60,100,0
1,60,127,18
1,67,127,0
1,72,127,0
1,60,127,0
1,67,127,0
1,72,127,0
1,60,127,0
1,67,127,0
1,72,127,0
1,53,127,27120
1,60,127,0
1,53,127,0
1,60,127,0
1,53,127,0
1,60,127,0
1,53,127,95
1,60,127,0
1,51,127,95
1,58,127,0
1,51,127,0
1,58,127,0
1,51,127,0
1,58,127,0
1,51,127,0
1,58,127,0
1,51,127,95
1,58,127,0
1,56,127,95
1,63,127,0
1,56,127,0
1,63,127,0
1,58,127,0
1,65,127,0
1,67,100,6
1,60,100,0
1,60,127,18
1,67,127,0
1,72,127,0
1,60,127,0
1,67,127,0
1,72,127,0
1,60,127,0
1,67,127,0
1,72,127,0
1,53,127,240
1,60,127,0
1,53,127,0
1,60,127,0
1,53,127,0
1,60,127,0
1,53,127,95
1,60,127,0
1,51,127,95
1,58,127,0
1,51,127,0
1,58,127,0
1,51,127,0
1,58,127,0
1,51,127,0
1,58,127,0
1,51,127,95
1,58,127,0
1,56,127,95
1,63,127,0
1,56,127,0
1,63,127,0
1,58,127,0
1,65,127,0
1,67,100,6
1,60,100,0
1,60,127,18
1,67,127,0
1,72,127,0
1,60,127,0
1,67,127,0
1,72,127,0
1,60,127,0
1,67,127,0
1,72,127,0
1,53,127,240
1,60,127,0
1,53,127,0
1,60,127,0
1,53,127,0
1,60,127,0
1,53,127,95
1,60,127,0
1,51,127,95
1,58,127,0
1,51,127,0
1,58,127,0
1,51,127,0
1,58,127,0
1,51,127,0
1,58,127,0
1,51,127,95
1,58,127,0
1,56,127,95
1,63,127,0
1,56,127,0
1,63,127,0
1,58,127,0
1,65,127,0
1,67,100,6
1,60,100,0
1,60,127,18
1,67,127,0
1,72,127,0
1,60,127,0
1,67,127,0
1,72,127,0
1,60,127,0
1,67,127,0
1,72,127,0
1,53,127,240
1,60,127,0
1,53,127,0
1,60,127,0
1,53,127,0
1,60,127,0
1,53,127,95
1,60,127,0
1,51,127,95
1,58,127,0
1,51,127,0
1,58,127,0
1,51,127,0
1,58,127,0
1,51,127,0
1,58,127,0
1,51,127,95
1,58,127,0
1,56,127,95
1,63,127,0
1,56,127,0
1,63,127,0
1,58,127,0
1,65,127,0
1,67,100,6
1,60,100,0
1,60,127,18
1,67,127,0
1,72,127,0
1,60,127,0
1,67,127,0
1,72,127,0
1,60,127,0
1,67,127,0
1,72,127,0
2,53,127,7920
2,60,127,0
2,53,127,0
2,60,127,0
2,53,127,0
2,60,127,0
2,53,127,95
2,60,127,0
2,51,127,95
2,58,127,0
2,51,127,0
2,58,127,0
2,51,127,0
2,58,127,0
2,51,127,0
2,58,127,0
2,51,127,95
2,58,127,0
2,56,127,95
2,63,127,0
2,56,127,0
2,63,127,0
2,58,127,0
2,65,127,0
2,67,100,6
2,60,100,0
2,72,100,0
2,60,127,18
2,67,127,0
2,72,127,0
2,60,127,0
2,67,127,0
2,72,127,0
2,60,127,0
2,67,127,0
2,72,127,0
2,53,127,240
2,60,127,0
2,53,127,0
2,60,127,0
2,53,127,0
2,60,127,0
2,53,127,95
2,60,127,0
2,51,127,95
2,58,127,0
2,51,127,0
2,58,127,0
2,51,127,0
2,58,127,0
2,51,127,0
2,58,127,0
2,51,127,95
2,58,127,0
2,56,127,95
2,63,127,0
2,68,127,0
2,56,127,0
2,63,127,0
2,68,127,0
2,58,127,0
2,65,127,0
2,70,127,0
2,72,100,6
2,67,100,0
2,60,100,0
2,60,127,18
2,67,127,0
2,72,127,0
2,60,127,0
2,67,127,0
2,72,127,0
2,60,127,0
2,67,127,0
2,72,127,0
2,53,127,15600
2,60,127,0
2,53,127,0
2,60,127,0
2,53,127,0
2,60,127,0
2,53,127,95
2,60,127,0
2,51,127,95
2,58,127,0
2,51,127,0
2,58,127,0
2,51,127,0
2,58,127,0
2,51,127,0
2,58,127,0
2,51,127,95
2,58,127,0
2,56,127,95
2,63,127,0
2,56,127,0
2,63,127,0
2,58,127,0
2,65,127,0
2,67,100,6
2,60,100,0
2,60,127,18
2,67,127,0
2,72,127,0
2,60,127,0
2,67,127,0
2,72,127,0
2,60,127,0
2,67,127,0
2,72,127,0
2,53,127,240
2,60,127,0
2,53,127,0
2,60,127,0
2,53,127,0
2,60,127,0
2,53,127,95
2,60,127,0
2,51,127,95
2,58,127,0
2,51,127,0
2,58,127,0
2,51,127,0
2,58,127,0
2,51,127,0
2,58,127,0
2,51,127,95
2,58,127,0
2,56,127,95
2,63,127,0
2,56,127,0
2,63,127,0
2,58,127,0
2,65,127,0
2,67,100,6
2,60,100,0
2,60,127,18
2,67,127,0
2,72,127,0
2,60,127,0
2,67,127,0
2,72,127,0
2,60,127,0
2,67,127,0
2,72,127,0
2,53,127,240
2,60,127,0
2,53,127,0
2,60,127,0
2,53,127,0
2,60,127,0
2,53,127,95
2,60,127,0
2,51,127,95
2,58,127,0
2,51,127,0
2,58,127,0
2,51,127,0
2,58,127,0
2,51,127,0
2,58,127,0
2,51,127,95
2,58,127,0
2,56,127,95
2,63,127,0
2,56,127,0
2,63,127,0
2,58,127,0
2,65,127,0
2,67,100,6
2,60,100,0
2,60,127,18
2,67,127,0
2,72,127,0
2,60,127,0
2,67,127,0
2,72,127,0
2,60,127,0
2,67,127,0
2,72,127,0
2,53,127,240
2,60,127,0
2,53,127,0
2,60,127,0
2,53,127,0
2,60,127,0
2,53,127,95
2,60,127,0
2,51,127,95
2,58,127,0
2,51,127,0
2,58,127,0
2,51,127,0
2,58,127,0
2,51,127,0
2,58,127,0
2,51,127,95
2,58,127,0
2,56,127,95
2,63,127,0
2,56,127,0
2,63,127,0
2,58,127,0
2,65,127,0
2,67,100,6
2,60,100,0
2,60,127,18
2,67,127,0
2,72,127,0
2,60,127,0
2,67,127,0
2,72,127,0
2,60,127,0
2,67,127,0
2,72,127,0
2,53,127,27120
2,60,127,0
2,53,127,0
2,60,127,0
2,53,127,0
2,60,127,0
2,53,127,95
2,60,127,0
2,51,127,95
2,58,127,0
2,51,127,0
2,58,127,0
2,51,127,0
2,58,127,0
2,51,127,0
2,58,127,0
2,51,127,95
2,58,127,0
2,56,127,95
2,63,127,0
2,56,127,0
2,63,127,0
2,58,127,0
2,65,127,0
2,67,100,6
2,60,100,0
2,60,127,18
2,67,127,0
2,72,127,0
2,60,127,0
2,67,127,0
2,72,127,0
2,60,127,0
2,67,127,0
2,72,127,0
2,53,127,240
2,60,127,0
2,53,127,0
2,60,127,0
2,53,127,0
2,60,127,0
2,53,127,95
2,60,127,0
2,51,127,95
2,58,127,0
2,51,127,0
2,58,127,0
2,51,127,0
2,58,127,0
2,51,127,0
2,58,127,0
2,51,127,95
2,58,127,0
2,56,127,95
2,63,127,0
2,56,127,0
2,63,127,0
2,58,127,0
2,65,127,0
2,67,100,6
2,60,100,0
2,60,127,18
2,67,127,0
2,72,127,0
2,60,127,0
2,67,127,0
2,72,127,0
2,60,127,0
2,67,127,0
2,72,127,0
2,53,127,240
2,60,127,0
2,53,127,0
2,60,127,0
2,53,127,0
2,60,127,0
2,53,127,95
2,60,127,0
2,51,127,95
2,58,127,0
2,51,127,0
2,58,127,0
2,51,127,0
2,58,127,0
2,51,127,0
2,58,127,0
2,51,127,95
2,58,127,0
2,56,127,95
2,63,127,0
2,56,127,0
2,63,127,0
2,58,127,0
2,65,127,0
2,67,100,6
2,60,100,0
2,60,127,18
2,67,127,0
2,72,127,0
2,60,127,0
2,67,127,0
2,72,127,0
2,60,127,0
2,67,127,0
2,72,127,0
2,53,127,240
2,60,127,0
2,53,127,0
2,60,127,0
2,53,127,0
2,60,127,0
2,53,127,95
2,60,127,0
2,51,127,95
2,58,127,0
2,51,127,0
2,58,127,0
2,51,127,0
2,58,127,0
2,51,127,0
2,58,127,0
2,51,127,95
2,58,127,0
2,56,127,95
2,63,127,0
2,56,127,0
2,63,127,0
2,58,127,0
2,65,127,0
2,67,100,6
2,60,100,0
2,60,127,18
2,67,127,0
2,72,127,0
2,60,127,0
2,67,127,0
2,72,127,0
2,60,127,0
2,67,127,0
2,72,127,0
3,75,53,14880
3,75,53,0
3,69,53,0
3,81,53,0
3,69,53,0
3,81,53,0
3,69,53,0
3,81,53,0
3,69,53,0
3,81,53,0
3,69,53,0
3,81,53,0
3,69,53,0
3,81,53,0
3,69,53,0
3,81,53,0
3,69,53,0
3,81,53,0
3,69,53,0
3,81,53,0
3,69,53,0
3,81,53,0
3,69,53,0
3,81,53,0
3,69,53,0
3,81,53,0
3,69,53,0
3,81,53,0
3,69,53,0
3,81,53,0
3,69,53,0
3,81,53,0
3,69,53,0
3,81,53,0
3,69,53,0
3,81,53,0
3,69,53,0
3,81,53,0
3,69,53,0
3,81,53,0
3,69,53,0
3,81,53,0
3,69,53,0
3,81,53,0
3,69,53,0
3,81,53,0
3,69,53,0
3,81,53,0
3,69,53,0
3,81,53,0
3,69,53,0
3,81,53,0
3,69,53,0
3,81,53,0
3,69,53,0
3,81,53,0
3,69,53,0
3,81,53,0
3,69,53,0
3,81,53,0
3,69,53,0
3,81,53,0
3,69,53,0
3,81,53,0
3,69,53,0
3,81,53,0
3,69,53,0
3,81,53,0
3,69,53,0
3,81,53,0
3,69,53,0
3,81,53,0
3,69,53,0
3,81,53,0
3,69,53,0
3,81,53,0
3,69,53,0
3,81,53,0
3,69,53,0
3,81,53,0
3,69,53,0
3,81,53,0
3,69,53,0
3,81,53,0
3,69,53,0
3,81,53,0
3,69,53,0
3,81,53,0
3,69,53,0
3,81,53,0
3,69,53,0
3,81,53,0
3,69,53,0
3,81,53,0
3,69,53,0
3,81,53,0
3,69,53,0
3,81,53,0
3,69,53,0
3,81,53,0
3,69,53,0
3,81,53,0
3,69,53,0
3,81,53,0
3,69,53,0
3,81,53,0
3,69,53,0
3,81,53,0
3,69,53,0
3,81,53,0
3,69,53,0
3,81,53,0
3,69,53,0
3,81,53,0
3,69,53,0
3,81,53,0
3,69,53,0
3,81,53,0
3,69,53,0
3,81,53,0
3,69,53,0
3,81,53,0
3,69,53,0
3,81,53,0
3,69,53,0
3,81,53,0
3,69,53,0
3,81,53,0
3,69,53,0
3,81,53,0
3,69,53,0
3,81,53,0
3,69,53,0
3,81,53,0
3,69,53,0
3,81,53,0
3,69,53,0
3,81,53,0
3,69,53,0
3,81,53,0
3,69,53,0
3,81,53,0
3,69,53,0
3,81,53,0
3,69,53,0
3,81,53,0
3,69,53,0
3,81,53,0
3,69,53,0
3,81,53,0
3,69,53,0
3,81,53,0
3,69,53,0
3,81,53,0
3,69,53,0
3,81,53,0
3,69,53,0
3,81,53,0
3,69,53,0
3,81,53,0
3,69,53,0
3,81,53,0
3,69,53,0
3,81,53,0
3,69,53,15120
3,81,53,0
3,69,53,0
3,81,53,0
3,69,53,0
3,81,53,0
3,69,53,0
3,81,53,0
3,69,53,0
3,81,53,0
3,69,53,0
3,81,53,0
3,69,53,0
3,81,53,0
3,69,53,0
3,81,53,0
3,69,53,0
3,81,53,0
3,69,53,0
3,81,53,0
3,69,53,0
3,81,53,0
3,69,53,0
3,81,53,0
3,69,53,0
3,81,53,0
3,69,53,0
3,81,53,0
3,69,53,0
3,81,53,0
3,69,53,0
3,81,53,0
3,69,53,0
3,81,53,0
3,69,53,0
3,81,53,0
3,69,53,0
3,81,53,0
3,69,53,0
3,81,53,0
3,69,53,0
3,81,53,0
3,69,53,0
3,81,53,0
3,69,53,0
3,81,53,0
3,69,53,0
3,81,53,0
3,69,53,0
3,81,53,0
3,69,53,0
3,81,53,0
3,69,53,0
3,81,53,0
3,69,53,0
3,81,53,0
3,69,53,0
3,81,53,0
3,69,53,0
3,81,53,0
3,69,53,0
3,81,53,0
3,69,53,0
3,81,53,0
3,69,53,0
3,81,53,0
3,69,53,0
3,81,53,0
3,69,53,0
3,81,53,0
3,69,53,0
3,81,53,0
3,69,53,0
3,81,53,0
3,69,53,0
3,81,53,0
3,69,53,0
3,81,53,0
3,69,53,0
3,81,53,0
3,69,53,0
3,81,53,0
3,69,53,0
3,81,53,0
3,69,53,0
3,81,53,0
3,69,53,0
3,81,53,0
3,69,53,0
3,81,53,0
3,69,53,0
3,81,53,0
3,69,53,0
3,81,53,0
3,69,53,0
3,81,53,0
3,69,53,0
3,81,53,0
3,69,53,0
3,81,53,0
3,69,53,0
3,81,53,0
3,69,53,0
3,81,53,0
3,69,53,0
3,81,53,0
3,69,53,0
3,81,53,0
3,69,53,0
3,81,53,0
3,69,53,0
3,81,53,0
3,69,53,0
3,81,53,0
3,69,53,0
3,81,53,0
3,69,53,0
3,81,53,0
3,69,53,0
3,81,53,0
3,69,53,240
3,81,53,0
3,69,53,0
3,81,53,0
3,69,53,0
3,81,53,0
3,69,53,0
