track,note,velocity,time
1,35,100,3072
1,42,100,0
1,49,100,0
1,40,100,144
1,42,100,0
1,42,100,144
1,35,100,48
1,35,100,0
1,40,100,0
1,42,100,0
1,35,100,48
1,35,100,48
1,46,100,0
1,40,100,144
1,42,100,0
1,42,100,144
1,35,100,48
1,35,100,0
1,40,100,0
1,42,100,0
1,35,100,48
1,35,100,48
1,42,100,0
1,49,100,0
1,40,100,144
1,42,100,0
1,42,100,144
1,35,100,48
1,35,100,0
1,40,100,0
1,42,100,0
1,35,100,48
1,35,100,48
1,46,100,0
1,40,100,144
1,42,100,0
1,42,100,144
1,35,100,48
1,35,100,0
1,40,100,0
1,42,100,0
1,35,100,48
1,35,100,48
1,42,100,0
1,49,100,0
1,40,100,144
1,42,100,0
1,42,100,144
1,35,100,48
1,35,100,0
1,40,100,0
1,42,100,0
1,35,100,48
1,35,100,48
1,46,100,0
1,40,100,144
1,42,100,0
1,42,100,144
1,35,100,48
1,35,100,0
1,40,100,0
1,42,100,0
1,35,100,48
1,35,100,48
1,42,100,0
1,35,100,48
1,42,100,0
1,40,100,48
1,42,100,0
1,42,100,48
1,48,100,0
1,35,100,48
1,42,100,0
1,35,100,48
1,42,100,0
1,40,100,48
1,42,100,0
1,42,100,48
1,48,100,0
1,35,100,48
1,42,100,0
1,35,100,48
1,42,100,0
1,40,100,48
1,42,100,0
1,42,100,48
1,48,100,0
1,35,100,48
1,42,100,0
1,35,100,48
1,42,100,0
1,40,100,48
1,42,100,0
1,42,100,48
1,48,100,0
1,35,100,48
1,42,100,0
1,49,100,0
1,40,100,144
1,42,100,0
1,42,100,144
1,35,100,48
1,35,100,0
1,40,100,0
1,42,100,0
1,35,100,48
1,35,100,48
1,46,100,0
1,40,100,144
1,42,100,0
1,42,100,144
1,35,100,48
1,35,100,0
1,40,100,0
1,42,100,0
1,35,100,48
1,35,100,48
1,42,100,0
1,35,100,48
1,42,100,0
1,40,100,48
1,42,100,0
1,42,100,48
1,48,100,0
1,35,100,48
1,42,100,0
1,35,100,48
1,42,100,0
1,40,100,48
1,42,100,0
1,42,100,48
1,48,100,0
1,35,100,48
1,42,100,0
1,35,100,48
1,42,100,0
1,40,100,48
1,42,100,0
1,42,100,48
1,48,100,0
1,35,100,48
1,42,100,0
1,35,100,48
1,42,100,0
1,40,100,48
1,42,100,0
1,42,100,48
1,48,100,0
1,35,100,48
1,49,100,0
1,35,100,48
1,40,100,48
1,42,100,0
1,35,100,48
1,40,100,48
1,46,100,0
1,40,100,48
1,46,100,0
1,35,100,240
1,35,100,48
1,40,100,48
1,35,100,48
1,40,71,32
1,40,100,0
1,35,100,48
1,48,63,32
1,48,100,0
1,35,100,0
1,35,100,96
1,42,100,0
1,49,100,0
1,40,100,144
1,42,100,0
1,42,100,144
1,35,100,48
1,35,100,0
1,40,100,0
1,42,100,0
1,35,100,48
1,35,100,48
1,46,100,0
1,40,100,144
1,42,100,0
1,42,100,144
1,35,100,48
1,35,100,0
1,40,100,0
1,42,100,0
1,35,100,48
1,35,100,48
1,42,100,0
1,49,100,0
1,40,100,144
1,42,100,0
1,42,100,144
1,35,100,48
1,35,100,0
1,40,100,0
1,42,100,0
1,35,100,48
1,35,100,48
1,49,100,0
1,40,100,144
1,49,100,0
1,45,100,144
1,45,100,48
1,40,100,48
1,45,100,0
1,45,100,48
1,35,100,48
1,51,100,0
1,51,100,48
1,40,100,48
1,51,100,0
1,40,100,48
1,51,100,0
1,35,100,48
1,51,100,0
1,51,100,48
1,40,100,48
1,51,100,0
1,51,100,48
1,35,100,48
1,51,100,0
1,51,100,48
1,40,100,48
1,51,100,0
1,40,100,48
1,51,100,0
1,35,100,48
1,51,100,0
1,51,100,48
1,40,100,48
1,51,100,0
1,51,100,48
1,35,100,48
1,49,100,0
1,35,100,48
1,40,100,48
1,46,100,0
1,35,100,48
1,35,100,48
1,46,100,0
1,35,100,48
1,40,100,48
1,46,100,0
1,35,100,48
1,35,100,48
1,46,100,0
1,35,100,48
1,46,100,0
1,40,100,48
1,46,100,0
1,35,100,48
1,46,100,0
1,40,100,32
1,40,100,0
1,35,100,48
1,48,100,32
1,48,100,0
1,35,100,0
1,35,100,96
1,42,100,0
1,49,100,0
1,40,100,144
1,42,100,0
1,42,100,144
1,35,100,48
1,35,100,0
1,40,100,0
1,42,100,0
1,35,100,48
1,35,100,48
1,46,100,0
1,40,100,144
1,42,100,0
1,42,100,144
1,35,100,48
1,35,100,0
1,40,100,0
1,42,100,0
1,35,100,48
1,35,100,48
1,42,100,0
1,49,100,0
1,40,100,144
1,42,100,0
1,42,100,144
1,35,100,48
1,35,100,0
1,40,100,0
1,42,100,0
1,35,100,48
1,35,100,48
1,46,100,0
1,40,100,144
1,42,100,0
1,42,100,144
1,35,100,48
1,35,100,0
1,40,100,0
1,42,100,0
1,35,100,48
1,35,100,48
1,42,100,0
1,49,100,0
1,40,100,144
1,42,100,0
1,42,100,144
1,35,100,48
1,35,100,0
1,40,100,0
1,42,100,0
1,35,100,48
1,35,100,48
1,46,100,0
1,40,100,144
1,42,100,0
1,42,100,144
1,35,100,48
1,35,100,0
1,40,100,0
1,42,100,0
1,35,100,48
1,35,100,48
1,42,100,0
1,35,100,48
1,42,100,0
1,40,100,48
1,42,100,0
1,42,100,48
1,48,100,0
1,35,100,48
1,42,100,0
1,35,100,48
1,42,100,0
1,40,100,48
1,42,100,0
1,42,100,48
1,48,100,0
1,35,100,48
1,42,100,0
1,35,100,48
1,42,100,0
1,40,100,48
1,42,100,0
1,42,100,48
1,48,100,0
1,35,100,48
1,42,100,0
1,35,100,48
1,42,100,0
1,40,100,48
1,42,100,0
1,42,100,48
1,48,100,0
1,35,100,48
1,42,100,0
1,49,100,0
1,40,100,144
1,42,100,0
1,42,100,144
1,35,100,48
1,35,100,0
1,40,100,0
1,42,100,0
1,35,100,48
1,35,100,48
1,46,100,0
1,40,100,144
1,42,100,0
1,42,100,144
1,35,100,48
1,35,100,0
1,40,100,0
1,42,100,0
1,35,100,48
1,35,100,48
1,42,100,0
1,35,100,48
1,42,100,0
1,40,100,48
1,42,100,0
1,42,100,48
1,48,100,0
1,35,100,48
1,42,100,0
1,35,100,48
1,42,100,0
1,40,100,48
1,42,100,0
1,42,100,48
1,48,100,0
1,35,100,48
1,42,100,0
1,35,100,48
1,42,100,0
1,40,100,48
1,42,100,0
1,42,100,48
1,48,100,0
1,35,100,48
1,42,100,0
1,35,100,48
1,42,100,0
1,40,100,48
1,42,100,0
1,42,100,48
1,48,100,0
1,35,100,48
1,49,100,0
1,35,100,48
1,40,100,48
1,42,100,0
1,35,100,48
1,40,100,48
1,46,100,0
1,40,100,48
1,46,100,0
1,35,100,240
1,35,100,48
1,40,100,48
1,35,100,48
1,40,71,32
1,40,100,0
1,35,100,48
1,48,63,32
1,48,100,0
1,35,100,0
1,35,100,96
1,42,100,0
1,49,100,0
1,40,100,144
1,42,100,0
1,42,100,144
1,35,100,48
1,35,100,0
1,40,100,0
1,42,100,0
1,35,100,48
1,35,100,48
1,46,100,0
1,40,100,144
1,42,100,0
1,42,100,144
1,35,100,48
1,35,100,0
1,40,100,0
1,42,100,0
1,35,100,48
1,35,100,48
1,42,100,0
1,49,100,0
1,40,100,144
1,42,100,0
1,42,100,144
1,35,100,48
1,35,100,0
1,40,100,0
1,42,100,0
1,35,100,48
1,35,100,48
1,49,100,0
1,40,100,144
1,49,100,0
1,45,100,144
1,45,100,48
1,40,100,48
1,45,100,0
1,45,100,48
1,35,100,48
1,51,100,0
1,51,100,48
1,40,100,48
1,51,100,0
1,40,100,48
1,51,100,0
1,35,100,48
1,51,100,0
1,51,100,48
1,40,100,48
1,51,100,0
1,51,100,48
1,35,100,48
1,51,100,0
1,51,100,48
1,40,100,48
1,51,100,0
1,40,100,48
1,51,100,0
1,35,100,48
1,51,100,0
1,51,100,48
1,40,100,48
1,51,100,0
1,51,100,48
1,35,100,48
1,49,100,0
1,35,100,48
1,40,100,48
1,46,100,0
1,35,100,48
1,35,100,48
1,46,100,0
1,35,100,48
1,40,100,48
1,46,100,0
1,35,100,48
1,35,100,48
1,46,100,0
1,35,100,48
1,46,100,0
1,40,100,48
1,46,100,0
1,35,100,48
1,46,100,0
1,40,100,32
1,40,100,0
1,35,100,48
1,48,100,32
1,48,100,0
1,35,100,0
1,35,100,96
1,42,100,0
1,49,100,0
1,40,100,144
1,42,100,0
1,42,100,144
1,35,100,48
1,35,100,0
1,40,100,0
1,42,100,0
1,35,100,48
1,35,100,48
1,46,100,0
1,40,100,144
1,42,100,0
1,42,100,144
1,35,100,48
1,35,100,0
1,40,100,0
1,42,100,0
1,35,100,48
1,35,100,48
1,42,100,0
1,49,100,0
1,40,100,144
1,42,100,0
1,42,100,144
1,35,100,48
1,35,100,0
1,40,100,0
1,42,100,0
1,35,100,48
1,35,100,48
1,49,100,0
1,40,100,144
1,49,100,0
1,45,100,144
1,45,100,48
1,40,100,48
1,45,100,0
1,45,100,48
1,35,100,48
1,51,100,0
1,51,100,48
1,40,100,48
1,51,100,0
1,40,100,48
1,51,100,0
1,35,100,48
1,51,100,0
1,51,100,48
1,40,100,48
1,51,100,0
1,51,100,48
1,35,100,48
1,51,100,0
1,51,100,48
1,40,100,48
1,51,100,0
1,40,100,48
1,51,100,0
1,35,100,48
1,51,100,0
1,51,100,48
1,40,100,48
1,51,100,0
1,51,100,48
1,35,100,48
1,49,100,0
1,35,100,48
1,40,100,48
1,46,100,0
1,35,100,48
1,35,100,48
1,46,100,0
1,35,100,48
1,40,100,48
1,46,100,0
1,35,100,48
1,35,100,48
1,46,100,0
1,35,100,48
1,40,100,48
1,46,100,0
1,35,100,48
1,35,100,48
1,46,100,0
1,35,100,48
1,40,100,48
1,46,100,0
1,35,100,96
1,35,100,0
1,46,100,0
1,35,100,48
1,40,100,48
1,46,100,0
1,40,100,48
1,46,100,0
1,35,100,1968
1,49,100,0
1,35,100,48
1,40,100,48
1,42,100,0
1,35,100,48
1,40,100,48
1,46,100,0
1,40,100,48
1,46,100,0
1,35,100,240
1,49,100,0
1,35,100,0
1,40,100,48
1,35,100,48
1,40,71,32
1,40,100,0
1,35,100,48
1,48,63,32
1,48,100,0
1,35,100,0
1,35,100,96
1,42,100,0
1,49,100,0
1,40,100,144
1,42,100,0
1,42,100,144
1,35,100,48
1,35,100,0
1,40,100,0
1,42,100,0
1,35,100,48
1,35,100,48
1,46,100,0
1,40,100,144
1,42,100,0
1,42,100,144
1,35,100,48
1,35,100,0
1,40,100,0
1,42,100,0
1,35,100,48
1,35,100,48
1,49,100,0
1,35,100,48
1,40,100,48
1,42,100,0
1,35,100,48
1,40,100,48
1,46,100,0
1,40,100,48
1,46,100,0
1,35,100,240
1,35,100,48
1,40,100,48
1,35,100,48
1,40,71,32
1,40,100,0
1,35,100,48
1,48,63,32
1,48,100,0
1,35,100,0
1,35,100,96
1,42,100,0
1,49,100,0
1,40,100,144
1,42,100,0
1,42,100,144
1,35,100,48
1,35,100,0
1,40,100,0
1,42,100,0
1,35,100,48
1,35,100,48
1,46,100,0
1,40,100,144
1,42,100,0
1,42,100,144
1,35,100,48
1,35,100,0
1,40,100,0
1,42,100,0
1,35,100,48
1,35,100,48
1,42,100,0
1,49,100,0
1,40,100,144
1,42,100,0
1,42,100,144
1,35,100,48
1,35,100,0
1,40,100,0
1,42,100,0
1,35,100,48
1,35,100,48
1,49,100,0
1,40,100,144
1,49,100,0
1,45,100,144
1,45,100,48
1,40,100,48
1,45,100,0
1,45,100,48
1,35,100,48
1,51,100,0
1,51,100,48
1,40,100,48
1,51,100,0
1,40,100,48
1,51,100,0
1,35,100,48
1,51,100,0
1,51,100,48
1,40,100,48
1,51,100,0
1,51,100,48
1,35,100,48
1,51,100,0
1,51,100,48
1,40,100,48
1,51,100,0
1,40,100,48
1,51,100,0
1,35,100,48
1,51,100,0
1,51,100,48
1,40,100,48
1,51,100,0
1,51,100,48
1,35,100,48
1,49,100,0
1,35,100,48
1,40,100,48
1,46,100,0
1,35,100,48
1,35,100,48
1,46,100,0
1,35,100,48
1,40,100,48
1,46,100,0
1,35,100,48
1,35,100,48
1,46,100,0
1,35,100,48
1,46,100,0
1,40,100,48
1,46,100,0
1,35,100,48
1,46,100,0
1,40,100,32
1,40,100,0
1,35,100,48
1,48,100,32
1,48,100,0
1,35,100,0
1,35,100,96
1,42,100,0
1,49,100,0
1,40,100,144
1,42,100,0
1,42,100,144
1,35,100,48
1,35,100,0
1,40,100,0
1,42,100,0
1,35,100,48
1,35,100,48
1,46,100,0
1,40,100,144
1,42,100,0
1,42,100,144
1,35,100,48
1,35,100,0
1,40,100,0
1,42,100,0
1,35,100,48
1,35,100,48
1,42,100,0
1,49,100,0
1,40,100,144
1,42,100,0
1,42,100,144
1,35,100,48
1,35,100,0
1,40,100,0
1,42,100,0
1,35,100,48
1,35,100,48
1,49,100,0
1,40,100,144
1,49,100,0
1,45,100,144
1,45,100,48
1,40,100,48
1,45,100,0
1,45,100,48
1,35,100,48
1,51,100,0
1,51,100,48
1,40,100,48
1,51,100,0
1,40,100,48
1,51,100,0
1,35,100,48
1,51,100,0
1,51,100,48
1,40,100,48
1,51,100,0
1,51,100,48
1,35,100,48
1,51,100,0
1,51,100,48
1,40,100,48
1,51,100,0
1,40,100,48
1,51,100,0
1,35,100,48
1,51,100,0
1,51,100,48
1,40,100,48
1,51,100,0
1,51,100,48
1,35,100,48
1,49,100,0
1,35,100,48
1,40,100,48
1,46,100,0
1,35,100,48
1,35,100,48
1,46,100,0
1,35,100,48
1,40,100,48
1,46,100,0
1,35,100,48
1,35,100,48
1,46,100,0
1,35,100,48
1,40,100,48
1,46,100,0
1,35,100,48
1,35,100,48
1,46,100,0
1,35,100,48
1,40,100,48
1,46,100,0
1,35,100,48
1,46,100,0
1,35,100,48
1,49,100,0
1,35,100,48
1,40,100,48
1,46,100,0
1,35,100,48
1,35,100,48
1,46,100,0
1,35,100,48
1,40,100,48
1,46,100,0
1,35,100,48
1,35,100,48
1,49,100,0
2,33,100,2976
2,35,100,0
2,45,100,0
2,47,100,0
2,28,100,0
2,30,100,0
2,37,100,96
2,33,100,0
2,35,100,0
2,45,100,0
2,47,100,0
2,28,100,0
2,30,100,0
2,40,100,0
2,42,100,0
2,38,100,0
2,33,100,0
2,35,100,0
2,45,100,0
2,47,100,0
2,28,100,0
2,30,100,0
2,37,100,96
2,33,100,0
2,35,100,0
2,45,100,0
2,47,100,0
2,28,100,0
2,30,100,0
2,40,100,0
2,42,100,0
2,38,100,0
2,33,100,0
2,35,100,0
2,45,100,0
2,47,100,0
2,28,100,0
2,30,100,0
2,38,100,48
2,38,100,0
2,35,100,0
2,33,100,48
2,35,100,0
2,45,100,0
2,47,100,0
2,28,100,0
2,30,100,0
2,38,100,48
2,38,100,0
2,35,100,0
2,33,100,48
2,32,100,0
2,32,100,0
2,40,100,0
2,39,100,48
2,31,100,0
2,31,100,0
2,38,100,0
2,38,100,0
2,30,100,0
2,30,100,0
2,37,100,0
2,37,100,0
2,40,100,0
2,37,100,0
2,33,100,0
2,35,100,0
2,45,100,0
2,47,100,0
2,28,100,0
2,30,100,0
2,38,100,48
2,38,100,0
2,35,100,0
2,33,100,48
2,35,100,0
2,45,100,0
2,47,100,0
2,28,100,0
2,30,100,0
2,38,100,48
2,38,100,0
2,35,100,0
2,33,100,48
2,32,100,0
2,32,100,0
2,40,100,0
2,39,100,48
2,31,100,0
2,31,100,0
2,38,100,0
2,38,100,0
2,30,100,0
2,30,100,0
2,37,100,0
2,37,100,0
2,40,100,0
2,37,100,0
2,33,100,0
2,33,100,0
2,33,100,0
2,45,100,0
2,45,100,0
2,33,100,0
2,33,100,0
2,33,100,192
2,33,100,0
2,45,100,0
2,45,100,0
2,33,100,0
2,30,100,0
2,30,100,0
2,33,100,0
2,35,100,0
2,35,100,48
2,47,100,0
2,28,100,0
2,29,100,0
2,30,100,0
