track,note,velocity,time
2,69,127,7070
2,73,100,0
2,76,68,0
2,69,113,58
2,73,91,0
2,76,58,0
2,69,122,63
2,73,100,0
2,76,66,0
2,69,113,60
2,73,91,0
2,76,60,0
2,68,104,60
2,73,100,0
2,76,59,0
2,68,100,58
2,73,95,0
2,76,54,0
2,68,95,61
2,73,83,0
2,76,53,0
2,66,127,56
2,73,104,0
2,76,73,0
2,66,91,50
2,73,80,0
2,70,68,6
2,66,87,64
2,73,83,0
2,70,55,9
2,66,91,59
2,73,83,0
2,70,61,8
2,66,95,56
2,73,87,0
2,70,61,3
2,66,91,58
2,73,80,0
2,70,57,1
2,66,91,59
2,73,87,0
2,70,59,1
2,70,61,57
2,66,95,3
2,73,87,0
2,70,65,61
2,66,110,3
2,73,110,0
2,69,127,8
2,73,100,0
2,76,68,0
2,69,113,58
2,73,91,0
2,76,58,0
2,69,122,63
2,73,100,0
2,76,66,0
2,69,113,60
2,73,91,0
2,76,60,0
2,68,104,60
2,73,100,0
2,76,59,0
2,68,100,58
2,73,95,0
2,76,54,0
2,68,95,61
2,73,83,0
2,76,53,0
2,66,127,56
2,73,104,0
2,76,73,0
2,66,91,50
2,73,80,0
2,70,68,13
2,66,87,64
2,73,83,0
2,70,71,8
2,66,91,64
2,73,83,0
2,70,65,5
2,66,95,66
2,73,87,0
2,70,65,1
2,66,91,68
2,70,63,0
2,73,80,0
2,70,59,67
2,66,91,2
2,73,87,0
2,66,95,66
2,70,61,0
2,73,87,0
2,66,110,68
2,73,110,0
2,70,65,3
2,66,80,8
2,71,104,0
2,74,101,0
2,66,76,60
2,71,104,0
2,74,104,0
2,66,80,55
2,71,104,0
2,74,94,0
2,66,83,58
2,71,94,0
2,74,94,0
2,65,91,50
2,68,104,0
2,73,95,0
2,65,70,55
2,68,71,0
2,73,68,0
2,65,94,53
2,68,100,0
2,62,86,52
2,66,87,0
2,69,88,0
2,62,73,55
2,66,73,0
2,69,77,0
2,74,86,0
2,62,73,53
2,66,73,0
2,69,75,0
2,74,64,0
2,62,75,53
2,66,76,0
2,69,83,0
2,74,73,0
2,62,71,56
2,66,76,0
2,69,79,0
2,74,67,0
2,62,77,56
2,66,80,0
2,69,83,0
2,74,77,0
2,62,68,52
2,66,68,0
2,69,73,0
2,74,79,0
2,62,75,52
2,66,76,0
2,69,79,0
2,74,81,0
2,62,77,48
2,66,73,0
2,69,79,0
2,74,79,0
2,69,122,50
2,73,104,0
2,76,117,0
2,69,97,64
2,73,91,0
2,76,88,0
2,69,97,68
2,73,87,0
2,76,91,0
2,69,83,63
2,73,76,0
2,76,79,0
2,66,95,50
2,69,117,0
2,74,104,0
2,66,61,53
2,69,83,0
2,74,81,0
2,66,63,53
2,69,86,0
2,74,88,0
2,69,117,53
2,73,95,0
2,76,101,0
2,69,94,56
2,73,76,0
2,76,91,0
2,69,81,60
2,73,63,0
2,76,75,0
2,69,83,58
2,73,71,0
2,76,83,0
2,69,88,56
2,73,80,0
2,76,88,0
2,69,88,61
2,73,71,0
2,76,83,0
2,69,81,63
2,73,68,0
2,76,77,0
2,69,91,58
2,73,76,0
2,76,88,0
2,69,94,61
2,73,80,0
2,76,91,0
2,64,83,6204
2,69,101,0
2,73,68,0
2,64,67,58
2,69,81,0
2,73,63,0
2,64,71,55
2,69,83,0
2,73,63,0
2,64,71,52
2,69,75,0
2,73,63,0
2,64,77,50
2,68,83,0
2,71,86,0
2,64,68,52
2,68,71,0
2,71,79,0
2,64,77,55
2,68,80,0
2,71,86,0
2,61,83,53
2,66,100,0
2,70,91,0
2,61,47,61
2,66,68,0
2,70,68,0
2,61,59,55
2,66,63,0
2,70,63,0
2,61,59,60
2,66,68,0
2,70,65,0
2,61,63,55
2,66,73,0
2,70,68,0
2,61,59,55
2,66,68,0
2,70,68,0
2,61,63,56
2,66,71,0
2,70,68,0
2,61,63,53
2,66,76,0
2,70,65,0
2,61,50,52
2,66,65,0
2,70,59,0
2,64,83,58
2,69,101,0
2,73,68,0
2,64,67,58
2,69,81,0
2,73,63,0
2,64,71,55
2,69,83,0
2,73,63,0
2,64,71,52
2,69,75,0
2,73,63,0
2,64,77,50
2,68,83,0
2,71,86,0
2,64,68,52
2,68,71,0
2,71,79,0
2,64,77,55
2,68,80,0
2,71,86,0
2,61,83,53
2,66,100,0
2,70,91,0
2,61,47,61
2,66,68,0
2,70,68,0
2,61,59,55
2,66,63,0
2,70,63,0
2,61,59,60
2,66,68,0
2,70,65,0
2,61,63,55
2,66,73,0
2,70,68,0
2,61,59,55
2,66,68,0
2,70,68,0
2,61,63,56
2,66,71,0
2,70,68,0
2,61,63,53
2,66,76,0
2,70,65,0
2,61,50,52
2,66,65,0
2,70,59,0
2,64,83,9274
2,69,101,0
2,73,68,0
2,64,67,58
2,69,81,0
2,73,63,0
2,64,71,55
2,69,83,0
2,73,63,0
2,64,71,52
2,69,75,0
2,73,63,0
2,64,77,50
2,68,83,0
2,71,86,0
2,64,68,52
2,68,71,0
2,71,79,0
2,64,77,55
2,68,80,0
2,71,86,0
2,61,83,53
2,66,100,0
2,70,91,0
2,61,47,61
2,66,68,0
2,70,68,0
2,61,59,55
2,66,63,0
2,70,63,0
2,61,59,60
2,66,68,0
2,70,65,0
2,61,63,55
2,66,73,0
2,70,68,0
2,61,59,55
2,66,68,0
2,70,68,0
2,61,63,56
2,66,71,0
2,70,68,0
2,61,63,53
2,66,76,0
2,70,65,0
2,61,50,52
2,66,65,0
2,70,59,0
2,64,83,58
2,69,101,0
2,73,68,0
2,64,67,58
2,69,81,0
2,73,63,0
2,64,71,55
2,69,83,0
2,73,63,0
2,64,71,52
2,69,75,0
2,73,63,0
2,64,77,50
2,68,83,0
2,71,86,0
2,64,68,52
2,68,71,0
2,71,79,0
2,64,77,55
2,68,80,0
2,71,86,0
2,61,83,53
2,66,100,0
2,70,91,0
2,61,47,61
2,66,68,0
2,70,68,0
2,61,59,55
2,66,63,0
2,70,63,0
2,61,59,60
2,66,68,0
2,70,65,0
2,61,63,55
2,66,73,0
2,70,68,0
2,61,59,55
2,66,68,0
2,70,68,0
2,61,63,56
2,66,71,0
2,70,68,0
2,61,63,53
2,66,76,0
2,70,65,0
2,61,50,52
2,66,65,0
2,70,59,0
2,64,83,6202
2,69,101,0
2,73,68,0
2,64,67,58
2,69,81,0
2,73,63,0
2,64,71,55
2,69,83,0
2,73,63,0
2,64,71,52
2,69,75,0
2,73,63,0
2,64,77,50
2,68,83,0
2,71,86,0
2,64,68,52
2,68,71,0
2,71,79,0
2,64,77,55
2,68,80,0
2,71,86,0
2,61,83,53
2,66,100,0
2,70,91,0
2,61,47,61
2,66,68,0
2,70,68,0
2,61,59,55
2,66,63,0
2,70,63,0
2,61,59,60
2,66,68,0
2,70,65,0
2,61,63,55
2,66,73,0
2,70,68,0
2,61,59,55
2,66,68,0
2,70,68,0
2,61,63,56
2,66,71,0
2,70,68,0
2,61,63,53
2,66,76,0
2,70,65,0
2,61,50,52
2,66,65,0
2,70,59,0
2,64,83,58
2,69,101,0
2,73,68,0
2,64,67,58
2,69,81,0
2,73,63,0
2,64,71,55
2,69,83,0
2,73,63,0
2,64,71,52
2,69,75,0
2,73,63,0
2,64,77,50
2,68,83,0
2,71,86,0
2,64,68,52
2,68,71,0
2,71,79,0
2,64,77,55
2,68,80,0
2,71,86,0
2,61,83,53
2,66,100,0
2,70,91,0
2,61,47,61
2,66,68,0
2,70,68,0
2,61,59,55
2,66,63,0
2,70,63,0
2,61,59,60
2,66,68,0
2,70,65,0
2,61,63,55
2,66,73,0
2,70,68,0
2,61,59,55
2,66,68,0
2,70,68,0
2,61,63,56
2,66,71,0
2,70,68,0
2,61,63,53
2,66,76,0
2,70,65,0
2,61,50,52
2,66,65,0
2,70,59,0
2,64,127,9274
2,69,127,0
2,73,127,0
2,64,127,64
2,69,127,0
2,73,110,0
2,64,127,68
2,69,127,0
2,73,110,0
2,64,127,61
2,69,127,0
2,73,110,0
2,64,127,63
2,68,110,0
2,71,101,0
2,64,127,63
2,68,110,0
2,71,122,0
2,64,127,63
2,68,110,0
2,71,117,0
2,61,127,56
2,66,127,0
2,70,110,0
2,61,110,55
2,66,95,0
2,70,87,0
2,61,104,61
2,66,110,0
2,70,100,0
2,61,100,64
2,66,104,0
2,70,100,0
2,61,104,61
2,66,110,0
2,70,104,0
2,61,104,63
2,66,104,0
2,70,104,0
2,61,104,61
2,66,104,0
2,70,104,0
2,61,104,61
2,66,104,0
2,70,104,0
2,61,110,63
2,66,127,0
2,70,110,0
2,64,127,64
2,69,127,0
2,73,127,0
2,64,127,64
2,69,127,0
2,73,110,0
2,64,127,68
2,69,127,0
2,73,110,0
2,64,127,61
2,69,127,0
2,73,110,0
2,64,127,63
2,68,110,0
2,71,101,0
2,64,127,63
2,68,110,0
2,71,122,0
2,64,127,63
2,68,110,0
2,71,117,0
2,61,127,56
2,66,127,0
2,70,110,0
2,61,110,55
2,66,95,0
2,70,87,0
2,61,104,61
2,66,110,0
2,70,100,0
2,61,100,64
2,66,104,0
2,70,100,0
2,61,104,61
2,66,110,0
2,70,104,0
2,61,104,63
2,66,104,0
2,70,104,0
2,61,104,61
2,66,104,0
2,70,104,0
2,61,104,61
2,66,104,0
2,70,104,0
2,61,110,63
2,66,127,0
2,70,110,0
2,64,83,12352
2,69,101,0
2,73,68,0
2,64,67,58
2,69,81,0
2,73,63,0
2,64,71,55
2,69,83,0
2,73,63,0
2,64,71,52
2,69,75,0
2,73,63,0
2,64,77,50
2,68,83,0
2,71,86,0
2,64,68,52
2,68,71,0
2,71,79,0
2,64,77,55
2,68,80,0
2,71,86,0
2,61,83,53
2,66,100,0
2,70,91,0
2,61,47,61
2,66,68,0
2,70,68,0
2,61,59,55
2,66,63,0
2,70,63,0
2,61,59,60
2,66,68,0
2,70,65,0
2,61,63,55
2,66,73,0
2,70,68,0
2,61,59,55
2,66,68,0
2,70,68,0
2,61,63,56
2,66,71,0
2,70,68,0
2,61,63,53
2,66,76,0
2,70,65,0
2,61,50,52
2,66,65,0
2,70,59,0
2,64,83,58
2,69,101,0
2,73,68,0
2,64,67,58
2,69,81,0
2,73,63,0
2,64,71,55
2,69,83,0
2,73,63,0
2,64,71,52
2,69,75,0
2,73,63,0
2,64,77,50
2,68,83,0
2,71,86,0
2,64,68,52
2,68,71,0
2,71,79,0
2,64,77,55
2,68,80,0
2,71,86,0
2,61,83,53
2,66,100,0
2,70,91,0
2,61,47,61
2,66,68,0
2,70,68,0
2,61,59,55
2,66,63,0
2,70,63,0
2,61,59,60
2,66,68,0
2,70,65,0
2,61,63,55
2,66,73,0
2,70,68,0
2,61,59,55
2,66,68,0
2,70,68,0
2,61,63,56
2,66,71,0
2,70,68,0
2,61,63,53
2,66,76,0
2,70,65,0
2,61,50,52
2,66,65,0
2,70,59,0
2,64,83,58
2,69,101,0
2,73,68,0
2,64,67,58
2,69,81,0
2,73,63,0
2,64,71,55
2,69,83,0
2,73,63,0
2,64,71,52
2,69,75,0
2,73,63,0
2,64,77,50
2,68,83,0
2,71,86,0
2,64,68,52
2,68,71,0
2,71,79,0
2,64,77,55
2,68,80,0
2,71,86,0
2,61,83,53
2,66,100,0
2,70,91,0
2,61,47,61
2,66,68,0
2,70,68,0
2,61,59,55
2,66,63,0
2,70,63,0
2,61,59,60
2,66,68,0
2,70,65,0
2,61,63,55
2,66,73,0
2,70,68,0
2,61,59,55
2,66,68,0
2,70,68,0
2,61,63,56
2,66,71,0
2,70,68,0
2,61,63,53
2,66,76,0
2,70,65,0
2,61,50,52
2,66,65,0
2,70,59,0
2,64,83,58
2,69,101,0
2,73,68,0
2,64,67,58
2,69,81,0
2,73,63,0
2,64,71,55
2,69,83,0
2,73,63,0
2,64,71,52
2,69,75,0
2,73,63,0
2,64,77,50
2,68,83,0
2,71,86,0
2,64,68,52
2,68,71,0
2,71,79,0
2,71,86,55
2,45,127,1707
2,52,127,0
2,57,127,0
3,33,117,2304
3,33,113,36
3,33,117,205
3,33,108,44
3,40,117,47
3,33,117,53
3,33,117,45
3,33,117,199
3,33,117,47
3,40,127,55
3,33,117,68
3,33,122,44
3,37,127,199
3,33,108,0
3,35,127,96
3,30,110,64
3,33,104,96
3,35,122,5
3,37,100,4
3,37,95,34
3,33,127,2
3,35,127,15
3,30,100,192
3,33,108,90
3,35,113,92
3,38,127,0
3,38,127,60
3,28,127,87
3,40,127,0
3,28,127,28
3,40,127,12
3,38,127,21
3,45,127,5
3,48,127,96
3,45,127,79
3,38,127,84
3,45,127,7
3,48,127,96
3,45,127,92
3,33,127,21
3,45,127,6023
3,45,127,66
3,40,122,0
3,45,117,2
3,44,110,2
3,44,127,72
3,40,113,96
3,44,110,5
3,42,110,5
3,42,127,63
3,40,108,8
3,42,104,48
3,42,110,63
3,40,117,10
3,42,110,48
3,42,110,63
3,40,117,13
3,42,110,2
3,40,117,12
3,42,127,0
3,45,127,56
3,45,127,66
3,40,122,0
3,45,117,2
3,44,110,2
3,44,127,72
3,40,113,96
3,44,110,5
3,42,127,5
3,42,110,80
3,42,127,21
3,42,127,76
3,37,127,18
3,37,110,80
3,40,127,23
3,40,127,53
3,35,127,63
3,35,127,68
3,30,104,12
3,35,127,96
3,37,127,63
3,37,127,68
3,32,127,66
3,32,110,45
3,38,127,50
3,38,127,50
3,35,127,74
3,38,127,10
3,40,127,7
3,40,122,34
3,37,110,23
3,40,113,5
3,33,127,96
3,38,127,229
3,38,127,40
3,38,127,40
3,38,127,39
3,33,127,36
3,33,117,48
3,37,110,34
3,40,113,34
3,45,117,31
3,45,104,42
3,45,97,40
3,45,108,44
3,33,127,37
3,33,127,69
3,28,108,12
3,33,122,10
3,32,110,12
3,32,127,72
3,40,127,96
3,30,127,13
3,30,110,71
3,28,101,5
3,30,110,96
3,30,127,69
3,30,110,69
3,28,113,10
3,30,127,96
3,33,127,56
3,33,127,69
3,28,108,12
3,33,122,10
3,32,110,12
3,32,127,72
3,40,127,96
3,30,127,13
3,30,110,71
3,28,101,5
3,30,110,96
3,30,127,69
3,30,110,69
3,28,113,10
3,30,127,96
3,33,117,56
3,33,113,36
3,33,117,205
3,33,108,44
3,40,117,47
3,33,117,53
3,33,117,45
3,33,117,199
3,33,117,47
3,40,127,55
3,33,117,68
3,33,122,44
3,37,127,199
3,33,108,0
3,35,127,96
3,30,91,64
3,33,83,0
3,35,79,0
3,37,95,0
3,33,104,0
3,35,117,0
3,38,127,185
3,33,117,5
3,33,113,36
3,33,117,205
3,33,108,44
3,40,117,47
3,33,117,53
3,33,117,45
3,33,117,199
3,33,117,47
3,40,127,55
3,33,117,68
3,33,122,44
3,37,127,199
3,33,108,0
3,35,127,96
3,30,110,64
3,33,104,96
3,35,122,5
3,37,100,4
3,37,95,34
3,33,127,2
3,35,127,15
3,30,100,192
3,33,108,90
3,35,113,92
3,38,127,0
3,38,127,60
3,28,127,87
3,40,127,0
3,28,127,28
3,40,127,12
3,38,127,21
3,45,127,5
3,48,127,96
3,45,127,79
3,38,127,84
3,45,127,7
3,48,127,96
3,45,127,92
3,33,127,21
3,33,127,69
3,28,108,12
3,33,122,10
3,32,110,12
3,32,127,72
3,40,127,96
3,30,127,13
3,30,110,71
3,28,101,5
3,30,110,96
3,30,127,69
3,30,110,69
3,28,113,10
3,30,127,96
3,33,127,56
3,33,127,69
3,28,108,12
3,33,122,10
3,32,110,12
3,32,127,72
3,40,127,96
3,30,127,13
3,30,110,71
3,28,101,5
3,30,110,96
3,30,127,69
3,30,110,69
3,28,113,10
3,30,127,96
3,45,127,56
3,45,127,66
3,40,122,0
3,45,117,2
3,44,110,2
3,44,127,72
3,40,113,96
3,44,110,5
3,42,110,5
3,42,127,63
3,40,108,8
3,42,104,48
3,42,110,63
3,40,117,10
3,42,110,48
3,42,110,63
3,40,117,13
3,42,110,2
3,40,117,12
3,42,127,0
3,45,127,56
3,45,127,66
3,40,122,0
3,45,117,2
3,44,110,2
