track,note,velocity,time
1,69,127,14140
1,73,100,0
1,76,68,0
1,69,113,116
1,73,91,0
1,76,58,0
1,69,122,126
1,73,100,0
1,76,66,0
1,69,113,120
1,73,91,0
1,76,60,0
1,68,104,120
1,73,100,0
1,76,59,0
1,68,100,116
1,73,95,0
1,76,54,0
1,68,95,122
1,73,83,0
1,76,53,0
1,66,127,112
1,73,104,0
1,76,73,0
1,66,91,100
1,73,80,0
1,70,68,12
1,66,87,128
1,73,83,0
1,70,55,18
1,66,91,118
1,73,83,0
1,70,61,16
1,66,95,112
1,73,87,0
1,70,61,6
1,66,91,116
1,73,80,0
1,70,57,2
1,66,91,118
1,73,87,0
1,70,59,2
1,70,61,114
1,66,95,6
1,73,87,0
1,70,65,122
1,66,110,6
1,73,110,0
1,69,127,16
1,73,100,0
1,76,68,0
1,69,113,116
1,73,91,0
1,76,58,0
1,69,122,126
1,73,100,0
1,76,66,0
1,69,113,120
1,73,91,0
1,76,60,0
1,68,104,120
1,73,100,0
1,76,59,0
1,68,100,116
1,73,95,0
1,76,54,0
1,68,95,122
1,73,83,0
1,76,53,0
1,66,127,112
1,73,104,0
1,76,73,0
1,66,91,100
1,73,80,0
1,70,68,26
1,66,87,128
1,73,83,0
1,70,71,16
1,66,91,128
1,73,83,0
1,70,65,10
1,66,95,132
1,73,87,0
1,70,65,2
1,66,91,136
1,70,63,0
1,73,80,0
1,70,59,134
1,66,91,4
1,73,87,0
1,66,95,132
1,70,61,0
1,73,87,0
1,66,110,136
1,73,110,0
1,70,65,6
1,66,80,16
1,71,104,0
1,74,101,0
1,66,76,120
1,71,104,0
1,74,104,0
1,66,80,110
1,71,104,0
1,74,94,0
1,66,83,116
1,71,94,0
1,74,94,0
1,65,91,100
1,68,104,0
1,73,95,0
1,65,70,110
1,68,71,0
1,73,68,0
1,65,94,106
1,68,100,0
1,62,86,104
1,66,87,0
1,69,88,0
1,62,73,110
1,66,73,0
1,69,77,0
1,74,86,0
1,62,73,106
1,66,73,0
1,69,75,0
1,74,64,0
1,62,75,106
1,66,76,0
1,69,83,0
1,74,73,0
1,62,71,112
1,66,76,0
1,69,79,0
1,74,67,0
1,62,77,112
1,66,80,0
1,69,83,0
1,74,77,0
1,62,68,104
1,66,68,0
1,69,73,0
1,74,79,0
1,62,75,104
1,66,76,0
1,69,79,0
1,74,81,0
1,62,77,96
1,66,73,0
1,69,79,0
1,74,79,0
1,69,122,100
1,73,104,0
1,76,117,0
1,69,97,128
1,73,91,0
1,76,88,0
1,69,97,136
1,73,87,0
1,76,91,0
1,69,83,126
1,73,76,0
1,76,79,0
1,66,95,100
1,69,117,0
1,74,104,0
1,66,61,106
1,69,83,0
1,74,81,0
1,66,63,106
1,69,86,0
1,74,88,0
1,69,117,106
1,73,95,0
1,76,101,0
1,69,94,112
1,73,76,0
1,76,91,0
1,69,81,120
1,73,63,0
1,76,75,0
1,69,83,116
1,73,71,0
1,76,83,0
1,69,88,112
1,73,80,0
1,76,88,0
1,69,88,122
1,73,71,0
1,76,83,0
1,69,81,126
1,73,68,0
1,76,77,0
1,69,91,116
1,73,76,0
1,76,88,0
1,69,94,122
1,73,80,0
1,76,91,0
1,64,83,12408
1,69,101,0
1,73,68,0
1,64,67,116
1,69,81,0
1,73,63,0
1,64,71,110
1,69,83,0
1,73,63,0
1,64,71,104
1,69,75,0
1,73,63,0
1,64,77,100
1,68,83,0
1,71,86,0
1,64,68,104
1,68,71,0
1,71,79,0
1,64,77,110
1,68,80,0
1,71,86,0
1,61,83,106
1,66,100,0
1,70,91,0
1,61,47,122
1,66,68,0
1,70,68,0
1,61,59,110
1,66,63,0
1,70,63,0
1,61,59,120
1,66,68,0
1,70,65,0
1,61,63,110
1,66,73,0
1,70,68,0
1,61,59,110
1,66,68,0
1,70,68,0
1,61,63,112
1,66,71,0
1,70,68,0
1,61,63,106
1,66,76,0
1,70,65,0
1,61,50,104
1,66,65,0
1,70,59,0
1,64,83,116
1,69,101,0
1,73,68,0
1,64,67,116
1,69,81,0
1,73,63,0
1,64,71,110
1,69,83,0
1,73,63,0
1,64,71,104
1,69,75,0
1,73,63,0
1,64,77,100
1,68,83,0
1,71,86,0
1,64,68,104
1,68,71,0
1,71,79,0
1,64,77,110
1,68,80,0
1,71,86,0
1,61,83,106
1,66,100,0
1,70,91,0
1,61,47,122
1,66,68,0
1,70,68,0
1,61,59,110
1,66,63,0
1,70,63,0
1,61,59,120
1,66,68,0
1,70,65,0
1,61,63,110
1,66,73,0
1,70,68,0
1,61,59,110
1,66,68,0
1,70,68,0
1,61,63,112
1,66,71,0
1,70,68,0
1,61,63,106
1,66,76,0
1,70,65,0
1,61,50,104
1,66,65,0
1,70,59,0
1,64,83,18548
1,69,101,0
1,73,68,0
1,64,67,116
1,69,81,0
1,73,63,0
1,64,71,110
1,69,83,0
1,73,63,0
1,64,71,104
1,69,75,0
1,73,63,0
1,64,77,100
1,68,83,0
1,71,86,0
1,64,68,104
1,68,71,0
1,71,79,0
1,64,77,110
1,68,80,0
1,71,86,0
1,61,83,106
1,66,100,0
1,70,91,0
1,61,47,122
1,66,68,0
1,70,68,0
1,61,59,110
1,66,63,0
1,70,63,0
1,61,59,120
1,66,68,0
1,70,65,0
1,61,63,110
1,66,73,0
1,70,68,0
1,61,59,110
1,66,68,0
1,70,68,0
1,61,63,112
1,66,71,0
1,70,68,0
1,61,63,106
1,66,76,0
1,70,65,0
1,61,50,104
1,66,65,0
1,70,59,0
1,64,83,116
1,69,101,0
1,73,68,0
1,64,67,116
1,69,81,0
1,73,63,0
1,64,71,110
1,69,83,0
1,73,63,0
1,64,71,104
1,69,75,0
1,73,63,0
1,64,77,100
1,68,83,0
1,71,86,0
1,64,68,104
1,68,71,0
1,71,79,0
1,64,77,110
1,68,80,0
1,71,86,0
1,61,83,106
1,66,100,0
1,70,91,0
1,61,47,122
1,66,68,0
1,70,68,0
1,61,59,110
1,66,63,0
1,70,63,0
1,61,59,120
1,66,68,0
1,70,65,0
1,61,63,110
1,66,73,0
1,70,68,0
1,61,59,110
1,66,68,0
1,70,68,0
1,61,63,112
1,66,71,0
1,70,68,0
1,61,63,106
1,66,76,0
1,70,65,0
1,61,50,104
1,66,65,0
1,70,59,0
1,64,83,12404
1,69,101,0
1,73,68,0
1,64,67,116
1,69,81,0
1,73,63,0
1,64,71,110
1,69,83,0
1,73,63,0
1,64,71,104
1,69,75,0
1,73,63,0
1,64,77,100
1,68,83,0
1,71,86,0
1,64,68,104
1,68,71,0
1,71,79,0
1,64,77,110
1,68,80,0
1,71,86,0
1,61,83,106
1,66,100,0
1,70,91,0
1,61,47,122
1,66,68,0
1,70,68,0
1,61,59,110
1,66,63,0
1,70,63,0
1,61,59,120
1,66,68,0
1,70,65,0
1,61,63,110
1,66,73,0
1,70,68,0
1,61,59,110
1,66,68,0
1,70,68,0
1,61,63,112
1,66,71,0
1,70,68,0
1,61,63,106
1,66,76,0
1,70,65,0
1,61,50,104
1,66,65,0
1,70,59,0
1,64,83,116
1,69,101,0
1,73,68,0
1,64,67,116
1,69,81,0
1,73,63,0
1,64,71,110
1,69,83,0
1,73,63,0
1,64,71,104
1,69,75,0
1,73,63,0
1,64,77,100
1,68,83,0
1,71,86,0
1,64,68,104
1,68,71,0
1,71,79,0
1,64,77,110
1,68,80,0
1,71,86,0
1,61,83,106
1,66,100,0
1,70,91,0
1,61,47,122
1,66,68,0
1,70,68,0
1,61,59,110
1,66,63,0
1,70,63,0
1,61,59,120
1,66,68,0
1,70,65,0
1,61,63,110
1,66,73,0
1,70,68,0
1,61,59,110
1,66,68,0
1,70,68,0
1,61,63,112
1,66,71,0
1,70,68,0
1,61,63,106
1,66,76,0
1,70,65,0
1,61,50,104
1,66,65,0
1,70,59,0
1,64,127,18548
1,69,127,0
1,73,127,0
1,64,127,128
1,69,127,0
1,73,110,0
1,64,127,136
1,69,127,0
1,73,110,0
1,64,127,122
1,69,127,0
1,73,110,0
1,64,127,126
1,68,110,0
1,71,101,0
1,64,127,126
1,68,110,0
1,71,122,0
1,64,127,126
1,68,110,0
1,71,117,0
1,61,127,112
1,66,127,0
1,70,110,0
1,61,110,110
1,66,95,0
1,70,87,0
1,61,104,122
1,66,110,0
1,70,100,0
1,61,100,128
1,66,104,0
1,70,100,0
1,61,104,122
1,66,110,0
1,70,104,0
1,61,104,126
1,66,104,0
1,70,104,0
1,61,104,122
1,66,104,0
1,70,104,0
1,61,104,122
1,66,104,0
1,70,104,0
1,61,110,126
1,66,127,0
1,70,110,0
1,64,127,128
1,69,127,0
1,73,127,0
1,64,127,128
1,69,127,0
1,73,110,0
1,64,127,136
1,69,127,0
1,73,110,0
1,64,127,122
1,69,127,0
1,73,110,0
1,64,127,126
1,68,110,0
1,71,101,0
1,64,127,126
1,68,110,0
1,71,122,0
1,64,127,126
1,68,110,0
1,71,117,0
1,61,127,112
1,66,127,0
1,70,110,0
1,61,110,110
1,66,95,0
1,70,87,0
1,61,104,122
1,66,110,0
1,70,100,0
1,61,100,128
1,66,104,0
1,70,100,0
1,61,104,122
1,66,110,0
1,70,104,0
1,61,104,126
1,66,104,0
1,70,104,0
1,61,104,122
1,66,104,0
1,70,104,0
1,61,104,122
1,66,104,0
1,70,104,0
1,61,110,126
1,66,127,0
1,70,110,0
1,64,83,24704
1,69,101,0
1,73,68,0
1,64,67,116
1,69,81,0
1,73,63,0
1,64,71,110
1,69,83,0
1,73,63,0
1,64,71,104
1,69,75,0
1,73,63,0
1,64,77,100
1,68,83,0
1,71,86,0
1,64,68,104
1,68,71,0
1,71,79,0
1,64,77,110
1,68,80,0
1,71,86,0
1,61,83,106
1,66,100,0
1,70,91,0
1,61,47,122
1,66,68,0
1,70,68,0
1,61,59,110
1,66,63,0
1,70,63,0
1,61,59,120
1,66,68,0
1,70,65,0
1,61,63,110
1,66,73,0
1,70,68,0
1,61,59,110
1,66,68,0
1,70,68,0
1,61,63,112
1,66,71,0
1,70,68,0
1,61,63,106
1,66,76,0
1,70,65,0
1,61,50,104
1,66,65,0
1,70,59,0
1,64,83,116
1,69,101,0
1,73,68,0
1,64,67,116
1,69,81,0
1,73,63,0
1,64,71,110
1,69,83,0
1,73,63,0
1,64,71,104
1,69,75,0
1,73,63,0
1,64,77,100
1,68,83,0
1,71,86,0
1,64,68,104
1,68,71,0
1,71,79,0
1,64,77,110
1,68,80,0
1,71,86,0
1,61,83,106
1,66,100,0
1,70,91,0
1,61,47,122
1,66,68,0
1,70,68,0
1,61,59,110
1,66,63,0
1,70,63,0
1,61,59,120
1,66,68,0
1,70,65,0
1,61,63,110
1,66,73,0
1,70,68,0
1,61,59,110
1,66,68,0
1,70,68,0
1,61,63,112
1,66,71,0
1,70,68,0
1,61,63,106
1,66,76,0
1,70,65,0
1,61,50,104
1,66,65,0
1,70,59,0
1,64,83,116
1,69,101,0
1,73,68,0
1,64,67,116
1,69,81,0
1,73,63,0
1,64,71,110
1,69,83,0
1,73,63,0
1,64,71,104
1,69,75,0
1,73,63,0
1,64,77,100
1,68,83,0
1,71,86,0
1,64,68,104
1,68,71,0
1,71,79,0
1,64,77,110
1,68,80,0
1,71,86,0
1,61,83,106
1,66,100,0
1,70,91,0
1,61,47,122
1,66,68,0
1,70,68,0
1,61,59,110
1,66,63,0
1,70,63,0
1,61,59,120
1,66,68,0
1,70,65,0
1,61,63,110
1,66,73,0
1,70,68,0
1,61,59,110
1,66,68,0
1,70,68,0
1,61,63,112
1,66,71,0
1,70,68,0
1,61,63,106
1,66,76,0
1,70,65,0
1,61,50,104
1,66,65,0
1,70,59,0
1,64,83,116
1,69,101,0
1,73,68,0
1,64,67,116
1,69,81,0
1,73,63,0
1,64,71,110
1,69,83,0
1,73,63,0
1,64,71,104
1,69,75,0
1,73,63,0
1,64,77,100
1,68,83,0
1,71,86,0
1,64,68,104
1,68,71,0
1,71,79,0
1,71,86,110
1,45,127,3414
1,52,127,0
1,57,127,0
2,33,117,4608
2,33,113,72
2,33,117,410
2,33,108,88
2,40,117,94
2,33,117,106
2,33,117,90
2,33,117,398
2,33,117,94
2,40,127,110
2,33,117,136
2,33,122,88
2,37,127,398
2,33,108,0
2,35,127,192
2,30,110,128
2,33,104,192
2,35,122,10
2,37,100,8
2,37,95,68
2,33,127,4
2,35,127,30
2,30,100,384
2,33,108,180
2,35,113,184
2,38,127,0
2,38,127,120
2,28,127,174
2,40,127,0
2,28,127,56
2,40,127,24
2,38,127,42
2,45,127,10
2,48,127,192
2,45,127,158
2,38,127,168
2,45,127,14
2,48,127,192
2,45,127,184
2,33,127,42
2,45,127,12046
2,45,127,132
2,40,122,0
2,45,117,4
2,44,110,4
2,44,127,144
2,40,113,192
2,44,110,10
2,42,110,10
2,42,127,126
2,40,108,16
2,42,104,96
2,42,110,126
2,40,117,20
2,42,110,96
2,42,110,126
2,40,117,26
2,42,110,4
2,40,117,24
2,42,127,0
2,45,127,112
2,45,127,132
2,40,122,0
2,45,117,4
2,44,110,4
2,44,127,144
2,40,113,192
2,44,110,10
2,42,127,10
2,42,110,160
2,42,127,42
2,42,127,152
2,37,127,36
2,37,110,160
2,40,127,46
2,40,127,106
2,35,127,126
2,35,127,136
2,30,104,24
2,35,127,192
2,37,127,126
2,37,127,136
2,32,127,132
2,32,110,90
2,38,127,100
2,38,127,100
2,35,127,148
2,38,127,20
2,40,127,14
2,40,122,68
2,37,110,46
2,40,113,10
2,33,127,192
2,38,127,458
2,38,127,80
2,38,127,80
2,38,127,78
2,33,127,72
2,33,117,96
2,37,110,68
2,40,113,68
2,45,117,62
2,45,104,84
2,45,97,80
2,45,108,88
2,33,127,74
2,33,127,138
2,28,108,24
2,33,122,20
2,32,110,24
2,32,127,144
2,40,127,192
2,30,127,26
2,30,110,142
2,28,101,10
2,30,110,192
2,30,127,138
2,30,110,138
2,28,113,20
2,30,127,192
2,33,127,112
2,33,127,138
2,28,108,24
2,33,122,20
2,32,110,24
2,32,127,144
2,40,127,192
2,30,127,26
2,30,110,142
2,28,101,10
2,30,110,192
2,30,127,138
2,30,110,138
2,28,113,20
2,30,127,192
2,33,117,112
2,33,113,72
2,33,117,410
2,33,108,88
2,40,117,94
2,33,117,106
2,33,117,90
2,33,117,398
2,33,117,94
2,40,127,110
2,33,117,136
2,33,122,88
2,37,127,398
2,33,108,0
2,35,127,192
2,30,91,128
2,33,83,0
2,35,79,0
2,37,95,0
2,33,104,0
2,35,117,0
2,38,127,370
2,33,117,10
2,33,113,72
2,33,117,410
2,33,108,88
2,40,117,94
2,33,117,106
2,33,117,90
2,33,117,398
2,33,117,94
2,40,127,110
2,33,117,136
2,33,122,88
2,37,127,398
2,33,108,0
2,35,127,192
2,30,110,128
2,33,104,192
2,35,122,10
2,37,100,8
2,37,95,68
2,33,127,4
2,35,127,30
2,30,100,384
2,33,108,180
2,35,113,184
2,38,127,0
2,38,127,120
2,28,127,174
2,40,127,0
2,28,127,56
2,40,127,24
2,38,127,42
2,45,127,10
2,48,127,192
2,45,127,158
2,38,127,168
2,45,127,14
2,48,127,192
2,45,127,184
2,33,127,42
2,33,127,138
2,28,108,24
2,33,122,20
2,32,110,24
2,32,127,144
2,40,127,192
2,30,127,26
2,30,110,142
2,28,101,10
2,30,110,192
2,30,127,138
2,30,110,138
2,28,113,20
2,30,127,192
2,33,127,112
2,33,127,138
2,28,108,24
2,33,122,20
2,32,110,24
2,32,127,144
2,40,127,192
2,30,127,26
2,30,110,142
2,28,101,10
2,30,110,192
2,30,127,138
2,30,110,138
2,28,113,20
2,30,127,192
2,45,127,112
2,45,127,132
2,40,122,0
2,45,117,4
2,44,110,4
2,44,127,144
2,40,113,192
2,44,110,10
2,42,110,10
2,42,127,126
2,40,108,16
2,42,104,96
2,42,110,126
2,40,117,20
2,42,110,96
2,42,110,126
2,40,117,26
2,42,110,4
2,40,117,24
2,42,127,0
2,45,127,112
2,45,127,132
2,40,122,0
2,45,117,4
2,44,110,4
