track,note,velocity,time
0,40,92,1056
0,40,95,92
0,40,96,92
0,40,96,92
0,40,104,92
0,40,109,92
0,38,99,52
0,45,98,0
0,36,109,8
0,42,107,0
0,39,113,0
0,39,91,0
0,46,93,0
0,42,89,188
0,36,109,124
0,40,106,0
0,42,98,0
0,39,110,0
0,42,84,188
0,36,108,124
0,42,99,0
0,39,112,0
0,42,85,188
0,36,104,124
0,40,100,0
0,42,98,0
0,39,112,0
0,42,89,188
0,36,107,96
0,42,96,0
0,39,117,0
0,42,85,188
0,36,100,124
0,40,101,0
0,42,97,0
0,39,112,0
0,42,85,188
0,36,102,124
0,42,98,0
0,39,116,0
0,42,80,188
0,36,106,124
0,40,101,0
0,42,90,0
0,39,112,0
0,42,85,112
0,45,94,56
0,38,99,0
0,36,104,8
0,42,92,0
0,39,118,0
0,39,95,0
0,46,99,0
0,42,82,188
0,36,109,124
0,40,104,0
0,42,97,0
0,39,120,0
0,42,82,188
0,36,102,124
0,42,94,0
0,39,114,0
0,42,83,188
0,36,108,124
0,40,105,0
0,42,90,0
0,39,115,0
0,42,87,188
0,36,106,96
0,42,98,0
0,39,110,0
0,42,89,188
0,36,109,124
0,40,105,0
0,42,98,0
0,39,121,0
0,42,80,188
0,36,101,124
0,42,97,0
0,39,115,0
0,40,102,188
0,42,83,0
0,40,100,28
0,36,101,92
0,40,101,0
0,42,92,0
0,39,116,0
0,40,100,92
0,40,100,92
0,42,89,0
0,40,102,16
0,45,98,56
0,38,92,0
0,36,104,4
0,49,105,0
0,51,71,0
0,39,116,0
0,39,95,0
0,46,91,0
0,63,117,0
0,51,76,20
0,65,117,0
0,40,100,20
0,51,75,0
0,54,94,0
0,63,75,0
0,58,79,0
0,55,71,0
0,63,111,0
0,36,107,20
0,51,79,0
0,65,112,0
0,36,100,20
0,51,73,0
0,39,111,0
0,67,112,0
0,51,74,20
0,65,112,0
0,40,101,20
0,51,78,0
0,54,92,0
0,58,75,0
0,55,75,0
0,63,70,0
0,63,121,0
0,51,73,44
0,58,120,0
0,36,109,16
0,51,73,0
0,36,121,0
0,43,91,0
0,36,92,0
0,60,116,0
0,51,76,188
0,40,103,20
0,51,75,0
0,54,99,0
0,36,115,0
0,60,70,0
0,55,79,0
0,63,73,0
0,58,119,0
0,36,105,20
0,51,73,0
0,60,115,0
0,36,102,124
0,51,79,0
0,51,75,16
0,34,119,0
0,34,93,0
0,46,98,0
0,63,120,0
0,62,111,8
0,40,109,12
0,51,78,0
0,54,90,0
0,36,113,0
0,60,77,0
0,55,77,0
0,63,70,0
0,36,93,0
0,48,95,0
0,60,121,8
0,51,75,12
0,38,111,0
0,50,95,0
0,38,98,0
0,58,117,0
0,36,102,20
0,51,72,0
0,39,116,0
0,51,97,0
0,39,93,0
0,51,79,108
0,70,87,0
0,63,87,0
0,67,85,0
0,70,95,0
0,63,92,0
0,67,93,0
0,40,105,8
0,51,70,0
0,54,92,0
0,58,78,0
0,63,76,0
0,55,70,0
0,63,83,0
0,67,86,0
0,70,85,0
0,63,91,0
0,67,92,0
0,70,90,0
0,36,105,104
0,51,78,0
0,36,102,188
0,51,73,0
0,39,121,0
0,63,89,0
0,70,83,0
0,67,89,0
0,63,93,0
0,70,94,0
0,67,95,0
0,51,77,8
0,70,81,0
0,63,84,0
0,67,86,0
0,70,93,0
0,63,92,0
0,67,90,0
0,40,104,104
0,51,79,0
0,54,92,0
0,58,76,0
0,63,73,0
0,55,74,0
0,51,74,108
0,72,80,0
0,63,82,0
0,67,84,0
0,72,95,0
0,63,98,0
0,67,97,0
0,36,109,188
0,51,79,0
0,36,116,0
0,51,72,104
0,63,89,0
0,72,85,0
0,67,87,0
0,63,92,0
0,72,92,0
0,67,91,0
0,40,105,104
0,51,72,0
0,54,98,0
0,36,119,0
0,60,75,0
0,55,76,0
0,63,79,0
0,63,83,0
0,72,88,0
0,67,82,0
0,63,93,0
0,72,92,0
0,67,93,0
0,36,106,8
0,51,71,0
0,63,83,0
0,67,80,0
0,72,85,0
0,63,99,0
0,67,93,0
0,72,95,0
0,36,108,104
0,51,73,0
0,72,82,0
0,67,87,0
0,63,81,0
0,72,95,0
0,67,93,0
0,63,95,0
0,51,74,188
0,34,118,0
0,40,108,20
0,51,77,0
0,54,98,0
0,36,120,0
0,60,71,0
0,55,77,0
0,63,78,0
0,72,87,0
0,63,85,0
0,67,84,0
0,72,97,0
0,63,94,0
0,67,99,0
0,51,72,20
0,38,111,0
0,58,118,0
0,45,90,152
0,38,95,0
0,36,107,0
0,51,77,0
0,39,112,0
0,46,91,0
0,39,91,0
0,63,121,0
0,51,71,20
0,65,120,0
0,40,102,20
0,51,79,0
0,54,98,0
0,58,76,0
0,63,76,0
0,55,72,0
0,63,112,0
0,36,100,20
0,51,73,0
0,65,114,0
0,36,106,20
0,51,77,0
0,39,110,0
0,67,121,0
0,51,74,20
0,65,117,0
0,40,102,20
0,51,70,0
0,54,98,0
0,58,73,0
0,63,71,0
0,55,75,0
0,63,118,0
0,51,73,20
0,58,120,0
0,36,104,16
0,51,76,0
0,36,113,0
0,36,99,0
0,43,95,0
0,60,117,0
0,51,71,108
0,60,114,0
0,40,108,20
0,51,79,0
0,54,94,0
0,36,111,0
0,60,76,0
0,55,74,0
0,63,70,0
0,58,121,0
0,36,103,20
0,51,72,0
0,60,121,0
0,36,105,124
0,51,75,0
0,51,73,16
0,34,117,0
0,46,94,0
0,34,97,0
0,63,121,0
0,40,105,20
0,51,76,0
0,54,99,0
0,36,114,0
0,60,77,0
0,55,75,0
0,63,79,0
0,48,90,0
0,36,98,0
0,60,112,8
0,51,76,12
0,38,114,0
0,50,94,0
0,38,90,0
0,58,110,0
0,36,107,20
0,51,79,0
0,39,115,0
0,51,95,0
0,39,97,0
0,51,70,108
0,63,80,0
0,70,87,0
0,67,85,0
0,63,98,0
0,70,96,0
0,67,98,0
0,40,109,8
0,51,78,0
0,54,90,0
0,58,74,0
0,63,70,0
0,55,76,0
0,63,81,0
0,70,86,0
0,67,80,0
0,63,91,0
0,70,95,0
0,67,96,0
0,36,109,104
0,51,73,0
0,36,102,188
0,51,70,0
0,39,113,0
0,70,82,0
0,63,88,0
0,67,81,0
0,70,90,0
0,63,98,0
0,67,99,0
0,51,78,8
0,67,81,0
0,70,88,0
0,63,80,0
0,67,99,0
0,70,90,0
0,63,96,0
0,40,107,104
0,51,76,0
0,54,90,0
0,55,78,0
0,58,70,0
0,63,77,0
0,51,72,108
0,72,81,0
0,67,81,0
0,63,80,0
0,72,95,0
0,67,98,0
0,63,91,0
0,36,102,188
0,51,76,0
0,36,113,0
0,51,70,104
0,67,83,0
0,72,87,0
0,63,89,0
0,67,93,0
0,72,93,0
0,63,93,0
0,40,105,104
0,51,71,0
0,54,97,0
0,36,118,0
0,60,71,0
0,55,74,0
0,63,70,0
0,63,87,0
0,67,82,0
0,72,82,0
0,63,93,0
0,67,93,0
0,72,99,0
0,36,102,8
0,51,78,0
0,63,84,0
0,67,87,0
0,72,87,0
0,63,96,0
0,67,91,0
0,72,93,0
0,36,102,104
0,51,79,0
0,63,87,0
0,67,88,0
0,72,83,0
0,63,96,0
0,67,98,0
0,72,90,0
0,51,77,188
0,34,117,0
0,40,103,20
0,51,70,0
0,54,99,0
0,36,112,0
0,60,77,0
0,55,79,0
0,63,77,0
0,72,89,0
0,63,86,0
0,67,80,0
0,72,98,0
0,63,92,0
0,67,91,0
0,40,102,104
0,51,79,0
0,63,115,0
0,36,108,20
0,51,79,0
0,44,118,0
0,60,68,0
0,63,68,0
0,68,60,0
0,48,91,0
0,44,97,0
0,51,92,0
0,68,113,0
0,51,77,20
0,70,110,0
0,40,101,20
0,51,70,0
0,54,98,0
0,60,79,0
0,56,73,0
0,63,77,0
0,68,111,0
0,36,101,20
0,51,76,0
0,70,111,0
0,36,109,20
0,51,78,0
0,39,121,0
0,72,120,0
0,51,79,20
0,70,118,0
0,40,107,20
0,51,71,0
0,54,92,0
0,60,78,0
0,56,77,0
0,63,78,0
0,68,116,0
0,51,79,20
0,63,118,0
0,36,100,20
0,51,78,0
0,41,121,0
0,65,67,0
0,68,62,0
0,60,61,0
0,53,92,0
0,44,90,0
0,48,94,0
0,65,115,0
0,51,77,108
0,65,116,0
0,40,107,20
0,51,79,0
0,54,93,0
0,41,113,0
0,65,79,0
0,60,73,0
0,56,73,0
0,63,117,0
0,36,105,20
0,51,71,0
0,36,118,0
0,65,112,0
0,36,106,20
0,51,78,0
0,41,117,0
0,51,70,20
0,41,115,0
0,40,102,20
0,51,71,0
0,54,93,0
0,36,114,0
0,65,73,0
0,60,72,0
0,56,74,0
0,51,76,108
0,63,111,0
0,36,104,20
0,51,74,0
0,44,121,0
0,63,68,0
0,60,66,0
0,68,63,0
0,44,93,0
0,48,93,0
0,51,96,0
0,68,120,0
0,51,71,20
0,70,111,0
0,40,105,20
0,51,78,0
0,54,92,0
0,60,74,0
0,63,73,0
0,56,75,0
0,68,113,0
0,36,108,20
0,51,75,0
0,70,114,0
0,36,106,20
0,51,72,0
0,39,113,0
0,72,110,0
0,51,72,20
0,70,115,0
0,40,103,20
0,51,75,0
0,54,98,0
0,60,79,0
0,63,70,0
0,56,77,0
0,68,118,0
0,51,71,20
0,63,116,0
0,36,101,20
0,51,78,0
0,41,113,0
0,69,60,0
0,63,68,0
0,65,64,0
0,60,62,0
0,48,93,0
0,53,95,0
0,45,94,0
0,67,117,0
0,51,74,20
0,65,117,0
0,40,105,124
0,51,75,0
0,54,95,0
0,41,113,0
0,60,73,0
0,63,75,0
0,57,79,0
0,36,101,20
0,51,78,0
0,36,111,0
0,65,112,0
0,36,105,20
0,51,75,0
0,41,114,0
0,51,72,20
0,41,117,0
0,40,106,20
0,51,78,0
0,54,91,0
0,36,114,0
0,57,73,0
0,60,77,0
0,63,74,0
0,40,100,108
0,51,77,0
0,63,114,0
0,36,105,20
0,51,70,0
0,39,115,0
0,67,65,0
0,58,69,0
0,63,62,0
0,72,117,0
0,51,71,20
0,70,110,0
0,40,105,20
0,51,79,0
0,54,92,0
0,63,79,0
0,58,77,0
0,55,72,0
0,36,102,108
0,51,74,0
0,67,110,0
0,36,103,20
0,51,73,0
0,39,116,0
0,63,121,0
0,51,72,20
0,40,104,124
0,51,76,0
0,54,96,0
0,63,75,0
0,58,70,0
0,55,78,0
0,65,116,0
0,51,71,108
0,36,100,64
0,51,70,0
0,46,119,0
0,68,69,0
0,58,66,0
0,62,69,0
0,41,93,0
0,50,99,0
0,46,90,0
0,51,72,20
0,65,121,0
0,40,104,20
0,51,75,0
0,54,91,0
0,46,116,0
0,62,77,0
0,56,79,0
0,53,72,0
0,67,117,0
0,36,109,20
0,51,75,0
0,41,112,0
0,65,116,0
0,36,103,20
0,51,77,0
0,46,116,0
0,67,118,0
0,51,70,20
0,46,117,0
0,65,118,0
0,40,102,20
0,51,77,0
0,54,97,0
0,41,121,0
0,62,79,0
0,53,75,0
0,56,79,0
0,67,121,0
0,40,106,20
0,51,78,0
0,65,113,0
0,40,103,28
0,38,113,32
0,36,106,16
0,51,79,0
0,39,110,0
0,58,62,0
0,67,69,0
0,63,68,0
0,38,94,0
0,39,96,0
0,63,112,0
0,51,71,12
0,36,105,124
0,40,102,0
0,51,79,0
0,54,96,0
0,39,121,0
0,63,71,0
0,55,79,0
0,58,75,0
0,51,71,108
0,36,106,124
0,51,78,0
0,39,113,0
0,51,70,188
0,63,119,0
0,36,104,20
0,40,102,0
0,51,70,0
0,54,91,0
0,39,113,0
0,55,71,0
0,63,71,0
0,58,79,0
0,67,121,0
0,51,72,20
0,70,119,0
0,36,103,20
0,51,75,0
0,39,115,0
0,72,118,0
0,51,71,188
0,36,107,116
0,40,107,0
0,51,75,0
0,54,95,0
0,39,118,0
0,55,75,0
0,58,74,0
0,63,70,0
0,70,115,0
0,51,76,108
0,36,107,116
0,51,70,0
0,39,114,0
0,67,119,0
0,51,71,188
0,36,105,116
0,40,109,0
0,51,74,0
0,54,94,0
0,39,119,0
0,63,76,0
0,55,78,0
0,58,76,0
0,63,117,0
0,36,104,108
0,51,75,0
0,43,117,84
0,36,100,12
0,51,71,0
0,44,119,0
0,68,62,0
0,63,60,0
0,60,60,0
0,43,91,0
0,44,93,0
0,51,72,108
0,36,100,124
0,40,100,0
0,51,74,0
0,54,95,0
0,44,112,0
0,60,70,0
0,56,78,0
0,63,70,0
0,51,73,108
0,36,109,124
0,51,70,0
0,44,117,0
0,51,76,188
0,66,113,0
0,36,102,20
0,40,109,0
0,51,71,0
0,54,93,0
0,44,118,0
0,60,77,0
0,56,70,0
0,63,70,0
0,65,112,0
0,51,71,20
0,60,113,0
0,36,105,20
0,51,74,0
0,44,116,0
0,63,120,0
0,51,76,20
0,65,114,0
0,36,107,108
0,40,102,0
0,51,77,0
0,54,90,0
0,44,111,0
0,60,70,0
0,56,78,0
0,63,77,0
0,51,71,108
0,36,102,124
0,51,78,0
0,44,121,0
0,51,77,188
0,36,107,124
0,40,106,0
0,51,70,0
0,54,91,0
0,44,111,0
0,60,76,0
0,56,72,0
0,63,78,0
0,72,111,0
0,36,107,20
0,51,71,0
0,70,116,0
0,38,115,80
0,36,101,12
0,51,75,0
0,39,110,0
0,58,63,0
0,67,65,0
0,63,66,0
0,38,90,0
0,39,93,0
0,51,76,108
0,36,100,124
0,40,108,0
0,51,73,0
0,54,90,0
0,39,120,0
0,55,76,0
0,63,79,0
0,58,75,0
0,51,75,108
0,36,109,124
0,51,73,0
0,39,119,0
0,51,77,188
0,36,104,124
0,40,109,0
0,51,77,0
0,54,96,0
0,39,119,0
0,63,72,0
0,55,78,0
0,58,79,0
0,65,112,0
0,51,76,20
0,63,111,0
0,36,103,20
0,51,71,0
0,39,114,0
0,51,70,188
0,36,100,124
0,40,109,0
0,51,70,0
0,54,98,0
0,39,111,0
0,55,73,0
0,63,74,0
0,58,71,0
0,51,79,108
0,36,102,124
0,51,71,0
0,39,121,0
0,51,78,188
0,63,119,0
0,36,100,20
0,40,101,0
0,51,75,0
0,54,98,0
0,39,118,0
0,63,75,0
0,55,73,0
0,58,70,0
0,67,115,0
0,36,109,20
0,51,76,0
0,70,117,0
0,45,99,12
0,45,118,68
0,36,104,12
0,51,75,0
0,46,120,0
0,68,61,0
0,62,60,0
0,58,69,0
0,65,64,0
0,46,95,0
0,72,116,0
0,51,79,188
0,36,101,116
0,40,100,0
0,51,75,0
0,54,98,0
0,46,115,0
0,62,75,0
0,56,72,0
0,53,74,0
0,70,110,0
0,51,79,108
0,36,101,116
0,51,76,0
0,46,111,0
0,70,117,0
0,51,76,188
0,36,103,116
0,40,108,0
0,51,78,0
0,54,96,0
0,46,113,0
0,62,78,0
0,53,78,0
0,56,76,0
0,67,112,0
0,51,70,20
0,70,112,0
0,36,105,112
0,51,72,0
0,46,113,0
0,46,94,0
0,51,76,20
0,46,116,0
0,46,95,0
0,72,116,0
0,36,107,16
0,40,104,0
0,51,73,0
0,54,95,0
0,44,116,0
0,62,75,0
0,56,72,0
0,53,77,0
0,44,94,0
0,51,74,108
0,44,111,0
0,44,98,0
0,36,108,16
0,51,78,0
0,43,119,0
0,43,98,0
0,67,110,0
0,40,106,20
0,51,73,0
0,43,113,0
0,43,97,0
0,63,113,0
0,40,109,92
0,36,101,16
0,40,106,0
0,51,74,0
0,54,97,0
0,41,115,0
0,62,75,0
0,56,77,0
0,53,71,0
0,41,97,0
0,65,113,0
0,40,109,12
0,40,100,92
0,51,77,0
0,41,121,0
0,41,93,0
0,40,102,16
0,36,100,16
0,51,74,0
0,49,106,0
0,39,119,0
0,39,99,0
0,51,98,0
0,63,117,0
0,51,77,20
0,65,120,0
0,40,102,20
0,51,77,0
0,54,98,0
0,58,77,0
0,55,73,0
0,63,75,0
0,63,110,0
0,36,106,20
0,51,75,0
0,65,119,0
0,36,109,20
0,51,76,0
0,34,121,0
0,67,121,0
0,51,75,20
0,65,117,0
0,40,104,20
