track,note,velocity,time
1,36,127,13824
1,38,127,0
1,42,127,0
1,49,127,0
1,36,127,480
1,38,127,0
1,42,127,0
1,38,125,112
1,42,127,0
1,36,127,128
1,38,121,0
1,42,127,0
1,36,127,112
1,38,127,0
1,42,127,0
1,36,127,480
1,38,127,0
1,42,127,0
1,36,127,304
1,38,127,0
1,42,127,0
1,36,127,304
1,38,127,0
1,42,127,0
1,36,127,112
1,38,127,0
1,42,127,0
1,36,127,304
1,38,127,0
1,42,127,0
1,36,127,480
1,38,127,0
1,42,127,0
1,36,127,304
1,38,127,0
1,42,127,0
1,36,127,112
1,38,127,0
1,42,127,0
1,36,127,480
1,38,127,0
1,42,127,0
1,36,127,288
1,38,127,0
1,42,127,0
1,36,127,128
1,38,127,0
1,42,127,0
1,36,127,112
1,38,127,0
1,42,127,0
1,36,127,112
1,38,127,0
1,42,127,0
1,38,127,96
1,38,127,0
1,36,127,144
1,42,127,0
1,42,127,0
1,49,127,0
1,42,127,96
1,42,127,48
1,38,127,48
1,42,127,0
1,36,99,0
1,42,127,0
1,36,127,128
1,42,127,0
1,42,127,0
1,38,127,144
1,42,127,0
1,42,127,144
1,36,127,144
1,42,127,0
1,42,127,64
1,42,127,64
1,38,127,48
1,42,127,0
1,36,123,0
1,42,127,0
1,36,127,128
1,42,127,0
1,42,127,48
1,38,127,144
1,42,127,0
1,44,127,160
1,36,127,144
1,42,127,0
1,42,127,48
1,42,127,64
1,38,127,48
1,42,127,0
1,36,111,144
1,42,127,0
1,36,127,128
1,42,127,0
1,42,127,160
1,38,127,144
1,42,127,0
1,42,127,160
1,36,127,160
1,42,127,0
1,42,127,48
1,42,127,64
1,38,127,32
1,42,127,0
1,36,97,144
1,42,127,0
1,36,127,112
1,42,127,0
1,42,127,144
1,38,127,160
1,42,127,0
1,44,127,128
1,36,127,144
1,42,127,0
1,42,127,16
1,42,127,48
1,38,127,48
1,42,127,0
1,36,117,16
1,42,127,0
1,36,127,112
1,42,127,0
1,42,127,16
1,38,127,160
1,42,127,0
1,42,127,128
1,36,127,144
1,42,127,0
1,42,127,48
1,42,127,48
1,38,127,32
1,42,127,0
1,36,127,144
1,42,127,0
1,36,127,112
1,42,127,0
1,42,127,32
1,38,127,128
1,42,127,0
1,44,127,48
1,36,127,144
1,42,127,0
1,42,127,48
1,42,127,48
1,38,127,32
1,42,127,0
1,36,127,144
1,42,127,0
1,36,127,96
1,42,127,0
1,42,127,144
1,38,127,144
1,42,127,0
1,42,127,144
1,36,127,160
1,42,127,0
1,42,127,16
1,42,127,64
1,38,127,48
1,42,127,0
1,36,99,16
1,42,127,0
1,36,127,128
1,42,127,0
1,42,127,160
1,38,127,160
1,42,127,0
1,44,127,16
1,36,127,144
1,42,127,0
1,42,127,144
1,42,127,32
1,38,127,48
1,42,127,0
1,36,115,16
1,42,127,0
1,36,127,112
1,42,127,0
1,42,127,144
1,38,127,144
1,42,127,0
1,42,127,16
1,36,127,160
1,42,127,0
1,42,127,0
1,42,127,64
1,38,127,48
1,42,127,0
1,36,109,0
1,42,127,0
1,36,127,96
1,42,127,0
1,42,127,160
1,38,127,112
1,42,127,0
1,44,127,0
1,36,127,144
1,42,127,0
1,42,127,0
1,42,127,48
1,38,127,32
1,42,127,0
1,36,113,0
1,42,127,0
1,36,127,112
1,42,127,0
1,42,127,0
1,38,127,144
1,42,127,0
1,42,127,112
1,36,127,144
1,42,127,0
1,42,127,16
1,42,127,64
1,38,127,48
1,42,127,0
1,36,103,0
1,42,127,0
1,36,127,128
1,44,119,0
1,42,127,0
1,38,127,128
1,42,127,0
1,42,127,48
1,36,127,128
1,42,127,0
1,42,127,32
1,42,127,64
1,38,127,48
1,42,127,0
1,36,103,32
1,42,127,0
1,36,127,112
1,42,127,0
1,42,127,0
1,38,127,128
1,42,127,0
1,44,121,0
1,36,127,144
1,42,127,0
1,42,127,0
1,42,127,64
1,38,127,64
1,42,127,0
1,36,113,80
1,42,127,0
1,36,127,112
1,42,127,0
1,42,127,0
1,38,127,144
1,42,127,0
1,42,127,112
1,36,127,160
1,38,127,0
1,42,127,0
1,49,127,0
1,36,127,400
1,38,127,0
1,42,127,0
1,36,127,112
1,38,119,0
1,42,127,0
1,36,127,112
1,38,121,0
1,42,127,0
1,36,127,128
1,38,121,0
1,42,127,0
1,36,127,496
1,38,117,0
1,42,127,0
1,36,127,320
1,38,115,0
1,42,127,0
1,36,127,304
1,38,111,0
1,42,127,0
1,36,127,144
1,38,125,0
1,42,127,0
1,36,127,320
1,38,127,0
1,42,127,0
1,36,127,496
1,38,121,0
1,42,127,0
1,36,127,288
1,38,111,0
1,42,127,0
1,36,127,128
1,38,127,0
1,42,127,0
1,36,127,512
1,38,127,0
1,42,127,0
1,36,127,304
1,38,113,0
1,42,127,0
1,36,127,128
1,38,119,0
1,42,127,0
1,36,127,128
1,38,117,0
1,42,127,0
1,36,127,128
1,38,127,0
1,42,127,0
1,44,127,128
1,36,127,160
1,42,127,0
1,49,127,0
1,42,127,96
1,42,127,48
1,38,127,32
1,42,127,0
1,36,127,144
1,42,127,0
1,36,127,32
1,42,127,0
1,42,127,0
1,38,127,144
1,42,127,0
1,42,127,16
1,36,127,160
1,42,127,0
1,42,127,32
1,42,127,64
1,38,127,48
1,42,127,0
1,36,105,0
1,42,127,0
1,36,127,112
1,42,127,0
1,42,127,16
1,38,127,144
1,42,127,0
1,44,127,0
1,36,127,128
1,42,127,0
1,42,127,48
1,42,127,64
1,38,127,64
1,42,127,0
1,36,97,16
1,42,127,0
1,36,127,112
1,42,127,0
1,42,127,0
1,38,127,144
1,42,127,0
1,42,127,0
1,36,127,144
1,42,127,0
1,42,127,32
1,42,127,64
1,38,127,32
1,42,127,0
1,36,109,16
1,42,127,0
1,36,127,128
1,42,127,0
1,42,127,144
1,38,127,112
1,42,127,0
1,44,127,160
1,36,127,128
1,42,127,0
1,42,127,48
1,42,127,64
1,38,127,64
1,42,127,0
1,36,127,16
1,42,127,0
1,36,127,128
1,42,127,0
1,42,127,32
1,38,127,128
1,42,127,0
1,42,127,0
1,36,127,128
1,42,127,0
1,42,127,48
1,42,127,48
1,38,127,48
1,42,127,0
1,36,113,48
1,42,127,0
1,36,127,112
1,42,127,0
1,42,127,160
1,38,127,128
1,42,127,0
1,44,127,16
1,36,127,128
1,42,127,0
1,42,127,160
1,42,127,48
1,38,127,32
1,42,127,0
1,36,127,0
1,42,127,0
1,36,127,112
1,42,127,0
1,42,127,0
1,38,127,128
1,42,127,0
1,42,127,16
1,36,127,128
1,42,127,0
1,42,127,64
1,42,127,64
1,38,127,32
1,42,127,0
1,36,127,16
1,42,127,0
1,36,127,112
1,42,127,0
1,42,127,128
1,38,127,112
1,42,127,0
1,44,127,0
1,36,127,128
1,42,127,0
1,42,127,0
1,42,127,48
1,38,127,48
1,42,127,0
1,36,105,0
1,42,127,0
1,36,127,112
1,42,127,0
1,42,127,160
1,38,127,128
1,42,127,0
1,42,127,16
1,36,127,128
1,42,127,0
1,42,127,0
1,42,127,48
1,38,127,48
1,42,127,0
1,36,107,16
1,42,127,0
1,36,127,112
1,42,127,0
1,42,127,144
1,38,127,112
1,42,127,0
1,42,127,0
1,36,127,128
1,42,127,0
1,42,127,32
1,42,127,64
1,38,127,48
1,42,127,0
1,36,111,160
1,42,127,0
1,36,127,128
1,42,127,0
1,42,127,160
1,38,127,128
1,42,127,0
1,42,127,16
1,36,127,144
1,42,127,0
1,42,127,48
1,42,127,64
1,38,127,48
1,42,127,0
1,36,109,0
1,42,127,0
1,36,127,112
1,42,127,0
1,42,127,144
1,38,127,96
1,42,127,0
1,44,125,144
1,36,127,128
1,42,127,0
1,42,127,32
1,42,127,48
1,38,127,48
1,42,127,0
1,36,121,32
1,42,127,0
1,36,127,112
1,42,127,0
1,42,127,16
1,38,127,128
1,42,127,0
1,42,127,16
1,36,127,144
1,42,127,0
1,42,127,48
1,42,127,64
1,38,127,48
1,42,127,0
1,36,127,144
1,42,127,0
1,36,127,128
1,42,127,0
1,42,127,32
1,38,127,112
1,42,127,0
1,44,123,16
1,36,127,128
1,38,127,0
1,42,127,0
1,49,127,0
1,36,127,496
1,38,125,0
1,42,127,0
1,36,127,96
1,38,109,0
1,42,127,0
1,36,127,96
1,38,109,0
1,42,127,0
1,36,127,96
1,38,111,0
1,42,127,0
1,36,127,448
1,38,127,0
1,42,127,0
1,36,127,304
1,38,125,0
1,42,127,0
1,36,113,272
1,38,121,0
1,42,127,0
1,36,127,112
1,38,125,0
1,42,127,0
1,36,127,256
1,38,125,0
1,42,127,0
1,49,127,0
1,36,127,480
1,38,127,0
1,42,127,0
1,36,125,192
1,38,109,0
1,42,127,0
1,36,127,128
1,38,121,0
1,42,127,0
1,36,127,480
1,38,125,0
1,42,127,0
1,36,111,304
1,38,93,0
1,42,127,0
1,36,127,112
1,38,115,0
1,42,127,0
1,36,127,128
1,38,125,0
1,42,127,0
1,36,127,112
1,38,127,0
1,42,127,0
1,44,127,112
1,36,127,160
1,42,127,0
1,49,127,0
1,42,127,16
1,42,127,64
1,38,127,48
1,42,127,0
1,42,127,176
1,36,127,144
1,42,127,0
1,42,127,96
1,38,127,128
1,42,127,0
1,42,127,48
1,36,127,144
1,42,127,0
1,42,127,112
1,38,127,128
1,42,127,0
1,36,81,16
1,42,127,0
1,36,127,112
1,42,127,0
1,42,127,16
1,38,127,128
1,42,127,0
1,42,127,0
1,36,127,128
1,42,127,0
1,42,127,0
1,38,127,144
1,42,127,0
1,42,127,0
1,36,127,128
1,42,127,0
1,42,127,48
1,38,127,128
1,42,127,0
1,42,127,0
1,36,127,128
1,42,127,0
1,42,127,144
1,38,127,128
1,42,127,0
1,42,127,16
1,36,127,112
1,42,127,0
1,36,127,112
1,44,127,0
1,38,127,48
1,42,127,0
1,36,103,0
1,44,127,0
1,36,127,112
1,42,127,0
1,42,127,32
1,38,127,144
1,42,127,0
1,42,127,0
1,36,127,144
1,42,127,0
1,42,127,0
1,38,127,144
1,42,127,0
1,42,127,16
1,36,127,144
1,42,127,0
1,42,127,32
1,38,127,144
1,42,127,0
1,36,109,32
1,42,127,0
1,36,127,128
1,42,127,0
1,42,127,128
1,38,127,128
1,42,127,0
1,42,127,32
1,36,127,144
1,42,127,0
1,42,127,32
1,38,127,160
1,42,127,0
1,42,127,64
1,36,127,144
1,42,127,0
1,36,127,112
1,42,127,0
1,38,127,160
1,42,127,0
1,36,113,48
1,42,127,0
1,36,127,128
1,42,127,0
1,42,127,16
1,38,127,160
1,42,127,0
1,44,127,32
1,36,127,128
1,42,127,0
1,42,127,16
1,38,127,144
1,44,127,0
1,36,113,16
1,42,127,0
1,36,127,128
1,42,127,0
1,49,127,0
1,42,127,112
1,38,127,144
1,42,127,0
1,42,127,32
1,36,127,144
1,42,127,0
1,42,127,32
1,38,127,160
1,42,127,0
1,42,127,48
1,36,127,144
1,42,127,0
1,42,127,32
1,38,127,144
1,42,127,0
1,42,127,64
1,36,127,144
1,42,127,0
1,36,127,128
1,42,127,0
1,38,127,80
1,42,127,0
1,36,117,64
1,44,127,0
1,36,127,128
1,42,127,0
1,42,127,64
1,38,127,144
1,42,127,0
1,42,127,48
1,36,127,144
1,42,127,0
1,42,127,80
1,38,127,144
1,42,127,0
1,36,109,48
1,42,127,0
1,36,127,128
1,42,127,0
1,42,127,16
1,38,127,144
1,42,127,0
1,42,127,144
1,36,127,128
1,42,127,0
1,36,127,128
1,44,127,0
1,38,127,48
1,42,127,0
1,36,115,16
1,44,127,0
1,36,127,128
1,42,127,0
1,49,127,0
1,42,127,112
1,38,127,144
1,42,127,0
1,42,127,32
1,36,127,144
1,42,127,0
1,42,127,144
1,38,127,144
1,42,127,0
1,42,127,16
1,36,127,144
1,42,127,0
1,42,127,48
1,38,127,144
1,42,127,0
1,36,127,16
1,42,127,0
1,36,127,112
1,42,127,0
1,36,127,112
1,42,127,0
1,38,127,32
1,42,127,0
1,36,117,16
1,44,127,0
1,36,127,112
1,42,127,0
1,49,127,0
1,42,127,16
1,38,127,144
1,42,127,0
1,42,127,16
1,36,127,144
1,42,127,0
1,36,127,112
1,42,127,0
1,38,127,0
1,42,127,0
1,36,107,32
1,42,127,0
1,36,127,112
1,42,127,0
1,42,127,160
1,38,127,144
1,42,127,0
1,36,111,16
1,42,127,0
1,36,127,128
1,42,127,0
1,38,119,160
1,42,127,0
1,38,127,144
1,42,127,0
1,38,119,112
1,44,127,0
1,36,127,0
1,38,127,0
1,38,127,0
1,42,127,0
1,49,127,0
1,36,127,496
1,38,127,0
1,42,127,0
1,36,127,128
1,38,127,0
1,42,127,0
1,36,127,112
1,38,127,0
1,42,127,0
1,36,127,112
1,38,127,0
1,42,127,0
1,36,101,256
1,36,127,176
1,38,127,0
1,42,127,0
1,36,127,320
1,38,127,0
1,42,127,0
1,36,127,336
1,38,127,0
1,42,127,0
1,36,127,144
1,38,127,0
1,42,127,0
1,36,127,320
1,38,127,0
1,42,127,0
1,36,127,496
1,38,127,0
1,42,127,0
1,36,127,320
1,38,127,0
1,42,127,0
1,36,127,128
1,38,127,0
1,42,127,0
1,36,127,496
1,38,127,0
1,42,127,0
1,36,109,304
1,38,127,0
1,42,127,0
1,36,127,112
1,38,127,0
1,42,127,0
1,36,127,112
1,38,127,0
1,42,127,0
1,36,127,112
1,38,127,0
1,42,127,0
1,44,127,96
1,36,127,160
1,42,127,0
1,49,127,0
1,42,127,80
1,42,127,64
1,38,127,48
1,42,127,0
1,36,127,144
1,42,127,0
1,36,127,128
1,42,127,0
1,42,127,144
1,38,127,96
1,42,127,0
1,42,127,112
1,36,127,128
1,42,127,0
1,42,127,32
1,42,127,48
1,38,127,48
1,42,127,0
1,36,75,128
1,42,127,0
1,36,127,112
1,42,127,0
1,42,127,144
1,38,127,112
1,42,127,0
1,42,127,112
1,36,127,144
1,42,127,0
1,42,127,0
1,42,127,64
1,38,127,48
1,42,127,0
1,36,127,96
1,42,127,0
1,36,127,112
1,42,127,0
1,42,127,144
1,38,127,128
1,42,127,0
1,42,127,112
1,36,127,128
1,42,127,0
1,42,127,80
1,42,127,64
1,38,127,48
1,42,127,0
1,36,127,112
1,42,127,0
1,36,127,128
1,42,127,0
1,42,127,16
1,38,127,128
1,42,127,0
1,44,127,112
1,36,127,128
1,42,127,0
1,42,127,16
1,42,127,48
1,38,127,48
1,42,127,0
1,36,121,80
1,42,127,0
1,36,127,128
1,42,127,0
1,42,127,144
1,38,127,144
1,42,127,0
1,42,127,112
1,36,127,128
1,42,127,0
1,42,127,64
1,42,127,64
1,38,127,48
1,42,127,0
1,36,105,96
1,42,127,0
1,36,127,128
1,42,127,0
1,42,127,160
1,38,127,96
1,42,127,0
1,42,127,80
1,36,127,128
1,42,127,0
1,42,127,32
1,42,127,48
1,38,127,32
1,42,127,0
1,36,113,80
1,42,127,0
1,36,127,128
1,42,127,0
1,42,127,144
1,38,127,128
1,42,127,0
1,42,127,80
1,36,127,128
1,42,127,0
1,42,127,64
1,42,127,64
1,38,127,48
1,42,127,0
1,36,127,64
1,42,127,0
1,36,127,144
1,42,127,0
1,38,105,144
1,42,127,0
1,38,127,96
1,44,127,0
1,38,127,128
1,42,127,0
1,36,127,112
1,42,127,0
1,49,127,0
1,42,127,16
1,42,127,48
1,38,127,64
1,42,127,0
1,36,107,64
1,42,127,0
1,36,127,112
1,42,127,0
1,42,127,144
1,38,127,128
1,42,127,0
1,42,127,64
1,36,127,128
1,42,127,0
1,42,127,32
1,38,127,144
1,42,127,0
1,42,127,64
1,36,127,144
1,42,127,0
1,36,127,112
1,44,127,0
1,38,127,32
1,42,127,0
1,36,115,64
1,44,127,0
1,36,127,128
1,42,127,0
1,42,127,144
1,42,127,32
1,38,127,48
1,42,127,0
1,36,127,64
1,42,127,0
1,36,127,112
1,42,127,0
1,42,127,160
1,38,127,96
1,42,127,0
1,42,127,80
1,36,127,144
1,42,127,0
1,42,127,160
