track,note,velocity,time
1,53,75,2672
1,60,67,0
1,69,68,0
1,65,70,0
1,64,68,40
1,48,64,0
1,67,71,0
1,60,63,0
1,57,63,76
1,50,80,0
1,65,66,0
1,62,68,0
1,50,76,102
1,50,88,210
1,48,75,192
1,47,51,32
1,65,70,26
1,58,67,0
1,62,80,0
1,46,61,0
1,60,68,76
1,55,58,0
1,48,68,0
1,64,70,0
1,65,71,44
1,57,58,0
1,41,61,0
1,60,71,0
1,53,68,124
1,76,79,0
1,67,69,0
1,72,88,0
1,74,81,122
1,65,76,0
1,70,79,0
1,82,89,350
1,77,84,0
1,86,84,0
1,53,45,0
1,84,89,102
1,81,90,0
1,77,83,0
1,67,68,496
1,53,58,0
1,76,76,0
1,72,83,0
1,65,76,70
1,74,82,0
1,53,67,0
1,70,79,0
1,53,26,86
1,77,85,154
1,65,75,0
1,53,64,0
1,77,79,296
1,65,81,0
1,53,68,0
1,77,77,210
1,53,67,0
1,65,76,0
1,53,68,76
1,65,77,0
1,69,73,0
1,60,71,0
1,53,67,34
1,60,72,56
1,67,76,0
1,64,80,0
1,65,73,56
1,58,69,0
1,62,81,0
1,53,38,230
1,53,45,186
1,62,63,192
1,65,65,0
1,70,54,0
1,70,72,34
1,62,79,0
1,65,81,0
1,69,86,44
1,60,83,0
1,65,89,0
1,53,43,108
1,53,52,108
1,53,59,22
1,69,71,72
1,72,82,0
1,67,80,0
1,67,60,58
1,65,72,10
1,62,65,44
1,65,74,0
1,70,61,0
1,62,60,58
1,62,83,80
1,70,87,0
1,65,89,0
1,62,52,76
1,53,52,108
1,62,64,0
1,60,73,104
1,69,75,0
1,53,68,0
1,65,75,0
1,53,61,120
1,57,65,112
1,61,64,138
1,69,75,0
1,64,80,0
1,58,66,34
1,62,74,180
1,70,65,0
1,65,76,0
1,59,68,38
1,71,84,178
1,62,74,0
1,67,80,0
1,60,76,32
1,53,76,0
1,69,76,0
1,65,76,0
1,60,81,118
1,69,81,0
1,65,92,0
1,65,79,106
1,60,71,0
1,69,76,0
1,67,68,92
1,58,74,0
1,65,81,0
1,69,70,0
1,60,89,0
1,65,72,0
1,72,86,96
1,65,72,0
1,69,84,0
1,62,82,96
1,58,81,0
1,65,85,0
1,53,78,144
1,60,86,0
1,57,86,0
1,53,76,134
1,62,85,0
1,58,85,0
1,60,84,128
1,53,79,0
1,57,89,0
1,53,74,138
1,62,88,0
1,58,83,0
1,55,73,142
1,60,86,0
1,64,83,0
1,72,83,384
1,77,75,0
1,77,82,0
1,69,84,0
1,69,78,0
1,72,107,0
1,72,76,368
1,81,80,0
1,77,85,6
1,69,79,0
1,70,61,20
1,77,72,0
1,74,76,0
1,74,79,188
1,82,87,0
1,77,70,0
1,86,85,0
1,81,80,0
1,84,79,0
1,77,73,0
1,77,56,158
1,72,65,384
1,65,61,82
1,74,84,4
1,65,78,0
1,70,96,0
1,63,69,174
1,72,74,0
1,67,77,0
1,62,79,80
1,65,83,0
1,70,66,0
1,65,67,36
1,74,78,0
1,70,66,0
1,65,59,82
1,77,61,0
1,69,61,0
1,72,70,0
1,73,32,66
1,57,64,0
1,69,70,76
1,77,75,0
1,73,63,0
1,70,50,56
1,77,57,0
1,74,79,0
1,58,51,0
1,59,67,6
1,67,60,0
1,77,58,0
1,74,71,0
1,71,64,0
1,74,72,118
1,67,70,0
1,77,70,0
1,71,76,0
1,72,77,18
1,60,68,0
1,69,72,0
1,77,67,0
1,67,72,20
1,77,75,0
1,72,84,0
1,74,76,96
1,77,72,0
1,58,64,0
1,70,65,0
1,72,72,70
1,65,63,192
1,77,78,68
1,65,71,130
1,72,73,192
1,65,67,30
1,77,68,192
1,65,61,118
1,72,74,192
1,65,59,70
1,77,70,38
1,65,54,138
1,72,72,16
1,64,59,86
1,57,67,0
1,69,61,0
1,60,64,0
1,60,57,102
1,64,63,44
1,60,65,100
1,69,68,0
1,64,69,0
1,57,55,106
1,62,68,72
1,71,80,0
1,72,77,122
1,69,70,0
1,57,68,0
1,64,61,0
1,57,45,66
1,64,64,114
1,69,71,16
1,72,82,0
1,64,65,0
1,57,52,34
1,69,67,48
1,72,63,0
1,64,73,0
1,57,62,106
1,72,75,20
1,63,60,0
1,60,65,0
1,67,74,0
1,63,47,108
1,67,66,108
1,72,70,192
1,60,58,274
1,74,85,28
1,77,76,0
1,79,76,28
1,75,43,0
1,77,79,14
1,74,72,0
1,72,66,96
1,75,78,0
1,74,77,112
1,77,84,0
1,72,78,250
1,75,69,0
1,60,40,94
1,72,61,84
1,60,42,0
1,77,76,90
1,70,67,0
1,74,79,0
1,58,65,0
1,70,46,24
1,77,75,22
1,72,83,0
1,69,86,0
1,53,73,0
1,69,65,44
1,69,65,84
1,77,77,0
1,72,72,0
1,53,67,82
1,79,76,56
1,60,68,0
1,76,75,0
1,72,75,0
1,72,72,4
1,74,75,72
1,79,72,0
1,71,70,0
1,55,67,0
1,55,61,68
1,71,68,138
1,74,70,0
1,79,73,0
1,64,59,76
1,57,67,0
1,69,61,0
1,60,64,0
1,60,57,102
1,64,63,44
1,60,65,100
1,69,68,0
1,64,69,0
1,57,55,106
1,62,68,72
1,71,80,0
1,72,77,122
1,69,70,0
1,57,68,0
1,64,61,0
1,57,45,66
1,64,64,114
1,69,71,16
1,72,82,0
1,64,65,0
1,57,52,34
1,69,67,48
1,72,63,0
1,64,73,0
1,57,62,106
1,72,75,20
1,63,60,0
1,60,65,0
1,67,74,0
1,63,47,108
1,67,66,108
1,72,70,192
1,60,58,274
1,74,85,28
1,77,76,0
1,79,76,28
1,75,43,0
1,77,79,14
1,74,72,0
1,72,66,96
1,75,78,0
1,74,77,112
1,77,84,0
1,72,78,250
1,75,69,0
1,60,40,94
1,72,61,84
1,60,42,0
1,77,76,90
1,70,67,0
1,74,79,0
1,58,65,0
1,70,46,24
1,77,75,22
1,72,83,0
1,69,86,0
1,53,73,0
1,69,65,44
1,69,65,84
1,77,77,0
1,72,72,0
1,53,67,82
1,79,76,56
1,60,68,0
1,76,75,0
1,72,75,0
1,72,72,4
1,74,75,72
1,79,72,0
1,71,70,0
1,55,67,0
1,55,61,68
1,71,68,138
1,74,70,0
1,79,73,0
1,60,67,76
1,56,72,0
1,63,67,0
1,68,64,0
1,56,44,174
1,68,64,24
1,60,70,0
1,63,69,0
1,56,39,192
1,56,46,60
1,60,88,104
1,67,79,0
1,52,70,0
1,52,57,260
1,67,79,192
1,76,76,0
1,72,88,0
1,52,43,0
1,57,68,296
1,62,78,116
1,70,57,0
1,58,89,0
1,65,81,0
1,57,76,28
1,60,70,0
1,69,75,0
1,65,75,0
1,62,76,50
1,58,73,0
1,65,78,0
1,70,67,0
1,69,66,54
1,60,62,0
1,57,73,0
1,65,68,0
1,62,68,70
1,65,72,0
1,70,66,0
1,58,76,0
1,67,78,14
1,60,75,0
1,64,68,0
1,53,70,78
1,60,70,0
1,65,70,0
1,69,72,0
1,53,43,74
1,53,48,88
1,67,60,40
1,64,64,0
1,60,63,0
1,52,68,0
1,62,70,24
1,65,70,0
1,69,63,0
1,50,61,0
1,50,27,154
1,69,60,30
1,62,59,0
1,65,64,0
1,50,25,192
1,62,62,78
1,46,50,0
1,65,64,0
1,70,53,0
1,62,53,24
1,46,52,162
1,67,68,16
1,60,67,0
1,64,68,0
1,48,67,0
1,69,65,32
1,60,58,0
1,65,67,0
1,53,63,0
1,64,63,4
1,52,70,0
1,60,63,0
1,67,60,0
1,69,64,6
1,50,79,0
1,62,67,0
1,65,72,0
1,62,61,54
1,69,62,0
1,65,67,0
1,50,58,0
1,70,55,2
1,62,62,0
1,65,67,0
1,46,51,0
1,48,65,26
1,67,67,0
1,60,62,0
1,64,68,0
1,65,68,10
1,53,59,0
1,69,63,0
1,60,70,0
1,64,84,48
1,67,80,0
1,60,78,0
1,58,53,122
1,65,76,0
1,62,81,0
1,62,90,114
1,65,95,0
1,70,89,0
1,60,70,114
1,69,81,0
1,65,82,0
1,64,89,100
1,72,92,0
1,67,96,0
1,62,92,122
1,65,93,0
1,70,87,0
1,77,84,380
1,65,86,0
1,77,92,280
1,65,98,0
1,65,98,96
1,77,95,0
1,77,93,14
1,65,102,0
1,53,68,126
1,65,77,0
1,69,73,0
1,60,71,0
1,53,67,34
1,60,72,56
1,67,76,0
1,64,80,0
1,65,73,56
1,58,69,0
1,62,81,0
1,53,38,230
1,53,45,186
1,62,63,192
1,65,65,0
1,70,54,0
1,70,72,34
1,62,79,0
1,65,81,0
1,69,86,44
1,60,83,0
1,65,89,0
1,53,43,108
1,53,52,108
1,53,59,22
1,69,71,72
1,72,82,0
1,67,80,0
1,67,60,58
1,65,72,10
1,62,65,44
1,65,74,0
1,70,61,0
1,62,60,58
1,62,83,80
1,70,87,0
1,65,89,0
1,62,52,76
1,53,52,108
1,62,64,0
1,60,73,104
1,69,75,0
1,53,68,0
1,65,75,0
1,53,61,120
1,57,65,112
1,61,64,138
1,69,75,0
1,64,80,0
1,58,66,34
1,62,74,180
1,70,65,0
1,65,76,0
1,59,68,38
1,71,84,178
1,62,74,0
1,67,80,0
1,60,76,32
1,53,76,0
1,69,76,0
1,65,76,0
1,60,81,118
1,69,81,0
1,65,92,0
1,65,79,106
1,60,71,0
1,69,76,0
1,67,68,92
1,58,74,0
1,65,81,0
1,69,70,0
1,60,89,0
1,65,72,0
1,72,86,96
1,65,72,0
1,69,84,0
1,62,82,96
1,58,81,0
1,65,85,0
1,53,78,144
1,60,86,0
1,57,86,0
1,53,76,134
1,62,85,0
1,58,85,0
1,60,84,128
1,53,79,0
1,57,89,0
1,53,74,138
1,62,88,0
1,58,83,0
1,55,73,142
1,60,86,0
1,64,83,0
1,72,83,384
1,77,75,0
1,77,82,0
1,69,84,0
1,69,78,0
1,72,107,0
1,72,76,368
1,81,80,0
1,77,85,6
1,69,79,0
1,70,61,20
1,77,72,0
1,74,76,0
1,74,79,188
1,82,87,0
1,77,70,0
1,86,85,0
1,81,80,0
1,84,79,0
1,77,73,0
1,77,56,158
1,72,65,384
1,65,61,82
1,74,84,4
1,65,78,0
1,70,96,0
1,63,69,174
1,72,74,0
1,67,77,0
1,62,79,80
1,65,83,0
1,70,66,0
1,65,67,36
1,74,78,0
1,70,66,0
1,65,59,82
1,77,61,0
1,69,61,0
1,72,70,0
1,73,32,66
1,57,64,0
1,69,70,76
1,77,75,0
1,73,63,0
1,70,50,56
1,77,57,0
1,74,79,0
1,58,51,0
1,59,67,6
1,67,60,0
1,77,58,0
1,74,71,0
1,71,64,0
1,74,72,118
1,67,70,0
1,77,70,0
1,71,76,0
1,72,77,18
1,60,68,0
1,69,72,0
1,77,67,0
1,67,72,20
1,77,75,0
1,72,84,0
1,74,76,96
1,77,72,0
1,58,64,0
1,70,65,0
1,72,72,70
1,65,63,192
1,77,78,68
1,65,71,130
1,72,73,192
1,65,67,30
1,77,68,192
1,65,61,118
1,72,74,192
1,65,59,70
1,77,70,38
1,65,54,138
1,72,72,16
1,64,59,86
1,57,67,0
1,69,61,0
1,60,64,0
1,60,57,102
1,64,63,44
1,60,65,100
1,69,68,0
1,64,69,0
1,57,55,106
1,62,68,72
1,71,80,0
1,72,77,122
1,69,70,0
1,57,68,0
1,64,61,0
1,57,45,66
1,64,64,114
1,69,71,16
1,72,82,0
1,64,65,0
1,57,52,34
1,69,67,48
1,72,63,0
1,64,73,0
1,57,62,106
1,72,75,20
1,63,60,0
1,60,65,0
1,67,74,0
1,63,47,108
1,67,66,108
1,72,70,192
1,60,58,274
1,74,85,28
1,77,76,0
1,79,76,28
1,75,43,0
1,77,79,14
1,74,72,0
1,72,66,96
1,75,78,0
1,74,77,112
1,77,84,0
1,72,78,250
1,75,69,0
1,60,40,94
1,72,61,84
1,60,42,0
1,77,76,90
1,70,67,0
1,74,79,0
1,58,65,0
1,70,46,24
1,77,75,22
1,72,83,0
1,69,86,0
1,53,73,0
1,69,65,44
1,69,65,84
1,77,77,0
1,72,72,0
1,53,67,82
1,79,76,56
1,60,68,0
1,76,75,0
1,72,75,0
1,72,72,4
1,74,75,72
1,79,72,0
1,71,70,0
1,55,67,0
1,55,61,68
1,71,68,138
1,74,70,0
1,79,73,0
1,64,59,76
1,57,67,0
1,69,61,0
1,60,64,0
1,60,57,102
1,64,63,44
1,60,65,100
1,69,68,0
1,64,69,0
1,57,55,106
1,62,68,72
1,71,80,0
1,72,77,122
1,69,70,0
1,57,68,0
1,64,61,0
1,57,45,66
1,64,64,114
1,69,71,16
1,72,82,0
1,64,65,0
1,57,52,34
1,69,67,48
1,72,63,0
1,64,73,0
1,57,62,106
1,72,75,20
1,63,60,0
1,60,65,0
1,67,74,0
1,63,47,108
1,67,66,108
1,72,70,192
1,60,58,274
1,74,85,28
1,77,76,0
1,79,76,28
1,75,43,0
1,77,79,14
1,74,72,0
1,72,66,96
1,75,78,0
1,74,77,112
1,77,84,0
1,72,78,250
1,75,69,0
1,60,40,94
1,72,61,84
1,60,42,0
1,77,76,90
1,70,67,0
1,74,79,0
1,58,65,0
1,70,46,24
1,77,75,22
1,72,83,0
1,69,86,0
1,53,73,0
1,69,65,44
1,69,65,84
1,77,77,0
1,72,72,0
1,53,67,82
1,79,76,56
1,60,68,0
1,76,75,0
1,72,75,0
1,72,72,4
1,74,75,72
1,79,72,0
1,71,70,0
1,55,67,0
1,55,61,68
1,71,68,138
1,74,70,0
1,79,73,0
1,60,67,76
1,56,72,0
1,63,67,0
1,68,64,0
1,56,44,174
1,68,64,24
1,60,70,0
1,63,69,0
1,56,39,192
1,56,46,60
1,60,88,104
1,67,79,0
1,52,70,0
1,52,57,260
1,67,79,192
1,76,76,0
1,72,88,0
1,52,43,0
1,57,68,296
1,62,78,116
1,70,57,0
1,58,89,0
1,65,81,0
1,57,76,28
1,60,70,0
1,69,75,0
1,65,75,0
1,62,76,50
1,58,73,0
1,65,78,0
1,70,67,0
1,69,66,54
1,60,62,0
1,57,73,0
1,65,68,0
1,62,68,70
1,65,72,0
1,70,66,0
1,58,76,0
1,67,78,14
1,60,75,0
1,64,68,0
1,53,70,78
1,60,70,0
1,65,70,0
1,69,72,0
1,53,43,74
1,53,48,88
1,67,60,40
1,64,64,0
1,60,63,0
1,52,68,0
1,62,70,24
1,65,70,0
1,69,63,0
1,50,61,0
1,50,27,154
1,69,60,30
1,62,59,0
1,65,64,0
1,50,25,192
1,62,62,78
1,46,50,0
1,65,64,0
1,70,53,0
1,62,53,24
1,46,52,162
1,67,68,16
1,60,67,0
1,64,68,0
1,48,67,0
1,69,65,32
1,60,58,0
1,65,67,0
1,53,63,0
1,64,63,4
1,52,70,0
1,60,63,0
1,67,60,0
1,69,64,6
1,50,79,0
1,62,67,0
1,65,72,0
1,62,61,54
1,69,62,0
1,65,67,0
1,50,58,0
1,70,55,2
1,62,62,0
1,65,67,0
1,46,51,0
1,48,65,26
1,67,67,0
1,60,62,0
1,64,68,0
1,65,68,10
1,53,59,0
1,69,63,0
1,60,70,0
1,64,84,48
1,67,80,0
1,60,78,0
1,58,53,122
1,65,76,0
1,62,81,0
1,62,90,114
1,65,95,0
1,70,89,0
1,60,70,114
1,69,81,0
1,65,82,0
1,64,89,100
1,72,92,0
1,67,96,0
1,62,92,122
1,65,93,0
1,70,87,0
1,77,84,380
1,65,86,0
1,77,92,280
1,65,98,0
1,65,98,96
1,77,95,0
1,77,93,14
1,65,102,0
1,72,76,368
1,81,80,0
1,77,85,6
1,69,79,0
1,70,61,20
1,77,72,0
1,74,76,0
1,74,79,188
1,82,87,0
1,77,70,0
1,86,85,0
1,81,80,0
1,84,79,0
1,77,73,0
1,77,56,158
1,72,65,384
1,65,61,82
1,74,84,4
1,65,78,0
1,70,96,0
1,63,69,174
1,72,74,0
1,67,77,0
1,62,79,80
1,65,83,0
1,70,66,0
1,65,67,36
1,74,78,0
1,70,66,0
1,65,59,82
1,77,61,0
1,69,61,0
1,72,70,0
1,73,32,66
1,57,64,0
1,69,70,76
