track,note,velocity,time
1,33,118,6436
1,33,112,108
1,33,112,88
1,31,118,54
1,33,118,108
1,31,116,88
1,31,104,136
1,33,118,60
1,33,112,108
1,33,112,88
1,31,118,54
1,33,118,108
1,31,116,88
1,31,104,136
1,33,118,60
1,33,112,108
1,33,112,88
1,31,118,54
1,33,118,108
1,31,116,88
1,31,104,136
1,33,118,60
1,33,112,108
1,33,112,88
1,31,118,54
1,33,118,108
1,31,116,88
1,31,104,136
1,33,118,60
1,33,112,108
1,33,112,88
1,31,118,54
1,33,118,108
1,31,116,88
1,31,104,136
1,33,118,60
1,33,112,108
1,33,112,88
1,31,118,54
1,33,118,108
1,31,116,88
1,31,104,136
1,33,118,60
1,33,112,108
1,33,112,88
1,31,118,54
1,33,118,108
1,31,116,88
1,31,104,136
1,33,118,60
1,33,112,108
1,33,112,88
1,31,118,54
1,33,118,108
1,31,116,88
1,31,104,136
1,33,118,60
1,33,112,108
1,33,112,88
1,31,118,54
1,33,118,108
1,31,116,88
1,31,104,136
1,33,118,60
1,33,112,108
1,33,112,88
1,31,118,54
1,33,118,108
1,31,116,88
1,31,104,136
1,33,118,60
1,33,112,108
1,33,112,88
1,31,118,54
1,33,118,108
1,31,116,88
1,31,104,136
1,33,118,60
1,33,112,108
1,33,112,88
1,31,118,54
1,33,118,108
1,31,116,88
1,31,104,136
1,33,112,60
1,33,112,60
1,33,110,204
1,35,109,66
1,35,110,70
1,35,110,204
1,36,109,66
1,36,109,30
1,36,107,222
1,38,109,26
1,38,112,60
1,31,110,204
1,33,108,32
1,33,109,46
1,33,109,206
1,35,108,64
1,35,107,56
1,35,107,204
1,36,107,56
1,36,107,46
1,36,108,200
1,38,108,44
1,38,109,56
1,31,106,206
1,33,120,12
1,33,114,108
1,33,114,88
1,31,120,54
1,33,120,108
1,31,118,88
1,31,106,136
1,33,120,60
1,33,114,108
1,33,114,88
1,31,120,54
1,33,120,108
1,31,118,88
1,31,106,136
1,33,120,60
1,33,114,108
1,33,114,88
1,31,120,54
1,33,120,108
1,31,118,88
1,31,106,136
1,33,120,60
1,33,114,108
1,33,114,88
1,31,120,54
1,33,120,108
1,31,118,88
1,31,106,136
1,33,120,60
1,33,114,108
1,33,114,88
1,31,120,54
1,33,120,108
1,31,118,88
1,31,106,136
1,33,120,60
1,33,114,108
1,33,114,88
1,31,120,54
1,33,120,108
1,31,118,88
1,31,106,136
1,33,120,60
1,33,114,108
1,33,114,88
1,31,120,54
1,33,120,108
1,31,118,88
1,31,106,136
1,33,120,60
1,33,114,108
1,33,114,88
1,33,120,54
1,33,124,710
1,33,119,112
1,36,116,120
1,33,118,18
1,28,124,54
1,28,124,108
1,28,122,112
1,31,122,24
1,28,122,56
1,33,124,24
1,33,119,112
1,36,116,120
1,33,118,18
1,28,124,54
1,28,124,108
1,28,122,112
1,31,122,24
1,28,122,56
1,33,124,24
1,33,119,112
1,36,116,120
1,33,118,18
1,28,124,54
1,28,124,108
1,28,122,112
1,31,122,24
1,28,122,56
1,33,124,24
1,33,119,112
1,36,116,120
1,33,118,18
1,28,124,54
1,28,124,108
1,28,122,112
1,31,122,24
1,28,122,56
1,33,124,24
1,33,119,112
1,36,116,120
1,33,118,18
1,28,124,54
1,28,124,108
1,28,122,112
1,31,122,24
1,28,122,56
1,33,124,24
1,33,119,112
1,36,116,120
1,33,118,18
1,28,124,54
1,28,124,108
1,28,122,112
1,31,122,24
1,28,122,56
1,33,124,24
1,33,119,112
1,36,116,120
1,33,118,18
1,28,124,54
1,28,124,108
1,28,122,112
1,31,122,24
1,28,122,56
1,33,124,24
1,33,119,112
1,36,116,120
1,33,118,18
1,28,124,54
1,28,124,108
1,28,122,112
1,31,122,24
1,28,122,56
1,33,120,24
1,33,114,108
1,33,114,88
1,31,120,54
1,33,120,108
1,31,118,88
1,31,106,136
1,33,120,60
1,33,114,108
1,33,114,88
1,31,120,54
1,33,120,108
1,31,118,88
1,31,106,136
1,33,120,60
1,33,114,108
1,33,114,88
1,31,120,54
1,33,120,108
1,31,118,88
1,31,106,136
1,33,120,60
1,33,114,108
1,33,114,88
1,31,120,54
1,33,120,108
1,31,118,88
1,31,106,136
1,33,119,60
1,33,113,108
1,33,113,88
1,31,119,54
1,33,119,108
1,31,117,88
1,31,105,136
1,33,119,60
1,33,113,108
1,33,113,88
1,31,119,54
1,33,119,108
1,31,117,88
1,31,105,136
1,33,119,60
1,33,113,108
1,33,113,88
1,31,119,54
1,33,119,108
1,31,117,88
1,31,105,136
1,33,119,60
1,33,113,108
1,33,113,88
1,31,119,54
1,33,119,108
1,31,117,88
1,31,105,136
1,33,121,60
1,33,115,108
1,33,115,88
1,31,121,54
1,33,121,108
1,31,119,88
1,31,107,136
1,33,121,60
1,33,115,108
1,33,115,88
1,31,121,54
1,33,121,108
1,31,119,88
1,31,107,136
1,33,121,60
1,33,115,108
1,33,115,88
1,31,121,54
1,33,121,108
1,31,119,88
1,31,107,136
1,33,121,60
1,33,115,108
1,33,115,88
1,31,121,54
1,33,121,108
1,31,119,88
1,31,107,136
1,33,121,60
1,33,115,108
1,33,115,88
1,31,121,54
1,33,121,108
1,31,119,88
1,31,107,136
1,33,121,60
1,33,115,108
1,33,115,88
1,31,121,54
1,33,121,108
1,31,119,88
1,31,107,136
1,33,121,60
1,33,115,108
1,33,115,88
1,31,121,54
1,33,121,108
1,31,119,88
1,31,107,136
1,33,121,60
1,33,115,108
1,33,115,88
1,33,121,54
1,33,124,710
1,33,119,112
1,36,116,120
1,33,118,18
1,28,124,54
1,28,124,108
1,28,122,112
1,31,122,24
1,28,122,56
1,33,124,24
1,33,119,112
1,36,116,120
1,33,118,18
1,28,124,54
1,28,124,108
1,28,122,112
1,31,122,24
1,28,122,56
1,33,124,24
1,33,119,112
1,36,116,120
1,33,118,18
1,28,124,54
1,28,124,108
1,28,122,112
1,31,122,24
1,28,122,56
1,33,124,24
1,33,119,112
1,36,116,120
1,33,118,18
1,28,124,54
1,28,124,108
1,28,122,112
1,31,122,24
1,28,122,56
1,33,124,24
1,33,119,112
1,36,116,120
1,33,118,18
1,28,124,54
1,28,124,108
1,28,122,112
1,31,122,24
1,28,122,56
1,33,124,24
1,33,119,112
1,36,116,120
1,33,118,18
1,28,124,54
1,28,124,108
1,28,122,112
1,31,122,24
1,28,122,56
1,33,124,24
1,33,119,112
1,36,116,120
1,33,118,18
1,28,124,54
1,28,124,108
1,28,122,112
1,31,122,24
1,28,122,56
1,33,124,24
1,33,119,112
1,36,116,120
1,33,118,18
1,28,124,54
1,28,124,108
1,28,122,112
1,31,122,24
1,28,122,56
1,33,120,24
1,33,114,108
1,33,114,88
1,31,120,54
1,33,120,108
1,31,118,88
1,31,106,136
1,33,120,60
1,33,114,108
1,33,114,88
1,31,120,54
1,33,120,108
1,31,118,88
1,31,106,136
1,33,120,60
1,33,114,108
1,33,114,88
1,31,120,54
1,33,120,108
1,31,118,88
1,31,106,136
1,33,120,60
1,33,114,108
1,33,114,88
1,31,120,54
1,33,120,108
1,31,118,88
1,31,106,136
1,33,114,60
1,33,114,60
1,33,112,204
1,35,111,66
1,35,112,70
1,35,112,204
1,36,111,66
1,36,111,30
1,36,109,222
1,38,111,26
1,38,114,60
1,31,112,204
1,33,110,32
1,33,111,46
1,33,111,206
1,35,110,64
1,35,109,56
1,35,109,204
1,36,109,56
1,36,109,46
1,36,110,200
1,38,110,44
1,38,111,56
1,31,108,206
1,33,121,12
1,33,115,108
1,33,115,88
1,31,121,54
1,33,121,108
1,31,119,88
1,31,107,136
1,33,121,60
1,33,115,108
1,33,115,88
1,31,121,54
1,33,121,108
1,31,119,88
1,31,107,136
1,33,121,60
1,33,115,108
1,33,115,88
1,31,121,54
1,33,121,108
1,31,119,88
1,31,107,136
1,33,121,60
1,33,115,108
1,33,115,88
1,31,121,54
1,33,121,108
1,31,119,88
1,31,107,136
1,33,122,60
1,33,116,108
1,33,116,88
1,31,122,54
1,33,122,108
1,31,120,88
1,31,108,136
1,33,122,60
1,33,116,108
1,33,116,88
1,31,122,54
1,33,122,108
1,31,120,88
1,31,108,136
1,33,122,60
1,33,116,108
1,33,116,88
1,31,122,54
1,33,122,108
1,31,120,88
1,31,108,136
1,33,122,60
1,33,116,108
1,33,116,88
1,31,122,54
1,33,122,108
1,31,120,88
1,31,108,136
1,33,124,6204
1,33,119,112
1,36,116,120
1,33,118,18
1,28,124,54
1,28,124,108
1,28,122,112
1,31,122,24
1,28,122,56
1,33,124,24
1,33,119,112
1,36,116,120
1,33,118,18
1,28,124,54
1,28,124,108
1,28,122,112
1,31,122,24
1,28,122,56
1,33,124,24
1,33,119,112
1,36,116,120
1,33,118,18
1,28,124,54
1,28,124,108
1,28,122,112
1,31,122,24
1,28,122,56
1,33,124,24
1,33,119,112
1,36,116,120
1,33,118,18
1,28,124,54
1,28,124,108
1,28,122,112
1,31,122,24
1,28,122,56
1,33,124,24
1,33,119,112
1,36,116,120
1,33,118,18
1,28,124,54
1,28,124,108
1,28,122,112
1,31,122,24
1,28,122,56
1,33,124,24
1,33,119,112
1,36,116,120
1,33,118,18
1,28,124,54
1,28,124,108
1,28,122,112
1,31,122,24
1,28,122,56
1,33,124,24
1,33,119,112
1,36,116,120
1,33,118,18
1,28,124,54
1,28,124,108
1,28,122,112
1,31,122,24
1,28,122,56
1,33,124,24
1,33,119,112
1,36,116,120
1,33,118,18
1,28,124,54
1,28,124,108
1,28,122,112
1,31,122,24
1,28,122,56
1,33,125,24
1,33,120,112
1,36,117,120
1,33,119,18
1,28,125,54
1,28,125,108
1,28,123,112
1,31,123,24
1,28,123,56
1,33,125,24
1,33,120,112
1,36,117,120
1,33,119,18
1,28,125,54
1,28,125,108
1,28,123,112
1,31,123,24
1,28,123,56
1,33,125,24
1,33,120,112
1,36,117,120
1,33,119,18
1,28,125,54
1,28,125,108
1,28,123,112
1,31,123,24
1,28,123,56
1,33,125,24
1,33,120,112
1,36,117,120
1,33,119,18
1,28,125,54
1,28,125,108
1,28,123,112
1,31,123,24
1,28,123,56
1,33,125,24
1,33,120,112
1,36,117,120
1,33,119,18
1,28,125,54
1,28,125,108
1,28,123,112
1,31,123,24
1,28,123,56
1,33,125,24
1,33,120,112
1,36,117,120
1,33,119,18
1,28,125,54
1,28,125,108
1,28,123,112
1,31,123,24
1,28,123,56
1,33,125,24
1,33,120,112
1,36,117,120
1,33,119,18
1,28,125,54
1,28,125,108
1,28,123,112
1,31,123,24
1,28,123,56
1,33,125,24
1,33,120,112
1,36,117,120
1,33,119,18
1,28,125,54
1,28,125,108
1,28,123,112
1,31,123,24
1,28,123,56
1,33,126,24
1,33,120,108
1,33,120,88
1,31,126,54
1,33,126,108
1,31,124,88
1,31,112,136
1,33,126,60
1,33,120,108
1,33,120,88
1,31,126,54
1,33,126,108
1,31,124,88
1,31,112,136
1,33,126,60
1,33,120,108
1,33,120,88
1,31,126,54
1,33,126,108
1,31,124,88
1,31,112,136
1,33,126,60
1,33,120,108
1,33,120,88
1,33,126,54
2,57,72,292
2,57,72,278
2,57,72,288
2,57,72,280
2,57,72,28
2,57,62,112
2,57,72,36
2,57,72,278
2,57,72,288
2,57,72,280
2,57,72,28
2,57,62,112
2,57,72,36
2,57,72,278
2,57,72,288
2,57,72,280
2,57,72,28
2,57,62,112
2,57,72,36
2,57,72,278
2,57,72,288
2,57,72,280
2,57,72,28
2,57,62,112
2,57,91,36
2,57,85,136
2,57,85,440
2,55,91,54
2,57,91,136
2,55,89,248
2,55,77,136
2,57,91,60
2,57,85,136
2,57,85,440
2,55,91,54
2,57,91,136
2,55,89,248
2,55,77,136
2,57,91,60
2,57,85,136
2,57,85,440
2,55,91,54
2,57,91,136
2,55,89,248
2,55,77,136
2,57,91,60
2,57,85,136
2,57,85,440
2,55,91,54
2,57,91,136
2,55,89,248
2,55,77,136
2,57,91,60
2,57,85,136
2,57,85,440
2,55,91,54
2,57,91,136
2,55,89,248
2,55,77,136
2,57,91,60
2,57,85,136
2,57,85,440
2,55,91,54
2,57,91,136
2,55,89,248
2,55,77,136
2,57,91,60
2,57,85,136
2,57,85,440
2,55,91,54
2,57,91,136
2,55,89,248
2,55,77,136
2,57,91,60
2,57,85,136
2,57,85,440
2,55,91,54
2,57,91,136
2,55,89,248
2,55,77,136
2,57,91,60
2,57,85,136
2,57,85,440
2,55,91,54
2,57,91,136
2,55,89,248
2,55,77,136
2,57,91,60
2,57,85,136
2,57,85,440
2,55,91,54
2,57,91,136
2,55,89,248
2,55,77,136
2,57,91,60
2,57,85,136
2,57,85,440
2,55,91,54
2,57,91,136
2,55,89,248
2,55,77,136
2,57,91,60
2,57,85,136
2,57,85,440
2,55,91,54
2,57,91,136
2,55,89,248
2,55,77,136
2,57,93,6204
2,57,87,136
2,57,87,440
2,55,93,54
2,57,93,136
2,55,91,248
2,55,79,136
2,57,93,60
2,57,87,136
2,57,87,440
2,55,93,54
2,57,93,136
2,55,91,248
2,55,79,136
2,57,93,60
2,57,87,136
2,57,87,440
2,55,93,54
2,57,93,136
2,55,91,248
2,55,79,136
2,57,93,60
2,57,87,136
2,57,87,440
2,55,93,54
2,57,93,136
2,55,91,248
2,55,79,136
2,57,93,60
2,57,87,136
2,57,87,440
2,55,93,54
2,57,93,136
2,55,91,248
2,55,79,136
2,57,93,60
2,57,87,136
2,57,87,440
2,55,93,54
2,57,93,136
2,55,91,248
2,55,79,136
2,57,93,60
2,57,87,136
2,57,87,440
2,55,93,54
2,57,93,136
2,55,91,248
2,55,79,136
2,57,93,60
2,57,87,136
2,57,87,440
2,55,93,54
2,57,97,712
2,57,91,136
2,60,97,136
2,57,91,248
2,52,97,54
2,52,97,136
2,52,95,248
2,55,95,24
2,52,95,56
2,57,97,24
2,57,91,136
2,60,97,136
2,57,91,248
2,52,97,54
2,52,97,136
2,52,95,248
2,55,95,24
2,52,95,56
2,57,97,24
2,57,91,136
2,60,97,136
2,57,91,248
2,52,97,54
2,52,97,136
2,52,95,248
2,55,95,24
2,52,95,56
2,57,97,24
2,57,91,136
2,60,97,136
2,57,91,248
2,52,97,54
2,52,97,136
2,52,95,248
2,55,95,24
2,52,95,56
2,57,97,24
2,57,91,136
2,60,97,136
2,57,91,248
2,52,97,54
2,52,97,136
2,52,95,248
2,55,95,24
2,52,95,56
2,57,97,24
2,57,91,136
2,60,97,136
2,57,91,248
2,52,97,54
2,52,97,136
2,52,95,248
2,55,95,24
2,52,95,56
2,57,97,24
2,57,91,136
2,60,97,136
2,57,91,248
2,52,97,54
2,52,97,136
2,52,95,248
2,55,95,24
2,52,95,56
2,57,97,24
2,57,91,136
2,60,97,136
2,57,91,248
2,52,97,54
2,52,97,136
2,52,95,248
2,55,95,24
2,52,95,56
2,57,93,24
2,57,87,136
2,57,87,440
2,55,93,54
2,57,93,136
2,55,91,248
2,55,79,136
2,57,93,60
2,57,87,136
2,57,87,440
2,55,93,54
2,57,93,136
2,55,91,248
2,55,79,136
2,57,93,60
2,57,87,136
2,57,87,440
2,55,93,54
2,57,93,136
2,55,91,248
2,55,79,136
2,57,93,60
2,57,87,136
2,57,87,440
2,55,93,54
2,57,93,136
2,55,91,248
2,55,79,136
2,57,92,60
2,57,86,136
2,57,86,440
2,55,92,54
2,57,92,136
2,55,90,248
2,55,78,136
2,57,92,60
2,57,86,136
2,57,86,440
2,55,92,54
2,57,92,136
2,55,90,248
2,55,78,136
2,57,92,60
2,57,86,136
2,57,86,440
2,55,92,54
2,57,92,136
2,55,90,248
2,55,78,136
2,57,92,60
2,57,86,136
2,57,86,440
2,55,92,54
2,57,92,136
2,55,90,248
2,55,78,136
2,57,94,60
2,57,88,136
2,57,88,440
2,55,94,54
2,57,94,136
2,55,92,248
2,55,80,136
2,57,94,60
2,57,88,136
2,57,88,440
2,55,94,54
2,57,94,136
2,55,92,248
2,55,80,136
2,57,94,60
2,57,88,136
2,57,88,440
2,55,94,54
2,57,94,136
2,55,92,248
