track,note,velocity,time
1,43,84,480
1,43,0,20
1,43,84,40
1,43,0,26
1,47,84,34
1,47,0,19
1,42,84,71
1,42,0,17
1,43,84,13
1,43,0,20
1,43,84,40
1,43,0,12
1,47,84,18
1,47,0,23
1,38,84,37
1,38,0,16
1,42,84,14
1,42,0,14
1,38,84,16
1,38,0,17
1,43,84,13
1,43,0,20
1,43,84,40
1,43,0,19
1,47,84,41
1,47,0,14
1,42,84,76
1,42,0,12
1,43,84,18
1,43,0,20
1,43,84,40
1,43,0,10
1,47,84,20
1,47,0,24
1,38,84,36
1,38,0,16
1,42,84,14
1,42,0,15
1,38,84,15
1,38,0,17
1,43,84,13
1,43,0,20
1,43,84,40
1,43,0,26
1,47,84,34
1,47,0,19
1,42,84,71
1,42,0,17
1,43,84,13
1,43,0,20
1,43,84,40
1,43,0,12
1,47,84,18
1,47,0,23
1,38,84,37
1,38,0,16
1,42,84,14
1,42,0,14
1,38,84,16
1,38,0,17
1,43,84,13
1,43,0,20
1,43,84,40
1,43,0,19
1,47,84,41
1,47,0,14
1,42,84,76
1,42,0,12
1,43,84,18
1,43,0,20
1,43,84,40
1,43,0,10
1,47,84,20
1,47,0,24
1,38,84,36
1,38,0,16
1,42,84,14
1,42,0,15
1,38,84,15
1,38,0,17
1,38,84,13
1,38,0,20
1,38,84,40
1,38,0,26
1,42,84,34
1,42,0,19
1,36,84,71
1,36,0,17
1,38,84,13
1,38,0,20
1,38,84,40
1,38,0,12
1,42,84,18
1,42,0,23
1,33,84,37
1,33,0,16
1,36,84,14
1,36,0,14
1,33,84,16
1,33,0,17
1,38,84,13
1,38,0,20
1,38,84,40
1,38,0,19
1,42,84,41
1,42,0,14
1,36,84,76
1,36,0,12
1,38,84,18
1,38,0,20
1,38,84,40
1,38,0,10
1,42,84,20
1,42,0,24
1,33,84,36
1,33,0,16
1,36,84,14
1,36,0,15
1,33,84,15
1,33,0,17
1,38,85,13
1,38,0,26
1,38,59,34
1,38,0,34
1,42,80,26
1,42,0,39
1,38,82,81
1,38,0,29
1,38,68,31
1,38,0,29
1,42,85,1
1,42,0,28
1,33,64,32
1,33,0,30
1,36,63,0
1,33,55,30
1,36,0,5
1,38,87,25
1,33,0,15
1,38,0,18
1,38,80,27
1,38,0,28
1,42,87,32
1,42,0,37
1,38,78,83
1,38,0,29
1,38,76,31
1,38,0,30
1,42,66,0
1,42,0,22
1,33,57,38
1,33,0,26
1,36,66,4
1,36,0,23
1,43,85,37
1,43,0,26
1,43,59,34
1,43,0,34
1,47,80,26
1,47,0,39
1,43,82,81
1,43,0,29
1,43,68,31
1,43,0,29
1,47,85,1
1,47,0,28
1,38,64,32
1,38,0,30
1,42,63,0
1,38,55,30
1,42,0,5
1,43,87,25
1,38,0,15
1,43,0,18
1,43,80,27
1,43,0,28
1,47,87,32
1,47,0,37
1,43,78,83
1,43,0,29
1,43,76,31
1,43,0,30
1,47,66,0
1,47,0,22
1,38,57,38
1,38,0,26
1,42,66,4
1,42,0,23
1,43,85,37
1,43,0,30
1,43,78,30
1,43,0,29
1,47,82,31
1,47,0,33
1,38,57,57
1,38,0,33
1,43,82,0
1,43,0,29
1,43,72,28
1,43,0,28
1,47,74,2
1,47,0,27
1,38,61,33
1,38,0,19
1,42,60,11
1,38,51,30
1,42,0,1
1,38,0,26
1,43,82,3
1,43,0,30
1,43,72,30
1,43,0,29
1,47,85,31
1,47,0,31
1,38,55,59
1,38,0,20
1,43,82,10
1,43,0,30
1,43,74,30
1,43,0,30
1,47,80,0
1,47,0,29
1,38,56,31
1,38,0,25
1,42,64,5
1,38,82,30
1,42,0,1
1,38,0,29
1,38,85,0
1,38,0,30
1,38,78,30
1,38,0,29
1,42,82,31
1,42,0,33
1,33,57,57
1,33,0,33
1,38,82,0
1,38,0,29
1,38,72,28
1,38,0,28
1,42,74,2
1,42,0,27
1,33,61,33
1,33,0,19
1,36,60,11
1,33,51,30
1,36,0,1
1,33,0,26
1,38,82,3
1,38,0,30
1,38,72,30
1,38,0,29
1,42,85,31
1,42,0,31
1,33,55,59
1,33,0,20
1,38,82,10
1,38,0,30
1,38,74,30
1,38,0,30
1,42,80,0
1,42,0,29
1,33,56,31
1,33,0,25
1,36,64,5
1,33,82,30
1,36,0,1
1,33,0,29
1,38,82,0
1,38,0,27
1,38,70,33
1,38,0,31
1,42,91,29
1,42,0,30
1,36,64,60
1,36,0,22
1,38,82,8
1,38,0,27
1,38,72,33
1,38,0,27
1,42,85,3
1,42,0,30
1,33,52,60
1,33,0,23
1,36,57,7
1,36,0,18
1,38,80,12
1,38,0,28
1,38,60,32
1,38,0,27
1,42,89,33
1,42,0,32
1,36,57,58
1,36,0,19
1,38,82,11
1,38,0,27
1,38,60,33
1,38,0,20
1,42,70,10
1,42,0,47
1,33,51,13
1,33,0,18
1,36,53,12
1,36,0,26
1,43,84,34
1,43,0,20
1,43,84,40
1,43,0,26
1,47,84,34
1,47,0,19
1,42,84,71
1,42,0,17
1,43,84,13
1,43,0,20
1,43,84,40
1,43,0,12
1,47,84,18
1,47,0,23
1,38,84,37
1,38,0,16
1,42,84,14
1,42,0,14
1,38,84,16
1,38,0,17
1,43,84,13
1,43,0,20
1,43,84,40
1,43,0,19
1,47,84,41
1,47,0,14
1,42,84,76
1,42,0,12
1,43,84,18
1,43,0,20
1,43,84,40
1,43,0,10
1,47,84,20
1,47,0,24
1,38,84,36
1,38,0,16
1,42,84,14
1,42,0,15
1,38,84,15
1,38,0,17
1,43,82,13
1,43,0,27
1,43,70,33
1,43,0,31
1,47,91,29
1,47,0,30
1,42,64,60
1,42,0,22
1,43,82,8
1,43,0,27
1,43,72,33
1,43,0,27
1,47,85,3
1,47,0,30
1,38,52,60
1,38,0,23
1,42,57,7
1,42,0,18
1,43,80,12
1,43,0,28
1,43,60,32
1,43,0,27
1,47,89,33
1,47,0,32
1,42,57,58
1,42,0,19
1,43,82,11
1,43,0,27
1,43,60,33
1,43,0,20
1,47,70,10
1,47,0,47
1,38,51,13
1,38,0,18
1,42,53,12
1,42,0,26
1,43,84,34
1,43,0,20
1,43,84,40
1,43,0,26
1,47,84,34
1,47,0,19
1,42,84,71
1,42,0,17
1,43,84,13
1,43,0,20
1,43,84,40
1,43,0,12
1,47,84,18
1,47,0,23
1,38,84,37
1,38,0,16
1,42,84,14
1,42,0,14
1,38,84,16
1,38,0,17
1,43,84,13
1,43,0,20
1,43,84,40
1,43,0,19
1,47,84,41
1,47,0,14
1,42,84,76
1,42,0,12
1,43,84,18
1,43,0,20
1,43,84,40
1,43,0,10
1,47,84,20
1,47,0,24
1,38,84,36
1,38,0,16
1,42,84,14
1,42,0,15
1,38,84,15
1,38,0,17
1,43,85,13
1,43,0,30
1,43,78,30
1,43,0,29
1,47,82,31
1,47,0,33
1,38,57,57
1,38,0,33
1,43,82,0
1,43,0,29
1,43,72,28
1,43,0,28
1,47,74,2
1,47,0,27
1,38,61,33
1,38,0,19
1,42,60,11
1,38,51,30
1,42,0,1
1,38,0,26
1,43,82,3
1,43,0,30
1,43,72,30
1,43,0,29
1,47,85,31
1,47,0,31
1,38,55,59
1,38,0,20
1,43,82,10
1,43,0,30
1,43,74,30
1,43,0,30
1,47,80,0
1,47,0,29
1,38,56,31
1,38,0,25
1,42,64,5
1,38,82,30
1,42,0,1
1,38,0,29
1,38,84,0
1,38,0,20
1,38,84,40
1,38,0,26
1,42,84,34
1,42,0,19
1,36,84,71
1,36,0,17
1,38,84,13
1,38,0,20
1,38,84,40
1,38,0,12
1,42,84,18
1,42,0,23
1,33,84,37
1,33,0,16
1,36,84,14
1,36,0,14
1,33,84,16
1,33,0,17
1,38,84,13
1,38,0,20
1,38,84,40
1,38,0,19
1,42,84,41
1,42,0,14
1,36,84,76
1,36,0,12
1,38,84,18
1,38,0,20
1,38,84,40
1,38,0,10
1,42,84,20
1,42,0,24
1,33,84,36
1,33,0,16
1,36,84,14
1,36,0,15
1,33,84,15
1,33,0,17
1,38,85,13
1,38,0,30
1,38,78,30
1,38,0,29
1,42,82,31
1,42,0,33
1,33,57,57
1,33,0,33
1,38,82,0
1,38,0,29
1,38,72,28
1,38,0,28
1,42,74,2
1,42,0,27
1,33,61,33
1,33,0,19
1,36,60,11
1,33,51,30
1,36,0,1
1,33,0,26
1,38,82,3
1,38,0,30
1,38,72,30
1,38,0,29
1,42,85,31
1,42,0,31
1,33,55,59
1,33,0,20
1,38,82,10
1,38,0,30
1,38,74,30
1,38,0,30
1,42,80,0
1,42,0,29
1,33,56,31
1,33,0,25
1,36,64,5
1,33,82,30
1,36,0,1
1,33,0,29
1,43,82,0
1,43,0,27
1,43,70,33
1,43,0,31
1,47,91,29
1,47,0,30
1,42,64,60
1,42,0,22
1,43,82,8
1,43,0,27
1,43,72,33
1,43,0,27
1,47,85,3
1,47,0,30
1,38,52,60
1,38,0,23
1,42,57,7
1,42,0,18
1,43,80,12
1,43,0,28
1,43,60,32
1,43,0,27
1,47,89,33
1,47,0,32
1,42,57,58
1,42,0,19
1,43,82,11
1,43,0,27
1,43,60,33
1,43,0,20
1,47,70,10
1,47,0,47
1,38,51,13
1,38,0,18
1,42,53,12
1,42,0,26
1,43,85,34
1,43,0,26
1,43,59,34
1,43,0,34
1,47,80,26
1,47,0,39
1,43,82,81
1,43,0,29
1,43,68,31
1,43,0,29
1,47,85,1
1,47,0,28
1,38,64,32
1,38,0,30
1,42,63,0
1,38,55,30
1,42,0,5
1,43,87,25
1,38,0,15
1,43,0,18
1,43,80,27
1,43,0,28
1,47,87,32
1,47,0,37
1,43,78,83
1,43,0,29
1,43,76,31
1,43,0,30
1,47,66,0
1,47,0,22
1,38,57,38
1,38,0,26
1,42,66,4
1,42,0,23
1,38,85,37
1,38,0,30
1,38,78,30
1,38,0,29
1,42,82,31
1,42,0,33
1,33,57,57
1,33,0,33
1,38,82,0
1,38,0,29
1,38,72,28
1,38,0,28
1,42,74,2
1,42,0,27
1,33,61,33
1,33,0,19
1,36,60,11
1,33,51,30
1,36,0,1
1,33,0,26
1,38,82,3
1,38,0,30
1,38,72,30
1,38,0,29
1,42,85,31
1,42,0,31
1,33,55,59
1,33,0,20
1,38,82,10
1,38,0,30
1,38,74,30
1,38,0,30
1,42,80,0
1,42,0,29
1,33,56,31
1,33,0,25
1,36,64,5
1,33,82,30
1,36,0,1
1,33,0,29
1,38,82,0
1,38,0,27
1,38,70,33
1,38,0,31
1,42,91,29
1,42,0,30
1,36,64,60
1,36,0,22
1,38,82,8
1,38,0,27
1,38,72,33
1,38,0,27
1,42,85,3
1,42,0,30
1,33,52,60
1,33,0,23
1,36,57,7
1,36,0,18
1,38,80,12
1,38,0,28
1,38,60,32
1,38,0,27
1,42,89,33
1,42,0,32
1,36,57,58
1,36,0,19
1,38,82,11
1,38,0,27
1,38,60,33
1,38,0,20
1,42,70,10
1,42,0,47
1,33,51,13
1,33,0,18
1,36,53,12
1,36,0,26
1,43,82,34
1,43,0,27
1,43,70,33
1,43,0,31
1,47,91,29
1,47,0,30
1,42,64,60
1,42,0,22
1,43,82,8
1,43,0,27
1,43,72,33
1,43,0,27
1,47,85,3
1,47,0,30
1,38,52,60
1,38,0,23
1,42,57,7
1,42,0,18
1,36,82,12
1,36,0,27
1,36,70,33
1,36,0,31
1,39,91,29
1,39,0,30
1,34,64,60
1,34,0,22
1,36,82,8
1,36,0,27
1,36,72,33
1,36,0,27
1,39,85,3
1,39,0,30
1,31,52,60
1,31,0,23
1,34,57,7
1,34,0,18
1,36,82,12
1,36,0,27
1,36,70,33
1,36,0,31
1,39,91,29
1,39,0,30
1,34,64,60
1,34,0,22
1,36,82,8
1,36,0,27
1,36,72,33
1,36,0,27
1,39,85,3
1,39,0,30
1,31,52,60
1,31,0,23
1,34,57,7
1,34,0,18
1,43,85,12
1,43,0,30
1,43,78,30
1,43,0,29
1,47,82,31
1,47,0,33
1,38,57,57
1,38,0,33
1,43,82,0
1,43,0,29
1,43,72,28
1,43,0,28
1,47,74,2
1,47,0,27
1,38,61,33
1,38,0,19
1,42,60,11
1,38,51,30
1,42,0,1
1,38,0,26
1,43,85,3
1,43,0,30
1,43,78,30
1,43,0,29
1,47,82,31
1,47,0,33
1,38,57,57
1,38,0,33
1,43,82,0
1,43,0,29
1,43,72,28
1,43,0,28
1,47,74,2
1,47,0,27
1,38,61,33
1,38,0,19
1,42,60,11
1,38,51,30
1,42,0,1
1,38,0,26
1,36,85,3
1,36,0,30
1,36,78,30
1,36,0,29
1,39,82,31
1,39,0,33
1,31,57,57
1,31,0,33
1,36,82,0
1,36,0,29
1,36,72,28
1,36,0,28
1,39,74,2
1,39,0,27
1,31,61,33
1,31,0,19
1,34,60,11
1,31,51,30
1,34,0,1
1,31,0,26
1,36,84,3
1,36,0,20
1,36,84,40
1,36,0,26
1,39,84,34
1,39,0,19
1,34,84,71
1,34,0,17
1,36,84,13
1,36,0,20
1,36,84,40
1,36,0,12
1,39,84,18
1,39,0,23
1,31,84,37
1,31,0,16
1,34,84,14
1,34,0,14
1,31,84,16
1,31,0,17
1,43,82,13
1,43,0,27
1,43,70,33
1,43,0,31
1,47,91,29
1,47,0,30
1,42,64,60
1,42,0,22
1,43,82,8
1,43,0,27
1,43,72,33
1,43,0,27
1,47,85,3
1,47,0,30
1,38,52,60
1,38,0,23
1,42,57,7
1,42,0,18
1,40,82,12
1,40,0,27
1,40,70,33
1,40,0,31
1,44,91,29
1,44,0,30
1,38,64,60
1,38,0,22
1,40,82,8
1,40,0,27
1,40,72,33
1,40,0,27
1,44,85,3
1,44,0,30
1,35,52,60
1,35,0,23
1,38,57,7
1,38,0,18
1,33,85,12
1,33,0,30
1,33,78,30
1,33,0,29
1,37,82,31
1,37,0,33
1,28,57,57
1,28,0,33
1,33,82,0
1,33,0,29
1,33,72,28
1,33,0,28
1,37,74,2
1,37,0,27
1,28,61,33
1,28,0,19
1,31,60,11
1,28,51,30
1,31,0,1
1,28,0,26
1,33,85,3
1,33,0,26
1,33,59,34
1,33,0,34
1,37,80,26
1,37,0,39
1,33,82,81
1,33,0,29
1,33,68,31
1,33,0,29
1,37,85,1
1,37,0,28
1,28,64,32
1,28,0,30
1,31,63,0
1,28,55,30
1,31,0,5
1,28,0,25
1,38,85,0
1,38,0,26
1,38,59,34
1,38,0,34
1,42,80,26
1,42,0,39
1,38,82,81
1,38,0,29
1,38,68,31
1,38,0,29
1,42,85,1
1,42,0,28
1,33,64,32
1,33,0,30
1,36,63,0
1,33,55,30
1,36,0,5
1,33,0,25
1,38,85,0
1,38,0,26
1,38,59,34
1,38,0,34
1,42,80,26
1,42,0,39
1,38,82,81
1,38,0,29
1,38,68,31
1,38,0,29
1,42,85,1
1,42,0,28
1,33,64,32
1,33,0,30
1,36,63,0
1,33,55,30
1,36,0,5
1,33,0,25
1,43,84,0
1,43,0,20
1,43,84,40
1,43,0,26
1,47,84,34
1,47,0,19
1,42,84,71
1,42,0,17
1,43,84,13
1,43,0,20
1,43,84,40
1,43,0,12
1,47,84,18
1,47,0,23
1,38,84,37
1,38,0,16
1,42,84,14
1,42,0,14
1,38,84,16
1,38,0,17
1,43,84,13
1,43,0,20
1,43,84,40
1,43,0,26
1,47,84,34
1,47,0,19
1,42,84,71
1,42,0,17
1,43,84,13
1,43,0,20
1,43,84,40
1,43,0,12
1,47,84,18
1,47,0,23
1,38,84,37
1,38,0,16
1,42,84,14
1,42,0,14
1,38,84,16
1,38,0,17
1,43,84,13
1,43,0,20
1,43,84,40
1,43,0,19
1,47,84,41
1,47,0,14
1,42,84,76
1,42,0,12
1,43,84,18
1,43,0,20
1,43,84,40
1,43,0,10
1,47,84,20
1,47,0,24
1,38,84,36
1,38,0,16
1,42,84,14
1,42,0,15
1,38,84,15
1,38,0,17
1,38,82,13
1,38,0,27
1,38,70,33
1,38,0,31
1,42,91,29
1,42,0,30
1,36,64,60
1,36,0,22
1,38,82,8
1,38,0,27
