track,note,velocity,time
1,60,57,7
1,64,87,3
1,67,83,0
1,48,69,2
1,52,59,300
1,60,0,57
1,55,80,2
1,48,0,28
1,60,70,13
1,55,0,15
1,67,0,22
1,64,0,2
1,60,0,3
1,45,77,12
1,60,88,3
1,64,83,0
1,57,90,1
1,52,0,4
1,45,90,50
1,57,73,59
1,60,87,57
1,57,0,11
1,60,0,10
1,69,97,43
1,48,71,60
1,72,81,25
1,57,0,2
1,69,0,3
1,45,0,1
1,57,87,30
1,60,0,30
1,72,0,17
1,76,37,4
1,45,0,9
1,60,84,1
1,48,0,22
1,76,0,1
1,64,0,13
1,60,0,6
1,57,0,4
1,41,78,1
1,41,78,0
1,57,93,3
1,60,93,2
1,53,87,1
1,53,51,37
1,57,81,52
1,41,0,5
1,53,0,4
1,53,95,45
1,65,82,61
1,53,0,3
1,57,0,5
1,65,0,98
1,41,0,12
1,41,81,6
1,53,0,75
1,57,0,20
1,60,0,8
1,41,0,0
1,62,31,0
1,43,86,2
1,43,89,2
1,59,89,0
1,55,75,1
1,47,85,29
1,43,0,28
1,50,110,4
1,55,77,27
1,47,0,1
1,50,0,3
1,59,87,28
1,62,95,36
1,55,0,3
1,43,0,4
1,59,0,5
1,62,0,27
1,67,79,1
1,71,57,39
1,67,63,12
1,74,81,34
1,79,43,49
1,74,0,72
1,67,0,2
1,71,0,0
1,79,0,5
1,59,0,41
1,55,0,1
1,62,0,0
1,67,0,1
1,64,69,12
1,67,55,0
1,59,77,0
1,48,95,0
1,60,72,0
1,60,0,48
1,59,0,0
1,64,0,0
1,67,0,0
1,48,0,0
1,48,97,0
1,64,85,0
1,67,89,0
1,59,77,0
1,60,77,0
1,67,0,262
1,64,0,0
1,48,0,16
1,59,0,0
1,60,0,0
1,45,77,0
1,60,85,0
1,57,90,0
1,64,77,0
1,64,0,134
1,57,0,0
1,60,0,0
1,64,58,17
1,60,76,0
1,57,67,0
1,55,73,0
1,55,0,264
1,57,0,0
1,45,0,15
1,64,0,0
1,65,41,0
1,57,77,0
1,62,81,0
1,50,80,0
1,60,0,14
1,62,0,26
1,65,0,0
1,57,0,0
1,65,54,0
1,62,79,0
1,57,69,0
1,60,81,0
1,60,0,262
1,62,0,0
1,50,0,10
1,65,0,0
1,57,0,0
1,62,76,0
1,59,84,0
1,43,85,0
1,55,79,0
1,55,0,133
1,62,0,30
1,59,0,0
1,59,69,0
1,62,55,0
1,53,73,0
1,55,73,0
1,43,0,90
1,43,90,30
1,53,0,30
1,55,0,0
1,59,0,0
1,62,0,0
1,59,58,30
1,62,43,0
1,53,65,0
1,55,67,0
1,55,0,37
1,62,0,0
1,43,0,0
1,59,0,0
1,53,0,0
1,53,77,0
1,65,83,0
1,60,86,0
1,69,79,0
1,60,0,8
1,53,0,1
1,65,0,0
1,50,84,0
1,60,82,0
1,62,78,0
1,65,65,0
1,50,0,180
1,69,0,30
1,65,0,0
1,62,0,19
1,48,98,0
1,64,91,0
1,67,89,0
1,67,0,141
1,64,0,0
1,60,0,30
1,48,0,30
1,64,53,11
1,60,53,0
1,55,55,0
1,45,97,0
1,57,45,0
1,57,0,134
1,55,0,0
1,64,0,30
1,60,0,0
1,45,0,0
1,53,84,11
1,69,63,0
1,60,79,0
1,65,85,0
1,53,0,104
1,69,0,16
1,60,0,0
1,65,0,0
1,65,87,0
1,56,67,0
1,53,61,0
1,68,96,0
1,48,85,0
1,60,57,0
1,68,0,258
1,53,0,0
1,65,0,0
1,56,0,0
1,60,0,20
1,60,45,0
1,64,85,0
1,67,82,0
1,67,0,170
1,48,0,0
1,60,0,0
1,64,0,0
1,55,65,11
1,43,89,0
1,59,49,0
1,62,37,0
1,62,0,673
1,59,0,0
1,55,0,0
1,43,0,3
1,64,69,2
1,67,55,0
1,59,77,0
1,48,95,0
1,60,72,0
1,60,0,48
1,59,0,0
1,64,0,0
1,67,0,0
1,48,0,0
1,48,97,0
1,64,85,0
1,67,89,0
1,59,77,0
1,60,77,0
1,67,0,262
1,64,0,0
1,48,0,16
1,59,0,0
1,60,0,0
1,45,77,0
1,60,85,0
1,57,90,0
1,64,77,0
1,64,0,134
1,57,0,0
1,60,0,0
1,64,58,17
1,60,76,0
1,57,67,0
1,55,73,0
1,55,0,264
1,57,0,0
1,45,0,15
1,64,0,0
1,65,41,0
1,57,77,0
1,62,81,0
1,50,80,0
1,60,0,14
1,62,0,26
1,65,0,0
1,57,0,0
1,65,54,0
1,62,79,0
1,57,69,0
1,60,81,0
1,60,0,262
1,62,0,0
1,50,0,10
1,65,0,0
1,57,0,0
1,62,76,0
1,59,84,0
1,43,85,0
1,55,79,0
1,55,0,133
1,62,0,30
1,59,0,0
1,59,69,0
1,62,55,0
1,53,73,0
1,55,73,0
1,43,0,90
1,43,90,30
1,53,0,30
1,55,0,0
1,59,0,0
1,62,0,0
1,59,58,30
1,62,43,0
1,53,65,0
1,55,67,0
1,55,0,37
1,62,0,0
1,43,0,0
1,59,0,0
1,53,0,0
1,53,77,0
1,65,83,0
1,60,86,0
1,69,79,0
1,60,0,8
1,53,0,1
1,65,0,0
1,50,84,0
1,60,82,0
1,62,78,0
1,65,65,0
1,50,0,180
1,69,0,30
1,65,0,0
1,62,0,19
1,48,98,0
1,64,91,0
1,67,89,0
1,67,0,141
1,64,0,0
1,60,0,30
1,48,0,30
1,64,53,11
1,60,53,0
1,55,55,0
1,45,97,0
1,57,45,0
1,57,0,134
1,55,0,0
1,64,0,30
1,60,0,0
1,45,0,0
1,53,84,11
1,69,63,0
1,60,79,0
1,65,85,0
1,53,0,104
1,69,0,16
1,60,0,0
1,65,0,0
1,65,87,0
1,56,67,0
1,53,61,0
1,68,96,0
1,48,85,0
1,60,57,0
1,68,0,258
1,53,0,0
1,65,0,0
1,56,0,0
1,60,0,20
1,60,45,0
1,64,85,0
1,67,82,0
1,67,0,170
1,48,0,0
1,60,0,0
1,64,0,0
1,55,65,11
1,43,89,0
1,59,49,0
1,62,37,0
1,48,101,221
1,60,98,0
1,64,97,0
1,67,97,0
1,62,0,2
1,43,0,0
1,55,0,0
1,59,0,3
1,64,0,85
1,67,0,0
1,60,0,0
1,64,101,30
1,60,104,0
1,67,101,0
1,48,0,30
1,64,0,60
1,60,0,0
1,67,0,0
1,60,95,6
1,64,93,0
1,57,85,0
1,55,92,0
1,55,0,97
1,60,0,0
1,64,0,0
1,57,0,0
1,55,95,0
1,57,93,0
1,60,99,0
1,64,98,0
1,55,0,60
1,57,0,30
1,60,0,0
1,64,0,0
1,65,87,3
1,69,93,0
1,50,98,0
1,62,83,0
1,60,72,0
1,60,0,2
1,69,0,90
1,65,0,0
1,62,0,0
1,69,98,0
1,65,96,0
1,60,95,0
1,62,95,0
1,50,0,60
1,60,0,30
1,62,0,0
1,65,0,12
1,69,0,0
1,50,69,0
1,71,90,0
1,62,79,0
1,59,79,0
1,55,77,0
1,67,95,0
1,65,84,0
1,65,0,10
1,62,0,60
1,71,0,0
1,67,0,0
1,62,93,30
1,67,98,0
1,71,99,0
1,50,0,60
1,67,0,30
1,62,0,0
1,59,0,0
1,71,0,0
1,55,0,23
1,64,95,0
1,60,96,0
1,67,96,0
1,48,99,0
1,67,0,84
1,64,0,0
1,60,0,0
1,60,101,30
1,64,99,0
1,67,99,0
1,67,0,90
1,64,0,0
1,60,0,0
1,48,0,15
1,64,100,0
1,60,99,0
1,57,95,0
1,55,97,0
1,55,0,77
1,57,0,0
1,60,0,30
1,64,0,0
1,64,99,0
1,57,95,0
1,60,101,0
1,55,95,0
1,55,0,60
1,64,0,30
1,57,0,0
1,60,0,0
1,50,99,7
1,65,97,0
1,69,104,0
1,62,87,0
1,62,0,102
1,69,0,0
1,65,0,0
1,69,97,0
1,65,97,0
1,62,97,0
1,60,95,0
1,60,0,90
1,62,0,0
1,50,0,12
1,69,0,0
1,65,0,0
1,50,79,0
1,67,94,0
1,71,93,0
1,55,87,0
1,62,88,0
1,59,93,0
1,62,0,104
1,71,0,0
1,67,0,0
1,62,100,0
1,67,105,0
1,71,101,0
1,71,0,120
1,55,0,0
1,50,0,0
1,59,0,0
1,67,0,0
1,62,0,0
1,48,100,0
1,64,95,0
1,67,95,0
1,60,95,0
1,60,0,26
1,64,0,30
1,60,62,0
1,67,0,30
1,60,0,13
1,60,99,0
1,64,101,0
1,67,101,0
1,60,0,30
1,67,0,30
1,60,96,0
1,60,0,60
1,64,0,0
1,48,0,0
1,64,93,0
1,48,101,0
1,60,89,0
1,70,102,0
1,60,0,18
1,60,54,30
1,60,0,60
1,70,0,0
1,64,0,0
1,64,99,0
1,70,101,0
1,60,99,0
1,48,0,30
1,60,0,30
1,48,98,0
1,64,0,30
1,70,0,23
1,60,13,0
1,65,88,0
1,69,93,0
1,57,86,0
1,53,92,0
1,60,0,19
1,60,69,30
1,60,0,30
1,65,0,0
1,69,0,0
1,60,99,30
1,65,101,0
1,69,101,0
1,60,0,30
1,53,0,30
1,57,0,0
1,60,89,0
1,65,0,30
1,53,5,0
1,69,0,16
1,65,93,0
1,56,101,0
1,68,106,0
1,60,0,15
1,60,70,30
1,60,0,30
1,68,0,30
1,65,0,0
1,65,105,0
1,68,117,0
1,60,99,0
1,53,0,30
1,48,0,0
1,56,0,0
1,56,94,30
1,53,81,0
1,65,0,30
1,56,0,19
1,60,0,0
1,68,0,0
1,53,0,0
1,60,72,0
1,67,96,0
1,48,95,0
1,64,99,0
1,64,0,77
1,60,0,0
1,67,0,0
1,64,101,30
1,67,102,0
1,60,101,0
1,48,0,30
1,64,0,30
1,67,0,0
1,60,0,0
1,48,95,0
1,48,0,22
1,60,94,0
1,64,87,0
1,55,94,0
1,57,90,0
1,57,0,80
1,55,0,0
1,64,0,30
1,60,0,0
1,55,93,0
1,57,89,0
1,60,101,0
1,64,101,0
1,57,0,30
1,55,0,0
1,60,0,30
1,64,0,0
1,50,99,13
1,62,86,0
1,65,93,0
1,69,96,0
1,69,0,72
1,65,0,0
1,62,0,0
1,62,98,30
1,65,99,0
1,69,99,0
1,50,0,30
1,62,0,60
1,65,0,0
1,69,0,0
1,69,95,17
1,65,97,0
1,57,65,0
1,60,98,0
1,53,82,0
1,48,83,0
1,48,0,78
1,69,0,0
1,57,0,0
1,60,0,0
1,53,0,0
1,65,0,17
1,71,88,0
1,59,98,0
1,62,95,0
1,67,95,0
1,55,98,0
1,50,90,0
1,50,0,90
1,59,0,0
1,62,0,0
1,71,0,0
1,55,0,0
1,67,0,0
1,57,104,30
1,65,97,0
1,69,95,0
1,53,101,0
1,60,99,0
1,60,0,117
1,69,0,0
1,65,0,0
1,60,97,0
1,65,101,0
1,69,101,0
1,57,0,60
1,53,0,0
1,60,0,30
1,65,0,15
1,69,0,0
1,50,87,0
1,71,92,0
1,59,93,0
1,67,96,0
1,55,93,0
1,62,99,0
1,62,0,44
1,62,60,0
1,71,0,30
1,67,0,30
1,67,99,0
1,71,104,0
1,62,0,30
1,62,85,30
1,62,0,24
1,71,0,0
1,59,0,0
1,50,0,0
1,55,0,0
1,67,0,0
1,48,95,0
1,60,99,0
1,64,96,0
1,67,96,0
1,48,0,90
1,48,106,30
1,60,0,30
1,67,0,0
1,64,0,0
1,64,105,30
1,60,105,0
1,67,104,0
1,48,0,30
1,48,99,30
1,48,0,30
1,67,0,0
1,60,0,0
1,64,0,0
1,57,92,30
1,60,95,0
1,64,90,0
1,43,105,0
1,45,108,0
1,45,0,30
1,43,0,0
1,45,87,30
1,57,0,30
1,64,0,0
1,60,0,0
1,57,99,0
1,64,102,0
1,60,106,0
1,60,0,30
1,64,0,0
1,57,0,0
1,64,95,60
1,57,95,0
1,60,96,0
1,45,0,180
1,45,101,0
1,64,0,30
1,60,0,0
1,57,0,0
1,64,93,30
1,57,95,0
1,60,99,0
1,60,0,30
1,57,0,0
1,64,0,0
1,45,0,30
1,62,93,0
1,65,97,0
1,50,100,0
1,69,105,0
1,69,0,90
1,62,0,0
1,65,0,0
1,65,99,0
1,62,95,0
1,69,99,0
1,69,0,30
1,62,0,0
1,65,0,0
1,50,0,30
1,65,92,30
1,69,86,0
1,62,93,0
1,50,95,0
1,50,0,120
1,50,99,0
1,62,0,30
1,65,0,30
1,69,0,0
1,65,108,0
1,69,104,0
1,62,104,0
1,50,0,30
1,50,105,30
1,65,0,30
1,62,0,0
1,69,0,30
1,50,0,0
1,65,99,0
1,60,97,0
1,68,113,0
1,53,102,0
1,60,0,60
1,65,0,30
1,68,0,0
1,60,101,0
1,65,104,0
1,68,113,0
1,68,0,30
1,65,0,0
1,60,0,0
1,53,0,60
1,62,98,0
1,67,99,0
1,55,101,0
1,71,104,0
1,65,92,0
1,65,0,30
1,67,0,60
1,62,0,0
1,71,0,0
1,71,98,30
1,67,99,0
1,62,97,0
1,55,0,30
1,55,110,30
1,71,0,30
1,62,0,0
1,67,0,0
1,71,98,30
1,67,98,0
1,62,99,0
1,62,0,30
1,67,0,0
1,71,0,0
1,55,0,30
1,48,93,0
1,64,97,0
1,60,99,0
1,67,99,0
1,67,0,21
1,60,0,0
1,64,0,0
1,67,97,0
1,64,95,0
1,60,95,0
1,60,0,22
1,64,0,0
1,67,0,0
1,60,87,60
1,64,83,0
1,67,83,0
1,67,0,72
1,64,0,0
1,60,0,0
1,64,94,30
1,67,92,0
1,60,89,0
1,48,0,30
1,48,100,30
1,64,0,30
1,60,0,0
1,67,0,0
1,48,0,30
1,64,101,0
1,67,100,0
1,60,99,0
1,60,0,31
1,67,0,0
1,64,0,0
1,45,96,0
1,64,94,90
1,57,96,0
1,60,97,0
1,60,0,30
1,57,0,0
1,64,0,0
1,64,85,60
1,60,94,0
1,55,90,0
1,57,86,0
1,45,0,120
1,45,104,0
1,55,0,30
1,57,0,0
1,64,0,30
1,60,0,0
1,64,95,0
1,57,102,0
1,60,100,0
1,59,98,0
1,59,0,30
1,45,0,0
1,45,101,30
1,64,0,30
1,60,0,0
1,57,0,0
1,45,0,30
1,65,99,0
1,69,101,0
1,62,97,0
1,50,108,0
1,62,0,90
1,65,0,0
1,69,0,0
1,65,97,0
1,69,95,0
1,60,95,0
1,62,93,0
1,62,0,30
1,69,0,0
1,60,0,0
1,65,0,0
1,60,95,60
1,69,93,0
1,65,95,0
1,62,87,0
1,50,0,150
1,50,116,30
1,65,0,30
1,62,0,0
1,60,0,0
1,69,0,0
1,69,99,30
1,65,104,0
1,60,96,0
1,62,97,0
1,62,0,30
1,65,0,0
1,60,0,0
1,69,0,30
1,50,0,0
1,53,99,0
1,65,97,0
1,68,113,0
1,60,95,0
1,60,0,90
1,68,0,0
1,65,0,0
1,65,104,0
1,60,97,0
1,68,108,0
1,68,0,30
1,60,0,0
1,65,0,0
1,53,0,30
1,62,95,30
1,67,98,0
1,71,98,0
1,55,91,0
1,71,0,90
1,62,0,0
1,67,0,0
1,71,100,30
1,67,100,0
1,62,96,0
1,55,0,30
1,55,117,30
1,71,0,30
1,62,0,0
1,67,0,0
1,62,95,30
1,67,95,0
1,71,94,0
1,71,0,30
1,55,0,0
1,62,0,0
1,67,0,0
1,63,90,30
1,67,89,0
1,70,81,0
1,51,83,0
1,70,0,90
1,63,0,0
1,67,0,0
1,63,92,0
1,67,89,0
1,70,87,0
1,70,0,30
1,51,0,0
1,63,0,0
1,67,0,0
1,70,83,60
1,67,93,0
1,63,95,0
1,51,90,0
1,63,0,120
1,70,0,0
1,67,0,0
1,63,96,0
1,70,89,0
1,67,92,0
1,51,0,30
1,51,116,30
1,51,0,60
1,50,108,0
1,67,0,30
1,63,0,0
1,70,0,0
1,50,0,30
1,48,89,0
1,63,100,0
1,60,89,0
1,67,96,0
1,67,0,60
1,60,0,0
1,63,0,0
1,63,102,30
1,60,91,0
1,67,96,0
1,67,0,30
1,60,0,0
1,63,0,0
1,63,100,60
1,67,95,0
1,60,87,0
1,48,0,90
1,48,97,30
1,63,0,30
1,60,0,0
1,67,0,0
1,67,101,30
1,63,110,0
1,60,99,0
