track,note,velocity,time
1,45,90,0
1,52,90,0
1,57,90,0
1,61,90,0
1,57,90,0
1,45,90,0
1,52,90,0
1,57,90,0
1,61,90,0
1,57,90,0
1,45,90,0
1,52,90,0
1,57,90,0
1,61,90,0
1,57,90,0
1,45,90,0
1,52,90,0
1,57,90,0
1,61,90,0
1,57,90,0
1,45,90,0
1,50,90,0
1,45,90,0
1,52,90,0
1,57,90,0
1,52,90,0
1,45,90,0
1,55,90,0
1,55,90,0
1,57,90,0
1,53,90,0
1,53,90,0
1,57,90,0
1,52,90,0
1,52,90,0
1,57,90,0
1,50,90,0
1,50,90,0
1,57,90,0
1,49,90,0
1,45,90,0
1,50,90,0
1,43,90,0
1,45,90,0
1,57,90,0
1,52,90,0
1,49,90,0
1,45,90,0
1,52,90,0
1,49,90,0
1,45,90,0
1,40,90,0
1,45,90,0
1,40,90,0
1,45,90,0
1,52,90,0
1,50,90,0
1,45,90,0
1,50,90,0
1,45,90,0
1,43,90,0
1,38,90,0
1,43,90,0
1,38,90,0
1,45,90,0
1,52,90,512
1,57,90,0
1,61,90,0
1,52,90,512
1,57,90,0
1,61,90,0
1,38,90,4096
1,45,90,0
1,50,90,0
1,45,90,0
1,38,90,0
1,45,90,0
1,50,90,0
1,45,90,0
1,38,90,0
1,45,90,0
1,50,90,0
1,45,90,0
1,38,90,0
1,45,90,0
1,50,90,0
1,45,90,0
1,45,90,0
1,52,90,0
1,57,90,0
1,52,90,0
1,45,90,0
1,52,90,0
1,57,90,0
1,52,90,0
1,45,90,0
1,38,90,0
1,45,90,0
1,50,90,0
1,45,90,0
1,38,90,0
1,45,90,0
1,50,90,0
1,45,90,0
1,38,90,0
1,45,90,0
1,50,90,0
1,45,90,0
1,38,90,0
1,45,90,0
1,50,90,0
1,45,90,0
1,45,90,0
1,52,90,0
1,57,90,0
1,52,90,0
1,45,90,0
1,52,90,0
1,57,90,0
1,52,90,0
1,45,90,0
1,40,90,0
1,45,90,0
1,52,90,0
1,57,90,0
1,52,90,0
1,61,90,0
1,52,90,0
1,57,90,0
1,52,90,0
1,45,90,0
1,52,90,0
1,57,90,0
1,52,90,0
1,61,90,0
1,52,90,0
1,57,90,0
1,52,90,0
1,50,90,0
1,57,90,0
1,62,90,0
1,57,90,0
1,65,90,0
1,57,90,0
1,62,90,0
1,57,90,0
1,50,90,0
1,57,90,0
1,62,90,0
1,57,90,0
1,65,90,0
1,57,90,0
1,62,90,0
1,57,90,0
1,43,90,0
1,50,90,0
1,55,90,0
1,50,90,0
1,58,90,0
1,50,90,0
1,55,90,0
1,50,90,0
1,43,90,0
1,50,90,0
1,55,90,0
1,50,90,0
1,58,90,0
1,50,90,0
1,55,90,0
1,50,90,0
1,45,90,0
1,52,90,512
1,57,90,0
1,61,90,0
1,52,90,512
1,57,90,0
1,61,90,0
1,45,90,0
1,40,90,0
1,45,90,0
1,49,90,512
1,52,90,0
1,57,90,0
1,49,90,512
1,52,90,0
1,57,90,0
1,45,90,0
1,49,90,512
1,52,90,0
1,57,90,0
1,49,90,512
1,52,90,0
1,57,90,0
1,38,90,0
1,45,90,512
1,50,90,0
1,53,90,0
1,45,90,512
1,50,90,0
1,53,90,0
1,38,90,0
1,45,90,512
1,50,90,0
1,53,90,0
1,45,90,512
1,50,90,0
1,53,90,0
1,43,90,0
1,50,90,512
1,55,90,0
1,58,90,0
1,50,90,512
1,55,90,0
1,58,90,0
1,43,90,0
1,50,90,512
1,55,90,0
1,58,90,0
1,50,90,512
1,55,90,0
1,58,90,0
1,45,90,0
1,52,90,512
1,57,90,0
1,61,90,0
1,52,90,512
1,57,90,0
1,61,90,0
1,45,90,0
1,38,90,0
1,45,90,0
1,50,90,0
1,45,90,0
1,38,90,0
1,45,90,0
1,50,90,0
1,45,90,0
1,38,90,0
1,45,90,0
1,50,90,0
1,45,90,0
1,38,90,0
1,45,90,0
1,50,90,0
1,45,90,0
1,45,90,0
1,52,90,0
1,57,90,0
1,52,90,0
1,45,90,0
1,52,90,0
1,57,90,0
1,52,90,0
1,45,90,0
1,38,90,0
1,45,90,0
1,50,90,0
1,45,90,0
1,38,90,0
1,45,90,0
1,50,90,0
1,45,90,0
1,38,90,0
1,45,90,0
1,50,90,0
1,45,90,0
1,38,90,0
1,45,90,0
1,50,90,0
1,45,90,0
1,45,90,0
1,52,90,0
1,57,90,0
1,52,90,0
1,45,90,0
1,52,90,0
1,57,90,0
1,52,90,0
1,45,90,0
1,38,90,0
1,45,90,0
1,50,90,0
1,45,90,0
1,38,90,0
1,45,90,0
1,50,90,0
1,45,90,0
1,38,90,0
1,45,90,0
1,50,90,0
1,45,90,0
1,38,90,0
1,45,90,0
1,50,90,0
1,45,90,0
1,45,90,0
1,52,90,0
1,57,90,0
1,52,90,0
1,45,90,0
1,52,90,0
1,57,90,0
1,52,90,0
1,45,90,0
1,38,90,0
1,45,90,0
1,50,90,0
1,45,90,0
1,38,90,0
1,45,90,0
1,50,90,0
1,45,90,0
1,38,90,0
1,45,90,0
1,50,90,0
1,45,90,0
1,38,90,0
1,45,90,0
1,50,90,0
1,45,90,0
1,45,90,0
1,52,90,0
1,57,90,0
1,52,90,0
1,45,90,0
1,52,90,0
1,57,90,0
1,52,90,0
1,45,90,0
1,41,90,0
1,48,90,0
1,53,90,0
1,48,90,0
1,53,90,0
1,48,90,0
1,53,90,0
1,48,90,0
1,41,90,0
1,48,90,0
1,53,90,0
1,48,90,0
1,53,90,0
1,48,90,0
1,53,90,0
1,48,90,0
1,36,90,0
1,43,90,0
1,48,90,0
1,43,90,0
1,48,90,0
1,43,90,0
1,48,90,0
1,43,90,0
1,36,90,0
1,43,90,0
1,48,90,0
1,43,90,0
1,45,90,0
1,52,90,0
1,57,90,0
1,52,90,0
1,38,90,0
1,45,90,0
1,50,90,0
1,45,90,0
1,50,90,0
1,45,90,0
1,50,90,0
1,45,90,0
1,38,90,0
1,45,90,0
1,50,90,0
1,45,90,0
1,50,90,0
1,45,90,0
1,50,90,0
1,45,90,0
1,45,90,0
1,52,90,0
1,57,90,0
1,52,90,0
1,57,90,0
1,52,90,0
1,57,90,0
1,52,90,0
1,45,90,0
1,52,90,0
1,57,90,0
1,52,90,0
1,43,90,0
1,50,90,0
1,55,90,0
1,50,90,0
1,41,90,0
1,48,90,0
1,53,90,0
1,48,90,0
1,53,90,0
1,48,90,0
1,53,90,0
1,48,90,0
1,41,90,0
1,48,90,0
1,53,90,0
1,48,90,0
1,57,90,0
1,55,90,0
1,53,90,0
1,48,90,0
1,36,90,0
1,43,90,0
1,48,90,0
1,43,90,0
1,48,90,0
1,43,90,0
1,48,90,0
1,43,90,0
1,36,90,0
1,43,90,0
1,48,90,0
1,43,90,0
1,45,90,0
1,52,90,0
1,57,90,0
1,52,90,0
1,38,90,0
1,45,90,0
1,50,90,0
1,45,90,0
1,50,90,0
1,45,90,0
1,50,90,0
1,45,90,0
1,38,90,0
1,45,90,0
1,50,90,0
1,45,90,0
1,53,90,0
1,52,90,0
1,50,90,0
1,45,90,0
1,45,90,0
1,52,90,0
1,57,90,0
1,52,90,0
1,57,90,0
1,52,90,0
1,57,90,0
1,52,90,0
1,38,90,0
1,45,90,0
1,50,90,0
1,45,90,0
1,50,90,0
1,45,90,0
1,50,90,0
1,45,90,0
1,43,90,0
1,50,90,0
1,55,90,0
1,50,90,0
1,55,90,0
1,50,90,0
1,55,90,0
1,50,90,0
1,45,90,0
1,52,90,0
1,57,90,0
1,52,90,0
1,45,90,0
1,38,90,0
1,50,90,512
1,54,90,0
1,57,90,0
1,50,90,512
1,54,90,0
1,57,90,0
1,38,90,0
1,50,90,512
1,54,90,0
1,57,90,0
1,50,90,512
1,54,90,0
1,57,90,0
1,43,90,0
1,50,90,512
1,55,90,0
1,58,90,0
1,50,90,512
1,55,90,0
1,58,90,0
1,43,90,0
1,50,90,512
1,55,90,0
1,58,90,0
1,50,90,512
1,55,90,0
1,58,90,0
1,48,90,0
1,51,90,512
1,55,90,0
1,60,90,0
1,51,90,512
1,55,90,0
1,60,90,0
1,48,90,0
1,51,90,512
1,55,90,0
1,60,90,0
1,51,90,512
1,55,90,0
1,60,90,0
1,38,90,0
1,45,90,512
1,50,90,0
1,54,90,0
1,45,90,512
1,50,90,0
1,54,90,0
1,50,90,0
1,43,90,0
1,50,90,0
1,55,90,0
1,43,90,0
1,43,90,0
1,50,90,0
1,55,90,0
1,50,90,0
1,43,90,0
1,50,90,0
1,55,90,0
1,43,90,0
1,43,90,0
1,50,90,0
1,55,90,0
1,50,90,0
1,50,90,0
1,57,90,0
1,62,90,0
1,50,90,0
1,50,90,0
1,57,90,0
1,62,90,0
1,57,90,0
1,50,90,0
1,43,90,0
1,50,90,0
1,55,90,0
1,43,90,0
1,43,90,0
1,50,90,0
1,55,90,0
1,50,90,0
1,43,90,0
1,50,90,0
1,55,90,0
1,43,90,0
1,43,90,0
1,50,90,0
1,55,90,0
1,50,90,0
1,38,90,0
1,45,90,0
1,50,90,0
1,38,90,0
1,38,90,0
1,45,90,0
1,50,90,0
1,45,90,0
1,50,90,0
1,43,90,0
1,50,90,0
1,55,90,0
1,43,90,0
1,43,90,0
1,50,90,0
1,55,90,0
1,50,90,0
1,43,90,0
1,50,90,0
1,55,90,0
1,43,90,0
1,43,90,0
1,50,90,0
1,55,90,0
1,50,90,0
1,50,90,0
1,57,90,0
1,62,90,0
1,50,90,0
1,50,90,0
1,57,90,0
1,62,90,0
1,57,90,0
1,50,90,0
1,43,90,0
1,50,90,0
1,55,90,0
1,43,90,0
1,43,90,0
1,50,90,0
1,55,90,0
1,50,90,0
1,43,90,0
1,50,90,0
1,55,90,0
1,43,90,0
1,43,90,0
1,50,90,0
1,55,90,0
1,50,90,0
1,38,90,0
1,45,90,0
1,50,90,0
1,38,90,0
1,38,90,0
1,45,90,0
1,50,90,0
1,45,90,0
1,50,90,0
1,43,90,0
1,50,90,0
1,55,90,0
1,43,90,0
1,43,90,0
1,50,90,0
1,55,90,0
1,50,90,0
1,43,90,0
1,50,90,0
1,55,90,0
1,43,90,0
1,43,90,0
1,50,90,0
1,55,90,0
1,50,90,0
1,50,90,0
1,57,90,0
1,62,90,0
1,50,90,0
1,50,90,0
1,57,90,0
1,62,90,0
1,57,90,0
1,50,90,0
1,43,90,0
1,43,90,0
1,43,90,0
1,38,90,0
2,69,90,0
2,64,90,0
2,73,90,0
2,81,90,0
2,73,90,0
2,76,90,0
2,69,90,0
2,64,90,0
2,73,90,0
2,81,90,0
2,73,90,0
2,76,90,0
2,71,90,2432
2,73,90,0
2,61,90,512
2,64,90,0
2,69,90,0
2,61,90,512
2,64,90,0
2,69,90,0
2,67,90,0
2,67,90,0
2,57,90,0
2,65,90,0
2,65,90,0
2,57,90,0
2,64,90,0
2,64,90,0
2,57,90,0
2,62,90,0
2,62,90,0
2,57,90,0
2,61,90,0
2,57,90,0
2,62,90,0
2,57,90,0
2,59,90,0
2,61,90,0
2,57,90,0
2,59,90,0
2,61,90,0
2,62,90,0
2,64,90,0
2,65,90,0
2,62,90,0
2,64,90,0
2,65,90,0
2,67,90,0
2,69,90,0
2,70,90,0
2,69,90,0
2,67,90,0
2,69,90,0
2,61,90,0
2,64,90,0
2,64,90,0
2,61,90,0
2,64,90,0
2,61,90,0
2,69,90,0
2,64,90,0
2,71,90,0
2,73,90,0
2,69,90,0
2,71,90,0
2,73,90,0
2,74,90,0
2,69,90,0
2,76,90,0
2,77,90,0
2,74,90,0
2,76,90,0
2,79,90,0
2,77,90,0
2,79,90,0
2,74,90,0
2,81,90,0
2,82,90,0
2,84,90,0
2,82,90,0
2,81,90,0
2,79,90,0
2,73,90,0
2,76,90,0
2,81,90,0
2,57,90,1024
2,61,90,0
2,64,90,0
2,67,90,0
2,65,90,0
2,64,90,0
2,62,90,0
2,61,90,0
2,62,90,0
2,64,90,0
2,57,90,1024
2,61,90,0
2,64,90,0
2,67,90,0
2,65,90,0
2,64,90,0
2,62,90,0
2,61,90,0
2,59,90,0
2,57,90,0
2,77,90,0
2,76,90,0
2,73,90,0
2,69,90,0
2,65,90,0
2,64,90,0
2,61,90,0
2,57,90,0
2,69,90,0
2,64,90,0
2,71,90,0
2,73,90,0
2,69,90,512
2,71,90,0
2,73,90,0
2,74,90,0
2,69,90,0
2,76,90,0
2,77,90,0
2,74,90,512
2,76,90,0
2,79,90,0
2,77,90,0
2,79,90,0
2,74,90,0
2,81,90,0
2,82,90,0
2,84,90,512
2,82,90,0
2,81,90,0
2,79,90,0
2,81,90,0
2,73,90,0
2,76,90,0
2,77,90,0
2,76,90,0
2,73,90,0
2,69,90,0
2,65,90,0
2,64,90,0
2,61,90,0
2,57,90,0
2,57,90,0
2,59,90,0
2,61,90,0
2,57,90,0
2,64,90,0
2,64,90,0
2,61,90,0
2,62,90,0
2,64,90,0
2,65,90,0
2,62,90,0
2,64,90,0
2,67,90,0
2,65,90,0
2,67,90,0
2,69,90,0
2,70,90,0
2,72,90,0
2,70,90,0
2,67,90,0
2,69,90,0
2,57,90,1024
2,69,90,0
2,61,90,0
2,73,90,0
2,64,90,0
2,76,90,0
2,67,90,0
2,79,90,0
2,65,90,0
2,77,90,0
2,64,90,0
2,76,90,0
2,62,90,0
2,74,90,0
2,73,90,0
2,64,90,0
2,69,90,0
2,74,90,0
2,76,90,0
2,57,90,1024
2,69,90,0
2,61,90,0
2,73,90,0
2,64,90,0
2,76,90,0
2,67,90,0
2,79,90,0
2,65,90,0
2,77,90,0
2,64,90,0
2,76,90,0
2,62,90,0
2,74,90,0
2,73,90,0
2,64,90,0
2,71,90,0
2,69,90,0
2,57,90,1024
2,69,90,0
2,61,90,0
2,73,90,0
2,64,90,0
2,76,90,0
2,67,90,0
2,79,90,0
2,65,90,0
2,77,90,0
2,64,90,0
2,76,90,0
2,62,90,0
2,74,90,0
2,73,90,0
2,64,90,0
2,69,90,0
2,74,90,0
2,76,90,0
2,57,90,1024
2,69,90,0
2,61,90,0
2,73,90,0
2,64,90,0
2,76,90,0
2,67,90,0
2,79,90,0
2,65,90,0
2,77,90,0
2,64,90,0
2,76,90,0
2,62,90,0
2,74,90,0
2,73,90,0
2,64,90,0
2,71,90,0
2,69,90,0
2,77,90,0
2,76,90,0
2,73,90,0
2,69,90,0
2,65,90,0
2,64,90,0
2,61,90,0
2,57,90,0
2,69,90,0
2,60,90,0
2,65,90,0
2,70,90,0
2,72,90,0
2,70,90,0
2,67,90,0
2,69,90,0
2,65,90,0
2,67,90,0
2,64,90,0
2,69,90,0
2,61,90,0
2,64,90,0
2,65,90,0
2,62,90,0
2,67,90,0
2,69,90,0
2,67,90,0
2,64,90,0
2,65,90,0
2,62,90,0
2,64,90,0
2,61,90,0
2,67,90,0
2,59,90,0
2,62,90,0
2,65,90,0
2,69,90,0
2,67,90,0
2,70,90,0
2,69,90,0
2,72,90,0
2,67,90,0
2,70,90,0
2,65,90,0
2,69,90,0
2,67,90,0
2,60,90,0
2,69,90,0
2,67,90,0
2,65,90,0
2,64,90,0
2,64,90,0
2,69,90,0
2,61,90,0
2,62,90,0
2,65,90,0
2,64,90,0
2,67,90,0
2,65,90,0
2,69,90,0
2,64,90,0
2,67,90,0
2,62,90,0
2,65,90,0
2,61,90,0
2,64,90,0
2,62,90,0
2,65,90,0
2,62,90,0
2,64,90,0
2,67,90,0
2,62,90,0
2,70,90,0
2,61,90,0
2,64,90,0
2,69,90,0
2,62,90,0
2,64,90,0
2,66,90,0
2,62,90,0
2,64,90,0
2,66,90,0
2,67,90,0
2,69,90,0
2,70,90,0
2,67,90,0
2,69,90,0
2,72,90,0
2,70,90,0
2,63,90,0
2,72,90,0
2,67,90,0
2,74,90,0
2,72,90,0
2,75,90,0
2,65,90,1024
2,77,90,0
2,63,90,0
2,75,90,0
2,62,90,0
2,74,90,0
2,67,90,0
2,72,90,0
2,66,90,0
2,69,90,0
2,74,90,0
2,62,90,1024
2,74,90,0
2,66,90,0
