track,note,velocity,time
0,56,109,1340
0,61,98,0
0,65,101,0
0,49,104,16
0,67,104,112
0,58,104,0
0,63,97,0
0,49,94,16
0,68,92,112
0,65,90,0
0,60,95,0
0,49,91,16
0,70,98,112
0,61,104,0
0,65,104,0
0,49,93,16
0,65,109,112
0,60,102,0
0,68,94,0
0,53,95,16
0,67,103,112
0,58,107,0
0,63,90,0
0,53,99,16
0,56,109,84
0,65,104,0
0,60,98,0
0,53,90,16
0,63,103,112
0,55,105,0
0,58,91,0
0,53,92,16
0,56,98,112
0,65,108,0
0,61,103,0
0,46,97,16
0,58,94,112
0,63,102,0
0,67,108,0
0,46,90,16
0,65,109,112
0,60,91,0
0,68,105,0
0,46,90,16
0,61,90,112
0,70,106,0
0,65,103,0
0,46,103,16
0,64,108,112
0,60,107,0
0,68,97,0
0,48,90,16
0,67,99,112
0,63,97,0
0,58,105,0
0,48,98,16
0,65,90,112
0,60,97,0
0,56,93,0
0,48,91,16
0,58,109,112
0,63,94,0
0,55,102,0
0,48,93,16
0,49,104,112
0,56,101,0
0,61,102,0
0,65,91,0
0,67,99,112
0,65,93,16
0,63,90,16
0,65,106,112
0,51,106,112
0,58,103,0
0,63,96,0
0,67,105,0
0,68,109,112
0,67,108,16
0,65,104,16
0,67,103,112
0,53,107,112
0,60,108,0
0,65,98,0
0,68,90,0
0,70,90,112
0,68,108,16
0,67,108,16
0,68,93,112
0,60,105,112
0,77,106,0
0,68,100,0
0,56,100,112
0,72,92,0
0,65,103,0
0,53,102,112
0,68,91,0
0,60,94,0
0,51,103,112
0,65,101,0
0,56,92,0
0,49,99,112
0,56,95,0
0,61,96,0
0,65,95,0
0,67,91,112
0,65,96,16
0,63,108,16
0,65,99,112
0,51,94,112
0,58,108,0
0,63,100,0
0,67,109,0
0,68,94,112
0,67,95,16
0,65,100,16
0,67,98,112
0,56,92,112
0,65,100,0
0,60,90,0
0,53,99,112
0,60,102,0
0,56,100,0
0,56,99,112
0,65,101,0
0,60,108,0
0,60,109,112
0,68,102,0
0,65,102,0
0,65,93,112
0,72,107,0
0,68,101,0
0,60,104,112
0,68,109,0
0,65,107,0
0,65,98,112
0,72,92,0
0,68,91,0
0,68,99,112
0,72,105,0
0,77,98,0
0,65,80,16
0,68,79,48
0,36,107,48
0,42,87,0
0,65,104,0
0,72,106,0
0,68,91,0
0,72,86,0
0,36,90,188
0,42,74,0
0,29,109,0
0,67,101,0
0,68,106,0
0,72,102,0
0,67,113,0
0,72,117,0
0,38,117,16
0,42,70,0
0,36,111,0
0,67,93,0
0,72,93,0
0,68,97,0
0,67,109,0
0,72,108,0
0,42,88,16
0,29,113,0
0,72,104,0
0,67,99,0
0,68,104,0
0,67,109,0
0,72,102,0
0,36,108,16
0,42,75,0
0,69,60,0
0,34,105,0
0,67,93,0
0,68,104,0
0,72,91,0
0,67,107,0
0,72,117,0
0,69,63,16
0,42,79,16
0,69,62,0
0,29,106,0
0,67,106,0
0,68,109,0
0,72,93,0
0,67,112,0
0,72,101,0
0,69,70,16
0,38,117,16
0,42,82,0
0,69,72,0
0,32,116,0
0,67,98,0
0,68,95,0
0,72,94,0
0,67,111,0
0,72,112,0
0,42,75,16
0,36,114,0
0,67,94,0
0,72,99,0
0,68,90,0
0,67,114,0
0,72,116,0
0,36,108,16
0,42,78,0
0,72,99,0
0,68,103,0
0,65,90,0
0,67,106,0
0,72,113,0
0,36,97,188
0,42,81,0
0,29,118,0
0,38,117,16
0,42,87,0
0,36,115,0
0,42,78,16
0,29,105,0
0,36,124,16
0,42,87,0
0,34,109,0
0,42,82,16
0,29,112,0
0,38,116,16
0,42,89,0
0,32,114,0
0,42,81,16
0,34,109,0
0,63,83,92
0,67,77,48
0,36,119,16
0,42,83,0
0,67,107,0
0,63,107,0
0,70,93,0
0,70,76,0
0,36,97,188
0,42,86,0
0,29,107,0
0,68,106,0
0,67,90,0
0,70,108,0
0,67,99,0
0,72,105,0
0,38,116,16
0,42,75,0
0,36,115,0
0,67,91,0
0,68,91,0
0,70,101,0
0,67,102,0
0,75,104,0
0,42,72,16
0,29,112,0
0,70,107,0
0,67,105,0
0,65,107,0
0,65,109,0
0,72,114,0
0,36,110,16
0,42,73,0
0,69,60,0
0,34,109,0
0,67,102,0
0,68,102,0
0,70,91,0
0,67,109,0
0,75,101,0
0,69,67,92
0,42,74,16
0,69,56,0
0,29,121,0
0,70,93,0
0,67,103,0
0,65,91,0
0,65,116,0
0,72,104,0
0,36,112,16
0,38,106,0
0,42,72,0
0,32,120,0
0,70,97,0
0,67,101,0
0,68,105,0
0,67,101,0
0,75,116,0
0,42,83,16
0,36,105,0
0,67,102,0
0,65,102,0
0,70,105,0
0,65,105,0
0,72,99,0
0,36,109,16
0,42,86,0
0,67,101,0
0,68,104,0
0,70,96,0
0,67,101,0
0,75,99,0
0,36,100,16
0,42,75,0
0,29,104,0
0,65,90,0
0,67,96,0
0,70,90,0
0,38,123,16
0,42,71,0
0,36,116,0
0,67,96,0
0,70,90,0
0,63,91,0
0,42,76,16
0,29,112,0
0,36,106,16
0,42,80,0
0,34,113,0
0,38,121,16
0,42,88,0
0,29,111,0
0,38,124,16
0,42,84,0
0,32,112,0
0,42,70,16
0,34,104,0
0,65,80,92
0,68,76,48
0,36,112,16
0,49,117,0
0,65,103,0
0,61,109,0
0,68,109,0
0,72,79,0
0,36,109,188
0,42,75,0
0,29,111,0
0,72,91,0
0,65,96,0
0,68,107,0
0,68,109,0
0,72,116,0
0,38,108,16
0,42,74,0
0,36,119,0
0,72,102,0
0,65,96,0
0,68,107,0
0,68,114,0
0,72,104,0
0,42,89,16
0,29,119,0
0,65,100,0
0,70,92,0
0,68,98,0
0,65,111,0
0,70,117,0
0,36,110,16
0,42,76,0
0,69,71,0
0,34,113,0
0,65,105,0
0,72,109,0
0,68,95,0
0,68,107,0
0,72,105,0
0,69,57,92
0,42,72,16
0,69,59,0
0,29,109,0
0,65,92,0
0,68,97,0
0,70,101,0
0,65,107,0
0,70,98,0
0,69,70,16
0,38,121,16
0,42,80,0
0,69,73,0
0,32,105,0
0,65,102,0
0,72,104,0
0,68,97,0
0,68,101,0
0,72,101,0
0,42,89,16
0,36,111,0
0,65,100,0
0,68,97,0
0,70,95,0
0,65,114,0
0,70,108,0
0,36,122,16
0,42,85,0
0,65,107,0
0,72,105,0
0,68,108,0
0,68,112,0
0,72,104,0
0,36,94,16
0,42,78,0
0,29,106,0
0,70,94,0
0,68,99,0
0,65,108,0
0,65,110,0
0,70,105,0
0,38,121,16
0,42,77,0
0,36,118,0
0,68,94,0
0,72,101,0
0,65,109,0
0,65,117,0
0,68,115,0
0,42,86,16
0,29,113,0
0,36,109,16
0,42,77,0
0,34,114,0
0,65,104,0
0,68,108,0
0,42,75,16
0,29,123,0
0,38,118,16
0,42,89,0
0,32,121,0
0,42,70,16
0,34,122,0
0,63,78,92
0,67,79,48
0,36,116,16
0,42,80,0
0,63,96,0
0,67,95,0
0,70,94,0
0,70,95,0
0,36,106,112
0,42,87,0
0,29,105,0
0,63,101,0
0,70,91,0
0,67,105,0
0,67,105,0
0,70,108,0
0,38,121,16
0,42,89,0
0,36,119,0
0,63,105,0
0,70,90,0
0,67,103,0
0,67,110,0
0,70,104,0
0,42,82,16
0,29,120,0
0,63,97,0
0,67,95,0
0,60,104,0
0,63,117,0
0,67,106,0
0,36,121,16
0,42,79,0
0,69,62,0
0,34,115,0
0,63,101,0
0,70,97,0
0,67,102,0
0,67,106,0
0,70,110,0
0,69,72,92
0,42,89,16
0,69,58,0
0,29,114,0
0,60,104,0
0,63,104,0
0,67,104,0
0,63,110,0
0,67,104,0
0,38,119,16
0,42,84,0
0,32,113,0
0,63,105,0
0,67,102,0
0,70,105,0
0,67,109,0
0,70,99,0
0,42,77,16
0,36,108,0
0,67,105,0
0,63,102,0
0,60,100,0
0,63,110,0
0,67,107,0
0,36,105,16
0,42,82,0
0,63,107,0
0,70,95,0
0,67,100,0
0,67,115,0
0,70,116,0
0,36,103,16
0,38,119,0
0,42,80,0
0,45,114,0
0,29,117,0
0,67,94,0
0,60,97,0
0,63,105,0
0,63,99,0
0,67,105,0
0,38,106,16
0,42,84,0
0,45,111,0
0,36,109,0
0,63,92,0
0,70,108,0
0,67,108,0
0,67,103,0
0,70,102,0
0,42,87,16
0,29,121,0
0,36,116,16
0,42,76,0
0,24,123,0
0,38,114,16
0,42,88,0
0,45,107,0
0,36,116,0
0,38,109,16
0,42,74,0
0,45,114,0
0,27,112,0
0,42,85,16
0,39,114,0
0,65,80,92
0,68,90,48
0,36,113,16
0,49,114,0
0,68,105,0
0,72,101,0
0,65,100,0
0,72,89,0
0,60,118,0
0,36,97,16
0,42,74,0
0,29,123,0
0,67,101,0
0,68,91,0
0,72,90,0
0,67,104,0
0,72,107,0
0,60,121,0
0,38,123,16
0,42,81,0
0,36,104,0
0,67,108,0
0,68,108,0
0,72,103,0
0,67,99,0
0,72,108,0
0,60,115,0
0,42,80,16
0,29,113,0
0,67,90,0
0,68,92,0
0,72,100,0
0,67,109,0
0,72,103,0
0,60,127,0
0,36,120,16
0,42,73,0
0,34,123,0
0,67,108,0
0,68,109,0
0,72,97,0
0,67,113,0
0,72,112,0
0,42,77,16
0,29,119,0
0,67,109,0
0,72,102,0
0,68,108,0
0,67,99,0
0,72,112,0
0,63,116,0
0,38,118,16
0,42,84,0
0,32,116,0
0,67,108,0
0,68,109,0
0,72,90,0
0,67,116,0
0,72,114,0
0,42,81,16
0,36,114,0
0,67,105,0
0,68,100,0
0,72,95,0
0,67,105,0
0,72,101,0
0,61,122,0
0,36,108,16
0,42,71,0
0,72,98,0
0,68,95,0
0,65,96,0
0,67,117,0
0,72,110,0
0,60,124,16
0,36,102,16
0,42,73,0
0,29,105,0
0,60,113,0
0,38,106,16
0,42,83,0
0,36,115,0
0,42,76,16
0,29,120,0
0,58,116,0
0,36,120,16
0,42,85,0
0,34,116,0
0,42,82,16
0,29,118,0
0,60,114,0
0,38,117,16
0,42,70,0
0,32,113,0
0,60,123,0
0,42,80,16
0,34,119,0
0,63,90,92
0,67,83,48
0,36,121,16
0,42,73,0
0,70,106,0
0,67,94,0
0,63,103,0
0,70,83,0
0,36,108,188
0,42,80,0
0,29,110,0
0,68,95,0
0,67,97,0
0,70,98,0
0,67,102,0
0,72,112,0
0,38,120,16
0,42,88,0
0,36,122,0
0,68,98,0
0,67,98,0
0,70,99,0
0,67,100,0
0,75,103,0
0,42,82,16
0,29,123,0
0,67,106,0
0,70,98,0
0,65,100,0
0,65,104,0
0,72,111,0
0,53,111,0
0,36,119,16
0,42,73,0
0,34,119,0
0,67,97,0
0,68,104,0
0,70,93,0
0,67,100,0
0,75,100,0
0,60,118,0
0,42,75,16
0,29,114,0
0,67,101,0
0,70,93,0
0,65,105,0
0,65,116,0
0,72,108,0
0,63,127,0
0,38,115,16
0,42,87,0
0,32,115,0
0,68,109,0
0,67,98,0
0,70,101,0
0,67,110,0
0,75,113,0
0,42,72,16
0,36,116,0
0,67,104,0
0,65,91,0
0,70,94,0
0,65,99,0
0,72,110,0
0,65,124,0
0,36,115,16
0,42,76,0
0,68,107,0
0,67,99,0
0,70,107,0
0,67,111,0
0,75,105,0
0,36,94,16
0,42,78,0
0,29,118,0
0,67,100,0
0,65,106,0
0,70,96,0
0,60,124,0
0,38,118,16
0,42,85,0
0,36,118,0
0,70,97,0
0,67,97,0
0,63,109,0
0,42,85,16
0,69,59,0
0,29,111,0
0,56,124,0
0,69,73,92
0,36,115,16
0,42,85,0
0,69,73,0
0,34,107,0
0,58,121,0
0,69,71,92
0,38,115,16
0,42,76,0
0,69,67,0
0,29,121,0
0,58,113,0
0,69,60,92
0,38,109,16
0,42,76,0
0,32,109,0
0,56,125,0
0,42,71,16
0,34,105,0
0,65,86,92
0,68,86,48
0,36,115,16
0,42,83,0
0,61,100,0
0,65,102,0
0,68,97,0
0,72,90,0
0,36,90,188
0,42,87,0
0,29,115,0
0,65,104,0
0,72,101,0
0,68,105,0
0,38,121,16
0,42,84,0
0,36,106,0
0,72,90,0
0,65,104,0
0,68,101,0
0,68,100,0
0,72,102,0
0,42,78,16
0,29,122,0
0,68,95,0
0,65,104,0
0,70,99,0
0,65,98,0
0,70,107,0
0,53,123,0
0,36,112,16
0,42,81,0
0,34,117,0
0,72,102,0
0,65,91,0
0,68,101,0
0,68,108,0
0,72,111,0
0,60,127,0
0,42,81,16
0,29,117,0
0,68,109,0
0,70,94,0
0,65,107,0
0,65,101,0
0,70,114,0
0,60,126,0
0,38,105,16
0,42,78,0
0,32,122,0
0,72,100,0
0,68,92,0
0,65,93,0
0,68,98,0
0,72,117,0
0,60,116,0
0,42,79,16
0,36,122,0
0,68,104,0
0,70,108,0
0,65,94,0
0,65,113,0
0,70,103,0
0,61,126,0
0,36,116,16
0,42,74,0
0,72,91,0
0,65,94,0
0,68,102,0
0,68,98,0
0,72,99,0
0,36,90,16
0,42,87,0
0,29,112,0
0,68,93,0
0,70,101,0
0,65,108,0
0,60,112,0
0,38,114,16
0,42,74,0
0,36,119,0
0,72,107,0
0,65,102,0
0,68,104,0
0,42,73,16
0,69,65,0
0,29,108,0
0,58,109,0
0,69,60,92
0,36,111,16
0,42,73,0
0,69,61,0
0,34,118,0
0,69,67,92
0,42,71,16
0,69,59,0
0,29,111,0
0,38,110,16
0,42,89,0
0,32,120,0
0,42,74,16
0,34,104,0
0,63,77,92
0,67,85,48
0,36,114,16
0,42,72,0
0,70,93,0
0,63,104,0
0,67,98,0
0,70,91,0
0,56,124,0
0,36,99,16
0,42,73,0
0,29,119,0
0,58,123,0
0,38,120,16
0,42,71,0
0,36,104,0
0,60,111,0
0,42,80,16
0,29,113,0
0,58,109,0
0,36,118,16
0,42,77,0
0,34,112,0
0,42,83,16
0,29,120,0
0,56,117,0
0,38,119,16
0,42,78,0
0,32,106,0
0,42,74,16
0,36,116,0
0,36,119,16
0,42,83,0
0,70,92,0
0,67,98,0
0,63,103,0
0,67,114,0
0,70,107,0
0,36,99,16
0,38,106,0
0,42,81,0
0,45,106,0
0,29,104,0
0,67,103,0
0,60,98,0
0,63,95,0
0,63,109,0
0,67,113,0
0,38,112,16
0,42,79,0
0,45,109,0
0,36,105,0
0,63,100,0
0,70,95,0
0,67,99,0
0,67,112,0
0,70,112,0
0,42,86,16
0,29,123,0
0,63,91,0
0,67,103,0
0,60,100,0
0,63,115,0
0,67,98,0
0,36,105,16
0,42,84,0
0,24,107,0
0,67,105,0
0,63,98,0
0,70,92,0
0,67,109,0
0,70,114,0
0,38,117,16
0,42,70,0
0,45,121,0
0,36,113,0
0,67,101,0
0,60,107,0
0,63,109,0
0,63,101,0
0,67,111,0
0,38,121,16
0,42,75,0
0,45,112,0
0,27,120,0
0,70,107,0
0,67,104,0
0,63,108,0
0,67,114,0
0,70,111,0
0,42,77,16
0,39,120,0
0,67,104,0
0,63,106,0
0,60,106,0
0,63,99,0
0,67,101,0
0,65,77,16
0,68,87,48
0,36,114,16
0,42,77,0
0,68,90,0
0,72,102,0
0,65,97,0
0,72,92,0
0,42,85,188
0,29,123,0
0,67,91,0
0,68,93,0
0,72,107,0
0,67,109,0
0,72,109,0
0,38,111,16
0,42,71,0
0,36,107,0
0,68,109,0
0,67,106,0
0,72,108,0
0,67,109,0
0,72,117,0
0,42,86,16
0,29,111,0
0,68,109,0
0,67,93,0
0,72,102,0
0,67,103,0
0,72,115,0
0,60,110,0
0,36,124,16
0,42,82,0
0,34,113,0
0,67,91,0
0,68,109,0
0,72,102,0
0,67,101,0
0,72,109,0
0,60,113,0
0,42,86,16
0,29,105,0
0,67,106,0
0,68,105,0
0,72,91,0
0,67,109,0
0,72,98,0
0,63,118,0
0,38,111,16
0,42,82,0
0,32,111,0
0,67,90,0
0,68,90,0
0,72,106,0
0,67,110,0
0,72,105,0
0,42,76,16
0,36,108,0
0,67,97,0
0,68,92,0
