track,note,velocity,time
0.0,59.0,110.0,0.0
0.0,43.0,110.0,0.0
0.0,50.0,110.0,0.0
0.0,59.0,110.0,40.0
0.0,50.0,110.0,0.0
0.0,59.0,110.0,40.0
0.0,50.0,110.0,0.0
0.0,62.0,110.0,40.0
0.0,55.0,110.0,0.0
0.0,61.0,110.0,40.0
0.0,42.0,110.0,0.0
0.0,54.0,110.0,0.0
0.0,57.0,110.0,40.0
0.0,49.0,110.0,0.0
0.0,57.0,110.0,40.0
0.0,49.0,110.0,0.0
0.0,61.0,110.0,40.0
0.0,54.0,110.0,0.0
0.0,59.0,110.0,40.0
0.0,62.0,110.0,0.0
0.0,47.0,110.0,0.0
0.0,54.0,110.0,0.0
0.0,59.0,110.0,180.0
0.0,62.0,110.0,0.0
0.0,59.0,110.0,180.0
0.0,62.0,110.0,0.0
0.0,62.0,110.0,180.0
0.0,66.0,110.0,0.0
0.0,61.0,110.0,60.0
0.0,64.0,110.0,0.0
0.0,45.0,110.0,0.0
0.0,52.0,110.0,0.0
0.0,57.0,110.0,180.0
0.0,61.0,110.0,0.0
0.0,57.0,110.0,180.0
0.0,61.0,110.0,0.0
0.0,62.0,110.0,180.0
0.0,66.0,110.0,0.0
0.0,64.0,110.0,3.0
0.0,67.0,110.0,0.0
0.0,66.0,110.0,3.0
0.0,69.0,110.0,0.0
0.0,50.0,110.0,0.0
0.0,57.0,110.0,0.0
0.0,64.0,110.0,40.0
0.0,67.0,110.0,0.0
0.0,62.0,110.0,3.0
0.0,66.0,110.0,0.0
0.0,61.0,110.0,3.0
0.0,64.0,110.0,0.0
0.0,49.0,110.0,0.0
0.0,62.0,110.0,40.0
0.0,66.0,110.0,0.0
0.0,64.0,110.0,3.0
0.0,67.0,110.0,0.0
0.0,62.0,110.0,3.0
0.0,66.0,110.0,0.0
0.0,47.0,110.0,0.0
0.0,54.0,110.0,0.0
0.0,61.0,110.0,40.0
0.0,64.0,110.0,0.0
0.0,59.0,110.0,3.0
0.0,62.0,110.0,0.0
0.0,57.0,110.0,3.0
0.0,61.0,110.0,0.0
0.0,45.0,110.0,0.0
0.0,52.0,110.0,0.0
0.0,59.0,110.0,40.0
0.0,62.0,110.0,0.0
0.0,61.0,110.0,3.0
0.0,64.0,110.0,0.0
0.0,55.0,110.0,3.0
0.0,59.0,110.0,0.0
0.0,43.0,110.0,0.0
0.0,50.0,110.0,0.0
0.0,55.0,110.0,40.0
0.0,59.0,110.0,0.0
0.0,50.0,110.0,0.0
0.0,55.0,110.0,40.0
0.0,59.0,110.0,0.0
0.0,50.0,110.0,0.0
0.0,61.0,110.0,40.0
0.0,64.0,110.0,0.0
0.0,52.0,110.0,0.0
0.0,55.0,110.0,0.0
0.0,59.0,110.0,0.0
0.0,50.0,110.0,0.0
0.0,55.0,110.0,40.0
0.0,59.0,110.0,0.0
0.0,50.0,110.0,0.0
0.0,55.0,110.0,40.0
0.0,59.0,110.0,0.0
0.0,50.0,110.0,0.0
0.0,59.0,110.0,40.0
0.0,62.0,110.0,0.0
0.0,55.0,110.0,0.0
0.0,55.0,110.0,0.0
0.0,59.0,110.0,0.0
0.0,43.0,110.0,0.0
0.0,57.0,94.0,0.0
0.0,36.0,101.0,1.0
0.0,42.0,102.0,0.0
0.0,42.0,84.0,0.0
0.0,44.0,120.0,0.0
0.0,43.0,110.0,3.0
0.0,40.0,72.0,0.0
0.0,42.0,108.0,0.0
0.0,59.0,110.0,3.0
0.0,55.0,110.0,0.0
0.0,59.0,110.0,0.0
0.0,50.0,110.0,0.0
0.0,51.0,96.0,1.0
0.0,36.0,108.0,50.0
0.0,59.0,110.0,3.0
0.0,55.0,110.0,0.0
0.0,59.0,110.0,0.0
0.0,55.0,110.0,0.0
0.0,36.0,103.0,0.0
0.0,42.0,85.0,1.0
0.0,44.0,124.0,0.0
0.0,59.0,110.0,3.0
0.0,55.0,110.0,0.0
0.0,59.0,110.0,0.0
0.0,50.0,110.0,0.0
0.0,42.0,102.0,1.0
0.0,42.0,87.0,0.0
0.0,44.0,117.0,0.0
0.0,55.0,110.0,3.0
0.0,36.0,102.0,1.0
0.0,40.0,76.0,0.0
0.0,42.0,105.0,0.0
0.0,51.0,96.0,0.0
0.0,62.0,110.0,3.0
0.0,59.0,110.0,0.0
0.0,62.0,110.0,0.0
0.0,50.0,110.0,0.0
0.0,42.0,81.0,0.0
0.0,44.0,123.0,0.0
0.0,43.0,110.0,3.0
0.0,36.0,100.0,54.0
0.0,42.0,101.0,1.0
0.0,61.0,110.0,2.0
0.0,57.0,110.0,0.0
0.0,61.0,110.0,0.0
0.0,42.0,110.0,0.0
0.0,36.0,101.0,1.0
0.0,44.0,124.0,0.0
0.0,42.0,110.0,3.0
0.0,42.0,82.0,1.0
0.0,40.0,79.0,0.0
0.0,51.0,95.0,0.0
0.0,42.0,107.0,1.0
0.0,59.0,110.0,2.0
0.0,59.0,110.0,0.0
0.0,49.0,110.0,0.0
0.0,36.0,105.0,53.0
0.0,42.0,83.0,0.0
0.0,44.0,123.0,0.0
0.0,57.0,110.0,3.0
0.0,57.0,110.0,0.0
0.0,54.0,110.0,0.0
0.0,36.0,104.0,0.0
0.0,42.0,110.0,0.0
0.0,49.0,110.0,3.0
0.0,42.0,79.0,0.0
0.0,44.0,122.0,0.0
0.0,54.0,110.0,3.0
0.0,36.0,107.0,1.0
0.0,40.0,77.0,0.0
0.0,42.0,105.0,0.0
0.0,51.0,90.0,0.0
0.0,61.0,110.0,3.0
0.0,57.0,110.0,0.0
0.0,61.0,110.0,0.0
0.0,49.0,110.0,0.0
0.0,42.0,88.0,0.0
0.0,44.0,119.0,0.0
0.0,61.0,110.0,3.0
0.0,57.0,110.0,0.0
0.0,61.0,110.0,0.0
0.0,42.0,110.0,0.0
0.0,62.0,110.0,3.0
0.0,59.0,110.0,0.0
0.0,62.0,110.0,0.0
0.0,47.0,110.0,0.0
0.0,57.0,94.0,0.0
0.0,36.0,101.0,1.0
0.0,42.0,102.0,0.0
0.0,42.0,84.0,0.0
0.0,44.0,120.0,0.0
0.0,62.0,110.0,3.0
0.0,59.0,110.0,0.0
0.0,62.0,110.0,0.0
0.0,47.0,110.0,0.0
0.0,40.0,72.0,0.0
0.0,42.0,108.0,0.0
0.0,54.0,110.0,3.0
0.0,51.0,96.0,1.0
0.0,36.0,108.0,50.0
0.0,62.0,110.0,3.0
0.0,62.0,110.0,0.0
0.0,59.0,110.0,0.0
0.0,36.0,103.0,0.0
0.0,42.0,85.0,1.0
0.0,44.0,124.0,0.0
0.0,42.0,102.0,110.0
0.0,42.0,87.0,0.0
0.0,44.0,117.0,0.0
0.0,64.0,110.0,3.0
0.0,64.0,110.0,0.0
0.0,59.0,110.0,0.0
0.0,36.0,102.0,1.0
0.0,40.0,76.0,0.0
0.0,42.0,105.0,0.0
0.0,51.0,96.0,0.0
0.0,66.0,110.0,3.0
0.0,62.0,110.0,0.0
0.0,66.0,110.0,0.0
0.0,54.0,110.0,0.0
0.0,42.0,81.0,0.0
0.0,44.0,123.0,0.0
0.0,47.0,110.0,3.0
0.0,36.0,100.0,54.0
0.0,42.0,101.0,1.0
0.0,66.0,110.0,2.0
0.0,61.0,110.0,0.0
0.0,66.0,110.0,0.0
0.0,45.0,110.0,0.0
0.0,36.0,101.0,1.0
0.0,44.0,124.0,0.0
0.0,45.0,110.0,3.0
0.0,42.0,82.0,1.0
0.0,40.0,79.0,0.0
0.0,51.0,95.0,0.0
0.0,42.0,107.0,1.0
0.0,52.0,110.0,2.0
0.0,36.0,105.0,53.0
0.0,42.0,83.0,0.0
0.0,44.0,123.0,0.0
0.0,64.0,110.0,3.0
0.0,61.0,110.0,0.0
0.0,64.0,110.0,0.0
0.0,57.0,110.0,0.0
0.0,36.0,104.0,0.0
0.0,42.0,110.0,0.0
0.0,64.0,110.0,3.0
0.0,61.0,110.0,0.0
0.0,64.0,110.0,0.0
0.0,57.0,110.0,0.0
0.0,42.0,79.0,0.0
0.0,44.0,122.0,0.0
0.0,57.0,110.0,3.0
0.0,36.0,107.0,1.0
0.0,40.0,77.0,0.0
0.0,42.0,105.0,0.0
0.0,51.0,90.0,0.0
0.0,62.0,110.0,3.0
0.0,62.0,110.0,0.0
0.0,52.0,110.0,0.0
0.0,42.0,88.0,0.0
0.0,44.0,119.0,0.0
0.0,64.0,110.0,3.0
0.0,61.0,110.0,0.0
0.0,64.0,110.0,0.0
0.0,45.0,110.0,0.0
0.0,66.0,110.0,3.0
0.0,66.0,110.0,0.0
0.0,50.0,110.0,0.0
0.0,57.0,94.0,0.0
0.0,36.0,101.0,1.0
0.0,42.0,102.0,0.0
0.0,42.0,84.0,0.0
0.0,44.0,120.0,0.0
0.0,50.0,110.0,3.0
0.0,40.0,72.0,0.0
0.0,42.0,108.0,0.0
0.0,62.0,110.0,3.0
0.0,62.0,110.0,0.0
0.0,51.0,96.0,1.0
0.0,36.0,108.0,50.0
0.0,57.0,110.0,49.0
0.0,36.0,103.0,0.0
0.0,42.0,85.0,1.0
0.0,44.0,124.0,0.0
0.0,64.0,110.0,3.0
0.0,64.0,110.0,0.0
0.0,49.0,110.0,0.0
0.0,42.0,102.0,1.0
0.0,42.0,87.0,0.0
0.0,44.0,117.0,0.0
0.0,49.0,110.0,3.0
0.0,36.0,102.0,1.0
0.0,40.0,76.0,0.0
0.0,42.0,105.0,0.0
0.0,51.0,96.0,0.0
0.0,61.0,110.0,3.0
0.0,61.0,110.0,0.0
0.0,42.0,81.0,110.0
0.0,44.0,123.0,0.0
0.0,57.0,110.0,3.0
0.0,36.0,100.0,54.0
0.0,42.0,101.0,1.0
0.0,62.0,110.0,2.0
0.0,62.0,110.0,0.0
0.0,47.0,110.0,0.0
0.0,36.0,101.0,1.0
0.0,44.0,124.0,0.0
0.0,47.0,110.0,3.0
0.0,42.0,82.0,1.0
0.0,40.0,79.0,0.0
0.0,51.0,95.0,0.0
0.0,42.0,107.0,1.0
0.0,57.0,110.0,2.0
0.0,57.0,110.0,0.0
0.0,36.0,105.0,53.0
0.0,42.0,83.0,46.0
0.0,44.0,123.0,0.0
0.0,54.0,110.0,3.0
0.0,36.0,104.0,0.0
0.0,42.0,110.0,0.0
0.0,61.0,110.0,3.0
0.0,61.0,110.0,0.0
0.0,45.0,110.0,0.0
0.0,42.0,79.0,0.0
0.0,44.0,122.0,0.0
0.0,45.0,110.0,3.0
0.0,36.0,107.0,1.0
0.0,40.0,77.0,0.0
0.0,42.0,105.0,0.0
0.0,51.0,90.0,0.0
0.0,57.0,110.0,3.0
0.0,57.0,110.0,0.0
0.0,52.0,110.0,0.0
0.0,42.0,88.0,0.0
0.0,44.0,119.0,0.0
0.0,45.0,110.0,3.0
0.0,61.0,110.0,3.0
0.0,61.0,110.0,0.0
0.0,43.0,110.0,0.0
0.0,57.0,94.0,0.0
0.0,36.0,101.0,1.0
0.0,42.0,102.0,0.0
0.0,42.0,84.0,0.0
0.0,44.0,120.0,0.0
0.0,43.0,110.0,3.0
0.0,40.0,72.0,0.0
0.0,42.0,108.0,0.0
0.0,62.0,110.0,3.0
0.0,62.0,110.0,0.0
0.0,50.0,110.0,0.0
0.0,51.0,96.0,1.0
0.0,36.0,108.0,50.0
0.0,59.0,110.0,3.0
0.0,59.0,110.0,0.0
0.0,55.0,110.0,0.0
0.0,36.0,103.0,0.0
0.0,42.0,85.0,1.0
0.0,44.0,124.0,0.0
0.0,50.0,110.0,3.0
0.0,42.0,102.0,1.0
0.0,42.0,87.0,0.0
0.0,44.0,117.0,0.0
0.0,55.0,110.0,3.0
0.0,36.0,102.0,1.0
0.0,40.0,76.0,0.0
0.0,42.0,105.0,0.0
0.0,51.0,96.0,0.0
0.0,57.0,110.0,3.0
0.0,61.0,110.0,0.0
0.0,50.0,110.0,0.0
0.0,42.0,81.0,0.0
0.0,44.0,123.0,0.0
0.0,55.0,110.0,3.0
0.0,36.0,100.0,54.0
0.0,42.0,101.0,1.0
0.0,55.0,110.0,2.0
0.0,59.0,110.0,0.0
0.0,43.0,110.0,0.0
0.0,36.0,101.0,1.0
0.0,44.0,124.0,0.0
0.0,43.0,110.0,3.0
0.0,42.0,82.0,1.0
0.0,40.0,79.0,0.0
0.0,51.0,95.0,0.0
0.0,42.0,107.0,1.0
0.0,66.0,110.0,2.0
0.0,66.0,110.0,0.0
0.0,50.0,110.0,0.0
0.0,36.0,105.0,53.0
0.0,42.0,83.0,0.0
0.0,44.0,123.0,0.0
0.0,64.0,110.0,3.0
0.0,64.0,110.0,0.0
0.0,55.0,110.0,0.0
0.0,36.0,104.0,0.0
0.0,42.0,110.0,0.0
0.0,50.0,110.0,3.0
0.0,42.0,79.0,0.0
0.0,44.0,122.0,0.0
0.0,55.0,110.0,3.0
0.0,36.0,107.0,1.0
0.0,40.0,77.0,0.0
0.0,42.0,105.0,0.0
0.0,51.0,90.0,0.0
0.0,59.0,110.0,3.0
0.0,62.0,110.0,0.0
0.0,50.0,110.0,0.0
0.0,42.0,88.0,0.0
0.0,44.0,119.0,0.0
0.0,55.0,110.0,3.0
0.0,55.0,110.0,3.0
0.0,59.0,110.0,0.0
0.0,43.0,110.0,0.0
0.0,57.0,94.0,0.0
0.0,36.0,101.0,1.0
0.0,42.0,102.0,0.0
0.0,42.0,84.0,0.0
0.0,44.0,120.0,0.0
0.0,43.0,110.0,3.0
0.0,40.0,72.0,0.0
0.0,42.0,108.0,0.0
0.0,59.0,110.0,3.0
0.0,59.0,110.0,0.0
0.0,50.0,110.0,0.0
0.0,51.0,96.0,1.0
0.0,36.0,108.0,50.0
0.0,59.0,110.0,3.0
0.0,59.0,110.0,0.0
0.0,55.0,110.0,0.0
0.0,36.0,103.0,0.0
0.0,42.0,85.0,1.0
0.0,44.0,124.0,0.0
0.0,59.0,110.0,3.0
0.0,59.0,110.0,0.0
0.0,50.0,110.0,0.0
0.0,42.0,102.0,1.0
0.0,42.0,87.0,0.0
0.0,44.0,117.0,0.0
0.0,59.0,110.0,3.0
0.0,59.0,110.0,0.0
0.0,55.0,110.0,0.0
0.0,36.0,102.0,1.0
0.0,40.0,76.0,0.0
0.0,42.0,105.0,0.0
0.0,51.0,96.0,0.0
0.0,62.0,110.0,3.0
0.0,62.0,110.0,0.0
0.0,50.0,110.0,0.0
0.0,42.0,81.0,0.0
0.0,44.0,123.0,0.0
0.0,62.0,110.0,3.0
0.0,62.0,110.0,0.0
0.0,43.0,110.0,0.0
0.0,36.0,100.0,54.0
0.0,42.0,101.0,1.0
0.0,61.0,110.0,2.0
0.0,61.0,110.0,0.0
0.0,42.0,110.0,0.0
0.0,36.0,101.0,1.0
0.0,44.0,124.0,0.0
0.0,59.0,110.0,3.0
0.0,59.0,110.0,0.0
0.0,42.0,110.0,0.0
0.0,42.0,82.0,1.0
0.0,40.0,79.0,0.0
0.0,51.0,95.0,0.0
0.0,42.0,107.0,1.0
0.0,49.0,110.0,2.0
0.0,36.0,105.0,53.0
0.0,42.0,83.0,0.0
0.0,44.0,123.0,0.0
0.0,57.0,110.0,3.0
0.0,57.0,110.0,0.0
0.0,54.0,110.0,0.0
0.0,36.0,104.0,0.0
0.0,42.0,110.0,0.0
0.0,49.0,110.0,3.0
0.0,42.0,79.0,0.0
0.0,44.0,122.0,0.0
0.0,54.0,110.0,3.0
0.0,36.0,107.0,1.0
0.0,40.0,77.0,0.0
0.0,42.0,105.0,0.0
0.0,51.0,90.0,0.0
0.0,61.0,110.0,3.0
0.0,61.0,110.0,0.0
0.0,49.0,110.0,0.0
0.0,42.0,88.0,0.0
0.0,44.0,119.0,0.0
0.0,61.0,110.0,3.0
0.0,61.0,110.0,0.0
0.0,42.0,110.0,0.0
0.0,62.0,110.0,3.0
0.0,59.0,110.0,0.0
0.0,62.0,110.0,0.0
0.0,47.0,110.0,0.0
0.0,57.0,94.0,0.0
0.0,36.0,101.0,1.0
0.0,42.0,102.0,0.0
0.0,42.0,84.0,0.0
0.0,44.0,120.0,0.0
0.0,62.0,110.0,3.0
0.0,59.0,110.0,0.0
0.0,62.0,110.0,0.0
0.0,47.0,110.0,0.0
0.0,40.0,72.0,0.0
0.0,42.0,108.0,0.0
0.0,54.0,110.0,3.0
0.0,51.0,96.0,1.0
0.0,36.0,108.0,50.0
0.0,62.0,110.0,3.0
0.0,62.0,110.0,0.0
0.0,59.0,110.0,0.0
0.0,36.0,103.0,0.0
0.0,42.0,85.0,1.0
0.0,44.0,124.0,0.0
0.0,42.0,102.0,110.0
0.0,42.0,87.0,0.0
0.0,44.0,117.0,0.0
0.0,64.0,110.0,3.0
0.0,64.0,110.0,0.0
0.0,59.0,110.0,0.0
0.0,36.0,102.0,1.0
0.0,40.0,76.0,0.0
0.0,42.0,105.0,0.0
0.0,51.0,96.0,0.0
0.0,66.0,110.0,3.0
0.0,62.0,110.0,0.0
0.0,66.0,110.0,0.0
0.0,54.0,110.0,0.0
0.0,42.0,81.0,0.0
0.0,44.0,123.0,0.0
0.0,47.0,110.0,3.0
0.0,36.0,100.0,54.0
0.0,42.0,101.0,1.0
0.0,66.0,110.0,2.0
0.0,61.0,110.0,0.0
0.0,66.0,110.0,0.0
0.0,45.0,110.0,0.0
0.0,36.0,101.0,1.0
0.0,44.0,124.0,0.0
0.0,45.0,110.0,3.0
0.0,42.0,82.0,1.0
0.0,40.0,79.0,0.0
0.0,51.0,95.0,0.0
0.0,42.0,107.0,1.0
0.0,52.0,110.0,2.0
0.0,36.0,105.0,53.0
0.0,42.0,83.0,0.0
0.0,44.0,123.0,0.0
0.0,64.0,110.0,3.0
0.0,61.0,110.0,0.0
0.0,64.0,110.0,0.0
0.0,57.0,110.0,0.0
0.0,36.0,104.0,0.0
0.0,42.0,110.0,0.0
0.0,64.0,110.0,3.0
0.0,61.0,110.0,0.0
0.0,64.0,110.0,0.0
0.0,57.0,110.0,0.0
0.0,42.0,79.0,0.0
0.0,44.0,122.0,0.0
0.0,57.0,110.0,3.0
0.0,36.0,107.0,1.0
0.0,40.0,77.0,0.0
0.0,42.0,105.0,0.0
0.0,51.0,90.0,0.0
0.0,62.0,110.0,3.0
0.0,62.0,110.0,0.0
0.0,52.0,110.0,0.0
0.0,42.0,88.0,0.0
0.0,44.0,119.0,0.0
0.0,64.0,110.0,3.0
0.0,61.0,110.0,0.0
0.0,64.0,110.0,0.0
0.0,45.0,110.0,0.0
0.0,66.0,110.0,3.0
0.0,66.0,110.0,0.0
0.0,50.0,110.0,0.0
0.0,57.0,94.0,0.0
0.0,36.0,101.0,1.0
0.0,42.0,102.0,0.0
0.0,42.0,84.0,0.0
0.0,44.0,120.0,0.0
0.0,66.0,110.0,3.0
0.0,66.0,110.0,0.0
0.0,50.0,110.0,0.0
0.0,40.0,72.0,0.0
0.0,42.0,108.0,0.0
0.0,62.0,110.0,3.0
0.0,62.0,110.0,0.0
0.0,51.0,96.0,1.0
0.0,36.0,108.0,50.0
0.0,57.0,110.0,49.0
0.0,36.0,103.0,0.0
0.0,42.0,85.0,1.0
0.0,44.0,124.0,0.0
0.0,64.0,110.0,3.0
0.0,64.0,110.0,0.0
0.0,49.0,110.0,0.0
0.0,42.0,102.0,1.0
0.0,42.0,87.0,0.0
0.0,44.0,117.0,0.0
0.0,49.0,110.0,3.0
0.0,36.0,102.0,1.0
0.0,40.0,76.0,0.0
0.0,42.0,105.0,0.0
0.0,51.0,96.0,0.0
0.0,61.0,110.0,3.0
0.0,61.0,110.0,0.0
0.0,42.0,81.0,0.0
0.0,44.0,123.0,0.0
0.0,61.0,110.0,3.0
0.0,61.0,110.0,0.0
0.0,57.0,110.0,0.0
0.0,36.0,100.0,54.0
0.0,42.0,101.0,1.0
0.0,62.0,110.0,2.0
0.0,62.0,110.0,0.0
0.0,47.0,110.0,0.0
0.0,36.0,101.0,1.0
0.0,44.0,124.0,0.0
0.0,62.0,110.0,3.0
0.0,62.0,110.0,0.0
0.0,47.0,110.0,0.0
0.0,42.0,82.0,1.0
0.0,40.0,79.0,0.0
0.0,51.0,95.0,0.0
0.0,42.0,107.0,1.0
0.0,57.0,110.0,2.0
0.0,57.0,110.0,0.0
0.0,36.0,105.0,53.0
0.0,42.0,83.0,46.0
0.0,44.0,123.0,0.0
0.0,54.0,110.0,3.0
0.0,36.0,104.0,0.0
0.0,42.0,110.0,0.0
0.0,61.0,110.0,3.0
0.0,61.0,110.0,0.0
0.0,45.0,110.0,0.0
0.0,42.0,79.0,0.0
0.0,44.0,122.0,0.0
0.0,45.0,110.0,3.0
0.0,36.0,107.0,1.0
0.0,40.0,77.0,0.0
0.0,42.0,105.0,0.0
0.0,51.0,90.0,0.0
0.0,57.0,110.0,3.0
0.0,57.0,110.0,0.0
0.0,52.0,110.0,0.0
0.0,42.0,88.0,0.0
0.0,44.0,119.0,0.0
0.0,45.0,110.0,3.0
0.0,61.0,110.0,3.0
0.0,61.0,110.0,0.0
0.0,43.0,110.0,0.0
0.0,57.0,94.0,0.0
0.0,36.0,101.0,1.0
0.0,42.0,102.0,0.0
0.0,42.0,84.0,0.0
0.0,44.0,120.0,0.0
0.0,43.0,110.0,3.0
0.0,40.0,72.0,0.0
0.0,42.0,108.0,0.0
0.0,62.0,110.0,3.0
0.0,62.0,110.0,0.0
0.0,51.0,96.0,1.0
0.0,36.0,108.0,50.0
0.0,59.0,110.0,3.0
0.0,59.0,110.0,0.0
0.0,50.0,110.0,0.0
0.0,36.0,103.0,0.0
0.0,42.0,85.0,1.0
0.0,44.0,124.0,0.0
0.0,55.0,110.0,3.0
0.0,42.0,102.0,1.0
0.0,42.0,87.0,0.0
0.0,44.0,117.0,0.0
0.0,55.0,110.0,3.0
0.0,36.0,102.0,1.0
0.0,40.0,76.0,0.0
0.0,42.0,105.0,0.0
0.0,51.0,96.0,0.0
0.0,50.0,110.0,3.0
0.0,42.0,81.0,0.0
0.0,44.0,123.0,0.0
0.0,43.0,110.0,3.0
0.0,36.0,100.0,54.0
0.0,42.0,101.0,1.0
0.0,57.0,110.0,2.0
0.0,61.0,110.0,0.0
0.0,45.0,110.0,0.0
0.0,36.0,101.0,1.0
0.0,44.0,124.0,0.0
0.0,62.0,110.0,3.0
0.0,62.0,110.0,0.0
0.0,45.0,110.0,0.0
0.0,42.0,82.0,1.0
0.0,40.0,79.0,0.0
0.0,51.0,95.0,0.0
0.0,42.0,107.0,1.0
0.0,66.0,110.0,2.0
0.0,66.0,110.0,0.0
0.0,36.0,105.0,53.0
0.0,42.0,83.0,46.0
0.0,44.0,123.0,0.0
0.0,52.0,110.0,3.0
0.0,36.0,104.0,0.0
0.0,42.0,110.0,0.0
0.0,64.0,110.0,3.0
0.0,61.0,110.0,0.0
0.0,64.0,110.0,0.0
0.0,45.0,110.0,0.0
0.0,42.0,79.0,0.0
0.0,44.0,122.0,0.0
0.0,62.0,110.0,3.0
0.0,62.0,110.0,0.0
0.0,47.0,110.0,0.0
0.0,36.0,107.0,1.0
0.0,40.0,77.0,0.0
0.0,42.0,105.0,0.0
0.0,51.0,90.0,0.0
0.0,61.0,110.0,3.0
0.0,64.0,110.0,0.0
0.0,49.0,110.0,0.0
0.0,42.0,88.0,110.0
0.0,44.0,119.0,0.0
0.0,57.0,110.0,40.0
0.0,62.0,110.0,0.0
0.0,66.0,110.0,0.0
0.0,50.0,110.0,0.0
0.0,57.0,94.0,0.0
0.0,36.0,101.0,1.0
0.0,42.0,102.0,0.0
0.0,42.0,84.0,0.0
0.0,44.0,120.0,0.0
0.0,50.0,110.0,3.0
0.0,40.0,72.0,0.0
0.0,42.0,108.0,0.0
0.0,69.0,110.0,3.0
0.0,69.0,110.0,0.0
0.0,45.0,110.0,0.0
0.0,51.0,96.0,1.0
0.0,36.0,108.0,50.0
0.0,50.0,110.0,3.0
0.0,36.0,103.0,0.0
0.0,42.0,85.0,1.0
0.0,44.0,124.0,0.0
0.0,67.0,110.0,3.0
0.0,60.0,110.0,0.0
0.0,67.0,110.0,0.0
0.0,48.0,110.0,0.0
0.0,42.0,102.0,1.0
0.0,42.0,87.0,0.0
0.0,44.0,117.0,0.0
0.0,66.0,110.0,3.0
0.0,66.0,110.0,0.0
0.0,48.0,110.0,0.0
0.0,36.0,102.0,1.0
0.0,40.0,76.0,0.0
0.0,42.0,105.0,0.0
0.0,51.0,96.0,0.0
0.0,64.0,110.0,3.0
0.0,64.0,110.0,0.0
0.0,42.0,81.0,0.0
0.0,44.0,123.0,0.0
0.0,62.0,110.0,3.0
0.0,62.0,110.0,0.0
0.0,55.0,110.0,0.0
0.0,36.0,100.0,1.0
0.0,42.0,101.0,1.0
0.0,64.0,110.0,2.0
0.0,59.0,110.0,0.0
0.0,64.0,110.0,0.0
0.0,47.0,110.0,0.0
0.0,36.0,101.0,1.0
0.0,44.0,124.0,0.0
0.0,66.0,110.0,3.0
0.0,66.0,110.0,0.0
0.0,47.0,110.0,0.0
0.0,42.0,82.0,1.0
0.0,40.0,79.0,0.0
0.0,51.0,95.0,0.0
0.0,42.0,107.0,1.0
0.0,62.0,110.0,2.0
0.0,62.0,110.0,0.0
0.0,54.0,110.0,0.0
0.0,36.0,105.0,53.0
0.0,42.0,83.0,0.0
0.0,44.0,123.0,0.0
0.0,47.0,110.0,3.0
0.0,36.0,104.0,0.0
0.0,42.0,110.0,0.0
0.0,47.0,110.0,3.0
0.0,42.0,79.0,0.0
0.0,44.0,122.0,0.0
0.0,47.0,110.0,3.0
0.0,36.0,107.0,1.0
0.0,40.0,77.0,57.0
0.0,42.0,105.0,0.0
0.0,51.0,90.0,0.0
0.0,62.0,110.0,3.0
0.0,62.0,110.0,0.0
0.0,42.0,88.0,0.0
0.0,44.0,119.0,0.0
0.0,64.0,110.0,0.0
0.0,64.0,110.0,0.0
0.0,54.0,110.0,0.0
0.0,64.0,110.0,3.0
0.0,57.0,110.0,0.0
0.0,64.0,110.0,0.0
0.0,42.0,110.0,0.0
0.0,57.0,94.0,0.0
0.0,36.0,101.0,1.0
0.0,42.0,102.0,0.0
0.0,42.0,84.0,0.0
0.0,44.0,120.0,0.0
0.0,62.0,110.0,3.0
0.0,62.0,110.0,0.0
0.0,43.0,110.0,0.0
0.0,40.0,72.0,0.0
0.0,42.0,108.0,0.0
0.0,59.0,110.0,3.0
0.0,59.0,110.0,0.0
0.0,43.0,110.0,0.0
0.0,51.0,96.0,1.0
0.0,36.0,108.0,50.0
0.0,62.0,110.0,3.0
0.0,62.0,110.0,0.0
0.0,43.0,110.0,0.0
0.0,36.0,103.0,0.0
0.0,42.0,85.0,1.0
0.0,44.0,124.0,0.0
0.0,64.0,110.0,3.0
0.0,57.0,110.0,0.0
0.0,64.0,110.0,0.0
0.0,42.0,110.0,0.0
0.0,42.0,102.0,1.0
0.0,42.0,87.0,0.0
0.0,44.0,117.0,0.0
0.0,43.0,110.0,3.0
0.0,36.0,102.0,1.0
0.0,40.0,76.0,0.0
0.0,42.0,105.0,0.0
0.0,51.0,96.0,0.0
0.0,62.0,110.0,3.0
0.0,59.0,110.0,0.0
0.0,62.0,110.0,0.0
0.0,43.0,110.0,0.0
0.0,42.0,81.0,0.0
0.0,44.0,123.0,0.0
0.0,43.0,110.0,3.0
0.0,36.0,100.0,54.0
0.0,42.0,101.0,1.0
0.0,64.0,110.0,2.0
0.0,61.0,110.0,0.0
0.0,64.0,110.0,0.0
0.0,45.0,110.0,0.0
0.0,36.0,101.0,1.0
0.0,44.0,124.0,0.0
0.0,64.0,110.0,3.0
0.0,61.0,110.0,0.0
0.0,64.0,110.0,0.0
0.0,45.0,110.0,0.0
0.0,42.0,82.0,1.0
0.0,40.0,79.0,0.0
0.0,51.0,95.0,0.0
0.0,42.0,107.0,1.0
0.0,36.0,105.0,53.0
0.0,42.0,83.0,37.0
0.0,44.0,123.0,0.0
0.0,66.0,110.0,3.0
0.0,61.0,110.0,0.0
0.0,66.0,110.0,0.0
0.0,52.0,110.0,0.0
0.0,36.0,104.0,0.0
0.0,42.0,110.0,0.0
0.0,57.0,110.0,3.0
0.0,42.0,79.0,0.0
0.0,44.0,122.0,0.0
0.0,64.0,110.0,3.0
0.0,64.0,110.0,0.0
0.0,52.0,110.0,0.0
0.0,36.0,107.0,1.0
0.0,40.0,77.0,0.0
0.0,42.0,105.0,0.0
0.0,51.0,90.0,0.0
0.0,62.0,110.0,3.0
0.0,62.0,110.0,0.0
0.0,45.0,110.0,0.0
0.0,42.0,88.0,0.0
0.0,44.0,119.0,0.0
0.0,64.0,110.0,3.0
0.0,61.0,110.0,0.0
0.0,64.0,110.0,0.0
0.0,45.0,110.0,0.0
0.0,62.0,110.0,3.0
0.0,57.0,110.0,0.0
0.0,62.0,110.0,0.0
0.0,50.0,110.0,0.0
0.0,57.0,94.0,0.0
0.0,36.0,101.0,1.0
0.0,42.0,102.0,0.0
0.0,42.0,84.0,0.0
0.0,44.0,120.0,0.0
0.0,50.0,110.0,3.0
0.0,40.0,72.0,0.0
0.0,42.0,108.0,0.0
0.0,69.0,110.0,3.0
0.0,66.0,110.0,0.0
0.0,69.0,110.0,0.0
0.0,45.0,110.0,0.0
0.0,51.0,96.0,1.0
0.0,36.0,108.0,50.0
0.0,69.0,110.0,3.0
0.0,66.0,110.0,0.0
0.0,69.0,110.0,0.0
0.0,50.0,110.0,0.0
0.0,36.0,103.0,0.0
0.0,42.0,85.0,1.0
0.0,44.0,124.0,0.0
0.0,67.0,110.0,3.0
0.0,60.0,110.0,0.0
0.0,67.0,110.0,0.0
0.0,48.0,110.0,0.0
0.0,42.0,102.0,1.0
0.0,42.0,87.0,0.0
0.0,44.0,117.0,0.0
0.0,66.0,110.0,3.0
0.0,66.0,110.0,0.0
0.0,48.0,110.0,0.0
0.0,36.0,102.0,1.0
0.0,40.0,76.0,0.0
0.0,42.0,105.0,0.0
0.0,51.0,96.0,0.0
0.0,64.0,110.0,3.0
0.0,64.0,110.0,0.0
0.0,42.0,81.0,0.0
0.0,44.0,123.0,0.0
0.0,62.0,110.0,3.0
0.0,62.0,110.0,0.0
0.0,55.0,110.0,0.0
0.0,36.0,100.0,1.0
0.0,42.0,101.0,1.0
0.0,64.0,110.0,2.0
0.0,59.0,110.0,0.0
0.0,64.0,110.0,0.0
0.0,47.0,110.0,0.0
0.0,36.0,101.0,1.0
0.0,44.0,124.0,0.0
0.0,66.0,110.0,3.0
0.0,66.0,110.0,0.0
0.0,47.0,110.0,0.0
0.0,42.0,82.0,1.0
0.0,0.0,0.0,0.0
0.0,0.0,0.0,0.0
0.0,0.0,0.0,0.0
0.0,0.0,0.0,0.0
0.0,0.0,0.0,0.0
0.0,0.0,0.0,0.0
0.0,0.0,0.0,0.0
0.0,0.0,0.0,0.0
0.0,0.0,0.0,0.0
0.0,0.0,0.0,0.0
0.0,0.0,0.0,0.0
0.0,0.0,0.0,0.0
0.0,0.0,0.0,0.0
0.0,0.0,0.0,0.0
0.0,0.0,0.0,0.0
0.0,0.0,0.0,0.0
0.0,0.0,0.0,0.0
0.0,0.0,0.0,0.0
0.0,0.0,0.0,0.0
0.0,0.0,0.0,0.0
0.0,0.0,0.0,0.0
0.0,0.0,0.0,0.0
0.0,0.0,0.0,0.0
0.0,0.0,0.0,0.0
0.0,0.0,0.0,0.0
0.0,0.0,0.0,0.0
0.0,0.0,0.0,0.0
0.0,0.0,0.0,0.0
0.0,0.0,0.0,0.0
0.0,0.0,0.0,0.0
0.0,0.0,0.0,0.0
0.0,0.0,0.0,0.0
0.0,0.0,0.0,0.0
0.0,0.0,0.0,0.0
0.0,0.0,0.0,0.0
0.0,0.0,0.0,0.0
0.0,0.0,0.0,0.0
0.0,0.0,0.0,0.0
0.0,0.0,0.0,0.0
0.0,0.0,0.0,0.0
0.0,0.0,0.0,0.0
0.0,0.0,0.0,0.0
0.0,0.0,0.0,0.0
0.0,0.0,0.0,0.0
0.0,0.0,0.0,0.0
0.0,0.0,0.0,0.0
