track,note,velocity,time
0,59,35,417
0,59,50,3
0,59,60,4
0,59,70,5
0,37,88,1
0,44,52,1
0,37,92,2
0,25,92,0
0,35,127,0
0,44,98,1
0,49,102,0
0,59,72,0
0,39,102,69
0,69,72,2
0,38,84,1
0,69,56,21
0,35,111,21
0,42,72,2
0,69,65,0
0,35,127,3
0,42,72,2
0,50,110,3
0,50,46,21
0,38,84,3
0,48,94,2
0,41,76,3
0,42,46,2
0,45,76,0
0,35,127,3
0,42,72,2
0,39,102,69
0,69,72,2
0,38,84,21
0,69,56,21
0,25,90,1
0,35,111,1
0,42,72,1
0,69,65,0
0,35,127,44
0,42,72,2
0,50,96,45
0,39,102,21
0,50,94,2
0,38,84,21
0,48,94,2
0,48,78,21
0,41,76,21
0,42,46,2
0,45,76,0
0,39,102,20
0,35,127,21
0,42,72,2
0,39,102,69
0,69,72,2
0,38,84,21
0,69,56,21
0,25,90,1
0,35,111,1
0,42,72,1
0,69,65,0
0,35,127,44
0,42,72,2
0,50,110,45
0,50,52,21
0,38,84,21
0,48,94,2
0,41,76,45
0,42,46,2
0,45,76,0
0,35,127,44
0,42,72,2
0,39,102,69
0,69,72,2
0,38,84,21
0,69,56,21
0,25,90,1
0,35,111,1
0,42,72,1
0,69,65,0
0,35,127,44
0,42,72,2
0,50,96,45
0,39,102,21
0,50,94,2
0,38,84,0
0,48,94,1
0,48,78,21
0,84,48,22
0,41,76,0
0,42,46,1
0,45,76,0
0,39,102,0
0,35,127,21
0,42,72,2
0,69,72,69
0,38,84,0
0,25,60,1
0,37,64,0
0,69,56,21
0,25,90,1
0,35,111,1
0,42,72,1
0,69,65,0
0,35,127,0
0,42,72,1
0,25,60,1
0,50,110,0
0,37,67,1
0,39,102,21
0,50,46,2
0,38,84,0
0,48,94,1
0,41,76,45
0,42,46,2
0,45,76,0
0,35,127,0
0,42,72,1
0,39,102,69
0,39,102,0
0,69,72,0
0,38,84,20
0,69,56,21
0,25,90,1
0,35,111,1
0,42,72,1
0,69,65,0
0,35,127,44
0,42,72,2
0,25,60,1
0,50,96,0
0,37,68,1
0,39,102,21
0,50,94,2
0,38,84,0
0,48,94,1
0,48,78,21
0,41,76,22
0,42,46,2
0,45,76,0
0,35,127,44
0,42,72,2
0,39,102,69
0,69,71,2
0,38,84,0
0,25,60,1
0,37,71,0
0,25,90,1
0,35,111,1
0,42,72,1
0,35,127,29
0,42,72,2
0,25,60,1
0,69,80,0
0,37,71,1
0,38,84,0
0,42,46,11
0,35,127,0
0,42,72,1
0,69,79,0
0,38,84,92
0,35,111,45
0,42,72,2
0,69,68,0
0,35,127,0
0,92,112,1
0,42,72,0
0,50,86,0
0,90,109,1
0,87,104,1
0,85,104,1
0,82,104,1
0,48,62,0
0,50,86,1
0,80,104,0
0,69,57,0
0,78,104,1
0,75,99,0
0,73,99,1
0,70,99,1
0,41,68,0
0,45,68,2
0,69,77,0
0,68,100,0
0,66,97,1
0,63,95,1
0,61,94,2
0,58,93,1
0,56,92,0
0,54,91,1
0,51,90,1
0,49,89,1
0,46,87,1
0,39,67,0
0,38,84,0
0,75,95,0
0,50,94,0
0,73,93,1
0,70,91,1
0,68,89,1
0,66,87,1
0,48,62,0
0,50,116,1
0,63,87,0
0,69,69,0
0,61,87,1
0,58,87,0
0,56,87,2
0,54,85,1
0,41,68,1
0,42,46,0
0,45,68,0
0,69,78,0
0,51,85,0
0,49,85,1
0,84,72,0
0,46,85,1
0,44,85,1
0,54,85,1
0,39,102,1
0,51,85,0
0,49,85,0
0,46,85,1
0,44,85,1
0,56,105,1
0,60,106,0
0,63,105,0
0,42,85,0
0,63,72,0
0,25,100,0
0,35,127,1
0,53,110,1
0,56,98,0
0,60,98,0
0,63,104,0
0,96,120,0
0,83,82,0
0,39,102,58
0,69,72,2
0,38,84,0
0,69,56,21
0,35,111,0
0,42,72,2
0,69,72,0
0,35,127,0
0,42,72,2
0,89,120,0
0,53,108,1
0,50,94,0
0,50,30,6
0,92,120,0
0,56,92,1
0,38,84,0
0,48,78,1
0,99,88,0
0,63,92,1
0,41,60,0
0,42,46,1
0,45,60,0
0,55,106,13
0,58,106,1
0,63,106,1
0,27,99,1
0,94,97,0
0,51,98,0
0,55,98,0
0,58,98,0
0,35,127,0
0,42,72,0
0,63,96,0
0,39,102,62
0,69,72,2
0,38,84,21
0,69,56,2
0,56,106,17
0,60,106,1
0,63,105,1
0,29,96,1
0,96,107,0
0,53,94,0
0,56,96,0
0,60,97,0
0,35,111,0
0,42,72,0
0,63,97,0
0,69,65,0
0,35,127,37
0,42,72,2
0,50,80,45
0,39,102,21
0,50,78,2
0,38,84,21
0,48,78,2
0,48,62,21
0,41,60,21
0,42,46,2
0,45,60,0
0,39,102,0
0,55,105,18
0,58,105,1
0,63,105,1
0,31,100,1
0,94,104,0
0,51,94,1
0,55,94,0
0,58,97,0
0,63,97,0
0,35,127,0
0,42,72,0
0,39,102,24
0,69,72,2
0,38,84,0
0,69,56,1
0,56,105,18
0,60,105,1
0,63,105,1
0,32,98,0
0,96,104,0
0,51,96,1
0,56,99,0
0,60,97,0
0,63,97,0
0,35,111,0
0,42,72,0
0,69,65,0
0,35,127,0
0,42,72,2
0,50,94,45
0,50,30,21
0,38,84,21
0,48,78,2
0,41,60,45
0,42,46,2
0,45,60,0
0,35,127,0
0,42,72,2
0,104,102,45
0,68,92,1
0,80,111,2
0,39,102,14
0,69,72,2
0,103,90,0
0,67,99,1
0,38,84,0
0,79,100,0
0,69,56,13
0,99,102,0
0,63,92,1
0,35,111,0
0,42,72,1
0,75,84,0
0,69,65,0
0,35,127,0
0,42,72,2
0,58,105,0
0,60,106,1
0,63,106,1
0,36,96,0
0,94,104,0
0,55,112,1
0,58,112,0
0,60,115,0
0,63,115,0
0,50,80,0
0,39,102,15
0,50,78,2
0,38,84,0
0,48,78,2
0,48,62,21
0,41,60,0
0,42,46,2
0,45,60,0
0,39,102,1
0,56,105,0
0,60,105,1
0,63,105,1
0,87,88,0
0,25,100,1
0,53,108,1
0,56,108,0
0,60,108,0
0,63,103,0
0,99,107,0
0,35,127,0
0,42,72,0
0,69,72,59
0,38,84,0
0,69,56,21
0,35,111,0
0,42,72,2
0,69,65,0
0,35,127,0
0,42,72,2
0,89,115,0
0,53,108,1
0,50,94,0
0,39,102,10
0,50,30,2
0,92,120,0
0,56,92,1
0,38,84,0
0,48,78,1
0,99,97,0
0,63,92,1
0,41,60,0
0,42,46,1
0,45,60,0
0,55,105,13
0,58,105,1
0,63,104,1
0,27,99,1
0,94,102,0
0,51,98,0
0,55,98,0
0,58,98,0
0,35,127,0
0,42,72,0
0,63,96,0
0,39,102,61
0,39,102,0
0,69,72,0
0,38,84,0
0,69,56,0
0,56,104,17
0,60,105,1
0,63,105,1
0,53,94,0
0,29,99,0
0,96,104,0
0,56,96,0
0,60,97,0
0,35,111,0
0,42,72,0
0,63,97,0
0,69,65,0
0,35,127,0
0,42,72,2
0,50,80,45
0,39,102,21
0,50,78,2
0,38,84,0
0,48,78,2
0,48,62,21
0,41,60,21
0,42,46,2
0,45,60,0
0,55,105,21
0,58,105,1
0,63,106,1
0,31,98,1
0,94,102,0
0,51,99,1
0,55,99,0
0,58,104,0
0,63,99,0
0,35,127,0
0,42,72,0
0,39,102,59
0,69,71,2
0,38,84,21
0,56,105,13
0,60,105,1
0,63,106,1
0,32,99,0
0,96,94,0
0,51,107,1
0,56,102,0
0,60,107,0
0,63,102,0
0,35,111,0
0,42,72,0
0,35,127,33
0,42,72,2
0,69,80,45
0,38,84,0
0,56,105,15
0,60,106,1
0,63,105,1
0,25,99,0
0,96,107,0
0,53,105,1
0,56,105,0
0,60,105,0
0,63,105,0
0,42,46,0
0,35,127,0
0,42,72,0
0,69,79,0
0,38,84,0
0,35,111,45
0,42,72,2
0,69,68,0
0,35,127,0
0,42,72,2
0,50,70,0
0,48,46,20
0,50,70,2
0,69,57,0
0,104,102,20
0,68,92,1
0,41,52,0
0,45,52,1
0,68,56,0
0,69,77,0
0,80,104,0
0,38,84,0
0,50,78,2
0,48,46,21
0,50,100,2
0,69,69,0
0,41,52,20
0,42,46,2
0,45,52,0
0,69,78,0
0,84,68,11
0,39,102,0
0,56,103,1
0,60,105,0
0,63,103,0
0,63,56,0
0,53,108,1
0,25,102,0
0,96,95,0
0,73,77,1
0,56,108,0
0,60,108,0
0,35,127,0
0,83,56,0
0,63,103,0
0,73,76,2
0,39,102,23
0,69,72,2
0,38,84,0
0,73,83,2
0,69,56,21
0,72,83,1
0,35,111,0
0,42,72,2
0,69,65,0
0,68,80,11
0,35,127,1
0,42,72,2
0,63,76,0
0,61,56,0
0,89,88,0
0,53,108,1
0,50,94,0
0,50,30,2
0,60,56,0
0,92,88,0
0,56,92,1
0,38,84,0
0,63,85,1
0,48,78,0
0,99,88,0
0,63,92,1
0,41,60,0
0,70,81,1
0,42,46,0
0,45,60,0
0,55,105,13
0,58,104,1
0,63,105,1
0,58,48,0
0,27,100,1
0,94,72,0
0,51,98,0
0,55,98,0
0,35,127,0
0,42,72,0
0,58,98,0
0,63,96,0
0,39,102,23
0,69,72,2
0,38,84,21
0,69,56,21
0,56,103,14
0,60,105,1
0,63,104,1
0,60,48,0
0,53,94,1
0,29,101,0
0,96,88,0
0,72,70,0
0,56,96,0
0,60,97,0
0,35,111,0
0,42,72,0
0,63,97,0
0,69,65,0
0,35,127,31
0,42,72,2
0,50,80,9
0,39,102,21
0,50,78,2
0,38,84,21
0,48,78,2
0,48,62,21
0,63,78,17
0,41,60,4
0,42,46,2
0,45,60,0
0,39,102,0
0,55,105,1
0,58,104,0
0,63,105,1
0,58,48,0
0,31,99,1
0,94,72,0
0,70,81,1
0,51,96,0
0,55,99,0
0,35,127,0
0,42,72,0
0,58,94,0
0,63,99,0
0,39,102,23
0,69,72,2
0,38,84,21
0,69,56,21
0,56,103,9
0,60,105,1
0,63,105,0
0,67,72,0
0,60,48,0
0,32,100,0
0,96,88,0
0,51,99,1
0,56,89,0
0,60,96,0
0,63,96,0
0,35,111,0
0,42,72,0
0,69,65,0
0,65,72,3
0,35,127,20
0,63,77,0
0,42,72,0
0,50,94,45
0,50,30,21
0,38,84,21
0,48,78,2
0,56,102,17
0,60,106,1
0,63,104,1
0,96,88,0
0,25,98,0
0,41,60,0
0,53,96,1
0,56,96,0
0,60,99,0
0,63,94,0
0,42,46,0
0,45,60,0
0,35,127,31
0,42,72,2
0,53,82,1
0,39,102,23
0,69,72,2
0,56,82,1
0,38,84,0
0,69,56,21
0,63,88,1
0,35,111,0
0,42,72,1
0,69,65,0
0,35,127,44
0,42,72,2
0,50,80,45
0,39,102,21
0,50,78,2
0,89,95,20
0,38,84,2
0,48,78,1
0,48,62,21
0,99,87,19
0,41,60,2
0,42,46,1
0,45,60,0
0,84,68,3
0,39,102,6
0,56,103,9
0,60,106,0
0,73,77,0
0,63,106,0
0,63,56,0
0,25,99,0
0,96,87,0
0,96,87,0
0,35,127,1
0,53,108,1
0,56,108,0
0,42,72,0
0,83,65,0
0,60,108,0
0,73,76,8
0,69,72,23
0,38,84,1
0,73,81,2
0,69,56,18
0,72,82,1
0,35,111,1
0,42,72,2
0,69,65,0
0,68,76,4
0,35,127,0
0,42,72,2
0,63,82,42
0,61,56,0
0,89,75,0
0,53,108,1
0,50,94,0
0,39,102,9
0,50,30,2
0,63,90,0
0,60,56,0
0,92,75,0
0,56,92,1
0,38,84,0
0,48,78,1
0,99,88,4
0,63,92,1
0,41,60,0
0,42,46,1
0,45,60,0
0,69,68,2
0,70,75,2
0,55,105,13
0,58,104,1
0,63,105,0
0,58,48,0
0,27,101,1
0,94,72,0
0,51,98,0
0,55,98,0
0,35,127,0
0,42,72,0
0,58,98,0
0,63,96,0
0,63,98,1
0,39,102,22
0,39,102,0
0,69,72,0
0,38,84,20
0,69,56,21
0,56,103,15
0,60,105,1
0,63,105,1
0,72,76,0
0,60,48,0
0,29,100,0
0,96,87,0
0,53,94,0
0,56,96,0
0,35,111,0
0,42,72,0
0,60,97,0
0,63,97,0
0,69,65,0
0,35,127,35
0,42,72,2
0,89,88,0
0,53,94,1
0,50,80,0
0,39,102,9
0,50,78,2
0,92,88,0
0,56,104,1
0,38,84,0
0,48,78,1
0,48,62,14
0,99,88,0
0,63,104,1
0,41,60,0
0,42,46,1
0,45,60,0
0,55,105,1
0,58,105,1
0,63,104,1
0,58,48,0
0,31,100,1
0,94,88,0
0,51,96,1
0,55,96,0
0,58,101,0
0,63,96,0
0,35,127,0
0,42,72,0
0,39,102,61
0,69,71,2
0,38,84,21
0,56,104,14
0,60,104,1
0,63,105,1
0,60,48,0
0,32,100,0
0,96,88,0
0,51,104,1
0,56,99,0
0,60,104,0
0,63,99,0
0,35,111,0
0,42,72,0
0,35,127,31
0,42,72,2
0,92,104,0
0,56,98,1
0,69,80,0
0,99,87,0
0,63,105,1
0,38,84,0
0,56,104,17
0,60,105,1
0,63,105,1
0,25,96,0
0,96,88,0
0,53,102,1
0,56,102,0
0,60,108,0
0,63,82,0
0,42,46,0
0,35,127,39
0,42,72,2
0,69,79,0
0,38,84,92
0,35,111,45
0,42,72,2
0,69,68,0
0,35,127,44
0,42,72,2
0,50,70,0
0,48,46,20
0,50,70,2
0,69,57,0
0,41,52,20
0,45,52,2
0,69,77,0
0,38,84,44
0,50,78,2
0,48,46,21
0,50,100,2
0,69,69,0
0,41,52,18
0,42,46,3
0,45,52,0
0,69,78,0
0,84,68,11
0,39,102,5
0,60,46,1
0,63,44,0
0,29,106,0
0,53,105,2
0,56,75,0
0,60,75,0
0,63,75,0
0,35,127,0
0,83,72,0
0,68,103,0
0,72,103,1
0,75,109,0
0,55,98,1
0,39,102,23
0,69,72,2
0,56,98,1
0,38,84,0
0,69,56,21
0,75,83,17
0,63,98,1
0,35,111,0
0,42,72,1
0,69,65,0
0,75,82,0
0,35,127,0
0,42,72,2
0,77,85,1
0,60,47,0
0,63,47,0
0,36,99,0
0,50,94,0
0,55,94,1
0,58,94,0
0,60,94,0
0,63,94,0
0,70,98,0
0,72,105,1
0,75,108,0
0,50,30,20
0,79,78,2
0,38,84,2
0,48,78,2
0,80,76,0
0,60,48,0
0,63,46,0
0,24,96,0
0,41,60,0
0,53,94,1
0,56,94,0
0,60,94,0
0,63,94,0
0,42,46,0
0,68,103,0
0,45,60,0
0,72,103,0
0,75,105,0
0,25,99,0
0,35,127,1
0,42,72,1
0,79,76,1
0,77,64,45
0,39,102,22
0,69,72,2
0,38,84,4
0,77,70,2
0,69,56,21
0,35,111,21
0,42,72,1
0,69,65,0
0,75,48,1
0,35,127,0
0,42,72,1
0,75,73,1
0,68,114,46
0,50,80,0
0,39,102,21
0,50,78,2
0,38,84,0
0,72,66,2
0,48,78,0
0,63,104,1
0,48,62,0
0,41,60,21
0,42,46,2
0,45,60,0
0,39,102,0
0,60,46,0
0,63,46,0
0,29,106,1
0,53,105,1
0,56,75,0
0,60,75,0
0,63,75,0
0,35,127,0
0,42,72,0
0,68,98,0
0,72,102,1
0,75,103,0
0,74,62,8
0,55,98,35
0,39,102,23
0,69,72,2
0,56,98,1
0,38,84,0
0,69,56,21
0,63,98,1
0,35,111,0
0,42,72,1
0,69,65,0
0,75,80,43
0,35,127,0
0,42,72,2
0,77,77,3
0,60,45,0
0,63,46,0
0,55,102,0
0,39,99,0
0,50,94,0
0,58,102,1
0,60,102,0
0,63,102,0
0,70,102,0
0,72,103,1
0,75,108,0
0,50,30,20
0,79,82,1
0,38,84,1
0,48,78,2
0,80,79,13
0,60,46,0
0,63,46,0
0,53,105,0
0,25,99,0
0,41,60,0
0,56,105,1
0,60,105,0
0,63,105,0
0,42,46,0
0,68,103,0
0,45,60,0
0,72,103,0
0,75,109,0
0,35,127,5
0,79,76,2
0,42,72,0
0,77,75,0
0,39,102,25
0,69,72,2
0,77,82,3
0,38,84,4
0,69,56,21
0,75,63,0
0,35,111,4
