track,note,velocity,time
1,49,39,0
1,53,39,0
1,56,47,0
1,56,0,480
1,53,0,0
1,49,0,0
1,49,37,0
1,58,44,0
1,54,44,0
1,54,0,480
1,58,0,0
1,49,0,0
1,49,37,0
1,53,37,0
1,56,44,0
1,56,0,720
1,53,0,0
1,49,0,0
1,58,44,0
1,51,37,0
1,49,37,0
1,49,0,240
1,51,0,0
1,58,0,0
1,49,39,0
1,51,39,0
1,56,47,0
1,56,0,480
1,51,0,0
1,49,0,0
1,56,46,0
1,48,38,0
1,51,38,0
1,51,0,480
1,48,0,0
1,56,0,0
1,49,39,0
1,53,39,0
1,56,47,0
1,56,0,960
1,53,0,0
1,49,0,0
1,61,54,0
1,56,45,0
1,53,45,0
1,53,0,480
1,56,0,0
1,61,0,0
1,54,47,0
1,58,47,0
1,61,56,0
1,61,0,480
1,58,0,0
1,54,0,0
1,56,36,0
1,53,36,0
1,61,44,0
1,61,0,720
1,53,0,0
1,56,0,0
1,52,37,0
1,61,44,0
1,55,37,0
1,55,0,240
1,61,0,0
1,52,0,0
1,54,39,0
1,51,39,0
1,61,47,0
1,61,0,480
1,51,0,0
1,54,0,0
1,51,37,0
1,60,43,0
1,54,37,0
1,54,0,480
1,60,0,0
1,51,0,0
1,49,37,0
1,53,37,0
1,61,43,0
1,61,0,720
1,53,0,0
1,49,0,0
1,49,39,240
1,53,39,0
1,56,47,0
1,56,0,480
1,53,0,0
1,49,0,0
1,49,37,0
1,54,44,0
1,58,44,0
1,58,0,480
1,54,0,0
1,49,0,0
1,49,37,0
1,53,37,0
1,56,44,0
1,56,0,720
1,53,0,0
1,49,0,0
1,49,37,0
1,51,37,0
1,58,44,0
1,58,0,240
1,51,0,0
1,49,0,0
1,49,39,0
1,51,39,0
1,56,47,0
1,56,0,480
1,51,0,0
1,49,0,0
1,48,38,0
1,51,38,0
1,56,46,0
1,56,0,480
1,51,0,0
1,48,0,0
1,49,39,0
1,53,39,0
1,56,47,0
1,56,0,960
1,53,0,0
1,49,0,0
1,53,45,0
1,56,45,0
1,61,54,0
1,61,0,480
1,56,0,0
1,53,0,0
1,54,47,0
1,58,47,0
1,61,56,0
1,61,0,480
1,58,0,0
1,54,0,0
1,53,34,0
1,56,34,0
1,61,41,0
1,61,0,720
1,56,0,0
1,53,0,0
1,52,37,0
1,55,37,0
1,61,44,0
1,61,0,240
1,55,0,0
1,52,0,0
1,51,39,0
1,54,39,0
1,61,47,0
1,61,0,480
1,54,0,0
1,51,0,0
1,51,37,0
1,54,37,0
1,60,43,0
1,60,0,480
1,54,0,0
1,51,0,0
1,49,37,0
1,53,37,0
1,61,43,0
1,61,0,720
1,53,0,0
1,49,0,0
1,48,39,240
1,51,39,0
1,56,47,0
1,56,0,480
1,51,0,0
1,48,0,0
1,48,37,0
1,54,44,0
1,56,44,0
1,56,0,420
1,54,0,0
1,48,0,0
1,48,37,0
1,51,44,0
1,56,44,0
1,56,0,60
1,51,0,0
1,48,0,0
1,49,39,0
1,53,39,0
1,56,47,0
1,56,0,360
1,53,0,0
1,49,0,0
1,53,45,0
1,56,45,0
1,61,53,0
1,61,0,120
1,56,0,0
1,53,0,0
1,56,41,0
1,54,41,0
1,60,49,0
1,60,0,240
1,54,0,0
1,56,0,0
1,53,31,0
1,56,31,0
1,61,37,0
1,61,0,240
1,56,0,0
1,53,0,0
1,48,39,0
1,51,39,0
1,56,47,0
1,56,0,480
1,51,0,0
1,48,0,0
1,48,37,0
1,54,44,0
1,56,44,0
1,56,0,420
1,54,0,0
1,48,0,0
1,48,37,0
1,51,44,0
1,56,44,0
1,56,0,60
1,51,0,0
1,48,0,0
1,49,39,0
1,53,39,0
1,56,47,0
1,56,0,360
1,53,0,0
1,49,0,0
1,53,45,0
1,56,45,0
1,65,55,0
1,65,0,120
1,56,0,0
1,53,0,0
1,56,45,0
1,54,45,0
1,65,58,0
1,65,0,120
1,63,51,0
1,63,0,120
1,54,0,0
1,56,0,0
1,53,31,0
1,56,31,0
1,61,37,0
1,61,0,240
1,56,0,0
1,53,0,0
1,48,46,0
1,51,46,0
1,56,56,0
1,56,0,480
1,51,0,0
1,48,0,0
1,48,52,0
1,54,62,0
1,56,62,0
1,56,0,420
1,54,0,0
1,48,0,0
1,48,57,0
1,51,68,0
1,56,68,0
1,56,0,60
1,51,0,0
1,48,0,0
1,56,70,0
1,61,70,0
1,68,87,0
1,68,0,360
1,61,0,0
1,56,0,0
1,61,60,0
1,65,60,0
1,68,72,0
1,68,0,120
1,65,0,0
1,61,0,0
1,63,61,0
1,60,61,0
1,68,79,0
1,68,0,120
1,66,66,0
1,66,0,120
1,60,0,0
1,63,0,0
1,56,44,0
1,61,44,0
1,65,55,0
1,65,0,240
1,61,0,0
1,56,0,0
1,54,39,0
1,58,39,0
1,63,47,0
1,63,0,480
1,58,0,0
1,54,0,0
1,48,37,0
1,51,37,0
1,56,43,0
1,56,0,480
1,51,0,0
1,48,0,0
1,49,37,0
1,53,37,0
1,61,43,0
1,61,0,720
1,53,0,0
1,49,0,0
1,48,39,240
1,51,39,0
1,56,47,0
1,56,0,480
1,51,0,0
1,48,0,0
1,48,37,0
1,54,44,0
1,56,44,0
1,56,0,420
1,54,0,0
1,48,0,0
1,48,37,0
1,51,44,0
1,56,44,0
1,56,0,60
1,51,0,0
1,48,0,0
1,49,39,0
1,53,39,0
1,56,47,0
1,56,0,360
1,53,0,0
1,49,0,0
1,53,45,0
1,56,45,0
1,61,53,0
1,61,0,120
1,56,0,0
1,53,0,0
1,56,41,0
1,54,41,0
1,60,49,0
1,60,0,240
1,54,0,0
1,56,0,0
1,53,31,0
1,56,31,0
1,61,37,0
1,61,0,240
1,56,0,0
1,53,0,0
1,48,39,0
1,51,39,0
1,56,47,0
1,56,0,480
1,51,0,0
1,48,0,0
1,48,37,0
1,54,44,0
1,56,44,0
1,56,0,420
1,54,0,0
1,48,0,0
1,48,37,0
1,51,44,0
1,56,44,0
1,56,0,60
1,51,0,0
1,48,0,0
1,49,39,0
1,53,39,0
1,56,47,0
1,56,0,360
1,53,0,0
1,49,0,0
1,53,45,0
1,56,45,0
1,65,55,0
1,65,0,120
1,56,0,0
1,53,0,0
1,56,45,0
1,54,45,0
1,65,58,0
1,65,0,120
1,63,51,0
1,63,0,120
1,54,0,0
1,56,0,0
1,53,31,0
1,56,31,0
1,61,37,0
1,61,0,240
1,56,0,0
1,53,0,0
1,48,46,0
1,51,46,0
1,56,56,0
1,56,0,480
1,51,0,0
1,48,0,0
1,48,52,0
1,54,62,0
1,56,62,0
1,56,0,420
1,54,0,0
1,48,0,0
1,48,57,0
1,51,68,0
1,56,68,0
1,56,0,60
1,51,0,0
1,48,0,0
1,56,70,0
1,61,70,0
1,68,87,0
1,68,0,360
1,61,0,0
1,56,0,0
1,61,61,0
1,65,61,0
1,68,73,0
1,68,0,120
1,65,0,0
1,61,0,0
1,63,61,0
1,60,61,0
1,68,79,0
1,68,0,120
1,66,66,0
1,66,0,120
1,60,0,0
1,63,0,0
1,56,44,0
1,61,44,0
1,65,55,0
1,65,0,240
1,61,0,0
1,56,0,0
1,54,39,0
1,58,39,0
1,63,47,0
1,63,0,480
1,58,0,0
1,54,0,0
1,48,37,0
1,51,37,0
1,56,43,0
1,56,0,480
1,51,0,0
1,48,0,0
1,49,37,0
1,53,37,0
1,61,43,0
1,61,0,720
1,53,0,0
1,49,0,0
1,49,39,240
1,53,39,0
1,56,47,0
1,56,0,240
1,53,0,0
1,49,0,0
1,49,37,240
1,54,37,0
1,58,44,0
1,58,0,240
1,54,0,0
1,49,0,0
1,49,39,240
1,53,39,0
1,56,47,0
1,56,0,240
1,53,0,0
1,49,0,0
1,49,37,240
1,51,37,0
1,58,44,0
1,58,0,240
1,51,0,0
1,49,0,0
1,49,39,240
1,51,39,0
1,56,47,0
1,56,0,240
1,51,0,0
1,49,0,0
1,48,38,240
1,51,38,0
1,56,46,0
1,56,0,240
1,51,0,0
1,48,0,0
1,54,38,240
1,54,0,120
1,53,37,120
1,53,0,120
1,51,36,120
1,51,0,120
1,49,35,120
1,49,0,120
1,53,40,120
1,56,40,0
1,61,49,0
1,61,0,240
1,56,0,0
1,53,0,0
1,54,38,240
1,58,46,0
1,61,46,0
1,61,0,240
1,58,0,0
1,54,0,0
1,53,40,240
1,56,40,0
1,61,49,0
1,61,0,240
1,56,0,0
1,53,0,0
1,52,38,240
1,55,38,0
1,61,46,0
1,61,0,240
1,55,0,0
1,52,0,0
1,51,39,240
1,54,39,0
1,61,47,0
1,61,0,240
1,54,0,0
1,51,0,0
1,51,38,240
1,54,38,0
1,60,46,0
1,60,0,240
1,54,0,0
1,51,0,0
1,49,35,240
1,53,35,0
1,61,42,0
1,61,0,120
1,53,0,0
1,49,0,0
1,56,39,120
1,56,0,120
1,53,42,120
1,53,0,120
1,51,39,120
1,51,0,120
1,49,39,120
1,53,39,0
1,56,47,0
1,56,0,240
1,53,0,0
1,49,0,0
1,49,37,240
1,54,37,0
1,58,44,0
1,58,0,240
1,54,0,0
1,49,0,0
1,49,39,240
1,53,39,0
1,56,47,0
1,56,0,240
1,53,0,0
1,49,0,0
1,49,37,240
1,51,37,0
1,58,44,0
1,58,0,240
1,51,0,0
1,49,0,0
1,49,39,240
1,51,39,0
1,56,47,0
1,56,0,240
1,51,0,0
1,49,0,0
1,48,38,240
1,51,38,0
1,56,46,0
1,56,0,240
1,51,0,0
1,48,0,0
1,54,39,240
1,54,0,120
1,53,38,120
1,53,0,120
1,51,38,120
1,51,0,120
1,49,37,120
1,49,0,120
1,53,40,120
1,56,40,0
1,61,49,0
1,61,0,240
1,56,0,0
1,53,0,0
1,54,38,240
1,58,46,0
1,61,46,0
1,61,0,240
1,58,0,0
1,54,0,0
1,53,40,240
1,56,40,0
1,61,49,0
1,61,0,240
1,56,0,0
1,53,0,0
1,52,38,240
1,55,38,0
1,61,46,0
1,61,0,240
1,55,0,0
1,52,0,0
1,51,39,240
1,54,39,0
1,61,47,0
1,61,0,240
1,54,0,0
1,51,0,0
1,51,38,240
1,54,38,0
1,60,46,0
1,60,0,240
1,54,0,0
1,51,0,0
1,49,35,240
1,53,35,0
1,61,42,0
1,61,0,120
1,53,0,0
1,49,0,0
1,56,39,120
1,56,0,120
1,53,42,120
1,53,0,120
1,49,39,120
1,49,0,120
1,48,39,120
1,51,39,0
1,56,47,0
1,56,0,240
1,51,0,0
1,48,0,0
1,48,38,240
1,51,38,0
1,56,46,0
1,56,0,240
1,51,0,0
1,48,0,0
1,49,42,240
1,53,42,0
1,56,42,0
1,56,0,240
1,53,0,0
1,49,0,0
1,53,45,0
1,53,0,120
1,54,52,120
1,54,0,120
1,56,54,120
1,56,0,120
1,48,50,120
1,51,50,0
1,56,61,0
1,56,0,240
1,51,0,0
1,48,0,0
1,51,49,240
1,56,49,0
1,60,60,0
1,60,0,240
1,56,0,0
1,51,0,0
1,53,60,240
1,56,60,0
1,61,60,0
1,61,0,240
1,56,0,0
1,53,0,0
1,56,67,0
1,56,0,120
1,60,73,120
1,60,0,120
1,61,75,120
1,61,0,120
1,48,77,120
1,51,77,0
1,56,91,0
1,56,0,240
1,51,0,0
1,48,0,0
1,54,57,240
1,60,57,0
1,63,84,0
1,63,0,240
1,60,0,0
1,54,0,0
1,53,74,240
1,61,74,0
1,65,89,0
1,65,0,240
1,61,0,0
1,53,0,0
1,65,73,0
1,53,61,0
1,53,0,120
1,65,0,0
1,66,78,120
1,54,66,0
1,54,0,120
1,66,0,0
1,68,75,120
1,56,65,0
1,56,0,120
1,68,0,0
1,58,58,120
1,70,58,0
1,70,0,240
1,58,0,0
1,48,38,240
1,51,38,0
1,56,46,0
1,56,0,240
1,51,0,0
1,48,0,0
1,54,40,240
1,54,0,120
1,53,39,120
1,53,0,120
1,51,38,120
1,51,0,120
1,49,37,120
1,49,0,120
1,48,39,120
1,51,39,0
1,56,47,0
1,56,0,240
1,51,0,0
1,48,0,0
1,48,38,240
1,51,38,0
1,56,46,0
1,56,0,240
1,51,0,0
1,48,0,0
1,49,42,240
1,53,42,0
1,56,42,0
1,56,0,240
1,53,0,0
1,49,0,0
1,53,45,0
1,53,0,120
1,54,52,120
1,54,0,120
1,56,54,120
1,56,0,120
1,48,50,120
1,51,50,0
1,56,61,0
1,56,0,240
1,51,0,0
1,48,0,0
1,51,49,240
1,56,49,0
1,60,60,0
1,60,0,240
1,56,0,0
1,51,0,0
1,53,60,240
1,56,60,0
1,61,60,0
1,61,0,240
1,56,0,0
1,53,0,0
1,56,67,0
1,56,0,120
1,60,73,120
1,60,0,120
1,61,75,120
1,61,0,120
1,48,77,120
1,51,77,0
1,56,91,0
1,56,0,240
1,51,0,0
1,48,0,0
1,54,57,240
1,60,57,0
1,63,84,0
1,63,0,240
1,60,0,0
1,54,0,0
1,53,74,240
1,61,74,0
1,65,89,0
1,65,0,240
1,61,0,0
1,53,0,0
1,65,73,0
1,53,61,0
1,53,0,120
1,65,0,0
1,66,78,120
1,54,66,0
1,54,0,120
1,66,0,0
1,68,75,120
1,56,65,0
1,56,0,120
1,68,0,0
1,58,58,120
1,70,58,0
1,70,0,240
1,58,0,0
1,48,38,240
1,51,38,0
1,56,46,0
1,56,0,240
1,51,0,0
1,48,0,0
1,53,42,240
1,53,0,120
1,51,39,120
1,51,0,120
1,49,37,120
1,49,0,120
1,68,47,360
1,68,0,120
1,65,40,0
1,65,0,120
1,61,43,0
1,61,0,120
1,68,39,0
1,68,0,120
1,61,44,0
1,61,0,120
1,70,40,0
1,70,0,120
1,66,40,0
1,66,0,120
1,61,38,0
1,61,0,120
1,68,47,0
1,68,0,120
1,65,43,0
1,65,0,120
1,61,43,0
1,61,0,120
1,68,44,0
1,68,0,120
1,61,42,0
1,61,0,120
1,68,39,0
1,68,0,120
1,61,44,0
1,63,44,0
1,63,0,120
1,61,0,0
1,70,40,0
1,70,0,120
1,68,47,0
1,68,0,120
1,63,43,0
1,63,0,120
1,61,40,0
1,61,0,120
1,68,40,0
1,68,0,120
1,60,46,0
1,60,0,120
1,68,40,0
1,68,0,120
1,63,43,0
1,63,0,120
1,60,43,0
1,60,0,120
1,68,47,0
1,68,0,120
1,65,44,0
1,65,0,120
1,61,43,0
1,61,0,120
1,68,43,0
1,68,0,120
1,65,47,0
1,65,0,120
1,73,44,0
1,73,0,120
1,68,41,0
1,68,0,120
1,65,38,0
1,65,0,120
1,73,47,0
1,73,0,120
1,68,43,0
1,68,0,120
1,65,43,0
1,65,0,120
1,73,39,0
1,73,0,120
1,66,64,0
1,66,0,120
1,73,43,0
1,73,0,120
1,70,47,0
1,70,0,120
1,66,38,0
1,66,0,120
1,73,47,0
1,73,0,120
1,68,43,0
1,68,0,120
1,65,43,0
1,65,0,120
1,73,44,0
1,73,0,120
1,65,42,0
1,65,0,120
1,73,39,0
1,73,0,120
1,64,44,0
1,67,44,0
1,67,0,120
1,64,0,0
1,73,40,0
1,73,0,120
1,63,47,0
1,63,0,120
1,73,43,0
1,73,0,120
1,66,43,0
1,66,0,120
1,63,39,0
1,63,0,120
1,72,46,0
1,72,0,120
1,66,43,0
1,66,0,120
1,63,43,0
1,63,0,120
1,72,39,0
1,72,0,120
1,73,47,0
1,73,0,120
1,68,44,0
1,68,0,120
1,65,43,0
1,65,0,120
1,73,43,0
1,73,0,120
1,68,47,0
1,68,0,120
1,65,40,0
1,65,0,120
1,61,41,0
1,61,0,120
1,68,38,0
1,68,0,120
1,68,47,0
1,68,0,120
1,65,40,0
1,65,0,120
1,61,43,0
1,61,0,120
1,68,39,0
1,68,0,120
1,61,44,0
1,61,0,120
1,70,40,0
1,70,0,120
1,66,40,0
1,66,0,120
1,61,38,0
1,61,0,120
1,68,47,0
1,68,0,120
1,65,43,0
1,65,0,120
1,61,43,0
1,61,0,120
1,68,44,0
1,68,0,120
1,61,42,0
1,61,0,120
1,68,39,0
1,68,0,120
1,61,44,0
1,63,44,0
