track,note,velocity,time
1,63,100,1860
1,63,0,60
1,63,100,0
1,63,0,90
1,63,100,0
1,63,0,30
1,65,100,0
1,65,0,60
1,67,100,0
1,67,0,60
1,68,100,0
1,68,0,30
1,67,100,0
1,67,0,30
1,68,100,0
1,68,0,120
1,72,100,0
1,72,0,60
1,63,100,0
1,63,0,180
1,61,100,0
1,61,0,60
1,60,100,0
1,60,0,120
1,58,100,60
1,58,0,30
1,60,100,0
1,60,0,30
1,61,100,0
1,61,0,120
1,60,100,0
1,60,0,120
1,58,100,0
1,58,0,180
1,56,100,0
1,56,0,30
1,58,100,0
1,58,0,30
1,60,100,0
1,60,0,120
1,61,100,0
1,61,0,60
1,60,100,0
1,60,0,60
1,58,100,0
1,58,0,180
1,63,100,60
1,63,0,60
1,63,100,0
1,63,0,60
1,65,100,0
1,65,0,60
1,67,100,0
1,67,0,60
1,68,100,0
1,68,0,30
1,67,100,0
1,67,0,90
1,68,100,0
1,68,0,60
1,72,100,0
1,72,0,60
1,63,100,0
1,63,0,180
1,63,100,0
1,63,0,60
1,65,100,0
1,65,0,60
1,60,100,0
1,60,0,120
1,60,100,30
1,60,0,30
1,63,100,0
1,63,0,90
1,61,100,0
1,61,0,30
1,60,100,0
1,60,0,60
1,58,100,0
1,58,0,60
1,56,100,0
1,56,0,60
1,53,100,0
1,53,0,180
1,58,100,0
1,58,0,90
1,60,100,0
1,60,0,30
1,60,100,0
1,60,0,120
1,68,100,60
1,68,0,30
1,68,100,0
1,68,0,30
1,68,100,0
1,68,0,30
1,72,100,0
1,72,0,90
1,63,100,0
1,63,0,240
1,68,100,60
1,68,0,30
1,68,100,0
1,68,0,30
1,68,100,0
1,68,0,30
1,72,100,0
1,72,0,90
1,63,100,0
1,63,0,240
1,60,100,120
1,60,0,30
1,60,100,0
1,60,0,60
1,63,100,0
1,63,0,30
1,60,100,0
1,60,0,30
1,58,100,0
1,58,0,60
1,56,100,0
1,56,0,240
1,60,100,0
1,60,0,30
1,60,100,0
1,60,0,90
1,63,100,0
1,63,0,30
1,60,100,0
1,60,0,30
1,58,100,0
1,58,0,60
1,56,100,0
1,56,0,120
1,63,100,1950
1,63,0,90
1,63,100,0
1,63,0,30
1,65,100,0
1,65,0,60
1,67,100,0
1,67,0,60
1,68,100,0
1,68,0,30
1,67,100,0
1,67,0,30
1,68,100,0
1,68,0,120
1,72,100,0
1,72,0,60
1,63,100,0
1,63,0,180
1,61,100,0
1,61,0,60
1,60,100,0
1,60,0,120
1,58,100,30
1,58,0,30
1,58,100,0
1,58,0,30
1,60,100,0
1,60,0,30
1,61,100,0
1,61,0,120
1,60,100,0
1,60,0,120
1,58,100,0
1,58,0,180
1,56,100,0
1,56,0,30
1,58,100,0
1,58,0,30
1,60,100,0
1,60,0,120
1,61,100,0
1,61,0,60
1,60,100,0
1,60,0,60
1,58,100,0
1,58,0,180
1,63,100,0
1,63,0,60
1,63,100,0
1,63,0,60
1,63,100,0
1,63,0,60
1,65,100,0
1,65,0,60
1,67,100,0
1,67,0,60
1,68,100,0
1,68,0,30
1,67,100,0
1,67,0,90
1,68,100,0
1,68,0,60
1,72,100,0
1,72,0,60
1,63,100,0
1,63,0,180
1,63,100,0
1,63,0,60
1,65,100,0
1,65,0,60
1,60,100,0
1,60,0,120
1,60,100,30
1,60,0,30
1,63,100,0
1,63,0,90
1,61,100,0
1,61,0,30
1,60,100,0
1,60,0,60
1,58,100,0
1,58,0,60
1,56,100,0
1,56,0,60
1,53,100,0
1,53,0,180
1,58,100,0
1,58,0,90
1,60,100,0
1,60,0,30
1,60,100,0
1,60,0,120
1,68,100,60
1,68,0,30
1,68,100,0
1,68,0,30
1,68,100,0
1,68,0,30
1,72,100,0
1,72,0,90
1,63,100,0
1,63,0,240
1,68,100,60
1,68,0,30
1,68,100,0
1,68,0,30
1,68,100,0
1,68,0,30
1,72,100,0
1,72,0,90
1,63,100,0
1,63,0,240
1,60,100,120
1,60,0,30
1,60,100,0
1,60,0,60
1,63,100,0
1,63,0,30
1,60,100,0
1,60,0,30
1,58,100,0
1,58,0,60
1,56,100,0
1,56,0,240
1,60,100,30
1,60,0,30
1,60,100,0
1,60,0,60
1,63,100,0
1,63,0,30
1,60,100,0
1,60,0,30
1,58,100,0
1,58,0,60
1,56,100,0
1,56,0,120
1,63,100,4110
1,63,0,90
1,63,100,0
1,63,0,30
1,65,100,0
1,65,0,60
1,67,100,0
1,67,0,60
1,68,100,0
1,68,0,30
1,67,100,0
1,67,0,30
1,68,100,0
1,68,0,120
1,72,100,0
1,72,0,60
1,63,100,0
1,63,0,180
1,61,100,0
1,61,0,60
1,60,100,0
1,60,0,120
1,60,100,90
1,60,0,30
1,61,100,0
1,61,0,60
1,61,100,0
1,61,0,60
1,60,100,0
1,60,0,60
1,60,100,0
1,60,0,60
1,58,100,0
1,58,0,120
1,56,100,30
1,56,0,30
1,56,100,0
1,56,0,30
1,58,100,0
1,58,0,30
1,60,100,0
1,60,0,120
1,61,100,0
1,61,0,60
1,60,100,0
1,60,0,60
1,58,100,0
1,58,0,180
1,63,100,0
1,63,0,60
1,63,100,0
1,63,0,60
1,63,100,0
1,63,0,60
1,65,100,0
1,65,0,60
1,67,100,0
1,67,0,60
1,68,100,0
1,68,0,30
1,67,100,0
1,67,0,90
1,68,100,0
1,68,0,60
1,72,100,0
1,72,0,60
1,63,100,0
1,63,0,60
1,63,100,0
1,63,0,60
1,63,100,0
1,63,0,60
1,63,100,0
1,63,0,60
1,65,100,0
1,65,0,60
1,60,100,0
1,60,0,120
1,60,100,30
1,60,0,30
1,63,100,0
1,63,0,90
1,61,100,0
1,61,0,30
1,60,100,0
1,60,0,60
1,58,100,0
1,58,0,60
1,56,100,0
1,56,0,60
1,53,100,0
1,53,0,180
1,58,100,0
1,58,0,90
1,60,100,0
1,60,0,30
1,60,100,0
1,60,0,120
1,68,100,60
1,68,0,30
1,68,100,0
1,68,0,30
1,68,100,0
1,68,0,30
1,72,100,0
1,72,0,90
1,63,100,0
1,63,0,240
1,68,100,60
1,68,0,30
1,68,100,0
1,68,0,30
1,68,100,0
1,68,0,30
1,72,100,0
1,72,0,90
1,63,100,0
1,63,0,240
1,60,100,120
1,60,0,30
1,60,100,0
1,60,0,60
1,63,100,0
1,63,0,30
1,60,100,0
1,60,0,30
1,58,100,0
1,58,0,60
1,56,100,0
1,56,0,240
1,60,100,30
1,60,0,30
1,60,100,0
1,60,0,60
1,63,100,0
1,63,0,30
1,60,100,0
1,60,0,30
1,58,100,0
1,58,0,60
1,56,100,0
1,56,0,180
2,51,100,0
2,60,100,0
2,60,0,60
2,51,0,0
2,51,100,0
2,60,100,0
2,60,0,60
2,51,0,0
2,51,100,0
2,60,100,0
2,60,0,30
2,51,0,0
2,53,100,0
2,61,100,0
2,61,0,60
2,53,0,0
2,54,100,0
2,63,100,0
2,63,0,90
2,54,0,0
2,54,100,0
2,63,100,0
2,63,0,60
2,54,0,0
2,54,100,0
2,63,100,0
2,63,0,30
2,54,0,0
2,53,100,0
2,61,100,0
2,61,0,60
2,53,0,0
2,51,100,0
2,60,100,0
2,60,0,90
2,51,0,0
2,51,100,0
2,60,100,0
2,60,0,60
2,51,0,0
2,51,100,0
2,60,100,0
2,60,0,30
2,51,0,0
2,49,100,0
2,58,100,0
2,58,0,60
2,49,0,0
2,48,100,0
2,56,100,0
2,56,0,90
2,48,0,0
2,48,100,0
2,56,100,0
2,56,0,180
2,48,0,0
2,63,100,900
2,63,0,60
2,63,100,0
2,60,100,0
2,63,0,90
2,60,0,150
2,68,100,0
2,65,100,0
2,65,0,180
2,65,100,0
2,65,0,60
2,68,0,0
2,55,100,0
2,63,100,0
2,63,0,180
2,55,0,0
2,58,100,0
2,61,100,0
2,61,0,60
2,58,0,0
2,56,100,0
2,60,100,0
2,60,0,180
2,56,0,0
2,56,100,30
2,60,100,0
2,60,0,30
2,56,0,0
2,61,100,0
2,53,100,0
2,53,0,120
2,61,0,0
2,60,100,0
2,51,100,0
2,51,0,120
2,60,0,0
2,58,100,0
2,49,100,0
2,58,0,120
2,49,0,120
2,60,100,0
2,56,100,0
2,56,0,120
2,60,0,0
2,61,100,0
2,61,0,60
2,60,100,0
2,60,0,60
2,55,100,0
2,58,100,0
2,58,0,90
2,55,0,0
2,58,100,0
2,63,100,0
2,63,0,60
2,58,0,0
2,58,100,0
2,58,0,30
2,51,100,0
2,51,0,60
2,60,100,0
2,63,100,0
2,63,0,60
2,63,100,0
2,63,0,60
2,65,100,0
2,65,0,60
2,67,100,0
2,67,0,60
2,60,0,0
2,65,100,0
2,68,100,0
2,68,0,30
2,67,100,0
2,67,0,90
2,68,100,0
2,68,0,60
2,72,100,0
2,72,0,60
2,65,0,0
2,55,100,0
2,63,100,0
2,63,0,180
2,55,0,0
2,55,100,0
2,63,100,0
2,63,0,60
2,55,0,0
2,56,100,0
2,56,100,0
2,65,100,0
2,65,0,60
2,56,0,0
2,56,0,0
2,60,100,0
2,60,0,120
2,60,100,30
2,60,0,30
2,63,100,0
2,55,100,0
2,63,0,90
2,61,100,0
2,61,0,30
2,55,0,0
2,60,100,0
2,55,100,0
2,60,0,60
2,58,100,0
2,58,0,60
2,55,0,0
2,56,100,0
2,56,0,60
2,53,100,0
2,53,0,180
2,58,100,0
2,51,100,0
2,58,0,90
2,60,100,0
2,60,0,30
2,51,0,0
2,51,100,0
2,60,100,0
2,60,0,120
2,51,0,0
2,60,100,60
2,63,100,0
2,68,100,0
2,68,0,30
2,68,100,0
2,68,0,30
2,68,100,0
2,68,0,30
2,63,0,0
2,60,0,0
2,60,100,0
2,63,100,0
2,72,100,0
2,72,0,90
2,63,0,0
2,60,0,0
2,63,100,0
2,60,100,30
2,63,100,0
2,63,0,30
2,60,0,0
2,61,100,0
2,65,100,0
2,65,0,30
2,61,0,0
2,61,100,0
2,65,100,0
2,65,0,30
2,61,0,0
2,61,100,0
2,65,100,0
2,65,0,30
2,61,0,0
2,61,100,0
2,65,100,0
2,65,0,60
2,61,0,0
2,61,100,0
2,65,100,0
2,65,0,15
2,61,0,0
2,61,100,0
2,65,100,0
2,65,0,15
2,61,0,0
2,63,0,0
2,61,100,0
2,65,100,0
2,65,0,30
2,61,0,0
2,60,100,0
2,63,100,0
2,63,0,30
2,60,0,0
2,60,100,0
2,68,100,0
2,68,0,30
2,60,0,0
2,68,100,0
2,68,0,30
2,68,100,0
2,68,0,30
2,72,100,0
2,72,0,90
2,63,100,0
2,61,100,60
2,65,100,0
2,65,0,30
2,61,0,0
2,61,100,0
2,65,100,0
2,65,0,30
2,61,0,0
2,61,100,0
2,65,100,0
2,65,0,30
2,61,0,0
2,61,100,0
2,65,100,0
2,65,0,60
2,61,0,0
2,61,100,0
2,65,100,0
2,65,0,15
2,61,0,0
2,61,100,0
2,65,100,0
2,65,0,15
2,61,0,0
2,61,100,0
2,65,100,0
2,65,0,30
2,61,0,0
2,60,100,0
2,63,100,0
2,63,0,30
2,60,0,0
2,60,100,0
2,68,100,0
2,68,0,60
2,60,0,0
2,63,0,0
2,60,100,0
2,60,0,30
2,60,100,0
2,60,0,60
2,63,100,0
2,63,0,30
2,53,100,0
2,60,100,0
2,60,0,30
2,58,100,0
2,53,0,30
2,53,100,0
2,56,100,0
2,56,0,30
2,53,0,0
2,58,0,0
2,53,100,0
2,56,100,0
2,53,0,30
2,53,100,0
2,53,0,30
2,56,100,0
2,53,100,0
2,53,0,30
2,56,0,0
2,53,100,0
2,56,100,0
2,56,0,30
2,53,0,0
2,53,100,0
2,56,100,0
2,56,0,30
2,53,0,0
2,55,100,0
2,58,100,0
2,58,0,60
2,55,0,0
2,56,100,0
2,60,100,0
2,60,0,30
2,56,0,0
2,56,0,0
2,53,100,0
2,56,100,0
2,60,100,60
2,60,0,30
2,56,0,0
2,53,0,0
2,60,100,0
2,63,100,30
2,63,0,30
2,60,0,0
2,53,100,0
2,60,100,0
2,60,0,30
2,53,0,0
2,58,100,0
2,58,0,60
2,56,100,0
2,56,0,30
2,61,100,0
2,65,100,0
2,65,0,45
2,61,0,0
2,60,100,0
2,63,100,0
2,63,0,45
2,60,0,0
2,58,100,0
2,61,100,0
2,61,0,30
2,58,0,0
2,51,100,0
2,60,100,0
2,60,0,60
2,51,0,0
2,51,100,0
2,60,100,0
2,60,0,60
2,51,0,0
2,51,100,0
2,60,100,0
2,60,0,30
2,51,0,0
2,53,100,0
2,61,100,0
2,61,0,60
2,53,0,0
2,54,100,0
2,63,100,0
2,63,0,90
2,54,0,0
2,54,100,0
2,63,100,0
2,63,0,60
2,54,0,0
2,54,100,0
2,63,100,0
2,63,0,30
2,54,0,0
2,53,100,0
2,61,100,0
2,61,0,60
2,53,0,0
2,51,100,0
2,60,100,0
2,60,0,90
2,51,0,0
2,51,100,0
2,60,100,0
2,60,0,60
2,51,0,0
2,51,100,0
2,60,100,0
2,60,0,30
2,51,0,0
2,49,100,0
2,58,100,0
2,58,0,60
2,49,0,0
2,48,100,0
2,56,100,0
2,56,0,90
2,48,0,0
2,48,100,0
2,56,100,0
2,56,0,180
2,48,0,0
2,63,100,4800
2,60,100,30
2,63,100,0
2,63,0,30
2,60,0,0
2,61,100,0
2,65,100,0
2,65,0,30
2,61,0,0
2,61,100,0
2,65,100,0
2,65,0,30
2,61,0,0
2,61,100,0
2,65,100,0
2,65,0,30
2,61,0,0
2,61,100,0
2,65,100,0
2,65,0,60
2,61,0,0
2,61,100,0
2,65,100,0
2,65,0,15
2,61,0,0
2,61,100,0
2,65,100,0
2,65,0,15
2,61,0,0
2,63,0,0
2,61,100,0
2,65,100,0
2,65,0,30
2,61,0,0
2,60,100,0
2,63,100,0
2,63,0,30
2,60,0,0
2,60,100,0
2,68,100,0
2,68,0,30
2,60,0,0
2,68,100,0
2,68,0,30
2,68,100,0
2,68,0,30
2,72,100,0
2,72,0,90
2,63,100,0
2,61,100,60
2,65,100,0
2,65,0,30
2,61,0,0
2,61,100,0
2,65,100,0
2,65,0,30
2,61,0,0
2,61,100,0
2,65,100,0
2,65,0,30
2,61,0,0
2,61,100,0
2,65,100,0
2,65,0,60
2,61,0,0
2,61,100,0
2,65,100,0
2,65,0,15
2,61,0,0
2,61,100,0
2,65,100,0
2,65,0,15
2,61,0,0
2,61,100,0
2,65,100,0
2,65,0,30
2,61,0,0
2,60,100,0
2,63,100,0
2,63,0,30
2,60,0,0
2,60,100,0
2,68,100,0
2,68,0,60
2,60,0,0
2,63,0,0
2,60,100,0
2,60,0,30
2,60,100,0
2,60,0,60
2,63,100,0
2,63,0,30
2,53,100,0
2,60,100,0
2,60,0,30
2,58,100,0
2,53,0,30
2,53,100,0
2,56,100,0
2,56,0,30
2,53,0,0
2,58,0,0
2,53,100,0
2,56,100,0
2,53,0,30
2,53,100,0
2,53,0,30
2,56,100,0
2,53,100,0
2,53,0,30
2,56,0,0
2,53,100,0
2,56,100,0
2,56,0,30
2,53,0,0
2,53,100,0
2,56,100,0
2,56,0,30
2,53,0,0
2,55,100,0
2,58,100,0
2,58,0,60
2,55,0,0
2,56,100,0
2,60,100,0
2,60,0,30
2,56,0,0
2,56,0,0
2,53,100,0
2,56,100,0
2,60,100,60
2,60,0,30
2,56,0,0
2,53,0,0
2,60,100,0
2,63,100,30
2,63,0,30
2,60,0,0
2,53,100,0
2,60,100,0
2,60,0,30
2,53,0,0
2,58,100,0
2,58,0,60
2,56,100,0
2,56,0,30
2,61,100,0
2,65,100,0
2,65,0,45
2,61,0,0
2,60,100,0
2,63,100,0
2,63,0,45
2,60,0,0
2,58,100,0
2,61,100,0
2,61,0,30
2,58,0,0
2,56,100,0
2,60,100,0
2,60,0,180
2,56,0,0
2,60,100,60
2,68,100,0
2,68,0,90
2,60,0,0
2,56,100,0
2,60,100,0
2,60,0,30
2,56,0,0
2,56,100,0
2,60,100,0
2,60,0,240
2,56,0,0
2,60,100,0
2,60,0,30
2,58,100,0
2,58,0,30
