track,note,velocity,time
1,65,80,4380
1,65,0,24
1,65,80,6
1,65,0,24
1,67,80,6
1,67,0,48
1,65,80,12
1,65,0,48
1,65,80,72
1,65,0,24
1,64,80,6
1,64,0,24
1,65,80,6
1,65,0,48
1,65,80,12
1,65,0,48
1,64,80,12
1,64,0,48
1,60,80,12
1,60,0,24
1,60,80,6
1,60,0,54
1,64,80,6
1,64,0,48
1,62,80,12
1,62,0,126
1,65,80,204
1,65,0,56
1,67,80,4
1,67,0,48
1,65,80,12
1,65,0,48
1,65,80,72
1,65,0,24
1,64,80,6
1,64,0,24
1,65,80,6
1,65,0,48
1,65,80,12
1,65,0,48
1,64,80,12
1,64,0,48
1,60,80,12
1,60,0,24
1,60,80,6
1,60,0,54
1,64,80,6
1,64,0,48
1,62,80,12
1,62,0,126
1,65,80,204
1,65,0,48
1,67,80,12
1,67,0,48
1,65,80,12
1,65,0,48
1,65,80,72
1,65,0,48
1,67,80,12
1,67,0,48
1,65,80,12
1,65,0,48
1,64,80,12
1,64,0,48
1,60,80,12
1,60,0,24
1,60,80,6
1,60,0,54
1,64,80,6
1,64,0,48
1,62,80,12
1,62,0,126
1,65,80,204
1,65,0,48
1,67,80,12
1,67,0,48
1,65,80,12
1,65,0,48
1,65,80,12
1,65,0,48
1,64,80,12
1,64,0,24
1,65,80,6
1,65,0,78
1,65,80,12
1,65,0,48
1,64,80,12
1,64,0,48
1,60,80,12
1,60,0,24
1,60,80,6
1,60,0,54
1,64,80,6
1,64,0,48
1,62,80,12
1,62,0,54
1,60,80,6
1,60,0,48
1,59,80,12
1,59,0,54
1,57,80,6
1,57,0,48
1,62,80,102
1,62,0,24
1,60,80,6
1,60,0,24
1,62,80,6
1,62,0,48
1,62,80,72
1,62,0,48
1,60,80,12
1,60,0,24
1,62,80,6
1,62,0,54
1,60,80,6
1,60,0,48
1,62,80,582
1,62,0,24
1,60,80,6
1,60,0,24
1,62,80,6
1,62,0,48
1,60,80,12
1,60,0,48
1,62,80,72
1,62,0,48
1,62,80,12
1,62,0,48
1,60,80,12
1,60,0,48
1,62,80,552
1,62,0,24
1,60,80,6
1,60,0,24
1,62,80,6
1,62,0,48
1,62,80,72
1,62,0,48
1,60,80,12
1,60,0,24
1,62,80,6
1,62,0,54
1,60,80,6
1,60,0,48
1,62,80,582
1,62,0,24
1,60,80,6
1,60,0,24
1,62,80,6
1,62,0,48
1,60,80,12
1,60,0,48
1,62,80,72
1,62,0,48
1,62,80,12
1,62,0,48
1,60,80,12
1,60,0,48
1,65,80,582
1,65,0,24
1,67,80,6
1,67,0,48
1,65,80,12
1,65,0,48
1,65,80,102
1,65,0,24
1,67,80,6
1,67,0,48
1,65,80,12
1,65,0,48
1,64,80,12
1,64,0,48
1,60,80,12
1,60,0,24
1,60,80,6
1,60,0,54
1,64,80,6
1,64,0,48
1,62,80,12
1,62,0,126
1,65,80,234
1,65,0,24
1,67,80,6
1,67,0,48
1,65,80,12
1,65,0,48
1,65,80,102
1,65,0,24
1,65,80,6
1,65,0,48
1,65,80,12
1,65,0,48
1,64,80,12
1,64,0,48
1,60,80,12
1,60,0,24
1,60,80,6
1,60,0,54
1,64,80,6
1,64,0,48
1,62,80,12
1,62,0,126
1,65,80,204
1,65,0,48
1,67,80,12
1,67,0,48
1,65,80,12
1,65,0,48
1,65,80,12
1,65,0,48
1,65,80,12
1,65,0,24
1,65,80,6
1,65,0,78
1,65,80,12
1,65,0,48
1,64,80,12
1,64,0,28
1,60,80,2
1,60,0,56
1,60,80,4
1,60,0,54
1,64,80,6
1,64,0,48
1,62,80,12
1,62,0,58
1,59,80,2
1,59,0,72
1,65,80,198
1,65,0,24
1,65,80,6
1,65,0,28
1,67,80,2
1,67,0,48
1,65,80,12
1,65,0,48
1,65,80,12
1,65,0,48
1,64,80,12
1,64,0,24
1,65,80,6
1,65,0,78
1,65,80,12
1,65,0,48
1,64,80,12
1,64,0,48
1,60,80,12
1,60,0,24
1,60,80,6
1,60,0,54
1,64,80,6
1,64,0,48
1,62,80,12
1,62,0,54
1,60,80,6
1,60,0,48
1,59,80,12
1,59,0,54
1,57,80,6
1,57,0,48
1,62,80,102
1,62,0,24
1,60,80,6
1,60,0,24
1,62,80,6
1,62,0,48
1,62,80,72
1,62,0,48
1,60,80,12
1,60,0,24
1,62,80,6
1,62,0,54
1,60,80,6
1,60,0,48
1,62,80,582
1,62,0,24
1,60,80,6
1,60,0,24
1,62,80,6
1,62,0,48
1,60,80,12
1,60,0,48
1,62,80,72
1,62,0,48
1,62,80,12
1,62,0,48
1,60,80,12
1,60,0,48
1,62,80,552
1,62,0,24
1,60,80,6
1,60,0,24
1,62,80,6
1,62,0,48
1,62,80,72
1,62,0,48
1,60,80,12
1,60,0,24
1,62,80,6
1,62,0,54
1,60,80,6
1,60,0,48
1,67,64,105
1,67,0,27
1,67,64,4
1,67,0,57
1,67,64,8
1,67,0,54
1,67,64,6
1,67,0,48
1,62,64,8
1,62,0,54
1,62,64,9
1,62,0,49
1,64,64,4
1,64,0,54
1,64,64,6
1,64,0,77
1,62,80,12
1,62,0,24
1,60,80,6
1,60,0,24
1,62,80,6
1,62,0,48
1,60,80,12
1,60,0,48
1,62,80,72
1,62,0,48
1,62,80,12
1,62,0,48
1,60,80,12
1,60,0,48
1,69,80,1272
1,69,0,48
1,67,80,12
1,67,0,48
1,65,80,12
1,65,0,48
1,65,80,12
1,65,0,288
1,65,80,132
1,65,0,48
1,67,80,12
1,67,0,96
1,64,80,24
1,64,0,96
1,62,80,24
1,62,0,60
1,60,80,0
1,60,0,48
1,60,80,12
1,60,0,96
1,69,80,804
1,69,0,48
1,67,80,12
1,67,0,48
1,65,80,12
1,65,0,48
1,65,80,12
1,65,0,288
1,65,80,132
1,65,0,48
1,67,80,12
1,67,0,96
1,64,80,24
1,64,0,96
1,62,80,24
1,62,0,96
1,60,80,24
1,60,0,96
1,62,80,24
1,62,0,90
1,60,80,0
1,60,0,30
1,57,80,0
1,57,0,96
1,65,80,1764
1,65,0,48
1,67,80,12
1,67,0,48
1,65,80,12
1,65,0,48
1,65,80,72
1,65,0,48
1,67,80,12
1,67,0,48
1,65,80,12
1,65,0,48
1,64,80,12
1,64,0,48
1,60,80,12
1,60,0,24
1,60,80,6
1,60,0,54
1,64,80,6
1,64,0,48
1,62,80,12
1,62,0,126
1,65,80,204
1,65,0,48
1,67,80,12
1,67,0,48
1,65,80,12
1,65,0,48
1,65,80,12
1,65,0,48
1,64,80,12
1,64,0,24
1,65,80,6
1,65,0,78
1,65,80,12
1,65,0,48
1,64,80,12
1,64,0,48
1,60,80,12
1,60,0,24
1,60,80,6
1,60,0,54
1,64,80,6
1,64,0,48
1,62,80,12
1,62,0,54
1,60,80,6
1,60,0,48
1,59,80,12
1,59,0,54
1,57,80,6
1,57,0,48
1,62,80,102
1,62,0,24
1,60,80,6
1,60,0,24
1,62,80,6
1,62,0,48
1,62,80,72
1,62,0,48
1,60,80,12
1,60,0,24
1,62,80,6
1,62,0,54
1,60,80,6
1,60,0,48
1,62,80,582
1,62,0,24
1,60,80,6
1,60,0,24
1,62,80,6
1,62,0,48
1,60,80,12
1,60,0,48
1,62,80,72
1,62,0,48
1,62,80,12
1,62,0,48
1,60,80,12
1,60,0,48
1,62,80,552
1,62,0,24
1,60,80,6
1,60,0,24
1,62,80,6
1,62,0,48
1,62,80,72
1,62,0,48
1,60,80,12
1,60,0,24
1,62,80,6
1,62,0,54
1,60,80,6
1,60,0,48
1,67,64,105
1,67,0,27
1,67,64,4
1,67,0,57
1,67,64,8
1,67,0,54
1,67,64,6
1,67,0,48
1,62,64,8
1,62,0,54
1,62,64,9
1,62,0,49
1,64,64,4
1,64,0,54
1,64,64,6
1,64,0,77
1,62,80,12
1,62,0,24
1,60,80,6
1,60,0,24
1,62,80,6
1,62,0,48
1,60,80,12
1,60,0,48
1,62,80,72
1,62,0,48
1,62,80,12
1,62,0,48
1,60,80,12
1,60,0,48
1,69,80,1272
1,69,0,48
1,67,80,12
1,67,0,48
1,65,80,12
1,65,0,48
1,65,80,12
1,65,0,288
1,65,80,132
1,65,0,48
1,67,80,12
1,67,0,96
1,64,80,24
1,64,0,96
1,62,80,24
1,62,0,60
1,60,80,0
1,60,0,48
1,60,80,12
1,60,0,96
1,69,80,804
1,69,0,48
1,67,80,12
1,67,0,48
1,65,80,12
1,65,0,48
1,65,80,12
1,65,0,288
1,65,80,132
1,65,0,48
1,67,80,12
1,67,0,96
1,64,80,24
1,64,0,96
1,62,80,24
1,62,0,60
1,60,80,0
1,60,0,48
1,60,80,12
1,60,0,96
1,62,80,24
1,62,0,90
1,60,80,0
1,60,0,30
1,57,80,0
1,57,0,96
1,62,80,144
1,62,0,48
1,62,80,12
1,62,0,48
1,60,80,12
1,60,0,90
1,57,80,0
1,57,0,30
1,55,80,0
1,55,0,96
1,62,80,264
1,62,0,96
1,65,80,264
1,65,0,48
1,64,80,12
1,64,0,48
1,60,80,12
1,60,0,90
1,62,80,0
1,62,0,30
1,64,80,0
1,64,0,96
1,62,80,264
1,62,0,96
1,62,80,264
1,62,0,48
1,62,80,12
1,62,0,48
1,60,80,12
1,60,0,90
1,57,80,0
1,57,0,30
1,55,80,0
1,55,0,96
1,62,80,264
1,62,0,96
1,65,80,264
1,65,0,48
1,64,80,12
1,64,0,48
1,67,80,12
1,67,0,480
1,62,80,60
1,62,0,24
1,60,80,6
1,60,0,24
1,62,80,6
1,62,0,48
1,62,80,72
1,62,0,48
1,60,80,12
1,60,0,24
1,62,80,6
1,62,0,54
1,60,80,6
1,60,0,48
1,67,64,105
1,67,0,27
1,67,64,4
1,67,0,57
1,67,64,8
1,67,0,54
1,67,64,6
1,67,0,48
1,62,64,8
1,62,0,54
1,62,64,9
1,62,0,49
1,64,64,4
1,64,0,54
1,64,64,6
1,64,0,77
1,62,80,12
1,62,0,24
1,60,80,6
1,60,0,24
1,62,80,6
1,62,0,48
1,60,80,12
1,60,0,48
1,62,80,72
1,62,0,48
1,62,80,12
1,62,0,48
1,60,80,12
1,60,0,48
1,62,64,12
1,62,0,48
1,62,64,12
1,62,0,48
1,62,64,12
1,62,0,48
1,62,64,12
1,62,0,30
1,60,64,0
1,60,0,24
1,62,64,6
1,62,0,48
1,60,64,12
1,60,0,24
1,62,64,6
1,62,0,54
1,64,64,6
1,64,0,138
1,62,80,12
1,62,0,24
1,60,80,6
1,60,0,24
1,62,80,6
1,62,0,48
1,62,80,72
1,62,0,48
1,60,80,12
1,60,0,24
1,62,80,6
1,62,0,54
1,60,80,6
1,60,0,48
1,67,64,105
1,67,0,27
1,67,64,4
1,67,0,57
1,67,64,8
1,67,0,54
1,67,64,6
1,67,0,48
1,62,64,8
1,62,0,54
1,62,64,9
1,62,0,49
1,64,64,4
1,64,0,54
1,64,64,6
1,64,0,77
1,62,80,12
1,62,0,24
1,60,80,6
1,60,0,24
1,62,80,6
1,62,0,48
1,60,80,12
1,60,0,48
1,62,80,72
1,62,0,48
1,62,80,12
1,62,0,48
1,60,80,12
1,60,0,48
1,62,64,12
1,62,0,48
1,62,64,12
1,62,0,48
1,62,64,12
1,62,0,96
1,62,64,144
1,62,0,30
1,64,64,0
1,64,0,48
1,64,64,12
1,64,0,78
1,62,80,12
1,62,0,24
1,60,80,6
1,60,0,24
1,62,80,6
1,62,0,48
1,62,80,72
1,62,0,48
1,60,80,12
1,60,0,24
1,62,80,6
1,62,0,54
1,60,80,6
1,60,0,48
1,67,64,105
1,67,0,27
1,67,64,4
1,67,0,57
1,67,64,8
1,67,0,54
1,67,64,6
1,67,0,48
1,62,64,8
1,62,0,54
1,62,64,9
1,62,0,49
1,64,64,4
1,64,0,54
1,64,64,6
1,64,0,77
1,62,80,12
1,62,0,24
1,60,80,6
1,60,0,24
1,62,80,6
1,62,0,48
1,60,80,12
1,60,0,48
1,62,80,72
1,62,0,48
1,62,80,12
1,62,0,48
1,60,80,12
1,60,0,48
1,62,64,12
1,62,0,48
1,62,64,12
1,62,0,48
1,62,64,12
1,62,0,48
1,62,64,12
1,62,0,30
1,60,64,0
1,60,0,24
1,62,64,6
1,62,0,48
1,60,64,12
1,60,0,24
1,62,64,6
1,62,0,54
1,64,64,6
1,64,0,72
1,62,78,78
1,62,0,24
1,60,76,6
1,60,0,24
1,62,75,6
1,62,0,48
1,62,70,72
1,62,0,48
1,60,68,12
1,60,0,24
1,62,67,6
1,62,0,54
1,60,64,6
1,60,0,48
1,67,58,105
1,67,0,27
1,67,57,4
1,67,0,57
1,67,54,8
1,67,0,54
1,67,52,6
1,67,0,48
1,62,49,8
1,62,0,54
1,62,47,9
1,62,0,49
1,64,45,4
1,64,0,54
1,64,42,6
1,64,0,77
1,62,39,12
1,62,0,24
1,60,37,6
1,60,0,24
1,62,36,6
1,62,0,48
1,60,34,12
1,60,0,48
1,62,29,72
1,62,0,48
1,62,26,12
1,62,0,48
1,60,24,12
1,60,0,48
1,62,21,12
1,62,0,48
1,62,19,12
1,62,0,48
1,62,17,12
1,62,0,96
1,62,7,144
1,62,0,30
1,64,6,0
1,64,0,48
1,64,3,12
1,64,0,30
2,62,80,960
2,67,80,0
2,67,0,96
2,62,0,0
2,62,80,24
2,71,80,0
2,71,0,96
2,62,0,0
2,62,80,24
2,67,80,0
2,67,0,432
2,62,0,0
2,67,80,1248
2,62,80,0
2,62,0,96
2,67,0,0
2,71,80,24
2,62,80,0
2,62,0,96
2,71,0,0
2,67,80,24
2,62,80,0
2,62,0,432
2,67,0,0
2,62,80,5088
2,67,80,0
2,67,0,96
2,62,0,0
2,62,80,24
2,71,80,0
2,71,0,96
2,62,0,0
2,62,80,24
2,67,80,0
2,67,0,192
2,62,0,0
2,67,80,528
2,62,80,0
2,62,0,96
2,67,0,0
2,71,80,24
2,62,80,0
2,62,0,96
2,71,0,0
2,67,80,24
2,62,80,0
2,62,0,192
2,67,0,0
2,62,80,528
2,67,80,0
2,67,0,96
2,62,0,0
2,62,80,24
2,71,80,0
2,71,0,96
2,62,0,0
2,62,80,24
2,67,80,0
2,67,0,192
2,62,0,0
2,67,80,528
2,62,80,0
2,62,0,96
2,67,0,0
2,71,80,24
2,62,80,0
2,62,0,96
2,71,0,0
2,67,80,24
2,62,80,0
2,62,0,192
2,67,0,0
2,72,80,1338
2,72,0,24
2,72,80,6
2,72,0,48
2,72,80,12
2,72,0,48
2,72,80,12
2,72,0,48
2,67,80,12
2,67,0,24
2,67,80,6
2,67,0,54
2,72,80,6
2,72,0,48
2,71,80,12
2,71,0,126
2,67,80,2544
2,62,80,0
2,62,0,96
2,67,0,0
2,71,80,24
2,62,80,0
2,62,0,96
2,71,0,0
2,67,80,24
2,62,80,0
2,62,0,192
2,67,0,0
2,62,80,528
2,67,80,0
2,67,0,96
2,62,0,0
2,62,80,24
2,71,80,0
2,71,0,96
2,62,0,0
2,62,80,24
2,67,80,0
2,67,0,192
2,62,0,0
2,62,80,528
2,67,80,0
2,67,0,96
2,62,0,0
2,62,80,24
2,71,80,0
2,71,0,96
2,62,0,0
2,62,80,24
2,67,80,0
2,67,0,192
2,62,0,0
2,67,80,528
2,62,80,0
2,62,0,96
2,67,0,0
2,71,80,24
2,62,80,0
2,62,0,96
2,71,0,0
2,67,80,24
2,62,80,0
2,62,0,192
2,67,0,0
2,69,80,1128
2,69,0,96
2,67,80,24
2,67,0,192
2,69,80,1608
2,69,0,96
2,67,80,24
2,67,0,192
2,67,80,4848
2,62,80,0
2,62,0,96
2,67,0,0
2,71,80,24
2,62,80,0
2,62,0,96
2,71,0,0
2,67,80,24
2,62,80,0
2,62,0,192
2,67,0,0
2,62,80,528
2,67,80,0
2,67,0,96
2,62,0,0
2,62,80,24
2,71,80,0
2,71,0,96
2,62,0,0
2,62,80,24
2,67,80,0
2,67,0,192
2,62,0,0
2,67,80,528
2,62,80,0
2,62,0,96
2,67,0,0
2,71,80,24
2,62,80,0
2,62,0,96
2,71,0,0
