track,note,velocity,time
3,77,127,15420
3,65,127,0
3,65,0,30
3,77,0,0
3,77,127,90
3,65,127,0
3,65,0,20
3,77,0,0
3,77,127,100
3,65,127,0
3,65,0,20
3,77,0,0
3,77,127,100
3,65,127,0
3,65,0,20
3,77,0,10
3,79,127,30
3,67,127,0
3,67,0,20
3,79,0,0
3,79,127,3820
3,67,127,0
3,67,0,45
3,79,0,0
3,74,127,3615
3,62,127,0
3,62,0,30
3,74,0,0
3,74,127,90
3,62,127,0
3,62,0,20
3,74,0,0
3,79,127,40
3,79,0,30
3,79,127,3810
3,67,127,0
3,67,0,30
3,79,0,0
3,77,127,3630
3,65,127,0
3,65,0,30
3,77,0,0
3,77,127,90
3,65,127,0
3,65,0,30
3,77,0,0
3,79,127,30
3,67,127,0
3,67,0,45
3,79,0,0
3,79,127,3795
3,67,127,0
3,67,0,35
3,79,0,0
3,60,127,3625
3,72,127,0
3,72,0,20
3,74,127,10
3,62,127,0
3,60,0,5
3,77,127,25
3,62,127,0
3,74,127,0
3,74,0,5
3,62,0,0
3,74,0,15
3,65,127,10
3,77,127,0
3,77,0,5
3,62,0,0
3,65,0,15
3,77,0,10
3,79,127,30
3,79,0,30
3,67,127,0
3,67,0,1
3,65,127,8819
3,77,127,0
3,77,0,20
3,65,0,10
3,65,127,90
3,77,127,0
3,77,0,20
3,65,0,0
3,65,127,100
3,77,127,0
3,77,0,20
3,65,0,0
3,67,127,40
3,79,127,0
3,79,0,20
3,67,0,10
3,79,127,1890
3,67,127,0
3,67,0,20
3,79,0,10
3,74,127,1470
3,62,127,0
3,62,0,30
3,74,0,0
3,77,127,30
3,65,127,0
3,65,0,30
3,77,0,0
3,62,127,30
3,74,127,0
3,62,0,20
3,74,0,10
3,74,127,90
3,62,127,0
3,62,0,30
3,74,0,0
3,77,127,30
3,65,127,0
3,65,0,20
3,77,0,0
3,62,127,40
3,74,127,0
3,74,0,15
3,62,0,0
3,79,127,45
3,67,127,0
3,67,0,20
3,79,0,0
3,79,127,1900
3,67,127,0
3,67,0,30
3,79,0,0
3,65,127,1470
3,77,127,0
3,77,0,20
3,65,0,10
3,65,127,90
3,77,127,0
3,77,0,15
3,65,0,0
3,77,127,105
3,65,127,0
3,65,0,15
3,77,0,0
3,77,127,105
3,65,127,0
3,65,0,20
3,77,0,0
3,79,127,40
3,67,127,0
3,67,0,30
3,79,0,0
3,79,127,1890
3,67,127,0
3,67,0,30
3,79,0,0
3,65,127,1470
3,77,127,0
3,77,0,15
3,65,0,0
3,65,127,105
3,77,127,0
3,77,0,15
3,65,0,0
3,65,127,105
3,77,127,0
3,77,0,15
3,65,0,15
3,65,127,90
3,77,127,0
3,77,0,20
3,65,0,15
3,79,127,25
3,67,127,0
3,67,0,30
3,79,0,0
3,62,127,1470
3,74,127,0
3,74,0,30
3,62,0,0
3,77,127,30
3,65,127,0
3,65,0,20
3,77,0,10
3,62,127,30
3,74,127,0
3,62,0,20
3,74,0,10
3,74,127,90
3,62,127,0
3,62,0,20
3,74,0,10
3,65,127,30
3,77,127,0
3,77,0,30
3,65,0,0
3,74,127,30
3,62,127,0
3,62,0,20
3,74,0,0
3,79,127,40
3,67,127,0
3,67,0,35
3,79,0,0
3,79,127,1885
3,67,127,0
3,67,0,30
3,79,0,0
3,65,127,1710
3,77,127,0
3,77,0,30
3,65,0,0
3,77,127,90
3,65,127,0
3,65,0,30
3,77,0,0
3,79,127,30
3,67,127,0
3,67,0,35
3,79,0,0
3,79,127,925
3,67,127,0
3,67,0,35
3,79,0,0
3,79,127,85
3,67,127,0
3,67,0,35
3,79,0,0
3,79,127,85
3,67,127,0
3,67,0,45
3,79,0,0
3,79,127,75
3,67,127,0
3,67,0,30
3,79,0,0
4,77,127,15420
4,65,127,0
4,65,0,30
4,77,0,0
4,77,127,90
4,65,127,0
4,65,0,20
4,77,0,0
4,77,127,100
4,65,127,0
4,65,0,20
4,77,0,0
4,77,127,100
4,65,127,0
4,65,0,20
4,77,0,10
4,79,127,30
4,67,127,0
4,67,0,20
4,79,0,0
4,79,127,3820
4,67,127,0
4,67,0,45
4,79,0,0
4,74,127,3615
4,62,127,0
4,62,0,30
4,74,0,0
4,74,127,90
4,62,127,0
4,62,0,20
4,74,0,0
4,79,127,40
4,79,0,30
4,79,127,3810
4,67,127,0
4,67,0,30
4,79,0,0
4,77,127,3630
4,65,127,0
4,65,0,30
4,77,0,0
4,77,127,90
4,65,127,0
4,65,0,30
4,77,0,0
4,79,127,30
4,67,127,0
4,67,0,45
4,79,0,0
4,79,127,3795
4,67,127,0
4,67,0,35
4,79,0,0
4,60,127,3625
4,72,127,0
4,72,0,20
4,74,127,10
4,62,127,0
4,60,0,5
4,77,127,25
4,62,127,0
4,74,127,0
4,74,0,5
4,62,0,0
4,74,0,15
4,65,127,10
4,77,127,0
4,77,0,5
4,62,0,0
4,65,0,15
4,77,0,10
4,79,127,30
4,79,0,30
4,67,127,0
4,67,0,1
4,65,127,8819
4,77,127,0
4,77,0,20
4,65,0,10
4,65,127,90
4,77,127,0
4,77,0,20
4,65,0,0
4,65,127,100
4,77,127,0
4,77,0,20
4,65,0,0
4,67,127,40
4,79,127,0
4,79,0,20
4,67,0,10
4,79,127,1890
4,67,127,0
4,67,0,20
4,79,0,10
4,74,127,1470
4,62,127,0
4,62,0,30
4,74,0,0
4,77,127,30
4,65,127,0
4,65,0,30
4,77,0,0
4,62,127,30
4,74,127,0
4,62,0,20
4,74,0,10
4,74,127,90
4,62,127,0
4,62,0,30
4,74,0,0
4,77,127,30
4,65,127,0
4,65,0,20
4,77,0,0
4,62,127,40
4,74,127,0
4,74,0,15
4,62,0,0
4,79,127,45
4,67,127,0
4,67,0,20
4,79,0,0
4,79,127,1900
4,67,127,0
4,67,0,30
4,79,0,0
4,65,127,1470
4,77,127,0
4,77,0,20
4,65,0,10
4,65,127,90
4,77,127,0
4,77,0,15
4,65,0,0
4,77,127,105
4,65,127,0
4,65,0,15
4,77,0,0
4,77,127,105
4,65,127,0
4,65,0,20
4,77,0,0
4,79,127,40
4,67,127,0
4,67,0,30
4,79,0,0
4,79,127,1890
4,67,127,0
4,67,0,30
4,79,0,0
4,65,127,1470
4,77,127,0
4,77,0,15
4,65,0,0
4,65,127,105
4,77,127,0
4,77,0,15
4,65,0,0
4,65,127,105
4,77,127,0
4,77,0,15
4,65,0,15
4,65,127,90
4,77,127,0
4,77,0,20
4,65,0,15
4,79,127,25
4,67,127,0
4,67,0,30
4,79,0,0
4,62,127,1470
4,74,127,0
4,74,0,30
4,62,0,0
4,77,127,30
4,65,127,0
4,65,0,20
4,77,0,10
4,62,127,30
4,74,127,0
4,62,0,20
4,74,0,10
4,74,127,90
4,62,127,0
4,62,0,20
4,74,0,10
4,65,127,30
4,77,127,0
4,77,0,30
4,65,0,0
4,74,127,30
4,62,127,0
4,62,0,20
4,74,0,0
4,79,127,40
4,67,127,0
4,67,0,35
4,79,0,0
4,79,127,1885
4,67,127,0
4,67,0,30
4,79,0,0
4,65,127,1710
4,77,127,0
4,77,0,30
4,65,0,0
4,77,127,90
4,65,127,0
4,65,0,30
4,77,0,0
4,79,127,30
4,67,127,0
4,67,0,35
4,79,0,0
4,79,127,925
4,67,127,0
4,67,0,35
4,79,0,0
4,79,127,85
4,67,127,0
4,67,0,35
4,79,0,0
4,79,127,85
4,67,127,0
4,67,0,45
4,79,0,0
4,79,127,75
4,67,127,0
4,67,0,30
4,79,0,0
5,67,107,12000
5,67,0,15
5,67,85,15
5,67,0,10
5,67,88,20
5,67,0,15
5,67,85,15
5,67,0,10
5,67,107,20
5,67,0,10
5,67,85,20
5,67,0,10
5,67,110,20
5,67,0,20
5,67,104,10
5,67,0,15
5,67,101,735
5,67,0,10
5,67,85,20
5,67,0,15
5,67,97,15
5,67,0,10
5,67,86,20
5,67,0,10
5,67,101,20
5,67,0,15
5,67,85,15
5,67,0,15
5,67,104,15
5,67,0,10
5,67,101,20
5,67,0,15
5,67,99,735
5,67,0,15
5,67,85,15
5,67,0,10
5,67,92,20
5,67,0,15
5,67,85,15
5,67,0,20
5,67,107,10
5,67,0,15
5,67,85,15
5,67,0,10
5,67,104,20
5,67,0,15
5,67,107,15
5,67,0,15
5,67,99,735
5,67,0,15
5,67,85,15
5,67,0,10
5,67,101,20
5,67,0,10
5,67,85,20
5,67,0,10
5,67,101,20
5,67,0,15
5,67,85,15
5,67,0,15
5,67,107,15
5,67,0,10
5,67,101,20
5,67,0,10
5,67,113,740
5,67,0,15
5,67,85,15
5,67,0,15
5,67,94,15
5,67,0,10
5,67,85,20
5,67,0,15
5,67,101,15
5,67,0,10
5,67,88,20
5,67,0,20
5,67,101,10
5,67,0,15
5,67,107,15
5,67,0,20
5,67,113,730
5,67,0,20
5,67,85,10
5,67,0,15
5,67,94,15
5,67,0,10
5,67,85,20
5,67,0,10
5,67,97,20
5,67,0,15
5,67,85,15
5,67,0,10
5,67,104,20
5,67,0,15
5,67,104,15
5,67,0,15
5,67,107,735
5,67,0,15
5,67,85,15
5,67,0,15
5,67,99,15
5,67,0,10
5,67,85,20
5,67,0,15
5,67,104,15
5,67,0,15
5,67,85,15
5,67,0,15
5,67,101,15
5,67,0,15
5,67,92,15
5,67,0,15
5,67,104,735
5,67,0,15
5,67,94,45
5,67,0,10
5,67,85,20
5,67,0,15
5,67,104,15
5,67,0,15
5,67,85,15
5,67,0,15
5,67,107,15
5,67,0,15
5,67,101,15
5,67,0,15
5,67,107,4575
5,74,92,0
5,74,0,15
5,67,0,0
5,67,94,15
5,74,85,0
5,74,0,15
5,67,0,0
5,67,104,15
5,74,90,0
5,74,0,15
5,67,0,0
5,74,85,15
5,67,99,0
5,67,0,15
5,74,0,0
5,74,88,15
5,67,107,0
5,67,0,15
5,74,0,0
5,74,85,15
5,67,99,0
5,67,0,15
5,74,0,0
5,74,85,15
5,67,99,0
5,67,0,15
5,74,0,0
5,74,99,15
5,67,104,0
5,67,0,15
5,74,0,0
5,74,99,735
5,67,117,0
5,67,0,10
5,74,0,0
5,74,85,20
5,67,101,0
5,67,0,10
5,74,0,10
5,74,85,10
5,67,99,0
5,67,0,10
5,74,0,0
5,74,88,20
5,67,113,0
5,67,0,15
5,74,0,0
5,74,85,15
5,67,104,0
5,67,0,15
5,74,0,0
5,74,88,15
5,67,104,0
5,67,0,15
5,74,0,0
5,74,85,15
5,67,101,0
5,67,0,15
5,74,0,0
5,74,92,15
5,67,97,0
5,67,0,10
5,74,0,0
5,67,110,740
5,74,97,0
5,74,0,15
5,67,0,0
5,74,88,15
5,67,99,0
5,67,0,15
5,74,0,0
5,74,88,15
5,67,110,0
5,67,0,10
5,74,0,0
5,74,85,20
5,67,97,0
5,67,0,15
5,74,0,0
5,74,92,15
5,67,110,0
5,67,0,15
5,74,0,0
5,74,85,15
5,67,99,0
5,67,0,15
5,74,0,0
5,67,113,15
5,74,94,0
5,74,0,15
5,67,0,0
5,74,104,15
5,67,120,0
5,67,0,15
5,74,0,0
5,67,107,735
5,74,99,0
5,74,0,10
5,67,0,0
5,67,90,20
5,74,85,0
5,74,0,15
5,67,0,0
5,74,86,15
5,67,97,0
5,67,0,15
5,74,0,0
5,74,85,15
5,67,90,0
5,67,0,15
5,74,0,0
5,74,88,15
5,67,104,0
5,67,0,15
5,74,0,0
5,74,85,15
5,67,94,0
5,67,0,15
5,74,0,0
5,67,99,15
5,74,92,0
5,74,0,15
5,67,0,0
5,74,97,15
5,67,101,0
5,67,0,10
5,74,0,0
5,67,104,740
5,74,86,0
5,74,0,10
5,67,0,0
5,74,85,20
5,67,90,0
5,67,0,10
5,74,0,10
5,74,85,10
5,67,90,0
5,67,0,15
5,74,0,0
5,74,85,15
5,67,90,0
5,67,0,15
5,74,0,0
5,74,85,15
5,67,90,0
5,67,0,15
5,74,0,0
5,74,85,15
5,67,97,0
5,67,0,10
5,74,0,0
5,74,85,20
5,67,92,0
5,67,0,10
5,74,0,0
5,74,97,20
5,67,99,0
5,67,0,15
5,74,0,0
5,67,110,735
5,74,99,0
5,74,0,10
5,67,0,0
5,74,86,20
5,67,99,0
5,67,0,10
5,74,0,0
5,74,88,20
5,67,104,0
5,67,0,10
5,74,0,0
5,74,90,20
5,67,104,0
5,67,0,10
5,74,0,0
5,74,86,20
5,67,107,0
5,67,0,10
5,74,0,0
5,74,88,20
5,67,110,0
5,67,0,10
5,74,0,0
5,74,97,20
5,67,110,0
5,67,0,15
5,74,0,0
5,74,97,15
5,67,104,0
5,67,0,15
5,74,0,0
5,74,99,735
5,67,110,0
5,67,0,15
5,74,0,0
5,74,86,15
5,67,104,0
5,67,0,15
5,74,0,0
5,74,90,15
5,67,101,0
5,67,0,15
5,74,0,0
5,74,85,15
5,67,94,0
5,67,0,15
5,74,0,0
5,74,85,15
5,67,99,0
5,67,0,15
5,74,0,0
5,74,86,15
5,67,97,0
5,67,0,15
5,74,0,0
5,67,99,15
5,74,90,0
5,74,0,15
5,67,0,0
5,74,92,15
5,67,97,0
5,67,0,10
5,74,0,0
5,67,101,740
5,74,85,0
5,74,0,15
5,67,0,0
5,74,85,15
5,67,90,0
5,67,0,10
5,74,0,0
5,74,88,20
5,67,101,0
5,67,0,10
5,74,0,0
5,74,85,20
5,67,94,0
5,67,0,10
5,74,0,0
5,74,85,20
5,67,94,0
5,67,0,15
5,74,0,0
5,74,88,15
5,67,101,0
5,67,0,15
5,74,0,0
5,74,85,15
5,67,92,0
5,67,0,10
5,74,0,0
5,74,88,20
5,67,99,0
5,67,0,15
5,74,0,0
5,67,97,4575
5,74,85,0
5,74,0,15
5,67,0,0
5,67,94,15
5,74,85,0
5,74,0,10
5,67,0,0
5,67,107,20
5,74,90,0
5,74,0,10
5,67,0,0
5,74,86,20
5,67,99,0
5,67,0,10
5,74,0,0
5,74,85,20
5,72,85,0
5,67,99,0
5,67,0,10
5,72,0,0
5,74,0,0
5,74,85,20
5,67,97,0
5,67,0,10
5,74,0,0
5,74,85,20
5,67,94,0
5,67,0,10
5,74,0,0
5,74,85,20
5,67,99,0
5,67,0,10
5,74,0,0
5,67,99,740
5,74,85,0
5,74,0,15
5,67,0,0
5,74,85,15
5,67,99,0
5,67,0,10
5,74,0,0
5,74,85,20
5,67,94,0
5,67,0,10
5,74,0,10
5,74,90,10
5,67,107,0
5,67,0,10
5,74,0,0
5,74,85,20
5,67,99,0
5,67,0,10
5,74,0,0
5,74,85,20
5,67,97,0
5,67,0,10
5,74,0,10
5,74,85,10
5,67,92,0
5,67,0,10
5,74,0,0
5,74,90,20
5,67,101,0
5,67,0,15
5,74,0,0
5,67,90,735
5,74,85,0
5,74,0,10
5,67,0,0
5,74,85,20
5,67,94,0
5,67,0,15
5,74,0,0
5,67,107,15
5,74,94,0
5,74,0,15
5,67,0,0
5,74,92,15
5,67,107,0
5,67,0,15
5,74,0,0
5,74,92,15
5,67,113,0
5,67,0,10
5,74,0,0
5,74,88,20
5,67,104,0
5,67,0,15
5,74,0,0
5,74,85,15
5,67,92,0
5,67,0,10
5,74,0,0
5,74,94,20
5,67,117,0
5,67,0,10
5,74,0,0
5,67,107,740
5,74,88,0
5,74,0,15
5,67,0,0
5,67,90,15
5,74,85,0
5,74,0,15
5,67,0,0
5,67,110,15
5,74,86,0
5,74,0,10
5,67,0,0
5,74,86,20
5,67,107,0
5,67,0,10
5,74,0,0
5,74,88,20
5,67,113,0
5,67,0,10
5,74,0,0
5,74,90,20
5,67,110,0
5,67,0,10
5,74,0,0
5,74,86,20
5,67,107,0
5,67,0,10
5,74,0,0
5,74,97,20
5,67,117,0
5,67,0,10
5,74,0,0
5,67,104,740
5,74,85,0
5,74,0,15
5,67,0,0
5,74,85,15
5,67,92,0
5,67,0,15
5,74,0,0
5,67,99,15
5,74,97,0
5,74,0,15
5,67,0,0
5,74,86,15
5,67,99,0
5,67,0,10
5,74,0,0
5,74,86,20
5,67,99,0
5,67,0,10
5,74,0,0
5,74,88,20
5,67,99,0
5,67,0,10
5,74,0,0
