track,note,velocity,time
1,86,127,0
1,86,0,1344
1,84,127,0
1,84,0,192
1,86,127,0
1,86,0,1344
1,84,127,0
1,84,0,192
1,86,127,0
1,86,0,1344
1,84,127,0
1,84,0,192
1,86,127,0
1,86,0,1344
1,84,127,0
1,84,0,192
1,86,127,0
1,86,0,2880
1,84,127,0
1,84,0,192
1,86,127,0
1,86,0,2880
1,84,127,0
1,84,0,192
1,86,127,0
1,86,0,2880
1,84,127,0
1,84,0,192
1,86,127,0
1,86,0,2880
1,84,127,0
1,84,0,192
1,84,127,6048
1,84,0,96
1,86,127,0
1,86,0,1344
1,84,127,0
1,84,0,192
1,86,127,0
1,86,0,1344
1,84,127,0
1,84,0,192
1,86,127,0
1,86,0,1344
1,84,127,0
1,84,0,192
1,86,127,0
1,86,0,1344
1,84,127,0
1,84,0,192
1,86,127,0
1,86,0,2880
1,84,127,0
1,84,0,192
1,86,127,0
1,86,0,2880
1,84,127,0
1,84,0,192
1,86,127,0
1,86,0,2880
1,84,127,0
1,84,0,192
1,86,127,0
1,86,0,2880
1,84,127,0
1,84,0,576
2,79,114,0
2,79,0,1344
2,77,114,0
2,77,0,192
2,79,114,0
2,79,0,1344
2,77,114,0
2,77,0,192
2,79,114,0
2,79,0,1344
2,77,114,0
2,77,0,192
2,79,114,0
2,79,0,1344
2,77,114,0
2,77,0,192
2,79,114,0
2,79,0,768
2,77,114,0
2,77,0,768
2,76,114,0
2,76,0,768
2,75,114,0
2,75,0,576
2,77,114,0
2,77,0,192
2,79,114,0
2,79,0,768
2,77,114,0
2,77,0,768
2,76,114,0
2,76,0,768
2,75,114,0
2,75,0,576
2,77,114,0
2,77,0,192
2,79,114,0
2,79,0,768
2,77,114,0
2,77,0,768
2,76,114,0
2,76,0,768
2,75,114,0
2,75,0,576
2,77,114,0
2,77,0,192
2,79,114,0
2,79,0,768
2,77,114,0
2,77,0,768
2,76,114,0
2,76,0,768
2,75,114,0
2,75,0,576
2,77,114,0
2,77,0,192
2,77,114,6048
2,77,0,96
2,79,114,0
2,79,0,1344
2,77,114,0
2,77,0,192
2,79,114,0
2,79,0,1344
2,77,114,0
2,77,0,192
2,79,114,0
2,79,0,1344
2,77,114,0
2,77,0,192
2,79,114,0
2,79,0,1344
2,77,114,0
2,77,0,192
2,79,114,0
2,79,0,768
2,77,114,0
2,77,0,768
2,76,114,0
2,76,0,768
2,75,114,0
2,75,0,576
2,77,114,0
2,77,0,192
2,79,114,0
2,79,0,768
2,77,114,0
2,77,0,768
2,76,114,0
2,76,0,768
2,75,114,0
2,75,0,576
2,77,114,0
2,77,0,192
2,79,114,0
2,79,0,768
2,77,114,0
2,77,0,768
2,76,114,0
2,76,0,768
2,75,114,0
2,75,0,576
2,77,114,0
2,77,0,192
2,79,114,0
2,79,0,768
2,77,114,0
2,77,0,768
2,76,114,0
2,76,0,768
2,75,114,0
2,75,0,576
2,77,114,0
2,77,0,576
3,49,76,480
3,49,0,96
3,49,76,672
3,49,0,96
3,49,76,672
3,49,0,96
3,49,76,672
3,49,0,96
3,49,76,672
3,49,0,96
3,49,76,672
3,49,0,96
3,49,76,672
3,49,0,96
3,49,76,672
3,49,0,96
3,49,76,672
3,49,0,96
3,49,76,672
3,49,0,96
3,49,76,672
3,49,0,96
3,49,76,672
3,49,0,96
3,49,76,672
3,49,0,96
3,49,76,672
3,49,0,96
3,49,76,672
3,49,0,96
3,49,76,672
3,49,0,96
3,49,76,672
3,49,0,96
3,49,76,672
3,49,0,96
3,49,76,672
3,49,0,96
3,49,76,672
3,49,0,96
3,49,76,672
3,49,0,96
3,49,76,672
3,49,0,96
3,49,76,672
3,49,0,96
3,49,76,672
3,49,0,96
3,49,76,672
3,49,0,96
3,49,76,672
3,49,0,96
3,49,76,672
3,49,0,96
3,49,76,672
3,49,0,96
3,49,76,672
3,49,0,96
3,49,76,672
3,49,0,96
3,49,76,672
3,49,0,96
3,49,76,672
3,49,0,96
3,49,76,672
3,49,0,96
3,49,76,672
3,49,0,96
3,49,76,672
3,49,0,96
3,49,76,672
3,49,0,96
3,49,76,672
3,49,0,96
3,49,76,672
3,49,0,96
3,49,76,672
3,49,0,96
3,49,76,672
3,49,0,96
3,49,76,672
3,49,0,96
3,49,76,672
3,49,0,96
3,49,76,672
3,49,0,96
3,49,76,672
3,49,0,96
3,49,76,672
3,49,0,96
3,49,76,672
3,49,0,96
3,49,76,672
3,49,0,96
3,49,76,672
3,49,0,96
3,49,76,672
3,49,0,96
3,49,76,672
3,49,0,96
3,49,76,672
3,49,0,96
3,49,76,672
3,49,0,96
3,49,76,672
3,49,0,96
3,49,76,672
3,49,0,96
3,49,76,672
3,49,0,96
3,49,76,672
3,49,0,96
4,74,127,6624
4,74,0,192
4,74,127,0
4,74,0,384
4,74,127,288
4,74,0,96
4,74,127,0
4,74,0,96
4,72,127,0
4,72,0,384
4,67,127,288
4,67,0,96
4,70,127,0
4,70,0,192
4,70,127,0
4,70,0,96
4,67,127,0
4,67,0,96
4,70,127,0
4,70,0,192
4,65,127,0
4,65,0,96
4,67,127,0
4,67,0,288
4,74,127,0
4,74,0,192
4,74,127,0
4,74,0,192
4,74,127,0
4,74,0,192
4,67,127,576
4,67,0,96
4,74,127,0
4,74,0,96
4,72,127,0
4,72,0,384
4,79,127,864
4,79,0,96
4,79,127,0
4,79,0,96
4,79,127,0
4,79,0,96
4,79,127,0
4,79,0,192
4,77,127,480
4,77,0,96
4,77,127,0
4,77,0,48
4,79,127,0
4,79,0,96
4,70,127,0
4,70,0,48
4,74,127,0
4,74,0,96
4,72,127,0
4,72,0,48
4,70,127,0
4,70,0,240
4,67,127,864
4,67,0,96
4,70,127,0
4,70,0,192
4,70,127,0
4,70,0,96
4,67,127,0
4,67,0,96
4,70,127,0
4,70,0,192
4,65,127,0
4,65,0,96
4,67,127,0
4,67,0,288
4,74,127,0
4,74,0,192
4,74,127,0
4,74,0,192
4,74,127,0
4,74,0,192
4,67,127,576
4,67,0,96
4,74,127,0
4,74,0,96
4,72,127,0
4,72,0,384
4,67,127,288
4,67,0,96
4,70,127,0
4,70,0,192
4,70,127,0
4,70,0,96
4,67,127,0
4,67,0,96
4,70,127,0
4,70,0,192
4,65,127,0
4,65,0,96
4,67,127,0
4,67,0,96
4,69,127,2208
4,69,0,96
4,71,127,0
4,71,0,96
4,69,127,192
4,69,0,96
4,71,127,0
4,71,0,72
4,69,127,24
4,69,0,72
4,71,127,0
4,71,0,72
4,74,127,60
4,74,0,84
4,73,127,0
4,73,0,192
4,74,101,384
4,74,0,96
4,72,101,0
4,72,0,96
4,79,101,384
4,79,0,96
4,77,101,0
4,77,0,96
4,72,114,0
4,72,0,96
4,70,114,0
4,70,0,96
4,69,127,672
4,69,0,96
4,71,127,0
4,71,0,96
4,69,127,192
4,69,0,96
4,71,127,0
4,71,0,96
4,69,127,0
4,69,0,72
4,71,127,0
4,71,0,72
4,75,127,48
4,75,0,96
4,74,127,0
4,74,0,384
4,74,127,6240
4,74,0,192
4,74,127,0
4,74,0,384
4,74,127,288
4,74,0,96
4,74,127,0
4,74,0,96
4,72,127,0
4,72,0,384
4,67,127,288
4,67,0,96
4,70,127,0
4,70,0,192
4,70,127,0
4,70,0,96
4,67,127,0
4,67,0,96
4,70,127,0
4,70,0,192
4,65,127,0
4,65,0,96
4,67,127,0
4,67,0,288
4,74,127,0
4,74,0,192
4,74,127,0
4,74,0,192
4,74,127,0
4,74,0,192
4,67,127,576
4,67,0,96
4,74,127,0
4,74,0,96
4,72,127,0
4,72,0,384
4,79,127,864
4,79,0,96
4,79,127,0
4,79,0,96
4,79,127,0
4,79,0,96
4,79,127,0
4,79,0,192
4,77,127,480
4,77,0,96
4,77,127,0
4,77,0,48
4,79,127,0
4,79,0,96
4,70,127,0
4,70,0,48
4,74,127,0
4,74,0,96
4,72,127,0
4,72,0,48
4,70,127,0
4,70,0,240
4,67,127,864
4,67,0,96
4,70,127,0
4,70,0,192
4,70,127,0
4,70,0,96
4,67,127,0
4,67,0,96
4,70,127,0
4,70,0,192
4,65,127,0
4,65,0,96
4,67,127,0
4,67,0,288
4,74,127,0
4,74,0,192
4,74,127,0
4,74,0,192
4,74,127,0
4,74,0,192
4,67,127,576
4,67,0,96
4,74,127,0
4,74,0,96
4,72,127,0
4,72,0,384
4,67,127,288
4,67,0,96
4,70,127,0
4,70,0,192
4,70,127,0
4,70,0,96
4,67,127,0
4,67,0,96
4,70,127,0
4,70,0,192
4,65,127,0
4,65,0,96
4,67,127,0
4,67,0,480
5,92,95,18432
5,92,0,48
5,92,95,48
5,92,0,96
5,92,95,576
5,92,0,48
5,92,95,48
5,92,0,96
5,92,95,576
5,92,0,48
5,92,95,48
5,92,0,96
5,92,95,480
5,92,0,96
5,92,95,0
5,92,0,48
5,92,95,240
5,92,0,96
5,92,95,0
5,92,0,48
5,92,95,48
5,92,0,48
5,92,95,24
5,92,0,48
5,92,95,84
5,92,0,84
5,92,95,0
5,92,0,96
5,92,95,672
5,92,0,96
5,92,95,0
5,92,0,96
5,92,95,576
5,92,0,96
5,92,95,0
5,92,0,96
5,92,95,480
5,92,0,96
5,92,95,0
5,92,0,96
5,92,95,192
5,92,0,96
5,92,95,0
5,92,0,72
5,92,95,24
5,92,0,72
5,92,95,0
5,92,0,60
5,92,95,72
5,92,0,84
6,36,127,0
6,36,0,48
6,36,127,48
6,36,0,48
6,36,95,144
6,36,0,24
6,36,127,72
6,36,0,24
6,36,127,72
6,36,0,48
6,36,127,96
6,36,0,24
6,36,127,120
6,36,0,48
6,36,127,48
6,36,0,48
6,36,95,144
6,36,0,24
6,36,127,72
6,36,0,24
6,36,127,72
6,36,0,48
6,36,127,96
6,36,0,24
6,36,127,120
6,36,0,48
6,36,127,48
6,36,0,48
6,36,95,144
6,36,0,24
6,36,127,72
6,36,0,24
6,36,127,72
6,36,0,48
6,36,127,96
6,36,0,24
6,36,127,120
6,36,0,48
6,36,127,48
6,36,0,48
6,36,95,144
6,36,0,24
6,36,127,72
6,36,0,24
6,36,127,72
6,36,0,48
6,36,127,96
6,36,0,24
6,36,127,120
6,36,0,48
6,36,127,48
6,36,0,48
6,36,95,144
6,36,0,24
6,36,127,72
6,36,0,24
6,36,127,72
6,36,0,48
6,36,127,96
6,36,0,24
6,36,127,120
6,36,0,48
6,36,127,48
6,36,0,48
6,36,95,144
6,36,0,24
6,36,127,72
6,36,0,24
6,36,127,72
6,36,0,48
6,36,127,96
6,36,0,24
6,36,127,120
6,36,0,48
6,36,127,48
6,36,0,48
6,36,95,144
6,36,0,24
6,36,127,72
6,36,0,24
6,36,127,72
6,36,0,48
6,36,127,96
6,36,0,24
6,36,127,120
6,36,0,48
6,36,127,48
6,36,0,48
6,36,95,144
6,36,0,24
6,36,127,72
6,36,0,24
6,36,127,72
6,36,0,48
6,36,127,96
6,36,0,24
6,36,127,120
6,36,0,48
6,36,127,48
6,36,0,48
6,36,95,144
6,36,0,24
6,36,127,72
6,36,0,24
6,36,127,72
6,36,0,48
6,36,127,96
6,36,0,24
6,36,127,120
6,36,0,48
6,36,127,48
6,36,0,48
6,36,95,144
6,36,0,24
6,36,127,72
6,36,0,24
6,36,127,72
6,36,0,48
6,36,127,96
6,36,0,24
6,36,127,120
6,36,0,48
6,36,127,48
6,36,0,48
6,36,95,144
6,36,0,24
6,36,127,72
6,36,0,24
6,36,127,72
6,36,0,48
6,36,127,96
6,36,0,24
6,36,127,120
6,36,0,48
6,36,127,48
6,36,0,48
6,36,95,144
6,36,0,24
6,36,127,72
6,36,0,24
6,36,127,72
6,36,0,48
6,36,127,96
6,36,0,24
6,36,127,120
6,36,0,48
6,36,127,48
6,36,0,48
6,36,95,144
6,36,0,24
6,36,127,72
6,36,0,24
6,36,127,72
6,36,0,48
6,36,127,96
6,36,0,24
6,36,127,120
6,36,0,48
6,36,127,48
6,36,0,48
6,36,95,144
6,36,0,24
6,36,127,72
6,36,0,24
6,36,127,72
6,36,0,48
6,36,127,96
6,36,0,24
6,36,127,120
6,36,0,48
6,36,127,48
6,36,0,48
6,36,95,144
6,36,0,24
6,36,127,72
6,36,0,24
6,36,127,72
6,36,0,48
6,36,127,96
6,36,0,24
6,36,127,120
6,36,0,48
6,36,127,48
6,36,0,48
6,36,95,144
6,36,0,24
6,36,127,72
6,36,0,24
6,36,127,72
6,36,0,48
6,36,127,96
6,36,0,24
6,36,127,120
6,36,0,48
6,36,127,48
6,36,0,48
6,36,95,144
6,36,0,24
6,36,127,72
6,36,0,24
6,36,127,72
6,36,0,48
6,36,127,96
6,36,0,24
6,36,127,120
6,36,0,48
6,36,127,48
6,36,0,48
6,36,95,144
6,36,0,24
6,36,127,72
6,36,0,24
6,36,127,72
6,36,0,48
6,36,127,96
6,36,0,24
6,36,127,120
6,36,0,48
6,36,127,48
6,36,0,48
6,36,95,144
6,36,0,24
6,36,127,72
6,36,0,24
6,36,127,72
6,36,0,48
6,36,127,96
6,36,0,24
6,36,127,120
6,36,0,48
6,36,127,48
6,36,0,48
6,36,95,144
6,36,0,24
6,36,127,72
6,36,0,24
6,36,127,72
6,36,0,48
6,36,127,96
6,36,0,24
6,36,127,120
6,36,0,48
6,36,127,48
6,36,0,48
6,36,95,144
6,36,0,24
6,36,127,72
6,36,0,24
6,36,127,72
6,36,0,48
6,36,127,96
6,36,0,24
6,36,127,120
6,36,0,48
6,36,127,48
6,36,0,48
6,36,95,144
6,36,0,24
6,36,127,72
6,36,0,24
6,36,127,72
6,36,0,48
6,36,127,96
6,36,0,24
6,36,127,120
6,36,0,48
6,36,127,48
6,36,0,48
6,36,95,144
6,36,0,24
6,36,127,72
6,36,0,24
6,36,127,72
6,36,0,48
6,36,127,96
6,36,0,24
6,36,127,120
6,36,0,48
6,36,127,48
6,36,0,48
6,36,95,144
6,36,0,24
6,36,127,72
6,36,0,24
6,36,127,72
6,36,0,48
6,36,127,96
6,36,0,24
6,36,127,120
6,36,0,48
6,36,127,48
6,36,0,48
6,36,95,144
6,36,0,24
6,36,127,72
6,36,0,24
6,36,127,72
6,36,0,48
6,36,127,96
6,36,0,24
6,36,127,120
6,36,0,48
6,36,127,48
6,36,0,48
6,36,95,144
6,36,0,24
6,36,127,72
6,36,0,24
6,36,127,72
6,36,0,48
6,36,127,96
6,36,0,24
6,36,127,120
6,36,0,48
6,36,127,48
6,36,0,48
6,36,95,144
6,36,0,24
6,36,127,72
6,36,0,24
6,36,127,72
6,36,0,48
6,36,127,96
6,36,0,24
6,36,127,120
6,36,0,48
6,36,127,48
6,36,0,48
6,36,95,144
6,36,0,24
6,36,127,72
6,36,0,24
6,36,127,72
6,36,0,48
6,36,127,96
6,36,0,24
6,36,127,120
6,36,0,48
6,36,127,48
6,36,0,48
6,36,95,144
6,36,0,24
6,36,127,72
6,36,0,24
6,36,127,72
6,36,0,48
6,36,127,96
6,36,0,24
6,36,127,120
6,36,0,48
6,36,127,48
6,36,0,48
6,36,95,144
6,36,0,24
6,36,127,72
6,36,0,24
6,36,127,72
6,36,0,48
6,36,127,96
6,36,0,24
6,36,127,120
6,36,0,48
6,36,127,48
6,36,0,48
6,36,95,144
6,36,0,24
6,36,127,72
6,36,0,24
6,36,127,72
6,36,0,48
6,36,127,96
6,36,0,24
6,36,127,120
6,36,0,48
6,36,127,48
6,36,0,48
6,36,95,144
6,36,0,24
6,36,127,72
6,36,0,24
6,36,127,72
6,36,0,48
6,36,127,96
6,36,0,24
6,36,127,120
6,36,0,48
6,36,127,48
6,36,0,48
6,36,95,144
6,36,0,24
6,36,127,72
6,36,0,24
6,36,127,72
6,36,0,48
6,36,127,96
6,36,0,24
6,36,127,120
6,36,0,48
6,36,127,48
6,36,0,48
6,36,95,144
6,36,0,24
6,36,127,72
6,36,0,24
6,36,127,72
6,36,0,48
6,36,127,96
6,36,0,24
6,36,127,120
6,36,0,48
6,36,127,48
6,36,0,48
6,36,95,144
6,36,0,24
6,36,127,72
6,36,0,24
6,36,127,72
6,36,0,48
