track,note,velocity,time
0,69,81,1092
0,72,76,0
0,76,80,0
0,35,98,96
0,42,65,0
0,54,46,0
0,28,100,0
0,54,48,112
0,65,42,42
0,54,41,6
0,46,64,0
0,35,97,176
0,42,58,0
0,54,49,0
0,28,97,0
0,54,41,112
0,65,39,42
0,54,46,6
0,46,63,0
0,31,96,48
0,59,81,0
0,62,84,0
0,66,86,0
0,35,92,32
0,35,92,0
0,42,56,0
0,54,47,0
0,54,48,80
0,66,37,42
0,54,42,6
0,35,93,0
0,46,62,0
0,31,100,0
0,54,47,112
0,54,49,0
0,35,95,0
0,42,65,0
0,33,98,0
0,54,46,112
0,66,33,42
0,54,43,0
0,35,100,0
0,46,60,0
0,35,101,0
0,69,74,0
0,72,77,0
0,76,79,0
0,35,100,0
0,42,57,0
0,54,42,0
0,28,99,0
0,54,47,112
0,65,33,42
0,54,48,6
0,46,63,0
0,35,98,176
0,42,56,0
0,54,48,0
0,28,98,0
0,54,48,112
0,65,42,42
0,54,42,6
0,46,56,0
0,31,99,48
0,59,87,0
0,62,87,0
0,66,89,0
0,35,92,32
0,35,101,0
0,42,59,0
0,54,47,0
0,54,43,80
0,66,37,42
0,54,48,6
0,35,97,0
0,46,62,0
0,31,102,0
0,59,82,0
0,62,87,0
0,66,89,0
0,54,42,32
0,54,40,0
0,35,99,0
0,42,57,0
0,33,96,0
0,54,41,112
0,66,36,42
0,54,41,0
0,35,95,0
0,46,62,0
0,35,95,0
0,69,83,0
0,72,76,0
0,76,74,0
0,35,95,0
0,42,61,0
0,54,42,0
0,28,97,0
0,54,47,112
0,65,40,42
0,54,45,6
0,46,57,0
0,35,92,176
0,42,61,0
0,54,49,0
0,28,102,0
0,54,46,112
0,65,36,42
0,54,42,6
0,46,60,0
0,31,94,48
0,59,83,0
0,62,86,0
0,66,88,0
0,35,97,32
0,35,96,0
0,42,64,0
0,54,40,0
0,54,47,80
0,66,36,42
0,54,46,6
0,35,92,0
0,46,56,0
0,31,95,0
0,54,40,112
0,54,46,0
0,35,97,0
0,42,60,0
0,33,101,0
0,54,40,112
0,66,34,42
0,54,47,0
0,35,98,0
0,46,65,0
0,35,98,0
0,69,80,0
0,72,79,0
0,76,79,0
0,35,99,0
0,42,65,0
0,54,49,0
0,28,98,0
0,54,41,92
0,65,35,42
0,54,47,6
0,46,58,0
0,57,110,0
0,57,111,96
0,35,100,0
0,42,61,0
0,54,49,0
0,28,99,0
0,54,43,32
0,65,33,42
0,54,47,6
0,46,61,0
0,57,114,0
0,31,94,0
0,59,87,0
0,62,88,0
0,66,85,0
0,35,94,32
0,35,99,0
0,42,58,0
0,54,49,0
0,54,42,80
0,54,44,48
0,35,94,0
0,46,56,0
0,31,103,0
0,59,81,0
0,62,83,0
0,66,89,0
0,35,101,32
0,54,46,0
0,35,92,0
0,42,61,0
0,54,43,0
0,33,101,0
0,54,43,112
0,54,48,0
0,35,95,0
0,46,60,0
0,35,95,0
0,69,78,0
0,72,74,0
0,76,80,0
0,35,101,0
0,42,58,0
0,54,40,0
0,28,101,0
0,45,54,0
0,45,50,0
0,57,54,0
0,54,44,112
0,46,58,48
0,54,48,0
0,35,94,176
0,42,63,0
0,54,44,0
0,28,96,0
0,54,45,112
0,54,48,48
0,46,56,0
0,31,98,48
0,59,80,0
0,62,81,0
0,66,85,0
0,35,97,32
0,35,101,0
0,42,57,0
0,54,40,0
0,54,44,80
0,54,45,48
0,46,62,0
0,31,102,0
0,54,47,112
0,54,48,48
0,35,99,0
0,42,56,0
0,54,44,80
0,54,44,48
0,46,63,0
0,33,96,0
0,69,83,0
0,72,78,0
0,76,83,0
0,35,96,0
0,42,65,0
0,54,44,0
0,28,96,0
0,54,48,112
0,46,62,48
0,54,48,0
0,57,106,0
0,57,115,96
0,35,95,0
0,42,62,0
0,54,49,0
0,28,96,0
0,54,42,32
0,54,40,48
0,46,59,0
0,57,113,0
0,31,100,0
0,59,83,0
0,62,89,0
0,66,88,0
0,35,92,32
0,35,100,0
0,42,65,0
0,54,49,0
0,60,113,0
0,54,43,8
0,54,40,48
0,35,92,0
0,46,63,0
0,31,102,0
0,59,88,0
0,62,87,0
0,66,82,0
0,54,47,32
0,55,115,0
0,35,92,0
0,42,60,0
0,54,42,0
0,54,46,80
0,54,46,0
0,46,57,0
0,33,96,0
0,69,76,0
0,72,83,0
0,76,81,0
0,57,109,0
0,35,99,0
0,42,64,0
0,54,48,0
0,28,98,0
0,54,40,112
0,46,58,48
0,54,40,0
0,35,95,176
0,42,59,0
0,54,47,0
0,28,97,0
0,54,46,112
0,54,46,48
0,46,62,0
0,31,94,48
0,59,84,0
0,62,88,0
0,66,85,0
0,35,101,32
0,35,97,0
0,42,60,0
0,54,47,0
0,54,48,80
0,54,49,48
0,46,56,0
0,31,96,0
0,54,46,112
0,54,49,48
0,35,99,0
0,42,62,0
0,54,46,80
0,54,47,48
0,46,61,0
0,33,99,0
0,69,80,0
0,72,79,0
0,76,74,0
0,35,96,0
0,42,65,0
0,54,41,0
0,28,101,0
0,54,49,112
0,46,61,48
0,54,44,0
0,35,99,176
0,42,65,0
0,50,65,0
0,54,43,0
0,28,96,0
0,54,48,112
0,50,62,0
0,54,45,48
0,46,58,0
0,50,63,0
0,31,99,48
0,59,88,0
0,62,80,0
0,66,80,0
0,35,101,32
0,50,60,0
0,35,94,0
0,42,58,0
0,48,56,0
0,54,49,0
0,48,59,80
0,54,49,0
0,46,65,48
0,48,65,0
0,54,48,0
0,31,98,0
0,59,86,0
0,62,82,0
0,66,81,0
0,48,58,32
0,54,42,0
0,35,96,48
0,42,65,0
0,47,59,0
0,54,47,0
0,47,56,80
0,54,45,0
0,35,101,48
0,46,60,0
0,47,60,0
0,54,40,0
0,33,99,0
0,47,60,112
0,35,94,0
0,42,60,0
0,45,58,0
0,28,96,0
0,57,53,0
0,60,51,0
0,64,51,0
0,57,48,0
0,60,55,0
0,64,56,0
0,62,112,0
0,42,56,112
0,46,56,0
0,60,109,0
0,62,110,96
0,35,98,0
0,42,56,0
0,28,98,0
0,42,65,112
0,46,58,0
0,60,109,0
0,31,94,0
0,62,112,0
0,35,93,0
0,42,59,0
0,42,60,8
0,46,62,48
0,31,99,0
0,42,56,112
0,57,108,0
0,35,93,0
0,42,63,0
0,42,63,32
0,46,59,48
0,33,101,0
0,60,106,0
0,35,94,0
0,42,58,0
0,28,101,0
0,42,57,112
0,46,64,0
0,62,106,0
0,35,98,96
0,42,56,0
0,28,100,0
0,42,61,112
0,46,57,0
0,31,95,48
0,35,101,96
0,42,65,0
0,42,64,80
0,46,60,48
0,31,94,0
0,42,60,112
0,35,100,48
0,42,60,0
0,42,60,80
0,46,59,48
0,33,99,0
0,59,47,0
0,62,56,0
0,66,50,0
0,35,97,0
0,42,64,0
0,28,99,0
0,59,54,0
0,62,51,0
0,66,53,0
0,62,108,0
0,42,64,112
0,46,65,0
0,60,108,0
0,62,114,96
0,35,97,0
0,42,57,0
0,28,103,0
0,42,61,112
0,46,56,0
0,60,114,0
0,31,96,0
0,62,112,0
0,35,96,0
0,42,60,0
0,42,63,8
0,46,63,0
0,31,99,0
0,60,112,0
0,42,58,112
0,35,96,0
0,42,58,0
0,57,109,0
0,42,58,32
0,46,60,48
0,33,100,0
0,57,111,0
0,35,94,0
0,42,57,0
0,28,94,0
0,42,63,112
0,46,57,48
0,35,93,0
0,42,58,0
0,28,96,0
0,42,62,112
0,46,61,48
0,31,96,48
0,35,92,96
0,42,62,0
0,42,61,80
0,46,56,48
0,31,96,0
0,42,59,112
0,35,97,48
0,42,65,0
0,42,60,80
0,46,60,48
0,33,94,0
0,57,53,0
0,60,50,0
0,64,54,0
0,35,98,0
0,42,56,0
0,28,103,0
0,57,51,0
0,60,56,0
0,64,48,0
0,62,108,0
0,42,65,112
0,46,57,0
0,60,112,0
0,62,108,96
0,35,98,0
0,42,60,0
0,28,98,0
0,42,59,112
0,46,58,0
0,60,111,0
0,31,103,0
0,62,114,0
0,35,95,0
0,42,57,0
0,42,65,8
0,46,57,0
0,31,98,0
0,60,106,0
0,42,59,112
0,35,93,0
0,42,61,0
0,57,110,0
0,42,62,32
0,46,57,48
0,33,95,0
0,60,112,0
0,35,99,0
0,42,62,0
0,28,97,0
0,42,65,112
0,46,61,0
0,62,106,0
0,35,93,176
0,42,64,0
0,28,101,0
0,42,65,111
0,46,64,48
0,31,101,31
0,35,92,0
0,42,61,0
0,42,60,80
0,46,61,48
0,31,97,0
0,57,110,0
0,42,58,32
0,35,99,48
0,42,60,0
0,60,54,0
0,64,52,0
0,69,47,0
0,57,108,0
0,42,56,32
0,46,61,48
0,33,101,0
0,57,115,0
0,62,109,0
0,35,99,0
0,42,59,0
0,28,98,0
0,59,47,0
0,62,52,0
0,66,50,0
0,59,48,0
0,62,49,0
0,66,47,0
0,42,61,8
0,46,61,0
0,60,107,0
0,62,115,96
0,35,93,0
0,42,61,0
0,28,102,0
0,42,60,112
0,46,58,0
0,60,110,0
0,31,101,0
0,62,107,0
0,35,100,0
0,42,56,0
0,42,61,8
0,46,60,0
0,31,103,0
0,60,106,0
0,42,65,112
0,35,101,0
0,42,60,0
0,57,113,0
0,42,64,32
0,46,59,48
0,33,96,0
0,57,108,0
0,35,101,0
0,40,67,0
0,42,57,0
0,28,95,0
0,42,58,112
0,40,72,48
0,46,57,0
0,35,99,0
0,40,66,0
0,42,60,0
0,28,99,0
0,42,64,112
0,40,70,48
0,46,57,0
0,31,101,48
0,35,98,96
0,40,67,0
0,42,65,0
0,40,65,80
0,42,63,0
0,46,64,48
0,31,94,0
0,40,72,112
0,42,61,0
0,35,96,48
0,40,65,0
0,42,64,0
0,42,61,80
0,40,64,48
0,46,64,0
0,33,102,0
0,69,81,0
0,72,75,0
0,76,76,0
0,40,67,26
0,64,41,42
0,54,45,0
0,35,99,0
0,42,65,0
0,49,75,0
0,28,96,0
0,42,65,112
0,54,48,0
0,60,33,42
0,54,43,6
0,46,56,0
0,35,94,176
0,40,64,0
0,42,62,0
0,54,48,0
0,28,94,0
0,60,115,0
0,42,59,32
0,54,43,0
0,46,62,48
0,54,49,0
0,60,106,0
0,62,42,6
0,31,95,6
0,59,82,0
0,62,86,0
0,66,89,0
0,64,37,80
0,54,45,0
0,35,99,0
0,42,57,0
0,42,59,80
0,54,47,0
0,60,42,42
0,54,46,0
0,46,64,0
0,31,94,0
0,62,115,0
0,42,61,8
0,54,46,0
0,54,49,0
0,35,100,0
0,40,67,0
0,42,56,0
0,57,109,0
0,42,65,32
0,54,40,0
0,46,62,48
0,54,43,0
0,33,98,0
0,60,107,0
0,62,39,74
0,40,69,38
0,64,36,26
0,54,45,0
0,35,99,0
0,42,64,0
0,28,98,0
0,42,58,112
0,54,44,0
0,60,35,42
0,54,42,0
0,46,62,0
0,62,107,0
0,35,97,11
0,40,68,0
0,42,61,0
0,54,40,0
0,28,102,0
0,54,46,112
0,42,60,0
0,54,47,48
0,46,60,0
0,62,39,42
0,31,98,6
0,59,89,0
0,62,80,0
0,66,81,0
0,64,35,80
0,54,42,0
0,35,99,0
0,42,65,0
0,40,67,48
0,42,56,16
0,54,47,0
0,60,41,42
0,54,46,6
0,46,63,0
0,31,103,0
0,59,82,0
0,62,88,0
0,66,82,0
0,42,56,32
0,54,47,0
0,35,100,48
0,40,70,0
0,42,63,0
0,54,48,0
0,42,57,80
0,54,43,0
0,46,65,48
0,54,47,0
0,33,102,0
0,59,82,0
0,62,88,0
0,66,89,0
0,62,37,74
0,40,63,38
0,64,37,26
0,54,45,0
0,35,98,0
0,42,57,0
0,28,98,0
0,62,111,0
0,42,61,8
0,54,42,0
0,60,35,42
0,54,41,6
0,46,59,0
0,62,107,96
0,35,99,0
0,40,68,0
0,42,63,0
0,54,42,0
0,28,99,0
0,54,48,112
0,42,65,0
0,54,43,0
0,46,58,0
0,60,115,0
0,62,34,42
0,31,100,0
0,64,37,80
0,54,41,6
0,35,98,0
0,42,60,0
0,62,111,0
0,42,61,8
0,54,43,0
0,60,40,42
0,54,44,0
0,46,58,0
0,31,101,0
0,60,112,0
0,42,64,112
0,54,49,0
0,35,99,0
0,40,68,0
0,42,57,0
0,54,48,0
0,57,106,0
0,42,61,32
0,54,44,0
0,40,70,48
0,46,61,0
0,54,41,0
0,33,97,0
0,57,115,0
0,62,40,74
0,40,69,38
0,64,42,26
0,54,48,0
0,35,93,0
0,42,63,0
0,28,99,0
0,42,64,92
0,54,43,0
0,60,39,42
0,54,41,6
0,46,58,0
0,35,100,176
0,40,70,0
0,42,60,0
0,54,46,0
0,28,94,0
0,54,42,112
0,42,58,0
0,54,48,0
0,40,72,0
0,46,61,0
0,31,100,12
0,59,80,0
0,62,81,0
0,66,86,0
0,62,33,42
0,64,33,32
0,54,43,0
0,35,94,0
0,42,59,0
0,40,70,48
0,42,57,16
0,54,47,0
0,62,35,10
0,64,39,32
0,54,43,6
0,46,64,0
0,31,96,0
0,59,82,0
0,62,80,0
0,66,85,0
0,42,59,32
0,54,45,0
0,60,42,42
0,54,45,6
0,35,99,0
0,40,71,0
0,42,61,0
0,42,58,80
0,54,42,0
0,63,39,42
0,54,41,6
0,46,64,0
0,33,98,0
0,59,83,0
0,62,80,0
0,66,80,0
0,62,34,42
0,40,63,6
0,64,42,26
0,54,45,0
0,35,100,0
0,42,62,0
0,28,101,0
0,62,111,0
0,42,65,32
0,54,48,0
0,60,42,42
0,54,43,6
0,46,62,0
0,62,113,0
0,35,94,52
0,40,65,0
0,42,63,0
0,54,41,0
0,28,99,0
0,42,59,32
0,54,42,0
0,46,64,48
0,54,48,0
0,62,106,0
0,62,34,42
0,31,102,0
0,64,40,80
0,54,42,6
0,35,99,0
0,42,61,0
0,62,115,0
0,42,63,8
0,54,47,0
0,60,36,42
0,54,41,0
0,46,61,0
0,31,101,0
0,60,112,0
0,42,60,112
0,54,47,0
0,35,101,0
0,40,63,0
0,42,56,0
0,54,41,0
0,57,115,0
0,42,64,80
0,54,44,0
0,40,72,0
0,46,60,0
0,54,42,0
0,33,103,0
0,60,112,0
0,62,35,0
0,40,70,4
0,64,41,26
0,54,48,0
0,35,92,0
0,42,62,0
0,28,102,0
0,42,65,32
0,54,43,0
0,60,36,42
0,54,40,6
0,46,65,0
0,60,111,0
0,35,92,130
0,40,70,0
0,42,57,0
0,54,42,0
0,28,100,0
0,42,61,18
0,54,45,0
0,46,65,0
0,54,41,0
0,62,108,0
0,62,41,42
0,31,102,6
0,59,80,0
0,62,84,0
0,66,87,0
0,64,35,80
0,54,48,0
0,35,100,0
0,42,62,0
0,42,61,32
0,54,49,0
0,60,33,42
0,54,48,6
0,46,60,0
0,31,103,0
0,59,81,0
0,62,88,0
0,66,83,0
0,57,106,0
0,42,65,32
0,54,42,0
0,35,99,48
0,40,66,0
0,42,64,0
0,54,43,0
0,57,115,0
0,42,61,32
0,54,49,0
0,46,58,48
0,54,40,0
0,33,97,0
0,59,80,0
0,62,83,0
0,66,87,0
0,62,114,0
0,62,33,0
0,40,64,4
0,64,37,26
0,54,46,0
0,35,93,0
0,42,60,0
0,28,95,0
0,42,63,32
0,54,49,0
0,60,41,42
0,54,44,6
0,46,56,0
0,60,106,0
0,62,110,96
0,35,97,0
0,40,68,0
0,42,63,0
0,54,48,0
0,28,99,0
0,54,40,112
0,42,63,0
0,54,48,0
0,46,57,0
0,60,111,0
0,62,36,42
0,31,94,0
0,64,42,80
0,54,42,6
0,35,95,0
0,42,62,0
0,62,106,0
0,42,57,8
0,54,48,0
0,60,40,42
0,54,44,0
0,46,63,0
0,31,103,0
0,60,111,0
0,42,58,112
0,54,45,0
0,35,97,0
0,40,64,0
0,42,58,0
0,54,48,0
0,57,113,0
0,42,56,32
0,54,47,0
0,46,63,48
0,54,48,0
0,33,100,0
0,57,110,0
0,62,38,74
0,64,35,80
0,54,49,0
0,35,99,0
0,42,58,0
0,28,99,0
0,57,107,48
0,57,114,96
0,57,112,96
