track,note,velocity,time
3,72,0,0
3,72,0,24
3,72,0,0
3,72,0,24
3,72,0,0
3,72,0,24
3,72,0,0
3,72,0,24
3,72,0,0
3,72,0,24
3,72,0,0
3,72,0,24
3,72,0,0
3,72,0,24
3,72,0,0
3,72,0,24
3,72,0,0
3,72,0,24
3,72,0,0
3,72,0,24
3,79,108,0
3,79,0,50
3,72,122,0
3,72,0,17
3,75,112,0
3,75,0,44
3,72,112,0
3,72,0,40
3,79,108,0
3,79,0,125
3,72,122,0
3,72,0,44
3,72,117,0
3,72,0,42
3,75,112,0
3,75,0,46
3,72,112,0
3,72,0,37
3,79,108,0
3,79,0,134
3,72,117,0
3,72,0,48
3,72,122,0
3,82,108,0
3,72,0,4
3,82,0,39
3,79,96,5
3,79,0,22
3,79,108,0
3,79,0,256
3,77,84,0
3,77,0,10
3,79,112,14
3,79,0,24
3,77,122,0
3,77,0,89
3,79,108,0
3,79,0,45
3,72,117,0
3,72,0,37
3,75,108,0
3,75,0,17
3,72,104,0
3,72,0,19
3,79,100,0
3,79,0,125
3,72,122,0
3,72,0,45
3,72,122,0
3,72,0,43
3,75,108,0
3,75,0,47
3,72,117,0
3,72,0,37
3,79,108,0
3,72,108,0
3,79,0,6
3,72,0,51
3,72,117,0
3,72,0,23
3,72,108,0
3,82,112,0
3,72,0,2
3,79,96,0
3,82,0,4
3,79,0,340
3,79,104,0
3,79,0,46
3,77,108,0
3,77,0,45
3,75,100,0
3,75,0,27
3,75,108,0
3,75,0,51
3,77,117,0
3,77,0,65
3,75,104,0
3,75,0,44
3,79,100,0
3,79,0,52
3,79,104,0
3,79,0,47
3,77,122,0
3,77,0,64
3,77,122,0
3,77,0,40
3,79,76,0
3,77,108,0
3,79,0,7
3,77,0,40
3,75,100,0
3,75,0,32
3,75,84,0
3,75,0,44
3,75,108,0
3,77,96,0
3,75,0,4
3,77,0,37
3,75,86,0
3,75,0,42
3,84,108,0
3,84,0,51
3,84,104,0
3,84,0,32
3,82,112,0
3,82,0,57
3,79,104,0
3,79,0,50
3,77,108,0
3,77,0,22
3,77,112,0
3,77,0,25
3,77,108,0
3,77,0,29
3,79,96,0
3,77,112,0
3,79,0,4
3,77,0,38
3,75,104,0
3,75,0,43
3,77,100,0
3,77,0,25
3,77,122,0
3,77,0,53
3,77,122,0
3,77,0,48
3,74,108,0
3,75,117,0
3,74,0,2
3,75,0,68
3,79,96,0
3,79,0,24
3,79,88,0
3,79,0,25
3,77,108,0
3,77,0,36
3,79,108,0
3,77,108,0
3,79,0,4
3,77,0,37
3,75,108,0
3,75,0,28
3,75,72,0
3,75,0,29
3,75,108,0
3,75,0,32
3,82,112,0
3,82,0,41
3,84,112,0
3,84,0,31
3,82,100,17
3,82,0,24
3,79,88,0
3,79,0,121
3,79,82,0
3,79,0,15
3,79,82,0
3,79,0,14
3,79,108,0
3,79,0,18
3,79,96,0
3,79,0,16
3,79,96,0
3,79,0,18
3,79,96,0
3,79,0,19
3,79,92,0
3,79,0,19
3,79,96,0
3,79,0,37
3,82,112,0
3,82,0,48
3,79,100,0
3,79,0,42
3,77,108,0
3,77,0,91
3,79,88,0
3,79,0,49
3,79,104,0
3,79,0,18
3,79,100,0
3,79,0,34
3,79,76,0
3,79,0,18
3,77,112,0
3,77,0,47
3,79,92,0
3,79,0,19
3,72,108,0
3,72,0,63
3,72,112,0
3,72,0,40
3,77,108,0
3,77,0,46
3,79,92,0
3,79,0,44
3,72,100,0
3,72,0,19
3,72,100,0
3,77,100,0
3,72,0,7
3,77,0,85
3,75,104,0
3,75,0,77
3,79,92,0
3,79,0,18
3,79,86,0
3,79,0,24
3,79,96,0
3,79,0,22
3,79,100,0
3,79,0,20
3,79,92,0
3,79,0,18
3,79,96,0
3,79,0,18
3,79,92,0
3,79,0,44
3,82,112,0
3,82,0,63
3,79,96,0
3,79,0,55
3,77,108,0
3,77,0,94
3,79,86,0
3,79,0,43
3,79,86,0
3,79,0,17
3,79,88,0
3,79,0,39
3,75,100,0
3,75,0,18
3,77,112,0
3,79,76,0
3,77,0,8
3,79,0,10
3,72,112,0
3,72,0,57
3,72,112,0
3,72,0,44
3,84,96,0
3,84,0,76
3,86,108,0
3,86,0,51
3,84,112,0
3,84,0,59
3,82,117,0
3,82,0,68
3,79,104,0
3,79,0,43
3,72,117,0
3,72,0,46
3,75,108,0
3,75,0,33
3,72,104,0
3,72,0,33
3,79,104,0
3,79,0,114
3,72,112,0
3,72,0,42
3,72,117,0
3,72,0,46
3,75,108,0
3,75,0,46
3,72,112,0
3,72,0,43
3,79,104,0
3,79,0,118
3,72,112,0
3,72,0,59
3,72,108,0
3,82,108,0
3,72,0,15
3,82,0,25
3,79,92,8
3,79,0,23
3,79,104,0
3,79,0,277
3,77,108,0
3,77,0,20
3,79,114,4
3,79,0,24
3,77,122,0
3,77,0,78
3,79,96,0
3,79,0,48
3,72,112,0
3,72,0,39
3,75,104,0
3,75,0,30
3,72,108,0
3,72,0,27
3,79,104,0
3,79,0,98
3,72,117,0
3,72,0,52
3,72,122,0
3,72,0,48
3,75,104,0
3,75,0,46
3,72,104,0
3,72,0,45
3,79,100,0
3,79,0,106
3,72,112,0
3,72,0,66
3,72,104,0
3,72,0,44
3,82,108,0
3,82,0,47
3,79,108,0
3,79,0,47
3,79,88,0
3,79,0,233
3,72,117,0
3,72,0,25
3,75,108,0
3,75,0,47
3,72,104,0
3,72,0,25
3,77,122,0
3,77,0,56
3,72,112,0
3,72,0,55
3,75,104,0
3,75,0,40
3,72,92,0
3,72,0,23
3,77,112,0
3,77,0,45
3,77,100,0
3,77,0,18
3,74,108,0
3,74,0,88
3,72,100,0
3,72,0,21
3,75,112,0
3,72,92,0
3,75,0,2
3,72,0,29
3,77,112,0
3,77,0,49
3,72,117,0
3,72,0,52
3,75,92,0
3,75,0,41
3,72,96,0
3,72,0,44
3,84,108,0
3,84,0,42
3,84,108,0
3,84,0,23
3,82,108,0
3,79,88,0
3,82,0,5
3,79,0,131
3,79,80,0
3,79,0,19
3,79,88,0
3,79,0,19
3,79,88,0
3,79,0,21
3,79,86,0
3,77,100,0
3,79,0,11
3,77,0,32
3,75,104,0
3,75,0,41
3,77,104,0
3,77,0,28
3,77,108,0
3,77,0,42
3,77,108,0
3,77,0,35
3,74,108,0
3,74,0,94
3,75,108,0
3,75,0,55
3,79,96,0
3,79,0,18
3,79,96,0
3,79,0,17
3,79,92,0
3,79,0,18
3,79,76,0
3,77,96,0
3,79,0,1
3,77,0,42
3,75,104,0
3,75,0,23
3,75,88,0
3,75,0,22
3,75,108,0
3,75,0,47
3,82,108,0
3,82,0,44
3,84,100,0
3,84,0,34
3,82,100,14
3,79,92,0
3,82,0,7
3,79,0,144
3,79,92,0
3,79,0,17
3,79,86,0
3,79,0,17
3,79,100,0
3,79,0,21
3,79,80,0
3,79,0,16
3,79,112,0
3,79,0,20
3,79,92,0
3,79,0,18
3,79,92,0
3,79,0,18
3,79,88,0
3,79,0,41
3,82,108,0
3,82,0,53
3,79,100,0
3,79,0,50
3,77,104,0
3,77,0,91
3,79,104,0
3,79,0,67
3,79,88,0
3,79,0,17
3,79,96,0
3,79,0,47
3,79,88,0
3,79,0,19
3,77,108,0
3,79,82,0
3,77,0,1
3,79,0,19
3,72,100,0
3,72,0,46
3,72,100,0
3,72,0,45
3,77,112,0
3,77,0,41
3,79,84,0
3,79,0,38
3,72,108,0
3,72,0,21
3,72,104,0
3,77,108,0
3,72,0,3
3,77,0,87
3,75,104,0
3,75,0,71
3,79,92,0
3,79,0,18
3,79,96,0
3,79,0,18
3,79,100,0
3,79,0,18
3,79,96,0
3,79,0,20
3,79,84,0
3,79,0,18
3,79,100,0
3,79,0,20
3,79,76,0
3,79,0,39
3,82,108,0
3,82,0,48
3,79,108,0
3,79,0,44
3,77,104,0
3,77,0,88
3,79,96,0
3,79,0,74
3,79,80,0
3,79,0,18
3,79,100,0
3,79,0,33
3,75,86,0
3,75,0,20
3,77,96,0
3,79,86,0
3,77,0,5
3,79,0,15
3,72,108,0
3,72,0,58
3,72,108,0
3,72,0,47
3,84,104,0
3,84,0,76
3,86,108,0
3,86,0,43
3,84,112,0
3,84,0,62
3,82,104,0
3,82,0,88
3,79,96,0
3,79,0,52
3,72,104,0
3,72,0,18
3,75,104,0
3,75,0,45
3,72,100,0
3,72,0,32
3,79,92,0
3,79,0,99
3,72,108,0
3,72,0,50
3,72,112,0
3,72,0,36
3,75,96,0
3,72,108,0
3,75,0,2
3,72,0,35
3,79,100,0
3,79,0,115
3,72,112,0
3,72,0,54
3,72,108,0
3,82,104,0
3,72,0,7
3,79,80,41
3,82,0,4
3,79,0,25
3,79,100,0
3,79,0,238
3,79,92,0
3,77,122,0
3,79,0,6
3,77,0,80
3,79,108,0
3,79,0,53
3,72,117,0
3,72,0,38
3,75,104,0
3,75,0,20
3,72,108,0
3,72,0,19
3,79,104,0
3,79,0,119
3,72,108,0
3,72,0,48
3,72,117,0
3,72,0,39
3,75,104,0
3,75,0,47
3,72,112,0
3,72,0,38
3,79,100,0
3,79,0,109
3,72,108,0
3,72,0,62
3,72,104,0
3,72,0,19
3,72,96,0
3,82,108,0
3,72,0,4
3,82,0,39
3,79,100,0
3,79,0,281
3,79,78,7
3,77,108,0
3,79,0,5
3,77,0,100
3,74,100,0
3,77,108,0
3,77,0,51
3,74,0,10
3,74,104,0
3,77,104,0
3,77,0,49
3,74,0,7
3,75,108,0
3,79,80,0
3,79,0,53
3,75,0,4
3,74,96,0
3,77,100,0
3,74,0,41
3,72,74,0
3,75,86,0
3,77,0,5
3,75,0,17
3,72,0,4
3,72,88,0
3,75,108,0
3,75,0,50
3,72,0,9
3,72,92,0
3,75,100,0
3,75,0,53
3,72,0,14
3,75,112,0
3,79,86,0
3,79,0,80
3,75,0,9
3,79,96,0
3,74,108,0
3,74,0,79
3,79,0,1
3,74,86,0
3,77,92,0
3,74,0,15
3,77,0,1
3,74,104,0
3,77,117,0
3,77,0,53
3,74,0,6
3,75,104,0
3,79,84,0
3,79,0,50
3,75,0,3
3,77,108,0
3,74,104,0
3,74,0,41
3,77,0,7
3,72,86,0
3,75,96,0
3,75,0,17
3,72,0,2
3,75,108,0
3,72,88,0
3,75,0,45
3,72,0,4
3,72,88,0
3,75,112,0
3,75,0,56
3,72,0,20
3,79,86,0
3,75,108,0
3,79,0,60
3,75,0,3
3,74,100,0
3,79,88,0
3,79,0,66
3,74,0,2
3,74,92,0
3,77,104,0
3,77,0,42
3,74,0,2
3,75,92,0
3,79,82,0
3,75,0,38
3,79,0,10
3,77,88,0
3,74,80,0
3,74,0,30
3,77,0,12
3,72,88,0
3,75,86,0
3,72,0,15
3,75,0,4
3,72,92,0
3,75,104,0
3,75,0,52
3,72,0,4
3,72,92,0
3,75,104,0
3,75,0,51
3,72,0,8
3,75,108,0
3,79,76,0
3,75,0,48
3,79,0,5
3,79,86,0
3,74,104,0
3,79,0,84
3,74,0,2
3,77,108,0
3,74,92,0
3,77,0,43
3,74,0,10
3,75,61,0
3,79,82,0
3,79,0,42
3,75,0,6
3,77,100,0
3,74,96,0
3,74,0,38
3,77,0,10
3,75,86,0
3,72,76,0
3,75,0,22
3,72,0,5
3,75,108,0
3,72,92,0
3,75,0,93
3,72,0,6
3,72,112,0
3,72,0,22
3,75,112,0
3,75,0,45
3,72,104,0
3,72,0,35
3,77,112,0
3,74,104,0
3,77,0,58
3,74,0,3
3,74,112,0
3,77,112,0
3,74,0,47
3,77,0,10
3,75,108,0
3,79,86,0
3,79,0,53
3,75,0,9
3,74,104,0
3,77,108,0
3,74,0,36
3,75,100,0
3,72,60,0
3,77,0,5
3,75,0,12
3,72,0,2
3,75,112,0
3,72,86,0
3,75,0,44
3,72,0,13
3,75,112,0
3,72,92,0
3,75,0,42
3,72,0,17
3,75,108,0
3,79,96,0
3,75,0,54
3,79,0,4
3,74,112,0
3,79,86,0
3,74,0,68
3,79,0,3
3,77,104,0
3,74,96,0
3,74,0,17
3,77,0,2
3,74,108,0
3,77,112,0
3,77,0,83
3,74,0,1
3,75,104,0
3,79,86,0
3,79,0,77
3,75,0,1
3,74,82,0
3,77,92,0
3,74,0,38
3,72,78,10
3,75,96,0
3,77,0,7
3,75,0,12
3,72,0,4
3,72,80,0
3,75,108,0
3,75,0,50
3,72,0,6
3,72,88,0
3,75,108,0
3,75,0,50
3,72,0,13
3,75,104,0
3,79,88,0
3,79,0,72
3,75,0,19
3,74,88,0
3,79,80,0
3,79,0,77
3,74,0,1
3,77,112,0
3,74,108,0
3,74,0,87
3,79,80,0
3,75,100,0
3,77,0,7
3,75,0,30
3,74,80,0
3,77,86,0
3,79,0,7
3,74,0,30
3,77,0,11
3,75,108,0
3,72,72,0
3,75,0,18
3,72,0,1
3,75,104,0
3,72,92,0
3,75,0,51
3,72,0,1
3,72,96,0
3,75,112,0
3,75,0,42
3,72,0,18
3,79,82,0
3,75,108,0
3,79,0,63
3,75,0,3
3,74,100,0
3,79,86,0
3,79,0,92
3,74,0,0
3,77,108,0
3,74,104,0
3,77,0,72
3,74,0,2
3,75,108,0
3,79,88,0
3,75,0,51
3,79,0,2
3,74,86,0
3,77,104,0
3,74,0,42
3,72,72,0
3,75,88,0
3,77,0,8
3,75,0,9
3,72,0,3
3,72,92,0
3,75,112,0
3,75,0,82
3,72,0,4
3,72,117,0
3,72,0,39
3,75,122,0
3,75,0,46
3,72,112,0
3,72,0,46
3,79,92,0
3,79,0,45
3,72,104,0
3,72,0,17
3,75,104,0
3,75,0,15
3,72,96,0
3,72,0,21
3,79,108,0
3,79,0,95
3,72,108,0
3,72,0,50
3,72,117,0
3,72,0,36
3,75,104,0
3,75,0,42
3,72,108,0
3,72,0,48
3,79,100,0
3,79,0,141
3,72,117,0
3,72,0,59
3,72,112,0
3,82,100,0
3,72,0,1
3,82,0,43
3,79,84,4
3,79,0,26
3,79,112,0
3,79,0,267
3,77,78,0
3,77,0,19
3,79,80,5
3,77,122,0
3,79,0,19
3,77,0,68
3,79,96,0
3,79,0,46
3,72,117,0
3,72,0,41
3,75,104,0
3,75,0,29
3,72,108,0
3,72,0,25
3,79,104,0
3,79,0,103
3,72,112,0
3,72,0,46
3,72,108,0
3,72,0,45
3,75,108,0
3,72,104,0
3,75,0,5
3,72,0,33
3,79,96,0
3,72,112,0
3,79,0,1
3,72,0,62
3,72,112,0
3,82,108,0
3,72,0,12
3,82,0,36
3,79,78,0
3,79,0,30
3,79,108,0
3,72,112,288
3,79,0,1
3,75,104,47
3,72,0,7
3,72,96,0
3,75,0,1
3,72,0,45
3,77,100,0
3,80,104,0
3,80,0,61
3,77,0,3
3,77,108,0
3,80,96,0
3,80,0,16
3,77,0,1
3,77,104,0
3,80,96,0
3,80,0,44
3,75,86,0
3,79,86,0
3,77,0,2
3,75,0,18
3,79,0,4
3,75,104,0
3,79,88,0
3,75,0,127
3,79,0,2
3,80,96,0
3,77,104,0
3,77,0,43
3,80,0,0
3,80,82,0
3,77,96,0
3,80,0,18
3,77,0,4
3,80,96,0
3,77,86,0
3,80,0,39
3,77,0,6
3,79,68,0
3,75,78,0
3,75,0,21
3,79,0,7
3,79,100,0
3,75,100,0
3,79,0,114
3,75,0,12
3,77,100,0
3,80,88,0
3,80,0,40
3,77,0,3
3,77,96,0
3,80,86,0
3,80,0,20
3,77,0,2
3,77,88,0
3,80,92,0
3,80,0,36
3,77,0,11
3,75,84,1
3,79,78,0
3,75,0,25
3,79,0,6
3,79,92,0
3,75,96,0
3,79,0,92
3,80,88,0
3,77,86,0
3,75,0,10
3,80,0,30
3,79,70,8
3,75,86,0
3,77,0,12
3,80,100,0
3,77,86,0
3,75,0,3
3,79,0,8
3,80,0,193
3,77,0,6
3,77,96,0
3,80,100,0
3,80,0,39
3,77,0,5
3,80,82,0
3,77,96,0
3,80,0,18
3,77,0,7
3,77,88,0
3,80,104,0
3,77,0,42
3,79,70,0
