track,note,velocity,time
1,72,86,25344
1,72,85,42
1,72,82,54
1,72,86,48
1,75,92,226
1,73,100,224
1,72,85,216
1,70,84,232
1,72,66,384
1,72,85,10
1,70,77,912
1,72,78,192
1,75,81,190
1,77,72,188
1,72,79,158
1,68,73,232
1,70,53,192
1,68,84,166
1,72,104,904
1,72,90,28
1,73,96,202
1,72,99,196
1,70,89,234
1,68,81,434
1,70,80,192
1,72,84,168
1,70,92,28
1,68,81,242
1,72,97,1644
1,72,85,8
1,72,90,50
1,72,92,32
1,75,89,208
1,73,114,220
1,72,88,384
1,70,75,252
1,72,97,192
1,72,92,22
1,70,79,638
1,72,79,192
1,75,79,182
1,77,79,222
1,72,82,218
1,68,66,232
1,70,79,192
1,68,75,156
1,72,107,898
1,72,82,40
1,73,100,216
1,72,86,188
1,70,77,182
1,68,86,440
1,70,64,192
1,72,66,166
1,70,89,184
1,68,79,160
1,77,78,2240
1,80,79,192
1,82,63,210
1,79,73,202
1,75,58,230
1,77,85,186
1,77,80,26
1,77,73,856
1,84,63,192
1,82,89,198
1,79,74,230
1,75,75,218
1,77,69,192
1,77,90,154
1,72,66,710
1,77,61,36
1,79,58,8
1,80,58,36
1,82,81,42
1,79,72,222
1,75,75,194
1,72,69,254
1,77,69,16
1,79,66,38
1,80,64,56
1,79,82,34
1,77,94,196
1,80,89,550
1,79,86,22
1,80,81,200
1,80,59,60
1,79,83,54
1,77,92,218
1,80,104,596
1,79,80,24
1,75,73,252
1,77,88,238
1,80,109,274
1,80,79,66
1,82,75,58
1,77,82,242
1,80,109,574
1,79,85,24
1,75,77,232
1,77,90,216
1,77,78,32
1,77,75,486
1,77,69,58
1,84,75,32
1,84,66,48
1,84,69,54
1,82,81,36
1,84,75,2
1,82,92,10
1,80,100,88
1,82,71,0
1,84,58,38
1,82,104,46
1,80,96,256
1,77,107,1382
1,72,90,20
1,75,84,16
1,77,104,254
1,72,88,0
1,72,91,48
1,72,88,66
1,72,85,44
1,75,104,4
1,73,99,0
1,72,93,256
1,70,91,174
1,72,104,122
1,72,99,26
1,70,77,622
1,72,76,28
1,75,81,26
1,77,86,230
1,72,88,212
1,68,71,232
1,70,79,24
1,68,84,186
1,72,104,802
1,72,86,30
1,73,114,206
1,72,99,178
1,70,84,212
1,68,84,520
1,70,54,192
1,72,69,18
1,70,84,20
1,68,84,230
1,77,88,14
1,80,81,174
1,82,89,242
1,79,83,236
1,75,69,244
1,77,86,200
1,77,74,20
1,77,76,4
1,84,62,164
1,82,89,206
1,79,70,206
1,75,54,196
1,77,72,10
1,77,75,160
1,72,70,596
1,77,66,24
1,79,66,42
1,80,64,56
1,82,69,44
1,79,74,232
1,75,73,220
1,72,62,144
1,77,66,14
1,79,63,36
1,80,57,56
1,79,83,56
1,77,90,194
1,80,89,122
1,79,80,86
1,80,100,174
1,80,66,48
1,79,83,54
1,77,97,200
1,80,92,578
1,79,81,192
1,75,80,248
1,77,94,224
1,80,74,2
1,80,109,50
1,80,81,46
1,82,73,40
1,77,66,210
1,80,92,544
1,79,82,38
1,75,81,220
1,77,85,194
1,77,70,34
1,77,90,6
1,77,70,14
1,84,83,28
1,84,66,44
1,84,63,56
1,82,86,46
1,84,74,100
1,80,89,684
1,82,68,192
1,84,60,188
1,82,77,52
1,80,79,214
1,82,84,384
1,77,97,1218
1,72,79,84
1,75,84,192
1,77,94,226
1,72,99,1686
1,72,85,40
1,72,86,44
1,72,85,44
1,75,96,228
1,73,79,54
1,72,66,26
1,70,73,236
1,72,101,222
1,70,79,836
1,72,75,194
1,77,73,6
1,72,80,228
1,68,71,246
1,70,68,0
1,68,86,150
1,72,101,824
1,72,79,20
1,73,96,204
1,72,82,202
1,70,72,186
1,68,75,506
1,70,58,192
1,72,68,0
1,70,69,192
1,77,75,72
1,80,69,120
1,82,86,214
1,79,66,224
1,75,62,228
1,77,65,32
1,77,73,18
1,77,62,184
1,84,64,48
1,82,81,140
1,79,66,212
1,75,49,236
1,77,71,206
1,77,72,38
1,77,75,756
1,79,67,192
1,80,86,274
1,82,71,12
1,79,68,92
1,75,63,312
1,75,56,220
1,77,66,192
1,72,62,568
1,77,66,6
1,79,57,24
1,80,53,48
1,79,79,44
1,77,70,232
1,80,89,376
1,80,53,62
1,79,80,32
1,77,86,216
1,79,71,30
1,80,69,48
1,79,78,60
1,77,86,222
1,80,96,300
1,79,86,232
1,80,100,220
1,80,77,52
1,79,88,62
1,80,104,236
1,80,66,66
1,79,90,54
1,77,99,220
1,80,92,578
1,79,79,24
1,75,77,246
1,77,83,230
1,77,73,60
1,80,104,186
1,80,75,50
1,82,84,38
1,77,79,236
1,80,100,570
1,79,79,4
1,75,80,250
1,77,81,232
1,77,86,52
1,80,77,234
1,80,71,68
1,79,80,62
1,77,90,218
1,77,90,212
1,79,76,4
1,79,86,196
1,80,89,212
1,82,98,216
1,84,102,222
1,84,99,6
1,82,77,32
1,80,92,48
1,82,109,228
1,80,86,262
1,79,70,6
1,80,86,210
1,79,82,234
1,77,78,236
1,80,79,414
1,80,63,50
1,79,78,46
1,77,59,56
1,79,94,232
1,80,109,428
1,80,69,84
1,79,92,58
1,77,90,242
1,80,114,612
1,79,83,192
1,77,86,222
1,79,97,214
1,80,114,408
1,80,73,76
1,79,92,68
1,77,92,232
1,80,109,582
1,80,79,78
1,79,85,52
1,77,71,66
1,79,101,218
1,80,119,422
1,80,62,58
1,79,97,56
1,77,97,236
1,80,119,588
1,79,88,26
1,77,88,232
1,75,77,240
1,80,104,422
1,80,73,64
1,79,94,70
1,77,101,254
1,80,104,596
1,79,92,80
1,77,94,264
1,75,73,242
1,77,78,40
1,80,100,230
1,80,92,74
1,79,94,78
1,77,104,234
1,80,109,430
1,79,83,70
1,77,92,240
1,75,77,232
1,77,82,44
1,80,100,220
1,80,100,70
1,79,90,76
1,77,104,234
1,80,104,592
1,79,83,72
1,77,99,242
1,75,71,232
1,77,80,48
1,80,86,222
1,80,100,68
1,79,97,70
1,77,101,230
1,80,100,434
1,80,89,74
1,79,86,72
1,77,92,70
1,75,71,230
1,77,82,30
1,80,109,222
1,79,110,234
1,77,113,236
1,80,109,592
1,80,92,68
1,79,75,62
1,77,90,70
1,75,89,236
1,77,85,42
2,53,93,13056
2,53,89,108
2,60,93,96
2,53,89,108
2,58,91,114
2,53,91,114
2,56,89,102
2,60,92,122
2,53,89,114
2,53,85,120
2,60,93,108
2,53,92,124
2,58,91,104
2,53,89,100
2,56,91,104
2,53,91,120
2,53,93,116
2,53,87,112
2,60,88,112
2,53,90,120
2,58,86,112
2,53,88,120
2,56,86,108
2,60,86,128
2,53,92,112
2,53,88,118
2,60,88,116
2,53,87,106
2,58,88,96
2,53,92,112
2,56,92,112
2,53,89,132
2,53,91,120
2,53,90,108
2,60,91,112
2,53,87,104
2,58,89,96
2,53,88,110
2,56,88,106
2,60,89,124
2,53,90,112
2,53,88,104
2,60,89,116
2,53,88,100
2,58,88,96
2,53,91,108
2,56,92,108
2,53,91,128
2,53,93,116
2,53,91,118
2,60,91,108
2,53,90,108
2,58,87,104
2,53,90,106
2,56,89,104
2,60,93,112
2,53,92,108
2,53,91,120
2,58,90,104
2,53,88,124
2,60,92,104
2,53,94,124
2,51,93,102
2,48,93,124
2,53,92,98
2,53,90,120
2,60,92,104
2,53,91,106
2,58,93,112
2,53,89,108
2,56,89,94
2,60,89,128
2,53,90,108
2,53,89,116
2,60,91,112
2,53,88,114
2,58,87,96
2,53,84,104
2,56,89,102
2,53,88,132
2,53,89,110
2,53,87,116
2,60,90,120
2,53,86,120
2,58,90,100
2,53,91,130
2,56,88,104
2,60,90,126
2,53,89,112
2,53,91,116
2,60,88,106
2,53,89,108
2,58,93,104
2,53,91,128
2,56,93,116
2,53,92,120
2,53,90,120
2,53,89,120
2,60,89,112
2,53,89,110
2,58,89,96
2,53,91,116
2,56,87,108
2,60,91,116
2,53,90,100
2,53,84,102
2,60,91,102
2,53,89,108
2,58,89,102
2,53,90,112
2,56,89,108
2,53,87,122
2,53,88,108
2,53,89,112
2,60,91,124
2,53,90,102
2,58,89,108
2,53,91,122
2,56,90,108
2,60,89,116
2,53,88,112
2,53,86,122
2,58,88,98
2,53,88,112
2,60,90,104
2,53,92,128
2,51,92,102
2,48,94,138
2,53,89,108
2,53,88,116
2,60,89,96
2,53,91,116
2,58,92,112
2,53,90,112
2,56,86,112
2,60,91,128
2,53,88,124
2,53,84,126
2,60,91,114
2,53,93,116
2,58,87,104
2,53,87,116
2,56,91,92
2,53,89,124
2,53,88,116
2,53,91,116
2,60,89,116
2,53,91,124
2,58,91,112
2,53,91,122
2,56,88,112
2,60,90,118
2,53,89,102
2,53,91,122
2,60,91,108
2,53,88,112
2,58,89,112
2,53,88,120
2,56,90,110
2,53,92,122
2,53,91,120
2,53,86,120
2,60,91,102
2,53,87,98
2,58,87,108
2,53,90,116
2,56,88,94
2,60,91,126
2,53,92,96
2,53,89,106
2,60,90,98
2,53,87,112
2,58,88,104
2,53,92,114
2,56,89,110
2,53,86,132
2,53,91,108
2,53,91,102
2,60,88,112
2,53,88,110
2,58,89,112
2,53,90,108
2,56,88,102
2,60,88,124
2,53,93,88
2,53,91,106
2,58,90,108
2,53,91,116
2,60,91,100
2,53,93,122
2,51,95,102
2,48,92,124
2,49,89,100
2,49,86,116
2,56,81,96
2,49,88,92
2,53,84,84
2,56,89,272
2,51,87,272
2,51,85,88
2,58,85,88
2,51,87,76
2,55,85,88
2,58,85,268
2,49,86,284
2,49,86,84
2,56,83,78
2,49,89,88
2,53,86,100
2,56,89,260
2,51,86,280
2,51,83,92
2,58,84,68
2,51,84,94
2,55,87,84
2,58,84,276
2,49,88,284
2,49,81,80
2,56,85,72
2,49,86,94
2,53,83,108
2,56,88,264
2,51,87,268
2,51,82,72
2,58,83,80
2,51,88,76
2,55,83,80
2,58,85,270
2,41,89,264
2,41,88,120
2,41,85,102
2,41,85,102
2,41,90,112
2,44,85,96
2,48,83,104
2,53,85,96
2,41,89,114
2,41,89,104
2,41,90,104
2,41,86,116
2,41,90,114
2,46,90,108
2,41,89,110
2,39,88,104
2,41,88,108
2,53,91,6
2,51,93,14
2,49,90,212
2,49,88,420
2,37,86,92
2,49,88,48
2,37,91,70
2,39,92,344
2,51,89,32
2,39,96,56
2,41,94,312
2,53,92,26
2,51,91,192
2,49,93,244
2,49,89,424
2,37,93,60
2,49,90,26
2,37,94,36
2,39,92,250
2,51,91,16
2,39,96,52
2,46,95,284
2,46,92,80
2,46,96,88
2,46,91,92
2,46,94,72
2,46,97,72
2,46,94,78
2,46,96,68
2,46,94,76
2,46,97,72
2,46,97,80
2,46,93,76
2,46,99,86
2,46,93,96
2,46,97,80
2,53,91,64
2,41,88,100
2,53,88,2
2,51,93,16
2,49,90,214
2,49,88,408
2,37,86,96
2,49,90,44
2,37,89,62
2,39,94,332
2,51,88,32
2,39,96,40
2,41,95,316
2,53,91,28
2,51,91,192
2,49,90,234
2,49,88,432
2,37,88,64
2,49,95,44
2,37,92,52
2,39,94,242
2,51,94,8
2,39,93,48
2,53,89,282
2,53,91,126
2,60,92,96
2,53,90,120
2,58,93,96
2,53,92,112
2,56,87,106
2,60,88,124
2,53,91,120
2,53,88,120
2,60,90,102
2,53,88,108
2,58,87,104
2,53,86,112
2,56,88,96
2,53,90,112
2,53,91,124
2,53,88,116
2,60,91,104
2,53,90,116
2,58,86,118
2,53,90,118
2,56,90,112
2,60,86,120
2,53,89,102
2,53,89,112
2,60,88,116
2,53,89,114
2,58,89,108
2,53,89,126
2,56,89,112
2,53,91,132
2,53,91,116
2,53,88,116
2,60,91,106
2,53,87,104
2,58,88,96
2,53,91,122
2,56,86,106
2,60,91,126
2,53,90,108
2,53,86,108
2,60,86,102
2,53,89,100
2,58,88,92
2,53,90,116
2,56,89,92
2,53,89,132
2,53,89,112
2,53,87,126
2,60,88,104
2,53,89,120
2,58,91,104
2,53,88,102
2,56,88,112
2,60,91,120
2,53,93,100
2,53,88,120
2,58,90,112
2,53,88,116
2,60,91,96
2,53,93,116
2,51,90,106
2,48,94,128
2,49,90,92
2,49,87,118
2,56,86,88
2,49,90,96
2,53,86,84
2,56,89,256
2,51,88,272
2,51,86,92
2,58,82,90
2,51,84,92
2,55,84,92
2,58,83,272
2,49,87,280
2,49,82,72
2,56,87,60
2,49,88,84
2,53,84,92
2,56,90,272
2,51,88,280
2,51,87,80
2,58,86,70
2,51,87,84
2,55,84,84
2,58,84,280
2,49,89,280
2,49,83,88
2,56,83,84
2,49,86,88
2,53,84,98
2,56,88,264
2,51,86,268
2,51,85,88
2,58,84,70
2,51,88,80
2,55,84,100
2,58,83,264
2,41,91,270
2,41,93,106
2,41,84,104
2,41,89,110
2,41,88,100
2,44,86,98
2,48,86,80
2,53,85,80
2,41,90,110
2,41,90,110
2,41,91,106
2,41,87,112
2,41,88,112
2,46,89,84
2,41,89,104
2,39,88,96
2,41,90,120
2,53,87,0
2,51,93,24
2,49,91,222
2,49,90,414
2,37,87,102
2,49,89,50
2,37,92,64
2,39,94,332
2,51,93,28
2,39,92,48
2,41,93,304
2,53,93,42
2,51,90,192
2,49,92,228
2,49,90,428
2,37,89,64
2,49,94,16
2,37,90,54
2,39,91,248
2,51,95,12
2,39,96,48
2,46,95,276
2,46,94,72
2,46,92,84
2,46,91,96
2,46,92,70
2,46,94,76
2,46,93,72
2,46,94,72
2,46,98,88
2,46,92,80
2,46,94,84
2,46,93,84
2,46,97,86
2,46,97,96
2,46,93,72
2,53,96,44
2,41,92,92
2,53,91,192
2,51,94,12
2,49,93,220
2,49,89,402
2,37,87,102
2,49,92,50
2,37,93,68
2,39,96,320
2,51,90,38
2,39,93,44
2,41,92,316
2,53,90,38
2,51,92,4
2,49,95,230
2,49,93,428
2,37,91,72
2,49,94,36
2,37,93,58
2,39,94,252
2,51,95,8
2,39,92,48
2,53,88,282
2,53,89,116
2,60,93,104
2,53,87,110
2,58,90,112
2,53,91,116
2,56,88,118
2,60,88,116
2,53,87,120
2,53,87,110
2,60,92,114
2,53,93,108
2,58,89,96
2,53,88,108
2,56,91,108
2,53,93,124
2,53,88,112
2,53,90,126
2,60,91,116
2,53,88,120
2,58,90,104
2,53,91,128
2,56,87,102
2,60,89,128
2,53,89,116
2,53,93,124
2,60,88,104
2,53,89,114
2,58,91,108
2,53,88,108
2,56,88,112
2,53,91,116
2,53,91,108
2,53,90,124
2,60,90,110
2,53,86,108
2,58,86,104
2,53,89,112
2,56,91,96
2,60,86,116
2,53,92,108
2,53,84,112
2,60,91,112
2,53,90,110
2,58,90,108
2,53,90,104
2,56,90,112
2,53,88,140
2,53,91,108
2,53,89,122
2,60,91,120
2,53,89,108
2,58,88,104
2,53,88,118
2,56,88,104
2,60,90,118
2,53,93,116
2,53,91,116
2,58,88,98
2,53,90,116
2,60,94,100
2,53,90,120
2,51,93,100
2,48,90,132
2,49,93,98
2,49,95,98
2,56,90,82
2,49,98,96
2,53,90,86
2,49,94,96
2,56,94,84
2,51,99,168
2,51,93,88
2,58,93,88
2,51,97,88
2,55,94,82
2,51,95,88
2,58,94,88
2,49,95,184
2,49,94,80
2,56,97,100
2,49,92,94
2,53,90,96
2,49,91,100
2,56,93,88
2,51,96,184
2,51,95,88
2,58,91,84
2,51,97,96
2,55,93,104
2,51,93,94
2,58,91,96
2,49,97,148
2,49,90,98
2,56,92,88
2,49,94,100
2,53,92,88
2,49,97,106
2,56,92,104
2,51,97,116
2,51,92,92
2,58,91,84
2,51,97,88
2,55,95,80
2,51,97,84
2,58,96,96
2,53,95,156
2,53,91,100
2,56,95,84
2,53,94,104
2,60,92,84
2,61,96,88
2,60,96,96
2,56,94,80
2,53,96,100
2,53,93,84
2,56,93,88
2,53,96,108
2,60,95,84
2,61,90,84
2,60,92,116
2,56,92,100
2,53,91,110
2,53,94,96
2,56,99,76
2,53,92,108
2,58,97,88
2,60,94,100
2,58,95,82
2,56,99,108
