track,note,velocity,time
0,36,91,223
0,56,48,1
0,60,68,0
0,63,52,0
0,36,89,56
0,54,104,0
0,58,60,5
0,62,71,0
0,65,67,0
0,36,93,47
0,36,99,56
0,54,102,0
0,36,86,19
0,58,60,1
0,62,68,0
0,65,68,0
0,36,93,56
0,54,104,0
0,60,67,5
0,63,73,0
0,67,66,0
0,36,99,47
0,36,99,52
0,54,102,0
0,36,99,19
0,56,46,1
0,60,68,0
0,63,56,0
0,36,91,52
0,54,102,0
0,58,62,9
0,62,71,0
0,65,68,0
0,36,99,47
0,36,93,52
0,54,104,0
0,36,99,15
0,55,56,1
0,58,66,0
0,62,65,0
0,36,93,56
0,54,104,0
0,56,61,8
0,60,57,0
0,63,68,0
0,36,96,47
0,36,102,56
0,54,107,0
0,70,79,1
0,72,74,24
0,75,67,0
0,36,91,23
0,56,52,1
0,60,63,0
0,63,71,0
0,79,76,0
0,77,74,25
0,36,89,19
0,54,104,0
0,75,70,0
0,58,51,5
0,62,69,0
0,65,68,0
0,36,93,47
0,74,74,1
0,72,72,25
0,36,99,31
0,54,102,0
0,70,65,33
0,36,86,19
0,58,52,1
0,62,67,0
0,65,67,0
0,67,76,0
0,36,93,56
0,54,104,0
0,60,57,5
0,63,78,0
0,67,63,0
0,36,99,43
0,36,99,23
0,54,102,0
0,70,79,1
0,72,74,24
0,75,67,0
0,36,99,23
0,56,58,1
0,60,63,0
0,63,66,0
0,79,80,0
0,77,78,21
0,36,91,19
0,54,102,0
0,75,71,0
0,58,61,8
0,62,72,0
0,65,69,0
0,36,99,3
0,74,78,1
0,72,78,21
0,36,93,23
0,54,104,0
0,70,80,8
0,36,99,11
0,55,67,1
0,58,47,0
0,62,72,0
0,79,97,0
0,36,93,56
0,54,104,0
0,56,61,4
0,60,68,0
0,63,67,0
0,36,96,47
0,101,127,1
0,29,127,56
0,36,102,0
0,39,122,0
0,63,114,1
0,68,106,0
0,72,97,0
0,63,98,13
0,63,98,12
0,32,99,7
0,36,107,0
0,69,60,0
0,56,72,1
0,60,69,0
0,63,73,0
0,63,92,0
0,68,73,0
0,72,71,0
0,63,98,0
0,69,60,3
0,63,98,0
0,32,102,8
0,63,76,1
0,68,69,0
0,72,69,0
0,63,93,0
0,36,111,11
0,39,120,0
0,69,60,0
0,63,101,1
0,34,102,4
0,69,60,0
0,58,66,1
0,62,69,0
0,65,71,0
0,65,87,0
0,70,87,0
0,74,87,0
0,60,103,0
0,60,85,9
0,36,107,7
0,56,104,0
0,69,60,0
0,63,117,1
0,56,72,8
0,63,94,1
0,56,75,0
0,69,60,0
0,65,78,1
0,70,89,0
0,74,71,0
0,56,75,8
0,65,109,1
0,36,115,8
0,39,120,0
0,56,86,0
0,69,60,0
0,65,72,1
0,70,104,0
0,72,52,0
0,74,68,0
0,56,75,8
0,65,69,1
0,70,89,0
0,74,73,0
0,60,103,0
0,34,97,7
0,69,60,0
0,60,100,1
0,34,88,4
0,60,101,1
0,34,83,12
0,36,107,0
0,69,60,0
0,58,63,1
0,62,71,0
0,65,76,0
0,65,96,0
0,70,96,0
0,74,84,0
0,58,106,0
0,60,103,8
0,69,60,7
0,34,102,8
0,65,71,1
0,70,84,0
0,74,89,0
0,60,121,0
0,36,111,3
0,39,120,0
0,69,60,0
0,36,94,4
0,69,60,0
0,60,66,1
0,63,72,0
0,67,68,0
0,67,89,0
0,72,92,0
0,75,100,0
0,60,109,0
0,36,107,12
0,69,60,0
0,72,99,1
0,67,103,8
0,36,110,7
0,69,60,0
0,67,71,1
0,72,92,0
0,75,89,0
0,36,94,8
0,60,109,1
0,36,99,8
0,36,115,0
0,39,120,0
0,69,60,0
0,67,73,1
0,72,96,0
0,75,104,0
0,39,88,8
0,67,69,1
0,72,84,0
0,75,87,0
0,63,106,0
0,36,99,4
0,46,90,0
0,63,97,1
0,34,102,3
0,63,88,0
0,32,110,8
0,36,107,0
0,42,21,0
0,69,60,0
0,56,67,1
0,60,68,0
0,63,74,0
0,63,84,0
0,68,88,0
0,72,84,0
0,63,106,0
0,69,60,8
0,63,121,0
0,32,99,8
0,63,76,1
0,68,84,0
0,72,79,0
0,60,109,0
0,36,111,7
0,39,120,0
0,69,60,0
0,63,121,1
0,63,109,4
0,34,102,4
0,69,60,0
0,58,69,1
0,62,72,0
0,65,69,0
0,65,84,0
0,70,83,0
0,74,82,0
0,63,110,0
0,63,105,9
0,36,107,11
0,56,107,0
0,69,60,0
0,63,106,1
0,56,75,7
0,63,106,1
0,56,82,0
0,69,60,0
0,65,75,1
0,70,94,0
0,74,84,0
0,60,107,0
0,56,76,8
0,63,127,1
0,36,115,7
0,39,120,0
0,56,83,0
0,69,60,0
0,65,81,1
0,70,99,0
0,74,75,0
0,56,80,8
0,65,77,1
0,70,99,0
0,74,75,0
0,34,102,12
0,69,60,0
0,32,82,8
0,60,97,1
0,31,99,4
0,36,107,0
0,69,60,0
0,55,58,1
0,58,46,0
0,62,78,0
0,62,82,0
0,67,94,0
0,70,97,0
0,63,121,0
0,63,106,9
0,69,60,8
0,63,99,1
0,31,106,7
0,62,79,1
0,67,88,0
0,70,84,0
0,60,125,0
0,36,111,11
0,39,120,0
0,69,60,0
0,63,121,1
0,63,103,9
0,32,102,4
0,69,60,0
0,56,65,1
0,60,73,0
0,63,76,0
0,63,94,0
0,68,88,0
0,72,83,0
0,63,109,0
0,60,117,9
0,36,107,4
0,69,60,0
0,65,112,1
0,101,127,0
0,60,114,8
0,69,60,0
0,63,81,1
0,68,88,0
0,72,81,0
0,60,127,9
0,39,106,3
0,36,115,0
0,39,120,0
0,69,60,0
0,63,81,1
0,68,97,0
0,72,82,0
0,68,106,0
0,75,106,0
0,79,114,0
0,63,88,8
0,68,91,0
0,72,82,0
0,46,90,0
0,63,117,1
0,63,97,9
0,32,99,8
0,36,107,0
0,42,72,0
0,69,60,0
0,56,72,1
0,60,69,0
0,63,73,0
0,63,92,0
0,68,73,0
0,72,71,0
0,63,117,0
0,69,60,3
0,63,125,0
0,32,102,7
0,63,76,1
0,68,69,0
0,72,69,0
0,60,109,0
0,36,111,11
0,39,120,0
0,69,60,0
0,63,121,1
0,34,102,4
0,69,60,0
0,58,66,1
0,62,69,0
0,65,71,0
0,65,87,0
0,70,87,0
0,74,87,0
0,63,117,0
0,60,109,9
0,36,107,11
0,56,104,0
0,69,60,0
0,58,127,1
0,56,72,8
0,58,106,1
0,56,75,0
0,69,60,0
0,65,78,1
0,70,89,0
0,74,71,0
0,56,75,8
0,60,125,1
0,36,115,3
0,39,120,0
0,56,86,0
0,69,60,0
0,65,72,1
0,70,104,0
0,72,52,0
0,74,68,0
0,56,75,8
0,65,69,1
0,70,89,0
0,74,73,0
0,34,97,7
0,69,60,0
0,58,125,1
0,34,88,4
0,34,83,12
0,36,107,0
0,69,60,0
0,58,63,1
0,62,71,0
0,65,76,0
0,65,96,0
0,70,96,0
0,74,84,0
0,58,112,0
0,58,109,9
0,69,60,8
0,58,109,0
0,34,102,8
0,65,71,1
0,70,84,0
0,74,89,0
0,60,114,0
0,36,111,7
0,39,120,0
0,69,60,0
0,60,103,0
0,36,94,4
0,69,60,0
0,60,66,1
0,63,72,0
0,67,68,0
0,67,89,0
0,72,92,0
0,75,100,0
0,60,117,0
0,63,117,8
0,36,107,11
0,69,60,0
0,65,109,1
0,65,106,8
0,36,110,11
0,69,60,0
0,67,71,1
0,72,92,0
0,75,89,0
0,65,114,0
0,36,94,8
0,63,127,1
0,36,99,7
0,36,115,0
0,39,120,0
0,69,60,0
0,67,73,1
0,72,96,0
0,75,104,0
0,39,88,8
0,67,69,1
0,72,84,0
0,75,87,0
0,36,99,4
0,46,90,0
0,58,99,1
0,34,102,3
0,32,110,8
0,36,107,0
0,42,21,0
0,69,60,0
0,56,67,1
0,60,68,0
0,63,74,0
0,63,84,0
0,68,88,0
0,72,84,0
0,60,127,0
0,69,60,8
0,58,114,0
0,32,99,8
0,63,76,1
0,68,84,0
0,72,79,0
0,60,106,0
0,36,111,15
0,39,120,0
0,69,60,0
0,60,117,4
0,34,102,4
0,69,60,0
0,58,69,1
0,62,72,0
0,65,69,0
0,65,84,0
0,70,83,0
0,74,82,0
0,60,112,0
0,63,114,4
0,36,107,11
0,56,107,0
0,69,60,0
0,65,109,1
0,56,75,7
0,65,106,1
0,56,82,0
0,69,60,0
0,65,75,1
0,70,94,0
0,74,84,0
0,65,95,0
0,56,76,7
0,65,125,1
0,36,115,11
0,39,120,0
0,56,83,0
0,69,60,0
0,65,81,1
0,70,99,0
0,74,75,0
0,56,80,8
0,65,77,1
0,70,99,0
0,74,75,0
0,34,102,12
0,69,60,0
0,32,82,8
0,58,97,1
0,31,99,4
0,36,107,0
0,69,60,0
0,55,58,1
0,58,46,0
0,62,78,0
0,62,82,0
0,67,94,0
0,70,97,0
0,60,117,0
0,60,101,8
0,69,60,7
0,60,103,1
0,31,106,8
0,62,79,1
0,67,88,0
0,70,84,0
0,58,114,0
0,36,111,11
0,39,120,0
0,69,60,0
0,60,114,1
0,60,112,9
0,32,102,4
0,69,60,0
0,56,65,1
0,60,73,0
0,63,76,0
0,63,94,0
0,68,88,0
0,72,83,0
0,60,112,0
0,55,117,8
0,36,107,4
0,69,60,0
0,58,127,1
0,69,60,0
0,63,81,1
0,68,88,0
0,72,81,0
0,58,114,0
0,39,106,27
0,36,115,0
0,39,120,0
0,69,60,0
0,63,81,1
0,68,97,0
0,72,82,0
0,60,114,0
0,67,100,0
0,70,112,0
0,63,88,4
0,68,91,0
0,72,82,0
0,68,84,0
0,72,94,0
0,46,90,0
0,70,92,1
0,75,94,0
0,72,73,4
0,77,109,0
0,60,114,0
0,32,99,8
0,36,107,0
0,42,21,0
0,69,60,0
0,56,72,1
0,60,69,0
0,63,73,0
0,63,92,0
0,68,73,0
0,72,71,0
0,63,117,0
0,63,103,8
0,69,60,3
0,70,89,0
0,75,121,0
0,63,112,0
0,32,102,7
0,63,76,1
0,68,69,0
0,72,69,0
0,60,103,0
0,36,111,11
0,39,120,0
0,69,60,0
0,63,127,1
0,34,102,4
0,69,60,0
0,58,66,1
0,62,69,0
0,65,71,0
0,65,87,0
0,70,87,0
0,74,87,0
0,60,106,9
0,36,107,15
0,56,104,0
0,69,60,0
0,63,109,1
0,56,72,8
0,63,106,1
0,56,75,0
0,69,60,0
0,65,78,1
0,70,89,0
0,74,71,0
0,63,121,0
0,56,75,8
0,60,114,1
0,36,115,8
0,39,120,0
0,56,86,0
0,69,60,0
0,65,72,1
0,70,104,0
0,72,52,0
0,74,68,0
0,65,117,0
0,56,75,7
0,65,69,1
0,70,89,0
0,74,73,0
0,34,97,7
0,69,60,0
0,34,88,4
0,65,104,1
0,70,114,0
0,58,109,0
0,34,83,11
0,36,107,0
0,69,60,0
0,58,63,1
0,62,71,0
0,65,76,0
0,65,96,0
0,70,96,0
0,74,84,0
0,60,115,0
0,60,117,9
0,69,60,7
0,67,100,0
0,72,109,0
0,60,125,0
0,34,102,7
0,65,71,1
0,70,84,0
0,74,89,0
0,58,114,0
0,36,111,7
0,39,120,0
0,69,60,0
0,60,114,1
0,60,117,0
0,36,94,4
0,69,60,0
0,60,66,1
0,63,72,0
0,67,68,0
0,67,89,0
0,72,92,0
0,75,100,0
0,60,114,0
0,58,117,9
0,36,107,11
0,69,60,0
0,72,96,1
0,67,99,4
0,36,110,7
0,69,60,0
0,67,71,1
0,72,92,0
0,75,89,0
0,63,103,0
0,36,94,7
0,60,117,1
0,36,99,7
0,36,115,0
0,39,120,0
0,69,60,0
0,67,73,1
0,72,96,0
0,75,104,0
0,67,100,0
0,70,114,0
0,60,112,0
0,39,88,3
0,67,69,1
0,72,84,0
0,75,87,0
0,68,84,0
0,72,93,0
0,63,125,0
0,36,99,4
0,46,90,0
0,70,92,0
0,75,98,0
0,34,102,3
0,72,69,0
0,77,94,0
0,63,117,0
0,32,110,8
0,36,107,0
0,42,21,0
0,69,60,0
0,56,67,1
0,60,68,0
0,63,74,0
0,63,84,0
0,68,88,0
0,72,84,0
0,63,125,0
0,69,60,3
0,70,89,0
0,75,117,0
0,63,127,0
0,32,99,7
0,63,76,1
0,68,84,0
0,72,79,0
0,63,125,0
0,36,111,11
0,39,120,0
0,69,60,0
0,63,125,1
0,34,102,4
0,69,60,0
0,58,69,1
0,62,72,0
0,65,69,0
0,65,84,0
0,70,83,0
0,74,82,0
0,60,109,9
0,36,107,15
0,56,107,0
0,69,60,0
0,63,127,1
0,56,75,7
0,63,114,1
0,56,82,0
0,69,60,0
0,65,75,1
0,70,94,0
0,74,84,0
0,63,127,0
0,56,76,8
0,60,125,1
0,36,115,11
0,39,120,0
0,56,83,0
0,69,60,0
0,65,81,1
0,70,99,0
0,74,75,0
0,65,127,0
0,56,80,8
0,65,77,1
0,70,99,0
0,74,75,0
0,34,102,12
0,69,60,0
0,32,82,8
0,65,108,1
0,70,114,0
0,58,114,0
0,31,99,4
0,36,107,0
0,69,60,0
0,55,58,1
0,58,46,0
0,62,78,0
0,62,82,0
0,67,94,0
0,70,97,0
0,58,94,0
0,58,99,9
0,69,60,8
0,67,84,1
0,72,109,0
0,58,114,0
0,31,106,7
0,62,79,1
0,67,88,0
0,70,84,0
0,58,109,0
0,36,111,11
0,39,120,0
0,69,60,0
0,60,121,1
0,32,102,4
0,69,60,0
0,56,65,1
0,60,73,0
0,63,76,0
0,63,94,0
0,68,88,0
0,72,83,0
0,60,109,0
0,60,106,9
0,36,107,4
0,69,60,0
0,60,109,1
0,63,114,9
0,69,60,0
0,63,81,1
0,68,88,0
0,72,81,0
0,65,98,0
0,63,121,9
0,39,106,7
0,36,115,0
0,39,120,0
0,69,60,0
0,63,81,1
0,68,97,0
0,72,82,0
0,67,92,0
0,70,109,0
0,60,125,0
0,63,88,4
0,68,91,0
0,72,82,0
0,68,84,0
0,72,93,0
0,46,90,0
0,70,92,0
0,75,92,0
0,63,125,0
0,72,89,4
0,77,106,0
0,63,98,0
0,32,99,8
0,36,107,0
0,42,21,0
0,69,60,0
0,56,72,1
0,60,69,0
0,63,73,0
0,63,92,0
0,68,73,0
0,72,71,0
0,63,114,0
0,63,112,8
0,69,60,3
0,70,96,0
0,75,117,0
0,63,99,0
0,32,102,8
0,63,76,1
0,68,69,0
0,72,69,0
0,63,103,0
0,36,111,11
0,39,120,0
0,69,60,0
0,65,125,1
0,34,102,4
0,69,60,0
0,58,66,1
0,62,69,0
0,65,71,0
0,65,87,0
0,70,87,0
0,74,87,0
0,63,98,0
0,60,109,8
0,36,107,15
0,56,104,0
0,69,60,0
0,53,125,1
0,56,72,7
0,51,106,1
0,56,75,0
0,69,60,0
0,65,78,1
0,70,89,0
0,74,71,0
0,56,75,8
0,51,125,1
0,36,115,8
0,39,120,0
0,56,86,0
0,69,60,0
0,65,72,1
0,70,104,0
0,72,52,0
0,74,68,0
0,56,75,8
0,65,69,1
0,70,89,0
0,74,73,0
0,34,97,7
0,69,60,0
0,60,117,1
0,34,88,4
0,65,104,1
0,70,114,0
0,34,83,12
0,36,107,0
0,69,60,0
0,58,63,1
0,62,71,0
0,65,76,0
0,65,96,0
0,70,96,0
0,74,84,0
0,58,112,0
0,60,106,9
0,69,60,7
0,67,92,0
0,72,103,0
0,58,92,0
0,34,102,7
0,65,71,1
0,70,84,0
0,74,89,0
0,60,96,0
0,36,111,7
0,39,120,0
0,69,60,0
0,58,93,1
0,36,94,4
0,69,60,0
0,60,66,1
0,63,72,0
0,67,68,0
0,67,89,0
0,72,92,0
0,75,100,0
0,60,103,0
0,58,94,4
0,36,107,11
0,69,60,0
0,63,114,1
0,60,109,8
0,36,110,3
0,69,60,0
0,67,71,1
0,72,92,0
0,75,89,0
0,36,94,8
0,60,109,1
0,36,99,7
0,36,115,0
0,39,120,0
0,69,60,0
0,67,73,1
0,72,96,0
0,75,104,0
0,67,92,0
0,70,114,0
0,39,88,7
0,67,69,1
0,72,84,0
0,75,87,0
