track,note,velocity,time
3,22,100,0
3,22,0,120
3,22,100,0
3,22,0,60
3,34,100,0
3,34,0,180
3,26,100,60
3,26,0,60
3,22,100,0
3,22,0,120
3,22,100,0
3,22,0,60
3,34,100,0
3,34,0,180
3,26,100,60
3,26,0,60
3,22,100,0
3,22,0,120
3,22,100,0
3,22,0,60
3,34,100,0
3,34,0,180
3,26,100,60
3,26,0,60
3,22,100,0
3,22,0,120
3,22,100,0
3,22,0,60
3,34,100,0
3,34,0,180
3,22,100,120
3,22,0,120
3,22,100,0
3,22,0,60
3,34,100,0
3,34,0,180
3,26,100,60
3,26,0,60
3,22,100,0
3,22,0,120
3,22,100,0
3,22,0,60
3,34,100,0
3,34,0,180
3,26,100,60
3,26,0,60
3,22,100,0
3,22,0,120
3,22,100,0
3,22,0,60
3,34,100,0
3,34,0,180
3,26,100,60
3,26,0,60
3,22,100,0
3,22,0,120
3,22,100,0
3,22,0,60
3,34,100,0
3,34,0,180
3,26,100,60
3,26,0,60
3,22,100,0
3,22,0,120
3,22,100,0
3,22,0,60
3,34,100,0
3,34,0,180
3,26,100,60
3,26,0,60
3,22,100,0
3,22,0,120
3,22,100,0
3,22,0,60
3,34,100,0
3,34,0,180
3,26,100,60
3,26,0,60
3,22,100,0
3,22,0,120
3,22,100,0
3,22,0,60
3,34,100,0
3,34,0,180
3,26,100,60
3,26,0,60
3,22,100,0
3,22,0,120
3,22,100,0
3,22,0,60
3,34,100,0
3,34,0,180
3,26,100,60
3,26,0,60
3,22,100,0
3,22,0,120
3,22,100,0
3,22,0,60
3,34,100,0
3,34,0,180
3,26,100,60
3,26,0,60
3,22,100,0
3,22,0,120
3,22,100,0
3,22,0,60
3,34,100,0
3,34,0,180
3,26,100,60
3,26,0,60
3,22,100,0
3,22,0,120
3,22,100,0
3,22,0,60
3,34,100,0
3,34,0,180
3,26,100,60
3,26,0,60
3,22,100,0
3,22,0,120
3,22,100,0
3,22,0,60
3,34,100,0
3,34,0,180
3,26,100,60
3,26,0,60
3,22,100,0
3,22,0,120
3,22,100,0
3,22,0,60
3,34,100,0
3,34,0,180
3,26,100,60
3,26,0,60
3,22,100,0
3,22,0,120
3,22,100,0
3,22,0,60
3,34,100,0
3,34,0,180
3,26,100,60
3,26,0,60
3,22,100,0
3,22,0,120
3,22,100,0
3,22,0,60
3,34,100,0
3,34,0,180
3,26,100,60
3,26,0,60
3,22,100,0
3,22,0,120
3,22,100,0
3,22,0,60
3,34,100,0
3,34,0,180
3,34,100,0
3,34,0,120
3,22,100,0
3,22,0,180
3,22,100,0
3,22,0,180
3,34,100,0
3,34,0,120
3,22,100,0
3,22,0,180
3,22,100,0
3,22,0,180
3,34,100,0
3,34,0,120
3,22,100,0
3,22,0,180
3,22,100,0
3,22,0,180
3,34,100,0
3,34,0,120
3,22,100,0
3,22,0,180
3,22,100,0
3,22,0,180
3,34,100,0
3,34,0,120
3,22,100,0
3,22,0,180
3,22,100,0
3,22,0,180
3,34,100,0
3,34,0,120
3,22,100,0
3,22,0,180
3,22,100,0
3,22,0,180
3,34,100,0
3,34,0,120
3,22,100,0
3,22,0,180
3,22,100,0
3,22,0,180
3,34,100,0
3,34,0,120
3,22,100,0
3,22,0,180
3,22,100,0
3,22,0,180
3,34,100,0
3,34,0,120
3,22,100,0
3,22,0,180
3,22,100,0
3,22,0,180
3,34,100,0
3,34,0,120
3,22,100,0
3,22,0,180
3,22,100,0
3,22,0,180
3,34,100,0
3,34,0,120
3,22,100,0
3,22,0,180
3,22,100,0
3,22,0,180
3,34,100,0
3,34,0,120
3,22,100,0
3,22,0,180
3,22,100,0
3,22,0,180
3,34,100,0
3,34,0,120
3,22,100,0
3,22,0,180
3,22,100,0
3,22,0,180
3,34,100,0
3,34,0,120
3,22,100,0
3,22,0,180
3,22,100,0
3,22,0,180
3,34,100,0
3,34,0,120
3,22,100,0
3,22,0,180
3,22,100,0
3,22,0,180
3,34,100,0
3,34,0,120
3,22,100,0
3,22,0,180
3,22,100,0
3,22,0,180
3,34,100,0
3,34,0,120
3,22,100,0
3,22,0,180
3,22,100,0
3,22,0,180
3,34,100,0
3,34,0,120
3,22,100,0
3,22,0,180
3,22,100,0
3,22,0,180
3,34,100,0
3,34,0,120
3,22,100,0
3,22,0,180
3,22,100,0
3,22,0,180
3,34,100,0
3,34,0,120
3,22,100,0
3,22,0,180
3,22,100,0
3,22,0,180
3,34,100,0
3,34,0,120
3,22,100,0
3,22,0,180
3,22,100,0
3,22,0,180
3,34,100,0
3,34,0,120
3,22,100,0
3,22,0,180
3,22,100,0
3,22,0,180
3,34,100,0
3,34,0,120
3,22,100,0
3,22,0,180
3,22,100,0
3,22,0,180
3,34,100,0
3,34,0,120
3,22,100,0
3,22,0,180
3,22,100,0
3,22,0,180
3,34,100,0
3,34,0,120
3,22,100,0
3,22,0,180
3,22,100,0
3,22,0,180
3,34,100,0
3,34,0,120
3,22,100,0
3,22,0,180
3,22,100,0
3,22,0,180
3,34,100,0
3,34,0,120
3,22,100,0
3,22,0,180
3,22,100,0
3,22,0,180
3,34,100,0
3,34,0,120
3,22,100,0
3,22,0,180
3,22,100,0
3,22,0,180
3,34,100,0
3,34,0,120
3,22,100,0
3,22,0,180
3,22,100,0
3,22,0,180
3,34,100,0
3,34,0,120
3,22,100,0
3,22,0,180
3,22,100,0
3,22,0,180
3,34,100,0
3,34,0,120
3,22,100,0
3,22,0,180
3,22,100,0
3,22,0,180
3,34,100,0
3,34,0,120
3,22,100,0
3,22,0,180
3,22,100,0
3,22,0,180
3,34,100,0
3,34,0,120
3,22,100,0
3,22,0,180
3,22,100,0
3,22,0,180
3,34,100,0
3,34,0,120
3,22,100,0
3,22,0,180
3,22,100,0
3,22,0,180
3,34,100,0
3,34,0,120
3,22,100,0
3,22,0,180
3,22,100,0
3,22,0,180
3,34,100,0
3,34,0,120
3,22,100,0
3,22,0,120
3,22,100,0
3,22,0,60
3,34,100,0
3,34,0,180
3,26,100,60
3,26,0,60
3,22,100,0
3,22,0,120
3,22,100,0
3,22,0,60
3,34,100,0
3,34,0,180
3,26,100,60
3,26,0,60
3,22,100,0
3,22,0,120
3,22,100,0
3,22,0,60
3,34,100,0
3,34,0,180
3,26,100,60
3,26,0,60
3,22,100,0
3,22,0,120
3,22,100,0
3,22,0,60
3,34,100,0
3,34,0,180
3,22,100,120
3,22,0,120
3,22,100,0
3,22,0,60
3,34,100,0
3,34,0,180
3,26,100,60
3,26,0,60
3,22,100,0
3,22,0,120
3,22,100,0
3,22,0,60
3,34,100,0
3,34,0,180
3,26,100,60
3,26,0,60
3,22,100,0
3,22,0,120
3,22,100,0
3,22,0,60
3,34,100,0
3,34,0,180
3,26,100,60
3,26,0,60
3,22,100,0
3,22,0,120
3,22,100,0
3,22,0,60
3,34,100,0
3,34,0,180
3,26,100,60
3,26,0,60
3,22,100,0
3,22,0,120
3,22,100,0
3,22,0,60
3,34,100,0
3,34,0,180
3,26,100,60
3,26,0,60
3,22,100,0
3,22,0,120
3,22,100,0
3,22,0,60
3,34,100,0
3,34,0,180
3,26,100,60
3,26,0,60
3,22,100,0
3,22,0,120
3,22,100,0
3,22,0,60
3,34,100,0
3,34,0,180
3,26,100,60
3,26,0,60
3,22,100,0
3,22,0,120
3,22,100,0
3,22,0,60
3,34,100,0
3,34,0,180
3,26,100,60
3,26,0,60
3,22,100,0
3,22,0,120
3,22,100,0
3,22,0,60
3,34,100,0
3,34,0,180
3,26,100,60
3,26,0,60
3,22,100,0
3,22,0,120
3,22,100,0
3,22,0,60
3,34,100,0
3,34,0,180
3,26,100,60
3,26,0,60
3,22,100,0
3,22,0,120
3,22,100,0
3,22,0,60
3,34,100,0
3,34,0,180
3,26,100,60
3,26,0,60
3,22,100,0
3,22,0,120
3,22,100,0
3,22,0,60
3,34,100,0
3,34,0,180
3,26,100,60
3,26,0,60
3,22,100,0
3,22,0,120
3,22,100,0
3,22,0,60
3,34,100,0
3,34,0,180
3,26,100,60
3,26,0,60
3,22,100,0
3,22,0,120
3,22,100,0
3,22,0,60
3,34,100,0
3,34,0,180
3,26,100,60
3,26,0,60
3,22,100,0
3,22,0,120
3,22,100,0
3,22,0,60
3,34,100,0
3,34,0,180
3,26,100,60
3,26,0,60
3,22,100,0
3,22,0,120
3,22,100,0
3,22,0,60
3,34,100,0
3,34,0,180
3,34,100,0
3,34,0,120
3,22,100,0
3,22,0,180
3,22,100,0
3,22,0,180
3,34,100,0
3,34,0,120
3,22,100,0
3,22,0,180
3,22,100,0
3,22,0,180
3,34,100,0
3,34,0,120
3,22,100,0
3,22,0,180
3,22,100,0
3,22,0,180
3,34,100,0
3,34,0,120
3,22,100,0
3,22,0,180
3,22,100,0
3,22,0,180
3,34,100,0
3,34,0,120
3,22,100,0
3,22,0,180
3,22,100,0
3,22,0,180
3,34,100,0
3,34,0,120
3,22,100,0
3,22,0,180
3,22,100,0
3,22,0,180
3,34,100,0
3,34,0,120
3,22,100,0
3,22,0,180
3,22,100,0
3,22,0,180
3,34,100,0
3,34,0,120
3,22,100,0
3,22,0,180
3,22,100,0
3,22,0,180
3,34,100,0
3,34,0,120
3,22,100,0
3,22,0,180
3,22,100,0
3,22,0,180
3,34,100,0
3,34,0,120
3,22,100,0
3,22,0,180
3,22,100,0
3,22,0,180
3,34,100,0
3,34,0,120
3,22,100,0
3,22,0,180
3,22,100,0
3,22,0,180
3,34,100,0
3,34,0,120
3,22,100,0
3,22,0,180
3,22,100,0
3,22,0,180
3,34,100,0
3,34,0,120
3,22,100,0
3,22,0,180
3,22,100,0
3,22,0,180
3,34,100,0
3,34,0,120
3,22,100,0
3,22,0,180
3,22,100,0
3,22,0,180
3,34,100,0
3,34,0,120
3,22,100,0
3,22,0,180
3,22,100,0
3,22,0,180
3,34,100,0
3,34,0,120
3,22,100,0
3,22,0,180
3,22,100,0
3,22,0,180
3,34,100,0
3,34,0,120
3,22,100,0
3,22,0,180
3,22,100,0
3,22,0,180
3,34,100,0
3,34,0,120
3,22,100,0
3,22,0,180
3,22,100,0
3,22,0,180
3,34,100,0
3,34,0,120
3,22,100,0
3,22,0,180
3,22,100,0
3,22,0,180
3,34,100,0
3,34,0,120
3,22,100,0
3,22,0,180
3,22,100,0
3,22,0,180
3,34,100,0
3,34,0,120
3,22,100,0
3,22,0,180
3,22,100,0
3,22,0,180
3,34,100,0
3,34,0,120
3,22,100,0
3,22,0,180
3,22,100,0
3,22,0,180
3,34,100,0
3,34,0,120
3,22,100,0
3,22,0,180
3,22,100,0
3,22,0,180
3,34,100,0
3,34,0,120
3,22,100,0
3,22,0,180
3,22,100,0
3,22,0,180
3,34,100,0
3,34,0,120
3,22,100,0
3,22,0,180
3,22,100,0
3,22,0,180
3,34,100,0
3,34,0,120
3,22,100,0
3,22,0,180
3,22,100,0
3,22,0,180
3,34,100,0
3,34,0,120
3,22,100,0
3,22,0,180
3,22,100,0
3,22,0,180
3,34,100,0
3,34,0,120
3,22,100,0
3,22,0,180
3,22,100,0
3,22,0,180
3,34,100,0
3,34,0,120
3,22,100,0
3,22,0,180
3,22,100,0
3,22,0,180
3,34,100,0
3,34,0,120
3,22,100,0
3,22,0,180
3,22,100,0
3,22,0,180
3,34,100,0
3,34,0,120
3,22,100,0
3,22,0,180
3,22,100,0
3,22,0,180
3,34,100,0
3,34,0,120
3,22,100,0
3,22,0,180
3,22,100,0
3,22,0,180
3,34,100,0
3,34,0,120
3,22,100,0
3,22,0,180
3,22,100,0
3,22,0,180
3,34,100,0
3,34,0,120
3,22,100,0
3,22,0,180
3,22,100,0
3,22,0,180
3,34,100,0
3,34,0,120
3,22,100,0
3,22,0,180
3,22,100,0
3,22,0,180
3,34,100,0
3,34,0,120
3,22,100,0
3,22,0,720
3,22,100,0
3,22,0,240
3,22,100,0
3,22,0,720
3,22,100,0
3,22,0,240
3,22,100,0
3,22,0,720
3,22,100,0
3,22,0,240
3,22,100,0
3,22,0,720
3,22,100,0
3,22,0,240
3,22,100,0
3,22,0,180
3,22,100,0
3,22,0,180
3,34,100,0
3,34,0,120
3,22,100,0
3,22,0,180
3,22,100,0
3,22,0,180
3,34,100,0
3,34,0,120
3,22,100,0
3,22,0,180
3,22,100,0
3,22,0,180
3,34,100,0
3,34,0,120
3,22,100,0
3,22,0,180
3,22,100,0
3,22,0,180
3,34,100,0
3,34,0,120
3,22,100,0
3,22,0,180
3,22,100,0
3,22,0,180
3,34,100,0
3,34,0,120
3,22,100,0
3,22,0,180
3,22,100,0
3,22,0,180
3,34,100,0
3,34,0,120
3,22,100,0
3,22,0,180
3,22,100,0
3,22,0,180
3,34,100,0
3,34,0,120
3,22,100,0
3,22,0,180
3,22,100,0
3,22,0,180
3,34,100,0
3,34,0,120
3,22,100,0
3,22,0,180
3,22,100,0
3,22,0,180
3,34,100,0
3,34,0,120
3,22,100,0
3,22,0,180
3,22,100,0
3,22,0,180
3,34,100,0
3,34,0,120
3,22,100,0
3,22,0,180
3,22,100,0
3,22,0,180
3,34,100,0
3,34,0,120
3,22,100,0
3,22,0,180
3,22,100,0
3,22,0,180
3,34,100,0
3,34,0,120
3,22,100,0
3,22,0,180
3,22,100,0
3,22,0,180
3,34,100,0
3,34,0,120
3,22,100,0
3,22,0,180
3,22,100,0
3,22,0,180
3,34,100,0
3,34,0,120
3,22,100,0
3,22,0,180
3,22,100,0
3,22,0,180
3,34,100,0
3,34,0,120
3,22,100,0
3,22,0,180
3,22,100,0
3,22,0,180
3,34,100,0
3,34,0,120
3,22,100,0
3,22,0,180
3,22,100,0
3,22,0,180
3,34,100,0
3,34,0,120
3,22,100,0
3,22,0,180
3,22,100,0
3,22,0,180
3,34,100,0
3,34,0,120
3,22,100,0
3,22,0,180
3,22,100,0
3,22,0,180
3,34,100,0
3,34,0,120
3,22,100,0
3,22,0,180
3,22,100,0
3,22,0,180
3,34,100,0
3,34,0,120
3,22,100,0
3,22,0,180
3,22,100,0
3,22,0,180
3,34,100,0
3,34,0,120
3,22,100,0
3,22,0,10
3,22,100,0
3,22,0,20
3,34,100,0
3,34,0,20
3,22,100,0
3,22,0,10
3,22,100,0
3,22,0,10
3,34,100,0
3,34,0,10
4,60,100,11520
4,60,0,60
4,62,100,0
4,62,0,120
4,62,100,0
4,62,0,120
4,62,100,0
4,62,0,60
4,62,100,0
4,62,0,120
4,60,100,0
4,60,0,120
4,62,100,0
4,62,0,60
4,62,100,0
4,62,0,180
4,60,100,60
4,60,0,120
4,62,100,0
4,62,0,120
4,63,100,0
4,63,0,60
4,63,100,0
4,63,0,120
4,62,100,0
4,62,0,360
4,62,100,9360
4,62,0,180
4,62,100,0
4,62,0,120
4,60,100,0
4,60,0,180
4,62,100,480
4,62,0,180
4,62,100,0
4,62,0,120
4,60,100,0
4,60,0,180
4,62,100,480
4,62,0,120
4,60,100,0
4,60,0,60
4,62,100,0
4,62,0,120
4,60,100,0
4,60,0,180
4,62,100,360
4,62,0,120
4,63,100,0
4,63,0,60
4,62,100,0
4,62,0,120
4,60,100,0
4,60,0,60
4,62,100,0
4,62,0,240
4,60,100,12000
4,60,0,60
4,62,100,0
4,62,0,120
4,62,100,0
4,62,0,120
4,62,100,0
4,62,0,60
4,62,100,0
4,62,0,120
4,60,100,0
4,60,0,120
4,62,100,0
4,62,0,60
4,62,100,0
4,62,0,180
4,60,100,60
4,60,0,120
4,62,100,0
4,62,0,120
4,63,100,0
4,63,0,60
4,63,100,0
4,63,0,120
4,62,100,0
4,62,0,360
4,62,100,9360
4,62,0,180
4,62,100,0
4,62,0,120
4,60,100,0
4,60,0,180
4,62,100,480
4,62,0,180
4,62,100,0
4,62,0,120
4,60,100,0
4,60,0,180
4,62,100,480
4,62,0,120
4,60,100,0
4,60,0,60
4,62,100,0
4,62,0,120
4,60,100,0
4,60,0,180
4,62,100,360
4,62,0,120
4,63,100,0
4,63,0,60
4,62,100,0
4,62,0,120
4,60,100,0
4,60,0,60
