track,note,velocity,time
0,31,100,0
0,31,0,1
0,31,100,191
0,31,0,1
0,31,100,191
0,31,0,1
0,31,100,191
0,31,0,1
0,53,92,191
0,56,80,0
0,58,84,0
0,62,100,0
0,65,84,0
0,65,0,191
0,58,0,0
0,53,0,0
0,56,0,0
0,62,0,0
0,53,78,1
0,56,74,0
0,58,73,0
0,62,51,0
0,65,88,0
0,62,0,110
0,58,0,34
0,65,0,0
0,58,56,0
0,62,72,0
0,65,72,0
0,58,0,31
0,53,0,17
0,65,0,0
0,56,0,0
0,53,88,0
0,56,59,0
0,56,0,0
0,62,81,0
0,65,64,0
0,53,0,1
0,62,0,2
0,65,0,0
0,62,0,44
0,53,56,1
0,58,76,0
0,53,0,14
0,58,0,22
0,53,92,12
0,56,100,0
0,58,100,0
0,62,108,0
0,65,92,0
0,62,0,192
0,58,0,0
0,53,0,0
0,56,0,0
0,53,64,0
0,56,88,0
0,58,88,0
0,62,76,0
0,65,0,1
0,58,0,94
0,62,0,0
0,56,0,0
0,56,80,1
0,58,76,0
0,63,100,0
0,63,0,191
0,58,0,0
0,56,0,0
0,56,80,1
0,58,68,0
0,63,92,0
0,63,0,95
0,58,0,0
0,56,0,0
0,56,76,1
0,58,68,0
0,63,96,0
0,63,0,95
0,58,0,0
0,56,0,0
0,56,64,1
0,58,84,0
0,62,96,0
0,62,0,143
0,58,0,0
0,56,0,0
0,53,0,1
0,53,68,0
0,56,20,0
0,58,65,0
0,62,73,0
0,58,0,47
0,56,0,0
0,56,64,1
0,58,92,0
0,56,0,95
0,53,0,1
0,53,56,0
0,56,76,0
0,62,0,58
0,56,0,17
0,58,0,9
0,53,0,1
0,58,72,0
0,61,76,0
0,66,84,0
0,51,96,0
0,58,108,0
0,58,92,0
0,61,92,0
0,66,88,0
0,58,108,2
0,66,0,10
0,58,0,6
0,61,0,18
0,58,0,4
0,58,0,2
0,61,0,16
0,58,0,0
0,58,76,0
0,63,68,0
0,58,0,3
0,63,0,2
0,66,0,1
0,51,0,3
0,58,80,0
0,61,96,0
0,65,84,0
0,58,100,0
0,49,56,0
0,58,100,1
0,49,0,2
0,58,0,31
0,56,84,0
0,49,94,0
0,58,0,1
0,56,84,1
0,56,0,11
0,56,0,2
0,54,88,0
0,58,92,0
0,61,92,0
0,65,88,0
0,54,88,2
0,54,0,4
0,54,0,2
0,49,0,31
0,65,0,1
0,56,104,0
0,49,77,0
0,56,104,2
0,49,0,17
0,61,0,1
0,65,0,8
0,58,0,3
0,58,0,4
0,56,0,4
0,56,0,2
0,61,0,7
0,54,84,0
0,58,80,0
0,63,84,0
0,58,104,0
0,48,79,0
0,58,104,1
0,54,92,0
0,58,92,0
0,63,88,0
0,58,0,2
0,58,0,2
0,63,0,19
0,54,0,4
0,58,0,9
0,58,0,16
0,54,0,0
0,58,76,0
0,63,68,0
0,58,0,3
0,63,0,2
0,63,0,5
0,48,0,4
0,54,84,0
0,59,88,0
0,63,84,0
0,47,63,0
0,47,0,19
0,56,104,0
0,47,80,0
0,56,104,2
0,56,0,19
0,56,0,2
0,47,0,30
0,54,96,0
0,54,92,0
0,59,92,0
0,63,88,0
0,54,96,2
0,54,0,26
0,54,0,2
0,63,0,2
0,56,100,0
0,47,63,0
0,56,100,2
0,59,0,5
0,63,0,1
0,54,0,0
0,47,0,0
0,59,0,4
0,54,0,2
0,58,72,0
0,61,76,0
0,66,84,0
0,51,96,0
0,56,0,3
0,56,0,2
0,58,92,0
0,61,92,0
0,66,88,0
0,66,0,10
0,54,100,0
0,54,100,2
0,58,0,4
0,54,0,17
0,61,0,1
0,54,0,1
0,58,0,16
0,61,0,0
0,58,76,0
0,63,68,0
0,58,0,3
0,63,0,2
0,66,0,5
0,51,0,4
0,58,80,0
0,61,96,0
0,65,84,0
0,56,108,0
0,49,56,0
0,56,108,2
0,49,0,19
0,58,100,0
0,49,94,0
0,58,100,2
0,56,0,3
0,56,0,2
0,58,0,32
0,58,0,2
0,58,92,0
0,61,92,0
0,65,88,0
0,49,0,2
0,65,0,1
0,56,104,0
0,49,77,0
0,56,104,0
0,49,0,1
0,61,0,1
0,65,0,3
0,58,0,3
0,58,0,3
0,61,0,2
0,56,0,15
0,56,0,2
0,54,84,0
0,58,80,0
0,63,84,0
0,48,79,0
0,54,100,0
0,54,100,2
0,54,92,0
0,58,92,0
0,63,88,0
0,63,0,19
0,54,0,4
0,58,0,9
0,54,0,14
0,54,0,2
0,58,0,0
0,54,0,0
0,58,76,0
0,63,68,0
0,58,0,3
0,63,0,1
0,63,0,1
0,48,0,3
0,54,84,0
0,59,88,0
0,63,84,0
0,47,63,0
0,47,0,19
0,53,78,0
0,56,83,0
0,63,81,0
0,63,0,31
0,53,0,0
0,56,0,0
0,53,81,0
0,56,79,0
0,62,78,0
0,62,0,31
0,54,108,0
0,47,63,0
0,54,108,2
0,47,0,13
0,63,0,0
0,54,0,0
0,54,0,8
0,54,0,2
0,59,0,0
0,56,0,6
0,53,0,1
0,58,72,0
0,61,76,0
0,66,84,0
0,58,104,0
0,51,96,0
0,58,104,0
0,58,0,2
0,58,0,2
0,58,108,0
0,58,92,0
0,61,92,0
0,66,88,0
0,58,108,2
0,58,0,21
0,58,0,2
0,66,0,10
0,58,104,0
0,58,104,1
0,58,0,4
0,61,0,1
0,61,0,1
0,58,0,0
0,58,76,0
0,63,68,0
0,58,0,3
0,63,0,2
0,66,0,5
0,51,0,4
0,58,80,0
0,61,96,0
0,65,84,0
0,49,56,0
0,49,0,21
0,58,0,20
0,58,0,2
0,58,108,0
0,49,94,0
0,58,108,2
0,58,92,0
0,61,92,0
0,65,88,0
0,58,0,15
0,58,0,2
0,49,0,2
0,65,0,1
0,56,108,0
0,49,77,0
0,56,108,2
0,49,0,2
0,61,0,1
0,65,0,4
0,58,0,1
0,58,0,4
0,61,0,8
0,54,84,0
0,58,80,0
0,63,84,0
0,48,79,0
0,56,0,4
0,56,0,2
0,54,108,0
0,54,108,0
0,54,92,0
0,58,92,0
0,63,88,0
0,54,0,4
0,54,0,2
0,56,108,0
0,56,108,2
0,63,0,5
0,54,0,1
0,58,0,3
0,58,0,3
0,54,0,0
0,58,76,0
0,63,68,0
0,58,0,1
0,63,0,1
0,63,0,5
0,48,0,4
0,54,84,0
0,59,88,0
0,63,84,0
0,47,63,0
0,47,0,19
0,56,0,2
0,56,0,2
0,53,78,0
0,56,83,0
0,63,81,0
0,63,0,31
0,53,0,0
0,56,0,0
0,54,97,0
0,53,81,0
0,56,79,0
0,62,78,0
0,54,97,2
0,54,0,26
0,54,0,2
0,62,0,3
0,54,101,0
0,47,63,0
0,54,101,2
0,47,0,13
0,54,0,0
0,63,0,0
0,59,0,10
0,54,0,0
0,54,0,2
0,56,0,4
0,53,0,1
0,58,88,0
0,58,96,0
0,46,96,0
0,50,72,0
0,58,96,2
0,53,84,1
0,63,92,0
0,58,0,26
0,58,0,2
0,58,92,0
0,58,92,2
0,58,0,30
0,58,0,2
0,58,108,0
0,53,92,0
0,58,92,0
0,62,88,0
0,58,108,2
0,58,0,31
0,58,92,0
0,58,0,1
0,58,92,1
0,58,0,30
0,58,0,2
0,58,0,14
0,53,0,0
0,53,76,0
0,62,68,0
0,46,0,2
0,50,0,0
0,58,96,0
0,46,56,0
0,58,96,2
0,58,0,26
0,58,0,2
0,46,0,4
0,56,92,0
0,46,94,0
0,56,92,2
0,56,0,16
0,56,0,2
0,62,0,14
0,62,0,0
0,53,0,0
0,56,100,0
0,53,92,0
0,58,92,0
0,62,88,0
0,56,100,2
0,53,0,18
0,63,0,7
0,58,0,0
0,46,0,31
0,56,0,0
0,54,100,0
0,46,77,0
0,56,0,1
0,54,100,1
0,62,0,16
0,58,0,4
0,54,0,3
0,54,0,2
0,53,0,1
0,46,0,1
0,53,76,0
0,56,88,0
0,62,88,0
0,56,108,0
0,50,72,0
0,56,108,2
0,58,92,0
0,58,92,2
0,56,0,2
0,56,0,2
0,58,0,2
0,58,0,2
0,58,100,0
0,53,92,0
0,58,92,0
0,63,88,0
0,58,100,1
0,63,0,16
0,58,0,0
0,53,0,0
0,53,76,0
0,62,68,0
0,50,0,9
0,50,56,0
0,58,0,7
0,58,0,2
0,50,0,7
0,50,94,0
0,62,0,32
0,53,0,0
0,53,92,0
0,58,92,0
0,62,88,0
0,50,0,31
0,50,77,0
0,62,0,11
0,53,0,7
0,50,0,1
0,53,0,1
0,56,0,12
0,62,0,16
0,58,0,15
0,54,100,0
0,59,80,0
0,63,92,0
0,32,90,0
0,44,90,0
0,56,90,0
0,44,76,0
0,51,76,0
0,54,84,0
0,59,76,0
0,63,76,0
0,63,0,3
0,51,0,0
0,59,0,5
0,54,0,10
0,51,92,0
0,54,76,0
0,59,76,0
0,63,104,0
0,54,0,32
0,54,60,0
0,51,0,16
0,44,0,0
0,54,0,7
0,59,0,1
0,63,0,0
0,54,108,27
0,63,108,0
0,63,112,1
0,63,112,2
0,63,0,29
0,63,0,2
0,54,0,2
0,63,0,0
0,65,96,5
0,65,96,2
0,56,96,5
0,65,96,0
0,65,0,3
0,56,0,0
0,65,0,0
0,65,0,2
0,58,88,2
0,66,88,0
0,66,108,1
0,66,108,1
0,54,0,1
0,63,0,1
0,59,0,2
0,66,0,13
0,58,0,0
0,66,0,4
0,65,88,1
0,66,0,1
0,65,104,1
0,56,76,0
0,65,104,2
0,56,0,9
0,32,0,0
0,44,0,0
0,58,87,0
0,61,91,0
0,65,89,0
0,34,90,0
0,46,90,0
0,58,90,0
0,56,0,1
0,65,0,1
0,65,0,11
0,65,0,1
0,56,64,0
0,58,60,0
0,63,64,1
0,63,0,13
0,56,0,10
0,58,0,6
0,65,108,23
0,56,96,1
0,65,96,0
0,65,108,1
0,65,0,23
0,56,0,7
0,66,92,2
0,66,108,2
0,58,80,2
0,66,108,0
0,65,0,1
0,65,0,2
0,66,0,21
0,58,0,5
0,65,0,3
0,59,80,1
0,68,68,0
0,66,0,9
0,66,0,2
0,65,107,0
0,58,0,1
0,65,107,1
0,61,0,5
0,65,0,23
0,65,0,2
0,59,0,5
0,68,0,4
0,65,112,2
0,65,112,2
0,58,68,1
0,58,0,1
0,46,0,0
0,34,0,0
0,58,84,0
0,61,88,0
0,66,84,0
0,39,90,0
0,51,90,0
0,63,90,0
0,66,84,1
0,65,0,8
0,63,104,0
0,65,0,2
0,63,104,0
0,54,92,0
0,61,92,0
0,66,88,0
0,58,0,10
0,66,0,5
0,54,0,13
0,61,0,0
0,54,76,0
0,66,68,0
0,63,0,11
0,63,0,2
0,51,56,0
0,51,0,32
0,66,0,0
0,54,92,0
0,61,92,0
0,66,88,0
0,66,0,28
0,58,0,1
0,54,0,14
0,61,0,5
0,54,0,12
0,66,0,0
0,58,100,0
0,51,77,0
0,58,100,2
0,61,0,18
0,58,0,4
0,58,0,2
0,66,0,16
0,51,0,24
0,63,0,7
0,51,0,0
0,39,0,0
0,56,64,0
0,61,84,0
0,65,84,0
0,63,108,0
0,53,90,0
0,65,90,0
0,49,77,0
0,63,108,0
0,63,0,20
0,63,0,2
0,61,92,0
0,53,92,0
0,61,92,0
0,65,88,0
0,61,92,2
0,61,0,1
0,56,104,0
0,49,56,0
0,61,0,1
0,56,104,0
0,56,0,13
0,65,0,2
0,53,0,1
0,61,0,0
0,61,0,10
0,49,0,32
0,49,0,0
0,58,84,0
0,61,68,0
0,66,88,0
0,53,92,0
0,61,92,0
0,66,88,0
0,56,0,16
0,56,0,2
0,56,116,0
0,56,116,2
0,66,0,16
0,61,0,4
0,61,0,7
0,66,0,2
0,53,0,2
0,58,0,1
0,56,76,0
0,61,92,0
0,65,88,0
0,54,108,0
0,53,92,0
0,61,92,0
0,65,88,0
0,54,108,2
0,56,0,4
0,56,0,2
0,54,0,3
0,54,0,2
0,56,96,0
0,49,66,0
0,56,96,2
0,65,0,5
0,56,0,3
0,65,0,3
0,61,0,1
0,53,0,11
0,61,0,4
0,49,0,5
0,53,0,7
0,65,0,0
0,65,0,1
0,54,96,0
0,59,88,0
0,54,90,0
0,66,90,0
0,44,76,0
0,51,76,0
0,54,84,0
0,59,76,0
0,63,76,0
0,63,0,3
0,51,0,0
0,59,0,5
0,54,0,2
0,56,0,10
0,56,0,1
0,51,92,0
0,54,76,0
0,59,76,0
0,63,104,0
0,54,0,8
0,54,112,0
0,54,60,0
0,54,112,2
0,51,0,14
0,54,0,7
0,59,0,1
0,63,0,0
0,54,0,25
0,54,0,2
0,54,108,0
0,63,108,0
0,56,92,0
0,56,92,2
0,56,0,24
0,56,0,2
0,58,112,0
0,58,112,2
0,63,0,2
0,54,0,0
0,56,96,12
0,65,96,0
0,58,0,24
0,58,0,2
0,54,0,1
0,59,0,14
0,56,0,3
0,65,0,0
0,58,88,2
0,66,88,0
0,58,108,0
0,58,108,2
0,44,0,2
0,66,0,13
0,58,0,0
0,54,0,18
0,66,0,0
0,56,92,0
0,61,88,0
0,66,88,0
0,56,90,0
0,68,90,0
0,46,96,0
0,49,72,0
0,65,72,0
0,65,0,9
0,54,92,0
0,61,92,0
0,66,88,0
0,58,0,3
0,58,0,2
0,61,0,16
0,54,0,0
0,54,76,0
0,66,68,0
0,49,0,9
0,46,0,0
0,54,0,23
0,66,0,0
0,66,0,0
0,65,116,0
0,46,56,0
0,65,116,2
0,46,0,32
0,46,94,0
0,54,92,0
0,61,92,0
0,66,88,0
0,65,0,14
0,65,0,2
0,66,108,0
0,66,108,2
0,56,0,30
0,66,0,12
0,66,0,4
0,66,0,15
0,66,0,1
0,61,0,2
0,61,0,1
0,54,0,11
0,46,0,16
0,65,112,0
0,46,77,0
0,65,112,2
0,65,0,25
0,65,0,2
0,46,0,24
0,47,68,1
0,51,68,0
0,59,68,0
0,68,0,2
0,56,0,0
0,54,92,0
0,59,88,0
0,63,96,0
0,65,104,0
0,58,90,0
0,70,90,0
0,65,104,2
0,66,84,1
0,65,0,22
0,65,0,2
0,63,100,0
0,63,100,2
0,54,92,0
0,61,92,0
0,66,88,0
0,66,0,2
0,61,0,16
0,54,0,0
0,54,76,0
0,66,68,0
0,51,56,0
0,63,0,1
0,63,0,1
0,51,0,28
0,66,0,0
0,54,92,0
0,63,92,0
0,66,88,0
0,54,0,15
0,54,0,17
0,66,0,0
0,58,100,0
0,51,77,0
0,58,100,2
0,63,0,4
0,54,0,2
0,59,0,12
0,63,0,0
0,58,0,4
0,58,0,2
0,66,0,16
0,51,0,24
0,47,0,5
0,59,0,0
0,51,0,0
0,70,0,1
0,58,0,0
0,56,92,0
0,61,92,0
0,65,92,0
0,63,112,0
0,49,90,0
0,61,90,0
0,73,90,0
0,49,77,0
0,53,92,0
0,61,92,0
0,65,88,0
0,63,112,2
0,65,0,31
0,61,0,0
0,53,0,0
0,63,0,1
0,61,104,0
0,53,79,0
0,61,77,0
0,65,77,0
0,63,0,2
0,61,104,0
0,65,0,20
0,61,0,11
0,49,0,0
0,49,63,0
0,53,0,10
0,56,0,20
0,65,0,2
0,61,0,7
0,61,0,2
0,61,0,2
0,49,0,1
0,61,0,0
0,49,0,0
0,73,0,0
0,56,88,0
0,58,84,0
0,62,96,0
0,56,112,0
0,50,90,0
0,62,90,0
0,74,90,0
0,46,96,0
0,50,72,0
0,66,72,0
0,56,112,2
0,56,0,30
0,56,0,2
0,54,76,0
0,54,76,2
0,66,0,9
0,54,0,18
0,54,0,2
0,56,92,0
0,54,92,0
0,62,92,0
0,66,88,0
0,56,92,2
0,56,0,29
0,56,0,2
0,54,84,0
0,54,84,2
0,66,0,4
0,62,0,1
0,54,0,0
0,54,76,0
0,66,68,0
0,46,0,1
0,50,0,0
0,54,0,6
0,46,96,0
0,50,72,0
0,54,0,5
0,54,0,2
0,66,0,2
0,54,92,0
0,62,92,0
0,66,88,0
0,66,0,15
0,62,0,1
0,54,0,0
0,54,76,0
0,66,68,0
0,50,0,9
0,46,0,0
0,66,0,2
0,54,0,0
0,65,111,0
0,46,56,0
