track,note,velocity,time
0,42,96,0
0,42,100,92
0,42,100,92
0,42,104,92
0,69,64,92
0,61,56,0
0,76,58,0
0,73,58,0
0,88,64,0
0,81,54,240
0,93,54,0
0,66,56,3
0,73,58,0
0,78,62,0
0,58,52,0
0,90,62,0
0,73,64,24
0,85,52,0
0,74,56,10
0,86,62,0
0,76,64,47
0,88,64,0
0,66,46,5
0,74,62,0
0,59,58,0
0,86,66,0
0,73,52,9
0,71,64,5
0,73,54,12
0,66,54,0
0,57,52,0
0,85,56,0
0,71,60,87
0,69,62,5
0,64,66,8
0,71,58,0
0,56,46,0
0,83,54,0
0,62,50,41
0,71,60,0
0,67,54,0
0,52,54,0
0,74,46,0
0,86,68,0
0,71,56,1
0,59,56,0
0,73,54,33
0,61,46,0
0,74,46,1
0,62,60,0
0,69,60,11
0,62,72,0
0,54,44,0
0,74,50,0
0,86,76,0
0,62,64,9
0,74,60,0
0,86,68,0
0,76,62,1
0,64,58,0
0,88,64,0
0,66,39,9
0,78,62,0
0,90,64,0
0,78,76,19
0,74,64,0
0,57,66,0
0,71,60,0
0,66,62,0
0,90,66,0
0,78,58,0
0,64,58,12
0,76,58,0
0,76,31,0
0,88,56,0
0,57,58,18
0,76,64,0
0,64,58,0
0,69,37,0
0,73,54,0
0,76,56,0
0,88,68,0
0,35,3,336
0,38,18,0
0,45,18,0
0,35,13,44
0,38,31,0
0,45,29,0
0,62,97,20
0,35,22,24
0,38,44,0
0,45,39,0
0,35,32,44
0,38,57,0
0,45,49,0
0,35,42,44
0,38,70,0
0,45,59,0
0,35,51,18
0,38,83,0
0,38,64,2
0,38,95,9
0,26,82,44
0,62,58,0
0,66,78,0
0,69,62,0
0,35,85,0
0,42,95,0
0,49,84,0
0,42,66,12
0,69,76,20
0,42,79,0
0,69,76,0
0,42,69,5
0,38,95,20
0,42,95,0
0,54,115,0
0,74,64,44
0,33,76,24
0,35,62,0
0,42,31,0
0,38,90,6
0,35,85,0
0,42,95,0
0,68,86,0
0,33,86,0
0,42,66,0
0,68,70,0
0,26,76,2
0,81,68,0
0,35,69,0
0,42,79,0
0,42,67,2
0,68,76,0
0,38,95,6
0,42,93,0
0,54,115,0
0,33,74,10
0,76,66,0
0,35,85,0
0,35,76,20
0,42,37,0
0,36,94,10
0,60,42,0
0,64,70,0
0,67,70,0
0,42,95,0
0,42,64,20
0,36,78,20
0,42,81,0
0,42,71,20
0,38,95,1
0,42,95,0
0,54,115,0
0,35,90,3
0,59,58,0
0,62,66,0
0,67,58,0
0,35,61,22
0,42,38,0
0,35,85,20
0,42,95,0
0,68,52,0
0,42,60,20
0,68,66,0
0,42,95,10
0,42,69,5
0,68,78,0
0,38,95,1
0,42,95,0
0,54,115,0
0,33,76,9
0,74,50,0
0,67,70,0
0,35,78,5
0,76,64,0
0,42,72,0
0,26,94,3
0,62,70,0
0,66,74,0
0,69,58,0
0,78,66,0
0,35,85,0
0,42,95,0
0,42,66,20
0,42,79,20
0,42,69,19
0,38,95,20
0,42,95,0
0,54,115,0
0,33,78,3
0,35,59,0
0,42,31,0
0,38,94,1
0,35,85,0
0,42,95,0
0,68,86,0
0,33,76,0
0,42,66,0
0,68,64,0
0,26,90,10
0,35,64,0
0,42,79,0
0,42,67,1
0,68,82,0
0,38,95,5
0,42,93,0
0,54,115,0
0,33,70,3
0,35,85,0
0,35,76,5
0,42,37,0
0,36,86,20
0,60,54,0
0,64,56,0
0,67,56,0
0,42,95,0
0,42,64,7
0,36,86,20
0,42,81,0
0,42,71,11
0,38,95,4
0,42,95,0
0,54,115,0
0,35,90,2
0,59,52,0
0,62,56,0
0,67,52,0
0,35,62,1
0,42,38,0
0,69,64,15
0,71,48,0
0,74,48,0
0,35,85,0
0,42,95,0
0,68,72,0
0,42,60,1
0,68,70,0
0,33,94,3
0,35,72,0
0,55,44,0
0,67,44,0
0,42,95,0
0,42,69,9
0,68,78,0
0,38,95,8
0,42,95,0
0,54,115,0
0,33,102,6
0,59,32,0
0,62,32,0
0,67,76,1
0,46,75,0
0,26,82,4
0,62,78,0
0,66,74,0
0,69,70,0
0,62,6,0
0,66,32,0
0,69,34,0
0,35,85,0
0,42,95,0
0,42,66,20
0,69,88,20
0,42,79,0
0,42,69,6
0,38,95,20
0,42,95,0
0,54,115,0
0,74,64,44
0,33,76,24
0,35,62,0
0,42,31,0
0,38,90,6
0,35,85,0
0,42,95,0
0,68,62,0
0,33,86,0
0,42,66,0
0,68,66,0
0,26,76,2
0,81,72,0
0,35,69,0
0,42,79,0
0,42,67,0
0,68,82,0
0,38,95,6
0,42,93,0
0,54,115,0
0,33,74,44
0,76,68,0
0,35,85,0
0,35,76,1
0,42,37,0
0,36,94,1
0,60,52,0
0,64,66,0
0,67,66,0
0,42,95,0
0,42,64,6
0,36,78,5
0,42,81,0
0,42,71,8
0,38,95,0
0,42,95,0
0,54,115,0
0,35,90,4
0,59,48,0
0,62,66,0
0,67,58,0
0,74,64,0
0,35,61,24
0,42,38,0
0,35,85,20
0,42,95,0
0,68,90,0
0,42,60,0
0,68,64,0
0,42,95,1
0,42,69,19
0,68,76,0
0,38,95,2
0,42,95,0
0,54,115,0
0,33,76,17
0,71,66,0
0,67,74,0
0,72,66,0
0,35,78,4
0,42,72,0
0,71,64,0
0,26,94,0
0,62,66,0
0,66,78,0
0,69,58,0
0,69,62,0
0,35,85,0
0,42,95,0
0,42,66,20
0,42,79,20
0,42,69,19
0,38,95,20
0,42,95,0
0,54,115,0
0,71,54,0
0,71,46,2
0,72,50,0
0,69,42,4
0,33,78,7
0,35,59,0
0,42,31,0
0,38,94,1
0,35,85,0
0,42,95,0
0,68,72,0
0,33,76,0
0,42,66,0
0,68,68,0
0,26,90,0
0,71,40,0
0,35,64,0
0,42,79,0
0,72,38,0
0,42,67,1
0,68,78,0
0,71,36,0
0,69,34,0
0,38,95,0
0,42,93,0
0,54,115,0
0,33,70,7
0,35,85,0
0,35,76,0
0,42,37,0
0,36,86,20
0,60,58,0
0,64,56,0
0,67,66,0
0,42,95,0
0,42,64,4
0,36,86,20
0,42,81,0
0,42,71,20
0,38,95,12
0,42,95,0
0,54,115,0
0,35,90,0
0,59,54,0
0,62,56,0
0,67,58,0
0,35,62,2
0,42,38,0
0,69,60,1
0,71,12,0
0,74,42,0
0,35,85,0
0,42,95,0
0,68,76,0
0,42,60,4
0,68,62,0
0,33,94,20
0,35,72,0
0,55,52,0
0,67,54,0
0,42,95,0
0,38,66,3
0,42,69,0
0,68,78,0
0,38,95,20
0,42,95,0
0,54,115,0
0,33,102,12
0,38,95,24
0,67,70,0
0,46,75,0
0,69,42,3
0,26,82,0
0,78,93,0
0,62,58,0
0,66,78,0
0,69,62,0
0,62,44,0
0,66,42,0
0,69,46,0
0,35,85,0
0,42,95,0
0,42,66,20
0,81,71,15
0,69,44,0
0,81,39,0
0,42,79,0
0,42,69,0
0,81,85,20
0,69,62,0
0,81,68,0
0,38,95,0
0,42,95,0
0,54,115,0
0,78,65,16
0,69,92,0
0,81,88,0
0,33,76,4
0,35,62,0
0,42,31,0
0,38,90,6
0,81,89,0
0,69,102,0
0,81,92,0
0,35,85,0
0,42,95,0
0,33,86,0
0,42,66,0
0,26,76,2
0,69,36,0
0,81,32,0
0,35,69,0
0,42,79,0
0,42,67,1
0,81,43,1
0,81,23,0
0,69,29,0
0,38,95,0
0,42,93,0
0,54,115,0
0,33,74,10
0,81,93,0
0,69,25,0
0,35,85,0
0,35,76,1
0,42,37,0
0,36,94,2
0,60,42,0
0,64,70,0
0,67,70,0
0,42,95,0
0,42,64,0
0,36,78,17
0,79,77,0
0,42,81,0
0,42,71,10
0,38,95,17
0,42,95,0
0,54,115,0
0,35,90,41
0,59,58,0
0,62,66,0
0,67,58,0
0,35,61,24
0,42,38,0
0,79,97,20
0,35,85,0
0,42,95,0
0,42,60,20
0,83,81,4
0,42,95,0
0,42,69,20
0,38,95,4
0,42,95,0
0,54,115,0
0,33,76,44
0,81,93,0
0,35,78,3
0,42,72,0
0,26,94,1
0,62,70,0
0,66,74,0
0,69,58,0
0,35,85,0
0,42,95,0
0,42,66,20
0,69,50,20
0,81,50,0
0,42,79,0
0,42,69,1
0,69,66,1
0,81,80,0
0,38,95,0
0,42,95,0
0,54,115,0
0,81,97,16
0,69,92,0
0,33,78,1
0,35,59,0
0,42,31,0
0,38,94,2
0,74,60,0
0,69,84,0
0,81,97,0
0,35,85,0
0,42,95,0
0,33,76,0
0,42,66,0
0,26,90,17
0,69,60,0
0,81,62,0
0,35,64,0
0,42,79,0
0,42,67,2
0,69,34,11
0,81,25,0
0,38,95,0
0,42,93,0
0,54,115,0
0,33,70,18
0,69,31,0
0,81,20,0
0,35,85,0
0,35,76,1
0,42,37,0
0,36,86,13
0,60,54,0
0,64,56,0
0,67,56,0
0,42,95,0
0,42,64,20
0,36,86,20
0,42,81,0
0,42,71,20
0,38,95,12
0,42,95,0
0,54,115,0
0,35,90,2
0,59,52,0
0,62,56,0
0,67,52,0
0,35,62,24
0,42,38,0
0,35,85,20
0,42,95,0
0,42,60,1
0,33,94,3
0,35,72,0
0,78,81,0
0,55,78,0
0,67,70,0
0,42,95,0
0,42,69,9
0,79,69,2
0,38,95,0
0,42,95,0
0,54,115,0
0,33,102,12
0,59,56,0
0,62,70,0
0,81,89,14
0,46,75,3
0,26,82,4
0,62,78,0
0,66,74,0
0,69,70,0
0,35,85,0
0,42,95,0
0,42,66,20
0,81,71,20
0,81,50,0
0,69,52,0
0,42,79,0
0,42,69,2
0,81,85,20
0,69,72,0
0,81,72,0
0,38,95,0
0,42,95,0
0,54,115,0
0,81,77,19
0,69,62,0
0,81,88,0
0,33,76,6
0,35,62,0
0,42,31,0
0,38,90,6
0,81,85,0
0,74,58,0
0,81,92,0
0,69,88,0
0,35,85,0
0,42,95,0
0,33,86,0
0,42,66,0
0,26,76,2
0,81,69,0
0,81,52,0
0,69,54,0
0,35,69,0
0,42,79,0
0,42,67,0
0,81,69,6
0,69,28,0
0,38,95,0
0,42,93,0
0,54,115,0
0,33,74,33
0,81,93,0
0,69,18,0
0,81,19,0
0,35,85,0
0,35,76,1
0,42,37,0
0,36,94,10
0,60,52,0
0,64,66,0
0,67,66,0
0,42,95,0
0,42,64,20
0,36,78,20
0,42,81,0
0,42,71,1
0,81,71,17
0,38,95,0
0,42,95,0
0,54,115,0
0,35,90,2
0,79,65,0
0,59,48,0
0,62,66,0
0,67,58,0
0,35,61,7
0,42,38,0
0,79,77,20
0,35,85,0
0,42,95,0
0,42,60,20
0,83,77,1
0,42,95,0
0,42,69,7
0,38,95,4
0,42,95,0
0,54,115,0
0,33,76,2
0,83,85,0
0,35,78,4
0,42,72,0
0,26,94,3
0,81,69,0
0,62,66,0
0,66,78,0
0,69,58,0
0,35,85,0
0,42,95,0
0,42,66,14
0,69,39,20
0,81,44,0
0,42,79,0
0,42,69,1
0,81,80,0
0,69,66,0
0,38,95,0
0,42,95,0
0,54,115,0
0,74,44,2
0,81,92,0
0,69,84,0
0,33,78,4
0,35,59,0
0,42,31,0
0,38,94,4
0,69,88,0
0,81,92,0
0,35,85,0
0,42,95,0
0,33,76,0
0,42,66,0
0,26,90,12
0,69,52,0
0,81,48,0
0,35,64,0
0,42,79,0
0,42,67,6
0,81,8,11
0,69,18,0
0,38,95,0
0,42,93,0
0,54,115,0
0,33,70,7
0,81,13,0
0,69,22,0
0,35,85,0
0,35,76,0
0,42,37,0
0,36,86,0
0,60,58,0
0,64,56,0
0,67,66,0
0,42,95,0
0,42,64,8
0,36,86,20
0,42,81,0
0,42,71,20
0,38,95,12
0,42,95,0
0,54,115,0
0,35,90,8
0,59,54,0
0,62,56,0
0,67,58,0
0,35,62,24
0,42,38,0
0,35,85,20
0,42,95,0
0,42,60,4
0,33,94,20
0,35,72,0
0,81,89,0
0,55,52,0
0,67,54,0
0,42,95,0
0,42,69,2
0,38,95,20
0,42,95,0
0,54,115,0
0,33,102,12
0,83,93,24
0,46,75,1
0,26,82,4
0,62,58,0
0,66,78,0
0,69,62,0
0,35,85,0
0,42,95,0
0,42,66,20
0,81,69,1
0,69,44,0
0,81,39,0
0,42,79,0
0,42,69,0
0,81,85,20
0,69,62,0
0,81,68,0
0,38,95,0
0,42,95,0
0,54,115,0
0,78,77,16
0,69,92,0
0,81,88,0
0,33,76,18
0,35,62,0
0,42,31,0
0,38,90,6
0,81,93,0
0,69,102,0
0,81,92,0
0,35,85,0
0,42,95,0
0,33,86,0
0,42,66,0
0,26,76,2
0,69,36,0
0,81,32,0
0,35,69,0
0,42,79,0
0,42,67,2
0,81,23,6
0,69,29,0
0,38,95,0
0,42,93,0
0,54,115,0
0,33,74,1
0,83,89,0
0,69,25,0
0,35,85,0
0,35,76,2
0,42,37,0
0,36,94,10
0,60,42,0
0,64,70,0
0,67,70,0
0,42,95,0
0,42,64,20
0,36,78,0
0,81,67,0
0,42,81,0
0,42,71,9
0,81,85,17
0,38,95,0
0,42,95,0
0,54,115,0
0,35,90,1
0,78,69,0
0,59,58,0
0,62,66,0
0,67,58,0
0,35,61,24
0,42,38,0
0,81,85,20
0,35,85,0
0,42,95,0
0,42,60,20
0,42,95,1
0,42,69,5
0,38,95,4
0,42,95,0
0,54,115,0
0,33,76,1
0,83,97,0
0,35,78,5
0,42,72,0
0,26,94,3
0,62,70,0
0,66,74,0
0,69,58,0
0,35,85,0
0,42,95,0
0,42,66,20
0,81,67,20
0,69,50,0
0,81,50,0
0,42,79,0
0,42,69,2
0,81,89,20
0,69,66,0
0,81,80,0
0,38,95,0
0,42,95,0
0,54,115,0
0,78,55,0
0,81,97,0
0,69,92,0
0,33,78,1
0,35,59,0
0,42,31,0
0,38,94,4
0,81,71,0
0,74,60,0
0,69,84,0
0,81,97,0
0,35,85,0
0,42,95,0
0,33,76,0
0,42,66,0
0,26,90,3
0,78,73,0
0,69,60,0
0,81,62,0
0,35,64,0
0,42,79,0
0,42,67,2
0,69,34,11
0,81,25,0
0,38,95,0
0,42,93,0
0,54,115,0
0,33,70,18
0,76,89,0
0,69,31,0
0,81,20,0
0,35,85,0
0,35,76,7
0,42,37,0
0,36,86,1
0,74,59,0
0,60,54,0
0,64,56,0
0,67,56,0
0,42,95,0
0,42,64,20
0,36,86,1
0,42,81,0
0,42,71,1
0,38,95,2
0,42,95,0
0,54,115,0
0,35,90,2
0,59,52,0
0,62,56,0
0,67,52,0
0,35,62,1
0,42,38,0
0,35,85,1
0,42,95,0
0,42,60,1
0,33,94,3
0,35,72,0
0,81,89,0
0,55,78,0
0,67,70,0
0,42,95,0
0,42,69,8
0,81,93,20
0,38,95,0
0,42,95,0
0,54,115,0
0,33,102,2
0,59,56,0
0,62,70,0
0,83,97,1
0,46,75,1
0,26,82,4
0,62,78,0
0,66,74,0
0,69,70,0
0,35,85,0
0,42,95,0
0,42,66,20
0,81,69,20
0,81,50,0
0,69,52,0
0,42,79,0
0,42,69,2
0,81,89,20
0,69,72,0
0,81,72,0
0,38,95,0
0,42,95,0
0,54,115,0
0,78,71,19
0,69,62,0
0,81,88,0
0,33,76,22
0,35,62,0
0,42,31,0
0,38,90,6
0,81,81,0
0,74,58,0
0,81,92,0
0,69,88,0
0,35,85,0
0,42,95,0
0,33,86,0
0,42,66,0
0,26,76,2
0,81,52,0
0,69,54,0
0,35,69,0
0,42,79,0
0,42,67,0
0,69,28,6
0,38,95,0
0,42,93,0
0,54,115,0
0,33,74,1
0,83,77,0
0,69,18,0
0,81,19,0
0,35,85,0
0,35,76,1
0,42,37,0
0,36,94,10
0,60,52,0
0,64,66,0
0,67,66,0
0,42,95,0
0,42,64,20
0,36,78,5
0,81,77,0
0,42,81,0
0,42,71,2
0,81,93,17
0,38,95,0
0,42,95,0
0,54,115,0
0,35,90,11
0,78,71,0
0,59,48,0
0,62,66,0
0,67,58,0
0,35,61,23
0,42,38,0
0,81,77,6
0,35,85,0
0,42,95,0
