track,note,velocity,time
1,76,47,8432
1,76,56,42
1,78,86,246
1,78,76,40
1,79,55,318
1,79,56,60
1,83,89,2
1,88,73,64
1,86,100,28
1,88,76,32
1,86,45,2270
1,84,45,1594
1,83,49,530
1,81,18,2
1,83,43,116
1,81,61,18
1,79,100,2
1,78,59,128
1,76,103,198
1,76,61,48
1,76,58,60
1,78,83,266
1,78,68,40
1,79,41,336
1,79,52,54
1,83,79,294
1,88,86,76
1,86,110,32
1,88,86,36
1,90,98,56
1,91,84,32
1,93,94,56
1,91,100,58
1,90,84,68
1,88,55,16
1,86,77,18
1,84,113,102
1,83,107,28
1,81,107,428
1,82,62,254
1,83,43,2
1,82,119,1024
1,83,110,4
1,81,100,562
1,79,94,6
1,87,119,636
1,88,91,2
1,86,98,1148
1,86,71,50
1,84,76,12
1,84,52,44
1,83,52,6
1,84,36,28
1,81,55,0
1,79,47,156
1,78,42,616
1,86,80,600
1,84,119,890
1,84,97,66
1,83,53,20
1,83,44,38
1,81,20,0
1,83,42,6
1,83,91,110
1,81,118,64
1,79,77,20
1,91,114,118
1,90,103,1214
1,90,71,38
1,88,91,302
1,88,76,40
1,88,63,70
1,88,83,78
1,86,107,326
1,81,73,36
1,81,94,136
1,83,107,102
1,81,110,30
1,83,98,36
1,82,81,1388
1,83,80,4
1,84,55,2
1,81,110,24
1,79,107,24
1,78,75,20
1,76,110,16
1,76,59,40
1,76,60,58
1,78,100,14
1,78,73,34
1,79,73,292
1,79,65,52
1,83,100,0
1,88,77,72
1,86,114,44
1,88,89,46
1,90,103,48
1,91,79,26
1,93,84,70
1,91,72,76
1,90,91,52
1,88,58,16
1,86,98,22
1,84,119,6
1,83,110,36
1,81,107,6
1,82,38,250
1,83,56,4
1,83,107,104
1,81,103,80
1,79,107,36
1,78,100,52
1,76,73,38
1,76,58,50
1,76,44,34
1,78,91,304
1,78,79,44
1,79,53,304
1,79,53,72
1,83,110,2
1,88,103,76
1,86,110,42
1,88,86,36
1,90,103,56
1,91,84,34
1,93,80,64
1,91,91,56
1,90,86,58
1,88,56,8
1,86,103,22
1,84,119,22
1,83,94,48
1,81,103,4
1,82,55,282
1,83,61,44
1,82,91,1192
1,83,94,8
1,81,103,26
1,79,107,8
1,87,126,666
1,88,114,2
1,86,107,1142
1,86,75,42
1,84,102,232
1,84,74,50
1,83,66,0
1,84,74,36
1,81,107,20
1,79,79,42
1,78,68,10
1,86,107,652
1,84,107,10
1,84,84,56
1,82,44,140
1,83,58,16
1,83,60,42
1,81,44,2
1,83,76,0
1,83,91,130
1,81,107,50
1,79,98,22
1,91,103,2
1,90,71,8
1,90,100,920
1,90,47,24
1,88,107,302
1,88,84,42
1,88,103,202
1,88,91,76
1,86,100,6
1,93,107,8
1,93,100,140
1,95,84,152
1,93,83,20
1,95,91,24
1,93,62,2844
1,91,100,598
1,90,89,586
1,88,118,588
2,40,102,626
2,43,102,26
2,47,70,28
2,52,54,54
2,59,54,236
2,55,70,78
2,40,102,184
2,40,102,182
2,43,70,76
2,52,102,156
2,40,70,234
2,40,102,158
2,40,70,210
2,40,102,106
2,40,102,182
2,43,70,78
2,52,102,155
2,33,70,232
2,33,102,156
2,33,70,208
2,38,102,132
2,38,102,132
2,48,102,132
2,50,70,232
2,43,70,262
2,43,102,158
2,43,70,210
2,35,70,2
2,35,70,26
2,40,102,104
2,40,102,182
2,43,70,76
2,52,102,156
2,33,70,234
2,33,102,156
2,33,70,208
2,33,102,106
2,38,102,0
2,38,102,132
2,48,102,132
2,50,70,236
2,43,70,208
2,43,102,156
2,43,102,158
2,40,102,780
2,40,102,236
2,40,102,234
2,43,102,78
2,52,70,130
2,33,102,54
2,33,102,182
2,33,102,234
2,33,102,78
2,38,102,0
2,38,102,234
2,38,102,234
2,48,102,78
2,50,70,76
2,43,102,106
2,43,102,182
2,43,102,236
2,35,102,2
2,40,102,80
2,40,102,234
2,40,102,234
2,43,102,78
2,52,70,78
2,40,102,52
2,33,102,0
2,33,102,182
2,33,102,234
2,38,102,80
2,38,102,234
2,38,102,234
2,48,102,80
2,45,70,78
2,35,102,54
2,35,102,184
2,35,102,232
2,35,102,78
2,35,102,2
2,35,102,234
2,40,102,780
2,40,102,234
2,40,102,234
2,43,102,78
2,52,70,78
2,33,102,54
2,33,102,182
2,33,102,236
2,33,102,2
2,38,102,78
2,38,102,234
2,38,102,232
2,48,102,78
2,50,70,78
2,43,102,54
2,43,102,182
2,43,102,234
2,35,102,2
2,35,102,2
2,40,102,80
2,40,102,236
2,40,102,234
2,43,102,80
2,52,70,78
2,33,102,52
2,33,102,182
2,33,102,234
2,33,102,2
2,38,102,76
2,38,102,234
2,38,102,236
2,48,102,78
2,50,70,78
2,43,102,52
2,43,102,184
2,43,102,2
2,43,102,2
2,40,102,780
2,40,102,234
2,40,102,234
2,43,102,78
2,52,70,128
2,33,102,56
2,33,102,180
2,33,102,236
2,33,102,2
2,33,102,80
2,38,102,2
2,38,102,236
2,38,102,232
2,48,102,78
2,50,70,78
2,43,102,52
2,43,102,182
2,43,102,234
2,35,102,2
2,35,102,2
2,35,102,78
2,40,102,2
2,40,102,234
2,40,102,234
2,43,102,80
2,52,70,78
2,40,102,54
2,33,102,2
2,33,102,184
2,33,102,234
2,33,102,2
2,38,102,80
2,38,102,234
2,38,102,234
2,48,102,78
2,54,70,80
2,42,102,54
2,33,102,2
2,35,102,2
2,35,102,182
2,35,102,234
2,35,102,80
2,35,102,236
2,35,102,236
2,45,102,78
2,47,70,78
2,40,102,52
2,40,102,184
2,40,102,232
2,40,102,82
2,40,70,234
2,45,70,260
2,33,102,52
2,40,70,54
2,52,102,26
3,55,24,8046
3,64,21,8
3,59,29,2
3,57,28,290
3,60,28,4
3,66,24,198
3,62,31,8
3,59,44,310
3,67,30,6
3,57,11,228
3,55,26,6
3,63,40,6
3,66,22,4
3,55,27,212
3,64,17,2
3,57,34,270
3,60,33,6
3,62,33,200
3,66,35,8
3,59,39,172
3,67,36,2
3,55,11,248
3,64,19,8
3,57,19,360
3,60,33,8
3,62,34,112
3,66,54,10
3,67,34,200
3,59,42,2
3,55,34,278
3,64,26,16
3,57,21,272
3,60,36,10
3,66,31,120
3,62,23,12
3,59,51,250
3,63,67,18
3,64,19,168
3,55,31,4
3,57,24,296
3,60,33,2
3,62,29,278
3,66,35,0
3,62,11,96
3,67,25,10
3,59,26,4
3,59,30,192
3,57,28,0
3,66,15,4
3,63,33,4
3,55,24,226
3,64,15,2
3,57,36,248
3,60,39,10
3,62,37,256
3,66,44,4
3,67,27,276
3,59,35,0
3,55,27,282
3,64,18,2
3,57,22,372
3,60,36,8
3,66,40,314
3,62,29,8
3,67,20,248
3,59,41,12
3,66,11,88
3,57,18,0
3,59,36,12
3,63,36,4
3,55,47,126
3,64,28,4
3,57,33,318
3,60,41,8
3,66,40,262
3,62,42,0
3,57,12,362
3,59,12,8
3,63,12,22
3,59,18,66
3,55,39,2
3,64,17,2
4,59,49,3122
4,67,49,0
4,64,49,0
4,52,49,0
4,64,49,212
4,67,49,0
4,71,49,0
4,59,48,264
4,67,48,0
4,64,48,0
4,52,48,0
4,64,48,206
4,60,48,0
4,57,48,0
4,66,47,262
4,62,47,0
4,60,47,2
4,54,47,0
4,62,47,524
4,74,47,0
4,67,47,0
4,55,47,0
4,52,46,1402
4,64,46,0
4,67,46,0
4,59,46,0
4,57,46,212
4,60,46,0
4,64,46,0
4,45,45,260
4,57,45,0
4,60,58,0
4,62,54,2466
4,74,54,0
4,67,54,0
4,55,54,2
4,71,49,1300
4,59,49,0
4,64,49,0
4,67,49,2
4,64,49,26
4,67,49,0
4,59,49,0
4,71,49,2
4,60,49,286
4,57,49,2
4,52,49,0
4,64,49,0
4,60,48,26
4,52,48,2
4,57,48,0
4,64,48,0
4,57,48,28
4,60,48,2
4,62,48,1218
4,66,48,0
4,60,48,0
4,69,48,4
4,74,48,104
4,62,48,0
4,67,48,0
4,71,48,0
4,67,48,26
4,74,48,0
4,71,48,0
4,62,48,2
4,67,47,206
4,64,47,0
4,59,47,0
4,71,47,0
4,59,47,28
4,67,47,0
4,64,47,2
4,71,47,0
4,64,47,182
4,52,47,1220
4,57,47,0
4,64,47,0
4,60,47,0
4,66,47,50
4,62,47,0
4,60,47,0
4,69,47,0
4,69,46,26
4,62,46,0
4,66,46,0
4,60,46,0
4,63,46,184
4,59,46,0
4,57,46,2
4,66,46,0
4,69,46,26
4,59,46,0
4,66,46,0
4,63,46,0
4,63,46,26
4,59,46,0
4,57,46,0
4,66,46,0
4,67,49,22234
4,64,49,0
4,59,49,0
4,71,49,0
4,59,49,26
4,67,49,2
4,64,49,0
4,71,49,2
4,60,49,290
4,57,49,0
4,52,49,2
4,64,49,0
4,60,49,26
4,64,49,0
4,57,49,0
4,52,49,2
4,57,49,210
4,60,49,0
4,69,49,1216
4,62,49,0
4,66,49,0
4,60,49,0
4,67,48,180
4,71,48,0
4,74,48,2
4,62,48,0
4,62,48,26
4,67,48,0
4,74,48,0
4,71,48,0
4,59,48,802
4,71,48,1220
4,64,48,0
4,67,48,0
4,59,48,0
4,64,48,208
4,52,47,1220
4,57,47,0
4,64,47,0
4,60,47,0
4,69,47,182
4,60,47,2
4,62,47,0
4,66,47,0
4,66,47,26
4,60,47,0
4,69,47,2
4,62,47,0
4,66,47,232
4,69,47,1192
4,59,47,0
4,66,47,0
4,63,47,0
4,66,46,28
4,57,46,0
4,59,46,0
4,63,46,2
4,66,46,26
4,59,46,0
4,63,46,0
4,57,46,0
4,71,46,206
4,59,46,0
4,64,46,0
4,67,46,0
4,59,46,24
4,64,46,0
4,71,46,0
4,67,46,0
4,67,46,30
4,59,46,0
4,64,46,2
4,71,46,0
4,66,46,286
4,71,46,0
4,64,46,0
4,60,46,0
4,59,45,312
4,66,45,0
4,61,45,2
4,55,45,0
5,55,55,3430
5,59,39,154
5,64,47,0
5,67,55,468
5,64,39,26
5,59,39,54
5,55,55,78
5,59,15,156
5,64,31,156
5,67,55,156
5,59,55,80
5,64,39,152
5,67,31,156
5,71,55,156
5,55,55,676
5,59,39,156
5,64,47,0
5,67,55,468
5,64,39,26
5,59,39,56
5,48,55,520
5,52,15,154
5,57,31,156
5,60,55,156
5,52,55,0
5,57,39,152
5,60,31,156
5,64,55,156
5,57,55,674
5,60,31,156
5,62,55,310
5,66,55,0
5,60,31,232
5,62,47,24
5,69,55,312
5,59,47,570
5,62,39,154
5,67,47,314
5,78,55,158
5,63,7,182
5,66,31,154
5,71,55,312
5,55,55,622
5,59,39,156
5,64,47,0
5,67,55,468
5,64,39,26
5,59,39,52
5,48,55,492
5,52,15,156
5,57,31,156
5,60,55,156
5,52,55,0
5,57,39,156
5,60,31,156
5,64,55,154
5,57,55,676
5,60,31,156
5,62,55,310
5,66,55,0
5,60,31,234
5,62,47,26
5,69,55,312
5,59,47,390
5,62,39,154
5,67,47,312
5,67,55,48
5,59,23,420
5,64,15,28
5,67,7,310
5,71,15,0
5,76,7,308
5,69,15,626
5,57,15,778
5,69,7,158
5,64,15,0
5,60,7,0
5,57,15,312
5,62,15,468
5,69,7,262
5,72,15,260
5,62,7,2594
5,67,15,30
5,74,15,26
5,71,7,52
5,74,15,26
5,59,23,392
5,64,15,28
5,67,7,312
5,71,15,0
5,76,7,308
5,57,15,1712
5,69,7,156
5,64,15,0
5,60,7,0
5,57,15,312
5,74,15,158
5,62,15,52
5,69,7,260
5,72,15,262
5,63,7,1816
5,66,15,260
5,69,7,260
5,71,23,884
5,71,15,546
5,59,23,22234
5,64,15,26
5,67,7,310
5,71,15,0
5,76,7,306
5,69,15,626
5,57,15,778
5,69,7,162
5,64,15,0
5,60,7,0
5,57,15,310
5,62,15,516
5,69,7,260
5,72,15,260
5,62,7,2594
5,67,15,26
5,74,15,24
5,71,23,212
5,71,15,544
5,64,15,284
5,67,7,312
5,71,15,0
5,76,7,310
5,57,15,1712
5,69,7,158
5,64,15,0
5,60,7,0
5,57,15,312
5,74,15,180
5,62,15,52
5,69,7,260
5,72,15,262
5,63,7,1816
5,66,15,258
5,69,7,262
5,71,23,882
5,71,15,552
5,59,15,52
5,66,7,258
5,69,15,260
5,76,15,1504
5,64,15,778
5,76,7,154
5,71,15,0
5,67,7,0
5,64,15,312
5,52,55,158
5,59,55,152
5,64,47,158
5,67,55,26
5,71,55,312
5,71,55,158
5,64,39,0
5,60,47,0
5,69,55,466
5,64,63,0
5,55,55,238
5,59,47,150
5,61,39,156
5,66,55,314
6,54,50,48274
6,57,58,312
6,69,90,0
6,66,90,0
6,59,90,0
6,63,90,0
6,76,50,650
6,59,50,52
6,64,50,312
6,67,58,312
6,64,58,26
6,59,50,28
6,45,50,210
6,52,50,308
6,57,58,52
6,60,58,312
6,64,58,598
6,69,58,622
6,74,50,232
6,57,50,26
6,60,58,312
6,66,58,312
6,55,50,262
6,62,58,310
6,67,58,312
6,71,58,286
6,66,58,594
6,76,50,156
6,59,50,52
6,64,50,312
6,67,58,312
6,64,58,26
6,59,50,28
6,45,50,186
6,52,50,306
6,57,58,52
6,60,58,312
6,64,58,598
6,69,58,622
6,74,50,176
6,57,50,24
6,60,58,312
6,66,58,312
6,55,50,262
6,62,58,310
6,67,58,312
6,71,58,290
7,69,79,626
7,69,23,414
7,69,111,104
7,43,31,388
7,42,127,0
7,43,63,102
7,42,87,0
7,43,127,104
7,46,79,0
7,42,111,104
7,36,55,104
7,42,95,0
7,36,127,104
7,42,95,0
7,42,127,234
7,36,127,0
7,42,79,208
7,42,127,156
7,37,127,0
7,42,79,182
7,36,95,0
7,42,79,210
7,42,79,234
7,42,127,234
7,37,127,0
7,42,79,232
7,42,127,182
7,36,127,0
7,42,79,234
7,37,127,180
7,42,127,2
7,36,95,130
7,42,79,2
7,42,87,208
7,36,127,0
7,42,79,234
7,42,127,104
7,37,127,0
7,42,79,26
7,42,127,234
7,36,127,0
7,42,79,208
7,42,127,156
7,37,127,0
7,42,79,182
7,36,95,0
7,42,79,208
7,42,79,232
7,42,127,234
7,37,127,0
7,42,79,234
7,42,127,180
7,36,127,0
7,42,79,232
7,42,127,182
7,37,127,0
7,42,79,130
7,36,95,0
7,42,87,206
7,36,127,0
7,42,79,234
7,42,127,104
7,37,127,0
7,42,79,26
7,42,127,234
7,36,127,0
7,42,79,208
7,42,127,154
7,37,127,0
7,42,79,182
7,36,95,0
7,42,79,208
7,42,79,234
7,42,127,232
7,37,127,0
7,42,79,234
7,42,127,182
7,36,127,0
7,42,79,234
7,37,127,182
7,42,127,2
7,42,79,130
7,36,95,0
7,42,87,208
7,36,127,0
7,42,79,232
7,42,127,104
7,37,127,0
7,42,79,26
7,36,127,232
7,42,127,2
7,42,79,208
7,42,127,156
7,37,127,0
7,42,79,182
7,36,95,0
7,42,79,206
7,42,79,234
7,42,127,234
7,37,127,0
7,42,79,232
7,42,127,180
7,36,127,0
7,42,79,234
7,42,127,182
7,37,127,0
7,42,79,130
7,36,95,0
7,42,87,208
7,36,127,0
7,42,79,234
7,37,127,102
7,42,127,2
7,42,79,26
7,42,127,234
7,36,127,0
7,42,79,208
7,37,127,156
7,42,127,2
7,42,79,182
7,36,95,0
7,42,79,208
7,42,79,234
7,42,127,234
7,37,127,0
7,42,79,234
7,42,127,182
7,36,127,0
7,42,79,234
7,42,127,182
7,37,127,0
7,36,95,128
7,42,79,2
7,38,127,208
7,42,127,0
7,47,127,312
7,43,87,154
7,43,127,104
7,42,127,26
7,36,127,0
7,42,79,234
7,42,127,234
7,38,111,0
7,36,95,180
7,42,79,2
7,42,127,234
7,36,127,0
7,42,79,104
7,42,127,260
7,38,111,0
7,46,47,52
7,42,127,286
7,36,127,0
7,42,79,50
7,38,111,258
7,42,127,2
7,42,79,234
7,36,95,0
7,42,127,234
7,36,127,0
7,42,79,180
7,38,111,260
7,42,127,2
7,42,79,130
7,42,127,262
7,36,127,0
7,42,79,234
7,38,111,236
7,42,127,0
7,42,79,182
7,36,95,0
7,42,127,232
7,36,127,0
