track,note,velocity,time
1,73,77,10
1,71,77,98
1,76,95,4260
1,72,86,0
1,74,77,12
1,71,68,0
1,74,86,70
1,71,68,0
1,69,64,32
1,72,56,0
1,72,86,38
1,76,77,0
1,71,68,8
1,74,68,0
1,74,86,58
1,71,86,0
1,76,86,2884
1,72,95,0
1,74,56,14
1,71,64,0
1,74,64,66
1,71,60,0
1,72,68,34
1,69,56,0
1,76,68,48
1,72,68,0
1,71,77,4
1,74,86,0
1,73,77,13678
1,71,77,98
1,76,95,4260
1,72,86,0
1,74,77,12
1,71,68,0
1,74,86,70
1,71,68,0
1,69,64,32
1,72,56,0
1,72,86,38
1,76,77,0
1,71,68,8
1,74,68,0
1,74,86,58
1,71,86,0
1,76,86,2884
1,72,95,0
1,74,56,14
1,71,64,0
1,74,64,66
1,71,60,0
1,72,68,34
1,69,56,0
1,76,68,48
1,72,68,0
1,71,77,4
1,74,86,0
1,57,86,2518
1,61,86,0
1,57,86,96
1,59,95,0
1,57,95,198
1,59,86,42
1,57,86,0
1,57,95,124
1,61,95,0
1,57,95,84
1,69,68,2022
1,57,64,0
1,69,77,122
1,57,68,0
1,57,68,52
1,69,68,0
1,57,68,130
1,69,68,0
1,69,77,132
1,57,77,0
1,64,68,188
1,71,56,0
1,59,44,0
1,64,68,32
1,59,52,0
1,71,60,0
1,59,68,58
1,64,86,0
1,71,77,0
1,71,68,140
1,68,77,0
1,59,77,0
1,68,64,124
1,71,77,0
1,59,77,0
1,71,77,50
1,59,77,0
1,68,77,0
1,59,77,120
1,71,86,0
1,68,77,0
1,68,60,140
1,71,77,0
1,59,77,0
1,59,77,54
1,68,77,0
1,71,77,0
1,68,86,100
1,66,64,2
1,66,60,80
1,64,77,4
1,68,77,42
1,66,68,26
1,66,86,76
1,64,86,14
1,71,86,1238
1,74,86,0
1,69,86,0
1,72,77,1318
1,76,77,0
1,71,64,0
1,74,77,0
1,74,77,64
1,71,77,0
1,72,60,120
1,69,60,0
1,76,77,72
1,72,68,0
1,74,68,120
1,71,64,0
1,71,77,74
1,74,77,0
1,72,77,120
1,69,68,0
1,71,86,1278
1,74,86,0
1,69,86,0
1,72,77,1302
1,76,77,0
1,71,60,0
1,74,64,0
1,74,68,72
1,71,64,0
1,72,64,120
1,69,64,0
1,76,95,76
1,72,86,0
1,74,77,14
1,71,68,0
1,71,86,1420
1,74,86,0
1,69,86,0
1,72,77,1318
1,76,77,0
1,71,64,0
1,74,77,0
1,74,77,64
1,71,77,0
1,72,60,120
1,69,60,0
1,76,77,72
1,72,68,0
1,74,68,120
1,71,64,0
1,71,77,74
1,74,77,0
1,72,77,120
1,69,68,0
1,71,86,1278
1,74,86,0
1,69,86,0
1,72,77,1302
1,76,77,0
1,71,60,0
1,74,64,0
1,74,68,72
1,71,64,0
1,72,64,120
1,69,64,0
1,76,95,76
1,72,86,0
1,74,77,14
1,71,68,0
1,76,77,22180
1,74,68,0
1,74,68,72
1,72,68,8
1,76,68,50
1,74,64,2
1,74,95,66
1,76,68,2886
1,74,64,0
1,74,68,74
1,72,64,2
1,76,68,56
1,74,68,10
2,45,80,6
2,50,93,60
2,52,84,20
2,50,80,20
2,52,84,20
2,57,84,20
2,52,72,20
2,57,76,20
2,62,80,20
2,57,84,20
2,62,80,20
2,64,93,20
2,62,93,20
2,64,84,20
2,67,93,20
2,69,93,20
2,76,93,6
2,73,102,0
2,69,102,0
2,76,93,1784
2,73,102,0
2,69,102,0
2,76,93,1784
2,73,102,0
2,69,102,0
2,76,93,1784
2,73,102,0
2,69,102,0
2,76,93,1784
2,73,102,0
2,69,102,0
2,76,93,3704
2,73,102,0
2,69,102,0
2,76,93,3704
2,73,102,0
2,69,102,0
2,62,93,7544
2,55,102,0
2,57,102,0
2,55,93,32
2,57,102,0
2,62,93,0
2,57,111,44
2,62,111,0
2,55,102,0
2,55,93,710
2,57,102,0
2,62,102,0
2,55,93,24
2,57,102,0
2,62,111,0
2,57,111,64
2,55,102,0
2,62,111,0
2,61,102,696
2,57,111,0
2,55,93,0
2,55,93,24
2,57,102,0
2,61,93,0
2,61,120,66
2,57,102,0
2,55,111,0
2,61,93,708
2,55,93,0
2,57,102,0
2,55,102,26
2,57,111,0
2,61,111,0
2,61,102,50
2,55,111,0
2,57,111,0
2,62,93,710
2,57,111,0
2,55,93,0
2,57,111,24
2,55,93,0
2,62,84,0
2,57,102,72
2,55,111,0
2,62,111,0
2,57,111,700
2,55,102,0
2,62,111,0
2,55,102,24
2,57,111,0
2,62,93,0
2,57,111,48
2,62,102,0
2,55,111,0
2,61,111,716
2,55,102,0
2,57,102,0
2,57,102,24
2,55,93,0
2,61,93,0
2,61,111,54
2,57,102,0
2,55,111,0
2,61,102,714
2,55,93,0
2,57,102,0
2,57,102,24
2,61,102,0
2,55,102,0
2,55,102,52
2,61,102,0
2,57,111,0
2,57,111,714
2,60,111,0
2,64,111,0
2,67,102,0
2,59,102,130
2,62,100,0
2,66,93,0
2,57,93,0
2,60,102,118
2,57,93,0
2,65,93,0
2,62,111,0
2,57,102,90
2,60,93,0
2,65,102,0
2,62,111,0
2,64,111,86
2,59,102,0
2,55,102,0
2,64,111,130
2,60,84,0
2,67,102,0
2,57,102,0
2,66,93,30
2,57,102,0
2,59,102,0
2,62,93,0
2,60,111,136
2,57,93,0
2,62,102,0
2,65,102,0
2,62,111,84
2,57,111,0
2,60,102,0
2,65,111,0
2,64,111,80
2,59,111,0
2,55,102,0
2,57,111,32
2,60,111,0
2,64,111,0
2,67,102,0
2,59,102,130
2,62,100,0
2,66,93,0
2,57,93,0
2,60,102,118
2,57,93,0
2,65,93,0
2,62,111,0
2,57,102,90
2,60,93,0
2,65,102,0
2,62,111,0
2,64,111,86
2,59,102,0
2,55,102,0
2,64,111,130
2,60,84,0
2,67,102,0
2,57,102,0
2,66,93,30
2,57,102,0
2,59,102,0
2,62,93,0
2,60,111,136
2,57,93,0
2,62,102,0
2,65,102,0
2,62,111,84
2,57,111,0
2,60,102,0
2,65,111,0
2,64,111,80
2,59,111,0
2,55,102,0
2,57,111,32
2,60,111,0
2,64,111,0
2,67,102,0
2,59,102,130
2,62,100,0
2,66,93,0
2,57,93,0
2,60,102,118
2,57,93,0
2,65,93,0
2,62,111,0
2,57,102,90
2,60,93,0
2,65,102,0
2,62,111,0
2,64,111,86
2,59,102,0
2,55,102,0
2,64,111,130
2,60,84,0
2,67,102,0
2,57,102,0
2,66,93,30
2,57,102,0
2,59,102,0
2,62,93,0
2,60,111,136
2,57,93,0
2,62,102,0
2,65,102,0
2,62,111,84
2,57,111,0
2,60,102,0
2,65,111,0
2,64,111,80
2,59,111,0
2,55,102,0
2,57,111,32
2,60,111,0
2,64,111,0
2,67,102,0
2,59,102,130
2,62,100,0
2,66,93,0
2,57,93,0
2,60,102,118
2,57,93,0
2,65,93,0
2,62,111,0
2,57,102,90
2,60,93,0
2,65,102,0
2,62,111,0
2,64,111,86
2,59,102,0
2,55,102,0
2,64,111,130
2,60,84,0
2,67,102,0
2,57,102,0
2,66,93,30
2,57,102,0
2,59,102,0
2,62,93,0
2,60,111,136
2,57,93,0
2,62,102,0
2,65,102,0
2,62,111,84
2,57,111,0
2,60,102,0
2,65,111,0
2,64,111,80
2,59,111,0
2,55,102,0
2,76,93,32
2,73,102,0
2,69,102,0
2,62,93,7544
2,55,102,0
2,57,102,0
2,55,93,32
2,57,102,0
2,62,93,0
2,57,111,44
2,62,111,0
2,55,102,0
2,55,93,710
2,57,102,0
2,62,102,0
2,55,93,24
2,57,102,0
2,62,111,0
2,57,111,64
2,55,102,0
2,62,111,0
2,61,102,696
2,57,111,0
2,55,93,0
2,55,93,24
2,57,102,0
2,61,93,0
2,61,120,66
2,57,102,0
2,55,111,0
2,61,93,708
2,55,93,0
2,57,102,0
2,55,102,26
2,57,111,0
2,61,111,0
2,61,102,50
2,55,111,0
2,57,111,0
2,62,93,710
2,57,111,0
2,55,93,0
2,57,111,24
2,55,93,0
2,62,84,0
2,57,102,72
2,55,111,0
2,62,111,0
2,57,111,700
2,55,102,0
2,62,111,0
2,55,102,24
2,57,111,0
2,62,93,0
2,57,111,48
2,62,102,0
2,55,111,0
2,61,111,716
2,55,102,0
2,57,102,0
2,57,102,24
2,55,93,0
2,61,93,0
2,61,111,54
2,57,102,0
2,55,111,0
2,61,102,714
2,55,93,0
2,57,102,0
2,57,102,24
2,61,102,0
2,55,102,0
2,55,102,52
2,61,102,0
2,57,111,0
2,57,111,714
2,60,111,0
2,64,111,0
2,67,102,0
2,59,102,130
2,62,100,0
2,66,93,0
2,57,93,0
2,60,102,118
2,57,93,0
2,65,93,0
2,62,111,0
2,57,102,90
2,60,93,0
2,65,102,0
2,62,111,0
2,64,111,86
2,59,102,0
2,55,102,0
2,64,111,130
2,60,84,0
2,67,102,0
2,57,102,0
2,66,93,30
2,57,102,0
2,59,102,0
2,62,93,0
2,60,111,136
2,57,93,0
2,62,102,0
2,65,102,0
2,62,111,84
2,57,111,0
2,60,102,0
2,65,111,0
2,64,111,80
2,59,111,0
2,55,102,0
2,57,111,32
2,60,111,0
2,64,111,0
2,67,102,0
2,59,102,130
2,62,100,0
2,66,93,0
2,57,93,0
2,60,102,118
2,57,93,0
2,65,93,0
2,62,111,0
2,57,102,90
2,60,93,0
2,65,102,0
2,62,111,0
2,64,111,86
2,59,102,0
2,55,102,0
2,64,111,130
2,60,84,0
2,67,102,0
2,57,102,0
2,66,93,30
2,57,102,0
2,59,102,0
2,62,93,0
2,60,111,136
2,57,93,0
2,62,102,0
2,65,102,0
2,62,111,84
2,57,111,0
2,60,102,0
2,65,111,0
2,64,111,80
2,59,111,0
2,55,102,0
2,57,111,32
2,60,111,0
2,64,111,0
2,67,102,0
2,59,102,130
2,62,100,0
2,66,93,0
2,57,93,0
2,60,102,118
2,57,93,0
2,65,93,0
2,62,111,0
2,57,102,90
2,60,93,0
2,65,102,0
2,62,111,0
2,64,111,86
2,59,102,0
2,55,102,0
2,64,111,130
2,60,84,0
2,67,102,0
2,57,102,0
2,66,93,30
2,57,102,0
2,59,102,0
2,62,93,0
2,60,111,136
2,57,93,0
2,62,102,0
2,65,102,0
2,62,111,84
2,57,111,0
2,60,102,0
2,65,111,0
2,64,111,80
2,59,111,0
2,55,102,0
2,57,111,32
2,60,111,0
2,64,111,0
2,67,102,0
2,59,102,130
2,62,100,0
2,66,93,0
2,57,93,0
2,60,102,118
2,57,93,0
2,65,93,0
2,62,111,0
2,57,102,90
2,60,93,0
2,65,102,0
2,62,111,0
2,64,111,86
2,59,102,0
2,55,102,0
2,64,111,130
2,60,84,0
2,67,102,0
2,57,102,0
2,66,93,30
2,57,102,0
2,59,102,0
2,62,93,0
2,60,111,136
2,57,93,0
2,62,102,0
2,65,102,0
2,62,111,84
2,57,111,0
2,60,102,0
2,65,111,0
2,64,111,80
2,59,111,0
2,55,102,0
2,76,93,32
2,73,102,0
2,69,102,0
2,57,111,10424
2,60,111,0
2,64,111,0
2,67,102,0
2,59,102,130
2,62,100,0
2,66,93,0
2,57,93,0
2,60,102,118
2,57,93,0
2,65,93,0
2,62,111,0
2,57,102,90
2,60,93,0
2,65,102,0
2,62,111,0
2,64,111,86
2,59,102,0
2,55,102,0
2,64,111,130
2,60,84,0
2,67,102,0
2,57,102,0
2,66,93,30
2,57,102,0
2,59,102,0
2,62,93,0
2,60,111,136
2,57,93,0
2,62,102,0
2,65,102,0
2,62,111,84
2,57,111,0
2,60,102,0
2,65,111,0
2,64,111,80
2,59,111,0
2,55,102,0
2,57,111,32
2,60,111,0
2,64,111,0
2,67,102,0
2,59,102,130
2,62,100,0
2,66,93,0
2,57,93,0
2,60,102,118
2,57,93,0
2,65,93,0
2,62,111,0
2,57,102,90
2,60,93,0
2,65,102,0
2,62,111,0
2,64,111,86
2,59,102,0
2,55,102,0
2,64,111,130
2,60,84,0
2,67,102,0
2,57,102,0
2,66,93,30
2,57,102,0
2,59,102,0
2,62,93,0
2,60,111,136
2,57,93,0
2,62,102,0
2,65,102,0
2,62,111,84
2,57,111,0
2,60,102,0
2,65,111,0
2,64,111,80
2,59,111,0
2,55,102,0
2,57,111,32
2,60,111,0
2,64,111,0
2,67,102,0
2,59,102,130
2,62,100,0
2,66,93,0
2,57,93,0
2,60,102,118
2,57,93,0
2,65,93,0
2,62,111,0
2,57,102,90
2,60,93,0
2,65,102,0
2,62,111,0
2,64,111,86
2,59,102,0
2,55,102,0
2,64,111,130
2,60,84,0
2,67,102,0
2,57,102,0
2,66,93,30
2,57,102,0
2,59,102,0
2,62,93,0
2,60,111,136
2,57,93,0
2,62,102,0
2,65,102,0
2,62,111,84
2,57,111,0
2,60,102,0
2,65,111,0
2,64,111,80
2,59,111,0
2,55,102,0
2,57,111,32
2,60,111,0
2,64,111,0
2,67,102,0
2,59,102,130
2,62,100,0
2,66,93,0
2,57,93,0
2,60,102,118
2,57,93,0
2,65,93,0
2,62,111,0
2,57,102,90
2,60,93,0
2,65,102,0
2,62,111,0
2,64,111,86
2,59,102,0
2,55,102,0
2,64,111,130
2,60,84,0
2,67,102,0
2,57,102,0
2,66,93,30
2,57,102,0
2,59,102,0
2,62,93,0
2,60,111,136
2,57,93,0
2,62,102,0
2,65,102,0
2,62,111,84
2,57,111,0
2,60,102,0
2,65,111,0
2,64,111,80
2,59,111,0
2,55,102,0
2,57,111,15392
2,60,111,0
2,64,111,0
2,67,102,0
2,59,102,130
2,62,100,0
2,66,93,0
2,57,93,0
2,60,102,118
2,57,93,0
2,65,93,0
2,62,111,0
2,57,102,90
2,60,93,0
2,65,102,0
2,62,111,0
2,64,111,86
2,59,102,0
2,55,102,0
2,64,111,130
2,60,84,0
2,67,102,0
2,57,102,0
2,66,93,30
2,57,102,0
2,59,102,0
2,62,93,0
2,60,111,136
2,57,93,0
2,62,102,0
2,65,102,0
2,62,111,84
2,57,111,0
2,60,102,0
2,65,111,0
2,64,111,80
2,59,111,0
2,55,102,0
2,57,111,32
2,60,111,0
2,64,111,0
2,67,102,0
2,59,102,130
2,62,100,0
2,66,93,0
2,57,93,0
2,60,102,118
2,57,93,0
2,65,93,0
2,62,111,0
2,57,102,90
2,60,93,0
2,65,102,0
2,62,111,0
2,64,111,86
2,59,102,0
2,55,102,0
2,64,111,130
2,60,84,0
2,67,102,0
2,57,102,0
2,66,93,30
2,57,102,0
2,59,102,0
2,62,93,0
2,60,111,136
2,57,93,0
2,62,102,0
2,65,102,0
2,62,111,84
2,57,111,0
2,60,102,0
2,65,111,0
2,64,111,80
2,59,111,0
2,55,102,0
2,57,111,32
2,60,111,0
2,64,111,0
2,67,102,0
2,59,102,130
2,62,100,0
2,66,93,0
2,57,93,0
2,60,102,118
2,57,93,0
2,65,93,0
2,62,111,0
2,57,102,90
2,60,93,0
2,65,102,0
2,62,111,0
2,64,111,86
2,59,102,0
2,55,102,0
2,64,111,130
2,60,84,0
2,67,102,0
2,57,102,0
2,66,93,30
2,57,102,0
2,59,102,0
2,62,93,0
2,60,111,136
2,57,93,0
2,62,102,0
2,65,102,0
2,62,111,84
2,57,111,0
2,60,102,0
2,65,111,0
2,64,111,80
2,59,111,0
2,55,102,0
2,57,111,32
2,60,111,0
2,64,111,0
2,67,102,0
2,59,102,130
2,62,100,0
2,66,93,0
2,57,93,0
2,60,102,118
2,57,93,0
2,65,93,0
2,62,111,0
2,57,102,90
2,60,93,0
2,65,102,0
2,62,111,0
2,64,111,86
2,59,102,0
2,55,102,0
2,64,111,130
2,60,84,0
2,67,102,0
2,57,102,0
2,66,93,30
2,57,102,0
2,59,102,0
2,62,93,0
2,60,111,136
2,57,93,0
2,62,102,0
2,65,102,0
2,62,111,84
2,57,111,0
2,60,102,0
2,65,111,0
2,64,111,80
2,59,111,0
2,55,102,0
2,57,111,32
2,60,111,0
2,64,111,0
2,67,102,0
2,59,102,130
2,62,100,0
2,66,93,0
2,57,93,0
2,60,102,118
2,57,93,0
2,65,93,0
2,62,111,0
2,57,102,90
