track,note,velocity,time
0,36,127,354
0,36,0,0
0,36,127,0
0,36,0,0
0,36,127,30
0,36,0,0
0,36,127,30
0,36,0,0
0,36,127,30
0,36,0,0
0,36,127,30
0,36,0,0
0,36,127,30
0,36,0,0
0,36,127,30
0,36,0,0
0,82,126,0
0,36,127,5
0,36,0,0
0,82,0,15
0,36,127,15
0,36,0,0
0,36,127,30
0,36,0,0
0,36,127,30
0,36,0,0
0,36,127,30
0,36,0,0
0,36,127,30
0,36,0,0
0,32,104,120
0,36,127,0
0,36,0,0
0,42,77,0
0,42,0,0
0,32,0,30
0,32,104,30
0,42,77,0
0,42,0,0
0,32,0,25
0,32,104,35
0,38,127,0
0,38,0,0
0,36,127,0
0,36,0,0
0,42,127,0
0,42,0,0
0,32,0,25
0,32,104,35
0,42,77,0
0,42,0,0
0,32,0,25
0,32,104,35
0,36,127,0
0,36,0,0
0,42,77,0
0,42,0,0
0,32,0,25
0,32,104,35
0,42,77,0
0,42,0,0
0,32,0,25
0,32,104,35
0,38,127,0
0,38,0,0
0,36,127,0
0,36,0,0
0,42,127,0
0,42,0,0
0,32,0,25
0,32,104,35
0,42,77,0
0,42,0,0
0,32,0,25
0,32,104,35
0,36,127,0
0,36,0,0
0,42,77,0
0,42,0,0
0,32,0,25
0,32,104,35
0,42,77,0
0,42,0,0
0,32,0,25
0,32,104,35
0,38,127,0
0,38,0,0
0,36,127,0
0,36,0,0
0,42,127,0
0,42,0,0
0,32,0,25
0,32,104,35
0,42,77,0
0,42,0,0
0,32,0,25
0,32,104,35
0,36,127,0
0,36,0,0
0,42,77,0
0,42,0,0
0,32,0,25
0,32,104,35
0,42,77,0
0,42,0,0
0,32,0,25
0,32,104,35
0,38,127,0
0,38,0,0
0,36,127,0
0,36,0,0
0,42,127,0
0,42,0,0
0,32,0,25
0,32,104,35
0,46,69,0
0,46,0,0
0,32,0,25
0,34,104,35
0,36,127,0
0,36,0,0
0,42,77,0
0,42,0,0
0,34,0,25
0,34,104,35
0,42,77,0
0,42,0,0
0,82,104,0
0,82,0,17
0,34,0,7
0,82,119,0
0,34,104,8
0,38,127,0
0,38,0,0
0,36,127,0
0,36,0,0
0,42,127,0
0,42,0,0
0,82,0,18
0,34,0,12
0,34,104,30
0,42,77,0
0,42,0,0
0,34,0,30
0,34,104,30
0,36,127,0
0,36,0,0
0,42,77,0
0,42,0,0
0,34,0,30
0,34,104,30
0,42,77,0
0,42,0,0
0,34,0,25
0,34,104,35
0,38,127,0
0,38,0,0
0,36,127,0
0,36,0,0
0,42,127,0
0,42,0,0
0,34,0,25
0,34,104,35
0,42,77,0
0,42,0,0
0,34,0,25
0,34,104,35
0,36,127,0
0,36,0,0
0,42,77,0
0,42,0,0
0,34,0,25
0,34,104,35
0,42,77,0
0,42,0,0
0,34,0,25
0,34,104,35
0,38,127,0
0,38,0,0
0,36,127,0
0,36,0,0
0,42,127,0
0,42,0,0
0,34,0,30
0,34,104,30
0,42,77,0
0,42,0,0
0,34,0,25
0,75,84,35
0,75,0,0
0,75,84,0
0,34,104,0
0,36,127,0
0,36,0,0
0,42,77,0
0,42,0,0
0,34,0,25
0,75,0,5
0,74,84,30
0,74,0,0
0,74,84,0
0,34,104,0
0,42,77,0
0,42,0,0
0,34,0,25
0,74,0,10
0,70,84,25
0,70,0,0
0,70,84,0
0,34,104,0
0,38,127,0
0,38,0,0
0,36,127,0
0,36,0,0
0,42,127,0
0,42,0,0
0,70,0,25
0,34,0,0
0,72,84,35
0,72,0,0
0,72,84,0
0,34,104,0
0,46,69,0
0,46,0,0
0,34,0,30
0,72,0,10
0,60,94,20
0,63,94,0
0,32,104,0
0,36,127,0
0,36,0,0
0,36,127,0
0,36,0,0
0,36,127,0
0,42,77,0
0,42,0,5
0,36,0,0
0,32,0,20
0,32,104,35
0,42,77,0
0,42,0,0
0,32,0,25
0,32,104,35
0,38,127,0
0,38,0,0
0,36,127,0
0,36,0,0
0,42,127,0
0,42,0,0
0,32,0,25
0,63,0,5
0,60,0,0
0,62,94,30
0,58,94,0
0,32,104,0
0,42,77,0
0,42,0,0
0,32,0,30
0,32,104,30
0,36,127,0
0,36,0,0
0,42,77,0
0,42,0,0
0,32,0,25
0,32,104,35
0,42,77,0
0,42,0,0
0,32,0,25
0,32,104,35
0,38,127,0
0,38,0,0
0,36,127,0
0,36,0,0
0,42,127,0
0,42,0,0
0,32,0,25
0,32,104,35
0,42,77,0
0,42,0,0
0,58,0,25
0,32,0,5
0,62,0,5
0,60,94,25
0,63,94,0
0,32,104,0
0,36,127,0
0,36,0,0
0,42,77,0
0,42,0,0
0,32,0,30
0,32,104,30
0,42,77,0
0,42,0,0
0,32,0,25
0,32,104,35
0,38,127,0
0,38,0,0
0,36,127,0
0,36,0,0
0,42,127,0
0,42,0,0
0,32,0,25
0,63,0,5
0,60,0,0
0,62,94,30
0,58,94,0
0,32,104,0
0,42,77,0
0,42,0,0
0,32,0,30
0,32,104,30
0,36,127,0
0,36,0,0
0,42,77,0
0,42,0,0
0,32,0,30
0,32,104,30
0,42,77,0
0,42,0,0
0,32,0,30
0,32,104,30
0,38,127,0
0,38,0,0
0,36,127,0
0,36,0,0
0,42,127,0
0,42,0,0
0,32,0,25
0,32,104,35
0,46,69,0
0,46,0,0
0,58,0,5
0,62,0,5
0,32,0,20
0,63,94,30
0,65,94,0
0,58,94,0
0,34,104,0
0,36,127,0
0,36,0,0
0,42,77,0
0,42,0,0
0,34,0,25
0,34,104,35
0,42,77,0
0,42,0,0
0,34,0,30
0,34,104,30
0,38,127,0
0,38,0,0
0,36,127,0
0,36,0,0
0,42,127,0
0,42,0,0
0,58,0,15
0,65,0,5
0,63,0,0
0,34,0,5
0,65,94,35
0,62,94,0
0,58,94,0
0,34,104,0
0,42,77,0
0,42,0,0
0,34,0,30
0,34,104,30
0,36,127,0
0,36,0,0
0,42,77,0
0,42,0,0
0,34,0,30
0,34,104,30
0,42,77,0
0,42,0,0
0,34,0,30
0,34,104,30
0,38,127,0
0,38,0,0
0,36,127,0
0,36,0,0
0,42,127,0
0,42,0,0
0,34,0,30
0,34,104,30
0,42,77,0
0,42,0,0
0,58,0,10
0,62,0,10
0,65,0,5
0,34,0,5
0,65,94,30
0,63,94,0
0,58,94,0
0,34,104,0
0,36,127,0
0,36,0,0
0,42,77,0
0,42,0,0
0,34,0,30
0,34,104,30
0,42,77,0
0,42,0,0
0,34,0,30
0,34,104,30
0,38,127,0
0,38,0,0
0,36,127,0
0,36,0,0
0,42,127,0
0,42,0,0
0,58,0,25
0,34,0,0
0,63,0,5
0,65,0,0
0,65,94,30
0,62,94,0
0,58,94,0
0,63,94,0
0,63,0,0
0,34,104,0
0,42,77,0
0,42,0,0
0,34,0,25
0,75,84,35
0,75,0,0
0,75,84,0
0,34,104,0
0,36,127,0
0,36,0,0
0,42,77,0
0,42,0,0
0,75,0,25
0,34,0,5
0,74,84,30
0,74,0,0
0,74,84,0
0,34,104,0
0,42,77,0
0,42,0,0
0,74,0,30
0,34,0,0
0,70,84,30
0,70,0,0
0,70,84,0
0,34,104,0
0,38,127,0
0,38,0,0
0,36,127,0
0,36,0,0
0,42,127,0
0,42,0,0
0,70,0,20
0,34,0,10
0,68,84,30
0,68,0,0
0,68,84,0
0,34,104,0
0,46,69,0
0,46,0,0
0,62,0,25
0,58,0,5
0,65,0,5
0,34,0,0
0,68,0,5
0,63,94,20
0,60,94,0
0,32,104,0
0,36,127,0
0,36,0,0
0,42,77,0
0,42,0,0
0,32,0,30
0,32,104,30
0,42,77,0
0,42,0,0
0,32,0,30
0,32,104,30
0,38,127,0
0,38,0,0
0,36,127,0
0,36,0,0
0,42,127,0
0,42,0,0
0,60,0,20
0,63,0,0
0,32,0,10
0,62,94,30
0,58,94,0
0,32,104,0
0,42,77,0
0,42,0,0
0,32,0,30
0,32,104,30
0,36,127,0
0,36,0,0
0,42,77,0
0,42,0,0
0,32,0,30
0,32,104,30
0,42,77,0
0,42,0,0
0,32,0,30
0,32,104,30
0,38,127,0
0,38,0,0
0,36,127,0
0,36,0,0
0,42,127,0
0,42,0,0
0,32,0,30
0,32,104,30
0,42,77,0
0,42,0,0
0,58,0,25
0,32,0,0
0,62,0,10
0,60,94,25
0,63,94,0
0,32,104,0
0,36,127,0
0,36,0,0
0,42,77,0
0,42,0,0
0,32,0,30
0,32,104,30
0,42,77,0
0,42,0,0
0,32,0,30
0,32,104,30
0,38,127,0
0,38,0,0
0,36,127,0
0,36,0,0
0,42,127,0
0,42,0,0
0,63,0,30
0,60,0,0
0,32,0,0
0,58,94,30
0,62,94,0
0,32,104,0
0,42,77,0
0,42,0,0
0,32,0,30
0,32,104,30
0,36,127,0
0,36,0,0
0,42,77,0
0,42,0,0
0,32,0,25
0,32,104,35
0,42,77,0
0,42,0,0
0,32,0,25
0,32,104,35
0,38,127,0
0,38,0,0
0,36,127,0
0,36,0,0
0,42,127,0
0,42,0,0
0,32,0,25
0,32,104,35
0,46,69,0
0,46,0,0
0,62,0,10
0,58,0,0
0,32,0,20
0,63,94,30
0,65,94,0
0,58,94,0
0,34,104,0
0,36,127,0
0,36,0,0
0,42,77,0
0,42,0,0
0,34,0,30
0,34,104,30
0,42,77,0
0,42,0,0
0,34,0,25
0,34,104,35
0,38,127,0
0,38,0,0
0,36,127,0
0,36,0,0
0,42,127,0
0,42,0,0
0,58,0,20
0,63,0,5
0,65,0,5
0,34,0,0
0,65,94,30
0,62,94,0
0,58,94,0
0,34,104,0
0,42,77,0
0,42,0,0
0,34,0,30
0,34,104,30
0,36,127,0
0,36,0,0
0,42,77,0
0,42,0,0
0,34,0,30
0,34,104,30
0,42,77,0
0,42,0,0
0,34,0,30
0,34,104,30
0,38,127,0
0,38,0,0
0,36,127,0
0,36,0,0
0,42,127,0
0,42,0,0
0,34,0,25
0,34,104,35
0,42,77,0
0,42,0,0
0,58,0,20
0,62,0,5
0,65,0,5
0,34,0,0
0,63,94,30
0,65,94,0
0,58,94,0
0,34,104,0
0,36,127,0
0,36,0,0
0,42,77,0
0,42,0,0
0,34,0,30
0,34,104,30
0,42,77,0
0,42,0,0
0,34,0,30
0,34,104,30
0,38,127,0
0,38,0,0
0,42,127,0
0,42,0,0
0,58,0,20
0,63,0,5
0,65,0,5
0,34,0,0
0,65,94,30
0,62,94,0
0,58,94,0
0,34,104,0
0,42,77,0
0,42,0,0
0,34,0,30
0,75,84,30
0,75,0,0
0,75,84,0
0,34,104,0
0,36,127,0
0,36,0,0
0,42,77,0
0,42,0,0
0,75,0,25
0,34,0,5
0,74,84,30
0,74,0,0
0,74,84,0
0,34,104,0
0,36,127,0
0,36,0,0
0,42,77,0
0,42,0,0
0,74,0,25
0,34,0,5
0,70,84,30
0,70,0,0
0,70,84,0
0,34,104,0
0,38,127,0
0,38,0,0
0,42,127,0
0,42,0,0
0,70,0,25
0,34,0,5
0,72,84,30
0,72,0,0
0,72,84,0
0,34,104,0
0,38,127,0
0,38,0,0
0,42,77,0
0,42,0,0
0,58,0,20
0,62,0,0
0,65,0,5
0,34,0,5
0,38,127,0
0,38,0,0
0,72,0,10
0,78,100,0
0,60,94,0
0,63,94,0
0,56,94,0
0,32,104,0
0,36,127,0
0,36,0,0
0,42,77,0
0,42,0,0
0,78,0,29
0,32,0,1
0,32,104,30
0,42,77,0
0,42,0,0
0,32,0,30
0,80,104,0
0,32,104,0
0,38,127,0
0,38,0,0
0,36,127,0
0,36,0,0
0,42,127,0
0,42,0,0
0,80,0,29
0,32,0,1
0,78,104,0
0,32,104,0
0,42,77,0
0,42,0,0
0,78,0,29
0,32,0,1
0,32,104,30
0,36,127,0
0,36,0,0
0,42,77,0
0,42,0,0
0,32,0,30
0,32,104,30
0,42,77,0
0,42,0,0
0,32,0,30
0,32,104,30
0,38,127,0
0,38,0,0
0,36,127,0
0,36,0,0
0,42,127,0
0,42,0,0
0,32,0,25
0,32,104,35
0,42,77,0
0,42,0,0
0,32,0,30
0,78,114,0
0,32,104,0
0,36,127,0
0,36,0,0
0,42,77,0
0,42,0,0
0,78,0,29
0,32,0,1
0,32,104,30
0,42,77,0
0,42,0,0
0,32,0,30
0,80,100,0
0,32,104,0
0,38,127,0
0,38,0,0
0,36,127,0
0,36,0,0
0,42,127,0
0,42,0,0
0,80,0,29
0,32,0,1
0,78,109,0
0,32,104,0
0,42,77,0
0,42,0,0
0,78,0,29
0,32,0,1
0,32,104,30
0,36,127,0
0,36,0,0
0,42,77,0
0,42,0,0
0,32,0,30
0,80,109,0
0,32,104,0
0,42,77,0
0,42,0,0
0,80,0,29
0,32,0,1
0,32,104,30
0,38,127,0
0,38,0,0
0,36,127,0
0,36,0,0
0,42,127,0
0,42,0,0
0,32,0,30
0,32,104,30
0,46,69,0
0,46,0,0
0,56,0,5
0,60,0,15
0,63,0,5
0,32,0,5
0,78,114,0
0,65,94,0
0,58,94,0
0,63,94,0
0,34,104,0
0,36,127,0
0,36,0,0
0,42,77,0
0,42,0,0
0,78,0,29
0,34,0,1
0,34,104,30
0,42,77,0
0,42,0,0
0,34,0,30
0,34,104,30
0,38,127,0
0,38,0,0
0,36,127,0
0,36,0,0
0,42,127,0
0,42,0,0
0,58,0,20
0,63,0,5
0,65,0,0
0,34,0,5
0,80,119,0
0,65,94,0
0,62,94,0
0,58,94,0
0,34,104,0
0,42,77,0
0,42,0,0
0,80,0,29
0,34,0,1
0,34,104,30
0,36,127,0
0,36,0,0
0,42,77,0
0,42,0,0
0,34,0,35
0,34,104,25
0,42,77,0
0,42,0,0
0,34,0,30
0,34,104,30
0,38,127,0
0,38,0,0
0,36,127,0
0,36,0,0
0,42,127,0
0,42,0,0
0,34,0,30
0,34,104,30
0,42,77,0
0,42,0,0
0,58,0,15
0,62,0,5
0,65,0,5
0,34,0,5
0,63,94,30
0,65,94,0
0,58,94,0
0,34,104,0
0,36,127,0
0,36,0,0
0,42,77,0
0,42,0,0
0,34,0,30
0,34,104,30
0,42,77,0
0,42,0,0
0,34,0,30
0,34,104,30
0,38,127,0
0,38,0,0
0,36,127,0
0,36,0,0
0,42,127,0
0,42,0,0
0,58,0,15
0,63,0,0
0,65,0,5
0,34,0,10
0,65,94,30
0,62,94,0
0,58,94,0
0,34,104,0
0,42,77,0
0,42,0,0
0,34,0,30
0,75,84,30
0,75,0,0
0,75,84,0
0,34,104,0
0,36,127,0
0,36,0,0
0,42,77,0
0,42,0,0
0,75,0,20
0,34,0,10
0,74,84,30
0,74,0,0
0,74,84,0
0,34,104,0
0,42,77,0
0,42,0,0
0,74,0,30
0,34,0,0
0,70,84,30
0,70,0,0
0,70,84,0
0,34,104,0
0,38,127,0
0,38,0,0
0,36,127,0
0,36,0,0
0,42,127,0
0,42,0,0
0,70,0,20
0,34,0,10
0,68,84,30
0,68,0,0
0,68,84,0
0,34,104,0
0,46,69,0
0,46,0,0
0,58,0,10
0,62,0,5
0,65,0,5
0,68,0,10
0,34,0,5
0,78,100,0
0,60,94,0
0,56,94,0
0,63,94,0
0,32,104,0
0,36,127,0
0,36,0,0
0,42,77,0
0,42,0,0
0,78,0,29
0,32,0,1
0,32,104,30
0,42,77,0
0,42,0,0
0,32,0,30
0,80,100,0
0,32,104,0
0,38,127,0
0,38,0,0
0,36,127,0
0,36,0,0
0,42,127,0
0,42,0,0
0,80,0,29
0,32,0,1
0,78,109,0
0,32,104,0
0,42,77,0
0,42,0,0
0,78,0,29
0,32,0,1
0,32,104,30
0,36,127,0
0,36,0,0
0,42,77,0
0,42,0,0
0,32,0,30
0,32,104,30
0,42,77,0
0,42,0,0
0,32,0,30
0,32,104,30
0,38,127,0
0,38,0,0
0,36,127,0
0,36,0,0
0,42,127,0
0,42,0,0
0,32,0,30
0,78,100,0
0,32,104,0
0,42,77,0
0,42,0,0
0,78,0,29
0,32,0,1
0,80,109,0
0,32,104,0
0,36,127,0
0,36,0,0
0,42,77,0
0,42,0,0
0,80,0,29
