track,note,velocity,time
1,31,96,5724
1,31,92,480
1,29,96,96
1,28,88,192
1,24,88,192
1,31,92,288
1,31,96,192
1,29,96,192
1,28,92,192
1,24,74,192
1,31,96,96
1,31,92,480
1,29,96,96
1,28,84,192
1,24,84,192
1,31,96,288
1,31,96,192
1,29,96,192
1,28,96,192
1,26,96,192
1,31,96,96
1,31,92,480
1,29,96,96
1,28,88,192
1,24,88,192
1,31,92,288
1,31,96,192
1,29,96,192
1,28,92,192
1,24,74,192
1,31,96,96
1,31,92,480
1,29,96,96
1,28,84,192
1,24,84,192
1,31,96,288
1,31,96,192
1,29,96,192
1,28,96,192
1,26,96,192
1,31,96,96
1,31,92,480
1,29,96,96
1,28,88,192
1,24,88,192
1,31,92,288
1,31,96,192
1,29,96,192
1,28,92,192
1,24,74,192
1,31,96,96
1,31,92,480
1,29,96,96
1,28,84,192
1,24,84,192
1,31,96,288
1,31,96,192
1,29,96,192
1,28,96,192
1,26,96,192
1,31,96,96
1,31,92,480
1,29,96,96
1,28,88,192
1,24,88,192
1,31,92,288
1,31,96,192
1,29,96,192
1,28,92,192
1,24,74,192
1,31,96,96
1,31,92,480
1,29,96,96
1,28,84,192
1,24,84,192
1,31,96,288
1,31,96,192
1,29,96,192
1,28,96,192
1,26,96,192
1,31,92,96
1,31,96,288
1,29,96,288
1,28,88,192
1,24,80,192
1,29,100,288
1,29,105,192
1,26,88,192
1,24,84,192
1,28,88,192
1,29,96,96
1,29,96,288
1,29,96,288
1,26,88,192
1,31,96,192
1,31,84,288
1,31,92,192
1,29,80,192
1,28,84,192
1,24,88,192
1,31,92,96
1,31,96,288
1,29,96,288
1,28,88,192
1,24,80,192
1,29,100,288
1,29,105,192
1,26,88,192
1,24,84,192
1,28,88,192
1,29,96,96
1,29,96,288
1,29,96,288
1,26,88,192
1,31,96,192
1,31,84,288
1,31,92,192
1,29,80,192
1,28,84,192
1,24,88,192
1,31,92,96
1,31,96,288
1,29,96,288
1,28,88,192
1,24,80,192
1,29,100,288
1,29,105,192
1,26,88,192
1,24,84,192
1,28,88,192
1,29,96,96
1,29,96,288
1,29,96,288
1,26,88,192
1,31,96,192
1,31,84,288
1,31,92,192
1,29,80,192
1,28,84,192
1,24,88,192
1,31,92,96
1,31,96,288
1,29,96,288
1,28,88,192
1,24,80,192
1,29,100,288
1,29,105,192
1,26,88,192
1,24,84,192
1,28,88,192
1,29,96,96
1,29,96,288
1,29,96,288
1,26,88,192
1,31,96,192
1,31,84,288
1,31,92,192
1,29,80,192
1,28,84,192
1,24,88,192
1,31,96,96
1,31,92,480
1,29,96,96
1,28,88,192
1,24,88,192
1,31,92,288
1,31,96,192
1,29,96,192
1,28,92,192
1,24,74,192
1,31,96,96
1,31,92,480
1,29,96,96
1,28,84,192
1,24,84,192
1,31,96,288
1,31,96,192
1,29,96,192
1,28,96,192
1,26,96,192
1,31,96,96
1,31,92,480
1,29,96,96
1,28,88,192
1,24,88,192
1,31,92,288
1,31,96,192
1,29,96,192
1,28,92,192
1,24,74,192
1,31,96,96
1,31,92,480
1,29,96,96
1,28,84,192
1,24,84,192
1,31,96,288
1,31,96,192
1,29,96,192
1,28,96,192
1,26,96,192
1,31,92,96
1,31,96,288
1,29,96,288
1,28,88,192
1,24,80,192
1,29,100,288
1,29,105,192
1,26,88,192
1,24,84,192
1,28,88,192
1,29,96,96
1,29,96,288
1,29,96,288
1,26,88,192
1,31,96,192
1,31,84,288
1,31,92,192
1,29,80,192
1,28,84,192
1,24,88,192
1,31,92,96
1,31,96,288
1,29,96,288
1,28,88,192
1,24,80,192
1,29,100,288
1,29,105,192
1,26,88,192
1,24,84,192
1,28,88,192
1,29,96,96
1,29,96,288
1,29,96,288
1,26,88,192
1,31,96,192
1,31,84,288
1,31,92,192
1,29,80,192
1,28,84,192
1,24,88,192
1,31,92,96
1,31,96,288
1,29,96,288
1,28,88,192
1,24,80,192
1,29,100,288
1,29,105,192
1,26,88,192
1,24,84,192
1,28,88,192
1,29,96,96
1,29,96,288
1,29,96,288
1,26,88,192
1,31,96,192
1,31,84,288
1,31,92,192
1,29,80,192
1,28,84,192
1,24,88,192
1,31,92,96
1,31,96,288
1,29,96,288
1,28,88,192
1,24,80,192
1,29,100,288
1,29,105,192
1,26,88,192
1,24,84,192
1,28,88,192
1,29,96,96
1,29,96,288
1,29,96,288
1,26,88,192
1,31,96,192
1,31,84,288
1,31,92,192
1,29,80,192
1,28,84,192
1,24,88,192
1,31,96,96
1,31,92,480
1,29,96,96
1,28,88,192
1,24,88,192
1,31,92,288
1,31,96,192
1,29,96,192
1,28,92,192
1,24,74,192
1,31,96,96
1,31,92,480
1,29,96,96
1,28,84,192
1,24,84,192
1,31,96,288
1,31,96,192
1,29,96,192
1,28,96,192
1,26,96,192
1,31,96,96
1,31,92,480
1,29,96,96
1,28,88,192
1,24,88,192
1,31,92,288
1,31,96,192
1,29,96,192
1,28,92,192
1,24,74,192
1,31,96,96
1,31,92,480
1,29,96,96
1,28,84,192
1,24,84,192
1,31,96,288
1,31,96,192
1,29,96,192
1,28,96,192
1,26,96,192
1,31,96,96
1,31,92,480
1,29,96,96
1,28,88,192
1,24,88,192
1,31,92,288
1,31,96,192
1,29,96,192
1,28,92,192
1,24,74,192
1,31,96,96
1,31,92,480
1,29,96,96
1,28,84,192
1,24,84,192
1,31,96,288
1,31,96,192
1,29,96,192
1,28,96,192
1,26,96,192
1,31,96,96
1,31,92,480
1,29,96,96
1,28,88,192
1,24,88,192
1,31,92,288
1,31,96,192
1,29,96,192
1,28,92,192
1,24,74,192
1,31,96,96
1,31,92,480
1,29,96,96
1,28,84,192
1,24,84,192
1,31,96,288
1,31,96,192
1,29,96,192
1,28,96,192
1,26,96,192
1,31,96,96
1,31,92,480
1,29,96,96
1,28,88,192
1,24,88,192
1,31,92,288
1,31,96,192
1,29,96,192
1,28,92,192
1,24,74,192
1,31,96,96
1,31,92,480
1,29,96,96
1,28,84,192
1,24,84,192
1,31,96,288
1,31,96,192
1,29,96,192
1,28,96,192
1,26,96,192
1,31,96,96
1,31,92,480
1,29,96,96
1,28,88,192
1,24,88,192
1,31,92,288
1,31,96,192
1,29,96,192
1,28,92,192
1,24,74,192
1,31,96,96
1,31,92,480
1,29,96,96
1,28,84,192
1,24,84,192
1,31,96,288
1,31,96,192
1,29,96,192
1,28,96,192
1,26,96,192
1,31,96,96
1,31,92,480
1,29,96,96
1,28,88,192
1,24,88,192
1,31,92,288
1,31,96,192
1,29,96,192
1,28,92,192
1,24,74,192
1,31,96,96
1,31,92,480
1,29,96,96
1,28,84,192
1,24,84,192
1,31,96,288
1,31,96,192
1,29,96,192
1,28,96,192
1,26,96,192
1,31,96,96
1,31,92,480
1,29,96,96
1,28,88,192
1,24,88,192
1,31,92,288
1,31,96,192
1,29,96,192
1,28,92,192
1,24,74,192
1,31,96,96
1,31,92,480
1,29,96,96
1,28,84,192
1,24,84,192
1,31,96,288
1,31,96,192
1,29,96,192
1,28,96,192
1,26,96,192
1,31,96,96
1,31,92,480
1,29,96,96
1,28,88,192
1,24,88,192
1,31,92,288
1,31,96,192
1,29,96,192
1,28,92,192
1,24,74,192
1,31,96,96
1,31,92,480
1,29,96,96
1,28,84,192
1,24,84,192
1,31,96,288
1,31,96,192
1,29,96,192
1,28,96,192
1,26,96,192
1,31,96,96
1,31,92,480
1,29,96,96
1,28,88,192
1,24,88,192
1,31,92,288
1,31,96,192
1,29,96,192
1,28,92,192
1,24,74,192
1,31,96,96
1,31,92,480
1,29,96,96
1,28,84,192
1,24,84,192
1,31,96,288
1,31,96,192
1,29,96,192
1,28,96,192
1,26,96,192
1,31,96,96
1,31,92,480
1,29,96,96
1,28,88,192
1,24,88,192
1,31,92,288
1,31,96,192
1,29,96,192
1,28,92,192
1,24,74,192
1,31,96,96
1,31,92,480
1,29,96,96
1,28,84,192
1,24,84,192
1,31,96,288
1,31,96,192
1,29,96,192
1,28,96,192
1,26,96,192
1,31,96,96
1,31,92,480
1,29,96,96
1,28,88,192
1,24,88,192
1,31,92,288
1,31,96,192
1,29,96,192
1,28,92,192
1,24,74,192
1,31,96,96
1,31,92,480
1,29,96,96
1,28,84,192
1,24,84,192
1,31,96,288
1,31,96,192
1,29,96,192
1,28,96,192
1,26,96,192
1,31,96,96
1,31,92,480
1,29,96,96
1,28,88,192
1,24,88,192
1,31,92,288
1,31,96,192
1,29,96,192
1,28,92,192
1,24,74,192
1,31,96,96
1,31,92,480
1,29,96,96
1,28,84,192
1,24,84,192
1,31,96,288
1,31,96,192
1,29,96,192
1,28,96,192
1,26,96,192
1,31,96,96
1,31,92,480
1,29,96,96
1,28,88,192
1,24,88,192
1,31,92,288
1,31,96,192
1,29,96,192
1,28,92,192
1,24,74,192
1,31,96,96
1,31,92,480
1,29,96,96
1,28,84,192
1,24,84,192
1,31,96,288
1,31,96,192
1,29,96,192
1,28,96,192
1,26,96,192
2,59,68,17992
2,62,68,0
2,67,68,0
2,59,68,72
2,62,68,0
2,67,68,0
2,59,68,168
2,62,68,0
2,67,68,0
2,59,68,168
2,62,68,0
2,67,68,0
2,59,68,168
2,62,68,0
2,67,68,0
2,59,67,168
2,62,67,0
2,67,67,0
2,59,67,168
2,62,67,0
2,67,67,0
2,59,67,168
2,62,67,0
2,67,67,0
2,59,67,72
2,62,67,0
2,67,67,0
2,57,67,96
2,60,67,0
2,65,67,0
2,57,67,96
2,60,67,0
2,65,67,0
2,57,67,168
2,60,67,0
2,65,67,0
2,57,67,168
2,60,67,0
2,65,67,0
2,57,67,168
2,60,67,0
2,65,67,0
2,57,67,0
2,60,67,0
2,57,67,72
2,60,67,0
2,65,67,0
2,57,67,168
2,60,67,0
2,65,67,0
2,57,67,96
2,60,67,0
2,65,67,0
2,57,67,168
2,60,67,0
2,65,67,0
2,57,67,168
2,60,67,0
2,65,67,0
2,57,66,168
2,60,66,0
2,65,66,0
2,57,66,72
2,60,66,0
2,65,66,0
2,57,66,72
2,60,66,0
2,65,66,0
2,57,66,72
2,60,66,0
2,65,66,0
2,57,66,264
2,60,66,0
2,65,66,0
2,59,66,96
2,62,66,0
2,67,66,0
2,59,66,168
2,62,66,0
2,67,66,0
2,67,66,72
2,59,66,72
2,62,66,0
2,67,66,0
2,59,66,168
2,62,66,0
2,67,66,0
2,59,66,168
2,62,66,0
2,67,66,0
2,59,66,168
2,62,66,0
2,67,66,0
2,59,66,72
2,67,66,0
2,59,66,72
2,62,66,0
2,67,66,0
2,59,66,72
2,62,66,0
2,59,66,72
2,62,66,0
2,67,66,0
2,59,68,0
2,62,68,0
2,67,68,0
2,59,68,72
2,62,68,0
2,67,68,0
2,59,68,168
2,62,68,0
2,67,68,0
2,59,68,168
2,62,68,0
2,67,68,0
2,59,68,168
2,62,68,0
2,67,68,0
2,59,67,168
2,62,67,0
2,67,67,0
2,59,67,168
2,62,67,0
2,67,67,0
2,59,67,168
2,62,67,0
2,67,67,0
2,59,67,72
2,62,67,0
2,67,67,0
2,57,67,96
2,60,67,0
2,65,67,0
2,57,67,96
2,60,67,0
2,65,67,0
2,57,67,168
2,60,67,0
2,65,67,0
2,57,67,168
2,60,67,0
2,65,67,0
2,57,67,168
2,60,67,0
2,65,67,0
2,57,67,0
2,60,67,0
2,57,67,72
2,60,67,0
2,65,67,0
2,57,67,168
2,60,67,0
2,65,67,0
2,57,67,96
2,60,67,0
2,65,67,0
2,57,67,168
2,60,67,0
2,65,67,0
2,57,67,168
2,60,67,0
2,65,67,0
2,57,66,168
2,60,66,0
2,65,66,0
2,57,66,72
2,60,66,0
2,65,66,0
2,57,66,72
2,60,66,0
2,65,66,0
2,57,66,72
2,60,66,0
2,65,66,0
2,57,66,264
2,60,66,0
2,65,66,0
2,59,66,96
2,62,66,0
2,67,66,0
2,59,66,168
2,62,66,0
2,67,66,0
2,67,66,72
2,59,66,72
2,62,66,0
2,67,66,0
2,59,66,168
2,62,66,0
2,67,66,0
2,59,66,168
2,62,66,0
2,67,66,0
2,59,66,168
2,62,66,0
2,67,66,0
2,59,66,72
2,67,66,0
2,59,66,72
2,62,66,0
2,67,66,0
2,59,66,72
2,62,66,0
2,59,66,72
2,62,66,0
2,67,66,0
2,59,68,0
2,62,68,0
2,67,68,0
2,59,68,72
2,62,68,0
2,67,68,0
2,59,68,168
2,62,68,0
2,67,68,0
2,59,68,168
2,62,68,0
2,67,68,0
2,59,68,168
2,62,68,0
2,67,68,0
2,59,67,168
2,62,67,0
2,67,67,0
2,59,67,168
2,62,67,0
2,67,67,0
2,59,67,168
2,62,67,0
2,67,67,0
2,59,67,72
2,62,67,0
2,67,67,0
2,57,67,96
2,60,67,0
2,65,67,0
2,57,67,96
2,60,67,0
2,65,67,0
2,57,67,168
2,60,67,0
2,65,67,0
2,57,67,168
2,60,67,0
2,65,67,0
2,57,67,168
2,60,67,0
2,65,67,0
2,57,67,0
2,60,67,0
2,57,67,72
2,60,67,0
2,65,67,0
2,57,67,168
2,60,67,0
2,65,67,0
2,57,67,96
2,60,67,0
2,65,67,0
2,57,67,168
2,60,67,0
2,65,67,0
2,57,67,168
2,60,67,0
2,65,67,0
2,57,66,168
2,60,66,0
2,65,66,0
2,57,66,72
2,60,66,0
2,65,66,0
2,57,66,72
2,60,66,0
2,65,66,0
2,57,66,72
2,60,66,0
2,65,66,0
2,57,66,264
2,60,66,0
2,65,66,0
2,59,66,96
2,62,66,0
2,67,66,0
2,59,66,168
2,62,66,0
2,67,66,0
2,67,66,72
2,59,66,72
2,62,66,0
2,67,66,0
2,59,66,168
2,62,66,0
2,67,66,0
2,59,66,168
2,62,66,0
2,67,66,0
2,59,66,168
2,62,66,0
2,67,66,0
2,59,66,72
2,67,66,0
2,59,66,72
2,62,66,0
2,67,66,0
2,59,66,72
2,62,66,0
2,59,66,72
2,62,66,0
2,67,66,0
2,59,68,0
2,62,68,0
2,67,68,0
2,59,68,72
2,62,68,0
2,67,68,0
2,59,68,168
2,62,68,0
2,67,68,0
2,59,68,168
2,62,68,0
2,67,68,0
2,59,68,168
2,62,68,0
2,67,68,0
2,59,67,168
2,62,67,0
2,67,67,0
2,59,67,168
2,62,67,0
2,67,67,0
2,59,67,168
2,62,67,0
2,67,67,0
2,59,67,72
2,62,67,0
2,67,67,0
2,57,67,96
2,60,67,0
2,65,67,0
2,57,67,96
2,60,67,0
2,65,67,0
2,57,67,168
2,60,67,0
2,65,67,0
2,57,67,168
2,60,67,0
2,65,67,0
2,57,67,168
2,60,67,0
2,65,67,0
2,57,67,0
2,60,67,0
2,57,67,72
2,60,67,0
2,65,67,0
2,57,67,168
2,60,67,0
2,65,67,0
2,57,67,96
2,60,67,0
2,65,67,0
2,57,67,168
2,60,67,0
2,65,67,0
2,57,67,168
2,60,67,0
2,65,67,0
2,57,66,168
2,60,66,0
2,65,66,0
2,57,66,72
2,60,66,0
2,65,66,0
2,57,66,72
2,60,66,0
2,65,66,0
2,57,66,72
2,60,66,0
2,65,66,0
2,57,66,264
2,60,66,0
2,65,66,0
2,59,66,96
2,62,66,0
2,67,66,0
2,59,66,168
2,62,66,0
2,67,66,0
2,67,66,72
2,59,66,72
2,62,66,0
2,67,66,0
2,59,66,168
2,62,66,0
2,67,66,0
2,59,66,168
2,62,66,0
2,67,66,0
2,59,66,168
2,62,66,0
2,67,66,0
2,59,66,72
2,67,66,0
2,59,66,72
2,62,66,0
2,67,66,0
2,59,66,72
2,62,66,0
2,59,66,72
2,62,66,0
2,67,66,0
2,59,68,0
2,62,68,0
2,67,68,0
2,59,68,72
2,62,68,0
2,67,68,0
2,59,68,168
2,62,68,0
2,67,68,0
2,59,68,168
2,62,68,0
2,67,68,0
2,59,68,168
2,62,68,0
2,67,68,0
2,59,67,168
2,62,67,0
2,67,67,0
2,59,67,168
2,62,67,0
2,67,67,0
2,59,67,168
2,62,67,0
2,67,67,0
2,59,67,72
2,62,67,0
2,67,67,0
2,57,67,96
