track,note,velocity,time
1,73,127,18432
1,68,127,40
1,73,127,40
1,75,127,50
1,75,127,82
1,78,127,50
1,76,127,76
1,75,127,16
1,76,127,32
1,76,127,540
1,76,127,160
1,78,127,84
1,80,127,92
1,80,127,112
1,76,127,66
1,76,127,38
1,80,127,12
1,78,127,64
1,75,127,20
1,75,127,36
1,73,127,162
1,68,127,36
1,73,127,84
1,75,127,74
1,75,127,78
1,78,127,54
1,76,127,86
1,75,127,4
1,76,127,34
1,76,127,600
1,76,127,136
1,78,127,112
1,80,127,70
1,80,127,110
1,76,127,66
1,76,127,42
1,80,127,16
1,78,127,60
1,75,127,52
1,75,127,38
1,76,127,122
1,76,127,56
1,76,127,36
1,76,127,72
1,76,127,72
1,76,127,50
1,75,127,32
1,75,127,70
1,78,127,146
1,78,127,42
1,78,127,60
1,78,127,86
1,78,127,48
1,76,127,86
1,76,127,88
1,76,127,42
1,75,127,72
1,75,127,84
1,75,127,38
1,75,127,72
1,75,127,108
1,75,127,44
1,73,127,60
1,73,127,102
1,73,127,144
1,73,127,32
1,73,127,124
1,75,127,106
1,76,127,92
1,75,127,12
1,76,127,26
1,76,127,124
1,76,127,42
1,76,127,80
1,76,127,98
1,76,127,50
1,75,127,26
1,75,127,102
1,78,127,98
1,78,127,44
1,78,127,92
1,78,127,82
1,78,127,48
1,76,127,78
1,76,127,96
1,76,127,64
1,75,127,74
1,75,127,72
1,75,127,32
1,75,127,88
1,75,127,98
1,75,127,52
1,73,127,60
1,73,127,96
1,78,127,170
1,76,92,190
1,71,127,12
1,71,121,58
1,73,121,80
1,73,127,6780
1,68,127,40
1,73,127,40
1,75,127,50
1,75,127,82
1,78,127,50
1,76,127,76
1,75,127,16
1,76,127,32
1,76,127,540
1,76,127,160
1,78,127,84
1,80,127,92
1,80,127,112
1,76,127,66
1,76,127,38
1,80,127,12
1,78,127,64
1,75,127,20
1,75,127,36
1,73,127,162
1,68,127,36
1,73,127,84
1,75,127,74
1,75,127,78
1,78,127,54
1,76,127,86
1,75,127,4
1,76,127,34
1,76,127,600
1,76,127,136
1,78,127,112
1,80,127,70
1,80,127,110
1,76,127,66
1,76,127,42
1,80,127,16
1,78,127,60
1,75,127,52
1,75,127,38
1,76,127,122
1,76,127,56
1,76,127,36
1,76,127,72
1,76,127,72
1,76,127,50
1,75,127,32
1,75,127,70
1,78,127,146
1,78,127,42
1,78,127,60
1,78,127,86
1,78,127,48
1,76,127,86
1,76,127,88
1,76,127,42
1,75,127,72
1,75,127,84
1,75,127,38
1,75,127,72
1,75,127,108
1,75,127,44
1,73,127,60
1,73,127,102
1,73,127,144
1,73,127,32
1,73,127,124
1,75,127,106
1,76,127,92
1,75,127,12
1,76,127,26
1,76,127,124
1,76,127,42
1,76,127,80
1,76,127,98
1,76,127,50
1,75,127,26
1,75,127,102
1,78,127,98
1,78,127,44
1,78,127,92
1,78,127,82
1,78,127,48
1,76,127,78
1,76,127,96
1,76,127,64
1,75,127,74
1,75,127,72
1,75,127,32
1,75,127,88
1,75,127,98
1,75,127,52
1,73,127,60
1,73,127,96
1,78,127,170
1,76,92,190
1,71,127,12
1,71,121,58
1,73,121,80
1,81,127,6776
1,80,127,18
1,78,127,18
1,78,127,90
1,80,127,42
1,81,127,28
1,80,127,196
1,78,127,4
1,76,127,292
1,78,127,4
1,78,127,80
1,80,127,38
1,81,127,24
1,80,127,26
1,78,127,10
1,83,127,10
1,78,127,18
1,78,127,72
1,81,127,16
1,80,127,104
1,80,127,64
1,81,127,24
1,80,127,18
1,81,127,240
1,80,127,18
1,78,127,8
1,78,127,88
1,80,127,38
1,81,127,16
1,80,127,4
1,78,127,6
1,76,127,14
1,78,127,12
1,78,127,172
1,78,127,102
1,80,127,30
1,81,127,14
1,80,127,26
1,78,127,10
1,83,127,14
1,78,127,20
1,78,127,68
1,81,127,16
1,80,127,4
1,80,127,74
1,81,127,12
1,80,127,10
1,72,127,1088
1,75,127,378
1,73,127,4
1,73,127,5890
1,68,127,40
1,73,127,40
1,75,127,50
1,75,127,82
1,78,127,50
1,76,127,76
1,75,127,16
1,76,127,32
1,76,127,540
1,76,127,160
1,78,127,84
1,80,127,92
1,80,127,112
1,76,127,66
1,76,127,38
1,80,127,12
1,78,127,64
1,75,127,20
1,75,127,36
1,73,127,162
1,68,127,36
1,73,127,84
1,75,127,74
1,75,127,78
1,78,127,54
1,76,127,86
1,75,127,4
1,76,127,34
1,76,127,600
1,76,127,136
1,78,127,112
1,80,127,70
1,80,127,110
1,76,127,66
1,76,127,42
1,80,127,16
1,78,127,60
1,75,127,52
1,75,127,38
1,76,127,122
1,76,127,56
1,76,127,36
1,76,127,72
1,76,127,72
1,76,127,50
1,75,127,32
1,75,127,70
1,78,127,146
1,78,127,42
1,78,127,60
1,78,127,86
1,78,127,48
1,76,127,86
1,76,127,88
1,76,127,42
1,75,127,72
1,75,127,84
1,75,127,38
1,75,127,72
1,75,127,108
1,75,127,44
1,73,127,60
1,73,127,102
1,73,127,144
1,73,127,32
1,73,127,124
1,75,127,106
1,76,127,92
1,75,127,12
1,76,127,26
1,76,127,124
1,76,127,42
1,76,127,80
1,76,127,98
1,76,127,50
1,75,127,26
1,75,127,102
1,78,127,98
1,78,127,44
1,78,127,92
1,78,127,82
1,78,127,48
1,76,127,78
1,76,127,96
1,76,127,64
1,75,127,74
1,75,127,72
1,75,127,32
1,75,127,88
1,75,127,98
1,75,127,52
1,73,127,60
1,73,127,96
1,78,127,170
1,76,92,190
1,71,127,12
1,71,121,58
1,73,121,80
1,76,127,1404
1,76,127,56
1,76,127,36
1,76,127,72
1,76,127,72
1,76,127,50
1,75,127,32
1,75,127,70
1,78,127,146
1,78,127,42
1,78,127,60
1,78,127,86
1,78,127,48
1,76,127,86
1,76,127,88
1,76,127,42
1,75,127,72
1,75,127,84
1,75,127,38
1,75,127,72
1,75,127,108
1,75,127,44
1,73,127,60
1,73,127,102
1,73,127,144
1,73,127,32
1,73,127,124
1,75,127,106
1,76,127,92
1,75,127,12
1,76,127,26
1,76,127,124
1,76,127,42
1,76,127,80
1,76,127,98
1,76,127,50
1,75,127,26
1,75,127,102
1,78,127,98
1,78,127,44
1,78,127,92
1,78,127,82
1,78,127,48
1,76,127,78
1,76,127,96
1,76,127,64
1,75,127,74
1,75,127,72
1,75,127,32
1,75,127,88
1,75,127,98
1,75,127,52
1,73,127,60
1,73,127,96
1,78,127,170
1,76,92,190
1,71,127,12
1,71,121,58
1,73,121,80
1,76,127,636
1,76,127,56
1,76,127,36
1,76,127,72
1,76,127,72
1,76,127,50
1,75,127,32
1,75,127,70
1,78,127,146
1,78,127,42
1,78,127,60
1,78,127,86
1,78,127,48
1,76,127,0
1,76,127,0
1,76,127,0
1,75,127,0
1,75,127,0
1,75,127,0
1,75,127,0
1,75,127,0
1,75,127,0
1,73,127,0
1,73,127,0
1,73,127,0
1,73,127,0
1,73,127,0
1,75,127,0
1,76,127,0
1,75,127,0
1,76,127,0
1,76,127,0
1,76,127,0
1,76,127,0
1,76,127,0
1,76,127,0
1,75,127,0
1,75,127,0
1,78,127,0
1,78,127,0
1,78,127,0
1,78,127,0
1,78,127,0
1,76,127,0
1,76,127,0
1,76,127,0
1,75,127,0
1,75,127,0
1,75,127,0
1,75,127,0
1,75,127,0
1,75,127,0
1,73,127,0
1,73,127,0
1,78,127,2
1,76,92,0
1,71,127,12
1,71,121,58
1,73,121,72
2,25,120,4604
2,28,127,172
2,32,121,32
2,23,121,116
2,27,118,196
2,30,118,20
2,25,109,112
2,28,120,196
2,32,116,16
2,25,113,112
2,28,116,216
2,32,115,4
2,25,112,132
2,28,120,204
2,32,115,4
2,23,116,120
2,27,118,196
2,30,113,6
2,25,112,120
2,28,123,196
2,32,115,8
2,25,112,132
2,28,121,216
2,32,114,8
2,25,114,116
2,28,115,204
2,32,118,4
2,23,116,120
2,27,118,216
2,30,113,8
2,25,111,120
2,28,120,216
2,32,113,4
2,25,112,156
2,28,120,204
2,32,115,8
2,25,111,116
2,28,118,204
2,32,118,10
2,23,123,116
2,27,118,208
2,30,114,4
2,25,114,100
2,28,121,196
2,32,115,8
2,25,113,152
2,28,121,204
2,32,115,4
2,25,120,148
2,28,121,204
2,32,120,16
2,23,118,102
2,27,120,196
2,30,118,4
2,25,118,100
2,28,123,198
2,32,115,6
2,25,115,132
2,28,121,196
2,32,116,4
2,25,118,112
2,33,123,200
2,23,112,8
2,25,120,120
2,28,121,216
2,32,118,4
2,28,120,114
2,35,123,212
2,28,120,10
2,23,120,108
2,30,120,208
2,23,114,4
2,25,120,124
2,28,121,196
2,32,120,10
2,23,118,102
2,27,120,200
2,30,118,8
2,25,116,112
2,28,123,204
2,32,118,4
2,25,114,112
2,28,121,200
2,32,118,4
2,25,118,112
2,28,123,196
2,23,113,20
2,25,118,116
2,28,121,196
2,32,115,4
2,28,121,118
2,35,123,192
2,28,120,10
2,23,120,116
2,24,123,204
2,32,127,14
2,25,120,108
2,32,120,202
2,25,116,4
2,32,125,108
2,27,118,196
2,32,116,4
2,30,120,110
2,37,126,202
2,30,115,8
2,28,125,110
2,35,123,216
2,28,114,4
2,23,123,116
2,30,120,200
2,23,113,2
2,30,123,100
2,25,118,196
2,30,120,4
2,30,116,100
2,30,111,14
2,30,120,98
2,32,120,198
2,25,120,110
2,25,120,196
2,25,118,30
2,32,120,196
2,25,116,20
2,32,120,100
2,27,116,196
2,32,118,4
2,30,120,110
2,37,120,208
2,30,120,26
2,28,120,100
2,35,113,196
2,28,118,18
2,35,121,100
2,30,114,196
2,35,118,12
2,30,115,100
2,25,115,204
2,30,114,2
2,30,120,100
2,30,116,28
2,30,120,116
2,32,116,196
2,25,114,100
2,25,114,200
2,25,115,42
2,28,120,202
2,32,121,10
2,23,118,106
2,27,120,196
2,30,115,8
2,25,116,100
2,28,120,196
2,32,112,24
2,25,112,100
2,28,121,212
2,32,112,28
2,25,113,100
2,28,121,194
2,32,115,20
2,23,118,102
2,27,120,204
2,30,115,2
2,25,113,100
2,28,121,196
2,32,115,4
2,25,113,116
2,28,118,196
2,32,112,4
2,25,116,124
2,28,121,196
2,32,118,2
2,23,120,100
2,27,118,196
2,30,118,4
2,25,114,100
2,28,120,196
2,32,113,2
2,25,112,112
2,28,120,216
2,32,113,16
2,25,116,106
2,33,116,196
2,23,111,16
2,25,116,100
2,28,118,194
2,32,120,12
2,28,121,100
2,35,120,196
2,28,115,4
2,23,120,110
2,30,116,196
2,23,113,4
2,25,118,100
2,28,123,196
2,32,120,6
2,23,116,100
2,27,118,196
2,30,115,288
2,25,115,108
2,28,121,202
2,32,120,6
2,25,116,112
2,28,125,206
2,32,112,6
2,25,115,112
2,33,121,196
2,23,123,14
2,25,116,100
2,28,121,196
2,32,118,8
2,28,120,100
2,35,120,196
2,28,115,8
2,23,121,112
2,24,119,186
2,32,121,6
2,25,120,112
2,32,121,196
2,25,116,16
2,32,121,120
2,27,120,196
2,32,118,16
2,30,120,116
2,37,121,196
2,30,116,40
2,28,121,100
2,35,125,216
2,28,114,4
2,23,116,148
2,30,118,194
2,23,118,4
2,30,118,100
2,25,116,194
2,30,113,18
2,30,114,114
2,30,115,16
2,30,123,76
2,32,120,196
2,25,115,116
2,25,121,196
2,25,121,52
2,32,120,196
2,25,115,36
2,32,116,98
2,27,116,216
2,32,120,6
2,30,118,120
2,37,118,212
2,30,115,40
2,28,121,100
2,35,118,216
2,28,116,18
2,23,118,128
2,30,116,196
2,23,112,4
2,30,120,120
2,25,112,160
2,30,113,52
2,30,118,96
2,30,114,26
2,30,114,74
2,32,114,196
2,25,115,116
2,25,120,196
2,25,123,28
2,28,125,220
2,32,120,4
2,23,121,100
2,27,118,196
2,30,118,10
2,25,116,116
2,28,120,216
2,32,113,4
2,25,115,112
2,28,121,216
2,32,120,12
2,25,116,136
2,28,121,196
2,32,120,22
2,23,120,76
2,27,120,172
2,30,120,6
2,25,115,100
2,28,123,216
2,32,118,6
2,25,114,132
2,28,121,232
2,32,116,6
2,30,120,96
2,25,118,72
2,30,115,22
2,26,120,88
2,33,123,24
2,26,114,36
2,28,121,100
2,35,121,4
2,28,115,36
2,23,123,96
2,30,118,168
2,25,114,8
2,30,120,20
2,26,118,56
2,33,120,4
2,26,114,24
2,28,116,52
2,35,114,12
2,28,116,40
2,28,120,112
2,30,123,100
2,25,116,0
2,30,116,18
2,26,114,56
2,33,118,10
2,26,114,2
2,28,121,64
2,35,121,4
2,28,116,4
2,23,120,112
2,30,121,112
2,25,117,12
2,30,118,8
2,26,118,16
2,33,116,8
2,26,115,4
2,28,118,68
2,35,120,4
2,28,118,72
2,28,121,76
2,36,121,112
2,25,118,164
2,28,116,168
2,32,109,14
2,23,119,124
2,27,115,184
2,30,115,2
2,25,116,112
2,28,123,176
2,32,118,6
2,25,112,116
2,28,120,196
2,32,114,12
2,25,116,100
2,33,121,144
2,23,113,20
2,25,115,100
2,28,121,196
2,32,115,12
2,28,125,116
2,35,121,184
2,28,121,10
2,23,116,136
2,30,116,196
2,23,114,4
2,25,116,120
2,28,121,196
2,32,118,2
2,23,120,100
2,27,118,196
2,30,118,4
2,25,114,100
2,28,120,196
2,32,113,2
2,25,112,112
2,28,120,216
2,32,113,16
2,25,116,106
2,33,116,196
2,23,111,16
2,25,116,100
2,28,118,194
2,32,120,12
2,28,121,100
2,35,120,196
2,28,115,4
2,23,120,110
2,30,116,196
2,23,113,4
2,25,118,100
2,28,123,196
2,32,120,6
2,23,116,100
2,27,118,196
2,30,115,288
2,25,115,108
2,28,121,202
2,32,120,6
2,25,116,112
2,28,125,206
2,32,112,6
2,25,115,112
2,33,121,196
2,23,123,14
2,25,116,100
2,28,121,196
2,32,118,8
2,28,120,100
2,35,120,196
2,28,115,8
2,23,121,112
2,24,119,186
2,32,121,6
2,25,120,112
2,32,121,196
2,25,116,16
2,32,121,120
2,27,120,196
2,32,118,16
2,30,120,116
2,37,121,196
2,30,116,40
2,28,121,100
2,35,125,216
2,28,114,4
2,23,116,148
2,30,118,194
2,23,118,4
2,30,118,100
2,25,116,194
2,30,113,18
2,30,114,114
2,30,115,16
2,30,123,76
2,32,120,196
2,25,115,116
2,25,121,196
2,25,121,52
2,32,120,196
2,25,115,36
2,32,116,98
2,27,116,216
2,32,120,6
2,30,118,120
2,37,118,212
2,30,115,40
2,28,121,100
2,35,118,216
2,28,116,18
2,23,118,128
2,30,116,196
2,23,112,4
2,30,120,120
2,25,112,160
2,30,113,52
2,30,118,96
2,30,114,26
2,30,114,74
2,32,114,196
2,25,115,116
2,25,120,196
2,33,121,28
2,35,121,60
2,25,120,48
2,32,121,196
2,25,116,16
2,32,121,120
2,27,120,196
2,32,118,16
2,30,120,116
2,37,121,196
2,30,116,40
2,28,121,100
2,35,125,216
2,28,114,4
2,23,116,148
2,30,118,194
2,23,118,4
2,30,118,100
2,25,116,194
2,30,113,18
2,30,114,114
2,30,115,16
2,30,123,76
2,32,120,196
2,25,115,116
2,25,121,196
2,25,121,52
2,32,120,196
2,25,115,36
2,32,116,98
2,27,116,216
2,32,120,6
2,30,118,120
2,37,118,212
2,30,115,40
2,28,121,100
2,35,118,216
2,28,116,18
2,23,118,128
2,30,116,196
2,23,112,4
2,30,120,120
2,25,112,160
2,30,113,52
2,30,118,96
2,30,114,26
2,30,114,74
2,32,114,196
2,25,115,116
2,25,120,196
2,25,120,28
2,32,121,196
2,25,116,16
2,32,121,120
2,27,120,196
2,32,118,16
2,30,120,116
2,37,121,196
2,30,116,40
2,28,121,100
2,35,125,0
2,28,114,0
2,23,116,0
2,30,118,0
2,23,118,0
2,30,118,0
2,25,116,0
2,30,113,0
2,30,114,0
2,30,115,0
2,30,123,0
2,32,120,0
2,25,115,0
2,25,121,0
2,25,121,0
2,32,120,0
2,25,115,36
2,32,116,0
2,27,116,0
2,32,120,0
2,30,118,0
2,37,118,0
2,30,115,0
2,28,121,0
2,35,118,0
2,28,116,0
