track,note,velocity,time
1,48,119,1140
1,55,117,0
1,48,0,164
1,55,0,8
1,48,121,200
1,57,118,8
1,57,0,140
1,48,0,16
1,48,118,216
1,55,115,4
1,48,0,180
1,55,0,8
1,48,117,192
1,57,111,4
1,57,0,192
1,48,0,8
1,48,117,4
1,55,111,0
1,48,0,168
1,55,0,16
1,48,79,196
1,48,0,44
1,48,109,140
1,57,118,4
1,57,0,188
1,48,0,4
1,48,117,196
1,55,114,8
1,48,0,176
1,55,0,20
1,48,118,192
1,57,111,4
1,57,0,176
1,48,0,0
1,55,111,4
1,48,115,0
1,48,0,156
1,55,0,16
1,48,68,32
1,48,0,52
1,48,70,140
1,48,0,48
1,48,119,136
1,57,115,4
1,57,0,148
1,48,0,36
1,48,71,12
1,48,0,52
1,48,118,124
1,58,115,8
1,58,0,172
1,48,0,16
1,48,74,8
1,48,0,48
1,48,117,132
1,57,117,4
1,57,0,168
1,48,0,16
1,48,72,8
1,48,0,44
1,48,109,144
1,58,117,4
1,58,0,156
1,48,0,28
1,48,73,8
1,48,0,40
1,48,120,152
1,57,117,4
1,57,0,156
1,48,0,24
1,48,74,12
1,48,0,44
1,48,119,140
1,58,113,8
1,58,0,164
1,48,0,8
1,48,77,20
1,48,0,48
1,48,118,132
1,57,113,12
1,57,0,172
1,48,0,12
1,48,114,8
1,55,115,4
1,48,0,152
1,55,0,16
1,48,119,388
1,57,115,8
1,57,0,168
1,48,0,20
1,48,117,192
1,55,115,4
1,48,0,164
1,55,0,20
1,48,118,200
1,57,114,8
1,48,0,188
1,57,0,4
1,48,113,0
1,55,114,4
1,48,0,152
1,55,0,8
1,48,74,20
1,48,0,56
1,48,71,136
1,48,0,48
1,48,119,136
1,57,117,4
1,57,0,184
1,48,0,36
1,73,48,164
1,48,124,8
1,55,115,0
1,73,0,12
1,48,0,152
1,55,0,20
1,48,119,196
1,57,114,8
1,48,0,184
1,48,114,4
1,57,0,4
1,55,115,0
1,48,0,164
1,55,0,20
1,48,126,196
1,51,127,188
1,48,0,4
1,52,111,176
1,51,0,12
1,52,0,164
1,55,126,20
1,60,121,12
1,55,0,372
1,51,127,0
1,60,0,12
1,52,109,176
1,51,0,4
1,52,0,188
1,55,124,0
1,60,107,8
1,55,0,184
1,48,115,0
1,60,0,8
1,48,0,184
1,51,125,4
1,52,107,184
1,51,0,8
1,52,0,184
1,55,125,8
1,60,115,12
1,48,120,180
1,55,0,4
1,60,0,8
1,48,0,112
1,48,115,76
1,57,107,4
1,48,0,188
1,57,0,4
1,48,115,0
1,55,110,4
1,55,0,180
1,48,0,0
1,48,71,8
1,48,0,52
1,48,70,136
1,48,0,52
1,48,118,128
1,57,113,4
1,57,0,148
1,48,0,40
1,48,73,4
1,48,0,48
1,48,116,148
1,58,108,8
1,58,0,392
1,48,0,60
1,48,115,128
1,55,113,4
1,55,0,256
1,48,0,28
1,73,70,268
1,57,110,4
1,73,0,4
1,48,117,12
1,48,0,156
1,57,0,0
1,48,117,216
1,58,109,8
1,58,0,352
1,48,0,24
1,48,115,200
1,55,110,8
1,48,0,252
1,55,0,12
1,48,113,292
1,57,110,8
1,57,0,180
1,48,0,28
1,55,107,188
1,48,109,0
1,48,0,152
1,55,0,24
1,48,114,196
1,57,107,8
1,57,0,168
1,48,0,20
1,55,107,8
1,48,117,0
1,48,0,188
1,55,0,8
1,48,111,180
1,55,105,4
1,55,0,160
1,48,0,8
1,48,115,16
1,57,108,8
1,57,0,164
1,48,0,16
1,48,113,192
1,55,111,12
1,48,0,156
1,55,0,4
1,48,114,216
1,57,113,16
1,48,0,184
1,48,114,4
1,57,0,4
1,55,111,0
1,48,0,172
1,55,0,4
1,48,111,0
1,55,106,4
1,55,0,44
1,48,0,0
1,48,95,140
1,55,93,4
1,55,0,44
1,48,0,0
1,48,111,144
1,55,97,4
1,48,0,48
1,55,0,4
1,48,111,136
1,55,98,12
1,55,0,40
1,48,0,0
1,48,107,144
1,55,107,8
1,48,0,48
1,55,0,4
1,48,100,136
1,55,95,8
1,55,0,40
1,48,0,0
1,48,100,144
1,55,101,4
1,55,0,40
1,48,0,8
1,48,97,136
1,55,91,8
1,55,0,36
1,48,0,4
1,48,105,140
1,55,104,8
1,48,0,40
1,55,0,4
1,48,102,144
1,55,93,8
1,55,0,40
1,48,0,0
1,48,104,148
1,55,98,8
1,55,0,36
1,48,0,4
1,48,98,144
1,55,84,4
1,55,0,36
1,48,0,4
1,48,101,144
1,55,106,4
1,55,0,40
1,48,0,4
1,48,93,140
1,55,91,12
1,55,0,32
1,48,0,4
1,48,104,148
1,55,106,8
1,55,0,36
1,48,0,0
1,48,104,152
1,55,103,4
1,55,0,36
1,48,0,4
1,43,121,148
1,50,110,4
1,50,0,48
1,43,0,20
1,43,113,128
1,50,104,0
1,50,0,40
1,43,0,8
1,43,108,140
1,50,109,4
1,50,0,44
1,43,0,0
1,43,91,140
1,50,101,4
1,50,0,40
1,43,0,4
1,43,109,144
1,50,101,4
1,50,0,40
1,43,0,4
1,43,103,144
1,50,97,4
1,50,0,32
1,43,0,4
1,43,97,148
1,50,107,8
1,50,0,32
1,43,0,8
1,43,111,144
1,50,98,8
1,43,0,24
1,50,0,4
1,50,111,160
1,57,95,4
1,57,0,44
1,50,0,0
1,50,103,144
1,57,86,8
1,57,0,40
1,50,0,0
1,50,105,144
1,57,98,4
1,57,0,40
1,50,0,0
1,50,109,148
1,57,84,4
1,57,0,36
1,50,0,4
1,50,108,144
1,57,95,12
1,57,0,32
1,50,0,0
1,50,108,144
1,57,98,8
1,50,0,36
1,57,0,4
1,50,114,144
1,57,102,12
1,57,0,32
1,50,0,0
1,50,111,152
1,57,101,4
1,57,0,32
1,50,0,0
1,48,110,156
1,55,91,8
1,55,0,44
1,48,0,0
1,48,100,140
1,55,97,8
1,48,0,32
1,55,0,8
1,48,103,144
1,55,94,4
1,55,0,44
1,48,0,0
1,48,97,140
1,55,90,8
1,48,0,36
1,55,0,4
1,48,103,140
1,55,91,8
1,55,0,36
1,48,0,0
1,48,103,148
1,55,93,8
1,48,0,32
1,55,0,4
1,48,105,152
1,55,95,4
1,48,0,36
1,55,0,4
1,48,107,148
1,55,93,8
1,55,0,32
1,48,0,0
1,48,109,160
1,55,90,4
1,55,0,36
1,48,0,4
1,48,102,144
1,55,95,8
1,48,0,40
1,55,0,4
1,48,104,144
1,55,96,4
1,55,0,44
1,48,0,4
1,48,99,136
1,55,95,8
1,55,0,44
1,48,0,0
1,48,107,140
1,55,93,4
1,55,0,36
1,48,0,4
1,48,97,152
1,55,97,4
1,55,0,36
1,48,0,0
1,48,101,144
1,55,99,12
1,55,0,36
1,48,0,0
1,48,104,152
1,55,101,0
1,55,0,32
1,48,0,8
1,43,111,148
1,50,104,8
1,50,0,40
1,43,0,4
1,43,101,144
1,50,94,8
1,50,0,32
1,43,0,4
1,43,98,144
1,50,100,12
1,43,0,36
1,50,0,4
1,43,101,140
1,50,96,8
1,50,0,36
1,43,0,0
1,43,101,152
1,50,98,0
1,50,0,32
1,43,0,8
1,43,102,148
1,50,98,4
1,50,0,36
1,43,0,0
1,43,100,144
1,50,107,8
1,50,0,36
1,43,0,0
1,50,109,152
1,43,112,8
1,50,0,24
1,43,0,4
1,50,111,160
1,57,103,8
1,50,0,44
1,57,0,4
1,50,105,136
1,57,95,4
1,57,0,44
1,50,0,0
1,50,109,144
1,57,98,8
1,50,0,40
1,57,0,4
1,50,109,140
1,57,91,8
1,57,0,40
1,50,0,4
1,50,109,140
1,57,93,8
1,57,0,40
1,50,0,0
1,50,106,148
1,57,101,4
1,57,0,52
1,50,0,0
1,50,110,136
1,57,97,8
1,50,0,32
1,57,0,8
1,50,108,144
1,57,99,4
1,50,0,32
1,57,0,4
1,46,110,148
1,53,98,12
1,53,0,32
1,46,0,4
1,46,103,148
1,53,101,8
1,53,0,40
1,46,0,0
1,46,95,148
1,53,100,0
1,53,0,40
1,46,0,4
1,46,106,144
1,53,97,4
1,53,0,32
1,46,0,8
1,46,106,140
1,53,95,4
1,53,0,40
1,46,0,8
1,46,101,140
1,53,98,8
1,53,0,32
1,46,0,8
1,46,110,140
1,53,104,4
1,53,0,36
1,46,0,12
1,46,109,140
1,53,98,8
1,53,0,44
1,46,0,0
1,46,107,144
1,53,102,4
1,53,0,40
1,46,0,0
1,46,107,148
1,53,91,4
1,53,0,16
1,46,0,28
1,46,106,144
1,53,103,4
1,53,0,40
1,46,0,8
1,53,107,144
1,46,104,4
1,53,0,36
1,46,0,4
1,46,107,148
1,53,96,8
1,53,0,36
1,46,0,4
1,46,106,148
1,53,99,4
1,53,0,32
1,46,0,4
1,46,107,148
1,53,101,12
1,53,0,32
1,46,0,4
1,53,104,152
1,46,110,0
1,53,0,28
1,46,0,4
1,58,95,152
1,51,111,0
1,58,0,28
1,51,0,20
1,51,98,148
1,58,91,4
1,58,0,40
1,51,0,0
1,51,105,144
1,58,99,4
1,51,0,44
1,58,0,4
1,51,101,136
1,58,100,4
1,51,0,44
1,58,0,4
1,51,106,140
1,58,103,8
1,58,0,32
1,51,0,0
1,51,105,148
1,58,93,4
1,58,0,44
1,51,0,0
1,51,107,144
1,58,100,4
1,58,0,44
1,51,0,0
1,51,93,140
1,58,101,8
1,51,0,40
1,58,0,8
1,51,108,136
1,58,97,8
1,58,0,40
1,51,0,0
1,51,97,148
1,58,73,12
1,58,0,32
1,51,0,8
1,51,100,140
1,58,91,16
1,58,0,24
1,51,0,4
1,51,93,148
1,58,103,8
1,51,0,44
1,58,0,4
1,51,101,140
1,58,96,8
1,51,0,40
1,58,0,8
1,51,98,136
1,58,98,12
1,51,0,36
1,58,0,8
1,51,97,140
1,58,100,12
1,58,0,36
1,51,0,4
1,51,95,136
1,58,107,8
1,51,0,48
1,58,0,4
1,46,107,136
1,53,88,8
1,53,0,40
1,46,0,4
1,46,97,148
1,53,87,0
1,53,0,44
1,46,0,0
1,46,102,144
1,53,95,0
1,53,0,40
1,46,0,4
1,46,104,144
1,53,98,4
1,46,0,40
1,53,0,4
1,46,100,144
1,53,93,4
1,53,0,32
1,46,0,8
1,46,97,148
1,53,94,4
1,53,0,36
1,46,0,0
1,46,105,152
1,53,99,8
1,53,0,40
1,46,0,0
1,46,101,148
1,53,98,4
1,53,0,36
1,46,0,4
1,46,101,144
1,53,88,8
1,53,0,32
1,46,0,4
1,46,100,148
1,53,91,4
1,53,0,36
1,46,0,4
1,46,100,144
1,53,96,4
1,53,0,40
1,46,0,0
1,46,95,152
1,53,91,4
1,53,0,32
1,46,0,12
1,53,93,148
1,46,95,4
1,53,0,32
1,46,0,8
1,46,99,144
1,53,94,8
1,53,0,32
1,46,0,4
1,46,96,152
1,53,91,0
1,53,0,28
1,46,0,8
1,53,100,156
1,46,100,8
1,46,0,16
1,53,0,0
1,51,101,160
1,58,97,8
1,58,0,40
1,51,0,4
1,51,100,140
1,58,83,12
1,58,0,36
1,51,0,0
1,51,96,144
1,58,93,4
1,58,0,40
1,51,0,0
1,51,99,148
1,58,92,8
1,51,0,36
1,58,0,4
1,51,92,144
1,58,86,4
1,58,0,36
1,51,0,4
1,51,101,144
1,58,89,8
1,51,0,36
1,58,0,8
1,51,98,144
1,58,90,8
1,58,0,36
1,51,0,0
1,51,99,148
1,58,91,8
1,51,0,36
1,58,0,4
1,51,97,148
1,58,97,4
1,51,0,40
1,58,0,4
1,51,92,140
1,58,82,8
1,58,0,32
1,51,0,8
1,51,90,140
1,58,87,8
1,51,0,36
1,58,0,4
1,51,95,144
1,58,85,4
1,58,0,44
1,51,0,4
1,51,101,140
1,58,81,8
1,58,0,20
1,51,0,16
1,51,101,152
1,58,87,12
1,58,0,28
1,51,0,0
1,51,108,152
1,58,95,8
1,58,0,36
1,51,0,4
1,51,104,144
1,58,95,0
1,51,0,40
1,58,0,8
1,60,121,8
1,55,127,24
1,48,127,40
1,55,0,60
1,60,0,4
1,48,0,4
1,48,123,8
1,55,121,12
1,60,120,8
1,60,0,2908
1,60,121,4
1,55,0,20
1,55,127,4
1,48,0,36
1,48,127,4
1,55,0,60
1,60,0,0
1,48,0,8
1,48,123,8
1,55,121,12
1,60,120,8
1,48,0,2864
1,55,0,4
1,48,127,0
1,55,117,4
1,60,0,128
1,48,0,48
1,48,99,4
1,48,0,32
1,55,0,0
1,48,123,164
1,55,107,4
1,55,0,124
1,48,0,36
1,48,127,24
1,57,116,12
1,48,0,92
1,57,0,12
1,48,99,76
1,48,0,36
1,48,127,152
1,58,113,8
1,48,0,104
1,58,0,16
1,48,99,68
1,48,0,36
1,48,126,156
1,57,117,0
1,57,0,192
1,48,0,0
1,48,125,4
1,55,113,8
1,48,0,92
1,55,0,16
1,48,99,72
1,48,0,36
1,48,123,156
1,55,107,8
1,55,0,132
1,48,0,44
1,48,127,8
1,57,115,8
1,48,0,92
1,57,0,8
1,48,99,84
1,48,0,36
1,48,127,152
1,58,115,4
1,58,0,92
1,48,0,8
1,48,99,92
1,48,0,36
1,48,127,156
1,57,117,0
1,57,0,92
1,48,0,0
1,48,99,100
1,48,0,36
1,48,122,148
1,58,113,8
1,48,0,84
1,58,0,16
1,48,88,92
1,48,0,36
1,48,122,156
1,57,114,4
1,57,0,96
1,48,0,4
1,48,88,88
1,48,0,36
1,48,117,156
1,58,111,4
1,58,0,96
1,48,0,0
1,48,88,92
1,48,0,36
1,48,118,152
1,57,103,8
1,57,0,96
1,48,0,0
1,48,120,96
1,55,117,0
1,48,0,184
1,48,88,4
1,55,0,4
1,48,0,32
1,48,119,156
1,55,100,8
1,55,0,148
1,48,0,32
1,48,123,4
1,57,117,8
1,57,0,132
1,48,0,44
1,48,116,8
1,55,108,4
1,55,0,96
1,48,0,0
1,48,121,88
1,55,97,8
1,48,0,176
1,48,116,4
1,55,0,4
1,55,109,4
1,48,0,184
1,48,127,4
1,55,0,4
1,57,121,0
1,48,0,184
1,48,125,4
1,57,0,4
1,55,114,0
1,48,0,188
1,55,0,4
1,48,111,0
1,55,106,4
1,55,0,44
1,48,0,0
1,48,95,140
1,55,93,4
1,55,0,44
1,48,0,0
1,48,111,144
1,55,97,4
1,48,0,48
1,55,0,4
1,48,111,136
1,55,98,12
1,55,0,40
1,48,0,0
1,48,107,144
1,55,107,8
1,48,0,48
1,55,0,4
1,48,100,136
1,55,95,8
1,55,0,40
1,48,0,0
1,48,100,144
1,55,101,4
1,55,0,40
1,48,0,8
1,48,97,136
1,55,91,8
1,55,0,36
1,48,0,4
1,48,105,140
1,55,104,8
1,48,0,40
1,55,0,4
1,48,102,144
1,55,93,8
1,55,0,40
1,48,0,0
1,48,104,148
1,55,98,8
1,55,0,36
1,48,0,4
1,48,98,144
1,55,84,4
1,55,0,36
1,48,0,4
1,48,101,144
1,55,106,4
1,55,0,40
1,48,0,4
1,48,93,140
1,55,91,12
1,55,0,32
1,48,0,4
1,48,104,148
1,55,106,8
1,55,0,36
1,48,0,0
1,48,104,152
1,55,103,4
1,55,0,36
1,48,0,4
1,43,121,148
1,50,110,4
1,50,0,48
1,43,0,20
1,43,113,128
1,50,104,0
1,50,0,40
1,43,0,8
1,43,108,140
1,50,109,4
1,50,0,44
1,43,0,0
1,43,91,140
1,50,101,4
1,50,0,40
1,43,0,4
1,43,109,144
1,50,101,4
1,50,0,40
1,43,0,4
1,43,103,144
1,50,97,4
1,50,0,32
1,43,0,4
1,43,97,148
1,50,107,8
1,50,0,32
1,43,0,8
1,43,111,144
1,50,98,8
1,43,0,24
1,50,0,4
1,50,111,160
1,57,95,4
1,57,0,44
1,50,0,0
1,50,103,144
1,57,86,8
1,57,0,40
1,50,0,0
1,50,105,144
1,57,98,4
1,57,0,40
1,50,0,0
1,50,109,148
1,57,84,4
1,57,0,36
1,50,0,4
1,50,108,144
1,57,95,12
1,57,0,32
1,50,0,0
1,50,108,144
1,57,98,8
1,50,0,36
1,57,0,4
1,50,114,144
1,57,102,12
1,57,0,32
1,50,0,0
