track,note,velocity,time
0,42,50,0
0,42,54,92
0,42,62,92
0,42,64,92
0,42,75,92
0,36,75,0
0,81,40,0
0,70,31,20
0,42,54,20
0,80,35,0
0,70,29,20
0,42,61,20
0,37,75,0
0,81,44,0
0,55,56,20
0,70,35,0
0,46,54,20
0,36,75,0
0,80,36,0
0,70,39,20
0,42,75,20
0,81,40,0
0,70,46,20
0,42,58,20
0,80,44,0
0,70,48,20
0,42,64,20
0,37,75,0
0,81,42,0
0,70,52,20
0,46,54,20
0,36,75,0
0,80,42,0
0,70,58,20
0,42,75,20
0,36,75,0
0,81,40,0
0,70,50,20
0,42,56,20
0,80,42,0
0,70,48,20
0,42,66,20
0,37,75,0
0,54,56,0
0,81,42,0
0,70,52,20
0,42,52,20
0,80,54,0
0,70,40,20
0,42,75,20
0,36,75,0
0,81,39,0
0,70,44,20
0,42,59,20
0,36,75,0
0,75,48,0
0,80,54,0
0,70,42,20
0,75,38,0
0,42,68,20
0,37,75,0
0,81,42,0
0,70,50,20
0,46,54,20
0,75,50,0
0,80,46,0
0,70,48,20
0,56,32,20
0,42,75,0
0,36,75,0
0,81,40,0
0,57,26,20
0,70,31,0
0,61,42,16
0,42,54,0
0,80,35,0
0,64,44,20
0,70,29,0
0,68,36,4
0,42,61,0
0,37,75,0
0,81,44,0
0,69,52,0
0,55,56,0
0,70,35,0
0,73,52,5
0,46,54,0
0,36,75,0
0,80,36,0
0,76,50,20
0,70,39,0
0,80,34,1
0,42,75,0
0,81,40,0
0,81,30,20
0,70,46,0
0,85,30,20
0,42,58,0
0,80,44,0
0,88,34,20
0,70,48,0
0,92,25,20
0,42,64,0
0,37,75,0
0,81,42,0
0,93,46,3
0,70,52,0
0,97,52,10
0,46,54,0
0,36,75,0
0,80,42,0
0,100,48,20
0,70,58,0
0,104,48,12
0,42,75,0
0,36,75,0
0,81,40,0
0,105,52,7
0,70,50,0
0,42,56,20
0,80,42,0
0,70,48,20
0,42,66,20
0,37,75,0
0,54,56,0
0,81,42,0
0,70,52,20
0,42,52,20
0,80,54,0
0,70,40,20
0,42,75,20
0,36,75,0
0,81,39,0
0,70,44,9
0,96,37,20
0,100,45,0
0,42,59,0
0,36,75,0
0,75,48,0
0,80,54,0
0,95,24,12
0,93,39,5
0,70,42,0
0,75,38,0
0,95,45,0
0,95,33,0
0,42,68,0
0,37,75,0
0,81,42,0
0,93,24,4
0,70,50,0
0,90,14,5
0,46,54,0
0,75,50,0
0,80,46,0
0,88,22,20
0,70,48,0
0,30,52,4
0,54,32,0
0,61,40,0
0,66,42,0
0,73,50,0
0,42,75,0
0,36,75,0
0,81,40,0
0,78,56,20
0,70,31,0
0,78,66,17
0,42,54,0
0,80,35,0
0,76,52,7
0,70,29,0
0,78,56,6
0,40,56,0
0,42,61,0
0,81,44,0
0,76,58,6
0,55,56,0
0,70,35,0
0,78,58,4
0,46,54,0
0,80,36,0
0,76,58,5
0,70,39,0
0,37,62,4
0,78,62,0
0,36,64,0
0,42,75,0
0,81,40,0
0,70,46,9
0,76,66,20
0,36,58,0
0,42,58,0
0,80,44,0
0,70,48,8
0,73,62,20
0,40,56,0
0,42,64,0
0,81,42,0
0,70,52,1
0,46,54,0
0,36,46,0
0,80,42,0
0,70,58,8
0,30,48,1
0,42,75,0
0,36,75,0
0,81,40,0
0,78,56,20
0,70,50,0
0,78,62,16
0,42,56,0
0,80,42,0
0,76,56,7
0,70,48,0
0,78,76,7
0,40,56,0
0,42,66,0
0,54,56,0
0,81,42,0
0,70,52,2
0,78,68,20
0,42,52,0
0,80,54,0
0,76,54,4
0,70,40,0
0,30,58,4
0,78,72,0
0,42,75,0
0,36,64,0
0,81,39,0
0,70,44,20
0,76,58,20
0,42,59,0
0,36,49,0
0,75,48,0
0,80,54,0
0,32,56,0
0,70,42,0
0,75,38,0
0,73,62,20
0,40,56,0
0,42,68,0
0,81,42,0
0,70,50,2
0,33,62,20
0,76,62,0
0,36,37,0
0,46,54,0
0,75,50,0
0,80,46,0
0,70,48,1
0,38,64,0
0,76,64,0
0,42,75,0
0,36,75,0
0,81,40,0
0,70,31,10
0,42,54,1
0,80,35,0
0,70,29,20
0,40,56,1
0,42,61,0
0,81,44,0
0,55,56,1
0,70,35,0
0,46,54,7
0,80,36,0
0,70,39,2
0,37,56,1
0,56,42,0
0,68,52,0
0,36,68,0
0,42,75,0
0,81,40,0
0,70,46,0
0,36,51,5
0,42,58,0
0,80,44,0
0,70,48,20
0,78,64,20
0,40,56,0
0,42,64,0
0,81,42,0
0,70,52,20
0,73,68,20
0,46,54,0
0,36,42,0
0,80,42,0
0,70,58,20
0,30,38,1
0,73,66,0
0,58,38,0
0,70,48,0
0,42,75,0
0,36,75,0
0,81,40,0
0,70,50,11
0,42,56,20
0,80,42,0
0,70,48,1
0,40,75,1
0,42,66,0
0,54,56,0
0,81,42,0
0,70,52,20
0,42,52,20
0,80,54,0
0,70,40,1
0,42,75,20
0,36,64,0
0,81,39,0
0,70,44,20
0,42,59,20
0,36,51,0
0,75,48,0
0,80,54,0
0,70,42,1
0,75,38,0
0,40,56,1
0,42,68,0
0,81,42,0
0,40,56,17
0,70,50,0
0,36,44,1
0,46,54,0
0,75,50,0
0,80,46,0
0,40,56,1
0,70,48,0
0,30,52,20
0,54,32,0
0,61,40,0
0,66,42,0
0,73,50,0
0,42,75,0
0,36,75,0
0,81,40,0
0,70,31,20
0,78,64,20
0,42,54,0
0,80,35,0
0,76,62,8
0,70,29,0
0,78,76,12
0,40,56,0
0,42,61,0
0,81,44,0
0,55,56,1
0,70,35,0
0,46,54,6
0,80,36,0
0,76,52,4
0,70,39,0
0,37,62,16
0,78,68,0
0,36,64,0
0,42,75,0
0,81,40,0
0,76,52,7
0,70,46,0
0,78,72,8
0,36,58,0
0,42,58,0
0,80,44,0
0,76,60,3
0,70,48,0
0,73,54,6
0,40,56,0
0,42,64,0
0,81,42,0
0,70,52,20
0,76,60,1
0,46,54,0
0,36,46,0
0,80,42,0
0,70,58,9
0,30,48,1
0,42,75,0
0,36,75,0
0,81,40,0
0,70,50,20
0,78,66,20
0,42,56,0
0,80,42,0
0,76,48,5
0,70,48,0
0,78,68,1
0,40,56,0
0,42,66,0
0,54,56,0
0,81,42,0
0,70,52,1
0,42,52,6
0,80,54,0
0,76,50,1
0,70,40,0
0,30,58,11
0,78,76,0
0,42,75,0
0,36,64,0
0,81,39,0
0,76,58,4
0,70,44,0
0,78,72,7
0,42,59,0
0,36,49,0
0,75,48,0
0,80,54,0
0,32,56,0
0,76,66,0
0,70,42,0
0,75,38,0
0,73,54,3
0,40,56,0
0,42,68,0
0,81,42,0
0,70,50,1
0,33,62,2
0,76,62,0
0,36,37,0
0,46,54,0
0,75,50,0
0,80,46,0
0,70,48,15
0,38,64,0
0,42,75,0
0,36,75,0
0,81,40,0
0,70,31,15
0,42,54,20
0,80,35,0
0,70,29,20
0,78,72,20
0,40,56,0
0,42,61,0
0,81,44,0
0,55,56,20
0,70,35,0
0,76,60,3
0,46,54,0
0,80,36,0
0,70,39,20
0,37,56,20
0,76,66,0
0,56,42,0
0,68,52,0
0,36,68,0
0,42,75,0
0,81,40,0
0,70,46,14
0,78,64,5
0,36,51,0
0,42,58,0
0,80,44,0
0,70,48,4
0,78,76,20
0,40,56,0
0,42,64,0
0,81,42,0
0,70,52,1
0,46,54,1
0,36,42,0
0,80,42,0
0,76,56,5
0,70,58,0
0,30,38,12
0,78,68,0
0,58,38,0
0,70,48,0
0,42,75,0
0,36,75,0
0,81,40,0
0,70,50,6
0,78,80,11
0,42,56,0
0,80,42,0
0,76,56,1
0,70,48,0
0,78,58,20
0,40,75,0
0,42,66,0
0,54,56,0
0,81,42,0
0,70,52,20
0,42,52,1
0,80,54,0
0,70,40,1
0,42,75,1
0,36,64,0
0,81,39,0
0,70,44,2
0,42,59,16
0,36,51,0
0,75,48,0
0,80,54,0
0,70,42,5
0,75,38,0
0,40,56,8
0,42,68,0
0,81,42,0
0,40,56,19
0,70,50,0
0,36,44,1
0,46,54,0
0,75,50,0
0,80,46,0
0,40,56,1
0,70,48,0
0,38,60,20
0,61,48,0
0,66,58,0
0,57,54,0
0,50,56,0
0,85,36,0
0,78,27,0
0,57,56,0
0,66,42,0
0,61,62,0
0,42,75,0
0,36,75,0
0,81,40,0
0,70,31,20
0,42,54,20
0,80,35,0
0,70,29,20
0,78,72,1
0,40,56,0
0,42,61,0
0,81,44,0
0,55,56,20
0,70,35,0
0,46,54,20
0,80,36,0
0,70,39,9
0,37,42,2
0,68,44,0
0,64,62,0
0,59,56,0
0,80,76,0
0,68,62,0
0,64,68,0
0,59,56,0
0,36,64,0
0,42,75,0
0,81,40,0
0,70,46,14
0,36,58,16
0,42,58,0
0,80,44,0
0,70,48,2
0,81,64,2
0,40,56,0
0,42,64,0
0,81,42,0
0,70,52,0
0,28,64,7
0,80,64,0
0,46,54,0
0,36,46,0
0,80,42,0
0,33,62,1
0,70,58,0
0,30,56,8
0,68,40,0
0,69,48,0
0,64,52,0
0,59,38,0
0,69,52,0
0,61,64,0
0,64,60,0
0,42,75,0
0,36,75,0
0,81,40,0
0,70,50,1
0,42,56,19
0,80,42,0
0,70,48,2
0,32,64,0
0,78,42,0
0,40,56,0
0,42,66,0
0,54,56,0
0,81,42,0
0,70,52,1
0,42,52,1
0,80,54,0
0,70,40,12
0,33,62,1
0,42,75,0
0,36,64,0
0,81,39,0
0,45,36,1
0,70,44,0
0,76,62,3
0,45,35,0
0,42,59,0
0,36,49,0
0,75,48,0
0,80,54,0
0,70,42,1
0,75,38,0
0,35,60,2
0,41,52,0
0,40,56,0
0,42,68,0
0,81,42,0
0,40,58,0
0,75,56,0
0,41,52,0
0,70,50,0
0,37,42,0
0,78,68,0
0,36,37,0
0,46,54,0
0,75,50,0
0,80,46,0
0,80,66,11
0,70,48,0
0,38,39,1
0,57,36,0
0,61,52,0
0,66,54,0
0,81,64,0
0,78,35,0
0,66,56,0
0,57,64,0
0,61,66,0
0,42,75,0
0,36,75,0
0,81,40,0
0,80,80,4
0,70,31,0
0,81,54,4
0,42,54,0
0,80,35,0
0,80,84,1
0,70,29,0
0,78,52,0
0,40,56,0
0,42,61,0
0,81,44,0
0,55,56,0
0,70,35,0
0,46,54,1
0,80,36,0
0,70,39,0
0,37,52,1
0,59,46,0
0,68,54,0
0,64,60,0
0,68,64,0
0,64,68,0
0,59,64,0
0,36,68,0
0,42,75,0
0,81,40,0
0,70,46,11
0,36,51,2
0,42,58,0
0,80,44,0
0,70,48,1
0,40,56,1
0,42,64,0
0,81,42,0
0,70,52,3
0,78,66,4
0,46,54,0
0,36,42,0
0,80,42,0
0,80,68,1
0,70,58,0
0,30,58,14
0,69,54,0
0,59,50,0
0,68,52,0
0,64,54,0
0,80,72,0
0,69,66,0
0,61,62,0
0,64,64,0
0,42,75,0
0,36,75,0
0,81,40,0
0,70,50,1
0,80,76,11
0,42,56,0
0,80,42,0
0,70,48,20
0,42,52,1
0,78,54,0
0,40,75,0
0,42,66,0
0,54,56,0
0,81,42,0
0,70,52,1
0,81,68,2
0,42,52,0
0,80,54,0
0,33,56,4
0,70,40,0
0,32,50,2
0,64,52,0
0,68,56,0
0,59,48,0
0,83,80,0
0,59,58,0
0,68,68,0
0,64,62,0
0,42,75,0
0,36,64,0
0,81,39,0
0,45,36,8
0,70,44,0
0,45,35,20
0,42,59,0
0,36,51,0
0,75,48,0
0,80,54,0
0,32,54,1
0,70,42,0
0,75,38,0
0,28,56,2
0,83,68,0
0,41,52,0
0,40,56,0
0,42,68,0
0,81,42,0
0,41,52,1
0,40,56,0
0,70,50,0
0,36,44,1
0,46,54,0
0,75,50,0
0,80,46,0
0,40,56,2
0,70,48,0
0,38,60,2
0,61,48,0
0,66,58,0
0,57,54,0
0,50,56,0
0,85,36,0
0,78,27,0
0,57,68,0
0,61,62,0
0,66,64,0
0,42,75,0
0,36,75,0
0,81,40,0
0,70,31,19
0,42,54,0
0,80,35,0
0,70,29,9
0,78,66,1
0,40,56,0
0,42,61,0
0,81,44,0
0,55,56,20
0,70,35,0
0,78,64,13
0,46,54,0
0,80,36,0
0,70,39,9
0,37,42,3
0,68,44,0
0,64,62,0
0,59,56,0
0,80,66,0
0,68,60,0
0,64,62,0
0,59,56,0
0,36,64,0
0,42,75,0
0,81,40,0
0,70,46,1
0,36,58,1
0,42,58,0
0,80,44,0
0,70,48,1
0,40,56,1
0,42,64,0
0,81,42,0
0,70,52,1
0,28,64,4
0,80,76,0
0,46,54,0
0,36,46,0
0,80,42,0
0,33,62,1
0,70,58,0
0,30,56,1
0,68,40,0
0,69,48,0
0,64,52,0
0,59,38,0
0,81,66,0
0,69,64,0
0,61,62,0
0,64,62,0
0,42,75,0
0,36,75,0
0,81,40,0
0,80,64,0
0,70,50,0
0,81,44,20
0,42,56,0
0,80,42,0
0,80,68,20
0,70,48,0
0,32,64,0
0,78,56,0
0,40,56,0
0,42,66,0
0,54,56,0
0,81,42,0
0,70,52,0
0,42,52,0
0,80,54,0
0,70,40,0
0,33,62,1
0,42,75,0
0,36,64,0
0,81,39,0
0,45,36,3
0,70,44,0
0,76,62,3
0,45,35,0
0,42,59,0
0,36,49,0
0,75,48,0
0,80,54,0
0,70,42,1
0,75,38,0
0,35,60,1
0,41,52,0
0,40,56,0
0,42,68,0
0,81,42,0
0,40,58,0
0,75,54,0
0,41,52,0
0,70,50,0
0,37,42,0
0,78,68,0
0,36,37,0
0,46,54,0
0,75,50,0
0,80,46,0
0,80,64,11
0,70,48,0
0,38,39,0
0,57,36,0
0,61,52,0
0,66,54,0
0,81,64,0
0,78,35,0
0,57,60,0
0,66,62,0
0,61,64,0
0,42,75,0
0,36,75,0
0,81,40,0
0,80,76,1
0,70,31,0
0,81,52,7
0,42,54,0
0,80,35,0
0,80,68,11
0,70,29,0
0,78,54,1
0,40,56,0
0,42,61,0
0,81,44,0
0,55,56,0
0,70,35,0
0,46,54,0
0,80,36,0
0,70,39,1
0,37,52,1
0,59,46,0
0,68,54,0
0,64,60,0
0,68,62,0
0,64,66,0
0,59,58,0
0,36,68,0
0,42,75,0
0,81,40,0
0,70,46,0
0,76,66,0
0,36,51,0
0,42,58,0
0,80,44,0
0,70,48,9
0,76,76,20
0,40,56,0
0,42,64,0
0,81,42,0
0,70,52,20
0,78,64,3
0,46,54,0
0,36,42,0
0,80,42,0
0,70,58,6
0,30,58,1
0,69,54,0
0,59,50,0
0,68,52,0
0,64,54,0
0,73,66,0
0,61,66,0
0,69,66,0
0,64,62,0
0,42,75,0
0,36,75,0
0,81,40,0
0,70,50,11
0,40,56,20
0,42,56,0
0,80,42,0
0,70,48,20
0,42,52,1
0,42,66,0
0,54,56,0
0,81,42,0
0,40,58,0
0,70,52,0
0,42,52,0
0,80,54,0
0,33,56,1
0,70,40,0
0,32,50,2
0,64,52,0
0,68,56,0
0,59,48,0
0,64,54,0
0,68,52,0
0,59,50,0
0,40,54,0
0,42,75,0
0,36,64,0
0,81,39,0
0,45,36,13
0,70,44,0
0,45,35,2
0,42,59,0
0,36,51,0
0,75,48,0
0,80,54,0
0,32,54,4
0,40,56,0
0,70,42,0
0,75,38,0
0,28,56,1
0,41,52,0
0,40,56,0
0,42,68,0
0,81,42,0
0,41,52,1
0,40,56,0
0,70,50,0
0,66,64,2
0,36,44,0
0,46,54,0
0,75,50,0
0,80,46,0
0,69,64,0
0,40,56,0
0,70,48,0
0,71,56,2
0,42,75,0
0,36,75,0
0,81,40,0
0,70,31,0
0,71,60,10
0,42,54,0
0,80,35,0
0,70,29,8
0,71,64,20
0,42,61,0
0,37,75,0
0,81,44,0
0,55,56,1
0,70,35,0
0,46,54,1
0,36,75,0
0,80,36,0
0,70,39,2
0,42,75,4
0,81,40,0
0,70,46,6
0,42,58,20
0,80,44,0
0,70,48,20
0,42,64,3
0,37,75,0
0,81,42,0
0,70,52,1
0,46,54,4
