track,note,velocity,time
0,36,108,1340
0,42,90,0
0,54,81,0
0,46,95,132
0,54,99,0
0,36,119,188
0,38,105,0
0,42,83,0
0,42,75,188
0,54,85,0
0,38,123,92
0,54,90,0
0,36,120,92
0,42,75,0
0,54,84,0
0,46,100,188
0,54,87,0
0,36,120,188
0,38,105,0
0,42,82,0
0,42,76,188
0,54,82,0
0,36,109,188
0,42,91,0
0,54,85,0
0,44,62,0
0,49,65,16
0,46,99,16
0,54,89,0
0,51,69,0
0,49,72,16
0,36,116,16
0,38,108,0
0,42,83,0
0,51,76,0
0,56,79,16
0,42,82,16
0,54,91,0
0,51,83,0
0,38,114,16
0,54,100,0
0,56,86,0
0,36,116,16
0,42,87,0
0,54,91,0
0,56,90,0
0,61,93,16
0,66,122,0
0,46,94,16
0,54,98,0
0,27,105,0
0,63,97,0
0,61,100,16
0,36,121,16
0,38,114,0
0,42,81,0
0,63,103,0
0,68,107,16
0,66,110,0
0,42,93,16
0,54,96,0
0,27,123,0
0,63,110,0
0,42,81,16
0,54,84,0
0,68,114,0
0,68,112,0
0,36,109,8
0,49,107,0
0,54,95,0
0,63,88,0
0,32,123,0
0,80,60,0
0,75,96,0
0,80,91,0
0,61,90,0
0,63,95,0
0,68,93,0
0,68,117,0
0,75,107,8
0,80,97,0
0,46,102,8
0,54,91,0
0,75,62,0
0,75,92,0
0,80,90,0
0,63,92,8
0,75,94,0
0,80,91,0
0,36,114,8
0,38,110,0
0,42,78,0
0,25,112,0
0,78,61,0
0,75,95,0
0,80,102,0
0,75,102,8
0,80,106,0
0,42,76,8
0,54,83,0
0,63,90,0
0,77,72,0
0,75,92,0
0,80,94,0
0,38,116,24
0,54,82,0
0,80,61,0
0,36,114,8
0,42,84,0
0,54,96,0
0,27,104,0
0,78,71,0
0,82,71,24
0,46,89,8
0,54,82,0
0,27,115,8
0,80,59,0
0,36,110,8
0,38,117,0
0,42,85,0
0,80,69,92
0,46,94,24
0,54,92,0
0,30,120,0
0,78,60,0
0,36,117,8
0,42,80,0
0,54,97,0
0,63,86,0
0,85,61,0
0,87,58,24
0,46,94,8
0,54,82,0
0,32,108,0
0,82,68,0
0,63,89,24
0,84,63,0
0,36,119,16
0,38,116,0
0,42,81,0
0,25,110,0
0,75,71,8
0,42,82,8
0,54,100,0
0,63,84,0
0,78,66,0
0,38,121,24
0,54,98,0
0,36,116,8
0,42,90,0
0,54,85,0
0,27,114,0
0,82,64,0
0,85,56,8
0,46,87,8
0,54,96,0
0,63,83,0
0,82,58,0
0,27,105,8
0,78,55,0
0,36,121,8
0,38,105,0
0,42,79,0
0,77,69,8
0,46,91,8
0,54,95,0
0,30,112,0
0,75,67,0
0,54,83,24
0,78,69,0
0,68,111,0
0,36,116,8
0,49,122,0
0,54,81,0
0,63,98,0
0,32,109,0
0,80,61,0
0,80,105,0
0,75,99,0
0,75,105,8
0,80,98,0
0,46,93,8
0,54,87,0
0,75,54,0
0,80,107,0
0,75,102,0
0,63,89,8
0,80,104,0
0,75,93,0
0,36,118,8
0,38,107,0
0,42,88,0
0,25,118,0
0,78,59,0
0,75,102,0
0,80,96,0
0,75,109,8
0,80,91,0
0,42,75,8
0,54,88,0
0,63,100,0
0,77,64,0
0,75,105,0
0,80,98,0
0,38,118,8
0,54,84,0
0,80,62,0
0,36,108,8
0,42,84,0
0,54,83,0
0,27,120,0
0,78,68,0
0,82,71,24
0,46,92,8
0,54,95,0
0,27,104,8
0,80,60,0
0,36,108,8
0,38,120,0
0,42,78,0
0,80,55,92
0,46,87,24
0,54,90,0
0,30,111,0
0,78,58,0
0,36,114,8
0,42,89,0
0,54,93,0
0,63,94,0
0,85,67,0
0,87,55,24
0,46,100,8
0,54,90,0
0,32,109,0
0,82,67,0
0,63,87,24
0,84,58,0
0,36,105,16
0,38,110,0
0,42,91,0
0,25,115,0
0,75,68,8
0,42,85,8
0,54,93,0
0,63,88,0
0,78,73,0
0,38,111,8
0,54,99,0
0,36,118,8
0,42,82,0
0,54,98,0
0,27,115,0
0,82,60,0
0,85,59,8
0,66,119,0
0,46,99,8
0,54,97,0
0,63,87,0
0,82,55,0
0,27,120,8
0,78,54,0
0,36,111,8
0,38,121,0
0,42,80,0
0,77,73,8
0,66,116,8
0,46,90,8
0,54,96,0
0,30,106,0
0,75,69,0
0,54,89,24
0,78,66,0
0,68,118,0
0,36,120,8
0,49,123,0
0,54,92,0
0,63,94,0
0,32,104,0
0,80,64,0
0,80,93,0
0,75,109,0
0,80,102,8
0,75,104,0
0,46,103,8
0,54,81,0
0,75,58,0
0,75,90,0
0,80,103,0
0,63,90,8
0,75,107,0
0,80,91,0
0,36,110,8
0,38,115,0
0,42,90,0
0,25,111,0
0,78,71,0
0,75,96,0
0,80,109,0
0,75,107,8
0,80,102,0
0,42,78,8
0,54,99,0
0,63,86,0
0,77,69,0
0,75,100,0
0,80,90,0
0,38,117,8
0,54,98,0
0,80,64,0
0,36,121,8
0,42,78,0
0,54,81,0
0,27,107,0
0,78,69,0
0,82,57,24
0,46,91,8
0,54,86,0
0,27,107,8
0,80,73,0
0,36,107,8
0,38,112,0
0,42,81,0
0,80,62,92
0,46,89,24
0,54,91,0
0,30,106,0
0,78,70,0
0,36,118,8
0,42,83,0
0,54,88,0
0,63,83,0
0,85,70,0
0,66,107,0
0,87,70,24
0,46,94,8
0,54,88,0
0,32,118,0
0,82,57,0
0,63,90,24
0,84,58,0
0,36,107,16
0,38,107,0
0,42,77,0
0,25,114,0
0,75,55,8
0,42,78,8
0,54,83,0
0,63,97,0
0,78,73,0
0,38,107,8
0,54,87,0
0,36,105,8
0,42,89,0
0,54,100,0
0,27,115,0
0,82,61,0
0,85,72,8
0,46,87,8
0,54,87,0
0,63,86,0
0,82,65,0
0,27,117,8
0,78,71,0
0,36,122,8
0,38,122,0
0,42,84,0
0,77,67,8
0,46,103,8
0,54,99,0
0,30,120,0
0,75,71,0
0,54,92,24
0,78,64,0
0,68,116,0
0,36,111,8
0,49,111,0
0,54,89,0
0,63,89,0
0,32,112,0
0,80,73,0
0,80,102,0
0,75,109,0
0,75,97,8
0,80,107,0
0,46,88,8
0,54,97,0
0,75,69,0
0,75,108,0
0,80,100,0
0,63,95,8
0,75,90,0
0,80,94,0
0,36,116,8
0,38,122,0
0,42,89,0
0,25,108,0
0,78,57,0
0,75,105,0
0,80,108,0
0,75,94,8
0,80,100,0
0,42,82,8
0,54,90,0
0,63,88,0
0,77,67,0
0,80,103,0
0,75,102,0
0,38,105,8
0,54,97,0
0,80,60,0
0,36,119,8
0,42,75,0
0,54,83,0
0,27,115,0
0,78,55,0
0,82,56,24
0,46,103,8
0,54,90,0
0,27,115,8
0,80,64,0
0,36,115,8
0,38,114,0
0,42,88,0
0,80,54,92
0,46,88,24
0,54,82,0
0,30,119,0
0,78,59,0
0,36,114,8
0,38,105,0
0,42,90,0
0,54,100,0
0,63,87,0
0,85,72,0
0,73,94,0
0,38,109,24
0,87,58,0
0,38,117,8
0,46,93,0
0,54,91,0
0,39,117,0
0,82,57,0
0,38,110,24
0,63,82,0
0,84,64,0
0,36,111,16
0,38,122,0
0,42,82,0
0,39,104,0
0,75,64,8
0,38,122,8
0,42,82,0
0,54,92,0
0,63,86,0
0,78,58,0
0,38,116,8
0,54,90,0
0,36,121,8
0,42,82,0
0,54,91,0
0,39,117,0
0,82,58,0
0,38,121,8
0,85,60,0
0,38,114,8
0,46,102,0
0,54,94,0
0,63,95,0
0,82,64,0
0,38,108,8
0,39,105,0
0,78,64,0
0,36,113,8
0,38,105,0
0,42,88,0
0,38,109,8
0,77,57,0
0,38,115,8
0,46,93,0
0,54,98,0
0,39,123,0
0,75,65,0
0,38,122,24
0,54,91,0
0,78,64,0
0,68,110,0
0,36,113,8
0,49,114,0
0,54,97,0
0,63,93,0
0,32,109,0
0,75,103,0
0,80,94,0
0,87,82,0
0,92,99,0
0,75,108,8
0,80,95,0
0,46,98,8
0,54,99,0
0,56,90,0
0,75,109,0
0,80,97,0
0,63,99,8
0,56,95,0
0,75,97,0
0,80,105,0
0,36,116,8
0,38,114,0
0,42,78,0
0,30,109,0
0,75,100,0
0,80,95,0
0,75,91,8
0,80,99,0
0,42,82,8
0,54,91,0
0,63,88,0
0,56,96,0
0,75,102,0
0,80,105,0
0,38,117,48
0,54,93,0
0,36,105,16
0,42,83,0
0,54,85,0
0,28,121,0
0,46,86,16
0,54,82,0
0,56,97,0
0,56,93,92
0,28,108,0
0,36,121,16
0,38,109,0
0,42,83,0
0,56,97,92
0,46,91,92
0,54,81,0
0,56,87,0
0,27,113,0
0,36,110,16
0,42,87,0
0,54,98,0
0,63,96,0
0,46,86,188
0,54,94,0
0,56,100,0
0,32,110,0
0,63,100,92
0,56,93,0
0,36,121,16
0,38,109,0
0,42,92,0
0,30,117,0
0,42,75,188
0,54,92,0
0,63,81,0
0,56,82,0
0,38,105,92
0,54,92,0
0,36,105,16
0,42,78,0
0,54,82,0
0,28,123,0
0,46,95,16
0,54,83,0
0,63,98,0
0,56,93,0
0,56,94,92
0,28,119,0
0,36,107,16
0,38,116,0
0,42,93,0
0,89,85,0
0,56,92,92
0,46,87,92
0,54,85,0
0,56,91,0
0,27,122,0
0,54,99,92
0,36,113,8
0,42,75,0
0,54,86,0
0,63,83,0
0,32,117,0
0,80,100,0
0,75,101,0
0,87,90,0
0,92,86,0
0,75,92,8
0,80,96,0
0,46,84,8
0,54,81,0
0,56,92,0
0,80,90,0
0,75,105,0
0,63,92,8
0,56,97,0
0,80,92,0
0,75,104,0
0,36,106,8
0,38,117,0
0,42,93,0
0,30,123,0
0,75,95,0
0,80,93,0
0,75,109,8
0,80,104,0
0,42,82,8
0,54,97,0
0,63,86,0
0,56,84,0
0,75,91,0
0,80,100,0
0,38,105,48
0,54,99,0
0,36,111,16
0,42,85,0
0,54,85,0
0,28,114,0
0,46,93,16
0,54,82,0
0,56,98,0
0,56,86,92
0,28,122,0
0,36,108,16
0,38,112,0
0,42,92,0
0,56,86,92
0,46,91,92
0,54,85,0
0,56,96,0
0,27,108,0
0,36,105,16
0,42,90,0
0,54,98,0
0,63,99,0
0,46,95,188
0,54,94,0
0,56,86,0
0,32,110,0
0,63,82,92
0,56,95,0
0,36,114,16
0,38,122,0
0,42,93,0
0,30,106,0
0,42,79,188
0,54,99,0
0,63,82,0
0,56,94,0
0,38,117,92
0,54,95,0
0,56,91,0
0,36,121,16
0,42,87,0
0,54,93,0
0,28,123,0
0,63,121,0
0,46,101,16
0,54,83,0
0,63,82,0
0,56,98,0
0,56,84,24
0,28,104,0
0,36,123,16
0,38,122,0
0,42,90,0
0,89,81,0
0,56,94,92
0,66,119,76
0,38,109,16
0,46,93,0
0,54,81,0
0,56,100,0
0,27,120,0
0,38,110,24
0,54,93,0
0,68,127,0
0,36,106,8
0,42,89,0
0,54,92,0
0,63,98,0
0,32,119,0
0,80,97,0
0,75,94,0
0,87,97,0
0,92,82,0
0,80,104,8
0,75,101,0
0,46,99,8
0,54,93,0
0,56,97,0
0,75,92,0
0,80,100,0
0,63,95,8
0,56,82,0
0,75,94,0
0,80,105,0
0,36,116,8
0,38,116,0
0,42,87,0
0,30,118,0
0,75,99,0
0,80,107,0
0,75,105,8
0,80,93,0
0,42,92,8
0,54,89,0
0,63,92,0
0,56,84,0
0,75,101,0
0,80,94,0
0,38,115,48
0,54,96,0
0,36,107,16
0,42,74,0
0,54,83,0
0,28,109,0
0,46,95,16
0,54,81,0
0,56,88,0
0,56,92,92
0,28,109,0
0,36,115,16
0,38,107,0
0,42,75,0
0,46,94,188
0,54,99,0
0,56,99,0
0,27,116,0
0,36,118,16
0,42,92,0
0,54,81,0
0,63,91,0
0,46,94,188
0,54,81,0
0,56,100,0
0,32,122,0
0,63,86,92
0,56,81,0
0,36,115,16
0,38,112,0
0,42,76,0
0,30,108,0
0,42,84,188
0,54,88,0
0,63,96,0
0,56,87,0
0,38,117,92
0,54,98,0
0,36,107,16
0,42,74,0
0,54,82,0
0,28,115,0
0,46,85,16
0,54,93,0
0,63,90,0
0,56,96,0
0,56,95,92
0,28,122,0
0,36,104,16
0,38,104,0
0,42,91,0
0,89,99,0
0,46,92,188
0,54,95,0
0,56,81,0
0,27,116,0
0,54,95,92
0,36,115,8
0,42,81,0
0,54,92,0
0,63,93,0
0,32,118,0
0,80,107,0
0,75,104,0
0,87,84,0
0,92,90,0
0,75,94,8
0,80,96,0
0,46,99,8
0,54,94,0
0,56,95,0
0,75,95,0
0,80,98,0
0,63,88,8
0,56,92,0
0,75,106,0
0,80,108,0
0,36,111,8
0,38,120,0
0,42,90,0
0,30,114,0
0,75,96,0
0,80,95,0
0,75,103,8
0,80,102,0
0,42,75,8
0,54,96,0
0,63,92,0
0,56,98,0
0,80,104,0
0,75,90,0
0,38,112,48
0,54,98,0
0,36,110,16
0,42,89,0
0,54,85,0
0,28,105,0
0,46,97,16
0,54,98,0
0,56,83,0
0,56,99,92
0,28,116,0
0,36,104,16
0,38,120,0
0,42,89,0
0,46,87,188
0,54,87,0
0,56,86,0
0,27,113,0
0,36,119,16
0,38,119,0
0,42,78,0
0,54,85,0
0,63,96,0
0,38,109,92
0,66,124,76
0,38,116,16
0,46,97,0
0,54,90,0
0,56,84,0
0,32,109,0
0,38,109,24
0,63,96,0
0,56,81,0
0,36,121,16
0,38,116,0
0,42,79,0
0,30,122,0
0,66,114,172
0,38,121,16
0,42,77,0
0,54,85,0
0,63,90,0
0,56,96,0
0,38,107,24
0,54,91,0
0,56,87,0
0,36,105,16
0,42,79,0
0,54,88,0
0,28,120,0
0,38,105,92
0,66,126,0
0,38,108,16
0,46,85,0
0,54,89,0
0,63,91,0
0,56,84,0
0,38,117,24
0,56,90,0
0,28,106,0
0,36,108,16
0,38,113,0
0,42,91,0
0,38,116,92
0,56,87,0
0,66,113,8
0,38,106,16
0,46,90,0
0,54,86,0
0,56,95,0
0,27,120,0
0,38,108,24
0,54,92,0
0,68,115,0
0,36,118,8
0,42,80,0
0,54,89,0
0,63,90,0
0,32,112,0
0,75,96,0
0,80,94,0
0,75,94,8
0,80,99,0
0,46,94,8
0,54,91,0
0,75,100,0
0,80,91,0
0,63,97,8
0,75,106,0
0,80,104,0
0,36,112,8
0,38,110,0
0,42,84,0
0,32,118,0
0,75,90,0
0,80,96,0
0,60,114,0
0,75,91,8
0,80,91,0
0,42,91,8
0,54,98,0
0,63,84,0
0,75,107,0
0,80,98,0
0,61,107,16
0,38,120,32
0,54,95,0
0,36,123,16
0,42,79,0
0,54,85,0
0,25,117,0
0,63,123,0
0,46,94,16
0,54,87,0
0,25,120,92
0,36,108,16
0,38,104,0
0,42,81,0
0,46,95,188
0,54,96,0
0,27,114,0
0,36,121,16
0,42,75,0
0,54,88,0
0,63,83,0
0,60,111,0
0,46,85,188
0,54,83,0
0,32,105,0
0,61,119,16
0,63,92,32
0,36,122,16
0,38,110,0
0,42,88,0
0,32,109,0
0,63,121,0
0,42,81,188
0,54,91,0
0,63,94,0
0,65,105,16
0,38,107,32
0,54,81,0
0,36,110,16
0,42,86,0
0,54,89,0
0,25,114,0
0,66,109,0
0,46,98,16
0,54,99,0
0,63,83,0
0,65,104,0
0,25,107,92
0,36,113,16
0,38,106,0
0,42,79,0
0,63,114,0
0,46,88,16
0,54,86,0
0,27,114,0
0,65,108,0
0,54,81,92
0,36,115,8
0,42,78,0
0,54,85,0
0,63,88,0
0,32,113,0
0,80,106,0
0,75,102,0
0,75,107,8
0,80,106,0
0,46,84,8
0,54,86,0
0,80,105,0
0,75,108,0
0,66,111,0
0,63,90,8
0,80,98,0
0,75,98,0
0,36,107,8
0,38,110,0
0,42,83,0
0,32,109,0
0,75,109,0
0,80,106,0
0,68,120,0
0,75,96,8
0,80,94,0
0,42,85,8
0,54,96,0
0,63,83,0
0,75,108,0
0,80,102,0
0,66,112,0
0,38,112,48
0,54,92,0
0,36,112,16
0,42,79,0
