track,note,velocity,time
0,46,110,274
0,53,98,0
0,56,98,0
0,58,110,0
0,62,114,0
0,65,110,0
0,46,0,190
0,53,0,0
0,56,0,0
0,58,0,0
0,62,0,0
0,65,0,0
0,46,110,2
0,53,90,0
0,56,118,0
0,58,102,0
0,62,98,0
0,65,118,0
0,46,0,153
0,53,0,0
0,56,0,0
0,58,0,0
0,62,0,0
0,65,0,0
0,46,98,2
0,53,94,0
0,56,114,0
0,58,90,0
0,65,82,0
0,58,0,18
0,53,0,1
0,56,0,0
0,65,0,4
0,46,0,1
0,46,90,13
0,53,70,0
0,58,90,0
0,65,82,0
0,53,0,17
0,46,0,1
0,58,0,0
0,65,0,5
0,46,110,36
0,53,94,0
0,56,122,37
0,58,118,0
0,62,118,0
0,65,122,0
0,46,0,94
0,53,0,0
0,46,106,2
0,53,70,0
0,56,0,62
0,58,0,0
0,62,0,0
0,65,0,0
0,56,114,34
0,58,98,0
0,62,90,0
0,65,86,0
0,46,0,94
0,53,0,0
0,56,0,0
0,58,0,0
0,62,0,0
0,65,0,0
0,46,106,2
0,53,86,0
0,56,114,0
0,58,106,0
0,63,114,0
0,65,106,0
0,46,0,27
0,53,0,0
0,56,0,0
0,58,0,0
0,63,0,0
0,65,0,0
0,46,98,2
0,53,94,0
0,56,110,0
0,58,98,0
0,63,90,0
0,65,94,0
0,46,0,94
0,53,0,0
0,56,0,0
0,58,0,0
0,63,0,0
0,65,0,0
0,46,94,2
0,53,70,0
0,56,114,0
0,58,110,0
0,63,94,0
0,65,114,0
0,46,0,94
0,53,0,0
0,56,0,0
0,58,0,0
0,63,0,0
0,65,0,0
0,46,102,2
0,53,86,0
0,56,102,0
0,58,90,0
0,62,118,0
0,65,102,0
0,46,0,190
0,53,0,0
0,56,0,0
0,58,0,0
0,62,0,0
0,65,0,0
0,46,110,2
0,53,86,0
0,56,110,0
0,58,102,0
0,46,0,89
0,53,0,5
0,56,0,0
0,58,0,0
0,46,81,2
0,46,0,6
0,51,110,1
0,63,62,1
0,66,59,0
0,58,44,1
0,58,118,10
0,63,118,0
0,66,114,0
0,58,90,1
0,66,0,7
0,63,0,2
0,58,0,1
0,58,0,17
0,58,0,8
0,51,0,1
0,66,0,3
0,63,0,0
0,51,102,1
0,58,110,0
0,63,110,0
0,66,114,0
0,63,0,15
0,58,0,2
0,66,0,4
0,51,0,10
0,58,90,5
0,49,98,1
0,58,39,1
0,61,58,0
0,65,55,0
0,49,0,16
0,49,78,10
0,49,0,10
0,58,0,20
0,49,110,4
0,58,70,0
0,56,81,1
0,58,0,7
0,65,0,5
0,61,0,11
0,58,0,5
0,56,0,14
0,54,70,9
0,56,118,1
0,61,114,0
0,65,110,0
0,49,0,6
0,54,0,7
0,56,80,9
0,49,110,1
0,56,0,16
0,56,0,2
0,61,0,10
0,65,0,2
0,49,0,2
0,58,68,6
0,63,63,0
0,48,110,1
0,58,59,0
0,54,38,1
0,58,0,3
0,54,118,7
0,58,114,0
0,63,118,0
0,63,0,2
0,54,0,9
0,48,0,1
0,54,0,5
0,58,0,4
0,63,0,2
0,58,0,1
0,48,94,13
0,54,114,0
0,58,106,0
0,63,114,0
0,58,0,13
0,54,0,2
0,63,0,3
0,48,0,5
0,54,40,13
0,63,35,0
0,47,94,1
0,59,64,1
0,47,0,10
0,47,90,10
0,47,0,10
0,56,78,23
0,47,122,1
0,54,0,1
0,59,0,6
0,63,0,1
0,56,0,15
0,54,68,9
0,54,118,1
0,59,114,0
0,63,114,0
0,47,0,11
0,54,0,0
0,56,77,3
0,47,106,1
0,54,0,21
0,59,0,17
0,63,0,4
0,47,0,5
0,63,57,2
0,58,38,1
0,51,110,1
0,66,45,0
0,58,118,10
0,63,118,0
0,66,118,0
0,56,0,13
0,66,0,1
0,63,0,2
0,58,0,4
0,54,78,16
0,58,0,5
0,51,0,4
0,66,0,0
0,63,0,3
0,51,102,14
0,58,110,0
0,63,102,0
0,66,102,0
0,63,0,6
0,58,0,7
0,54,0,1
0,66,0,4
0,51,0,11
0,61,55,6
0,56,80,1
0,58,40,0
0,65,53,0
0,49,102,1
0,49,0,9
0,49,70,10
0,49,0,8
0,56,0,12
0,58,71,11
0,49,114,1
0,65,0,16
0,61,0,7
0,58,0,1
0,58,0,1
0,56,114,9
0,61,106,0
0,65,110,0
0,49,0,9
0,58,70,16
0,49,110,1
0,56,0,30
0,58,0,11
0,65,0,4
0,58,32,4
0,60,57,0
0,63,52,0
0,48,110,2
0,61,0,0
0,49,0,4
0,54,78,23
0,63,0,5
0,60,0,10
0,58,0,1
0,54,118,10
0,58,102,0
0,63,110,0
0,48,0,16
0,48,86,12
0,54,0,2
0,58,0,0
0,63,0,6
0,48,0,16
0,59,64,12
0,63,55,0
0,46,98,1
0,56,37,1
0,54,0,6
0,46,0,11
0,46,98,24
0,53,98,0
0,58,118,0
0,63,118,0
0,59,0,8
0,63,0,4
0,56,0,13
0,53,0,7
0,63,0,5
0,53,82,5
0,62,110,0
0,58,52,2
0,56,45,1
0,62,54,0
0,46,0,7
0,53,0,8
0,62,0,15
0,56,0,5
0,58,0,3
0,54,87,16
0,46,94,1
0,53,90,0
0,53,0,16
0,58,0,11
0,62,0,0
0,54,0,4
0,46,0,5
0,51,94,35
0,58,85,1
0,66,66,0
0,58,51,1
0,63,51,0
0,58,0,3
0,63,0,7
0,58,0,2
0,66,0,3
0,58,75,6
0,58,110,1
0,63,118,0
0,66,114,0
0,58,0,9
0,58,90,16
0,58,0,1
0,66,0,5
0,63,0,4
0,51,0,1
0,58,0,3
0,51,102,14
0,58,110,0
0,63,114,0
0,66,110,0
0,63,0,12
0,58,0,1
0,66,0,5
0,51,0,5
0,49,86,14
0,61,57,0
0,58,45,1
0,65,62,0
0,49,0,3
0,49,98,0
0,49,0,2
0,58,75,15
0,49,114,1
0,65,0,6
0,61,0,8
0,58,0,3
0,58,0,17
0,56,118,10
0,61,110,0
0,65,118,0
0,49,0,21
0,56,81,16
0,49,106,1
0,56,0,17
0,56,0,15
0,65,0,9
0,61,0,11
0,49,0,11
0,48,102,1
0,58,59,1
0,63,56,0
0,54,40,1
0,56,85,23
0,56,0,17
0,54,75,9
0,54,114,1
0,58,110,0
0,63,114,0
0,58,0,7
0,63,0,0
0,54,0,12
0,54,0,2
0,56,85,16
0,48,0,3
0,54,0,2
0,58,0,8
0,63,0,3
0,48,82,14
0,54,118,0
0,58,114,0
0,63,118,0
0,58,0,16
0,54,0,2
0,63,0,6
0,48,0,1
0,54,50,11
0,59,69,0
0,63,47,0
0,47,86,1
0,47,0,8
0,56,0,14
0,47,82,10
0,59,0,3
0,63,0,0
0,54,0,5
0,47,0,4
0,47,114,24
0,54,98,0
0,54,0,8
0,40,26,10
0,54,114,0
0,59,118,0
0,63,110,0
0,54,100,1
0,40,0,8
0,54,0,5
0,47,0,17
0,47,86,17
0,54,85,1
0,54,0,16
0,54,0,5
0,59,0,12
0,47,0,6
0,63,0,4
0,51,86,6
0,58,78,0
0,58,61,1
0,53,57,1
0,62,58,0
0,58,0,9
0,58,84,24
0,58,0,17
0,53,106,6
0,58,110,0
0,63,118,0
0,58,98,1
0,58,0,8
0,58,80,16
0,51,0,6
0,53,0,6
0,58,0,0
0,63,0,2
0,58,0,17
0,53,102,14
0,58,114,0
0,63,114,0
0,58,0,7
0,53,0,3
0,63,0,6
0,58,92,7
0,53,0,9
0,58,0,3
0,62,0,8
0,58,0,4
0,56,92,19
0,51,22,1
0,53,98,0
0,58,102,0
0,63,114,0
0,56,0,23
0,56,90,9
0,56,0,24
0,56,45,14
0,51,0,1
0,53,0,0
0,58,0,0
0,63,0,0
0,54,73,1
0,53,94,1
0,58,86,0
0,63,110,0
0,54,0,21
0,53,0,28
0,58,0,0
0,63,0,0
0,56,84,1
0,53,98,1
0,58,102,0
0,62,114,0
0,58,45,2
0,62,60,0
0,65,69,1
0,56,0,11
0,58,84,12
0,58,0,18
0,53,0,6
0,58,0,0
0,62,0,0
0,58,87,1
0,53,94,1
0,58,94,0
0,62,98,0
0,53,0,12
0,58,0,0
0,62,0,0
0,53,82,2
0,58,106,0
0,61,78,0
0,62,94,0
0,61,0,8
0,62,0,5
0,58,0,5
0,53,0,3
0,53,114,10
0,58,110,0
0,62,122,0
0,65,0,7
0,58,0,1
0,62,0,0
0,56,0,12
0,58,0,5
0,53,0,9
0,53,102,17
0,53,0,6
0,58,0,2
0,62,0,5
0,44,78,24
0,44,78,0
0,54,45,1
0,59,92,0
0,59,72,0
0,63,56,0
0,56,81,1
0,56,81,0
0,56,114,5
0,66,110,1
0,59,114,1
0,63,118,0
0,63,96,3
0,66,0,25
0,56,0,1
0,63,0,4
0,59,0,5
0,56,114,13
0,59,90,0
0,63,102,0
0,66,106,0
0,56,0,1
0,54,0,6
0,59,0,2
0,63,0,9
0,56,90,20
0,59,0,1
0,56,0,13
0,63,0,5
0,59,0,1
0,63,0,12
0,66,0,14
0,63,96,19
0,59,96,2
0,59,118,2
0,63,114,0
0,63,90,1
0,63,0,2
0,63,0,10
0,59,0,0
0,59,0,1
0,61,96,3
0,65,104,2
0,61,114,10
0,65,110,0
0,63,0,1
0,65,90,4
0,65,0,2
0,65,0,15
0,63,84,14
0,65,0,1
0,66,88,2
0,63,106,2
0,66,110,0
0,61,0,1
0,66,90,15
0,61,0,4
0,59,4,20
0,63,0,9
0,66,0,19
0,59,0,2
0,66,0,9
0,61,102,1
0,66,0,2
0,44,0,6
0,44,0,0
0,56,48,0
0,63,0,0
0,58,66,1
0,65,68,0
0,46,84,1
0,46,84,0
0,56,0,0
0,56,0,0
0,58,84,0
0,58,84,0
0,61,88,1
0,65,101,1
0,65,110,0
0,65,88,1
0,56,106,2
0,58,98,13
0,56,0,10
0,65,0,3
0,65,0,6
0,61,0,3
0,65,0,5
0,65,0,1
0,56,0,1
0,58,0,1
0,61,0,13
0,65,86,9
0,56,82,17
0,65,0,28
0,68,106,2
0,65,114,1
0,65,0,1
0,65,93,1
0,65,104,1
0,68,92,0
0,56,0,3
0,65,0,4
0,68,0,1
0,66,110,10
0,70,114,1
0,66,100,1
0,70,104,0
0,68,0,5
0,65,0,5
0,66,84,0
0,58,0,5
0,66,0,12
0,66,0,7
0,70,0,1
0,66,0,1
0,68,100,0
0,65,100,2
0,68,102,2
0,70,0,1
0,65,102,1
0,65,90,16
0,65,0,14
0,68,0,2
0,68,0,7
0,65,0,22
0,65,0,4
0,63,92,9
0,66,92,1
0,68,102,3
0,65,106,1
0,46,0,1
0,46,0,0
0,58,0,0
0,58,0,0
0,51,86,2
0,51,86,0
0,63,86,0
0,63,86,0
0,65,94,1
0,58,55,2
0,63,61,0
0,66,63,0
0,65,0,2
0,63,75,13
0,68,0,6
0,63,81,3
0,65,0,12
0,63,0,11
0,58,110,13
0,61,110,0
0,66,110,0
0,58,0,9
0,63,0,2
0,66,0,2
0,58,0,15
0,61,0,4
0,66,0,1
0,63,0,5
0,66,0,8
0,58,86,9
0,61,102,0
0,66,110,0
0,61,0,9
0,58,0,9
0,66,0,0
0,54,98,19
0,58,106,0
0,54,0,11
0,58,0,6
0,54,110,13
0,58,106,0
0,58,0,6
0,54,0,1
0,63,0,6
0,58,114,2
0,61,114,0
0,66,110,0
0,58,82,16
0,58,0,5
0,51,0,48
0,51,0,0
0,63,0,0
0,63,0,0
0,58,0,1
0,61,0,0
0,66,0,0
0,53,89,1
0,53,89,0
0,56,56,0
0,61,68,0
0,63,98,0
0,65,67,0
0,65,89,0
0,65,89,0
0,56,90,4
0,56,0,9
0,56,90,2
0,65,0,12
0,56,0,1
0,61,0,11
0,63,0,12
0,56,0,8
0,61,88,1
0,56,114,4
0,61,114,0
0,65,118,0
0,61,0,14
0,56,94,2
0,56,0,5
0,65,0,1
0,61,0,1
0,56,0,3
0,56,118,14
0,61,118,0
0,65,90,0
0,65,0,8
0,56,0,9
0,61,0,1
0,58,46,13
0,63,66,0
0,66,62,1
0,53,58,1
0,56,102,0
0,61,110,0
0,53,0,15
0,56,0,3
0,61,0,2
0,53,98,10
0,56,102,0
0,61,106,0
0,61,0,0
0,56,0,2
0,66,0,0
0,53,0,4
0,63,0,6
0,58,0,4
0,56,82,7
0,56,110,2
0,61,114,0
0,65,102,0
0,56,0,3
0,54,74,6
0,61,66,2
0,56,51,1
0,65,60,0
0,56,0,5
0,54,0,1
0,65,0,9
0,61,0,2
0,56,0,3
0,56,87,13
0,56,70,4
0,53,0,24
0,53,0,0
0,65,0,0
0,65,0,0
0,54,91,1
0,54,91,0
0,61,0,0
0,66,91,0
0,66,91,0
0,56,0,3
0,65,0,0
0,54,47,1
0,59,68,0
0,63,56,0
0,54,114,1
0,59,102,0
0,63,114,0
0,54,0,11
0,59,0,0
0,63,0,0
0,56,0,1
0,54,118,1
0,59,106,0
0,63,106,0
0,54,82,16
0,63,110,3
0,59,94,2
0,54,0,9
0,54,0,6
0,59,0,0
0,63,0,0
0,54,94,2
0,59,66,0
0,54,0,10
0,59,0,0
0,59,0,16
0,63,0,6
0,56,84,1
0,61,110,2
0,65,102,4
0,54,0,7
0,59,0,4
0,63,0,0
0,56,0,9
0,61,0,14
0,58,82,2
0,65,0,1
0,54,118,1
0,59,106,0
0,63,114,0
0,61,118,16
0,65,118,3
0,58,0,20
0,61,0,24
0,65,0,7
0,61,106,9
0,65,118,1
0,58,90,17
0,54,0,1
0,59,0,0
0,63,0,0
0,56,110,2
0,61,102,0
0,65,110,0
0,63,106,2
0,66,114,8
0,65,0,1
0,61,0,2
0,68,94,46
0,68,94,0
0,54,0,1
0,54,0,0
0,56,94,0
0,56,94,0
0,66,0,0
0,66,0,0
0,61,56,3
0,56,57,1
0,66,61,0
0,56,0,1
0,61,0,0
0,65,0,0
0,56,98,2
0,61,102,0
0,66,98,0
0,66,0,4
0,61,110,5
0,65,118,2
0,63,0,8
0,59,90,0
0,56,0,12
0,66,0,2
0,61,0,1
0,59,0,11
0,56,110,2
0,59,90,0
0,61,110,0
0,66,106,0
0,56,0,6
0,66,0,0
0,61,0,3
0,58,0,13
0,61,0,16
0,65,0,5
0,56,0,15
0,59,0,0
0,61,0,0
0,66,0,0
0,56,102,2
0,59,70,0
0,61,78,0
0,66,90,0
0,56,0,16
0,59,0,0
0,66,0,3
0,61,0,1
0,65,90,13
0,56,110,2
0,59,98,0
0,61,114,0
0,66,118,0
0,65,0,11
0,66,70,5
0,56,0,11
0,66,0,3
0,66,0,4
0,59,0,5
0,61,0,1
0,65,76,16
0,56,90,4
0,59,90,0
0,61,90,0
0,66,90,0
0,65,0,7
0,68,0,29
0,68,0,0
0,56,0,1
0,56,0,0
0,58,97,5
0,58,97,0
0,65,95,0
0,70,97,0
0,70,97,0
0,56,0,2
0,59,0,0
0,61,0,0
0,66,0,0
0,54,46,1
0,59,71,0
0,56,92,1
0,59,92,0
0,61,92,0
0,63,54,0
0,63,82,25
0,65,0,3
0,56,0,11
0,59,0,0
0,61,0,0
0,54,114,2
0,58,110,0
0,59,110,0
0,63,118,0
0,54,0,2
0,59,0,10
0,63,0,3
0,54,0,13
0,63,0,1
0,58,0,5
0,59,0,0
0,54,114,17
0,58,86,0
0,63,102,0
0,63,0,9
0,54,0,25
0,58,0,0
0,51,77,3
0,54,77,0
0,58,77,0
0,54,0,9
0,58,0,0
0,63,0,0
0,51,0,9
0,51,76,13
0,54,76,0
0,58,76,0
0,54,0,3
0,58,0,1
0,51,0,2
0,54,118,2
0,58,110,0
0,59,106,0
0,63,118,0
0,54,0,8
0,58,0,0
0,59,0,0
0,63,0,0
0,54,106,2
0,58,106,0
0,59,106,0
0,63,106,0
0,54,0,12
0,58,0,0
0,59,0,0
0,63,0,0
0,58,73,4
0,54,83,4
0,59,83,0
0,63,83,0
0,58,0,9
0,54,0,15
0,59,0,8
0,63,0,7
0,58,0,18
0,58,0,0
0,70,0,0
0,70,0,0
0,56,59,2
0,61,68,0
0,61,99,0
0,61,99,0
