track,note,velocity,time
0,30,83,1151
0,30,72,147
0,30,80,167
0,28,59,39
0,30,73,184
0,28,72,133
0,30,83,192
0,30,72,145
0,30,80,175
0,28,57,35
0,30,78,192
0,28,60,135
0,30,83,192
0,30,72,147
0,30,80,183
0,28,57,23
0,30,81,192
0,28,72,133
0,30,83,3
0,30,72,145
0,30,80,175
0,28,54,35
0,30,70,192
0,28,60,135
0,30,83,192
0,35,107,0
0,54,107,0
0,61,56,0
0,70,88,0
0,42,80,0
0,54,54,33
0,70,44,0
0,44,80,0
0,54,90,35
0,61,15,0
0,70,80,0
0,42,68,0
0,30,72,51
0,35,107,0
0,54,54,0
0,60,44,0
0,70,68,0
0,44,80,0
0,38,71,35
0,54,107,0
0,70,88,0
0,42,76,0
0,54,60,39
0,44,80,0
0,70,64,0
0,30,80,21
0,35,107,12
0,54,90,0
0,70,80,0
0,42,68,0
0,54,60,41
0,60,56,0
0,44,84,0
0,70,72,0
0,54,107,31
0,70,88,0
0,42,80,0
0,28,59,8
0,54,57,29
0,60,40,0
0,44,84,0
0,70,72,0
0,30,73,31
0,35,107,0
0,54,93,0
0,70,84,0
0,42,76,0
0,52,57,0
0,54,55,39
0,61,36,0
0,44,80,0
0,70,80,0
0,38,67,29
0,54,107,0
0,60,20,0
0,70,84,0
0,42,72,0
0,54,60,25
0,60,48,0
0,44,88,0
0,70,72,0
0,28,72,33
0,35,107,0
0,54,90,0
0,61,44,0
0,70,84,0
0,42,68,0
0,54,50,1
0,61,52,0
0,44,84,0
0,70,76,0
0,30,83,25
0,35,107,0
0,54,107,0
0,61,48,0
0,42,80,0
0,70,92,0
0,54,52,27
0,44,88,0
0,70,80,0
0,54,90,29
0,61,12,0
0,70,84,0
0,42,72,0
0,30,72,31
0,35,107,0
0,54,52,0
0,60,48,0
0,44,84,0
0,70,80,0
0,38,67,25
0,54,107,0
0,70,88,0
0,42,80,0
0,54,52,19
0,44,88,0
0,70,76,0
0,30,80,15
0,35,107,12
0,54,87,0
0,70,88,0
0,42,80,0
0,54,46,33
0,60,36,0
0,44,88,0
0,70,80,0
0,28,57,31
0,54,107,0
0,70,92,0
0,42,84,0
0,54,46,35
0,60,44,0
0,44,92,0
0,70,80,0
0,30,78,33
0,35,107,0
0,54,87,0
0,70,88,0
0,42,76,0
0,54,55,39
0,61,40,0
0,44,88,0
0,70,72,0
0,38,71,35
0,54,107,0
0,60,44,0
0,70,88,0
0,42,76,0
0,54,57,29
0,60,28,0
0,70,76,0
0,44,96,0
0,28,60,27
0,35,107,0
0,54,87,0
0,61,28,0
0,70,88,0
0,42,72,0
0,54,57,33
0,61,40,0
0,44,84,0
0,70,80,0
0,30,83,33
0,35,107,0
0,54,107,0
0,61,52,0
0,42,80,0
0,70,92,0
0,54,57,27
0,44,84,0
0,70,80,0
0,54,87,25
0,61,20,0
0,42,76,0
0,70,84,0
0,30,72,33
0,35,107,0
0,54,55,0
0,60,45,0
0,44,84,0
0,70,76,0
0,38,63,3
0,54,107,0
0,42,76,0
0,70,88,0
0,54,55,23
0,70,64,0
0,44,80,0
0,30,80,9
0,35,107,12
0,54,84,0
0,70,88,0
0,42,76,0
0,54,60,33
0,60,28,0
0,44,80,0
0,70,68,0
0,28,57,19
0,54,107,0
0,70,88,0
0,42,80,0
0,54,58,23
0,60,44,0
0,70,68,0
0,44,84,0
0,30,81,9
0,35,107,0
0,54,87,0
0,42,80,0
0,70,92,0
0,52,57,0
0,54,55,35
0,61,28,0
0,44,88,0
0,70,72,0
0,38,63,27
0,54,107,0
0,60,44,0
0,42,80,0
0,70,84,0
0,54,60,27
0,60,28,0
0,44,88,0
0,70,76,0
0,28,72,29
0,35,107,0
0,54,87,0
0,61,24,0
0,70,80,0
0,42,80,0
0,54,66,31
0,61,52,0
0,44,80,0
0,70,72,0
0,30,83,3
0,35,107,0
0,54,107,0
0,61,44,0
0,70,88,0
0,42,88,0
0,54,55,17
0,44,88,0
0,70,72,0
0,54,84,29
0,61,18,0
0,42,80,0
0,70,80,0
0,30,72,31
0,35,107,0
0,54,52,0
0,60,48,0
0,44,84,0
0,70,72,0
0,38,63,21
0,54,107,0
0,42,80,0
0,70,88,0
0,54,57,17
0,44,80,0
0,70,68,0
0,30,80,5
0,35,107,12
0,54,87,0
0,70,88,0
0,42,76,0
0,54,52,35
0,60,40,0
0,44,84,0
0,70,72,0
0,28,54,23
0,54,107,0
0,70,88,0
0,42,80,0
0,54,54,19
0,60,8,0
0,44,80,0
0,70,72,0
0,30,70,19
0,35,107,0
0,54,87,0
0,70,88,0
0,42,72,0
0,54,49,31
0,61,48,0
0,44,88,0
0,70,72,0
0,38,63,21
0,54,107,0
0,60,40,0
0,42,76,0
0,70,88,0
0,54,49,19
0,60,48,0
0,44,84,0
0,70,72,0
0,28,60,19
0,35,107,0
0,54,87,0
0,61,32,0
0,42,80,0
0,70,88,0
0,54,52,29
0,61,32,0
0,44,88,0
0,70,72,0
0,83,38,11
0,54,43,4
0,50,26,0
0,62,92,0
0,57,36,0
0,30,83,0
0,35,107,0
0,54,107,0
0,61,56,0
0,70,88,0
0,42,80,0
0,54,54,33
0,70,44,0
0,44,80,0
0,83,16,15
0,54,90,20
0,61,15,0
0,70,80,0
0,42,68,0
0,83,16,31
0,30,72,20
0,35,107,0
0,54,54,0
0,60,44,0
0,70,68,0
0,44,80,0
0,83,37,15
0,38,82,20
0,54,107,0
0,70,88,0
0,42,76,0
0,54,60,39
0,44,80,0
0,70,64,0
0,83,16,13
0,30,80,8
0,35,107,12
0,54,90,0
0,70,80,0
0,42,68,0
0,83,16,21
0,54,60,20
0,60,56,0
0,44,84,0
0,70,72,0
0,83,41,11
0,54,107,20
0,70,88,0
0,42,80,0
0,28,59,8
0,54,57,29
0,60,40,0
0,44,84,0
0,70,72,0
0,83,16,11
0,30,73,20
0,35,107,0
0,54,93,0
0,70,84,0
0,42,76,0
0,52,57,0
0,83,16,19
0,54,55,20
0,61,36,0
0,44,80,0
0,70,80,0
0,83,40,9
0,38,78,20
0,54,107,0
0,60,20,0
0,70,84,0
0,42,72,0
0,54,60,25
0,60,48,0
0,44,88,0
0,70,72,0
0,83,22,13
0,28,72,1
0,54,90,0
0,61,44,0
0,70,84,0
0,42,68,0
0,35,107,12
0,83,19,15
0,54,50,20
0,61,52,0
0,44,84,0
0,70,76,0
0,83,37,5
0,49,37,2
0,54,36,6
0,57,38,6
0,61,85,1
0,30,83,0
0,35,107,0
0,54,107,0
0,61,48,0
0,42,80,0
0,70,92,0
0,54,52,27
0,44,88,0
0,70,80,0
0,83,22,9
0,54,90,20
0,61,12,0
0,70,84,0
0,42,72,0
0,83,19,11
0,30,72,20
0,35,107,0
0,54,52,0
0,60,48,0
0,44,84,0
0,70,80,0
0,83,41,5
0,38,78,20
0,54,107,0
0,70,88,0
0,42,80,0
0,54,52,19
0,44,88,0
0,70,76,0
0,83,22,7
0,30,80,8
0,35,107,12
0,54,87,0
0,70,88,0
0,42,80,0
0,83,22,13
0,54,46,20
0,60,36,0
0,44,88,0
0,70,80,0
0,83,43,11
0,28,57,20
0,54,107,0
0,70,92,0
0,42,84,0
0,54,46,35
0,60,44,0
0,44,92,0
0,70,80,0
0,83,22,13
0,30,78,20
0,35,107,0
0,54,87,0
0,70,88,0
0,42,76,0
0,83,22,19
0,54,55,20
0,61,40,0
0,44,88,0
0,70,72,0
0,83,43,15
0,38,82,20
0,54,107,0
0,60,44,0
0,70,88,0
0,42,76,0
0,54,57,29
0,60,28,0
0,70,76,0
0,44,96,0
0,83,24,7
0,28,60,20
0,54,87,0
0,61,28,0
0,70,88,0
0,42,72,0
0,35,107,1
0,83,24,9
0,54,57,20
0,61,40,0
0,44,84,0
0,70,80,0
0,50,25,13
0,83,46,0
0,54,29,6
0,57,33,6
0,62,93,8
0,30,83,0
0,35,107,0
0,54,107,0
0,61,52,0
0,42,80,0
0,70,92,0
0,54,57,27
0,44,84,0
0,70,80,0
0,83,24,5
0,54,87,20
0,61,20,0
0,42,76,0
0,70,84,0
0,83,16,13
0,30,72,20
0,35,107,0
0,54,55,0
0,60,45,0
0,44,84,0
0,70,76,0
0,83,46,11
0,38,74,3
0,54,107,0
0,42,76,0
0,70,88,0
0,54,55,23
0,70,64,0
0,44,80,0
0,83,22,1
0,30,80,8
0,35,107,12
0,54,84,0
0,70,88,0
0,42,76,0
0,83,22,13
0,54,60,20
0,60,28,0
0,44,80,0
0,70,68,0
0,83,46,3
0,28,57,19
0,54,107,0
0,70,88,0
0,42,80,0
0,54,58,23
0,60,44,0
0,70,68,0
0,44,84,0
0,83,16,1
0,30,81,9
0,35,107,0
0,54,87,0
0,42,80,0
0,70,92,0
0,52,57,0
0,83,24,15
0,54,55,20
0,61,28,0
0,44,88,0
0,70,72,0
0,83,52,7
0,38,74,20
0,54,107,0
0,60,44,0
0,42,80,0
0,70,84,0
0,64,90,4
0,54,60,27
0,60,28,0
0,44,88,0
0,70,76,0
0,83,14,9
0,28,72,3
0,35,107,0
0,54,87,0
0,61,24,0
0,70,80,0
0,42,80,0
0,83,19,11
0,54,66,20
0,61,52,0
0,44,80,0
0,70,72,0
0,49,24,1
0,83,43,6
0,54,29,2
0,57,31,8
0,61,86,1
0,30,83,0
0,35,107,0
0,54,107,0
0,61,44,0
0,70,88,0
0,42,88,0
0,54,55,17
0,44,88,0
0,70,72,0
0,83,30,1
0,54,84,28
0,61,18,0
0,42,80,0
0,70,80,0
0,83,30,3
0,30,72,28
0,35,107,0
0,54,52,0
0,60,48,0
0,44,84,0
0,70,72,0
0,83,49,11
0,38,74,21
0,54,107,0
0,42,80,0
0,70,88,0
0,54,57,17
0,44,80,0
0,70,68,0
0,83,24,5
0,30,80,5
0,35,107,12
0,54,87,0
0,70,88,0
0,42,76,0
0,83,22,7
0,54,52,28
0,60,40,0
0,44,84,0
0,70,72,0
0,83,45,7
0,28,54,23
0,54,107,0
0,70,88,0
0,42,80,0
0,54,54,19
0,60,8,0
0,44,80,0
0,70,72,0
0,83,30,9
0,30,70,19
0,35,107,0
0,54,87,0
0,70,88,0
0,42,72,0
0,83,22,3
0,54,49,28
0,61,48,0
0,44,88,0
0,70,72,0
0,83,41,7
0,38,74,21
0,54,107,0
0,60,40,0
0,42,76,0
0,70,88,0
0,54,49,19
0,60,48,0
0,44,84,0
0,70,72,0
0,83,22,5
0,28,60,19
0,54,87,0
0,61,32,0
0,42,80,0
0,70,88,0
0,35,107,14
0,83,22,1
0,54,52,11
0,61,32,0
0,44,88,0
0,70,72,0
0,83,38,1
0,54,61,15
0,50,44,0
0,62,110,0
0,57,54,0
0,30,83,0
0,54,96,0
0,35,107,0
0,54,107,0
0,61,56,0
0,70,88,0
0,42,80,0
0,54,54,33
0,70,44,0
0,44,80,0
0,83,16,15
0,54,84,17
0,54,90,0
0,61,15,0
0,70,80,0
0,42,68,0
0,83,16,31
0,30,72,20
0,56,96,0
0,35,107,0
0,54,54,0
0,60,44,0
0,70,68,0
0,44,80,0
0,83,37,15
0,54,96,20
0,38,82,0
0,54,107,0
0,70,88,0
0,42,76,0
0,54,60,39
0,44,80,0
0,70,64,0
0,83,16,1
0,30,80,8
0,54,92,12
0,35,107,0
0,54,90,0
0,70,80,0
0,42,68,0
0,83,16,21
0,56,96,1
0,54,60,0
0,60,56,0
0,44,84,0
0,70,72,0
0,83,41,11
0,54,92,20
0,54,107,0
0,70,88,0
0,42,80,0
0,28,59,8
0,56,76,29
0,54,57,0
0,60,40,0
0,44,84,0
0,70,72,0
0,83,16,11
0,30,73,20
0,54,64,0
0,35,107,0
0,54,93,0
0,70,84,0
0,42,76,0
0,52,57,0
0,83,16,19
0,57,95,1
0,54,55,0
0,61,36,0
0,44,80,0
0,70,80,0
0,83,40,3
0,38,78,1
0,54,107,0
0,60,20,0
0,70,84,0
0,42,72,0
0,54,60,7
0,60,48,0
0,44,88,0
0,70,72,0
0,83,22,1
0,28,72,1
0,54,90,0
0,61,44,0
0,70,84,0
0,42,68,0
0,35,92,1
0,83,19,1
0,54,50,1
0,61,52,0
0,44,84,0
0,70,76,0
0,83,37,3
0,49,55,2
0,54,54,3
0,57,56,6
0,61,103,1
0,30,83,0
0,54,92,0
0,35,107,0
0,54,107,0
0,61,48,0
0,42,80,0
0,70,92,0
0,54,52,27
0,44,88,0
0,70,80,0
0,83,22,9
0,54,100,20
0,54,90,0
0,61,12,0
0,70,84,0
0,42,72,0
0,83,19,11
0,30,72,20
0,56,88,0
0,35,107,0
0,54,52,0
0,60,48,0
0,44,84,0
0,70,80,0
0,83,41,5
0,54,96,20
0,38,78,0
0,54,107,0
0,70,88,0
0,42,80,0
0,54,52,19
0,44,88,0
0,70,76,0
0,83,22,7
0,30,80,8
0,54,100,12
0,35,107,0
0,54,87,0
0,70,88,0
0,42,80,0
0,83,22,1
0,56,96,1
0,54,46,0
0,60,36,0
0,44,88,0
0,70,80,0
0,83,43,3
0,28,57,20
0,54,96,0
0,61,82,0
0,54,107,0
0,70,92,0
0,42,84,0
0,56,76,3
0,54,46,0
0,60,44,0
0,44,92,0
0,70,80,0
0,83,22,13
0,30,78,1
0,54,88,0
0,35,107,0
0,54,87,0
0,70,88,0
0,42,76,0
0,83,22,11
0,57,95,13
0,54,55,0
0,61,40,0
0,44,88,0
0,70,72,0
0,83,43,15
0,61,86,20
0,38,82,0
0,54,107,0
0,60,44,0
0,70,88,0
0,42,76,0
0,54,57,1
0,60,28,0
0,70,76,0
0,44,96,0
0,83,24,7
0,28,60,3
0,54,87,0
0,61,28,0
0,70,88,0
0,42,72,0
0,35,92,3
0,83,24,1
0,54,57,1
0,61,40,0
0,44,84,0
0,70,80,0
0,50,43,1
0,83,46,0
0,54,47,3
0,57,51,1
0,62,111,3
0,30,83,0
0,54,92,0
0,35,107,0
0,54,107,0
0,61,52,0
0,42,80,0
0,70,92,0
0,54,57,1
0,44,84,0
0,70,80,0
0,83,24,5
0,54,92,20
0,54,87,0
0,61,20,0
0,42,76,0
0,70,84,0
0,83,16,13
0,30,72,20
0,56,92,0
0,35,107,0
0,54,55,0
0,60,45,0
0,44,84,0
0,70,76,0
0,83,46,11
0,54,96,3
0,38,74,0
0,54,107,0
0,42,76,0
0,70,88,0
0,54,55,23
0,70,64,0
0,44,80,0
0,83,22,1
0,30,80,8
0,54,100,12
0,35,107,0
0,54,84,0
0,70,88,0
0,42,76,0
0,83,22,13
0,56,96,5
0,54,60,0
0,60,28,0
0,44,80,0
0,70,68,0
0,83,46,3
0,28,57,19
0,54,88,0
0,54,107,0
0,70,88,0
0,42,80,0
0,56,80,23
0,54,58,0
0,60,44,0
0,70,68,0
0,44,84,0
0,83,16,1
0,30,81,9
0,54,88,0
0,35,107,0
0,54,87,0
0,42,80,0
0,70,92,0
0,52,57,0
0,83,24,15
0,57,101,5
0,54,55,0
0,61,28,0
0,44,88,0
0,70,72,0
0,83,52,1
0,38,74,1
0,54,107,0
0,60,44,0
0,42,80,0
0,70,84,0
0,64,108,1
0,54,60,3
0,60,28,0
0,44,88,0
0,70,76,0
0,83,14,9
0,28,72,3
0,35,92,0
0,54,87,0
0,61,24,0
0,70,80,0
0,42,80,0
0,83,19,1
0,54,66,1
0,61,52,0
0,44,80,0
0,70,72,0
0,49,42,1
0,83,43,3
0,54,47,1
0,57,49,1
0,61,104,1
0,30,83,0
0,54,100,0
0,35,107,0
0,54,107,0
0,61,44,0
0,70,88,0
0,42,88,0
0,54,55,3
0,44,88,0
0,70,72,0
0,83,30,1
0,54,96,28
0,54,84,0
0,61,18,0
0,42,80,0
0,70,80,0
0,83,30,3
0,30,72,28
0,56,92,0
0,35,107,0
0,54,52,0
0,60,48,0
0,44,84,0
0,70,72,0
0,83,49,11
0,54,92,21
0,38,74,0
0,54,107,0
0,42,80,0
0,70,88,0
0,54,57,17
0,44,80,0
0,70,68,0
0,83,24,5
0,30,80,5
0,54,92,12
0,35,107,0
0,54,87,0
