track,note,velocity,time
1,79,102,4802
1,75,85,0
1,70,98,0
1,79,0,140
1,70,0,5
1,75,0,2
1,77,98,179
1,73,95,0
1,68,87,0
1,73,0,75
1,68,0,4
1,77,0,2
1,75,87,103
1,68,85,0
1,72,100,0
1,68,0,97
1,72,0,5
1,75,0,3
1,79,102,1
1,70,93,0
1,75,82,0
1,79,0,261
1,70,0,4
1,75,0,6
1,68,98,10
1,73,93,0
1,77,98,1
1,73,0,66
1,77,0,4
1,68,0,1
1,72,102,16
1,75,100,0
1,68,100,0
1,68,0,50
1,68,113,51
1,68,0,56
1,68,110,56
1,72,0,2
1,75,0,10
1,68,0,21
1,70,98,27
1,75,100,0
1,79,102,0
1,79,0,308
1,70,0,5
1,75,0,1
1,73,95,67
1,77,100,0
1,68,91,1
1,73,0,94
1,68,0,1
1,77,0,2
1,75,87,99
1,72,102,0
1,68,95,1
1,68,0,101
1,72,0,5
1,75,0,2
1,75,80,1
1,79,98,1
1,70,98,0
1,79,0,288
1,75,0,10
1,70,0,1
1,68,110,85
1,77,102,0
1,73,105,0
1,73,0,100
1,68,0,2
1,77,0,3
1,75,93,91
1,72,105,0
1,68,93,0
1,68,0,116
1,72,0,1
1,75,0,1
1,70,98,40
1,75,85,0
1,79,102,0
1,79,0,139
1,70,0,5
1,75,0,2
1,77,98,179
1,73,95,0
1,68,87,0
1,73,0,75
1,68,0,4
1,77,0,2
1,75,87,103
1,68,85,0
1,72,100,0
1,68,0,97
1,72,0,5
1,75,0,3
1,79,102,1
1,70,93,0
1,75,82,0
1,79,0,261
1,70,0,4
1,75,0,6
1,68,98,10
1,73,93,1
1,77,98,0
1,73,0,66
1,77,0,4
1,68,0,1
1,72,102,16
1,75,100,0
1,68,100,0
1,68,0,50
1,68,113,51
1,68,0,56
1,68,110,56
1,72,0,2
1,75,0,10
1,68,0,21
1,70,98,27
1,75,100,0
1,79,102,1
1,79,0,308
1,70,0,5
1,75,0,1
1,73,95,67
1,77,100,0
1,68,91,0
1,73,0,94
1,68,0,1
1,77,0,2
1,75,87,99
1,72,102,0
1,68,95,0
1,68,0,101
1,72,0,5
1,75,0,2
1,75,80,1
1,79,98,0
1,70,98,0
1,79,0,288
1,75,0,10
1,70,0,1
1,68,110,85
1,77,102,0
1,73,105,0
1,73,0,100
1,68,0,2
1,77,0,3
1,75,93,91
1,72,105,0
1,68,93,0
1,68,0,116
1,72,0,1
1,75,0,1
1,70,98,37
1,75,85,1
1,79,102,0
1,79,0,138
1,70,0,5
1,75,0,2
1,77,98,180
1,73,95,0
1,68,87,0
1,73,0,75
1,68,0,4
1,77,0,2
1,75,87,103
1,68,85,0
1,72,100,0
1,68,0,97
1,72,0,5
1,75,0,3
1,79,102,1
1,70,93,0
1,75,82,1
1,79,0,261
1,70,0,4
1,75,0,5
1,68,98,10
1,73,93,0
1,77,98,0
1,73,0,66
1,77,0,4
1,68,0,1
1,72,102,16
1,75,100,0
1,68,100,0
1,68,0,50
1,68,113,51
1,68,0,56
1,68,110,56
1,72,0,2
1,75,0,10
1,68,0,21
1,70,98,27
1,75,100,1
1,79,102,0
1,79,0,308
1,70,0,5
1,75,0,1
1,73,95,67
1,77,100,0
1,68,91,0
1,73,0,94
1,68,0,1
1,77,0,2
1,75,87,99
1,72,102,0
1,68,95,0
1,68,0,101
1,72,0,5
1,75,0,2
1,75,80,1
1,79,98,0
1,70,98,0
1,79,0,288
1,75,0,10
1,70,0,1
1,67,100,37
1,72,100,1
1,75,100,0
1,67,0,99
1,72,0,1
1,75,0,2
1,67,105,270
1,72,107,0
1,76,113,0
1,72,0,108
1,76,0,5
1,67,0,0
1,75,119,282
1,72,107,0
1,68,105,0
1,68,0,203
1,72,0,0
1,75,0,8
1,74,110,182
1,77,113,0
1,70,105,1
1,77,0,95
1,70,0,3
1,74,0,0
1,70,105,319
1,74,107,0
1,77,122,0
1,79,110,1
1,70,0,84
1,74,0,9
1,77,0,15
1,79,0,3
1,68,102,324
1,79,119,0
1,72,107,0
1,75,98,1
1,79,0,349
1,75,0,2
1,72,0,0
1,68,0,1
1,79,110,83
1,72,102,0
1,68,95,0
1,75,95,1
1,68,0,262
1,79,0,1
1,72,0,0
1,75,0,3
1,75,113,23
1,70,110,0
1,79,102,1
1,79,0,31
1,70,0,4
1,75,0,4
1,70,100,18
1,77,100,0
1,74,107,0
1,70,0,276
1,70,107,36
1,70,0,88
1,70,107,17
1,74,0,13
1,77,0,5
1,70,0,49
1,65,100,3
1,70,107,1
1,74,107,0
1,82,119,254
1,70,0,55
1,74,0,4
1,65,0,1
1,82,0,10
1,74,107,42
1,67,113,0
1,71,116,1
1,67,0,375
1,74,0,3
1,71,0,4
1,75,119,68
1,72,107,0
1,67,107,0
1,75,0,102
1,72,0,3
1,67,0,2
1,65,107,24
1,70,113,0
1,74,107,1
1,74,0,145
1,70,0,1
1,65,0,0
1,65,102,30
1,69,105,0
1,72,107,0
1,69,0,189
1,72,0,17
1,77,113,59
1,81,105,69
1,77,0,5
1,65,0,47
1,77,102,3
1,81,0,6
1,77,0,50
1,65,105,4
1,75,127,0
1,68,102,0
1,75,0,147
1,72,119,55
1,72,0,62
1,74,107,6
1,68,0,15
1,65,0,7
1,75,110,34
1,74,0,0
1,75,0,29
1,70,102,27
1,75,122,0
1,67,95,1
1,75,0,218
1,75,119,39
1,75,0,61
1,77,95,8
1,79,95,55
1,77,0,9
1,70,0,0
1,67,0,10
1,79,0,3
1,70,107,35
1,75,113,0
1,79,110,0
1,75,0,47
1,79,0,1
1,70,0,5
1,74,113,40
1,77,107,0
1,74,0,22
1,77,0,3
1,77,110,6
1,70,105,0
1,74,113,1
1,74,0,203
1,77,0,1
1,70,0,10
1,79,107,17
1,70,107,0
1,75,122,0
1,75,0,67
1,70,0,1
1,79,0,1
1,74,110,38
1,77,113,0
1,74,0,18
1,77,0,7
1,74,110,6
1,70,107,0
1,77,102,1
1,77,0,261
1,74,0,5
1,70,0,17
1,70,105,5
1,65,102,0
1,74,116,1
1,74,0,385
1,70,0,2
1,65,0,5
1,67,110,6
1,71,122,0
1,74,116,0
1,71,0,111
1,74,0,4
1,67,0,4
1,83,100,201
1,83,0,19
1,72,105,1
1,75,102,0
1,67,102,2
1,67,0,12
1,75,0,1
1,72,0,0
1,70,113,1
1,65,107,0
1,74,105,0
1,74,0,138
1,65,0,1
1,70,0,3
1,65,105,38
1,69,113,0
1,72,107,1
1,69,0,85
1,72,0,9
1,65,0,8
1,72,116,225
1,72,0,50
1,77,102,8
1,77,0,55
1,65,105,2
1,68,107,0
1,75,127,0
1,75,0,255
1,72,119,10
1,68,0,6
1,65,0,4
1,72,0,48
1,74,107,8
1,74,0,47
1,75,116,8
1,75,0,23
1,75,122,37
1,70,95,0
1,67,105,0
1,75,0,196
1,75,127,69
1,75,0,54
1,77,102,12
1,70,0,5
1,67,0,19
1,79,100,34
1,77,0,1
1,79,0,20
1,79,107,36
1,75,119,0
1,70,107,0
1,75,0,45
1,79,0,2
1,70,0,7
1,74,107,33
1,77,110,0
1,74,0,20
1,77,0,5
1,74,110,5
1,77,113,0
1,70,107,1
1,77,0,198
1,74,0,1
1,70,0,12
1,70,107,10
1,79,105,0
1,75,119,0
1,75,0,67
1,79,0,0
1,70,0,23
1,74,113,12
1,77,110,1
1,74,0,22
1,77,0,4
1,74,110,33
1,77,113,0
1,74,0,52
1,77,0,8
1,61,127,125
1,61,0,35
1,62,122,42
1,62,0,19
1,79,102,17
1,75,85,0
1,70,98,1
1,79,0,139
1,70,0,5
1,75,0,2
1,77,98,179
1,73,95,0
1,68,87,1
1,73,0,75
1,68,0,4
1,77,0,2
1,75,87,103
1,68,85,0
1,72,100,0
1,68,0,97
1,72,0,5
1,75,0,3
1,79,102,1
1,70,93,0
1,75,82,0
1,79,0,261
1,70,0,4
1,75,0,5
1,68,98,10
1,73,93,0
1,77,98,0
1,73,0,66
1,77,0,4
1,68,0,1
1,72,102,16
1,75,100,0
1,68,100,0
1,68,0,50
1,68,113,51
1,68,0,56
1,68,110,56
1,72,0,2
1,75,0,10
1,68,0,21
1,70,98,27
1,75,100,0
1,79,102,1
1,79,0,308
1,70,0,5
1,75,0,1
1,73,95,67
1,77,100,0
1,68,91,0
1,73,0,94
1,68,0,1
1,77,0,2
1,75,87,99
1,72,102,0
1,68,95,0
1,68,0,101
1,72,0,5
1,75,0,2
1,75,80,2
1,79,98,0
1,70,98,0
1,79,0,288
1,75,0,10
1,70,0,1
1,68,110,85
1,77,102,0
1,73,105,0
1,73,0,100
1,68,0,2
1,77,0,3
1,75,93,91
1,72,105,0
1,68,93,0
1,68,0,116
1,72,0,1
1,75,0,1
1,70,98,40
1,75,85,0
1,79,102,0
1,79,0,139
1,70,0,5
1,75,0,2
1,77,98,179
1,73,95,0
1,68,87,0
1,73,0,75
1,68,0,4
1,77,0,2
1,75,87,103
1,68,85,0
1,72,100,0
1,68,0,97
1,72,0,5
1,75,0,3
1,79,102,1
1,70,93,0
1,75,82,1
1,79,0,261
1,70,0,4
1,75,0,5
1,68,98,10
1,73,93,0
1,77,98,0
1,73,0,66
1,77,0,4
1,68,0,1
1,72,102,16
1,75,100,0
1,68,100,0
1,68,0,50
1,68,113,51
1,68,0,56
1,68,110,56
1,72,0,2
1,75,0,10
1,68,0,21
1,70,98,27
1,75,100,0
1,79,102,1
1,79,0,308
1,70,0,5
1,75,0,1
1,73,95,67
1,77,100,0
1,68,91,0
1,73,0,94
1,68,0,1
1,77,0,2
1,75,87,99
1,72,102,0
1,68,95,0
1,68,0,101
1,72,0,5
1,75,0,2
1,75,80,1
1,79,98,0
1,70,98,0
1,79,0,288
1,75,0,10
1,70,0,1
1,68,110,85
1,77,102,0
1,73,105,0
1,73,0,100
1,68,0,2
1,77,0,3
1,75,93,91
1,72,105,0
1,68,93,0
1,68,0,116
1,72,0,1
1,75,0,1
1,70,98,37
1,75,85,0
1,79,102,1
1,79,0,138
1,70,0,5
1,75,0,2
1,77,98,180
1,73,95,0
1,68,87,0
1,73,0,75
1,68,0,4
1,77,0,2
1,75,87,103
1,68,85,0
1,72,100,0
1,68,0,97
1,72,0,5
1,75,0,3
1,79,102,1
1,70,93,0
1,75,82,0
1,79,0,261
1,70,0,4
1,75,0,6
1,68,98,10
1,73,93,0
1,77,98,1
1,73,0,66
1,77,0,4
1,68,0,1
1,72,102,16
1,75,100,0
1,68,100,0
1,68,0,50
1,68,113,51
1,68,0,56
1,68,110,56
1,72,0,2
1,75,0,10
1,68,0,21
1,70,98,27
1,75,100,0
1,79,102,0
1,79,0,308
1,70,0,5
1,75,0,1
1,73,95,67
1,77,100,0
1,68,91,0
1,73,0,94
1,68,0,1
1,77,0,2
1,75,87,99
1,72,102,0
1,68,95,0
1,68,0,101
1,72,0,5
1,75,0,2
1,75,80,1
1,79,98,0
1,70,98,1
1,79,0,288
1,75,0,10
1,70,0,1
1,67,100,38
1,72,100,0
1,75,100,0
1,67,0,99
1,72,0,1
1,75,0,1
1,67,105,271
1,72,107,0
1,76,113,1
1,72,0,108
1,76,0,5
1,67,0,0
1,75,119,282
1,72,107,0
1,68,105,1
1,68,0,203
1,72,0,0
1,75,0,8
1,74,110,182
1,77,113,0
1,70,105,0
1,77,0,95
1,70,0,3
1,74,0,0
1,70,105,319
1,74,107,0
1,77,122,0
1,79,110,1
1,70,0,84
1,74,0,9
1,77,0,15
1,79,0,3
1,68,102,324
1,79,119,0
1,72,107,0
1,75,98,0
1,79,0,349
1,75,0,2
1,72,0,0
1,68,0,1
1,79,110,83
1,72,102,0
1,68,95,0
1,75,95,1
1,68,0,262
1,79,0,1
1,72,0,0
1,75,0,3
1,75,113,23
1,70,110,0
1,79,102,0
1,79,0,31
1,70,0,4
1,75,0,4
1,70,100,18
1,77,100,0
1,74,107,0
1,70,0,276
1,70,107,36
1,70,0,88
1,70,107,17
1,74,0,13
1,77,0,5
1,70,0,49
1,65,100,3
1,70,107,1
1,74,107,0
1,82,119,254
1,70,0,55
1,74,0,4
1,65,0,1
1,82,0,9
1,74,107,43
1,67,113,0
1,71,116,0
1,67,0,375
1,74,0,3
1,71,0,4
1,75,119,68
1,72,107,0
1,67,107,1
1,75,0,102
1,72,0,3
1,67,0,2
1,65,107,24
1,70,113,0
1,74,107,1
1,74,0,145
1,70,0,1
1,65,0,0
1,65,102,30
1,69,105,0
1,72,107,0
1,69,0,189
1,72,0,17
1,77,113,59
1,81,105,69
1,77,0,5
1,65,0,47
1,77,102,3
1,81,0,6
1,77,0,50
1,65,105,4
1,75,127,0
1,68,102,0
1,75,0,147
1,72,119,55
1,72,0,62
1,74,107,6
1,68,0,15
1,65,0,6
1,74,0,34
1,75,110,1
1,75,0,29
1,70,102,27
1,75,122,0
1,67,95,0
1,75,0,218
1,75,119,39
1,75,0,61
1,77,95,8
1,79,95,55
1,77,0,9
1,70,0,0
1,67,0,10
1,79,0,2
1,70,107,36
1,75,113,0
1,79,110,0
1,75,0,47
1,79,0,1
1,70,0,4
1,74,113,41
1,77,107,0
1,74,0,22
1,77,0,3
1,77,110,6
1,70,105,0
1,74,113,0
1,74,0,204
1,77,0,1
1,70,0,10
1,79,107,17
1,70,107,0
1,75,122,0
1,75,0,67
1,70,0,1
1,79,0,1
1,74,110,38
1,77,113,0
1,74,0,18
1,77,0,7
1,74,110,6
1,70,107,0
1,77,102,0
1,77,0,262
1,74,0,5
1,70,0,17
1,70,105,5
1,65,102,0
1,74,116,0
1,74,0,385
1,70,0,1
1,65,0,6
1,67,110,6
1,71,122,0
1,74,116,0
1,71,0,111
1,74,0,4
1,67,0,4
1,83,100,201
1,83,0,19
1,72,105,1
1,75,102,0
1,67,102,2
1,67,0,12
1,75,0,1
1,72,0,0
1,70,113,1
1,65,107,0
1,74,105,0
1,74,0,142
1,65,0,0
1,70,0,1
1,65,105,37
1,69,113,0
1,72,107,1
1,69,0,85
1,72,0,9
1,65,0,8
1,72,116,225
1,72,0,50
1,77,102,8
1,77,0,55
1,65,105,2
1,68,107,0
1,75,127,1
1,75,0,255
1,72,119,10
1,68,0,6
1,65,0,5
1,72,0,47
1,74,107,8
1,74,0,47
1,75,116,8
1,75,0,23
1,75,122,37
1,70,95,0
1,67,105,0
1,75,0,196
1,75,127,69
1,75,0,54
1,77,102,12
1,70,0,5
1,67,0,19
1,79,100,34
1,77,0,1
1,79,0,20
1,79,107,36
1,75,119,0
1,70,107,0
1,75,0,45
1,79,0,2
1,70,0,7
1,74,107,33
1,77,110,0
1,74,0,20
1,77,0,5
1,74,110,5
1,77,113,0
1,70,107,0
1,77,0,199
1,74,0,1
1,70,0,12
1,70,107,10
1,79,105,0
1,75,119,0
1,75,0,67
1,79,0,1
1,70,0,22
1,74,113,13
1,77,110,0
1,74,0,22
1,77,0,4
1,74,110,6
1,77,113,0
1,74,0,28
1,77,0,8
1,61,127,125
1,61,0,35
1,62,122,42
1,62,0,19
1,70,105,6
1,65,102,0
1,74,116,0
1,74,0,385
1,70,0,1
1,65,0,5
1,67,110,6
1,71,122,1
1,74,116,0
1,71,0,111
1,74,0,4
1,67,0,4
1,83,100,201
1,83,0,19
1,72,105,1
1,75,102,1
1,67,102,1
1,67,0,12
1,75,0,1
1,72,0,0
1,70,113,1
1,65,107,0
1,74,105,0
1,74,0,138
1,65,0,1
1,70,0,3
1,65,105,38
1,69,113,0
1,72,107,0
1,69,0,85
1,72,0,9
1,65,0,8
1,72,116,225
1,72,0,50
1,77,102,8
1,77,0,55
1,65,105,2
1,68,107,0
1,75,127,1
1,75,0,256
1,72,119,9
1,68,0,6
1,65,0,5
1,72,0,47
1,74,107,8
1,74,0,47
1,75,116,8
1,75,0,23
1,75,122,37
1,70,95,0
1,67,105,0
1,75,0,167
1,75,127,69
1,75,0,53
1,77,102,13
1,70,0,5
1,67,0,19
1,79,100,34
1,77,0,1
1,79,0,20
1,79,107,36
1,75,119,0
1,70,107,0
1,75,0,45
