track,note,velocity,time
2,30,52,2199
2,37,62,192
2,30,48,1
2,30,58,33
2,32,56,0
2,33,62,72
2,38,64,0
2,37,56,192
2,30,38,191
2,30,52,39
2,37,62,192
2,30,48,1
2,30,58,33
2,32,56,0
2,33,62,72
2,38,64,0
2,37,56,192
2,30,38,191
2,38,60,39
2,37,42,6
2,28,64,8
2,33,62,24
2,30,56,18
2,32,64,0
2,33,62,96
2,35,60,89
2,40,58,0
2,37,42,0
2,38,39,48
2,37,52,2
2,30,58,192
2,42,52,3
2,33,56,72
2,32,50,2
2,32,54,19
2,28,56,4
2,38,60,9
2,37,42,6
2,28,64,8
2,33,62,24
2,30,56,18
2,32,64,0
2,33,62,96
2,35,60,89
2,40,58,0
2,37,42,0
2,38,39,48
2,37,52,2
2,30,58,192
2,42,52,3
2,33,56,72
2,32,50,2
2,32,54,19
2,28,56,4
2,30,64,393
2,30,50,23
2,33,64,2
2,30,44,38
2,33,56,1
2,35,60,0
2,35,62,49
2,37,56,24
2,35,58,23
2,30,58,0
2,35,32,0
2,37,54,2
2,40,36,24
2,37,56,23
2,30,62,45
2,30,50,33
2,33,64,24
2,30,52,30
2,33,56,1
2,35,62,24
2,33,54,3
2,33,54,16
2,32,56,4
2,30,42,11
2,28,58,24
2,32,66,3
2,28,64,1
2,30,64,10
2,30,50,23
2,33,64,2
2,30,44,38
2,33,56,1
2,35,60,0
2,35,62,49
2,37,56,24
2,35,58,23
2,30,58,0
2,35,32,0
2,37,54,2
2,40,36,24
2,37,56,23
2,30,62,45
2,30,50,33
2,33,64,24
2,30,52,30
2,33,56,1
2,35,60,24
2,30,52,397
2,37,62,192
2,30,48,1
2,30,58,33
2,32,56,0
2,33,62,72
2,38,64,0
2,37,56,192
2,30,38,191
2,30,52,39
2,37,62,192
2,30,48,1
2,30,58,33
2,32,56,0
2,33,62,72
2,38,64,0
2,37,56,192
2,30,38,191
2,38,60,39
2,37,42,6
2,28,64,8
2,33,62,24
2,30,56,18
2,32,64,0
2,33,62,96
2,35,60,89
2,40,58,0
2,37,42,0
2,38,39,48
2,37,52,2
2,30,58,192
2,42,52,3
2,33,56,72
2,32,50,2
2,32,54,19
2,28,56,4
2,38,60,9
2,37,42,6
2,28,64,8
2,33,62,24
2,30,56,18
2,32,64,0
2,33,62,96
2,35,60,89
2,40,58,0
2,37,42,0
2,38,39,48
2,37,52,2
2,30,58,192
2,42,52,3
2,33,56,72
2,32,50,2
2,32,54,19
2,28,56,4
2,30,64,393
2,30,50,23
2,33,64,2
2,30,44,38
2,33,56,1
2,35,60,0
2,35,62,49
2,37,56,24
2,35,58,23
2,30,58,0
2,35,32,0
2,37,54,2
2,40,36,24
2,37,56,23
2,30,62,45
2,30,50,33
2,33,64,24
2,30,52,30
2,33,56,1
2,35,62,24
2,33,54,3
2,33,54,16
2,32,56,4
2,30,42,11
2,28,58,24
2,32,66,3
2,28,64,1
2,30,64,10
2,30,50,23
2,33,64,2
2,30,44,38
2,33,56,1
2,35,60,0
2,35,62,49
2,37,56,24
2,35,58,23
2,30,58,0
2,35,32,0
2,37,54,2
2,40,36,24
2,37,56,23
2,30,62,45
2,30,50,33
2,33,64,24
2,30,52,30
2,33,56,1
2,35,60,24
2,38,60,397
2,37,42,6
2,28,64,8
2,33,62,24
2,30,56,18
2,32,64,0
2,33,62,96
2,35,60,89
2,40,58,0
2,37,42,0
2,38,39,48
2,37,52,2
2,30,58,192
2,42,52,3
2,33,56,72
2,32,50,2
2,32,54,19
2,28,56,4
2,38,60,9
2,37,42,6
2,28,64,8
2,33,62,24
2,30,56,18
2,32,64,0
2,33,62,96
2,35,60,89
2,40,58,0
2,37,42,0
2,38,39,48
2,37,52,2
2,30,58,192
2,42,52,3
2,33,56,72
2,32,50,2
2,32,54,19
2,28,56,4
2,38,60,9
2,37,42,6
2,28,64,8
2,33,62,24
2,30,56,18
2,32,64,0
2,33,62,96
2,35,60,89
2,40,58,0
2,37,42,0
2,38,39,48
2,37,52,2
2,30,58,192
2,42,52,3
2,33,56,72
2,32,50,2
2,32,54,19
2,28,56,4
2,38,60,9
2,37,42,6
2,28,64,8
2,33,62,24
2,30,56,18
2,32,64,0
2,33,62,96
2,35,60,89
2,40,58,0
2,37,42,0
2,38,39,48
2,37,52,2
2,30,58,192
2,42,52,3
2,33,56,72
2,32,50,2
2,32,54,19
2,28,56,4
2,30,64,393
2,30,50,23
2,33,64,2
2,30,44,38
2,33,56,1
2,35,60,0
2,35,62,49
2,37,56,24
2,35,58,23
2,30,58,0
2,35,32,0
2,37,54,2
2,40,36,24
2,37,56,23
2,30,62,45
2,30,50,33
2,33,64,24
2,30,52,30
2,33,56,1
2,35,62,24
2,33,54,3
2,33,54,16
2,32,56,4
2,30,42,11
2,28,58,24
2,32,66,3
2,28,64,1
2,30,64,10
2,30,50,23
2,33,64,2
2,30,44,38
2,33,56,1
2,35,60,0
2,35,62,49
2,37,56,24
2,35,58,23
2,30,58,0
2,35,32,0
2,37,54,2
2,40,36,24
2,37,56,23
2,30,62,45
2,30,50,33
2,33,64,24
2,30,52,30
2,33,56,1
2,35,60,24
2,30,64,397
2,30,50,23
2,33,64,2
2,30,44,38
2,33,56,1
2,35,60,0
2,35,62,24
2,37,56,24
2,35,58,23
2,30,58,0
2,35,32,0
2,37,54,2
2,40,36,24
2,37,56,23
2,30,62,24
2,30,50,33
2,33,64,24
2,30,52,24
2,33,56,1
2,35,62,24
2,33,54,3
2,33,54,16
2,32,56,4
2,30,42,11
2,28,58,24
2,32,66,3
2,28,64,1
2,30,64,0
2,30,50,0
2,33,64,0
2,30,44,0
2,33,56,0
2,35,60,0
2,35,62,0
2,37,56,0
2,35,58,0
2,30,58,0
2,35,32,0
2,37,54,0
2,40,36,0
2,37,56,0
2,30,62,0
2,30,50,0
2,33,64,0
2,30,52,0
2,33,56,0
2,35,60,0
3,56,32,1426
3,57,26,24
3,61,42,16
3,64,44,24
3,68,36,4
3,69,52,0
3,73,52,5
3,76,50,24
3,80,34,1
3,81,30,24
3,85,30,24
3,88,34,24
3,92,25,24
3,93,46,3
3,97,52,10
3,100,48,24
3,104,48,12
3,105,52,7
3,96,37,33
3,100,45,0
3,95,24,16
3,93,39,5
3,95,45,11
3,95,33,0
3,93,24,4
3,90,14,5
3,88,22,24
3,61,48,3076
3,66,58,0
3,57,54,0
3,50,56,0
3,68,44,3
3,64,62,0
3,59,56,0
3,68,40,39
3,69,48,0
3,64,52,0
3,59,38,0
3,57,36,1
3,61,52,0
3,66,54,0
3,59,46,79
3,68,54,0
3,64,60,0
3,69,54,30
3,59,50,0
3,68,52,0
3,64,54,0
3,64,52,30
3,68,56,0
3,59,48,0
3,61,48,28
3,66,58,0
3,57,54,0
3,50,56,0
3,68,44,3
3,64,62,0
3,59,56,0
3,68,40,39
3,69,48,0
3,64,52,0
3,59,38,0
3,57,36,1
3,61,52,0
3,66,54,0
3,59,46,79
3,68,54,0
3,64,60,0
3,69,54,30
3,59,50,0
3,68,52,0
3,64,54,0
3,64,52,30
3,68,56,0
3,59,48,0
3,66,54,460
3,54,40,0
3,61,64,0
3,54,31,35
3,59,54,0
3,66,56,0
3,54,25,23
3,66,48,0
3,59,50,0
3,54,31,24
3,59,64,0
3,66,60,0
3,66,34,24
3,54,40,0
3,61,52,0
3,66,56,8
3,54,36,0
3,61,62,0
3,54,36,27
3,59,60,0
3,66,62,0
3,54,27,29
3,59,46,0
3,66,36,0
3,59,66,4
3,64,68,0
3,54,46,0
3,63,60,32
3,59,58,0
3,54,37,0
3,61,62,19
3,54,27,0
3,66,54,0
3,59,58,0
3,54,30,17
3,59,60,0
3,66,56,0
3,54,31,25
3,59,60,0
3,66,58,0
3,66,54,24
3,61,62,0
3,54,37,0
3,54,29,21
3,59,58,0
3,68,44,29
3,59,48,0
3,64,72,0
3,47,58,0
3,59,50,52
3,64,52,0
3,68,58,0
3,54,36,54
3,61,60,0
3,66,56,0
3,54,34,16
3,59,58,0
3,66,54,0
3,54,32,35
3,59,60,0
3,66,54,0
3,66,39,42
3,54,35,0
3,61,54,0
3,59,56,39
3,54,46,0
3,66,58,0
3,66,52,24
3,54,50,0
3,61,60,0
3,66,48,23
3,54,39,0
3,59,58,0
3,49,50,5
3,59,60,1
3,66,60,0
3,54,39,0
3,66,39,19
3,61,62,0
3,54,39,0
3,49,39,19
3,66,58,6
3,59,66,0
3,54,46,0
3,54,44,48
3,61,60,0
3,66,52,0
3,59,58,21
3,54,35,0
3,66,60,0
3,54,31,4
3,59,64,0
3,66,62,0
3,54,44,24
3,66,54,0
3,61,62,0
3,66,44,36
3,59,64,0
3,54,44,0
3,64,58,1
3,69,66,0
3,59,60,0
3,47,60,0
3,64,52,6
3,59,52,0
3,68,56,0
3,47,52,17
3,69,50,0
3,59,36,0
3,64,60,0
3,68,42,34
3,59,42,0
3,64,56,0
3,61,48,3121
3,66,58,0
3,57,54,0
3,50,56,0
3,68,44,3
3,64,62,0
3,59,56,0
3,68,40,39
3,69,48,0
3,64,52,0
3,59,38,0
3,57,36,1
3,61,52,0
3,66,54,0
3,59,46,79
3,68,54,0
3,64,60,0
3,69,54,30
3,59,50,0
3,68,52,0
3,64,54,0
3,64,52,30
3,68,56,0
3,59,48,0
3,61,48,28
3,66,58,0
3,57,54,0
3,50,56,0
3,68,44,3
3,64,62,0
3,59,56,0
3,68,40,39
3,69,48,0
3,64,52,0
3,59,38,0
3,57,36,1
3,61,52,0
3,66,54,0
3,59,46,79
3,68,54,0
3,64,60,0
3,69,54,30
3,59,50,0
3,68,52,0
3,64,54,0
3,64,52,30
3,68,56,0
3,59,48,0
3,66,54,460
3,54,40,0
3,61,64,0
3,54,31,35
3,59,54,0
3,66,56,0
3,54,25,23
3,66,48,0
3,59,50,0
3,54,31,24
3,59,64,0
3,66,60,0
3,66,34,24
3,54,40,0
3,61,52,0
3,66,56,8
3,54,36,0
3,61,62,0
3,54,36,27
3,59,60,0
3,66,62,0
3,54,27,29
3,59,46,0
3,66,36,0
3,59,66,4
3,64,68,0
3,54,46,0
3,63,60,32
3,59,58,0
3,54,37,0
3,61,62,19
3,54,27,0
3,66,54,0
3,59,58,0
3,54,30,17
3,59,60,0
3,66,56,0
3,54,31,25
3,59,60,0
3,66,58,0
3,66,54,24
3,61,62,0
3,54,37,0
3,54,29,21
3,59,58,0
3,68,44,29
3,59,48,0
3,64,72,0
3,47,58,0
3,59,50,52
3,64,52,0
3,68,58,0
3,54,36,54
3,61,60,0
3,66,56,0
3,54,34,16
3,59,58,0
3,66,54,0
3,54,32,35
3,59,60,0
3,66,54,0
3,66,39,42
3,54,35,0
3,61,54,0
3,59,56,39
3,54,46,0
3,66,58,0
3,66,52,24
3,54,50,0
3,61,60,0
3,66,48,23
3,54,39,0
3,59,58,0
3,49,50,5
3,59,60,1
3,66,60,0
3,54,39,0
3,66,39,19
3,61,62,0
3,54,39,0
3,49,39,19
3,66,58,6
3,59,66,0
3,54,46,0
3,54,44,48
3,61,60,0
3,66,52,0
3,59,58,21
3,54,35,0
3,66,60,0
3,54,31,4
3,59,64,0
3,66,62,0
3,54,44,24
3,66,54,0
3,61,62,0
3,66,44,36
3,59,64,0
3,54,44,0
3,64,58,1
3,69,66,0
3,59,60,0
3,47,60,0
3,64,52,6
3,59,52,0
3,68,56,0
3,47,52,17
3,69,50,0
3,59,36,0
3,64,60,0
3,68,42,34
3,59,42,0
3,64,56,0
3,61,48,49
3,66,58,0
3,57,54,0
3,50,56,0
3,68,44,3
3,64,62,0
3,59,56,0
3,68,40,39
3,69,48,0
3,64,52,0
3,59,38,0
3,57,36,1
3,61,52,0
3,66,54,0
3,59,46,79
3,68,54,0
3,64,60,0
3,69,54,30
3,59,50,0
3,68,52,0
3,64,54,0
3,64,52,30
3,68,56,0
3,59,48,0
3,61,48,28
3,66,58,0
3,57,54,0
3,50,56,0
3,68,44,3
3,64,62,0
3,59,56,0
3,68,40,39
3,69,48,0
3,64,52,0
3,59,38,0
3,57,36,1
3,61,52,0
3,66,54,0
3,59,46,79
3,68,54,0
3,64,60,0
3,69,54,30
3,59,50,0
3,68,52,0
3,64,54,0
3,64,52,30
3,68,56,0
3,59,48,0
3,61,48,28
3,66,58,0
3,57,54,0
3,50,56,0
3,68,44,3
3,64,62,0
3,59,56,0
3,68,40,39
3,69,48,0
3,64,52,0
3,59,38,0
3,57,36,1
3,61,52,0
3,66,54,0
3,59,46,79
3,68,54,0
3,64,60,0
3,69,54,30
3,59,50,0
3,68,52,0
3,64,54,0
3,64,52,30
3,68,56,0
3,59,48,0
3,61,48,28
3,66,58,0
3,57,54,0
3,50,56,0
3,68,44,3
3,64,62,0
3,59,56,0
3,68,40,39
3,69,48,0
3,64,52,0
3,59,38,0
3,57,36,1
3,61,52,0
3,66,54,0
3,59,46,79
3,68,54,0
3,64,60,0
3,69,54,30
3,59,50,0
3,68,52,0
3,64,54,0
3,64,52,30
3,68,56,0
3,59,48,0
3,66,54,460
3,54,40,0
3,61,64,0
3,54,31,35
3,59,54,0
3,66,56,0
3,54,25,23
3,66,48,0
3,59,50,0
3,54,31,24
3,59,64,0
3,66,60,0
3,66,34,24
3,54,40,0
3,61,52,0
3,66,56,8
3,54,36,0
3,61,62,0
3,54,36,27
3,59,60,0
3,66,62,0
3,54,27,29
3,59,46,0
3,66,36,0
3,59,66,4
3,64,68,0
3,54,46,0
3,63,60,32
3,59,58,0
3,54,37,0
3,61,62,19
3,54,27,0
3,66,54,0
3,59,58,0
3,54,30,17
3,59,60,0
3,66,56,0
3,54,31,25
3,59,60,0
3,66,58,0
3,66,54,24
3,61,62,0
3,54,37,0
3,54,29,21
3,59,58,0
3,68,44,29
3,59,48,0
3,64,72,0
3,47,58,0
3,59,50,52
3,64,52,0
3,68,58,0
3,54,36,54
3,61,60,0
3,66,56,0
3,54,34,16
3,59,58,0
3,66,54,0
3,54,32,35
3,59,60,0
3,66,54,0
3,66,39,42
3,54,35,0
3,61,54,0
3,59,56,39
3,54,46,0
3,66,58,0
3,66,52,24
3,54,50,0
3,61,60,0
3,66,48,23
3,54,39,0
3,59,58,0
3,49,50,5
3,59,60,1
3,66,60,0
3,54,39,0
3,66,39,19
3,61,62,0
3,54,39,0
3,49,39,19
3,66,58,6
3,59,66,0
3,54,46,0
3,54,44,48
3,61,60,0
3,66,52,0
3,59,58,21
3,54,35,0
3,66,60,0
3,54,31,4
3,59,64,0
3,66,62,0
3,54,44,24
3,66,54,0
3,61,62,0
3,66,44,36
3,59,64,0
3,54,44,0
3,64,58,1
3,69,66,0
3,59,60,0
3,47,60,0
3,64,52,6
3,59,52,0
3,68,56,0
3,47,52,17
3,69,50,0
3,59,36,0
3,64,60,0
3,68,42,34
3,59,42,0
3,64,56,0
3,66,54,24
3,54,40,0
3,61,64,0
3,54,31,24
3,59,54,0
3,66,56,0
3,54,25,23
3,66,48,0
3,59,50,0
3,54,31,24
3,59,64,0
3,66,60,0
3,66,34,24
3,54,40,0
3,61,52,0
3,66,56,8
3,54,36,0
3,61,62,0
3,54,36,27
3,59,60,0
3,66,62,0
3,54,27,29
3,59,46,0
3,66,36,0
3,59,66,4
3,64,68,0
3,54,46,0
3,63,60,32
3,59,58,0
3,54,37,0
3,61,62,19
3,54,27,0
3,66,54,0
3,59,58,0
3,54,30,17
3,59,60,0
3,66,56,0
3,54,31,24
3,59,60,0
3,66,58,0
3,66,54,24
3,61,62,0
3,54,37,0
3,54,29,21
3,59,58,0
3,68,44,24
3,59,48,0
3,64,72,0
3,47,58,0
3,59,50,24
3,64,52,0
3,68,58,0
3,54,36,0
3,61,60,0
3,66,56,0
3,54,34,0
3,59,58,0
3,66,54,0
3,54,32,0
3,59,60,0
3,66,54,0
3,66,39,0
3,54,35,0
3,61,54,0
3,59,56,0
3,54,46,0
3,66,58,0
3,66,52,0
3,54,50,0
3,61,60,0
3,66,48,0
3,54,39,0
3,59,58,0
3,49,50,0
