track,note,velocity,time
1,81,127,0
1,81,0,57
1,81,127,0
1,81,0,24
1,81,127,0
1,83,127,90
1,81,0,10
1,83,0,40
1,81,127,0
1,81,0,57
1,81,127,0
1,81,0,24
1,81,127,0
1,83,127,0
1,81,0,10
1,83,0,40
1,81,127,0
1,81,0,57
1,81,127,0
1,81,0,24
1,81,127,0
1,83,127,90
1,81,0,10
1,83,0,40
1,81,127,0
1,81,0,57
1,81,127,0
1,81,0,24
1,81,127,0
1,83,127,0
1,81,0,10
1,83,0,40
1,74,127,0
1,74,0,45
1,76,127,0
1,76,0,46
1,78,127,0
1,78,0,55
1,74,127,0
1,76,127,0
1,74,0,10
1,76,0,50
1,71,127,0
1,74,127,0
1,71,0,12
1,74,0,78
1,76,127,0
1,76,0,67
1,74,127,0
1,74,0,38
1,76,127,0
1,76,0,43
1,78,127,0
1,78,0,46
1,74,127,0
1,76,127,0
1,74,0,7
1,76,0,53
1,71,127,0
1,74,127,0
1,71,0,6
1,74,0,84
1,76,127,0
1,76,0,90
1,74,127,0
1,74,0,36
1,76,127,0
1,76,0,46
1,78,127,0
1,78,0,49
1,76,127,0
1,76,0,50
1,74,127,0
1,76,127,0
1,74,0,1
1,76,0,77
1,81,127,0
1,81,0,46
1,81,127,0
1,81,0,45
1,81,127,0
1,83,127,60
1,81,0,4
1,83,0,43
1,81,127,0
1,81,0,46
1,81,127,0
1,81,0,38
1,81,127,0
1,81,0,98
1,85,127,0
1,85,0,93
1,83,127,0
1,83,0,76
1,74,127,0
1,74,0,35
1,76,127,0
1,76,0,38
1,78,127,0
1,78,0,46
1,74,127,0
1,74,0,24
1,76,127,0
1,76,0,60
1,71,127,0
1,74,127,0
1,71,0,12
1,74,0,78
1,76,127,0
1,76,0,80
1,74,127,0
1,74,0,43
1,78,127,0
1,78,0,46
1,78,127,0
1,78,0,57
1,76,127,0
1,76,0,46
1,74,127,0
1,74,0,28
1,74,127,0
1,76,127,60
1,74,0,7
1,76,0,36
1,78,127,0
1,78,0,33
1,83,127,0
1,83,0,114
1,81,127,0
1,81,0,252
1,78,127,0
1,78,0,60
1,74,127,0
1,76,127,0
1,74,0,21
1,76,0,39
1,71,127,0
1,74,127,0
1,71,0,18
1,76,127,0
1,74,0,1
1,76,0,77
1,77,127,0
1,76,127,0
1,77,0,1
1,74,127,0
1,76,0,1
1,74,0,50
1,71,127,0
1,71,0,57
1,83,127,0
1,81,127,0
1,83,0,1
1,81,0,251
1,78,127,0
1,83,127,0
1,78,0,9
1,83,0,69
1,81,127,0
1,81,0,90
1,78,127,0
1,78,0,46
1,81,127,0
1,83,127,0
1,81,0,6
1,83,0,384
1,78,127,0
1,78,0,50
1,83,127,0
1,83,0,57
1,81,127,0
1,81,0,50
1,81,127,0
1,81,0,50
1,78,127,0
1,78,0,31
1,81,127,0
1,81,0,41
1,83,127,0
1,83,0,134
1,78,127,0
1,78,0,59
1,76,127,0
1,76,0,60
1,77,127,0
1,77,0,50
1,76,127,0
1,76,0,50
1,74,127,0
1,74,0,50
1,74,127,0
1,74,0,50
1,71,127,0
1,71,0,29
1,74,127,0
1,74,0,60
1,76,127,0
1,76,0,80
1,71,127,0
1,71,0,40
1,71,127,0
1,71,0,43
1,74,127,0
1,74,0,50
1,74,127,70
1,71,127,0
1,74,0,1
1,71,0,28
1,74,127,0
1,74,0,60
1,76,127,0
1,76,0,90
1,78,127,0
1,78,0,48
1,83,127,0
1,81,127,0
1,83,0,1
1,81,0,47
1,81,127,0
1,78,127,0
1,81,0,1
1,78,0,47
1,83,127,0
1,81,127,0
1,83,0,20
1,81,0,160
1,74,127,0
1,74,0,50
1,76,127,0
1,76,0,50
1,78,127,0
1,78,0,55
1,74,127,0
1,76,127,0
1,74,0,10
1,76,0,50
1,71,127,0
1,74,127,0
1,71,0,12
1,74,0,78
1,76,127,0
1,76,0,67
1,74,127,0
1,74,0,38
1,76,127,0
1,76,0,43
1,78,127,0
1,78,0,46
1,74,127,0
1,76,127,0
1,74,0,7
1,76,0,53
1,71,127,0
1,74,127,0
1,71,0,6
1,74,0,84
1,76,127,0
1,76,0,90
1,74,127,0
1,74,0,36
1,76,127,0
1,76,0,46
1,78,127,0
1,78,0,49
1,76,127,0
1,76,0,50
1,74,127,0
1,76,127,0
1,74,0,1
1,76,0,77
1,81,127,0
1,81,0,46
1,81,127,0
1,81,0,45
1,81,127,0
1,83,127,60
1,81,0,4
1,83,0,43
1,81,127,0
1,81,0,46
1,81,127,0
1,81,0,38
1,81,127,0
1,81,0,98
1,85,127,0
1,85,0,93
1,83,127,0
1,83,0,76
1,74,127,0
1,74,0,50
1,76,127,0
1,76,0,50
1,78,127,0
1,78,0,43
1,74,127,0
1,76,127,0
1,74,0,1
1,76,0,59
1,71,127,0
1,71,0,28
1,74,127,0
1,74,0,120
1,76,127,0
1,76,0,71
1,74,127,0
1,74,0,30
1,78,127,0
1,78,0,63
1,76,127,0
1,76,0,59
1,74,127,0
1,76,127,0
1,74,0,6
1,76,0,37
1,78,127,0
1,78,0,33
1,83,127,0
1,83,0,85
1,81,127,0
1,81,0,87
1,81,127,0
1,81,0,300
1,78,127,0
1,78,0,49
1,74,127,0
1,76,127,0
1,74,0,2
1,76,0,58
1,71,127,0
1,71,0,29
1,74,127,0
1,74,0,106
1,76,127,0
1,76,0,60
1,77,127,0
1,77,0,50
1,76,127,0
1,76,0,60
1,74,127,0
1,74,0,34
1,71,127,0
1,71,0,34
1,83,127,0
1,83,0,108
1,81,127,0
1,81,0,99
1,81,127,0
1,81,0,300
1,83,127,0
1,83,0,78
1,81,127,42
1,81,0,56
1,78,127,4
1,81,127,0
1,78,0,8
1,81,0,52
1,83,127,0
1,83,0,420
1,78,127,0
1,78,0,28
1,83,127,0
1,81,127,60
1,83,0,2
1,81,0,38
1,81,127,20
1,81,0,55
1,78,127,0
1,78,0,37
1,81,127,0
1,81,0,50
1,83,127,0
1,83,0,252
1,77,127,0
1,77,0,50
1,76,127,0
1,76,0,50
1,74,127,0
1,74,0,50
1,74,127,0
1,74,0,36
1,71,127,0
1,71,0,25
1,74,127,0
1,74,0,60
1,76,127,0
1,76,0,96
1,71,127,0
1,71,0,50
1,74,127,0
1,74,0,60
1,74,127,0
1,74,0,60
1,71,127,0
1,71,0,30
1,74,127,0
1,74,0,60
1,76,127,0
1,76,0,210
1,78,127,0
1,78,0,50
1,83,127,0
1,83,0,59
1,81,127,0
1,81,0,40
1,81,127,0
1,81,0,60
1,78,127,0
1,78,0,40
1,83,127,0
1,81,127,0
1,83,0,2
1,81,0,178
1,74,127,0
1,74,0,40
1,76,127,0
1,76,0,50
1,78,127,0
1,78,0,49
1,74,127,0
1,74,0,25
1,76,127,0
1,76,0,60
1,71,127,0
1,74,127,0
1,71,0,1
1,74,0,119
1,76,127,0
1,76,0,89
1,74,127,0
1,74,0,38
1,76,127,0
1,76,0,29
1,78,127,0
1,78,0,38
1,74,127,0
1,74,0,23
1,76,127,0
1,76,0,60
1,71,127,0
1,71,0,54
1,74,127,0
1,74,0,90
1,76,127,0
1,76,0,51
1,74,127,0
1,74,0,31
1,76,127,0
1,76,0,47
1,78,127,0
1,78,0,73
1,76,127,0
1,76,0,53
1,74,127,0
1,74,0,24
1,76,127,0
1,76,0,78
1,81,127,0
1,81,0,43
1,81,127,0
1,81,0,37
1,81,127,0
1,83,127,60
1,81,0,8
1,83,0,55
1,81,127,0
1,81,0,40
1,81,127,0
1,81,0,30
1,81,127,0
1,81,0,79
1,85,127,0
1,85,0,88
1,83,127,0
1,83,0,80
1,81,127,0
1,81,0,50
1,81,127,0
1,81,0,24
1,81,127,0
1,81,0,90
1,83,127,0
1,83,0,50
1,81,127,0
1,81,0,50
1,81,127,0
1,81,0,24
1,81,127,0
1,81,0,90
1,83,127,0
1,83,0,50
1,81,127,0
1,81,0,50
1,81,127,0
1,81,0,24
1,81,127,0
1,81,0,90
1,83,127,0
1,83,0,50
1,81,127,0
1,81,0,50
1,81,127,0
1,81,0,24
1,81,127,0
1,81,0,90
1,83,127,0
1,83,0,50
1,74,127,0
1,74,0,34
1,76,127,0
1,76,0,38
1,78,127,0
1,78,0,49
1,74,127,0
1,74,0,25
1,76,127,0
1,76,0,60
1,71,127,0
1,74,127,0
1,71,0,1
1,74,0,119
1,76,127,0
1,76,0,89
1,74,127,0
1,74,0,38
1,76,127,0
1,76,0,29
1,78,127,0
1,78,0,38
1,74,127,0
1,74,0,23
1,76,127,0
1,76,0,60
1,71,127,0
1,71,0,54
1,74,127,0
1,74,0,90
1,76,127,0
1,76,0,51
1,74,127,0
1,74,0,31
1,76,127,0
1,76,0,47
1,78,127,0
1,78,0,73
1,76,127,0
1,76,0,53
1,74,127,0
1,74,0,24
1,76,127,0
1,76,0,78
1,81,127,0
1,81,0,43
1,81,127,0
1,81,0,37
1,81,127,0
1,83,127,60
1,81,0,8
1,83,0,55
1,81,127,0
1,81,0,40
1,81,127,0
1,81,0,30
1,81,127,0
1,81,0,79
1,85,127,0
1,85,0,88
1,83,127,0
1,83,0,80
1,76,127,0
1,76,0,48
1,74,127,0
1,74,0,48
1,76,127,0
1,76,0,96
1,76,127,0
1,76,0,48
1,74,127,0
1,74,0,48
1,78,127,0
1,78,0,72
1,74,127,0
1,74,0,126
1,76,127,0
1,76,0,48
1,74,127,0
1,74,0,24
1,76,127,0
1,76,0,78
1,76,127,0
1,76,0,48
1,71,127,0
1,71,0,48
1,74,127,0
1,74,0,59
1,76,127,0
1,76,0,48
1,78,127,0
1,78,0,48
1,78,127,0
1,78,0,108
1,74,127,0
1,74,0,96
1,76,127,0
1,76,0,48
1,74,127,0
1,74,0,48
1,76,127,0
1,76,0,96
1,76,127,0
1,76,0,48
1,81,127,0
1,81,0,48
1,78,127,0
1,78,0,89
1,76,127,1
1,76,0,29
1,74,127,0
1,74,0,96
1,76,127,0
1,76,0,48
1,74,127,0
1,74,0,24
1,76,127,0
1,76,0,78
1,76,127,0
1,76,0,48
1,71,127,0
1,71,0,48
1,74,127,0
1,74,0,59
1,76,127,0
1,76,0,48
1,78,127,0
1,78,0,48
1,78,127,0
1,78,0,108
1,74,127,0
1,74,0,48
1,74,127,0
1,74,0,48
1,76,127,0
1,76,0,48
1,78,127,0
1,78,0,49
1,74,127,0
1,74,0,25
1,76,127,0
1,76,0,60
1,71,127,0
1,74,127,0
1,71,0,1
1,74,0,119
1,76,127,0
1,76,0,89
1,74,127,0
1,74,0,38
1,76,127,0
1,76,0,29
1,78,127,0
1,78,0,38
1,74,127,0
1,74,0,23
1,76,127,0
1,76,0,60
1,71,127,0
1,71,0,54
1,74,127,0
1,74,0,90
1,76,127,0
1,76,0,51
1,74,127,0
1,74,0,31
1,76,127,0
1,76,0,47
1,78,127,0
1,78,0,73
1,76,127,0
1,76,0,53
1,74,127,0
1,74,0,24
1,76,127,0
1,76,0,78
1,81,127,0
1,81,0,43
1,81,127,0
1,81,0,37
1,81,127,0
1,83,127,60
1,81,0,8
1,83,0,55
1,81,127,0
1,81,0,40
1,81,127,0
1,81,0,30
1,81,127,0
1,81,0,79
1,85,127,0
1,85,0,88
1,83,127,0
1,83,0,80
1,81,127,0
1,81,0,48
1,81,127,0
1,81,0,24
1,81,127,0
1,81,0,90
1,83,127,0
1,83,0,48
1,81,127,0
1,81,0,48
1,81,127,0
1,81,0,24
1,81,127,0
1,81,0,90
1,83,127,0
1,83,0,48
1,81,127,0
1,81,0,48
1,81,127,0
1,81,0,24
1,81,127,0
1,81,0,90
1,83,127,0
1,83,0,48
1,81,127,0
1,81,0,48
1,81,127,0
1,81,0,24
1,81,127,0
1,81,0,90
1,83,127,0
1,83,0,48
2,59,127,480
2,67,127,0
2,62,127,0
2,62,0,172
2,67,0,0
2,59,0,0
2,69,127,8
2,64,127,0
2,61,127,0
2,61,0,300
2,64,0,0
2,69,0,0
2,69,127,0
2,64,127,0
2,61,127,0
2,61,0,172
2,64,0,0
2,69,0,0
2,71,127,8
2,66,127,0
2,62,127,0
2,62,0,300
2,66,0,0
2,71,0,0
2,67,127,0
2,62,127,0
2,59,127,0
2,59,0,172
2,62,0,0
2,67,0,0
2,69,127,8
2,64,127,0
2,61,127,0
2,61,0,300
2,64,0,0
2,69,0,0
2,66,127,0
2,61,127,0
2,57,127,0
2,57,0,172
2,61,0,0
2,66,0,0
2,67,127,8
2,62,127,0
2,59,127,0
2,59,0,300
2,62,0,0
2,67,0,0
2,71,127,0
2,67,127,0
2,62,127,0
2,62,0,172
2,67,0,0
2,71,0,0
2,69,127,8
2,64,127,0
2,61,127,0
2,61,0,300
2,64,0,0
2,69,0,0
2,69,127,0
2,64,127,0
2,61,127,0
2,61,0,172
2,64,0,0
2,69,0,0
2,71,127,8
2,66,127,0
2,62,127,0
2,62,0,300
2,66,0,0
2,71,0,0
2,67,127,0
2,62,127,0
2,59,127,0
2,59,0,172
2,62,0,0
2,67,0,0
2,69,127,8
2,64,127,0
2,61,127,0
2,61,0,300
2,64,0,0
2,69,0,0
2,66,127,0
2,61,127,0
2,57,127,0
2,57,0,172
2,61,0,0
2,66,0,0
2,67,127,8
2,62,127,0
2,59,127,0
2,59,0,300
2,62,0,0
2,67,0,0
2,71,127,0
2,67,127,0
2,62,127,0
2,62,0,172
2,67,0,0
2,71,0,0
2,69,127,8
2,64,127,0
2,61,127,0
2,61,0,300
2,64,0,0
2,69,0,0
2,69,127,0
2,64,127,0
2,61,127,0
2,61,0,172
2,64,0,0
2,69,0,0
2,71,127,8
2,66,127,0
2,62,127,0
2,62,0,300
2,66,0,0
2,71,0,0
2,67,127,0
2,62,127,0
2,59,127,0
2,59,0,172
2,62,0,0
2,67,0,0
2,69,127,8
2,64,127,0
2,61,127,0
2,61,0,300
2,64,0,0
2,69,0,0
2,66,127,0
2,61,127,0
2,57,127,0
2,57,0,172
2,61,0,0
2,66,0,0
2,67,127,8
2,62,127,0
2,59,127,0
2,59,0,300
2,62,0,0
2,67,0,0
2,71,127,0
2,67,127,0
2,62,127,0
2,62,0,172
2,67,0,0
2,71,0,0
2,69,127,8
2,64,127,0
2,61,127,0
2,61,0,300
2,64,0,0
2,69,0,0
2,69,127,0
2,64,127,0
2,61,127,0
2,61,0,172
2,64,0,0
2,69,0,0
2,71,127,8
2,66,127,0
2,62,127,0
2,62,0,300
2,66,0,0
2,71,0,0
2,67,127,0
2,62,127,0
2,59,127,0
2,59,0,172
2,62,0,0
2,67,0,0
2,69,127,8
2,64,127,0
2,61,127,0
2,61,0,300
2,64,0,0
2,69,0,0
2,66,127,0
2,61,127,0
2,57,127,0
2,57,0,172
2,61,0,0
2,66,0,0
2,67,127,8
2,62,127,0
2,59,127,0
2,59,0,300
2,62,0,0
2,67,0,0
2,71,127,0
2,67,127,0
2,62,127,0
2,62,0,172
2,67,0,0
2,71,0,0
2,69,127,8
2,64,127,0
2,61,127,0
2,61,0,300
2,64,0,0
2,69,0,0
2,69,127,0
2,64,127,0
2,61,127,0
2,61,0,172
2,64,0,0
2,69,0,0
2,71,127,8
2,66,127,0
2,62,127,0
2,62,0,300
2,66,0,0
2,71,0,0
2,67,127,0
2,62,127,0
2,59,127,0
2,59,0,172
2,62,0,0
2,67,0,0
2,69,127,8
2,64,127,0
2,61,127,0
2,61,0,300
2,64,0,0
2,69,0,0
2,66,127,0
2,61,127,0
2,57,127,0
2,57,0,172
2,61,0,0
2,66,0,0
2,59,127,8
2,62,127,0
2,67,127,0
2,67,0,300
2,62,0,0
2,59,0,0
2,71,127,0
2,67,127,0
2,62,127,0
2,62,0,172
2,67,0,0
2,71,0,0
2,69,127,8
2,64,127,0
2,61,127,0
2,61,0,300
2,64,0,0
2,69,0,0
2,69,127,0
2,64,127,0
2,61,127,0
2,61,0,172
2,64,0,0
2,69,0,0
2,71,127,8
2,66,127,0
2,62,127,0
2,62,0,300
2,66,0,0
2,71,0,0
2,67,127,0
2,62,127,0
2,59,127,0
2,59,0,172
