track,note,velocity,time
1,26,82,14940
1,33,76,468
1,38,90,24
1,33,86,0
1,26,76,8
1,33,74,216
1,35,76,96
1,36,94,40
1,36,78,80
1,35,90,260
1,33,76,208
1,35,78,20
1,26,94,12
1,33,78,460
1,38,94,16
1,33,76,0
1,26,90,96
1,33,70,236
1,35,76,96
1,36,86,80
1,36,86,88
1,35,90,240
1,33,94,176
1,35,72,0
1,33,102,48
1,26,82,16
1,33,76,468
1,38,90,24
1,33,86,0
1,26,76,8
1,33,74,216
1,35,76,96
1,36,94,40
1,36,78,80
1,35,90,260
1,33,76,208
1,35,78,20
1,26,94,12
1,33,78,460
1,38,94,16
1,33,76,0
1,26,90,96
1,33,70,236
1,35,76,96
1,36,86,80
1,36,86,88
1,35,90,240
1,33,94,176
1,35,72,0
1,33,102,48
1,26,82,16
1,33,76,468
1,38,90,24
1,33,86,0
1,26,76,8
1,33,74,216
1,35,76,96
1,36,94,40
1,36,78,80
1,35,90,260
1,33,76,208
1,35,78,20
1,26,94,12
1,33,78,460
1,38,94,16
1,33,76,0
1,26,90,96
1,33,70,236
1,35,76,96
1,36,86,80
1,36,86,88
1,35,90,240
1,33,94,176
1,35,72,0
1,33,102,48
1,26,82,16
1,33,76,468
1,38,90,24
1,33,86,0
1,26,76,8
1,33,74,216
1,35,76,96
1,36,94,40
1,36,78,80
1,35,90,260
1,33,76,208
1,35,78,20
1,26,94,12
1,33,78,460
1,38,94,16
1,33,76,0
1,26,90,96
1,33,70,236
1,35,76,96
1,36,86,80
1,36,86,88
1,35,90,240
1,33,94,176
1,35,72,0
1,33,102,48
1,26,82,16
1,33,76,468
1,38,90,24
1,33,86,0
1,26,76,8
1,33,74,216
1,35,76,96
1,36,94,40
1,36,78,80
1,35,90,260
1,33,76,208
1,35,78,20
1,26,94,12
1,33,78,460
1,38,94,16
1,33,76,0
1,26,90,96
1,33,70,236
1,35,76,96
1,36,86,80
1,36,86,88
1,35,90,240
1,33,94,176
1,35,72,0
1,33,102,48
1,26,82,16
1,33,76,468
1,38,90,24
1,33,86,0
1,26,76,8
1,33,74,216
1,35,76,96
1,36,94,40
1,36,78,80
1,35,90,260
1,33,76,208
1,35,78,20
1,26,90,12
1,33,76,452
1,38,86,32
1,33,94,12
1,26,86,0
1,26,90,256
1,26,90,144
1,26,102,76
1,35,98,984
1,35,94,164
1,35,76,188
1,35,94,52
1,35,94,72
1,27,102,228
1,27,98,56
1,27,98,152
1,27,78,36
1,27,94,60
1,28,112,204
1,28,90,136
1,28,90,128
1,28,94,56
1,28,90,56
1,25,102,236
1,25,98,88
1,25,90,148
1,25,78,44
1,25,78,72
1,30,102,264
1,30,90,124
1,30,76,96
1,30,74,56
1,30,94,92
1,31,102,240
1,31,94,104
1,31,72,152
1,31,86,52
1,31,90,48
1,33,102,260
1,33,74,96
1,33,78,64
1,28,76,96
1,30,76,32
1,31,82,68
1,28,90,0
1,33,102,96
1,33,94,492
1,33,74,40
1,33,98,128
1,35,82,20
1,36,98,0
1,37,98,80
1,37,94,128
1,37,86,164
1,37,74,40
1,37,72,96
1,35,72,8
1,34,94,192
1,34,94,136
1,34,76,180
1,34,78,48
1,34,90,68
1,32,62,204
1,34,78,96
1,35,90,60
1,35,78,124
1,35,78,132
1,33,94,28
1,33,90,68
1,32,90,248
1,35,68,12
1,32,102,16
1,28,94,0
1,28,82,180
1,30,86,192
1,32,76,36
1,35,72,16
1,28,86,12
1,28,94,196
1,28,62,120
1,28,86,56
1,28,86,60
1,30,98,236
1,30,74,204
1,30,74,148
1,30,78,48
1,31,86,192
1,32,90,176
1,33,86,176
1,33,86,136
1,33,82,132
1,28,78,44
1,30,90,96
1,33,76,12
1,30,90,28
1,33,94,96
1,33,76,76
1,33,102,128
1,33,86,172
1,35,78,8
1,36,94,0
1,37,98,96
1,37,94,128
1,37,86,164
1,37,74,40
1,37,72,96
1,35,72,8
1,34,94,192
1,34,94,136
1,34,76,180
1,34,78,48
1,34,90,68
1,32,62,204
1,34,78,96
1,35,90,60
1,35,78,124
1,35,78,132
1,33,94,28
1,33,90,68
1,32,90,248
1,35,68,12
1,32,102,16
1,28,94,0
1,28,82,180
1,30,86,192
1,32,76,36
1,35,72,16
1,28,86,12
1,28,94,196
1,28,62,120
1,28,86,56
1,28,86,60
1,30,98,236
1,30,74,204
1,30,74,148
1,30,78,48
1,31,86,192
1,32,90,176
1,33,86,176
1,33,86,136
1,33,82,132
1,28,78,44
1,30,90,96
1,33,76,12
1,30,90,28
1,33,94,96
1,33,76,76
1,33,102,128
1,33,86,172
1,35,78,8
1,37,94,0
1,26,82,96
1,33,76,468
1,38,90,24
1,33,86,0
1,26,76,8
1,33,74,216
1,35,76,96
1,36,94,40
1,36,78,80
1,35,90,260
1,33,76,208
1,35,78,20
1,26,94,12
1,33,78,460
1,38,94,16
1,33,76,0
1,26,90,96
1,33,70,236
1,35,76,96
1,36,86,80
1,36,86,88
1,35,90,240
1,33,94,176
1,35,72,0
1,33,102,48
1,26,82,16
1,33,76,468
1,38,90,24
1,33,86,0
1,26,76,8
1,33,74,216
1,35,76,96
1,36,94,40
1,36,78,80
1,35,90,260
1,33,76,208
1,35,78,20
1,26,94,12
1,33,78,460
1,38,94,16
1,33,76,0
1,26,90,96
1,33,70,236
1,35,76,96
1,36,86,80
1,36,86,88
1,35,90,240
1,33,94,176
1,35,72,0
1,33,102,48
1,26,82,16
1,33,76,468
1,38,90,24
1,33,86,0
1,26,76,8
1,33,74,216
1,35,76,96
1,36,94,40
1,36,78,80
1,35,90,260
1,33,76,208
1,35,78,20
1,26,94,12
1,33,78,460
1,38,94,16
1,33,76,0
1,26,90,96
1,33,70,236
1,35,76,96
1,36,86,80
1,36,86,88
1,35,90,240
1,33,94,176
1,35,72,0
1,33,102,48
1,26,82,16
1,33,76,468
1,38,90,24
1,33,86,0
1,26,76,8
1,33,74,216
1,35,76,96
1,36,94,40
1,36,78,80
1,35,90,260
1,33,76,208
1,35,78,20
1,26,94,12
1,33,78,460
1,38,94,16
1,33,76,0
1,26,90,96
1,33,70,236
1,35,76,96
1,36,86,80
1,36,86,88
1,35,90,240
1,33,94,176
1,35,72,0
1,33,102,48
1,26,82,16
1,33,76,468
1,38,90,24
1,33,86,0
1,26,76,8
1,33,74,216
1,35,76,96
1,36,94,40
1,36,78,80
1,35,90,260
1,33,76,208
1,35,78,20
1,26,94,12
1,33,78,460
1,38,94,16
1,33,76,0
1,26,90,96
1,33,70,236
1,35,76,96
1,36,86,80
1,36,86,88
1,35,90,240
1,33,94,176
1,35,72,0
1,33,102,48
1,26,82,16
1,33,76,468
1,38,90,24
1,33,86,0
1,26,76,8
1,33,74,216
1,35,76,96
1,36,94,40
1,36,78,80
1,35,90,260
1,33,76,208
1,35,78,20
1,26,90,12
1,33,76,452
1,38,86,32
1,33,94,12
1,26,86,0
1,26,90,256
1,26,90,144
1,26,102,76
1,35,98,984
1,35,94,164
1,35,76,188
1,35,94,52
1,35,94,72
1,27,102,228
1,27,98,56
1,27,98,152
1,27,78,36
1,27,94,60
1,28,112,204
1,28,90,136
1,28,90,128
1,28,94,56
1,28,90,56
1,25,102,236
1,25,98,88
1,25,90,148
1,25,78,44
1,25,78,72
1,30,102,264
1,30,90,124
1,30,76,96
1,30,74,56
1,30,94,92
1,31,102,240
1,31,94,104
1,31,72,152
1,31,86,52
1,31,90,48
1,33,102,260
1,33,74,96
1,33,78,64
1,28,76,96
1,30,76,32
1,31,82,68
1,28,90,0
1,33,102,96
1,33,94,492
1,33,74,40
1,33,98,128
1,35,82,20
1,36,98,0
1,37,98,80
1,37,94,128
1,37,86,164
1,37,74,40
1,37,72,96
1,35,72,8
1,34,94,192
1,34,94,136
1,34,76,180
1,34,78,48
1,34,90,68
1,32,62,204
1,34,78,96
1,35,90,60
1,35,78,124
1,35,78,132
1,33,94,28
1,33,90,68
1,32,90,248
1,35,68,12
1,32,102,16
1,28,94,0
1,28,82,180
1,30,86,192
1,32,76,36
1,35,72,16
1,28,86,12
1,28,94,196
1,28,62,120
1,28,86,56
1,28,86,60
1,30,98,236
1,30,74,204
1,30,74,148
1,30,78,48
1,31,86,192
1,32,90,176
1,33,86,176
1,33,86,136
1,33,82,132
1,28,78,44
1,30,90,96
1,33,76,12
1,30,90,28
1,33,94,96
1,33,76,76
1,33,102,128
1,33,86,172
1,35,78,8
1,36,94,0
1,37,98,96
1,37,94,128
1,37,86,164
1,37,74,40
1,37,72,96
1,35,72,8
1,34,94,192
1,34,94,136
1,34,76,180
1,34,78,48
1,34,90,68
1,32,62,204
1,34,78,96
1,35,90,60
1,35,78,124
1,35,78,132
1,33,94,28
1,33,90,68
1,32,90,248
1,35,68,12
1,32,102,16
1,28,94,0
1,28,82,180
1,30,86,192
1,32,76,36
1,35,72,16
1,28,86,12
1,28,94,196
1,28,62,120
1,28,86,56
1,28,86,60
1,30,98,236
1,30,74,204
1,30,74,148
1,30,78,48
1,31,86,192
1,32,90,176
1,33,86,176
1,33,86,136
1,33,82,132
1,28,78,44
1,30,90,96
1,33,76,12
1,30,90,28
1,33,94,96
1,33,76,76
1,33,102,128
1,33,86,172
1,35,78,8
1,36,94,0
1,37,98,96
1,37,94,128
1,37,86,164
1,37,74,40
1,37,72,96
1,35,72,8
1,34,94,192
1,34,94,136
1,34,76,180
1,34,78,48
1,34,90,68
1,32,62,204
1,34,78,96
1,35,90,60
1,35,78,124
1,35,78,132
1,33,94,28
1,33,90,68
1,32,90,248
1,35,68,12
1,32,102,16
1,28,94,0
1,28,82,180
1,30,86,192
1,32,76,36
1,35,72,16
1,28,86,12
1,28,94,196
1,28,62,120
1,28,86,56
1,28,86,60
1,30,98,236
1,30,74,204
1,30,74,148
1,30,78,48
1,31,86,192
1,32,90,176
1,33,86,176
1,33,86,136
1,33,82,132
1,28,78,44
1,30,90,96
1,33,76,12
1,30,90,28
1,33,94,96
1,33,76,76
1,33,102,128
1,33,86,172
1,35,78,8
1,36,94,0
1,37,98,96
1,37,94,128
1,37,86,164
1,37,74,40
1,37,72,96
1,35,72,8
1,34,94,192
1,34,94,136
1,34,76,180
1,34,78,48
1,34,90,68
1,32,62,204
1,34,78,96
1,35,90,0
1,35,78,0
1,35,78,0
1,33,94,0
1,33,90,0
1,32,90,0
1,35,68,0
1,32,102,0
1,28,94,0
1,28,82,0
1,30,86,0
1,32,76,0
1,35,72,0
1,28,86,0
1,28,94,0
1,28,62,0
1,28,86,0
1,28,86,0
1,30,98,0
1,30,74,0
1,30,74,0
1,30,78,0
1,31,86,0
1,32,90,0
1,33,86,0
1,33,86,0
1,33,82,0
1,28,78,0
1,30,90,0
1,33,76,0
1,30,90,0
1,33,94,0
1,33,76,0
1,33,102,0
1,33,86,0
1,35,78,0
1,36,94,0
2,47,68,51784
2,59,76,0
2,66,80,0
2,62,84,0
2,54,92,0
2,54,84,172
2,66,88,0
2,71,80,0
2,59,64,0
2,69,80,4
2,66,92,0
2,59,68,0
2,55,80,12
2,62,72,0
2,67,76,0
2,59,64,0
2,67,66,56
2,64,80,0
2,57,88,0
2,69,88,0
2,49,92,0
2,67,88,44
2,64,80,0
2,57,72,0
2,54,68,40
2,61,84,0
2,64,84,0
2,57,66,0
2,66,80,0
2,59,50,40
2,62,80,0
2,55,64,0
2,66,60,72
2,59,62,0
2,45,66,24
2,64,80,0
2,59,68,0
2,62,66,0
2,59,11,68
2,67,92,112
2,62,97,0
2,59,97,0
2,66,84,128
2,62,80,0
2,57,88,0
2,64,68,72
2,57,56,0
2,61,68,0
2,57,84,20
2,69,84,0
2,57,68,40
2,69,64,0
2,55,42,96
2,61,92,20
2,64,92,0
2,69,92,0
2,66,88,276
2,54,97,0
2,61,84,0
2,61,68,96
2,64,92,0
2,54,88,0
2,66,80,0
2,54,92,84
2,49,62,192
2,59,84,24
2,62,88,0
2,54,92,0
2,52,42,644
2,52,48,40
2,57,84,0
2,61,68,0
2,64,80,0
2,66,64,0
2,56,68,0
2,52,66,28
2,64,76,0
2,57,84,0
2,66,84,0
2,52,80,256
2,64,84,0
2,59,80,0
2,56,88,0
2,62,76,4
2,56,80,0
2,59,72,0
2,52,29,44
2,62,62,36
2,64,72,0
2,56,84,0
2,59,88,0
2,52,84,120
2,57,56,96
2,59,92,0
2,55,88,0
2,62,97,0
2,62,88,124
2,57,84,0
2,50,76,0
2,50,60,56
2,57,80,0
2,62,76,0
2,64,68,72
2,66,58,12
2,59,58,116
2,57,76,0
2,66,88,0
2,62,88,0
2,57,52,56
2,61,62,0
2,64,64,0
2,57,88,108
2,64,92,0
2,61,88,0
2,57,52,96
2,45,64,192
2,66,80,20
2,59,68,0
2,62,84,0
2,61,58,32
2,64,64,0
2,57,50,0
2,64,72,120
2,57,66,0
2,61,72,0
2,61,92,304
2,64,92,0
2,69,92,0
2,66,88,276
2,54,97,0
2,61,84,0
2,61,68,96
2,64,92,0
2,54,88,0
2,66,80,0
2,54,92,84
2,49,62,192
2,59,84,24
2,62,88,0
2,54,92,0
2,52,42,644
2,52,48,40
2,57,84,0
2,61,68,0
2,64,80,0
2,66,64,0
2,56,68,0
2,52,66,28
2,64,76,0
2,57,84,0
2,66,84,0
2,52,80,256
2,64,84,0
2,59,80,0
2,56,88,0
2,62,76,4
2,56,80,0
2,59,72,0
2,52,29,44
2,62,62,36
2,64,72,0
2,56,84,0
2,59,88,0
2,52,84,120
2,57,56,96
2,59,92,0
2,55,88,0
2,62,97,0
2,62,88,124
2,57,84,0
2,50,76,0
2,50,60,56
2,57,80,0
2,62,76,0
2,64,68,72
2,66,58,12
2,59,58,116
2,57,76,0
2,66,88,0
2,62,88,0
2,57,52,56
2,61,62,0
2,64,64,0
2,57,88,108
2,64,92,0
2,61,88,0
2,57,52,96
2,45,64,192
2,66,80,20
2,59,68,0
2,62,84,0
2,61,58,32
2,64,64,0
2,57,50,0
2,64,72,120
2,57,66,0
2,61,72,0
2,47,68,37168
2,59,76,0
2,66,80,0
2,62,84,0
2,54,92,0
2,54,84,172
2,66,88,0
2,71,80,0
2,59,64,0
2,69,80,4
2,66,92,0
2,59,68,0
2,55,80,12
2,62,72,0
2,67,76,0
2,59,64,0
2,67,66,56
2,64,80,0
2,57,88,0
2,69,88,0
2,49,92,0
2,67,88,44
2,64,80,0
2,57,72,0
2,54,68,40
2,61,84,0
2,64,84,0
2,57,66,0
2,66,80,0
2,59,50,40
2,62,80,0
2,55,64,0
2,66,60,72
2,59,62,0
2,45,66,24
2,64,80,0
2,59,68,0
2,62,66,0
2,59,11,68
2,67,92,112
2,62,97,0
2,59,97,0
2,66,84,128
2,62,80,0
2,57,88,0
2,64,68,72
2,57,56,0
2,61,68,0
2,57,84,20
2,69,84,0
2,57,68,40
2,69,64,0
2,55,42,96
2,61,92,20
2,64,92,0
2,69,92,0
2,66,88,276
2,54,97,0
2,61,84,0
2,61,68,96
2,64,92,0
2,54,88,0
2,66,80,0
2,54,92,84
2,49,62,192
2,59,84,24
2,62,88,0
2,54,92,0
2,52,42,644
2,52,48,40
2,57,84,0
2,61,68,0
2,64,80,0
2,66,64,0
2,56,68,0
2,52,66,28
2,64,76,0
2,57,84,0
2,66,84,0
2,52,80,256
2,64,84,0
2,59,80,0
2,56,88,0
2,62,76,4
2,56,80,0
2,59,72,0
2,52,29,44
2,62,62,36
2,64,72,0
2,56,84,0
2,59,88,0
2,52,84,120
2,57,56,96
2,59,92,0
2,55,88,0
2,62,97,0
2,62,88,124
2,57,84,0
2,50,76,0
2,50,60,56
2,57,80,0
2,62,76,0
2,64,68,72
2,66,58,12
2,59,58,116
2,57,76,0
2,66,88,0
2,62,88,0
2,57,52,56
2,61,62,0
2,64,64,0
2,57,88,108
2,64,92,0
2,61,88,0
2,57,52,96
2,45,64,192
2,66,80,20
2,59,68,0
2,62,84,0
2,61,58,32
2,64,64,0
2,57,50,0
2,64,72,120
2,57,66,0
2,61,72,0
2,61,92,304
2,64,92,0
