track,note,velocity,time
1,39,102,29932
1,34,88,50
1,37,88,44
1,37,94,86
1,37,98,174
1,36,91,96
1,32,80,38
1,35,88,40
1,35,90,94
1,37,94,206
1,39,87,112
1,34,81,20
1,37,87,48
1,37,87,100
1,37,85,226
1,36,84,96
1,32,75,30
1,35,84,38
1,35,89,108
1,37,92,248
1,39,94,96
1,34,64,14
1,37,87,46
1,37,88,98
1,37,85,216
1,36,93,76
1,32,68,34
1,35,90,30
1,35,97,96
1,35,83,202
1,34,87,86
1,29,81,40
1,34,87,34
1,34,88,100
1,34,81,210
1,38,90,76
1,38,89,118
1,41,88,70
1,41,83,68
1,41,87,258
1,39,102,70
1,34,88,50
1,37,88,44
1,37,94,86
1,37,98,174
1,36,91,96
1,32,80,38
1,35,88,40
1,35,90,94
1,37,94,206
1,39,87,112
1,34,81,20
1,37,87,48
1,37,87,100
1,37,85,226
1,36,84,96
1,32,75,30
1,35,84,38
1,35,89,108
1,37,92,248
1,39,94,96
1,34,64,14
1,37,87,46
1,37,88,98
1,37,85,216
1,36,93,76
1,32,68,34
1,35,90,30
1,35,97,96
1,35,83,202
1,34,87,86
1,29,81,40
1,34,87,34
1,34,88,100
1,34,81,210
1,38,90,76
1,38,89,118
1,41,88,70
1,41,83,68
1,41,87,258
1,39,102,70
1,34,88,50
1,37,88,44
1,37,94,86
1,37,98,174
1,36,91,96
1,32,80,38
1,35,88,40
1,35,90,94
1,37,94,206
1,39,87,112
1,34,81,20
1,37,87,48
1,37,87,100
1,37,85,226
1,36,84,96
1,32,75,30
1,34,84,38
1,34,89,108
1,38,92,248
1,39,94,96
1,34,70,14
1,37,87,26
1,37,88,98
1,37,85,216
1,36,93,76
1,32,68,34
1,35,90,30
1,35,97,96
1,35,83,202
1,34,87,86
1,29,81,40
1,34,87,34
1,34,88,100
1,34,81,210
1,37,81,76
1,34,73,42
1,38,93,30
1,38,78,88
1,46,80,136
1,32,113,32
1,32,98,80
1,32,87,94
1,32,96,116
1,34,90,18
1,34,107,96
1,34,92,108
1,34,96,162
1,39,100,36
1,34,74,58
1,39,110,26
1,39,113,122
1,39,96,176
1,29,97,192
1,30,116,94
1,30,113,88
1,30,104,140
1,32,116,2
1,32,98,126
1,32,94,100
1,32,96,180
1,34,107,18
1,34,104,124
1,34,96,122
1,34,98,192
1,35,90,6
1,35,87,108
1,35,76,76
1,35,91,162
1,37,102,10
1,37,102,132
1,38,94,192
1,39,102,6
1,34,88,50
1,37,88,44
1,37,94,86
1,37,98,174
1,36,91,96
1,32,80,38
1,35,88,40
1,35,90,94
1,37,94,206
1,39,87,112
1,34,81,20
1,37,87,48
1,37,87,100
1,37,85,226
1,36,84,96
1,32,75,30
1,35,84,38
1,35,89,108
1,37,92,248
1,39,94,96
1,34,64,14
1,37,87,46
1,37,88,98
1,37,85,216
1,36,93,76
1,32,68,34
1,35,90,30
1,35,97,96
1,35,83,202
1,34,87,86
1,29,81,40
1,34,87,34
1,34,88,100
1,34,81,210
1,38,90,76
1,38,89,118
1,41,88,70
1,41,83,68
1,41,87,258
1,39,102,70
1,34,88,50
1,37,88,44
1,37,94,86
1,37,98,174
1,36,91,96
1,32,80,38
1,35,88,40
1,35,90,94
1,37,94,206
1,39,87,112
1,34,81,20
1,37,87,48
1,37,87,100
1,37,85,226
1,36,84,96
1,32,75,30
1,35,84,38
1,35,89,108
1,38,92,248
1,39,94,96
1,34,64,14
1,37,87,46
1,37,88,98
1,37,85,216
1,36,93,76
1,32,68,34
1,35,90,30
1,35,97,96
1,35,83,202
1,34,87,86
1,29,81,40
1,34,87,34
1,34,88,100
1,34,81,210
1,38,90,76
1,34,81,214
1,38,107,22
1,38,100,100
1,39,102,68
1,32,113,64
1,32,98,80
1,32,87,94
1,32,96,116
1,34,90,18
1,34,107,96
1,34,92,108
1,34,96,162
1,39,100,36
1,34,74,58
1,39,110,26
1,39,113,122
1,39,96,176
1,29,97,192
1,30,116,94
1,30,113,88
1,30,104,140
1,32,116,2
1,32,98,126
1,32,94,100
1,32,96,180
1,34,107,18
1,34,104,124
1,34,96,122
1,34,98,192
1,35,90,6
1,35,87,108
1,35,76,76
1,35,91,162
1,37,102,10
1,37,102,132
1,38,94,192
1,38,86,94
1,38,95,82
1,38,95,114
1,38,100,98
1,38,87,102
1,38,98,108
1,38,94,102
1,39,102,50
1,34,88,50
1,37,88,44
1,37,94,86
1,37,98,174
1,36,91,96
1,32,80,38
1,35,88,40
1,35,90,94
1,37,94,206
1,39,87,112
1,34,81,20
1,37,87,48
1,37,87,100
1,37,85,226
1,36,84,96
1,32,75,30
1,35,84,38
1,35,89,108
1,37,92,248
1,39,94,96
1,34,64,14
1,37,87,46
1,37,88,98
1,37,85,216
1,36,93,76
1,32,68,34
1,35,90,30
1,35,97,96
1,35,83,202
1,34,87,86
1,29,81,40
1,34,87,34
1,34,88,100
1,34,81,210
1,38,90,76
1,38,89,118
1,41,88,70
1,41,83,68
1,41,87,258
1,39,102,70
1,34,88,50
1,37,88,44
1,37,94,86
1,37,98,174
1,36,91,96
1,32,80,38
1,35,88,40
1,35,90,94
1,37,94,206
1,39,87,112
1,34,81,20
1,37,87,48
1,37,87,100
1,37,85,226
1,36,84,96
1,32,75,30
1,35,84,38
1,35,89,108
1,37,92,248
1,39,94,96
1,34,64,14
1,37,87,46
1,37,88,98
1,37,85,216
1,36,93,76
1,32,68,34
1,35,90,30
1,35,97,96
1,35,83,202
1,34,87,86
1,29,81,40
1,34,87,34
1,34,88,100
1,34,81,210
1,38,90,76
1,38,89,118
1,41,88,70
1,41,83,68
1,41,87,258
1,39,102,70
1,34,88,50
1,37,88,44
1,37,94,86
1,37,98,174
1,36,91,96
1,32,80,38
1,35,88,40
1,35,90,94
1,37,94,206
1,39,87,112
1,34,81,20
1,37,87,48
1,37,87,100
1,37,85,226
1,36,84,96
1,32,75,30
1,35,84,38
1,35,89,108
1,37,92,248
1,39,94,96
1,34,64,14
1,37,87,46
1,37,88,98
1,37,85,216
1,36,93,76
1,32,68,34
1,35,90,30
1,35,97,96
1,35,83,202
1,34,87,86
1,29,81,40
1,34,87,34
1,34,88,100
1,34,81,210
1,38,90,76
1,38,89,118
1,41,88,70
1,41,83,68
1,41,87,258
1,39,102,70
1,34,88,50
1,37,88,44
1,37,94,86
1,37,98,24
1,36,91,96
1,32,80,38
1,35,88,40
1,35,90,66
1,37,94,114
1,39,87,112
1,34,81,18
1,37,87,22
1,37,87,22
1,37,85,226
1,36,84,96
1,32,75,30
1,35,84,38
1,35,89,108
1,37,92,246
1,39,94,96
1,34,64,14
1,37,87,46
1,37,88,98
1,37,85,8
1,36,93,12
1,32,68,34
1,35,90,8
1,35,97,72
1,35,83,60
1,34,87,86
1,29,81,40
1,34,87,8
1,34,88,88
1,34,81,60
1,38,90,76
1,38,89,118
1,41,88,70
1,41,83,68
1,41,87,258
2,46,110,728
2,53,98,0
2,56,98,0
2,58,110,0
2,62,114,0
2,65,110,0
2,46,110,4
2,53,90,0
2,56,118,0
2,58,102,0
2,62,98,0
2,65,118,0
2,46,98,4
2,53,94,0
2,56,114,0
2,58,90,0
2,65,82,0
2,46,90,26
2,53,70,0
2,58,90,0
2,65,82,0
2,46,110,72
2,53,94,0
2,56,122,74
2,58,118,0
2,62,118,0
2,65,122,0
2,46,106,4
2,53,70,0
2,56,114,68
2,58,98,0
2,62,90,0
2,65,86,0
2,46,106,4
2,53,86,0
2,56,114,0
2,58,106,0
2,63,114,0
2,65,106,0
2,46,98,4
2,53,94,0
2,56,110,0
2,58,98,0
2,63,90,0
2,65,94,0
2,46,94,4
2,53,70,0
2,56,114,0
2,58,110,0
2,63,94,0
2,65,114,0
2,46,102,4
2,53,86,0
2,56,102,0
2,58,90,0
2,62,118,0
2,65,102,0
2,46,110,4
2,53,86,0
2,56,110,0
2,58,102,0
2,46,81,4
2,51,110,2
2,58,118,384
2,63,118,0
2,66,114,0
2,51,102,70
2,58,110,0
2,63,110,0
2,66,114,0
2,49,98,12
2,49,78,84
2,49,110,54
2,58,70,0
2,56,118,176
2,61,114,0
2,65,110,0
2,49,110,70
2,48,110,14
2,54,118,384
2,58,114,0
2,63,118,0
2,48,94,80
2,54,114,0
2,58,106,0
2,63,114,0
2,47,94,28
2,47,90,96
2,47,122,54
2,54,118,192
2,59,114,0
2,63,114,0
2,47,106,60
2,51,110,8
2,58,118,384
2,63,118,0
2,66,118,0
2,51,102,64
2,58,110,0
2,63,102,0
2,66,102,0
2,49,102,16
2,49,70,84
2,49,114,58
2,56,114,192
2,61,106,0
2,65,110,0
2,49,110,40
2,48,110,0
2,54,118,376
2,58,102,0
2,63,110,0
2,48,86,72
2,46,98,26
2,46,98,72
2,53,98,0
2,58,118,0
2,63,118,0
2,53,82,10
2,62,110,0
2,46,94,100
2,53,90,0
2,51,94,84
2,58,110,384
2,63,118,0
2,66,114,0
2,51,102,82
2,58,110,0
2,63,114,0
2,66,110,0
2,49,86,28
2,49,98,82
2,49,114,44
2,56,118,192
2,61,110,0
2,65,118,0
2,49,106,40
2,48,102,2
2,54,114,384
2,58,110,0
2,63,114,0
2,48,82,78
2,54,118,0
2,58,114,0
2,63,118,0
2,47,86,24
2,47,82,102
2,47,114,50
2,54,98,0
2,40,26,140
2,54,114,0
2,59,118,0
2,63,110,0
2,47,86,48
2,51,86,12
2,53,106,384
2,58,110,0
2,63,118,0
2,53,102,66
2,58,114,0
2,63,114,0
2,51,22,216
2,53,98,0
2,58,102,0
2,63,114,0
2,53,94,4
2,58,86,0
2,63,110,0
2,53,98,4
2,58,102,0
2,62,114,0
2,53,94,4
2,58,94,0
2,62,98,0
2,53,82,4
2,58,106,0
2,61,78,0
2,62,94,0
2,53,114,224
2,58,110,0
2,62,122,0
2,53,102,98
2,56,114,62
2,66,110,2
2,59,114,2
2,63,118,0
2,56,114,42
2,59,90,0
2,63,102,0
2,66,106,0
2,56,90,86
2,59,118,46
2,63,114,0
2,61,114,32
2,65,110,0
2,63,106,8
2,66,110,0
2,59,4,84
2,61,102,20
2,65,110,24
2,56,106,196
2,58,98,192
2,65,86,34
2,56,82,140
2,68,106,4
2,65,114,2
2,66,110,20
2,70,114,2
2,68,102,8
2,65,102,4
2,68,102,136
2,65,106,2
2,63,75,26
2,58,110,140
2,61,110,0
2,66,110,0
2,58,86,66
2,61,102,0
2,66,110,0
2,54,98,38
2,58,106,0
2,54,110,84
2,58,106,0
2,58,114,52
2,61,114,0
2,66,110,0
2,56,90,10
2,56,90,150
2,56,114,10
2,61,114,0
2,65,118,0
2,56,118,64
2,61,118,0
2,65,90,0
2,53,58,32
2,56,102,0
2,61,110,0
2,53,98,78
2,56,102,0
2,61,106,0
2,56,110,42
2,61,114,0
2,65,102,0
2,56,70,160
2,54,114,4
2,59,102,0
2,63,114,0
2,54,118,4
2,59,106,0
2,63,106,0
2,54,94,4
2,59,66,0
2,54,118,246
2,59,106,0
2,63,114,0
2,56,110,4
2,61,102,0
2,65,110,0
2,56,98,4
2,61,102,0
2,66,98,0
2,59,90,58
2,56,110,4
2,59,90,0
2,61,110,0
2,66,106,0
2,56,102,4
2,59,70,0
2,61,78,0
2,66,90,0
2,56,110,226
2,59,98,0
2,61,114,0
2,66,118,0
2,56,90,62
2,59,90,0
2,61,90,0
2,66,90,0
2,56,92,4
2,59,92,0
2,61,92,0
2,54,114,4
2,58,110,0
2,59,110,0
2,63,118,0
2,54,114,64
2,58,86,0
2,63,102,0
2,51,77,6
2,54,77,0
2,58,77,0
2,51,76,82
2,54,76,0
2,58,76,0
2,54,118,42
2,58,110,0
2,59,106,0
2,63,118,0
2,54,106,4
2,58,106,0
2,59,106,0
2,63,106,0
2,54,83,16
2,59,83,0
2,63,83,0
2,56,114,48
2,61,114,0
2,65,118,0
2,56,118,28
2,61,106,0
2,65,110,0
2,56,74,98
2,56,98,70
2,58,102,0
2,62,106,0
2,66,106,0
2,56,106,48
2,58,106,0
2,62,90,0
2,66,110,0
2,56,94,10
2,58,94,0
2,62,94,0
2,66,94,0
2,56,91,64
2,58,91,0
2,62,91,0
2,66,91,0
2,56,89,6
2,58,89,0
2,62,89,0
2,66,89,0
2,56,74,360
2,66,106,192
2,58,106,28
2,56,114,192
2,58,82,110
2,58,114,402
2,63,118,0
2,66,118,0
2,58,86,84
2,63,94,0
2,66,86,0
2,56,114,434
2,61,106,0
2,65,122,0
2,54,114,396
2,60,122,0
2,63,118,0
2,54,106,46
2,60,106,0
2,63,90,0
2,54,118,402
2,59,114,0
2,63,114,0
2,58,118,396
2,63,114,0
2,66,122,0
2,58,114,56
2,63,102,0
2,66,110,0
2,56,114,420
2,61,114,0
2,65,118,0
2,54,118,398
2,60,106,0
2,63,114,0
2,54,114,80
2,60,74,0
2,63,110,0
2,54,118,402
2,59,110,0
2,63,114,0
2,58,118,408
2,63,118,0
2,66,122,0
2,58,114,84
2,63,114,0
2,66,110,0
2,56,118,418
2,61,114,0
2,65,114,0
2,48,50,236
2,54,114,170
2,60,118,0
2,63,114,0
2,54,102,86
2,60,90,0
2,63,102,0
2,54,118,396
2,59,118,0
2,63,118,0
2,54,82,32
2,53,110,380
2,58,114,0
2,63,118,0
2,53,90,80
2,58,102,0
2,63,102,0
2,53,114,394
2,58,114,0
2,63,114,0
2,65,118,0
2,53,10,72
2,56,70,220
2,56,118,154
2,62,122,2
2,66,114,0
2,58,118,2
2,66,114,48
2,56,122,2
2,58,114,0
2,62,94,4
2,56,66,222
2,62,122,150
2,56,122,2
2,58,122,2
2,66,122,0
2,51,110,32
2,51,114,100
2,58,118,192
2,61,114,0
2,63,114,0
2,66,118,0
2,58,114,94
2,61,114,0
2,63,70,0
2,66,110,0
2,49,114,48
2,49,110,26
2,49,122,44
2,56,110,192
2,61,110,0
2,65,110,0
2,49,70,80
2,48,114,20
2,54,118,100
2,60,126,0
2,63,118,0
2,54,110,94
2,60,90,0
2,63,110,0
2,47,114,44
2,47,114,26
2,47,106,38
2,54,114,192
2,59,110,0
2,63,114,0
2,51,110,20
2,58,118,4
2,61,118,0
2,63,122,0
2,66,110,0
2,58,114,88
2,61,114,0
2,66,118,0
2,49,114,64
2,49,106,26
2,49,110,42
2,56,122,192
2,61,110,0
2,65,118,0
2,48,106,12
2,48,118,120
2,54,110,192
2,60,118,0
2,63,114,0
2,54,110,74
2,60,78,0
2,63,102,0
2,47,114,40
2,47,102,26
2,47,106,40
2,54,110,192
2,59,106,0
2,63,110,0
2,51,106,38
2,58,118,4
2,63,114,0
2,66,122,0
2,58,110,92
2,63,118,0
2,66,102,0
2,49,114,42
2,49,106,26
2,49,110,42
2,56,118,192
2,61,118,0
2,65,114,0
2,49,90,78
2,48,118,40
2,48,118,4
2,54,114,20
2,60,126,0
2,63,114,0
2,54,114,74
2,60,122,0
2,63,110,0
2,47,114,24
2,47,82,26
2,47,114,54
2,54,118,192
2,59,118,0
2,63,110,0
2,53,98,64
2,56,94,0
2,58,102,0
2,62,94,0
2,53,94,4
2,56,94,0
2,58,98,0
2,62,106,0
2,53,83,4
2,56,83,0
2,58,83,0
2,62,83,0
2,53,85,24
2,56,85,0
2,58,85,0
2,62,85,0
2,53,94,4
2,56,106,0
2,58,102,0
2,62,106,0
2,53,102,4
2,56,94,0
2,58,78,0
2,62,106,0
2,53,106,4
2,56,102,0
2,58,106,0
2,63,114,0
2,53,90,4
2,56,110,0
2,58,106,0
2,63,106,0
2,53,110,4
2,56,114,0
2,58,110,0
2,62,114,0
2,53,106,174
2,56,106,0
2,58,106,0
2,62,114,0
2,53,110,4
2,56,110,0
2,58,118,0
2,62,102,0
2,51,82,60
2,51,82,46
2,58,101,196
2,63,121,0
2,66,113,0
2,58,101,78
2,63,113,0
2,66,109,0
2,49,86,32
2,49,78,76
2,56,97,194
2,61,101,0
2,65,81,0
2,48,94,34
2,54,101,390
2,60,105,0
2,63,109,0
2,54,113,50
2,59,85,0
2,63,113,0
2,47,90,20
