track,note,velocity,time
0,37,120,456
0,44,120,1
0,36,100,0
0,36,0,1
0,44,0,0
0,37,0,2
0,42,75,45
0,35,120,0
0,42,0,1
0,35,0,2
0,42,100,45
0,39,120,0
0,42,0,1
0,38,100,0
0,38,0,1
0,39,0,1
0,42,70,45
0,36,90,0
0,35,120,0
0,36,0,1
0,42,0,0
0,35,0,2
0,44,120,45
0,36,100,0
0,37,120,0
0,36,0,1
0,44,0,0
0,37,0,2
0,42,75,45
0,35,120,0
0,42,0,1
0,35,0,2
0,42,100,45
0,39,120,0
0,42,0,1
0,38,100,0
0,38,0,1
0,39,0,1
0,35,120,44
0,42,70,1
0,36,90,0
0,36,0,1
0,42,0,0
0,35,0,2
0,44,120,45
0,37,120,0
0,44,0,1
0,37,0,2
0,42,75,45
0,35,120,0
0,42,0,1
0,35,0,2
0,42,100,45
0,39,120,0
0,42,0,1
0,38,100,0
0,38,0,1
0,39,0,1
0,42,70,45
0,36,90,0
0,35,120,0
0,36,0,1
0,42,0,0
0,35,0,2
0,44,120,45
0,36,100,0
0,37,120,0
0,36,0,1
0,44,0,0
0,37,0,2
0,35,120,44
0,42,75,1
0,42,0,1
0,35,0,2
0,42,100,45
0,39,120,0
0,42,0,1
0,38,100,0
0,38,0,1
0,39,0,1
0,42,70,45
0,36,90,0
0,35,120,0
0,36,0,1
0,42,0,0
0,35,0,2
0,44,120,45
0,36,100,0
0,37,120,0
0,36,0,1
0,44,0,0
0,37,0,2
0,35,120,44
0,42,75,1
0,42,0,1
0,35,0,2
0,42,100,45
0,39,120,0
0,42,0,1
0,38,100,0
0,38,0,1
0,39,0,1
0,42,70,45
0,36,90,0
0,35,120,0
0,36,0,1
0,42,0,0
0,35,0,2
0,37,120,44
0,44,120,1
0,36,100,0
0,36,0,1
0,44,0,0
0,37,0,2
0,42,75,45
0,35,120,0
0,42,0,1
0,35,0,2
0,42,100,45
0,39,120,0
0,42,0,1
0,38,100,0
0,38,0,1
0,39,0,1
0,27,110,21
0,27,100,0
0,39,100,2
0,27,0,13
0,27,0,0
0,39,0,1
0,29,125,8
0,42,70,0
0,36,90,0
0,29,115,0
0,35,120,0
0,36,0,1
0,42,0,0
0,41,110,1
0,35,0,1
0,29,0,37
0,29,0,0
0,41,0,1
0,32,120,7
0,44,120,0
0,32,110,0
0,37,120,0
0,44,0,1
0,44,100,1
0,37,0,1
0,32,0,31
0,32,0,0
0,44,0,2
0,34,110,12
0,42,75,0
0,34,100,0
0,35,120,0
0,42,0,1
0,46,100,1
0,35,0,1
0,34,0,31
0,34,0,0
0,46,0,2
0,34,110,12
0,42,100,0
0,34,100,0
0,39,120,0
0,42,0,1
0,38,100,0
0,38,0,1
0,46,100,0
0,39,0,1
0,34,0,16
0,34,0,0
0,32,110,0
0,42,70,0
0,36,90,0
0,32,100,0
0,35,120,0
0,36,0,1
0,42,0,0
0,46,0,1
0,44,100,0
0,35,0,1
0,32,0,14
0,32,0,0
0,44,0,2
0,36,120,29
0,44,120,0
0,36,100,0
0,36,110,0
0,37,120,0
0,36,0,1
0,44,0,0
0,48,110,1
0,37,0,1
0,36,0,19
0,36,0,0
0,48,0,2
0,32,110,4
0,42,75,0
0,32,100,0
0,35,120,0
0,42,0,1
0,44,100,1
0,35,0,1
0,32,0,39
0,32,0,0
0,44,0,2
0,29,110,4
0,43,100,0
0,42,100,0
0,29,100,0
0,39,120,0
0,42,0,1
0,43,0,0
0,38,100,0
0,38,0,1
0,41,100,0
0,39,0,1
0,28,90,1
0,30,90,0
0,29,90,0
0,31,90,0
0,29,0,1
0,30,0,0
0,28,0,17
0,31,0,2
0,43,100,0
0,43,0,1
0,33,90,1
0,33,0,9
0,35,110,1
0,35,0,2
0,34,99,0
0,34,0,1
0,36,99,0
0,29,0,3
0,29,0,0
0,36,0,1
0,41,0,1
0,37,99,0
0,38,99,0
0,38,0,2
0,37,0,0
0,39,110,1
0,39,0,1
0,40,115,0
0,25,110,0
0,42,70,0
0,36,90,0
0,25,100,0
0,35,120,0
0,36,0,1
0,42,0,0
0,43,100,0
0,43,0,1
0,37,100,0
0,35,0,1
0,40,0,1
0,41,112,0
0,41,0,1
0,42,114,0
0,42,0,2
0,43,109,0
0,44,119,2
0,43,0,1
0,44,0,2
0,45,111,0
0,46,119,0
0,46,0,1
0,45,0,0
0,47,114,0
0,47,0,3
0,48,119,0
0,49,119,1
0,48,0,1
0,25,0,1
0,25,0,0
0,49,0,1
0,50,116,0
0,50,0,1
0,37,0,0
0,51,119,0
0,51,0,1
0,52,116,0
0,52,0,2
0,53,117,0
0,43,100,0
0,43,0,1
0,53,0,1
0,54,119,0
0,54,0,2
0,55,116,0
0,55,0,1
0,56,120,0
0,56,0,2
0,57,103,0
0,57,0,1
0,58,122,0
0,58,0,4
0,59,96,0
0,61,117,0
0,61,0,1
0,59,0,0
0,60,93,0
0,60,0,2
0,62,100,0
0,62,0,1
0,63,120,0
0,63,0,3
0,64,101,0
0,64,0,1
0,73,119,1
0,68,121,0
0,75,119,0
0,77,124,0
0,37,120,0
0,65,125,0
0,53,115,0
0,49,80,0
0,36,100,0
0,65,125,0
0,53,115,0
0,89,113,0
0,89,113,0
0,37,110,0
0,36,0,1
0,49,0,0
0,37,0,1
0,37,110,0
0,53,0,17
0,53,0,0
0,65,0,0
0,65,0,0
0,65,121,5
0,53,105,0
0,65,121,0
0,53,105,0
0,37,0,5
0,37,0,2
0,77,0,11
0,73,0,0
0,68,0,0
0,75,0,0
0,65,0,1
0,65,0,0
0,53,0,0
0,53,0,0
0,42,90,5
0,42,0,1
0,89,0,11
0,89,0,0
0,42,80,12
0,42,0,1
0,42,100,23
0,89,115,0
0,89,113,0
0,42,0,1
0,38,100,0
0,38,0,1
0,37,127,22
0,46,80,0
0,37,117,0
0,46,0,1
0,37,0,1
0,37,117,0
0,37,0,2
0,37,0,2
0,73,116,18
0,68,120,0
0,77,111,0
0,75,112,0
0,37,110,0
0,65,109,0
0,53,115,0
0,42,75,0
0,36,90,0
0,65,109,0
0,53,115,0
0,37,100,0
0,36,0,1
0,42,0,0
0,37,0,1
0,37,100,0
0,89,0,10
0,89,0,0
0,68,0,2
0,77,0,0
0,73,0,1
0,75,0,0
0,65,0,4
0,53,0,0
0,65,0,0
0,53,0,0
0,53,119,5
0,53,119,0
0,53,0,1
0,53,0,0
0,37,0,17
0,37,0,2
0,70,120,4
0,73,120,0
0,79,101,0
0,77,113,0
0,39,123,0
0,65,107,0
0,53,107,0
0,42,120,0
0,36,100,0
0,65,107,0
0,53,107,0
0,89,115,0
0,89,117,0
0,39,113,0
0,36,0,1
0,42,0,0
0,39,0,1
0,39,113,0
0,53,0,17
0,53,0,0
0,65,0,0
0,65,0,0
0,48,105,5
0,48,105,0
0,48,0,19
0,48,0,0
0,42,75,5
0,42,0,1
0,77,0,5
0,79,0,3
0,70,0,1
0,89,0,2
0,89,0,0
0,73,0,1
0,39,0,2
0,39,0,3
0,73,117,6
0,76,113,0
0,79,101,0
0,70,124,0
0,39,110,0
0,64,103,0
0,52,111,0
0,64,103,0
0,52,111,0
0,39,100,0
0,39,0,2
0,39,100,0
0,52,0,17
0,52,0,0
0,64,0,0
0,64,0,0
0,39,0,0
0,70,0,1
0,39,0,0
0,79,0,1
0,76,0,0
0,73,0,1
0,42,100,2
0,89,113,0
0,89,117,0
0,42,0,1
0,38,100,0
0,38,0,1
0,48,127,22
0,48,127,0
0,48,0,1
0,48,0,0
0,79,101,23
0,72,116,0
0,70,117,0
0,75,117,0
0,41,110,0
0,51,115,0
0,63,117,0
0,42,75,0
0,36,90,0
0,51,115,0
0,63,117,0
0,41,100,0
0,36,0,1
0,42,0,0
0,41,0,1
0,41,100,0
0,89,0,10
0,89,0,0
0,42,70,12
0,42,0,1
0,51,0,15
0,51,0,0
0,63,0,6
0,63,0,0
0,65,123,1
0,42,120,0
0,65,123,0
0,89,113,0
0,89,113,0
0,42,0,1
0,65,0,8
0,65,0,0
0,65,99,14
0,65,99,0
0,65,0,10
0,65,0,0
0,41,0,9
0,41,0,2
0,53,120,3
0,60,113,0
0,42,75,0
0,60,113,0
0,53,110,0
0,42,0,1
0,53,0,1
0,53,110,0
0,53,0,4
0,53,0,2
0,89,0,4
0,89,0,0
0,60,0,4
0,60,0,0
0,48,121,8
0,48,121,0
0,48,0,2
0,48,0,0
0,41,110,1
0,63,127,0
0,42,100,0
0,63,127,0
0,89,115,0
0,89,113,0
0,41,100,0
0,42,0,1
0,38,100,0
0,38,0,1
0,41,0,0
0,41,100,0
0,63,0,26
0,63,0,0
0,41,0,12
0,41,0,2
0,44,110,4
0,65,103,0
0,67,105,0
0,42,70,0
0,36,90,0
0,65,103,0
0,67,105,0
0,44,100,0
0,67,0,1
0,42,0,0
0,67,0,0
0,36,0,0
0,44,0,1
0,44,100,0
0,75,0,6
0,65,0,2
0,70,0,0
0,72,0,0
0,65,0,0
0,79,0,1
0,89,0,1
0,89,0,0
0,68,127,12
0,68,127,0
0,44,0,18
0,44,0,2
0,68,0,3
0,68,0,0
0,69,114,1
0,75,111,0
0,72,112,0
0,77,109,0
0,45,115,0
0,42,120,0
0,36,100,0
0,89,115,0
0,89,117,0
0,45,105,0
0,36,0,1
0,42,0,0
0,45,0,1
0,45,105,0
0,68,127,22
0,68,127,0
0,68,0,15
0,68,0,0
0,45,0,3
0,45,0,2
0,57,110,4
0,65,117,0
0,42,75,0
0,65,117,0
0,57,100,0
0,57,0,1
0,42,0,0
0,57,100,0
0,77,0,7
0,72,0,2
0,75,0,0
0,89,0,2
0,89,0,0
0,57,0,0
0,57,0,1
0,69,0,0
0,69,120,7
0,77,111,0
0,72,114,0
0,75,112,0
0,45,110,0
0,42,100,0
0,89,113,0
0,89,117,0
0,45,100,0
0,42,0,1
0,38,100,0
0,38,0,1
0,45,0,0
0,45,100,0
0,45,0,5
0,45,0,2
0,48,120,4
0,42,70,0
0,48,110,0
0,42,0,1
0,48,0,1
0,48,110,0
0,65,0,1
0,65,0,0
0,89,0,8
0,89,0,0
0,72,0,5
0,75,0,0
0,48,0,1
0,77,0,0
0,69,0,0
0,48,0,2
0,49,110,4
0,49,100,0
0,49,0,2
0,49,100,0
0,49,0,5
0,49,0,1
0,73,116,0
0,68,120,0
0,75,112,0
0,77,112,0
0,37,110,0
0,65,125,0
0,53,115,0
0,49,80,0
0,36,100,0
0,65,125,0
0,53,115,0
0,89,113,0
0,89,113,0
0,37,100,0
0,36,0,1
0,49,0,0
0,37,0,1
0,37,100,0
0,53,0,17
0,53,0,0
0,65,0,0
0,65,0,0
0,65,121,5
0,53,105,0
0,65,121,0
0,53,105,0
0,75,0,18
0,77,0,0
0,73,0,0
0,68,0,0
0,53,0,1
0,65,0,0
0,65,0,0
0,53,0,0
0,37,0,5
0,42,75,0
0,42,0,1
0,37,0,1
0,89,0,10
0,89,0,0
0,42,100,36
0,89,115,0
0,89,113,0
0,42,0,1
0,38,100,0
0,38,0,1
0,37,120,22
0,37,110,0
0,37,0,2
0,37,113,0
0,37,0,5
0,37,0,1
0,73,116,16
0,68,120,0
0,77,111,0
0,75,112,0
0,37,110,0
0,65,109,0
0,53,115,0
0,42,70,0
0,36,90,0
0,65,109,0
0,53,115,0
0,37,100,0
0,36,0,1
0,42,0,0
0,37,0,1
0,37,100,0
0,89,0,10
0,89,0,0
0,68,0,2
0,77,0,0
0,73,0,1
0,75,0,1
0,65,0,3
0,53,0,0
0,65,0,0
0,53,0,0
0,53,119,5
0,53,119,0
0,53,0,1
0,53,0,0
0,37,0,17
0,37,0,2
0,70,120,4
0,73,120,0
0,79,101,0
0,77,113,0
0,39,110,0
0,65,107,0
0,53,107,0
0,42,120,0
0,36,100,0
0,65,107,0
0,53,107,0
0,89,115,0
0,89,117,0
0,39,100,0
0,36,0,1
0,42,0,0
0,39,0,1
0,39,100,0
0,53,0,17
0,53,0,0
0,65,0,0
0,65,0,0
0,48,105,5
0,48,105,0
0,48,0,19
0,48,0,0
0,42,75,5
0,42,0,1
0,77,0,5
0,79,0,4
0,70,0,0
0,89,0,2
0,89,0,0
0,73,0,1
0,39,0,3
0,39,0,1
0,73,117,7
0,76,113,0
0,79,101,0
0,70,124,0
0,39,120,0
0,64,103,0
0,52,111,0
0,64,103,0
0,52,111,0
0,39,110,0
0,39,0,2
0,39,110,0
0,39,0,5
0,39,0,1
0,52,0,11
0,64,0,0
0,64,0,0
0,52,0,0
0,70,0,1
0,79,0,1
0,76,0,0
0,73,0,1
0,42,100,2
0,89,113,0
0,89,117,0
0,42,0,1
0,38,100,0
0,38,0,1
0,48,127,22
0,48,127,0
0,48,0,1
0,48,0,0
0,79,101,23
0,72,116,0
0,70,117,0
0,75,117,0
0,41,120,0
0,51,115,0
0,63,117,0
0,42,70,0
0,36,90,0
0,51,115,0
0,63,117,0
0,41,110,0
0,36,0,1
0,42,0,0
0,41,0,1
0,41,110,0
0,89,0,10
0,89,0,0
0,51,0,28
0,51,0,0
0,63,0,6
0,63,0,0
0,53,123,2
0,42,120,0
0,53,123,0
0,89,113,0
0,89,113,0
0,42,0,1
0,53,0,8
0,53,0,0
0,41,0,7
0,53,99,7
0,53,99,0
0,53,0,10
0,53,0,0
0,41,0,14
0,53,125,0
0,48,113,0
0,42,75,0
0,48,113,0
0,53,115,0
0,42,0,1
0,53,0,1
0,53,115,0
0,53,0,4
0,53,0,2
0,89,0,4
0,89,0,0
0,48,0,4
0,48,0,0
0,36,121,8
0,36,121,0
0,36,0,2
0,36,0,0
0,41,110,22
0,51,127,0
0,42,100,0
0,51,127,0
0,89,115,0
0,89,113,0
0,41,100,0
0,42,0,1
0,38,100,0
0,38,0,1
0,41,0,0
0,41,100,0
0,51,0,28
0,51,0,0
0,41,0,12
0,41,0,2
0,44,110,4
0,53,103,0
0,55,105,0
0,42,70,0
0,36,90,0
0,53,103,0
0,55,105,0
0,44,100,0
0,44,0,1
0,42,0,0
0,55,0,0
0,55,0,0
0,36,0,0
0,44,100,0
0,75,0,6
0,72,0,2
0,53,0,1
0,53,0,0
0,70,0,0
0,79,0,1
0,89,0,1
0,89,0,0
0,56,127,12
0,56,127,0
0,44,0,19
0,44,0,1
0,56,0,3
0,56,0,0
0,69,114,0
0,75,111,0
0,72,112,0
0,77,109,0
0,45,120,0
0,42,120,0
0,36,100,0
0,89,115,0
0,89,117,0
0,45,110,0
0,36,0,1
0,42,0,0
0,45,0,1
0,45,110,0
0,56,127,20
0,56,127,0
0,56,0,15
0,56,0,0
0,45,0,3
0,45,0,2
0,57,110,4
0,53,117,0
0,42,75,0
0,53,117,0
0,57,100,0
0,42,0,1
0,57,0,1
0,57,100,0
0,77,0,6
0,75,0,2
0,72,0,1
0,57,0,0
0,89,0,1
0,89,0,0
0,69,0,1
0,57,0,0
0,69,120,7
0,77,111,0
0,72,114,0
0,75,112,0
0,45,110,0
0,42,100,0
0,89,113,0
0,89,117,0
0,45,100,0
0,42,0,1
0,45,0,1
0,38,100,0
0,45,100,0
0,38,0,1
0,45,0,5
0,45,0,2
0,48,120,4
0,42,70,0
0,48,110,0
0,48,0,1
0,42,0,0
0,48,110,0
0,53,0,2
0,53,0,0
0,48,0,3
0,48,0,1
0,89,0,4
0,89,0,0
0,75,0,5
0,77,0,1
0,69,0,0
0,72,0,0
0,49,110,6
0,49,100,0
0,49,0,2
0,49,100,0
0,49,0,19
0,49,0,1
0,73,116,0
0,68,120,0
0,75,112,0
0,77,112,0
0,37,120,0
0,65,125,0
0,53,115,0
0,49,80,0
0,36,100,0
0,65,125,0
0,53,115,0
0,89,113,0
0,89,113,0
0,37,110,0
0,36,0,1
0,49,0,0
0,37,0,1
0,37,110,0
0,53,0,17
0,53,0,0
0,65,0,0
0,65,0,0
0,65,121,5
0,53,105,0
0,65,121,0
0,53,105,0
0,75,0,18
0,77,0,0
0,73,0,0
0,68,0,0
0,53,0,1
0,65,0,0
0,65,0,0
0,53,0,0
