track,note,velocity,time
0,59,80,480
0,67,80,0
0,62,80,0
0,70,80,0
0,56,80,0
0,70,0,28
0,70,80,2
0,56,0,27
0,70,0,1
0,70,80,2
0,56,80,0
0,70,0,28
0,70,80,2
0,56,0,27
0,70,0,1
0,70,80,2
0,54,80,0
0,70,0,28
0,70,80,2
0,62,0,22
0,67,0,0
0,59,0,0
0,70,0,6
0,69,80,2
0,64,80,0
0,61,80,0
0,70,80,0
0,70,0,28
0,70,80,2
0,54,0,25
0,70,0,3
0,70,80,2
0,56,80,0
0,56,0,28
0,70,0,0
0,70,80,2
0,56,80,0
0,56,0,28
0,70,0,0
0,70,80,2
0,70,0,28
0,70,80,2
0,56,80,0
0,56,0,28
0,70,0,0
0,70,80,2
0,54,80,0
0,70,0,28
0,70,80,2
0,70,0,28
0,70,80,2
0,70,0,28
0,70,80,2
0,54,0,25
0,70,0,3
0,61,0,2
0,64,0,0
0,69,0,0
0,69,80,0
0,64,80,0
0,61,80,0
0,70,80,0
0,56,80,0
0,56,0,28
0,70,0,0
0,70,80,2
0,70,0,28
0,70,80,2
0,56,80,0
0,56,0,28
0,70,0,0
0,70,80,2
0,70,0,28
0,70,80,2
0,54,80,0
0,70,0,28
0,70,80,2
0,61,0,22
0,64,0,0
0,69,0,0
0,70,0,6
0,71,80,2
0,66,80,0
0,62,80,0
0,70,80,0
0,56,80,0
0,56,0,28
0,70,0,0
0,70,80,2
0,54,0,25
0,70,0,3
0,70,80,2
0,70,0,28
0,70,80,2
0,70,0,28
0,70,80,2
0,70,0,28
0,70,80,2
0,70,0,28
0,70,80,2
0,54,80,0
0,70,0,28
0,70,80,2
0,70,0,28
0,70,80,2
0,70,0,28
0,70,80,2
0,54,0,25
0,70,0,3
0,62,0,2
0,66,0,0
0,71,0,0
0,67,80,0
0,62,80,0
0,59,80,0
0,70,80,0
0,56,80,0
0,56,0,28
0,70,0,0
0,70,80,2
0,70,0,28
0,70,80,2
0,56,80,0
0,56,0,28
0,70,0,0
0,70,80,2
0,70,0,28
0,70,80,2
0,54,80,0
0,70,0,28
0,70,80,2
0,59,0,22
0,62,0,0
0,67,0,0
0,70,0,6
0,69,80,2
0,64,80,0
0,61,80,0
0,70,80,0
0,70,0,28
0,70,80,2
0,54,0,25
0,70,0,3
0,70,80,2
0,56,80,0
0,56,0,28
0,70,0,0
0,70,80,2
0,56,80,0
0,56,0,28
0,70,0,0
0,70,80,2
0,70,0,28
0,70,80,2
0,56,80,0
0,56,0,28
0,70,0,0
0,70,80,2
0,54,80,0
0,70,0,28
0,70,80,2
0,70,0,28
0,70,80,2
0,70,0,28
0,70,80,2
0,54,0,25
0,70,0,3
0,61,0,2
0,64,0,0
0,69,0,0
0,66,80,0
0,61,80,0
0,57,80,0
0,70,80,0
0,56,80,0
0,56,0,28
0,70,0,0
0,70,80,2
0,70,0,28
0,70,80,2
0,56,80,0
0,56,0,28
0,70,0,0
0,70,80,2
0,70,0,28
0,70,80,2
0,54,80,0
0,70,0,28
0,70,80,2
0,57,0,22
0,61,0,0
0,66,0,0
0,70,0,6
0,67,80,2
0,62,80,0
0,59,80,0
0,70,80,0
0,56,80,0
0,56,0,28
0,70,0,0
0,70,80,2
0,54,0,25
0,70,0,3
0,70,80,2
0,70,0,28
0,70,80,2
0,70,0,28
0,70,80,2
0,70,0,28
0,70,80,2
0,70,0,28
0,69,80,2
0,70,80,0
0,54,80,0
0,69,0,28
0,70,0,0
0,71,80,2
0,70,80,0
0,71,0,28
0,70,0,0
0,74,80,2
0,70,80,0
0,70,0,28
0,70,80,2
0,54,0,25
0,74,0,2
0,70,0,1
0,59,0,2
0,62,0,0
0,67,0,0
0,71,80,0
0,67,80,0
0,62,80,0
0,78,80,0
0,70,80,0
0,56,80,0
0,70,0,28
0,70,80,2
0,56,0,27
0,70,0,1
0,70,80,2
0,56,80,0
0,78,0,26
0,70,0,2
0,76,80,2
0,70,80,0
0,56,0,27
0,70,0,1
0,70,80,2
0,54,80,0
0,70,0,28
0,70,80,2
0,62,0,22
0,67,0,0
0,71,0,0
0,70,0,6
0,69,80,2
0,64,80,0
0,61,80,0
0,76,0,0
0,74,80,0
0,70,80,0
0,70,0,28
0,70,80,2
0,54,0,25
0,74,0,2
0,70,0,1
0,73,80,2
0,70,80,0
0,56,80,0
0,56,0,28
0,70,0,0
0,70,80,2
0,56,80,0
0,56,0,28
0,70,0,0
0,70,80,2
0,73,0,26
0,70,0,2
0,71,80,2
0,70,80,0
0,56,80,0
0,56,0,28
0,70,0,0
0,70,80,2
0,54,80,0
0,70,0,28
0,70,80,2
0,70,0,28
0,71,0,2
0,69,80,0
0,70,80,0
0,70,0,28
0,70,80,2
0,54,0,25
0,69,0,2
0,70,0,1
0,61,0,2
0,64,0,0
0,69,0,0
0,69,80,0
0,64,80,0
0,61,80,0
0,66,80,0
0,70,80,0
0,56,80,0
0,56,0,28
0,70,0,0
0,70,80,2
0,70,0,28
0,70,80,2
0,56,80,0
0,56,0,28
0,70,0,0
0,70,80,2
0,70,0,28
0,70,80,2
0,54,80,0
0,70,0,28
0,70,80,2
0,61,0,22
0,64,0,0
0,69,0,0
0,70,0,6
0,71,80,2
0,66,80,0
0,62,80,0
0,70,80,0
0,56,80,0
0,56,0,28
0,70,0,0
0,70,80,2
0,54,0,25
0,70,0,3
0,70,80,2
0,66,0,19
0,70,0,9
0,70,80,2
0,70,0,28
0,70,80,2
0,70,0,28
0,70,80,2
0,70,0,28
0,69,80,2
0,70,80,0
0,54,80,0
0,69,0,28
0,70,0,0
0,71,80,2
0,70,80,0
0,71,0,28
0,70,0,0
0,74,80,2
0,70,80,0
0,70,0,28
0,70,80,2
0,54,0,25
0,74,0,2
0,70,0,1
0,62,0,2
0,66,0,0
0,71,0,0
0,67,80,0
0,62,80,0
0,59,80,0
0,78,80,0
0,70,80,0
0,56,80,0
0,56,0,28
0,70,0,0
0,70,80,2
0,70,0,28
0,70,80,2
0,56,80,0
0,78,0,26
0,56,0,2
0,70,0,0
0,76,80,2
0,70,80,0
0,70,0,28
0,70,80,2
0,54,80,0
0,70,0,28
0,70,80,2
0,59,0,22
0,62,0,0
0,67,0,0
0,70,0,6
0,69,80,2
0,64,80,0
0,61,80,0
0,76,0,0
0,74,80,0
0,70,80,0
0,70,0,28
0,70,80,2
0,54,0,25
0,74,0,2
0,70,0,1
0,73,80,2
0,70,80,0
0,56,80,0
0,56,0,28
0,70,0,0
0,70,80,2
0,56,80,0
0,56,0,28
0,70,0,0
0,70,80,2
0,73,0,26
0,70,0,2
0,71,80,2
0,70,80,0
0,56,80,0
0,56,0,28
0,70,0,0
0,70,80,2
0,54,80,0
0,70,0,28
0,70,80,2
0,70,0,28
0,71,0,2
0,81,80,0
0,70,80,0
0,70,0,28
0,70,80,2
0,54,0,25
0,81,0,2
0,70,0,1
0,61,0,2
0,64,0,0
0,69,0,0
0,66,80,0
0,61,80,0
0,57,80,0
0,78,80,0
0,70,80,0
0,56,80,0
0,56,0,28
0,70,0,0
0,70,80,2
0,70,0,28
0,70,80,2
0,56,80,0
0,56,0,28
0,70,0,0
0,70,80,2
0,70,0,28
0,70,80,2
0,54,80,0
0,70,0,28
0,70,80,2
0,57,0,22
0,61,0,0
0,66,0,0
0,70,0,6
0,67,80,2
0,62,80,0
0,59,80,0
0,70,80,0
0,56,80,0
0,56,0,28
0,70,0,0
0,70,80,2
0,54,0,25
0,70,0,3
0,70,80,2
0,78,0,19
0,70,0,9
0,70,80,2
0,70,0,28
0,70,80,2
0,70,0,28
0,70,80,2
0,70,0,28
0,71,90,2
0,67,90,0
0,62,90,0
0,62,90,0
0,67,90,0
0,71,90,0
0,74,90,0
0,78,90,0
0,74,90,0
0,71,90,0
0,78,90,0
0,43,80,0
0,31,80,0
0,70,80,0
0,54,80,0
0,78,0,14
0,71,0,0
0,62,0,0
0,67,0,0
0,74,0,0
0,78,0,0
0,71,0,0
0,74,0,0
0,70,0,14
0,70,80,2
0,70,0,28
0,62,0,2
0,67,0,0
0,71,0,0
0,70,80,0
0,70,0,28
0,70,80,2
0,31,0,18
0,43,0,0
0,54,0,7
0,70,0,3
0,59,0,2
0,62,0,0
0,67,0,0
0,71,80,0
0,67,80,0
0,62,80,0
0,31,80,0
0,49,80,0
0,36,80,0
0,70,80,0
0,56,80,0
0,54,80,0
0,54,0,28
0,70,0,0
0,70,80,2
0,54,80,0
0,56,0,27
0,54,0,1
0,70,0,0
0,70,80,2
0,56,80,0
0,54,80,0
0,31,0,21
0,54,0,7
0,70,0,0
0,31,80,2
0,70,80,0
0,54,80,0
0,36,0,25
0,49,0,0
0,56,0,2
0,54,0,1
0,70,0,0
0,40,80,2
0,39,80,0
0,70,80,0
0,54,80,0
0,54,0,28
0,70,0,0
0,70,80,2
0,54,80,0
0,62,0,22
0,67,0,0
0,71,0,0
0,31,0,2
0,54,0,4
0,70,0,0
0,69,80,2
0,64,80,0
0,61,80,0
0,33,80,0
0,70,80,0
0,54,80,0
0,54,0,28
0,70,0,0
0,70,80,2
0,54,80,0
0,33,0,24
0,39,0,1
0,40,0,0
0,54,0,3
0,70,0,0
0,36,80,2
0,70,80,0
0,56,80,0
0,54,80,0
0,54,0,28
0,56,0,0
0,70,0,0
0,70,80,2
0,56,80,0
0,54,80,0
0,54,0,28
0,56,0,0
0,70,0,0
0,70,80,2
0,54,80,0
0,54,0,28
0,70,0,0
0,70,80,2
0,56,80,0
0,54,80,0
0,36,0,25
0,54,0,3
0,56,0,0
0,70,0,0
0,40,80,2
0,39,80,0
0,70,80,0
0,54,80,0
0,54,0,28
0,70,0,0
0,70,80,2
0,54,80,0
0,54,0,28
0,70,0,0
0,33,80,2
0,70,80,0
0,54,80,0
0,33,0,27
0,54,0,1
0,70,0,0
0,33,80,2
0,70,80,0
0,54,80,0
0,39,0,25
0,40,0,0
0,33,0,2
0,54,0,1
0,70,0,0
0,61,0,2
0,64,0,0
0,69,0,0
0,69,80,0
0,64,80,0
0,61,80,0
0,33,80,0
0,36,80,0
0,70,80,0
0,56,80,0
0,54,80,0
0,54,0,28
0,56,0,0
0,70,0,0
0,70,80,2
0,54,80,0
0,54,0,28
0,70,0,0
0,70,80,2
0,56,80,0
0,54,80,0
0,33,0,21
0,54,0,7
0,56,0,0
0,70,0,0
0,33,80,2
0,70,80,0
0,54,80,0
0,36,0,25
0,54,0,3
0,70,0,0
0,40,80,2
0,39,80,0
0,70,80,0
0,54,80,0
0,54,0,28
0,70,0,0
0,70,80,2
0,54,80,0
0,61,0,22
0,64,0,0
0,69,0,0
0,33,0,2
0,54,0,4
0,70,0,0
0,71,80,2
0,66,80,0
0,62,80,0
0,35,80,0
0,70,80,0
0,56,80,0
0,54,80,0
0,54,0,28
0,56,0,0
0,70,0,0
0,70,80,2
0,54,80,0
0,35,0,24
0,39,0,1
0,40,0,0
0,54,0,3
0,70,0,0
0,36,80,2
0,70,80,0
0,54,80,0
0,54,0,28
0,70,0,0
0,70,80,2
0,54,80,0
0,54,0,28
0,70,0,0
0,35,80,2
0,70,80,0
0,54,80,0
0,35,0,27
0,54,0,1
0,70,0,0
0,35,80,2
0,70,80,0
0,54,80,0
0,36,0,25
0,35,0,2
0,54,0,1
0,70,0,0
0,35,80,2
0,40,80,0
0,39,80,0
0,70,80,0
0,54,80,0
0,35,0,27
0,54,0,1
0,70,0,0
0,38,80,2
0,70,80,0
0,54,80,0
0,38,0,27
0,54,0,1
0,70,0,0
0,35,80,2
0,70,80,0
0,54,80,0
0,35,0,27
0,54,0,1
0,70,0,0
0,33,80,2
0,70,80,0
0,54,80,0
0,39,0,25
0,40,0,0
0,33,0,2
0,54,0,1
0,70,0,0
0,62,0,2
0,66,0,0
0,71,0,0
0,67,80,0
0,62,80,0
0,59,80,0
0,31,80,0
0,36,80,0
0,70,80,0
0,56,80,0
0,54,80,0
0,54,0,28
0,56,0,0
0,70,0,0
0,70,80,2
0,54,80,0
0,54,0,28
0,70,0,0
0,70,80,2
0,56,80,0
0,54,80,0
0,31,0,21
0,54,0,7
0,56,0,0
0,70,0,0
0,31,80,2
0,70,80,0
0,54,80,0
0,36,0,25
0,54,0,3
0,70,0,0
0,40,80,2
0,39,80,0
0,70,80,0
0,54,80,0
0,54,0,28
0,70,0,0
0,70,80,2
0,54,80,0
0,59,0,22
0,62,0,0
0,67,0,0
0,31,0,2
0,54,0,4
0,70,0,0
0,69,80,2
0,64,80,0
0,61,80,0
0,33,80,0
0,70,80,0
0,54,80,0
0,54,0,28
0,70,0,0
0,70,80,2
0,54,80,0
0,33,0,24
0,39,0,1
0,40,0,0
0,54,0,3
0,70,0,0
0,36,80,2
0,70,80,0
0,56,80,0
0,54,80,0
0,54,0,28
0,56,0,0
0,70,0,0
0,70,80,2
0,56,80,0
0,54,80,0
0,54,0,28
0,56,0,0
0,70,0,0
0,70,80,2
0,54,80,0
0,54,0,28
0,70,0,0
0,70,80,2
0,56,80,0
0,54,80,0
0,36,0,25
0,54,0,3
0,56,0,0
0,70,0,0
0,40,80,2
0,39,80,0
0,70,80,0
0,54,80,0
0,54,0,28
0,70,0,0
0,70,80,2
0,54,80,0
0,54,0,28
0,70,0,0
0,33,80,2
0,70,80,0
0,54,80,0
0,33,0,27
0,54,0,1
0,70,0,0
0,31,80,2
0,70,80,0
0,54,80,0
0,39,0,25
0,40,0,0
0,31,0,2
0,54,0,1
0,70,0,0
0,61,0,2
0,64,0,0
0,69,0,0
0,66,80,0
0,61,80,0
0,57,80,0
0,30,80,0
0,36,80,0
0,70,80,0
0,56,80,0
0,54,80,0
0,54,0,28
0,56,0,0
0,70,0,0
0,70,80,2
0,54,80,0
0,54,0,28
0,70,0,0
0,70,80,2
0,56,80,0
0,54,80,0
0,30,0,21
0,54,0,7
0,56,0,0
0,70,0,0
0,30,80,2
0,70,80,0
0,54,80,0
0,36,0,25
0,54,0,3
0,70,0,0
0,40,80,2
0,39,80,0
0,70,80,0
0,54,80,0
0,54,0,28
0,70,0,0
0,70,80,2
0,54,80,0
0,57,0,22
0,61,0,0
0,66,0,0
0,30,0,2
0,54,0,4
0,70,0,0
0,67,80,2
0,62,80,0
0,59,80,0
0,31,80,0
0,56,80,0
0,70,80,0
0,54,80,0
0,54,0,28
0,70,0,0
0,56,0,0
0,54,80,2
0,70,80,0
0,31,0,24
0,39,0,1
0,40,0,0
0,70,0,3
0,54,0,0
0,36,80,2
0,70,80,0
0,54,80,0
0,54,0,28
0,70,0,0
0,70,80,2
0,54,80,0
0,54,0,28
0,70,0,0
0,70,80,2
0,54,80,0
0,54,0,28
0,70,0,0
0,54,80,2
0,70,80,0
0,36,0,25
0,70,0,3
0,54,0,0
0,69,80,2
0,40,80,0
0,39,80,0
0,70,80,0
0,54,80,0
0,54,0,28
0,70,0,0
0,69,0,2
0,71,80,0
0,70,80,0
0,54,80,0
0,54,0,28
0,70,0,0
0,71,0,2
0,74,80,0
0,38,80,0
0,70,80,0
0,54,80,0
0,74,0,24
0,54,0,4
0,70,0,0
0,76,80,2
0,70,80,0
0,54,80,0
0,38,0,24
0,39,0,1
0,40,0,0
0,54,0,3
0,70,0,0
0,59,0,2
0,62,0,0
0,67,0,0
0,71,80,0
0,67,80,0
0,62,80,0
0,66,80,0
0,71,80,0
0,62,80,0
0,31,80,0
0,36,80,0
0,70,80,0
0,56,80,0
0,54,80,0
0,54,0,28
0,70,0,0
0,70,80,2
0,54,80,0
0,76,0,18
0,56,0,9
0,54,0,1
0,70,0,0
0,74,80,2
0,70,80,0
0,56,80,0
0,54,80,0
0,31,0,21
0,62,0,5
0,71,0,0
0,66,0,0
0,54,0,2
0,70,0,0
0,71,80,2
0,66,80,0
0,62,80,0
0,31,80,0
0,70,80,0
0,54,80,0
0,74,0,18
0,36,0,7
0,56,0,2
0,62,0,1
0,66,0,0
0,71,0,0
0,54,0,0
0,70,0,0
0,40,80,2
0,39,80,0
0,70,80,0
0,54,80,0
