track,note,velocity,time
0,65,113,85
0,60,100,0
0,56,103,0
0,41,83,0
0,41,0,25
0,65,0,6
0,60,0,0
0,56,0,0
0,65,75,37
0,60,62,0
0,56,65,0
0,49,127,0
0,49,0,35
0,65,0,6
0,60,0,0
0,56,0,0
0,67,104,109
0,63,103,0
0,58,109,0
0,58,0,41
0,63,0,0
0,67,0,0
0,67,66,151
0,63,65,0
0,58,71,0
0,49,123,0
0,49,0,37
0,67,0,4
0,63,0,0
0,58,0,0
0,68,98,151
0,65,103,0
0,60,105,0
0,60,0,41
0,65,0,0
0,68,0,0
0,68,55,151
0,65,60,0
0,60,62,0
0,49,127,0
0,49,0,33
0,68,0,8
0,65,0,0
0,60,0,0
0,70,106,151
0,65,104,0
0,61,109,0
0,61,0,41
0,65,0,0
0,70,0,0
0,70,68,151
0,65,66,0
0,61,71,0
0,49,127,0
0,49,0,29
0,70,0,12
0,65,0,0
0,61,0,0
0,68,103,151
0,65,113,0
0,60,102,0
0,60,0,39
0,65,0,0
0,68,0,0
0,68,65,151
0,65,75,0
0,60,64,0
0,53,127,0
0,53,0,33
0,68,0,8
0,65,0,0
0,60,0,0
0,67,94,151
0,65,102,0
0,58,112,0
0,58,0,41
0,65,0,0
0,67,0,0
0,67,56,151
0,65,64,0
0,58,74,0
0,53,127,0
0,53,0,39
0,67,0,2
0,65,0,0
0,58,0,0
0,65,110,151
0,60,106,0
0,56,100,0
0,56,0,41
0,60,0,0
0,65,0,0
0,65,72,151
0,60,68,0
0,56,62,0
0,53,124,0
0,53,0,41
0,65,0,0
0,60,0,0
0,56,0,0
0,63,109,151
0,58,112,0
0,55,104,0
0,55,0,41
0,58,0,0
0,63,0,0
0,63,71,151
0,58,74,0
0,55,66,0
0,53,127,0
0,53,0,37
0,63,0,4
0,58,0,0
0,55,0,0
0,65,106,151
0,60,100,0
0,56,109,0
0,41,56,0
0,41,0,39
0,65,0,2
0,60,0,0
0,56,0,0
0,65,68,151
0,60,62,0
0,56,71,0
0,46,121,0
0,48,34,0
0,56,0,41
0,65,0,0
0,60,0,0
0,46,0,4
0,48,0,14
0,67,104,133
0,63,97,0
0,58,109,0
0,41,42,0
0,58,0,41
0,67,0,0
0,63,0,0
0,41,0,20
0,67,66,131
0,63,59,0
0,58,71,0
0,46,118,0
0,48,42,0
0,58,0,41
0,67,0,0
0,63,0,0
0,46,0,4
0,48,0,20
0,68,112,127
0,65,113,0
0,61,106,0
0,60,106,0
0,41,56,0
0,60,0,41
0,61,0,0
0,68,0,0
0,65,0,0
0,41,0,28
0,68,74,123
0,65,75,0
0,61,68,0
0,60,68,0
0,46,117,0
0,48,50,0
0,60,0,41
0,61,0,0
0,68,0,0
0,65,0,0
0,46,0,6
0,48,0,18
0,70,115,127
0,65,104,0
0,61,106,0
0,41,60,0
0,61,0,41
0,70,0,0
0,65,0,0
0,41,0,16
0,70,77,135
0,65,66,0
0,61,68,0
0,46,117,0
0,48,57,0
0,46,0,41
0,61,0,0
0,70,0,0
0,65,0,0
0,48,0,16
0,68,109,135
0,64,113,0
0,60,96,0
0,43,67,0
0,60,0,41
0,68,0,0
0,64,0,0
0,43,0,12
0,68,71,139
0,64,75,0
0,60,58,0
0,48,123,0
0,48,65,0
0,60,0,41
0,68,0,0
0,64,0,0
0,48,0,4
0,48,0,16
0,67,104,131
0,64,110,0
0,58,106,0
0,43,78,0
0,58,0,41
0,67,0,0
0,64,0,0
0,43,0,26
0,67,66,125
0,64,72,0
0,58,68,0
0,48,123,0
0,48,72,0
0,48,0,31
0,58,0,10
0,67,0,0
0,64,0,0
0,48,0,30
0,65,115,121
0,60,110,0
0,56,112,0
0,53,126,0
0,41,83,0
0,53,0,33
0,56,0,8
0,65,0,0
0,60,0,0
0,41,0,30
0,65,77,121
0,60,72,0
0,56,74,0
0,48,102,0
0,48,80,0
0,48,0,33
0,56,0,8
0,65,0,0
0,60,0,0
0,48,0,32
0,63,115,119
0,58,115,0
0,55,113,0
0,51,127,0
0,41,94,0
0,51,0,33
0,55,0,8
0,63,0,0
0,58,0,0
0,41,0,8
0,63,77,143
0,58,77,0
0,55,75,0
0,48,105,0
0,48,87,0
0,48,0,31
0,48,0,8
0,63,0,2
0,58,0,0
0,55,0,0
0,56,116,47
0,49,107,0
0,37,97,0
0,55,81,0
0,49,108,0
0,55,0,3
0,65,124,9
0,49,0,21
0,65,0,150
0,49,0,2
0,37,0,6
0,67,116,1
0,67,0,33
0,56,0,54
0,65,107,1
0,65,0,51
0,63,127,37
0,63,0,39
0,65,127,153
0,65,0,41
0,67,127,163
0,58,119,2
0,51,116,0
0,39,101,0
0,55,71,0
0,41,100,0
0,55,0,5
0,41,0,34
0,67,0,112
0,39,0,22
0,51,0,0
0,68,123,1
0,68,0,57
0,67,116,27
0,58,0,23
0,67,0,10
0,65,121,81
0,65,0,35
0,67,126,159
0,67,0,41
0,60,114,161
0,53,108,0
0,41,104,0
0,55,76,0
0,41,100,0
0,68,123,2
0,55,0,3
0,41,0,26
0,41,0,116
0,53,0,6
0,68,0,18
0,70,118,13
0,70,0,53
0,68,108,29
0,60,0,15
0,68,0,24
0,67,114,69
0,67,0,29
0,68,127,169
0,68,0,45
0,77,123,151
0,68,118,0
0,65,114,0
0,60,117,0
0,68,0,41
0,77,0,0
0,60,0,2
0,65,0,2
0,72,120,147
0,65,122,0
0,60,100,0
0,56,113,0
0,56,0,37
0,72,0,4
0,65,0,0
0,60,0,2
0,68,127,149
0,60,118,0
0,56,101,0
0,53,125,0
0,53,0,37
0,68,0,4
0,60,0,0
0,56,0,2
0,65,118,149
0,56,114,0
0,53,104,0
0,48,120,0
0,53,0,31
0,48,104,7
0,65,0,3
0,48,0,0
0,56,0,0
0,48,0,34
0,56,116,117
0,49,107,0
0,37,97,0
0,57,65,0
0,41,107,0
0,57,0,5
0,65,124,9
0,41,0,21
0,65,0,150
0,49,0,2
0,37,0,6
0,67,121,1
0,67,0,33
0,56,0,54
0,65,110,1
0,65,0,51
0,63,127,37
0,63,0,39
0,65,127,153
0,65,0,41
0,67,127,163
0,58,119,2
0,51,116,0
0,39,101,0
0,49,60,0
0,41,106,0
0,49,0,5
0,41,0,30
0,67,0,116
0,39,0,22
0,51,0,0
0,68,121,1
0,68,0,57
0,67,114,27
0,58,0,23
0,67,0,10
0,65,116,81
0,65,0,35
0,67,126,159
0,67,0,29
0,60,114,173
0,53,108,0
0,41,104,0
0,57,59,0
0,41,110,0
0,68,119,2
0,57,0,3
0,41,0,28
0,41,0,56
0,60,0,0
0,53,0,0
0,68,0,2
0,60,100,95
0,56,104,6
0,53,109,0
0,60,0,35
0,56,0,6
0,53,0,16
0,56,97,131
0,65,102,2
0,60,102,6
0,65,0,35
0,60,0,6
0,56,0,8
0,68,110,131
0,60,97,2
0,65,122,6
0,68,0,33
0,65,0,8
0,60,0,10
0,72,120,133
0,60,94,2
0,65,95,4
0,68,110,2
0,72,0,33
0,68,0,8
0,60,0,10
0,65,0,4
0,65,100,131
0,68,115,2
0,60,87,4
0,68,0,37
0,65,0,14
0,60,0,6
0,72,120,131
0,68,103,6
0,65,98,0
0,60,92,2
0,72,0,33
0,68,0,6
0,65,0,16
0,60,0,2
0,77,122,127
0,72,118,0
0,65,108,0
0,60,98,2
0,68,110,2
0,72,0,37
0,77,0,0
0,48,95,1
0,68,0,3
0,65,0,12
0,60,0,2
0,48,0,30
0,48,95,7
0,48,0,18
0,65,100,11
0,68,112,17
0,29,90,6
0,57,81,0
0,42,85,0
0,35,108,0
0,41,120,0
0,35,0,4
0,57,0,0
0,42,0,0
0,72,92,1
0,68,96,0
0,67,99,0
0,65,99,0
0,72,127,20
0,41,0,11
0,29,0,2
0,29,102,95
0,72,114,0
0,68,110,0
0,67,112,0
0,60,109,0
0,42,67,0
0,35,102,0
0,35,0,4
0,42,0,0
0,72,0,88
0,67,0,30
0,68,0,10
0,29,0,20
0,60,0,0
0,36,104,35
0,72,117,0
0,68,113,0
0,65,98,0
0,62,120,0
0,44,73,0
0,40,125,0
0,40,0,4
0,44,0,0
0,62,0,0
0,36,0,66
0,65,0,0
0,72,0,14
0,68,0,2
0,29,94,13
0,70,91,0
0,42,56,0
0,42,0,4
0,70,0,28
0,29,0,44
0,34,104,95
0,72,112,0
0,68,100,0
0,67,95,0
0,60,93,0
0,42,85,0
0,35,104,0
0,35,0,4
0,42,0,0
0,82,65,49
0,82,0,4
0,72,0,10
0,34,0,28
0,67,0,12
0,68,0,0
0,60,0,0
0,29,73,7
0,72,92,0
0,82,76,0
0,42,53,0
0,42,0,4
0,82,0,0
0,72,0,50
0,29,0,2
0,82,48,7
0,82,0,4
0,32,89,91
0,72,84,0
0,68,72,0
0,65,68,0
0,62,120,0
0,44,81,0
0,40,127,0
0,40,0,4
0,44,0,0
0,62,0,0
0,69,55,51
0,69,0,4
0,32,0,54
0,36,107,37
0,69,66,0
0,42,56,0
0,42,0,4
0,69,0,0
0,69,38,21
0,69,0,4
0,36,0,38
0,29,75,29
0,72,97,0
0,42,87,0
0,35,97,0
0,35,0,5
0,42,0,0
0,29,0,32
0,82,45,37
0,82,0,5
0,72,0,42
0,29,104,11
0,72,68,0
0,82,56,0
0,42,56,0
0,35,100,0
0,35,0,5
0,42,0,0
0,82,0,0
0,72,0,34
0,82,28,57
0,82,0,5
0,29,0,24
0,36,100,55
0,62,120,0
0,44,72,0
0,40,127,0
0,40,0,5
0,44,0,0
0,62,0,0
0,69,35,3
0,69,0,5
0,72,0,22
0,68,0,22
0,65,0,34
0,36,0,4
0,29,84,9
0,69,46,0
0,42,56,0
0,42,0,5
0,69,0,0
0,29,0,30
0,69,18,3
0,69,0,5
0,34,104,3
0,72,66,0
0,42,88,0
0,35,104,0
0,35,0,5
0,42,0,0
0,72,0,70
0,34,0,26
0,29,84,29
0,72,60,0
0,42,56,0
0,42,0,5
0,72,0,42
0,29,0,10
0,32,104,69
0,62,120,0
0,44,78,0
0,40,127,0
0,40,0,5
0,44,0,0
0,62,0,0
0,72,0,140
0,67,0,0
0,32,0,10
0,65,0,6
0,68,0,6
0,34,107,25
0,42,56,0
0,42,0,5
0,65,0,42
0,72,0,28
0,68,0,0
0,63,86,41
0,34,0,1
0,67,113,35
0,29,73,12
0,42,85,0
0,35,108,0
0,70,122,1
0,35,0,3
0,42,0,0
0,70,96,1
0,67,99,0
0,65,102,0
0,63,100,0
0,29,0,35
0,29,94,95
0,75,117,0
0,72,110,0
0,70,113,0
0,67,102,0
0,42,67,0
0,35,102,0
0,35,0,4
0,42,0,0
0,75,0,90
0,70,0,2
0,67,0,6
0,72,0,6
0,29,0,20
0,36,111,63
0,75,127,0
0,70,123,0
0,67,102,0
0,62,120,0
0,44,73,0
0,40,125,0
0,40,0,4
0,44,0,0
0,62,0,0
0,70,0,30
0,67,0,6
0,75,0,26
0,36,0,14
0,29,73,19
0,72,104,0
0,42,56,0
0,42,0,4
0,72,0,54
0,29,0,22
0,34,104,73
0,75,112,0
0,70,99,0
0,67,83,0
0,82,74,0
0,42,85,0
0,35,104,0
0,35,0,4
0,42,0,0
0,82,0,0
0,82,58,89
0,82,0,4
0,75,0,30
0,67,0,6
0,70,0,8
0,34,0,16
0,29,73,25
0,72,88,0
0,82,44,0
0,42,53,0
0,42,0,4
0,82,0,0
0,72,0,60
0,29,0,36
0,32,91,29
0,75,119,0
0,70,101,0
0,67,91,0
0,69,67,0
0,62,120,0
0,44,81,0
0,40,127,0
0,40,0,4
0,69,0,0
0,44,0,0
0,62,0,0
0,69,55,13
0,69,0,4
0,70,0,38
0,67,0,14
0,32,0,2
0,75,0,6
0,36,108,31
0,72,88,0
0,69,39,0
0,42,56,0
0,42,0,4
0,69,0,0
0,72,0,46
0,36,0,30
0,29,70,31
0,75,91,0
0,70,75,0
0,67,72,0
0,82,55,0
0,42,87,0
0,35,97,0
0,35,0,5
0,42,0,0
0,82,0,0
0,29,0,24
0,82,44,51
0,82,0,5
0,70,0,50
0,75,0,0
0,67,0,16
0,29,84,25
0,72,87,0
0,82,30,0
0,42,56,0
0,35,100,0
0,35,0,5
0,82,0,0
0,42,0,0
0,72,0,2
0,29,0,30
0,36,112,65
0,75,64,0
0,70,60,0
0,67,64,0
0,69,37,0
0,62,120,0
0,44,72,0
0,40,127,0
0,40,0,4
0,69,0,0
0,44,0,0
0,62,0,0
0,69,30,91
0,70,0,1
0,69,0,4
0,67,0,24
0,63,0,14
0,36,0,28
0,29,79,25
0,69,25,0
0,42,56,0
0,42,0,4
0,69,0,0
0,29,0,18
0,34,104,77
0,42,88,0
0,35,104,0
0,35,0,4
0,42,0,0
0,34,0,36
0,29,68,37
0,42,56,0
0,40,120,0
0,40,0,4
0,42,0,0
0,29,0,16
0,32,104,79
0,62,120,0
0,44,78,0
0,40,127,0
0,40,0,4
0,44,0,0
0,62,0,0
0,32,0,30
0,67,0,50
0,65,0,6
0,70,0,6
0,29,85,3
0,42,56,0
0,42,0,4
0,63,0,4
0,29,0,34
0,65,85,73
0,67,0,27
0,68,116,15
0,70,0,17
0,75,0,16
0,29,90,1
0,49,74,0
0,42,85,0
0,35,108,0
0,35,0,4
0,49,0,0
0,42,0,0
0,72,93,1
0,68,100,0
0,65,102,0
0,61,103,0
0,72,127,4
0,29,0,29
0,29,102,95
0,72,120,0
0,68,107,0
0,65,102,0
0,42,67,0
0,35,102,0
0,35,0,4
0,42,0,0
0,68,0,2
0,65,0,12
0,72,0,0
0,29,0,46
0,36,104,35
0,72,122,0
0,68,116,0
0,65,110,0
0,62,120,0
0,44,73,0
0,40,125,0
0,40,0,4
0,44,0,0
0,62,0,0
0,68,0,32
0,65,0,10
0,36,0,24
0,72,0,4
0,29,94,1
0,70,107,0
0,42,56,0
0,42,0,4
0,70,0,8
0,29,0,20
0,34,104,7
0,72,110,0
0,68,99,0
0,65,95,0
0,82,72,0
0,42,85,0
0,35,104,0
0,35,0,4
0,42,0,0
0,82,0,0
0,82,65,41
0,82,0,4
0,68,0,2
0,34,0,16
0,72,0,14
0,29,73,5
0,70,89,0
0,82,76,0
0,42,53,0
0,65,0,1
0,82,0,4
0,42,0,0
0,70,0,38
0,29,0,46
0,82,48,7
0,82,0,4
0,32,89,31
0,72,117,0
0,68,101,0
0,65,95,0
0,69,51,0
0,62,120,0
0,44,81,0
0,40,127,0
0,40,0,4
0,69,0,0
0,44,0,0
0,62,0,0
0,69,55,91
0,69,0,4
0,68,0,16
0,65,0,2
0,32,0,20
0,72,0,6
0,36,107,3
0,70,87,0
0,69,60,0
0,42,56,0
0,42,0,4
0,69,0,0
0,70,0,48
0,69,38,43
0,69,0,4
0,36,0,38
0,29,75,53
0,72,97,0
0,68,77,0
0,65,80,0
0,42,87,0
0,35,97,0
0,35,0,5
0,42,0,0
0,29,0,32
0,82,45,53
0,82,0,5
0,65,0,66
0,72,0,16
0,68,0,6
0,29,104,3
0,70,59,0
0,82,56,0
0,42,56,0
0,35,100,0
0,35,0,5
0,82,0,0
0,42,0,0
0,70,0,84
0,82,28,7
0,82,0,2
0,29,0,36
0,36,100,33
0,72,95,0
0,68,85,0
0,65,80,0
0,62,120,0
0,44,72,0
0,40,127,0
0,40,0,5
0,44,0,0
0,62,0,0
0,69,35,91
0,69,0,5
0,65,0,26
0,68,0,10
0,72,0,32
0,36,0,14
0,29,84,9
0,70,70,0
0,69,46,0
0,42,56,0
0,42,0,5
0,69,0,0
0,70,0,50
0,29,0,38
0,69,27,3
0,69,0,5
0,34,104,91
0,72,78,0
0,68,54,0
0,65,59,0
0,42,88,0
0,35,104,0
0,35,0,5
0,42,0,0
0,65,0,128
0,68,0,26
0,34,0,4
0,72,0,10
0,68,0,4
0,65,0,6
0,72,0,8
0,29,84,1
0,70,55,0
0,42,56,0
0,42,0,5
0,70,0,62
0,29,0,26
0,32,104,69
0,72,91,0
0,68,80,0
0,65,81,0
0,62,120,0
0,44,78,0
0,40,127,0
0,40,0,4
