track,note,velocity,time
1,82,96,768
1,74,96,0
1,70,96,0
1,79,96,0
1,82,96,0
1,74,96,0
1,72,96,0
1,81,96,0
1,69,96,0
1,77,96,0
1,81,96,0
1,72,96,0
1,77,96,0
1,69,96,0
1,79,96,0
1,70,96,0
1,74,96,0
1,79,96,0
1,77,96,0
1,69,96,0
1,72,96,0
1,70,96,0
1,74,96,0
1,69,96,0
1,67,96,0
1,77,96,0
1,65,96,0
1,63,96,0
1,79,96,0
1,70,96,0
1,74,96,0
1,70,96,0
1,74,96,192
1,69,96,0
1,72,96,0
1,77,96,0
1,62,96,0
1,69,96,0
1,65,96,0
1,75,96,0
1,67,96,0
1,70,96,0
1,60,96,0
1,70,96,39184
1,67,96,0
1,62,96,0
1,72,96,16
1,62,96,0
1,69,96,0
1,74,96,16
1,62,96,0
1,70,96,0
1,67,96,0
1,82,96,16
1,67,96,0
1,74,96,0
1,70,96,0
1,67,96,0
1,70,96,0
1,79,96,0
1,63,96,0
1,74,96,0
1,70,96,38176
1,67,96,0
1,62,96,0
1,72,96,16
1,62,96,0
1,69,96,0
1,74,96,16
1,62,96,0
1,70,96,0
1,67,96,0
1,82,96,16
1,67,96,0
1,74,96,0
1,70,96,0
1,67,96,0
1,70,96,0
1,79,96,0
1,63,96,0
1,74,96,0
2,55,64,768
2,62,64,0
2,67,64,0
2,60,64,80
2,50,64,0
2,65,64,0
2,62,64,96
2,58,64,0
2,67,64,0
2,55,64,0
2,62,64,0
2,50,64,0
2,60,64,0
2,65,64,0
2,67,64,0
2,58,64,0
2,62,64,0
2,51,64,16
2,50,64,0
2,60,64,16
2,50,64,16
2,62,64,0
2,65,64,0
2,60,64,160
2,63,64,0
2,48,64,0
2,58,64,0
3,67,64,768
3,62,64,0
3,58,64,0
3,55,64,0
3,57,64,16
3,60,64,0
3,50,64,0
3,65,64,0
3,58,64,928
3,55,64,0
3,62,64,0
3,67,64,0
3,65,64,0
3,50,64,0
3,57,64,0
3,60,64,0
3,51,64,944
3,55,64,0
3,58,64,0
3,62,64,0
3,50,64,0
3,53,64,0
3,57,64,0
3,60,64,0
3,58,64,0
3,48,64,0
3,51,64,0
3,55,64,0
3,67,68,129120
3,51,68,0
3,55,68,0
3,58,68,0
3,62,68,0
3,53,68,16
3,57,68,0
3,60,68,0
3,65,68,0
3,50,68,16
4,60,64,416
4,62,64,0
4,65,64,0
4,55,64,16
4,62,64,0
4,51,64,0
4,58,64,0
4,53,64,0
4,57,64,0
4,60,64,0
4,50,64,0
4,58,64,0
4,55,64,0
4,62,64,0
4,43,64,0
4,58,64,0
4,55,64,0
4,48,64,0
4,51,64,0
4,67,64,0
4,60,64,1152
4,69,64,160
4,60,64,0
4,53,64,0
4,57,64,0
4,57,64,0
4,51,64,0
4,60,64,0
4,70,64,144
4,58,64,0
4,50,64,0
4,53,64,0
4,67,64,1504
4,55,64,0
4,43,64,0
4,62,64,0
4,63,64,1504
4,51,64,0
4,48,64,0
4,53,64,0
4,58,64,0
4,60,64,1152
4,65,64,368
4,53,64,0
4,41,64,0
4,57,64,0
4,60,64,0
4,48,64,0
4,63,64,720
4,51,64,0
4,60,64,0
4,53,64,0
4,62,64,0
4,62,64,0
4,54,64,0
4,50,64,0
4,62,64,0
4,74,64,720
4,38,64,16
4,38,64,192
4,79,64,16
4,81,64,336
4,65,64,16
4,51,64,0
4,55,64,0
4,58,64,0
4,62,64,0
4,65,64,0
4,57,64,0
4,60,64,0
4,50,64,0
4,62,64,0
4,58,64,0
4,62,64,0
4,50,64,0
4,55,64,0
4,67,64,0
4,65,64,0
4,53,64,0
4,55,64,0
4,50,64,0
4,65,64,0
4,51,64,0
4,55,64,0
4,58,64,0
4,62,64,0
4,62,64,16
4,50,64,0
4,53,64,0
4,57,64,0
4,60,64,0
4,67,64,16
4,58,64,0
4,62,64,0
4,55,64,0
4,67,64,16
4,58,64,0
4,62,64,0
4,65,64,0
4,53,64,0
4,55,64,0
4,62,64,16
4,58,64,0
4,51,64,0
4,55,64,0
4,62,64,16
4,55,64,0
4,60,64,0
4,50,64,0
4,57,64,0
4,48,64,32
4,58,64,0
4,53,64,0
4,55,64,0
4,58,64,16
4,43,64,0
4,50,64,0
4,55,64,0
4,50,64,16
4,38,64,0
4,53,64,0
4,57,64,0
4,58,64,16
4,50,64,0
4,55,64,0
4,43,64,0
4,57,64,16
4,53,64,0
4,38,64,0
4,50,64,0
4,58,64,192
4,70,64,0
4,72,64,16
4,60,64,0
4,62,64,16
4,74,64,0
4,65,64,16
4,77,64,0
4,55,64,16
4,62,64,0
4,51,64,0
4,58,64,0
4,79,64,0
4,81,64,0
4,53,64,0
4,57,64,0
4,60,64,0
4,50,64,0
4,77,64,0
4,58,64,0
4,55,64,0
4,62,64,0
4,43,64,0
4,79,64,0
4,58,64,0
4,55,64,0
4,48,64,0
4,51,64,0
4,67,64,0
4,72,64,0
4,60,64,1152
4,69,64,160
4,60,64,0
4,53,64,0
4,57,64,0
4,77,64,0
4,57,64,0
4,51,64,0
4,60,64,0
4,79,64,0
4,81,64,0
4,70,64,48
4,58,64,0
4,50,64,0
4,53,64,0
4,82,64,0
4,67,64,1504
4,55,64,0
4,43,64,0
4,62,64,0
4,63,64,1504
4,51,64,0
4,48,64,0
4,53,64,0
4,58,64,0
4,79,64,0
4,60,64,1152
4,65,64,368
4,53,64,0
4,41,64,0
4,57,64,0
4,60,64,0
4,48,64,0
4,81,64,0
4,63,64,720
4,51,64,0
4,60,64,0
4,53,64,0
4,79,64,0
4,62,64,0
4,62,64,0
4,54,64,0
4,50,64,0
4,81,64,0
4,62,64,0
4,74,64,720
4,38,64,16
4,38,64,192
4,79,64,16
4,81,64,336
4,79,64,0
4,65,64,16
4,51,64,0
4,55,64,0
4,58,64,0
4,62,64,0
4,65,64,0
4,57,64,0
4,60,64,0
4,50,64,0
4,62,64,0
4,58,64,0
4,62,64,0
4,50,64,0
4,55,64,0
4,67,64,0
4,65,64,0
4,53,64,0
4,55,64,0
4,50,64,0
4,65,64,0
4,51,64,0
4,55,64,0
4,58,64,0
4,62,64,0
4,62,64,16
4,50,64,0
4,53,64,0
4,57,64,0
4,60,64,0
4,67,64,16
4,58,64,0
4,62,64,0
4,55,64,0
4,67,64,16
4,58,64,0
4,62,64,0
4,65,64,0
4,53,64,0
4,55,64,0
4,62,64,16
4,58,64,0
4,51,64,0
4,55,64,0
4,62,64,16
4,55,64,0
4,60,64,0
4,50,64,0
4,57,64,0
4,48,64,32
4,58,64,0
4,53,64,0
4,55,64,0
4,58,64,16
4,43,64,0
4,50,64,0
4,55,64,0
4,50,64,16
4,38,64,0
4,53,64,0
4,57,64,0
4,58,64,16
4,50,64,0
4,55,64,0
4,43,64,0
4,57,64,16
4,53,64,0
4,38,64,0
4,50,64,0
4,58,64,192
4,70,64,0
4,72,64,16
4,60,64,0
4,62,64,16
4,74,64,0
4,65,64,16
4,77,64,0
4,55,64,16
4,62,64,0
4,51,64,0
4,58,64,0
4,82,105,160
4,82,105,144
4,81,105,176
4,81,105,368
4,81,105,144
4,79,105,0
4,79,105,336
4,81,105,0
4,82,105,64
4,82,105,160
4,82,105,144
4,84,105,80
4,81,105,16
4,53,64,0
4,57,64,0
4,60,64,0
4,50,64,0
4,82,105,176
4,82,105,144
4,81,105,32
4,81,105,352
4,81,105,160
4,79,105,16
4,79,105,128
4,58,64,0
4,55,64,0
4,62,64,0
4,43,64,0
4,81,105,352
4,82,105,368
4,84,105,384
4,58,64,0
4,55,64,0
4,48,64,0
4,51,64,0
4,67,64,0
4,82,105,0
4,81,105,0
4,60,64,384
4,69,64,160
4,60,64,0
4,53,64,0
4,57,64,0
4,79,105,0
4,57,64,0
4,51,64,0
4,60,64,0
4,81,105,0
4,70,64,144
4,58,64,0
4,50,64,0
4,53,64,0
4,82,105,0
4,84,105,0
4,67,64,736
4,55,64,0
4,43,64,0
4,62,64,0
4,86,105,0
4,81,105,0
4,82,105,0
4,63,64,0
4,55,78,16
4,62,78,0
4,51,78,0
4,58,78,0
4,82,72,0
4,81,72,0
4,79,72,0
4,81,72,0
4,82,72,0
4,84,72,0
4,53,78,0
4,57,78,0
4,60,78,0
4,50,78,0
4,77,72,0
4,79,72,0
4,58,78,0
4,55,78,0
4,62,78,0
4,43,78,0
4,70,72,0
4,69,72,0
4,67,72,0
4,72,72,96
4,58,78,0
4,55,78,0
4,48,78,0
4,51,78,0
4,67,78,0
4,60,78,0
4,75,72,0
4,69,78,160
4,60,78,0
4,53,78,0
4,57,78,0
4,77,72,0
4,57,78,0
4,51,78,0
4,60,78,0
4,79,72,0
4,81,72,0
4,82,72,0
4,70,78,144
4,58,78,0
4,50,78,0
4,53,78,0
4,84,72,0
4,67,78,352
4,55,78,0
4,43,78,0
4,62,78,0
4,86,64,0
4,91,64,16
4,93,64,16
4,63,78,0
4,55,78,16
4,62,78,0
4,51,78,0
4,58,78,0
4,82,72,0
4,81,72,0
4,79,72,0
4,81,72,0
4,82,72,0
4,84,72,0
4,53,78,0
4,57,78,0
4,60,78,0
4,50,78,0
4,77,72,0
4,79,72,0
4,58,78,0
4,55,78,0
4,62,78,0
4,43,78,0
4,70,72,0
4,69,72,0
4,67,72,0
4,72,72,96
4,58,78,0
4,55,78,0
4,48,78,0
4,51,78,0
4,67,78,0
4,60,78,0
4,75,72,0
4,69,78,160
4,60,78,0
4,53,78,0
4,57,78,0
4,77,72,0
4,57,78,0
4,51,78,0
4,60,78,0
4,79,72,0
4,81,72,0
4,82,72,0
4,70,78,144
4,58,78,0
4,50,78,0
4,53,78,0
4,84,72,0
4,67,78,352
4,55,78,0
4,43,78,0
4,62,78,0
4,86,64,0
4,91,64,16
4,93,64,16
4,63,78,0
4,55,78,16
4,62,78,0
4,51,78,0
4,58,78,0
4,82,72,0
4,81,72,0
4,79,72,0
4,81,72,0
4,82,72,0
4,84,72,0
4,53,78,0
4,57,78,0
4,60,78,0
4,50,78,0
4,77,72,0
4,79,72,0
4,58,78,0
4,55,78,0
4,62,78,0
4,43,78,0
4,70,72,0
4,69,72,0
4,67,72,0
4,72,72,96
4,58,78,0
4,55,78,0
4,48,78,0
4,51,78,0
4,67,78,0
4,60,78,0
4,75,72,0
4,69,78,160
4,60,78,0
4,53,78,0
4,57,78,0
4,77,72,0
4,57,78,0
4,51,78,0
4,60,78,0
4,79,72,0
4,81,72,0
4,82,72,0
4,70,78,144
4,58,78,0
4,50,78,0
4,53,78,0
4,84,72,0
4,67,78,352
4,55,78,0
4,43,78,0
4,62,78,0
4,86,64,0
4,91,64,16
4,93,64,16
4,63,78,0
4,67,70,16
4,74,70,0
4,63,70,0
4,79,70,0
4,77,70,16
4,62,70,0
4,72,70,0
4,65,70,0
5,60,127,6592
5,48,64,39616
5,48,127,0
5,48,64,39184
5,48,127,0
5,48,100,11536
5,48,127,11792
5,48,127,11728
5,48,127,11728
6,39,96,7296
6,39,96,32
6,39,96,16
6,39,96,32
6,39,96,32
6,39,96,16
6,38,96,32
6,38,96,32
6,38,96,16
6,43,96,32
6,43,96,32
6,43,96,16
6,43,96,16
6,36,96,16
6,36,96,32
6,36,96,16
6,41,96,32
6,41,96,32
6,39,96,16
6,38,96,32
6,38,96,32
6,38,96,16
6,43,96,32
6,43,96,48
6,43,96,16
6,36,96,32
6,36,96,32
6,36,96,16
6,41,96,32
6,41,96,32
6,39,96,16
6,39,96,32
6,38,96,16
6,38,96,32
6,38,96,16
6,38,96,32
6,38,96,32
6,38,96,32
6,39,102,21520
6,39,102,32
6,39,102,16
6,39,102,32
6,39,102,32
6,39,102,16
6,38,102,32
6,38,102,32
6,38,102,16
6,43,102,32
6,43,102,32
6,43,102,16
6,43,102,16
6,36,102,16
6,36,102,32
6,36,102,16
6,41,102,32
6,41,102,32
6,39,102,16
6,38,102,32
6,38,102,32
6,38,102,16
6,43,102,32
6,43,102,48
6,43,102,16
6,36,102,32
6,36,102,32
6,36,102,16
6,41,102,32
6,41,102,32
6,39,102,16
6,39,102,32
6,38,102,16
6,38,102,32
6,38,102,16
6,38,102,32
6,38,102,32
6,38,102,32
6,39,102,21520
6,39,102,32
6,39,102,16
6,39,102,32
6,39,102,32
6,39,102,16
6,38,102,32
6,38,102,32
6,38,102,16
6,43,102,32
6,43,102,32
6,43,102,16
6,43,102,16
6,36,102,16
6,36,102,32
6,36,102,16
6,41,102,32
6,41,102,32
6,39,102,16
6,38,102,32
6,38,102,32
6,38,102,16
6,43,102,32
6,43,102,48
6,43,102,16
6,39,105,32
6,39,105,192
6,39,105,192
6,39,105,96
6,39,105,96
6,39,105,192
6,39,105,96
6,39,105,96
6,38,105,96
6,38,105,96
6,38,105,96
6,38,105,96
6,43,105,0
6,43,105,96
6,43,105,96
6,43,105,96
6,36,105,96
6,36,105,96
6,36,105,96
6,36,105,192
6,41,105,0
6,41,105,96
6,39,105,0
6,39,105,96
6,39,105,0
6,41,105,0
6,38,105,0
6,38,105,96
6,38,105,96
6,38,105,96
6,43,105,0
6,43,105,96
6,43,105,96
6,43,105,96
6,41,105,0
6,43,105,0
6,39,105,16
6,39,105,192
6,39,105,192
6,39,105,96
6,39,105,96
6,39,105,192
6,39,105,96
6,39,105,96
6,38,105,96
6,38,105,96
6,38,105,96
6,38,105,96
6,43,105,0
6,43,105,96
6,43,105,96
6,43,105,96
6,36,105,96
6,36,105,96
6,36,105,96
6,36,105,192
6,41,105,0
6,41,105,96
6,39,105,0
6,39,105,96
6,39,105,0
6,41,105,0
6,38,105,0
6,38,105,96
6,38,105,96
6,38,105,96
6,43,105,0
6,43,105,96
6,43,105,96
6,43,105,96
6,41,105,0
6,43,105,0
6,39,105,16
6,39,105,192
6,39,105,192
6,39,105,96
6,39,105,96
6,39,105,192
6,39,105,96
6,39,105,96
6,38,105,96
6,38,105,96
6,38,105,96
6,38,105,96
6,43,105,0
6,43,105,96
6,43,105,96
6,43,105,96
6,36,105,96
6,36,105,96
6,36,105,96
6,36,105,192
6,41,105,0
6,41,105,96
6,39,105,0
6,39,105,96
6,39,105,0
6,41,105,0
6,38,105,0
6,38,105,96
6,38,105,96
6,38,105,96
6,43,105,0
6,43,105,96
6,43,105,96
6,43,105,96
6,41,105,0
6,43,105,0
7,70,100,13056
7,79,100,0
7,72,100,0
7,81,100,0
7,82,100,0
7,74,100,0
7,82,100,5392
7,74,100,0
7,84,100,0
7,75,100,0
7,67,100,0
7,75,100,0
7,65,93,5952
7,51,93,0
7,55,93,0
7,58,93,0
7,62,93,0
7,55,93,0
7,58,93,96
7,62,93,192
7,65,93,192
7,55,93,96
7,58,93,96
7,53,93,0
7,57,93,0
7,50,93,0
7,60,93,0
7,65,93,0
7,60,93,96
7,65,93,0
7,50,93,288
7,53,93,0
7,57,93,0
7,62,93,0
7,58,93,0
7,55,93,0
7,67,93,0
7,58,93,0
7,62,93,192
7,67,93,192
7,55,93,96
7,58,93,0
7,62,93,96
7,67,93,96
7,62,93,0
7,53,93,96
7,55,93,0
7,58,93,0
7,67,93,0
7,58,93,0
7,62,93,96
7,67,93,192
7,53,93,0
7,55,93,192
7,58,93,96
7,58,93,0
7,55,93,0
7,62,93,0
7,51,93,0
7,65,93,0
7,55,93,96
7,62,93,96
7,58,93,0
7,65,93,0
7,51,93,192
7,57,93,0
7,65,93,0
7,50,93,0
7,53,93,0
7,60,93,0
7,60,93,96
7,60,93,96
7,62,93,0
7,55,93,0
7,67,93,0
7,58,93,0
7,58,93,96
7,67,93,0
7,58,93,96
7,62,93,0
7,67,93,0
7,58,93,96
7,53,93,0
7,58,93,96
7,62,93,0
7,67,93,0
7,58,93,0
7,67,93,0
7,62,93,192
7,67,93,192
7,58,93,0
7,67,93,0
7,62,93,192
7,67,93,0
7,58,93,0
7,62,93,0
7,51,93,0
7,55,93,0
7,53,93,0
7,50,93,0
7,57,93,0
7,60,93,0
7,50,93,0
7,60,93,0
7,57,93,0
7,55,93,0
7,60,93,96
7,57,93,0
7,62,93,384
7,51,93,0
