track,note,velocity,time
1,38,60,28032
1,38,0,94
1,38,60,2
1,38,0,46
1,38,60,2
1,38,0,46
1,38,60,2
1,38,0,94
1,38,60,2
1,38,0,46
1,38,60,2
1,38,0,46
1,38,60,2
1,38,0,94
1,38,60,2
1,38,0,46
1,38,60,2
1,38,0,46
1,38,60,2
1,38,0,94
1,38,60,2
1,38,0,46
1,38,60,2
1,38,0,46
1,38,60,2
1,38,0,94
1,38,60,2
1,38,0,46
1,38,60,2
1,38,0,46
1,38,60,2
1,38,0,94
1,38,60,2
1,38,0,46
1,38,60,2
1,38,0,46
1,38,60,2
1,38,0,94
1,38,60,2
1,38,0,46
1,38,60,2
1,38,0,46
1,38,60,2
1,38,0,94
1,38,60,2
1,38,0,46
1,38,60,2
1,38,0,46
1,38,60,2
1,38,0,94
1,38,60,2
1,38,0,46
1,38,60,2
1,38,0,46
1,38,60,2
1,38,0,94
1,38,60,2
1,38,0,46
1,38,60,2
1,38,0,46
1,38,60,2
1,38,0,94
1,38,60,2
1,38,0,46
1,38,60,2
1,38,0,46
1,38,60,2
1,38,0,94
1,38,60,2
1,38,0,46
1,38,60,2
1,38,0,46
1,38,45,770
1,38,0,46
1,38,45,2
1,38,0,46
1,38,45,2
1,38,0,46
1,38,45,2
1,38,0,46
1,38,45,2
1,38,0,46
1,38,45,2
1,38,0,46
1,38,45,2
1,38,0,46
1,38,45,2
1,38,0,46
1,38,45,2
1,38,0,46
1,38,45,2
1,38,0,46
1,38,45,2
1,38,0,46
1,38,45,2
1,38,0,46
1,38,45,2
1,38,0,46
1,38,45,2
1,38,0,46
1,38,45,2
1,38,0,46
1,38,45,2
1,38,0,46
1,38,45,2
1,38,0,46
1,38,45,2
1,38,0,46
1,38,45,2
1,38,0,46
1,38,45,2
1,38,0,46
1,38,45,2
1,38,0,46
1,38,45,2
1,38,0,46
1,38,45,2
1,38,0,46
1,38,45,2
1,38,0,46
1,38,45,2
1,38,0,46
1,38,45,2
1,38,0,46
1,38,45,2
1,38,0,46
1,38,45,2
1,38,0,46
1,38,45,2
1,38,0,46
1,38,45,2
1,38,0,46
1,38,45,2
1,38,0,46
1,38,45,2
1,38,0,46
1,38,45,2
1,38,0,46
1,38,45,2
1,38,0,46
1,38,45,2
1,38,0,46
1,38,45,2
1,38,0,46
1,38,45,2
1,38,0,46
1,38,45,2
1,38,0,46
1,38,45,2
1,38,0,46
1,38,45,2
1,38,0,46
1,38,45,2
1,38,0,46
1,38,45,2
1,38,0,46
1,38,45,2
1,38,0,46
1,38,45,2
1,38,0,46
1,38,45,2
1,38,0,46
1,38,45,2
1,38,0,46
1,38,45,2
1,38,0,46
1,38,45,2
1,38,0,46
1,38,45,2
1,38,0,46
1,38,45,2
1,38,0,46
1,38,45,2
1,38,0,46
1,38,45,2
1,38,0,46
1,38,45,2
1,38,0,46
1,38,45,2
1,38,0,46
1,38,45,2
1,38,0,46
1,38,45,2
1,38,0,46
1,38,45,2
1,38,0,46
1,38,45,2
1,38,0,46
1,38,45,2
1,38,0,46
1,38,45,2
1,38,0,46
1,38,45,2
1,38,0,46
1,38,45,2
1,38,0,46
1,38,45,2
1,38,0,46
1,38,45,2
1,38,0,46
1,38,45,2
1,38,0,46
1,38,45,2
1,38,0,46
1,38,45,2
1,38,0,46
1,38,45,2
1,38,0,46
1,38,45,2
1,38,0,46
1,38,45,2
1,38,0,46
1,38,45,2
1,38,0,46
1,38,45,2
1,38,0,46
1,38,45,2
1,38,0,46
1,38,45,2
1,38,0,46
1,38,45,2
1,38,0,46
1,38,45,2
1,38,0,46
1,38,45,2
1,38,0,46
1,38,45,2
1,38,0,46
1,38,45,2
1,38,0,46
1,38,45,2
1,38,0,46
1,38,45,2
1,38,0,46
1,38,45,2
1,38,0,46
1,38,45,2
1,38,0,46
1,38,45,2
1,38,0,46
1,38,45,2
1,38,0,46
1,38,45,2
1,38,0,46
1,38,45,2
1,38,0,46
1,38,45,2
1,38,0,46
1,38,45,2
1,38,0,46
1,38,45,2
1,38,0,46
1,38,45,2
1,38,0,46
1,38,45,2
1,38,0,46
1,38,45,2
1,38,0,46
1,38,45,2
1,38,0,46
1,38,45,2
1,38,0,46
1,38,45,2
1,38,0,46
1,38,45,2
1,38,0,46
1,38,45,2
1,38,0,46
1,38,45,2
1,38,0,46
1,38,45,2
1,38,0,46
1,38,45,2
1,38,0,46
1,38,45,2
1,38,0,46
1,38,45,2
1,38,0,46
1,38,45,2
1,38,0,46
1,38,45,2
1,38,0,46
1,38,45,2
1,38,0,46
1,38,45,2
1,38,0,46
1,38,45,2
1,38,0,46
1,38,45,2
1,38,0,46
1,38,45,2
1,38,0,46
1,38,45,2
1,38,0,46
1,38,45,2
1,38,0,46
1,38,60,770
1,38,0,94
1,38,60,2
1,38,0,46
1,38,60,2
1,38,0,46
1,38,60,2
1,38,0,94
1,38,60,2
1,38,0,46
1,38,60,2
1,38,0,46
1,38,60,2
1,38,0,94
1,38,60,2
1,38,0,46
1,38,60,2
1,38,0,46
1,38,60,2
1,38,0,94
1,38,60,2
1,38,0,46
1,38,60,2
1,38,0,46
1,38,60,2
1,38,0,94
1,38,60,2
1,38,0,46
1,38,60,2
1,38,0,46
1,38,60,2
1,38,0,94
1,38,60,2
1,38,0,46
1,38,60,2
1,38,0,46
1,38,60,2
1,38,0,94
1,38,60,2
1,38,0,46
1,38,60,2
1,38,0,46
1,38,60,2
1,38,0,94
1,38,60,2
1,38,0,46
1,38,60,2
1,38,0,46
1,38,60,2
1,38,0,94
1,38,60,2
1,38,0,46
1,38,60,2
1,38,0,46
1,38,60,2
1,38,0,94
1,38,60,2
1,38,0,46
1,38,60,2
1,38,0,46
1,38,60,2
1,38,0,94
1,38,60,2
1,38,0,46
1,38,60,2
1,38,0,46
1,38,60,2
1,38,0,94
1,38,60,2
1,38,0,46
1,38,60,2
1,38,0,46
1,38,60,2
1,38,0,94
1,38,60,2
1,38,0,46
1,38,60,2
1,38,0,46
1,38,60,2
1,38,0,94
1,38,60,2
1,38,0,46
1,38,60,2
1,38,0,46
1,38,60,2
1,38,0,94
1,38,60,2
1,38,0,46
1,38,60,2
1,38,0,46
1,38,60,2
1,38,0,94
1,38,60,2
1,38,0,46
1,38,60,2
1,38,0,46
1,38,60,2
1,38,0,94
1,38,60,2
1,38,0,46
1,38,60,2
1,38,0,46
1,38,60,2
1,38,0,94
1,38,60,2
1,38,0,46
1,38,60,2
1,38,0,46
1,38,60,2
1,38,0,94
1,38,60,2
1,38,0,46
1,38,60,2
1,38,0,46
1,38,60,2
1,38,0,94
1,38,60,2
1,38,0,46
1,38,60,2
1,38,0,46
1,38,60,2
1,38,0,94
1,38,60,2
1,38,0,46
1,38,60,2
1,38,0,46
1,38,60,2
1,38,0,94
1,38,60,2
1,38,0,46
1,38,60,2
1,38,0,46
1,38,60,2
1,38,0,94
1,38,60,2
1,38,0,46
1,38,60,2
1,38,0,46
1,38,60,2
1,38,0,94
1,38,60,2
1,38,0,46
1,38,60,2
1,38,0,46
1,38,60,2
1,38,0,94
1,38,60,2
1,38,0,46
1,38,60,2
1,38,0,46
1,38,60,2
1,38,0,94
1,38,60,2
1,38,0,46
1,38,60,2
1,38,0,46
1,38,60,2
1,38,0,94
1,38,60,2
1,38,0,46
1,38,60,2
1,38,0,46
1,38,60,2
1,38,0,94
1,38,60,2
1,38,0,46
1,38,60,2
1,38,0,46
2,35,92,3456
2,35,0,94
2,35,92,2
2,35,0,94
2,28,92,2
2,28,0,160
2,35,92,32
2,35,0,94
2,35,92,2
2,35,0,94
2,28,92,2
2,38,92,0
2,28,0,160
2,38,0,0
2,35,92,32
2,35,0,94
2,35,92,2
2,35,0,94
2,28,92,2
2,28,0,160
2,35,92,32
2,35,0,94
2,35,92,2
2,35,0,94
2,28,92,2
2,38,92,0
2,28,0,160
2,38,0,0
2,35,92,32
2,35,0,94
2,35,92,2
2,35,0,94
2,28,92,2
2,28,0,160
2,35,92,32
2,35,0,94
2,35,92,2
2,35,0,94
2,28,92,2
2,38,92,0
2,28,0,160
2,38,0,0
2,35,92,32
2,35,0,94
2,35,92,2
2,35,0,94
2,28,92,2
2,28,0,160
2,35,92,32
2,35,0,94
2,35,92,2
2,35,0,94
2,28,92,2
2,38,92,0
2,28,0,160
2,38,0,0
2,35,92,32
2,35,0,94
2,35,92,2
2,35,0,94
2,28,92,2
2,28,0,160
2,35,92,32
2,35,0,94
2,35,92,2
2,35,0,94
2,28,92,2
2,38,92,0
2,28,0,160
2,38,0,0
2,35,92,32
2,35,0,94
2,35,92,2
2,35,0,94
2,28,92,2
2,28,0,160
2,35,92,32
2,35,0,94
2,35,92,2
2,35,0,94
2,28,92,2
2,38,92,0
2,28,0,160
2,38,0,0
2,35,92,32
2,35,0,94
2,35,92,2
2,35,0,94
2,28,92,2
2,28,0,160
2,35,92,32
2,35,0,94
2,35,92,2
2,35,0,94
2,28,92,2
2,38,92,0
2,28,0,160
2,38,0,0
2,35,92,32
2,35,0,94
2,35,92,2
2,35,0,94
2,28,92,2
2,28,0,160
2,35,92,32
2,35,0,94
2,35,92,2
2,35,0,94
2,28,92,2
2,38,92,0
2,28,0,160
2,38,0,0
2,35,92,32
2,35,0,94
2,35,92,2
2,35,0,94
2,28,92,2
2,28,0,160
2,35,92,32
2,35,0,94
2,35,92,2
2,35,0,94
2,28,92,2
2,38,92,0
2,28,0,160
2,38,0,0
2,35,92,32
2,35,0,94
2,35,92,2
2,35,0,94
2,28,92,2
2,28,0,160
2,35,92,32
2,35,0,94
2,35,92,2
2,35,0,94
2,28,92,2
2,38,92,0
2,28,0,160
2,38,0,0
2,35,92,32
2,35,0,94
2,35,92,2
2,35,0,94
2,28,92,2
2,28,0,160
2,35,92,32
2,35,0,94
2,35,92,2
2,35,0,94
2,28,92,2
2,38,92,0
2,28,0,160
2,38,0,0
2,35,92,32
2,35,0,94
2,35,92,2
2,35,0,94
2,28,92,2
2,28,0,160
2,35,92,32
2,35,0,94
2,35,92,2
2,35,0,94
2,28,92,2
2,38,92,0
2,28,0,160
2,38,0,0
2,35,92,32
2,35,0,94
2,35,92,2
2,35,0,94
2,28,92,2
2,28,0,160
2,35,92,32
2,35,0,94
2,35,92,2
2,35,0,94
2,28,92,2
2,38,92,0
2,28,0,160
2,38,0,0
2,35,92,32
2,35,0,94
2,35,92,2
2,35,0,94
2,28,92,2
2,28,0,160
2,35,92,32
2,35,0,94
2,35,92,2
2,35,0,94
2,28,92,2
2,38,92,0
2,28,0,160
2,38,0,0
2,35,92,32
2,35,0,94
2,35,92,2
2,35,0,94
2,28,92,2
2,28,0,160
2,35,92,32
2,35,0,94
2,35,92,2
2,35,0,94
2,28,92,2
2,38,92,0
2,28,0,160
2,38,0,0
2,35,92,32
2,35,0,94
2,35,92,2
2,35,0,94
2,28,92,2
2,28,0,160
2,35,92,32
2,35,0,94
2,35,92,2
2,35,0,94
2,28,92,2
2,38,92,0
2,28,0,160
2,38,0,0
2,35,92,32
2,35,0,94
2,35,92,2
2,35,0,94
2,28,92,2
2,28,0,160
2,35,92,32
2,35,0,94
2,35,92,2
2,35,0,94
2,28,92,2
2,38,92,0
2,28,0,160
2,38,0,0
2,35,92,32
2,35,0,94
2,35,92,2
2,35,0,94
2,28,92,2
2,28,0,160
2,35,92,32
2,35,0,94
2,35,92,2
2,35,0,94
2,28,92,2
2,38,92,0
2,28,0,160
2,38,0,0
2,35,92,32
2,35,0,94
2,35,92,2
2,35,0,94
2,28,92,2
2,28,0,160
2,35,92,32
2,35,0,94
2,35,92,2
2,35,0,94
2,28,92,2
2,38,92,0
2,28,0,160
2,38,0,0
2,35,92,32
2,35,0,94
2,35,92,2
2,35,0,94
2,28,92,2
2,28,0,160
2,35,92,32
2,35,0,94
2,35,92,2
2,35,0,94
2,28,92,2
2,38,92,0
2,28,0,160
2,38,0,0
2,35,92,32
2,35,0,94
2,35,92,2
2,35,0,94
2,28,92,2
2,28,0,160
2,35,92,32
2,35,0,94
2,35,92,2
2,35,0,94
2,28,92,2
2,38,92,0
2,28,0,160
2,38,0,0
2,35,92,32
2,35,0,94
2,35,92,2
2,35,0,94
2,28,92,2
2,28,0,160
2,35,92,32
2,35,0,94
2,35,92,2
2,35,0,94
2,28,92,2
2,38,92,0
2,28,0,160
2,38,0,0
2,35,92,32
2,35,0,94
2,35,92,2
2,35,0,94
2,28,92,2
2,28,0,160
2,35,92,32
2,35,0,94
2,35,92,2
2,35,0,94
2,28,92,2
2,38,92,0
2,28,0,160
2,38,0,0
2,35,92,32
2,35,0,94
2,35,92,2
2,35,0,94
2,28,92,2
2,28,0,160
2,35,92,32
2,35,0,94
2,35,92,2
2,35,0,94
2,28,92,2
2,38,92,0
2,28,0,160
2,38,0,0
2,35,92,3104
2,35,0,94
2,35,92,2
2,35,0,94
2,28,92,2
2,28,0,160
2,35,92,32
2,35,0,94
2,35,92,2
2,35,0,94
2,28,92,2
2,38,92,0
2,28,0,160
2,38,0,0
2,35,92,32
2,35,0,94
2,35,92,2
2,35,0,94
2,28,92,2
2,28,0,160
2,35,92,32
2,35,0,94
2,35,92,2
2,35,0,94
2,28,92,2
2,38,92,0
2,28,0,160
2,38,0,0
2,35,92,32
2,35,0,94
2,35,92,2
2,35,0,94
2,28,92,2
2,28,0,160
2,35,92,32
2,35,0,94
2,35,92,2
2,35,0,94
2,28,92,2
2,38,92,0
2,28,0,160
2,38,0,0
2,35,92,32
2,35,0,94
2,35,92,2
2,35,0,94
2,28,92,2
2,28,0,160
2,35,92,32
2,35,0,94
2,35,92,2
2,35,0,94
2,28,92,2
2,38,92,0
2,28,0,160
2,38,0,0
2,35,92,32
2,35,0,94
2,35,92,2
2,35,0,94
2,28,92,2
2,28,0,160
2,35,92,32
2,35,0,94
2,35,92,2
2,35,0,94
2,28,92,2
2,38,92,0
2,28,0,160
2,38,0,0
2,35,92,32
2,35,0,94
2,35,92,2
2,35,0,94
2,28,92,2
2,28,0,160
2,35,92,32
2,35,0,94
2,35,92,2
2,35,0,94
2,28,92,2
2,38,92,0
2,28,0,160
2,38,0,0
2,35,92,32
2,35,0,94
2,35,92,2
2,35,0,94
2,28,92,2
2,28,0,160
2,35,92,32
2,35,0,94
2,35,92,2
2,35,0,94
2,28,92,2
2,38,92,0
2,28,0,160
2,38,0,0
2,35,92,32
2,35,0,94
2,35,92,2
2,35,0,94
2,28,92,2
2,28,0,160
2,35,92,32
2,35,0,94
2,35,92,2
2,35,0,94
2,28,92,2
2,38,92,0
2,28,0,160
2,38,0,0
2,35,92,32
2,35,0,94
2,35,92,2
2,35,0,94
2,28,92,2
2,28,0,160
2,35,92,32
2,35,0,94
2,35,92,2
2,35,0,94
2,28,92,2
2,38,92,0
2,28,0,160
2,38,0,0
2,35,92,32
2,35,0,94
2,35,92,2
2,35,0,94
2,28,92,2
2,28,0,160
2,35,92,32
2,35,0,94
2,35,92,2
2,35,0,94
2,28,92,2
2,38,92,0
2,28,0,160
2,38,0,0
2,35,92,32
2,35,0,94
2,35,92,2
2,35,0,94
2,28,92,2
2,28,0,160
2,35,92,32
2,35,0,94
2,35,92,2
2,35,0,94
2,28,92,2
2,38,92,0
2,28,0,160
2,38,0,0
2,35,92,32
2,35,0,94
2,35,92,2
2,35,0,94
2,28,92,2
2,28,0,160
2,35,92,32
2,35,0,94
2,35,92,2
2,35,0,94
2,28,92,2
2,38,92,0
2,28,0,160
2,38,0,0
2,35,92,32
2,35,0,94
2,35,92,2
2,35,0,94
2,28,92,2
2,28,0,160
2,35,92,32
2,35,0,94
2,35,92,2
2,35,0,94
2,28,92,2
2,38,92,0
2,28,0,160
2,38,0,0
2,35,92,32
2,35,0,94
2,35,92,2
2,35,0,94
2,28,92,2
2,28,0,160
2,35,92,32
2,35,0,94
2,35,92,2
2,35,0,94
2,28,92,2
2,38,92,0
2,28,0,160
2,38,0,0
2,35,92,32
2,35,0,94
2,35,92,2
2,35,0,94
