track,note,velocity,time
1,60,64,12840
1,62,64,0
1,62,64,0
1,62,64,0
1,60,64,0
1,60,64,0
1,60,64,0
1,65,64,0
1,67,64,0
1,64,64,0
1,60,64,0
1,63,64,0
1,63,64,0
1,65,64,0
1,60,64,0
1,62,64,0
1,69,64,360
1,69,64,0
1,67,64,0
1,65,64,0
1,64,64,0
1,65,64,0
1,69,64,240
1,67,64,0
1,65,64,0
1,64,64,0
1,65,64,0
1,65,64,0
1,67,64,0
1,70,64,0
1,69,64,0
1,64,64,0
1,62,64,120
1,62,64,0
1,60,64,0
1,62,64,0
1,60,64,0
1,60,64,0
1,64,64,0
1,62,64,0
1,60,64,0
1,62,64,0
1,59,64,0
1,62,64,0
1,65,64,0
1,67,64,0
1,70,64,0
1,69,64,0
1,64,64,0
1,60,64,0
1,62,64,0
1,62,64,0
1,60,64,0
1,62,64,0
1,60,64,0
1,64,64,0
1,62,64,0
1,60,64,0
1,62,64,0
1,59,64,0
1,62,64,0
1,59,64,0
1,62,64,0
1,62,64,0
1,60,64,0
1,62,64,0
1,62,64,0
1,62,64,0
1,60,64,0
1,60,64,0
1,60,64,360
1,60,64,0
1,65,64,0
1,67,64,0
1,64,64,0
1,60,64,0
1,63,64,0
1,63,64,0
1,65,64,0
1,60,64,0
1,62,64,0
1,69,64,360
1,69,64,0
1,67,64,0
1,65,64,0
1,64,64,0
1,65,64,0
1,69,64,240
1,67,64,0
1,65,64,0
1,64,64,0
1,65,64,0
1,65,64,0
1,65,64,0
1,67,64,0
1,70,64,0
1,69,64,0
1,64,64,0
1,62,64,120
1,62,64,0
1,60,64,0
1,62,64,0
1,60,64,0
1,60,64,0
1,64,64,0
1,62,64,0
1,60,64,0
1,62,64,0
1,59,64,0
1,62,64,0
1,65,64,0
1,67,64,0
1,70,64,0
1,69,64,0
1,64,64,0
1,60,64,0
1,62,64,0
1,62,64,0
1,60,64,0
1,62,64,0
1,60,64,0
1,64,64,0
1,62,64,0
1,60,64,0
1,62,64,0
1,59,64,0
1,62,64,0
1,59,64,0
1,62,64,0
1,62,64,0
1,60,64,0
1,59,64,10800
1,59,64,0
1,55,64,0
1,59,64,0
1,59,64,0
1,59,64,0
1,60,64,0
1,59,64,0
1,59,64,0
1,59,64,0
1,55,64,0
1,55,64,0
1,59,64,0
1,59,64,0
1,59,64,0
1,60,64,0
1,59,64,0
1,59,64,0
1,59,64,0
1,55,64,0
1,57,64,0
1,57,64,0
1,57,64,0
1,59,64,0
1,57,64,0
1,55,64,0
1,55,64,0
1,59,64,360
1,59,64,0
1,55,64,0
1,62,64,0
1,59,64,0
1,62,64,0
1,59,64,0
1,62,64,0
1,59,64,0
1,64,64,0
1,60,64,0
1,62,64,0
1,59,64,0
1,62,64,0
1,59,64,0
1,62,64,0
1,59,64,0
1,60,64,0
1,55,64,0
1,60,64,0
1,55,64,0
1,62,64,0
1,59,64,0
1,62,64,0
1,59,64,0
1,62,64,0
1,59,64,0
1,64,64,0
1,60,64,0
1,62,64,0
1,59,64,0
1,62,64,0
1,59,64,0
1,62,64,0
1,59,64,0
1,59,64,0
1,55,64,0
1,60,64,0
1,57,64,0
1,60,64,0
1,57,64,0
1,60,64,0
1,57,64,0
1,62,64,0
1,59,64,0
1,60,64,0
1,57,64,0
1,60,64,0
1,55,64,0
1,60,64,0
1,55,64,0
1,62,64,1800
1,62,64,0
1,62,64,0
1,60,64,0
1,60,64,0
1,60,64,360
1,60,64,0
1,65,64,0
1,67,64,0
1,64,64,0
1,60,64,0
1,63,64,0
1,63,64,0
1,65,64,0
1,62,64,0
1,69,64,360
1,69,64,0
1,69,64,0
1,67,64,0
1,65,64,0
1,64,64,0
1,65,64,0
1,69,64,120
1,67,64,0
1,65,64,0
1,64,64,0
1,65,64,0
1,65,64,0
1,65,64,0
1,53,64,0
1,67,64,0
1,55,64,0
1,70,64,0
1,58,64,0
1,69,64,0
1,60,64,0
1,64,64,0
1,55,64,0
1,62,64,120
1,62,64,0
1,60,64,0
1,62,64,0
1,60,64,0
1,60,64,0
1,64,64,0
1,62,64,0
1,60,64,0
1,62,64,0
1,59,64,0
1,62,64,0
1,65,64,0
1,53,64,0
1,67,64,0
1,55,64,0
1,70,64,0
1,58,64,0
1,69,64,0
1,60,64,0
1,64,64,0
1,60,64,0
1,60,64,0
1,62,64,0
1,62,64,0
1,60,64,0
1,62,64,0
1,60,64,0
1,64,64,0
1,62,64,0
1,60,64,0
1,62,64,0
1,59,64,0
1,62,64,0
1,65,64,0
1,53,64,0
1,67,64,0
1,55,64,0
1,70,64,0
1,58,64,0
1,69,64,0
1,60,64,0
1,64,64,0
1,55,64,0
1,62,64,120
1,62,64,0
1,60,64,0
1,62,64,0
1,60,64,0
1,60,64,0
1,64,64,0
1,62,64,0
1,60,64,0
1,62,64,0
1,59,64,0
1,62,64,0
1,65,64,0
1,53,64,0
1,67,64,0
1,55,64,0
1,70,64,0
1,58,64,0
1,69,64,0
1,60,64,0
1,64,64,0
1,60,64,0
1,60,64,0
1,62,64,0
1,62,64,0
1,60,64,0
1,62,64,0
1,60,64,0
1,64,64,0
1,62,64,0
1,60,64,0
1,62,64,0
1,59,64,0
1,62,64,0
1,59,64,0
1,62,64,0
1,62,64,0
1,65,64,0
1,64,64,0
2,65,64,0
2,53,64,0
2,67,64,0
2,55,64,0
2,70,64,0
2,58,64,0
2,69,64,0
2,57,64,0
2,64,64,0
2,52,64,0
2,52,64,0
2,52,64,0
2,55,64,0
2,52,64,0
2,74,64,0
2,65,64,0
2,76,64,0
2,67,64,0
2,72,64,0
2,64,64,0
2,71,64,120
2,62,64,0
2,69,64,0
2,67,64,0
2,65,64,0
2,53,64,0
2,67,64,0
2,55,64,0
2,70,64,0
2,58,64,0
2,69,64,0
2,57,64,0
2,64,64,0
2,52,64,0
2,74,64,0
2,65,64,0
2,76,64,0
2,67,64,0
2,72,64,0
2,64,64,0
2,71,64,120
2,62,64,0
2,67,64,0
2,55,64,0
2,72,64,0
2,69,64,0
2,65,64,0
2,69,64,0
2,67,64,0
2,55,64,0
2,60,64,0
2,64,64,0
2,60,64,0
2,53,72,0
2,58,72,0
2,62,72,0
2,53,72,24
2,58,72,0
2,62,72,0
2,57,72,48
2,60,72,0
2,53,72,0
2,60,64,0
2,57,64,0
2,53,64,0
2,64,64,0
2,60,64,0
2,55,64,0
2,63,64,0
2,58,64,0
2,55,64,0
2,62,64,0
2,58,64,0
2,53,64,0
2,58,64,120
2,53,64,0
2,60,64,360
2,65,64,0
2,67,64,0
2,64,64,0
2,57,64,120
2,62,64,0
2,57,64,0
2,62,64,0
2,58,64,0
2,62,64,0
2,69,64,0
2,65,64,0
2,67,64,0
2,65,64,0
2,64,64,0
2,60,64,0
2,55,64,0
2,65,64,0
2,60,64,0
2,57,64,0
2,65,64,0
2,63,64,0
2,58,64,0
2,67,64,0
2,70,64,0
2,65,64,0
2,60,64,0
2,69,64,0
2,55,64,0
2,64,64,0
2,60,64,0
2,74,64,0
2,65,64,0
2,58,64,0
2,53,64,0
2,76,64,0
2,67,64,0
2,72,64,0
2,64,64,0
2,57,64,0
2,53,64,0
2,71,64,120
2,62,64,0
2,67,64,0
2,59,64,0
2,55,64,0
2,65,64,0
2,63,64,0
2,58,64,0
2,67,64,0
2,70,64,0
2,65,64,0
2,60,64,0
2,69,64,0
2,64,64,0
2,60,64,0
2,55,64,0
2,74,64,0
2,65,64,0
2,58,64,0
2,53,64,0
2,76,64,0
2,67,64,0
2,72,64,0
2,64,64,0
2,57,64,0
2,53,64,0
2,71,64,120
2,62,64,0
2,67,64,0
2,59,64,0
2,55,64,0
2,60,64,0
2,53,64,0
2,57,64,0
2,53,64,0
2,57,64,0
2,55,64,0
2,52,64,0
2,62,72,0
2,58,72,0
2,53,72,0
2,62,72,24
2,58,72,0
2,53,72,0
2,53,72,48
2,60,72,0
2,57,72,0
2,60,64,0
2,57,64,0
2,53,64,0
2,64,64,0
2,60,64,0
2,55,64,0
2,63,64,0
2,58,64,0
2,55,64,0
2,62,64,0
2,58,64,0
2,53,64,0
2,58,64,120
2,53,64,0
2,60,64,360
2,65,64,120
2,67,64,0
2,64,64,0
2,57,64,120
2,62,64,0
2,57,64,0
2,62,64,0
2,58,64,0
2,62,64,0
2,69,64,0
2,65,64,0
2,67,64,0
2,65,64,0
2,64,64,0
2,60,64,0
2,55,64,0
2,65,64,0
2,60,64,0
2,57,64,0
2,65,64,0
2,63,64,0
2,58,64,0
2,67,64,0
2,70,64,0
2,65,64,0
2,60,64,0
2,69,64,0
2,64,64,0
2,60,64,0
2,55,64,0
2,74,64,0
2,65,64,0
2,58,64,0
2,53,64,0
2,76,64,0
2,67,64,0
2,72,64,0
2,64,64,0
2,57,64,0
2,53,64,0
2,71,64,120
2,62,64,0
2,67,64,0
2,59,64,0
2,55,64,0
2,65,64,0
2,63,64,0
2,58,64,0
2,67,64,0
2,70,64,0
2,65,64,0
2,60,64,0
2,69,64,0
2,64,64,0
2,60,64,0
2,55,64,0
2,74,64,0
2,65,64,0
2,58,64,0
2,53,64,0
2,76,64,0
2,67,64,0
2,72,64,0
2,64,64,0
2,57,64,0
2,53,64,0
2,71,64,120
2,62,64,0
2,67,64,0
2,59,64,0
2,55,64,0
2,60,64,0
2,62,64,0
2,55,64,0
2,55,64,0
2,48,64,0
2,62,64,0
2,55,64,0
2,59,64,0
2,52,64,0
2,60,64,0
2,53,64,0
2,55,64,0
2,48,64,0
2,60,64,0
2,57,64,0
2,62,64,0
2,55,64,0
2,55,64,0
2,48,64,0
2,62,64,0
2,55,64,0
2,59,64,0
2,52,64,0
2,60,64,0
2,53,64,0
2,55,64,0
2,48,64,0
2,60,64,0
2,62,64,0
2,55,64,0
2,55,64,0
2,48,64,0
2,62,64,0
2,55,64,0
2,59,64,0
2,52,64,0
2,60,64,0
2,53,64,0
2,55,64,0
2,48,64,0
2,60,64,0
2,57,64,0
2,62,64,0
2,55,64,0
2,55,64,0
2,48,64,0
2,62,64,0
2,55,64,0
2,59,64,0
2,52,64,0
2,60,64,0
2,53,64,0
2,55,64,0
2,48,64,0
2,69,64,0
2,65,64,0
2,60,64,0
2,67,64,0
2,64,64,0
2,60,64,0
2,53,72,0
2,58,72,0
2,62,72,0
2,53,72,24
2,58,72,0
2,62,72,0
2,57,72,48
2,60,72,0
2,53,72,0
2,60,64,0
2,57,64,0
2,53,64,0
2,64,64,0
2,60,64,0
2,55,64,0
2,63,64,0
2,58,64,0
2,55,64,0
2,62,64,0
2,58,64,0
2,53,64,0
2,58,64,120
2,53,64,0
2,60,64,360
2,65,64,0
2,67,64,0
2,64,64,0
2,57,64,120
2,62,64,0
2,57,64,0
2,62,64,0
2,58,64,0
2,62,64,0
2,69,64,0
2,65,64,0
2,67,64,0
2,65,64,0
2,64,64,0
2,60,64,0
2,55,64,0
2,65,64,0
2,60,64,0
2,57,64,0
2,65,64,0
2,63,64,0
2,58,64,0
2,67,64,0
2,70,64,0
2,65,64,0
2,60,64,0
2,69,64,0
2,64,64,0
2,60,64,0
2,55,64,0
2,74,64,0
2,65,64,0
2,58,64,0
2,53,64,0
2,76,64,0
2,67,64,0
2,72,64,0
2,64,64,0
2,57,64,0
2,53,64,0
2,71,64,120
2,62,64,0
2,67,64,0
2,59,64,0
2,55,64,0
2,65,64,0
2,63,64,0
2,58,64,0
2,67,64,0
2,70,64,0
2,65,64,0
2,60,64,0
2,69,64,0
2,64,64,0
2,60,64,0
2,55,64,0
2,74,64,0
2,65,64,0
2,58,64,0
2,53,64,0
2,76,64,0
2,67,64,0
2,72,64,0
2,64,64,0
2,57,64,0
2,53,64,0
2,71,64,120
2,62,64,0
2,67,64,0
2,59,64,0
2,55,64,0
2,65,64,0
2,63,64,0
2,58,64,0
2,67,64,0
2,70,64,0
2,65,64,0
2,60,64,0
2,69,64,0
2,64,64,0
2,60,64,0
2,55,64,0
2,74,64,0
2,65,64,0
2,58,64,0
2,53,64,0
2,76,64,0
2,67,64,0
2,72,64,0
2,64,64,0
2,57,64,0
2,53,64,0
2,71,64,120
2,62,64,0
2,67,64,0
2,59,64,0
2,55,64,0
2,65,64,0
2,63,64,0
2,58,64,0
2,67,64,0
2,70,64,0
2,65,64,0
2,60,64,0
2,69,64,0
2,64,64,0
2,60,64,0
2,55,64,0
2,74,64,0
2,65,64,0
2,58,64,0
2,53,64,0
2,76,64,0
2,67,64,0
2,72,64,0
2,64,64,0
2,57,64,0
2,53,64,0
2,71,64,120
2,62,64,0
2,67,64,0
2,59,64,0
2,55,64,0
2,65,64,0
2,63,64,0
2,58,64,0
2,67,64,0
2,70,64,0
2,65,64,0
2,60,64,0
2,69,64,0
2,64,64,0
2,60,64,0
2,55,64,0
2,74,64,0
2,65,64,0
2,58,64,0
2,53,64,0
2,76,64,0
2,67,64,0
2,72,64,0
2,64,64,0
2,57,64,0
2,53,64,0
2,71,64,120
2,62,64,0
2,67,64,0
2,59,64,0
2,55,64,0
2,65,64,0
2,63,64,0
2,58,64,0
2,67,64,0
2,70,64,0
2,65,64,0
2,60,64,0
2,69,64,0
2,64,64,0
2,60,64,0
2,55,64,0
2,74,64,0
2,65,64,0
2,58,64,0
2,53,64,0
2,76,64,0
2,67,64,0
2,72,64,0
2,64,64,0
2,57,64,0
2,53,64,0
2,71,64,120
2,62,64,0
2,67,64,0
2,59,64,0
2,55,64,0
2,65,64,0
2,63,64,0
2,58,64,0
2,67,63,0
2,70,61,0
2,65,61,0
2,60,61,0
2,69,59,0
2,64,57,0
2,60,57,0
2,55,57,0
2,74,49,0
2,65,49,0
2,58,49,0
2,53,49,0
2,76,47,0
2,67,47,0
2,72,45,0
2,64,45,0
2,57,45,0
2,53,45,0
2,71,42,120
2,62,42,0
2,67,41,0
2,59,41,0
2,55,41,0
2,65,33,0
2,63,33,0
2,58,33,0
2,67,31,0
2,70,29,0
2,65,29,0
2,60,29,0
2,69,27,0
2,64,25,0
2,60,25,0
2,55,25,0
2,74,17,0
2,65,17,0
2,58,17,0
2,53,17,0
2,76,15,0
2,67,15,0
2,72,14,0
2,64,14,0
2,57,13,0
2,53,13,0
2,71,11,120
2,62,11,0
2,67,9,0
2,59,9,0
2,55,9,0
3,51,64,0
3,46,64,0
3,39,64,0
3,53,64,0
3,48,64,0
3,41,64,0
3,48,64,0
3,43,64,0
3,36,64,0
3,46,64,0
3,53,64,120
3,58,64,0
3,45,64,0
3,53,64,120
3,57,64,0
3,43,64,0
3,50,64,240
3,57,64,0
3,50,64,0
3,55,64,0
3,51,64,0
3,46,64,0
3,39,64,0
3,41,64,0
3,53,64,0
3,48,64,0
3,48,64,0
3,43,64,0
3,36,64,0
3,46,64,0
3,53,64,120
3,58,64,0
3,45,64,0
3,53,64,120
3,57,64,0
3,43,64,0
3,53,64,240
3,57,64,0
3,59,64,0
3,48,64,0
3,41,64,0
3,53,64,240
3,57,64,0
3,43,64,0
3,36,64,0
3,48,64,240
3,53,64,0
3,46,64,0
3,50,64,0
3,38,64,0
3,48,64,0
3,41,64,0
3,48,64,0
3,43,64,0
3,36,64,0
3,46,64,0
3,39,64,0
3,34,64,0
3,46,64,360
3,41,64,0
3,48,64,120
3,53,64,0
3,36,64,0
3,38,64,0
3,48,64,0
3,36,64,0
3,48,64,0
3,36,64,0
3,48,64,120
3,48,64,0
3,48,64,0
3,48,64,0
3,48,64,0
3,46,64,0
3,39,64,0
3,48,64,0
3,41,64,0
3,43,64,0
3,36,64,0
3,36,64,0
3,36,64,0
3,43,64,0
3,46,64,0
3,53,64,120
3,58,64,0
3,45,64,0
3,53,64,120
3,57,64,0
3,43,64,0
3,43,64,0
3,43,64,0
3,39,64,0
3,41,64,0
3,43,64,0
3,36,64,0
3,36,64,0
3,36,64,0
3,43,64,0
3,46,64,0
3,53,64,120
3,58,64,0
3,48,64,0
3,45,64,0
3,53,64,120
3,57,64,0
3,43,64,0
3,43,64,0
3,43,64,0
3,48,64,0
