track,note,velocity,time
1,53,80,960
1,68,80,0
1,60,80,0
1,65,80,0
1,68,0,960
1,67,80,0
1,67,0,960
1,65,0,0
1,60,0,0
1,53,0,0
1,65,80,0
1,56,80,0
1,60,80,0
1,56,0,960
1,58,80,0
1,60,0,480
1,65,0,0
1,67,80,0
1,63,80,0
1,63,0,480
1,67,0,0
1,58,0,0
1,65,80,0
1,68,80,0
1,68,0,480
1,65,0,0
1,67,80,0
1,67,0,240
1,65,80,0
1,65,0,240
1,63,80,0
1,67,80,0
1,67,0,480
1,63,0,0
1,63,80,0
1,63,0,480
1,65,80,0
1,58,80,0
1,60,80,0
1,58,0,960
1,56,80,0
1,56,0,960
1,60,0,0
1,65,0,0
1,68,80,0
1,60,80,0
1,65,80,0
1,68,0,960
1,67,80,0
1,67,0,960
1,65,0,0
1,60,0,0
1,56,80,0
1,65,80,0
1,60,80,0
1,56,0,960
1,58,80,0
1,60,0,240
1,65,0,0
1,67,80,0
1,67,0,240
1,63,80,0
1,68,80,0
1,60,80,0
1,60,0,240
1,68,0,0
1,63,0,0
1,61,80,0
1,70,80,0
1,70,0,240
1,61,0,0
1,58,0,0
1,68,80,0
1,60,80,0
1,65,80,0
1,73,80,0
1,73,0,480
1,72,80,0
1,72,0,480
1,65,0,0
1,60,0,0
1,68,0,0
1,58,80,0
1,63,80,0
1,70,80,0
1,67,80,0
1,67,0,480
1,70,0,0
1,68,80,0
1,68,0,480
1,63,0,0
1,58,0,0
1,67,80,0
1,60,80,0
1,56,80,0
1,67,0,960
1,65,80,0
1,65,0,675
1,56,0,0
1,60,0,0
1,65,80,7965
1,65,0,480
1,67,80,0
1,67,0,480
1,68,80,0
1,68,0,480
1,70,80,0
1,70,0,480
1,65,80,0
1,65,0,480
1,67,80,0
1,67,0,480
1,68,80,0
1,68,0,720
1,70,80,0
1,70,0,240
1,73,80,0
1,73,0,480
1,72,80,0
1,72,0,480
1,70,80,0
1,70,0,480
1,68,80,0
1,68,0,480
1,67,80,0
1,67,0,450
1,68,80,30
1,68,0,480
1,65,80,0
1,65,0,960
1,65,80,0
1,65,0,720
1,67,80,0
1,67,0,60
1,65,80,0
1,65,0,60
1,63,80,0
1,63,0,120
1,65,80,0
1,65,0,960
1,68,80,0
1,68,0,960
1,60,80,0
1,60,0,960
1,65,80,0
1,65,0,720
1,67,80,0
1,67,0,60
1,65,80,0
1,65,0,60
1,63,80,0
1,63,0,120
1,65,80,0
1,65,0,960
1,61,80,0
1,61,0,960
1,63,80,0
1,63,0,960
1,77,80,0
1,77,0,840
1,80,80,0
1,80,0,120
1,79,80,0
1,79,0,360
1,77,80,0
1,77,0,120
1,77,80,0
1,77,0,240
1,79,80,0
1,79,0,240
1,80,80,0
1,80,0,480
1,82,80,0
1,82,0,480
1,85,80,0
1,85,0,480
1,84,80,0
1,84,0,240
1,82,80,0
1,82,0,240
1,80,80,0
1,80,0,840
1,79,80,0
1,79,0,120
1,80,80,0
1,80,0,960
1,73,80,0
1,73,0,960
1,75,80,0
1,75,0,960
1,70,64,7440
1,70,0,240
1,73,64,0
1,73,0,480
1,72,64,0
1,72,0,480
1,70,64,0
1,70,0,480
1,68,64,0
1,68,0,480
1,67,80,0
1,67,0,480
1,68,80,0
1,68,0,480
1,65,64,0
1,65,0,960
1,65,80,0
1,65,0,480
1,67,80,0
1,67,0,480
1,68,80,0
1,68,0,480
1,70,80,0
1,70,0,480
1,65,80,0
1,65,0,480
1,67,80,0
1,67,0,480
1,68,80,0
1,68,0,720
1,70,80,0
1,70,0,240
1,73,80,0
1,73,0,480
1,72,80,0
1,72,0,480
1,70,80,0
1,70,0,480
1,68,80,0
1,68,0,480
1,67,80,0
1,67,0,960
1,65,80,0
1,65,0,960
1,77,80,0
1,77,0,816
1,75,80,24
1,75,0,120
1,77,80,0
1,77,0,960
1,80,80,0
1,80,0,960
1,84,80,0
1,84,0,960
1,77,80,0
1,77,0,816
1,75,80,24
1,75,0,120
1,77,80,0
1,77,0,960
1,73,80,0
1,73,0,960
1,75,80,0
1,75,0,960
1,77,80,0
1,77,0,840
1,80,80,0
1,80,0,120
1,79,80,0
1,79,0,360
1,77,80,0
1,77,0,120
1,77,80,0
1,77,0,240
1,79,80,0
1,79,0,240
1,80,80,0
1,80,0,480
1,82,80,0
1,82,0,480
1,85,80,0
1,85,0,480
1,84,80,0
1,84,0,240
1,82,80,0
1,82,0,240
1,80,80,0
1,80,0,840
1,79,80,0
1,79,0,120
1,80,80,0
1,80,0,960
1,82,80,0
1,82,0,480
1,84,73,0
1,84,0,480
1,85,67,0
1,85,0,480
1,87,60,0
1,87,0,480
1,91,53,0
1,91,0,960
1,89,53,0
1,89,0,2112
1,79,80,1008
1,67,80,0
1,67,0,240
1,79,0,0
1,68,80,0
1,80,80,0
1,80,0,240
1,68,0,0
1,84,80,0
1,72,80,0
1,72,0,480
1,84,0,0
1,88,80,0
1,76,80,0
1,76,0,240
1,88,0,0
1,77,80,0
1,89,80,0
1,89,0,240
1,77,0,0
1,84,80,0
1,72,80,0
1,72,0,480
1,84,0,0
1,70,80,0
1,82,80,0
1,72,80,225
1,84,80,0
1,82,0,15
1,70,0,0
1,73,80,0
1,85,80,0
1,72,0,45
1,84,0,0
1,73,0,195
1,85,0,0
1,84,80,0
1,72,80,0
1,72,0,480
1,84,0,0
1,80,80,0
1,68,80,0
1,68,0,240
1,80,0,0
1,67,80,0
1,79,80,0
1,79,0,240
1,67,0,0
1,65,80,0
1,77,80,0
1,77,0,480
1,65,0,0
1,61,80,0
1,73,80,0
1,73,0,240
1,61,0,0
1,63,80,0
1,75,80,0
1,75,0,240
1,63,0,0
1,65,80,0
1,77,80,0
1,77,0,240
1,65,0,0
1,70,80,0
1,82,80,0
1,82,0,240
1,70,0,0
1,84,80,0
1,72,80,0
1,72,0,240
1,84,0,0
1,85,80,0
1,73,80,0
1,73,0,240
1,85,0,0
1,77,80,0
1,89,80,0
1,89,0,1200
1,77,0,0
1,72,80,0
1,79,80,0
1,84,80,0
1,84,0,960
1,79,0,0
1,72,0,0
1,79,80,240
1,67,80,0
1,67,0,240
1,79,0,0
1,80,80,0
1,68,80,0
1,68,0,240
1,80,0,0
1,72,80,0
1,84,80,0
1,84,0,480
1,72,0,0
1,88,80,0
1,76,80,0
1,76,0,240
1,88,0,0
1,89,80,0
1,77,80,0
1,77,0,240
1,89,0,0
1,72,80,0
1,84,80,0
1,84,0,480
1,72,0,0
1,82,80,0
1,70,80,0
1,84,80,225
1,72,80,0
1,70,0,15
1,82,0,0
1,73,80,0
1,85,80,0
1,84,0,45
1,72,0,0
1,73,0,195
1,85,0,0
1,84,80,0
1,72,80,0
1,72,0,480
1,84,0,0
1,80,80,0
1,68,80,0
1,68,0,240
1,80,0,0
1,67,80,0
1,79,80,0
1,79,0,240
1,67,0,0
1,65,80,0
1,77,80,0
1,77,0,480
1,65,0,0
1,73,80,0
1,61,80,0
1,61,0,240
1,73,0,0
1,75,80,0
1,63,80,0
1,63,0,240
1,75,0,0
1,65,80,0
1,77,80,0
1,77,0,240
1,65,0,0
1,82,80,0
1,70,80,0
1,70,0,240
1,82,0,0
1,72,80,0
1,84,80,0
1,84,0,240
1,72,0,0
1,85,80,0
1,73,80,0
1,73,0,240
1,85,0,0
1,77,80,0
1,89,80,0
1,89,0,1200
1,77,0,0
1,79,80,0
1,84,80,0
1,91,80,0
1,91,0,960
1,84,0,0
1,79,0,0
1,65,80,0
1,65,0,480
1,67,80,0
1,67,0,480
1,68,80,0
1,68,0,480
1,70,80,0
1,70,0,480
1,65,80,0
1,65,0,480
1,67,80,0
1,67,0,480
1,68,80,0
1,68,0,480
1,70,80,0
1,70,0,240
1,63,80,0
1,63,0,240
1,73,80,0
1,73,0,480
1,72,80,0
1,72,0,480
1,70,80,0
1,70,0,480
1,68,80,0
1,68,0,480
1,67,80,0
1,67,0,480
1,68,80,0
1,68,0,480
1,65,80,0
1,65,0,960
1,77,80,0
1,77,0,816
1,75,80,24
1,75,0,120
1,77,80,0
1,77,0,960
1,80,80,0
1,80,0,960
1,84,80,0
1,84,0,960
1,77,80,0
1,77,0,816
1,75,80,24
1,75,0,120
1,77,80,0
1,77,0,960
1,73,80,0
1,73,0,960
1,75,80,0
1,75,0,960
1,77,80,0
1,77,0,840
1,80,80,0
1,80,0,120
1,79,80,0
1,79,0,360
1,77,80,0
1,77,0,120
1,77,80,0
1,77,0,240
1,79,80,0
1,79,0,240
1,80,80,0
1,80,0,480
1,82,80,0
1,82,0,480
1,85,80,0
1,85,0,480
1,84,80,0
1,84,0,240
1,82,80,0
1,82,0,240
1,80,80,0
1,80,0,840
1,79,80,0
1,79,0,120
1,80,80,0
1,80,0,960
1,82,80,0
1,82,0,480
1,84,73,0
1,84,0,480
1,85,67,0
1,85,0,480
1,87,60,0
1,87,0,480
1,77,80,0
1,77,0,816
1,75,80,24
1,75,0,120
1,77,80,0
1,77,0,960
1,80,80,0
1,80,0,960
1,84,80,0
1,84,0,960
1,77,80,0
1,77,0,816
1,75,80,24
1,75,0,120
1,77,80,0
1,77,0,960
1,73,80,0
1,73,0,960
1,75,80,0
1,75,0,960
1,77,80,0
1,77,0,840
1,80,80,0
1,80,0,120
1,79,80,0
1,79,0,360
1,77,80,0
1,77,0,120
1,77,80,0
1,77,0,240
1,79,80,0
1,79,0,240
1,80,80,0
1,80,0,480
1,82,80,0
1,82,0,480
1,85,80,0
1,85,0,480
1,84,80,0
1,84,0,240
1,82,80,0
1,82,0,240
1,80,80,0
1,80,0,840
1,79,80,0
1,79,0,120
1,80,80,0
1,80,0,960
1,82,80,0
1,82,0,480
1,84,73,0
1,84,0,480
1,85,67,0
1,85,0,480
1,87,60,0
1,87,0,480
1,89,42,0
1,67,52,0
1,67,0,240
1,68,52,0
1,68,0,240
1,67,52,0
1,67,0,240
1,68,52,0
1,68,0,240
1,67,52,0
1,67,0,240
1,89,0,0
1,68,52,0
1,68,0,240
1,67,52,0
1,67,0,240
1,68,52,0
1,68,0,240
1,68,52,0
1,68,0,240
1,70,52,0
1,70,0,240
1,68,52,0
1,68,0,240
1,70,52,0
1,70,0,240
1,70,52,0
1,70,0,240
1,72,52,0
1,72,0,240
1,70,52,0
1,70,0,240
1,72,52,0
1,72,0,240
1,67,52,0
1,67,0,240
1,68,52,0
1,68,0,240
1,67,52,0
1,67,0,240
1,68,52,0
1,68,0,240
1,67,52,0
1,67,0,240
1,68,52,0
1,68,0,240
1,67,52,0
1,67,0,240
1,68,52,0
1,68,0,240
1,68,52,0
1,68,0,240
1,70,52,0
1,70,0,240
1,68,52,0
1,68,0,240
1,70,52,0
1,70,0,240
1,70,52,0
1,70,0,240
1,72,52,0
1,72,0,240
1,70,52,0
1,70,0,240
1,72,52,0
1,72,0,240
1,67,52,0
1,67,0,240
1,68,52,0
1,68,0,240
1,67,52,0
1,67,0,240
1,68,52,0
1,68,0,240
1,67,52,0
1,67,0,240
1,68,52,0
1,68,0,240
1,67,52,0
1,67,0,240
1,68,52,0
1,68,0,240
1,68,52,0
1,68,0,240
1,70,52,0
1,70,0,240
1,68,52,0
1,68,0,240
1,70,52,0
1,70,0,240
1,70,52,0
1,70,0,240
1,72,52,0
1,72,0,240
1,70,52,0
1,70,0,240
1,72,52,0
1,72,0,240
1,79,42,0
1,72,42,0
1,68,42,0
1,79,0,1920
1,77,11,0
1,77,0,1920
1,68,0,0
1,72,0,0
2,41,80,960
2,53,80,0
2,53,0,3360
2,41,0,0
2,51,80,0
2,39,80,0
2,39,0,480
2,51,0,0
2,65,80,0
2,49,80,0
2,37,80,0
2,60,80,0
2,60,0,960
2,65,0,0
2,49,0,0
2,37,0,0
2,58,80,0
2,51,80,0
2,39,80,0
2,39,0,960
2,51,0,0
2,58,0,0
2,53,80,0
2,41,80,0
2,41,0,1920
2,53,0,0
2,41,80,0
2,53,80,0
2,53,0,3360
2,41,0,0
2,39,80,0
2,51,80,0
2,51,0,480
2,39,0,0
2,37,80,0
2,49,80,0
2,49,0,960
2,37,0,0
2,51,80,0
2,39,80,0
2,39,0,960
2,51,0,0
2,41,80,0
2,53,80,0
2,53,0,1635
2,41,0,0
2,41,80,15645
2,41,0,960
2,46,80,0
2,46,0,960
2,37,80,0
2,37,0,960
2,44,80,0
2,44,0,960
2,41,80,0
2,41,0,960
2,46,80,0
2,46,0,960
2,42,80,0
2,42,0,960
2,44,80,0
2,44,0,960
2,41,80,0
2,41,0,960
2,46,80,0
2,46,0,960
2,37,80,0
2,37,0,960
2,44,80,0
2,44,0,960
2,41,80,0
2,41,0,960
2,46,80,0
2,46,0,960
2,42,80,0
2,42,0,960
2,44,80,0
2,44,0,960
2,41,80,19200
2,41,0,960
2,46,80,0
2,46,0,960
2,37,80,0
2,37,0,960
2,44,80,0
2,44,0,960
2,41,80,0
2,41,0,960
2,46,80,0
2,46,0,960
2,42,80,0
2,42,0,960
2,44,80,0
2,44,0,960
2,41,80,0
2,41,0,960
2,46,80,0
2,46,0,960
2,37,80,0
2,37,0,960
2,44,80,0
2,44,0,960
2,41,80,0
2,41,0,960
2,46,80,0
2,46,0,960
2,42,80,0
2,42,0,960
2,44,80,0
2,44,0,960
2,53,99,3840
2,41,99,0
2,41,0,1680
2,53,0,0
2,56,99,0
2,44,99,0
2,44,0,240
2,56,0,0
2,55,99,0
2,43,99,0
2,43,0,720
2,55,0,0
2,53,99,0
2,41,99,0
2,41,0,240
2,53,0,0
2,49,99,0
2,37,99,0
2,37,0,960
2,49,0,0
2,53,99,0
2,41,99,0
2,41,0,480
2,53,0,0
2,49,99,0
2,37,99,0
2,37,0,480
2,49,0,0
2,58,99,0
2,46,99,0
2,46,0,240
2,58,0,0
2,44,99,0
2,56,99,0
2,56,0,240
2,44,0,0
2,55,99,0
2,43,99,0
2,43,0,240
2,55,0,0
2,53,99,0
2,41,99,0
2,41,0,240
2,53,0,0
2,49,99,0
2,37,99,0
2,37,0,240
2,49,0,0
2,51,99,0
2,39,99,0
2,39,0,240
2,51,0,0
2,41,99,0
2,53,99,0
2,53,0,480
2,41,0,0
2,48,99,0
2,36,99,0
2,36,0,480
2,48,0,0
2,48,99,0
2,60,99,0
2,60,0,480
2,48,0,0
2,41,99,0
2,53,99,0
2,53,0,1680
2,41,0,0
2,56,99,0
2,44,99,0
2,44,0,240
2,56,0,0
2,55,99,0
2,43,99,0
2,43,0,720
2,55,0,0
2,41,99,0
2,53,99,0
2,53,0,240
2,41,0,0
2,49,99,0
2,37,99,0
2,37,0,960
2,49,0,0
2,41,99,0
2,53,99,0
2,53,0,480
2,41,0,0
2,49,99,0
2,37,99,0
2,37,0,480
2,49,0,0
2,58,99,0
2,46,99,0
2,46,0,240
2,58,0,0
2,56,99,0
2,44,99,0
2,44,0,240
2,56,0,0
2,55,99,0
2,43,99,0
2,43,0,240
2,55,0,0
2,53,99,0
2,41,99,0
2,41,0,240
2,53,0,0
2,37,99,0
2,49,99,0
2,49,0,240
2,37,0,0
2,51,99,0
2,39,99,0
2,39,0,240
2,51,0,0
2,53,99,0
2,41,99,0
2,41,0,480
2,53,0,0
2,48,99,0
2,36,99,0
2,36,0,480
2,48,0,0
2,48,99,0
2,36,99,0
2,60,99,0
2,60,0,480
2,36,0,0
2,48,0,0
2,41,80,7680
2,41,0,960
2,46,80,0
2,46,0,960
2,37,80,0
2,37,0,960
2,44,80,0
2,44,0,960
2,41,80,0
2,41,0,960
2,46,80,0
2,46,0,960
2,42,80,0
2,42,0,960
2,44,80,0
2,44,0,960
2,41,80,0
2,41,0,960
2,46,80,0
2,46,0,960
2,37,80,0
2,37,0,960
2,44,80,0
2,44,0,960
2,41,80,0
2,41,0,960
2,46,80,0
2,46,0,960
2,42,80,0
2,42,0,960
2,44,80,0
2,44,0,960
2,41,80,0
2,41,0,960
2,46,80,0
2,46,0,960
2,37,80,0
2,37,0,960
2,44,80,0
2,44,0,960
2,41,80,0
2,41,0,960
2,46,80,0
2,46,0,960
