track,note,velocity,time
1,54,100,3000
1,54,0,60
1,63,100,0
1,63,0,60
1,61,100,0
1,61,0,60
1,59,100,0
1,59,0,60
1,59,100,0
1,59,0,180
1,54,100,300
1,54,0,60
1,63,100,0
1,63,0,60
1,61,100,0
1,61,0,60
1,59,100,0
1,59,0,60
1,59,100,0
1,59,0,60
1,54,100,0
1,54,0,120
1,54,100,420
1,54,0,60
1,54,100,0
1,54,0,60
1,63,100,0
1,63,0,60
1,61,100,0
1,61,0,60
1,59,100,0
1,59,0,60
1,59,100,0
1,59,0,60
1,54,100,0
1,54,0,120
1,57,100,0
1,57,0,180
1,54,100,600
1,54,0,60
1,54,100,0
1,54,0,60
1,63,100,0
1,63,0,60
1,61,100,0
1,61,0,60
1,59,100,0
1,59,0,60
1,59,100,0
1,59,0,60
1,54,100,0
1,54,0,120
1,63,100,360
1,63,0,30
1,63,100,0
1,63,0,30
1,61,100,0
1,61,0,60
1,59,100,0
1,59,0,60
1,61,100,0
1,61,0,180
1,54,100,420
1,54,0,60
1,54,100,0
1,54,0,60
1,63,100,0
1,63,0,60
1,61,100,0
1,61,0,60
1,59,100,0
1,59,0,60
1,59,100,0
1,59,0,60
1,54,100,0
1,54,0,120
1,57,100,0
1,57,0,180
1,63,100,900
1,63,0,60
1,63,100,0
1,63,0,240
1,61,100,0
1,61,0,60
1,59,100,0
1,59,0,60
1,61,100,0
1,61,0,180
1,63,100,60
1,63,0,60
1,61,100,0
1,61,0,60
1,63,100,0
1,63,0,60
1,61,100,0
1,61,0,120
1,54,100,180
1,54,0,60
1,54,100,0
1,54,0,60
1,63,100,0
1,63,0,60
1,61,100,0
1,61,0,60
1,59,100,0
1,59,0,360
1,54,100,0
1,54,0,60
1,54,100,0
1,54,0,180
1,54,100,2220
1,54,0,60
1,63,100,0
1,63,0,60
1,61,100,0
1,61,0,60
1,59,100,0
1,59,0,60
1,59,100,0
1,59,0,60
1,54,100,0
1,54,0,120
1,54,100,300
1,54,0,60
1,63,100,0
1,63,0,60
1,61,100,0
1,61,0,60
1,59,100,0
1,59,0,60
1,59,100,0
1,59,0,180
1,63,100,360
1,63,0,60
1,61,100,0
1,61,0,60
1,59,100,0
1,59,0,60
1,59,100,0
1,59,0,180
1,63,100,360
1,63,0,60
1,61,100,0
1,61,0,60
1,59,100,0
1,59,0,60
1,61,100,0
1,61,0,180
1,54,100,300
1,54,0,60
1,63,100,0
1,63,0,60
1,61,100,0
1,61,0,60
1,59,100,0
1,59,0,60
1,59,100,0
1,59,0,180
1,54,100,300
1,54,0,60
1,63,100,0
1,63,0,120
1,61,100,0
1,61,0,60
1,59,100,0
1,59,0,120
1,59,100,0
1,59,0,60
1,59,100,0
1,59,0,180
1,63,100,180
1,63,0,120
1,61,100,0
1,61,0,60
1,63,100,0
1,63,0,180
1,64,100,360
1,64,0,120
1,63,100,0
1,63,0,60
1,64,100,0
1,64,0,720
1,63,100,0
1,63,0,360
1,54,100,2100
1,54,0,60
1,63,100,0
1,63,0,240
1,61,100,0
1,61,0,60
1,59,100,0
1,59,0,60
1,59,100,0
1,59,0,60
1,54,100,0
1,54,0,120
1,54,100,120
1,54,0,60
1,63,100,0
1,63,0,240
1,64,100,0
1,64,0,60
1,63,100,0
1,63,0,60
1,64,100,0
1,64,0,180
1,54,100,120
1,54,0,60
1,63,100,0
1,63,0,240
1,64,100,0
1,64,0,60
1,63,100,0
1,63,0,60
1,64,100,0
1,64,0,180
1,64,100,60
1,64,0,60
1,64,100,0
1,64,0,60
1,64,100,0
1,64,0,60
1,63,100,0
1,63,0,240
1,59,100,0
1,59,0,60
1,57,100,0
1,57,0,180
1,54,100,420
1,54,0,60
1,63,100,0
1,63,0,60
1,61,100,0
1,61,0,60
1,59,100,0
1,59,0,60
1,59,100,0
1,59,0,60
1,54,100,0
1,54,0,120
1,54,100,240
1,54,0,60
1,54,100,0
1,54,0,60
1,63,100,0
1,63,0,60
1,61,100,0
1,61,0,60
1,59,100,0
1,59,0,60
1,61,100,0
1,61,0,60
1,63,100,0
1,63,0,120
1,54,100,360
1,54,0,120
1,54,100,0
1,54,0,60
1,63,100,0
1,63,0,120
1,61,100,0
1,61,0,60
1,59,100,0
1,59,0,120
1,54,100,0
1,54,0,60
1,54,100,60
1,54,0,60
1,54,100,0
1,54,0,60
1,63,100,0
1,63,0,60
1,61,100,0
1,61,0,60
1,59,100,0
1,59,0,60
1,59,100,0
1,59,0,60
1,61,100,0
1,61,0,60
1,59,100,0
1,59,0,120
1,63,100,300
1,63,0,120
1,63,100,0
1,63,0,60
1,64,100,0
1,64,0,120
1,63,100,0
1,63,0,60
1,64,100,0
1,64,0,180
1,66,100,120
1,66,0,60
1,66,100,0
1,66,0,60
1,64,100,0
1,64,0,60
1,63,100,0
1,63,0,60
1,64,100,0
1,64,0,60
1,63,100,0
1,63,0,60
1,64,100,0
1,64,0,60
1,63,100,0
1,63,0,180
1,54,100,300
1,54,0,60
1,59,100,0
1,59,0,120
1,57,100,0
1,57,0,60
1,59,100,0
1,59,0,180
1,54,100,300
1,54,0,60
1,59,100,0
1,59,0,60
1,57,100,0
1,57,0,60
1,57,100,0
1,57,0,240
1,61,100,300
1,61,0,419
1,59,100,1
1,59,0,720
1,54,100,120
1,54,0,60
1,63,100,0
1,63,0,60
1,61,100,0
1,61,0,60
1,59,100,0
1,59,0,60
1,59,100,0
1,59,0,180
1,63,100,300
1,63,0,60
1,61,100,0
1,61,0,60
1,61,100,0
1,61,0,60
1,59,100,0
1,59,0,60
1,61,100,0
1,61,0,180
1,54,100,300
1,54,0,60
1,63,100,0
1,63,0,60
1,64,100,0
1,64,0,60
1,63,100,0
1,63,0,60
1,64,100,0
1,64,0,240
1,64,100,60
1,64,0,60
1,64,100,0
1,64,0,60
1,63,100,0
1,63,0,240
1,59,100,0
1,59,0,60
1,57,100,0
1,57,0,180
1,54,100,420
1,54,0,60
1,54,100,0
1,54,0,60
1,57,100,0
1,57,0,240
1,54,100,60
1,54,0,60
1,57,100,0
1,57,0,120
1,54,100,0
1,54,0,60
1,57,100,0
1,57,0,180
1,59,100,0
1,59,0,360
1,63,100,360
1,63,0,240
1,61,100,0
1,61,0,60
1,59,100,0
1,59,0,60
1,61,100,0
1,61,0,60
1,63,100,0
1,63,0,60
1,61,100,0
1,61,0,240
1,63,100,480
1,63,0,60
1,63,100,0
1,63,0,60
1,61,100,0
1,61,0,60
1,59,100,0
1,59,0,60
1,59,100,0
1,59,0,180
1,63,100,300
1,63,0,60
1,63,100,0
1,63,0,60
1,61,100,0
1,61,0,60
1,59,100,0
1,59,0,60
1,61,100,0
1,61,0,180
1,66,100,300
1,66,0,60
1,64,100,0
1,64,0,120
1,63,100,0
1,63,0,60
1,64,100,0
1,64,0,120
1,66,100,0
1,66,0,240
1,66,100,0
1,66,0,180
1,66,100,0
1,66,0,60
1,64,100,0
1,64,0,60
1,63,100,0
1,63,0,60
1,59,100,0
1,59,0,480
1,54,100,240
1,54,0,60
1,54,100,0
1,54,0,60
1,57,100,0
1,57,0,120
1,57,100,0
1,57,0,60
1,57,100,0
1,57,0,120
1,54,100,0
1,54,0,60
1,57,100,0
1,57,0,120
1,59,100,0
1,59,0,60
1,59,100,0
1,59,0,180
1,54,100,420
1,54,0,60
1,54,100,0
1,54,0,60
1,57,100,0
1,57,0,60
1,57,100,0
1,57,0,60
1,54,100,0
1,54,0,60
1,57,100,0
1,57,0,60
1,59,100,0
1,59,0,60
1,59,100,0
1,59,0,240
1,63,100,840
1,63,0,60
1,63,100,0
1,63,0,60
1,61,100,0
1,61,0,60
1,59,100,0
1,59,0,60
1,59,100,0
1,59,0,180
1,63,100,300
1,63,0,60
1,63,100,0
1,63,0,120
1,61,100,0
1,61,0,60
1,61,100,0
1,61,0,120
1,59,100,0
1,59,0,60
1,61,100,0
1,61,0,180
1,66,100,240
1,66,0,60
1,66,100,0
1,66,0,60
1,66,100,0
1,66,0,60
1,66,100,0
1,66,0,60
1,68,100,0
1,68,0,60
1,66,100,0
1,66,0,180
1,68,100,0
1,68,0,360
1,66,100,0
1,66,0,180
1,66,100,0
1,66,0,180
1,54,100,1380
1,54,0,60
1,63,100,0
1,63,0,240
1,61,100,0
1,61,0,60
1,59,100,0
1,59,0,60
1,59,100,0
1,59,0,60
1,54,100,0
1,54,0,120
1,54,100,120
1,54,0,60
1,63,100,0
1,63,0,240
1,61,100,0
1,61,0,60
1,59,100,0
1,59,0,60
1,59,100,0
1,59,0,180
1,54,100,120
1,54,0,60
1,63,100,0
1,63,0,240
1,64,100,0
1,64,0,60
1,63,100,0
1,63,0,60
1,64,100,0
1,64,0,180
1,64,100,60
1,64,0,60
1,64,100,0
1,64,0,60
1,64,100,0
1,64,0,60
1,63,100,0
1,63,0,180
1,59,100,0
1,59,0,60
1,57,100,0
1,57,0,180
1,54,100,180
1,54,0,60
1,63,100,0
1,63,0,240
1,61,100,0
1,61,0,60
1,59,100,0
1,59,0,60
1,59,100,0
1,59,0,180
1,54,100,120
1,54,0,60
1,63,100,0
1,63,0,240
1,61,100,0
1,61,0,60
1,59,100,0
1,59,0,60
1,59,100,0
1,59,0,180
1,54,100,120
1,54,0,60
1,63,100,0
1,63,0,240
1,64,100,0
1,64,0,60
1,63,100,0
1,63,0,60
1,64,100,0
1,64,0,240
1,64,100,60
1,64,0,60
1,64,100,0
1,64,0,120
1,63,100,0
1,63,0,180
1,59,100,0
1,59,0,60
1,57,100,0
1,57,0,360
1,54,100,60
1,54,0,60
1,54,100,0
1,54,0,60
1,57,100,0
1,57,0,120
1,54,100,0
1,54,0,60
1,57,100,0
1,57,0,60
1,59,100,0
1,59,0,60
1,59,100,0
1,59,0,60
1,54,100,300
1,54,0,60
1,57,100,0
1,57,0,60
1,54,100,0
1,54,0,60
1,57,100,0
1,57,0,240
1,54,100,240
1,54,0,60
1,52,100,0
1,52,0,60
1,54,100,0
1,54,0,360
1,54,100,300
1,54,0,60
1,63,100,0
1,63,0,240
1,64,100,0
1,64,0,60
1,63,100,0
1,63,0,60
1,64,100,0
1,64,0,180
1,64,100,60
1,64,0,60
1,64,100,0
1,64,0,60
1,64,100,0
1,64,0,120
1,63,100,0
1,63,0,180
1,59,100,0
1,59,0,60
1,57,100,0
1,57,0,480
2,54,100,2880
2,59,100,0
2,63,100,0
2,63,0,120
2,59,0,0
2,54,0,0
2,61,100,420
2,57,100,0
2,57,0,180
2,61,0,0
2,54,100,0
2,59,100,0
2,63,100,0
2,63,0,120
2,59,0,0
2,54,0,0
2,61,100,420
2,57,100,0
2,57,0,180
2,61,0,0
2,54,100,0
2,59,100,0
2,63,100,0
2,63,0,180
2,59,0,0
2,54,0,0
2,58,100,180
2,58,0,60
2,54,100,300
2,57,100,0
2,57,0,360
2,54,0,0
2,52,100,0
2,58,100,0
2,61,100,0
2,61,0,360
2,58,0,0
2,52,0,0
2,54,100,0
2,59,100,0
2,63,100,0
2,63,0,120
2,59,0,0
2,54,0,0
2,57,100,420
2,61,100,0
2,61,0,180
2,57,0,0
2,54,100,0
2,59,100,0
2,63,100,0
2,63,0,180
2,59,0,0
2,54,0,0
2,52,100,180
2,58,100,0
2,61,100,0
2,61,0,180
2,58,0,0
2,52,0,0
2,52,100,0
2,58,100,0
2,61,100,0
2,61,0,180
2,58,0,0
2,52,0,0
2,54,100,0
2,59,100,0
2,63,100,0
2,63,0,180
2,59,0,0
2,54,0,0
2,59,100,720
2,54,100,0
2,63,100,0
2,63,0,180
2,54,0,0
2,59,0,0
2,58,100,0
2,52,100,0
2,61,100,0
2,61,0,180
2,52,0,0
2,58,0,0
2,52,100,0
2,58,100,0
2,61,100,0
2,61,0,180
2,58,0,0
2,52,0,0
2,57,100,1800
2,52,100,0
2,52,0,240
2,57,0,0
2,54,100,2400
2,59,100,0
2,63,100,0
2,63,0,120
2,59,0,0
2,54,0,0
2,52,100,420
2,57,100,0
2,61,100,0
2,61,0,180
2,57,0,0
2,52,0,0
2,54,100,0
2,59,100,0
2,63,100,0
2,63,0,120
2,59,0,0
2,54,0,0
2,52,100,420
2,57,100,0
2,61,100,0
2,61,0,180
2,57,0,0
2,52,0,0
2,54,100,0
2,59,100,0
2,63,100,0
2,63,0,180
2,59,0,0
2,54,0,0
2,52,100,360
2,57,100,0
2,61,100,0
2,61,0,180
2,57,0,0
2,52,0,0
2,54,100,0
2,59,100,0
2,63,100,0
2,63,0,180
2,59,0,0
2,54,0,0
2,52,100,180
2,57,100,0
2,61,100,0
2,61,0,180
2,57,0,0
2,52,0,0
2,52,100,0
2,57,100,0
2,61,100,0
2,61,0,180
2,57,0,0
2,52,0,0
2,54,100,0
2,59,100,0
2,63,100,0
2,63,0,120
2,59,0,0
2,54,0,0
2,52,100,420
2,57,100,0
2,61,100,0
2,61,0,180
2,57,0,0
2,52,0,0
2,54,100,0
2,59,100,0
2,63,100,0
2,63,0,120
2,59,0,0
2,54,0,0
2,52,100,240
2,57,100,0
2,57,0,360
2,52,0,0
2,54,100,0
2,59,100,0
2,63,100,0
2,63,0,180
2,59,0,0
2,54,0,0
2,57,100,180
2,61,100,0
2,63,100,0
2,63,0,180
2,61,0,0
2,57,0,0
2,58,100,0
2,61,100,0
2,64,100,0
2,64,0,180
2,61,0,0
2,58,0,0
2,54,100,0
2,59,100,0
2,63,100,0
2,63,0,180
2,59,0,0
2,54,0,0
2,57,100,180
2,61,100,0
2,64,100,0
2,64,0,180
2,61,0,0
2,57,0,0
2,57,100,0
2,61,100,0
2,64,100,0
2,64,0,180
2,61,0,0
2,57,0,0
2,54,100,0
2,59,100,0
2,63,100,0
2,63,0,360
2,59,0,0
2,54,0,0
2,52,100,0
2,57,100,0
2,61,100,0
2,61,0,180
2,57,0,0
2,52,0,0
2,52,100,0
2,57,100,0
2,61,100,0
2,61,0,180
2,57,0,0
2,52,0,0
2,54,100,0
2,59,100,0
2,63,100,0
2,63,0,360
2,59,0,0
2,54,0,0
2,57,100,0
2,61,100,0
2,64,100,0
2,64,0,180
2,61,0,0
2,57,0,0
2,64,100,0
2,61,100,0
2,57,100,0
2,57,0,180
2,61,0,0
2,64,0,0
2,61,100,0
2,66,100,0
2,66,0,720
2,61,0,0
2,66,100,0
2,61,100,0
2,70,100,0
2,70,0,720
2,61,0,0
2,66,0,0
2,71,100,5880
2,71,0,720
2,59,100,2880
2,59,0,720
2,71,100,0
2,71,0,360
2,69,100,0
2,69,0,360
2,71,100,0
2,71,0,360
2,76,100,0
2,76,0,360
2,71,100,0
2,71,0,360
2,69,100,0
2,69,0,360
2,71,100,0
2,71,0,360
2,64,100,0
2,64,0,360
2,71,100,0
2,71,0,360
2,69,100,0
2,69,0,360
2,71,100,0
2,71,0,360
2,76,100,0
2,76,0,360
2,73,100,0
2,73,0,360
2,69,100,0
2,69,0,360
2,66,100,0
2,66,0,720
2,59,100,10200
2,54,100,0
2,63,100,0
2,63,0,240
2,54,0,0
2,59,0,0
2,57,100,300
2,61,100,0
2,61,0,120
2,57,0,0
2,54,100,60
2,59,100,0
2,63,100,0
2,63,0,240
2,59,0,0
2,54,0,0
2,57,100,300
2,61,100,0
2,61,0,120
2,57,0,0
2,59,100,60
2,54,100,0
2,63,100,0
2,63,0,240
2,54,0,0
2,59,0,0
2,57,100,120
2,61,100,0
2,64,100,0
2,64,0,180
2,61,0,0
2,57,0,0
2,58,100,0
2,61,100,0
2,61,0,60
2,58,0,0
2,54,100,120
2,59,100,0
2,64,100,0
2,64,0,60
2,59,0,0
2,54,0,0
2,61,100,480
2,57,100,0
2,57,0,120
2,61,0,0
2,54,100,60
2,59,100,0
2,63,100,0
2,63,0,240
2,59,0,0
2,54,0,0
2,57,100,300
2,61,100,0
2,64,100,0
2,64,0,120
2,61,0,0
2,57,0,0
2,54,100,60
2,59,100,0
2,63,100,0
2,63,0,240
2,59,0,0
2,54,0,0
2,57,100,300
2,61,100,0
2,64,100,0
2,64,0,120
2,61,0,0
2,57,0,0
