track,note,velocity,time
1,32,118,1920
1,32,119,149
1,39,117,360
1,27,110,0
1,32,116,0
1,39,120,360
1,32,120,358
1,34,120,0
1,29,118,360
1,29,115,329
1,34,119,0
1,29,113,10
1,29,112,0
1,32,120,0
1,34,119,0
1,29,117,360
1,29,110,0
1,27,90,0
1,34,112,43
1,27,116,360
1,32,119,0
1,39,117,360
1,32,110,0
1,39,114,0
1,27,115,128
1,32,119,0
1,27,117,360
1,32,110,0
1,28,117,0
1,27,117,89
1,32,118,480
1,44,112,13
1,42,118,30
1,42,112,29
1,41,118,30
1,41,112,29
1,28,87,480
1,40,118,30
1,40,112,29
1,32,118,30
1,32,112,29
1,39,87,0
1,38,118,2
1,38,112,29
1,37,118,120
1,37,112,29
1,30,119,30
1,32,118,0
1,32,112,29
1,32,111,60
1,30,118,0
1,30,112,29
1,30,111,60
1,29,118,9
1,29,112,29
1,29,80,0
1,29,87,0
1,28,118,3
1,28,112,29
1,28,87,0
1,39,118,30
1,39,112,29
1,39,80,0
1,39,87,0
1,38,118,0
1,38,112,29
1,34,87,0
1,40,85,0
1,39,75,90
1,34,123,30
1,34,117,0
1,39,102,120
1,32,119,540
1,39,117,360
1,27,110,0
1,32,119,0
1,39,117,360
1,27,110,0
1,32,116,0
1,39,120,360
1,32,120,358
1,34,120,0
1,29,118,360
1,29,115,329
1,34,119,0
1,29,113,10
1,29,112,0
1,32,120,0
1,34,120,0
1,29,118,360
1,34,115,0
1,44,118,0
1,39,119,43
1,27,118,360
1,32,119,0
1,32,120,0
1,27,118,0
1,32,117,360
1,39,120,0
1,27,120,60
1,27,117,47
1,32,119,11
1,39,118,360
1,27,117,351
1,28,117,0
1,27,117,120
1,32,118,480
1,44,112,13
1,42,118,30
1,42,112,29
1,41,118,30
1,41,112,29
1,28,87,480
1,40,118,30
1,40,112,29
1,32,118,30
1,32,112,29
1,39,87,0
1,38,118,2
1,38,112,29
1,37,118,120
1,37,112,29
1,30,119,30
1,32,118,0
1,32,112,29
1,32,111,60
1,30,118,0
1,30,112,29
1,30,111,60
1,29,118,9
1,29,112,29
1,29,80,0
1,29,87,0
1,28,118,3
1,28,112,29
1,28,87,0
1,39,118,30
1,39,112,29
1,39,80,0
1,39,87,0
1,38,118,0
1,38,112,29
1,34,87,0
1,40,85,0
1,39,75,90
1,34,123,30
1,34,117,0
1,39,102,120
1,32,118,540
1,32,119,629
1,39,117,360
1,27,110,0
1,32,116,0
1,39,120,360
1,32,120,358
1,34,120,0
1,29,118,360
1,29,115,329
1,34,119,0
1,29,113,10
1,29,112,0
1,32,120,0
1,34,120,0
1,29,118,360
1,34,115,0
1,39,118,0
1,34,119,43
1,27,118,360
1,32,119,0
1,32,120,0
1,27,118,0
1,32,117,360
1,39,120,0
1,27,120,60
1,27,117,47
1,32,119,11
1,39,118,360
1,27,117,351
1,35,117,0
1,28,118,0
1,27,117,60
1,37,113,480
1,37,116,46
1,37,118,65
1,32,110,113
1,32,117,53
1,32,114,74
1,32,111,21
1,37,115,0
1,37,111,62
1,37,117,37
1,32,114,108
1,32,118,53
1,32,109,74
1,32,110,0
1,37,119,0
1,37,115,0
1,37,112,279
1,37,111,74
1,37,113,27
1,36,113,60
1,36,117,48
1,29,120,30
1,29,119,96
1,30,111,106
1,30,117,148
1,30,111,59
1,30,118,97
1,27,122,100
1,32,119,1270
1,39,118,360
1,27,117,351
1,32,119,0
1,39,118,360
1,27,117,351
1,34,120,0
1,29,118,360
1,29,115,0
1,34,120,0
1,29,118,360
1,29,115,0
1,32,117,120
1,34,120,0
1,29,118,360
1,34,115,0
1,39,118,0
1,34,119,43
1,27,118,360
1,32,119,0
1,32,120,0
1,27,118,0
1,32,117,360
1,39,120,0
1,27,120,60
1,27,117,47
1,32,119,11
1,39,118,360
1,27,117,351
1,28,120,120
1,27,120,0
1,32,119,0
1,27,117,111
1,32,120,0
2,60,52,1920
2,67,52,0
2,63,52,0
2,70,52,0
2,67,52,76
2,63,52,0
2,60,52,0
2,70,52,0
2,67,71,76
2,70,63,0
2,60,39,0
2,44,71,120
2,55,60,120
2,58,74,86
2,68,52,118
2,65,52,0
2,61,52,0
2,70,52,0
2,68,52,76
2,65,52,0
2,61,52,0
2,72,52,0
2,65,65,76
2,61,65,0
2,58,65,0
2,55,65,126
2,60,65,0
2,63,65,0
2,61,52,0
2,60,52,0
2,56,52,0
2,65,52,0
2,63,84,76
2,60,84,0
2,56,84,0
2,63,81,60
2,60,81,0
2,56,81,0
2,66,65,400
2,63,65,0
2,59,65,0
2,68,65,0
2,70,65,120
2,61,65,0
2,65,65,0
2,68,65,0
2,70,63,0
2,67,71,0
2,60,39,0
2,44,71,120
2,55,60,120
2,58,74,86
2,56,90,238
2,59,90,0
2,58,90,22
2,51,90,3
2,55,90,2
2,63,84,473
2,60,84,0
2,56,84,0
2,63,81,60
2,60,81,0
2,56,81,0
2,66,84,280
2,63,84,0
2,60,84,0
2,70,84,0
2,66,81,60
2,63,81,0
2,60,81,0
2,70,81,0
2,49,84,280
2,53,84,0
2,56,84,0
2,61,84,0
2,53,81,60
2,56,81,0
2,51,81,0
2,61,81,0
2,64,63,280
2,59,39,0
2,63,71,0
2,49,71,120
2,53,60,120
2,56,74,86
2,67,84,118
2,63,84,0
2,60,84,0
2,70,84,0
2,67,81,60
2,63,81,0
2,60,81,0
2,70,81,0
2,62,71,280
2,65,63,0
2,56,39,0
2,46,71,120
2,50,60,120
2,53,74,86
2,64,71,118
2,71,63,0
2,56,39,0
2,51,60,240
2,52,74,86
2,40,84,258
2,52,74,120
2,56,63,120
2,63,81,0
2,63,81,18
2,44,58,0
2,58,74,0
2,60,65,8
2,58,63,120
2,56,84,0
2,42,52,0
2,54,52,0
2,58,52,0
2,51,52,0
2,68,71,76
2,63,63,0
2,60,39,0
2,51,71,120
2,56,60,120
2,60,74,86
2,59,39,118
2,63,71,0
2,66,63,0
2,51,71,120
2,54,60,120
2,59,74,24
2,56,52,118
2,63,52,0
2,60,52,0
2,68,84,76
2,65,84,0
2,62,84,0
2,70,84,0
2,68,81,60
2,65,81,0
2,62,81,0
2,70,81,0
2,66,52,280
2,63,52,0
2,59,52,0
2,68,52,0
2,63,81,76
2,58,58,0
2,67,52,0
2,63,52,0
2,60,52,0
2,70,52,0
2,44,84,196
2,56,74,120
2,60,63,120
2,67,81,0
2,63,81,18
2,44,58,0
2,58,74,0
2,60,65,8
2,58,63,120
2,56,84,0
2,68,52,0
2,65,52,0
2,61,52,0
2,70,52,0
2,68,52,76
2,65,52,0
2,61,52,0
2,72,52,0
2,65,65,196
2,61,65,0
2,58,65,0
2,55,65,120
2,60,65,0
2,63,65,0
2,68,52,0
2,65,52,0
2,61,52,0
2,70,52,0
2,68,71,76
2,72,63,0
2,63,39,0
2,44,71,120
2,56,60,120
2,60,74,86
2,66,65,238
2,63,65,0
2,59,65,0
2,68,65,0
2,68,65,0
2,65,65,0
2,61,65,0
2,70,65,0
2,63,81,6
2,44,58,0
2,58,74,0
2,60,65,8
2,58,63,120
2,56,84,0
2,56,90,120
2,59,90,0
2,58,90,22
2,51,90,3
2,55,90,2
2,63,84,473
2,60,84,0
2,56,84,0
2,63,81,60
2,60,81,0
2,56,81,0
2,66,84,280
2,63,84,0
2,60,84,0
2,70,84,0
2,66,81,60
2,63,81,0
2,60,81,0
2,70,81,0
2,49,84,280
2,53,84,0
2,56,84,0
2,61,84,0
2,53,81,60
2,56,81,0
2,51,81,0
2,61,81,0
2,64,63,280
2,59,39,0
2,63,71,0
2,49,71,120
2,53,60,120
2,56,74,86
2,67,84,118
2,63,84,0
2,60,84,0
2,70,84,0
2,67,81,60
2,63,81,0
2,60,81,0
2,70,81,0
2,62,71,280
2,65,63,0
2,56,39,0
2,46,71,120
2,50,60,120
2,53,74,86
2,64,71,118
2,71,63,0
2,56,39,0
2,51,60,240
2,52,74,86
2,40,84,258
2,52,74,120
2,56,63,120
2,63,81,0
2,63,81,18
2,44,58,0
2,58,74,0
2,60,65,8
2,58,63,120
2,56,84,0
2,42,52,0
2,54,52,0
2,58,52,0
2,51,52,0
2,68,71,76
2,63,63,0
2,60,39,0
2,51,71,120
2,56,60,120
2,60,74,86
2,59,39,118
2,63,71,0
2,66,63,0
2,51,71,120
2,54,60,120
2,59,74,24
2,56,52,118
2,63,52,0
2,60,52,0
2,68,84,76
2,65,84,0
2,62,84,0
2,70,84,0
2,68,81,60
2,65,81,0
2,62,81,0
2,70,81,0
2,66,52,280
2,63,52,0
2,59,52,0
2,68,52,0
2,63,81,76
2,58,58,0
2,67,52,0
2,63,52,0
2,60,52,0
2,70,52,0
2,63,81,76
2,44,58,0
2,58,74,0
2,60,65,8
2,58,63,120
2,56,84,0
2,67,71,0
2,70,63,0
2,60,39,0
2,44,71,120
2,55,60,120
2,58,74,86
2,61,52,118
2,58,52,0
2,56,52,0
2,65,52,0
2,61,52,76
2,60,52,0
2,56,52,0
2,65,52,0
2,65,65,76
2,61,65,0
2,58,65,0
2,63,65,6
2,60,65,0
2,55,65,0
2,68,84,6
2,65,84,0
2,61,84,0
2,70,84,0
2,68,81,60
2,65,81,0
2,61,81,0
2,70,81,0
2,63,52,280
2,60,52,0
2,56,52,0
2,66,65,76
2,63,65,0
2,59,65,0
2,68,65,0
2,65,65,126
2,56,65,0
2,58,65,0
2,61,65,0
2,44,84,120
2,58,74,120
2,60,63,120
2,67,81,0
2,56,90,138
2,59,90,0
2,58,90,22
2,51,90,3
2,55,90,2
2,44,84,9233
2,58,74,120
2,60,63,120
2,67,81,0
2,67,71,18
2,70,63,0
2,60,39,0
2,44,71,120
2,55,60,120
2,56,74,86
2,61,71,118
2,65,63,0
2,56,39,0
2,46,71,120
2,49,60,120
2,53,74,86
2,61,71,118
2,65,63,0
2,56,39,0
2,46,71,120
2,49,60,120
2,53,74,86
2,58,65,118
2,61,65,0
2,65,65,0
2,55,65,0
2,60,65,0
2,63,65,0
2,68,84,126
2,65,84,0
2,61,84,0
2,70,84,0
2,68,81,60
2,65,81,0
2,61,81,0
2,70,81,0
2,63,52,280
2,60,52,0
2,56,52,0
2,66,65,76
2,63,65,0
2,59,65,0
2,68,65,0
2,56,65,360
2,58,65,0
2,61,65,0
2,65,65,0
2,44,84,360
2,58,74,120
2,60,63,120
2,67,81,0
2,68,80,1458
2,72,80,0
2,72,80,0
2,70,80,60
2,68,80,30
3,72,30,1920
3,67,51,0
3,72,30,15
3,67,51,0
3,72,35,0
3,67,47,0
3,70,39,480
3,61,56,0
3,68,45,0
3,73,19,480
3,68,35,0
3,61,47,0
3,65,39,480
3,61,48,0
3,70,33,0
3,63,51,0
3,67,36,0
3,72,34,240
3,68,30,0
3,61,51,0
3,60,56,0
3,75,45,0
3,80,19,480
3,63,48,0
3,68,33,0
3,68,33,0
3,61,48,0
3,72,25,0
3,67,45,0
3,70,51,0
3,66,74,2101
3,68,74,723
3,65,44,217
3,68,68,956
3,68,66,122
3,70,68,965
3,71,87,174
3,70,100,360
3,68,58,334
3,63,61,238
3,75,68,0
3,71,67,5760
3,70,65,90
3,68,64,30
3,63,67,0
3,63,64,60
3,67,59,630
3,72,22,0
3,72,30,0
3,67,51,0
3,67,59,120
3,72,22,0
3,61,56,0
3,68,45,0
3,73,19,480
3,61,44,0
3,65,38,0
3,68,39,480
3,89,86,38
3,91,91,0
3,92,79,0
3,61,80,0
3,61,56,0
3,68,45,0
3,91,86,0
3,73,19,0
3,63,22,120
3,68,59,0
3,68,34,0
3,66,36,0
3,63,51,0
3,61,51,0
3,65,36,0
3,68,34,0
3,67,59,0
3,72,22,0
3,66,74,2037
3,68,74,723
3,65,44,217
3,68,68,956
3,68,66,122
3,70,68,965
3,71,87,174
3,70,100,360
3,68,58,334
3,63,61,238
3,75,68,0
3,71,67,5760
3,70,65,90
3,68,64,30
3,63,67,0
3,63,64,60
3,72,30,510
3,67,51,0
3,67,59,120
3,72,22,0
3,67,56,0
3,72,45,0
3,79,19,480
3,61,56,0
3,68,45,0
3,73,19,480
3,61,44,0
3,65,38,0
3,68,39,480
3,61,48,38
3,89,86,0
3,70,33,0
3,72,33,0
3,63,48,0
3,91,91,0
3,92,79,0
3,61,80,0
3,61,56,0
3,68,30,0
3,68,45,0
3,61,51,0
3,91,86,0
3,73,19,0
3,68,59,120
3,75,22,0
3,66,36,0
3,63,51,0
3,68,34,240
3,61,51,0
3,65,36,0
3,68,34,240
3,92,54,0
3,72,80,0
3,56,70,0
3,60,80,0
3,63,90,582
3,68,90,27
3,70,90,40
3,72,90,24
3,71,69,28
3,70,100,350
3,56,82,48
3,58,82,40
3,60,82,0
3,63,82,40
3,66,83,6
3,68,83,26
3,70,83,54
3,72,84,38
3,76,84,22
3,77,84,4
3,78,84,20
3,75,71,6
3,80,71,1
3,82,70,463
3,75,50,821
3,75,50,75
3,80,57,4
3,84,48,949
3,80,36,83
3,73,44,3
3,82,56,346
3,80,33,91
3,84,54,7
3,82,55,14
3,80,59,141
3,51,76,184
3,75,56,466
3,73,30,359
3,68,72,103
3,72,64,481
3,67,56,0
3,72,45,0
3,89,80,120
3,89,80,39
3,87,80,120
3,79,19,55
3,87,80,0
3,84,80,24
3,84,80,60
3,82,80,0
3,84,80,0
3,67,44,0
3,72,39,480
3,70,48,38
3,67,44,0
3,72,39,360
3,80,30,38
3,70,87,0
3,72,69,122
3,70,63,107
3,72,61,111
3,70,62,99
3,72,55,103
3,70,57,81
3,72,58,108
3,70,47,0
3,80,22,118
3,73,59,0
3,61,48,0
3,89,86,0
3,70,33,0
3,72,33,360
3,63,48,0
3,91,91,0
3,92,79,0
3,61,80,0
3,61,56,0
3,61,44,0
3,68,45,0
3,65,38,0
3,68,39,0
3,91,86,0
3,73,19,0
3,60,56,0
3,68,45,0
3,73,19,480
3,63,48,0
3,68,33,0
3,61,48,360
3,68,33,0
3,60,33,0
3,63,48,0
3,63,64,360
3,61,48,0
3,77,52,600
3,84,52,0
3,77,59,26
3,84,59,0
3,75,55,120
3,82,55,0
3,75,54,59
3,82,54,0
3,72,51,120
3,79,51,0
3,72,51,38
3,79,51,0
3,70,62,120
3,75,62,0
3,77,60,158
3,84,60,0
3,77,63,42
3,84,63,0
3,75,59,128
3,82,59,0
3,75,67,60
3,82,67,0
3,72,52,118
3,79,52,0
3,79,58,41
3,72,58,0
3,70,67,253
3,75,67,0
3,72,50,388
3,67,50,0
4,89,87,2040
4,77,87,0
4,89,62,39
4,77,62,0
4,87,84,120
4,75,84,0
4,87,65,55
4,75,65,0
4,72,59,24
4,84,59,0
4,72,62,39
4,84,62,0
4,82,59,120
4,70,59,0
4,84,64,23
4,77,84,272
4,77,69,46
4,75,75,120
4,75,84,47
4,72,58,16
4,72,69,53
4,70,87,240
4,68,65,10
4,70,72,120
4,70,90,120
4,70,90,30
4,72,90,2
4,70,90,6
4,68,90,10
4,65,90,30
4,68,90,8
4,70,90,8
4,72,90,150
4,73,90,90
4,70,90,240
4,70,90,41
4,72,90,20
4,70,90,34
4,68,90,43
4,65,90,1
4,68,90,132
4,68,90,31
4,75,56,125
4,75,67,178
4,75,80,1
4,63,80,0
4,78,63,259
4,80,67,41
4,73,80,0
4,58,80,0
4,82,67,9
4,72,80,1
4,56,70,0
4,60,80,0
4,84,55,6
4,56,80,117
4,59,80,117
4,58,90,10
4,56,94,512
4,54,94,0
4,53,87,943
4,51,87,953
4,82,54,8
4,56,94,2
4,84,52,117
4,82,54,95
4,84,55,102
4,87,55,150
4,89,54,116
4,58,87,7
4,82,55,334
4,71,87,33
4,90,57,4
4,59,94,13
4,70,100,65
4,89,50,5
4,68,58,334
4,87,65,7
4,63,61,26
4,75,68,0
4,80,67,351
4,80,67,13
4,80,66,0
4,56,80,0
4,78,55,0
4,54,94,0
4,53,87,0
4,77,80,12
4,87,54,937
4,52,100,0
4,85,67,347
4,80,67,228
4,82,54,100
4,84,55,6
4,51,64,0
4,51,67,29
4,51,66,0
4,51,66,0
