track,note,velocity,time
0,61,31,4608
0,64,52,184
0,61,31,188
0,61,31,284
0,61,31,92
0,64,52,188
0,61,31,284
0,61,31,188
0,61,31,92
0,64,52,188
0,61,31,284
0,61,31,188
0,61,31,92
0,64,52,188
0,35,104,188
0,69,32,0
0,37,119,0
0,61,52,0
0,69,14,88
0,61,31,0
0,69,32,76
0,46,11,92
0,40,127,0
0,61,31,0
0,38,104,88
0,42,14,0
0,69,14,92
0,35,92,32
0,69,32,0
0,44,122,0
0,64,52,4
0,69,14,20
0,61,31,0
0,35,104,88
0,69,32,0
0,35,122,0
0,61,52,0
0,69,14,4
0,61,31,0
0,69,32,88
0,46,11,92
0,39,115,0
0,61,52,0
0,54,65,56
0,59,79,4
0,63,69,0
0,75,64,0
0,71,64,0
0,38,104,28
0,42,14,0
0,69,14,12
0,35,92,20
0,69,32,0
0,42,115,0
0,64,31,0
0,69,14,16
0,64,31,0
0,64,74,56
0,56,67,0
0,68,64,0
0,76,64,0
0,61,69,4
0,73,64,0
0,35,104,28
0,69,32,0
0,37,97,0
0,61,52,0
0,69,14,4
0,61,31,0
0,69,32,88
0,46,11,92
0,40,119,0
0,64,52,0
0,61,31,0
0,38,104,88
0,42,14,0
0,69,14,92
0,35,92,16
0,69,32,0
0,44,112,0
0,61,52,0
0,69,14,16
0,61,31,0
0,35,104,88
0,69,32,0
0,37,105,0
0,61,52,0
0,69,14,24
0,61,31,0
0,69,32,88
0,46,11,92
0,40,112,0
0,61,52,0
0,38,104,88
0,42,14,0
0,69,14,92
0,61,52,0
0,69,32,4
0,44,110,0
0,64,31,0
0,69,14,36
0,64,31,0
0,56,74,56
0,68,64,0
0,64,83,4
0,61,69,0
0,73,64,0
0,76,64,0
0,35,104,28
0,69,32,0
0,37,103,0
0,61,52,0
0,69,14,12
0,61,31,0
0,69,32,88
0,46,11,92
0,40,119,0
0,61,31,0
0,38,104,88
0,42,14,0
0,69,14,92
0,35,92,4
0,69,32,0
0,44,110,0
0,64,52,0
0,69,14,24
0,61,31,0
0,35,104,88
0,69,32,0
0,35,112,0
0,61,52,0
0,69,14,4
0,61,31,0
0,69,32,88
0,46,11,92
0,39,115,0
0,61,52,0
0,54,67,72
0,63,76,4
0,59,76,0
0,71,64,0
0,75,64,0
0,38,104,12
0,42,14,0
0,69,14,12
0,35,92,6
0,69,32,0
0,42,105,0
0,64,31,0
0,69,14,24
0,64,31,0
0,56,69,60
0,64,76,0
0,76,64,0
0,68,64,0
0,61,76,16
0,73,64,0
0,35,104,12
0,69,32,0
0,37,103,0
0,61,52,4
0,69,14,4
0,61,31,0
0,69,32,88
0,46,11,92
0,40,126,0
0,64,52,0
0,61,31,0
0,38,104,88
0,42,14,0
0,69,14,92
0,35,92,8
0,69,32,0
0,44,110,0
0,61,52,0
0,69,14,36
0,61,31,0
0,35,104,88
0,69,32,0
0,37,103,0
0,61,52,0
0,69,14,24
0,61,31,0
0,69,32,88
0,46,11,92
0,40,122,0
0,61,52,0
0,38,104,88
0,42,14,0
0,69,14,92
0,61,52,0
0,69,32,8
0,44,108,0
0,64,31,0
0,69,14,20
0,64,31,0
0,56,74,40
0,68,64,0
0,64,79,16
0,76,64,0
0,61,76,4
0,73,64,0
0,35,104,28
0,69,32,0
0,37,108,0
0,73,44,0
0,76,55,0
0,68,41,0
0,61,52,4
0,69,14,12
0,61,31,0
0,69,32,88
0,46,11,92
0,40,110,0
0,61,31,0
0,38,104,0
0,42,14,0
0,69,14,92
0,35,92,4
0,69,32,0
0,44,115,0
0,64,52,0
0,69,14,24
0,61,31,0
0,35,104,88
0,69,32,0
0,35,112,0
0,75,52,0
0,66,57,0
0,71,54,0
0,61,52,0
0,69,14,24
0,61,31,0
0,69,32,88
0,46,11,92
0,39,115,0
0,61,52,0
0,54,69,60
0,59,76,16
0,71,64,0
0,38,104,0
0,42,14,0
0,63,67,0
0,75,64,0
0,69,14,12
0,35,92,8
0,69,32,0
0,42,105,0
0,64,31,0
0,69,14,24
0,64,31,0
0,56,67,56
0,68,64,0
0,64,76,4
0,61,69,0
0,73,64,0
0,76,64,0
0,35,104,28
0,69,32,0
0,37,101,0
0,76,76,0
0,68,55,0
0,73,54,0
0,61,52,4
0,69,14,24
0,61,31,0
0,69,32,88
0,46,11,92
0,40,119,0
0,64,52,0
0,61,31,0
0,38,104,0
0,42,14,0
0,69,14,92
0,35,92,4
0,69,32,0
0,44,105,0
0,61,52,0
0,69,14,60
0,61,31,0
0,35,104,88
0,69,32,0
0,37,103,0
0,61,52,0
0,69,14,12
0,61,31,0
0,69,32,88
0,46,11,92
0,40,119,0
0,61,52,0
0,38,104,88
0,42,14,0
0,69,14,92
0,61,52,0
0,69,32,8
0,44,110,0
0,64,31,0
0,69,14,20
0,64,31,0
0,56,72,56
0,68,64,0
0,64,79,4
0,76,64,0
0,61,76,12
0,73,64,0
0,35,104,16
0,69,32,0
0,37,101,0
0,61,52,4
0,69,14,12
0,61,31,0
0,69,32,88
0,46,11,92
0,40,115,0
0,61,31,0
0,38,104,88
0,42,14,0
0,69,14,92
0,35,92,10
0,69,32,0
0,44,115,0
0,64,52,4
0,69,14,20
0,61,31,0
0,35,104,88
0,69,32,0
0,35,126,0
0,66,52,0
0,75,53,0
0,71,54,0
0,61,52,0
0,69,14,16
0,61,31,0
0,69,32,88
0,46,11,92
0,39,115,0
0,61,52,0
0,59,83,76
0,54,69,0
0,71,64,0
0,38,104,0
0,42,14,0
0,63,69,0
0,75,64,0
0,69,14,12
0,35,92,4
0,69,32,0
0,42,108,0
0,64,31,0
0,69,14,4
0,64,31,0
0,56,74,60
0,68,64,0
0,64,83,12
0,76,64,0
0,61,74,4
0,73,64,0
0,35,104,12
0,69,32,0
0,37,108,0
0,76,76,0
0,68,54,0
0,73,54,0
0,61,52,0
0,69,14,4
0,61,31,0
0,69,32,88
0,46,11,92
0,40,122,0
0,64,52,0
0,61,31,0
0,38,104,0
0,42,14,0
0,69,14,92
0,35,92,8
0,69,32,0
0,44,110,0
0,61,52,0
0,69,14,56
0,61,31,0
0,35,104,88
0,69,32,0
0,37,105,0
0,61,52,0
0,69,14,12
0,61,31,0
0,69,32,88
0,46,11,92
0,40,122,0
0,61,52,0
0,38,104,88
0,42,14,0
0,69,14,92
0,61,52,0
0,69,32,4
0,44,110,0
0,64,31,0
0,69,14,52
0,64,31,0
0,56,76,72
0,68,64,0
0,64,78,4
0,61,69,0
0,73,64,0
0,76,64,0
0,35,104,12
0,69,32,0
0,37,119,0
0,61,52,0
0,69,14,12
0,61,31,0
0,69,32,88
0,46,11,92
0,40,122,0
0,61,31,0
0,38,104,88
0,42,14,0
0,69,14,92
0,35,92,16
0,69,32,0
0,44,119,0
0,64,52,0
0,69,14,6
0,61,31,0
0,35,104,88
0,69,32,0
0,35,115,0
0,71,50,0
0,75,54,0
0,66,54,0
0,61,52,0
0,69,14,4
0,61,31,0
0,69,32,88
0,46,11,92
0,39,119,0
0,61,52,0
0,63,69,76
0,54,67,0
0,59,76,0
0,71,64,0
0,75,64,0
0,38,104,0
0,42,14,0
0,69,14,12
0,35,92,4
0,69,32,0
0,42,115,0
0,64,31,0
0,69,14,4
0,64,31,0
0,61,72,80
0,56,69,0
0,64,79,0
0,76,64,0
0,68,64,0
0,73,64,0
0,35,104,8
0,69,32,0
0,37,115,0
0,76,51,0
0,68,47,0
0,73,42,0
0,61,52,0
0,69,14,6
0,61,31,0
0,69,32,88
0,46,11,92
0,40,126,0
0,64,52,0
0,61,31,0
0,38,104,0
0,42,14,0
0,69,14,92
0,35,92,6
0,69,32,0
0,44,110,0
0,61,52,0
0,69,14,36
0,61,31,0
0,35,104,88
0,69,32,0
0,37,110,0
0,61,52,0
0,69,14,4
0,61,31,0
0,69,32,88
0,46,11,92
0,40,122,0
0,61,52,0
0,38,104,88
0,42,14,0
0,69,14,92
0,61,52,0
0,69,32,4
0,44,112,0
0,64,31,0
0,69,14,16
0,64,31,0
0,61,76,60
0,64,76,0
0,69,83,0
0,81,64,0
0,76,64,0
0,73,64,0
0,93,87,4
0,88,80,0
0,85,82,4
0,35,104,20
0,69,32,0
0,37,115,0
0,81,62,0
0,76,39,0
0,73,51,0
0,61,52,4
0,69,14,8
0,61,31,0
0,69,32,88
0,46,11,92
0,45,126,0
0,61,31,0
0,38,104,0
0,42,14,0
0,69,14,92
0,35,92,8
0,69,32,0
0,35,103,0
0,64,52,0
0,69,14,24
0,61,31,0
0,64,79,76
0,68,67,0
0,61,67,0
0,92,87,0
0,88,87,0
0,73,64,0
0,80,64,0
0,76,64,0
0,56,67,4
0,35,104,8
0,69,32,0
0,37,119,0
0,73,49,0
0,80,48,0
0,61,52,0
0,85,74,0
0,69,14,8
0,61,31,0
0,69,32,88
0,46,11,92
0,40,122,0
0,61,52,0
0,38,104,0
0,42,14,0
0,69,14,92
0,35,92,4
0,69,32,0
0,44,115,0
0,64,31,0
0,69,14,18
0,64,31,0
0,88,89,56
0,92,87,16
0,83,82,4
0,35,104,12
0,69,32,0
0,40,119,0
0,71,53,0
0,61,52,4
0,68,76,0
0,80,64,0
0,59,69,0
0,64,74,0
0,76,64,0
0,71,64,0
0,69,14,8
0,61,31,0
0,69,32,88
0,46,11,92
0,47,126,0
0,64,52,0
0,61,31,0
0,38,104,0
0,42,14,0
0,69,14,92
0,35,92,10
0,69,32,0
0,40,119,0
0,61,52,0
0,69,14,12
0,61,31,0
0,83,84,56
0,87,84,4
0,90,89,0
0,66,76,12
0,59,67,0
0,71,64,0
0,78,64,0
0,63,72,4
0,75,64,0
0,35,104,12
0,69,32,0
0,35,119,0
0,78,42,0
0,75,52,0
0,61,52,0
0,69,14,8
0,61,31,0
0,69,32,88
0,46,11,92
0,42,119,0
0,61,52,0
0,38,104,0
0,42,14,0
0,69,14,92
0,61,52,0
0,69,32,4
0,35,108,0
0,64,31,0
0,69,14,28
0,64,31,0
0,64,69,76
0,61,69,0
0,56,65,0
0,68,64,0
0,73,64,0
0,76,64,0
0,35,104,12
0,69,32,0
0,37,119,0
0,76,55,0
0,68,49,0
0,73,49,0
0,61,52,4
0,69,14,4
0,61,31,0
0,69,32,88
0,46,11,92
0,40,122,0
0,61,31,0
0,38,104,0
0,42,14,0
0,69,14,92
0,35,92,10
0,69,32,0
0,44,119,0
0,64,52,0
0,69,14,6
0,61,31,0
0,35,104,88
0,69,32,0
0,35,115,0
0,75,50,0
0,71,47,0
0,66,53,0
0,61,52,0
0,69,14,8
0,61,31,0
0,69,32,88
0,46,11,92
0,39,119,0
0,61,52,0
0,59,72,72
0,71,64,0
0,54,67,4
0,63,72,0
0,75,64,0
0,38,104,0
0,42,14,0
0,69,14,28
0,35,92,8
0,69,32,0
0,42,115,0
0,64,31,0
0,69,14,16
0,64,31,0
0,64,76,56
0,56,69,0
0,68,64,0
0,76,64,0
0,61,72,8
0,73,64,0
0,35,104,24
0,69,32,0
0,37,112,0
0,76,48,0
0,68,53,0
0,73,41,0
0,61,52,0
0,69,14,12
0,61,31,0
0,69,32,88
0,46,11,92
0,40,126,0
0,64,52,0
0,61,31,0
0,38,104,0
0,42,14,0
0,69,14,92
0,35,92,4
0,69,32,0
0,44,115,0
0,61,52,0
0,69,14,16
0,61,31,0
0,35,104,88
0,69,32,0
0,37,108,0
0,61,52,0
0,69,14,8
0,61,31,0
0,69,32,88
0,46,11,92
0,40,122,0
0,61,52,0
0,38,104,88
0,42,14,0
0,69,14,92
0,61,52,0
0,69,32,4
0,44,115,0
0,64,31,0
0,69,14,16
0,64,31,0
0,69,72,72
0,81,64,0
0,61,67,4
0,64,65,0
0,93,76,0
0,88,82,0
0,76,64,0
0,73,64,0
0,85,76,8
0,35,104,4
0,69,32,0
0,37,115,0
0,80,47,0
0,81,68,0
0,76,53,0
0,73,45,0
0,61,52,0
0,69,14,4
0,61,31,0
0,69,32,88
0,46,11,92
0,40,126,0
0,61,31,0
0,38,104,0
0,42,14,0
0,69,14,92
0,35,92,20
0,69,32,0
0,35,105,0
0,64,52,0
0,69,14,20
0,61,31,0
0,68,79,72
0,80,64,0
0,61,76,4
0,73,64,0
0,35,104,12
0,69,32,0
0,37,115,0
0,80,49,0
0,73,53,0
0,61,52,0
0,64,86,0
0,76,64,0
0,88,91,24
0,92,89,16
0,69,14,0
0,61,31,0
0,69,32,88
0,46,11,92
0,40,122,0
0,61,52,0
0,38,104,0
0,42,14,0
0,69,14,92
0,35,92,4
0,69,32,0
0,44,110,0
0,64,31,0
0,69,14,22
0,64,31,0
0,88,101,56
0,64,76,20
0,59,72,0
0,68,72,0
0,80,64,0
0,71,64,0
0,76,64,0
0,92,87,4
0,83,89,4
0,35,104,4
0,69,32,0
0,40,122,0
0,71,48,0
0,61,52,0
0,69,14,0
0,61,31,0
0,69,32,88
0,46,11,92
0,47,126,0
0,64,52,0
0,61,31,0
0,38,104,0
0,42,14,0
0,71,64,0
0,80,64,0
0,76,64,0
0,69,14,92
0,35,92,10
0,69,32,0
0,40,119,0
0,61,52,0
0,69,14,20
0,61,31,0
0,66,79,60
0,59,83,0
0,71,64,0
0,78,64,0
0,63,76,4
0,75,64,0
0,90,91,8
0,87,84,4
0,83,87,0
0,35,104,12
0,69,32,0
0,35,119,0
0,75,57,0
0,78,48,0
0,61,52,0
0,69,14,12
0,61,31,0
0,69,32,88
0,46,11,16
0,36,126,0
0,61,52,0
0,68,79,48
0,80,64,0
0,87,82,4
0,38,104,0
0,42,14,0
0,60,72,0
0,63,76,0
0,75,64,0
0,72,64,0
0,84,89,4
0,92,91,0
0,69,14,16
0,61,52,0
0,69,32,14
0,44,127,0
0,64,31,0
0,69,14,12
0,64,31,0
0,80,71,40
0,68,64,0
0,85,74,12
0,73,64,0
0,88,69,4
0,76,64,0
0,35,104,28
0,69,32,0
0,37,119,0
0,73,50,0
0,68,39,0
0,76,59,0
0,61,52,0
0,69,14,10
0,61,31,0
0,69,32,88
0,46,11,92
0,44,119,0
0,61,31,0
0,64,72,60
0,38,104,0
0,42,14,0
0,88,76,0
0,69,14,88
0,85,74,28
0,73,64,0
0,80,76,16
0,68,64,0
0,88,87,4
0,76,64,0
0,35,92,4
0,69,32,0
0,37,112,0
0,64,52,0
0,69,14,12
0,61,31,0
0,85,84,44
0,73,64,0
0,88,91,16
0,80,84,0
0,76,64,0
0,68,64,0
0,63,59,4
0,35,104,0
0,69,32,0
0,44,127,0
0,87,52,0
0,75,51,0
0,71,51,0
0,61,52,0
0,69,14,4
0,61,31,0
0,69,32,48
0,80,72,48
0,68,64,0
0,83,87,4
0,71,64,0
0,87,87,12
0,75,64,0
0,46,11,16
0,39,115,0
0,61,52,0
0,38,104,0
0,42,14,0
0,69,14,92
0,35,92,4
0,69,32,0
0,44,112,0
0,64,31,0
0,69,14,14
0,64,31,0
0,78,73,56
0,90,84,24
0,85,80,0
0,81,78,0
0,78,64,0
0,73,64,0
0,35,104,8
0,69,32,0
0,42,119,0
0,69,47,0
0,73,50,0
0,66,53,0
0,61,52,4
0,69,14,10
0,61,31,0
0,69,32,88
0,46,11,92
0,49,127,0
0,64,52,0
0,61,31,0
0,54,78,60
0,66,78,0
0,38,104,0
0,42,14,0
0,90,52,0
0,69,14,60
0,78,73,60
0,81,74,20
0,85,76,0
0,90,75,0
0,73,64,0
0,78,64,0
0,35,92,8
0,69,32,0
0,42,110,0
0,61,52,0
0,69,14,14
0,61,31,0
0,64,82,56
0,78,74,0
0,90,76,8
0,78,64,0
0,81,74,4
0,85,87,0
0,73,64,0
0,35,104,0
0,69,32,0
0,40,127,0
0,68,49,0
0,76,55,0
0,88,76,0
0,61,52,0
0,69,14,24
0,61,31,0
0,69,32,28
0,85,87,48
0,73,64,0
0,80,89,4
0,68,64,0
0,46,11,12
0,47,126,0
0,61,52,0
0,88,78,0
0,76,64,0
0,56,72,4
0,68,72,0
0,38,104,0
0,42,14,0
0,92,59,0
0,69,14,92
0,61,52,0
0,80,82,56
