track,note,velocity,time
3,60,64,6420
3,60,0,60
3,62,64,0
3,62,0,60
3,62,64,0
3,62,0,180
3,62,64,0
3,62,0,120
3,60,64,0
3,60,0,360
3,60,64,0
3,60,0,120
3,60,64,0
3,60,0,120
3,65,64,0
3,65,0,120
3,67,64,0
3,67,0,120
3,64,64,0
3,64,0,120
3,60,64,0
3,60,0,120
3,63,64,0
3,63,0,120
3,63,64,0
3,63,0,120
3,65,64,0
3,65,0,60
3,60,64,0
3,60,0,60
3,62,64,0
3,62,0,180
3,69,64,180
3,69,0,240
3,69,64,0
3,69,0,120
3,67,64,0
3,67,0,120
3,65,64,0
3,65,0,120
3,64,64,0
3,64,0,60
3,65,64,0
3,65,0,420
3,69,64,120
3,69,0,120
3,67,64,0
3,67,0,60
3,65,64,0
3,65,0,60
3,64,64,0
3,64,0,120
3,65,64,0
3,65,0,600
3,65,64,0
3,65,0,180
3,67,64,0
3,67,0,180
3,70,64,0
3,70,0,180
3,69,64,0
3,69,0,180
3,64,64,0
3,64,0,480
3,62,64,60
3,62,0,60
3,62,64,0
3,62,0,60
3,60,64,0
3,60,0,60
3,62,64,0
3,62,0,60
3,60,64,0
3,60,0,60
3,60,64,0
3,60,0,420
3,64,64,0
3,64,0,60
3,62,64,0
3,62,0,60
3,60,64,0
3,60,0,60
3,62,64,0
3,62,0,120
3,59,64,0
3,59,0,180
3,62,64,0
3,62,0,420
3,65,64,0
3,65,0,180
3,67,64,0
3,67,0,180
3,70,64,0
3,70,0,180
3,69,64,0
3,69,0,180
3,64,64,0
3,64,0,480
3,60,64,0
3,60,0,60
3,62,64,0
3,62,0,60
3,62,64,0
3,62,0,60
3,60,64,0
3,60,0,60
3,62,64,0
3,62,0,120
3,60,64,0
3,60,0,420
3,64,64,0
3,64,0,60
3,62,64,0
3,62,0,60
3,60,64,0
3,60,0,60
3,62,64,0
3,62,0,120
3,59,64,0
3,59,0,180
3,62,64,0
3,62,0,120
3,59,64,0
3,59,0,60
3,62,64,0
3,62,0,120
3,62,64,0
3,62,0,120
3,60,64,0
3,60,0,720
3,62,64,0
3,62,0,120
3,62,64,0
3,62,0,120
3,62,64,0
3,62,0,60
3,60,64,0
3,60,0,60
3,60,64,0
3,60,0,180
3,60,64,180
3,60,0,120
3,60,64,0
3,60,0,120
3,65,64,0
3,65,0,120
3,67,64,0
3,67,0,120
3,64,64,0
3,64,0,120
3,60,64,0
3,60,0,120
3,63,64,0
3,63,0,120
3,63,64,0
3,63,0,120
3,65,64,0
3,65,0,60
3,60,64,0
3,60,0,60
3,62,64,0
3,62,0,180
3,69,64,180
3,69,0,240
3,69,64,0
3,69,0,120
3,67,64,0
3,67,0,120
3,65,64,0
3,65,0,120
3,64,64,0
3,64,0,60
3,65,64,0
3,65,0,420
3,69,64,120
3,69,0,120
3,67,64,0
3,67,0,60
3,65,64,0
3,65,0,60
3,64,64,0
3,64,0,120
3,65,64,0
3,65,0,120
3,65,64,0
3,65,0,480
3,65,64,0
3,65,0,180
3,67,64,0
3,67,0,180
3,70,64,0
3,70,0,180
3,69,64,0
3,69,0,180
3,64,64,0
3,64,0,480
3,62,64,60
3,62,0,60
3,62,64,0
3,62,0,60
3,60,64,0
3,60,0,60
3,62,64,0
3,62,0,60
3,60,64,0
3,60,0,60
3,60,64,0
3,60,0,420
3,64,64,0
3,64,0,60
3,62,64,0
3,62,0,60
3,60,64,0
3,60,0,60
3,62,64,0
3,62,0,120
3,59,64,0
3,59,0,180
3,62,64,0
3,62,0,420
3,65,64,0
3,65,0,180
3,67,64,0
3,67,0,180
3,70,64,0
3,70,0,180
3,69,64,0
3,69,0,180
3,64,64,0
3,64,0,480
3,60,64,0
3,60,0,60
3,62,64,0
3,62,0,60
3,62,64,0
3,62,0,60
3,60,64,0
3,60,0,60
3,62,64,0
3,62,0,120
3,60,64,0
3,60,0,420
3,64,64,0
3,64,0,60
3,62,64,0
3,62,0,60
3,60,64,0
3,60,0,60
3,62,64,0
3,62,0,120
3,59,64,0
3,59,0,180
3,62,64,0
3,62,0,120
3,59,64,0
3,59,0,60
3,62,64,0
3,62,0,120
3,62,64,0
3,62,0,120
3,60,64,0
3,60,0,360
3,59,64,5400
3,59,0,360
3,59,64,0
3,59,0,120
3,55,64,0
3,55,0,240
3,59,64,0
3,59,0,60
3,59,64,0
3,59,0,60
3,59,64,0
3,59,0,60
3,60,64,0
3,60,0,60
3,59,64,0
3,59,0,60
3,59,64,0
3,59,0,60
3,59,64,0
3,59,0,60
3,55,64,0
3,55,0,60
3,55,64,0
3,55,0,240
3,59,64,0
3,59,0,60
3,59,64,0
3,59,0,60
3,59,64,0
3,59,0,60
3,60,64,0
3,60,0,60
3,59,64,0
3,59,0,60
3,59,64,0
3,59,0,60
3,59,64,0
3,59,0,120
3,55,64,0
3,55,0,240
3,57,64,0
3,57,0,60
3,57,64,0
3,57,0,60
3,57,64,0
3,57,0,60
3,59,64,0
3,59,0,60
3,57,64,0
3,57,0,60
3,55,64,0
3,55,0,60
3,55,64,0
3,55,0,180
3,59,64,180
3,59,0,360
3,59,64,0
3,59,0,120
3,55,64,0
3,55,0,240
3,62,64,0
3,59,64,0
3,59,0,60
3,62,0,0
3,62,64,0
3,59,64,0
3,59,0,60
3,62,0,0
3,62,64,0
3,59,64,0
3,59,0,60
3,62,0,0
3,64,64,0
3,60,64,0
3,60,0,60
3,64,0,0
3,62,64,0
3,59,64,0
3,59,0,60
3,62,0,0
3,62,64,0
3,59,64,0
3,59,0,60
3,62,0,0
3,62,64,0
3,59,64,0
3,59,0,60
3,62,0,0
3,60,64,0
3,55,64,0
3,55,0,60
3,60,0,0
3,60,64,0
3,55,64,0
3,55,0,240
3,60,0,0
3,62,64,0
3,59,64,0
3,59,0,60
3,62,0,0
3,62,64,0
3,59,64,0
3,59,0,60
3,62,0,0
3,62,64,0
3,59,64,0
3,59,0,60
3,62,0,0
3,64,64,0
3,60,64,0
3,60,0,60
3,64,0,0
3,62,64,0
3,59,64,0
3,59,0,60
3,62,0,0
3,62,64,0
3,59,64,0
3,59,0,60
3,62,0,0
3,62,64,0
3,59,64,0
3,59,0,120
3,62,0,0
3,59,64,0
3,55,64,0
3,55,0,240
3,59,0,0
3,60,64,0
3,57,64,0
3,57,0,60
3,60,0,0
3,60,64,0
3,57,64,0
3,57,0,60
3,60,0,0
3,60,64,0
3,57,64,0
3,57,0,60
3,60,0,0
3,62,64,0
3,59,64,0
3,59,0,60
3,62,0,0
3,60,64,0
3,57,64,0
3,57,0,60
3,60,0,0
3,60,64,0
3,55,64,0
3,55,0,60
3,60,0,0
3,60,64,0
3,55,64,0
3,55,0,180
3,60,0,0
3,62,64,900
3,62,0,120
3,62,64,0
3,62,0,120
3,62,64,0
3,62,0,60
3,60,64,0
3,60,0,60
3,60,64,0
3,60,0,180
3,60,64,180
3,60,0,120
3,60,64,0
3,60,0,120
3,65,64,0
3,65,0,120
3,67,64,0
3,67,0,120
3,64,64,0
3,64,0,120
3,60,64,0
3,60,0,120
3,63,64,0
3,63,0,120
3,63,64,0
3,63,0,180
3,65,64,0
3,65,0,60
3,62,64,0
3,62,0,180
3,69,64,180
3,69,0,240
3,69,64,0
3,69,0,60
3,69,64,0
3,69,0,60
3,67,64,0
3,67,0,120
3,65,64,0
3,65,0,120
3,64,64,0
3,64,0,60
3,65,64,0
3,65,0,420
3,69,64,60
3,69,0,120
3,67,64,0
3,67,0,60
3,65,64,0
3,65,0,60
3,64,64,0
3,64,0,120
3,65,64,0
3,65,0,120
3,65,64,0
3,65,0,540
3,65,64,0
3,53,64,0
3,53,0,180
3,65,0,0
3,67,64,0
3,55,64,0
3,55,0,180
3,67,0,0
3,70,64,0
3,58,64,0
3,58,0,180
3,70,0,0
3,69,64,0
3,60,64,0
3,60,0,180
3,69,0,0
3,64,64,0
3,55,64,0
3,55,0,480
3,64,0,0
3,62,64,60
3,62,0,60
3,62,64,0
3,62,0,60
3,60,64,0
3,60,0,60
3,62,64,0
3,62,0,60
3,60,64,0
3,60,0,60
3,60,64,0
3,60,0,420
3,64,64,0
3,64,0,60
3,62,64,0
3,62,0,60
3,60,64,0
3,60,0,60
3,62,64,0
3,62,0,120
3,59,64,0
3,59,0,180
3,62,64,0
3,62,0,420
3,65,64,0
3,53,64,0
3,53,0,180
3,65,0,0
3,67,64,0
3,55,64,0
3,55,0,180
3,67,0,0
3,70,64,0
3,58,64,0
3,58,0,180
3,70,0,0
3,69,64,0
3,60,64,0
3,60,0,180
3,69,0,0
3,64,64,0
3,60,64,0
3,60,0,480
3,64,0,0
3,60,64,0
3,60,0,60
3,62,64,0
3,62,0,60
3,62,64,0
3,62,0,60
3,60,64,0
3,60,0,60
3,62,64,0
3,62,0,120
3,60,64,0
3,60,0,420
3,64,64,0
3,64,0,60
3,62,64,0
3,62,0,60
3,60,64,0
3,60,0,60
3,62,64,0
3,62,0,120
3,59,64,0
3,59,0,120
3,62,64,0
3,62,0,480
3,65,64,0
3,53,64,0
3,53,0,180
3,65,0,0
3,67,64,0
3,55,64,0
3,55,0,180
3,67,0,0
3,70,64,0
3,58,64,0
3,58,0,180
3,70,0,0
3,69,64,0
3,60,64,0
3,60,0,180
3,69,0,0
3,64,64,0
3,55,64,0
3,55,0,480
3,64,0,0
3,62,64,60
3,62,0,60
3,62,64,0
3,62,0,60
3,60,64,0
3,60,0,60
3,62,64,0
3,62,0,60
3,60,64,0
3,60,0,60
3,60,64,0
3,60,0,420
3,64,64,0
3,64,0,60
3,62,64,0
3,62,0,60
3,60,64,0
3,60,0,60
3,62,64,0
3,62,0,120
3,59,64,0
3,59,0,180
3,62,64,0
3,62,0,420
3,65,64,0
3,53,64,0
3,53,0,180
3,65,0,0
3,67,64,0
3,55,64,0
3,55,0,180
3,67,0,0
3,70,64,0
3,58,64,0
3,58,0,180
3,70,0,0
3,69,64,0
3,60,64,0
3,60,0,180
3,69,0,0
3,64,64,0
3,60,64,0
3,60,0,480
3,64,0,0
3,60,64,0
3,60,0,60
3,62,64,0
3,62,0,60
3,62,64,0
3,62,0,60
3,60,64,0
3,60,0,60
3,62,64,0
3,62,0,120
3,60,64,0
3,60,0,420
3,64,64,0
3,64,0,60
3,62,64,0
3,62,0,60
3,60,64,0
3,60,0,60
3,62,64,0
3,62,0,120
3,59,64,0
3,59,0,120
3,62,64,0
3,62,0,180
3,59,64,0
3,59,0,60
3,62,64,0
3,62,0,120
3,62,64,0
3,62,0,120
3,65,64,0
3,65,0,720
3,64,64,0
3,64,0,360
4,65,64,0
4,53,64,0
4,53,0,180
4,65,0,0
4,67,64,0
4,55,64,0
4,55,0,180
4,67,0,0
4,70,64,0
4,58,64,0
4,58,0,180
4,70,0,0
4,69,64,0
4,57,64,0
4,57,0,180
4,69,0,0
4,64,64,0
4,52,64,0
4,52,0,120
4,52,64,0
4,52,0,60
4,52,64,0
4,52,0,120
4,55,64,0
4,55,0,60
4,52,64,0
4,52,0,360
4,64,0,0
4,74,64,0
4,65,64,0
4,65,0,180
4,74,0,0
4,76,64,0
4,67,64,0
4,67,0,120
4,76,0,0
4,72,64,0
4,64,64,0
4,64,0,240
4,72,0,0
4,71,64,60
4,62,64,0
4,62,0,120
4,71,0,0
4,69,64,0
4,69,0,360
4,67,64,0
4,67,0,360
4,65,64,0
4,53,64,0
4,53,0,180
4,65,0,0
4,67,64,0
4,55,64,0
4,55,0,180
4,67,0,0
4,70,64,0
4,58,64,0
4,58,0,180
4,70,0,0
4,69,64,0
4,57,64,0
4,57,0,180
4,69,0,0
4,64,64,0
4,52,64,0
4,52,0,720
4,64,0,0
4,74,64,0
4,65,64,0
4,65,0,180
4,74,0,0
4,76,64,0
4,67,64,0
4,67,0,120
4,76,0,0
4,72,64,0
4,64,64,0
4,64,0,240
4,72,0,0
4,71,64,60
4,62,64,0
4,62,0,120
4,71,0,0
4,67,64,0
4,55,64,0
4,55,0,720
4,67,0,0
4,72,64,0
4,69,64,0
4,69,0,240
4,72,0,0
4,65,64,0
4,65,0,60
4,69,64,0
4,69,0,60
4,67,64,0
4,67,0,240
4,55,64,0
4,60,64,0
4,64,64,0
4,64,0,60
4,60,0,0
4,55,0,0
4,60,64,0
4,60,0,60
4,53,72,0
4,58,72,0
4,62,72,0
4,62,0,228
4,58,0,0
4,53,0,0
4,53,72,12
4,58,72,0
4,62,72,0
4,62,0,96
4,58,0,0
4,53,0,0
4,57,72,24
4,60,72,0
4,53,72,0
4,53,0,360
4,60,0,0
4,57,0,0
4,60,64,0
4,57,64,0
4,53,64,0
4,53,0,360
4,57,0,0
4,60,0,0
4,64,64,0
4,60,64,0
4,55,64,0
4,55,0,360
4,60,0,0
4,64,0,0
4,63,64,0
4,58,64,0
4,55,64,0
4,55,0,360
4,58,0,0
4,63,0,0
4,62,64,0
4,58,64,0
4,53,64,0
4,53,0,180
4,58,0,0
4,62,0,0
4,58,64,60
4,58,0,60
4,53,64,0
4,53,0,60
4,60,64,180
4,60,0,60
4,65,64,0
4,65,0,120
4,67,64,0
4,64,64,0
4,64,0,360
4,67,0,0
4,57,64,60
4,57,0,60
4,62,64,0
4,62,0,120
4,57,64,0
4,57,0,60
4,62,64,0
4,62,0,60
4,58,64,0
4,58,0,60
4,62,64,0
4,62,0,60
4,69,64,0
4,65,64,0
4,65,0,120
4,69,0,0
4,67,64,0
4,67,0,60
4,65,64,0
4,65,0,60
4,64,64,0
4,60,64,0
4,55,64,0
4,55,0,120
4,60,0,0
4,64,0,0
4,65,64,0
4,60,64,0
4,57,64,0
4,57,0,600
4,60,0,0
4,65,0,0
4,65,64,0
4,63,64,0
4,58,64,0
4,65,0,180
4,67,64,0
4,67,0,180
4,58,0,0
4,63,0,0
4,70,64,0
4,65,64,0
4,60,64,0
4,70,0,180
4,69,64,0
4,69,0,180
4,60,0,0
4,65,0,0
4,55,64,0
4,64,64,0
4,60,64,0
4,60,0,720
4,64,0,0
4,55,0,0
4,74,64,0
4,65,64,0
4,58,64,0
4,53,64,0
4,65,0,180
4,74,0,0
4,76,64,0
4,67,64,0
4,67,0,120
4,76,0,0
4,72,64,0
4,64,64,0
4,58,0,60
4,53,0,0
4,57,64,0
4,53,64,0
4,72,0,180
4,64,0,0
4,71,64,60
4,62,64,0
4,62,0,120
4,53,0,0
4,57,0,0
4,71,0,0
4,67,64,0
4,59,64,0
4,55,64,0
4,55,0,720
4,59,0,0
4,67,0,0
4,65,64,0
4,63,64,0
4,58,64,0
4,65,0,180
4,67,64,0
4,67,0,180
4,58,0,0
4,63,0,0
4,70,64,0
4,65,64,0
4,60,64,0
4,70,0,180
4,69,64,0
4,69,0,180
4,60,0,0
4,65,0,0
4,64,64,0
4,60,64,0
4,55,64,0
4,55,0,720
4,60,0,0
4,64,0,0
4,74,64,0
4,65,64,0
4,58,64,0
4,53,64,0
4,65,0,180
4,74,0,0
4,76,64,0
4,67,64,0
4,67,0,120
4,76,0,0
4,72,64,0
4,64,64,0
4,58,0,60
4,53,0,0
4,57,64,0
4,53,64,0
4,72,0,180
4,64,0,0
4,71,64,60
4,62,64,0
4,62,0,120
4,53,0,0
4,57,0,0
4,71,0,0
4,67,64,0
4,59,64,0
4,55,64,0
4,55,0,720
4,59,0,0
4,67,0,0
4,60,64,0
4,53,64,0
4,53,0,120
4,57,64,0
4,57,0,120
4,53,64,0
4,53,0,60
4,57,64,0
4,57,0,60
4,55,64,0
4,52,64,0
4,52,0,360
4,55,0,0
4,60,0,0
4,62,72,0
4,58,72,0
4,53,72,0
4,53,0,228
4,58,0,0
4,62,0,0
4,62,72,12
4,58,72,0
4,53,72,0
4,53,0,96
4,58,0,0
4,62,0,0
4,53,72,24
4,60,72,0
4,57,72,0
4,57,0,360
4,60,0,0
4,53,0,0
4,60,64,0
4,57,64,0
4,53,64,0
4,53,0,360
4,57,0,0
4,60,0,0
4,64,64,0
4,60,64,0
4,55,64,0
4,55,0,360
4,60,0,0
4,64,0,0
