track,note,velocity,time
1,38,100,23040
1,38,100,48
1,38,100,36
1,29,100,12
1,29,100,24
1,31,100,24
1,33,100,24
1,36,100,24
1,36,100,48
1,36,100,36
1,29,100,12
1,29,100,24
1,31,100,24
1,33,100,24
1,31,100,24
1,31,100,48
1,31,100,36
1,26,100,12
1,26,100,24
1,29,100,24
1,29,100,24
1,31,100,24
1,31,100,48
1,29,100,36
1,31,100,12
1,31,100,24
1,33,100,24
1,36,100,24
1,38,100,24
1,38,100,48
1,38,100,36
1,29,100,12
1,29,100,24
1,31,100,24
1,33,100,24
1,36,100,24
1,36,100,48
1,36,100,36
1,29,100,12
1,29,100,24
1,31,100,24
1,33,100,24
1,31,100,24
1,31,100,48
1,31,100,36
1,26,100,12
1,26,100,24
1,29,100,24
1,31,100,24
1,29,100,24
1,29,100,48
1,29,100,36
1,28,100,12
1,28,100,48
1,26,100,48
1,38,100,192
1,38,100,48
1,38,100,36
1,29,100,12
1,29,100,24
1,31,100,24
1,31,100,24
1,38,100,24
1,38,100,48
1,38,100,36
1,29,100,12
1,29,100,24
1,31,100,24
1,33,100,24
1,34,100,24
1,34,100,48
1,34,100,36
1,29,100,12
1,29,100,24
1,34,100,24
1,33,100,24
1,29,100,24
1,29,100,48
1,29,100,36
1,31,100,12
1,31,100,24
1,33,100,24
1,36,100,24
1,38,100,24
1,38,100,48
1,38,100,36
1,29,100,12
1,29,100,24
1,31,100,24
1,31,100,24
1,38,100,24
1,38,100,48
1,38,100,36
1,29,100,12
1,29,100,24
1,31,100,24
1,33,100,24
1,34,100,24
1,34,100,48
1,34,100,36
1,29,100,12
1,29,100,24
1,34,100,24
1,33,100,24
1,29,100,24
1,29,100,48
1,29,100,36
1,31,100,12
1,31,100,24
1,33,100,24
1,36,100,24
1,38,100,24
1,38,100,48
1,38,100,36
1,29,100,12
1,29,100,24
1,31,100,24
1,31,100,24
1,38,100,24
1,38,100,48
1,38,100,36
1,29,100,12
1,29,100,24
1,31,100,24
1,33,100,24
1,36,100,24
1,36,100,48
1,36,100,36
1,31,100,12
1,31,100,24
1,33,100,24
1,33,100,24
1,36,100,24
1,36,100,48
1,36,100,36
1,31,100,12
1,33,100,24
1,36,100,24
1,37,100,24
1,38,100,24
1,38,100,48
1,38,100,36
1,29,100,12
1,29,100,24
1,31,100,24
1,31,100,24
1,38,100,24
1,38,100,48
1,38,100,36
1,29,100,12
1,29,100,24
1,31,100,24
1,33,100,24
1,34,100,24
1,34,100,48
1,34,100,36
1,29,100,12
1,29,100,24
1,34,100,24
1,33,100,24
1,29,100,24
1,29,100,48
1,29,100,36
1,31,100,12
1,31,100,24
1,33,100,24
1,36,100,24
1,38,100,24
1,38,100,48
1,38,100,36
1,29,100,12
1,29,100,24
1,31,100,24
1,33,100,24
1,36,100,24
1,36,100,48
1,36,100,36
1,29,100,12
1,29,100,24
1,31,100,24
1,33,100,24
1,31,100,24
1,31,100,48
1,31,100,36
1,26,100,12
1,26,100,24
1,29,100,24
1,29,100,24
1,31,100,24
1,31,100,48
1,29,100,36
1,31,100,12
1,31,100,24
1,33,100,24
1,36,100,24
1,38,100,24
1,38,100,48
1,38,100,36
1,29,100,12
1,29,100,24
1,31,100,24
1,33,100,24
1,36,100,24
1,36,100,48
1,36,100,36
1,29,100,12
1,29,100,24
1,31,100,24
1,33,100,24
1,31,100,24
1,31,100,48
1,31,100,36
1,26,100,12
1,26,100,24
1,29,100,24
1,31,100,24
1,29,100,24
1,29,100,48
1,29,100,36
1,28,100,12
1,28,100,48
1,38,100,48
1,38,100,48
1,38,100,36
1,29,100,12
1,29,100,24
1,31,100,24
1,33,100,24
1,36,100,24
1,36,100,48
1,36,100,36
1,29,100,12
1,29,100,24
1,31,100,24
1,33,100,24
1,31,100,24
1,31,100,48
1,31,100,36
1,26,100,12
1,26,100,24
1,29,100,24
1,29,100,24
1,31,100,24
1,31,100,48
1,29,100,36
1,31,100,12
1,31,100,24
1,33,100,24
1,36,100,24
1,38,100,24
1,38,100,48
1,38,100,36
1,29,100,12
1,29,100,24
1,31,100,24
1,33,100,24
1,36,100,24
1,36,100,48
1,36,100,36
1,29,100,12
1,29,100,24
1,31,100,24
1,33,100,24
1,31,100,24
1,31,100,48
1,31,100,36
1,26,100,12
1,26,100,24
1,29,100,24
1,31,100,24
1,29,100,24
1,29,100,48
1,29,100,36
1,28,100,12
1,28,100,48
1,38,100,48
1,38,100,48
1,38,100,36
1,29,100,12
1,29,100,24
1,31,100,24
1,31,100,24
1,38,100,24
1,38,100,48
1,38,100,36
1,29,100,12
1,29,100,24
1,31,100,24
1,33,100,24
1,38,100,24
1,38,100,48
1,29,100,48
1,29,100,24
1,31,100,24
1,33,100,24
1,38,100,24
1,38,100,48
1,29,100,48
1,29,100,24
1,31,100,24
1,33,100,24
1,38,100,24
1,38,100,48
1,38,100,36
1,29,100,12
1,29,100,24
1,31,100,24
1,33,100,24
1,38,100,24
1,38,100,48
1,38,100,36
1,29,100,12
1,29,100,24
1,31,100,24
1,33,100,24
1,34,100,24
1,34,100,48
1,29,100,48
1,29,100,24
1,31,100,24
1,29,100,24
1,34,100,24
1,34,100,48
1,29,100,48
1,29,100,24
1,31,100,24
1,29,100,24
1,34,100,24
1,34,100,48
1,34,100,36
1,29,100,12
1,29,100,24
1,31,100,24
1,29,100,24
1,34,100,24
1,34,100,48
1,34,100,36
1,29,100,12
1,29,100,24
1,31,100,24
1,29,100,24
1,31,100,24
1,31,100,48
1,29,100,48
1,31,100,24
1,26,100,24
1,29,100,24
1,31,100,24
1,31,100,48
1,29,100,48
1,31,100,24
1,26,100,24
1,29,100,24
1,31,100,24
1,31,100,48
1,31,100,36
1,29,100,12
1,31,100,24
1,26,100,24
1,29,100,24
1,31,100,24
1,31,100,48
1,31,100,36
1,29,100,12
1,31,100,24
1,33,100,24
1,36,100,24
1,33,100,24
1,33,100,48
1,28,100,48
1,28,100,24
1,31,100,24
1,31,100,24
1,33,100,24
1,33,100,48
1,33,100,36
1,28,100,12
1,28,100,24
1,31,100,24
1,33,100,24
1,34,100,24
1,34,100,48
1,34,100,36
1,29,100,12
1,29,100,24
1,34,100,24
1,38,100,24
1,36,100,24
1,36,100,48
1,36,100,36
1,31,100,12
1,31,100,24
1,33,100,24
1,36,100,24
1,38,100,24
1,38,100,48
1,38,100,36
1,29,100,12
1,29,100,24
1,31,100,24
1,31,100,24
1,38,100,24
1,38,100,48
1,38,100,36
1,29,100,12
1,29,100,24
1,31,100,24
1,33,100,24
1,34,100,24
1,34,100,48
1,34,100,36
1,29,100,12
1,29,100,24
1,34,100,24
1,33,100,24
1,29,100,24
1,29,100,48
1,29,100,36
1,31,100,12
1,31,100,24
1,33,100,24
1,36,100,24
1,38,100,24
1,38,100,48
1,38,100,36
1,29,100,12
1,29,100,24
1,31,100,24
1,31,100,24
1,38,100,24
1,38,100,48
1,38,100,36
1,29,100,12
1,29,100,24
1,31,100,24
1,33,100,24
1,34,100,24
1,34,100,48
1,34,100,36
1,29,100,12
1,29,100,24
1,34,100,24
1,33,100,24
1,29,100,24
1,29,100,48
1,29,100,36
1,31,100,12
1,31,100,24
1,33,100,24
1,36,100,24
1,38,100,24
1,38,100,48
1,38,100,36
1,29,100,12
1,29,100,24
1,31,100,24
1,33,100,24
1,36,100,24
1,36,100,48
1,36,100,36
1,29,100,12
1,29,100,24
1,31,100,24
1,33,100,24
1,31,100,24
1,31,100,48
1,31,100,36
1,26,100,12
1,26,100,24
1,29,100,24
1,29,100,24
1,31,100,24
1,31,100,48
1,29,100,36
1,31,100,12
1,31,100,24
1,33,100,24
1,36,100,24
1,38,100,24
1,38,100,48
1,38,100,36
1,29,100,12
1,29,100,24
1,31,100,24
1,33,100,24
1,36,100,24
1,36,100,48
1,36,100,36
1,29,100,12
1,29,100,24
1,31,100,24
1,33,100,24
1,31,100,24
1,31,100,48
1,31,100,36
1,26,100,12
1,26,100,24
1,29,100,24
1,31,100,24
1,29,100,24
1,29,100,48
1,29,100,36
1,28,100,12
1,28,100,48
1,26,80,48
1,26,80,192
1,26,100,36
1,29,100,12
1,29,100,24
1,31,100,24
1,33,100,24
1,38,100,24
1,38,100,48
1,38,100,36
1,29,100,12
1,29,100,24
1,31,100,24
1,33,100,24
1,36,100,24
1,36,100,48
1,36,100,36
1,29,100,12
1,29,100,24
1,31,100,24
1,33,100,24
1,31,100,24
1,31,100,48
1,31,100,36
1,26,100,12
1,26,100,24
1,29,100,24
1,29,100,24
1,31,100,24
1,31,100,48
1,29,100,36
1,31,100,12
1,31,100,24
1,33,100,24
1,36,100,24
1,38,100,24
1,38,100,48
1,38,100,36
1,29,100,12
1,29,100,24
1,31,100,24
1,33,100,24
1,36,100,24
1,36,100,48
1,36,100,36
1,29,100,12
1,29,100,24
1,31,100,24
1,33,100,24
1,31,100,24
1,31,100,48
1,31,100,36
1,26,100,12
1,26,100,24
1,29,100,24
1,29,100,24
1,31,100,24
1,31,100,48
1,29,100,36
1,31,100,12
1,31,100,24
1,33,100,24
1,36,100,24
1,38,100,24
1,38,100,48
1,38,100,36
1,29,100,12
1,29,100,24
1,31,100,24
1,33,100,24
1,36,100,24
1,36,100,48
1,36,100,36
1,29,100,12
1,29,100,24
1,31,100,24
1,33,100,24
1,31,100,24
1,31,100,48
1,31,100,36
1,26,100,12
1,26,100,24
1,29,100,24
1,29,100,24
1,31,100,24
1,31,100,48
1,29,100,36
1,31,100,12
1,31,100,24
1,33,100,24
1,36,100,24
1,38,100,24
1,38,100,48
1,38,100,36
1,29,100,12
1,29,100,24
1,31,100,24
1,33,100,24
1,36,100,24
1,36,100,48
1,36,100,36
1,29,100,12
1,29,100,24
1,31,100,24
1,33,100,24
1,31,100,24
1,31,100,48
1,31,100,36
1,26,100,12
1,26,100,24
1,29,100,24
1,29,100,24
1,31,100,24
1,31,100,48
1,29,100,36
1,31,100,12
1,31,100,24
1,33,100,24
1,36,100,24
1,38,100,24
1,38,94,48
1,38,89,36
1,29,88,12
1,29,85,24
1,31,81,24
1,33,78,24
1,36,75,24
1,36,69,48
1,36,64,36
1,29,63,12
1,29,60,24
1,31,57,24
1,33,54,24
1,31,50,24
1,31,44,48
1,31,40,36
1,26,38,12
1,26,35,24
1,29,32,24
1,29,29,24
1,31,26,24
1,31,20,48
1,29,15,36
1,31,13,12
1,31,10,24
1,33,7,24
1,36,4,24
2,77,20,0
2,77,22,90
2,77,24,60
2,76,26,60
2,76,28,90
2,76,30,60
2,77,31,60
2,77,33,90
2,77,35,60
2,76,37,60
2,76,39,90
2,76,41,60
2,77,42,60
2,77,44,90
2,77,46,60
2,76,48,60
2,76,50,90
2,76,52,60
2,77,53,60
2,77,55,90
2,77,57,60
2,74,59,60
2,74,61,90
2,74,63,60
2,77,64,60
2,77,64,90
2,77,64,60
2,76,64,60
2,76,64,90
2,76,64,60
2,77,64,60
2,77,64,90
2,77,64,60
2,76,64,60
2,76,64,90
2,76,64,60
2,77,64,60
2,77,64,90
2,77,64,60
2,76,64,60
2,76,64,90
2,76,64,60
2,77,64,60
2,77,64,90
2,77,64,60
2,74,64,60
2,74,64,90
2,74,64,60
2,77,64,60
2,77,64,90
2,77,64,60
2,76,64,60
2,76,64,90
2,76,64,60
2,77,64,60
2,77,64,90
2,77,64,60
2,74,64,60
2,74,64,90
2,74,64,60
2,77,64,60
2,77,64,90
2,77,64,60
2,76,64,60
2,76,64,90
2,76,64,60
2,77,64,60
2,77,64,90
2,77,64,60
2,74,64,60
2,74,64,90
2,74,64,60
2,77,64,60
2,77,64,90
2,77,64,60
2,76,64,60
2,76,64,90
2,76,64,60
2,77,64,60
2,77,64,90
2,77,64,60
2,74,64,60
2,74,64,90
2,74,64,60
2,77,64,60
2,77,64,90
2,77,64,60
2,76,64,60
2,76,64,90
2,76,64,60
2,77,64,60
2,77,64,90
2,77,64,60
2,74,64,60
2,74,64,90
2,74,64,60
2,77,64,60
2,77,64,90
2,77,64,60
2,76,64,60
2,76,64,90
2,76,64,60
2,77,64,60
2,77,64,90
2,77,64,60
2,74,64,60
2,74,64,90
2,74,64,60
2,81,64,60
2,81,64,90
2,81,64,60
2,77,64,60
2,79,64,90
2,81,64,60
2,79,64,60
2,79,64,90
2,79,64,60
2,74,64,60
2,74,64,90
2,76,64,60
2,77,64,60
2,77,60,90
2,77,55,60
2,76,52,60
2,76,48,90
2,76,44,60
2,77,41,60
2,77,36,90
2,77,32,60
2,74,29,60
2,74,25,90
2,74,20,60
2,57,64,2220
2,60,64,0
2,62,64,0
2,53,64,0
2,64,64,90
2,53,64,0
2,60,64,0
2,57,64,0
2,60,64,60
2,57,64,0
2,53,64,0
2,64,64,0
2,62,64,180
2,65,64,0
2,57,64,0
2,60,64,300
2,53,64,0
2,57,64,0
2,62,64,0
2,57,64,90
2,53,64,0
2,64,64,0
2,60,64,0
2,64,64,60
2,53,64,0
2,60,64,0
2,57,64,0
2,65,64,180
2,57,64,0
2,62,64,0
2,60,64,300
2,57,64,0
2,62,64,0
2,53,64,0
2,53,64,90
2,60,64,0
2,57,64,0
2,64,64,0
2,60,64,60
2,53,64,0
2,64,64,0
2,57,64,0
2,57,64,180
2,65,64,0
2,62,64,0
2,57,64,300
2,60,64,0
2,62,64,0
2,53,64,0
2,60,64,90
2,64,64,0
2,57,64,0
2,53,64,0
2,57,64,60
2,60,64,0
2,53,64,0
2,64,64,0
2,57,64,180
2,65,64,0
2,62,64,0
2,53,64,300
2,57,64,0
2,62,64,0
2,60,64,0
2,57,64,90
2,64,64,0
2,60,64,0
2,53,64,0
2,57,64,60
2,53,64,0
2,60,64,0
2,64,64,0
2,57,64,180
2,65,64,0
2,62,64,0
2,53,64,300
2,57,64,0
2,60,64,0
2,62,64,0
2,53,64,90
2,64,64,0
2,60,64,0
2,57,64,0
2,57,64,60
2,53,64,0
2,60,64,0
2,64,64,0
2,65,64,180
2,62,64,0
2,57,64,0
2,53,64,300
2,62,64,0
2,57,64,0
2,60,64,0
2,53,64,90
2,64,64,0
2,57,64,0
2,60,64,0
2,57,64,60
2,64,64,0
2,60,64,0
2,53,64,0
2,62,64,180
2,65,64,0
2,57,64,0
2,53,64,300
2,57,64,0
2,60,64,0
2,62,64,0
2,60,64,90
2,53,64,0
2,64,64,0
2,57,64,0
2,60,64,60
2,53,64,0
2,64,64,0
2,57,64,0
2,57,64,180
2,62,64,0
2,65,64,0
2,57,64,300
2,53,64,0
2,60,64,0
2,62,64,0
2,64,64,90
2,60,64,0
2,57,64,0
2,53,64,0
2,64,64,60
2,60,64,0
2,57,64,0
2,53,64,0
2,57,64,180
2,65,64,0
2,62,64,0
2,60,64,300
2,57,64,0
2,53,64,0
2,62,64,0
2,60,64,90
2,53,64,0
2,64,64,0
2,57,64,0
2,64,64,60
2,57,64,0
2,53,64,0
2,60,64,0
2,57,64,180
2,62,64,0
2,65,64,0
2,57,64,15660
2,53,64,0
2,60,64,0
2,62,64,0
2,64,64,90
2,60,64,0
2,53,64,0
2,57,64,0
2,64,64,60
2,53,64,0
2,57,64,0
2,60,64,0
2,65,64,180
2,57,64,0
2,62,64,0
2,60,64,300
2,62,64,0
2,57,64,0
2,53,64,0
2,60,64,90
2,64,64,0
2,57,64,0
2,53,64,0
2,64,64,60
2,57,64,0
2,53,64,0
2,60,64,0
2,57,64,180
2,65,64,0
2,62,64,0
2,53,64,300
2,57,64,0
2,60,64,0
2,62,64,0
2,64,64,90
2,57,64,0
2,60,64,0
2,53,64,0
2,60,64,60
2,53,64,0
2,64,64,0
2,57,64,0
2,62,64,180
2,57,64,0
2,65,64,0
2,53,64,300
2,60,64,0
2,62,64,0
2,57,64,0
2,53,64,90
2,57,64,0
2,60,64,0
2,64,64,0
2,53,64,60
2,57,64,0
2,60,64,0
2,64,64,0
2,57,64,180
2,65,64,0
2,62,64,0
2,62,64,300
2,53,64,0
2,60,64,0
2,57,64,0
2,60,64,90
2,57,64,0
2,64,64,0
