track,note,velocity,time
0,37,70,111
0,37,52,322
0,37,61,329
0,37,50,317
0,68,92,48
0,77,97,0
0,75,49,0
0,77,57,0
0,72,52,0
0,77,102,44
0,68,92,0
0,65,92,0
0,75,92,0
0,65,97,40
0,75,102,0
0,63,82,0
0,72,102,0
0,63,97,48
0,72,102,0
0,63,97,0
0,68,108,0
0,72,114,0
0,63,102,0
0,32,116,0
0,44,95,0
0,56,95,0
0,82,116,0
0,36,122,0
0,42,122,0
0,49,127,1
0,82,95,0
0,82,78,0
0,42,91,0
0,64,116,0
0,56,102,23
0,70,84,0
0,75,84,0
0,63,116,0
0,39,122,0
0,37,127,0
0,42,100,0
0,58,96,48
0,27,116,0
0,72,86,0
0,77,84,0
0,36,122,0
0,82,86,0
0,64,122,0
0,42,95,0
0,60,98,19
0,70,83,0
0,75,84,0
0,82,110,0
0,42,118,0
0,82,95,43
0,63,101,64
0,72,74,0
0,77,84,0
0,82,67,0
0,42,90,0
0,60,101,119
0,27,110,0
0,70,84,0
0,75,84,0
0,37,127,0
0,39,116,0
0,42,100,0
0,63,99,65
0,72,83,0
0,77,83,0
0,42,91,0
0,56,92,9
0,32,100,0
0,70,82,0
0,75,70,0
0,36,127,0
0,82,122,0
0,42,122,0
0,82,82,6
0,68,102,56
0,77,97,0
0,82,67,0
0,42,95,0
0,64,116,53
0,68,108,28
0,77,97,0
0,63,116,0
0,39,122,0
0,37,127,0
0,42,100,0
0,65,97,2
0,63,102,0
0,75,97,0
0,27,110,0
0,82,90,0
0,64,122,0
0,36,127,0
0,42,93,0
0,65,102,48
0,75,102,0
0,82,122,0
0,42,122,0
0,82,90,0
0,72,92,1
0,63,82,0
0,82,82,0
0,42,93,0
0,56,87,27
0,72,97,0
0,63,97,0
0,27,110,0
0,37,127,0
0,39,127,0
0,42,102,0
0,54,127,15
0,63,102,16
0,75,82,0
0,42,93,0
0,58,92,4
0,70,108,0
0,34,116,0
0,46,95,0
0,58,95,0
0,82,116,0
0,36,122,0
0,42,122,0
0,82,95,0
0,65,87,48
0,65,100,0
0,72,100,0
0,82,78,0
0,42,91,0
0,64,116,0
0,60,102,23
0,65,100,0
0,70,70,0
0,63,116,0
0,39,122,0
0,37,127,0
0,42,100,0
0,65,97,21
0,29,116,0
0,65,97,0
0,72,97,0
0,36,122,0
0,82,86,0
0,64,122,0
0,42,95,0
0,61,102,28
0,65,96,0
0,70,96,0
0,82,110,0
0,42,118,0
0,82,95,43
0,56,92,24
0,65,96,0
0,72,96,0
0,82,67,0
0,42,90,0
0,65,92,14
0,29,110,0
0,65,100,0
0,70,82,0
0,37,127,0
0,39,116,0
0,42,100,0
0,53,102,11
0,65,100,0
0,72,90,0
0,42,91,0
0,58,102,4
0,34,100,0
0,65,100,0
0,70,100,0
0,36,127,0
0,82,122,0
0,42,122,0
0,82,82,42
0,65,92,56
0,72,108,0
0,82,67,0
0,42,95,0
0,64,116,53
0,65,92,28
0,72,114,0
0,63,116,0
0,39,122,0
0,37,127,0
0,42,100,0
0,65,87,2
0,70,108,0
0,29,110,0
0,82,90,0
0,64,122,0
0,36,127,0
0,42,93,0
0,65,87,31
0,70,102,0
0,82,122,0
0,42,122,0
0,82,90,0
0,65,92,9
0,68,108,0
0,82,82,0
0,42,93,0
0,68,114,29
0,61,87,0
0,29,110,0
0,37,127,0
0,39,127,0
0,42,102,0
0,54,127,15
0,61,102,23
0,65,102,0
0,32,110,0
0,42,93,0
0,70,108,10
0,61,92,0
0,34,116,0
0,65,95,0
0,70,95,0
0,63,100,0
0,46,100,0
0,82,116,0
0,36,122,0
0,42,122,0
0,82,95,0
0,63,92,48
0,68,96,0
0,72,96,0
0,82,78,0
0,42,91,0
0,64,116,0
0,58,87,15
0,65,97,0
0,70,97,0
0,63,116,0
0,39,122,0
0,37,127,0
0,42,100,0
0,63,97,19
0,29,116,0
0,68,100,0
0,72,100,0
0,36,122,0
0,82,86,0
0,64,122,0
0,42,95,0
0,60,97,13
0,82,110,0
0,42,118,0
0,82,95,43
0,63,87,64
0,65,105,0
0,70,100,0
0,82,67,0
0,42,90,0
0,72,92,26
0,61,82,0
0,29,110,0
0,68,90,0
0,72,110,0
0,46,108,0
0,37,127,0
0,39,116,0
0,42,100,0
0,77,92,2
0,65,97,0
0,63,92,0
0,72,110,0
0,77,100,0
0,42,91,0
0,75,108,11
0,63,108,0
0,27,100,0
0,70,100,0
0,75,95,0
0,63,100,0
0,51,100,0
0,36,127,0
0,82,122,0
0,42,122,0
0,82,82,42
0,72,108,0
0,65,102,0
0,82,67,0
0,42,95,0
0,64,116,53
0,65,92,28
0,72,114,0
0,63,116,0
0,39,122,0
0,37,127,0
0,42,100,0
0,63,97,2
0,70,107,0
0,34,110,0
0,82,90,0
0,64,122,0
0,36,127,0
0,42,93,0
0,63,108,36
0,70,105,0
0,82,122,0
0,42,122,0
0,82,90,0
0,68,102,3
0,61,114,0
0,82,82,0
0,42,93,0
0,68,108,42
0,61,108,0
0,39,110,0
0,37,127,0
0,39,127,0
0,42,102,0
0,54,127,15
0,65,108,48
0,61,108,0
0,42,93,0
0,60,97,1
0,68,114,0
0,32,116,0
0,68,101,0
0,75,101,0
0,44,100,0
0,56,104,0
0,82,116,0
0,36,122,0
0,42,122,0
0,82,95,0
0,70,97,48
0,77,97,0
0,82,78,0
0,42,91,0
0,64,116,0
0,56,97,2
0,68,100,0
0,75,100,0
0,63,116,0
0,39,122,0
0,37,127,0
0,42,100,0
0,58,105,13
0,27,116,0
0,36,122,0
0,82,86,0
0,64,122,0
0,42,95,0
0,60,102,16
0,82,110,0
0,42,118,0
0,82,95,0
0,63,105,48
0,82,67,0
0,42,90,0
0,68,102,48
0,27,110,0
0,37,127,0
0,39,116,0
0,42,100,0
0,68,100,48
0,42,91,0
0,64,114,16
0,63,92,0
0,68,108,0
0,59,108,0
0,28,113,0
0,75,102,0
0,40,106,0
0,63,100,0
0,36,127,0
0,82,122,0
0,42,122,0
0,82,82,0
0,82,67,0
0,42,95,0
0,64,116,0
0,63,116,0
0,39,122,0
0,37,127,0
0,42,100,0
0,61,107,2
0,63,107,0
0,68,107,0
0,58,107,0
0,27,110,0
0,73,98,0
0,63,102,0
0,39,100,0
0,82,90,0
0,64,122,0
0,36,127,0
0,42,93,0
0,82,122,0
0,42,122,0
0,82,90,0
0,82,82,0
0,42,93,0
0,63,97,48
0,27,110,0
0,37,127,0
0,39,127,0
0,42,102,0
0,54,127,15
0,42,93,0
0,56,97,6
0,32,116,0
0,72,97,0
0,56,102,0
0,44,102,0
0,82,116,0
0,36,122,0
0,42,122,0
0,68,114,2
0,63,97,0
0,60,108,8
0,82,95,0
0,82,78,0
0,42,91,0
0,64,116,0
0,63,116,0
0,39,122,0
0,37,127,0
0,42,100,0
0,68,87,48
0,63,92,0
0,27,116,0
0,36,122,0
0,82,86,0
0,64,122,0
0,42,95,0
0,82,110,48
0,42,118,0
0,82,95,43
0,82,67,64
0,42,90,0
0,63,87,111
0,56,102,4
0,32,110,4
0,37,127,0
0,39,116,0
0,42,100,0
0,68,101,65
0,42,91,0
0,28,113,0
0,71,126,0
0,40,102,0
0,52,102,0
0,56,102,0
0,36,127,0
0,82,122,0
0,42,122,0
0,63,119,2
0,64,114,1
0,56,114,0
0,82,82,0
0,82,67,0
0,42,95,0
0,64,116,0
0,63,116,0
0,39,122,0
0,37,127,0
0,42,100,0
0,27,110,1
0,70,122,0
0,56,106,0
0,82,90,0
0,64,122,0
0,36,127,0
0,42,93,0
0,39,106,18
0,63,119,1
0,56,119,2
0,61,114,1
0,51,106,4
0,92,63,0
0,82,122,0
0,42,122,0
0,64,122,4
0,64,116,14
0,92,62,0
0,42,102,0
0,64,122,8
0,54,127,7
0,56,114,44
0,60,114,0
0,32,118,0
0,56,95,0
0,60,82,0
0,44,111,0
0,82,116,0
0,36,122,0
0,42,122,0
0,82,95,0
0,63,122,48
0,82,78,0
0,42,91,0
0,64,116,0
0,72,116,23
0,63,116,0
0,39,122,0
0,37,127,0
0,42,100,0
0,32,118,32
0,72,118,0
0,36,122,0
0,82,86,0
0,64,122,0
0,42,95,0
0,82,110,0
0,42,118,0
0,82,95,0
0,56,97,5
0,82,67,0
0,42,90,0
0,58,87,18
0,37,127,0
0,39,116,0
0,42,100,0
0,60,92,17
0,68,114,0
0,42,91,0
0,56,97,21
0,63,97,0
0,30,118,0
0,63,78,0
0,54,90,0
0,42,113,0
0,36,127,0
0,82,122,0
0,42,122,0
0,82,82,42
0,75,118,56
0,82,67,0
0,42,95,0
0,64,116,53
0,73,116,0
0,63,116,0
0,39,122,0
0,37,127,0
0,42,100,0
0,68,108,48
0,63,97,0
0,30,117,0
0,72,116,0
0,68,82,0
0,82,90,0
0,64,122,0
0,36,127,0
0,42,93,0
0,82,122,0
0,42,122,0
0,82,90,0
0,56,97,1
0,68,118,0
0,82,82,0
0,42,93,0
0,60,102,6
0,60,91,0
0,37,127,0
0,39,127,0
0,42,102,0
0,54,127,12
0,70,116,0
0,42,93,0
0,63,97,20
0,56,102,0
0,53,97,0
0,29,115,0
0,56,95,0
0,63,95,0
0,41,111,0
0,82,116,0
0,36,122,0
0,42,122,0
0,82,95,0
0,75,116,48
0,82,78,0
0,42,91,0
0,64,116,0
0,73,114,23
0,63,116,0
0,39,122,0
0,37,127,0
0,42,100,0
0,56,92,48
0,53,87,0
0,61,102,0
0,29,115,0
0,72,118,0
0,61,91,0
0,36,122,0
0,82,86,0
0,64,122,0
0,42,95,0
0,82,110,18
0,42,118,0
0,82,95,14
0,53,82,7
0,68,116,0
0,82,67,0
0,42,90,0
0,56,97,4
0,60,102,0
0,60,95,0
0,37,127,0
0,39,116,0
0,42,100,0
0,42,91,27
0,52,97,0
0,63,102,0
0,56,92,0
0,28,116,0
0,63,86,0
0,56,95,0
0,40,113,0
0,36,127,0
0,82,122,0
0,42,122,0
0,82,82,42
0,75,116,56
0,82,67,0
0,42,95,0
0,64,116,53
0,73,116,0
0,63,116,0
0,39,122,0
0,37,127,0
0,42,100,0
0,61,92,48
0,52,87,0
0,56,87,0
0,28,116,0
0,72,116,0
0,61,90,0
0,82,90,0
0,64,122,0
0,36,127,0
0,42,93,0
0,82,122,0
0,42,122,0
0,82,90,0
0,52,97,47
0,68,116,0
0,82,82,0
0,42,93,0
0,56,87,3
0,60,102,0
0,60,95,0
0,37,127,0
0,39,127,0
0,42,102,0
0,54,127,3
0,42,93,0
0,56,97,0
0,51,92,0
0,60,92,0
0,27,117,0
0,56,90,0
0,60,78,0
0,39,113,0
0,82,116,0
0,36,122,0
0,42,122,0
0,82,95,0
0,63,122,48
0,82,78,0
0,42,91,0
0,64,116,0
0,72,116,7
0,63,116,0
0,39,122,0
0,37,127,0
0,42,100,0
0,56,78,48
0,51,92,0
0,27,117,0
0,72,127,0
0,36,122,0
0,82,86,0
0,64,122,0
0,42,95,0
0,68,88,48
0,82,110,0
0,42,118,0
0,82,95,0
0,51,92,18
0,82,67,0
0,42,90,0
0,56,92,6
0,27,102,0
0,37,127,0
0,39,116,0
0,42,100,0
0,60,108,4
0,72,116,0
0,42,91,0
0,58,102,0
0,53,108,0
0,50,114,0
0,26,122,0
0,70,90,0
0,53,93,0
0,58,93,0
0,38,117,0
0,36,127,0
0,82,122,0
0,42,122,0
0,82,82,42
0,77,121,56
0,82,67,0
0,42,95,0
0,64,116,53
0,72,116,28
0,63,116,0
0,39,122,0
0,37,127,0
0,42,100,0
0,50,108,48
0,26,122,0
0,70,116,0
0,82,90,0
0,64,122,0
0,36,127,0
0,42,93,0
0,82,122,0
0,42,122,0
0,82,90,0
0,50,108,17
0,82,82,0
0,42,93,0
0,53,102,9
0,37,127,0
0,39,127,0
0,42,102,0
0,54,127,2
0,58,92,5
0,42,93,0
0,49,114,0
0,68,87,0
0,71,102,0
0,64,92,0
0,25,116,0
0,83,122,0
0,71,97,0
0,59,100,0
0,37,113,0
0,36,122,0
0,82,116,0
0,42,122,0
0,82,95,0
0,82,78,0
0,42,91,0
0,64,116,0
0,37,127,0
0,39,122,0
0,63,116,0
0,42,100,0
0,68,92,1
0,49,108,0
0,70,97,0
0,25,110,0
0,82,123,0
0,70,97,0
0,59,90,0
0,36,122,0
0,64,122,0
0,82,86,0
0,42,95,0
0,82,110,5
0,42,118,0
0,82,95,2
0,61,102,12
0,80,116,0
0,82,67,0
0,42,90,0
0,68,97,1
0,75,118,0
0,75,97,0
0,68,86,0
0,59,87,0
0,37,127,0
0,39,116,0
0,42,100,0
0,56,127,27
0,75,116,0
0,42,91,0
0,51,111,13
0,64,116,0
0,56,108,4
0,61,102,0
0,63,108,0
0,30,113,0
0,56,127,0
0,75,92,0
0,61,89,0
0,42,117,0
0,36,127,0
0,51,120,0
0,64,100,0
0,82,72,0
0,42,107,0
0,82,52,32
0,56,126,10
0,82,63,0
0,64,116,0
0,82,49,0
0,56,127,8
0,37,127,0
0,39,122,0
0,64,110,0
0,82,68,0
0,42,100,0
0,82,40,0
0,56,122,6
0,36,127,0
0,82,63,0
0,64,116,0
0,82,52,0
0,56,127,14
0,64,110,0
0,82,65,0
0,42,105,0
0,82,42,0
0,56,126,24
0,82,71,0
0,64,116,0
0,82,52,0
0,56,117,11
0,54,127,0
0,64,116,0
0,82,70,0
0,42,102,0
0,82,42,0
0,56,122,6
0,82,54,0
0,56,114,7
0,60,114,0
0,32,118,0
0,56,124,0
0,75,88,0
0,60,82,0
0,56,95,0
0,44,111,0
0,82,116,0
0,36,122,0
0,42,122,0
0,82,95,0
0,63,122,8
0,82,78,0
0,42,91,0
0,64,116,0
0,72,116,8
0,63,116,0
0,39,122,0
0,37,127,0
0,42,100,0
0,32,118,8
0,72,118,0
0,36,122,0
0,82,86,0
0,64,122,0
0,42,95,0
0,82,110,0
0,42,118,0
0,82,95,0
0,56,97,5
0,82,67,0
0,42,90,0
0,58,87,18
0,37,127,0
0,39,116,0
0,42,100,0
0,60,92,8
0,68,114,0
0,42,91,0
0,56,97,21
0,63,97,0
0,30,118,0
0,80,87,0
0,63,78,0
0,54,90,0
0,42,113,0
0,36,127,0
0,82,122,0
0,42,122,0
0,82,82,42
0,75,118,56
0,82,67,0
0,42,95,0
0,64,116,53
0,73,116,0
0,63,116,0
0,39,122,0
0,37,127,0
0,42,100,0
0,68,108,48
0,63,97,0
0,30,117,0
0,72,116,0
0,68,82,0
0,82,90,0
0,64,122,0
0,36,127,0
0,42,93,0
0,82,122,0
0,42,122,0
0,82,90,0
0,56,97,1
0,68,118,0
0,82,82,0
0,42,93,0
0,60,102,6
0,60,91,0
0,37,127,0
0,39,127,0
0,42,102,0
0,54,127,12
0,75,92,0
0,42,93,0
0,63,97,20
0,56,102,0
0,53,97,0
0,29,115,0
0,75,92,0
0,56,95,0
0,63,95,0
0,41,111,0
0,82,116,0
0,36,122,0
0,42,122,0
0,82,95,0
0,75,116,48
0,82,78,0
0,42,91,0
0,64,116,0
0,73,116,23
0,63,116,0
0,39,122,0
0,37,127,0
0,42,100,0
0,56,92,48
0,53,87,0
0,61,102,0
0,29,115,0
0,72,121,0
0,61,91,0
0,36,122,0
0,82,86,0
0,64,122,0
0,42,95,0
0,82,110,48
0,42,118,0
0,82,95,9
0,53,82,40
0,68,116,0
0,82,67,0
0,42,90,0
0,56,97,4
0,60,102,0
0,29,115,0
0,70,118,0
0,60,95,0
0,37,127,0
0,39,116,0
0,42,100,0
0,29,115,24
0,73,116,0
0,42,91,0
0,52,97,0
0,63,102,0
0,56,92,0
0,28,116,0
0,68,92,0
0,63,86,0
0,56,95,0
0,40,113,0
0,36,127,0
0,82,122,0
0,42,122,0
0,82,82,6
0,82,67,0
0,42,95,0
0,64,116,0
0,73,122,28
0,63,116,0
0,39,122,0
0,37,127,0
0,42,100,0
0,61,92,48
0,52,87,0
0,56,87,0
0,28,116,0
0,73,116,0
0,61,90,0
0,82,90,0
0,64,122,0
0,36,127,0
0,42,93,0
