track,note,velocity,time
0,42,16,0
0,42,0,10
0,42,16,86
0,42,0,10
0,77,87,0
0,35,112,0
0,49,48,0
0,49,0,10
0,35,0,0
0,77,0,8
0,77,87,30
0,46,64,0
0,46,0,10
0,77,0,11
0,35,112,3
0,35,0,10
0,76,87,14
0,40,112,0
0,44,80,0
0,44,0,10
0,40,0,0
0,76,0,11
0,76,87,27
0,35,112,0
0,46,64,0
0,46,0,10
0,35,0,0
0,76,0,6
0,77,87,32
0,35,112,0
0,44,80,0
0,44,0,10
0,35,0,0
0,77,0,4
0,77,87,34
0,46,64,0
0,46,0,10
0,77,0,8
0,35,112,6
0,35,0,10
0,76,87,14
0,40,112,0
0,44,80,0
0,44,0,10
0,40,0,0
0,76,0,4
0,76,87,34
0,35,112,0
0,46,64,0
0,46,0,10
0,35,0,0
0,76,0,5
0,77,87,33
0,35,112,0
0,44,80,0
0,44,0,10
0,35,0,0
0,77,0,4
0,77,87,34
0,46,64,0
0,46,0,10
0,77,0,5
0,35,112,9
0,35,0,10
0,76,87,14
0,40,112,0
0,44,80,0
0,44,0,10
0,40,0,0
0,76,0,3
0,76,87,35
0,35,112,0
0,46,64,0
0,46,0,10
0,35,0,0
0,76,0,5
0,77,87,33
0,35,112,0
0,44,80,0
0,44,0,10
0,35,0,0
0,77,0,4
0,77,87,34
0,46,64,0
0,46,0,10
0,77,0,5
0,35,112,9
0,35,0,10
0,76,87,14
0,40,112,0
0,44,80,0
0,44,0,10
0,40,0,0
0,76,0,6
0,76,87,32
0,35,112,0
0,46,64,0
0,46,0,10
0,35,0,0
0,76,0,10
0,64,92,28
0,66,92,0
0,71,92,0
0,71,122,0
0,83,107,0
0,64,97,0
0,66,97,0
0,59,97,0
0,35,92,0
0,71,82,0
0,35,112,0
0,35,0,6
0,66,0,9
0,71,0,1
0,83,0,0
0,71,0,0
0,64,0,0
0,71,0,0
0,64,0,1
0,59,0,0
0,66,0,0
0,35,0,7
0,64,92,24
0,71,92,0
0,66,92,0
0,71,122,0
0,83,107,0
0,66,97,0
0,64,97,0
0,59,97,0
0,35,92,0
0,71,82,0
0,35,112,0
0,35,0,6
0,66,0,12
0,64,0,1
0,71,0,0
0,64,0,1
0,83,0,1
0,59,0,0
0,71,0,0
0,71,0,0
0,66,0,1
0,35,0,1
0,64,92,25
0,66,92,0
0,71,92,0
0,71,122,0
0,83,107,0
0,66,97,0
0,59,97,0
0,64,97,0
0,35,92,0
0,71,82,0
0,35,112,0
0,35,0,6
0,71,0,7
0,71,0,0
0,83,0,0
0,64,0,1
0,66,0,2
0,59,0,0
0,66,0,1
0,64,0,0
0,71,0,0
0,35,0,4
0,64,92,11
0,71,92,0
0,66,92,0
0,71,122,0
0,83,107,0
0,59,97,0
0,66,97,0
0,64,97,0
0,35,92,0
0,71,82,0
0,35,112,0
0,35,0,6
0,71,0,6
0,66,0,0
0,71,0,0
0,83,0,0
0,64,0,2
0,71,0,0
0,59,0,0
0,64,0,1
0,35,0,0
0,66,0,1
0,71,92,16
0,64,92,0
0,66,92,0
0,71,122,0
0,83,107,0
0,66,97,0
0,64,97,0
0,59,97,0
0,35,92,0
0,71,82,0
0,35,112,0
0,35,0,6
0,66,0,5
0,71,0,1
0,83,0,0
0,71,0,0
0,64,0,0
0,35,0,1
0,59,0,0
0,71,0,1
0,64,0,0
0,66,0,1
0,64,92,17
0,71,92,0
0,66,92,0
0,71,122,0
0,83,107,0
0,66,97,0
0,64,97,0
0,59,97,0
0,35,92,0
0,71,82,0
0,35,112,0
0,35,0,6
0,59,0,2
0,66,0,0
0,71,0,1
0,83,0,0
0,64,0,0
0,71,0,0
0,64,0,0
0,66,0,1
0,71,0,2
0,35,0,1
0,71,92,3
0,64,92,0
0,66,92,0
0,71,122,0
0,83,107,0
0,66,97,0
0,64,97,0
0,59,97,0
0,35,92,0
0,71,82,0
0,35,112,0
0,35,0,6
0,66,0,0
0,64,0,1
0,66,0,0
0,64,0,1
0,59,0,1
0,83,0,0
0,71,0,0
0,71,0,0
0,71,0,1
0,35,0,0
0,64,92,6
0,66,92,0
0,71,92,0
0,71,122,0
0,83,107,0
0,66,97,0
0,59,97,0
0,64,97,0
0,35,92,0
0,71,82,0
0,35,112,0
0,35,0,6
0,66,0,1
0,71,0,0
0,71,0,0
0,64,0,0
0,83,0,0
0,35,0,2
0,66,0,1
0,59,0,0
0,71,0,1
0,66,92,5
0,71,92,0
0,71,122,0
0,83,107,0
0,66,97,0
0,64,97,0
0,59,97,0
0,35,92,0
0,71,82,0
0,35,112,0
0,35,0,6
0,71,0,0
0,64,0,1
0,66,0,0
0,83,0,1
0,71,0,0
0,71,0,0
0,66,0,0
0,35,0,1
0,64,0,0
0,59,0,0
0,64,92,7
0,71,92,0
0,66,92,0
0,71,122,0
0,83,107,0
0,66,97,0
0,59,97,0
0,64,97,0
0,35,92,0
0,71,82,0
0,35,112,0
0,35,0,6
0,64,0,0
0,66,0,1
0,66,0,0
0,71,0,1
0,71,0,1
0,35,0,0
0,71,0,0
0,83,0,0
0,59,0,1
0,64,0,1
0,66,92,5
0,64,92,0
0,71,92,0
0,71,122,0
0,83,107,0
0,66,97,0
0,64,97,0
0,59,97,0
0,35,92,0
0,71,82,0
0,35,112,0
0,71,0,4
0,35,0,2
0,71,0,2
0,83,0,0
0,71,0,0
0,66,0,0
0,64,0,0
0,59,0,1
0,35,0,0
0,66,0,0
0,64,0,1
0,64,92,6
0,66,92,0
0,71,92,0
0,71,122,0
0,83,107,0
0,66,97,0
0,64,97,0
0,35,92,0
0,71,82,0
0,35,112,0
0,71,0,4
0,64,0,1
0,35,0,1
0,66,0,0
0,66,0,0
0,83,0,4
0,71,0,0
0,35,0,0
0,71,0,0
0,66,92,6
0,71,92,0
0,71,122,0
0,83,107,0
0,66,97,0
0,64,97,0
0,59,97,0
0,35,92,0
0,71,82,0
0,35,112,0
0,35,0,6
0,59,0,3
0,71,0,0
0,64,0,0
0,71,0,0
0,35,0,0
0,83,0,0
0,66,0,1
0,71,122,6
0,83,107,0
0,64,97,0
0,66,97,0
0,59,97,0
0,35,92,0
0,71,82,0
0,35,112,0
0,64,0,3
0,66,0,2
0,35,0,1
0,71,0,2
0,83,0,1
0,71,0,0
0,71,0,0
0,59,0,1
0,35,0,1
0,64,0,1
0,66,0,1
0,71,92,3
0,66,92,0
0,63,92,0
0,71,122,0
0,83,107,0
0,59,97,0
0,63,97,0
0,66,97,0
0,64,97,0
0,35,92,0
0,71,82,0
0,35,112,0
0,64,0,2
0,35,0,4
0,71,0,4
0,83,0,0
0,71,0,0
0,66,0,0
0,35,0,1
0,59,0,1
0,63,0,1
0,63,0,8
0,66,0,0
0,71,0,4
0,64,122,23
0,76,107,0
0,56,97,0
0,64,97,0
0,59,97,0
0,28,92,0
0,64,82,0
0,35,112,0
0,49,48,0
0,49,0,10
0,35,0,0
0,64,0,4
0,64,0,0
0,76,0,0
0,64,122,10
0,76,107,0
0,64,82,0
0,28,0,18
0,76,0,6
0,64,0,0
0,64,0,0
0,64,92,0
0,68,92,0
0,59,92,0
0,46,64,0
0,56,0,5
0,59,0,1
0,64,0,2
0,68,0,2
0,59,0,0
0,46,0,0
0,64,0,1
0,64,122,11
0,76,107,0
0,64,82,0
0,64,92,2
0,68,92,0
0,59,92,0
0,64,97,0
0,59,97,0
0,56,97,0
0,28,92,0
0,35,112,0
0,35,0,10
0,59,0,1
0,68,0,0
0,64,0,1
0,64,0,2
0,28,0,0
0,76,0,0
0,64,0,0
0,59,0,2
0,64,0,2
0,56,0,3
0,68,122,3
0,80,107,0
0,64,97,0
0,68,97,0
0,32,92,0
0,68,82,0
0,40,112,0
0,44,80,0
0,44,0,10
0,40,0,0
0,80,0,15
0,68,0,0
0,68,0,0
0,32,0,6
0,64,0,2
0,68,0,4
0,71,122,10
0,83,107,0
0,71,82,0
0,64,92,1
0,68,92,0
0,59,92,0
0,56,97,0
0,64,97,0
0,59,97,0
0,35,92,0
0,35,112,0
0,46,64,0
0,46,0,10
0,35,0,0
0,68,0,1
0,64,0,2
0,59,0,0
0,71,0,6
0,71,0,0
0,83,0,0
0,64,92,5
0,59,92,0
0,68,92,0
0,59,0,7
0,35,0,2
0,68,0,4
0,56,0,1
0,59,0,0
0,64,0,1
0,64,0,0
0,57,97,9
0,64,97,0
0,61,97,0
0,33,92,0
0,35,112,0
0,44,80,0
0,44,0,10
0,35,0,0
0,33,0,17
0,64,92,21
0,69,92,0
0,61,92,0
0,46,64,0
0,57,0,2
0,61,0,2
0,64,0,5
0,46,0,1
0,61,0,3
0,69,0,0
0,64,0,1
0,64,92,10
0,61,92,0
0,69,92,0
0,64,97,0
0,61,97,0
0,57,97,0
0,33,92,0
0,35,112,0
0,35,0,10
0,69,0,1
0,61,0,2
0,61,0,2
0,64,0,0
0,33,0,0
0,64,0,3
0,57,0,4
0,64,97,2
0,69,97,0
0,37,92,0
0,40,112,0
0,44,80,0
0,73,122,2
0,85,107,0
0,73,82,0
0,44,0,8
0,40,0,0
0,73,0,6
0,73,0,0
0,85,0,0
0,71,122,6
0,83,107,0
0,71,82,0
0,37,0,8
0,64,0,4
0,69,0,0
0,71,0,4
0,83,0,0
0,71,0,0
0,68,122,7
0,80,107,0
0,68,82,0
0,64,92,3
0,61,92,0
0,69,92,0
0,57,97,0
0,64,97,0
0,61,97,0
0,40,92,0
0,35,112,0
0,46,64,0
0,46,0,10
0,35,0,0
0,68,0,2
0,61,0,0
0,68,0,0
0,80,0,0
0,64,0,1
0,69,0,2
0,66,122,3
0,78,107,0
0,66,82,0
0,69,92,6
0,64,92,0
0,61,92,0
0,66,0,7
0,40,0,0
0,78,0,0
0,66,0,0
0,61,0,2
0,64,0,4
0,61,0,1
0,57,0,0
0,69,0,2
0,64,0,0
0,64,122,7
0,76,107,0
0,64,82,0
0,56,97,1
0,64,97,0
0,59,97,0
0,28,92,0
0,35,112,0
0,44,80,0
0,44,0,10
0,35,0,0
0,64,0,3
0,64,0,0
0,76,0,0
0,64,122,13
0,76,107,0
0,64,82,0
0,28,0,3
0,76,0,14
0,64,0,0
0,64,0,0
0,64,92,5
0,68,92,0
0,59,92,0
0,46,64,0
0,56,0,2
0,59,0,4
0,64,0,3
0,46,0,1
0,59,0,1
0,68,0,1
0,64,0,1
0,64,122,7
0,76,107,0
0,64,82,0
0,64,92,4
0,59,92,0
0,68,92,0
0,64,97,0
0,59,97,0
0,56,97,0
0,28,92,0
0,35,112,0
0,35,0,10
0,64,0,0
0,64,0,0
0,76,0,0
0,59,0,1
0,68,0,0
0,64,0,1
0,59,0,2
0,64,0,2
0,28,0,2
0,56,0,2
0,61,122,1
0,73,107,0
0,61,82,0
0,64,97,3
0,68,97,0
0,32,92,0
0,40,112,0
0,44,80,0
0,44,0,10
0,40,0,0
0,73,0,3
0,61,0,0
0,61,0,0
0,32,0,17
0,64,0,3
0,68,0,3
0,59,122,7
0,71,107,0
0,59,82,0
0,64,92,5
0,68,92,0
0,59,92,0
0,56,97,0
0,64,97,0
0,59,97,0
0,35,92,0
0,35,112,0
0,46,64,0
0,46,0,10
0,35,0,0
0,59,0,3
0,68,0,0
0,64,0,2
0,64,92,9
0,59,92,0
0,68,92,0
0,35,0,8
0,59,0,3
0,59,0,0
0,64,0,0
0,64,0,1
0,68,0,2
0,56,0,0
0,63,97,10
0,54,97,0
0,59,97,0
0,23,92,0
0,35,112,0
0,44,80,0
0,44,0,10
0,35,0,0
0,60,87,14
0,61,87,0
0,61,0,5
0,60,0,2
0,23,0,0
0,61,87,5
0,60,87,0
0,60,0,6
0,61,0,1
0,66,92,5
0,63,92,0
0,71,92,0
0,60,87,0
0,61,87,0
0,46,64,0
0,54,0,2
0,59,0,5
0,61,0,2
0,60,0,0
0,63,0,1
0,46,0,0
0,63,0,2
0,66,0,0
0,71,0,1
0,71,92,11
0,66,92,0
0,63,92,0
0,63,97,0
0,59,97,0
0,54,97,0
0,23,92,0
0,60,87,0
0,61,87,0
0,35,112,0
0,61,0,6
0,60,0,2
0,63,0,2
0,35,0,0
0,71,0,1
0,66,0,0
0,59,0,1
0,23,0,2
0,63,0,1
0,54,0,3
0,66,97,6
0,63,97,0
0,27,92,0
0,60,87,0
0,61,87,0
0,40,112,0
0,44,80,0
0,44,0,10
0,40,0,0
0,61,0,0
0,60,0,2
0,59,0,5
0,59,0,0
0,71,0,0
0,27,0,11
0,63,0,8
0,66,0,2
0,66,92,10
0,71,92,0
0,63,92,0
0,54,97,0
0,63,97,0
0,59,97,0
0,30,92,0
0,60,87,0
0,61,87,0
0,35,112,0
0,46,64,0
0,61,0,7
0,60,0,2
0,35,0,1
0,46,0,0
0,63,0,1
0,66,0,3
0,71,0,1
0,63,92,9
0,66,92,0
0,71,92,0
0,60,87,0
0,61,87,0
0,30,0,7
0,59,0,1
0,61,0,1
0,60,0,2
0,63,0,0
0,71,0,1
0,66,0,0
0,54,0,2
0,63,0,0
0,64,97,10
0,56,97,0
0,59,97,0
0,28,92,0
0,35,112,0
0,44,80,0
0,64,122,1
0,76,107,0
0,64,82,0
0,44,0,9
0,35,0,0
0,64,0,5
0,76,0,0
0,64,0,0
0,64,122,8
0,76,107,0
0,64,82,0
0,28,0,13
0,76,0,4
0,64,0,0
0,64,0,0
0,64,92,8
0,59,92,0
0,68,92,0
0,46,64,0
0,56,0,2
0,59,0,1
0,64,0,3
0,68,0,3
0,46,0,1
0,59,0,2
0,64,0,0
0,64,122,10
0,76,107,0
0,64,82,0
0,64,92,2
0,68,92,0
0,59,92,0
0,64,97,0
0,59,97,0
0,56,97,0
0,28,92,0
0,35,112,0
0,35,0,10
0,64,0,1
0,59,0,0
0,64,0,0
0,68,0,0
0,76,0,0
0,59,0,2
0,64,0,0
0,64,0,3
0,28,0,1
0,56,0,4
0,68,122,2
0,80,107,0
0,68,82,0
0,64,97,1
0,68,97,0
0,32,92,0
0,40,112,0
0,44,80,0
0,44,0,10
0,40,0,0
0,80,0,10
0,68,0,0
0,68,0,0
0,32,0,10
0,64,0,6
0,68,0,3
0,71,122,6
0,83,107,0
0,71,82,0
0,64,92,3
0,68,92,0
0,59,92,0
0,64,97,0
0,59,97,0
0,56,97,0
0,35,92,0
0,35,112,0
0,46,64,0
0,46,0,10
0,68,0,0
0,35,0,0
0,59,0,2
0,64,0,1
0,64,92,11
0,59,92,0
0,68,92,0
0,71,0,3
0,83,0,0
0,71,0,0
0,59,0,2
0,35,0,4
0,56,0,2
0,68,0,1
0,59,0,0
0,64,0,2
0,64,0,2
0,64,97,8
0,57,97,0
0,61,97,0
0,33,92,0
0,35,112,0
0,44,80,0
0,44,0,10
0,35,0,0
0,33,0,23
0,61,92,15
0,69,92,0
0,64,92,0
0,46,64,0
0,61,0,5
0,57,0,0
0,64,0,5
0,46,0,0
0,61,0,2
0,64,0,0
0,69,0,4
0,69,92,8
0,64,92,0
0,61,92,0
0,64,97,0
0,61,97,0
0,57,97,0
0,33,92,0
0,35,112,0
0,35,0,10
0,61,0,1
0,64,0,0
0,61,0,2
0,69,0,0
0,57,0,2
0,64,0,1
0,33,0,2
0,69,97,6
0,64,97,0
0,37,92,0
0,40,112,0
0,44,80,0
0,73,122,2
0,85,107,0
0,73,82,0
0,44,0,8
0,40,0,0
0,73,0,8
0,73,0,0
0,85,0,0
0,71,122,6
0,83,107,0
0,71,82,0
0,37,0,4
0,64,0,9
0,71,0,1
0,69,0,0
0,71,0,0
0,83,0,0
0,68,122,7
0,80,107,0
0,68,82,0
0,61,92,3
0,69,92,0
0,64,92,0
0,64,97,0
0,61,97,0
0,57,97,0
0,40,92,0
0,35,112,0
0,46,64,0
0,64,0,8
0,35,0,2
0,46,0,0
0,61,0,2
0,69,0,1
0,68,0,1
0,80,0,0
0,68,0,0
0,66,122,5
0,78,107,0
0,66,82,0
0,61,92,5
0,69,92,0
0,64,92,0
0,61,0,7
0,40,0,1
0,57,0,1
0,66,0,3
