track,note,velocity,time
1,65,71,13120
1,65,68,142
1,66,81,58
1,65,71,1192
1,65,68,130
1,66,74,54
1,66,71,156
1,65,67,36
1,65,71,878
1,65,68,142
1,66,81,58
1,65,71,1192
1,65,68,130
1,66,74,54
1,66,71,156
1,65,67,36
1,65,71,878
1,65,68,142
1,66,81,58
1,65,71,1192
1,65,68,130
1,66,74,54
1,66,71,156
1,65,67,36
1,65,71,878
1,65,68,142
1,66,81,58
1,65,71,1192
1,65,68,130
1,66,74,54
1,66,71,156
1,65,67,36
1,40,114,12206
1,40,83,62
1,40,105,32
1,40,95,60
1,40,80,124
1,40,59,26
1,40,46,50
1,40,36,80
1,40,119,11370
1,40,88,62
1,40,110,32
1,40,100,60
1,40,85,124
1,40,64,26
1,40,51,50
1,40,41,80
1,36,105,42
1,49,74,0
1,55,74,0
1,61,76,0
1,65,77,0
1,61,67,142
1,65,74,0
1,66,87,4
1,54,65,8
1,61,60,0
1,40,105,12
1,54,56,0
1,60,76,0
1,54,63,52
1,36,99,78
1,54,51,0
1,54,56,42
1,54,67,78
1,36,106,132
1,54,63,0
1,60,74,0
1,54,63,26
1,60,67,0
1,40,98,16
1,54,77,0
1,61,85,0
1,83,62,0
1,54,53,0
1,54,60,78
1,36,105,138
1,61,76,0
1,65,77,0
1,61,67,130
1,65,74,0
1,66,80,54
1,54,65,8
1,61,60,0
1,40,105,12
1,54,56,0
1,60,76,0
1,66,77,44
1,54,63,8
1,36,99,36
1,54,51,0
1,65,73,0
1,54,56,30
1,54,67,78
1,36,106,132
1,54,63,0
1,60,74,0
1,54,63,26
1,60,67,0
1,40,98,16
1,54,77,0
1,61,85,0
1,54,53,36
1,54,60,78
1,36,105,138
1,61,76,0
1,65,77,0
1,61,67,142
1,65,74,0
1,66,87,54
1,54,65,8
1,61,60,0
1,40,105,12
1,54,56,0
1,60,76,0
1,54,63,52
1,36,99,78
1,54,51,0
1,54,56,42
1,54,67,78
1,36,106,132
1,54,63,0
1,60,74,0
1,54,63,26
1,60,67,0
1,40,98,16
1,54,77,0
1,61,85,0
1,83,62,0
1,54,53,36
1,54,60,66
1,36,105,138
1,61,76,0
1,65,77,0
1,61,67,130
1,65,74,0
1,66,80,54
1,54,65,8
1,61,60,0
1,40,105,12
1,54,56,0
1,60,76,0
1,66,77,44
1,54,63,8
1,36,99,36
1,54,51,0
1,65,73,0
1,54,56,30
1,54,67,78
1,36,106,132
1,54,63,0
1,60,74,0
1,54,63,26
1,60,67,0
1,40,98,16
1,54,77,0
1,61,85,0
1,54,53,36
1,54,60,78
1,36,105,138
1,61,76,0
1,65,77,0
1,61,67,142
1,65,74,0
1,66,87,54
1,54,65,8
1,61,60,0
1,40,105,12
1,54,56,0
1,60,76,0
1,54,63,52
1,36,99,78
1,54,51,0
1,54,56,42
1,54,67,78
1,36,106,132
1,54,63,0
1,60,74,0
1,54,63,26
1,60,67,0
1,40,98,16
1,54,77,0
1,61,85,0
1,83,62,0
1,54,53,0
1,54,60,78
1,36,105,138
1,61,76,0
1,65,77,0
1,61,67,130
1,65,74,0
1,66,80,54
1,54,65,8
1,61,60,0
1,40,105,12
1,54,56,0
1,60,76,0
1,66,77,44
1,54,63,8
1,36,99,36
1,54,51,0
1,65,73,0
1,54,56,30
1,54,67,78
1,36,106,132
1,54,63,0
1,60,74,0
1,54,63,26
1,60,67,0
1,40,98,16
1,54,77,0
1,61,85,0
1,54,53,36
1,54,60,78
1,36,105,138
1,61,76,0
1,65,77,0
1,61,67,142
1,65,74,0
1,66,87,54
1,54,65,8
1,61,60,0
1,40,105,12
1,54,56,0
1,60,76,0
1,54,63,52
1,36,99,78
1,54,51,0
1,54,56,42
1,54,67,78
1,36,106,132
1,54,63,0
1,60,74,0
1,54,63,26
1,60,67,0
1,40,98,16
1,54,77,0
1,61,85,0
1,83,62,0
1,54,53,36
1,54,60,66
1,36,105,138
1,61,76,0
1,65,77,0
1,61,67,130
1,65,74,0
1,66,80,54
1,54,65,8
1,61,60,0
1,40,105,12
1,54,56,0
1,60,76,0
1,66,77,44
1,54,63,8
1,36,99,36
1,54,51,0
1,65,73,0
1,54,56,30
1,54,67,78
1,36,106,132
1,54,63,0
1,60,74,0
1,54,63,26
1,60,67,0
1,40,98,16
1,54,77,0
1,61,85,0
1,54,53,36
1,54,60,78
1,36,105,138
1,61,76,0
1,65,77,0
1,61,67,142
1,65,74,0
1,66,87,54
1,54,65,8
1,61,60,0
1,40,105,12
1,54,56,0
1,60,76,0
1,54,63,52
1,36,99,78
1,54,51,0
1,54,56,42
1,54,67,78
1,36,106,132
1,54,63,0
1,60,74,0
1,54,63,26
1,60,67,0
1,40,98,16
1,54,77,0
1,61,85,0
1,83,62,0
1,54,53,0
1,54,60,78
1,36,105,138
1,61,76,0
1,65,77,0
1,61,67,130
1,65,74,0
1,66,80,54
1,54,65,8
1,61,60,0
1,40,105,12
1,54,56,0
1,60,76,0
1,66,77,44
1,54,63,8
1,36,99,36
1,54,51,0
1,65,73,0
1,54,56,30
1,54,67,78
1,36,106,132
1,54,63,0
1,60,74,0
1,54,63,26
1,60,67,0
1,40,98,16
1,54,77,0
1,61,85,0
1,54,53,36
1,54,60,78
1,36,105,138
1,61,76,0
1,65,77,0
1,61,67,142
1,65,74,0
1,66,87,54
1,54,65,8
1,61,60,0
1,40,105,12
1,54,56,0
1,60,76,0
1,54,63,52
1,36,99,78
1,54,51,0
1,54,56,42
1,54,67,78
1,36,106,132
1,54,63,0
1,60,74,0
1,54,63,26
1,60,67,0
1,40,98,16
1,54,77,0
1,61,85,0
1,83,62,0
1,54,53,36
1,54,60,66
1,36,105,138
1,61,76,0
1,65,77,0
1,61,67,130
1,65,74,0
1,66,80,54
1,54,65,8
1,61,60,0
1,40,105,12
1,54,56,0
1,60,76,0
1,66,77,44
1,54,63,8
1,36,99,36
1,54,51,0
1,65,73,0
1,54,56,30
1,54,67,78
1,36,106,132
1,54,63,0
1,60,74,0
1,54,63,26
1,60,67,0
1,40,98,16
1,54,77,0
1,61,85,0
1,54,53,36
1,54,60,78
1,36,105,138
1,61,76,0
1,65,77,0
1,61,67,142
1,65,74,0
1,66,87,54
1,54,65,8
1,61,60,0
1,40,105,12
1,54,56,0
1,60,76,0
1,54,63,52
1,36,99,78
1,54,51,0
1,54,56,42
1,54,67,78
1,36,106,132
1,54,63,0
1,60,74,0
1,54,63,26
1,60,67,0
1,40,98,16
1,54,77,0
1,61,85,0
1,83,62,0
1,54,53,0
1,54,60,78
1,36,105,138
1,61,76,0
1,65,77,0
1,61,67,130
1,65,74,0
1,66,80,54
1,54,65,8
1,61,60,0
1,40,105,12
1,54,56,0
1,60,76,0
1,66,77,44
1,54,63,8
1,36,99,36
1,54,51,0
1,65,73,0
1,54,56,30
1,54,67,78
1,36,106,132
1,54,63,0
1,60,74,0
1,54,63,26
1,60,67,0
1,40,98,16
1,54,77,0
1,61,85,0
1,54,53,36
1,54,60,78
1,36,105,138
1,61,76,0
1,65,77,0
1,61,67,142
1,65,74,0
1,66,87,54
1,54,65,8
1,61,60,0
1,40,105,12
1,54,56,0
1,60,76,0
1,54,63,52
1,36,99,78
1,54,51,0
1,54,56,42
1,54,67,78
1,36,106,132
1,54,63,0
1,60,74,0
1,54,63,26
1,60,67,0
1,40,98,16
1,54,77,0
1,61,85,0
1,83,62,0
1,54,53,36
1,54,60,66
1,36,105,138
1,61,76,0
1,65,77,0
1,61,67,130
1,65,74,0
1,66,80,54
1,54,65,8
1,61,60,0
1,40,105,12
1,54,56,0
1,60,76,0
1,66,77,44
1,54,63,8
1,36,99,36
1,54,51,0
1,65,73,0
1,54,56,30
1,54,67,78
1,36,106,132
1,54,63,0
1,60,74,0
1,54,63,26
1,60,67,0
1,40,98,16
1,54,77,0
1,61,85,0
1,54,53,36
1,54,60,78
1,36,87,138
1,49,90,0
1,55,87,0
1,35,101,4150
1,35,68,50
1,35,79,42
1,36,101,94
1,36,75,48
1,36,85,44
1,38,92,120
1,38,71,50
1,38,73,42
1,40,67,116
1,40,73,48
1,40,83,42
1,40,94,94
1,36,101,50
1,46,92,0
1,40,95,4514
1,40,80,28
1,40,84,26
1,40,64,50
1,40,36,80
1,66,83,3226
1,66,83,168
1,65,84,30
1,65,74,72
1,39,92,336
1,39,92,142
1,40,78,0
1,39,90,28
1,40,72,0
1,39,83,58
1,40,75,0
1,39,73,22
1,40,81,0
1,40,95,58
1,40,95,332
1,40,90,32
1,40,86,60
1,40,114,28
1,40,83,62
1,40,105,54
1,40,95,60
1,40,80,124
1,40,59,26
1,40,46,50
1,40,36,80
1,36,100,42
1,49,69,0
1,55,69,0
1,61,71,0
1,65,72,0
1,61,62,142
1,65,69,0
1,66,82,4
1,54,60,8
1,61,55,0
1,40,100,12
1,54,51,0
1,60,71,0
1,54,58,52
1,36,94,78
1,54,46,0
1,54,51,42
1,54,62,78
1,36,101,132
1,54,58,0
1,60,69,0
1,54,58,26
1,60,62,0
1,40,93,16
1,54,72,0
1,61,80,0
1,83,57,0
1,54,48,0
1,54,55,78
1,36,100,138
1,61,71,0
1,65,72,0
1,61,62,130
1,65,69,0
1,66,75,54
1,54,60,8
1,61,55,0
1,40,100,12
1,54,51,0
1,60,71,0
1,66,72,44
1,54,58,8
1,36,94,36
1,54,46,0
1,65,68,0
1,54,51,30
1,54,62,78
1,36,101,132
1,54,58,0
1,60,69,0
1,54,58,26
1,60,62,0
1,40,93,16
1,54,72,0
1,61,80,0
1,54,48,36
1,54,55,78
1,36,100,138
1,61,71,0
1,65,72,0
1,61,62,142
1,65,69,0
1,66,82,54
1,54,60,8
1,61,55,0
1,40,100,12
1,54,51,0
1,60,71,0
1,54,58,52
1,36,94,78
1,54,46,0
1,54,51,42
1,54,62,78
1,36,101,132
1,54,58,0
1,60,69,0
1,54,58,26
1,60,62,0
1,40,93,16
1,54,72,0
1,61,80,0
1,83,57,0
1,54,48,36
1,54,55,66
1,36,100,138
1,61,71,0
1,65,72,0
1,61,62,130
1,65,69,0
1,66,75,54
1,54,60,8
1,61,55,0
1,40,100,12
1,54,51,0
1,60,71,0
1,66,72,44
1,54,58,8
1,36,94,36
1,54,46,0
1,65,68,0
1,54,51,30
1,54,62,78
1,36,101,132
1,54,58,0
1,60,69,0
1,54,58,26
1,60,62,0
1,40,93,16
1,54,72,0
1,61,80,0
1,54,48,36
1,54,55,78
1,36,100,138
1,61,71,0
1,65,72,0
1,61,62,142
1,65,69,0
1,66,82,54
1,54,60,8
1,61,55,0
1,40,100,12
1,54,51,0
1,60,71,0
1,54,58,52
1,36,94,78
1,54,46,0
1,54,51,42
1,54,62,78
1,36,101,132
1,54,58,0
1,60,69,0
1,54,58,26
1,60,62,0
1,40,93,16
1,54,72,0
1,61,80,0
1,83,57,0
1,54,48,0
1,54,55,78
1,36,100,138
1,61,71,0
1,65,72,0
1,61,62,130
1,65,69,0
1,66,75,54
1,54,60,8
1,61,55,0
1,40,100,12
1,54,51,0
1,60,71,0
1,66,72,44
1,54,58,8
1,36,94,36
1,54,46,0
1,65,68,0
1,54,51,30
1,54,62,78
1,36,101,132
1,54,58,0
1,60,69,0
1,54,58,26
1,60,62,0
1,40,93,16
1,54,72,0
1,61,80,0
1,54,48,36
1,54,55,78
1,36,100,138
1,61,71,0
1,65,72,0
1,61,62,142
1,65,69,0
1,66,82,54
1,54,60,8
1,61,55,0
1,40,100,12
1,54,51,0
1,60,71,0
1,54,58,52
1,36,94,78
1,54,46,0
1,54,51,42
1,54,62,78
1,36,101,132
1,54,58,0
1,60,69,0
1,54,58,26
1,60,62,0
1,40,93,16
1,54,72,0
1,61,80,0
1,83,57,0
1,54,48,36
1,54,55,66
1,36,100,138
1,61,71,0
1,65,72,0
1,61,62,130
1,65,69,0
1,66,75,54
1,54,60,8
1,61,55,0
1,40,100,12
1,54,51,0
1,60,71,0
1,66,72,44
1,54,58,8
1,36,94,36
1,54,46,0
1,65,68,0
1,54,51,30
1,54,62,78
1,36,101,132
1,54,58,0
1,60,69,0
1,54,58,26
1,60,62,0
1,40,93,16
1,54,72,0
1,61,80,0
1,54,48,36
1,54,55,78
1,36,100,138
1,49,69,0
1,55,69,0
1,61,71,0
1,65,72,0
1,61,62,142
1,65,69,0
1,66,82,4
1,54,60,8
1,61,55,0
1,40,100,12
1,54,51,0
1,60,71,0
1,54,58,52
1,36,94,78
1,54,46,0
1,54,51,42
1,54,62,78
1,36,101,132
1,54,58,0
1,60,69,0
1,54,58,26
1,60,62,0
1,40,93,16
1,54,72,0
1,61,80,0
1,83,57,0
1,54,48,0
1,54,55,78
1,36,100,138
1,61,71,0
1,65,72,0
1,61,62,130
1,65,69,0
1,66,75,54
1,54,60,8
1,61,55,0
1,40,100,12
1,54,51,0
1,60,71,0
1,66,72,44
1,54,58,8
1,36,94,36
1,54,46,0
1,65,68,0
1,54,51,30
1,54,62,78
1,36,101,132
1,54,58,0
1,60,69,0
1,54,58,26
1,60,62,0
1,40,93,16
1,54,72,0
1,61,80,0
1,54,48,36
1,54,55,78
1,36,100,138
1,61,71,0
1,65,72,0
1,61,62,142
1,65,69,0
1,66,82,54
1,54,60,8
1,61,55,0
1,40,100,12
1,54,51,0
1,60,71,0
1,54,58,52
1,36,94,78
1,54,46,0
1,54,51,42
1,54,62,78
1,36,101,132
1,54,58,0
1,60,69,0
1,54,58,26
1,60,62,0
1,40,93,16
1,54,72,0
1,61,80,0
1,83,57,0
1,54,48,36
1,54,55,66
1,36,100,138
1,61,71,0
1,65,72,0
1,61,62,130
1,65,69,0
1,66,75,54
1,54,60,8
1,61,55,0
1,40,100,12
1,54,51,0
1,60,71,0
1,66,72,44
1,54,58,8
1,36,94,36
1,54,46,0
1,65,68,0
1,54,51,30
1,54,62,78
1,36,101,132
1,54,58,0
1,60,69,0
1,54,58,26
1,60,62,0
1,40,93,16
1,54,72,0
1,61,80,0
1,54,48,36
1,54,55,78
1,36,100,138
1,61,71,0
1,65,72,0
1,61,62,142
1,65,69,0
1,66,82,54
1,54,60,8
1,61,55,0
1,40,100,12
1,54,51,0
1,60,71,0
1,54,58,52
1,36,94,78
1,54,46,0
1,54,51,42
1,54,62,78
1,36,101,132
1,54,58,0
1,60,69,0
1,54,58,26
1,60,62,0
1,40,93,16
1,54,72,0
1,61,80,0
1,83,57,0
1,54,48,0
1,54,55,78
1,36,100,138
1,61,71,0
1,65,72,0
1,61,62,130
1,65,69,0
1,66,75,54
1,54,60,8
1,61,55,0
1,40,100,12
1,54,51,0
1,60,71,0
1,66,72,44
1,54,58,8
1,36,94,36
1,54,46,0
1,65,68,0
1,54,51,30
1,54,62,78
1,36,101,132
1,54,58,0
1,60,69,0
1,54,58,26
1,60,62,0
1,40,93,16
1,54,72,0
1,61,80,0
1,54,48,36
1,54,55,78
1,36,100,138
1,61,71,0
1,65,72,0
1,61,62,142
1,65,69,0
1,66,82,54
1,54,60,8
1,61,55,0
1,40,100,12
1,54,51,0
1,60,71,0
1,54,58,52
1,36,94,78
1,54,46,0
1,54,51,42
1,54,62,78
1,36,101,132
1,54,58,0
1,60,69,0
1,54,58,26
1,60,62,0
1,40,93,16
1,54,72,0
1,61,80,0
1,83,57,0
1,54,48,36
1,54,55,66
1,36,100,138
1,61,71,0
1,65,72,0
1,61,62,130
1,65,69,0
1,66,75,54
1,54,60,8
1,61,55,0
1,40,100,12
1,54,51,0
1,60,71,0
1,66,72,44
1,54,58,8
1,36,94,36
1,54,46,0
1,65,68,0
1,54,51,30
1,54,62,78
1,36,101,132
1,54,58,0
1,60,69,0
1,54,58,26
1,60,62,0
1,40,93,16
1,54,72,0
1,61,80,0
1,54,48,36
1,54,55,78
1,36,100,138
1,61,71,0
1,65,72,0
1,61,62,142
1,65,69,0
1,66,82,54
1,54,60,8
1,61,55,0
1,40,100,12
1,54,51,0
1,60,71,0
1,54,58,52
1,36,94,78
1,54,46,0
1,54,51,42
1,54,62,78
1,36,101,132
1,54,58,0
