track,note,velocity,time
0,62,51,0
0,74,82,0
0,82,69,0
0,86,63,0
0,94,63,0
0,55,52,5
0,62,50,0
0,70,76,108
0,79,69,0
0,82,63,0
0,91,63,0
0,74,81,0
0,82,83,0
0,86,63,0
0,94,63,0
0,84,63,3
0,93,63,0
0,60,49,0
0,72,81,0
0,81,77,0
0,51,76,2
0,81,63,18
0,89,63,0
0,69,77,0
0,77,77,0
0,72,81,0
0,81,81,0
0,84,63,0
0,93,63,0
0,81,63,120
0,89,63,0
0,69,77,0
0,77,65,0
0,62,54,0
0,70,83,0
0,79,77,0
0,82,63,0
0,91,63,0
0,79,63,25
0,86,63,0
0,67,47,0
0,74,55,0
0,70,84,0
0,79,69,0
0,82,63,0
0,91,63,0
0,81,63,3
0,89,63,0
0,60,45,0
0,69,69,0
0,77,77,0
0,60,40,0
0,77,63,8
0,84,63,0
0,65,63,0
0,72,77,0
0,51,50,15
0,51,63,10
0,62,43,0
0,67,73,0
0,74,59,0
0,79,63,0
0,58,52,7
0,84,63,15
0,72,71,0
0,51,70,3
0,53,62,2
0,60,62,10
0,82,63,0
0,89,63,0
0,60,52,0
0,70,83,0
0,77,77,0
0,69,75,0
0,81,63,0
0,62,52,75
0,51,52,5
0,51,80,5
0,79,63,0
0,86,63,0
0,94,63,0
0,58,48,0
0,67,73,0
0,74,77,0
0,82,69,0
0,82,63,8
0,91,63,0
0,70,75,0
0,79,65,0
0,74,69,0
0,82,57,0
0,86,63,0
0,94,63,0
0,60,58,30
0,50,61,2
0,77,63,3
0,84,63,0
0,93,63,0
0,57,48,0
0,65,65,0
0,72,73,0
0,81,69,0
0,69,59,163
0,77,69,0
0,81,63,0
0,89,63,0
0,72,77,65
0,81,73,0
0,84,63,0
0,93,63,0
0,79,85,20
0,91,63,0
0,43,64,20
0,67,69,18
0,72,73,0
0,74,69,0
0,79,63,0
0,84,63,0
0,86,63,0
0,74,90,3
0,50,68,0
0,57,66,120
0,81,90,0
0,84,90,120
0,60,84,0
0,62,78,0
0,86,90,0
0,55,50,15
0,91,90,18
0,67,70,0
0,55,28,35
0,71,69,0
0,83,90,0
0,83,63,0
0,95,90,0
0,59,74,0
0,71,84,0
0,59,44,7
0,62,48,0
0,55,75,3
0,51,29,53
0,51,29,0
0,51,15,0
0,51,23,0
0,51,26,0
0,51,38,0
0,51,35,0
0,51,44,0
0,51,50,0
0,51,41,0
0,51,23,0
0,51,44,0
0,51,23,0
0,51,41,0
0,51,35,0
0,51,29,0
0,55,14,0
0,51,29,0
0,57,17,0
0,51,52,0
0,58,20,0
0,51,37,0
0,60,23,0
0,51,34,0
0,62,29,0
0,51,31,0
0,64,31,0
0,51,31,0
0,66,34,0
0,51,31,0
0,67,34,0
0,51,31,0
0,69,43,0
0,51,31,0
0,70,46,0
0,51,29,0
0,72,46,0
0,51,40,0
0,74,49,0
0,51,40,0
0,76,58,0
0,51,37,0
0,78,64,0
0,51,37,0
0,79,66,0
0,51,43,0
0,81,90,0
0,51,55,0
0,62,56,10
0,82,113,0
0,86,63,0
0,94,63,0
0,55,56,0
0,62,45,0
0,74,73,0
0,82,75,0
0,70,69,35
0,79,77,0
0,82,63,0
0,91,63,0
0,86,63,20
0,94,63,0
0,74,63,0
0,82,83,0
0,60,61,25
0,72,69,0
0,81,82,0
0,84,63,0
0,93,63,0
0,81,63,23
0,89,63,0
0,69,55,0
0,77,75,0
0,84,63,3
0,93,63,0
0,72,73,0
0,81,77,0
0,69,63,120
0,77,77,0
0,81,63,0
0,89,63,0
0,82,63,3
0,91,63,0
0,62,57,0
0,70,75,0
0,79,85,0
0,79,63,8
0,86,63,0
0,67,53,0
0,74,69,0
0,82,63,15
0,91,63,0
0,70,80,0
0,79,85,0
0,60,48,2
0,81,63,0
0,89,63,0
0,55,50,0
0,60,49,0
0,69,69,0
0,77,84,0
0,77,63,463
0,84,63,0
0,65,69,0
0,72,72,0
0,51,44,17
0,55,61,110
0,79,63,0
0,86,63,0
0,58,77,0
0,67,63,0
0,74,81,0
0,58,44,5
0,51,72,2
0,57,76,5
0,53,61,8
0,60,60,2
0,82,63,0
0,89,63,0
0,55,69,0
0,70,75,0
0,77,82,0
0,51,78,5
0,53,59,0
0,62,61,73
0,51,61,0
0,79,63,0
0,86,63,0
0,51,77,0
0,67,85,0
0,74,73,0
0,51,98,0
0,70,81,35
0,82,63,0
0,74,77,0
0,86,63,0
0,60,61,215
0,50,61,5
0,77,63,0
0,84,63,0
0,50,53,0
0,65,85,0
0,72,81,0
0,81,63,8
0,69,69,0
0,65,69,305
0,77,63,0
0,84,63,23
0,72,81,0
0,65,69,0
0,77,63,0
0,58,48,23
0,36,48,10
0,62,61,3
0,63,46,0
0,48,61,2
0,75,63,0
0,82,63,0
0,48,49,0
0,63,78,0
0,70,75,0
0,77,63,18
0,89,63,0
0,65,45,0
0,77,77,0
0,63,58,7
0,62,66,5
0,36,70,5
0,43,62,3
0,48,58,0
0,65,62,0
0,58,58,0
0,61,63,17
0,46,54,7
0,55,62,5
0,52,57,0
0,42,104,0
0,36,110,0
0,39,126,0
0,58,53,10
0,42,60,0
0,42,112,50
0,39,116,178
0,67,95,0
0,36,92,0
0,39,116,15
0,74,95,0
0,36,110,0
0,74,95,83
0,42,26,0
0,42,26,75
0,72,95,90
0,42,104,0
0,37,90,0
0,39,106,133
0,70,95,0
0,42,32,0
0,57,68,18
0,39,116,15
0,69,95,0
0,42,90,0
0,36,100,0
0,70,95,0
0,42,50,0
0,58,67,122
0,42,104,30
0,39,106,13
0,42,49,0
0,36,100,0
0,42,72,125
0,58,58,0
0,42,14,85
0,42,32,63
0,39,98,38
0,42,104,0
0,37,90,0
0,42,14,98
0,42,66,0
0,55,53,5
0,45,54,8
0,57,58,12
0,42,104,18
0,36,110,0
0,38,95,0
0,42,36,150
0,42,104,120
0,38,100,138
0,67,95,0
0,42,52,0
0,36,88,0
0,38,103,18
0,74,95,0
0,42,104,0
0,36,116,0
0,74,95,80
0,42,47,0
0,52,68,108
0,72,95,18
0,42,112,0
0,37,90,0
0,38,102,43
0,70,95,0
0,42,30,0
0,42,72,0
0,50,57,37
0,43,54,0
0,70,54,12
0,58,58,5
0,43,99,18
0,42,96,0
0,36,116,0
0,74,95,140
0,42,36,0
0,42,90,165
0,43,103,5
0,74,95,0
0,42,46,0
0,36,88,0
0,31,95,13
0,72,95,0
0,42,104,0
0,36,110,0
0,70,95,0
0,42,30,0
0,42,96,73
0,42,104,73
0,37,90,0
0,46,98,28
0,72,55,0
0,81,67,0
0,53,68,97
0,48,54,3
0,36,102,3
0,42,96,0
0,36,116,0
0,74,50,0
0,82,65,0
0,42,42,163
0,42,104,120
0,36,103,115
0,67,95,0
0,42,50,0
0,36,88,0
0,36,100,38
0,74,95,0
0,42,104,0
0,36,110,0
0,74,95,98
0,42,30,0
0,42,54,68
0,55,58,40
0,42,112,18
0,37,90,0
0,72,95,0
0,70,95,25
0,42,36,0
0,70,65,0
0,79,71,0
0,42,42,0
0,69,53,15
0,57,60,20
0,41,102,3
0,69,95,0
0,42,105,0
0,36,116,0
0,72,53,0
0,81,71,0
0,42,36,148
0,69,95,105
0,42,104,0
0,37,90,0
0,41,95,105
0,69,95,0
0,42,42,0
0,36,88,0
0,55,68,0
0,60,74,10
0,39,116,8
0,42,96,0
0,36,110,0
0,70,95,60
0,42,32,0
0,42,104,178
0,37,90,0
0,46,98,168
0,46,54,13
0,58,67,3
0,70,54,17
0,65,58,17
0,38,102,0
0,42,90,0
0,36,116,0
0,42,50,148
0,42,104,120
0,37,90,0
0,38,96,115
0,74,95,0
0,42,46,0
0,36,88,0
0,38,102,105
0,74,95,0
0,42,104,0
0,36,110,0
0,72,95,18
0,42,20,0
0,70,95,30
0,42,104,0
0,37,90,0
0,60,58,8
0,36,92,30
0,74,95,0
0,42,42,0
0,38,92,0
0,42,24,0
0,43,54,53
0,62,58,5
0,42,104,23
0,36,116,0
0,31,96,0
0,74,43,0
0,82,65,0
0,74,95,105
0,42,20,0
0,42,46,68
0,42,104,75
0,37,90,0
0,43,102,115
0,72,95,0
0,42,60,0
0,36,88,0
0,70,95,75
0,42,72,0
0,36,110,0
0,74,63,0
0,86,66,0
0,42,90,148
0,65,62,30
0,42,104,3
0,37,90,0
0,42,66,28
0,31,72,18
0,42,32,0
0,34,74,0
0,42,50,0
0,48,54,10
0,62,65,23
0,67,58,12
0,36,103,5
0,70,95,0
0,42,98,0
0,36,116,0
0,77,64,0
0,89,61,0
0,42,45,140
0,42,30,75
0,42,104,73
0,37,90,0
0,36,99,73
0,72,95,0
0,42,42,0
0,36,88,0
0,36,103,128
0,72,95,0
0,42,66,0
0,36,110,0
0,42,18,75
0,60,58,160
0,42,90,15
0,37,90,0
0,42,36,58
0,74,50,0
0,82,47,0
0,42,60,0
0,53,53,33
0,57,65,0
0,60,69,3
0,41,103,8
0,42,72,0
0,36,116,0
0,72,54,0
0,81,59,0
0,69,58,3
0,42,20,103
0,42,36,68
0,42,112,80
0,37,90,0
0,41,103,115
0,42,45,0
0,36,88,0
0,51,54,60
0,62,68,3
0,67,60,12
0,39,106,0
0,67,95,0
0,42,76,0
0,36,110,0
0,69,95,28
0,42,49,0
0,70,95,5
0,42,72,0
0,37,90,0
0,39,116,25
0,74,95,0
0,46,82,0
0,55,54,60
0,50,54,5
0,69,58,10
0,38,100,0
0,60,54,0
0,42,104,0
0,36,116,0
0,74,59,0
0,86,71,0
0,74,95,108
0,42,36,0
0,42,32,23
0,74,95,73
0,42,104,0
0,37,90,0
0,38,103,115
0,42,46,0
0,36,88,0
0,74,58,93
0,55,54,2
0,38,103,0
0,42,66,0
0,36,110,0
0,42,32,143
0,42,112,120
0,37,90,0
0,74,95,130
0,42,32,0
0,38,106,0
0,79,95,0
0,42,66,0
0,36,116,0
0,81,61,0
0,42,30,58
0,42,26,68
0,81,95,3
0,42,112,0
0,69,22,0
0,67,18,50
0,38,100,30
0,81,95,0
0,42,60,0
0,36,88,0
0,64,30,20
0,72,24,5
0,33,102,0
0,69,20,48
0,86,64,7
0,38,99,5
0,82,95,0
0,42,96,0
0,36,110,0
0,67,30,30
0,64,28,47
0,69,58,2
0,55,110,58
0,81,95,0
0,42,26,0
0,67,56,15
0,64,38,2
0,69,78,25
0,67,62,58
0,57,106,15
0,38,116,0
0,79,95,0
0,42,104,0
0,37,90,0
0,64,56,20
0,69,78,28
0,67,78,63
0,60,96,28
0,46,98,0
0,60,42,20
0,60,57,20
0,62,54,0
0,58,54,5
0,63,45,8
0,61,62,10
0,42,104,5
0,36,106,0
0,62,100,0
0,39,98,0
0,67,64,0
0,42,60,123
0,42,112,120
0,39,88,70
0,36,80,0
0,57,54,112
0,65,62,0
0,36,96,13
0,39,82,0
0,77,95,0
0,77,95,163
0,42,26,0
0,42,26,75
0,42,104,55
0,37,85,0
0,38,46,80
0,74,95,0
0,42,32,0
0,67,64,8
0,55,68,5
0,57,78,0
0,60,88,0
0,62,84,0
0,38,96,0
0,42,90,0
0,36,96,0
0,53,54,0
0,60,54,0
0,42,50,163
0,42,104,185
0,65,62,72
0,65,84,13
0,38,102,0
0,42,49,0
0,36,96,0
0,42,72,50
0,42,14,0
0,42,32,63
0,62,62,15
0,79,95,0
0,42,104,0
0,37,85,0
0,60,88,38
0,81,95,0
0,42,14,0
0,42,66,0
0,62,54,0
0,55,54,17
0,42,104,13
0,36,96,0
0,55,84,0
0,58,106,0
0,62,78,0
0,43,88,0
0,82,95,0
0,81,95,150
0,42,36,0
0,79,95,0
0,42,104,0
0,43,100,73
0,79,95,0
0,42,52,0
0,36,96,0
0,70,64,140
0,42,104,18
0,42,47,150
0,50,66,0
0,42,112,0
0,37,85,0
0,81,95,35
0,42,30,0
0,42,72,0
0,55,80,15
0,58,90,0
0,62,88,0
0,41,100,0
0,82,95,0
0,42,96,0
0,36,84,0
0,81,95,140
0,42,36,0
0,79,95,15
0,42,90,0
0,41,99,83
0,79,95,0
0,42,46,0
0,36,92,0
0,74,64,115
0,86,90,5
0,42,104,0
0,74,78,0
0,74,95,0
0,42,30,0
0,42,96,73
0,65,64,0
0,58,98,13
0,77,95,0
0,77,90,0
0,42,104,0
0,37,85,0
0,65,96,0
0,42,112,155
0,67,64,30
0,58,54,5
0,62,53,5
0,39,66,3
0,55,70,0
0,58,66,0
0,62,84,0
0,39,70,0
0,79,90,0
0,74,95,0
0,42,96,0
0,36,110,0
0,67,88,0
0,42,42,163
0,42,104,175
0,57,54,93
0,42,50,35
0,36,80,0
0,39,88,0
0,58,54,7
0,65,62,98
0,39,82,5
0,77,95,0
0,42,104,0
0,36,110,0
0,77,95,115
0,42,30,0
0,42,54,68
0,42,112,83
0,37,85,0
0,74,95,30
0,42,36,0
0,42,42,0
0,53,54,15
0,58,54,32
0,60,54,10
0,67,64,3
0,42,105,5
0,36,110,0
0,38,68,0
0,55,78,0
0,57,70,0
0,60,88,0
0,62,80,0
0,67,92,0
0,38,82,0
0,42,36,148
0,42,104,165
0,65,64,3
0,38,96,15
0,42,42,0
0,36,96,0
0,69,92,75
0,42,96,0
0,74,95,75
0,42,32,0
0,62,64,132
0,79,95,0
0,42,104,0
0,37,85,0
0,81,95,38
0,42,60,0
0,62,54,13
0,55,54,10
0,70,64,3
0,43,80,3
0,57,78,0
0,58,78,0
0,62,80,0
0,43,92,0
0,82,95,0
0,42,90,0
0,36,92,0
0,81,95,173
0,42,50,0
0,79,95,15
0,42,104,0
0,43,92,108
0,79,95,0
0,42,46,0
0,36,88,0
0,70,98,50
0,42,104,0
0,67,64,148
0,79,90,0
0,42,20,0
0,67,84,0
0,42,104,173
0,37,85,0
0,70,56,2
0,82,90,0
0,81,95,0
0,42,42,0
0,70,90,0
0,42,24,0
0,55,54,53
0,58,54,5
0,62,54,0
0,74,64,0
0,41,74,2
0,55,59,0
0,62,78,0
0,58,67,0
0,41,102,3
0,82,95,0
0,86,90,0
0,42,104,0
0,36,100,0
0,74,92,0
0,81,95,105
0,42,20,0
0,42,46,68
0,79,95,75
0,42,104,0
0,41,102,113
0,79,95,0
0,42,60,0
0,36,92,0
0,70,56,112
0,67,64,3
0,79,90,5
0,42,72,0
0,67,78,0
0,74,95,8
0,42,90,0
0,69,64,2
0,77,95,5
0,81,90,0
0,42,104,0
0,37,85,0
0,69,84,0
0,42,66,58
0,42,32,13
0,42,50,0
0,62,54,48
0,55,54,5
0,58,54,5
0,67,50,3
0,70,64,5
0,39,52,3
0,55,62,0
0,58,48,0
0,60,68,0
0,62,56,0
0,39,99,0
0,82,90,0
0,74,95,0
0,42,98,0
0,36,92,0
0,70,90,0
0,42,45,140
0,42,30,75
0,77,95,40
0,42,104,0
0,57,54,5
0,60,54,7
0,69,60,20
0,42,42,8
0,69,80,0
0,74,95,0
0,81,90,0
0,38,70,0
0,38,100,0
0,42,66,0
0,72,95,75
0,42,18,0
0,72,95,190
0,42,90,0
0,37,85,0
0,45,30,0
0,42,36,0
0,42,60,63
0,50,28,58
0,42,72,0
0,62,58,5
0,42,20,10
0,42,36,0
0,42,112,80
0,74,95,130
0,42,45,0
0,62,110,120
0,74,95,0
0,77,90,0
0,42,76,0
0,65,78,0
0,65,52,2
0,72,95,170
0,42,49,0
0,67,96,28
0,70,95,0
0,42,72,0
0,69,95,13
0,46,82,0
0,55,54,27
0,48,57,13
0,65,58,0
0,48,78,15
0,62,84,0
0,65,84,0
0,36,99,0
0,67,95,0
0,77,90,0
0,42,104,0
0,36,80,0
0,65,78,0
0,42,36,108
0,42,32,70
0,42,104,73
0,37,85,0
0,42,46,123
0,63,59,42
0,60,92,0
0,63,90,0
0,75,52,0
0,42,66,0
0,63,42,0
0,42,32,143
0,42,112,173
0,37,85,0
0,42,32,130
0,62,60,5
0,58,84,8
0,62,84,0
0,74,90,0
0,42,66,0
0,62,68,0
0,42,30,105
0,42,26,0
0,42,112,80
0,37,85,0
0,42,60,133
0,62,95,43
