track,note,velocity,time
1,65,80,37056
1,65,80,40
1,65,80,40
1,65,80,40
1,63,80,58
1,60,80,0
1,67,80,232
1,65,80,40
1,63,80,40
1,63,80,40
1,65,80,0
1,67,80,40
1,67,80,78
1,67,80,40
1,65,80,40
1,65,80,40
1,68,80,40
1,68,80,40
1,67,80,40
1,67,80,40
1,65,80,40
1,67,80,40
1,65,80,40
1,63,80,40
1,65,80,40
1,60,80,0
1,60,80,40
1,65,80,270
1,65,80,40
1,65,80,40
1,65,80,40
1,63,80,58
1,60,80,0
1,67,80,232
1,65,80,40
1,63,80,40
1,63,80,40
1,65,80,0
1,67,80,40
1,67,80,78
1,67,80,40
1,65,80,40
1,65,80,40
1,68,80,40
1,68,80,40
1,67,80,40
1,67,80,40
1,67,80,40
1,67,80,40
1,65,80,40
1,63,80,40
1,65,80,40
1,60,80,0
1,60,80,40
1,60,80,462
1,63,80,78
1,60,80,270
1,63,80,40
1,60,80,78
1,63,80,40
1,72,80,0
1,72,80,78
1,70,80,0
1,68,80,346
1,67,80,40
1,68,80,40
1,70,80,40
1,68,80,40
1,67,80,40
1,65,80,40
1,68,80,40
1,67,80,40
1,65,80,40
1,67,80,40
1,60,80,616
1,63,80,40
1,60,80,78
1,63,80,40
1,60,80,308
1,63,80,40
1,72,80,78
1,67,80,40
1,68,80,384
1,67,80,40
1,68,80,40
1,70,80,40
1,68,80,40
1,67,80,40
1,65,80,40
1,68,80,40
1,67,80,40
1,65,80,40
1,67,80,40
1,70,80,232
1,70,80,40
1,70,80,40
1,70,80,40
1,70,80,78
1,70,80,78
1,72,80,78
1,65,80,0
1,65,80,40
1,65,80,346
1,65,80,40
1,63,80,40
1,65,80,40
1,60,80,40
1,60,80,40
1,60,80,40
1,68,80,40
1,67,80,78
1,65,80,0
1,63,80,40
1,65,80,0
1,67,80,40
1,67,80,40
1,70,80,78
1,70,80,40
1,70,80,40
1,70,80,40
1,70,80,40
1,70,80,40
1,70,80,40
1,70,80,40
1,72,80,78
1,65,80,78
1,65,80,346
1,65,80,40
1,63,80,40
1,65,80,40
1,60,80,40
1,60,80,40
1,60,80,40
1,68,80,40
1,67,80,78
1,65,80,40
1,63,80,40
1,65,80,40
1,67,80,40
1,68,80,40
1,67,80,0
1,65,80,40
1,65,80,40
1,65,80,40
1,65,80,40
1,63,80,58
1,60,80,0
1,67,80,232
1,65,80,40
1,63,80,40
1,63,80,40
1,65,80,0
1,67,80,40
1,67,80,78
1,67,80,40
1,65,80,40
1,65,80,40
1,68,80,40
1,68,80,40
1,67,80,40
1,67,80,40
1,65,80,40
1,67,80,40
1,65,80,40
1,63,80,40
1,65,80,40
1,60,80,0
1,60,80,40
1,65,80,270
1,65,80,40
1,65,80,40
1,65,80,40
1,63,80,58
1,60,80,0
1,67,80,232
1,65,80,40
1,63,80,40
1,63,80,40
1,65,80,0
1,67,80,40
1,67,80,78
1,67,80,40
1,65,80,40
1,65,80,40
1,68,80,40
1,68,80,40
1,67,80,40
1,67,80,40
1,67,80,40
1,67,80,40
1,65,80,40
1,63,80,40
1,65,80,40
1,60,80,0
1,60,80,40
1,60,80,462
1,63,80,78
1,60,80,270
1,63,80,40
1,60,80,270
1,63,80,40
1,72,80,40
1,72,80,78
1,70,80,0
1,68,80,346
1,67,80,40
1,68,80,40
1,70,80,40
1,68,80,40
1,67,80,40
1,65,80,40
1,68,80,40
1,67,80,0
1,65,80,40
1,67,80,40
1,60,80,616
1,63,80,40
1,60,80,78
1,63,80,40
1,60,80,308
1,63,80,40
1,72,80,78
1,67,80,40
1,68,80,384
1,67,80,40
1,68,80,40
1,70,80,40
1,68,80,40
1,67,80,40
1,65,80,40
1,68,80,40
1,67,80,40
1,65,80,40
1,67,80,40
1,70,80,232
1,70,80,40
1,70,80,40
1,70,80,40
1,70,80,78
1,70,80,78
1,72,80,78
1,65,80,40
1,65,80,384
1,65,80,40
1,63,80,40
1,65,80,40
1,60,80,78
1,58,80,40
1,68,80,40
1,67,80,78
1,65,80,78
1,63,80,0
1,70,80,270
1,70,80,40
1,70,80,40
1,70,80,40
1,70,80,40
1,70,80,40
1,70,80,40
1,70,80,40
1,72,80,78
1,65,80,78
1,65,80,346
1,65,80,40
1,63,80,40
1,65,80,40
1,60,80,40
1,60,80,40
1,60,80,40
1,68,80,40
1,67,80,78
1,65,80,0
1,63,80,40
1,65,80,0
1,67,80,40
1,68,80,40
1,67,80,0
1,65,80,40
1,65,80,40
1,65,80,40
1,65,80,40
1,63,80,58
1,60,80,0
1,67,80,232
1,65,80,40
1,63,80,40
1,63,80,40
1,65,80,0
1,67,80,40
1,67,80,78
1,67,80,40
1,65,80,40
1,65,80,40
1,68,80,40
1,68,80,40
1,67,80,40
1,67,80,40
1,65,80,40
1,67,80,40
1,65,80,40
1,63,80,40
1,65,80,40
1,60,80,0
1,60,80,40
1,65,80,270
1,65,80,40
1,65,80,40
1,65,80,40
1,63,80,58
1,60,80,0
1,67,80,232
1,65,80,40
1,63,80,40
1,63,80,40
1,65,80,0
1,67,80,40
1,67,80,78
1,67,80,40
1,65,80,40
1,65,80,40
1,68,80,40
1,68,80,40
1,67,80,40
1,67,80,40
1,67,80,40
1,67,80,40
1,65,80,40
1,63,80,40
1,65,80,40
1,60,80,0
1,60,80,40
1,67,80,462
1,67,80,40
1,65,80,40
1,63,80,40
1,63,80,40
1,65,80,0
1,67,80,40
1,67,80,692
1,67,80,40
1,65,80,40
1,63,80,40
1,65,80,40
1,60,80,0
1,60,80,40
1,67,80,692
1,67,80,40
1,65,80,40
1,63,80,40
1,63,80,40
1,65,80,0
1,67,80,40
1,67,80,692
1,67,80,40
1,65,80,40
1,63,80,40
1,65,80,40
1,60,80,0
1,60,80,40
1,67,80,654
1,65,80,40
1,63,80,78
1,65,80,40
1,62,80,116
1,62,80,40
1,58,80,40
1,65,80,40
1,65,80,78
1,67,80,692
1,65,80,40
1,65,80,40
1,63,80,0
1,63,80,78
1,62,80,78
1,63,80,78
1,60,80,40
1,67,80,308
1,65,80,40
1,67,80,78
1,58,80,40
1,67,80,308
1,65,80,40
1,67,80,78
1,65,80,40
1,58,80,462
1,68,80,40
1,67,80,78
1,65,80,0
1,63,80,40
1,65,80,0
1,67,80,40
1,68,80,40
1,67,80,0
1,70,80,12174
1,70,80,40
1,70,80,40
1,70,80,40
1,70,80,78
1,70,80,78
1,72,80,78
1,65,80,40
1,65,80,654
1,65,80,40
1,63,80,40
1,65,80,40
1,60,80,78
1,58,80,40
1,68,80,40
1,67,80,78
1,65,80,78
1,63,80,0
1,70,80,270
1,70,80,40
1,70,80,40
1,70,80,40
1,70,80,40
1,70,80,40
1,70,80,40
1,70,80,40
1,72,80,78
1,65,80,78
1,65,80,346
1,65,80,40
1,63,80,40
1,65,80,40
1,60,80,40
1,60,80,40
1,60,80,40
1,68,80,40
1,67,80,78
1,65,80,0
1,63,80,40
1,65,80,0
1,67,80,40
1,68,80,40
1,67,80,576
1,65,80,40
1,63,80,78
1,65,80,40
1,62,80,116
1,62,80,40
1,58,80,40
1,65,80,40
1,65,80,78
1,67,80,692
1,65,80,40
1,65,80,40
1,63,80,0
1,63,80,78
1,62,80,78
1,63,80,78
1,60,80,40
1,67,80,308
1,65,80,40
1,67,80,78
1,58,80,40
1,67,80,308
1,65,80,40
1,67,80,78
1,65,80,40
1,58,80,462
1,68,80,40
1,67,80,78
1,65,80,0
1,63,80,40
1,65,80,0
1,67,80,40
1,68,80,40
1,68,80,0
1,67,80,0
1,65,80,40
1,65,80,40
1,65,80,40
1,65,80,40
1,63,80,58
1,60,80,0
1,67,80,232
1,65,80,40
1,63,80,40
1,63,80,40
1,65,80,0
1,67,80,40
1,67,80,78
1,67,80,40
1,65,80,40
1,65,80,40
1,68,80,40
1,68,80,40
1,67,80,40
1,67,80,40
1,65,80,40
1,67,80,40
1,65,80,40
1,63,80,40
1,65,80,40
1,60,80,0
1,60,80,40
1,65,80,270
1,65,80,40
1,65,80,40
1,65,80,40
1,63,80,58
1,60,80,0
1,67,80,232
1,65,80,40
1,63,80,40
1,63,80,40
1,65,80,0
1,67,80,40
1,67,80,78
1,67,80,40
1,65,80,40
1,65,80,40
1,68,80,40
1,68,80,40
1,67,80,40
1,67,80,40
1,67,80,40
1,67,80,40
1,65,80,40
1,63,80,40
1,65,80,40
1,60,80,0
1,60,80,40
1,67,80,462
1,67,80,40
1,65,80,40
1,63,80,40
1,63,80,40
1,65,80,0
1,67,80,40
1,67,80,692
1,67,80,40
1,65,80,40
1,63,80,40
1,65,80,40
1,60,80,0
1,60,80,40
1,67,80,462
1,67,80,40
1,65,80,40
1,63,80,40
1,63,80,40
1,65,80,0
1,67,80,40
1,67,80,692
1,67,80,40
1,65,80,40
1,63,80,40
1,65,80,40
1,60,80,0
1,60,80,40
1,67,80,692
1,67,80,40
1,65,80,40
1,63,80,40
1,63,80,40
1,65,80,0
1,67,80,40
2,36,80,12288
2,34,80,78
2,32,80,78
2,32,80,58
2,31,80,0
2,32,80,20
2,34,80,20
2,36,80,20
2,36,80,40
2,34,80,136
2,32,80,58
2,32,80,58
2,31,80,0
2,34,80,20
2,36,80,40
2,34,80,78
2,32,80,78
2,32,80,58
2,31,80,0
2,32,80,20
2,34,80,20
2,36,80,20
2,36,80,40
2,34,80,136
2,34,80,40
2,29,80,20
2,41,80,20
2,30,80,20
2,31,80,40
2,43,80,20
2,34,80,20
2,39,80,20
2,36,80,20
2,34,80,78
2,32,80,78
2,32,80,58
2,31,80,0
2,32,80,20
2,34,80,20
2,36,80,20
2,36,80,40
2,34,80,136
2,32,80,58
2,32,80,58
2,31,80,0
2,34,80,20
2,36,80,40
2,34,80,78
2,32,80,78
2,32,80,58
2,31,80,0
2,32,80,20
2,34,80,20
2,36,80,20
2,36,80,40
2,34,80,136
2,34,80,40
2,29,80,20
2,41,80,20
2,30,80,20
2,31,80,40
2,43,80,20
2,34,80,20
2,39,80,20
2,36,80,20
2,34,80,78
2,32,80,78
2,32,80,58
2,31,80,0
2,32,80,20
2,34,80,20
2,36,80,20
2,36,80,40
2,34,80,136
2,32,80,58
2,32,80,58
2,31,80,0
2,34,80,20
2,36,80,40
2,34,80,78
2,32,80,78
2,32,80,58
2,31,80,0
2,32,80,20
2,34,80,20
2,36,80,20
2,36,80,40
2,34,80,136
2,34,80,40
2,29,80,20
2,41,80,20
2,30,80,20
2,31,80,40
2,43,80,20
2,34,80,20
2,39,80,20
2,36,80,20
2,34,80,78
2,32,80,78
2,32,80,58
2,31,80,0
2,32,80,20
2,34,80,20
2,36,80,20
2,36,80,40
2,34,80,136
2,32,80,58
2,32,80,58
2,31,80,0
2,34,80,20
2,36,80,40
2,34,80,78
2,32,80,78
2,32,80,58
2,31,80,0
2,32,80,20
2,34,80,20
2,36,80,20
2,36,80,40
2,34,80,136
2,34,80,40
2,29,80,20
2,41,80,20
2,30,80,20
2,31,80,40
2,43,80,20
2,34,80,20
2,39,80,20
2,36,80,20
2,34,80,78
2,32,80,78
2,32,80,58
2,31,80,0
2,32,80,20
2,34,80,20
2,36,80,20
2,36,80,40
2,34,80,136
2,32,80,58
2,32,80,58
2,31,80,0
2,34,80,20
2,36,80,40
2,34,80,78
2,32,80,78
2,32,80,58
2,31,80,0
2,32,80,20
2,34,80,20
2,36,80,20
2,36,80,40
2,34,80,136
2,34,80,40
2,29,80,20
2,41,80,20
2,30,80,20
2,31,80,40
2,43,80,20
2,34,80,20
2,39,80,20
2,36,80,20
2,34,80,78
2,32,80,78
2,32,80,58
2,31,80,0
2,32,80,20
2,34,80,20
2,36,80,20
2,36,80,40
2,34,80,136
2,32,80,58
2,32,80,58
2,31,80,0
2,34,80,20
2,36,80,40
2,34,80,78
2,32,80,78
2,32,80,58
2,31,80,0
2,32,80,20
2,34,80,20
2,36,80,20
2,36,80,40
2,34,80,136
2,34,80,40
2,29,80,20
2,41,80,20
2,30,80,20
2,31,80,40
2,43,80,20
2,34,80,20
2,39,80,20
2,36,80,20
2,34,80,78
2,34,80,78
2,32,80,58
2,32,80,308
2,32,80,20
2,44,80,20
2,32,80,20
2,32,80,328
2,29,80,20
2,41,80,20
2,29,80,20
2,31,80,40
2,43,80,20
2,31,80,20
2,36,80,40
2,36,80,78
2,39,80,78
2,32,80,58
2,32,80,308
2,32,80,20
2,44,80,20
2,32,80,20
2,32,80,328
2,29,80,20
2,41,80,20
2,29,80,20
2,34,80,40
2,46,80,20
2,34,80,20
2,36,80,40
2,34,80,78
2,34,80,78
2,32,80,58
2,32,80,308
2,32,80,20
2,44,80,20
2,32,80,20
2,32,80,328
2,29,80,20
2,41,80,20
2,29,80,20
2,31,80,40
2,43,80,20
2,31,80,20
2,36,80,40
2,36,80,78
2,39,80,78
2,32,80,58
2,32,80,308
2,32,80,20
2,44,80,20
2,32,80,20
2,32,80,328
2,32,80,20
2,44,80,20
2,32,80,20
2,34,80,40
2,46,80,20
2,34,80,20
2,36,80,40
2,34,80,78
2,34,80,78
2,32,80,58
2,32,80,308
2,32,80,20
2,44,80,20
2,32,80,20
2,32,80,328
2,29,80,20
2,41,80,20
2,29,80,20
2,31,80,40
2,43,80,20
2,31,80,20
2,36,80,40
2,36,80,78
2,39,80,78
2,32,80,58
2,32,80,308
2,32,80,20
2,44,80,20
2,32,80,20
2,32,80,328
2,29,80,20
2,41,80,20
2,29,80,20
2,34,80,40
2,46,80,20
2,34,80,20
2,36,80,40
2,34,80,78
2,34,80,78
2,32,80,58
2,32,80,308
2,32,80,20
2,44,80,20
2,32,80,20
2,32,80,328
2,29,80,20
2,41,80,20
2,29,80,20
2,31,80,40
2,43,80,20
2,31,80,20
2,36,80,40
2,36,80,78
2,39,80,78
2,32,80,58
2,32,80,308
2,32,80,20
2,44,80,20
2,32,80,20
2,32,80,328
2,32,80,20
2,44,80,20
2,32,80,20
2,34,80,40
2,46,80,20
2,34,80,20
2,36,80,40
2,34,80,78
2,32,80,78
2,32,80,58
2,31,80,0
2,32,80,20
2,34,80,20
2,36,80,20
2,36,80,40
2,34,80,136
2,32,80,58
2,32,80,58
2,31,80,0
2,34,80,20
2,36,80,40
2,34,80,78
2,32,80,78
2,32,80,58
2,31,80,0
2,32,80,20
2,34,80,20
2,36,80,20
2,36,80,40
2,34,80,136
2,34,80,40
2,29,80,20
2,41,80,20
2,30,80,20
2,31,80,40
2,43,80,20
2,34,80,20
2,39,80,20
2,36,80,20
2,34,80,78
2,32,80,78
2,32,80,58
2,31,80,0
2,32,80,20
2,34,80,20
2,36,80,20
2,36,80,40
2,34,80,136
2,32,80,58
2,32,80,58
2,31,80,0
2,34,80,20
2,36,80,40
2,34,80,78
2,32,80,78
2,32,80,58
2,31,80,0
2,32,80,20
2,34,80,20
2,36,80,20
2,36,80,40
2,34,80,136
2,34,80,40
2,29,80,20
2,41,80,20
2,30,80,20
2,31,80,40
2,43,80,20
2,34,80,20
2,39,80,20
2,36,80,20
2,34,80,78
2,34,80,78
2,32,80,58
2,32,80,308
2,32,80,20
2,44,80,20
2,32,80,20
2,32,80,328
2,29,80,20
2,41,80,20
2,29,80,20
2,31,80,40
2,43,80,20
2,31,80,20
2,36,80,40
2,36,80,78
2,39,80,78
2,32,80,58
2,32,80,308
2,32,80,20
2,44,80,20
2,32,80,20
2,32,80,328
2,29,80,20
2,41,80,20
2,29,80,20
2,34,80,40
2,46,80,20
2,34,80,20
2,36,80,40
2,34,80,78
2,34,80,78
2,32,80,58
2,32,80,308
2,32,80,20
2,44,80,20
2,32,80,20
2,32,80,328
2,29,80,20
2,41,80,20
2,29,80,20
2,31,80,40
2,43,80,20
2,31,80,20
2,36,80,40
2,36,80,78
2,39,80,78
2,32,80,58
2,32,80,308
2,32,80,20
2,44,80,20
2,32,80,20
2,32,80,328
2,32,80,20
2,44,80,20
2,32,80,20
2,34,80,40
2,46,80,20
2,34,80,20
2,36,80,40
2,34,80,78
2,34,80,78
2,32,80,58
2,32,80,308
