track,note,velocity,time
1,66,100,30
1,66,0,10
1,68,100,20
1,68,0,30
1,64,100,0
1,64,0,10
1,69,100,0
1,69,0,10
1,68,100,0
1,68,0,10
1,66,100,0
1,66,0,10
1,68,100,20
1,68,0,30
1,64,100,0
1,64,0,120
1,69,100,0
1,69,0,240
1,68,100,0
1,68,0,240
1,66,100,0
1,66,0,180
1,68,100,30
1,68,0,90
1,64,100,0
1,64,0,180
1,69,100,0
1,69,0,240
1,68,100,0
1,68,0,240
1,66,100,0
1,66,0,180
1,68,100,30
1,68,0,90
1,64,100,0
1,64,0,180
1,69,100,0
1,69,0,240
1,68,100,0
1,68,0,240
2,30,100,1920
2,30,0,30
2,37,100,0
2,37,0,180
2,32,100,30
2,32,0,30
2,39,100,0
2,39,0,90
2,28,100,0
2,28,0,30
2,35,100,0
2,35,0,90
2,33,100,0
2,33,0,30
2,40,100,0
2,40,0,180
2,32,100,30
2,32,0,30
2,39,100,0
2,39,0,180
2,30,100,30
2,30,0,30
2,37,100,0
2,37,0,180
2,32,100,30
2,32,0,30
2,39,100,0
2,39,0,90
2,28,100,0
2,28,0,30
2,35,100,0
2,35,0,90
2,33,100,0
2,33,0,30
2,40,100,0
2,40,0,180
2,32,100,30
2,32,0,30
2,39,100,0
2,39,0,180
3,54,100,3900
3,54,0,60
3,63,100,0
3,63,0,60
3,61,100,0
3,61,0,60
3,63,100,0
3,63,0,60
3,61,100,0
3,61,0,30
3,63,100,0
3,63,0,120
3,63,100,90
3,63,0,60
3,64,100,0
3,64,0,60
3,63,100,0
3,63,0,60
3,59,100,0
3,59,0,30
3,57,100,0
3,57,0,30
3,59,100,0
3,59,0,60
3,54,100,60
3,54,0,60
3,64,100,0
3,64,0,60
3,63,100,0
3,63,0,60
3,64,100,0
3,64,0,60
3,63,100,0
3,63,0,60
3,64,100,0
3,64,0,60
3,63,100,0
3,63,0,30
3,64,100,0
3,64,0,120
3,63,100,0
3,63,0,30
3,63,100,0
3,63,0,90
3,59,100,0
3,59,0,30
3,59,100,0
3,59,0,60
3,57,100,0
3,57,0,30
3,59,100,0
3,59,0,120
3,54,100,90
3,54,0,60
3,63,100,0
3,63,0,60
3,61,100,0
3,61,0,60
3,63,100,0
3,63,0,60
3,61,100,0
3,61,0,60
3,63,100,0
3,63,0,30
3,61,100,0
3,61,0,60
3,63,100,0
3,63,0,90
3,61,100,0
3,61,0,60
3,64,100,0
3,64,0,60
3,63,100,0
3,63,0,30
3,59,100,0
3,59,0,120
3,59,100,0
3,59,0,30
3,59,100,0
3,59,0,60
3,57,100,0
3,57,0,60
3,64,100,120
3,64,0,30
3,63,100,0
3,63,0,90
3,64,100,0
3,64,0,30
3,63,100,0
3,63,0,90
3,64,100,0
3,64,0,60
3,63,100,0
3,63,0,30
3,64,100,0
3,64,0,120
3,63,100,90
3,63,0,60
3,64,100,0
3,64,0,30
3,63,100,0
3,63,0,90
3,59,100,0
3,59,0,120
3,61,100,180
3,61,0,60
3,61,100,0
3,61,0,120
3,59,100,0
3,59,0,60
3,59,100,0
3,59,0,120
3,59,100,510
3,59,0,30
3,57,100,0
3,57,0,240
3,61,100,120
3,61,0,120
3,59,100,0
3,59,0,360
3,61,100,300
3,61,0,60
3,63,100,0
3,63,0,180
3,61,100,0
3,61,0,120
3,59,100,0
3,59,0,60
3,59,100,0
3,59,0,240
3,54,100,330
3,54,0,30
3,63,100,0
3,63,0,120
3,61,100,0
3,61,0,120
3,59,100,0
3,59,0,120
3,54,100,90
3,54,0,30
3,64,100,0
3,64,0,60
3,63,100,0
3,63,0,30
3,59,100,0
3,59,0,60
3,59,100,0
3,59,0,30
3,57,100,0
3,57,0,60
3,59,100,0
3,59,0,120
3,54,100,90
3,54,0,30
3,64,100,0
3,64,0,60
3,63,100,0
3,63,0,30
3,59,100,0
3,59,0,60
3,59,100,0
3,59,0,30
3,57,100,0
3,57,0,60
3,59,100,0
3,59,0,240
3,59,100,360
3,59,0,30
3,61,100,0
3,61,0,60
3,63,100,0
3,63,0,149
3,66,100,1
3,66,0,120
3,59,100,0
3,59,0,120
3,54,100,90
3,54,0,30
3,64,100,0
3,64,0,60
3,63,100,0
3,63,0,30
3,59,100,0
3,59,0,60
3,59,100,0
3,59,0,30
3,57,100,0
3,57,0,60
3,59,100,0
3,59,0,120
3,54,100,90
3,54,0,30
3,64,100,0
3,64,0,60
3,63,100,0
3,63,0,30
3,59,100,0
3,59,0,60
3,59,100,0
3,59,0,30
3,57,100,0
3,57,0,60
3,59,100,0
3,59,0,240
3,54,100,2130
3,54,0,30
3,63,100,0
3,63,0,60
3,61,100,0
3,61,0,60
3,63,100,0
3,63,0,60
3,61,100,0
3,61,0,30
3,63,100,0
3,63,0,120
3,64,100,150
3,64,0,30
3,63,100,0
3,63,0,90
3,59,100,0
3,59,0,60
3,57,100,0
3,57,0,30
3,59,100,0
3,59,0,120
3,57,100,120
3,57,0,30
3,64,100,0
3,64,0,60
3,63,100,0
3,63,0,60
3,64,100,0
3,64,0,60
3,63,100,0
3,63,0,60
3,64,100,0
3,64,0,30
3,63,100,0
3,63,0,90
3,64,100,0
3,64,0,120
3,63,100,0
3,63,0,60
3,59,100,0
3,59,0,60
3,57,100,60
3,57,0,30
3,59,100,0
3,59,0,30
3,59,100,0
3,59,0,120
3,54,100,90
3,54,0,30
3,63,100,0
3,63,0,60
3,61,100,0
3,61,0,60
3,63,100,0
3,63,0,60
3,61,100,0
3,61,0,60
3,63,100,0
3,63,0,60
3,61,100,0
3,61,0,60
3,54,100,90
3,54,0,30
3,64,100,0
3,64,0,30
3,63,100,0
3,63,0,90
3,59,100,0
3,59,0,60
3,57,100,0
3,57,0,30
3,59,100,0
3,59,0,149
3,54,100,91
3,54,0,30
3,64,100,0
3,64,0,60
3,63,100,0
3,63,0,60
3,64,100,0
3,64,0,60
3,63,100,0
3,63,0,60
3,64,100,0
3,64,0,60
3,63,100,0
3,63,0,60
3,64,100,180
3,64,0,60
3,64,100,0
3,64,0,60
3,63,100,0
3,63,0,60
3,59,100,0
3,59,0,120
3,61,100,180
3,61,0,120
3,61,100,0
3,61,0,120
3,59,100,0
3,59,0,180
3,54,100,690
3,54,0,30
3,63,100,0
3,63,0,120
3,61,100,0
3,61,0,120
3,59,100,0
3,59,0,120
3,54,100,90
3,54,0,30
3,64,100,0
3,64,0,60
3,63,100,0
3,63,0,30
3,59,100,0
3,59,0,60
3,59,100,0
3,59,0,30
3,57,100,0
3,57,0,60
3,59,100,0
3,59,0,120
3,54,100,90
3,54,0,30
3,64,100,0
3,64,0,60
3,63,100,0
3,63,0,30
3,59,100,0
3,59,0,60
3,59,100,0
3,59,0,30
3,57,100,0
3,57,0,60
3,59,100,0
3,59,0,240
3,59,100,360
3,59,0,30
3,61,100,0
3,61,0,60
3,63,100,0
3,63,0,149
3,66,100,1
3,66,0,120
3,59,100,0
3,59,0,120
3,54,100,90
3,54,0,30
3,64,100,0
3,64,0,60
3,63,100,0
3,63,0,30
3,59,100,0
3,59,0,60
3,59,100,0
3,59,0,30
3,57,100,0
3,57,0,60
3,59,100,0
3,59,0,120
3,54,100,90
3,54,0,30
3,64,100,0
3,64,0,60
3,63,100,0
3,63,0,30
3,59,100,0
3,59,0,60
3,59,100,0
3,59,0,30
3,57,100,0
3,57,0,60
3,59,100,0
3,59,0,240
3,54,100,2100
3,54,0,60
3,63,100,0
3,63,0,60
3,59,100,0
3,59,0,30
3,59,100,0
3,59,0,60
3,59,100,0
3,59,0,60
3,63,100,0
3,63,0,60
3,59,100,0
3,59,0,60
3,59,100,0
3,59,0,60
3,59,100,0
3,59,0,60
3,64,100,30
3,64,0,60
3,59,100,0
3,59,0,30
3,59,100,0
3,59,0,60
3,57,100,0
3,57,0,60
3,59,100,0
3,59,0,120
3,59,100,90
3,59,0,60
3,64,100,0
3,64,0,60
3,59,100,0
3,59,0,30
3,59,100,0
3,59,0,60
3,59,100,0
3,59,0,60
3,64,100,0
3,64,0,60
3,59,100,0
3,59,0,60
3,59,100,0
3,59,0,60
3,59,100,0
3,59,0,60
3,63,100,30
3,63,0,60
3,59,100,0
3,59,0,30
3,59,100,0
3,59,0,60
3,57,100,0
3,57,0,60
3,59,100,0
3,59,0,120
3,54,100,120
3,54,0,30
3,63,100,0
3,63,0,60
3,59,100,0
3,59,0,30
3,59,100,0
3,59,0,60
3,59,100,0
3,59,0,60
3,63,100,0
3,63,0,60
3,59,100,0
3,59,0,60
3,59,100,0
3,59,0,60
3,59,100,0
3,59,0,60
3,64,100,30
3,64,0,60
3,59,100,0
3,59,0,30
3,59,100,0
3,59,0,60
3,57,100,0
3,57,0,60
3,59,100,0
3,59,0,120
3,59,100,90
3,59,0,60
3,63,100,0
3,63,0,60
3,63,100,0
3,63,0,30
3,64,100,0
3,64,0,60
3,64,100,0
3,64,0,60
3,66,100,0
3,66,0,60
3,66,100,0
3,66,0,60
3,68,100,0
3,68,0,60
3,69,100,0
3,69,0,60
3,74,100,32
3,71,100,58
3,74,0,2
3,71,0,28
3,71,100,0
3,71,0,60
3,69,100,0
3,69,0,60
3,71,100,0
3,71,0,120
3,66,100,630
3,66,0,240
3,66,100,0
3,66,0,60
3,64,100,0
3,64,0,30
3,63,100,0
3,63,0,30
3,64,100,0
3,64,0,30
3,63,100,0
3,63,0,60
3,59,100,0
3,59,0,240
3,59,100,180
3,59,0,30
3,63,100,0
3,63,0,30
3,64,100,0
3,64,0,90
3,66,100,0
3,66,0,90
3,69,100,0
3,69,0,30
3,66,100,0
3,66,0,30
3,64,100,0
3,64,0,30
3,66,100,0
3,66,0,240
3,54,100,210
3,54,0,30
3,63,100,0
3,63,0,120
3,61,100,0
3,61,0,120
3,59,100,0
3,59,0,120
3,54,100,90
3,54,0,30
3,64,100,0
3,64,0,60
3,63,100,0
3,63,0,30
3,59,100,0
3,59,0,60
3,57,100,0
3,57,0,90
3,59,100,0
3,59,0,120
3,54,100,90
3,54,0,30
3,64,100,0
3,64,0,60
3,63,100,0
3,63,0,30
3,59,100,0
3,59,0,60
3,57,100,0
3,57,0,90
3,59,100,0
3,59,0,240
3,66,100,0
3,66,0,60
3,64,100,0
3,64,0,30
3,63,100,0
3,63,0,30
3,64,100,0
3,64,0,30
3,63,100,0
3,63,0,90
3,59,100,120
3,59,0,30
3,61,100,0
3,61,0,60
3,63,100,0
3,63,0,120
3,66,100,30
3,66,0,120
3,59,100,0
3,59,0,120
3,54,100,90
3,54,0,30
3,64,100,0
3,64,0,60
3,63,100,0
3,63,0,30
3,59,100,0
3,59,0,60
3,59,100,0
3,59,0,30
3,57,100,0
3,57,0,60
3,59,100,0
3,59,0,120
3,54,100,90
3,54,0,30
3,64,100,0
3,64,0,60
3,63,100,0
3,63,0,30
3,59,100,0
3,59,0,60
3,59,100,0
3,59,0,30
3,57,100,0
3,57,0,60
3,59,100,0
3,59,0,240
3,59,100,1680
3,59,0,360
3,63,100,0
3,63,0,120
3,59,100,0
3,59,0,360
3,63,100,0
3,63,0,120
3,64,100,0
3,64,0,360
3,63,100,0
3,63,0,120
3,59,100,0
3,59,0,360
3,57,100,120
3,57,0,30
3,57,100,0
3,57,0,90
3,61,100,0
3,61,0,60
3,61,100,0
3,61,0,30
3,61,100,0
3,61,0,90
3,59,100,0
3,59,0,120
4,63,100,3840
4,59,100,0
4,59,0,60
4,63,0,0
4,56,100,420
4,59,100,0
4,59,0,240
4,56,0,0
4,57,100,240
4,59,100,0
4,59,0,480
4,57,0,0
4,56,100,0
4,56,0,480
4,54,100,0
4,59,100,0
4,59,0,480
4,54,0,0
4,56,100,0
4,59,100,0
4,59,0,60
4,56,0,420
4,59,100,0
4,57,100,0
4,57,0,480
4,59,0,0
4,59,100,0
4,56,100,0
4,59,0,60
4,56,0,420
4,63,100,0
4,54,100,0
4,63,0,120
4,54,0,360
4,59,100,0
4,68,100,0
4,68,0,180
4,59,0,0
4,64,100,0
4,64,0,240
4,57,100,60
4,52,100,0
4,57,0,120
4,59,100,0
4,59,0,240
4,61,100,0
4,61,0,120
4,52,0,0
4,52,100,0
4,56,100,0
4,59,100,0
4,59,0,480
4,56,0,0
4,52,0,0
4,54,100,0
4,59,100,0
4,59,0,480
4,54,0,0
4,59,100,5760
4,64,100,0
4,68,100,0
4,68,0,480
4,64,0,0
4,59,0,0
4,54,100,0
4,59,100,0
4,59,0,480
4,54,0,0
4,56,100,0
4,56,0,480
4,57,100,0
4,59,100,0
4,59,0,480
4,57,0,0
4,56,100,0
4,56,0,480
4,54,100,0
4,59,100,0
4,59,0,480
4,54,0,0
4,56,100,0
4,56,0,480
4,57,100,0
4,59,100,0
4,59,0,480
4,57,0,0
4,56,100,0
4,56,0,959
4,59,100,1
4,64,100,0
4,68,100,0
4,68,0,480
4,64,0,0
4,59,0,0
4,54,100,0
4,63,100,0
4,59,100,0
4,59,0,480
4,63,0,0
4,54,0,0
4,56,100,0
4,52,100,0
4,59,100,0
4,59,0,480
4,52,0,0
4,56,0,0
4,52,100,0
4,57,100,0
4,59,100,0
4,59,0,480
4,57,0,0
4,52,0,0
4,52,100,0
4,56,100,0
4,59,100,0
4,59,0,480
4,56,0,0
4,52,0,0
4,54,100,0
4,59,100,0
4,63,100,0
4,63,0,480
4,59,0,0
4,54,0,0
4,52,100,0
4,56,100,0
4,59,100,0
4,59,0,480
4,56,0,0
4,52,0,0
4,59,100,0
4,57,100,0
4,52,100,0
4,52,0,480
4,57,0,0
4,59,0,0
4,52,100,0
4,56,100,0
4,59,100,0
4,59,0,480
4,56,0,0
4,52,0,0
4,66,100,0
4,59,100,0
4,63,100,0
4,66,0,120
4,63,0,360
4,59,0,0
4,59,100,0
4,59,0,480
4,112,100,0
4,69,100,0
4,61,100,0
4,64,100,0
4,64,0,60
4,61,0,0
4,69,0,0
4,112,0,60
4,69,100,120
4,71,100,0
4,71,0,240
4,69,0,0
4,59,100,0
4,64,100,0
4,68,100,0
4,68,0,480
4,64,0,0
4,59,0,0
4,59,100,0
4,54,100,0
4,59,0,60
4,63,100,0
4,63,0,30
4,64,100,0
4,64,0,120
4,59,100,30
4,59,0,60
4,63,100,0
4,63,0,30
4,64,100,0
4,64,0,120
4,54,0,30
4,59,100,0
4,56,100,0
4,59,0,60
4,63,100,0
4,63,0,30
4,64,100,0
4,64,0,120
4,59,100,30
4,59,0,60
4,63,100,0
4,63,0,30
4,64,100,0
4,64,0,120
4,56,0,30
4,57,100,0
4,59,100,0
4,59,0,60
4,63,100,0
4,63,0,30
4,64,100,0
4,64,0,120
4,59,100,30
4,59,0,60
4,63,100,0
4,63,0,30
4,64,100,0
4,64,0,120
4,57,0,30
4,59,100,0
4,56,100,0
4,59,0,60
4,63,100,0
4,63,0,30
4,64,100,0
4,64,0,120
4,59,100,30
4,59,0,60
4,63,100,0
4,63,0,30
4,64,100,0
4,64,0,120
4,56,0,30
4,56,100,2400
4,56,0,480
4,57,100,2
4,59,100,478
4,57,0,2
4,59,0,478
4,54,100,0
4,54,0,480
4,56,100,0
4,56,0,480
4,57,100,2
4,59,100,478
4,57,0,2
4,59,0,478
4,54,100,0
4,59,100,0
4,63,100,0
4,63,0,480
4,59,0,0
4,54,0,0
4,59,100,960
4,54,100,0
4,54,0,480
4,59,0,0
4,54,100,0
4,59,100,0
4,59,0,480
4,54,0,0
4,54,100,0
4,59,100,0
4,59,0,480
4,54,0,0
4,54,100,0
4,59,100,0
4,59,0,480
4,54,0,0
4,54,100,0
4,59,100,0
4,59,0,480
4,54,0,0
4,54,100,0
4,59,100,0
4,59,0,480
4,54,0,0
4,54,100,0
4,59,100,0
4,59,0,480
4,54,0,0
5,35,100,3840
5,35,0,480
5,37,100,0
5,37,0,480
5,33,100,0
5,33,0,480
5,28,100,0
5,28,0,360
5,30,100,0
5,30,0,120
5,35,100,0
5,35,0,480
5,37,100,0
5,37,0,360
5,30,100,0
5,30,0,120
5,33,100,0
5,33,0,480
5,28,100,0
5,28,0,360
