track,note,velocity,time
1,66,88,12840
1,66,0,96
1,66,88,24
1,66,0,192
1,66,88,48
1,66,0,192
1,66,88,48
1,66,0,144
1,66,88,36
1,66,0,252
1,66,88,168
1,66,0,96
1,66,88,24
1,66,0,96
1,71,88,24
1,71,0,216
1,68,88,24
1,68,0,504
1,68,88,96
1,68,0,96
1,68,88,24
1,68,0,96
1,68,88,24
1,68,0,192
1,68,88,48
1,68,0,96
1,68,88,24
1,68,0,96
1,68,88,24
1,68,0,192
1,68,88,48
1,68,0,96
1,66,88,24
1,66,0,96
1,66,88,24
1,66,0,684
1,61,88,36
1,61,0,114
1,63,88,6
1,63,0,114
1,64,88,6
1,64,0,171
1,64,88,9
1,64,0,174
1,64,88,6
1,64,0,114
1,64,88,6
1,64,0,228
1,64,88,12
1,64,0,114
1,64,88,6
1,64,0,114
1,64,88,6
1,64,0,228
1,63,88,12
1,63,0,114
1,61,88,6
1,61,0,114
1,63,88,6
1,63,0,708
1,63,88,12
1,63,0,228
1,63,88,12
1,63,0,228
1,66,88,12
1,66,0,228
1,68,88,12
1,68,0,360
1,63,88,0
1,63,0,96
1,63,88,24
1,63,0,384
1,63,88,96
1,63,0,171
1,63,88,9
1,63,0,174
1,63,88,6
1,63,0,114
1,63,88,6
1,63,0,228
1,63,88,12
1,63,0,114
1,66,88,6
1,66,0,114
1,66,88,6
1,66,0,228
1,65,88,12
1,65,0,114
1,65,88,6
1,65,0,114
1,65,88,6
1,65,0,342
1,63,88,18
1,63,0,114
1,63,88,6
1,63,0,171
1,61,88,9
1,61,0,174
1,61,88,6
1,61,0,114
1,61,88,6
1,61,0,228
1,61,88,12
1,61,0,114
1,63,88,6
1,63,0,114
1,61,88,6
1,61,0,225
1,61,88,615
1,61,0,96
1,61,88,24
1,61,0,180
1,61,88,0
1,61,0,180
1,61,88,0
1,61,0,120
1,68,88,0
1,68,0,180
1,66,88,0
1,66,0,180
1,65,88,0
1,65,0,120
1,66,88,0
1,66,0,960
1,66,88,1320
1,66,0,120
1,66,88,0
1,66,0,120
1,64,88,0
1,64,0,120
1,63,88,0
1,63,0,120
1,64,88,0
1,64,0,120
1,66,88,0
1,66,0,120
1,66,88,0
1,66,0,96
1,66,88,144
1,66,0,120
1,66,88,0
1,66,0,96
1,71,88,24
1,71,0,216
1,68,88,24
1,68,0,600
1,68,88,240
1,68,0,108
1,68,88,12
1,68,0,108
1,68,88,12
1,68,0,162
1,68,88,18
1,68,0,168
1,68,88,12
1,68,0,108
1,68,88,12
1,68,0,216
1,68,88,24
1,68,0,108
1,66,88,12
1,66,0,108
1,66,88,12
1,66,0,432
1,61,88,288
1,61,0,114
1,63,88,6
1,63,0,114
1,64,88,6
1,64,0,171
1,64,88,9
1,64,0,174
1,64,88,6
1,64,0,114
1,64,88,6
1,64,0,114
1,64,88,6
1,64,0,234
1,64,88,6
1,64,0,57
1,64,88,3
1,64,0,57
1,64,88,3
1,64,0,171
1,63,88,9
1,63,0,174
1,61,88,6
1,61,0,114
1,63,88,6
1,63,0,456
1,63,88,264
1,63,0,228
1,63,88,12
1,63,0,228
1,66,88,12
1,66,0,228
1,68,88,12
1,68,0,360
1,63,88,0
1,63,0,96
1,63,88,24
1,63,0,384
1,63,88,96
1,63,0,171
1,63,88,9
1,63,0,174
1,63,88,6
1,63,0,114
1,63,88,6
1,63,0,228
1,63,88,12
1,63,0,114
1,66,88,6
1,66,0,114
1,66,88,6
1,66,0,228
1,65,88,12
1,65,0,114
1,65,88,6
1,65,0,114
1,65,88,6
1,65,0,342
1,63,88,18
1,63,0,114
1,63,88,6
1,63,0,171
1,61,88,9
1,61,0,174
1,61,88,6
1,61,0,114
1,61,88,6
1,61,0,228
1,61,88,12
1,61,0,120
1,63,88,0
1,63,0,114
1,61,88,6
1,61,0,225
1,61,88,615
1,61,0,96
1,61,88,24
1,61,0,171
1,61,88,9
1,61,0,174
1,61,88,6
1,61,0,114
1,68,88,6
1,68,0,171
1,66,88,9
1,66,0,174
1,65,88,6
1,65,0,114
1,66,88,6
1,66,0,960
1,63,88,960
1,63,0,171
1,63,88,9
1,63,0,174
1,63,88,6
1,63,0,114
1,63,88,6
1,63,0,171
1,64,88,9
1,64,0,174
1,66,88,6
1,66,0,114
1,68,88,6
1,68,0,114
1,66,88,6
1,66,0,114
1,66,88,6
1,66,0,582
1,66,88,18
1,66,0,114
1,68,88,6
1,68,0,171
1,68,88,9
1,68,0,174
1,66,88,6
1,66,0,114
1,71,88,6
1,71,0,342
1,66,88,18
1,66,0,114
1,64,88,6
1,64,0,114
1,63,88,6
1,63,0,342
1,63,88,138
1,63,0,114
1,64,88,6
1,64,0,114
1,66,88,6
1,66,0,114
1,61,88,6
1,61,0,114
1,61,88,6
1,61,0,474
1,61,88,6
1,61,0,114
1,63,88,6
1,63,0,114
1,64,88,6
1,64,0,114
1,59,88,6
1,59,0,114
1,59,88,6
1,59,0,342
1,59,88,138
1,59,0,114
1,61,88,6
1,61,0,114
1,59,88,6
1,59,0,114
1,63,88,6
1,63,0,228
1,66,88,12
1,66,0,1632
1,63,88,528
1,63,0,144
1,63,88,36
1,63,0,156
1,63,88,24
1,63,0,96
1,61,88,24
1,61,0,96
1,59,88,24
1,59,0,96
1,59,88,24
1,59,0,576
1,66,88,1464
1,66,0,120
1,66,88,0
1,66,0,144
1,66,88,36
1,66,0,156
1,66,88,24
1,66,0,96
1,66,88,24
1,66,0,225
1,66,88,135
1,66,0,120
1,66,88,0
1,66,0,216
1,71,88,24
1,71,0,96
1,68,88,24
1,68,0,600
1,68,88,360
1,68,0,108
1,68,88,12
1,68,0,162
1,68,88,18
1,68,0,168
1,68,88,12
1,68,0,108
1,68,88,12
1,68,0,162
1,68,88,18
1,68,0,168
1,68,88,12
1,68,0,108
1,66,88,12
1,66,0,432
1,61,88,408
1,61,0,57
1,63,88,3
1,63,0,57
1,64,88,3
1,64,0,180
1,64,88,0
1,64,0,180
1,64,88,0
1,64,0,120
1,64,88,0
1,64,0,225
1,64,88,15
1,64,0,120
1,64,88,0
1,64,0,96
1,64,88,24
1,64,0,180
1,63,88,0
1,63,0,180
1,61,88,0
1,61,0,120
1,63,88,0
1,63,0,480
1,63,88,240
1,63,0,225
1,63,88,15
1,63,0,240
1,66,88,0
1,66,0,240
1,68,88,0
1,68,0,360
1,63,88,0
1,63,0,96
1,63,88,24
1,63,0,288
1,63,88,72
1,63,0,96
1,63,88,24
1,63,0,113
1,63,88,247
1,63,0,48
1,63,88,12
1,63,0,48
1,63,88,12
1,63,0,144
1,63,88,36
1,63,0,156
1,66,88,24
1,66,0,120
1,66,88,0
1,66,0,171
1,65,88,9
1,65,0,174
1,65,88,6
1,65,0,114
1,65,88,6
1,65,0,228
1,63,88,132
1,63,0,114
1,63,88,6
1,63,0,171
1,61,88,9
1,61,0,174
1,61,88,6
1,61,0,114
1,61,88,6
1,61,0,228
1,61,88,12
1,61,0,114
1,63,88,6
1,63,0,114
1,61,88,6
1,61,0,225
1,61,88,615
1,61,0,96
1,61,88,24
1,61,0,171
1,61,88,9
1,61,0,174
1,61,88,6
1,61,0,114
1,68,88,6
1,68,0,171
1,66,88,9
1,66,0,174
1,65,88,6
1,65,0,114
1,66,88,6
1,66,0,1344
1,63,88,576
1,63,0,171
1,63,88,9
1,63,0,174
1,63,88,6
1,63,0,114
1,63,88,6
1,63,0,171
1,64,88,9
1,64,0,174
1,66,88,6
1,66,0,114
1,68,88,6
1,68,0,114
1,66,88,6
1,66,0,114
1,66,88,6
1,66,0,582
1,66,88,18
1,66,0,114
1,68,88,6
1,68,0,171
1,68,88,9
1,68,0,174
1,66,88,6
1,66,0,114
1,71,88,6
1,71,0,342
1,66,88,18
1,66,0,114
1,64,88,6
1,64,0,114
1,63,88,6
1,63,0,342
1,63,88,138
1,63,0,114
1,64,88,6
1,64,0,114
1,66,88,6
1,66,0,114
1,61,88,6
1,61,0,114
1,61,88,6
1,61,0,474
1,61,88,6
1,61,0,114
1,63,88,6
1,63,0,114
1,64,88,6
1,64,0,114
1,59,88,6
1,59,0,114
1,59,88,6
1,59,0,342
1,59,88,138
1,59,0,114
1,61,88,6
1,61,0,114
1,59,88,6
1,59,0,114
1,63,88,6
1,63,0,228
1,66,88,12
1,66,0,1632
1,63,88,48
1,63,0,180
1,63,88,0
1,63,0,180
1,63,88,0
1,63,0,120
1,63,88,0
1,63,0,180
1,64,88,0
1,64,0,180
1,66,88,0
1,66,0,120
1,68,88,0
1,68,0,120
1,66,88,0
1,66,0,113
1,66,88,7
1,66,0,600
1,66,88,0
1,66,0,120
1,68,88,0
1,68,0,180
1,68,88,0
1,68,0,180
1,66,88,0
1,66,0,120
1,71,88,0
1,71,0,360
1,66,88,0
1,66,0,113
1,64,88,7
1,64,0,120
1,63,88,0
1,63,0,360
1,63,88,120
1,63,0,48
1,63,88,12
1,63,0,48
1,64,88,12
1,64,0,120
1,66,88,0
1,66,0,120
1,61,88,0
1,61,0,120
1,61,88,0
1,61,0,480
1,61,88,0
1,61,0,120
1,63,88,0
1,63,0,120
1,64,88,0
1,64,0,120
1,59,88,0
1,59,0,120
1,59,88,0
1,59,0,360
1,59,88,120
1,59,0,120
1,61,88,0
1,61,0,120
1,59,88,0
1,59,0,120
1,63,88,0
1,63,0,240
1,66,88,0
1,66,0,2064
1,63,88,2016
1,63,0,144
1,63,88,36
1,63,0,156
1,63,88,24
1,63,0,96
1,61,88,24
1,61,0,96
1,59,88,24
1,59,0,312
1,63,88,14328
1,63,0,96
1,63,88,24
1,63,0,192
1,66,88,48
1,66,0,192
1,68,88,48
1,68,0,360
1,63,88,0
1,63,0,96
1,63,88,24
1,63,0,384
1,63,88,96
1,63,0,171
1,63,88,9
1,63,0,174
1,63,88,6
1,63,0,114
1,63,88,6
1,63,0,228
1,63,88,12
1,63,0,114
1,66,88,6
1,66,0,114
1,66,88,6
1,66,0,171
1,65,88,9
1,65,0,174
1,65,88,6
1,65,0,114
1,65,88,6
1,65,0,342
1,63,88,18
1,63,0,114
1,63,88,6
1,63,0,171
1,61,88,9
1,61,0,174
1,61,88,6
1,61,0,114
1,61,88,6
1,61,0,228
1,61,88,12
1,61,0,114
1,63,88,6
1,63,0,114
1,61,88,6
1,61,0,225
1,61,88,615
1,61,0,96
1,61,88,24
1,61,0,180
1,61,88,0
1,61,0,180
1,61,88,0
1,61,0,120
1,68,88,0
1,68,0,180
1,66,88,0
1,66,0,180
1,65,88,0
1,65,0,120
1,66,88,0
1,66,0,1344
1,63,88,576
1,63,0,180
1,63,88,0
1,63,0,180
1,63,88,0
1,63,0,120
1,63,88,0
1,63,0,180
1,64,88,0
1,64,0,180
1,66,88,0
1,66,0,120
1,68,88,0
1,68,0,120
1,66,88,0
1,66,0,113
1,66,88,7
1,66,0,600
1,66,88,0
1,66,0,120
1,68,88,0
1,68,0,180
1,68,88,0
1,68,0,180
1,66,88,0
1,66,0,120
1,71,88,0
1,71,0,360
1,66,88,0
1,66,0,113
1,64,88,7
1,64,0,120
1,63,88,0
1,63,0,360
1,63,88,120
1,63,0,120
1,64,88,0
1,64,0,120
1,66,88,0
1,66,0,120
1,61,88,0
1,61,0,120
1,61,88,0
1,61,0,480
1,61,88,0
1,61,0,120
1,63,88,0
1,63,0,120
1,64,88,0
1,64,0,120
1,59,88,0
1,59,0,120
1,59,88,0
1,59,0,360
1,59,88,120
1,59,0,120
1,61,88,0
1,61,0,120
1,59,88,0
1,59,0,120
1,63,88,0
1,63,0,240
1,66,88,0
1,66,0,1620
1,63,88,60
1,63,0,180
1,63,88,0
1,63,0,180
1,63,88,0
1,63,0,120
1,63,88,0
1,63,0,180
1,64,88,0
1,64,0,180
1,66,88,0
1,66,0,120
1,68,88,0
1,68,0,120
1,66,88,0
1,66,0,113
1,66,88,7
1,66,0,600
1,66,88,0
1,66,0,120
1,68,88,0
1,68,0,180
1,68,88,0
1,68,0,180
1,66,88,0
1,66,0,120
1,71,88,0
1,71,0,360
1,66,88,0
1,66,0,113
1,64,88,7
1,64,0,225
1,63,88,15
1,63,0,225
1,63,88,135
1,63,0,57
1,63,88,3
1,63,0,57
1,64,88,3
1,64,0,120
1,66,88,0
1,66,0,120
1,61,88,0
1,61,0,120
1,61,88,0
1,61,0,480
1,61,88,0
1,61,0,120
1,63,88,0
1,63,0,120
1,64,88,0
1,64,0,120
1,59,88,0
1,59,0,120
1,59,88,0
1,59,0,360
1,59,88,120
1,59,0,120
1,61,88,0
1,61,0,120
1,59,88,0
1,59,0,120
1,63,88,0
1,63,0,240
1,66,88,0
1,66,0,1620
1,66,88,540
1,66,0,144
1,64,88,36
1,64,0,156
1,66,88,24
1,66,0,96
1,68,88,24
1,68,0,96
1,66,88,24
1,66,0,216
1,66,88,24
1,66,0,2328
2,35,100,960
2,35,0,96
2,23,100,7584
2,23,0,768
2,35,100,10272
2,35,0,192
2,34,100,48
2,34,0,192
2,32,100,48
2,32,0,144
2,32,100,36
2,32,0,156
2,27,100,24
2,27,0,96
2,32,100,24
2,32,0,144
2,32,100,36
2,32,0,156
2,27,100,24
2,27,0,96
2,32,100,24
2,32,0,144
2,32,100,36
2,32,0,156
2,27,100,24
2,27,0,96
2,32,100,24
2,32,0,96
2,27,100,24
2,27,0,96
2,32,100,24
2,32,0,96
2,27,100,24
2,27,0,96
2,37,100,24
2,37,0,144
2,37,100,36
2,37,0,156
2,37,100,24
2,37,0,96
2,37,100,24
2,37,0,144
2,37,100,36
2,37,0,156
2,37,100,24
2,37,0,96
2,35,100,24
2,35,0,144
2,35,100,36
2,35,0,156
2,35,100,24
2,35,0,96
2,35,100,24
2,35,0,144
2,35,100,36
2,35,0,156
2,35,100,24
2,35,0,96
2,34,100,24
2,34,0,144
2,34,100,36
2,34,0,156
2,34,100,24
2,34,0,96
2,34,100,24
2,34,0,144
2,34,100,36
2,34,0,156
2,34,100,24
2,34,0,96
2,37,100,24
2,37,0,144
2,37,100,36
2,37,0,156
2,37,100,24
2,37,0,96
2,37,100,24
2,37,0,144
2,37,100,36
2,37,0,156
2,37,100,24
2,37,0,96
2,30,100,24
2,30,0,144
2,30,100,36
2,30,0,156
2,30,100,24
2,30,0,96
2,30,100,24
2,30,0,144
2,30,100,36
2,30,0,156
2,30,100,24
2,30,0,96
2,30,100,24
2,30,0,144
2,30,100,36
2,30,0,156
2,30,100,24
2,30,0,96
2,30,100,24
2,30,0,144
2,30,100,36
2,30,0,156
2,30,100,24
2,30,0,96
2,35,100,24
2,35,0,144
2,35,100,36
2,35,0,156
2,35,100,24
2,35,0,96
2,35,100,24
2,35,0,144
2,30,100,36
2,30,0,156
2,32,100,24
2,32,0,96
2,35,100,24
2,35,0,144
2,35,100,36
2,35,0,156
2,35,100,24
2,35,0,96
2,35,100,24
2,35,0,144
2,30,100,36
2,30,0,156
2,32,100,24
2,32,0,96
2,28,100,24
2,28,0,144
2,28,100,36
2,28,0,156
2,28,100,24
2,28,0,96
2,28,100,24
2,28,0,144
2,28,100,36
2,28,0,156
2,28,100,24
2,28,0,96
2,28,100,24
2,28,0,144
2,28,100,36
2,28,0,156
2,28,100,24
2,28,0,96
2,28,100,24
2,28,0,144
2,23,100,36
2,23,0,156
2,25,100,24
2,25,0,96
2,30,100,24
2,30,0,144
2,30,100,36
2,30,0,156
2,30,100,24
2,30,0,96
2,30,100,24
2,30,0,144
2,30,100,36
2,30,0,156
2,30,100,24
2,30,0,96
2,30,100,24
2,30,0,144
2,30,100,36
2,30,0,156
2,30,100,24
2,30,0,96
2,30,100,24
2,30,0,144
2,30,100,36
2,30,0,156
2,30,100,24
2,30,0,96
2,35,100,24
2,35,0,144
2,35,100,36
2,35,0,156
2,35,100,24
2,35,0,96
2,35,100,24
2,35,0,144
2,35,100,36
2,35,0,156
2,35,100,24
2,35,0,96
2,35,100,24
2,35,0,144
2,35,100,36
2,35,0,156
2,35,100,24
2,35,0,96
2,35,100,24
2,35,0,192
2,34,100,48
2,34,0,192
