track,note,velocity,time
0,49,80,0
0,42,80,0
0,36,80,0
0,62,72,0
0,42,80,6
0,42,0,24
0,42,80,6
0,62,72,0
0,42,0,24
0,62,0,0
0,42,80,6
0,36,0,6
0,49,0,0
0,42,0,18
0,42,80,6
0,36,80,0
0,42,0,24
0,42,80,6
0,42,0,24
0,42,80,6
0,61,72,0
0,42,0,24
0,61,0,0
0,42,80,6
0,61,72,0
0,36,0,6
0,42,0,18
0,61,0,0
0,42,80,6
0,36,80,0
0,61,72,0
0,42,0,24
0,61,0,0
0,42,80,6
0,42,0,24
0,42,80,6
0,62,72,0
0,42,0,24
0,62,0,0
0,42,80,6
0,36,0,6
0,42,0,18
0,42,80,6
0,36,80,0
0,42,0,24
0,42,80,6
0,61,72,0
0,42,0,24
0,61,0,0
0,42,80,6
0,61,72,0
0,42,0,24
0,61,0,0
0,42,80,6
0,61,72,0
0,36,0,6
0,42,0,18
0,61,0,0
0,42,80,6
0,36,80,0
0,61,72,0
0,37,72,0
0,42,0,24
0,61,0,0
0,42,80,6
0,37,0,18
0,42,0,6
0,42,80,6
0,62,72,0
0,37,72,0
0,42,0,24
0,62,0,0
0,42,80,6
0,36,0,6
0,37,0,12
0,42,0,6
0,42,80,6
0,36,80,0
0,42,0,24
0,42,80,6
0,37,72,0
0,42,0,24
0,37,0,0
0,42,80,6
0,61,72,0
0,42,0,24
0,61,0,0
0,42,80,6
0,61,72,0
0,36,0,6
0,42,0,18
0,61,0,0
0,42,80,6
0,36,80,0
0,61,72,0
0,37,72,0
0,42,0,24
0,37,0,0
0,61,0,0
0,42,80,6
0,42,0,24
0,42,80,6
0,62,72,0
0,42,0,24
0,62,0,0
0,42,80,6
0,36,0,6
0,42,0,18
0,42,80,6
0,36,80,0
0,62,72,0
0,42,0,24
0,62,0,0
0,42,80,6
0,62,72,0
0,42,0,24
0,62,0,0
0,42,80,6
0,42,0,24
0,42,80,6
0,36,0,6
0,42,0,18
0,42,80,6
0,36,80,0
0,62,72,0
0,42,0,24
0,62,0,0
0,42,80,6
0,42,0,24
0,42,80,6
0,62,72,0
0,42,0,24
0,62,0,0
0,42,80,6
0,36,0,6
0,42,0,18
0,42,80,6
0,36,80,0
0,42,0,24
0,42,80,6
0,42,0,24
0,42,80,6
0,61,72,0
0,42,0,24
0,61,0,0
0,42,80,6
0,61,72,0
0,36,0,6
0,42,0,18
0,61,0,0
0,42,80,6
0,36,80,0
0,61,72,0
0,42,0,24
0,61,0,0
0,42,80,6
0,42,0,24
0,42,80,6
0,62,72,0
0,42,0,24
0,62,0,0
0,42,80,6
0,36,0,6
0,42,0,18
0,42,80,6
0,36,80,0
0,42,0,24
0,42,80,6
0,61,72,0
0,42,0,24
0,61,0,0
0,42,80,6
0,61,72,0
0,42,0,24
0,61,0,0
0,42,80,6
0,61,72,0
0,36,0,6
0,42,0,18
0,61,0,0
0,42,80,6
0,36,80,0
0,61,72,0
0,37,72,0
0,42,0,24
0,37,0,0
0,61,0,0
0,42,80,6
0,42,0,24
0,42,80,6
0,62,72,0
0,37,72,0
0,42,0,24
0,37,0,0
0,62,0,0
0,42,80,6
0,36,0,6
0,42,0,18
0,42,80,6
0,36,80,0
0,42,0,24
0,42,80,6
0,37,72,0
0,42,0,24
0,37,0,0
0,42,80,6
0,61,72,0
0,42,0,24
0,61,0,0
0,42,80,6
0,61,72,0
0,36,0,6
0,42,0,18
0,61,0,0
0,42,80,6
0,36,80,0
0,61,72,0
0,37,72,0
0,42,0,24
0,37,0,0
0,61,0,0
0,42,80,6
0,42,0,24
0,42,80,6
0,62,72,0
0,42,0,24
0,62,0,0
0,42,80,6
0,36,0,6
0,42,0,18
0,44,80,6
0,36,80,0
0,69,72,0
0,62,72,0
0,39,72,0
0,44,0,24
0,62,0,0
0,42,80,6
0,62,72,0
0,42,0,24
0,62,0,0
0,42,80,6
0,42,0,24
0,44,80,6
0,36,0,6
0,39,0,0
0,69,0,0
0,44,0,18
0,42,80,6
0,36,80,0
0,62,72,0
0,42,0,24
0,62,0,0
0,42,80,6
0,42,0,24
0,42,80,6
0,62,72,0
0,42,0,24
0,62,0,0
0,42,80,6
0,36,0,6
0,42,0,18
0,42,80,6
0,36,80,0
0,42,0,24
0,42,80,6
0,42,0,24
0,42,80,6
0,61,72,0
0,42,0,24
0,61,0,0
0,42,80,6
0,61,72,0
0,36,0,6
0,42,0,18
0,61,0,0
0,42,80,6
0,36,80,0
0,61,72,0
0,42,0,24
0,61,0,0
0,42,80,6
0,42,0,24
0,42,80,6
0,62,72,0
0,42,0,24
0,62,0,0
0,42,80,6
0,36,0,6
0,42,0,18
0,42,80,6
0,36,80,0
0,42,0,24
0,42,80,6
0,61,72,0
0,42,0,24
0,61,0,0
0,42,80,6
0,61,72,0
0,42,0,24
0,61,0,0
0,42,80,6
0,61,72,0
0,36,0,6
0,42,0,18
0,61,0,0
0,42,80,6
0,36,80,0
0,61,72,0
0,37,72,0
0,42,0,24
0,61,0,0
0,42,80,6
0,37,0,18
0,42,0,6
0,42,80,6
0,62,72,0
0,37,72,0
0,42,0,24
0,62,0,0
0,42,80,6
0,36,0,6
0,37,0,12
0,42,0,6
0,42,80,6
0,36,80,0
0,42,0,24
0,42,80,6
0,37,72,0
0,42,0,24
0,37,0,0
0,42,80,6
0,61,72,0
0,42,0,24
0,61,0,0
0,42,80,6
0,61,72,0
0,36,0,6
0,42,0,18
0,61,0,0
0,42,80,6
0,36,80,0
0,61,72,0
0,37,72,0
0,42,0,24
0,37,0,0
0,61,0,0
0,42,80,6
0,42,0,24
0,42,80,6
0,62,72,0
0,42,0,24
0,62,0,0
0,42,80,6
0,36,0,6
0,42,0,18
0,42,80,6
0,36,80,0
0,62,72,0
0,42,0,24
0,62,0,0
0,42,80,6
0,62,72,0
0,42,0,24
0,62,0,0
0,42,80,6
0,42,0,24
0,42,80,6
0,36,0,6
0,42,0,18
0,42,80,6
0,36,80,0
0,62,72,0
0,42,0,24
0,62,0,0
0,42,80,6
0,42,0,24
0,42,80,6
0,62,72,0
0,42,0,24
0,62,0,0
0,42,80,6
0,36,0,6
0,42,0,18
0,42,80,6
0,36,80,0
0,42,0,24
0,42,80,6
0,42,0,24
0,42,80,6
0,61,72,0
0,42,0,24
0,61,0,0
0,42,80,6
0,61,72,0
0,36,0,6
0,42,0,18
0,61,0,0
0,42,80,6
0,36,80,0
0,61,72,0
0,42,0,24
0,61,0,0
0,42,80,6
0,42,0,24
0,42,80,6
0,62,72,0
0,42,0,24
0,62,0,0
0,42,80,6
0,36,0,6
0,42,0,18
0,42,80,6
0,36,80,0
0,42,0,24
0,42,80,6
0,61,72,0
0,42,0,24
0,61,0,0
0,42,80,6
0,61,72,0
0,42,0,24
0,61,0,0
0,42,80,6
0,61,72,0
0,36,0,6
0,42,0,18
0,61,0,0
0,42,80,6
0,36,80,0
0,61,72,0
0,37,72,0
0,42,0,24
0,37,0,0
0,61,0,0
0,42,80,6
0,42,0,24
0,42,80,6
0,62,72,0
0,37,72,0
0,42,0,24
0,37,0,0
0,62,0,0
0,42,80,6
0,36,0,6
0,42,0,18
0,42,80,6
0,36,80,0
0,42,0,24
0,42,80,6
0,37,72,0
0,42,0,24
0,37,0,0
0,42,80,6
0,61,72,0
0,42,0,24
0,61,0,0
0,42,80,6
0,61,72,0
0,36,0,6
0,42,0,18
0,61,0,0
0,42,80,6
0,36,80,0
0,61,72,0
0,37,72,0
0,42,0,24
0,37,0,0
0,61,0,0
0,42,80,6
0,42,0,24
0,42,80,6
0,40,80,0
0,62,72,0
0,42,0,24
0,62,0,0
0,42,80,6
0,36,0,6
0,40,0,12
0,42,0,6
0,44,80,6
0,40,80,0
0,36,80,0
0,69,72,0
0,62,72,0
0,39,72,0
0,44,0,24
0,62,0,0
0,42,80,6
0,62,72,0
0,40,0,18
0,42,0,6
0,62,0,0
0,42,80,6
0,40,80,0
0,42,0,24
0,44,80,6
0,36,0,6
0,39,0,0
0,69,0,0
0,40,0,12
0,44,0,6
0,36,80,6
0,36,80,0
0,42,80,0
0,49,80,0
0,62,72,0
0,42,0,24
0,62,0,0
0,42,80,6
0,42,0,24
0,42,80,6
0,62,72,0
0,42,0,24
0,62,0,0
0,42,80,6
0,36,0,6
0,49,0,0
0,36,0,0
0,42,0,18
0,34,80,6
0,36,80,0
0,40,80,0
0,42,80,0
0,42,0,24
0,42,80,6
0,42,0,24
0,42,80,6
0,61,72,0
0,42,0,24
0,61,0,0
0,42,80,6
0,61,72,0
0,34,0,6
0,40,0,0
0,36,0,0
0,42,0,18
0,61,0,0
0,32,80,6
0,36,80,0
0,42,80,0
0,61,72,0
0,42,0,24
0,61,0,0
0,42,80,6
0,42,0,24
0,42,80,6
0,62,72,0
0,32,0,12
0,42,0,12
0,62,0,0
0,32,80,6
0,42,80,0
0,36,0,6
0,42,0,18
0,36,80,6
0,40,80,0
0,42,80,0
0,42,0,24
0,32,0,6
0,31,80,0
0,42,80,0
0,61,72,0
0,31,0,24
0,42,0,0
0,61,0,0
0,32,80,6
0,42,80,0
0,61,72,0
0,32,0,24
0,42,0,0
0,61,0,0
0,34,80,6
0,42,80,0
0,61,72,0
0,40,0,6
0,36,0,0
0,34,0,18
0,42,0,0
0,61,0,0
0,36,80,6
0,36,80,0
0,42,80,0
0,37,72,0
0,61,72,0
0,42,0,24
0,61,0,0
0,42,80,6
0,36,0,18
0,37,0,0
0,42,0,6
0,36,80,6
0,42,80,0
0,37,72,0
0,62,72,0
0,42,0,24
0,62,0,0
0,42,80,6
0,36,0,6
0,36,0,12
0,37,0,0
0,42,0,6
0,36,80,6
0,40,80,0
0,42,80,0
0,42,0,24
0,34,80,6
0,42,80,0
0,37,72,0
0,42,0,24
0,37,0,0
0,42,80,6
0,61,72,0
0,42,0,24
0,61,0,0
0,42,80,6
0,61,72,0
0,40,0,6
0,36,0,0
0,34,0,6
0,42,0,12
0,61,0,0
0,32,80,6
0,36,80,0
0,42,80,0
0,37,72,0
0,61,72,0
0,42,0,24
0,61,0,0
0,37,0,0
0,42,80,6
0,42,0,24
0,42,80,6
0,62,72,0
0,32,0,12
0,42,0,12
0,62,0,0
0,32,80,6
0,42,80,0
0,36,0,6
0,42,0,18
0,36,80,6
0,40,80,0
0,42,80,0
0,62,72,0
0,42,0,24
0,62,0,0
0,32,0,6
0,31,80,0
0,42,80,0
0,62,72,0
0,31,0,24
0,42,0,0
0,62,0,0
0,34,80,6
0,42,80,0
0,42,0,24
0,42,80,6
0,40,0,6
0,36,0,0
0,34,0,12
0,42,0,6
0,36,80,6
0,36,80,0
0,42,80,0
0,62,72,0
0,42,0,24
0,62,0,0
0,42,80,6
0,42,0,24
0,42,80,6
0,62,72,0
0,42,0,24
0,62,0,0
0,42,80,6
0,36,0,6
0,36,0,0
0,42,0,18
0,34,80,6
0,36,80,0
0,40,80,0
0,42,80,0
0,42,0,24
0,42,80,6
0,42,0,24
0,42,80,6
0,61,72,0
0,42,0,24
0,61,0,0
0,42,80,6
0,61,72,0
0,34,0,6
0,40,0,0
0,36,0,0
0,42,0,18
0,61,0,0
0,32,80,6
0,36,80,0
0,42,80,0
0,61,72,0
0,42,0,24
0,61,0,0
0,42,80,6
0,42,0,24
0,42,80,6
0,62,72,0
0,32,0,12
0,42,0,12
0,62,0,0
0,32,80,6
0,42,80,0
0,36,0,6
0,42,0,18
0,36,80,6
0,40,80,0
0,42,80,0
0,42,0,24
0,32,0,6
0,31,80,0
0,42,80,0
0,61,72,0
0,31,0,24
0,42,0,0
0,61,0,0
0,32,80,6
0,42,80,0
0,61,72,0
0,32,0,24
0,42,0,0
0,61,0,0
0,34,80,6
0,42,80,0
0,61,72,0
0,40,0,6
0,36,0,0
0,34,0,18
0,42,0,0
0,61,0,0
0,36,80,6
0,36,80,0
0,42,80,0
0,37,72,0
0,61,72,0
0,42,0,24
0,61,0,0
0,37,0,0
0,42,80,6
0,36,0,18
0,42,0,6
0,36,80,6
0,42,80,0
0,37,72,0
0,62,72,0
0,42,0,24
0,62,0,0
0,37,0,0
0,42,80,6
0,36,0,6
0,36,0,12
0,42,0,6
0,36,80,6
0,40,80,0
0,42,80,0
0,42,0,24
0,34,80,6
0,42,80,0
0,37,72,0
0,42,0,24
0,37,0,0
0,42,80,6
0,61,72,0
0,34,0,18
0,42,0,6
0,61,0,0
0,34,80,6
0,42,80,0
0,61,72,0
0,40,0,6
0,36,0,0
0,34,0,18
0,42,0,0
0,61,0,0
0,29,80,6
0,36,80,0
0,42,80,0
0,37,72,0
0,61,72,0
0,29,0,24
0,42,0,0
0,61,0,0
0,37,0,0
0,41,80,6
0,42,80,0
0,41,0,24
0,42,0,0
0,30,80,6
0,42,80,0
0,62,72,0
0,42,0,24
0,62,0,0
0,42,80,6
0,36,0,6
0,30,0,12
0,42,0,6
0,60,64,6
0,67,64,0
0,63,64,0
0,70,64,0
0,31,80,0
0,36,80,0
0,40,80,0
0,44,80,0
0,39,72,0
0,62,72,0
0,69,72,0
0,70,0,24
0,60,0,0
0,67,0,0
0,63,0,0
0,31,0,0
0,44,0,0
0,62,0,0
0,60,64,6
0,63,64,0
0,67,64,0
0,70,64,0
0,43,80,0
0,42,80,0
0,62,72,0
0,70,0,24
0,60,0,0
0,63,0,0
0,67,0,0
0,43,0,0
0,42,0,0
0,62,0,0
0,60,64,6
0,63,64,0
0,67,64,0
0,70,64,0
0,34,80,0
0,42,80,0
0,70,0,24
0,60,0,0
0,63,0,0
0,67,0,0
0,34,0,0
0,42,0,0
0,60,64,6
0,63,64,0
0,67,64,0
0,70,64,0
0,39,80,0
0,44,80,0
0,40,0,6
0,36,0,0
0,69,0,0
0,39,0,0
0,70,0,18
0,60,0,0
0,63,0,0
0,67,0,0
0,39,0,0
0,44,0,0
0,36,80,6
0,36,80,0
0,42,80,0
0,62,72,0
0,42,0,24
0,62,0,0
0,42,80,6
0,42,0,24
0,42,80,6
0,62,72,0
0,42,0,24
0,62,0,0
0,42,80,6
0,36,0,6
0,36,0,0
0,42,0,18
0,34,80,6
0,36,80,0
0,40,80,0
0,42,80,0
0,42,0,24
0,42,80,6
0,42,0,24
0,42,80,6
0,61,72,0
0,42,0,24
0,61,0,0
0,42,80,6
0,61,72,0
0,34,0,6
0,40,0,0
0,36,0,0
0,42,0,18
0,61,0,0
0,32,80,6
0,36,80,0
0,42,80,0
0,61,72,0
0,42,0,24
0,61,0,0
0,42,80,6
0,42,0,24
0,42,80,6
0,62,72,0
0,32,0,12
0,42,0,12
0,62,0,0
0,32,80,6
0,42,80,0
0,36,0,6
0,42,0,18
0,36,80,6
0,40,80,0
0,42,80,0
0,42,0,24
0,32,0,6
0,31,80,0
0,42,80,0
0,61,72,0
0,31,0,24
0,42,0,0
0,61,0,0
0,32,80,6
0,42,80,0
0,61,72,0
0,32,0,24
0,42,0,0
0,61,0,0
0,34,80,6
0,42,80,0
0,61,72,0
0,40,0,6
0,36,0,0
0,34,0,18
0,42,0,0
0,61,0,0
0,36,80,6
0,36,80,0
0,42,80,0
0,37,72,0
0,61,72,0
0,42,0,24
0,61,0,0
0,42,80,6
0,36,0,18
0,37,0,0
0,42,0,6
0,36,80,6
0,42,80,0
0,37,72,0
0,62,72,0
0,42,0,24
0,62,0,0
0,42,80,6
0,36,0,6
0,36,0,12
0,37,0,0
0,42,0,6
0,36,80,6
0,40,80,0
0,42,80,0
0,42,0,24
0,34,80,6
0,42,80,0
0,37,72,0
0,42,0,24
0,37,0,0
0,42,80,6
0,61,72,0
0,42,0,24
0,61,0,0
0,42,80,6
0,61,72,0
0,40,0,6
0,36,0,0
0,34,0,6
0,42,0,12
0,61,0,0
0,32,80,6
0,36,80,0
0,42,80,0
0,37,72,0
0,61,72,0
0,42,0,24
0,61,0,0
0,37,0,0
0,42,80,6
0,42,0,24
0,42,80,6
0,62,72,0
0,32,0,12
0,42,0,12
0,62,0,0
0,32,80,6
0,42,80,0
0,36,0,6
