track,note,velocity,time
0,36,127,764
0,38,114,172
0,38,125,12
0,36,122,380
0,36,127,0
0,49,113,0
0,42,77,28
0,48,100,188
0,53,88,0
0,55,99,0
0,36,124,0
0,60,101,0
0,65,105,0
0,67,97,0
0,38,122,0
0,42,61,0
0,48,102,28
0,53,99,0
0,55,97,0
0,60,108,0
0,65,96,0
0,67,107,0
0,42,77,0
0,31,119,108
0,36,126,0
0,42,68,0
0,36,115,28
0,42,68,0
0,48,103,124
0,53,88,0
0,55,99,0
0,60,99,0
0,65,112,0
0,67,106,0
0,38,127,0
0,42,65,0
0,48,89,108
0,53,93,0
0,55,87,0
0,31,109,0
0,60,102,0
0,65,106,0
0,67,107,0
0,42,60,0
0,36,109,28
0,36,127,0
0,42,71,0
0,42,58,28
0,48,100,188
0,52,86,0
0,55,97,0
0,36,112,0
0,60,95,0
0,64,106,0
0,67,98,0
0,38,120,0
0,42,63,0
0,48,99,28
0,52,89,0
0,55,95,0
0,60,100,0
0,64,113,0
0,67,106,0
0,42,76,0
0,31,118,84
0,36,127,0
0,42,58,0
0,36,123,28
0,42,63,0
0,48,105,124
0,52,100,0
0,55,90,0
0,39,93,0
0,60,98,0
0,64,101,0
0,67,107,0
0,38,114,0
0,42,68,0
0,48,101,108
0,52,101,0
0,55,102,0
0,31,107,0
0,60,102,0
0,64,102,0
0,67,104,0
0,42,59,0
0,36,122,28
0,36,122,0
0,42,58,0
0,42,66,28
0,48,105,188
0,53,98,0
0,55,95,0
0,36,109,0
0,60,113,0
0,65,103,0
0,67,109,0
0,38,123,0
0,42,68,0
0,48,104,28
0,53,91,0
0,55,91,0
0,60,101,0
0,65,100,0
0,67,97,0
0,42,75,0
0,31,125,108
0,36,127,0
0,42,66,0
0,36,116,28
0,42,59,0
0,48,86,124
0,53,102,0
0,55,96,0
0,60,98,0
0,65,111,0
0,67,110,0
0,38,114,0
0,42,66,0
0,48,96,108
0,53,99,0
0,55,91,0
0,31,124,0
0,60,98,0
0,65,114,0
0,67,99,0
0,42,69,0
0,36,125,28
0,36,127,0
0,42,64,0
0,42,60,28
0,48,88,188
0,52,93,0
0,55,96,0
0,36,116,0
0,60,113,0
0,64,107,0
0,67,110,0
0,38,122,0
0,42,75,0
0,48,93,28
0,52,96,0
0,55,91,0
0,60,101,0
0,64,95,0
0,67,108,0
0,42,62,0
0,31,122,108
0,36,119,0
0,46,109,0
0,36,122,28
0,42,62,0
0,48,89,124
0,52,91,0
0,55,86,0
0,39,94,0
0,60,104,0
0,64,113,0
0,67,105,0
0,38,117,0
0,46,107,0
0,48,98,108
0,52,86,0
0,55,97,0
0,31,107,0
0,60,97,0
0,64,111,0
0,67,101,0
0,42,72,0
0,67,103,28
0,70,93,0
0,36,124,0
0,36,124,0
0,42,77,0
0,42,66,28
0,48,104,188
0,53,102,0
0,55,96,0
0,36,121,0
0,60,112,0
0,65,111,0
0,67,110,0
0,38,123,0
0,42,73,0
0,48,103,28
0,53,97,0
0,55,101,0
0,60,102,0
0,65,102,0
0,67,106,0
0,42,72,0
0,31,118,108
0,36,127,0
0,42,73,0
0,36,110,12
0,42,61,0
0,48,98,124
0,53,105,0
0,55,101,0
0,60,108,0
0,65,108,0
0,67,108,0
0,38,113,0
0,42,71,0
0,48,92,108
0,53,105,0
0,55,93,0
0,31,107,0
0,60,96,0
0,65,95,0
0,67,112,0
0,42,77,0
0,60,105,28
0,67,98,0
0,36,111,0
0,36,121,0
0,42,66,0
0,42,66,12
0,48,87,188
0,52,98,0
0,55,98,0
0,36,115,0
0,60,113,0
0,64,101,0
0,67,97,0
0,38,114,0
0,42,76,0
0,48,93,28
0,52,89,0
0,55,98,0
0,60,104,0
0,64,110,0
0,67,114,0
0,42,61,0
0,31,121,108
0,36,124,0
0,42,76,0
0,36,114,28
0,42,67,0
0,48,93,124
0,52,90,0
0,55,102,0
0,67,100,0
0,72,94,0
0,60,105,0
0,64,108,0
0,67,95,0
0,38,123,0
0,42,70,0
0,48,100,12
0,52,89,0
0,55,88,0
0,31,125,0
0,60,102,0
0,64,113,0
0,67,104,0
0,42,66,0
0,67,102,28
0,70,91,0
0,36,124,0
0,36,127,0
0,42,73,0
0,42,60,28
0,48,87,188
0,53,102,0
0,55,89,0
0,36,121,0
0,60,103,0
0,65,103,0
0,67,98,0
0,38,119,0
0,42,67,0
0,48,86,28
0,53,100,0
0,55,98,0
0,60,102,0
0,65,105,0
0,67,97,0
0,42,74,0
0,31,112,108
0,36,123,0
0,42,69,0
0,36,113,28
0,42,65,0
0,48,101,12
0,53,94,0
0,55,96,0
0,60,114,0
0,65,107,0
0,67,113,0
0,38,118,0
0,42,67,0
0,48,103,108
0,53,91,0
0,55,99,0
0,31,126,0
0,60,107,0
0,65,95,0
0,67,107,0
0,42,72,0
0,60,96,28
0,67,91,0
0,36,111,0
0,36,127,0
0,42,77,0
0,45,111,0
0,42,60,12
0,45,117,0
0,48,88,188
0,52,96,0
0,55,93,0
0,36,124,0
0,60,110,0
0,64,109,0
0,67,99,0
0,38,127,0
0,42,59,0
0,48,103,28
0,52,95,0
0,55,90,0
0,60,105,0
0,64,105,0
0,67,98,0
0,42,76,0
0,31,125,108
0,36,127,0
0,45,115,0
0,46,110,0
0,36,110,28
0,42,74,0
0,45,120,0
0,48,95,124
0,52,89,0
0,55,105,0
0,60,107,0
0,64,102,0
0,67,95,0
0,41,118,0
0,46,112,0
0,48,90,108
0,52,89,0
0,55,99,0
0,31,126,0
0,60,108,0
0,64,113,0
0,67,114,0
0,41,115,0
0,42,71,0
0,46,122,28
0,67,101,0
0,70,109,0
0,36,124,0
0,36,127,0
0,49,108,0
0,42,76,16
0,48,86,188
0,53,102,0
0,55,95,0
0,36,122,0
0,60,104,0
0,65,110,0
0,67,110,0
0,38,120,0
0,42,73,0
0,53,123,12
0,48,100,0
0,53,95,0
0,55,102,0
0,60,106,0
0,65,97,0
0,67,98,0
0,42,60,0
0,31,117,108
0,36,125,0
0,42,61,0
0,36,113,12
0,42,66,0
0,48,98,112
0,53,90,0
0,55,91,0
0,60,96,0
0,65,102,0
0,67,95,0
0,38,127,0
0,42,71,0
0,48,97,12
0,53,104,0
0,55,92,0
0,31,119,0
0,60,106,0
0,65,109,0
0,67,105,0
0,42,74,0
0,52,123,16
0,60,97,0
0,67,109,0
0,36,125,0
0,36,125,0
0,42,62,0
0,50,119,12
0,42,73,0
0,48,127,12
0,48,101,0
0,52,99,0
0,55,97,0
0,36,115,0
0,60,112,0
0,64,112,0
0,67,99,0
0,38,127,0
0,42,71,0
0,48,105,12
0,52,102,0
0,55,95,0
0,60,102,0
0,64,101,0
0,67,112,0
0,42,72,0
0,48,112,108
0,31,108,0
0,36,127,0
0,46,119,0
0,36,124,12
0,42,68,0
0,48,105,112
0,52,102,0
0,55,87,0
0,67,95,0
0,72,107,0
0,60,114,0
0,64,106,0
0,67,105,0
0,38,121,0
0,46,118,0
0,48,99,12
0,52,94,0
0,55,101,0
0,31,126,0
0,60,96,0
0,64,106,0
0,67,99,0
0,42,72,0
0,46,124,16
0,67,93,0
0,70,104,0
0,36,112,0
0,36,122,0
0,42,75,0
0,42,74,16
0,48,93,188
0,53,98,0
0,55,99,0
0,36,111,0
0,60,108,0
0,65,106,0
0,67,106,0
0,38,124,0
0,42,70,0
0,53,127,12
0,48,105,0
0,53,93,0
0,55,94,0
0,60,102,0
0,65,100,0
0,67,104,0
0,42,64,0
0,31,107,108
0,36,127,0
0,42,75,0
0,36,120,16
0,42,71,0
0,48,89,12
0,53,104,0
0,55,87,0
0,60,113,0
0,65,103,0
0,67,97,0
0,38,115,0
0,42,60,0
0,48,93,108
0,53,89,0
0,55,105,0
0,31,119,0
0,60,103,0
0,65,108,0
0,67,105,0
0,42,73,0
0,52,122,12
0,60,93,0
0,67,109,0
0,36,111,0
0,36,125,0
0,42,58,0
0,50,119,12
0,42,60,0
0,57,123,12
0,48,95,0
0,52,97,0
0,55,93,0
0,36,113,0
0,60,114,0
0,64,104,0
0,67,109,0
0,38,116,0
0,42,58,0
0,48,103,12
0,52,89,0
0,55,94,0
0,60,97,0
0,64,114,0
0,67,112,0
0,42,71,0
0,55,116,108
0,31,126,0
0,36,127,0
0,42,58,0
0,81,99,16
0,36,114,0
0,42,69,0
0,48,98,108
0,52,98,0
0,55,102,0
0,60,95,0
0,64,95,0
0,67,99,0
0,38,127,0
0,42,74,0
0,48,102,108
0,52,93,0
0,55,87,0
0,81,93,0
0,31,107,0
0,60,111,0
0,64,112,0
0,67,106,0
0,42,73,0
0,58,127,16
0,67,105,0
0,70,95,0
0,36,107,0
0,36,120,0
0,42,72,0
0,42,66,16
0,48,87,188
0,53,99,0
0,55,102,0
0,36,113,0
0,60,101,0
0,65,103,0
0,67,106,0
0,38,127,0
0,42,68,0
0,65,124,12
0,48,87,0
0,53,94,0
0,55,101,0
0,60,113,0
0,65,101,0
0,67,96,0
0,42,60,0
0,31,114,108
0,36,127,0
0,42,65,0
0,36,110,12
0,42,62,0
0,48,86,112
0,53,93,0
0,55,100,0
0,60,98,0
0,65,111,0
0,67,100,0
0,38,127,0
0,42,71,0
0,48,94,108
0,53,103,0
0,55,98,0
0,31,121,0
0,60,95,0
0,65,109,0
0,67,105,0
0,42,73,0
0,64,122,12
0,60,100,0
0,67,91,0
0,36,124,0
0,36,127,0
0,42,63,0
0,62,118,12
0,42,62,0
0,60,125,12
0,48,92,0
0,52,98,0
0,55,94,0
0,36,111,0
0,60,103,0
0,64,96,0
0,67,108,0
0,38,113,0
0,42,74,0
0,48,86,12
0,52,94,0
0,55,95,0
0,60,114,0
0,64,114,0
0,67,110,0
0,42,64,0
0,60,118,108
0,31,109,0
0,36,127,0
0,46,108,0
0,36,125,12
0,42,64,0
0,48,98,112
0,52,99,0
0,55,102,0
0,67,105,0
0,72,109,0
0,60,98,0
0,64,97,0
0,67,98,0
0,38,113,0
0,46,121,0
0,48,101,12
0,52,102,0
0,55,103,0
0,31,119,0
0,60,104,0
0,64,101,0
0,67,111,0
0,42,63,0
0,58,127,16
0,67,98,0
0,70,104,0
0,36,112,0
0,36,127,0
0,42,63,0
0,42,69,16
0,48,92,188
0,53,103,0
0,55,94,0
0,36,124,0
0,60,106,0
0,65,99,0
0,67,96,0
0,38,122,0
0,42,63,0
0,65,112,12
0,48,87,0
0,53,88,0
0,55,90,0
0,60,104,0
0,65,101,0
0,67,99,0
0,42,66,0
0,31,113,108
0,36,122,0
0,42,60,0
0,36,107,16
0,42,62,0
0,65,124,12
0,48,102,0
0,53,102,0
0,55,95,0
0,60,105,0
0,65,103,0
0,67,96,0
0,38,122,0
0,42,74,0
0,64,126,12
0,65,119,12
0,48,94,0
0,53,91,0
0,55,91,0
0,31,107,0
0,60,96,0
0,65,109,0
0,67,98,0
0,42,69,0
0,64,120,12
0,60,112,12
0,60,96,0
0,67,109,0
0,36,123,0
0,36,127,0
0,42,61,0
0,42,63,12
0,48,93,188
0,52,86,0
0,55,100,0
0,36,118,0
0,60,113,0
0,64,95,0
0,67,103,0
0,38,116,0
0,42,73,0
0,48,87,16
0,52,101,0
0,55,102,0
0,60,103,0
0,64,107,0
0,67,104,0
0,42,62,0
0,31,119,108
0,36,120,0
0,42,72,0
0,81,94,16
0,36,117,0
0,42,74,0
0,48,93,108
0,52,102,0
0,55,100,0
0,60,97,0
0,64,102,0
0,67,97,0
0,38,127,0
0,42,73,0
0,48,86,108
0,52,86,0
0,55,103,0
0,81,94,0
0,31,124,0
0,60,112,0
0,64,106,0
0,67,107,0
0,36,127,0
0,57,108,0
0,64,120,16
0,36,126,0
0,36,127,0
0,49,112,0
0,65,117,16
0,42,63,0
0,48,97,188
0,53,98,0
0,55,101,0
0,36,107,0
0,60,99,0
0,65,108,0
0,67,100,0
0,38,126,0
0,42,74,0
0,64,127,16
0,48,90,0
0,53,95,0
0,55,97,0
0,60,114,0
0,65,106,0
0,67,107,0
0,42,62,0
0,31,112,108
0,36,126,0
0,42,59,0
0,65,123,16
0,36,122,0
0,42,62,0
0,48,101,112
0,53,101,0
0,55,95,0
0,60,102,0
0,65,106,0
0,67,114,0
0,38,127,0
0,42,73,0
0,67,121,16
0,48,95,0
0,53,97,0
0,55,102,0
0,31,107,0
0,60,104,0
0,65,111,0
0,67,103,0
0,42,68,0
0,36,109,16
0,36,127,0
0,42,58,0
0,69,115,16
0,42,67,0
0,48,89,188
0,52,97,0
0,55,95,0
0,36,112,0
0,60,111,0
0,64,104,0
0,67,107,0
0,38,126,0
0,42,61,0
0,67,127,16
0,48,86,0
0,52,105,0
0,55,97,0
0,60,113,0
0,64,111,0
0,67,108,0
0,42,72,0
0,31,122,108
0,36,127,0
0,46,115,0
0,69,126,16
0,36,114,0
0,42,70,0
0,48,99,16
0,52,90,0
0,55,96,0
0,60,105,0
0,64,95,0
0,67,114,0
0,38,127,0
0,46,116,0
0,70,127,108
0,48,91,0
0,52,93,0
0,55,103,0
0,29,121,0
0,60,99,0
0,64,112,0
0,67,96,0
0,42,72,0
0,34,112,16
0,36,127,0
0,42,74,0
0,42,73,16
0,69,115,16
0,46,87,0
0,50,86,0
0,53,103,0
0,34,115,0
0,58,113,0
0,62,109,0
0,65,109,0
0,38,127,0
0,42,60,0
0,46,88,16
0,50,96,0
0,53,96,0
0,58,105,0
0,62,97,0
0,65,97,0
0,42,65,0
0,67,109,16
0,29,126,0
0,36,121,0
0,42,69,0
0,65,112,16
0,34,108,0
0,42,68,0
0,46,95,112
0,50,92,0
0,53,100,0
0,58,98,0
0,62,105,0
0,65,96,0
0,38,121,0
0,42,76,0
0,67,116,16
0,46,99,0
0,50,91,0
0,53,100,0
0,28,113,0
0,58,114,0
0,62,113,0
0,65,108,0
0,42,76,0
0,33,122,16
0,36,127,0
0,42,58,0
0,62,116,16
0,42,63,0
0,64,123,16
0,45,105,0
0,48,88,0
0,52,89,0
0,33,119,0
0,57,111,0
0,60,100,0
0,64,101,0
0,38,115,0
0,42,67,0
0,45,94,16
0,48,86,0
0,52,105,0
0,57,103,0
0,60,103,0
0,64,103,0
0,42,60,0
0,28,109,108
0,36,123,0
0,42,67,0
0,33,119,16
0,42,72,0
0,45,92,112
0,48,91,0
0,52,103,0
0,57,99,0
0,60,104,0
0,64,105,0
0,38,127,0
0,42,67,0
0,60,121,108
0,45,93,0
0,48,100,0
0,52,95,0
0,31,120,0
0,57,112,0
0,60,106,0
0,64,99,0
0,42,75,0
0,64,114,16
0,36,115,0
0,36,127,0
0,42,74,0
0,65,114,16
0,42,72,0
0,48,99,188
0,53,94,0
0,55,96,0
0,36,113,0
0,60,111,0
0,65,97,0
0,67,111,0
0,38,124,0
0,42,70,0
0,64,115,16
0,48,104,0
0,53,91,0
0,55,90,0
0,60,114,0
0,65,101,0
0,67,96,0
0,42,68,0
0,31,116,108
0,36,123,0
0,42,58,0
0,65,122,16
0,36,112,0
0,42,61,0
0,48,100,112
0,53,97,0
0,55,97,0
0,60,114,0
0,65,113,0
0,67,102,0
0,38,122,0
0,42,62,0
0,67,121,16
0,48,97,0
0,53,105,0
0,55,93,0
0,31,123,0
0,60,107,0
0,65,104,0
0,67,107,0
0,42,68,0
0,36,119,16
0,36,127,0
0,42,64,0
0,69,113,16
0,42,77,0
0,48,99,188
0,52,89,0
0,55,89,0
0,36,120,0
0,60,98,0
0,64,100,0
0,67,112,0
0,38,127,0
0,42,74,0
0,67,113,16
0,48,87,0
0,52,96,0
0,55,94,0
0,60,109,0
0,64,110,0
0,67,104,0
0,42,58,0
0,31,111,108
0,36,121,0
0,42,77,0
0,69,113,16
0,36,123,0
0,42,76,0
0,48,103,16
0,52,100,0
0,55,97,0
0,60,97,0
0,64,110,0
0,67,107,0
0,38,120,0
0,42,75,0
0,64,110,108
0,69,116,0
0,72,112,0
0,48,100,0
0,52,100,0
0,55,105,0
0,36,122,0
0,60,108,0
0,64,108,0
0,67,105,0
0,42,72,0
0,38,108,16
