track,note,velocity,time
0,36,80,300
0,36,0,48
0,38,80,12
0,38,0,96
0,36,80,24
0,36,80,0
0,49,80,0
0,36,0,48
0,49,0,0
0,42,80,12
0,36,0,36
0,42,0,12
0,36,80,12
0,38,80,0
0,36,0,48
0,42,80,12
0,38,0,36
0,42,0,12
0,31,80,12
0,36,80,0
0,31,0,48
0,36,80,12
0,42,80,0
0,36,0,36
0,36,0,12
0,42,0,0
0,38,80,12
0,31,80,60
0,42,80,0
0,38,0,36
0,31,0,12
0,42,0,0
0,36,80,12
0,36,80,0
0,36,0,48
0,42,80,12
0,36,0,36
0,42,0,12
0,36,80,12
0,38,80,0
0,36,0,48
0,42,80,12
0,38,0,36
0,42,0,12
0,31,80,12
0,36,80,0
0,31,0,48
0,36,80,12
0,42,80,0
0,36,0,36
0,36,0,12
0,42,0,0
0,38,80,12
0,39,80,0
0,31,80,60
0,42,80,0
0,38,0,36
0,39,0,0
0,31,0,12
0,42,0,0
0,36,80,12
0,36,80,0
0,36,0,48
0,42,80,12
0,36,0,36
0,42,0,12
0,36,80,12
0,38,80,0
0,36,0,48
0,42,80,12
0,38,0,36
0,42,0,12
0,31,80,12
0,36,80,0
0,31,0,48
0,36,80,12
0,42,80,0
0,36,0,36
0,36,0,12
0,42,0,0
0,38,80,12
0,31,80,60
0,42,80,0
0,38,0,36
0,31,0,12
0,42,0,0
0,36,80,12
0,36,80,0
0,36,0,48
0,42,80,12
0,36,0,36
0,42,0,12
0,36,80,12
0,38,80,0
0,36,0,48
0,42,80,12
0,38,0,36
0,42,0,12
0,31,80,12
0,36,80,0
0,46,80,0
0,31,0,48
0,46,0,0
0,36,80,12
0,42,80,0
0,36,0,36
0,36,0,12
0,42,0,0
0,38,80,12
0,46,80,0
0,39,80,0
0,46,0,48
0,31,80,12
0,42,80,0
0,38,0,36
0,39,0,0
0,31,0,12
0,42,0,0
0,36,80,12
0,67,80,0
0,70,80,0
0,36,80,0
0,36,0,48
0,42,80,12
0,36,0,36
0,42,0,12
0,55,80,12
0,60,80,0
0,58,80,0
0,65,80,0
0,36,80,0
0,38,80,0
0,65,0,30
0,55,0,0
0,60,0,0
0,58,0,0
0,36,0,18
0,65,80,12
0,60,80,0
0,58,80,0
0,55,80,0
0,42,80,0
0,55,0,30
0,65,0,0
0,60,0,0
0,58,0,0
0,38,0,6
0,42,0,12
0,31,80,12
0,36,80,0
0,31,0,48
0,36,80,12
0,42,80,0
0,36,0,36
0,36,0,12
0,42,0,0
0,55,80,12
0,65,80,0
0,60,80,0
0,58,80,0
0,38,80,0
0,58,0,30
0,55,0,0
0,65,0,0
0,60,0,0
0,65,80,30
0,55,80,0
0,58,80,0
0,60,80,0
0,31,80,0
0,42,80,0
0,60,0,30
0,65,0,0
0,55,0,0
0,58,0,0
0,38,0,6
0,31,0,12
0,42,0,0
0,36,80,12
0,70,0,0
0,67,0,0
0,64,80,0
0,67,80,0
0,36,80,0
0,36,0,48
0,67,0,0
0,64,0,0
0,42,80,12
0,36,0,36
0,42,0,12
0,64,80,12
0,60,80,0
0,55,80,0
0,36,80,0
0,38,80,0
0,55,0,30
0,60,0,0
0,64,0,0
0,36,0,18
0,64,80,12
0,60,80,0
0,55,80,0
0,42,80,0
0,55,0,30
0,60,0,0
0,64,0,0
0,38,0,6
0,42,0,12
0,31,80,12
0,36,80,0
0,31,0,48
0,36,80,12
0,42,80,0
0,36,0,36
0,36,0,12
0,42,0,0
0,64,80,12
0,55,80,0
0,60,80,0
0,67,80,0
0,72,80,0
0,38,80,0
0,60,0,30
0,55,0,0
0,64,0,0
0,55,80,30
0,64,80,0
0,60,80,0
0,31,80,0
0,42,80,0
0,60,0,30
0,64,0,0
0,55,0,0
0,38,0,6
0,31,0,12
0,42,0,0
0,36,80,12
0,72,0,0
0,67,0,0
0,70,80,0
0,67,80,0
0,36,80,0
0,36,0,48
0,42,80,12
0,36,0,36
0,42,0,12
0,65,80,12
0,58,80,0
0,60,80,0
0,55,80,0
0,36,80,0
0,38,80,0
0,55,0,30
0,65,0,0
0,58,0,0
0,60,0,0
0,36,0,18
0,55,80,12
0,58,80,0
0,60,80,0
0,65,80,0
0,42,80,0
0,65,0,30
0,55,0,0
0,58,0,0
0,60,0,0
0,38,0,6
0,42,0,12
0,31,80,12
0,36,80,0
0,31,0,48
0,36,80,12
0,42,80,0
0,36,0,36
0,36,0,12
0,42,0,0
0,58,80,12
0,60,80,0
0,65,80,0
0,55,80,0
0,38,80,0
0,55,0,30
0,58,0,0
0,60,0,0
0,65,0,0
0,60,80,30
0,58,80,0
0,55,80,0
0,65,80,0
0,31,80,0
0,42,80,0
0,65,0,30
0,60,0,0
0,58,0,0
0,55,0,0
0,38,0,6
0,31,0,12
0,42,0,0
0,36,80,12
0,67,0,0
0,70,0,0
0,67,80,0
0,64,80,0
0,36,80,0
0,36,0,48
0,64,0,0
0,67,0,0
0,36,0,0
0,47,80,12
0,38,80,0
0,42,80,0
0,38,0,48
0,47,0,0
0,42,0,0
0,55,80,12
0,60,80,0
0,64,80,0
0,36,80,0
0,45,80,0
0,38,80,0
0,64,0,30
0,60,0,0
0,55,0,0
0,36,0,18
0,55,80,12
0,60,80,0
0,64,80,0
0,42,80,0
0,64,0,30
0,60,0,0
0,55,0,0
0,38,0,6
0,45,0,0
0,42,0,12
0,31,80,12
0,36,80,0
0,31,0,48
0,36,0,8
0,36,80,4
0,43,80,0
0,38,80,0
0,42,80,0
0,36,0,48
0,38,0,0
0,43,0,0
0,42,0,0
0,60,80,12
0,55,80,0
0,64,80,0
0,41,80,0
0,38,80,0
0,64,0,30
0,55,0,0
0,60,0,0
0,60,80,30
0,64,80,0
0,55,80,0
0,31,80,0
0,42,80,0
0,55,0,30
0,64,0,0
0,60,0,0
0,38,0,6
0,41,0,0
0,31,0,12
0,42,0,0
0,60,80,12
0,60,80,0
0,36,80,0
0,60,80,0
0,70,80,0
0,67,80,0
0,36,80,0
0,49,80,0
0,36,0,48
0,49,0,0
0,42,80,12
0,36,0,36
0,42,0,12
0,55,80,12
0,60,80,0
0,58,80,0
0,65,80,0
0,36,80,0
0,38,80,0
0,65,0,30
0,55,0,0
0,60,0,0
0,58,0,0
0,36,0,18
0,60,0,12
0,65,80,0
0,65,80,0
0,60,80,0
0,58,80,0
0,55,80,0
0,60,0,0
0,65,80,0
0,60,0,0
0,65,80,0
0,42,80,0
0,55,0,30
0,65,0,0
0,60,0,0
0,58,0,0
0,38,0,6
0,42,0,12
0,31,80,12
0,36,80,0
0,31,0,48
0,36,80,12
0,42,80,0
0,36,0,36
0,36,0,12
0,42,0,0
0,55,80,12
0,65,80,0
0,60,80,0
0,58,80,0
0,38,80,0
0,58,0,30
0,55,0,0
0,65,0,0
0,60,0,0
0,65,80,30
0,55,80,0
0,58,80,0
0,60,80,0
0,31,80,0
0,42,80,0
0,65,0,12
0,65,0,0
0,65,0,0
0,60,0,18
0,65,0,0
0,55,0,0
0,58,0,0
0,38,0,6
0,31,0,12
0,42,0,0
0,64,80,12
0,64,80,0
0,36,80,0
0,64,80,0
0,67,0,0
0,70,0,0
0,67,80,0
0,64,80,0
0,36,80,0
0,64,0,48
0,64,0,0
0,36,0,0
0,64,0,0
0,64,0,0
0,67,0,0
0,62,80,12
0,62,80,0
0,62,80,0
0,42,80,0
0,36,0,36
0,62,0,12
0,62,0,0
0,62,0,0
0,42,0,0
0,60,80,12
0,64,80,0
0,60,80,0
0,55,80,0
0,60,80,0
0,36,80,0
0,60,80,0
0,38,80,0
0,55,0,30
0,60,0,0
0,64,0,0
0,60,0,18
0,60,0,0
0,36,0,0
0,60,0,0
0,64,80,12
0,60,80,0
0,55,80,0
0,42,80,0
0,55,0,30
0,60,0,0
0,64,0,0
0,38,0,6
0,42,0,12
0,60,80,12
0,60,80,0
0,31,80,0
0,60,80,0
0,36,80,0
0,60,0,48
0,60,0,0
0,31,0,0
0,60,0,0
0,36,80,12
0,42,80,0
0,36,0,36
0,36,0,12
0,42,0,0
0,64,80,12
0,55,80,0
0,60,80,0
0,72,80,0
0,67,80,0
0,38,80,0
0,60,0,30
0,55,0,0
0,64,0,0
0,55,80,30
0,64,80,0
0,60,80,0
0,31,80,0
0,42,80,0
0,60,0,30
0,64,0,0
0,55,0,0
0,38,0,6
0,31,0,12
0,42,0,0
0,58,80,12
0,58,80,0
0,36,80,0
0,58,80,0
0,67,0,0
0,72,0,0
0,67,80,0
0,70,80,0
0,36,80,0
0,36,0,48
0,42,80,12
0,36,0,36
0,42,0,12
0,65,80,12
0,58,80,0
0,60,80,0
0,55,80,0
0,36,80,0
0,38,80,0
0,55,0,30
0,65,0,0
0,58,0,0
0,60,0,0
0,36,0,18
0,58,0,12
0,65,80,0
0,55,80,0
0,58,80,0
0,60,80,0
0,65,80,0
0,58,0,0
0,65,80,0
0,58,0,0
0,65,80,0
0,42,80,0
0,65,0,30
0,55,0,0
0,58,0,0
0,60,0,0
0,38,0,6
0,42,0,12
0,31,80,12
0,36,80,0
0,31,0,48
0,36,80,12
0,42,80,0
0,36,0,36
0,36,0,12
0,42,0,0
0,58,80,12
0,60,80,0
0,65,80,0
0,55,80,0
0,38,80,0
0,55,0,30
0,58,0,0
0,60,0,0
0,65,0,0
0,60,80,30
0,58,80,0
0,55,80,0
0,65,80,0
0,31,80,0
0,42,80,0
0,65,0,12
0,65,0,0
0,65,0,0
0,65,0,18
0,60,0,0
0,58,0,0
0,55,0,0
0,38,0,6
0,31,0,12
0,42,0,0
0,64,80,12
0,64,80,0
0,36,80,0
0,64,80,0
0,70,0,0
0,67,0,0
0,64,80,0
0,67,80,0
0,36,80,0
0,64,0,48
0,64,0,0
0,36,0,0
0,64,0,0
0,67,0,0
0,64,0,0
0,62,80,12
0,62,80,0
0,62,80,0
0,42,80,0
0,36,0,36
0,62,0,12
0,62,0,0
0,62,0,0
0,42,0,0
0,69,80,12
0,55,80,0
0,60,80,0
0,64,80,0
0,69,80,0
0,36,80,0
0,69,80,0
0,38,80,0
0,64,0,30
0,60,0,0
0,55,0,0
0,69,0,18
0,69,0,0
0,36,0,0
0,69,0,0
0,55,80,12
0,60,80,0
0,64,80,0
0,42,80,0
0,64,0,30
0,60,0,0
0,55,0,0
0,38,0,6
0,42,0,12
0,67,80,12
0,67,80,0
0,31,80,0
0,67,80,0
0,36,80,0
0,46,80,0
0,67,0,48
0,67,0,0
0,31,0,0
0,67,0,0
0,46,0,0
0,36,80,12
0,96,80,0
0,42,80,0
0,36,0,36
0,36,0,12
0,96,0,0
0,42,0,0
0,60,80,12
0,55,80,0
0,64,80,0
0,38,80,0
0,46,80,0
0,64,0,30
0,55,0,0
0,60,0,0
0,46,0,18
0,60,80,12
0,64,80,0
0,55,80,0
0,31,80,0
0,96,80,0
0,42,80,0
0,55,0,30
0,64,0,0
0,60,0,0
0,38,0,6
0,31,0,12
0,96,0,0
0,42,0,0
0,72,80,12
0,72,80,0
0,36,80,0
0,60,80,0
0,67,80,0
0,70,80,0
0,36,80,0
0,49,80,0
0,36,0,48
0,49,0,0
0,42,80,12
0,36,0,36
0,42,0,12
0,65,80,12
0,58,80,0
0,60,80,0
0,55,80,0
0,36,80,0
0,38,80,0
0,55,0,30
0,65,0,0
0,58,0,0
0,60,0,0
0,36,0,18
0,72,0,12
0,77,80,0
0,55,80,0
0,58,80,0
0,60,80,0
0,65,80,0
0,72,0,0
0,77,80,0
0,60,0,0
0,65,80,0
0,42,80,0
0,65,0,30
0,55,0,0
0,58,0,0
0,60,0,0
0,38,0,6
0,42,0,12
0,31,80,12
0,36,80,0
0,31,0,48
0,36,80,12
0,42,80,0
0,36,0,36
0,36,0,12
0,42,0,0
0,58,80,12
0,60,80,0
0,65,80,0
0,55,80,0
0,38,80,0
0,55,0,30
0,58,0,0
0,60,0,0
0,65,0,0
0,60,80,30
0,58,80,0
0,55,80,0
0,65,80,0
0,31,80,0
0,42,80,0
0,77,0,12
0,77,0,0
0,65,0,0
0,65,0,18
0,60,0,0
0,58,0,0
0,55,0,0
0,38,0,6
0,31,0,12
0,42,0,0
0,76,80,12
0,76,80,0
0,36,80,0
0,64,80,0
0,70,0,0
0,67,0,0
0,64,80,0
0,67,80,0
0,36,80,0
0,76,0,48
0,76,0,0
0,36,0,0
0,64,0,0
0,67,0,0
0,64,0,0
0,74,80,12
0,74,80,0
0,62,80,0
0,42,80,0
0,36,0,36
0,74,0,12
0,74,0,0
0,62,0,0
0,42,0,0
0,72,80,12
0,55,80,0
0,60,80,0
0,64,80,0
0,72,80,0
0,36,80,0
0,60,80,0
0,38,80,0
0,64,0,30
0,60,0,0
0,55,0,0
0,72,0,18
0,72,0,0
0,36,0,0
0,60,0,0
0,55,80,12
0,60,80,0
0,64,80,0
0,42,80,0
0,64,0,30
0,60,0,0
0,55,0,0
0,38,0,6
0,42,0,12
0,72,80,12
0,72,80,0
0,31,80,0
0,60,80,0
0,36,80,0
0,72,0,48
0,72,0,0
0,31,0,0
0,60,0,0
0,36,80,12
0,42,80,0
0,36,0,36
0,36,0,12
0,42,0,0
0,60,80,12
0,55,80,0
0,64,80,0
0,67,80,0
0,72,80,0
0,38,80,0
0,64,0,30
0,55,0,0
0,60,0,0
0,60,80,30
0,64,80,0
0,55,80,0
0,31,80,0
0,42,80,0
0,55,0,30
0,64,0,0
0,60,0,0
0,38,0,6
0,31,0,12
0,42,0,0
0,70,80,12
0,70,80,0
0,36,80,0
0,58,80,0
0,72,0,0
0,67,0,0
0,70,80,0
0,67,80,0
0,36,80,0
0,36,0,48
0,42,80,12
0,36,0,36
0,42,0,12
0,55,80,12
0,60,80,0
0,58,80,0
0,65,80,0
0,36,80,0
0,38,80,0
0,65,0,30
0,55,0,0
0,60,0,0
0,58,0,0
0,36,0,18
0,70,0,12
0,77,80,0
0,65,80,0
0,60,80,0
0,58,80,0
0,55,80,0
0,70,0,0
0,77,80,0
0,58,0,0
0,65,80,0
0,42,80,0
0,55,0,30
0,65,0,0
0,60,0,0
0,58,0,0
0,38,0,6
0,42,0,12
0,31,80,12
0,36,80,0
0,31,0,48
0,36,80,12
0,42,80,0
0,36,0,36
0,36,0,12
0,42,0,0
0,55,80,12
0,65,80,0
0,60,80,0
0,58,80,0
0,38,80,0
0,77,0,24
0,77,0,0
0,65,0,0
0,58,0,6
0,55,0,0
0,65,0,0
0,60,0,0
0,76,80,30
0,65,80,0
0,55,80,0
0,58,80,0
0,60,80,0
0,76,80,0
0,31,80,0
0,64,80,0
0,42,80,0
0,76,0,20
0,77,80,0
0,76,0,0
0,77,80,0
0,64,0,0
0,65,80,0
0,60,0,10
0,65,0,0
0,55,0,0
0,58,0,0
0,38,0,6
0,77,0,4
0,76,80,0
0,77,0,0
0,76,80,0
0,65,0,0
0,64,80,0
0,31,0,8
0,42,0,0
0,76,0,12
0,72,80,0
0,76,0,0
0,72,80,0
0,36,80,0
0,64,0,0
0,60,80,0
0,67,0,0
0,70,0,0
0,67,80,0
0,64,80,0
0,36,80,0
0,36,0,48
0,64,0,0
0,67,0,0
0,36,0,0
0,38,80,12
0,47,80,0
0,42,80,0
0,47,0,48
0,38,0,0
0,42,0,0
0,64,80,12
0,60,80,0
0,55,80,0
0,36,80,0
0,38,80,0
0,45,80,0
0,55,0,30
0,60,0,0
0,64,0,0
0,36,0,18
0,64,80,12
0,60,80,0
0,55,80,0
0,42,80,0
0,55,0,30
0,60,0,0
0,64,0,0
0,45,0,6
0,38,0,0
0,42,0,12
0,31,80,12
0,36,80,0
0,46,80,0
0,31,0,48
0,46,0,0
0,36,0,8
0,36,80,4
0,96,80,0
0,38,80,0
0,43,80,0
0,42,80,0
0,36,0,48
0,96,0,0
0,43,0,0
0,38,0,0
0,42,0,0
0,64,80,12
0,55,80,0
0,60,80,0
0,38,80,0
0,41,80,0
0,46,80,0
0,72,0,24
0,72,0,0
0,60,0,0
0,60,0,6
0,55,0,0
0,64,0,0
0,46,0,18
