track,note,velocity,time
1,61,64,5760
1,64,64,0
1,68,64,0
1,68,0,192
1,64,0,0
1,61,0,0
1,61,64,168
1,64,64,0
1,68,64,0
1,68,0,96
1,64,0,0
1,61,0,0
1,61,64,24
1,64,64,0
1,68,64,0
1,68,0,60
1,64,0,0
1,61,0,0
1,59,64,0
1,63,64,0
1,66,64,0
1,66,0,156
1,63,0,0
1,59,0,0
1,63,64,24
1,59,64,0
1,66,64,0
1,66,0,144
1,59,0,0
1,63,0,0
1,66,64,36
1,63,64,0
1,59,64,0
1,59,0,60
1,63,0,0
1,66,0,0
1,61,64,0
1,64,64,0
1,68,64,0
1,68,0,192
1,64,0,0
1,61,0,0
1,68,64,768
1,64,64,0
1,61,64,0
1,61,0,192
1,64,0,0
1,68,0,0
1,68,64,168
1,64,64,0
1,61,64,0
1,61,0,96
1,64,0,0
1,68,0,0
1,68,64,24
1,64,64,0
1,61,64,0
1,61,0,60
1,64,0,0
1,68,0,0
1,66,64,0
1,63,64,0
1,59,64,0
1,59,0,156
1,63,0,0
1,66,0,0
1,66,64,24
1,59,64,0
1,63,64,0
1,63,0,144
1,59,0,0
1,66,0,0
1,59,64,36
1,63,64,0
1,66,64,0
1,66,0,60
1,63,0,0
1,59,0,0
1,68,64,0
1,64,64,0
1,61,64,0
1,61,0,192
1,64,0,0
1,68,0,0
1,64,80,8448
1,61,80,0
1,56,80,0
1,56,0,288
1,61,0,0
1,64,0,0
1,64,80,72
1,61,80,0
1,56,80,0
1,56,0,96
1,61,0,0
1,64,0,0
1,64,80,24
1,56,80,0
1,59,80,0
1,59,0,144
1,56,0,0
1,64,0,0
1,63,80,36
1,54,80,0
1,59,80,0
1,59,0,156
1,54,0,0
1,63,0,0
1,63,80,24
1,54,80,0
1,59,80,0
1,59,0,96
1,54,0,0
1,63,0,0
1,66,80,24
1,61,80,0
1,57,80,0
1,57,0,288
1,61,0,0
1,66,0,0
1,66,80,72
1,61,80,0
1,57,80,0
1,57,0,96
1,61,0,0
1,66,0,0
1,66,80,24
1,56,80,0
1,59,80,0
1,59,0,144
1,56,0,0
1,66,0,0
1,64,80,36
1,59,80,0
1,56,80,0
1,56,0,156
1,59,0,0
1,64,0,0
1,64,80,24
1,59,80,0
1,56,80,0
1,56,0,96
1,59,0,0
1,64,0,0
1,64,80,24
1,54,80,0
1,59,80,0
1,59,0,144
1,54,0,0
1,64,0,0
1,63,80,36
1,59,80,0
1,54,80,0
1,54,0,156
1,59,0,0
1,63,0,0
1,63,80,24
1,59,80,0
1,54,80,0
1,54,0,96
1,59,0,0
1,63,0,0
1,63,80,24
1,54,80,0
1,59,80,0
1,59,0,144
1,54,0,0
1,63,0,0
1,61,80,36
1,57,80,0
1,54,80,0
1,54,0,156
1,57,0,0
1,61,0,0
1,61,80,24
1,57,80,0
1,54,80,0
1,54,0,96
1,57,0,0
1,61,0,0
1,61,80,24
1,54,80,0
1,57,80,0
1,57,0,144
1,54,0,0
1,61,0,0
1,61,80,36
1,57,80,0
1,54,80,0
1,54,0,156
1,57,0,0
1,61,0,0
1,63,80,24
1,59,80,0
1,54,80,0
1,54,0,96
1,59,0,0
1,63,0,0
1,64,80,24
1,61,80,0
1,56,80,0
1,56,0,144
1,61,0,0
1,64,0,0
1,64,80,36
1,56,80,0
1,61,80,0
1,61,0,252
1,56,0,0
1,64,0,0
1,56,80,48
1,61,80,0
1,64,80,0
1,64,0,288
1,61,0,0
1,56,0,0
1,56,80,72
1,61,80,0
1,64,80,0
1,64,0,96
1,61,0,0
1,56,0,0
1,59,80,24
1,56,80,0
1,64,80,0
1,64,0,144
1,56,0,0
1,59,0,0
1,59,80,36
1,54,80,0
1,63,80,0
1,63,0,156
1,54,0,0
1,59,0,0
1,59,80,24
1,54,80,0
1,63,80,0
1,63,0,96
1,54,0,0
1,59,0,0
1,57,80,24
1,61,80,0
1,66,80,0
1,66,0,288
1,61,0,0
1,57,0,0
1,57,80,72
1,61,80,0
1,66,80,0
1,66,0,96
1,61,0,0
1,57,0,0
1,59,80,24
1,56,80,0
1,66,80,0
1,66,0,144
1,56,0,0
1,59,0,0
1,56,80,36
1,59,80,0
1,64,80,0
1,64,0,156
1,59,0,0
1,56,0,0
1,56,80,24
1,59,80,0
1,64,80,0
1,64,0,96
1,59,0,0
1,56,0,0
1,59,80,24
1,54,80,0
1,64,80,0
1,64,0,144
1,54,0,0
1,59,0,0
1,54,80,36
1,59,80,0
1,63,80,0
1,63,0,156
1,59,0,0
1,54,0,0
1,54,80,24
1,59,80,0
1,63,80,0
1,63,0,96
1,59,0,0
1,54,0,0
1,59,80,24
1,54,80,0
1,63,80,0
1,63,0,144
1,54,0,0
1,59,0,0
1,54,80,36
1,57,80,0
1,61,80,0
1,61,0,156
1,57,0,0
1,54,0,0
1,54,80,24
1,57,80,0
1,61,80,0
1,61,0,96
1,57,0,0
1,54,0,0
1,57,80,24
1,54,80,0
1,61,80,0
1,61,0,144
1,54,0,0
1,57,0,0
1,54,80,36
1,57,80,0
1,61,80,0
1,61,0,156
1,57,0,0
1,54,0,0
1,54,80,24
1,59,80,0
1,63,80,0
1,63,0,96
1,59,0,0
1,54,0,0
1,56,80,24
1,61,80,0
1,64,80,0
1,64,0,144
1,61,0,0
1,56,0,0
1,61,80,36
1,56,80,0
1,64,80,0
1,64,0,252
1,56,0,0
1,61,0,0
1,64,80,408
1,64,0,96
1,64,80,24
1,64,0,60
1,63,80,0
1,63,0,96
1,63,80,24
1,63,0,108
1,64,80,12
1,64,0,96
1,66,80,24
1,66,0,15
1,68,80,0
1,68,0,237
1,69,80,408
1,69,0,48
1,71,80,12
1,71,0,108
1,69,80,12
1,69,0,48
1,68,80,12
1,68,0,96
1,66,80,24
1,66,0,96
1,68,80,24
1,68,0,60
1,64,80,0
1,64,0,156
1,66,80,24
1,66,0,60
1,63,80,0
1,63,0,156
1,64,80,24
1,64,0,60
1,59,80,0
1,59,0,156
1,59,80,24
1,59,0,60
1,61,80,0
1,61,0,252
1,56,80,8448
1,61,80,0
1,64,80,0
1,64,0,288
1,61,0,0
1,56,0,0
1,56,80,72
1,61,80,0
1,64,80,0
1,64,0,96
1,61,0,0
1,56,0,0
1,59,80,24
1,56,80,0
1,64,80,0
1,64,0,144
1,56,0,0
1,59,0,0
1,59,80,36
1,54,80,0
1,63,80,0
1,63,0,156
1,54,0,0
1,59,0,0
1,59,80,24
1,54,80,0
1,63,80,0
1,63,0,96
1,54,0,0
1,59,0,0
1,57,80,24
1,61,80,0
1,66,80,0
1,66,0,288
1,61,0,0
1,57,0,0
1,57,80,72
1,61,80,0
1,66,80,0
1,66,0,96
1,61,0,0
1,57,0,0
1,59,80,24
1,56,80,0
1,66,80,0
1,66,0,144
1,56,0,0
1,59,0,0
1,56,80,36
1,59,80,0
1,64,80,0
1,64,0,156
1,59,0,0
1,56,0,0
1,56,80,24
1,59,80,0
1,64,80,0
1,64,0,96
1,59,0,0
1,56,0,0
1,59,80,24
1,54,80,0
1,64,80,0
1,64,0,144
1,54,0,0
1,59,0,0
1,54,80,36
1,59,80,0
1,63,80,0
1,63,0,156
1,59,0,0
1,54,0,0
1,54,80,24
1,59,80,0
1,63,80,0
1,63,0,96
1,59,0,0
1,54,0,0
1,59,80,24
1,54,80,0
1,63,80,0
1,63,0,144
1,54,0,0
1,59,0,0
1,54,80,36
1,57,80,0
1,61,80,0
1,61,0,156
1,57,0,0
1,54,0,0
1,54,80,24
1,57,80,0
1,61,80,0
1,61,0,96
1,57,0,0
1,54,0,0
1,57,80,24
1,54,80,0
1,61,80,0
1,61,0,144
1,54,0,0
1,57,0,0
1,54,80,36
1,57,80,0
1,61,80,0
1,61,0,156
1,57,0,0
1,54,0,0
1,54,80,24
1,59,80,0
1,63,80,0
1,63,0,96
1,59,0,0
1,54,0,0
1,56,80,24
1,61,80,0
1,64,80,0
1,64,0,144
1,61,0,0
1,56,0,0
1,61,80,36
1,56,80,0
1,64,80,0
1,64,0,252
1,56,0,0
1,61,0,0
1,56,80,48
1,61,80,0
1,64,80,0
1,64,0,288
1,61,0,0
1,56,0,0
1,56,80,72
1,61,80,0
1,64,80,0
1,64,0,96
1,61,0,0
1,56,0,0
1,59,80,24
1,56,80,0
1,64,80,0
1,64,0,144
1,56,0,0
1,59,0,0
1,59,80,36
1,54,80,0
1,63,80,0
1,63,0,156
1,54,0,0
1,59,0,0
1,59,80,24
1,54,80,0
1,63,80,0
1,63,0,96
1,54,0,0
1,59,0,0
1,57,80,24
1,61,80,0
1,66,80,0
1,66,0,288
1,61,0,0
1,57,0,0
1,57,80,72
1,61,80,0
1,66,80,0
1,66,0,96
1,61,0,0
1,57,0,0
1,59,80,24
1,56,80,0
1,66,80,0
1,66,0,144
1,56,0,0
1,59,0,0
1,56,80,36
1,59,80,0
1,64,80,0
1,64,0,156
1,59,0,0
1,56,0,0
1,56,80,24
1,59,80,0
1,64,80,0
1,64,0,96
1,59,0,0
1,56,0,0
1,59,80,24
1,54,80,0
1,64,80,0
1,64,0,144
1,54,0,0
1,59,0,0
1,54,80,36
1,59,80,0
1,63,80,0
1,63,0,156
1,59,0,0
1,54,0,0
1,54,80,24
1,59,80,0
1,63,80,0
1,63,0,96
1,59,0,0
1,54,0,0
1,59,80,24
1,54,80,0
1,63,80,0
1,63,0,144
1,54,0,0
1,59,0,0
1,54,80,36
1,57,80,0
1,61,80,0
1,61,0,156
1,57,0,0
1,54,0,0
1,54,80,24
1,57,80,0
1,61,80,0
1,61,0,96
1,57,0,0
1,54,0,0
1,57,80,24
1,54,80,0
1,61,80,0
1,61,0,144
1,54,0,0
1,57,0,0
1,54,80,36
1,57,80,0
1,61,80,0
1,61,0,156
1,57,0,0
1,54,0,0
1,54,80,24
1,59,80,0
1,63,80,0
1,63,0,96
1,59,0,0
1,54,0,0
1,56,80,24
1,61,80,0
1,64,80,0
1,64,0,144
1,61,0,0
1,56,0,0
1,61,80,36
1,56,80,0
1,64,80,0
1,64,0,252
1,56,0,0
1,61,0,0
1,73,80,228
1,73,0,24
1,73,80,6
1,73,0,24
1,73,80,6
1,73,0,64
1,71,80,16
1,71,0,64
1,71,80,16
1,71,0,64
1,71,80,16
1,71,0,64
1,69,80,16
1,69,0,64
1,68,80,16
1,68,0,64
1,66,80,16
1,66,0,96
1,68,80,24
1,68,0,30
1,69,80,0
1,69,0,30
1,68,80,0
1,68,0,252
1,60,80,408
1,60,0,48
1,61,80,12
1,61,0,48
1,63,80,12
1,63,0,112
1,64,80,8
1,64,0,48
1,66,80,12
1,66,0,156
1,64,80,24
1,64,0,96
1,63,80,24
1,63,0,96
1,64,80,24
1,64,0,56
1,68,80,4
1,68,0,172
1,66,80,8
1,66,0,56
1,64,80,4
1,64,0,156
1,63,80,24
1,63,0,56
1,63,80,4
1,63,0,180
1,64,80,0
1,64,0,30
1,63,80,0
1,63,0,30
1,61,80,0
1,61,0,252
1,61,80,108
1,61,0,48
1,63,80,12
1,63,0,48
1,64,80,12
1,64,0,48
1,66,80,12
1,66,0,48
1,68,80,12
1,68,0,48
1,69,80,12
1,69,0,48
1,71,80,12
1,71,0,48
1,69,80,12
1,69,0,192
1,54,80,48
1,57,80,0
1,61,80,0
1,61,0,192
1,57,0,0
1,54,0,0
1,54,80,288
1,57,80,0
1,62,80,0
1,62,0,192
1,57,0,0
1,54,0,0
1,56,80,288
1,59,80,0
1,64,80,0
1,64,0,192
1,59,0,0
1,56,0,0
1,59,80,288
1,61,80,0
1,66,80,0
1,66,0,192
1,61,0,0
1,59,0,0
1,54,80,288
1,57,80,0
1,61,80,0
1,61,0,192
1,57,0,0
1,54,0,0
1,62,80,288
1,57,80,0
1,54,80,0
1,54,0,192
1,57,0,0
1,62,0,0
1,64,80,288
1,59,80,0
1,56,80,0
1,56,0,192
1,59,0,0
1,64,0,0
1,56,80,288
1,59,80,0
1,64,80,0
1,64,0,192
1,59,0,0
1,56,0,0
1,57,80,288
1,54,80,0
1,61,80,0
1,61,0,192
1,54,0,0
1,57,0,0
1,62,80,288
1,57,80,0
1,54,80,0
1,54,0,192
1,57,0,0
1,62,0,0
1,64,80,288
1,59,80,0
1,56,80,0
1,56,0,192
1,59,0,0
1,64,0,0
1,66,80,288
1,61,80,0
1,59,80,0
1,59,0,192
1,61,0,0
1,66,0,0
1,61,80,288
1,57,80,0
1,54,80,0
1,54,0,192
1,57,0,0
1,61,0,0
1,54,80,288
1,57,80,0
1,62,80,0
1,62,0,192
1,57,0,0
1,54,0,0
1,56,80,288
1,59,80,0
1,64,80,0
1,64,0,192
1,59,0,0
1,56,0,0
1,63,80,408
1,63,0,48
1,64,80,12
1,64,0,48
1,66,80,12
1,66,0,192
1,64,80,48
1,64,0,192
1,63,80,48
1,56,80,0
1,60,80,0
1,60,0,384
1,56,0,0
1,63,0,0
1,68,64,96
1,64,64,0
1,61,64,0
1,61,0,192
1,64,0,0
1,68,0,0
1,68,64,168
1,64,64,0
1,61,64,0
1,61,0,96
1,64,0,0
1,68,0,0
1,68,64,24
1,64,64,0
1,61,64,0
1,61,0,60
1,64,0,0
1,68,0,0
1,66,64,0
1,63,64,0
1,59,64,0
1,59,0,156
1,63,0,0
1,66,0,0
1,66,64,24
1,59,64,0
1,63,64,0
1,63,0,144
1,59,0,0
1,66,0,0
1,59,64,36
1,63,64,0
1,66,64,0
1,66,0,60
1,63,0,0
1,59,0,0
1,68,64,0
1,64,64,0
1,61,64,0
1,61,0,192
1,64,0,0
1,68,0,0
1,64,80,1008
1,69,80,0
1,61,80,0
1,61,0,192
1,69,0,0
1,64,0,0
1,61,80,288
1,64,80,0
1,68,80,0
1,68,0,192
1,64,0,0
1,61,0,0
1,64,80,288
1,59,80,0
1,68,80,0
1,68,0,192
1,59,0,0
1,64,0,0
1,59,80,288
1,63,80,0
1,66,80,0
1,66,0,192
1,63,0,0
1,59,0,0
1,69,80,2208
1,64,80,0
1,61,80,0
1,61,0,192
1,64,0,0
1,69,0,0
1,68,80,288
1,64,80,0
1,61,80,0
1,61,0,192
1,64,0,0
1,68,0,0
1,68,80,288
1,59,80,0
1,64,80,0
1,64,0,192
1,59,0,0
1,68,0,0
1,68,80,288
1,63,80,0
1,60,80,0
1,60,0,192
1,63,0,0
1,68,0,0
1,56,80,48
1,61,80,0
1,64,80,0
1,64,0,288
1,61,0,0
1,56,0,0
1,56,80,72
1,61,80,0
1,64,80,0
1,64,0,96
1,61,0,0
1,56,0,0
1,59,80,24
1,56,80,0
1,64,80,0
1,64,0,144
1,56,0,0
1,59,0,0
1,59,80,36
1,54,80,0
1,63,80,0
1,63,0,156
1,54,0,0
1,59,0,0
1,59,80,24
1,54,80,0
1,63,80,0
1,63,0,96
1,54,0,0
1,59,0,0
1,57,80,24
1,61,80,0
1,66,80,0
1,66,0,288
1,61,0,0
1,57,0,0
1,57,80,72
1,61,80,0
1,66,80,0
1,66,0,96
1,61,0,0
1,57,0,0
1,59,80,24
1,56,80,0
1,66,80,0
1,66,0,144
1,56,0,0
1,59,0,0
1,56,80,36
1,59,80,0
1,64,80,0
1,64,0,156
1,59,0,0
1,56,0,0
1,56,80,24
1,59,80,0
1,64,80,0
1,64,0,96
1,59,0,0
1,56,0,0
1,59,80,24
1,54,80,0
1,64,80,0
1,64,0,144
1,54,0,0
1,59,0,0
1,54,80,36
1,59,80,0
1,63,80,0
1,63,0,156
1,59,0,0
1,54,0,0
1,54,80,24
1,59,80,0
1,63,80,0
1,63,0,96
1,59,0,0
1,54,0,0
1,59,80,24
1,54,80,0
1,63,80,0
1,63,0,144
1,54,0,0
1,59,0,0
1,54,80,36
1,57,80,0
1,61,80,0
1,61,0,156
1,57,0,0
1,54,0,0
1,54,80,24
1,57,80,0
1,61,80,0
1,61,0,96
1,57,0,0
1,54,0,0
1,57,80,24
1,54,80,0
1,61,80,0
1,61,0,144
1,54,0,0
1,57,0,0
1,54,80,36
1,57,80,0
1,61,80,0
1,61,0,156
