track,note,velocity,time
0,41,43,736
0,53,55,0
0,72,37,0
0,80,51,0
0,79,46,1536
0,80,0,22
0,67,51,1130
0,72,0,50
0,68,55,334
0,77,49,0
0,67,0,28
0,79,0,54
0,70,49,1454
0,68,0,14
0,53,0,752
0,41,0,0
0,39,56,2
0,51,54,0
0,77,0,352
0,79,48,32
0,51,0,366
0,39,0,2
0,37,55,16
0,49,51,0
0,72,52,0
0,80,53,0
0,79,0,16
0,70,0,22
0,80,0,704
0,79,49,26
0,77,49,384
0,79,0,4
0,77,0,320
0,72,0,6
0,49,0,52
0,37,0,0
0,39,56,2
0,51,53,0
0,70,54,0
0,77,52,0
0,77,0,766
0,75,50,2
0,70,0,736
0,51,0,30
0,39,0,0
0,41,57,2
0,53,60,0
0,70,50,0
0,77,53,0
0,75,0,68
0,70,0,1410
0,68,60,58
0,77,0,1362
0,68,0,54
0,53,0,30
0,41,0,14
0,65,71,76
0,41,43,0
0,53,55,0
0,72,37,0
0,80,51,0
0,65,0,50
0,65,68,142
0,65,0,46
0,66,81,58
0,66,0,48
0,65,71,1192
0,79,46,0
0,80,0,22
0,65,0,40
0,65,68,130
0,65,0,50
0,66,74,54
0,66,0,36
0,66,71,156
0,66,0,52
0,65,67,36
0,65,0,82
0,67,51,494
0,72,0,50
0,65,71,334
0,68,55,0
0,77,49,0
0,67,0,28
0,65,0,22
0,79,0,32
0,65,68,110
0,65,0,46
0,66,81,58
0,66,0,48
0,65,71,1192
0,65,0,62
0,65,68,130
0,65,0,50
0,66,74,54
0,66,0,36
0,70,43,52
0,79,41,0
0,77,0,12
0,68,0,34
0,66,71,58
0,66,0,52
0,65,67,36
0,65,0,82
0,70,0,56
0,53,0,52
0,41,0,0
0,39,56,2
0,51,54,0
0,72,45,0
0,80,53,0
0,79,0,4
0,73,42,380
0,82,55,0
0,80,0,22
0,72,0,24
0,51,0,320
0,39,0,2
0,65,71,16
0,73,0,0
0,37,55,0
0,49,51,0
0,75,46,0
0,84,45,0
0,82,0,24
0,65,0,26
0,65,68,142
0,65,0,46
0,66,81,58
0,66,0,48
0,73,55,424
0,82,53,0
0,75,0,44
0,84,0,2
0,73,0,642
0,82,0,10
0,49,0,68
0,37,0,0
0,65,71,2
0,39,56,0
0,51,53,0
0,73,49,0
0,82,53,0
0,65,0,62
0,65,68,130
0,65,0,50
0,66,74,54
0,66,0,36
0,66,71,156
0,66,0,52
0,65,67,36
0,65,0,82
0,73,0,88
0,72,46,22
0,80,51,0
0,82,0,4
0,72,0,340
0,80,0,32
0,41,61,8
0,70,39,0
0,79,49,0
0,41,0,80
0,41,57,112
0,41,0,112
0,79,0,42
0,70,0,18
0,51,0,18
0,39,0,0
0,65,71,2
0,41,67,0
0,41,57,0
0,53,60,0
0,70,48,0
0,72,47,0
0,77,46,0
0,65,0,50
0,41,0,62
0,65,68,80
0,41,73,0
0,65,0,46
0,66,81,58
0,41,0,12
0,66,0,36
0,41,74,40
0,41,0,118
0,41,78,74
0,41,0,120
0,41,85,72
0,41,0,112
0,41,80,80
0,41,0,98
0,41,67,94
0,41,0,108
0,41,70,84
0,41,0,112
0,65,71,80
0,41,66,0
0,68,50,0
0,70,0,8
0,65,0,54
0,41,0,38
0,65,68,92
0,41,60,0
0,65,0,50
0,66,74,54
0,41,0,6
0,66,0,30
0,41,64,52
0,66,71,104
0,41,0,10
0,66,0,42
0,65,67,36
0,41,59,0
0,65,0,82
0,41,0,26
0,41,59,84
0,41,0,108
0,41,58,84
0,41,0,116
0,41,56,76
0,41,0,108
0,77,0,70
0,41,43,14
0,72,0,8
0,68,0,74
0,41,0,10
0,53,0,10
0,41,0,14
0,41,57,76
0,53,58,0
0,65,57,0
0,68,62,0
0,60,35,0
0,65,43,0
0,68,39,0
0,41,56,0
0,41,0,92
0,68,81,0
0,41,57,0
0,68,102,0
0,41,0,108
0,68,0,10
0,68,0,0
0,68,81,0
0,41,41,0
0,68,91,0
0,41,0,108
0,68,0,2
0,68,0,0
0,68,81,0
0,41,54,0
0,68,82,0
0,41,0,108
0,68,0,24
0,68,0,38
0,63,57,0
0,67,56,0
0,67,81,0
0,63,50,0
0,67,52,0
0,41,55,0
0,67,82,0
0,68,0,4
0,68,0,0
0,65,0,10
0,65,0,12
0,41,0,70
0,41,45,96
0,41,0,126
0,67,0,10
0,67,0,0
0,67,81,0
0,41,24,0
0,67,74,0
0,67,0,124
0,67,0,0
0,67,81,0
0,67,78,0
0,67,0,36
0,63,0,14
0,41,0,34
0,53,0,8
0,41,0,10
0,67,0,6
0,67,0,0
0,48,66,0
0,58,54,0
0,67,58,0
0,67,81,0
0,41,7,0
0,67,81,0
0,41,0,86
0,67,0,100
0,67,0,0
0,65,81,0
0,65,79,0
0,65,0,178
0,65,0,0
0,63,81,0
0,63,84,0
0,65,81,0
0,65,85,0
0,63,0,8
0,63,0,0
0,58,0,90
0,67,0,0
0,63,0,38
0,53,57,56
0,56,48,0
0,65,60,0
0,56,45,0
0,65,57,0
0,48,0,12
0,67,0,8
0,65,0,660
0,65,0,34
0,65,0,0
0,56,0,40
0,41,63,14
0,60,1,0
0,68,68,0
0,53,0,84
0,68,81,0
0,68,89,0
0,68,0,92
0,68,0,0
0,68,81,0
0,68,82,0
0,56,0,68
0,68,0,60
0,60,0,6
0,65,0,52
0,58,55,0
0,67,61,0
0,67,81,0
0,58,51,0
0,63,50,0
0,67,35,0
0,67,78,0
0,60,0,2
0,68,0,20
0,68,0,0
0,67,0,306
0,67,0,0
0,67,81,0
0,67,87,0
0,67,0,86
0,67,0,0
0,67,81,0
0,67,87,0
0,67,0,104
0,67,0,0
0,51,61,0
0,55,61,0
0,63,58,0
0,67,81,0
0,67,85,0
0,58,0,40
0,67,0,144
0,67,0,0
0,65,81,0
0,65,78,0
0,65,0,176
0,65,0,0
0,63,81,0
0,63,79,0
0,63,0,186
0,63,0,0
0,65,81,0
0,65,85,0
0,67,0,138
0,65,54,54
0,41,0,530
0,55,0,4
0,60,81,0
0,60,78,0
0,51,0,4
0,63,0,24
0,65,0,14
0,65,0,0
0,58,0,14
0,60,0,118
0,60,0,0
0,49,61,0
0,56,54,0
0,58,57,0
0,65,57,0
0,58,81,0
0,56,50,0
0,58,78,0
0,56,81,0
0,56,89,0
0,58,0,8
0,58,0,0
0,63,0,538
0,56,0,576
0,56,0,26
0,56,0,0
0,58,0,4
0,65,0,18
0,49,0,2
0,56,0,96
0,65,0,66
0,51,58,0
0,58,46,0
0,63,58,0
0,65,54,0
0,58,81,0
0,55,53,0
0,63,58,0
0,58,89,0
0,56,81,0
0,56,93,0
0,58,0,2
0,58,0,0
0,56,0,372
0,56,0,0
0,58,81,0
0,58,53,0
0,67,53,0
0,58,85,0
0,63,0,4
0,55,0,50
0,56,81,0
0,56,89,0
0,58,0,4
0,58,0,0
0,63,0,124
0,65,0,8
0,58,0,10
0,51,0,4
0,56,0,220
0,56,0,0
0,53,61,0
0,60,56,0
0,63,61,0
0,65,62,0
0,55,81,0
0,56,52,0
0,65,54,0
0,55,89,0
0,58,0,4
0,67,0,6
0,53,81,0
0,53,89,0
0,55,0,12
0,55,0,0
0,65,0,1026
0,60,0,14
0,63,0,4
0,53,0,16
0,65,0,74
0,53,60,6
0,58,53,0
0,63,58,0
0,67,63,0
0,55,46,0
0,58,38,0
0,63,44,0
0,56,0,24
0,40,114,552
0,40,0,50
0,40,83,62
0,40,0,48
0,40,105,32
0,53,0,26
0,53,0,0
0,40,0,26
0,40,95,60
0,40,0,68
0,40,80,124
0,40,0,54
0,40,59,26
0,40,0,62
0,40,46,50
0,63,0,48
0,58,0,2
0,67,0,30
0,58,0,4
0,55,0,2
0,53,0,4
0,63,0,4
0,40,0,18
0,40,36,80
0,40,0,38
0,41,57,42
0,53,58,0
0,65,57,0
0,68,62,0
0,60,35,0
0,65,43,0
0,68,39,0
0,41,56,0
0,65,45,0
0,65,55,0
0,41,0,92
0,68,81,0
0,41,57,0
0,68,91,0
0,68,0,96
0,68,0,0
0,41,0,12
0,68,81,0
0,41,41,0
0,68,89,0
0,68,0,106
0,68,0,0
0,41,0,2
0,68,81,0
0,41,54,0
0,68,93,0
0,41,0,108
0,68,0,24
0,68,0,38
0,68,0,20
0,68,0,0
0,63,57,0
0,67,56,0
0,67,81,0
0,63,50,0
0,67,52,0
0,41,55,0
0,67,87,0
0,65,0,14
0,65,0,12
0,41,0,70
0,41,45,96
0,67,0,110
0,67,0,0
0,41,0,16
0,65,0,62
0,65,0,0
0,67,81,0
0,41,24,0
0,67,47,0
0,67,57,0
0,67,91,0
0,67,0,228
0,63,0,14
0,41,0,34
0,53,0,8
0,41,0,10
0,67,0,6
0,67,0,0
0,48,66,0
0,58,54,0
0,67,58,0
0,67,81,0
0,41,7,0
0,67,89,0
0,41,0,86
0,67,0,90
0,67,0,0
0,65,81,0
0,65,79,0
0,65,0,172
0,65,0,0
0,67,0,18
0,67,0,0
0,63,81,0
0,68,52,0
0,68,62,0
0,63,84,0
0,63,0,190
0,63,0,0
0,65,81,0
0,65,82,0
0,58,0,98
0,67,0,0
0,63,0,38
0,68,0,54
0,68,0,0
0,53,57,2
0,56,48,0
0,65,60,0
0,56,45,0
0,65,57,0
0,70,50,0
0,70,60,0
0,48,0,12
0,67,0,8
0,65,0,660
0,65,0,16
0,65,0,0
0,56,0,58
0,70,0,12
0,70,0,0
0,41,63,2
0,60,1,0
0,68,68,0
0,65,40,0
0,65,50,0
0,53,0,84
0,68,81,0
0,68,85,0
0,68,0,80
0,68,0,0
0,68,81,0
0,68,89,0
0,68,0,92
0,68,0,0
0,68,81,0
0,68,93,0
0,56,0,68
0,68,0,60
0,60,0,6
0,65,0,52
0,68,0,4
0,68,0,0
0,58,55,0
0,67,61,0
0,67,81,0
0,58,51,0
0,63,50,0
0,67,35,0
0,67,87,0
0,60,0,2
0,67,0,316
0,67,0,0
0,65,0,44
0,65,0,0
0,67,81,0
0,67,47,0
0,67,57,0
0,67,85,0
0,67,0,308
0,67,0,0
0,67,0,74
0,67,0,0
0,51,61,0
0,55,61,0
0,63,58,0
0,67,81,0
0,68,53,0
0,68,63,0
0,67,84,0
0,58,0,40
0,67,0,144
0,67,0,0
0,65,81,0
0,65,81,0
0,65,0,186
0,65,0,0
0,68,0,4
0,68,0,0
0,63,81,0
0,67,51,0
0,67,61,0
0,63,84,0
0,63,0,190
0,63,0,0
0,65,81,0
0,65,85,0
0,67,0,138
0,67,0,52
0,67,0,0
0,65,54,2
0,68,57,0
0,68,67,0
0,68,0,382
0,68,0,0
0,68,55,2
0,70,54,0
0,70,64,0
0,41,0,146
0,55,0,4
0,65,0,40
0,65,0,0
0,60,81,0
0,60,87,0
0,51,0,4
0,63,0,24
0,58,0,28
0,60,0,134
0,70,0,0
0,70,0,0
0,60,0,0
0,49,61,0
0,56,54,0
0,58,57,0
0,65,57,0
0,58,81,0
0,56,50,0
0,73,52,0
0,73,62,0
0,58,84,0
0,58,0,190
0,58,0,0
0,56,81,0
0,56,84,0
0,63,0,546
0,73,0,16
0,73,0,0
0,72,53,14
0,72,63,0
0,56,0,546
0,58,0,30
0,65,0,18
0,49,0,2
0,56,0,74
0,56,0,0
0,56,0,22
0,65,0,66
0,72,0,8
0,72,0,0
0,51,58,0
0,58,46,0
0,63,58,0
0,65,54,0
0,58,81,0
0,55,53,0
0,63,58,0
0,70,56,0
0,70,66,0
0,58,89,0
0,58,0,382
0,58,0,0
0,56,81,0
0,56,91,0
0,56,0,380
0,56,0,0
0,58,81,0
0,58,53,0
0,67,53,0
0,58,93,0
0,63,0,4
0,55,0,50
0,58,0,328
0,58,0,0
0,56,81,0
0,56,85,0
0,63,0,128
0,65,0,8
0,58,0,10
0,51,0,4
0,56,0,232
0,70,0,0
0,70,0,0
0,56,0,0
0,53,61,0
0,60,56,0
0,63,61,0
0,65,62,0
0,55,81,0
0,56,52,0
0,65,54,0
0,67,46,0
0,67,56,0
0,55,89,0
0,58,0,4
0,67,0,6
0,55,0,372
0,55,0,0
0,53,81,0
0,53,89,0
0,68,0,72
0,67,0,310
0,67,0,0
0,68,54,2
0,68,64,0
0,65,0,654
0,60,0,14
0,63,0,4
0,53,0,16
0,65,0,74
0,68,0,4
0,68,0,0
0,53,60,2
0,58,53,0
0,63,58,0
0,67,63,0
0,55,46,0
0,58,38,0
0,63,44,0
0,65,47,0
0,65,57,0
0,56,0,24
0,40,119,552
0,40,0,50
0,40,88,62
0,40,0,48
0,40,110,32
0,40,0,52
0,40,100,60
0,40,0,68
0,40,85,124
0,40,0,54
0,40,64,26
0,40,0,62
0,53,0,48
0,53,0,0
0,40,51,2
0,63,0,48
0,58,0,2
0,67,0,30
0,58,0,4
0,55,0,2
0,53,0,4
0,63,0,4
0,40,0,18
0,40,41,80
0,65,0,14
0,65,0,0
0,40,0,24
0,36,105,0
0,49,74,0
0,55,74,0
0,61,76,0
0,65,77,0
0,29,80,0
0,60,54,0
0,65,56,0
0,68,59,0
0,65,81,0
0,56,54,0
0,60,51,0
0,65,54,0
0,77,38,0
0,65,79,0
0,61,0,48
0,65,0,2
0,61,67,142
0,65,74,0
0,65,0,46
0,61,0,4
0,55,0,42
0,49,0,8
0,66,87,4
0,54,65,8
0,61,60,0
0,54,0,2
0,66,0,38
0,61,0,28
0,40,105,12
0,54,56,0
0,60,76,0
0,60,71,0
0,65,71,0
0,68,71,0
0,68,0,42
0,65,0,0
0,54,0,4
0,60,0,4
0,60,0,10
0,36,0,0
0,60,57,36
0,65,54,0
0,68,57,0
0,54,63,16
0,54,0,2
0,68,0,20
0,65,0,0
0,60,0,14
0,36,99,44
0,54,51,0
0,60,68,0
0,65,61,0
0,68,66,0
0,54,0,2
0,65,0,42
0,68,0,4
0,60,0,6
0,36,0,16
0,54,56,42
0,54,0,2
0,29,0,8
0,54,67,70
0,29,68,0
0,60,55,0
0,65,55,0
0,68,58,0
0,54,0,60
0,68,0,118
0,60,0,10
0,36,106,4
0,54,63,0
0,60,74,0
0,65,0,0
0,54,0,2
0,60,0,52
0,65,0,26
0,65,0,0
0,40,0,6
0,60,40,10
0,65,52,0
0,68,57,0
0,54,63,16
0,60,67,0
0,54,0,2
0,68,0,8
0,65,0,2
0,60,0,4
0,60,0,48
0,40,98,0
0,54,77,0
0,61,85,0
0,83,62,0
0,60,66,0
0,65,58,0
0,68,59,0
0,65,81,0
0,79,40,0
0,65,85,0
0,77,0,10
0,36,0,30
0,60,0,4
0,54,0,12
0,61,0,20
0,65,0,18
0,65,0,0
0,67,81,0
0,67,84,0
0,83,0,16
0,54,53,0
0,54,0,2
0,68,0,40
0,65,0,2
0,29,0,34
0,67,0,0
0,67,0,0
0,54,60,0
0,36,65,0
0,65,81,0
0,65,78,0
0,40,0,50
0,54,0,4
0,65,0,6
0,56,0,12
0,60,0,14
0,65,0,8
0,65,0,0
0,63,81,0
0,63,84,0
0,68,0,2
0,65,0,8
0,60,0,2
0,63,0,78
0,63,0,0
0,36,0,4
0,36,105,0
0,61,76,0
0,65,77,0
0,34,67,0
0,61,60,0
0,65,61,0
0,68,62,0
0,65,81,0
0,56,61,0
0,61,56,0
0,65,55,0
0,80,44,0
0,65,79,0
0,79,0,18
0,61,0,30
0,65,0,14
0,61,67,130
0,65,74,0
0,65,0,50
0,61,0,0
0,66,80,54
0,54,65,8
0,61,60,0
0,54,0,2
0,66,0,26
0,61,0,40
0,40,105,12
0,54,56,0
0,60,76,0
0,61,71,0
0,65,61,0
0,68,59,0
0,68,0,44
0,54,0,2
0,65,0,4
0,61,0,2
0,60,0,8
0,36,0,0
0,61,59,36
0,65,62,0
0,68,61,0
0,66,77,8
0,54,63,8
0,54,0,2
0,61,0,24
0,65,0,10
0,68,0,6
0,66,0,2
0,36,99,36
0,54,51,0
0,65,73,0
0,61,62,0
0,65,58,0
0,68,61,0
0,54,0,2
0,65,0,38
0,68,0,8
0,61,0,6
0,36,0,16
0,65,0,12
0,54,56,30
