track,note,velocity,time
0,80,100,29
0,89,100,0
0,42,84,0
0,89,0,48
0,80,0,0
0,42,0,0
0,80,100,12
0,89,100,0
0,42,84,0
0,89,0,48
0,80,0,0
0,42,0,0
0,77,100,12
0,87,100,0
0,42,84,0
0,87,0,48
0,77,0,0
0,42,0,0
0,77,100,12
0,87,100,0
0,42,84,0
0,87,0,48
0,77,0,0
0,42,0,0
0,75,100,12
0,84,100,0
0,42,84,0
0,84,0,48
0,75,0,0
0,42,0,0
0,75,100,12
0,84,100,0
0,42,84,0
0,84,0,48
0,75,0,0
0,42,0,0
0,72,100,12
0,80,100,0
0,42,84,0
0,80,0,48
0,72,0,0
0,42,0,0
0,75,84,12
0,60,100,0
0,51,100,0
0,44,100,0
0,75,100,0
0,84,100,0
0,32,108,0
0,36,100,0
0,42,84,0
0,63,68,0
0,69,84,30
0,42,0,18
0,69,0,6
0,75,0,6
0,77,84,0
0,42,84,0
0,69,84,0
0,63,0,12
0,63,68,18
0,36,0,6
0,42,0,12
0,69,0,0
0,63,0,6
0,77,0,6
0,75,84,0
0,37,100,0
0,42,84,0
0,61,68,0
0,69,84,0
0,32,0,24
0,37,0,24
0,42,0,0
0,61,0,0
0,69,0,0
0,75,0,12
0,77,84,0
0,39,108,0
0,36,100,0
0,42,84,0
0,63,68,0
0,36,0,48
0,42,0,0
0,63,0,0
0,77,0,12
0,75,84,0
0,42,84,0
0,42,0,48
0,75,0,12
0,77,84,0
0,42,84,0
0,63,68,0
0,69,84,0
0,69,0,24
0,69,84,6
0,39,0,6
0,42,0,12
0,63,0,0
0,69,0,6
0,77,0,6
0,75,84,0
0,27,108,0
0,37,100,0
0,42,84,0
0,61,68,0
0,69,84,0
0,84,0,24
0,75,0,0
0,42,0,24
0,61,0,0
0,69,0,0
0,75,0,12
0,77,84,0
0,42,84,0
0,63,68,0
0,27,0,36
0,37,0,0
0,42,0,12
0,63,0,0
0,77,0,12
0,75,84,0
0,32,108,0
0,36,100,0
0,42,84,0
0,63,68,0
0,69,84,30
0,42,0,18
0,63,0,0
0,69,0,6
0,80,100,6
0,89,100,0
0,42,84,0
0,63,68,0
0,69,84,0
0,63,0,24
0,63,68,6
0,36,0,6
0,89,0,12
0,80,0,0
0,42,0,0
0,69,0,0
0,63,0,6
0,80,100,6
0,89,100,0
0,37,100,0
0,42,84,0
0,61,68,0
0,69,84,0
0,32,0,24
0,89,0,24
0,80,0,0
0,37,0,0
0,42,0,0
0,61,0,0
0,69,0,0
0,77,100,12
0,87,100,0
0,39,108,0
0,36,100,0
0,42,84,0
0,63,68,0
0,87,0,48
0,77,0,0
0,36,0,0
0,42,0,0
0,63,0,0
0,87,100,12
0,77,100,0
0,42,84,0
0,77,0,48
0,87,0,0
0,42,0,0
0,75,100,12
0,84,100,0
0,42,84,0
0,63,68,0
0,69,84,0
0,69,0,24
0,69,84,6
0,39,0,6
0,84,0,12
0,75,0,0
0,42,0,0
0,63,0,0
0,69,0,6
0,84,100,6
0,75,100,0
0,27,108,0
0,37,100,0
0,54,100,0
0,42,84,0
0,61,68,0
0,69,84,0
0,44,0,24
0,51,0,0
0,60,0,0
0,75,0,24
0,84,0,0
0,42,0,0
0,54,0,0
0,61,0,0
0,69,0,0
0,72,100,12
0,80,100,0
0,42,84,0
0,63,68,0
0,27,0,36
0,37,0,0
0,80,0,12
0,72,0,0
0,42,0,0
0,63,0,0
0,75,0,12
0,70,84,0
0,61,100,0
0,53,100,0
0,46,100,0
0,73,100,0
0,82,100,0
0,34,108,0
0,36,100,0
0,42,84,0
0,63,68,0
0,69,84,30
0,42,0,18
0,69,0,6
0,70,0,6
0,72,84,0
0,42,84,0
0,69,84,0
0,63,0,12
0,63,68,18
0,36,0,6
0,42,0,12
0,69,0,0
0,63,0,6
0,72,0,6
0,70,84,0
0,37,100,0
0,42,84,0
0,61,68,0
0,69,84,0
0,34,0,24
0,37,0,24
0,42,0,0
0,61,0,0
0,69,0,0
0,70,0,12
0,72,84,0
0,41,108,0
0,36,100,0
0,42,84,0
0,63,68,0
0,36,0,48
0,42,0,0
0,63,0,0
0,72,0,12
0,70,84,0
0,42,84,0
0,42,0,48
0,70,0,12
0,72,84,0
0,42,84,0
0,63,68,0
0,69,84,0
0,69,0,24
0,69,84,6
0,41,0,6
0,42,0,12
0,63,0,0
0,69,0,6
0,72,0,6
0,70,84,0
0,29,108,0
0,37,100,0
0,42,84,0
0,61,68,0
0,69,84,0
0,46,0,24
0,53,0,0
0,61,0,0
0,82,0,0
0,73,0,0
0,42,0,24
0,61,0,0
0,69,0,0
0,70,0,12
0,72,84,0
0,42,84,0
0,63,68,0
0,29,0,36
0,37,0,0
0,42,0,12
0,63,0,0
0,72,0,12
0,70,84,0
0,53,100,0
0,61,100,0
0,46,100,0
0,34,108,0
0,36,100,0
0,42,84,0
0,63,68,0
0,69,84,30
0,42,0,18
0,63,0,0
0,69,0,6
0,80,100,6
0,84,100,0
0,42,84,0
0,63,68,0
0,69,84,0
0,63,0,24
0,63,68,6
0,36,0,6
0,84,0,12
0,80,0,0
0,42,0,0
0,69,0,0
0,63,0,6
0,80,100,6
0,84,100,0
0,37,100,0
0,42,84,0
0,61,68,0
0,69,84,0
0,34,0,24
0,84,0,24
0,80,0,0
0,37,0,0
0,42,0,0
0,61,0,0
0,69,0,0
0,77,100,12
0,82,100,0
0,41,108,0
0,36,100,0
0,42,84,0
0,63,68,0
0,82,0,48
0,77,0,0
0,36,0,0
0,42,0,0
0,63,0,0
0,77,100,12
0,82,100,0
0,42,84,0
0,82,0,48
0,77,0,0
0,42,0,0
0,73,100,12
0,80,100,0
0,42,84,0
0,63,68,0
0,69,84,0
0,69,0,24
0,69,84,6
0,41,0,6
0,80,0,12
0,73,0,0
0,42,0,0
0,63,0,0
0,69,0,6
0,73,100,6
0,80,100,0
0,29,108,0
0,37,100,0
0,42,84,0
0,54,100,0
0,61,68,0
0,69,84,0
0,46,0,24
0,61,0,0
0,53,0,0
0,80,0,24
0,73,0,0
0,29,0,0
0,54,0,0
0,42,0,0
0,61,0,0
0,69,0,0
0,73,100,12
0,77,100,0
0,32,108,0
0,42,84,0
0,63,68,0
0,37,0,36
0,77,0,12
0,73,0,0
0,32,0,0
0,42,0,0
0,63,0,0
0,70,0,12
0,70,84,0
0,61,100,0
0,53,100,0
0,46,100,0
0,77,100,0
0,82,100,0
0,34,108,0
0,36,100,0
0,42,84,0
0,63,68,0
0,69,84,30
0,42,0,18
0,69,0,6
0,70,0,6
0,72,84,0
0,42,84,0
0,69,84,0
0,63,0,12
0,63,68,18
0,36,0,6
0,42,0,12
0,69,0,0
0,63,0,6
0,72,0,6
0,70,84,0
0,37,100,0
0,42,84,0
0,61,68,0
0,69,84,0
0,34,0,24
0,37,0,24
0,42,0,0
0,61,0,0
0,69,0,0
0,70,0,12
0,72,84,0
0,41,108,0
0,36,100,0
0,42,84,0
0,63,68,0
0,36,0,48
0,42,0,0
0,63,0,0
0,42,84,12
0,42,0,48
0,72,0,12
0,70,84,0
0,42,84,0
0,63,68,0
0,69,84,0
0,69,0,24
0,69,84,6
0,41,0,6
0,42,0,12
0,63,0,0
0,69,0,6
0,70,0,6
0,72,84,0
0,29,108,0
0,37,100,0
0,42,84,0
0,61,68,0
0,69,84,0
0,46,0,24
0,53,0,0
0,61,0,0
0,82,0,0
0,77,0,0
0,42,0,24
0,61,0,0
0,69,0,0
0,72,0,12
0,77,84,0
0,42,84,0
0,63,68,0
0,29,0,36
0,37,0,0
0,42,0,12
0,63,0,0
0,77,0,12
0,75,84,0
0,46,100,0
0,56,100,0
0,39,100,0
0,27,108,0
0,36,100,0
0,42,84,0
0,63,68,0
0,69,84,30
0,42,0,18
0,63,0,0
0,69,0,6
0,80,100,6
0,84,100,0
0,42,84,0
0,63,68,0
0,69,84,0
0,63,0,24
0,63,68,6
0,36,0,6
0,84,0,12
0,80,0,0
0,42,0,0
0,69,0,0
0,63,0,6
0,80,100,6
0,84,100,0
0,37,100,0
0,42,84,0
0,61,68,0
0,69,84,0
0,27,0,24
0,84,0,24
0,80,0,0
0,37,0,0
0,42,0,0
0,61,0,0
0,69,0,0
0,77,100,12
0,82,100,0
0,32,108,0
0,36,100,0
0,42,84,0
0,63,68,0
0,82,0,48
0,77,0,0
0,36,0,0
0,42,0,0
0,63,0,0
0,77,100,12
0,82,100,0
0,42,84,0
0,82,0,48
0,77,0,0
0,42,0,0
0,73,100,12
0,80,100,0
0,42,84,0
0,63,68,0
0,69,84,0
0,69,0,24
0,69,84,6
0,32,0,6
0,80,0,12
0,73,0,0
0,42,0,0
0,63,0,0
0,69,0,6
0,73,100,6
0,80,100,0
0,27,108,0
0,37,100,0
0,54,100,0
0,42,84,0
0,61,68,0
0,69,84,0
0,39,0,24
0,56,0,0
0,46,0,0
0,80,0,24
0,73,0,0
0,42,0,0
0,54,0,0
0,61,0,0
0,69,0,0
0,73,100,12
0,77,100,0
0,42,84,0
0,63,68,0
0,27,0,36
0,37,0,0
0,77,0,12
0,73,0,0
0,42,0,0
0,63,0,0
0,75,0,12
0,75,84,0
0,51,100,0
0,60,100,0
0,44,100,0
0,75,100,0
0,80,100,0
0,32,108,0
0,36,100,0
0,42,84,0
0,63,68,0
0,69,84,30
0,42,0,18
0,69,0,6
0,75,0,6
0,77,84,0
0,42,84,0
0,69,84,0
0,63,0,12
0,63,68,18
0,36,0,6
0,42,0,12
0,69,0,0
0,63,0,6
0,77,0,6
0,75,84,0
0,37,100,0
0,42,84,0
0,61,68,0
0,69,84,0
0,32,0,24
0,37,0,24
0,42,0,0
0,61,0,0
0,69,0,0
0,39,108,12
0,36,100,0
0,42,84,0
0,63,68,0
0,36,0,48
0,42,0,0
0,63,0,0
0,42,84,12
0,42,0,48
0,42,84,12
0,63,68,0
0,69,84,0
0,69,0,24
0,69,84,6
0,39,0,6
0,42,0,12
0,63,0,0
0,69,0,6
0,75,0,6
0,27,108,0
0,37,100,0
0,42,84,0
0,61,68,0
0,69,84,0
0,44,0,24
0,60,0,0
0,51,0,0
0,80,0,0
0,75,0,0
0,42,0,24
0,61,0,0
0,69,0,0
0,68,84,12
0,42,84,0
0,63,68,0
0,27,0,36
0,37,0,0
0,42,0,12
0,63,0,0
0,68,0,12
0,64,84,0
0,75,84,0
0,68,84,0
0,56,100,0
0,40,100,0
0,87,84,0
0,28,108,0
0,36,100,0
0,42,84,0
0,63,68,0
0,69,84,30
0,42,0,18
0,63,0,0
0,69,0,6
0,42,84,6
0,63,68,0
0,69,84,0
0,63,0,24
0,63,68,6
0,36,0,6
0,42,0,12
0,69,0,0
0,63,0,6
0,37,100,6
0,42,84,0
0,61,68,0
0,69,84,0
0,68,0,24
0,75,0,0
0,64,0,0
0,40,0,0
0,56,0,0
0,87,0,0
0,28,0,0
0,37,0,24
0,42,0,0
0,61,0,0
0,69,0,0
0,68,84,12
0,63,84,0
0,73,84,0
0,56,100,0
0,39,100,0
0,85,84,0
0,39,108,0
0,36,100,0
0,42,84,0
0,63,68,0
0,36,0,48
0,42,0,0
0,63,0,0
0,42,84,12
0,42,0,48
0,42,84,12
0,63,68,0
0,69,84,0
0,69,0,24
0,69,84,6
0,85,0,6
0,39,0,0
0,42,0,12
0,63,0,0
0,69,0,6
0,80,84,6
0,87,84,0
0,27,108,0
0,37,100,0
0,42,84,0
0,54,100,0
0,61,68,0
0,69,84,0
0,54,0,48
0,42,0,0
0,61,0,0
0,69,0,0
0,42,84,12
0,63,68,0
0,73,0,12
0,63,0,0
0,68,0,0
0,39,0,0
0,56,0,0
0,87,0,24
0,80,0,0
0,27,0,0
0,37,0,0
0,42,0,12
0,63,0,0
0,63,84,12
0,68,84,0
0,72,84,0
0,51,100,0
0,44,100,0
0,75,84,0
0,84,84,0
0,32,108,0
0,36,100,0
0,42,84,0
0,63,68,0
0,69,84,30
0,42,0,18
0,69,0,6
0,42,84,6
0,69,84,0
0,63,0,12
0,63,68,18
0,36,0,6
0,42,0,12
0,69,0,0
0,63,0,6
0,37,100,6
0,42,84,0
0,61,68,0
0,69,84,0
0,32,0,24
0,37,0,24
0,42,0,0
0,61,0,0
0,69,0,0
0,27,108,12
0,36,100,0
0,42,84,0
0,63,68,0
0,36,0,48
0,42,0,0
0,63,0,0
0,42,84,12
0,42,0,48
0,42,84,12
0,63,68,0
0,69,84,0
0,69,0,24
0,69,84,6
0,42,0,18
0,63,0,0
0,27,0,4
0,69,0,2
0,32,108,6
0,37,100,0
0,42,84,0
0,61,68,0
0,69,84,0
0,84,0,24
0,75,0,0
0,72,0,24
0,68,0,0
0,63,0,0
0,44,0,0
0,51,0,0
0,42,0,0
0,61,0,0
0,69,0,0
0,68,84,12
0,56,100,0
0,42,84,0
0,63,68,0
0,32,0,36
0,37,0,0
0,68,0,12
0,56,0,0
0,42,0,0
0,63,0,0
0,63,84,12
0,68,84,0
0,71,84,0
0,52,100,0
0,59,100,0
0,40,100,0
0,75,84,0
0,83,84,0
0,28,108,0
0,36,100,0
0,42,84,0
0,63,68,0
0,69,84,30
0,42,0,18
0,63,0,0
0,69,0,6
0,42,84,6
0,63,68,0
0,69,84,0
0,63,0,24
0,63,68,6
0,36,0,6
0,42,0,12
0,69,0,0
0,63,0,6
0,37,100,6
0,42,84,0
0,61,68,0
0,69,84,0
0,71,0,24
0,68,0,0
0,63,0,0
0,40,0,0
0,59,0,0
0,52,0,0
0,83,0,0
0,75,0,0
0,28,0,0
0,37,0,24
0,42,0,0
0,61,0,0
0,69,0,0
0,61,84,12
0,68,84,0
0,70,84,0
0,51,100,0
0,58,100,0
0,39,100,0
0,82,84,0
0,73,84,0
0,27,108,0
0,36,100,0
0,42,84,0
0,63,68,0
0,70,0,48
0,68,0,0
0,61,0,0
0,39,0,0
0,58,0,0
0,51,0,0
0,73,0,0
0,82,0,0
0,27,0,0
0,36,0,0
0,42,0,0
0,63,0,0
0,63,68,102
0,63,0,24
0,54,100,6
0,63,68,0
0,54,0,96
0,63,0,0
0,44,100,24
0,75,68,0
0,80,68,0
0,82,68,0
0,32,108,0
0,36,100,0
0,42,84,0
0,63,68,0
0,69,84,30
0,42,0,18
0,69,0,6
0,63,120,0
0,42,84,0
0,69,84,0
0,63,0,12
0,63,68,18
0,36,0,6
0,63,0,12
0,42,0,0
0,69,0,0
0,63,0,6
0,72,120,0
0,37,100,0
0,42,84,0
0,61,68,0
0,69,84,0
0,32,0,24
0,72,0,24
0,37,0,0
0,42,0,0
0,61,0,0
0,69,0,0
0,72,120,0
0,32,108,0
0,36,100,0
0,42,84,0
0,63,68,0
0,36,0,48
0,42,0,0
0,63,0,0
0,42,84,12
0,42,0,48
0,42,84,12
0,63,68,0
0,69,84,0
0,69,0,24
0,69,84,6
0,42,0,18
0,63,0,0
0,69,0,6
0,37,100,6
0,42,84,0
0,61,68,0
0,69,84,0
0,72,0,24
0,82,0,0
0,80,0,0
0,75,0,0
0,42,0,24
0,61,0,0
0,69,0,0
0,68,120,0
0,42,84,0
0,63,68,0
0,32,0,12
0,37,0,24
0,68,0,12
0,42,0,0
0,63,0,0
0,44,0,12
0,42,100,0
0,84,68,0
0,87,68,0
0,80,68,0
0,30,108,0
0,36,100,0
0,42,84,0
0,63,68,0
0,69,84,30
0,42,0,18
0,63,0,0
0,69,0,6
0,75,120,0
0,42,84,0
0,63,68,0
0,69,84,0
0,63,0,24
0,63,68,6
0,36,0,6
0,75,0,12
0,42,0,0
0,69,0,0
0,63,0,6
0,73,120,0
0,37,100,0
0,42,84,0
0,61,68,0
0,69,84,0
0,30,0,24
0,73,0,24
0,37,0,0
0,42,0,0
0,61,0,0
0,69,0,0
0,72,120,0
0,30,108,0
0,36,100,0
0,42,84,0
0,63,68,0
0,36,0,48
0,42,0,0
0,63,0,0
0,42,84,12
0,72,0,48
0,42,0,0
0,68,120,0
0,42,84,0
0,63,68,0
0,69,84,0
0,69,0,24
0,69,84,6
0,42,0,18
