track,note,velocity,time
0,42,120,0
0,42,0,0
0,42,70,480
0,42,0,0
0,42,70,480
0,42,0,0
0,42,70,480
0,42,0,0
0,47,83,0
0,54,100,0
0,59,92,0
0,54,0,220
0,54,75,20
0,59,0,220
0,59,111,20
0,62,76,240
0,60,101,0
0,47,0,75
0,62,0,30
0,54,0,5
0,59,0,0
0,45,78,25
0,60,0,40
0,50,87,200
0,57,104,240
0,62,110,240
0,57,0,190
0,45,0,0
0,50,0,5
0,62,0,30
0,43,112,15
0,55,101,0
0,50,75,240
0,59,90,240
0,55,0,220
0,43,0,0
0,65,102,10
0,40,83,10
0,50,0,50
0,65,0,75
0,40,0,335
0,52,75,15
0,40,96,5
0,59,0,180
0,59,93,60
0,40,0,100
0,55,101,95
0,40,102,45
0,55,0,85
0,40,0,110
0,52,0,10
0,59,0,30
0,47,109,5
0,54,111,0
0,59,100,0
0,54,0,220
0,54,84,20
0,59,0,220
0,59,107,20
0,62,114,240
0,47,0,180
0,62,0,30
0,59,0,5
0,54,0,0
0,45,113,25
0,50,86,240
0,57,75,240
0,65,102,220
0,62,79,20
0,65,0,165
0,57,0,25
0,45,0,0
0,50,0,5
0,62,0,30
0,43,108,15
0,55,107,0
0,50,115,240
0,59,91,240
0,55,0,220
0,43,0,0
0,40,93,20
0,50,0,50
0,40,0,410
0,55,78,15
0,40,88,5
0,52,99,0
0,59,0,180
0,59,74,60
0,40,0,100
0,60,100,120
0,40,95,20
0,60,0,115
0,52,0,55
0,40,0,25
0,55,0,10
0,59,0,30
0,35,105,0
0,47,103,0
0,54,102,0
0,59,101,0
0,35,100,0
0,35,110,0
0,70,95,0
0,70,0,5
0,35,0,0
0,54,0,215
0,54,76,20
0,70,102,0
0,70,0,5
0,59,0,215
0,35,0,15
0,35,0,0
0,42,102,5
0,59,102,0
0,42,103,0
0,40,96,0
0,35,108,0
0,39,100,0
0,70,103,0
0,78,95,0
0,70,0,5
0,39,0,0
0,35,0,0
0,40,0,0
0,78,0,225
0,42,0,5
0,42,0,0
0,35,104,5
0,62,106,0
0,35,97,0
0,70,103,0
0,76,96,0
0,70,0,5
0,76,0,125
0,47,0,50
0,62,0,30
0,54,0,5
0,59,0,0
0,35,0,15
0,35,0,0
0,38,103,5
0,45,99,0
0,38,101,0
0,35,113,0
0,70,99,0
0,78,105,0
0,70,0,5
0,35,0,0
0,78,0,25
0,50,96,5
0,70,97,0
0,76,98,0
0,70,0,5
0,76,0,25
0,38,0,85
0,38,0,0
0,45,102,5
0,57,95,0
0,45,96,0
0,40,97,0
0,35,107,0
0,39,104,0
0,70,98,0
0,78,96,0
0,70,0,5
0,39,0,0
0,35,0,0
0,40,0,0
0,78,0,105
0,45,0,125
0,45,0,0
0,38,98,5
0,62,99,0
0,38,98,0
0,70,103,0
0,76,96,0
0,70,0,5
0,76,0,125
0,57,0,60
0,45,0,0
0,50,0,5
0,38,0,15
0,38,0,0
0,62,0,15
0,43,105,15
0,43,113,0
0,55,101,0
0,43,101,0
0,35,112,0
0,70,100,0
0,70,0,5
0,35,0,0
0,43,0,230
0,43,0,0
0,50,103,5
0,50,112,0
0,50,98,0
0,70,98,0
0,79,99,0
0,70,0,5
0,50,0,115
0,50,0,0
0,79,0,0
0,38,95,5
0,59,114,0
0,38,96,0
0,40,100,0
0,35,113,0
0,39,103,0
0,70,105,0
0,78,101,0
0,70,0,5
0,39,0,0
0,40,0,0
0,35,0,0
0,78,0,165
0,43,0,50
0,55,0,0
0,38,0,15
0,38,0,0
0,40,98,5
0,40,90,0
0,40,105,0
0,70,102,0
0,78,99,0
0,70,0,5
0,50,0,45
0,35,106,15
0,70,103,0
0,70,0,5
0,35,0,0
0,40,0,5
0,40,0,0
0,40,0,5
0,52,91,5
0,47,95,5
0,40,95,0
0,47,102,0
0,70,104,0
0,70,0,5
0,59,0,150
0,47,0,25
0,47,0,0
0,38,100,5
0,59,79,0
0,38,102,0
0,40,103,0
0,35,105,0
0,39,97,0
0,70,97,0
0,70,0,5
0,39,0,0
0,40,0,0
0,35,0,0
0,78,0,10
0,40,0,60
0,57,101,110
0,38,0,25
0,38,0,0
0,40,102,5
0,40,96,0
0,40,105,0
0,70,103,0
0,70,0,5
0,57,0,135
0,40,0,55
0,52,0,10
0,59,0,30
0,40,0,0
0,40,0,0
0,35,104,5
0,47,97,0
0,54,114,0
0,59,111,0
0,35,98,0
0,35,115,0
0,70,97,0
0,70,0,5
0,35,0,0
0,54,0,215
0,54,109,20
0,70,98,0
0,76,104,0
0,70,0,5
0,76,0,70
0,59,0,145
0,35,0,15
0,35,0,0
0,42,104,5
0,59,90,0
0,42,98,0
0,40,98,0
0,35,114,0
0,39,104,0
0,70,95,0
0,78,103,0
0,70,0,5
0,39,0,0
0,35,0,0
0,40,0,0
0,42,0,230
0,78,0,0
0,42,0,0
0,35,105,5
0,62,87,0
0,35,104,0
0,70,102,0
0,76,104,0
0,70,0,5
0,76,0,105
0,47,0,70
0,62,0,30
0,59,0,5
0,54,0,0
0,35,0,20
0,35,0,0
0,38,98,5
0,45,92,0
0,38,100,0
0,35,112,0
0,70,100,0
0,78,101,0
0,70,0,5
0,35,0,0
0,78,0,85
0,50,102,150
0,70,97,0
0,76,97,0
0,70,0,5
0,76,0,85
0,38,0,145
0,38,0,0
0,45,105,5
0,57,92,0
0,45,95,0
0,40,96,0
0,35,110,0
0,39,97,0
0,70,100,0
0,78,97,0
0,70,0,5
0,39,0,0
0,35,0,0
0,40,0,0
0,45,0,105
0,78,0,0
0,45,0,0
0,38,96,5
0,62,102,0
0,38,95,0
0,70,100,0
0,76,103,0
0,70,0,5
0,76,0,90
0,45,0,95
0,57,0,0
0,50,0,5
0,38,0,15
0,38,0,0
0,62,0,15
0,43,95,15
0,43,96,0
0,55,107,0
0,43,105,0
0,35,107,0
0,70,99,0
0,79,101,0
0,70,0,5
0,35,0,0
0,43,0,230
0,43,0,0
0,79,0,0
0,50,103,5
0,50,103,0
0,50,101,0
0,70,105,0
0,78,104,0
0,70,0,5
0,78,0,165
0,50,0,65
0,50,0,0
0,38,101,5
0,59,103,0
0,38,98,0
0,40,102,0
0,35,115,0
0,39,95,0
0,70,98,0
0,76,104,0
0,70,0,5
0,39,0,0
0,40,0,0
0,35,0,0
0,43,0,215
0,55,0,0
0,38,0,15
0,38,0,0
0,40,102,5
0,40,113,0
0,40,97,0
0,70,105,0
0,70,0,5
0,50,0,5
0,35,109,45
0,70,99,0
0,70,0,5
0,35,0,0
0,40,0,155
0,40,0,0
0,40,0,60
0,55,104,15
0,47,95,5
0,40,86,0
0,52,77,0
0,47,96,0
0,70,95,0
0,70,0,5
0,76,0,10
0,59,0,45
0,47,0,55
0,47,0,0
0,38,105,5
0,59,108,0
0,38,102,0
0,40,103,0
0,35,114,0
0,39,103,0
0,70,96,0
0,70,0,5
0,39,0,0
0,40,0,0
0,35,0,0
0,65,103,40
0,40,0,5
0,38,0,135
0,38,0,0
0,40,105,5
0,40,101,0
0,40,100,0
0,70,103,0
0,70,0,5
0,65,0,30
0,52,0,135
0,40,0,25
0,55,0,10
0,59,0,30
0,40,0,0
0,40,0,0
0,35,99,5
0,47,79,0
0,54,90,0
0,59,94,0
0,35,95,0
0,35,106,0
0,70,100,0
0,70,0,5
0,35,0,0
0,54,0,215
0,54,91,20
0,70,98,0
0,76,99,0
0,70,0,5
0,76,0,90
0,59,0,125
0,35,0,15
0,35,0,0
0,42,98,5
0,59,80,0
0,42,101,0
0,40,95,0
0,35,115,0
0,39,99,0
0,70,96,0
0,78,99,0
0,70,0,5
0,39,0,0
0,35,0,0
0,40,0,0
0,42,0,230
0,42,0,0
0,78,0,5
0,35,96,0
0,62,111,0
0,35,104,0
0,70,96,0
0,76,100,0
0,70,0,5
0,76,0,110
0,47,0,65
0,62,0,30
0,54,0,5
0,59,0,0
0,35,0,20
0,35,0,0
0,38,101,5
0,45,94,0
0,38,99,0
0,35,107,0
0,70,103,0
0,78,100,0
0,70,0,5
0,35,0,0
0,78,0,75
0,50,81,5
0,70,99,0
0,76,95,0
0,70,0,5
0,76,0,125
0,38,0,105
0,38,0,0
0,45,99,5
0,57,105,0
0,45,102,0
0,40,102,0
0,35,106,0
0,39,101,0
0,70,99,0
0,78,96,0
0,70,0,5
0,39,0,0
0,35,0,0
0,40,0,0
0,45,0,230
0,78,0,0
0,45,0,0
0,38,102,5
0,62,98,0
0,38,105,0
0,70,97,0
0,76,97,0
0,70,0,5
0,76,0,110
0,45,0,75
0,57,0,0
0,50,0,5
0,38,0,15
0,38,0,0
0,62,0,15
0,43,104,15
0,43,90,0
0,55,90,0
0,43,105,0
0,35,107,0
0,70,104,0
0,70,0,5
0,35,0,0
0,43,0,230
0,43,0,0
0,50,103,5
0,50,90,0
0,50,105,0
0,70,98,0
0,79,97,0
0,70,0,5
0,50,0,115
0,50,0,0
0,79,0,0
0,38,95,5
0,59,101,0
0,38,98,0
0,40,96,0
0,35,110,0
0,39,96,0
0,70,99,0
0,78,104,0
0,70,0,5
0,39,0,0
0,40,0,0
0,35,0,0
0,78,0,165
0,43,0,50
0,55,0,0
0,38,0,15
0,38,0,0
0,40,97,5
0,40,98,0
0,40,103,0
0,70,105,0
0,78,98,0
0,70,0,5
0,50,0,45
0,35,109,5
0,70,99,0
0,70,0,5
0,35,0,0
0,40,0,5
0,40,0,0
0,40,0,10
0,52,92,15
0,47,103,5
0,40,96,0
0,47,99,0
0,70,103,0
0,70,0,5
0,59,0,175
0,47,0,55
0,47,0,0
0,38,98,5
0,59,103,0
0,38,98,0
0,40,96,0
0,35,105,0
0,39,102,0
0,70,95,0
0,70,0,5
0,39,0,0
0,40,0,0
0,35,0,0
0,78,0,10
0,40,0,25
0,62,104,25
0,38,0,90
0,38,0,0
0,40,98,5
0,40,90,0
0,40,100,0
0,70,103,0
0,70,0,5
0,62,0,185
0,40,0,5
0,52,0,10
0,59,0,30
0,40,0,0
0,40,0,0
0,35,103,5
0,47,90,0
0,54,88,0
0,59,78,0
0,35,101,0
0,35,110,0
0,70,98,0
0,70,0,5
0,35,0,0
0,54,0,215
0,54,113,20
0,70,101,0
0,76,95,0
0,70,0,5
0,76,0,70
0,59,0,145
0,35,0,15
0,35,0,0
0,42,96,5
0,59,91,0
0,42,96,0
0,40,103,0
0,35,114,0
0,39,100,0
0,70,95,0
0,78,96,0
0,70,0,5
0,39,0,0
0,35,0,0
0,40,0,0
0,42,0,230
0,78,0,0
0,42,0,0
0,35,95,5
0,62,86,0
0,35,99,0
0,70,101,0
0,76,95,0
0,70,0,5
0,76,0,105
0,47,0,70
0,62,0,30
0,59,0,5
0,54,0,0
0,35,0,20
0,35,0,0
0,38,98,5
0,45,94,0
0,38,102,0
0,35,106,0
0,70,101,0
0,78,96,0
0,70,0,5
0,35,0,0
0,78,0,85
0,50,100,150
0,70,99,0
0,76,98,0
0,70,0,5
0,76,0,85
0,38,0,145
0,38,0,0
0,45,98,5
0,57,101,0
0,45,104,0
0,40,99,0
0,35,107,0
0,39,95,0
0,70,99,0
0,78,103,0
0,70,0,5
0,39,0,0
0,35,0,0
0,40,0,0
0,45,0,105
0,78,0,0
0,45,0,0
0,38,104,5
0,62,112,0
0,38,102,0
0,70,99,0
0,76,104,0
0,70,0,5
0,76,0,90
0,45,0,95
0,57,0,0
0,50,0,5
0,38,0,15
0,38,0,0
0,62,0,15
0,43,97,15
0,43,94,0
0,55,79,0
0,43,102,0
0,35,108,0
0,70,104,0
0,79,98,0
0,70,0,5
0,35,0,0
0,79,0,90
0,43,0,140
0,43,0,0
0,50,95,5
0,50,93,0
0,50,104,0
0,70,100,0
0,78,104,0
0,70,0,5
0,50,0,230
0,50,0,0
0,38,95,5
0,59,89,0
0,38,98,0
0,40,101,0
0,35,110,0
0,39,97,0
0,70,99,0
0,70,0,5
0,40,0,0
0,39,0,0
0,35,0,0
0,78,0,115
0,43,0,100
0,55,0,0
0,38,0,15
0,38,0,0
0,40,97,5
0,40,84,0
0,40,104,0
0,70,99,0
0,78,102,0
0,70,0,5
0,50,0,45
0,35,105,15
0,70,102,0
0,40,97,0
0,39,95,0
0,70,0,5
0,35,0,0
0,39,0,5
0,40,0,0
0,78,0,20
0,40,0,0
0,40,0,0
0,59,0,95
0,40,0,20
0,69,117,0
0,69,0,70
0,71,118,50
0,71,0,145
0,35,103,95
0,47,74,0
0,54,106,0
0,59,93,0
0,35,96,0
0,36,95,0
0,35,106,0
0,70,96,0
0,74,120,0
0,70,0,5
0,35,0,0
0,36,0,0
0,54,0,215
0,54,90,20
0,46,97,0
0,70,99,0
0,70,0,5
0,46,0,0
0,74,0,80
0,59,0,135
0,35,0,15
0,35,0,0
0,42,97,5
0,59,104,0
0,42,96,0
0,36,103,0
0,42,20,0
0,40,100,0
0,35,112,0
0,39,100,0
0,70,105,0
0,71,110,0
0,70,0,5
0,39,0,0
0,40,0,0
0,42,0,0
0,35,0,0
0,36,0,0
0,42,0,95
0,42,0,0
0,36,96,0
0,35,105,5
0,62,99,0
0,35,104,0
0,70,95,0
0,70,0,5
0,36,0,0
0,47,0,175
0,62,0,30
0,54,0,5
0,59,0,0
0,35,0,20
0,35,0,0
0,38,104,5
0,45,86,0
0,38,103,0
0,36,102,0
0,35,110,0
0,70,100,0
0,70,0,5
0,36,0,0
0,35,0,0
0,50,82,40
0,46,104,0
0,70,103,0
0,70,0,5
0,46,0,0
0,38,0,35
0,38,0,0
0,45,104,5
0,57,86,0
0,45,95,0
0,36,102,0
0,42,20,0
0,40,97,0
0,35,109,0
0,39,102,0
0,70,101,0
0,70,0,5
0,35,0,0
0,42,0,0
0,36,0,0
0,40,0,0
0,39,0,0
0,64,98,15
0,45,0,20
0,45,0,0
0,38,103,5
0,62,95,0
0,38,104,0
0,36,97,0
0,70,98,0
0,70,0,5
0,36,0,0
0,45,0,30
0,57,0,0
0,50,0,5
0,64,0,5
0,38,0,5
0,38,0,0
0,62,0,15
0,43,103,15
0,43,97,0
0,55,114,0
0,43,95,0
0,36,104,0
0,35,111,0
0,70,103,0
0,70,0,5
0,35,0,0
0,36,0,0
0,43,0,35
0,43,0,0
0,50,101,5
0,50,103,0
0,50,103,0
0,46,95,0
0,70,103,0
0,70,0,5
0,46,0,0
0,50,0,30
0,50,0,0
0,38,100,5
0,59,75,0
0,38,102,0
0,36,96,0
0,42,20,0
0,40,97,0
0,35,107,0
0,39,103,0
0,70,100,0
0,70,0,5
0,40,0,0
0,42,0,0
0,36,0,0
0,39,0,0
0,35,0,0
0,43,0,20
0,55,0,0
0,38,0,15
0,38,0,0
0,36,99,0
0,40,97,5
0,40,105,0
0,40,96,0
0,70,99,0
0,70,0,5
0,36,0,0
0,71,0,0
0,50,0,10
0,36,99,10
0,35,112,0
0,70,96,0
0,70,0,5
0,36,0,0
0,35,0,0
0,40,0,40
0,40,0,0
0,40,0,60
0,52,104,15
0,47,95,5
0,40,99,0
0,47,96,0
0,46,99,0
0,70,105,0
0,71,116,0
0,70,0,5
0,46,0,0
0,71,0,165
0,59,0,10
0,47,0,55
0,47,0,0
0,38,97,5
0,59,87,0
0,38,105,0
0,36,98,0
0,42,20,0
0,40,96,0
0,35,105,0
0,39,99,0
0,70,103,0
0,71,110,0
0,70,0,5
0,39,0,0
0,40,0,0
0,42,0,0
0,35,0,0
0,36,0,0
0,40,0,95
0,71,0,90
0,55,101,10
0,38,0,35
0,38,0,0
0,40,97,5
0,40,101,0
0,40,95,0
0,36,97,0
0,70,98,0
0,71,113,0
0,70,0,5
0,36,0,0
0,55,0,130
0,71,0,15
0,40,0,45
0,52,0,10
0,40,0,30
0,40,0,0
0,59,0,0
0,35,105,5
0,47,95,0
0,54,107,0
0,59,110,0
0,35,100,0
0,36,104,0
0,35,111,0
0,70,101,0
0,76,116,0
0,70,0,5
0,35,0,0
0,36,0,0
0,76,0,145
0,54,0,70
0,54,110,20
0,46,96,0
0,70,101,0
0,76,118,0
