track,note,velocity,time
2,27,72,663
2,25,64,10
2,25,64,32
2,27,80,8
2,22,64,2
2,22,58,40
2,25,88,3
2,22,54,48
2,27,84,12
2,25,60,3
2,25,64,35
2,27,68,48
2,22,64,6
2,22,62,27
2,25,68,1
2,22,68,30
2,25,68,2
2,27,66,11
2,25,56,1
2,25,76,29
2,27,84,5
2,22,60,2
2,22,66,34
2,25,84,0
2,22,66,48
2,27,80,10
2,25,80,48
2,25,60,29
2,27,66,10
2,22,64,48
2,22,66,17
2,25,76,24
2,22,68,24
2,25,84,5
2,27,72,10
2,25,64,10
2,25,64,32
2,27,80,8
2,22,64,2
2,22,58,40
2,25,88,3
2,22,54,48
2,27,84,12
2,25,60,3
2,25,64,35
2,27,68,48
2,22,64,6
2,22,62,27
2,25,68,1
2,22,68,30
2,25,68,2
2,27,66,11
2,25,56,1
2,25,76,29
2,27,84,5
2,22,60,2
2,22,66,34
2,25,84,0
2,22,66,48
2,27,80,10
2,25,80,48
2,25,60,29
2,27,66,10
2,22,64,48
2,22,66,17
2,25,76,24
2,22,68,24
2,25,84,5
2,27,72,10
2,25,64,10
2,25,64,32
2,27,80,8
2,22,64,2
2,22,58,40
2,25,88,3
2,22,54,48
2,27,84,12
2,25,60,3
2,25,64,35
2,27,68,48
2,22,64,6
2,22,62,27
2,25,68,1
2,22,68,30
2,25,68,2
2,27,66,11
2,25,56,1
2,25,76,29
2,27,84,5
2,22,60,2
2,22,66,34
2,25,84,0
2,22,66,48
2,27,80,10
2,25,80,48
2,25,60,29
2,27,66,10
2,22,64,48
2,22,66,17
2,25,76,24
2,22,68,24
2,25,84,5
2,27,72,10
2,25,64,10
2,25,64,32
2,27,80,8
2,22,64,2
2,22,58,40
2,25,88,3
2,22,54,48
2,27,84,12
2,25,60,3
2,25,64,35
2,27,68,48
2,22,64,6
2,22,62,27
2,25,68,1
2,22,68,30
2,25,68,2
2,27,66,11
2,25,56,1
2,25,76,29
2,27,84,5
2,22,60,2
2,22,66,34
2,25,84,0
2,22,66,48
2,27,80,10
2,25,80,48
2,25,60,29
2,27,66,10
2,22,64,48
2,22,66,17
2,25,76,24
2,22,68,24
2,25,84,5
2,27,72,10
2,25,64,10
2,25,64,32
2,27,80,8
2,22,64,2
2,22,58,40
2,25,88,3
2,22,54,48
2,27,84,12
2,25,60,3
2,25,64,35
2,27,68,48
2,22,64,6
2,22,62,27
2,25,68,1
2,22,68,30
2,25,68,2
2,27,66,11
2,25,56,1
2,25,76,29
2,27,84,5
2,22,60,2
2,22,66,34
2,25,84,0
2,22,66,48
2,27,80,10
2,25,80,48
2,25,60,29
2,27,66,10
2,22,64,48
2,22,66,17
2,25,76,24
2,22,68,24
2,25,84,5
2,27,72,10
2,25,64,10
2,25,64,32
2,27,80,8
2,22,64,2
2,22,58,40
2,25,88,3
2,22,54,48
2,27,84,12
2,25,60,3
2,25,64,35
2,27,68,48
2,22,64,6
2,22,62,27
2,25,68,1
2,22,68,30
2,25,68,2
2,27,66,11
2,25,56,1
2,25,76,29
2,27,84,5
2,22,60,2
2,22,66,34
2,25,84,0
2,22,66,48
2,27,80,10
2,25,80,48
2,25,60,29
2,27,66,10
2,22,64,48
2,22,66,17
2,25,76,24
2,22,68,24
2,25,84,5
2,27,72,10
2,25,64,10
2,25,64,32
2,27,80,8
2,22,64,2
2,22,58,40
2,25,88,3
2,22,54,48
2,27,84,12
2,25,60,3
2,25,64,35
2,27,68,48
2,22,64,6
2,22,62,27
2,25,68,1
2,22,68,30
2,25,68,2
2,27,66,11
2,25,56,1
2,25,76,29
2,27,84,5
2,22,60,2
2,22,66,34
2,25,84,0
2,22,66,48
2,27,80,10
2,25,80,48
2,25,60,29
2,27,66,10
2,22,64,48
2,22,66,17
2,25,76,24
2,22,68,24
2,25,84,5
2,27,72,10
2,25,64,10
2,25,64,32
2,27,80,8
2,22,64,2
2,22,58,40
2,25,88,3
2,22,54,48
2,27,84,12
2,25,60,3
2,25,64,35
2,27,68,48
2,22,64,6
2,22,62,27
2,25,68,1
2,22,68,30
2,25,68,2
2,27,66,11
2,25,56,1
2,25,76,29
2,27,84,5
2,22,60,2
2,22,66,34
2,25,84,0
2,22,66,48
2,27,80,10
2,25,80,48
2,25,60,29
2,27,66,10
2,22,64,48
2,22,66,17
2,25,76,24
2,22,68,24
2,25,84,5
2,27,72,10
2,25,64,10
2,25,64,32
2,27,80,8
2,22,64,2
2,22,58,40
2,25,88,3
2,22,54,48
2,27,84,12
2,25,60,3
2,25,64,35
2,27,68,48
2,22,64,6
2,22,62,27
2,25,68,1
2,22,68,30
2,25,68,2
2,27,66,11
2,25,56,1
2,25,76,29
2,27,84,5
2,22,60,2
2,22,66,34
2,25,84,0
2,22,66,48
2,27,80,10
2,25,80,48
2,25,60,29
2,27,66,10
2,22,64,48
2,22,66,17
2,25,76,24
2,22,68,24
2,25,84,5
2,27,72,10
2,25,64,10
2,25,64,32
2,27,80,8
2,22,64,2
2,22,58,40
2,25,88,3
2,22,54,48
2,27,84,12
2,25,60,3
2,25,64,35
2,27,68,48
2,22,64,6
2,22,62,27
2,25,68,1
2,22,68,30
2,25,68,2
2,27,66,11
2,25,56,1
2,25,76,29
2,27,84,5
2,22,60,2
2,22,66,34
2,25,84,0
2,22,66,48
2,27,80,10
2,25,80,48
2,25,60,29
2,27,66,10
2,22,64,48
2,22,66,17
2,25,76,24
2,22,68,24
2,25,84,5
2,27,72,10
2,25,64,10
2,25,64,32
2,27,80,8
2,22,64,2
2,22,58,40
2,25,88,3
2,22,54,48
2,27,84,12
2,25,60,3
2,25,64,35
2,27,68,48
2,22,64,6
2,22,62,27
2,25,68,1
2,22,68,30
2,25,68,2
2,27,66,11
2,25,56,1
2,25,76,29
2,27,84,5
2,22,60,2
2,22,66,34
2,25,84,0
2,22,66,48
2,27,80,10
2,25,80,48
2,25,60,29
2,27,66,10
2,22,64,48
2,22,66,17
2,25,76,24
2,22,68,24
2,25,84,5
2,27,72,10
2,25,64,10
2,25,64,32
2,27,80,8
2,22,64,2
2,22,58,40
2,25,88,3
2,22,54,48
2,27,84,12
2,25,60,3
2,25,64,35
2,27,68,48
2,22,64,6
2,22,62,27
2,25,68,1
2,22,68,30
2,25,68,2
2,27,66,11
2,25,56,1
2,25,76,29
2,27,84,5
2,22,60,2
2,22,66,34
2,25,84,0
2,22,66,48
2,27,80,10
2,25,80,48
2,25,60,29
2,27,66,10
2,22,64,48
2,22,66,17
2,25,76,24
2,22,68,24
2,25,84,5
2,27,72,10
2,25,64,10
2,25,64,32
2,27,80,8
2,22,64,2
2,22,58,40
2,25,88,3
2,22,54,48
2,27,84,12
2,25,60,3
2,25,64,35
2,27,68,48
2,22,64,6
2,22,62,27
2,25,68,1
2,22,68,30
2,25,68,2
2,27,66,11
2,25,56,1
2,25,76,29
2,27,84,5
2,22,60,2
2,22,66,34
2,25,84,0
2,22,66,48
2,27,80,10
2,25,80,48
2,25,60,29
2,27,66,10
2,22,64,48
2,22,66,17
2,25,76,24
2,22,68,24
2,25,84,5
2,27,72,10
2,25,64,10
2,25,64,32
2,27,80,8
2,22,64,2
2,22,58,40
2,25,88,3
2,22,54,48
2,27,84,12
2,25,60,3
2,25,64,35
2,27,68,48
2,22,64,6
2,22,62,27
2,25,68,1
2,22,68,30
2,25,68,2
2,27,66,11
2,25,56,1
2,25,76,29
2,27,84,5
2,22,60,2
2,22,66,34
2,25,84,0
2,22,66,48
2,27,80,10
2,25,80,48
2,25,60,29
2,27,66,10
2,22,64,48
2,22,66,17
2,25,76,24
2,22,68,24
2,25,84,5
2,27,72,10
2,25,64,10
2,25,64,32
2,27,80,8
2,22,64,2
2,22,58,40
2,25,88,3
2,22,54,48
2,27,84,12
2,25,60,3
2,25,64,35
2,27,68,48
2,22,64,6
2,22,62,27
2,25,68,1
2,22,68,30
2,25,68,2
2,27,66,11
2,25,56,1
2,25,76,29
2,27,84,5
2,22,60,2
2,22,66,34
2,25,84,0
2,22,66,48
2,27,80,10
2,25,80,48
2,25,60,29
2,27,66,10
2,22,64,48
2,22,66,17
2,25,76,24
2,22,68,24
2,25,84,5
2,27,72,10
2,25,64,10
2,25,64,32
2,27,80,8
2,22,64,2
2,22,58,40
2,25,88,3
2,22,54,48
2,27,84,12
2,25,60,3
2,25,64,35
2,27,68,48
2,22,64,6
2,22,62,27
2,25,68,1
2,22,68,30
2,25,68,2
2,27,66,11
2,25,56,1
2,25,76,29
2,27,84,5
2,22,60,2
2,22,66,34
2,25,84,0
2,22,66,48
2,27,80,10
2,25,80,48
2,25,60,29
2,27,66,10
2,22,64,48
2,22,66,17
2,25,76,24
2,22,68,24
2,25,84,5
2,23,54,10
2,23,56,33
2,23,54,33
2,23,66,31
2,22,58,9
2,22,46,39
2,20,58,5
2,22,56,48
2,27,56,1
2,27,66,32
2,27,68,29
2,27,66,25
2,27,64,29
2,27,62,32
2,25,54,8
2,27,84,4
2,25,66,6
2,27,88,4
2,23,54,4
2,23,56,33
2,23,54,33
2,23,66,31
2,22,58,9
2,22,46,39
2,20,58,5
2,22,56,48
2,27,56,1
2,27,66,32
2,27,68,29
2,27,66,25
2,27,64,29
2,27,62,32
2,25,54,8
2,27,84,4
2,25,66,6
2,27,88,4
2,23,54,4
2,23,56,33
2,23,54,33
2,23,66,31
2,22,58,9
2,22,46,39
2,20,58,5
2,22,56,48
2,27,56,1
2,27,66,32
2,27,68,29
2,27,66,25
2,27,64,29
2,27,62,32
2,25,54,8
2,27,84,4
2,25,66,6
2,27,88,4
2,32,80,4
2,32,35,26
2,32,46,33
2,32,48,29
2,30,42,4
2,32,66,1
2,32,54,16
2,32,64,29
2,32,66,32
2,30,54,7
2,32,60,7
2,32,76,22
2,32,60,25
2,32,68,30
2,30,66,6
2,32,84,0
2,32,62,26
2,32,76,30
2,32,58,30
2,30,68,11
2,27,72,387
2,25,64,10
2,25,64,32
2,27,80,8
2,22,64,2
2,22,58,40
2,25,88,3
2,22,54,48
2,27,84,12
2,25,60,3
2,25,64,35
2,27,68,48
2,22,64,6
2,22,62,27
2,25,68,1
2,22,68,30
2,25,68,2
2,27,66,11
2,25,56,1
2,25,76,29
2,27,84,5
2,22,60,2
2,22,66,34
2,25,84,0
2,22,66,48
2,27,80,10
2,25,80,48
2,25,60,29
2,27,66,10
2,22,64,48
2,22,66,17
2,25,76,24
2,22,68,24
2,25,84,5
2,27,72,10
2,25,64,10
2,25,64,32
2,27,80,8
2,22,64,2
2,22,58,40
2,25,88,3
2,22,54,48
2,27,84,12
2,25,60,3
2,25,64,35
2,27,68,48
2,22,64,6
2,22,62,27
2,25,68,1
2,22,68,30
2,25,68,2
2,27,66,11
2,25,56,1
2,25,76,29
2,27,84,5
2,22,60,2
2,22,66,34
2,25,84,0
2,22,66,48
2,27,80,10
2,25,80,48
2,25,60,29
2,27,66,10
2,22,64,48
2,22,66,17
2,25,76,24
2,22,68,24
2,25,84,5
2,27,72,10
2,25,64,10
2,25,64,32
2,27,80,8
2,22,64,2
2,22,58,40
2,25,88,3
2,22,54,48
2,27,84,12
2,25,60,3
2,25,64,35
2,27,68,48
2,22,64,6
2,22,62,27
2,25,68,1
2,22,68,30
2,25,68,2
2,27,66,11
2,25,56,1
2,25,76,29
2,27,84,5
2,22,60,2
2,22,66,34
2,25,84,0
2,22,66,48
2,27,80,10
2,25,80,48
2,25,60,29
2,27,66,10
2,22,64,48
2,22,66,17
2,25,76,24
2,22,68,24
2,25,84,5
2,27,72,10
2,25,64,10
2,25,64,32
2,27,80,8
2,22,64,2
2,22,58,40
2,25,88,3
2,22,54,48
2,27,84,12
2,25,60,3
2,25,64,35
2,27,68,48
2,22,64,6
2,22,62,27
2,25,68,1
2,22,68,30
2,25,68,2
2,27,66,11
2,25,56,1
2,25,76,29
2,27,84,5
2,22,60,2
2,22,66,34
2,25,84,0
2,22,66,48
2,27,80,10
2,25,80,48
2,25,60,29
2,27,66,10
2,22,64,48
2,22,66,17
2,25,76,24
2,22,68,24
2,25,84,5
2,27,72,10
2,25,64,10
2,25,64,32
2,27,80,8
2,22,64,2
2,22,58,40
2,25,88,3
2,22,54,48
2,27,84,12
2,25,60,3
2,25,64,35
2,27,68,48
2,22,64,6
2,22,62,27
2,25,68,1
2,22,68,30
2,25,68,2
2,27,66,11
2,25,56,1
2,25,76,29
2,27,84,5
2,22,60,2
2,22,66,34
2,25,84,0
2,22,66,48
2,27,80,10
2,25,80,48
2,25,60,29
2,27,66,10
2,22,64,48
2,22,66,17
2,25,76,24
2,22,68,24
2,25,84,5
2,27,72,10
2,25,64,10
2,25,64,32
2,27,80,8
2,22,64,2
2,22,58,40
2,25,88,3
2,22,54,48
2,27,84,12
2,25,60,3
2,25,64,35
2,27,68,48
2,22,64,6
2,22,62,27
2,25,68,1
2,22,68,30
2,25,68,2
2,27,66,11
2,25,56,1
2,25,76,29
2,27,84,5
2,22,60,2
2,22,66,34
2,25,84,0
2,22,66,48
2,27,80,10
2,25,80,48
2,25,60,29
2,27,66,10
2,22,64,48
2,22,66,17
2,25,76,24
2,22,68,24
2,25,84,5
2,27,72,10
2,25,64,10
2,25,64,32
2,27,80,8
2,22,64,2
2,22,58,40
2,25,88,3
2,22,54,48
2,27,84,12
2,25,60,3
2,25,64,35
2,27,68,48
2,22,64,6
2,22,62,27
2,25,68,1
2,22,68,30
2,25,68,2
2,27,66,11
2,25,56,1
2,25,76,29
2,27,84,5
2,22,60,2
2,22,66,34
2,25,84,0
2,22,66,48
2,27,80,10
2,25,80,24
2,25,60,24
2,27,66,10
2,22,64,48
2,22,66,17
2,25,76,24
2,22,68,24
2,25,84,5
2,27,72,10
2,25,64,10
2,25,64,24
2,27,80,8
2,22,64,2
2,22,58,24
2,25,88,3
2,22,54,24
2,27,84,12
2,25,60,3
2,25,64,24
2,27,68,24
2,22,64,6
2,22,62,27
2,25,68,1
2,22,68,24
2,25,68,2
2,27,66,11
2,25,56,1
2,25,76,29
2,27,84,5
2,22,60,2
2,22,66,24
2,25,84,0
2,22,66,48
2,27,80,10
2,25,80,24
2,25,60,29
2,27,66,10
2,22,64,24
2,22,66,17
2,25,76,24
2,22,68,24
2,25,84,5
2,27,72,10
2,25,64,10
2,25,64,24
2,27,80,8
2,22,64,2
2,22,58,40
2,25,88,3
2,22,54,24
2,27,84,12
2,25,60,3
2,25,64,24
2,27,68,24
2,22,64,6
2,22,62,27
2,25,68,1
2,22,68,30
2,25,68,2
2,27,66,11
2,25,56,1
2,25,76,24
2,27,84,5
2,22,60,2
2,22,66,24
2,25,84,0
2,22,66,24
2,27,80,10
2,25,80,48
2,25,60,29
2,27,66,10
2,22,64,24
2,22,66,17
2,25,76,24
2,22,68,24
2,25,84,5
2,27,72,10
2,25,64,10
2,25,64,32
2,27,80,8
2,22,64,2
2,22,58,40
2,25,88,3
2,22,54,48
2,27,84,12
2,25,60,3
2,25,64,24
2,27,68,48
2,22,64,6
2,22,62,24
2,25,68,1
2,22,68,30
2,25,68,2
2,27,66,11
2,25,56,1
2,25,76,24
2,27,84,5
2,22,60,2
2,22,66,24
2,25,84,0
2,22,66,24
2,27,80,10
2,25,80,48
2,25,60,24
2,27,66,10
2,22,64,24
2,22,66,17
2,25,76,24
2,22,68,24
2,25,84,5
3,66,58,2194
3,63,70,0
3,58,70,0
3,39,42,0
3,65,74,7
3,61,56,0
3,56,62,0
3,63,58,29
3,61,58,0
3,56,58,0
3,63,22,5
3,60,58,0
3,56,46,0
3,66,56,40
3,63,62,0
3,58,74,0
3,65,70,16
3,61,66,0
3,56,58,0
3,63,58,33
3,61,66,0
3,56,70,0
3,63,56,11
3,60,58,0
3,56,54,0
3,63,56,1586
3,60,70,0
3,56,56,0
3,63,58,43
3,60,58,0
3,56,62,0
3,63,58,16
3,58,62,0
3,54,58,0
3,63,56,63
3,58,50,0
3,54,58,0
3,63,58,21
3,60,62,0
3,56,56,0
3,63,54,37
3,60,62,0
