track,note,velocity,time
1,70,39,1536
1,63,39,4
1,65,39,4
1,62,39,4
1,63,39,28
1,70,39,4
1,65,39,4
1,62,39,4
1,65,39,33820
1,60,39,4
1,58,39,4
1,65,39,12
1,57,39,4
1,60,39,4
1,65,39,33804
1,60,39,4
1,58,39,4
1,65,39,12
1,57,39,4
1,56,39,15376
1,58,39,16
1,56,39,16
1,58,39,16
1,56,39,16
1,58,39,16
1,60,39,16
1,72,13,67600
1,67,14,4
1,60,10,4
1,64,8,4
1,55,4,4
2,24,81,1552
2,24,81,44
2,34,81,40
2,27,81,28
2,29,81,28
2,34,81,24
2,27,81,28
2,29,81,28
2,34,81,28
2,27,81,24
2,29,81,24
2,34,81,24
2,27,81,24
2,29,81,24
2,31,81,24
2,27,81,24
2,31,81,24
2,27,81,24
2,31,81,32
2,27,81,24
2,29,81,32
2,34,81,4
2,27,81,32
2,29,81,28
2,34,81,24
2,27,81,24
2,29,81,28
2,34,81,28
2,27,81,24
2,29,81,24
2,34,81,24
2,27,81,24
2,29,81,24
2,31,81,32
2,27,81,28
2,31,81,28
2,27,81,24
2,31,81,28
2,27,81,24
2,29,81,40
2,34,81,20
2,27,81,28
2,29,81,28
2,34,81,24
2,27,81,28
2,29,81,28
2,25,81,3092
2,27,81,20
2,25,81,20
2,27,81,20
2,25,81,20
2,27,81,20
2,29,81,20
2,36,81,28
2,29,81,24
2,31,81,20
2,36,81,24
2,29,81,24
2,31,81,20
2,33,81,20
2,29,81,20
2,33,81,20
2,29,81,20
2,33,81,20
2,29,81,20
2,31,81,20
2,34,81,24
2,27,81,28
2,29,81,28
2,34,81,24
2,27,81,28
2,29,81,28
2,34,81,24
2,27,81,28
2,29,81,28
2,34,81,24
2,27,81,28
2,29,81,28
2,36,81,20
2,29,81,20
2,31,81,20
2,36,81,20
2,29,81,20
2,31,81,20
2,36,81,20
2,29,81,20
2,31,81,20
3,30,72,7680
3,31,72,16
3,30,72,400
3,30,72,112
3,31,72,16
3,30,72,2128
3,31,72,16
3,30,72,400
3,30,72,112
3,31,72,16
3,30,72,2128
3,30,72,32
3,30,72,416
3,30,72,128
3,31,72,32
3,33,72,22136
3,33,72,16
3,33,72,112
3,30,72,1744
3,30,72,16
3,31,72,16
3,31,72,16
3,30,72,16
3,33,72,34312
3,33,72,16
3,33,72,112
3,30,72,1744
3,30,72,16
3,31,72,16
3,31,72,16
3,30,72,16
3,33,72,25072
3,33,72,16
3,33,72,112
3,30,72,1744
3,30,72,16
3,31,72,16
3,31,72,16
3,30,72,16
4,77,49,13824
4,74,49,4
4,72,49,4
4,77,49,12
4,70,49,4
4,67,49,4
4,75,49,4
4,77,49,0
4,72,49,4
4,69,49,4
4,77,49,12
4,74,49,4
4,72,49,4
4,77,49,12
4,70,49,4
4,67,49,4
4,75,49,4
4,77,49,0
4,72,49,4
4,69,49,4
4,84,49,16
4,86,49,4
4,82,49,4
4,77,49,4
4,87,49,12
4,82,49,4
4,77,49,4
4,79,49,4
4,77,49,12
4,84,49,4
4,81,49,4
4,89,49,4
4,82,49,12
4,84,49,4
4,86,49,4
4,77,49,4
4,87,49,12
4,82,49,4
4,77,49,4
4,79,49,4
4,77,49,12
4,89,49,4
4,81,49,4
4,84,49,4
4,89,49,12
4,82,49,4
4,86,49,4
4,84,49,4
4,89,49,12
4,82,49,4
4,87,49,4
4,79,49,4
4,89,49,12
4,82,49,4
4,84,49,4
4,86,49,4
4,89,49,12
4,82,49,4
4,87,49,4
4,79,49,4
4,86,49,12
4,89,49,4
4,84,49,4
4,82,49,4
4,77,49,4
4,89,49,8
4,79,49,4
4,82,49,4
4,87,49,4
4,87,49,24
4,89,49,4
4,84,49,4
4,89,49,20
4,87,49,4
4,84,49,4
4,77,49,3080
4,70,49,4
4,67,49,4
4,75,49,4
4,77,49,0
4,72,49,4
4,69,49,4
4,77,49,12
4,74,49,4
4,72,49,4
4,77,49,12
4,70,49,4
4,67,49,4
4,75,49,4
4,77,49,0
4,72,49,4
4,69,49,4
4,84,49,16
4,86,49,4
4,82,49,4
4,77,49,4
4,87,49,12
4,82,49,4
4,77,49,4
4,79,49,4
4,77,49,12
4,84,49,4
4,81,49,4
4,89,49,4
4,82,49,12
4,84,49,4
4,86,49,4
4,77,49,4
4,87,49,12
4,82,49,4
4,77,49,4
4,79,49,4
4,77,49,12
4,89,49,4
4,81,49,4
4,84,49,4
4,86,49,12
4,84,49,4
4,82,49,4
4,79,49,4
4,77,49,4
4,82,49,8
4,77,49,4
4,87,49,4
4,79,49,4
4,82,49,12
4,84,49,4
4,86,49,4
4,79,49,4
4,77,49,4
4,82,49,8
4,77,49,4
4,87,49,4
4,79,49,4
4,84,49,12
4,82,49,4
4,86,49,4
4,79,49,4
4,77,49,4
4,82,49,8
4,87,49,4
4,77,49,4
4,79,49,4
4,84,49,24
4,82,49,4
4,87,49,4
4,89,49,4
4,89,49,16
4,87,49,4
4,84,49,4
4,77,49,8
4,74,49,4
4,72,49,4
4,77,49,12
4,70,49,4
4,67,49,4
4,75,49,4
4,77,49,0
4,72,49,4
4,69,49,4
4,77,49,16
4,74,49,4
4,72,49,4
4,77,49,12
4,70,49,4
4,67,49,4
4,75,49,4
4,77,49,0
4,72,49,4
4,69,49,4
4,84,49,15376
4,88,49,4
4,86,49,4
4,89,49,16
4,84,49,4
4,81,49,4
4,86,49,16
4,79,49,4
4,88,49,16
4,86,49,4
4,84,49,4
4,89,49,16
4,84,49,4
4,81,49,4
4,79,49,16
4,86,49,4
4,86,49,16
4,88,49,4
4,89,49,16
4,91,49,4
4,86,49,16
4,88,49,4
4,89,49,16
4,91,49,4
4,88,49,16
4,86,49,4
4,89,49,16
4,91,49,4
4,91,49,16
4,84,49,4
4,91,49,16
4,83,49,4
4,77,49,16
4,74,49,4
4,72,49,4
4,77,49,12
4,70,49,4
4,67,49,4
4,75,49,4
4,77,49,0
4,72,49,4
4,69,49,4
4,77,49,12
4,74,49,4
4,72,49,4
4,77,49,12
4,70,49,4
4,67,49,4
4,75,49,4
4,77,49,0
4,72,49,4
4,69,49,4
4,77,49,12
4,74,49,4
4,72,49,4
4,77,49,12
4,70,49,4
4,67,49,4
4,75,49,4
4,77,49,0
4,72,49,4
4,69,49,4
4,77,49,16
4,74,49,4
4,72,49,4
4,77,49,12
4,70,49,4
4,67,49,4
4,75,49,4
4,77,49,0
4,72,49,4
4,69,49,4
4,86,49,16
4,91,49,4
4,91,49,16
4,89,49,4
4,86,49,16
4,91,49,4
4,86,49,16
4,91,49,4
4,91,49,16
4,89,49,4
4,86,49,16
4,91,49,4
4,86,49,16
4,91,49,4
4,91,49,16
4,89,49,4
4,91,49,16
4,86,49,4
5,65,72,13844
5,58,72,0
5,60,72,16
5,62,72,16
5,65,72,0
5,58,72,0
5,60,72,16
5,62,72,16
5,65,72,27660
5,58,72,4
5,60,72,16
5,62,72,16
5,65,72,0
5,58,72,0
5,60,72,16
5,62,72,16
5,65,72,27680
5,58,72,4
5,60,72,16
5,62,72,16
5,82,72,960
5,77,72,16
5,82,72,16
5,89,72,112
5,82,72,1736
5,77,72,16
5,82,72,16
5,89,72,112
5,87,72,112
5,86,72,112
5,84,72,112
5,82,72,112
5,65,72,0
5,58,72,0
5,60,72,16
5,62,72,16
5,82,72,960
5,77,72,16
5,82,72,16
5,89,72,112
5,82,72,1736
5,77,72,16
5,82,72,16
5,89,72,112
5,87,72,112
5,86,72,112
5,84,72,112
5,82,72,112
5,65,72,3192
5,60,72,4
5,63,72,4
5,58,72,20
5,65,72,4
5,63,72,0
5,60,72,20
5,65,72,4
5,63,72,4
5,58,72,20
5,63,72,4
5,65,72,0
5,60,72,20
5,65,72,4
5,63,72,4
5,58,72,20
5,65,72,4
5,63,72,0
5,65,72,20
5,57,72,4
5,60,72,0
5,67,72,32
5,64,72,4
5,60,72,0
5,55,72,20
5,60,72,20
5,55,72,16
5,62,72,16
5,55,72,212
5,60,72,20
5,55,72,16
5,62,72,16
5,67,72,28
5,65,72,0
5,60,72,4
5,55,72,20
5,60,72,20
5,55,72,16
5,62,72,16
5,62,72,20
5,67,72,4
5,60,72,4
5,55,72,20
5,59,72,20
5,55,72,16
5,60,72,16
5,55,72,20
5,59,72,20
5,55,72,16
5,67,72,28
5,64,72,0
5,60,72,4
5,55,72,20
5,60,72,20
5,55,72,16
5,62,72,16
5,55,72,212
5,60,72,20
5,55,72,16
5,62,72,16
5,67,72,28
5,65,72,0
5,60,72,4
5,55,72,20
5,60,72,20
5,55,72,16
5,62,72,16
5,67,72,24
5,62,72,4
5,60,72,0
5,55,72,20
5,59,72,20
5,55,72,16
5,60,72,16
5,55,72,20
5,59,72,20
5,55,72,16
5,67,72,24
5,60,72,0
5,64,72,4
5,62,72,4
5,60,72,20
5,67,72,4
5,65,72,4
5,67,72,24
5,60,72,0
5,62,72,4
5,64,72,4
5,60,72,24
5,67,72,0
5,65,72,4
5,60,72,24
5,64,72,0
5,67,72,4
5,62,72,4
5,60,72,24
5,65,72,0
5,67,72,4
5,60,72,24
5,65,72,0
5,67,72,4
5,62,72,4
5,67,72,16
5,65,72,4
5,59,72,4
5,62,72,4
5,65,72,28
5,58,72,0
5,60,72,16
5,62,72,16
5,65,72,0
5,58,72,0
5,60,72,16
5,62,72,16
5,65,72,3096
5,58,72,4
5,60,72,16
5,62,72,16
5,82,72,960
5,77,72,16
5,82,72,16
5,89,72,112
5,82,72,1736
5,77,72,16
5,82,72,16
5,89,72,112
5,87,72,112
5,86,72,112
5,84,72,112
5,82,72,112
5,65,72,132
5,58,72,0
5,60,72,16
5,62,72,16
5,82,72,960
5,77,72,16
5,82,72,16
5,89,72,112
5,82,72,1736
5,77,72,16
5,82,72,16
5,89,72,112
5,87,72,112
5,86,72,112
5,84,72,112
5,82,72,112
5,67,72,128
5,64,72,0
5,62,72,4
5,65,72,20
5,60,72,4
5,67,72,4
5,59,72,20
5,67,72,4
5,62,72,4
5,67,72,20
5,62,72,4
5,64,72,4
5,65,72,20
5,60,72,4
5,67,72,4
5,67,72,20
5,62,72,4
5,59,72,4
5,64,72,20
5,67,72,4
5,62,72,4
5,65,72,20
5,60,72,4
5,67,72,4
5,67,72,20
5,62,72,4
5,59,72,4
6,44,74,792
7,91,52,115392
7,91,52,32
7,91,52,32
7,91,52,512
7,91,52,32
7,91,52,32
7,91,52,512
7,91,52,32
7,91,52,32
7,91,52,512
7,91,52,32
7,91,52,32
7,91,52,512
7,91,52,32
7,91,52,32
7,91,52,512
7,91,52,32
7,91,52,32
7,91,52,512
7,91,52,32
7,91,52,32
7,91,52,512
7,91,52,32
7,91,52,32
7,91,52,512
7,91,52,32
7,91,52,32
7,91,52,512
7,91,52,32
7,91,52,32
7,91,52,512
7,91,52,32
7,91,52,32
7,91,52,512
7,91,52,32
7,91,52,32
7,91,52,512
7,91,52,32
7,91,52,32
7,91,52,512
7,91,52,32
7,91,52,32
7,91,52,512
7,91,52,32
7,91,52,32
7,91,52,512
7,91,52,32
7,91,52,32
7,91,52,512
7,91,52,32
7,91,52,32
7,91,52,512
7,91,52,32
7,91,52,32
7,91,52,512
7,91,52,32
7,91,52,32
7,91,52,512
7,91,52,32
7,91,52,32
7,91,52,512
7,91,52,32
7,91,52,32
7,91,52,512
7,91,52,32
7,91,52,32
7,91,52,512
7,91,52,32
7,91,52,32
7,91,52,512
7,91,52,32
7,91,52,32
7,91,52,512
7,91,52,32
7,91,52,32
7,91,52,512
7,91,52,32
7,91,52,32
7,91,52,512
7,91,52,32
7,91,52,32
7,91,52,512
7,91,52,32
7,91,52,32
7,91,52,512
7,91,52,32
7,91,52,32
7,91,52,512
7,91,52,32
7,91,52,32
7,91,52,512
7,91,52,32
7,91,52,32
7,91,52,512
7,91,52,32
7,91,52,32
7,91,52,25088
7,91,52,32
7,91,52,32
7,91,52,512
7,91,52,32
7,91,52,32
7,91,52,512
7,91,52,32
7,91,52,32
7,91,52,512
7,91,52,32
7,91,52,32
7,91,52,512
7,91,52,32
7,91,52,32
7,91,52,512
7,91,52,32
7,91,52,32
7,91,52,512
7,91,52,32
7,91,52,32
7,91,52,512
7,91,52,32
7,91,52,32
7,91,52,512
7,91,52,32
7,91,52,32
7,91,52,512
7,91,52,32
7,91,52,32
7,91,52,512
7,91,52,32
7,91,52,32
7,91,52,512
7,91,52,32
7,91,52,32
7,91,52,512
7,91,52,32
7,91,52,32
7,91,52,512
7,91,52,32
7,91,52,32
7,91,52,512
7,91,52,32
7,91,52,32
7,91,52,512
7,91,52,32
7,91,52,32
7,91,52,512
7,91,52,32
7,91,52,32
7,91,52,512
7,91,52,32
7,91,52,32
7,91,52,512
7,91,52,32
7,91,52,32
7,91,52,512
7,91,52,32
7,91,52,32
7,91,52,512
7,91,52,32
7,91,52,32
7,91,52,512
7,91,52,32
7,91,52,32
7,91,52,512
7,91,52,32
7,91,52,32
7,91,52,512
7,91,52,32
7,91,52,32
8,60,40,96
9,42,64,1556
9,42,64,16
9,42,64,16
9,42,69,16
9,42,64,16
9,42,69,16
9,42,64,16
9,42,69,16
9,42,64,16
9,42,69,16
9,42,64,16
9,42,69,16
9,46,71,16
9,42,69,16
9,42,64,16
9,42,69,16
9,42,64,16
9,42,69,16
9,42,64,16
9,42,69,16
9,42,64,16
9,42,69,16
9,42,64,16
9,42,69,16
9,42,64,16
9,42,69,16
9,42,64,16
9,46,71,16
9,42,64,16
9,42,69,16
9,42,64,16
9,42,69,16
9,42,64,16
9,42,69,16
9,42,64,16
9,42,69,16
9,42,64,16
9,42,69,16
9,42,64,16
9,42,69,16
9,42,64,16
9,42,69,16
9,42,64,16
9,42,69,16
9,46,71,16
9,42,69,16
9,42,64,16
9,42,69,16
9,42,64,16
9,42,69,16
9,42,64,16
9,42,69,16
9,42,64,16
9,42,69,16
9,42,64,16
9,42,69,16
9,42,64,16
9,42,69,16
9,42,64,16
9,46,71,16
9,36,76,132
9,42,69,0
9,36,76,16
9,42,64,0
9,42,69,16
9,42,64,16
9,42,69,16
9,42,64,16
9,36,76,16
9,42,69,0
9,36,76,16
9,42,64,0
9,36,76,16
9,42,69,0
9,36,76,16
9,42,64,0
9,42,69,16
9,42,64,16
9,42,69,16
9,42,64,16
9,42,69,16
9,46,71,16
9,36,76,16
9,42,69,4
9,36,76,16
9,42,64,4
9,42,69,16
9,42,64,16
9,42,69,16
9,42,64,16
9,36,76,16
9,42,69,4
9,36,76,16
9,42,64,0
9,36,76,16
9,42,69,4
9,36,76,16
9,42,64,4
9,42,69,16
9,42,64,16
9,42,69,16
9,42,64,16
9,46,71,16
9,36,76,112
9,42,69,0
9,36,76,16
9,42,64,0
9,42,69,16
9,42,64,16
9,42,69,16
9,42,64,16
9,36,76,16
9,42,69,0
9,36,76,16
9,42,64,0
9,36,76,16
9,42,69,0
9,36,76,16
9,42,64,0
9,42,69,16
9,42,64,16
9,42,69,16
9,42,64,16
9,42,69,16
9,46,71,16
9,36,76,16
9,42,69,4
9,36,76,16
9,50,53,4
9,42,64,0
9,42,69,16
9,42,64,16
9,50,53,16
9,42,69,0
9,42,64,16
9,36,76,16
9,42,69,4
9,50,53,16
9,36,76,0
9,42,64,4
9,36,76,16
9,42,69,4
9,36,76,16
9,42,64,4
9,42,69,16
9,42,64,16
9,42,69,16
9,42,64,16
9,46,71,16
9,36,76,136
9,42,69,4
9,36,76,32
9,42,64,0
9,42,69,32
9,42,64,32
9,38,61,32
9,42,69,0
9,42,64,32
9,36,76,32
9,42,69,0
9,36,76,32
9,42,64,0
9,36,76,36
9,42,69,0
9,36,76,32
9,42,64,0
9,42,69,32
9,42,64,32
9,38,61,32
9,42,69,0
9,42,64,32
9,42,69,32
9,46,71,32
9,36,76,36
9,42,69,0
9,36,76,32
9,42,64,0
9,42,69,32
9,42,64,32
9,38,61,32
9,42,69,0
9,42,64,32
9,36,76,32
9,42,69,0
9,36,76,32
9,42,64,0
9,36,76,32
9,42,69,0
9,36,76,32
9,42,64,0
9,42,69,32
9,42,64,32
