track,note,velocity,time
1,65,110,960
1,65,0,200
1,65,110,40
1,65,0,200
1,64,110,40
1,64,0,117
1,62,110,3
1,62,0,117
1,60,110,3
1,60,0,200
1,60,110,40
1,60,0,200
1,62,110,40
1,62,0,660
1,65,110,1860
1,65,0,237
1,65,110,3
1,65,0,117
1,65,110,3
1,65,0,200
1,64,110,40
1,64,0,200
1,62,110,40
1,62,0,200
1,60,110,40
1,60,0,420
1,62,110,60
1,62,0,240
1,60,110,0
1,60,0,200
1,60,110,40
1,60,0,900
1,65,110,1020
1,65,0,200
1,65,110,40
1,65,0,200
1,64,110,40
1,64,0,117
1,62,110,3
1,62,0,117
1,60,110,3
1,60,0,200
1,69,110,40
1,69,0,200
1,64,110,40
1,64,0,200
1,64,110,40
1,64,0,117
1,62,110,3
1,62,0,200
1,64,110,40
1,64,0,1020
1,65,110,900
1,65,0,237
1,65,110,3
1,65,0,117
1,65,110,3
1,65,0,200
1,64,110,40
1,64,0,177
1,62,110,3
1,62,0,177
1,60,110,3
1,60,0,117
1,60,110,3
1,60,0,900
1,65,110,9660
1,65,0,200
1,65,110,40
1,65,0,200
1,64,110,40
1,64,0,117
1,62,110,3
1,62,0,117
1,60,110,3
1,60,0,200
1,60,110,40
1,60,0,200
1,62,110,40
1,62,0,660
1,65,110,1860
1,65,0,237
1,65,110,3
1,65,0,117
1,65,110,3
1,65,0,200
1,64,110,40
1,64,0,200
1,62,110,40
1,62,0,200
1,60,110,40
1,60,0,420
1,62,110,60
1,62,0,240
1,60,110,0
1,60,0,200
1,60,110,40
1,60,0,900
1,65,110,1020
1,65,0,200
1,65,110,40
1,65,0,200
1,64,110,40
1,64,0,117
1,62,110,3
1,62,0,117
1,60,110,3
1,60,0,200
1,69,110,40
1,69,0,200
1,64,110,40
1,64,0,200
1,64,110,40
1,64,0,117
1,62,110,3
1,62,0,200
1,64,110,40
1,64,0,1020
1,65,110,900
1,65,0,237
1,65,110,3
1,65,0,117
1,65,110,3
1,65,0,200
1,64,110,40
1,64,0,177
1,62,110,3
1,62,0,177
1,60,110,3
1,60,0,117
1,60,110,3
1,60,0,900
1,65,110,1500
1,65,0,117
1,65,110,3
1,65,0,117
1,65,110,3
1,65,0,117
1,60,110,3
1,60,0,540
1,65,110,60
1,65,0,320
1,60,110,40
1,60,0,540
1,64,110,60
1,64,0,117
1,62,110,3
1,62,0,117
1,64,110,3
1,64,0,117
1,65,110,3
1,65,0,440
1,64,110,40
1,64,0,320
1,62,110,40
1,62,0,200
1,58,110,40
1,58,0,200
1,58,110,160
1,58,0,117
1,65,110,3
1,65,0,117
1,65,110,3
1,65,0,200
1,60,110,40
1,60,0,237
1,65,110,3
1,65,0,560
1,60,110,40
1,60,0,200
1,67,110,40
1,67,0,420
1,60,110,300
1,60,0,117
1,60,110,3
1,60,0,117
1,70,110,3
1,70,0,120
1,69,110,0
1,69,0,200
1,65,110,40
1,65,0,117
1,65,110,3
1,65,0,200
1,65,110,40
1,65,0,200
1,65,110,520
1,65,0,117
1,65,110,3
1,65,0,117
1,65,110,3
1,65,0,117
1,60,110,3
1,60,0,540
1,65,110,60
1,65,0,117
1,65,110,3
1,65,0,200
1,60,110,40
1,60,0,540
1,64,110,60
1,64,0,117
1,62,110,3
1,62,0,117
1,64,110,3
1,64,0,117
1,65,110,3
1,65,0,440
1,64,110,40
1,64,0,320
1,62,110,40
1,62,0,200
1,58,110,40
1,58,0,200
1,58,110,160
1,58,0,117
1,65,110,3
1,65,0,117
1,65,110,3
1,65,0,200
1,60,110,40
1,60,0,237
1,65,110,3
1,65,0,320
1,60,110,280
1,60,0,200
1,67,110,40
1,67,0,420
1,60,110,300
1,60,0,117
1,60,110,3
1,60,0,117
1,70,110,3
1,70,0,117
1,69,110,3
1,69,0,200
1,65,110,40
1,65,0,117
1,70,110,3
1,70,0,120
1,69,110,0
1,69,0,200
1,65,110,40
1,65,0,440
1,62,110,40
1,62,0,540
1,60,110,3900
1,60,0,117
1,60,110,3
1,60,0,117
1,60,110,3
1,60,0,117
1,60,110,3
1,60,0,237
1,62,110,3
1,62,0,117
1,60,110,3
1,60,0,200
1,59,110,40
1,59,0,900
1,60,110,1980
1,60,0,117
1,60,110,3
1,60,0,117
1,60,110,3
1,60,0,117
1,60,110,3
1,60,0,237
1,62,110,3
1,62,0,117
1,60,110,3
1,60,0,200
1,59,110,40
1,59,0,240
1,57,110,0
1,57,0,120
1,55,110,0
1,55,0,540
1,65,110,1980
1,65,0,117
1,65,110,3
1,65,0,117
1,65,110,3
1,65,0,117
1,65,110,3
1,65,0,237
1,67,110,3
1,67,0,117
1,65,110,3
1,65,0,200
1,62,110,40
1,62,0,1380
1,65,110,1500
1,65,0,117
1,65,110,3
1,65,0,117
1,65,110,3
1,65,0,117
1,65,110,3
1,65,0,237
1,67,110,3
1,67,0,200
1,65,110,40
1,65,0,117
1,67,110,3
1,67,0,120
1,65,110,0
1,65,0,120
1,62,110,0
1,62,0,660
1,64,110,1980
1,64,0,320
1,62,110,40
1,62,0,117
1,62,110,3
1,62,0,420
1,64,110,60
1,64,0,320
1,62,110,40
1,62,0,117
1,67,110,3
1,67,0,720
1,65,110,0
1,65,0,120
1,64,110,0
1,64,0,120
1,62,110,0
1,62,0,420
1,65,110,1020
1,65,0,117
1,65,110,3
1,65,0,117
1,65,110,3
1,65,0,117
1,65,110,3
1,65,0,237
1,67,110,3
1,67,0,200
1,65,110,40
1,65,0,117
1,67,110,3
1,67,0,120
1,65,110,0
1,65,0,120
1,62,110,0
1,62,0,660
1,65,110,13500
1,65,0,200
1,65,110,40
1,65,0,200
1,64,110,40
1,64,0,117
1,62,110,3
1,62,0,117
1,60,110,3
1,60,0,200
1,60,110,40
1,60,0,200
1,62,110,40
1,62,0,660
1,65,110,1860
1,65,0,237
1,65,110,3
1,65,0,117
1,65,110,3
1,65,0,200
1,64,110,40
1,64,0,200
1,62,110,40
1,62,0,200
1,60,110,40
1,60,0,420
1,62,110,60
1,62,0,240
1,60,110,0
1,60,0,200
1,60,110,40
1,60,0,900
1,65,110,1020
1,65,0,200
1,65,110,40
1,65,0,200
1,64,110,40
1,64,0,117
1,62,110,3
1,62,0,117
1,60,110,3
1,60,0,200
1,69,110,40
1,69,0,200
1,64,110,40
1,64,0,200
1,64,110,40
1,64,0,117
1,62,110,3
1,62,0,200
1,64,110,40
1,64,0,1020
1,65,110,900
1,65,0,237
1,65,110,3
1,65,0,117
1,65,110,3
1,65,0,200
1,64,110,40
1,64,0,177
1,62,110,3
1,62,0,177
1,60,110,3
1,60,0,117
1,60,110,3
1,60,0,900
1,65,110,540
1,65,0,117
1,65,110,3
1,65,0,117
1,65,110,3
1,65,0,117
1,60,110,3
1,60,0,540
1,65,110,60
1,65,0,320
1,60,110,40
1,60,0,540
1,64,110,60
1,64,0,117
1,62,110,3
1,62,0,117
1,64,110,3
1,64,0,117
1,65,110,3
1,65,0,440
1,64,110,40
1,64,0,320
1,62,110,40
1,62,0,200
1,58,110,40
1,58,0,200
1,58,110,160
1,58,0,117
1,65,110,3
1,65,0,117
1,65,110,3
1,65,0,200
1,60,110,40
1,60,0,237
1,65,110,3
1,65,0,560
1,60,110,40
1,60,0,200
1,67,110,40
1,67,0,420
1,60,110,300
1,60,0,117
1,60,110,3
1,60,0,117
1,70,110,3
1,70,0,120
1,69,110,0
1,69,0,200
1,65,110,40
1,65,0,117
1,65,110,3
1,65,0,200
1,65,110,40
1,65,0,200
1,65,110,520
1,65,0,117
1,65,110,3
1,65,0,117
1,65,110,3
1,65,0,117
1,60,110,3
1,60,0,540
1,65,110,60
1,65,0,117
1,65,110,3
1,65,0,200
1,60,110,40
1,60,0,540
1,64,110,60
1,64,0,117
1,62,110,3
1,62,0,117
1,64,110,3
1,64,0,117
1,65,110,3
1,65,0,440
1,64,110,40
1,64,0,320
1,62,110,40
1,62,0,200
1,58,110,40
1,58,0,200
1,58,110,160
1,58,0,117
1,65,110,3
1,65,0,117
1,65,110,3
1,65,0,200
1,60,110,40
1,60,0,237
1,65,110,3
1,65,0,320
1,60,110,280
1,60,0,200
1,67,110,40
1,67,0,420
1,60,110,300
1,60,0,117
1,60,110,3
1,60,0,117
1,70,110,3
1,70,0,117
1,69,110,3
1,69,0,200
1,65,110,40
1,65,0,117
1,70,110,3
1,70,0,120
1,69,110,0
1,69,0,200
1,65,110,40
1,65,0,440
1,62,110,40
1,62,0,540
1,60,110,3900
1,60,0,117
1,60,110,3
1,60,0,117
1,60,110,3
1,60,0,117
1,60,110,3
1,60,0,237
1,62,110,3
1,62,0,117
1,60,110,3
1,60,0,200
1,59,110,40
1,59,0,900
1,60,110,1980
1,60,0,117
1,60,110,3
1,60,0,117
1,60,110,3
1,60,0,117
1,60,110,3
1,60,0,237
1,62,110,3
1,62,0,117
1,60,110,3
1,60,0,200
1,59,110,40
1,59,0,240
1,57,110,0
1,57,0,120
1,55,110,0
1,55,0,540
1,65,110,1980
1,65,0,117
1,65,110,3
1,65,0,117
1,65,110,3
1,65,0,117
1,65,110,3
1,65,0,237
1,67,110,3
1,67,0,117
1,65,110,3
1,65,0,200
1,62,110,40
1,62,0,1380
1,65,110,1500
1,65,0,117
1,65,110,3
1,65,0,117
1,65,110,3
1,65,0,117
1,65,110,3
1,65,0,237
1,67,110,3
1,67,0,200
1,65,110,40
1,65,0,117
1,67,110,3
1,67,0,120
1,65,110,0
1,65,0,120
1,62,110,0
1,62,0,660
1,64,110,1980
1,64,0,320
1,62,110,40
1,62,0,117
1,62,110,3
1,62,0,420
1,64,110,60
1,64,0,320
1,62,110,40
1,62,0,117
1,67,110,3
1,67,0,720
1,65,110,0
1,65,0,120
1,64,110,0
1,64,0,120
1,62,110,0
1,62,0,420
1,65,110,1020
1,65,0,117
1,65,110,3
1,65,0,117
1,65,110,3
1,65,0,117
1,65,110,3
1,65,0,237
1,67,110,3
1,67,0,200
1,65,110,40
1,65,0,117
1,67,110,3
1,67,0,120
1,65,110,0
1,65,0,120
1,62,110,0
1,62,0,660
2,57,110,0
2,62,110,0
2,65,110,0
2,57,0,200
2,62,0,0
2,65,0,0
2,57,110,40
2,62,110,0
2,65,110,0
2,57,0,200
2,62,0,0
2,65,0,0
2,57,110,40
2,62,110,0
2,65,110,0
2,57,0,200
2,62,0,0
2,65,0,0
2,57,110,40
2,62,110,0
2,65,110,0
2,57,0,117
2,62,0,0
2,65,0,0
2,57,110,3
2,60,110,0
2,64,110,0
2,64,0,117
2,65,110,3
2,65,0,200
2,65,110,40
2,57,0,180
2,60,0,0
2,65,0,20
2,64,110,40
2,64,0,117
2,62,110,3
2,62,0,117
2,60,110,3
2,60,0,200
2,57,110,40
2,60,110,0
2,57,0,200
2,60,0,0
2,62,110,40
2,62,0,200
2,57,110,40
2,60,110,0
2,64,110,0
2,57,0,200
2,60,0,0
2,64,0,0
2,57,110,40
2,60,110,0
2,64,110,0
2,57,0,200
2,60,0,0
2,64,0,0
2,57,110,40
2,60,110,0
2,64,110,0
2,57,0,200
2,60,0,0
2,64,0,0
2,57,110,40
2,60,110,0
2,64,110,0
2,57,0,200
2,60,0,0
2,64,0,0
2,57,110,40
2,60,110,0
2,64,110,0
2,57,0,200
2,60,0,0
2,64,0,0
2,57,110,40
2,60,110,0
2,64,110,0
2,57,0,200
2,60,0,0
2,64,0,0
2,57,110,40
2,62,110,0
2,65,110,0
2,57,0,200
2,62,0,0
2,65,0,0
2,57,110,40
2,62,110,0
2,65,110,0
2,57,0,200
2,62,0,0
2,65,0,0
2,57,110,40
2,62,110,0
2,65,110,0
2,57,0,200
2,62,0,0
2,65,0,0
2,57,110,40
2,62,110,0
2,65,110,0
2,57,0,117
2,62,0,0
2,65,0,0
2,57,110,3
2,60,110,0
2,65,110,0
2,57,0,237
2,60,0,0
2,65,0,0
2,65,110,3
2,65,0,117
2,65,110,3
2,65,0,200
2,64,110,40
2,64,0,200
2,62,110,40
2,62,0,200
2,57,110,40
2,60,110,0
2,57,0,420
2,60,0,0
2,62,110,60
2,62,0,200
2,60,110,40
2,60,0,200
2,57,110,40
2,60,110,0
2,57,0,200
2,60,0,0
2,57,110,40
2,60,110,0
2,64,110,0
2,57,0,200
2,60,0,0
2,64,0,0
2,57,110,40
2,60,110,0
2,64,110,0
2,57,0,200
2,60,0,0
2,64,0,0
2,57,110,40
2,60,110,0
2,64,110,0
2,57,0,200
2,60,0,0
2,64,0,0
2,57,110,40
2,62,110,0
2,65,110,0
2,57,0,200
2,62,0,0
2,65,0,0
2,57,110,40
2,62,110,0
2,65,110,0
2,57,0,200
2,62,0,0
2,65,0,0
2,57,110,40
2,62,110,0
2,65,110,0
2,57,0,200
2,62,0,0
2,65,0,0
2,57,110,40
2,62,110,0
2,65,110,0
2,57,0,117
2,62,0,0
2,65,0,0
2,57,110,3
2,60,110,0
2,64,110,0
2,64,0,117
2,65,110,3
2,65,0,200
2,65,110,40
2,57,0,180
2,60,0,0
2,65,0,20
2,64,110,40
2,64,0,117
2,62,110,3
2,62,0,117
2,60,110,3
2,60,0,200
2,60,110,40
2,64,110,0
2,69,110,0
2,60,0,200
2,64,0,0
2,69,0,0
2,60,110,40
2,64,110,0
2,60,0,200
2,64,0,0
2,60,110,40
2,64,110,0
2,60,0,117
2,64,0,0
2,62,110,3
2,62,0,200
2,57,110,40
2,60,110,0
2,64,110,0
2,57,0,320
2,60,0,0
2,64,0,0
2,57,110,40
2,60,110,0
2,64,110,0
2,57,0,200
2,60,0,0
2,64,0,0
2,57,110,40
2,60,110,0
2,64,110,0
2,57,0,200
2,60,0,0
2,64,0,0
2,57,110,40
2,60,110,0
2,64,110,0
2,57,0,200
2,60,0,0
2,64,0,0
2,57,110,40
2,62,110,0
2,65,110,0
2,57,0,200
2,62,0,0
2,65,0,0
2,57,110,40
2,62,110,0
2,65,110,0
2,57,0,200
2,62,0,0
2,65,0,0
2,57,110,40
2,62,110,0
2,65,110,0
2,57,0,200
2,62,0,0
2,65,0,0
2,57,110,40
2,62,110,0
2,65,110,0
2,57,0,117
2,62,0,0
2,65,0,0
2,57,110,3
2,62,110,0
2,65,110,0
2,57,0,237
2,62,0,0
2,65,0,0
2,65,110,3
2,65,0,117
2,65,110,3
2,65,0,200
2,64,110,40
2,64,0,177
2,62,110,3
2,62,0,177
2,60,110,3
2,60,0,117
2,60,110,3
2,60,0,200
2,57,110,40
2,60,110,0
2,64,110,0
2,57,0,200
2,60,0,0
2,64,0,0
2,57,110,40
2,60,110,0
2,64,110,0
2,57,0,200
2,60,0,0
2,64,0,0
2,57,110,40
2,60,110,0
2,64,110,0
2,57,0,200
2,60,0,0
2,64,0,0
2,57,110,40
2,60,110,0
2,64,110,0
2,57,0,200
2,60,0,0
2,64,0,0
2,57,110,40
2,60,110,0
2,64,110,0
2,57,0,200
2,60,0,0
2,64,0,0
2,57,110,40
2,60,110,0
2,64,110,0
2,57,0,200
2,60,0,0
2,64,0,0
2,57,110,40
2,60,110,0
2,64,110,0
2,57,0,200
2,60,0,0
2,64,0,0
2,57,110,40
2,62,110,0
2,65,110,0
2,57,0,200
2,62,0,0
2,65,0,0
2,57,110,40
2,62,110,0
2,65,110,0
2,57,0,200
2,62,0,0
2,65,0,0
2,57,110,40
2,62,110,0
2,65,110,0
2,57,0,200
2,62,0,0
2,65,0,0
2,57,110,40
2,62,110,0
2,65,110,0
2,57,0,117
2,62,0,0
2,65,0,0
2,57,110,3
2,60,110,0
2,64,110,0
2,57,0,320
2,60,0,0
2,64,0,0
2,57,110,40
2,60,110,0
2,64,110,0
2,57,0,200
2,60,0,0
2,64,0,0
2,57,110,40
2,60,110,0
2,64,110,0
2,57,0,117
2,60,0,0
2,64,0,0
2,57,110,3
2,60,110,0
2,64,110,0
2,57,0,117
2,60,0,0
2,64,0,0
2,57,110,3
2,60,110,0
2,64,110,0
2,57,0,200
2,60,0,0
2,64,0,0
2,57,110,40
2,60,110,0
2,64,110,0
2,57,0,200
2,60,0,0
2,64,0,0
