track,note,velocity,time
0,42,104,239
0,42,0,7
0,64,64,448
0,59,54,2
0,59,90,5
0,64,71,13
0,42,92,5
0,42,0,7
0,59,81,33
0,64,75,0
0,64,0,395
0,59,0,7
0,59,0,20
0,42,80,18
0,42,0,7
0,64,0,10
0,59,87,5
0,59,78,0
0,64,87,3
0,64,72,2
0,64,0,365
0,59,0,55
0,64,0,0
0,59,0,2
0,68,60,8
0,64,61,18
0,42,72,5
0,64,0,2
0,42,0,5
0,59,0,2
0,64,79,1
0,68,88,0
0,64,91,5
0,68,71,27
0,68,0,367
0,64,0,33
0,54,84,28
0,64,0,2
0,68,0,0
0,66,78,5
0,69,82,3
0,35,127,0
0,42,87,2
0,35,105,3
0,66,66,0
0,35,0,2
0,42,0,2
0,59,78,1
0,68,0,2
0,64,0,3
0,69,63,5
0,63,77,0
0,66,84,2
0,66,87,8
0,69,63,17
0,69,0,48
0,66,0,19
0,69,87,3
0,66,75,63
0,69,0,12
0,69,92,50
0,69,0,50
0,69,78,23
0,66,0,0
0,66,82,47
0,69,0,58
0,69,79,7
0,54,0,35
0,54,77,8
0,42,78,5
0,59,0,7
0,42,0,0
0,59,83,8
0,63,0,2
0,63,93,8
0,66,0,2
0,66,77,8
0,66,0,7
0,66,74,13
0,66,0,55
0,69,0,32
0,69,75,8
0,66,89,2
0,66,0,68
0,69,0,2
0,63,0,10
0,66,76,5
0,35,0,0
0,63,89,3
0,59,0,0
0,66,0,4
0,69,85,3
0,59,89,3
0,54,0,2
0,54,93,8
0,66,92,60
0,69,0,12
0,69,81,45
0,69,0,45
0,66,0,18
0,69,91,5
0,66,76,22
0,38,80,10
0,42,83,3
0,54,113,0
0,38,0,4
0,35,127,1
0,42,0,2
0,54,0,0
0,30,96,3
0,35,0,2
0,66,0,27
0,69,0,36
0,66,87,7
0,69,90,0
0,66,0,80
0,66,80,23
0,66,0,57
0,69,0,30
0,66,88,10
0,69,75,0
0,66,0,77
0,66,79,43
0,54,0,33
0,59,0,17
0,59,83,10
0,63,0,0
0,66,0,7
0,69,0,0
0,63,80,1
0,66,89,7
0,69,91,0
0,42,87,3
0,42,0,7
0,54,87,10
0,66,0,60
0,66,91,20
0,66,0,55
0,69,0,32
0,66,82,8
0,69,83,0
0,66,0,2
0,63,0,11
0,66,84,5
0,63,82,2
0,59,0,2
0,59,76,8
0,30,0,5
0,54,0,0
0,54,81,8
0,69,0,27
0,66,0,5
0,69,85,5
0,66,80,18
0,66,0,52
0,69,0,30
0,69,88,8
0,66,81,2
0,66,0,80
0,42,87,15
0,42,0,7
0,35,98,1
0,66,83,0
0,35,127,0
0,35,0,7
0,66,0,48
0,69,0,30
0,66,93,10
0,69,75,0
0,66,0,77
0,66,77,20
0,66,0,60
0,66,84,8
0,69,0,20
0,69,83,10
0,66,0,59
0,69,0,18
0,66,0,0
0,69,0,5
0,66,84,18
0,66,0,0
0,54,0,45
0,66,0,12
0,59,0,2
0,59,77,8
0,63,0,2
0,66,62,8
0,66,97,0
0,63,82,0
0,66,0,0
0,69,65,3
0,42,85,2
0,66,82,3
0,69,0,2
0,42,0,2
0,66,86,8
0,69,87,0
0,69,72,3
0,54,78,5
0,69,0,59
0,66,0,8
0,69,75,3
0,66,77,15
0,66,0,60
0,66,87,7
0,69,0,20
0,69,91,8
0,66,0,2
0,66,88,8
0,63,0,4
0,63,87,8
0,59,0,2
0,59,81,8
0,54,0,3
0,54,92,7
0,69,0,25
0,69,90,8
0,66,0,2
0,66,88,13
0,35,0,20
0,66,0,47
0,69,0,23
0,68,88,7
0,64,77,3
0,69,0,22
0,66,0,20
0,66,0,12
0,68,0,10
0,69,0,11
0,68,90,7
0,64,0,0
0,68,67,8
0,42,86,0
0,64,61,2
0,35,127,3
0,38,86,2
0,54,108,0
0,42,0,0
0,30,93,5
0,64,78,0
0,35,0,0
0,38,0,2
0,54,0,0
0,68,62,3
0,64,86,13
0,64,0,34
0,64,80,8
0,68,0,22
0,68,85,11
0,64,0,69
0,64,87,26
0,64,0,60
0,68,0,30
0,64,78,7
0,68,90,0
0,64,0,77
0,66,84,26
0,54,0,29
0,68,0,10
0,59,0,8
0,63,0,7
0,59,76,1
0,66,0,2
0,64,0,2
0,63,82,6
0,66,0,0
0,64,0,5
0,66,91,2
0,42,80,10
0,68,0,2
0,69,63,1
0,68,0,0
0,42,0,4
0,69,59,1
0,66,63,2
0,66,84,0
0,69,87,0
0,54,82,5
0,66,78,15
0,66,0,55
0,66,90,8
0,66,0,75
0,69,0,29
0,66,89,8
0,69,81,0
0,30,0,12
0,66,0,60
0,66,81,26
0,69,0,84
0,71,84,11
0,69,0,2
0,69,0,15
0,66,0,12
0,54,0,3
0,52,80,8
0,59,0,2
0,56,76,8
0,63,0,0
0,68,54,5
0,59,80,2
0,66,0,0
0,66,0,0
0,68,82,10
0,64,74,0
0,71,0,0
0,66,0,3
0,71,91,7
0,71,60,3
0,35,127,5
0,42,87,2
0,40,94,5
0,68,87,0
0,35,0,0
0,42,0,2
0,71,63,8
0,68,0,42
0,68,80,8
0,71,0,20
0,71,83,8
0,68,0,77
0,68,82,28
0,68,0,52
0,68,84,8
0,71,0,20
0,71,79,7
0,71,0,65
0,68,0,18
0,71,87,2
0,68,83,18
0,52,0,40
0,56,0,17
0,68,0,0
0,56,91,10
0,68,90,0
0,59,0,0
0,59,88,10
0,64,0,0
0,71,0,7
0,42,78,1
0,64,88,2
0,71,81,5
0,42,0,0
0,52,89,13
0,68,0,67
0,68,82,8
0,68,0,65
0,71,0,32
0,68,81,8
0,71,82,0
0,64,0,4
0,59,0,10
0,64,84,6
0,59,88,2
0,56,0,2
0,56,74,11
0,52,0,2
0,52,87,8
0,40,0,4
0,68,0,26
0,68,88,30
0,68,0,42
0,71,0,33
0,71,92,7
0,68,84,3
0,68,0,75
0,38,80,12
0,42,83,3
0,54,113,0
0,38,0,4
0,35,127,1
0,42,0,2
0,54,0,0
0,68,75,3
0,35,0,2
0,35,100,3
0,68,0,42
0,71,0,30
0,68,76,10
0,71,84,0
0,68,0,80
0,68,77,28
0,68,0,45
0,71,0,29
0,68,79,11
0,71,82,0
0,68,0,80
0,68,84,7
0,56,0,58
0,56,77,7
0,68,0,2
0,52,0,3
0,71,0,25
0,59,0,2
0,71,76,6
0,42,87,0
0,68,91,2
0,59,81,3
0,64,0,0
0,42,0,2
0,64,79,5
0,52,89,20
0,71,0,35
0,68,0,15
0,71,80,5
0,68,84,23
0,68,0,47
0,71,0,27
0,71,80,8
0,68,86,3
0,64,0,19
0,59,0,11
0,59,82,7
0,64,74,0
0,56,0,5
0,56,91,8
0,52,0,2
0,52,86,8
0,68,0,15
0,68,78,30
0,35,0,15
0,68,0,30
0,71,0,29
0,68,79,8
0,71,80,0
0,71,0,60
0,68,0,17
0,71,76,6
0,52,0,7
0,42,87,5
0,56,0,3
0,52,82,2
0,42,0,2
0,35,127,1
0,28,106,2
0,68,78,0
0,59,0,2
0,56,79,1
0,35,0,2
0,59,84,5
0,64,0,0
0,64,81,18
0,68,0,24
0,68,87,8
0,71,0,23
0,71,92,10
0,68,0,69
0,68,76,36
0,68,0,47
0,71,0,33
0,68,80,10
0,71,80,0
0,68,0,72
0,68,86,80
0,71,0,10
0,52,0,2
0,42,85,18
0,56,0,0
0,59,0,7
0,42,0,0
0,56,92,1
0,59,83,10
0,64,0,0
0,64,88,7
0,71,93,0
0,52,81,20
0,68,0,30
0,68,75,28
0,68,0,57
0,71,0,27
0,68,81,11
0,71,83,0
0,64,0,19
0,59,0,13
0,59,90,8
0,64,80,0
0,56,0,2
0,56,81,8
0,52,0,2
0,52,76,10
0,71,0,0
0,68,0,15
0,71,89,5
0,68,80,18
0,28,0,9
0,71,0,28
0,68,0,23
0,71,0,15
0,68,0,7
0,71,0,2
0,68,0,3
0,68,84,8
0,71,80,0
0,71,66,62
0,68,0,8
0,68,70,2
0,68,94,3
0,71,81,2
0,52,0,0
0,68,85,8
0,52,86,2
0,56,0,0
0,42,86,3
0,59,0,2
0,56,83,3
0,68,81,0
0,35,127,0
0,38,86,2
0,54,108,0
0,42,0,0
0,30,94,3
0,71,73,0
0,59,74,2
0,64,0,0
0,35,0,0
0,38,0,2
0,54,0,0
0,64,83,6
0,68,0,45
0,71,0,25
0,71,79,7
0,68,93,3
0,68,0,70
0,68,83,7
0,68,0,75
0,68,80,8
0,71,0,14
0,71,93,8
0,71,0,62
0,68,0,16
0,71,81,5
0,68,81,2
0,30,0,28
0,52,0,29
0,56,0,18
0,68,0,0
0,59,0,7
0,56,81,1
0,59,84,10
0,64,0,0
0,71,0,2
0,64,91,5
0,68,85,5
0,71,76,0
0,42,80,10
0,52,83,5
0,42,0,2
0,32,95,1
0,71,0,44
0,68,0,15
0,71,79,8
0,68,75,25
0,71,0,67
0,71,82,11
0,64,0,2
0,59,0,15
0,64,78,5
0,59,74,3
0,56,0,2
0,56,83,8
0,52,0,2
0,52,77,10
0,68,0,25
0,68,90,8
0,71,0,67
0,71,0,30
0,32,0,5
0,71,86,3
0,71,0,24
0,68,0,26
0,71,0,0
0,68,0,2
0,68,0,18
0,69,85,7
0,69,84,3
0,73,94,10
0,52,0,2
0,69,87,3
0,56,0,15
0,73,70,7
0,57,75,0
0,59,0,0
0,69,68,3
0,35,127,0
0,42,87,2
0,64,0,2
0,33,92,1
0,61,84,0
0,73,63,2
0,35,0,0
0,68,0,2
0,42,0,0
0,64,88,3
0,52,76,23
0,71,0,0
0,73,91,7
0,69,0,75
0,69,85,25
0,69,0,60
0,73,0,22
0,69,93,11
0,73,86,0
0,69,0,75
0,69,88,10
0,69,0,65
0,73,0,27
0,52,0,8
0,69,75,2
0,73,84,0
0,52,82,5
0,57,0,10
0,61,0,8
0,57,75,2
0,64,0,7
0,61,86,1
0,64,83,7
0,42,78,13
0,42,0,7
0,69,0,17
0,69,90,8
0,73,0,92
0,73,74,8
0,64,0,50
0,73,0,12
0,61,0,3
0,64,93,5
0,61,88,3
0,57,0,2
0,69,0,5
0,57,82,3
0,52,0,4
0,73,87,1
0,69,83,2
0,52,86,5
0,33,0,20
0,69,0,40
0,73,0,28
0,73,77,7
0,69,90,3
0,73,0,62
0,69,0,15
0,73,75,8
0,69,84,20
0,52,0,32
0,38,80,15
0,42,83,3
0,54,113,0
0,57,0,0
0,69,0,2
0,38,0,2
0,35,127,1
0,57,79,2
0,61,0,0
0,42,0,0
0,54,0,0
0,69,74,3
0,28,99,2
0,35,0,0
0,61,75,5
0,64,0,0
0,64,81,8
0,73,0,7
0,73,88,8
0,52,90,5
0,69,0,70
0,69,86,25
0,69,0,57
0,73,0,28
0,69,92,10
0,73,92,0
0,69,0,60
0,69,0,15
0,73,0,4
0,69,92,6
0,73,0,15
0,69,0,12
0,73,0,40
0,69,0,5
0,69,0,5
0,69,74,5
0,69,87,18
0,73,0,2
0,73,75,8
0,73,87,2
0,52,0,8
0,73,73,2
0,69,83,3
0,52,84,2
0,57,0,0
0,57,89,10
0,61,0,0
0,61,90,10
0,64,0,0
0,73,62,8
0,64,80,2
0,42,87,3
0,69,66,5
0,42,0,2
0,69,0,15
0,69,92,10
0,69,0,77
0,73,0,26
0,69,80,10
0,73,79,0
0,64,0,44
0,61,0,13
0,61,90,8
0,64,87,0
0,57,0,2
0,69,0,8
0,57,89,2
0,52,0,2
0,69,77,3
0,52,75,5
0,28,0,40
0,69,0,20
0,69,89,10
0,73,0,20
0,73,74,10
0,69,0,63
0,73,0,14
0,69,0,0
0,68,92,8
0,69,0,8
0,73,0,2
0,71,81,5
0,68,84,8
0,73,0,5
0,68,80,2
0,69,0,0
0,52,0,20
0,57,0,7
0,54,88,1
0,42,87,2
0,71,55,3
0,61,0,2
0,42,0,2
0,68,64,1
0,59,75,0
0,35,127,0
0,35,97,2
0,63,86,5
0,64,0,0
0,73,0,0
0,35,0,0
0,66,86,8
0,71,63,2
0,71,87,25
0,71,0,50
0,68,0,15
0,68,91,8
0,71,86,0
0,68,0,95
0,68,88,7
0,71,0,8
0,71,92,7
0,71,0,57
0,68,0,18
0,71,78,8
0,68,80,2
0,71,0,30
0,68,0,47
0,71,0,18
0,69,80,3
0,68,0,5
0,71,0,0
0,66,77,7
0,54,0,0
0,69,81,3
0,54,82,5
0,59,0,0
0,68,0,4
0,69,60,1
0,63,0,4
0,66,83,1
0,59,84,0
0,66,66,5
0,66,79,0
0,68,0,0
0,63,80,2
0,66,0,3
0,66,76,7
0,71,0,5
0,42,85,5
0,42,0,7
0,69,65,6
0,66,0,24
0,66,81,8
0,69,0,75
0,69,88,33
0,66,0,27
0,63,0,10
0,66,75,8
0,69,0,2
0,59,0,3
0,59,86,7
0,63,84,0
0,66,0,2
0,54,0,1
0,69,77,5
0,54,92,5
0,66,79,17
0,66,0,52
0,66,75,8
0,35,0,2
0,69,0,18
0,69,77,8
0,66,0,57
0,66,0,5
0,66,0,12
0,69,0,1
0,66,0,12
0,64,82,13
0,64,85,7
0,68,66,3
0,68,60,2
0,68,81,0
0,69,0,10
0,64,70,5
0,69,0,3
0,54,0,7
0,59,0,7
0,54,92,1
0,64,90,2
0,59,85,5
0,63,0,0
0,42,86,3
0,63,84,5
0,35,127,0
0,66,0,0
0,30,94,2
0,38,86,0
0,54,108,0
0,64,0,0
0,42,0,0
0,35,0,5
0,38,0,2
0,54,0,0
0,66,74,1
0,69,0,15
0,64,86,7
0,68,78,3
0,68,0,60
0,64,0,19
0,68,88,6
0,64,84,2
0,64,0,72
0,68,0,26
0,64,81,10
0,68,84,0
0,68,0,62
0,64,0,18
0,64,87,7
0,68,81,0
0,68,0,97
0,54,0,1
0,54,91,7
0,66,92,0
0,64,0,5
0,68,0,2
0,59,0,3
0,66,57,5
0,64,0,0
0,59,79,5
0,63,0,0
0,64,0,7
0,69,52,1
0,63,82,0
0,68,0,0
0,66,0,2
0,66,81,3
0,66,74,0
0,66,92,5
0,68,0,9
0,69,80,1
0,69,66,5
0,42,80,2
0,42,0,7
0,66,0,23
0,69,82,5
0,66,81,3
0,66,0,77
0,69,0,22
0,66,81,11
0,69,93,0
0,66,0,27
0,63,0,10
0,66,77,8
0,63,85,2
0,59,0,5
0,59,89,8
0,54,0,2
0,54,87,8
0,66,0,2
0,66,79,8
0,30,0,2
0,66,0,70
0,66,93,8
0,69,0,25
0,69,87,7
0,66,0,58
0,69,0,12
0,64,0,5
0,64,85,8
0,66,0,5
0,69,0,2
0,68,61,8
0,64,83,5
0,69,0,2
0,66,0,0
0,54,0,3
0,68,80,5
0,64,64,5
0,66,0,4
0,59,0,3
0,68,58,8
0,56,76,0
0,63,0,2
0,64,50,8
0,59,92,0
0,35,127,0
0,66,0,0
0,42,87,2
0,28,96,3
0,64,0,0
0,64,74,2
0,35,0,0
0,42,0,2
0,64,85,6
0,52,75,12
0,69,0,5
0,68,91,10
0,64,0,65
0,64,76,30
0,64,0,52
0,64,81,8
0,68,0,25
0,68,89,10
0,64,0,60
0,64,93,33
0,64,0,52
0,64,93,8
0,68,0,22
0,68,89,8
0,52,0,12
0,52,78,10
0,59,0,8
0,56,0,2
0,56,85,8
0,59,93,7
0,64,0,2
0,64,85,8
0,42,78,3
0,42,0,7
0,64,0,18
0,64,87,7
0,68,0,93
0,68,75,10
0,64,0,57
0,68,0,13
0,59,0,2
0,59,77,8
0,64,81,0
0,56,0,2
0,64,0,2
0,56,93,8
0,68,86,0
0,52,0,2
0,52,84,8
0,64,85,8
0,28,0,30
0,64,0,22
0,68,0,25
0,64,75,10
0,68,88,0
0,68,0,65
0,64,0,15
0,68,81,8
0,64,80,22
0,38,80,35
0,35,101,3
0,42,83,0
0,54,113,0
0,38,0,4
0,35,127,1
0,42,0,2
0,54,0,0
0,64,0,5
0,35,0,0
0,64,74,10
0,68,0,13
0,68,93,10
0,68,0,62
0,64,0,17
0,68,78,8
0,64,76,3
0,64,0,67
0,68,0,25
0,64,75,10
0,68,80,0
0,68,0,60
