track,note,velocity,time
0,77,60,1
0,89,70,2
0,77,57,0
0,72,71,0
0,68,33,0
0,89,66,17
0,72,85,0
0,77,73,0
0,68,57,0
0,75,60,105
0,87,77,30
0,65,79,18
0,75,71,0
0,70,61,0
0,87,78,20
0,70,65,0
0,65,89,0
0,75,83,0
0,72,60,154
0,84,78,11
0,68,48,0
0,72,80,0
0,63,52,0
0,84,78,15
0,72,84,0
0,68,72,0
0,63,90,0
0,68,60,91
0,80,78,26
0,70,78,0
0,32,120,0
0,51,55,0
0,56,75,0
0,60,55,0
0,72,96,0
0,68,84,0
0,63,84,0
0,36,95,0
0,57,72,0
0,60,70,0
0,70,32,0
0,44,85,0
0,56,85,0
0,60,85,0
0,63,85,0
0,84,101,1
0,70,32,0
0,63,64,0
0,70,33,0
0,63,70,58
0,70,95,13
0,75,95,0
0,28,85,0
0,37,90,0
0,62,91,0
0,70,36,0
0,72,95,14
0,77,95,2
0,39,120,38
0,36,95,0
0,63,73,0
0,70,36,0
0,75,95,75
0,70,95,10
0,70,33,0
0,56,84,0
0,60,67,37
0,70,33,0
0,72,95,52
0,77,95,0
0,70,33,50
0,60,80,0
0,75,95,88
0,70,95,6
0,39,120,0
0,63,84,0
0,28,85,0
0,37,90,0
0,63,76,0
0,72,95,60
0,77,95,2
0,63,79,39
0,68,52,0
0,75,95,0
0,70,95,0
0,32,120,0
0,36,95,0
0,60,70,0
0,70,32,0
0,70,32,0
0,77,74,2
0,72,74,0
0,89,78,2
0,63,64,0
0,70,33,0
0,77,70,0
0,72,88,0
0,68,38,0
0,63,70,58
0,75,64,3
0,70,63,1
0,89,84,26
0,28,85,0
0,37,90,0
0,62,91,0
0,70,36,0
0,72,84,0
0,77,66,0
0,68,52,0
0,72,54,44
0,77,54,2
0,87,78,36
0,70,56,17
0,65,84,0
0,75,78,0
0,36,95,0
0,63,73,0
0,70,36,0
0,39,120,0
0,75,44,23
0,70,43,3
0,87,80,35
0,70,33,0
0,70,60,0
0,65,70,0
0,75,72,0
0,60,67,20
0,70,33,0
0,72,32,43
0,77,32,2
0,84,78,29
0,70,33,19
0,72,84,0
0,68,66,0
0,63,44,0
0,75,22,56
0,70,21,1
0,84,84,3
0,72,92,5
0,63,84,0
0,68,84,0
0,28,85,0
0,37,90,0
0,54,92,0
0,63,76,0
0,39,120,0
0,80,85,111
0,63,79,13
0,70,84,0
0,61,85,103
0,53,65,0
0,58,80,0
0,61,55,0
0,65,85,0
0,46,85,0
0,82,85,0
0,34,120,14
0,65,88,0
0,61,72,0
0,70,84,0
0,36,95,0
0,60,70,0
0,70,32,0
0,70,32,8
0,63,64,63
0,70,33,0
0,63,70,28
0,65,100,39
0,70,100,0
0,28,85,8
0,37,90,0
0,62,91,0
0,70,36,0
0,68,100,81
0,72,100,4
0,41,120,13
0,36,95,0
0,63,73,0
0,70,36,0
0,70,100,103
0,65,100,1
0,70,33,15
0,60,67,75
0,70,33,0
0,68,100,0
0,72,100,5
0,70,33,35
0,70,100,2
0,65,100,2
0,41,120,30
0,28,85,0
0,37,90,0
0,63,76,0
0,68,100,61
0,72,100,10
0,63,79,53
0,70,100,89
0,65,100,4
0,34,120,2
0,36,95,0
0,60,70,0
0,70,32,0
0,70,32,8
0,68,100,56
0,72,78,6
0,84,76,38
0,63,64,4
0,70,33,0
0,65,84,0
0,72,88,0
0,61,60,0
0,63,70,0
0,70,68,47
0,65,68,2
0,84,76,27
0,28,85,15
0,37,90,0
0,62,91,0
0,70,36,0
0,72,92,0
0,65,80,0
0,61,56,0
0,68,59,30
0,72,58,6
0,82,76,25
0,65,74,28
0,61,72,0
0,70,78,0
0,36,95,0
0,63,73,0
0,70,36,0
0,41,120,0
0,70,48,36
0,65,47,8
0,82,76,21
0,70,33,9
0,65,92,0
0,61,90,0
0,70,90,0
0,60,67,35
0,70,33,0
0,68,39,11
0,72,38,3
0,80,76,35
0,70,33,15
0,68,60,0
0,70,28,72
0,65,27,5
0,80,76,18
0,68,98,12
0,28,85,0
0,37,90,0
0,54,92,0
0,63,76,0
0,41,120,0
0,77,76,10
0,63,79,3
0,70,84,0
0,32,120,0
0,63,95,44
0,58,65,1
0,53,65,1
0,70,100,10
0,65,100,3
0,34,120,5
0,65,92,0
0,70,90,0
0,61,72,0
0,36,95,0
0,60,70,0
0,70,32,0
0,82,76,6
0,70,32,8
0,72,100,23
0,68,100,3
0,63,64,13
0,70,33,0
0,63,70,58
0,70,100,9
0,65,100,1
0,28,85,18
0,37,90,0
0,62,91,0
0,70,36,0
0,72,100,53
0,68,100,7
0,41,120,42
0,36,95,0
0,63,73,0
0,70,36,0
0,70,33,138
0,60,67,73
0,70,33,0
0,70,100,13
0,65,100,7
0,70,33,43
0,72,100,153
0,68,100,1
0,41,120,10
0,28,85,0
0,37,90,0
0,63,76,0
0,77,100,11
0,72,100,3
0,63,79,74
0,70,85,2
0,75,85,0
0,63,85,37
0,51,85,9
0,39,120,8
0,36,95,0
0,60,70,0
0,70,32,0
0,70,32,8
0,84,74,48
0,63,64,15
0,70,33,0
0,72,88,0
0,61,56,0
0,63,70,24
0,84,74,28
0,28,85,19
0,37,90,0
0,62,91,0
0,70,36,0
0,72,88,0
0,61,60,0
0,82,74,103
0,34,120,4
0,61,60,0
0,70,66,0
0,36,95,0
0,63,73,0
0,70,36,0
0,82,74,116
0,70,33,22
0,70,90,0
0,61,78,0
0,60,67,12
0,70,33,0
0,80,74,40
0,70,33,23
0,68,90,0
0,80,74,3
0,68,90,25
0,28,85,0
0,37,90,0
0,54,92,0
0,63,76,0
0,39,120,0
0,77,74,115
0,63,79,13
0,65,92,0
0,60,85,26
0,44,85,8
0,56,65,1
0,51,65,1
0,75,100,0
0,68,100,2
0,60,65,2
0,56,85,5
0,80,71,3
0,60,88,10
0,68,90,0
0,63,106,0
0,36,95,0
0,60,70,0
0,70,32,0
0,32,120,0
0,70,32,8
0,72,100,7
0,77,100,0
0,63,64,19
0,70,33,0
0,63,70,58
0,75,85,65
0,70,85,3
0,28,85,0
0,37,90,0
0,62,91,0
0,70,36,0
0,56,90,0
0,39,120,123
0,60,88,0
0,36,95,0
0,63,73,0
0,70,36,0
0,70,33,105
0,63,72,0
0,60,67,4
0,70,33,0
0,70,33,25
0,68,90,0
0,39,120,10
0,72,84,0
0,28,85,0
0,37,90,0
0,63,76,0
0,80,74,0
0,68,110,98
0,63,79,42
0,52,85,10
0,59,85,7
0,52,65,10
0,56,65,0
0,63,65,0
0,59,65,2
0,75,100,0
0,87,74,2
0,63,88,0
0,40,120,0
0,36,95,0
0,60,70,0
0,70,32,0
0,76,80,0
0,71,88,0
0,68,56,0
0,70,32,5
0,63,64,63
0,70,33,0
0,63,70,58
0,28,85,10
0,37,90,0
0,62,91,0
0,70,36,0
0,68,26,0
0,61,65,58
0,51,65,2
0,73,93,6
0,61,85,7
0,51,85,2
0,85,71,15
0,65,70,15
0,61,72,0
0,68,90,0
0,36,95,0
0,63,73,0
0,70,36,0
0,39,120,0
0,70,33,138
0,60,67,48
0,70,33,0
0,70,33,63
0,39,120,8
0,28,85,0
0,37,90,0
0,54,92,0
0,63,76,0
0,61,84,0
0,85,74,8
0,58,88,115
0,63,79,10
0,56,70,29
0,51,70,4
0,60,70,1
0,72,85,8
0,60,85,10
0,44,85,3
0,56,94,9
0,32,120,0
0,36,95,0
0,60,70,0
0,70,32,0
0,60,62,0
0,68,72,0
0,63,60,0
0,84,74,5
0,70,32,0
0,63,64,0
0,70,33,0
0,56,78,0
0,63,70,0
0,28,85,0
0,37,90,0
0,62,91,0
0,70,36,0
0,60,66,0
0,39,120,123
0,63,84,0
0,36,95,0
0,63,73,0
0,70,36,0
0,70,33,119
0,60,67,75
0,70,33,0
0,70,33,63
0,60,62,0
0,32,120,10
0,63,38,0
0,28,85,0
0,37,90,0
0,63,76,0
0,68,38,20
0,68,113,57
0,80,71,21
0,63,79,4
0,52,90,57
0,63,90,2
0,56,90,1
0,59,90,1
0,71,106,10
0,52,85,0
0,59,85,9
0,40,120,5
0,36,95,0
0,60,70,0
0,70,32,0
0,71,78,0
0,68,48,0
0,76,74,0
0,56,100,6
0,83,74,2
0,70,32,8
0,63,64,15
0,70,33,0
0,63,70,58
0,28,85,10
0,37,90,0
0,62,91,0
0,70,36,0
0,68,28,0
0,56,100,5
0,58,100,1
0,51,100,1
0,61,100,3
0,70,109,11
0,51,85,16
0,61,85,2
0,56,95,0
0,82,76,3
0,39,120,5
0,61,78,0
0,68,84,0
0,65,74,0
0,36,95,0
0,63,73,0
0,70,36,0
0,70,33,0
0,70,33,0
0,70,33,0
0,54,92,0
0,70,33,0
0,84,44,44
0,36,95,120
0,60,70,0
0,70,32,0
0,63,66,0
0,60,78,0
0,58,42,0
0,44,85,0
0,56,85,0
0,60,85,0
0,63,85,0
0,32,120,0
0,56,65,0
0,60,65,0
0,63,65,0
0,44,100,0
0,70,32,8
0,63,85,63
0,63,64,0
0,70,33,0
0,63,70,58
0,72,85,33
0,28,85,0
0,37,90,0
0,62,91,0
0,70,36,0
0,72,85,123
0,36,95,0
0,63,73,0
0,70,36,0
0,63,44,0
0,70,33,20
0,60,67,75
0,70,33,0
0,70,33,63
0,56,106,0
0,58,78,15
0,28,85,0
0,37,90,0
0,63,76,0
0,68,85,2
0,63,79,0
0,56,72,0
0,42,100,24
0,63,65,8
0,56,65,4
0,60,65,1
0,42,85,4
0,30,120,12
0,63,98,0
0,36,95,0
0,60,70,0
0,70,32,0
0,70,32,8
0,75,85,63
0,63,64,0
0,70,33,0
0,63,70,58
0,73,85,47
0,28,85,0
0,37,90,0
0,62,91,0
0,70,36,0
0,30,120,99
0,72,85,0
0,36,95,0
0,63,73,0
0,70,36,0
0,68,98,0
0,68,85,138
0,70,33,0
0,60,67,17
0,70,33,0
0,68,85,63
0,70,33,0
0,28,85,15
0,37,90,0
0,54,92,0
0,63,76,0
0,60,113,0
0,70,85,13
0,63,79,0
0,41,100,88
0,61,85,48
0,41,85,7
0,53,65,6
0,56,65,0
0,63,65,0
0,29,120,10
0,36,95,0
0,60,70,0
0,70,32,0
0,63,116,0
0,56,42,0
0,70,32,8
0,75,85,63
0,63,64,0
0,70,33,0
0,63,70,58
0,73,85,40
0,28,85,0
0,37,90,0
0,62,91,0
0,70,36,0
0,29,120,4
0,72,85,0
0,36,95,0
0,63,73,0
0,70,36,0
0,61,116,0
0,70,33,138
0,60,67,75
0,70,33,0
0,68,85,0
0,70,33,0
0,56,98,0
0,60,110,20
0,28,85,0
0,37,90,0
0,63,76,0
0,63,79,140
0,40,100,6
0,40,85,8
0,63,65,9
0,56,65,1
0,52,65,2
0,28,120,10
0,36,95,0
0,60,70,0
0,70,32,0
0,56,78,0
0,63,98,0
0,70,32,8
0,75,85,63
0,63,64,0
0,70,33,0
0,63,70,58
0,73,85,47
0,28,85,0
0,37,90,0
0,62,91,0
0,70,36,0
0,28,120,2
0,72,85,0
0,36,95,0
0,63,73,0
0,70,36,0
0,61,116,0
0,68,85,10
0,70,33,0
0,60,67,75
0,70,33,0
0,68,85,0
0,70,33,0
0,56,98,0
0,60,100,0
0,28,85,0
0,37,90,0
0,54,92,0
0,63,76,0
0,63,79,13
0,39,100,73
0,60,85,0
0,39,85,6
0,56,65,12
0,63,65,1
0,60,65,0
0,27,120,14
0,36,95,0
0,60,70,0
0,70,32,0
0,60,110,0
0,56,98,0
0,70,32,8
0,63,85,63
0,63,64,0
0,70,33,0
0,63,70,58
0,72,85,15
0,28,85,0
0,37,90,0
0,62,91,0
0,70,36,0
0,39,120,39
0,72,85,0
0,36,95,0
0,63,73,0
0,70,36,0
0,63,116,0
0,70,33,138
0,60,67,73
0,70,33,0
0,70,33,10
0,27,120,40
0,28,85,0
0,37,90,0
0,63,76,0
0,68,98,0
0,63,79,88
0,38,100,57
0,58,65,11
0,70,65,0
0,65,65,5
0,58,85,1
0,38,85,1
0,65,85,1
0,36,95,0
0,60,70,0
0,70,32,0
0,62,68,0
0,65,88,0
0,38,120,0
0,70,32,8
0,77,85,63
0,63,64,0
0,70,33,0
0,63,70,58
0,72,85,35
0,28,85,0
0,37,90,0
0,62,91,0
0,70,36,0
0,26,120,10
0,70,85,0
0,36,95,0
0,63,73,0
0,70,36,0
0,70,106,0
0,70,33,15
0,60,67,20
0,70,33,0
0,70,33,63
0,28,85,3
0,37,90,0
0,54,92,0
0,63,76,0
0,63,79,13
0,37,100,56
0,37,85,3
0,59,85,0
0,64,85,0
0,56,65,2
0,59,65,0
0,64,65,0
0,37,120,8
0,83,85,0
0,36,95,0
0,60,70,0
0,70,32,0
0,49,106,0
0,59,78,0
0,68,98,0
0,64,100,0
0,70,32,8
0,63,64,63
0,70,33,0
0,63,70,58
0,28,85,47
0,37,90,0
0,62,91,0
0,70,36,0
0,37,120,79
0,82,85,0
0,36,95,0
0,63,73,0
0,70,36,0
0,75,65,80
0,68,65,1
0,58,65,4
0,80,85,10
0,70,33,0
0,60,67,75
0,70,33,0
0,70,33,63
0,75,85,29
0,28,85,0
0,37,90,0
0,63,76,0
0,75,85,52
0,63,79,0
0,42,80,49
0,63,85,30
0,42,85,7
0,49,65,2
0,42,120,3
0,36,95,0
0,42,45,0
0,60,70,0
0,64,64,124
0,42,45,37
0,64,70,0
0,64,58,113
0,42,45,34
0,64,67,0
0,70,33,0
0,70,33,75
0,70,33,0
0,64,64,0
0,70,32,0
0,42,45,0
0,64,70,0
0,70,32,0
0,70,33,0
0,70,36,20
0,32,120,48
0,60,60,0
0,68,60,0
0,75,50,0
0,44,105,0
0,36,95,0
0,60,70,0
0,70,32,0
0,81,85,0
0,63,66,0
0,60,78,0
0,58,42,0
0,44,85,0
0,56,85,0
0,60,85,0
0,63,85,0
0,70,32,8
0,63,85,63
0,63,64,0
0,70,33,0
0,63,70,58
0,72,85,47
0,28,85,0
0,37,90,0
0,62,91,0
0,70,36,0
0,44,120,100
0,72,85,0
0,36,95,0
0,63,73,0
0,70,36,0
0,63,44,0
0,70,33,20
0,60,67,75
0,70,33,0
0,70,33,25
0,56,106,0
0,32,120,40
0,58,78,0
0,28,85,0
0,37,90,0
0,63,76,0
0,68,85,15
0,63,79,0
0,56,72,0
0,42,105,98
0,42,85,0
0,30,120,9
0,63,98,0
0,36,95,0
0,60,70,0
0,70,32,0
0,70,32,8
0,75,85,63
0,63,64,0
0,70,33,0
0,63,70,58
0,73,85,15
0,28,85,0
0,37,90,0
0,62,91,0
0,70,36,0
0,30,120,99
0,72,85,0
0,36,95,0
0,63,73,0
0,70,36,0
0,68,98,0
0,68,85,138
0,70,33,0
0,60,67,75
0,70,33,0
0,68,85,30
0,70,33,0
0,28,85,50
0,37,90,0
0,54,92,0
0,63,76,0
0,60,113,0
0,63,79,13
0,41,105,61
0,61,85,29
0,41,85,4
0,68,60,0
0,75,50,1
0,60,60,2
0,29,120,13
0,36,95,0
0,60,70,0
0,70,32,0
0,63,116,0
0,56,42,0
0,70,32,8
0,75,85,63
0,63,64,0
0,70,33,0
0,63,70,58
0,73,85,12
0,28,85,0
0,37,90,0
0,62,91,0
0,70,36,0
0,29,120,4
0,72,85,0
0,36,95,0
0,63,73,0
0,70,36,0
0,61,116,0
0,68,85,138
0,70,33,0
0,60,67,75
0,70,33,0
0,68,85,58
0,70,33,0
0,56,98,0
0,70,85,35
0,60,110,0
0,28,85,0
0,37,90,0
0,63,76,0
0,73,85,89
0,63,79,0
0,40,105,6
0,40,85,38
0,28,120,5
0,36,95,0
0,60,70,0
0,70,32,0
0,56,78,0
0,63,98,0
0,70,32,8
0,63,64,38
0,70,33,0
0,63,70,58
0,73,85,47
0,28,85,0
0,37,90,0
0,62,91,0
0,70,36,0
0,28,120,9
0,73,85,0
0,36,95,0
0,63,73,0
0,70,36,0
0,61,116,0
0,72,85,54
0,70,33,0
0,60,67,75
0,70,33,0
0,68,85,22
0,70,33,0
0,56,98,0
0,70,85,18
0,60,100,0
