track,note,velocity,time
0,37,32,0
0,37,0,96
0,37,32,144
0,37,0,96
0,37,32,144
0,37,0,96
0,37,32,144
0,37,0,96
0,35,100,144
0,71,64,0
0,71,80,0
0,71,80,0
0,59,80,0
0,36,80,0
0,41,80,0
0,49,80,0
0,85,80,0
0,35,0,96
0,71,0,0
0,71,0,0
0,59,0,0
0,71,0,0
0,85,0,0
0,59,40,24
0,85,80,0
0,85,0,32
0,85,80,8
0,85,0,32
0,85,80,8
0,59,0,16
0,85,0,16
0,85,80,8
0,85,0,96
0,69,64,24
0,69,80,0
0,85,80,0
0,69,0,96
0,69,0,0
0,85,0,0
0,59,40,24
0,59,0,96
0,59,40,24
0,85,80,0
0,59,0,96
0,85,0,0
0,67,64,24
0,67,80,0
0,85,80,0
0,85,0,32
0,85,80,8
0,41,0,8
0,36,0,0
0,49,0,0
0,85,0,24
0,85,80,8
0,67,0,16
0,67,0,0
0,85,0,16
0,59,40,8
0,85,80,0
0,59,0,96
0,85,0,0
0,66,64,24
0,66,80,0
0,85,80,0
0,66,0,96
0,66,0,0
0,85,0,0
0,59,40,24
0,85,80,0
0,85,0,32
0,85,80,8
0,85,0,32
0,85,80,8
0,59,0,16
0,85,0,16
0,85,80,8
0,85,0,96
0,67,64,24
0,67,80,0
0,85,80,0
0,67,0,96
0,67,0,0
0,85,0,0
0,59,40,24
0,59,0,96
0,59,40,24
0,59,40,0
0,85,80,0
0,59,0,96
0,59,0,0
0,85,0,0
0,70,64,24
0,69,64,0
0,69,80,0
0,85,80,0
0,70,0,30
0,71,64,0
0,85,0,2
0,85,80,8
0,71,0,20
0,73,64,0
0,85,0,12
0,85,80,8
0,73,0,10
0,75,64,0
0,69,0,6
0,69,0,0
0,85,0,16
0,75,0,8
0,76,64,0
0,59,40,0
0,85,80,0
0,76,0,30
0,78,64,0
0,78,0,30
0,80,64,0
0,80,0,30
0,82,64,0
0,59,0,6
0,85,0,0
0,82,0,24
0,83,64,0
0,71,64,0
0,71,80,0
0,85,80,0
0,71,0,96
0,71,0,0
0,85,0,0
0,66,64,24
0,59,40,0
0,66,80,0
0,85,80,0
0,85,0,32
0,85,80,8
0,85,0,32
0,85,80,8
0,66,0,16
0,66,0,0
0,59,0,0
0,85,0,16
0,85,80,8
0,85,0,96
0,69,64,24
0,69,80,0
0,85,80,0
0,69,0,96
0,69,0,0
0,85,0,0
0,67,64,24
0,67,80,0
0,59,40,0
0,67,0,96
0,59,0,0
0,67,0,0
0,59,40,24
0,85,80,0
0,59,0,96
0,85,0,0
0,67,64,24
0,67,80,0
0,85,80,0
0,85,0,32
0,85,80,8
0,83,0,8
0,85,0,24
0,85,80,8
0,67,0,16
0,67,0,0
0,85,0,16
0,69,64,8
0,69,80,0
0,85,80,0
0,69,0,96
0,69,0,0
0,85,0,0
0,83,40,24
0,71,64,0
0,71,80,0
0,85,80,0
0,83,0,30
0,84,41,0
0,84,0,30
0,83,43,0
0,83,0,30
0,84,44,0
0,71,0,6
0,71,0,0
0,85,0,0
0,84,0,24
0,83,45,0
0,66,64,0
0,66,80,0
0,59,40,0
0,85,80,0
0,83,0,30
0,84,46,0
0,85,0,2
0,85,80,8
0,84,0,20
0,83,48,0
0,85,0,12
0,85,80,8
0,83,0,10
0,84,49,0
0,66,0,6
0,59,0,0
0,66,0,0
0,85,0,16
0,84,0,8
0,83,50,0
0,85,80,0
0,83,0,30
0,84,51,0
0,84,0,30
0,83,53,0
0,83,0,30
0,84,54,0
0,85,0,6
0,84,0,24
0,83,55,0
0,69,64,0
0,69,80,0
0,85,80,0
0,83,0,30
0,84,56,0
0,84,0,30
0,83,58,0
0,83,0,30
0,84,59,0
0,69,0,6
0,69,0,0
0,85,0,0
0,84,0,24
0,83,60,0
0,67,64,0
0,59,40,0
0,67,80,0
0,83,0,30
0,84,61,0
0,84,0,30
0,83,63,0
0,83,0,30
0,84,64,0
0,67,0,6
0,67,0,0
0,59,0,0
0,84,0,24
0,83,65,0
0,59,40,0
0,85,80,0
0,83,0,30
0,84,66,0
0,84,0,30
0,83,68,0
0,83,0,30
0,84,69,0
0,59,0,6
0,85,0,0
0,84,0,24
0,83,70,0
0,67,64,0
0,67,80,0
0,85,80,0
0,83,0,30
0,84,71,0
0,85,0,2
0,85,80,8
0,84,0,20
0,83,73,0
0,85,0,12
0,85,80,8
0,83,0,10
0,84,74,0
0,67,0,6
0,67,0,0
0,85,0,16
0,84,0,8
0,83,75,0
0,69,64,0
0,69,80,0
0,85,80,0
0,83,0,30
0,84,76,0
0,84,0,30
0,83,78,0
0,83,0,30
0,84,79,0
0,69,0,6
0,69,0,0
0,85,0,0
0,84,0,24
0,83,80,0
0,71,64,0
0,71,80,0
0,36,100,0
0,64,48,0
0,85,80,0
0,71,0,96
0,71,0,0
0,85,0,0
0,64,0,0
0,59,40,24
0,85,80,0
0,63,48,0
0,63,0,32
0,85,0,0
0,85,80,8
0,63,48,0
0,83,0,32
0,36,0,0
0,63,0,0
0,85,0,0
0,63,48,8
0,85,80,0
0,59,0,16
0,85,0,16
0,63,0,0
0,36,100,8
0,85,80,0
0,62,48,0
0,62,0,96
0,85,0,0
0,69,64,24
0,69,80,0
0,64,48,0
0,85,80,0
0,36,0,72
0,69,0,24
0,69,0,0
0,85,0,0
0,64,0,0
0,59,40,24
0,36,100,0
0,63,48,0
0,63,0,48
0,63,48,12
0,59,0,36
0,63,0,12
0,59,40,12
0,85,80,0
0,62,48,0
0,36,0,72
0,59,0,24
0,62,0,0
0,85,0,0
0,67,64,24
0,67,80,0
0,36,100,0
0,62,48,0
0,85,80,0
0,85,0,32
0,62,0,0
0,85,80,8
0,85,0,32
0,85,80,8
0,67,0,16
0,67,0,0
0,85,0,16
0,59,40,8
0,64,48,0
0,85,80,0
0,36,0,72
0,59,0,24
0,85,0,0
0,64,0,0
0,66,64,24
0,66,80,0
0,36,100,0
0,64,48,0
0,85,80,0
0,66,0,96
0,66,0,0
0,85,0,0
0,64,0,0
0,59,40,24
0,63,48,0
0,85,80,0
0,85,0,32
0,63,0,0
0,63,48,8
0,85,80,0
0,36,0,32
0,85,0,0
0,63,0,0
0,85,80,8
0,63,48,0
0,59,0,16
0,63,0,16
0,85,0,0
0,36,100,8
0,62,48,0
0,85,80,0
0,85,0,96
0,62,0,0
0,67,64,24
0,67,80,0
0,85,80,0
0,64,48,0
0,36,0,72
0,67,0,24
0,67,0,0
0,64,0,0
0,85,0,0
0,59,40,24
0,36,100,0
0,63,48,0
0,63,0,48
0,63,48,12
0,59,0,36
0,63,0,12
0,59,40,12
0,59,40,0
0,62,48,0
0,85,80,0
0,36,0,72
0,59,0,24
0,59,0,0
0,85,0,0
0,62,0,0
0,69,64,24
0,69,80,0
0,36,100,0
0,85,80,0
0,62,48,0
0,62,0,32
0,85,0,0
0,85,80,8
0,85,0,32
0,85,80,8
0,69,0,16
0,69,0,0
0,36,0,0
0,85,0,16
0,59,40,8
0,36,100,0
0,64,48,0
0,85,80,0
0,59,0,96
0,36,0,0
0,85,0,0
0,64,0,0
0,83,40,24
0,71,64,0
0,71,80,0
0,36,100,0
0,64,48,0
0,85,80,0
0,83,0,30
0,84,41,0
0,84,0,30
0,83,43,0
0,83,0,30
0,84,44,0
0,71,0,6
0,71,0,0
0,85,0,0
0,64,0,0
0,84,0,24
0,83,45,0
0,66,64,0
0,66,80,0
0,59,40,0
0,85,80,0
0,63,48,0
0,83,0,30
0,84,46,0
0,63,0,2
0,85,0,0
0,85,80,8
0,63,48,0
0,84,0,20
0,83,48,0
0,36,0,12
0,63,0,0
0,85,0,0
0,85,80,8
0,63,48,0
0,83,0,10
0,84,49,0
0,66,0,6
0,59,0,0
0,66,0,0
0,63,0,16
0,85,0,0
0,84,0,8
0,83,50,0
0,36,100,0
0,62,48,0
0,85,80,0
0,83,0,30
0,84,51,0
0,84,0,30
0,83,53,0
0,83,0,30
0,84,54,0
0,85,0,6
0,62,0,0
0,84,0,24
0,83,55,0
0,69,64,0
0,69,80,0
0,85,80,0
0,64,48,0
0,83,0,30
0,84,56,0
0,84,0,30
0,83,58,0
0,36,0,12
0,83,0,18
0,84,59,0
0,69,0,6
0,69,0,0
0,64,0,0
0,85,0,0
0,84,0,24
0,83,60,0
0,67,64,0
0,59,40,0
0,67,80,0
0,36,100,0
0,63,48,0
0,83,0,30
0,84,61,0
0,63,0,18
0,84,0,12
0,83,63,0
0,63,48,0
0,83,0,30
0,84,64,0
0,67,0,6
0,67,0,0
0,59,0,0
0,63,0,12
0,84,0,12
0,83,65,0
0,59,40,0
0,85,80,0
0,62,48,0
0,83,0,30
0,84,66,0
0,84,0,30
0,83,68,0
0,36,0,12
0,83,0,18
0,84,69,0
0,59,0,6
0,62,0,0
0,85,0,0
0,84,0,24
0,83,70,0
0,67,64,0
0,67,80,0
0,36,100,0
0,85,80,0
0,62,48,0
0,83,0,30
0,84,71,0
0,62,0,2
0,85,0,0
0,85,80,8
0,84,0,20
0,83,73,0
0,85,0,12
0,85,80,8
0,83,0,10
0,84,74,0
0,67,0,6
0,67,0,0
0,85,0,16
0,84,0,8
0,83,75,0
0,69,64,0
0,69,80,0
0,85,80,0
0,64,48,0
0,83,0,30
0,84,76,0
0,84,0,30
0,83,78,0
0,36,0,12
0,83,0,18
0,84,79,0
0,69,0,6
0,69,0,0
0,64,0,0
0,85,0,0
0,84,0,24
0,83,80,0
0,71,64,0
0,71,80,0
0,36,100,0
0,85,80,0
0,64,48,0
0,71,0,96
0,71,0,0
0,64,0,0
0,85,0,0
0,66,64,24
0,59,40,0
0,66,80,0
0,63,48,0
0,85,80,0
0,85,0,32
0,63,0,0
0,63,48,8
0,85,80,0
0,36,0,32
0,85,0,0
0,63,0,0
0,63,48,8
0,85,80,0
0,66,0,16
0,66,0,0
0,59,0,0
0,85,0,16
0,63,0,0
0,36,100,8
0,85,80,0
0,62,48,0
0,62,0,96
0,85,0,0
0,69,64,24
0,69,80,0
0,64,48,0
0,85,80,0
0,83,0,24
0,36,0,48
0,69,0,24
0,69,0,0
0,85,0,0
0,64,0,0
0,56,80,24
0,67,64,0
0,59,40,0
0,67,80,0
0,58,80,0
0,36,100,0
0,63,48,0
0,56,0,30
0,58,80,0
0,58,0,0
0,59,80,0
0,63,0,18
0,58,0,12
0,60,80,0
0,59,0,0
0,61,80,0
0,63,48,0
0,60,0,30
0,61,80,0
0,61,0,0
0,63,80,0
0,67,0,6
0,67,0,0
0,59,0,0
0,63,0,12
0,61,0,12
0,63,80,0
0,59,40,0
0,63,0,0
0,64,80,0
0,62,48,0
0,85,80,0
0,63,0,30
0,65,80,0
0,64,0,0
0,66,80,0
0,65,0,30
0,66,80,0
0,66,0,0
0,68,80,0
0,36,0,12
0,66,0,18
0,68,80,0
0,68,0,0
0,70,80,0
0,59,0,6
0,85,0,0
0,62,0,0
0,68,0,24
0,70,80,0
0,67,64,0
0,67,80,0
0,70,0,0
0,71,80,0
0,36,100,0
0,85,80,0
0,62,48,0
0,70,0,30
0,72,80,0
0,71,0,0
0,72,80,0
0,62,0,2
0,85,0,0
0,85,80,8
0,72,0,20
0,73,80,0
0,72,0,0
0,73,80,0
0,85,0,12
0,85,80,8
0,73,0,10
0,75,80,0
0,73,0,0
0,75,80,0
0,67,0,6
0,67,0,0
0,36,0,0
0,85,0,16
0,75,0,8
0,77,80,0
0,69,64,0
0,69,80,0
0,75,0,0
0,76,80,0
0,36,100,0
0,85,80,0
0,64,48,0
0,77,0,30
0,78,80,0
0,76,0,0
0,78,80,0
0,78,0,30
0,78,0,0
0,80,80,0
0,80,0,24
0,80,80,6
0,82,80,0
0,69,0,6
0,69,0,0
0,36,0,0
0,64,0,0
0,85,0,0
0,82,0,18
0,23,100,6
0,80,0,0
0,83,80,0
0,71,80,0
0,83,80,0
0,36,100,0
0,49,80,0
0,64,48,0
0,85,80,0
0,83,0,96
0,83,0,0
0,71,0,0
0,85,0,0
0,64,0,0
0,76,48,24
0,63,48,0
0,85,80,0
0,85,0,32
0,63,0,0
0,76,0,0
0,85,80,8
0,63,48,0
0,36,0,32
0,63,0,0
0,85,0,0
0,63,48,8
0,85,80,0
0,85,0,32
0,63,0,0
0,36,100,8
0,62,48,0
0,85,80,0
0,85,0,96
0,62,0,0
0,85,80,24
0,64,48,0
0,76,80,0
0,36,0,72
0,76,0,24
0,64,0,0
0,85,0,0
0,36,100,24
0,63,48,0
0,63,0,48
0,63,48,12
0,63,0,48
0,62,48,12
0,85,80,0
0,76,48,0
0,36,0,72
0,76,0,24
0,85,0,0
0,62,0,0
0,36,100,24
0,85,80,0
0,62,48,0
0,62,0,32
0,85,0,0
0,85,80,8
0,23,0,8
0,49,0,0
0,85,0,24
0,85,80,8
0,85,0,32
0,76,48,8
0,64,48,0
0,85,80,0
0,36,0,72
0,85,0,24
0,64,0,0
0,76,0,0
0,36,100,24
0,64,48,0
0,85,80,0
0,85,0,96
0,64,0,0
0,85,80,24
0,63,48,0
0,76,48,0
0,76,0,32
0,63,0,0
0,85,0,0
0,85,80,8
0,63,48,0
0,36,0,32
0,63,0,0
0,85,0,0
0,85,80,8
0,63,48,0
0,63,0,32
0,85,0,0
0,36,100,8
0,85,80,0
0,62,48,0
0,62,0,96
0,85,0,0
0,64,48,24
0,76,80,0
0,85,80,0
0,36,0,72
0,85,0,24
0,76,0,0
0,64,0,0
0,36,100,24
0,63,48,0
0,63,0,48
0,63,48,12
0,63,0,48
0,62,48,12
0,85,80,0
0,76,48,0
0,36,0,72
0,76,0,24
0,85,0,0
0,62,0,0
0,36,100,24
0,62,48,0
0,85,80,0
0,85,0,32
0,62,0,0
0,85,80,8
0,85,0,32
0,85,80,8
0,36,0,16
0,85,0,16
0,36,100,8
0,76,48,0
0,85,80,0
0,64,48,0
0,36,0,96
0,64,0,0
0,85,0,0
0,76,0,0
0,36,100,24
0,85,80,0
0,64,48,0
0,64,0,96
0,85,0,0
0,85,80,24
0,76,48,0
0,63,48,0
0,63,0,32
0,76,0,0
0,85,0,0
0,85,80,8
0,63,48,0
0,36,0,32
0,63,0,0
0,85,0,0
0,85,80,8
0,63,48,0
0,63,0,32
0,85,0,0
0,36,100,8
0,85,80,0
0,62,48,0
0,62,0,96
0,85,0,0
0,85,80,24
0,64,48,0
0,76,80,0
0,36,0,72
0,76,0,24
0,64,0,0
0,85,0,0
0,36,100,24
0,63,48,0
0,63,0,48
0,63,48,12
0,63,0,48
0,62,48,12
0,76,48,0
0,85,80,0
0,36,0,72
0,85,0,24
0,76,0,0
0,62,0,0
0,36,100,24
0,85,80,0
0,62,48,0
0,62,0,32
0,85,0,0
0,85,80,8
0,85,0,32
0,85,80,8
0,85,0,32
0,64,48,8
0,85,80,0
0,76,48,0
0,36,0,72
0,76,0,24
0,85,0,0
0,64,0,0
0,36,100,24
0,85,80,0
0,64,48,0
0,64,0,96
0,85,0,0
0,63,48,24
0,85,80,0
0,76,48,0
0,76,0,32
0,85,0,0
0,63,0,0
0,63,48,8
0,85,80,0
0,36,0,32
0,85,0,0
0,63,0,0
0,85,80,8
0,63,48,0
0,63,0,32
0,85,0,0
0,36,100,8
0,62,48,0
0,85,80,0
0,85,0,96
0,62,0,0
0,76,80,24
0,85,80,0
0,64,48,0
0,36,0,72
0,64,0,24
0,85,0,0
0,76,0,0
0,58,80,24
0,58,80,0
0,36,100,0
0,63,48,0
0,58,0,30
0,59,80,0
0,58,0,0
0,59,80,0
0,63,0,18
0,59,0,12
0,61,80,0
0,59,0,0
0,61,80,0
0,63,48,0
0,61,0,30
0,63,80,0
0,61,0,0
0,63,80,0
0,63,0,18
0,63,0,12
0,64,80,0
0,63,0,0
0,64,80,0
0,62,48,0
0,85,80,0
0,76,48,0
0,64,0,30
0,66,80,0
0,64,0,0
0,66,80,0
0,66,0,30
0,68,80,0
0,66,0,0
0,68,80,0
0,36,0,12
0,68,0,18
0,70,80,0
0,68,0,0
0,70,80,0
0,76,0,6
