track,note,velocity,time
0,62,125,188
0,50,120,26
0,64,123,28
0,50,127,71
0,62,125,118
0,50,127,2
0,62,86,0
0,65,86,0
0,69,83,0
0,74,93,0
0,62,127,77
0,50,126,1
0,50,127,0
0,57,127,3
0,50,127,0
0,60,127,24
0,50,127,5
0,50,127,27
0,60,127,0
0,50,127,26
0,62,127,9
0,50,127,39
0,43,108,12
0,36,127,1
0,38,111,0
0,50,126,0
0,36,127,34
0,38,114,0
0,43,91,17
0,65,48,288
0,69,54,0
0,74,57,0
0,65,123,384
0,65,124,28
0,62,88,0
0,65,124,0
0,64,110,28
0,60,82,0
0,64,87,0
0,67,88,0
0,72,95,0
0,64,49,0
0,67,45,0
0,72,47,0
0,67,86,11
0,67,120,1
0,74,83,0
0,67,49,0
0,70,60,0
0,74,45,0
0,62,82,3
0,70,94,1
0,65,127,28
0,69,81,17
0,62,82,5
0,65,90,6
0,65,44,0
0,69,60,0
0,74,53,0
0,74,96,2
0,65,115,124
0,65,117,28
0,65,127,28
0,65,114,124
0,72,85,9
0,60,92,4
0,64,84,7
0,67,85,7
0,64,127,1
0,64,49,0
0,67,45,0
0,72,49,0
0,62,91,17
0,74,80,0
0,67,91,5
0,70,82,0
0,67,111,6
0,67,47,0
0,70,46,0
0,74,46,0
0,65,109,28
0,69,78,9
0,65,97,9
0,65,53,10
0,69,51,0
0,74,48,0
0,74,81,3
0,62,94,3
0,69,120,220
0,69,124,124
0,69,119,28
0,60,90,7
0,72,88,0
0,67,124,21
0,52,63,0
0,64,50,0
0,67,52,0
0,72,59,0
0,67,96,3
0,64,97,1
0,76,80,14
0,72,80,1
0,67,79,2
0,64,87,4
0,70,119,7
0,69,122,28
0,57,60,18
0,65,62,0
0,69,51,0
0,72,59,0
0,72,83,4
0,65,82,2
0,60,85,1
0,69,93,11
0,70,87,9
0,65,97,3
0,74,92,7
0,65,123,2
0,58,58,0
0,70,48,0
0,74,51,0
0,62,81,11
0,65,111,28
0,77,95,17
0,65,82,4
0,72,88,4
0,69,121,2
0,60,45,0
0,65,53,0
0,69,62,0
0,72,61,0
0,69,82,2
0,76,90,16
0,64,83,8
0,67,110,20
0,48,60,0
0,64,56,0
0,67,53,0
0,67,81,11
0,72,93,12
0,67,66,841
0,67,81,188
0,67,67,92
0,67,73,188
0,67,66,92
0,67,74,28
0,67,83,92
0,67,84,92
0,67,83,92
0,65,119,92
0,67,83,0
0,67,81,92
0,62,120,28
0,67,83,0
0,69,83,3
0,65,85,8
0,62,81,9
0,74,79,2
0,50,47,3
0,65,55,0
0,69,44,0
0,74,53,0
0,69,66,0
0,67,74,0
0,67,84,188
0,67,81,92
0,69,65,92
0,67,66,92
0,67,69,188
0,69,73,92
0,67,73,0
0,67,71,92
0,54,64,0
0,67,72,92
0,69,74,92
0,67,78,0
0,54,62,0
0,67,66,5
0,54,64,0
0,67,74,92
0,69,55,92
0,69,66,92
0,67,76,0
0,69,69,92
0,67,73,0
0,54,53,0
0,67,69,284
0,69,72,92
0,67,84,92
0,54,56,92
0,67,79,92
0,69,68,92
0,67,78,92
0,67,71,92
0,69,72,92
0,67,79,0
0,67,72,92
0,69,70,28
0,69,69,92
0,67,69,0
0,69,62,92
0,67,77,0
0,54,63,0
0,67,72,188
0,67,78,92
0,69,69,92
0,67,73,0
0,67,76,92
0,54,51,92
0,67,71,92
0,69,68,92
0,67,82,0
0,67,71,92
0,67,81,92
0,69,61,92
0,67,80,0
0,67,66,92
0,54,68,0
0,67,75,92
0,69,69,92
0,69,59,92
0,67,69,0
0,69,65,92
0,67,72,0
0,54,64,0
0,67,71,284
0,69,73,92
0,67,76,0
0,67,71,188
0,67,77,92
0,69,68,92
0,67,77,0
0,67,74,0
0,54,64,0
0,38,127,0
0,69,59,0
0,67,80,0
0,54,59,0
0,38,121,8
0,67,65,0
0,54,60,0
0,50,80,188
0,38,115,0
0,69,57,0
0,67,77,0
0,48,85,28
0,38,126,0
0,69,71,0
0,67,76,0
0,53,80,27
0,29,122,0
0,36,116,0
0,44,70,0
0,49,105,0
0,54,65,0
0,60,78,18
0,42,73,0
0,54,65,0
0,57,96,28
0,72,93,0
0,77,91,0
0,44,83,0
0,54,56,0
0,60,93,28
0,72,87,0
0,77,77,0
0,42,69,0
0,54,67,0
0,69,111,28
0,53,80,0
0,72,79,0
0,77,76,0
0,38,122,0
0,44,84,0
0,54,65,0
0,60,80,28
0,42,70,0
0,54,68,0
0,57,80,28
0,72,76,0
0,77,81,0
0,65,49,0
0,69,44,0
0,72,49,0
0,29,118,0
0,36,97,0
0,44,79,0
0,54,61,0
0,60,95,28
0,72,94,0
0,77,95,0
0,42,74,0
0,54,54,0
0,65,123,28
0,53,78,0
0,36,113,0
0,44,84,0
0,54,49,0
0,60,90,28
0,72,86,0
0,77,76,0
0,42,75,0
0,54,68,0
0,65,126,28
0,57,85,0
0,72,88,0
0,77,85,0
0,44,77,0
0,54,54,0
0,60,94,28
0,72,78,0
0,77,80,0
0,29,114,0
0,42,69,0
0,54,66,0
0,53,96,28
0,72,85,0
0,77,91,0
0,38,112,0
0,44,75,0
0,54,55,0
0,60,87,28
0,72,78,0
0,77,94,0
0,41,111,0
0,42,83,0
0,54,56,0
0,64,111,28
0,57,80,0
0,72,92,0
0,77,77,0
0,44,78,0
0,54,61,0
0,60,90,28
0,72,81,0
0,77,85,0
0,36,125,0
0,42,70,0
0,54,51,0
0,52,80,28
0,72,92,0
0,76,80,0
0,64,61,0
0,67,57,0
0,36,113,0
0,36,116,0
0,44,74,0
0,54,50,0
0,60,84,28
0,42,74,0
0,54,65,0
0,65,106,28
0,60,111,0
0,55,80,0
0,72,90,0
0,76,87,0
0,36,119,0
0,44,78,0
0,54,61,0
0,60,89,28
0,72,79,0
0,76,86,0
0,42,88,0
0,54,54,0
0,70,110,28
0,67,112,0
0,52,80,0
0,72,93,0
0,76,84,0
0,38,121,0
0,44,83,0
0,54,63,0
0,60,96,28
0,42,73,0
0,54,62,0
0,70,110,28
0,67,111,0
0,55,85,0
0,72,82,0
0,76,83,0
0,44,82,0
0,54,59,0
0,60,86,28
0,72,93,0
0,76,77,0
0,42,81,0
0,54,57,0
0,70,102,28
0,67,120,0
0,52,88,0
0,72,88,0
0,76,90,0
0,36,115,0
0,44,74,0
0,54,67,0
0,60,84,28
0,72,76,0
0,76,84,0
0,42,82,0
0,54,58,0
0,65,125,28
0,55,91,0
0,72,92,0
0,76,91,0
0,44,72,0
0,54,60,0
0,60,92,28
0,72,94,0
0,76,90,0
0,31,125,0
0,42,88,0
0,54,62,0
0,70,119,28
0,52,91,0
0,36,113,0
0,38,125,0
0,44,76,0
0,54,56,0
0,60,93,28
0,72,84,0
0,76,90,0
0,42,88,0
0,54,59,0
0,69,116,28
0,65,112,0
0,55,84,0
0,72,80,0
0,76,82,0
0,31,113,0
0,44,77,0
0,54,57,0
0,60,86,28
0,72,95,0
0,76,79,0
0,33,118,0
0,42,73,0
0,54,56,0
0,50,97,28
0,74,88,0
0,77,76,0
0,62,58,0
0,65,54,0
0,34,127,0
0,36,115,0
0,44,83,0
0,54,67,0
0,58,84,28
0,42,69,0
0,54,61,0
0,60,113,28
0,60,85,0
0,74,83,0
0,77,86,0
0,44,78,0
0,54,51,0
0,58,86,28
0,74,80,0
0,77,86,0
0,42,86,0
0,54,53,0
0,67,115,28
0,50,96,0
0,74,76,0
0,77,90,0
0,38,117,0
0,44,78,0
0,54,64,0
0,58,85,28
0,74,92,0
0,77,85,0
0,42,70,0
0,54,52,0
0,60,84,28
0,74,85,0
0,77,84,0
0,34,110,0
0,36,111,0
0,44,72,0
0,54,50,0
0,58,96,28
0,74,87,0
0,77,83,0
0,42,82,0
0,54,62,0
0,67,122,28
0,50,83,0
0,36,110,0
0,44,88,0
0,54,62,0
0,58,93,28
0,74,88,0
0,77,83,0
0,42,76,0
0,54,57,0
0,65,115,28
0,60,82,0
0,74,76,0
0,77,79,0
0,44,76,0
0,54,60,0
0,58,88,28
0,74,76,0
0,77,77,0
0,34,111,0
0,42,87,0
0,54,57,0
0,50,80,28
0,38,120,0
0,44,80,0
0,54,51,0
0,58,93,28
0,74,82,0
0,77,84,0
0,41,111,0
0,42,83,0
0,54,49,0
0,65,118,28
0,60,94,0
0,74,86,0
0,77,92,0
0,44,71,0
0,54,55,0
0,58,95,28
0,74,82,0
0,77,95,0
0,33,127,0
0,42,88,0
0,54,64,0
0,48,96,28
0,72,80,0
0,76,90,0
0,64,46,0
0,69,59,0
0,33,111,0
0,36,111,0
0,44,82,0
0,54,68,0
0,52,91,28
0,42,80,0
0,54,64,0
0,60,122,28
0,57,80,0
0,72,82,0
0,76,83,0
0,33,121,0
0,44,72,0
0,54,53,0
0,60,83,28
0,72,80,0
0,76,80,0
0,42,70,0
0,54,54,0
0,69,122,28
0,48,95,0
0,72,93,0
0,76,95,0
0,38,111,0
0,44,71,0
0,54,67,0
0,52,83,28
0,72,86,0
0,76,91,0
0,42,87,0
0,54,65,0
0,67,113,28
0,57,78,0
0,72,91,0
0,76,79,0
0,36,125,0
0,44,82,0
0,54,61,0
0,60,79,28
0,69,89,0
0,74,78,0
0,42,77,0
0,54,62,0
0,72,111,28
0,69,126,0
0,50,88,0
0,65,63,0
0,69,47,0
0,74,61,0
0,38,125,0
0,36,119,0
0,44,87,0
0,54,64,0
0,53,97,28
0,69,83,0
0,74,95,0
0,38,127,0
0,42,88,0
0,54,65,0
0,57,86,28
0,69,82,0
0,74,82,0
0,26,111,0
0,44,74,0
0,54,61,0
0,62,90,28
0,69,76,0
0,74,87,0
0,42,80,0
0,54,50,0
0,70,114,24
0,67,112,0
0,50,89,0
0,69,88,0
0,74,83,0
0,26,117,0
0,38,111,0
0,44,87,0
0,54,57,0
0,53,93,28
0,69,93,0
0,74,89,0
0,42,82,0
0,54,58,0
0,57,85,28
0,69,89,0
0,74,83,0
0,28,123,0
0,38,109,0
0,44,71,0
0,54,60,0
0,62,78,28
0,69,78,0
0,74,80,0
0,38,118,0
0,42,81,0
0,54,54,0
0,69,117,12
0,65,111,0
0,53,81,0
0,29,126,0
0,36,124,0
0,44,70,0
0,49,90,0
0,54,59,0
0,60,96,28
0,42,83,0
0,54,59,0
0,57,89,28
0,72,87,0
0,77,80,0
0,44,80,0
0,54,52,0
0,60,94,28
0,72,77,0
0,77,84,0
0,42,79,0
0,54,62,0
0,67,117,28
0,53,78,0
0,72,90,0
0,77,80,0
0,38,124,0
0,44,82,0
0,54,49,0
0,60,84,28
0,42,83,0
0,54,58,0
0,57,79,28
0,72,93,0
0,77,95,0
0,65,55,0
0,69,44,0
0,72,57,0
0,29,123,0
0,36,103,0
0,44,84,0
0,54,55,0
0,60,81,28
0,72,82,0
0,77,86,0
0,42,81,0
0,54,67,0
0,67,124,28
0,53,82,0
0,36,113,0
0,44,69,0
0,54,58,0
0,60,93,28
0,72,78,0
0,77,85,0
0,42,80,0
0,54,53,0
0,65,109,28
0,57,85,0
0,72,89,0
0,77,93,0
0,44,86,0
0,54,63,0
0,60,97,28
0,72,76,0
0,77,84,0
0,29,113,0
0,42,75,0
0,54,53,0
0,53,96,28
0,72,88,0
0,77,78,0
0,38,117,0
0,44,75,0
0,54,67,0
0,60,93,28
0,72,91,0
0,77,89,0
0,41,118,0
0,42,70,0
0,54,54,0
0,64,121,28
0,57,88,0
0,72,80,0
0,77,79,0
0,44,86,0
0,54,52,0
0,60,90,28
0,72,82,0
0,77,94,0
0,36,112,0
0,42,77,0
0,54,64,0
0,52,88,28
0,72,90,0
0,76,89,0
0,64,63,0
0,67,60,0
0,36,110,0
0,36,126,0
0,44,84,0
0,54,61,0
0,60,82,28
0,42,70,0
0,54,68,0
0,55,91,28
0,72,81,0
0,76,90,0
0,36,121,0
0,44,79,0
0,54,66,0
0,60,87,28
0,72,79,0
0,76,84,0
0,42,70,0
0,54,58,0
0,70,105,28
0,67,116,0
0,52,82,0
0,72,94,0
0,76,82,0
0,38,121,0
0,44,84,0
0,54,60,0
0,60,96,28
0,42,75,0
0,54,68,0
0,70,104,28
0,67,121,0
0,55,95,0
0,72,88,0
0,76,92,0
0,44,83,0
0,54,49,0
0,60,85,28
0,72,86,0
0,76,92,0
0,38,120,0
0,42,82,0
0,54,60,0
0,70,115,28
0,69,111,0
0,52,81,0
0,72,92,0
0,76,76,0
0,36,112,0
0,44,86,0
0,54,63,0
0,60,93,28
0,72,93,0
0,76,80,0
0,42,73,0
0,54,50,0
0,65,109,28
0,55,94,0
0,72,94,0
0,76,92,0
0,44,85,0
0,54,62,0
0,60,86,28
0,72,90,0
0,76,81,0
0,31,125,0
0,42,75,0
0,54,55,0
0,70,109,28
0,65,121,0
0,52,94,0
0,36,111,0
0,38,109,0
0,44,74,0
0,54,50,0
0,60,87,28
0,72,76,0
0,76,82,0
0,42,72,0
0,54,59,0
0,69,107,28
0,65,126,0
0,55,88,0
0,72,85,0
0,76,92,0
0,33,127,0
0,44,79,0
0,54,67,0
0,60,79,28
0,72,77,0
0,76,78,0
0,42,70,0
0,54,65,0
0,50,91,28
0,74,76,0
0,77,90,0
0,62,49,0
0,65,61,0
0,34,121,0
0,36,122,0
0,44,72,0
0,54,52,0
0,58,87,28
0,42,87,0
0,54,65,0
0,60,81,28
0,74,85,0
0,77,82,0
0,44,81,0
0,54,49,0
0,58,85,28
0,74,80,0
0,77,93,0
0,42,74,0
0,54,56,0
0,67,112,28
0,50,97,0
0,74,86,0
0,77,77,0
0,38,120,0
0,44,87,0
0,54,66,0
0,58,81,28
0,74,93,0
0,77,90,0
0,42,72,0
0,54,62,0
0,60,89,28
0,74,95,0
0,77,85,0
0,34,115,0
0,36,109,0
0,44,80,0
0,54,56,0
0,58,86,28
0,74,89,0
0,77,93,0
0,42,86,0
0,54,61,0
0,67,111,28
0,50,94,0
0,36,119,0
0,44,86,0
0,54,54,0
0,58,83,28
0,74,82,0
0,77,86,0
0,42,79,0
0,54,61,0
0,65,115,28
0,60,87,0
0,74,94,0
0,77,94,0
0,44,82,0
0,54,51,0
0,58,88,28
0,74,95,0
0,77,79,0
0,34,123,0
0,42,78,0
0,54,57,0
0,65,120,28
0,50,92,0
0,38,126,0
0,44,71,0
0,54,49,0
0,58,87,28
0,74,81,0
0,77,79,0
0,41,127,0
0,42,85,0
0,54,50,0
0,65,127,28
0,60,85,0
0,74,79,0
0,77,91,0
0,44,88,0
0,54,53,0
0,58,91,28
0,74,78,0
0,77,76,0
0,33,126,0
0,42,75,0
0,54,64,0
0,48,97,28
0,72,82,0
0,76,92,0
0,64,56,0
0,69,62,0
0,33,113,0
0,36,126,0
0,44,79,0
0,54,64,0
0,52,87,28
0,42,75,0
0,54,63,0
0,69,109,28
0,57,88,0
0,72,95,0
0,76,86,0
0,33,117,0
0,44,73,0
0,54,49,0
0,60,87,28
0,72,92,0
0,76,93,0
0,42,75,0
0,54,66,0
0,67,126,28
0,48,89,0
0,72,86,0
0,76,91,0
0,38,112,0
0,44,73,0
0,54,66,0
0,52,97,28
0,72,90,0
0,76,88,0
0,42,79,0
0,54,68,0
0,67,120,28
0,57,78,0
0,72,90,0
0,76,82,0
0,36,125,0
0,44,70,0
0,54,64,0
0,60,79,28
0,69,85,0
0,74,92,0
0,42,72,0
0,54,63,0
0,72,118,28
0,69,127,0
0,50,87,0
0,65,45,0
0,69,47,0
0,74,56,0
0,38,123,0
0,36,116,0
0,44,71,0
0,54,59,0
0,53,84,28
0,69,88,0
0,74,93,0
0,38,126,0
0,42,88,0
0,54,62,0
0,57,89,28
0,69,94,0
0,74,80,0
0,26,111,0
0,44,79,0
0,54,54,0
0,62,88,28
0,69,79,0
0,74,77,0
0,42,79,0
0,54,57,0
0,70,118,28
0,65,117,0
0,50,94,0
0,69,95,0
0,74,88,0
0,26,114,0
0,38,109,0
0,44,86,0
0,54,60,0
0,67,110,28
0,53,78,0
0,69,91,0
0,74,83,0
0,42,82,0
0,54,59,0
