track,note,velocity,time
0,77,46,521
0,72,49,0
0,63,32,0
0,56,32,0
0,77,81,12
0,72,51,0
0,68,51,0
0,77,86,19
0,72,56,0
0,68,56,0
0,68,48,7
0,75,86,12
0,68,56,0
0,65,56,0
0,75,85,19
0,68,55,0
0,65,55,0
0,72,79,19
0,68,49,0
0,63,49,0
0,72,83,19
0,68,53,0
0,63,53,0
0,63,52,7
0,68,72,12
0,63,52,0
0,60,52,0
0,72,60,7
0,63,72,0
0,56,72,0
0,56,52,6
0,32,87,6
0,72,79,0
0,68,49,0
0,63,49,0
0,65,75,0
0,63,76,0
0,60,69,0
0,70,30,0
0,63,57,0
0,49,59,0
0,42,48,0
0,35,105,0
0,82,29,91
0,82,21,91
0,42,44,0
0,63,40,99
0,75,75,9
0,62,75,12
0,42,75,0
0,37,95,0
0,77,71,17
0,39,85,12
0,82,22,0
0,64,53,0
0,42,31,0
0,35,97,0
0,75,74,7
0,70,30,12
0,42,53,0
0,82,29,91
0,62,72,3
0,77,70,9
0,82,21,12
0,64,43,0
0,42,35,0
0,64,24,99
0,75,74,19
0,39,87,12
0,63,61,0
0,42,57,0
0,37,95,0
0,35,81,0
0,77,68,9
0,64,53,12
0,42,33,0
0,56,78,2
0,75,71,9
0,70,60,0
0,63,60,0
0,60,55,0
0,32,76,9
0,56,68,0
0,70,30,0
0,63,57,0
0,42,48,0
0,35,105,0
0,65,73,1
0,63,78,0
0,60,73,0
0,82,29,90
0,77,83,91
0,72,51,0
0,68,51,0
0,82,21,0
0,42,44,0
0,63,40,99
0,77,88,19
0,72,56,0
0,68,56,0
0,62,75,0
0,42,75,0
0,37,95,0
0,39,80,19
0,75,83,0
0,68,56,0
0,65,56,0
0,82,22,0
0,64,53,0
0,42,31,0
0,35,97,0
0,75,88,19
0,68,55,0
0,65,55,0
0,70,30,0
0,42,53,0
0,82,29,91
0,62,72,3
0,72,83,19
0,68,49,0
0,63,49,0
0,82,21,0
0,64,43,0
0,42,35,0
0,64,24,99
0,39,82,19
0,72,85,0
0,68,53,0
0,63,53,0
0,63,61,0
0,54,83,0
0,42,57,0
0,37,95,0
0,35,81,0
0,68,88,19
0,63,52,0
0,60,52,0
0,64,53,0
0,42,33,0
0,70,75,7
0,65,69,0
0,61,69,0
0,58,69,0
0,34,87,9
0,70,88,0
0,65,58,0
0,61,58,0
0,65,80,0
0,61,85,0
0,56,76,0
0,70,30,0
0,63,57,0
0,42,48,0
0,35,105,0
0,82,29,91
0,72,70,27
0,82,21,12
0,42,44,0
0,63,40,99
0,70,74,19
0,62,75,12
0,42,75,0
0,37,95,0
0,72,72,19
0,41,87,12
0,82,22,0
0,64,53,0
0,42,31,0
0,35,97,0
0,70,74,7
0,70,30,12
0,42,53,0
0,82,29,91
0,62,72,3
0,72,73,9
0,82,21,12
0,64,43,0
0,42,35,0
0,64,24,99
0,70,73,13
0,41,80,12
0,63,61,0
0,42,57,0
0,37,95,0
0,35,81,0
0,72,68,3
0,64,53,12
0,42,33,0
0,70,69,9
0,34,85,9
0,65,68,0
0,61,82,0
0,56,75,0
0,70,30,0
0,63,57,0
0,42,48,0
0,35,105,0
0,82,29,91
0,72,92,91
0,68,62,0
0,65,62,0
0,82,21,0
0,42,44,0
0,63,40,99
0,72,90,19
0,68,60,0
0,65,60,0
0,62,75,0
0,42,75,0
0,37,95,0
0,41,92,19
0,70,90,0
0,65,60,0
0,61,60,0
0,82,22,0
0,64,53,0
0,42,31,0
0,35,97,0
0,70,88,19
0,65,58,0
0,61,58,0
0,70,30,0
0,42,53,0
0,82,29,91
0,62,72,3
0,68,92,19
0,65,62,0
0,61,62,0
0,82,21,0
0,64,43,0
0,42,35,0
0,64,24,99
0,29,89,19
0,68,85,0
0,65,55,0
0,61,55,0
0,63,61,0
0,54,83,0
0,42,57,0
0,37,95,0
0,35,81,0
0,32,90,15
0,65,83,0
0,61,53,0
0,58,53,0
0,64,53,0
0,42,33,0
0,70,74,7
0,63,72,0
0,46,72,0
0,34,90,9
0,70,90,0
0,65,60,0
0,61,60,0
0,65,61,0
0,61,83,0
0,70,30,0
0,63,57,0
0,42,48,0
0,35,105,0
0,56,51,2
0,82,29,91
0,72,72,19
0,82,21,12
0,42,44,0
0,63,40,99
0,70,74,25
0,62,75,12
0,42,75,0
0,37,95,0
0,41,87,35
0,82,22,0
0,64,53,0
0,42,31,0
0,35,97,0
0,70,30,19
0,42,53,0
0,82,29,91
0,62,72,3
0,70,74,71
0,82,21,12
0,64,43,0
0,42,35,0
0,64,24,99
0,72,72,19
0,41,83,12
0,63,61,0
0,42,57,0
0,37,95,0
0,35,81,0
0,77,74,25
0,64,53,12
0,42,33,0
0,75,69,11
0,70,61,0
0,65,56,0
0,61,54,0
0,51,72,0
0,39,90,9
0,61,71,0
0,58,73,0
0,70,30,0
0,63,57,0
0,42,48,0
0,35,105,0
0,63,82,2
0,82,29,91
0,72,86,91
0,68,56,0
0,65,56,0
0,82,21,0
0,42,44,0
0,63,40,99
0,72,90,19
0,68,60,0
0,65,60,0
0,62,75,0
0,42,75,0
0,37,95,0
0,34,83,19
0,70,86,0
0,67,56,0
0,63,56,0
0,82,22,0
0,64,53,0
0,42,31,0
0,35,97,0
0,70,92,19
0,67,62,0
0,63,62,0
0,70,30,0
0,42,53,0
0,82,29,91
0,62,72,3
0,68,86,19
0,65,56,0
0,61,56,0
0,82,21,0
0,64,43,0
0,42,35,0
0,64,24,99
0,39,82,19
0,68,88,0
0,65,58,0
0,61,58,0
0,63,61,0
0,54,83,0
0,42,57,0
0,37,95,0
0,35,81,0
0,65,74,19
0,61,44,0
0,58,44,0
0,64,53,0
0,42,33,0
0,75,75,1
0,63,69,0
0,60,69,0
0,56,69,0
0,32,89,12
0,68,86,0
0,63,56,0
0,60,56,0
0,70,30,0
0,63,57,0
0,42,48,0
0,35,105,0
0,56,75,2
0,63,75,1
0,60,69,2
0,82,29,88
0,77,71,17
0,82,21,12
0,42,44,0
0,63,40,99
0,75,75,25
0,62,75,12
0,42,75,0
0,37,95,0
0,77,71,7
0,39,82,12
0,82,22,0
0,64,53,0
0,42,31,0
0,35,97,0
0,75,74,7
0,70,30,12
0,42,53,0
0,82,29,91
0,62,72,3
0,70,70,9
0,82,21,12
0,64,43,0
0,42,35,0
0,64,24,99
0,68,74,19
0,39,83,12
0,63,61,0
0,42,57,0
0,37,95,0
0,35,81,0
0,64,53,103
0,75,71,9
0,71,71,0
0,63,63,0
0,56,63,0
0,52,63,0
0,40,85,9
0,70,30,0
0,63,57,0
0,42,48,0
0,35,105,0
0,56,80,2
0,63,86,2
0,59,88,0
0,82,29,91
0,82,21,91
0,42,44,0
0,63,40,99
0,62,75,83
0,42,75,0
0,37,95,0
0,73,71,47
0,70,71,0
0,63,71,0
0,56,63,0
0,51,63,0
0,39,92,9
0,56,84,0
0,82,22,0
0,64,53,0
0,42,31,0
0,35,97,0
0,58,82,2
0,61,82,2
0,70,30,187
0,42,53,0
0,82,29,91
0,62,72,3
0,82,21,83
0,64,43,0
0,42,35,0
0,64,24,99
0,39,83,31
0,63,61,0
0,54,83,0
0,42,57,0
0,37,95,0
0,35,81,0
0,64,53,5
0,72,69,7
0,63,65,0
0,56,80,0
0,56,69,10
0,32,89,2
0,70,30,0
0,63,57,0
0,42,48,0
0,35,105,0
0,63,69,2
0,60,69,0
0,82,29,91
0,82,21,91
0,42,44,0
0,63,40,99
0,62,75,83
0,42,75,0
0,37,95,0
0,39,83,19
0,82,22,0
0,64,53,0
0,42,31,0
0,35,97,0
0,70,30,187
0,42,53,0
0,82,29,91
0,62,72,3
0,82,21,83
0,64,43,0
0,42,35,0
0,64,24,99
0,32,85,31
0,63,61,0
0,42,57,0
0,37,95,0
0,35,81,0
0,68,77,13
0,64,53,12
0,71,79,9
0,63,79,0
0,59,79,0
0,56,79,0
0,52,79,0
0,40,89,12
0,70,30,0
0,63,57,0
0,42,48,0
0,35,105,0
0,63,82,2
0,56,78,0
0,59,78,2
0,82,29,91
0,82,21,91
0,42,44,0
0,63,40,99
0,62,75,83
0,42,75,0
0,37,95,0
0,70,62,37
0,63,62,0
0,61,62,0
0,56,62,0
0,51,62,0
0,56,85,2
0,39,90,2
0,61,85,0
0,58,85,0
0,82,22,0
0,64,53,0
0,42,31,0
0,35,105,0
0,42,53,99
0,64,35,283
0,64,47,91
0,54,83,0
0,60,55,367
0,51,55,0
0,44,58,0
0,44,85,12
0,63,84,0
0,56,78,0
0,70,28,0
0,63,55,0
0,42,46,0
0,35,103,0
0,60,71,2
0,82,27,91
0,63,100,91
0,82,19,0
0,42,42,0
0,63,38,99
0,72,95,29
0,62,73,0
0,42,73,0
0,37,93,0
0,44,83,41
0,72,93,0
0,82,20,0
0,64,51,0
0,42,29,0
0,35,95,0
0,70,28,187
0,42,51,0
0,82,27,17
0,62,70,3
0,56,82,81
0,82,19,2
0,64,41,0
0,42,33,0
0,64,22,99
0,63,59,17
0,42,55,0
0,37,93,0
0,60,64,2
0,72,31,77
0,63,80,31
0,64,51,0
0,42,31,0
0,63,55,9
0,58,55,0
0,49,55,0
0,42,74,12
0,70,28,0
0,63,55,0
0,42,46,0
0,35,103,0
0,66,84,4
0,63,77,0
0,61,85,0
0,58,80,0
0,82,27,91
0,75,95,91
0,82,19,0
0,42,42,0
0,63,38,99
0,73,95,21
0,62,73,0
0,42,73,0
0,37,93,0
0,42,78,13
0,72,97,0
0,82,20,0
0,64,51,0
0,42,29,0
0,35,95,0
0,68,80,7
0,70,28,180
0,42,51,0
0,82,27,91
0,62,70,3
0,68,86,13
0,82,19,0
0,64,41,0
0,42,33,0
0,61,78,7
0,64,22,92
0,63,59,83
0,54,81,0
0,42,55,0
0,37,93,0
0,60,76,5
0,64,51,13
0,42,31,0
0,63,55,11
0,56,55,0
0,53,55,0
0,41,85,5
0,70,28,0
0,63,55,0
0,42,46,0
0,35,103,0
0,63,84,4
0,61,77,0
0,56,85,0
0,53,80,0
0,75,53,43
0,82,27,47
0,75,93,91
0,82,19,0
0,42,42,0
0,63,38,99
0,73,93,9
0,62,73,0
0,42,73,0
0,37,93,0
0,61,55,1
0,41,85,12
0,72,88,0
0,82,20,0
0,64,51,0
0,42,29,0
0,35,95,0
0,68,80,4
0,70,28,187
0,42,51,0
0,82,27,91
0,62,70,3
0,68,86,5
0,82,19,0
0,64,41,0
0,42,33,0
0,61,78,4
0,64,22,99
0,60,55,7
0,63,59,12
0,42,55,0
0,37,93,0
0,60,76,1
0,64,51,17
0,42,31,0
0,63,55,1
0,56,55,0
0,52,55,0
0,40,83,12
0,70,28,0
0,63,55,0
0,42,46,0
0,35,103,0
0,63,84,4
0,56,85,0
0,52,85,0
0,82,27,91
0,75,92,91
0,82,19,0
0,42,42,0
0,63,38,99
0,73,93,11
0,62,73,0
0,42,73,0
0,37,93,0
0,61,55,3
0,40,90,9
0,72,95,0
0,82,20,0
0,64,51,0
0,42,29,0
0,35,95,0
0,68,80,4
0,70,28,187
0,42,51,0
0,82,27,91
0,62,70,3
0,68,88,13
0,82,19,0
0,64,41,0
0,42,33,0
0,61,78,4
0,64,22,99
0,60,55,7
0,63,59,12
0,54,81,0
0,42,55,0
0,37,93,0
0,60,76,11
0,64,51,176
0,42,31,0
0,63,55,1
0,56,55,0
0,51,55,0
0,39,88,11
0,63,80,0
0,56,73,0
0,70,28,0
0,63,55,0
0,42,46,0
0,35,103,0
0,60,61,2
0,82,27,91
0,63,100,91
0,82,19,0
0,42,42,0
0,63,38,99
0,72,95,29
0,62,73,0
0,42,73,0
0,37,93,0
0,68,71,11
0,60,71,0
0,68,75,8
0,63,47,0
0,44,85,4
0,72,93,0
0,82,20,0
0,64,51,0
0,42,29,0
0,35,95,0
0,60,52,2
0,70,28,187
0,42,51,0
0,82,27,91
0,62,70,3
0,82,19,83
0,64,41,0
0,42,33,0
0,64,22,99
0,39,81,13
0,63,59,0
0,42,55,0
0,37,93,0
0,68,57,1
0,63,56,2
0,72,39,93
0,64,51,63
0,42,31,0
0,70,71,1
0,65,71,0
0,58,71,0
0,50,71,0
0,38,88,9
0,70,80,0
0,65,80,0
0,58,73,0
0,70,28,0
0,63,55,0
0,42,46,0
0,35,103,0
0,62,61,2
0,82,27,91
0,77,93,91
0,82,19,0
0,42,42,0
0,63,38,99
0,72,90,9
0,62,73,0
0,42,73,0
0,37,93,0
0,70,60,19
0,65,60,0
0,38,81,4
0,70,90,0
0,82,20,0
0,64,51,0
0,42,29,0
0,35,95,0
0,62,60,2
0,70,28,187
0,42,51,0
0,82,27,91
0,62,70,3
0,82,19,83
0,64,41,0
0,42,33,0
0,64,22,99
0,63,59,83
0,54,81,0
0,42,55,0
0,37,93,0
0,64,51,175
0,42,31,0
0,71,67,1
0,64,67,0
0,56,67,0
0,49,69,0
0,37,87,12
0,83,90,0
0,71,80,0
0,68,80,0
0,61,73,0
0,70,28,0
0,63,55,0
0,42,46,0
0,35,103,0
0,64,61,2
0,82,27,91
0,82,19,91
0,42,42,0
0,63,38,99
0,62,73,83
0,42,73,0
0,37,93,0
0,70,65,7
0,37,80,9
0,82,92,0
0,82,20,0
0,64,51,0
0,42,29,0
0,35,95,0
0,80,86,9
0,70,28,0
0,42,51,0
0,82,27,91
0,62,70,3
0,82,19,83
0,64,41,0
0,42,33,0
0,64,22,99
0,68,61,1
0,71,60,3
0,68,60,0
0,63,59,4
0,42,55,0
0,37,93,0
0,64,60,2
0,75,80,11
0,68,77,172
0,64,51,4
0,42,31,0
0,75,55,1
0,68,55,0
0,63,55,0
0,58,55,0
0,68,78,8
0,42,61,4
0,68,78,0
0,63,80,0
0,54,73,0
0,70,28,0
0,63,55,0
0,42,49,0
0,35,103,0
0,58,61,2
0,82,27,91
0,68,77,65
0,82,19,4
0,63,38,99
0,68,75,59
0,70,28,4
0,62,73,0
0,42,49,0
0,82,27,91
0,68,76,79
0,82,19,4
0,64,41,0
0,64,22,23
0,68,75,75
0,70,28,4
0,63,59,0
0,42,49,0
0,82,27,91
0,68,75,65
0,82,19,4
0,64,41,0
0,70,30,91
0,64,22,3
0,68,74,79
0,70,28,4
0,63,59,0
0,42,49,0
0,82,27,19
0,68,73,87
0,82,19,4
0,75,62,1
0,60,62,0
0,51,62,0
0,44,63,0
0,68,73,8
0,44,88,4
0,63,93,0
0,56,87,0
0,70,31,0
0,63,58,0
0,42,49,0
0,35,106,0
0,60,80,2
0,82,30,91
0,63,103,91
0,82,22,0
0,42,45,0
0,63,41,99
0,72,98,29
0,62,76,0
0,42,76,0
0,37,96,0
0,44,86,41
0,72,96,0
0,68,70,0
0,82,23,0
0,64,54,0
0,42,32,0
0,35,98,0
0,63,70,9
0,70,31,0
0,42,54,0
0,82,30,17
0,62,73,3
0,56,91,7
0,82,22,2
0,64,44,0
0,42,36,0
0,64,25,99
0,44,80,9
0,63,62,0
0,42,58,0
0,37,96,0
0,35,84,0
0,60,73,2
0,70,89,61
0,63,89,0
0,64,54,0
0,42,34,0
0,63,62,9
0,58,62,0
0,49,62,0
0,42,77,12
0,70,31,0
0,63,58,0
0,42,49,0
0,35,106,0
0,68,93,4
0,63,86,0
0,61,94,0
0,58,89,0
0,82,30,91
0,75,98,91
0,82,22,0
0,42,45,0
0,63,41,99
0,73,98,21
0,62,76,0
0,42,76,0
0,37,96,0
0,80,64,1
0,42,81,12
0,72,100,0
0,82,23,0
0,64,54,0
0,42,32,0
0,35,98,0
0,68,89,7
0,70,31,21
0,42,54,0
0,82,30,91
0,62,73,3
0,68,89,13
0,82,22,0
0,64,44,0
0,42,36,0
0,61,87,7
0,64,25,92
0,75,64,9
0,42,80,12
0,63,62,0
0,54,84,0
0,42,58,0
0,37,96,0
0,35,84,0
0,60,85,5
0,64,54,13
0,42,34,0
0,63,62,11
0,56,62,0
0,53,62,0
0,41,88,5
0,70,31,0
0,63,58,0
0,42,49,0
0,35,106,0
0,68,93,4
0,61,86,0
0,56,94,0
