track,note,velocity,time
2,36,80,663
2,36,68,26
2,34,72,1536
2,27,68,4
2,29,80,384
2,34,76,0
2,27,88,768
2,29,66,381
2,34,76,377
2,27,72,1
2,29,76,384
2,34,72,1
2,27,80,768
2,29,88,2
2,31,80,384
2,27,88,372
2,31,92,369
2,27,68,4
2,31,84,384
2,27,76,379
2,29,80,370
2,34,72,767
2,27,80,760
2,29,80,372
2,34,68,381
2,27,68,766
2,29,76,3
2,34,76,384
2,27,68,764
2,29,92,363
2,34,80,380
2,27,80,752
2,29,80,0
2,31,84,384
2,27,80,3
2,31,84,384
2,27,84,4
2,31,88,384
2,27,88,0
2,29,88,384
2,34,72,761
2,27,84,758
2,29,88,381
2,34,72,370
2,27,80,764
2,29,72,668
2,25,102,764
2,27,84,2
2,25,88,384
2,27,84,2
2,25,92,384
2,27,84,380
2,29,84,4
2,29,92,20
2,36,97,384
2,29,72,9
2,31,80,384
2,36,84,370
2,29,88,766
2,31,84,376
2,33,84,380
2,29,84,379
2,33,88,381
2,29,84,379
2,33,88,51
2,29,80,1
2,31,88,384
2,34,80,759
2,27,68,756
2,29,76,0
2,34,68,384
2,27,72,750
2,29,80,378
2,34,80,383
2,27,72,761
2,29,80,378
2,34,76,0
2,27,80,768
2,29,66,2
2,36,88,48
2,29,88,5
2,31,88,384
2,36,80,377
2,29,84,761
2,31,80,2
2,36,84,384
2,29,76,766
2,31,80,382
3,62,29,658
3,63,36,0
3,65,34,0
3,70,48,0
3,62,25,20
3,63,50,0
3,65,58,0
3,70,44,0
3,58,42,31
3,65,54,0
3,60,42,768
3,58,48,18
3,65,29,0
3,60,40,754
3,58,32,19
3,60,60,0
3,65,58,0
3,58,44,23
3,60,56,0
3,65,66,0
3,58,32,49
3,60,60,0
3,65,58,0
3,58,44,23
3,60,56,0
3,65,66,0
3,58,32,49
3,60,60,0
3,65,58,0
3,58,44,23
3,60,56,0
3,65,66,0
3,56,50,817
3,58,50,0
3,63,44,0
3,60,60,5
3,65,62,0
3,60,60,35
3,67,52,0
3,62,52,768
3,62,50,757
3,60,42,67
3,62,56,0
3,67,50,0
3,58,48,43
3,65,60,0
3,60,58,768
3,58,48,48
3,65,60,0
3,60,58,768
3,58,48,48
3,65,60,0
3,60,58,768
3,58,48,48
3,65,60,0
3,60,58,768
3,60,48,48
3,67,60,0
3,62,58,768
3,60,48,48
3,67,60,0
3,62,58,768
3,60,48,48
3,67,60,0
3,62,58,768
4,75,68,1901
4,74,68,16
4,70,46,53
4,75,68,541
4,74,68,23
4,70,60,52
4,77,77,71
4,77,68,68
4,75,68,48
4,76,1,0
4,74,44,8
4,72,60,48
4,72,68,24
4,70,42,48
4,70,56,18
4,77,64,48
4,75,22,48
4,74,42,5
4,72,56,48
4,72,64,24
4,72,52,19
4,72,52,18
4,70,42,48
4,74,56,47
4,70,46,16
4,70,36,11
4,72,64,3
4,70,56,7
4,77,77,113
4,77,68,25
4,75,60,48
4,74,52,9
4,72,60,3
4,72,56,11
4,72,68,30
4,77,60,37
4,75,56,9
4,74,46,7
4,72,60,4
4,72,72,18
4,72,72,19
4,74,56,5
4,70,30,17
4,70,48,13
4,72,64,1
4,70,44,4
4,70,56,134
4,67,52,114
4,70,44,1
4,70,68,11
4,63,34,48
4,63,46,22
4,63,46,18
4,63,64,16
4,67,48,36
4,70,46,10
4,70,64,17
4,69,48,6
4,69,52,21
4,69,46,18
4,70,44,6
4,72,48,0
4,70,52,48
4,69,44,8
4,70,36,3
4,70,72,136
4,67,60,76
4,70,52,3
4,70,36,14
4,63,46,9
4,63,44,24
4,63,40,28
4,63,40,20
4,67,56,8
4,70,64,48
4,69,52,4
4,69,60,25
4,70,56,44
4,72,52,48
4,70,42,42
4,70,32,22
4,72,52,5
4,74,60,15
4,74,64,27
4,72,56,10
4,72,64,28
4,70,36,48
4,72,52,5
4,70,46,0
4,70,56,31
4,72,56,23
4,70,42,4
4,74,56,5
4,74,60,38
4,72,64,12
4,72,68,24
4,72,72,25
4,70,42,1
4,70,56,28
4,70,64,37
4,74,42,81
4,74,64,24
4,74,60,10
4,74,64,11
4,72,68,96
4,72,64,28
4,70,28,48
4,72,42,18
4,70,46,3
4,70,56,55
4,72,68,59
4,72,56,21
4,70,46,2
4,72,68,17
4,72,72,46
4,72,64,41
4,72,68,44
4,70,36,3
4,74,60,11
4,72,64,4
4,70,44,48
4,72,46,3
4,70,40,60
4,70,42,10
4,72,60,24
4,70,60,1
4,77,60,128
4,77,72,40
4,75,60,10
4,74,38,48
4,72,56,39
4,72,60,20
4,70,44,1
4,70,46,17
4,77,64,55
4,75,64,48
4,74,42,4
4,72,52,48
4,72,77,15
4,72,52,18
4,72,52,19
4,70,46,4
4,74,56,4
4,70,40,19
4,70,42,10
4,72,72,2
4,70,60,1
4,77,68,84
4,77,64,39
4,75,64,48
4,74,48,43
4,72,60,2
4,72,77,23
4,72,52,38
4,77,64,46
4,75,64,48
4,74,40,44
4,72,46,3
4,72,72,19
4,72,64,29
4,74,48,2
4,70,20,18
4,70,46,15
4,72,64,24
4,70,38,5
4,70,48,69
4,67,48,46
4,70,44,8
4,70,44,16
4,63,48,6
4,63,42,16
4,63,36,24
4,63,64,20
4,67,44,56
4,70,60,18
4,70,52,21
4,69,46,8
4,69,44,21
4,69,44,17
4,70,44,11
4,72,56,9
4,69,56,29
4,70,44,5
4,70,68,81
4,67,44,80
4,70,56,48
4,70,44,17
4,63,52,4
4,63,46,22
4,63,68,72
4,67,46,51
4,70,56,8
4,69,52,17
4,69,48,23
4,69,46,14
4,70,64,56
4,72,56,48
4,70,56,47
4,69,48,4
4,70,36,6
4,74,64,48
4,74,46,31
4,74,38,43
4,72,64,48
4,72,60,21
4,72,52,24
4,70,52,2
4,72,46,4
4,70,48,48
4,70,52,36
4,74,44,240
4,74,52,40
4,74,44,23
4,74,56,23
4,72,77,48
4,72,48,32
4,70,56,24
4,72,46,22
4,70,60,45
4,70,52,36
4,74,42,67
4,74,48,24
4,74,40,10
4,74,72,6
4,72,64,3
4,72,52,20
4,70,30,2
4,72,46,48
4,70,52,7
4,70,44,35
4,72,56,31
4,72,48,23
4,70,34,48
4,72,48,9
4,72,60,19
4,70,46,2
4,72,68,10
4,70,34,192
4,74,60,12
4,72,60,48
4,70,38,3
4,72,46,6
4,70,30,64
4,70,36,12
4,72,52,24
4,70,56,47
4,77,72,122
4,77,72,44
4,75,60,19
4,74,60,17
4,72,52,4
4,72,56,23
4,70,52,10
4,70,52,19
4,77,60,54
4,75,60,48
4,74,36,5
4,72,52,48
4,72,72,18
4,72,44,18
4,72,56,21
4,70,34,6
4,74,56,5
4,70,34,13
4,70,36,10
4,72,60,24
4,70,56,46
4,77,64,85
4,77,68,23
4,75,52,4
4,74,44,4
4,72,64,1
4,72,42,19
4,74,30,0
4,72,64,26
4,77,60,33
4,75,52,9
4,74,42,5
4,72,56,2
4,72,44,11
4,72,64,22
4,72,52,22
4,74,56,24
4,70,30,12
4,70,42,13
4,72,60,1
4,70,52,6
4,82,64,1003
4,80,64,45
4,82,34,8
4,77,42,6
4,82,68,202
4,80,68,50
4,82,44,4
4,77,46,1
4,82,64,29
4,80,60,48
4,77,44,2
4,77,64,15
4,77,48,95
4,77,44,11
4,77,46,12
4,75,44,4
4,77,64,6
4,75,42,216
4,72,46,1
4,76,77,3236
4,74,56,13
4,74,64,23
4,72,46,6
4,74,52,3
4,72,56,4
4,72,60,34
4,74,48,3
4,72,48,48
4,76,68,5
4,76,68,43
4,74,52,57
4,74,60,21
4,72,46,48
4,74,60,7
4,72,48,3
4,72,60,29
4,72,52,26
4,76,56,118
4,76,64,32
4,76,64,13
4,76,56,11
4,74,44,4
4,74,64,27
4,74,42,18
4,74,60,19
4,72,60,8
4,72,60,40
4,74,60,49
4,74,60,26
4,72,48,7
4,74,64,17
4,74,68,42
4,74,68,29
4,74,64,36
4,72,44,5
4,76,68,4
4,74,42,2
4,72,46,5
4,74,60,4
4,72,56,56
4,72,40,11
4,74,64,4
4,72,56,8
4,77,68,138
4,82,60,50
4,81,48,6
4,77,46,48
4,82,56,153
4,81,48,5
4,77,52,42
4,77,60,151
4,77,60,28
4,75,64,14
4,75,44,10
4,74,60,24
4,75,56,2
4,77,56,133
4,82,64,43
4,81,46,2
4,77,52,53
4,82,56,148
4,81,52,6
4,77,56,54
4,77,52,63
4,77,64,29
4,75,60,15
4,75,48,11
4,74,60,24
4,75,56,3
4,77,64,144
4,77,68,44
4,75,64,48
4,74,42,4
4,72,52,4
4,72,52,23
4,70,36,0
4,70,48,18
4,77,52,59
4,75,48,48
4,74,40,0
4,72,42,48
4,72,52,21
4,72,46,65
4,74,44,4
4,70,26,14
4,70,36,10
4,72,52,1
4,70,48,48
4,77,64,104
4,77,60,21
4,75,60,3
4,74,42,0
4,72,44,3
4,72,64,16
4,72,56,10
4,77,60,33
4,75,46,6
4,74,32,1
4,72,40,5
4,72,52,14
4,72,56,25
4,74,42,48
4,70,13,9
4,70,44,14
4,72,56,24
4,70,52,47
4,79,52,132
4,84,68,22
4,83,42,48
4,79,42,4
4,84,68,68
4,83,42,48
4,79,38,88
4,79,42,30
4,79,52,24
4,77,48,10
4,77,48,13
4,76,64,1
4,77,52,5
4,79,56,131
4,84,64,48
4,83,52,48
4,79,46,82
4,84,68,86
4,83,52,48
4,79,34,86
4,79,42,73
4,79,46,27
4,77,68,8
4,77,46,9
4,76,60,1
4,77,68,3
4,79,62,148
4,72,60,1
4,74,48,48
4,72,52,2
4,74,50,48
4,76,60,47
4,72,40,1
4,72,44,58
4,74,58,64
4,72,48,48
4,74,52,45
4,74,46,34
4,74,48,26
4,74,48,43
4,76,56,47
4,74,50,0
4,74,39,15
5,62,60,5400
5,65,62,0
5,70,66,0
5,62,36,955
5,65,58,0
5,70,48,0
5,58,50,923
5,62,52,0
5,65,58,0
5,70,60,808
5,70,28,48
5,69,48,2
5,69,42,21
5,69,50,70
5,67,54,48
5,67,48,40
5,69,48,0
5,67,38,6
5,70,42,48
5,70,23,47
5,69,50,1
5,69,56,13
5,67,48,9
5,67,40,18
5,67,42,14
5,75,62,770
5,75,70,58
5,74,29,11
5,75,34,2
5,75,58,43
5,74,26,1
5,77,50,0
5,75,48,0
5,74,36,3
5,75,36,0
5,74,48,33
5,74,44,4
5,75,48,24
5,74,31,45
5,62,52,133
5,65,44,0
5,70,36,0
5,62,60,914
5,65,62,0
5,70,60,0
5,62,46,948
5,65,58,0
5,70,52,0
5,58,52,924
5,62,58,0
5,65,70,0
5,70,28,876
5,70,18,69
5,71,17,0
5,70,60,50
5,69,54,48
5,69,60,30
5,67,58,7
5,69,48,2
5,67,56,5
5,67,52,31
5,70,28,73
5,70,56,31
5,70,56,31
5,69,50,48
5,69,48,24
5,67,48,11
5,69,50,24
5,67,50,8
5,67,50,26
5,70,31,128
5,70,36,30
5,70,38,26
5,69,40,11
5,67,42,48
5,69,50,17
5,67,44,2
5,67,52,43
5,75,52,0
5,75,32,23
5,74,40,48
5,75,36,8
5,75,46,18
5,74,33,48
5,77,56,47
5,75,32,3
5,74,42,48
5,75,40,2
5,74,38,1
5,74,30,5
5,75,52,24
5,74,46,39
5,58,50,118
5,60,56,0
5,65,70,0
5,62,54,959
5,65,48,0
5,70,48,0
5,72,62,3841
5,70,58,216
5,69,56,10
5,64,56,3240
5,72,70,0
5,62,31,10
5,71,50,0
5,62,46,27
5,71,46,0
5,60,40,7
5,69,48,0
5,62,48,21
5,71,50,0
5,60,42,0
5,69,48,0
5,60,54,40
5,69,60,0
5,62,38,18
5,71,40,0
5,60,48,3
5,69,46,0
5,64,40,6
5,72,60,0
5,64,56,64
5,72,66,0
5,62,42,7
5,71,27,0
5,62,46,30
5,71,44,0
5,60,48,8
5,69,50,0
5,62,50,19
5,71,50,0
5,60,38,95
5,69,56,0
5,64,50,86
5,72,54,0
5,64,44,29
5,72,52,0
5,72,52,10
5,72,58,10
5,62,32,3
5,71,38,0
5,62,36,30
5,71,52,0
5,60,28,21
5,69,48,0
5,62,38,22
5,71,50,0
5,60,48,19
5,69,38,0
5,60,40,70
5,69,52,0
5,67,60,95
5,67,58,13
5,67,56,37
5,67,58,29
5,67,60,39
5,67,29,32
5,67,60,35
5,67,48,35
5,62,36,155
5,65,36,0
5,70,52,0
5,62,48,898
5,65,50,0
5,70,28,0
5,70,50,913
5,62,48,1004
5,65,48,0
5,70,48,0
5,64,60,904
5,67,62,0
5,72,62,0
5,64,62,913
5,67,58,0
5,72,70,0
5,60,48,895
5,64,52,0
5,67,54,0
5,64,50,780
5,67,52,0
5,72,52,0
6,63,88,1
6,39,88,0
6,51,88,0
6,25,88,0
6,37,88,0
7,49,56,25982
7,63,68,0
7,61,72,0
7,68,66,0
7,56,72,0
7,67,76,10
7,51,64,0
7,58,62,0
7,63,64,0
7,68,22,0
7,61,60,24
7,49,62,0
7,68,56,0
7,63,58,0
7,56,66,0
7,58,48,13
7,63,62,0
7,51,52,0
7,67,62,0
7,68,46,0
7,61,54,1
7,68,58,0
7,56,66,0
7,63,54,0
7,49,52,0
7,68,56,1
7,58,58,0
7,67,68,0
7,51,60,0
7,53,84,8
7,60,66,0
7,65,80,0
7,64,60,3110
7,60,54,0
7,55,64,0
7,64,64,49
7,60,64,0
7,55,60,0
7,64,64,96
7,55,62,0
7,60,64,0
7,55,64,88
7,62,72,0
7,60,66,0
7,55,68,117
7,64,64,0
7,60,66,0
7,55,64,234
7,60,62,0
7,62,72,0
7,62,72,294
7,55,62,0
7,60,68,0
7,67,72,336
7,60,66,52
7,58,76,0
7,65,72,0
7,50,76,160
7,58,68,0
7,60,62,0
7,65,68,0
7,69,66,0
7,51,36,0
7,60,37,0
7,60,60,5
7,53,64,0
7,57,68,0
7,60,62,4
7,65,54,0
7,53,68,0
7,58,64,0
7,53,52,25
7,58,58,0
7,60,64,0
7,69,66,0
7,65,80,0
7,60,56,8
7,65,64,0
7,51,62,0
7,58,58,0
7,53,64,0
7,60,66,39
7,58,76,0
7,65,72,0
7,50,76,160
7,58,68,0
7,60,62,0
7,65,68,0
7,69,66,0
7,51,36,0
7,60,37,0
7,60,60,5
7,53,64,0
7,57,68,0
7,60,62,4
7,65,54,0
7,53,68,0
7,58,64,0
7,53,52,25
7,58,58,0
7,60,64,0
7,69,66,0
7,65,80,0
7,60,56,8
7,65,64,0
7,51,62,0
7,58,58,0
7,53,64,0
7,60,76,39
7,62,66,0
7,67,72,0
7,52,76,160
7,60,68,0
7,62,62,0
7,67,68,0
7,71,66,0
7,53,36,0
7,62,37,0
7,55,64,5
7,59,68,0
7,62,60,0
7,55,68,4
7,60,64,0
7,62,62,0
7,67,54,0
7,55,52,25
7,60,58,0
7,62,64,0
7,67,80,0
7,71,66,0
7,53,62,8
7,60,58,0
7,62,56,0
7,67,64,0
7,55,64,0
8,77,52,22737
8,82,80,18
8,77,76,4
8,82,92,12
8,89,92,24
8,77,66,463
8,82,80,33
8,89,88,21
8,87,80,32
8,86,76,20
8,84,68,28
8,82,92,30
8,77,56,627
8,82,84,9
8,77,76,3
8,82,88,10
8,89,92,28
8,77,64,464
8,82,92,35
8,89,88,27
8,87,66,33
8,86,76,26
8,84,68,24
8,82,68,15
8,79,40,3921
8,91,37,0
8,79,48,12
8,91,50,0
8,91,66,56
8,79,60,0
8,79,60,75
8,91,62,0
8,91,52,8
8,79,33,0
8,91,76,56
8,79,58,0
8,79,56,79
8,91,60,0
8,79,39,12
8,91,58,0
8,79,60,59
8,91,66,0
8,79,54,80
8,91,60,0
8,79,40,12
8,91,60,0
8,91,64,59
8,79,60,0
8,79,52,81
8,91,46,0
8,79,31,10
8,91,39,0
8,91,62,60
8,79,62,0
8,91,58,79
8,79,52,0
8,79,39,12
8,91,64,0
8,91,60,59
8,79,58,0
8,79,58,76
8,91,54,0
8,79,29,11
8,91,48,57
8,79,52,0
8,91,52,81
8,79,58,0
8,79,31,10
8,91,56,0
8,91,60,57
