track,note,velocity,time
0,59,100,0
0,62,100,0
0,67,100,0
0,59,80,0
0,62,80,0
0,67,80,0
0,50,80,0
0,36,80,0
0,42,64,0
0,54,64,0
0,36,0,78
0,36,80,24
0,67,0,24
0,62,0,0
0,59,0,0
0,67,0,0
0,62,0,0
0,59,0,0
0,42,0,0
0,54,0,0
0,36,0,24
0,57,100,12
0,62,100,0
0,66,100,0
0,57,80,0
0,62,80,0
0,66,80,0
0,39,80,0
0,42,64,0
0,54,64,0
0,66,0,48
0,62,0,0
0,57,0,0
0,66,0,0
0,62,0,0
0,57,0,0
0,54,0,48
0,54,64,24
0,39,0,24
0,42,0,0
0,54,0,24
0,55,100,12
0,59,100,0
0,62,100,0
0,55,80,0
0,59,80,0
0,62,80,0
0,36,80,0
0,42,64,0
0,54,64,0
0,59,0,144
0,55,0,0
0,59,0,0
0,55,0,0
0,36,0,0
0,42,0,0
0,54,0,0
0,54,100,36
0,57,100,0
0,54,80,0
0,57,80,0
0,39,80,0
0,42,64,0
0,54,64,0
0,39,0,96
0,54,0,0
0,57,0,16
0,54,0,0
0,57,0,0
0,54,0,0
0,52,100,8
0,55,100,0
0,52,80,0
0,55,80,0
0,36,80,0
0,54,64,0
0,42,0,24
0,36,0,24
0,54,0,0
0,42,64,12
0,36,80,120
0,54,64,0
0,55,0,24
0,52,0,0
0,55,0,0
0,52,0,0
0,42,0,0
0,36,0,24
0,54,0,0
0,54,80,12
0,57,80,0
0,39,80,0
0,42,64,0
0,54,64,0
0,57,0,96
0,54,0,0
0,62,0,12
0,62,0,0
0,55,80,12
0,59,80,0
0,39,0,24
0,42,0,0
0,54,0,0
0,36,80,36
0,42,64,0
0,54,64,0
0,54,0,96
0,54,64,24
0,59,0,24
0,55,0,0
0,36,0,0
0,42,0,0
0,54,0,24
0,57,80,12
0,57,80,0
0,39,80,0
0,42,64,0
0,54,64,0
0,50,0,36
0,57,0,12
0,57,0,0
0,59,80,12
0,59,80,0
0,59,0,48
0,59,0,0
0,62,80,12
0,62,80,0
0,39,0,24
0,42,0,0
0,54,0,0
0,62,0,24
0,62,0,0
0,50,80,12
0,38,80,0
0,38,80,0
0,38,80,0
0,36,80,0
0,42,64,0
0,54,64,0
0,83,104,0
0,38,0,29
0,38,0,0
0,38,0,0
0,36,0,48
0,36,80,24
0,42,0,24
0,54,0,0
0,36,0,24
0,83,0,12
0,54,80,0
0,57,80,0
0,39,80,0
0,42,64,0
0,54,64,0
0,81,104,0
0,57,0,64
0,54,0,0
0,81,0,1
0,59,80,17
0,55,80,0
0,54,0,6
0,54,64,24
0,39,0,24
0,42,0,0
0,54,0,24
0,36,80,12
0,42,64,0
0,54,64,0
0,55,0,144
0,59,0,0
0,36,0,0
0,42,0,0
0,54,0,0
0,54,80,36
0,57,80,0
0,57,80,0
0,39,80,0
0,42,64,0
0,54,64,0
0,83,107,0
0,57,0,46
0,59,80,12
0,39,0,36
0,54,0,0
0,59,0,12
0,62,80,12
0,36,80,0
0,54,64,0
0,42,0,24
0,62,0,24
0,36,0,0
0,54,0,0
0,81,117,0
0,83,0,6
0,38,80,0
0,38,80,0
0,38,80,0
0,42,64,0
0,38,0,48
0,38,0,0
0,38,0,0
0,81,0,22
0,36,80,50
0,54,64,0
0,42,0,24
0,36,0,24
0,54,0,0
0,39,80,12
0,42,64,0
0,54,64,0
0,57,0,108
0,54,0,0
0,50,0,0
0,39,0,36
0,42,0,0
0,54,0,0
0,43,88,36
0,43,88,0
0,43,88,0
0,36,80,0
0,42,64,0
0,54,64,0
0,43,0,48
0,43,0,0
0,43,0,0
0,42,88,12
0,42,88,0
0,42,88,0
0,54,0,36
0,42,0,12
0,42,0,0
0,42,0,0
0,38,88,12
0,38,88,0
0,38,88,0
0,54,64,0
0,36,0,24
0,42,0,0
0,38,0,24
0,38,0,0
0,38,0,0
0,54,0,0
0,33,88,12
0,33,88,0
0,33,88,0
0,39,80,0
0,42,64,0
0,54,64,0
0,33,0,48
0,33,0,0
0,33,0,0
0,35,88,12
0,35,88,0
0,35,88,0
0,35,0,48
0,35,0,0
0,35,0,0
0,38,88,12
0,38,88,0
0,38,88,0
0,39,0,24
0,42,0,0
0,54,0,0
0,38,0,24
0,38,0,0
0,38,0,0
0,54,80,0
0,57,80,0
0,62,80,0
0,62,80,0
0,66,80,0
0,69,80,0
0,38,80,0
0,38,80,0
0,36,80,0
0,42,64,0
0,54,64,0
0,42,0,48
0,42,64,12
0,38,0,36
0,38,0,0
0,36,0,0
0,42,0,12
0,38,80,12
0,38,80,0
0,36,80,0
0,42,64,0
0,54,0,24
0,38,0,24
0,38,0,0
0,36,0,0
0,42,0,0
0,38,80,12
0,42,64,0
0,54,64,0
0,74,100,0
0,42,0,46
0,42,64,12
0,74,0,14
0,54,0,22
0,42,0,12
0,45,80,12
0,45,80,0
0,42,64,0
0,54,64,0
0,38,0,24
0,45,0,24
0,45,0,0
0,42,0,0
0,54,0,0
0,74,123,0
0,38,80,4
0,38,80,0
0,36,80,0
0,42,64,0
0,54,64,0
0,42,0,48
0,42,64,12
0,74,0,28
0,38,0,8
0,38,0,0
0,42,0,12
0,38,80,12
0,38,80,0
0,42,64,0
0,36,0,24
0,54,0,0
0,38,0,24
0,38,0,0
0,42,0,0
0,74,117,0
0,38,80,11
0,42,64,0
0,54,64,0
0,42,0,48
0,42,64,12
0,74,0,32
0,38,0,4
0,54,0,0
0,42,0,12
0,38,80,12
0,38,80,0
0,36,80,0
0,42,64,0
0,54,64,0
0,62,0,24
0,57,0,0
0,54,0,0
0,69,0,0
0,66,0,0
0,62,0,0
0,72,107,0
0,38,0,3
0,38,0,0
0,36,0,0
0,42,0,0
0,54,0,0
0,52,80,12
0,55,80,0
0,60,80,0
0,60,80,0
0,64,80,0
0,67,80,0
0,36,80,0
0,36,80,0
0,36,80,0
0,42,64,0
0,42,0,48
0,42,64,12
0,72,0,26
0,36,0,10
0,36,0,0
0,36,0,0
0,74,112,0
0,42,0,2
0,36,80,12
0,36,80,0
0,36,80,0
0,42,64,0
0,54,64,0
0,36,0,48
0,36,0,0
0,36,0,0
0,42,0,0
0,54,0,0
0,38,80,12
0,42,64,0
0,54,64,0
0,74,0,17
0,42,0,31
0,36,80,12
0,36,80,0
0,42,64,0
0,74,104,0
0,36,0,4
0,36,0,0
0,42,0,0
0,38,80,12
0,38,80,0
0,42,64,0
0,38,0,24
0,54,0,0
0,38,0,24
0,38,0,0
0,42,0,0
0,74,0,12
0,40,80,0
0,40,80,0
0,36,80,0
0,42,64,0
0,54,64,0
0,42,0,48
0,42,64,12
0,40,0,36
0,40,0,0
0,54,0,0
0,42,0,12
0,74,107,0
0,40,80,7
0,40,80,0
0,42,64,0
0,54,64,0
0,36,0,24
0,40,0,24
0,40,0,0
0,42,0,0
0,54,0,0
0,38,80,12
0,42,64,0
0,54,64,0
0,74,0,12
0,42,0,36
0,42,64,12
0,71,107,0
0,42,0,0
0,40,80,12
0,40,80,0
0,42,64,0
0,60,0,24
0,55,0,0
0,52,0,0
0,67,0,0
0,64,0,0
0,60,0,0
0,38,0,0
0,54,0,0
0,40,0,24
0,40,0,0
0,42,0,0
0,55,80,12
0,59,80,0
0,62,80,0
0,62,80,0
0,59,80,0
0,67,80,0
0,43,80,0
0,43,80,0
0,36,80,0
0,42,64,0
0,54,64,0
0,42,0,48
0,42,64,12
0,71,0,8
0,43,0,28
0,43,0,0
0,36,0,0
0,42,0,12
0,74,112,0
0,43,80,5
0,43,80,0
0,36,80,0
0,42,64,0
0,54,0,24
0,43,0,24
0,43,0,0
0,36,0,0
0,42,0,0
0,38,80,12
0,42,64,0
0,54,64,0
0,74,0,11
0,42,0,37
0,42,64,12
0,54,0,36
0,42,0,12
0,74,104,0
0,43,80,10
0,43,80,0
0,42,64,0
0,54,64,0
0,38,0,24
0,43,0,24
0,43,0,0
0,42,0,0
0,54,0,0
0,55,80,12
0,55,80,0
0,36,80,0
0,42,64,0
0,54,64,0
0,74,0,29
0,42,0,19
0,42,64,12
0,55,0,36
0,55,0,0
0,42,0,12
0,74,97,0
0,55,80,8
0,55,80,0
0,42,64,0
0,36,0,24
0,54,0,0
0,55,0,24
0,55,0,0
0,42,0,0
0,67,0,3
0,59,0,0
0,62,0,0
0,62,80,9
0,59,80,0
0,67,80,0
0,38,80,0
0,42,64,0
0,54,64,0
0,74,0,26
0,42,0,22
0,42,64,12
0,38,0,36
0,54,0,0
0,78,112,0
0,42,0,3
0,55,80,12
0,55,80,0
0,36,80,0
0,42,64,0
0,54,64,0
0,62,0,24
0,59,0,0
0,55,0,0
0,55,0,24
0,55,0,0
0,36,0,0
0,42,0,0
0,54,0,0
0,67,0,3
0,59,0,0
0,62,0,0
0,57,80,9
0,62,80,0
0,66,80,0
0,66,80,0
0,62,80,0
0,57,80,0
0,43,80,0
0,43,80,0
0,36,80,0
0,42,64,0
0,78,0,34
0,42,0,14
0,42,64,12
0,43,0,36
0,43,0,0
0,36,0,0
0,42,0,12
0,78,104,0
0,43,80,1
0,43,80,0
0,36,80,0
0,42,64,0
0,54,64,0
0,43,0,48
0,43,0,0
0,36,0,0
0,42,0,0
0,54,0,0
0,38,80,12
0,42,64,0
0,54,64,0
0,78,0,35
0,42,0,13
0,42,64,12
0,76,112,0
0,42,0,1
0,43,80,12
0,43,80,0
0,42,64,0
0,38,0,24
0,54,0,0
0,66,0,18
0,62,0,0
0,57,0,0
0,57,0,0
0,62,0,0
0,66,0,0
0,43,0,6
0,43,0,0
0,42,0,0
0,57,80,12
0,61,80,0
0,64,80,0
0,64,80,0
0,61,80,0
0,57,80,0
0,45,80,0
0,45,80,0
0,36,80,0
0,42,64,0
0,54,64,0
0,42,0,48
0,76,0,3
0,42,64,9
0,45,0,36
0,45,0,0
0,54,0,0
0,42,0,12
0,76,107,0
0,45,80,8
0,45,80,0
0,42,64,0
0,54,64,0
0,36,0,24
0,45,0,24
0,45,0,0
0,42,0,0
0,54,0,0
0,38,80,12
0,42,64,0
0,54,64,0
0,42,0,48
0,76,0,9
0,45,80,3
0,45,80,0
0,42,64,0
0,78,107,0
0,45,0,2
0,45,0,0
0,42,0,0
0,43,80,12
0,43,80,0
0,46,64,0
0,38,0,24
0,54,0,0
0,64,0,18
0,61,0,0
0,57,0,0
0,57,0,0
0,61,0,0
0,64,0,0
0,43,0,6
0,43,0,0
0,46,0,0
0,54,80,12
0,57,80,0
0,62,80,0
0,62,80,0
0,57,80,0
0,54,80,0
0,42,80,0
0,42,80,0
0,36,80,0
0,42,64,0
0,54,64,0
0,42,0,48
0,42,64,12
0,78,0,12
0,42,0,24
0,42,0,0
0,36,0,0
0,42,0,12
0,42,80,12
0,42,80,0
0,36,80,0
0,42,64,0
0,54,0,24
0,42,0,24
0,42,0,0
0,36,0,0
0,42,0,0
0,38,80,12
0,42,64,0
0,54,64,0
0,74,67,0
0,42,0,35
0,42,64,12
0,54,0,36
0,74,0,1
0,42,0,11
0,42,80,12
0,42,80,0
0,42,64,0
0,54,64,0
0,38,0,24
0,42,0,24
0,42,0,0
0,42,0,0
0,54,0,0
0,74,92,0
0,54,80,10
0,54,80,0
0,36,80,0
0,42,64,0
0,54,64,0
0,42,0,48
0,42,64,12
0,54,0,36
0,54,0,0
0,74,0,3
0,42,0,9
0,54,80,12
0,54,80,0
0,42,64,0
0,36,0,24
0,54,0,0
0,54,0,24
0,54,0,0
0,42,0,0
0,62,0,3
0,57,0,0
0,54,0,0
0,54,0,0
0,57,0,0
0,62,0,0
0,54,80,9
0,57,80,0
0,69,80,0
0,69,80,0
0,57,80,0
0,54,80,0
0,38,80,0
0,42,64,0
0,54,64,0
0,42,0,48
0,54,80,12
0,54,80,0
0,42,64,0
0,38,0,36
0,54,0,0
0,54,0,12
0,54,0,0
0,42,0,0
0,74,89,0
0,54,80,10
0,54,80,0
0,36,80,0
0,42,64,0
0,54,64,0
0,74,0,44
0,54,0,4
0,54,0,0
0,36,0,0
0,42,0,0
0,54,0,0
0,69,0,3
0,57,0,0
0,54,0,0
0,54,0,0
0,57,0,0
0,69,0,0
0,76,92,0
0,59,80,1
0,62,80,0
0,67,80,0
0,67,80,0
0,62,80,0
0,59,80,0
0,43,80,0
0,43,80,0
0,36,80,0
0,42,64,0
0,42,0,48
0,76,0,12
0,42,64,0
0,43,0,36
0,43,0,0
0,36,0,0
0,76,92,0
0,42,0,3
0,43,80,12
0,43,80,0
0,36,80,0
0,42,64,0
0,54,64,0
0,43,0,48
0,43,0,0
0,36,0,0
0,42,0,0
0,54,0,0
0,38,80,12
0,42,64,0
0,54,64,0
0,76,0,37
0,42,0,11
0,42,64,12
0,74,100,0
0,42,0,6
0,38,80,12
0,38,80,0
0,42,64,0
0,38,0,24
0,54,0,0
0,38,0,24
0,38,0,0
0,42,0,0
0,43,80,12
0,43,80,0
0,36,80,0
0,42,64,0
0,54,64,0
0,42,0,48
0,74,0,3
0,42,64,9
0,43,0,36
0,43,0,0
0,54,0,0
0,42,0,12
0,43,80,12
0,43,80,0
0,42,64,0
0,54,64,0
0,36,0,24
0,43,0,24
0,43,0,0
0,42,0,0
0,54,0,0
0,38,80,12
0,42,64,0
0,54,64,0
0,42,0,48
0,42,64,12
0,74,73,0
0,42,0,13
0,33,80,12
0,33,80,0
0,42,64,0
0,67,0,24
0,62,0,0
0,59,0,0
0,59,0,0
0,62,0,0
0,67,0,0
0,38,0,0
0,54,0,0
0,74,0,12
0,33,0,12
0,33,0,0
0,42,0,0
0,76,100,0
0,64,80,5
0,71,80,0
0,66,80,0
0,59,80,0
0,66,80,0
0,74,80,0
0,64,80,0
0,35,80,0
0,35,80,0
0,36,80,0
0,42,64,0
0,54,64,0
0,42,0,48
0,42,64,12
0,35,0,36
0,35,0,0
0,36,0,0
0,42,0,12
0,76,0,7
0,35,80,5
0,35,80,0
0,36,80,0
0,42,64,0
0,54,0,24
0,35,0,24
0,35,0,0
0,36,0,0
0,42,0,0
0,76,92,0
0,38,80,2
0,42,64,0
0,54,64,0
0,42,0,48
0,42,64,12
0,76,0,20
0,54,0,16
0,74,94,0
0,42,0,11
0,42,64,12
0,54,64,0
0,38,0,24
0,66,0,18
0,71,0,0
0,64,0,0
0,64,0,0
0,59,0,0
0,66,0,0
0,74,0,0
0,42,0,6
0,54,0,0
0,62,80,12
0,71,80,0
0,66,80,0
0,69,80,0
0,66,80,0
0,73,80,0
0,62,80,0
0,35,80,0
0,35,80,0
0,36,80,0
0,42,64,0
0,54,64,0
0,42,0,48
0,74,120,0
0,74,0,6
0,42,64,3
0,74,0,21
0,35,0,15
0,35,0,0
0,74,97,0
0,42,0,5
0,35,80,12
0,35,80,0
0,42,64,0
0,36,0,24
0,54,0,0
0,35,0,24
0,35,0,0
0,42,0,0
0,38,80,12
0,42,64,0
0,54,64,0
0,74,0,26
0,42,0,22
0,45,80,12
0,45,80,0
0,42,64,0
0,38,0,36
0,54,0,0
0,45,0,12
0,45,0,0
0,42,0,0
0,47,80,12
0,47,80,0
0,36,80,0
0,42,64,0
0,54,64,0
0,66,0,42
0,71,0,0
0,62,0,0
0,62,0,0
0,69,0,0
0,66,0,0
0,73,0,0
0,47,0,6
0,47,0,0
0,36,0,0
0,42,0,0
0,54,0,0
0,62,80,12
0,69,80,0
0,66,80,0
0,66,80,0
0,69,80,0
0,62,80,0
0,35,80,0
0,35,80,0
0,36,80,0
0,42,64,0
0,78,112,0
0,42,0,47
0,42,64,12
0,78,0,5
0,35,0,31
0,35,0,0
0,36,0,0
0,42,0,12
0,78,127,0
0,35,80,5
0,35,80,0
0,36,80,0
0,42,64,0
0,54,64,0
0,35,0,48
0,35,0,0
0,36,0,0
0,42,0,0
0,54,0,0
0,38,80,12
0,42,64,0
0,54,64,0
0,42,0,48
0,78,0,7
0,42,64,5
0,42,0,48
0,81,107,0
0,42,64,8
0,38,0,24
0,54,0,0
0,66,0,18
0,69,0,0
0,62,0,0
0,62,0,0
