track,note,velocity,time
0,38,119,700
0,38,110,124
0,38,109,124
0,38,109,124
0,38,102,124
0,36,113,124
0,49,102,0
0,35,121,0
0,42,62,16
0,42,62,124
0,35,105,0
0,38,114,16
0,42,62,0
0,39,97,0
0,35,103,0
0,66,82,0
0,71,89,0
0,75,90,0
0,42,50,16
0,66,81,0
0,71,77,0
0,75,86,0
0,36,121,16
0,42,52,0
0,39,96,0
0,35,107,0
0,66,96,0
0,71,85,0
0,75,95,0
0,36,113,16
0,42,55,0
0,35,116,0
0,66,77,0
0,71,82,0
0,75,78,0
0,42,66,16
0,46,109,124
0,35,105,0
0,38,115,16
0,42,65,0
0,35,103,0
0,66,95,0
0,71,89,0
0,75,84,0
0,42,63,16
0,66,77,0
0,71,85,0
0,75,86,0
0,42,61,16
0,35,117,0
0,36,104,16
0,42,50,0
0,35,117,0
0,42,65,16
0,42,48,124
0,35,103,0
0,38,103,16
0,42,53,0
0,35,102,0
0,66,86,0
0,71,99,0
0,75,88,0
0,42,48,16
0,66,74,0
0,71,87,0
0,75,82,0
0,36,119,16
0,42,48,0
0,35,117,0
0,66,82,0
0,71,83,0
0,75,95,0
0,36,117,16
0,42,58,0
0,35,119,0
0,66,89,0
0,71,87,0
0,75,83,0
0,42,57,16
0,46,97,16
0,37,102,0
0,38,114,16
0,42,48,0
0,39,80,0
0,35,121,0
0,66,89,0
0,70,88,0
0,73,87,0
0,42,58,16
0,66,83,0
0,70,71,0
0,73,86,0
0,42,51,16
0,39,87,0
0,34,120,0
0,36,112,16
0,42,56,0
0,32,111,0
0,42,50,16
0,42,59,124
0,32,113,0
0,38,109,16
0,42,64,0
0,39,80,0
0,32,112,0
0,68,93,0
0,71,97,0
0,75,85,0
0,42,60,16
0,68,76,0
0,71,74,0
0,75,72,0
0,36,117,16
0,42,55,0
0,39,94,0
0,32,118,0
0,68,92,0
0,71,97,0
0,75,85,0
0,36,116,16
0,42,59,0
0,32,112,0
0,68,75,0
0,71,74,0
0,75,70,0
0,42,63,16
0,46,105,124
0,32,113,0
0,38,106,16
0,42,57,0
0,32,117,0
0,68,94,0
0,71,93,0
0,75,90,0
0,42,66,16
0,68,84,0
0,71,79,0
0,75,70,0
0,42,52,16
0,32,106,0
0,36,114,16
0,42,66,0
0,28,106,0
0,42,62,16
0,42,61,124
0,28,111,0
0,38,105,16
0,42,51,0
0,28,117,0
0,68,92,0
0,71,86,0
0,76,82,0
0,42,48,16
0,68,81,0
0,71,79,0
0,76,75,0
0,36,119,16
0,42,67,0
0,28,102,0
0,68,87,0
0,71,95,0
0,76,99,0
0,36,104,16
0,42,53,0
0,28,117,0
0,68,89,0
0,71,85,0
0,76,82,0
0,42,61,16
0,46,95,124
0,28,102,0
0,38,108,16
0,42,51,0
0,48,114,0
0,39,90,0
0,30,107,0
0,68,99,0
0,71,93,0
0,76,94,0
0,42,66,16
0,47,121,0
0,32,118,0
0,68,82,0
0,71,87,0
0,76,86,0
0,42,58,16
0,45,97,0
0,39,89,0
0,30,105,0
0,36,113,16
0,42,61,0
0,35,117,0
0,75,102,0
0,66,95,0
0,71,92,0
0,42,56,16
0,42,60,124
0,35,108,0
0,38,107,16
0,42,67,0
0,39,96,0
0,35,108,0
0,66,99,0
0,71,99,0
0,75,89,0
0,42,58,16
0,66,78,0
0,71,73,0
0,75,71,0
0,36,116,16
0,42,63,0
0,39,83,0
0,35,114,0
0,66,103,0
0,75,100,0
0,71,93,0
0,66,85,0
0,71,81,0
0,75,85,0
0,36,112,16
0,42,59,0
0,35,113,0
0,66,87,0
0,71,82,0
0,75,87,0
0,42,59,16
0,46,100,124
0,35,114,0
0,38,112,16
0,42,52,0
0,35,115,0
0,66,87,0
0,71,92,0
0,75,91,0
0,42,56,16
0,66,85,0
0,71,76,0
0,75,86,0
0,42,50,16
0,35,120,0
0,36,104,16
0,42,57,0
0,35,108,0
0,75,109,0
0,71,96,0
0,66,95,0
0,42,67,16
0,42,53,124
0,35,114,0
0,38,114,16
0,42,65,0
0,35,105,0
0,66,81,0
0,71,82,0
0,75,88,0
0,42,55,16
0,66,77,0
0,71,79,0
0,75,83,0
0,36,102,16
0,42,54,0
0,35,105,0
0,66,94,0
0,71,97,0
0,75,91,0
0,36,112,16
0,42,64,0
0,35,102,0
0,75,97,0
0,66,99,0
0,71,100,0
0,66,74,0
0,71,79,0
0,75,80,0
0,42,62,16
0,46,99,16
0,37,110,0
0,38,103,16
0,42,66,0
0,39,81,0
0,35,104,0
0,66,104,0
0,70,100,0
0,73,100,0
0,66,87,0
0,70,87,0
0,73,94,0
0,42,62,16
0,66,81,0
0,70,75,0
0,73,72,0
0,42,67,16
0,39,98,0
0,34,102,0
0,36,109,16
0,42,67,0
0,32,105,0
0,68,96,0
0,71,101,0
0,75,100,0
0,42,52,16
0,42,56,124
0,32,110,0
0,38,113,16
0,42,65,0
0,39,96,0
0,32,106,0
0,68,84,0
0,71,97,0
0,75,89,0
0,42,61,16
0,68,87,0
0,71,77,0
0,75,76,0
0,36,114,16
0,42,50,0
0,39,91,0
0,32,110,0
0,68,100,0
0,71,99,0
0,75,101,0
0,68,93,0
0,71,95,0
0,75,98,0
0,36,117,16
0,42,50,0
0,32,105,0
0,68,89,0
0,71,78,0
0,75,80,0
0,42,49,16
0,46,95,124
0,32,111,0
0,38,110,16
0,42,49,0
0,32,113,0
0,68,86,0
0,71,92,0
0,75,98,0
0,42,62,16
0,68,84,0
0,71,78,0
0,75,73,0
0,42,50,16
0,32,113,0
0,36,111,16
0,42,54,0
0,28,108,0
0,64,105,0
0,71,108,0
0,68,94,0
0,42,55,16
0,42,58,124
0,28,107,0
0,38,107,16
0,42,54,0
0,28,119,0
0,68,91,0
0,71,86,0
0,76,93,0
0,42,53,16
0,68,86,0
0,71,82,0
0,76,77,0
0,36,106,16
0,42,61,0
0,28,110,0
0,71,99,0
0,64,100,0
0,68,100,0
0,68,90,0
0,71,93,0
0,76,87,0
0,36,116,16
0,42,59,0
0,28,111,0
0,68,82,0
0,71,87,0
0,76,72,0
0,42,61,16
0,66,96,0
0,46,98,16
0,28,103,0
0,68,102,0
0,38,112,16
0,42,55,0
0,39,89,0
0,28,117,0
0,76,92,0
0,71,103,0
0,68,99,0
0,71,109,0
0,68,86,0
0,71,96,0
0,76,92,0
0,42,57,16
0,45,111,0
0,68,90,0
0,68,78,0
0,71,88,0
0,76,76,0
0,42,54,16
0,45,97,0
0,39,87,0
0,28,116,0
0,66,107,0
0,36,107,8
0,42,56,0
0,35,120,0
0,75,94,0
0,78,81,0
0,83,80,0
0,42,51,16
0,75,95,0
0,78,95,0
0,83,80,0
0,42,61,72
0,35,106,0
0,75,86,0
0,78,93,0
0,83,90,0
0,38,111,16
0,42,56,0
0,35,114,0
0,75,91,0
0,78,87,0
0,83,92,0
0,66,92,0
0,71,81,0
0,75,95,0
0,42,63,16
0,75,83,0
0,78,90,0
0,83,76,0
0,36,104,72
0,42,58,0
0,35,103,0
0,75,92,0
0,78,89,0
0,83,80,0
0,63,109,0
0,36,107,16
0,42,63,0
0,35,108,0
0,75,83,0
0,78,77,0
0,83,78,0
0,42,65,16
0,75,76,0
0,78,90,0
0,83,95,0
0,42,66,72
0,35,116,0
0,75,95,0
0,78,83,0
0,83,78,0
0,38,118,16
0,42,65,0
0,39,94,0
0,35,109,0
0,75,89,0
0,78,85,0
0,83,78,0
0,66,93,0
0,71,93,0
0,75,86,0
0,42,62,16
0,75,85,0
0,78,92,0
0,83,87,0
0,42,62,72
0,35,120,0
0,75,79,0
0,78,81,0
0,83,85,0
0,36,109,16
0,42,53,0
0,35,102,0
0,75,91,0
0,78,95,0
0,83,85,0
0,42,50,16
0,75,80,0
0,78,83,0
0,83,81,0
0,42,52,16
0,35,104,0
0,75,87,0
0,78,95,0
0,83,79,0
0,63,106,0
0,38,106,16
0,42,63,0
0,35,115,0
0,75,83,0
0,78,89,0
0,83,81,0
0,66,84,0
0,71,85,0
0,75,92,0
0,42,56,16
0,75,88,0
0,78,91,0
0,83,81,0
0,36,115,16
0,42,63,0
0,35,112,0
0,75,87,0
0,78,85,0
0,83,83,0
0,63,118,0
0,36,116,16
0,42,51,0
0,35,115,0
0,75,78,0
0,78,88,0
0,83,90,0
0,42,63,72
0,75,84,0
0,78,76,0
0,83,84,0
0,42,53,16
0,37,113,0
0,75,84,0
0,78,86,0
0,83,76,0
0,61,107,0
0,38,120,16
0,42,52,0
0,39,83,0
0,35,111,0
0,75,92,0
0,78,90,0
0,83,95,0
0,66,81,0
0,71,82,0
0,75,88,0
0,59,111,0
0,42,59,16
0,75,82,0
0,78,92,0
0,83,84,0
0,42,66,16
0,34,116,0
0,75,79,0
0,78,93,0
0,83,91,0
0,36,112,16
0,42,56,0
0,32,120,0
0,75,89,0
0,80,82,0
0,83,88,0
0,42,60,16
0,75,76,0
0,80,77,0
0,83,93,0
0,42,50,72
0,32,105,0
0,75,95,0
0,80,86,0
0,83,81,0
0,38,103,16
0,42,67,0
0,32,110,0
0,75,81,0
0,80,87,0
0,83,91,0
0,68,97,0
0,71,84,0
0,75,95,0
0,42,63,16
0,75,83,0
0,80,84,0
0,83,78,0
0,36,114,72
0,42,66,0
0,32,113,0
0,75,87,0
0,80,82,0
0,83,84,0
0,63,116,0
0,36,108,16
0,42,66,0
0,32,113,0
0,75,77,0
0,80,77,0
0,83,86,0
0,42,65,16
0,75,77,0
0,80,81,0
0,83,80,0
0,42,59,72
0,32,116,0
0,75,80,0
0,80,90,0
0,83,78,0
0,38,121,16
0,42,66,0
0,39,97,0
0,32,103,0
0,75,79,0
0,80,95,0
0,83,91,0
0,68,97,0
0,71,90,0
0,75,88,0
0,42,65,16
0,75,79,0
0,80,77,0
0,83,85,0
0,42,50,72
0,32,105,0
0,75,90,0
0,80,90,0
0,83,77,0
0,36,111,16
0,42,60,0
0,32,117,0
0,75,81,0
0,80,86,0
0,83,86,0
0,42,61,16
0,75,90,0
0,80,77,0
0,83,88,0
0,42,55,16
0,32,110,0
0,75,82,0
0,80,85,0
0,83,90,0
0,63,107,0
0,38,116,16
0,42,65,0
0,32,119,0
0,75,85,0
0,80,90,0
0,83,82,0
0,68,82,0
0,71,83,0
0,75,87,0
0,42,48,16
0,75,81,0
0,80,82,0
0,83,92,0
0,36,120,16
0,42,64,0
0,32,106,0
0,75,87,0
0,80,87,0
0,83,95,0
0,61,114,0
0,36,105,16
0,42,55,0
0,32,113,0
0,75,76,0
0,80,76,0
0,83,88,0
0,63,104,0
0,42,62,72
0,75,86,0
0,80,88,0
0,83,76,0
0,42,61,16
0,34,102,0
0,75,77,0
0,80,80,0
0,83,92,0
0,61,105,0
0,38,110,16
0,42,67,0
0,39,93,0
0,32,115,0
0,75,83,0
0,80,89,0
0,83,83,0
0,68,91,0
0,71,83,0
0,75,82,0
0,59,110,0
0,42,61,16
0,75,91,0
0,80,91,0
0,83,83,0
0,42,66,16
0,30,107,0
0,75,90,0
0,80,85,0
0,83,93,0
0,36,111,16
0,42,56,0
0,28,119,0
0,76,87,0
0,80,82,0
0,83,83,0
0,42,63,16
0,76,92,0
0,80,88,0
0,83,86,0
0,42,62,72
0,28,107,0
0,76,86,0
0,80,79,0
0,83,83,0
0,38,115,16
0,42,67,0
0,28,107,0
0,76,89,0
0,80,88,0
0,83,92,0
0,68,93,0
0,71,98,0
0,76,83,0
0,42,53,16
0,76,84,0
0,80,84,0
0,83,76,0
0,36,102,72
0,42,48,0
0,28,110,0
0,76,76,0
0,80,76,0
0,83,80,0
0,64,106,0
0,36,102,16
0,42,52,0
0,28,108,0
0,76,85,0
0,80,76,0
0,83,93,0
0,42,58,16
0,76,88,0
0,80,83,0
0,83,91,0
0,42,59,16
0,28,109,0
0,76,84,0
0,80,84,0
0,83,92,0
0,64,116,0
0,38,103,16
0,42,64,0
0,39,84,0
0,28,112,0
0,76,91,0
0,80,78,0
0,83,91,0
0,68,81,0
0,71,88,0
0,76,96,0
0,42,61,16
0,76,87,0
0,80,77,0
0,83,80,0
0,42,67,16
0,28,111,0
0,76,92,0
0,80,94,0
0,83,86,0
0,64,121,0
0,36,102,16
0,42,63,0
0,28,112,0
0,76,95,0
0,80,85,0
0,83,80,0
0,42,48,16
0,76,79,0
0,80,82,0
0,83,95,0
0,42,56,16
0,28,102,0
0,76,90,0
0,80,90,0
0,83,78,0
0,64,115,0
0,38,110,16
0,42,66,0
0,28,110,0
0,76,94,0
0,80,88,0
0,83,95,0
0,68,85,0
0,71,95,0
0,76,95,0
0,42,58,16
0,76,94,0
0,80,84,0
0,83,90,0
0,36,116,16
0,42,67,0
0,28,104,0
0,76,93,0
0,80,94,0
0,83,82,0
0,64,112,0
0,36,111,16
0,42,65,0
0,28,120,0
0,76,88,0
0,80,81,0
0,83,79,0
0,42,57,72
0,76,89,0
0,80,89,0
0,83,91,0
0,42,59,16
0,30,108,0
0,76,81,0
0,80,76,0
0,83,79,0
0,63,119,0
0,38,104,16
0,42,64,0
0,39,96,0
0,28,112,0
0,76,92,0
0,80,91,0
0,83,82,0
0,68,93,0
0,71,97,0
0,76,88,0
0,61,102,0
0,42,50,16
0,76,94,0
0,80,82,0
0,83,93,0
0,42,66,16
0,29,108,0
0,76,88,0
0,80,80,0
0,83,91,0
0,36,112,16
0,42,51,0
0,30,106,0
0,73,95,0
0,78,89,0
0,82,89,0
0,42,52,16
0,73,78,0
0,78,87,0
0,82,79,0
0,42,67,72
0,30,108,0
0,73,81,0
0,78,93,0
0,82,94,0
0,38,112,16
0,42,63,0
0,28,112,0
0,73,81,0
0,78,95,0
0,82,87,0
0,70,92,0
0,73,83,0
0,78,81,0
0,68,101,0
0,71,116,0
0,75,108,0
0,68,120,0
0,42,52,16
0,73,91,0
0,78,91,0
0,82,77,0
0,36,120,16
0,42,59,0
0,29,104,0
0,73,83,0
0,78,79,0
0,82,84,0
0,36,116,16
0,42,50,0
0,30,114,0
0,73,81,0
0,78,77,0
0,82,85,0
0,66,119,0
0,70,109,0
0,73,119,0
0,66,102,0
0,42,53,16
0,73,92,0
0,78,78,0
0,82,90,0
0,42,54,72
0,30,111,0
0,73,76,0
0,78,81,0
0,82,82,0
0,38,104,16
0,42,62,0
0,39,85,0
0,28,108,0
0,73,87,0
0,78,78,0
0,82,86,0
0,70,96,0
0,73,91,0
0,78,94,0
0,63,109,0
0,66,117,0
0,70,110,0
0,63,112,0
0,42,55,16
0,73,91,0
0,78,88,0
0,82,77,0
0,42,49,16
0,29,115,0
0,73,80,0
0,78,80,0
0,82,89,0
0,36,114,16
0,42,66,0
0,30,105,0
0,73,87,0
0,78,92,0
0,82,94,0
0,68,115,0
0,71,109,0
0,75,102,0
0,68,105,0
0,42,48,16
0,73,91,0
0,78,82,0
0,82,82,0
0,42,57,72
0,30,115,0
0,73,95,0
0,78,85,0
0,82,90,0
0,38,116,16
0,42,54,0
0,30,105,0
0,73,93,0
0,78,79,0
0,82,87,0
0,70,94,0
0,73,88,0
0,78,81,0
0,68,103,0
0,71,100,0
0,75,104,0
0,68,113,0
0,42,59,16
0,73,81,0
0,78,91,0
0,82,87,0
0,36,107,72
0,42,64,0
0,30,110,0
0,73,86,0
0,78,85,0
0,82,78,0
0,36,115,16
0,42,51,0
0,32,105,0
0,73,79,0
0,78,84,0
0,82,87,0
0,66,116,0
0,70,116,0
0,73,113,0
0,66,111,0
0,42,48,16
0,73,77,0
0,78,92,0
0,82,82,0
0,66,108,0
0,42,48,16
0,32,103,0
0,73,86,0
0,78,91,0
0,82,93,0
0,68,100,0
0,38,110,16
0,42,53,0
0,39,82,0
0,34,102,0
0,73,86,0
0,78,88,0
0,82,86,0
0,71,93,0
0,70,86,0
0,73,96,0
0,78,81,0
0,42,50,16
0,73,89,0
0,78,87,0
0,82,92,0
0,68,90,0
0,42,59,16
0,34,113,0
0,73,77,0
0,78,78,0
0,82,83,0
0,66,91,0
0,36,116,16
0,42,67,0
0,35,103,0
