track,note,velocity,time
0,63,80,0
0,67,80,0
0,70,80,0
0,60,80,0
0,63,82,0
0,58,82,0
0,60,82,0
0,55,82,0
0,63,1,0
0,60,0,355
0,63,0,0
0,67,0,0
0,70,0,0
0,63,0,0
0,63,80,5
0,67,80,0
0,70,80,0
0,60,80,0
0,55,0,0
0,63,0,0
0,58,0,0
0,60,0,0
0,63,82,0
0,58,82,0
0,60,82,0
0,55,82,0
0,63,1,0
0,60,0,100
0,63,0,0
0,67,0,0
0,70,0,0
0,55,0,15
0,63,0,0
0,58,0,0
0,60,0,0
0,63,0,0
0,72,80,5
0,65,80,0
0,69,80,0
0,74,80,0
0,62,82,0
0,57,82,0
0,60,82,0
0,65,82,0
0,62,1,0
0,65,0,200
0,62,0,0
0,57,0,0
0,60,0,0
0,74,0,25
0,72,0,0
0,65,0,0
0,69,0,0
0,62,0,10
0,74,80,5
0,65,80,0
0,69,80,0
0,72,80,0
0,57,82,0
0,60,82,0
0,62,82,0
0,65,82,0
0,62,1,0
0,65,0,18
0,57,0,0
0,60,0,0
0,62,0,0
0,72,0,25
0,74,0,0
0,65,0,0
0,69,0,0
0,62,0,10
0,74,127,5
0,73,94,0
0,67,80,0
0,62,80,0
0,71,80,0
0,55,82,0
0,50,82,0
0,59,82,0
0,62,82,0
0,59,1,0
0,73,0,3
0,74,0,24
0,72,111,6
0,72,0,48
0,70,119,3
0,70,0,45
0,74,127,15
0,74,0,29
0,72,105,11
0,72,0,52
0,70,119,7
0,70,0,40
0,71,0,15
0,62,0,0
0,67,0,0
0,62,0,0
0,55,0,0
0,50,0,0
0,59,0,0
0,59,0,0
0,74,127,5
0,67,80,0
0,65,80,0
0,62,80,0
0,71,80,0
0,55,82,0
0,53,82,0
0,59,82,0
0,62,82,0
0,57,1,0
0,74,0,25
0,72,111,9
0,72,0,40
0,70,115,4
0,71,0,45
0,67,0,0
0,65,0,0
0,62,0,0
0,70,0,2
0,62,0,3
0,55,0,0
0,53,0,0
0,59,0,0
0,57,0,5
0,74,127,5
0,72,115,0
0,62,80,0
0,65,80,0
0,67,80,0
0,59,80,0
0,71,80,0
0,55,82,0
0,59,82,0
0,62,82,0
0,55,1,0
0,72,0,17
0,74,0,68
0,72,121,0
0,62,0,85
0,71,0,10
0,67,0,0
0,62,0,0
0,65,0,0
0,59,0,0
0,59,0,15
0,55,0,0
0,55,0,5
0,63,100,5
0,55,100,0
0,58,100,0
0,60,100,0
0,63,80,0
0,67,80,0
0,70,80,0
0,60,80,0
0,58,82,0
0,60,82,0
0,63,82,0
0,55,82,0
0,63,1,0
0,60,0,350
0,63,0,0
0,55,0,0
0,58,0,0
0,60,0,5
0,63,0,0
0,67,0,0
0,70,0,0
0,55,0,0
0,58,0,0
0,60,0,0
0,63,0,0
0,63,0,0
0,63,100,5
0,55,100,0
0,58,100,0
0,60,100,0
0,63,80,0
0,67,80,0
0,70,80,0
0,60,80,0
0,63,82,0
0,55,82,0
0,58,82,0
0,60,82,0
0,63,1,0
0,60,0,80
0,63,0,0
0,55,0,0
0,58,0,0
0,60,0,20
0,63,0,0
0,67,0,0
0,70,0,0
0,72,0,2
0,60,0,13
0,63,0,0
0,55,0,0
0,58,0,0
0,63,0,0
0,57,100,5
0,60,100,0
0,62,100,0
0,65,100,0
0,72,80,0
0,65,80,0
0,69,80,0
0,74,80,0
0,62,82,0
0,57,82,0
0,60,82,0
0,65,82,0
0,62,1,0
0,74,0,225
0,72,0,0
0,65,0,0
0,69,0,0
0,65,0,5
0,62,0,0
0,57,0,0
0,60,0,0
0,65,0,5
0,57,0,0
0,60,0,0
0,62,0,0
0,62,0,0
0,62,100,5
0,57,100,0
0,60,100,0
0,65,100,0
0,74,80,0
0,65,80,0
0,69,80,0
0,72,80,0
0,62,82,0
0,57,82,0
0,60,82,0
0,65,82,0
0,62,1,0
0,65,0,46
0,62,0,0
0,57,0,0
0,60,0,0
0,72,0,0
0,74,0,0
0,65,0,0
0,69,0,0
0,65,0,5
0,62,0,0
0,57,0,0
0,60,0,0
0,62,0,5
0,74,127,5
0,55,100,0
0,59,100,0
0,62,100,0
0,67,80,0
0,62,80,0
0,71,80,0
0,55,82,0
0,50,82,0
0,59,82,0
0,62,82,0
0,59,1,0
0,74,0,18
0,72,127,7
0,72,0,3
0,70,127,4
0,70,0,37
0,74,127,23
0,74,0,15
0,72,127,15
0,72,0,47
0,70,127,8
0,70,0,36
0,62,0,19
0,59,0,0
0,55,0,0
0,71,0,0
0,62,0,0
0,67,0,0
0,62,0,0
0,55,0,0
0,50,0,0
0,59,0,0
0,59,0,0
0,74,127,5
0,59,100,0
0,55,100,0
0,62,100,0
0,50,100,0
0,67,80,0
0,65,80,0
0,62,80,0
0,71,80,0
0,55,82,0
0,53,82,0
0,59,82,0
0,62,82,0
0,60,1,0
0,74,0,21
0,72,127,6
0,72,0,50
0,70,125,10
0,70,0,21
0,71,0,23
0,67,0,0
0,65,0,0
0,62,0,0
0,62,0,5
0,55,0,0
0,53,0,0
0,59,0,0
0,60,0,5
0,74,127,5
0,62,80,0
0,65,80,0
0,67,80,0
0,59,80,0
0,71,80,0
0,55,82,0
0,59,82,0
0,50,82,0
0,62,82,0
0,62,1,0
0,50,0,43
0,59,0,0
0,55,0,0
0,62,0,0
0,74,0,13
0,72,127,7
0,55,100,0
0,62,100,0
0,53,100,0
0,59,100,0
0,59,0,90
0,55,0,0
0,62,0,0
0,53,0,0
0,71,0,5
0,67,0,0
0,62,0,0
0,65,0,0
0,59,0,0
0,62,0,15
0,55,0,0
0,59,0,0
0,50,0,0
0,62,0,5
0,60,100,5
0,58,100,0
0,63,100,0
0,55,100,0
0,87,80,0
0,60,88,0
0,55,88,0
0,58,88,0
0,63,88,0
0,63,127,0
0,74,127,0
0,54,58,0
0,36,115,0
0,42,115,0
0,42,0,3
0,36,0,0
0,54,0,0
0,54,67,27
0,42,77,0
0,42,0,3
0,54,0,0
0,74,0,17
0,75,127,10
0,62,114,0
0,54,95,0
0,46,91,0
0,46,0,3
0,54,0,0
0,62,0,0
0,54,63,27
0,54,0,3
0,75,0,17
0,74,127,10
0,54,53,0
0,36,115,0
0,42,115,0
0,42,0,3
0,36,0,0
0,54,0,0
0,54,70,27
0,42,79,0
0,42,0,3
0,54,0,0
0,74,0,17
0,72,127,10
0,63,106,0
0,54,95,0
0,46,91,0
0,46,0,3
0,54,0,0
0,63,0,0
0,64,106,27
0,54,70,0
0,54,0,3
0,64,0,0
0,72,0,17
0,74,127,10
0,54,58,0
0,36,115,0
0,42,115,0
0,42,0,3
0,36,0,0
0,54,0,0
0,54,70,27
0,42,75,0
0,42,0,3
0,54,0,0
0,55,0,17
0,60,0,0
0,58,0,0
0,63,0,0
0,74,0,0
0,62,118,10
0,54,95,0
0,46,91,0
0,46,0,3
0,54,0,0
0,62,0,0
0,54,74,27
0,54,0,3
0,63,0,17
0,70,127,10
0,54,58,0
0,36,115,0
0,42,115,0
0,42,0,3
0,36,0,0
0,54,0,0
0,54,74,27
0,42,77,0
0,42,0,3
0,54,0,0
0,72,0,15
0,70,0,2
0,63,86,10
0,54,95,0
0,46,91,0
0,46,0,3
0,54,0,0
0,63,0,0
0,64,94,27
0,54,67,0
0,54,0,3
0,64,0,0
0,87,0,22
0,63,0,0
0,60,0,0
0,55,0,0
0,58,0,0
0,62,100,5
0,60,100,0
0,57,100,0
0,65,100,0
0,86,80,0
0,62,88,0
0,57,88,0
0,60,88,0
0,65,88,0
0,65,127,0
0,69,127,0
0,54,58,0
0,36,115,0
0,42,115,0
0,42,0,3
0,36,0,0
0,54,0,0
0,54,67,27
0,42,72,0
0,42,0,3
0,54,0,0
0,69,0,17
0,62,118,10
0,54,95,0
0,46,91,0
0,46,0,3
0,54,0,0
0,62,0,0
0,54,63,27
0,54,0,3
0,70,127,27
0,54,53,0
0,36,115,0
0,42,115,0
0,42,0,3
0,36,0,0
0,54,0,0
0,54,70,27
0,42,75,0
0,42,0,3
0,54,0,0
0,70,0,17
0,63,86,10
0,54,95,0
0,46,91,0
0,46,0,3
0,54,0,0
0,63,0,0
0,64,98,27
0,54,70,0
0,54,0,3
0,64,0,0
0,72,127,27
0,54,58,0
0,36,115,0
0,42,115,0
0,42,0,3
0,36,0,0
0,54,0,0
0,54,70,27
0,42,70,0
0,42,0,3
0,54,0,0
0,65,0,17
0,62,0,0
0,60,0,0
0,57,0,0
0,62,122,10
0,54,95,0
0,46,91,0
0,46,0,3
0,54,0,0
0,62,0,0
0,54,74,27
0,54,0,3
0,65,0,2
0,62,0,0
0,57,0,0
0,60,0,0
0,65,0,15
0,62,100,10
0,65,100,0
0,57,100,0
0,60,100,0
0,57,88,0
0,60,88,0
0,62,88,0
0,65,88,0
0,54,58,0
0,36,115,0
0,42,115,0
0,42,0,3
0,36,0,0
0,54,0,0
0,54,74,27
0,42,74,0
0,42,0,3
0,54,0,0
0,63,94,27
0,54,95,0
0,46,91,0
0,46,0,3
0,54,0,0
0,63,0,0
0,60,0,12
0,62,0,0
0,65,0,0
0,57,0,0
0,65,0,0
0,57,0,0
0,60,0,0
0,62,0,0
0,64,106,15
0,54,67,0
0,54,0,3
0,64,0,0
0,72,0,17
0,86,0,5
0,59,100,5
0,62,100,0
0,50,100,0
0,55,100,0
0,83,80,0
0,55,88,0
0,62,88,0
0,59,88,0
0,62,127,0
0,74,127,0
0,54,58,0
0,36,115,0
0,42,115,0
0,42,0,3
0,36,0,0
0,54,0,0
0,54,67,27
0,42,75,0
0,42,0,3
0,54,0,0
0,74,0,17
0,75,127,10
0,62,122,0
0,54,95,0
0,46,91,0
0,46,0,3
0,54,0,0
0,62,0,0
0,54,63,27
0,54,0,3
0,75,0,17
0,74,127,10
0,54,53,0
0,36,115,0
0,42,115,0
0,42,0,3
0,36,0,0
0,54,0,0
0,54,70,27
0,42,75,0
0,42,0,3
0,54,0,0
0,74,0,17
0,72,127,10
0,63,86,0
0,54,95,0
0,46,91,0
0,46,0,3
0,54,0,0
0,63,0,0
0,64,65,27
0,54,70,0
0,54,0,3
0,64,0,0
0,72,0,17
0,74,127,10
0,54,58,0
0,36,115,0
0,42,115,0
0,42,0,3
0,36,0,0
0,54,0,0
0,54,70,27
0,42,70,0
0,42,0,3
0,54,0,0
0,55,0,17
0,59,0,0
0,62,0,0
0,50,0,0
0,62,122,10
0,54,95,0
0,46,91,0
0,46,0,3
0,54,0,0
0,62,0,0
0,74,0,17
0,54,74,10
0,54,0,3
0,62,0,17
0,55,100,10
0,59,100,0
0,62,100,0
0,50,100,0
0,71,127,0
0,54,58,0
0,36,115,0
0,42,115,0
0,42,0,3
0,36,0,0
0,54,0,0
0,54,74,27
0,42,77,0
0,42,0,3
0,54,0,0
0,63,94,27
0,54,95,0
0,46,91,0
0,46,0,3
0,54,0,0
0,63,0,0
0,71,0,17
0,50,0,10
0,55,0,0
0,59,0,0
0,62,0,0
0,64,102,0
0,54,67,0
0,54,0,3
0,64,0,0
0,83,0,22
0,59,0,0
0,62,0,0
0,55,0,0
0,62,100,5
0,53,100,0
0,55,100,0
0,59,100,0
0,81,80,0
0,59,88,0
0,62,88,0
0,53,88,0
0,55,88,0
0,59,117,0
0,69,127,0
0,54,58,0
0,36,115,0
0,42,115,0
0,42,0,3
0,36,0,0
0,54,0,0
0,54,67,27
0,42,77,0
0,42,0,3
0,54,0,0
0,62,122,27
0,54,95,0
0,46,91,0
0,46,0,3
0,54,0,0
0,62,0,0
0,69,0,17
0,54,63,10
0,54,0,3
0,67,127,27
0,54,53,0
0,36,115,0
0,42,115,0
0,42,0,3
0,36,0,0
0,54,0,0
0,54,70,27
0,42,74,0
0,42,0,3
0,54,0,0
0,59,0,17
0,63,94,10
0,54,95,0
0,46,91,0
0,46,0,3
0,54,0,0
0,63,0,0
0,59,0,17
0,62,0,0
0,53,0,0
0,55,0,0
0,67,0,0
0,64,98,10
0,54,70,0
0,54,0,3
0,64,0,0
0,81,0,22
0,62,100,5
0,55,100,0
0,59,100,0
0,53,100,0
0,79,80,0
0,60,95,0
0,69,127,0
0,54,58,0
0,36,115,0
0,42,115,0
0,42,0,3
0,36,0,0
0,54,0,0
0,54,70,27
0,42,75,0
0,42,0,3
0,54,0,0
0,62,122,27
0,54,95,0
0,46,91,0
0,40,115,0
0,40,0,3
0,62,0,0
0,54,0,0
0,46,0,0
0,60,0,7
0,69,0,10
0,54,74,10
0,54,0,3
0,55,0,2
0,59,0,0
0,62,0,0
0,53,0,0
0,59,88,25
0,62,88,0
0,53,88,0
0,55,88,0
0,62,95,0
0,70,127,0
0,54,58,0
0,36,115,0
0,42,115,0
0,40,115,0
0,40,0,3
0,54,0,0
0,36,0,0
0,42,0,0
0,54,74,27
0,42,80,0
0,42,0,3
0,54,0,0
0,63,94,27
0,54,95,0
0,46,91,0
0,40,115,0
0,40,0,3
0,63,0,0
0,54,0,0
0,46,0,0
0,62,0,7
0,55,0,5
0,59,0,0
0,62,0,0
0,53,0,0
0,53,0,5
0,62,0,0
0,55,0,0
0,59,0,0
0,70,0,0
0,64,92,10
0,54,67,0
0,54,0,3
0,64,0,0
0,79,0,22
0,60,100,5
0,58,100,0
0,63,100,0
0,55,100,0
0,87,80,0
0,60,88,0
0,55,88,0
0,58,88,0
0,63,88,0
0,63,127,0
0,72,127,0
0,54,58,0
0,36,115,0
0,42,115,0
0,42,0,3
0,36,0,0
0,54,0,0
0,54,67,27
0,42,77,0
0,42,0,3
0,54,0,0
0,72,0,2
0,74,127,25
0,62,114,0
0,54,95,0
0,46,91,0
0,46,0,3
0,54,0,0
0,62,0,0
0,54,63,27
0,54,0,3
0,74,0,2
0,75,127,25
0,54,53,0
0,36,115,0
0,42,115,0
0,40,115,0
0,40,0,3
0,54,0,0
0,36,0,0
0,42,0,0
0,54,70,27
0,42,79,0
0,42,0,3
0,54,0,0
0,75,0,2
0,63,106,25
0,54,95,0
0,46,91,0
0,46,0,3
0,54,0,0
0,63,0,0
0,64,106,27
0,54,70,0
0,40,92,0
0,40,0,3
0,54,0,0
0,64,0,0
0,54,58,27
0,36,115,0
0,42,115,0
0,42,0,3
0,36,0,0
0,54,0,0
0,54,70,27
0,42,75,0
0,42,0,3
0,54,0,0
0,55,0,17
0,60,0,0
0,58,0,0
0,63,0,0
0,62,118,10
0,54,95,0
0,46,91,0
0,46,0,3
0,54,0,0
0,62,0,0
0,54,74,27
0,54,0,3
0,74,127,27
0,54,58,0
0,36,115,0
0,42,115,0
0,40,115,0
0,40,0,3
0,54,0,0
0,36,0,0
0,42,0,0
0,54,74,27
0,42,77,0
0,42,0,3
0,54,0,0
0,74,0,2
0,75,127,25
0,63,86,0
0,54,95,0
0,46,91,0
0,46,0,3
0,54,0,0
0,63,0,0
0,64,94,27
0,54,67,0
0,54,0,3
0,64,0,0
0,75,0,2
0,87,0,20
0,63,0,0
0,60,0,0
0,55,0,0
0,58,0,0
0,63,0,0
0,62,100,5
0,60,100,0
0,57,100,0
0,65,100,0
0,89,80,0
0,62,88,0
0,57,88,0
0,60,88,0
0,65,88,0
0,62,127,0
0,77,127,0
0,54,58,0
0,36,115,0
0,42,115,0
0,42,0,3
0,36,0,0
0,54,0,0
0,54,67,27
0,42,72,0
0,42,0,3
0,54,0,0
0,77,0,2
0,62,118,25
0,54,95,0
0,46,91,0
0,46,0,3
0,54,0,0
0,62,0,0
0,54,63,27
0,54,0,3
0,54,53,27
0,36,115,0
0,42,115,0
0,40,115,0
0,40,0,3
0,54,0,0
0,36,0,0
0,42,0,0
0,54,70,27
0,42,75,0
0,42,0,3
0,54,0,0
0,75,127,27
0,63,86,0
0,54,95,0
0,46,91,0
0,46,0,3
0,54,0,0
0,63,0,0
0,64,98,27
0,54,70,0
0,40,99,0
0,40,0,3
0,54,0,0
0,64,0,0
0,75,0,2
0,77,127,25
0,54,58,0
0,36,115,0
0,42,115,0
0,42,0,3
0,36,0,0
0,54,0,0
0,54,70,27
