track,note,velocity,time
0,82,95,0
0,79,95,0
0,75,95,0
0,63,95,0
0,55,95,0
0,55,0,72
0,75,0,0
0,82,0,0
0,79,0,0
0,63,0,0
0,62,95,24
0,77,95,0
0,74,95,0
0,53,95,0
0,82,95,0
0,62,0,157
0,82,0,16
0,53,0,1
0,74,0,3
0,77,0,4
0,82,95,11
0,79,95,0
0,63,95,0
0,55,95,0
0,75,95,0
0,63,0,76
0,75,0,4
0,79,0,0
0,55,0,8
0,82,0,4
0,72,95,4
0,79,95,0
0,56,95,0
0,75,95,0
0,63,95,0
0,75,0,61
0,79,0,1
0,72,0,0
0,56,0,2
0,63,0,0
0,72,0,0
0,72,0,0
0,72,0,0
0,72,0,0
0,72,0,0
0,72,0,0
0,72,0,0
0,72,0,24
0,63,95,192
0,55,95,0
0,82,95,0
0,75,95,0
0,79,95,0
0,79,0,72
0,82,0,0
0,63,0,0
0,55,0,0
0,75,0,0
0,62,95,24
0,53,95,0
0,82,95,0
0,77,95,0
0,74,95,0
0,62,0,155
0,82,0,9
0,74,0,10
0,77,0,0
0,53,0,6
0,75,95,12
0,82,95,0
0,79,95,0
0,55,95,0
0,63,95,0
0,63,0,71
0,75,0,7
0,55,0,1
0,79,0,0
0,82,0,3
0,79,95,14
0,72,95,0
0,75,95,0
0,63,95,0
0,56,95,0
0,72,0,0
0,63,0,9
0,72,0,1
0,75,0,1
0,79,0,1
0,56,0,1
0,72,0,0
0,72,0,0
0,72,0,24
0,75,95,288
0,55,95,0
0,79,95,0
0,82,95,0
0,63,95,0
0,68,87,0
0,68,0,4
0,70,32,20
0,70,0,4
0,67,83,20
0,67,0,4
0,63,0,20
0,79,0,0
0,75,0,0
0,55,0,0
0,82,0,0
0,70,21,0
0,70,0,4
0,82,95,20
0,53,95,0
0,62,95,0
0,74,95,0
0,77,95,0
0,67,81,0
0,67,0,4
0,67,91,20
0,70,19,0
0,70,0,4
0,67,0,0
0,70,44,44
0,70,0,4
0,68,99,20
0,68,0,4
0,70,46,20
0,70,0,4
0,68,99,20
0,68,0,4
0,62,0,9
0,68,95,11
0,68,0,4
0,82,0,1
0,53,0,1
0,74,0,3
0,77,0,4
0,63,95,11
0,82,95,0
0,79,95,0
0,55,95,0
0,75,95,0
0,68,83,0
0,68,0,4
0,67,81,20
0,70,46,0
0,70,0,4
0,67,0,0
0,67,73,20
0,67,0,4
0,70,48,20
0,63,0,4
0,70,0,0
0,75,0,4
0,79,0,0
0,55,0,8
0,82,0,4
0,63,95,4
0,75,95,0
0,72,95,0
0,56,95,0
0,79,95,0
0,68,99,0
0,68,0,4
0,70,40,20
0,70,0,4
0,67,81,20
0,67,0,4
0,75,0,9
0,79,0,1
0,72,0,0
0,63,0,2
0,56,0,0
0,70,46,8
0,70,0,4
0,67,83,20
0,67,0,4
0,67,77,20
0,70,48,0
0,70,0,4
0,67,0,0
0,72,0,0
0,72,0,0
0,72,0,0
0,70,62,0
0,70,0,4
0,72,0,20
0,68,99,0
0,68,0,4
0,70,58,20
0,70,0,4
0,68,91,20
0,68,0,4
0,68,99,20
0,68,0,4
0,68,99,20
0,68,0,4
0,67,107,20
0,70,40,0
0,70,0,4
0,67,0,0
0,67,75,20
0,67,0,4
0,70,56,20
0,70,0,4
0,63,95,20
0,82,95,0
0,55,95,0
0,75,95,0
0,79,95,0
0,68,99,0
0,68,0,4
0,70,50,20
0,70,0,4
0,67,103,20
0,67,0,4
0,79,0,20
0,55,0,0
0,63,0,0
0,82,0,0
0,75,0,0
0,70,52,0
0,70,0,4
0,53,95,20
0,82,95,0
0,77,95,0
0,74,95,0
0,62,95,0
0,67,79,0
0,67,0,4
0,67,79,20
0,70,34,0
0,70,0,4
0,67,0,0
0,70,62,44
0,70,0,4
0,68,87,20
0,68,0,4
0,70,58,20
0,70,0,4
0,68,87,20
0,68,0,4
0,62,0,7
0,82,0,9
0,68,55,4
0,68,0,4
0,74,0,2
0,77,0,0
0,53,0,6
0,63,95,12
0,79,95,0
0,75,95,0
0,82,95,0
0,55,95,0
0,68,77,0
0,68,0,4
0,70,50,20
0,67,107,0
0,67,0,4
0,70,0,0
0,67,79,20
0,67,0,4
0,63,0,19
0,70,56,1
0,70,0,4
0,75,0,2
0,55,0,1
0,79,0,0
0,82,0,3
0,79,95,14
0,72,95,0
0,63,95,0
0,56,95,0
0,75,95,0
0,84,88,0
0,72,76,0
0,68,95,0
0,68,0,4
0,70,46,20
0,70,0,4
0,72,0,20
0,84,0,0
0,67,83,0
0,67,0,4
0,63,0,5
0,72,0,1
0,75,0,1
0,79,0,1
0,56,0,1
0,70,50,11
0,70,0,4
0,72,0,0
0,75,66,0
0,87,92,0
0,67,99,0
0,67,0,4
0,72,0,0
0,72,0,0
0,67,83,0
0,70,54,0
0,70,0,4
0,67,0,0
0,72,0,20
0,87,0,0
0,75,0,0
0,70,56,24
0,70,0,4
0,77,80,20
0,89,80,0
0,68,99,0
0,68,0,4
0,70,62,20
0,70,0,4
0,89,0,20
0,77,0,0
0,68,99,0
0,38,100,0
0,38,0,4
0,68,0,0
0,68,81,20
0,68,0,4
0,91,66,20
0,79,66,0
0,38,100,0
0,68,81,0
0,68,0,4
0,38,0,0
0,67,99,20
0,70,54,0
0,70,0,4
0,67,0,0
0,79,0,20
0,91,0,0
0,38,100,0
0,67,73,0
0,67,0,4
0,38,0,0
0,84,76,20
0,72,80,0
0,70,66,0
0,70,0,4
0,36,80,0
0,55,95,0
0,63,95,0
0,82,95,0
0,79,95,0
0,75,95,0
0,36,75,0
0,68,62,0
0,42,75,0
0,42,0,4
0,68,0,0
0,36,0,0
0,36,0,8
0,72,0,12
0,84,0,0
0,70,32,0
0,70,0,4
0,36,80,20
0,42,75,0
0,67,58,0
0,67,0,4
0,42,0,0
0,36,0,8
0,75,0,12
0,82,0,0
0,55,0,0
0,63,0,0
0,79,0,0
0,42,64,0
0,70,21,0
0,70,0,4
0,42,0,0
0,79,108,0
0,36,80,0
0,62,95,0
0,74,95,0
0,53,95,0
0,77,95,0
0,82,95,0
0,67,56,0
0,38,100,0
0,42,75,0
0,42,0,4
0,38,0,0
0,67,0,0
0,36,0,8
0,36,80,12
0,70,19,0
0,67,66,0
0,67,0,4
0,70,0,0
0,36,0,8
0,42,75,12
0,79,0,2
0,42,0,2
0,36,80,20
0,70,44,0
0,42,64,0
0,42,0,4
0,70,0,0
0,36,0,8
0,72,122,0
0,36,80,0
0,42,75,0
0,36,75,0
0,68,74,0
0,68,0,4
0,36,0,0
0,42,0,0
0,36,0,8
0,72,0,5
0,70,46,7
0,70,0,4
0,75,112,0
0,36,80,0
0,68,74,0
0,42,75,0
0,42,0,4
0,68,0,0
0,36,0,8
0,62,0,1
0,42,61,11
0,68,70,0
0,68,0,4
0,42,0,0
0,82,0,1
0,53,0,1
0,74,0,3
0,77,0,4
0,75,0,7
0,72,112,0
0,36,80,0
0,75,95,0
0,63,95,0
0,82,95,0
0,55,95,0
0,79,95,0
0,68,58,0
0,42,75,0
0,38,100,0
0,38,0,4
0,42,0,0
0,68,0,0
0,36,0,8
0,38,80,12
0,67,56,0
0,70,46,0
0,42,64,0
0,42,0,4
0,70,0,0
0,67,0,0
0,38,0,8
0,72,0,4
0,79,108,0
0,39,80,0
0,67,48,0
0,42,75,0
0,42,0,4
0,67,0,0
0,39,0,8
0,70,48,12
0,42,66,0
0,63,0,4
0,42,0,0
0,70,0,0
0,75,0,4
0,79,0,0
0,55,0,8
0,82,0,4
0,32,80,4
0,72,95,0
0,75,95,0
0,79,95,0
0,56,95,0
0,63,95,0
0,36,75,0
0,42,75,0
0,68,74,0
0,68,0,4
0,42,0,0
0,36,0,0
0,32,0,8
0,70,40,12
0,70,0,4
0,32,80,20
0,67,56,0
0,42,75,0
0,42,0,4
0,67,0,0
0,32,0,8
0,75,0,1
0,72,0,1
0,79,0,0
0,56,0,2
0,63,0,0
0,42,64,8
0,70,46,0
0,70,0,4
0,42,0,0
0,79,0,1
0,72,122,0
0,32,80,0
0,38,100,0
0,67,58,0
0,42,75,0
0,42,0,4
0,67,0,0
0,38,0,0
0,32,0,8
0,67,52,12
0,70,48,0
0,70,0,4
0,67,0,0
0,72,0,16
0,32,80,4
0,42,75,0
0,42,0,4
0,32,0,8
0,70,62,12
0,42,64,0
0,42,0,4
0,70,0,0
0,72,117,0
0,29,80,0
0,68,74,0
0,42,75,0
0,36,75,0
0,36,0,4
0,42,0,0
0,68,0,0
0,29,0,8
0,41,80,12
0,70,58,0
0,70,0,4
0,41,0,8
0,72,0,6
0,75,112,0
0,30,80,0
0,68,66,0
0,42,75,0
0,42,0,4
0,68,0,0
0,30,0,8
0,42,80,12
0,42,61,0
0,68,74,0
0,68,0,4
0,42,0,0
0,42,0,8
0,75,0,10
0,72,112,0
0,31,80,0
0,68,74,0
0,38,100,0
0,42,75,0
0,42,0,4
0,38,0,0
0,68,0,0
0,31,0,8
0,43,80,12
0,67,82,0
0,70,40,0
0,42,64,0
0,42,0,4
0,70,0,0
0,67,0,0
0,43,0,8
0,72,0,1
0,79,108,0
0,39,80,0
0,42,75,0
0,67,50,0
0,67,0,4
0,42,0,0
0,39,0,8
0,42,66,12
0,70,56,0
0,70,0,4
0,42,0,0
0,36,80,20
0,55,95,0
0,82,95,0
0,75,95,0
0,63,95,0
0,79,95,0
0,36,75,0
0,42,75,0
0,68,74,0
0,68,0,4
0,42,0,0
0,36,0,0
0,36,0,8
0,70,50,12
0,70,0,4
0,36,80,20
0,67,78,0
0,42,75,0
0,42,0,4
0,67,0,0
0,36,0,8
0,79,0,12
0,75,0,0
0,55,0,0
0,82,0,0
0,63,0,0
0,70,52,0
0,42,64,0
0,42,0,4
0,70,0,0
0,79,0,10
0,72,117,0
0,36,80,0
0,77,95,0
0,53,95,0
0,62,95,0
0,74,95,0
0,82,95,0
0,38,100,0
0,42,75,0
0,67,54,0
0,67,0,4
0,42,0,0
0,38,0,0
0,36,0,8
0,36,80,12
0,70,34,0
0,67,54,0
0,67,0,4
0,70,0,0
0,36,0,8
0,72,0,12
0,42,75,0
0,42,0,4
0,36,80,20
0,42,64,0
0,70,62,0
0,70,0,4
0,42,0,0
0,36,0,8
0,72,122,0
0,36,80,0
0,36,75,0
0,68,62,0
0,42,75,0
0,42,0,4
0,68,0,0
0,36,0,0
0,36,0,8
0,36,80,12
0,70,58,0
0,70,0,4
0,36,0,8
0,82,108,0
0,36,80,0
0,42,75,0
0,68,62,0
0,72,0,4
0,68,0,0
0,42,0,0
0,62,0,7
0,36,0,1
0,82,0,8
0,36,80,4
0,68,30,0
0,42,61,0
0,42,0,4
0,68,0,0
0,74,0,2
0,77,0,0
0,36,0,6
0,53,0,0
0,82,0,7
0,79,96,5
0,36,80,0
0,63,95,0
0,82,95,0
0,55,95,0
0,75,95,0
0,79,95,0
0,38,100,0
0,42,75,0
0,68,52,0
0,68,0,4
0,42,0,0
0,38,0,0
0,36,0,8
0,79,0,10
0,70,50,2
0,67,82,0
0,42,64,0
0,42,0,4
0,67,0,0
0,70,0,0
0,79,108,0
0,38,80,0
0,42,75,0
0,67,54,0
0,67,0,4
0,42,0,0
0,38,0,8
0,63,0,11
0,39,80,1
0,42,66,0
0,70,56,0
0,70,0,4
0,42,0,0
0,75,0,2
0,79,0,1
0,55,0,0
0,82,0,3
0,39,0,2
0,32,80,12
0,79,95,0
0,63,95,0
0,72,95,0
0,75,95,0
0,56,95,0
0,84,88,0
0,72,76,0
0,36,75,0
0,42,75,0
0,68,70,0
0,68,0,4
0,42,0,0
0,36,0,0
0,32,0,8
0,70,46,12
0,70,0,4
0,32,80,20
0,72,0,0
0,84,0,0
0,42,75,0
0,67,58,0
0,67,0,4
0,42,0,0
0,63,0,5
0,72,0,1
0,75,0,1
0,32,0,1
0,79,0,0
0,56,0,1
0,70,50,11
0,42,64,0
0,42,0,4
0,70,0,0
0,32,80,20
0,87,92,0
0,75,66,0
0,42,75,0
0,67,74,0
0,38,100,0
0,38,0,4
0,67,0,0
0,42,0,0
0,32,0,8
0,32,80,12
0,70,54,0
0,67,58,0
0,67,0,4
0,70,0,0
0,32,0,8
0,75,0,12
0,87,0,0
0,42,75,0
0,42,0,4
0,32,80,20
0,42,64,0
0,70,56,0
0,70,0,4
0,42,0,0
0,32,0,8
0,34,80,12
0,77,80,0
0,89,80,0
0,42,75,0
0,68,74,0
0,36,75,0
0,36,0,4
0,68,0,0
0,42,0,0
0,34,0,8
0,79,0,4
0,34,80,8
0,70,62,0
0,70,0,4
0,34,0,8
0,77,84,0
0,34,80,0
0,89,0,0
0,77,0,0
0,42,75,0
0,68,74,0
0,38,100,0
0,38,0,4
0,68,0,0
0,42,0,0
0,77,0,6
0,34,0,2
0,79,112,12
0,34,80,0
0,68,56,0
0,42,61,0
0,42,0,4
0,68,0,0
0,34,0,8
0,79,0,12
0,77,122,0
0,34,80,0
0,79,66,0
0,91,66,0
0,38,100,0
0,42,75,0
0,68,56,0
0,68,0,4
0,42,0,0
0,38,0,0
0,34,0,8
0,42,64,12
0,70,54,0
0,67,74,0
0,67,0,4
0,70,0,0
0,42,0,0
0,34,80,20
0,91,0,0
0,79,0,0
0,42,75,0
0,67,48,0
0,38,100,0
0,38,0,4
0,67,0,0
0,42,0,0
0,34,0,8
0,34,80,12
0,84,76,0
0,72,80,0
0,70,66,0
0,42,66,0
0,42,0,4
0,70,0,0
0,34,0,8
0,77,0,5
0,36,80,7
0,79,95,0
0,82,95,0
0,55,95,0
0,75,95,0
0,63,95,0
0,42,75,0
0,36,75,0
0,68,62,0
0,68,0,4
0,36,0,0
0,42,0,0
0,36,0,8
0,72,0,12
0,84,0,0
0,63,40,0
0,70,32,0
0,70,0,4
0,63,0,0
0,36,80,20
0,65,97,0
0,67,88,0
0,42,75,0
0,62,56,0
0,67,58,0
0,67,0,4
0,62,0,0
0,42,0,0
0,36,0,8
0,63,0,12
0,55,0,0
0,79,0,0
0,82,0,0
0,75,0,0
0,70,21,0
0,42,64,0
0,42,0,4
0,70,0,0
0,79,108,0
0,36,80,0
0,74,95,0
0,53,95,0
0,82,95,0
0,77,95,0
0,62,95,0
0,38,100,0
0,42,75,0
0,67,56,0
0,67,0,4
0,42,0,0
0,38,0,0
0,36,0,8
0,36,80,12
0,63,54,0
0,67,66,0
0,70,19,0
0,70,0,4
0,67,0,0
0,63,0,0
0,36,0,8
0,79,0,9
0,64,56,3
0,42,75,0
0,42,0,4
0,64,0,0
0,36,80,20
0,70,44,0
0,64,56,0
0,42,64,0
0,42,0,4
0,64,0,0
0,70,0,0
0,36,0,8
0,72,117,0
0,36,80,0
0,70,88,0
0,42,75,0
0,36,75,0
0,68,74,0
0,68,0,4
0,36,0,0
0,42,0,0
0,36,0,8
0,67,0,5
0,65,0,2
0,63,70,5
0,70,46,0
0,70,0,4
0,63,0,0
0,72,0,9
0,75,108,0
0,36,80,0
0,62,44,0
0,42,75,0
0,68,74,0
0,68,0,4
0,42,0,0
0,62,0,0
0,36,0,8
0,62,0,1
0,75,0,4
0,42,61,7
0,68,70,0
0,68,0,4
0,42,0,0
0,82,0,1
0,53,0,1
0,74,0,3
0,77,0,4
0,72,104,0
0,36,80,0
0,63,95,0
0,82,95,0
0,75,95,0
0,79,95,0
0,55,95,0
0,38,100,0
0,42,75,0
0,68,58,0
0,68,0,4
0,42,0,0
0,38,0,0
0,36,0,8
0,72,0,7
0,38,80,5
0,42,64,0
0,63,54,0
0,67,56,0
0,70,46,0
0,70,0,4
0,42,0,0
0,63,0,0
0,67,0,0
0,38,0,8
0,79,100,0
0,39,80,0
0,42,75,0
0,64,42,0
0,67,48,0
0,67,0,4
0,64,0,0
0,42,0,0
0,39,0,8
0,64,54,12
0,70,48,0
0,42,66,0
0,63,0,4
0,42,0,0
0,70,0,0
0,64,0,0
0,79,0,4
0,75,0,0
0,55,0,8
0,82,0,4
0,32,80,4
0,79,95,0
0,63,95,0
0,72,95,0
