track,note,velocity,time
1,60,100,4500
1,60,0,60
1,60,100,0
1,60,0,60
1,60,100,0
1,60,0,60
1,60,100,0
1,60,0,60
1,60,100,0
1,60,0,60
1,62,100,0
1,62,0,120
1,62,100,0
1,62,0,60
1,58,100,0
1,58,0,60
1,58,100,0
1,58,0,60
1,58,100,0
1,58,0,60
1,60,100,0
1,60,0,60
1,60,100,0
1,60,0,180
1,62,100,0
1,62,0,120
1,60,100,900
1,60,0,60
1,60,100,0
1,60,0,60
1,60,100,0
1,60,0,60
1,60,100,0
1,60,0,60
1,60,100,0
1,60,0,60
1,62,100,0
1,62,0,120
1,60,100,0
1,60,0,120
1,58,100,0
1,58,0,90
1,58,100,0
1,58,0,90
1,58,100,0
1,58,0,60
1,60,100,0
1,60,0,90
1,58,100,0
1,58,0,30
1,57,100,0
1,57,0,180
1,62,100,900
1,62,0,60
1,65,100,0
1,65,0,60
1,65,100,0
1,65,0,60
1,65,100,0
1,65,0,60
1,68,100,0
1,68,0,120
1,67,100,0
1,67,0,120
1,63,100,0
1,63,0,120
1,65,100,0
1,65,0,120
1,65,100,0
1,65,0,120
1,62,100,120
1,62,0,60
1,65,100,0
1,65,0,60
1,65,100,0
1,65,0,60
1,65,100,0
1,65,0,60
1,68,100,0
1,68,0,90
1,67,100,0
1,67,0,90
1,63,100,0
1,63,0,60
1,68,100,0
1,68,0,90
1,67,100,0
1,67,0,90
1,63,100,0
1,63,0,60
1,60,100,180
1,60,0,60
1,60,100,0
1,60,0,60
1,60,100,0
1,60,0,60
1,60,100,0
1,60,0,60
1,60,100,0
1,60,0,60
1,62,100,0
1,62,0,120
1,60,100,0
1,60,0,120
1,58,100,0
1,58,0,90
1,58,100,0
1,58,0,90
1,58,100,0
1,58,0,60
1,60,100,0
1,60,0,90
1,58,100,0
1,58,0,30
1,57,100,0
1,57,0,180
1,65,100,0
1,65,0,30
1,65,100,0
1,65,0,90
1,65,100,0
1,65,0,60
1,70,100,0
1,70,0,90
1,69,100,0
1,69,0,90
1,65,100,0
1,65,0,60
1,65,100,0
1,65,0,120
1,62,100,120
1,62,0,90
1,62,100,0
1,62,0,90
1,62,100,0
1,62,0,60
1,64,100,0
1,64,0,120
1,64,100,0
1,64,0,120
1,65,100,0
1,65,0,90
1,64,100,0
1,64,0,90
1,60,100,0
1,60,0,60
1,62,100,0
1,62,0,120
1,60,100,60
1,60,0,60
1,62,100,0
1,62,0,90
1,62,100,0
1,62,0,90
1,62,100,0
1,62,0,60
1,64,100,0
1,64,0,120
1,64,100,0
1,64,0,120
1,65,100,0
1,65,0,90
1,65,100,0
1,65,0,90
1,62,100,0
1,62,0,60
1,65,100,0
1,65,0,120
1,67,100,0
1,67,0,120
1,69,100,0
1,69,0,90
1,69,100,0
1,69,0,90
1,69,100,0
1,69,0,60
1,70,100,0
1,70,0,120
1,69,100,0
1,69,0,60
1,67,100,0
1,67,0,60
1,67,100,0
1,67,0,120
1,65,100,120
1,65,0,120
1,67,100,0
1,67,0,120
1,69,100,0
1,69,0,90
1,69,100,0
1,69,0,90
1,69,100,0
1,69,0,60
1,70,100,0
1,70,0,120
1,69,100,0
1,69,0,120
1,67,100,0
1,67,0,90
1,67,100,0
1,67,0,90
1,69,100,0
1,69,0,120
1,65,100,0
1,65,0,180
1,69,100,0
1,69,0,90
1,69,100,0
1,69,0,90
1,69,100,0
1,69,0,60
1,70,100,0
1,70,0,120
1,72,100,0
1,72,0,120
1,72,100,0
1,72,0,60
1,69,100,0
1,69,0,60
1,67,100,0
1,67,0,60
1,65,100,60
1,65,0,120
1,67,100,0
1,67,0,120
1,69,100,0
1,69,0,90
1,69,100,0
1,69,0,90
1,69,100,0
1,69,0,60
1,70,100,0
1,70,0,120
1,69,100,0
1,69,0,120
1,67,100,0
1,67,0,120
1,69,100,120
1,69,0,90
1,67,100,0
1,67,0,90
1,65,100,0
1,65,0,60
1,65,100,0
1,65,0,480
1,60,100,660
1,60,0,60
1,60,100,0
1,60,0,60
1,60,100,0
1,60,0,60
1,60,100,0
1,60,0,60
1,60,100,0
1,60,0,60
1,62,100,0
1,62,0,120
1,62,100,0
1,62,0,60
1,58,100,0
1,58,0,60
1,58,100,0
1,58,0,60
1,58,100,0
1,58,0,60
1,60,100,0
1,60,0,60
1,60,100,0
1,60,0,180
1,62,100,0
1,62,0,120
1,60,100,900
1,60,0,60
1,60,100,0
1,60,0,60
1,60,100,0
1,60,0,60
1,60,100,0
1,60,0,60
1,60,100,0
1,60,0,60
1,62,100,0
1,62,0,120
1,60,100,0
1,60,0,120
1,58,100,0
1,58,0,90
1,58,100,0
1,58,0,90
1,58,100,0
1,58,0,60
1,60,100,0
1,60,0,90
1,58,100,0
1,58,0,30
1,57,100,0
1,57,0,180
1,58,100,840
1,58,0,60
1,62,100,0
1,62,0,60
1,65,100,0
1,65,0,60
1,65,100,0
1,65,0,60
1,65,100,0
1,65,0,60
1,68,100,0
1,68,0,120
1,67,100,0
1,67,0,120
1,63,100,0
1,63,0,120
1,65,100,0
1,65,0,120
1,65,100,0
1,65,0,120
1,65,100,0
1,65,0,60
1,65,100,0
1,65,0,60
1,62,100,0
1,62,0,60
1,65,100,0
1,65,0,60
1,65,100,0
1,65,0,60
1,65,100,0
1,65,0,60
1,68,100,0
1,68,0,120
1,67,100,0
1,67,0,120
1,63,100,0
1,63,0,120
1,65,100,0
1,65,0,120
1,60,100,240
1,60,0,60
1,60,100,0
1,60,0,60
1,60,100,0
1,60,0,60
1,60,100,0
1,60,0,60
1,62,100,0
1,62,0,120
1,60,100,0
1,60,0,120
1,58,100,0
1,58,0,90
1,58,100,0
1,58,0,90
1,58,100,0
1,58,0,60
1,60,100,0
1,60,0,90
1,58,100,0
1,58,0,30
1,57,100,0
1,57,0,180
1,65,100,0
1,65,0,30
1,65,100,0
1,65,0,90
1,65,100,0
1,65,0,60
1,70,100,0
1,70,0,90
1,69,100,0
1,69,0,90
1,65,100,0
1,65,0,60
1,65,100,0
1,65,0,120
1,62,100,120
1,62,0,90
1,62,100,0
1,62,0,90
1,62,100,0
1,62,0,60
1,64,100,0
1,64,0,120
1,64,100,0
1,64,0,60
1,64,100,0
1,64,0,60
1,65,100,0
1,65,0,90
1,64,100,0
1,64,0,90
1,60,100,0
1,60,0,60
1,62,100,0
1,62,0,120
1,62,100,120
1,62,0,90
1,62,100,0
1,62,0,90
1,62,100,0
1,62,0,60
1,64,100,0
1,64,0,120
1,64,100,0
1,64,0,120
1,65,100,0
1,65,0,90
1,65,100,0
1,65,0,90
1,62,100,0
1,62,0,60
1,65,100,0
1,65,0,120
1,67,100,0
1,67,0,120
1,69,100,0
1,69,0,90
1,69,100,0
1,69,0,90
1,69,100,0
1,69,0,60
1,70,100,0
1,70,0,120
1,69,100,0
1,69,0,60
1,67,100,0
1,67,0,60
1,67,100,0
1,67,0,120
1,65,100,120
1,65,0,120
1,67,100,0
1,67,0,120
1,69,100,0
1,69,0,90
1,69,100,0
1,69,0,90
1,69,100,0
1,69,0,60
1,70,100,0
1,70,0,120
1,69,100,0
1,69,0,120
1,67,100,0
1,67,0,90
1,67,100,0
1,67,0,90
1,69,100,0
1,69,0,120
1,65,100,0
1,65,0,180
1,69,100,0
1,69,0,90
1,69,100,0
1,69,0,90
1,69,100,0
1,69,0,60
1,70,100,0
1,70,0,120
1,72,100,0
1,72,0,120
1,72,100,0
1,72,0,60
1,69,100,0
1,69,0,60
1,67,100,0
1,67,0,60
1,65,100,60
1,65,0,120
1,67,100,0
1,67,0,120
1,69,100,0
1,69,0,90
1,69,100,0
1,69,0,90
1,69,100,0
1,69,0,60
1,70,100,0
1,70,0,120
1,69,100,0
1,69,0,120
1,67,100,0
1,67,0,120
1,69,100,120
1,69,0,90
1,67,100,0
1,67,0,90
1,65,100,0
1,65,0,60
1,65,100,0
1,65,0,480
1,70,100,480
1,70,0,90
1,70,100,0
1,70,0,90
1,70,100,0
1,70,0,60
1,70,100,0
1,70,0,120
1,69,100,0
1,69,0,60
1,67,100,0
1,67,0,60
1,63,100,0
1,63,0,60
1,63,100,0
1,63,0,180
1,70,100,240
1,70,0,60
1,70,100,0
1,70,0,60
1,69,100,0
1,69,0,60
1,70,100,0
1,70,0,60
1,69,100,0
1,69,0,120
1,65,100,0
1,65,0,60
1,65,100,0
1,65,0,120
1,67,100,0
1,67,0,180
1,62,100,360
1,62,0,120
1,64,100,120
1,64,0,120
1,67,100,120
1,67,0,120
1,65,100,120
1,65,0,120
1,65,100,0
1,65,0,90
1,65,100,0
1,65,0,90
1,67,100,0
1,67,0,60
1,69,100,0
1,69,0,120
1,63,100,120
1,63,0,90
1,63,100,0
1,63,0,90
1,65,100,0
1,65,0,60
1,67,100,0
1,67,0,120
1,65,100,0
1,65,0,120
1,65,100,960
1,65,0,90
1,65,100,0
1,65,0,90
1,67,100,0
1,67,0,60
1,69,100,0
1,69,0,120
1,63,100,120
1,63,0,90
1,63,100,0
1,63,0,90
1,65,100,0
1,65,0,60
1,67,100,0
1,67,0,90
1,65,100,0
1,65,0,90
1,65,100,0
1,65,0,180
1,62,100,840
1,62,0,90
1,62,100,0
1,62,0,90
1,62,100,0
1,62,0,60
1,64,100,0
1,64,0,120
1,64,100,0
1,64,0,60
1,64,100,0
1,64,0,60
1,65,100,0
1,65,0,90
1,64,100,0
1,64,0,90
1,60,100,0
1,60,0,60
1,62,100,0
1,62,0,120
1,62,100,120
1,62,0,90
1,62,100,0
1,62,0,90
1,62,100,0
1,62,0,60
1,64,100,0
1,64,0,120
1,64,100,0
1,64,0,120
1,65,100,0
1,65,0,90
1,65,100,0
1,65,0,90
1,62,100,0
1,62,0,60
1,65,100,0
1,65,0,120
1,67,100,0
1,67,0,120
1,69,100,0
1,69,0,90
1,69,100,0
1,69,0,90
1,69,100,0
1,69,0,60
1,70,100,0
1,70,0,120
1,69,100,0
1,69,0,60
1,67,100,0
1,67,0,60
1,67,100,0
1,67,0,120
1,65,100,120
1,65,0,120
1,67,100,0
1,67,0,120
1,69,100,0
1,69,0,90
1,69,100,0
1,69,0,90
1,69,100,0
1,69,0,60
1,70,100,0
1,70,0,120
1,69,100,0
1,69,0,120
1,67,100,0
1,67,0,90
1,67,100,0
1,67,0,90
1,69,100,0
1,69,0,120
1,65,100,0
1,65,0,180
1,69,100,0
1,69,0,90
1,69,100,0
1,69,0,90
1,69,100,0
1,69,0,60
1,70,100,0
1,70,0,120
1,72,100,0
1,72,0,120
1,72,100,0
1,72,0,60
1,69,100,0
1,69,0,60
1,67,100,0
1,67,0,60
1,65,100,60
1,65,0,120
1,67,100,0
1,67,0,120
1,69,100,0
1,69,0,90
1,69,100,0
1,69,0,90
1,69,100,0
1,69,0,60
1,70,100,0
1,70,0,120
1,69,100,0
1,69,0,120
1,67,100,0
1,67,0,120
1,69,100,120
1,69,0,90
1,65,100,0
1,65,0,90
1,65,100,0
1,65,0,60
1,65,100,0
1,65,0,720
1,70,100,240
1,70,0,90
1,70,100,0
1,70,0,90
1,70,100,0
1,70,0,60
1,69,100,0
1,69,0,90
1,65,100,0
1,65,0,30
1,63,100,0
1,63,0,60
1,63,100,0
1,63,0,120
1,63,100,0
1,63,0,360
1,65,100,60
1,65,0,90
1,65,100,0
1,65,0,90
1,67,100,0
1,67,0,60
1,69,100,0
1,69,0,120
1,63,100,120
1,63,0,90
1,63,100,0
1,63,0,90
1,65,100,0
1,65,0,60
1,67,100,0
1,67,0,120
1,65,100,0
1,65,0,120
1,65,100,0
1,65,0,90
1,65,100,0
1,65,0,90
1,67,100,0
1,67,0,60
1,69,100,0
1,69,0,120
1,63,100,120
1,63,0,90
1,63,100,0
1,63,0,90
1,65,100,0
1,65,0,60
1,67,100,0
1,67,0,120
1,65,100,0
1,65,0,120
1,65,100,0
1,65,0,90
1,65,100,0
1,65,0,90
1,67,100,0
1,67,0,60
1,69,100,0
1,69,0,120
1,63,100,120
1,63,0,90
1,63,100,0
1,63,0,90
1,65,100,0
1,65,0,60
1,67,100,0
1,67,0,120
1,65,100,0
1,65,0,120
1,65,100,0
1,65,0,90
1,65,100,0
1,65,0,90
1,67,100,0
1,67,0,60
1,69,100,0
1,69,0,120
1,63,100,120
1,63,0,90
1,63,100,0
1,63,0,90
1,65,100,0
1,65,0,60
1,67,100,0
1,67,0,120
1,65,100,0
1,65,0,120
2,67,100,480
2,69,100,0
2,72,100,0
2,77,100,0
2,77,0,90
2,67,0,0
2,69,0,0
2,72,0,0
2,67,100,0
2,69,100,0
2,72,100,0
2,77,100,0
2,77,0,30
2,67,0,0
2,69,0,0
2,72,0,0
2,65,100,0
2,65,0,120
2,72,100,0
2,72,0,120
2,77,100,0
2,77,0,120
2,67,100,0
2,70,100,0
2,72,100,0
2,75,100,0
2,77,100,0
2,77,0,120
2,72,0,0
2,67,0,0
2,70,0,0
2,75,0,0
2,74,100,0
2,74,0,120
2,70,100,0
2,70,0,120
2,72,100,0
2,72,0,120
2,67,100,0
2,69,100,0
2,72,100,0
2,77,100,0
2,77,0,60
2,67,0,0
2,69,0,0
2,72,0,0
2,82,100,0
2,82,0,60
2,81,100,0
2,81,0,60
2,77,100,0
2,77,0,60
2,75,100,0
2,75,0,120
2,82,100,60
2,82,0,60
2,72,100,0
2,77,100,0
2,81,100,0
2,81,0,60
2,77,0,0
2,72,0,0
2,77,100,0
2,77,0,60
2,75,100,0
2,75,0,60
2,72,100,0
2,72,0,60
2,67,100,0
2,70,100,0
2,75,100,0
2,75,0,120
2,70,0,0
2,67,0,0
2,65,100,0
2,70,100,0
2,74,100,0
2,74,0,120
2,70,0,0
2,65,0,0
2,67,100,0
2,69,100,0
2,72,100,0
2,77,100,0
2,77,0,90
2,67,0,0
2,69,0,0
2,72,0,0
2,67,100,0
2,69,100,0
2,72,100,0
2,77,100,0
2,77,0,30
2,67,0,0
2,69,0,0
2,72,0,0
2,65,100,0
2,65,0,120
2,72,100,0
2,72,0,120
2,77,100,0
2,77,0,120
2,67,100,0
2,70,100,0
2,72,100,0
2,75,100,0
2,77,100,0
2,77,0,120
2,72,0,0
2,67,0,0
2,70,0,0
2,75,0,0
2,74,100,0
2,74,0,120
2,70,100,0
2,70,0,120
2,72,100,0
2,72,0,120
2,67,100,0
2,69,100,0
2,72,100,0
2,77,100,0
2,77,0,60
2,67,0,0
2,69,0,0
2,72,0,0
2,82,100,0
2,82,0,60
2,81,100,0
2,81,0,60
2,77,100,0
2,77,0,60
2,75,100,0
2,75,0,120
2,82,100,60
2,82,0,60
2,72,100,0
2,77,100,0
2,81,100,0
2,81,0,60
2,77,0,0
2,72,0,0
2,77,100,0
2,77,0,60
2,75,100,0
2,75,0,60
2,72,100,0
2,72,0,60
2,67,100,0
2,70,100,0
2,75,100,0
2,75,0,120
2,70,0,0
2,67,0,0
2,65,100,0
2,70,100,0
2,74,100,0
2,74,0,120
2,70,0,0
2,65,0,0
2,65,100,0
2,67,100,0
2,72,100,0
2,72,0,180
2,67,0,0
2,65,0,0
2,65,100,0
2,67,100,0
2,72,100,0
2,72,0,60
2,72,100,0
2,72,0,60
2,72,100,0
2,72,0,60
2,72,100,0
2,72,0,60
2,67,0,0
2,65,0,0
2,72,100,0
2,72,0,60
2,63,100,0
2,65,100,0
2,74,100,0
2,74,0,120
2,65,0,0
2,63,0,0
2,74,100,0
2,74,0,60
2,70,100,0
2,70,0,60
2,63,100,0
2,65,100,0
2,70,100,0
2,70,0,60
2,70,100,0
2,70,0,60
2,72,100,0
2,72,0,60
2,65,0,0
2,63,0,0
2,65,100,0
2,67,100,0
2,72,100,0
2,72,0,180
2,74,100,0
2,74,0,120
2,67,0,60
2,65,0,0
2,63,100,180
2,65,100,0
2,70,100,0
2,70,0,360
2,65,0,0
2,63,0,0
2,65,100,120
2,67,100,0
2,72,100,0
2,72,0,180
2,67,0,0
2,65,0,0
2,72,100,0
2,72,0,60
2,65,100,0
2,67,100,0
2,72,100,0
2,72,0,60
