track,note,velocity,time
1,65,80,96
1,62,80,0
1,57,80,0
1,64,80,1440
1,60,80,0
1,55,80,0
1,67,80,0
1,62,80,0
1,58,80,0
1,65,80,0
1,62,80,0
1,57,80,0
1,64,80,0
1,60,80,0
1,55,80,0
1,67,80,0
1,62,80,0
1,58,80,0
1,65,80,0
1,62,80,0
1,57,80,0
1,64,80,0
1,67,80,0
1,60,80,0
1,70,80,0
1,67,80,0
1,64,80,0
1,69,80,0
1,65,80,0
1,60,80,0
1,70,80,0
1,65,80,0
1,62,80,0
1,69,80,0
1,72,80,0
1,65,80,0
1,72,80,0
1,67,80,0
1,64,80,0
1,69,80,0
1,65,80,0
1,62,80,0
1,62,80,44544
1,62,80,78
1,62,80,78
1,62,80,78
1,64,80,78
1,64,80,78
1,64,80,78
1,64,80,78
1,65,80,78
1,65,80,78
1,65,80,78
1,65,80,78
1,65,80,78
1,65,80,78
1,64,80,78
1,64,80,78
1,62,80,78
1,62,80,78
1,62,80,78
1,62,80,78
1,62,80,78
1,62,80,78
1,62,80,78
1,62,80,78
1,62,80,78
1,62,80,78
1,62,80,78
1,62,80,78
1,62,80,78
1,62,80,78
1,62,80,78
1,62,80,78
1,72,80,38670
1,72,80,40
1,72,80,40
1,72,80,40
1,72,80,40
1,70,80,0
1,70,80,40
1,72,80,1998
1,70,80,78
1,69,80,78
1,72,80,1614
1,72,80,40
1,72,80,40
1,72,80,78
1,70,80,40
1,72,80,1998
1,70,80,78
1,70,80,78
1,69,64,0
1,72,80,7988
1,74,80,78
1,69,80,78
1,67,80,78
1,67,80,10830
1,69,80,78
1,70,80,78
1,69,80,78
1,67,80,462
1,60,80,0
1,67,80,10
1,60,80,0
1,67,80,10
1,60,80,0
1,67,80,10
1,60,80,0
1,65,80,16
1,60,80,0
1,72,80,16
1,60,80,0
1,72,80,10
1,60,80,0
1,72,80,10
1,60,80,0
1,72,80,10
1,60,80,0
1,72,80,10
1,60,80,0
1,70,80,16
1,62,80,0
1,70,80,16
1,62,80,0
1,70,80,10
1,62,80,0
1,70,80,16
1,62,80,0
1,70,80,10
1,62,80,0
1,70,80,10
1,62,80,0
1,69,80,10
1,60,80,0
1,67,80,16
1,60,80,0
1,69,80,10
1,60,80,0
1,67,80,10
1,60,80,0
1,72,80,10
1,65,80,0
1,70,80,16
1,62,80,0
1,69,80,16
1,60,80,0
1,69,80,16
1,60,80,0
1,69,80,10
1,60,80,0
1,69,80,10
1,60,80,0
1,69,80,10
1,60,80,0
1,67,80,16
1,60,80,0
1,72,80,26
1,60,80,0
1,72,80,10
1,60,80,0
1,72,80,10
1,60,80,0
1,72,80,16
1,60,80,0
1,72,80,10
1,60,80,0
1,62,80,0
1,70,80,0
1,62,80,16
1,70,80,0
1,62,80,78
1,70,80,0
1,62,80,10
1,70,80,0
1,69,80,16
1,60,80,0
1,65,80,16
1,60,80,0
1,67,80,10
1,60,80,0
1,65,80,10
1,60,80,0
1,69,80,10
1,72,80,0
1,65,80,0
1,67,80,16
1,70,80,0
1,62,80,0
1,65,80,16
1,69,80,0
1,60,80,0
1,65,80,16
1,69,80,0
1,60,80,0
1,65,80,10
1,69,80,0
1,60,80,0
1,65,80,10
1,69,80,0
1,60,80,0
1,65,80,10
1,69,80,0
1,60,80,0
1,64,80,10
1,67,80,0
1,64,80,10
1,67,80,0
1,60,80,0
1,64,80,16
1,67,80,0
1,60,80,0
1,64,80,10
1,67,80,0
1,60,80,0
1,64,80,10
1,67,80,0
1,60,80,0
1,64,80,10
1,67,80,0
1,60,80,0
1,64,80,10
1,67,80,0
1,60,80,0
1,65,80,16
1,70,80,0
1,62,80,0
1,70,80,16
1,60,80,0
1,65,80,10
1,70,80,0
1,62,80,0
1,65,80,16
1,70,80,0
1,62,80,0
1,65,80,10
1,70,80,0
1,62,80,0
1,64,80,10
1,69,80,0
1,64,80,10
1,69,80,0
1,60,80,0
1,65,80,16
1,69,80,0
1,60,80,0
1,67,80,10
1,69,80,0
1,62,80,0
1,65,80,10
1,69,80,0
1,60,80,0
1,69,80,10
1,72,80,0
1,65,80,0
1,67,80,16
1,70,80,0
1,62,80,0
1,65,80,16
1,69,80,0
1,60,80,0
1,65,80,16
1,69,80,0
1,60,80,0
1,65,80,10
1,69,80,0
1,60,80,0
1,65,80,10
1,69,80,0
1,60,80,0
1,65,80,10
1,69,80,0
1,60,80,0
1,64,80,10
1,67,80,0
1,64,80,10
1,67,80,0
1,60,80,0
1,64,80,208
1,67,80,0
1,60,80,0
1,64,80,10
1,67,80,0
1,60,80,0
1,64,80,10
1,67,80,0
1,60,80,0
1,64,80,16
1,69,80,0
1,60,80,0
1,65,80,10
1,70,80,0
1,62,80,0
1,65,80,26
1,70,80,0
1,62,80,0
1,65,80,16
1,70,80,0
1,62,80,0
1,65,80,10
1,70,80,0
1,62,80,0
1,64,80,10
1,69,80,0
1,64,80,10
1,69,80,0
1,60,80,0
1,65,80,16
1,69,80,0
1,60,80,0
1,67,80,10
1,70,80,0
1,62,80,0
1,65,80,10
1,69,80,0
1,60,80,0
1,69,80,10
1,72,80,0
1,65,80,0
1,67,80,16
1,70,80,0
1,62,80,0
1,65,80,16
1,69,80,0
1,62,80,0
1,69,80,608
1,65,80,0
1,62,80,0
1,67,80,10
1,64,80,0
1,60,80,0
1,72,80,1162
1,67,80,0
1,64,80,0
1,69,80,10
1,74,80,0
1,65,80,0
1,74,80,1162
1,69,80,0
1,65,80,0
1,72,80,10
1,67,80,0
1,64,80,0
1,72,80,1162
1,67,80,0
1,64,80,0
1,69,80,10
1,65,80,0
1,62,80,0
1,69,80,1162
1,65,80,0
1,62,80,0
1,67,80,10
1,64,80,0
1,60,80,0
1,72,80,1162
1,67,80,0
1,64,80,0
1,74,80,10
1,69,80,0
1,65,80,0
1,74,80,1162
1,69,80,0
1,65,80,0
1,67,80,10
1,72,80,0
1,64,80,0
1,72,80,1162
1,67,80,0
1,64,80,0
1,69,80,10
1,65,80,0
1,62,80,0
1,69,80,1162
1,65,80,0
1,62,80,0
1,67,80,10
1,64,80,0
1,60,80,0
1,70,80,32
1,67,80,0
1,64,80,0
1,69,80,26
1,65,80,0
1,60,80,0
1,70,80,40
1,65,80,0
1,62,80,0
1,72,80,32
1,69,80,0
1,65,80,0
1,72,80,32
1,67,80,0
1,64,80,0
1,69,80,32
1,65,80,0
1,62,80,0
1,69,80,1162
1,65,80,0
1,62,80,0
1,67,80,10
1,64,80,0
1,60,80,0
1,72,80,1162
1,67,80,0
1,64,80,0
1,74,80,10
1,69,80,0
1,65,80,0
1,74,80,1162
1,69,80,0
1,65,80,0
1,67,80,10
1,72,80,0
1,64,80,0
1,72,80,1162
1,67,80,0
1,64,80,0
1,69,80,10
1,65,80,0
1,62,80,0
1,69,80,1162
1,65,80,0
1,62,80,0
1,67,80,10
1,64,80,0
1,60,80,0
1,67,80,32
1,64,80,0
1,69,80,26
1,65,80,0
1,60,80,0
1,70,80,40
1,65,80,0
1,62,80,0
1,72,80,32
1,69,80,0
1,65,80,0
1,72,80,32
1,67,80,0
1,64,80,0
1,72,80,224
1,69,80,0
1,65,80,0
1,72,80,20
1,69,80,0
1,65,80,0
1,74,80,20
1,69,80,0
1,65,80,0
1,77,80,10
1,72,80,0
1,69,80,0
1,72,80,0
1,74,80,10
1,69,80,0
1,65,80,0
1,74,80,20
1,69,80,0
1,65,80,0
1,72,80,20
1,67,80,0
1,64,80,0
1,72,80,10
1,67,80,0
1,64,80,0
1,70,80,192
1,65,80,0
1,62,80,0
1,70,80,20
1,65,80,0
1,62,80,0
1,72,80,20
1,67,80,0
1,64,80,0
1,74,80,10
1,70,80,0
1,65,80,0
1,74,80,96
1,70,80,0
1,65,80,0
1,72,80,126
1,69,80,0
1,65,80,0
1,72,80,1048
1,69,80,0
1,65,80,0
1,72,80,20
1,69,80,0
1,65,80,0
1,74,80,20
1,69,80,0
1,65,80,0
1,77,80,10
1,72,80,0
1,69,80,0
1,72,80,0
1,74,80,10
1,69,80,0
1,65,80,0
1,74,80,20
1,69,80,0
1,65,80,0
1,72,80,20
1,67,80,0
1,64,80,0
1,72,80,10
1,67,80,0
1,64,80,0
1,70,80,192
1,65,80,0
1,62,80,0
1,70,80,20
1,65,80,0
1,62,80,0
1,72,80,20
1,67,80,0
1,64,80,0
1,74,80,10
1,70,80,0
1,65,80,0
1,74,80,96
1,70,80,0
1,65,80,0
1,72,80,126
1,69,80,0
1,65,80,0
1,72,80,1048
1,69,80,0
1,65,80,0
1,72,80,20
1,69,80,0
1,65,80,0
1,74,80,20
1,69,80,0
1,65,80,0
1,77,80,10
1,72,80,0
1,69,80,0
1,72,80,0
1,74,80,10
1,69,80,0
1,65,80,0
1,74,80,20
1,69,80,0
1,65,80,0
1,72,80,20
1,67,80,0
1,64,80,0
1,72,80,10
1,67,80,0
1,64,80,0
1,70,80,192
1,65,80,0
1,62,80,0
1,70,80,20
1,65,80,0
1,62,80,0
1,72,80,20
1,67,80,0
1,64,80,0
1,74,80,10
1,70,80,0
1,65,80,0
1,74,80,96
1,70,80,0
1,65,80,0
1,72,80,126
1,69,80,0
1,65,80,0
1,72,80,1048
1,69,80,0
1,65,80,0
1,72,80,20
1,69,80,0
1,65,80,0
1,74,80,20
1,69,80,0
1,65,80,0
1,77,80,10
1,72,80,0
1,69,80,0
1,72,80,0
1,74,80,10
1,69,80,0
1,65,80,0
1,74,80,20
1,69,80,0
1,65,80,0
1,72,80,20
1,67,80,0
1,64,80,0
1,72,80,10
1,67,80,0
1,64,80,0
1,70,80,192
1,65,80,0
1,62,80,0
1,70,80,20
1,65,80,0
1,62,80,0
1,72,80,20
1,67,80,0
1,64,80,0
1,74,80,10
1,70,80,0
1,65,80,0
1,74,80,96
1,70,80,0
1,65,80,0
1,72,80,126
1,69,80,0
1,65,80,0
1,81,80,13144
1,81,80,40
1,81,80,136
1,81,80,40
1,81,80,20
1,81,80,40
1,81,80,232
1,81,80,40
1,81,80,40
1,81,80,328
1,81,80,20
1,81,80,424
1,81,80,40
1,81,80,40
1,81,80,136
1,81,80,40
1,81,80,20
1,81,80,40
1,81,80,232
1,81,80,40
1,81,80,40
1,81,80,328
1,81,80,20
1,81,80,424
1,81,80,40
1,81,80,40
1,81,80,136
1,81,80,40
1,81,80,20
1,81,80,40
1,81,80,232
1,81,80,40
1,81,80,40
1,81,80,328
1,81,80,20
1,81,80,424
1,81,80,40
1,65,80,0
1,69,80,0
1,72,80,0
1,81,80,40
1,81,80,136
1,81,80,40
1,81,80,0
1,65,80,0
1,74,80,0
1,70,80,0
1,81,80,40
1,81,80,232
1,81,80,0
1,69,80,0
1,72,80,0
1,77,80,0
1,81,80,40
1,81,80,328
1,81,80,0
1,67,80,0
1,72,80,0
1,76,80,0
1,77,80,0
1,74,80,0
1,69,80,0
1,77,80,808
1,74,80,0
1,69,80,0
1,76,80,40
1,72,80,0
1,67,80,0
1,76,80,808
1,72,80,0
1,67,80,0
1,74,80,40
1,69,80,0
1,65,80,0
1,74,80,808
1,69,80,0
1,65,80,0
1,72,80,40
1,67,80,0
1,64,80,0
1,72,80,40
1,67,80,0
1,64,80,0
1,76,80,40
1,72,80,0
1,67,80,0
1,76,80,40
1,72,80,0
1,67,80,0
1,74,80,40
1,69,80,0
1,65,80,0
1,74,80,808
1,69,80,0
1,65,80,0
1,76,80,40
1,72,80,0
1,67,80,0
1,76,80,192
1,76,80,0
1,76,80,40
1,74,80,40
1,72,80,58
1,76,80,20
1,72,80,0
1,67,80,0
1,72,80,40
1,69,80,0
1,65,80,0
1,70,80,78
1,74,80,0
1,65,80,0
1,77,80,78
1,72,80,0
1,69,80,0
1,76,80,78
1,72,80,0
1,67,80,0
1,77,80,78
1,74,80,0
1,69,80,0
1,77,80,808
1,74,80,0
1,69,80,0
1,76,80,40
1,72,80,0
1,67,80,0
1,76,80,808
1,72,80,0
1,67,80,0
1,74,80,40
1,69,80,0
1,65,80,0
1,74,80,808
1,69,80,0
1,65,80,0
1,72,80,40
1,67,80,0
1,64,80,0
1,72,80,40
1,67,80,0
1,64,80,0
1,76,80,40
1,72,80,0
1,67,80,0
1,76,80,40
1,72,80,0
1,67,80,0
1,74,80,40
1,69,80,0
1,65,80,0
1,74,80,808
1,69,80,0
1,65,80,0
1,76,80,40
1,72,80,0
1,67,80,0
1,76,80,808
1,72,80,0
1,67,80,0
1,72,80,40
1,69,80,0
1,65,80,0
1,70,80,78
1,74,80,0
1,65,80,0
1,77,80,78
1,72,80,0
1,69,80,0
1,76,80,78
1,72,80,0
1,67,80,0
1,77,80,78
1,74,80,0
1,69,80,0
1,77,80,808
1,74,80,0
1,69,80,0
1,76,80,40
1,72,80,0
1,67,80,0
1,76,80,808
1,72,80,0
1,67,80,0
1,74,80,40
1,69,80,0
1,65,80,0
1,74,80,808
1,69,80,0
1,65,80,0
1,72,80,40
1,67,80,0
1,64,80,0
1,72,80,40
1,67,80,0
1,64,80,0
1,76,80,40
1,72,80,0
1,67,80,0
1,76,80,40
1,72,80,0
1,67,80,0
1,74,80,40
1,69,80,0
1,65,80,0
1,74,80,808
1,69,80,0
1,65,80,0
1,76,80,40
1,72,80,0
1,67,80,0
1,76,80,808
1,72,80,0
1,67,80,0
1,72,80,40
1,69,80,0
1,65,80,0
1,70,80,78
1,74,80,0
1,65,80,0
1,77,80,78
1,72,80,0
1,69,80,0
1,76,80,78
1,72,80,0
1,67,80,0
1,77,80,78
1,74,80,0
1,69,80,0
1,77,80,808
1,74,80,0
1,69,80,0
1,76,80,40
1,72,80,0
1,67,80,0
1,76,80,808
1,72,80,0
1,67,80,0
1,74,80,40
1,69,80,0
1,65,80,0
1,74,80,808
1,69,80,0
1,65,80,0
1,72,80,40
1,67,80,0
1,64,80,0
1,72,80,40
1,67,80,0
1,64,80,0
1,76,80,40
1,72,80,0
1,67,80,0
1,76,80,40
1,72,80,0
1,67,80,0
1,74,80,40
1,69,80,0
1,65,80,0
1,74,67,808
1,69,67,0
1,65,67,0
1,76,62,40
1,72,62,0
1,67,62,0
1,76,49,808
1,72,49,0
1,67,49,0
1,72,45,40
1,69,45,0
1,65,45,0
1,70,36,78
1,74,36,0
1,65,36,0
1,77,27,78
1,72,27,0
1,69,27,0
1,76,19,78
1,72,19,0
1,67,19,0
2,65,64,38400
2,62,64,0
2,57,64,0
2,64,64,0
2,60,64,0
2,55,64,0
2,67,64,0
2,62,64,0
2,58,64,0
2,65,64,0
2,62,64,0
2,57,64,0
2,64,64,0
2,60,64,0
2,55,64,0
2,67,64,0
2,62,64,0
2,58,64,0
2,65,64,0
2,62,64,0
2,57,64,0
2,64,64,0
2,67,64,0
2,60,64,0
2,70,64,0
2,67,64,0
2,64,64,0
2,69,64,0
2,65,64,0
2,60,64,0
2,70,64,0
2,65,64,0
2,62,64,0
2,69,64,0
2,72,64,0
2,65,64,0
2,72,64,0
2,67,64,0
2,64,64,0
2,69,64,0
2,65,64,0
2,62,64,0
2,65,64,30720
2,62,64,0
2,58,64,0
2,46,64,0
2,60,64,0
2,57,64,0
2,65,64,0
2,41,64,0
2,67,64,0
2,64,64,0
2,60,64,0
2,48,64,0
2,69,64,0
2,65,64,0
2,62,64,0
2,50,64,0
2,65,64,0
2,62,64,0
2,58,64,0
2,46,64,0
2,65,64,0
2,60,64,0
2,57,64,0
2,41,64,0
2,67,64,0
2,64,64,0
2,60,64,0
2,36,64,0
2,65,64,0
2,62,64,0
2,58,64,0
2,46,64,0
2,65,64,0
2,60,64,0
2,57,64,0
2,41,64,0
2,64,64,0
2,60,64,0
2,55,64,0
2,48,64,0
2,65,64,0
2,62,64,0
2,57,64,0
2,50,64,0
2,65,64,0
2,62,64,0
2,58,64,0
2,46,64,0
2,65,64,0
2,60,64,0
2,57,64,0
2,41,64,0
2,64,64,0
2,67,64,0
2,60,64,0
2,36,64,0
2,65,64,12288
2,62,64,0
2,58,64,0
2,46,64,0
2,60,64,0
2,57,64,0
2,65,64,0
2,41,64,0
2,67,64,0
