track,note,velocity,time
0,54,102,134
0,61,102,225
0,78,117,149
0,54,0,111
0,54,97,9
0,61,0,195
0,61,97,9
0,54,0,180
0,56,90,9
0,95,102,9
0,61,0,106
0,63,90,9
0,78,0,80
0,80,105,9
0,56,0,12
0,52,95,27
0,63,0,201
0,59,95,24
0,80,0,202
0,76,110,27
0,52,0,120
0,57,95,9
0,59,0,55
0,64,95,9
0,76,0,20
0,81,110,9
0,95,0,240
0,57,0,10
0,56,84,9
0,95,102,79
0,64,0,106
0,63,84,9
0,81,0,150
0,80,99,9
0,56,0,670
0,54,102,9
0,63,0,216
0,61,102,9
0,80,0,246
0,78,117,9
0,54,0,111
0,54,97,9
0,61,0,216
0,61,97,9
0,95,0,836
0,54,0,10
0,56,90,9
0,95,102,110
0,61,0,106
0,63,90,9
0,78,0,246
0,80,105,9
0,56,0,162
0,52,95,27
0,47,91,20
0,63,0,10
0,59,95,24
0,80,0,32
0,76,110,19
0,52,0,40
0,57,95,9
0,59,0,35
0,64,95,9
0,76,0,20
0,81,110,9
0,95,0,20
0,57,0,10
0,56,84,9
0,95,93,9
0,64,0,25
0,63,84,9
0,95,49,9
0,81,0,10
0,80,99,9
0,66,71,0
0,95,0,0
0,66,0,40
0,95,52,29
0,71,78,0
0,66,71,0
0,71,0,10
0,71,81,39
0,66,0,2
0,95,0,20
0,71,0,10
0,95,55,9
0,66,71,9
0,95,0,10
0,66,0,10
0,95,55,39
0,71,78,0
0,66,71,0
0,71,0,10
0,71,83,39
0,66,0,2
0,95,0,20
0,56,0,50
0,71,0,0
0,54,102,9
0,95,49,0
0,63,0,35
0,61,102,9
0,66,71,9
0,95,0,30
0,66,0,30
0,80,0,20
0,78,117,9
0,95,52,0
0,71,78,0
0,66,71,0
0,54,0,111
0,54,97,9
0,71,0,20
0,71,84,39
0,66,0,3
0,61,0,93
0,61,97,9
0,95,0,6
0,71,0,120
0,95,55,9
0,66,71,74
0,95,0,111
0,66,0,90
0,95,55,39
0,71,78,0
0,66,71,0
0,71,0,20
0,95,0,20
0,54,0,10
0,56,90,9
0,71,79,0
0,66,0,3
0,95,82,107
0,95,0,1
0,61,0,105
0,63,90,9
0,71,0,6
0,95,49,9
0,78,0,170
0,80,105,9
0,66,71,0
0,95,0,111
0,66,0,90
0,56,0,12
0,52,95,27
0,95,52,0
0,71,78,0
0,66,71,0
0,63,0,20
0,71,0,0
0,59,95,24
0,71,81,15
0,66,0,3
0,95,0,108
0,80,0,102
0,71,0,18
0,76,110,9
0,95,55,0
0,66,71,74
0,95,0,111
0,66,0,90
0,52,0,30
0,57,95,9
0,95,55,0
0,71,78,0
0,66,71,0
0,71,0,20
0,59,0,15
0,64,95,9
0,71,83,15
0,66,0,3
0,95,0,108
0,76,0,120
0,71,0,0
0,81,110,9
0,95,49,0
0,66,71,179
0,95,0,111
0,66,0,90
0,95,52,39
0,71,78,0
0,66,71,0
0,71,0,20
0,71,84,39
0,66,0,3
0,95,0,108
0,71,0,120
0,95,55,9
0,66,71,74
0,95,0,111
0,66,0,90
0,95,55,39
0,71,78,0
0,66,71,0
0,71,0,20
0,95,0,20
0,57,0,10
0,71,79,9
0,66,0,3
0,95,82,107
0,95,0,1
0,64,0,105
0,78,117,6
0,81,0,9
0,71,0,0
0,54,102,1
0,35,104,8
0,95,49,0
0,66,127,0
0,61,102,146
0,73,76,0
0,66,71,18
0,35,0,31
0,73,0,52
0,95,0,28
0,75,76,0
0,66,0,6
0,95,52,39
0,71,78,0
0,66,71,0
0,54,0,70
0,54,97,32
0,75,0,61
0,73,78,0
0,71,0,20
0,71,81,39
0,66,0,3
0,73,0,32
0,61,0,43
0,61,97,9
0,95,0,24
0,75,77,0
0,71,0,91
0,95,55,9
0,75,0,68
0,73,67,0
0,73,0,47
0,66,0,18
0,66,71,9
0,75,76,0
0,95,0,96
0,66,0,90
0,95,55,39
0,71,78,0
0,66,71,0
0,71,0,20
0,54,0,12
0,56,90,9
0,71,83,18
0,66,0,3
0,75,0,13
0,95,0,95
0,61,0,87
0,63,90,9
0,78,0,6
0,80,105,9
0,71,0,9
0,37,97,9
0,95,49,0
0,68,125,0
0,75,80,0
0,75,0,91
0,66,71,32
0,76,89,0
0,37,0,4
0,95,0,80
0,75,77,0
0,56,0,3
0,76,0,0
0,66,0,6
0,52,95,21
0,95,52,18
0,71,78,0
0,66,71,0
0,75,0,113
0,68,0,18
0,71,95,0
0,63,0,2
0,80,0,12
0,71,0,6
0,59,95,6
0,76,110,15
0,64,125,18
0,71,84,0
0,66,0,3
0,68,84,0
0,71,0,28
0,95,0,58
0,68,0,45
0,71,95,0
0,71,0,61
0,95,55,9
0,66,71,74
0,71,0,88
0,64,0,23
0,95,0,0
0,66,0,90
0,52,0,12
0,76,0,0
0,81,110,9
0,57,95,0
0,95,55,18
0,69,127,0
0,71,78,0
0,66,71,0
0,59,0,17
0,71,0,3
0,64,95,6
0,95,0,14
0,75,78,0
0,71,79,15
0,66,0,3
0,75,0,33
0,95,88,74
0,95,0,1
0,76,95,0
0,71,0,99
0,33,100,9
0,95,49,0
0,76,0,52
0,75,65,0
0,75,0,101
0,33,0,5
0,66,71,9
0,76,95,0
0,95,0,91
0,66,0,90
0,95,52,39
0,71,78,0
0,66,71,0
0,76,0,108
0,71,0,20
0,69,0,30
0,75,80,0
0,71,81,5
0,66,0,3
0,75,0,35
0,95,0,73
0,76,95,0
0,71,0,71
0,95,55,9
0,76,0,153
0,75,76,0
0,66,71,74
0,75,0,28
0,76,95,0
0,95,0,46
0,66,0,90
0,95,55,39
0,71,78,0
0,66,71,0
0,71,0,20
0,57,0,12
0,56,84,9
0,71,83,18
0,66,0,3
0,76,0,38
0,75,76,0
0,95,0,16
0,75,0,25
0,64,0,62
0,63,84,9
0,81,0,6
0,80,99,9
0,71,0,9
0,28,100,9
0,95,49,0
0,68,127,0
0,75,81,0
0,66,71,179
0,28,0,51
0,75,0,52
0,95,0,8
0,71,95,0
0,71,0,61
0,66,0,20
0,95,52,39
0,71,78,0
0,66,71,0
0,71,95,0
0,71,0,20
0,71,84,39
0,66,0,3
0,71,0,57
0,69,95,0
0,95,0,31
0,69,0,92
0,71,95,0
0,71,0,19
0,95,55,9
0,68,0,65
0,66,71,9
0,95,0,111
0,71,0,47
0,66,0,43
0,30,100,39
0,95,55,0
0,71,78,0
0,66,71,0
0,71,0,20
0,95,0,20
0,71,79,19
0,73,82,0
0,66,0,1
0,73,0,45
0,30,0,43
0,95,88,19
0,95,0,1
0,56,0,102
0,63,0,0
0,80,0,0
0,75,82,0
0,78,117,2
0,54,102,0
0,71,0,9
0,35,104,9
0,95,49,0
0,66,127,0
0,75,0,110
0,61,102,36
0,73,80,0
0,66,71,18
0,35,0,31
0,95,0,80
0,73,0,82
0,66,0,8
0,75,76,0
0,95,52,0
0,71,78,0
0,66,71,0
0,54,0,93
0,54,97,9
0,75,0,20
0,71,0,0
0,71,81,39
0,66,0,3
0,73,82,0
0,61,0,73
0,61,97,9
0,95,0,24
0,73,0,95
0,71,0,25
0,95,55,9
0,75,76,0
0,73,76,0
0,75,0,5
0,66,0,65
0,66,71,9
0,95,0,111
0,73,0,10
0,75,74,0
0,66,0,54
0,95,55,39
0,71,78,0
0,66,71,0
0,75,0,128
0,73,84,0
0,71,0,20
0,54,0,12
0,56,90,9
0,71,83,18
0,66,0,3
0,73,0,55
0,95,0,53
0,61,0,87
0,63,90,9
0,78,0,6
0,80,105,9
0,76,86,0
0,71,0,4
0,37,97,9
0,95,49,0
0,68,125,0
0,76,0,52
0,75,84,0
0,66,71,33
0,37,0,31
0,75,0,52
0,71,90,0
0,95,0,14
0,56,0,84
0,66,0,6
0,52,95,21
0,95,52,18
0,71,78,0
0,66,71,0
0,71,0,115
0,68,0,16
0,63,0,2
0,80,0,12
0,71,0,6
0,59,95,6
0,76,110,15
0,64,125,18
0,71,84,0
0,66,0,3
0,71,90,0
0,71,0,61
0,95,0,23
0,71,84,0
0,71,0,49
0,95,55,9
0,71,0,42
0,69,90,0
0,66,71,18
0,64,0,111
0,95,0,0
0,66,0,90
0,52,0,12
0,76,0,0
0,81,110,9
0,57,95,0
0,42,88,18
0,95,55,0
0,69,127,0
0,71,78,0
0,66,71,0
0,69,0,55
0,59,0,17
0,71,0,3
0,64,95,6
0,95,0,14
0,71,79,19
0,66,0,3
0,42,0,48
0,95,88,59
0,95,0,1
0,76,95,0
0,71,0,14
0,33,100,9
0,95,49,0
0,76,0,24
0,75,82,0
0,66,71,145
0,33,0,11
0,95,0,100
0,75,0,60
0,76,95,0
0,66,0,9
0,95,52,39
0,71,78,0
0,66,71,0
0,76,0,65
0,75,76,0
0,71,0,20
0,69,0,30
0,71,81,9
0,66,0,3
0,95,0,108
0,75,0,115
0,76,95,0
0,71,0,1
0,95,55,9
0,76,0,133
0,75,75,0
0,66,71,48
0,76,95,0
0,75,0,1
0,95,0,8
0,66,0,90
0,95,55,39
0,71,78,0
0,66,71,0
0,71,0,20
0,76,0,9
0,57,0,3
0,56,84,9
0,71,83,18
0,66,0,3
0,95,0,108
0,64,0,87
0,63,84,9
0,81,0,6
0,80,99,9
0,71,0,9
0,28,100,9
0,95,49,0
0,68,127,0
0,75,76,0
0,66,71,38
0,28,0,51
0,75,0,42
0,95,0,18
0,66,0,90
0,76,95,0
0,95,52,8
0,71,78,0
0,66,71,0
0,75,86,0
0,76,0,8
0,71,0,20
0,71,84,39
0,66,0,3
0,95,0,108
0,75,0,5
0,71,95,0
0,71,0,94
0,95,55,9
0,68,0,65
0,66,71,9
0,95,0,111
0,71,0,54
0,66,0,36
0,42,88,39
0,95,55,0
0,71,78,0
0,66,71,0
0,71,0,20
0,95,0,20
0,71,79,19
0,66,0,3
0,42,0,88
0,95,88,19
0,95,0,1
0,56,0,102
0,63,0,0
0,80,0,0
0,78,117,9
0,66,127,0
0,54,102,0
0,71,0,9
0,35,104,9
0,95,49,0
0,66,127,0
0,61,102,146
0,66,71,33
0,35,0,31
0,95,0,80
0,73,86,0
0,52,114,8
0,66,0,81
0,95,52,39
0,71,78,0
0,66,71,0
0,73,0,28
0,54,0,65
0,54,97,9
0,73,86,0
0,71,0,4
0,52,0,30
0,51,122,9
0,71,81,0
0,66,0,3
0,61,0,75
0,61,97,9
0,95,0,24
0,71,0,120
0,95,55,9
0,52,110,120
0,51,0,41
0,66,0,65
0,66,71,9
0,71,86,0
0,73,0,13
0,95,0,88
0,66,0,90
0,51,119,39
0,95,55,0
0,71,78,0
0,66,71,0
0,52,0,33
0,71,0,20
0,54,0,12
0,56,90,9
0,71,83,18
0,66,0,3
0,95,0,108
0,52,110,9
0,51,0,36
0,66,0,24
0,61,0,18
0,63,90,9
0,78,0,6
0,80,105,9
0,68,126,0
0,71,0,9
0,37,97,9
0,95,49,0
0,68,125,0
0,71,0,147
0,51,114,32
0,66,71,0
0,52,0,11
0,37,0,20
0,95,0,80
0,56,0,84
0,66,0,6
0,52,95,21
0,95,52,18
0,71,78,0
0,66,71,0
0,52,110,120
0,68,0,11
0,51,0,0
0,63,0,2
0,80,0,12
0,71,0,6
0,59,95,6
0,68,0,6
0,76,110,9
0,64,126,0
0,64,125,18
0,71,84,0
0,66,0,3
0,95,0,108
0,71,0,120
0,51,118,9
0,95,55,0
0,52,0,11
0,66,71,74
0,51,0,106
0,64,0,5
0,95,0,0
0,52,110,9
0,66,0,81
0,52,0,12
0,76,0,0
0,81,110,9
0,69,127,0
0,57,95,0
0,42,88,18
0,95,55,0
0,69,127,0
0,71,78,0
0,66,71,0
0,59,0,17
0,71,0,3
0,95,0,20
0,69,78,0
0,51,122,10
0,71,79,0
0,66,0,3
0,52,0,20
0,42,0,28
0,69,0,40
0,95,88,19
0,95,0,1
0,71,0,120
0,33,100,9
0,95,49,0
0,69,92,0
0,51,0,42
0,52,114,17
0,66,71,120
0,33,0,11
0,95,0,100
0,66,0,90
0,52,0,30
0,51,122,9
0,95,52,0
0,71,78,0
0,66,71,0
0,71,0,20
0,69,0,30
0,69,0,2
0,71,81,7
0,66,0,3
0,95,0,108
0,52,110,9
0,51,0,41
0,71,0,70
0,95,55,9
0,51,119,74
0,66,71,0
0,52,0,33
0,95,0,78
0,73,77,0
0,66,0,24
0,95,55,39
0,71,78,0
0,66,71,0
0,52,110,120
0,51,0,36
0,71,0,20
0,57,0,12
0,56,84,9
0,71,83,18
0,66,0,3
0,95,0,108
0,64,0,34
0,63,84,62
0,81,0,6
0,69,0,0
0,71,95,0
0,80,99,2
0,68,127,0
0,71,0,9
0,73,0,2
0,28,100,7
0,51,114,0
0,95,49,0
0,68,127,0
0,52,0,11
0,66,71,179
0,28,0,51
0,95,0,60
0,52,110,9
0,51,0,11
0,66,0,70
0,95,52,39
0,71,78,0
0,66,71,0
0,71,0,20
0,51,118,39
0,71,84,0
0,66,0,3
0,52,0,8
0,95,0,100
0,71,0,120
0,95,55,9
0,71,0,48
0,51,0,58
0,52,110,14
0,68,0,65
0,66,71,9
0,95,0,111
0,66,0,90
0,42,88,39
0,51,122,0
0,95,55,0
0,71,78,0
0,66,71,0
0,52,0,23
0,71,0,20
0,95,0,20
0,71,79,19
0,66,0,3
0,95,84,57
0,42,0,31
0,51,0,12
0,95,88,7
0,95,0,1
0,68,0,2
0,56,0,27
0,63,0,0
0,80,0,0
0,78,117,9
0,54,102,0
0,71,0,5
0,35,104,9
0,61,102,1
0,66,71,4
0,35,0,31
0,66,0,15
0,75,80,34
0,71,78,5
0,66,71,0
0,54,0,37
0,54,97,9
0,71,0,15
0,73,82,0
0,75,0,2
0,71,81,4
0,66,0,3
0,61,0,22
0,73,0,0
0,61,97,9
0,75,79,0
0,71,0,1
0,64,62,4
0,64,0,12
0,66,71,4
0,66,0,15
0,71,78,14
0,66,71,0
0,71,0,20
0,54,0,12
0,75,0,8
0,56,90,1
0,73,83,0
0,71,83,8
0,66,0,3
0,61,0,62
0,63,90,1
0,78,0,6
0,80,105,9
0,71,0,9
0,66,71,164
0,71,100,0
0,73,0,3
0,56,0,74
0,66,0,6
0,52,95,21
0,71,78,18
0,66,71,0
0,63,0,2
0,80,0,12
0,71,0,6
0,59,95,6
0,76,110,15
0,71,84,18
0,66,0,3
0,71,0,228
0,66,71,19
0,66,0,20
0,52,0,12
0,76,0,0
0,81,110,1
0,57,95,0
0,71,0,9
0,71,78,9
0,66,71,0
0,59,0,17
0,71,0,3
0,64,95,6
0,95,0,0
0,71,79,19
0,66,0,3
0,47,0,30
0,95,0,10
0,71,0,0
0,35,106,9
0,47,83,0
0,95,49,0
0,46,85,0
0,35,109,0
0,46,0,6
0,35,0,0
0,66,71,114
0,42,74,0
0,42,0,6
0,42,80,114
0,35,58,0
0,42,0,6
0,35,0,0
0,66,0,75
0,95,0,30
0,71,78,9
0,66,71,0
0,42,69,0
0,35,63,0
0,42,0,6
0,35,0,0
0,95,52,114
0,42,80,0
0,39,107,0
0,42,0,6
0,39,0,0
0,71,0,20
0,71,81,39
0,42,69,0
0,66,0,3
0,42,0,3
0,42,83,114
0,42,0,6
0,73,95,0
0,95,0,6
0,71,0,0
0,42,69,9
0,35,63,0
0,42,0,6
0,35,0,0
0,73,0,40
0,75,98,0
0,95,55,5
0,46,84,0
0,35,106,0
0,46,0,6
0,35,0,0
0,66,71,74
0,42,71,0
0,42,0,6
0,42,79,114
0,42,0,6
0,66,0,75
0,95,0,30
0,71,78,9
0,66,71,0
0,42,69,0
0,35,98,0
0,42,0,6
0,35,0,0
0,73,89,0
0,95,55,10
0,42,79,0
0,39,106,0
0,75,0,6
0,42,0,0
0,39,0,0
0,71,0,20
0,71,83,39
0,42,69,0
0,66,0,3
0,42,0,3
0,57,0,87
0,42,83,27
0,42,0,6
0,95,0,105
0,71,0,0
0,42,71,9
0,35,67,0
0,42,0,6
0,35,0,0
0,64,0,17
0,68,112,9
0,59,101,0
0,81,0,6
0,35,0,18
0,37,104,9
0,95,49,0
