track,note,velocity,time
6,64,101,1920
6,67,101,0
6,72,101,0
6,64,101,64
6,67,101,0
6,72,101,0
6,65,101,448
6,69,101,0
6,72,101,0
6,64,101,512
6,67,101,0
6,72,101,0
6,64,101,64
6,67,101,0
6,72,101,0
6,65,101,448
6,69,101,0
6,72,101,0
6,64,101,512
6,67,101,0
6,72,101,0
6,64,101,64
6,67,101,0
6,72,101,0
6,65,101,448
6,69,101,0
6,72,101,0
6,64,101,512
6,67,101,0
6,72,101,0
6,64,101,64
6,67,101,0
6,72,101,0
6,65,101,448
6,69,101,0
6,72,101,0
6,60,101,512
6,64,101,0
6,67,101,0
6,60,101,64
6,65,101,0
6,69,101,0
6,60,101,96
6,65,101,0
6,69,101,0
6,59,101,64
6,62,101,0
6,67,101,0
6,60,101,264
6,64,101,0
6,67,101,0
6,60,101,648
6,64,101,0
6,67,101,0
6,60,101,64
6,65,101,0
6,69,101,0
6,60,101,96
6,65,101,0
6,69,101,0
6,59,101,64
6,62,101,0
6,67,101,0
6,60,101,264
6,64,101,0
6,67,101,0
6,60,101,648
6,64,101,0
6,67,101,0
6,60,101,64
6,65,101,0
6,69,101,0
6,60,101,96
6,65,101,0
6,69,101,0
6,59,101,64
6,64,101,0
6,68,101,0
6,60,101,128
6,64,101,0
6,69,101,0
6,60,101,96
6,64,101,0
6,69,101,0
6,65,101,64
6,69,101,0
6,72,101,0
6,65,101,32
6,69,101,0
6,72,101,0
6,65,101,32
6,69,101,0
6,72,101,0
6,65,101,32
6,69,101,0
6,72,101,0
6,65,101,32
6,69,101,0
6,72,101,0
6,65,101,32
6,69,101,0
6,72,101,0
6,65,101,32
6,69,101,0
6,72,101,0
6,66,101,32
6,69,101,0
6,72,101,0
6,75,101,0
6,65,101,32
6,67,101,0
6,71,101,0
6,74,101,0
6,60,101,1664
6,64,101,0
6,69,101,0
6,60,101,320
6,64,101,0
6,69,101,0
6,60,101,832
6,64,101,0
6,69,101,0
6,60,101,320
6,64,101,0
6,69,101,0
6,60,101,832
6,64,101,0
6,67,101,0
6,60,101,64
6,65,101,0
6,69,101,0
6,60,101,96
6,65,101,0
6,69,101,0
6,59,101,64
6,62,101,0
6,67,101,0
6,60,101,264
6,64,101,0
6,67,101,0
6,60,101,648
6,64,101,0
6,67,101,0
6,60,101,64
6,65,101,0
6,69,101,0
6,60,101,96
6,65,101,0
6,69,101,0
6,59,101,64
6,62,101,0
6,67,101,0
6,60,101,264
6,64,101,0
6,67,101,0
6,60,101,648
6,64,101,0
6,67,101,0
6,60,101,64
6,65,101,0
6,69,101,0
6,60,101,96
6,65,101,0
6,69,101,0
6,59,101,64
6,64,101,0
6,68,101,0
6,60,101,128
6,64,101,0
6,69,101,0
6,60,101,96
6,64,101,0
6,69,101,0
6,65,101,64
6,69,101,0
6,72,101,0
6,65,101,32
6,69,101,0
6,72,101,0
6,65,101,32
6,69,101,0
6,72,101,0
6,65,101,32
6,69,101,0
6,72,101,0
6,65,101,32
6,69,101,0
6,72,101,0
6,65,101,32
6,69,101,0
6,72,101,0
6,65,101,32
6,69,101,0
6,72,101,0
6,66,101,32
6,69,101,0
6,72,101,0
6,75,101,0
6,65,101,32
6,67,101,0
6,71,101,0
6,74,101,0
6,60,101,1664
6,64,101,0
6,69,101,0
6,60,101,320
6,64,101,0
6,69,101,0
6,60,101,832
6,64,101,0
6,69,101,0
6,60,101,320
6,64,101,0
6,69,101,0
6,60,101,832
6,65,101,0
6,69,101,0
6,60,101,320
6,65,101,0
6,69,101,0
6,62,101,832
6,65,101,0
6,69,101,0
6,62,101,320
6,65,101,0
6,69,101,0
6,59,101,832
6,62,101,0
6,67,101,0
6,59,101,320
6,62,101,0
6,67,101,0
6,60,101,832
6,64,101,0
6,67,101,0
6,60,101,320
6,64,101,0
6,67,101,0
6,60,101,832
6,64,101,0
6,69,101,0
6,60,101,320
6,64,101,0
6,69,101,0
6,60,101,832
6,65,101,0
6,69,101,0
6,60,101,320
6,65,101,0
6,69,101,0
6,62,101,448
6,67,101,0
6,71,101,0
6,62,101,64
6,67,101,0
6,71,101,0
6,60,101,64
6,65,101,0
6,69,101,0
6,60,101,64
6,65,101,0
6,69,101,0
6,62,101,64
6,67,101,0
6,71,101,0
6,62,101,64
6,67,101,0
6,71,101,0
6,60,101,64
6,65,101,0
6,69,101,0
6,60,101,64
6,65,101,0
6,69,101,0
6,62,101,64
6,65,101,64
6,67,101,64
6,71,101,64
6,74,101,64
6,79,101,64
6,60,101,384
6,64,101,0
6,67,101,0
6,60,101,64
6,65,101,0
6,69,101,0
6,60,101,96
6,65,101,0
6,69,101,0
6,59,101,64
6,62,101,0
6,67,101,0
6,60,101,264
6,64,101,0
6,67,101,0
6,60,101,648
6,64,101,0
6,67,101,0
6,60,101,64
6,65,101,0
6,69,101,0
6,60,101,96
6,65,101,0
6,69,101,0
6,59,101,64
6,62,101,0
6,67,101,0
6,60,101,264
6,64,101,0
6,67,101,0
6,60,101,648
6,64,101,0
6,67,101,0
6,60,101,64
6,65,101,0
6,69,101,0
6,60,101,96
6,65,101,0
6,69,101,0
6,59,101,64
6,64,101,0
6,68,101,0
6,60,101,128
6,64,101,0
6,69,101,0
6,60,101,96
6,64,101,0
6,69,101,0
6,65,101,64
6,69,101,0
6,72,101,0
6,65,101,32
6,69,101,0
6,72,101,0
6,65,101,32
6,69,101,0
6,72,101,0
6,65,101,32
6,69,101,0
6,72,101,0
6,65,101,32
6,69,101,0
6,72,101,0
6,65,101,32
6,69,101,0
6,72,101,0
6,65,101,32
6,69,101,0
6,72,101,0
6,66,101,32
6,69,101,0
6,72,101,0
6,75,101,0
6,65,101,32
6,67,101,0
6,71,101,0
6,74,101,0
6,60,101,1664
6,64,101,0
6,69,101,0
6,60,101,320
6,64,101,0
6,69,101,0
6,60,101,832
6,64,101,0
6,67,101,0
6,60,101,320
6,64,101,0
6,67,101,0
6,60,101,832
6,64,101,0
6,69,101,0
6,60,101,320
6,64,101,0
6,69,101,0
6,60,101,832
6,64,101,0
6,67,101,0
6,60,101,320
6,64,101,0
6,67,101,0
6,60,101,832
6,64,101,0
6,69,101,0
6,60,101,320
6,64,101,0
6,69,101,0
6,60,101,832
6,64,101,0
6,67,101,0
6,60,101,320
6,64,101,0
6,67,101,0
6,60,101,448
6,64,101,0
6,69,101,0
7,72,79,768
7,76,79,0
7,79,79,0
7,72,79,0
7,77,79,0
7,81,79,0
7,72,79,0
7,76,79,0
7,79,79,0
7,72,79,0
7,77,79,0
7,81,79,0
7,72,79,0
7,76,79,0
7,79,79,0
7,72,79,0
7,77,79,0
7,81,79,0
7,72,79,0
7,76,79,0
7,79,79,0
7,72,79,0
7,77,79,0
7,81,79,0
7,69,79,30720
7,72,79,0
7,77,79,0
7,69,79,0
7,74,79,0
7,77,79,0
7,67,79,0
7,71,79,0
7,77,79,0
7,67,79,0
7,72,79,0
7,76,79,0
7,69,79,0
7,72,79,0
7,76,79,0
7,69,79,0
7,72,79,0
7,77,79,0
7,67,79,0
7,71,79,0
7,77,79,0
7,69,79,64
7,72,79,0
7,77,79,0
7,67,79,64
7,71,79,0
7,77,79,0
7,69,79,64
7,72,79,0
7,77,79,0
7,67,79,64
7,71,79,0
7,77,79,0
7,69,79,12288
7,72,79,0
7,76,79,0
7,67,79,0
7,72,79,0
7,76,79,0
7,69,79,0
7,72,79,0
7,76,79,0
7,67,79,0
7,72,79,0
7,76,79,0
7,69,79,0
7,72,79,0
7,76,79,0
7,67,79,0
7,72,79,0
7,76,79,0
7,69,79,0
7,72,79,0
7,76,79,0
8,64,101,1920
8,67,101,0
8,72,101,0
8,64,101,64
8,67,101,0
8,72,101,0
8,65,101,448
8,69,101,0
8,72,101,0
8,64,101,512
8,67,101,0
8,72,101,0
8,64,101,64
8,67,101,0
8,72,101,0
8,65,101,448
8,69,101,0
8,72,101,0
8,64,101,512
8,67,101,0
8,72,101,0
8,64,101,64
8,67,101,0
8,72,101,0
8,65,101,448
8,69,101,0
8,72,101,0
8,64,101,512
8,67,101,0
8,72,101,0
8,64,101,64
8,67,101,0
8,72,101,0
8,65,101,448
8,69,101,0
8,72,101,0
8,60,101,512
8,64,101,0
8,67,101,0
8,60,101,64
8,65,101,0
8,69,101,0
8,60,101,96
8,65,101,0
8,69,101,0
8,59,101,64
8,62,101,0
8,67,101,0
8,60,101,264
8,64,101,0
8,67,101,0
8,60,101,648
8,64,101,0
8,67,101,0
8,60,101,64
8,65,101,0
8,69,101,0
8,60,101,96
8,65,101,0
8,69,101,0
8,59,101,64
8,62,101,0
8,67,101,0
8,60,101,264
8,64,101,0
8,67,101,0
8,60,101,648
8,64,101,0
8,67,101,0
8,60,101,64
8,65,101,0
8,69,101,0
8,60,101,96
8,65,101,0
8,69,101,0
8,59,101,64
8,64,101,0
8,68,101,0
8,60,101,128
8,64,101,0
8,69,101,0
8,60,101,96
8,64,101,0
8,69,101,0
8,65,101,64
8,69,101,0
8,72,101,0
8,65,101,32
8,69,101,0
8,72,101,0
8,65,101,32
8,69,101,0
8,72,101,0
8,65,101,32
8,69,101,0
8,72,101,0
8,65,101,32
8,69,101,0
8,72,101,0
8,65,101,32
8,69,101,0
8,72,101,0
8,65,101,32
8,69,101,0
8,72,101,0
8,66,101,32
8,69,101,0
8,72,101,0
8,75,101,0
8,65,101,32
8,67,101,0
8,71,101,0
8,74,101,0
8,60,101,1664
8,64,101,0
8,69,101,0
8,60,101,320
8,64,101,0
8,69,101,0
8,60,101,832
8,64,101,0
8,69,101,0
8,60,101,320
8,64,101,0
8,69,101,0
8,60,101,832
8,64,101,0
8,67,101,0
8,60,101,64
8,65,101,0
8,69,101,0
8,60,101,96
8,65,101,0
8,69,101,0
8,59,101,64
8,62,101,0
8,67,101,0
8,60,101,264
8,64,101,0
8,67,101,0
8,60,101,648
8,64,101,0
8,67,101,0
8,60,101,64
8,65,101,0
8,69,101,0
8,60,101,96
8,65,101,0
8,69,101,0
8,59,101,64
8,62,101,0
8,67,101,0
8,60,101,264
8,64,101,0
8,67,101,0
8,60,101,648
8,64,101,0
8,67,101,0
8,60,101,64
8,65,101,0
8,69,101,0
8,60,101,96
8,65,101,0
8,69,101,0
8,59,101,64
8,64,101,0
8,68,101,0
8,60,101,128
8,64,101,0
8,69,101,0
8,60,101,96
8,64,101,0
8,69,101,0
8,65,101,64
8,69,101,0
8,72,101,0
8,65,101,32
8,69,101,0
8,72,101,0
8,65,101,32
8,69,101,0
8,72,101,0
8,65,101,32
8,69,101,0
8,72,101,0
8,65,101,32
8,69,101,0
8,72,101,0
8,65,101,32
8,69,101,0
8,72,101,0
8,65,101,32
8,69,101,0
8,72,101,0
8,66,101,32
8,69,101,0
8,72,101,0
8,75,101,0
8,65,101,32
8,67,101,0
8,71,101,0
8,74,101,0
8,60,101,1664
8,64,101,0
8,69,101,0
8,60,101,320
8,64,101,0
8,69,101,0
8,60,101,832
8,64,101,0
8,69,101,0
8,60,101,320
8,64,101,0
8,69,101,0
8,60,101,832
8,65,101,0
8,69,101,0
8,60,101,320
8,65,101,0
8,69,101,0
8,62,101,832
8,65,101,0
8,69,101,0
8,62,101,320
8,65,101,0
8,69,101,0
8,59,101,832
8,62,101,0
8,67,101,0
8,59,101,320
8,62,101,0
8,67,101,0
8,60,101,832
8,64,101,0
8,67,101,0
8,60,101,320
8,64,101,0
8,67,101,0
8,60,101,832
8,64,101,0
8,69,101,0
8,60,101,320
8,64,101,0
8,69,101,0
8,60,101,832
8,65,101,0
8,69,101,0
8,60,101,320
8,65,101,0
8,69,101,0
8,62,101,448
8,67,101,0
8,71,101,0
8,62,101,64
8,67,101,0
8,71,101,0
8,60,101,64
8,65,101,0
8,69,101,0
8,60,101,64
8,65,101,0
8,69,101,0
8,62,101,64
8,67,101,0
8,71,101,0
8,62,101,64
8,67,101,0
8,71,101,0
8,60,101,64
8,65,101,0
8,69,101,0
8,60,101,64
8,65,101,0
8,69,101,0
8,62,101,64
8,65,101,64
8,67,101,64
8,71,101,64
8,74,101,64
8,79,101,64
8,60,101,384
8,64,101,0
8,67,101,0
8,60,101,64
8,65,101,0
8,69,101,0
8,60,101,96
8,65,101,0
8,69,101,0
8,59,101,64
8,62,101,0
8,67,101,0
8,60,101,264
8,64,101,0
8,67,101,0
8,60,101,648
8,64,101,0
8,67,101,0
8,60,101,64
8,65,101,0
8,69,101,0
8,60,101,96
8,65,101,0
8,69,101,0
8,59,101,64
8,62,101,0
8,67,101,0
8,60,101,264
8,64,101,0
8,67,101,0
8,60,101,648
8,64,101,0
8,67,101,0
8,60,101,64
8,65,101,0
8,69,101,0
8,60,101,96
8,65,101,0
8,69,101,0
8,59,101,64
8,64,101,0
8,68,101,0
8,60,101,128
8,64,101,0
8,69,101,0
8,60,101,96
8,64,101,0
8,69,101,0
8,65,101,64
8,69,101,0
8,72,101,0
8,65,101,32
8,69,101,0
8,72,101,0
8,65,101,32
8,69,101,0
8,72,101,0
8,65,101,32
8,69,101,0
8,72,101,0
8,65,101,32
8,69,101,0
8,72,101,0
8,65,101,32
8,69,101,0
8,72,101,0
8,65,101,32
8,69,101,0
8,72,101,0
8,66,101,32
8,69,101,0
8,72,101,0
8,75,101,0
8,65,101,32
8,67,101,0
8,71,101,0
8,74,101,0
8,60,101,1664
8,64,101,0
8,69,101,0
8,60,101,320
8,64,101,0
8,69,101,0
8,60,101,832
8,64,101,0
8,67,101,0
8,60,101,320
8,64,101,0
8,67,101,0
8,60,101,832
8,64,101,0
8,69,101,0
8,60,101,320
8,64,101,0
8,69,101,0
8,60,101,832
8,64,101,0
8,67,101,0
8,60,101,320
8,64,101,0
8,67,101,0
8,60,101,832
8,64,101,0
8,69,101,0
8,60,101,320
8,64,101,0
8,69,101,0
8,60,101,832
8,64,101,0
8,67,101,0
8,60,101,320
8,64,101,0
8,67,101,0
8,60,101,448
8,64,101,0
8,69,101,0
9,36,114,1536
9,36,114,96
9,41,114,128
9,41,114,64
9,36,114,192
9,36,114,96
9,41,114,128
9,41,114,64
9,36,114,192
9,36,114,96
9,41,114,128
9,41,114,64
9,36,114,192
9,36,114,96
9,41,114,128
9,41,114,64
9,36,114,192
9,36,114,96
9,41,114,128
9,41,114,64
9,31,114,192
9,31,114,96
9,36,114,128
9,36,114,64
9,36,114,192
9,36,114,96
9,41,114,128
9,41,114,64
9,31,114,192
9,31,114,96
9,36,114,128
9,36,114,64
9,36,114,192
9,36,114,96
9,41,114,128
9,41,114,64
9,40,114,192
9,40,114,96
9,33,114,128
9,33,114,64
9,29,114,0
9,29,114,32
9,29,114,32
9,29,114,32
9,29,114,32
9,29,114,32
9,29,114,32
9,30,114,32
9,31,114,32
9,33,114,1280
9,33,114,96
9,28,114,128
9,28,114,64
9,28,114,0
9,33,114,0
9,33,114,96
9,28,114,128
9,33,114,0
9,36,114,128
9,36,114,96
9,41,114,128
9,41,114,64
9,31,114,192
9,31,114,96
9,36,114,128
9,36,114,64
9,36,114,192
9,36,114,96
9,41,114,128
9,41,114,64
9,31,114,192
9,31,114,96
9,36,114,128
9,36,114,64
9,36,114,192
9,36,114,96
9,41,114,128
9,41,114,64
9,40,114,192
9,40,114,96
9,33,114,128
9,33,114,64
9,29,114,0
9,29,114,32
9,29,114,32
9,29,114,32
9,29,114,32
9,29,114,32
9,29,114,32
9,30,114,32
9,31,114,32
9,33,114,1280
9,33,114,96
9,28,114,128
9,28,114,0
9,28,114,0
9,33,114,96
9,33,114,96
9,28,114,128
9,33,114,96
9,29,114,128
9,36,114,96
9,41,114,128
9,40,114,128
9,38,114,128
9,38,114,96
9,38,114,128
9,31,114,128
9,31,114,96
9,31,114,128
9,33,114,64
9,31,114,32
9,36,114,32
9,31,114,96
9,36,114,128
9,35,114,64
9,33,114,64
9,33,114,96
9,33,114,128
9,28,114,96
9,29,114,0
9,29,114,96
9,29,114,128
9,29,114,96
9,31,114,128
9,29,114,64
9,31,114,64
9,29,114,64
9,31,114,64
9,31,114,32
