track,note,velocity,time
0,67,64,304
0,60,64,0
0,48,64,0
0,36,64,0
0,67,99,0
0,67,0,361
0,67,103,0
0,88,29,125
0,88,0,103
0,67,0,120
0,88,29,80
0,74,107,0
0,88,0,131
0,88,29,199
0,88,0,123
0,88,29,180
0,74,64,45
0,74,0,55
0,75,101,0
0,88,0,6
0,88,29,184
0,88,0,123
0,88,29,190
0,88,0,121
0,75,0,69
0,70,98,0
0,88,29,115
0,67,0,61
0,60,0,0
0,48,0,0
0,36,0,0
0,74,0,0
0,70,64,12
0,63,64,0
0,56,64,0
0,44,64,0
0,32,64,0
0,88,0,53
0,88,29,189
0,70,0,1
0,70,99,0
0,88,0,30
0,88,29,187
0,88,0,118
0,88,29,187
0,70,0,51
0,72,96,0
0,88,0,35
0,88,29,190
0,88,0,123
0,88,29,199
0,88,0,126
0,88,29,202
0,88,0,111
0,88,29,214
0,72,0,21
0,88,0,87
0,88,29,219
0,88,0,111
0,88,29,209
0,88,0,106
0,88,29,217
0,88,0,118
0,88,29,217
0,88,0,111
0,88,30,239
0,70,0,38
0,63,0,0
0,56,0,0
0,44,0,0
0,32,0,0
0,67,64,12
0,60,64,0
0,48,64,0
0,36,64,0
0,88,0,83
0,82,33,202
0,82,0,146
0,67,97,0
0,82,48,163
0,82,0,128
0,67,0,40
0,67,102,0
0,82,45,143
0,82,0,111
0,67,0,27
0,67,103,0
0,82,45,140
0,82,0,121
0,67,0,57
0,82,30,152
0,74,107,0
0,82,0,11
0,82,40,12
0,82,0,46
0,82,45,344
0,82,0,106
0,74,0,79
0,75,95,0
0,82,40,163
0,82,0,111
0,75,0,232
0,82,44,42
0,70,88,0
0,82,0,89
0,70,0,207
0,82,43,69
0,70,94,0
0,82,0,50
0,82,42,287
0,70,0,44
0,67,0,12
0,60,0,0
0,48,0,0
0,36,0,0
0,70,64,12
0,62,64,0
0,55,64,0
0,43,64,0
0,31,64,0
0,67,89,0
0,82,0,15
0,82,44,297
0,82,0,101
0,82,39,297
0,82,0,96
0,82,35,289
0,82,0,123
0,82,36,264
0,67,0,121
0,82,0,2
0,82,39,245
0,82,0,126
0,82,38,269
0,82,0,133
0,82,40,247
0,82,0,136
0,82,40,239
0,82,0,146
0,82,39,244
0,82,0,153
0,82,41,247
0,70,0,18
0,62,0,0
0,55,0,0
0,43,0,0
0,31,0,0
0,70,101,0
0,70,63,5
0,63,61,0
0,60,58,0
0,51,51,0
0,44,53,0
0,82,0,121
0,82,41,224
0,70,0,6
0,70,100,0
0,82,0,19
0,70,0,209
0,82,41,15
0,68,98,0
0,82,0,111
0,82,40,231
0,82,0,133
0,68,0,141
0,63,95,0
0,82,39,83
0,82,0,136
0,82,36,246
0,63,0,18
0,70,102,0
0,82,0,100
0,82,37,230
0,70,0,16
0,82,0,115
0,70,100,0
0,82,38,220
0,70,0,58
0,68,101,0
0,82,0,71
0,82,38,249
0,82,0,138
0,68,0,190
0,82,41,60
0,82,0,133
0,68,106,0
0,68,0,181
0,82,39,51
0,67,102,0
0,70,0,41
0,63,0,0
0,60,0,0
0,51,0,0
0,44,0,0
0,67,54,12
0,60,70,0
0,55,32,0
0,48,55,0
0,41,66,0
0,82,0,68
0,82,41,232
0,67,0,13
0,65,95,0
0,82,0,8
0,82,39,262
0,65,0,43
0,82,0,67
0,63,95,0
0,82,38,162
0,82,0,128
0,63,0,163
0,65,96,0
0,82,45,50
0,82,0,136
0,65,0,77
0,67,97,0
0,82,41,165
0,82,0,128
0,67,0,135
0,65,95,0
0,82,42,72
0,82,0,131
0,82,43,247
0,65,0,26
0,63,88,0
0,82,0,111
0,82,43,86
0,82,0,25
0,82,45,67
0,63,0,10
0,82,0,45
0,82,47,22
0,67,0,43
0,60,0,0
0,55,0,0
0,48,0,0
0,41,0,0
0,70,66,12
0,63,66,0
0,58,66,0
0,51,66,0
0,46,66,0
0,39,66,0
0,43,57,0
0,82,0,60
0,43,0,7
0,43,34,12
0,43,0,62
0,46,74,12
0,82,49,49
0,46,0,10
0,46,45,12
0,82,0,88
0,46,0,20
0,70,100,0
0,43,66,0
0,43,0,67
0,46,69,12
0,43,45,0
0,82,54,52
0,46,0,23
0,43,0,0
0,46,45,12
0,82,0,32
0,46,0,10
0,46,62,12
0,70,0,27
0,46,0,60
0,48,46,12
0,70,100,0
0,82,57,51
0,48,0,11
0,46,62,12
0,82,0,103
0,46,0,5
0,48,42,12
0,48,0,108
0,50,70,12
0,50,0,108
0,43,32,12
0,82,54,35
0,43,0,70
0,46,36,12
0,82,0,53
0,46,0,5
0,50,65,12
0,50,0,0
0,46,36,12
0,82,64,36
0,46,0,21
0,43,57,12
0,82,0,17
0,43,0,15
0,43,34,12
0,43,0,108
0,46,74,12
0,46,0,87
0,46,45,12
0,82,55,7
0,82,0,7
0,46,0,20
0,43,66,12
0,43,0,108
0,46,69,12
0,43,45,0
0,46,0,47
0,43,0,0
0,46,45,12
0,82,52,50
0,46,0,58
0,46,62,12
0,82,0,7
0,46,0,47
0,48,46,12
0,48,0,20
0,46,62,12
0,82,55,72
0,46,0,12
0,48,42,12
0,82,0,56
0,48,0,0
0,50,70,12
0,70,0,78
0,50,0,30
0,43,32,12
0,43,0,108
0,82,60,12
0,46,36,0
0,82,0,47
0,46,0,25
0,50,65,12
0,50,0,10
0,46,36,12
0,70,0,108
0,63,0,0
0,58,0,0
0,51,0,0
0,46,0,0
0,39,0,0
0,46,0,0
0,70,66,12
0,65,66,0
0,58,66,0
0,53,66,0
0,46,66,0
0,34,66,0
0,43,57,0
0,82,54,12
0,43,0,17
0,82,0,2
0,43,34,10
0,43,0,25
0,46,74,12
0,46,0,2
0,46,45,12
0,82,55,20
0,46,0,88
0,43,66,12
0,82,0,3
0,43,0,92
0,46,69,12
0,43,45,0
0,46,0,32
0,43,0,0
0,46,45,12
0,82,55,52
0,46,0,2
0,46,62,12
0,82,0,18
0,46,0,32
0,48,46,12
0,48,0,25
0,46,62,12
0,82,51,62
0,46,0,17
0,48,42,12
0,82,0,30
0,48,0,42
0,50,70,12
0,50,0,0
0,43,32,12
0,82,52,97
0,43,0,11
0,46,36,12
0,82,0,65
0,46,0,22
0,50,65,12
0,50,0,108
0,46,36,12
0,82,51,102
0,46,0,6
0,43,57,12
0,82,0,80
0,43,0,5
0,43,34,12
0,43,0,27
0,46,74,12
0,81,65,100
0,46,0,8
0,46,45,12
0,46,0,65
0,81,0,8
0,43,66,4
0,43,0,22
0,46,69,12
0,43,45,0
0,46,0,85
0,43,0,0
0,46,45,12
0,81,65,34
0,46,0,43
0,46,62,12
0,81,0,30
0,46,0,57
0,48,46,12
0,48,0,97
0,46,62,12
0,80,61,100
0,46,0,8
0,48,42,12
0,48,0,65
0,50,70,12
0,80,0,8
0,50,0,90
0,43,32,12
0,43,0,108
0,46,36,12
0,80,61,9
0,46,0,5
0,50,65,12
0,80,0,31
0,50,0,50
0,46,36,12
0,70,0,25
0,65,0,0
0,58,0,0
0,53,0,0
0,46,0,0
0,34,0,0
0,46,0,0
0,43,57,12
0,79,65,65
0,43,0,30
0,43,34,12
0,79,0,17
0,43,0,50
0,46,74,12
0,46,0,97
0,46,45,12
0,78,56,107
0,46,0,1
0,43,66,12
0,43,0,108
0,46,69,12
0,43,45,0
0,78,0,15
0,46,0,93
0,43,0,0
0,46,45,12
0,46,0,52
0,46,62,12
0,77,59,62
0,46,0,27
0,48,46,12
0,70,87,0
0,77,0,81
0,48,0,20
0,46,62,12
0,70,0,0
0,46,0,108
0,48,42,12
0,70,88,0
0,48,0,48
0,50,70,12
0,76,65,17
0,50,0,91
0,43,32,12
0,70,0,18
0,76,0,25
0,43,0,65
0,46,36,12
0,72,88,0
0,46,0,21
0,50,65,12
0,75,66,67
0,50,0,41
0,46,36,12
0,72,0,98
0,75,0,2
0,46,0,8
0,43,57,12
0,43,0,108
0,43,34,12
0,67,91,0
0,43,0,43
0,46,74,12
0,74,72,2
0,46,0,106
0,46,45,12
0,74,0,60
0,67,0,21
0,46,0,27
0,43,66,12
0,43,0,108
0,46,69,12
0,43,45,0
0,73,65,30
0,70,96,0
0,46,0,28
0,43,0,0
0,46,45,7
0,73,0,58
0,46,0,50
0,46,62,12
0,46,0,108
0,48,46,12
0,70,0,33
0,72,67,14
0,48,0,61
0,46,62,12
0,72,0,83
0,46,0,25
0,48,42,12
0,77,93,0
0,48,0,47
0,50,70,12
0,71,65,92
0,50,0,16
0,43,32,12
0,43,0,108
0,46,36,12
0,71,0,33
0,46,0,75
0,50,65,12
0,50,0,108
0,46,36,12
0,70,66,20
0,77,0,61
0,76,92,11
0,46,0,16
0,43,57,12
0,70,0,53
0,43,0,55
0,43,34,12
0,43,0,108
0,46,74,12
0,69,67,57
0,46,0,51
0,46,45,12
0,69,0,78
0,46,0,30
0,43,66,12
0,43,0,108
0,46,69,12
0,43,45,0
0,46,0,108
0,43,0,0
0,46,45,12
0,67,63,17
0,46,0,91
0,67,0,2
0,46,62,10
0,46,0,108
0,48,46,12
0,48,0,108
0,46,62,12
0,66,66,32
0,46,0,76
0,48,42,12
0,66,0,53
0,76,0,20
0,48,0,35
0,50,70,12
0,50,0,55
0,43,32,12
0,64,68,89
0,43,0,13
0,46,36,12
0,46,0,108
0,64,0,5
0,50,65,7
0,50,0,108
0,46,36,12
0,46,0,108
0,43,57,12
0,63,67,27
0,43,0,81
0,43,34,12
0,63,0,48
0,43,0,60
0,46,74,12
0,46,0,108
0,46,45,12
0,62,53,105
0,46,0,3
0,43,66,12
0,62,0,51
0,43,0,57
0,46,69,12
0,43,45,0
0,46,0,108
0,43,0,0
0,46,45,12
0,46,0,108
0,60,64,2
0,46,62,10
0,60,0,88
0,46,0,20
0,48,46,12
0,48,0,108
0,46,62,12
0,46,0,108
0,48,42,12
0,58,64,27
0,48,0,37
0,50,70,12
0,58,0,22
0,50,0,63
0,43,32,12
0,43,0,108
0,46,36,12
0,56,69,85
0,46,0,23
0,50,65,12
0,56,0,25
0,50,0,20
0,46,36,12
0,46,0,108
0,43,57,12
0,43,0,108
0,43,34,12
0,55,65,10
0,43,0,5
0,46,74,12
0,55,0,52
0,46,0,55
0,46,45,12
0,46,0,108
0,43,66,12
0,54,59,9
0,43,0,0
0,46,69,12
0,43,45,0
0,54,0,44
0,46,0,23
0,43,0,0
0,46,45,12
0,46,0,108
0,46,62,12
0,52,55,9
0,46,0,6
0,48,46,9
0,48,0,108
0,46,62,12
0,52,0,38
0,46,0,70
0,48,42,12
0,48,0,108
0,50,70,12
0,70,92,0
0,51,50,43
0,50,0,63
0,43,32,12
0,70,0,13
0,51,0,80
0,43,0,15
0,46,36,12
0,70,95,0
0,46,0,11
0,50,65,12
0,50,0,108
0,49,44,2
0,46,36,10
0,70,0,10
0,46,0,98
0,38,59,12
0,43,57,0
0,72,94,0
0,49,0,18
0,43,0,10
0,43,34,12
0,38,0,78
0,43,0,30
0,46,74,12
0,72,0,91
0,46,0,17
0,46,45,12
0,47,51,52
0,46,0,56
0,38,67,12
0,43,66,0
0,67,94,0
0,47,0,43
0,43,0,45
0,46,69,12
0,43,45,0
0,38,0,36
0,46,0,72
0,43,0,0
0,46,45,12
0,67,0,48
0,46,46,42
0,46,0,18
0,46,62,12
0,46,0,108
0,70,93,0
0,38,72,10
0,48,46,0
0,46,0,6
0,48,0,102
0,46,62,12
0,38,0,108
0,46,0,0
0,48,42,12
0,70,0,26
0,48,0,82
0,50,70,12
0,44,40,37
0,50,0,71
0,38,93,12
0,43,32,0
0,77,89,0
0,44,0,10
0,43,0,88
0,46,36,12
0,46,0,108
0,50,65,12
0,38,0,41
0,50,0,67
0,42,39,12
0,46,36,0
0,42,0,103
0,46,0,5
0,38,100,12
0,43,57,0
0,43,0,108
0,43,34,12
0,43,0,108
0,46,74,12
0,38,0,36
0,77,0,25
0,76,90,21
0,46,0,26
0,46,45,12
0,46,0,108
0,38,101,12
0,43,66,0
0,43,0,108
0,46,69,12
0,43,45,0
0,46,0,108
0,43,0,0
0,46,45,12
0,38,0,13
0,46,0,95
0,46,62,12
0,46,0,108
0,38,107,12
0,48,46,0
0,48,0,108
0,46,62,12
0,46,0,108
0,48,42,12
0,38,0,11
0,48,0,97
0,50,70,12
0,50,0,108
0,38,112,12
0,43,32,0
0,43,0,108
0,46,36,12
0,46,0,108
0,50,65,12
0,38,0,8
0,50,0,100
0,46,36,12
0,46,0,108
0,38,118,12
0,43,57,0
0,43,0,108
0,43,34,12
0,43,0,108
0,46,74,12
0,38,0,21
0,76,0,29
0,46,0,58
0,46,45,12
0,46,0,108
0,38,124,12
0,43,66,0
0,43,0,108
0,46,69,12
0,43,45,0
0,46,0,108
0,43,0,0
0,46,45,12
0,38,0,23
0,46,0,85
0,46,62,12
0,46,0,108
0,60,49,12
0,38,126,0
0,48,46,0
0,48,0,108
0,46,62,12
0,46,0,108
0,48,42,12
0,38,0,31
0,48,0,77
0,50,70,12
0,50,0,108
0,38,126,12
0,43,32,0
0,43,0,108
0,46,36,12
0,46,0,108
0,50,65,12
0,38,0,28
0,50,0,80
0,46,36,12
0,88,34,2
0,88,0,68
0,46,0,38
0,38,126,12
0,43,57,0
0,43,0,108
0,43,34,12
0,88,36,95
0,43,0,13
0,38,0,10
0,46,74,2
0,88,0,46
0,46,0,62
0,46,45,12
0,46,0,108
0,38,126,12
0,43,66,0
0,88,36,20
0,88,0,73
0,43,0,15
0,46,69,12
0,43,45,0
0,38,0,106
0,46,0,2
0,43,0,0
0,46,45,12
0,88,35,77
0,46,0,31
0,46,62,12
0,88,0,30
0,46,0,78
0,38,126,12
0,48,46,0
0,48,0,108
0,46,62,12
0,88,36,17
0,88,0,73
0,46,0,18
0,48,42,12
0,38,0,8
0,70,91,0
0,48,0,78
0,50,70,12
0,70,0,61
0,88,36,19
0,50,0,28
0,38,126,12
0,43,32,0
0,88,0,33
0,43,0,75
0,70,92,0
0,46,36,3
0,46,0,108
0,50,65,12
0,88,37,15
0,38,0,46
0,70,0,4
0,88,0,26
0,50,0,17
0,46,36,12
0,46,0,108
0,38,126,12
0,43,57,0
0,72,96,0
0,88,36,40
0,43,0,36
0,43,34,12
0,88,0,25
0,38,0,81
0,43,0,2
0,46,74,12
0,72,0,5
0,46,0,103
0,46,45,12
0,88,36,10
0,88,0,71
0,67,94,0
0,46,0,6
0,38,126,12
0,43,66,0
0,43,0,108
0,46,69,12
0,43,45,0
0,88,37,57
0,38,0,44
0,46,0,7
0,43,0,0
0,67,0,7
0,46,45,5
0,88,0,8
0,46,0,100
0,46,62,12
0,70,98,0
0,88,36,13
0,46,0,3
0,38,126,12
0,48,46,0
0,88,0,61
0,48,0,47
0,46,62,12
0,46,0,108
0,48,42,12
0,70,0,10
0,38,0,1
0,88,37,34
0,48,0,63
0,50,70,12
0,88,0,3
0,50,0,105
0,38,126,12
0,43,32,0
0,82,42,35
0,77,96,0
0,88,36,17
0,82,0,9
0,43,0,7
0,46,36,12
0,88,0,58
0,46,0,50
0,50,65,12
0,38,0,11
0,50,0,97
0,46,36,12
0,88,37,35
0,82,42,12
0,46,0,61
0,88,0,5
0,38,126,7
0,43,57,0
0,82,0,8
0,43,0,100
0,43,34,12
0,88,35,95
0,43,0,13
0,46,74,12
0,38,0,16
0,82,41,31
0,88,0,6
0,46,0,55
0,46,45,12
0,82,0,13
0,77,0,58
0,76,88,11
0,46,0,26
0,38,126,12
0,43,66,0
0,88,35,37
0,43,0,71
0,88,0,10
0,46,69,2
0,43,45,0
0,82,41,52
0,46,0,56
0,43,0,0
0,38,0,3
0,46,45,9
0,82,0,13
0,88,36,94
0,46,0,1
0,46,62,12
0,88,0,68
0,46,0,40
0,38,126,12
0,48,46,0
0,82,42,45
0,48,0,63
0,46,62,12
0,82,0,31
0,88,35,21
0,46,0,56
0,48,42,12
0,88,0,10
0,38,0,11
0,48,0,87
0,50,70,12
0,82,42,35
0,50,0,73
0,88,36,2
0,38,126,10
0,43,32,0
