track,note,velocity,time
3,63,120,0
3,63,0,48
3,72,120,0
3,72,0,48
3,72,120,0
3,72,0,204
3,68,120,0
3,68,0,48
3,75,120,0
3,75,0,48
3,73,120,0
3,73,0,48
3,72,120,0
3,72,0,108
3,68,120,0
3,68,0,96
3,70,120,0
3,70,0,48
3,75,120,0
3,75,0,48
3,73,120,0
3,73,0,48
3,72,120,0
3,72,0,108
3,68,120,0
3,68,0,144
3,75,120,0
3,75,0,48
3,73,120,0
3,73,0,48
3,72,120,0
3,72,0,108
3,68,120,0
3,68,0,144
3,63,120,0
3,63,0,48
3,72,120,0
3,72,0,48
3,72,120,0
3,72,0,204
3,72,120,0
3,72,0,48
3,77,120,0
3,77,0,48
3,72,120,0
3,72,0,48
3,70,120,0
3,70,0,156
3,83,120,0
3,83,0,144
3,82,120,0
3,82,0,156
3,75,120,0
3,75,0,48
3,75,120,0
3,75,0,285
3,63,120,0
3,63,0,48
3,72,120,0
3,72,0,48
3,72,120,0
3,72,0,204
3,68,120,0
3,68,0,48
3,75,120,0
3,75,0,48
3,73,120,0
3,73,0,48
3,72,120,0
3,72,0,108
3,68,120,0
3,68,0,144
3,75,120,0
3,75,0,48
3,73,120,0
3,73,0,48
3,72,120,0
3,72,0,108
3,68,120,0
3,68,0,48
3,70,120,0
3,70,0,48
3,73,120,0
3,73,0,108
3,73,120,0
3,73,0,48
3,73,120,0
3,73,0,48
3,72,120,0
3,72,0,48
3,68,120,0
3,68,0,48
3,70,120,0
3,70,0,48
3,72,120,0
3,72,0,30
3,70,120,0
3,70,0,30
3,72,120,0
3,72,0,96
3,72,120,0
3,72,0,48
3,75,120,0
3,75,0,48
3,77,120,0
3,77,0,108
3,72,120,0
3,72,0,48
3,72,120,0
3,72,0,48
3,70,120,0
3,70,0,156
3,83,120,0
3,83,0,144
3,82,120,0
3,82,0,156
3,75,120,0
3,75,0,48
3,75,120,0
3,75,0,252
3,77,120,0
3,77,0,48
3,77,120,0
3,77,0,57
3,75,120,0
3,75,0,48
3,75,120,0
3,75,0,57
3,72,120,0
3,72,0,48
3,72,120,0
3,72,0,57
3,70,120,0
3,70,0,48
3,72,120,0
3,72,0,288
3,77,120,0
3,77,0,48
3,77,120,0
3,77,0,48
3,75,120,0
3,75,0,48
3,75,120,0
3,75,0,48
3,72,120,0
3,72,0,48
3,72,120,0
3,72,0,57
3,70,120,0
3,70,0,48
3,70,120,0
3,70,0,288
3,72,120,0
3,72,0,48
3,72,120,0
3,72,0,48
3,70,120,0
3,70,0,48
3,70,120,0
3,70,0,48
3,68,120,0
3,68,0,48
3,68,120,0
3,68,0,57
3,65,120,0
3,65,0,48
3,70,120,0
3,70,0,144
3,72,120,0
3,72,0,108
3,73,120,0
3,73,0,144
3,72,120,0
3,72,0,48
3,72,120,0
3,72,0,48
3,70,120,0
3,70,0,48
3,70,120,0
3,70,0,48
3,68,120,0
3,68,0,48
3,65,120,0
3,65,0,48
3,68,120,0
3,68,0,48
3,68,120,0
3,68,0,288
3,75,120,0
3,75,0,180
3,73,120,0
3,73,0,156
3,75,120,0
3,75,0,48
3,75,120,0
3,75,0,120
3,72,120,0
3,72,0,30
3,70,120,0
3,70,0,30
3,72,120,0
3,72,0,360
3,71,120,0
3,71,0,48
3,70,120,0
3,70,0,48
3,70,120,0
3,70,0,156
3,63,120,0
3,63,0,48
3,72,120,0
3,72,0,48
3,72,120,0
3,72,0,204
3,68,120,0
3,68,0,48
3,75,120,0
3,75,0,48
3,73,120,0
3,73,0,48
3,72,120,0
3,72,0,108
3,68,120,0
3,68,0,144
3,75,120,0
3,75,0,48
3,73,120,0
3,73,0,48
3,72,120,0
3,72,0,108
3,68,120,0
3,68,0,48
3,70,120,0
3,70,0,48
3,73,120,0
3,73,0,108
3,73,120,0
3,73,0,48
3,73,120,0
3,73,0,48
3,72,120,0
3,72,0,48
3,68,120,0
3,68,0,48
3,70,120,0
3,70,0,48
3,72,120,0
3,72,0,30
3,70,120,0
3,70,0,30
3,72,120,0
3,72,0,96
3,72,120,0
3,72,0,48
3,72,120,0
3,72,0,108
3,72,120,0
3,72,0,48
3,77,120,0
3,77,0,48
3,72,120,12
3,72,0,48
3,70,120,0
3,70,0,156
3,83,120,0
3,83,0,96
3,83,120,0
3,83,0,48
3,82,120,0
3,82,0,116
3,75,120,0
3,75,0,48
3,75,120,0
3,75,0,48
3,75,120,0
3,75,0,156
3,63,120,0
3,63,0,48
3,72,120,0
3,72,0,48
3,72,120,0
3,72,0,204
3,68,120,0
3,68,0,48
3,68,120,0
3,68,0,57
3,75,120,0
3,75,0,48
3,75,120,0
3,75,0,172
3,75,120,0
3,75,0,48
3,73,120,0
3,73,0,48
3,72,120,0
3,72,0,108
3,68,120,0
3,68,0,48
3,70,120,0
3,70,0,48
3,73,120,0
3,73,0,108
3,73,120,0
3,73,0,48
3,73,120,0
3,73,0,48
3,72,120,0
3,72,0,48
3,68,120,0
3,68,0,48
3,70,120,0
3,70,0,48
3,72,120,0
3,72,0,30
3,70,120,0
3,70,0,30
3,72,120,0
3,72,0,96
3,72,120,0
3,72,0,48
3,75,120,0
3,75,0,112
3,77,120,0
3,77,0,48
3,72,120,0
3,72,0,48
3,70,120,0
3,70,0,156
3,68,120,0
3,68,0,48
3,83,120,0
3,83,0,144
3,82,120,0
3,82,0,156
3,75,120,0
3,75,0,48
3,75,120,0
3,75,0,252
3,77,120,348
3,77,0,48
3,77,120,12
3,77,0,57
3,75,120,3
3,75,0,48
3,75,120,12
3,75,0,57
3,72,120,3
3,72,0,48
3,72,120,12
3,72,0,57
3,70,120,3
3,70,0,48
3,72,120,12
3,72,0,288
3,77,120,252
3,77,0,48
3,77,120,12
3,77,0,48
3,75,120,12
3,75,0,48
3,75,120,12
3,75,0,57
3,72,120,3
3,72,0,48
3,72,120,12
3,72,0,57
3,70,120,3
3,70,0,48
3,70,120,12
3,70,0,288
3,72,120,252
3,72,0,48
3,72,120,12
3,72,0,48
3,70,120,12
3,70,0,48
3,70,120,12
3,70,0,48
3,68,120,12
3,68,0,48
3,68,120,12
3,68,0,57
3,65,120,3
3,65,0,48
3,70,120,12
3,70,0,144
3,72,120,36
3,72,0,108
3,73,120,12
3,73,0,144
3,72,120,96
3,72,0,48
3,72,120,12
3,72,0,48
3,70,120,12
3,70,0,48
3,70,120,12
3,70,0,48
3,68,120,12
3,68,0,48
3,65,120,12
3,65,0,57
3,68,120,3
3,68,0,48
3,68,120,12
3,68,0,288
3,77,120,252
3,77,0,48
3,77,120,12
3,77,0,57
3,75,120,3
3,75,0,48
3,75,120,12
3,75,0,57
3,72,120,3
3,72,0,48
3,72,120,12
3,72,0,57
3,70,120,3
3,70,0,48
3,72,120,12
3,72,0,288
3,77,120,252
3,77,0,48
3,77,120,12
3,77,0,57
3,75,120,3
3,75,0,48
3,75,120,12
3,75,0,57
3,72,120,3
3,72,0,48
3,72,120,12
3,72,0,57
3,70,120,3
3,70,0,48
3,70,120,12
3,70,0,288
3,72,120,252
3,72,0,48
3,72,120,12
3,72,0,48
3,70,120,12
3,70,0,48
3,70,120,12
3,70,0,48
3,68,120,12
3,68,0,48
3,68,120,12
3,68,0,57
3,65,120,3
3,65,0,48
3,70,120,12
3,70,0,144
3,72,120,36
3,72,0,108
3,73,120,12
3,73,0,144
3,72,120,96
3,72,0,48
3,72,120,12
3,72,0,48
3,70,120,12
3,70,0,48
3,70,120,12
3,70,0,48
3,68,120,12
3,68,0,48
3,65,120,12
3,65,0,57
3,68,120,3
3,68,0,48
3,68,120,12
3,68,0,288
3,75,120,192
3,75,0,180
3,73,120,0
3,73,0,156
3,75,120,24
3,75,0,48
3,75,120,12
3,75,0,120
3,72,120,0
3,72,0,30
3,70,120,0
3,70,0,30
3,72,120,0
3,72,0,360
3,71,120,60
3,71,0,48
3,70,120,12
3,70,0,48
3,70,120,0
3,70,0,156
3,83,120,0
3,83,0,96
3,83,120,0
3,83,0,48
3,82,120,0
3,82,0,108
3,80,120,0
3,80,0,48
3,75,120,0
3,75,0,48
3,75,120,0
3,75,0,252
3,75,120,0
3,75,0,48
3,83,120,0
3,83,0,96
3,83,120,0
3,83,0,48
3,82,120,0
3,82,0,108
3,80,120,0
3,80,0,108
3,75,120,0
3,75,0,108
3,75,120,0
3,75,0,30
3,73,120,0
3,73,0,30
3,75,120,0
3,75,0,240
3,75,120,0
3,75,0,48
3,83,120,0
3,83,0,96
3,83,120,0
3,83,0,48
3,82,120,0
3,82,0,108
3,80,120,0
3,80,0,48
3,83,120,0
3,83,0,60
3,82,120,0
3,82,0,48
3,82,120,0
3,82,0,48
3,82,120,0
3,82,0,48
3,82,120,0
3,82,0,48
3,80,120,0
3,80,0,48
3,80,120,0
3,80,0,48
3,80,120,0
3,80,0,96
3,75,120,0
3,75,0,48
3,75,120,0
3,75,0,48
3,75,120,0
3,75,0,48
3,75,120,0
3,75,0,48
3,75,120,0
3,75,0,48
3,75,120,0
3,75,0,48
3,75,120,0
3,75,0,48
3,68,120,0
3,68,0,48
3,68,120,0
3,68,0,48
3,72,120,0
3,72,0,48
3,72,120,0
3,72,0,30
3,70,120,0
3,70,0,30
3,72,120,0
3,72,0,300
3,77,120,0
3,77,0,48
3,77,120,0
3,77,0,57
3,75,120,0
3,75,0,48
3,75,120,0
3,75,0,57
3,72,120,0
3,72,0,48
3,72,120,0
3,72,0,57
3,70,120,0
3,70,0,48
3,72,120,0
3,72,0,288
3,70,120,0
3,70,0,48
3,72,120,0
3,72,0,48
3,73,120,0
3,73,0,57
3,75,120,0
3,75,0,96
3,70,120,0
3,70,0,108
3,72,120,0
3,72,0,48
3,72,120,0
3,72,0,48
3,70,120,0
3,70,0,48
3,70,120,0
3,70,0,48
3,68,120,0
3,68,0,48
3,68,120,0
3,68,0,57
3,65,120,0
3,65,0,48
3,70,120,0
3,70,0,144
3,72,120,0
3,72,0,108
3,73,120,0
3,73,0,144
3,72,120,0
3,72,0,48
3,72,120,0
3,72,0,48
3,70,120,0
3,70,0,48
3,70,120,0
3,70,0,48
3,68,120,0
3,68,0,48
3,65,120,0
3,65,0,57
3,68,120,0
3,68,0,48
3,68,120,0
3,68,0,288
3,75,120,0
3,75,0,173
3,73,120,7
3,73,0,156
3,75,120,0
3,75,0,48
3,75,120,0
3,75,0,120
3,72,120,0
3,72,0,30
3,70,120,0
3,70,0,30
3,72,120,0
3,72,0,360
3,71,120,0
3,71,0,48
3,70,120,0
3,70,0,48
3,70,120,0
3,70,0,156
3,68,120,0
3,68,0,60
3,72,120,0
3,72,0,108
3,72,120,0
3,72,0,30
3,70,120,0
3,70,0,30
3,68,120,0
3,68,0,240
4,56,100,8574
4,56,0,48
4,56,100,12
4,56,0,30
4,56,100,30
4,56,0,30
4,56,100,30
4,56,0,30
4,56,100,30
4,56,0,30
4,56,100,30
4,56,0,30
4,56,100,30
4,56,0,30
4,56,100,30
4,56,0,30
4,56,100,30
4,56,0,30
4,56,100,30
4,56,0,384
4,60,100,1536
4,60,0,48
4,61,100,12
4,61,0,48
4,60,100,12
4,60,0,48
4,60,100,12
4,60,0,252
4,56,100,948
4,56,0,48
4,56,100,12
4,56,0,30
4,56,100,30
4,56,0,30
4,56,100,30
4,56,0,30
4,56,100,30
4,56,0,30
4,56,100,30
4,56,0,30
4,56,100,30
4,56,0,30
4,56,100,30
4,56,0,30
4,56,100,30
4,56,0,30
4,56,100,30
4,56,0,96
4,68,100,384
4,68,0,144
4,67,100,36
4,67,0,108
4,63,100,12
4,63,0,96
4,58,100,24
4,58,0,444
4,70,100,96
4,70,0,144
4,68,100,36
4,68,0,108
4,65,100,12
4,65,0,96
4,61,100,24
4,61,0,444
4,58,100,96
4,58,0,180
4,60,100,0
4,60,0,120
4,61,100,0
4,61,0,120
4,70,100,0
4,70,0,240
4,68,100,0
4,68,0,300
4,56,100,5220
4,56,0,48
4,56,100,12
4,56,0,30
4,56,100,30
4,56,0,30
4,56,100,30
4,56,0,30
4,56,100,30
4,56,0,30
4,56,100,30
4,56,0,30
4,56,100,30
4,56,0,30
4,56,100,30
4,56,0,30
4,56,100,30
4,56,0,30
4,56,100,30
4,56,0,384
4,60,100,1536
4,60,0,48
4,61,100,12
4,61,0,48
4,60,100,12
4,60,0,48
4,60,100,12
4,60,0,252
4,56,100,948
4,56,0,48
4,56,100,12
4,56,0,30
4,56,100,30
4,56,0,30
4,56,100,30
4,56,0,30
4,56,100,30
4,56,0,30
4,56,100,30
4,56,0,30
4,56,100,30
4,56,0,30
4,56,100,30
4,56,0,30
4,56,100,30
4,56,0,30
4,56,100,30
4,56,0,96
4,68,100,384
4,68,0,144
4,67,100,36
4,67,0,108
4,63,100,12
4,63,0,96
4,58,100,24
4,58,0,444
4,70,100,96
4,70,0,144
4,68,100,36
4,68,0,108
4,65,100,12
4,65,0,96
4,61,100,24
4,61,0,444
4,58,100,96
4,58,0,180
4,60,100,0
4,60,0,120
4,61,100,0
4,61,0,120
4,70,100,0
4,70,0,240
4,68,100,0
4,68,0,300
4,56,100,480
4,56,0,96
4,68,100,384
4,68,0,144
4,67,100,36
4,67,0,108
4,63,100,12
4,63,0,96
4,58,100,24
4,58,0,444
4,70,100,96
4,70,0,144
4,68,100,36
4,68,0,108
4,65,100,12
4,65,0,96
4,61,100,24
4,61,0,444
4,58,100,96
4,58,0,180
4,60,100,0
4,60,0,120
4,61,100,0
4,61,0,120
4,70,100,0
4,70,0,240
4,68,100,0
4,68,0,300
4,56,100,2400
4,56,0,48
4,58,100,12
4,58,0,48
4,60,100,12
4,60,0,48
4,58,100,12
4,58,0,60
4,56,100,0
4,56,0,192
4,64,100,1428
4,71,100,0
4,71,0,60
4,64,0,0
4,63,100,0
4,70,100,0
4,70,0,48
4,63,0,0
4,63,100,12
4,70,100,0
4,70,0,48
4,63,0,0
4,63,100,12
4,70,100,0
4,70,0,48
4,63,0,0
4,65,100,12
4,68,100,0
4,68,0,48
4,65,0,0
4,61,100,12
4,68,100,0
4,68,0,48
4,61,0,0
4,61,100,12
4,68,100,0
4,68,0,48
4,61,0,0
4,61,100,12
4,68,100,0
4,68,0,96
4,61,0,0
4,58,100,444
4,58,0,48
4,56,100,12
4,56,0,48
4,56,100,12
4,56,0,48
4,56,100,12
4,56,0,48
4,56,100,12
4,56,0,48
4,56,100,12
4,56,0,48
4,56,100,12
4,56,0,48
4,56,100,12
4,56,0,48
4,60,100,12
4,60,0,48
4,60,100,12
4,60,0,30
4,58,100,0
4,58,0,30
4,60,100,0
4,60,0,300
4,65,100,660
4,65,0,48
4,65,100,12
4,65,0,57
4,63,100,3
4,63,0,48
4,63,100,12
4,63,0,57
4,60,100,3
4,60,0,48
4,60,100,12
4,60,0,57
4,63,100,3
4,63,0,48
4,58,100,12
4,58,0,384
4,70,100,96
4,70,0,144
4,68,100,36
4,68,0,108
4,65,100,12
4,65,0,96
4,61,100,24
4,61,0,48
4,58,100,12
4,58,0,180
4,60,100,0
4,60,0,120
4,61,100,0
4,61,0,120
4,70,100,0
4,70,0,240
4,68,100,0
4,68,0,300
5,75,84,449
5,75,0,60
5,77,84,0
5,77,0,60
5,75,84,0
5,75,0,60
5,77,84,0
5,77,0,60
5,75,84,0
5,75,0,60
5,77,84,0
5,77,0,60
5,75,84,0
5,75,0,60
5,77,84,0
5,77,0,60
5,75,84,0
5,75,0,480
5,70,84,0
5,70,0,60
5,72,84,0
5,72,0,60
5,70,84,0
5,70,0,60
5,72,84,0
5,72,0,60
5,70,84,0
5,70,0,60
5,72,84,0
5,72,0,60
5,70,84,0
5,70,0,60
5,72,84,0
5,72,0,60
5,70,84,0
5,70,0,480
5,70,84,0
5,70,0,60
5,72,84,0
5,72,0,60
5,70,84,0
5,70,0,60
5,72,84,0
5,72,0,120
5,70,84,0
5,70,0,60
5,72,84,0
5,72,0,60
5,77,84,0
5,77,0,60
5,75,84,0
5,75,0,480
5,75,84,0
5,75,0,60
5,77,84,0
5,77,0,60
