track,note,velocity,time
1,71,100,2400
1,71,0,60
1,69,100,0
1,69,0,60
1,69,100,0
1,69,0,60
1,64,100,0
1,64,0,60
1,67,100,0
1,67,0,60
1,69,100,0
1,69,0,60
1,69,100,0
1,69,0,240
1,69,100,180
1,69,0,60
1,69,100,0
1,69,0,60
1,71,100,0
1,71,0,120
1,69,100,0
1,69,0,120
1,69,100,0
1,69,0,120
1,64,100,0
1,64,0,120
1,67,100,0
1,67,0,120
1,69,100,0
1,69,0,60
1,67,100,0
1,67,0,60
1,67,100,0
1,67,0,60
1,66,100,60
1,66,0,60
1,69,100,0
1,69,0,120
1,69,100,0
1,69,0,60
1,69,100,0
1,69,0,120
1,69,100,0
1,69,0,120
1,69,100,0
1,69,0,60
1,64,100,0
1,64,0,60
1,67,100,0
1,67,0,120
1,69,100,0
1,69,0,120
1,67,100,0
1,67,0,60
1,67,100,60
1,67,0,60
1,69,100,0
1,69,0,120
1,69,100,0
1,69,0,60
1,69,100,0
1,69,0,120
1,69,100,0
1,69,0,120
1,64,100,0
1,64,0,120
1,67,100,0
1,67,0,120
1,69,100,0
1,69,0,60
1,67,100,0
1,67,0,60
1,67,100,0
1,67,0,120
1,64,100,0
1,64,0,60
1,67,100,120
1,67,0,120
1,64,100,0
1,64,0,120
1,67,100,120
1,67,0,60
1,64,100,0
1,64,0,60
1,67,100,60
1,67,0,60
1,67,100,0
1,67,0,60
1,64,100,0
1,64,0,60
1,67,100,0
1,67,0,60
1,67,100,0
1,67,0,60
1,64,100,0
1,64,0,120
1,67,100,0
1,67,0,120
1,64,100,0
1,64,0,120
1,76,100,120
1,76,0,60
1,78,100,0
1,78,0,60
1,67,100,60
1,67,0,60
1,67,100,0
1,67,0,60
1,64,100,0
1,64,0,60
1,67,100,0
1,67,0,60
1,67,100,0
1,67,0,60
1,69,100,0
1,69,0,120
1,64,100,1680
1,64,0,120
1,71,100,120
1,71,0,60
1,69,100,0
1,69,0,60
1,69,100,0
1,69,0,60
1,64,100,0
1,64,0,60
1,67,100,0
1,67,0,60
1,69,100,0
1,69,0,60
1,69,100,0
1,69,0,240
1,69,100,180
1,69,0,60
1,69,100,0
1,69,0,60
1,71,100,0
1,71,0,120
1,69,100,0
1,69,0,120
1,69,100,0
1,69,0,120
1,64,100,0
1,64,0,120
1,67,100,0
1,67,0,120
1,69,100,0
1,69,0,60
1,67,100,0
1,67,0,60
1,67,100,0
1,67,0,60
1,66,100,60
1,66,0,60
1,69,100,0
1,69,0,120
1,69,100,0
1,69,0,60
1,69,100,0
1,69,0,120
1,69,100,0
1,69,0,120
1,69,100,0
1,69,0,60
1,64,100,0
1,64,0,60
1,67,100,0
1,67,0,120
1,69,100,0
1,69,0,120
1,67,100,0
1,67,0,60
1,67,100,60
1,67,0,60
1,69,100,0
1,69,0,120
1,69,100,0
1,69,0,60
1,69,100,0
1,69,0,120
1,69,100,0
1,69,0,120
1,64,100,0
1,64,0,120
1,67,100,0
1,67,0,120
1,69,100,0
1,69,0,60
1,67,100,0
1,67,0,60
1,67,100,0
1,67,0,120
1,64,100,0
1,64,0,60
1,67,100,120
1,67,0,120
1,64,100,0
1,64,0,120
1,67,100,120
1,67,0,60
1,64,100,0
1,64,0,60
1,67,100,60
1,67,0,60
1,67,100,0
1,67,0,60
1,64,100,0
1,64,0,60
1,67,100,0
1,67,0,60
1,67,100,0
1,67,0,60
1,64,100,0
1,64,0,120
1,67,100,0
1,67,0,120
1,64,100,0
1,64,0,120
1,76,100,120
1,76,0,60
1,78,100,0
1,78,0,60
1,67,100,60
1,67,0,60
1,67,100,0
1,67,0,60
1,64,100,0
1,64,0,60
1,67,100,0
1,67,0,60
1,67,100,0
1,67,0,60
1,69,100,0
1,69,0,120
1,64,100,1680
1,64,0,120
1,66,100,900
1,66,0,30
1,66,100,0
1,66,0,30
1,62,100,120
1,62,0,120
1,62,100,0
1,62,0,120
1,62,100,0
1,62,0,60
1,62,100,0
1,62,0,60
1,60,100,0
1,60,0,60
1,62,100,0
1,62,0,120
1,62,100,0
1,62,0,60
1,60,100,0
1,60,0,60
1,62,100,0
1,62,0,90
1,60,100,0
1,60,0,30
1,57,100,0
1,57,0,30
1,62,100,930
1,62,0,60
1,62,100,0
1,62,0,60
1,62,100,0
1,62,0,60
1,60,100,60
1,60,0,60
1,62,100,0
1,62,0,60
1,60,100,0
1,60,0,60
1,62,100,0
1,62,0,60
1,62,100,0
1,62,0,60
1,60,100,0
1,60,0,60
1,62,100,0
1,62,0,120
1,62,100,0
1,62,0,120
1,62,100,0
1,62,0,120
1,64,100,0
1,64,0,180
1,66,100,780
1,66,0,30
1,66,100,0
1,66,0,30
1,62,100,120
1,62,0,120
1,62,100,0
1,62,0,120
1,62,100,0
1,62,0,60
1,62,100,0
1,62,0,60
1,60,100,0
1,60,0,60
1,62,100,0
1,62,0,120
1,62,100,0
1,62,0,60
1,60,100,0
1,60,0,60
1,62,100,0
1,62,0,90
1,60,100,0
1,60,0,30
1,57,100,0
1,57,0,30
1,62,100,930
1,62,0,60
1,62,100,0
1,62,0,60
1,62,100,0
1,62,0,60
1,60,100,60
1,60,0,60
1,62,100,0
1,62,0,60
1,60,100,0
1,60,0,60
1,62,100,0
1,62,0,60
1,62,100,0
1,62,0,60
1,60,100,0
1,60,0,60
1,62,100,0
1,62,0,120
1,62,100,0
1,62,0,120
1,62,100,0
1,62,0,120
1,64,100,0
1,64,0,180
1,59,100,0
1,59,0,120
1,62,100,0
1,62,0,120
1,62,100,0
1,62,0,120
1,59,100,60
1,59,0,60
1,64,100,0
1,64,0,60
1,64,100,0
1,64,0,120
1,62,100,0
1,62,0,180
1,57,100,60
1,57,0,60
1,59,100,0
1,59,0,120
1,62,100,0
1,62,0,60
1,62,100,0
1,62,0,120
1,57,100,0
1,57,0,120
1,57,100,0
1,57,0,120
1,57,100,0
1,57,0,120
1,55,100,0
1,55,0,120
1,59,100,165
1,59,0,120
1,62,100,0
1,62,0,120
1,62,100,0
1,62,0,120
1,59,100,60
1,59,0,60
1,64,100,0
1,64,0,60
1,64,100,0
1,64,0,120
1,62,100,0
1,62,0,180
1,57,100,60
1,57,0,60
1,59,100,0
1,59,0,120
1,62,100,0
1,62,0,60
1,62,100,0
1,62,0,120
1,57,100,0
1,57,0,120
1,57,100,0
1,57,0,120
1,57,100,0
1,57,0,120
1,55,100,0
1,55,0,120
1,67,100,195
1,67,0,120
1,64,100,0
1,64,0,120
1,67,100,120
1,67,0,60
1,64,100,0
1,64,0,60
1,67,100,60
1,67,0,60
1,67,100,0
1,67,0,60
1,64,100,0
1,64,0,60
1,67,100,0
1,67,0,60
1,67,100,0
1,67,0,60
1,64,100,0
1,64,0,120
1,67,100,0
1,67,0,120
1,64,100,0
1,64,0,120
1,76,100,120
1,76,0,60
1,78,100,0
1,78,0,60
1,67,100,60
1,67,0,60
1,67,100,0
1,67,0,60
1,64,100,0
1,64,0,60
1,67,100,0
1,67,0,60
1,67,100,0
1,67,0,60
1,69,100,0
1,69,0,120
1,64,100,1680
1,64,0,120
1,67,100,120
1,67,0,120
1,64,100,0
1,64,0,120
1,67,100,120
1,67,0,60
1,64,100,0
1,64,0,60
1,67,100,60
1,67,0,60
1,67,100,0
1,67,0,60
1,64,100,0
1,64,0,60
1,67,100,0
1,67,0,60
1,67,100,0
1,67,0,60
1,64,100,0
1,64,0,120
1,67,100,0
1,67,0,120
1,64,100,0
1,64,0,120
1,76,100,120
1,76,0,60
1,78,100,0
1,78,0,60
1,67,100,60
1,67,0,60
1,67,100,0
1,67,0,60
1,64,100,0
1,64,0,60
1,67,100,0
1,67,0,60
1,67,100,0
1,67,0,60
1,69,100,0
1,69,0,120
1,64,100,1680
1,64,0,120
2,71,100,480
2,67,100,0
2,62,100,0
2,62,0,180
2,67,0,0
2,71,0,0
2,62,100,0
2,67,100,0
2,71,100,0
2,71,0,180
2,67,0,0
2,62,0,0
2,69,100,0
2,62,100,0
2,66,100,0
2,66,0,600
2,62,0,0
2,69,0,0
2,62,100,120
2,67,100,0
2,71,100,0
2,71,0,120
2,67,0,0
2,62,0,0
2,62,100,0
2,66,100,0
2,69,100,0
2,69,0,720
2,66,0,0
2,62,0,0
2,71,100,0
2,67,100,0
2,62,100,0
2,62,0,180
2,67,0,0
2,71,0,0
2,62,100,0
2,67,100,0
2,71,100,0
2,71,0,180
2,67,0,0
2,62,0,0
2,69,100,0
2,62,100,0
2,66,100,0
2,66,0,600
2,62,0,0
2,69,0,0
2,62,100,120
2,67,100,0
2,71,100,0
2,71,0,120
2,67,0,0
2,62,0,0
2,62,100,0
2,66,100,0
2,69,100,0
2,69,0,720
2,66,0,0
2,62,0,0
2,71,100,5
2,67,100,0
2,62,100,0
2,62,0,180
2,67,0,0
2,71,0,0
2,62,100,0
2,67,100,0
2,71,100,0
2,71,0,180
2,67,0,0
2,62,0,0
2,69,100,0
2,62,100,0
2,66,100,0
2,66,0,600
2,62,0,0
2,69,0,0
2,62,100,120
2,67,100,0
2,71,100,0
2,71,0,120
2,67,0,0
2,62,0,0
2,62,100,0
2,66,100,0
2,69,100,0
2,71,100,715
2,67,100,0
2,62,100,0
2,69,0,5
2,62,0,0
2,66,0,0
2,71,0,175
2,67,0,0
2,62,0,0
2,62,100,0
2,67,100,0
2,71,100,0
2,71,0,180
2,67,0,0
2,62,0,0
2,69,100,0
2,62,100,0
2,66,100,0
2,66,0,600
2,62,0,0
2,69,0,0
2,62,100,120
2,67,100,0
2,71,100,0
2,71,0,120
2,67,0,0
2,62,0,0
2,62,100,0
2,66,100,0
2,69,100,0
2,69,0,720
2,66,0,0
2,62,0,0
2,71,100,0
2,67,100,0
2,62,100,0
2,62,0,180
2,67,0,0
2,71,0,0
2,62,100,0
2,67,100,0
2,71,100,0
2,71,0,180
2,67,0,0
2,62,0,0
2,69,100,0
2,62,100,0
2,66,100,0
2,66,0,600
2,62,0,0
2,69,0,0
2,62,100,120
2,67,100,0
2,71,100,0
2,71,0,120
2,67,0,0
2,62,0,0
2,62,100,0
2,66,100,0
2,69,100,0
2,69,0,720
2,66,0,0
2,62,0,0
2,71,100,0
2,67,100,0
2,62,100,0
2,62,0,180
2,67,0,0
2,71,0,0
2,62,100,0
2,67,100,0
2,71,100,0
2,71,0,180
2,67,0,0
2,62,0,0
2,69,100,0
2,62,100,0
2,66,100,0
2,66,0,600
2,62,0,0
2,69,0,0
2,62,100,120
2,67,100,0
2,71,100,0
2,71,0,120
2,67,0,0
2,62,0,0
2,62,100,0
2,66,100,0
2,69,100,0
2,69,0,720
2,66,0,0
2,62,0,0
2,71,100,5
2,67,100,0
2,62,100,0
2,62,0,180
2,67,0,0
2,71,0,0
2,62,100,0
2,67,100,0
2,71,100,0
2,71,0,180
2,67,0,0
2,62,0,0
2,69,100,0
2,62,100,0
2,66,100,0
2,66,0,600
2,62,0,0
2,69,0,0
2,62,100,120
2,67,100,0
2,71,100,0
2,71,0,120
2,67,0,0
2,62,0,0
2,62,100,0
2,66,100,0
2,69,100,0
2,71,100,715
2,67,100,0
2,62,100,0
2,69,0,5
2,62,0,0
2,66,0,0
2,71,0,175
2,67,0,0
2,62,0,0
2,62,100,0
2,67,100,0
2,71,100,0
2,71,0,180
2,67,0,0
2,62,0,0
2,69,100,0
2,62,100,0
2,66,100,0
2,66,0,600
2,62,0,0
2,69,0,0
2,62,100,120
2,67,100,0
2,71,100,0
2,71,0,120
2,67,0,0
2,62,0,0
2,62,100,0
2,66,100,0
2,69,100,0
2,69,0,720
2,66,0,0
2,62,0,0
2,71,100,0
2,67,100,0
2,62,100,0
2,62,0,180
2,67,0,0
2,71,0,0
2,62,100,0
2,67,100,0
2,71,100,0
2,71,0,180
2,67,0,0
2,62,0,0
2,69,100,0
2,62,100,0
2,66,100,0
2,66,0,600
2,62,0,0
2,69,0,0
2,62,100,120
2,67,100,0
2,71,100,0
2,71,0,120
2,67,0,0
2,62,0,0
2,62,100,0
2,66,100,0
2,69,100,0
2,69,0,720
2,66,0,0
2,62,0,0
2,62,100,90
2,62,0,30
2,64,100,0
2,64,0,30
2,60,100,0
2,60,0,30
2,62,100,0
2,62,0,30
2,64,100,30
2,64,0,90
2,62,100,0
2,62,0,30
2,62,100,210
2,62,0,30
2,64,100,0
2,64,0,30
2,60,100,0
2,60,0,30
2,62,100,0
2,62,0,30
2,64,100,30
2,64,0,90
2,62,100,0
2,62,0,30
2,62,100,210
2,62,0,30
2,64,100,0
2,64,0,30
2,60,100,0
2,60,0,30
2,62,100,0
2,62,0,30
2,64,100,30
2,64,0,90
2,64,100,0
2,64,0,30
2,59,100,90
2,62,100,0
2,67,100,0
2,67,0,30
2,62,0,0
2,59,0,0
2,60,100,0
2,64,100,0
2,69,100,0
2,69,0,30
2,64,0,0
2,60,0,0
2,60,100,30
2,64,100,0
2,69,100,0
2,69,0,30
2,64,0,0
2,60,0,0
2,60,100,30
2,64,100,0
2,69,100,0
2,69,0,30
2,64,0,0
2,60,0,0
2,59,100,30
2,62,100,0
2,67,100,0
2,67,0,30
2,62,0,0
2,59,0,0
2,69,100,0
2,64,100,0
2,60,100,0
2,60,0,30
2,64,0,0
2,69,0,0
2,62,100,330
2,62,0,30
2,64,100,0
2,64,0,30
2,60,100,0
2,60,0,30
2,62,100,0
2,62,0,30
2,64,100,30
2,64,0,90
2,62,100,0
2,62,0,30
2,62,100,210
2,62,0,30
2,64,100,0
2,64,0,30
2,60,100,0
2,60,0,30
2,62,100,0
2,62,0,30
2,64,100,30
2,64,0,90
2,64,100,0
2,64,0,30
2,62,100,210
2,62,0,30
2,64,100,0
2,64,0,30
2,60,100,0
2,60,0,30
2,62,100,0
2,62,0,30
2,64,100,30
2,64,0,90
2,64,100,0
2,64,0,30
2,60,100,120
2,64,100,0
2,69,100,0
2,69,0,30
2,64,0,0
2,60,0,0
2,60,100,30
2,64,100,0
2,69,100,0
2,69,0,30
2,64,0,0
2,60,0,0
2,60,100,30
2,64,100,0
2,69,100,0
2,69,0,30
2,64,0,0
2,60,0,0
2,59,100,30
2,62,100,0
2,67,100,0
2,67,0,30
2,62,0,0
2,59,0,0
2,60,100,0
2,64,100,0
2,69,100,0
2,69,0,30
2,64,0,0
2,60,0,0
2,62,100,330
2,62,0,30
2,64,100,0
2,64,0,30
2,60,100,0
2,60,0,30
2,62,100,0
2,62,0,30
2,64,100,30
2,64,0,90
2,62,100,0
2,62,0,30
2,62,100,210
2,62,0,30
2,64,100,0
2,64,0,30
2,60,100,0
2,60,0,30
2,62,100,0
2,62,0,30
2,64,100,30
2,64,0,90
2,62,100,0
2,62,0,30
2,62,100,210
2,62,0,30
2,64,100,0
2,64,0,30
2,60,100,0
2,60,0,30
2,62,100,0
2,62,0,30
2,64,100,30
2,64,0,90
2,64,100,0
2,64,0,30
2,59,100,90
2,62,100,0
2,67,100,0
2,67,0,30
2,62,0,0
2,59,0,0
2,60,100,0
2,64,100,0
2,69,100,0
2,69,0,30
2,64,0,0
2,60,0,0
2,60,100,30
2,64,100,0
2,69,100,0
2,69,0,30
2,64,0,0
2,60,0,0
2,60,100,30
2,64,100,0
2,69,100,0
2,69,0,30
2,64,0,0
2,60,0,0
2,59,100,30
2,62,100,0
2,67,100,0
2,67,0,30
2,62,0,0
2,59,0,0
2,69,100,0
2,64,100,0
2,60,100,0
2,60,0,30
2,64,0,0
2,69,0,0
2,62,100,330
2,62,0,30
2,64,100,0
2,64,0,30
2,60,100,0
2,60,0,30
2,62,100,0
2,62,0,30
2,64,100,30
2,64,0,90
2,62,100,0
2,62,0,30
2,62,100,210
2,62,0,30
2,64,100,0
2,64,0,30
2,60,100,0
2,60,0,30
2,62,100,0
2,62,0,30
2,64,100,30
2,64,0,90
2,64,100,0
2,64,0,30
2,62,100,210
2,62,0,30
2,64,100,0
2,64,0,30
2,60,100,0
2,60,0,30
2,62,100,0
2,62,0,30
2,64,100,30
2,64,0,90
2,64,100,0
2,64,0,30
