track,note,velocity,time
0,38,65,1
0,50,65,0
0,38,74,4
0,50,73,2
0,62,89,1288
0,57,96,0
0,38,78,2
0,50,91,4
0,38,50,2
0,50,50,1
0,64,100,0
0,57,100,4
0,69,50,5
0,72,51,1
0,65,50,0
0,62,51,1
0,69,79,1
0,76,69,0
0,76,0,18
0,69,0,17
0,72,71,38
0,67,71,1
0,72,0,17
0,67,0,17
0,62,69,14
0,67,72,1
0,62,0,5
0,67,0,1
0,50,0,16
0,50,0,10
0,62,0,1
0,38,0,1
0,57,0,2
0,38,0,0
0,38,0,275
0,50,0,3
0,50,52,395
0,62,64,0
0,38,85,0
0,57,55,0
0,69,85,0
0,62,69,0
0,38,73,0
0,50,71,0
0,38,75,1
0,50,96,0
0,26,115,0
0,38,100,0
0,42,90,0
0,36,105,0
0,49,98,1
0,38,83,2
0,50,90,2
0,64,0,3
0,57,0,4
0,42,0,6
0,69,0,40
0,65,0,1
0,72,0,0
0,62,0,1
0,42,90,0
0,50,0,2
0,38,0,0
0,42,0,16
0,42,90,42
0,36,0,13
0,42,0,4
0,42,90,41
0,36,105,0
0,42,0,18
0,42,90,16
0,69,67,2
0,76,85,0
0,38,110,0
0,54,125,0
0,36,0,1
0,76,90,10
0,42,0,4
0,42,90,37
0,42,0,18
0,42,90,25
0,76,0,4
0,69,0,6
0,26,0,2
0,38,0,0
0,42,0,4
0,50,0,5
0,38,0,13
0,54,0,0
0,26,100,18
0,38,100,0
0,42,90,0
0,36,105,0
0,38,0,5
0,42,0,12
0,26,0,5
0,38,0,0
0,76,0,33
0,67,75,4
0,42,90,0
0,50,62,2
0,72,86,0
0,38,57,0
0,26,99,0
0,38,100,0
0,72,90,2
0,42,0,13
0,49,0,24
0,42,90,14
0,42,0,1
0,72,0,36
0,67,0,1
0,42,90,6
0,42,0,16
0,36,0,2
0,42,90,42
0,36,105,0
0,42,0,16
0,36,0,3
0,38,0,17
0,50,0,15
0,72,0,3
0,42,90,5
0,54,125,0
0,36,105,1
0,67,89,1
0,62,67,0
0,50,56,0
0,38,60,0
0,38,110,0
0,67,90,3
0,42,0,14
0,42,90,41
0,42,0,17
0,69,0,16
0,62,0,8
0,67,0,6
0,62,0,2
0,42,90,4
0,38,0,6
0,42,0,10
0,36,0,2
0,26,0,1
0,38,0,0
0,50,0,6
0,38,0,16
0,54,0,16
0,38,0,2
0,26,98,1
0,38,100,0
0,46,90,0
0,36,105,0
0,46,0,17
0,36,0,5
0,62,0,18
0,45,63,0
0,38,0,0
0,45,86,1
0,50,0,2
0,65,85,0
0,57,72,0
0,60,85,1
0,50,0,2
0,67,0,5
0,50,0,0
0,60,82,2
0,53,75,0
0,45,71,0
0,57,77,0
0,38,0,0
0,42,90,0
0,26,0,1
0,38,0,0
0,33,101,1
0,45,100,0
0,36,105,0
0,42,0,17
0,42,90,41
0,74,85,2
0,42,0,15
0,74,0,10
0,72,85,5
0,60,0,9
0,72,0,18
0,42,90,2
0,77,85,1
0,57,0,2
0,57,0,11
0,42,0,4
0,36,0,0
0,60,0,8
0,53,0,2
0,77,0,0
0,77,85,3
0,65,0,5
0,45,0,8
0,57,0,2
0,65,70,0
0,46,115,0
0,45,0,2
0,58,63,1
0,46,71,0
0,62,98,0
0,45,0,2
0,58,111,0
0,33,0,2
0,45,0,0
0,77,0,3
0,58,94,3
0,62,93,0
0,53,82,0
0,74,85,0
0,36,105,0
0,46,76,2
0,34,105,0
0,46,100,0
0,42,90,0
0,42,0,15
0,74,0,12
0,72,85,1
0,72,0,23
0,36,0,1
0,77,85,7
0,42,90,0
0,36,105,1
0,38,110,0
0,54,125,0
0,42,0,16
0,77,0,10
0,79,85,33
0,42,90,0
0,62,0,15
0,42,0,4
0,79,0,3
0,58,0,8
0,65,0,2
0,62,0,1
0,53,0,7
0,58,0,6
0,36,0,6
0,77,90,8
0,42,90,0
0,38,0,13
0,54,0,0
0,42,0,5
0,77,0,9
0,34,0,20
0,46,0,0
0,60,65,1
0,46,0,1
0,65,86,0
0,60,91,0
0,55,85,0
0,48,56,2
0,48,96,0
0,58,0,2
0,46,0,3
0,46,0,2
0,60,82,0
0,65,86,0
0,55,77,0
0,36,102,0
0,36,100,0
0,42,90,0
0,36,105,0
0,48,80,2
0,42,0,15
0,42,90,43
0,42,0,17
0,77,85,15
0,77,0,18
0,74,85,1
0,42,90,0
0,42,0,18
0,74,0,11
0,72,85,1
0,60,0,14
0,55,0,8
0,72,0,2
0,77,85,6
0,42,90,0
0,55,0,1
0,65,0,2
0,60,0,8
0,65,0,1
0,42,0,5
0,48,0,5
0,77,0,3
0,36,0,1
0,77,85,4
0,36,0,18
0,36,0,0
0,77,0,3
0,48,0,2
0,46,68,2
0,46,57,5
0,53,72,0
0,60,0,0
0,58,61,0
0,74,85,0
0,42,90,0
0,62,108,1
0,58,73,0
0,65,86,1
0,34,104,0
0,46,100,0
0,36,105,0
0,48,0,3
0,46,111,0
0,58,76,1
0,65,96,0
0,62,100,0
0,42,0,1
0,36,0,7
0,74,0,5
0,72,85,2
0,72,0,25
0,77,85,5
0,42,90,1
0,36,105,1
0,38,110,0
0,54,125,0
0,42,0,15
0,77,0,4
0,62,0,20
0,65,0,16
0,79,85,3
0,42,90,1
0,58,0,9
0,36,0,0
0,42,0,5
0,38,0,3
0,54,0,0
0,79,0,7
0,53,0,4
0,46,0,6
0,34,0,9
0,46,0,0
0,46,0,4
0,60,83,1
0,48,68,3
0,58,0,5
0,62,0,0
0,58,0,0
0,48,91,2
0,60,73,0
0,42,90,0
0,36,102,2
0,77,91,0
0,36,100,0
0,36,105,0
0,65,0,10
0,42,0,3
0,36,0,6
0,46,0,1
0,77,0,9
0,42,90,0
0,48,0,11
0,50,63,0
0,62,67,7
0,42,0,0
0,60,0,1
0,36,0,0
0,36,0,0
0,62,93,10
0,50,93,0
0,38,103,0
0,74,100,0
0,38,100,0
0,46,90,0
0,36,105,0
0,60,0,1
0,48,0,3
0,50,0,10
0,46,0,3
0,36,0,2
0,50,0,3
0,74,0,4
0,50,53,2
0,69,98,25
0,62,89,1
0,38,0,0
0,38,0,0
0,38,77,3
0,50,98,0
0,38,98,0
0,50,96,1
0,38,91,0
0,50,70,0
0,36,105,0
0,49,98,0
0,26,114,1
0,38,100,0
0,42,90,0
0,38,85,8
0,57,69,5
0,42,0,2
0,62,0,4
0,42,90,42
0,42,0,14
0,42,90,44
0,42,0,14
0,36,0,6
0,42,90,39
0,36,105,2
0,42,0,16
0,50,0,4
0,36,0,0
0,69,77,38
0,50,78,0
0,76,83,0
0,42,90,0
0,36,105,1
0,38,110,0
0,54,125,0
0,76,90,3
0,42,0,13
0,42,90,42
0,42,0,17
0,42,90,27
0,42,0,16
0,36,0,1
0,26,0,7
0,38,0,0
0,38,0,2
0,54,0,0
0,76,0,2
0,69,0,13
0,49,0,7
0,42,90,12
0,26,98,2
0,38,100,0
0,36,105,0
0,50,0,9
0,42,0,6
0,26,0,7
0,38,0,0
0,76,0,30
0,42,90,6
0,72,93,1
0,67,86,0
0,50,78,0
0,26,98,1
0,38,100,0
0,72,90,1
0,42,0,11
0,42,90,43
0,42,0,17
0,42,90,16
0,72,0,1
0,67,0,3
0,36,0,11
0,42,0,1
0,50,0,31
0,42,90,12
0,36,105,0
0,42,0,14
0,36,0,1
0,72,0,21
0,42,90,5
0,36,105,0
0,38,110,0
0,54,125,0
0,50,66,2
0,62,71,0
0,67,89,0
0,67,90,0
0,42,0,10
0,42,90,26
0,42,0,20
0,69,0,6
0,62,0,9
0,67,0,7
0,62,0,6
0,38,0,9
0,42,90,0
0,38,0,16
0,42,0,0
0,26,0,5
0,38,0,0
0,50,0,1
0,36,0,0
0,38,0,2
0,38,0,4
0,54,0,0
0,40,29,10
0,26,101,22
0,38,100,0
0,42,90,0
0,36,105,0
0,42,0,15
0,40,0,1
0,36,0,5
0,50,0,6
0,50,0,7
0,62,0,4
0,57,0,1
0,57,38,9
0,26,0,4
0,38,0,0
0,45,69,1
0,45,68,1
0,65,91,0
0,60,82,1
0,57,77,1
0,60,82,3
0,53,78,0
0,57,83,0
0,42,90,0
0,36,105,0
0,45,82,1
0,33,103,1
0,45,100,0
0,50,0,7
0,38,0,2
0,67,0,1
0,42,0,5
0,77,85,15
0,77,0,21
0,42,90,6
0,74,85,2
0,42,0,13
0,74,0,15
0,72,85,1
0,60,0,0
0,53,0,2
0,57,0,6
0,72,0,2
0,60,0,2
0,57,0,2
0,77,85,3
0,42,90,0
0,65,0,6
0,42,0,9
0,36,0,4
0,77,0,6
0,33,0,0
0,45,0,0
0,77,85,2
0,45,0,11
0,45,0,1
0,57,0,2
0,65,98,1
0,46,76,1
0,58,73,0
0,58,76,0
0,46,79,2
0,62,93,0
0,45,0,2
0,77,0,1
0,62,89,4
0,58,75,0
0,46,76,0
0,53,72,0
0,34,103,0
0,74,85,0
0,46,100,0
0,42,90,0
0,36,105,0
0,42,0,17
0,36,0,6
0,74,0,5
0,72,85,2
0,72,0,25
0,77,85,5
0,42,90,0
0,38,110,0
0,54,125,0
0,36,105,1
0,42,0,7
0,77,0,12
0,62,0,11
0,42,90,0
0,79,85,2
0,65,0,9
0,42,0,4
0,58,0,3
0,53,0,10
0,79,0,0
0,62,0,6
0,58,0,2
0,42,90,24
0,77,90,2
0,36,0,9
0,38,0,0
0,54,0,0
0,42,0,2
0,77,0,16
0,34,0,9
0,46,0,0
0,46,0,1
0,58,0,1
0,60,67,0
0,65,82,2
0,46,0,2
0,46,0,0
0,55,83,0
0,48,80,1
0,48,96,1
0,65,73,2
0,55,73,0
0,60,89,0
0,48,70,0
0,36,102,0
0,36,100,0
0,42,90,0
0,36,105,0
0,42,0,15
0,42,90,45
0,42,0,16
0,77,85,16
0,77,0,22
0,74,85,6
0,42,90,0
0,42,0,16
0,74,0,12
0,72,85,2
0,65,0,2
0,60,0,7
0,55,0,1
0,72,0,9
0,77,85,7
0,42,90,0
0,48,0,12
0,42,0,4
0,36,0,5
0,55,0,2
0,77,0,3
0,77,85,4
0,36,0,16
0,36,0,0
0,65,0,6
0,77,0,1
0,48,0,3
0,60,0,0
0,46,66,1
0,58,59,1
0,58,71,1
0,62,96,0
0,65,89,0
0,74,85,0
0,42,90,0
0,34,103,1
0,46,100,0
0,36,105,0
0,53,73,1
0,46,47,0
0,65,91,8
0,46,100,2
0,58,115,1
0,62,108,0
0,48,0,3
0,42,0,2
0,36,0,4
0,74,0,4
0,72,85,4
0,72,0,0
0,77,85,7
0,42,90,0
0,36,105,2
0,38,110,0
0,54,125,0
0,42,0,15
0,77,0,8
0,42,90,35
0,79,85,1
0,62,0,5
0,58,0,5
0,36,0,2
0,42,0,6
0,38,0,3
0,54,0,0
0,65,0,3
0,79,0,0
0,53,0,4
0,46,0,0
0,46,0,1
0,48,73,4
0,60,72,0
0,34,0,2
0,46,0,0
0,48,98,9
0,42,90,0
0,60,83,2
0,36,103,0
0,77,91,0
0,36,100,0
0,36,105,0
0,62,0,1
0,58,0,3
0,58,0,1
0,65,0,4
0,46,0,5
0,42,0,0
0,36,0,4
0,77,0,5
0,42,90,3
0,48,0,7
0,50,73,7
0,36,0,0
0,36,0,0
0,62,77,1
0,42,0,3
0,60,0,6
0,60,0,1
0,48,0,3
0,62,85,1
0,50,98,0
0,38,100,0
0,74,100,0
0,38,100,0
0,46,90,0
0,36,105,0
0,46,0,15
0,50,0,3
0,36,0,3
0,74,0,5
0,38,0,4
0,38,0,0
0,38,62,1
0,57,64,2
0,69,93,1
0,62,0,2
0,62,86,0
0,50,93,2
0,38,108,0
0,38,86,0
0,26,114,0
0,38,100,0
0,42,90,0
0,36,105,0
0,49,98,0
0,50,73,1
0,50,85,0
0,38,77,2
0,42,0,11
0,42,90,46
0,42,0,13
0,42,90,1
0,42,0,3
0,36,0,7
0,50,0,35
0,42,90,4
0,36,105,0
0,42,0,15
0,36,0,5
0,69,67,16
0,76,85,0
0,50,70,0
0,42,90,0
0,36,105,0
0,38,110,1
0,54,125,0
0,76,90,3
0,42,0,10
0,42,90,45
0,42,0,15
0,42,90,17
0,42,0,4
0,38,0,0
0,54,0,0
0,36,0,3
0,26,0,6
0,38,0,0
0,50,0,12
0,76,0,2
0,69,0,10
0,50,46,11
0,26,100,0
0,38,100,0
0,42,90,0
0,36,105,0
0,49,0,12
0,42,0,3
0,26,0,9
0,38,0,0
0,50,0,6
0,76,0,22
0,67,83,4
0,72,98,0
0,50,69,0
0,26,99,0
0,38,100,0
0,42,90,0
0,72,90,3
0,42,0,10
0,42,90,45
0,42,0,13
0,42,90,5
0,72,0,11
0,42,0,2
0,36,0,4
0,67,0,2
0,42,90,41
0,36,105,0
0,42,0,14
0,36,0,8
0,72,0,24
0,38,0,3
0,67,90,10
0,42,90,1
0,36,105,0
0,38,110,0
0,67,100,2
0,62,73,0
0,38,82,0
0,54,125,0
0,42,0,3
0,69,0,28
0,62,0,9
0,42,90,7
0,42,0,14
0,50,0,1
0,38,0,1
0,42,90,6
0,67,0,3
0,62,0,5
0,42,0,4
0,36,0,3
0,38,0,6
0,26,0,3
0,38,0,0
0,38,0,10
0,54,0,2
0,42,90,24
0,36,105,0
0,26,99,2
0,38,100,0
0,42,0,12
0,36,0,11
0,50,0,13
0,67,0,1
0,57,0,1
0,38,0,2
0,50,0,0
0,38,0,0
0,62,0,1
0,50,0,8
0,26,0,0
0,38,0,0
0,45,75,1
0,65,96,0
0,60,85,0
0,57,75,0
0,57,77,1
0,45,89,1
0,45,89,5
0,60,89,0
0,33,103,0
0,45,100,0
0,42,90,0
0,36,105,0
0,57,93,1
0,53,83,1
0,42,0,10
0,77,85,16
0,77,0,23
0,42,90,5
0,74,85,2
0,42,0,15
0,74,0,10
0,72,85,5
0,60,0,10
0,72,0,11
0,57,0,1
0,53,0,2
0,42,90,0
0,60,0,2
0,77,85,0
0,57,0,7
0,36,0,0
0,42,0,8
0,77,0,10
0,33,0,2
0,45,0,0
0,77,85,3
0,45,0,3
0,58,76,2
0,45,0,1
0,62,98,0
0,46,65,2
0,46,78,4
0,57,0,2
0,58,73,1
0,77,0,2
0,45,0,1
0,58,73,3
0,62,85,0
0,46,87,0
0,42,90,0
0,36,105,0
0,53,72,1
0,34,103,1
0,74,85,0
0,46,100,0
0,42,0,13
0,36,0,6
0,74,0,6
0,72,85,3
0,72,0,24
0,42,90,6
0,36,105,0
0,38,110,0
0,54,125,0
0,77,85,2
0,42,0,14
0,77,0,11
0,42,90,14
0,79,85,2
0,42,0,15
0,62,0,8
0,79,0,1
0,65,0,9
0,53,0,4
0,62,0,1
0,58,0,5
0,58,0,7
0,42,90,2
0,77,85,2
0,36,0,3
0,38,0,6
0,54,0,0
0,42,0,5
0,77,0,11
0,34,0,22
0,46,0,0
0,60,68,4
0,46,0,0
0,65,89,0
0,55,78,3
0,58,0,1
0,46,0,0
0,48,59,0
0,48,83,0
0,60,82,0
0,65,75,1
0,60,82,0
0,55,83,0
0,48,86,0
0,36,101,0
0,36,100,0
0,42,90,0
0,36,105,0
0,46,0,2
0,42,0,13
0,60,0,11
0,42,90,34
0,42,0,14
0,77,85,16
0,77,0,2
0,74,85,5
0,42,90,0
0,42,0,16
0,74,0,9
0,72,85,5
0,60,0,10
0,48,0,6
0,55,0,7
0,72,0,1
0,65,0,1
0,77,85,5
0,42,90,0
0,55,0,8
0,42,0,8
0,36,0,0
0,77,0,8
0,77,85,6
0,65,0,15
0,36,0,0
0,36,0,0
0,77,0,4
0,65,77,2
0,48,0,1
0,46,76,0
0,58,73,0
0,74,85,1
0,42,90,0
0,36,105,0
0,58,75,2
0,62,103,0
0,53,82,0
0,46,71,0
0,65,93,0
0,48,0,0
0,46,82,0
0,34,103,0
0,46,100,0
0,60,0,1
0,62,89,0
0,58,68,1
0,42,0,12
0,36,0,5
0,74,0,6
0,72,85,3
0,72,0,23
0,77,85,7
0,42,90,0
0,36,105,0
0,38,110,0
0,54,125,0
