track,note,velocity,time
3,62,80,13824
3,60,80,40
3,62,80,40
3,60,80,40
3,62,80,40
3,57,80,80
3,60,80,40
3,62,80,40
3,62,80,884
3,60,80,40
3,62,80,40
3,60,80,40
3,62,80,40
3,60,80,0
3,57,80,40
3,57,80,40
3,62,80,924
3,60,80,40
3,62,80,40
3,60,80,40
3,62,80,40
3,57,80,80
3,60,80,40
3,62,80,40
3,57,80,308
3,57,80,40
3,57,80,40
3,62,80,40
3,60,80,40
3,62,80,40
3,60,80,40
3,62,80,40
3,60,80,0
3,57,80,40
3,57,80,40
3,60,80,1308
3,60,80,40
3,62,80,40
3,57,80,40
3,60,80,40
3,62,80,40
3,63,80,884
3,62,80,80
3,60,80,40
3,62,80,40
3,60,80,0
3,57,80,40
3,57,80,40
3,62,80,924
3,62,80,40
3,60,80,80
3,62,80,40
3,60,80,40
3,57,80,40
3,60,80,40
3,60,80,40
3,62,80,80
3,57,80,40
3,57,80,40
3,62,80,40
3,60,80,40
3,62,80,40
3,60,80,40
3,62,80,40
3,60,80,40
3,57,80,40
3,57,80,40
3,57,80,232
3,57,80,40
3,57,80,40
3,60,80,40
3,57,80,80
3,62,80,1808
3,60,80,40
3,62,80,40
3,60,80,40
3,62,80,116
3,60,80,40
3,62,80,40
3,60,80,40
3,62,80,40
3,60,80,0
3,57,80,40
3,57,80,40
3,69,80,616
3,69,80,40
3,62,80,1076
3,60,80,40
3,62,80,40
3,60,80,40
3,62,80,116
3,60,80,40
3,62,80,40
3,60,80,40
3,62,80,40
3,60,80,0
3,57,80,40
3,57,80,40
3,62,80,1308
3,60,80,40
3,62,80,40
3,57,80,40
3,60,80,40
3,62,80,40
3,62,80,884
3,62,80,80
3,62,80,80
3,60,80,0
3,57,80,40
3,57,80,40
3,57,80,732
3,69,80,40
3,63,80,80
3,62,80,80
3,62,80,80
3,60,80,40
3,63,80,40
3,62,80,0
3,60,80,40
3,57,80,40
3,57,80,40
3,57,80,40
3,62,80,40
3,60,80,40
3,62,80,40
3,60,80,40
3,62,80,40
3,60,80,0
3,57,80,40
3,57,80,40
3,62,80,1308
3,60,80,40
3,62,80,40
3,57,80,40
3,60,80,40
3,62,80,40
3,62,80,884
3,62,80,80
3,62,80,80
3,60,80,0
3,57,80,40
3,57,80,40
3,69,80,924
3,63,80,80
3,62,80,80
3,60,80,40
3,63,80,40
3,62,80,0
3,60,80,40
3,57,80,40
3,57,80,40
3,57,80,40
3,57,80,40
3,62,80,40
3,60,80,40
3,62,80,40
3,60,80,40
3,62,80,40
3,60,80,0
3,57,80,40
3,57,80,40
3,57,80,232
3,57,80,40
3,57,80,40
3,60,80,40
3,57,80,80
3,62,80,1808
3,60,80,80
3,62,80,40
3,60,80,80
3,62,80,80
3,60,80,40
3,62,80,40
3,60,80,40
3,62,80,40
3,60,80,0
3,62,80,40
3,64,80,40
3,69,80,616
3,69,80,40
3,62,80,1076
3,60,80,80
3,62,80,40
3,60,80,40
3,62,80,116
3,60,80,40
3,62,80,40
3,60,80,0
3,62,80,40
3,60,80,0
3,57,80,40
3,57,80,40
3,60,80,1308
3,57,80,40
3,57,80,40
3,55,80,40
3,57,80,116
3,55,80,80
3,57,80,40
3,60,80,40
3,62,80,116
3,60,80,40
3,62,80,40
3,60,80,0
3,62,80,40
3,60,80,0
3,57,80,40
3,57,80,40
3,60,80,1308
3,57,80,40
3,57,80,40
3,55,80,40
3,57,80,116
3,55,80,80
3,57,80,40
3,60,80,40
3,62,80,116
3,60,80,40
3,62,80,40
3,60,80,0
3,62,80,40
3,60,80,0
3,57,80,40
3,57,80,40
3,57,80,232
3,57,80,40
3,57,80,40
3,60,80,40
3,57,80,80
3,60,80,2384
3,64,80,80
3,57,80,1808
3,57,80,40
3,57,80,40
3,57,80,232
3,57,80,40
3,57,80,40
3,60,80,40
3,57,80,80
3,60,60,80
3,57,60,80
3,60,40,80
3,57,40,80
3,60,20,80
3,57,20,80
3,57,80,272
3,57,80,40
3,57,80,40
3,60,80,1576
3,64,80,80
3,62,80,1808
3,60,80,40
3,62,80,40
3,60,80,40
3,62,80,116
3,60,80,40
3,62,80,40
3,60,80,0
3,62,80,40
3,60,80,0
3,57,80,40
3,57,80,40
3,69,80,924
3,69,80,40
3,62,80,1076
3,60,80,40
3,62,80,40
3,60,80,40
3,62,80,116
3,60,80,40
3,62,80,40
3,60,80,0
3,62,80,40
3,60,80,0
3,57,80,40
3,57,80,40
3,62,80,1308
3,60,80,40
3,62,80,40
3,57,80,80
3,60,80,40
3,60,80,40
3,62,80,40
3,62,80,1040
3,60,80,40
3,62,80,40
3,60,80,0
3,62,80,40
3,60,80,0
3,57,80,40
3,57,80,40
3,62,80,924
3,60,80,40
3,62,80,40
3,60,80,40
3,62,80,40
3,57,80,80
3,60,80,40
3,62,80,40
3,57,80,308
3,57,80,40
3,62,80,80
3,60,80,40
3,62,80,40
3,60,80,40
3,62,80,40
3,60,80,0
3,57,80,40
3,57,80,40
3,57,80,232
3,57,80,40
3,57,80,40
3,60,80,40
3,57,80,80
3,62,80,592
3,60,80,52
3,62,80,52
3,57,80,52
3,60,80,52
3,62,80,104
3,62,80,464
3,60,80,40
3,62,80,40
3,60,80,0
3,62,80,40
3,60,80,0
3,57,80,40
3,57,80,40
3,57,80,732
3,69,80,40
3,63,80,80
3,62,80,80
3,62,80,80
3,60,80,40
3,63,80,40
3,62,80,0
3,60,80,40
3,57,80,40
3,57,80,40
3,57,80,40
3,62,80,40
3,60,80,40
3,62,80,40
3,60,80,40
3,62,80,40
3,60,80,0
3,57,80,40
3,57,80,40
3,57,80,232
3,57,80,40
3,57,80,40
3,60,80,40
3,57,80,80
3,62,80,1808
3,60,80,40
3,62,80,40
3,60,80,40
3,62,80,116
3,60,80,40
3,62,80,40
3,60,80,0
3,62,80,40
3,60,80,0
3,57,80,40
3,64,80,40
3,69,80,616
3,69,80,20
3,62,80,1556
3,60,80,40
3,62,80,40
3,60,80,40
3,62,80,116
3,60,80,40
3,62,80,40
3,60,80,0
3,62,80,40
3,60,80,0
3,57,80,40
3,57,80,40
3,69,80,924
3,69,80,40
3,71,80,0
3,62,80,1040
3,60,80,40
3,62,80,40
3,60,80,40
3,62,80,116
3,60,80,40
3,62,80,40
3,60,80,0
3,62,80,40
3,60,80,0
3,57,80,40
3,57,80,40
3,60,80,1308
3,57,80,40
3,57,80,40
3,55,80,40
3,57,80,116
3,55,80,80
3,57,80,40
3,60,80,40
3,62,80,116
3,60,80,40
3,62,80,40
3,60,80,0
3,62,80,40
3,60,80,0
3,57,80,40
3,57,80,40
3,60,80,1116
3,57,80,80
3,57,80,40
3,55,80,40
3,57,80,116
3,55,80,80
3,57,80,40
3,60,80,40
3,62,80,116
3,60,80,40
3,62,80,40
3,60,80,0
3,62,80,40
3,60,80,0
3,57,80,40
3,57,80,40
3,57,80,40
3,57,80,40
3,57,80,40
3,60,80,40
3,57,64,80
3,64,80,0
3,62,80,464
3,60,80,40
3,62,80,40
3,60,80,40
3,62,80,40
3,57,80,40
3,60,80,40
3,62,80,40
3,62,80,1192
3,60,80,40
3,62,80,40
3,60,80,0
3,62,80,40
3,60,80,0
3,57,80,40
3,57,80,40
3,62,80,924
3,60,80,40
3,62,80,40
3,60,80,40
3,62,80,40
3,57,80,80
3,60,80,40
3,62,80,40
3,57,80,464
3,57,80,40
3,62,80,80
3,60,80,40
3,62,80,40
3,60,80,40
3,62,80,40
3,60,80,40
3,57,80,40
3,57,80,40
3,57,80,232
3,57,80,40
3,57,80,40
3,60,80,40
3,57,80,80
3,62,80,1808
3,60,80,232
3,62,80,40
3,60,80,40
3,62,80,424
3,60,80,40
3,62,80,40
3,60,80,40
3,62,80,40
3,60,80,0
3,57,80,40
3,64,80,40
3,69,80,616
3,69,80,40
3,62,80,1232
3,60,80,80
3,62,80,40
3,60,80,40
3,62,80,424
3,60,80,40
3,62,80,40
3,60,80,0
3,62,80,40
3,60,80,0
3,57,80,40
3,57,80,40
3,60,80,156
3,64,80,80
3,69,80,80
3,69,80,40
3,62,80,1232
3,60,80,40
3,62,80,40
3,60,80,40
3,62,80,424
3,60,80,40
3,62,80,40
3,60,80,40
3,62,80,40
3,60,80,0
3,57,80,40
3,64,80,40
3,69,80,616
3,71,80,40
3,62,80,1424
3,60,80,40
3,62,80,40
3,60,80,40
3,62,80,424
3,60,80,40
3,62,80,40
3,60,80,0
3,62,80,40
3,60,80,0
3,57,80,40
3,57,80,40
3,62,80,924
3,60,80,40
3,62,80,40
3,60,80,0
3,62,80,40
3,60,80,0
3,57,80,40
3,57,80,40
3,62,80,460
3,60,80,40
3,62,80,40
3,60,80,0
3,62,80,40
3,60,80,0
3,57,80,40
3,57,80,40
4,64,80,13824
4,60,80,0
4,55,80,0
4,66,80,308
4,62,80,0
4,57,80,0
4,64,80,308
4,60,80,0
4,55,80,0
4,69,80,232
4,57,80,80
4,62,80,0
4,66,80,0
4,55,80,24884
4,57,80,0
4,60,80,0
4,64,80,0
4,66,80,308
4,62,80,0
4,59,80,0
4,57,80,0
4,64,80,308
4,57,80,0
4,55,80,0
4,60,80,0
4,69,80,232
4,57,80,80
4,59,80,0
4,62,80,0
4,66,80,0
4,71,80,61748
4,67,80,0
4,64,80,0
4,69,80,232
4,64,80,0
4,60,80,0
4,64,80,80
4,67,80,0
4,71,80,0
4,69,80,308
4,64,80,0
4,60,80,0
4,64,80,308
4,67,80,0
4,71,80,0
4,60,80,232
4,64,80,0
4,69,80,0
4,71,80,80
4,67,80,0
4,64,80,0
4,69,80,308
4,64,80,0
4,60,80,0
4,64,80,6452
4,60,80,0
4,55,80,0
4,57,80,308
4,62,80,0
4,66,80,0
4,55,80,308
4,60,80,0
4,64,80,0
4,69,80,232
4,57,80,80
4,62,80,0
4,66,80,0
4,71,80,24884
4,67,80,0
4,64,80,0
4,69,80,232
4,64,80,0
4,60,80,0
4,64,80,80
4,67,80,0
4,71,80,0
4,60,80,308
4,64,80,0
4,69,80,0
4,64,80,308
4,67,80,0
4,71,80,0
4,69,80,232
4,64,80,0
4,60,80,0
4,64,80,80
4,67,80,0
4,71,80,0
4,69,80,308
4,64,80,0
4,60,80,0
4,71,80,12596
4,67,80,0
4,64,80,0
4,60,80,232
4,64,80,0
4,69,80,0
4,71,80,80
4,67,80,0
4,64,80,0
4,60,80,308
4,64,80,0
4,69,80,0
4,71,80,308
4,67,80,0
4,64,80,0
4,60,80,232
4,64,80,0
4,69,80,0
4,71,80,80
4,67,80,0
4,64,80,0
4,60,80,308
4,64,80,0
4,69,80,0
5,50,80,1440
5,53,80,0
5,57,80,0
5,72,80,692
5,69,80,0
5,66,80,0
5,50,80,692
5,53,80,0
5,57,80,0
5,66,80,692
5,69,80,0
5,72,80,0
5,66,80,116
5,69,80,0
5,72,80,0
5,57,80,500
5,53,80,0
5,50,80,0
5,66,80,692
5,69,80,0
5,72,80,0
5,57,80,692
5,53,80,0
5,50,80,0
5,72,80,692
5,69,80,0
5,66,80,0
5,72,80,116
5,69,80,0
5,66,80,0
5,50,80,500
5,53,80,0
5,57,80,0
5,72,80,692
5,69,80,0
5,66,80,0
5,50,80,692
5,53,80,0
5,57,80,0
5,66,80,692
5,69,80,0
5,72,80,0
5,66,80,116
5,69,80,0
5,72,80,0
5,57,80,500
5,53,80,0
5,50,80,0
5,66,80,692
5,69,80,0
5,72,80,0
5,57,80,692
5,53,80,0
5,50,80,0
5,66,80,692
5,72,80,0
5,69,80,0
5,69,80,116
5,72,80,0
5,66,80,0
5,66,80,308
5,69,80,0
5,72,80,0
5,53,80,12404
5,50,80,0
5,57,80,0
5,66,80,692
5,69,80,0
5,72,80,0
5,72,80,1460
5,69,80,0
5,66,80,0
5,69,80,116
5,72,80,0
5,66,80,0
5,69,80,308
5,72,80,0
5,66,80,0
5,66,80,2420
5,69,80,0
5,72,80,0
5,66,80,116
5,72,80,0
5,69,80,0
5,66,80,308
5,72,80,0
5,69,80,0
5,66,80,2420
5,72,80,0
5,69,80,0
5,72,80,116
5,66,80,0
5,69,80,0
5,66,80,308
5,69,80,0
5,72,80,0
5,72,80,3956
5,69,80,0
5,66,80,0
5,66,80,1460
5,69,80,0
5,72,80,0
5,66,80,116
5,72,80,0
5,69,80,0
5,66,80,308
5,72,80,0
5,69,80,0
5,72,80,884
5,69,80,0
5,66,80,0
5,66,80,1460
5,69,80,0
5,72,80,0
5,66,80,116
5,72,80,0
5,69,80,0
5,66,80,308
5,72,80,0
5,69,80,0
5,72,80,884
5,69,80,0
5,66,80,0
5,66,80,1460
5,69,80,0
5,72,80,0
5,66,80,116
5,72,80,0
5,69,80,0
5,66,80,308
5,72,80,0
5,69,80,0
5,72,80,884
5,69,80,0
5,66,80,0
5,66,80,1460
5,69,80,0
5,72,80,0
5,69,80,116
5,66,80,0
5,72,80,0
5,66,80,308
5,72,80,0
5,69,80,0
5,69,80,5684
5,72,80,20
5,69,80,20
5,74,80,20
5,76,80,80
5,69,80,4784
5,72,80,20
5,69,80,20
5,74,80,20
5,76,80,96
5,79,80,96
5,76,80,96
5,74,80,96
5,72,80,96
5,72,80,768
5,69,80,0
5,66,80,0
5,66,80,1460
5,69,80,0
5,72,80,0
5,66,80,116
5,72,80,0
5,69,80,0
5,66,80,308
5,72,80,0
5,69,80,0
5,60,80,2420
5,72,80,0
5,69,80,0
5,66,80,0
5,57,80,20
5,69,80,0
5,72,80,0
5,66,80,0
5,60,80,20
5,57,80,20
5,62,80,20
5,69,80,0
5,72,80,0
5,66,80,0
5,64,80,20
5,66,80,2304
5,69,80,0
5,72,80,0
5,66,80,116
5,72,80,0
5,69,80,0
5,66,80,308
5,72,80,0
5,69,80,0
5,66,80,3956
5,69,80,0
5,72,80,0
5,72,80,1460
5,69,80,0
5,66,80,0
5,69,80,116
5,72,80,0
5,66,80,0
5,69,80,308
5,72,80,0
5,66,80,0
5,66,80,884
5,69,80,0
5,72,80,0
5,72,80,1460
5,69,80,0
5,66,80,0
5,69,80,116
5,72,80,0
5,66,80,0
5,69,80,308
5,72,80,0
5,66,80,0
5,72,80,884
5,69,80,0
5,66,80,0
5,66,80,1460
5,69,80,0
5,72,80,0
5,69,80,116
5,66,80,0
5,72,80,0
5,66,80,308
5,72,80,0
5,69,80,0
5,72,80,884
5,69,80,0
5,66,80,0
5,66,80,1460
5,69,80,0
5,72,80,0
5,66,80,116
5,72,80,0
5,69,80,0
5,66,80,308
5,72,80,0
5,69,80,0
5,69,80,17492
5,69,80,40
5,72,80,20
5,72,80,20
5,69,80,20
5,67,80,40
5,69,80,40
5,66,80,19144
5,69,80,0
5,72,80,0
5,72,80,1460
5,69,80,0
5,66,80,0
5,69,80,116
5,72,80,0
5,66,80,0
5,69,80,308
5,72,80,0
5,66,80,0
5,66,80,884
5,69,80,0
5,72,80,0
5,72,80,1460
5,69,80,0
5,66,80,0
5,69,80,116
5,72,80,0
5,66,80,0
5,69,80,308
5,72,80,0
5,66,80,0
5,66,80,884
5,69,80,0
5,72,80,0
5,66,80,1460
5,72,80,0
5,69,80,0
5,72,80,116
5,66,80,0
5,69,80,0
5,69,80,308
5,72,80,0
5,66,80,0
5,66,80,884
5,69,80,0
5,72,80,0
5,57,80,2228
5,50,80,0
5,53,80,0
5,66,80,692
5,69,80,0
5,72,80,0
5,57,80,692
5,53,80,0
5,50,80,0
5,72,80,692
5,69,80,0
5,66,80,0
5,72,80,116
5,69,80,0
5,66,80,0
5,50,80,500
5,53,80,0
5,57,80,0
5,66,80,692
5,69,80,0
5,72,80,0
5,57,80,692
5,53,80,0
5,50,80,0
5,72,80,692
5,69,80,0
5,66,80,0
5,72,80,116
5,69,80,0
5,66,80,0
5,50,80,500
5,53,80,0
5,57,80,0
5,66,80,692
5,69,80,0
5,72,80,0
5,57,80,692
5,53,80,0
5,50,80,0
5,72,80,692
5,69,80,0
5,66,80,0
5,72,80,116
5,69,80,0
5,66,80,0
5,50,80,500
5,53,80,0
5,57,80,0
5,72,80,692
5,69,80,0
5,66,80,0
5,50,80,692
5,53,80,0
5,57,80,0
