track,note,velocity,time
1,26,85,4616
1,26,85,1276
1,43,85,488
1,42,85,16
1,38,85,26
1,33,85,40
1,35,85,52
1,38,85,50
1,38,85,40
1,38,85,62
1,26,85,264
1,26,85,102
1,26,85,72
1,36,85,340
1,36,85,102
1,24,85,112
1,26,85,70
1,28,85,52
1,28,85,72
1,28,85,228
1,31,85,64
1,31,85,72
1,31,85,238
1,43,85,58
1,43,85,82
1,43,85,238
1,31,85,16
1,31,85,78
1,31,85,210
1,33,85,64
1,33,85,58
1,33,85,98
1,31,85,86
1,30,85,66
1,30,85,84
1,30,85,234
1,42,85,112
1,42,85,88
1,30,85,228
1,31,85,62
1,31,85,90
1,31,85,228
1,43,85,64
1,43,85,70
1,33,85,230
1,35,85,8
1,35,85,58
1,35,85,264
1,35,85,70
1,35,85,50
1,45,85,118
1,47,85,30
1,35,85,24
1,35,85,94
1,35,85,266
1,35,85,80
1,35,85,102
1,47,85,50
1,45,85,46
1,42,85,26
1,38,85,22
1,38,85,56
1,26,85,262
1,26,85,96
1,26,85,80
1,36,85,336
1,36,85,108
1,24,85,112
1,26,85,66
1,28,85,40
1,28,85,82
1,28,85,226
1,31,85,62
1,31,85,72
1,31,85,232
1,43,85,68
1,43,85,86
1,43,85,242
1,31,85,12
1,31,85,82
1,31,85,206
1,33,85,70
1,33,85,58
1,33,85,100
1,31,85,88
1,30,85,56
1,30,85,96
1,30,85,234
1,42,85,106
1,42,85,74
1,42,85,218
1,43,85,68
1,43,85,80
1,43,85,112
1,38,85,24
1,31,85,56
1,31,85,78
1,30,85,412
1,30,85,208
1,30,85,258
1,42,85,70
1,42,85,86
1,42,85,260
1,28,85,56
1,28,85,48
1,40,85,130
1,38,85,56
1,37,85,72
1,37,85,160
1,38,85,116
1,38,85,224
1,30,85,64
1,31,85,128
1,31,85,118
1,31,85,160
1,31,85,98
1,43,85,66
1,31,85,38
1,28,85,288
1,28,85,224
1,31,85,0
1,33,85,144
1,33,85,96
1,45,85,170
1,45,85,290
1,33,85,42
1,45,85,216
1,33,85,100
1,35,85,76
1,35,85,154
1,30,85,56
1,31,85,110
1,43,85,48
1,43,85,342
1,31,85,26
1,43,85,390
1,31,85,94
1,30,85,70
1,31,85,78
1,33,85,112
1,33,85,128
1,45,85,40
1,45,85,322
1,33,85,80
1,35,85,72
1,37,85,38
1,38,85,80
1,38,85,226
1,30,85,66
1,31,85,136
1,31,85,132
1,31,85,160
1,31,85,92
1,43,85,66
1,31,85,30
1,28,85,292
1,28,85,224
1,31,85,6
1,33,85,150
1,33,85,96
1,45,85,180
1,45,85,284
1,33,85,52
1,45,85,218
1,33,85,94
1,35,85,64
1,35,85,166
1,30,85,54
1,31,85,112
1,43,85,46
1,43,85,332
1,31,85,40
1,43,85,384
1,31,85,102
1,30,85,72
1,31,85,80
1,33,85,112
1,33,85,128
1,45,85,32
1,45,85,312
1,33,85,74
1,35,85,58
1,37,85,38
1,38,85,74
1,38,85,58
1,26,85,256
1,26,85,96
1,26,85,80
1,36,85,342
1,36,85,90
1,24,85,106
1,26,85,66
1,28,85,54
1,28,85,74
1,28,85,218
1,31,85,68
1,31,85,64
1,31,85,240
1,43,85,62
1,43,85,86
1,43,85,236
1,31,85,16
1,31,85,80
1,31,85,208
1,33,85,58
1,33,85,56
1,33,85,96
1,31,85,74
1,30,85,56
1,30,85,94
1,30,85,242
1,42,85,106
1,42,85,86
1,30,85,224
1,31,85,64
1,31,85,90
1,31,85,238
1,43,85,60
1,43,85,74
1,33,85,228
1,35,85,22
1,35,85,64
1,35,85,258
1,35,85,76
1,35,85,54
1,45,85,118
1,47,85,26
1,35,85,30
1,35,85,90
1,35,85,260
1,35,85,78
1,35,85,102
1,47,85,50
1,45,85,44
1,42,85,34
1,38,85,22
1,38,85,56
1,26,85,262
1,26,85,98
1,26,85,88
1,36,85,340
1,36,85,94
1,24,85,106
1,26,85,64
1,28,85,54
1,28,85,74
1,28,85,228
1,31,85,64
1,31,85,62
1,31,85,248
1,43,85,62
1,43,85,80
1,43,85,236
1,31,85,16
1,31,85,80
1,31,85,216
1,33,85,66
1,33,85,70
1,33,85,98
1,31,85,80
1,30,85,58
1,30,85,90
1,30,85,234
1,42,85,104
1,42,85,80
1,42,85,226
1,43,85,86
1,43,85,74
1,43,85,112
1,38,85,38
1,31,85,72
1,31,85,72
1,30,85,422
1,30,85,200
1,30,85,256
1,42,85,70
1,42,85,76
1,42,85,256
1,28,85,56
1,28,85,54
1,40,85,134
1,38,85,54
1,37,85,76
1,37,85,160
1,38,85,114
1,38,85,220
1,30,85,66
1,31,85,134
1,31,85,126
1,31,85,152
1,31,85,94
1,43,85,64
1,31,85,24
1,28,85,288
1,28,85,220
1,31,85,8
1,33,85,138
1,33,85,98
1,45,85,168
1,45,85,290
1,33,85,52
1,45,85,226
1,33,85,84
1,35,85,70
1,35,85,166
1,30,85,56
1,31,85,106
1,43,85,42
1,43,85,336
1,31,85,28
1,43,85,388
1,31,85,90
1,30,85,72
1,31,85,80
1,33,85,112
1,33,85,128
1,45,85,40
1,45,85,312
1,33,85,74
1,35,85,72
1,37,85,40
1,38,85,74
1,38,85,224
1,30,85,72
1,31,85,130
1,31,85,124
1,31,85,154
1,31,85,92
1,43,85,58
1,31,85,32
1,28,85,288
1,28,85,216
1,31,85,0
1,33,85,146
1,33,85,96
1,45,85,174
1,45,85,288
1,33,85,52
1,45,85,228
1,33,85,94
1,35,85,64
1,35,85,162
1,30,85,42
1,31,85,112
1,43,85,54
1,43,85,336
1,31,85,32
1,43,85,382
1,31,85,96
1,30,85,72
1,31,85,118
1,33,85,158
1,33,85,94
1,33,85,126
1,33,85,304
1,33,85,106
1,35,85,56
1,37,85,42
1,30,85,38
1,33,85,104
1,37,85,150
1,30,85,164
1,31,85,56
1,35,85,64
1,38,85,154
1,31,85,168
1,35,85,90
1,35,85,48
1,35,85,304
1,35,85,80
1,35,85,82
1,35,85,262
1,33,85,8
1,33,85,54
1,33,85,278
1,33,85,58
1,33,85,118
1,30,85,240
1,33,85,32
1,37,85,176
1,30,85,186
1,31,85,104
1,35,85,32
1,38,85,158
1,31,85,168
1,35,85,72
1,35,85,18
1,35,85,304
1,35,85,70
1,35,85,70
1,35,85,226
1,33,85,62
1,33,85,64
1,33,85,232
1,33,85,78
1,33,85,68
1,33,85,234
1,30,85,22
1,30,85,42
1,30,85,240
1,30,85,58
1,30,85,42
1,26,85,106
1,30,85,62
1,31,85,62
1,31,85,44
1,31,85,258
1,31,85,58
1,38,85,24
1,38,85,72
1,26,85,254
1,26,85,100
1,26,85,80
1,36,85,330
1,36,85,102
1,24,85,106
1,26,85,58
1,28,85,52
1,28,85,74
1,28,85,216
1,31,85,60
1,31,85,62
1,31,85,236
1,43,85,64
1,43,85,88
1,43,85,240
1,31,85,18
1,31,85,84
1,31,85,212
1,33,85,58
1,33,85,64
1,33,85,98
1,31,85,82
1,30,85,64
1,30,85,96
1,30,85,244
1,42,85,122
1,42,85,78
1,30,85,228
1,31,85,56
1,31,85,94
1,31,85,230
1,43,85,58
1,43,85,82
1,33,85,220
1,35,85,14
1,35,85,64
1,35,85,262
1,35,85,66
1,35,85,54
1,45,85,110
1,47,85,32
1,35,85,22
1,35,85,96
1,35,85,272
1,35,85,74
1,35,85,88
1,47,85,54
1,45,85,54
1,42,85,32
1,38,85,0
1,38,85,66
1,26,85,256
1,26,85,102
1,26,85,80
1,36,85,340
1,36,85,96
1,24,85,106
1,26,85,60
1,28,85,50
1,28,85,72
1,28,85,226
1,31,85,52
1,31,85,62
1,31,85,240
1,43,85,58
1,43,85,82
1,43,85,238
1,31,85,8
1,31,85,80
1,31,85,208
1,33,85,66
1,33,85,66
1,33,85,100
1,31,85,84
1,30,85,52
1,30,85,102
1,30,85,234
1,42,85,104
1,42,85,76
1,42,85,226
1,43,85,78
1,43,85,80
1,43,85,104
1,38,85,38
1,31,85,68
1,31,85,72
1,30,85,412
1,30,85,94
1,30,85,260
1,42,85,66
1,42,85,82
1,42,85,256
1,28,85,56
1,28,85,50
1,40,85,134
1,38,85,54
1,37,85,64
1,30,85,416
1,33,85,186
1,37,85,150
1,30,85,154
1,31,85,48
1,35,85,70
1,38,85,158
1,31,85,156
1,35,85,102
1,35,85,50
1,35,85,304
1,35,85,86
1,35,85,84
1,35,85,262
1,33,85,0
1,33,85,56
1,33,85,268
1,33,85,68
1,33,85,106
1,30,85,232
1,33,85,32
1,37,85,184
1,30,85,192
1,31,85,94
1,35,85,28
1,38,85,154
1,31,85,170
1,35,85,64
1,35,85,24
1,35,85,304
1,35,85,58
1,35,85,58
1,35,85,222
1,33,85,62
1,33,85,62
1,33,85,238
1,33,85,82
1,33,85,70
1,33,85,230
1,30,85,18
1,30,85,42
1,30,85,228
1,30,85,62
1,30,85,54
1,26,85,112
1,30,85,64
1,31,85,62
1,31,85,48
1,31,85,258
1,31,85,58
1,38,85,6896
1,38,85,220
1,30,85,66
1,31,85,120
1,31,85,130
1,31,85,160
1,31,85,96
1,43,85,70
1,31,85,34
1,28,85,290
1,28,85,224
1,31,85,0
1,33,85,152
1,33,85,96
1,45,85,174
1,45,85,282
1,33,85,54
1,45,85,218
1,33,85,98
1,35,85,66
1,35,85,152
1,30,85,46
1,31,85,106
1,43,85,42
1,43,85,330
1,31,85,38
1,43,85,384
1,31,85,102
1,30,85,76
1,31,85,80
1,33,85,118
1,33,85,130
1,45,85,36
1,45,85,324
1,33,85,74
1,35,85,72
1,37,85,38
1,38,85,80
1,38,85,226
1,30,85,64
1,31,85,136
1,31,85,132
1,31,85,166
1,31,85,92
1,43,85,66
1,31,85,32
1,28,85,286
1,28,85,224
1,31,85,8
1,33,85,150
1,33,85,92
1,45,85,170
1,45,85,276
1,33,85,48
1,45,85,224
1,33,85,98
1,35,85,60
1,35,85,162
1,30,85,48
1,31,85,106
1,43,85,48
1,43,85,340
1,31,85,26
1,43,85,386
1,31,85,98
1,30,85,72
1,31,85,80
1,33,85,118
1,33,85,128
1,45,85,38
1,45,85,326
1,33,85,82
1,35,85,70
1,37,85,40
1,38,85,80
1,38,85,222
1,30,85,64
1,31,85,128
1,31,85,118
1,31,85,162
1,31,85,94
1,43,85,72
1,31,85,26
1,28,85,280
1,28,85,224
1,31,85,6
1,33,85,146
1,33,85,100
1,45,85,182
1,45,85,292
1,33,85,54
1,45,85,216
1,33,85,102
1,35,85,64
1,35,85,170
1,30,85,54
1,31,85,106
1,43,85,54
1,43,85,342
1,31,85,22
1,43,85,392
1,31,85,92
1,30,85,72
1,31,85,66
1,33,85,112
1,33,85,130
1,45,85,40
1,45,85,320
1,33,85,78
1,35,85,64
1,37,85,30
1,38,85,82
1,38,85,230
1,30,85,48
1,31,85,128
1,31,85,120
1,31,85,166
1,31,85,92
1,43,85,70
1,31,85,24
1,28,85,272
1,28,85,224
1,31,85,0
1,33,85,142
1,33,85,88
1,45,85,182
1,45,85,296
1,33,85,48
1,45,85,218
1,33,85,90
1,35,85,62
1,35,85,154
1,30,85,42
1,31,85,112
1,43,85,52
1,43,85,340
1,31,85,38
1,43,85,384
1,31,85,104
1,30,85,56
1,31,85,86
1,33,85,106
1,33,85,130
1,45,85,38
1,45,85,326
1,30,85,72
1,33,85,0
1,31,85,58
1,33,85,42
1,33,85,68
1,35,85,48
1,33,85,22
1,26,85,54
2,67,85,1544
2,64,85,0
2,62,98,0
2,59,93,0
2,57,83,56
2,67,71,0
2,68,71,0
2,66,85,0
2,62,91,0
2,59,75,152
2,55,93,0
2,62,85,0
2,54,75,20
2,57,78,0
2,55,85,36
2,52,78,0
2,57,71,96
2,54,85,0
2,59,75,70
2,55,75,0
2,54,78,32
2,57,83,0
2,52,85,72
2,55,71,0
2,57,83,94
2,54,98,0
2,55,83,78
2,59,75,2
2,57,85,28
2,54,71,6
2,52,83,66
2,55,71,0
2,66,85,24
2,62,85,0
2,57,91,0
2,65,71,958
2,60,88,0
2,67,85,0
2,64,78,0
2,59,91,328
2,62,98,0
2,67,85,0
2,57,78,706
2,66,93,0
2,62,83,0
2,57,85,304
2,64,78,0
2,61,98,0
2,57,93,34
2,66,93,0
2,62,98,0
2,69,100,630
2,59,78,318
2,67,83,0
2,62,85,0
2,74,83,652
2,66,78,4
2,69,93,0
2,73,91,406
2,64,93,0
2,69,88,0
2,61,85,400
2,64,91,0
2,69,71,0
2,62,93,352
2,66,83,0
2,71,78,0
2,69,98,48
2,62,85,0
2,66,80,0
2,72,96,608
2,64,91,0
2,67,85,0
2,64,88,168
2,71,78,308
2,67,83,0
2,62,83,0
2,66,100,728
2,57,85,0
2,62,98,0
2,57,78,150
2,61,80,0
2,64,85,0
2,57,93,136
2,66,100,0
2,62,93,0
2,59,83,364
2,62,88,0
2,67,91,0
2,66,83,458
2,57,85,0
2,62,88,0
2,67,98,744
2,59,100,0
2,64,93,0
2,61,100,398
2,64,100,0
2,69,85,0
2,68,71,8
2,67,85,84
2,59,85,0
2,62,91,0
2,66,100,30
2,57,93,0
2,62,85,0
2,57,88,182
2,62,85,0
2,54,85,0
2,55,91,16
2,62,83,0
2,59,93,0
2,62,93,124
2,55,85,4
2,60,93,0
2,59,91,124
2,59,100,102
2,62,91,0
2,55,83,0
2,62,98,22
2,55,91,0
2,59,98,0
2,64,91,160
2,57,83,0
2,61,100,0
2,67,85,136
2,59,75,0
2,62,85,0
2,57,71,22
2,66,91,0
2,62,83,0
2,54,78,160
2,62,78,0
2,57,71,0
2,62,83,110
2,55,98,0
2,59,83,0
2,66,75,32
2,57,75,0
2,62,83,0
2,67,98,48
2,59,85,0
2,62,93,0
2,57,78,30
2,66,98,0
2,62,83,0
2,61,96,92
2,57,98,0
2,64,91,0
2,66,71,658
2,57,93,0
2,61,100,0
2,62,78,22
2,59,75,0
2,61,98,42
2,64,85,0
2,62,91,16
2,67,85,8
2,59,85,0
2,66,100,28
2,57,93,0
2,62,85,0
2,57,88,182
2,62,85,0
2,54,85,0
2,55,91,22
2,62,83,0
2,59,93,0
2,55,85,130
2,60,93,0
2,62,93,0
2,59,91,126
2,59,100,92
2,62,91,4
2,55,83,0
2,62,98,18
2,55,91,0
2,59,98,0
2,64,91,162
2,57,83,0
2,61,100,0
2,67,85,130
2,59,75,0
2,62,85,0
2,57,71,22
2,66,91,0
2,62,83,0
2,54,78,166
2,62,78,0
2,57,71,0
2,62,83,118
2,55,98,0
2,59,83,0
2,66,75,32
2,57,75,0
2,62,83,0
2,67,98,62
2,59,85,0
2,62,93,0
2,57,78,44
2,66,98,0
2,62,83,0
2,61,96,96
2,57,98,0
2,64,91,0
2,66,71,662
2,57,93,0
2,61,100,0
2,62,78,24
2,59,75,0
2,61,98,50
2,64,85,0
2,66,85,16
2,62,85,0
2,57,91,0
2,65,71,960
2,60,88,0
2,67,85,0
2,64,78,0
2,59,91,334
2,62,98,0
2,67,85,0
2,57,78,704
2,66,93,0
2,62,83,0
2,61,98,302
2,57,85,2
2,64,78,0
2,57,93,30
2,66,93,0
2,62,98,0
2,69,100,630
2,59,78,320
2,67,83,0
2,62,85,0
2,74,83,658
2,66,78,6
2,69,93,0
2,73,91,406
2,64,93,0
2,69,88,0
2,61,85,404
2,64,91,0
2,69,71,0
2,62,93,352
2,66,83,0
2,71,78,0
2,69,98,42
2,62,85,0
2,66,80,0
2,72,96,614
2,64,91,0
2,67,85,0
2,64,88,182
2,71,78,296
2,67,83,0
2,62,83,0
2,66,100,732
2,57,85,0
2,62,98,0
2,57,78,146
2,61,80,0
2,64,85,0
2,57,93,150
2,66,100,0
2,62,93,0
2,59,83,360
2,62,88,0
2,67,91,0
2,66,83,462
2,57,85,0
2,62,88,0
2,67,98,744
2,59,100,0
2,64,93,0
2,61,100,402
2,64,100,0
2,69,85,0
2,68,71,6
2,67,85,74
2,59,85,0
2,62,91,0
2,66,100,32
2,57,93,0
2,62,85,0
2,57,88,182
2,62,85,0
2,54,85,0
2,55,91,16
2,62,83,0
