track,note,velocity,time
1,62,80,4320
1,62,0,48
1,60,80,12
1,60,0,48
1,62,80,12
1,62,0,48
1,60,80,12
1,60,0,48
1,62,80,12
1,62,0,96
1,57,80,24
1,57,0,48
1,60,80,12
1,60,0,108
1,62,80,12
1,62,0,144
1,62,80,276
1,62,0,48
1,60,80,12
1,60,0,48
1,62,80,12
1,62,0,48
1,60,80,12
1,60,0,48
1,62,80,12
1,62,0,60
1,60,80,0
1,60,0,48
1,57,80,12
1,57,0,48
1,57,80,12
1,57,0,252
1,62,80,288
1,62,0,48
1,60,80,12
1,60,0,48
1,62,80,12
1,62,0,48
1,60,80,12
1,60,0,48
1,62,80,12
1,62,0,96
1,57,80,24
1,57,0,48
1,60,80,12
1,60,0,108
1,62,80,12
1,62,0,144
1,57,80,96
1,57,0,48
1,57,80,12
1,57,0,48
1,57,80,12
1,57,0,48
1,62,80,12
1,62,0,48
1,60,80,12
1,60,0,48
1,62,80,12
1,62,0,48
1,60,80,12
1,60,0,48
1,62,80,12
1,62,0,60
1,60,80,0
1,60,0,48
1,57,80,12
1,57,0,48
1,57,80,12
1,57,0,252
1,60,80,408
1,60,0,48
1,60,80,12
1,60,0,108
1,62,80,12
1,62,0,48
1,57,80,12
1,57,0,48
1,60,80,12
1,60,0,108
1,62,80,12
1,62,0,144
1,63,80,276
1,63,0,96
1,62,80,24
1,62,0,48
1,60,80,12
1,60,0,48
1,62,80,12
1,62,0,60
1,60,80,0
1,60,0,48
1,57,80,12
1,57,0,48
1,57,80,12
1,57,0,252
1,62,80,288
1,62,0,48
1,62,80,12
1,62,0,96
1,60,80,24
1,60,0,48
1,62,80,12
1,62,0,48
1,60,80,12
1,60,0,48
1,57,80,12
1,57,0,48
1,60,80,12
1,60,0,108
1,60,80,12
1,60,0,96
1,62,80,24
1,62,0,108
1,57,80,12
1,57,0,48
1,57,80,12
1,57,0,48
1,62,80,12
1,62,0,108
1,60,80,12
1,60,0,48
1,62,80,12
1,62,0,48
1,60,80,12
1,60,0,48
1,62,80,12
1,62,0,48
1,60,80,12
1,60,0,48
1,57,80,12
1,57,0,48
1,57,80,12
1,57,0,48
1,57,80,72
1,57,0,48
1,57,80,12
1,57,0,48
1,57,80,12
1,57,0,48
1,60,80,12
1,60,0,96
1,57,80,24
1,57,0,96
1,62,80,564
1,62,0,48
1,60,80,12
1,60,0,48
1,62,80,12
1,62,0,108
1,60,80,12
1,60,0,144
1,62,80,36
1,62,0,48
1,60,80,12
1,60,0,48
1,62,80,12
1,62,0,48
1,60,80,12
1,60,0,48
1,62,80,12
1,62,0,60
1,60,80,0
1,60,0,48
1,57,80,12
1,57,0,48
1,57,80,12
1,57,0,348
1,69,80,192
1,69,0,48
1,69,80,12
1,69,0,144
1,62,80,336
1,62,0,48
1,60,80,12
1,60,0,48
1,62,80,12
1,62,0,108
1,60,80,12
1,60,0,144
1,62,80,36
1,62,0,48
1,60,80,12
1,60,0,48
1,62,80,12
1,62,0,48
1,60,80,12
1,60,0,48
1,62,80,12
1,62,0,60
1,60,80,0
1,60,0,48
1,57,80,12
1,57,0,48
1,57,80,12
1,57,0,252
1,62,80,408
1,62,0,48
1,60,80,12
1,60,0,108
1,62,80,12
1,62,0,48
1,57,80,12
1,57,0,48
1,60,80,12
1,60,0,108
1,62,80,12
1,62,0,144
1,62,80,276
1,62,0,96
1,62,80,24
1,62,0,96
1,62,80,24
1,62,0,60
1,60,80,0
1,60,0,48
1,57,80,12
1,57,0,48
1,57,80,12
1,57,0,252
1,57,80,228
1,57,0,48
1,69,80,12
1,69,0,96
1,63,80,24
1,63,0,96
1,62,80,24
1,62,0,96
1,62,80,24
1,62,0,48
1,60,80,12
1,60,0,48
1,63,80,12
1,63,0,60
1,62,80,0
1,62,0,48
1,60,80,12
1,60,0,48
1,57,80,12
1,57,0,108
1,57,80,12
1,57,0,48
1,57,80,12
1,57,0,48
1,62,80,12
1,62,0,108
1,60,80,12
1,60,0,48
1,62,80,12
1,62,0,48
1,60,80,12
1,60,0,48
1,62,80,12
1,62,0,60
1,60,80,0
1,60,0,48
1,57,80,12
1,57,0,48
1,57,80,12
1,57,0,252
1,62,80,408
1,62,0,48
1,60,80,12
1,60,0,108
1,62,80,12
1,62,0,48
1,57,80,12
1,57,0,48
1,60,80,12
1,60,0,108
1,62,80,12
1,62,0,144
1,62,80,276
1,62,0,96
1,62,80,24
1,62,0,96
1,62,80,24
1,62,0,60
1,60,80,0
1,60,0,48
1,57,80,12
1,57,0,48
1,57,80,12
1,57,0,252
1,69,80,288
1,69,0,96
1,63,80,24
1,63,0,96
1,62,80,24
1,62,0,168
1,60,80,12
1,60,0,48
1,63,80,12
1,63,0,60
1,62,80,0
1,62,0,48
1,60,80,12
1,60,0,48
1,57,80,12
1,57,0,108
1,57,80,12
1,57,0,48
1,57,80,12
1,57,0,48
1,57,80,12
1,57,0,48
1,62,80,12
1,62,0,48
1,60,80,12
1,60,0,48
1,62,80,12
1,62,0,48
1,60,80,12
1,60,0,48
1,62,80,12
1,62,0,60
1,60,80,0
1,60,0,48
1,57,80,12
1,57,0,48
1,57,80,12
1,57,0,48
1,57,80,72
1,57,0,48
1,57,80,12
1,57,0,48
1,57,80,12
1,57,0,48
1,60,80,12
1,60,0,96
1,57,80,24
1,57,0,96
1,62,80,564
1,62,0,96
1,60,80,24
1,60,0,48
1,62,80,12
1,62,0,96
1,60,80,24
1,60,0,96
1,62,80,24
1,62,0,48
1,60,80,12
1,60,0,48
1,62,80,12
1,62,0,48
1,60,80,12
1,60,0,48
1,62,80,12
1,62,0,60
1,60,80,0
1,60,0,48
1,62,80,12
1,62,0,48
1,64,80,12
1,64,0,348
1,69,80,192
1,69,0,48
1,69,80,12
1,69,0,144
1,62,80,336
1,62,0,96
1,60,80,24
1,60,0,48
1,62,80,12
1,62,0,48
1,60,80,12
1,60,0,144
1,62,80,36
1,62,0,48
1,60,80,12
1,60,0,48
1,62,80,12
1,62,0,60
1,60,80,0
1,60,0,48
1,62,80,12
1,62,0,60
1,60,80,0
1,60,0,48
1,57,80,12
1,57,0,48
1,57,80,12
1,57,0,252
1,60,80,408
1,60,0,48
1,57,80,12
1,57,0,48
1,57,80,12
1,57,0,48
1,55,80,12
1,55,0,144
1,57,80,36
1,57,0,96
1,55,80,24
1,55,0,48
1,57,80,12
1,57,0,108
1,60,80,12
1,60,0,144
1,62,80,36
1,62,0,48
1,60,80,12
1,60,0,48
1,62,80,12
1,62,0,60
1,60,80,0
1,60,0,48
1,62,80,12
1,62,0,60
1,60,80,0
1,60,0,48
1,57,80,12
1,57,0,48
1,57,80,12
1,57,0,252
1,60,80,408
1,60,0,48
1,57,80,12
1,57,0,48
1,57,80,12
1,57,0,48
1,55,80,12
1,55,0,144
1,57,80,36
1,57,0,96
1,55,80,24
1,55,0,48
1,57,80,12
1,57,0,108
1,60,80,12
1,60,0,144
1,62,80,36
1,62,0,48
1,60,80,12
1,60,0,48
1,62,80,12
1,62,0,60
1,60,80,0
1,60,0,48
1,62,80,12
1,62,0,60
1,60,80,0
1,60,0,48
1,57,80,12
1,57,0,48
1,57,80,12
1,57,0,48
1,57,80,72
1,57,0,48
1,57,80,12
1,57,0,48
1,57,80,12
1,57,0,48
1,60,80,12
1,60,0,96
1,57,80,24
1,57,0,96
1,60,80,744
1,60,0,96
1,64,80,24
1,64,0,96
1,57,80,564
1,57,0,48
1,57,80,12
1,57,0,48
1,57,80,12
1,57,0,48
1,57,80,72
1,57,0,48
1,57,80,12
1,57,0,48
1,57,80,12
1,57,0,48
1,60,80,12
1,60,0,96
1,57,80,24
1,57,0,96
1,60,60,24
1,60,0,96
1,57,60,24
1,57,0,96
1,60,40,24
1,60,0,96
1,57,40,24
1,57,0,96
1,60,20,24
1,60,0,96
1,57,20,24
1,57,0,96
1,57,80,84
1,57,0,48
1,57,80,12
1,57,0,48
1,57,80,12
1,57,0,48
1,60,80,492
1,60,0,96
1,64,80,24
1,64,0,96
1,62,80,564
1,62,0,48
1,60,80,12
1,60,0,48
1,62,80,12
1,62,0,108
1,60,80,12
1,60,0,144
1,62,80,36
1,62,0,48
1,60,80,12
1,60,0,48
1,62,80,12
1,62,0,60
1,60,80,0
1,60,0,48
1,62,80,12
1,62,0,60
1,60,80,0
1,60,0,48
1,57,80,12
1,57,0,48
1,57,80,12
1,57,0,252
1,69,80,288
1,69,0,48
1,69,80,12
1,69,0,144
1,62,80,336
1,62,0,48
1,60,80,12
1,60,0,48
1,62,80,12
1,62,0,108
1,60,80,12
1,60,0,144
1,62,80,36
1,62,0,48
1,60,80,12
1,60,0,48
1,62,80,12
1,62,0,60
1,60,80,0
1,60,0,48
1,62,80,12
1,62,0,60
1,60,80,0
1,60,0,48
1,57,80,12
1,57,0,48
1,57,80,12
1,57,0,252
1,62,80,408
1,62,0,48
1,60,80,12
1,60,0,48
1,62,80,12
1,62,0,96
1,57,80,24
1,57,0,48
1,60,80,12
1,60,0,48
1,60,80,12
1,60,0,48
1,62,80,12
1,62,0,96
1,62,80,324
1,62,0,48
1,60,80,12
1,60,0,48
1,62,80,12
1,62,0,60
1,60,80,0
1,60,0,48
1,62,80,12
1,62,0,60
1,60,80,0
1,60,0,48
1,57,80,12
1,57,0,48
1,57,80,12
1,57,0,252
1,62,80,288
1,62,0,48
1,60,80,12
1,60,0,48
1,62,80,12
1,62,0,48
1,60,80,12
1,60,0,48
1,62,80,12
1,62,0,96
1,57,80,24
1,57,0,48
1,60,80,12
1,60,0,108
1,62,80,12
1,62,0,144
1,57,80,96
1,57,0,48
1,57,80,12
1,57,0,96
1,62,80,24
1,62,0,48
1,60,80,12
1,60,0,48
1,62,80,12
1,62,0,48
1,60,80,12
1,60,0,48
1,62,80,12
1,62,0,60
1,60,80,0
1,60,0,48
1,57,80,12
1,57,0,48
1,57,80,12
1,57,0,48
1,57,80,72
1,57,0,48
1,57,80,12
1,57,0,48
1,57,80,12
1,57,0,48
1,60,80,12
1,60,0,96
1,57,80,24
1,57,0,96
1,62,80,184
1,62,0,64
1,60,80,16
1,60,0,64
1,62,80,16
1,62,0,64
1,57,80,16
1,57,0,64
1,60,80,16
1,60,0,128
1,62,80,32
1,62,0,176
1,62,80,144
1,62,0,48
1,60,80,12
1,60,0,48
1,62,80,12
1,62,0,60
1,60,80,0
1,60,0,48
1,62,80,12
1,62,0,60
1,60,80,0
1,60,0,48
1,57,80,12
1,57,0,48
1,57,80,12
1,57,0,252
1,57,80,228
1,57,0,48
1,69,80,12
1,69,0,96
1,63,80,24
1,63,0,96
1,62,80,24
1,62,0,96
1,62,80,24
1,62,0,48
1,60,80,12
1,60,0,48
1,63,80,12
1,63,0,60
1,62,80,0
1,62,0,48
1,60,80,12
1,60,0,48
1,57,80,12
1,57,0,108
1,57,80,12
1,57,0,48
1,57,80,12
1,57,0,48
1,62,80,12
1,62,0,108
1,60,80,12
1,60,0,48
1,62,80,12
1,62,0,48
1,60,80,12
1,60,0,48
1,62,80,12
1,62,0,60
1,60,80,0
1,60,0,48
1,57,80,12
1,57,0,48
1,57,80,12
1,57,0,48
1,57,80,72
1,57,0,48
1,57,80,12
1,57,0,48
1,57,80,12
1,57,0,48
1,60,80,12
1,60,0,96
1,57,80,24
1,57,0,96
1,62,80,564
1,62,0,48
1,60,80,12
1,60,0,48
1,62,80,12
1,62,0,108
1,60,80,12
1,60,0,144
1,62,80,36
1,62,0,48
1,60,80,12
1,60,0,48
1,62,80,12
1,62,0,60
1,60,80,0
1,60,0,48
1,62,80,12
1,62,0,60
1,60,80,0
1,60,0,48
1,57,80,12
1,57,0,48
1,64,80,12
1,64,0,348
1,69,80,192
1,69,0,24
1,69,80,6
1,69,0,24
1,62,80,486
1,62,0,48
1,60,80,12
1,60,0,48
1,62,80,12
1,62,0,108
1,60,80,12
1,60,0,144
1,62,80,36
1,62,0,48
1,60,80,12
1,60,0,48
1,62,80,12
1,62,0,60
1,60,80,0
1,60,0,48
1,62,80,12
1,62,0,60
1,60,80,0
1,60,0,48
1,57,80,12
1,57,0,48
1,57,80,12
1,57,0,252
1,69,80,288
1,69,0,48
1,69,80,12
1,69,0,30
1,71,80,0
1,71,0,126
1,62,80,324
1,62,0,48
1,60,80,12
1,60,0,48
1,62,80,12
1,62,0,108
1,60,80,12
1,60,0,144
1,62,80,36
1,62,0,48
1,60,80,12
1,60,0,48
1,62,80,12
1,62,0,60
1,60,80,0
1,60,0,48
1,62,80,12
1,62,0,60
1,60,80,0
1,60,0,48
1,57,80,12
1,57,0,48
1,57,80,12
1,57,0,252
1,60,80,408
1,60,0,48
1,57,80,12
1,57,0,48
1,57,80,12
1,57,0,48
1,55,80,12
1,55,0,144
1,57,80,36
1,57,0,96
1,55,80,24
1,55,0,48
1,57,80,12
1,57,0,108
1,60,80,12
1,60,0,144
1,62,80,36
1,62,0,48
1,60,80,12
1,60,0,48
1,62,80,12
1,62,0,60
1,60,80,0
1,60,0,48
1,62,80,12
1,62,0,60
1,60,80,0
1,60,0,48
1,57,80,12
1,57,0,48
1,57,80,12
1,57,0,252
1,60,80,348
1,60,0,96
1,57,80,24
1,57,0,48
1,57,80,12
1,57,0,48
1,55,80,12
1,55,0,144
1,57,80,36
1,57,0,96
1,55,80,24
1,55,0,48
1,57,80,12
1,57,0,108
1,60,80,12
1,60,0,144
1,62,80,36
1,62,0,48
1,60,80,12
1,60,0,48
1,62,80,12
1,62,0,60
1,60,80,0
1,60,0,48
1,62,80,12
1,62,0,60
1,60,80,0
1,60,0,48
1,57,80,12
1,57,0,48
1,57,80,12
1,57,0,108
1,57,80,12
1,57,0,48
1,57,80,12
1,57,0,48
1,57,80,12
1,57,0,48
1,60,80,12
1,60,0,96
1,57,64,24
1,64,80,0
1,64,0,96
1,57,0,0
1,62,80,144
1,62,0,48
1,60,80,12
1,60,0,48
1,62,80,12
1,62,0,48
1,60,80,12
1,60,0,48
1,62,80,12
1,62,0,48
1,57,80,12
1,57,0,48
1,60,80,12
1,60,0,48
1,62,80,12
1,62,0,48
1,62,80,372
1,62,0,48
1,60,80,12
1,60,0,48
1,62,80,12
1,62,0,60
1,60,80,0
1,60,0,48
1,62,80,12
1,62,0,60
1,60,80,0
1,60,0,48
1,57,80,12
1,57,0,48
1,57,80,12
1,57,0,252
1,62,80,288
1,62,0,48
1,60,80,12
1,60,0,48
1,62,80,12
1,62,0,48
1,60,80,12
1,60,0,48
1,62,80,12
1,62,0,96
1,57,80,24
1,57,0,48
1,60,80,12
1,60,0,108
1,62,80,12
1,62,0,96
1,57,80,144
1,57,0,48
1,57,80,12
1,57,0,96
1,62,80,24
1,62,0,48
1,60,80,12
1,60,0,48
1,62,80,12
1,62,0,48
1,60,80,12
1,60,0,48
1,62,80,12
1,62,0,48
1,60,80,12
1,60,0,48
1,57,80,12
1,57,0,48
1,57,80,12
1,57,0,48
1,57,80,72
1,57,0,48
1,57,80,12
1,57,0,48
1,57,80,12
1,57,0,48
1,60,80,12
1,60,0,96
1,57,80,24
1,57,0,96
1,62,80,564
1,62,0,48
1,60,80,72
1,60,0,48
1,62,80,12
1,62,0,48
1,60,80,12
1,60,0,48
1,62,80,132
1,62,0,48
1,60,80,12
1,60,0,48
1,62,80,12
1,62,0,48
1,60,80,12
1,60,0,48
1,62,80,12
1,62,0,60
1,60,80,0
1,60,0,48
1,57,80,12
1,57,0,48
1,64,80,12
1,64,0,348
1,69,80,192
1,69,0,48
1,69,80,12
1,69,0,96
1,62,80,384
1,62,0,96
1,60,80,24
1,60,0,48
1,62,80,12
1,62,0,48
1,60,80,12
1,60,0,48
1,62,80,132
1,62,0,48
1,60,80,12
1,60,0,48
1,62,80,12
1,62,0,60
1,60,80,0
1,60,0,48
1,62,80,12
1,62,0,60
1,60,80,0
1,60,0,48
1,57,80,12
1,57,0,48
1,57,80,12
1,57,0,252
1,60,80,48
1,60,0,96
1,64,80,24
1,64,0,96
1,69,80,24
1,69,0,48
