track,note,velocity,time
1,61,120,0
1,61,0,7
1,61,120,0
1,61,0,7
1,61,120,33
1,61,0,7
1,61,120,0
1,61,0,7
1,66,120,33
1,66,0,24
1,61,120,0
1,61,0,7
1,61,120,0
1,61,0,7
1,61,120,33
1,61,0,7
1,61,120,33
1,61,0,7
1,66,120,33
1,66,0,26
1,61,120,4
1,61,0,7
1,61,120,0
1,61,0,7
1,61,120,0
1,61,0,7
1,61,120,0
1,61,0,7
1,66,120,3
1,66,0,24
1,61,120,6
1,61,0,7
1,61,120,0
1,61,0,7
1,61,120,0
1,61,0,7
1,61,120,0
1,61,0,7
1,66,120,33
1,66,0,26
1,61,120,4
1,61,0,7
1,61,120,33
1,61,0,7
1,61,120,0
1,61,0,7
1,61,120,0
1,61,0,7
1,66,120,33
1,61,120,0
1,66,0,5
1,61,0,7
1,61,120,0
1,61,0,7
1,61,120,0
1,61,0,7
1,61,120,33
1,61,0,7
1,66,118,3
1,66,0,7
1,61,120,0
1,61,0,7
1,61,120,33
1,61,0,7
1,61,120,33
1,61,0,7
1,61,120,33
1,61,0,7
1,66,120,33
1,66,0,29
1,61,120,1
1,61,0,7
1,61,120,0
1,61,0,7
1,61,120,33
1,61,0,7
1,61,120,0
1,61,0,7
1,66,120,33
1,66,0,30
1,61,120,0
1,61,0,7
1,61,120,33
1,61,0,7
1,61,120,33
1,61,0,7
1,66,120,33
1,61,120,0
1,66,0,1
1,61,0,7
1,61,120,0
1,61,0,7
1,61,120,0
1,61,0,7
1,66,120,33
1,66,0,28
1,61,120,2
1,61,0,7
1,61,120,33
1,61,0,7
1,61,120,0
1,61,0,7
1,61,120,33
1,61,0,7
1,66,120,33
1,66,0,28
1,61,120,2
1,61,0,7
1,61,120,33
1,61,0,7
1,61,120,33
1,61,0,7
1,61,120,0
1,61,0,7
1,66,120,33
1,66,0,29
1,61,120,1
1,61,0,7
1,61,120,0
1,61,0,7
1,61,120,0
1,61,0,7
1,66,120,33
1,66,0,28
1,61,120,0
1,61,0,7
1,61,120,33
1,61,0,7
1,61,120,33
1,61,0,7
1,66,120,33
1,66,0,23
1,61,120,7
1,61,0,7
1,61,120,33
1,61,0,7
1,61,120,0
1,61,0,7
1,61,120,33
1,61,0,7
1,66,120,33
1,66,0,25
1,61,120,5
1,61,0,7
1,61,120,33
1,61,0,7
1,61,120,0
1,61,0,7
1,61,120,33
1,61,0,7
1,66,120,33
1,66,0,27
1,61,120,3
1,61,0,7
1,61,120,33
1,61,0,7
1,61,120,33
1,61,0,7
1,66,120,33
1,66,0,24
1,61,120,0
1,61,0,7
1,61,120,0
1,61,0,7
1,61,120,33
1,61,0,7
1,66,120,33
1,66,0,23
1,61,127,7
1,61,0,12
1,66,120,18
1,66,0,25
1,61,127,0
1,61,0,12
1,66,127,30
1,66,0,16
1,61,127,44
1,61,0,1
1,66,127,30
1,66,0,12
1,61,127,18
1,61,0,18
1,66,127,42
1,66,0,12
1,61,127,0
1,61,0,11
1,66,104,19
1,66,0,23
1,61,127,0
1,61,0,5
1,66,116,30
1,66,0,13
1,61,120,0
1,61,0,7
1,61,120,0
1,61,0,7
1,61,120,33
1,61,0,7
1,66,120,93
1,66,0,24
1,61,120,6
1,61,0,7
1,61,120,33
1,61,0,7
1,61,120,0
1,61,0,7
1,66,120,93
1,61,120,30
1,66,0,1
1,61,0,7
1,61,120,0
1,61,0,7
1,61,120,33
1,61,0,7
1,66,120,33
1,66,0,23
1,61,120,0
1,61,0,7
1,61,120,0
1,61,0,7
1,61,120,0
1,61,0,7
1,66,120,33
1,66,0,23
1,61,120,0
1,61,0,7
1,61,120,0
1,61,0,7
1,61,120,0
1,61,0,7
1,66,120,93
1,66,0,24
1,61,120,0
1,61,0,7
1,61,120,33
1,61,0,7
1,61,120,33
1,61,0,7
1,66,120,93
1,66,0,23
1,61,120,7
1,61,0,7
1,61,120,33
1,61,0,7
1,61,120,0
1,61,0,7
1,66,120,33
1,66,0,23
1,61,120,7
1,61,0,7
1,61,120,0
1,61,0,7
1,61,120,33
1,61,0,7
1,66,120,33
1,66,0,21
1,61,120,9
1,61,0,7
1,61,120,0
1,61,0,7
1,61,120,0
1,61,0,7
1,66,120,93
1,66,0,22
1,61,120,8
1,61,0,7
1,61,120,33
1,61,0,7
1,61,120,33
1,61,0,7
1,66,120,93
1,66,0,23
1,61,120,0
1,61,0,7
1,61,120,0
1,61,0,7
1,61,120,33
1,61,0,7
1,66,120,33
1,66,0,21
1,61,120,0
1,61,0,7
1,61,120,33
1,61,0,7
1,61,120,0
1,61,0,7
1,66,120,33
1,66,0,20
1,61,120,0
1,61,0,7
1,66,120,35
1,66,0,24
1,61,120,34
1,61,0,7
1,66,120,35
1,66,0,23
1,61,120,0
1,61,0,7
1,66,120,36
1,66,0,25
1,61,120,2
1,61,0,7
1,66,120,35
1,66,0,24
1,61,120,34
1,61,0,7
1,66,120,35
1,66,0,23
1,61,120,0
1,61,0,7
1,66,120,36
1,66,0,25
1,78,94,16146
1,78,0,81
1,75,49,6
1,75,0,92
1,73,88,2
1,73,0,124
1,75,56,1
1,75,0,62
1,70,72,48
1,70,0,22
1,68,54,2
1,68,0,52
1,68,78,43
1,66,63,52
1,68,0,5
1,66,0,22
1,66,94,41
1,66,0,213
1,66,68,26
1,63,42,23
1,66,0,1
1,63,0,41
1,66,76,53
1,66,0,68
1,61,84,55
1,61,0,212
1,61,75,30
1,61,0,21
1,63,63,11
1,63,0,16
1,66,102,70
1,66,0,26
1,58,84,87
1,58,0,101
1,61,86,83
1,61,0,162
1,63,76,25
1,63,0,134
1,66,70,44
1,66,0,50
1,61,43,5
1,61,0,36
1,61,86,35
1,61,0,89
1,63,78,29
1,63,0,88
1,58,86,78
1,58,0,100
1,58,92,205
1,58,0,35
1,61,78,26
1,61,0,27
1,63,80,33
1,63,0,24
1,66,88,38
1,66,0,30
1,70,105,213
1,70,0,19
1,66,94,96
1,66,0,22
1,66,70,164
1,66,0,13
1,61,80,108
1,61,0,15
1,73,88,281
1,73,0,15
1,75,102,228
1,75,0,15
1,73,98,41
1,73,0,14
1,70,70,51
1,70,0,15
1,73,80,46
1,73,0,11
1,68,75,50
1,68,0,12
1,70,84,109
1,70,0,10
1,66,70,108
1,66,0,18
1,68,78,41
1,68,0,12
1,63,86,45
1,63,0,15
1,61,64,222
1,61,0,18
1,63,72,40
1,63,0,16
1,58,63,109
1,58,0,17
1,59,69,93
1,59,0,15
1,61,80,55
1,61,0,16
1,66,80,171
1,66,0,15
1,63,75,160
1,63,0,14
1,61,78,164
1,61,0,13
1,58,88,110
1,58,0,16
1,56,57,103
1,56,0,14
1,58,78,50
1,58,0,14
1,63,80,223
1,63,0,14
1,66,78,162
1,66,0,17
1,70,98,161
1,70,0,19
1,73,98,168
1,73,0,22
1,73,105,100
1,73,0,46
1,70,88,65
1,70,0,23
1,66,60,458
1,66,0,25
1,61,63,102
1,61,0,23
1,54,33,99
1,54,0,25
1,49,61,93
1,49,0,28
1,54,64,86
1,54,0,23
2,58,74,3420
2,61,90,0
2,66,87,0
2,58,0,11
2,61,0,2
2,66,0,0
2,58,78,47
2,66,86,0
2,61,81,0
2,58,0,12
2,61,0,1
2,66,0,3
2,70,80,44
2,63,86,0
2,66,96,0
2,63,0,12
2,66,0,1
2,70,0,1
2,66,98,46
2,70,87,0
2,63,87,0
2,66,0,12
2,70,0,1
2,63,0,0
2,70,98,47
2,63,92,0
2,66,105,0
2,70,0,13
2,63,0,0
2,66,0,0
2,63,90,47
2,70,96,0
2,66,108,0
2,63,0,13
2,66,0,1
2,70,0,2
2,65,116,44
2,70,116,0
2,61,98,0
2,65,0,77
2,70,0,0
2,61,0,0
2,68,105,43
2,65,116,0
2,61,96,0
2,65,0,100
2,61,0,0
2,68,0,1
2,61,98,379
2,58,87,0
2,66,81,0
2,58,0,14
2,61,0,2
2,66,0,0
2,61,86,44
2,58,73,0
2,66,87,0
2,58,0,15
2,61,0,1
2,66,0,1
2,66,82,43
2,70,86,0
2,63,87,0
2,66,0,11
2,63,0,4
2,70,0,1
2,66,100,44
2,70,87,0
2,63,87,0
2,66,0,13
2,70,0,2
2,63,0,0
2,70,90,45
2,66,100,0
2,63,90,0
2,66,0,13
2,63,0,1
2,70,0,1
2,61,92,45
2,65,121,0
2,68,100,0
2,65,0,295
2,61,0,1
2,68,0,1
2,61,92,363
2,58,87,0
2,66,82,0
2,58,0,14
2,61,0,2
2,66,0,0
2,66,81,44
2,61,90,0
2,58,74,0
2,58,0,12
2,66,0,2
2,61,0,1
2,70,81,45
2,66,96,0
2,63,82,0
2,63,0,12
2,66,0,2
2,70,0,1
2,70,81,45
2,63,81,0
2,66,96,0
2,63,0,13
2,66,0,0
2,70,0,1
2,63,78,46
2,70,80,0
2,66,92,0
2,66,0,11
2,63,0,1
2,70,0,0
2,63,96,48
2,70,105,0
2,66,116,0
2,66,0,77
2,70,0,2
2,63,0,2
2,61,82,39
2,68,80,0
2,65,92,0
2,65,0,13
2,61,0,1
2,68,0,0
2,65,100,46
2,68,90,0
2,61,86,0
2,68,0,13
2,65,0,1
2,61,0,1
2,68,96,45
2,61,86,0
2,65,105,0
2,65,0,13
2,68,0,1
2,61,0,0
2,66,87,46
2,63,98,0
2,59,87,0
2,63,0,13
2,66,0,1
2,59,0,1
2,59,86,45
2,66,92,0
2,63,98,0
2,63,0,12
2,59,0,2
2,66,0,0
2,59,87,46
2,63,100,0
2,66,96,0
2,63,0,13
2,59,0,4
2,66,0,0
2,64,112,43
2,59,92,0
2,68,90,0
2,64,0,86
2,59,0,1
2,68,0,0
2,66,92,33
2,59,90,0
2,63,100,0
2,63,0,13
2,59,0,1
2,66,0,2
2,63,96,44
2,66,87,0
2,59,86,0
2,63,0,13
2,59,0,2
2,66,0,2
2,63,86,43
2,66,81,0
2,59,80,0
2,63,0,14
2,59,0,3
2,66,0,2
2,64,108,41
2,68,86,0
2,59,90,0
2,64,0,13
2,59,0,1
2,68,0,2
2,68,81,44
2,64,100,0
2,59,81,0
2,64,0,15
2,59,0,1
2,68,0,1
2,59,70,43
2,68,76,0
2,64,92,0
2,59,0,14
2,64,0,2
2,68,0,2
2,70,100,42
2,65,116,0
2,61,96,0
2,65,0,98
2,70,0,2
2,61,0,0
2,61,96,20
2,65,112,0
2,68,87,0
2,65,0,170
2,68,0,1
2,61,0,1
2,70,81,368
2,78,90,0
2,73,100,0
2,70,0,14
2,73,0,1
2,78,0,1
2,73,92,44
2,70,74,0
2,78,90,0
2,70,0,11
2,73,0,1
2,78,0,5
2,82,92,43
2,78,100,0
2,75,96,0
2,75,0,13
2,82,0,2
2,78,0,0
2,82,105,45
2,75,105,0
2,78,121,0
2,78,0,73
2,82,0,1
2,75,0,0
2,77,116,46
2,80,96,0
2,73,98,0
2,77,0,298
2,73,0,1
2,80,0,1
2,70,87,360
2,73,100,0
2,78,90,0
2,70,0,15
2,73,0,1
2,78,0,0
2,70,87,44
2,73,105,0
2,78,96,0
2,70,0,12
2,73,0,2
2,78,0,1
2,75,92,45
2,78,108,0
2,82,96,0
2,75,0,12
2,82,0,1
2,78,0,1
2,82,87,46
2,75,92,0
2,78,100,0
2,78,0,12
2,75,0,1
2,82,0,1
2,82,96,46
2,75,98,0
2,78,108,0
2,75,0,13
2,78,0,0
2,82,0,1
2,80,96,46
2,77,105,0
2,73,82,0
2,77,0,274
2,80,0,1
2,73,0,0
2,70,82,385
2,73,96,0
2,78,87,0
2,70,0,15
2,73,0,0
2,78,0,3
2,70,81,42
2,78,81,0
2,73,92,0
2,70,0,13
2,73,0,2
2,78,0,3
2,75,86,42
2,78,98,0
2,82,90,0
2,75,0,12
2,78,0,4
2,82,0,1
2,82,86,43
2,75,82,0
2,78,100,0
2,75,0,13
2,78,0,1
2,82,0,1
2,82,82,45
2,78,96,0
2,75,81,0
2,78,0,16
2,75,0,1
2,82,0,2
2,78,105,41
2,82,92,0
2,75,96,0
2,82,0,80
2,78,0,1
2,75,0,2
2,77,112,37
2,80,87,0
2,73,100,0
2,80,0,112
2,77,0,1
2,73,0,3
2,57,108,64
2,61,96,0
2,64,108,0
2,57,0,11
2,61,0,3
2,64,0,1
2,64,108,45
2,61,96,0
2,57,108,0
2,57,0,11
2,61,0,3
2,64,0,1
2,57,112,45
2,64,108,0
2,61,96,0
2,57,0,11
2,61,0,1
2,64,0,2
2,61,121,46
2,57,121,0
2,64,121,0
2,57,0,243
2,61,0,2
2,64,0,1
2,66,100,54
2,63,108,0
2,59,105,0
2,63,0,14
2,59,0,0
2,66,0,1
2,63,105,45
2,59,92,0
2,66,92,0
2,63,0,15
2,59,0,1
2,66,0,1
2,66,92,43
2,63,108,0
2,59,96,0
2,59,0,12
2,63,0,1
2,66,0,1
2,63,116,46
2,59,105,0
2,66,108,0
2,66,0,290
2,63,0,1
2,59,0,2
2,68,72,7
2,64,60,0
2,61,62,0
2,68,0,64
2,64,0,3
2,61,0,3
2,61,51,50
2,68,57,0
2,64,55,0
2,64,0,59
2,61,0,1
2,68,0,0
2,64,61,60
2,68,60,0
2,61,52,0
2,68,0,68
2,61,0,0
2,64,0,1
2,64,62,51
2,68,67,0
2,61,54,0
2,64,0,60
2,61,0,0
2,68,0,1
2,64,55,59
2,61,54,0
2,68,62,0
2,68,0,55
2,64,0,2
2,61,0,2
2,64,61,61
2,68,66,0
2,61,54,0
2,64,0,62
2,61,0,0
2,68,0,1
2,68,62,57
2,64,55,0
2,61,48,0
2,68,0,68
2,64,0,1
2,61,0,1
2,68,66,50
2,64,60,0
2,61,52,0
2,68,0,67
2,61,0,1
2,64,0,1
2,64,58,51
2,61,52,0
2,68,62,0
2,61,0,59
2,68,0,2
2,64,0,1
2,61,54,58
2,64,61,0
2,68,63,0
2,68,0,65
2,64,0,1
2,61,0,1
2,68,62,53
2,61,52,0
2,64,58,0
2,64,0,67
2,68,0,1
2,61,0,1
2,64,70,51
2,68,67,0
2,61,56,0
2,61,0,61
2,64,0,5
2,68,0,3
2,68,55,51
2,64,66,0
2,61,61,0
2,64,0,66
2,68,0,5
2,61,0,1
2,68,67,48
2,61,61,0
2,64,75,0
2,61,0,66
2,68,0,7
2,64,0,0
2,64,66,47
2,61,61,0
2,68,55,0
2,64,0,66
2,68,0,5
2,61,0,1
2,68,67,48
2,61,61,0
2,64,75,0
2,61,0,66
2,68,0,7
2,64,0,0
2,63,66,47
2,70,56,0
2,66,61,0
2,63,0,63
2,70,0,1
2,66,0,1
2,63,64,55
2,70,63,0
2,66,68,0
2,66,0,57
2,63,0,1
2,70,0,0
2,63,63,62
2,66,64,0
2,70,60,0
2,66,0,51
2,70,0,4
2,63,0,3
2,63,67,62
2,70,60,0
2,66,67,0
2,70,0,52
2,66,0,2
2,63,0,2
2,70,58,64
2,63,64,0
2,66,67,0
2,70,0,50
2,63,0,1
2,66,0,0
2,63,62,69
2,66,66,0
2,70,58,0
2,66,0,53
2,70,0,0
2,63,0,6
2,70,60,61
2,66,67,0
2,63,67,0
2,70,0,50
2,66,0,0
2,63,0,3
2,70,58,67
2,66,66,0
2,63,66,0
2,70,0,58
2,66,0,0
2,63,0,3
2,63,63,59
2,66,64,0
2,70,58,0
2,63,0,57
2,70,0,0
2,66,0,1
2,66,64,62
2,63,67,0
2,70,63,0
2,66,0,55
2,70,0,0
2,63,0,4
2,66,70,61
2,63,63,0
2,70,64,0
2,66,0,62
2,70,0,1
2,63,0,1
2,66,67,56
2,63,66,0
2,70,61,0
2,66,0,67
2,70,0,0
2,63,0,3
2,63,69,50
2,70,70,0
2,66,70,0
2,70,0,66
2,66,0,0
2,63,0,1
2,63,64,53
2,66,73,0
2,70,74,0
2,66,0,38
2,70,0,1
2,63,0,3
2,63,70,38
2,70,67,0
2,66,70,0
2,66,0,241
2,70,0,30
2,63,0,5
2,64,100,4
2,67,93,0
2,59,74,0
2,59,0,68
2,64,0,1
2,67,0,1
2,59,73,50
2,67,84,0
