track,note,velocity,time
2,31,76,3735
2,31,88,61
2,22,84,61
2,22,68,37
2,22,72,37
2,24,58,13
2,24,72,61
2,27,88,61
2,29,76,53
2,31,88,61
2,31,88,61
2,22,68,61
2,22,72,37
2,22,80,37
2,24,66,13
2,24,76,61
2,27,88,61
2,29,88,61
2,31,76,61
2,31,88,61
2,22,84,61
2,22,68,37
2,22,72,37
2,24,58,13
2,24,72,61
2,27,88,61
2,29,76,53
2,31,88,61
2,31,88,61
2,22,68,61
2,22,72,37
2,22,80,37
2,24,66,13
2,24,76,61
2,27,88,61
2,29,88,61
2,31,76,61
2,31,88,61
2,22,84,61
2,22,68,37
2,22,72,37
2,24,58,13
2,24,72,61
2,27,88,61
2,29,76,53
2,31,88,61
2,31,88,61
2,22,68,61
2,22,72,37
2,22,80,37
2,24,66,13
2,24,76,61
2,27,88,61
2,29,88,61
2,31,76,61
2,31,88,61
2,22,84,61
2,22,68,37
2,22,72,37
2,24,58,13
2,24,72,61
2,27,88,61
2,29,76,53
2,31,88,61
2,31,88,61
2,22,68,61
2,22,72,37
2,22,80,37
2,24,66,13
2,24,76,61
2,27,88,61
2,29,88,61
2,31,76,61
2,31,88,61
2,22,84,61
2,22,68,37
2,22,72,37
2,24,58,13
2,24,72,61
2,27,88,61
2,29,76,53
2,31,88,61
2,31,88,61
2,22,68,61
2,22,72,37
2,22,80,37
2,24,66,13
2,24,76,61
2,27,88,61
2,29,88,61
2,31,76,61
2,31,88,61
2,22,84,61
2,22,68,37
2,22,72,37
2,24,58,13
2,24,72,61
2,27,88,61
2,29,76,53
2,31,88,61
2,31,88,61
2,22,68,61
2,22,72,37
2,22,80,37
2,24,66,13
2,24,76,61
2,27,88,61
2,29,88,61
2,31,76,61
2,31,88,61
2,22,84,61
2,22,68,37
2,22,72,37
2,24,58,13
2,24,72,61
2,27,88,61
2,29,76,53
2,31,88,61
2,31,88,61
2,22,68,61
2,22,72,37
2,22,80,37
2,24,66,13
2,24,76,61
2,27,88,61
2,29,88,61
2,31,76,61
2,31,88,61
2,22,84,61
2,22,68,37
2,22,72,37
2,24,58,13
2,24,72,61
2,27,88,61
2,29,76,53
2,31,88,61
2,31,88,61
2,22,68,61
2,22,72,37
2,22,80,37
2,24,66,13
2,24,76,61
2,27,88,61
2,29,88,61
2,31,76,61
2,31,88,61
2,22,84,61
2,22,68,37
2,22,72,37
2,24,58,13
2,24,72,61
2,27,88,61
2,29,76,53
2,31,88,61
2,31,88,61
2,22,68,61
2,22,72,37
2,22,80,37
2,24,66,13
2,24,76,61
2,27,88,61
2,29,88,61
2,31,76,61
2,31,88,61
2,22,84,61
2,22,68,37
2,22,72,37
2,24,58,13
2,24,72,61
2,27,88,61
2,29,76,53
2,31,88,61
2,31,88,61
2,22,68,61
2,22,72,37
2,22,80,37
2,24,66,13
2,24,76,61
2,27,88,61
2,29,88,61
2,31,76,829
2,31,88,61
2,22,84,61
2,22,68,37
2,22,72,37
2,24,58,13
2,24,72,61
2,27,88,61
2,29,76,53
2,31,88,61
2,31,88,61
2,22,68,61
2,22,72,37
2,22,80,37
2,24,66,13
2,24,76,61
2,27,88,61
2,29,88,61
2,31,76,61
2,31,88,61
2,22,84,61
2,22,68,37
2,22,72,37
2,24,58,13
2,24,72,61
2,27,88,61
2,29,76,53
2,31,88,61
2,31,88,61
2,22,68,61
2,22,72,37
2,22,80,37
2,24,66,13
2,24,76,61
2,27,88,61
2,29,88,61
2,31,76,61
2,31,88,61
2,22,84,61
2,22,68,37
2,22,72,37
2,24,58,13
2,24,72,61
2,27,88,61
2,29,76,53
2,31,88,61
2,31,88,61
2,22,68,61
2,22,72,37
2,22,80,37
2,24,66,13
2,24,76,61
2,27,88,61
2,29,88,61
2,31,76,61
2,31,88,61
2,22,84,61
2,22,68,37
2,22,72,37
2,24,58,13
2,24,72,61
2,27,88,61
2,29,76,53
2,31,88,61
2,31,88,61
2,22,68,61
2,22,72,37
2,22,80,37
2,24,66,13
2,24,76,61
2,27,88,61
2,29,88,61
2,31,76,61
2,31,88,61
2,22,84,61
2,22,68,37
2,22,72,37
2,24,58,13
2,24,72,61
2,27,88,61
2,29,76,53
2,31,88,61
2,31,88,61
2,22,68,61
2,22,72,37
2,22,80,37
2,24,66,13
2,24,76,61
2,27,88,61
2,29,88,61
2,31,76,61
2,31,88,61
2,22,84,61
2,22,68,37
2,22,72,37
2,24,58,13
2,24,72,61
2,27,88,61
2,29,76,53
2,31,88,61
2,31,88,61
2,22,68,61
2,22,72,37
2,22,80,37
2,24,66,13
2,24,76,61
2,27,88,61
2,29,88,61
2,31,76,61
2,31,88,61
2,22,84,61
2,22,68,37
2,22,72,37
2,24,58,13
2,24,72,61
2,27,88,61
2,29,76,53
2,31,88,61
2,31,88,61
2,22,68,61
2,22,72,37
2,22,80,37
2,24,66,13
2,24,76,61
2,27,88,61
2,29,88,61
2,31,76,61
2,31,88,61
2,22,84,61
2,22,68,37
2,22,72,37
2,24,58,13
2,24,72,61
2,27,88,61
2,29,76,53
2,31,88,61
2,31,88,61
2,22,68,61
2,22,72,37
2,22,80,37
2,24,66,13
2,24,76,61
2,27,88,61
2,29,88,61
2,24,66,61
2,24,64,64
2,24,39,48
2,24,62,19
2,26,68,3
2,27,72,3
2,24,64,4
2,24,80,29
2,24,80,64
2,24,64,73
2,26,66,48
2,27,68,44
2,24,72,41
2,24,76,56
2,24,56,42
2,24,62,14
2,26,66,2
2,27,72,1
2,24,76,3
2,24,68,25
2,24,64,75
2,24,56,45
2,24,58,12
2,26,64,48
2,27,66,7
2,31,68,48
2,24,68,6
2,24,66,64
2,24,50,44
2,24,60,11
2,26,66,2
2,27,66,48
2,24,56,46
2,24,80,25
2,24,64,66
2,24,48,45
2,24,56,14
2,26,66,0
2,27,72,0
2,24,60,4
2,24,76,29
2,24,38,56
2,24,44,39
2,24,60,14
2,26,66,0
2,27,64,48
2,26,66,47
2,24,56,10
2,24,66,21
2,26,68,6
2,26,64,20
2,27,68,7
2,27,62,24
2,29,80,5
2,31,84,5
2,24,66,14
2,24,64,64
2,24,39,48
2,24,62,19
2,26,68,3
2,27,72,3
2,24,64,4
2,24,80,29
2,24,80,64
2,24,64,73
2,26,66,48
2,27,68,44
2,24,72,41
2,24,76,56
2,24,56,42
2,24,62,14
2,26,66,2
2,27,72,1
2,24,76,3
2,24,68,25
2,24,64,75
2,24,56,45
2,24,58,12
2,26,64,48
2,27,66,7
2,31,68,48
2,24,68,6
2,24,66,64
2,24,50,44
2,24,60,11
2,26,66,2
2,27,66,48
2,24,56,46
2,24,80,25
2,24,64,66
2,24,48,45
2,24,56,14
2,26,66,0
2,27,72,0
2,24,60,4
2,24,76,29
2,24,38,56
2,24,44,39
2,24,60,14
2,26,66,0
2,27,64,48
2,26,66,47
2,24,56,10
2,24,66,21
2,26,68,6
2,26,64,20
2,27,68,7
2,27,62,24
2,29,80,5
2,31,84,5
2,31,76,3854
2,31,88,61
2,22,84,61
2,22,68,37
2,22,72,37
2,24,58,13
2,24,72,61
2,27,88,61
2,29,76,53
2,31,88,61
2,31,88,61
2,22,68,61
2,22,72,37
2,22,80,37
2,24,66,13
2,24,76,61
2,27,88,61
2,29,88,61
2,31,76,61
2,31,88,61
2,22,84,61
2,22,68,37
2,22,72,37
2,24,58,13
2,24,72,61
2,27,88,61
2,29,76,53
2,31,88,61
2,31,88,61
2,22,68,61
2,22,72,37
2,22,80,37
2,24,66,13
2,24,76,61
2,27,88,61
2,29,88,61
2,31,76,61
2,31,88,61
2,22,84,61
2,22,68,37
2,22,72,37
2,24,58,13
2,24,72,61
2,27,88,61
2,29,76,53
2,31,88,61
2,31,88,61
2,22,68,61
2,22,72,37
2,22,80,37
2,24,66,13
2,24,76,61
2,27,88,61
2,29,88,61
2,31,76,61
2,31,88,61
2,22,84,61
2,22,68,37
2,22,72,37
2,24,58,13
2,24,72,61
2,27,88,61
2,29,76,53
2,31,88,61
2,31,88,61
2,22,68,61
2,22,72,37
2,22,80,37
2,24,66,13
2,24,76,61
2,27,88,61
2,29,88,61
2,31,76,61
2,31,88,61
2,22,84,61
2,22,68,37
2,22,72,37
2,24,58,13
2,24,72,61
2,27,88,61
2,29,76,53
2,31,88,61
2,31,88,61
2,22,68,61
2,22,72,37
2,22,80,37
2,24,66,13
2,24,76,61
2,27,88,61
2,29,88,61
2,31,76,61
2,31,88,61
2,22,84,61
2,22,68,37
2,22,72,37
2,24,58,13
2,24,72,61
2,27,88,61
2,29,76,53
2,31,88,61
2,31,88,61
2,22,68,61
2,22,72,37
2,22,80,37
2,24,66,13
2,24,76,61
2,27,88,61
2,29,88,61
2,31,76,61
2,31,88,61
2,22,84,61
2,22,68,37
2,22,72,37
2,24,58,13
2,24,72,61
2,27,88,61
2,29,76,53
2,31,88,61
2,31,88,61
2,22,68,61
2,22,72,37
2,22,80,37
2,24,66,13
2,24,76,61
2,27,88,61
2,29,88,61
2,31,76,61
2,31,88,61
2,22,84,61
2,22,68,37
2,22,72,37
2,24,58,13
2,24,72,61
2,27,88,61
2,29,76,53
2,31,88,61
2,31,88,61
2,22,68,61
2,22,72,37
2,22,80,37
2,24,66,13
2,24,76,61
2,27,88,61
2,29,88,61
2,31,76,61
2,31,88,12
2,22,84,12
2,22,68,24
2,22,72,24
2,24,58,13
2,24,72,24
2,27,88,24
2,29,76,24
2,31,88,12
2,31,88,12
2,22,68,12
2,22,72,12
2,22,80,12
2,24,66,12
2,24,76,24
2,27,88,24
2,29,88,24
2,31,76,24
2,31,88,24
2,22,84,12
2,22,68,12
2,22,72,12
2,24,58,12
2,24,72,12
2,27,88,12
2,29,76,24
2,31,88,24
2,31,88,24
2,22,68,24
2,22,72,24
2,22,80,12
2,24,66,12
2,24,76,12
2,27,88,12
2,29,88,36
3,55,80,2194
3,58,84,0
3,63,80,0
3,55,80,46
3,65,88,0
3,60,88,0
3,60,92,28
3,62,88,0
3,55,88,0
3,57,66,0
3,55,88,95
3,59,72,0
3,62,92,0
3,67,88,0
3,55,88,64
3,62,84,0
3,59,72,0
3,67,84,0
3,59,76,39
3,55,84,0
3,62,88,0
3,50,102,0
3,65,84,0
3,55,97,11
3,55,80,61
3,58,84,0
3,63,80,0
3,55,80,46
3,65,88,0
3,60,88,0
3,60,92,28
3,62,88,0
3,55,88,0
3,57,66,0
3,55,88,95
3,59,72,0
3,62,92,0
3,67,88,0
3,55,88,64
3,62,84,0
3,59,72,0
3,67,84,0
3,59,76,39
3,55,84,0
3,62,88,0
3,50,102,0
3,65,84,0
3,55,97,11
3,55,80,61
3,58,84,0
3,63,80,0
3,55,80,46
3,65,88,0
3,60,88,0
3,60,92,28
3,62,88,0
3,55,88,0
3,57,66,0
3,55,88,95
3,59,72,0
3,62,92,0
3,67,88,0
3,55,88,64
3,62,84,0
3,59,72,0
3,67,84,0
3,59,76,39
3,55,84,0
3,62,88,0
3,50,102,0
3,65,84,0
3,55,97,11
3,55,80,61
3,58,84,0
3,63,80,0
3,55,80,46
3,65,88,0
3,60,88,0
3,60,92,28
3,62,88,0
3,55,88,0
3,57,66,0
3,55,88,95
3,59,72,0
3,62,92,0
3,67,88,0
3,55,88,64
3,62,84,0
3,59,72,0
3,67,84,0
3,59,76,39
3,55,84,0
3,62,88,0
3,50,102,0
3,65,84,0
3,55,97,11
3,55,80,61
3,58,84,0
3,63,80,0
3,55,80,46
3,65,88,0
3,60,88,0
3,60,92,28
3,62,88,0
3,55,88,0
3,57,66,0
3,55,88,95
3,59,72,0
3,62,92,0
3,67,88,0
3,55,88,64
3,62,84,0
3,59,72,0
3,67,84,0
3,59,76,39
3,55,84,0
3,62,88,0
3,50,102,0
3,65,84,0
3,55,97,11
3,67,80,61
3,62,72,0
3,70,64,0
3,67,88,330
3,63,88,0
3,70,66,0
3,62,60,26
3,67,68,0
3,70,56,0
3,67,68,167
3,72,84,0
3,63,72,0
3,70,66,65
3,67,72,0
3,62,64,0
3,70,68,201
3,63,84,0
3,67,80,0
3,70,62,23
3,67,66,0
3,62,64,0
3,67,72,68
3,72,72,0
3,63,76,0
3,67,80,1
3,62,72,0
3,70,64,0
3,67,88,330
3,63,88,0
3,70,66,0
3,62,60,26
3,67,68,0
3,70,56,0
3,67,68,167
3,72,84,0
3,63,72,0
3,70,66,65
3,67,72,0
3,62,64,0
3,70,68,201
3,63,84,0
3,67,80,0
3,70,62,23
3,67,66,0
3,62,64,0
3,67,72,68
3,72,72,0
3,63,76,0
3,55,80,1
3,58,84,0
3,63,80,0
3,55,80,46
3,65,88,0
3,60,88,0
3,60,92,28
3,62,88,0
3,55,88,0
3,57,66,0
3,55,88,95
3,59,72,0
3,62,92,0
3,67,88,0
3,55,88,64
3,62,84,0
3,59,72,0
3,67,84,0
3,59,76,39
3,55,84,0
3,62,88,0
3,50,102,0
3,65,84,0
3,55,97,11
3,55,80,61
3,58,84,0
3,63,80,0
3,55,80,46
3,65,88,0
3,60,88,0
3,60,92,28
3,62,88,0
3,55,88,0
3,57,66,0
3,55,88,95
3,59,72,0
3,62,92,0
3,67,88,0
3,55,88,64
3,62,84,0
3,59,72,0
3,67,84,0
3,59,76,39
3,55,84,0
3,62,88,0
3,50,102,0
3,65,84,0
3,55,97,11
3,67,80,829
3,62,72,0
3,70,64,0
3,67,88,330
3,63,88,0
3,70,66,0
3,62,60,26
3,67,68,0
3,70,56,0
3,67,68,167
3,72,84,0
3,63,72,0
3,70,66,65
3,67,72,0
3,62,64,0
3,70,68,201
3,63,84,0
3,67,80,0
3,70,62,23
3,67,66,0
3,62,64,0
3,67,72,68
3,72,72,0
3,63,76,0
3,67,80,1
3,62,72,0
3,70,64,0
3,67,88,330
3,63,88,0
3,70,66,0
3,62,60,26
3,67,68,0
3,70,56,0
3,67,68,167
3,72,84,0
3,63,72,0
3,70,66,65
3,67,72,0
3,62,64,0
3,70,68,201
3,63,84,0
3,67,80,0
3,70,62,23
3,67,66,0
3,62,64,0
3,67,72,68
3,72,72,0
3,63,76,0
3,55,80,1
3,58,84,0
3,63,80,0
3,55,80,46
3,65,88,0
3,60,88,0
3,60,92,28
3,62,88,0
3,55,88,0
3,57,66,0
3,55,88,95
3,59,72,0
3,62,92,0
3,67,88,0
3,55,88,64
3,62,84,0
3,59,72,0
3,67,84,0
3,59,76,39
3,55,84,0
3,62,88,0
3,50,102,0
3,65,84,0
3,55,97,11
3,55,80,61
3,58,84,0
3,63,80,0
3,55,80,46
3,65,88,0
3,60,88,0
3,60,92,28
3,62,88,0
3,55,88,0
3,57,66,0
3,55,88,95
3,59,72,0
3,62,92,0
3,67,88,0
3,55,88,64
3,62,84,0
3,59,72,0
3,67,84,0
3,59,76,39
3,55,84,0
3,62,88,0
3,50,102,0
3,65,84,0
3,55,97,11
3,55,80,61
3,58,84,0
3,63,80,0
3,55,80,46
3,65,88,0
3,60,88,0
3,60,92,28
3,62,88,0
3,55,88,0
3,57,66,0
3,55,88,95
3,59,72,0
3,62,92,0
3,67,88,0
3,55,88,64
3,62,84,0
3,59,72,0
3,67,84,0
3,59,76,39
3,55,84,0
3,62,88,0
3,50,102,0
3,65,84,0
3,55,97,11
3,55,80,61
3,58,84,0
3,63,80,0
3,55,80,46
3,65,88,0
3,60,88,0
3,60,92,28
3,62,88,0
3,55,88,0
3,57,66,0
3,55,88,95
3,59,72,0
3,62,92,0
3,67,88,0
3,55,88,64
3,62,84,0
3,59,72,0
3,67,84,0
3,59,76,39
3,55,84,0
3,62,88,0
3,50,102,0
3,65,84,0
3,55,97,11
3,63,68,61
3,60,64,0
3,67,84,0
3,68,68,36
3,63,72,0
3,60,72,0
3,69,72,34
3,63,64,0
3,60,58,0
3,68,68,40
3,63,66,0
3,60,48,0
3,67,76,27
3,63,60,0
3,60,62,0
3,63,66,21
3,60,64,0
3,68,76,0
3,60,58,11
3,63,54,0
3,69,56,0
3,60,54,50
3,63,66,0
3,68,66,0
3,63,68,62
3,60,64,0
