track,note,velocity,time
3,77,118,0
3,76,127,0
3,77,0,4
3,76,0,325
3,72,127,0
3,74,127,0
3,72,0,1
3,74,0,298
3,72,127,0
3,72,0,82
3,72,127,0
3,69,113,117
3,72,0,19
3,69,0,43
3,67,103,0
3,67,0,389
3,77,106,0
3,76,127,0
3,77,0,7
3,77,122,0
3,76,0,7
3,76,127,0
3,77,0,9
3,77,106,0
3,76,0,9
3,77,0,111
3,79,127,0
3,72,127,0
3,79,0,3
3,72,0,37
3,72,127,0
3,69,103,0
3,72,0,6
3,74,110,0
3,69,0,2
3,72,118,0
3,74,0,3
3,72,0,296
3,77,127,0
3,76,103,0
3,77,0,3
3,77,122,0
3,76,0,6
3,77,0,114
3,76,106,0
3,76,0,119
3,72,127,0
3,72,0,59
3,72,106,0
3,72,0,120
3,69,106,0
3,69,0,59
3,74,106,0
3,74,0,59
3,72,106,0
3,72,0,329
3,77,118,0
3,76,127,0
3,77,0,7
3,77,92,0
3,76,0,4
3,76,127,0
3,77,0,9
3,77,106,0
3,76,0,7
3,77,0,125
3,79,94,0
3,79,0,119
3,72,103,0
3,72,0,89
3,72,122,0
3,72,0,59
3,69,82,0
3,69,0,60
3,74,94,0
3,72,94,0
3,74,0,11
3,72,0,528
3,69,118,0
3,67,113,0
3,69,0,3
3,69,103,0
3,67,0,10
3,70,127,0
3,69,0,6
3,70,0,111
3,72,103,0
3,69,110,0
3,72,0,6
3,67,94,0
3,69,0,8
3,67,0,51
3,65,94,7
3,65,0,59
3,65,113,0
3,65,0,239
3,69,113,0
3,69,0,59
3,67,127,0
3,69,127,0
3,67,0,9
3,69,0,110
3,70,127,0
3,72,127,0
3,70,0,7
3,72,0,90
3,72,122,0
3,72,0,158
3,72,127,0
3,70,127,0
3,72,0,5
3,70,0,54
3,72,127,0
3,76,110,0
3,72,0,5
3,77,110,0
3,76,0,5
3,72,122,0
3,77,0,8
3,72,0,82
3,72,118,0
3,70,118,0
3,72,0,4
3,70,0,112
3,72,113,0
3,70,127,0
3,72,0,6
3,70,0,53
3,69,122,2
3,69,0,183
3,70,127,0
3,70,0,54
3,72,103,0
3,72,0,39
3,72,122,0
3,74,127,0
3,72,0,7
3,76,103,0
3,74,0,7
3,77,127,0
3,76,0,9
3,77,0,108
3,76,122,0
3,72,118,0
3,76,0,8
3,72,0,119
3,69,103,0
3,74,118,0
3,69,0,15
3,74,0,524
3,77,118,0
3,76,127,0
3,77,0,4
3,76,0,325
3,72,127,0
3,74,127,0
3,72,0,1
3,74,0,298
3,72,127,0
3,72,0,82
3,72,127,0
3,69,113,117
3,72,0,19
3,69,0,43
3,67,103,0
3,67,0,389
3,77,106,0
3,76,127,0
3,77,0,7
3,77,122,0
3,76,0,7
3,76,127,0
3,77,0,9
3,77,106,0
3,76,0,9
3,77,0,111
3,79,127,0
3,72,127,0
3,79,0,3
3,72,0,37
3,72,127,0
3,69,103,0
3,72,0,6
3,74,110,0
3,69,0,2
3,72,118,0
3,74,0,3
3,72,0,296
3,77,127,0
3,76,103,0
3,77,0,3
3,77,122,0
3,76,0,6
3,77,0,114
3,76,106,0
3,76,0,119
3,72,127,0
3,72,0,59
3,72,106,0
3,72,0,120
3,69,106,0
3,69,0,59
3,74,106,0
3,74,0,59
3,72,106,0
3,72,0,329
3,77,118,0
3,76,127,0
3,77,0,7
3,77,92,0
3,76,0,4
3,76,127,0
3,77,0,9
3,77,106,0
3,76,0,7
3,77,0,125
3,79,94,0
3,79,0,119
3,81,103,0
3,81,0,89
3,79,122,0
3,79,0,119
3,70,82,0
3,72,94,0
3,70,0,11
3,72,0,528
3,69,118,0
3,67,113,0
3,69,0,3
3,69,103,0
3,67,0,10
3,70,127,0
3,69,0,6
3,70,0,111
3,72,103,0
3,69,110,0
3,72,0,6
3,67,94,0
3,69,0,8
3,67,0,51
3,65,94,7
3,65,0,59
3,65,113,0
3,65,0,239
3,69,113,0
3,69,0,59
3,67,127,0
3,69,127,0
3,67,0,9
3,69,0,110
3,70,127,0
3,72,127,0
3,70,0,7
3,72,0,90
3,72,122,0
3,72,0,158
3,72,127,0
3,70,127,0
3,72,0,5
3,70,0,54
3,72,127,0
3,76,110,0
3,72,0,5
3,77,110,0
3,76,0,5
3,72,122,0
3,77,0,8
3,72,0,82
3,72,118,0
3,70,118,0
3,72,0,4
3,70,0,112
3,72,113,0
3,70,127,0
3,72,0,6
3,70,0,53
3,69,122,2
3,69,0,59
3,69,122,0
3,69,0,119
3,70,127,0
3,70,0,54
3,72,103,2
3,72,0,39
3,72,122,0
3,74,127,0
3,72,0,7
3,76,103,0
3,74,0,7
3,77,127,0
3,76,0,9
3,77,0,108
3,76,122,0
3,72,118,0
3,76,0,8
3,72,0,119
3,69,103,0
3,74,122,0
3,69,0,5
3,74,0,420
3,69,118,0
3,67,113,0
3,69,0,3
3,69,103,0
3,67,0,10
3,70,127,0
3,69,0,6
3,70,0,111
3,72,103,0
3,69,110,0
3,72,0,6
3,67,94,0
3,69,0,8
3,67,0,51
3,65,94,7
3,65,0,59
3,65,113,0
3,65,0,239
3,69,113,0
3,69,0,59
3,67,127,0
3,69,127,0
3,67,0,9
3,69,0,110
3,70,127,0
3,72,127,0
3,70,0,7
3,72,0,90
3,72,122,0
3,72,0,158
3,72,127,0
3,70,127,0
3,72,0,5
3,70,0,54
3,72,127,0
3,76,110,0
3,72,0,5
3,77,110,0
3,76,0,5
3,72,122,0
3,77,0,8
3,72,0,82
3,72,118,0
3,70,118,0
3,72,0,4
3,70,0,112
3,72,113,0
3,70,127,0
3,72,0,6
3,70,0,53
3,69,122,2
3,69,0,59
3,69,122,0
3,69,0,119
3,70,127,0
3,70,0,54
3,72,103,2
3,72,0,39
3,72,122,0
3,74,110,0
3,72,0,6
3,76,103,0
3,74,0,10
3,77,127,0
3,76,0,3
3,77,0,116
3,79,122,0
3,79,0,59
3,79,122,0
3,79,0,179
3,77,118,0
3,77,0,59
3,79,122,0
3,77,110,112
3,79,0,7
3,74,127,0
3,77,0,2
3,74,0,439
3,72,122,0
3,74,122,0
3,72,0,4
3,76,80,0
3,74,0,4
3,77,97,0
3,76,0,4
3,77,0,54
3,74,127,0
3,77,110,0
3,74,0,25
3,77,0,39
3,76,100,0
3,74,110,0
3,76,0,7
3,72,113,0
3,74,0,3
3,67,113,0
3,72,0,2
3,69,122,0
3,67,0,8
3,69,0,171
3,69,82,0
3,69,0,60
3,69,118,0
3,69,0,30
3,69,106,0
3,69,0,57
3,67,97,0
3,69,122,0
3,67,0,6
3,69,0,173
3,74,127,0
3,76,106,0
3,74,0,2
3,76,0,62
3,77,118,0
3,74,127,0
3,77,0,3
3,74,0,418
3,77,84,0
3,76,106,0
3,77,0,18
3,74,113,0
3,76,0,6
3,72,103,0
3,74,0,4
3,72,0,115
3,76,97,0
3,76,0,119
3,76,127,0
3,77,87,478
3,76,0,6
3,76,118,20
3,77,0,10
3,74,122,0
3,76,0,5
3,74,0,205
3,74,106,0
3,76,106,0
3,74,0,7
3,76,0,51
3,77,100,0
3,74,127,0
3,77,0,4
3,77,100,0
3,74,0,6
3,76,122,0
3,77,0,8
3,74,106,0
3,76,0,4
3,72,90,0
3,74,0,4
3,67,97,0
3,72,0,4
3,69,103,0
3,67,0,8
3,69,0,284
3,69,106,0
3,69,0,29
3,69,94,0
3,67,97,0
3,69,0,1
3,69,118,0
3,67,0,5
3,74,127,0
3,69,0,10
3,76,103,0
3,74,0,7
3,77,103,0
3,76,0,7
3,74,97,0
3,77,0,2
3,74,0,293
3,74,118,0
3,76,122,0
3,74,0,9
3,77,103,0
3,76,0,5
3,77,0,50
3,74,122,0
3,74,0,278
3,74,127,0
3,76,94,0
3,74,0,7
3,76,0,60
3,77,106,0
3,77,0,119
3,74,110,0
3,74,0,719
3,69,118,0
3,67,113,0
3,69,0,3
3,69,103,0
3,67,0,10
3,70,127,0
3,69,0,6
3,70,0,111
3,72,103,0
3,69,110,0
3,72,0,6
3,67,94,0
3,69,0,8
3,67,0,51
3,65,94,7
3,65,0,59
3,65,113,0
3,65,0,239
3,69,113,0
3,69,0,59
3,67,127,0
3,69,127,0
3,67,0,9
3,69,0,110
3,70,127,0
3,72,127,0
3,70,0,7
3,72,0,90
3,72,122,0
3,72,0,158
3,72,127,0
3,70,127,0
3,72,0,5
3,70,0,54
3,72,127,0
3,76,110,0
3,72,0,5
3,77,110,0
3,76,0,5
3,72,122,0
3,77,0,8
3,72,0,82
3,72,118,0
3,70,118,0
3,72,0,4
3,70,0,112
3,72,113,0
3,70,127,0
3,72,0,6
3,70,0,53
3,69,122,2
3,69,0,59
3,69,122,0
3,69,0,119
3,70,127,0
3,70,0,54
3,72,103,2
3,72,0,39
3,72,122,0
3,74,127,0
3,72,0,7
3,76,103,0
3,74,0,7
3,77,127,0
3,76,0,9
3,77,0,108
3,76,122,0
3,72,118,0
3,76,0,8
3,72,0,119
3,69,103,0
3,74,122,0
3,69,0,5
3,74,0,420
3,69,118,0
3,67,113,0
3,69,0,3
3,69,103,0
3,67,0,10
3,70,127,0
3,69,0,6
3,70,0,111
3,72,103,0
3,69,110,0
3,72,0,6
3,67,94,0
3,69,0,8
3,67,0,51
3,65,94,7
3,65,0,59
3,65,113,0
3,65,0,239
3,69,113,0
3,69,0,59
3,67,127,0
3,69,127,0
3,67,0,9
3,69,0,110
3,70,127,0
3,72,127,0
3,70,0,7
3,72,0,90
3,72,122,0
3,72,0,158
3,72,127,0
3,70,127,0
3,72,0,5
3,70,0,54
3,72,127,0
3,76,110,0
3,72,0,5
3,77,110,0
3,76,0,5
3,72,122,0
3,77,0,8
3,72,0,82
3,72,118,0
3,70,118,0
3,72,0,4
3,70,0,112
3,72,113,0
3,70,127,0
3,72,0,6
3,70,0,53
3,69,122,2
3,69,0,59
3,69,122,0
3,69,0,119
3,70,127,0
3,70,0,54
3,72,103,2
3,72,0,39
3,72,122,0
3,74,127,0
3,72,0,7
3,76,103,0
3,74,0,7
3,77,127,0
3,76,0,3
3,77,0,116
3,79,122,0
3,79,0,59
3,79,122,0
3,79,0,179
3,77,118,0
3,77,0,59
3,79,122,0
3,77,110,112
3,79,0,7
3,74,127,0
3,77,0,2
3,74,0,439
4,65,118,40716
4,65,113,56
4,65,0,3
4,65,103,113
4,65,0,10
4,65,127,49
4,65,0,6
4,65,0,111
4,65,103,3
4,65,110,128
4,65,0,6
4,65,94,109
4,65,0,8
4,65,0,51
4,60,94,7
4,60,0,59
4,60,113,1
4,60,0,239
4,65,113,5
4,65,0,59
4,65,127,0
4,65,127,117
4,65,0,9
4,65,0,110
4,65,127,1
4,65,127,52
4,65,0,7
4,65,0,90
4,64,122,21
4,64,0,158
4,65,127,26
4,64,127,49
4,65,0,5
4,64,0,54
4,65,127,5
4,69,110,127
4,65,0,5
4,70,110,55
4,69,0,5
4,65,122,124
4,70,0,8
4,65,0,82
4,65,118,22
4,65,118,120
4,65,0,4
4,65,0,112
4,69,113,2
4,67,127,126
4,69,0,6
4,67,0,53
4,65,122,2
4,65,0,59
4,65,122,1
4,65,0,119
4,67,127,57
4,69,103,56
4,67,0,3
4,69,0,36
4,69,122,21
4,69,0,374
4,67,127,10014
4,67,0,119
4,67,127,1
4,67,0,479
4,69,127,1
4,69,0,29
4,67,127,1
4,67,0,29
4,65,127,1
4,65,0,239
4,69,127,241
4,69,0,179
4,67,127,1
4,67,0,119
4,65,127,1
4,65,0,119
4,64,127,1
4,64,0,419
4,65,127,361
4,65,0,59
4,65,127,1
4,65,0,59
4,65,127,1
4,65,0,59
4,64,127,1
4,64,0,119
4,65,118,9481
4,65,113,56
4,65,0,3
4,65,103,113
4,65,0,10
4,65,127,49
4,65,0,6
4,65,0,111
4,65,103,3
4,65,110,128
4,65,0,6
4,65,94,109
4,65,0,8
4,65,0,51
4,60,94,7
4,60,0,59
4,60,113,1
4,60,0,239
4,65,113,5
4,65,0,59
4,65,127,0
4,65,127,117
4,65,0,9
4,65,0,110
4,65,127,1
4,65,127,52
4,65,0,7
4,65,0,90
4,64,122,21
4,64,0,158
4,65,127,26
4,64,127,49
4,65,0,5
4,64,0,54
4,65,127,5
4,69,110,127
4,65,0,5
4,70,110,55
4,69,0,5
4,65,122,124
4,70,0,8
4,65,0,82
4,65,118,22
4,65,118,120
4,65,0,4
4,65,0,112
4,69,113,2
4,67,127,126
4,69,0,6
4,67,0,53
4,65,122,2
4,65,0,59
4,65,122,1
4,65,0,119
4,67,127,57
4,69,103,56
4,67,0,3
4,69,0,36
4,69,122,21
4,69,0,374
5,38,74,4
5,50,73,2
5,62,89,1288
5,57,96,0
5,38,78,2
5,50,91,4
5,69,79,382
5,76,69,0
5,76,0,161
5,69,0,17
5,72,71,104
5,67,71,1
5,72,0,91
5,67,0,17
5,62,69,169
5,67,72,1
5,62,0,749
5,67,0,1
5,50,0,135
5,62,0,1
5,57,0,3
5,38,0,0
5,38,0,290
5,50,0,3
5,38,75,396
5,50,96,0
5,69,67,18
5,76,85,0
5,76,0,29
5,69,0,6
5,50,0,11
5,38,0,42
5,67,75,4
5,50,62,2
5,72,86,0
5,38,57,0
5,72,0,37
5,67,0,1
5,38,0,102
5,50,0,15
5,67,89,7
5,62,67,0
5,50,56,0
5,38,60,0
5,67,0,6
5,62,0,2
5,38,0,10
5,50,0,19
5,60,82,13
5,53,75,0
5,45,71,0
5,57,77,0
5,57,0,124
5,60,0,23
5,53,0,2
5,45,0,16
5,58,94,15
5,62,93,0
5,53,82,0
5,46,76,2
5,62,0,153
5,53,0,7
5,58,0,6
5,46,0,72
5,60,82,0
5,65,86,0
5,55,77,0
5,48,80,2
5,55,0,179
5,60,0,10
5,65,0,1
5,48,0,10
5,46,57,38
5,53,72,0
5,62,108,1
5,58,73,0
5,65,86,1
5,62,0,99
5,65,0,16
5,58,0,14
5,53,0,19
5,46,0,6
5,48,91,24
5,60,73,0
5,62,93,60
5,50,93,0
5,60,0,1
5,48,0,3
5,50,0,18
5,50,96,38
5,38,91,0
5,62,0,20
5,50,0,81
5,69,77,38
5,50,78,0
5,76,83,0
5,76,0,55
5,69,0,13
5,50,0,30
5,72,93,50
5,67,86,0
5,50,78,0
5,72,0,17
5,67,0,3
5,50,0,43
5,50,66,74
5,62,71,0
5,67,89,0
5,67,0,7
5,62,0,6
5,38,0,9
5,50,0,94
5,60,82,3
5,53,78,0
5,57,83,0
5,45,82,1
5,53,0,2
5,57,0,6
5,60,0,4
5,45,0,13
5,62,89,18
5,58,75,0
5,46,76,0
5,53,72,0
5,53,0,39
5,62,0,6
5,58,0,2
5,46,0,10
5,65,73,9
5,55,73,0
5,60,89,0
5,48,70,0
5,65,0,2
5,60,0,7
5,55,0,1
5,48,0,28
5,58,71,7
5,62,96,0
5,65,89,0
5,53,73,2
5,46,47,0
5,62,0,124
5,58,0,5
5,65,0,14
5,53,0,19
5,46,0,1
5,48,98,15
5,60,83,2
5,60,0,36
5,48,0,4
5,62,85,1
5,50,98,0
5,50,0,18
5,62,0,13
5,50,93,2
5,38,108,0
5,50,0,45
5,69,67,16
5,76,85,0
5,50,70,0
5,50,0,54
5,76,0,2
5,69,0,10
5,50,46,11
5,50,0,30
5,67,83,4
5,72,98,0
5,50,69,0
5,72,0,16
5,67,0,8
5,38,0,90
5,67,100,13
5,62,73,0
5,38,82,0
5,67,0,9
5,62,0,5
5,38,0,13
5,50,0,77
5,45,89,7
5,60,89,0
5,57,93,1
5,53,83,1
5,57,0,12
5,53,0,2
5,60,0,2
5,45,0,6
5,58,73,15
5,62,85,0
5,46,87,0
5,53,72,1
5,53,0,158
5,62,0,1
5,58,0,12
5,65,75,2
5,60,82,0
5,55,83,0
5,48,86,0
5,46,0,2
5,60,0,56
5,48,0,6
5,55,0,7
5,65,0,2
5,58,75,12
5,62,103,0
5,53,82,0
5,46,71,0
5,65,93,0
5,65,0,14
5,62,0,0
5,58,0,11
5,46,0,36
5,53,0,2
5,60,86,28
5,48,82,0
