track,note,velocity,time
2,36,92,1244
2,48,82,0
2,48,0,109
2,36,0,0
2,36,92,83
2,48,82,0
2,48,0,102
2,36,0,0
2,31,92,90
2,43,82,0
2,43,0,82
2,31,0,0
2,36,92,14
2,48,82,0
2,48,0,111
2,36,0,0
2,31,92,81
2,43,82,0
2,43,0,75
2,31,0,0
2,36,92,21
2,48,82,0
2,48,0,102
2,36,0,0
2,36,92,90
2,48,82,0
2,48,0,103
2,36,0,0
2,31,92,89
2,43,82,0
2,43,0,84
2,31,0,0
2,36,92,12
2,48,82,0
2,48,0,92
2,36,0,0
2,31,92,100
2,43,82,0
2,43,0,75
2,31,0,0
2,36,92,21
2,48,82,0
2,48,0,109
2,36,0,0
2,36,92,83
2,48,82,0
2,48,0,102
2,36,0,0
2,31,92,90
2,43,82,0
2,43,0,82
2,31,0,0
2,36,92,14
2,48,82,0
2,48,0,111
2,36,0,0
2,31,92,81
2,43,82,0
2,43,0,75
2,31,0,0
2,36,92,21
2,48,82,0
2,48,0,102
2,36,0,0
2,36,92,90
2,48,82,0
2,48,0,103
2,36,0,0
2,31,92,89
2,43,82,0
2,43,0,84
2,31,0,0
2,36,92,12
2,48,82,0
2,48,0,92
2,36,0,0
2,31,92,100
2,43,82,0
2,43,0,75
2,31,0,0
2,36,92,21
2,48,82,0
2,48,0,109
2,36,0,0
2,36,92,83
2,48,82,0
2,48,0,102
2,36,0,0
2,31,92,90
2,43,82,0
2,43,0,82
2,31,0,0
2,36,92,14
2,48,82,0
2,48,0,111
2,36,0,0
2,31,92,81
2,43,82,0
2,43,0,75
2,31,0,0
2,36,92,21
2,48,82,0
2,48,0,102
2,36,0,0
2,36,92,90
2,48,82,0
2,48,0,103
2,36,0,0
2,31,92,89
2,43,82,0
2,43,0,84
2,31,0,0
2,36,92,12
2,48,82,0
2,48,0,92
2,36,0,0
2,31,92,100
2,43,82,0
2,43,0,75
2,31,0,0
2,36,92,21
2,48,82,0
2,48,0,109
2,36,0,0
2,36,92,83
2,48,82,0
2,48,0,102
2,36,0,0
2,31,92,90
2,43,82,0
2,43,0,82
2,31,0,0
2,36,92,14
2,48,82,0
2,48,0,111
2,36,0,0
2,31,92,81
2,43,82,0
2,43,0,75
2,31,0,0
2,36,92,21
2,48,82,0
2,48,0,102
2,36,0,0
2,36,92,90
2,48,82,0
2,48,0,103
2,36,0,0
2,31,92,89
2,43,82,0
2,43,0,84
2,31,0,0
2,36,92,12
2,48,82,0
2,48,0,92
2,36,0,0
2,31,92,100
2,43,82,0
2,43,0,75
2,31,0,0
2,36,92,21
2,48,82,0
2,48,0,109
2,36,0,0
2,36,92,83
2,48,82,0
2,48,0,102
2,36,0,0
2,31,92,90
2,43,82,0
2,43,0,82
2,31,0,0
2,36,92,14
2,48,82,0
2,48,0,111
2,36,0,0
2,31,92,81
2,43,82,0
2,43,0,75
2,31,0,0
2,36,92,21
2,48,82,0
2,48,0,102
2,36,0,0
2,36,92,90
2,48,82,0
2,48,0,103
2,36,0,0
2,31,92,89
2,43,82,0
2,43,0,84
2,31,0,0
2,36,92,12
2,48,82,0
2,48,0,92
2,36,0,0
2,31,92,100
2,43,82,0
2,43,0,75
2,31,0,0
2,36,92,21
2,48,82,0
2,48,0,109
2,36,0,0
2,36,92,83
2,48,82,0
2,48,0,102
2,36,0,0
2,31,92,90
2,43,82,0
2,43,0,82
2,31,0,0
2,36,92,14
2,48,82,0
2,48,0,111
2,36,0,0
2,31,92,81
2,43,82,0
2,43,0,75
2,31,0,0
2,36,92,21
2,48,82,0
2,48,0,102
2,36,0,0
2,36,92,90
2,48,82,0
2,48,0,103
2,36,0,0
2,31,92,89
2,43,82,0
2,43,0,84
2,31,0,0
2,36,92,12
2,48,82,0
2,48,0,92
2,36,0,0
2,31,92,100
2,43,82,0
2,43,0,75
2,31,0,0
2,36,92,21
2,48,82,0
2,48,0,109
2,36,0,0
2,36,92,83
2,48,82,0
2,48,0,102
2,36,0,0
2,31,92,90
2,43,82,0
2,43,0,82
2,31,0,0
2,36,92,14
2,48,82,0
2,48,0,111
2,36,0,0
2,31,92,81
2,43,82,0
2,43,0,75
2,31,0,0
2,36,92,21
2,48,82,0
2,48,0,102
2,36,0,0
2,36,92,90
2,48,82,0
2,48,0,103
2,36,0,0
2,31,92,89
2,43,82,0
2,43,0,84
2,31,0,0
2,36,92,12
2,48,82,0
2,48,0,92
2,36,0,0
2,31,92,100
2,43,82,0
2,43,0,75
2,31,0,0
2,36,92,21
2,48,82,0
2,48,0,109
2,36,0,0
2,36,92,83
2,48,82,0
2,48,0,102
2,36,0,0
2,31,92,90
2,43,82,0
2,43,0,82
2,31,0,0
2,36,92,14
2,48,82,0
2,48,0,111
2,36,0,0
2,31,92,81
2,43,82,0
2,43,0,75
2,31,0,0
2,36,92,21
2,48,82,0
2,48,0,102
2,36,0,0
2,36,92,90
2,48,82,0
2,48,0,103
2,36,0,0
2,31,92,89
2,43,82,0
2,43,0,84
2,31,0,0
2,36,92,12
2,48,82,0
2,48,0,92
2,36,0,0
2,31,92,100
2,43,82,0
2,43,0,75
2,31,0,0
2,36,92,21
2,48,82,0
2,48,0,109
2,36,0,0
2,36,92,83
2,48,82,0
2,48,0,102
2,36,0,0
2,31,92,90
2,43,82,0
2,43,0,82
2,31,0,0
2,36,92,14
2,48,82,0
2,48,0,111
2,36,0,0
2,31,92,81
2,43,82,0
2,43,0,75
2,31,0,0
2,36,92,21
2,48,82,0
2,48,0,102
2,36,0,0
2,36,92,90
2,48,82,0
2,48,0,103
2,36,0,0
2,31,92,89
2,43,82,0
2,43,0,84
2,31,0,0
2,36,92,12
2,48,82,0
2,48,0,92
2,36,0,0
2,31,92,100
2,43,82,0
2,43,0,75
2,31,0,0
2,34,92,21
2,46,82,0
2,46,0,109
2,34,0,0
2,34,92,83
2,46,82,0
2,46,0,102
2,34,0,0
2,29,92,90
2,41,82,0
2,41,0,82
2,29,0,0
2,34,92,14
2,46,82,0
2,46,0,111
2,34,0,0
2,29,92,81
2,41,82,0
2,41,0,75
2,29,0,0
2,33,92,21
2,45,82,0
2,45,0,102
2,33,0,0
2,33,92,90
2,45,82,0
2,45,0,103
2,33,0,0
2,28,92,89
2,40,82,0
2,40,0,84
2,28,0,0
2,33,92,12
2,45,82,0
2,45,0,92
2,33,0,0
2,31,92,100
2,43,82,0
2,43,0,75
2,31,0,0
2,36,92,21
2,48,82,0
2,48,0,109
2,36,0,0
2,36,92,83
2,48,82,0
2,48,0,102
2,36,0,0
2,31,92,90
2,43,82,0
2,43,0,82
2,31,0,0
2,36,92,14
2,48,82,0
2,48,0,111
2,36,0,0
2,31,92,81
2,43,82,0
2,43,0,75
2,31,0,0
2,36,92,21
2,48,82,0
2,48,0,102
2,36,0,0
2,36,92,90
2,48,82,0
2,48,0,103
2,36,0,0
2,31,92,89
2,43,82,0
2,43,0,84
2,31,0,0
2,36,92,12
2,48,82,0
2,48,0,92
2,36,0,0
2,36,92,100
2,48,82,0
2,48,0,75
2,36,0,0
2,38,92,21
2,50,82,0
2,50,0,106
2,38,0,0
2,38,92,86
2,50,82,0
2,50,0,109
2,38,0,0
2,31,92,83
2,43,82,0
2,43,0,95
2,43,92,1
2,55,82,0
2,43,0,1
2,31,0,0
2,55,0,114
2,31,92,77
2,43,82,0
2,43,0,96
2,31,0,0
2,36,92,0
2,48,82,0
2,48,0,103
2,36,0,0
2,36,92,89
2,48,82,0
2,48,0,101
2,36,0,0
2,31,92,91
2,43,82,0
2,43,0,96
2,31,0,0
2,36,92,0
2,48,82,0
2,48,0,119
2,36,0,0
2,31,92,73
2,43,82,0
2,43,0,96
2,31,0,0
2,36,92,0
2,48,82,0
2,48,0,109
2,36,0,0
2,36,92,83
2,48,82,0
2,48,0,102
2,36,0,0
2,31,92,90
2,43,82,0
2,43,0,82
2,31,0,0
2,36,92,14
2,48,82,0
2,48,0,111
2,36,0,0
2,31,92,81
2,43,82,0
2,43,0,75
2,31,0,0
2,36,92,21
2,48,82,0
2,48,0,102
2,36,0,0
2,36,92,90
2,48,82,0
2,48,0,103
2,36,0,0
2,31,92,89
2,43,82,0
2,43,0,84
2,31,0,0
2,36,92,12
2,48,82,0
2,48,0,92
2,36,0,0
2,31,92,100
2,43,82,0
2,43,0,75
2,31,0,0
2,34,92,21
2,46,82,0
2,64,64,63
2,64,0,0
2,46,0,46
2,34,0,0
2,34,92,83
2,46,82,0
2,46,0,102
2,34,0,0
2,29,92,90
2,41,82,0
2,41,0,82
2,29,0,0
2,34,92,14
2,46,82,0
2,46,0,111
2,34,0,0
2,29,92,81
2,41,82,0
2,41,0,75
2,29,0,0
2,33,92,21
2,45,82,0
2,45,0,102
2,33,0,0
2,33,92,90
2,45,82,0
2,64,69,68
2,64,0,0
2,45,0,35
2,33,0,0
2,28,92,89
2,40,82,0
2,64,77,76
2,64,0,0
2,40,0,8
2,28,0,0
2,33,92,12
2,45,82,0
2,45,0,92
2,33,0,0
2,64,80,83
2,64,0,0
2,31,92,17
2,43,82,0
2,43,0,75
2,31,0,0
2,36,92,21
2,48,82,0
2,48,0,109
2,36,0,0
2,36,92,83
2,48,82,0
2,48,0,102
2,36,0,0
2,31,92,90
2,43,82,0
2,43,0,82
2,31,0,0
2,36,92,14
2,48,82,0
2,48,0,111
2,36,0,0
2,31,92,81
2,43,82,0
2,43,0,75
2,31,0,0
2,36,92,21
2,48,82,0
2,48,0,102
2,36,0,0
2,36,92,90
2,48,82,0
2,48,0,103
2,36,0,0
2,31,92,89
2,43,82,0
2,43,0,84
2,31,0,0
2,36,92,12
2,48,82,0
2,48,0,92
2,36,0,0
2,36,92,100
2,48,82,0
2,48,0,75
2,36,0,0
2,38,92,21
2,50,82,0
2,50,0,106
2,38,0,0
2,38,92,86
2,50,82,0
2,50,0,109
2,38,0,0
2,31,92,83
2,43,82,0
2,43,0,95
2,43,92,1
2,55,82,0
2,43,0,1
2,31,0,0
2,55,0,114
2,31,92,77
2,43,82,0
2,43,0,96
2,31,0,0
2,36,92,0
2,48,82,0
2,48,0,103
2,36,0,0
2,36,92,89
2,48,82,0
2,48,0,101
2,36,0,0
2,31,92,91
2,43,82,0
2,43,0,96
2,31,0,0
2,36,92,0
2,48,82,0
2,48,0,119
2,36,0,0
2,31,92,73
2,43,82,0
2,43,0,96
2,31,0,0
2,29,92,0
2,41,82,0
2,41,0,109
2,29,0,0
2,29,92,83
2,41,82,0
2,41,0,85
2,29,0,0
2,28,92,11
2,40,82,0
2,40,0,82
2,28,0,0
2,31,92,14
2,43,82,0
2,43,0,90
2,31,0,0
2,43,92,6
2,55,82,0
2,55,0,87
2,43,0,0
2,31,92,105
2,43,82,0
2,43,0,82
2,31,0,0
2,31,92,14
2,43,82,0
2,43,0,119
2,31,0,0
2,31,92,73
2,43,82,0
2,43,0,79
2,31,0,0
2,28,92,17
2,40,82,0
2,40,0,79
2,28,0,0
2,33,92,17
2,45,82,0
2,45,0,92
2,33,0,0
2,45,92,4
2,57,82,0
2,57,0,81
2,45,0,0
2,31,92,15
2,43,82,0
2,43,0,92
2,31,0,0
2,43,92,4
2,55,82,0
2,55,0,84
2,43,0,0
2,29,92,12
2,41,82,0
2,41,0,92
2,29,0,0
2,29,92,100
2,41,82,0
2,41,0,80
2,29,0,0
2,28,92,16
2,40,82,0
2,40,0,80
2,28,0,0
2,31,92,16
2,43,82,0
2,43,0,92
2,31,0,0
2,43,92,4
2,55,82,0
2,55,0,74
2,43,0,0
2,31,92,118
2,43,82,0
2,43,0,93
2,31,0,0
2,33,92,3
2,45,82,0
2,45,0,76
2,33,0,0
2,33,92,116
2,45,82,0
2,45,0,75
2,33,0,0
2,28,92,21
2,40,82,0
2,40,0,90
2,28,0,0
2,31,92,6
2,43,82,0
2,43,0,77
2,31,0,0
2,43,92,19
2,55,82,0
2,55,0,80
2,43,0,0
2,31,92,16
2,43,82,0
2,43,0,82
2,31,0,0
2,43,92,14
2,55,82,0
2,55,0,82
2,43,0,0
2,29,92,14
2,41,82,0
2,41,0,109
2,29,0,0
2,29,92,83
2,41,82,0
2,41,0,79
2,29,0,0
2,28,92,17
2,40,82,0
2,40,0,79
2,28,0,0
2,31,92,17
2,43,82,0
2,43,0,90
2,31,0,0
2,43,92,6
2,55,82,0
2,55,0,87
2,43,0,0
2,31,92,105
2,43,82,0
2,43,0,72
2,31,0,0
2,31,92,24
2,43,82,0
2,43,0,119
2,31,0,0
2,31,92,73
2,43,82,0
2,43,0,74
2,31,0,0
2,28,92,22
2,40,82,0
2,40,0,78
2,28,0,0
2,33,92,18
2,45,82,0
2,45,0,92
2,33,0,0
2,45,92,4
2,57,82,0
2,57,0,81
2,45,0,0
2,31,92,15
2,43,82,0
2,43,0,92
2,31,0,0
2,43,92,4
2,55,82,0
2,55,0,84
2,43,0,0
2,29,92,12
2,41,82,0
2,41,0,92
2,29,0,0
2,29,92,100
2,41,82,0
2,41,0,75
2,29,0,0
2,28,92,21
2,40,82,0
2,40,0,75
2,28,0,0
2,31,92,21
2,43,82,0
2,43,0,92
2,31,0,0
2,43,92,4
2,55,82,0
2,55,0,74
2,43,0,0
2,31,92,118
2,43,82,0
2,43,0,93
2,31,0,0
2,36,92,3
2,48,82,0
2,48,0,109
2,36,0,0
2,36,92,83
2,48,82,0
2,48,0,102
2,36,0,0
2,31,92,90
2,43,82,0
2,43,0,82
2,31,0,0
2,36,92,14
2,48,82,0
2,48,0,111
2,36,0,0
2,31,92,81
2,43,82,0
2,43,0,75
2,31,0,0
2,36,92,21
2,48,82,0
2,48,0,102
2,36,0,0
2,36,92,90
2,48,82,0
2,48,0,103
2,36,0,0
2,31,92,89
2,43,82,0
2,43,0,84
2,31,0,0
2,36,92,12
2,48,82,0
2,48,0,92
2,36,0,0
2,31,92,100
2,43,82,0
2,43,0,75
2,31,0,0
2,36,92,21
2,48,82,0
2,48,0,109
2,36,0,0
2,36,92,83
2,48,82,0
2,48,0,102
2,36,0,0
2,31,92,90
2,43,82,0
2,43,0,82
2,31,0,0
2,36,92,14
2,48,82,0
2,48,0,111
2,36,0,0
2,31,92,81
2,43,82,0
2,43,0,75
2,31,0,0
2,36,92,21
2,48,82,0
2,48,0,102
2,36,0,0
2,36,92,90
2,48,82,0
2,48,0,103
2,36,0,0
2,31,92,89
2,43,82,0
2,43,0,84
2,31,0,0
2,36,92,12
2,48,82,0
2,48,0,92
2,36,0,0
2,31,92,100
2,43,82,0
2,43,0,75
2,31,0,0
2,36,92,21
2,48,82,0
2,48,0,109
2,36,0,0
2,36,92,83
2,48,82,0
2,48,0,102
2,36,0,0
2,31,92,90
2,43,82,0
2,43,0,82
2,31,0,0
2,36,92,14
2,48,82,0
2,48,0,111
2,36,0,0
2,31,92,81
2,43,82,0
2,43,0,75
2,31,0,0
2,36,92,21
2,48,82,0
2,48,0,102
2,36,0,0
2,36,92,90
2,48,82,0
2,48,0,103
2,36,0,0
2,31,92,89
2,43,82,0
2,43,0,84
2,31,0,0
2,36,92,12
2,48,82,0
2,48,0,92
2,36,0,0
2,31,92,100
2,43,82,0
2,43,0,75
2,31,0,0
2,34,92,21
2,46,82,0
2,46,0,109
2,34,0,0
2,34,92,83
2,46,82,0
2,46,0,102
2,34,0,0
2,29,92,90
2,41,82,0
2,41,0,82
2,29,0,0
2,34,92,14
2,46,82,0
2,46,0,111
2,34,0,0
2,29,92,81
2,41,82,0
2,41,0,75
2,29,0,0
2,33,92,21
2,45,82,0
2,45,0,102
2,33,0,0
2,33,92,90
2,45,82,0
2,45,0,103
2,33,0,0
2,28,92,89
2,40,82,0
2,40,0,84
2,28,0,0
2,33,92,12
2,45,82,0
2,45,0,92
2,33,0,0
2,31,92,100
2,43,82,0
2,43,0,75
2,31,0,0
2,36,92,21
2,48,82,0
2,48,0,109
2,36,0,0
2,36,92,83
2,48,82,0
2,48,0,102
2,36,0,0
2,31,92,90
2,43,82,0
2,43,0,82
2,31,0,0
