track,note,velocity,time
0,65,64,0
0,53,64,0
0,51,64,0
0,46,64,0
0,39,64,0
0,39,80,0
0,67,64,0
0,55,64,0
0,70,64,0
0,58,64,0
0,53,64,0
0,48,64,0
0,41,64,0
0,41,80,0
0,69,64,0
0,57,64,0
0,64,64,0
0,52,64,0
0,48,64,0
0,43,64,0
0,36,64,0
0,36,80,0
0,52,64,0
0,52,64,0
0,55,64,0
0,52,64,0
0,74,64,0
0,65,64,0
0,46,64,0
0,53,64,120
0,58,64,0
0,76,64,0
0,67,64,0
0,72,64,0
0,64,64,0
0,45,64,0
0,53,64,120
0,57,64,0
0,71,64,120
0,62,64,0
0,69,64,0
0,43,64,0
0,69,48,0
0,50,64,240
0,57,64,0
0,50,64,0
0,67,64,0
0,55,64,0
0,67,48,0
0,65,64,0
0,53,64,0
0,51,64,0
0,46,64,0
0,39,64,0
0,39,70,0
0,65,80,0
0,39,80,0
0,63,64,0
0,62,64,0
0,60,64,0
0,67,64,0
0,55,64,0
0,67,80,0
0,58,64,0
0,57,64,0
0,55,64,0
0,70,64,0
0,58,64,0
0,41,64,0
0,53,64,0
0,48,64,0
0,41,70,0
0,70,80,0
0,41,80,0
0,53,64,0
0,69,64,0
0,57,64,0
0,69,80,0
0,64,64,0
0,52,64,0
0,48,64,0
0,43,64,0
0,36,64,0
0,36,70,0
0,64,80,0
0,36,80,0
0,55,64,0
0,64,64,264
0,67,64,0
0,67,64,0
0,72,64,0
0,74,64,0
0,65,64,0
0,46,64,0
0,46,70,0
0,74,64,0
0,46,80,0
0,53,64,120
0,58,64,0
0,76,64,0
0,67,64,0
0,76,64,0
0,72,64,0
0,64,64,0
0,79,64,0
0,45,64,0
0,45,70,0
0,45,80,0
0,53,64,120
0,57,64,0
0,71,64,120
0,62,64,0
0,67,64,0
0,55,64,0
0,43,64,0
0,43,70,0
0,43,80,0
0,53,64,240
0,57,64,0
0,59,64,0
0,79,64,120
0,71,64,0
0,74,64,0
0,69,64,0
0,72,64,0
0,69,64,0
0,48,64,0
0,41,64,0
0,41,70,0
0,69,64,0
0,72,64,0
0,41,80,0
0,53,64,240
0,57,64,0
0,65,64,0
0,69,64,0
0,67,64,0
0,43,64,0
0,36,64,0
0,36,70,0
0,67,64,0
0,48,80,0
0,48,64,240
0,55,64,0
0,60,64,0
0,64,64,0
0,60,64,24
0,60,64,0
0,62,64,0
0,53,72,0
0,58,72,0
0,62,72,0
0,53,64,0
0,46,64,0
0,62,64,0
0,62,64,0
0,53,72,0
0,58,72,0
0,62,72,0
0,60,64,0
0,57,72,0
0,60,72,0
0,53,72,0
0,50,64,0
0,38,64,0
0,60,64,0
0,60,64,0
0,57,64,0
0,53,64,0
0,48,64,0
0,41,64,0
0,60,64,0
0,65,64,0
0,67,64,0
0,64,64,0
0,60,64,0
0,55,64,0
0,48,64,0
0,43,64,0
0,36,64,0
0,64,64,0
0,60,64,0
0,63,64,0
0,63,64,0
0,58,64,0
0,55,64,0
0,46,64,0
0,39,64,0
0,63,64,0
0,65,64,0
0,60,64,0
0,62,64,0
0,62,64,0
0,58,64,0
0,53,64,0
0,34,64,0
0,46,64,0
0,58,64,120
0,53,64,0
0,69,64,120
0,41,64,0
0,48,64,120
0,53,64,0
0,60,64,120
0,69,64,0
0,65,64,0
0,67,64,0
0,67,64,0
0,64,64,0
0,36,64,0
0,65,64,0
0,64,64,0
0,65,64,0
0,38,64,0
0,50,80,0
0,57,64,24
0,57,80,0
0,62,64,0
0,62,80,0
0,53,80,24
0,57,64,0
0,57,80,0
0,62,64,0
0,62,80,0
0,58,64,0
0,58,80,0
0,62,64,0
0,62,80,0
0,69,64,24
0,69,64,0
0,65,64,0
0,65,80,0
0,67,64,0
0,67,64,0
0,67,80,0
0,65,64,0
0,65,64,0
0,65,80,0
0,64,64,0
0,64,64,0
0,60,64,0
0,55,64,0
0,48,64,0
0,36,64,0
0,55,80,0
0,60,80,0
0,64,80,0
0,65,64,0
0,65,64,0
0,60,64,0
0,57,64,0
0,48,64,0
0,36,64,0
0,57,80,0
0,60,80,0
0,65,80,0
0,48,64,120
0,48,64,0
0,36,64,0
0,48,64,0
0,48,64,0
0,36,64,0
0,48,64,0
0,45,64,0
0,48,64,0
0,41,64,0
0,38,64,0
0,48,64,0
0,41,64,0
0,38,64,0
0,65,64,0
0,65,64,0
0,63,64,0
0,58,64,0
0,46,64,0
0,39,64,0
0,39,70,0
0,63,48,0
0,39,80,0
0,49,64,0
0,36,64,0
0,62,48,0
0,42,64,0
0,60,48,0
0,42,64,0
0,67,64,0
0,67,64,0
0,58,48,0
0,42,64,0
0,38,64,0
0,57,48,0
0,42,64,0
0,55,48,0
0,42,64,0
0,36,64,0
0,70,64,0
0,70,64,0
0,65,64,0
0,60,64,0
0,48,64,0
0,41,64,0
0,41,70,0
0,53,48,0
0,41,80,0
0,42,64,0
0,36,64,0
0,42,64,0
0,42,64,0
0,69,64,0
0,69,64,0
0,42,64,0
0,42,64,0
0,38,64,0
0,42,64,0
0,36,64,0
0,64,64,0
0,55,64,0
0,64,64,0
0,60,64,0
0,43,64,0
0,36,64,0
0,36,70,0
0,55,48,0
0,36,80,0
0,42,64,0
0,36,64,0
0,42,64,0
0,42,64,0
0,38,64,0
0,42,64,0
0,42,64,0
0,36,64,0
0,36,70,0
0,36,64,0
0,42,64,0
0,36,64,0
0,43,64,0
0,36,70,0
0,42,64,0
0,36,64,0
0,42,64,0
0,42,64,0
0,62,64,120
0,42,64,0
0,62,64,0
0,38,64,0
0,42,64,0
0,60,64,0
0,36,64,0
0,42,64,0
0,62,64,0
0,74,64,0
0,65,64,0
0,58,64,0
0,53,64,0
0,46,64,0
0,46,70,0
0,46,80,0
0,49,64,0
0,36,64,0
0,60,64,0
0,53,64,0
0,42,64,0
0,60,64,0
0,58,64,0
0,42,64,0
0,76,64,0
0,67,64,0
0,42,64,0
0,38,64,0
0,42,64,0
0,72,64,0
0,64,64,0
0,42,64,0
0,36,64,0
0,57,64,0
0,53,64,0
0,45,64,0
0,45,70,0
0,45,80,0
0,42,64,0
0,36,64,0
0,53,64,120
0,42,64,0
0,57,64,0
0,42,64,0
0,64,64,0
0,42,64,0
0,62,64,0
0,71,64,0
0,62,64,0
0,42,64,0
0,38,64,0
0,60,64,0
0,42,64,0
0,36,64,0
0,62,64,0
0,67,64,0
0,59,64,0
0,55,64,0
0,43,64,0
0,43,70,0
0,43,80,0
0,42,64,0
0,36,64,0
0,42,64,0
0,59,64,0
0,42,64,0
0,42,64,0
0,38,64,0
0,42,64,0
0,62,64,0
0,43,64,0
0,43,70,0
0,42,64,0
0,36,64,0
0,43,64,0
0,43,70,0
0,42,64,0
0,36,64,0
0,48,64,0
0,42,64,0
0,48,64,0
0,42,64,0
0,45,64,0
0,42,64,0
0,42,64,0
0,41,64,0
0,38,64,0
0,42,64,0
0,41,64,0
0,36,64,0
0,65,64,0
0,65,64,0
0,63,64,0
0,58,64,0
0,39,64,0
0,39,70,0
0,63,48,0
0,39,80,0
0,49,64,0
0,42,64,0
0,36,64,0
0,62,48,0
0,42,64,0
0,60,48,0
0,42,64,0
0,67,64,0
0,67,64,0
0,58,48,0
0,42,64,0
0,38,64,0
0,57,48,0
0,42,64,0
0,55,48,0
0,42,64,0
0,36,64,0
0,70,64,0
0,70,64,0
0,65,64,0
0,60,64,0
0,41,64,0
0,41,70,0
0,53,48,0
0,41,80,0
0,42,64,0
0,36,64,0
0,42,64,0
0,42,64,0
0,69,64,0
0,69,64,0
0,42,64,0
0,42,64,0
0,38,64,0
0,42,64,0
0,36,64,0
0,64,64,0
0,64,64,0
0,60,64,0
0,55,64,0
0,43,64,0
0,36,64,0
0,36,70,0
0,55,48,0
0,36,80,0
0,42,64,0
0,36,64,0
0,42,64,0
0,42,64,0
0,42,64,0
0,38,64,0
0,42,64,0
0,36,64,0
0,36,70,0
0,42,64,0
0,36,64,0
0,36,64,0
0,43,64,0
0,36,70,0
0,36,64,0
0,42,64,0
0,42,64,0
0,60,64,0
0,42,64,0
0,62,64,0
0,55,48,0
0,42,64,0
0,62,64,0
0,58,48,0
0,38,64,0
0,42,64,0
0,60,64,0
0,60,48,0
0,42,64,0
0,36,64,0
0,62,64,0
0,74,64,0
0,65,64,0
0,58,64,0
0,53,64,0
0,46,64,0
0,46,70,0
0,58,48,0
0,46,80,0
0,49,64,0
0,42,64,0
0,36,64,0
0,53,64,120
0,42,64,0
0,60,64,0
0,58,64,0
0,42,64,0
0,76,64,0
0,67,64,0
0,42,64,0
0,38,64,0
0,42,64,0
0,72,64,0
0,64,64,0
0,48,64,0
0,48,70,0
0,42,64,0
0,36,64,0
0,57,64,0
0,53,64,0
0,45,64,0
0,45,70,0
0,57,48,0
0,45,80,0
0,42,64,0
0,36,64,0
0,53,64,120
0,42,64,0
0,57,64,0
0,42,64,0
0,64,64,0
0,42,64,0
0,62,64,0
0,71,64,0
0,62,64,0
0,42,64,0
0,38,64,0
0,60,64,0
0,42,64,0
0,36,64,0
0,62,64,0
0,67,64,0
0,59,64,0
0,55,64,0
0,43,64,0
0,43,70,0
0,55,48,0
0,43,80,0
0,42,64,0
0,36,64,0
0,42,64,0
0,59,64,0
0,42,64,0
0,42,64,0
0,38,64,0
0,42,64,0
0,62,64,0
0,43,64,0
0,43,70,0
0,42,64,0
0,36,64,0
0,43,64,0
0,43,70,0
0,42,64,0
0,36,64,0
0,59,64,0
0,62,64,0
0,45,64,0
0,42,64,0
0,62,64,0
0,41,64,0
0,60,64,0
0,60,64,0
0,53,64,0
0,48,64,0
0,41,64,0
0,41,70,0
0,42,64,0
0,36,64,0
0,42,64,0
0,57,64,0
0,42,64,0
0,42,64,0
0,53,64,0
0,42,64,0
0,57,64,0
0,42,64,0
0,36,64,0
0,55,64,0
0,52,64,0
0,43,64,0
0,36,64,0
0,36,70,0
0,42,64,0
0,36,64,0
0,42,64,0
0,42,64,0
0,42,64,0
0,42,64,0
0,46,64,0
0,36,64,0
0,62,64,0
0,62,72,0
0,58,72,0
0,53,72,0
0,53,64,0
0,46,64,0
0,34,70,0
0,46,80,0
0,42,64,0
0,36,64,0
0,42,64,0
0,62,64,0
0,42,64,0
0,42,64,0
0,62,64,0
0,62,72,0
0,58,72,0
0,53,72,0
0,37,64,0
0,42,64,0
0,60,64,0
0,36,70,0
0,42,64,0
0,36,64,0
0,60,64,0
0,53,72,0
0,60,72,0
0,57,72,0
0,50,64,0
0,38,64,0
0,38,70,0
0,53,80,0
0,42,64,0
0,36,64,0
0,42,64,0
0,42,64,0
0,42,64,0
0,42,64,0
0,42,64,0
0,60,64,120
0,60,64,0
0,57,64,0
0,53,64,0
0,48,64,0
0,41,64,0
0,41,70,0
0,42,64,0
0,36,64,0
0,42,64,0
0,60,64,0
0,42,64,0
0,42,64,0
0,65,64,0
0,37,64,0
0,42,64,0
0,42,64,0
0,36,64,0
0,67,64,0
0,64,64,0
0,60,64,0
0,55,64,0
0,48,64,0
0,43,64,0
0,36,64,0
0,36,80,0
0,55,80,0
0,42,64,0
0,36,64,0
0,42,64,0
0,64,64,0
0,42,64,0
0,42,64,0
0,60,64,0
0,42,64,0
0,38,80,48
0,42,64,0
0,63,64,0
0,63,64,0
0,58,64,0
0,55,64,0
0,46,64,0
0,39,64,0
0,39,70,0
0,51,80,0
0,42,64,0
0,36,64,0
0,42,64,0
0,63,64,0
0,42,64,0
0,42,64,0
0,65,64,0
0,37,64,0
0,42,64,0
0,60,64,0
0,42,64,0
0,36,64,0
0,62,64,0
0,62,64,0
0,58,64,0
0,53,64,0
0,34,64,0
0,34,70,0
0,46,80,0
0,42,64,0
0,36,64,0
0,42,64,0
0,42,64,0
0,46,64,0
0,42,64,0
0,58,64,120
0,42,64,0
0,53,64,0
0,42,64,0
0,69,64,14
0,41,64,0
0,41,70,0
0,53,80,0
0,42,64,0
0,36,64,0
0,48,64,120
0,42,64,0
0,53,64,0
0,42,64,0
0,60,64,120
0,42,64,0
0,69,64,0
0,65,64,0
0,37,64,0
0,42,64,0
0,41,70,0
0,42,64,0
0,36,64,0
0,67,64,0
0,67,64,0
0,64,64,0
0,36,64,0
0,48,70,0
0,55,80,0
0,42,64,0
0,36,64,0
0,42,64,0
0,65,64,0
0,42,64,0
0,42,64,0
0,64,64,0
0,42,64,0
0,65,64,0
0,42,64,0
0,36,64,0
0,50,64,0
0,38,64,0
0,38,70,0
0,50,80,0
0,49,64,0
0,36,64,0
0,57,64,120
0,42,64,0
0,62,64,0
0,42,64,0
0,42,64,0
0,57,64,0
0,37,64,0
0,42,64,0
0,62,64,0
0,33,70,0
0,42,64,0
0,36,64,0
0,58,64,0
0,38,70,0
0,42,64,0
0,36,64,0
0,62,64,0
0,42,64,0
0,69,64,120
0,69,64,0
0,65,64,0
0,42,64,0
0,42,64,0
0,67,64,0
0,67,64,0
0,42,64,0
0,65,64,0
0,65,64,0
0,42,64,0
0,36,64,0
0,64,64,0
0,64,64,0
0,60,64,0
0,55,64,0
0,48,64,0
0,36,64,0
0,36,70,0
0,42,64,0
0,36,64,0
0,42,64,0
0,65,64,0
0,65,64,0
0,60,64,0
0,57,64,0
0,48,64,0
0,36,64,0
0,36,70,0
0,42,64,0
0,42,64,0
0,65,64,0
0,37,64,0
0,42,64,0
0,42,64,0
0,36,64,0
0,44,64,0
0,36,64,0
0,48,64,120
0,48,64,0
0,48,64,0
0,48,64,0
0,36,64,0
0,48,64,0
0,45,64,0
0,48,64,0
0,41,64,0
0,38,64,0
0,48,64,0
0,41,64,0
0,38,64,0
0,65,64,0
0,65,64,0
0,63,64,0
0,58,64,0
0,46,64,0
0,39,64,0
0,39,70,0
0,70,64,0
0,63,48,0
0,39,80,0
0,49,64,0
0,36,64,0
0,62,48,0
0,42,64,0
0,60,48,0
0,42,64,0
0,67,64,0
0,67,64,0
0,58,48,0
0,42,64,0
0,38,64,0
0,57,48,0
0,42,64,0
0,55,48,0
0,42,64,0
0,36,64,0
0,70,64,0
0,70,64,0
0,65,64,0
0,60,64,0
0,48,64,0
0,41,64,0
0,41,70,0
0,72,64,0
0,53,48,0
0,41,80,0
0,42,64,0
0,36,64,0
0,42,64,0
0,42,64,0
0,69,64,0
0,69,64,0
0,42,64,0
0,42,64,0
0,38,64,0
0,42,64,0
0,36,64,0
0,64,64,0
0,64,64,0
0,60,64,0
0,55,64,0
0,43,64,0
0,36,64,0
0,36,70,0
0,67,64,0
0,55,48,0
0,36,80,0
0,42,64,0
0,36,64,0
0,42,64,0
0,42,64,0
0,42,64,0
0,38,64,0
0,42,64,0
0,36,64,0
0,36,70,0
0,42,64,0
0,36,64,0
0,43,64,0
0,36,64,0
0,36,70,0
0,64,64,0
0,42,64,0
0,36,64,0
0,42,64,0
0,42,64,0
0,62,64,120
0,42,64,0
0,62,64,0
0,42,64,0
0,38,64,0
0,60,64,0
0,42,64,0
0,36,64,0
0,62,64,0
0,74,64,0
0,65,64,0
0,58,64,0
0,53,64,0
0,46,64,0
0,46,70,0
0,46,80,0
0,49,64,0
0,36,64,0
0,60,64,0
0,53,64,0
0,42,64,0
0,60,64,0
0,58,64,0
0,42,64,0
0,76,64,0
0,67,64,0
0,42,64,0
0,38,64,0
0,42,64,0
0,72,64,0
0,64,64,0
0,42,64,0
0,36,64,0
0,57,64,0
0,53,64,0
0,45,64,0
0,45,70,0
0,45,80,0
0,42,64,0
0,36,64,0
0,53,64,120
0,42,64,0
0,57,64,0
0,42,64,0
0,64,64,0
0,42,64,0
0,62,64,0
0,71,64,0
0,62,64,0
0,42,64,0
0,38,64,0
0,60,64,0
0,42,64,0
0,36,64,0
0,62,64,0
0,67,64,0
0,59,64,0
0,55,64,0
0,43,64,0
0,43,70,0
0,43,80,0
0,42,64,0
0,36,64,0
0,42,64,0
0,59,64,0
0,42,64,0
0,42,64,0
0,38,64,0
0,42,64,0
0,62,64,0
0,43,64,0
0,43,70,0
0,42,64,0
0,36,64,0
