track,note,velocity,time
1,33,127,2882
1,33,0,3769
1,33,127,74
1,33,0,3766
1,33,127,71
1,33,0,3767
1,33,127,74
1,33,0,11520
1,32,80,3839
1,32,0,93
1,32,100,145
1,32,0,95
1,32,102,145
1,32,0,96
1,32,109,144
1,32,0,97
1,32,102,143
1,32,0,97
1,32,102,143
1,32,0,95
1,32,109,147
1,32,0,93
1,32,120,147
1,32,0,93
1,32,127,147
1,32,0,93
1,32,127,145
1,32,0,95
1,32,127,145
1,32,0,94
1,32,127,147
1,32,0,94
1,32,127,147
1,32,0,93
1,32,127,148
1,32,0,92
1,32,127,145
1,32,0,95
1,32,127,146
1,32,0,94
1,37,107,1107
1,37,0,213
1,49,100,25
1,49,0,97
1,49,94,24
1,49,0,96
1,37,100,25
1,37,0,213
1,49,86,27
1,49,0,93
1,49,96,28
1,49,0,92
1,37,84,27
1,37,0,213
1,49,81,27
1,49,0,93
1,49,98,25
1,49,0,96
1,37,98,25
1,37,0,214
1,49,107,27
1,49,0,93
1,49,100,25
1,49,0,97
1,37,107,23
1,37,0,217
1,49,100,23
1,49,0,95
1,49,94,28
1,49,0,92
1,37,100,27
1,37,0,213
1,49,86,25
1,49,0,95
1,49,96,24
1,49,0,96
1,37,84,25
1,37,0,215
1,49,81,27
1,49,0,93
1,49,98,25
1,49,0,95
1,37,98,26
1,37,0,214
1,49,107,27
1,49,0,93
1,49,100,27
1,49,0,93
1,37,107,25
1,37,0,216
1,49,100,26
1,49,0,94
1,49,94,26
1,49,0,93
1,37,100,26
1,37,0,215
1,49,86,24
1,49,0,98
1,49,96,22
1,49,0,95
1,37,84,26
1,37,0,214
1,49,81,25
1,49,0,95
1,49,98,26
1,49,0,94
1,37,98,27
1,37,0,215
1,49,107,23
1,49,0,95
1,49,100,25
1,49,0,96
1,37,107,27
1,37,0,215
1,49,100,22
1,49,0,97
1,49,94,25
1,49,0,92
1,37,100,28
1,37,0,213
1,49,86,24
1,49,0,97
1,49,96,26
1,49,0,92
1,37,84,27
1,37,0,214
1,49,81,25
1,49,0,95
1,49,98,25
1,49,0,97
1,37,98,24
1,37,0,214
1,49,107,25
1,49,0,95
1,49,100,29
1,49,0,91
1,37,107,31
1,37,0,209
1,49,100,26
1,49,0,94
1,49,94,27
1,49,0,93
1,37,100,25
1,37,0,214
1,49,86,28
1,49,0,95
1,49,96,23
1,49,0,97
1,37,84,22
1,37,0,218
1,49,81,25
1,49,0,95
1,49,98,23
1,49,0,95
1,37,98,28
1,37,0,213
1,49,107,25
1,49,0,97
1,49,100,25
1,49,0,93
1,37,107,24
1,37,0,215
1,49,100,27
1,49,0,93
1,49,94,25
1,49,0,96
1,37,100,24
1,37,0,215
1,49,86,28
1,49,0,92
1,49,96,25
1,49,0,96
1,37,84,27
1,37,0,212
1,49,81,25
1,49,0,99
1,49,98,21
1,49,0,96
1,37,98,26
1,37,0,214
1,49,107,27
1,49,0,93
1,49,100,24
1,49,0,96
1,37,107,26
1,37,0,213
1,49,100,27
1,49,0,93
1,49,94,25
1,49,0,95
1,37,100,25
1,37,0,217
1,49,86,23
1,49,0,96
1,49,96,26
1,49,0,93
1,37,84,25
1,37,0,216
1,49,81,24
1,49,0,95
1,49,98,28
1,49,0,93
1,37,98,26
1,37,0,213
1,49,107,25
1,49,0,95
1,49,100,27
1,49,0,94
1,37,107,24
1,37,0,217
1,49,100,25
1,49,0,93
1,49,94,25
1,49,0,95
1,37,100,27
1,37,0,216
1,49,86,25
1,49,0,92
1,49,96,25
1,49,0,96
1,37,84,24
1,37,0,218
1,49,81,22
1,49,0,94
1,49,98,27
1,49,0,94
1,37,98,25
1,37,0,217
1,49,107,23
1,49,0,97
1,49,100,23
1,49,0,95
1,35,102,27
1,35,0,94
1,47,96,386
1,47,0,93
1,35,84,387
1,35,0,93
1,35,100,145
1,35,0,97
1,47,86,145
1,47,0,93
1,35,96,385
1,35,0,95
1,47,86,385
1,47,0,95
1,37,107,387
1,37,0,213
1,49,100,25
1,49,0,95
1,49,94,27
1,49,0,93
1,37,100,27
1,37,0,214
1,49,86,26
1,49,0,95
1,49,96,22
1,49,0,99
1,37,84,24
1,37,0,216
1,49,81,24
1,49,0,93
1,49,98,25
1,49,0,95
1,37,98,27
1,37,0,213
1,49,107,27
1,49,0,92
1,49,100,26
1,49,0,95
1,37,107,25
1,37,0,215
1,49,100,25
1,49,0,97
1,49,94,22
1,49,0,96
1,37,100,27
1,37,0,213
1,49,86,28
1,49,0,92
1,49,96,25
1,49,0,95
1,37,84,27
1,37,0,213
1,49,81,27
1,49,0,93
1,49,98,27
1,49,0,94
1,37,98,26
1,37,0,213
1,49,107,24
1,49,0,99
1,49,100,25
1,49,0,92
1,37,107,27
1,37,0,213
1,49,100,27
1,49,0,96
1,49,94,22
1,49,0,95
1,37,100,27
1,37,0,213
1,49,86,27
1,49,0,93
1,49,96,27
1,49,0,93
1,37,84,27
1,37,0,213
1,49,81,25
1,49,0,96
1,49,98,26
1,49,0,93
1,37,98,27
1,37,0,213
1,49,107,25
1,49,0,95
1,49,100,26
1,49,0,94
1,37,107,25
1,37,0,217
1,49,100,25
1,49,0,94
1,49,94,26
1,49,0,93
1,37,100,25
1,37,0,215
1,49,86,27
1,49,0,96
1,49,96,22
1,49,0,97
1,37,84,25
1,37,0,213
1,49,81,28
1,49,0,92
1,49,98,27
1,49,0,93
1,37,98,25
1,37,0,216
1,49,107,24
1,49,0,97
1,49,100,25
1,49,0,93
1,33,127,27
1,33,0,3769
1,33,127,69
1,33,0,11451
1,32,80,3909
1,32,0,95
1,32,100,145
1,32,0,96
1,32,102,144
1,32,0,95
1,32,109,147
1,32,0,94
1,32,102,146
1,32,0,93
1,32,102,146
1,32,0,95
1,32,109,146
1,32,0,93
1,32,120,147
1,32,0,93
1,32,107,145
1,32,0,97
1,32,107,144
1,32,0,96
1,32,111,143
1,32,0,95
1,32,107,147
1,32,0,93
1,37,118,147
1,37,0,94
1,37,107,864
1,37,0,215
1,49,100,28
1,49,0,92
1,49,94,25
1,49,0,95
1,37,100,27
1,37,0,213
1,49,86,28
1,49,0,93
1,49,96,25
1,49,0,94
1,37,84,27
1,37,0,213
1,49,81,28
1,49,0,95
1,49,98,24
1,49,0,93
1,37,98,27
1,37,0,214
1,49,107,27
1,49,0,94
1,49,100,23
1,49,0,94
1,37,107,30
1,37,0,211
1,49,100,27
1,49,0,93
1,49,94,27
1,49,0,93
1,37,100,27
1,37,0,216
1,49,86,22
1,49,0,95
1,49,96,27
1,49,0,93
1,37,84,27
1,37,0,213
1,49,81,25
1,49,0,95
1,49,98,27
1,49,0,93
1,37,98,25
1,37,0,215
1,49,107,27
1,49,0,93
1,49,100,25
1,49,0,97
1,37,107,25
1,37,0,213
1,49,100,27
1,49,0,94
1,49,94,26
1,49,0,93
1,37,100,27
1,37,0,215
1,49,86,25
1,49,0,94
1,49,96,26
1,49,0,93
1,37,84,25
1,37,0,215
1,49,81,27
1,49,0,93
1,49,98,25
1,49,0,95
1,37,98,25
1,37,0,215
1,49,107,27
1,49,0,93
1,49,100,24
1,49,0,96
1,37,107,27
1,37,0,213
1,49,100,27
1,49,0,93
1,49,94,27
1,49,0,95
1,37,100,25
1,37,0,214
1,49,86,24
1,49,0,97
1,49,96,26
1,49,0,92
1,37,84,24
1,37,0,216
1,49,81,27
1,49,0,93
1,49,98,27
1,49,0,94
1,37,98,26
1,37,0,213
1,49,107,27
1,49,0,93
1,49,100,28
1,49,0,94
1,37,107,25
1,37,0,213
1,49,100,24
1,49,0,96
1,49,94,27
1,49,0,95
1,37,100,22
1,37,0,216
1,49,86,25
1,49,0,95
1,49,96,27
1,49,0,93
1,37,84,27
1,37,0,212
1,49,81,27
1,49,0,94
1,49,98,25
1,49,0,95
1,37,98,27
1,37,0,214
1,49,107,26
1,49,0,93
1,49,100,25
1,49,0,98
1,37,107,25
1,37,0,212
1,49,100,25
1,49,0,97
1,49,94,25
1,49,0,93
1,37,100,25
1,37,0,216
1,49,86,24
1,49,0,98
1,49,96,24
1,49,0,92
1,37,84,26
1,37,0,216
1,49,81,24
1,49,0,95
1,49,98,25
1,49,0,95
1,37,98,26
1,37,0,214
1,49,107,25
1,49,0,95
1,49,100,27
1,49,0,96
1,37,107,26
1,37,0,211
1,49,100,26
1,49,0,94
1,49,94,25
1,49,0,98
1,37,100,24
1,37,0,214
1,49,86,26
1,49,0,96
1,49,96,24
1,49,0,94
1,37,84,27
1,37,0,213
1,49,81,26
1,49,0,93
1,49,98,26
1,49,0,95
1,37,98,26
1,37,0,213
1,49,107,27
1,49,0,94
1,49,100,27
1,49,0,92
1,37,107,25
1,37,0,216
1,49,100,24
1,49,0,96
1,49,94,26
1,49,0,93
1,37,100,25
1,37,0,213
1,49,86,27
1,49,0,92
1,49,96,30
1,49,0,94
1,37,84,26
1,37,0,214
1,49,81,24
1,49,0,97
1,49,98,22
1,49,0,96
1,37,98,28
1,37,0,212
1,49,107,27
1,49,0,93
1,49,100,28
1,49,0,92
1,32,90,27
1,32,0,214
1,32,84,144
1,32,0,95
1,30,80,21
1,30,0,98
1,29,92,148
1,29,0,90
1,30,82,150
1,30,0,95
1,29,90,143
1,29,0,89
1,30,80,151
1,30,0,96
1,29,88,144
1,29,0,94
1,30,81,146
1,30,0,92
1,29,90,148
1,29,0,95
1,30,84,148
1,30,0,99
1,31,88,138
1,31,0,94
1,32,80,149
1,32,0,94
1,32,90,866
1,32,0,218
1,32,84,139
1,32,0,97
1,30,80,26
1,30,0,91
1,29,92,149
1,29,0,91
1,30,82,149
1,30,0,97
1,29,90,140
1,29,0,92
1,30,80,150
1,30,0,103
1,29,88,137
1,29,0,92
1,30,81,146
1,30,0,93
1,29,90,142
1,29,0,103
1,30,84,146
1,30,0,91
1,31,88,145
1,31,0,97
1,32,80,145
1,32,0,95
1,32,90,866
1,32,0,218
1,32,84,139
1,32,0,97
1,30,80,26
1,30,0,91
1,29,92,149
1,29,0,91
1,30,82,149
1,30,0,97
1,29,90,140
1,29,0,92
1,30,80,150
1,30,0,103
1,29,88,137
1,29,0,92
1,30,81,146
1,30,0,93
1,29,90,142
1,29,0,103
1,30,84,146
1,30,0,91
1,31,88,145
1,31,0,97
1,32,80,145
1,32,0,95
1,32,90,866
1,32,0,218
1,32,84,139
1,32,0,97
1,30,80,26
1,30,0,91
1,29,92,149
1,29,0,91
1,30,82,149
1,30,0,97
1,29,90,140
1,29,0,92
1,30,80,150
1,30,0,103
1,29,88,137
1,29,0,92
1,30,81,146
1,30,0,93
1,29,90,142
1,29,0,103
1,30,84,146
1,30,0,91
1,31,88,145
1,31,0,97
1,32,80,145
1,32,0,95
1,32,90,867
1,32,0,214
1,32,84,142
1,32,0,92
1,30,80,32
1,30,0,93
1,29,92,139
1,29,0,95
1,30,82,149
1,30,0,94
1,29,90,150
1,29,0,92
1,30,80,144
1,30,0,97
1,29,88,146
1,29,0,90
1,30,81,147
1,30,0,99
1,29,90,143
1,29,0,95
1,30,84,148
1,30,0,92
1,31,88,146
1,31,0,91
1,32,80,150
1,32,0,92
1,32,90,868
1,32,0,211
1,32,84,147
1,32,0,95
1,30,80,23
1,30,0,95
1,29,92,145
1,29,0,97
1,30,82,146
1,30,0,92
1,29,90,149
1,29,0,91
1,30,80,147
1,30,0,95
1,29,88,145
1,29,0,91
1,30,81,149
1,30,0,93
1,29,90,145
1,29,0,95
1,30,84,149
1,30,0,93
1,31,88,143
1,31,0,97
1,32,80,147
1,32,0,91
1,32,90,867
1,32,0,215
1,32,84,147
1,32,0,93
1,30,80,27
1,30,0,94
1,29,92,144
1,29,0,93
1,30,82,148
1,30,0,91
1,29,90,148
1,29,0,96
1,30,80,147
1,30,0,92
1,29,88,145
1,29,0,95
1,37,107,1587
1,37,0,213
1,49,100,23
1,49,0,96
1,49,94,26
1,49,0,95
1,37,100,25
1,37,0,215
1,49,86,25
1,49,0,97
1,49,96,23
1,49,0,94
1,37,84,24
1,37,0,217
1,49,81,23
1,49,0,97
1,49,98,27
1,49,0,91
1,37,98,29
1,37,0,211
1,49,107,25
1,49,0,96
1,49,100,26
1,49,0,95
1,37,80,25
1,37,0,216
1,49,80,24
1,49,0,96
1,49,80,26
1,49,0,92
1,37,80,24
1,37,0,214
1,49,80,30
1,49,0,93
1,49,80,23
1,49,0,97
1,37,80,25
1,37,0,91
1,37,107,1347
1,37,0,215
1,49,100,30
1,49,0,90
1,49,94,27
1,49,0,95
1,37,100,26
1,37,0,213
1,49,86,26
1,49,0,97
1,49,96,22
1,49,0,96
1,37,84,26
1,37,0,218
1,49,81,23
1,49,0,93
1,49,98,23
1,49,0,97
1,37,98,24
1,37,0,214
1,49,107,29
1,49,0,92
1,49,100,26
1,49,0,93
1,37,107,29
1,37,0,213
1,49,100,24
1,49,0,97
1,49,94,24
1,49,0,91
1,37,100,28
1,37,0,217
1,49,86,23
1,49,0,96
1,49,96,25
1,49,0,95
1,37,84,27
1,37,0,213
1,49,81,27
1,49,0,92
1,49,98,26
1,49,0,93
1,37,98,29
1,37,0,211
1,49,107,25
1,49,0,95
1,49,100,24
1,49,0,94
1,33,80,29
1,33,0,206
1,33,102,272
1,33,0,2351
1,28,80,51
1,28,0,202
1,28,80,38
1,28,0,205
1,33,80,35
1,33,0,205
1,28,80,35
1,28,0,203
1,33,80,42
1,33,0,198
1,33,80,277
1,33,0,3309
1,33,80,56
1,33,0,201
1,33,80,276
1,33,0,426
1,33,80,532
1,33,0,430
1,33,80,531
1,33,0,428
1,28,80,531
1,28,0,428
1,33,80,53
1,33,0,203
1,33,80,276
1,33,0,429
1,33,80,532
1,33,0,427
1,33,80,52
1,33,0,205
1,45,80,33
1,45,0,204
1,30,80,40
1,30,0,205
1,42,80,33
1,42,0,202
1,31,80,39
1,31,0,203
1,43,80,36
1,43,0,204
1,32,80,36
1,32,0,206
1,44,80,32
1,44,0,204
1,33,80,36
1,33,0,206
1,45,80,276
1,45,0,909
1,33,80,533
1,33,0,202
1,33,81,278
1,33,0,906
1,33,92,532
1,33,0,202
1,33,80,275
1,33,0,1394
1,33,80,49
1,33,0,204
1,45,80,36
1,45,0,204
1,31,80,36
1,31,0,203
1,43,80,37
1,43,0,204
1,30,80,37
1,30,0,203
1,42,80,35
1,42,0,203
1,29,80,38
1,29,0,206
1,41,80,34
1,41,0,202
1,28,80,36
1,28,0,204
1,28,80,276
1,28,0,688
1,28,80,34
1,28,0,206
1,32,80,33
1,32,0,205
1,35,80,36
1,35,0,206
1,33,80,35
1,33,0,203
1,33,80,274
1,33,0,926
1,33,80,277
1,33,0,203
1,38,80,39
1,38,0,201
1,38,80,277
1,38,0,443
1,38,80,273
1,38,0,208
1,38,80,33
1,38,0,206
1,43,80,35
1,43,0,2123
1,32,80,38
1,32,0,204
1,32,80,36
1,32,0,206
1,32,80,35
1,32,0,204
1,32,80,35
1,32,0,204
1,32,80,36
1,32,0,198
1,32,80,43
1,32,0,204
1,32,80,35
1,32,0,204
1,32,80,36
1,32,0,204
1,32,80,36
1,32,0,204
1,32,80,36
1,32,0,202
1,32,80,38
1,32,0,203
1,32,80,37
1,32,0,206
1,32,80,35
1,32,0,205
1,32,80,35
1,32,0,205
1,32,80,34
1,32,0,207
1,32,80,33
1,32,0,206
1,32,80,36
1,32,0,202
1,32,80,34
1,32,0,202
1,32,80,42
1,32,0,204
1,32,80,35
1,32,0,203
1,32,80,34
1,32,0,206
1,32,80,39
1,32,0,201
1,32,80,38
1,32,0,203
1,32,80,37
1,32,0,202
1,32,80,36
1,32,0,205
1,32,80,37
1,32,0,199
1,32,80,41
1,32,0,202
1,32,80,34
1,32,0,208
1,37,80,32
1,37,0,206
1,37,107,756
1,37,0,212
1,49,100,25
1,49,0,97
1,49,94,26
1,49,0,92
1,37,100,27
1,37,0,218
1,49,86,23
1,49,0,94
1,49,96,26
1,49,0,93
1,37,84,26
1,37,0,215
1,49,81,26
1,49,0,91
1,49,98,30
1,49,0,94
