track,note,velocity,time
3,66,100,30
3,66,0,10
3,68,100,20
3,68,0,30
3,64,100,0
3,64,0,10
3,69,100,0
3,69,0,10
3,68,100,0
3,68,0,10
3,66,100,0
3,66,0,10
3,68,100,20
3,68,0,30
3,64,100,0
3,64,0,120
3,69,100,0
3,69,0,240
3,68,100,0
3,68,0,240
3,66,100,0
3,66,0,180
3,68,100,30
3,68,0,90
3,64,100,0
3,64,0,180
3,69,100,0
3,69,0,240
3,68,100,0
3,68,0,240
3,66,100,0
3,66,0,180
3,68,100,30
3,68,0,90
3,64,100,0
3,64,0,180
3,69,100,0
3,69,0,240
3,68,100,0
3,68,0,240
4,30,100,1920
4,30,0,30
4,37,100,0
4,37,0,180
4,32,100,30
4,32,0,30
4,39,100,0
4,39,0,90
4,28,100,0
4,28,0,30
4,35,100,0
4,35,0,90
4,33,100,0
4,33,0,30
4,40,100,0
4,40,0,180
4,32,100,30
4,32,0,30
4,39,100,0
4,39,0,180
4,30,100,30
4,30,0,30
4,37,100,0
4,37,0,180
4,32,100,30
4,32,0,30
4,39,100,0
4,39,0,90
4,28,100,0
4,28,0,30
4,35,100,0
4,35,0,90
4,33,100,0
4,33,0,30
4,40,100,0
4,40,0,180
4,32,100,30
4,32,0,30
4,39,100,0
4,39,0,180
5,54,100,3900
5,54,0,60
5,63,100,0
5,63,0,60
5,61,100,0
5,61,0,60
5,63,100,0
5,63,0,60
5,61,100,0
5,61,0,30
5,63,100,0
5,63,0,120
5,63,100,90
5,63,0,60
5,64,100,0
5,64,0,60
5,63,100,0
5,63,0,60
5,59,100,0
5,59,0,30
5,57,100,0
5,57,0,30
5,59,100,0
5,59,0,60
5,54,100,60
5,54,0,60
5,64,100,0
5,64,0,60
5,63,100,0
5,63,0,60
5,64,100,0
5,64,0,60
5,63,100,0
5,63,0,60
5,64,100,0
5,64,0,60
5,63,100,0
5,63,0,30
5,64,100,0
5,64,0,120
5,63,100,0
5,63,0,30
5,63,100,0
5,63,0,90
5,59,100,0
5,59,0,30
5,59,100,0
5,59,0,60
5,57,100,0
5,57,0,30
5,59,100,0
5,59,0,120
5,54,100,90
5,54,0,60
5,63,100,0
5,63,0,60
5,61,100,0
5,61,0,60
5,63,100,0
5,63,0,60
5,61,100,0
5,61,0,60
5,63,100,0
5,63,0,30
5,61,100,0
5,61,0,60
5,63,100,0
5,63,0,90
5,61,100,0
5,61,0,60
5,64,100,0
5,64,0,60
5,63,100,0
5,63,0,30
5,59,100,0
5,59,0,120
5,59,100,0
5,59,0,30
5,59,100,0
5,59,0,60
5,57,100,0
5,57,0,60
5,64,100,120
5,64,0,30
5,63,100,0
5,63,0,90
5,64,100,0
5,64,0,30
5,63,100,0
5,63,0,90
5,64,100,0
5,64,0,60
5,63,100,0
5,63,0,30
5,64,100,0
5,64,0,120
5,63,100,90
5,63,0,60
5,64,100,0
5,64,0,30
5,63,100,0
5,63,0,90
5,59,100,0
5,59,0,120
5,61,100,180
5,61,0,60
5,61,100,0
5,61,0,120
5,59,100,0
5,59,0,60
5,59,100,0
5,59,0,120
5,59,100,510
5,59,0,30
5,57,100,0
5,57,0,240
5,61,100,120
5,61,0,120
5,59,100,0
5,59,0,360
5,61,100,300
5,61,0,60
5,63,100,0
5,63,0,180
5,61,100,0
5,61,0,120
5,59,100,0
5,59,0,60
5,59,100,0
5,59,0,240
5,54,100,330
5,54,0,30
5,63,100,0
5,63,0,120
5,61,100,0
5,61,0,120
5,59,100,0
5,59,0,120
5,54,100,90
5,54,0,30
5,64,100,0
5,64,0,60
5,63,100,0
5,63,0,30
5,59,100,0
5,59,0,60
5,59,100,0
5,59,0,30
5,57,100,0
5,57,0,60
5,59,100,0
5,59,0,120
5,54,100,90
5,54,0,30
5,64,100,0
5,64,0,60
5,63,100,0
5,63,0,30
5,59,100,0
5,59,0,60
5,59,100,0
5,59,0,30
5,57,100,0
5,57,0,60
5,59,100,0
5,59,0,240
5,59,100,360
5,59,0,30
5,61,100,0
5,61,0,60
5,63,100,0
5,63,0,149
5,66,100,1
5,66,0,120
5,59,100,0
5,59,0,120
5,54,100,90
5,54,0,30
5,64,100,0
5,64,0,60
5,63,100,0
5,63,0,30
5,59,100,0
5,59,0,60
5,59,100,0
5,59,0,30
5,57,100,0
5,57,0,60
5,59,100,0
5,59,0,120
5,54,100,90
5,54,0,30
5,64,100,0
5,64,0,60
5,63,100,0
5,63,0,30
5,59,100,0
5,59,0,60
5,59,100,0
5,59,0,30
5,57,100,0
5,57,0,60
5,59,100,0
5,59,0,240
5,54,100,2130
5,54,0,30
5,63,100,0
5,63,0,60
5,61,100,0
5,61,0,60
5,63,100,0
5,63,0,60
5,61,100,0
5,61,0,30
5,63,100,0
5,63,0,120
5,64,100,150
5,64,0,30
5,63,100,0
5,63,0,90
5,59,100,0
5,59,0,60
5,57,100,0
5,57,0,30
5,59,100,0
5,59,0,120
5,57,100,120
5,57,0,30
5,64,100,0
5,64,0,60
5,63,100,0
5,63,0,60
5,64,100,0
5,64,0,60
5,63,100,0
5,63,0,60
5,64,100,0
5,64,0,30
5,63,100,0
5,63,0,90
5,64,100,0
5,64,0,120
5,63,100,0
5,63,0,60
5,59,100,0
5,59,0,60
5,57,100,60
5,57,0,30
5,59,100,0
5,59,0,30
5,59,100,0
5,59,0,120
5,54,100,90
5,54,0,30
5,63,100,0
5,63,0,60
5,61,100,0
5,61,0,60
5,63,100,0
5,63,0,60
5,61,100,0
5,61,0,60
5,63,100,0
5,63,0,60
5,61,100,0
5,61,0,60
5,54,100,90
5,54,0,30
5,64,100,0
5,64,0,30
5,63,100,0
5,63,0,90
5,59,100,0
5,59,0,60
5,57,100,0
5,57,0,30
5,59,100,0
5,59,0,149
5,54,100,91
5,54,0,30
5,64,100,0
5,64,0,60
5,63,100,0
5,63,0,60
5,64,100,0
5,64,0,60
5,63,100,0
5,63,0,60
5,64,100,0
5,64,0,60
5,63,100,0
5,63,0,60
5,64,100,180
5,64,0,60
5,64,100,0
5,64,0,60
5,63,100,0
5,63,0,60
5,59,100,0
5,59,0,120
5,61,100,180
5,61,0,120
5,61,100,0
5,61,0,120
5,59,100,0
5,59,0,180
5,54,100,690
5,54,0,30
5,63,100,0
5,63,0,120
5,61,100,0
5,61,0,120
5,59,100,0
5,59,0,120
5,54,100,90
5,54,0,30
5,64,100,0
5,64,0,60
5,63,100,0
5,63,0,30
5,59,100,0
5,59,0,60
5,59,100,0
5,59,0,30
5,57,100,0
5,57,0,60
5,59,100,0
5,59,0,120
5,54,100,90
5,54,0,30
5,64,100,0
5,64,0,60
5,63,100,0
5,63,0,30
5,59,100,0
5,59,0,60
5,59,100,0
5,59,0,30
5,57,100,0
5,57,0,60
5,59,100,0
5,59,0,240
5,59,100,360
5,59,0,30
5,61,100,0
5,61,0,60
5,63,100,0
5,63,0,149
5,66,100,1
5,66,0,120
5,59,100,0
5,59,0,120
5,54,100,90
5,54,0,30
5,64,100,0
5,64,0,60
5,63,100,0
5,63,0,30
5,59,100,0
5,59,0,60
5,59,100,0
5,59,0,30
5,57,100,0
5,57,0,60
5,59,100,0
5,59,0,120
5,54,100,90
5,54,0,30
5,64,100,0
5,64,0,60
5,63,100,0
5,63,0,30
5,59,100,0
5,59,0,60
5,59,100,0
5,59,0,30
5,57,100,0
5,57,0,60
5,59,100,0
5,59,0,240
5,54,100,2100
5,54,0,60
5,63,100,0
5,63,0,60
5,59,100,0
5,59,0,30
5,59,100,0
5,59,0,60
5,59,100,0
5,59,0,60
5,63,100,0
5,63,0,60
5,59,100,0
5,59,0,60
5,59,100,0
5,59,0,60
5,59,100,0
5,59,0,60
5,64,100,30
5,64,0,60
5,59,100,0
5,59,0,30
5,59,100,0
5,59,0,60
5,57,100,0
5,57,0,60
5,59,100,0
5,59,0,120
5,59,100,90
5,59,0,60
5,64,100,0
5,64,0,60
5,59,100,0
5,59,0,30
5,59,100,0
5,59,0,60
5,59,100,0
5,59,0,60
5,64,100,0
5,64,0,60
5,59,100,0
5,59,0,60
5,59,100,0
5,59,0,60
5,59,100,0
5,59,0,60
5,63,100,30
5,63,0,60
5,59,100,0
5,59,0,30
5,59,100,0
5,59,0,60
5,57,100,0
5,57,0,60
5,59,100,0
5,59,0,120
5,54,100,120
5,54,0,30
5,63,100,0
5,63,0,60
5,59,100,0
5,59,0,30
5,59,100,0
5,59,0,60
5,59,100,0
5,59,0,60
5,63,100,0
5,63,0,60
5,59,100,0
5,59,0,60
5,59,100,0
5,59,0,60
5,59,100,0
5,59,0,60
5,64,100,30
5,64,0,60
5,59,100,0
5,59,0,30
5,59,100,0
5,59,0,60
5,57,100,0
5,57,0,60
5,59,100,0
5,59,0,120
5,59,100,90
5,59,0,60
5,63,100,0
5,63,0,60
5,63,100,0
5,63,0,30
5,64,100,0
5,64,0,60
5,64,100,0
5,64,0,60
5,66,100,0
5,66,0,60
5,66,100,0
5,66,0,60
5,68,100,0
5,68,0,60
5,69,100,0
5,69,0,60
5,74,100,32
5,71,100,58
5,74,0,2
5,71,0,28
5,71,100,0
5,71,0,60
5,69,100,0
5,69,0,60
5,71,100,0
5,71,0,120
5,66,100,630
5,66,0,240
5,66,100,0
5,66,0,60
5,64,100,0
5,64,0,30
5,63,100,0
5,63,0,30
5,64,100,0
5,64,0,30
5,63,100,0
5,63,0,60
5,59,100,0
5,59,0,240
5,59,100,180
5,59,0,30
5,63,100,0
5,63,0,30
5,64,100,0
5,64,0,90
5,66,100,0
5,66,0,90
5,69,100,0
5,69,0,30
5,66,100,0
5,66,0,30
5,64,100,0
5,64,0,30
5,66,100,0
5,66,0,240
5,54,100,210
5,54,0,30
5,63,100,0
5,63,0,120
5,61,100,0
5,61,0,120
5,59,100,0
5,59,0,120
5,54,100,90
5,54,0,30
5,64,100,0
5,64,0,60
5,63,100,0
5,63,0,30
5,59,100,0
5,59,0,60
5,57,100,0
5,57,0,90
5,59,100,0
5,59,0,120
5,54,100,90
5,54,0,30
5,64,100,0
5,64,0,60
5,63,100,0
5,63,0,30
5,59,100,0
5,59,0,60
5,57,100,0
5,57,0,90
5,59,100,0
5,59,0,240
5,66,100,0
5,66,0,60
5,64,100,0
5,64,0,30
5,63,100,0
5,63,0,30
5,64,100,0
5,64,0,30
5,63,100,0
5,63,0,90
5,59,100,120
5,59,0,30
5,61,100,0
5,61,0,60
5,63,100,0
5,63,0,120
5,66,100,30
5,66,0,120
5,59,100,0
5,59,0,120
5,54,100,90
5,54,0,30
5,64,100,0
5,64,0,60
5,63,100,0
5,63,0,30
5,59,100,0
5,59,0,60
5,59,100,0
5,59,0,30
5,57,100,0
5,57,0,60
5,59,100,0
5,59,0,120
5,54,100,90
5,54,0,30
5,64,100,0
5,64,0,60
5,63,100,0
5,63,0,30
5,59,100,0
5,59,0,60
5,59,100,0
5,59,0,30
5,57,100,0
5,57,0,60
5,59,100,0
5,59,0,240
5,59,100,1680
5,59,0,360
5,63,100,0
5,63,0,120
5,59,100,0
5,59,0,360
5,63,100,0
5,63,0,120
5,64,100,0
5,64,0,360
5,63,100,0
5,63,0,120
5,59,100,0
5,59,0,360
5,57,100,120
5,57,0,30
5,57,100,0
5,57,0,90
5,61,100,0
5,61,0,60
5,61,100,0
5,61,0,30
5,61,100,0
5,61,0,90
5,59,100,0
5,59,0,120
6,63,100,3840
6,59,100,0
6,59,0,60
6,63,0,0
6,56,100,420
6,59,100,0
6,59,0,240
6,56,0,0
6,57,100,240
6,59,100,0
6,59,0,480
6,57,0,0
6,56,100,0
6,56,0,480
6,54,100,0
6,59,100,0
6,59,0,480
6,54,0,0
6,56,100,0
6,59,100,0
6,59,0,60
6,56,0,420
6,59,100,0
6,57,100,0
6,57,0,480
6,59,0,0
6,59,100,0
6,56,100,0
6,59,0,60
6,56,0,420
6,63,100,0
6,54,100,0
6,63,0,120
6,54,0,360
6,59,100,0
6,68,100,0
6,68,0,180
6,59,0,0
6,64,100,0
6,64,0,240
6,57,100,60
6,52,100,0
6,57,0,120
6,59,100,0
6,59,0,240
6,61,100,0
6,61,0,120
6,52,0,0
6,52,100,0
6,56,100,0
6,59,100,0
6,59,0,480
6,56,0,0
6,52,0,0
6,54,100,0
6,59,100,0
6,59,0,480
6,54,0,0
6,59,100,5760
6,64,100,0
6,68,100,0
6,68,0,480
6,64,0,0
6,59,0,0
6,54,100,0
6,59,100,0
6,59,0,480
6,54,0,0
6,56,100,0
6,56,0,480
6,57,100,0
6,59,100,0
6,59,0,480
6,57,0,0
6,56,100,0
6,56,0,480
6,54,100,0
6,59,100,0
6,59,0,480
6,54,0,0
6,56,100,0
6,56,0,480
6,57,100,0
6,59,100,0
6,59,0,480
6,57,0,0
6,56,100,0
6,56,0,959
6,59,100,1
6,64,100,0
6,68,100,0
6,68,0,480
6,64,0,0
6,59,0,0
6,54,100,0
6,63,100,0
6,59,100,0
6,59,0,480
6,63,0,0
6,54,0,0
6,56,100,0
6,52,100,0
6,59,100,0
6,59,0,480
6,52,0,0
6,56,0,0
6,52,100,0
6,57,100,0
6,59,100,0
6,59,0,480
6,57,0,0
6,52,0,0
6,52,100,0
6,56,100,0
6,59,100,0
6,59,0,480
6,56,0,0
6,52,0,0
6,54,100,0
6,59,100,0
6,63,100,0
6,63,0,480
6,59,0,0
6,54,0,0
6,52,100,0
6,56,100,0
6,59,100,0
6,59,0,480
6,56,0,0
6,52,0,0
6,59,100,0
6,57,100,0
6,52,100,0
6,52,0,480
6,57,0,0
6,59,0,0
6,52,100,0
6,56,100,0
6,59,100,0
6,59,0,480
6,56,0,0
6,52,0,0
6,66,100,0
6,59,100,0
6,63,100,0
6,66,0,120
6,63,0,360
6,59,0,0
6,59,100,0
6,59,0,480
6,112,100,0
6,69,100,0
6,61,100,0
6,64,100,0
6,64,0,60
6,61,0,0
6,69,0,0
6,112,0,60
6,69,100,120
6,71,100,0
6,71,0,240
6,69,0,0
6,59,100,0
6,64,100,0
6,68,100,0
6,68,0,480
6,64,0,0
6,59,0,0
6,59,100,0
6,54,100,0
6,59,0,60
6,63,100,0
6,63,0,30
6,64,100,0
6,64,0,120
6,59,100,30
6,59,0,60
6,63,100,0
6,63,0,30
6,64,100,0
6,64,0,120
6,54,0,30
6,59,100,0
6,56,100,0
6,59,0,60
6,63,100,0
6,63,0,30
6,64,100,0
6,64,0,120
6,59,100,30
6,59,0,60
6,63,100,0
6,63,0,30
6,64,100,0
6,64,0,120
6,56,0,30
6,57,100,0
6,59,100,0
6,59,0,60
6,63,100,0
6,63,0,30
6,64,100,0
6,64,0,120
6,59,100,30
6,59,0,60
6,63,100,0
6,63,0,30
6,64,100,0
6,64,0,120
6,57,0,30
6,59,100,0
6,56,100,0
6,59,0,60
6,63,100,0
6,63,0,30
6,64,100,0
6,64,0,120
6,59,100,30
6,59,0,60
6,63,100,0
6,63,0,30
6,64,100,0
6,64,0,120
6,56,0,30
6,56,100,2400
6,56,0,480
6,57,100,2
6,59,100,478
6,57,0,2
6,59,0,478
6,54,100,0
6,54,0,480
6,56,100,0
6,56,0,480
6,57,100,2
6,59,100,478
6,57,0,2
6,59,0,478
6,54,100,0
6,59,100,0
6,63,100,0
6,63,0,480
6,59,0,0
6,54,0,0
6,59,100,960
6,54,100,0
6,54,0,480
6,59,0,0
6,54,100,0
6,59,100,0
6,59,0,480
6,54,0,0
6,54,100,0
6,59,100,0
6,59,0,480
6,54,0,0
6,54,100,0
6,59,100,0
6,59,0,480
6,54,0,0
6,54,100,0
6,59,100,0
6,59,0,480
6,54,0,0
6,54,100,0
6,59,100,0
6,59,0,480
6,54,0,0
6,54,100,0
6,59,100,0
6,59,0,480
6,54,0,0
7,35,100,3840
7,35,0,480
7,37,100,0
7,37,0,480
7,33,100,0
7,33,0,480
7,28,100,0
7,28,0,360
7,30,100,0
7,30,0,120
7,35,100,0
7,35,0,480
7,37,100,0
7,37,0,360
7,30,100,0
7,30,0,120
7,33,100,0
7,33,0,480
7,28,100,0
7,28,0,360
