track,note,velocity,time
0.0,38.0,81.0,0.0
0.0,50.0,81.0,0.0
0.0,77.0,80.0,0.0
0.0,81.0,80.0,0.0
0.0,86.0,80.0,0.0
0.0,62.0,81.0,0.0
0.0,65.0,81.0,0.0
0.0,69.0,80.0,0.0
0.0,77.0,93.0,192.0
0.0,77.0,97.0,16.0
0.0,77.0,92.0,22.0
0.0,76.0,96.0,1.0
0.0,76.0,81.0,0.0
0.0,79.0,81.0,0.0
0.0,84.0,81.0,0.0
0.0,60.0,80.0,0.0
0.0,64.0,80.0,0.0
0.0,67.0,81.0,0.0
0.0,79.0,84.0,1.0
0.0,79.0,81.0,0.0
0.0,84.0,80.0,0.0
0.0,88.0,81.0,0.0
0.0,70.0,81.0,0.0
0.0,77.0,81.0,18.0
0.0,77.0,81.0,1.0
0.0,81.0,81.0,0.0
0.0,86.0,80.0,0.0
0.0,62.0,81.0,0.0
0.0,65.0,81.0,0.0
0.0,69.0,80.0,0.0
0.0,77.0,93.0,70.0
0.0,77.0,89.0,55.0
0.0,77.0,105.0,57.0
0.0,77.0,92.0,53.0
0.0,76.0,101.0,1.0
0.0,76.0,81.0,0.0
0.0,79.0,81.0,0.0
0.0,84.0,80.0,0.0
0.0,60.0,81.0,0.0
0.0,64.0,81.0,0.0
0.0,67.0,81.0,0.0
0.0,79.0,89.0,1.0
0.0,79.0,81.0,0.0
0.0,84.0,81.0,0.0
0.0,88.0,80.0,0.0
0.0,70.0,80.0,0.0
0.0,77.0,93.0,1.0
0.0,77.0,80.0,1.0
0.0,81.0,81.0,0.0
0.0,86.0,81.0,0.0
0.0,62.0,81.0,0.0
0.0,65.0,81.0,0.0
0.0,69.0,80.0,0.0
0.0,81.0,92.0,93.0
0.0,81.0,93.0,46.0
0.0,81.0,97.0,43.0
0.0,79.0,92.0,1.0
0.0,40.0,80.0,0.0
0.0,52.0,81.0,0.0
0.0,79.0,80.0,0.0
0.0,84.0,81.0,0.0
0.0,88.0,80.0,0.0
0.0,60.0,81.0,0.0
0.0,64.0,81.0,0.0
0.0,67.0,80.0,0.0
0.0,82.0,93.0,1.0
0.0,46.0,81.0,0.0
0.0,58.0,80.0,0.0
0.0,84.0,80.0,0.0
0.0,88.0,80.0,0.0
0.0,91.0,80.0,0.0
0.0,72.0,80.0,0.0
0.0,81.0,93.0,1.0
0.0,45.0,81.0,0.0
0.0,57.0,80.0,0.0
0.0,81.0,80.0,0.0
0.0,89.0,81.0,0.0
0.0,65.0,81.0,0.0
0.0,69.0,81.0,0.0
0.0,77.0,80.0,109.0
0.0,46.0,81.0,0.0
0.0,58.0,80.0,0.0
0.0,82.0,80.0,0.0
0.0,86.0,80.0,0.0
0.0,70.0,80.0,0.0
0.0,74.0,81.0,0.0
0.0,77.0,80.0,0.0
0.0,77.0,92.0,35.0
0.0,81.0,105.0,1.0
0.0,48.0,81.0,0.0
0.0,60.0,81.0,0.0
0.0,81.0,80.0,0.0
0.0,84.0,80.0,0.0
0.0,72.0,81.0,0.0
0.0,77.0,80.0,0.0
0.0,81.0,81.0,0.0
0.0,79.0,85.0,0.0
0.0,36.0,81.0,0.0
0.0,48.0,80.0,0.0
0.0,79.0,80.0,0.0
0.0,88.0,80.0,0.0
0.0,76.0,80.0,0.0
0.0,79.0,80.0,0.0
0.0,77.0,76.0,202.0
0.0,74.0,41.0,9.0
0.0,70.0,1.0,1.0
0.0,80.0,1.0,0.0
0.0,50.0,80.0,0.0
0.0,62.0,80.0,0.0
0.0,77.0,80.0,0.0
0.0,81.0,80.0,0.0
0.0,86.0,80.0,0.0
0.0,65.0,70.0,0.0
0.0,69.0,80.0,0.0
0.0,74.0,81.0,0.0
0.0,77.0,60.0,0.0
0.0,70.0,1.0,47.0
0.0,70.0,1.0,47.0
0.0,70.0,1.0,47.0
0.0,81.0,1.0,0.0
0.0,70.0,8.0,47.0
0.0,67.0,1.0,47.0
0.0,70.0,1.0,0.0
0.0,70.0,1.0,47.0
0.0,80.0,1.0,0.0
0.0,70.0,1.0,47.0
0.0,70.0,15.0,47.0
0.0,70.0,1.0,47.0
0.0,81.0,1.0,0.0
0.0,70.0,1.0,47.0
0.0,67.0,1.0,47.0
0.0,70.0,1.0,0.0
0.0,70.0,25.0,47.0
0.0,80.0,1.0,0.0
0.0,70.0,1.0,47.0
0.0,70.0,1.0,2.0
0.0,67.0,1.0,47.0
0.0,70.0,1.0,0.0
0.0,70.0,33.0,47.0
0.0,80.0,1.0,0.0
0.0,70.0,4.0,47.0
0.0,70.0,6.0,47.0
0.0,70.0,8.0,47.0
0.0,81.0,1.0,0.0
0.0,70.0,40.0,47.0
0.0,67.0,2.0,47.0
0.0,70.0,12.0,0.0
0.0,70.0,14.0,47.0
0.0,80.0,3.0,0.0
0.0,70.0,15.0,47.0
0.0,70.0,48.0,47.0
0.0,70.0,20.0,47.0
0.0,81.0,9.0,0.0
0.0,70.0,23.0,47.0
0.0,67.0,13.0,47.0
0.0,70.0,23.0,0.0
0.0,70.0,55.0,47.0
0.0,80.0,15.0,0.0
0.0,70.0,27.0,47.0
0.0,70.0,28.0,47.0
0.0,67.0,21.0,47.0
0.0,70.0,31.0,0.0
0.0,70.0,65.0,47.0
0.0,80.0,23.0,0.0
0.0,70.0,35.0,47.0
0.0,70.0,36.0,47.0
0.0,70.0,39.0,47.0
0.0,81.0,29.0,0.0
0.0,70.0,71.0,47.0
0.0,67.0,33.0,47.0
0.0,70.0,42.0,0.0
0.0,70.0,45.0,47.0
0.0,80.0,35.0,0.0
0.0,70.0,47.0,47.0
0.0,70.0,78.0,47.0
0.0,70.0,50.0,47.0
0.0,81.0,41.0,0.0
0.0,70.0,53.0,47.0
0.0,67.0,44.0,47.0
0.0,70.0,55.0,0.0
0.0,70.0,86.0,47.0
0.0,80.0,46.0,0.0
0.0,70.0,59.0,47.0
0.0,70.0,60.0,47.0
0.0,67.0,52.0,47.0
0.0,70.0,63.0,0.0
0.0,70.0,94.0,47.0
0.0,80.0,54.0,0.0
0.0,70.0,59.0,47.0
0.0,70.0,58.0,47.0
0.0,70.0,66.0,47.0
0.0,81.0,60.0,0.0
0.0,70.0,94.0,47.0
0.0,67.0,64.0,47.0
0.0,70.0,46.0,0.0
0.0,70.0,57.0,47.0
0.0,80.0,66.0,0.0
0.0,70.0,54.0,47.0
0.0,70.0,96.0,47.0
0.0,70.0,63.0,47.0
0.0,81.0,72.0,0.0
0.0,40.0,125.0,47.0
0.0,70.0,61.0,0.0
0.0,67.0,77.0,47.0
0.0,70.0,56.0,0.0
0.0,40.0,125.0,47.0
0.0,70.0,96.0,0.0
0.0,80.0,79.0,0.0
0.0,40.0,40.0,47.0
0.0,70.0,60.0,0.0
0.0,40.0,100.0,47.0
0.0,70.0,61.0,0.0
0.0,40.0,124.0,47.0
0.0,70.0,57.0,0.0
0.0,60.0,113.0,44.0
0.0,65.0,105.0,0.0
0.0,69.0,96.0,0.0
0.0,29.0,125.0,1.0
0.0,48.0,63.0,0.0
0.0,57.0,63.0,0.0
0.0,60.0,62.0,0.0
0.0,35.0,125.0,0.0
0.0,57.0,75.0,0.0
0.0,48.0,62.0,34.0
0.0,57.0,62.0,0.0
0.0,60.0,63.0,0.0
0.0,60.0,113.0,47.0
0.0,65.0,125.0,0.0
0.0,69.0,125.0,0.0
0.0,42.0,105.0,0.0
0.0,60.0,96.0,0.0
0.0,65.0,125.0,0.0
0.0,69.0,105.0,0.0
0.0,42.0,105.0,0.0
0.0,60.0,109.0,0.0
0.0,65.0,124.0,0.0
0.0,69.0,125.0,0.0
0.0,81.0,84.0,0.0
0.0,40.0,125.0,0.0
0.0,42.0,52.0,0.0
0.0,60.0,109.0,0.0
0.0,65.0,124.0,0.0
0.0,69.0,125.0,0.0
0.0,42.0,92.0,0.0
0.0,29.0,125.0,21.0
0.0,48.0,63.0,0.0
0.0,57.0,62.0,0.0
0.0,60.0,62.0,0.0
0.0,81.0,89.0,0.0
0.0,35.0,125.0,0.0
0.0,42.0,104.0,0.0
0.0,48.0,63.0,11.0
0.0,57.0,63.0,0.0
0.0,60.0,62.0,0.0
0.0,42.0,65.0,0.0
0.0,60.0,125.0,47.0
0.0,65.0,124.0,0.0
0.0,69.0,125.0,0.0
0.0,77.0,88.0,0.0
0.0,35.0,124.0,0.0
0.0,42.0,85.0,0.0
0.0,48.0,62.0,16.0
0.0,57.0,63.0,0.0
0.0,60.0,62.0,0.0
0.0,42.0,89.0,0.0
0.0,48.0,52.0,45.0
0.0,57.0,52.0,0.0
0.0,60.0,52.0,0.0
0.0,77.0,85.0,0.0
0.0,42.0,93.0,0.0
0.0,29.0,124.0,47.0
0.0,60.0,121.0,0.0
0.0,65.0,124.0,0.0
0.0,69.0,124.0,0.0
0.0,42.0,56.0,0.0
0.0,48.0,63.0,24.0
0.0,57.0,63.0,0.0
0.0,60.0,62.0,0.0
0.0,40.0,125.0,0.0
0.0,42.0,105.0,0.0
0.0,29.0,124.0,47.0
0.0,48.0,62.0,0.0
0.0,57.0,62.0,0.0
0.0,60.0,63.0,0.0
0.0,42.0,105.0,0.0
0.0,60.0,121.0,47.0
0.0,65.0,124.0,0.0
0.0,69.0,124.0,0.0
0.0,76.0,76.0,0.0
0.0,42.0,93.0,0.0
0.0,24.0,120.0,23.0
0.0,48.0,63.0,0.0
0.0,57.0,62.0,0.0
0.0,60.0,62.0,0.0
0.0,42.0,76.0,0.0
0.0,64.0,112.0,44.0
0.0,67.0,100.0,0.0
0.0,48.0,62.0,3.0
0.0,55.0,62.0,0.0
0.0,60.0,62.0,0.0
0.0,35.0,124.0,0.0
0.0,42.0,101.0,0.0
0.0,48.0,62.0,20.0
0.0,55.0,62.0,0.0
0.0,60.0,62.0,0.0
0.0,42.0,105.0,0.0
0.0,36.0,117.0,47.0
0.0,60.0,113.0,0.0
0.0,64.0,125.0,0.0
0.0,67.0,125.0,0.0
0.0,42.0,36.0,0.0
0.0,60.0,88.0,0.0
0.0,64.0,124.0,0.0
0.0,67.0,120.0,0.0
0.0,42.0,33.0,0.0
0.0,60.0,89.0,0.0
0.0,64.0,124.0,0.0
0.0,67.0,120.0,0.0
0.0,79.0,104.0,0.0
0.0,40.0,125.0,0.0
0.0,42.0,97.0,0.0
0.0,60.0,53.0,0.0
0.0,64.0,121.0,0.0
0.0,67.0,124.0,0.0
0.0,42.0,88.0,0.0
0.0,48.0,62.0,18.0
0.0,55.0,62.0,0.0
0.0,60.0,63.0,0.0
0.0,79.0,104.0,0.0
0.0,46.0,107.0,0.0
0.0,48.0,62.0,17.0
0.0,55.0,63.0,0.0
0.0,60.0,62.0,0.0
0.0,40.0,97.0,0.0
0.0,60.0,120.0,47.0
0.0,64.0,124.0,0.0
0.0,67.0,124.0,0.0
0.0,79.0,96.0,0.0
0.0,35.0,124.0,0.0
0.0,42.0,36.0,0.0
0.0,48.0,62.0,17.0
0.0,55.0,62.0,0.0
0.0,60.0,62.0,0.0
0.0,42.0,105.0,0.0
0.0,48.0,48.0,47.0
0.0,55.0,47.0,0.0
0.0,60.0,48.0,0.0
0.0,79.0,89.0,0.0
0.0,42.0,75.0,0.0
0.0,31.0,109.0,47.0
0.0,60.0,120.0,0.0
0.0,64.0,124.0,0.0
0.0,67.0,125.0,0.0
0.0,42.0,76.0,0.0
0.0,36.0,121.0,19.0
0.0,48.0,63.0,0.0
0.0,55.0,62.0,0.0
0.0,60.0,62.0,0.0
0.0,40.0,124.0,0.0
0.0,42.0,105.0,0.0
0.0,48.0,63.0,47.0
0.0,55.0,63.0,0.0
0.0,60.0,63.0,0.0
0.0,42.0,104.0,0.0
0.0,31.0,117.0,1.0
0.0,60.0,124.0,0.0
0.0,64.0,124.0,0.0
0.0,67.0,124.0,0.0
0.0,77.0,88.0,0.0
0.0,42.0,41.0,0.0
0.0,42.0,56.0,23.0
0.0,33.0,120.0,12.0
0.0,48.0,62.0,0.0
0.0,55.0,62.0,0.0
0.0,60.0,62.0,0.0
0.0,42.0,63.0,0.0
0.0,42.0,76.0,23.0
0.0,58.0,101.0,1.0
0.0,62.0,109.0,0.0
0.0,65.0,113.0,0.0
0.0,34.0,125.0,3.0
0.0,50.0,62.0,0.0
0.0,58.0,62.0,0.0
0.0,62.0,62.0,0.0
0.0,35.0,125.0,0.0
0.0,42.0,80.0,0.0
0.0,50.0,62.0,42.0
0.0,58.0,63.0,0.0
0.0,62.0,63.0,0.0
0.0,42.0,92.0,0.0
0.0,62.0,112.0,1.0
0.0,65.0,125.0,0.0
0.0,70.0,120.0,0.0
0.0,72.0,92.0,0.0
0.0,42.0,104.0,0.0
0.0,62.0,88.0,0.0
0.0,65.0,105.0,0.0
0.0,70.0,101.0,0.0
0.0,42.0,105.0,0.0
0.0,62.0,97.0,0.0
0.0,65.0,113.0,0.0
0.0,70.0,109.0,0.0
0.0,79.0,105.0,0.0
0.0,40.0,125.0,0.0
0.0,42.0,52.0,0.0
0.0,62.0,109.0,0.0
0.0,65.0,112.0,0.0
0.0,70.0,125.0,0.0
0.0,42.0,92.0,0.0
0.0,34.0,125.0,20.0
0.0,50.0,62.0,0.0
0.0,58.0,63.0,0.0
0.0,62.0,63.0,0.0
0.0,35.0,125.0,0.0
0.0,42.0,105.0,0.0
0.0,50.0,62.0,10.0
0.0,58.0,62.0,0.0
0.0,62.0,63.0,0.0
0.0,42.0,65.0,0.0
0.0,62.0,125.0,47.0
0.0,65.0,124.0,0.0
0.0,70.0,125.0,0.0
0.0,79.0,97.0,0.0
0.0,35.0,125.0,0.0
0.0,42.0,84.0,0.0
0.0,50.0,62.0,15.0
0.0,58.0,62.0,0.0
0.0,62.0,63.0,0.0
0.0,42.0,88.0,0.0
0.0,50.0,41.0,47.0
0.0,58.0,43.0,0.0
0.0,62.0,46.0,0.0
0.0,79.0,96.0,0.0
0.0,42.0,92.0,0.0
0.0,34.0,113.0,47.0
0.0,62.0,120.0,0.0
0.0,65.0,125.0,0.0
0.0,70.0,125.0,0.0
0.0,42.0,57.0,0.0
0.0,50.0,63.0,21.0
0.0,58.0,63.0,0.0
0.0,62.0,62.0,0.0
0.0,40.0,125.0,0.0
0.0,42.0,105.0,0.0
0.0,41.0,112.0,47.0
0.0,50.0,62.0,0.0
0.0,58.0,63.0,0.0
0.0,62.0,63.0,0.0
0.0,42.0,104.0,0.0
0.0,62.0,125.0,1.0
0.0,65.0,124.0,0.0
0.0,70.0,124.0,0.0
0.0,77.0,104.0,0.0
0.0,42.0,92.0,0.0
0.0,34.0,125.0,20.0
0.0,50.0,63.0,0.0
0.0,58.0,62.0,0.0
0.0,62.0,63.0,0.0
0.0,42.0,77.0,0.0
0.0,57.0,109.0,19.0
0.0,60.0,108.0,0.0
0.0,33.0,125.0,3.0
0.0,60.0,113.0,0.0
0.0,65.0,125.0,0.0
0.0,69.0,125.0,0.0
0.0,35.0,125.0,0.0
0.0,42.0,80.0,0.0
0.0,60.0,97.0,0.0
0.0,65.0,112.0,0.0
0.0,69.0,117.0,0.0
0.0,42.0,92.0,0.0
0.0,33.0,112.0,0.0
0.0,60.0,108.0,0.0
0.0,65.0,97.0,0.0
0.0,69.0,101.0,0.0
0.0,70.0,100.0,0.0
0.0,42.0,104.0,0.0
0.0,60.0,65.0,0.0
0.0,65.0,112.0,0.0
0.0,69.0,125.0,0.0
0.0,42.0,104.0,0.0
0.0,48.0,37.0,16.0
0.0,53.0,48.0,0.0
0.0,60.0,52.0,0.0
0.0,81.0,105.0,0.0
0.0,40.0,125.0,0.0
0.0,42.0,52.0,0.0
0.0,48.0,68.0,47.0
0.0,53.0,70.0,0.0
0.0,60.0,63.0,0.0
0.0,42.0,92.0,0.0
0.0,36.0,125.0,1.0
0.0,48.0,52.0,0.0
0.0,53.0,52.0,0.0
0.0,60.0,53.0,0.0
0.0,79.0,101.0,0.0
0.0,42.0,104.0,0.0
0.0,48.0,63.0,7.0
0.0,53.0,62.0,0.0
0.0,60.0,63.0,0.0
0.0,42.0,64.0,0.0
0.0,64.0,121.0,44.0
0.0,67.0,113.0,0.0
0.0,72.0,97.0,0.0
0.0,60.0,120.0,3.0
0.0,65.0,124.0,0.0
0.0,69.0,124.0,0.0
0.0,81.0,104.0,0.0
0.0,35.0,124.0,0.0
0.0,42.0,85.0,0.0
0.0,38.0,93.0,0.0
0.0,60.0,40.0,0.0
0.0,65.0,120.0,0.0
0.0,69.0,104.0,0.0
0.0,42.0,89.0,0.0
0.0,26.0,120.0,0.0
0.0,60.0,97.0,0.0
0.0,65.0,124.0,0.0
0.0,69.0,105.0,0.0
0.0,42.0,93.0,0.0
0.0,60.0,61.0,0.0
0.0,65.0,112.0,0.0
0.0,69.0,109.0,0.0
0.0,46.0,85.0,0.0
0.0,70.0,96.0,1.0
0.0,26.0,124.0,3.0
0.0,48.0,63.0,0.0
0.0,53.0,62.0,0.0
0.0,60.0,62.0,0.0
0.0,79.0,100.0,0.0
0.0,40.0,124.0,0.0
0.0,42.0,104.0,0.0
0.0,48.0,63.0,47.0
0.0,53.0,62.0,0.0
0.0,60.0,63.0,0.0
0.0,46.0,80.0,0.0
0.0,28.0,125.0,14.0
0.0,48.0,62.0,0.0
0.0,53.0,62.0,0.0
0.0,60.0,63.0,0.0
0.0,40.0,113.0,0.0
0.0,44.0,93.0,0.0
0.0,48.0,62.0,47.0
0.0,53.0,62.0,0.0
0.0,60.0,63.0,0.0
0.0,40.0,125.0,0.0
0.0,60.0,101.0,7.0
0.0,65.0,121.0,0.0
0.0,69.0,112.0,0.0
0.0,29.0,125.0,1.0
0.0,48.0,63.0,0.0
0.0,57.0,62.0,0.0
0.0,60.0,62.0,0.0
0.0,77.0,105.0,0.0
0.0,35.0,125.0,0.0
0.0,57.0,75.0,0.0
0.0,48.0,63.0,42.0
0.0,57.0,62.0,0.0
0.0,60.0,63.0,0.0
0.0,60.0,112.0,47.0
0.0,65.0,124.0,0.0
0.0,69.0,124.0,0.0
0.0,42.0,104.0,0.0
0.0,60.0,96.0,0.0
0.0,65.0,124.0,0.0
0.0,69.0,104.0,0.0
0.0,42.0,104.0,0.0
0.0,60.0,109.0,0.0
0.0,65.0,125.0,0.0
0.0,69.0,124.0,0.0
0.0,79.0,108.0,0.0
0.0,40.0,124.0,0.0
0.0,42.0,53.0,0.0
0.0,60.0,108.0,0.0
0.0,65.0,125.0,0.0
0.0,69.0,125.0,0.0
0.0,42.0,92.0,0.0
0.0,29.0,124.0,21.0
0.0,48.0,63.0,0.0
0.0,57.0,63.0,0.0
0.0,60.0,63.0,0.0
0.0,79.0,104.0,0.0
0.0,35.0,125.0,0.0
0.0,42.0,104.0,0.0
0.0,48.0,63.0,27.0
0.0,57.0,62.0,0.0
0.0,60.0,63.0,0.0
0.0,42.0,65.0,0.0
0.0,60.0,124.0,47.0
0.0,65.0,125.0,0.0
0.0,69.0,125.0,0.0
0.0,79.0,96.0,0.0
0.0,35.0,125.0,0.0
0.0,42.0,85.0,0.0
0.0,48.0,63.0,16.0
0.0,57.0,62.0,0.0
0.0,60.0,63.0,0.0
0.0,42.0,88.0,0.0
0.0,48.0,53.0,47.0
0.0,57.0,53.0,0.0
0.0,60.0,53.0,0.0
0.0,79.0,104.0,0.0
0.0,42.0,92.0,0.0
0.0,29.0,125.0,47.0
0.0,60.0,120.0,0.0
0.0,65.0,124.0,0.0
0.0,69.0,125.0,0.0
0.0,42.0,56.0,0.0
0.0,48.0,63.0,24.0
0.0,57.0,63.0,0.0
0.0,60.0,62.0,0.0
0.0,40.0,125.0,0.0
0.0,42.0,105.0,0.0
0.0,29.0,124.0,47.0
0.0,48.0,62.0,0.0
0.0,57.0,63.0,0.0
0.0,60.0,63.0,0.0
0.0,42.0,104.0,0.0
0.0,60.0,121.0,1.0
0.0,65.0,125.0,0.0
0.0,69.0,124.0,0.0
0.0,77.0,104.0,0.0
0.0,42.0,93.0,0.0
0.0,24.0,121.0,23.0
0.0,48.0,62.0,0.0
0.0,57.0,62.0,0.0
0.0,60.0,63.0,0.0
0.0,42.0,76.0,0.0
0.0,64.0,93.0,44.0
0.0,67.0,97.0,0.0
0.0,48.0,63.0,3.0
0.0,55.0,63.0,0.0
0.0,60.0,63.0,0.0
0.0,35.0,124.0,0.0
0.0,42.0,100.0,0.0
0.0,48.0,62.0,12.0
0.0,55.0,63.0,0.0
0.0,60.0,63.0,0.0
0.0,42.0,104.0,0.0
0.0,36.0,116.0,22.0
0.0,60.0,113.0,0.0
0.0,64.0,124.0,0.0
0.0,67.0,125.0,0.0
0.0,42.0,36.0,0.0
0.0,60.0,89.0,0.0
0.0,64.0,124.0,0.0
0.0,67.0,121.0,0.0
0.0,42.0,32.0,0.0
0.0,60.0,89.0,0.0
0.0,64.0,124.0,0.0
0.0,67.0,120.0,0.0
0.0,79.0,92.0,0.0
0.0,40.0,125.0,0.0
0.0,42.0,96.0,0.0
0.0,60.0,53.0,0.0
0.0,64.0,121.0,0.0
0.0,67.0,124.0,0.0
0.0,42.0,88.0,0.0
0.0,48.0,63.0,18.0
0.0,55.0,62.0,0.0
0.0,60.0,63.0,0.0
0.0,79.0,96.0,0.0
0.0,46.0,106.0,0.0
0.0,48.0,62.0,18.0
0.0,55.0,63.0,0.0
0.0,60.0,62.0,0.0
0.0,40.0,96.0,0.0
0.0,60.0,120.0,47.0
0.0,64.0,124.0,0.0
0.0,67.0,124.0,0.0
0.0,81.0,108.0,0.0
0.0,35.0,125.0,0.0
0.0,42.0,36.0,0.0
0.0,48.0,63.0,17.0
0.0,55.0,62.0,0.0
0.0,60.0,62.0,0.0
0.0,42.0,105.0,0.0
0.0,48.0,49.0,1.0
0.0,55.0,47.0,0.0
0.0,60.0,48.0,0.0
0.0,77.0,93.0,0.0
0.0,42.0,74.0,0.0
0.0,31.0,109.0,47.0
0.0,60.0,120.0,0.0
0.0,64.0,124.0,0.0
0.0,67.0,125.0,0.0
0.0,42.0,76.0,0.0
0.0,36.0,120.0,19.0
0.0,48.0,63.0,0.0
0.0,55.0,62.0,0.0
0.0,60.0,62.0,0.0
0.0,40.0,124.0,0.0
0.0,42.0,104.0,0.0
0.0,48.0,63.0,47.0
0.0,55.0,62.0,0.0
0.0,60.0,62.0,0.0
0.0,42.0,105.0,0.0
0.0,31.0,116.0,2.0
0.0,60.0,124.0,0.0
0.0,64.0,124.0,0.0
0.0,67.0,124.0,0.0
0.0,77.0,89.0,0.0
0.0,42.0,41.0,0.0
0.0,42.0,56.0,23.0
0.0,33.0,120.0,12.0
0.0,48.0,62.0,0.0
0.0,55.0,62.0,0.0
0.0,60.0,62.0,0.0
0.0,42.0,62.0,0.0
0.0,42.0,77.0,23.0
0.0,58.0,96.0,1.0
0.0,62.0,108.0,0.0
0.0,65.0,113.0,0.0
0.0,34.0,124.0,2.0
0.0,50.0,63.0,0.0
0.0,58.0,63.0,0.0
0.0,62.0,63.0,0.0
0.0,35.0,125.0,0.0
0.0,42.0,81.0,0.0
0.0,50.0,62.0,32.0
0.0,58.0,62.0,0.0
0.0,62.0,62.0,0.0
0.0,42.0,93.0,0.0
0.0,62.0,113.0,24.0
0.0,65.0,124.0,0.0
0.0,70.0,120.0,0.0
0.0,42.0,104.0,0.0
0.0,62.0,89.0,0.0
0.0,65.0,105.0,0.0
0.0,70.0,100.0,0.0
0.0,42.0,104.0,0.0
0.0,62.0,96.0,0.0
0.0,65.0,112.0,0.0
0.0,70.0,109.0,0.0
0.0,79.0,97.0,0.0
0.0,40.0,125.0,0.0
0.0,42.0,52.0,0.0
0.0,62.0,108.0,0.0
0.0,65.0,113.0,0.0
0.0,70.0,124.0,0.0
0.0,42.0,92.0,0.0
0.0,34.0,125.0,20.0
0.0,50.0,62.0,0.0
0.0,58.0,62.0,0.0
0.0,62.0,62.0,0.0
0.0,35.0,124.0,0.0
0.0,42.0,104.0,0.0
0.0,50.0,62.0,15.0
0.0,58.0,62.0,0.0
0.0,62.0,62.0,0.0
0.0,42.0,64.0,0.0
0.0,62.0,124.0,47.0
0.0,65.0,125.0,0.0
0.0,70.0,124.0,0.0
0.0,79.0,92.0,0.0
0.0,35.0,125.0,0.0
0.0,42.0,84.0,0.0
0.0,50.0,62.0,15.0
0.0,58.0,62.0,0.0
0.0,62.0,63.0,0.0
0.0,42.0,88.0,0.0
0.0,50.0,41.0,16.0
0.0,58.0,42.0,0.0
0.0,62.0,46.0,0.0
0.0,79.0,88.0,0.0
0.0,42.0,92.0,0.0
0.0,34.0,112.0,47.0
0.0,62.0,121.0,0.0
0.0,65.0,125.0,0.0
0.0,70.0,125.0,0.0
0.0,42.0,56.0,0.0
0.0,50.0,62.0,21.0
0.0,58.0,62.0,0.0
0.0,62.0,62.0,0.0
0.0,40.0,125.0,0.0
0.0,42.0,105.0,0.0
0.0,41.0,112.0,47.0
0.0,50.0,62.0,0.0
0.0,58.0,62.0,0.0
0.0,62.0,62.0,0.0
0.0,42.0,105.0,0.0
0.0,62.0,124.0,1.0
0.0,65.0,124.0,0.0
0.0,70.0,124.0,0.0
0.0,77.0,88.0,0.0
0.0,42.0,92.0,0.0
0.0,34.0,125.0,20.0
0.0,50.0,62.0,0.0
0.0,58.0,63.0,0.0
0.0,62.0,63.0,0.0
0.0,42.0,77.0,0.0
0.0,57.0,113.0,1.0
0.0,60.0,100.0,0.0
0.0,33.0,125.0,3.0
0.0,60.0,112.0,0.0
0.0,65.0,125.0,0.0
0.0,69.0,124.0,0.0
0.0,35.0,125.0,0.0
0.0,42.0,80.0,0.0
0.0,60.0,96.0,0.0
0.0,65.0,113.0,0.0
0.0,69.0,117.0,0.0
0.0,42.0,92.0,0.0
0.0,33.0,112.0,0.0
0.0,60.0,109.0,0.0
0.0,65.0,97.0,0.0
0.0,69.0,101.0,0.0
0.0,81.0,105.0,0.0
0.0,42.0,105.0,0.0
0.0,60.0,65.0,0.0
0.0,65.0,112.0,0.0
0.0,69.0,125.0,0.0
0.0,42.0,105.0,0.0
0.0,48.0,36.0,16.0
0.0,53.0,49.0,0.0
0.0,60.0,53.0,0.0
0.0,79.0,96.0,0.0
0.0,40.0,124.0,0.0
0.0,42.0,53.0,0.0
0.0,48.0,68.0,29.0
0.0,53.0,70.0,0.0
0.0,60.0,63.0,0.0
0.0,42.0,93.0,0.0
0.0,36.0,124.0,47.0
0.0,48.0,53.0,0.0
0.0,53.0,52.0,0.0
0.0,60.0,53.0,0.0
0.0,79.0,100.0,0.0
0.0,35.0,124.0,0.0
0.0,42.0,105.0,0.0
0.0,48.0,62.0,7.0
0.0,53.0,62.0,0.0
0.0,60.0,63.0,0.0
0.0,42.0,65.0,0.0
0.0,64.0,125.0,42.0
0.0,67.0,108.0,0.0
0.0,72.0,89.0,0.0
0.0,60.0,121.0,3.0
0.0,65.0,125.0,0.0
0.0,69.0,124.0,0.0
0.0,81.0,105.0,0.0
0.0,35.0,124.0,0.0
0.0,42.0,84.0,0.0
0.0,38.0,92.0,0.0
0.0,60.0,40.0,0.0
0.0,65.0,121.0,0.0
0.0,69.0,105.0,0.0
0.0,42.0,89.0,0.0
0.0,26.0,121.0,0.0
0.0,60.0,97.0,0.0
0.0,65.0,125.0,0.0
0.0,69.0,104.0,0.0
0.0,42.0,92.0,0.0
0.0,60.0,60.0,0.0
0.0,65.0,113.0,0.0
0.0,69.0,109.0,0.0
0.0,46.0,84.0,0.0
0.0,70.0,88.0,12.0
0.0,26.0,125.0,1.0
0.0,48.0,63.0,0.0
0.0,53.0,62.0,0.0
0.0,60.0,62.0,0.0
0.0,79.0,93.0,0.0
0.0,40.0,125.0,0.0
0.0,42.0,105.0,0.0
0.0,48.0,63.0,36.0
0.0,53.0,62.0,0.0
0.0,60.0,63.0,0.0
0.0,46.0,81.0,0.0
0.0,48.0,63.0,14.0
0.0,53.0,63.0,0.0
0.0,60.0,63.0,0.0
0.0,40.0,112.0,0.0
0.0,44.0,93.0,0.0
0.0,48.0,63.0,47.0
0.0,53.0,62.0,0.0
0.0,60.0,63.0,0.0
0.0,40.0,125.0,0.0
0.0,62.0,81.0,1.0
0.0,65.0,80.0,0.0
0.0,70.0,80.0,0.0
0.0,77.0,92.0,1.0
0.0,70.0,94.0,0.0
0.0,80.0,83.0,0.0
0.0,82.0,85.0,0.0
0.0,86.0,89.0,0.0
0.0,89.0,85.0,0.0
0.0,65.0,80.0,0.0
0.0,70.0,81.0,0.0
0.0,74.0,81.0,0.0
0.0,70.0,58.0,47.0
0.0,70.0,59.0,47.0
0.0,70.0,66.0,47.0
0.0,81.0,82.0,0.0
0.0,70.0,94.0,47.0
0.0,67.0,83.0,47.0
0.0,70.0,46.0,0.0
0.0,74.0,68.0,23.0
0.0,70.0,56.0,0.0
0.0,80.0,83.0,0.0
0.0,70.0,54.0,18.0
0.0,74.0,88.0,47.0
0.0,70.0,96.0,0.0
0.0,70.0,62.0,47.0
0.0,81.0,83.0,0.0
0.0,70.0,60.0,47.0
0.0,67.0,83.0,47.0
0.0,70.0,57.0,0.0
0.0,77.0,65.0,5.0
0.0,70.0,97.0,0.0
0.0,80.0,83.0,0.0
0.0,70.0,61.0,47.0
0.0,77.0,80.0,42.0
0.0,70.0,60.0,0.0
0.0,67.0,83.0,47.0
0.0,70.0,56.0,0.0
0.0,60.0,80.0,44.0
0.0,69.0,80.0,0.0
0.0,70.0,94.0,1.0
0.0,80.0,82.0,0.0
0.0,81.0,84.0,0.0
0.0,84.0,84.0,0.0
0.0,69.0,80.0,0.0
0.0,72.0,80.0,0.0
0.0,70.0,59.0,26.0
0.0,70.0,58.0,47.0
0.0,70.0,66.0,47.0
0.0,81.0,83.0,0.0
0.0,70.0,95.0,47.0
0.0,67.0,82.0,47.0
0.0,70.0,47.0,0.0
0.0,70.0,56.0,47.0
0.0,80.0,83.0,0.0
0.0,70.0,54.0,47.0
0.0,70.0,96.0,47.0
0.0,70.0,63.0,47.0
0.0,81.0,83.0,0.0
0.0,70.0,60.0,47.0
0.0,67.0,83.0,47.0
0.0,70.0,57.0,0.0
0.0,70.0,96.0,47.0
0.0,80.0,83.0,0.0
0.0,70.0,60.0,47.0
0.0,70.0,60.0,47.0
0.0,67.0,83.0,47.0
0.0,70.0,56.0,0.0
0.0,64.0,81.0,1.0
0.0,67.0,80.0,0.0
0.0,70.0,94.0,1.0
0.0,80.0,83.0,0.0
0.0,79.0,76.0,0.0
0.0,88.0,89.0,0.0
0.0,64.0,80.0,0.0
0.0,67.0,81.0,0.0
0.0,70.0,58.0,41.0
0.0,70.0,58.0,47.0
0.0,70.0,66.0,47.0
0.0,81.0,83.0,0.0
0.0,70.0,95.0,47.0
0.0,67.0,83.0,47.0
0.0,70.0,46.0,0.0
0.0,79.0,89.0,47.0
0.0,70.0,56.0,0.0
0.0,80.0,82.0,0.0
0.0,70.0,54.0,18.0
0.0,79.0,92.0,47.0
0.0,70.0,97.0,0.0
0.0,70.0,63.0,47.0
0.0,81.0,82.0,0.0
0.0,0.0,0.0,0.0
0.0,0.0,0.0,0.0
0.0,0.0,0.0,0.0
0.0,0.0,0.0,0.0
0.0,0.0,0.0,0.0
0.0,0.0,0.0,0.0
0.0,0.0,0.0,0.0
0.0,0.0,0.0,0.0
0.0,0.0,0.0,0.0
0.0,0.0,0.0,0.0
0.0,0.0,0.0,0.0
0.0,0.0,0.0,0.0
0.0,0.0,0.0,0.0
0.0,0.0,0.0,0.0
0.0,0.0,0.0,0.0
0.0,0.0,0.0,0.0
0.0,0.0,0.0,0.0
0.0,0.0,0.0,0.0
0.0,0.0,0.0,0.0
0.0,0.0,0.0,0.0
0.0,0.0,0.0,0.0
0.0,0.0,0.0,0.0
0.0,0.0,0.0,0.0
0.0,0.0,0.0,0.0
0.0,0.0,0.0,0.0
0.0,0.0,0.0,0.0
0.0,0.0,0.0,0.0
0.0,0.0,0.0,0.0
0.0,0.0,0.0,0.0
0.0,0.0,0.0,0.0
0.0,0.0,0.0,0.0
