track,note,velocity,time
1,84,100,192
1,89,100,0
1,89,100,0
1,84,100,0
1,87,100,0
1,82,100,0
1,87,100,0
1,82,100,0
1,80,100,0
1,84,100,0
1,80,100,0
1,84,100,0
1,77,100,0
1,82,100,0
1,82,100,0
1,84,100,110
1,89,100,0
1,89,100,0
1,84,100,0
1,82,100,0
1,87,100,0
1,87,100,0
1,82,100,0
1,84,100,0
1,80,100,0
1,84,100,0
1,80,100,0
1,79,100,0
1,82,100,0
1,82,100,0
1,77,100,0
1,73,100,0
1,75,100,0
1,77,100,0
1,82,100,0
1,73,100,0
1,75,100,0
1,84,100,0
1,82,100,0
1,89,100,0
1,87,100,0
1,79,100,0
1,85,100,0
1,77,100,0
1,75,100,0
1,84,100,0
1,75,100,0
1,73,100,0
1,72,100,0
1,71,100,576
1,70,100,0
1,70,100,0
1,84,100,13248
1,89,100,0
1,89,100,0
1,84,100,0
1,87,100,0
1,82,100,0
1,87,100,0
1,82,100,0
1,80,100,0
1,84,100,0
1,80,100,0
1,84,100,0
1,77,100,0
1,82,100,0
1,82,100,0
1,84,100,110
1,89,100,0
1,89,100,0
1,84,100,0
1,82,100,0
1,87,100,0
1,87,100,0
1,82,100,0
1,84,100,0
1,80,100,0
1,84,100,0
1,80,100,0
1,79,100,0
1,82,100,0
1,82,100,0
1,77,100,0
1,73,100,0
1,75,100,0
1,77,100,0
1,82,100,0
1,73,100,0
1,75,100,0
1,84,100,0
1,82,100,0
1,89,100,0
1,87,100,0
1,79,100,0
1,85,100,0
1,77,100,0
1,75,100,0
1,84,100,0
1,84,100,192
1,89,100,0
1,89,100,0
1,84,100,0
1,87,100,0
1,82,100,0
1,87,100,0
1,82,100,0
1,80,100,0
1,84,100,0
1,80,100,0
1,84,100,0
1,77,100,0
1,82,100,0
1,82,100,0
1,84,100,110
1,89,100,0
1,89,100,0
1,84,100,0
1,82,100,0
1,87,100,0
1,87,100,0
1,82,100,0
1,84,100,0
1,80,100,0
1,84,100,0
1,80,100,0
1,79,100,0
1,82,100,0
1,82,100,0
1,77,100,0
1,73,100,0
1,75,100,0
1,77,100,0
1,82,100,0
1,73,100,0
1,75,100,0
1,84,100,0
1,82,100,0
1,89,100,0
1,87,100,0
1,79,100,0
1,85,100,0
1,77,100,0
1,75,100,0
1,84,100,0
1,75,100,0
1,73,100,0
1,72,100,0
1,71,100,576
1,70,100,0
1,70,100,0
1,84,100,13248
1,89,100,0
1,89,100,0
1,84,100,0
1,87,100,0
1,82,100,0
1,87,100,0
1,82,100,0
1,80,100,0
1,84,100,0
1,80,100,0
1,84,100,0
1,77,100,0
1,82,100,0
1,82,100,0
1,84,100,110
1,89,100,0
1,89,100,0
1,84,100,0
1,82,100,0
1,87,100,0
1,87,100,0
1,82,100,0
1,84,100,0
1,80,100,0
1,84,100,0
1,80,100,0
1,79,100,0
1,82,100,0
1,82,100,0
1,77,100,0
1,73,100,0
1,75,100,0
1,77,100,0
1,82,100,0
1,73,100,0
1,75,100,0
1,84,100,0
1,82,100,0
1,89,100,0
1,87,100,0
1,79,100,0
1,85,100,0
1,77,100,0
1,75,100,0
1,84,100,0
1,84,100,192
1,89,100,0
1,89,100,0
1,84,100,0
1,87,100,0
1,82,100,0
1,87,100,0
1,82,100,0
1,80,100,0
1,84,100,0
1,80,100,0
1,84,100,0
1,77,100,0
1,82,100,0
1,82,100,0
1,84,100,110
1,89,100,0
1,89,100,0
1,84,100,0
1,82,100,0
1,87,100,0
1,87,100,0
1,82,100,0
1,84,100,0
1,80,100,0
1,84,100,0
1,80,100,0
1,79,100,0
1,82,100,0
1,82,100,0
1,77,100,0
1,73,100,0
1,75,100,0
1,77,100,0
1,82,100,0
1,73,100,0
1,75,100,0
1,84,100,0
1,82,100,0
1,89,100,0
1,87,100,0
1,79,100,0
1,85,100,0
1,77,100,0
1,75,100,0
1,84,100,0
1,75,100,0
1,73,100,0
1,72,100,0
1,71,100,576
1,70,100,0
1,70,100,0
1,83,100,768
1,82,100,0
1,80,100,0
1,76,100,0
1,75,100,0
1,76,100,0
1,75,100,0
1,80,100,192
1,83,100,0
1,82,100,0
1,80,100,0
1,76,100,0
1,75,100,0
1,83,100,384
1,82,100,0
1,82,100,0
1,80,100,0
1,82,100,0
1,80,100,0
1,80,100,0
1,80,100,192
1,82,100,192
1,82,100,0
1,82,100,0
1,83,100,0
1,82,100,0
1,80,100,0
1,82,100,0
1,84,100,1536
1,89,100,0
1,89,100,0
1,84,100,0
1,87,100,0
1,82,100,0
1,87,100,0
1,82,100,0
1,80,100,0
1,84,100,0
1,80,100,0
1,84,100,0
1,77,100,0
1,82,100,0
1,82,100,0
1,84,100,110
1,89,100,0
1,89,100,0
1,84,100,0
1,82,100,0
1,87,100,0
1,87,100,0
1,82,100,0
1,84,100,0
1,80,100,0
1,84,100,0
1,80,100,0
1,79,100,0
1,82,100,0
1,82,100,0
1,77,100,0
1,73,100,0
1,75,100,0
1,77,100,0
1,82,100,0
1,73,100,0
1,75,100,0
1,84,100,0
1,82,100,0
1,89,100,0
1,87,100,0
1,79,100,0
1,85,100,0
1,77,100,0
1,75,100,0
1,84,100,0
1,75,100,0
1,73,100,0
1,72,100,0
1,75,100,384
1,73,100,0
1,72,100,0
1,75,100,384
1,73,100,0
1,72,100,0
1,71,100,576
1,70,100,0
1,70,100,0
1,84,100,960
1,89,100,0
1,89,100,0
1,84,100,0
1,87,100,0
1,82,100,0
1,87,100,0
1,82,100,0
1,80,100,0
1,84,100,0
1,80,100,0
1,84,100,0
1,77,100,0
1,82,100,0
1,82,100,0
1,75,100,0
2,39,100,1152
2,32,100,0
2,39,100,192
2,39,100,192
2,32,100,192
2,39,100,192
2,32,100,0
2,34,100,0
2,29,100,0
2,29,100,192
2,34,100,0
2,29,100,192
2,29,100,192
2,34,100,192
2,29,100,192
2,34,100,0
2,39,100,0
2,46,100,0
2,39,100,0
2,32,100,0
2,39,100,0
2,39,100,192
2,35,100,0
2,34,100,0
2,32,100,0
2,32,100,192
2,34,100,0
2,35,100,192
2,37,100,192
2,44,100,576
2,44,100,8
2,42,100,14
2,42,100,192
2,41,100,4
2,41,100,8
2,40,100,10
2,40,100,192
2,39,100,192
2,39,100,192
2,38,100,192
2,38,100,192
2,37,100,384
2,36,100,192
2,34,100,168
2,39,100,192
2,39,100,1152
2,32,100,0
2,39,100,192
2,39,100,192
2,32,100,192
2,39,100,192
2,32,100,0
2,34,100,0
2,29,100,0
2,29,100,192
2,34,100,0
2,29,100,192
2,29,100,192
2,34,100,192
2,29,100,192
2,34,100,0
2,39,100,0
2,46,100,0
2,39,100,0
2,32,100,0
2,39,100,0
2,39,100,192
2,44,100,0
2,39,100,192
2,41,100,0
2,39,100,0
2,39,100,0
2,32,100,192
2,39,100,192
2,39,100,192
2,32,100,192
2,39,100,192
2,32,100,0
2,34,100,0
2,29,100,0
2,29,100,192
2,34,100,0
2,29,100,192
2,29,100,192
2,34,100,192
2,29,100,192
2,34,100,0
2,39,100,0
2,46,100,0
2,39,100,0
2,32,100,0
2,39,100,0
2,39,100,192
2,35,100,0
2,34,100,0
2,32,100,0
2,32,100,192
2,34,100,0
2,35,100,192
2,37,100,192
2,44,100,576
2,44,100,8
2,42,100,14
2,42,100,192
2,41,100,4
2,41,100,8
2,40,100,10
2,40,100,192
2,39,100,192
2,39,100,192
2,38,100,192
2,38,100,192
2,37,100,384
2,36,100,192
2,34,100,168
2,39,100,192
2,39,100,1152
2,32,100,0
2,39,100,192
2,39,100,192
2,32,100,192
2,39,100,192
2,32,100,0
2,34,100,0
2,29,100,0
2,29,100,192
2,34,100,0
2,29,100,192
2,29,100,192
2,34,100,192
2,29,100,192
2,34,100,0
2,39,100,0
2,46,100,0
2,39,100,0
2,32,100,0
2,39,100,0
2,39,100,192
2,44,100,0
2,39,100,192
2,41,100,0
2,39,100,0
2,39,100,0
2,32,100,192
2,39,100,192
2,39,100,192
2,32,100,192
2,39,100,192
2,32,100,0
2,34,100,0
2,29,100,0
2,29,100,192
2,34,100,0
2,29,100,192
2,29,100,192
2,34,100,192
2,29,100,192
2,34,100,0
2,39,100,0
2,46,100,0
2,39,100,0
2,32,100,0
2,39,100,0
2,39,100,192
2,35,100,0
2,34,100,0
2,32,100,0
2,32,100,192
2,34,100,0
2,35,100,192
2,37,100,192
2,40,100,576
2,40,100,192
2,40,100,192
2,44,100,192
2,44,100,192
2,44,100,192
2,40,100,192
2,40,100,192
2,40,100,192
2,44,100,192
2,44,100,192
2,44,100,192
2,40,100,4
2,40,100,192
2,40,100,192
2,41,100,26
2,44,100,192
2,42,100,192
2,39,100,0
2,39,100,2496
2,32,100,0
2,39,100,192
2,39,100,192
2,32,100,192
2,39,100,192
2,32,100,0
2,34,100,0
2,29,100,0
2,29,100,192
2,34,100,0
2,29,100,192
2,29,100,192
2,34,100,192
2,29,100,192
2,34,100,0
2,39,100,0
2,46,100,0
2,39,100,0
2,32,100,0
2,39,100,0
2,39,100,192
2,35,100,0
2,34,100,0
2,32,100,0
2,32,100,192
2,34,100,0
2,35,100,0
2,34,100,0
2,32,100,0
2,32,100,192
2,34,100,0
2,35,100,0
2,34,100,0
2,32,100,0
2,32,100,192
2,34,100,0
2,35,100,192
2,37,100,192
2,39,100,1728
2,32,100,0
3,84,100,192
3,89,100,0
3,89,100,0
3,84,100,0
3,87,100,0
3,82,100,0
3,87,100,0
3,82,100,0
3,80,100,0
3,84,100,0
3,80,100,0
3,84,100,0
3,77,100,0
3,82,100,0
3,56,100,0
3,60,100,0
3,63,100,0
3,68,100,0
3,63,100,192
3,60,100,0
3,58,100,0
3,56,100,0
3,60,100,0
3,63,100,0
3,68,100,0
3,63,100,192
3,60,100,0
3,63,100,0
3,58,100,0
3,61,100,180
3,65,100,0
3,70,100,0
3,65,100,192
3,61,100,0
3,60,100,0
3,58,100,0
3,61,100,0
3,65,100,0
3,70,100,0
3,65,100,192
3,61,100,0
3,60,100,0
3,58,100,0
3,61,100,0
3,65,100,0
3,68,100,0
3,65,100,0
3,61,100,0
3,58,100,0
3,51,100,0
3,55,100,112
3,58,100,40
3,63,100,0
3,61,100,192
3,58,100,0
3,55,100,0
3,56,100,0
3,60,100,128
3,63,100,0
3,68,100,0
3,63,100,0
3,60,100,0
3,58,100,0
3,59,100,0
3,66,100,0
3,63,100,0
3,65,100,0
3,58,100,0
3,61,100,0
3,68,100,192
3,63,100,0
3,60,100,0
3,68,100,192
3,70,100,0
3,71,100,192
3,70,100,0
3,70,100,0
3,68,100,0
3,56,100,0
3,60,100,0
3,63,100,0
3,68,100,0
3,63,100,192
3,60,100,192
3,56,100,0
3,54,100,0
3,58,100,176
3,61,100,0
3,66,100,0
3,61,100,0
3,58,100,0
3,54,100,0
3,53,100,0
3,56,100,192
3,60,100,0
3,65,100,0
3,60,100,192
3,56,100,0
3,53,100,0
3,52,100,0
3,56,100,158
3,59,100,0
3,64,100,0
3,59,100,0
3,56,100,0
3,52,100,0
3,51,100,0
3,56,100,184
3,60,100,0
3,63,100,0
3,60,100,192
3,56,100,0
3,51,100,0
3,50,100,0
3,56,100,174
3,58,100,0
3,62,100,0
3,58,100,0
3,56,100,0
3,50,100,0
3,71,100,0
3,70,100,0
3,70,100,0
3,68,100,0
3,70,100,192
3,65,100,384
3,65,100,0
3,63,100,0
3,84,100,192
3,89,100,0
3,89,100,0
3,84,100,0
3,87,100,0
3,82,100,0
3,87,100,0
3,82,100,0
3,80,100,0
3,84,100,0
3,80,100,0
3,84,100,0
3,77,100,0
3,82,100,0
3,56,100,0
3,60,100,0
3,63,100,0
3,68,100,0
3,63,100,192
3,60,100,0
3,58,100,0
3,56,100,0
3,60,100,0
3,63,100,0
3,68,100,0
3,63,100,192
3,60,100,0
3,63,100,0
3,58,100,0
3,61,100,180
3,65,100,0
3,70,100,0
3,65,100,192
3,61,100,0
3,60,100,0
3,58,100,0
3,61,100,0
3,65,100,0
3,70,100,0
3,65,100,192
3,61,100,0
3,60,100,0
3,58,100,0
3,61,100,0
3,65,100,0
3,68,100,0
3,65,100,0
3,61,100,0
3,58,100,0
3,51,100,0
3,55,100,112
3,58,100,40
3,63,100,0
3,61,100,192
3,58,100,0
3,55,100,0
3,56,100,0
3,60,100,128
3,63,100,0
3,68,100,0
3,63,100,0
3,60,100,0
3,58,100,0
3,84,100,192
3,89,100,0
3,89,100,0
3,84,100,0
3,87,100,0
3,82,100,0
3,87,100,0
3,82,100,0
3,80,100,0
3,84,100,0
3,80,100,0
3,84,100,0
3,77,100,0
3,82,100,0
3,56,100,0
3,60,100,0
3,63,100,0
3,68,100,0
3,63,100,192
3,60,100,0
3,58,100,0
3,56,100,0
3,60,100,0
3,63,100,0
3,68,100,0
3,63,100,192
3,60,100,0
3,63,100,0
3,58,100,0
3,61,100,180
3,65,100,0
3,70,100,0
3,65,100,192
3,61,100,0
3,60,100,0
3,58,100,0
3,61,100,0
3,65,100,0
3,70,100,0
3,65,100,192
3,61,100,0
3,60,100,0
3,58,100,0
3,61,100,0
3,65,100,0
3,68,100,0
3,65,100,0
3,61,100,0
3,58,100,0
3,51,100,0
3,55,100,112
3,58,100,40
3,63,100,0
3,61,100,192
3,58,100,0
3,55,100,0
3,56,100,0
3,60,100,128
3,63,100,0
3,68,100,0
3,63,100,0
3,60,100,0
3,58,100,0
3,59,100,0
3,66,100,0
3,63,100,0
3,65,100,0
3,58,100,0
3,61,100,0
3,68,100,192
3,63,100,0
3,60,100,0
3,68,100,192
3,70,100,0
3,71,100,192
3,70,100,0
3,70,100,0
3,68,100,0
3,56,100,0
3,60,100,0
3,63,100,0
3,68,100,0
3,63,100,192
3,60,100,192
3,56,100,0
3,54,100,0
3,58,100,176
3,61,100,0
3,66,100,0
3,61,100,0
3,58,100,0
3,54,100,0
3,53,100,0
3,56,100,192
3,60,100,0
3,65,100,0
3,60,100,192
3,56,100,0
3,53,100,0
3,52,100,0
3,56,100,158
3,59,100,0
3,64,100,0
3,59,100,0
3,56,100,0
3,52,100,0
3,51,100,0
3,56,100,184
3,60,100,0
3,63,100,0
3,60,100,192
3,56,100,0
3,51,100,0
3,50,100,0
3,56,100,174
3,58,100,0
3,62,100,0
3,58,100,0
3,56,100,0
3,50,100,0
3,71,100,0
3,70,100,0
3,70,100,0
3,68,100,0
3,70,100,192
3,65,100,384
3,65,100,0
3,63,100,0
3,84,100,192
3,89,100,0
3,89,100,0
3,84,100,0
3,87,100,0
3,82,100,0
3,87,100,0
3,82,100,0
3,80,100,0
3,84,100,0
3,80,100,0
3,84,100,0
3,77,100,0
3,82,100,0
3,56,100,0
3,60,100,0
3,63,100,0
3,68,100,0
3,63,100,192
3,60,100,0
3,58,100,0
3,56,100,0
3,60,100,0
3,63,100,0
3,68,100,0
3,63,100,192
3,60,100,0
3,63,100,0
3,58,100,0
3,61,100,180
3,65,100,0
3,70,100,0
3,65,100,192
3,61,100,0
3,60,100,0
3,58,100,0
3,61,100,0
3,65,100,0
3,70,100,0
3,65,100,192
3,61,100,0
3,60,100,0
3,58,100,0
3,61,100,0
3,65,100,0
3,68,100,0
3,65,100,0
3,61,100,0
3,58,100,0
3,51,100,0
3,55,100,112
3,58,100,40
3,63,100,0
3,61,100,192
3,58,100,0
3,55,100,0
3,56,100,0
3,60,100,128
3,63,100,0
3,68,100,0
3,63,100,0
3,60,100,0
3,58,100,0
3,84,100,192
3,89,100,0
3,89,100,0
3,84,100,0
3,87,100,0
3,82,100,0
3,87,100,0
3,82,100,0
3,80,100,0
3,84,100,0
3,80,100,0
3,84,100,0
3,77,100,0
3,82,100,0
3,56,100,0
3,60,100,0
3,63,100,0
3,68,100,0
3,63,100,192
3,60,100,0
3,58,100,0
3,56,100,0
3,60,100,0
3,63,100,0
3,68,100,0
3,63,100,192
3,60,100,0
3,63,100,0
3,58,100,0
3,61,100,180
3,65,100,0
3,70,100,0
3,65,100,192
3,61,100,0
3,60,100,0
3,58,100,0
3,61,100,0
