track,note,velocity,time
1,38,74,12
1,50,73,6
1,62,89,4122
1,57,96,0
1,38,78,6
1,50,91,14
1,69,79,1222
1,76,69,0
1,72,71,332
1,67,71,4
1,62,69,542
1,67,72,2
1,38,75,2018
1,50,96,0
1,69,67,58
1,76,85,0
1,67,75,12
1,50,62,6
1,72,86,0
1,38,57,0
1,67,89,22
1,62,67,0
1,50,56,0
1,38,60,0
1,60,82,42
1,53,75,0
1,45,71,0
1,57,77,0
1,58,94,48
1,62,93,0
1,53,82,0
1,46,76,6
1,60,82,0
1,65,86,0
1,55,77,0
1,48,80,6
1,46,57,122
1,53,72,0
1,62,108,4
1,58,73,0
1,65,86,2
1,48,91,76
1,60,73,0
1,62,93,192
1,50,93,0
1,50,96,122
1,38,91,0
1,69,77,122
1,50,78,0
1,76,83,0
1,72,93,160
1,67,86,0
1,50,78,0
1,50,66,236
1,62,71,0
1,67,89,0
1,60,82,10
1,53,78,0
1,57,83,0
1,45,82,4
1,62,89,58
1,58,75,0
1,46,76,0
1,53,72,0
1,65,73,28
1,55,73,0
1,60,89,0
1,48,70,0
1,58,71,22
1,62,96,0
1,65,89,0
1,53,73,6
1,46,47,0
1,48,98,48
1,60,83,6
1,62,85,4
1,50,98,0
1,50,93,6
1,38,108,0
1,69,67,52
1,76,85,0
1,50,70,0
1,50,46,36
1,67,83,12
1,72,98,0
1,50,69,0
1,67,100,42
1,62,73,0
1,38,82,0
1,45,89,22
1,60,89,0
1,57,93,4
1,53,83,2
1,58,73,48
1,62,85,0
1,46,87,0
1,53,72,4
1,65,75,6
1,60,82,0
1,55,83,0
1,48,86,0
1,58,75,38
1,62,103,0
1,53,82,0
1,46,71,0
1,65,93,0
1,60,86,90
1,48,82,0
1,62,93,42
1,50,80,0
1,38,98,38
1,50,100,0
1,50,77,92
1,69,85,54
1,76,85,0
1,38,86,0
1,72,98,26
1,67,85,0
1,38,83,0
1,62,75,6
1,67,100,0
1,38,85,4
1,60,86,16
1,57,86,0
1,53,83,0
1,45,78,0
1,62,80,38
1,58,76,0
1,53,80,4
1,46,84,0
1,65,80,16
1,60,86,0
1,55,80,0
1,48,75,4
1,65,82,364
1,69,85,0
1,38,71,0
1,62,77,0
1,50,72,0
1,60,62,266
1,64,75,0
1,67,80,0
1,48,57,0
1,36,63,0
1,36,65,92
1,48,71,116
1,53,67,32
1,60,62,0
1,57,63,0
1,41,57,0
1,58,34,22
1,62,56,0
1,55,46,0
1,43,17,0
1,43,50,100
1,55,60,90
1,43,47,42
1,65,67,26
1,60,67,0
1,57,62,0
1,41,46,0
1,64,59,60
1,60,83,0
1,55,77,0
1,48,73,0
1,36,48,576
1,48,51,58
1,64,49,48
1,60,69,0
1,55,46,0
1,48,58,0
1,36,72,102
1,48,85,156
1,65,89,76
1,62,98,0
1,57,86,0
1,38,85,0
1,50,77,0
1,64,75,92
1,60,82,0
1,48,58,0
1,55,62,0
1,36,75,0
1,48,83,4
1,57,85,22
1,53,72,0
1,60,82,0
1,41,73,0
1,55,63,42
1,62,68,0
1,58,66,0
1,43,47,0
1,43,72,36
1,43,72,32
1,60,55,28
1,65,66,0
1,57,58,0
1,41,82,0
1,64,63,36
1,60,77,0
1,55,62,0
1,48,56,0
1,36,78,576
1,48,36,52
1,64,48,60
1,60,62,0
1,55,43,0
1,48,72,122
1,65,91,244
1,55,75,4
1,62,98,2
1,50,75,0
1,38,69,0
1,64,61,68
1,60,75,0
1,48,69,0
1,55,61,0
1,36,60,6
1,48,70,94
1,60,69,74
1,57,66,0
1,41,77,4
1,53,44,2
1,58,50,36
1,62,45,0
1,43,72,0
1,55,66,6
1,60,73,0
1,57,86,0
1,41,83,4
1,53,44,2
1,64,80,38
1,55,73,0
1,60,63,0
1,48,54,0
1,36,57,576
1,43,30,774
1,36,93,112
1,48,51,72
1,65,86,64
1,62,93,2
1,57,82,0
1,50,67,0
1,38,72,0
1,64,63,102
1,55,61,0
1,60,60,0
1,48,55,6
1,36,52,0
1,48,56,96
1,55,55,20
1,60,80,4
1,57,91,0
1,53,85,0
1,41,80,6
1,55,68,22
1,58,89,0
1,43,62,4
1,62,78,0
1,65,73,22
1,57,77,0
1,60,70,0
1,41,62,0
1,64,70,10
1,48,73,4
1,60,78,2
1,55,78,0
1,36,68,574
1,48,56,92
1,64,38,96
1,60,60,0
1,58,57,340
1,65,71,0
1,55,58,2
1,62,69,0
1,41,55,0
1,60,59,196
1,57,65,0
1,41,53,0
1,53,54,0
1,41,65,44
1,41,60,60
1,41,63,114
1,55,65,0
1,65,73,0
1,62,59,0
1,58,68,0
1,41,51,52
1,43,62,64
1,67,75,170
1,57,64,0
1,45,72,0
1,60,68,0
1,64,85,0
1,58,68,26
1,46,76,0
1,62,86,4
1,65,83,0
1,65,68,26
1,58,75,0
1,55,70,0
1,62,80,0
1,41,56,0
1,41,46,54
1,60,69,122
1,57,64,0
1,53,61,0
1,48,53,4
1,50,40,84
1,62,57,0
1,65,62,0
1,69,71,0
1,65,53,68
1,50,66,0
1,57,47,0
1,62,46,0
1,74,47,0
1,69,66,0
1,52,86,22
1,64,89,0
1,60,86,0
1,72,85,0
1,67,96,0
1,72,89,54
1,50,70,0
1,65,80,0
1,69,65,4
1,62,65,0
1,57,53,0
1,64,82,80
1,67,93,0
1,55,60,0
1,48,78,0
1,60,71,0
1,58,58,42
1,46,75,0
1,62,85,0
1,53,62,0
1,65,93,0
1,64,75,22
1,48,82,0
1,60,75,0
1,67,91,0
1,62,96,86
1,69,108,0
1,38,80,0
1,50,80,0
1,69,77,436
1,76,73,0
1,50,62,0
1,50,57,32
1,72,89,0
1,67,82,0
1,38,66,0
1,50,39,84
1,38,72,92
1,62,70,0
1,67,89,0
1,50,55,166
1,60,77,0
1,53,73,0
1,57,77,0
1,45,85,0
1,62,80,76
1,58,66,0
1,53,71,0
1,46,70,0
1,60,96,116
1,65,85,0
1,55,85,0
1,48,71,0
1,58,62,140
1,46,70,0
1,65,89,0
1,62,93,0
1,53,72,0
1,60,78,108
1,48,91,0
1,50,96,0
1,62,98,0
1,50,89,20
1,38,111,0
1,50,52,64
1,38,77,58
1,69,77,0
1,76,80,0
1,50,53,38
1,72,93,4
1,67,86,0
1,38,65,0
1,50,53,76
1,67,100,106
1,38,77,0
1,62,78,0
1,50,60,10
1,60,89,12
1,45,73,0
1,57,93,0
1,53,83,0
1,62,85,60
1,53,82,0
1,58,76,0
1,46,79,4
1,55,73,6
1,65,68,0
1,60,86,0
1,48,93,4
1,65,96,368
1,69,83,0
1,62,80,4
1,38,78,2
1,50,71,0
1,64,75,272
1,67,82,0
1,48,62,0
1,60,61,0
1,36,52,0
1,48,69,12
1,60,53,92
1,60,69,16
1,41,70,0
1,53,48,0
1,57,75,0
1,62,49,36
1,55,48,0
1,58,53,0
1,43,68,0
1,65,42,0
1,43,48,86
1,58,49,84
1,62,56,0
1,55,48,0
1,43,62,74
1,57,62,12
1,60,63,0
1,65,58,0
1,41,65,0
1,64,62,36
1,60,66,0
1,55,51,0
1,48,61,0
1,36,17,576
1,48,42,108
1,55,32,44
1,64,50,0
1,48,62,0
1,60,64,0
1,36,80,92
1,48,69,0
1,65,89,58
1,69,78,0
1,38,73,0
1,62,70,0
1,50,64,6
1,67,91,108
1,64,80,0
1,60,68,0
1,48,35,0
1,36,55,6
1,48,60,32
1,60,85,96
1,48,52,108
1,41,75,22
1,65,78,0
1,60,69,0
1,57,72,0
1,55,35,44
1,62,72,0
1,58,63,0
1,43,77,0
1,65,58,0
1,43,55,70
1,55,62,22
1,58,30,0
1,43,61,54
1,65,71,44
1,55,55,0
1,60,61,0
1,41,70,0
1,64,67,36
1,60,72,0
1,55,65,0
1,36,73,0
1,48,51,0
1,48,43,118
1,64,11,22
1,36,62,0
1,72,64,0
1,60,35,0
1,67,46,0
1,48,46,154
1,50,67,28
1,65,75,0
1,62,68,0
1,69,89,0
1,38,61,0
1,67,64,96
1,48,57,0
1,64,75,0
1,60,68,0
1,36,59,6
1,48,60,138
1,60,75,48
1,60,82,30
1,53,77,2
1,57,73,0
1,41,85,0
1,62,61,38
1,55,60,0
1,65,75,0
1,58,79,4
1,43,65,2
1,43,50,96
1,58,31,52
1,55,55,0
1,62,55,4
1,43,54,32
1,60,60,44
1,41,75,0
1,57,60,0
1,65,72,0
1,48,54,42
1,60,69,0
1,64,58,0
1,55,66,0
1,36,66,0
1,36,38,112
1,36,61,58
1,36,37,86
1,48,56,150
1,48,62,74
1,65,82,84
1,57,71,0
1,62,86,0
1,50,60,0
1,38,72,0
1,64,60,118
1,48,55,0
1,60,82,0
1,55,62,0
1,36,56,0
1,48,62,128
1,60,57,124
1,64,45,0
1,55,60,0
1,48,52,64
1,57,77,192
1,53,77,0
1,60,82,0
1,41,69,0
1,43,77,42
1,55,59,0
1,58,62,0
1,62,49,0
1,65,48,0
1,43,43,74
1,43,62,52
1,57,57,42
1,60,64,0
1,65,78,0
1,41,83,0
1,55,61,36
1,60,68,0
1,64,42,0
1,48,36,0
1,36,24,0
1,36,62,80
1,36,31,38
1,48,44,10
1,55,40,0
1,64,58,0
1,60,65,0
1,36,49,90
1,65,63,80
1,62,62,0
1,55,60,0
1,58,75,0
1,41,78,0
1,58,45,4
1,65,58,4
1,55,71,0
1,62,78,0
1,41,58,8
1,41,68,148
1,60,66,2
1,57,60,4
1,53,55,0
1,48,31,570
1,53,63,118
1,48,32,48
1,62,66,4
1,65,83,4
1,55,70,2
1,58,78,6
1,41,78,0
1,41,53,60
1,64,78,100
1,60,75,2
1,57,75,4
1,52,63,2
1,45,68,8
1,58,49,88
1,46,61,0
1,53,59,8
1,65,78,0
1,62,82,2
1,62,75,2
1,65,64,0
1,58,89,8
1,41,63,0
1,55,68,2
1,41,45,64
1,41,58,26
1,41,68,74
1,60,64,6
1,57,66,0
1,53,64,6
1,50,66,38
1,69,75,4
1,65,68,0
1,62,55,2
1,50,58,90
1,65,83,0
1,69,72,0
1,62,62,0
1,67,96,26
1,64,100,0
1,52,100,0
1,60,91,2
1,69,72,62
1,72,91,0
1,65,86,0
1,62,72,6
1,38,73,0
1,50,67,2
1,64,82,38
1,60,69,4
1,67,89,6
1,48,60,10
1,46,75,42
1,53,71,0
1,65,93,6
1,58,60,0
1,62,86,2
1,55,57,18
1,48,78,4
1,64,64,2
1,60,62,4
1,67,77,4
1,38,73,92
1,50,60,0
1,62,63,4
1,65,75,0
1,72,61,4
1,69,71,0
1,38,70,100
1,50,72,316
1,62,77,14
1,38,71,86
1,62,67,170
1,69,40,38
1,65,1,42
1,65,46,36
1,69,67,2
1,72,80,6
1,62,70,4
1,38,73,4
1,50,55,28
1,58,82,10
1,65,75,0
1,62,72,0
1,55,77,4
1,41,78,2
1,41,70,58
1,41,62,54
1,41,62,72
1,60,68,0
1,57,66,8
1,53,60,2
1,41,56,82
1,41,70,70
1,41,71,6
1,65,78,4
1,55,80,6
1,62,82,0
1,58,82,0
1,41,60,70
1,58,55,44
1,62,73,4
1,65,47,8
1,55,46,0
1,43,68,18
1,60,83,12
1,64,82,0
1,57,78,4
1,45,83,0
1,58,59,28
1,65,86,8
1,62,80,2
1,46,53,6
1,41,83,6
1,62,82,6
1,58,79,8
1,65,69,6
1,55,71,0
1,41,58,80
1,41,59,90
1,60,68,78
1,41,66,0
1,65,83,2
1,57,69,4
1,65,67,38
1,57,71,0
1,50,69,0
1,62,78,6
1,38,70,68
1,62,49,0
1,72,71,6
1,65,62,0
1,69,64,0
1,40,82,52
1,67,96,2
1,52,66,4
1,64,96,0
1,60,83,0
1,50,83,54
1,65,80,0
1,72,91,0
1,69,77,2
1,62,78,4
1,67,103,42
1,64,106,0
1,60,85,4
1,48,83,6
1,58,68,46
1,53,70,0
1,46,70,2
1,65,96,4
1,62,89,0
1,48,85,44
1,64,96,4
1,60,80,6
1,67,93,0
1,69,108,476
1,62,100,0
1,38,83,8
1,50,77,6
1,57,90,906
1,62,88,16
1,69,86,940
1,76,83,0
1,67,100,310
1,72,106,4
1,67,113,528
1,62,98,0
1,38,75,66
1,50,60,10
1,76,62,2790
1,69,41,10
1,67,68,446
1,72,82,0
1,67,91,646
1,62,59,0
1,72,70,1636
1,70,73,26
1,74,70,0
1,72,80,4
1,76,80,0
1,74,86,20
1,77,86,0
1,70,72,8
1,74,69,0
1,46,71,200
1,58,60,0
1,53,63,4
1,65,72,12
1,62,62,4
1,70,63,46
1,53,59,6
1,65,1,186
1,53,48,10
1,58,58,36
1,67,85,252
1,64,80,4
1,55,42,2
1,48,64,0
1,60,62,4
1,72,61,72
1,55,58,26
1,60,57,38
1,69,56,26
1,65,61,0
1,57,41,2
1,72,63,0
1,62,61,0
1,50,58,10
1,50,43,48
1,57,60,118
1,62,24,8
1,65,39,106
1,60,51,50
1,52,39,8
1,57,62,2
1,64,51,0
1,67,58,0
1,45,31,10
1,45,48,8
1,52,67,380
1,57,56,28
1,52,56,32
1,58,59,0
1,65,85,10
1,46,56,0
1,62,69,0
1,53,39,86
1,70,26,2
1,62,1,200
1,64,48,354
1,48,55,4
1,55,35,2
1,60,47,0
1,72,43,4
1,67,62,4
1,48,49,26
1,55,67,198
1,60,60,44
1,67,93,12
1,60,78,0
1,64,82,0
1,45,46,20
1,52,59,184
1,57,41,38
1,52,61,60
1,46,54,38
1,65,89,0
1,58,56,6
1,62,83,4
1,58,5,100
1,70,60,8
1,53,51,0
1,62,1,286
1,53,53,114
1,69,96,66
1,65,86,8
1,62,72,0
1,46,82,2
1,67,78,48
1,53,55,2
1,62,66,10
1,65,69,8
1,62,39,14
1,67,68,232
1,64,80,2
1,60,58,10
1,48,58,0
1,55,47,0
1,48,53,64
1,72,33,16
1,55,61,80
1,60,49,22
1,55,62,42
1,65,75,0
1,72,78,0
1,62,69,0
1,69,53,0
1,50,65,4
1,50,60,74
1,60,63,10
1,45,85,0
1,57,68,6
1,67,73,4
1,64,67,0
1,52,62,234
1,57,72,32
1,52,55,26
1,46,59,58
1,58,53,12
1,62,77,6
1,65,66,4
1,70,57,48
1,53,47,14
1,62,1,198
1,53,54,124
1,67,85,34
1,64,77,0
1,62,60,4
1,48,75,6
1,48,56,66
1,57,47,72
1,69,78,0
1,65,85,2
1,62,62,0
1,50,68,0
1,69,100,104
1,67,108,188
1,67,103,58
1,65,89,10
1,57,49,0
1,65,75,66
1,57,62,4
1,50,70,48
1,64,96,6
1,62,69,46
1,57,59,8
1,50,85,0
1,65,71,0
1,69,48,16
1,67,103,30
1,64,93,0
1,60,75,6
1,48,58,10
1,55,48,48
1,67,85,16
1,60,51,0
1,64,72,4
1,48,67,68
1,60,78,86
1,57,83,4
1,53,77,0
1,41,85,8
1,62,77,36
1,55,80,2
1,58,82,8
1,43,71,16
1,50,61,208
1,55,75,24
1,50,60,10
1,53,69,38
1,60,80,0
1,41,80,4
1,57,77,0
1,64,60,6
1,60,77,0
1,55,64,4
1,48,66,10
1,36,71,182
1,48,58,42
1,36,56,48
1,67,75,4
1,55,47,0
1,64,1,32
1,55,37,50
1,60,60,4
1,36,51,2
1,64,68,0
1,65,71,96
1,41,71,0
1,55,65,2
1,62,69,4
1,58,78,2
1,57,66,42
1,60,55,2
1,48,51,14
1,53,54,16
1,60,42,70
1,65,22,6
1,48,69,274
1,53,91,16
1,48,65,122
1,66,94,12
1,55,72,14
1,58,84,2
1,41,80,6
1,62,71,0
1,65,127,6
1,41,69,80
1,55,50,26
1,58,100,40
1,43,80,70
1,67,85,12
1,64,67,6
1,57,67,0
1,60,71,4
1,45,78,12
1,65,80,24
1,46,76,0
1,58,65,0
1,62,89,2
1,62,61,22
1,65,80,0
1,58,79,6
1,55,73,4
1,41,69,0
1,41,62,48
1,41,63,82
1,62,65,74
1,55,35,2
1,41,56,4
1,57,68,14
1,53,60,2
1,48,62,0
1,60,68,0
1,41,57,6
1,69,78,48
1,65,83,0
1,57,66,4
1,50,71,4
1,62,71,0
1,50,47,20
1,57,60,68
