track,note,velocity,time
3,65,80,4800
3,65,0,1152
3,65,80,288
3,65,0,96
3,63,80,24
3,63,0,96
3,60,80,24
3,60,0,96
3,60,80,24
3,60,0,96
3,60,80,24
3,60,0,96
3,58,80,24
3,58,0,96
3,58,80,24
3,58,0,192
3,65,80,48
3,65,0,96
3,63,80,24
3,63,0,96
3,60,80,24
3,60,0,96
3,60,80,24
3,60,0,96
3,60,80,24
3,60,0,96
3,60,80,24
3,60,0,96
3,60,80,24
3,60,0,96
3,60,80,24
3,60,0,96
3,62,80,24
3,62,0,96
3,58,80,24
3,58,0,48
3,58,80,12
3,58,0,48
3,60,80,12
3,60,0,96
3,58,80,24
3,58,0,96
3,65,80,384
3,65,0,792
3,65,80,288
3,65,0,96
3,63,80,24
3,63,0,96
3,60,80,24
3,60,0,96
3,60,80,24
3,60,0,96
3,60,80,24
3,60,0,192
3,60,80,48
3,60,0,192
3,65,80,48
3,65,0,96
3,63,80,24
3,63,0,96
3,60,80,24
3,60,0,96
3,60,80,24
3,60,0,96
3,60,80,24
3,60,0,192
3,60,80,168
3,60,0,96
3,62,80,24
3,62,0,96
3,58,80,24
3,58,0,48
3,58,80,12
3,58,0,48
3,60,80,12
3,60,0,96
3,58,80,24
3,58,0,96
3,58,80,384
3,58,0,984
3,55,80,216
3,55,0,96
3,58,80,24
3,58,0,96
3,58,80,24
3,58,0,96
3,51,80,24
3,51,0,96
3,51,80,24
3,51,0,96
3,51,80,24
3,51,0,96
3,51,80,24
3,51,0,96
3,55,80,144
3,55,0,96
3,58,80,24
3,58,0,96
3,58,80,24
3,58,0,96
3,57,80,24
3,57,0,96
3,57,80,24
3,57,0,96
3,57,80,144
3,57,0,96
3,60,80,24
3,60,0,96
3,58,80,24
3,58,0,96
3,57,80,24
3,57,0,96
3,58,80,24
3,58,0,96
3,58,80,384
3,58,0,984
3,55,80,216
3,55,0,96
3,58,80,24
3,58,0,96
3,58,80,24
3,58,0,96
3,51,80,24
3,51,0,96
3,51,80,24
3,51,0,96
3,51,80,24
3,51,0,96
3,51,80,24
3,51,0,96
3,55,80,144
3,55,0,96
3,58,80,24
3,58,0,96
3,57,80,24
3,57,0,96
3,57,80,24
3,57,0,96
3,57,80,24
3,57,0,288
3,58,80,192
3,58,0,96
3,60,80,24
3,60,0,96
3,58,80,24
3,58,0,96
3,62,80,24
3,62,0,288
3,62,80,72
3,62,0,216
3,60,80,24
3,60,0,96
3,60,80,24
3,60,0,96
3,60,80,24
3,60,0,96
3,60,80,24
3,60,0,96
3,58,80,24
3,58,0,192
3,58,80,48
3,58,0,96
3,60,80,144
3,60,0,96
3,58,80,24
3,58,0,96
3,62,80,24
3,62,0,120
3,62,80,0
3,62,0,96
3,62,80,24
3,62,0,288
3,60,80,192
3,60,0,96
3,60,80,24
3,60,0,96
3,60,80,24
3,60,0,216
3,58,80,24
3,58,0,96
3,58,80,24
3,58,0,192
3,58,80,48
3,58,0,192
3,62,80,408
3,62,0,96
3,62,80,24
3,62,0,48
3,62,80,12
3,62,0,48
3,62,80,12
3,62,0,240
3,60,80,0
3,60,0,96
3,60,80,24
3,60,0,96
3,58,80,24
3,58,0,96
3,60,80,24
3,60,0,96
3,58,80,24
3,58,0,192
3,58,80,48
3,58,0,96
3,60,80,144
3,60,0,96
3,60,80,24
3,60,0,96
3,58,80,24
3,58,0,96
3,60,80,24
3,60,0,192
3,60,80,48
3,60,0,192
3,60,80,48
3,60,0,192
3,60,80,48
3,60,0,96
3,58,80,24
3,58,0,96
3,62,80,24
3,62,0,96
3,60,80,24
3,60,0,120
3,58,80,0
3,58,0,96
3,60,80,24
3,60,0,96
3,58,80,144
3,58,0,48
3,58,80,12
3,58,0,48
3,60,80,12
3,60,0,96
3,58,80,24
3,58,0,96
3,65,80,384
3,65,0,792
3,65,80,288
3,65,0,96
3,63,80,24
3,63,0,96
3,62,80,24
3,62,0,96
3,60,80,24
3,60,0,96
3,60,80,24
3,60,0,96
3,58,80,24
3,58,0,96
3,58,80,24
3,58,0,192
3,65,80,48
3,65,0,96
3,63,80,24
3,63,0,96
3,60,80,24
3,60,0,96
3,60,80,24
3,60,0,96
3,60,80,24
3,60,0,96
3,60,80,24
3,60,0,96
3,60,80,24
3,60,0,96
3,60,80,24
3,60,0,96
3,62,80,24
3,62,0,96
3,58,80,24
3,58,0,48
3,58,80,12
3,58,0,48
3,60,80,12
3,60,0,96
3,58,80,24
3,58,0,96
3,65,80,384
3,65,0,792
3,65,80,288
3,65,0,96
3,63,80,24
3,63,0,96
3,62,80,24
3,62,0,96
3,60,80,24
3,60,0,96
3,60,80,24
3,60,0,192
3,60,80,48
3,60,0,192
3,65,80,48
3,65,0,96
3,63,80,24
3,63,0,96
3,60,80,24
3,60,0,96
3,60,80,24
3,60,0,96
3,60,80,24
3,60,0,192
3,60,80,168
3,60,0,96
3,62,80,24
3,62,0,96
3,58,80,24
3,58,0,48
3,58,80,12
3,58,0,48
3,60,80,12
3,60,0,96
3,58,80,24
3,58,0,96
3,58,80,384
3,58,0,984
3,55,80,216
3,55,0,96
3,58,80,24
3,58,0,96
3,58,80,24
3,58,0,96
3,51,80,24
3,51,0,96
3,51,80,24
3,51,0,96
3,51,80,24
3,51,0,96
3,51,80,24
3,51,0,96
3,55,80,144
3,55,0,96
3,58,80,24
3,58,0,96
3,58,80,24
3,58,0,96
3,57,80,24
3,57,0,96
3,57,80,24
3,57,0,216
3,60,80,144
3,60,0,96
3,58,80,24
3,58,0,96
3,57,80,24
3,57,0,96
3,58,80,24
3,58,0,96
3,58,80,384
3,58,0,984
3,55,80,216
3,55,0,96
3,58,80,24
3,58,0,96
3,58,80,24
3,58,0,96
3,51,80,24
3,51,0,96
3,51,80,24
3,51,0,96
3,51,80,24
3,51,0,96
3,51,80,24
3,51,0,96
3,55,80,144
3,55,0,96
3,58,80,24
3,58,0,96
3,57,80,24
3,57,0,96
3,57,80,24
3,57,0,96
3,57,80,24
3,57,0,192
3,58,80,48
3,58,0,96
3,60,80,24
3,60,0,96
3,58,80,24
3,58,0,96
3,57,80,24
3,57,0,96
3,58,80,24
3,58,0,96
3,62,80,24
3,62,0,192
3,62,80,48
3,62,0,192
3,62,80,48
3,62,0,96
3,60,80,24
3,60,0,192
3,60,80,48
3,60,0,48
3,58,80,12
3,58,0,48
3,60,80,12
3,60,0,96
3,58,80,24
3,58,0,192
3,58,80,48
3,58,0,312
3,62,80,408
3,62,0,96
3,62,80,24
3,62,0,48
3,62,80,12
3,62,0,48
3,62,80,12
3,62,0,240
3,60,80,0
3,60,0,96
3,60,80,24
3,60,0,96
3,58,80,24
3,58,0,96
3,60,80,24
3,60,0,96
3,58,80,24
3,58,0,96
3,58,80,24
3,58,0,384
3,62,80,456
3,62,0,96
3,62,80,24
3,62,0,96
3,62,80,24
3,62,0,96
3,62,80,24
3,62,0,120
3,60,80,0
3,60,0,96
3,60,80,24
3,60,0,96
3,58,80,24
3,58,0,96
3,60,80,24
3,60,0,96
3,58,80,24
3,58,0,192
3,58,80,48
3,58,0,216
3,60,80,24
3,60,0,96
3,60,80,24
3,60,0,96
3,58,80,24
3,58,0,96
3,60,80,24
3,60,0,96
3,60,80,24
3,60,0,96
3,58,80,24
3,58,0,96
3,60,80,24
3,60,0,312
3,58,80,168
3,58,0,96
3,60,80,24
3,60,0,96
3,60,80,24
3,60,0,96
3,58,80,24
3,58,0,96
3,60,80,24
3,60,0,216
3,58,80,24
3,58,0,48
3,58,80,12
3,58,0,48
3,60,80,12
3,60,0,96
3,58,80,24
3,58,0,96
3,65,80,384
3,65,0,792
3,65,80,288
3,65,0,96
3,63,80,24
3,63,0,96
3,62,80,24
3,62,0,96
3,60,80,24
3,60,0,96
3,60,80,24
3,60,0,96
3,58,80,24
3,58,0,96
3,58,80,24
3,58,0,192
3,65,80,48
3,65,0,96
3,63,80,24
3,63,0,96
3,60,80,24
3,60,0,96
3,60,80,24
3,60,0,96
3,60,80,24
3,60,0,96
3,60,80,24
3,60,0,96
3,60,80,24
3,60,0,96
3,60,80,24
3,60,0,96
3,62,80,24
3,62,0,96
3,58,80,24
3,58,0,48
3,58,80,12
3,58,0,48
3,60,80,12
3,60,0,96
3,58,80,24
3,58,0,96
3,65,80,384
3,65,0,792
3,65,80,288
3,65,0,96
3,63,80,24
3,63,0,96
3,62,80,24
3,62,0,96
3,60,80,24
3,60,0,96
3,60,80,24
3,60,0,192
3,60,80,48
3,60,0,192
3,65,80,48
3,65,0,96
3,63,80,24
3,63,0,96
3,60,80,24
3,60,0,96
3,60,80,24
3,60,0,96
3,60,80,24
3,60,0,192
3,60,80,168
3,60,0,96
3,62,80,24
3,62,0,96
3,58,80,24
3,58,0,48
3,58,80,12
3,58,0,48
3,60,80,12
3,60,0,96
3,58,80,24
3,58,0,96
3,70,80,2544
3,70,0,192
3,68,80,48
3,68,0,168
3,70,80,12
3,70,0,144
3,65,80,36
3,65,0,1104
3,70,80,216
3,70,0,168
3,68,80,12
3,68,0,144
3,70,80,36
3,70,0,192
3,65,80,48
3,65,0,192
3,70,80,168
3,70,0,168
3,65,80,12
3,65,0,144
3,65,80,36
3,65,0,1344
3,65,80,216
3,65,0,48
3,65,80,12
3,65,0,48
3,65,80,12
3,65,0,96
3,65,80,24
3,65,0,96
3,65,80,24
3,65,0,180
3,62,80,0
3,62,0,60
3,60,80,0
3,60,0,1296
3,64,80,8424
3,64,0,216
3,62,80,24
3,62,0,96
3,62,80,24
3,62,0,96
3,62,80,24
3,62,0,96
3,62,80,24
3,62,0,96
3,60,80,24
3,60,0,192
3,60,80,48
3,60,0,96
3,62,80,144
3,62,0,96
3,60,80,24
3,60,0,96
3,64,80,24
3,64,0,216
3,64,80,24
3,64,0,288
3,62,80,192
3,62,0,96
3,62,80,24
3,62,0,96
3,62,80,24
3,62,0,216
3,60,80,24
3,60,0,96
3,60,80,24
3,60,0,192
3,60,80,48
3,60,0,192
3,64,80,408
3,64,0,96
3,64,80,24
3,64,0,48
3,64,80,12
3,64,0,48
3,64,80,12
3,64,0,240
3,62,80,0
3,62,0,96
3,62,80,24
3,62,0,96
3,60,80,24
3,60,0,96
3,62,80,24
3,62,0,96
3,60,80,24
3,60,0,192
3,60,80,48
3,60,0,96
3,62,80,144
3,62,0,96
3,62,80,24
3,62,0,96
3,60,80,24
3,60,0,96
3,62,80,24
3,62,0,192
3,62,80,48
3,62,0,192
3,62,80,48
3,62,0,192
3,62,80,48
3,62,0,96
3,60,80,24
3,60,0,96
3,64,80,24
3,64,0,96
3,62,80,24
3,62,0,120
3,60,80,0
3,60,0,96
3,62,80,24
3,62,0,96
3,60,80,144
3,60,0,48
3,60,80,12
3,60,0,48
3,62,80,12
3,62,0,96
3,60,80,24
3,60,0,96
3,65,80,384
3,65,0,600
3,70,80,240
3,70,0,96
3,69,80,24
3,69,0,120
3,65,80,0
3,65,0,96
3,65,80,24
3,65,0,360
3,70,80,240
3,70,0,96
3,69,80,24
3,69,0,120
3,65,80,0
3,65,0,96
3,65,80,24
3,65,0,552
3,65,80,168
3,65,0,96
3,65,80,24
3,65,0,96
3,63,80,24
3,63,0,48
3,63,80,12
3,63,0,48
3,62,80,12
3,62,0,96
3,63,80,24
3,63,0,120
3,65,80,360
3,65,0,600
3,70,80,240
3,70,0,96
3,69,80,24
3,69,0,120
3,65,80,0
3,65,0,96
3,65,80,24
3,65,0,360
3,70,80,240
3,70,0,96
3,69,80,24
3,69,0,120
3,65,80,0
3,65,0,96
3,65,80,24
3,65,0,552
3,65,80,168
3,65,0,96
3,65,80,24
3,65,0,96
3,63,80,24
3,63,0,48
3,63,80,12
3,63,0,48
3,62,80,12
3,62,0,96
3,63,80,24
3,63,0,96
3,65,80,384
3,65,0,792
3,65,80,288
3,65,0,96
3,63,80,24
3,63,0,96
3,62,80,24
3,62,0,96
3,60,80,24
3,60,0,96
3,60,80,24
3,60,0,96
3,58,80,24
3,58,0,96
3,58,80,24
3,58,0,192
3,65,80,48
3,65,0,96
3,63,80,24
3,63,0,96
3,60,80,24
3,60,0,96
3,60,80,24
3,60,0,96
3,60,80,24
3,60,0,96
3,60,80,24
3,60,0,96
3,60,80,24
3,60,0,96
3,60,80,24
3,60,0,96
3,62,80,24
3,62,0,96
3,58,80,24
3,58,0,48
3,58,80,12
3,58,0,48
3,60,80,12
3,60,0,96
3,58,80,24
3,58,0,96
3,65,80,384
3,65,0,792
3,65,80,288
3,65,0,96
3,63,80,24
3,63,0,96
3,62,80,24
3,62,0,96
3,60,80,24
3,60,0,96
3,60,80,24
3,60,0,192
3,60,80,48
3,60,0,192
3,65,80,48
3,65,0,96
3,63,80,24
3,63,0,96
3,60,80,24
3,60,0,96
3,60,80,24
3,60,0,96
3,60,80,24
3,60,0,192
3,60,80,168
3,60,0,96
3,62,80,24
3,62,0,96
3,58,80,24
3,58,0,48
3,58,80,12
3,58,0,48
3,60,80,12
3,60,0,96
3,58,80,24
3,58,0,96
3,67,80,384
3,67,0,600
3,72,80,240
3,72,0,96
3,71,80,24
3,71,0,120
3,67,80,0
3,67,0,96
3,67,80,24
3,67,0,360
3,72,80,240
3,72,0,96
3,71,80,24
3,71,0,120
3,67,80,0
3,67,0,96
3,67,80,24
3,67,0,552
3,67,80,168
3,67,0,96
3,67,80,24
3,67,0,96
3,65,80,24
3,65,0,48
3,65,80,12
3,65,0,48
3,64,80,12
3,64,0,96
3,65,80,24
3,65,0,120
3,67,80,360
3,67,0,600
3,72,80,240
3,72,0,96
3,71,80,24
3,71,0,120
3,67,80,0
3,67,0,96
3,67,80,24
3,67,0,360
3,72,80,240
3,72,0,96
3,71,80,24
3,71,0,120
3,67,80,0
3,67,0,96
3,67,80,24
3,67,0,552
3,67,80,168
3,67,0,96
3,67,80,24
3,67,0,96
3,65,80,24
3,65,0,48
3,65,80,12
3,65,0,48
3,64,80,12
3,64,0,96
3,65,80,24
3,65,0,120
3,55,80,360
3,55,0,96
3,60,80,24
3,60,0,96
3,62,80,24
3,62,0,96
3,60,80,24
3,60,0,96
3,62,80,24
3,62,0,96
3,64,80,24
3,64,0,96
3,60,80,24
3,60,0,192
3,60,80,48
3,60,0,216
3,62,80,24
3,62,0,96
3,60,80,24
3,60,0,96
3,62,80,24
3,62,0,96
3,64,80,24
3,64,0,120
3,62,80,0
3,62,0,96
3,62,80,24
3,62,0,384
3,64,80,96
3,64,0,120
3,62,80,0
3,62,0,96
3,62,80,24
3,62,0,768
3,64,80,192
3,64,0,2880
4,70,80,4800
4,72,80,0
4,77,80,0
4,77,0,192
4,72,0,0
4,70,0,0
4,74,80,48
4,82,80,0
4,82,0,96
4,74,0,0
4,72,80,24
4,81,80,0
4,81,0,216
4,72,0,0
4,77,80,24
4,69,80,0
4,69,0,288
4,77,0,0
4,70,80,72
4,72,80,0
4,77,80,0
4,77,0,768
4,72,0,0
4,70,0,0
4,70,80,192
4,72,80,0
4,75,80,0
4,77,80,0
4,77,0,288
4,70,0,0
4,72,0,0
4,75,0,0
4,77,80,72
4,75,80,0
4,70,80,0
4,72,80,0
4,72,0,504
4,77,0,0
4,75,0,0
4,70,0,0
4,72,80,96
4,70,80,0
4,77,80,0
4,77,0,768
4,70,0,0
4,72,0,0
4,70,80,192
4,72,80,0
4,77,80,0
4,77,0,288
4,72,0,0
4,70,0,0
4,77,80,72
4,72,80,0
4,70,80,0
4,70,0,792
4,72,0,0
4,77,0,0
4,82,80,48
4,74,80,0
4,74,0,96
4,82,0,0
4,81,80,24
4,72,80,0
4,72,0,216
4,81,0,0
4,69,80,24
4,77,80,0
4,77,0,288
4,69,0,0
4,77,80,72
4,72,80,0
4,70,80,0
4,70,0,768
4,72,0,0
4,77,0,0
4,77,80,192
4,72,80,0
4,70,80,0
4,70,0,768
4,72,0,0
4,77,0,0
4,77,80,15552
4,72,80,0
4,70,80,0
4,70,0,288
4,72,0,0
4,77,0,0
4,70,80,72
4,72,80,0
4,77,80,0
4,77,0,792
