track,note,velocity,time
0,37,121,1
0,37,0,4
0,37,83,168
0,37,0,16
0,37,76,176
0,37,0,16
0,37,83,176
0,37,0,16
0,33,127,176
0,45,127,0
0,57,127,0
0,60,127,0
0,64,127,0
0,64,127,160
0,65,127,56
0,67,100,18
0,67,127,56
0,64,73,13
0,64,127,0
0,65,73,55
0,65,127,0
0,53,127,1
0,57,127,0
0,60,127,0
0,67,46,0
0,67,127,0
0,67,73,56
0,67,127,0
0,64,73,13
0,67,127,0
0,64,127,25
0,65,73,0
0,55,127,1
0,59,127,0
0,62,127,0
0,67,73,0
0,69,127,0
0,67,73,59
0,67,73,25
0,67,127,0
0,64,73,25
0,57,127,1
0,60,127,0
0,64,127,0
0,69,73,0
0,67,73,25
0,67,127,0
0,65,127,11
0,64,127,192
0,67,73,0
0,53,127,1
0,57,127,0
0,60,127,0
0,62,127,0
0,65,73,0
0,62,127,61
0,64,73,0
0,60,127,2
0,55,127,1
0,59,127,0
0,62,73,0
0,62,127,0
0,62,127,0
0,64,126,32
0,62,73,48
0,64,127,0
0,60,73,2
0,57,127,1
0,60,127,0
0,62,73,0
0,64,123,0
0,64,72,32
0,64,73,48
0,64,127,0
0,65,127,56
0,67,100,18
0,67,127,56
0,64,73,13
0,64,127,0
0,65,73,55
0,65,127,0
0,53,127,1
0,57,127,0
0,60,127,0
0,67,46,0
0,67,127,0
0,67,73,56
0,67,127,0
0,64,73,13
0,67,127,0
0,64,127,25
0,65,73,0
0,55,126,1
0,59,127,0
0,62,127,0
0,67,73,0
0,69,127,0
0,67,73,59
0,67,73,25
0,67,127,0
0,64,73,25
0,57,123,1
0,60,127,0
0,64,120,0
0,69,73,0
0,67,73,25
0,67,127,0
0,65,127,11
0,64,127,192
0,67,73,0
0,53,127,1
0,57,127,0
0,60,127,0
0,62,127,0
0,65,73,0
0,62,127,61
0,64,73,0
0,60,127,2
0,55,123,1
0,59,127,0
0,62,73,0
0,62,127,0
0,62,117,0
0,64,126,32
0,62,73,48
0,64,127,0
0,60,73,2
0,45,0,0
0,33,127,1
0,42,127,0
0,45,127,0
0,57,127,0
0,60,127,0
0,64,127,0
0,82,77,0
0,42,0,13
0,42,70,35
0,42,0,19
0,82,0,1
0,46,89,28
0,46,0,13
0,46,127,35
0,46,0,18
0,42,127,30
0,64,127,0
0,82,77,0
0,42,0,13
0,64,0,19
0,82,0,14
0,42,76,2
0,42,0,23
0,46,96,25
0,65,127,0
0,46,0,8
0,46,127,40
0,46,0,17
0,65,0,14
0,42,127,17
0,67,117,0
0,82,77,0
0,42,0,16
0,67,0,15
0,82,0,7
0,42,76,10
0,42,0,23
0,46,96,25
0,67,127,0
0,46,0,9
0,46,127,39
0,46,0,19
0,67,0,12
0,42,127,17
0,64,72,0
0,64,126,0
0,82,77,0
0,42,0,14
0,64,0,13
0,82,0,4
0,64,0,1
0,42,70,16
0,42,0,22
0,46,102,26
0,65,72,0
0,65,127,0
0,46,0,8
0,46,127,40
0,46,0,18
0,65,0,13
0,65,0,4
0,42,127,1
0,53,127,0
0,57,127,0
0,60,127,0
0,67,62,0
0,67,127,0
0,82,77,0
0,42,0,14
0,82,0,9
0,67,0,8
0,67,0,9
0,42,83,8
0,42,0,25
0,46,102,23
0,67,72,0
0,67,127,0
0,46,0,9
0,67,0,28
0,46,127,11
0,46,0,17
0,67,0,14
0,42,127,17
0,64,71,0
0,67,123,0
0,82,77,0
0,42,0,10
0,64,0,17
0,82,0,7
0,67,0,13
0,42,76,1
0,42,0,20
0,46,96,28
0,65,72,0
0,67,117,0
0,46,0,11
0,46,127,37
0,67,0,1
0,46,0,20
0,65,0,14
0,42,127,1
0,55,127,0
0,59,127,0
0,62,127,0
0,67,72,0
0,72,127,0
0,82,77,0
0,42,0,16
0,82,0,15
0,67,0,9
0,42,76,8
0,42,0,18
0,46,102,30
0,67,72,0
0,46,0,11
0,67,0,26
0,46,127,11
0,46,0,19
0,72,0,26
0,42,127,3
0,67,68,0
0,71,127,0
0,82,77,0
0,42,0,7
0,82,0,22
0,67,0,18
0,42,70,1
0,42,0,21
0,46,96,27
0,67,62,0
0,46,0,14
0,46,127,34
0,67,0,1
0,46,0,17
0,42,127,1
0,57,127,0
0,60,127,0
0,64,127,0
0,72,72,0
0,82,77,0
0,42,0,13
0,71,0,22
0,42,70,13
0,42,0,19
0,82,0,1
0,46,89,28
0,67,113,0
0,46,0,13
0,46,127,35
0,46,0,18
0,72,0,27
0,42,127,3
0,64,127,0
0,71,72,0
0,82,77,0
0,42,0,13
0,64,0,16
0,82,0,17
0,42,76,2
0,42,0,23
0,46,96,25
0,65,127,0
0,46,0,8
0,46,127,40
0,67,0,0
0,46,0,17
0,65,0,16
0,42,127,15
0,67,111,0
0,82,77,0
0,42,0,16
0,67,0,12
0,71,0,7
0,82,0,3
0,42,76,10
0,42,0,23
0,46,96,25
0,67,58,0
0,67,127,0
0,46,0,9
0,46,127,39
0,46,0,19
0,67,0,15
0,42,127,14
0,64,72,0
0,64,120,0
0,82,77,0
0,42,0,14
0,64,0,15
0,82,0,2
0,64,0,1
0,42,70,16
0,42,0,22
0,46,102,26
0,65,72,0
0,65,127,0
0,46,0,8
0,46,127,40
0,67,0,0
0,46,0,18
0,65,0,15
0,65,0,1
0,42,127,1
0,53,127,0
0,57,127,0
0,60,127,0
0,67,56,0
0,67,127,0
0,82,77,0
0,42,0,14
0,82,0,9
0,67,0,5
0,67,0,8
0,42,83,12
0,42,0,25
0,46,102,23
0,67,72,0
0,67,127,0
0,46,0,9
0,67,0,36
0,46,127,3
0,46,0,17
0,67,0,17
0,42,127,14
0,64,65,0
0,67,121,0
0,82,77,0
0,42,0,10
0,64,0,22
0,82,0,2
0,42,76,14
0,67,0,5
0,42,0,15
0,46,96,28
0,65,72,0
0,67,103,0
0,46,0,11
0,67,0,36
0,46,127,1
0,46,0,21
0,65,0,13
0,42,127,1
0,55,127,0
0,59,127,0
0,62,127,0
0,67,72,0
0,72,127,0
0,82,77,0
0,42,0,16
0,82,0,15
0,67,0,5
0,42,76,12
0,42,0,18
0,46,102,30
0,67,72,0
0,46,0,11
0,67,0,34
0,46,127,3
0,46,0,19
0,72,0,24
0,42,127,5
0,67,66,0
0,71,123,0
0,82,77,0
0,42,0,7
0,82,0,22
0,42,70,19
0,67,0,5
0,42,0,16
0,46,96,27
0,67,48,0
0,46,0,14
0,67,0,33
0,46,127,1
0,46,0,18
0,42,127,1
0,57,127,0
0,60,127,0
0,64,123,0
0,70,102,0
0,72,72,0
0,82,77,0
0,42,0,13
0,70,0,0
0,71,0,30
0,42,70,5
0,70,45,0
0,42,0,19
0,70,0,0
0,82,0,1
0,46,89,28
0,67,127,0
0,70,64,0
0,46,0,13
0,70,0,0
0,46,127,35
0,70,102,0
0,46,0,18
0,70,0,0
0,72,0,25
0,42,127,5
0,64,127,0
0,70,102,0
0,71,68,0
0,82,77,0
0,42,0,13
0,70,0,0
0,64,0,19
0,82,0,14
0,42,76,2
0,70,51,0
0,42,0,23
0,70,0,0
0,46,96,25
0,65,127,0
0,70,71,0
0,46,0,8
0,70,0,0
0,67,0,15
0,46,127,25
0,70,102,0
0,46,0,17
0,70,0,0
0,65,0,14
0,42,127,17
0,67,117,0
0,70,102,0
0,82,77,0
0,42,0,16
0,70,0,0
0,67,0,15
0,82,0,7
0,71,0,5
0,42,76,5
0,70,51,0
0,42,0,23
0,70,0,0
0,46,96,25
0,67,72,0
0,67,127,0
0,70,71,0
0,46,0,9
0,70,0,0
0,46,127,39
0,70,102,0
0,46,0,19
0,70,0,0
0,67,0,12
0,42,127,17
0,64,72,0
0,64,126,0
0,70,102,0
0,82,77,0
0,42,0,14
0,70,0,0
0,64,0,13
0,82,0,4
0,64,0,1
0,42,70,16
0,70,45,0
0,42,0,22
0,70,0,0
0,46,102,26
0,65,72,0
0,65,127,0
0,70,77,0
0,46,0,8
0,70,0,0
0,67,0,15
0,46,127,25
0,70,102,0
0,46,0,18
0,70,0,0
0,65,0,13
0,65,0,4
0,42,127,1
0,53,127,0
0,57,127,0
0,60,127,0
0,67,62,0
0,67,127,0
0,70,102,0
0,82,77,0
0,42,0,14
0,70,0,0
0,82,0,9
0,67,0,8
0,67,0,9
0,42,83,8
0,70,58,0
0,42,0,25
0,70,0,0
0,46,102,23
0,67,72,0
0,67,127,0
0,70,77,0
0,46,0,9
0,70,0,0
0,46,127,39
0,70,102,0
0,67,0,3
0,46,0,14
0,70,0,0
0,67,0,14
0,42,127,17
0,64,71,0
0,67,113,0
0,70,102,0
0,82,77,0
0,42,0,10
0,70,0,0
0,64,0,17
0,82,0,7
0,67,0,10
0,42,76,4
0,70,51,0
0,42,0,20
0,70,0,0
0,46,96,28
0,65,72,0
0,67,100,0
0,70,71,0
0,46,0,11
0,70,0,0
0,67,0,35
0,46,127,2
0,70,102,0
0,46,0,21
0,70,0,0
0,65,0,14
0,42,127,1
0,55,126,0
0,59,127,0
0,62,127,0
0,67,72,0
0,70,102,0
0,72,120,0
0,82,77,0
0,42,0,16
0,70,0,0
0,82,0,15
0,67,0,9
0,42,76,8
0,70,51,0
0,42,0,18
0,70,0,0
0,46,102,30
0,67,72,0
0,70,77,0
0,46,0,11
0,70,0,0
0,46,127,37
0,70,102,0
0,67,0,3
0,46,0,16
0,70,0,0
0,42,127,29
0,67,58,0
0,70,102,0
0,71,100,0
0,82,77,0
0,72,0,1
0,42,0,6
0,70,0,0
0,82,0,22
0,67,0,15
0,42,70,4
0,70,45,0
0,42,0,21
0,70,0,0
0,46,96,27
0,67,45,0
0,70,71,0
0,46,0,14
0,70,0,0
0,67,0,32
0,46,127,2
0,70,102,0
0,46,0,18
0,70,0,0
0,42,127,1
0,57,123,0
0,60,127,0
0,64,120,0
0,70,102,0
0,72,65,0
0,82,77,0
0,42,0,13
0,70,0,0
0,42,70,35
0,70,45,0
0,42,0,19
0,70,0,0
0,82,0,1
0,71,0,7
0,46,89,21
0,69,89,0
0,70,64,0
0,46,0,13
0,70,0,0
0,46,127,35
0,70,102,0
0,46,0,18
0,70,0,0
0,42,127,30
0,64,127,0
0,70,102,0
0,71,45,0
0,82,77,0
0,72,0,1
0,42,0,12
0,70,0,0
0,64,0,16
0,82,0,17
0,42,76,2
0,70,51,0
0,42,0,23
0,70,0,0
0,46,96,25
0,65,127,0
0,70,71,0
0,46,0,8
0,70,0,0
0,46,127,40
0,70,102,0
0,46,0,17
0,70,0,0
0,65,0,16
0,42,127,15
0,67,111,0
0,70,102,0
0,82,77,0
0,42,0,16
0,70,0,0
0,67,0,12
0,82,0,10
0,42,76,10
0,70,51,0
0,42,0,23
0,70,0,0
0,71,0,4
0,46,96,21
0,67,127,0
0,69,34,0
0,70,71,0
0,46,0,9
0,70,0,0
0,46,127,39
0,70,102,0
0,46,0,19
0,70,0,0
0,67,0,15
0,69,0,13
0,42,127,1
0,64,72,0
0,64,120,0
0,70,102,0
0,82,77,0
0,42,0,14
0,70,0,0
0,64,0,15
0,82,0,2
0,64,0,1
0,42,70,16
0,70,45,0
0,42,0,22
0,70,0,0
0,46,102,26
0,65,72,0
0,65,127,0
0,70,77,0
0,46,0,8
0,70,0,0
0,46,127,40
0,70,102,0
0,46,0,3
0,70,0,0
0,65,0,15
0,65,0,1
0,42,127,1
0,53,127,0
0,57,127,0
0,60,127,0
0,67,56,0
0,67,127,0
0,70,102,0
0,74,127,0
0,81,127,0
0,82,77,0
0,86,127,0
0,42,0,14
0,70,0,0
0,82,0,8
0,67,0,5
0,67,0,6
0,42,83,12
0,70,58,0
0,42,0,13
0,70,0,0
0,46,102,20
0,67,72,0
0,67,127,0
0,70,77,0
0,46,0,4
0,70,0,0
0,67,0,23
0,46,127,3
0,70,102,0
0,46,0,11
0,70,0,0
0,67,0,10
0,69,0,6
0,42,127,1
0,64,65,0
0,70,102,0
0,82,77,0
0,42,0,0
0,70,0,0
0,64,0,22
0,82,0,2
0,42,76,10
0,70,51,0
0,42,0,13
0,70,0,0
0,46,96,7
0,65,72,0
0,70,71,0
0,46,0,1
0,70,0,0
0,46,127,1
0,70,102,0
0,46,0,21
0,70,0,0
0,65,0,13
0,42,127,1
0,55,123,0
0,59,127,0
0,62,117,0
0,67,72,0
0,70,102,0
0,82,77,0
0,42,0,16
0,70,0,0
0,82,0,15
0,67,0,5
0,42,76,9
0,70,51,0
0,42,0,18
0,70,0,0
0,46,102,30
0,67,72,0
0,70,77,0
0,46,0,11
0,70,0,0
0,67,0,34
0,46,127,3
0,70,102,0
0,46,0,19
0,70,0,0
0,27,127,29
0,28,127,0
0,39,127,0
0,42,127,0
0,70,102,0
0,82,77,0
0,42,0,7
0,70,0,0
0,27,0,9
0,39,0,0
0,82,0,13
0,28,0,19
0,45,0,0
0,33,127,1
0,36,127,0
0,42,127,0
0,45,127,0
0,70,127,0
0,82,77,0
0,42,0,13
0,70,0,0
0,42,70,35
0,70,70,0
0,42,0,19
0,70,0,0
0,82,0,1
0,45,106,1
0,46,89,0
0,57,127,0
0,70,89,0
0,46,0,13
0,70,0,0
0,36,0,2
0,45,119,0
0,46,127,0
0,70,127,0
0,46,0,18
0,70,0,0
0,28,97,3
0,33,127,0
0,36,127,0
0,42,127,0
0,45,127,0
0,70,127,0
0,82,77,0
0,42,0,1
0,70,0,0
0,82,0,33
0,42,76,2
0,70,76,0
0,42,0,23
0,70,0,0
0,45,108,1
0,46,96,0
0,57,127,0
0,70,96,0
0,46,0,8
0,70,0,0
0,36,0,4
0,45,121,0
0,46,127,0
0,70,127,0
0,46,0,17
0,70,0,0
0,33,127,1
0,36,127,0
0,42,127,0
0,45,127,0
0,70,127,0
0,82,77,0
0,28,0,3
0,42,0,13
0,70,0,0
0,82,0,14
0,42,76,10
0,70,76,0
0,42,0,23
0,70,0,0
0,45,106,1
0,46,96,0
0,57,127,0
0,70,96,0
0,46,0,9
0,70,0,0
0,36,0,6
0,45,125,11
0,46,127,0
0,70,127,0
0,46,0,19
0,70,0,0
0,28,97,4
0,33,127,0
0,36,127,0
0,42,127,0
0,45,127,0
0,70,127,0
0,82,77,0
0,42,0,14
0,70,0,0
0,82,0,5
0,42,70,17
0,70,70,0
0,42,0,22
0,70,0,0
0,45,108,1
0,46,102,0
0,57,127,0
0,70,102,0
0,46,0,8
0,70,0,0
0,36,0,9
0,45,122,28
0,46,127,0
0,70,127,0
0,46,0,4
0,70,0,0
0,29,127,1
0,36,127,0
0,42,127,0
0,48,127,0
0,70,127,0
0,82,77,0
0,28,0,9
0,42,0,5
0,70,0,0
0,82,0,7
0,42,83,25
0,70,83,0
0,42,0,25
0,70,0,0
0,41,107,1
0,46,102,0
0,60,127,0
0,70,102,0
0,46,0,9
0,70,0,0
0,36,0,11
0,41,125,28
0,46,127,0
0,70,127,0
0,46,0,15
0,70,0,0
0,28,97,6
0,29,127,0
0,36,127,0
0,42,127,0
0,48,127,0
0,70,127,0
0,82,77,0
0,42,0,10
0,70,0,0
0,82,0,2
0,42,76,14
0,70,76,0
0,42,0,20
0,70,0,0
0,41,103,1
0,46,96,0
0,60,127,0
0,70,96,0
0,36,0,11
0,46,0,0
0,70,0,0
0,41,122,28
0,46,127,0
0,70,127,0
0,46,0,21
0,70,0,0
0,28,0,2
0,29,127,1
0,36,127,0
0,41,127,0
0,42,127,0
0,70,127,0
0,82,77,0
0,42,0,16
0,70,0,0
0,82,0,4
0,42,76,17
0,70,76,0
0,42,0,18
0,70,0,0
0,43,107,1
0,46,102,0
0,53,127,0
0,70,102,0
0,46,0,11
0,70,0,0
0,36,0,6
0,43,121,3
0,46,127,0
0,70,127,0
0,46,0,19
0,70,0,0
0,28,127,3
0,28,97,0
0,36,127,0
0,42,127,0
0,43,127,0
0,70,127,0
0,82,77,0
0,42,0,7
0,70,0,0
0,82,0,7
0,42,70,19
0,70,70,0
0,42,0,21
0,70,0,0
0,40,109,1
0,46,96,0
0,55,127,0
0,70,96,0
0,46,0,14
