track,note,velocity,time
1,42,61,728
1,42,59,45
1,46,53,52
1,42,64,51
1,36,99,0
1,36,95,129
1,85,99,51
1,42,64,0
1,54,99,0
1,70,99,0
1,54,67,132
1,42,64,48
1,54,99,0
1,36,99,0
1,42,64,132
1,85,99,50
1,42,64,0
1,54,99,0
1,70,99,0
1,36,99,128
1,54,99,0
1,42,64,45
1,36,99,135
1,85,99,50
1,42,64,0
1,54,95,0
1,70,99,0
1,54,99,131
1,36,99,48
1,42,64,1
1,42,53,131
1,85,99,50
1,42,64,0
1,54,99,0
1,70,99,0
1,54,99,130
1,42,64,48
1,36,99,0
1,36,95,128
1,85,99,53
1,42,64,0
1,54,99,0
1,70,99,0
1,54,67,131
1,42,64,50
1,54,99,0
1,36,99,0
1,42,64,126
1,85,99,54
1,42,64,0
1,54,99,0
1,70,99,0
1,36,99,130
1,54,99,0
1,42,64,48
1,36,99,128
1,85,99,53
1,42,64,0
1,54,95,0
1,70,99,0
1,54,99,131
1,42,64,48
1,36,99,0
1,42,53,132
1,85,99,50
1,42,64,0
1,54,99,0
1,70,99,0
1,54,99,130
1,42,64,48
1,36,83,0
1,49,99,0
1,42,64,132
1,36,83,0
1,54,83,46
1,38,99,3
1,42,53,131
1,54,63,0
1,42,64,50
1,36,99,0
1,54,91,0
1,42,64,130
1,54,99,45
1,38,99,1
1,42,48,134
1,36,83,0
1,42,64,48
1,42,64,132
1,36,99,0
1,38,99,50
1,54,99,0
1,42,48,130
1,42,64,48
1,36,99,0
1,42,64,132
1,54,99,46
1,38,99,4
1,42,64,129
1,42,64,50
1,36,83,0
1,42,64,131
1,36,83,0
1,38,99,50
1,54,87,0
1,42,53,129
1,54,40,0
1,42,64,51
1,36,99,0
1,54,63,0
1,42,64,130
1,54,99,50
1,38,99,0
1,36,83,129
1,42,48,1
1,42,64,50
1,42,64,130
1,36,99,0
1,54,99,49
1,38,99,1
1,42,48,130
1,42,64,48
1,36,99,0
1,42,64,131
1,38,99,50
1,54,99,0
1,42,64,131
1,42,64,53
1,36,83,0
1,42,64,127
1,36,83,0
1,38,99,50
1,54,99,0
1,42,53,130
1,54,43,0
1,42,64,50
1,36,99,0
1,54,59,0
1,42,64,130
1,54,99,50
1,38,99,0
1,42,48,130
1,36,83,0
1,42,64,48
1,42,64,132
1,36,99,0
1,38,99,49
1,54,99,0
1,42,48,130
1,42,64,51
1,36,99,0
1,42,64,129
1,38,99,51
1,54,99,0
1,42,64,130
1,42,64,48
1,36,83,0
1,42,64,132
1,36,83,0
1,54,99,49
1,38,99,1
1,54,40,129
1,42,53,1
1,54,83,50
1,42,64,3
1,36,99,0
1,42,64,127
1,54,99,49
1,38,99,1
1,42,48,130
1,36,83,0
1,42,64,53
1,42,64,126
1,36,99,0
1,38,99,51
1,54,91,0
1,42,48,130
1,36,99,49
1,42,64,4
1,42,64,127
1,54,95,49
1,38,99,1
1,42,64,130
1,42,64,53
1,36,83,0
1,42,64,127
1,36,83,0
1,38,99,50
1,54,99,0
1,42,53,130
1,54,40,0
1,54,59,46
1,42,64,2
1,36,99,0
1,42,64,135
1,54,99,46
1,38,99,0
1,42,48,130
1,36,83,0
1,42,64,51
1,42,64,133
1,36,99,0
1,38,99,47
1,54,99,0
1,42,48,130
1,42,64,50
1,36,99,0
1,42,64,130
1,38,99,50
1,54,99,0
1,42,64,130
1,42,64,48
1,36,83,0
1,42,64,132
1,36,83,0
1,38,99,50
1,54,99,0
1,54,47,126
1,42,53,3
1,42,64,50
1,36,99,0
1,54,83,0
1,42,64,130
1,54,99,46
1,38,99,1
1,42,48,134
1,36,83,0
1,42,64,46
1,42,64,134
1,36,99,0
1,38,99,50
1,54,95,0
1,42,48,130
1,42,64,53
1,36,99,0
1,42,64,127
1,38,99,49
1,54,99,0
1,42,64,131
1,42,64,53
1,36,83,0
1,42,64,126
1,36,83,0
1,38,99,50
1,54,99,0
1,42,53,131
1,54,40,0
1,42,64,50
1,36,99,0
1,54,91,0
1,42,64,130
1,54,99,49
1,38,99,1
1,42,48,130
1,36,83,0
1,42,64,53
1,42,64,127
1,36,99,0
1,38,99,50
1,54,99,0
1,42,48,130
1,42,64,48
1,36,99,0
1,42,64,132
1,38,99,49
1,54,99,0
1,42,64,130
1,36,83,47
1,42,64,7
1,42,64,127
1,36,83,0
1,38,99,49
1,54,99,0
1,42,53,131
1,54,40,0
1,42,64,50
1,36,99,0
1,54,95,0
1,42,64,130
1,54,99,46
1,38,99,4
1,42,48,130
1,36,83,0
1,42,64,53
1,42,64,127
1,36,99,0
1,38,99,50
1,54,99,0
1,42,48,130
1,42,64,53
1,36,99,0
1,42,64,127
1,38,40,0
1,38,99,50
1,54,99,0
1,38,99,126
1,42,64,4
1,49,99,53
1,36,83,6
1,42,64,0
1,42,40,40
1,36,83,50
1,42,40,0
1,38,99,50
1,42,64,0
1,42,46,51
1,42,61,49
1,54,99,0
1,36,99,51
1,42,64,0
1,42,43,50
1,42,40,50
1,42,64,53
1,38,99,0
1,42,48,47
1,42,43,50
1,54,99,0
1,36,83,0
1,42,64,46
1,42,40,54
1,36,99,50
1,42,53,0
1,42,64,46
1,38,99,3
1,42,64,50
1,42,46,50
1,54,99,0
1,36,99,51
1,42,64,0
1,42,53,50
1,42,56,50
1,38,99,50
1,42,46,0
1,42,64,46
1,42,48,54
1,54,99,0
1,36,83,59
1,42,64,0
1,42,40,41
1,42,40,49
1,36,83,1
1,38,99,50
1,42,64,0
1,42,46,50
1,42,61,50
1,54,99,0
1,42,64,50
1,36,99,3
1,42,43,47
1,42,40,50
1,42,64,50
1,38,99,0
1,42,48,50
1,42,43,49
1,54,99,0
1,36,83,0
1,42,64,47
1,42,40,53
1,36,99,51
1,42,53,0
1,38,99,50
1,42,64,0
1,42,64,50
1,42,46,50
1,54,99,0
1,36,99,50
1,42,64,0
1,42,53,50
1,42,56,49
1,38,99,51
1,42,46,0
1,42,64,50
1,42,48,50
1,54,99,0
1,36,83,53
1,42,64,0
1,42,40,47
1,36,83,50
1,42,40,0
1,42,64,53
1,38,99,7
1,42,46,40
1,42,61,50
1,54,99,0
1,36,99,50
1,42,64,0
1,42,43,53
1,42,40,46
1,42,64,50
1,38,99,4
1,42,48,46
1,42,43,51
1,54,99,0
1,36,83,0
1,42,64,48
1,42,40,52
1,36,99,50
1,42,53,0
1,38,99,46
1,42,64,0
1,42,64,54
1,42,46,50
1,54,99,0
1,42,64,49
1,36,99,1
1,42,53,50
1,42,56,50
1,38,99,50
1,42,46,0
1,42,64,50
1,42,48,50
1,54,99,0
1,36,83,53
1,42,64,0
1,42,40,47
1,36,83,50
1,42,40,0
1,38,99,53
1,42,64,0
1,42,46,43
1,42,61,53
1,54,99,0
1,36,99,54
1,42,64,0
1,42,43,47
1,42,40,49
1,42,64,50
1,38,99,0
1,42,48,51
1,42,43,50
1,54,99,0
1,36,83,0
1,42,64,48
1,42,40,52
1,36,99,50
1,42,53,0
1,42,64,49
1,38,99,1
1,42,64,45
1,42,46,55
1,54,99,0
1,36,99,50
1,42,64,0
1,42,53,50
1,42,56,50
1,38,99,50
1,42,46,0
1,42,64,50
1,42,48,50
1,54,99,0
1,49,99,48
1,36,83,5
1,42,64,0
1,42,40,46
1,36,83,50
1,42,40,0
1,38,99,47
1,42,64,0
1,42,46,54
1,42,61,50
1,54,99,0
1,42,64,50
1,36,99,3
1,42,43,47
1,42,40,49
1,42,64,54
1,38,99,0
1,42,48,47
1,54,99,46
1,42,43,4
1,36,83,0
1,42,64,48
1,42,40,52
1,36,99,49
1,42,53,0
1,42,64,47
1,38,99,3
1,42,64,51
1,42,46,50
1,54,99,0
1,36,99,48
1,42,64,0
1,42,53,52
1,42,56,50
1,38,99,50
1,42,46,0
1,42,64,45
1,42,48,54
1,54,99,0
1,36,83,60
1,42,64,0
1,42,40,41
1,36,83,50
1,42,40,0
1,38,99,50
1,42,64,0
1,42,46,50
1,42,61,49
1,54,99,0
1,42,64,51
1,36,99,3
1,42,43,47
1,42,40,50
1,42,64,50
1,38,99,3
1,42,48,46
1,42,43,51
1,54,99,0
1,36,83,0
1,42,64,48
1,42,40,51
1,36,99,51
1,42,53,0
1,42,64,46
1,38,99,3
1,42,64,51
1,42,46,46
1,54,99,0
1,36,99,53
1,42,64,0
1,42,53,50
1,42,56,47
1,42,46,50
1,38,99,4
1,42,64,50
1,42,48,49
1,54,99,0
1,36,83,54
1,42,64,0
1,42,40,47
1,36,83,50
1,42,40,0
1,42,64,53
1,38,99,7
1,42,46,40
1,42,61,50
1,54,99,0
1,36,99,50
1,42,64,0
1,42,43,50
1,42,40,50
1,42,64,53
1,38,99,0
1,42,48,47
1,42,43,50
1,54,99,0
1,36,83,0
1,42,64,46
1,42,40,54
1,36,99,48
1,42,53,0
1,38,99,51
1,42,64,0
1,42,64,54
1,42,46,46
1,54,99,0
1,36,99,51
1,42,64,0
1,42,53,50
1,42,56,46
1,38,99,54
1,42,46,0
1,42,64,46
1,42,48,54
1,54,99,0
1,36,83,53
1,42,64,0
1,42,40,47
1,36,83,50
1,42,40,0
1,38,99,53
1,42,64,0
1,42,46,47
1,42,61,50
1,54,99,0
1,36,99,53
1,42,64,0
1,42,43,47
1,42,40,50
1,42,64,50
1,38,99,0
1,42,48,49
1,42,43,50
1,54,99,0
1,36,83,0
1,42,64,44
1,42,40,56
1,36,99,51
1,42,53,0
1,38,99,50
1,42,64,0
1,42,64,46
1,54,99,50
1,42,46,4
1,36,99,50
1,42,64,0
1,42,53,50
1,42,56,50
1,38,99,50
1,42,46,0
1,42,64,50
1,42,48,50
1,54,99,0
1,42,64,50
1,36,83,0
1,49,99,0
1,42,64,130
1,36,83,0
1,38,99,50
1,54,83,0
1,54,63,129
1,42,53,1
1,54,91,46
1,42,64,2
1,36,99,0
1,42,64,131
1,54,99,50
1,38,99,0
1,42,48,131
1,36,83,0
1,42,64,48
1,42,64,132
1,36,99,0
1,38,99,50
1,54,99,0
1,42,48,130
1,42,64,50
1,36,99,0
1,42,64,130
1,38,99,50
1,54,99,0
1,42,64,130
1,42,64,48
1,36,83,0
1,42,64,132
1,36,83,0
1,38,99,48
1,54,87,0
1,42,53,131
1,54,40,0
1,42,64,50
1,36,99,0
1,54,63,0
1,42,64,131
1,54,99,50
1,38,99,0
1,42,48,130
1,36,83,0
1,42,64,48
1,42,64,132
1,36,99,0
1,54,99,49
1,38,99,1
1,42,48,130
1,42,64,50
1,36,99,0
1,42,64,130
1,38,99,50
1,54,99,0
1,42,64,130
1,42,64,53
1,36,83,0
1,42,64,126
1,36,83,0
1,38,99,51
1,54,99,0
1,54,43,126
1,42,53,4
1,54,59,45
1,42,64,5
1,36,99,0
1,42,64,130
1,54,99,50
1,38,99,0
1,42,48,130
1,36,83,0
1,42,64,48
1,42,64,132
1,36,99,0
1,38,99,50
1,54,99,0
1,42,48,130
1,36,99,46
1,42,64,3
1,42,64,131
1,38,99,49
1,54,99,0
1,42,64,130
1,42,64,54
1,36,83,0
1,42,64,127
1,36,83,0
1,38,99,49
1,54,99,0
1,54,40,127
1,42,53,4
1,54,83,50
1,42,64,3
1,36,99,0
1,42,64,127
1,54,99,49
1,38,99,1
1,42,48,130
1,36,83,0
1,42,64,53
1,42,64,127
1,36,99,0
1,54,91,49
1,38,99,1
1,42,48,129
1,42,64,54
1,36,99,0
1,42,64,127
1,54,95,46
1,38,99,4
1,42,64,130
1,42,64,53
1,36,83,0
1,42,64,127
1,36,83,0
1,38,99,50
1,54,99,0
1,42,53,130
1,54,40,0
1,42,64,50
1,36,99,0
1,54,59,0
1,42,64,130
1,54,99,46
1,38,99,3
1,42,48,130
1,36,83,0
1,42,64,49
1,42,64,131
1,36,99,0
1,38,99,50
1,54,99,0
1,42,48,131
1,42,64,50
1,36,99,0
1,42,64,130
1,38,99,50
1,54,99,0
1,42,64,130
1,42,64,48
1,36,83,0
1,42,64,132
1,36,83,0
1,54,99,49
1,38,99,1
1,42,53,130
1,54,47,0
1,42,64,48
1,36,99,0
1,54,83,0
1,42,64,132
1,54,99,49
1,38,99,1
1,42,48,129
1,36,83,0
1,42,64,47
1,42,64,134
1,36,99,0
1,38,99,50
1,54,95,0
1,42,48,130
1,36,99,50
1,42,64,3
1,42,64,126
1,38,99,51
1,54,99,0
1,42,64,130
1,36,83,50
1,42,64,3
1,42,64,127
1,36,83,0
1,38,99,50
1,54,99,0
1,42,53,130
1,54,40,0
1,54,91,46
1,42,64,2
1,36,99,0
1,42,64,131
1,54,99,50
1,38,99,0
1,42,48,131
1,36,83,0
1,42,64,48
1,42,64,132
1,36,99,0
1,38,99,50
1,54,99,0
1,42,48,130
1,42,64,50
1,36,99,0
1,42,64,130
1,54,99,46
1,38,99,3
1,42,64,131
1,42,64,53
1,36,83,0
1,42,64,127
1,36,83,0
1,38,99,49
1,54,99,0
1,42,53,130
1,54,40,0
1,42,64,54
1,36,99,0
1,54,95,0
1,42,64,127
1,54,99,50
1,38,99,0
1,42,48,130
1,36,83,0
1,42,64,53
1,42,64,127
1,36,99,0
1,38,99,50
1,54,99,0
1,42,48,130
1,42,64,53
1,36,99,0
1,42,64,127
1,38,40,0
1,54,99,46
1,38,99,4
1,38,99,126
1,42,64,2
1,49,99,55
1,36,83,7
1,42,64,0
1,42,40,39
1,36,83,50
1,42,40,0
1,38,99,50
1,42,64,0
1,42,46,51
1,42,61,50
1,54,99,0
1,36,99,50
1,42,64,0
1,42,43,50
1,42,40,50
1,42,64,50
1,38,99,0
1,42,48,50
1,42,43,50
1,54,99,0
1,36,83,0
1,42,64,48
1,42,40,52
1,36,99,50
1,42,53,0
1,38,99,50
1,42,64,0
1,42,64,50
1,42,46,49
1,54,99,0
1,36,99,49
1,42,64,0
1,42,53,52
1,42,56,48
1,38,99,51
1,42,46,0
1,42,64,47
1,42,48,53
1,54,99,0
1,36,83,60
1,42,64,0
1,42,40,37
1,42,40,50
1,36,83,4
1,38,99,50
1,42,64,0
1,42,46,50
1,42,61,50
1,54,99,0
1,36,99,50
1,42,64,0
1,42,43,50
1,42,40,50
1,42,64,50
1,38,99,0
1,42,48,50
1,54,99,49
1,42,43,1
1,36,83,0
1,42,64,48
1,42,40,52
1,36,99,50
1,42,53,0
1,38,99,50
1,42,64,0
1,42,64,46
1,42,46,53
1,54,99,0
1,36,99,50
1,42,64,0
1,42,53,50
1,42,56,50
1,38,99,51
1,42,46,0
1,42,64,50
1,42,48,50
1,54,99,0
1,36,83,53
1,42,64,0
1,42,40,47
1,36,83,50
1,42,40,0
1,42,64,53
1,38,99,7
1,42,46,40
1,42,61,50
1,54,99,0
1,36,99,50
1,42,64,0
1,42,43,50
1,42,40,50
1,42,64,50
1,38,99,0
1,42,48,50
1,42,43,50
1,54,99,0
1,36,83,0
1,42,64,48
1,42,40,51
1,36,99,50
1,42,53,0
1,42,64,47
1,38,99,3
1,42,64,47
1,42,46,53
1,54,99,0
1,36,99,51
1,42,64,0
1,42,53,46
1,42,56,54
1,38,99,50
1,42,46,0
1,42,64,50
1,42,48,50
1,54,99,0
1,36,83,53
1,42,64,0
1,42,40,47
1,36,83,50
1,42,40,0
1,38,99,53
1,42,64,0
1,42,46,46
1,42,61,51
1,54,99,0
1,36,99,53
1,42,64,0
1,42,43,47
1,42,40,50
1,42,64,50
1,38,99,0
1,42,48,49
1,42,43,50
1,54,99,0
1,36,83,0
1,42,64,47
1,42,40,53
1,36,99,51
1,42,53,0
1,38,99,50
1,42,64,0
1,42,64,46
1,54,99,50
1,42,46,4
1,36,99,50
1,42,64,0
1,42,53,50
1,42,56,50
1,38,99,50
1,42,46,0
1,42,64,50
1,42,48,50
1,54,99,0
1,42,64,50
1,36,83,0
1,49,99,0
1,42,40,49
1,42,40,50
1,36,83,0
1,42,64,47
1,38,99,0
1,42,46,50
1,42,61,54
1,54,99,0
1,42,64,50
1,36,99,0
1,42,43,50
1,42,40,49
1,42,64,51
1,38,99,0
1,42,48,50
