track,note,velocity,time
1,31,76,14940
1,31,88,244
1,22,84,244
1,22,68,148
1,22,72,148
1,24,58,52
1,24,72,244
1,27,88,244
1,29,76,212
1,31,88,244
1,31,88,244
1,22,68,244
1,22,72,148
1,22,80,148
1,24,66,52
1,24,76,244
1,27,88,244
1,29,88,244
1,31,76,244
1,31,88,244
1,22,84,244
1,22,68,148
1,22,72,148
1,24,58,52
1,24,72,244
1,27,88,244
1,29,76,212
1,31,88,244
1,31,88,244
1,22,68,244
1,22,72,148
1,22,80,148
1,24,66,52
1,24,76,244
1,27,88,244
1,29,88,244
1,31,76,244
1,31,88,244
1,22,84,244
1,22,68,148
1,22,72,148
1,24,58,52
1,24,72,244
1,27,88,244
1,29,76,212
1,31,88,244
1,31,88,244
1,22,68,244
1,22,72,148
1,22,80,148
1,24,66,52
1,24,76,244
1,27,88,244
1,29,88,244
1,31,76,244
1,31,88,244
1,22,84,244
1,22,68,148
1,22,72,148
1,24,58,52
1,24,72,244
1,27,88,244
1,29,76,212
1,31,88,244
1,31,88,244
1,22,68,244
1,22,72,148
1,22,80,148
1,24,66,52
1,24,76,244
1,27,88,244
1,29,88,244
1,31,76,244
1,31,88,244
1,22,84,244
1,22,68,148
1,22,72,148
1,24,58,52
1,24,72,244
1,27,88,244
1,29,76,212
1,31,88,244
1,31,88,244
1,22,68,244
1,22,72,148
1,22,80,148
1,24,66,52
1,24,76,244
1,27,88,244
1,29,88,244
1,31,76,244
1,31,88,244
1,22,84,244
1,22,68,148
1,22,72,148
1,24,58,52
1,24,72,244
1,27,88,244
1,29,76,212
1,31,88,244
1,31,88,244
1,22,68,244
1,22,72,148
1,22,80,148
1,24,66,52
1,24,76,244
1,27,88,244
1,29,88,244
1,31,76,244
1,31,88,244
1,22,84,244
1,22,68,148
1,22,72,148
1,24,58,52
1,24,72,244
1,27,88,244
1,29,76,212
1,31,88,244
1,31,88,244
1,22,68,244
1,22,72,148
1,22,80,148
1,24,66,52
1,24,76,244
1,27,88,244
1,29,88,244
1,31,76,244
1,31,88,244
1,22,84,244
1,22,68,148
1,22,72,148
1,24,58,52
1,24,72,244
1,27,88,244
1,29,76,212
1,31,88,244
1,31,88,244
1,22,68,244
1,22,72,148
1,22,80,148
1,24,66,52
1,24,76,244
1,27,88,244
1,29,88,244
1,31,76,244
1,31,88,244
1,22,84,244
1,22,68,148
1,22,72,148
1,24,58,52
1,24,72,244
1,27,88,244
1,29,76,212
1,31,88,244
1,31,88,244
1,22,68,244
1,22,72,148
1,22,80,148
1,24,66,52
1,24,76,244
1,27,88,244
1,29,88,244
1,31,76,244
1,31,88,244
1,22,84,244
1,22,68,148
1,22,72,148
1,24,58,52
1,24,72,244
1,27,88,244
1,29,76,212
1,31,88,244
1,31,88,244
1,22,68,244
1,22,72,148
1,22,80,148
1,24,66,52
1,24,76,244
1,27,88,244
1,29,88,244
1,31,76,3316
1,31,88,244
1,22,84,244
1,22,68,148
1,22,72,148
1,24,58,52
1,24,72,244
1,27,88,244
1,29,76,212
1,31,88,244
1,31,88,244
1,22,68,244
1,22,72,148
1,22,80,148
1,24,66,52
1,24,76,244
1,27,88,244
1,29,88,244
1,31,76,244
1,31,88,244
1,22,84,244
1,22,68,148
1,22,72,148
1,24,58,52
1,24,72,244
1,27,88,244
1,29,76,212
1,31,88,244
1,31,88,244
1,22,68,244
1,22,72,148
1,22,80,148
1,24,66,52
1,24,76,244
1,27,88,244
1,29,88,244
1,31,76,244
1,31,88,244
1,22,84,244
1,22,68,148
1,22,72,148
1,24,58,52
1,24,72,244
1,27,88,244
1,29,76,212
1,31,88,244
1,31,88,244
1,22,68,244
1,22,72,148
1,22,80,148
1,24,66,52
1,24,76,244
1,27,88,244
1,29,88,244
1,31,76,244
1,31,88,244
1,22,84,244
1,22,68,148
1,22,72,148
1,24,58,52
1,24,72,244
1,27,88,244
1,29,76,212
1,31,88,244
1,31,88,244
1,22,68,244
1,22,72,148
1,22,80,148
1,24,66,52
1,24,76,244
1,27,88,244
1,29,88,244
1,31,76,244
1,31,88,244
1,22,84,244
1,22,68,148
1,22,72,148
1,24,58,52
1,24,72,244
1,27,88,244
1,29,76,212
1,31,88,244
1,31,88,244
1,22,68,244
1,22,72,148
1,22,80,148
1,24,66,52
1,24,76,244
1,27,88,244
1,29,88,244
1,31,76,244
1,31,88,244
1,22,84,244
1,22,68,148
1,22,72,148
1,24,58,52
1,24,72,244
1,27,88,244
1,29,76,212
1,31,88,244
1,31,88,244
1,22,68,244
1,22,72,148
1,22,80,148
1,24,66,52
1,24,76,244
1,27,88,244
1,29,88,244
1,31,76,244
1,31,88,244
1,22,84,244
1,22,68,148
1,22,72,148
1,24,58,52
1,24,72,244
1,27,88,244
1,29,76,212
1,31,88,244
1,31,88,244
1,22,68,244
1,22,72,148
1,22,80,148
1,24,66,52
1,24,76,244
1,27,88,244
1,29,88,244
1,31,76,244
1,31,88,244
1,22,84,244
1,22,68,148
1,22,72,148
1,24,58,52
1,24,72,244
1,27,88,244
1,29,76,212
1,31,88,244
1,31,88,244
1,22,68,244
1,22,72,148
1,22,80,148
1,24,66,52
1,24,76,244
1,27,88,244
1,29,88,244
1,24,66,244
1,24,64,256
1,24,39,192
1,24,62,76
1,26,68,12
1,27,72,12
1,24,64,16
1,24,80,116
1,24,80,256
1,24,64,292
1,26,66,192
1,27,68,176
1,24,72,164
1,24,76,224
1,24,56,168
1,24,62,56
1,26,66,8
1,27,72,4
1,24,76,12
1,24,68,100
1,24,64,300
1,24,56,180
1,24,58,48
1,26,64,192
1,27,66,28
1,31,68,192
1,24,68,24
1,24,66,256
1,24,50,176
1,24,60,44
1,26,66,8
1,27,66,192
1,24,56,184
1,24,80,100
1,24,64,264
1,24,48,180
1,24,56,56
1,26,66,0
1,27,72,0
1,24,60,16
1,24,76,116
1,24,38,224
1,24,44,156
1,24,60,56
1,26,66,0
1,27,64,192
1,26,66,188
1,24,56,40
1,24,66,84
1,26,68,24
1,26,64,80
1,27,68,28
1,27,62,96
1,29,80,20
1,31,84,20
1,24,66,56
1,24,64,256
1,24,39,192
1,24,62,76
1,26,68,12
1,27,72,12
1,24,64,16
1,24,80,116
1,24,80,256
1,24,64,292
1,26,66,192
1,27,68,176
1,24,72,164
1,24,76,224
1,24,56,168
1,24,62,56
1,26,66,8
1,27,72,4
1,24,76,12
1,24,68,100
1,24,64,300
1,24,56,180
1,24,58,48
1,26,64,192
1,27,66,28
1,31,68,192
1,24,68,24
1,24,66,256
1,24,50,176
1,24,60,44
1,26,66,8
1,27,66,192
1,24,56,184
1,24,80,100
1,24,64,264
1,24,48,180
1,24,56,56
1,26,66,0
1,27,72,0
1,24,60,16
1,24,76,116
1,24,38,224
1,24,44,156
1,24,60,56
1,26,66,0
1,27,64,192
1,26,66,188
1,24,56,40
1,24,66,84
1,26,68,24
1,26,64,80
1,27,68,28
1,27,62,96
1,29,80,20
1,31,84,20
1,31,76,15416
1,31,88,244
1,22,84,244
1,22,68,148
1,22,72,148
1,24,58,52
1,24,72,244
1,27,88,244
1,29,76,212
1,31,88,244
1,31,88,244
1,22,68,244
1,22,72,148
1,22,80,148
1,24,66,52
1,24,76,244
1,27,88,244
1,29,88,244
1,31,76,244
1,31,88,244
1,22,84,244
1,22,68,148
1,22,72,148
1,24,58,52
1,24,72,244
1,27,88,244
1,29,76,212
1,31,88,244
1,31,88,244
1,22,68,244
1,22,72,148
1,22,80,148
1,24,66,52
1,24,76,244
1,27,88,244
1,29,88,244
1,31,76,244
1,31,88,244
1,22,84,244
1,22,68,148
1,22,72,148
1,24,58,52
1,24,72,244
1,27,88,244
1,29,76,212
1,31,88,244
1,31,88,244
1,22,68,244
1,22,72,148
1,22,80,148
1,24,66,52
1,24,76,244
1,27,88,244
1,29,88,244
1,31,76,244
1,31,88,244
1,22,84,244
1,22,68,148
1,22,72,148
1,24,58,52
1,24,72,244
1,27,88,244
1,29,76,212
1,31,88,244
1,31,88,244
1,22,68,244
1,22,72,148
1,22,80,148
1,24,66,52
1,24,76,244
1,27,88,244
1,29,88,244
1,31,76,244
1,31,88,244
1,22,84,244
1,22,68,148
1,22,72,148
1,24,58,52
1,24,72,244
1,27,88,244
1,29,76,212
1,31,88,244
1,31,88,244
1,22,68,244
1,22,72,148
1,22,80,148
1,24,66,52
1,24,76,244
1,27,88,244
1,29,88,244
1,31,76,244
1,31,88,244
1,22,84,244
1,22,68,148
1,22,72,148
1,24,58,52
1,24,72,244
1,27,88,244
1,29,76,212
1,31,88,244
1,31,88,244
1,22,68,244
1,22,72,148
1,22,80,148
1,24,66,52
1,24,76,244
1,27,88,244
1,29,88,244
1,31,76,244
1,31,88,244
1,22,84,244
1,22,68,148
1,22,72,148
1,24,58,52
1,24,72,244
1,27,88,244
1,29,76,212
1,31,88,244
1,31,88,244
1,22,68,244
1,22,72,148
1,22,80,148
1,24,66,52
1,24,76,244
1,27,88,244
1,29,88,244
1,31,76,244
1,31,88,244
1,22,84,244
1,22,68,148
1,22,72,148
1,24,58,52
1,24,72,244
1,27,88,244
1,29,76,212
1,31,88,244
1,31,88,244
1,22,68,244
1,22,72,148
1,22,80,148
1,24,66,52
1,24,76,244
1,27,88,244
1,29,88,244
1,31,76,244
1,31,88,48
1,22,84,48
1,22,68,96
1,22,72,96
1,24,58,52
1,24,72,96
1,27,88,96
1,29,76,96
1,31,88,48
1,31,88,48
1,22,68,48
1,22,72,48
1,22,80,48
1,24,66,48
1,24,76,96
1,27,88,96
1,29,88,96
1,31,76,96
1,31,88,96
1,22,84,48
1,22,68,48
1,22,72,48
1,24,58,48
1,24,72,48
1,27,88,48
1,29,76,96
1,31,88,96
1,31,88,96
1,22,68,96
1,22,72,96
1,22,80,48
1,24,66,48
1,24,76,48
1,27,88,48
1,29,88,144
2,55,80,8776
2,58,84,0
2,63,80,0
2,55,80,184
2,65,88,0
2,60,88,0
2,60,92,112
2,62,88,0
2,55,88,0
2,57,66,0
2,55,88,380
2,59,72,0
2,62,92,0
2,67,88,0
2,55,88,256
2,62,84,0
2,59,72,0
2,67,84,0
2,59,76,156
2,55,84,0
2,62,88,0
2,50,102,0
2,65,84,0
2,55,97,44
2,55,80,244
2,58,84,0
2,63,80,0
2,55,80,184
2,65,88,0
2,60,88,0
2,60,92,112
2,62,88,0
2,55,88,0
2,57,66,0
2,55,88,380
2,59,72,0
2,62,92,0
2,67,88,0
2,55,88,256
2,62,84,0
2,59,72,0
2,67,84,0
2,59,76,156
2,55,84,0
2,62,88,0
2,50,102,0
2,65,84,0
2,55,97,44
2,55,80,244
2,58,84,0
2,63,80,0
2,55,80,184
2,65,88,0
2,60,88,0
2,60,92,112
2,62,88,0
2,55,88,0
2,57,66,0
2,55,88,380
2,59,72,0
2,62,92,0
2,67,88,0
2,55,88,256
2,62,84,0
2,59,72,0
2,67,84,0
2,59,76,156
2,55,84,0
2,62,88,0
2,50,102,0
2,65,84,0
2,55,97,44
2,55,80,244
2,58,84,0
2,63,80,0
2,55,80,184
2,65,88,0
2,60,88,0
2,60,92,112
2,62,88,0
2,55,88,0
2,57,66,0
2,55,88,380
2,59,72,0
2,62,92,0
2,67,88,0
2,55,88,256
2,62,84,0
2,59,72,0
2,67,84,0
2,59,76,156
2,55,84,0
2,62,88,0
2,50,102,0
2,65,84,0
2,55,97,44
2,55,80,244
2,58,84,0
2,63,80,0
2,55,80,184
2,65,88,0
2,60,88,0
2,60,92,112
2,62,88,0
2,55,88,0
2,57,66,0
2,55,88,380
2,59,72,0
2,62,92,0
2,67,88,0
2,55,88,256
2,62,84,0
2,59,72,0
2,67,84,0
2,59,76,156
2,55,84,0
2,62,88,0
2,50,102,0
2,65,84,0
2,55,97,44
2,67,80,244
2,62,72,0
2,70,64,0
2,67,88,1320
2,63,88,0
2,70,66,0
2,62,60,104
2,67,68,0
2,70,56,0
2,67,68,668
2,72,84,0
2,63,72,0
2,70,66,260
2,67,72,0
2,62,64,0
2,70,68,804
2,63,84,0
2,67,80,0
2,70,62,92
2,67,66,0
2,62,64,0
2,67,72,272
2,72,72,0
2,63,76,0
2,67,80,4
2,62,72,0
2,70,64,0
2,67,88,1320
2,63,88,0
2,70,66,0
2,62,60,104
2,67,68,0
2,70,56,0
2,67,68,668
2,72,84,0
2,63,72,0
2,70,66,260
2,67,72,0
2,62,64,0
2,70,68,804
2,63,84,0
2,67,80,0
2,70,62,92
2,67,66,0
2,62,64,0
2,67,72,272
2,72,72,0
2,63,76,0
2,55,80,4
2,58,84,0
2,63,80,0
2,55,80,184
2,65,88,0
2,60,88,0
2,60,92,112
2,62,88,0
2,55,88,0
2,57,66,0
2,55,88,380
2,59,72,0
2,62,92,0
2,67,88,0
2,55,88,256
2,62,84,0
2,59,72,0
2,67,84,0
2,59,76,156
2,55,84,0
2,62,88,0
2,50,102,0
2,65,84,0
2,55,97,44
2,55,80,244
2,58,84,0
2,63,80,0
2,55,80,184
2,65,88,0
2,60,88,0
2,60,92,112
2,62,88,0
2,55,88,0
2,57,66,0
2,55,88,380
2,59,72,0
2,62,92,0
2,67,88,0
2,55,88,256
2,62,84,0
2,59,72,0
2,67,84,0
2,59,76,156
2,55,84,0
2,62,88,0
2,50,102,0
2,65,84,0
2,55,97,44
2,67,80,3316
2,62,72,0
2,70,64,0
2,67,88,1320
2,63,88,0
2,70,66,0
2,62,60,104
2,67,68,0
2,70,56,0
2,67,68,668
2,72,84,0
2,63,72,0
2,70,66,260
2,67,72,0
2,62,64,0
2,70,68,804
2,63,84,0
2,67,80,0
2,70,62,92
2,67,66,0
2,62,64,0
2,67,72,272
2,72,72,0
2,63,76,0
2,67,80,4
2,62,72,0
2,70,64,0
2,67,88,1320
2,63,88,0
2,70,66,0
2,62,60,104
2,67,68,0
2,70,56,0
2,67,68,668
2,72,84,0
2,63,72,0
2,70,66,260
2,67,72,0
2,62,64,0
2,70,68,804
2,63,84,0
2,67,80,0
2,70,62,92
2,67,66,0
2,62,64,0
2,67,72,272
2,72,72,0
2,63,76,0
2,55,80,4
2,58,84,0
2,63,80,0
2,55,80,184
2,65,88,0
2,60,88,0
2,60,92,112
2,62,88,0
2,55,88,0
2,57,66,0
2,55,88,380
2,59,72,0
2,62,92,0
2,67,88,0
2,55,88,256
2,62,84,0
2,59,72,0
2,67,84,0
2,59,76,156
2,55,84,0
2,62,88,0
2,50,102,0
2,65,84,0
2,55,97,44
2,55,80,244
2,58,84,0
2,63,80,0
2,55,80,184
2,65,88,0
2,60,88,0
2,60,92,112
2,62,88,0
2,55,88,0
2,57,66,0
2,55,88,380
2,59,72,0
2,62,92,0
2,67,88,0
2,55,88,256
2,62,84,0
2,59,72,0
2,67,84,0
2,59,76,156
2,55,84,0
2,62,88,0
2,50,102,0
2,65,84,0
2,55,97,44
2,55,80,244
2,58,84,0
2,63,80,0
2,55,80,184
2,65,88,0
2,60,88,0
2,60,92,112
2,62,88,0
2,55,88,0
2,57,66,0
2,55,88,380
2,59,72,0
2,62,92,0
2,67,88,0
2,55,88,256
2,62,84,0
2,59,72,0
2,67,84,0
2,59,76,156
2,55,84,0
2,62,88,0
2,50,102,0
2,65,84,0
2,55,97,44
2,55,80,244
2,58,84,0
2,63,80,0
2,55,80,184
2,65,88,0
2,60,88,0
2,60,92,112
2,62,88,0
2,55,88,0
2,57,66,0
2,55,88,380
2,59,72,0
2,62,92,0
2,67,88,0
2,55,88,256
2,62,84,0
2,59,72,0
2,67,84,0
2,59,76,156
2,55,84,0
2,62,88,0
2,50,102,0
2,65,84,0
2,55,97,44
2,63,68,244
2,60,64,0
2,67,84,0
2,68,68,144
2,63,72,0
2,60,72,0
2,69,72,136
2,63,64,0
2,60,58,0
2,68,68,160
2,63,66,0
2,60,48,0
2,67,76,108
2,63,60,0
2,60,62,0
2,63,66,84
2,60,64,0
2,68,76,0
2,60,58,44
2,63,54,0
2,69,56,0
2,60,54,200
2,63,66,0
2,68,66,0
2,63,68,248
2,60,64,0
