track,note,velocity,time
1,65,100,2220
1,65,0,60
1,64,100,0
1,64,0,60
1,60,100,0
1,60,0,60
1,60,100,0
1,60,0,90
1,62,100,0
1,62,0,90
1,62,100,0
1,62,0,240
1,65,100,300
1,65,0,30
1,65,100,0
1,65,0,90
1,60,100,0
1,60,0,60
1,60,100,0
1,60,0,60
1,62,100,0
1,62,0,90
1,60,100,0
1,60,0,90
1,60,100,0
1,60,0,60
1,60,100,0
1,60,0,90
1,58,100,0
1,58,0,30
1,57,100,0
1,57,0,120
1,53,100,180
1,53,0,60
1,53,100,0
1,53,0,90
1,55,100,0
1,55,0,90
1,57,100,0
1,57,0,60
1,65,100,0
1,65,0,90
1,62,100,0
1,62,0,90
1,62,100,0
1,62,0,240
1,65,100,360
1,65,0,60
1,65,100,0
1,65,0,60
1,60,100,0
1,60,0,60
1,62,100,0
1,62,0,90
1,60,100,0
1,60,0,90
1,60,100,0
1,60,0,90
1,58,100,0
1,58,0,30
1,57,100,0
1,57,0,180
1,65,100,240
1,65,0,60
1,65,100,0
1,65,0,30
1,65,100,0
1,65,0,90
1,60,100,0
1,60,0,60
1,62,100,0
1,62,0,480
1,65,100,240
1,65,0,90
1,67,100,0
1,67,0,90
1,69,100,0
1,69,0,60
1,67,100,0
1,67,0,360
1,69,100,0
1,69,0,120
1,53,100,240
1,53,0,90
1,55,100,0
1,55,0,90
1,57,100,0
1,57,0,60
1,65,100,0
1,65,0,120
1,62,100,0
1,62,0,120
1,62,100,0
1,62,0,240
1,65,100,240
1,65,0,60
1,65,100,0
1,65,0,120
1,65,100,0
1,65,0,60
1,65,100,0
1,65,0,480
1,67,100,240
1,67,0,30
1,69,100,0
1,69,0,90
1,65,100,0
1,65,0,60
1,65,100,0
1,65,0,60
1,65,100,0
1,65,0,240
1,62,100,0
1,62,0,240
1,67,100,240
1,67,0,30
1,69,100,0
1,69,0,60
1,65,100,0
1,65,0,90
1,65,100,0
1,65,0,180
1,62,100,0
1,62,0,360
1,67,100,240
1,67,0,30
1,69,100,0
1,69,0,60
1,65,100,0
1,65,0,90
1,65,100,0
1,65,0,60
1,65,100,0
1,65,0,240
1,62,100,0
1,62,0,240
1,69,100,0
1,69,0,240
1,67,100,0
1,67,0,240
1,65,100,0
1,65,0,240
1,64,100,0
1,64,0,180
1,62,100,0
1,62,0,60
1,62,100,240
1,62,0,720
1,65,100,360
1,65,0,60
1,65,100,0
1,65,0,60
1,64,100,0
1,64,0,90
1,60,100,0
1,60,0,90
1,62,100,0
1,62,0,240
1,65,100,300
1,65,0,120
1,60,100,0
1,60,0,60
1,60,100,0
1,60,0,60
1,62,100,0
1,62,0,120
1,60,100,0
1,60,0,120
1,60,100,0
1,60,0,90
1,58,100,0
1,58,0,30
1,57,100,0
1,57,0,120
1,53,100,240
1,53,0,90
1,55,100,0
1,55,0,90
1,57,100,0
1,57,0,60
1,65,100,0
1,65,0,90
1,62,100,0
1,62,0,90
1,62,100,0
1,62,0,240
1,65,100,360
1,65,0,60
1,65,100,0
1,65,0,60
1,60,100,0
1,60,0,60
1,62,100,0
1,62,0,90
1,60,100,0
1,60,0,90
1,60,100,0
1,60,0,90
1,58,100,0
1,58,0,30
1,57,100,0
1,57,0,180
1,65,100,270
1,65,0,60
1,65,100,0
1,65,0,90
1,60,100,0
1,60,0,60
1,62,100,0
1,62,0,480
1,65,100,180
1,65,0,60
1,65,100,0
1,65,0,90
1,67,100,0
1,67,0,90
1,69,100,0
1,69,0,60
1,67,100,0
1,67,0,360
1,69,100,0
1,69,0,120
1,53,100,240
1,53,0,90
1,55,100,0
1,55,0,90
1,57,100,0
1,57,0,60
1,65,100,0
1,65,0,120
1,62,100,0
1,62,0,360
1,65,100,180
1,65,0,60
1,64,100,0
1,64,0,60
1,60,100,0
1,60,0,120
1,65,100,0
1,65,0,60
1,65,100,0
1,65,0,240
1,67,100,0
1,67,0,240
1,67,100,240
1,67,0,30
1,69,100,0
1,69,0,90
1,65,100,0
1,65,0,60
1,65,100,0
1,65,0,60
1,65,100,0
1,65,0,240
1,62,100,0
1,62,0,240
1,67,100,240
1,67,0,30
1,69,100,0
1,69,0,60
1,65,100,0
1,65,0,90
1,65,100,0
1,65,0,180
1,62,100,0
1,62,0,360
1,67,100,240
1,67,0,30
1,69,100,0
1,69,0,60
1,65,100,0
1,65,0,90
1,65,100,0
1,65,0,60
1,65,100,0
1,65,0,240
1,62,100,0
1,62,0,240
1,69,100,0
1,69,0,240
1,67,100,0
1,67,0,240
1,65,100,0
1,65,0,240
1,64,100,0
1,64,0,180
1,62,100,0
1,62,0,60
1,67,100,240
1,67,0,30
1,69,100,0
1,69,0,90
1,65,100,0
1,65,0,60
1,65,100,0
1,65,0,60
1,65,100,0
1,65,0,240
1,62,100,0
1,62,0,240
1,67,100,240
1,67,0,30
1,69,100,0
1,69,0,60
1,65,100,0
1,65,0,90
1,65,100,0
1,65,0,180
1,62,100,0
1,62,0,360
1,67,100,240
1,67,0,30
1,69,100,0
1,69,0,60
1,65,100,0
1,65,0,90
1,65,100,0
1,65,0,60
1,65,100,0
1,65,0,240
1,67,100,0
1,67,0,240
1,69,100,0
1,69,0,240
1,67,100,0
1,67,0,240
1,65,100,0
1,65,0,240
1,64,100,0
1,64,0,180
1,62,100,0
1,62,0,60
1,62,100,240
1,62,0,720
1,64,100,120
1,64,0,60
1,62,100,0
1,62,0,120
1,64,100,0
1,64,0,120
1,62,100,0
1,62,0,60
1,64,100,0
1,64,0,120
1,62,100,0
1,62,0,60
1,57,100,0
1,57,0,240
1,57,100,300
1,57,0,120
1,53,100,0
1,53,0,60
1,55,100,0
1,55,0,120
1,57,100,0
1,57,0,180
1,64,100,240
1,64,0,60
1,62,100,0
1,62,0,180
1,64,100,0
1,64,0,120
1,62,100,0
1,62,0,60
1,64,100,0
1,64,0,120
1,62,100,0
1,62,0,120
1,58,100,0
1,58,0,240
1,55,100,300
1,55,0,120
1,57,100,0
1,57,0,60
1,58,100,0
1,58,0,360
1,62,100,180
1,62,0,120
1,62,100,0
1,62,0,60
1,69,100,0
1,69,0,120
1,67,100,0
1,67,0,120
1,65,100,0
1,65,0,120
1,64,100,0
1,64,0,120
1,62,100,0
1,62,0,480
1,60,100,660
1,60,0,60
1,60,100,0
1,60,0,60
1,65,100,60
1,65,0,120
1,64,100,0
1,64,0,240
1,60,100,360
1,60,0,120
1,62,100,0
1,62,0,120
1,62,100,0
1,62,0,360
1,67,100,4620
1,67,0,30
1,69,100,0
1,69,0,90
1,65,100,0
1,65,0,60
1,65,100,0
1,65,0,60
1,65,100,0
1,65,0,240
1,62,100,0
1,62,0,240
1,67,100,240
1,67,0,30
1,69,100,0
1,69,0,60
1,65,100,0
1,65,0,90
1,65,100,0
1,65,0,180
1,62,100,0
1,62,0,360
1,67,100,240
1,67,0,30
1,69,100,0
1,69,0,60
1,65,100,0
1,65,0,90
1,65,100,0
1,65,0,60
1,65,100,0
1,65,0,240
1,62,100,0
1,62,0,240
1,69,100,0
1,69,0,240
1,67,100,0
1,67,0,240
1,65,100,0
1,65,0,240
1,64,100,0
1,64,0,180
1,62,100,0
1,62,0,60
1,62,100,240
1,62,0,720
1,62,100,960
1,62,0,240
1,64,100,0
1,64,0,240
1,65,100,0
1,65,0,240
1,69,100,0
1,69,0,180
1,67,100,0
1,67,0,60
1,67,100,0
1,67,0,419
1,65,100,1
1,65,0,60
1,65,100,0
1,65,0,480
1,62,100,0
1,62,0,240
1,64,100,0
1,64,0,240
1,65,100,0
1,65,0,360
1,69,100,0
1,69,0,120
1,65,100,0
1,65,0,720
1,62,100,240
1,62,0,240
1,64,100,0
1,64,0,240
1,65,100,0
1,65,0,230
1,69,100,0
1,69,0,30
1,67,100,0
1,67,0,60
1,67,100,0
1,67,0,9
1,65,100,1
1,65,0,20
1,65,100,0
1,65,0,50
1,62,100,0
1,62,0,40
1,64,100,0
1,64,0,10
1,65,100,0
1,65,0,30
1,69,100,0
1,69,0,110
1,65,100,0
1,65,0,170
2,77,100,0
2,77,0,10
2,77,100,0
2,77,0,20
2,77,100,0
2,77,0,10
2,76,100,0
2,76,0,10
2,76,100,0
2,76,0,10
2,76,100,0
2,76,0,10
2,77,100,0
2,77,0,10
2,77,100,0
2,77,0,10
2,77,100,0
2,77,0,20
2,76,100,0
2,76,0,30
2,76,100,0
2,76,0,90
2,76,100,0
2,76,0,60
2,77,100,0
2,77,0,90
2,77,100,0
2,77,0,90
2,77,100,0
2,77,0,60
2,76,100,0
2,76,0,90
2,76,100,0
2,76,0,90
2,76,100,0
2,76,0,60
2,77,100,0
2,77,0,90
2,77,100,0
2,77,0,90
2,77,100,0
2,77,0,60
2,74,100,0
2,74,0,90
2,74,100,0
2,74,0,90
2,74,100,0
2,74,0,20
2,77,100,0
2,77,0,70
2,77,100,0
2,77,0,70
2,77,100,0
2,77,0,10
2,76,100,0
2,76,0,90
2,76,100,0
2,76,0,50
2,76,100,0
2,76,0,50
2,77,100,0
2,77,0,80
2,77,100,0
2,77,0,90
2,77,100,0
2,77,0,50
2,76,100,0
2,76,0,90
2,76,100,0
2,76,0,90
2,76,100,0
2,76,0,60
2,77,100,0
2,77,0,90
2,77,100,0
2,77,0,10
2,77,100,0
2,77,0,60
2,76,100,0
2,76,0,90
2,76,100,0
2,76,0,90
2,76,100,0
2,76,0,60
2,77,100,0
2,77,0,20
2,77,100,0
2,77,0,90
2,77,100,0
2,77,0,60
2,74,100,0
2,74,0,90
2,74,100,0
2,74,0,90
2,74,100,0
2,74,0,60
2,77,100,0
2,77,0,90
2,77,100,0
2,77,0,90
2,77,100,0
2,77,0,60
2,76,100,0
2,76,0,90
2,76,100,0
2,76,0,90
2,76,100,0
2,76,0,60
2,77,100,0
2,77,0,90
2,77,100,0
2,77,0,90
2,77,100,0
2,77,0,60
2,76,100,0
2,76,0,90
2,76,100,0
2,76,0,90
2,76,100,0
2,76,0,60
2,77,100,0
2,77,0,90
2,77,100,0
2,77,0,90
2,77,100,0
2,77,0,60
2,76,100,0
2,76,0,90
2,76,100,0
2,76,0,90
2,76,100,0
2,76,0,60
2,77,100,0
2,77,0,90
2,77,100,0
2,77,0,90
2,77,100,0
2,77,0,60
2,74,100,0
2,74,0,90
2,74,100,0
2,74,0,90
2,74,100,0
2,74,0,60
2,77,100,0
2,77,0,60
2,77,100,0
2,77,0,90
2,77,100,0
2,77,0,60
2,76,100,0
2,76,0,90
2,76,100,0
2,76,0,90
2,76,100,0
2,76,0,60
2,77,100,0
2,77,0,50
2,77,100,0
2,77,0,90
2,77,100,0
2,77,0,60
2,76,100,0
2,76,0,90
2,76,100,0
2,76,0,90
2,76,100,0
2,76,0,60
2,77,100,0
2,77,0,90
2,77,100,0
2,77,0,90
2,77,100,0
2,77,0,60
2,76,100,0
2,76,0,90
2,76,100,0
2,76,0,90
2,76,100,0
2,76,0,60
2,77,100,0
2,77,0,90
2,77,100,0
2,77,0,90
2,77,100,0
2,77,0,60
2,74,100,0
2,74,0,90
2,74,100,0
2,74,0,90
2,74,100,0
2,74,0,40
2,77,100,0
2,77,0,90
2,77,100,0
2,77,0,90
2,77,100,0
2,77,0,60
2,76,100,0
2,76,0,90
2,76,100,0
2,76,0,90
2,76,100,0
2,76,0,30
2,77,100,0
2,77,0,90
2,77,100,0
2,77,0,20
2,77,100,0
2,77,0,20
2,76,100,0
2,76,0,10
2,76,100,0
2,76,0,10
2,76,100,0
2,76,0,40
2,77,100,0
2,77,0,20
2,77,100,0
2,77,0,90
2,77,100,0
2,77,0,60
2,76,100,0
2,76,0,90
2,76,100,0
2,76,0,90
2,76,100,0
2,76,0,60
2,77,100,0
2,77,0,90
2,77,100,0
2,77,0,90
2,77,100,0
2,77,0,60
2,74,100,0
2,74,0,90
2,74,100,0
2,74,0,90
2,74,100,0
2,74,0,60
3,69,100,0
3,69,0,959
3,69,100,1
3,69,0,959
3,62,100,46081
3,62,0,480
3,60,100,0
3,60,0,480
3,58,100,0
3,58,0,480
3,62,100,480
3,62,0,480
3,60,100,0
3,60,0,480
3,58,100,0
3,58,0,480
3,62,100,480
3,62,0,15
3,60,100,0
3,60,0,25
3,58,100,0
3,58,0,45
3,62,100,25
3,62,0,15
3,60,100,0
3,60,0,15
3,58,100,0
3,58,0,15
4,53,100,1920
4,57,100,0
4,62,100,0
4,62,0,240
4,57,0,0
4,53,0,0
4,53,100,240
4,57,100,0
4,57,0,480
4,53,0,0
4,58,100,0
4,53,100,0
4,62,100,0
4,62,0,240
4,53,0,0
4,58,0,0
4,58,100,240
4,53,100,0
4,62,100,0
4,62,0,480
4,53,0,0
4,58,0,0
4,53,100,0
4,57,100,0
4,62,100,0
4,62,0,180
4,57,0,0
4,53,0,0
4,57,100,300
4,57,0,480
4,58,100,0
4,62,100,0
4,53,100,0
4,53,0,240
4,62,0,0
4,58,0,0
4,53,100,240
4,58,100,0
4,62,100,0
4,62,0,480
4,58,0,0
4,53,0,0
4,53,100,0
4,57,100,0
4,62,100,0
4,62,0,240
4,57,0,0
4,53,0,0
4,53,100,240
4,57,100,0
4,62,100,0
4,62,0,480
4,57,0,0
4,53,0,0
4,57,100,0
4,60,100,0
4,65,100,0
4,65,0,240
4,60,0,0
4,57,0,0
4,60,100,240
4,64,100,0
4,67,100,0
4,67,0,480
4,64,0,0
4,60,0,0
4,57,100,0
4,62,100,0
4,65,100,0
4,65,0,480
4,62,0,0
4,57,0,0
4,57,100,0
4,57,0,480
4,53,100,0
4,58,100,0
4,62,100,0
4,62,0,480
4,58,0,0
4,53,0,0
4,57,100,0
4,60,100,0
4,65,100,0
4,65,0,480
4,60,0,0
4,57,0,0
4,55,100,480
4,60,100,0
4,65,100,0
4,65,0,240
4,60,0,0
4,55,0,0
4,55,100,0
4,60,100,0
4,62,100,0
4,62,0,240
4,60,0,0
4,55,0,0
4,53,100,0
4,58,100,0
4,62,100,0
4,62,0,240
4,58,0,0
4,53,0,0
4,53,100,360
4,58,100,0
4,62,100,0
4,62,0,360
4,58,0,0
4,53,0,0
4,53,100,0
4,57,100,0
4,62,100,0
4,62,0,480
4,57,0,0
4,53,0,0
4,60,100,0
4,55,100,0
4,65,100,0
4,65,0,240
4,55,0,0
4,60,0,0
4,55,100,0
4,60,100,0
4,62,100,0
4,62,0,240
4,60,0,0
4,55,0,0
4,58,100,0
4,62,100,0
4,65,100,0
4,69,100,0
4,69,0,240
4,58,0,0
4,62,0,0
4,65,0,0
4,67,100,0
4,62,100,0
4,58,100,0
4,58,0,240
4,62,0,0
4,67,0,0
4,58,100,0
4,62,100,0
4,65,100,0
4,65,0,240
4,62,0,0
4,58,0,0
4,58,100,0
4,55,100,0
4,64,100,0
4,64,0,240
4,55,0,0
4,58,0,0
4,53,100,960
4,57,100,0
4,62,100,0
4,62,0,240
4,57,0,0
4,53,0,0
4,53,100,240
4,57,100,0
4,57,0,480
4,53,0,0
4,58,100,0
4,53,100,0
4,62,100,0
4,62,0,240
4,53,0,0
4,58,0,0
4,58,100,240
4,53,100,0
4,62,100,0
4,62,0,480
4,53,0,0
4,58,0,0
4,53,100,0
4,57,100,0
4,62,100,0
4,62,0,180
4,57,0,0
4,53,0,0
4,57,100,300
4,57,0,480
4,58,100,0
4,62,100,0
4,53,100,0
4,53,0,240
4,62,0,0
4,58,0,0
4,53,100,240
4,58,100,0
4,62,100,0
4,62,0,480
4,58,0,0
4,53,0,0
4,53,100,0
4,57,100,0
4,62,100,0
4,62,0,240
4,57,0,0
4,53,0,0
4,53,100,240
4,57,100,0
4,62,100,0
4,62,0,480
4,57,0,0
4,53,0,0
4,57,100,0
4,60,100,0
4,65,100,0
4,65,0,240
4,60,0,0
4,57,0,0
4,60,100,240
4,64,100,0
4,67,100,0
4,67,0,480
4,64,0,0
4,60,0,0
4,57,100,0
4,62,100,0
4,65,100,0
4,65,0,480
4,62,0,0
4,57,0,0
4,57,100,0
4,57,0,480
4,53,100,0
4,58,100,0
