track,note,velocity,time
1,51,80,5820
1,51,0,48
1,60,80,12
1,60,0,48
1,60,80,12
1,60,0,204
1,56,80,36
1,56,0,48
1,63,80,72
1,63,0,48
1,61,80,12
1,61,0,48
1,60,80,12
1,60,0,108
1,56,80,12
1,56,0,96
1,58,80,24
1,58,0,48
1,63,80,72
1,63,0,48
1,61,80,12
1,61,0,48
1,60,80,12
1,60,0,108
1,56,80,12
1,56,0,144
1,63,80,96
1,63,0,48
1,61,80,12
1,61,0,48
1,60,80,12
1,60,0,108
1,56,80,12
1,56,0,144
1,51,80,96
1,51,0,48
1,60,80,12
1,60,0,48
1,60,80,12
1,60,0,204
1,60,80,36
1,60,0,48
1,65,80,72
1,65,0,48
1,60,80,12
1,60,0,48
1,58,80,12
1,58,0,156
1,71,80,144
1,71,0,144
1,70,80,36
1,70,0,156
1,63,80,24
1,63,0,48
1,63,80,12
1,63,0,285
1,51,80,315
1,51,0,48
1,60,80,12
1,60,0,48
1,60,80,12
1,60,0,204
1,56,80,36
1,56,0,48
1,63,80,72
1,63,0,48
1,61,80,12
1,61,0,48
1,60,80,12
1,60,0,108
1,56,80,12
1,56,0,144
1,63,80,96
1,63,0,48
1,61,80,12
1,61,0,48
1,60,80,12
1,60,0,108
1,56,80,12
1,56,0,48
1,58,80,12
1,58,0,48
1,61,80,12
1,61,0,108
1,61,80,72
1,61,0,48
1,61,80,12
1,61,0,48
1,60,80,12
1,60,0,48
1,56,80,12
1,56,0,48
1,58,80,12
1,58,0,48
1,60,80,12
1,60,0,30
1,58,80,0
1,58,0,30
1,60,80,0
1,60,0,96
1,60,80,204
1,60,0,48
1,63,80,12
1,63,0,48
1,65,80,12
1,65,0,108
1,60,80,12
1,60,0,48
1,60,80,12
1,60,0,48
1,58,80,12
1,58,0,156
1,71,80,144
1,71,0,144
1,70,80,36
1,70,0,156
1,63,80,24
1,63,0,48
1,63,80,12
1,63,0,252
1,65,80,348
1,65,0,48
1,65,80,12
1,65,0,57
1,63,80,3
1,63,0,48
1,63,80,12
1,63,0,57
1,60,80,3
1,60,0,48
1,60,80,12
1,60,0,57
1,58,80,3
1,58,0,48
1,60,80,12
1,60,0,288
1,65,80,252
1,65,0,48
1,65,80,12
1,65,0,48
1,63,80,12
1,63,0,48
1,63,80,12
1,63,0,48
1,60,80,12
1,60,0,48
1,60,80,12
1,60,0,57
1,58,80,3
1,58,0,48
1,58,80,12
1,58,0,288
1,60,80,252
1,60,0,48
1,60,80,12
1,60,0,48
1,58,80,12
1,58,0,48
1,58,80,12
1,58,0,48
1,56,80,12
1,56,0,48
1,56,80,12
1,56,0,57
1,53,80,3
1,53,0,48
1,58,80,12
1,58,0,144
1,60,80,36
1,60,0,108
1,61,80,12
1,61,0,144
1,60,80,96
1,60,0,48
1,60,80,12
1,60,0,48
1,58,80,12
1,58,0,48
1,58,80,12
1,58,0,48
1,56,80,12
1,56,0,48
1,53,80,12
1,53,0,48
1,56,80,12
1,56,0,48
1,56,80,12
1,56,0,288
1,63,80,192
1,63,0,180
1,61,80,0
1,61,0,156
1,63,80,24
1,63,0,48
1,63,80,12
1,63,0,120
1,60,80,0
1,60,0,30
1,58,80,0
1,58,0,30
1,60,80,0
1,60,0,360
1,59,80,60
1,59,0,48
1,58,80,12
1,58,0,48
1,58,80,12
1,58,0,156
1,51,80,204
1,51,0,48
1,60,80,12
1,60,0,48
1,60,80,12
1,60,0,204
1,56,80,36
1,56,0,48
1,63,80,72
1,63,0,48
1,61,80,12
1,61,0,48
1,60,80,12
1,60,0,108
1,56,80,12
1,56,0,144
1,63,80,96
1,63,0,48
1,61,80,12
1,61,0,48
1,60,80,12
1,60,0,108
1,56,80,12
1,56,0,48
1,58,80,12
1,58,0,48
1,61,80,12
1,61,0,108
1,61,80,72
1,61,0,48
1,61,80,12
1,61,0,48
1,60,80,12
1,60,0,48
1,56,80,12
1,56,0,48
1,58,80,12
1,58,0,48
1,60,80,12
1,60,0,30
1,58,80,0
1,58,0,30
1,60,80,0
1,60,0,96
1,51,80,84
1,51,0,48
1,60,80,12
1,60,0,48
1,60,80,12
1,60,0,108
1,60,80,12
1,60,0,48
1,65,80,72
1,65,0,48
1,60,80,12
1,60,0,48
1,58,80,12
1,58,0,156
1,71,80,144
1,71,0,96
1,71,80,24
1,71,0,48
1,70,80,12
1,70,0,116
1,63,80,4
1,63,0,48
1,63,80,12
1,63,0,48
1,63,80,12
1,63,0,156
1,51,80,444
1,51,0,48
1,60,80,12
1,60,0,48
1,60,80,12
1,60,0,204
1,56,80,36
1,56,0,48
1,56,80,72
1,56,0,57
1,63,80,3
1,63,0,48
1,63,80,12
1,63,0,172
1,63,80,188
1,63,0,48
1,61,80,12
1,61,0,48
1,60,80,12
1,60,0,108
1,56,80,12
1,56,0,48
1,58,80,12
1,58,0,48
1,61,80,12
1,61,0,108
1,61,80,72
1,61,0,48
1,61,80,12
1,61,0,48
1,60,80,12
1,60,0,48
1,56,80,12
1,56,0,48
1,58,80,12
1,58,0,48
1,60,80,12
1,60,0,30
1,58,80,0
1,58,0,30
1,60,80,0
1,60,0,96
1,60,80,204
1,60,0,48
1,63,80,12
1,63,0,112
1,65,80,68
1,65,0,48
1,60,80,12
1,60,0,48
1,58,80,12
1,58,0,156
1,56,80,84
1,56,0,48
1,71,80,12
1,71,0,144
1,70,80,36
1,70,0,156
1,63,80,24
1,63,0,48
1,63,80,12
1,63,0,252
1,65,80,348
1,65,0,48
1,65,80,12
1,65,0,57
1,63,80,3
1,63,0,48
1,63,80,12
1,63,0,57
1,60,80,3
1,60,0,48
1,60,80,12
1,60,0,57
1,58,80,3
1,58,0,48
1,60,80,12
1,60,0,288
1,65,80,252
1,65,0,48
1,65,80,12
1,65,0,48
1,63,80,12
1,63,0,48
1,63,80,12
1,63,0,57
1,60,80,3
1,60,0,48
1,60,80,12
1,60,0,57
1,58,80,3
1,58,0,48
1,58,80,12
1,58,0,288
1,60,80,252
1,60,0,48
1,60,80,12
1,60,0,48
1,58,80,12
1,58,0,48
1,58,80,12
1,58,0,48
1,56,80,12
1,56,0,48
1,56,80,12
1,56,0,57
1,53,80,3
1,53,0,48
1,58,80,12
1,58,0,144
1,60,80,36
1,60,0,108
1,61,80,12
1,61,0,144
1,60,80,96
1,60,0,48
1,60,80,12
1,60,0,48
1,58,80,12
1,58,0,48
1,58,80,12
1,58,0,48
1,56,80,12
1,56,0,48
1,53,80,12
1,53,0,57
1,56,80,3
1,56,0,48
1,56,80,12
1,56,0,288
1,65,80,252
1,65,0,48
1,65,80,12
1,65,0,57
1,63,80,3
1,63,0,48
1,63,80,12
1,63,0,57
1,60,80,3
1,60,0,48
1,60,80,12
1,60,0,57
1,58,80,3
1,58,0,48
1,60,80,12
1,60,0,288
1,65,80,252
1,65,0,48
1,65,80,12
1,65,0,57
1,63,80,3
1,63,0,48
1,63,80,12
1,63,0,57
1,60,80,3
1,60,0,48
1,60,80,12
1,60,0,57
1,58,80,3
1,58,0,48
1,58,80,12
1,58,0,288
1,60,80,252
1,60,0,48
1,60,80,12
1,60,0,48
1,58,80,12
1,58,0,48
1,58,80,12
1,58,0,48
1,56,80,12
1,56,0,48
1,56,80,12
1,56,0,57
1,53,80,3
1,53,0,48
1,58,80,12
1,58,0,144
1,60,80,36
1,60,0,108
1,61,80,12
1,61,0,144
1,60,80,96
1,60,0,48
1,60,80,12
1,60,0,48
1,58,80,12
1,58,0,48
1,58,80,12
1,58,0,48
1,56,80,12
1,56,0,48
1,53,80,12
1,53,0,57
1,56,80,3
1,56,0,48
1,56,80,12
1,56,0,288
1,63,80,192
1,63,0,180
1,61,80,0
1,61,0,156
1,63,80,24
1,63,0,48
1,63,80,12
1,63,0,120
1,60,80,0
1,60,0,30
1,58,80,0
1,58,0,30
1,60,80,0
1,60,0,360
1,59,80,60
1,59,0,48
1,58,80,12
1,58,0,48
1,58,80,12
1,58,0,156
1,71,80,144
1,71,0,96
1,71,80,24
1,71,0,48
1,70,80,12
1,70,0,108
1,68,80,12
1,68,0,48
1,63,80,12
1,63,0,48
1,63,80,12
1,63,0,252
1,63,80,228
1,63,0,48
1,71,80,12
1,71,0,96
1,71,80,24
1,71,0,48
1,70,80,12
1,70,0,108
1,68,80,12
1,68,0,108
1,63,80,12
1,63,0,108
1,63,80,12
1,63,0,30
1,61,80,0
1,61,0,30
1,63,80,0
1,63,0,240
1,63,80,60
1,63,0,48
1,71,80,12
1,71,0,96
1,71,80,24
1,71,0,48
1,70,80,12
1,70,0,108
1,68,80,12
1,68,0,48
1,71,80,72
1,71,0,60
1,70,80,0
1,70,0,48
1,70,80,12
1,70,0,48
1,70,80,12
1,70,0,48
1,70,80,12
1,70,0,48
1,68,80,12
1,68,0,48
1,68,80,12
1,68,0,48
1,68,80,12
1,68,0,96
1,63,80,24
1,63,0,48
1,63,80,12
1,63,0,48
1,63,80,12
1,63,0,48
1,63,80,12
1,63,0,48
1,63,80,12
1,63,0,48
1,63,80,12
1,63,0,48
1,63,80,12
1,63,0,48
1,56,80,372
1,56,0,48
1,56,80,12
1,56,0,48
1,60,80,12
1,60,0,48
1,60,80,12
1,60,0,30
1,58,80,0
1,58,0,30
1,60,80,0
1,60,0,300
1,65,80,180
1,65,0,48
1,65,80,12
1,65,0,57
1,63,80,3
1,63,0,48
1,63,80,12
1,63,0,57
1,60,80,3
1,60,0,48
1,60,80,12
1,60,0,57
1,58,80,3
1,58,0,48
1,60,80,12
1,60,0,288
1,58,80,312
1,58,0,48
1,60,80,12
1,60,0,48
1,61,80,12
1,61,0,57
1,63,80,3
1,63,0,96
1,58,80,24
1,58,0,108
1,60,80,12
1,60,0,48
1,60,80,12
1,60,0,48
1,58,80,12
1,58,0,48
1,58,80,12
1,58,0,48
1,56,80,12
1,56,0,48
1,56,80,12
1,56,0,57
1,53,80,3
1,53,0,48
1,58,80,12
1,58,0,144
1,60,80,36
1,60,0,108
1,61,80,12
1,61,0,144
1,60,80,96
1,60,0,48
1,60,80,12
1,60,0,48
1,58,80,12
1,58,0,48
1,58,80,12
1,58,0,48
1,56,80,12
1,56,0,48
1,53,80,12
1,53,0,57
1,56,80,3
1,56,0,48
1,56,80,12
1,56,0,288
1,65,80,252
1,65,0,48
1,65,80,12
1,65,0,57
1,63,80,3
1,63,0,48
1,63,80,12
1,63,0,57
1,60,80,3
1,60,0,48
1,60,80,12
1,60,0,57
1,58,80,3
1,58,0,48
1,60,80,12
1,60,0,288
1,65,80,252
1,65,0,48
1,65,80,12
1,65,0,48
1,63,80,12
1,63,0,48
1,63,80,12
1,63,0,48
1,60,80,12
1,60,0,48
1,60,80,12
1,60,0,57
1,58,80,3
1,58,0,48
1,58,80,12
1,58,0,288
1,60,80,252
1,60,0,48
1,60,80,12
1,60,0,48
1,58,80,12
1,58,0,48
1,58,80,12
1,58,0,48
1,56,80,12
1,56,0,48
1,56,80,12
1,56,0,57
1,53,80,3
1,53,0,48
1,58,80,12
1,58,0,144
1,60,80,36
1,60,0,108
1,61,80,12
1,61,0,144
1,60,80,96
1,60,0,48
1,60,80,12
1,60,0,48
1,58,80,12
1,58,0,48
1,58,80,12
1,58,0,48
1,56,80,12
1,56,0,48
1,53,80,12
1,53,0,57
1,56,80,3
1,56,0,48
1,56,80,12
1,56,0,288
1,63,80,192
1,63,0,173
1,61,80,7
1,61,0,156
1,63,80,24
1,63,0,48
1,63,80,12
1,63,0,120
1,60,80,0
1,60,0,30
1,58,80,0
1,58,0,30
1,60,80,0
1,60,0,360
1,59,80,60
1,59,0,48
1,58,80,12
1,58,0,48
1,58,80,12
1,58,0,156
1,56,80,504
1,56,0,60
1,60,80,0
1,60,0,108
1,60,80,12
1,60,0,30
1,58,80,0
1,58,0,30
1,56,80,0
1,56,0,240
2,56,80,9060
2,56,0,48
2,56,80,12
2,56,0,30
2,56,80,30
2,56,0,30
2,56,80,30
2,56,0,30
2,56,80,30
2,56,0,30
2,56,80,30
2,56,0,30
2,56,80,30
2,56,0,30
2,56,80,30
2,56,0,30
2,56,80,30
2,56,0,30
2,56,80,30
2,56,0,384
2,60,80,1536
2,60,0,48
2,61,80,12
2,61,0,48
2,60,80,12
2,60,0,48
2,60,80,12
2,60,0,252
2,56,80,948
2,56,0,48
2,56,80,12
2,56,0,30
2,56,80,30
2,56,0,30
2,56,80,30
2,56,0,30
2,56,80,30
2,56,0,30
2,56,80,30
2,56,0,30
2,56,80,30
2,56,0,30
2,56,80,30
2,56,0,30
2,56,80,30
2,56,0,30
2,56,80,30
2,56,0,96
2,68,80,384
2,68,0,144
2,67,80,36
2,67,0,108
2,63,80,12
2,63,0,96
2,58,80,24
2,58,0,444
2,70,80,96
2,70,0,144
2,68,80,36
2,68,0,108
2,65,80,12
2,65,0,96
2,61,80,24
2,61,0,444
2,58,80,96
2,58,0,180
2,60,80,0
2,60,0,120
2,61,80,0
2,61,0,120
2,70,80,0
2,70,0,240
2,68,80,0
2,68,0,300
2,56,80,5220
2,56,0,48
2,56,80,12
2,56,0,30
2,56,80,30
2,56,0,30
2,56,80,30
2,56,0,30
2,56,80,30
2,56,0,30
2,56,80,30
2,56,0,30
2,56,80,30
2,56,0,30
2,56,80,30
2,56,0,30
2,56,80,30
2,56,0,30
2,56,80,30
2,56,0,384
2,60,80,1536
2,60,0,48
2,61,80,12
2,61,0,48
2,60,80,12
2,60,0,48
2,60,80,12
2,60,0,252
2,56,80,948
2,56,0,48
2,56,80,12
2,56,0,30
2,56,80,30
2,56,0,30
2,56,80,30
2,56,0,30
2,56,80,30
2,56,0,30
2,56,80,30
2,56,0,30
2,56,80,30
2,56,0,30
2,56,80,30
2,56,0,30
2,56,80,30
2,56,0,30
2,56,80,30
2,56,0,96
2,68,80,384
2,68,0,144
2,67,80,36
2,67,0,108
2,63,80,12
2,63,0,96
2,58,80,24
2,58,0,444
2,70,80,96
2,70,0,144
2,68,80,36
2,68,0,108
2,65,80,12
2,65,0,96
2,61,80,24
2,61,0,444
2,58,80,96
2,58,0,180
2,60,80,0
2,60,0,120
2,61,80,0
2,61,0,120
2,70,80,0
2,70,0,240
2,68,80,0
2,68,0,300
2,56,80,480
2,56,0,96
2,68,80,384
2,68,0,144
2,67,80,36
2,67,0,108
2,63,80,12
2,63,0,96
2,58,80,24
2,58,0,444
2,70,80,96
2,70,0,144
2,68,80,36
2,68,0,108
2,65,80,12
2,65,0,96
2,61,80,24
2,61,0,444
2,58,80,96
2,58,0,180
2,60,80,0
2,60,0,120
2,61,80,0
2,61,0,120
2,70,80,0
2,70,0,240
2,68,80,0
2,68,0,300
2,56,80,2400
2,56,0,48
2,58,80,12
2,58,0,48
2,60,80,12
2,60,0,48
2,58,80,12
2,58,0,60
2,56,80,0
2,56,0,192
2,64,80,1428
2,71,80,0
2,71,0,60
2,64,0,0
2,63,80,0
2,70,80,0
2,70,0,48
2,63,0,0
2,63,80,12
2,70,80,0
2,70,0,48
2,63,0,0
2,63,80,12
2,70,80,0
2,70,0,48
2,63,0,0
2,65,80,12
2,68,80,0
2,68,0,48
2,65,0,0
2,61,80,12
2,68,80,0
2,68,0,48
2,61,0,0
2,61,80,12
2,68,80,0
2,68,0,48
2,61,0,0
2,61,80,12
2,68,80,0
2,68,0,96
2,61,0,0
2,58,80,444
2,58,0,48
2,56,80,12
2,56,0,48
2,56,80,12
2,56,0,48
2,56,80,12
2,56,0,48
2,56,80,12
2,56,0,48
2,56,80,12
2,56,0,48
2,56,80,12
2,56,0,48
2,56,80,12
2,56,0,48
2,60,80,12
2,60,0,48
2,60,80,12
2,60,0,30
2,58,80,0
2,58,0,30
2,60,80,0
2,60,0,300
2,65,80,660
2,65,0,48
2,65,80,12
2,65,0,57
2,63,80,3
2,63,0,48
2,63,80,12
2,63,0,57
2,60,80,3
2,60,0,48
2,60,80,12
2,60,0,57
2,63,80,3
2,63,0,48
2,58,80,12
2,58,0,384
2,70,80,96
2,70,0,144
2,68,80,36
2,68,0,108
