track,note,velocity,time
0,42,127,214
0,42,105,93
0,42,100,93
0,42,100,93
0,60,115,93
0,36,109,0
0,60,46,0
0,64,55,0
0,67,50,0
0,55,107,0
0,79,60,144
0,79,60,0
0,79,70,0
0,36,71,0
0,48,105,0
0,79,59,0
0,40,44,0
0,52,78,0
0,79,57,0
0,43,66,24
0,55,100,0
0,79,60,0
0,79,57,0
0,84,62,0
0,57,107,0
0,60,111,0
0,60,66,0
0,65,61,0
0,69,64,0
0,81,64,0
0,45,71,96
0,57,105,0
0,41,64,20
0,53,98,0
0,81,63,0
0,81,64,0
0,81,74,0
0,81,71,0
0,81,71,0
0,81,71,0
0,81,71,0
0,79,71,0
0,62,107,0
0,59,54,0
0,62,68,0
0,67,59,0
0,79,55,0
0,77,55,0
0,65,70,0
0,77,74,0
0,77,60,0
0,77,57,0
0,77,66,0
0,77,58,0
0,77,49,0
0,55,113,0
0,60,88,0
0,55,46,0
0,60,45,0
0,64,47,0
0,77,52,0
0,76,62,0
0,74,55,0
0,76,72,0
0,47,107,0
0,59,111,0
0,64,113,0
0,47,66,0
0,55,51,0
0,59,73,0
0,64,61,0
0,76,66,0
0,47,58,0
0,59,63,0
0,64,67,0
0,67,58,0
0,79,58,84
0,45,105,0
0,57,96,0
0,60,104,0
0,45,66,0
0,57,67,0
0,60,74,0
0,81,68,0
0,45,63,0
0,57,56,0
0,60,60,0
0,76,50,100
0,76,49,0
0,79,59,0
0,38,119,0
0,55,94,0
0,57,96,0
0,50,79,0
0,62,47,0
0,67,50,0
0,69,52,0
0,72,46,0
0,79,61,0
0,38,48,0
0,50,65,0
0,57,48,0
0,54,89,8
0,66,52,0
0,78,60,0
0,54,34,0
0,54,127,4
0,76,66,0
0,60,41,0
0,36,111,4
0,54,127,0
0,48,80,0
0,74,62,0
0,36,54,0
0,54,127,12
0,54,127,8
0,76,64,0
0,54,127,8
0,74,58,0
0,47,59,0
0,55,42,0
0,62,65,0
0,47,107,0
0,55,90,0
0,47,64,0
0,55,85,0
0,67,61,0
0,71,50,0
0,74,60,0
0,62,127,0
0,62,84,8
0,62,127,0
0,62,80,12
0,62,127,0
0,38,87,0
0,38,85,0
0,62,93,8
0,62,127,0
0,62,63,4
0,62,111,0
0,43,106,0
0,43,65,0
0,48,80,0
0,60,66,0
0,55,76,48
0,60,64,16
0,60,85,32
0,64,70,44
0,67,92,4
0,60,62,24
0,67,101,4
0,64,66,40
0,60,57,32
0,67,80,4
0,55,59,8
0,48,64,0
0,60,47,0
0,67,101,0
0,55,52,16
0,67,85,4
0,60,66,44
0,67,86,0
0,64,68,0
0,67,112,28
0,60,58,0
0,64,62,44
0,60,60,32
0,72,115,4
0,55,59,0
0,48,60,0
0,60,46,0
0,69,102,0
0,57,55,44
0,60,72,48
0,65,63,4
0,60,52,4
0,65,57,48
0,60,57,8
0,69,81,0
0,57,53,0
0,69,75,0
0,48,53,24
0,60,45,0
0,69,98,0
0,57,57,8
0,69,86,16
0,60,54,32
0,69,66,28
0,65,66,16
0,69,99,0
0,60,44,0
0,65,46,48
0,60,51,4
0,69,97,4
0,57,55,0
0,67,73,4
0,48,80,4
0,60,47,0
0,67,84,0
0,55,68,40
0,59,74,48
0,62,74,40
0,65,61,40
0,62,61,8
0,62,99,36
0,59,60,4
0,64,67,0
0,62,63,4
0,65,94,0
0,48,78,0
0,60,37,0
0,55,63,8
0,65,80,16
0,59,74,32
0,65,76,28
0,62,61,16
0,65,91,32
0,65,70,0
0,62,55,44
0,59,53,0
0,65,88,0
0,62,62,0
0,65,69,0
0,48,55,0
0,60,46,0
0,65,94,4
0,55,49,40
0,64,73,0
0,60,70,4
0,64,70,0
0,62,62,0
0,64,65,0
0,60,57,4
0,64,59,44
0,60,51,8
0,55,54,4
0,48,74,40
0,60,52,0
0,55,59,44
0,60,78,48
0,64,78,40
0,64,92,0
0,60,52,12
0,64,102,4
0,64,68,0
0,67,106,0
0,60,89,4
0,64,66,0
0,59,82,0
0,69,116,0
0,48,78,0
0,69,60,0
0,57,66,48
0,60,72,48
0,64,76,8
0,64,72,0
0,60,70,0
0,64,60,0
0,64,68,44
0,60,53,40
0,57,53,44
0,64,97,8
0,48,76,0
0,64,54,0
0,57,72,4
0,64,89,28
0,60,80,20
0,64,75,24
0,64,72,0
0,60,56,24
0,64,88,0
0,64,60,44
0,60,63,12
0,64,79,4
0,57,66,4
0,67,90,0
0,50,82,4
0,62,48,0
0,67,108,4
0,62,85,0
0,57,60,36
0,66,92,4
0,62,66,20
0,66,78,16
0,66,61,12
0,62,58,8
0,66,85,4
0,66,52,40
0,62,55,36
0,57,57,0
0,64,88,4
0,48,85,0
0,60,62,0
0,64,105,0
0,60,91,8
0,57,64,32
0,62,91,8
0,62,82,24
0,62,79,32
0,66,70,8
0,62,61,12
0,62,83,4
0,66,63,36
0,62,70,4
0,62,96,0
0,57,60,48
0,64,76,0
0,62,91,0
0,47,85,0
0,59,64,0
0,59,101,8
0,55,82,32
0,59,89,48
0,62,70,48
0,67,59,32
0,62,66,40
0,59,48,0
0,62,86,0
0,62,63,20
0,50,89,32
0,62,74,0
0,62,103,0
0,62,100,0
0,57,76,4
0,62,91,16
0,62,93,32
0,62,79,24
0,66,63,16
0,69,99,24
0,62,54,4
0,66,55,0
0,67,85,12
0,62,60,32
0,66,76,0
0,57,55,16
0,67,85,4
0,43,98,0
0,55,68,0
0,55,102,0
0,55,82,44
0,59,98,48
0,62,76,8
0,67,49,36
0,62,58,44
0,59,42,36
0,55,50,40
0,36,127,0
0,48,107,4
0,55,94,92
0,60,95,0
0,52,113,0
0,55,113,0
0,60,113,0
0,67,96,52
0,60,94,0
0,64,91,0
0,55,113,0
0,60,113,0
0,64,113,0
0,67,111,4
0,65,98,0
0,64,87,28
0,65,90,4
0,36,127,0
0,67,103,4
0,67,81,36
0,55,97,40
0,60,93,0
0,52,113,0
0,55,113,0
0,60,113,0
0,67,96,32
0,60,89,0
0,64,89,0
0,55,113,0
0,60,113,0
0,64,113,0
0,67,116,4
0,72,125,4
0,36,127,0
0,69,96,0
0,57,87,96
0,60,82,0
0,53,113,0
0,57,113,0
0,60,113,0
0,60,89,4
0,65,85,0
0,57,113,0
0,60,113,0
0,65,113,0
0,69,83,20
0,69,76,24
0,36,127,0
0,69,101,4
0,69,85,4
0,57,92,24
0,60,85,0
0,53,113,0
0,57,113,0
0,60,113,0
0,69,71,28
0,69,101,0
0,60,87,0
0,65,82,0
0,57,113,0
0,60,113,0
0,65,113,0
0,69,90,12
0,67,66,0
0,67,97,0
0,36,127,4
0,55,87,96
0,62,80,0
0,55,113,0
0,59,113,0
0,62,113,0
0,59,85,24
0,65,85,0
0,59,113,0
0,62,113,0
0,65,113,0
0,62,98,96
0,64,78,4
0,65,100,0
0,36,127,0
0,65,89,16
0,55,76,32
0,62,85,0
0,55,113,0
0,59,113,0
0,62,113,0
0,65,86,24
0,65,96,0
0,59,89,0
0,65,76,0
0,59,113,0
0,62,113,0
0,65,113,0
0,67,100,0
0,65,79,36
0,65,102,20
0,65,93,0
0,65,97,4
0,36,127,0
0,64,89,16
0,55,87,32
0,60,82,0
0,52,113,0
0,55,113,0
0,60,113,0
0,62,76,8
0,64,78,0
0,60,85,0
0,64,80,0
0,55,113,0
0,60,113,0
0,64,113,0
0,48,89,0
0,36,127,4
0,55,87,96
0,60,80,0
0,52,113,0
0,55,113,0
0,60,113,0
0,64,94,48
0,64,106,4
0,60,89,0
0,64,89,0
0,55,113,0
0,60,113,0
0,64,113,0
0,67,118,4
0,59,113,4
0,69,123,0
0,36,127,0
0,59,97,92
0,64,89,0
0,60,80,0
0,52,113,0
0,57,113,0
0,60,113,0
0,64,88,0
0,57,82,4
0,64,82,0
0,64,85,0
0,57,113,0
0,60,113,0
0,64,113,0
0,36,127,16
0,64,101,4
0,64,92,28
0,59,94,20
0,64,87,0
0,60,78,0
0,52,113,0
0,57,113,0
0,60,113,0
0,64,80,28
0,57,89,8
0,64,87,0
0,64,85,0
0,57,113,0
0,60,113,0
0,64,113,0
0,64,96,0
0,64,92,0
0,67,100,8
0,38,127,0
0,50,94,0
0,50,102,0
0,67,103,4
0,66,92,4
0,50,87,20
0,62,80,0
0,54,113,0
0,57,113,0
0,66,113,0
0,66,103,36
0,57,97,12
0,66,74,0
0,57,113,0
0,62,113,0
0,66,113,0
0,66,101,0
0,64,84,24
0,76,98,0
0,76,98,0
0,36,127,0
0,64,94,0
0,62,87,0
0,74,98,0
0,50,87,24
0,62,89,0
0,54,113,0
0,57,113,0
0,62,72,20
0,74,98,4
0,57,94,12
0,74,98,0
0,66,76,0
0,57,113,0
0,62,113,0
0,66,113,0
0,62,97,0
0,74,98,24
0,62,98,0
0,74,98,8
0,76,98,0
0,64,73,4
0,74,98,0
0,35,127,0
0,62,96,0
0,55,80,92
0,62,92,0
0,59,93,0
0,55,113,0
0,59,113,0
0,62,113,0
0,59,87,0
0,67,89,0
0,62,93,0
0,59,113,0
0,62,113,0
0,67,113,0
0,62,92,0
0,59,110,0
0,55,113,0
0,59,113,0
0,62,113,0
0,62,105,28
0,62,102,4
0,38,127,0
0,62,81,8
0,50,87,4
0,62,93,0
0,54,113,0
0,57,113,0
0,62,63,32
0,69,97,0
0,57,78,0
0,60,92,0
0,60,113,0
0,66,87,0
0,57,113,0
0,60,113,0
0,62,113,0
0,66,113,0
0,67,85,0
0,66,79,0
0,67,89,0
0,59,69,0
0,43,127,0
0,55,75,0
0,55,105,0
0,55,85,84
0,62,87,0
0,55,113,0
0,59,113,0
0,62,113,0
0,62,92,12
0,67,89,0
0,59,113,0
0,62,113,0
0,67,113,0
0,48,82,0
0,36,94,0
0,48,94,0
0,48,82,0
0,64,105,4
0,55,86,4
0,60,86,0
0,64,86,0
0,55,86,0
0,60,86,0
0,64,86,0
0,64,87,0
0,55,86,8
0,60,86,0
0,64,86,0
0,55,86,0
0,60,86,0
0,64,86,0
0,64,79,0
0,55,48,8
0,60,58,0
0,64,58,0
0,43,94,0
0,55,94,0
0,55,48,0
0,60,58,0
0,64,58,0
0,64,85,4
0,48,82,4
0,55,78,0
0,60,85,0
0,64,85,0
0,48,94,0
0,60,94,0
0,48,82,0
0,55,78,0
0,60,85,0
0,64,85,0
0,65,83,0
0,50,80,0
0,55,85,0
0,60,69,0
0,65,80,0
0,50,80,0
0,55,85,0
0,60,69,0
0,65,80,0
0,67,95,0
0,52,69,0
0,55,71,0
0,67,71,0
0,52,69,8
0,55,71,0
0,67,71,0
0,69,71,4
0,65,71,4
0,60,58,0
0,69,104,0
0,48,69,0
0,57,75,0
0,60,58,0
0,65,71,0
0,69,71,0
0,36,94,0
0,48,94,0
0,48,69,0
0,57,75,0
0,55,60,0
0,64,60,4
0,67,54,0
0,67,92,0
0,64,60,0
0,67,54,0
0,55,60,4
0,55,71,4
0,60,65,0
0,64,67,0
0,43,94,0
0,55,94,0
0,55,71,0
0,60,65,0
0,64,67,0
0,48,94,20
0,60,94,0
0,55,80,4
0,60,82,0
0,64,82,0
0,55,80,0
0,60,82,0
0,64,82,0
0,57,87,4
0,60,65,0
0,65,75,0
0,57,87,0
0,65,75,0
0,55,85,4
0,60,78,0
0,64,75,0
0,67,65,0
0,55,85,0
0,64,75,0
0,67,65,0
0,67,95,4
0,48,58,0
0,57,85,0
0,60,80,0
0,65,69,0
0,69,71,0
0,36,94,0
0,48,94,0
0,48,58,0
0,57,85,0
0,60,80,0
0,65,69,0
0,69,71,0
0,69,114,0
0,57,65,4
0,60,65,0
0,65,60,0
0,69,62,0
0,57,65,0
0,60,65,0
0,65,60,0
0,69,62,0
0,69,94,20
0,67,101,4
0,60,71,0
0,64,67,8
0,67,71,0
0,55,82,8
0,60,71,0
0,64,67,0
0,67,71,0
0,43,94,0
0,55,94,0
0,55,82,0
0,72,112,4
0,48,42,8
0,60,82,0
0,64,87,0
0,67,80,0
0,72,80,0
0,48,94,0
0,60,94,0
0,48,42,0
0,60,82,0
0,64,87,0
0,67,80,0
0,72,80,0
0,67,101,4
0,55,85,0
0,60,90,0
0,64,85,0
0,67,80,0
0,55,85,0
0,60,90,0
0,64,85,0
0,67,80,0
0,65,96,0
0,48,65,8
0,55,82,0
0,62,80,0
0,65,69,0
0,36,94,0
0,48,94,0
0,48,65,0
0,55,82,0
0,62,80,0
0,65,69,0
0,64,106,4
0,60,58,0
0,64,62,0
0,60,58,0
0,64,62,0
0,43,94,96
0,55,94,0
0,48,94,16
0,60,94,0
0,64,87,4
0,48,67,0
0,55,80,0
0,60,82,0
0,64,87,0
0,48,67,0
0,55,80,0
0,60,82,0
0,64,87,0
0,62,73,0
0,65,60,0
0,62,73,0
0,65,60,0
0,65,98,0
0,64,44,4
0,67,78,0
0,64,44,0
0,67,78,0
0,67,90,0
0,62,110,0
0,43,46,0
0,50,65,0
0,59,62,0
0,62,67,0
0,31,92,0
0,43,92,0
0,43,46,0
0,50,65,0
0,59,62,0
0,62,67,0
0,43,70,4
0,50,70,0
0,59,70,0
0,62,70,0
0,43,70,0
0,50,70,0
0,59,70,0
0,62,70,0
0,62,96,16
0,43,92,80
0,55,92,0
0,50,92,8
0,62,92,0
0,43,67,4
0,50,67,0
0,59,71,0
0,62,78,0
0,43,67,0
0,50,67,0
0,59,71,0
0,62,78,0
0,62,92,0
0,64,58,0
0,64,58,0
0,64,108,0
0,65,91,0
0,65,65,4
0,65,65,0
0,60,105,4
0,45,48,0
0,52,40,0
0,57,50,0
0,60,58,0
0,33,92,0
0,45,92,0
0,45,56,0
0,52,56,0
0,57,56,0
0,60,56,0
0,45,38,0
0,52,26,0
0,57,39,0
0,60,52,0
0,45,50,0
0,52,50,0
0,57,50,0
0,60,50,0
0,60,90,0
0,45,92,96
0,57,92,0
0,52,92,0
0,64,92,0
0,60,100,8
0,45,69,4
0,52,65,0
0,57,67,0
0,60,71,0
0,45,69,0
0,52,65,0
0,57,67,0
0,60,71,0
0,62,107,4
0,59,69,0
0,62,65,0
0,59,69,0
0,62,65,0
0,60,95,0
0,57,75,0
0,60,75,0
0,57,75,0
0,60,75,0
0,64,110,0
0,36,110,4
0,55,82,0
0,59,76,0
0,64,76,0
0,35,92,0
0,47,92,0
0,36,110,0
0,55,82,0
0,59,76,0
0,64,76,0
0,67,94,0
0,67,82,4
0,67,82,0
0,36,102,32
0,55,98,0
0,59,85,0
0,64,78,0
0,67,85,0
0,35,92,0
0,47,92,0
0,36,102,0
0,55,98,0
0,59,85,0
0,64,78,0
0,67,85,0
0,36,105,24
0,55,95,0
0,59,80,0
0,64,82,0
0,67,80,0
0,35,92,0
0,47,92,0
0,36,105,0
0,55,95,0
0,59,80,0
0,64,82,0
0,67,80,0
0,55,88,16
0,55,98,20
0,36,105,4
0,55,95,0
0,59,80,0
0,64,70,0
0,67,66,0
0,35,92,0
0,47,92,0
0,36,105,0
0,55,95,0
0,59,80,0
0,64,70,0
0,67,66,0
0,55,93,24
0,57,108,4
0,41,87,4
0,53,62,0
0,57,54,0
0,60,65,0
0,64,67,0
0,29,92,0
0,41,92,0
0,41,87,0
0,53,62,0
0,57,54,0
0,60,65,0
0,64,67,0
0,60,98,0
0,41,82,4
0,53,60,0
0,57,54,0
0,60,56,0
0,64,62,0
0,41,82,0
0,53,60,0
0,57,54,0
0,60,56,0
0,64,62,0
0,41,78,28
0,53,38,0
0,57,52,0
0,60,40,0
0,64,44,0
0,29,92,0
0,41,92,0
0,41,78,0
0,53,38,0
0,57,52,0
0,60,40,0
0,64,44,0
0,41,80,24
0,53,44,0
0,57,41,0
0,60,43,0
0,64,52,0
0,29,94,0
0,41,94,0
0,41,80,0
0,53,44,0
0,57,41,0
0,60,43,0
0,64,52,0
0,41,80,20
0,53,52,0
0,57,48,0
0,60,58,0
0,62,50,0
0,29,94,0
0,41,94,0
0,41,80,0
0,53,52,0
0,57,48,0
0,60,58,0
0,62,50,0
0,41,82,0
0,53,43,0
0,57,46,0
