track,note,velocity,time
1,77,45,600
1,77,0,120
1,79,50,0
1,79,0,120
1,77,46,0
1,77,0,120
1,75,50,0
1,75,0,120
1,74,46,0
1,74,0,120
1,72,46,0
1,72,0,120
1,70,46,0
1,70,0,120
1,69,50,0
1,69,0,240
1,70,47,0
1,70,0,240
1,71,53,0
1,71,0,240
1,72,49,0
1,72,0,360
1,78,45,0
1,78,0,120
1,81,50,0
1,81,0,120
1,79,46,0
1,79,0,120
1,77,50,0
1,77,0,120
1,75,46,0
1,75,0,120
1,74,46,0
1,74,0,120
1,72,46,0
1,72,0,120
1,70,50,0
1,70,0,240
1,72,47,0
1,72,0,240
1,73,53,0
1,73,0,240
1,74,49,0
1,74,0,360
1,77,51,0
1,77,0,120
1,79,58,0
1,79,0,120
1,74,52,0
1,74,0,120
1,77,56,0
1,77,0,120
1,75,52,0
1,75,0,120
1,77,57,0
1,77,0,120
1,72,52,0
1,72,0,120
1,75,57,0
1,75,0,120
1,74,52,0
1,74,0,120
1,79,59,0
1,79,0,120
1,74,52,0
1,74,0,120
1,77,62,0
1,77,0,120
1,75,56,0
1,75,0,120
1,77,62,0
1,77,0,120
1,72,54,0
1,72,0,120
1,74,67,0
1,74,0,120
1,75,57,0
1,75,0,120
1,76,59,0
1,76,0,120
1,77,61,0
1,77,0,120
1,78,67,0
1,78,0,120
1,79,64,0
1,79,0,120
1,81,67,0
1,81,0,120
1,82,69,0
1,82,0,120
1,84,70,0
1,84,0,120
1,85,74,0
1,85,0,120
1,86,81,0
1,86,0,120
1,76,54,0
1,76,0,120
1,79,58,0
1,79,0,240
1,77,53,0
1,77,0,240
1,65,38,120
1,77,45,0
1,77,0,120
1,65,0,0
1,67,42,0
1,79,50,0
1,79,0,120
1,67,0,0
1,65,39,0
1,77,46,0
1,77,0,120
1,65,0,0
1,63,42,0
1,75,50,0
1,75,0,120
1,63,0,0
1,62,39,0
1,74,46,0
1,74,0,120
1,62,0,0
1,60,39,0
1,72,46,0
1,72,0,120
1,60,0,0
1,58,39,0
1,70,46,0
1,70,0,120
1,58,0,0
1,57,42,0
1,69,42,0
1,69,0,240
1,57,0,0
1,58,39,0
1,70,47,0
1,70,0,240
1,58,0,0
1,59,45,0
1,71,53,0
1,71,0,240
1,59,0,0
1,60,41,0
1,72,49,0
1,72,0,360
1,60,0,0
1,66,38,0
1,78,45,0
1,78,0,120
1,66,0,0
1,69,42,0
1,81,50,0
1,81,0,120
1,69,0,0
1,67,39,0
1,79,46,0
1,79,0,120
1,67,0,0
1,65,42,0
1,77,50,0
1,77,0,120
1,65,0,0
1,63,39,0
1,75,46,0
1,75,0,120
1,63,0,0
1,62,39,0
1,74,46,0
1,74,0,120
1,62,0,0
1,60,39,0
1,72,46,0
1,72,0,120
1,60,0,0
1,58,42,0
1,70,50,0
1,70,0,240
1,58,0,0
1,60,39,0
1,72,47,0
1,72,0,240
1,60,0,0
1,61,45,0
1,73,53,0
1,73,0,240
1,61,0,0
1,62,41,0
1,74,49,0
1,74,0,360
1,62,0,0
1,77,56,0
1,77,0,120
1,68,45,0
1,79,63,0
1,79,0,120
1,74,57,0
1,74,0,120
1,77,62,0
1,77,0,120
1,75,58,0
1,75,0,120
1,68,0,0
1,69,45,0
1,77,63,0
1,77,0,120
1,72,58,0
1,72,0,120
1,69,0,0
1,70,46,0
1,75,64,0
1,75,0,120
1,74,59,0
1,74,0,120
1,70,0,0
1,68,46,0
1,79,67,0
1,79,0,120
1,74,59,0
1,74,0,120
1,77,71,0
1,77,0,120
1,75,64,0
1,75,0,120
1,68,0,0
1,69,47,0
1,77,71,0
1,77,0,120
1,72,63,0
1,72,0,120
1,69,0,0
1,70,59,0
1,75,71,0
1,75,0,120
1,70,0,0
1,62,53,0
1,74,63,0
1,74,0,120
1,62,0,0
1,63,56,0
1,75,67,0
1,75,0,120
1,63,0,0
1,65,60,0
1,77,71,0
1,77,0,120
1,65,0,0
1,66,67,0
1,78,80,0
1,78,0,120
1,66,0,0
1,67,63,0
1,79,75,0
1,79,0,120
1,67,0,0
1,69,67,0
1,81,80,0
1,81,0,60
1,69,0,0
1,70,70,60
1,82,83,0
1,82,0,60
1,70,0,0
1,58,70,60
1,70,70,0
1,70,0,240
1,58,0,0
1,60,58,0
1,72,69,0
1,72,0,240
1,60,0,0
1,61,41,0
1,73,49,0
1,73,0,240
1,61,0,0
1,62,38,0
1,74,45,0
1,74,0,300
1,62,0,0
1,70,59,0
1,70,0,60
1,69,61,0
1,69,0,60
1,70,62,0
1,70,0,60
1,71,62,0
1,71,0,60
1,72,64,0
1,72,0,60
1,73,65,0
1,73,0,60
1,74,67,0
1,74,0,60
1,75,69,0
1,75,0,60
1,76,70,0
1,76,0,60
1,77,71,0
1,77,0,60
1,78,73,0
1,78,0,60
1,79,74,0
1,79,0,60
1,80,76,0
1,80,0,60
1,81,77,0
1,81,0,60
1,82,78,0
1,82,0,60
1,70,53,0
1,70,0,48
1,72,48,0
1,72,0,48
1,70,45,0
1,70,0,48
1,69,45,0
1,69,0,48
1,70,45,0
1,70,0,48
1,63,42,0
1,74,52,0
1,74,0,180
1,72,41,0
1,72,0,60
1,63,0,0
1,62,42,0
1,70,50,0
1,70,0,240
1,62,0,0
1,65,67,240
1,74,80,0
1,74,0,480
1,65,0,0
1,67,45,0
1,72,53,0
1,72,0,52
1,74,50,0
1,74,0,51
1,72,53,0
1,72,0,52
1,74,50,0
1,74,0,52
1,72,53,0
1,72,0,51
1,71,49,0
1,71,0,52
1,72,49,0
1,74,49,50
1,72,0,1
1,74,0,59
1,75,50,0
1,75,0,60
1,67,0,0
1,67,57,0
1,67,0,240
1,63,45,0
1,69,54,0
1,69,0,240
1,63,0,0
1,62,47,0
1,70,56,0
1,70,0,240
1,65,46,0
1,65,0,120
1,62,0,120
1,65,67,0
1,74,80,0
1,74,0,480
1,65,0,0
1,67,45,0
1,72,63,0
1,72,0,120
1,74,56,0
1,74,0,40
1,72,56,0
1,72,0,40
1,71,56,0
1,71,0,40
1,72,63,0
1,72,0,180
1,74,58,0
1,74,0,60
1,67,0,0
1,64,45,0
1,70,63,0
1,70,0,120
1,72,56,0
1,72,0,40
1,70,56,0
1,70,0,40
1,69,56,0
1,69,0,40
1,70,63,0
1,70,0,180
1,72,58,0
1,72,0,60
1,64,0,0
1,65,47,0
1,70,56,0
1,70,0,240
1,69,46,0
1,69,0,120
1,65,0,120
1,69,55,240
1,77,64,60
1,81,69,60
1,81,0,360
1,77,0,0
1,69,0,0
1,69,57,0
1,77,68,60
1,81,73,60
1,81,0,360
1,77,0,0
1,69,0,0
1,69,60,0
1,77,71,60
1,81,76,60
1,81,0,360
1,77,0,0
1,69,0,0
1,69,63,0
1,77,74,60
1,81,79,60
1,81,0,120
1,77,0,0
1,69,0,0
1,89,82,240
1,77,69,0
1,77,0,480
1,89,0,0
1,88,62,0
1,76,52,0
1,76,0,120
1,88,0,0
1,86,82,360
1,74,69,0
1,74,0,480
1,86,0,0
1,84,62,0
1,72,52,0
1,72,0,120
1,84,0,0
1,82,82,360
1,70,69,0
1,70,0,360
1,82,0,0
1,69,52,0
1,81,62,0
1,81,0,240
1,69,0,0
1,67,60,0
1,79,60,0
1,79,0,240
1,67,0,0
1,65,52,0
1,77,62,0
1,77,0,240
1,65,0,0
1,67,54,0
1,79,58,0
1,79,0,120
1,67,0,0
1,68,56,0
1,80,66,0
1,80,0,240
1,68,0,0
1,69,51,0
1,81,60,0
1,81,0,240
1,69,0,0
1,65,57,0
1,69,57,0
1,69,0,240
1,71,49,0
1,71,0,480
1,65,0,0
1,72,62,0
1,64,52,0
1,64,0,120
1,72,0,0
1,62,57,120
1,65,57,0
1,65,0,240
1,67,49,0
1,67,0,240
1,68,53,0
1,68,0,240
1,62,0,0
1,69,62,0
1,60,52,0
1,60,0,120
1,69,0,0
1,58,57,120
1,62,57,0
1,62,0,240
1,64,49,0
1,64,0,240
1,65,53,0
1,65,0,120
1,58,0,0
1,57,57,0
1,57,0,240
1,55,62,0
1,55,0,240
1,53,67,0
1,53,0,240
1,52,72,0
1,52,0,120
1,53,70,0
1,53,0,60
1,45,50,0
1,45,0,60
1,48,50,0
1,48,0,60
1,53,50,0
1,53,0,60
1,57,53,0
1,57,0,60
1,60,50,0
1,60,0,60
1,65,50,0
1,65,0,60
1,69,50,0
1,69,0,60
1,60,55,0
1,60,0,60
1,65,50,0
1,65,0,60
1,69,50,0
1,69,0,60
1,72,50,0
1,72,0,60
1,65,55,0
1,65,0,60
1,69,50,0
1,69,0,60
1,72,50,0
1,72,0,60
1,77,50,0
1,77,0,60
1,76,74,0
1,76,0,60
1,82,50,0
1,82,0,60
1,79,50,0
1,79,0,60
1,76,50,0
1,76,0,60
1,72,54,0
1,72,0,60
1,79,50,0
1,79,0,60
1,76,50,0
1,76,0,60
1,72,50,0
1,72,0,60
1,70,56,0
1,70,0,60
1,76,50,0
1,76,0,60
1,72,50,0
1,72,0,60
1,70,50,0
1,70,0,60
1,67,54,0
1,67,0,60
1,72,50,0
1,72,0,60
1,70,50,0
1,70,0,60
1,67,50,0
1,67,0,60
1,65,70,0
1,65,0,60
1,57,50,0
1,57,0,60
1,60,50,0
1,60,0,60
1,65,50,0
1,65,0,60
1,69,53,0
1,69,0,60
1,72,50,0
1,72,0,60
1,77,50,0
1,77,0,60
1,81,50,0
1,81,0,60
1,72,55,0
1,72,0,60
1,77,50,0
1,77,0,60
1,81,50,0
1,81,0,60
1,84,50,0
1,84,0,60
1,77,55,0
1,77,0,60
1,81,50,0
1,81,0,60
1,84,50,0
1,84,0,60
1,89,50,0
1,89,0,60
1,82,74,0
1,82,0,60
1,88,50,0
1,88,0,60
1,84,50,0
1,84,0,60
1,82,50,0
1,82,0,60
1,79,54,0
1,79,0,60
1,84,50,0
1,84,0,60
1,82,50,0
1,82,0,60
1,79,50,0
1,79,0,60
1,76,56,0
1,76,0,60
1,82,50,0
1,82,0,60
1,79,50,0
1,79,0,60
1,76,50,0
1,76,0,60
1,70,54,0
1,70,0,60
1,79,50,0
1,79,0,60
1,76,50,0
1,76,0,60
1,70,50,0
1,70,0,60
1,65,77,0
1,65,0,60
1,57,55,0
1,57,0,60
1,60,55,0
1,60,0,60
1,65,55,0
1,65,0,60
1,69,58,0
1,69,0,60
1,72,55,0
1,72,0,60
1,77,55,0
1,77,0,60
1,81,55,0
1,81,0,60
1,72,61,0
1,72,0,60
1,77,55,0
1,77,0,60
1,81,56,0
1,81,0,60
1,84,56,0
1,84,0,60
1,77,61,0
1,77,0,60
1,81,56,0
1,81,0,60
1,84,56,0
1,84,0,60
1,89,56,0
1,89,0,60
1,57,62,60
1,57,0,60
1,60,62,0
1,60,0,60
1,65,62,0
1,65,0,60
1,69,66,0
1,69,0,60
1,72,62,0
1,72,0,60
1,77,62,0
1,77,0,60
1,81,62,0
1,81,0,60
1,72,69,0
1,72,0,60
1,77,63,0
1,77,0,60
1,81,63,0
1,81,0,60
1,84,63,0
1,84,0,60
1,77,69,0
1,77,0,60
1,81,63,0
1,81,0,60
1,84,63,0
1,84,0,60
1,89,63,0
1,89,0,60
1,58,63,60
1,58,0,60
1,61,70,0
1,61,0,60
1,65,70,0
1,65,0,60
1,70,73,0
1,70,0,60
1,73,70,0
1,73,0,60
1,77,70,0
1,77,0,60
1,82,70,0
1,82,0,60
1,73,77,0
1,73,0,60
1,77,70,0
1,77,0,60
1,82,70,0
1,82,0,60
1,85,70,0
1,85,0,60
1,77,78,0
1,77,0,60
1,82,71,0
1,82,0,60
1,85,71,0
1,85,0,60
1,89,71,0
1,89,0,60
1,76,79,0
1,76,0,60
1,88,70,0
1,88,0,60
1,85,70,0
1,85,0,60
1,82,70,0
1,82,0,60
1,76,80,0
1,76,0,60
1,73,68,0
1,73,0,60
1,70,70,0
1,70,0,60
1,64,70,0
1,64,0,60
1,61,79,0
1,61,0,60
1,63,68,0
1,63,0,60
1,61,69,0
1,61,0,60
1,60,69,0
1,60,0,60
1,58,78,0
1,58,0,60
1,61,72,0
1,61,0,60
1,60,76,0
1,60,0,60
1,58,81,0
1,58,0,60
1,57,86,0
1,57,0,240
1,60,40,1320
1,60,0,120
1,62,45,0
1,62,0,120
1,60,41,0
1,60,0,120
1,58,45,0
1,58,0,120
1,57,40,0
1,57,0,120
1,55,43,0
1,55,0,120
1,53,40,0
1,53,0,90
1,53,45,30
1,53,0,240
1,63,38,840
1,63,0,40
1,65,40,0
1,65,0,40
1,63,38,0
1,63,0,40
1,65,45,0
1,65,0,120
1,63,41,0
1,63,0,120
1,62,45,0
1,62,0,120
1,60,40,0
1,60,0,120
1,58,43,0
1,58,0,120
1,57,40,0
1,57,0,90
1,57,45,30
1,57,0,240
1,72,44,120
1,72,0,120
1,74,49,0
1,74,0,120
1,72,45,0
1,72,0,120
1,70,49,0
1,70,0,120
1,69,44,0
1,69,0,120
1,67,47,0
1,67,0,120
1,65,44,0
1,65,0,90
1,75,44,150
1,75,0,120
1,77,49,0
1,77,0,120
1,75,45,0
1,75,0,120
1,74,49,0
1,74,0,120
1,72,44,0
1,72,0,120
1,70,47,0
1,70,0,120
1,69,44,0
1,69,0,120
1,77,49,0
1,77,0,120
1,75,47,0
1,75,0,120
1,74,47,0
1,74,0,120
1,72,47,0
1,72,0,120
1,70,44,0
1,70,0,120
1,69,44,0
1,69,0,120
1,77,53,0
1,77,0,120
1,75,49,0
1,75,0,120
1,74,46,0
1,74,0,120
1,72,46,0
1,72,0,120
1,70,49,0
1,70,0,80
1,69,49,0
1,69,0,80
1,77,54,0
1,77,0,80
1,75,49,0
1,75,0,80
1,74,49,0
1,74,0,80
1,72,49,0
1,72,0,80
1,70,49,0
1,70,0,60
1,69,49,0
1,69,0,60
1,77,58,0
1,77,0,60
1,75,50,0
1,75,0,60
1,74,50,0
1,74,0,60
1,72,50,0
1,72,0,60
1,70,50,0
1,70,0,60
1,69,50,0
1,69,0,60
1,77,59,0
1,77,0,60
1,75,52,0
1,75,0,60
1,74,52,0
1,74,0,60
1,72,52,0
1,72,0,60
1,70,52,0
1,70,0,60
1,69,52,0
1,69,0,60
1,78,61,0
1,78,0,60
1,77,55,0
1,77,0,60
1,75,56,0
1,75,0,48
1,74,57,0
1,74,0,48
1,72,58,0
1,72,0,48
1,70,58,0
1,70,0,48
1,69,59,0
1,69,0,48
1,79,50,0
1,79,0,120
1,77,46,0
1,77,0,120
1,75,50,0
1,75,0,120
1,74,46,0
1,74,0,120
1,72,46,0
1,72,0,120
1,70,46,0
1,70,0,120
1,69,50,0
1,69,0,240
1,70,47,0
1,70,0,240
1,71,53,0
1,71,0,240
1,72,49,0
1,72,0,240
1,78,45,120
1,78,0,120
1,81,50,0
1,81,0,120
1,79,46,0
1,79,0,120
1,77,50,0
1,77,0,120
1,75,44,0
1,75,0,120
1,74,46,0
1,74,0,120
1,72,44,0
1,72,0,120
1,69,50,0
1,69,0,120
1,70,41,0
1,70,0,120
1,71,47,0
1,71,0,120
1,72,44,0
1,72,0,120
1,73,58,0
1,73,0,240
1,74,53,0
1,74,0,360
1,77,56,0
1,77,0,120
1,79,64,0
1,79,0,120
1,74,58,0
1,74,0,120
1,77,62,0
1,77,0,120
1,75,58,0
1,75,0,120
1,77,64,0
1,77,0,120
1,72,58,0
1,72,0,120
1,75,64,0
1,75,0,120
1,74,59,0
1,74,0,120
1,79,67,0
1,79,0,120
1,74,59,0
1,74,0,120
1,77,71,0
1,77,0,120
1,75,64,0
1,75,0,120
1,77,71,0
1,77,0,120
1,72,62,0
1,72,0,120
1,74,70,0
1,74,0,120
1,75,60,0
1,75,0,120
1,76,62,0
1,76,0,120
1,77,64,0
1,77,0,120
1,78,70,0
1,78,0,120
1,79,66,0
1,79,0,120
1,81,69,0
1,81,0,120
1,82,70,0
1,82,0,120
1,84,71,0
1,84,0,120
1,85,76,0
1,85,0,120
1,86,81,0
1,86,0,120
1,76,64,0
1,76,0,120
