track,note,velocity,time
1,72,100,960
1,72,0,120
1,72,100,0
1,72,0,120
1,69,100,120
1,69,0,90
1,70,100,0
1,70,0,30
1,69,100,0
1,69,0,60
1,67,100,0
1,67,0,120
1,72,100,240
1,72,0,120
1,72,100,0
1,72,0,120
1,69,100,120
1,69,0,60
1,69,100,0
1,69,0,45
1,67,100,0
1,67,0,15
1,64,100,0
1,64,0,45
1,64,100,0
1,64,0,15
1,65,100,0
1,65,0,30
1,64,100,0
1,64,0,30
1,65,100,0
1,65,0,30
1,64,100,0
1,64,0,30
1,65,100,0
1,65,0,30
1,66,100,0
1,66,0,60
1,67,100,0
1,67,0,90
1,72,100,0
1,72,0,120
1,70,100,0
1,70,0,60
1,67,100,0
1,67,0,120
1,65,100,0
1,65,0,120
1,63,100,0
1,63,0,120
1,64,100,0
1,64,0,120
1,67,100,450
1,67,0,30
1,70,100,0
1,70,0,30
1,72,100,0
1,72,0,60
1,72,100,0
1,72,0,180
1,69,100,120
1,69,0,60
1,70,100,0
1,70,0,30
1,69,100,0
1,69,0,60
1,67,100,0
1,67,0,120
1,72,100,300
1,72,0,120
1,72,100,0
1,72,0,60
1,69,100,120
1,69,0,60
1,69,100,0
1,69,0,45
1,67,100,0
1,67,0,15
1,64,100,0
1,64,0,60
1,65,100,0
1,65,0,30
1,64,100,0
1,64,0,30
1,65,100,0
1,65,0,30
1,64,100,0
1,64,0,30
1,65,100,0
1,65,0,30
1,66,100,0
1,66,0,60
1,67,100,0
1,67,0,90
1,72,100,0
1,72,0,120
1,70,100,0
1,70,0,60
1,67,100,0
1,67,0,60
1,65,100,0
1,65,0,60
1,63,100,0
1,63,0,60
1,60,100,0
1,60,0,60
1,58,100,0
1,58,0,60
1,55,100,0
1,55,0,60
1,53,100,0
1,53,0,60
1,52,100,0
1,52,0,120
1,68,100,360
1,68,0,30
1,68,100,0
1,68,0,30
1,71,100,0
1,71,0,60
1,68,100,0
1,68,0,30
1,68,100,0
1,68,0,30
1,71,100,0
1,71,0,60
1,68,100,0
1,68,0,30
1,68,100,0
1,68,0,30
1,71,100,0
1,71,0,60
1,68,100,0
1,68,0,30
1,68,100,0
1,68,0,30
1,71,100,0
1,71,0,60
1,68,100,0
1,68,0,30
1,71,100,0
1,71,0,30
1,72,100,0
1,72,0,60
1,69,100,0
1,69,0,60
1,68,100,300
1,68,0,30
1,68,100,0
1,68,0,30
1,71,100,0
1,71,0,60
1,68,100,0
1,68,0,30
1,68,100,0
1,68,0,30
1,71,100,0
1,71,0,60
1,68,100,0
1,68,0,30
1,68,100,0
1,68,0,30
1,71,100,0
1,71,0,60
1,68,100,0
1,68,0,30
1,68,100,0
1,68,0,30
1,71,100,0
1,71,0,60
1,68,100,0
1,68,0,30
1,71,100,0
1,71,0,30
1,72,100,0
1,72,0,60
1,69,100,0
1,69,0,60
1,71,100,360
1,71,0,90
1,70,100,0
1,70,0,90
1,68,100,0
1,68,0,120
1,59,100,120
1,59,0,30
1,59,100,0
1,59,0,30
1,59,100,0
1,59,0,60
1,61,100,0
1,61,0,60
1,61,100,0
1,61,0,30
1,59,100,0
1,59,0,60
1,61,100,0
1,61,0,120
1,59,100,150
1,59,0,60
1,61,100,0
1,61,0,60
1,61,100,0
1,61,0,60
1,59,100,0
1,59,0,60
1,62,100,0
1,62,0,60
1,61,100,0
1,61,0,60
1,59,100,0
1,59,0,60
1,55,100,0
1,55,0,60
1,59,100,0
1,59,0,60
1,56,100,0
1,56,0,120
1,72,100,300
1,72,0,60
1,72,100,0
1,72,0,180
1,69,100,120
1,69,0,90
1,70,100,0
1,70,0,30
1,69,100,0
1,69,0,60
1,67,100,0
1,67,0,180
1,72,100,240
1,72,0,90
1,72,100,0
1,72,0,90
1,69,100,120
1,69,0,60
1,69,100,0
1,69,0,30
1,67,100,0
1,67,0,30
1,64,100,0
1,64,0,60
1,65,100,0
1,65,0,60
1,64,100,0
1,64,0,60
1,65,100,0
1,65,0,60
1,65,100,0
1,65,0,60
1,66,100,0
1,66,0,30
1,67,100,0
1,67,0,60
1,72,100,0
1,72,0,90
1,70,100,0
1,70,0,60
1,67,100,0
1,67,0,120
1,65,100,0
1,65,0,120
1,63,100,0
1,63,0,360
1,68,100,300
1,68,0,30
1,68,100,0
1,68,0,30
1,71,100,0
1,71,0,60
1,68,100,0
1,68,0,30
1,68,100,0
1,68,0,30
1,71,100,0
1,71,0,60
1,68,100,0
1,68,0,30
1,68,100,0
1,68,0,30
1,71,100,0
1,71,0,60
1,68,100,0
1,68,0,30
1,68,100,0
1,68,0,30
1,71,100,0
1,71,0,60
1,68,100,0
1,68,0,30
1,71,100,0
1,71,0,30
1,72,100,0
1,72,0,60
1,69,100,0
1,69,0,60
1,68,100,300
1,68,0,30
1,68,100,0
1,68,0,30
1,71,100,0
1,71,0,60
1,68,100,0
1,68,0,30
1,68,100,0
1,68,0,30
1,71,100,0
1,71,0,60
1,68,100,0
1,68,0,30
1,68,100,0
1,68,0,30
1,71,100,0
1,71,0,60
1,68,100,0
1,68,0,30
1,68,100,0
1,68,0,30
1,71,100,0
1,71,0,60
1,68,100,0
1,68,0,30
1,71,100,0
1,71,0,30
1,72,100,0
1,72,0,60
1,69,100,0
1,69,0,60
1,71,100,360
1,71,0,90
1,70,100,0
1,70,0,90
1,68,100,0
1,68,0,120
1,59,100,120
1,59,0,30
1,59,100,0
1,59,0,30
1,59,100,0
1,59,0,60
1,61,100,0
1,61,0,60
1,61,100,0
1,61,0,30
1,59,100,0
1,59,0,60
1,61,100,0
1,61,0,120
1,59,100,150
1,59,0,60
1,61,100,0
1,61,0,60
1,61,100,0
1,61,0,60
1,59,100,0
1,59,0,60
1,62,100,0
1,62,0,60
1,61,100,0
1,61,0,60
1,59,100,0
1,59,0,60
1,55,100,0
1,55,0,60
1,59,100,0
1,59,0,60
1,56,100,0
1,56,0,120
1,72,100,300
1,72,0,60
1,72,100,0
1,72,0,180
1,69,100,120
1,69,0,90
1,70,100,0
1,70,0,30
1,69,100,0
1,69,0,60
1,67,100,0
1,67,0,180
1,72,100,240
1,72,0,90
1,72,100,0
1,72,0,90
1,69,100,120
1,69,0,60
1,69,100,0
1,69,0,30
1,67,100,0
1,67,0,30
1,64,100,0
1,64,0,60
1,65,100,0
1,65,0,30
1,64,100,0
1,64,0,30
1,65,100,0
1,65,0,30
1,64,100,0
1,64,0,30
1,65,100,0
1,65,0,30
1,66,100,0
1,66,0,60
1,67,100,0
1,67,0,90
1,72,100,0
1,72,0,120
1,70,100,0
1,70,0,60
1,67,100,0
1,67,0,60
1,65,100,0
1,65,0,60
1,63,100,0
1,63,0,60
1,60,100,0
1,60,0,60
1,58,100,0
1,58,0,60
1,55,100,0
1,55,0,60
1,53,100,0
1,53,0,60
1,52,100,0
1,52,0,120
1,72,100,420
1,72,0,480
1,72,100,180
1,72,0,60
1,72,100,0
1,72,0,90
1,77,100,0
1,77,0,90
1,72,100,0
1,72,0,60
1,74,100,0
1,74,0,120
1,70,100,0
1,70,0,120
1,67,100,0
1,67,0,360
1,67,100,0
1,67,0,60
1,67,100,0
1,67,0,60
1,67,100,0
1,67,0,60
1,69,100,0
1,69,0,60
1,70,100,0
1,70,0,60
1,72,100,0
1,72,0,240
1,69,100,0
1,69,0,60
1,67,100,0
1,67,0,60
1,65,100,0
1,65,0,180
1,65,100,240
1,65,0,60
1,65,100,0
1,65,0,60
1,67,100,0
1,67,0,60
1,69,100,0
1,69,0,180
1,69,100,120
1,69,0,180
1,67,100,0
1,67,0,120
1,65,100,0
1,65,0,120
1,72,100,300
1,72,0,480
1,72,100,180
1,72,0,60
1,72,100,0
1,72,0,90
1,77,100,0
1,77,0,90
1,72,100,0
1,72,0,60
1,74,100,0
1,74,0,120
1,70,100,0
1,70,0,120
1,67,100,0
1,67,0,360
1,67,100,0
1,67,0,60
1,67,100,0
1,67,0,60
1,67,100,0
1,67,0,60
1,69,100,0
1,69,0,60
1,70,100,0
1,70,0,60
1,72,100,0
1,72,0,240
1,69,100,0
1,69,0,60
1,67,100,0
1,67,0,60
1,65,100,0
1,65,0,180
1,65,100,0
1,65,0,240
1,65,100,0
1,65,0,120
1,67,100,0
1,67,0,60
1,69,100,0
1,69,0,180
1,69,100,120
1,69,0,180
1,67,100,0
1,67,0,120
1,65,100,0
1,65,0,120
1,68,100,11760
1,68,0,30
1,68,100,0
1,68,0,30
1,71,100,0
1,71,0,60
1,68,100,0
1,68,0,30
1,68,100,0
1,68,0,30
1,71,100,0
1,71,0,60
1,68,100,0
1,68,0,30
1,68,100,0
1,68,0,30
1,71,100,0
1,71,0,60
1,68,100,0
1,68,0,30
1,68,100,0
1,68,0,30
1,71,100,0
1,71,0,60
1,68,100,0
1,68,0,30
1,71,100,0
1,71,0,30
1,72,100,0
1,72,0,60
1,69,100,0
1,69,0,60
1,68,100,300
1,68,0,30
1,68,100,0
1,68,0,30
1,71,100,0
1,71,0,60
1,68,100,0
1,68,0,30
1,68,100,0
1,68,0,30
1,71,100,0
1,71,0,60
1,68,100,0
1,68,0,30
1,68,100,0
1,68,0,30
1,71,100,0
1,71,0,60
1,68,100,0
1,68,0,30
1,68,100,0
1,68,0,30
1,71,100,0
1,71,0,60
1,68,100,0
1,68,0,30
1,71,100,0
1,71,0,30
1,72,100,0
1,72,0,60
1,69,100,0
1,69,0,60
1,71,100,360
1,71,0,90
1,70,100,0
1,70,0,90
1,68,100,0
1,68,0,120
1,59,100,120
1,59,0,30
1,59,100,0
1,59,0,30
1,59,100,0
1,59,0,60
1,61,100,0
1,61,0,60
1,61,100,0
1,61,0,30
1,59,100,0
1,59,0,60
1,61,100,0
1,61,0,120
1,59,100,150
1,59,0,60
1,61,100,0
1,61,0,60
1,61,100,0
1,61,0,60
1,59,100,0
1,59,0,60
1,62,100,0
1,62,0,60
1,61,100,0
1,61,0,60
1,59,100,0
1,59,0,60
1,55,100,0
1,55,0,60
1,59,100,0
1,59,0,60
1,56,100,0
1,56,0,120
1,72,100,300
1,72,0,60
1,72,100,0
1,72,0,180
1,69,100,120
1,69,0,90
1,70,100,0
1,70,0,30
1,69,100,0
1,69,0,60
1,67,100,0
1,67,0,180
1,72,100,120
1,72,0,60
1,72,100,0
1,72,0,120
1,72,100,0
1,72,0,180
1,69,100,60
1,69,0,30
1,69,100,0
1,69,0,30
1,69,100,0
1,69,0,60
1,67,100,0
1,67,0,60
1,64,100,0
1,64,0,60
1,65,100,0
1,65,0,60
1,65,100,0
1,65,0,60
1,65,100,0
1,65,0,60
1,65,100,0
1,65,0,60
1,66,100,0
1,66,0,60
1,67,100,0
1,67,0,120
1,72,100,0
1,72,0,120
1,70,100,0
1,70,0,120
1,67,100,0
1,67,0,120
1,65,100,0
1,65,0,120
1,63,100,0
1,63,0,120
1,75,100,360
1,75,0,120
1,74,100,0
1,74,0,30
1,72,100,0
1,72,0,60
1,70,100,150
1,70,0,90
1,70,100,0
1,70,0,30
1,69,100,0
1,69,0,60
1,67,100,0
1,67,0,120
1,72,100,300
1,72,0,60
1,72,100,0
1,72,0,180
1,69,100,60
1,69,0,60
1,69,100,0
1,69,0,45
1,67,100,0
1,67,0,15
1,64,100,0
1,64,0,60
1,65,100,0
1,65,0,30
1,64,100,0
1,64,0,30
1,65,100,0
1,65,0,30
1,64,100,0
1,64,0,30
1,65,100,0
1,65,0,30
1,66,100,0
1,66,0,60
1,67,100,0
1,67,0,90
1,72,100,0
1,72,0,120
1,70,100,0
1,70,0,60
1,67,100,0
1,67,0,60
1,65,100,0
1,65,0,60
1,63,100,0
1,63,0,60
1,60,100,0
1,60,0,30
1,72,100,0
1,72,0,90
1,70,100,0
1,70,0,120
1,67,100,0
1,67,100,60
1,67,0,60
1,67,0,0
1,65,100,0
1,65,0,60
1,63,100,0
1,63,0,60
1,60,100,0
1,60,0,30
1,72,100,0
1,72,0,90
1,70,100,0
1,70,0,120
1,67,100,0
1,67,0,120
1,65,100,0
1,65,0,60
1,63,100,0
1,63,0,60
1,60,100,0
1,60,0,60
1,58,100,0
1,58,0,60
1,55,100,0
1,55,0,60
1,53,100,0
1,53,0,60
1,52,100,0
1,52,0,360
2,64,100,90
2,67,100,0
2,67,0,30
2,64,0,0
2,62,100,0
2,62,0,60
2,60,100,0
2,67,100,0
2,67,0,60
2,60,0,0
2,55,100,30
2,55,0,30
2,57,100,0
2,57,0,30
2,52,100,30
2,60,100,0
2,60,0,60
2,52,0,0
2,55,100,0
2,55,0,60
2,64,100,120
2,67,100,0
2,67,0,30
2,64,0,0
2,62,100,0
2,67,100,0
2,67,0,60
2,62,0,0
2,60,100,0
2,67,100,0
2,67,0,30
2,60,0,0
2,55,100,30
2,55,0,30
2,57,100,0
2,57,0,30
2,52,100,30
2,60,100,0
2,60,0,60
2,52,0,0
2,57,100,0
2,57,0,60
2,64,100,90
2,67,100,0
2,67,0,30
2,64,0,0
2,62,100,0
2,62,0,60
2,60,100,0
2,67,100,0
2,67,0,60
2,60,0,0
2,55,100,30
2,55,0,30
2,57,100,0
2,57,0,30
2,52,100,30
2,60,100,0
2,60,0,60
2,52,0,0
2,55,100,0
2,55,0,60
2,64,100,120
2,67,100,0
2,67,0,30
2,64,0,0
2,62,100,0
2,67,100,0
2,67,0,60
2,62,0,0
2,60,100,0
2,67,100,0
2,67,0,30
2,60,0,0
2,55,100,30
2,55,0,30
2,57,100,0
2,57,0,30
2,52,100,30
2,60,100,0
2,60,0,60
2,52,0,0
2,57,100,0
2,57,0,60
2,64,100,90
2,67,100,0
2,67,0,30
2,64,0,0
2,62,100,0
2,62,0,60
2,67,100,0
2,60,100,0
2,60,0,60
2,67,0,0
2,69,100,60
2,69,0,60
2,69,100,0
2,69,0,45
2,67,100,0
2,67,0,15
2,64,100,0
2,64,0,45
2,64,100,0
2,64,0,15
2,64,100,1050
2,67,100,0
2,67,0,30
2,64,0,0
2,62,100,0
2,62,0,60
2,60,100,0
2,67,100,0
2,67,0,60
2,60,0,0
2,55,100,30
2,55,0,30
2,57,100,0
2,57,0,30
2,52,100,30
2,60,100,0
2,60,0,60
2,52,0,0
2,55,100,0
2,55,0,60
2,64,100,120
2,67,100,0
2,67,0,30
2,64,0,0
2,62,100,0
2,67,100,0
2,67,0,60
2,62,0,0
2,60,100,0
2,67,100,0
2,67,0,30
2,60,0,0
2,55,100,30
2,55,0,30
2,57,100,0
2,57,0,30
2,52,100,30
2,60,100,0
2,60,0,60
2,52,0,0
2,57,100,0
2,57,0,60
2,64,100,90
2,67,100,0
2,67,0,30
2,64,0,0
2,62,100,0
2,62,0,60
2,60,100,0
2,67,100,0
2,67,0,60
2,60,0,0
2,55,100,30
2,55,0,30
2,57,100,0
2,57,0,30
2,52,100,30
2,60,100,0
2,60,0,60
2,52,0,0
2,55,100,0
2,55,0,60
2,64,100,120
2,67,100,0
2,67,0,30
2,64,0,0
2,62,100,0
2,67,100,0
2,67,0,60
2,62,0,0
2,60,100,0
2,67,100,0
2,67,0,30
2,60,0,0
2,69,100,60
2,69,0,60
2,69,100,0
2,69,0,45
2,67,100,0
2,67,0,15
2,64,100,0
2,64,0,60
2,64,100,1080
2,67,100,0
2,67,0,30
2,64,0,0
2,62,100,0
2,67,100,0
2,67,0,60
2,62,0,0
2,60,100,0
2,67,100,0
2,67,0,30
2,60,0,0
2,55,100,30
2,55,0,30
2,57,100,0
2,57,0,30
2,52,100,30
2,60,100,0
2,60,0,60
2,52,0,0
2,68,100,0
2,68,0,30
2,68,100,0
2,68,0,30
2,59,100,0
2,71,100,0
2,71,0,60
2,59,0,0
2,68,100,0
2,68,0,30
2,68,100,0
2,68,0,30
2,59,100,0
2,71,100,0
2,71,0,60
2,59,0,0
2,68,100,0
2,68,0,30
2,68,100,0
2,68,0,30
2,59,100,0
2,71,100,0
2,71,0,60
2,59,0,0
2,68,100,0
2,68,0,30
2,68,100,0
2,68,0,30
2,59,100,0
2,71,100,0
2,71,0,60
2,59,0,0
