track,note,velocity,time
1,61,100,2880
1,61,0,180
1,61,100,0
1,61,0,120
1,57,100,0
1,57,0,120
1,64,100,0
1,64,0,120
1,59,100,0
1,59,0,60
1,57,100,0
1,57,0,60
1,59,100,0
1,59,0,180
1,54,100,60
1,54,0,60
1,58,100,0
1,58,0,120
1,58,100,0
1,58,0,60
1,59,100,0
1,59,0,120
1,54,100,0
1,54,0,120
1,54,100,0
1,54,0,120
1,54,100,0
1,54,0,120
1,57,100,0
1,57,0,180
1,61,100,120
1,61,0,180
1,61,100,0
1,61,0,180
1,64,100,60
1,64,0,120
1,59,100,0
1,59,0,60
1,57,100,0
1,57,0,60
1,61,100,0
1,61,0,180
1,58,100,120
1,58,0,120
1,58,100,0
1,58,0,60
1,59,100,0
1,59,0,120
1,54,100,0
1,54,0,120
1,54,100,0
1,54,0,120
1,54,100,0
1,54,0,180
1,54,100,120
1,54,0,60
1,54,100,0
1,54,0,60
1,58,100,0
1,58,0,120
1,58,100,0
1,58,0,60
1,59,100,0
1,59,0,120
1,54,100,0
1,54,0,120
1,54,100,0
1,54,0,240
1,54,100,240
1,54,0,60
1,58,100,0
1,58,0,120
1,58,100,0
1,58,0,60
1,59,100,0
1,59,0,120
1,54,100,0
1,54,0,120
1,54,100,0
1,54,0,360
1,61,100,180
1,61,0,240
1,64,100,180
1,64,0,240
1,54,100,240
1,54,0,60
1,58,100,0
1,58,0,180
1,59,100,0
1,59,0,240
1,61,100,540
1,61,0,240
1,64,100,180
1,64,0,240
1,58,100,300
1,58,0,120
1,59,100,0
1,59,0,180
1,54,100,540
1,54,0,60
1,54,100,0
1,54,0,60
1,58,100,0
1,58,0,120
1,58,100,0
1,58,0,60
1,59,100,0
1,59,0,120
1,54,100,0
1,54,0,120
1,54,100,0
1,54,0,240
1,54,100,240
1,54,0,60
1,58,100,0
1,58,0,120
1,58,100,0
1,58,0,60
1,59,100,0
1,59,0,120
1,54,100,0
1,54,0,120
1,54,100,0
1,54,0,360
1,54,100,60
1,54,0,60
1,54,100,0
1,54,0,60
1,58,100,0
1,58,0,120
1,58,100,0
1,58,0,60
1,59,100,0
1,59,0,120
1,54,100,0
1,54,0,120
1,54,100,0
1,54,0,240
1,58,100,300
1,58,0,180
1,59,100,0
1,59,0,240
1,58,100,1500
1,58,0,180
1,59,100,0
1,59,0,240
1,61,100,1500
1,61,0,180
1,61,100,0
1,61,0,120
1,64,100,120
1,64,0,120
1,57,100,60
1,57,0,60
1,59,100,0
1,59,0,180
1,58,100,120
1,58,0,120
1,58,100,0
1,58,0,60
1,59,100,0
1,59,0,120
1,54,100,0
1,54,0,120
1,54,100,0
1,54,0,120
1,57,100,120
1,57,0,180
1,61,100,120
1,61,0,180
1,61,100,0
1,61,0,180
1,64,100,60
1,64,0,120
1,61,100,120
1,61,0,180
1,54,100,120
1,54,0,180
1,59,100,120
1,59,0,120
1,59,100,0
1,59,0,120
1,58,100,0
1,58,0,180
1,54,100,120
1,54,0,60
1,54,100,0
1,54,0,60
1,58,100,0
1,58,0,120
1,58,100,0
1,58,0,60
1,59,100,0
1,59,0,120
1,54,100,0
1,54,0,120
1,54,100,0
1,54,0,240
1,54,100,240
1,54,0,60
1,58,100,0
1,58,0,120
1,58,100,0
1,58,0,60
1,59,100,0
1,59,0,120
1,54,100,0
1,54,0,120
1,54,100,0
1,54,0,360
1,54,100,120
1,54,0,60
1,58,100,0
1,58,0,120
1,58,100,0
1,58,0,60
1,59,100,0
1,59,0,120
1,54,100,0
1,54,0,120
1,54,100,0
1,54,0,360
1,61,100,1140
1,61,0,180
1,64,100,0
1,64,0,240
1,68,100,0
1,68,0,120
1,66,100,0
1,66,0,60
1,64,100,0
1,64,0,60
1,64,100,0
1,64,0,720
1,64,100,2460
1,64,0,120
1,63,100,0
1,63,0,60
1,64,100,0
1,64,0,120
1,63,100,0
1,63,0,60
1,64,100,0
1,64,0,180
1,63,100,0
1,63,0,60
1,64,100,0
1,64,0,60
1,63,100,0
1,63,0,60
1,61,100,0
1,61,0,240
1,58,100,0
1,58,0,120
1,58,100,0
1,58,0,60
1,59,100,0
1,59,0,120
1,54,100,0
1,54,0,120
1,54,100,0
1,54,0,240
1,64,100,300
1,64,0,120
1,63,100,0
1,63,0,60
1,64,100,0
1,64,0,120
1,63,100,0
1,63,0,60
1,64,100,0
1,64,0,180
1,63,100,0
1,63,0,60
1,64,100,0
1,64,0,60
1,63,100,0
1,63,0,60
1,61,100,0
1,61,0,240
1,56,100,0
1,56,0,360
1,59,100,0
1,59,0,60
1,59,100,0
1,59,0,120
1,58,100,0
1,58,0,180
1,54,100,120
1,54,0,60
1,54,100,0
1,54,0,60
1,58,100,0
1,58,0,120
1,58,100,0
1,58,0,60
1,59,100,0
1,59,0,120
1,54,100,0
1,54,0,120
1,54,100,0
1,54,0,240
1,54,100,240
1,54,0,60
1,58,100,0
1,58,0,120
1,58,100,0
1,58,0,60
1,59,100,0
1,59,0,120
1,54,100,0
1,54,0,120
1,54,100,0
1,54,0,240
1,54,100,180
1,54,0,60
1,54,100,0
1,54,0,60
1,58,100,0
1,58,0,120
1,58,100,0
1,58,0,60
1,59,100,0
1,59,0,120
1,54,100,0
1,54,0,120
1,54,100,0
1,54,0,240
1,54,100,180
1,54,0,120
1,58,100,0
1,58,0,180
1,59,100,0
1,59,0,240
1,61,100,0
1,61,0,120
1,59,100,0
1,59,0,60
1,58,100,0
1,58,0,60
1,59,100,0
1,59,0,240
1,61,100,1980
1,61,0,180
1,64,100,0
1,64,0,240
1,68,100,0
1,68,0,120
1,66,100,0
1,66,0,60
1,64,100,0
1,64,0,60
1,64,100,0
1,64,0,720
1,61,100,480
1,61,0,60
1,61,100,0
1,61,0,120
1,64,100,0
1,64,0,60
1,64,100,0
1,64,0,120
1,66,100,0
1,66,0,120
1,68,100,0
1,68,0,120
1,66,100,0
1,66,0,60
1,64,100,0
1,64,0,60
1,71,100,0
1,71,0,120
1,70,100,0
1,70,0,659
1,66,100,1
1,66,0,360
1,54,100,60
1,54,0,60
1,58,100,0
1,58,0,180
1,59,100,0
1,59,0,240
1,54,100,480
1,54,0,60
1,58,100,0
1,58,0,180
1,59,100,0
1,59,0,240
1,54,100,420
1,54,0,60
1,54,100,0
1,54,0,60
1,58,100,0
1,58,0,120
1,58,100,0
1,58,0,60
1,59,100,0
1,59,0,120
1,54,100,0
1,54,0,120
1,54,100,0
1,54,0,240
1,54,100,240
1,54,0,60
1,58,100,0
1,58,0,120
1,58,100,0
1,58,0,60
1,59,100,0
1,59,0,120
1,54,100,0
1,54,0,120
1,54,100,0
1,54,0,240
1,54,100,60
1,54,0,240
1,54,100,0
1,54,0,240
1,54,100,0
1,54,0,240
1,54,100,0
1,54,0,240
1,54,100,0
1,54,0,240
1,58,100,0
1,58,0,180
1,59,100,0
1,59,0,240
1,61,100,0
1,61,0,120
1,64,100,0
1,64,0,30
1,61,100,0
1,61,0,30
1,58,100,0
1,58,0,60
1,59,100,0
1,59,0,360
2,54,100,0
2,54,0,60
2,54,100,0
2,54,0,120
2,52,100,0
2,57,100,0
2,61,100,0
2,61,0,299
2,57,0,0
2,52,0,0
2,54,100,1
2,54,0,60
2,54,100,0
2,54,0,120
2,52,100,0
2,57,100,0
2,61,100,0
2,61,0,299
2,57,0,0
2,52,0,0
2,54,100,1
2,54,0,60
2,54,100,0
2,54,0,120
2,52,100,0
2,57,100,0
2,61,100,0
2,61,0,299
2,57,0,0
2,52,0,0
2,54,100,1
2,54,0,60
2,54,100,0
2,54,0,120
2,54,100,0
2,54,0,60
2,54,100,0
2,57,100,0
2,57,0,240
2,54,0,0
2,54,100,0
2,54,0,60
2,54,100,0
2,54,0,120
2,52,100,0
2,57,100,0
2,61,100,0
2,61,0,299
2,57,0,0
2,52,0,0
2,54,100,1
2,54,0,60
2,54,100,0
2,54,0,120
2,52,100,0
2,57,100,0
2,61,100,0
2,61,0,299
2,57,0,0
2,52,0,0
2,54,100,1
2,54,0,60
2,54,100,0
2,54,0,120
2,52,100,0
2,57,100,0
2,61,100,0
2,61,0,299
2,57,0,0
2,52,0,0
2,54,100,1
2,54,0,60
2,54,100,0
2,54,0,120
2,52,100,0
2,57,100,0
2,61,100,0
2,61,0,299
2,57,0,0
2,52,0,0
2,54,100,1
2,54,0,60
2,54,100,0
2,54,0,120
2,52,100,0
2,57,100,0
2,61,100,0
2,61,0,299
2,57,0,0
2,52,0,0
2,54,100,1
2,54,0,60
2,54,100,0
2,54,0,120
2,52,100,0
2,57,100,0
2,61,100,0
2,61,0,299
2,57,0,0
2,52,0,0
2,54,100,1
2,54,0,60
2,54,100,0
2,54,0,120
2,52,100,0
2,57,100,0
2,61,100,0
2,61,0,299
2,57,0,0
2,52,0,0
2,54,100,1
2,54,0,60
2,54,100,0
2,54,0,120
2,52,100,0
2,57,100,0
2,61,100,0
2,61,0,299
2,57,0,0
2,52,0,0
2,54,100,1
2,54,0,60
2,54,100,0
2,54,0,120
2,52,100,0
2,57,100,0
2,61,100,0
2,61,0,299
2,57,0,0
2,52,0,0
2,54,100,1
2,54,0,60
2,54,100,0
2,54,0,120
2,52,100,0
2,57,100,0
2,61,100,0
2,61,0,299
2,57,0,0
2,52,0,0
2,54,100,1
2,54,0,60
2,54,100,0
2,54,0,120
2,52,100,0
2,57,100,0
2,61,100,0
2,61,0,299
2,57,0,0
2,52,0,0
2,54,100,1
2,54,0,60
2,54,100,0
2,54,0,120
2,52,100,0
2,57,100,0
2,61,100,0
2,61,0,299
2,57,0,0
2,52,0,0
2,54,100,961
2,54,0,60
2,54,100,0
2,54,0,120
2,52,100,0
2,57,100,0
2,61,100,0
2,61,0,299
2,57,0,0
2,52,0,0
2,54,100,1
2,54,0,60
2,54,100,0
2,54,0,120
2,52,100,0
2,57,100,0
2,61,100,0
2,61,0,299
2,57,0,0
2,52,0,0
2,54,100,1
2,54,0,60
2,54,100,0
2,54,0,120
2,52,100,0
2,57,100,0
2,61,100,0
2,61,0,299
2,57,0,0
2,52,0,0
2,54,100,1
2,54,0,60
2,54,100,0
2,54,0,120
2,52,100,0
2,57,100,0
2,61,100,0
2,61,0,299
2,57,0,0
2,52,0,0
2,54,100,1
2,54,0,60
2,54,100,0
2,54,0,120
2,52,100,0
2,57,100,0
2,61,100,0
2,61,0,299
2,57,0,0
2,52,0,0
2,54,100,1
2,54,0,60
2,54,100,0
2,54,0,120
2,52,100,0
2,57,100,0
2,61,100,0
2,61,0,299
2,57,0,0
2,52,0,0
2,54,100,1
2,54,0,60
2,54,100,0
2,54,0,120
2,52,100,0
2,57,100,0
2,61,100,0
2,61,0,299
2,57,0,0
2,52,0,0
2,54,100,1
2,54,0,60
2,54,100,0
2,54,0,120
2,52,100,0
2,57,100,0
2,61,100,0
2,61,0,299
2,57,0,0
2,52,0,0
2,54,100,1
2,54,0,60
2,54,100,0
2,54,0,120
2,52,100,0
2,57,100,0
2,61,100,0
2,61,0,299
2,57,0,0
2,52,0,0
2,54,100,1
2,54,0,60
2,54,100,0
2,54,0,120
2,52,100,0
2,57,100,0
2,61,100,0
2,61,0,299
2,57,0,0
2,52,0,0
2,52,100,961
2,54,100,0
2,54,0,240
2,52,0,0
2,54,100,180
2,54,0,480
2,54,100,540
2,54,0,60
2,54,100,0
2,54,0,120
2,52,100,0
2,57,100,0
2,61,100,0
2,61,0,299
2,57,0,0
2,52,0,0
2,54,100,1
2,54,0,60
2,54,100,0
2,54,0,120
2,52,100,0
2,57,100,0
2,61,100,0
2,61,0,299
2,57,0,0
2,52,0,0
2,54,100,1
2,54,0,60
2,54,100,0
2,54,0,120
2,52,100,0
2,57,100,0
2,61,100,0
2,61,0,299
2,57,0,0
2,52,0,0
2,54,100,481
2,54,0,60
2,54,100,0
2,54,0,120
2,52,100,0
2,57,100,0
2,61,100,0
2,61,0,299
2,57,0,0
2,52,0,0
2,54,100,1
2,54,0,60
2,54,100,0
2,54,0,120
2,52,100,0
2,57,100,0
2,61,100,0
2,61,0,299
2,57,0,0
2,52,0,0
2,54,100,1
2,54,0,60
2,54,100,0
2,54,0,120
2,52,100,0
2,57,100,0
2,61,100,0
2,61,0,299
2,57,0,0
2,52,0,0
2,54,100,1
2,54,0,60
2,54,100,0
2,54,0,120
2,52,100,0
2,57,100,0
2,61,100,0
2,61,0,299
2,57,0,0
2,52,0,0
2,54,100,1
2,54,0,60
2,54,100,0
2,54,0,120
2,52,100,0
2,57,100,0
2,61,100,0
2,61,0,299
2,57,0,0
2,52,0,0
2,54,100,1
2,54,0,60
2,54,100,0
2,54,0,120
2,52,100,0
2,57,100,0
2,61,100,0
2,61,0,299
2,57,0,0
2,52,0,0
2,54,100,1
2,54,0,60
2,54,100,0
2,54,0,120
2,52,100,0
2,57,100,0
2,61,100,0
2,61,0,299
2,57,0,0
2,52,0,0
2,54,100,1
2,54,0,60
2,54,100,0
2,54,0,120
2,52,100,0
2,57,100,0
2,61,100,0
2,61,0,299
2,57,0,0
2,52,0,0
2,54,100,1
2,54,0,60
2,54,100,0
2,54,0,120
2,52,100,0
2,57,100,0
2,61,100,0
2,61,0,299
2,57,0,0
2,52,0,0
2,54,100,1
2,54,0,60
2,54,100,0
2,54,0,120
2,52,100,0
2,57,100,0
2,61,100,0
2,61,0,299
2,57,0,0
2,52,0,0
2,54,100,1
2,54,0,60
2,54,100,0
2,54,0,120
2,52,100,0
2,57,100,0
2,61,100,0
2,61,0,299
2,57,0,0
2,52,0,0
2,54,100,1
2,54,0,60
2,54,100,0
2,54,0,120
2,52,100,0
2,57,100,0
2,61,100,0
2,61,0,299
2,57,0,0
2,52,0,0
2,54,100,1
2,54,0,60
2,54,100,0
2,54,0,120
2,52,100,0
2,57,100,0
2,61,100,0
2,61,0,299
2,57,0,0
2,52,0,0
2,52,100,661
2,57,100,0
2,61,100,0
2,61,0,240
2,57,0,0
2,52,0,0
2,54,100,60
2,54,0,60
2,54,100,0
2,54,0,120
2,52,100,0
2,57,100,0
2,61,100,0
2,61,0,299
2,57,0,0
2,52,0,0
2,52,100,181
2,57,100,0
2,61,100,0
2,61,0,90
2,57,0,0
2,52,0,0
2,52,100,0
2,57,100,0
2,61,100,0
2,61,0,30
2,57,0,0
2,52,0,0
2,52,100,0
2,57,100,0
2,61,100,0
2,61,0,60
2,57,0,0
2,52,0,0
2,52,100,0
2,57,100,0
2,61,100,0
2,61,0,120
2,57,0,0
2,52,0,0
2,54,100,0
2,54,0,60
2,54,100,0
2,54,0,120
2,52,100,0
2,57,100,0
2,61,100,0
2,61,0,90
2,57,0,0
2,52,0,0
2,52,100,0
2,57,100,0
2,61,100,0
2,61,0,30
2,57,0,0
2,52,0,0
2,52,100,0
2,57,100,0
2,61,100,0
2,61,0,60
2,57,0,0
2,52,0,0
2,52,100,0
2,57,100,0
2,61,100,0
2,61,0,120
2,57,0,0
2,52,0,0
2,54,100,0
2,54,0,60
2,54,100,0
2,54,0,120
2,52,100,0
2,57,100,0
2,61,100,0
2,61,0,90
2,57,0,0
2,52,0,0
2,52,100,0
2,57,100,0
2,61,100,0
2,61,0,30
2,57,0,0
2,52,0,0
2,52,100,0
2,57,100,0
2,61,100,0
2,61,0,60
2,57,0,0
2,52,0,0
2,52,100,0
2,57,100,0
2,61,100,0
2,61,0,120
2,57,0,0
2,52,0,0
2,57,100,180
2,61,100,0
2,64,100,0
2,64,0,240
2,61,0,0
2,57,0,0
2,61,100,0
2,61,0,120
2,57,100,120
2,61,100,0
2,64,100,0
2,64,0,90
2,61,0,0
2,57,0,0
2,57,100,0
2,61,100,0
2,61,0,30
2,57,0,0
2,57,100,0
2,61,100,0
2,61,0,60
2,57,0,0
2,57,100,0
2,61,100,0
2,61,0,120
2,57,0,0
2,54,100,0
2,54,0,60
2,54,100,0
2,54,0,120
2,52,100,0
2,57,100,0
2,61,100,0
2,61,0,90
2,57,0,0
2,52,0,0
2,52,100,0
2,57,100,0
2,61,100,0
2,61,0,30
