track,note,velocity,time
1,42,70,2652
1,39,70,52
1,37,70,52
1,42,70,52
1,42,70,52
1,39,70,52
1,37,70,52
1,39,70,52
1,42,70,52
1,39,70,52
1,37,70,52
1,42,70,52
1,42,70,52
1,39,70,52
1,37,70,52
1,39,70,52
1,42,70,52
1,39,70,52
1,37,70,52
1,42,70,52
1,42,70,52
1,39,70,52
1,37,70,52
1,39,70,52
1,42,70,52
1,39,70,52
1,37,70,52
1,42,70,52
1,42,70,52
1,39,70,52
1,37,70,52
1,39,70,52
1,42,70,52
1,39,70,52
1,37,70,52
1,42,70,52
1,42,70,52
1,39,70,52
1,37,70,52
1,39,70,52
1,42,70,52
1,39,70,52
1,37,70,52
1,42,70,52
1,42,70,52
1,39,70,52
1,37,70,52
1,39,70,52
1,42,70,52
1,39,70,52
1,37,70,52
1,42,70,52
1,42,70,52
1,39,70,52
1,37,70,52
1,39,70,52
1,42,70,52
1,39,70,52
1,37,70,52
1,42,70,52
1,42,70,52
1,39,70,52
1,37,70,52
1,39,70,52
1,44,70,52
1,44,70,52
1,44,70,52
1,44,70,52
1,44,70,52
1,44,70,52
1,42,70,52
1,44,70,52
1,32,70,52
1,32,70,52
1,32,70,52
1,32,70,52
1,32,70,52
1,32,70,52
1,32,70,52
1,37,70,52
1,42,70,52
1,39,70,52
1,37,70,52
1,42,70,52
1,42,70,52
1,39,70,52
1,37,70,52
1,39,70,52
1,42,70,52
1,39,70,52
1,37,70,52
1,39,70,52
1,42,70,52
1,34,70,52
1,37,70,52
1,39,70,52
1,42,70,52
1,39,70,52
1,37,70,52
1,42,70,52
1,42,70,52
1,39,70,52
1,37,70,52
1,39,70,52
1,42,70,52
1,39,70,52
1,37,70,52
1,42,70,52
1,42,70,52
1,39,70,52
1,37,70,52
1,39,70,52
1,42,70,52
1,39,70,52
1,37,70,52
1,42,70,52
1,42,70,52
1,39,70,52
1,37,70,52
1,39,70,52
1,42,70,52
1,39,70,52
1,37,70,52
1,42,70,52
1,42,70,52
1,39,70,52
1,37,70,52
1,39,70,52
1,44,70,52
1,44,70,52
1,44,70,52
1,44,70,52
1,44,70,52
1,44,70,52
1,44,70,52
1,39,70,52
1,39,70,52
1,39,70,52
1,39,70,52
1,39,70,52
1,39,70,52
1,39,70,52
1,39,70,52
1,39,70,52
1,44,70,52
1,44,70,52
1,44,70,52
1,44,70,52
1,44,70,52
1,44,70,52
1,44,70,52
1,39,70,52
1,39,70,52
1,39,70,52
1,39,70,52
1,39,70,52
1,39,70,52
1,39,70,52
1,39,70,52
1,34,70,52
1,37,70,52
1,37,70,52
1,37,70,52
1,37,70,52
1,37,70,52
1,37,70,52
1,37,70,52
1,37,70,52
1,37,70,52
1,32,70,52
1,37,70,52
1,32,70,52
1,37,70,52
1,42,70,628
1,39,70,52
1,37,70,52
1,42,70,52
1,42,70,52
1,39,70,52
1,37,70,52
1,39,70,52
1,42,70,52
1,39,70,52
1,37,70,52
1,42,70,52
1,42,70,52
1,39,70,52
1,37,70,52
1,39,70,52
1,42,70,52
1,39,70,52
1,37,70,52
1,42,70,52
1,42,70,52
1,39,70,52
1,37,70,52
1,39,70,52
1,42,70,52
1,39,70,52
1,37,70,52
1,42,70,52
1,42,70,52
1,39,70,52
1,37,70,52
1,42,70,52
1,44,70,52
1,44,70,52
1,44,70,52
1,44,70,52
1,44,70,52
1,44,70,52
1,42,70,52
1,44,70,52
1,32,70,52
1,32,70,52
1,32,70,52
1,32,70,52
1,32,70,52
1,32,70,52
1,32,70,52
1,37,70,52
1,42,70,52
1,39,70,52
1,37,70,52
1,42,70,52
1,42,70,52
1,39,70,52
1,37,70,52
1,39,70,52
1,42,70,52
1,39,70,52
1,37,70,52
1,39,70,52
1,42,70,52
1,34,70,52
1,37,70,52
1,39,70,52
1,42,70,52
1,39,70,52
1,37,70,52
1,42,70,52
1,42,70,52
1,39,70,52
1,37,70,52
1,39,70,52
1,42,70,52
1,39,70,52
1,37,70,52
1,42,70,52
1,42,70,52
1,39,70,52
1,37,70,52
1,39,70,52
1,42,70,52
1,39,70,52
1,37,70,52
1,42,70,52
1,42,70,52
1,39,70,52
1,37,70,52
1,39,70,52
1,42,70,52
1,39,70,52
1,37,70,52
1,42,70,52
1,42,70,52
1,39,70,52
1,37,70,52
1,39,70,52
1,44,70,52
1,44,70,52
1,44,70,52
1,44,70,52
1,44,70,52
1,44,70,52
1,42,70,52
1,44,70,52
1,32,70,52
1,32,70,52
1,32,70,52
1,32,70,52
1,32,70,52
1,32,70,52
1,32,70,52
1,37,70,52
1,42,70,52
1,39,70,52
1,37,70,52
1,42,70,52
1,42,70,52
1,39,70,52
1,37,70,52
1,39,70,52
1,42,70,52
1,39,70,52
1,37,70,52
1,42,70,52
1,42,70,52
1,39,70,52
1,37,70,52
1,39,70,52
1,42,70,52
1,39,70,52
1,37,70,52
1,42,70,52
1,42,70,52
1,39,70,52
1,37,70,52
1,39,70,52
1,42,70,52
1,39,70,52
1,37,70,52
1,42,70,52
1,42,70,52
1,39,70,52
1,37,70,52
1,39,70,52
1,42,70,52
1,39,70,52
1,37,70,52
1,42,70,52
1,42,70,52
1,39,70,52
1,37,70,52
1,39,70,52
1,42,70,52
1,39,70,52
1,37,70,52
1,42,70,52
1,42,70,52
1,39,70,52
1,37,70,52
1,39,70,52
1,44,70,52
1,44,70,52
1,44,70,52
1,44,70,52
1,44,70,52
1,44,70,52
1,44,70,52
1,39,70,52
1,39,70,52
1,39,70,52
1,39,70,52
1,39,70,52
1,39,70,52
1,34,70,52
1,39,70,52
1,34,70,52
1,44,70,52
1,44,70,52
1,44,70,52
1,44,70,52
1,44,70,52
1,42,70,52
1,44,70,52
1,39,70,52
1,39,70,244
1,39,70,52
1,39,70,52
1,39,70,52
1,34,70,52
1,39,70,52
1,34,70,52
1,37,70,52
1,37,70,52
1,37,70,52
1,37,70,52
1,37,70,52
1,37,70,52
1,37,70,52
1,37,70,52
1,37,70,52
1,32,70,52
1,37,70,52
1,32,70,52
1,37,70,52
1,42,70,628
1,39,70,52
1,37,70,52
1,42,70,52
1,42,70,52
1,39,70,52
1,37,70,52
1,39,70,52
1,42,70,52
1,39,70,52
1,37,70,52
1,42,70,52
1,42,70,52
1,39,70,52
1,37,70,52
1,39,70,52
1,42,70,52
1,39,70,52
1,37,70,52
1,42,70,52
1,42,70,52
1,39,70,52
1,37,70,52
1,39,70,52
1,42,70,52
1,39,70,52
1,37,70,52
1,42,70,52
1,42,70,52
1,39,70,52
1,37,70,52
1,39,70,52
1,44,70,52
1,44,70,52
1,44,70,52
1,44,70,52
1,44,70,52
1,44,70,52
1,42,70,52
1,44,70,52
1,32,70,52
1,32,70,52
1,32,70,52
1,32,70,52
1,32,70,52
1,32,70,52
1,32,70,52
1,37,70,52
1,42,70,52
1,39,70,52
1,37,70,52
1,42,70,52
1,42,70,52
1,39,70,52
1,37,70,52
1,39,70,52
1,42,70,52
1,39,70,52
1,37,70,52
1,39,70,52
1,34,70,52
1,37,70,52
1,39,70,52
1,42,70,52
1,39,70,52
1,39,70,52
1,39,70,52
1,39,70,52
1,39,70,52
1,39,70,52
1,39,70,52
1,32,70,52
1,32,70,52
1,32,70,52
1,32,70,52
1,32,70,52
1,32,70,52
1,32,70,52
1,32,70,52
1,37,70,52
1,39,70,52
1,39,70,52
1,39,70,52
1,39,70,52
1,39,70,52
1,39,70,52
1,39,70,52
1,34,70,52
1,32,70,52
1,32,70,52
1,32,70,52
1,32,70,52
1,32,70,52
1,32,70,52
1,32,70,52
1,37,70,52
1,39,70,52
1,39,70,52
1,39,70,52
1,39,70,52
1,39,70,52
1,39,70,52
1,39,70,52
1,34,70,52
1,32,70,52
1,32,70,52
1,32,70,52
1,32,70,52
1,32,70,52
1,32,70,52
1,32,70,52
1,37,70,52
1,39,70,52
1,39,70,52
1,39,70,52
1,39,70,52
1,39,70,52
1,39,70,52
1,39,70,52
1,34,70,52
1,44,70,52
1,32,70,244
1,44,70,244
1,42,70,628
1,39,70,52
1,37,70,52
1,42,70,52
1,42,70,52
1,39,70,52
1,37,70,52
1,39,70,52
1,42,70,52
1,39,70,52
1,37,70,52
1,42,70,52
1,42,70,52
1,39,70,52
1,37,70,52
1,39,70,52
1,42,70,52
1,39,70,52
1,37,70,52
1,42,70,52
1,42,70,52
1,39,70,52
1,37,70,52
1,39,70,52
1,42,70,52
1,39,70,52
1,37,70,52
1,42,70,52
1,42,70,52
1,39,70,52
1,37,70,52
1,39,70,52
1,44,70,52
1,44,70,52
1,44,70,52
1,44,70,52
1,44,70,52
1,42,70,52
1,44,70,52
1,39,70,52
1,39,70,52
1,39,70,52
1,39,70,52
1,39,70,52
1,39,70,52
1,34,70,52
1,39,70,52
1,34,70,52
1,44,70,52
1,44,70,52
1,44,70,52
1,44,70,52
1,44,70,52
1,42,70,52
1,44,70,52
1,39,70,52
1,39,70,52
1,39,70,52
1,39,70,52
1,34,70,52
1,39,70,52
1,34,70,52
1,39,70,52
1,34,70,52
1,37,70,52
1,37,70,52
1,37,70,52
1,37,70,52
1,37,70,52
1,37,70,52
1,37,70,52
1,37,70,52
1,37,70,52
1,37,70,244
1,37,70,244
1,42,70,628
1,39,70,52
1,37,70,52
1,42,70,52
1,42,70,52
1,39,70,52
1,37,70,52
1,39,70,52
1,42,70,52
1,39,70,52
1,37,70,52
1,42,70,52
1,42,70,52
1,39,70,52
1,37,70,52
1,39,70,52
1,42,70,52
1,39,70,52
1,37,70,52
1,42,70,52
1,42,70,52
1,39,70,52
1,37,70,52
1,39,70,52
1,42,70,52
1,39,70,52
1,37,70,52
1,42,70,52
1,42,70,52
1,39,70,52
1,37,70,52
1,42,70,52
1,44,70,52
1,44,70,52
1,44,70,52
1,44,70,52
1,44,70,52
1,44,70,52
1,39,70,52
1,42,70,52
1,44,70,52
1,32,70,52
1,32,70,52
1,32,70,52
1,32,70,52
1,32,70,52
1,32,70,52
1,37,70,52
1,42,70,52
1,39,70,52
1,37,70,52
1,42,70,52
1,42,70,52
1,39,70,52
1,37,70,52
1,39,70,52
1,42,70,52
1,39,70,52
1,37,70,52
1,42,70,52
1,42,70,52
1,39,70,52
1,37,70,52
1,39,70,52
1,42,70,52
1,39,70,52
1,37,70,52
1,42,70,52
1,42,70,52
1,39,70,52
1,37,70,52
1,39,70,52
1,42,70,52
1,39,70,52
1,37,70,52
1,42,70,52
1,42,70,52
1,39,70,52
1,37,70,52
1,39,70,52
1,42,70,52
1,39,70,52
1,37,70,52
1,42,70,52
1,42,70,52
1,39,70,52
1,37,70,52
1,39,70,52
1,42,70,52
1,39,70,52
1,37,70,52
1,42,70,52
1,42,70,52
1,39,70,52
1,37,70,52
1,42,70,52
1,44,70,52
1,44,70,52
1,44,70,52
1,44,70,52
1,44,70,52
1,44,70,52
1,39,70,52
1,42,70,52
1,44,70,52
1,32,70,52
1,32,70,52
1,32,70,52
1,32,70,52
1,32,70,52
1,32,70,52
1,37,70,52
1,42,70,52
1,39,70,52
1,37,70,52
1,42,70,52
1,42,70,52
1,39,70,52
1,37,70,52
1,39,70,52
1,42,70,52
1,39,70,52
1,37,70,52
1,42,70,52
1,42,70,52
1,39,70,52
1,37,70,52
1,39,70,52
2,66,68,5896
2,61,80,0
2,58,76,0
2,66,66,484
2,61,88,0
2,58,72,0
2,66,72,680
2,58,80,0
2,61,84,0
2,66,52,492
2,61,80,0
2,58,68,0
2,58,72,880
2,61,64,0
2,66,56,0
2,58,68,492
2,66,60,0
2,61,64,0
2,66,64,872
2,58,72,0
2,61,66,0
2,61,64,492
2,58,66,0
2,66,58,0
2,61,58,884
2,58,62,0
2,66,54,0
2,66,66,492
2,58,64,0
2,61,62,0
2,61,66,868
2,58,80,0
2,66,44,0
2,66,64,492
2,61,62,0
2,58,60,0
2,63,60,860
2,68,64,0
2,59,62,0
2,68,66,456
2,63,56,0
2,59,66,0
2,68,64,852
2,63,54,0
2,59,62,0
2,59,72,468
2,68,72,0
2,63,60,0
2,61,62,852
2,58,58,0
2,66,66,0
2,61,68,484
2,66,60,0
2,58,66,0
2,66,62,876
2,61,58,0
2,58,64,0
2,58,68,480
2,66,58,0
2,61,62,0
2,66,60,872
2,58,68,0
2,61,68,0
2,66,58,492
2,58,72,0
2,61,66,0
2,61,62,880
2,58,60,0
2,66,58,0
2,66,64,488
2,61,66,0
2,58,64,0
2,58,68,864
2,61,64,0
2,66,56,0
2,66,48,492
2,61,60,0
2,58,68,0
2,66,62,876
2,61,60,0
2,58,60,0
2,66,64,460
2,58,68,0
2,61,64,0
2,56,76,7020
2,61,62,0
2,66,54,0
2,56,66,264
2,61,60,0
2,66,60,0
2,66,68,284
2,61,64,0
2,56,68,0
2,56,66,228
2,61,68,0
2,65,84,0
2,63,68,264
2,56,50,0
2,61,62,0
2,63,68,256
2,61,62,0
2,56,62,0
2,65,84,248
2,61,76,0
2,56,62,0
2,58,64,880
2,66,64,0
2,61,64,0
2,66,66,500
2,61,72,0
2,58,66,0
2,61,68,688
2,66,58,0
2,58,68,0
2,66,64,488
2,61,66,0
2,58,68,0
2,66,66,1064
2,61,68,0
2,58,66,0
2,66,64,496
2,61,76,0
2,58,66,0
2,66,58,692
2,61,64,0
2,58,64,0
2,58,64,492
2,66,64,0
2,61,68,0
2,68,66,860
2,59,66,0
2,63,62,0
2,68,64,452
2,63,64,0
2,59,66,0
2,68,66,852
2,59,62,0
2,63,68,0
2,63,62,456
2,68,62,0
2,59,68,0
2,66,66,1052
2,61,72,0
2,58,64,0
2,66,58,504
2,61,68,0
2,58,64,0
2,66,54,664
2,61,80,0
2,58,68,0
2,66,64,488
2,61,64,0
2,58,64,0
2,66,64,872
2,58,66,0
2,61,68,0
2,66,60,484
2,58,68,0
2,61,66,0
2,66,64,876
2,61,76,0
2,58,72,0
2,66,56,488
2,61,66,0
2,58,64,0
2,66,60,872
2,61,58,0
2,58,56,0
2,66,58,472
2,61,72,0
2,58,68,0
2,66,54,872
2,58,66,0
2,61,68,0
2,66,64,480
2,58,68,0
2,61,68,0
2,68,66,868
2,59,66,0
2,63,64,0
2,59,68,456
2,68,66,0
2,63,64,0
2,68,68,856
2,59,64,0
2,63,64,0
2,68,66,464
2,59,64,0
2,63,66,0
2,66,62,860
2,58,68,0
2,61,64,0
2,58,68,484
2,61,66,0
2,66,56,0
2,61,64,876
2,66,50,0
2,58,66,0
2,66,62,492
2,58,62,0
2,61,60,0
2,58,68,860
2,61,66,0
2,66,56,0
2,61,60,484
2,58,66,0
2,66,46,0
2,61,64,880
2,58,68,0
2,66,31,0
2,66,60,492
2,61,60,0
2,58,60,0
2,66,52,868
2,58,76,0
2,61,68,0
2,58,76,460
2,61,76,0
2,66,64,0
2,66,50,860
2,61,56,0
2,58,62,0
2,66,54,472
2,58,68,0
2,61,68,0
2,66,66,7020
2,61,64,0
2,56,72,0
2,61,64,204
2,56,66,0
2,66,72,0
2,61,60,220
2,56,66,0
2,66,72,0
2,56,64,224
2,65,84,0
2,61,66,0
2,61,66,200
2,56,62,0
2,63,72,0
2,56,64,232
2,61,66,0
2,63,68,0
2,65,84,96
2,61,76,0
2,56,80,0
2,66,66,888
2,58,76,0
2,61,76,0
2,58,68,504
2,66,56,0
2,61,64,0
2,58,68,680
2,61,66,0
2,66,62,0
2,61,76,492
2,58,72,0
2,66,64,0
2,58,68,1076
2,61,66,0
2,66,62,0
2,66,64,488
2,61,76,0
2,58,76,0
2,61,76,684
2,58,76,0
2,66,60,0
2,61,64,496
2,66,60,0
2,58,66,0
2,63,62,860
2,59,64,0
2,68,60,0
2,59,64,480
2,63,66,0
2,68,66,0
2,63,62,876
2,68,60,0
2,59,66,0
2,68,62,488
2,63,64,0
2,59,66,0
2,66,60,1056
2,58,62,0
2,61,60,0
2,61,58,496
2,58,66,0
2,66,50,0
2,61,68,676
2,58,66,0
2,66,58,0
2,58,72,492
2,61,66,0
2,66,54,0
2,61,62,876
2,66,52,0
2,58,62,0
