track,note,velocity,time
3,61,82,1666
3,61,0,14
3,61,78,32
3,61,0,13
3,61,78,31
3,61,0,16
3,68,87,31
3,68,0,15
3,68,82,45
3,68,100,2
3,68,0,39
3,68,0,9
3,66,70,48
3,66,0,11
3,66,92,37
3,66,0,1
3,61,66,168
3,61,0,9
3,61,52,39
3,61,0,8
3,61,70,40
3,61,0,16
3,68,74,32
3,68,0,21
3,68,78,50
3,68,100,48
3,68,0,37
3,70,58,48
3,68,0,1
3,70,0,40
3,66,74,7
3,66,0,2
3,68,78,1
3,68,0,4
3,68,74,22
3,68,0,29
3,68,78,19
3,68,0,30
3,68,78,18
3,68,0,30
3,68,78,66
3,68,0,30
3,66,70,1
3,66,0,33
3,66,82,1
3,66,0,72
3,61,66,2
3,61,0,41
3,63,56,7
3,63,0,42
3,66,74,6
3,66,0,25
3,61,78,71
3,61,0,27
3,61,70,19
3,56,82,96
3,61,0,6
3,56,0,58
3,61,74,233
3,63,70,48
3,61,0,3
3,63,0,42
3,68,70,3
3,68,0,29
3,68,66,162
3,68,0,39
3,66,78,9
3,66,0,27
3,66,82,21
3,66,0,1
3,61,66,190
3,61,0,47
3,61,62,1
3,61,0,41
3,68,74,7
3,68,0,48
3,68,70,139
3,68,0,39
3,70,34,9
3,70,0,40
3,71,58,8
3,71,0,31
3,73,70,65
3,73,0,29
3,70,82,0
3,70,0,1
3,70,70,8
3,70,0,41
3,66,74,7
3,66,0,34
3,68,74,14
3,68,0,1
3,68,70,1
3,68,0,1
3,66,54,62
3,68,56,0
3,66,0,18
3,66,78,54
3,68,0,1
3,66,0,18
3,63,78,5
3,63,0,15
3,68,82,123
3,68,0,33
3,70,70,15
3,70,0,31
3,71,62,17
3,70,27,48
3,71,0,4
3,68,62,44
3,70,0,22
3,68,0,41
3,68,70,8
3,68,0,38
3,66,44,58
3,68,58,0
3,68,0,12
3,66,0,1
3,66,74,58
3,66,0,44
3,68,74,4
3,68,0,19
3,68,78,29
3,68,100,37
3,68,0,2
3,68,0,1
3,61,74,303
3,61,0,20
3,63,74,28
3,63,0,17
3,66,92,31
3,66,0,2
3,63,74,4
3,63,0,25
3,78,74,167
3,78,0,1
3,68,78,214
3,68,0,27
3,68,78,69
3,68,0,43
3,66,48,5
3,66,0,38
3,68,74,10
3,68,0,23
3,68,74,25
3,73,66,48
3,68,0,1
3,73,0,33
3,68,74,62
3,68,0,131
3,61,74,291
3,61,0,29
3,63,56,19
3,63,0,19
3,68,62,29
3,68,0,49
3,68,66,11
3,68,0,29
3,66,78,67
3,66,0,40
3,68,54,8
3,68,0,77
3,61,78,19
3,61,0,196
3,66,78,81
3,66,0,33
3,68,46,15
3,68,0,35
3,66,78,13
3,66,0,1
3,61,40,6
3,63,52,0
3,61,0,19
3,63,0,7
3,70,74,262
3,70,0,31
3,66,66,17
3,66,0,24
3,68,42,24
3,68,0,16
3,66,82,32
3,61,34,0
3,66,0,1
3,61,0,1
3,61,50,11
3,61,0,23
3,61,70,1
3,61,0,14
3,61,66,34
3,61,0,23
3,68,58,0
3,68,0,23
3,68,70,59
3,68,100,0
3,68,0,28
3,68,0,15
3,66,52,48
3,66,0,18
3,66,74,30
3,66,0,1
3,61,62,159
3,61,0,10
3,61,52,38
3,61,0,12
3,61,66,36
3,61,0,24
3,68,66,1
3,68,0,26
3,68,58,53
3,68,46,0
3,68,0,21
3,70,44,73
3,68,0,3
3,66,46,45
3,70,0,6
3,66,0,1
3,68,42,413
3,68,0,13
3,68,74,1
3,68,0,11
3,68,66,13
3,68,0,2
3,68,66,46
3,68,0,27
3,68,70,21
3,68,0,25
3,66,72,71
3,66,0,23
3,66,78,1
3,66,0,4
3,63,52,1
3,63,0,1
3,63,52,2
3,63,0,23
3,61,70,25
3,61,0,36
3,63,62,12
3,63,0,44
3,66,70,4
3,66,0,31
3,63,54,65
3,63,0,39
3,61,66,9
3,61,0,24
3,56,74,72
3,56,0,123
3,61,70,159
3,61,0,47
3,61,54,1
3,61,0,44
3,68,66,4
3,68,0,40
3,68,54,185
3,68,0,39
3,66,66,9
3,66,0,23
3,66,62,25
3,66,0,1
3,61,58,180
3,61,0,11
3,61,74,37
3,61,0,36
3,68,56,12
3,68,0,52
3,68,54,228
3,68,0,37
3,70,48,11
3,71,56,48
3,70,0,7
3,71,0,37
3,73,54,4
3,73,0,35
3,68,58,61
3,68,0,96
3,68,70,22
3,68,0,40
3,66,66,0
3,66,0,31
3,68,74,12
3,68,0,44
3,68,40,4
3,68,0,28
3,68,56,68
3,66,66,72
3,68,0,13
3,66,0,6
3,63,44,5
3,63,0,1
3,68,70,108
3,68,0,43
3,70,44,5
3,70,0,33
3,71,58,15
3,70,44,0
3,71,0,4
3,68,46,43
3,70,0,5
3,68,0,1
3,68,78,11
3,68,0,27
3,66,70,0
3,63,46,1
3,63,0,1
3,66,0,15
3,63,66,10
3,63,0,22
3,66,82,26
3,66,0,40
3,68,58,8
3,68,0,23
3,68,74,25
3,68,46,21
3,68,0,15
3,68,0,1
3,61,78,289
3,61,0,30
3,63,58,18
3,63,0,20
3,66,78,28
3,66,0,1
3,63,66,9
3,63,0,43
3,78,74,149
3,78,0,1
3,68,74,154
3,68,0,31
3,68,74,65
3,68,0,43
3,66,42,5
3,68,62,48
3,66,0,6
3,68,0,16
3,68,58,26
3,68,0,42
3,73,58,6
3,73,0,26
3,68,74,70
3,68,0,102
3,61,74,313
3,61,0,42
3,63,56,6
3,63,0,22
3,68,56,26
3,68,0,27
3,68,62,13
3,68,0,37
3,66,74,59
3,66,0,39
3,68,54,9
3,68,0,50
3,61,78,46
3,61,0,233
3,66,74,42
3,66,0,35
3,68,42,13
3,68,0,43
3,66,78,5
3,66,0,52
3,61,78,44
3,61,0,29
3,70,66,0
3,70,0,9
3,66,78,23
3,66,0,33
3,68,44,15
3,68,0,33
3,66,58,15
3,68,66,1
3,66,0,7
3,66,56,36
3,68,0,4
3,65,74,44
3,66,0,4
3,63,54,44
3,65,0,5
3,63,0,1
3,66,58,187
3,66,0,35
3,68,52,13
3,66,54,48
3,68,0,13
3,66,0,31
3,65,56,4
3,65,0,38
3,63,70,10
3,63,0,1
3,66,74,190
3,66,0,38
3,68,48,10
3,66,54,48
3,68,0,10
3,66,0,33
3,65,66,5
3,63,66,48
3,65,0,4
3,63,0,1
3,66,54,189
3,66,0,32
3,68,54,16
3,66,58,48
3,68,0,5
3,66,0,37
3,65,52,6
3,65,0,39
3,63,70,9
3,63,0,2
3,61,78,256
3,61,0,45
3,63,70,3
3,63,0,45
3,68,56,3
3,68,0,12
3,68,70,172
3,68,0,36
3,66,78,12
3,66,0,26
3,66,74,22
3,66,0,1
3,61,70,248
3,63,54,48
3,61,0,4
3,68,54,44
3,63,0,1
3,68,0,20
3,68,74,132
3,68,0,38
3,70,58,10
3,70,0,47
3,71,56,1
3,71,0,47
3,73,56,49
3,73,0,42
3,68,74,54
3,68,0,92
3,68,74,24
3,68,0,1
3,66,82,1
3,66,0,35
3,68,52,12
3,68,0,26
3,68,30,22
3,68,0,25
3,68,58,71
3,66,66,72
3,68,0,16
3,63,56,8
3,66,0,1
3,63,0,2
3,68,74,44
3,68,0,41
3,70,52,7
3,70,0,47
3,71,66,1
3,71,0,53
3,68,66,43
3,68,0,1
3,68,66,26
3,66,48,0
3,66,0,17
3,68,0,79
3,66,78,0
3,66,0,1
3,61,58,28
3,61,0,21
3,66,62,27
3,66,0,43
3,68,62,5
3,68,0,28
3,68,74,20
3,68,54,22
3,68,0,24
3,68,0,1
3,61,78,306
3,61,0,30
3,63,74,18
3,63,0,19
3,66,82,29
3,66,0,1
3,63,70,1
3,63,0,29
3,78,74,155
3,78,0,1
3,68,82,189
3,68,0,30
3,68,82,66
3,68,0,44
3,66,78,4
3,66,0,46
3,68,70,2
3,68,0,21
3,68,74,27
3,68,0,46
3,73,62,2
3,73,0,35
3,68,70,61
3,68,0,21
3,61,74,372
3,61,0,37
3,63,54,11
3,63,0,38
3,68,70,10
3,68,0,25
3,68,70,17
3,68,0,37
3,66,78,59
3,66,0,44
3,68,42,4
3,68,0,62
3,61,74,34
3,61,0,6
3,66,74,27
3,66,0,35
3,68,38,13
3,68,0,41
3,66,78,7
3,66,0,48
3,63,58,1
3,63,0,1
3,70,66,210
3,70,0,48
3,66,58,0
3,66,0,40
3,68,46,8
3,68,0,21
3,66,70,27
3,66,0,1
3,61,54,0
3,63,50,41
3,61,0,2
3,66,56,46
3,63,0,9
3,66,0,43
3,68,54,44
3,68,0,21
3,68,82,24
3,68,0,1
3,68,52,0
3,68,0,22
3,66,40,0
3,66,0,15
3,68,74,0
3,66,48,0
3,68,0,1
3,66,0,9
3,68,46,15
3,68,0,19
3,68,62,24
3,68,0,1
3,68,62,0
3,68,0,24
3,66,40,0
3,66,0,24
3,66,46,0
3,66,0,1
3,70,70,24
3,70,0,20
3,71,54,24
3,71,0,2
3,70,66,1
3,68,48,24
3,70,0,6
3,68,0,17
3,66,32,1
3,66,0,20
3,68,40,4
3,66,42,1
3,68,0,5
3,66,0,17
3,63,30,0
3,63,0,12
3,66,52,0
3,63,46,3
3,66,0,1
3,63,0,22
3,61,42,24
3,61,0,16
3,63,36,0
3,63,0,21
3,66,27,0
3,66,0,22
3,63,44,0
3,63,0,24
3,70,34,1
3,70,0,19
3,66,36,24
3,66,0,22
3,68,32,24
3,66,40,24
3,68,0,2
3,66,0,1
4,42,70,279
4,42,0,35
4,39,70,13
4,39,0,35
4,37,70,13
4,37,0,35
4,42,70,13
4,42,0,35
4,42,70,13
4,42,0,35
4,39,70,13
4,39,0,35
4,37,70,13
4,37,0,35
4,39,70,13
4,39,0,35
4,42,70,13
4,42,0,35
4,39,70,13
4,39,0,35
4,37,70,13
4,37,0,35
4,42,70,13
4,42,0,35
4,42,70,13
4,42,0,35
4,39,70,13
4,39,0,35
4,37,70,13
4,37,0,35
4,39,70,13
4,39,0,35
4,42,70,13
4,42,0,35
4,39,70,13
4,39,0,35
4,37,70,13
4,37,0,35
4,42,70,13
4,42,0,35
4,42,70,13
4,42,0,35
4,39,70,13
4,39,0,35
4,37,70,13
4,37,0,35
4,39,70,13
4,39,0,35
4,42,70,13
4,42,0,35
4,39,70,13
4,39,0,35
4,37,70,13
4,37,0,35
4,42,70,13
4,42,0,35
4,42,70,13
4,42,0,35
4,39,70,13
4,39,0,35
4,37,70,13
4,37,0,35
4,39,70,13
4,39,0,35
4,42,70,13
4,42,0,35
4,39,70,13
4,39,0,35
4,37,70,13
4,37,0,35
4,42,70,13
4,42,0,35
4,42,70,13
4,42,0,35
4,39,70,13
4,39,0,35
4,37,70,13
4,37,0,35
4,39,70,13
4,39,0,35
4,42,70,13
4,42,0,35
4,39,70,13
4,39,0,35
4,37,70,13
4,37,0,35
4,42,70,13
4,42,0,35
4,42,70,13
4,42,0,35
4,39,70,13
4,39,0,35
4,37,70,13
4,37,0,35
4,39,70,13
4,39,0,35
4,42,70,13
4,42,0,35
4,39,70,13
4,39,0,35
4,37,70,13
4,37,0,35
4,42,70,13
4,42,0,35
4,42,70,13
4,42,0,35
4,39,70,13
4,39,0,35
4,37,70,13
4,37,0,35
4,39,70,13
4,39,0,35
4,42,70,13
4,42,0,35
4,39,70,13
4,39,0,35
4,37,70,13
4,37,0,35
4,42,70,13
4,42,0,35
4,42,70,13
4,42,0,35
4,39,70,13
4,39,0,35
4,37,70,13
4,37,0,35
4,39,70,13
4,39,0,35
4,44,70,13
4,44,0,35
4,44,70,13
4,44,0,35
4,44,70,13
4,44,0,35
4,44,70,13
4,44,0,35
4,44,70,13
4,44,0,35
4,44,70,13
4,44,0,35
4,42,70,13
4,42,0,35
4,44,70,13
4,44,0,35
4,32,70,13
4,32,0,35
4,32,70,13
4,32,0,35
4,32,70,13
4,32,0,35
4,32,70,13
4,32,0,35
4,32,70,13
4,32,0,35
4,32,70,13
4,32,0,35
4,32,70,13
4,32,0,35
4,37,70,13
4,37,0,35
4,42,70,13
4,42,0,35
4,39,70,13
4,39,0,35
4,37,70,13
4,37,0,35
4,42,70,13
4,42,0,35
4,42,70,13
4,42,0,35
4,39,70,13
4,39,0,35
4,37,70,13
4,37,0,35
4,39,70,13
4,39,0,35
4,42,70,13
4,42,0,35
4,39,70,13
4,39,0,35
4,37,70,13
4,37,0,35
4,39,70,13
4,39,0,35
4,42,70,13
4,42,0,35
4,34,70,13
4,34,0,35
4,37,70,13
4,37,0,35
4,39,70,13
4,39,0,35
4,42,70,13
4,42,0,35
4,39,70,13
4,39,0,35
4,37,70,13
4,37,0,35
4,42,70,13
4,42,0,35
4,42,70,13
4,42,0,35
4,39,70,13
4,39,0,35
4,37,70,13
4,37,0,35
4,39,70,13
4,39,0,35
4,42,70,13
4,42,0,35
4,39,70,13
4,39,0,35
4,37,70,13
4,37,0,35
4,42,70,13
4,42,0,35
4,42,70,13
4,42,0,35
4,39,70,13
4,39,0,35
4,37,70,13
4,37,0,35
4,39,70,13
4,39,0,35
4,42,70,13
4,42,0,35
4,39,70,13
4,39,0,35
4,37,70,13
4,37,0,35
4,42,70,13
4,42,0,35
4,42,70,13
4,42,0,35
4,39,70,13
4,39,0,35
4,37,70,13
4,37,0,35
4,39,70,13
4,39,0,35
4,42,70,13
4,42,0,35
4,39,70,13
4,39,0,35
4,37,70,13
4,37,0,35
4,42,70,13
4,42,0,35
4,42,70,13
4,42,0,35
4,39,70,13
4,39,0,35
4,37,70,13
4,37,0,35
4,39,70,13
4,39,0,35
4,44,70,13
4,44,0,35
4,44,70,13
4,44,0,35
4,44,70,13
4,44,0,35
4,44,70,13
4,44,0,35
4,44,70,13
4,44,0,35
4,44,70,13
4,44,0,35
4,44,70,13
4,44,0,35
4,39,70,13
4,39,0,35
4,39,70,13
4,39,0,35
4,39,70,13
4,39,0,35
4,39,70,13
4,39,0,35
4,39,70,13
4,39,0,35
4,39,70,13
4,39,0,35
4,39,70,13
4,39,0,35
4,39,70,13
4,39,0,35
4,39,70,13
4,39,0,35
4,44,70,13
4,44,0,35
4,44,70,13
4,44,0,35
4,44,70,13
4,44,0,35
4,44,70,13
4,44,0,35
4,44,70,13
4,44,0,35
4,44,70,13
4,44,0,35
4,44,70,13
4,44,0,35
4,39,70,13
4,39,0,35
4,39,70,13
4,39,0,35
4,39,70,13
4,39,0,35
4,39,70,13
4,39,0,35
4,39,70,13
4,39,0,35
4,39,70,13
4,39,0,35
4,39,70,13
4,39,0,35
4,39,70,13
4,39,0,35
4,34,70,13
4,34,0,35
4,37,70,13
4,37,0,35
4,37,70,13
4,37,0,35
4,37,70,13
4,37,0,35
4,37,70,13
4,37,0,35
4,37,70,13
4,37,0,35
4,37,70,13
4,37,0,35
4,37,70,13
4,37,0,35
4,37,70,13
4,37,0,35
4,37,70,13
4,37,0,35
4,32,70,13
4,32,0,35
4,37,70,13
4,37,0,35
4,32,70,13
4,32,0,35
4,37,70,13
4,37,0,35
4,42,70,157
4,42,0,35
4,39,70,13
4,39,0,35
4,37,70,13
4,37,0,35
4,42,70,13
4,42,0,35
4,42,70,13
4,42,0,35
4,39,70,13
4,39,0,35
4,37,70,13
4,37,0,35
4,39,70,13
4,39,0,35
4,42,70,13
4,42,0,35
4,39,70,13
4,39,0,35
4,37,70,13
4,37,0,35
4,42,70,13
4,42,0,35
4,42,70,13
4,42,0,35
4,39,70,13
4,39,0,35
4,37,70,13
4,37,0,35
4,39,70,13
4,39,0,35
4,42,70,13
4,42,0,35
4,39,70,13
4,39,0,35
4,37,70,13
4,37,0,35
4,42,70,13
4,42,0,35
4,42,70,13
4,42,0,35
4,39,70,13
4,39,0,35
4,37,70,13
4,37,0,35
4,39,70,13
4,39,0,35
4,42,70,13
4,42,0,35
4,39,70,13
4,39,0,35
4,37,70,13
4,37,0,35
4,42,70,13
4,42,0,35
4,42,70,13
4,42,0,35
4,39,70,13
4,39,0,35
4,37,70,13
4,37,0,35
4,42,70,13
4,42,0,35
