track,note,velocity,time
1,80,80,0
1,56,80,0
1,58,80,0
1,63,80,0
1,61,80,0
1,60,80,0
1,63,80,0
1,58,80,0
1,56,80,0
1,78,80,24
1,61,80,0
1,63,80,0
1,58,80,0
1,56,80,0
1,80,80,0
1,56,80,0
1,58,80,0
1,63,80,0
1,60,80,0
1,78,80,58
1,61,80,0
1,63,80,0
1,58,80,0
1,56,80,0
1,80,80,0
1,56,80,0
1,58,80,0
1,63,80,0
1,60,80,0
1,78,80,58
1,61,80,0
1,63,80,0
1,58,80,0
1,56,80,0
1,80,80,0
1,56,80,0
1,58,80,0
1,63,80,0
1,60,80,0
1,78,80,58
1,61,80,0
1,63,80,0
1,58,80,0
1,56,80,0
1,80,80,0
1,56,80,0
1,58,80,0
1,63,80,0
1,60,80,0
1,78,80,58
1,61,80,0
1,63,80,0
1,58,80,0
1,56,80,0
1,80,80,0
1,56,80,0
1,58,80,0
1,63,80,0
1,60,80,0
1,78,80,58
1,61,80,0
1,63,80,0
1,58,80,0
1,56,80,0
1,80,80,0
1,56,80,0
1,58,80,0
1,63,80,0
1,60,80,0
1,78,80,58
1,61,80,0
1,63,80,0
1,58,80,0
1,56,80,0
1,80,80,0
1,56,80,0
1,58,80,0
1,63,80,0
1,60,80,0
1,78,80,58
1,75,80,0
1,80,80,0
1,77,80,58
1,80,80,20
1,75,80,0
1,77,80,58
1,75,80,20
1,80,80,0
1,77,80,58
1,75,80,20
1,80,80,0
1,90,80,270
1,78,80,0
1,90,80,232
1,78,80,0
1,90,80,232
1,78,80,0
1,90,80,232
1,78,80,0
1,92,80,40
1,80,80,0
1,80,80,12136
1,61,80,0
1,63,80,0
1,58,80,0
1,56,80,0
1,56,80,0
1,58,80,0
1,63,80,0
1,60,80,0
1,78,80,0
1,80,80,0
1,61,80,0
1,63,80,0
1,58,80,0
1,56,80,0
1,56,80,0
1,58,80,0
1,63,80,0
1,60,80,0
1,90,80,240
1,78,80,0
1,90,80,232
1,78,80,0
1,92,80,40
1,80,80,0
1,92,80,808
1,80,80,0
1,75,64,3304
1,71,64,0
1,73,64,0
1,70,64,0
1,70,64,40
1,73,64,0
1,71,64,40
1,68,64,0
1,71,64,40
1,74,64,0
1,70,64,0
1,73,64,0
1,70,64,40
1,73,64,0
1,92,80,1038
1,80,80,0
1,71,64,3304
1,75,64,0
1,70,64,0
1,73,64,0
1,73,64,40
1,70,64,0
1,68,64,40
1,71,64,0
1,74,64,40
1,71,64,0
1,73,64,0
1,70,64,0
1,87,80,0
1,75,80,0
1,90,80,232
1,78,80,0
1,60,80,40
1,63,80,0
1,68,80,0
1,80,80,0
1,92,80,0
1,80,80,12136
1,61,80,0
1,63,80,0
1,58,80,0
1,56,80,0
1,56,80,0
1,58,80,0
1,63,80,0
1,60,80,0
1,78,80,0
1,80,80,0
1,61,80,0
1,63,80,0
1,58,80,0
1,56,80,0
1,56,80,0
1,58,80,0
1,63,80,0
1,60,80,0
1,78,80,240
1,90,80,0
1,78,80,232
1,90,80,0
1,80,80,40
1,92,80,0
1,80,80,808
1,92,80,0
1,71,64,3304
1,75,64,0
1,70,64,0
1,73,64,0
1,73,64,40
1,70,64,0
1,68,64,40
1,71,64,0
1,74,64,40
1,71,64,0
1,73,64,0
1,70,64,0
1,73,64,40
1,70,64,0
1,80,80,1038
1,92,80,0
1,63,80,808
1,70,80,0
1,73,80,0
1,75,64,2190
1,71,64,0
1,73,64,0
1,70,64,0
1,70,64,40
1,73,64,0
1,71,64,40
1,68,64,0
1,71,64,40
1,74,64,0
1,75,80,0
1,87,80,0
1,70,64,0
1,73,64,0
1,78,80,232
1,90,80,0
1,56,80,40
1,92,80,0
1,80,80,0
1,61,80,0
1,63,80,0
1,68,80,0
1,68,80,308
1,56,80,0
1,61,80,0
1,63,80,0
1,66,80,0
1,68,80,0
1,70,80,308
1,68,80,0
1,63,80,0
1,61,80,0
1,61,80,308
1,63,80,0
1,67,80,0
1,70,80,0
1,61,80,308
1,63,80,0
1,68,80,0
1,70,80,0
1,75,80,308
1,61,80,0
1,67,80,0
1,70,80,0
1,78,80,192
1,78,80,232
1,78,80,232
1,78,80,116
1,56,80,40
1,68,80,0
1,80,80,40
1,92,80,0
1,63,80,808
1,73,80,0
1,70,80,0
1,75,64,2190
1,71,64,0
1,73,64,0
1,70,64,0
1,70,64,40
1,73,64,0
1,71,64,40
1,68,64,0
1,71,64,40
1,74,64,0
1,70,64,0
1,73,64,0
1,70,64,40
1,73,64,0
1,92,80,1038
1,80,80,0
1,73,80,808
1,70,80,0
1,63,80,0
1,71,64,2190
1,75,64,0
1,70,64,0
1,73,64,0
1,73,64,40
1,70,64,0
1,68,64,40
1,71,64,0
1,74,64,40
1,71,64,0
1,87,80,0
1,75,80,0
1,73,64,0
1,70,64,0
1,90,80,232
1,78,80,0
1,92,80,40
1,80,80,0
1,56,80,12136
1,58,80,0
1,63,80,0
1,61,80,0
1,60,80,0
1,63,80,0
1,58,80,0
1,56,80,0
1,80,80,0
1,56,80,0
1,58,80,0
1,63,80,0
1,61,80,0
1,60,80,0
1,63,80,0
1,58,80,0
1,56,80,0
1,78,80,58
1,80,80,0
1,56,80,0
1,58,80,0
1,63,80,0
1,61,80,0
1,60,80,0
1,63,80,0
1,58,80,0
1,56,80,0
1,78,80,58
1,61,80,0
1,63,80,0
1,58,80,0
1,56,80,0
1,80,80,0
1,56,80,0
1,58,80,0
1,63,80,0
1,60,80,0
1,92,80,12288
1,80,80,0
1,63,80,40
1,56,80,0
1,56,80,40
1,63,80,0
1,63,80,78
1,56,80,0
1,56,80,58
1,63,80,0
1,63,80,40
1,58,80,0
1,63,80,424
1,70,80,0
1,73,80,0
1,56,80,1038
1,63,80,0
1,63,80,40
1,56,80,0
1,56,80,78
1,63,80,0
1,63,80,58
1,56,80,0
1,58,80,40
1,63,80,0
1,71,80,0
1,75,80,0
1,70,80,0
1,73,80,0
1,73,80,40
1,70,80,0
1,68,80,40
1,71,80,0
1,74,80,40
1,71,80,0
1,73,80,0
1,70,80,0
1,73,80,40
1,70,80,0
1,92,80,78
1,80,80,0
1,56,80,40
1,63,80,0
1,56,80,40
1,63,80,0
1,56,80,78
1,63,80,0
1,56,80,58
1,63,80,0
1,58,80,40
1,63,80,0
1,73,80,424
1,70,80,0
1,63,80,0
1,63,80,1038
1,56,80,0
1,56,80,40
1,63,80,0
1,63,80,78
1,56,80,0
1,56,80,58
1,63,80,0
1,75,80,40
1,71,80,0
1,63,80,0
1,58,80,0
1,75,80,40
1,71,80,0
1,75,80,0
1,87,80,0
1,70,80,0
1,73,80,0
1,78,80,40
1,90,80,0
1,73,80,0
1,70,80,0
1,87,80,40
1,75,80,0
1,68,80,0
1,71,80,0
1,71,80,40
1,74,80,0
1,87,80,0
1,75,80,0
1,73,80,0
1,70,80,0
1,90,80,40
1,78,80,0
1,87,80,40
1,75,80,0
1,80,80,40
1,92,80,0
1,92,80,5992
1,80,80,0
1,78,80,4648
1,90,80,0
1,78,80,232
1,90,80,0
1,78,80,232
1,90,80,0
1,78,80,232
1,90,80,0
1,80,80,40
1,92,80,0
1,87,80,10792
1,75,80,0
1,90,80,96
1,78,80,0
1,87,80,96
1,75,80,0
1,75,80,288
1,87,80,0
1,78,80,96
1,90,80,0
1,75,80,96
1,87,80,0
1,92,80,96
1,80,80,0
1,92,80,5992
1,80,80,0
1,80,80,2920
1,92,80,0
1,71,80,1192
1,75,80,0
1,73,80,0
1,70,80,0
1,73,80,40
1,70,80,0
1,71,80,40
1,68,80,0
1,74,80,40
1,71,80,0
1,70,80,0
1,73,80,0
1,73,80,40
1,70,80,0
1,80,80,78
1,92,80,0
1,75,80,4264
1,71,80,0
1,70,80,0
1,73,80,0
1,70,80,40
1,73,80,0
1,68,80,40
1,71,80,0
1,68,80,40
1,71,80,0
1,74,80,0
1,66,80,0
1,73,80,0
1,70,80,0
1,87,80,0
1,75,80,0
1,90,80,232
1,78,80,0
1,92,80,40
1,80,80,0
1,80,80,2920
1,80,80,232
1,80,80,232
1,80,80,232
2,63,80,36864
2,61,80,0
2,56,80,0
2,63,80,20
2,61,80,0
2,56,80,0
2,63,80,40
2,61,80,0
2,56,80,0
2,56,80,1172
2,61,80,0
2,63,80,0
2,56,80,20
2,61,80,0
2,63,80,0
2,56,80,40
2,61,80,0
2,63,80,0
2,56,80,1172
2,60,80,0
2,63,80,0
2,56,80,20
2,60,80,0
2,63,80,0
2,56,80,40
2,60,80,0
2,63,80,0
2,56,80,1172
2,60,80,0
2,63,80,0
2,56,80,20
2,60,80,0
2,63,80,0
2,56,80,40
2,60,80,0
2,63,80,0
2,56,80,1172
2,61,80,0
2,63,80,0
2,56,80,20
2,61,80,0
2,63,80,0
2,56,80,40
2,61,80,0
2,63,80,0
2,63,80,1172
2,61,80,0
2,56,80,0
2,63,80,20
2,61,80,0
2,56,80,0
2,63,80,40
2,61,80,0
2,56,80,0
2,63,80,1172
2,60,80,0
2,56,80,0
2,63,80,20
2,60,80,0
2,56,80,0
2,63,80,40
2,60,80,0
2,56,80,0
2,63,80,1172
2,60,80,0
2,56,80,0
2,63,80,20
2,60,80,0
2,56,80,0
2,63,80,40
2,60,80,0
2,56,80,0
2,75,80,5204
2,71,80,0
2,80,80,0
2,71,80,4456
2,75,80,0
2,80,80,0
2,71,80,40
2,75,80,0
2,80,80,0
2,72,80,3304
2,75,80,0
2,80,80,0
2,68,80,0
2,56,80,12136
2,61,80,0
2,63,80,0
2,56,80,20
2,61,80,0
2,63,80,0
2,56,80,40
2,61,80,0
2,63,80,0
2,63,80,1172
2,61,80,0
2,56,80,0
2,63,80,20
2,61,80,0
2,56,80,0
2,63,80,40
2,61,80,0
2,56,80,0
2,63,80,1172
2,60,80,0
2,56,80,0
2,63,80,20
2,60,80,0
2,56,80,0
2,63,80,40
2,60,80,0
2,56,80,0
2,63,80,1172
2,60,80,0
2,56,80,0
2,63,80,20
2,60,80,0
2,56,80,0
2,63,80,40
2,60,80,0
2,56,80,0
2,56,80,1172
2,61,80,0
2,63,80,0
2,56,80,20
2,61,80,0
2,63,80,0
2,56,80,40
2,61,80,0
2,63,80,0
2,63,80,1172
2,61,80,0
2,56,80,0
2,63,80,20
2,61,80,0
2,56,80,0
2,63,80,40
2,61,80,0
2,56,80,0
2,63,80,1172
2,60,80,0
2,56,80,0
2,63,80,20
2,60,80,0
2,56,80,0
2,63,80,40
2,60,80,0
2,56,80,0
2,63,80,1172
2,60,80,0
2,56,80,0
2,63,80,20
2,60,80,0
2,56,80,0
2,63,80,40
2,60,80,0
2,56,80,0
2,59,80,1172
2,63,80,0
2,66,80,0
2,61,80,78
2,58,80,0
2,65,80,0
2,56,80,78
2,59,80,0
2,64,80,0
2,56,80,58
2,59,80,0
2,64,80,0
2,54,80,40
2,58,80,0
2,63,80,0
2,59,80,232
2,56,80,0
2,66,80,0
2,65,80,40
2,58,80,0
2,61,80,0
2,64,80,78
2,59,80,0
2,68,80,0
2,64,80,58
2,59,80,0
2,68,80,0
2,63,80,40
2,58,80,0
2,66,80,0
2,66,80,40
2,63,80,0
2,59,80,0
2,65,80,78
2,58,80,0
2,61,80,0
2,64,80,78
2,59,80,0
2,56,80,0
2,64,80,58
2,59,80,0
2,56,80,0
2,63,80,40
2,58,80,0
2,54,80,0
2,66,80,232
2,63,80,0
2,59,80,0
2,61,80,40
2,58,80,0
2,65,80,0
2,56,80,78
2,59,80,0
2,64,80,0
2,56,80,58
2,59,80,0
2,64,80,0
2,54,80,40
2,58,80,0
2,63,80,0
2,66,80,40
2,63,80,0
2,59,80,0
2,65,80,78
2,58,80,0
2,61,80,0
2,64,80,78
2,59,80,0
2,56,80,0
2,64,80,58
2,59,80,0
2,56,80,0
2,63,80,40
2,58,80,0
2,54,80,0
2,66,80,232
2,56,80,0
2,59,80,0
2,61,80,40
2,58,80,0
2,65,80,0
2,68,80,78
2,59,80,0
2,64,80,0
2,68,80,58
2,59,80,0
2,64,80,0
2,66,80,40
2,58,80,0
2,63,80,0
2,59,80,40
2,63,80,0
2,66,80,0
2,61,80,78
2,58,80,0
2,65,80,0
2,56,80,78
2,59,80,0
2,64,80,0
2,56,80,58
2,59,80,0
2,64,80,0
2,54,80,40
2,58,80,0
2,63,80,0
2,59,80,232
2,63,80,0
2,66,80,0
2,61,80,40
2,65,80,0
2,58,80,0
2,64,80,78
2,59,80,0
2,56,80,0
2,56,80,58
2,64,80,0
2,59,80,0
2,63,80,40
2,58,80,0
2,54,80,0
2,75,80,40
2,72,80,0
2,68,80,0
2,63,80,12136
2,61,80,0
2,56,80,0
2,63,80,20
2,61,80,0
2,56,80,0
2,63,80,40
2,61,80,0
2,56,80,0
2,56,80,1172
2,61,80,0
2,63,80,0
2,61,80,20
2,56,80,0
2,63,80,0
2,63,80,40
2,56,80,0
2,61,80,0
2,63,80,1172
2,56,80,0
2,60,80,0
2,63,80,20
2,56,80,0
2,60,80,0
2,56,80,40
2,60,80,0
2,63,80,0
2,56,80,1172
2,60,80,0
2,63,80,0
2,56,80,20
2,60,80,0
2,63,80,0
2,56,80,40
2,60,80,0
2,63,80,0
2,63,80,1172
2,61,80,0
2,56,80,0
2,61,80,20
2,63,80,0
2,56,80,0
2,56,80,40
2,63,80,0
2,61,80,0
2,56,80,1172
2,61,80,0
2,63,80,0
2,61,80,20
2,56,80,0
2,63,80,0
2,63,80,40
2,56,80,0
2,61,80,0
2,56,80,1172
2,60,80,0
2,63,80,0
2,60,80,20
2,63,80,0
2,56,80,0
2,60,80,40
2,63,80,0
2,56,80,0
2,56,80,1172
2,60,80,0
2,63,80,0
2,56,80,20
2,60,80,0
2,63,80,0
2,56,80,40
2,60,80,0
2,63,80,0
2,66,80,1172
2,63,80,0
2,59,80,0
2,65,80,78
2,58,80,0
2,61,80,0
2,64,80,78
2,59,80,0
2,56,80,0
2,64,80,58
2,59,80,0
2,56,80,0
2,63,80,40
2,58,80,0
2,54,80,0
2,66,80,232
2,56,80,0
2,59,80,0
2,61,80,40
2,58,80,0
2,65,80,0
2,68,80,78
2,59,80,0
2,64,80,0
2,68,80,58
2,59,80,0
2,64,80,0
2,66,80,40
2,58,80,0
2,63,80,0
2,59,80,40
2,63,80,0
2,66,80,0
2,61,80,78
2,58,80,0
2,65,80,0
2,56,80,78
2,59,80,0
2,64,80,0
2,56,80,58
2,59,80,0
2,64,80,0
2,54,80,40
2,58,80,0
2,63,80,0
2,59,80,232
2,63,80,0
2,66,80,0
2,65,80,40
2,58,80,0
2,61,80,0
2,64,80,78
2,59,80,0
2,56,80,0
2,64,80,58
2,59,80,0
2,56,80,0
2,63,80,40
2,58,80,0
2,54,80,0
2,59,80,40
2,63,80,0
2,66,80,0
2,61,80,78
2,58,80,0
2,65,80,0
2,56,80,78
2,59,80,0
2,64,80,0
2,56,80,58
2,59,80,0
2,64,80,0
2,54,80,40
2,58,80,0
2,63,80,0
2,59,80,232
2,56,80,0
2,66,80,0
2,65,80,40
2,58,80,0
2,61,80,0
2,64,80,78
2,59,80,0
2,68,80,0
2,64,80,58
2,59,80,0
2,68,80,0
2,63,80,40
2,58,80,0
2,66,80,0
2,66,80,40
2,63,80,0
2,59,80,0
2,65,80,78
2,58,80,0
2,61,80,0
2,64,80,78
2,59,80,0
2,56,80,0
2,64,80,58
2,59,80,0
2,56,80,0
2,63,80,40
2,58,80,0
2,54,80,0
2,66,80,232
2,63,80,0
2,59,80,0
2,61,80,40
2,58,80,0
2,65,80,0
2,56,80,78
2,59,80,0
2,64,80,0
2,59,80,58
2,64,80,0
2,56,80,0
2,54,80,40
2,58,80,0
2,63,80,0
2,59,80,16936
2,63,80,0
2,66,80,0
2,58,80,78
2,61,80,0
2,65,80,0
2,64,80,78
2,56,80,0
2,59,80,0
2,56,80,58
2,59,80,0
2,64,80,0
2,54,80,40
2,58,80,0
2,63,80,0
2,59,80,232
2,56,80,0
2,66,80,0
2,65,80,40
2,58,80,0
2,61,80,0
2,64,80,78
2,59,80,0
2,68,80,0
2,64,80,58
2,59,80,0
