track,note,velocity,time
0,31,100,0
0,31,0,1
0,31,100,191
0,31,0,1
0,31,100,191
0,31,0,1
0,31,100,191
0,31,0,1
0,53,92,191
0,56,80,0
0,58,84,0
0,62,100,0
0,65,84,0
0,53,78,1
0,56,74,0
0,58,73,0
0,62,51,0
0,65,88,0
0,58,56,0
0,62,72,0
0,65,72,0
0,53,88,0
0,56,59,0
0,62,81,0
0,65,64,0
0,53,56,1
0,58,76,0
0,53,92,12
0,56,100,0
0,58,100,0
0,62,108,0
0,65,92,0
0,53,64,0
0,56,88,0
0,58,88,0
0,62,76,0
0,56,80,1
0,58,76,0
0,63,100,0
0,56,80,1
0,58,68,0
0,63,92,0
0,56,76,1
0,58,68,0
0,63,96,0
0,56,64,1
0,58,84,0
0,62,96,0
0,53,68,0
0,56,20,0
0,58,65,0
0,62,73,0
0,56,64,1
0,58,92,0
0,53,56,0
0,56,76,0
0,51,96,0
0,58,72,0
0,61,76,0
0,66,84,0
0,58,108,32
0,58,92,0
0,61,92,0
0,66,88,0
0,58,76,0
0,63,68,0
0,58,100,6
0,49,56,0
0,58,80,0
0,61,96,0
0,65,84,0
0,56,84,1
0,49,94,0
0,54,88,32
0,58,92,0
0,61,92,0
0,65,88,0
0,56,104,1
0,49,77,0
0,58,104,6
0,48,79,0
0,54,84,0
0,58,80,0
0,63,84,0
0,54,92,0
0,58,92,0
0,63,88,0
0,58,76,0
0,63,68,0
0,47,63,0
0,54,84,0
0,59,88,0
0,63,84,0
0,56,104,32
0,47,80,0
0,54,96,2
0,54,92,0
0,59,92,0
0,63,88,0
0,56,100,1
0,47,63,0
0,51,96,0
0,58,72,0
0,61,76,0
0,66,84,0
0,58,92,0
0,61,92,0
0,66,88,0
0,54,100,22
0,58,76,0
0,63,68,0
0,56,108,23
0,49,56,0
0,58,80,0
0,61,96,0
0,65,84,0
0,58,100,32
0,49,94,0
0,58,92,0
0,61,92,0
0,65,88,0
0,56,104,1
0,49,77,0
0,48,79,0
0,54,84,0
0,58,80,0
0,63,84,0
0,54,100,32
0,54,92,0
0,58,92,0
0,63,88,0
0,58,76,0
0,63,68,0
0,47,63,0
0,54,84,0
0,59,88,0
0,63,84,0
0,53,78,0
0,56,83,0
0,63,81,0
0,53,81,0
0,56,79,0
0,62,78,0
0,54,108,1
0,47,63,0
0,58,104,5
0,51,96,0
0,58,72,0
0,61,76,0
0,66,84,0
0,58,108,30
0,58,92,0
0,61,92,0
0,66,88,0
0,58,104,1
0,58,76,0
0,63,68,0
0,49,56,0
0,58,80,0
0,61,96,0
0,65,84,0
0,58,108,32
0,49,94,0
0,58,92,0
0,61,92,0
0,65,88,0
0,56,108,1
0,49,77,0
0,48,79,0
0,54,84,0
0,58,80,0
0,63,84,0
0,54,108,5
0,54,92,0
0,58,92,0
0,63,88,0
0,56,108,2
0,58,76,0
0,63,68,0
0,47,63,0
0,54,84,0
0,59,88,0
0,63,84,0
0,53,78,0
0,56,83,0
0,63,81,0
0,54,97,1
0,53,81,0
0,56,79,0
0,62,78,0
0,54,101,1
0,47,63,0
0,58,96,9
0,46,96,0
0,50,72,0
0,58,88,0
0,53,84,1
0,63,92,0
0,58,92,6
0,58,108,6
0,53,92,0
0,58,92,0
0,62,88,0
0,58,92,1
0,53,76,0
0,62,68,0
0,58,96,3
0,46,56,0
0,56,92,0
0,46,94,0
0,56,100,0
0,53,92,0
0,58,92,0
0,62,88,0
0,54,100,1
0,46,77,0
0,56,108,4
0,50,72,0
0,53,76,0
0,56,88,0
0,62,88,0
0,58,92,32
0,58,100,1
0,53,92,0
0,58,92,0
0,63,88,0
0,53,76,0
0,62,68,0
0,50,56,0
0,50,94,0
0,53,92,0
0,58,92,0
0,62,88,0
0,50,77,0
0,32,90,17
0,44,90,0
0,56,90,0
0,44,76,0
0,51,76,0
0,54,100,0
0,54,84,0
0,59,80,0
0,59,76,0
0,63,92,0
0,63,76,0
0,51,92,0
0,54,76,0
0,59,76,0
0,63,104,0
0,54,60,0
0,54,108,27
0,63,108,0
0,63,112,1
0,65,96,5
0,56,96,7
0,65,96,0
0,58,88,2
0,66,88,0
0,66,108,1
0,65,88,1
0,56,76,2
0,65,104,0
0,34,90,1
0,46,90,0
0,58,90,0
0,58,87,0
0,61,91,0
0,65,89,0
0,56,64,0
0,58,60,0
0,63,64,1
0,65,108,23
0,56,96,1
0,65,96,0
0,66,92,2
0,66,108,2
0,58,80,2
0,59,80,1
0,68,68,0
0,65,107,2
0,65,112,4
0,58,68,1
0,39,90,1
0,51,90,0
0,63,90,0
0,58,84,0
0,61,88,0
0,66,84,0
0,66,84,1
0,63,104,8
0,54,92,0
0,61,92,0
0,66,88,0
0,54,76,0
0,66,68,0
0,51,56,0
0,54,92,0
0,61,92,0
0,66,88,0
0,58,100,0
0,51,77,0
0,53,90,0
0,63,108,0
0,65,90,0
0,49,77,0
0,56,64,0
0,61,84,0
0,65,84,0
0,61,92,12
0,53,92,0
0,61,92,0
0,65,88,0
0,56,104,1
0,49,56,0
0,53,92,0
0,58,84,0
0,61,68,0
0,61,92,0
0,66,88,0
0,66,88,0
0,56,116,32
0,54,108,16
0,53,92,0
0,56,76,0
0,61,92,0
0,61,92,0
0,65,88,0
0,65,88,0
0,56,96,4
0,49,66,0
0,54,90,1
0,66,90,0
0,44,76,0
0,51,76,0
0,54,96,0
0,54,84,0
0,59,88,0
0,59,76,0
0,63,76,0
0,51,92,0
0,54,76,0
0,59,76,0
0,63,104,0
0,54,112,32
0,54,60,0
0,54,108,2
0,63,108,0
0,56,92,5
0,58,112,32
0,56,96,12
0,65,96,0
0,58,88,2
0,66,88,0
0,58,108,8
0,56,90,0
0,68,90,0
0,46,96,0
0,49,72,0
0,56,92,0
0,61,88,0
0,65,72,0
0,66,88,0
0,54,92,0
0,61,92,0
0,66,88,0
0,54,76,0
0,66,68,0
0,65,116,0
0,46,56,0
0,46,94,0
0,54,92,0
0,61,92,0
0,66,88,0
0,66,108,2
0,65,112,1
0,46,77,0
0,47,68,3
0,51,68,0
0,59,68,0
0,58,90,1
0,65,104,0
0,70,90,0
0,54,92,0
0,59,88,0
0,63,96,0
0,66,84,1
0,63,100,10
0,54,92,0
0,61,92,0
0,66,88,0
0,54,76,0
0,66,68,0
0,51,56,0
0,54,92,0
0,63,92,0
0,66,88,0
0,58,100,0
0,51,77,0
0,49,90,1
0,61,90,0
0,63,112,0
0,73,90,0
0,49,77,0
0,53,92,0
0,56,92,0
0,61,92,0
0,61,92,0
0,65,92,0
0,65,88,0
0,61,104,1
0,53,79,0
0,61,77,0
0,65,77,0
0,49,63,0
0,50,90,1
0,56,112,0
0,62,90,0
0,74,90,0
0,46,96,0
0,50,72,0
0,56,88,0
0,58,84,0
0,62,96,0
0,66,72,0
0,54,76,2
0,56,92,5
0,54,92,0
0,62,92,0
0,66,88,0
0,54,84,3
0,54,76,0
0,66,68,0
0,46,96,0
0,50,72,0
0,54,92,0
0,62,92,0
0,66,88,0
0,54,76,0
0,66,68,0
0,65,111,0
0,46,56,0
0,50,56,0
0,46,66,0
0,66,112,3
0,54,92,0
0,62,92,0
0,66,88,0
0,65,105,1
0,50,56,0
0,35,120,1
0,39,96,0
0,42,96,0
0,51,90,0
0,51,96,0
0,63,90,0
0,65,112,0
0,75,85,0
0,42,88,54
0,63,100,0
0,39,120,12
0,40,120,0
0,42,100,0
0,58,92,0
0,61,92,0
0,66,88,0
0,42,92,45
0,58,76,0
0,63,68,0
0,34,68,3
0,35,120,1
0,37,100,0
0,42,92,0
0,49,56,0
0,53,90,0
0,65,90,0
0,77,90,0
0,35,120,8
0,37,92,0
0,46,100,0
0,49,94,0
0,39,120,4
0,40,120,0
0,42,92,0
0,44,92,0
0,58,92,0
0,61,92,0
0,65,88,0
0,35,120,1
0,37,92,0
0,42,88,0
0,49,77,0
0,65,112,1
0,35,120,0
0,36,96,0
0,42,92,0
0,48,79,0
0,54,90,0
0,66,95,0
0,78,100,0
0,42,88,65
0,66,108,0
0,39,120,95
0,40,120,0
0,42,88,0
0,54,92,0
0,58,92,0
0,63,88,0
0,65,104,0
0,42,92,92
0,66,112,0
0,58,76,0
0,63,68,0
0,32,72,3
0,65,104,1
0,35,96,0
0,35,120,0
0,42,92,0
0,47,63,0
0,56,95,0
0,68,100,0
0,80,105,0
0,35,88,44
0,35,120,0
0,42,96,0
0,47,80,0
0,63,108,0
0,39,120,2
0,40,120,0
0,42,92,0
0,54,92,0
0,59,92,0
0,63,88,0
0,35,120,1
0,37,88,0
0,42,88,0
0,47,63,0
0,35,120,1
0,39,96,0
0,42,96,0
0,51,90,0
0,51,96,0
0,58,104,0
0,63,112,0
0,63,90,0
0,75,85,0
0,42,88,58
0,39,120,95
0,40,120,0
0,42,100,0
0,58,92,0
0,61,92,0
0,66,88,0
0,42,92,95
0,58,76,0
0,63,68,0
0,34,68,3
0,35,120,1
0,37,100,0
0,42,92,0
0,49,56,0
0,53,90,0
0,56,92,0
0,61,104,0
0,65,90,0
0,77,90,0
0,35,120,14
0,37,92,0
0,46,100,0
0,49,94,0
0,39,120,1
0,40,120,0
0,42,92,0
0,44,92,0
0,58,92,0
0,61,92,0
0,65,88,0
0,35,120,1
0,37,92,0
0,42,88,0
0,49,77,0
0,35,120,1
0,36,96,0
0,42,92,0
0,48,79,0
0,54,90,0
0,65,108,0
0,66,95,0
0,78,100,0
0,42,88,49
0,66,112,0
0,39,120,49
0,40,120,0
0,42,88,0
0,54,92,0
0,58,92,0
0,63,88,0
0,65,108,0
0,42,92,41
0,66,112,0
0,58,76,0
0,63,68,0
0,32,72,3
0,35,96,1
0,35,120,0
0,42,92,0
0,47,63,0
0,56,95,0
0,65,96,0
0,68,100,0
0,80,105,0
0,35,88,5
0,35,120,0
0,42,96,0
0,47,80,0
0,63,100,0
0,39,120,2
0,40,120,0
0,42,92,0
0,54,92,0
0,59,92,0
0,63,88,0
0,35,120,1
0,37,88,0
0,42,88,0
0,47,63,0
0,35,120,1
0,39,96,0
0,42,96,0
0,51,90,0
0,51,96,0
0,58,96,0
0,63,100,0
0,63,90,0
0,75,85,0
0,42,88,51
0,39,120,95
0,40,120,0
0,42,100,0
0,58,92,0
0,61,92,0
0,66,88,0
0,42,92,95
0,58,76,0
0,63,68,0
0,34,68,3
0,35,120,1
0,37,100,0
0,42,92,0
0,49,56,0
0,53,90,0
0,56,92,0
0,61,92,0
0,65,90,0
0,77,90,0
0,35,120,47
0,37,92,0
0,46,100,0
0,49,94,0
0,39,120,4
0,40,120,0
0,42,92,0
0,44,92,0
0,58,92,0
0,61,92,0
0,65,88,0
0,35,120,1
0,37,92,0
0,42,88,0
0,49,77,0
0,35,120,1
0,36,96,0
0,42,92,0
0,48,79,0
0,54,90,0
0,65,116,0
0,66,95,0
0,78,100,0
0,42,88,46
0,66,108,0
0,39,120,52
0,40,120,0
0,42,88,0
0,54,92,0
0,58,92,0
0,63,88,0
0,65,108,0
0,42,92,49
0,66,116,0
0,58,76,0
0,63,68,0
0,32,72,3
0,35,96,1
0,35,120,0
0,42,92,0
0,47,63,0
0,56,95,0
0,65,112,0
0,68,100,0
0,80,105,0
0,35,88,44
0,35,120,0
0,42,96,0
0,47,80,0
0,39,120,2
0,40,120,0
0,42,92,0
0,54,92,0
0,59,92,0
0,63,104,0
0,63,88,0
0,35,88,1
0,35,120,0
0,42,88,0
0,47,63,0
0,65,92,0
0,34,100,1
0,35,120,0
0,42,96,0
0,46,96,0
0,50,72,0
0,58,90,0
0,70,90,0
0,82,90,0
0,42,88,51
0,39,120,95
0,40,120,0
0,42,100,0
0,53,92,0
0,58,92,0
0,62,88,0
0,42,92,95
0,53,76,0
0,62,68,0
0,29,64,8
0,34,100,1
0,35,120,0
0,42,92,0
0,46,56,0
0,34,96,18
0,35,120,0
0,46,94,0
0,46,100,0
0,39,120,95
0,40,120,0
0,42,92,0
0,53,92,0
0,58,92,0
0,62,88,0
0,34,100,1
0,35,120,0
0,42,88,0
0,46,77,0
0,66,108,0
0,35,120,1
0,38,104,0
0,42,92,0
0,50,72,0
0,62,90,0
0,65,112,0
0,74,90,0
0,86,90,0
0,42,88,43
0,66,108,0
0,39,120,5
0,40,120,0
0,42,88,0
0,53,92,0
0,58,92,0
0,63,88,0
0,65,104,0
0,38,104,52
0,42,92,0
0,66,112,0
0,53,76,0
0,62,68,0
0,35,120,6
0,41,88,0
0,42,92,0
0,50,56,0
0,65,104,0
0,35,120,53
0,42,96,0
0,50,94,0
0,63,108,0
0,39,120,0
0,40,120,0
0,42,92,0
0,53,92,0
0,58,92,0
0,62,88,0
0,35,120,1
0,41,92,0
0,42,88,0
0,50,77,0
0,35,120,1
0,39,100,0
0,42,96,0
0,51,96,0
0,42,88,93
0,39,120,5
0,40,120,0
0,42,100,0
0,58,112,0
0,58,84,0
0,58,92,0
0,61,92,0
0,63,96,0
0,66,100,0
0,66,88,0
0,42,92,16
0,58,100,0
0,58,76,0
0,63,68,0
0,34,76,1
0,35,120,11
0,37,88,0
0,42,92,0
0,49,56,0
0,58,104,0
0,35,120,1
0,37,92,0
0,46,100,0
0,49,94,0
0,56,100,0
0,39,120,95
0,40,120,0
0,42,92,0
0,54,108,0
0,58,84,0
0,58,92,0
0,61,92,0
0,63,96,0
0,65,100,0
0,65,88,0
0,35,120,1
0,37,104,0
0,42,88,0
0,49,77,0
0,56,104,0
0,35,120,3
0,36,104,0
0,42,92,0
0,48,79,0
0,58,100,0
0,42,88,6
0,39,120,0
0,40,120,0
0,42,88,0
0,54,92,0
0,54,92,0
0,58,92,0
0,60,96,0
0,63,104,0
0,63,88,0
0,42,92,9
0,58,76,0
0,63,68,0
0,32,92,3
0,35,96,10
0,35,120,0
0,42,92,0
0,47,63,0
0,35,92,40
0,35,120,0
0,42,96,0
0,47,80,0
0,56,108,0
0,39,120,1
0,40,120,0
0,42,92,0
0,54,100,0
0,54,88,0
0,54,92,0
0,59,88,0
0,59,92,0
0,63,100,0
0,63,88,0
0,35,120,1
0,37,92,0
0,42,88,0
0,47,63,0
0,56,112,0
0,35,120,21
0,39,100,0
0,42,96,0
0,51,96,0
0,42,88,59
0,39,120,95
0,40,120,0
0,42,100,0
0,58,84,0
0,58,92,0
0,61,92,0
0,63,96,0
0,66,100,0
0,66,88,0
0,42,92,95
0,54,112,0
0,58,76,0
0,63,68,0
0,34,76,1
0,35,120,5
0,37,88,0
0,42,92,0
0,49,56,0
0,56,112,0
0,35,120,43
0,37,92,0
0,46,100,0
0,49,94,0
0,39,120,43
0,40,120,0
0,42,92,0
0,56,108,0
0,58,84,0
0,58,92,0
0,61,92,0
0,63,96,0
0,65,100,0
0,65,88,0
0,35,120,1
0,37,104,0
0,42,88,0
0,49,77,0
0,56,108,0
0,35,120,23
0,36,104,0
0,42,92,0
0,48,79,0
0,42,88,1
0,54,104,0
0,39,120,10
0,40,120,0
0,42,88,0
0,54,92,0
0,54,92,0
0,58,92,0
0,60,96,0
0,63,104,0
0,63,88,0
0,42,92,7
0,58,76,0
0,63,68,0
0,32,92,3
0,35,96,10
0,35,120,0
0,42,92,0
0,47,63,0
0,35,92,40
0,35,120,0
0,42,96,0
0,47,80,0
0,39,120,2
0,40,120,0
0,42,92,0
0,54,92,0
0,59,92,0
0,63,88,0
0,66,116,0
0,35,120,1
0,37,92,0
0,42,88,0
0,47,63,0
0,56,108,0
0,63,76,0
0,35,120,3
0,39,100,0
0,42,96,0
0,51,96,0
0,58,108,0
0,42,88,63
0,39,120,5
0,40,120,0
0,42,100,0
0,58,116,0
0,58,84,0
0,58,92,0
0,61,92,0
0,63,96,0
0,66,100,0
0,66,88,0
0,58,108,7
0,42,92,0
0,58,76,0
0,63,68,0
0,34,76,1
0,35,120,11
0,37,88,0
0,42,92,0
0,49,56,0
0,35,120,27
0,37,92,0
0,46,100,0
0,49,94,0
0,58,112,0
0,39,120,95
0,40,120,0
0,42,92,0
0,58,84,0
0,58,92,0
