track,note,velocity,time
0,42,78,0
0,42,74,92
0,42,62,92
0,42,74,92
0,36,80,92
0,62,29,0
0,63,36,0
0,65,34,0
0,70,48,0
0,42,69,0
0,42,45,44
0,42,69,44
0,42,48,44
0,44,69,20
0,42,69,20
0,44,69,20
0,70,50,0
0,42,46,20
0,44,69,20
0,70,48,0
0,42,69,20
0,44,69,20
0,70,58,0
0,42,46,20
0,46,41,20
0,70,50,0
0,42,69,20
0,44,69,20
0,70,48,0
0,42,45,20
0,44,69,20
0,70,50,0
0,42,69,20
0,44,69,20
0,70,58,0
0,42,48,20
0,44,69,20
0,70,52,0
0,42,69,20
0,44,69,20
0,70,60,0
0,42,46,20
0,44,69,20
0,70,54,0
0,42,69,20
0,44,69,20
0,70,62,0
0,42,46,20
0,44,69,20
0,70,60,0
0,42,69,20
0,44,69,20
0,70,58,0
0,42,45,20
0,44,69,20
0,70,58,0
0,42,69,20
0,44,69,5
0,70,60,0
0,42,48,2
0,44,69,1
0,70,62,0
0,42,69,0
0,44,69,2
0,70,58,0
0,42,46,4
0,44,69,20
0,70,62,0
0,42,69,20
0,44,69,20
0,70,62,0
0,42,46,2
0,46,41,3
0,70,60,0
0,42,69,2
0,44,69,0
0,70,58,0
0,42,45,16
0,44,69,2
0,70,58,0
0,75,68,7
0,42,69,0
0,44,69,20
0,70,66,0
0,74,68,16
0,42,48,0
0,44,69,20
0,70,66,0
0,42,69,5
0,44,69,20
0,70,62,0
0,70,46,20
0,42,46,0
0,44,69,20
0,70,58,0
0,42,69,20
0,44,69,20
0,70,62,0
0,42,46,20
0,44,69,1
0,70,60,0
0,36,68,20
0,62,25,0
0,63,50,0
0,65,58,0
0,70,44,0
0,35,66,0
0,42,69,0
0,44,69,20
0,35,50,20
0,42,45,0
0,35,36,20
0,44,69,0
0,70,50,0
0,35,66,20
0,42,69,0
0,70,23,0
0,35,56,20
0,44,69,0
0,70,38,0
0,35,60,20
0,42,48,0
0,70,56,0
0,35,54,20
0,44,69,0
0,70,54,0
0,35,62,20
0,42,69,0
0,70,74,0
0,35,33,20
0,44,69,0
0,70,50,0
0,35,33,20
0,42,46,0
0,70,74,0
0,35,50,20
0,44,69,0
0,70,48,0
0,42,69,20
0,44,69,20
0,70,58,0
0,42,46,13
0,46,41,20
0,70,50,0
0,42,69,20
0,44,69,20
0,70,48,0
0,42,45,20
0,44,69,20
0,70,50,0
0,42,69,20
0,44,69,20
0,70,58,0
0,42,48,20
0,44,69,20
0,70,52,0
0,42,69,20
0,44,69,20
0,70,60,0
0,42,46,20
0,44,69,20
0,70,54,0
0,42,69,20
0,44,69,20
0,70,62,0
0,42,46,20
0,44,69,20
0,70,60,0
0,35,66,20
0,42,69,0
0,44,69,20
0,70,58,0
0,35,50,20
0,42,45,0
0,35,36,20
0,44,69,0
0,70,58,0
0,75,68,20
0,35,66,0
0,42,69,0
0,70,23,0
0,35,56,20
0,44,69,0
0,70,60,0
0,74,68,20
0,35,60,0
0,42,48,0
0,70,56,0
0,35,54,20
0,44,69,0
0,70,62,0
0,35,62,4
0,42,69,0
0,70,74,0
0,35,33,20
0,44,69,0
0,70,58,0
0,70,60,20
0,35,33,0
0,42,46,0
0,70,74,0
0,35,50,20
0,44,69,0
0,70,62,0
0,42,69,20
0,44,69,20
0,70,62,0
0,42,46,20
0,46,41,20
0,70,60,0
0,42,69,20
0,44,69,20
0,70,58,0
0,40,74,20
0,42,45,0
0,47,82,0
0,44,69,20
0,70,58,0
0,40,78,20
0,42,69,0
0,45,78,0
0,44,69,20
0,70,66,0
0,42,48,20
0,40,66,20
0,44,69,0
0,45,66,0
0,70,66,0
0,42,69,20
0,40,70,20
0,44,69,0
0,47,74,0
0,70,62,0
0,40,54,20
0,42,46,0
0,45,78,0
0,44,69,20
0,70,58,0
0,40,78,20
0,41,86,0
0,42,69,0
0,44,69,20
0,70,62,0
0,42,46,20
0,44,69,7
0,70,60,0
0,34,72,20
0,58,42,0
0,65,54,0
0,77,77,0
0,65,66,0
0,35,69,0
0,42,69,0
0,57,60,0
0,35,58,20
0,44,69,0
0,42,45,20
0,44,69,7
0,70,50,0
0,58,50,20
0,40,69,0
0,42,69,0
0,44,69,20
0,70,38,0
0,35,63,20
0,42,48,0
0,35,52,20
0,44,69,0
0,70,54,0
0,60,58,11
0,35,67,0
0,42,69,0
0,35,52,20
0,44,69,0
0,70,50,0
0,42,46,20
0,44,69,20
0,70,48,0
0,40,69,20
0,42,69,0
0,44,69,20
0,70,58,0
0,42,46,20
0,46,41,19
0,70,50,0
0,65,68,20
0,35,69,0
0,42,69,0
0,35,58,20
0,44,69,0
0,70,48,0
0,42,45,9
0,44,69,20
0,70,50,0
0,58,52,20
0,40,69,0
0,42,69,0
0,44,69,20
0,70,58,0
0,35,63,20
0,42,48,0
0,35,52,15
0,44,69,0
0,70,52,0
0,77,68,20
0,60,44,0
0,35,67,0
0,42,69,0
0,35,52,20
0,44,69,0
0,70,60,0
0,75,68,20
0,76,1,0
0,42,46,0
0,44,69,18
0,70,54,0
0,74,44,8
0,40,69,0
0,42,69,0
0,44,69,20
0,70,62,0
0,72,60,20
0,42,46,0
0,44,69,0
0,70,60,0
0,27,68,4
0,60,42,0
0,72,68,0
0,65,62,0
0,35,69,0
0,42,69,0
0,35,58,20
0,44,69,0
0,70,58,0
0,70,42,20
0,42,45,0
0,44,69,13
0,70,58,0
0,70,56,18
0,58,46,0
0,40,69,0
0,42,69,0
0,44,69,20
0,70,60,0
0,35,63,0
0,42,48,0
0,35,52,5
0,44,69,0
0,70,62,0
0,77,64,20
0,60,52,0
0,35,67,0
0,42,69,0
0,35,52,20
0,44,69,0
0,70,58,0
0,75,22,20
0,42,46,0
0,44,69,11
0,70,62,0
0,74,42,5
0,40,69,0
0,42,69,0
0,44,69,20
0,70,62,0
0,72,56,20
0,42,46,0
0,46,41,0
0,70,60,0
0,29,80,20
0,72,64,0
0,65,64,0
0,35,69,0
0,42,69,0
0,35,58,16
0,44,69,0
0,70,58,0
0,72,52,19
0,42,45,0
0,44,69,20
0,70,58,0
0,72,52,18
0,58,54,0
0,40,69,0
0,42,69,0
0,44,69,20
0,70,66,0
0,70,42,1
0,35,63,0
0,42,48,0
0,35,52,20
0,44,69,0
0,70,66,0
0,74,56,20
0,60,54,0
0,35,67,0
0,42,69,0
0,35,52,17
0,44,69,0
0,70,62,0
0,70,46,16
0,42,46,0
0,70,36,11
0,44,69,0
0,70,58,0
0,72,64,3
0,40,69,0
0,42,69,0
0,44,69,20
0,70,62,0
0,70,56,7
0,42,46,0
0,44,69,14
0,70,60,0
0,34,76,18
0,58,48,0
0,65,29,0
0,65,68,0
0,35,69,0
0,42,69,0
0,35,58,10
0,44,69,0
0,42,45,17
0,44,69,12
0,70,50,0
0,58,52,20
0,40,69,0
0,42,69,0
0,44,69,20
0,70,38,0
0,77,77,20
0,62,60,0
0,65,62,0
0,70,66,0
0,35,63,0
0,42,48,0
0,35,52,20
0,44,69,0
0,70,54,0
0,60,44,19
0,35,67,0
0,42,69,0
0,35,52,20
0,44,69,0
0,70,50,0
0,42,46,20
0,44,69,20
0,70,48,0
0,40,69,20
0,42,69,0
0,44,69,20
0,70,58,0
0,42,46,20
0,46,41,20
0,70,50,0
0,65,66,20
0,35,69,0
0,42,69,0
0,35,58,20
0,44,69,0
0,70,48,0
0,42,45,20
0,44,69,15
0,70,50,0
0,58,44,20
0,40,69,0
0,42,69,0
0,44,69,20
0,70,58,0
0,35,63,20
0,42,48,0
0,35,52,1
0,44,69,0
0,70,52,0
0,77,68,20
0,60,44,0
0,35,67,0
0,42,69,0
0,35,52,20
0,44,69,0
0,70,60,0
0,75,60,20
0,42,46,0
0,44,69,18
0,70,54,0
0,74,52,9
0,40,69,0
0,42,69,0
0,44,69,20
0,70,62,0
0,72,60,1
0,42,46,0
0,44,69,19
0,70,60,0
0,27,88,11
0,60,40,0
0,72,56,0
0,65,72,0
0,35,69,0
0,42,69,0
0,35,58,20
0,44,69,0
0,70,58,0
0,42,45,20
0,44,69,6
0,70,58,0
0,72,68,20
0,58,52,0
0,40,69,0
0,42,69,0
0,44,69,20
0,70,60,0
0,35,63,20
0,42,48,0
0,35,52,13
0,44,69,0
0,70,62,0
0,77,60,6
0,60,48,0
0,35,67,0
0,42,69,0
0,35,52,20
0,44,69,0
0,70,58,0
0,75,56,9
0,42,46,0
0,44,69,20
0,70,62,0
0,74,46,7
0,40,69,0
0,42,69,0
0,44,69,20
0,70,62,0
0,72,60,4
0,42,46,0
0,46,41,20
0,70,60,0
0,29,66,18
0,72,72,0
0,65,60,0
0,35,69,0
0,42,69,0
0,35,58,6
0,38,60,0
0,44,69,0
0,47,62,0
0,70,58,0
0,42,45,20
0,44,69,10
0,70,58,0
0,58,42,20
0,38,74,0
0,40,69,0
0,42,69,0
0,45,70,0
0,44,69,20
0,70,66,0
0,72,72,19
0,35,63,0
0,42,48,0
0,35,52,20
0,44,69,0
0,70,66,0
0,74,56,5
0,60,40,0
0,35,67,0
0,38,60,0
0,42,69,0
0,47,78,0
0,35,52,11
0,44,69,0
0,70,62,0
0,70,30,17
0,38,62,0
0,42,46,0
0,45,70,0
0,70,48,13
0,44,69,0
0,70,58,0
0,72,64,1
0,38,66,0
0,40,69,0
0,42,69,0
0,45,62,0
0,38,60,20
0,44,69,0
0,45,62,0
0,70,62,0
0,70,44,4
0,38,60,0
0,41,78,0
0,42,46,0
0,44,69,11
0,70,60,0
0,34,76,19
0,58,32,0
0,60,60,0
0,65,58,0
0,35,69,0
0,42,69,0
0,49,60,0
0,35,58,14
0,44,69,0
0,42,45,20
0,44,69,20
0,70,50,0
0,40,69,20
0,42,69,0
0,44,69,20
0,70,38,0
0,70,56,20
0,62,36,0
0,65,58,0
0,70,48,0
0,35,63,0
0,42,48,0
0,35,52,20
0,44,69,0
0,70,54,0
0,35,67,20
0,42,69,0
0,35,52,20
0,44,69,0
0,70,50,0
0,42,46,20
0,44,69,20
0,70,48,0
0,40,69,20
0,42,69,0
0,44,69,20
0,70,58,0
0,42,46,20
0,46,41,20
0,70,50,0
0,35,69,20
0,42,69,0
0,35,58,20
0,44,69,0
0,70,48,0
0,42,45,20
0,44,69,20
0,70,50,0
0,40,69,20
0,42,69,0
0,44,69,20
0,70,58,0
0,35,63,18
0,42,48,0
0,35,52,20
0,44,69,0
0,70,52,0
0,35,67,20
0,42,69,0
0,35,52,20
0,44,69,0
0,70,60,0
0,67,52,20
0,42,46,0
0,44,69,20
0,70,54,0
0,70,44,1
0,40,69,0
0,42,69,0
0,44,69,20
0,70,62,0
0,70,68,11
0,42,46,0
0,44,69,20
0,70,60,0
0,27,72,1
0,63,34,0
0,35,69,0
0,42,69,0
0,35,58,20
0,44,69,0
0,70,58,0
0,63,46,20
0,42,45,0
0,44,69,20
0,70,58,0
0,63,46,18
0,40,69,0
0,42,69,0
0,44,69,20
0,70,60,0
0,63,64,16
0,35,63,0
0,42,48,0
0,35,52,20
0,44,69,0
0,70,62,0
0,35,67,20
0,42,69,0
0,35,52,12
0,44,69,0
0,70,58,0
0,67,48,20
0,42,46,0
0,44,69,20
0,70,62,0
0,70,46,10
0,40,69,0
0,42,69,0
0,44,69,20
0,70,62,0
0,70,64,17
0,42,46,0
0,46,41,20
0,70,60,0
0,29,76,6
0,69,48,0
0,35,69,0
0,42,69,0
0,35,58,15
0,44,69,0
0,70,58,0
0,69,52,20
0,42,45,0
0,44,69,20
0,70,58,0
0,69,46,18
0,40,69,0
0,42,69,0
0,44,69,20
0,70,66,0
0,70,44,6
0,35,63,0
0,42,48,0
0,35,52,20
0,44,69,0
0,70,66,0
0,72,48,20
0,35,67,0
0,42,69,0
0,35,52,20
0,44,69,0
0,70,62,0
0,70,52,20
0,42,46,0
0,44,69,18
0,70,58,0
0,69,44,8
0,40,69,0
0,42,69,0
0,44,69,20
0,70,62,0
0,70,36,3
0,42,46,0
0,44,69,20
0,70,60,0
0,34,72,1
0,35,69,0
0,42,69,0
0,35,58,16
0,44,69,0
0,42,45,20
0,44,69,20
0,70,50,0
0,40,69,20
0,42,69,0
0,44,69,20
0,70,38,0
0,70,72,20
0,58,50,0
0,62,52,0
0,65,58,0
0,35,63,0
0,42,48,0
0,35,52,20
0,44,69,0
0,70,54,0
0,35,67,20
0,42,69,0
0,35,52,20
0,44,69,0
0,70,50,0
0,42,46,20
0,44,69,20
0,70,48,0
0,40,69,20
0,42,69,0
0,44,69,20
0,70,58,0
0,42,46,20
0,46,41,20
0,70,50,0
0,35,69,20
0,42,69,0
0,35,58,20
0,44,69,0
0,70,48,0
0,42,45,20
0,44,69,20
0,70,50,0
0,40,69,20
0,42,69,0
0,44,69,20
0,70,58,0
0,35,63,20
0,42,48,0
0,35,52,4
0,44,69,0
0,70,52,0
0,35,67,20
0,42,69,0
0,35,52,20
0,44,69,0
0,70,60,0
0,67,60,20
0,42,46,0
0,44,69,20
0,70,54,0
0,70,52,3
0,40,69,0
0,42,69,0
0,44,69,20
0,70,62,0
0,70,36,14
0,42,46,0
0,44,69,16
0,70,60,0
0,27,80,9
0,63,46,0
0,35,69,0
0,42,69,0
0,35,58,0
0,44,69,0
0,70,58,0
0,63,44,20
0,42,45,0
0,44,69,4
0,70,58,0
0,63,40,20
0,40,69,0
0,42,69,0
0,44,69,20
0,70,60,0
0,63,40,20
0,35,63,0
0,42,48,0
0,35,52,20
0,44,69,0
0,70,62,0
0,35,67,20
0,42,69,0
0,35,52,20
0,44,69,0
0,70,58,0
0,67,56,8
0,42,46,0
0,44,69,20
0,70,62,0
0,70,64,20
0,40,69,0
0,42,69,0
0,44,69,20
0,70,62,0
0,69,52,4
0,42,46,0
0,46,41,20
0,70,60,0
0,29,88,2
0,35,69,0
0,42,69,0
0,35,58,1
0,44,69,0
0,70,58,0
0,69,60,20
0,42,45,0
0,44,69,20
0,70,58,0
0,38,66,20
0,40,69,0
0,42,69,0
0,47,66,0
0,44,69,20
0,70,66,0
0,70,56,20
0,35,63,0
0,42,48,0
0,35,52,20
0,44,69,0
0,70,66,0
0,72,52,20
0,35,67,0
0,38,62,0
0,42,69,0
0,47,74,0
0,35,52,18
0,44,69,0
0,70,62,0
0,70,42,20
0,38,62,0
0,42,46,0
0,45,50,0
0,38,66,17
0,44,69,0
0,45,56,0
0,70,58,0
0,70,32,20
0,38,78,0
0,40,69,0
0,42,69,0
0,45,62,0
0,49,66,0
0,38,50,20
0,44,69,0
0,45,40,0
0,70,62,0
0,72,52,5
0,38,56,0
0,41,60,0
0,42,46,0
0,38,74,3
0,41,82,0
0,44,69,0
0,70,60,0
0,31,80,15
0,58,44,0
0,60,56,0
0,65,66,0
0,74,60,0
0,70,60,0
0,35,69,0
0,42,69,0
0,57,70,0
0,35,58,12
0,44,69,0
0,42,45,0
0,44,69,3
0,70,50,0
0,74,64,20
0,70,28,0
0,40,69,0
0,42,69,0
0,44,69,20
0,70,38,0
0,35,63,20
0,42,48,0
0,35,52,20
0,44,69,0
0,70,54,0
0,35,67,20
0,42,69,0
0,35,52,20
0,44,69,0
0,70,50,0
0,72,56,2
0,69,48,0
0,42,46,0
0,44,69,4
0,70,48,0
0,72,64,20
0,69,42,0
0,40,69,0
0,42,69,0
0,44,69,20
0,70,58,0
0,70,36,20
0,42,46,0
0,46,41,20
0,70,50,0
0,27,88,5
0,72,52,0
0,69,50,0
0,35,69,0
0,42,69,0
0,35,58,9
0,44,69,0
0,70,48,0
0,70,46,20
0,67,54,0
0,42,45,0
0,44,69,20
0,70,50,0
0,40,69,20
0,42,69,0
0,44,69,7
0,70,58,0
0,70,56,20
0,67,48,0
0,35,63,0
0,42,48,0
0,35,52,20
0,44,69,0
0,70,52,0
0,35,67,20
0,42,69,0
0,35,52,20
0,44,69,0
0,70,60,0
0,72,56,20
0,69,48,0
0,42,46,0
0,44,69,20
0,70,54,0
0,70,42,4
0,67,38,0
0,40,69,0
0,42,69,0
