track,note,velocity,time
0,35,127,24
0,42,100,0
0,35,0,4
0,42,0,42
0,39,100,50
0,39,0,46
0,37,100,50
0,44,86,0
0,44,0,4
0,37,0,42
0,42,100,50
0,42,0,46
0,35,127,50
0,42,100,0
0,35,0,4
0,42,0,42
0,39,100,50
0,39,0,46
0,37,100,50
0,44,86,0
0,44,0,4
0,37,0,42
0,39,100,50
0,39,0,46
0,35,127,50
0,42,100,0
0,35,0,4
0,42,0,42
0,39,100,50
0,39,0,46
0,37,100,50
0,44,86,0
0,44,0,4
0,37,0,42
0,42,100,50
0,42,0,46
0,35,127,50
0,42,100,0
0,35,0,4
0,42,0,42
0,39,100,50
0,39,0,46
0,37,100,50
0,44,86,0
0,44,0,4
0,37,0,42
0,39,100,50
0,39,0,46
0,35,127,50
0,42,100,0
0,35,0,4
0,42,0,42
0,39,100,50
0,58,101,0
0,58,115,0
0,61,101,0
0,61,115,0
0,66,101,0
0,66,115,0
0,58,0,32
0,61,0,0
0,66,0,0
0,39,0,14
0,58,0,0
0,61,0,0
0,66,0,0
0,37,100,50
0,44,86,0
0,44,0,4
0,37,0,42
0,42,100,50
0,42,0,46
0,35,127,50
0,42,100,0
0,58,101,0
0,58,115,0
0,61,101,0
0,61,115,0
0,66,101,0
0,66,115,0
0,35,0,4
0,58,0,28
0,61,0,0
0,66,0,0
0,42,0,14
0,58,0,0
0,61,0,0
0,66,0,0
0,39,100,50
0,39,0,46
0,37,100,50
0,44,86,0
0,44,0,4
0,37,0,42
0,39,100,50
0,39,0,46
0,35,127,50
0,42,100,0
0,58,99,0
0,58,115,0
0,61,99,0
0,61,115,0
0,66,99,0
0,66,115,0
0,35,0,4
0,58,0,28
0,61,0,0
0,66,0,0
0,42,0,14
0,58,0,0
0,61,0,0
0,66,0,0
0,39,100,50
0,39,0,46
0,37,100,50
0,44,86,0
0,44,0,4
0,37,0,42
0,42,100,50
0,58,99,0
0,58,115,0
0,61,99,0
0,61,115,0
0,66,99,0
0,66,115,0
0,58,0,32
0,61,0,0
0,66,0,0
0,42,0,14
0,58,0,0
0,61,0,0
0,66,0,0
0,35,127,50
0,40,106,0
0,42,100,0
0,35,0,4
0,40,0,0
0,42,0,42
0,40,106,2
0,40,0,4
0,39,100,44
0,40,106,0
0,61,91,0
0,40,0,4
0,39,0,42
0,61,0,5
0,37,100,45
0,40,106,0
0,44,86,0
0,61,91,0
0,40,0,4
0,44,0,0
0,37,0,42
0,61,0,17
0,39,100,33
0,61,91,0
0,39,0,46
0,61,0,35
0,35,127,15
0,42,100,0
0,42,70,0
0,49,47,0
0,58,99,0
0,58,115,0
0,61,99,0
0,61,115,0
0,66,99,0
0,66,115,0
0,70,91,0
0,35,0,4
0,42,0,0
0,49,0,0
0,58,0,28
0,61,0,0
0,66,0,0
0,42,0,14
0,58,0,0
0,61,0,0
0,66,0,0
0,39,100,50
0,42,70,0
0,42,0,4
0,70,0,36
0,39,0,6
0,37,100,50
0,40,106,0
0,42,69,0
0,70,91,0
0,40,0,4
0,42,0,0
0,37,0,42
0,70,0,34
0,42,100,16
0,42,69,0
0,58,99,0
0,58,115,0
0,61,99,0
0,61,115,0
0,66,99,0
0,66,115,0
0,68,91,0
0,42,0,4
0,58,0,28
0,61,0,0
0,66,0,0
0,42,0,14
0,58,0,0
0,61,0,0
0,66,0,0
0,35,127,50
0,42,100,0
0,42,69,0
0,35,0,4
0,42,0,0
0,42,0,42
0,39,100,50
0,42,69,0
0,66,91,0
0,42,0,4
0,68,0,1
0,39,0,41
0,66,0,24
0,37,100,26
0,40,106,0
0,42,69,0
0,66,91,0
0,40,0,4
0,42,0,0
0,37,0,42
0,39,100,50
0,42,68,0
0,42,0,4
0,39,0,42
0,35,127,50
0,42,100,0
0,42,68,0
0,58,99,0
0,58,115,0
0,61,99,0
0,61,115,0
0,66,99,0
0,66,115,0
0,35,0,4
0,42,0,0
0,58,0,28
0,61,0,0
0,66,0,0
0,42,0,14
0,58,0,0
0,61,0,0
0,66,0,0
0,66,0,48
0,39,100,2
0,42,68,0
0,42,0,4
0,39,0,42
0,37,100,50
0,40,106,0
0,42,68,0
0,40,0,4
0,42,0,0
0,37,0,42
0,42,100,50
0,42,68,0
0,58,99,0
0,58,115,0
0,61,99,0
0,61,115,0
0,66,99,0
0,66,115,0
0,42,0,4
0,58,0,28
0,61,0,0
0,66,0,0
0,42,0,14
0,58,0,0
0,61,0,0
0,66,0,0
0,35,127,50
0,42,100,0
0,42,68,0
0,35,0,4
0,42,0,0
0,42,0,42
0,39,100,50
0,42,67,0
0,61,91,0
0,42,0,4
0,39,0,42
0,61,0,15
0,37,100,35
0,40,106,0
0,42,67,0
0,61,91,0
0,40,0,4
0,42,0,0
0,37,0,42
0,61,0,9
0,39,100,41
0,42,67,0
0,61,91,0
0,42,0,4
0,39,0,42
0,61,0,31
0,35,127,19
0,42,100,0
0,42,70,0
0,58,99,0
0,58,115,0
0,61,99,0
0,61,115,0
0,66,99,0
0,66,115,0
0,70,91,0
0,35,0,4
0,42,0,0
0,58,0,28
0,61,0,0
0,66,0,0
0,42,0,14
0,58,0,0
0,61,0,0
0,66,0,0
0,39,100,50
0,42,70,0
0,42,0,4
0,70,0,21
0,39,0,21
0,37,100,50
0,40,106,0
0,42,69,0
0,70,91,0
0,40,0,4
0,42,0,0
0,37,0,42
0,70,0,44
0,42,100,6
0,42,69,0
0,58,99,0
0,58,115,0
0,61,99,0
0,61,115,0
0,66,99,0
0,66,115,0
0,68,91,0
0,42,0,4
0,58,0,28
0,61,0,0
0,66,0,0
0,42,0,14
0,58,0,0
0,61,0,0
0,66,0,0
0,35,127,50
0,42,100,0
0,42,69,0
0,35,0,4
0,42,0,0
0,42,0,42
0,68,0,44
0,39,100,6
0,42,69,0
0,70,91,0
0,42,0,4
0,39,0,42
0,70,0,24
0,37,100,26
0,40,106,0
0,42,69,0
0,66,91,0
0,40,0,4
0,42,0,0
0,37,0,42
0,39,100,50
0,42,68,0
0,42,0,4
0,39,0,42
0,35,127,50
0,42,100,0
0,42,68,0
0,58,99,0
0,58,115,0
0,61,99,0
0,61,115,0
0,66,99,0
0,66,115,0
0,35,0,4
0,42,0,0
0,58,0,28
0,61,0,0
0,66,0,0
0,42,0,14
0,58,0,0
0,61,0,0
0,66,0,0
0,66,0,48
0,39,100,2
0,42,68,0
0,42,0,4
0,39,0,42
0,37,100,50
0,40,106,0
0,42,68,0
0,40,0,4
0,42,0,0
0,37,0,42
0,42,100,50
0,42,68,0
0,58,99,0
0,58,115,0
0,61,99,0
0,61,115,0
0,66,99,0
0,66,115,0
0,42,0,4
0,58,0,28
0,61,0,0
0,66,0,0
0,42,0,14
0,58,0,0
0,61,0,0
0,66,0,0
0,35,127,50
0,42,100,0
0,42,68,0
0,35,0,4
0,42,0,0
0,42,0,42
0,39,100,50
0,42,67,0
0,42,0,4
0,39,0,42
0,37,100,50
0,40,106,0
0,42,67,0
0,40,0,4
0,42,0,0
0,37,0,42
0,39,100,50
0,42,67,0
0,42,0,4
0,39,0,42
0,35,127,50
0,42,70,0
0,44,100,0
0,49,47,0
0,59,99,0
0,59,95,0
0,63,99,0
0,63,95,0
0,68,99,0
0,68,95,0
0,35,0,4
0,42,0,0
0,49,0,0
0,44,0,42
0,59,0,0
0,63,0,0
0,68,0,0
0,59,0,28
0,63,0,0
0,68,0,7
0,42,70,15
0,44,100,0
0,42,0,4
0,44,0,42
0,40,106,50
0,42,69,0
0,44,100,0
0,59,94,0
0,63,94,0
0,68,91,0
0,68,94,0
0,40,0,4
0,42,0,0
0,59,0,25
0,68,0,11
0,44,0,6
0,63,0,1
0,68,0,3
0,42,69,46
0,44,100,0
0,59,99,0
0,63,99,0
0,68,99,0
0,68,91,0
0,42,0,4
0,44,0,42
0,59,0,0
0,63,0,0
0,68,0,0
0,68,0,3
0,35,127,47
0,42,69,0
0,44,100,0
0,59,94,0
0,63,94,0
0,68,91,0
0,68,94,0
0,35,0,4
0,42,0,0
0,44,0,42
0,68,0,2
0,59,0,46
0,63,0,0
0,68,0,0
0,42,69,2
0,44,100,0
0,59,94,0
0,63,94,0
0,68,91,0
0,68,94,0
0,42,0,4
0,59,0,29
0,63,0,0
0,68,0,0
0,44,0,13
0,68,0,48
0,40,106,2
0,42,100,0
0,42,69,0
0,66,91,0
0,40,0,4
0,42,0,0
0,42,0,42
0,66,0,26
0,42,68,24
0,44,100,0
0,59,94,0
0,63,94,0
0,68,91,0
0,68,94,0
0,42,0,4
0,59,0,25
0,44,0,17
0,63,0,1
0,68,0,3
0,32,100,46
0,35,127,0
0,42,68,0
0,59,99,0
0,63,99,0
0,68,99,0
0,35,0,4
0,42,0,0
0,32,0,42
0,59,0,0
0,63,0,0
0,68,0,0
0,68,0,15
0,32,100,35
0,42,68,0
0,59,94,0
0,63,94,0
0,66,91,0
0,68,94,0
0,42,0,4
0,59,0,25
0,32,0,17
0,63,0,1
0,68,0,3
0,32,100,46
0,40,106,0
0,42,68,0
0,40,0,4
0,42,0,0
0,66,0,27
0,32,0,15
0,32,100,50
0,42,68,0
0,59,99,0
0,59,93,0
0,63,99,0
0,63,91,0
0,63,93,0
0,68,99,0
0,68,93,0
0,42,0,4
0,59,0,35
0,32,0,7
0,59,0,0
0,63,0,0
0,68,0,0
0,63,0,6
0,68,0,0
0,32,100,44
0,40,106,0
0,40,0,4
0,32,0,42
0,40,98,2
0,40,0,4
0,63,0,25
0,32,100,19
0,40,108,0
0,59,93,0
0,61,91,0
0,63,93,0
0,68,93,0
0,40,0,4
0,61,0,41
0,32,0,1
0,59,0,49
0,63,0,0
0,68,0,0
0,32,100,1
0,40,116,0
0,59,99,0
0,59,93,0
0,63,99,0
0,63,91,0
0,63,93,0
0,68,99,0
0,68,93,0
0,59,0,1
0,63,0,0
0,68,0,0
0,40,0,3
0,32,0,42
0,59,0,0
0,63,0,0
0,68,0,0
0,63,0,25
0,39,100,25
0,46,73,0
0,66,91,0
0,46,0,4
0,39,0,42
0,35,127,50
0,42,100,0
0,42,70,0
0,54,99,0
0,58,99,0
0,58,115,0
0,61,99,0
0,61,115,0
0,66,115,0
0,35,0,4
0,42,0,0
0,66,0,10
0,58,0,18
0,61,0,0
0,66,0,0
0,42,0,14
0,54,0,0
0,58,0,0
0,61,0,0
0,39,100,50
0,42,70,0
0,63,91,0
0,42,0,4
0,39,0,42
0,37,100,50
0,40,106,0
0,42,69,0
0,40,0,4
0,42,0,0
0,63,0,14
0,37,0,28
0,42,100,50
0,42,69,0
0,54,99,0
0,58,99,0
0,58,115,0
0,61,99,0
0,61,91,0
0,61,115,0
0,66,115,0
0,42,0,4
0,58,0,28
0,61,0,0
0,66,0,0
0,42,0,14
0,54,0,0
0,58,0,0
0,61,0,0
0,35,127,50
0,42,100,0
0,42,69,0
0,35,0,4
0,42,0,0
0,42,0,42
0,61,0,35
0,39,100,2
0,42,69,0
0,58,91,0
0,42,0,4
0,39,0,13
0,37,100,50
0,40,106,0
0,42,69,0
0,40,0,4
0,42,0,0
0,37,0,42
0,39,100,50
0,42,68,0
0,42,0,4
0,58,0,36
0,39,0,6
0,35,127,50
0,42,100,0
0,42,68,0
0,54,99,0
0,58,99,0
0,58,115,0
0,61,99,0
0,61,115,0
0,66,115,0
0,35,0,4
0,42,0,0
0,58,0,28
0,61,0,0
0,66,0,0
0,42,0,14
0,54,0,0
0,58,0,0
0,61,0,0
0,39,100,50
0,42,68,0
0,42,0,4
0,39,0,42
0,37,100,50
0,40,106,0
0,42,68,0
0,40,0,4
0,42,0,0
0,37,0,42
0,42,100,24
0,66,64,0
0,42,68,0
0,54,99,0
0,58,99,0
0,58,115,0
0,61,99,0
0,61,115,0
0,66,115,0
0,42,0,4
0,58,0,8
0,61,0,0
0,66,0,0
0,42,0,14
0,54,0,0
0,58,0,0
0,61,0,0
0,42,100,24
0,35,127,0
0,42,68,0
0,35,0,4
0,42,0,0
0,42,0,22
0,34,100,24
0,42,67,0
0,61,91,0
0,42,0,4
0,34,0,22
0,61,0,22
0,37,100,24
0,40,106,0
0,42,67,0
0,61,91,0
0,40,0,4
0,42,0,0
0,37,0,22
0,61,0,10
0,39,100,24
0,42,67,0
0,70,91,0
0,42,0,4
0,39,0,22
0,35,127,48
0,42,100,0
0,42,70,0
0,54,99,0
0,58,99,0
0,58,115,0
0,61,99,0
0,61,115,0
0,66,115,0
0,35,0,4
0,42,0,0
0,58,0,28
0,61,0,0
0,66,0,0
0,42,0,14
0,54,0,0
0,58,0,0
0,61,0,0
0,70,0,11
0,39,100,39
0,42,70,0
0,42,0,4
0,39,0,42
0,37,100,50
0,40,106,0
0,42,69,0
0,40,0,4
0,42,0,0
0,37,0,42
0,42,100,50
0,42,69,0
0,54,99,0
0,58,99,0
0,58,115,0
0,61,99,0
0,61,115,0
0,66,115,0
0,42,0,4
0,58,0,28
0,61,0,0
0,66,0,0
0,42,0,14
0,54,0,0
0,58,0,0
0,61,0,0
0,35,127,50
0,42,100,0
0,42,69,0
0,35,0,4
0,42,0,0
0,42,0,42
0,39,100,50
0,42,69,0
0,68,91,0
0,42,0,4
0,39,0,42
0,68,0,46
0,37,100,4
0,40,106,0
0,42,69,0
0,66,91,0
0,40,0,4
0,42,0,0
0,37,0,42
0,66,0,17
0,39,100,33
0,42,68,0
0,66,91,0
0,42,0,4
0,39,0,42
0,35,127,50
0,42,100,0
0,42,68,0
0,54,99,0
0,58,99,0
0,58,115,0
0,61,99,0
0,61,115,0
0,66,115,0
0,35,0,4
0,42,0,0
0,58,0,28
0,61,0,0
0,66,0,0
0,42,0,14
0,54,0,0
0,58,0,0
0,61,0,0
0,66,0,23
0,39,100,27
0,42,68,0
0,42,0,4
0,39,0,42
0,37,100,50
0,40,106,0
0,42,68,0
0,40,0,4
0,42,0,0
0,37,0,42
0,42,100,50
0,42,68,0
0,54,99,0
0,58,99,0
0,58,115,0
0,61,99,0
0,61,115,0
0,66,115,0
0,42,0,4
0,73,100,1
0,73,94,0
0,58,0,27
0,61,0,0
0,66,0,0
0,73,0,9
0,73,0,0
0,42,0,5
0,54,0,0
0,58,0,0
0,61,0,0
0,75,100,2
0,75,94,0
0,35,127,48
0,42,100,0
0,42,68,0
0,75,0,0
0,75,0,0
0,78,100,0
0,78,94,0
0,35,0,4
0,42,0,0
0,42,0,42
0,78,0,43
0,78,0,0
0,75,100,2
0,75,94,0
0,39,100,5
0,42,67,0
0,61,91,0
0,42,0,4
0,39,0,42
0,61,0,20
0,75,0,20
0,75,0,0
0,37,100,10
0,40,106,0
0,42,67,0
0,61,91,0
0,40,0,4
0,42,0,0
0,37,0,42
0,61,0,11
0,39,100,39
0,42,67,0
0,70,91,0
0,42,0,4
0,39,0,42
0,35,127,50
0,42,100,0
0,42,70,0
0,49,47,0
0,54,99,0
0,58,99,0
0,58,115,0
0,61,99,0
0,61,115,0
0,66,115,0
0,35,0,4
0,42,0,0
0,49,0,0
0,58,0,28
0,61,0,0
0,66,0,0
0,42,0,14
0,54,0,0
0,58,0,0
0,61,0,0
0,70,0,1
0,39,100,49
0,42,70,0
0,42,0,4
0,39,0,42
0,37,100,50
0,40,106,0
0,42,69,0
0,40,0,4
0,42,0,0
0,37,0,42
0,42,100,50
0,42,69,0
0,54,99,0
0,58,99,0
0,58,115,0
0,61,99,0
0,61,115,0
0,66,115,0
0,42,0,4
0,58,0,28
0,61,0,0
0,66,0,0
0,42,0,14
0,54,0,0
0,58,0,0
0,61,0,0
0,35,127,50
0,42,100,0
0,42,69,0
0,35,0,4
0,42,0,0
0,42,0,42
0,39,100,50
0,42,69,0
0,68,91,0
0,42,0,4
0,39,0,42
0,68,0,18
0,37,100,32
0,40,106,0
0,42,69,0
0,70,91,0
0,40,0,4
0,42,0,0
0,37,0,42
0,70,0,12
0,39,100,38
0,42,68,0
0,71,91,0
0,42,0,4
0,39,0,42
0,35,127,50
0,42,100,0
0,42,68,0
0,54,99,0
