track,note,velocity,time
1,49,80,296
1,49,0,39
1,49,80,81
1,49,0,39
1,49,80,81
1,49,0,39
1,49,80,81
1,49,0,39
1,53,80,81
1,53,0,39
1,53,80,81
1,53,0,39
1,53,80,81
1,53,0,39
1,53,80,81
1,53,0,39
1,46,80,81
1,46,0,39
1,46,80,81
1,46,0,39
1,46,80,81
1,46,0,39
1,46,80,81
1,46,0,39
1,48,80,81
1,48,0,39
1,48,80,81
1,48,0,39
1,48,80,81
1,48,0,39
1,48,80,81
1,48,0,39
1,49,110,24
1,49,0,41
1,51,115,199
1,51,0,41
1,53,120,199
1,53,0,41
1,60,117,199
1,60,0,54
1,56,117,6
1,56,0,54
1,53,110,5
1,53,0,56
1,48,100,1
1,48,0,46
1,49,110,1
1,49,0,40
1,51,115,199
1,51,0,41
1,53,110,198
1,53,0,27
1,53,112,33
1,53,0,27
1,53,114,33
1,53,0,27
1,53,116,33
1,53,0,27
1,53,118,33
1,53,0,27
1,53,120,33
1,53,0,27
1,53,122,33
1,53,0,27
1,53,125,34
1,53,0,26
1,29,127,2
1,29,0,28
1,29,117,32
1,29,0,28
1,36,117,33
1,36,0,55
1,29,110,4
1,29,0,13
1,34,117,48
1,34,0,55
1,29,110,5
1,29,0,12
1,32,117,48
1,32,0,55
1,36,110,4
1,36,0,13
1,29,127,47
1,29,0,28
1,29,117,33
1,29,0,27
1,36,117,33
1,36,0,55
1,29,110,4
1,29,0,13
1,34,117,48
1,34,0,55
1,29,110,4
1,29,0,13
1,32,117,48
1,32,0,55
1,34,117,6
1,34,0,11
1,29,127,48
1,29,0,27
1,29,117,32
1,29,0,28
1,36,117,32
1,36,0,56
1,29,110,4
1,29,0,13
1,34,117,48
1,34,0,55
1,29,110,5
1,29,0,12
1,32,117,48
1,32,0,55
1,36,110,4
1,36,0,13
1,29,127,47
1,29,0,28
1,29,117,33
1,29,0,27
1,36,117,33
1,36,0,55
1,29,110,4
1,29,0,13
1,34,117,48
1,34,0,55
1,29,110,5
1,29,0,12
1,32,117,48
1,32,0,55
1,34,117,6
1,34,0,11
1,29,127,47
1,29,0,28
1,29,117,32
1,29,0,28
1,36,117,33
1,36,0,55
1,29,110,4
1,29,0,13
1,34,117,48
1,34,0,55
1,29,110,5
1,29,0,12
1,32,117,48
1,32,0,55
1,36,110,4
1,36,0,13
1,29,127,47
1,29,0,28
1,29,117,32
1,29,0,28
1,36,117,33
1,36,0,55
1,29,110,4
1,29,0,13
1,34,117,48
1,34,0,55
1,29,110,4
1,29,0,13
1,32,117,48
1,32,0,55
1,34,117,6
1,34,0,11
1,29,127,48
1,29,0,27
1,29,117,33
1,29,0,27
1,36,117,33
1,36,0,55
1,29,110,4
1,29,0,13
1,34,117,48
1,34,0,55
1,29,110,4
1,29,0,13
1,32,117,48
1,32,0,55
1,36,110,4
1,36,0,13
1,29,127,47
1,29,0,28
1,29,117,33
1,29,0,27
1,36,117,33
1,36,0,55
1,29,110,5
1,29,0,12
1,32,117,47
1,32,0,56
1,36,110,5
1,36,0,12
1,22,117,48
1,22,0,55
1,39,117,6
1,39,0,11
1,29,127,48
1,29,0,27
1,29,117,32
1,29,0,28
1,36,117,32
1,36,0,56
1,29,110,4
1,29,0,13
1,34,117,47
1,34,0,56
1,29,110,4
1,29,0,13
1,32,117,47
1,32,0,56
1,36,110,4
1,36,0,13
1,29,127,47
1,29,0,28
1,29,117,32
1,29,0,28
1,36,117,32
1,36,0,56
1,29,110,4
1,29,0,13
1,34,117,47
1,34,0,56
1,29,110,4
1,29,0,13
1,32,117,47
1,32,0,56
1,34,117,5
1,34,0,12
1,29,127,47
1,29,0,28
1,29,117,32
1,29,0,28
1,36,117,32
1,36,0,56
1,29,110,4
1,29,0,13
1,34,117,48
1,34,0,55
1,29,110,4
1,29,0,13
1,32,117,47
1,32,0,56
1,36,110,4
1,36,0,13
1,29,127,47
1,29,0,28
1,29,117,32
1,29,0,28
1,36,117,32
1,36,0,56
1,29,110,4
1,29,0,13
1,34,117,47
1,34,0,56
1,29,110,4
1,29,0,13
1,32,117,47
1,32,0,56
1,34,117,5
1,34,0,12
1,29,127,47
1,29,0,28
1,29,117,32
1,29,0,28
1,36,117,32
1,36,0,56
1,29,110,4
1,29,0,13
1,34,117,48
1,34,0,55
1,29,110,4
1,29,0,13
1,32,117,47
1,32,0,56
1,36,110,4
1,36,0,13
1,29,127,47
1,29,0,28
1,29,117,32
1,29,0,28
1,36,117,32
1,36,0,56
1,29,110,4
1,29,0,13
1,34,117,47
1,34,0,56
1,29,110,4
1,29,0,13
1,32,117,47
1,32,0,56
1,34,117,5
1,34,0,12
1,29,127,48
1,29,0,27
1,29,117,27
1,29,0,33
1,36,117,32
1,36,0,57
1,29,110,2
1,29,0,14
1,34,117,47
1,34,0,56
1,29,110,4
1,29,0,13
1,32,117,47
1,32,0,56
1,36,110,3
1,36,0,14
1,29,127,47
1,29,0,28
1,29,117,31
1,29,0,29
1,36,117,32
1,36,0,56
1,29,110,3
1,29,0,14
1,32,117,47
1,32,0,56
1,36,110,4
1,36,0,13
1,22,117,47
1,22,0,56
1,39,117,4
1,39,0,13
1,29,127,48
1,29,0,27
1,29,117,31
1,29,0,29
1,36,117,32
1,36,0,56
1,29,110,3
1,29,0,14
1,34,117,47
1,34,0,56
1,29,110,4
1,29,0,13
1,32,117,47
1,32,0,56
1,36,110,3
1,36,0,14
1,29,127,47
1,29,0,28
1,29,117,32
1,29,0,28
1,36,117,32
1,36,0,56
1,29,110,3
1,29,0,14
1,34,117,47
1,34,0,56
1,29,110,3
1,29,0,14
1,32,117,47
1,32,0,56
1,34,117,5
1,34,0,12
1,29,127,48
1,29,0,27
1,29,117,31
1,29,0,29
1,36,117,31
1,36,0,57
1,29,110,3
1,29,0,14
1,34,117,47
1,34,0,56
1,29,110,4
1,29,0,13
1,32,117,47
1,32,0,56
1,36,110,3
1,36,0,14
1,29,127,47
1,29,0,28
1,29,117,32
1,29,0,28
1,36,117,31
1,36,0,57
1,29,110,3
1,29,0,14
1,34,117,47
1,34,0,56
1,29,110,3
1,29,0,14
1,32,117,47
1,32,0,56
1,34,117,4
1,34,0,13
1,29,127,48
1,29,0,27
1,29,117,31
1,29,0,29
1,36,117,31
1,36,0,57
1,29,110,3
1,29,0,14
1,34,117,47
1,34,0,56
1,29,110,4
1,29,0,13
1,32,117,47
1,32,0,56
1,36,110,3
1,36,0,14
1,29,127,47
1,29,0,28
1,29,117,32
1,29,0,28
1,36,117,32
1,36,0,56
1,29,110,3
1,29,0,14
1,34,117,47
1,34,0,56
1,29,110,3
1,29,0,14
1,32,117,47
1,32,0,56
1,34,117,5
1,34,0,12
1,29,127,48
1,29,0,27
1,29,117,32
1,29,0,28
1,36,117,32
1,36,0,56
1,29,110,3
1,29,0,14
1,34,117,47
1,34,0,56
1,29,110,4
1,29,0,13
1,32,117,47
1,32,0,56
1,36,110,3
1,36,0,14
1,29,127,46
1,29,0,29
1,29,117,31
1,29,0,29
1,36,117,32
1,36,0,56
1,29,110,3
1,29,0,14
1,32,117,47
1,32,0,56
1,36,110,3
1,36,0,14
1,22,117,46
1,22,0,57
1,39,117,3
1,39,0,14
1,32,127,48
1,32,0,27
1,32,117,31
1,32,0,29
1,37,117,31
1,37,0,54
1,32,110,6
1,32,0,14
1,36,117,47
1,36,0,56
1,37,110,3
1,37,0,14
1,32,117,46
1,32,0,57
1,34,110,3
1,34,0,14
1,34,127,47
1,34,0,28
1,34,117,31
1,34,0,29
1,39,117,31
1,39,0,57
1,34,110,3
1,34,0,14
1,31,117,46
1,31,0,56
1,32,110,4
1,32,0,14
1,34,117,47
1,34,0,55
1,39,110,3
1,39,0,15
1,32,127,47
1,32,0,28
1,32,117,31
1,32,0,29
1,37,117,31
1,37,0,57
1,32,110,3
1,32,0,14
1,36,117,47
1,36,0,56
1,37,110,3
1,37,0,14
1,32,117,46
1,32,0,57
1,34,110,3
1,34,0,14
1,34,127,47
1,34,0,28
1,34,117,31
1,34,0,29
1,39,117,31
1,39,0,57
1,34,110,3
1,34,0,14
1,31,117,47
1,31,0,56
1,32,110,3
1,32,0,14
1,34,117,47
1,34,0,55
1,39,110,3
1,39,0,15
1,32,127,47
1,32,0,28
1,32,117,31
1,32,0,29
1,37,117,31
1,37,0,57
1,32,110,3
1,32,0,14
1,36,117,47
1,36,0,56
1,37,110,3
1,37,0,14
1,32,117,46
1,32,0,57
1,34,110,3
1,34,0,14
1,34,127,47
1,34,0,28
1,34,117,31
1,34,0,29
1,39,117,31
1,39,0,57
1,34,110,3
1,34,0,14
1,31,117,46
1,31,0,57
1,32,110,3
1,32,0,14
1,31,117,47
1,31,0,54
1,29,110,5
1,29,0,14
1,29,127,48
1,29,0,17
1,29,117,41
1,29,0,19
1,29,117,41
1,29,0,19
1,29,117,41
1,29,0,19
1,29,117,41
1,29,0,24
1,31,120,36
1,31,0,24
1,32,122,36
1,32,0,24
1,34,123,35
1,34,0,22
1,29,127,41
1,29,0,17
1,29,117,41
1,29,0,19
1,31,127,41
1,31,0,57
1,32,117,4
1,32,0,23
1,31,127,38
1,31,0,55
1,32,117,4
1,32,0,23
1,31,127,37
1,31,0,57
1,34,117,3
1,34,0,23
1,29,117,39
1,29,0,26
1,29,117,33
1,29,0,55
1,39,117,5
1,39,0,27
1,36,117,93
1,36,0,27
1,36,117,151
1,36,0,29
1,36,117,32
1,36,0,54
1,39,117,2
1,39,0,32
1,39,117,32
1,39,0,18
1,36,117,102
1,36,0,55
1,39,117,5
1,39,0,18
1,34,117,43
1,34,0,55
1,36,117,4
1,36,0,18
1,29,117,43
1,29,0,27
1,29,117,33
1,29,0,55
1,39,117,5
1,39,0,27
1,36,117,93
1,36,0,27
1,36,117,92
1,36,0,28
1,36,117,31
1,36,0,29
1,36,117,32
1,36,0,55
1,39,117,6
1,39,0,27
1,36,117,32
1,36,0,28
1,34,117,32
1,34,0,88
1,34,117,32
1,34,0,28
1,34,117,33
1,34,0,28
1,34,117,34
1,34,0,21
1,34,117,36
1,34,0,24
1,34,117,37
1,34,0,23
1,34,117,37
1,34,0,23
1,34,117,37
1,34,0,23
1,34,117,37
1,34,0,23
1,34,117,37
1,34,0,23
1,34,117,36
1,34,0,24
1,34,117,38
1,34,0,22
1,34,117,36
1,34,0,24
1,34,117,37
1,34,0,23
1,34,117,37
1,34,0,23
1,34,117,37
1,34,0,23
1,34,117,37
1,34,0,23
1,34,117,37
1,34,0,23
1,32,117,36
1,32,0,24
1,29,117,40
1,29,0,25
1,29,117,33
1,29,0,55
1,39,117,5
1,39,0,27
1,36,117,93
1,36,0,27
1,36,117,151
1,36,0,29
1,36,117,32
1,36,0,56
1,39,117,5
1,39,0,17
1,36,117,162
1,36,0,55
1,39,117,5
1,39,0,28
1,34,117,34
1,34,0,29
1,29,117,33
1,29,0,27
1,29,117,32
1,29,0,56
1,39,117,5
1,39,0,27
1,36,117,92
1,36,0,28
1,36,117,152
1,36,0,28
1,36,117,32
1,36,0,56
1,39,117,5
1,39,0,27
1,36,117,32
1,36,0,55
1,34,117,4
1,34,0,29
1,34,117,32
1,34,0,28
1,34,117,32
1,34,0,56
1,36,117,5
1,36,0,27
1,36,117,32
1,36,0,28
1,29,127,34
1,29,0,26
1,29,117,31
1,29,0,29
1,36,117,32
1,36,0,57
1,29,110,2
1,29,0,14
1,34,117,47
1,34,0,56
1,29,110,4
1,29,0,13
1,32,117,47
1,32,0,56
1,36,110,3
1,36,0,14
1,29,127,47
1,29,0,28
1,29,117,32
1,29,0,28
1,36,117,32
1,36,0,56
1,29,110,3
1,29,0,14
1,34,117,47
1,34,0,56
1,29,110,3
1,29,0,14
1,32,117,47
1,32,0,56
1,34,117,5
1,34,0,12
1,29,127,48
1,29,0,27
1,29,117,31
1,29,0,29
1,36,117,31
1,36,0,57
1,29,110,3
1,29,0,14
1,34,117,47
1,34,0,56
1,29,110,4
1,29,0,13
1,32,117,47
1,32,0,56
1,36,110,3
1,36,0,14
1,29,127,47
1,29,0,28
1,29,117,32
1,29,0,28
1,36,117,31
1,36,0,57
1,29,110,3
1,29,0,14
1,34,117,47
1,34,0,56
1,29,110,3
1,29,0,14
1,32,117,47
1,32,0,56
1,34,117,5
1,34,0,12
1,29,127,48
1,29,0,27
1,29,117,31
1,29,0,29
1,36,117,31
1,36,0,57
1,29,110,3
1,29,0,14
1,34,117,47
1,34,0,56
1,29,110,4
1,29,0,13
1,32,117,47
1,32,0,56
1,36,110,3
1,36,0,14
1,29,127,47
1,29,0,28
1,29,117,32
1,29,0,28
1,36,117,32
1,36,0,56
1,29,110,3
1,29,0,14
1,34,117,47
1,34,0,56
1,29,110,3
1,29,0,14
1,32,117,47
1,32,0,56
1,34,117,5
1,34,0,12
1,29,127,48
1,29,0,27
1,29,117,32
1,29,0,28
1,36,117,32
1,36,0,56
1,29,110,3
1,29,0,14
1,34,117,47
1,34,0,56
1,29,110,4
1,29,0,13
1,32,117,47
1,32,0,56
1,36,110,3
1,36,0,14
1,29,127,46
1,29,0,29
1,29,117,31
1,29,0,29
1,36,117,32
1,36,0,56
1,29,110,3
1,29,0,14
1,32,117,47
1,32,0,56
1,36,110,3
1,36,0,14
1,22,117,46
1,22,0,57
1,39,117,3
1,39,0,14
1,32,127,48
1,32,0,27
1,32,117,31
1,32,0,29
1,37,117,31
1,37,0,57
1,32,110,3
1,32,0,14
1,36,117,47
1,36,0,56
1,37,110,3
1,37,0,14
1,32,117,46
1,32,0,57
1,34,110,3
1,34,0,14
1,34,127,47
1,34,0,28
1,34,117,31
1,34,0,29
1,39,117,31
1,39,0,57
1,34,110,3
1,34,0,14
1,31,117,46
1,31,0,56
1,32,110,4
1,32,0,14
1,34,117,47
1,34,0,55
1,39,110,3
1,39,0,15
1,32,127,47
1,32,0,28
1,32,117,31
1,32,0,29
1,37,117,31
1,37,0,57
1,32,110,3
1,32,0,14
1,36,117,47
1,36,0,56
1,37,110,3
1,37,0,14
1,32,117,46
1,32,0,57
1,34,110,3
1,34,0,14
1,34,127,47
1,34,0,28
1,34,117,31
1,34,0,29
1,39,117,31
1,39,0,57
1,34,110,3
1,34,0,14
1,31,117,47
1,31,0,56
1,32,110,3
1,32,0,14
1,34,117,47
1,34,0,55
1,39,110,3
1,39,0,15
1,32,127,47
1,32,0,28
1,32,117,31
1,32,0,29
1,37,117,32
1,37,0,56
1,32,110,4
1,32,0,13
1,36,117,47
1,36,0,56
1,37,110,3
1,37,0,14
1,32,117,46
1,32,0,56
1,34,110,4
1,34,0,14
1,34,127,47
1,34,0,28
1,34,117,31
1,34,0,29
1,39,117,31
1,39,0,57
1,34,110,3
1,34,0,14
1,31,117,46
1,31,0,57
1,32,110,3
1,32,0,14
1,31,117,47
1,31,0,54
1,29,110,5
1,29,0,14
1,29,127,47
1,29,0,18
1,29,117,41
1,29,0,19
1,29,117,41
1,29,0,19
1,29,117,41
1,29,0,19
1,29,117,41
1,29,0,24
1,31,120,36
1,31,0,24
1,32,122,36
1,32,0,24
1,34,123,35
1,34,0,25
1,29,127,38
1,29,0,17
1,29,117,41
1,29,0,19
1,31,127,41
1,31,0,57
1,32,117,4
1,32,0,23
1,31,127,37
1,31,0,56
1,32,117,4
1,32,0,23
1,31,127,37
1,31,0,56
1,34,117,4
1,34,0,23
1,29,117,38
1,29,0,27
1,29,117,33
1,29,0,55
1,39,117,5
1,39,0,27
1,36,117,93
1,36,0,27
1,36,117,151
1,36,0,29
1,36,117,32
1,36,0,55
1,39,117,6
1,39,0,27
1,39,117,32
1,39,0,18
1,36,117,102
1,36,0,55
1,39,117,5
1,39,0,18
1,34,117,43
1,34,0,55
1,36,117,3
1,36,0,19
1,29,117,43
1,29,0,27
1,29,117,33
1,29,0,55
1,39,117,5
1,39,0,27
1,36,117,93
1,36,0,27
1,36,117,92
1,36,0,28
1,36,117,31
1,36,0,29
1,36,117,32
1,36,0,55
1,39,117,6
1,39,0,27
