track,note,velocity,time
1,74,50,480
1,74,0,180
1,69,42,0
1,77,50,0
1,77,0,54
1,69,0,0
1,72,53,6
1,77,62,0
1,77,0,240
1,72,0,0
1,65,46,0
1,74,55,0
1,74,0,120
1,65,0,0
1,70,50,120
1,70,0,180
1,66,42,0
1,74,50,0
1,74,0,54
1,66,0,0
1,69,53,6
1,74,62,0
1,74,0,240
1,69,0,0
1,62,46,0
1,70,55,0
1,70,0,120
1,62,0,0
1,67,52,120
1,67,0,180
1,62,44,0
1,70,53,0
1,70,0,54
1,62,0,0
1,65,57,6
1,70,66,0
1,70,0,240
1,65,0,0
1,58,51,0
1,67,61,0
1,67,0,120
1,58,0,0
1,58,47,120
1,67,57,0
1,67,0,180
1,58,0,0
1,63,48,0
1,69,58,0
1,69,0,54
1,63,0,0
1,63,62,6
1,69,72,0
1,69,0,240
1,63,0,0
1,58,55,0
1,70,66,0
1,70,0,120
1,58,0,0
1,65,51,120
1,70,61,0
1,70,0,180
1,72,63,0
1,72,0,54
1,65,0,6
1,65,67,0
1,72,79,0
1,72,0,240
1,65,0,0
1,70,60,0
1,65,60,0
1,74,72,0
1,74,0,120
1,65,0,0
1,70,0,0
1,70,56,120
1,74,67,0
1,74,0,180
1,75,70,0
1,75,0,54
1,70,0,6
1,70,75,0
1,75,88,0
1,75,0,240
1,70,0,0
1,73,68,0
1,70,68,0
1,65,68,0
1,77,82,0
1,77,0,60
1,73,0,0
1,70,0,0
1,65,0,0
1,67,79,180
1,70,79,0
1,72,79,0
1,79,94,0
1,79,0,60
1,67,0,0
1,70,0,0
1,72,0,0
1,60,79,180
1,69,79,0
1,72,94,0
1,72,0,120
1,69,0,0
1,60,0,0
1,86,50,360
1,86,0,180
1,81,42,0
1,89,50,0
1,89,0,54
1,81,0,0
1,84,53,6
1,89,62,0
1,89,0,240
1,84,0,0
1,77,46,0
1,86,55,0
1,86,0,120
1,77,0,0
1,82,50,120
1,82,0,180
1,78,42,0
1,86,50,0
1,86,0,54
1,78,0,0
1,81,53,6
1,86,62,0
1,86,0,240
1,81,0,0
1,74,46,0
1,82,55,0
1,82,0,120
1,74,0,0
1,79,52,120
1,79,0,180
1,74,44,0
1,82,53,0
1,82,0,54
1,74,0,0
1,77,57,6
1,82,66,0
1,82,0,240
1,77,0,0
1,70,51,0
1,79,61,0
1,79,0,120
1,70,0,0
1,70,47,120
1,79,57,0
1,79,0,180
1,70,0,0
1,75,48,0
1,81,58,0
1,81,0,54
1,75,0,0
1,75,62,6
1,81,72,0
1,81,0,240
1,75,0,0
1,70,55,0
1,82,66,0
1,82,0,120
1,70,0,0
1,77,51,120
1,82,61,0
1,82,0,180
1,84,63,0
1,84,0,54
1,77,0,6
1,77,67,0
1,84,79,0
1,84,0,240
1,77,0,0
1,77,60,0
1,86,72,0
1,86,0,120
1,77,0,0
1,82,56,120
1,87,67,0
1,87,0,180
1,88,70,0
1,88,0,54
1,82,0,6
1,82,75,0
1,88,88,0
1,88,0,240
1,82,0,0
1,81,68,0
1,77,68,0
1,89,82,0
1,89,0,60
1,77,0,0
1,81,0,0
1,79,79,180
1,82,79,0
1,88,79,0
1,91,94,0
1,91,0,60
1,79,0,0
1,82,0,0
1,88,0,0
1,77,79,180
1,81,79,0
1,89,94,0
1,89,0,120
1,81,0,0
1,77,0,0
1,71,43,360
1,74,50,0
1,74,0,180
1,71,0,0
1,74,42,0
1,77,50,0
1,77,0,45
1,74,0,0
1,74,53,15
1,77,62,0
1,77,0,240
1,74,0,0
1,71,46,0
1,74,55,0
1,74,0,120
1,71,0,0
1,71,43,120
1,74,50,0
1,74,0,180
1,71,0,0
1,75,42,0
1,79,50,0
1,79,0,45
1,75,0,0
1,75,53,15
1,79,62,0
1,79,0,240
1,75,0,0
1,72,46,0
1,75,55,0
1,75,0,120
1,72,0,0
1,69,43,120
1,72,50,0
1,72,0,180
1,69,0,0
1,72,42,0
1,75,50,0
1,75,0,45
1,72,0,0
1,72,53,15
1,75,62,0
1,75,0,240
1,72,0,0
1,69,46,0
1,72,55,0
1,72,0,120
1,69,0,0
1,69,43,120
1,72,50,0
1,72,0,180
1,69,0,0
1,73,42,0
1,77,50,0
1,77,0,45
1,73,0,0
1,74,53,15
1,77,62,0
1,77,0,240
1,74,0,0
1,70,46,0
1,74,55,0
1,74,0,120
1,70,0,0
1,57,38,120
1,60,45,0
1,60,0,180
1,57,0,0
1,60,37,0
1,63,45,0
1,63,0,45
1,60,0,0
1,60,47,15
1,63,55,0
1,63,0,480
1,60,0,0
1,58,40,0
1,62,48,0
1,62,0,240
1,58,0,0
1,57,39,0
1,60,46,0
1,60,0,240
1,57,0,0
1,55,38,0
1,58,45,0
1,58,0,240
1,55,0,0
1,53,36,0
1,57,43,0
1,57,0,480
1,53,0,0
1,52,33,0
1,55,39,0
1,55,0,240
1,52,0,0
1,51,32,0
1,55,32,0
1,60,38,0
1,60,0,480
1,51,0,0
1,50,32,0
1,59,38,0
1,59,0,240
1,50,0,0
1,55,0,0
1,59,40,720
1,59,0,180
1,62,40,0
1,62,0,54
1,62,49,6
1,62,0,240
1,59,44,0
1,59,0,120
1,62,33,120
1,71,40,0
1,71,0,180
1,74,40,0
1,74,0,54
1,74,49,6
1,74,0,240
1,71,44,0
1,71,0,120
1,62,0,0
1,84,46,120
1,84,0,180
1,87,46,0
1,87,0,54
1,87,56,6
1,87,0,240
1,84,50,0
1,84,0,120
1,62,43,120
1,71,50,0
1,71,0,180
1,62,0,0
1,65,42,0
1,74,50,0
1,74,0,45
1,65,0,0
1,65,53,15
1,74,62,0
1,74,0,240
1,65,0,0
1,62,47,0
1,71,56,0
1,71,0,120
1,62,0,0
1,62,51,120
1,71,59,0
1,71,0,180
1,62,0,0
1,67,50,0
1,75,60,0
1,75,0,45
1,67,0,0
1,67,63,15
1,75,75,0
1,75,0,240
1,67,0,0
1,63,56,0
1,72,68,0
1,72,0,120
1,63,0,0
1,69,61,120
1,72,73,0
1,72,0,180
1,69,0,0
1,72,66,0
1,81,75,0
1,81,0,54
1,72,0,0
1,72,80,6
1,81,94,0
1,81,0,240
1,72,0,0
1,69,71,0
1,77,85,0
1,77,0,60
1,69,0,0
1,70,86,180
1,82,103,0
1,82,0,60
1,70,0,0
1,70,86,180
1,82,103,0
1,82,0,120
1,70,0,0
1,83,43,360
1,86,50,0
1,86,0,180
1,83,0,0
1,86,42,0
1,89,50,0
1,89,0,45
1,86,0,0
1,86,53,15
1,89,62,0
1,89,0,240
1,86,0,0
1,83,46,0
1,86,55,0
1,86,0,120
1,83,0,0
1,83,43,120
1,86,50,0
1,86,0,180
1,83,0,0
1,87,42,0
1,91,50,0
1,91,0,45
1,87,0,0
1,87,53,15
1,91,62,0
1,91,0,240
1,87,0,0
1,84,46,0
1,87,55,0
1,87,0,120
1,84,0,0
1,81,43,120
1,84,50,0
1,84,0,180
1,81,0,0
1,84,42,0
1,87,50,0
1,87,0,45
1,84,0,0
1,84,53,15
1,87,62,0
1,87,0,240
1,84,0,0
1,81,46,0
1,84,55,0
1,84,0,120
1,81,0,0
1,81,43,120
1,84,50,0
1,84,0,180
1,81,0,0
1,85,42,0
1,89,50,0
1,89,0,45
1,85,0,0
1,86,53,15
1,89,62,0
1,89,0,240
1,86,0,0
1,82,46,0
1,86,55,0
1,86,0,120
1,82,0,0
1,69,38,120
1,72,45,0
1,72,0,180
1,69,0,0
1,72,37,0
1,75,45,0
1,75,0,45
1,72,0,0
1,72,47,15
1,75,55,0
1,75,0,480
1,72,0,0
1,70,40,0
1,74,48,0
1,74,0,240
1,70,0,0
1,69,39,0
1,72,46,0
1,72,0,240
1,69,0,0
1,67,38,0
1,70,45,0
1,70,0,240
1,67,0,0
1,65,36,0
1,69,43,0
1,69,0,480
1,65,0,0
1,64,33,0
1,67,39,0
1,67,0,240
1,64,0,0
1,63,32,0
1,67,32,0
1,72,38,0
1,72,0,480
1,63,0,0
1,62,32,0
1,71,38,0
1,71,0,240
1,62,0,0
1,67,0,0
1,71,40,720
1,71,0,180
1,74,40,0
1,74,0,54
1,74,49,6
1,74,0,240
1,71,44,0
1,71,0,120
1,74,33,120
1,83,40,0
1,83,0,180
1,86,40,0
1,86,0,54
1,86,49,6
1,86,0,240
1,83,44,0
1,83,0,120
1,74,0,0
1,72,46,120
1,72,0,180
1,75,46,0
1,75,0,54
1,75,56,6
1,75,0,240
1,72,50,0
1,72,0,120
1,74,43,120
1,83,50,0
1,83,0,180
1,74,0,0
1,77,42,0
1,86,50,0
1,86,0,45
1,77,0,0
1,77,54,15
1,86,63,0
1,86,0,240
1,77,0,0
1,74,48,0
1,83,57,0
1,83,0,120
1,74,0,0
1,74,52,120
1,83,60,0
1,83,0,180
1,74,0,0
1,79,52,0
1,87,62,0
1,87,0,45
1,79,0,0
1,79,66,15
1,87,78,0
1,87,0,240
1,79,0,0
1,75,58,0
1,84,70,0
1,84,0,120
1,75,0,0
1,81,64,120
1,84,77,0
1,84,0,180
1,81,0,0
1,84,69,0
1,93,79,0
1,93,0,54
1,84,0,0
1,84,83,6
1,93,98,0
1,93,0,240
1,84,0,0
1,81,74,0
1,89,89,0
1,89,0,60
1,81,0,0
1,82,94,180
1,94,112,0
1,94,0,60
1,82,0,0
1,82,94,180
1,94,112,0
1,94,0,120
1,82,0,0
1,73,52,360
1,85,62,0
1,85,0,480
1,73,0,0
1,89,58,0
1,77,58,0
1,77,0,240
1,89,0,0
1,73,52,0
1,85,62,0
1,85,0,480
1,73,0,0
1,70,52,0
1,82,62,0
1,82,0,240
1,70,0,0
1,65,48,0
1,77,57,0
1,77,0,240
1,65,0,0
1,70,53,0
1,82,63,0
1,82,0,480
1,70,0,0
1,85,66,0
1,73,55,0
1,73,0,240
1,85,0,0
1,77,58,0
1,89,69,0
1,89,0,480
1,77,0,0
1,85,79,0
1,73,67,0
1,73,0,240
1,85,0,0
1,82,81,0
1,70,68,0
1,70,0,480
1,82,0,0
1,77,82,0
1,65,68,0
1,65,0,240
1,77,0,0
1,70,72,0
1,82,86,0
1,82,0,480
1,70,0,0
1,85,78,0
1,73,66,0
1,73,0,240
1,85,0,0
1,77,60,0
1,89,72,0
1,89,0,480
1,77,0,0
1,92,51,0
1,80,42,0
1,80,0,240
1,92,0,0
1,85,48,0
1,73,40,0
1,73,0,240
1,85,0,0
1,70,34,240
1,82,40,0
1,82,0,60
1,70,0,0
1,70,34,180
1,82,40,0
1,82,0,60
1,70,0,0
1,73,37,420
1,73,0,80
1,70,30,0
1,70,0,80
1,65,30,0
1,65,0,80
1,73,37,0
1,73,0,80
1,70,31,0
1,70,0,80
1,65,31,0
1,65,0,80
1,77,37,0
1,77,0,80
1,73,31,0
1,73,0,80
1,70,30,0
1,70,0,80
1,73,37,0
1,73,0,80
1,70,31,0
1,70,0,80
1,65,31,0
1,65,0,80
1,73,37,0
1,73,0,80
1,70,31,0
1,70,0,80
1,65,31,0
1,65,0,80
1,70,39,0
1,70,0,80
1,65,32,0
1,65,0,80
1,61,32,0
1,61,0,80
1,65,40,0
1,65,0,80
1,61,34,0
1,61,0,80
1,58,36,0
1,58,0,80
1,61,49,0
1,70,49,0
1,70,0,80
1,61,0,0
1,58,42,0
1,58,0,80
1,61,42,0
1,61,0,80
1,70,50,0
1,70,0,80
1,61,43,0
1,61,0,80
1,58,43,0
1,58,0,80
1,65,54,0
1,73,54,0
1,73,0,80
1,65,0,0
1,61,46,0
1,61,0,80
1,65,51,0
1,65,0,80
1,77,63,0
1,77,0,80
1,73,55,0
1,73,0,80
1,70,59,0
1,70,0,80
1,77,71,0
1,77,0,80
1,73,60,0
1,73,0,80
1,70,64,0
1,70,0,80
1,73,77,0
1,73,0,80
1,70,67,0
1,70,0,80
1,65,61,0
1,65,0,80
1,70,83,0
1,70,0,80
1,65,68,0
1,65,0,80
1,61,58,0
1,61,0,80
1,70,64,0
1,70,0,80
1,65,54,0
1,65,0,80
1,61,46,0
1,61,0,80
1,65,60,0
1,65,0,80
1,61,45,0
1,61,0,80
1,58,44,0
1,58,0,80
1,61,31,0
1,68,44,0
1,68,0,80
1,61,0,0
1,56,36,0
1,56,0,80
1,61,35,0
1,61,0,80
1,68,41,0
1,68,0,80
1,65,34,0
1,65,0,80
1,61,32,0
1,61,0,80
1,65,27,0
1,73,39,0
1,73,0,80
1,65,0,0
1,61,32,0
1,61,0,80
1,65,31,0
1,65,0,80
1,77,37,0
1,77,0,80
1,73,26,0
1,73,0,80
1,68,26,0
1,68,0,80
1,77,30,0
1,77,0,80
1,73,25,0
1,73,0,80
1,68,25,0
1,68,0,80
1,80,30,0
1,80,0,80
1,77,25,0
1,77,0,80
1,73,25,0
1,73,0,78
1,65,33,2
1,73,40,0
1,73,0,240
1,65,0,0
1,77,48,240
1,89,57,0
1,89,0,480
1,77,0,0
1,92,53,0
1,80,53,0
1,80,0,240
1,92,0,0
1,77,48,0
1,89,57,0
1,89,0,480
1,77,0,0
1,73,48,0
1,85,57,0
1,85,0,240
1,73,0,0
1,68,44,0
1,80,52,0
1,80,0,240
1,68,0,0
1,73,49,0
1,85,58,0
1,85,0,480
1,73,0,0
1,89,60,0
1,77,50,0
1,77,0,240
1,89,0,0
1,80,53,0
1,92,63,0
1,92,0,480
1,80,0,0
1,89,72,0
1,77,61,0
1,77,0,240
1,89,0,0
1,85,81,0
1,73,68,0
1,73,0,480
1,85,0,0
1,82,82,0
1,70,68,0
1,70,0,240
1,82,0,0
1,65,72,0
1,77,86,0
1,77,0,480
1,65,0,0
1,82,78,0
1,70,66,0
1,70,0,240
1,82,0,0
1,73,60,0
1,85,72,0
1,85,0,480
1,73,0,0
1,89,51,0
1,77,42,0
1,77,0,240
1,89,0,0
1,82,48,0
1,70,40,0
1,70,0,240
1,82,0,0
1,61,34,240
1,73,40,0
1,73,0,60
1,61,0,0
1,61,34,180
1,73,40,0
1,73,0,60
1,61,0,0
1,61,37,180
1,61,0,80
1,65,32,0
1,65,0,80
1,73,32,0
1,73,0,80
1,77,37,0
1,73,30,80
1,73,0,80
1,68,30,0
1,68,0,80
1,77,0,0
1,77,37,0
1,73,31,80
1,73,0,80
1,68,31,0
1,68,0,80
1,77,0,0
1,77,37,0
1,80,37,0
1,77,0,80
1,73,31,0
1,73,0,80
1,68,30,0
1,68,0,80
1,80,0,0
1,77,37,0
1,77,0,80
1,73,31,0
1,73,0,80
1,68,31,0
1,68,0,80
1,77,37,0
1,77,0,80
1,73,31,0
1,73,0,80
1,68,31,0
1,68,0,80
1,73,38,0
1,73,0,80
1,68,32,0
1,68,0,80
1,65,31,0
1,65,0,80
1,61,34,0
1,68,39,0
1,68,0,80
1,61,0,0
1,56,33,0
1,56,0,80
1,61,34,0
1,61,0,80
1,65,32,0
1,73,41,0
1,73,0,80
1,65,0,0
1,61,35,0
1,61,0,80
1,65,35,0
1,65,0,80
1,73,50,0
1,73,0,80
1,68,40,0
1,68,0,80
1,65,43,0
1,65,0,80
1,77,54,0
1,77,0,80
1,73,47,0
1,73,0,80
1,68,50,0
1,68,0,80
1,80,62,0
1,80,0,80
1,77,53,0
1,77,0,80
1,73,55,0
1,73,0,80
1,77,67,0
1,77,0,80
1,73,60,0
1,73,0,80
1,77,62,0
1,77,0,78
1,77,72,2
1,77,0,80
1,73,63,0
1,73,0,80
1,65,60,0
1,65,0,80
1,73,75,0
1,73,0,80
1,70,66,0
1,70,0,80
1,65,52,0
1,65,0,80
1,73,55,0
1,73,0,80
1,70,45,0
1,70,0,80
1,65,42,0
1,65,0,80
1,70,60,0
1,70,0,80
1,65,45,0
1,65,0,80
1,61,44,0
1,61,0,80
1,65,44,0
1,65,0,80
1,61,36,0
1,61,0,80
1,58,35,0
1,58,0,80
1,65,41,0
1,65,0,80
1,61,34,0
1,61,0,80
1,58,32,0
1,58,0,80
1,61,27,0
1,70,39,0
1,70,0,80
1,61,0,0
1,58,32,0
1,58,0,80
1,61,31,0
1,61,0,80
