track,note,velocity,time
1,55,100,240
1,55,0,60
1,55,100,0
1,55,0,120
1,62,100,0
1,62,0,240
1,63,100,0
1,63,0,180
1,58,100,0
1,58,0,120
1,58,100,0
1,58,0,120
1,60,100,0
1,60,0,480
1,55,100,480
1,55,0,120
1,55,100,0
1,55,0,60
1,55,100,0
1,55,0,120
1,62,100,0
1,62,0,180
1,63,100,0
1,63,0,120
1,58,100,0
1,58,0,120
1,58,100,0
1,58,0,120
1,55,100,0
1,55,0,480
1,58,100,480
1,58,0,120
1,58,100,0
1,58,0,60
1,56,100,0
1,56,0,180
1,51,100,0
1,51,0,60
1,58,100,0
1,58,0,120
1,58,100,0
1,58,0,60
1,56,100,0
1,56,0,180
1,56,100,120
1,56,0,60
1,55,100,0
1,55,0,120
1,53,100,0
1,53,0,120
1,51,100,0
1,51,0,60
1,53,100,0
1,53,0,120
1,55,100,0
1,55,0,120
1,53,100,0
1,53,0,120
1,51,100,0
1,51,0,180
1,58,100,180
1,58,0,120
1,58,100,0
1,58,0,779
1,58,100,20
1,58,0,60
1,60,100,0
1,60,0,120
1,60,100,0
1,60,0,120
1,55,100,0
1,55,0,60
1,58,100,0
1,58,0,120
1,65,100,0
1,65,0,180
1,64,100,0
1,64,0,360
1,60,100,590
1,60,0,180
1,55,100,0
1,55,0,120
1,58,100,0
1,58,0,120
1,53,100,0
1,53,0,120
1,51,100,0
1,51,0,180
1,58,100,1080
1,58,0,60
1,60,100,0
1,60,0,120
1,60,100,0
1,60,0,120
1,55,100,0
1,55,0,60
1,58,100,0
1,58,0,120
1,65,100,0
1,65,0,180
1,64,100,0
1,64,0,720
1,55,100,480
1,55,0,60
1,58,100,0
1,58,0,60
1,60,100,0
1,60,0,120
1,60,100,0
1,60,0,240
1,55,100,480
1,55,0,60
1,58,100,0
1,58,0,60
1,60,100,0
1,60,0,120
1,60,100,0
1,60,0,120
1,53,100,0
1,53,0,60
1,53,100,0
1,53,0,60
1,53,100,0
1,53,0,120
1,51,100,0
1,51,0,60
1,55,100,780
1,55,0,60
1,58,100,0
1,58,0,60
1,60,100,0
1,60,0,120
1,60,100,0
1,60,0,120
1,55,100,0
1,55,0,60
1,65,100,0
1,65,0,120
1,64,100,0
1,64,0,720
1,55,100,180
1,55,0,60
1,58,100,0
1,58,0,60
1,60,100,0
1,60,0,120
1,60,100,0
1,60,0,299
1,55,100,421
1,55,0,60
1,58,100,0
1,58,0,60
1,60,100,0
1,60,0,120
1,60,100,0
1,60,0,360
1,55,100,660
1,55,0,60
1,55,100,0
1,55,0,120
1,62,100,0
1,62,0,240
1,63,100,0
1,63,0,180
1,58,100,0
1,58,0,120
1,58,100,0
1,58,0,120
1,60,100,0
1,60,0,480
1,55,100,480
1,55,0,120
1,55,100,0
1,55,0,60
1,55,100,0
1,55,0,120
1,62,100,0
1,62,0,180
1,63,100,0
1,63,0,120
1,58,100,0
1,58,0,120
1,58,100,0
1,58,0,120
1,55,100,0
1,55,0,480
1,58,100,480
1,58,0,120
1,58,100,0
1,58,0,60
1,56,100,0
1,56,0,180
1,51,100,0
1,51,0,60
1,58,100,0
1,58,0,120
1,58,100,0
1,58,0,120
1,56,100,0
1,56,0,180
1,56,100,60
1,56,0,60
1,55,100,0
1,55,0,120
1,53,100,0
1,53,0,120
1,51,100,0
1,51,0,60
1,53,100,0
1,53,0,120
1,55,100,0
1,55,0,120
1,53,100,0
1,53,0,120
1,51,100,0
1,51,0,180
1,58,100,180
1,58,0,120
1,58,100,0
1,58,0,480
1,60,100,3300
1,60,0,180
1,55,100,0
1,55,0,120
1,58,100,0
1,58,0,120
1,53,100,0
1,53,0,120
1,51,100,0
1,51,0,180
1,55,100,1020
1,55,0,60
1,58,100,0
1,58,0,60
1,60,100,0
1,60,0,120
1,60,100,0
1,60,0,120
1,55,100,0
1,55,0,60
1,58,100,0
1,58,0,120
1,65,100,0
1,65,0,180
1,64,100,0
1,64,0,720
1,55,100,480
1,55,0,60
1,58,100,0
1,58,0,60
1,60,100,0
1,60,0,120
1,60,100,0
1,60,0,240
1,55,100,480
1,55,0,60
1,58,100,0
1,58,0,60
1,60,100,0
1,60,0,120
1,60,100,0
1,60,0,120
1,53,100,0
1,53,0,60
1,53,100,0
1,53,0,60
1,53,100,0
1,53,0,120
1,51,100,0
1,51,0,60
1,55,100,780
1,55,0,60
1,58,100,0
1,58,0,60
1,60,100,0
1,60,0,120
1,60,100,0
1,60,0,120
1,55,100,0
1,55,0,60
1,58,100,0
1,58,0,120
1,65,100,0
1,65,0,180
1,64,100,0
1,64,0,480
1,55,100,240
1,55,0,60
1,58,100,0
1,58,0,60
1,60,100,0
1,60,0,120
1,60,100,0
1,60,0,299
1,55,100,421
1,55,0,60
1,58,100,0
1,58,0,60
1,60,100,0
1,60,0,120
1,60,100,0
1,60,0,360
1,55,100,660
1,55,0,60
1,55,100,0
1,55,0,120
1,62,100,0
1,62,0,240
1,63,100,0
1,63,0,180
1,58,100,0
1,58,0,120
1,58,100,0
1,58,0,120
1,60,100,0
1,60,0,480
1,55,100,480
1,55,0,120
1,55,100,0
1,55,0,60
1,55,100,0
1,55,0,120
1,62,100,0
1,62,0,180
1,63,100,0
1,63,0,120
1,58,100,0
1,58,0,120
1,58,100,0
1,58,0,120
1,55,100,0
1,55,0,480
1,58,100,480
1,58,0,120
1,58,100,0
1,58,0,60
1,56,100,0
1,56,0,180
1,51,100,0
1,51,0,60
1,58,100,0
1,58,0,120
1,58,100,0
1,58,0,120
1,56,100,0
1,56,0,180
1,56,100,60
1,56,0,60
1,55,100,0
1,55,0,120
1,53,100,0
1,53,0,120
1,51,100,0
1,51,0,60
1,53,100,0
1,53,0,120
1,55,100,0
1,55,0,120
1,53,100,0
1,53,0,120
1,51,100,0
1,51,0,180
1,58,100,180
1,58,0,120
1,58,100,0
1,58,0,480
1,67,100,3300
1,67,0,120
1,67,100,0
1,67,0,60
1,68,100,0
1,68,0,120
1,67,100,0
1,67,0,120
1,65,100,0
1,65,0,360
1,67,100,1020
1,67,0,60
1,67,100,0
1,67,0,120
1,67,100,0
1,67,0,120
1,65,100,0
1,65,0,120
1,67,100,0
1,67,0,120
1,68,100,0
1,68,0,360
1,55,100,960
1,55,0,60
1,58,100,0
1,58,0,60
1,60,100,0
1,60,0,120
1,60,100,0
1,60,0,299
1,55,100,421
1,55,0,60
1,58,100,0
1,58,0,60
1,60,100,0
1,60,0,120
1,60,100,0
1,60,0,120
1,56,100,0
1,56,0,60
1,56,100,0
1,56,0,60
1,56,100,0
1,56,0,120
1,55,100,0
1,55,0,120
1,55,100,1200
1,55,0,60
1,58,100,0
1,58,0,60
1,60,100,0
1,60,0,120
1,60,100,0
1,60,0,299
1,55,100,421
1,55,0,60
1,58,100,0
1,58,0,120
1,60,100,0
1,60,0,120
1,60,100,0
1,60,0,240
1,55,100,720
1,55,0,60
1,55,100,0
1,55,0,120
1,62,100,0
1,62,0,240
1,63,100,0
1,63,0,180
1,58,100,0
1,58,0,120
1,58,100,0
1,58,0,120
1,60,100,0
1,60,0,480
1,55,100,480
1,55,0,120
1,55,100,0
1,55,0,60
1,55,100,0
1,55,0,120
1,62,100,0
1,62,0,180
1,63,100,0
1,63,0,120
1,58,100,0
1,58,0,120
1,58,100,0
1,58,0,120
1,55,100,0
1,55,0,480
1,58,100,480
1,58,0,120
1,58,100,0
1,58,0,60
1,56,100,0
1,56,0,180
1,51,100,0
1,51,0,60
1,58,100,0
1,58,0,120
1,58,100,0
1,58,0,120
1,56,100,0
1,56,0,180
1,56,100,60
1,56,0,60
1,55,100,0
1,55,0,120
1,53,100,0
1,53,0,120
1,51,100,0
1,51,0,60
1,53,100,0
1,53,0,120
1,55,100,0
1,55,0,120
1,53,100,0
1,53,0,120
1,51,100,0
1,51,0,180
1,58,100,180
1,58,0,120
1,58,100,0
1,58,0,480
1,67,100,3300
1,67,0,120
1,67,100,0
1,67,0,60
1,68,100,0
1,68,0,120
1,67,100,0
1,67,0,120
1,65,100,0
1,65,0,360
1,67,100,1140
1,67,0,120
1,67,100,0
1,67,0,60
1,68,100,0
1,68,0,120
1,67,100,0
1,67,0,120
1,65,100,0
1,65,0,120
1,63,100,0
1,63,0,120
1,62,100,0
1,62,0,120
1,63,100,0
1,63,0,360
1,62,100,0
1,62,0,120
1,60,100,0
1,60,0,480
1,67,100,180
1,67,0,120
1,67,100,0
1,67,0,60
1,68,100,0
1,68,0,120
1,67,100,0
1,67,0,120
1,65,100,0
1,65,0,360
1,67,100,1140
1,67,0,120
1,67,100,0
1,67,0,60
1,68,100,0
1,68,0,120
1,67,100,0
1,67,0,120
1,65,100,0
1,65,0,120
1,63,100,0
1,63,0,120
1,62,100,0
1,62,0,120
1,63,100,0
1,63,0,360
1,62,100,0
1,62,0,120
1,60,100,0
1,60,0,480
1,67,100,180
1,67,0,120
1,67,100,0
1,67,0,60
1,68,100,0
1,68,0,120
1,67,100,0
1,67,0,120
1,65,100,0
1,65,0,360
1,67,100,10
1,67,0,60
1,67,100,0
1,67,0,10
1,68,100,0
1,68,0,50
1,67,100,0
1,67,0,40
1,65,100,0
1,65,0,40
1,63,100,0
1,63,0,80
1,62,100,0
1,62,0,20
1,63,100,0
1,63,0,20
1,62,100,0
1,62,0,30
1,60,100,0
1,60,0,30
2,55,100,0
2,55,0,480
2,56,100,480
2,56,0,480
2,55,100,480
2,55,0,480
2,58,100,480
2,58,0,240
2,55,100,0
2,58,100,0
2,62,100,0
2,62,0,720
2,58,0,0
2,55,0,0
2,51,100,0
2,51,0,480
2,53,100,480
2,53,0,480
2,51,100,480
2,55,100,0
2,55,0,959
2,51,0,0
2,53,100,1
2,58,100,0
2,60,100,0
2,60,0,2399
2,58,0,0
2,53,0,0
2,60,100,1
2,60,0,480
2,60,100,0
2,60,0,720
2,55,100,240
2,60,100,0
2,60,0,480
2,55,0,0
2,55,100,0
2,60,100,0
2,60,0,959
2,55,0,0
2,55,100,481
2,60,100,0
2,60,0,480
2,55,0,0
2,55,100,0
2,60,100,0
2,60,0,360
2,55,0,0
2,55,100,600
2,60,100,0
2,60,0,360
2,55,0,0
2,55,100,1080
2,60,100,0
2,60,0,480
2,55,0,0
2,64,100,480
2,64,0,480
2,55,100,0
2,60,100,0
2,60,0,360
2,55,0,0
2,55,100,600
2,60,100,0
2,60,0,360
2,55,0,0
2,60,100,8760
2,60,0,1919
2,60,100,17281
2,60,0,1919
2,55,100,1
2,60,100,0
2,60,0,240
2,55,0,0
2,55,100,720
2,60,100,0
2,60,0,959
2,55,0,0
2,55,100,961
2,60,100,0
2,60,0,959
2,55,0,0
2,55,100,481
2,60,100,0
2,60,0,480
2,55,0,0
2,55,100,960
2,60,100,0
2,60,0,959
2,55,0,0
2,55,100,481
2,60,100,0
2,60,0,480
2,55,0,0
2,55,100,480
2,60,100,0
2,60,0,480
2,55,0,0
2,60,100,7680
2,60,0,1919
3,24,100,0
3,36,100,0
3,36,0,959
3,24,0,0
3,32,100,1
3,39,100,0
3,39,0,959
3,32,0,0
3,24,100,1
3,36,100,0
3,36,0,959
3,24,0,0
3,31,100,1
3,31,0,959
3,32,100,1
3,32,0,959
3,29,100,1
3,29,0,959
3,27,100,1
3,27,0,959
3,34,100,1
3,34,0,2399
3,24,100,10081
3,24,0,120
3,24,100,0
3,24,0,120
3,24,100,0
3,24,0,120
3,24,100,0
3,24,0,120
3,24,100,0
3,24,0,120
3,24,100,0
3,24,0,120
3,24,100,0
3,24,0,120
3,24,100,0
3,24,0,120
3,32,100,0
3,32,0,120
3,32,100,0
3,32,0,120
3,32,100,0
3,32,0,120
3,32,100,0
3,32,0,120
3,32,100,0
3,32,0,120
3,32,100,0
3,32,0,120
3,32,100,0
3,32,0,120
3,32,100,0
3,32,0,120
3,24,100,0
3,24,0,120
3,24,100,0
3,24,0,120
3,24,100,0
3,24,0,120
3,24,100,0
3,24,0,120
3,24,100,0
3,24,0,120
3,24,100,0
3,24,0,120
3,24,100,0
3,24,0,120
3,24,100,0
3,24,0,120
3,31,100,0
3,31,0,120
3,31,100,0
3,31,0,120
3,31,100,0
3,31,0,120
3,31,100,0
3,31,0,120
3,31,100,0
3,31,0,120
3,31,100,0
3,31,0,120
3,31,100,0
3,31,0,120
3,31,100,0
3,31,0,60
3,32,100,0
3,32,0,60
3,32,100,0
3,32,0,120
3,32,100,0
3,32,0,120
3,32,100,0
3,32,0,120
3,32,100,0
3,32,0,120
3,32,100,0
3,32,0,120
3,32,100,0
3,32,0,120
3,32,100,0
3,32,0,120
3,32,100,0
3,32,0,120
3,29,100,0
3,29,0,120
3,29,100,0
3,29,0,120
3,29,100,0
3,29,0,120
3,29,100,0
3,29,0,120
3,29,100,0
3,29,0,120
3,29,100,0
3,29,0,120
3,29,100,0
3,29,0,120
3,29,100,0
3,29,0,120
3,27,100,0
3,27,0,120
3,27,100,0
3,27,0,120
3,27,100,0
3,27,0,120
3,27,100,0
3,27,0,120
3,27,100,0
3,27,0,120
3,27,100,0
3,27,0,120
3,27,100,0
3,27,0,120
3,27,100,0
3,27,0,120
3,34,100,0
3,34,0,120
3,34,100,0
3,34,0,120
3,34,100,0
3,34,0,120
3,34,100,0
3,34,0,120
3,34,100,0
3,34,0,120
3,34,100,0
3,34,0,120
3,34,100,0
3,34,0,120
3,34,100,0
3,34,0,120
3,24,100,11520
3,24,0,120
3,24,100,0
3,24,0,120
3,24,100,0
3,24,0,120
3,24,100,0
3,24,0,120
3,24,100,0
3,24,0,120
3,24,100,0
3,24,0,120
3,24,100,0
3,24,0,120
3,24,100,0
3,24,0,120
3,32,100,0
3,32,0,120
3,32,100,0
3,32,0,120
3,32,100,0
3,32,0,120
3,32,100,0
3,32,0,120
3,32,100,0
3,32,0,120
3,32,100,0
3,32,0,120
3,32,100,0
3,32,0,120
3,32,100,0
3,32,0,120
3,24,100,0
3,24,0,120
3,24,100,0
3,24,0,120
3,24,100,0
3,24,0,120
3,24,100,0
3,24,0,120
3,24,100,0
3,24,0,120
3,24,100,0
3,24,0,120
3,24,100,0
3,24,0,120
3,24,100,0
3,24,0,120
3,31,100,0
3,31,0,120
3,31,100,0
3,31,0,120
3,31,100,0
3,31,0,120
3,31,100,0
3,31,0,120
3,31,100,0
3,31,0,120
3,31,100,0
3,31,0,120
3,31,100,0
3,31,0,120
3,31,100,0
3,31,0,60
3,32,100,0
3,32,0,60
3,32,100,0
3,32,0,120
3,32,100,0
3,32,0,120
3,32,100,0
3,32,0,120
3,32,100,0
3,32,0,120
3,32,100,0
3,32,0,120
3,32,100,0
3,32,0,120
3,32,100,0
3,32,0,120
3,32,100,0
3,32,0,120
3,29,100,0
3,29,0,120
3,29,100,0
3,29,0,120
3,29,100,0
3,29,0,120
3,29,100,0
3,29,0,120
3,29,100,0
3,29,0,120
3,29,100,0
3,29,0,120
3,29,100,0
3,29,0,120
3,29,100,0
3,29,0,120
3,27,100,0
3,27,0,120
3,27,100,0
3,27,0,120
3,27,100,0
3,27,0,120
3,27,100,0
3,27,0,120
3,27,100,0
3,27,0,120
3,27,100,0
3,27,0,120
3,27,100,0
3,27,0,120
3,27,100,0
3,27,0,120
3,34,100,0
3,34,0,120
3,34,100,0
3,34,0,120
3,34,100,0
3,34,0,120
3,34,100,0
3,34,0,120
3,34,100,0
3,34,0,120
3,34,100,0
3,34,0,120
3,34,100,0
3,34,0,120
3,34,100,0
3,34,0,120
3,24,100,10560
3,24,0,120
3,24,100,0
3,24,0,120
3,24,100,0
3,24,0,120
3,24,100,0
3,24,0,120
3,24,100,0
3,24,0,120
3,24,100,0
3,24,0,120
3,24,100,0
3,24,0,120
3,24,100,0
3,24,0,120
3,32,100,0
3,32,0,120
3,32,100,0
3,32,0,120
3,32,100,0
3,32,0,120
3,32,100,0
3,32,0,120
3,32,100,0
3,32,0,120
3,32,100,0
3,32,0,120
3,32,100,0
3,32,0,120
3,32,100,0
3,32,0,120
3,24,100,0
3,24,0,120
3,24,100,0
3,24,0,120
