track,note,velocity,time
0,48,89,911
0,45,96,187
0,43,95,187
0,64,64,169
0,59,42,8
0,52,83,4
0,52,87,4
0,28,103,2
0,57,74,0
0,36,107,0
0,28,123,0
0,52,67,55
0,52,85,29
0,28,80,6
0,92,81,8
0,90,87,0
0,52,67,29
0,28,84,6
0,52,85,43
0,95,88,2
0,90,87,0
0,28,101,4
0,42,89,0
0,28,121,0
0,52,67,31
0,52,85,45
0,28,78,6
0,92,76,0
0,90,87,2
0,52,67,47
0,28,80,6
0,52,85,33
0,28,98,6
0,28,118,0
0,52,65,55
0,52,85,55
0,28,78,6
0,92,74,6
0,90,87,0
0,52,67,31
0,28,84,6
0,52,87,33
0,28,101,6
0,42,82,0
0,38,115,0
0,28,121,0
0,90,87,2
0,95,87,2
0,52,67,33
0,52,87,49
0,56,64,2
0,90,80,2
0,88,84,0
0,28,82,2
0,52,67,33
0,32,84,6
0,57,80,0
0,57,63,37
0,52,87,15
0,33,98,6
0,36,108,0
0,33,118,0
0,52,67,55
0,52,87,39
0,33,78,6
0,93,87,2
0,90,87,0
0,52,67,35
0,33,84,6
0,52,87,45
0,95,88,2
0,90,87,0
0,33,87,4
0,42,86,0
0,33,107,0
0,52,67,37
0,52,85,35
0,90,87,2
0,93,87,2
0,35,96,2
0,35,116,0
0,52,67,39
0,52,87,55
0,52,67,55
0,52,87,33
0,90,87,2
0,93,87,2
0,35,96,2
0,35,116,0
0,52,65,43
0,56,74,6
0,52,87,17
0,35,84,6
0,42,79,0
0,38,114,0
0,35,89,0
0,90,87,0
0,95,87,2
0,52,65,33
0,35,96,6
0,36,105,0
0,35,116,0
0,52,85,55
0,90,82,6
0,93,87,2
0,56,57,9
0,52,67,16
0,54,66,6
0,52,82,0
0,54,61,17
0,52,83,4
0,28,103,6
0,36,108,0
0,28,123,0
0,52,67,55
0,52,85,29
0,28,80,6
0,92,81,8
0,90,87,0
0,52,67,29
0,28,84,6
0,52,85,43
0,95,88,2
0,90,87,0
0,28,101,4
0,42,88,0
0,28,121,0
0,52,67,31
0,52,85,45
0,28,78,6
0,92,76,0
0,90,87,2
0,52,67,47
0,28,80,6
0,52,58,5
0,52,85,16
0,28,98,6
0,28,118,0
0,52,65,55
0,52,85,55
0,28,78,6
0,92,74,6
0,90,87,0
0,52,67,31
0,28,84,6
0,56,74,0
0,52,87,33
0,28,101,6
0,42,81,0
0,38,115,0
0,28,121,0
0,90,87,2
0,95,87,2
0,52,67,33
0,52,87,49
0,90,80,4
0,88,84,0
0,28,82,2
0,56,59,8
0,52,67,27
0,32,84,5
0,57,83,0
0,57,63,11
0,52,87,4
0,33,98,6
0,36,107,0
0,33,118,0
0,52,67,55
0,52,87,39
0,33,78,6
0,93,87,2
0,90,87,0
0,52,67,35
0,33,84,6
0,52,87,45
0,95,88,2
0,90,87,0
0,33,87,4
0,42,89,0
0,33,107,0
0,52,67,11
0,54,76,6
0,52,85,35
0,90,87,2
0,93,87,2
0,35,96,2
0,35,116,0
0,52,67,39
0,52,87,55
0,69,84,37
0,52,67,18
0,52,87,33
0,90,87,2
0,93,87,2
0,35,96,2
0,35,116,0
0,52,65,43
0,52,87,17
0,35,84,6
0,42,82,0
0,38,115,0
0,35,89,0
0,90,87,0
0,95,87,2
0,52,65,33
0,76,76,0
0,35,96,6
0,35,116,0
0,77,80,1
0,79,83,33
0,52,85,7
0,90,82,6
0,93,87,2
0,81,85,12
0,83,87,5
0,84,89,13
0,86,90,19
0,52,67,5
0,88,92,1
0,89,93,1
0,91,95,1
0,93,96,5
0,64,66,15
0,59,50,6
0,95,98,1
0,52,83,2
0,52,91,4
0,28,103,2
0,57,53,0
0,36,107,0
0,28,123,0
0,52,67,55
0,52,85,29
0,28,80,6
0,92,81,8
0,90,87,0
0,52,67,29
0,28,84,6
0,52,85,43
0,95,88,2
0,90,87,0
0,28,101,4
0,42,89,0
0,28,121,0
0,68,82,4
0,52,67,31
0,69,87,40
0,52,85,45
0,28,78,6
0,92,76,0
0,90,87,2
0,71,91,13
0,52,67,23
0,28,80,6
0,71,94,19
0,52,85,6
0,28,98,6
0,28,118,0
0,52,65,55
0,52,85,55
0,28,78,6
0,92,74,6
0,90,87,0
0,52,67,31
0,28,84,6
0,52,87,33
0,28,101,6
0,42,82,0
0,38,115,0
0,28,121,0
0,90,87,2
0,95,87,2
0,52,67,33
0,68,72,45
0,52,87,4
0,83,72,4
0,90,80,0
0,88,84,0
0,28,82,2
0,52,67,33
0,32,84,6
0,57,84,0
0,69,64,9
0,52,87,6
0,33,98,6
0,36,108,0
0,33,118,0
0,52,67,55
0,52,87,39
0,33,78,6
0,93,87,2
0,90,87,0
0,52,67,35
0,33,84,6
0,52,87,45
0,95,88,2
0,90,87,0
0,33,87,4
0,42,86,0
0,33,107,0
0,52,67,37
0,52,85,35
0,90,87,2
0,47,91,2
0,93,87,0
0,35,96,2
0,35,116,0
0,52,67,39
0,52,87,55
0,52,67,55
0,52,87,33
0,90,87,2
0,93,87,2
0,35,96,2
0,35,116,0
0,69,87,8
0,52,65,43
0,56,78,6
0,52,87,17
0,35,84,6
0,42,79,0
0,38,114,0
0,35,89,0
0,90,87,0
0,95,87,2
0,52,65,33
0,35,96,6
0,36,105,0
0,35,116,0
0,68,87,3
0,68,64,29
0,52,85,8
0,90,82,6
0,93,87,2
0,52,67,39
0,54,70,6
0,52,86,0
0,66,62,1
0,52,83,8
0,28,103,6
0,36,108,0
0,28,123,0
0,66,87,2
0,52,67,55
0,52,85,29
0,28,80,6
0,92,81,8
0,90,87,0
0,52,67,29
0,28,84,6
0,52,85,43
0,95,88,2
0,90,87,0
0,28,101,4
0,42,88,0
0,28,121,0
0,52,67,31
0,52,85,45
0,28,78,6
0,92,76,0
0,90,87,2
0,52,67,47
0,28,80,6
0,64,63,21
0,52,85,12
0,28,98,6
0,28,118,0
0,64,73,8
0,52,65,55
0,52,85,55
0,28,78,6
0,92,74,6
0,90,87,0
0,52,67,31
0,28,84,6
0,56,78,0
0,52,87,33
0,28,101,6
0,42,81,0
0,38,115,0
0,28,121,0
0,90,87,2
0,95,87,2
0,52,67,33
0,68,65,37
0,52,87,12
0,90,80,4
0,88,84,0
0,28,82,2
0,52,67,33
0,32,84,5
0,57,87,0
0,69,62,1
0,52,87,14
0,33,98,6
0,36,107,0
0,33,118,0
0,52,67,55
0,52,87,39
0,33,78,6
0,93,87,2
0,90,87,0
0,52,67,35
0,33,84,6
0,59,82,39
0,56,82,0
0,52,87,6
0,95,88,2
0,90,87,0
0,33,87,4
0,42,89,0
0,33,107,0
0,52,67,11
0,54,80,6
0,61,75,33
0,57,75,0
0,52,85,2
0,90,87,2
0,47,91,2
0,47,75,0
0,93,87,0
0,35,96,2
0,35,116,0
0,50,85,15
0,45,85,0
0,48,94,39
0,43,97,0
0,64,56,7
0,59,37,6
0,54,66,4
0,28,103,1
0,57,74,0
0,36,107,0
0,28,123,0
0,28,80,7
0,64,87,0
0,28,84,15
0,64,62,0
0,28,101,23
0,42,89,0
0,28,121,0
0,66,87,0
0,68,103,4
0,66,76,39
0,71,112,23
0,28,78,7
0,64,80,0
0,28,80,39
0,64,73,0
0,71,112,23
0,52,70,0
0,28,98,2
0,28,118,0
0,66,66,0
0,28,78,63
0,64,87,0
0,28,84,79
0,64,66,0
0,28,101,39
0,42,82,0
0,38,115,0
0,28,121,0
0,66,89,0
0,71,112,5
0,66,78,59
0,28,82,55
0,64,67,0
0,71,112,10
0,32,84,39
0,61,64,0
0,64,58,0
0,33,98,5
0,36,108,0
0,33,118,0
0,57,60,0
0,73,98,5
0,33,78,45
0,64,87,0
0,71,112,14
0,33,84,73
0,64,62,0
0,33,87,51
0,42,86,0
0,33,107,0
0,66,87,0
0,66,76,57
0,35,96,41
0,35,116,0
0,64,80,0
0,71,112,8
0,59,62,65
0,64,73,0
0,66,66,55
0,35,96,39
0,35,116,0
0,64,87,0
0,35,85,39
0,64,66,0
0,37,84,23
0,42,79,0
0,38,114,0
0,35,89,0
0,66,89,0
0,35,96,23
0,36,105,0
0,35,116,0
0,66,78,0
0,64,67,55
0,28,103,39
0,36,108,0
0,28,123,0
0,28,80,35
0,64,87,0
0,28,84,71
0,64,62,0
0,28,101,49
0,42,88,0
0,28,121,0
0,66,87,0
0,68,95,15
0,66,76,61
0,28,78,17
0,64,80,0
0,71,112,2
0,28,80,65
0,64,73,0
0,71,112,35
0,28,98,4
0,28,118,0
0,66,66,0
0,28,78,63
0,64,87,0
0,28,84,79
0,64,66,0
0,28,101,39
0,71,112,0
0,42,81,0
0,38,115,0
0,28,121,0
0,66,89,0
0,66,78,59
0,71,112,51
0,28,82,4
0,64,67,0
0,32,84,39
0,61,59,0
0,64,58,0
0,73,93,11
0,33,98,10
0,36,107,0
0,33,118,0
0,57,60,0
0,33,78,45
0,64,87,0
0,76,112,6
0,33,84,1
0,64,62,0
0,33,87,51
0,42,89,0
0,33,107,0
0,66,87,0
0,76,112,7
0,66,76,61
0,78,97,37
0,35,96,4
0,35,116,0
0,64,80,0
0,59,63,3
0,64,73,0
0,66,66,55
0,35,96,39
0,35,116,0
0,64,87,0
0,35,85,39
0,64,66,0
0,37,84,23
0,42,82,0
0,38,115,0
0,35,89,0
0,66,89,0
0,35,96,23
0,35,116,0
0,66,78,0
0,64,67,55
0,28,103,39
0,36,107,0
0,28,123,0
0,28,80,35
0,64,87,0
0,28,84,71
0,64,62,0
0,28,101,49
0,42,89,0
0,28,121,0
0,66,87,0
0,68,106,1
0,66,76,61
0,28,78,51
0,71,112,0
0,64,80,0
0,28,80,65
0,64,73,0
0,28,98,39
0,28,118,0
0,66,66,0
0,76,112,1
0,28,78,63
0,64,87,0
0,28,84,79
0,64,66,0
0,80,101,21
0,28,101,7
0,42,82,0
0,38,115,0
0,28,121,0
0,66,89,0
0,66,78,59
0,28,82,55
0,81,112,0
0,64,67,0
0,32,84,17
0,61,58,0
0,64,58,0
0,33,98,21
0,36,108,0
0,33,118,0
0,57,60,0
0,80,110,39
0,33,78,3
0,64,87,0
0,33,84,79
0,64,62,0
0,33,87,51
0,42,86,0
0,33,107,0
0,66,87,0
0,66,76,61
0,78,103,33
0,35,96,8
0,35,116,0
0,64,80,0
0,59,64,65
0,64,73,0
0,66,66,31
0,35,96,39
0,76,112,0
0,35,116,0
0,64,87,0
0,35,85,39
0,64,66,0
0,37,84,23
0,42,79,0
0,38,114,0
0,35,89,0
0,66,89,0
0,35,96,23
0,36,105,0
0,35,116,0
0,66,78,0
0,80,96,55
0,64,67,0
0,54,60,51
0,28,103,39
0,36,108,0
0,28,123,0
0,28,80,35
0,64,87,0
0,28,84,71
0,64,62,0
0,28,101,49
0,42,88,0
0,28,121,0
0,66,87,0
0,66,76,61
0,28,78,51
0,64,80,0
0,28,80,65
0,64,73,0
0,28,98,39
0,28,118,0
0,66,66,0
0,28,78,59
0,64,87,0
0,28,84,79
0,64,66,0
0,28,101,39
0,42,81,0
0,38,115,0
0,28,121,0
0,66,89,0
0,66,78,59
0,28,82,55
0,64,67,0
0,32,84,39
0,64,58,0
0,33,98,21
0,36,107,0
0,33,118,0
0,57,60,0
0,33,78,45
0,64,87,0
0,33,84,79
0,64,62,0
0,59,82,39
0,56,82,0
0,33,87,12
0,42,89,0
0,33,107,0
0,66,87,0
0,66,76,61
0,61,75,33
0,57,75,0
0,47,75,6
0,35,96,2
0,35,116,0
0,64,80,0
0,64,73,3
0,66,66,55
0,35,96,11
0,48,89,0
0,45,89,0
0,64,87,0
0,35,85,11
0,64,66,0
0,37,84,39
0,42,79,0
0,38,115,0
0,66,89,0
0,35,96,3
0,66,78,0
0,36,104,4
0,64,67,29
0,45,85,2
0,41,85,0
0,52,44,5
0,66,45,31
0,64,56,1
0,59,41,2
0,28,103,4
0,36,107,0
0,28,123,0
0,64,91,3
0,28,80,23
0,71,91,0
0,64,87,0
0,28,84,7
0,64,62,0
0,59,78,5
0,28,101,2
0,42,89,0
0,76,88,0
0,28,121,0
0,66,87,0
0,68,103,3
0,66,76,39
0,71,112,15
0,28,78,7
0,64,80,0
0,83,95,14
0,28,80,15
0,64,73,0
0,64,60,23
0,71,112,5
0,28,98,2
0,28,118,0
0,66,66,0
0,28,78,63
0,64,87,0
0,28,84,79
0,64,66,0
0,28,101,39
0,42,82,0
0,38,115,0
0,28,121,0
0,66,89,0
0,71,112,5
0,66,78,59
0,68,54,39
0,28,82,16
0,64,67,0
0,71,112,10
0,32,84,39
0,64,58,0
0,69,59,5
0,33,98,5
0,36,108,0
0,33,118,0
0,57,60,0
0,73,98,5
0,33,78,45
0,64,87,0
0,71,112,14
0,33,84,73
0,64,62,0
0,33,87,51
0,42,86,0
0,33,107,0
0,66,87,0
0,66,76,57
0,35,96,41
0,35,116,0
0,64,80,0
0,71,112,8
0,64,73,65
0,66,66,55
0,35,96,39
0,35,116,0
0,64,87,0
0,35,85,39
0,64,66,0
0,68,64,7
0,37,84,16
0,42,79,0
0,38,114,0
0,35,89,0
0,66,89,0
0,35,96,23
0,36,105,0
0,35,116,0
0,66,78,0
0,64,67,11
0,66,57,23
0,28,103,16
0,36,108,0
0,28,123,0
0,64,91,7
0,28,80,35
0,59,72,0
0,71,91,0
0,64,87,0
0,28,84,7
0,64,62,0
0,28,101,7
0,42,88,0
0,76,88,0
0,28,121,0
0,66,87,0
0,68,95,15
0,66,76,61
0,28,78,17
0,64,80,0
0,71,112,2
0,83,95,12
0,28,80,65
0,64,73,0
0,64,58,9
0,71,112,3
0,28,98,4
0,28,118,0
0,66,66,0
0,28,78,63
0,64,87,0
0,28,84,7
0,64,66,0
0,28,101,39
0,71,112,0
0,42,81,0
0,38,115,0
0,28,121,0
0,66,89,0
0,66,78,59
0,73,107,23
0,68,57,0
0,28,82,16
0,64,67,0
0,32,84,39
0,64,58,0
0,33,98,21
0,36,107,0
0,33,118,0
0,57,60,0
0,69,60,7
0,33,78,45
0,64,87,0
0,76,112,6
0,33,84,1
0,64,62,0
0,33,87,51
0,42,89,0
0,33,107,0
0,66,87,0
0,76,112,7
0,66,76,61
0,78,97,37
0,35,96,4
0,35,116,0
0,64,80,0
0,64,73,65
0,66,66,55
0,35,96,39
0,35,116,0
0,64,87,0
0,35,85,11
0,64,66,0
0,68,61,7
0,37,84,16
0,42,82,0
0,38,115,0
0,35,89,0
0,66,89,0
0,35,96,23
0,35,116,0
0,66,78,0
0,64,67,55
0,66,58,23
0,28,103,16
0,36,107,0
0,28,123,0
0,64,91,7
0,59,62,33
0,28,80,2
0,71,91,0
0,64,87,0
0,28,84,7
0,64,62,0
0,28,101,7
0,42,89,0
0,76,88,0
0,28,121,0
0,66,87,0
0,68,106,1
0,66,76,61
0,28,78,23
0,71,112,0
0,64,80,0
0,83,95,14
0,28,80,65
0,64,73,0
0,28,98,7
0,28,118,0
0,66,66,0
0,76,112,10
0,28,78,23
0,80,101,0
0,64,87,0
0,28,84,79
0,64,66,0
0,28,101,39
0,42,82,0
0,38,115,0
0,28,121,0
0,66,89,0
0,66,78,59
0,28,82,55
0,81,112,0
0,64,67,0
0,32,84,39
0,64,58,0
0,33,98,21
0,36,108,0
0,33,118,0
0,57,60,0
0,80,110,39
0,33,78,6
0,64,87,0
0,33,84,79
0,64,62,0
0,33,87,51
0,42,86,0
0,33,120,0
0,66,87,0
0,63,70,61
0,56,71,0
0,66,76,0
0,78,103,33
0,69,53,0
0,36,96,8
0,36,116,0
0,63,80,0
0,63,73,65
0,63,66,55
0,80,115,35
0,36,96,4
0,63,87,0
0,36,85,39
0,63,66,0
0,68,55,31
0,36,84,8
0,42,79,0
0,38,114,0
0,36,104,0
0,63,89,0
0,36,105,9
0,63,78,0
0,76,112,25
0,36,96,23
0,63,67,0
0,64,87,37
0,36,85,2
0,63,58,0
0,37,103,39
0,36,108,0
0,37,123,0
0,64,84,0
0,68,82,1
0,64,82,0
0,37,80,35
0,64,87,0
0,37,84,47
0,64,62,0
