track,note,velocity,time
3,64,100,2400
3,64,0,120
3,64,100,0
3,64,0,60
3,64,100,0
3,64,0,60
3,67,100,0
3,67,0,180
3,59,100,0
3,59,0,60
3,60,100,0
3,60,0,480
3,64,100,60
3,64,0,60
3,64,100,0
3,64,0,60
3,64,100,0
3,64,0,60
3,67,100,0
3,67,0,120
3,58,100,0
3,58,0,60
3,58,100,0
3,58,0,60
3,58,100,0
3,58,0,60
3,57,100,0
3,57,0,60
3,58,100,0
3,58,0,60
3,57,100,0
3,57,0,240
3,65,100,60
3,65,0,60
3,64,100,0
3,64,0,60
3,65,100,0
3,65,0,60
3,69,100,0
3,69,0,180
3,65,100,0
3,65,0,60
3,64,100,0
3,64,0,60
3,64,100,0
3,64,0,60
3,62,100,0
3,62,0,60
3,64,100,0
3,64,0,60
3,65,100,0
3,65,0,180
3,60,100,0
3,60,0,60
3,60,100,0
3,60,0,60
3,60,100,0
3,60,0,60
3,62,100,0
3,62,0,60
3,60,100,0
3,60,0,60
3,59,100,0
3,59,0,240
3,64,100,540
3,64,0,60
3,64,100,0
3,64,0,60
3,64,100,0
3,64,0,120
3,67,100,120
3,67,0,60
3,59,100,0
3,59,0,60
3,60,100,0
3,60,0,240
3,64,100,240
3,64,0,60
3,64,100,0
3,64,0,60
3,64,100,0
3,64,0,60
3,67,100,0
3,67,0,180
3,58,100,0
3,58,0,60
3,58,100,0
3,58,0,60
3,58,100,0
3,58,0,120
3,57,100,0
3,57,0,60
3,58,100,0
3,58,0,60
3,57,100,0
3,57,0,240
3,65,100,0
3,65,0,60
3,64,100,0
3,64,0,60
3,65,100,0
3,65,0,60
3,69,100,0
3,69,0,180
3,65,100,0
3,65,0,60
3,64,100,0
3,64,0,60
3,64,100,0
3,64,0,60
3,62,100,0
3,62,0,120
3,64,100,0
3,64,0,60
3,65,100,0
3,65,0,180
3,69,100,0
3,69,0,60
3,69,100,0
3,69,0,120
3,71,100,0
3,71,0,60
3,69,100,0
3,69,0,60
3,67,100,0
3,67,0,240
3,71,100,480
3,71,0,90
3,71,100,0
3,71,0,90
3,71,100,0
3,71,0,60
3,71,100,0
3,71,0,120
3,64,100,0
3,64,0,60
3,71,100,0
3,71,0,60
3,71,100,0
3,71,0,120
3,72,100,0
3,72,0,360
3,71,100,0
3,71,0,120
3,71,100,0
3,71,0,60
3,71,100,0
3,71,0,60
3,71,100,0
3,71,0,60
3,64,100,0
3,64,0,120
3,71,100,0
3,71,0,60
3,64,100,0
3,72,100,0
3,72,0,480
3,64,0,0
3,71,100,0
3,71,0,120
3,71,100,0
3,71,0,60
3,71,100,0
3,71,0,60
3,71,100,0
3,71,0,120
3,64,100,0
3,64,0,60
3,71,100,0
3,71,0,60
3,71,100,0
3,71,0,120
3,72,100,0
3,72,0,360
3,65,100,0
3,65,0,90
3,64,100,0
3,64,0,90
3,65,100,0
3,65,0,60
3,67,100,0
3,67,0,180
3,64,100,0
3,64,0,60
3,62,100,0
3,62,0,180
3,62,100,0
3,62,0,60
3,64,100,0
3,64,0,120
3,67,100,0
3,67,0,120
3,60,100,0
3,60,0,120
3,62,100,540
3,62,0,60
3,64,100,0
3,64,0,120
3,67,100,0
3,67,0,120
3,60,100,0
3,60,0,120
3,64,100,4680
3,64,0,120
3,64,100,0
3,64,0,120
3,64,100,0
3,64,0,120
3,67,100,0
3,67,0,60
3,59,100,0
3,59,0,60
3,60,100,0
3,60,0,240
3,64,100,240
3,64,0,60
3,64,100,0
3,64,0,60
3,64,100,0
3,64,0,60
3,67,100,0
3,67,0,180
3,58,100,0
3,58,0,60
3,58,100,0
3,58,0,60
3,58,100,0
3,58,0,120
3,57,100,0
3,57,0,60
3,58,100,0
3,58,0,60
3,57,100,0
3,57,0,240
3,65,100,0
3,65,0,60
3,64,100,0
3,64,0,60
3,65,100,0
3,65,0,60
3,69,100,0
3,69,0,180
3,65,100,0
3,65,0,60
3,64,100,0
3,64,0,60
3,64,100,0
3,64,0,60
3,62,100,0
3,62,0,120
3,64,100,0
3,64,0,60
3,65,100,0
3,65,0,180
3,69,100,0
3,69,0,60
3,69,100,0
3,69,0,120
3,71,100,0
3,71,0,60
3,69,100,0
3,69,0,60
3,67,100,0
3,67,0,240
3,71,100,480
3,71,0,90
3,71,100,0
3,71,0,90
3,71,100,0
3,71,0,60
3,71,100,0
3,71,0,120
3,64,100,0
3,64,0,60
3,71,100,0
3,71,0,60
3,71,100,0
3,71,0,120
3,72,100,0
3,72,0,360
3,71,100,0
3,71,0,120
3,71,100,0
3,71,0,60
3,71,100,0
3,71,0,60
3,71,100,0
3,71,0,60
3,64,100,0
3,64,0,120
3,71,100,0
3,71,0,60
3,64,100,0
3,72,100,0
3,72,0,480
3,64,0,0
3,71,100,0
3,71,0,120
3,71,100,0
3,71,0,60
3,71,100,0
3,71,0,60
3,71,100,0
3,71,0,120
3,64,100,0
3,64,0,60
3,71,100,0
3,71,0,60
3,71,100,0
3,71,0,120
3,72,100,0
3,72,0,360
3,65,100,0
3,65,0,90
3,64,100,0
3,64,0,90
3,65,100,0
3,65,0,60
3,67,100,0
3,67,0,180
3,64,100,0
3,64,0,60
3,62,100,0
3,62,0,180
3,62,100,0
3,62,0,60
3,64,100,0
3,64,0,120
3,67,100,0
3,67,0,120
3,60,100,0
3,60,0,120
3,62,100,540
3,62,0,60
3,64,100,0
3,64,0,120
3,67,100,0
3,67,0,120
3,60,100,0
3,60,0,120
3,62,100,540
3,62,0,60
3,64,100,0
3,64,0,120
3,67,100,0
3,67,0,120
3,60,100,0
3,60,0,480
4,64,100,480
4,72,100,0
4,72,0,240
4,67,100,0
4,67,0,240
4,64,0,0
4,65,100,0
4,69,100,0
4,69,0,120
4,71,100,0
4,71,0,60
4,72,100,0
4,72,0,60
4,65,0,0
4,67,100,0
4,74,100,0
4,74,0,240
4,67,0,0
4,64,100,0
4,72,100,0
4,72,0,240
4,67,100,0
4,67,0,240
4,64,0,0
4,65,100,0
4,69,100,0
4,69,0,120
4,71,100,0
4,71,0,60
4,72,100,0
4,72,0,60
4,65,0,0
4,67,100,0
4,74,100,0
4,74,0,240
4,67,0,0
4,57,100,2880
4,57,0,180
4,62,100,0
4,62,0,240
4,65,100,60
4,72,100,0
4,72,0,120
4,65,0,0
4,69,100,0
4,69,0,60
4,65,100,0
4,65,0,60
4,62,100,0
4,71,100,0
4,71,0,120
4,62,0,0
4,67,100,0
4,67,0,60
4,62,100,0
4,62,0,60
4,60,100,0
4,60,0,60
4,67,100,0
4,67,0,60
4,72,100,0
4,72,0,60
4,67,100,0
4,67,0,60
4,60,100,0
4,60,0,60
4,67,100,0
4,67,0,60
4,71,100,0
4,71,0,60
4,67,100,0
4,67,0,60
4,60,100,0
4,60,0,60
4,67,100,0
4,67,0,60
4,72,100,0
4,72,0,60
4,67,100,0
4,67,0,60
4,60,100,0
4,60,0,60
4,67,100,0
4,60,100,60
4,60,0,60
4,62,100,0
4,62,0,60
4,67,0,0
4,60,100,0
4,60,0,60
4,67,100,0
4,67,0,60
4,72,100,0
4,72,0,60
4,67,100,0
4,67,0,60
4,60,100,0
4,60,0,60
4,67,100,0
4,67,0,180
4,60,100,0
4,60,0,60
4,65,100,0
4,65,0,60
4,69,100,0
4,69,0,60
4,65,100,0
4,65,0,60
4,60,100,0
4,60,0,60
4,65,100,0
4,65,0,120
4,64,100,0
4,64,0,60
4,62,100,0
4,62,0,60
4,69,100,0
4,69,0,60
4,72,100,0
4,72,0,360
4,62,100,0
4,62,0,60
4,69,100,0
4,69,0,60
4,72,100,0
4,72,0,360
4,60,100,0
4,60,0,240
4,59,100,0
4,59,0,240
4,65,100,0
4,60,100,0
4,60,0,120
4,65,0,0
4,65,100,0
4,72,100,0
4,72,0,120
4,65,0,0
4,62,100,0
4,71,100,0
4,71,0,120
4,62,0,0
4,67,100,0
4,74,100,0
4,74,0,120
4,67,0,0
4,64,100,0
4,64,0,360
4,64,100,120
4,64,0,480
4,64,100,0
4,64,0,240
4,64,100,720
4,64,0,360
4,67,100,120
4,67,0,120
4,69,100,0
4,69,0,360
4,60,100,960
4,60,100,120
4,60,0,60
4,64,100,0
4,64,0,60
4,60,0,0
4,67,100,0
4,55,100,0
4,55,0,240
4,67,0,0
4,65,100,0
4,69,100,0
4,57,100,0
4,57,0,120
4,59,100,0
4,59,0,60
4,69,0,0
4,65,0,0
4,60,100,0
4,60,0,60
4,62,100,0
4,62,0,240
4,60,100,0
4,60,100,120
4,60,0,60
4,64,100,0
4,64,0,60
4,60,0,0
4,67,100,0
4,55,100,0
4,55,0,240
4,67,0,0
4,69,100,0
4,65,100,0
4,69,0,120
4,71,100,0
4,71,0,60
4,72,100,0
4,72,0,60
4,65,0,0
4,67,100,0
4,74,100,0
4,74,0,240
4,67,0,0
4,57,100,2880
4,57,0,180
4,62,100,0
4,62,0,240
4,65,100,60
4,72,100,0
4,72,0,120
4,65,0,0
4,69,100,0
4,69,0,60
4,65,100,0
4,65,0,60
4,62,100,0
4,71,100,0
4,71,0,120
4,62,0,0
4,67,100,0
4,67,0,60
4,62,100,0
4,62,0,60
4,60,100,0
4,60,0,60
4,67,100,0
4,67,0,60
4,72,100,0
4,72,0,60
4,67,100,0
4,67,0,60
4,60,100,0
4,60,0,60
4,67,100,0
4,67,0,60
4,71,100,0
4,71,0,60
4,67,100,0
4,67,0,60
4,60,100,0
4,60,0,60
4,67,100,0
4,67,0,60
4,72,100,0
4,72,0,60
4,67,100,0
4,67,0,60
4,60,100,0
4,60,0,60
4,67,100,0
4,60,100,60
4,60,0,60
4,62,100,0
4,62,0,60
4,67,0,0
4,60,100,0
4,60,0,60
4,67,100,0
4,67,0,60
4,72,100,0
4,72,0,60
4,67,100,0
4,67,0,60
4,60,100,0
4,60,0,60
4,67,100,0
4,67,0,180
4,60,100,0
4,60,0,60
4,65,100,0
4,65,0,60
4,69,100,0
4,69,0,60
4,65,100,0
4,65,0,60
4,60,100,0
4,60,0,60
4,65,100,0
4,65,0,120
4,64,100,0
4,64,0,60
4,62,100,0
4,62,0,60
4,69,100,0
4,69,0,60
4,72,100,0
4,72,0,360
4,62,100,0
4,62,0,60
4,69,100,0
4,69,0,60
4,72,100,0
4,72,0,360
4,60,100,0
4,60,0,240
4,59,100,0
4,59,0,240
4,65,100,0
4,60,100,0
4,60,0,120
4,65,0,0
4,65,100,0
4,72,100,0
4,72,0,120
4,65,0,0
4,62,100,0
4,71,100,0
4,71,0,120
4,62,0,0
4,67,100,0
4,74,100,0
4,74,0,120
4,67,0,0
4,64,100,0
4,64,0,360
4,64,100,120
4,64,0,480
4,64,100,0
4,64,0,240
4,64,100,720
4,64,0,360
4,67,100,120
4,67,0,120
4,69,100,0
4,69,0,360
4,60,100,960
4,60,100,120
4,60,0,60
4,64,100,0
4,64,0,60
4,60,0,0
4,67,100,0
4,55,100,0
4,55,0,240
4,67,0,0
4,65,100,0
4,69,100,0
4,57,100,0
4,57,0,120
4,59,100,0
4,59,0,60
4,69,0,0
4,65,0,0
4,60,100,0
4,60,0,60
4,62,100,0
4,62,0,240
4,60,100,0
4,60,100,120
4,60,0,60
4,64,100,0
4,64,0,60
4,60,0,0
4,67,100,0
4,55,100,0
4,55,0,240
4,67,0,0
4,69,100,0
4,65,100,0
4,69,0,120
4,71,100,0
4,71,0,60
4,72,100,0
4,72,0,60
4,65,0,0
4,67,100,0
4,74,100,0
4,74,0,240
4,67,0,0
4,60,100,0
4,60,0,480
5,48,100,480
5,48,100,0
5,48,0,60
5,55,100,0
5,55,0,60
5,60,100,0
5,60,0,240
5,48,0,120
5,48,100,0
5,48,100,0
5,48,0,60
5,57,100,0
5,57,0,60
5,60,100,0
5,60,0,120
5,59,100,0
5,59,0,240
5,48,0,0
5,48,100,0
5,48,100,0
5,48,0,60
5,55,100,0
5,55,0,60
5,60,100,0
5,60,0,240
5,48,0,120
5,48,100,0
5,48,100,0
5,48,0,60
5,57,100,0
5,57,0,60
5,60,100,0
5,60,0,120
5,59,100,0
5,59,0,240
5,48,0,0
5,48,100,0
5,55,100,0
5,55,0,240
5,59,100,0
5,59,0,240
5,48,0,0
5,55,100,0
5,52,100,0
5,48,100,240
5,48,0,240
5,52,0,0
5,55,0,0
5,48,100,0
5,55,100,0
5,55,0,240
5,58,100,0
5,58,0,120
5,48,0,120
5,53,100,0
5,53,0,180
5,48,100,0
5,48,0,60
5,53,100,0
5,53,0,120
5,52,100,0
5,52,0,120
5,50,100,0
5,50,100,0
5,50,0,60
5,57,100,0
5,57,0,60
5,60,100,0
5,60,0,360
5,50,0,0
5,50,100,0
5,50,100,0
5,50,0,60
5,57,100,0
5,57,0,60
5,60,100,0
5,60,0,240
5,50,0,120
5,43,100,0
5,43,100,0
5,43,0,60
5,50,100,0
5,50,0,60
5,55,100,0
5,55,0,240
5,50,100,0
5,50,0,120
5,43,0,0
5,43,100,0
5,43,100,0
5,43,0,60
5,50,100,0
5,50,0,60
5,55,100,0
5,55,0,240
5,50,100,0
5,50,0,120
5,43,0,0
5,48,100,0
5,48,0,240
5,48,100,0
5,48,0,240
5,48,100,0
5,48,0,240
5,48,100,0
5,48,0,240
5,48,100,0
5,48,0,240
5,48,100,0
5,48,0,240
5,53,100,0
5,53,0,180
5,48,100,0
5,48,0,60
5,53,100,0
5,53,0,120
5,52,100,0
5,52,0,120
5,50,100,0
5,50,0,480
5,50,100,0
5,50,0,480
5,43,100,0
5,43,100,0
5,43,0,60
5,50,100,0
5,50,0,60
5,55,100,0
5,55,0,240
5,50,100,0
5,50,0,120
5,43,0,0
5,43,100,0
5,43,100,0
5,43,0,60
5,50,100,0
5,50,0,60
5,57,100,0
5,57,0,360
5,43,0,0
5,56,100,0
5,62,100,0
5,52,100,240
5,52,0,240
5,62,0,0
5,56,0,0
5,57,100,0
5,60,100,0
5,60,0,240
5,57,0,0
5,52,100,0
5,52,0,60
5,57,100,0
5,57,0,60
5,60,100,0
5,60,0,120
5,56,100,0
5,62,100,0
5,52,100,240
5,52,0,240
5,62,0,0
5,56,0,0
5,57,100,0
5,60,100,0
5,60,0,240
5,57,0,0
5,52,100,0
5,52,0,60
5,57,100,0
5,57,0,60
5,60,100,0
5,60,0,120
5,56,100,0
5,62,100,0
5,52,100,240
5,52,0,240
5,62,0,0
5,56,0,0
5,53,100,0
5,60,100,0
5,60,0,480
5,53,0,0
5,50,100,0
5,60,100,0
5,60,0,240
5,50,0,0
5,62,100,0
5,52,100,0
5,52,0,240
5,62,0,0
5,55,100,0
5,59,100,0
5,59,0,480
5,55,0,0
5,48,100,0
5,48,100,0
5,48,0,60
5,55,100,0
5,55,0,360
5,48,0,60
5,48,100,0
5,48,100,0
5,48,0,60
5,57,100,0
5,57,0,60
5,60,100,0
5,60,0,120
5,59,100,0
5,59,0,240
5,48,0,0
5,48,100,0
5,48,100,0
5,48,0,60
5,55,100,0
5,55,0,360
5,48,0,60
5,48,100,0
5,48,100,0
5,48,0,60
5,57,100,0
5,57,0,60
5,60,100,0
5,60,0,120
5,59,100,0
5,59,0,240
5,48,0,0
5,48,100,0
5,55,100,0
5,55,0,240
5,59,100,0
5,59,0,240
5,48,0,0
5,55,100,0
5,52,100,0
5,48,100,240
5,48,0,240
5,52,0,0
5,55,0,0
5,48,100,0
5,55,100,0
5,55,0,240
5,58,100,0
5,58,0,120
5,48,0,120
5,53,100,0
5,53,0,180
5,48,100,0
5,48,0,60
5,53,100,0
5,53,0,120
5,52,100,0
5,52,0,120
5,50,100,0
5,50,100,0
5,50,0,60
5,57,100,0
5,57,0,60
5,60,100,0
5,60,0,360
5,50,0,0
5,50,100,0
5,50,100,0
5,50,0,60
5,57,100,0
5,57,0,60
5,60,100,0
5,60,0,240
5,50,0,120
5,43,100,0
5,43,100,0
5,43,0,60
5,50,100,0
5,50,0,60
5,55,100,0
5,55,0,240
5,50,100,0
5,50,0,120
5,43,0,0
5,43,100,0
5,43,100,0
5,43,0,60
5,50,100,0
