track,note,velocity,time
1,78,90,12120
1,78,90,0
1,78,90,0
1,82,90,0
1,82,90,0
1,80,90,0
1,78,90,0
1,78,90,0
1,73,90,600
1,73,90,0
1,73,90,0
1,82,90,0
1,82,90,0
1,80,90,0
1,82,90,0
1,78,90,0
1,80,90,1200
1,80,90,0
1,80,90,0
1,80,90,0
1,80,90,0
1,75,90,0
1,73,90,0
1,71,90,0
1,75,90,0
1,78,90,0
1,75,90,0
1,73,90,0
1,68,90,0
1,70,90,0
1,78,90,600
1,78,90,0
1,82,90,0
1,82,90,360
1,80,90,0
1,78,90,0
1,73,90,480
1,73,90,0
1,82,90,0
1,80,90,360
1,82,90,0
1,83,90,0
1,85,90,0
1,82,90,0
1,80,90,0
1,80,90,0
1,78,90,0
1,80,90,0
1,80,90,0
1,80,90,0
1,75,90,0
1,73,90,0
1,78,90,480
1,80,90,0
1,82,90,0
1,80,90,0
1,78,90,0
1,78,90,0
1,80,90,0
1,80,90,0
1,78,90,0
1,78,90,0
1,80,90,0
1,82,90,0
1,82,90,0
1,80,90,0
1,73,90,1200
1,75,90,0
1,78,90,0
1,75,90,0
1,80,90,720
1,80,90,0
1,80,90,0
1,80,90,0
1,80,90,0
1,85,90,0
1,82,90,0
1,73,90,600
1,73,90,0
1,82,90,0
1,80,90,0
1,78,90,0
1,80,90,0
1,75,90,0
1,82,90,600
1,82,90,0
1,78,90,0
1,75,90,0
1,82,90,240
1,80,90,0
1,78,90,0
1,73,90,0
1,73,90,0
1,73,90,0
1,73,90,0
1,82,90,0
1,82,90,0
1,80,90,0
1,78,90,0
1,78,90,0
1,73,90,600
1,73,90,0
1,73,90,0
1,82,90,0
1,82,90,0
1,80,90,0
1,82,90,0
1,78,90,0
1,80,90,720
1,80,90,0
1,80,90,0
1,80,90,0
1,80,90,0
1,75,90,0
1,73,90,0
1,71,90,0
1,73,90,0
1,75,90,0
1,78,90,0
1,75,90,0
1,73,90,0
1,68,90,0
1,70,90,0
1,78,90,600
1,78,90,0
1,82,90,0
1,82,90,360
1,80,90,0
1,78,90,0
1,73,90,480
1,73,90,0
1,82,90,0
1,80,90,360
1,82,90,0
1,83,90,0
1,85,90,0
1,82,90,0
1,80,90,0
1,80,90,0
1,78,90,0
1,80,90,0
1,80,90,0
1,80,90,0
1,75,90,0
1,73,90,0
1,78,90,480
1,80,90,0
1,82,90,0
1,80,90,0
1,78,90,0
1,78,90,0
1,80,90,0
1,80,90,0
1,78,90,0
1,78,90,0
1,78,90,0
1,73,90,0
1,78,90,0
1,80,90,0
1,82,90,0
1,82,90,0
1,80,90,0
1,73,90,1200
1,75,90,0
1,78,90,0
1,75,90,0
1,80,90,720
1,80,90,0
1,80,90,0
1,80,90,0
1,80,90,0
1,85,90,0
1,82,90,0
1,73,90,600
1,73,90,0
1,82,90,0
1,80,90,0
1,78,90,0
1,80,90,0
1,75,90,0
1,82,90,480
1,82,90,0
1,78,90,0
1,75,90,0
1,82,90,240
1,80,90,0
1,78,90,0
1,80,90,0
1,78,90,0
1,77,90,0
1,75,90,0
1,75,90,720
1,80,90,0
1,78,90,0
1,77,90,0
1,75,90,0
1,77,90,0
1,75,90,0
1,75,90,480
1,80,90,0
1,78,90,0
1,77,90,0
1,75,90,0
1,75,90,480
1,80,90,0
1,78,90,0
1,77,90,0
1,75,90,0
1,78,90,10560
1,78,90,0
1,78,90,0
1,78,90,0
1,76,90,0
1,78,90,0
1,76,90,120
1,81,90,0
1,78,90,0
1,78,90,0
1,76,90,0
1,78,90,0
1,78,90,360
1,75,90,0
1,78,90,0
1,78,90,0
1,78,90,0
1,78,90,0
1,78,90,0
1,80,90,0
1,80,90,0
1,78,90,0
1,76,90,360
1,78,90,0
1,78,90,0
1,78,90,0
1,78,90,0
1,76,90,0
1,78,90,0
1,78,90,120
1,81,90,0
1,78,90,0
1,78,90,0
1,76,90,0
1,78,90,0
1,76,90,360
1,73,90,0
1,73,90,0
1,73,90,0
1,73,90,0
1,75,90,0
1,76,90,0
1,78,90,120
1,76,90,0
1,75,90,0
1,75,90,0
1,75,90,0
1,76,90,0
1,78,90,0
2,42,90,960
2,39,90,0
2,37,90,0
2,42,90,0
2,42,90,0
2,39,90,0
2,37,90,0
2,39,90,0
2,42,90,0
2,39,90,0
2,37,90,0
2,42,90,0
2,42,90,0
2,39,90,0
2,37,90,0
2,39,90,0
2,42,90,0
2,39,90,0
2,37,90,0
2,42,90,0
2,42,90,0
2,39,90,0
2,37,90,0
2,39,90,0
2,42,90,0
2,39,90,0
2,37,90,0
2,42,90,0
2,42,90,0
2,39,90,0
2,37,90,0
2,39,90,0
2,42,90,0
2,39,90,0
2,37,90,0
2,42,90,0
2,42,90,0
2,39,90,0
2,37,90,0
2,39,90,0
2,42,90,0
2,39,90,0
2,37,90,0
2,42,90,0
2,42,90,0
2,39,90,0
2,37,90,0
2,39,90,0
2,42,90,0
2,39,90,0
2,37,90,0
2,42,90,0
2,42,90,0
2,39,90,0
2,37,90,0
2,39,90,0
2,42,90,0
2,39,90,0
2,37,90,0
2,42,90,0
2,42,90,0
2,39,90,0
2,37,90,0
2,39,90,0
2,42,90,0
2,39,90,0
2,37,90,0
2,42,90,0
2,42,90,0
2,39,90,0
2,37,90,0
2,39,90,0
2,42,90,0
2,39,90,0
2,37,90,0
2,42,90,0
2,42,90,0
2,39,90,0
2,37,90,0
2,39,90,0
2,42,90,0
2,39,90,0
2,37,90,0
2,42,90,0
2,42,90,0
2,39,90,0
2,37,90,0
2,39,90,0
2,42,90,0
2,39,90,0
2,37,90,0
2,42,90,0
2,42,90,0
2,39,90,0
2,37,90,0
2,39,90,0
2,42,90,0
2,39,90,0
2,37,90,0
2,42,90,0
2,42,90,0
2,39,90,0
2,37,90,0
2,39,90,0
2,42,90,0
2,39,90,0
2,37,90,0
2,42,90,0
2,42,90,0
2,39,90,0
2,37,90,0
2,39,90,0
2,42,90,0
2,39,90,0
2,37,90,0
2,42,90,0
2,42,90,0
2,39,90,0
2,37,90,0
2,39,90,0
2,42,90,0
2,39,90,0
2,37,90,0
2,42,90,0
2,42,90,0
2,39,90,0
2,37,90,0
2,39,90,0
2,44,90,0
2,44,90,0
2,44,90,0
2,44,90,0
2,44,90,0
2,44,90,0
2,44,90,0
2,44,90,0
2,37,90,0
2,37,90,0
2,37,90,0
2,37,90,0
2,37,90,0
2,37,90,0
2,37,90,0
2,37,90,0
2,42,90,0
2,39,90,0
2,37,90,0
2,42,90,0
2,42,90,0
2,39,90,0
2,37,90,0
2,39,90,0
2,42,90,0
2,39,90,0
2,37,90,0
2,42,90,0
2,42,90,0
2,39,90,0
2,37,90,0
2,39,90,0
2,42,90,0
2,39,90,0
2,37,90,0
2,42,90,0
2,42,90,0
2,39,90,0
2,37,90,0
2,39,90,0
2,42,90,0
2,39,90,0
2,37,90,0
2,42,90,0
2,42,90,0
2,39,90,0
2,37,90,0
2,39,90,0
2,42,90,0
2,39,90,0
2,37,90,0
2,42,90,0
2,42,90,0
2,39,90,0
2,37,90,0
2,39,90,0
2,42,90,0
2,39,90,0
2,37,90,0
2,42,90,0
2,42,90,0
2,39,90,0
2,37,90,0
2,39,90,0
2,44,90,0
2,44,90,0
2,44,90,0
2,44,90,0
2,44,90,0
2,44,90,0
2,44,90,0
2,44,90,0
2,37,90,0
2,37,90,0
2,37,90,0
2,37,90,0
2,37,90,0
2,37,90,0
2,37,90,0
2,37,90,0
2,32,90,0
2,32,90,0
2,32,90,0
2,32,90,0
2,32,90,0
2,32,90,0
2,32,90,0
2,32,90,0
2,42,90,0
2,42,90,0
2,42,90,0
2,42,90,0
2,42,90,0
2,42,90,0
2,42,90,0
2,42,90,0
2,37,90,0
2,37,90,0
2,37,90,0
2,37,90,0
2,37,90,0
2,37,90,0
2,37,90,0
2,37,90,0
2,37,90,0
2,35,90,0
2,37,90,0
2,35,90,0
2,37,90,0
2,35,90,0
2,37,90,0
2,39,90,0
2,42,90,0
2,39,90,0
2,37,90,0
2,42,90,0
2,42,90,0
2,39,90,0
2,37,90,0
2,39,90,0
2,42,90,0
2,39,90,0
2,37,90,0
2,42,90,0
2,42,90,0
2,39,90,0
2,37,90,0
2,39,90,0
2,42,90,0
2,39,90,0
2,37,90,0
2,42,90,0
2,42,90,0
2,39,90,0
2,37,90,0
2,39,90,0
2,42,90,0
2,39,90,0
2,37,90,0
2,42,90,0
2,42,90,0
2,39,90,0
2,37,90,0
2,39,90,0
2,44,90,0
2,44,90,0
2,44,90,0
2,44,90,0
2,44,90,0
2,44,90,0
2,44,90,0
2,44,90,0
2,37,90,0
2,37,90,0
2,37,90,0
2,37,90,0
2,37,90,0
2,37,90,0
2,37,90,0
2,37,90,0
2,42,90,0
2,39,90,0
2,37,90,0
2,42,90,0
2,42,90,0
2,39,90,0
2,37,90,0
2,39,90,0
2,42,90,0
2,39,90,0
2,37,90,0
2,42,90,0
2,42,90,0
2,39,90,0
2,37,90,0
2,39,90,0
2,42,90,0
2,39,90,0
2,37,90,0
2,42,90,0
2,42,90,0
2,39,90,0
2,37,90,0
2,39,90,0
2,42,90,0
2,39,90,0
2,37,90,0
2,42,90,0
2,42,90,0
2,39,90,0
2,37,90,0
2,39,90,0
2,42,90,0
2,39,90,0
2,37,90,0
2,42,90,0
2,42,90,0
2,39,90,0
2,37,90,0
2,39,90,0
2,42,90,0
2,39,90,0
2,37,90,0
2,42,90,0
2,42,90,0
2,39,90,0
2,37,90,0
2,39,90,0
2,44,90,0
2,44,90,0
2,44,90,0
2,44,90,0
2,44,90,0
2,44,90,0
2,44,90,0
2,44,90,0
2,37,90,0
2,37,90,0
2,37,90,0
2,37,90,0
2,37,90,0
2,37,90,0
2,37,90,0
2,37,90,0
2,42,90,0
2,39,90,0
2,37,90,0
2,42,90,0
2,42,90,0
2,39,90,0
2,37,90,0
2,39,90,0
2,42,90,0
2,39,90,0
2,37,90,0
2,42,90,0
2,42,90,0
2,39,90,0
2,37,90,0
2,39,90,0
2,42,90,0
2,39,90,0
2,37,90,0
2,42,90,0
2,42,90,0
2,39,90,0
2,37,90,0
2,39,90,0
2,42,90,0
2,39,90,0
2,37,90,0
2,42,90,0
2,42,90,0
2,39,90,0
2,37,90,0
2,39,90,0
2,42,90,0
2,39,90,0
2,37,90,0
2,42,90,0
2,42,90,0
2,39,90,0
2,37,90,0
2,39,90,0
2,42,90,0
2,39,90,0
2,37,90,0
2,42,90,0
2,42,90,0
2,39,90,0
2,37,90,0
2,39,90,0
2,44,90,0
2,44,90,0
2,44,90,0
2,44,90,0
2,44,90,0
2,44,90,0
2,44,90,0
2,44,90,0
2,37,90,0
2,37,90,0
2,37,90,0
2,37,90,0
2,37,90,0
2,37,90,0
2,37,90,0
2,37,90,0
2,32,90,0
2,32,90,0
2,32,90,0
2,32,90,0
2,32,90,0
2,32,90,0
2,32,90,0
2,32,90,0
2,42,90,0
2,42,90,0
2,42,90,0
2,42,90,0
2,42,90,0
2,42,90,0
2,42,90,0
2,42,90,0
2,37,90,0
2,37,90,0
2,37,90,0
2,37,90,0
2,37,90,0
2,37,90,0
2,37,90,0
2,37,90,0
2,37,90,0
2,35,90,0
2,37,90,0
2,35,90,0
2,37,90,0
2,35,90,0
2,37,90,0
2,39,90,0
2,42,90,0
2,39,90,0
2,37,90,0
2,42,90,0
2,42,90,0
2,39,90,0
2,37,90,0
2,39,90,0
2,42,90,0
2,39,90,0
2,37,90,0
2,42,90,0
2,42,90,0
2,39,90,0
2,37,90,0
2,39,90,0
2,42,90,0
2,39,90,0
2,37,90,0
2,42,90,0
2,42,90,0
2,39,90,0
2,37,90,0
2,39,90,0
2,42,90,0
2,39,90,0
2,37,90,0
2,42,90,0
2,42,90,0
2,39,90,0
2,37,90,0
2,39,90,0
2,44,90,0
2,44,90,0
2,44,90,0
2,44,90,0
2,44,90,0
2,44,90,0
2,44,90,0
2,44,90,0
2,37,90,0
2,37,90,0
2,37,90,0
2,37,90,0
2,37,90,0
2,37,90,0
2,37,90,0
2,37,90,0
2,42,90,0
2,39,90,0
2,37,90,0
2,42,90,0
2,42,90,0
2,39,90,0
2,37,90,0
2,39,90,0
2,42,90,0
2,39,90,0
2,37,90,0
2,42,90,0
2,42,90,0
2,39,90,0
2,37,90,0
2,39,90,0
2,32,90,0
2,32,90,0
2,32,90,0
2,32,90,0
2,32,90,0
2,32,90,0
2,32,90,0
2,30,90,0
2,37,90,0
2,37,90,0
2,37,90,0
2,37,90,0
2,37,90,0
2,37,90,0
2,37,90,0
2,34,90,0
2,32,90,0
2,32,90,0
2,32,90,0
2,32,90,0
2,32,90,0
2,32,90,0
2,32,90,0
2,30,90,0
2,37,90,0
2,37,90,0
2,37,90,0
2,37,90,0
2,37,90,0
2,37,90,0
2,37,90,0
2,34,90,0
2,32,90,0
2,32,90,0
2,32,90,0
2,32,90,0
2,32,90,0
2,32,90,0
2,32,90,0
2,30,90,0
2,37,90,0
2,37,90,0
2,37,90,0
2,37,90,0
2,37,90,0
2,37,90,0
2,37,90,0
2,34,90,0
2,32,90,0
2,32,90,0
2,32,90,0
2,32,90,0
2,32,90,0
2,32,90,0
2,32,90,0
2,30,90,0
2,37,90,0
2,37,90,120
2,37,90,120
2,41,90,2280
2,42,90,0
2,37,90,0
2,40,90,0
2,42,90,0
2,40,90,0
2,37,90,0
2,35,90,0
2,37,90,0
2,42,90,0
2,37,90,0
2,40,90,0
2,42,90,0
2,40,90,0
2,37,90,0
2,35,90,0
2,37,90,0
2,42,90,0
2,37,90,0
2,40,90,0
2,42,90,0
2,40,90,0
2,37,90,0
2,35,90,0
2,37,90,0
2,42,90,0
2,37,90,0
2,40,90,0
2,42,90,0
2,40,90,0
2,37,90,0
2,35,90,0
2,37,90,0
2,42,90,0
2,37,90,0
2,40,90,0
2,42,90,0
2,40,90,0
2,37,90,0
2,35,90,0
2,37,90,0
2,42,90,0
2,37,90,0
2,40,90,0
2,42,90,0
2,40,90,0
2,37,90,0
2,35,90,0
2,37,90,0
2,37,90,0
2,37,90,0
2,37,90,0
2,37,90,0
2,37,90,0
2,37,90,0
2,37,90,0
2,37,90,0
2,30,90,0
2,30,90,0
2,30,90,0
2,30,90,0
2,30,90,0
2,30,90,0
2,30,90,0
2,30,90,0
2,37,90,0
2,37,90,0
2,37,90,0
2,37,90,0
2,37,90,0
2,37,90,0
2,37,90,0
2,37,90,0
2,42,90,0
2,42,90,0
2,42,90,0
2,40,90,0
2,46,90,0
2,44,90,0
2,42,90,0
2,39,90,0
2,37,90,0
2,37,90,0
2,37,90,0
2,37,90,0
2,37,90,0
2,37,90,0
2,37,90,0
2,35,90,0
2,30,90,0
2,30,90,0
2,30,90,0
2,30,90,0
2,30,90,0
2,30,90,0
2,34,90,0
2,35,90,0
2,37,90,0
2,37,90,0
2,37,90,0
2,37,90,0
2,37,90,0
2,37,90,0
2,37,90,0
2,37,90,0
2,35,90,0
2,39,90,0
2,39,90,0
2,39,90,0
2,39,90,0
2,39,90,0
2,39,90,0
2,39,90,0
2,39,90,0
2,42,90,0
2,39,90,0
2,37,90,0
2,42,90,0
2,42,90,0
2,39,90,0
2,37,90,0
2,39,90,0
2,42,90,0
2,39,90,0
2,37,90,0
2,42,90,0
2,42,90,0
2,39,90,0
2,37,90,0
2,39,90,0
2,42,90,0
2,39,90,0
2,37,90,0
2,42,90,0
2,42,90,0
2,39,90,0
2,37,90,0
2,39,90,0
2,42,90,0
2,39,90,0
2,37,90,0
2,42,90,0
2,42,90,0
2,39,90,0
2,37,90,0
2,39,90,0
2,44,90,0
2,44,90,0
2,44,90,0
2,44,90,0
2,44,90,0
2,44,90,0
2,44,90,0
2,39,90,0
2,37,90,0
2,37,90,0
2,37,90,0
2,37,90,0
2,37,90,0
2,37,90,0
2,39,90,0
2,41,90,0
2,42,90,0
2,39,90,0
2,37,90,0
2,42,90,0
2,42,90,0
2,39,90,0
2,37,90,0
2,39,90,0
2,42,90,0
2,39,90,0
