track,note,velocity,time
2,66,64,984
2,70,64,0
2,66,0,11
2,70,0,0
2,66,64,61
2,70,64,0
2,66,0,11
2,70,0,0
2,66,64,85
2,70,64,0
2,66,0,11
2,70,0,0
2,66,64,61
2,70,64,0
2,66,0,11
2,70,0,0
2,66,64,133
2,70,64,0
2,66,0,11
2,70,0,0
2,66,64,61
2,70,64,0
2,66,0,11
2,70,0,0
2,66,64,85
2,70,64,0
2,66,0,11
2,70,0,0
2,66,64,13
2,70,64,0
2,66,0,11
2,70,0,0
2,66,64,37
2,70,64,0
2,66,0,11
2,70,0,0
2,66,64,133
2,70,64,0
2,66,0,11
2,70,0,0
2,66,64,61
2,70,64,0
2,66,0,11
2,70,0,0
2,66,64,85
2,70,64,0
2,66,0,11
2,70,0,0
2,66,64,61
2,70,64,0
2,66,0,11
2,70,0,0
2,66,64,133
2,70,64,0
2,66,0,11
2,70,0,0
2,66,64,61
2,70,64,0
2,66,0,11
2,70,0,0
2,66,64,85
2,70,64,0
2,66,0,11
2,70,0,0
2,66,64,13
2,70,64,0
2,66,0,11
2,70,0,0
2,66,64,37
2,70,64,0
2,66,0,11
2,70,0,0
2,66,64,133
2,70,64,0
2,66,0,11
2,70,0,0
2,66,64,61
2,70,64,0
2,66,0,11
2,70,0,0
2,66,64,85
2,70,64,0
2,66,0,11
2,70,0,0
2,66,64,61
2,70,64,0
2,66,0,11
2,70,0,0
2,66,64,133
2,70,64,0
2,66,0,11
2,70,0,0
2,66,64,61
2,70,64,0
2,66,0,11
2,70,0,0
2,66,64,85
2,70,64,0
2,66,0,11
2,70,0,0
2,66,64,13
2,70,64,0
2,66,0,11
2,70,0,0
2,66,64,37
2,70,64,0
2,66,0,11
2,70,0,0
2,68,64,109
2,71,64,0
2,68,0,11
2,71,0,0
2,68,64,37
2,71,64,0
2,68,0,11
2,71,0,0
2,68,64,13
2,71,64,0
2,68,0,11
2,71,0,0
2,68,64,13
2,71,64,0
2,68,0,11
2,71,0,0
2,68,64,13
2,71,64,0
2,68,0,11
2,71,0,0
2,68,64,61
2,71,64,0
2,68,0,11
2,71,0,0
2,68,64,13
2,71,64,0
2,68,0,11
2,71,0,0
2,68,64,13
2,71,64,0
2,68,0,11
2,71,0,0
2,68,64,13
2,71,64,0
2,68,0,11
2,71,0,0
2,68,64,37
2,71,64,0
2,68,0,11
2,71,0,0
2,68,64,13
2,71,64,0
2,68,0,11
2,71,0,0
2,68,64,13
2,71,64,0
2,68,0,11
2,71,0,0
2,66,64,37
2,70,64,0
2,66,0,11
2,70,0,0
2,66,64,61
2,70,64,0
2,66,0,11
2,70,0,0
2,66,64,85
2,70,64,0
2,66,0,11
2,70,0,0
2,66,64,61
2,70,64,0
2,66,0,11
2,70,0,0
2,66,64,133
2,70,64,0
2,66,0,11
2,70,0,0
2,66,64,61
2,70,64,0
2,66,0,11
2,70,0,0
2,66,64,85
2,70,64,0
2,66,0,11
2,70,0,0
2,66,64,13
2,70,64,0
2,66,0,11
2,70,0,0
2,66,64,37
2,70,64,0
2,66,0,11
2,70,0,0
2,66,64,133
2,70,64,0
2,66,0,11
2,70,0,0
2,66,64,61
2,70,64,0
2,66,0,11
2,70,0,0
2,66,64,85
2,70,64,0
2,66,0,11
2,70,0,0
2,66,64,13
2,70,64,0
2,66,0,11
2,70,0,0
2,66,64,37
2,70,64,0
2,66,0,11
2,70,0,0
2,66,64,61
2,70,64,0
2,66,0,11
2,70,0,0
2,66,64,13
2,70,64,0
2,66,0,11
2,70,0,0
2,68,64,13
2,71,64,0
2,68,0,191
2,71,0,0
2,61,64,1
2,68,64,0
2,61,0,191
2,68,0,0
2,68,64,1
2,71,64,0
2,68,0,191
2,71,0,0
2,66,64,1
2,70,64,0
2,66,0,191
2,70,0,0
2,73,64,1
2,78,64,0
2,73,0,47
2,78,0,0
2,73,64,1
2,78,64,0
2,73,0,47
2,78,0,0
2,73,64,1
2,77,64,0
2,73,0,47
2,77,0,0
2,73,64,1
2,77,64,0
2,73,0,47
2,77,0,0
2,73,64,1
2,75,64,0
2,73,0,47
2,75,0,0
2,73,64,1
2,75,64,0
2,73,0,47
2,75,0,0
2,73,64,1
2,77,64,0
2,73,0,47
2,77,0,0
2,66,64,73
2,70,64,0
2,66,0,11
2,70,0,0
2,66,64,61
2,70,64,0
2,66,0,11
2,70,0,0
2,66,64,85
2,70,64,0
2,66,0,11
2,70,0,0
2,66,64,61
2,70,64,0
2,66,0,11
2,70,0,0
2,66,64,133
2,70,64,0
2,66,0,11
2,70,0,0
2,66,64,61
2,70,64,0
2,66,0,11
2,70,0,0
2,66,64,85
2,70,64,0
2,66,0,11
2,70,0,0
2,66,64,13
2,70,64,0
2,66,0,11
2,70,0,0
2,66,64,37
2,70,64,0
2,66,0,11
2,70,0,0
2,68,64,109
2,70,64,0
2,68,0,23
2,70,0,0
2,68,64,1
2,71,64,0
2,68,0,23
2,71,0,0
2,68,64,25
2,71,64,0
2,68,0,23
2,71,0,0
2,68,64,97
2,70,64,0
2,68,0,23
2,70,0,0
2,68,64,1
2,71,64,0
2,68,0,23
2,71,0,0
2,68,64,25
2,71,64,0
2,68,0,23
2,71,0,0
2,68,64,25
2,71,64,0
2,68,0,11
2,71,0,0
2,68,64,13
2,71,64,0
2,68,0,11
2,71,0,0
2,68,64,13
2,71,64,0
2,68,0,11
2,71,0,0
2,66,64,37
2,70,64,0
2,66,0,11
2,70,0,0
2,66,64,61
2,70,64,0
2,66,0,11
2,70,0,0
2,66,64,85
2,70,64,0
2,66,0,11
2,70,0,0
2,66,64,61
2,70,64,0
2,66,0,11
2,70,0,0
2,66,64,133
2,70,64,0
2,66,0,11
2,70,0,0
2,66,64,61
2,70,64,0
2,66,0,11
2,70,0,0
2,66,64,85
2,70,64,0
2,66,0,11
2,70,0,0
2,66,64,13
2,70,64,0
2,66,0,11
2,70,0,0
2,66,64,37
2,70,64,0
2,66,0,11
2,70,0,0
2,66,64,133
2,70,64,0
2,66,0,11
2,70,0,0
2,66,64,61
2,70,64,0
2,66,0,11
2,70,0,0
2,66,64,85
2,70,64,0
2,66,0,11
2,70,0,0
2,66,64,13
2,70,64,0
2,66,0,11
2,70,0,0
2,66,64,37
2,70,64,0
2,66,0,11
2,70,0,0
2,68,64,109
2,71,64,0
2,68,0,11
2,71,0,0
2,68,64,37
2,71,64,0
2,68,0,11
2,71,0,0
2,68,64,13
2,71,64,0
2,68,0,11
2,71,0,0
2,68,64,13
2,71,64,0
2,68,0,11
2,71,0,0
2,68,64,13
2,71,64,0
2,68,0,11
2,71,0,0
2,68,64,61
2,71,64,0
2,68,0,11
2,71,0,0
2,68,64,13
2,71,64,0
2,68,0,11
2,71,0,0
2,68,64,13
2,71,64,0
2,68,0,11
2,71,0,0
2,68,64,13
2,71,64,0
2,68,0,11
2,71,0,0
2,68,64,37
2,71,64,0
2,68,0,11
2,71,0,0
2,68,64,13
2,71,64,0
2,68,0,11
2,71,0,0
2,68,64,13
2,71,64,0
2,68,0,11
2,71,0,0
2,66,64,37
2,70,64,0
2,66,0,11
2,70,0,0
2,66,64,61
2,70,64,0
2,66,0,11
2,70,0,0
2,66,64,85
2,70,64,0
2,66,0,11
2,70,0,0
2,66,64,61
2,70,64,0
2,66,0,11
2,70,0,0
2,66,64,133
2,70,64,0
2,66,0,11
2,70,0,0
2,66,64,61
2,70,64,0
2,66,0,11
2,70,0,0
2,66,64,85
2,70,64,0
2,66,0,11
2,70,0,0
2,66,64,13
2,70,64,0
2,66,0,11
2,70,0,0
2,66,64,37
2,70,64,0
2,66,0,11
2,70,0,0
2,66,64,133
2,70,64,0
2,66,0,11
2,70,0,0
2,66,64,61
2,70,64,0
2,66,0,11
2,70,0,0
2,66,64,85
2,70,64,0
2,66,0,11
2,70,0,0
2,66,64,13
2,70,64,0
2,66,0,11
2,70,0,0
2,66,64,37
2,70,64,0
2,66,0,11
2,70,0,0
2,66,64,61
2,70,64,0
2,66,0,11
2,70,0,0
2,66,64,13
2,70,64,0
2,66,0,11
2,70,0,0
2,68,64,13
2,71,64,0
2,68,0,191
2,71,0,0
2,61,64,1
2,68,64,0
2,61,0,191
2,68,0,0
2,68,64,1
2,71,64,0
2,68,0,191
2,71,0,0
2,66,64,1
2,70,64,0
2,66,0,191
2,70,0,0
2,73,64,1
2,78,64,0
2,73,0,47
2,78,0,0
2,73,64,1
2,78,64,0
2,73,0,47
2,78,0,0
2,73,64,1
2,77,64,0
2,73,0,47
2,77,0,0
2,73,64,1
2,77,64,0
2,73,0,47
2,77,0,0
2,73,64,1
2,75,64,0
2,73,0,47
2,75,0,0
2,73,64,1
2,75,64,0
2,73,0,47
2,75,0,0
2,73,64,1
2,77,64,0
2,73,0,47
2,77,0,0
2,66,64,73
2,70,64,0
2,66,0,11
2,70,0,0
2,66,64,61
2,70,64,0
2,66,0,11
2,70,0,0
2,66,64,85
2,70,64,0
2,66,0,11
2,70,0,0
2,66,64,61
2,70,64,0
2,66,0,11
2,70,0,0
2,66,64,133
2,70,64,0
2,66,0,11
2,70,0,0
2,66,64,61
2,70,64,0
2,66,0,11
2,70,0,0
2,66,64,85
2,70,64,0
2,66,0,11
2,70,0,0
2,66,64,13
2,70,64,0
2,66,0,11
2,70,0,0
2,66,64,37
2,70,64,0
2,66,0,11
2,70,0,0
2,68,64,109
2,70,64,0
2,68,0,23
2,70,0,0
2,68,64,1
2,71,64,0
2,68,0,23
2,71,0,0
2,68,64,25
2,71,64,0
2,68,0,23
2,71,0,0
2,68,64,97
2,70,64,0
2,68,0,23
2,70,0,0
2,68,64,1
2,71,64,0
2,68,0,23
2,71,0,0
2,68,64,25
2,71,64,0
2,68,0,23
2,71,0,0
2,68,64,25
2,71,64,0
2,68,0,11
2,71,0,0
2,68,64,13
2,71,64,0
2,68,0,11
2,71,0,0
2,68,64,13
2,71,64,0
2,68,0,11
2,71,0,0
2,66,64,37
2,70,64,0
2,66,0,11
2,70,0,0
2,66,64,61
2,70,64,0
2,66,0,11
2,70,0,0
2,66,64,85
2,70,64,0
2,66,0,11
2,70,0,0
2,66,64,61
2,70,64,0
2,66,0,11
2,70,0,0
2,68,64,109
2,71,64,0
2,68,0,191
2,71,0,0
2,61,64,1
2,68,64,0
2,61,0,191
2,68,0,0
2,68,64,1
2,71,64,0
2,68,0,191
2,71,0,0
2,61,64,1
2,68,64,0
2,61,0,191
2,68,0,0
2,68,64,1
2,71,64,0
2,68,0,191
2,71,0,0
2,61,64,1
2,68,64,0
2,61,0,191
2,68,0,0
2,68,64,1
2,71,64,0
2,68,0,191
2,71,0,0
2,61,64,1
2,68,64,0
2,61,0,23
2,68,0,0
2,61,64,25
2,68,64,0
2,61,0,23
2,68,0,0
2,61,64,25
2,68,64,0
2,61,0,23
2,68,0,0
2,66,64,1225
2,66,64,0
2,66,0,23
2,66,64,49
2,68,64,0
2,66,0,23
2,68,0,0
2,66,64,97
2,69,64,0
2,66,0,23
2,69,0,0
2,66,64,49
2,68,64,0
2,66,0,23
2,68,0,0
2,66,64,97
2,66,64,0
2,66,0,23
2,66,64,49
2,68,64,0
2,66,0,23
2,68,0,0
2,66,64,97
2,69,64,0
2,66,0,23
2,69,0,0
2,66,64,49
2,68,64,0
2,66,0,23
2,68,0,0
2,66,64,97
2,71,64,0
2,66,0,191
2,71,0,0
2,66,64,1
2,69,64,0
2,66,0,191
2,69,0,0
2,66,64,1
2,71,64,0
2,66,0,191
2,71,0,0
2,66,64,1
2,69,64,0
2,66,0,191
2,69,0,0
2,66,64,1
2,71,64,0
2,66,0,191
2,71,0,0
2,66,64,1
2,69,64,0
2,66,0,191
2,69,0,0
2,61,64,1
2,68,64,0
2,61,0,191
2,68,0,0
2,63,64,1
2,70,64,0
2,63,0,191
2,70,0,0
2,66,64,25
2,70,64,0
2,66,0,11
2,70,0,0
2,66,64,61
2,70,64,0
2,66,0,11
2,70,0,0
2,66,64,85
2,70,64,0
2,66,0,11
2,70,0,0
2,66,64,61
2,70,64,0
2,66,0,11
2,70,0,0
2,66,64,133
2,70,64,0
2,66,0,11
2,70,0,0
2,66,64,61
2,70,64,0
2,66,0,11
2,70,0,0
2,66,64,85
2,70,64,0
2,66,0,11
2,70,0,0
2,66,64,13
2,70,64,0
2,66,0,11
2,70,0,0
2,66,64,37
2,70,64,0
2,66,0,11
2,70,0,0
2,68,64,109
2,70,64,0
2,68,0,23
2,70,0,0
2,68,64,1
2,71,64,0
2,68,0,23
2,71,0,0
2,68,64,25
2,71,64,0
2,68,0,23
2,71,0,0
2,68,64,97
2,70,64,0
2,68,0,23
2,70,0,0
2,68,64,1
2,71,64,0
2,68,0,23
2,71,0,0
2,68,64,25
2,71,64,0
2,68,0,23
2,71,0,0
2,68,64,25
2,71,64,0
2,68,0,11
2,71,0,0
2,68,64,13
2,71,64,0
2,68,0,11
2,71,0,0
2,68,64,13
2,71,64,0
2,68,0,11
2,71,0,0
2,66,64,37
2,70,64,0
2,66,0,11
2,70,0,0
2,66,64,61
2,70,64,0
2,66,0,11
2,70,0,0
2,66,64,85
2,70,64,0
2,66,0,11
2,70,0,0
2,66,64,61
2,70,64,0
2,66,0,11
2,70,0,0
2,68,64,0
2,71,64,0
2,68,0,5
2,71,0,0
2,61,64,1
2,68,64,0
2,61,0,17
2,68,0,0
2,68,64,0
2,71,64,0
2,68,0,11
2,71,0,0
2,61,64,1
2,68,64,0
2,61,0,5
2,68,0,0
2,68,64,1
2,71,64,0
2,68,0,17
2,71,0,0
2,61,64,0
2,68,64,0
2,61,0,11
2,68,0,0
2,68,64,1
2,71,64,0
2,68,0,5
2,71,0,0
2,61,64,1
2,68,64,0
2,61,0,11
2,68,0,0
2,61,64,6
2,68,64,0
2,61,0,11
2,68,0,0
2,61,64,0
2,68,64,0
2,61,0,11
2,68,0,0
2,63,64,0
2,70,64,0
2,63,0,11
2,70,0,0
2,63,64,1
2,70,64,0
2,63,0,5
2,70,0,0
2,63,64,1
2,70,64,0
2,63,0,5
2,70,0,0
2,66,64,1
2,73,64,0
2,66,0,143
2,73,0,0
3,42,64,144
3,42,0,23
3,39,64,1
3,39,0,23
3,37,64,1
3,37,0,23
3,42,64,1
3,42,0,23
3,42,64,1
3,42,0,23
3,39,64,1
3,39,0,23
3,37,64,1
3,37,0,23
3,39,64,1
3,39,0,23
3,42,64,1
3,42,0,23
3,39,64,1
3,39,0,23
3,37,64,1
3,37,0,23
3,42,64,1
3,42,0,23
3,42,64,1
3,42,0,23
3,39,64,1
3,39,0,23
3,37,64,1
3,37,0,23
3,39,64,1
3,39,0,23
3,42,64,1
3,42,0,23
3,39,64,1
3,39,0,23
3,37,64,1
3,37,0,23
3,42,64,1
3,42,0,23
3,42,64,1
3,42,0,23
3,39,64,1
3,39,0,23
3,37,64,1
3,37,0,23
3,39,64,1
3,39,0,23
3,42,64,1
3,42,0,23
3,39,64,1
3,39,0,23
3,37,64,1
3,37,0,23
3,42,64,1
3,42,0,23
3,42,64,1
3,42,0,23
3,39,64,1
3,39,0,23
3,37,64,1
3,37,0,23
3,39,64,1
3,39,0,23
3,42,64,1
3,42,0,23
3,39,64,1
3,39,0,23
3,37,64,1
3,37,0,23
3,42,64,1
3,42,0,23
3,42,64,1
3,42,0,23
3,39,64,1
3,39,0,23
3,37,64,1
3,37,0,23
3,39,64,1
3,39,0,23
3,42,64,1
3,42,0,23
3,39,64,1
3,39,0,23
3,37,64,1
3,37,0,23
3,42,64,1
3,42,0,23
3,42,64,1
3,42,0,23
3,39,64,1
3,39,0,23
3,37,64,1
3,37,0,23
3,39,64,1
3,39,0,23
3,42,64,1
3,42,0,23
3,39,64,1
3,39,0,23
3,37,64,1
3,37,0,23
3,42,64,1
3,42,0,23
3,42,64,1
3,42,0,23
3,39,64,1
3,39,0,23
3,37,64,1
3,37,0,23
3,39,64,1
3,39,0,23
3,42,64,1
3,42,0,23
3,39,64,1
3,39,0,23
3,37,64,1
3,37,0,23
