track,note,velocity,time
0,42,80,0
0,42,50,477
0,42,50,477
0,48,63,237
0,48,81,17
0,45,72,217
0,45,93,17
0,41,81,217
0,41,106,17
0,64,51,192
0,59,51,0
0,54,51,0
0,47,51,0
0,40,51,0
0,28,94,25
0,49,74,0
0,36,100,0
0,28,94,0
0,76,48,0
0,71,48,0
0,28,94,0
0,28,94,0
0,66,48,0
0,71,48,0
0,42,74,0
0,28,94,0
0,61,48,0
0,66,48,0
0,28,94,0
0,28,94,0
0,28,94,0
0,71,48,0
0,76,48,0
0,28,94,0
0,28,94,0
0,66,48,0
0,71,48,0
0,42,74,0
0,38,100,0
0,56,51,0
0,28,94,0
0,61,48,0
0,66,48,0
0,32,94,0
0,57,51,0
0,52,51,0
0,45,51,0
0,33,94,0
0,36,100,0
0,33,94,0
0,71,48,0
0,76,48,0
0,33,94,0
0,33,94,0
0,66,48,0
0,71,48,0
0,42,74,0
0,47,51,0
0,35,94,0
0,59,48,0
0,64,48,0
0,64,48,140
0,69,48,0
0,35,94,0
0,71,48,0
0,76,48,0
0,35,94,0
0,37,94,0
0,66,48,0
0,71,48,0
0,42,74,0
0,38,100,0
0,35,94,0
0,36,100,0
0,69,48,117
0,64,48,0
0,64,51,0
0,59,51,0
0,54,51,0
0,47,51,0
0,40,51,0
0,28,94,0
0,36,100,0
0,28,94,0
0,76,48,0
0,71,48,0
0,28,94,0
0,28,94,0
0,66,48,0
0,71,48,0
0,42,74,0
0,28,94,0
0,61,48,0
0,66,48,0
0,28,94,0
0,28,94,0
0,28,94,0
0,71,48,0
0,76,48,0
0,28,94,0
0,28,94,0
0,66,48,0
0,71,48,0
0,42,74,0
0,38,100,0
0,56,51,0
0,28,94,0
0,61,48,0
0,66,48,0
0,32,94,0
0,57,51,0
0,52,51,0
0,45,51,0
0,33,94,0
0,36,100,0
0,33,94,0
0,71,48,0
0,76,48,0
0,33,94,0
0,33,94,0
0,66,48,0
0,71,48,0
0,42,74,0
0,47,51,0
0,35,94,0
0,59,48,0
0,64,48,0
0,64,48,140
0,69,48,0
0,35,94,0
0,71,48,0
0,76,48,0
0,35,94,0
0,37,94,0
0,66,48,0
0,71,48,0
0,42,74,0
0,38,100,0
0,35,94,0
0,36,100,0
0,68,62,113
0,69,48,4
0,64,48,0
0,73,48,67
0,78,66,20
0,64,51,0
0,59,51,0
0,54,51,0
0,47,51,0
0,40,51,0
0,83,66,1
0,28,94,0
0,49,74,0
0,36,100,0
0,28,94,0
0,76,48,0
0,71,48,0
0,28,94,0
0,28,94,0
0,66,48,0
0,71,48,0
0,68,64,0
0,42,74,0
0,69,70,30
0,61,48,0
0,66,48,0
0,28,94,0
0,71,75,0
0,28,94,0
0,28,94,0
0,28,94,0
0,71,48,0
0,76,48,0
0,28,94,0
0,66,48,0
0,71,48,0
0,28,94,0
0,42,74,0
0,38,100,0
0,56,51,0
0,28,94,0
0,61,48,0
0,66,48,0
0,32,94,0
0,57,51,0
0,52,51,0
0,45,51,0
0,33,94,0
0,36,100,0
0,33,94,0
0,71,48,0
0,76,48,0
0,33,94,0
0,33,94,0
0,66,48,0
0,71,48,0
0,42,74,0
0,47,51,0
0,35,94,0
0,59,48,0
0,64,48,0
0,64,48,140
0,69,48,0
0,35,94,0
0,71,48,0
0,76,48,0
0,69,75,0
0,35,94,0
0,37,94,0
0,66,48,0
0,71,48,0
0,42,74,0
0,38,100,0
0,35,94,0
0,36,100,0
0,69,48,0
0,64,48,0
0,68,75,0
0,64,51,0
0,59,51,0
0,52,51,0
0,47,51,0
0,40,51,0
0,28,94,0
0,66,70,0
0,36,100,0
0,28,94,0
0,71,48,0
0,76,48,0
0,28,94,0
0,28,94,0
0,66,48,0
0,71,48,0
0,64,65,0
0,42,74,0
0,28,94,0
0,61,48,0
0,66,48,0
0,28,94,0
0,28,94,0
0,28,94,0
0,71,48,0
0,76,48,0
0,28,94,0
0,28,94,0
0,66,48,0
0,71,48,0
0,42,74,0
0,38,100,0
0,56,51,0
0,28,94,0
0,61,48,0
0,66,48,0
0,32,94,0
0,57,51,0
0,52,51,0
0,45,51,0
0,33,94,0
0,36,100,0
0,33,94,0
0,71,48,0
0,76,48,0
0,33,94,0
0,33,94,0
0,66,48,0
0,71,48,0
0,42,74,0
0,59,65,0
0,56,65,0
0,45,65,0
0,47,51,0
0,35,94,0
0,61,48,0
0,66,48,0
0,61,55,0
0,57,55,0
0,47,55,0
0,45,63,240
0,45,82,17
0,41,80,217
0,41,106,17
0,64,51,0
0,59,51,0
0,54,51,0
0,47,51,0
0,40,51,0
0,28,94,0
0,49,74,0
0,36,100,0
0,59,104,0
0,28,94,0
0,64,104,0
0,28,94,0
0,64,104,0
0,28,94,0
0,56,90,0
0,66,104,0
0,42,74,0
0,66,104,50
0,28,94,0
0,59,90,0
0,64,104,0
0,28,94,0
0,64,104,0
0,28,94,0
0,59,90,0
0,59,104,0
0,28,94,0
0,64,104,0
0,28,94,0
0,64,104,0
0,28,94,0
0,59,90,0
0,66,104,0
0,42,74,0
0,38,100,0
0,66,104,50
0,56,51,0
0,28,94,0
0,59,90,0
0,64,104,0
0,32,94,0
0,64,104,0
0,57,51,0
0,52,51,0
0,45,51,0
0,33,94,0
0,61,90,0
0,59,104,0
0,36,100,0
0,33,94,0
0,59,90,0
0,64,104,0
0,33,94,0
0,64,104,0
0,33,94,0
0,66,104,0
0,42,74,0
0,66,104,50
0,47,51,0
0,35,94,0
0,59,90,0
0,64,104,0
0,64,104,50
0,59,104,50
0,35,94,0
0,64,104,0
0,35,94,0
0,64,104,0
0,37,94,0
0,66,104,0
0,42,74,0
0,38,100,0
0,35,94,0
0,36,100,0
0,66,104,0
0,64,104,50
0,64,104,50
0,64,51,0
0,59,51,0
0,54,51,0
0,47,51,0
0,40,51,0
0,28,94,0
0,59,104,0
0,36,100,0
0,28,94,0
0,64,104,0
0,28,94,0
0,64,104,0
0,28,94,0
0,56,90,0
0,66,104,0
0,42,74,0
0,66,104,50
0,28,94,0
0,59,90,0
0,64,104,0
0,28,94,0
0,64,104,0
0,28,94,0
0,59,90,0
0,59,104,0
0,28,94,0
0,59,90,0
0,64,104,0
0,28,94,0
0,64,104,0
0,28,94,0
0,59,90,0
0,66,104,0
0,42,74,0
0,38,100,0
0,66,104,50
0,56,51,0
0,28,94,0
0,61,90,0
0,64,104,0
0,32,94,0
0,64,104,0
0,57,51,0
0,52,51,0
0,45,51,0
0,33,94,0
0,59,104,0
0,36,100,0
0,33,94,0
0,64,90,0
0,64,104,0
0,33,94,0
0,64,104,0
0,33,94,0
0,64,90,0
0,66,104,0
0,42,74,0
0,66,104,50
0,47,51,0
0,35,94,0
0,66,90,0
0,64,104,0
0,64,104,50
0,59,104,50
0,35,94,0
0,64,104,0
0,35,94,0
0,64,104,0
0,37,94,0
0,64,90,0
0,66,104,0
0,42,74,0
0,38,100,0
0,35,94,0
0,36,100,0
0,66,104,0
0,64,104,50
0,64,104,50
0,64,51,0
0,59,51,0
0,54,51,0
0,47,51,0
0,40,51,0
0,28,94,0
0,59,104,0
0,36,100,0
0,28,94,0
0,64,104,0
0,28,94,0
0,64,104,0
0,28,94,0
0,56,90,0
0,66,104,0
0,42,74,0
0,66,104,50
0,28,94,0
0,59,90,0
0,64,104,0
0,28,94,0
0,64,104,0
0,28,94,0
0,64,90,0
0,59,104,0
0,28,94,0
0,68,90,0
0,64,104,0
0,28,94,0
0,64,104,0
0,28,94,0
0,66,104,0
0,42,74,0
0,38,100,0
0,66,104,50
0,56,51,0
0,28,94,0
0,69,90,0
0,64,104,0
0,32,94,0
0,64,104,0
0,57,51,0
0,52,51,0
0,45,51,0
0,33,94,0
0,59,104,0
0,36,100,0
0,33,94,0
0,68,90,0
0,64,104,0
0,33,94,0
0,64,104,0
0,33,94,0
0,66,104,0
0,42,74,0
0,66,104,50
0,47,51,0
0,35,94,0
0,66,90,0
0,64,104,0
0,64,104,50
0,59,104,50
0,35,94,0
0,64,90,0
0,64,104,0
0,35,94,0
0,64,104,0
0,37,94,0
0,66,104,0
0,42,74,0
0,38,100,0
0,35,94,0
0,36,100,0
0,66,104,0
0,68,90,0
0,64,104,0
0,64,104,50
0,64,51,0
0,59,51,0
0,54,51,0
0,47,51,0
0,40,51,0
0,28,94,0
0,59,104,0
0,36,100,0
0,28,94,0
0,64,104,0
0,28,94,0
0,64,104,0
0,28,94,0
0,66,104,0
0,42,74,0
0,66,104,50
0,28,94,0
0,64,104,0
0,28,94,0
0,64,104,0
0,28,94,0
0,59,104,0
0,28,94,0
0,64,104,0
0,28,94,0
0,64,104,0
0,28,94,0
0,66,104,0
0,42,74,0
0,38,100,0
0,66,104,50
0,56,51,0
0,28,94,0
0,64,104,0
0,32,94,0
0,64,104,0
0,57,51,0
0,52,51,0
0,45,51,0
0,33,94,0
0,59,104,0
0,36,100,0
0,33,94,0
0,64,104,0
0,33,94,0
0,64,104,0
0,33,94,0
0,66,104,0
0,59,55,0
0,56,55,0
0,45,55,0
0,42,74,0
0,66,104,50
0,47,51,0
0,35,94,0
0,64,104,0
0,61,45,0
0,57,45,0
0,47,45,0
0,64,104,50
0,59,104,50
0,35,94,0
0,64,104,0
0,48,80,0
0,35,94,0
0,64,104,0
0,37,94,0
0,66,104,0
0,42,74,0
0,45,93,0
0,38,100,0
0,35,94,0
0,36,100,0
0,66,104,0
0,64,104,50
0,43,106,0
0,64,104,50
0,64,51,0
0,59,51,0
0,54,51,0
0,47,51,0
0,40,51,0
0,59,104,0
0,59,64,0
0,36,100,0
0,28,94,0
0,66,64,0
0,64,48,0
0,28,94,0
0,71,48,0
0,64,104,0
0,28,94,0
0,64,104,0
0,28,94,0
0,76,48,0
0,56,90,0
0,66,104,0
0,42,74,0
0,66,104,20
0,28,94,0
0,59,90,0
0,83,48,0
0,64,104,0
0,28,94,0
0,64,104,0
0,28,94,0
0,59,90,0
0,59,104,0
0,28,94,0
0,64,104,0
0,28,94,0
0,64,104,0
0,28,94,0
0,59,90,0
0,66,104,0
0,42,74,0
0,38,100,0
0,66,104,50
0,56,51,0
0,28,94,0
0,59,90,0
0,68,64,0
0,64,104,0
0,32,94,0
0,64,104,0
0,57,51,0
0,52,51,0
0,45,51,0
0,33,94,0
0,69,64,0
0,61,90,0
0,59,104,0
0,36,100,0
0,33,94,0
0,59,90,0
0,64,104,0
0,33,94,0
0,64,104,0
0,33,94,0
0,66,104,0
0,42,74,0
0,66,104,50
0,47,51,0
0,35,94,0
0,59,90,0
0,64,104,0
0,64,104,50
0,59,104,50
0,35,94,0
0,64,104,0
0,35,94,0
0,64,104,0
0,37,94,0
0,66,104,0
0,42,74,0
0,38,100,0
0,35,94,0
0,36,100,0
0,66,104,0
0,68,64,0
0,64,104,0
0,64,104,50
0,64,51,0
0,59,51,0
0,54,51,0
0,47,51,0
0,40,51,0
0,28,94,0
0,66,64,0
0,64,48,0
0,59,104,0
0,59,64,0
0,36,100,0
0,28,94,0
0,71,48,0
0,64,104,0
0,28,94,0
0,64,104,0
0,28,94,0
0,76,48,0
0,56,90,0
0,66,104,0
0,42,74,0
0,66,104,20
0,28,94,0
0,59,90,0
0,83,48,0
0,64,104,0
0,28,94,0
0,64,104,0
0,28,94,0
0,59,90,0
0,59,104,0
0,28,94,0
0,64,104,0
0,28,94,0
0,64,104,0
0,28,94,0
0,59,90,0
0,66,104,0
0,42,74,0
0,38,100,0
0,66,104,50
0,56,51,0
0,28,94,0
0,61,90,0
0,68,64,0
0,64,104,0
0,32,94,0
0,64,104,0
0,57,51,0
0,52,51,0
0,45,51,0
0,33,94,0
0,69,64,0
0,59,104,0
0,36,100,0
0,33,94,0
0,64,90,0
0,64,104,0
0,33,94,0
0,64,104,0
0,33,94,0
0,64,90,0
0,66,104,0
0,42,74,0
0,66,104,50
0,47,51,0
0,35,94,0
0,66,90,0
0,64,104,0
0,64,104,50
0,59,104,50
0,35,94,0
0,64,104,0
0,35,94,0
0,64,104,0
0,37,94,0
0,64,90,0
0,66,104,0
0,42,74,0
0,38,100,0
0,35,94,0
0,36,100,0
0,66,104,0
0,68,64,0
0,64,104,0
0,64,104,50
0,64,51,0
0,59,51,0
0,54,51,0
0,47,51,0
0,40,51,0
0,28,94,0
0,66,64,0
0,64,48,0
0,59,104,0
0,59,64,0
0,36,100,0
0,28,94,0
0,71,48,0
0,64,104,0
0,28,94,0
0,64,104,0
0,28,94,0
0,76,48,0
0,56,90,0
0,66,104,0
0,42,74,0
0,66,104,20
0,28,94,0
0,59,90,0
0,83,48,0
0,64,104,0
0,28,94,0
0,64,104,0
0,28,94,0
0,64,90,0
0,59,104,0
0,28,94,0
0,68,90,0
0,64,104,0
0,28,94,0
0,64,104,0
0,28,94,0
0,66,104,0
0,42,74,0
0,38,100,0
0,66,104,50
0,56,51,0
0,28,94,0
0,69,90,0
0,68,64,0
0,64,104,0
0,32,94,0
0,64,104,0
0,64,51,0
0,59,51,0
0,57,51,0
0,52,51,0
0,45,51,0
0,33,94,0
0,69,64,0
0,59,104,0
0,36,100,0
0,33,94,0
0,68,90,0
0,64,104,0
0,33,94,0
0,64,104,0
0,33,94,0
0,66,104,0
0,42,74,0
0,66,104,50
0,63,51,0
0,56,51,0
0,54,51,0
0,48,51,0
0,60,51,0
0,36,94,0
0,66,90,0
0,68,64,0
0,64,104,0
0,60,64,0
0,64,104,50
0,60,104,50
0,36,94,0
0,68,90,0
0,63,104,0
0,36,94,0
0,63,104,0
0,36,94,0
0,66,104,0
0,42,74,0
0,38,100,0
0,36,100,50
0,66,104,0
0,36,94,0
0,68,90,0
0,63,104,0
0,36,94,0
0,63,104,0
0,49,51,0
0,56,51,0
0,61,51,0
0,64,51,0
0,37,94,0
0,36,100,0
0,37,94,0
0,64,90,0
0,73,48,0
0,61,104,0
0,49,64,0
0,37,94,0
0,37,94,0
0,76,48,0
0,80,48,0
0,56,64,0
0,64,104,0
0,68,104,0
0,42,74,0
0,38,100,0
0,54,51,0
0,59,51,0
0,63,51,0
0,37,94,0
0,75,48,0
0,78,48,0
0,63,104,0
0,66,104,0
0,54,64,0
0,37,94,0
0,37,94,0
0,56,51,0
0,61,51,0
0,64,51,0
0,37,94,0
0,73,48,0
0,76,48,0
0,56,64,0
0,61,104,0
0,64,104,0
0,37,94,0
0,37,94,0
0,66,90,0
0,42,74,0
0,38,100,0
0,37,94,0
0,68,90,0
0,35,94,0
0,45,51,0
0,55,51,0
0,59,51,0
0,62,51,0
0,33,94,0
0,69,90,0
0,71,48,0
0,74,48,0
0,81,48,0
0,36,100,0
0,62,104,0
0,45,64,0
0,55,70,27
0,59,75,30
0,45,94,0
0,67,90,0
0,45,80,0
0,45,94,0
0,64,90,0
0,42,74,0
0,45,84,0
0,38,100,0
0,47,64,0
0,57,64,0
0,61,64,0
0,64,64,0
0,45,94,0
0,64,90,0
0,73,48,0
0,76,48,0
0,81,48,0
0,45,89,0
0,47,64,0
0,64,104,0
0,57,70,0
0,61,75,0
0,47,64,155
0,57,64,0
0,61,64,0
0,64,64,0
0,35,94,0
0,71,48,0
0,83,48,0
0,59,90,0
0,47,64,0
0,57,64,0
0,61,64,0
0,64,104,0
0,42,74,0
0,45,97,0
0,36,100,0
0,38,100,0
0,47,64,0
0,57,64,0
0,61,64,0
0,64,64,0
0,47,94,0
0,61,90,0
0,83,48,0
0,71,48,0
0,45,102,0
0,38,100,0
0,38,100,0
0,64,104,0
0,47,64,0
0,57,64,0
0,61,64,0
0,47,94,0
0,47,94,0
0,64,90,0
0,47,64,0
0,57,64,0
0,61,64,0
0,64,104,0
0,45,106,0
0,36,100,0
0,38,100,0
0,40,64,0
0,47,64,0
0,54,64,0
0,71,64,0
0,56,60,10
0,28,94,0
0,68,90,0
0,42,74,0
0,49,74,0
0,36,100,0
0,59,65,12
0,64,70,30
0,28,94,0
0,42,55,0
0,28,94,0
0,28,94,0
0,71,90,0
0,71,90,0
0,42,74,0
0,38,100,0
