track,note,velocity,time
1,67,60,1
1,69,50,419
1,67,0,1
1,69,0,59
1,67,60,0
1,67,0,160
1,64,57,0
1,64,0,160
1,60,53,0
1,60,0,160
1,67,60,0
1,67,0,360
1,76,56,0
1,76,0,120
1,76,60,0
1,76,0,960
1,72,44,0
1,72,0,240
1,67,59,240
1,67,0,420
1,65,50,0
1,65,0,60
1,64,60,0
1,64,0,160
1,60,56,0
1,60,0,160
1,55,52,0
1,55,0,160
1,60,60,0
1,60,0,160
1,64,57,0
1,64,0,160
1,67,54,0
1,67,0,160
1,55,56,0
1,64,56,0
1,67,56,0
1,67,0,120
1,64,0,0
1,55,0,0
1,65,53,120
1,62,53,0
1,55,53,0
1,55,0,120
1,62,0,0
1,65,0,0
1,55,56,120
1,60,56,0
1,64,56,0
1,64,0,90
1,60,0,0
1,55,0,0
1,59,50,150
1,55,50,0
1,62,50,0
1,62,0,90
1,55,0,0
1,59,0,0
1,55,56,150
1,64,56,0
1,60,56,0
1,60,0,90
1,64,0,0
1,55,0,0
1,55,41,390
1,63,41,0
1,67,41,0
1,67,0,120
1,63,0,0
1,55,0,0
1,65,37,120
1,55,37,0
1,62,37,0
1,62,0,120
1,55,0,0
1,65,0,0
1,55,41,120
1,60,41,0
1,63,41,0
1,63,0,90
1,60,0,0
1,55,0,0
1,62,38,150
1,55,38,0
1,59,38,0
1,59,0,90
1,55,0,0
1,62,0,0
1,55,43,150
1,60,43,0
1,63,43,0
1,63,0,90
1,60,0,0
1,55,0,0
1,65,38,150
1,58,38,0
1,62,38,0
1,62,0,90
1,58,0,0
1,65,0,0
1,58,53,150
1,62,53,0
1,65,53,0
1,65,0,240
1,62,0,0
1,58,0,0
1,63,49,0
1,58,49,0
1,67,49,0
1,67,0,180
1,58,0,0
1,63,0,0
1,58,58,60
1,67,58,0
1,63,58,0
1,63,0,240
1,67,0,0
1,58,0,0
1,62,53,0
1,66,53,0
1,69,53,0
1,69,0,180
1,66,0,0
1,62,0,0
1,69,63,60
1,66,63,0
1,62,63,0
1,62,0,240
1,66,0,0
1,69,0,0
1,62,58,0
1,67,58,0
1,70,58,0
1,70,0,180
1,67,0,0
1,62,0,0
1,70,68,60
1,62,68,0
1,67,68,0
1,67,0,240
1,62,0,0
1,70,0,0
1,62,66,0
1,67,66,0
1,71,66,0
1,71,0,240
1,67,0,0
1,62,0,0
1,67,71,0
1,62,71,0
1,71,71,0
1,71,0,720
1,62,0,0
1,67,0,0
1,65,54,0
1,77,54,0
1,71,54,0
1,71,0,240
1,77,0,0
1,65,0,0
1,64,54,0
1,72,54,0
1,76,54,0
1,76,0,1440
1,72,0,0
1,64,0,0
1,67,60,0
1,67,0,420
1,69,50,0
1,69,0,60
1,67,60,0
1,67,0,160
1,64,57,0
1,64,0,160
1,60,53,0
1,60,0,160
1,67,60,0
1,67,0,360
1,76,56,0
1,76,0,120
1,76,60,0
1,76,0,960
1,72,44,0
1,72,0,240
1,67,59,240
1,67,0,420
1,65,50,0
1,65,0,60
1,64,60,0
1,64,0,160
1,60,56,0
1,60,0,160
1,55,52,0
1,55,0,160
1,60,60,0
1,60,0,160
1,64,57,0
1,64,0,160
1,67,57,0
1,67,0,160
1,55,56,0
1,64,56,0
1,67,56,0
1,67,0,120
1,64,0,0
1,55,0,0
1,55,53,120
1,62,53,0
1,65,53,0
1,65,0,120
1,62,0,0
1,55,0,0
1,55,56,120
1,60,56,0
1,64,56,0
1,64,0,90
1,60,0,0
1,55,0,0
1,55,50,150
1,59,50,0
1,62,50,0
1,62,0,90
1,59,0,0
1,55,0,0
1,55,56,150
1,60,56,0
1,64,56,0
1,64,0,90
1,60,0,0
1,55,0,0
1,55,41,390
1,63,41,0
1,67,41,0
1,67,0,120
1,63,0,0
1,55,0,0
1,55,37,120
1,62,37,0
1,65,37,0
1,65,0,120
1,62,0,0
1,55,0,0
1,55,41,120
1,60,41,0
1,63,41,0
1,63,0,90
1,60,0,0
1,55,0,0
1,55,38,150
1,59,38,0
1,62,38,0
1,62,0,90
1,59,0,0
1,55,0,0
1,55,45,150
1,60,45,0
1,63,45,0
1,63,0,90
1,60,0,0
1,55,0,0
1,58,41,150
1,62,41,0
1,65,41,0
1,65,0,120
1,62,0,0
1,58,0,0
1,58,51,120
1,62,51,0
1,65,51,0
1,65,0,240
1,62,0,0
1,58,0,0
1,58,48,0
1,63,48,0
1,67,48,0
1,67,0,180
1,63,0,0
1,58,0,0
1,58,57,60
1,63,57,0
1,67,57,0
1,67,0,240
1,63,0,0
1,58,0,0
1,62,54,0
1,66,54,0
1,69,54,0
1,69,0,180
1,66,0,0
1,62,0,0
1,62,64,60
1,66,64,0
1,69,64,0
1,69,0,240
1,66,0,0
1,62,0,0
1,62,57,0
1,67,57,0
1,70,57,0
1,70,0,180
1,67,0,0
1,62,0,0
1,62,66,60
1,67,66,0
1,70,66,0
1,70,0,240
1,67,0,0
1,62,0,0
1,62,66,0
1,67,66,0
1,71,66,0
1,71,0,240
1,67,0,0
1,62,0,0
1,62,69,0
1,67,69,0
1,71,69,0
1,71,0,720
1,67,0,0
1,62,0,0
1,65,54,0
1,71,54,0
1,77,54,0
1,77,0,240
1,71,0,0
1,65,0,0
1,64,54,0
1,72,54,0
1,76,54,0
1,76,0,1440
1,72,0,0
1,64,0,0
1,76,54,0
1,76,0,420
1,77,44,0
1,77,0,60
1,76,54,0
1,76,0,160
1,72,50,0
1,72,0,160
1,69,47,0
1,69,0,100
1,74,44,0
1,74,0,60
1,72,54,0
1,72,0,160
1,69,51,0
1,69,0,160
1,64,47,0
1,64,0,160
1,64,54,0
1,69,54,0
1,72,54,0
1,72,0,240
1,69,0,0
1,68,43,0
1,71,51,0
1,71,0,240
1,68,0,0
1,64,0,0
1,68,45,0
1,64,45,0
1,71,54,0
1,71,0,240
1,64,0,0
1,68,0,0
1,66,43,0
1,64,43,0
1,69,51,0
1,69,0,240
1,64,0,0
1,66,0,0
1,64,45,0
1,68,45,0
1,71,54,0
1,71,0,480
1,68,0,0
1,64,0,0
1,64,45,0
1,67,45,0
1,72,54,0
1,72,0,240
1,71,51,0
1,71,0,240
1,67,0,0
1,64,0,0
1,64,45,0
1,67,45,0
1,71,54,0
1,71,0,240
1,67,0,0
1,64,0,0
1,64,44,0
1,67,44,0
1,72,52,0
1,72,0,240
1,67,0,0
1,64,0,0
1,67,45,0
1,71,54,0
1,71,0,240
1,77,53,0
1,77,0,240
1,67,0,0
1,76,54,0
1,76,0,420
1,74,43,0
1,74,0,60
1,72,53,0
1,72,0,160
1,71,51,0
1,71,0,160
1,69,52,0
1,69,0,160
1,71,55,0
1,71,0,480
1,71,68,0
1,71,0,420
1,72,58,0
1,72,0,60
1,71,68,0
1,71,0,160
1,67,66,0
1,67,0,160
1,64,64,0
1,64,0,120
1,79,82,40
1,79,0,240
1,76,72,0
1,76,0,90
1,71,70,150
1,71,0,420
1,72,60,0
1,72,0,60
1,71,71,0
1,71,0,160
1,67,69,0
1,67,0,160
1,64,66,0
1,64,0,120
1,79,85,40
1,79,0,240
1,76,74,0
1,76,0,90
1,83,90,150
1,75,90,0
1,78,90,0
1,78,0,240
1,75,0,0
1,83,0,0
1,71,87,0
1,71,0,90
1,81,70,90
1,81,0,60
1,79,87,0
1,79,0,160
1,78,83,0
1,78,0,160
1,76,78,0
1,76,0,160
1,83,93,0
1,75,93,0
1,78,93,0
1,78,0,240
1,75,0,0
1,83,0,0
1,71,86,0
1,71,0,90
1,81,74,90
1,81,0,60
1,79,89,0
1,79,0,160
1,78,85,0
1,78,0,160
1,76,82,0
1,76,0,160
1,83,95,0
1,75,95,0
1,78,95,0
1,78,0,240
1,75,0,0
1,83,0,0
1,71,89,0
1,71,0,90
1,95,117,150
1,95,0,240
1,83,93,0
1,83,0,90
1,79,45,1590
1,79,0,240
1,76,30,0
1,76,0,120
1,79,43,120
1,79,0,240
1,76,31,0
1,76,0,120
1,79,42,120
1,79,0,240
1,76,31,0
1,76,0,120
1,79,41,120
1,79,0,240
1,76,29,0
1,76,0,120
1,79,38,120
1,79,0,240
1,76,27,0
1,76,0,120
1,79,37,120
1,79,0,240
1,76,26,0
1,76,0,120
1,79,36,120
1,76,36,0
1,76,0,240
1,79,0,0
1,67,27,0
1,67,0,120
1,76,36,120
1,79,36,0
1,79,0,240
1,76,0,0
1,67,27,0
1,67,0,120
1,76,36,120
1,79,36,0
1,79,0,240
1,76,0,0
1,67,27,0
1,67,0,120
1,76,38,120
1,79,38,0
1,79,0,240
1,76,0,0
1,67,29,0
1,67,0,120
1,76,38,120
1,79,38,0
1,79,0,240
1,76,0,0
1,67,27,0
1,67,0,120
1,76,34,120
1,79,34,0
1,79,0,240
1,76,0,0
1,67,26,0
1,67,0,120
1,67,51,120
1,67,0,420
1,69,48,0
1,69,0,60
1,67,57,0
1,67,0,160
1,64,53,0
1,64,0,160
1,60,46,0
1,60,0,160
1,67,57,0
1,67,0,360
1,76,52,0
1,76,0,120
1,76,57,0
1,76,0,960
1,72,35,0
1,72,0,240
1,79,72,240
1,79,0,420
1,77,56,0
1,77,0,60
1,76,68,0
1,76,0,160
1,72,63,0
1,72,0,160
1,67,59,0
1,67,0,160
1,72,69,0
1,72,0,160
1,76,65,0
1,76,0,160
1,79,61,0
1,79,0,160
1,67,70,0
1,76,70,0
1,79,70,0
1,79,0,120
1,76,0,0
1,67,0,0
1,67,66,120
1,74,66,0
1,77,66,0
1,77,0,120
1,74,0,0
1,67,0,0
1,67,70,120
1,72,70,0
1,76,70,0
1,76,0,90
1,72,0,0
1,67,0,0
1,67,63,150
1,71,63,0
1,74,63,0
1,74,0,90
1,71,0,0
1,67,0,0
1,67,70,150
1,72,70,0
1,76,70,0
1,76,0,90
1,72,0,0
1,67,0,0
1,67,45,390
1,67,0,240
1,69,41,0
1,69,0,120
1,71,41,0
1,71,0,120
1,72,45,0
1,72,0,90
1,67,39,150
1,67,0,90
1,72,48,150
1,72,0,90
1,70,67,150
1,82,67,0
1,82,0,120
1,70,0,0
1,70,68,120
1,82,68,0
1,82,0,120
1,70,0,0
1,87,73,120
1,75,73,0
1,75,0,120
1,87,0,0
1,87,78,120
1,75,78,0
1,75,0,120
1,87,0,0
1,86,74,120
1,74,74,0
1,74,0,120
1,86,0,0
1,74,81,120
1,86,81,0
1,86,0,120
1,74,0,0
1,91,79,120
1,79,79,0
1,79,0,120
1,91,0,0
1,79,83,120
1,91,83,0
1,91,0,120
1,79,0,0
1,89,70,120
1,77,70,0
1,77,0,120
1,89,0,0
1,89,66,120
1,77,66,0
1,77,0,720
1,89,0,0
1,71,50,0
1,83,50,0
1,83,0,240
1,71,0,0
1,84,45,0
1,72,45,0
1,72,0,1440
1,84,0,0
1,76,54,0
1,76,0,420
1,77,44,0
1,77,0,60
1,76,54,0
1,76,0,160
1,72,50,0
1,72,0,160
1,69,47,0
1,69,0,100
1,74,44,0
1,74,0,60
1,72,54,0
1,72,0,160
1,69,51,0
1,69,0,160
1,64,47,0
1,64,0,160
1,64,45,0
1,69,45,0
1,72,54,0
1,72,0,240
1,69,0,0
1,68,43,0
1,71,51,0
1,71,0,240
1,68,0,0
1,64,0,0
1,68,45,0
1,64,45,0
1,71,54,0
1,71,0,240
1,64,0,0
1,68,0,0
1,66,43,0
1,64,43,0
1,69,51,0
1,69,0,240
1,64,0,0
1,66,0,0
1,64,45,0
1,68,45,0
1,71,54,0
1,71,0,480
1,68,0,0
1,64,0,0
1,64,45,0
1,67,45,0
1,72,54,0
1,72,0,240
1,71,51,0
1,71,0,240
1,67,0,0
1,64,0,0
1,64,45,0
1,67,45,0
1,71,54,0
1,71,0,240
1,67,0,0
1,64,0,0
1,64,44,0
1,67,44,0
1,72,52,0
1,72,0,240
1,67,0,0
1,64,0,0
1,67,45,0
1,71,54,0
1,71,0,240
1,77,53,0
1,77,0,240
1,67,0,0
1,76,54,0
1,76,0,420
1,74,43,0
1,74,0,60
1,72,53,0
1,72,0,160
1,71,51,0
1,71,0,160
1,69,52,0
1,69,0,160
1,71,55,0
1,71,0,480
1,71,68,0
1,71,0,420
1,72,58,0
1,72,0,60
1,71,68,0
1,71,0,160
1,67,66,0
1,67,0,160
1,64,64,0
1,64,0,120
1,79,82,40
1,79,0,240
1,76,72,0
1,76,0,90
1,71,70,150
1,71,0,420
1,72,56,0
1,72,0,60
1,71,71,0
1,71,0,160
1,67,69,0
1,67,0,160
1,64,66,0
1,64,0,120
1,79,85,40
1,79,0,240
1,76,74,0
1,76,0,90
1,83,90,150
1,75,90,0
1,78,90,0
1,78,0,240
1,75,0,0
1,83,0,0
1,71,87,0
1,71,0,90
1,81,71,90
1,81,0,60
1,79,87,0
1,79,0,160
1,78,83,0
1,78,0,160
1,76,78,0
1,76,0,160
1,83,93,0
1,75,93,0
1,78,93,0
1,78,0,240
1,75,0,0
1,83,0,0
1,71,86,0
1,71,0,90
1,81,74,90
1,81,0,60
1,79,89,0
1,79,0,160
1,78,85,0
1,78,0,160
1,76,82,0
1,76,0,160
1,83,95,0
1,75,95,0
1,78,95,0
1,78,0,240
1,75,0,0
1,83,0,0
1,71,89,0
1,71,0,90
1,95,114,150
1,95,0,240
1,83,93,0
1,83,0,90
1,79,45,1590
1,79,0,240
1,76,30,0
1,76,0,120
1,79,43,120
1,79,0,240
1,76,31,0
1,76,0,120
1,79,42,120
1,79,0,240
1,76,31,0
1,76,0,120
1,79,41,120
1,79,0,240
1,76,29,0
1,76,0,120
1,79,38,120
1,79,0,240
1,76,27,0
1,76,0,120
1,79,37,120
1,79,0,240
1,76,26,0
1,76,0,120
1,79,36,120
1,76,36,0
1,76,0,240
1,79,0,0
1,67,27,0
1,67,0,120
1,76,36,120
1,79,36,0
1,79,0,240
1,76,0,0
1,67,27,0
1,67,0,120
1,76,36,120
1,79,36,0
1,79,0,240
1,76,0,0
1,67,27,0
1,67,0,120
1,76,38,120
1,79,38,0
1,79,0,240
1,76,0,0
1,67,29,0
1,67,0,120
1,76,38,120
1,79,38,0
1,79,0,240
1,76,0,0
1,67,27,0
1,67,0,120
1,76,34,120
1,79,34,0
1,79,0,240
1,76,0,0
1,67,26,0
1,67,0,120
1,67,51,120
1,67,0,420
1,69,48,0
1,69,0,60
1,67,57,0
1,67,0,160
1,64,53,0
1,64,0,160
1,60,46,0
1,60,0,160
1,67,57,0
1,67,0,360
1,76,52,0
1,76,0,120
1,76,57,0
1,76,0,960
1,72,35,0
1,72,0,240
1,79,72,240
1,79,0,420
1,77,56,0
1,77,0,60
1,76,68,0
1,76,0,160
1,72,63,0
1,72,0,160
1,67,59,0
1,67,0,160
1,72,69,0
1,72,0,160
1,76,65,0
1,76,0,160
1,79,61,0
1,79,0,160
1,67,70,0
1,76,70,0
1,79,70,0
1,79,0,120
1,76,0,0
1,67,0,0
1,67,66,120
1,74,66,0
1,77,66,0
1,77,0,120
1,74,0,0
1,67,0,0
1,67,70,120
1,72,70,0
1,76,70,0
1,76,0,90
1,72,0,0
1,67,0,0
1,67,63,150
1,71,63,0
1,74,63,0
1,74,0,90
1,71,0,0
1,67,0,0
1,67,70,150
1,72,70,0
1,76,70,0
1,76,0,90
1,72,0,0
1,67,0,0
1,67,45,390
1,67,0,240
1,69,41,0
1,69,0,120
1,71,41,0
1,71,0,120
1,72,45,0
1,72,0,90
1,67,39,150
1,67,0,90
1,72,48,150
1,72,0,90
1,70,64,150
1,82,64,0
1,82,0,120
1,70,0,0
1,70,66,120
1,82,66,0
1,82,0,120
1,70,0,0
1,87,71,120
1,75,71,0
1,75,0,120
1,87,0,0
1,87,74,120
1,75,74,0
1,75,0,120
1,87,0,0
1,86,70,120
1,74,70,0
1,74,0,120
1,86,0,0
1,74,79,120
1,86,79,0
1,86,0,120
1,74,0,0
1,91,81,120
1,79,81,0
1,79,0,120
1,91,0,0
1,79,85,120
1,91,85,0
1,91,0,120
1,79,0,0
1,89,70,120
1,77,70,0
1,77,0,120
1,89,0,0
