track,note,velocity,time
0,48,63,1200
0,48,0,3
0,48,81,17
0,48,0,3
0,45,72,217
0,45,0,3
0,45,93,17
0,45,0,3
0,41,81,217
0,41,0,3
0,41,106,17
0,41,0,3
0,64,51,192
0,59,51,0
0,54,51,0
0,47,51,0
0,40,51,0
0,28,94,25
0,49,74,0
0,36,100,0
0,36,0,3
0,49,0,0
0,28,0,237
0,28,94,0
0,76,48,0
0,71,48,0
0,71,0,100
0,76,0,0
0,28,0,20
0,28,94,0
0,28,0,120
0,28,94,0
0,66,48,0
0,71,48,0
0,42,74,0
0,42,0,3
0,71,0,97
0,66,0,0
0,28,0,140
0,28,94,0
0,61,48,0
0,66,48,0
0,66,0,100
0,61,0,0
0,28,0,20
0,28,94,0
0,28,0,120
0,28,94,0
0,28,0,240
0,28,94,0
0,71,48,0
0,76,48,0
0,76,0,100
0,71,0,0
0,28,0,20
0,28,94,0
0,28,0,120
0,28,94,0
0,66,48,0
0,71,48,0
0,42,74,0
0,38,100,0
0,38,0,3
0,42,0,0
0,71,0,97
0,66,0,0
0,54,0,115
0,56,51,0
0,28,0,25
0,28,94,0
0,61,48,0
0,66,48,0
0,66,0,100
0,61,0,0
0,28,0,20
0,32,94,0
0,56,0,95
0,40,0,0
0,47,0,0
0,57,51,0
0,52,51,0
0,45,51,0
0,32,0,25
0,33,94,0
0,36,100,0
0,36,0,3
0,33,0,237
0,33,94,0
0,71,48,0
0,76,48,0
0,76,0,100
0,71,0,0
0,33,0,20
0,33,94,0
0,33,0,120
0,33,94,0
0,66,48,0
0,71,48,0
0,42,74,0
0,42,0,3
0,71,0,97
0,66,0,0
0,45,0,115
0,47,51,0
0,33,0,25
0,35,94,0
0,59,48,0
0,64,48,0
0,64,0,100
0,59,0,0
0,64,48,140
0,69,48,0
0,69,0,100
0,64,0,0
0,35,0,140
0,35,94,0
0,71,48,0
0,76,48,0
0,76,0,100
0,71,0,0
0,35,0,20
0,35,94,0
0,35,0,120
0,37,94,0
0,66,48,0
0,71,48,0
0,42,74,0
0,38,100,0
0,38,0,3
0,42,0,0
0,71,0,97
0,66,0,0
0,37,0,20
0,35,94,0
0,36,100,0
0,36,0,3
0,69,48,117
0,64,48,0
0,64,0,100
0,69,0,0
0,47,0,115
0,52,0,0
0,64,0,0
0,59,0,0
0,57,0,0
0,64,51,0
0,59,51,0
0,54,51,0
0,47,51,0
0,40,51,0
0,35,0,25
0,28,94,0
0,36,100,0
0,36,0,3
0,28,0,237
0,28,94,0
0,76,48,0
0,71,48,0
0,71,0,100
0,76,0,0
0,28,0,20
0,28,94,0
0,28,0,120
0,28,94,0
0,66,48,0
0,71,48,0
0,42,74,0
0,42,0,3
0,71,0,97
0,66,0,0
0,28,0,140
0,28,94,0
0,61,48,0
0,66,48,0
0,66,0,100
0,61,0,0
0,28,0,20
0,28,94,0
0,28,0,120
0,28,94,0
0,28,0,240
0,28,94,0
0,71,48,0
0,76,48,0
0,76,0,100
0,71,0,0
0,28,0,20
0,28,94,0
0,28,0,120
0,28,94,0
0,66,48,0
0,71,48,0
0,42,74,0
0,38,100,0
0,38,0,3
0,42,0,0
0,71,0,97
0,66,0,0
0,54,0,115
0,56,51,0
0,28,0,25
0,28,94,0
0,61,48,0
0,66,48,0
0,66,0,100
0,61,0,0
0,28,0,20
0,32,94,0
0,56,0,95
0,40,0,0
0,47,0,0
0,57,51,0
0,52,51,0
0,45,51,0
0,32,0,25
0,33,94,0
0,36,100,0
0,36,0,3
0,33,0,237
0,33,94,0
0,71,48,0
0,76,48,0
0,76,0,100
0,71,0,0
0,33,0,20
0,33,94,0
0,33,0,120
0,33,94,0
0,66,48,0
0,71,48,0
0,42,74,0
0,42,0,3
0,71,0,97
0,66,0,0
0,45,0,115
0,47,51,0
0,33,0,25
0,35,94,0
0,59,48,0
0,64,48,0
0,64,0,100
0,59,0,0
0,55,100,20
0,64,48,120
0,69,48,0
0,69,0,100
0,64,0,0
0,35,0,140
0,35,94,0
0,71,48,0
0,76,48,0
0,76,0,100
0,71,0,0
0,35,0,20
0,35,94,0
0,35,0,120
0,37,94,0
0,66,48,0
0,71,48,0
0,42,74,0
0,38,100,0
0,38,0,3
0,42,0,0
0,71,0,97
0,66,0,0
0,37,0,20
0,35,94,0
0,36,100,0
0,36,0,3
0,68,62,113
0,69,48,4
0,64,48,0
0,73,48,67
0,64,0,33
0,69,0,0
0,78,66,20
0,47,0,95
0,52,0,0
0,64,0,0
0,59,0,0
0,57,0,0
0,64,51,0
0,59,51,0
0,54,51,0
0,47,51,0
0,40,51,0
0,83,66,1
0,55,0,23
0,35,0,1
0,28,94,0
0,49,74,0
0,36,100,0
0,36,0,3
0,49,0,0
0,28,0,15
0,28,94,0
0,76,48,0
0,71,48,0
0,71,0,25
0,76,0,0
0,28,0,20
0,28,94,0
0,28,0,30
0,28,94,0
0,68,64,0
0,66,48,0
0,71,48,0
0,42,74,0
0,42,0,3
0,71,0,40
0,66,0,0
0,69,70,30
0,68,0,5
0,28,0,40
0,28,94,0
0,61,48,0
0,66,48,0
0,71,75,10
0,66,0,0
0,61,0,0
0,28,0,20
0,28,94,0
0,69,0,5
0,28,0,15
0,28,94,0
0,28,0,30
0,28,94,0
0,71,48,0
0,76,48,0
0,76,0,40
0,71,0,0
0,28,0,15
0,28,94,0
0,28,0,45
0,28,94,0
0,66,48,0
0,71,48,0
0,42,74,0
0,38,100,0
0,38,0,3
0,42,0,0
0,71,0,10
0,66,0,0
0,54,0,35
0,56,51,0
0,28,0,15
0,28,94,0
0,61,48,0
0,66,48,0
0,68,0,26
0,66,0,25
0,61,0,0
0,28,0,20
0,32,94,0
0,56,0,5
0,40,0,0
0,47,0,0
0,57,51,0
0,52,51,0
0,45,51,0
0,32,0,25
0,33,94,0
0,36,100,0
0,36,0,3
0,73,0,229
0,33,0,8
0,33,94,0
0,71,48,0
0,76,48,0
0,83,0,30
0,78,0,8
0,76,0,62
0,71,0,0
0,33,0,20
0,33,94,0
0,33,0,120
0,33,94,0
0,66,48,0
0,71,48,0
0,42,74,0
0,42,0,3
0,71,0,97
0,66,0,0
0,45,0,115
0,47,51,0
0,33,0,25
0,35,94,0
0,59,48,0
0,64,48,0
0,64,0,100
0,59,0,0
0,64,48,140
0,69,48,0
0,69,0,100
0,64,0,0
0,71,0,120
0,35,0,20
0,35,94,0
0,69,75,0
0,71,48,0
0,76,48,0
0,76,0,100
0,71,0,0
0,35,0,20
0,35,94,0
0,35,0,120
0,37,94,0
0,66,48,0
0,71,48,0
0,42,74,0
0,38,100,0
0,38,0,3
0,42,0,0
0,71,0,97
0,66,0,0
0,37,0,20
0,35,94,0
0,36,100,0
0,36,0,3
0,69,0,117
0,68,75,0
0,69,48,0
0,64,48,0
0,64,0,100
0,69,0,0
0,47,0,115
0,52,0,0
0,64,0,0
0,59,0,0
0,57,0,0
0,64,51,0
0,59,51,0
0,52,51,0
0,47,51,0
0,40,51,0
0,35,0,25
0,28,94,0
0,68,0,0
0,66,70,0
0,36,100,0
0,36,0,3
0,28,0,237
0,28,94,0
0,71,48,0
0,76,48,0
0,76,0,100
0,71,0,0
0,28,0,20
0,28,94,0
0,28,0,120
0,28,94,0
0,66,0,0
0,64,65,0
0,66,48,0
0,71,48,0
0,42,74,0
0,42,0,3
0,71,0,97
0,66,0,0
0,28,0,140
0,28,94,0
0,61,48,0
0,66,48,0
0,66,0,100
0,61,0,0
0,28,0,20
0,28,94,0
0,28,0,120
0,28,94,0
0,28,0,240
0,28,94,0
0,71,48,0
0,76,48,0
0,76,0,100
0,71,0,0
0,28,0,20
0,28,94,0
0,28,0,120
0,28,94,0
0,66,48,0
0,71,48,0
0,42,74,0
0,38,100,0
0,38,0,3
0,42,0,0
0,71,0,97
0,66,0,0
0,52,0,115
0,56,51,0
0,28,0,25
0,28,94,0
0,61,48,0
0,66,48,0
0,66,0,100
0,61,0,0
0,28,0,20
0,32,94,0
0,56,0,95
0,40,0,0
0,47,0,0
0,57,51,0
0,52,51,0
0,45,51,0
0,32,0,25
0,33,94,0
0,36,100,0
0,36,0,3
0,33,0,237
0,33,94,0
0,71,48,0
0,76,48,0
0,76,0,100
0,71,0,0
0,33,0,20
0,33,94,0
0,33,0,120
0,33,94,0
0,66,48,0
0,71,48,0
0,59,65,0
0,56,65,0
0,45,65,0
0,42,74,0
0,42,0,3
0,71,0,97
0,66,0,0
0,45,0,115
0,47,51,0
0,33,0,25
0,35,94,0
0,61,48,0
0,66,48,0
0,45,0,0
0,56,0,0
0,59,0,0
0,61,55,0
0,57,55,0
0,47,55,0
0,66,0,100
0,61,0,0
0,45,63,240
0,45,0,3
0,45,82,17
0,45,0,3
0,41,80,217
0,41,0,3
0,41,106,17
0,41,0,3
0,64,0,217
0,47,0,215
0,52,0,0
0,64,0,0
0,59,0,0
0,57,0,0
0,64,51,0
0,59,51,0
0,54,51,0
0,47,51,0
0,40,51,0
0,35,0,0
0,28,94,0
0,47,0,0
0,57,0,0
0,61,0,0
0,59,104,0
0,49,74,0
0,36,100,0
0,36,0,3
0,49,0,0
0,59,0,67
0,28,0,170
0,28,94,0
0,64,104,0
0,64,0,70
0,28,0,50
0,28,94,0
0,64,104,0
0,64,0,70
0,56,90,0
0,28,0,0
0,28,94,0
0,66,104,0
0,42,74,0
0,42,0,3
0,66,0,67
0,66,104,50
0,66,0,70
0,56,0,0
0,59,90,0
0,28,0,0
0,28,94,0
0,64,104,0
0,64,0,70
0,28,0,50
0,28,94,0
0,64,104,0
0,64,0,70
0,59,0,0
0,59,90,0
0,28,0,0
0,28,94,0
0,59,104,0
0,59,0,70
0,28,0,170
0,28,94,0
0,64,104,0
0,64,0,70
0,28,0,50
0,28,94,0
0,64,104,0
0,64,0,70
0,59,0,0
0,59,90,0
0,28,0,0
0,28,94,0
0,66,104,0
0,42,74,0
0,38,100,0
0,38,0,3
0,42,0,0
0,66,0,67
0,66,104,50
0,66,0,70
0,54,0,25
0,56,51,0
0,59,0,0
0,59,90,0
0,28,0,0
0,28,94,0
0,64,104,0
0,64,0,70
0,28,0,50
0,32,94,0
0,64,104,0
0,64,0,70
0,56,0,25
0,40,0,0
0,47,0,0
0,57,51,0
0,52,51,0
0,45,51,0
0,59,0,0
0,61,90,0
0,32,0,0
0,33,94,0
0,59,104,0
0,36,100,0
0,36,0,3
0,59,0,67
0,61,0,0
0,59,90,0
0,33,0,0
0,33,94,0
0,64,104,0
0,64,0,70
0,33,0,50
0,33,94,0
0,64,104,0
0,64,0,70
0,33,0,50
0,33,94,0
0,66,104,0
0,42,74,0
0,42,0,3
0,66,0,67
0,66,104,50
0,66,0,70
0,45,0,25
0,47,51,0
0,59,0,0
0,59,90,0
0,33,0,0
0,35,94,0
0,64,104,0
0,64,0,70
0,64,104,50
0,64,0,70
0,59,104,50
0,59,0,70
0,35,0,170
0,35,94,0
0,64,104,0
0,64,0,70
0,35,0,50
0,35,94,0
0,64,104,0
0,64,0,70
0,35,0,50
0,37,94,0
0,66,104,0
0,42,74,0
0,38,100,0
0,38,0,3
0,42,0,0
0,66,0,67
0,37,0,50
0,35,94,0
0,66,104,0
0,36,100,0
0,36,0,3
0,66,0,67
0,64,104,50
0,64,0,70
0,64,104,50
0,64,0,70
0,47,0,25
0,52,0,0
0,64,0,0
0,59,0,0
0,57,0,0
0,64,51,0
0,59,51,0
0,54,51,0
0,47,51,0
0,40,51,0
0,35,0,25
0,28,94,0
0,59,104,0
0,36,100,0
0,36,0,3
0,59,0,67
0,59,0,170
0,28,0,0
0,28,94,0
0,64,104,0
0,64,0,70
0,28,0,50
0,28,94,0
0,64,104,0
0,64,0,70
0,56,90,0
0,28,0,0
0,28,94,0
0,66,104,0
0,42,74,0
0,42,0,3
0,66,0,67
0,66,104,50
0,66,0,70
0,56,0,0
0,59,90,0
0,28,0,0
0,28,94,0
0,64,104,0
0,64,0,70
0,28,0,50
0,28,94,0
0,64,104,0
0,64,0,70
0,59,0,0
0,59,90,0
0,28,0,0
0,28,94,0
0,59,104,0
0,59,0,70
0,59,0,0
0,59,90,0
0,28,0,0
0,28,94,0
0,64,104,0
0,64,0,70
0,28,0,50
0,28,94,0
0,64,104,0
0,64,0,70
0,59,0,0
0,59,90,0
0,28,0,0
0,28,94,0
0,66,104,0
0,42,74,0
0,38,100,0
0,38,0,3
0,42,0,0
0,66,0,67
0,66,104,50
0,66,0,70
0,54,0,25
0,56,51,0
0,59,0,0
0,61,90,0
0,28,0,0
0,28,94,0
0,64,104,0
0,64,0,70
0,28,0,50
0,32,94,0
0,64,104,0
0,64,0,70
0,56,0,25
0,40,0,0
0,47,0,0
0,57,51,0
0,52,51,0
0,45,51,0
0,32,0,25
0,33,94,0
0,59,104,0
0,36,100,0
0,36,0,3
0,59,0,67
0,61,0,0
0,64,90,0
0,33,0,0
0,33,94,0
0,64,104,0
0,64,0,70
0,33,0,50
0,33,94,0
0,64,104,0
0,64,0,70
0,64,0,0
0,64,90,0
0,33,0,0
0,33,94,0
0,66,104,0
0,42,74,0
0,42,0,3
0,66,0,67
0,66,104,50
0,66,0,70
0,45,0,25
0,47,51,0
0,64,0,0
0,66,90,0
0,33,0,0
0,35,94,0
0,64,104,0
0,64,0,70
0,64,104,50
0,64,0,70
0,59,104,50
0,59,0,70
0,35,0,170
0,35,94,0
0,64,104,0
0,64,0,70
0,35,0,50
0,35,94,0
0,64,104,0
0,64,0,70
0,66,0,50
0,64,90,0
0,35,0,0
0,37,94,0
0,66,104,0
0,42,74,0
0,38,100,0
0,38,0,3
0,42,0,0
0,66,0,67
0,37,0,50
0,35,94,0
0,66,104,0
0,36,100,0
0,36,0,3
0,66,0,67
0,64,104,50
0,64,0,70
0,64,104,50
0,64,0,70
0,47,0,25
0,52,0,0
0,64,0,0
0,59,0,0
0,57,0,0
0,64,51,0
0,59,51,0
0,54,51,0
0,47,51,0
0,40,51,0
0,35,0,25
0,28,94,0
0,59,104,0
0,36,100,0
0,36,0,3
0,59,0,67
0,28,0,170
0,28,94,0
0,64,104,0
0,64,0,70
0,28,0,50
0,28,94,0
0,64,104,0
0,64,0,70
0,64,0,0
0,56,90,0
0,28,0,0
0,28,94,0
0,66,104,0
0,42,74,0
0,42,0,3
0,66,0,67
0,66,104,50
0,66,0,70
0,56,0,0
0,59,90,0
0,28,0,0
0,28,94,0
0,64,104,0
0,64,0,70
0,28,0,50
0,28,94,0
0,64,104,0
0,64,0,70
0,59,0,0
0,64,90,0
0,28,0,0
0,28,94,0
0,59,104,0
0,59,0,70
0,64,0,0
0,68,90,0
0,28,0,0
0,28,94,0
0,64,104,0
0,64,0,70
0,28,0,50
0,28,94,0
0,64,104,0
0,64,0,70
0,28,0,50
0,28,94,0
0,66,104,0
0,42,74,0
0,38,100,0
0,38,0,3
0,42,0,0
0,66,0,67
0,66,104,50
0,66,0,70
0,54,0,25
0,56,51,0
0,68,0,0
0,69,90,0
0,28,0,0
0,28,94,0
0,64,104,0
0,64,0,70
0,28,0,50
0,32,94,0
0,64,104,0
0,64,0,70
0,56,0,25
0,40,0,0
0,47,0,0
0,57,51,0
0,52,51,0
0,45,51,0
0,32,0,25
0,33,94,0
0,59,104,0
0,36,100,0
0,36,0,3
0,59,0,67
0,69,0,0
0,68,90,0
0,33,0,0
0,33,94,0
0,64,104,0
0,64,0,70
0,33,0,50
0,33,94,0
0,64,104,0
0,64,0,70
0,33,0,50
0,33,94,0
0,66,104,0
0,42,74,0
0,42,0,3
0,66,0,67
0,66,104,50
0,66,0,70
0,45,0,25
0,47,51,0
0,68,0,0
0,66,90,0
0,33,0,0
0,35,94,0
0,64,104,0
0,64,0,70
0,64,104,50
0,64,0,70
0,59,104,50
0,59,0,70
0,66,0,0
0,64,90,0
0,35,0,0
0,35,94,0
0,64,104,0
0,64,0,70
0,35,0,50
0,35,94,0
0,64,104,0
0,64,0,70
0,35,0,50
0,37,94,0
0,66,104,0
0,42,74,0
0,38,100,0
