track,note,velocity,time
0,42,70,0
0,36,85,0
0,36,0,3
0,42,0,32
0,39,70,13
0,39,0,35
0,37,70,13
0,44,95,0
0,44,0,3
0,37,0,32
0,42,70,13
0,42,0,35
0,42,70,13
0,36,85,0
0,36,0,3
0,42,0,32
0,39,70,13
0,39,0,35
0,37,70,13
0,44,95,0
0,44,0,3
0,37,0,32
0,39,70,13
0,39,0,35
0,42,70,13
0,36,85,0
0,36,0,3
0,42,0,32
0,39,70,13
0,39,0,35
0,37,70,13
0,44,95,0
0,44,0,3
0,37,0,32
0,42,70,13
0,42,0,35
0,42,70,13
0,36,85,0
0,36,0,3
0,42,0,32
0,39,70,13
0,39,0,35
0,37,70,13
0,44,95,0
0,44,0,3
0,37,0,32
0,39,70,13
0,39,0,35
0,42,70,13
0,36,85,0
0,36,0,3
0,42,0,32
0,39,70,13
0,66,68,0
0,58,76,0
0,61,80,0
0,58,76,0
0,61,84,0
0,66,68,0
0,63,72,0
0,61,0,18
0,58,0,0
0,58,0,2
0,63,0,1
0,61,0,1
0,66,0,0
0,66,0,1
0,39,0,12
0,37,70,13
0,44,95,0
0,44,0,3
0,37,0,32
0,42,70,13
0,42,0,35
0,42,70,13
0,66,66,0
0,58,72,0
0,61,88,0
0,66,66,0
0,58,76,0
0,63,66,0
0,61,76,0
0,36,85,0
0,36,0,3
0,58,0,13
0,61,0,3
0,61,0,0
0,58,0,0
0,66,0,3
0,63,0,0
0,66,0,0
0,42,0,13
0,39,70,13
0,39,0,35
0,37,70,13
0,44,95,0
0,44,0,3
0,37,0,32
0,39,70,13
0,39,0,35
0,42,70,13
0,58,80,0
0,61,84,0
0,66,72,0
0,66,66,0
0,63,68,0
0,58,80,0
0,61,84,0
0,36,85,0
0,36,0,3
0,61,0,14
0,58,0,0
0,61,0,2
0,58,0,0
0,66,0,2
0,63,0,2
0,66,0,0
0,42,0,12
0,39,70,13
0,39,0,35
0,37,70,13
0,44,95,0
0,44,0,3
0,37,0,32
0,42,70,13
0,58,68,0
0,61,80,0
0,66,52,0
0,61,68,0
0,58,76,0
0,63,64,0
0,66,68,0
0,58,0,18
0,58,0,0
0,61,0,1
0,66,0,1
0,61,0,0
0,66,0,1
0,63,0,1
0,42,0,13
0,42,70,13
0,40,95,0
0,36,85,0
0,36,0,3
0,40,0,0
0,40,78,21
0,40,0,3
0,42,0,8
0,39,70,13
0,44,85,0
0,40,86,0
0,40,0,3
0,44,0,0
0,61,82,0
0,61,0,14
0,39,0,16
0,37,70,13
0,44,85,0
0,40,95,0
0,61,78,0
0,40,0,0
0,44,0,0
0,61,0,13
0,37,0,19
0,61,78,0
0,39,70,1
0,46,85,0
0,46,0,3
0,61,0,12
0,39,0,20
0,68,87,0
0,42,70,2
0,61,64,0
0,66,56,0
0,58,72,0
0,58,64,0
0,61,66,0
0,63,76,0
0,66,76,0
0,42,85,0
0,49,76,0
0,36,85,0
0,36,0,3
0,49,0,0
0,42,0,0
0,61,0,1
0,66,0,0
0,58,0,0
0,61,0,0
0,58,0,0
0,66,0,1
0,63,0,0
0,42,0,0
0,39,70,12
0,44,85,0
0,68,0,3
0,44,0,0
0,39,0,32
0,68,82,0
0,37,70,0
0,42,85,0
0,40,95,0
0,40,0,3
0,42,0,0
0,37,0,32
0,68,100,0
0,42,70,0
0,61,64,0
0,66,60,0
0,58,68,0
0,63,64,0
0,66,56,0
0,61,62,0
0,58,56,0
0,44,85,0
0,44,0,3
0,61,0,15
0,58,0,1
0,61,0,0
0,63,0,1
0,58,0,1
0,66,0,1
0,66,0,0
0,42,0,13
0,68,0,4
0,68,0,9
0,42,70,0
0,36,85,0
0,42,85,0
0,42,0,3
0,36,0,0
0,42,0,32
0,66,70,0
0,39,70,0
0,44,85,0
0,44,0,3
0,66,0,8
0,39,0,24
0,66,92,0
0,37,70,0
0,42,85,0
0,40,95,0
0,40,0,3
0,42,0,0
0,37,0,0
0,39,70,0
0,44,85,0
0,44,0,1
0,39,0,0
0,42,70,0
0,61,66,0
0,66,64,0
0,58,72,0
0,58,60,0
0,61,62,0
0,63,64,0
0,66,62,0
0,36,85,0
0,42,85,0
0,42,0,0
0,36,0,0
0,61,0,0
0,63,0,1
0,58,0,0
0,58,0,0
0,61,0,0
0,66,0,1
0,66,0,2
0,42,0,11
0,39,70,0
0,44,85,0
0,44,0,0
0,66,0,1
0,39,0,11
0,37,70,13
0,40,95,0
0,42,85,0
0,42,0,3
0,40,0,0
0,37,0,32
0,42,70,13
0,66,58,0
0,58,66,0
0,61,64,0
0,63,62,0
0,58,64,0
0,66,60,0
0,61,62,0
0,44,85,0
0,44,0,3
0,61,0,15
0,58,0,0
0,66,0,1
0,61,0,0
0,58,0,1
0,63,0,1
0,66,0,2
0,42,0,12
0,42,70,13
0,36,85,0
0,42,85,0
0,42,0,3
0,36,0,0
0,42,0,32
0,61,66,0
0,39,70,0
0,44,85,0
0,44,0,3
0,61,0,6
0,39,0,26
0,61,52,0
0,37,70,0
0,40,95,0
0,42,85,0
0,42,0,3
0,40,0,0
0,61,0,5
0,37,0,27
0,61,70,0
0,39,70,0
0,44,85,0
0,44,0,3
0,61,0,13
0,39,0,19
0,68,74,0
0,42,70,0
0,58,62,0
0,66,54,0
0,61,58,0
0,61,56,0
0,66,58,0
0,58,64,0
0,63,56,0
0,42,85,0
0,36,85,0
0,36,0,3
0,42,0,0
0,61,0,0
0,66,0,0
0,58,0,0
0,61,0,0
0,66,0,1
0,63,0,0
0,58,0,3
0,42,0,6
0,68,0,11
0,39,70,2
0,44,85,0
0,44,0,3
0,39,0,32
0,68,78,0
0,37,70,0
0,40,95,0
0,42,85,0
0,42,0,3
0,40,0,0
0,37,0,32
0,68,100,0
0,42,70,0
0,66,66,0
0,61,62,0
0,58,64,0
0,61,66,0
0,63,68,0
0,58,68,0
0,66,66,0
0,44,85,0
0,44,0,3
0,61,0,6
0,58,0,3
0,58,0,1
0,61,0,0
0,66,0,1
0,66,0,1
0,63,0,0
0,42,0,12
0,68,0,13
0,42,70,0
0,36,85,0
0,42,85,0
0,42,0,3
0,36,0,0
0,42,0,32
0,70,58,13
0,39,70,0
0,44,85,0
0,68,0,1
0,44,0,2
0,39,0,32
0,70,0,6
0,66,74,7
0,37,70,0
0,42,85,0
0,40,95,0
0,40,0,3
0,42,0,0
0,37,0,0
0,39,70,0
0,44,85,0
0,44,0,1
0,39,0,1
0,42,70,1
0,61,66,0
0,66,44,0
0,58,80,0
0,66,72,0
0,63,66,0
0,58,72,0
0,61,72,0
0,42,85,0
0,36,85,0
0,36,0,0
0,42,0,0
0,66,0,1
0,61,0,1
0,58,0,0
0,66,0,1
0,63,0,0
0,61,0,0
0,58,0,2
0,42,0,4
0,39,70,0
0,44,85,0
0,44,0,3
0,39,0,10
0,66,0,2
0,37,70,0
0,40,95,0
0,42,85,0
0,42,0,0
0,40,0,0
0,37,0,25
0,42,70,13
0,66,64,0
0,61,62,0
0,58,60,0
0,61,62,0
0,63,68,0
0,66,64,0
0,58,68,0
0,44,85,0
0,44,0,3
0,61,0,17
0,58,0,1
0,58,0,0
0,61,0,0
0,63,0,2
0,66,0,2
0,66,0,2
0,42,0,8
0,42,70,13
0,36,85,0
0,42,85,0
0,42,0,3
0,36,0,0
0,42,0,32
0,39,70,13
0,44,85,0
0,44,0,3
0,39,0,32
0,37,70,13
0,40,95,0
0,42,85,0
0,42,0,3
0,40,0,0
0,37,0,32
0,39,70,13
0,44,85,0
0,44,0,3
0,39,0,32
0,44,70,13
0,59,62,0
0,63,60,0
0,68,64,0
0,66,56,0
0,59,64,0
0,68,62,0
0,63,58,0
0,57,78,0
0,42,85,0
0,36,85,0
0,36,0,3
0,42,0,0
0,57,0,0
0,59,0,22
0,59,0,1
0,63,0,0
0,66,0,1
0,63,0,1
0,68,0,2
0,68,0,0
0,44,0,5
0,44,70,13
0,44,85,0
0,44,0,3
0,44,0,1
0,68,78,0
0,44,70,0
0,42,85,0
0,40,95,0
0,40,0,0
0,42,0,0
0,68,0,4
0,44,0,9
0,68,74,0
0,44,70,0
0,63,56,0
0,59,66,0
0,68,66,0
0,59,66,0
0,66,62,0
0,63,62,0
0,68,68,0
0,44,85,0
0,44,0,3
0,66,0,18
0,59,0,0
0,59,0,1
0,63,0,1
0,68,0,1
0,63,0,1
0,68,0,2
0,68,0,2
0,44,0,6
0,68,78,0
0,44,70,0
0,42,85,0
0,36,85,0
0,36,0,3
0,42,0,0
0,68,0,27
0,44,0,5
0,68,78,0
0,44,70,0
0,44,85,0
0,44,0,3
0,68,0,27
0,44,0,5
0,42,70,13
0,40,95,0
0,42,85,0
0,42,0,3
0,40,0,0
0,42,0,32
0,68,78,0
0,44,70,0
0,44,85,0
0,44,0,3
0,68,0,27
0,44,0,5
0,32,70,13
0,59,62,0
0,63,54,0
0,68,64,0
0,66,64,0
0,63,64,0
0,59,68,0
0,68,76,0
0,42,85,0
0,36,85,0
0,36,0,3
0,42,0,0
0,59,0,19
0,63,0,1
0,66,0,0
0,63,0,0
0,59,0,3
0,68,0,1
0,68,0,0
0,32,0,0
0,66,70,0
0,32,70,0
0,44,85,0
0,44,0,0
0,32,0,21
0,66,0,12
0,32,70,1
0,42,85,0
0,40,95,0
0,40,0,3
0,42,0,0
0,32,0,32
0,66,82,0
0,32,70,0
0,59,72,0
0,68,72,0
0,63,60,0
0,59,66,0
0,68,68,0
0,63,58,0
0,66,58,0
0,44,85,0
0,44,0,0
0,66,0,0
0,63,0,0
0,59,0,0
0,59,0,1
0,68,0,0
0,63,0,2
0,68,0,2
0,32,0,8
0,32,70,13
0,40,95,0
0,42,85,0
0,36,85,0
0,36,0,3
0,42,0,0
0,40,0,0
0,40,84,21
0,40,0,3
0,32,0,8
0,66,0,11
0,61,66,0
0,32,70,0
0,40,95,0
0,44,85,0
0,44,0,3
0,40,0,0
0,32,0,32
0,61,0,6
0,63,56,0
0,32,70,0
0,40,95,0
0,42,85,0
0,42,0,3
0,40,0,0
0,32,0,32
0,63,0,7
0,66,74,0
0,37,70,0
0,44,85,0
0,44,0,3
0,66,0,22
0,37,0,10
0,42,70,13
0,61,62,0
0,58,58,0
0,66,66,0
0,66,60,0
0,61,66,0
0,63,54,0
0,58,76,0
0,36,85,0
0,42,85,0
0,42,0,3
0,36,0,0
0,61,0,16
0,58,0,2
0,61,0,0
0,58,0,0
0,63,0,0
0,66,0,1
0,66,0,1
0,42,0,12
0,61,78,0
0,39,70,0
0,44,85,0
0,44,0,0
0,39,0,19
0,37,70,0
0,40,95,0
0,42,85,0
0,42,0,1
0,40,0,0
0,61,0,26
0,37,0,6
0,61,70,0
0,42,70,0
0,66,60,0
0,58,66,0
0,61,68,0
0,61,68,0
0,63,64,0
0,58,76,0
0,66,64,0
0,44,85,0
0,44,0,3
0,58,0,13
0,61,0,2
0,61,0,1
0,58,0,2
0,66,0,0
0,63,0,0
0,66,0,1
0,42,0,13
0,42,70,13
0,36,85,0
0,42,85,0
0,42,0,3
0,36,0,0
0,42,0,32
0,56,82,13
0,39,70,0
0,44,85,0
0,44,0,3
0,61,0,3
0,39,0,29
0,37,70,0
0,42,85,0
0,40,95,0
0,40,0,0
0,42,0,0
0,37,0,26
0,39,70,13
0,44,85,0
0,44,0,3
0,56,0,16
0,39,0,16
0,42,70,0
0,58,64,0
0,61,58,0
0,66,62,0
0,61,62,0
0,66,62,0
0,58,68,0
0,63,64,0
0,42,85,0
0,36,85,0
0,36,0,0
0,42,0,0
0,58,0,10
0,61,0,1
0,61,0,3
0,58,0,1
0,63,0,0
0,66,0,1
0,66,0,1
0,42,0,11
0,39,70,13
0,44,85,0
0,44,0,3
0,39,0,32
0,37,70,13
0,42,85,0
0,40,95,0
0,40,0,3
0,42,0,0
0,37,0,32
0,39,70,13
0,58,68,0
0,61,62,0
0,66,58,0
0,61,62,0
0,66,64,0
0,63,62,0
0,58,66,0
0,44,85,0
0,44,0,3
0,61,0,13
0,58,0,1
0,58,0,1
0,61,0,1
0,63,0,0
0,66,0,1
0,66,0,2
0,39,0,13
0,42,70,13
0,36,85,0
0,42,85,0
0,42,0,3
0,36,0,0
0,42,0,32
0,61,74,0
0,34,70,0
0,44,85,0
0,44,0,3
0,34,0,32
0,63,70,0
0,37,70,0
0,42,85,0
0,40,95,0
0,61,0,3
0,40,0,0
0,42,0,0
0,37,0,32
0,63,0,10
0,68,70,0
0,39,70,0
0,44,85,0
0,44,0,3
0,39,0,1
0,42,70,5
0,66,60,0
0,61,68,0
0,58,68,0
0,66,58,0
0,63,64,0
0,61,62,0
0,58,80,0
0,36,85,0
0,42,85,0
0,42,0,3
0,36,0,0
0,58,0,13
0,61,0,0
0,58,0,3
0,61,0,0
0,66,0,0
0,63,0,1
0,66,0,1
0,68,0,3
0,42,0,11
0,39,70,13
0,44,85,0
0,44,0,3
0,39,0,5
0,37,70,13
0,40,95,0
0,42,85,0
0,42,0,3
0,40,0,0
0,37,0,32
0,42,70,13
0,58,72,0
0,66,58,0
0,61,66,0
0,61,66,0
0,66,62,0
0,58,84,0
0,63,60,0
0,44,85,0
0,44,0,3
0,58,0,14
0,61,0,0
0,58,0,1
0,61,0,1
0,63,0,0
0,66,0,1
0,66,0,0
0,42,0,15
0,42,70,13
0,42,85,0
0,36,85,0
0,36,0,3
0,42,0,0
0,42,0,32
0,68,66,0
0,39,70,0
0,44,85,0
0,44,0,3
0,39,0,32
0,68,0,4
0,66,78,0
0,37,70,0
0,42,85,0
0,40,95,0
0,40,0,3
0,42,0,0
0,66,0,24
0,37,0,8
0,66,82,0
0,39,70,0
0,44,85,0
0,44,0,3
0,39,0,0
0,42,70,1
0,66,58,0
0,58,60,0
0,61,62,0
0,58,76,0
0,63,64,0
0,61,66,0
0,66,66,0
0,36,85,0
0,42,85,0
0,42,0,0
0,36,0,0
0,61,0,5
0,58,0,1
0,58,0,0
0,66,0,1
0,61,0,0
0,63,0,0
0,66,0,0
0,66,0,0
0,42,0,0
0,39,70,1
0,44,85,0
0,44,0,1
0,39,0,32
0,37,70,13
0,40,95,0
0,42,85,0
0,42,0,3
0,40,0,0
0,37,0,32
0,42,70,13
0,66,64,0
0,61,66,0
0,58,64,0
0,58,76,0
0,63,60,0
0,66,62,0
0,61,66,0
0,73,64,0
0,44,85,0
0,44,0,3
0,61,0,11
0,58,0,2
0,63,0,2
0,66,0,1
0,73,0,0
0,61,0,1
0,58,0,1
0,66,0,3
0,75,60,0
0,42,0,11
0,75,0,9
0,42,70,4
0,78,62,0
0,42,85,0
0,36,85,0
0,36,0,3
0,42,0,0
0,78,0,31
0,42,0,1
0,61,66,0
0,39,70,0
0,75,68,0
0,44,85,0
0,44,0,3
0,75,0,17
0,39,0,15
0,61,0,12
0,61,62,0
0,37,70,0
0,40,95,0
0,42,85,0
0,42,0,3
0,40,0,0
0,37,0,32
0,61,0,6
0,68,74,0
0,39,70,0
0,44,85,0
0,44,0,3
0,39,0,1
0,42,70,13
0,66,56,0
0,58,68,0
0,61,64,0
0,66,58,0
0,58,72,0
0,63,62,0
0,61,72,0
0,57,70,0
0,36,85,0
0,42,85,0
0,42,0,3
0,36,0,0
0,57,0,0
0,61,0,13
0,61,0,2
0,66,0,0
0,58,0,0
0,63,0,0
0,66,0,1
0,58,0,2
0,68,0,13
0,42,0,1
0,39,70,13
0,44,85,0
0,44,0,3
0,39,0,32
0,37,70,1
0,42,85,0
0,40,95,0
0,40,0,0
0,42,0,0
0,37,0,30
0,42,70,13
0,61,60,0
0,66,48,0
0,58,68,0
0,61,66,0
0,66,64,0
0,58,72,0
0,63,62,0
0,44,85,0
0,44,0,3
0,61,0,12
0,61,0,1
0,63,0,0
0,58,0,0
0,58,0,1
0,66,0,2
0,66,0,2
0,42,0,14
0,42,70,13
0,36,85,0
0,42,85,0
0,42,0,3
0,36,0,0
0,42,0,32
0,68,70,0
0,39,70,0
0,44,85,0
0,44,0,3
0,39,0,32
0,68,0,4
