track,note,velocity,time
0,35,112,198
0,46,68,0
0,46,90,0
0,53,95,0
0,53,118,0
0,58,112,0
0,62,95,0
0,62,118,0
0,65,95,0
0,65,103,0
0,35,0,4
0,46,0,0
0,58,99,0
0,62,110,4
0,65,115,4
0,42,44,60
0,42,0,4
0,53,0,6
0,58,0,0
0,62,0,0
0,65,0,0
0,35,111,14
0,53,118,0
0,58,112,0
0,62,118,0
0,65,103,0
0,35,0,4
0,53,0,78
0,58,0,0
0,62,0,0
0,65,0,0
0,35,111,14
0,53,118,0
0,58,110,0
0,62,118,0
0,65,103,0
0,35,0,4
0,58,0,66
0,62,0,0
0,65,0,0
0,53,0,12
0,35,111,14
0,53,118,0
0,58,112,0
0,62,118,0
0,65,122,0
0,65,103,0
0,70,122,0
0,35,0,4
0,53,0,78
0,58,0,0
0,62,0,0
0,65,0,0
0,35,111,14
0,53,118,0
0,58,115,0
0,62,118,0
0,65,103,0
0,35,0,4
0,60,60,8
0,60,0,4
0,60,60,32
0,60,0,4
0,53,0,30
0,58,0,0
0,62,0,0
0,65,0,0
0,60,64,2
0,60,0,4
0,35,111,8
0,53,118,0
0,58,117,0
0,62,118,0
0,65,105,0
0,35,0,4
0,60,64,12
0,60,0,4
0,60,64,28
0,60,0,4
0,53,0,30
0,58,0,0
0,62,0,0
0,65,0,0
0,60,64,2
0,60,0,4
0,35,111,8
0,53,118,0
0,58,112,0
0,62,118,0
0,65,103,0
0,35,0,4
0,60,57,20
0,60,0,4
0,60,64,20
0,60,0,4
0,60,60,20
0,58,0,2
0,60,0,2
0,53,0,1
0,53,0,1
0,58,0,0
0,62,0,0
0,62,0,1
0,65,0,3
0,65,0,4
0,35,110,10
0,53,118,0
0,58,112,0
0,62,118,0
0,65,103,0
0,35,0,4
0,46,0,1
0,60,64,7
0,60,0,4
0,60,64,24
0,60,0,4
0,65,0,18
0,70,0,0
0,60,60,2
0,60,0,4
0,53,0,2
0,58,0,0
0,62,0,0
0,65,0,0
0,35,110,26
0,46,68,0
0,46,90,0
0,53,95,0
0,53,118,0
0,58,112,0
0,62,118,0
0,63,57,0
0,65,103,0
0,35,0,4
0,46,0,0
0,58,109,0
0,63,0,0
0,62,110,4
0,65,115,4
0,42,44,60
0,42,0,4
0,53,0,6
0,58,0,0
0,62,0,0
0,65,0,0
0,35,110,14
0,53,118,0
0,58,112,0
0,62,118,0
0,65,103,0
0,35,0,4
0,53,0,78
0,58,0,0
0,62,0,0
0,65,0,0
0,35,110,14
0,53,118,0
0,58,110,0
0,62,118,0
0,65,103,0
0,35,0,4
0,58,0,66
0,62,0,0
0,65,0,0
0,53,0,12
0,35,110,14
0,53,118,0
0,58,112,0
0,62,118,0
0,65,122,0
0,65,103,0
0,70,122,0
0,35,0,4
0,53,0,78
0,58,0,0
0,62,0,0
0,65,0,0
0,35,110,14
0,53,118,0
0,58,115,0
0,62,118,0
0,65,103,0
0,35,0,4
0,60,60,4
0,60,0,4
0,60,60,32
0,60,0,4
0,60,64,32
0,53,0,2
0,58,0,0
0,62,0,0
0,65,0,0
0,60,0,2
0,35,109,12
0,53,118,0
0,58,117,0
0,62,118,0
0,65,105,0
0,35,0,4
0,60,64,8
0,60,0,4
0,60,64,28
0,60,0,4
0,60,64,32
0,53,0,2
0,58,0,0
0,62,0,0
0,65,0,0
0,60,0,2
0,35,109,12
0,53,118,0
0,58,112,0
0,62,118,0
0,65,103,0
0,35,0,4
0,60,57,16
0,60,0,4
0,60,64,20
0,60,0,4
0,60,60,20
0,60,0,4
0,53,0,6
0,58,0,0
0,62,0,0
0,65,0,4
0,35,109,14
0,53,118,0
0,58,112,0
0,62,118,0
0,65,103,0
0,35,0,4
0,60,64,4
0,60,0,4
0,58,0,3
0,53,0,4
0,62,0,1
0,65,0,7
0,60,64,9
0,60,0,4
0,46,0,5
0,60,60,15
0,60,0,4
0,53,0,6
0,58,0,0
0,62,0,0
0,65,0,0
0,63,57,22
0,34,68,4
0,35,112,0
0,46,90,0
0,53,90,0
0,53,118,0
0,58,112,0
0,62,118,0
0,63,0,0
0,65,103,0
0,35,0,4
0,46,0,0
0,58,105,0
0,62,105,4
0,65,110,4
0,65,0,3
0,70,0,0
0,42,44,57
0,42,0,4
0,53,0,6
0,58,0,0
0,62,0,0
0,65,0,0
0,35,111,14
0,53,118,0
0,58,112,0
0,62,118,0
0,65,103,0
0,35,0,4
0,53,0,6
0,58,0,4
0,62,0,4
0,65,0,4
0,53,0,60
0,58,0,0
0,62,0,0
0,65,0,0
0,35,111,14
0,53,118,0
0,58,70,0
0,58,110,0
0,62,70,0
0,62,119,0
0,62,118,0
0,65,75,0
0,65,119,0
0,65,103,0
0,35,0,4
0,60,75,4
0,60,0,4
0,62,0,47
0,65,0,0
0,58,0,11
0,62,0,0
0,65,0,0
0,53,0,12
0,58,0,12
0,62,0,0
0,65,0,0
0,35,111,2
0,53,118,0
0,58,112,0
0,62,118,0
0,65,103,0
0,35,0,4
0,60,80,52
0,60,0,4
0,53,0,22
0,58,0,0
0,62,0,0
0,65,0,0
0,35,111,14
0,53,118,0
0,58,115,0
0,61,61,0
0,62,89,0
0,62,118,0
0,63,119,0
0,65,95,0
0,65,103,0
0,67,119,0
0,70,95,0
0,35,0,4
0,61,0,0
0,60,73,44
0,60,0,4
0,53,0,30
0,58,0,0
0,62,0,0
0,65,0,0
0,70,0,1
0,65,0,1
0,61,62,4
0,62,0,3
0,61,0,1
0,35,111,4
0,53,118,0
0,58,117,0
0,62,113,0
0,62,118,0
0,65,113,0
0,65,105,0
0,63,0,2
0,67,0,0
0,35,0,2
0,53,0,78
0,58,0,0
0,62,0,0
0,65,0,0
0,35,111,14
0,53,118,0
0,58,112,0
0,60,113,0
0,62,90,0
0,62,0,0
0,62,118,0
0,63,116,0
0,63,81,0
0,65,97,0
0,65,0,0
0,65,103,0
0,70,98,0
0,35,0,4
0,63,0,0
0,53,0,74
0,58,0,0
0,62,0,0
0,62,0,4
0,65,0,0
0,60,0,3
0,63,0,0
0,65,0,1
0,70,0,7
0,35,112,3
0,53,118,0
0,58,110,0
0,58,112,0
0,62,110,0
0,62,118,0
0,65,103,0
0,35,0,4
0,60,80,60
0,60,0,4
0,53,0,2
0,58,0,0
0,62,0,0
0,65,0,0
0,35,112,26
0,40,88,0
0,46,93,0
0,53,118,0
0,58,112,0
0,62,92,0
0,62,118,0
0,65,102,0
0,65,103,0
0,70,100,0
0,35,0,4
0,40,0,0
0,46,0,0
0,61,77,12
0,34,0,1
0,61,0,3
0,60,70,36
0,60,0,4
0,42,48,12
0,42,0,4
0,53,0,6
0,58,0,0
0,62,0,0
0,62,0,0
0,65,0,0
0,65,0,6
0,70,0,2
0,34,68,6
0,35,112,0
0,53,118,0
0,58,112,0
0,62,118,0
0,65,103,0
0,35,0,4
0,61,45,4
0,61,0,4
0,60,72,28
0,60,0,4
0,53,0,38
0,58,0,0
0,62,0,0
0,65,0,0
0,63,84,6
0,63,0,4
0,35,113,4
0,40,89,0
0,46,94,0
0,53,118,0
0,58,110,0
0,62,96,0
0,62,118,0
0,65,108,0
0,65,103,0
0,70,101,0
0,34,0,2
0,35,0,2
0,40,0,0
0,46,0,0
0,58,0,66
0,62,0,0
0,65,0,0
0,42,48,2
0,42,0,4
0,53,0,6
0,62,0,0
0,65,0,1
0,70,0,3
0,34,71,10
0,35,113,0
0,53,118,0
0,58,112,0
0,62,118,0
0,63,77,0
0,65,103,0
0,35,0,4
0,63,0,0
0,53,0,78
0,58,0,0
0,62,0,0
0,65,0,0
0,35,113,14
0,40,90,0
0,46,95,0
0,53,118,0
0,58,115,0
0,60,67,0
0,62,97,0
0,62,118,0
0,65,106,0
0,65,103,0
0,70,105,0
0,35,0,4
0,40,0,0
0,46,0,0
0,60,0,0
0,34,0,3
0,60,68,41
0,60,0,4
0,42,48,20
0,42,0,4
0,53,0,6
0,58,0,0
0,62,0,0
0,62,0,0
0,65,0,0
0,70,0,0
0,65,0,9
0,34,73,5
0,35,115,0
0,53,118,0
0,58,117,0
0,61,58,0
0,62,118,0
0,65,105,0
0,35,0,4
0,61,0,0
0,61,65,44
0,61,0,4
0,53,0,30
0,58,0,0
0,62,0,0
0,65,0,0
0,35,115,14
0,40,91,0
0,46,97,0
0,53,118,0
0,58,112,0
0,61,71,0
0,62,101,0
0,62,118,0
0,65,109,0
0,65,103,0
0,70,102,0
0,35,0,4
0,40,0,0
0,46,0,0
0,61,0,0
0,34,0,8
0,61,72,36
0,61,0,4
0,42,48,20
0,42,0,4
0,70,0,0
0,53,0,2
0,58,0,0
0,62,0,0
0,62,0,4
0,65,0,0
0,65,0,0
0,58,0,12
0,62,0,0
0,34,66,2
0,35,115,0
0,53,118,0
0,58,112,0
0,62,118,0
0,63,70,0
0,65,103,0
0,35,0,4
0,63,0,0
0,34,0,7
0,35,66,1
0,35,0,11
0,36,66,1
0,36,0,11
0,37,66,1
0,37,0,11
0,38,66,1
0,63,76,0
0,63,0,4
0,38,0,7
0,39,66,1
0,53,0,10
0,58,0,0
0,62,0,0
0,65,0,0
0,39,0,1
0,40,66,1
0,40,0,11
0,41,66,1
0,62,0,10
0,65,0,0
0,41,0,1
0,35,103,1
0,44,103,0
0,46,77,0
0,57,72,0
0,62,100,0
0,63,78,0
0,65,100,0
0,74,127,0
0,77,93,0
0,82,93,0
0,86,83,0
0,35,0,4
0,44,0,0
0,57,0,0
0,63,0,0
0,77,0,18
0,82,0,0
0,86,0,0
0,44,90,74
0,77,91,0
0,82,91,0
0,86,83,0
0,44,0,4
0,46,0,12
0,77,0,6
0,82,0,0
0,86,0,0
0,61,55,26
0,61,0,4
0,40,97,44
0,44,102,0
0,46,75,0
0,63,68,0
0,65,101,0
0,70,99,0
0,77,91,0
0,82,91,0
0,86,84,0
0,74,0,1
0,72,115,1
0,40,0,2
0,44,0,0
0,63,0,0
0,77,0,18
0,82,0,0
0,86,0,0
0,65,0,12
0,70,0,0
0,72,0,17
0,44,90,45
0,77,91,0
0,82,91,0
0,86,83,0
0,72,121,1
0,44,0,3
0,77,0,18
0,82,0,0
0,86,0,0
0,46,0,2
0,46,42,24
0,63,63,4
0,63,0,4
0,46,0,4
0,35,103,36
0,41,75,0
0,44,102,0
0,63,70,0
0,77,91,0
0,82,91,0
0,86,83,0
0,35,0,4
0,44,0,0
0,63,0,0
0,77,0,18
0,82,0,0
0,86,0,0
0,41,0,28
0,35,96,46
0,41,75,0
0,44,90,0
0,77,91,0
0,82,91,0
0,86,83,0
0,72,0,1
0,70,122,1
0,35,0,2
0,44,0,0
0,77,0,18
0,82,0,0
0,86,0,0
0,63,66,30
0,63,0,4
0,41,0,28
0,40,97,12
0,43,75,0
0,44,102,0
0,63,59,0
0,65,101,0
0,70,99,0
0,77,93,0
0,82,93,0
0,86,83,0
0,40,0,4
0,44,0,0
0,63,0,0
0,77,0,18
0,82,0,0
0,86,0,0
0,65,0,12
0,70,0,0
0,43,0,50
0,35,98,12
0,41,79,0
0,44,90,0
0,63,70,0
0,77,95,0
0,82,95,0
0,86,83,0
0,35,0,4
0,44,0,0
0,63,0,0
0,77,0,18
0,82,0,0
0,86,0,0
0,87,38,58
0,96,74,0
0,41,0,4
0,70,0,10
0,89,80,1
0,98,110,0
0,35,103,1
0,44,101,0
0,46,75,0
0,63,75,0
0,77,95,0
0,82,95,0
0,86,83,0
0,35,0,4
0,44,0,0
0,63,0,0
0,87,0,14
0,96,0,0
0,77,0,4
0,82,0,0
0,86,0,0
0,44,90,74
0,77,92,0
0,82,92,0
0,86,83,0
0,44,0,4
0,77,0,18
0,82,0,0
0,86,0,0
0,46,0,2
0,35,63,32
0,63,63,0
0,35,0,4
0,63,0,0
0,87,68,31
0,96,98,0
0,89,0,4
0,98,0,0
0,40,97,1
0,44,101,0
0,46,75,0
0,63,70,0
0,65,100,0
0,70,99,0
0,77,94,0
0,82,94,0
0,86,83,0
0,40,0,4
0,44,0,0
0,63,0,0
0,77,0,18
0,82,0,0
0,86,0,0
0,65,0,12
0,70,0,0
0,87,0,56
0,96,0,0
0,87,65,4
0,96,95,0
0,44,90,2
0,77,94,0
0,82,94,0
0,86,83,0
0,44,0,4
0,46,0,8
0,77,0,10
0,82,0,0
0,86,0,0
0,46,42,26
0,63,68,8
0,46,0,4
0,63,0,0
0,35,103,36
0,41,75,0
0,44,101,0
0,63,70,0
0,77,93,0
0,82,93,0
0,86,83,0
0,35,0,4
0,44,0,0
0,63,0,0
0,77,0,18
0,82,0,0
0,86,0,0
0,41,0,39
0,87,0,29
0,96,0,0
0,86,75,2
0,94,105,0
0,35,96,4
0,41,75,0
0,44,90,0
0,62,67,0
0,77,91,0
0,82,91,0
0,86,83,0
0,35,0,4
0,44,0,0
0,62,0,0
0,77,0,18
0,82,0,0
0,86,0,0
0,63,66,30
0,63,0,4
0,41,0,20
0,40,97,20
0,43,75,0
0,44,100,0
0,63,59,0
0,65,100,0
0,70,96,0
0,77,91,0
0,82,91,0
0,86,84,0
0,40,0,4
0,44,0,0
0,63,0,0
0,77,0,18
0,82,0,0
0,86,0,0
0,65,0,12
0,70,0,0
0,63,40,14
0,63,0,4
0,43,0,32
0,35,98,12
0,41,75,0
0,44,90,0
0,63,70,0
0,65,107,0
0,77,91,0
0,82,91,0
0,86,83,0
0,35,0,4
0,44,0,0
0,63,0,0
0,77,0,18
0,82,0,0
0,86,0,0
0,41,0,62
0,86,0,6
0,94,0,0
0,65,0,4
0,35,103,2
0,44,103,0
0,46,77,0
0,63,75,0
0,77,91,0
0,82,91,0
0,86,83,0
0,74,119,2
0,35,0,2
0,44,0,0
0,63,0,0
0,77,0,18
0,82,0,0
0,86,0,0
0,44,90,74
0,77,91,0
0,82,91,0
0,86,83,0
0,44,0,4
0,46,0,12
0,77,0,6
0,82,0,0
0,86,0,0
0,35,63,34
0,63,63,0
0,35,0,4
0,63,0,0
0,40,97,36
0,44,102,0
0,46,75,0
0,63,70,0
0,65,101,0
0,70,99,0
0,74,0,0
0,77,93,0
0,82,93,0
0,86,83,0
0,72,114,2
0,40,0,2
0,44,0,0
0,63,0,0
0,77,0,18
0,82,0,0
0,86,0,0
0,65,0,12
0,70,0,0
0,72,0,12
0,72,114,49
0,44,90,1
0,77,95,0
0,82,95,0
0,86,83,0
0,44,0,4
0,77,0,18
0,82,0,0
0,86,0,0
0,46,0,2
0,46,42,24
0,63,68,8
0,46,0,4
0,63,0,0
0,35,103,36
0,41,75,0
0,44,102,0
0,63,70,0
0,77,95,0
0,82,95,0
0,86,83,0
0,35,0,4
0,44,0,0
0,63,0,0
0,77,0,18
0,82,0,0
0,86,0,0
0,41,0,28
0,72,0,41
0,70,125,1
0,35,96,4
0,41,75,0
0,44,90,0
0,77,92,0
0,82,92,0
0,86,83,0
0,35,0,4
0,44,0,0
0,77,0,18
0,82,0,0
0,86,0,0
0,63,66,30
0,63,0,4
0,41,0,28
0,40,97,12
0,43,75,0
0,44,102,0
0,63,59,0
0,65,101,0
0,70,99,0
0,77,94,0
0,82,94,0
0,86,83,0
0,40,0,4
0,44,0,0
0,63,0,0
0,77,0,18
0,82,0,0
0,86,0,0
0,65,0,12
0,70,0,0
0,63,38,18
0,63,0,4
0,43,0,28
0,35,98,12
0,41,79,0
0,44,90,0
0,63,70,0
0,77,94,0
0,82,94,0
0,86,83,0
0,35,0,4
0,44,0,0
0,63,0,0
0,77,0,18
0,82,0,0
0,86,0,0
0,70,0,44
0,87,38,14
0,96,74,0
0,41,0,4
0,89,80,11
0,98,110,0
0,35,103,1
0,44,101,0
0,46,75,0
0,63,75,0
0,77,93,0
0,82,93,0
0,86,83,0
0,35,0,4
0,44,0,0
0,63,0,0
0,87,0,14
0,96,0,0
0,77,0,4
0,82,0,0
0,86,0,0
0,44,90,74
0,77,91,0
0,82,91,0
0,86,83,0
0,44,0,4
0,77,0,18
0,82,0,0
0,86,0,0
0,46,0,2
0,35,63,32
0,63,63,0
