track,note,velocity,time
3,70,90,1149
3,66,86,0
3,66,0,1583
3,70,0,13
3,66,83,132
3,70,81,0
3,66,0,144
3,70,0,11
3,68,90,37
3,73,86,0
3,68,0,212
3,73,0,0
3,68,90,76
3,73,83,0
3,73,0,771
3,68,0,12
3,66,86,81
3,70,90,0
3,66,0,1583
3,70,0,13
3,66,83,132
3,70,83,0
3,66,0,118
3,70,0,13
3,73,86,61
3,68,86,0
3,73,0,215
3,68,0,11
3,73,93,62
3,68,93,0
3,73,0,822
3,68,0,2
3,54,93,40
3,61,90,192
3,54,0,1198
3,61,0,26
3,51,73,120
3,58,101,0
3,54,97,0
3,51,0,1482
3,58,0,4
3,54,0,5
3,54,93,45
3,61,90,192
3,54,0,1198
3,61,0,26
3,54,97,120
3,58,101,0
3,51,73,0
3,51,0,1482
3,58,0,4
3,54,0,5
3,54,93,45
3,61,90,192
3,54,0,1198
3,61,0,26
3,51,73,120
3,58,101,0
3,54,97,0
3,51,0,1482
3,58,0,4
3,54,0,5
3,54,93,45
3,61,90,192
3,54,0,1198
3,61,0,26
3,54,97,120
3,58,101,0
3,51,73,0
3,51,0,1482
3,58,0,4
3,54,0,5
3,61,69,45
3,68,88,0
3,68,0,521
3,66,86,55
3,61,0,854
3,66,0,3
3,65,88,103
3,58,63,0
3,63,86,576
3,65,0,17
3,63,0,877
3,58,0,11
3,68,88,55
3,61,69,0
3,68,0,521
3,66,86,55
3,61,0,854
3,66,0,3
3,58,63,103
3,65,88,0
3,63,86,576
3,65,0,17
3,63,0,877
3,58,0,11
3,61,69,55
3,68,88,0
3,68,0,521
3,66,86,55
3,61,0,854
3,66,0,3
3,65,88,103
3,58,63,0
3,63,86,576
3,65,0,17
3,63,0,877
3,58,0,11
3,68,88,55
3,61,69,0
3,68,0,521
3,66,86,55
3,61,0,854
3,66,0,3
3,58,63,103
3,65,88,0
3,63,86,576
3,65,0,17
3,63,0,877
3,58,0,11
3,66,86,55
3,68,66,0
3,70,90,0
3,66,0,1583
3,68,0,0
3,70,0,13
3,66,83,132
3,70,81,0
3,66,0,144
3,70,0,11
3,68,90,37
3,73,86,0
3,68,0,212
3,73,0,0
3,68,90,76
3,73,83,0
3,73,0,771
3,68,0,12
3,66,86,81
3,68,66,0
3,70,90,0
3,66,0,1583
3,68,0,0
3,70,0,13
3,66,83,132
3,70,83,0
3,66,0,118
3,70,0,13
3,68,86,61
3,73,86,0
3,73,0,215
3,68,0,11
3,68,93,62
3,73,93,0
3,73,0,822
3,68,0,2
3,66,86,40
3,68,66,0
3,70,90,0
3,66,0,1583
3,68,0,0
3,70,0,13
3,66,83,132
3,70,81,0
3,66,0,144
3,70,0,11
3,68,90,37
3,73,86,0
3,68,0,212
3,73,0,0
3,68,90,76
3,73,83,0
3,73,0,771
3,68,0,12
3,66,86,81
3,68,66,0
3,70,90,0
3,66,0,1583
3,68,0,0
3,70,0,13
3,66,83,132
3,70,83,0
3,66,0,118
3,70,0,13
3,68,86,61
3,73,86,0
3,73,0,215
3,68,0,11
3,68,93,62
3,73,93,0
3,73,0,822
3,68,0,2
3,54,93,40
3,61,90,192
3,54,0,1198
3,61,0,26
3,51,73,120
3,58,101,0
3,54,97,0
3,51,0,1482
3,58,0,4
3,54,0,5
3,54,93,45
3,61,90,192
3,54,0,1198
3,61,0,26
3,54,97,120
3,58,101,0
3,51,73,0
3,51,0,1482
3,58,0,4
3,54,0,5
3,54,93,45
3,61,90,192
3,54,0,1198
3,61,0,26
3,51,73,120
3,58,101,0
3,54,97,0
3,51,0,1482
3,58,0,4
3,54,0,5
3,54,93,45
3,61,90,192
3,54,0,1198
3,61,0,26
3,54,97,120
3,58,101,0
3,51,73,0
3,51,0,1482
3,58,0,4
3,54,0,5
3,61,69,45
3,68,88,0
3,68,0,521
3,66,86,55
3,61,0,854
3,66,0,3
3,65,88,103
3,58,63,0
3,63,86,576
3,65,0,17
3,63,0,877
3,58,0,11
3,68,88,55
3,61,69,0
3,68,0,521
3,66,86,55
3,61,0,854
3,66,0,3
3,58,63,103
3,65,88,0
3,63,86,576
3,65,0,17
3,63,0,877
3,58,0,11
3,61,69,55
3,68,88,0
3,68,0,521
3,66,86,55
3,61,0,854
3,66,0,3
3,65,88,103
3,58,63,0
3,63,86,576
3,65,0,17
3,63,0,877
3,58,0,11
3,68,88,55
3,61,69,0
3,68,0,521
3,66,86,55
3,61,0,854
3,66,0,3
3,58,63,103
3,65,88,0
3,63,86,576
3,65,0,17
3,63,0,877
3,58,0,11
3,66,86,55
3,68,66,0
3,70,90,0
3,66,0,1583
3,68,0,0
3,70,0,13
3,66,83,132
3,70,81,0
3,66,0,144
3,70,0,11
3,68,90,37
3,73,86,0
3,68,0,212
3,73,0,0
3,68,90,76
3,73,83,0
3,73,0,771
3,68,0,12
3,66,86,81
3,68,66,0
3,70,90,0
3,66,0,1583
3,68,0,0
3,70,0,13
3,66,83,132
3,70,83,0
3,66,0,118
3,70,0,13
3,68,86,61
3,73,86,0
3,73,0,215
3,68,0,11
3,68,93,62
3,73,93,0
3,73,0,822
3,68,0,2
3,66,86,40
3,68,66,0
3,70,90,0
3,66,0,1583
3,68,0,0
3,70,0,13
3,66,83,132
3,70,81,0
3,66,0,144
3,70,0,11
3,68,90,37
3,73,86,0
3,68,0,212
3,73,0,0
3,68,90,76
3,73,83,0
3,73,0,771
3,68,0,12
3,66,86,81
3,68,66,0
3,70,90,0
3,66,0,1583
3,68,0,0
3,70,0,13
3,66,83,132
3,70,83,0
3,66,0,118
3,70,0,13
3,68,86,61
3,73,86,0
3,73,0,215
3,68,0,11
3,68,93,62
3,73,93,0
3,73,0,822
3,68,0,2
3,54,93,40
3,61,90,192
3,54,0,1198
3,61,0,26
3,51,73,120
3,58,101,0
3,54,97,0
3,51,0,1482
3,58,0,4
3,54,0,5
3,54,93,45
3,61,90,192
3,54,0,1198
3,61,0,26
3,54,97,120
3,58,101,0
3,51,73,0
3,51,0,1482
3,58,0,4
3,54,0,5
3,54,93,45
3,61,90,192
3,54,0,1198
3,61,0,26
3,51,73,120
3,58,101,0
3,54,97,0
3,51,0,1482
3,58,0,4
3,54,0,5
3,54,93,45
3,61,90,192
3,54,0,1198
3,61,0,26
3,54,97,120
3,58,101,0
3,51,73,0
3,51,0,1482
3,58,0,4
3,54,0,5
3,61,69,45
3,68,88,0
3,68,0,521
3,66,86,55
3,61,0,854
3,66,0,3
3,65,88,103
3,58,63,0
3,63,86,576
3,65,0,17
3,63,0,877
3,58,0,11
3,68,88,55
3,61,69,0
3,68,0,521
3,66,86,55
3,61,0,854
3,66,0,3
3,58,63,103
3,65,88,0
3,63,86,576
3,65,0,17
3,63,0,877
3,58,0,11
3,61,69,55
3,68,88,0
3,68,0,521
3,66,86,55
3,61,0,854
3,66,0,3
3,65,88,103
3,58,63,0
3,63,86,576
3,65,0,17
3,63,0,877
3,58,0,11
3,68,88,55
3,61,69,0
3,68,0,521
3,66,86,55
3,61,0,854
3,66,0,3
3,58,63,103
3,65,88,0
3,63,86,576
3,65,0,17
3,63,0,877
3,58,0,11
3,66,86,55
3,68,66,0
3,70,90,0
3,66,0,1583
3,68,0,0
3,70,0,13
3,66,83,132
3,70,81,0
3,66,0,144
3,70,0,11
3,68,90,37
3,73,86,0
3,68,0,212
3,73,0,0
3,68,90,76
3,73,83,0
3,73,0,771
3,68,0,12
3,66,86,81
3,68,66,0
3,70,90,0
3,66,0,1583
3,68,0,0
3,70,0,13
3,66,83,132
3,70,83,0
3,66,0,118
3,70,0,13
3,68,86,61
3,73,86,0
3,73,0,215
3,68,0,11
3,68,93,62
3,73,93,0
3,73,0,822
3,68,0,2
3,66,86,40
3,68,66,0
3,70,90,0
3,66,0,1583
3,68,0,0
3,70,0,13
3,66,83,132
3,70,81,0
3,66,0,144
3,70,0,11
3,68,90,37
3,73,86,0
3,68,0,212
3,73,0,0
3,68,90,76
3,73,83,0
3,73,0,771
3,68,0,12
3,66,86,81
3,68,66,0
3,70,90,0
3,66,0,1583
3,68,0,0
3,70,0,13
3,66,83,132
3,70,83,0
3,66,0,118
3,70,0,13
3,68,86,61
3,73,86,0
3,73,0,215
3,68,0,11
3,68,93,62
3,73,93,0
3,73,0,822
3,68,0,2
3,54,93,40
3,61,90,192
3,54,0,1198
3,61,0,26
3,51,73,120
3,58,101,0
3,54,97,0
3,51,0,1482
3,58,0,4
3,54,0,5
3,54,93,45
3,61,90,192
3,54,0,1198
3,61,0,26
3,54,97,120
3,58,101,0
3,51,73,0
3,51,0,1482
3,58,0,4
3,54,0,5
3,54,93,45
3,61,90,192
3,54,0,1198
3,61,0,26
3,51,73,120
3,58,101,0
3,54,97,0
3,51,0,1482
3,58,0,4
3,54,0,5
3,54,93,45
3,61,90,192
3,54,0,1198
3,61,0,26
3,54,97,120
3,58,101,0
3,51,73,0
3,51,0,1482
3,58,0,4
3,54,0,5
3,54,93,45
3,61,90,192
3,68,73,192
3,66,97,0
3,73,101,0
3,54,0,1006
3,61,0,26
3,68,0,120
3,66,0,0
3,73,0,0
3,51,73,0
3,58,101,0
3,54,97,0
3,66,97,384
3,65,73,0
3,70,101,0
3,51,0,1098
3,58,0,4
3,54,0,5
3,66,0,45
3,65,0,0
3,70,0,0
3,54,93,0
3,61,90,192
3,68,73,192
3,66,97,0
3,73,101,0
3,54,0,1006
3,61,0,26
3,68,0,120
3,66,0,0
3,73,0,0
3,54,97,0
3,58,101,0
3,51,73,0
3,66,97,384
3,65,73,0
3,70,101,0
3,51,0,1098
3,58,0,4
3,54,0,5
3,66,0,45
3,65,0,0
3,70,0,0
3,54,93,0
3,61,90,192
3,54,0,1198
3,61,0,26
3,51,73,120
3,58,101,0
3,54,97,0
3,51,0,1482
3,58,0,4
3,54,0,5
3,54,93,45
3,61,90,192
3,54,0,1198
3,61,0,26
3,54,97,120
3,58,101,0
3,51,73,0
3,51,0,1482
3,58,0,4
3,54,0,5
3,54,93,45
3,61,90,192
3,54,0,1198
3,61,0,26
3,51,73,120
3,58,101,0
3,54,97,0
3,51,0,1482
3,58,0,4
3,54,0,5
3,54,93,45
3,61,90,192
3,54,0,1198
3,61,0,26
3,54,97,120
3,58,101,0
3,51,73,0
3,51,0,1482
3,58,0,4
3,54,0,5
3,54,93,45
3,61,90,192
3,54,0,1198
3,61,0,26
3,51,73,120
3,58,101,0
3,54,97,0
3,51,0,1482
3,58,0,4
3,54,0,5
3,54,93,45
3,61,90,192
3,54,0,1198
3,61,0,26
3,54,97,120
3,58,101,0
3,51,73,0
3,51,0,1482
3,58,0,4
3,54,0,5
3,61,90,45
3,54,93,0
3,61,0,1224
3,54,0,166
4,49,97,6624
4,51,57,47
4,49,0,13
4,51,0,27
4,49,83,131
4,49,0,2
4,42,104,14
4,42,0,128
4,42,106,448
4,42,0,118
4,42,94,10
4,42,0,89
4,42,84,103
4,42,0,15
4,37,101,49
4,37,0,95
4,42,104,97
4,42,0,116
4,44,101,76
4,44,0,128
4,42,95,0
4,39,102,64
4,42,0,7
4,39,0,137
4,39,102,432
4,39,0,106
4,39,94,22
4,39,0,72
4,34,74,120
4,34,0,54
4,37,104,10
4,37,0,104
4,39,99,88
4,39,0,128
4,41,100,64
4,41,0,128
4,42,104,64
4,42,0,128
4,37,84,384
4,37,0,10
4,42,106,54
4,42,0,118
4,42,94,10
4,42,0,89
4,42,84,103
4,42,0,15
4,37,101,49
4,37,0,95
4,42,104,97
4,42,0,116
4,44,101,76
4,44,0,128
4,42,95,0
4,39,102,64
4,42,0,7
4,39,0,137
4,34,84,368
4,34,0,10
4,39,102,54
4,39,0,106
4,39,94,22
4,39,0,72
4,39,74,120
4,39,0,24
4,37,104,40
4,37,0,104
4,39,99,88
4,39,0,128
4,37,100,64
4,37,0,128
4,30,104,64
4,30,0,128
4,42,106,448
4,42,0,118
4,42,94,10
4,42,0,89
4,42,84,103
4,42,0,15
4,37,101,49
4,37,0,95
4,42,104,97
4,42,0,116
4,44,101,76
4,44,0,128
4,42,95,0
4,39,102,64
4,42,0,7
4,39,0,137
4,39,102,432
4,39,0,106
4,39,94,22
4,39,0,72
4,39,74,120
4,39,0,24
4,37,104,40
4,37,0,104
4,39,99,88
4,39,0,128
4,41,100,64
4,41,0,128
4,42,104,64
4,42,0,128
4,37,84,384
4,37,0,10
4,42,106,54
4,42,0,118
4,42,94,10
4,42,0,89
4,42,84,103
4,42,0,15
4,37,101,49
4,37,0,95
4,42,104,97
4,42,0,116
4,44,101,76
4,44,0,128
4,42,95,0
4,39,102,64
4,42,0,7
4,39,0,137
4,34,84,368
4,34,0,10
4,39,102,54
4,39,0,106
4,39,94,22
4,39,0,72
4,39,74,120
4,39,0,24
4,37,104,40
4,37,0,104
4,39,99,88
4,39,0,128
4,37,100,64
4,37,0,128
4,30,104,64
4,30,0,398
4,42,106,178
4,42,0,118
4,42,94,10
4,42,0,89
4,42,84,103
4,42,0,15
4,37,101,49
4,37,0,95
4,42,104,97
4,42,0,116
4,44,101,76
4,44,0,128
4,42,95,0
4,39,102,64
4,42,0,7
4,39,0,137
4,39,102,432
4,39,0,106
4,39,94,22
4,39,0,72
4,34,74,120
4,34,0,54
4,37,104,10
4,37,0,104
4,39,99,88
4,39,0,128
4,41,100,64
4,41,0,128
4,42,104,64
4,42,0,128
4,37,84,384
4,37,0,10
4,42,106,54
4,42,0,118
4,42,94,10
4,42,0,89
4,42,84,103
4,42,0,15
4,37,101,49
4,37,0,95
4,42,104,97
4,42,0,116
4,44,101,76
4,44,0,128
4,42,95,0
4,39,102,64
4,42,0,7
4,39,0,137
4,34,84,368
4,34,0,10
4,39,102,54
4,39,0,106
4,39,94,22
4,39,0,72
4,39,74,120
4,39,0,24
4,37,104,40
4,37,0,104
4,39,99,88
4,39,0,128
4,37,100,64
4,37,0,128
4,30,104,64
4,30,0,398
4,42,106,178
4,42,0,118
4,42,94,10
4,42,0,89
4,42,84,103
4,42,0,15
4,37,101,49
4,37,0,95
4,42,104,97
4,42,0,116
4,44,101,76
4,44,0,128
4,42,95,0
4,39,102,64
4,42,0,7
4,39,0,137
4,39,102,432
4,39,0,106
4,39,94,22
4,39,0,72
4,34,74,120
4,34,0,54
4,37,104,10
4,37,0,104
4,39,99,88
4,39,0,128
4,41,100,64
4,41,0,128
4,42,104,64
4,42,0,128
4,37,84,384
4,37,0,10
4,42,106,54
4,42,0,118
4,42,94,10
4,42,0,89
4,42,84,103
4,42,0,15
4,37,101,49
4,37,0,95
4,42,104,97
4,42,0,116
4,44,101,76
4,44,0,128
4,42,95,0
4,39,102,64
4,42,0,7
4,39,0,137
4,34,84,368
4,34,0,10
4,39,102,54
4,39,0,106
4,39,94,22
4,39,0,72
4,39,74,120
4,39,0,24
4,37,104,40
4,37,0,104
4,39,99,88
4,39,0,128
4,37,100,64
4,37,0,128
4,30,104,64
4,30,0,398
4,42,106,178
4,42,0,118
4,42,94,10
4,42,0,89
4,42,84,103
4,42,0,15
4,37,101,49
4,37,0,95
4,42,104,97
4,42,0,116
4,44,101,76
4,44,0,128
4,42,95,0
4,39,102,64
4,42,0,7
4,39,0,137
4,39,102,432
4,39,0,106
4,39,94,22
4,39,0,72
4,34,74,120
4,34,0,54
4,37,104,10
4,37,0,104
4,39,99,88
4,39,0,128
4,41,100,64
4,41,0,128
4,42,104,64
4,42,0,128
4,37,84,384
4,37,0,10
4,42,106,54
4,42,0,118
4,42,94,10
4,42,0,89
4,42,84,103
4,42,0,15
4,37,101,49
4,37,0,95
4,42,104,97
4,42,0,116
4,44,101,76
4,44,0,128
4,42,87,0
4,39,102,64
4,42,0,7
4,39,0,137
4,34,84,368
4,34,0,10
4,39,102,54
4,39,0,106
4,39,94,22
4,39,0,72
4,39,74,120
4,39,0,24
4,37,104,40
4,37,0,104
4,39,99,88
4,39,0,128
4,37,100,64
4,37,0,128
4,30,104,64
4,30,0,398
4,42,106,178
4,42,0,118
4,42,94,10
4,42,0,89
4,42,84,103
4,42,0,15
4,37,101,49
4,37,0,95
4,42,104,97
4,42,0,116
4,44,101,76
4,44,0,128
