track,note,velocity,time
3,62,76,145436
3,74,76,0
3,62,0,240
3,74,0,0
3,58,71,0
3,70,71,0
3,58,0,223
3,70,0,0
3,62,74,17
3,74,74,0
3,62,0,218
3,74,0,0
3,58,69,22
3,70,69,0
3,58,0,232
3,70,0,0
3,63,68,8
3,75,68,0
3,60,72,240
3,72,72,0
3,63,0,16
3,75,0,0
3,60,0,222
3,72,0,0
3,63,69,2
3,75,69,0
3,60,74,240
3,72,74,0
3,63,0,5
3,75,0,0
3,60,0,210
3,72,0,0
3,62,76,1945
3,74,76,0
3,62,0,240
3,74,0,0
3,58,71,0
3,70,71,0
3,58,0,223
3,70,0,0
3,62,74,17
3,74,74,0
3,62,0,218
3,74,0,0
3,58,69,22
3,70,69,0
3,58,0,232
3,70,0,0
3,63,68,8
3,75,68,0
3,60,72,240
3,72,72,0
3,63,0,16
3,75,0,0
3,60,0,222
3,72,0,0
3,63,69,2
3,75,69,0
3,60,74,240
3,72,74,0
3,63,0,5
3,75,0,0
3,60,0,210
3,72,0,0
3,62,76,1945
3,74,76,0
3,62,0,240
3,74,0,0
3,58,71,0
3,70,71,0
3,58,0,223
3,70,0,0
3,62,74,17
3,74,74,0
3,62,0,218
3,74,0,0
3,58,69,22
3,70,69,0
3,58,0,232
3,70,0,0
3,63,68,8
3,75,68,0
3,60,72,240
3,72,72,0
3,63,0,16
3,75,0,0
3,60,0,222
3,72,0,0
3,63,69,2
3,75,69,0
3,60,74,240
3,72,74,0
3,63,0,5
3,75,0,0
3,60,0,210
3,72,0,0
3,62,76,1945
3,74,76,0
3,62,0,240
3,74,0,0
3,58,71,0
3,70,71,0
3,58,0,223
3,70,0,0
3,62,74,17
3,74,74,0
3,62,0,218
3,74,0,0
3,58,69,22
3,70,69,0
3,58,0,232
3,70,0,0
3,63,68,8
3,75,68,0
3,60,72,240
3,72,72,0
3,63,0,16
3,75,0,0
3,60,0,222
3,72,0,0
3,63,69,2
3,75,69,0
3,60,74,240
3,72,74,0
3,63,0,5
3,75,0,0
3,60,0,210
3,72,0,0
3,62,76,1945
3,74,76,0
3,62,0,240
3,74,0,0
3,58,71,0
3,70,71,0
3,58,0,223
3,70,0,0
3,62,74,17
3,74,74,0
3,62,0,218
3,74,0,0
3,58,69,22
3,70,69,0
3,58,0,232
3,70,0,0
3,63,68,8
3,75,68,0
3,60,72,240
3,72,72,0
3,63,0,16
3,75,0,0
3,60,0,222
3,72,0,0
3,63,69,2
3,75,69,0
3,60,74,240
3,72,74,0
3,63,0,5
3,75,0,0
3,60,0,210
3,72,0,0
3,62,76,1945
3,74,76,0
3,62,0,240
3,74,0,0
3,58,71,0
3,70,71,0
3,58,0,223
3,70,0,0
3,62,74,17
3,74,74,0
3,62,0,218
3,74,0,0
3,58,69,22
3,70,69,0
3,58,0,232
3,70,0,0
3,63,68,8
3,75,68,0
3,60,72,240
3,72,72,0
3,63,0,16
3,75,0,0
3,60,0,222
3,72,0,0
3,63,69,2
3,75,69,0
3,60,74,240
3,72,74,0
3,63,0,5
3,75,0,0
3,60,0,210
3,72,0,0
3,62,76,1945
3,74,76,0
3,62,0,240
3,74,0,0
3,58,71,0
3,70,71,0
3,58,0,223
3,70,0,0
3,62,74,17
3,74,74,0
3,62,0,218
3,74,0,0
3,58,69,22
3,70,69,0
3,58,0,232
3,70,0,0
3,63,68,8
3,75,68,0
3,60,72,240
3,72,72,0
3,63,0,16
3,75,0,0
3,60,0,222
3,72,0,0
3,63,69,2
3,75,69,0
3,60,74,240
3,72,74,0
3,63,0,5
3,75,0,0
3,60,0,210
3,72,0,0
3,62,76,1945
3,74,76,0
3,62,0,240
3,74,0,0
3,58,71,0
3,70,71,0
3,58,0,223
3,70,0,0
3,62,74,17
3,74,74,0
3,62,0,218
3,74,0,0
3,58,69,22
3,70,69,0
3,58,0,232
3,70,0,0
3,63,68,8
3,75,68,0
3,60,72,240
3,72,72,0
3,63,0,16
3,75,0,0
3,60,0,222
3,72,0,0
3,63,69,2
3,75,69,0
3,60,74,240
3,72,74,0
3,63,0,5
3,75,0,0
3,60,0,210
3,72,0,0
3,58,89,1945
3,62,78,0
3,65,96,0
3,70,95,0
3,65,106,1
3,70,0,99
3,70,88,129
3,65,0,41
3,70,0,159
3,65,103,19
3,65,0,70
3,62,0,30
3,58,0,35
3,63,87,106
3,67,85,8
3,60,94,5
3,72,100,52
4,36,103,16790
4,36,0,112
4,36,84,8
4,36,0,86
4,24,97,34
4,24,0,242
4,32,105,718
4,32,0,235
4,34,105,725
4,34,0,116
4,34,90,4
4,34,0,203
4,36,98,60
4,29,97,233
4,29,0,123
4,31,73,17
4,34,96,100
4,31,0,35
4,34,0,91
4,31,73,14
4,36,104,100
4,31,0,5
4,36,0,107
4,36,85,8
4,36,0,86
4,24,98,34
4,24,0,242
4,32,106,718
4,32,0,235
4,34,106,725
4,34,0,116
4,34,91,4
4,34,0,203
4,36,99,60
4,31,92,83
4,31,0,117
4,39,98,24
4,34,100,140
4,39,0,15
4,34,0,83
4,31,89,22
4,36,103,120
4,31,0,3
4,36,0,109
4,36,84,8
4,36,0,86
4,24,97,34
4,24,0,242
4,32,105,718
4,32,0,235
4,34,105,725
4,34,0,116
4,34,90,4
4,34,0,203
4,36,98,60
4,29,97,233
4,29,0,123
4,31,73,17
4,34,96,100
4,31,0,35
4,34,0,91
4,31,73,14
4,36,103,100
4,31,0,5
4,36,0,107
4,36,84,8
4,36,0,86
4,24,97,34
4,24,0,242
4,32,105,718
4,32,0,235
4,34,105,725
4,34,0,116
4,34,90,4
4,34,0,203
4,36,98,60
4,29,97,233
4,29,0,123
4,31,73,17
4,34,96,100
4,31,0,35
4,34,0,91
4,31,73,14
4,36,103,100
4,31,0,5
4,36,0,107
4,36,84,8
4,36,0,86
4,24,97,34
4,24,0,242
4,32,105,718
4,32,0,235
4,34,105,725
4,34,0,116
4,34,90,4
4,34,0,203
4,36,98,60
4,29,97,233
4,29,0,123
4,31,73,17
4,34,96,100
4,31,0,35
4,34,0,91
4,31,73,14
4,36,104,100
4,31,0,5
4,36,0,107
4,36,85,8
4,36,0,86
4,24,98,34
4,24,0,242
4,32,106,718
4,32,0,235
4,34,106,725
4,34,0,116
4,34,91,4
4,34,0,203
4,36,99,60
4,31,92,83
4,31,0,117
4,39,98,24
4,34,100,140
4,39,0,15
4,34,0,83
4,31,89,22
4,36,103,120
4,31,0,3
4,36,0,109
4,36,84,8
4,36,0,86
4,24,97,34
4,24,0,242
4,32,105,718
4,32,0,235
4,34,105,725
4,34,0,116
4,34,90,4
4,34,0,203
4,36,98,60
4,29,97,233
4,29,0,123
4,31,73,17
4,34,96,100
4,31,0,35
4,34,0,91
4,31,73,14
4,36,103,100
4,31,0,5
4,36,0,107
4,36,84,8
4,36,0,86
4,24,97,34
4,24,0,242
4,32,105,718
4,32,0,235
4,34,105,725
4,34,0,116
4,34,90,4
4,34,0,203
4,36,98,60
4,29,97,233
4,29,0,123
4,31,73,17
4,34,96,100
4,31,0,35
4,34,0,91
4,31,73,14
4,36,103,100
4,31,0,5
4,36,0,107
4,36,84,8
4,36,0,86
4,24,97,34
4,24,0,242
4,32,105,718
4,32,0,235
4,34,105,725
4,34,0,116
4,34,90,4
4,34,0,203
4,36,98,60
4,29,97,233
4,29,0,123
4,31,73,17
4,34,96,100
4,31,0,35
4,34,0,91
4,31,73,14
4,36,104,100
4,31,0,5
4,36,0,107
4,36,85,8
4,36,0,86
4,24,98,34
4,24,0,242
4,32,106,718
4,32,0,235
4,34,106,725
4,34,0,116
4,34,91,4
4,34,0,203
4,36,99,60
4,31,92,83
4,31,0,117
4,39,98,24
4,34,100,140
4,39,0,15
4,34,0,83
4,31,89,22
4,36,103,120
4,31,0,3
4,36,0,109
4,36,84,8
4,36,0,86
4,24,97,34
4,24,0,242
4,32,105,718
4,32,0,235
4,34,105,725
4,34,0,116
4,34,90,4
4,34,0,203
4,36,98,60
4,29,97,233
4,29,0,123
4,31,73,17
4,34,96,100
4,31,0,35
4,34,0,91
4,31,73,14
4,36,103,100
4,31,0,5
4,36,0,107
4,36,84,8
4,36,0,86
4,24,97,34
4,24,0,242
4,32,105,718
4,32,0,235
4,34,105,725
4,34,0,116
4,34,90,4
4,34,0,203
4,36,98,60
4,29,97,233
4,29,0,123
4,31,73,17
4,34,96,100
4,31,0,35
4,34,0,91
4,31,73,14
4,36,103,100
4,31,0,5
4,36,0,107
4,36,84,8
4,36,0,86
4,24,97,34
4,24,0,242
4,32,105,718
4,32,0,235
4,32,73,5
4,32,0,30
4,34,105,690
4,34,0,116
4,34,90,4
4,34,0,203
4,36,98,60
4,29,97,233
4,29,0,123
4,31,73,17
4,34,96,100
4,31,0,35
4,34,0,91
4,31,73,14
4,36,103,100
4,31,0,5
4,36,0,107
4,36,84,8
4,36,0,86
4,24,97,34
4,24,0,242
4,32,105,718
4,32,0,235
4,34,105,725
4,34,0,116
4,34,90,4
4,34,0,203
4,36,98,60
4,29,97,233
4,29,0,123
4,31,73,17
4,34,96,100
4,31,0,35
4,34,0,91
4,31,73,14
4,36,104,100
4,31,0,5
4,36,0,107
4,36,85,8
4,36,0,86
4,24,98,34
4,24,0,242
4,32,106,718
4,32,0,235
4,34,106,725
4,34,0,116
4,34,91,4
4,34,0,203
4,36,99,60
4,31,92,83
4,31,0,117
4,39,98,24
4,34,100,140
4,39,0,15
4,34,0,83
4,31,89,22
4,36,103,120
4,31,0,3
4,36,0,109
4,36,84,8
4,36,0,86
4,24,97,34
4,24,0,242
4,32,105,718
4,32,0,235
4,34,105,725
4,34,0,116
4,34,90,4
4,34,0,203
4,36,98,60
4,29,97,233
4,29,0,123
4,31,73,17
4,34,96,100
4,31,0,35
4,34,0,91
4,31,73,14
4,36,103,100
4,31,0,5
4,36,0,107
4,36,84,8
4,36,0,86
4,24,97,34
4,24,0,242
4,32,105,718
4,32,0,235
4,34,105,725
4,34,0,116
4,34,90,4
4,34,0,203
4,36,98,60
4,29,97,233
4,29,0,123
4,31,73,17
4,34,96,100
4,31,0,35
4,34,0,91
4,31,73,14
4,36,103,100
4,31,0,5
4,36,0,107
4,36,84,8
4,36,0,86
4,24,97,34
4,24,0,242
4,32,105,718
4,32,0,235
4,34,105,725
4,34,0,116
4,34,90,4
4,34,0,203
4,36,98,60
4,29,97,233
4,29,0,123
4,31,73,17
4,34,96,100
4,31,0,35
4,34,0,91
4,31,73,14
4,36,104,100
4,31,0,5
4,36,0,107
4,36,85,8
4,36,0,86
4,24,98,34
4,24,0,242
4,32,106,718
4,32,0,235
4,34,106,725
4,34,0,116
4,34,91,4
4,34,0,203
4,36,99,60
4,31,92,83
4,31,0,117
4,39,98,24
4,34,100,140
4,39,0,15
4,34,0,83
4,31,89,22
4,36,103,120
4,31,0,3
4,36,0,109
4,36,84,8
4,36,0,86
4,24,97,34
4,24,0,242
4,32,105,718
4,32,0,235
4,34,105,725
4,34,0,116
4,34,90,4
4,34,0,203
4,36,98,60
4,29,97,233
4,29,0,123
4,31,73,17
4,34,96,100
4,31,0,35
4,34,0,91
4,31,73,14
4,36,103,100
4,31,0,5
4,36,0,107
4,36,84,8
4,36,0,86
4,24,97,34
4,24,0,242
4,32,105,718
4,32,0,235
4,34,105,725
4,34,0,116
4,34,90,4
4,34,0,203
4,36,98,60
4,29,97,233
4,29,0,123
4,31,73,17
4,34,96,100
4,31,0,35
4,34,0,91
4,31,73,14
4,36,103,100
4,31,0,5
4,36,0,107
4,36,84,8
4,36,0,86
4,24,97,34
4,24,0,242
4,32,105,718
4,32,0,235
4,34,105,725
4,34,0,116
4,34,90,4
4,34,0,203
4,36,98,60
4,29,97,233
4,29,0,123
4,31,73,17
4,34,96,100
4,31,0,35
4,34,0,91
4,31,73,14
4,36,104,100
4,31,0,5
4,36,0,107
4,36,85,8
4,36,0,86
4,24,98,34
4,24,0,242
4,32,106,718
4,32,0,235
4,34,106,725
4,34,0,116
4,34,91,4
4,34,0,203
4,36,99,60
4,31,92,83
4,31,0,117
4,39,98,24
4,34,100,140
4,39,0,15
4,34,0,83
4,31,89,22
4,36,103,120
4,31,0,3
4,36,0,109
4,36,84,8
4,36,0,86
4,24,97,34
4,24,0,242
4,32,105,718
4,32,0,235
4,34,105,725
4,34,0,116
4,34,90,4
4,34,0,203
4,36,98,60
4,29,97,233
4,29,0,123
4,31,73,17
4,34,96,100
4,31,0,35
4,34,0,91
4,31,73,14
4,36,103,100
4,31,0,5
4,36,0,107
4,36,84,8
4,36,0,86
4,24,97,34
4,24,0,242
4,32,105,718
4,32,0,235
4,34,105,725
4,34,0,116
4,34,90,4
4,34,0,203
4,36,98,60
4,29,97,233
4,29,0,123
4,31,73,17
4,34,96,100
4,31,0,35
4,34,0,91
4,31,73,14
4,36,103,100
4,31,0,5
4,36,0,107
4,36,84,8
4,36,0,86
4,24,97,34
4,24,0,242
4,32,105,718
4,32,0,235
4,32,73,5
4,32,0,30
4,34,105,690
4,34,0,116
4,34,90,4
4,34,0,203
4,36,98,60
4,29,97,233
4,29,0,123
4,31,73,17
4,34,96,100
4,31,0,35
4,34,0,91
4,31,73,14
4,34,103,100
4,31,0,5
4,34,0,137
4,36,100,98
4,36,0,86
4,24,97,34
4,24,0,135
4,24,97,585
4,24,0,120
4,32,105,0
4,32,0,235
4,24,100,95
4,24,0,40
4,34,105,80
4,34,0,116
4,34,82,4
4,34,0,203
4,36,98,60
4,51,105,188
4,53,95,41
4,51,0,11
4,53,0,69
4,51,106,134
4,51,0,232
4,34,103,38
4,34,0,142
4,36,100,98
4,36,0,86
4,24,97,34
4,24,0,135
4,32,105,705
4,32,0,235
4,24,100,605
4,24,0,40
4,34,105,80
4,34,0,116
4,34,82,4
4,34,0,203
4,36,98,60
4,43,101,23
4,46,97,23
4,43,104,15
4,34,103,8
4,34,0,142
4,36,100,98
4,36,0,86
4,24,97,34
4,24,0,135
4,24,97,585
4,24,0,120
4,32,105,0
4,32,0,235
4,24,100,53
4,24,0,40
4,34,105,80
4,34,0,116
4,34,82,4
4,34,0,203
4,36,98,60
4,51,105,188
4,53,95,41
4,51,0,11
4,53,0,69
4,51,106,134
4,34,105,38
4,34,0,183
4,36,101,57
4,36,0,93
4,24,109,33
4,24,0,225
4,39,99,97
4,41,88,64
4,39,0,38
4,41,0,57
4,39,97,118
4,39,0,135
4,32,96,92
4,32,0,239
4,29,96,614
4,29,0,73
4,34,98,15
4,34,0,265
4,36,104,228
4,36,0,146
4,27,100,95
4,27,0,115
4,29,101,133
4,29,0,126
4,31,106,107
4,31,0,129
4,34,98,104
4,34,0,110
4,31,87,34
4,31,0,113
4,36,103,2
4,36,0,112
4,36,84,8
4,36,0,86
4,24,97,34
4,24,0,242
4,32,105,718
4,32,0,235
4,34,105,725
4,34,0,116
4,34,90,4
4,34,0,203
4,36,98,60
4,43,97,103
4,36,0,7
4,43,0,116
4,41,97,59
4,36,103,15
4,36,84,8
4,36,0,86
4,24,97,34
4,24,0,242
4,32,105,718
4,32,0,235
4,34,105,725
4,34,0,116
4,34,90,4
4,34,0,203
4,36,98,60
4,29,97,233
4,29,0,123
4,31,73,17
4,34,96,100
4,31,0,35
4,34,0,91
4,31,73,14
4,36,103,100
4,31,0,5
4,36,0,107
4,36,84,8
4,36,0,86
4,24,97,34
4,24,0,242
4,32,105,718
4,32,0,235
4,34,105,725
4,34,0,116
4,34,90,4
4,34,0,203
4,36,98,60
4,29,97,233
4,29,0,123
4,31,73,17
4,34,96,100
4,31,0,35
4,34,0,91
4,31,73,14
4,36,103,100
4,31,0,5
4,36,0,107
4,36,84,8
4,36,0,86
4,24,97,34
4,24,0,242
4,32,105,718
4,32,0,235
4,34,105,725
4,34,0,116
4,34,90,4
4,34,0,203
4,36,98,60
4,29,97,233
4,29,0,123
4,31,73,17
4,34,96,100
4,31,0,35
4,34,0,91
4,31,73,14
4,36,104,100
4,31,0,5
4,36,0,107
4,36,85,8
4,36,0,86
4,24,98,34
