track,note,velocity,time
2,70,90,1149
2,66,86,0
2,66,0,1583
2,70,0,13
2,66,83,132
2,70,81,0
2,66,0,144
2,70,0,11
2,68,90,37
2,73,86,0
2,73,0,212
2,68,0,0
2,68,90,76
2,73,83,0
2,73,0,771
2,68,0,12
2,66,86,81
2,70,90,0
2,66,0,1583
2,70,0,13
2,66,83,132
2,70,83,0
2,66,0,118
2,70,0,13
2,73,86,61
2,68,86,0
2,73,0,215
2,68,0,11
2,73,93,62
2,68,93,0
2,73,0,822
2,68,0,2
2,54,93,40
2,61,90,192
2,54,0,1198
2,61,0,26
2,51,73,120
2,58,101,0
2,54,97,0
2,51,0,1482
2,58,0,4
2,54,0,5
2,54,93,45
2,61,90,192
2,54,0,1198
2,61,0,26
2,54,97,120
2,58,101,0
2,51,73,0
2,51,0,1482
2,58,0,4
2,54,0,5
2,54,93,45
2,61,90,192
2,54,0,1198
2,61,0,26
2,51,73,120
2,58,101,0
2,54,97,0
2,51,0,1482
2,58,0,4
2,54,0,5
2,54,93,45
2,61,90,192
2,54,0,1198
2,61,0,26
2,54,97,120
2,58,101,0
2,51,73,0
2,51,0,1482
2,58,0,4
2,54,0,5
2,61,69,45
2,68,88,0
2,68,0,521
2,66,86,55
2,61,0,854
2,66,0,3
2,65,88,103
2,58,63,0
2,63,86,576
2,65,0,17
2,63,0,877
2,58,0,11
2,68,88,55
2,61,69,0
2,68,0,521
2,66,86,55
2,61,0,854
2,66,0,3
2,58,63,103
2,65,88,0
2,63,86,576
2,65,0,17
2,63,0,877
2,58,0,11
2,61,69,55
2,68,88,0
2,68,0,521
2,66,86,55
2,61,0,854
2,66,0,3
2,65,88,103
2,58,63,0
2,63,86,576
2,65,0,17
2,63,0,877
2,58,0,11
2,68,88,55
2,61,69,0
2,68,0,521
2,66,86,55
2,61,0,854
2,66,0,3
2,58,63,103
2,65,88,0
2,63,86,576
2,65,0,17
2,63,0,877
2,58,0,11
2,66,86,55
2,68,66,0
2,70,90,0
2,68,0,1583
2,66,0,0
2,70,0,13
2,66,83,132
2,70,81,0
2,66,0,144
2,70,0,11
2,68,90,37
2,73,86,0
2,73,0,212
2,68,0,0
2,68,90,76
2,73,83,0
2,73,0,771
2,68,0,12
2,66,86,81
2,68,66,0
2,70,90,0
2,68,0,1583
2,66,0,0
2,70,0,13
2,66,83,132
2,70,83,0
2,66,0,118
2,70,0,13
2,68,86,61
2,73,86,0
2,73,0,215
2,68,0,11
2,68,93,62
2,73,93,0
2,73,0,822
2,68,0,2
2,66,86,40
2,68,66,0
2,70,90,0
2,68,0,1583
2,66,0,0
2,70,0,13
2,66,83,132
2,70,81,0
2,66,0,144
2,70,0,11
2,68,90,37
2,73,86,0
2,73,0,212
2,68,0,0
2,68,90,76
2,73,83,0
2,73,0,771
2,68,0,12
2,66,86,81
2,68,66,0
2,70,90,0
2,68,0,1583
2,66,0,0
2,70,0,13
2,66,83,132
2,70,83,0
2,66,0,118
2,70,0,13
2,68,86,61
2,73,86,0
2,73,0,215
2,68,0,11
2,68,93,62
2,73,93,0
2,73,0,822
2,68,0,2
2,54,93,40
2,61,90,192
2,54,0,1198
2,61,0,26
2,51,73,120
2,58,101,0
2,54,97,0
2,51,0,1482
2,58,0,4
2,54,0,5
2,54,93,45
2,61,90,192
2,54,0,1198
2,61,0,26
2,54,97,120
2,58,101,0
2,51,73,0
2,51,0,1482
2,58,0,4
2,54,0,5
2,54,93,45
2,61,90,192
2,54,0,1198
2,61,0,26
2,51,73,120
2,58,101,0
2,54,97,0
2,51,0,1482
2,58,0,4
2,54,0,5
2,54,93,45
2,61,90,192
2,54,0,1198
2,61,0,26
2,54,97,120
2,58,101,0
2,51,73,0
2,51,0,1482
2,58,0,4
2,54,0,5
2,61,69,45
2,68,88,0
2,68,0,521
2,66,86,55
2,61,0,854
2,66,0,3
2,65,88,103
2,58,63,0
2,63,86,576
2,65,0,17
2,63,0,877
2,58,0,11
2,68,88,55
2,61,69,0
2,68,0,521
2,66,86,55
2,61,0,854
2,66,0,3
2,58,63,103
2,65,88,0
2,63,86,576
2,65,0,17
2,63,0,877
2,58,0,11
2,61,69,55
2,68,88,0
2,68,0,521
2,66,86,55
2,61,0,854
2,66,0,3
2,65,88,103
2,58,63,0
2,63,86,576
2,65,0,17
2,63,0,877
2,58,0,11
2,68,88,55
2,61,69,0
2,68,0,521
2,66,86,55
2,61,0,854
2,66,0,3
2,58,63,103
2,65,88,0
2,63,86,576
2,65,0,17
2,63,0,877
2,58,0,11
2,66,86,55
2,68,66,0
2,70,90,0
2,68,0,1583
2,66,0,0
2,70,0,13
2,66,83,132
2,70,81,0
2,66,0,144
2,70,0,11
2,68,90,37
2,73,86,0
2,73,0,212
2,68,0,0
2,68,90,76
2,73,83,0
2,73,0,771
2,68,0,12
2,66,86,81
2,68,66,0
2,70,90,0
2,68,0,1583
2,66,0,0
2,70,0,13
2,66,83,132
2,70,83,0
2,66,0,118
2,70,0,13
2,68,86,61
2,73,86,0
2,73,0,215
2,68,0,11
2,68,93,62
2,73,93,0
2,73,0,822
2,68,0,2
2,66,86,40
2,68,66,0
2,70,90,0
2,68,0,1583
2,66,0,0
2,70,0,13
2,66,83,132
2,70,81,0
2,66,0,144
2,70,0,11
2,68,90,37
2,73,86,0
2,73,0,212
2,68,0,0
2,68,90,76
2,73,83,0
2,73,0,771
2,68,0,12
2,66,86,81
2,68,66,0
2,70,90,0
2,68,0,1583
2,66,0,0
2,70,0,13
2,66,83,132
2,70,83,0
2,66,0,118
2,70,0,13
2,68,86,61
2,73,86,0
2,73,0,215
2,68,0,11
2,68,93,62
2,73,93,0
2,73,0,822
2,68,0,2
2,54,93,40
2,61,90,192
2,54,0,1198
2,61,0,26
2,51,73,120
2,58,101,0
2,54,97,0
2,51,0,1482
2,58,0,4
2,54,0,5
2,54,93,45
2,61,90,192
2,54,0,1198
2,61,0,26
2,54,97,120
2,58,101,0
2,51,73,0
2,51,0,1482
2,58,0,4
2,54,0,5
2,54,93,45
2,61,90,192
2,54,0,1198
2,61,0,26
2,51,73,120
2,58,101,0
2,54,97,0
2,51,0,1482
2,58,0,4
2,54,0,5
2,54,93,45
2,61,90,192
2,54,0,1198
2,61,0,26
2,54,97,120
2,58,101,0
2,51,73,0
2,51,0,1482
2,58,0,4
2,54,0,5
2,61,69,45
2,68,88,0
2,68,0,521
2,66,86,55
2,61,0,854
2,66,0,3
2,65,88,103
2,58,63,0
2,63,86,576
2,65,0,17
2,63,0,877
2,58,0,11
2,68,88,55
2,61,69,0
2,68,0,521
2,66,86,55
2,61,0,854
2,66,0,3
2,58,63,103
2,65,88,0
2,63,86,576
2,65,0,17
2,63,0,877
2,58,0,11
2,61,69,55
2,68,88,0
2,68,0,521
2,66,86,55
2,61,0,854
2,66,0,3
2,65,88,103
2,58,63,0
2,63,86,576
2,65,0,17
2,63,0,877
2,58,0,11
2,68,88,55
2,61,69,0
2,68,0,521
2,66,86,55
2,61,0,854
2,66,0,3
2,58,63,103
2,65,88,0
2,63,86,576
2,65,0,17
2,63,0,877
2,58,0,11
2,66,86,55
2,68,66,0
2,70,90,0
2,68,0,1583
2,66,0,0
2,70,0,13
2,66,83,132
2,70,81,0
2,66,0,144
2,70,0,11
2,68,90,37
2,73,86,0
2,73,0,212
2,68,0,0
2,68,90,76
2,73,83,0
2,73,0,771
2,68,0,12
2,66,86,81
2,68,66,0
2,70,90,0
2,68,0,1583
2,66,0,0
2,70,0,13
2,66,83,132
2,70,83,0
2,66,0,118
2,70,0,13
2,68,86,61
2,73,86,0
2,73,0,215
2,68,0,11
2,68,93,62
2,73,93,0
2,73,0,822
2,68,0,2
2,66,86,40
2,68,66,0
2,70,90,0
2,68,0,1583
2,66,0,0
2,70,0,13
2,66,83,132
2,70,81,0
2,66,0,144
2,70,0,11
2,68,90,37
2,73,86,0
2,73,0,212
2,68,0,0
2,68,90,76
2,73,83,0
2,73,0,771
2,68,0,12
2,66,86,81
2,68,66,0
2,70,90,0
2,68,0,1583
2,66,0,0
2,70,0,13
2,66,83,132
2,70,83,0
2,66,0,118
2,70,0,13
2,68,86,61
2,73,86,0
2,73,0,215
2,68,0,11
2,68,93,62
2,73,93,0
2,73,0,822
2,68,0,2
2,54,93,40
2,61,90,192
2,54,0,1198
2,61,0,26
2,51,73,120
2,58,101,0
2,54,97,0
2,51,0,1482
2,58,0,4
2,54,0,5
2,54,93,45
2,61,90,192
2,54,0,1198
2,61,0,26
2,54,97,120
2,58,101,0
2,51,73,0
2,51,0,1482
2,58,0,4
2,54,0,5
2,54,93,45
2,61,90,192
2,54,0,1198
2,61,0,26
2,51,73,120
2,58,101,0
2,54,97,0
2,51,0,1482
2,58,0,4
2,54,0,5
2,54,93,45
2,61,90,192
2,54,0,1198
2,61,0,26
2,54,97,120
2,58,101,0
2,51,73,0
2,51,0,1482
2,58,0,4
2,54,0,5
2,54,93,45
2,61,90,192
2,68,73,192
2,66,97,0
2,73,101,0
2,54,0,1006
2,61,0,26
2,66,0,120
2,68,0,0
2,73,0,0
2,51,73,0
2,58,101,0
2,54,97,0
2,66,97,384
2,65,73,0
2,70,101,0
2,51,0,1098
2,58,0,4
2,54,0,5
2,66,0,45
2,65,0,0
2,70,0,0
2,54,93,0
2,61,90,192
2,68,73,192
2,66,97,0
2,73,101,0
2,54,0,1006
2,61,0,26
2,66,0,120
2,68,0,0
2,73,0,0
2,54,97,0
2,58,101,0
2,51,73,0
2,66,97,384
2,65,73,0
2,70,101,0
2,51,0,1098
2,58,0,4
2,54,0,5
2,66,0,45
2,70,0,0
2,65,0,0
2,54,93,0
2,61,90,192
2,54,0,1198
2,61,0,26
2,51,73,120
2,58,101,0
2,54,97,0
2,51,0,1482
2,58,0,4
2,54,0,5
2,54,93,45
2,61,90,192
2,54,0,1198
2,61,0,26
2,54,97,120
2,58,101,0
2,51,73,0
2,51,0,1482
2,58,0,4
2,54,0,5
2,54,93,45
2,61,90,192
2,54,0,1198
2,61,0,26
2,51,73,120
2,58,101,0
2,54,97,0
2,51,0,1482
2,58,0,4
2,54,0,5
2,54,93,45
2,61,90,192
2,54,0,1198
2,61,0,26
2,54,97,120
2,58,101,0
2,51,73,0
2,51,0,1482
2,58,0,4
2,54,0,5
2,54,93,45
2,61,90,192
2,54,0,1198
2,61,0,26
2,51,73,120
2,58,101,0
2,54,97,0
2,51,0,1482
2,58,0,4
2,54,0,5
2,54,93,45
2,61,90,192
2,54,0,1198
2,61,0,26
2,54,97,120
2,58,101,0
2,51,73,0
2,51,0,1482
2,58,0,4
2,54,0,5
2,61,90,45
2,54,93,0
2,61,0,1224
2,54,0,166
3,49,97,6624
3,51,57,47
3,49,0,13
3,51,0,27
3,49,83,131
3,49,0,2
3,42,104,14
3,42,0,128
3,42,106,448
3,42,0,118
3,42,94,10
3,42,0,89
3,42,84,103
3,42,0,15
3,37,101,49
3,37,0,95
3,42,104,97
3,42,0,116
3,44,101,76
3,44,0,128
3,42,95,0
3,39,102,64
3,42,0,7
3,39,0,137
3,39,102,432
3,39,0,106
3,39,94,22
3,39,0,72
3,34,74,120
3,34,0,54
3,37,104,10
3,37,0,104
3,39,99,88
3,39,0,128
3,41,100,64
3,41,0,128
3,42,104,64
3,42,0,128
3,37,84,384
3,37,0,10
3,42,106,54
3,42,0,118
3,42,94,10
3,42,0,89
3,42,84,103
3,42,0,15
3,37,101,49
3,37,0,95
3,42,104,97
3,42,0,116
3,44,101,76
3,44,0,128
3,42,95,0
3,39,102,64
3,42,0,7
3,39,0,137
3,34,84,368
3,34,0,10
3,39,102,54
3,39,0,106
3,39,94,22
3,39,0,72
3,39,74,120
3,39,0,24
3,37,104,40
3,37,0,104
3,39,99,88
3,39,0,128
3,37,100,64
3,37,0,128
3,30,104,64
3,30,0,128
3,42,106,448
3,42,0,118
3,42,94,10
3,42,0,89
3,42,84,103
3,42,0,15
3,37,101,49
3,37,0,95
3,42,104,97
3,42,0,116
3,44,101,76
3,44,0,128
3,42,95,0
3,39,102,64
3,42,0,7
3,39,0,137
3,39,102,432
3,39,0,106
3,39,94,22
3,39,0,72
3,39,74,120
3,39,0,24
3,37,104,40
3,37,0,104
3,39,99,88
3,39,0,128
3,41,100,64
3,41,0,128
3,42,104,64
3,42,0,128
3,37,84,384
3,37,0,10
3,42,106,54
3,42,0,118
3,42,94,10
3,42,0,89
3,42,84,103
3,42,0,15
3,37,101,49
3,37,0,95
3,42,104,97
3,42,0,116
3,44,101,76
3,44,0,128
3,42,95,0
3,39,102,64
3,42,0,7
3,39,0,137
3,34,84,368
3,34,0,10
3,39,102,54
3,39,0,106
3,39,94,22
3,39,0,72
3,39,74,120
3,39,0,24
3,37,104,40
3,37,0,104
3,39,99,88
3,39,0,128
3,37,100,64
3,37,0,128
3,30,104,64
3,30,0,398
3,42,106,178
3,42,0,118
3,42,94,10
3,42,0,89
3,42,84,103
3,42,0,15
3,37,101,49
3,37,0,95
3,42,104,97
3,42,0,116
3,44,101,76
3,44,0,128
3,42,95,0
3,39,102,64
3,42,0,7
3,39,0,137
3,39,102,432
3,39,0,106
3,39,94,22
3,39,0,72
3,34,74,120
3,34,0,54
3,37,104,10
3,37,0,104
3,39,99,88
3,39,0,128
3,41,100,64
3,41,0,128
3,42,104,64
3,42,0,128
3,37,84,384
3,37,0,10
3,42,106,54
3,42,0,118
3,42,94,10
3,42,0,89
3,42,84,103
3,42,0,15
3,37,101,49
3,37,0,95
3,42,104,97
3,42,0,116
3,44,101,76
3,44,0,128
3,42,95,0
3,39,102,64
3,42,0,7
3,39,0,137
3,34,84,368
3,34,0,10
3,39,102,54
3,39,0,106
3,39,94,22
3,39,0,72
3,39,74,120
3,39,0,24
3,37,104,40
3,37,0,104
3,39,99,88
3,39,0,128
3,37,100,64
3,37,0,128
3,30,104,64
3,30,0,398
3,42,106,178
3,42,0,118
3,42,94,10
3,42,0,89
3,42,84,103
3,42,0,15
3,37,101,49
3,37,0,95
3,42,104,97
3,42,0,116
3,44,101,76
3,44,0,128
3,42,95,0
3,39,102,64
3,42,0,7
3,39,0,137
3,39,102,432
3,39,0,106
3,39,94,22
3,39,0,72
3,34,74,120
3,34,0,54
3,37,104,10
3,37,0,104
3,39,99,88
3,39,0,128
3,41,100,64
3,41,0,128
3,42,104,64
3,42,0,128
3,37,84,384
3,37,0,10
3,42,106,54
3,42,0,118
3,42,94,10
3,42,0,89
3,42,84,103
3,42,0,15
3,37,101,49
3,37,0,95
3,42,104,97
3,42,0,116
3,44,101,76
3,44,0,128
3,42,95,0
3,39,102,64
3,42,0,7
3,39,0,137
3,34,84,368
3,34,0,10
3,39,102,54
3,39,0,106
3,39,94,22
3,39,0,72
3,39,74,120
3,39,0,24
3,37,104,40
3,37,0,104
3,39,99,88
3,39,0,128
3,37,100,64
3,37,0,128
3,30,104,64
3,30,0,398
3,42,106,178
3,42,0,118
3,42,94,10
3,42,0,89
3,42,84,103
3,42,0,15
3,37,101,49
3,37,0,95
3,42,104,97
3,42,0,116
3,44,101,76
3,44,0,128
3,42,95,0
3,39,102,64
3,42,0,7
3,39,0,137
3,39,102,432
3,39,0,106
3,39,94,22
3,39,0,72
3,34,74,120
3,34,0,54
3,37,104,10
3,37,0,104
3,39,99,88
3,39,0,128
3,41,100,64
3,41,0,128
3,42,104,64
3,42,0,128
3,37,84,384
3,37,0,10
3,42,106,54
3,42,0,118
3,42,94,10
3,42,0,89
3,42,84,103
3,42,0,15
3,37,101,49
3,37,0,95
3,42,104,97
3,42,0,116
3,44,101,76
3,44,0,128
3,42,87,0
3,39,102,64
3,42,0,7
3,39,0,137
3,34,84,368
3,34,0,10
3,39,102,54
3,39,0,106
3,39,94,22
3,39,0,72
3,39,74,120
3,39,0,24
3,37,104,40
3,37,0,104
3,39,99,88
3,39,0,128
3,37,100,64
3,37,0,128
3,30,104,64
3,30,0,398
3,42,106,178
3,42,0,118
3,42,94,10
3,42,0,89
3,42,84,103
3,42,0,15
3,37,101,49
3,37,0,95
3,42,104,97
3,42,0,116
3,44,101,76
3,44,0,128
