track,note,velocity,time
16,51,90,4608
16,35,60,0
16,51,60,304
16,51,54,176
16,51,107,48
16,38,70,0
16,51,70,304
16,38,55,176
16,51,90,48
16,35,60,0
16,51,50,176
16,51,60,48
16,51,50,176
16,51,107,48
16,38,70,0
16,51,70,304
16,51,55,176
16,38,55,0
16,51,90,48
16,35,60,0
16,51,60,304
16,51,50,176
16,51,107,48
16,38,70,0
16,51,70,304
16,38,55,176
16,51,90,48
16,35,60,0
16,51,60,304
16,51,50,176
16,51,107,48
16,38,70,0
16,51,70,304
16,38,55,176
16,51,90,48
16,35,60,0
16,51,90,304
16,51,50,176
16,51,107,48
16,38,70,0
16,51,70,304
16,38,55,176
16,51,90,48
16,35,60,0
16,51,60,304
16,51,50,176
16,51,100,48
16,38,70,0
16,51,80,304
16,38,55,176
16,51,90,48
16,35,60,0
16,51,60,304
16,51,50,176
16,51,107,48
16,38,70,0
16,51,70,304
16,38,55,176
16,35,60,48
16,38,50,112
16,45,70,112
16,38,25,16
16,38,30,16
16,38,50,16
16,38,90,16
16,35,70,112
16,41,70,112
16,46,60,0
16,51,90,304
16,35,60,0
16,51,60,304
16,51,50,176
16,51,107,48
16,38,70,0
16,51,70,304
16,51,55,176
16,38,55,0
16,51,90,48
16,35,60,0
16,51,50,48
16,51,60,176
16,51,50,176
16,51,100,48
16,38,70,0
16,51,80,304
16,38,55,176
16,51,90,48
16,35,60,0
16,51,60,304
16,51,50,176
16,51,107,48
16,38,70,0
16,51,70,304
16,38,55,176
16,51,90,48
16,35,60,0
16,51,60,304
16,51,50,176
16,51,107,48
16,38,70,0
16,51,70,304
16,38,55,176
16,51,90,48
16,35,60,0
16,51,60,304
16,51,50,176
16,51,107,48
16,38,70,0
16,51,70,304
16,51,55,176
16,38,55,0
16,51,90,48
16,35,60,0
16,51,90,304
16,51,50,176
16,51,107,48
16,38,70,0
16,51,50,176
16,51,70,48
16,38,55,176
16,51,90,48
16,35,60,0
16,51,60,304
16,51,50,176
16,51,107,48
16,38,70,0
16,51,70,304
16,38,55,176
16,51,90,48
16,35,60,0
16,51,60,304
16,51,100,304
16,38,60,0
16,45,70,112
16,48,80,112
16,51,70,0
16,49,5,112
16,51,55,0
16,35,45,0
16,51,90,112
16,35,60,0
16,51,60,304
16,51,100,304
16,38,60,0
16,51,70,304
16,35,45,176
16,51,90,48
16,35,60,0
16,51,60,304
16,51,100,304
16,38,60,0
16,51,70,304
16,51,55,176
16,35,45,0
16,51,90,48
16,35,60,0
16,51,60,304
16,51,100,304
16,38,60,0
16,51,70,304
16,51,55,176
16,35,45,0
16,51,90,48
16,35,60,0
16,51,60,304
16,51,100,304
16,38,60,0
16,51,70,304
16,35,50,0
16,51,90,304
16,35,60,0
16,51,60,304
16,51,108,304
16,38,60,0
16,51,70,304
16,35,45,176
16,51,90,48
16,35,60,0
16,51,60,304
16,51,100,304
16,38,60,0
16,51,70,304
16,35,45,176
16,51,90,48
16,35,60,0
16,51,60,304
16,51,100,304
16,46,50,0
16,38,60,0
16,51,70,304
16,35,45,176
16,35,60,48
16,38,50,112
16,45,70,112
16,38,25,16
16,38,30,16
16,38,50,16
16,38,90,16
16,35,70,112
16,41,70,112
16,46,60,0
16,51,90,304
16,35,60,0
16,51,72,304
16,51,100,304
16,38,60,0
16,51,70,304
16,51,55,176
16,35,45,0
16,51,90,48
16,35,60,0
16,51,60,304
16,51,100,304
16,38,60,0
16,51,70,304
16,35,45,176
16,51,90,48
16,35,60,0
16,51,60,48
16,51,60,176
16,51,100,304
16,38,60,0
16,51,70,304
16,35,45,176
16,51,90,48
16,35,60,0
16,51,60,304
16,51,100,304
16,38,60,0
16,51,72,304
16,51,55,176
16,35,45,0
16,51,90,48
16,35,60,0
16,51,72,304
16,51,100,304
16,38,60,0
16,51,72,304
16,35,45,176
16,51,90,48
16,35,60,0
16,51,60,304
16,51,100,304
16,38,60,0
16,51,70,304
16,35,45,176
16,51,90,48
16,35,60,0
16,51,60,304
16,51,100,304
16,46,50,0
16,38,60,0
16,51,70,304
16,35,45,176
16,51,90,0
16,35,60,0
16,38,70,16
16,51,100,208
16,38,80,0
16,51,90,304
16,35,70,0
16,38,70,16
16,40,99,191
16,35,99,0
16,51,115,17
16,38,85,0
16,40,99,114
16,35,99,0
16,51,80,94
16,51,90,16
16,35,60,0
16,51,60,304
16,51,50,176
16,51,107,48
16,38,70,0
16,51,70,304
16,51,55,176
16,38,55,0
16,51,90,48
16,35,60,0
16,46,40,176
16,51,70,48
16,42,1,0
16,51,50,176
16,51,95,48
16,38,70,0
16,51,70,304
16,51,55,176
16,35,50,0
16,51,90,48
16,35,60,0
16,51,90,304
16,51,54,176
16,51,107,48
16,38,70,0
16,51,70,304
16,45,54,176
16,51,90,48
16,35,60,0
16,51,60,304
16,38,25,176
16,51,100,48
16,46,50,0
16,35,70,0
16,38,40,176
16,51,70,48
16,38,40,48
16,38,80,48
16,49,70,48
16,51,90,0
16,35,60,0
16,51,60,304
16,51,50,176
16,51,107,48
16,38,70,0
16,51,70,304
16,38,55,176
16,51,90,48
16,35,60,0
16,51,60,304
16,51,50,176
16,51,100,48
16,38,70,0
16,51,80,304
16,38,55,176
16,51,90,48
16,35,60,0
16,51,60,304
16,51,50,176
16,51,107,48
16,38,70,0
16,51,70,304
16,38,55,176
16,51,90,48
16,35,60,0
16,51,50,176
16,51,60,48
16,51,50,176
16,51,107,48
16,38,70,0
16,51,70,304
16,38,55,176
16,51,90,48
16,35,60,0
16,51,60,304
16,51,50,176
16,51,107,48
16,38,70,0
16,51,70,304
16,38,55,176
16,51,90,48
16,35,60,0
16,51,60,304
16,51,54,176
16,51,107,48
16,38,70,0
16,51,70,304
16,45,54,176
16,51,90,48
16,35,60,0
16,51,60,304
16,51,54,176
16,51,107,48
16,38,70,0
16,51,70,304
16,38,55,176
16,35,60,48
16,57,105,22
16,57,56,10
16,57,57,12
16,38,50,25
16,57,59,3
16,57,59,11
16,57,60,3
16,57,60,16
16,45,70,8
16,57,61,18
16,57,62,8
16,38,25,8
16,57,64,22
16,38,30,16
16,57,65,27
16,57,65,5
16,38,50,16
16,57,66,20
16,38,90,12
16,57,67,24
16,57,69,3
16,57,70,21
16,57,70,2
16,35,70,8
16,57,71,16
16,57,71,3
16,57,72,14
16,57,72,2
16,57,74,19
16,41,70,5
16,46,60,0
16,57,75,21
16,57,76,27
16,57,77,23
16,57,79,28
16,51,90,56
16,35,60,0
16,49,79,13
16,49,79,14
16,51,50,32
16,51,60,48
16,51,54,176
16,51,107,48
16,38,70,0
16,51,70,304
16,38,55,176
16,51,90,48
16,35,60,0
16,49,79,2
16,49,79,3
16,51,50,60
16,51,60,8
16,57,79,8
16,51,50,176
16,42,110,0
16,51,107,48
16,38,70,0
16,51,70,304
16,57,79,23
16,57,79,91
16,45,54,21
16,51,90,48
16,35,60,0
16,51,60,4
16,51,50,176
16,51,107,48
16,38,70,0
16,51,70,304
16,38,55,176
16,51,90,48
16,35,60,0
16,46,40,176
16,51,70,48
16,42,1,0
16,51,50,176
16,51,95,48
16,38,70,0
16,51,70,304
16,51,55,176
16,35,50,0
16,51,90,48
16,35,60,0
16,51,50,176
16,51,90,48
16,51,54,176
16,51,107,48
16,38,70,0
16,51,70,304
16,38,55,176
16,51,90,48
16,35,60,0
16,46,40,176
16,51,70,48
16,42,1,0
16,51,50,176
16,51,95,48
16,38,70,0
16,51,70,304
16,51,55,176
16,35,50,0
16,57,127,423
16,57,49,7
16,57,51,6
16,57,51,6
16,57,51,6
16,57,52,2
16,57,52,7
16,57,52,2
16,57,52,10
16,57,54,6
16,57,54,8
16,57,54,3
16,57,55,7
16,57,55,4
16,57,55,10
16,57,56,11
16,57,56,15
16,57,57,13
16,57,57,14
16,57,59,14
16,57,60,15
16,57,60,12
16,57,61,6
16,57,61,5
16,57,61,8
16,57,62,8
16,57,62,8
16,57,64,4
16,57,64,8
16,57,64,14
16,57,65,11
16,57,66,14
16,57,66,13
16,57,67,12
16,57,67,9
16,57,69,10
16,57,69,12
16,57,70,3
16,57,70,9
16,57,71,9
16,57,71,7
16,57,71,12
16,57,71,11
16,57,71,13
16,57,70,13
16,57,70,13
16,57,69,13
16,57,69,14
16,57,67,15
16,57,67,10
16,57,67,8
16,57,66,7
16,57,66,2
16,57,66,8
16,57,66,4
16,57,65,8
16,57,65,14
16,57,65,11
16,57,64,14
16,57,64,13
16,57,62,12
16,57,62,9
16,57,62,10
16,57,61,12
16,57,61,3
16,57,61,9
16,57,60,9
16,57,60,7
16,57,59,12
16,57,59,11
16,57,59,13
16,57,57,13
16,57,57,13
16,57,56,13
16,57,56,14
16,57,56,15
16,57,55,10
16,57,55,8
16,57,54,9
17,39,65,779
17,43,65,181
17,44,66,3
17,47,66,9
17,34,66,167
17,41,91,998
17,34,85,0
17,33,85,0
17,40,85,0
17,39,85,0
17,44,60,0
17,39,74,0
17,43,85,29
17,38,85,0
17,37,85,0
17,42,64,0
17,42,68,170
17,41,70,0
17,41,61,77
17,36,85,23
17,35,85,0
17,34,70,0
17,34,61,77
17,43,85,23
17,36,85,0
17,44,85,0
17,44,85,0
17,34,64,0
17,34,68,170
17,33,85,0
17,40,85,0
17,39,85,0
17,44,72,0
17,51,91,1024
17,44,85,0
17,43,85,0
17,38,85,0
17,37,85,0
17,42,72,0
17,42,85,116
17,41,85,0
17,36,85,0
17,35,85,0
17,34,68,0
17,22,56,0
17,34,68,0
17,34,85,32
17,34,85,0
17,39,85,0
17,44,85,0
17,37,85,0
17,42,85,0
17,44,85,0
17,44,85,0
17,37,85,0
17,42,70,0
17,42,61,77
17,42,70,23
17,42,61,77
17,42,70,23
17,42,61,77
17,35,70,23
17,35,61,77
17,40,85,23
17,36,85,0
17,33,85,0
17,44,85,0
17,43,85,0
17,42,85,0
17,41,85,0
17,40,70,0
17,40,61,77
17,34,64,23
17,34,68,170
17,33,85,0
17,40,85,0
17,39,85,0
17,44,72,0
17,44,85,116
17,43,85,0
17,38,85,0
17,37,85,0
17,42,72,0
17,42,85,116
17,41,70,0
17,41,61,77
17,36,85,23
17,35,85,0
17,43,85,0
17,36,85,0
17,41,85,0
17,34,85,0
17,36,85,0
17,35,85,0
17,34,70,0
17,34,61,77
17,34,60,23
17,29,74,0
17,34,85,29
17,42,85,0
17,42,72,0
17,37,63,1408
17,42,70,0
17,46,70,80
17,41,72,74
17,42,85,64
17,35,85,0
17,40,70,0
17,40,61,77
17,42,85,23
17,42,85,0
17,35,70,0
17,35,61,77
17,40,70,23
17,40,61,77
17,40,85,23
17,40,85,0
17,33,85,0
17,38,70,0
17,38,61,77
17,34,85,23
17,37,85,0
17,42,85,0
17,35,85,0
17,40,85,0
17,39,85,0
17,44,85,0
17,38,85,0
17,38,85,0
17,43,85,0
17,44,85,0
17,44,70,0
17,44,61,77
17,44,70,23
17,43,85,160
17,38,85,32
17,38,85,7
17,42,85,0
17,42,70,0
17,42,61,77
17,41,85,23
17,42,85,0
17,35,85,0
17,40,85,0
17,37,85,0
17,36,85,0
17,41,85,0
17,34,85,0
17,39,85,0
17,39,85,461
18,65,57,1517
18,46,60,0
18,58,72,0
18,57,58,0
18,62,62,0
18,53,82,1024
18,57,42,32
18,58,38,128
18,62,78,128
18,55,60,0
18,59,80,0
18,45,66,0
18,64,74,0
18,61,76,0
18,55,61,36
18,59,51,122
18,61,74,128
18,59,72,0
18,55,59,0
18,40,70,0
18,64,68,0
18,62,68,0
18,58,72,0
18,55,59,0
18,39,70,0
18,65,68,0
18,61,68,0
18,56,62,0
18,44,68,0
18,70,72,0
18,60,68,0
18,67,80,0
18,56,51,0
18,70,93,109
18,67,89,0
18,60,80,0
18,63,82,256
18,56,60,23
18,59,60,0
18,62,80,0
18,43,66,0
18,69,74,0
18,65,76,0
18,59,61,36
18,62,51,122
18,65,74,128
18,62,72,0
18,60,59,0
18,50,70,0
18,69,68,0
18,65,68,0
18,63,72,0
18,59,59,0
18,49,70,0
18,68,68,0
18,65,68,0
18,73,61,0
18,65,61,0
18,68,61,0
18,70,61,0
18,42,47,0
18,73,57,84
18,65,57,0
18,68,57,0
18,70,57,0
18,57,60,0
18,60,80,0
18,41,66,0
18,65,74,0
18,63,76,0
18,57,61,36
18,60,51,122
18,63,74,128
18,60,72,0
18,58,59,0
18,48,70,0
18,67,68,0
18,63,68,0
18,61,72,0
18,57,59,0
18,47,70,0
18,66,68,0
18,63,68,0
18,57,60,0
18,58,80,0
18,46,66,0
18,65,74,0
18,62,76,0
18,57,61,36
18,58,51,122
18,62,74,128
18,43,63,0
18,62,82,256
18,58,66,0
18,65,82,0
18,67,72,0
18,48,63,0
18,60,82,256
18,58,66,0
18,63,82,0
18,67,72,0
18,63,72,0
18,60,59,0
18,44,70,0
18,68,68,0
18,66,68,0
18,63,72,0
18,60,59,0
18,44,70,0
18,70,68,0
18,67,68,0
18,72,58,0
18,62,58,0
18,65,58,0
18,69,58,0
18,46,60,0
18,57,55,84
18,62,66,128
18,65,85,128
18,55,60,0
18,59,80,0
18,45,66,0
18,64,74,0
18,61,76,0
18,55,61,36
18,59,51,122
18,61,74,128
18,59,72,0
18,55,59,0
18,40,70,0
18,64,68,0
18,62,68,0
18,58,72,0
18,55,59,0
18,39,70,0
18,65,68,0
18,61,68,0
18,56,62,0
18,44,68,0
18,70,72,0
18,60,68,0
18,67,80,0
18,56,51,0
18,70,93,109
18,67,89,0
18,60,80,0
18,63,82,256
18,56,60,23
18,59,60,0
18,62,80,0
18,43,66,0
18,69,74,0
18,65,76,0
18,59,61,36
18,62,51,122
18,65,74,128
18,62,72,0
18,60,59,0
18,50,70,0
18,69,68,0
18,65,68,0
18,63,72,0
18,59,59,0
18,49,70,0
18,68,68,0
18,65,68,0
18,42,66,0
18,70,68,256
18,61,68,0
18,65,68,0
18,68,68,0
18,42,68,80
18,70,64,128
18,61,64,0
18,65,64,0
18,68,64,0
18,41,63,0
18,60,82,256
18,57,66,0
18,63,82,0
18,65,72,0
18,60,72,0
18,58,59,0
18,48,70,0
18,67,68,0
18,63,68,0
18,61,72,0
18,57,59,0
18,47,70,0
18,66,68,0
18,63,68,0
18,46,55,0
18,58,52,0
18,62,52,0
18,65,52,0
18,46,56,112
18,58,66,23
18,62,66,0
18,65,66,0
18,46,63,0
18,58,82,256
18,53,66,0
18,62,82,0
18,65,72,0
18,58,72,0
18,56,59,0
18,46,70,0
18,65,68,0
18,62,68,0
18,58,72,0
18,54,59,0
18,39,70,0
18,63,68,0
18,61,68,0
18,59,60,0
18,63,80,0
18,44,66,0
18,68,74,0
18,66,76,0
18,59,61,36
18,63,51,122
18,66,74,128
18,59,60,0
18,63,80,0
18,49,66,0
18,68,74,0
18,65,76,0
18,59,61,36
18,63,51,122
18,65,74,128
18,58,60,0
18,61,80,0
18,42,66,0
18,68,74,0
18,65,76,0
18,58,61,36
18,61,51,122
18,65,74,128
18,60,60,0
18,63,80,0
18,44,66,0
18,70,74,0
18,66,76,0
18,60,61,36
18,63,51,122
18,66,74,128
18,63,72,0
18,59,59,0
18,44,70,0
18,68,68,0
18,66,68,0
18,56,53,128
18,61,72,0
18,59,59,0
18,49,70,0
18,68,68,0
18,65,68,0
18,56,53,128
18,58,60,0
18,61,80,0
18,42,66,0
18,68,74,0
18,65,76,0
18,58,61,36
18,61,51,122
18,65,74,128
18,42,63,0
18,61,82,256
18,58,66,0
18,63,82,0
18,66,72,0
18,61,72,0
18,57,59,0
18,42,70,0
18,66,68,0
18,64,68,0
18,54,53,128
18,59,72,0
18,57,59,0
18,47,70,0
18,66,68,0
18,63,68,0
18,54,53,128
18,59,72,0
18,56,59,0
18,40,70,0
18,66,68,0
18,63,68,0
18,52,53,128
18,48,63,0
18,62,82,256
18,58,66,0
18,64,82,0
18,67,72,0
18,57,72,0
18,55,59,0
18,45,70,0
18,64,68,0
18,61,68,0
18,63,72,0
18,60,59,0
18,44,70,0
18,68,68,0
18,66,68,0
