track,note,velocity,time
1,59,57,4597
1,59,57,192
1,59,57,192
1,59,57,192
1,59,57,192
1,59,57,192
1,59,57,192
1,59,57,192
1,59,57,192
1,59,57,192
1,59,57,192
1,59,57,192
1,59,57,768
1,59,57,192
1,59,57,192
1,59,57,192
1,59,57,192
1,59,57,192
1,59,57,192
1,59,57,192
1,59,57,192
1,59,57,192
1,59,57,192
1,59,57,192
1,36,89,1
1,44,82,3
1,42,87,180
1,44,57,4
1,44,65,213
1,44,87,66
1,42,88,338
1,44,66,0
1,44,56,240
1,36,92,80
1,44,81,6
1,44,64,295
1,42,88,1
1,44,69,219
1,44,76,82
1,42,88,330
1,44,60,2
1,36,108,203
1,38,127,2
1,44,51,4
1,36,88,6
1,44,91,3
1,44,69,260
1,42,89,4
1,44,69,199
1,44,91,66
1,42,91,386
1,44,57,0
1,44,47,226
1,36,107,74
1,44,87,5
1,42,90,294
1,44,71,0
1,44,54,236
1,44,91,108
1,42,88,320
1,44,58,4
1,38,127,183
1,36,104,13
1,44,50,2
1,36,89,1
1,44,82,3
1,42,87,180
1,44,57,4
1,44,65,213
1,44,87,66
1,42,88,338
1,44,66,0
1,44,56,240
1,36,92,80
1,44,81,6
1,44,64,295
1,42,88,1
1,44,69,219
1,44,76,82
1,42,88,330
1,44,60,2
1,36,108,203
1,38,127,2
1,44,51,4
1,36,88,6
1,44,91,3
1,44,69,260
1,42,89,4
1,44,69,199
1,44,91,66
1,42,91,386
1,44,57,0
1,44,47,226
1,36,107,74
1,44,87,5
1,42,90,294
1,44,71,0
1,44,54,236
1,44,91,108
1,42,88,320
1,44,58,4
1,38,127,183
1,36,104,13
1,44,50,2
1,36,89,1
1,44,82,3
1,42,87,180
1,44,57,4
1,44,65,213
1,44,87,66
1,42,88,338
1,44,66,0
1,44,56,240
1,36,92,80
1,44,81,6
1,44,64,295
1,42,88,1
1,44,69,219
1,44,76,82
1,42,88,330
1,44,60,2
1,36,108,203
1,38,127,2
1,44,51,4
1,51,57,1163
1,42,91,0
1,51,47,226
1,36,107,74
1,44,87,5
1,42,90,294
1,44,71,0
1,44,54,236
1,44,91,108
1,42,88,320
1,44,58,4
1,38,127,183
1,36,104,13
1,44,50,2
1,36,89,1
1,44,82,3
1,42,87,180
1,44,57,4
1,44,65,213
1,44,87,66
1,42,88,338
1,44,66,0
1,44,56,240
1,36,92,80
1,44,81,6
1,44,64,295
1,42,88,1
1,44,69,219
1,44,76,82
1,42,88,330
1,44,60,2
1,36,108,203
1,38,127,2
1,44,51,4
1,36,88,6
1,44,91,3
1,44,69,260
1,42,89,4
1,44,69,199
1,44,91,66
1,42,91,386
1,44,57,0
1,44,47,226
1,36,107,74
1,44,87,5
1,42,90,294
1,44,71,0
1,44,54,236
1,44,91,108
1,42,88,320
1,44,58,4
1,38,127,183
1,36,104,13
1,44,50,2
1,36,89,1
1,44,82,3
1,42,87,180
1,44,57,4
1,44,65,213
1,44,87,66
1,42,88,338
1,44,66,0
1,44,56,240
1,36,92,80
1,44,81,6
1,44,64,295
1,42,88,1
1,44,69,219
1,44,76,82
1,42,88,330
1,44,60,2
1,36,108,203
1,38,127,2
1,44,51,4
1,36,88,6
1,44,91,3
1,44,69,260
1,42,89,4
1,44,69,199
1,44,91,66
1,42,91,386
1,44,57,0
1,44,47,226
1,36,107,74
1,44,87,5
1,42,90,294
1,44,71,0
1,44,54,236
1,44,91,108
1,42,88,320
1,44,58,4
1,38,127,183
1,36,104,13
1,44,50,2
1,36,89,1
1,44,82,3
1,42,87,180
1,44,57,4
1,44,65,213
1,44,87,66
1,42,88,338
1,44,66,0
1,44,56,240
1,36,92,80
1,44,81,6
1,44,64,295
1,42,88,1
1,44,69,219
1,44,76,82
1,42,88,330
1,44,60,2
1,36,108,203
1,38,127,2
1,44,51,4
1,36,88,6
1,44,91,3
1,44,69,260
1,42,89,4
1,44,69,199
1,44,91,66
1,42,91,386
1,44,57,0
1,44,47,226
1,36,107,74
1,44,87,5
1,44,71,294
1,42,90,0
1,44,54,236
1,44,91,108
1,42,88,320
1,44,58,4
1,38,127,183
1,36,104,13
1,44,50,2
1,51,81,27
1,51,81,19
1,51,81,20
1,51,81,0
1,51,81,19
1,51,81,20
1,51,81,20
1,51,90,19
1,51,90,17
1,48,90,0
1,47,90,9
1,45,90,4
1,43,90,5
1,41,90,124
1,40,90,8
1,53,100,31
1,53,100,0
1,53,100,0
1,53,100,0
1,53,100,0
1,53,100,0
1,53,100,0
1,53,100,0
1,53,100,0
1,53,100,0
1,53,100,0
1,53,100,0
1,36,89,769
1,44,82,3
1,42,87,180
1,44,57,4
1,44,65,213
1,44,87,66
1,44,66,338
1,42,88,0
1,44,56,240
1,36,92,80
1,44,81,6
1,44,64,295
1,42,88,1
1,44,69,219
1,44,76,82
1,42,88,330
1,44,60,2
1,36,108,203
1,38,127,2
1,44,51,4
1,36,88,6
1,44,91,3
1,44,69,260
1,42,89,4
1,44,69,199
1,44,91,66
1,44,57,386
1,42,91,0
1,44,47,226
1,36,107,74
1,44,87,5
1,44,71,294
1,42,90,0
1,44,54,236
1,44,91,108
1,42,88,320
1,44,58,4
1,38,127,183
1,36,104,13
1,44,50,2
1,36,89,36
1,44,82,3
1,42,87,180
1,44,57,4
1,44,65,213
1,44,87,66
1,44,66,338
1,42,88,0
1,44,56,240
1,36,92,80
1,44,81,6
1,44,64,295
1,42,88,1
1,44,69,219
1,44,76,82
1,42,88,330
1,44,60,2
1,36,108,203
1,38,127,2
1,44,51,4
1,36,89,5
1,51,82,3
1,42,87,180
1,51,57,4
1,51,65,213
1,51,87,66
1,51,66,338
1,42,88,0
1,51,56,240
1,36,92,80
1,51,81,6
1,51,64,295
1,42,88,1
1,51,69,219
1,51,76,82
1,42,88,330
1,51,60,2
1,36,108,203
1,38,127,2
1,51,51,4
1,36,88,6
1,51,91,3
1,51,69,260
1,42,89,4
1,51,69,199
1,51,91,66
1,51,57,386
1,42,91,0
1,51,47,226
1,36,107,74
1,51,87,5
1,51,71,294
1,42,90,0
1,51,54,236
1,51,91,108
1,42,88,320
1,51,58,4
1,38,127,183
1,36,104,13
1,51,50,2
1,36,89,36
1,51,82,3
1,42,87,180
1,51,57,4
1,51,65,213
1,51,87,66
1,42,88,338
1,51,66,0
1,51,56,240
1,36,92,80
1,51,81,6
1,51,64,295
1,42,88,1
1,51,69,219
1,51,76,82
1,42,88,330
1,51,60,2
1,36,108,203
1,38,127,2
1,51,51,4
1,36,88,6
1,51,91,3
1,51,69,260
1,42,89,4
1,51,69,199
1,51,91,66
1,42,91,386
1,51,57,0
1,51,47,226
1,36,107,74
1,51,87,5
1,42,90,294
1,51,71,0
1,51,54,236
1,51,91,108
1,42,88,320
1,51,58,4
1,38,127,183
1,36,104,13
1,51,50,2
1,36,89,36
1,51,82,3
1,42,87,180
1,51,57,4
1,51,65,213
1,51,87,66
1,42,88,338
1,51,66,0
1,51,56,240
1,36,92,80
1,51,81,6
1,51,64,295
1,42,88,1
1,51,69,219
1,51,76,82
1,42,88,330
1,51,60,2
1,36,108,203
1,38,127,2
1,51,51,4
1,36,88,6
1,51,91,3
1,51,69,260
1,42,89,4
1,51,69,199
1,51,91,66
1,42,91,386
1,51,57,0
1,51,47,226
1,36,107,74
1,51,87,5
1,42,90,294
1,51,71,0
1,51,54,236
1,51,91,108
1,42,88,320
1,51,58,4
1,38,127,183
1,36,104,13
1,51,50,2
1,36,89,36
1,51,82,3
1,42,87,180
1,51,57,4
1,51,65,213
1,51,87,66
1,42,88,338
1,51,66,0
1,51,56,240
1,36,92,80
1,51,81,6
1,51,64,295
1,42,88,1
1,51,69,219
1,51,76,82
1,42,88,330
1,51,60,2
1,36,108,203
1,38,127,2
1,51,51,4
1,36,88,6
1,51,91,3
1,51,69,260
1,42,89,4
1,51,69,199
1,51,91,66
1,42,91,386
1,51,57,0
1,51,47,226
1,36,107,74
1,51,87,5
1,42,90,294
1,51,71,0
1,51,54,236
1,51,91,108
1,42,88,320
1,51,58,4
1,38,127,183
1,36,104,13
1,51,50,2
1,36,89,36
1,51,82,3
1,42,87,180
1,51,57,4
1,51,65,213
1,51,87,66
1,42,88,338
1,51,66,0
1,51,56,240
1,36,92,80
1,51,81,6
1,51,64,295
1,42,88,1
1,51,69,219
1,51,76,82
1,42,88,330
1,51,60,2
1,36,108,203
1,38,127,2
1,51,51,4
1,36,88,6
1,51,91,3
1,51,69,260
1,42,89,4
1,51,69,199
1,51,91,66
1,42,91,386
1,51,57,0
1,51,47,226
1,36,107,74
1,51,87,5
1,42,90,294
1,51,71,0
1,51,54,236
1,51,91,108
1,42,88,320
1,51,58,4
1,38,127,183
1,36,104,13
1,51,50,2
1,36,89,36
1,51,82,3
1,42,87,180
1,51,57,4
1,51,65,213
1,51,87,66
1,51,66,338
1,42,88,0
1,51,56,240
1,36,92,80
1,51,81,6
1,51,64,295
1,42,88,1
1,51,69,219
1,51,76,82
1,42,88,330
1,51,60,2
1,36,108,203
1,38,127,2
1,51,51,4
1,36,88,6
1,51,91,3
1,51,69,260
1,42,89,4
1,51,69,199
1,51,91,66
1,51,57,386
1,42,91,0
1,51,47,226
1,36,107,74
1,51,87,5
1,51,71,294
1,42,90,0
1,51,54,236
1,51,91,108
1,42,88,320
1,51,58,4
1,38,127,183
1,36,104,13
1,51,50,2
1,36,89,36
1,51,82,3
1,42,87,180
1,51,57,4
1,51,65,213
1,51,87,66
1,51,66,338
1,42,88,0
1,51,56,240
1,36,92,80
1,51,81,6
1,51,64,295
1,42,88,1
1,51,69,219
1,51,76,82
1,42,88,330
1,51,60,2
1,36,108,203
1,38,127,2
1,51,51,4
1,36,88,6
1,51,91,3
1,51,69,260
1,42,89,4
1,51,69,199
1,51,91,66
1,51,57,386
1,42,91,0
1,51,47,226
1,36,107,74
1,51,87,5
1,51,71,294
1,42,90,0
1,51,54,236
1,51,91,108
1,42,88,320
1,51,58,4
1,38,127,183
1,36,104,13
1,51,50,2
1,36,89,36
1,51,82,3
1,42,87,180
1,51,57,4
1,51,65,213
1,51,87,66
1,51,66,338
1,42,88,0
1,51,56,240
1,36,92,80
1,51,81,6
1,51,64,295
1,42,88,1
1,51,69,219
1,51,76,82
1,42,88,330
1,51,60,2
1,36,108,203
1,38,127,2
1,51,51,4
1,36,88,6
1,51,91,3
1,51,69,260
1,42,89,4
1,51,69,199
1,51,91,66
1,51,57,386
1,42,91,0
1,51,47,226
1,36,107,74
1,51,87,5
1,51,71,294
1,42,90,0
1,51,54,236
1,51,91,108
1,42,88,320
1,51,58,4
1,38,127,183
1,36,104,13
1,51,50,2
1,36,89,36
1,51,82,3
1,42,87,180
1,51,57,4
1,51,65,213
1,51,87,66
1,51,66,338
1,42,88,0
1,51,56,240
1,36,92,80
1,51,81,6
1,51,64,295
1,42,88,1
1,51,69,219
1,51,76,82
1,42,88,330
1,51,60,2
1,36,108,203
1,38,127,2
1,51,51,4
1,36,88,6
1,51,91,3
1,51,69,260
1,42,89,4
1,51,69,199
1,51,91,66
1,51,57,386
1,42,91,0
1,51,47,226
1,36,107,74
1,51,87,5
1,51,71,294
1,42,90,0
1,51,54,236
1,51,91,108
1,42,88,320
1,51,58,4
1,38,127,183
1,36,104,13
1,51,50,2
1,36,89,36
1,51,82,3
1,42,87,180
1,51,57,4
1,51,65,213
1,51,87,66
1,51,66,338
1,42,88,0
1,51,56,240
1,36,89,80
1,44,82,3
1,42,87,180
1,44,57,4
1,44,65,213
1,44,87,66
1,44,66,338
1,42,88,0
1,44,56,240
1,36,92,80
1,44,81,6
1,44,64,295
1,42,88,1
1,44,69,219
1,44,76,82
1,42,88,330
1,44,60,2
1,36,108,203
1,38,127,2
1,44,51,4
1,36,88,6
1,44,91,3
1,44,69,260
1,42,89,4
1,44,69,199
1,44,91,66
1,44,57,386
1,42,91,0
1,44,47,226
1,36,107,74
1,44,87,5
1,44,71,294
1,42,90,0
1,44,54,236
1,44,91,108
1,42,88,320
1,44,58,4
1,38,127,183
1,36,104,13
1,44,50,2
1,36,89,36
1,44,82,3
1,42,87,180
1,44,57,4
1,44,65,213
1,44,87,66
1,44,66,338
1,42,88,0
1,44,56,240
1,36,92,80
1,44,81,6
1,44,64,295
1,42,88,1
1,44,69,219
1,44,76,82
1,42,88,330
1,44,60,2
1,36,108,203
1,38,127,2
1,44,51,4
1,51,81,44
1,51,81,19
1,51,81,20
1,51,81,0
1,51,81,19
1,51,81,20
1,51,81,20
1,51,90,19
1,51,90,17
1,48,90,0
1,47,90,9
1,45,90,4
1,43,90,5
1,41,90,124
1,40,90,8
1,53,100,31
1,53,100,0
1,53,100,0
1,53,100,0
1,53,100,0
1,53,100,0
1,53,100,0
1,53,100,0
1,53,100,0
1,53,100,0
1,53,100,0
1,53,100,0
1,36,89,769
1,44,82,3
1,42,87,180
1,44,57,4
1,44,65,213
1,44,87,66
1,44,66,338
1,42,88,0
1,44,56,240
1,36,92,80
1,44,81,6
1,44,64,295
1,42,88,1
1,44,69,219
1,44,76,82
1,42,88,330
1,44,60,2
1,36,108,203
1,38,127,2
1,44,51,4
1,36,88,6
1,44,91,3
1,44,69,260
1,42,89,4
1,44,69,199
1,44,91,66
1,44,57,386
1,42,91,0
1,44,47,226
1,36,107,74
1,44,87,5
1,44,71,294
1,42,90,0
1,44,54,236
1,44,91,108
1,42,88,320
1,44,58,4
1,38,127,183
1,36,104,13
1,44,50,2
1,36,89,36
1,44,82,3
1,42,87,180
1,44,57,4
1,44,65,213
1,44,87,66
1,44,66,338
1,42,88,0
1,44,56,240
1,36,92,80
1,44,81,6
1,44,64,295
1,42,88,1
1,44,69,219
1,44,76,82
1,42,88,330
1,44,60,2
1,36,108,203
1,38,127,2
1,44,51,4
1,59,56,4
1,59,56,192
1,59,56,192
1,59,56,192
1,59,56,192
1,59,56,192
1,59,56,192
1,59,56,192
1,59,56,192
1,59,56,192
1,59,56,192
1,59,56,192
1,59,56,192
1,59,56,192
1,59,56,192
1,59,56,192
1,59,56,192
1,59,56,192
1,59,56,192
1,59,56,192
2,63,69,18413
2,62,69,768
2,63,69,760
2,62,69,10
2,63,69,17
2,62,69,768
2,63,69,0
2,62,69,0
2,63,69,2
2,62,69,768
2,63,69,8
2,62,69,768
2,63,69,2
2,62,69,768
2,63,69,720
2,62,69,798
2,62,69,17
2,59,69,0
2,63,69,56
2,60,69,0
2,63,69,24
2,59,69,0
2,59,69,23
2,61,69,0
2,61,69,36
2,66,69,0
2,66,69,40
2,60,69,0
2,69,69,51
2,62,69,0
2,68,69,6
2,68,69,384
2,67,69,61
2,66,69,14
2,59,69,0
2,68,69,308
2,63,69,0
2,59,69,0
2,70,69,7
2,61,69,0
2,65,69,0
2,70,69,3
2,62,69,0
2,61,69,4
2,66,69,0
2,65,69,8
2,65,69,14
2,59,69,0
2,65,69,52
2,62,69,0
2,58,69,18
2,63,69,0
2,63,69,22
2,57,69,0
2,59,69,0
2,61,69,24
2,59,69,0
2,64,69,0
2,58,69,4
2,63,69,0
2,63,69,22
2,57,69,0
2,59,69,0
2,59,69,24
2,61,69,0
2,64,69,0
2,63,69,4
2,59,69,0
2,56,69,19
2,63,69,0
2,59,69,0
2,56,69,1
2,61,69,0
2,59,69,0
2,61,69,11
2,65,69,0
2,58,69,34
2,61,69,0
2,66,69,0
2,57,69,72
2,58,69,42
2,63,69,0
2,63,69,108
2,60,69,0
2,60,69,45
2,63,69,0
2,61,69,2
2,57,69,0
2,57,69,65
2,61,69,0
2,57,69,64
2,61,69,0
2,56,69,20
2,59,69,0
2,56,69,69
2,59,69,0
2,59,69,56
2,56,69,0
2,58,69,740
2,46,69,31
2,51,69,109
2,53,69,5
2,58,69,203
2,54,69,178
2,63,69,9
2,65,69,198
2,70,69,3
2,66,69,202
2,75,69,1
2,77,69,6
2,82,69,183
2,63,83,32
2,59,75,2
2,61,96,366
2,59,73,0
2,66,75,34
2,61,86,0
2,66,80,36
2,60,64,3
