track,note,velocity,time
1,36,90,4192
1,48,59,0
1,28,86,100
1,40,65,4
1,31,89,96
1,43,62,0
1,33,83,100
1,45,65,0
1,36,82,100
1,48,60,0
1,33,89,100
1,45,64,0
1,31,79,96
1,43,69,0
1,28,85,96
1,40,72,4
1,36,93,124
1,48,59,0
1,28,90,100
1,40,70,4
1,31,86,96
1,43,67,0
1,33,91,100
1,45,72,0
1,36,97,100
1,48,73,0
1,34,96,100
1,46,72,0
1,33,94,96
1,45,80,0
1,31,92,96
1,43,78,4
1,29,90,124
1,41,71,0
1,33,85,100
1,45,63,4
1,36,95,96
1,48,69,0
1,38,91,100
1,50,75,0
1,39,91,100
1,51,78,0
1,38,94,100
1,50,66,0
1,36,94,96
1,48,75,0
1,33,94,96
1,45,73,4
1,36,90,124
1,48,59,0
1,28,86,100
1,40,65,4
1,31,89,96
1,43,62,0
1,33,83,100
1,45,65,0
1,36,82,100
1,48,60,0
1,33,89,100
1,45,64,0
1,31,79,96
1,43,69,0
1,28,85,96
1,40,72,4
1,38,93,124
1,50,59,0
1,40,90,100
1,28,70,4
1,29,86,96
1,41,67,0
1,30,91,100
1,42,72,0
1,31,97,100
1,43,73,0
1,29,96,100
1,41,72,0
1,28,94,96
1,40,80,0
1,38,92,96
1,50,78,4
1,36,90,124
1,48,71,0
1,28,85,100
1,40,63,4
1,31,95,96
1,43,69,0
1,33,91,100
1,45,75,0
1,36,91,100
1,48,78,0
1,33,94,100
1,45,66,0
1,31,94,96
1,43,75,0
1,28,94,96
1,40,73,4
1,36,90,124
1,48,59,0
1,28,86,100
1,40,65,4
1,31,89,96
1,43,62,0
1,33,83,100
1,45,65,0
1,36,82,100
1,48,60,0
1,33,89,100
1,45,64,0
1,31,79,96
1,43,69,0
1,28,85,96
1,40,72,4
1,36,93,124
1,48,59,0
1,28,90,100
1,40,70,4
1,31,86,96
1,43,67,0
1,33,91,100
1,45,72,0
1,36,97,100
1,48,73,0
1,34,96,100
1,46,72,0
1,33,94,96
1,45,80,0
1,31,92,96
1,43,78,4
1,29,90,124
1,41,71,0
1,33,85,100
1,45,63,4
1,36,95,96
1,48,69,0
1,38,91,100
1,50,75,0
1,39,91,100
1,51,78,0
1,38,94,100
1,50,66,0
1,36,94,96
1,48,75,0
1,33,94,96
1,45,73,4
1,36,90,124
1,48,59,0
1,28,86,100
1,40,65,4
1,31,89,96
1,43,62,0
1,33,83,100
1,45,65,0
1,36,82,100
1,48,60,0
1,33,89,100
1,45,64,0
1,31,79,96
1,43,69,0
1,28,85,96
1,40,72,4
1,38,93,124
1,50,59,0
1,40,90,100
1,28,70,4
1,29,86,96
1,41,67,0
1,30,91,100
1,42,72,0
1,31,97,100
1,43,73,0
1,29,96,100
1,41,72,0
1,28,94,96
1,40,80,0
1,38,92,96
1,50,78,4
1,36,101,108
1,43,78,1620
1,40,94,4
1,36,66,52
1,31,94,420
1,36,84,8
1,31,96,36
1,36,109,60
1,38,90,32
1,40,103,4
1,31,84,4
1,36,78,4
1,31,78,20
1,29,90,0
1,28,103,0
1,31,109,0
1,36,97,24
1,40,102,12
1,43,90,20
1,48,115,8
1,43,92,8
1,40,103,4
1,36,99,28
1,31,104,16
1,36,96,4
1,31,103,40
1,28,84,4
1,29,115,4
1,41,102,44
1,33,103,68
1,36,103,28
1,38,96,4
1,39,109,4
1,29,109,4
1,36,103,12
1,35,99,0
1,34,88,4
1,33,93,0
1,31,93,0
1,43,93,64
1,36,103,60
1,40,84,32
1,43,90,68
1,48,84,96
1,43,83,4
1,41,84,8
1,40,88,4
1,36,109,0
1,31,101,16
1,36,84,4
1,31,96,48
1,43,78,96
1,33,96,288
1,45,78,96
1,34,96,288
1,46,78,96
1,35,96,288
1,47,78,96
1,36,121,164
1,48,90,0
1,46,78,4
1,45,90,4
1,44,78,4
1,43,78,4
1,31,72,88
1,41,78,0
1,40,90,0
1,38,78,12
1,36,90,8
1,48,59,0
1,28,86,100
1,40,65,4
1,31,89,96
1,43,62,0
1,33,83,100
1,45,65,0
1,36,82,100
1,48,60,0
1,33,89,100
1,45,64,0
1,31,79,96
1,43,69,0
1,28,85,96
1,40,72,4
1,36,93,124
1,48,59,0
1,28,90,100
1,40,70,4
1,31,86,96
1,43,67,0
1,33,91,100
1,45,72,0
1,36,97,100
1,48,73,0
1,34,96,100
1,46,72,0
1,33,94,96
1,45,80,0
1,31,92,96
1,43,78,4
1,29,90,124
1,41,71,0
1,33,85,100
1,45,63,4
1,36,95,96
1,48,69,0
1,38,91,100
1,50,75,0
1,39,91,100
1,51,78,0
1,38,94,100
1,50,66,0
1,36,94,96
1,48,75,0
1,33,94,96
1,45,73,4
1,36,90,124
1,48,59,0
1,28,86,100
1,40,65,4
1,31,89,96
1,43,62,0
1,33,83,100
1,45,65,0
1,36,82,100
1,48,60,0
1,33,89,100
1,45,64,0
1,31,79,96
1,43,69,0
1,28,85,96
1,40,72,4
1,38,93,124
1,50,59,0
1,40,90,100
1,28,70,4
1,29,86,96
1,41,67,0
1,30,91,100
1,42,72,0
1,31,97,100
1,43,73,0
1,29,96,100
1,41,72,0
1,28,94,96
1,40,80,0
1,38,92,96
1,50,78,4
1,36,90,124
1,48,71,0
1,28,85,100
1,40,63,4
1,31,95,96
1,43,69,0
1,33,91,100
1,45,75,0
1,36,91,100
1,48,78,0
1,33,94,100
1,45,66,0
1,31,94,96
1,43,75,0
1,28,94,96
1,40,73,4
1,36,90,124
1,48,59,0
1,28,86,100
1,40,65,4
1,31,89,96
1,43,62,0
1,33,83,100
1,45,65,0
1,36,82,100
1,48,60,0
1,33,89,100
1,45,64,0
1,31,79,96
1,43,69,0
1,28,85,96
1,40,72,4
1,36,93,124
1,48,59,0
1,28,90,100
1,40,70,4
1,31,86,96
1,43,67,0
1,33,91,100
1,45,72,0
1,36,97,100
1,48,73,0
1,34,96,100
1,46,72,0
1,33,94,96
1,45,80,0
1,31,92,96
1,43,78,4
1,29,90,124
1,41,71,0
1,33,85,100
1,45,63,4
1,36,95,96
1,48,69,0
1,38,91,100
1,50,75,0
1,39,91,100
1,51,78,0
1,38,94,100
1,50,66,0
1,36,94,96
1,48,75,0
1,33,94,96
1,45,73,4
1,36,90,124
1,48,59,0
1,28,86,100
1,40,65,4
1,31,89,96
1,43,62,0
1,33,83,100
1,45,65,0
1,36,82,100
1,48,60,0
1,33,89,100
1,45,64,0
1,31,79,96
1,43,69,0
1,28,85,96
1,40,72,4
1,38,93,124
1,50,59,0
1,40,90,100
1,28,70,4
1,29,86,96
1,41,67,0
1,30,91,100
1,42,72,0
1,31,97,100
1,43,73,0
1,29,96,100
1,41,72,0
1,28,94,96
1,40,80,0
1,38,92,96
1,50,78,4
1,36,101,108
1,43,78,1620
1,40,94,4
1,36,116,52
2,36,74,4168
2,40,67,388
2,43,62,336
2,45,52,8
2,48,53,384
2,45,44,32
2,43,62,0
2,40,56,392
2,36,54,340
2,40,56,332
2,43,63,356
2,45,57,344
2,48,64,24
2,46,63,384
2,45,55,352
2,43,48,380
2,41,51,308
2,45,60,372
2,48,67,248
2,50,65,0
2,51,69,384
2,50,70,352
2,48,69,256
2,45,51,372
2,36,57,332
2,40,57,12
2,43,58,0
2,45,53,380
2,48,66,356
2,45,63,380
2,43,62,8
2,40,60,392
2,38,64,340
2,40,65,360
2,41,67,376
2,42,66,344
2,43,67,4
2,41,65,384
2,40,64,376
2,38,61,300
2,36,67,340
2,40,70,344
2,43,67,8
2,45,60,380
2,48,66,332
2,45,50,336
2,43,57,300
2,40,61,372
2,36,62,372
2,40,65,320
2,43,61,360
2,45,58,32
2,48,61,384
2,45,53,364
2,43,63,12
2,40,51,384
2,36,53,4
2,40,59,380
2,43,49,360
2,45,50,364
2,48,61,372
2,46,54,348
2,45,38,4
2,43,54,16
2,41,53,388
2,45,46,364
2,48,55,364
2,50,63,12
2,51,67,388
2,50,65,380
2,48,59,344
2,45,43,372
2,36,56,196
2,40,58,352
2,43,54,364
2,45,52,336
2,48,59,384
2,45,61,316
2,43,61,300
2,40,55,380
2,38,62,332
2,40,69,372
2,41,65,352
2,42,67,328
2,43,55,376
2,41,57,372
2,40,57,348
2,38,52,348
2,36,57,348
2,43,59,1472
2,40,51,132
2,36,62,248
2,43,75,308
2,48,66,388
2,48,69,60
2,50,73,376
2,52,66,356
2,48,63,668
2,43,61,556
2,43,67,168
2,48,63,388
2,48,61,108
2,50,62,380
2,51,63,364
2,48,61,704
2,43,49,700
2,59,60,672
2,53,50,4
2,55,56,0
2,48,51,656
2,46,63,116
2,45,41,12
2,44,53,244
2,43,67,232
2,43,58,152
2,41,65,0
2,40,63,228
2,38,38,276
2,36,51,312
2,40,61,380
2,43,54,348
2,45,56,300
2,48,55,368
2,45,53,344
2,43,55,8
2,40,53,392
2,36,46,352
2,40,51,356
2,43,59,332
2,45,52,8
2,48,60,12
2,46,58,384
2,45,47,292
2,43,47,4
2,41,51,24
2,45,48,384
2,48,52,8
2,50,58,384
2,51,67,312
2,50,62,348
2,48,57,320
2,45,51,316
2,36,54,36
2,40,51,392
2,43,54,0
2,45,52,376
2,48,51,4
2,45,48,376
2,43,60,304
2,40,51,384
2,38,52,4
2,40,56,380
2,41,51,372
2,42,53,12
2,43,52,20
2,41,59,380
2,40,58,380
2,38,52,348
2,36,51,8
2,40,56,0
2,43,65,388
2,45,50,356
2,48,51,392
2,45,43,344
2,43,51,8
2,40,52,376
2,36,48,380
2,40,54,352
2,43,57,8
2,45,53,380
2,48,58,16
2,45,42,380
2,43,44,16
2,40,55,388
2,36,48,368
2,40,63,360
2,43,50,12
2,45,45,384
2,48,54,8
2,46,51,384
2,45,41,28
2,43,45,388
2,41,45,8
2,45,32,388
2,48,51,360
2,50,57,320
2,51,58,344
2,50,55,0
2,48,51,384
2,45,46,364
2,36,53,308
2,40,54,344
2,43,49,372
2,45,48,328
2,48,56,356
2,45,51,360
2,43,49,308
2,40,56,372
2,38,60,348
2,40,58,380
2,41,63,104
2,42,61,372
2,43,62,384
2,41,57,0
2,40,63,384
2,38,61,28
2,36,67,0
2,43,63,1372
2,40,61,128
2,36,85,24
3,64,72,3764
3,69,73,0
3,72,83,0
3,67,74,0
3,67,71,176
3,72,78,0
3,64,72,0
3,69,64,0
3,67,81,476
3,69,70,0
3,72,88,0
3,64,87,0
3,64,83,644
3,72,79,0
3,67,80,0
3,69,72,0
3,67,75,492
3,72,79,0
3,64,73,0
3,69,71,0
3,72,87,504
3,64,79,0
3,67,77,0
3,69,76,0
3,64,76,88
3,67,78,0
3,72,85,0
3,69,70,0
3,72,79,460
3,64,71,0
3,67,65,0
3,69,65,0
3,64,81,688
3,70,81,0
3,72,85,0
3,67,49,4
3,64,79,492
3,70,78,0
3,72,77,0
3,67,38,4
3,63,78,488
3,72,85,0
3,67,75,4
3,69,69,0
3,72,85,164
3,63,85,4
3,67,81,0
3,69,75,0
3,63,78,456
3,72,77,0
3,67,72,4
3,69,64,0
3,63,76,676
3,67,79,0
3,72,76,0
3,69,59,8
3,63,83,472
3,72,77,0
3,67,76,0
3,69,64,4
3,67,74,488
3,72,77,0
3,69,70,4
3,64,62,4
3,67,81,108
3,64,75,0
3,72,82,0
3,69,59,4
3,72,76,464
3,67,63,0
3,69,62,0
3,64,36,8
3,67,75,680
3,72,77,0
3,64,73,0
3,69,61,0
3,64,76,480
3,67,66,0
3,69,60,0
3,72,73,0
3,62,82,488
3,65,81,0
3,72,82,0
3,69,70,4
3,65,81,132
3,72,81,0
3,69,66,0
3,62,65,4
3,62,85,456
3,65,86,0
3,72,85,0
3,69,57,4
3,65,82,676
3,62,73,0
3,69,61,0
3,72,78,0
3,62,83,476
3,65,86,0
3,72,75,0
3,69,57,4
3,72,78,1244
3,67,69,0
3,69,64,0
3,64,66,4
3,67,70,296
3,72,77,0
3,64,69,4
3,69,63,0
3,67,80,84
3,64,70,4
3,69,66,0
3,72,79,0
3,67,81,464
3,64,70,4
3,69,63,0
3,72,80,0
3,67,77,680
3,72,84,0
3,64,72,4
3,69,66,0
3,67,82,464
3,72,83,0
3,64,79,0
3,69,75,0
3,64,81,484
3,67,79,0
3,69,72,0
3,72,85,0
3,64,73,92
3,67,81,0
3,72,81,0
3,69,67,0
3,67,77,452
3,72,83,0
3,64,71,0
3,69,67,0
3,64,77,676
3,67,79,0
3,72,85,0
3,70,68,0
3,64,79,480
3,67,77,0
3,70,77,0
3,72,86,0
3,72,85,464
3,63,80,4
3,67,79,0
3,69,73,4
3,67,79,148
3,72,83,0
3,63,77,4
3,69,72,0
3,72,75,448
3,63,73,4
3,67,70,0
3,69,46,4
3,63,76,672
3,67,76,0
3,72,72,0
3,69,65,4
3,72,90,484
3,63,74,4
3,67,75,4
3,69,67,0
3,64,84,436
3,72,89,0
3,67,79,4
3,69,79,0
3,67,84,92
3,64,76,0
3,69,73,0
3,72,84,0
3,72,88,468
3,67,79,0
3,64,70,4
3,69,65,0
3,64,67,668
3,67,72,0
3,69,75,0
3,72,63,0
3,67,83,484
3,72,79,0
3,64,69,0
3,69,67,0
3,65,89,464
3,72,88,0
3,62,83,4
3,69,75,4
3,65,85,92
3,69,70,4
3,72,72,0
3,62,58,0
3,65,92,476
3,72,85,0
3,69,62,0
3,62,65,4
3,65,94,660
3,62,83,4
3,69,62,0
3,72,79,0
3,65,87,488
3,72,81,0
3,62,75,0
3,69,33,4
3,72,89,828
3,74,85,32
3,72,79,116
3,69,85,12
3,72,90,112
3,74,88,36
3,72,84,128
3,69,79,36
3,72,91,128
3,67,92,292
3,69,88,4
3,72,92,0
3,76,97,4
3,72,88,924
3,64,73,0
3,69,85,292
3,72,83,124
3,64,72,4
3,69,72,332
3,64,72,520
3,72,78,4
3,69,77,168
3,64,69,136
3,72,75,0
3,69,65,8
3,64,65,512
3,72,79,4
3,69,79,236
3,64,61,128
3,72,72,0
3,69,70,352
3,70,77,296
3,64,70,4
3,67,75,44
3,69,73,120
3,64,71,56
3,70,83,4
3,63,77,596
3,72,85,0
3,69,74,164
3,72,85,16
3,63,74,4
3,69,66,384
3,63,83,508
3,72,88,4
3,69,76,132
3,72,89,32
3,63,78,4
3,69,67,380
3,64,72,524
3,72,85,4
3,69,85,172
3,72,83,28
3,64,68,8
3,69,73,12
3,64,66,272
3,72,82,0
3,67,75,48
3,69,75,128
3,64,63,156
3,72,83,4
3,75,90,160
3,76,82,68
3,79,92,52
3,78,94,392
3,77,91,220
3,67,74,60
3,69,76,128
3,71,76,56
3,74,88,116
3,67,73,248
3,71,78,116
3,74,81,48
3,79,96,48
3,76,83,380
3,72,86,16
3,64,85,2196
3,67,88,0
3,69,80,0
3,72,95,0
3,69,76,84
3,64,74,4
3,72,83,0
3,67,61,0
3,64,77,444
3,67,72,0
3,72,78,0
3,69,59,4
3,64,86,676
3,67,79,0
3,69,74,0
3,72,76,0
3,64,79,476
3,67,74,0
3,72,83,0
3,69,70,0
3,64,87,464
3,72,84,0
3,67,76,0
3,69,77,0
3,72,83,184
3,64,75,0
3,67,76,0
3,69,68,0
3,72,80,476
3,64,68,4
3,67,72,0
3,69,68,0
3,67,81,664
3,72,82,0
3,64,85,4
3,70,65,0
3,64,78,456
3,72,85,0
3,67,68,4
3,70,67,0
3,67,82,460
3,72,88,0
3,63,79,0
3,69,72,0
3,72,82,96
3,63,68,4
3,67,75,0
3,69,66,0
3,72,80,448
3,63,74,0
3,67,73,0
3,69,58,8
3,67,83,672
3,72,79,0
3,63,73,4
3,69,68,0
3,72,89,480
3,63,80,4
3,67,83,0
3,69,77,0
3,64,87,448
3,72,85,0
3,67,80,0
3,69,76,4
3,69,75,48
3,72,79,0
3,64,72,0
3,67,72,0
3,64,72,460
3,72,74,0
3,67,67,4
3,69,58,0
3,67,74,664
3,72,80,0
3,64,75,4
3,69,68,0
3,64,78,488
3,67,79,0
3,69,71,0
3,72,79,0
3,62,82,492
3,65,88,0
3,72,90,0
3,69,77,0
3,72,84,60
3,65,71,4
