track,note,velocity,time
15,38,81,7092
15,38,81,0
15,36,81,0
15,38,81,0
15,36,81,29
15,38,81,0
15,36,81,2189
15,38,57,7
15,38,41,0
15,38,42,0
15,38,41,0
15,38,40,0
15,38,38,0
15,38,37,0
15,38,37,0
15,38,38,0
15,38,41,0
15,38,44,0
15,38,46,0
15,36,79,51
15,38,79,0
15,38,81,2573
15,38,81,20
15,36,81,29
15,38,81,0
15,36,81,2189
15,38,57,7
15,38,41,0
15,38,42,0
15,38,41,0
15,38,40,0
15,38,38,0
15,38,37,0
15,38,37,0
15,38,38,0
15,38,41,0
15,38,44,0
15,38,46,0
15,36,80,38
15,38,80,0
15,38,81,2580
15,38,81,0
15,36,81,0
15,38,81,0
15,36,81,29
15,38,81,0
15,38,81,2573
15,38,81,20
15,36,81,29
15,38,81,0
15,38,81,1421
15,38,81,19
15,35,80,0
15,51,90,0
15,49,90,0
15,38,90,0
15,42,99,304
15,51,99,0
15,51,55,188
15,51,100,36
15,38,50,188
15,51,80,0
15,42,101,36
15,51,101,0
15,51,60,188
15,35,80,36
15,51,100,0
15,42,101,304
15,51,101,0
15,51,90,188
15,51,100,36
15,42,103,304
15,51,103,0
15,45,103,0
15,35,70,188
15,51,80,0
15,45,60,0
15,51,81,36
15,38,81,115
15,38,81,39
15,36,81,38
15,51,81,0
15,36,81,39
15,38,81,0
15,36,81,77
15,38,81,0
15,38,81,2599
15,38,81,0
15,38,81,0
15,36,81,0
15,38,81,29
15,36,81,0
15,36,81,2189
15,38,57,7
15,38,41,0
15,38,42,0
15,38,41,0
15,38,40,0
15,38,38,0
15,38,37,0
15,38,37,0
15,38,38,0
15,38,41,0
15,38,44,0
15,38,46,0
15,38,79,51
15,36,79,0
15,38,81,2573
15,38,81,20
15,38,81,29
15,36,81,0
15,36,81,2189
15,38,57,7
15,38,41,0
15,38,42,0
15,38,41,0
15,38,40,0
15,38,38,0
15,38,37,0
15,38,37,0
15,38,38,0
15,38,41,0
15,38,44,0
15,38,46,0
15,36,79,51
15,38,79,0
15,38,81,2573
15,38,81,20
15,38,81,29
15,36,81,0
15,38,81,2573
15,38,81,20
15,38,81,29
15,36,81,0
15,38,94,1421
15,38,94,39
15,49,94,96
15,36,94,0
15,38,94,384
15,38,94,39
15,57,94,96
15,36,94,0
15,38,94,384
15,38,94,39
15,36,94,38
15,49,94,0
15,38,94,384
15,38,94,39
15,57,94,57
15,49,94,38
15,36,94,0
15,51,99,116
15,40,99,0
15,51,99,188
15,36,99,36
15,57,99,0
15,36,100,288
15,38,100,0
15,36,100,67
15,38,100,0
15,35,100,20
15,38,100,0
15,38,60,48
15,38,50,48
15,38,40,48
15,42,100,0
15,38,30,32
15,48,90,7
15,38,60,48
15,38,40,48
15,45,90,48
15,38,60,48
15,42,100,0
15,38,40,32
15,41,90,7
15,49,90,48
15,51,90,0
15,35,80,0
15,51,115,304
15,42,100,0
15,51,55,188
15,51,100,36
15,51,80,188
15,38,50,0
15,51,115,36
15,42,100,0
15,51,60,188
15,51,100,36
15,35,80,0
15,51,115,304
15,42,100,0
15,51,90,188
15,51,100,36
15,45,70,304
15,51,115,0
15,42,100,0
15,45,60,188
15,51,80,0
15,35,70,0
15,51,90,36
15,35,90,0
15,51,115,304
15,42,100,0
15,51,55,188
15,51,100,36
15,51,115,304
15,42,100,0
15,51,60,188
15,35,70,0
15,51,100,36
15,35,80,0
15,51,115,304
15,42,100,0
15,51,90,188
15,51,100,36
15,45,70,304
15,51,115,0
15,42,100,0
15,45,60,188
15,51,80,0
15,35,70,0
15,51,90,36
15,51,115,304
15,42,100,0
15,51,55,188
15,51,100,36
15,51,80,188
15,51,115,36
15,42,100,0
15,51,60,188
15,51,100,36
15,35,80,0
15,51,115,304
15,42,100,0
15,51,90,188
15,51,100,36
15,45,70,304
15,51,115,0
15,42,100,0
15,45,60,188
15,51,80,0
15,35,70,0
15,51,90,36
15,35,90,0
15,51,115,304
15,42,100,0
15,51,55,188
15,51,100,36
15,51,115,304
15,42,100,0
15,51,60,188
15,35,70,0
15,38,100,36
15,35,100,0
15,38,60,48
15,38,50,48
15,42,100,48
15,38,40,0
15,38,30,48
15,48,90,48
15,38,60,48
15,38,40,48
15,45,90,48
15,42,100,48
15,38,60,0
15,38,40,48
15,41,90,48
15,51,90,48
15,51,115,304
15,42,100,0
15,51,55,188
15,51,100,36
15,51,115,304
15,42,100,0
15,51,60,188
15,51,100,36
15,35,80,0
15,51,115,304
15,42,100,0
15,51,90,188
15,51,100,36
15,45,70,304
15,51,115,0
15,42,100,0
15,45,60,188
15,51,80,0
15,35,70,0
15,51,90,36
15,51,115,304
15,42,100,0
15,51,55,188
15,51,100,36
15,51,115,304
15,42,100,0
15,51,60,188
15,51,100,36
15,38,90,188
15,51,115,36
15,42,100,0
15,51,90,188
15,51,100,36
15,45,70,304
15,51,115,0
15,42,100,0
15,45,60,188
15,51,80,0
15,51,90,36
15,35,90,0
15,51,115,304
15,42,100,0
15,51,55,188
15,51,100,36
15,51,115,304
15,42,100,0
15,51,60,188
15,35,70,0
15,51,100,36
15,38,90,188
15,51,115,36
15,42,100,0
15,51,90,188
15,51,100,36
15,51,90,188
15,45,70,36
15,51,115,0
15,42,100,0
15,45,60,188
15,51,80,0
15,51,90,36
15,51,115,304
15,42,100,0
15,51,55,188
15,51,100,36
15,51,115,304
15,42,100,0
15,51,60,188
15,41,90,36
15,38,90,48
15,38,60,54
15,42,100,42
15,38,70,0
15,38,90,48
15,48,90,54
15,38,60,42
15,38,60,48
15,41,90,54
15,42,100,42
15,38,108,0
15,38,60,48
15,35,90,54
15,51,90,42
15,51,115,304
15,42,100,0
15,51,55,188
15,51,100,36
15,51,115,304
15,42,100,0
15,51,60,188
15,51,100,36
15,35,80,0
15,51,115,304
15,42,100,0
15,51,90,188
15,51,100,36
15,51,90,188
15,45,70,36
15,51,115,0
15,42,100,0
15,45,60,188
15,51,80,0
15,51,90,36
15,51,115,304
15,42,100,0
15,51,55,188
15,51,100,36
15,38,50,188
15,51,115,36
15,42,100,0
15,51,60,188
15,51,100,36
15,35,80,0
15,38,90,182
15,51,115,42
15,42,100,0
15,51,90,182
15,46,80,0
15,51,100,42
15,38,90,182
15,51,115,42
15,42,100,0
15,38,70,48
15,51,80,54
15,38,50,0
15,35,70,0
15,51,90,42
15,51,115,304
15,42,100,0
15,51,55,188
15,51,100,36
15,51,80,188
15,51,115,36
15,42,100,0
15,51,60,188
15,51,100,36
15,35,80,0
15,38,90,188
15,51,115,36
15,42,100,0
15,51,90,188
15,51,100,36
15,51,90,188
15,45,70,36
15,51,115,0
15,42,100,0
15,45,60,188
15,51,80,0
15,35,70,0
15,51,90,36
15,51,115,304
15,42,100,0
15,51,55,188
15,51,100,36
15,51,115,304
15,42,100,0
15,51,60,188
15,49,70,36
15,35,100,0
15,48,80,176
15,45,80,0
15,42,100,48
15,48,100,176
15,45,100,0
15,41,115,304
15,48,100,48
15,42,100,0
15,38,100,0
15,45,90,48
15,41,90,48
15,49,90,48
15,51,90,0
15,35,80,0
15,51,115,304
15,42,100,0
15,51,55,188
15,51,100,36
15,51,115,304
15,42,100,0
15,51,60,188
15,51,100,36
15,38,90,188
15,51,115,36
15,42,100,0
15,51,90,188
15,51,100,36
15,45,70,304
15,51,115,0
15,42,100,0
15,45,60,188
15,51,80,0
15,51,90,36
15,38,70,188
15,51,115,36
15,42,100,0
15,51,55,188
15,51,100,36
15,51,115,304
15,42,100,0
15,51,60,188
15,51,100,36
15,35,80,0
15,51,115,304
15,42,100,0
15,51,90,176
15,46,80,0
15,35,80,0
15,51,100,48
15,51,90,176
15,38,70,0
15,51,115,48
15,42,100,0
15,38,70,48
15,51,80,48
15,38,50,0
15,51,90,48
15,51,115,304
15,42,100,0
15,51,55,188
15,51,100,36
15,51,115,304
15,42,100,0
15,51,60,188
15,51,100,36
15,35,80,0
15,38,90,188
15,51,115,36
15,42,100,0
15,51,90,188
15,51,100,36
15,45,70,304
15,51,115,0
15,42,100,0
15,45,60,188
15,51,80,0
15,35,70,0
15,51,90,36
15,38,70,188
15,40,121,36
15,51,115,0
15,42,100,0
15,36,121,9
15,49,121,0
15,51,55,19
15,51,100,36
15,40,121,304
15,51,115,0
15,42,100,0
15,36,121,38
15,57,121,0
15,51,60,19
15,48,80,180
15,45,80,0
15,40,121,48
15,42,100,0
15,36,121,38
15,49,121,0
15,48,100,7
15,45,100,0
15,41,115,103
15,36,121,48
15,40,121,0
15,48,100,0
15,42,100,0
15,38,100,0
15,45,90,48
15,36,121,41
15,40,121,0
15,41,90,7
15,49,90,39
15,51,90,0
15,35,80,0
15,51,115,304
15,42,100,0
15,51,55,188
15,51,100,36
15,51,115,304
15,42,100,0
15,51,60,188
15,35,50,0
15,51,100,36
15,35,80,0
15,51,115,304
15,42,100,0
15,51,90,188
15,51,100,36
15,45,70,304
15,51,115,0
15,42,100,0
15,45,60,188
15,51,80,0
15,51,90,36
15,51,115,304
15,42,100,0
15,51,55,188
15,51,100,36
15,51,115,304
15,42,100,0
15,51,60,188
15,51,100,36
15,35,80,0
15,51,115,304
15,42,100,0
15,51,90,182
15,35,80,0
15,51,100,42
15,38,90,182
15,51,115,42
15,42,100,0
15,38,70,48
15,51,80,54
15,38,50,0
15,35,70,0
15,51,90,42
15,38,70,188
15,51,115,36
15,42,100,0
15,51,55,188
15,51,100,36
15,38,50,188
15,51,115,36
15,42,100,0
15,51,60,188
15,51,100,36
15,51,115,304
15,42,100,0
15,51,90,188
15,51,100,36
15,45,70,304
15,51,115,0
15,42,100,0
15,45,60,188
15,51,80,0
15,51,90,36
15,35,90,0
15,38,70,188
15,51,115,36
15,42,100,0
15,51,55,188
15,51,100,36
15,51,80,188
15,51,115,36
15,42,100,0
15,51,60,188
15,35,70,0
15,49,70,36
15,35,100,0
15,48,80,176
15,45,80,0
15,42,100,48
15,48,100,176
15,45,100,0
15,41,115,304
15,48,100,48
15,42,100,0
15,38,100,0
15,45,90,48
15,41,90,48
15,51,90,48
15,35,60,0
15,51,115,304
15,42,100,0
15,51,55,188
15,51,100,36
15,51,80,188
15,51,115,36
15,42,100,0
15,51,60,188
15,51,100,36
15,51,115,304
15,42,100,0
15,51,90,188
15,51,100,36
15,45,70,304
15,51,115,0
15,42,100,0
15,45,60,188
15,51,80,0
15,51,90,36
15,51,115,304
15,42,100,0
15,51,55,188
15,51,100,36
15,51,80,188
15,51,115,36
15,42,100,0
15,51,60,188
15,51,100,0
15,40,81,0
15,38,90,19
15,51,115,0
15,42,100,0
15,51,90,57
15,51,100,36
15,40,81,57
15,51,90,19
15,45,70,0
15,51,115,0
15,42,100,0
15,45,60,0
15,51,80,0
15,51,90,0
15,35,60,0
15,40,81,169
15,51,115,0
15,42,100,0
15,51,55,188
15,51,100,36
15,40,89,169
15,38,50,19
15,51,115,0
15,42,100,0
15,36,93,169
15,49,93,0
15,40,93,0
15,51,60,19
15,51,100,36
15,51,115,304
15,42,100,0
15,36,106,38
15,57,106,0
15,40,106,0
15,51,90,19
15,51,100,36
15,45,70,154
15,51,115,0
15,42,100,0
15,45,60,188
15,51,80,0
15,38,106,249
15,36,106,0
15,49,106,269
15,36,106,0
15,38,106,77
15,36,106,0
15,38,106,48
15,36,106,0
15,38,100,39
15,35,100,0
15,38,60,48
15,38,50,48
15,42,100,48
15,38,40,0
15,38,30,48
15,48,90,48
15,38,60,48
15,38,40,48
15,45,90,48
15,42,100,48
15,38,60,0
15,38,40,48
15,41,90,48
15,49,90,48
15,51,90,0
15,35,80,0
15,38,70,188
15,51,115,36
15,42,100,0
15,51,55,188
15,51,100,36
15,51,115,304
15,42,100,0
15,51,60,188
15,35,50,0
15,51,100,36
15,35,80,0
15,51,115,304
15,42,100,0
15,51,90,188
15,51,100,36
15,45,70,304
15,51,115,0
15,42,100,0
15,45,60,188
15,51,80,0
15,51,90,36
15,51,115,304
15,42,100,0
15,51,55,188
15,51,100,36
15,38,50,188
15,51,115,36
15,42,100,0
15,51,60,188
15,51,100,36
15,35,80,0
15,38,90,188
15,51,115,36
15,42,100,0
15,51,90,188
15,51,100,36
15,51,90,188
15,45,70,36
15,51,115,0
15,42,100,0
15,45,60,188
15,51,80,0
15,35,70,0
15,51,90,36
15,35,90,0
15,51,115,304
15,42,100,0
15,51,55,188
15,51,100,36
15,51,115,304
15,42,100,0
15,51,60,188
15,51,100,36
15,35,80,0
15,51,115,304
15,42,100,0
15,51,90,188
15,51,100,36
15,45,70,304
15,51,115,0
15,42,100,0
15,45,60,188
15,51,80,0
15,35,70,0
15,51,90,36
15,51,115,304
15,42,100,0
15,51,55,188
15,51,100,36
15,51,115,304
15,42,100,0
15,51,60,188
15,35,90,36
15,46,70,176
15,38,90,0
15,46,70,304
15,38,115,0
15,45,100,304
15,45,60,48
15,45,60,48
15,41,70,48
15,49,90,48
15,51,90,0
15,51,115,304
15,42,100,0
15,51,55,176
15,51,100,48
15,51,115,304
15,42,100,0
15,51,60,176
15,51,100,48
15,35,80,0
15,51,115,304
15,42,100,0
15,51,90,188
15,51,100,36
15,45,70,304
15,51,115,0
15,42,100,0
15,45,60,188
15,51,80,0
15,35,70,0
15,51,90,36
15,51,115,304
15,42,100,0
15,51,55,188
15,51,100,36
15,51,115,304
15,42,100,0
15,51,60,188
15,51,100,36
15,35,80,0
15,51,115,304
15,42,100,0
15,51,90,188
15,51,100,36
15,51,90,188
15,38,94,36
15,49,94,0
15,45,70,0
15,51,115,0
15,42,100,0
15,38,106,19
15,49,106,0
15,45,60,19
15,51,80,0
15,51,90,36
15,36,94,154
15,57,94,0
15,51,115,0
15,42,100,0
15,36,106,19
15,57,106,0
15,51,55,19
15,51,100,36
15,51,80,57
15,38,106,20
15,49,106,0
15,51,115,0
15,42,100,0
15,38,106,29
15,49,106,0
15,51,60,19
15,51,100,36
15,36,106,39
15,57,106,0
15,51,115,0
15,42,100,0
15,36,106,38
15,57,106,0
15,51,90,19
15,51,100,36
15,51,90,76
15,38,106,36
15,49,106,0
15,45,70,0
15,51,115,0
15,42,100,0
15,38,106,29
15,49,106,0
15,45,60,19
15,51,80,0
15,51,90,36
15,36,106,39
15,57,106,0
15,51,115,0
15,42,100,0
15,36,106,38
15,57,106,0
15,51,55,19
15,51,100,36
15,36,106,39
15,38,106,0
15,49,106,0
15,51,115,0
15,42,100,0
15,51,60,83
15,35,100,36
15,38,100,0
15,38,100,48
15,38,101,48
15,38,101,48
15,42,101,0
15,38,103,48
15,48,104,48
15,38,105,48
15,38,106,48
15,45,108,48
15,38,108,48
15,42,108,0
15,38,109,48
15,41,110,48
15,40,90,26
15,38,106,169
15,49,106,0
15,40,115,135
15,42,100,0
15,51,55,188
15,51,100,36
15,38,106,0
15,38,106,38
15,51,115,39
15,42,100,0
15,38,106,0
15,38,106,57
15,57,106,0
15,51,60,19
15,51,100,36
15,35,80,0
15,51,115,58
15,42,100,0
15,38,106,0
15,38,106,38
15,51,90,19
15,51,100,36
15,38,106,0
15,38,106,57
15,49,106,0
15,51,90,19
15,45,70,36
15,51,115,0
15,42,100,0
15,45,60,188
15,51,80,0
15,35,70,0
15,51,90,36
15,38,106,0
15,38,106,38
15,51,115,39
15,42,100,0
15,38,106,0
15,38,106,57
15,57,106,0
15,51,55,19
15,51,100,36
15,51,115,58
15,42,100,0
15,38,106,0
15,38,106,38
15,51,60,19
15,51,100,36
15,35,80,0
15,38,106,0
15,38,106,57
15,49,106,0
15,51,115,135
15,42,100,0
15,51,90,182
15,46,80,0
15,35,80,0
15,51,100,42
15,38,106,0
15,38,106,38
15,51,115,39
15,42,100,0
15,38,106,0
15,38,106,57
15,51,80,13
15,35,70,0
15,51,90,39
15,38,70,188
15,36,70,0
15,51,115,36
15,42,100,0
15,51,55,188
15,51,100,36
15,38,69,0
15,36,69,0
15,51,115,250
15,42,100,0
15,38,69,0
15,51,60,134
15,51,100,36
15,38,69,0
15,36,69,0
15,38,69,77
15,51,115,77
