track,note,velocity,time
1,80,127,48
1,80,127,16
1,78,127,8
1,76,127,5
1,80,127,11
1,78,127,63
1,76,127,17
1,76,127,16
1,80,127,19
1,78,127,38
1,76,127,17
1,76,127,17
1,85,127,2
1,80,127,96
1,78,127,30
1,76,127,8
1,80,127,6
1,78,127,55
1,76,127,13
1,76,127,15
1,80,127,20
1,78,127,48
1,76,127,96
1,76,127,43
1,80,127,16
1,78,127,96
1,76,127,94
1,80,127,11
1,78,127,7
1,76,127,96
1,78,127,69
1,76,127,0
1,76,127,22
1,78,127,9
1,80,127,3
1,78,127,7
1,76,127,96
1,81,127,24
1,80,127,0
1,80,127,18
1,78,127,96
1,81,127,13
1,80,127,1
1,80,127,20
1,78,127,7
1,80,127,2
1,80,127,8
1,80,127,26
1,78,127,1
1,83,127,48
1,80,127,4
1,78,127,2
1,76,127,0
1,80,127,6106
1,78,127,0
1,76,127,0
1,80,127,12
1,76,127,192
1,78,127,13
1,76,127,96
1,80,127,4
1,80,127,1
1,78,127,25
1,76,127,4
1,76,127,35
1,80,127,72
1,78,127,42
1,76,127,96
1,76,127,26
1,85,127,174
1,80,127,0
1,80,127,26
1,78,127,192
1,78,127,22
1,76,127,96
1,80,127,5
1,78,127,8
1,76,127,48
1,76,127,31
1,80,127,31
1,78,127,32
1,76,127,20
1,76,127,31
1,80,127,24
1,78,127,10
1,76,127,25
1,76,127,25
1,80,127,5
1,78,127,8
1,76,127,8
1,78,127,66
1,76,127,8
1,76,127,21
1,78,127,33
1,80,127,13
1,76,127,96
1,74,127,0
1,78,127,13
1,76,127,96
1,81,127,24
1,80,127,0
1,80,127,26
1,80,127,22
1,78,127,96
1,81,127,1
1,80,127,48
1,80,127,18
1,78,127,96
1,81,127,7
1,80,127,7
1,80,127,21
1,78,127,96
1,83,127,30
1,80,127,89
1,78,127,90
1,76,127,95
1,80,127,6159
1,78,127,0
1,78,127,1
1,76,127,96
1,76,127,46
1,78,127,17
1,80,127,9
1,78,127,0
1,78,127,16
1,76,127,12
1,78,127,4
1,80,127,0
1,81,127,1
1,79,127,88
1,79,127,9
1,78,127,7
1,78,127,16
1,76,127,6
1,76,127,26
1,81,127,14
1,79,127,1
1,79,127,14
1,78,127,2
1,78,127,20
1,76,127,0
1,76,127,2
1,74,127,0
1,78,127,5654
1,76,127,7
1,80,127,192
1,78,127,5
1,76,127,6
1,78,127,69
1,76,127,5
1,76,127,1
1,78,127,93
1,80,127,2
1,78,127,96
1,76,127,93
1,81,127,8
1,80,127,48
1,80,127,32
1,78,127,96
1,81,127,0
1,80,127,48
1,80,127,28
1,78,127,5
1,81,127,144
1,80,127,7
1,80,127,26
1,78,127,96
1,83,127,90
1,80,127,93
1,78,127,0
1,76,127,192
2,56,112,720
2,49,64,0
2,61,112,4
2,64,97,6
2,49,112,0
2,56,112,0
2,61,112,0
2,64,112,0
2,50,66,43
2,45,43,6
2,59,98,6
2,51,39,48
2,55,41,0
2,46,37,0
2,47,112,0
2,52,112,1
2,40,64,0
2,56,112,4
2,56,112,0
2,64,89,8
2,52,112,0
2,56,112,0
2,59,112,5
2,64,112,0
2,56,112,0
2,52,36,0
2,45,39,0
2,50,50,0
2,59,112,0
2,55,102,0
2,61,80,0
2,57,55,0
2,45,112,0
2,52,112,0
2,40,38,0
2,56,36,0
2,52,112,3
2,57,107,0
2,64,112,0
2,61,107,0
2,52,112,0
2,57,112,0
2,61,112,0
2,50,59,0
2,59,53,0
2,55,105,0
2,50,71,0
2,56,85,0
2,52,78,0
2,40,103,0
2,47,112,0
2,52,112,0
2,56,112,0
2,64,112,0
2,50,112,0
2,55,112,0
2,59,112,0
2,45,54,0
2,64,66,0
2,59,100,0
2,64,40,0
2,49,56,0
2,56,112,0
2,61,112,0
2,64,112,0
2,68,112,3
2,44,38,0
2,68,64,0
2,64,79,0
2,49,100,0
2,56,112,0
2,61,112,0
2,64,112,0
2,68,112,0
2,56,36,0
2,59,48,0
2,45,36,0
2,65,36,24
2,59,88,0
2,55,87,0
2,50,103,0
2,45,58,0
2,52,64,0
2,56,39,0
2,40,96,0
2,47,36,0
2,47,112,0
2,59,36,0
2,61,36,12
2,52,112,0
2,59,48,0
2,76,36,8
2,56,112,0
2,59,49,0
2,64,36,2
2,64,112,0
2,59,92,0
2,59,112,0
2,56,104,0
2,52,106,0
2,50,52,0
2,59,112,0
2,45,47,0
2,55,99,0
2,61,58,0
2,57,73,0
2,45,112,0
2,52,112,0
2,57,112,0
2,61,112,0
2,64,112,0
2,64,112,0
2,61,112,0
2,64,112,0
2,61,112,0
2,51,94,0
2,57,100,0
2,50,84,0
2,55,55,0
2,59,40,0
2,59,101,0
2,55,92,0
2,50,98,0
2,56,53,0
2,47,112,0
2,40,112,0
2,52,112,0
2,56,112,0
2,64,100,0
2,64,111,0
2,59,112,0
2,52,112,0
2,56,112,0
2,59,111,0
2,56,78,0
2,50,65,0
2,45,65,0
2,55,54,0
2,64,67,0
2,59,99,0
2,55,72,0
2,61,45,0
2,52,112,0
2,57,112,0
2,65,42,0
2,61,112,0
2,61,112,0
2,66,112,0
2,41,83,0
2,42,50,0
2,66,112,0
2,61,112,0
2,66,112,0
2,61,112,0
2,57,112,0
2,40,59,38
2,45,112,0
2,59,98,0
2,64,36,12
2,50,39,0
2,64,76,0
2,59,112,0
2,55,112,0
2,50,88,0
2,56,60,0
2,40,112,0
2,52,39,0
2,47,112,0
2,52,112,0
2,56,112,0
2,64,112,0
2,59,74,0
2,59,112,0
2,64,97,0
2,45,42,0
2,59,83,0
2,55,74,0
2,50,61,0
2,45,83,0
2,52,112,0
2,57,112,0
2,61,112,0
2,66,96,6
2,41,61,0
2,66,112,0
2,66,112,0
2,61,112,0
2,66,112,0
2,61,112,0
2,52,112,0
2,40,50,31
2,45,112,0
2,57,79,0
2,59,48,0
2,64,72,5
2,59,112,0
2,55,112,8
2,50,92,0
2,56,65,0
2,40,112,0
2,52,49,0
2,47,112,0
2,60,36,0
2,59,36,0
2,64,40,0
2,59,36,0
2,52,112,0
2,58,36,0
2,59,36,0
2,56,112,0
2,59,112,0
2,64,112,0
2,56,112,0
2,59,112,0
2,45,49,0
2,50,56,0
2,55,40,0
2,59,107,0
2,56,37,0
2,62,53,0
2,57,43,0
2,50,112,0
2,66,48,0
2,62,112,0
2,57,105,0
2,57,112,0
2,66,112,0
2,62,112,0
2,57,112,0
2,62,112,0
2,50,112,0
2,62,112,0
2,57,106,0
2,66,112,10
2,62,112,0
2,57,94,0
2,55,62,0
2,59,63,0
2,59,39,0
2,55,93,0
2,54,49,0
2,59,36,0
2,47,112,0
2,54,87,0
2,60,38,0
2,59,52,0
2,59,36,0
2,68,36,5
2,59,112,0
2,54,104,0
2,54,112,0
2,63,112,44
2,59,75,0
2,59,112,0
2,47,111,0
2,63,112,6
2,59,112,1
2,47,112,0
2,59,112,0
2,59,112,0
2,54,112,0
2,63,112,6
2,59,112,0
2,54,112,0
2,40,101,2
2,50,68,0
2,45,112,0
2,52,57,0
2,47,112,0
2,52,112,0
2,60,36,1
2,59,36,34
2,56,96,24
2,64,36,53
2,59,36,1
2,56,112,0
2,64,112,3
2,59,112,92
2,59,109,0
2,45,46,0
2,50,94,0
2,61,89,0
2,45,112,0
2,52,112,0
2,57,112,0
2,64,105,0
2,57,112,0
2,61,112,0
2,64,112,0
2,51,92,0
2,57,112,0
2,61,112,0
2,55,60,0
2,59,56,0
2,64,112,0
2,59,112,0
2,55,107,0
2,59,55,0
2,63,51,0
2,54,112,0
2,59,112,3
2,63,112,0
2,66,112,4
2,41,45,0
2,66,112,0
2,63,112,0
2,59,112,0
2,53,96,0
2,58,112,0
2,55,38,0
2,59,36,0
2,50,43,0
2,45,48,7
2,45,45,0
2,64,86,5
2,59,105,0
2,55,112,0
2,50,110,0
2,45,99,0
2,40,82,8
2,56,49,0
2,52,112,0
2,47,112,0
2,56,112,0
2,56,112,0
2,59,43,0
2,64,112,0
2,59,112,0
2,56,60,0
2,52,112,0
2,64,112,0
2,59,82,0
2,59,112,0
2,56,112,8
2,52,112,0
2,47,112,0
2,52,112,0
2,64,112,0
2,59,112,0
2,59,112,0
2,56,83,0
2,56,112,0
2,50,61,0
2,45,63,0
2,55,36,0
2,51,56,0
2,52,112,0
2,57,112,0
2,61,112,0
2,64,104,0
2,61,104,0
2,57,112,0
2,61,112,0
2,64,112,0
2,57,112,0
2,50,49,0
2,64,97,0
2,55,73,0
2,59,58,0
2,45,112,0
2,54,112,0
2,59,112,0
2,63,112,0
2,66,112,0
2,66,69,0
2,54,112,0
2,63,112,0
2,59,112,0
2,66,112,0
2,53,81,0
2,40,66,17
2,45,108,1
2,50,112,0
2,55,112,0
2,59,112,0
2,64,62,0
2,64,69,0
2,59,88,0
2,52,82,0
2,47,51,0
2,47,112,0
2,52,112,0
2,56,39,0
2,56,57,0
2,56,112,0
2,59,98,0
2,64,112,0
2,56,112,0
2,40,112,0
2,47,87,0
2,47,112,0
2,52,112,0
2,56,112,0
2,64,112,0
2,52,112,0
2,56,112,0
2,59,112,0
2,50,55,0
2,45,39,0
2,57,56,0
2,51,47,0
2,61,72,0
2,45,93,0
2,51,112,0
2,57,112,0
2,61,112,0
2,64,100,6
2,52,69,0
2,52,112,0
2,57,112,0
2,61,101,0
2,64,112,0
2,50,72,0
2,57,104,0
2,59,75,0
2,55,72,0
2,64,88,0
2,59,75,0
2,63,47,0
2,54,112,0
2,59,112,0
2,63,108,0
2,66,112,5
2,41,36,0
2,66,112,0
2,63,112,0
2,54,112,0
2,59,112,0
2,63,112,0
2,66,112,0
2,50,36,0
2,55,48,0
2,64,97,7
2,59,112,0
2,55,78,0
2,45,75,10
2,56,112,3
2,59,112,0
2,64,112,0
2,68,112,2
2,46,44,0
2,56,36,0
2,59,112,8
2,64,112,0
2,68,112,0
2,68,108,0
2,64,112,0
2,59,112,0
2,56,112,0
2,56,112,0
2,64,112,0
2,68,112,0
2,40,67,0
2,45,112,3
2,50,84,1
2,64,82,11
2,59,102,10
2,55,112,9
2,50,112,0
2,56,76,0
2,52,112,0
2,40,112,0
2,47,112,0
2,64,42,0
2,64,41,0
2,64,55,0
2,52,112,0
2,60,36,0
2,56,80,0
2,58,36,0
2,63,47,0
2,83,38,0
2,64,112,0
2,56,112,0
2,64,112,0
2,50,46,0
2,45,58,0
2,57,49,0
2,45,112,0
2,52,112,0
2,57,112,0
2,61,112,0
2,61,112,0
2,64,77,0
2,52,112,0
2,57,112,0
2,61,112,0
2,64,112,0
2,51,67,0
2,55,74,0
2,59,112,0
2,50,64,0
2,54,112,0
2,59,112,0
2,63,112,0
2,66,112,0
2,66,112,0
2,63,112,0
2,59,104,7
2,45,96,38
2,59,112,0
2,53,112,0
2,50,40,0
2,55,42,0
2,64,77,0
2,59,112,0
2,55,86,0
2,50,84,0
2,40,59,13
2,56,44,0
2,42,112,0
2,40,94,0
2,52,112,0
2,47,105,0
2,56,111,0
2,59,92,0
2,64,91,0
2,55,40,78
2,56,77,0
2,47,98,0
2,52,103,0
2,64,112,0
2,56,104,0
2,59,112,0
2,56,46,0
2,45,38,0
2,45,56,0
2,61,71,19
2,64,57,8
2,59,58,0
2,49,109,27
2,56,112,5
2,60,58,0
2,61,112,0
2,64,112,5
2,49,112,0
2,56,112,0
2,61,112,0
2,64,112,0
2,45,112,0
2,55,112,0
2,59,102,0
2,59,112,0
2,50,90,0
2,56,78,0
2,52,76,0
2,47,82,0
2,40,112,16
2,59,45,0
2,59,45,0
2,59,45,0
2,47,112,0
2,52,80,0
2,52,112,0
2,56,112,0
2,59,112,3
2,64,112,0
2,56,112,0
2,50,71,0
2,45,69,0
2,55,112,0
2,61,83,0
2,57,77,0
2,51,65,0
2,45,112,0
2,52,108,0
2,65,47,0
2,52,112,0
2,57,62,0
2,57,112,0
2,57,112,0
2,61,110,0
2,64,112,5
2,51,112,0
2,57,112,0
2,61,112,0
2,59,98,6
2,50,83,1
2,55,111,0
2,50,101,0
2,56,79,0
2,47,110,0
2,52,79,0
2,40,112,0
2,47,89,0
2,47,112,0
2,52,107,0
2,63,47,0
2,65,45,0
2,64,45,0
2,47,112,0
2,52,112,0
2,56,112,0
2,64,112,14
2,51,112,0
2,55,112,0
2,59,101,0
2,59,99,0
2,50,86,0
2,45,66,0
2,64,74,0
2,64,57,0
2,43,58,0
2,49,64,0
2,56,112,0
2,44,51,0
2,61,112,0
2,64,112,0
2,68,112,6
2,49,108,0
2,56,112,0
2,61,112,0
2,64,112,0
2,68,112,0
2,45,112,0
2,40,110,1
2,50,112,0
2,55,112,0
2,59,94,5
2,55,93,0
2,52,108,0
2,56,63,0
2,52,112,0
2,47,112,0
2,56,112,0
2,59,112,0
2,63,45,2
2,64,112,5
2,52,112,0
2,56,112,0
2,59,98,0
2,64,112,5
2,56,112,0
2,47,112,0
2,59,77,0
2,59,112,0
2,56,112,0
2,45,65,0
2,59,112,0
2,55,112,0
2,50,87,0
2,51,58,0
2,61,86,0
2,57,81,0
2,45,112,0
2,52,112,0
2,57,112,0
2,61,112,0
2,64,77,0
2,52,108,0
2,64,112,42
2,61,112,0
2,57,112,0
2,57,112,0
2,64,112,0
2,64,112,0
2,61,112,0
2,57,112,0
2,52,96,0
2,51,112,0
2,57,112,0
2,55,69,0
2,50,101,0
2,59,47,0
2,64,84,0
2,59,112,0
2,55,112,0
2,50,98,0
2,56,90,0
2,52,66,0
2,40,112,0
2,47,112,0
2,52,112,0
2,52,112,0
2,56,94,0
2,59,51,0
2,59,49,0
2,59,49,0
2,56,112,0
2,59,112,0
2,64,112,0
2,52,112,0
2,55,112,0
2,56,63,0
2,50,96,0
2,55,55,0
2,45,79,0
2,59,112,0
2,55,112,0
2,60,56,0
2,52,45,0
2,57,112,0
2,61,112,0
2,66,112,2
2,41,66,0
2,52,112,0
2,66,112,0
2,61,112,0
2,57,112,0
2,66,112,0
2,61,112,0
2,57,112,0
2,52,112,0
2,40,49,37
2,45,112,0
2,59,112,0
2,55,56,0
2,55,112,0
2,50,112,0
2,40,64,0
2,56,76,0
2,40,112,0
2,52,77,0
2,47,112,0
2,59,47,0
2,59,45,0
2,52,112,0
2,57,51,0
2,52,112,0
2,56,112,0
2,59,112,3
2,64,112,2
2,50,81,0
2,55,53,0
2,45,70,0
2,64,89,0
2,59,112,0
2,55,112,0
2,60,65,0
2,52,112,0
2,57,112,0
2,61,112,0
2,66,57,0
2,61,112,0
2,66,112,0
2,61,112,0
2,61,112,0
2,57,112,0
2,45,103,0
2,52,112,0
2,59,55,0
2,55,45,0
2,50,47,0
2,55,112,8
2,50,109,0
2,56,69,0
2,52,73,0
2,40,112,0
2,47,112,0
2,52,112,0
2,56,81,0
2,56,112,0
2,59,112,0
2,64,112,3
2,52,100,0
2,55,64,0
2,45,54,0
2,50,63,0
2,64,112,0
2,61,53,0
2,66,73,0
2,45,102,0
2,50,112,0
2,57,112,0
2,62,112,0
2,66,112,0
2,57,112,0
2,62,112,0
2,66,112,0
2,62,110,0
2,50,112,0
2,57,112,0
2,62,112,0
2,66,112,0
2,57,112,0
2,62,112,0
2,66,112,0
2,66,112,0
2,62,112,0
2,66,112,0
2,62,112,0
2,64,49,0
2,50,112,0
2,55,112,0
2,59,111,0
2,59,112,0
2,55,112,0
2,47,112,0
2,54,112,0
2,59,67,0
2,59,48,3
2,63,112,20
2,41,55,0
2,59,100,0
2,59,112,0
2,54,112,0
2,63,112,0
2,59,112,0
2,47,112,0
2,54,112,0
2,59,112,0
2,47,112,0
2,54,112,0
2,59,112,0
2,53,45,12
2,59,112,0
2,54,112,0
2,59,112,0
2,54,112,0
2,40,91,0
2,45,112,0
2,50,62,0
2,55,112,0
2,50,112,0
2,56,83,0
2,47,112,0
2,40,112,0
2,52,71,0
2,59,46,0
2,47,112,0
2,52,112,0
2,76,45,0
2,56,112,0
2,64,112,3
2,52,112,0
2,59,112,0
2,56,112,0
2,64,100,0
2,50,69,0
