track,note,velocity,time
1,67,124,2496
1,67,0,160
1,67,124,32
1,67,0,160
1,67,124,32
1,67,0,160
1,67,124,32
1,67,0,160
1,67,124,32
1,67,0,160
1,67,124,32
1,67,0,160
1,67,124,32
1,67,0,160
1,67,124,32
1,67,0,160
1,67,124,32
1,67,0,160
1,69,124,32
1,69,0,160
1,66,124,32
1,66,0,160
1,67,124,32
1,67,0,160
1,67,124,32
1,67,0,160
1,67,124,32
1,67,0,160
1,67,124,32
1,67,0,160
1,67,124,32
1,67,0,160
1,67,124,32
1,67,0,160
1,67,124,32
1,67,0,160
1,67,124,32
1,67,0,160
1,67,124,32
1,67,0,160
1,67,124,32
1,67,0,160
1,71,124,32
1,71,0,160
1,69,124,32
1,69,0,160
1,67,124,32
1,67,0,160
1,67,124,32
1,67,0,160
1,67,124,32
1,67,0,160
1,67,124,32
1,67,0,160
1,67,124,32
1,67,0,160
1,67,124,32
1,67,0,160
1,67,124,32
1,67,0,160
1,67,124,32
1,67,0,160
1,67,124,32
1,67,0,160
1,67,124,32
1,67,0,160
1,74,124,32
1,74,0,160
1,72,124,32
1,72,0,160
1,67,124,32
1,67,0,1680
1,65,124,48
1,65,0,528
1,64,124,240
1,64,0,160
1,64,124,32
1,64,0,160
1,64,124,32
1,64,0,160
1,64,124,32
1,64,0,160
1,64,124,32
1,64,0,160
1,64,124,32
1,64,0,160
1,64,124,32
1,64,0,160
1,64,124,32
1,64,0,160
1,64,124,32
1,64,0,160
1,65,124,32
1,65,0,160
1,62,124,32
1,62,0,160
1,64,124,32
1,64,0,160
1,64,124,32
1,64,0,160
1,64,124,32
1,64,0,160
1,64,124,32
1,64,0,160
1,64,124,32
1,64,0,160
1,64,124,32
1,64,0,160
1,64,124,32
1,64,0,160
1,64,124,32
1,64,0,160
1,64,124,32
1,64,0,160
1,64,124,32
1,64,0,160
1,67,124,32
1,67,0,160
1,65,124,32
1,65,0,160
1,64,124,32
1,64,0,160
1,64,124,32
1,64,0,160
1,64,124,32
1,64,0,160
1,64,124,32
1,64,0,160
1,64,124,32
1,64,0,160
1,64,124,32
1,64,0,160
1,64,124,32
1,64,0,160
1,64,124,32
1,64,0,160
1,64,124,32
1,64,0,160
1,72,124,32
1,72,0,160
1,71,124,32
1,71,0,160
1,69,124,32
1,69,0,160
1,74,124,32
1,74,0,256
1,72,124,32
1,72,0,94
1,71,124,2
1,71,0,94
1,69,124,2
1,69,0,94
1,67,124,2
1,67,0,94
1,65,124,2
1,65,0,94
1,64,124,194
1,64,0,62
1,65,124,2
1,65,0,62
1,67,124,2
1,67,0,62
1,69,124,2
1,69,0,336
1,65,124,112
1,65,0,62
1,64,124,2
1,64,0,62
1,62,124,2
1,62,0,62
1,64,124,2
1,64,0,62
1,65,124,2
1,65,0,62
1,67,124,2
1,67,0,64
1,69,124,0
1,69,0,64
1,67,124,0
1,67,0,224
1,64,124,224
1,64,0,62
1,65,124,2
1,65,0,62
1,67,124,2
1,67,0,62
1,69,124,2
1,69,0,336
1,65,124,112
1,65,0,62
1,64,124,2
1,64,0,62
1,62,124,2
1,62,0,62
1,65,124,2
1,65,0,62
1,69,124,2
1,69,0,62
1,71,124,2
1,71,0,336
1,72,124,112
1,72,0,62
1,72,124,2
1,72,0,62
1,72,124,2
1,72,0,62
1,71,124,2
1,71,0,62
1,72,124,2
1,72,0,62
1,74,124,2
1,74,0,336
1,72,124,112
1,72,0,62
1,72,124,2
1,72,0,62
1,72,124,2
1,72,0,62
1,71,124,2
1,71,0,62
1,72,124,2
1,72,0,62
1,74,124,2
1,74,0,256
1,72,124,32
1,72,0,94
1,67,124,2
1,67,0,254
1,66,124,2
1,66,0,62
1,67,124,2
1,67,0,62
1,71,124,2
1,71,0,94
1,69,124,2
1,69,0,256
1,65,124,96
1,65,0,62
1,65,124,2
1,65,0,62
1,65,124,2
1,65,0,62
1,64,124,2
1,64,0,62
1,65,124,2
1,65,0,62
1,69,124,2
1,69,0,94
1,67,124,2
1,67,0,94
1,66,124,2
1,66,0,94
1,65,124,2
1,65,0,94
1,64,124,194
1,64,0,62
1,65,124,2
1,65,0,62
1,67,124,2
1,67,0,62
1,69,124,2
1,69,0,336
1,65,124,112
1,65,0,62
1,64,124,2
1,64,0,62
1,62,124,2
1,62,0,62
1,64,124,2
1,64,0,62
1,65,124,2
1,65,0,62
1,67,124,2
1,67,0,62
1,69,124,2
1,69,0,62
1,67,124,2
1,67,0,224
1,64,124,224
1,64,0,62
1,65,124,2
1,65,0,62
1,67,124,2
1,67,0,62
1,69,124,2
1,69,0,336
1,65,124,112
1,65,0,62
1,64,124,2
1,64,0,62
1,62,124,2
1,62,0,62
1,65,124,2
1,65,0,62
1,69,124,2
1,69,0,62
1,71,124,2
1,71,0,336
1,72,124,112
1,72,0,62
1,72,124,2
1,72,0,62
1,72,124,2
1,72,0,62
1,71,124,2
1,71,0,62
1,72,124,2
1,72,0,62
1,74,124,2
1,74,0,336
1,72,124,112
1,72,0,62
1,72,124,2
1,72,0,62
1,72,124,2
1,72,0,62
1,71,124,2
1,71,0,62
1,72,124,2
1,72,0,62
1,74,124,2
1,74,0,160
1,72,124,32
1,72,0,62
1,72,124,2
1,72,0,62
1,74,124,2
1,74,0,62
1,76,124,2
1,76,0,336
1,72,124,144
1,72,0,94
1,72,124,2
1,72,0,94
1,74,124,2
1,74,0,94
1,75,124,2
1,75,0,336
1,71,124,48
1,71,0,160
1,74,124,32
1,74,0,160
1,72,124,32
1,72,0,1696
2,71,118,0
2,74,118,0
2,74,0,336
2,71,0,0
2,69,118,48
2,72,118,0
2,72,0,160
2,69,0,0
2,67,118,32
2,71,118,0
2,71,0,336
2,67,0,0
2,65,118,48
2,69,118,0
2,69,0,160
2,65,0,0
2,64,118,32
2,67,118,0
2,67,0,336
2,64,0,0
2,62,118,48
2,65,118,0
2,65,0,160
2,62,0,0
2,60,118,32
2,64,118,0
2,64,0,336
2,60,0,0
2,59,118,48
2,62,118,0
2,62,0,160
2,59,0,0
2,64,118,224
2,64,0,160
2,62,118,32
2,62,0,160
2,60,118,32
2,64,118,0
2,64,0,528
2,60,0,0
2,57,118,48
2,60,118,0
2,60,0,528
2,57,0,0
2,59,118,48
2,62,118,0
2,62,0,528
2,59,0,0
2,60,118,48
2,64,118,0
2,64,0,528
2,60,0,0
2,60,118,48
2,64,118,0
2,64,0,528
2,60,0,0
2,57,118,48
2,60,118,0
2,60,0,528
2,57,0,0
2,59,118,48
2,62,118,0
2,62,0,528
2,59,0,0
2,60,118,48
2,64,118,0
2,64,0,528
2,60,0,0
2,60,118,48
2,64,118,0
2,64,0,528
2,60,0,0
2,57,118,48
2,60,118,0
2,60,0,528
2,57,0,0
2,59,118,48
2,65,118,0
2,65,0,528
2,59,0,0
2,60,118,240
2,64,118,0
2,64,0,160
2,60,0,0
2,60,118,32
2,64,118,0
2,64,0,160
2,60,0,0
2,60,118,224
2,64,118,0
2,64,0,160
2,60,0,0
2,60,118,32
2,64,118,0
2,64,0,160
2,60,0,0
2,57,118,224
2,60,118,0
2,60,0,160
2,57,0,0
2,57,118,32
2,60,118,0
2,60,0,160
2,57,0,0
2,56,118,32
2,62,118,0
2,62,0,528
2,56,0,0
2,60,118,240
2,60,0,160
2,59,118,32
2,59,0,160
2,57,118,32
2,60,118,0
2,60,0,528
2,57,0,0
2,57,118,48
2,62,118,0
2,62,0,528
2,57,0,0
2,56,118,48
2,62,118,0
2,62,0,528
2,56,0,0
2,57,118,48
2,60,118,0
2,60,0,528
2,57,0,0
2,57,118,48
2,60,118,0
2,60,0,528
2,57,0,0
2,57,118,48
2,62,118,0
2,62,0,528
2,57,0,0
2,56,118,48
2,62,118,0
2,62,0,528
2,56,0,0
2,57,118,48
2,60,118,0
2,60,0,528
2,57,0,0
2,56,118,48
2,62,118,0
2,62,0,528
2,56,0,0
2,57,118,48
2,60,118,0
2,60,0,528
2,57,0,0
2,64,118,48
2,69,118,0
2,69,0,160
2,64,0,0
2,62,118,416
2,69,118,0
2,74,118,0
2,74,0,256
2,69,0,0
2,62,0,0
2,69,118,32
2,69,0,94
2,67,118,2
2,67,0,94
2,65,118,2
2,65,0,94
2,64,118,2
2,64,0,94
2,62,118,2
2,62,0,94
2,62,118,194
2,62,0,160
2,64,118,32
2,64,0,142
2,62,118,2
2,62,0,46
2,61,118,2
2,61,0,160
2,60,118,32
2,60,0,160
2,57,118,32
2,57,0,160
2,62,118,32
2,62,0,160
2,59,118,32
2,59,0,160
2,62,118,224
2,62,0,160
2,64,118,32
2,64,0,142
2,62,118,2
2,62,0,46
2,61,118,2
2,61,0,160
2,60,118,32
2,60,0,160
2,57,118,32
2,57,0,160
2,65,118,32
2,65,0,142
2,69,118,2
2,69,0,46
2,68,118,2
2,68,0,160
2,64,118,32
2,69,118,0
2,69,0,336
2,64,0,0
2,64,118,48
2,67,118,0
2,67,0,336
2,64,0,0
2,65,118,48
2,69,118,0
2,69,0,336
2,65,0,0
2,62,118,48
2,68,118,0
2,68,0,336
2,62,0,0
2,64,118,48
2,64,0,254
2,63,118,2
2,63,0,62
2,64,118,2
2,64,0,62
2,67,118,2
2,67,0,160
2,61,118,32
2,64,118,0
2,64,0,160
2,61,0,0
2,60,118,32
2,60,0,160
2,62,118,32
2,62,0,160
2,62,118,32
2,62,0,160
2,60,118,32
2,60,0,94
2,62,118,2
2,62,0,94
2,62,118,194
2,62,0,160
2,64,118,32
2,64,0,142
2,62,118,2
2,62,0,46
2,61,118,2
2,61,0,160
2,60,118,32
2,60,0,160
2,57,118,32
2,57,0,160
2,62,118,32
2,62,0,160
2,59,118,32
2,59,0,160
2,64,118,32
2,64,0,160
2,62,118,32
2,62,0,160
2,64,118,32
2,64,0,142
2,62,118,2
2,62,0,46
2,61,118,2
2,61,0,160
2,60,118,32
2,60,0,160
2,57,118,32
2,57,0,160
2,64,118,32
2,64,0,160
2,68,118,32
2,68,0,160
2,64,118,32
2,69,118,0
2,69,0,336
2,64,0,0
2,64,118,48
2,67,118,0
2,67,0,336
2,64,0,0
2,65,118,48
2,69,118,0
2,69,0,336
2,65,0,0
2,62,118,48
2,68,118,0
2,68,0,336
2,62,0,0
2,64,118,48
2,72,118,0
2,72,0,160
2,64,0,0
2,64,118,32
2,71,118,0
2,71,0,160
2,64,0,0
2,64,118,32
2,69,118,0
2,69,0,94
2,64,0,0
2,66,118,290
2,72,118,0
2,72,0,336
2,66,0,0
2,62,118,48
2,65,118,0
2,68,118,0
2,68,0,336
2,65,0,0
2,62,0,0
2,64,118,48
2,67,118,0
2,72,118,0
2,72,0,160
2,67,0,0
2,64,0,0
2,72,118,32
2,76,118,0
2,76,0,62
2,72,0,0
2,74,118,2
2,77,118,0
2,77,0,62
2,74,0,0
2,76,118,2
2,79,118,0
2,79,0,62
2,76,0,0
2,77,118,2
2,80,118,0
2,80,0,142
2,77,0,0
2,73,118,2
2,77,118,0
2,77,0,46
2,73,0,0
2,79,118,2
2,82,118,0
2,82,0,142
2,79,0,0
2,77,118,2
2,80,118,0
2,80,0,46
2,77,0,0
2,76,118,2
2,79,118,0
2,79,0,160
2,76,0,0
2,68,118,32
2,72,118,0
2,72,0,62
2,68,0,0
2,70,118,2
2,73,118,0
2,73,0,62
2,70,0,0
2,72,118,2
2,75,118,0
2,75,0,62
2,72,0,0
2,73,118,2
2,77,118,0
2,77,0,142
2,73,0,0
2,70,118,2
2,73,118,0
2,73,0,46
2,70,0,0
2,75,118,2
2,79,118,0
2,79,0,142
2,75,0,0
2,73,118,2
2,77,118,0
2,77,0,46
2,73,0,0
2,72,118,2
2,76,118,0
2,76,0,336
2,72,0,0
2,83,118,48
2,84,118,0
2,88,118,0
2,88,0,544
2,84,0,0
2,83,0,0
3,48,121,0
3,48,0,160
3,55,121,32
3,60,121,0
3,64,121,0
3,64,0,336
3,60,0,0
3,55,0,0
3,45,121,48
3,45,0,160
3,52,121,32
3,57,121,0
3,60,121,0
3,60,0,336
3,57,0,0
3,52,0,0
3,50,121,48
3,50,0,160
3,53,121,32
3,57,121,0
3,60,121,0
3,60,0,336
3,57,0,0
3,53,0,0
3,43,121,48
3,43,0,160
3,53,121,32
3,55,121,0
3,59,121,0
3,59,0,336
3,55,0,0
3,53,0,0
3,48,121,48
3,48,0,160
3,45,121,416
3,45,0,160
3,38,121,416
3,38,0,160
3,43,121,416
3,43,0,160
3,48,121,416
3,48,0,160
3,45,121,416
3,45,0,160
3,38,121,416
3,38,0,160
3,43,121,416
3,43,0,160
3,48,121,416
3,48,0,160
3,45,121,416
3,45,0,160
3,38,121,416
3,38,0,160
3,43,121,416
3,43,0,160
3,48,121,416
3,48,0,160
3,45,121,416
3,45,0,160
3,38,121,416
3,38,0,160
3,47,121,416
3,47,0,160
3,44,121,32
3,44,0,160
3,40,121,32
3,40,0,160
3,45,121,32
3,45,0,160
3,48,121,416
3,48,0,160
3,47,121,416
3,47,0,160
3,40,121,416
3,40,0,160
3,45,121,416
3,45,0,160
3,48,121,416
3,48,0,160
3,47,121,416
3,47,0,160
3,40,121,416
3,40,0,160
3,45,121,416
3,45,0,160
3,47,121,416
3,47,0,160
3,48,121,416
3,48,0,160
3,45,121,416
3,45,0,160
3,41,121,416
3,41,0,62
3,45,121,2
3,45,0,62
3,50,121,2
3,50,0,62
3,53,121,2
3,53,0,160
3,55,121,32
3,55,0,94
3,43,121,2
3,43,0,94
3,45,121,2
3,45,0,94
3,47,121,2
3,47,0,94
3,48,121,2
3,48,0,336
3,49,121,48
3,49,0,160
3,45,121,32
3,45,0,160
3,50,121,32
3,50,0,160
3,48,121,32
3,48,0,160
3,47,121,32
3,47,0,160
3,43,121,32
3,43,0,160
3,48,121,32
3,48,0,336
3,49,121,48
3,49,0,160
3,45,121,32
3,45,0,160
3,50,121,32
3,50,0,160
3,53,121,32
3,53,0,160
3,56,121,32
3,56,0,160
3,52,121,32
3,52,0,160
3,45,121,32
3,45,0,126
3,52,121,2
3,52,0,62
3,57,121,2
3,57,0,160
3,46,121,32
3,46,0,126
3,52,121,2
3,52,0,62
3,58,121,2
3,58,0,160
3,45,121,32
3,45,0,126
3,53,121,2
3,53,0,62
3,57,121,2
3,57,0,160
3,41,121,32
3,41,0,126
3,48,121,2
3,48,0,62
3,56,121,2
3,56,0,160
3,52,121,32
3,52,0,160
3,50,121,32
3,50,0,160
3,49,121,32
3,49,0,160
3,45,121,32
3,45,0,160
3,50,121,32
3,50,0,160
3,48,121,32
3,48,0,160
3,47,121,32
3,47,0,94
3,43,121,2
3,43,0,94
3,45,121,2
3,45,0,94
3,47,121,2
3,47,0,94
3,48,121,2
3,48,0,336
3,49,121,48
3,49,0,160
3,45,121,32
3,45,0,160
3,50,121,32
3,50,0,160
3,48,121,32
3,48,0,160
3,47,121,32
3,47,0,160
3,43,121,32
3,43,0,160
3,48,121,32
3,48,0,336
3,49,121,48
3,49,0,160
3,45,121,32
3,45,0,160
3,50,121,32
3,50,0,160
3,53,121,32
3,53,0,160
3,56,121,32
3,56,0,160
3,52,121,32
3,52,0,160
3,45,121,32
3,45,0,160
3,57,121,32
3,60,121,0
3,64,121,0
3,64,0,160
3,60,0,0
3,57,0,0
3,46,121,32
3,46,0,160
3,58,121,32
3,60,121,0
3,64,121,0
3,64,0,160
3,60,0,0
3,58,0,0
3,45,121,32
3,45,0,160
3,57,121,32
3,60,121,0
3,65,121,0
3,65,0,160
3,60,0,0
3,57,0,0
3,41,121,32
3,41,0,160
3,56,121,32
3,60,121,0
3,65,121,0
3,65,0,160
3,60,0,0
3,56,0,0
3,43,121,32
3,43,0,160
3,44,121,32
3,44,0,160
3,45,121,32
3,45,0,94
3,44,121,290
3,44,0,336
3,43,121,48
3,43,0,336
3,36,121,48
3,48,121,0
3,48,0,160
3,36,0,0
3,55,121,32
3,60,121,0
3,64,121,0
3,64,0,160
3,60,0,0
3,55,0,0
3,37,121,32
3,49,121,0
3,49,0,160
3,37,0,0
