track,note,velocity,time
0,38,32,48
0,71,45,16
0,74,45,0
0,79,45,0
0,71,75,0
0,74,75,0
0,79,75,0
0,71,75,0
0,74,75,0
0,79,75,0
0,38,32,32
0,71,50,16
0,74,50,0
0,79,50,0
0,71,85,0
0,74,85,0
0,79,85,0
0,71,85,0
0,74,85,0
0,79,85,0
0,38,32,32
0,79,50,16
0,71,50,0
0,74,50,0
0,79,85,0
0,71,85,0
0,74,85,0
0,79,85,0
0,71,85,0
0,74,85,0
0,38,48,32
0,71,55,16
0,74,55,0
0,79,55,0
0,71,95,0
0,74,95,0
0,79,95,0
0,71,95,0
0,74,95,0
0,79,95,0
0,38,48,32
0,79,55,16
0,71,55,0
0,74,55,0
0,79,100,0
0,71,100,0
0,74,100,0
0,79,100,0
0,71,100,0
0,74,100,0
0,38,48,32
0,71,60,16
0,79,60,0
0,74,60,0
0,71,105,0
0,79,105,0
0,74,105,0
0,71,105,0
0,79,105,0
0,74,105,0
0,38,64,32
0,79,60,16
0,71,60,0
0,74,60,0
0,79,110,0
0,71,110,0
0,74,110,0
0,79,110,0
0,71,110,0
0,74,110,0
0,38,64,16
0,71,65,16
0,79,65,0
0,74,65,0
0,71,115,0
0,79,115,0
0,74,115,0
0,71,115,0
0,79,115,0
0,74,115,0
0,38,80,32
0,79,65,16
0,71,65,0
0,74,65,0
0,79,120,0
0,71,120,0
0,74,96,0
0,79,120,0
0,71,120,0
0,74,96,0
0,38,96,16
0,79,65,16
0,71,65,0
0,74,65,0
0,79,85,0
0,71,85,0
0,74,85,0
0,79,125,0
0,71,125,0
0,74,85,0
0,35,96,16
0,42,80,0
0,55,45,16
0,60,45,0
0,64,45,0
0,64,55,0
0,72,55,0
0,67,55,0
0,36,99,0
0,72,66,0
0,60,24,0
0,42,64,64
0,72,55,16
0,64,55,0
0,67,55,0
0,42,64,64
0,64,55,16
0,67,55,0
0,72,55,0
0,38,80,64
0,42,48,0
0,37,80,0
0,64,55,16
0,72,55,0
0,67,55,0
0,42,64,64
0,64,55,16
0,67,55,0
0,72,55,0
0,42,64,64
0,64,55,16
0,67,55,0
0,72,55,0
0,35,80,0
0,42,80,0
0,64,55,16
0,67,55,0
0,72,55,0
0,64,32,0
0,76,60,0
0,42,64,64
0,67,55,16
0,72,55,0
0,64,55,0
0,42,64,64
0,64,55,16
0,67,55,0
0,72,55,0
0,38,80,0
0,42,48,0
0,37,80,0
0,64,55,16
0,67,55,0
0,72,55,0
0,79,50,0
0,67,21,0
0,42,64,64
0,64,55,16
0,67,55,0
0,72,55,0
0,35,64,64
0,42,64,0
0,64,55,16
0,67,55,0
0,72,55,0
0,43,110,0
0,35,96,0
0,42,80,0
0,55,45,16
0,59,45,0
0,71,55,0
0,64,55,0
0,67,55,0
0,40,89,0
0,64,32,0
0,76,63,0
0,64,45,0
0,42,64,32
0,64,55,16
0,67,55,0
0,71,55,0
0,42,64,64
0,64,55,16
0,67,55,0
0,71,55,0
0,38,80,64
0,42,48,0
0,37,80,0
0,71,55,16
0,64,55,0
0,67,55,0
0,42,64,16
0,64,55,0
0,71,55,0
0,67,55,0
0,62,26,0
0,74,68,0
0,42,64,64
0,64,55,0
0,67,55,0
0,71,55,0
0,60,22,0
0,72,59,0
0,35,80,64
0,42,80,0
0,64,55,16
0,67,55,0
0,71,55,0
0,59,23,0
0,71,50,0
0,42,64,64
0,71,55,16
0,64,55,0
0,67,55,0
0,42,64,64
0,64,55,16
0,67,55,0
0,71,55,0
0,38,80,0
0,42,48,0
0,37,80,0
0,64,55,16
0,67,55,0
0,71,55,0
0,42,64,64
0,64,55,16
0,67,55,0
0,71,55,0
0,35,64,64
0,42,64,0
0,64,55,16
0,67,55,0
0,71,55,0
0,40,110,0
0,35,96,0
0,42,80,0
0,65,45,16
0,57,45,0
0,65,55,0
0,69,55,0
0,72,55,0
0,41,89,0
0,57,27,0
0,60,45,0
0,69,60,0
0,42,64,64
0,65,55,16
0,69,55,0
0,72,55,0
0,42,64,64
0,65,55,16
0,69,55,0
0,72,55,0
0,60,39,16
0,38,80,0
0,42,48,0
0,37,80,0
0,69,55,16
0,65,55,0
0,72,55,0
0,72,61,0
0,42,64,64
0,65,55,16
0,69,55,0
0,72,55,0
0,42,64,64
0,65,55,16
0,69,55,0
0,72,55,0
0,35,80,0
0,42,80,0
0,65,55,16
0,69,55,0
0,72,55,0
0,65,30,0
0,77,40,0
0,42,64,64
0,65,55,16
0,69,55,0
0,72,55,0
0,42,64,64
0,65,55,16
0,69,55,0
0,72,55,0
0,81,59,0
0,38,80,0
0,42,48,0
0,37,80,0
0,65,55,16
0,69,55,0
0,72,55,0
0,69,29,0
0,42,64,32
0,69,55,16
0,65,55,0
0,72,55,0
0,35,64,64
0,42,64,0
0,69,55,16
0,65,55,0
0,72,55,0
0,41,110,0
0,35,96,0
0,42,80,0
0,59,45,16
0,55,45,0
0,67,45,0
0,62,55,0
0,67,55,0
0,71,55,0
0,43,89,0
0,67,27,0
0,79,67,0
0,62,45,0
0,42,64,64
0,67,55,16
0,71,55,0
0,62,55,0
0,42,64,96
0,67,55,16
0,71,55,0
0,62,55,0
0,38,96,80
0,42,80,0
0,37,80,0
0,67,55,16
0,71,55,0
0,62,55,0
0,42,64,96
0,67,55,16
0,71,55,0
0,62,55,0
0,42,64,64
0,67,55,16
0,71,55,0
0,62,55,0
0,35,80,96
0,42,64,0
0,67,55,16
0,71,55,0
0,62,55,0
0,38,32,64
0,42,48,0
0,62,55,16
0,67,55,0
0,71,55,0
0,74,84,0
0,79,78,0
0,71,76,0
0,79,85,0
0,71,86,0
0,67,127,0
0,79,94,0
0,71,94,0
0,74,100,0
0,38,32,16
0,42,48,0
0,62,55,16
0,67,55,0
0,71,55,0
0,71,66,0
0,74,74,0
0,79,68,0
0,67,102,0
0,71,75,0
0,79,75,0
0,71,85,0
0,74,98,0
0,79,90,0
0,38,32,32
0,42,64,0
0,67,55,16
0,71,55,0
0,62,55,0
0,71,76,0
0,74,89,0
0,79,80,0
0,67,112,0
0,71,85,0
0,79,95,0
0,71,94,0
0,74,107,0
0,79,101,0
0,38,48,32
0,42,64,0
0,67,55,16
0,71,55,0
0,62,55,0
0,71,84,0
0,79,87,0
0,74,92,0
0,67,127,0
0,79,80,0
0,71,89,0
0,71,91,0
0,74,108,0
0,79,101,0
0,38,48,0
0,42,80,0
0,62,55,0
0,67,55,0
0,71,55,0
0,71,92,0
0,74,99,0
0,79,89,0
0,79,89,0
0,67,127,0
0,71,96,0
0,71,104,0
0,74,108,0
0,79,103,0
0,38,48,16
0,42,80,0
0,62,55,16
0,67,55,0
0,71,55,0
0,71,86,0
0,74,91,0
0,79,82,0
0,79,77,0
0,67,127,0
0,71,89,0
0,71,110,0
0,74,119,0
0,79,101,0
0,38,64,32
0,42,80,0
0,62,55,16
0,67,55,0
0,71,55,0
0,71,91,0
0,79,85,0
0,74,95,0
0,67,127,0
0,79,87,0
0,71,104,0
0,71,108,0
0,79,107,0
0,74,114,0
0,38,64,32
0,42,80,0
0,62,55,16
0,67,55,0
0,71,55,0
0,71,82,0
0,74,95,0
0,79,92,0
0,67,127,0
0,79,79,0
0,71,92,0
0,71,103,0
0,74,108,0
0,79,102,0
0,35,64,32
0,38,80,0
0,42,80,0
0,62,55,0
0,67,55,0
0,71,55,0
0,71,88,0
0,79,91,0
0,74,89,0
0,43,110,0
0,67,127,0
0,71,93,0
0,79,76,0
0,71,107,0
0,74,121,0
0,79,108,0
0,38,80,0
0,42,80,0
0,62,55,16
0,67,55,0
0,71,55,0
0,71,96,0
0,74,110,0
0,79,93,0
0,67,127,0
0,79,108,0
0,71,127,0
0,71,127,0
0,74,127,0
0,79,125,0
0,35,96,16
0,42,80,0
0,67,55,0
0,76,55,0
0,72,55,0
0,36,89,0
0,76,124,0
0,79,118,0
0,72,117,0
0,84,127,0
0,42,64,64
0,72,55,16
0,67,55,0
0,76,55,0
0,42,64,64
0,67,55,16
0,72,55,0
0,76,55,0
0,38,80,64
0,42,48,0
0,37,80,0
0,67,55,16
0,72,55,0
0,76,55,0
0,42,64,64
0,67,55,16
0,72,55,0
0,76,55,0
0,42,64,64
0,67,55,16
0,72,55,0
0,76,55,0
0,43,110,0
0,35,80,48
0,42,80,0
0,67,55,16
0,72,55,0
0,76,55,0
0,36,89,0
0,42,64,64
0,67,55,16
0,72,55,0
0,76,55,0
0,42,64,64
0,67,55,16
0,72,55,0
0,76,55,0
0,38,80,64
0,42,48,0
0,37,80,0
0,67,55,16
0,72,55,0
0,76,55,0
0,42,64,64
0,67,55,16
0,72,55,0
0,76,55,0
0,35,64,64
0,42,64,0
0,67,55,16
0,72,55,0
0,76,55,0
0,43,110,0
0,35,80,48
0,38,64,0
0,42,48,0
0,49,48,0
0,67,55,16
0,72,55,0
0,76,55,0
0,36,110,0
0,35,80,1216
0,43,110,16
0,35,96,48
0,42,80,0
0,64,45,16
0,67,45,0
0,60,45,0
0,67,55,0
0,76,55,0
0,72,55,0
0,36,110,0
0,42,64,64
0,72,55,16
0,76,55,0
0,67,55,0
0,42,64,64
0,67,55,16
0,72,55,0
0,76,55,0
0,38,80,64
0,42,48,0
0,37,80,0
0,67,55,16
0,72,55,0
0,76,55,0
0,42,64,64
0,67,55,16
0,72,55,0
0,76,55,0
0,42,64,64
0,72,55,16
0,76,55,0
0,67,55,0
0,43,110,0
0,35,80,48
0,42,80,0
0,72,55,16
0,76,55,0
0,67,55,0
0,36,110,0
0,42,64,64
0,72,55,16
0,76,55,0
0,67,55,0
0,42,64,64
0,67,55,16
0,72,55,0
0,76,55,0
0,38,80,64
0,42,48,0
0,37,80,0
0,76,55,16
0,67,55,0
0,72,55,0
0,42,64,64
0,67,55,16
0,72,55,0
0,76,55,0
0,35,64,64
0,42,64,0
0,67,55,16
0,72,55,0
0,76,55,0
0,43,110,0
0,35,96,48
0,42,80,0
0,67,55,16
0,72,55,0
0,76,55,0
0,36,110,0
0,42,64,64
0,67,55,16
0,72,55,0
0,76,55,0
0,42,64,64
0,67,55,16
0,72,55,0
0,76,55,0
0,38,80,64
0,42,48,0
0,37,80,0
0,67,55,16
0,72,55,0
0,76,55,0
0,42,64,64
0,67,55,16
0,72,55,0
0,76,55,0
0,42,64,64
0,67,55,16
0,72,55,0
0,76,55,0
0,43,110,0
0,35,80,48
0,42,80,0
0,67,55,16
0,72,55,0
0,76,55,0
0,36,110,0
0,42,64,64
0,67,55,16
0,72,55,0
0,76,55,0
0,42,64,64
0,67,55,16
0,72,55,0
0,76,55,0
0,38,80,64
0,42,48,0
0,37,80,0
0,67,55,16
0,72,55,0
0,76,55,0
0,42,64,64
0,76,55,16
0,67,55,0
0,72,55,0
0,35,64,64
0,42,64,0
0,67,55,16
0,76,55,0
0,43,110,0
0,35,96,0
0,42,80,0
0,64,45,16
0,67,45,0
0,67,55,0
0,76,55,0
0,71,55,0
0,40,110,0
0,71,45,0
0,42,64,64
0,67,55,16
0,71,55,0
0,76,55,0
0,42,64,64
0,67,55,16
0,76,55,0
0,71,55,0
0,38,80,64
0,42,48,0
0,37,80,0
0,67,55,16
0,76,55,0
0,71,55,0
0,42,64,64
0,67,55,16
0,76,55,0
0,71,55,0
0,42,64,64
0,67,55,16
0,76,55,0
0,71,55,0
0,47,110,0
0,35,80,0
0,42,80,0
0,67,55,16
0,76,55,0
0,71,55,0
0,40,110,0
0,42,64,64
0,67,55,16
0,76,55,0
0,71,55,0
0,42,64,64
0,67,55,16
0,71,55,0
0,76,55,0
0,38,80,64
0,42,48,0
0,37,80,0
0,67,55,16
0,71,55,0
0,76,55,0
0,42,64,16
0,67,55,16
0,76,55,0
0,71,55,0
0,35,64,64
0,42,64,0
0,67,55,16
0,76,55,0
0,71,55,0
0,47,110,0
0,35,96,0
0,42,80,0
0,76,55,16
0,71,55,0
0,67,55,0
0,40,110,0
0,42,64,64
0,67,55,16
0,71,55,0
0,76,55,0
0,42,64,64
0,67,55,16
0,76,55,0
0,71,55,0
0,38,80,64
0,42,48,0
0,37,80,0
0,67,55,16
0,76,55,0
0,71,55,0
0,42,64,16
0,67,55,16
0,71,55,0
0,76,55,0
0,42,64,64
0,67,55,16
0,76,55,0
0,71,55,0
0,47,110,0
0,35,80,0
0,42,80,0
0,67,55,16
0,76,55,0
0,71,55,0
0,40,110,0
0,42,64,64
0,67,55,16
0,76,55,0
0,71,55,0
0,42,64,64
0,67,55,16
0,71,55,0
0,76,55,0
0,38,80,64
0,42,48,0
0,37,80,0
0,76,55,16
0,67,55,0
0,71,55,0
0,42,64,64
0,67,55,0
0,71,55,0
0,76,55,0
0,35,64,64
0,42,64,0
0,76,55,16
0,67,55,0
0,71,55,0
0,40,110,0
0,35,96,0
0,42,80,0
0,60,45,16
0,65,45,0
0,69,45,0
0,69,55,0
0,72,55,0
0,77,55,0
0,41,110,0
0,42,64,64
0,69,55,16
0,72,55,0
0,77,55,0
0,42,64,64
0,69,55,16
0,77,55,0
0,72,55,0
0,38,80,64
0,42,48,0
0,37,80,0
0,69,55,16
0,77,55,0
0,72,55,0
0,42,64,32
0,69,55,16
0,77,55,0
0,72,55,0
0,42,64,64
0,69,55,16
0,72,55,0
0,77,55,0
0,48,110,0
0,35,80,0
0,42,80,0
0,69,55,16
0,77,55,0
0,72,55,0
0,41,110,0
0,42,64,64
0,69,55,16
0,72,55,0
0,77,55,0
0,42,64,64
0,69,55,16
0,72,55,0
0,77,55,0
0,38,80,64
0,42,48,0
0,37,80,0
0,69,55,16
0,72,55,0
0,77,55,0
0,42,64,64
0,69,55,16
0,72,55,0
0,77,55,0
0,35,64,64
0,42,64,0
0,69,55,16
0,72,55,0
0,77,55,0
0,48,110,0
0,35,96,0
0,42,80,0
0,77,55,16
0,72,55,0
0,69,55,0
0,41,110,0
0,42,64,64
0,69,55,16
0,77,55,0
0,72,55,0
0,42,64,64
0,69,55,16
0,77,55,0
0,72,55,0
0,38,80,64
0,42,48,0
0,37,80,0
0,69,55,16
0,72,55,0
0,77,55,0
0,42,64,64
0,69,55,16
0,72,55,0
0,77,55,0
0,42,64,64
0,69,55,16
0,77,55,0
0,72,55,0
0,48,110,0
0,35,80,16
0,42,80,0
0,69,55,16
0,72,55,0
0,77,55,0
0,41,110,0
0,42,64,64
0,69,55,16
0,72,55,0
0,77,55,0
0,42,64,64
0,69,55,16
0,72,55,0
0,77,55,0
0,38,80,64
0,42,48,0
0,37,80,0
0,69,55,16
0,72,55,0
0,77,55,0
0,42,64,64
0,69,55,16
0,72,55,0
0,77,55,0
0,35,64,64
0,42,64,0
0,69,55,16
0,77,55,0
0,72,55,0
0,41,110,0
0,35,96,0
0,42,80,0
0,64,45,16
0,67,45,0
0,71,45,0
0,67,55,0
0,71,55,0
0,76,55,0
0,40,110,0
0,42,64,64
0,76,55,16
0,67,55,0
0,71,55,0
0,42,64,64
0,67,55,16
0,71,55,0
0,76,55,0
0,38,80,64
0,42,48,0
0,37,80,0
0,67,55,16
0,76,55,0
0,71,55,0
0,42,64,64
0,67,55,16
0,71,55,0
0,76,55,0
0,42,64,64
0,67,55,16
0,76,55,0
0,71,55,0
0,47,110,0
0,35,80,16
0,42,80,0
0,67,55,16
0,76,55,0
0,71,55,0
0,40,110,0
0,42,64,64
0,67,55,16
0,76,55,0
0,71,55,0
0,42,64,64
0,67,55,16
0,76,55,0
0,71,55,0
0,38,80,64
0,42,48,0
0,37,80,0
0,67,55,16
0,76,55,0
0,71,55,0
0,42,64,64
0,67,55,16
0,71,55,0
0,76,55,0
0,35,64,64
0,42,64,0
0,67,55,16
0,76,55,0
0,71,55,0
0,47,110,0
0,35,96,0
0,42,80,0
0,76,55,16
0,67,55,0
0,71,55,0
0,40,110,0
0,42,64,64
0,67,55,16
0,76,55,0
0,71,55,0
0,42,64,64
0,67,55,16
0,71,55,0
0,76,55,0
0,38,80,64
0,42,48,0
0,37,80,0
0,67,55,16
0,71,55,0
0,76,55,0
