track,note,velocity,time
3,64,66,24
3,67,90,12
3,76,103,16
3,43,86,4
3,55,61,0
3,70,82,4
3,74,90,60
3,72,94,36
3,64,78,60
3,70,82,8
3,43,78,0
3,55,59,4
3,43,82,16
3,69,90,4
3,62,103,4
3,58,86,0
3,67,90,8
3,65,103,192
3,64,90,12
3,64,82,20
3,76,94,0
3,41,86,4
3,69,90,0
3,53,70,0
3,74,90,52
3,72,86,24
3,41,78,44
3,70,86,8
3,64,74,0
3,53,60,4
3,41,90,16
3,53,78,0
3,62,90,8
3,69,103,8
3,67,94,16
3,65,103,0
3,64,90,28
3,62,90,24
3,52,70,4
3,74,94,0
3,67,94,4
3,40,78,0
3,72,86,56
3,70,86,28
3,40,78,64
3,69,90,12
3,52,54,8
3,61,86,8
3,67,94,0
3,45,90,0
3,65,103,132
3,64,90,28
3,61,46,36
3,69,90,4
3,62,90,168
3,65,103,0
3,38,90,12
3,50,82,0
3,62,49,4
3,64,82,16
3,65,90,92
3,60,52,4
3,50,58,16
3,62,82,164
3,53,46,28
3,74,103,0
3,62,62,96
3,43,86,0
3,55,57,0
3,74,86,16
3,79,90,20
3,77,82,40
3,55,70,192
3,43,82,0
3,67,86,0
3,76,94,28
3,50,46,44
3,76,94,64
3,74,90,28
3,36,90,40
3,76,90,8
3,48,78,96
3,52,78,32
3,64,82,8
3,67,90,188
3,55,62,4
3,58,61,168
3,70,82,12
3,48,74,8
3,64,86,132
3,52,74,12
3,76,86,36
3,48,57,112
3,70,74,0
3,41,103,16
3,53,78,4
3,72,62,52
3,77,94,192
3,76,103,32
3,57,86,28
3,76,82,8
3,69,86,0
3,60,70,8
3,53,74,4
3,74,90,20
3,74,90,48
3,69,52,12
3,72,86,32
3,74,94,176
3,46,78,4
3,53,103,144
3,62,82,64
3,41,90,168
3,65,90,8
3,46,82,8
3,74,90,0
3,70,90,0
3,72,90,20
3,45,90,4
3,69,82,0
3,67,82,4
3,70,90,4
3,43,82,8
3,69,90,16
3,65,86,0
3,67,86,20
3,40,90,0
3,70,90,12
3,70,66,88
3,52,46,60
3,79,90,0
3,77,86,28
3,70,70,0
3,46,78,4
3,77,90,16
3,70,62,8
3,76,86,0
3,58,50,24
3,76,90,12
3,74,90,40
3,64,74,16
3,69,86,12
3,45,86,4
3,73,86,16
3,57,60,4
3,61,86,184
3,45,78,132
3,64,90,20
3,57,66,0
3,69,90,0
3,49,82,0
3,61,49,4
3,67,82,4
3,61,86,88
3,73,94,0
3,45,82,0
3,64,90,0
3,57,51,4
3,61,82,0
3,57,46,40
3,69,70,20
3,57,82,0
3,50,90,0
3,65,90,0
3,62,94,160
3,53,46,16
3,74,90,104
3,65,86,0
3,62,86,48
3,57,70,4
3,67,90,12
3,52,103,0
3,55,103,4
3,59,82,144
3,67,94,160
3,62,70,24
3,59,78,4
3,55,78,8
3,69,86,16
3,53,103,0
3,65,103,4
3,62,90,152
3,62,70,12
3,52,103,0
3,64,112,8
3,65,46,64
3,50,94,16
3,65,94,4
3,67,103,4
3,48,86,0
3,46,82,16
3,69,90,4
3,74,90,4
3,45,55,4
3,72,94,28
3,43,86,4
3,55,74,8
3,74,82,68
3,55,55,48
3,79,90,128
3,77,90,32
3,65,46,28
3,55,46,12
3,62,46,8
3,55,82,32
3,77,94,0
3,67,86,4
3,62,86,0
3,58,74,0
3,76,90,28
3,76,90,0
3,74,90,28
3,74,86,24
3,36,90,20
3,76,94,0
3,48,52,12
3,64,82,112
3,67,90,188
3,72,90,8
3,70,90,16
3,67,82,4
3,64,82,8
3,70,90,180
3,76,90,0
3,64,86,196
3,41,103,4
3,53,86,8
3,72,86,28
3,77,90,0
3,76,90,44
3,60,74,16
3,53,82,0
3,57,78,0
3,60,94,36
3,76,90,16
3,60,78,28
3,74,94,4
3,74,86,8
3,72,90,32
3,72,90,32
3,74,94,44
3,46,86,4
3,53,90,60
3,62,90,20
3,65,82,84
3,41,86,184
3,62,86,0
3,70,86,12
3,46,86,4
3,74,94,8
3,72,94,32
3,69,78,0
3,67,86,0
3,70,90,0
3,69,78,0
3,65,66,0
3,40,94,56
3,70,86,0
3,70,70,116
3,79,90,16
3,77,86,44
3,40,66,4
3,77,94,0
3,46,59,8
3,76,90,32
3,76,90,60
3,74,94,32
3,64,74,12
3,69,82,24
3,45,86,0
3,57,74,12
3,73,94,0
3,52,74,76
3,61,82,136
3,57,74,12
3,64,94,8
3,49,86,0
3,69,90,0
3,67,70,12
3,61,82,8
3,64,86,16
3,73,86,0
3,61,82,188
3,38,90,20
3,50,70,8
3,65,86,0
3,57,62,36
3,55,78,4
3,61,46,32
3,62,103,108
3,65,94,0
3,38,86,184
3,69,103,8
3,50,46,20
3,67,103,8
3,40,90,0
3,52,82,4
3,59,90,136
3,67,90,152
3,64,103,8
3,71,94,0
3,62,94,24
3,65,103,8
3,69,94,0
3,38,90,0
3,50,90,4
3,48,90,16
3,65,103,4
3,69,94,4
3,60,94,0
3,46,103,32
3,58,103,160
3,62,103,0
3,45,90,8
3,65,121,4
3,57,52,4
3,64,103,16
3,43,94,40
3,55,94,0
3,65,121,0
3,67,103,24
3,67,103,60
3,65,90,44
3,43,82,0
3,55,61,8
3,77,103,84
3,55,82,4
3,65,103,4
3,64,78,20
3,76,86,12
3,55,66,0
3,76,90,4
3,64,70,4
3,62,57,28
3,74,90,0
3,43,66,8
3,48,70,20
3,64,82,0
3,76,94,8
3,36,90,0
3,67,90,176
3,48,82,196
3,55,86,0
3,72,94,12
3,58,46,48
3,70,90,44
3,67,62,8
3,52,103,0
3,76,90,0
3,55,86,76
3,67,90,88
3,64,90,0
3,41,94,48
3,53,78,8
3,64,94,0
3,76,94,0
3,69,90,4
3,57,46,120
3,53,46,48
3,60,94,16
3,65,103,8
3,69,78,16
3,69,94,52
3,77,94,8
3,57,47,40
3,76,82,60
3,60,74,4
3,57,70,16
3,74,103,20
3,72,86,24
3,74,90,28
3,54,82,0
3,42,94,0
3,66,86,0
3,69,90,0
3,54,74,44
3,74,62,28
3,66,90,8
3,69,94,0
3,54,90,160
3,62,94,0
3,69,78,32
3,74,94,0
3,66,90,4
3,62,86,108
3,54,59,8
3,74,86,92
3,66,82,4
3,42,60,0
3,62,74,28
3,54,46,4
3,43,86,28
3,72,86,4
3,67,94,4
3,55,74,0
3,55,70,0
3,58,86,20
3,70,78,8
3,65,66,144
3,67,86,0
3,77,94,132
3,58,74,0
3,70,90,4
3,76,86,52
3,65,52,16
3,62,60,8
3,76,94,44
3,67,74,12
3,74,94,40
3,67,78,164
3,40,94,12
3,76,94,0
3,70,90,4
3,52,78,16
3,67,86,96
3,70,90,0
3,74,94,184
3,45,94,20
3,69,103,4
3,73,94,12
3,64,90,0
3,69,90,184
3,76,90,4
3,64,86,8
3,74,112,8
3,65,90,8
3,38,90,0
3,50,74,0
3,50,78,24
3,62,78,0
3,57,47,72
3,65,103,44
3,69,90,4
3,53,58,16
3,62,94,128
3,65,94,168
3,70,82,8
3,58,70,0
3,46,78,0
3,62,94,92
3,53,46,4
3,65,90,12
3,74,86,0
3,43,90,0
3,55,82,0
3,70,86,4
3,67,90,0
3,62,86,20
3,67,74,32
3,70,78,16
3,43,90,8
3,74,86,8
3,55,52,0
3,45,82,32
3,74,86,4
3,69,86,0
3,57,74,4
3,64,86,168
3,69,82,24
3,73,82,0
3,64,53,192
3,38,90,4
3,74,90,0
3,50,82,112
3,62,94,16
3,49,103,36
3,62,94,0
3,64,94,24
3,48,94,32
3,47,103,16
3,65,90,4
3,46,86,188
3,69,94,16
3,45,103,4
3,69,94,8
3,74,103,0
3,62,82,160
3,55,66,0
3,72,103,4
3,43,86,4
3,50,46,88
3,53,58,68
3,50,47,0
3,62,94,0
3,58,61,8
3,67,86,60
3,55,94,0
3,77,94,172
3,58,78,12
3,55,86,16
3,76,94,12
3,76,90,24
3,74,94,200
3,74,94,24
3,36,90,16
3,76,94,4
3,48,82,24
3,48,46,120
3,64,90,8
3,67,90,184
3,55,74,0
3,52,46,8
3,58,74,156
3,70,86,4
3,48,70,4
3,52,90,116
3,64,86,8
3,76,90,4
3,67,82,192
3,70,86,16
3,48,52,4
3,41,90,8
3,53,58,28
3,72,90,116
3,77,94,204
3,76,103,40
3,57,78,0
3,53,74,12
3,60,103,20
3,76,86,8
3,74,103,20
3,74,90,16
3,72,94,8
3,46,86,44
3,74,94,0
3,62,86,140
3,53,90,0
3,65,82,80
3,62,90,184
3,41,86,4
3,46,86,4
3,70,90,8
3,74,94,0
3,72,94,12
3,69,90,0
3,45,66,4
3,67,82,4
3,43,74,4
3,70,86,0
3,45,62,8
3,41,90,80
3,69,86,12
3,65,90,0
3,52,78,40
3,40,94,0
3,70,90,8
3,70,86,20
3,64,58,44
3,79,94,4
3,52,90,44
3,77,94,4
3,64,46,12
3,55,82,16
3,77,103,4
3,70,86,4
3,76,82,68
3,76,94,32
3,43,82,0
3,67,59,8
3,55,58,4
3,74,90,0
3,76,94,0
3,45,90,8
3,57,70,8
3,64,82,68
3,52,46,20
3,69,94,152
3,57,46,40
3,73,103,4
3,37,86,24
3,67,90,8
3,49,70,0
3,49,70,124
3,64,94,0
3,67,82,24
3,73,90,4
3,76,94,8
3,64,62,36
3,50,78,0
3,38,86,4
3,65,78,0
3,69,74,8
3,74,90,24
3,72,103,28
3,50,46,16
3,70,112,172
3,69,90,8
3,40,94,108
3,70,112,0
3,64,103,128
3,52,74,0
3,67,94,188
3,70,86,4
3,74,90,0
3,64,90,40
3,65,103,20
3,50,90,4
3,69,94,0
3,74,103,0
3,38,94,0
3,62,82,496
3,64,94,0
3,65,78,24
3,74,112,0
3,65,78,192
3,69,78,8
3,43,82,4
3,56,55,0
3,75,94,104
3,80,86,192
3,78,94,28
3,68,55,20
3,78,66,0
3,71,62,0
3,44,82,12
3,56,57,0
3,77,90,48
3,56,62,8
3,56,46,28
3,77,86,52
3,68,78,0
3,59,70,8
3,66,70,0
3,56,57,0
3,63,86,4
3,75,94,24
3,77,94,20
3,37,86,8
3,65,74,24
3,49,46,8
3,68,78,188
3,49,46,96
3,73,94,20
3,59,46,28
3,53,94,140
3,61,74,4
3,68,86,8
3,71,78,16
3,56,78,92
3,68,86,0
3,77,94,136
3,71,103,4
3,59,61,0
3,68,90,168
3,54,90,0
3,42,103,0
3,73,90,8
3,54,54,76
3,78,94,112
3,42,90,28
3,77,94,4
3,70,74,24
3,77,103,0
3,54,86,0
3,54,46,80
3,75,94,32
3,58,74,8
3,70,90,28
3,75,82,4
3,42,78,16
3,73,94,0
3,71,86,16
3,47,82,4
3,75,94,0
3,59,82,152
3,66,82,128
3,42,90,80
3,63,82,20
3,47,90,0
3,75,103,4
3,71,94,4
3,73,94,8
3,70,94,4
3,46,82,20
3,68,86,12
3,44,74,0
3,71,90,0
3,46,58,4
3,42,74,52
3,70,90,0
3,66,86,4
3,41,103,28
3,53,66,12
3,68,90,4
3,71,90,0
3,71,82,24
3,80,94,60
3,78,90,64
3,44,90,8
3,47,78,60
3,78,78,8
3,71,86,4
3,77,94,52
3,59,61,12
3,47,50,20
3,77,90,20
3,75,94,20
3,47,74,4
3,65,82,4
3,70,94,28
3,46,86,0
3,74,90,4
3,58,74,4
3,65,94,8
3,70,94,116
3,74,86,16
3,77,103,0
3,38,78,4
3,50,70,16
3,77,86,16
3,70,86,4
3,65,70,4
3,74,82,4
3,46,46,252
3,39,94,40
3,66,94,16
3,51,46,16
3,75,103,76
3,78,94,4
3,39,82,168
3,66,90,16
3,51,59,4
3,41,94,32
3,53,90,0
3,68,103,8
3,53,59,4
3,80,86,4
3,75,90,8
3,68,86,176
3,78,90,24
3,42,86,8
3,54,74,4
3,82,94,0
3,54,86,44
3,54,55,132
3,65,103,172
3,53,54,32
3,66,103,16
3,51,103,4
3,49,94,8
3,68,78,16
3,66,90,0
3,47,90,8
3,70,94,12
3,75,103,0
3,46,61,8
3,73,103,32
3,44,90,0
3,56,58,20
3,80,103,196
3,66,46,8
3,78,62,28
3,68,78,4
3,71,82,0
3,44,86,12
3,78,103,0
3,56,58,0
3,77,90,48
3,56,46,12
3,63,46,16
3,68,78,16
3,77,90,4
3,63,66,0
3,66,46,8
3,59,74,0
3,75,90,20
3,49,66,48
3,37,90,0
3,77,103,4
3,49,74,64
3,68,82,8
3,65,90,12
3,68,78,192
3,73,61,16
3,71,90,44
3,65,94,136
3,68,86,44
3,77,86,4
3,71,82,0
3,73,70,0
3,65,90,0
3,54,94,52
3,42,112,4
3,73,90,16
3,78,90,192
3,77,103,16
3,77,94,40
3,75,90,4
3,75,90,52
3,73,94,28
3,75,90,12
3,47,86,4
3,54,90,124
3,63,86,32
3,66,86,176
3,42,86,8
3,47,90,16
3,71,90,0
3,75,103,0
3,73,94,8
3,46,78,4
3,70,86,4
3,68,86,4
3,44,66,8
3,71,70,4
3,70,90,72
3,42,70,8
3,66,82,0
3,41,103,24
3,71,82,0
3,68,57,16
3,71,61,96
3,80,90,36
3,78,90,56
3,41,66,0
3,44,82,28
3,78,86,4
3,68,61,0
3,71,70,0
3,56,53,8
3,77,94,60
3,77,94,52
3,75,94,24
3,56,46,24
3,65,82,8
3,70,82,24
3,46,82,4
3,58,55,8
3,74,94,8
3,53,78,24
3,62,90,188
3,65,103,16
3,50,78,28
3,70,90,0
3,38,74,0
3,68,86,12
3,62,82,16
3,74,86,140
3,70,78,16
3,77,70,4
3,78,70,8
3,65,90,160
3,46,52,16
3,39,90,0
3,51,66,4
3,66,94,128
3,63,61,8
3,70,82,16
3,75,90,0
3,78,86,0
3,66,90,8
3,41,94,16
3,53,90,0
3,68,90,116
3,80,86,188
3,75,90,4
3,68,86,60
3,74,70,16
3,39,74,0
3,66,94,4
3,75,94,4
3,70,94,0
3,51,78,20
3,37,94,0
3,49,70,16
3,66,94,0
3,73,90,0
3,66,94,12
3,75,90,0
3,71,82,0
3,59,82,0
3,47,90,0
3,68,90,16
3,73,90,0
3,46,82,0
3,58,78,0
3,65,78,8
3,44,86,16
3,66,103,0
3,56,78,0
3,75,112,0
3,78,82,88
3,80,94,16
3,68,61,16
3,44,46,32
3,56,46,0
3,78,74,8
3,66,55,0
3,44,46,56
3,44,78,16
3,66,86,8
3,78,86,0
3,65,74,36
3,77,90,0
3,51,52,16
3,77,90,80
3,65,74,0
3,63,90,72
3,75,103,0
3,44,46,68
3,65,74,76
3,37,86,8
3,73,90,4
3,77,82,8
3,49,46,52
3,49,62,84
3,65,94,100
3,53,78,20
3,68,86,96
3,56,46,16
3,71,86,124
3,59,70,0
3,56,82,0
3,65,86,4
3,59,82,4
3,77,94,4
3,71,78,0
3,68,59,8
3,65,82,24
3,42,90,40
3,77,90,0
3,70,94,4
3,54,74,8
3,54,74,8
3,65,78,0
3,58,74,24
3,70,90,8
3,66,94,0
3,61,90,60
3,66,74,180
3,78,94,0
3,77,94,12
3,58,58,16
3,75,90,4
3,73,82,40
3,43,90,0
3,75,94,4
3,55,86,140
3,65,94,192
3,67,103,4
3,55,82,8
3,70,94,184
3,65,82,128
3,55,74,4
3,75,90,152
3,67,86,4
3,65,70,0
3,55,46,8
3,66,94,0
3,44,86,12
3,56,82,0
3,63,50,0
3,75,103,0
3,63,61,16
3,56,61,28
3,66,103,48
3,63,86,12
3,75,94,40
3,44,90,0
3,56,62,0
3,71,82,12
3,66,90,12
3,78,90,4
3,77,94,36
3,65,78,8
3,56,55,0
3,75,82,56
3,63,66,0
3,41,94,24
3,75,94,0
3,68,90,4
3,71,82,0
3,53,78,156
3,65,90,4
3,75,90,112
3,53,62,12
3,71,66,4
3,68,46,12
3,46,90,28
3,74,90,4
3,70,86,0
3,58,78,0
3,65,90,4
3,53,58,0
3,74,86,4
3,68,90,4
3,58,46,0
3,77,94,0
3,65,78,24
3,75,94,0
3,70,94,0
3,39,86,0
3,51,46,4
3,51,74,92
3,66,82,24
3,70,90,140
3,59,74,192
3,75,103,8
3,47,82,0
3,71,82,0
