track,note,velocity,time
4,45,112,750
4,69,81,162
4,72,91,0
4,69,0,56
4,72,0,8
4,71,81,34
4,74,91,0
4,71,0,80
4,74,0,10
4,76,71,8
4,72,58,0
4,72,0,86
4,76,0,16
4,45,0,2
4,72,91,84
4,76,101,0
4,45,112,0
4,76,0,128
4,72,0,36
4,71,91,26
4,74,71,0
4,45,0,78
4,71,0,38
4,74,0,22
4,69,101,24
4,72,91,0
4,45,101,0
4,69,0,106
4,72,0,26
4,45,0,20
4,40,91,8
4,67,101,158
4,71,101,0
4,71,0,44
4,67,0,0
4,69,71,54
4,72,91,0
4,69,0,50
4,72,0,20
4,71,81,22
4,74,81,0
4,40,0,90
4,74,0,20
4,71,0,14
4,40,101,70
4,71,112,2
4,74,101,0
4,74,0,126
4,71,0,26
4,69,81,38
4,72,71,0
4,40,0,74
4,69,0,66
4,72,0,16
4,40,81,34
4,67,101,0
4,71,101,0
4,67,0,112
4,71,0,16
4,45,112,24
4,40,0,14
4,72,91,170
4,69,67,0
4,69,0,44
4,72,0,8
4,71,81,46
4,74,81,0
4,74,0,42
4,71,0,14
4,72,81,36
4,76,81,0
4,72,0,72
4,45,0,6
4,76,0,2
4,76,101,112
4,72,101,0
4,45,112,0
4,76,0,130
4,72,0,38
4,71,91,24
4,74,81,0
4,45,0,66
4,71,0,64
4,74,0,32
4,45,101,32
4,69,91,0
4,72,101,0
4,69,0,78
4,72,0,10
4,40,91,96
4,45,0,8
4,68,81,154
4,71,67,0
4,71,0,28
4,68,0,16
4,69,91,52
4,72,71,0
4,72,0,32
4,69,0,12
4,71,101,48
4,74,81,0
4,71,0,52
4,74,0,2
4,40,0,72
4,40,91,66
4,74,112,0
4,71,122,0
4,74,0,156
4,71,0,4
4,40,0,4
4,45,112,2716
4,72,91,182
4,69,81,0
4,69,0,52
4,72,0,0
4,71,81,46
4,74,91,2
4,71,0,52
4,74,0,20
4,76,81,20
4,72,62,0
4,45,0,56
4,72,0,16
4,76,0,8
4,76,101,116
4,72,91,2
4,45,112,0
4,76,0,134
4,72,0,32
4,74,81,22
4,71,91,0
4,45,0,60
4,71,0,62
4,74,0,20
4,45,91,22
4,69,67,0
4,72,101,0
4,69,0,156
4,72,0,22
4,40,81,18
4,45,0,8
4,68,101,178
4,71,91,0
4,71,0,50
4,68,0,0
4,69,81,48
4,72,71,0
4,72,0,30
4,69,0,16
4,71,81,46
4,74,62,0
4,72,67,0
4,72,0,52
4,74,0,38
4,71,0,6
4,40,0,0
4,74,101,0
4,71,101,0
4,40,101,0
4,71,0,270
4,74,0,4
4,40,0,16
4,45,112,4
4,72,101,190
4,69,91,0
4,69,0,46
4,72,0,2
4,71,71,46
4,74,62,0
4,74,0,24
4,71,0,20
4,72,71,52
4,76,91,0
4,76,0,28
4,72,0,10
4,45,0,2
4,76,101,38
4,72,81,0
4,45,101,0
4,76,0,132
4,72,0,48
4,71,101,8
4,74,81,0
4,45,0,76
4,71,0,84
4,74,0,20
4,45,91,14
4,69,62,0
4,72,91,0
4,69,0,86
4,72,0,6
4,40,91,50
4,68,101,4
4,71,91,0
4,45,0,2
4,68,0,104
4,71,0,6
4,72,91,64
4,69,91,0
4,69,0,70
4,72,0,6
4,74,101,116
4,71,101,0
4,40,0,140
4,71,0,18
4,74,0,4
4,69,81,4
4,40,81,0
4,72,91,0
4,69,0,242
4,72,0,4
4,40,0,20
4,45,112,16
4,72,81,158
4,69,62,0
4,69,0,50
4,72,0,8
4,71,62,40
4,74,62,0
4,74,0,54
4,71,0,18
4,72,71,22
4,76,81,0
4,45,0,68
4,76,0,22
4,72,0,8
4,76,101,92
4,72,91,0
4,45,101,0
4,76,0,124
4,74,91,70
4,71,91,0
4,72,0,10
4,45,0,10
4,71,0,132
4,74,0,16
4,69,101,28
4,72,101,0
4,45,101,0
4,69,0,106
4,72,0,8
4,45,0,12
4,40,81,0
4,68,101,190
4,71,91,0
4,68,0,44
4,71,0,4
4,69,71,48
4,72,67,0
4,72,0,30
4,69,0,18
4,71,81,46
4,74,81,0
4,74,0,70
4,71,0,6
4,40,0,0
4,74,101,120
4,71,112,0
4,40,81,0
4,71,0,208
4,74,0,0
4,40,0,16
4,45,112,2608
4,72,71,176
4,69,91,0
4,69,0,42
4,72,0,8
4,71,71,50
4,74,67,0
4,74,0,42
4,71,0,6
4,72,53,44
4,76,71,0
4,72,0,90
4,45,0,0
4,76,0,6
4,40,91,96
4,76,101,2
4,72,101,0
4,76,0,138
4,72,0,34
4,71,91,20
4,74,81,0
4,71,0,160
4,74,0,6
4,69,101,20
4,72,71,4
4,69,0,22
4,72,0,22
4,40,0,12
4,45,101,16
4,69,101,2
4,72,101,0
4,69,0,136
4,72,0,14
4,45,0,14
4,45,112,13662
4,72,91,182
4,69,81,0
4,69,0,52
4,72,0,0
4,71,81,46
4,74,91,2
4,71,0,52
4,74,0,20
4,76,81,20
4,72,62,0
4,45,0,56
4,72,0,16
4,76,0,8
4,76,101,116
4,72,91,2
4,45,112,0
4,76,0,134
4,72,0,32
4,74,81,22
4,71,91,0
4,45,0,60
4,71,0,62
4,74,0,20
4,45,91,22
4,69,67,0
4,72,101,0
4,69,0,156
4,72,0,22
4,40,81,18
4,45,0,8
4,68,101,178
4,71,91,0
4,71,0,50
4,68,0,0
4,69,81,48
4,72,71,0
4,72,0,30
4,69,0,16
4,71,81,46
4,74,62,0
4,72,67,0
4,72,0,52
4,74,0,38
4,71,0,6
4,40,0,0
4,74,101,0
4,71,101,0
4,40,101,0
4,71,0,270
4,74,0,4
4,40,0,16
4,45,112,4
4,72,101,190
4,69,91,0
4,69,0,46
4,72,0,2
4,71,71,46
4,74,62,0
4,74,0,24
4,71,0,20
4,72,71,52
4,76,91,0
4,76,0,28
4,72,0,10
4,45,0,2
4,76,101,38
4,72,81,0
4,45,101,0
4,76,0,132
4,72,0,48
4,71,101,8
4,74,81,0
4,45,0,76
4,71,0,84
4,74,0,20
4,45,91,14
4,69,62,0
4,72,91,0
4,69,0,86
4,72,0,6
4,40,91,50
4,68,101,4
4,71,91,0
4,45,0,2
4,68,0,104
4,71,0,6
4,72,91,64
4,69,91,0
4,69,0,70
4,72,0,6
4,74,101,116
4,71,101,0
4,40,0,140
4,71,0,18
4,74,0,4
4,69,81,4
4,40,81,0
4,72,91,0
4,69,0,242
4,72,0,4
4,40,0,20
4,45,112,16
4,72,81,158
4,69,62,0
4,69,0,50
4,72,0,8
4,71,62,40
4,74,62,0
4,74,0,54
4,71,0,18
4,72,71,22
4,76,81,0
4,45,0,68
4,76,0,22
4,72,0,8
4,76,101,92
4,72,91,0
4,45,101,0
4,76,0,124
4,74,91,70
4,71,91,0
4,72,0,10
4,45,0,10
4,71,0,132
4,74,0,16
4,69,101,28
4,72,101,0
4,45,101,0
4,69,0,106
4,72,0,8
4,45,0,12
4,40,81,0
4,68,101,190
4,71,91,0
4,68,0,44
4,71,0,4
4,69,71,48
4,72,67,0
4,72,0,30
4,69,0,18
4,71,81,46
4,74,81,0
4,74,0,70
4,71,0,6
4,40,0,0
4,74,101,120
4,71,112,0
4,40,81,0
4,71,0,208
4,74,0,0
4,40,0,16
4,45,112,2608
4,72,71,176
4,69,91,0
4,69,0,42
4,72,0,8
4,71,71,50
4,74,67,0
4,74,0,42
4,71,0,6
4,72,53,44
4,76,71,0
4,72,0,90
4,45,0,0
4,76,0,6
4,40,91,96
4,76,101,2
4,72,101,0
4,76,0,138
4,72,0,34
4,71,91,20
4,74,81,0
4,71,0,160
4,74,0,6
4,69,101,20
4,72,71,4
4,69,0,22
4,72,0,22
4,40,0,12
4,45,101,16
4,69,101,2
4,72,101,0
4,69,0,136
4,72,0,14
4,45,0,14
4,45,112,13662
4,72,91,182
4,69,81,0
4,69,0,52
4,72,0,0
4,71,81,46
4,74,91,2
4,71,0,52
4,74,0,20
4,76,81,20
4,72,62,0
4,45,0,56
4,72,0,16
4,76,0,8
4,76,101,116
4,72,91,2
4,45,112,0
4,76,0,134
4,72,0,32
4,74,81,22
4,71,91,0
4,45,0,60
4,71,0,62
4,74,0,20
4,45,91,22
4,69,67,0
4,72,101,0
4,69,0,156
4,72,0,22
4,40,81,18
4,45,0,8
4,68,101,178
4,71,91,0
4,71,0,50
4,68,0,0
4,69,81,48
4,72,71,0
4,72,0,30
4,69,0,16
4,71,81,46
4,74,62,0
4,72,67,0
4,72,0,52
4,74,0,38
4,71,0,6
4,40,0,0
4,74,101,0
4,71,101,0
4,40,101,0
4,71,0,270
4,74,0,4
4,40,0,16
4,45,112,4
4,72,101,190
4,69,91,0
4,69,0,46
4,72,0,2
4,71,71,46
4,74,62,0
4,74,0,24
4,71,0,20
4,72,71,52
4,76,91,0
4,76,0,28
4,72,0,10
4,45,0,2
4,76,101,38
4,72,81,0
4,45,101,0
4,76,0,132
4,72,0,48
4,71,101,8
4,74,81,0
4,45,0,76
4,71,0,84
4,74,0,20
4,45,91,14
4,69,62,0
4,72,91,0
4,69,0,86
4,72,0,6
4,40,91,50
4,68,101,4
4,71,91,0
4,45,0,2
4,68,0,104
4,71,0,6
4,72,91,64
4,69,91,0
4,69,0,70
4,72,0,6
4,74,101,116
4,71,101,0
4,40,0,140
4,71,0,18
4,74,0,4
4,69,81,4
4,40,81,0
4,72,91,0
4,69,0,242
4,72,0,4
4,40,0,20
4,45,112,16
4,72,81,158
4,69,62,0
4,69,0,50
4,72,0,8
4,71,62,40
4,74,62,0
4,74,0,54
4,71,0,18
4,72,71,22
4,76,81,0
4,45,0,68
4,76,0,22
4,72,0,8
4,76,101,92
4,72,91,0
4,45,101,0
4,76,0,124
4,74,91,70
4,71,91,0
4,72,0,10
4,45,0,10
4,71,0,132
4,74,0,16
4,69,101,28
4,72,101,0
4,45,101,0
4,69,0,106
4,72,0,8
4,45,0,12
4,40,81,0
4,68,101,190
4,71,91,0
4,68,0,44
4,71,0,4
4,69,71,48
4,72,67,0
4,72,0,30
4,69,0,18
4,71,81,46
4,74,81,0
4,74,0,70
4,71,0,6
4,40,0,0
4,74,101,120
4,71,112,0
4,40,81,0
4,71,0,208
4,74,0,0
4,40,0,16
4,45,112,2608
4,72,71,176
4,69,91,0
4,69,0,42
4,72,0,8
4,71,71,50
4,74,67,0
4,74,0,42
4,71,0,6
4,72,53,44
4,76,71,0
4,72,0,90
4,45,0,0
4,76,0,6
4,40,91,96
4,76,101,2
4,72,101,0
4,76,0,138
4,72,0,34
4,71,91,20
4,74,81,0
4,71,0,160
4,74,0,6
4,69,101,20
4,72,71,4
4,69,0,22
4,72,0,22
4,40,0,12
4,45,101,16
4,69,101,2
4,72,101,0
4,69,0,136
4,72,0,14
4,45,0,14
5,33,106,589
5,33,0,482
5,33,118,90
5,33,0,272
5,31,94,50
5,31,0,48
5,29,106,14
5,29,0,178
5,28,88,14
5,28,0,498
5,28,94,76
5,28,0,336
5,28,88,50
5,28,0,192
5,33,94,0
5,33,0,528
5,33,106,50
5,33,0,278
5,31,88,40
5,31,0,52
5,29,118,10
5,29,0,194
5,28,94,0
5,28,0,500
5,28,106,76
5,28,0,136
5,33,88,444
5,33,0,558
5,45,94,16
5,45,0,344
5,45,88,36
5,43,94,192
5,45,0,18
5,43,0,538
5,31,94,24
5,31,0,368
5,43,88,16
5,43,0,170
5,45,94,22
5,45,0,566
5,33,106,12
5,33,0,170
5,36,88,18
5,36,0,186
5,38,88,6
5,40,94,196
5,38,0,30
5,40,0,542
5,28,94,2
5,28,0,556
5,33,94,20
5,33,0,556
5,45,94,18
5,45,0,368
5,44,88,14
5,44,0,158
5,43,94,34
5,31,88,578
5,43,0,26
5,31,0,290
5,44,106,70
5,44,0,180
5,45,88,10
5,45,0,532
5,45,106,44
5,45,0,318
5,36,88,6
5,36,0,58
5,38,106,2
5,38,0,188
5,40,106,6
5,40,0,552
5,45,94,22
5,45,0,330
5,45,88,54
5,41,94,194
5,45,0,6
5,41,0,540
5,43,94,22
5,41,94,588
5,43,0,20
5,43,94,554
5,41,0,10
5,41,106,566
5,43,0,8
5,41,0,550
5,29,88,14
5,29,0,562
5,36,94,14
5,31,106,578
5,36,0,24
5,31,0,522
5,36,94,30
5,29,106,576
5,36,0,18
5,29,0,358
5,38,94,8
5,36,94,194
5,38,0,8
5,36,0,564
5,29,94,0
5,36,94,578
5,29,0,6
5,36,0,534
5,36,106,36
5,36,0,352
5,38,94,32
5,40,106,188
5,38,0,22
5,28,88,560
5,40,0,4
5,28,0,534
5,33,118,36
5,45,94,578
5,33,0,20
5,31,94,554
5,45,0,24
5,43,94,554
5,31,0,22
5,43,0,538
5,33,88,10
5,33,0,534
5,45,94,46
5,43,94,188
5,45,0,10
5,43,0,174
5,41,94,10
5,40,106,192
5,41,0,20
5,40,0,546
5,28,88,14
5,28,0,566
5,33,106,6
5,33,0,576
5,45,94,0
5,45,0,540
5,43,94,38
5,31,94,572
5,43,0,6
5,31,0,488
5,33,94,86
5,33,0,548
5,28,118,26
5,28,0,288
5,28,94,96
5,28,0,164
5,33,118,32
5,33,0,150
5,33,118,426
5,33,0,560
5,35,118,14
5,35,0,574
5,36,106,2
5,36,0,554
5,31,118,20
5,31,0,466
5,31,118,114
5,31,0,176
5,33,94,16
5,33,0,164
5,35,94,26
5,35,0,190
5,36,88,2
5,36,0,538
5,36,94,38
5,36,0,170
5,35,88,18
5,35,0,170
5,33,88,22
5,31,94,198
5,33,0,8
5,31,0,446
5,31,118,118
5,31,0,178
5,33,88,14
5,33,0,178
5,35,88,14
5,35,0,176
5,36,94,16
5,36,0,498
5,36,94,76
5,36,0,358
5,38,94,28
5,38,0,144
5,28,106,48
5,28,0,522
5,28,94,54
5,28,0,182
5,30,118,14
5,30,0,168
5,32,118,18
5,32,0,188
5,33,88,4
5,33,0,546
5,33,94,30
5,33,0,352
5,28,88,36
5,28,0,188
5,33,118,4
5,33,0,550
5,28,106,24
5,28,0,546
5,33,118,30
5,33,0,176
5,33,88,978
5,33,0,508
5,33,106,68
5,33,0,568
5,31,94,8
5,31,0,564
5,31,88,14
5,31,0,360
5,28,88,22
5,28,0,188
5,33,94,6
5,33,0,502
5,33,88,72
5,33,0,274
5,36,94,46
5,36,0,48
5,38,88,14
5,38,0,184
5,40,94,10
5,28,94,578
5,40,0,8
5,28,0,548
5,33,94,14
5,33,0,556
5,45,106,22
5,45,0,364
5,44,88,22
5,44,0,164
5,43,94,26
5,31,94,580
5,43,0,14
5,31,0,338
5,44,88,28
5,44,0,178
5,45,94,14
5,45,0,570
5,33,106,8
5,33,0,262
5,36,106,56
5,36,0,50
5,38,94,14
5,40,94,192
5,38,0,2
5,40,0,542
5,33,118,34
5,33,0,144
5,33,94,44
5,33,0,378
5,29,106,10
5,29,0,556
5,31,118,18
5,29,94,578
5,31,0,4
5,29,0,554
5,31,106,16
5,31,0,574
5,29,88,6
5,29,0,510
5,29,94,66
5,29,0,280
5,33,106,40
5,35,88,62
5,33,0,2
5,35,0,186
5,36,94,6
5,36,0,570
5,31,106,6
5,31,0,568
5,36,94,2
5,36,0,574
5,29,106,6
5,29,0,552
5,36,106,22
5,29,106,578
5,36,0,18
5,29,0,244
5,33,94,58
5,33,0,52
5,35,94,10
5,35,0,180
5,36,106,16
5,36,0,550
5,36,94,26
5,36,0,346
5,39,94,34
5,39,0,164
5,40,94,32
5,40,0,186
5,28,106,6
5,28,0,114
5,28,118,72
5,28,0,148
5,28,118,46
5,28,0,138
5,28,94,52
5,28,0,126
5,28,94,68
5,28,0,184
5,33,106,12
5,33,0,562
5,45,94,14
5,45,0,576
5,43,94,0
5,43,0,572
5,31,106,4
5,31,0,548
5,33,94,24
5,33,0,542
5,33,94,38
5,33,0,176
5,31,88,12
5,31,0,172
5,29,94,20
5,28,88,196
5,29,0,16
5,28,0,486
5,28,94,68
5,28,0,298
5,32,118,88
5,32,0,192
5,33,106,0
5,33,0,550
5,33,106,30
5,33,0,566
5,31,106,10
5,31,0,528
5,31,106,48
5,31,0,572
