track,note,velocity,time
1,57,66,8244
1,62,100,44
1,57,0,6
1,62,0,80
1,62,73,294
1,62,0,18
1,64,91,13
1,64,0,20
1,66,110,12
1,66,0,45
1,66,97,11
1,65,80,41
1,66,0,1
1,65,0,27
1,66,93,12
1,66,0,28
1,62,80,178
1,66,107,31
1,62,0,6
1,66,0,47
1,67,90,156
1,67,0,24
1,69,102,41
1,69,0,31
1,68,99,12
1,68,0,22
1,69,86,12
1,69,0,21
1,68,101,4
1,69,88,26
1,68,0,2
1,69,0,32
1,62,92,521
1,67,80,39
1,62,0,6
1,69,86,25
1,67,0,1
1,69,0,20
1,71,81,11
1,71,0,25
1,70,119,0
1,70,0,21
1,71,91,6
1,71,0,23
1,70,123,1
1,71,92,27
1,70,0,1
1,71,0,29
1,73,97,359
1,73,0,33
1,76,104,0
1,76,0,30
1,74,86,55
1,69,76,129
1,74,0,8
1,69,0,18
1,71,80,27
1,71,0,32
1,69,69,6
1,69,0,21
1,68,72,5
1,68,0,22
1,69,80,6
1,69,0,29
1,69,104,289
1,69,0,29
1,71,84,1
1,71,0,26
1,69,100,56
1,69,0,83
1,67,77,11
1,67,0,29
1,66,67,5
1,66,0,16
1,67,95,32
1,67,0,34
1,66,65,2
1,66,0,21
1,67,80,9
1,67,0,26
1,64,83,247
1,64,0,13
1,69,114,54
1,69,0,69
1,67,85,13
1,67,0,20
1,66,101,42
1,66,0,41
1,67,70,4
1,66,67,34
1,67,0,1
1,66,0,23
1,65,66,5
1,65,0,27
1,66,84,9
1,66,0,34
1,66,84,482
1,66,0,21
1,67,73,12
1,66,97,25
1,67,0,2
1,66,0,21
1,64,80,2
1,66,87,108
1,64,0,7
1,66,0,23
1,64,74,35
1,64,0,34
1,63,85,0
1,64,80,30
1,63,0,1
1,64,0,53
1,64,66,17
1,64,0,17
1,69,112,49
1,69,0,91
1,66,95,361
1,67,83,27
1,66,0,1
1,67,0,31
1,65,79,2
1,66,74,24
1,65,0,5
1,66,0,22
1,67,70,4
1,67,0,26
1,69,90,2
1,69,0,45
1,66,97,308
1,66,0,35
1,67,80,6
1,67,0,42
1,66,104,97
1,66,0,106
1,64,76,9
1,64,0,25
1,63,89,8
1,63,0,33
1,64,91,4
1,64,0,29
1,63,89,1
1,63,0,23
1,64,95,4
1,64,0,52
1,64,76,280
1,64,0,25
1,66,71,3
1,64,74,19
1,66,0,3
1,64,0,22
1,62,94,5
1,62,0,93
1,62,80,7
1,62,0,14
1,62,90,46
1,62,0,27
1,62,75,7
1,62,0,30
1,62,97,6
1,62,0,60
1,57,90,575
1,57,0,21
1,62,98,4
1,62,0,15
1,64,95,9
1,64,0,19
1,66,101,5
1,66,0,74
1,65,92,2
1,65,0,26
1,66,110,36
1,66,0,39
1,65,88,3
1,65,0,19
1,66,116,33
1,66,0,35
1,62,95,140
1,62,0,25
1,66,95,33
1,67,87,32
1,66,0,4
1,67,0,22
1,69,106,39
1,69,0,63
1,68,110,5
1,68,0,22
1,69,98,34
1,69,0,26
1,68,123,9
1,68,0,20
1,69,102,11
1,69,0,33
1,62,86,324
1,62,0,18
1,67,98,49
1,67,0,15
1,69,110,15
1,69,0,23
1,71,125,54
1,71,0,23
1,70,127,60
1,70,0,18
1,71,112,49
1,71,0,33
1,70,127,5
1,70,0,18
1,71,112,23
1,71,0,35
1,73,127,134
1,76,122,142
1,73,0,6
1,76,0,42
1,74,117,13
1,74,0,49
1,69,110,13
1,69,0,120
1,71,104,10
1,71,0,24
1,69,106,47
1,68,119,36
1,69,0,1
1,68,0,18
1,69,112,17
1,69,0,46
1,69,104,91
1,69,0,155
1,71,87,152
1,71,0,36
1,69,91,4
1,69,0,33
1,67,102,6
1,67,0,142
1,59,70,8
1,59,0,33
1,69,91,34
1,69,0,36
1,66,104,1
1,66,0,28
1,67,100,14
1,67,0,37
1,64,62,191
1,64,0,15
1,69,106,49
1,69,0,60
1,67,92,147
1,67,0,31
1,66,87,3
1,66,0,19
1,66,85,13
1,66,0,28
1,67,98,12
1,67,0,34
1,64,88,5
1,64,0,25
1,66,97,10
1,66,0,36
1,66,91,79
1,66,0,152
1,67,104,194
1,67,0,27
1,66,95,38
1,64,78,37
1,66,0,4
1,64,0,39
1,66,79,7
1,66,0,49
1,62,80,3
1,62,0,82
1,64,85,8
1,64,0,72
1,64,84,207
1,64,0,18
1,66,89,59
1,64,81,33
1,66,0,3
1,64,0,32
1,62,80,8
1,62,0,134
1,62,85,12
1,62,0,27
1,62,88,40
1,62,0,47
1,62,76,9
1,62,0,34
1,62,80,6
1,62,0,80
1,66,95,565
1,66,0,35
1,65,77,6
1,65,0,23
1,66,93,19
1,66,0,26
1,65,80,8
1,65,0,24
1,66,82,5
1,66,0,14
1,65,81,10
1,65,0,29
1,66,97,0
1,66,0,33
1,66,110,88
1,66,0,33
1,67,80,18
1,67,0,28
1,68,110,14
1,68,0,33
1,69,108,13
1,69,0,62
1,68,123,12
1,68,0,30
1,69,100,29
1,69,0,33
1,68,123,13
1,68,0,25
1,69,108,13
1,69,0,37
1,62,98,309
1,62,0,40
1,67,104,28
1,69,98,44
1,67,0,8
1,69,0,22
1,71,114,30
1,71,0,45
1,70,127,6
1,70,0,25
1,71,112,16
1,71,0,33
1,70,127,8
1,70,0,27
1,71,117,11
1,71,0,38
1,73,113,297
1,73,0,55
1,76,104,23
1,76,0,34
1,74,122,21
1,74,0,38
1,69,112,13
1,69,0,35
1,69,100,18
1,69,0,79
1,69,81,76
1,69,0,33
1,68,101,5
1,68,0,23
1,69,84,4
1,69,0,36
1,67,79,591
1,67,0,13
1,67,68,10
1,67,0,13
1,67,81,8
1,67,0,18
1,67,98,6
1,67,0,38
1,67,95,8
1,67,0,47
1,69,80,5
1,69,0,35
1,66,107,3
1,66,0,27
1,67,102,4
1,67,0,42
1,69,102,219
1,69,0,28
1,69,98,25
1,69,0,29
1,67,95,11
1,67,0,28
1,66,119,15
1,66,0,32
1,66,87,16
1,66,0,30
1,67,102,13
1,67,0,35
1,65,94,3
1,65,0,38
1,66,107,4
1,66,0,42
1,66,77,315
1,66,0,35
1,66,77,13
1,67,90,48
1,66,0,1
1,67,0,30
1,67,102,54
1,67,0,39
1,64,98,8
1,64,0,29
1,66,101,13
1,66,0,31
1,62,87,10
1,62,0,30
1,64,108,12
1,64,0,47
1,69,98,176
1,69,0,9
1,69,117,67
1,67,117,44
1,69,0,3
1,67,0,90
1,66,123,1
1,66,0,110
1,64,97,4
1,64,0,24
1,66,107,21
1,67,102,37
1,66,0,2
1,67,0,20
1,69,127,18
1,69,0,44
1,66,104,183
1,66,0,14
1,69,117,62
1,69,0,163
1,64,97,184
1,64,0,32
1,64,86,23
1,64,0,15
1,66,127,22
1,66,0,59
1,64,88,3
1,64,0,31
1,62,92,8
1,62,0,18
1,64,125,10
1,64,0,46
1,64,114,210
1,64,0,161
1,66,127,3
1,66,0,37
1,62,112,52
1,62,0,19
1,64,114,39
1,64,0,28
1,62,91,9
1,62,0,24
1,64,80,5
1,64,0,30
1,61,84,3
1,61,0,26
1,62,91,0
1,62,0,67
1,62,80,284
1,62,0,18
1,62,64,13
1,64,80,33
1,62,0,1
1,66,110,23
1,64,0,6
1,66,0,45
1,65,88,15
1,65,0,20
1,66,101,24
1,66,0,30
1,65,91,11
1,65,0,24
1,66,113,8
1,66,0,28
1,62,81,386
1,62,0,29
1,66,89,30
1,66,0,26
1,67,100,14
1,67,0,30
1,69,114,24
1,69,0,43
1,62,100,23
1,62,0,23
1,66,95,21
1,66,0,21
1,67,106,14
1,67,0,23
1,69,112,14
1,69,0,25
1,62,97,367
1,62,0,29
1,67,108,33
1,67,0,34
1,69,102,4
1,69,0,27
1,71,127,35
1,71,0,45
1,70,119,46
1,70,0,31
1,71,110,39
1,71,0,27
1,70,127,11
1,70,0,22
1,71,110,11
1,71,0,21
1,73,127,189
1,73,0,57
1,76,122,63
1,76,0,42
1,74,117,38
1,74,0,40
1,74,125,40
1,74,0,49
1,69,110,37
1,69,0,34
1,69,88,48
1,69,0,30
1,68,85,2
1,68,0,32
1,69,95,10
1,69,0,51
1,72,110,158
1,72,0,75
1,67,84,277
1,67,0,23
1,67,76,9
1,67,0,20
1,67,94,9
1,67,0,23
1,67,84,9
1,67,0,23
1,67,102,8
1,67,0,36
1,67,91,6
1,67,0,25
1,69,106,7
1,69,0,39
1,69,112,11
1,69,0,40
1,64,94,206
1,64,0,45
1,69,114,15
1,69,0,86
1,67,102,16
1,67,0,56
1,66,110,25
1,66,0,43
1,67,97,19
1,67,0,45
1,66,104,4
1,66,0,32
1,65,92,4
1,65,0,37
1,66,107,9
1,66,0,34
1,64,104,249
1,64,0,22
1,64,117,56
1,64,0,21
1,67,117,41
1,67,0,46
1,67,104,10
1,67,0,72
1,64,106,7
1,64,0,19
1,64,120,44
1,64,0,24
1,67,110,29
1,67,0,23
1,67,114,12
1,67,0,33
1,64,102,52
1,64,0,132
1,64,2,289
1,64,0,35
1,64,2,14
1,64,0,28
1,64,2,10
1,64,0,25
1,64,2,5
1,64,0,94
1,64,2,22
1,64,0,36
1,64,2,6
1,64,0,35
1,64,2,10
1,64,0,38
1,64,2,7
1,64,0,34
1,62,2,392
1,62,0,24
1,62,2,10
1,62,0,22
1,62,2,8
1,62,0,28
1,62,2,5
1,62,0,73
1,62,2,14
1,62,0,20
1,62,2,8
1,62,0,18
1,62,2,8
1,62,0,22
1,62,2,7
1,62,0,51
1,64,2,377
1,64,0,14
1,64,2,8
1,64,0,16
1,64,2,12
1,64,0,18
1,64,2,6
1,64,0,21
1,64,2,7
1,64,0,68
1,64,2,6
1,64,0,31
1,62,2,4
1,62,0,33
1,62,2,13
1,62,0,42
1,66,2,1
1,66,0,16
1,66,2,58
1,66,0,76
1,67,2,285
1,67,0,19
1,69,2,44
1,69,0,27
1,67,2,35
1,67,0,18
1,69,2,32
1,69,0,14
1,69,2,19
1,69,0,12
1,69,2,14
1,69,0,21
1,67,2,18
1,67,0,40
1,66,2,431
1,66,0,16
1,66,2,10
1,66,0,22
1,67,2,5
1,67,0,10
1,67,2,15
1,67,0,50
1,66,2,55
1,66,0,10
1,66,2,11
1,66,0,16
1,66,2,11
1,66,0,17
1,69,2,28
1,69,0,27
1,66,2,449
1,66,0,14
1,66,2,11
1,66,0,22
1,67,2,6
1,67,0,14
1,67,2,18
1,67,0,48
1,66,2,13
1,66,0,19
1,66,2,35
1,66,0,21
1,66,2,11
1,66,0,17
1,67,2,9
1,67,0,40
1,69,2,346
1,69,0,37
1,64,2,48
1,64,0,15
1,64,2,12
1,64,0,9
1,64,2,11
1,64,0,21
1,64,2,5
1,64,0,64
1,64,2,13
1,64,0,28
1,64,2,5
1,64,0,24
1,62,2,19
1,62,0,29
1,62,2,338
1,62,0,44
1,62,2,7
1,62,0,61
1,62,2,17
1,62,0,90
1,64,2,75
1,64,0,15
1,64,2,8
1,64,0,16
1,64,2,9
1,64,0,21
1,64,2,7
1,64,0,19
1,67,2,8
1,67,0,43
1,66,2,418
1,66,0,14
1,67,2,14
1,67,0,27
1,66,2,30
1,66,0,43
1,64,2,6
1,64,0,20
1,66,2,18
1,66,0,25
1,67,2,5
1,67,0,28
1,69,2,0
1,69,0,24
1,67,2,519
1,67,0,19
1,67,2,55
1,67,0,23
1,67,2,46
1,69,2,25
1,67,0,3
1,69,0,12
1,69,2,16
1,69,0,20
1,67,2,11
1,67,0,14
1,67,2,14
1,69,2,24
1,67,0,5
1,69,0,21
1,67,2,38
1,67,0,25
1,67,2,29
1,67,0,17
1,67,2,25
1,67,0,19
1,69,2,20
1,69,0,39
1,67,2,0
1,67,0,16
1,67,2,33
1,67,0,18
1,67,2,29
1,67,0,19
1,69,2,26
1,69,0,23
1,62,2,806
1,62,0,23
1,62,2,7
1,62,0,24
1,64,2,39
1,64,0,50
1,64,2,6
1,64,0,52
1,62,2,13
1,62,0,27
1,62,2,7
1,62,0,33
1,64,2,9
1,64,0,29
1,64,2,5
1,64,0,16
1,62,2,46
1,62,0,13
1,62,2,7
1,62,0,13
1,62,2,10
1,62,0,16
1,62,2,5
1,62,0,49
1,62,2,8
1,62,0,15
1,62,2,9
1,62,0,16
1,62,2,7
1,62,0,19
1,64,2,12
1,64,0,15
1,62,2,521
1,62,0,50
1,62,2,8
1,62,0,28
1,62,2,10
1,62,0,29
1,62,2,6
1,62,0,28
1,62,2,8
1,62,0,25
1,62,2,5
1,62,0,32
1,64,2,6
1,64,0,55
1,64,2,11
1,64,0,70
1,73,127,463
1,73,0,91
1,76,127,5
1,76,0,105
1,74,117,7
1,74,0,81
1,69,110,6
1,69,0,35
1,71,117,18
1,71,0,34
1,69,108,3
1,69,0,24
1,68,127,12
1,68,0,24
1,69,110,7
1,69,0,77
1,69,114,188
1,69,0,27
1,71,91,6
1,71,0,24
1,69,102,5
1,69,0,23
1,67,110,12
1,67,0,93
1,69,117,36
1,69,0,72
1,67,81,0
1,67,0,30
1,66,119,9
1,66,0,22
1,67,117,16
1,67,0,30
1,64,88,211
1,64,0,17
1,69,120,48
1,69,0,39
1,67,120,71
1,67,0,76
1,66,127,89
1,66,0,48
1,67,108,33
1,67,0,26
1,66,110,16
1,66,0,29
1,65,98,2
1,65,0,19
1,66,127,19
1,66,0,26
1,66,127,221
1,66,0,41
1,67,108,14
1,67,0,37
1,66,127,21
1,66,0,39
1,67,112,64
1,67,0,53
1,64,106,10
1,64,0,24
1,64,100,24
1,64,0,28
1,63,119,13
1,63,0,23
1,64,102,13
1,64,0,48
1,64,112,336
1,64,0,19
1,66,123,42
1,66,0,31
1,64,98,4
1,64,0,37
1,62,97,7
1,62,0,280
1,62,79,47
1,62,0,50
1,62,100,9
1,62,0,258
1,62,104,17
1,62,0,117
1,62,88,14
1,62,0,238
3,85,93,8749
3,85,0,81
3,92,67,77
3,92,0,15
3,93,80,7
3,93,0,38
3,90,93,10
3,90,0,36
3,85,87,12
3,85,0,35
3,81,81,16
3,81,0,25
3,78,77,34
3,78,0,24
3,76,78,32
3,76,0,24
3,75,93,21
3,75,0,20
3,74,88,11
3,74,0,24
3,73,107,9
3,73,0,84
3,78,58,4
3,86,88,20
3,78,0,5
3,86,0,25
3,81,80,100
3,81,0,30
3,80,110,148
3,80,0,24
3,81,76,3
3,81,0,32
3,88,80,1
3,86,80,28
3,88,0,1
3,86,0,24
3,85,87,0
3,86,70,19
3,85,0,6
3,90,107,30
3,86,0,4
3,90,0,39
3,98,97,12
3,98,0,22
3,97,110,20
3,97,0,17
3,98,98,20
3,98,0,23
3,98,88,30
3,98,0,100
3,95,62,10
3,95,0,34
3,93,42,11
3,93,0,39
3,95,66,17
3,95,0,35
3,88,60,9
3,88,0,42
3,90,110,10
3,90,0,43
3,88,97,54
3,88,0,83
3,86,73,6
3,86,0,47
3,83,56,6
3,83,0,34
3,82,67,8
3,82,0,7
3,83,77,3
3,83,0,33
3,81,57,8
3,81,0,41
3,78,61,6
3,78,0,37
3,76,45,5
3,76,0,39
3,78,110,58
3,78,0,51
3,81,74,0
3,81,0,32
3,83,64,13
3,83,0,33
3,78,97,13
3,78,0,12
3,79,77,86
3,78,113,11
3,79,0,2
3,77,72,23
3,78,0,4
3,77,0,12
3,76,80,2
3,75,113,24
3,76,0,6
3,75,0,16
3,76,97,5
3,77,100,20
3,76,0,1
3,78,78,21
3,77,0,3
3,82,113,13
3,78,0,5
3,82,0,21
3,83,62,0
3,83,0,24
3,78,95,10
3,78,0,21
3,71,88,43
3,71,0,23
3,70,101,19
3,70,0,22
3,71,81,15
3,71,0,40
3,70,101,21
3,70,0,28
3,69,73,1
3,68,79,24
3,69,0,2
3,68,0,20
3,67,95,2
3,71,71,93
3,67,0,19
3,74,71,6
3,71,0,12
3,78,87,9
3,74,0,9
3,78,0,23
3,76,77,37
3,76,0,27
3,78,77,6
3,78,0,29
3,79,86,56
3,79,0,30
3,76,68,48
3,76,0,18
3,82,119,42
3,82,0,35
