track,note,velocity,time
1,31,127,16620
1,38,127,1472
1,36,127,1540
1,33,127,1316
1,36,127,12
1,33,127,168
1,36,127,156
1,36,127,144
1,33,127,192
1,31,127,28
1,35,127,1136
1,36,127,160
1,38,127,200
1,33,127,1328
1,36,127,64
1,33,127,1316
1,36,127,16
1,43,127,184
1,31,127,4
1,38,127,1544
1,33,127,1532
1,33,127,64
1,33,127,64
1,33,127,140
1,35,127,192
1,31,127,364
1,31,127,16
1,35,127,952
1,36,127,168
1,38,127,168
1,36,127,24
1,33,127,1352
1,36,127,4
1,36,127,168
1,33,127,568
1,31,127,552
1,38,127,1500
1,33,127,1488
1,33,127,92
1,43,127,192
1,44,127,164
1,45,127,132
1,31,127,360
1,35,127,1148
1,36,127,144
1,38,127,192
1,36,127,1484
1,33,127,552
1,36,127,184
1,40,127,1528
1,38,127,160
1,36,127,164
1,31,127,128
1,36,127,1312
1,38,127,172
1,36,127,1488
1,33,127,1312
1,36,127,48
1,36,127,128
1,33,127,568
1,31,127,536
1,31,127,4
1,38,127,1472
1,35,127,1336
1,36,127,16
1,41,127,748
1,40,127,188
1,38,127,108
1,36,127,164
1,41,127,160
1,40,127,140
1,38,127,120
1,36,127,156
1,38,127,172
1,36,127,172
1,31,127,52
1,31,127,4
1,38,127,1456
1,36,127,1352
1,36,127,72
1,40,127,224
1,41,127,32
1,42,127,552
1,31,127,20
1,38,127,28
1,36,127,1548
1,36,127,8
1,33,127,1264
1,36,127,192
1,43,127,200
1,31,127,1332
1,38,127,28
1,36,127,1532
1,33,127,20
1,36,127,196
1,36,127,236
1,31,127,1152
1,38,127,1492
1,36,127,1524
1,36,127,100
1,36,127,104
1,31,127,580
1,38,127,28
1,36,127,1532
1,28,127,1668
1,29,127,564
1,30,127,340
1,31,127,384
1,38,127,36
1,36,127,1536
1,41,127,12
1,40,127,188
1,38,127,168
1,43,127,176
1,41,127,180
1,36,127,4
1,31,127,184
1,31,127,104
1,38,127,1488
1,33,127,1536
1,45,127,4
1,33,127,16
1,33,127,80
1,35,127,192
1,31,127,540
1,31,127,12
1,35,127,1080
1,36,127,184
1,38,127,204
1,36,127,1528
1,33,127,124
1,36,127,32
1,33,127,148
1,36,127,68
1,36,127,128
1,38,127,204
1,31,127,540
1,31,127,12
1,35,127,1096
1,36,127,16
1,38,127,20
1,33,127,4
1,45,127,1320
1,45,127,4
1,45,127,132
1,43,127,192
1,40,127,128
1,36,127,184
1,31,127,204
1,35,127,1100
1,36,127,176
1,38,127,184
1,36,127,1528
1,33,127,1296
1,41,127,4
1,40,127,188
1,41,127,160
1,40,127,164
1,41,127,112
1,40,127,180
1,36,127,32
1,31,127,200
1,31,127,72
1,38,127,76
1,36,127,1528
1,33,127,100
1,36,127,4
1,33,127,180
1,36,127,4
1,33,127,580
1,31,127,76
1,35,127,100
1,36,127,16
1,38,127,8
1,36,127,1328
1,36,127,76
1,40,127,152
1,41,127,4
1,42,127,376
1,31,127,96
1,31,127,224
1,35,127,96
1,36,127,40
1,38,127,4
1,36,127,76
1,41,127,104
1,40,127,188
1,38,127,156
1,36,127,176
1,41,127,156
1,40,127,176
1,38,127,164
1,36,127,156
1,31,127,56
1,35,127,1148
1,36,127,176
1,38,127,196
1,35,127,1312
1,36,127,192
1,36,127,88
1,36,127,72
1,31,127,1532
1,35,127,68
1,36,127,16
1,38,127,216
1,36,127,1496
1,33,127,60
1,36,127,16
1,33,127,184
1,36,127,192
1,35,127,764
1,33,127,172
1,31,127,196
1,35,127,1128
1,36,127,164
1,38,127,204
1,36,127,20
1,40,127,740
1,41,127,20
1,42,127,792
1,31,127,736
1,35,127,1124
1,36,127,140
1,38,127,32
1,36,127,80
1,43,127,1312
1,43,127,84
1,36,127,68
1,35,127,192
1,31,127,100
1,35,127,1148
1,36,127,148
1,38,127,180
1,35,127,1308
1,36,127,140
1,36,127,108
1,36,127,120
1,36,127,76
1,36,127,84
1,36,127,64
1,31,127,4
1,31,127,72
1,36,127,844
1,38,127,32
1,38,127,52
1,36,127,1092
1,36,127,64
1,36,127,1356
1,36,127,28
1,36,127,68
1,29,127,192
1,30,127,156
1,31,127,20
1,31,127,64
1,36,127,808
1,38,127,44
1,38,127,44
1,36,127,1068
1,36,127,64
1,31,127,1204
1,34,127,188
1,33,127,356
1,32,127,356
1,31,127,4
1,31,127,36
1,36,127,800
1,38,127,4
1,38,127,64
1,36,127,988
1,36,127,48
1,41,127,1124
1,41,127,92
1,40,127,180
1,41,127,144
1,40,127,180
1,41,127,152
1,31,127,76
1,31,127,84
1,31,127,80
1,31,127,80
1,31,127,60
1,36,127,332
1,38,127,36
1,38,127,80
1,38,127,92
1,38,127,96
1,38,127,88
1,36,127,420
1,36,127,72
1,36,127,96
1,36,127,96
1,36,127,100
1,29,127,704
1,30,127,4
1,30,127,64
1,31,127,144
1,31,127,60
1,36,127,820
1,38,127,4
1,38,127,60
1,36,127,1064
1,36,127,44
1,36,127,1228
1,36,127,80
1,36,127,80
1,36,127,56
1,29,127,188
1,30,127,48
1,31,127,4
1,31,127,64
1,36,127,900
1,38,127,28
1,38,127,64
1,36,127,1120
1,36,127,48
1,41,127,1280
1,40,127,188
1,36,127,164
1,41,127,164
1,40,127,176
1,36,127,24
1,31,127,188
1,31,127,84
1,31,127,80
1,36,127,864
1,38,127,4
1,38,127,64
1,36,127,1108
1,36,127,80
1,28,127,184
1,28,127,68
1,40,127,188
1,28,127,284
1,29,127,4
1,41,127,192
1,29,127,328
1,30,127,156
1,42,127,176
1,31,127,152
1,31,127,76
1,36,127,884
1,38,127,48
1,38,127,64
1,36,127,1092
1,36,127,64
1,36,127,96
1,36,127,112
1,40,127,196
1,36,127,176
1,36,127,112
1,36,127,76
1,41,127,4
1,36,127,196
1,36,127,80
1,36,127,64
1,43,127,52
1,41,127,188
1,39,127,124
1,36,127,176
1,31,127,188
1,31,127,36
1,36,127,904
1,38,127,36
1,38,127,60
1,36,127,1140
1,36,127,72
1,41,127,1332
1,40,127,188
1,36,127,156
1,43,127,4
1,41,127,4
1,39,127,188
1,31,127,192
1,31,127,80
1,36,127,880
1,38,127,200
1,38,127,84
1,36,127,1088
1,36,127,64
1,28,127,176
1,34,127,196
1,33,127,720
1,32,127,748
1,31,127,752
1,31,127,76
1,36,127,932
1,38,127,56
1,38,127,52
1,36,127,1120
1,36,127,68
1,41,127,1280
1,40,127,208
1,36,127,160
1,41,127,20
1,40,127,4
1,36,127,168
1,31,127,196
1,31,127,76
1,36,127,2516
1,36,127,128
1,36,127,100
1,36,127,64
1,36,127,172
1,36,127,52
1,36,127,64
1,31,127,200
1,31,127,80
1,31,127,28
1,35,127,376
1,36,127,16
1,38,127,12
1,38,127,76
1,35,127,564
1,36,127,76
1,36,127,148
1,36,127,20
1,36,127,168
1,36,127,64
1,41,127,20
1,40,127,180
1,36,127,160
1,31,127,36
1,31,127,108
1,35,127,388
1,34,127,84
1,36,127,32
1,38,127,204
1,38,127,72
1,35,127,576
1,36,127,32
1,36,127,16
1,36,127,88
1,40,127,32
1,40,127,52
1,40,127,80
1,41,127,192
1,41,127,52
1,41,127,16
1,42,127,4
1,43,127,80
1,43,127,64
1,31,127,16
1,31,127,52
1,35,127,380
1,36,127,24
1,38,127,196
1,38,127,36
1,35,127,52
1,36,127,24
1,36,127,60
1,36,127,32
1,36,127,96
1,36,127,64
1,36,127,128
1,36,127,96
1,41,127,192
1,40,127,184
1,36,127,152
1,43,127,4
1,41,127,176
1,40,127,16
1,31,127,84
1,31,127,80
1,35,127,1148
1,36,127,20
1,38,127,192
1,38,127,84
1,35,127,584
1,36,127,4
1,36,127,100
1,36,127,100
1,36,127,72
1,36,127,40
1,36,127,76
1,36,127,60
1,31,127,576
1,36,127,116
1,36,127,56
1,36,127,52
1,36,127,124
1,36,127,76
1,36,127,228
1,36,127,188
1,36,127,180
1,31,127,32
2,79,127,27912
2,76,127,64
2,74,127,52
2,72,127,40
2,71,127,812
2,62,127,4
2,67,127,4
2,55,127,4
2,50,127,312
2,62,127,108
2,69,127,4
2,66,127,4
2,50,127,4
2,45,127,264
2,60,127,4
2,64,127,4
2,69,127,4
2,43,127,116
2,71,127,4
2,62,127,4
2,67,127,4
2,50,127,1308
2,62,127,32
2,66,127,4
2,69,127,4
2,50,127,4
2,67,127,972
2,60,127,44
2,64,127,4
2,67,127,4
2,72,127,384
2,74,127,4
2,79,127,12
2,79,127,44
2,72,127,4
2,74,127,12
2,76,127,372
2,74,127,28
2,67,127,264
2,62,127,48
2,67,127,4
2,71,127,4
2,43,127,4
2,62,127,148
2,69,127,4
2,66,127,4
2,50,127,4
2,45,127,268
2,60,127,8
2,64,127,4
2,69,127,4
2,69,127,148
2,60,127,8
2,64,127,12
2,43,127,108
2,59,127,20
2,62,127,4
2,67,127,4
2,62,127,168
2,69,127,12
2,50,127,4
2,66,127,8
2,72,127,200
2,64,127,4
2,67,127,8
2,48,127,8
2,60,127,8
2,64,127,12
2,67,127,4
2,72,127,4
2,76,127,208
2,79,127,4
2,72,127,4
2,60,127,8
2,76,127,44
2,79,127,4
2,60,127,4
2,72,127,4
2,84,127,4
2,60,127,100
2,72,127,4
2,76,127,4
2,79,127,4
2,84,127,4
2,72,127,52
2,79,127,4
2,76,127,4
2,84,127,4
2,60,127,4
2,60,127,96
2,72,127,4
2,79,127,8
2,84,127,4
2,76,127,4
2,55,127,124
2,74,127,4
2,83,127,4
2,79,127,4
2,83,127,108
2,74,127,4
2,79,127,4
2,62,127,136
2,74,127,4
2,81,127,4
2,78,127,8
2,81,127,152
2,74,127,4
2,78,127,4
2,83,127,4
2,60,127,260
2,72,127,4
2,74,127,8
2,76,127,4
2,79,127,4
2,76,127,4
2,79,127,4
2,84,127,4
2,76,127,68
2,79,127,12
2,84,127,4
2,76,127,88
2,79,127,4
2,84,127,4
2,76,127,56
2,79,127,8
2,84,127,4
2,76,127,104
2,79,127,4
2,84,127,4
2,71,127,112
2,79,127,4
2,55,127,12
2,74,127,4
2,74,127,4
2,83,127,4
2,79,127,4
2,83,127,248
2,74,127,4
2,79,127,4
2,74,127,16
2,81,127,4
2,62,127,4
2,78,127,4
2,74,127,176
2,81,127,4
2,78,127,4
2,83,127,24
2,60,127,176
2,72,127,4
2,79,127,4
2,76,127,28
2,76,127,148
2,74,127,8
2,79,127,84
2,72,127,12
2,77,127,4
2,79,127,32
2,72,127,4
2,77,127,8
2,60,127,376
2,72,127,32
2,76,127,8
2,60,127,28
2,71,127,32
2,74,127,4
2,79,127,8
2,55,127,12
2,74,127,160
2,83,127,4
2,79,127,8
2,62,127,424
2,62,127,88
2,74,127,4
2,81,127,4
2,78,127,8
2,74,127,132
2,78,127,4
2,81,127,4
2,83,127,180
2,72,127,212
2,79,127,4
2,60,127,8
2,74,127,4
2,76,127,4
2,79,127,192
2,55,127,24
2,71,127,4
2,74,127,4
2,83,127,204
2,74,127,4
2,79,127,12
2,55,127,200
2,62,127,68
2,74,127,4
2,81,127,4
2,78,127,4
2,62,127,104
2,74,127,128
2,78,127,4
2,81,127,4
2,83,127,184
2,60,127,108
2,72,127,40
2,74,127,4
2,76,127,4
2,79,127,4
2,60,127,32
2,59,127,404
2,55,127,12
2,62,127,4
2,67,127,4
2,55,127,4
2,67,127,16
2,71,127,4
2,62,127,4
2,50,127,152
2,62,127,48
2,69,127,4
2,57,127,8
2,66,127,4
2,50,127,12
2,62,127,4
2,69,127,8
2,66,127,4
2,71,127,712
2,74,127,188
2,67,127,28
2,45,127,148
2,60,127,4
2,64,127,4
2,64,127,4
2,55,127,4
2,69,127,16
2,48,127,4
2,60,127,4
2,67,127,316
2,59,127,4
2,55,127,8
2,62,127,4
2,62,127,120
2,69,127,4
2,50,127,4
2,67,127,8
2,62,127,24
2,69,127,4
2,66,127,4
2,64,127,264
2,48,127,8
2,55,127,4
2,60,127,16
2,77,127,12
2,79,127,176
2,84,127,160
2,76,127,20
2,79,127,184
2,67,127,192
2,74,127,8
2,79,127,4
2,83,127,4
2,86,127,4
2,62,127,108
2,74,127,16
2,78,127,4
2,86,127,4
2,81,127,4
2,76,127,168
2,79,127,180
2,72,127,12
2,72,127,212
2,84,127,4
2,76,127,4
2,79,127,4
2,60,127,8
2,74,127,48
2,79,127,4
2,72,127,4
2,79,127,60
2,72,127,4
2,74,127,4
2,60,127,368
2,72,127,136
2,79,127,4
2,74,127,4
2,55,127,32
2,71,127,4
2,74,127,4
2,79,127,4
2,71,127,172
2,79,127,4
2,74,127,4
2,55,127,160
2,74,127,24
2,78,127,4
2,62,127,4
2,69,127,4
2,69,127,136
2,79,127,4
2,74,127,8
2,69,127,16
2,74,127,4
2,78,127,4
2,67,127,128
2,76,127,4
2,60,127,4
2,72,127,4
2,43,127,460
2,59,127,12
2,62,127,4
2,67,127,4
2,57,127,124
2,62,127,4
2,66,127,4
2,50,127,4
2,45,127,108
2,60,127,4
2,64,127,4
2,69,127,8
2,59,127,80
2,67,127,12
2,43,127,24
2,62,127,8
2,57,127,92
2,62,127,4
2,66,127,4
2,50,127,24
2,48,127,80
2,57,127,8
2,64,127,4
2,60,127,12
2,48,127,8
2,55,127,4
2,60,127,4
2,64,127,8
2,55,127,196
2,62,127,12
2,60,127,4
2,48,127,128
2,55,127,200
2,60,127,4
2,64,127,4
2,62,127,188
2,48,127,24
2,59,127,24
2,43,127,4
2,62,127,16
2,67,127,4
2,57,127,8
2,62,127,8
2,66,127,4
2,50,127,4
2,45,127,356
2,60,127,4
2,69,127,4
2,64,127,16
2,43,127,16
2,59,127,4
2,67,127,4
2,62,127,4
2,57,127,180
2,62,127,4
2,66,127,4
2,50,127,12
2,60,127,376
2,64,127,4
2,67,127,4
2,48,127,8
2,72,127,40
2,64,127,20
2,67,127,4
2,79,127,336
2,76,127,4
2,72,127,8
2,84,127,16
2,79,127,76
2,84,127,4
2,72,127,12
2,76,127,4
2,72,127,124
2,76,127,4
2,79,127,4
2,84,127,4
2,72,127,60
2,76,127,8
2,79,127,4
2,84,127,4
2,72,127,108
2,76,127,4
2,79,127,12
2,84,127,4
2,55,127,172
2,74,127,4
2,79,127,4
2,83,127,4
2,83,127,24
2,74,127,4
2,79,127,8
2,55,127,80
2,74,127,108
2,62,127,4
2,81,127,4
2,78,127,12
2,74,127,116
2,78,127,4
2,81,127,4
2,83,127,184
2,79,127,240
2,72,127,4
2,74,127,8
2,76,127,4
2,60,127,8
2,74,127,304
2,83,127,4
2,79,127,8
2,55,127,4
2,74,127,28
2,81,127,12
2,62,127,4
2,78,127,4
2,81,127,104
2,74,127,12
2,78,127,4
2,83,127,176
2,79,127,244
2,60,127,4
2,72,127,4
2,74,127,4
2,76,127,4
2,72,127,272
2,76,127,4
2,79,127,4
2,84,127,4
2,84,127,72
2,72,127,4
2,76,127,4
2,79,127,4
2,72,127,88
2,76,127,4
2,79,127,4
2,84,127,4
2,74,127,100
2,83,127,4
2,79,127,16
2,55,127,12
2,79,127,112
2,83,127,4
2,74,127,4
2,55,127,20
2,74,127,32
2,62,127,4
2,78,127,8
2,81,127,8
2,74,127,144
2,78,127,4
2,81,127,4
2,83,127,4
2,60,127,228
2,72,127,4
2,74,127,4
2,76,127,4
2,79,127,4
2,83,127,312
2,74,127,4
2,79,127,4
2,55,127,20
2,74,127,148
2,79,127,4
2,83,127,4
2,55,127,380
2,74,127,32
2,78,127,8
2,81,127,4
2,62,127,4
2,74,127,124
2,78,127,4
2,81,127,4
2,83,127,188
2,79,127,204
2,60,127,4
2,72,127,4
2,74,127,4
2,76,127,4
2,59,127,500
2,67,127,4
2,43,127,4
2,62,127,4
2,57,127,128
2,62,127,4
2,66,127,4
2,50,127,32
2,48,127,236
2,62,127,4
2,64,127,4
2,67,127,4
2,60,127,8
2,67,127,72
2,64,127,4
2,60,127,4
2,48,127,96
2,43,127,72
2,59,127,8
2,67,127,4
2,62,127,8
2,57,127,128
2,62,127,4
2,66,127,12
2,50,127,28
2,64,127,152
2,67,127,4
2,48,127,12
2,60,127,8
2,62,127,4
2,48,127,48
2,72,127,172
2,60,127,4
2,64,127,4
