track,note,velocity,time
2,61,102,1916
2,73,102,0
2,68,102,0
2,66,102,0
2,78,102,0
2,68,102,0
2,77,102,0
2,68,102,0
2,61,102,0
2,73,102,0
2,68,102,0
2,66,102,0
2,78,102,0
2,68,102,0
2,77,102,0
2,68,102,0
2,63,102,0
2,73,102,0
2,68,102,0
2,66,102,0
2,78,102,0
2,68,102,0
2,77,102,0
2,68,102,0
2,63,102,0
2,73,102,0
2,68,102,0
2,66,102,0
2,78,102,0
2,68,102,0
2,77,102,0
2,68,102,0
2,66,102,0
2,73,102,0
2,68,102,0
2,66,102,0
2,78,102,0
2,68,102,0
2,77,102,0
2,68,102,0
2,66,102,0
2,73,102,0
2,68,102,0
2,66,102,0
2,78,102,0
2,68,102,0
2,77,102,0
2,68,102,0
2,61,102,0
2,73,102,0
2,68,102,0
2,66,102,0
2,78,102,0
2,68,102,0
2,77,102,0
2,68,102,0
2,61,102,0
2,73,102,0
2,68,102,0
2,66,102,0
2,78,102,0
2,68,102,0
2,77,102,0
2,68,102,0
2,61,102,0
2,73,102,0
2,68,102,0
2,66,102,0
2,78,102,0
2,68,102,0
2,77,102,0
2,68,102,0
2,61,102,0
2,73,102,0
2,68,102,0
2,66,102,0
2,78,102,0
2,68,102,0
2,77,102,0
2,68,102,0
2,63,102,0
2,73,102,0
2,68,102,0
2,66,102,0
2,78,102,0
2,68,102,0
2,77,102,0
2,68,102,0
2,63,102,0
2,73,102,0
2,68,102,0
2,66,102,0
2,78,102,0
2,68,102,0
2,77,102,0
2,68,102,0
2,66,102,0
2,73,102,0
2,68,102,0
2,66,102,0
2,78,102,0
2,68,102,0
2,77,102,0
2,68,102,0
2,66,102,0
2,73,102,0
2,68,102,0
2,66,102,0
2,78,102,0
2,68,102,0
2,77,102,0
2,68,102,0
2,61,102,0
2,73,102,0
2,68,102,0
2,66,102,0
2,78,102,0
2,68,102,0
2,77,102,0
2,68,102,0
2,61,102,0
2,73,102,0
2,68,102,0
2,66,102,0
2,78,102,0
2,68,102,0
2,77,102,0
2,68,102,0
2,61,102,0
2,73,102,0
2,68,102,0
2,66,102,0
2,78,102,0
2,68,102,0
2,77,102,0
2,68,102,0
2,61,102,0
2,73,102,0
2,68,102,0
2,66,102,0
2,78,102,0
2,68,102,0
2,77,102,0
2,68,102,0
2,63,102,0
2,73,102,0
2,68,102,0
2,66,102,0
2,78,102,0
2,68,102,0
2,77,102,0
2,68,102,0
2,63,102,0
2,73,102,0
2,68,102,0
2,66,102,0
2,78,102,0
2,68,102,0
2,77,102,0
2,68,102,0
2,66,102,0
2,73,102,0
2,68,102,0
2,66,102,0
2,78,102,0
2,68,102,0
2,77,102,0
2,68,102,0
2,66,102,0
2,73,102,0
2,68,102,0
2,66,102,0
2,78,102,0
2,68,102,0
2,77,102,0
2,68,102,0
2,75,102,0
2,68,102,0
2,73,102,0
2,68,102,0
2,75,102,0
2,68,102,0
2,77,102,0
2,68,102,0
2,78,102,0
2,68,102,0
2,77,102,0
2,68,102,0
2,75,102,0
2,68,102,0
2,73,102,0
2,60,102,30720
2,72,102,0
2,68,102,0
2,63,102,0
2,73,102,0
2,68,102,0
2,72,102,0
2,68,102,0
2,59,102,0
2,71,102,0
2,66,102,0
2,64,102,0
2,75,102,0
2,66,102,0
2,73,102,0
2,66,102,0
2,61,102,0
2,73,102,0
2,68,102,0
2,66,102,0
2,78,102,0
2,68,102,0
2,77,102,0
2,68,102,0
2,61,102,0
2,73,102,0
2,68,102,0
2,66,102,0
2,78,102,0
2,68,102,0
2,77,102,0
2,68,102,0
2,60,102,0
2,72,102,0
2,68,102,0
2,63,102,0
2,73,102,0
2,68,102,0
2,72,102,0
2,68,102,0
2,59,102,0
2,71,102,0
2,66,102,0
2,64,102,0
2,75,102,0
2,66,102,0
2,73,102,0
2,66,102,0
2,68,102,0
2,73,102,0
2,68,102,1444
2,65,102,0
2,68,102,0
2,66,102,0
2,65,102,0
2,68,102,0
2,63,95,0
2,68,102,0
2,63,95,0
2,68,102,0
2,68,102,0
2,66,102,0
2,68,108,60
2,73,102,0
2,73,102,0
2,63,102,0
2,60,102,0
2,72,102,0
2,68,102,0
2,63,102,0
2,73,102,0
2,68,102,0
2,72,102,0
2,68,102,0
2,59,102,0
2,71,102,0
2,66,102,0
2,64,102,0
2,75,102,0
2,66,102,0
2,73,102,0
2,66,102,0
2,61,102,0
2,73,102,0
2,68,102,0
2,66,102,0
2,78,102,0
2,68,102,0
2,77,102,0
2,68,102,0
2,61,102,0
2,73,102,0
2,68,102,0
2,66,102,0
2,78,102,0
2,68,102,0
2,77,102,0
2,68,102,0
2,60,102,0
2,72,102,0
2,68,102,0
2,63,102,0
2,73,102,0
2,68,102,0
2,72,102,0
2,68,102,0
2,59,102,0
2,71,102,0
2,66,102,0
2,64,102,0
2,75,102,0
2,66,102,0
2,73,102,0
2,66,102,0
2,68,102,0
2,73,102,0
2,68,102,1444
2,65,102,0
2,68,102,0
2,66,102,0
2,65,102,0
2,68,102,0
2,63,95,0
2,68,102,0
2,63,95,0
2,68,102,0
2,68,102,0
2,65,102,0
2,61,102,0
2,65,102,0
2,73,102,0
2,65,102,0
2,68,102,20
2,68,102,0
2,65,102,0
2,68,102,0
2,65,102,0
2,73,102,0
2,73,102,0
2,75,102,0
2,75,102,0
2,75,102,0
2,73,102,0
2,70,102,0
2,66,102,0
2,61,102,0
2,68,102,0
2,68,102,0
2,73,102,0
2,73,102,60
2,75,102,0
2,49,76,0
2,56,76,4
2,61,76,4
2,65,102,0
2,61,102,0
2,56,102,0
2,54,102,0
2,53,102,0
2,49,102,0
2,47,76,0
2,49,76,0
2,56,76,4
2,61,76,4
2,65,102,0
2,61,102,0
2,56,102,0
2,54,102,0
2,53,102,0
2,49,102,0
2,47,70,0
2,80,108,0
2,78,108,0
2,77,108,0
2,75,108,0
2,78,108,0
2,77,108,0
2,75,102,0
2,74,108,0
2,75,108,120
2,77,108,40
2,73,108,0
2,70,108,0
2,68,108,0
2,66,108,0
2,65,108,0
2,63,108,0
2,63,108,0
2,65,108,0
2,66,108,0
2,68,108,0
2,71,108,0
2,70,108,0
2,71,108,0
2,71,108,0
2,70,108,0
2,70,108,0
2,70,108,0
2,68,108,0
2,78,95,0
2,65,108,0
2,63,108,0
2,63,108,0
2,65,108,0
2,63,108,0
2,63,108,0
2,62,102,0
2,62,95,0
2,65,95,0
2,65,108,0
2,63,108,0
2,58,102,0
2,56,108,0
2,58,108,0
2,63,108,0
2,65,108,0
2,63,108,0
2,62,102,4
2,62,108,0
2,65,108,0
2,63,95,0
2,63,108,0
2,73,102,0
2,73,102,0
2,73,102,0
2,68,102,0
2,73,102,0
2,73,102,0
2,73,102,0
2,68,102,0
2,75,102,0
2,75,102,0
2,75,102,0
2,75,102,0
2,75,102,0
2,75,102,0
2,75,102,0
2,73,102,0
2,73,102,0
2,75,102,0
2,73,102,0
2,70,102,0
2,68,102,0
2,68,102,0
2,66,102,0
2,68,95,0
2,66,102,0
2,68,102,0
2,66,102,0
2,68,95,0
2,66,102,0
2,68,95,0
2,68,102,0
2,66,102,0
2,68,102,0
2,78,89,0
2,73,89,0
2,68,102,0
2,78,89,0
2,73,89,0
2,68,102,0
2,78,89,0
2,68,102,0
2,63,102,0
2,68,102,0
2,63,102,0
2,44,89,0
2,49,89,0
2,66,102,60
2,63,102,0
2,63,102,0
2,49,89,0
2,44,89,0
2,49,89,60
2,44,89,0
2,66,102,60
2,63,102,0
2,66,102,0
2,63,102,0
2,63,102,0
2,49,89,0
2,44,89,0
2,49,89,60
2,44,89,0
2,66,102,60
2,63,102,0
2,66,102,0
2,66,102,0
2,63,102,0
2,68,102,0
2,68,102,0
2,68,102,0
2,70,102,0
2,70,102,0
2,68,102,0
2,73,102,0
2,73,102,0
2,68,102,0
2,75,102,0
2,75,102,0
2,73,102,0
2,78,102,0
2,78,102,0
2,78,102,0
2,77,102,0
2,73,102,0
2,75,102,0
2,73,102,0
2,75,102,0
2,73,102,0
2,68,102,0
2,75,102,0
2,73,102,0
2,73,102,0
2,75,102,0
2,73,102,0
2,68,102,0
2,75,102,0
2,73,102,0
2,73,102,0
2,75,102,0
2,73,102,0
2,68,102,40
2,75,102,0
2,73,102,0
2,73,102,0
2,75,102,0
2,73,102,0
2,68,102,0
2,70,102,0
2,75,102,0
2,73,102,0
2,78,93,0
2,78,102,0
2,75,102,0
2,73,102,0
2,75,102,0
2,73,102,0
2,75,102,0
2,73,102,0
2,68,102,0
2,68,102,0
2,73,102,0
2,68,102,0
2,63,102,0
2,68,102,0
2,63,102,0
2,66,76,0
2,58,51,0
2,54,51,0
2,49,51,0
2,58,51,80
2,54,51,0
2,49,51,0
2,58,76,80
2,54,76,0
2,49,76,0
2,58,76,80
2,54,76,0
2,49,76,0
2,58,76,80
2,54,76,0
2,49,76,0
2,61,76,2840
2,56,76,0
2,49,76,0
2,61,76,60
2,56,76,0
2,49,76,0
2,61,102,36
2,65,32,0
2,61,83,1200
2,56,83,0
2,49,83,0
2,49,64,180
2,56,64,0
2,61,64,0
2,61,83,180
2,56,83,0
2,49,83,0
2,61,76,3660
2,56,76,0
2,49,76,0
2,56,76,60
2,61,76,0
2,49,76,0
2,56,76,60
2,61,76,0
2,49,76,0
2,56,102,60
2,61,83,0
2,56,83,0
2,49,83,0
2,61,83,60
2,56,83,0
2,49,83,0
2,56,102,60
2,51,102,0
2,46,102,0
2,61,121,0
2,66,76,0
2,63,64,0
2,73,102,0
2,70,102,0
2,68,102,0
2,66,102,0
2,66,102,240
2,72,83,0
2,75,95,0
2,72,83,480
2,75,102,0
2,75,102,0
2,85,95,0
2,85,97,0
2,85,97,0
2,85,97,0
2,85,97,0
2,85,97,0
2,85,97,0
2,75,85,0
2,80,97,0
2,80,97,0
2,80,97,0
2,80,121,0
2,75,79,0
2,75,97,0
2,73,97,0
2,73,97,0
2,73,97,0
2,75,97,0
2,73,97,0
2,73,97,0
2,73,97,0
2,68,97,0
2,75,97,0
2,73,97,0
2,68,97,0
2,75,97,0
2,73,97,0
2,68,97,0
2,75,97,0
2,73,97,0
2,68,97,0
2,75,97,0
2,73,97,0
2,68,97,0
2,75,97,0
2,73,97,0
2,68,97,0
2,75,97,0
2,73,97,0
2,68,97,0
2,75,97,0
2,73,97,0
2,68,97,0
2,73,103,0
2,73,97,0
2,68,97,0
2,68,97,0
2,73,97,80
2,68,97,0
2,68,97,0
2,68,97,0
2,68,85,0
2,68,85,0
2,66,85,0
2,63,90,0
2,61,90,0
2,73,97,0
2,73,97,0
2,75,97,0
2,73,97,0
2,73,97,0
2,73,97,0
2,70,97,0
2,68,97,0
2,68,97,0
2,66,97,0
2,68,97,0
2,68,97,0
2,68,97,40
2,68,97,0
2,68,97,0
2,68,97,0
2,68,97,0
2,68,97,0
2,49,97,0
2,44,97,0
2,63,102,180
2,54,102,0
2,44,92,0
2,42,85,0
2,39,95,0
3,61,102,1916
3,73,102,0
3,68,102,0
3,66,102,0
3,78,102,0
3,68,102,0
3,77,102,0
3,68,102,0
3,61,102,0
3,73,102,0
3,68,102,0
3,66,102,0
3,78,102,0
3,68,102,0
3,77,102,0
3,68,102,0
3,63,102,0
3,73,102,0
3,68,102,0
3,66,102,0
3,78,102,0
3,68,102,0
3,77,102,0
3,68,102,0
3,63,102,0
3,73,102,0
3,68,102,0
3,66,102,0
3,78,102,0
3,68,102,0
3,77,102,0
3,68,102,0
3,66,102,0
3,73,102,0
3,68,102,0
3,66,102,0
3,78,102,0
3,68,102,0
3,77,102,0
3,68,102,0
3,66,102,0
3,73,102,0
3,68,102,0
3,66,102,0
3,78,102,0
3,68,102,0
3,77,102,0
3,68,102,0
3,61,102,0
3,73,102,0
3,68,102,0
3,66,102,0
3,78,102,0
3,68,102,0
3,77,102,0
3,68,102,0
3,61,102,0
3,73,102,0
3,68,102,0
3,66,102,0
3,78,102,0
3,68,102,0
3,77,102,0
3,68,102,0
3,61,102,0
3,73,102,0
3,68,102,0
3,66,102,0
3,78,102,0
3,68,102,0
3,77,102,0
3,68,102,0
3,61,102,0
3,73,102,0
3,68,102,0
3,66,102,0
3,78,102,0
3,68,102,0
3,77,102,0
3,68,102,0
3,63,102,0
3,73,102,0
3,68,102,0
3,66,102,0
3,78,102,0
3,68,102,0
3,77,102,0
3,68,102,0
3,63,102,0
3,73,102,0
3,68,102,0
3,66,102,0
3,78,102,0
3,68,102,0
3,77,102,0
3,68,102,0
3,66,102,0
3,73,102,0
3,68,102,0
3,66,102,0
3,78,102,0
3,68,102,0
3,77,102,0
3,68,102,0
3,66,102,0
3,73,102,0
3,68,102,0
3,66,102,0
3,78,102,0
3,68,102,0
3,77,102,0
3,68,102,0
3,61,102,0
3,73,102,0
3,68,102,0
3,66,102,0
3,78,102,0
3,68,102,0
3,77,102,0
3,68,102,0
3,61,102,0
3,73,102,0
3,68,102,0
3,66,102,0
3,78,102,0
3,68,102,0
3,77,102,0
3,68,102,0
3,61,102,0
3,73,102,0
3,68,102,0
3,66,102,0
3,78,102,0
3,68,102,0
3,77,102,0
3,68,102,0
3,61,102,0
3,73,102,0
3,68,102,0
3,66,102,0
3,78,102,0
3,68,102,0
3,77,102,0
3,68,102,0
3,63,102,0
3,73,102,0
3,68,102,0
3,66,102,0
3,78,102,0
3,68,102,0
3,77,102,0
3,68,102,0
3,63,102,0
3,73,102,0
3,68,102,0
3,66,102,0
3,78,102,0
3,68,102,0
3,77,102,0
3,68,102,0
3,66,102,0
3,73,102,0
3,68,102,0
3,66,102,0
3,78,102,0
3,68,102,0
3,77,102,0
3,68,102,0
3,66,102,0
3,73,102,0
3,68,102,0
3,66,102,0
3,78,102,0
3,68,102,0
3,77,102,0
3,68,102,0
3,75,102,0
3,68,102,0
3,73,102,0
3,68,102,0
3,75,102,0
3,68,102,0
3,77,102,0
3,68,102,0
3,78,102,0
3,68,102,0
3,77,102,0
3,68,102,0
3,75,102,0
3,68,102,0
3,73,102,0
3,60,102,30720
3,72,102,0
3,68,102,0
3,63,102,0
3,73,102,0
3,68,102,0
3,72,102,0
3,68,102,0
3,59,102,0
3,71,102,0
3,66,102,0
3,64,102,0
3,75,102,0
3,66,102,0
3,73,102,0
3,66,102,0
3,61,102,0
3,73,102,0
3,68,102,0
3,66,102,0
3,78,102,0
3,68,102,0
3,77,102,0
3,68,102,0
3,61,102,0
3,73,102,0
3,68,102,0
3,66,102,0
3,78,102,0
3,68,102,0
3,77,102,0
3,68,102,0
3,60,102,0
3,72,102,0
3,68,102,0
3,63,102,0
3,73,102,0
3,68,102,0
3,72,102,0
3,68,102,0
3,59,102,0
3,71,102,0
3,66,102,0
3,64,102,0
3,75,102,0
3,66,102,0
3,73,102,0
3,66,102,0
3,68,102,0
3,73,102,0
3,68,102,1444
3,65,102,0
3,68,102,0
3,66,102,0
3,65,102,0
3,68,102,0
3,63,95,0
3,68,102,0
3,63,95,0
3,68,102,0
3,68,102,0
3,66,102,0
3,68,108,60
3,73,102,0
3,73,102,0
3,63,102,0
3,60,102,0
3,72,102,0
3,68,102,0
3,63,102,0
3,73,102,0
3,68,102,0
3,72,102,0
3,68,102,0
3,59,102,0
3,71,102,0
3,66,102,0
3,64,102,0
3,75,102,0
3,66,102,0
3,73,102,0
3,66,102,0
3,61,102,0
3,73,102,0
3,68,102,0
3,66,102,0
3,78,102,0
3,68,102,0
3,77,102,0
3,68,102,0
3,61,102,0
3,73,102,0
3,68,102,0
3,66,102,0
3,78,102,0
3,68,102,0
3,77,102,0
3,68,102,0
3,60,102,0
3,72,102,0
3,68,102,0
3,63,102,0
3,73,102,0
3,68,102,0
3,72,102,0
3,68,102,0
3,59,102,0
3,71,102,0
3,66,102,0
3,64,102,0
3,75,102,0
3,66,102,0
3,73,102,0
3,66,102,0
3,68,102,0
3,73,102,0
3,68,102,1444
3,65,102,0
3,68,102,0
3,66,102,0
3,65,102,0
3,68,102,0
3,63,95,0
3,68,102,0
3,63,95,0
