track,note,velocity,time
1,31,127,15570
1,38,127,1840
1,36,127,1925
1,33,127,1645
1,36,127,15
1,33,127,210
1,36,127,195
1,36,127,180
1,33,127,240
1,31,127,35
1,35,127,1420
1,36,127,200
1,38,127,250
1,33,127,1660
1,36,127,80
1,33,127,1645
1,36,127,20
1,43,127,230
1,31,127,5
1,38,127,1930
1,33,127,1915
1,33,127,80
1,33,127,80
1,33,127,175
1,35,127,240
1,31,127,455
1,31,127,20
1,35,127,1190
1,36,127,210
1,38,127,210
1,36,127,30
1,33,127,1690
1,36,127,5
1,36,127,210
1,33,127,710
1,31,127,690
1,38,127,1875
1,33,127,1860
1,33,127,115
1,43,127,240
1,44,127,205
1,45,127,165
1,31,127,450
1,35,127,1435
1,36,127,180
1,38,127,240
1,36,127,1855
1,33,127,690
1,36,127,230
1,40,127,1910
1,38,127,200
1,36,127,205
1,31,127,160
1,36,127,1640
1,38,127,215
1,36,127,1860
1,33,127,1640
1,36,127,60
1,36,127,160
1,33,127,710
1,31,127,670
1,31,127,5
1,38,127,1840
1,35,127,1670
1,36,127,20
1,41,127,935
1,40,127,235
1,38,127,135
1,36,127,205
1,41,127,200
1,40,127,175
1,38,127,150
1,36,127,195
1,38,127,215
1,36,127,215
1,31,127,65
1,31,127,5
1,38,127,1820
1,36,127,1690
1,36,127,90
1,40,127,280
1,41,127,40
1,42,127,690
1,31,127,25
1,38,127,35
1,36,127,1935
1,36,127,10
1,33,127,1580
1,36,127,240
1,43,127,250
1,31,127,1665
1,38,127,35
1,36,127,1915
1,33,127,25
1,36,127,245
1,36,127,295
1,31,127,1440
1,38,127,1865
1,36,127,1905
1,36,127,125
1,36,127,130
1,31,127,725
1,38,127,35
1,36,127,1915
1,28,127,2085
1,29,127,705
1,30,127,425
1,31,127,480
1,38,127,45
1,36,127,1920
1,41,127,15
1,40,127,235
1,38,127,210
1,43,127,220
1,41,127,225
1,36,127,5
1,31,127,230
1,31,127,130
1,38,127,1860
1,33,127,1920
1,45,127,5
1,33,127,20
1,33,127,100
1,35,127,240
1,31,127,675
1,31,127,15
1,35,127,1350
1,36,127,230
1,38,127,255
1,36,127,1910
1,33,127,155
1,36,127,40
1,33,127,185
1,36,127,85
1,36,127,160
1,38,127,255
1,31,127,675
1,31,127,15
1,35,127,1370
1,36,127,20
1,38,127,25
1,33,127,5
1,45,127,1650
1,45,127,5
1,45,127,165
1,43,127,240
1,40,127,160
1,36,127,230
1,31,127,255
1,35,127,1375
1,36,127,220
1,38,127,230
1,36,127,1910
1,33,127,1620
1,41,127,5
1,40,127,235
1,41,127,200
1,40,127,205
1,41,127,140
1,40,127,225
1,36,127,40
1,31,127,250
1,31,127,90
1,38,127,95
1,36,127,1910
1,33,127,125
1,36,127,5
1,33,127,225
1,36,127,5
1,33,127,725
1,31,127,95
1,35,127,125
1,36,127,20
1,38,127,10
1,36,127,1660
1,36,127,95
1,40,127,190
1,41,127,5
1,42,127,470
1,31,127,120
1,31,127,280
1,35,127,120
1,36,127,50
1,38,127,5
1,36,127,95
1,41,127,130
1,40,127,235
1,38,127,195
1,36,127,220
1,41,127,195
1,40,127,220
1,38,127,205
1,36,127,195
1,31,127,70
1,35,127,1435
1,36,127,220
1,38,127,245
1,35,127,1640
1,36,127,240
1,36,127,110
1,36,127,90
1,31,127,1915
1,35,127,85
1,36,127,20
1,38,127,270
1,36,127,1870
1,33,127,75
1,36,127,20
1,33,127,230
1,36,127,240
1,35,127,955
1,33,127,215
1,31,127,245
1,35,127,1410
1,36,127,205
1,38,127,255
1,36,127,25
1,40,127,925
1,41,127,25
1,42,127,990
1,31,127,920
1,35,127,1405
1,36,127,175
1,38,127,40
1,36,127,100
1,43,127,1640
1,43,127,105
1,36,127,85
1,35,127,240
1,31,127,125
1,35,127,1435
1,36,127,185
1,38,127,225
1,35,127,1635
1,36,127,175
1,36,127,135
1,36,127,150
1,36,127,95
1,36,127,105
1,36,127,80
1,31,127,5
1,31,127,90
1,36,127,1055
1,38,127,40
1,38,127,65
1,36,127,1365
1,36,127,80
1,36,127,1695
1,36,127,35
1,36,127,85
1,29,127,240
1,30,127,195
1,31,127,25
1,31,127,80
1,36,127,1010
1,38,127,55
1,38,127,55
1,36,127,1335
1,36,127,80
1,31,127,1505
1,34,127,235
1,33,127,445
1,32,127,445
1,31,127,5
1,31,127,45
1,36,127,1000
1,38,127,5
1,38,127,80
1,36,127,1235
1,36,127,60
1,41,127,1405
1,41,127,115
1,40,127,225
1,41,127,180
1,40,127,225
1,41,127,190
1,31,127,95
1,31,127,105
1,31,127,100
1,31,127,100
1,31,127,75
1,36,127,415
1,38,127,45
1,38,127,100
1,38,127,115
1,38,127,120
1,38,127,110
1,36,127,525
1,36,127,90
1,36,127,120
1,36,127,120
1,36,127,125
1,29,127,880
1,30,127,5
1,30,127,80
1,31,127,180
1,31,127,75
1,36,127,1025
1,38,127,5
1,38,127,75
1,36,127,1330
1,36,127,55
1,36,127,1535
1,36,127,100
1,36,127,100
1,36,127,70
1,29,127,235
1,30,127,60
1,31,127,5
1,31,127,80
1,36,127,1125
1,38,127,35
1,38,127,80
1,36,127,1400
1,36,127,60
1,41,127,1600
1,40,127,235
1,36,127,205
1,41,127,205
1,40,127,220
1,36,127,30
1,31,127,235
1,31,127,105
1,31,127,100
1,36,127,1080
1,38,127,5
1,38,127,80
1,36,127,1385
1,36,127,100
1,28,127,230
1,28,127,85
1,40,127,235
1,28,127,355
1,29,127,5
1,41,127,240
1,29,127,410
1,30,127,195
1,42,127,220
1,31,127,190
1,31,127,95
1,36,127,1105
1,38,127,60
1,38,127,80
1,36,127,1365
1,36,127,80
1,36,127,120
1,36,127,140
1,40,127,245
1,36,127,220
1,36,127,140
1,36,127,95
1,41,127,5
1,36,127,245
1,36,127,100
1,36,127,80
1,43,127,65
1,41,127,235
1,39,127,155
1,36,127,220
1,31,127,235
1,31,127,45
1,36,127,1130
1,38,127,45
1,38,127,75
1,36,127,1425
1,36,127,90
1,41,127,1665
1,40,127,235
1,36,127,195
1,43,127,5
1,41,127,5
1,39,127,235
1,31,127,240
1,31,127,100
1,36,127,1100
1,38,127,250
1,38,127,105
1,36,127,1360
1,36,127,80
1,28,127,220
1,34,127,245
1,33,127,900
1,32,127,935
1,31,127,940
1,31,127,95
1,36,127,1165
1,38,127,70
1,38,127,65
1,36,127,1400
1,36,127,85
1,41,127,1600
1,40,127,260
1,36,127,200
1,41,127,25
1,40,127,5
1,36,127,210
1,31,127,245
1,31,127,95
1,36,127,3145
1,36,127,160
1,36,127,125
1,36,127,80
1,36,127,215
1,36,127,65
1,36,127,80
1,31,127,250
1,31,127,100
1,31,127,35
1,35,127,470
1,36,127,20
1,38,127,15
1,38,127,95
1,35,127,705
1,36,127,95
1,36,127,185
1,36,127,25
1,36,127,210
1,36,127,80
1,41,127,25
1,40,127,225
1,36,127,200
1,31,127,45
1,31,127,135
1,35,127,485
1,34,127,105
1,36,127,40
1,38,127,255
1,38,127,90
1,35,127,720
1,36,127,40
1,36,127,20
1,36,127,110
1,40,127,40
1,40,127,65
1,40,127,100
1,41,127,240
1,41,127,65
1,41,127,20
1,42,127,5
1,43,127,100
1,43,127,80
1,31,127,20
1,31,127,65
1,35,127,475
1,36,127,30
1,38,127,245
1,38,127,45
1,35,127,65
1,36,127,30
1,36,127,75
1,36,127,40
1,36,127,120
1,36,127,80
1,36,127,160
1,36,127,120
1,41,127,240
1,40,127,230
1,36,127,190
1,43,127,5
1,41,127,220
1,40,127,20
1,31,127,105
1,31,127,100
1,35,127,1435
1,36,127,25
1,38,127,240
1,38,127,105
1,35,127,730
1,36,127,5
1,36,127,125
1,36,127,125
1,36,127,90
1,36,127,50
1,36,127,95
1,36,127,75
1,31,127,720
1,36,127,145
1,36,127,70
1,36,127,65
1,36,127,155
1,36,127,95
1,36,127,285
1,36,127,235
1,36,127,225
1,31,127,40
2,79,127,29690
2,76,127,80
2,74,127,65
2,72,127,50
2,71,127,1015
2,62,127,5
2,67,127,5
2,55,127,5
2,50,127,390
2,62,127,135
2,69,127,5
2,66,127,5
2,50,127,5
2,45,127,330
2,60,127,5
2,64,127,5
2,69,127,5
2,43,127,145
2,71,127,5
2,62,127,5
2,67,127,5
2,50,127,1635
2,62,127,40
2,66,127,5
2,69,127,5
2,50,127,5
2,67,127,1215
2,60,127,55
2,64,127,5
2,67,127,5
2,72,127,480
2,74,127,5
2,79,127,15
2,79,127,55
2,72,127,5
2,74,127,15
2,76,127,465
2,74,127,35
2,67,127,330
2,62,127,60
2,67,127,5
2,71,127,5
2,43,127,5
2,62,127,185
2,69,127,5
2,66,127,5
2,50,127,5
2,45,127,335
2,60,127,10
2,64,127,5
2,69,127,5
2,69,127,185
2,60,127,10
2,64,127,15
2,43,127,135
2,59,127,25
2,62,127,5
2,67,127,5
2,62,127,210
2,69,127,15
2,50,127,5
2,66,127,10
2,72,127,250
2,64,127,5
2,67,127,10
2,48,127,10
2,60,127,10
2,64,127,15
2,67,127,5
2,72,127,5
2,76,127,260
2,79,127,5
2,72,127,5
2,60,127,10
2,76,127,55
2,79,127,5
2,60,127,5
2,72,127,5
2,84,127,5
2,60,127,125
2,72,127,5
2,76,127,5
2,79,127,5
2,84,127,5
2,72,127,65
2,79,127,5
2,76,127,5
2,84,127,5
2,60,127,5
2,60,127,120
2,72,127,5
2,79,127,10
2,84,127,5
2,76,127,5
2,55,127,155
2,74,127,5
2,83,127,5
2,79,127,5
2,83,127,135
2,74,127,5
2,79,127,5
2,62,127,170
2,74,127,5
2,81,127,5
2,78,127,10
2,81,127,190
2,74,127,5
2,78,127,5
2,83,127,5
2,60,127,325
2,72,127,5
2,74,127,10
2,76,127,5
2,79,127,5
2,76,127,5
2,79,127,5
2,84,127,5
2,76,127,85
2,79,127,15
2,84,127,5
2,76,127,110
2,79,127,5
2,84,127,5
2,76,127,70
2,79,127,10
2,84,127,5
2,76,127,130
2,79,127,5
2,84,127,5
2,71,127,140
2,79,127,5
2,55,127,15
2,74,127,5
2,74,127,5
2,83,127,5
2,79,127,5
2,83,127,310
2,74,127,5
2,79,127,5
2,74,127,20
2,81,127,5
2,62,127,5
2,78,127,5
2,74,127,220
2,81,127,5
2,78,127,5
2,83,127,30
2,60,127,220
2,72,127,5
2,79,127,5
2,76,127,35
2,76,127,185
2,74,127,10
2,79,127,105
2,72,127,15
2,77,127,5
2,79,127,40
2,72,127,5
2,77,127,10
2,60,127,470
2,72,127,40
2,76,127,10
2,60,127,35
2,71,127,40
2,74,127,5
2,79,127,10
2,55,127,15
2,74,127,200
2,83,127,5
2,79,127,10
2,62,127,530
2,62,127,110
2,74,127,5
2,81,127,5
2,78,127,10
2,74,127,165
2,78,127,5
2,81,127,5
2,83,127,225
2,72,127,265
2,79,127,5
2,60,127,10
2,74,127,5
2,76,127,5
2,79,127,240
2,55,127,30
2,71,127,5
2,74,127,5
2,83,127,255
2,74,127,5
2,79,127,15
2,55,127,250
2,62,127,85
2,74,127,5
2,81,127,5
2,78,127,5
2,62,127,130
2,74,127,160
2,78,127,5
2,81,127,5
2,83,127,230
2,60,127,135
2,72,127,50
2,74,127,5
2,76,127,5
2,79,127,5
2,60,127,40
2,59,127,505
2,55,127,15
2,62,127,5
2,67,127,5
2,55,127,5
2,67,127,20
2,71,127,5
2,62,127,5
2,50,127,190
2,62,127,60
2,69,127,5
2,57,127,10
2,66,127,5
2,50,127,15
2,62,127,5
2,69,127,10
2,66,127,5
2,71,127,890
2,74,127,235
2,67,127,35
2,45,127,185
2,60,127,5
2,64,127,5
2,64,127,5
2,55,127,5
2,69,127,20
2,48,127,5
2,60,127,5
2,67,127,395
2,59,127,5
2,55,127,10
2,62,127,5
2,62,127,150
2,69,127,5
2,50,127,5
2,67,127,10
2,62,127,30
2,69,127,5
2,66,127,5
2,64,127,330
2,48,127,10
2,55,127,5
2,60,127,20
2,77,127,15
2,79,127,220
2,84,127,200
2,76,127,25
2,79,127,230
2,67,127,240
2,74,127,10
2,79,127,5
2,83,127,5
2,86,127,5
2,62,127,135
2,74,127,20
2,78,127,5
2,86,127,5
2,81,127,5
2,76,127,210
2,79,127,225
2,72,127,15
2,72,127,265
2,84,127,5
2,76,127,5
2,79,127,5
2,60,127,10
2,74,127,60
2,79,127,5
2,72,127,5
2,79,127,75
2,72,127,5
2,74,127,5
2,60,127,460
2,72,127,170
2,79,127,5
2,74,127,5
2,55,127,40
2,71,127,5
2,74,127,5
2,79,127,5
2,71,127,215
2,79,127,5
2,74,127,5
2,55,127,200
2,74,127,30
2,78,127,5
2,62,127,5
2,69,127,5
2,69,127,170
2,79,127,5
2,74,127,10
2,69,127,20
2,74,127,5
2,78,127,5
2,67,127,160
2,76,127,5
2,60,127,5
2,72,127,5
2,43,127,575
2,59,127,15
2,62,127,5
2,67,127,5
2,57,127,155
2,62,127,5
2,66,127,5
2,50,127,5
2,45,127,135
2,60,127,5
2,64,127,5
2,69,127,10
2,59,127,100
2,67,127,15
2,43,127,30
2,62,127,10
2,57,127,115
2,62,127,5
2,66,127,5
2,50,127,30
2,48,127,100
2,57,127,10
2,64,127,5
2,60,127,15
2,48,127,10
2,55,127,5
2,60,127,5
2,64,127,10
2,55,127,245
2,62,127,15
2,60,127,5
2,48,127,160
2,55,127,250
2,60,127,5
2,64,127,5
2,62,127,235
2,48,127,30
2,59,127,30
2,43,127,5
2,62,127,20
2,67,127,5
2,57,127,10
2,62,127,10
2,66,127,5
2,50,127,5
2,45,127,445
2,60,127,5
2,69,127,5
2,64,127,20
2,43,127,20
2,59,127,5
2,67,127,5
2,62,127,5
2,57,127,225
2,62,127,5
2,66,127,5
2,50,127,15
2,60,127,470
2,64,127,5
2,67,127,5
2,48,127,10
2,72,127,50
2,64,127,25
2,67,127,5
2,79,127,420
2,76,127,5
2,72,127,10
2,84,127,20
2,79,127,95
2,84,127,5
2,72,127,15
2,76,127,5
2,72,127,155
2,76,127,5
2,79,127,5
2,84,127,5
2,72,127,75
2,76,127,10
2,79,127,5
2,84,127,5
2,72,127,135
2,76,127,5
2,79,127,15
2,84,127,5
2,55,127,215
2,74,127,5
2,79,127,5
2,83,127,5
2,83,127,30
2,74,127,5
2,79,127,10
2,55,127,100
2,74,127,135
2,62,127,5
2,81,127,5
2,78,127,15
2,74,127,145
2,78,127,5
2,81,127,5
2,83,127,230
2,79,127,300
2,72,127,5
2,74,127,10
2,76,127,5
2,60,127,10
2,74,127,380
2,83,127,5
2,79,127,10
2,55,127,5
2,74,127,35
2,81,127,15
2,62,127,5
2,78,127,5
2,81,127,130
2,74,127,15
2,78,127,5
2,83,127,220
2,79,127,305
2,60,127,5
2,72,127,5
2,74,127,5
2,76,127,5
2,72,127,340
2,76,127,5
2,79,127,5
2,84,127,5
2,84,127,90
2,72,127,5
2,76,127,5
2,79,127,5
2,72,127,110
2,76,127,5
2,79,127,5
2,84,127,5
2,74,127,125
2,83,127,5
2,79,127,20
2,55,127,15
2,79,127,140
2,83,127,5
2,74,127,5
2,55,127,25
2,74,127,40
2,62,127,5
2,78,127,10
2,81,127,10
2,74,127,180
2,78,127,5
2,81,127,5
2,83,127,5
2,60,127,285
2,72,127,5
2,74,127,5
2,76,127,5
2,79,127,5
2,83,127,390
2,74,127,5
2,79,127,5
2,55,127,25
2,74,127,185
2,79,127,5
2,83,127,5
2,55,127,475
2,74,127,40
2,78,127,10
2,81,127,5
2,62,127,5
2,74,127,155
2,78,127,5
2,81,127,5
2,83,127,235
2,79,127,255
2,60,127,5
2,72,127,5
2,74,127,5
2,76,127,5
2,59,127,625
2,67,127,5
2,43,127,5
2,62,127,5
2,57,127,160
2,62,127,5
2,66,127,5
2,50,127,40
2,48,127,295
2,62,127,5
2,64,127,5
2,67,127,5
2,60,127,10
2,67,127,90
2,64,127,5
2,60,127,5
2,48,127,120
2,43,127,90
2,59,127,10
2,67,127,5
2,62,127,10
2,57,127,160
2,62,127,5
2,66,127,15
2,50,127,35
2,64,127,190
2,67,127,5
2,48,127,15
2,60,127,10
2,62,127,5
2,48,127,60
2,72,127,215
2,60,127,5
2,64,127,5
