track,note,velocity,time
0,37,127,296
0,37,127,67
0,37,127,69
0,37,127,72
0,43,127,420
0,43,127,1
0,47,127,11
0,47,127,1
0,50,127,15
0,50,127,1
0,55,127,15
0,55,127,1
0,67,127,182
0,62,127,54
0,55,127,1
0,62,127,14
0,50,127,9
0,50,127,1
0,54,127,17
0,54,127,1
0,57,127,2
0,62,127,42
0,66,127,48
0,64,127,26
0,62,127,17
0,57,127,25
0,62,127,28
0,50,127,14
0,50,127,1
0,64,127,2
0,55,127,1
0,52,127,21
0,52,127,1
0,48,127,46
0,48,127,1
0,67,127,32
0,60,127,2
0,52,127,1
0,64,127,1
0,55,127,4
0,52,127,3
0,60,127,4
0,55,127,2
0,50,127,25
0,50,127,1
0,52,127,1
0,48,127,14
0,52,127,4
0,52,127,1
0,48,127,1
0,48,127,1
0,43,127,19
0,43,127,1
0,43,127,12
0,43,127,1
0,67,127,24
0,62,127,47
0,55,127,4
0,62,127,25
0,50,127,12
0,50,127,1
0,54,127,20
0,54,127,1
0,57,127,39
0,62,127,29
0,66,127,5
0,64,127,6
0,62,127,1
0,57,127,9
0,59,127,4
0,48,127,17
0,48,127,1
0,60,127,14
0,55,127,10
0,52,127,9
0,48,127,1
0,60,127,16
0,55,127,33
0,40,127,1
0,40,127,1
0,52,127,13
0,35,127,1
0,40,127,46
0,60,127,1
0,40,127,1
0,35,127,27
0,55,127,1
0,52,127,5
0,40,127,1
0,40,127,1
0,35,127,16
0,47,127,1
0,48,127,2
0,35,127,4
0,45,127,2
0,43,127,2
0,35,127,16
0,57,127,1
0,43,127,1
0,50,127,1
0,55,127,1
0,43,127,1
0,50,127,1
0,55,127,1
0,66,127,1
0,31,127,1
0,51,127,78
0,51,127,31
0,40,127,36
0,51,127,1
0,51,127,36
0,35,127,28
0,51,127,1
0,38,127,18
0,62,127,3
0,62,127,1
0,50,127,1
0,55,127,1
0,50,127,1
0,55,127,1
0,35,127,1
0,51,127,1
0,57,127,5
0,57,127,1
0,51,127,7
0,51,127,36
0,40,127,68
0,51,127,1
0,51,127,3
0,51,127,25
0,36,127,3
0,48,127,3
0,48,127,1
0,35,127,1
0,51,127,1
0,55,127,1
0,60,127,1
0,55,127,1
0,60,127,1
0,51,127,7
0,51,127,20
0,51,127,21
0,40,127,40
0,51,127,1
0,51,125,4
0,51,127,36
0,51,127,16
0,33,127,4
0,35,127,1
0,35,127,1
0,51,127,1
0,36,127,1
0,33,127,21
0,51,127,2
0,36,127,33
0,35,127,3
0,51,127,1
0,55,127,15
0,55,127,1
0,47,127,1
0,47,127,1
0,59,127,1
0,59,127,1
0,51,113,1
0,36,127,20
0,60,127,1
0,60,127,1
0,48,127,1
0,48,127,1
0,76,127,1
0,40,127,1
0,51,127,1
0,33,127,21
0,35,127,1
0,48,127,1
0,60,127,1
0,51,127,1
0,48,127,1
0,60,127,1
0,35,127,21
0,41,127,1
0,51,127,1
0,43,127,7
0,35,127,1
0,51,127,1
0,55,127,1
0,43,127,1
0,50,127,1
0,55,127,1
0,43,127,1
0,50,127,1
0,31,127,1
0,35,127,1
0,51,127,1
0,57,127,1
0,74,127,1
0,51,127,47
0,51,127,24
0,40,127,32
0,51,127,1
0,83,127,1
0,51,127,10
0,35,127,32
0,51,127,5
0,36,127,17
0,35,127,6
0,51,123,1
0,50,127,9
0,57,127,1
0,62,127,1
0,50,127,1
0,57,127,1
0,62,127,1
0,38,127,1
0,35,127,5
0,51,127,1
0,80,127,1
0,51,127,1
0,51,127,12
0,40,127,53
0,51,127,1
0,51,127,7
0,33,127,6
0,35,127,1
0,51,127,1
0,48,127,1
0,48,127,1
0,36,127,1
0,55,127,1
0,60,127,1
0,55,127,1
0,60,127,1
0,51,127,27
0,51,127,27
0,51,125,15
0,40,127,41
0,51,127,1
0,51,127,20
0,51,127,35
0,35,127,28
0,33,127,1
0,51,127,1
0,35,127,1
0,51,127,1
0,36,127,4
0,60,127,19
0,51,127,1
0,60,127,1
0,43,127,3
0,35,127,22
0,55,127,1
0,55,127,1
0,51,127,1
0,60,127,23
0,60,127,1
0,51,127,1
0,79,127,1
0,76,127,3
0,74,127,5
0,72,127,10
0,40,127,6
0,55,127,1
0,55,127,1
0,51,127,1
0,40,127,1
0,35,127,15
0,45,127,1
0,51,127,1
0,43,127,5
0,51,127,1
0,51,124,8
0,35,127,4
0,31,127,1
0,35,127,1
0,42,127,1
0,49,127,1
0,50,127,1
0,71,127,1
0,62,127,1
0,67,127,1
0,55,127,1
0,55,127,1
0,46,127,27
0,40,127,1
0,71,127,1
0,44,127,1
0,59,127,4
0,71,127,15
0,42,127,1
0,59,127,1
0,44,127,5
0,59,127,2
0,50,127,4
0,50,127,1
0,71,127,1
0,42,117,1
0,54,127,2
0,57,127,3
0,62,127,9
0,62,127,5
0,69,127,1
0,66,127,1
0,50,127,1
0,35,127,2
0,44,127,1
0,38,127,1
0,57,127,12
0,69,127,1
0,42,127,1
0,44,127,3
0,42,110,8
0,40,127,24
0,44,127,1
0,69,127,1
0,57,127,1
0,42,125,1
0,67,127,3
0,55,127,1
0,44,127,1
0,45,127,4
0,57,127,1
0,69,127,1
0,42,117,1
0,48,127,13
0,52,127,2
0,57,127,6
0,45,127,5
0,60,127,1
0,64,127,1
0,69,127,1
0,35,127,1
0,42,127,1
0,33,127,1
0,44,122,6
0,42,127,16
0,57,127,1
0,44,120,4
0,59,127,4
0,40,127,25
0,42,127,1
0,44,120,4
0,57,127,1
0,42,127,28
0,52,127,1
0,33,127,1
0,44,121,3
0,64,127,1
0,33,127,16
0,35,127,3
0,42,127,1
0,44,127,8
0,57,127,1
0,33,127,12
0,35,127,8
0,42,127,1
0,60,127,6
0,44,127,4
0,57,127,1
0,40,127,25
0,42,127,1
0,44,127,1
0,55,127,3
0,35,127,31
0,46,127,1
0,43,127,2
0,47,127,6
0,31,127,14
0,55,127,1
0,50,127,1
0,35,127,2
0,42,127,1
0,31,127,1
0,43,127,1
0,71,127,1
0,62,127,1
0,67,127,1
0,55,127,1
0,44,126,15
0,42,127,11
0,44,127,12
0,40,127,49
0,42,127,1
0,59,127,2
0,71,127,1
0,44,114,4
0,59,127,2
0,71,127,1
0,42,127,25
0,35,127,1
0,36,127,28
0,50,127,1
0,44,127,3
0,59,127,1
0,71,127,1
0,54,127,1
0,50,127,4
0,57,127,5
0,62,127,5
0,38,127,2
0,62,127,1
0,66,127,1
0,69,127,1
0,50,127,1
0,35,127,1
0,42,127,1
0,57,127,6
0,69,127,1
0,44,127,1
0,55,127,4
0,42,127,3
0,44,113,9
0,57,127,1
0,66,127,20
0,40,127,1
0,42,127,1
0,64,127,40
0,44,123,1
0,67,127,1
0,57,127,1
0,69,127,1
0,55,127,2
0,67,127,1
0,42,127,1
0,44,127,5
0,55,127,1
0,67,127,1
0,48,127,1
0,52,127,1
0,55,127,11
0,60,127,2
0,36,127,1
0,35,127,6
0,42,127,1
0,60,127,1
0,64,127,1
0,67,127,1
0,44,127,2
0,52,127,1
0,55,127,2
0,42,127,3
0,60,127,1
0,44,124,1
0,40,127,23
0,42,127,1
0,55,127,3
0,44,112,1
0,42,127,12
0,33,127,1
0,35,127,2
0,44,123,1
0,35,127,1
0,42,127,1
0,36,127,1
0,44,127,4
0,36,127,7
0,72,127,1
0,74,127,1
0,35,127,1
0,42,127,1
0,79,127,1
0,52,127,1
0,79,127,11
0,72,127,1
0,44,127,1
0,74,127,1
0,60,127,1
0,40,127,11
0,55,127,1
0,52,127,34
0,33,127,2
0,35,127,2
0,76,127,1
0,45,127,1
0,43,127,5
0,74,127,2
0,48,127,1
0,67,127,1
0,31,127,7
0,35,127,1
0,42,127,1
0,47,127,1
0,50,127,1
0,62,127,1
0,67,127,1
0,71,127,1
0,43,127,1
0,55,127,1
0,44,126,37
0,46,127,20
0,40,127,1
0,42,127,1
0,59,127,1
0,71,127,1
0,44,123,45
0,59,127,30
0,71,127,1
0,42,127,1
0,44,127,32
0,50,127,19
0,54,127,1
0,57,127,8
0,62,127,1
0,69,127,1
0,66,127,1
0,50,127,1
0,35,127,4
0,42,127,1
0,38,127,1
0,62,127,1
0,44,124,13
0,59,127,18
0,71,127,1
0,42,127,7
0,59,127,1
0,71,127,1
0,44,117,2
0,40,127,2
0,42,127,1
0,44,114,1
0,57,127,35
0,69,127,1
0,42,127,2
0,44,127,4
0,59,127,1
0,71,127,1
0,45,127,1
0,48,127,18
0,52,127,12
0,33,127,10
0,57,127,2
0,35,127,2
0,42,127,1
0,45,127,3
0,60,127,1
0,64,127,1
0,69,127,1
0,44,110,34
0,42,127,36
0,59,127,1
0,44,127,2
0,40,127,49
0,42,127,1
0,33,127,5
0,44,114,1
0,57,127,1
0,43,127,29
0,52,127,1
0,42,127,1
0,67,127,3
0,44,127,2
0,44,127,1
0,45,127,33
0,35,127,3
0,42,127,1
0,44,121,39
0,57,127,2
0,60,127,2
0,35,127,1
0,42,127,1
0,57,127,1
0,44,127,2
0,69,127,36
0,52,127,1
0,60,127,1
0,40,127,1
0,42,127,1
0,64,127,1
0,60,127,1
0,44,127,3
0,57,127,46
0,46,127,1
0,43,127,1
0,47,127,1
0,50,127,10
0,55,127,9
0,43,127,7
0,31,127,2
0,35,127,1
0,42,127,1
0,59,127,1
0,62,127,1
0,67,127,1
0,55,127,1
0,44,127,3
0,42,127,20
0,59,127,1
0,71,127,1
0,59,127,2
0,44,112,25
0,62,127,1
0,59,127,36
0,71,127,1
0,40,127,1
0,42,127,1
0,67,127,1
0,44,112,3
0,35,127,11
0,42,127,1
0,59,127,3
0,71,127,1
0,36,127,11
0,44,127,1
0,66,127,3
0,50,127,1
0,54,127,1
0,57,127,14
0,62,127,16
0,35,127,1
0,42,127,1
0,69,127,1
0,50,127,1
0,38,127,1
0,66,127,1
0,62,127,1
0,59,127,1
0,71,127,1
0,62,127,1
0,44,127,12
0,57,127,3
0,69,127,1
0,57,127,1
0,42,127,16
0,57,127,5
0,69,127,1
0,44,127,10
0,57,127,3
0,40,127,38
0,42,127,1
0,57,127,2
0,69,127,1
0,44,127,41
0,62,127,1
0,55,127,1
0,67,127,1
0,62,127,8
0,42,127,1
0,35,127,4
0,44,127,1
0,69,127,1
0,57,127,2
0,48,127,7
0,52,127,23
0,72,127,3
0,64,127,1
0,67,127,1
0,36,127,1
0,48,127,1
0,55,127,1
0,60,127,1
0,60,127,1
0,60,127,1
0,40,127,1
0,49,127,1
0,64,127,1
0,67,127,1
0,72,127,1
0,55,127,1
0,67,127,1
0,55,127,1
0,52,127,1
0,64,127,1
0,46,127,8
0,60,127,1
0,33,127,4
0,60,127,3
0,35,127,5
0,36,127,11
0,55,127,1
0,40,127,1
0,49,127,1
0,46,127,3
0,60,127,3
0,35,127,8
0,76,127,19
0,79,127,1
0,72,127,1
0,60,127,1
0,60,127,1
0,35,127,1
0,76,127,11
0,79,127,1
0,60,127,1
0,72,127,1
0,84,127,1
0,55,127,1
0,40,127,1
0,40,127,1
0,52,127,1
0,48,127,10
0,35,127,3
0,60,127,19
0,72,127,1
0,76,127,1
0,79,127,1
0,84,127,1
0,60,127,1
0,35,127,1
0,48,127,1
0,47,127,1
0,45,127,5
0,52,127,1
0,55,127,1
0,60,127,1
0,72,127,4
0,79,127,1
0,76,127,1
0,84,127,1
0,60,127,1
0,40,127,1
0,55,127,1
0,35,127,1
0,38,127,15
0,52,127,1
0,35,127,3
0,36,127,18
0,35,127,1
0,43,127,1
0,60,127,1
0,72,127,1
0,41,127,1
0,79,127,1
0,84,127,1
0,76,127,1
0,35,127,21
0,43,127,1
0,41,127,1
0,35,127,21
0,49,127,1
0,43,127,1
0,50,127,1
0,55,127,1
0,50,127,1
0,55,127,1
0,43,127,1
0,31,127,1
0,55,127,1
0,74,127,1
0,83,127,1
0,79,127,1
0,35,127,4
0,51,121,1
0,51,125,33
0,40,127,21
0,51,127,1
0,59,127,1
0,83,127,4
0,74,127,1
0,79,127,1
0,51,127,27
0,59,127,1
0,36,127,9
0,51,127,1
0,59,127,19
0,35,127,1
0,38,127,1
0,51,127,1
0,50,127,1
0,57,127,1
0,62,127,1
0,57,127,1
0,50,127,1
0,62,127,1
0,62,127,1
0,74,127,1
0,81,127,1
0,78,127,1
0,57,127,21
0,51,127,18
0,57,127,13
0,40,127,31
0,51,127,1
0,81,127,2
0,74,127,1
0,78,127,1
0,57,127,1
0,51,119,4
0,83,127,1
0,55,127,3
0,51,127,37
0,57,127,19
0,35,127,1
0,48,127,4
0,60,127,9
0,72,127,1
0,74,127,1
0,76,127,1
0,79,127,1
0,36,127,1
0,55,127,1
0,60,127,1
0,55,127,1
0,35,127,1
0,51,127,1
0,48,127,1
0,48,127,1
0,55,127,1
0,60,127,1
0,52,127,6
0,51,127,40
0,40,127,63
0,51,127,1
0,55,127,5
0,51,122,4
0,51,127,24
0,33,127,23
0,35,127,1
0,51,127,1
0,76,127,1
0,79,127,1
0,84,127,1
0,76,127,5
0,35,127,1
0,51,127,1
0,79,127,1
0,84,127,1
0,59,127,1
0,36,127,1
0,51,118,1
0,36,127,22
0,35,127,1
0,51,127,1
0,76,127,22
0,79,127,1
0,84,127,1
0,51,127,1
0,48,127,1
0,55,127,6
0,60,127,1
0,48,127,2
0,76,127,5
0,40,127,1
0,79,127,1
0,84,127,1
0,59,127,1
0,51,127,1
0,55,127,12
0,60,127,1
0,48,127,1
0,33,127,1
0,48,127,1
0,51,127,1
0,60,127,5
0,55,127,1
0,48,127,2
0,48,127,1
0,59,127,2
0,76,127,3
0,79,127,1
0,84,127,1
0,43,127,1
0,51,127,1
0,41,127,5
0,48,127,7
0,51,123,8
0,55,127,4
0,31,127,5
0,71,127,3
0,79,127,1
0,43,127,1
0,55,127,1
0,74,127,1
0,50,127,1
0,55,127,1
0,43,127,1
0,50,127,1
0,55,127,1
0,55,127,1
0,35,127,1
0,49,127,1
0,31,127,1
0,74,127,1
0,83,127,1
0,79,127,1
0,51,127,7
0,51,127,13
0,67,127,31
0,40,127,4
0,51,127,1
0,83,127,1
0,74,127,1
0,79,127,1
0,51,127,1
0,51,127,24
0,67,127,1
0,50,127,9
0,35,127,3
0,51,127,1
0,50,127,2
0,50,127,1
0,57,127,1
0,62,127,1
0,57,127,1
0,62,127,1
0,38,127,1
0,66,127,1
0,35,127,1
0,51,127,1
0,74,127,1
0,81,127,1
0,62,127,1
0,78,127,1
0,51,127,24
0,66,127,23
0,51,127,2
0,64,127,2
0,51,127,2
0,74,127,11
0,81,127,1
0,78,127,1
0,66,127,1
0,40,127,1
0,51,127,1
0,83,127,6
0,51,127,1
0,67,127,9
0,51,127,32
0,35,127,2
0,48,127,2
0,35,127,1
0,64,127,1
0,51,123,1
0,60,127,8
0,72,127,1
0,79,127,1
0,48,127,1
0,60,127,1
0,55,127,1
0,48,127,1
0,55,127,1
0,60,127,1
0,36,127,1
0,35,127,1
0,76,127,1
0,51,127,1
0,62,127,1
0,51,127,23
0,60,127,1
0,51,127,23
0,76,127,14
0,74,127,2
0,51,127,4
0,41,127,32
0,40,127,3
0,51,127,1
0,65,127,2
0,40,127,1
0,51,127,3
0,64,127,4
0,38,127,21
0,51,127,8
0,62,127,2
0,36,127,18
0,35,127,7
0,51,127,1
0,64,127,18
0,41,127,2
0,35,127,5
0,51,127,1
0,40,127,7
0,62,127,4
0,51,127,4
0,38,127,10
0,60,127,7
0,79,127,1
0,35,127,1
0,51,127,1
0,72,127,1
0,77,127,1
0,36,127,1
0,55,127,1
0,79,127,2
0,72,127,1
0,51,124,1
0,77,127,1
0,38,127,29
0,62,127,1
0,40,127,2
0,51,127,1
0,36,127,17
0,60,127,1
0,60,127,4
0,51,127,1
0,55,127,6
0,72,127,2
0,51,127,1
0,76,127,1
0,51,127,5
0,60,127,2
0,43,127,1
0,50,127,1
0,55,127,1
0,31,127,1
0,71,127,4
0,74,127,1
0,79,127,1
0,43,127,1
0,50,127,1
0,55,127,1
0,55,127,1
0,35,127,1
