track,note,velocity,time
0,71,100,83
0,64,94,0
0,67,100,0
0,62,96,0
0,69,94,0
0,57,94,0
0,69,60,22
0,69,0,470
0,69,76,26
0,50,82,166
0,50,0,128
0,55,72,10
0,55,0,92
0,52,80,36
0,52,0,8
0,49,88,188
0,67,0,54
0,69,0,4
0,62,0,4
0,64,0,0
0,71,0,2
0,57,0,12
0,45,82,162
0,49,0,4
0,45,0,14
0,64,92,22
0,31,84,0
0,62,90,0
0,69,31,0
0,61,86,0
0,43,104,0
0,87,100,0
0,59,88,0
0,57,94,0
0,57,102,0
0,47,94,0
0,69,94,0
0,52,90,0
0,87,0,4
0,69,0,0
0,61,62,46
0,69,31,0
0,69,0,4
0,61,0,0
0,69,43,48
0,62,54,0
0,62,0,4
0,69,0,0
0,57,0,90
0,61,0,0
0,63,58,2
0,69,31,0
0,69,0,4
0,52,0,0
0,63,0,0
0,57,104,92
0,61,98,0
0,52,92,0
0,69,31,0
0,69,0,2
0,69,31,92
0,69,0,4
0,69,43,48
0,69,0,4
0,57,0,0
0,61,0,2
0,52,0,6
0,69,31,84
0,69,0,4
0,67,74,10
0,69,0,4
0,59,88,10
0,55,90,0
0,69,31,0
0,50,84,0
0,69,0,4
0,69,31,78
0,69,0,4
0,69,43,92
0,69,0,2
0,69,31,92
0,69,0,4
0,55,0,14
0,59,0,8
0,50,0,0
0,50,94,70
0,69,31,0
0,59,104,0
0,55,98,0
0,69,0,4
0,69,31,92
0,69,0,2
0,50,0,70
0,55,0,2
0,59,0,14
0,75,68,6
0,69,43,0
0,54,50,0
0,54,0,4
0,75,0,0
0,69,0,0
0,43,0,56
0,87,74,36
0,69,31,0
0,75,68,0
0,75,0,4
0,69,0,0
0,87,0,0
0,31,0,40
0,69,0,10
0,47,0,28
0,87,100,2
0,69,31,0
0,69,80,0
0,61,92,0
0,43,106,0
0,57,98,0
0,31,80,0
0,52,90,0
0,69,0,4
0,87,0,0
0,67,0,12
0,61,56,70
0,69,31,0
0,76,37,0
0,76,0,4
0,69,0,0
0,61,0,0
0,60,36,48
0,76,52,0
0,69,43,0
0,69,0,4
0,76,0,0
0,60,0,0
0,69,31,92
0,62,44,0
0,62,0,4
0,69,0,0
0,57,0,10
0,61,0,0
0,52,0,4
0,61,96,78
0,77,47,0
0,52,88,0
0,57,104,0
0,69,31,0
0,69,0,4
0,77,0,0
0,69,31,92
0,69,0,4
0,69,43,48
0,69,0,4
0,57,0,2
0,61,0,4
0,52,0,6
0,69,31,80
0,69,0,4
0,69,0,88
0,55,86,4
0,50,84,0
0,59,92,0
0,69,31,0
0,67,90,0
0,69,0,4
0,31,0,80
0,69,31,12
0,69,0,4
0,69,43,48
0,69,0,4
0,69,31,92
0,47,66,0
0,69,0,4
0,50,0,10
0,55,0,2
0,59,0,8
0,47,0,36
0,59,98,36
0,52,94,0
0,55,102,0
0,69,31,0
0,50,94,0
0,69,0,2
0,69,31,18
0,69,0,2
0,50,0,24
0,55,0,18
0,59,0,4
0,54,50,16
0,75,68,0
0,69,43,0
0,69,0,4
0,75,0,0
0,54,0,0
0,43,0,38
0,75,68,54
0,69,31,0
0,69,0,4
0,75,0,0
0,52,0,14
0,67,0,30
0,52,90,4
0,69,84,0
0,57,90,0
0,50,94,0
0,43,102,0
0,87,100,0
0,61,90,0
0,69,31,0
0,69,0,4
0,87,0,0
0,61,62,92
0,69,31,0
0,69,0,4
0,61,0,0
0,69,43,92
0,62,54,0
0,62,0,2
0,69,0,0
0,50,0,64
0,57,0,18
0,52,0,4
0,50,94,6
0,69,31,0
0,63,58,0
0,61,0,2
0,63,0,2
0,69,0,0
0,61,94,92
0,57,98,0
0,69,31,0
0,52,90,0
0,69,0,4
0,69,31,92
0,69,0,4
0,69,43,48
0,57,0,2
0,61,0,0
0,69,0,2
0,52,0,10
0,69,31,82
0,69,0,4
0,69,0,88
0,67,76,4
0,59,92,0
0,50,86,0
0,55,90,0
0,69,31,0
0,69,0,4
0,69,31,92
0,69,0,4
0,50,0,32
0,69,43,48
0,69,0,2
0,59,0,84
0,55,0,2
0,50,0,0
0,69,31,6
0,69,0,4
0,57,64,28
0,50,50,32
0,50,96,32
0,69,31,0
0,55,104,0
0,59,98,0
0,69,0,2
0,57,0,14
0,49,76,30
0,50,0,22
0,69,31,0
0,69,0,4
0,50,0,56
0,55,0,2
0,59,0,16
0,54,50,18
0,50,76,0
0,75,68,0
0,69,43,0
0,69,0,4
0,75,0,0
0,54,0,0
0,49,0,14
0,43,0,2
0,87,74,76
0,69,31,0
0,75,68,0
0,75,0,4
0,69,0,0
0,87,0,0
0,50,0,58
0,67,0,30
0,61,90,4
0,87,100,0
0,57,96,0
0,69,31,0
0,57,82,0
0,52,88,0
0,43,102,0
0,69,70,0
0,69,0,4
0,87,0,0
0,61,56,4
0,76,37,0
0,69,31,0
0,69,0,4
0,76,0,0
0,61,0,0
0,76,52,48
0,69,43,0
0,60,36,0
0,60,0,4
0,69,0,0
0,76,0,0
0,57,0,86
0,69,31,6
0,62,44,0
0,62,0,4
0,69,0,0
0,52,0,2
0,61,0,10
0,69,31,80
0,52,90,0
0,61,102,0
0,57,104,0
0,77,47,0
0,77,0,4
0,69,0,0
0,69,31,92
0,69,0,4
0,57,0,20
0,52,90,28
0,69,43,0
0,69,0,4
0,57,0,0
0,61,0,12
0,52,0,8
0,43,0,50
0,69,31,22
0,69,0,4
0,52,0,82
0,69,0,6
0,59,90,4
0,43,92,0
0,50,88,0
0,50,88,0
0,69,31,0
0,67,78,0
0,55,92,0
0,69,0,4
0,69,31,92
0,69,0,4
0,69,43,48
0,69,0,4
0,50,0,76
0,55,0,8
0,69,31,8
0,59,0,2
0,69,0,2
0,69,31,92
0,55,104,0
0,50,102,0
0,59,106,0
0,69,0,2
0,69,31,92
0,69,0,4
0,50,0,36
0,55,0,2
0,69,43,10
0,75,68,0
0,54,50,0
0,54,0,4
0,59,0,0
0,75,0,0
0,69,0,0
0,43,0,30
0,50,0,48
0,75,68,14
0,69,31,0
0,69,0,4
0,75,0,0
0,67,0,88
0,57,104,4
0,52,86,0
0,69,31,0
0,87,100,0
0,69,74,0
0,43,104,0
0,61,98,0
0,87,0,4
0,69,0,0
0,61,62,90
0,69,31,0
0,69,0,4
0,61,0,0
0,62,54,48
0,69,43,0
0,69,0,4
0,62,0,0
0,61,0,8
0,57,0,0
0,52,0,2
0,69,31,2
0,63,58,0
0,63,0,4
0,69,0,0
0,69,31,78
0,57,104,0
0,52,90,0
0,61,96,0
0,73,66,2
0,69,0,2
0,69,31,10
0,69,0,2
0,57,0,4
0,61,0,2
0,52,0,2
0,69,43,8
0,69,0,4
0,69,31,66
0,69,0,4
0,69,0,88
0,55,88,4
0,69,31,0
0,59,92,0
0,67,74,0
0,50,84,0
0,69,0,4
0,76,58,76
0,69,31,16
0,69,0,4
0,73,0,16
0,69,43,48
0,69,0,4
0,55,0,90
0,69,31,2
0,69,0,4
0,59,0,2
0,50,0,2
0,50,96,88
0,59,102,0
0,69,31,0
0,55,102,0
0,69,0,4
0,69,31,0
0,69,0,4
0,50,0,42
0,55,0,14
0,59,0,8
0,54,50,28
0,69,43,0
0,75,68,0
0,75,0,4
0,69,0,0
0,54,0,0
0,43,0,42
0,75,68,50
0,87,74,0
0,69,31,0
0,76,0,2
0,69,0,2
0,87,0,0
0,75,0,0
0,67,0,88
0,61,88,4
0,43,104,0
0,87,100,0
0,52,86,0
0,57,96,0
0,69,31,0
0,55,74,0
0,69,74,0
0,69,0,4
0,87,0,0
0,61,56,92
0,76,37,0
0,69,31,0
0,69,0,4
0,76,0,0
0,61,0,0
0,76,52,48
0,69,43,0
0,60,36,0
0,60,0,4
0,69,0,0
0,76,0,0
0,78,78,8
0,57,0,36
0,52,0,14
0,61,0,0
0,69,31,34
0,62,44,0
0,62,0,4
0,69,0,0
0,61,94,12
0,57,102,0
0,52,88,0
0,77,47,0
0,69,31,0
0,69,0,4
0,77,0,0
0,69,31,0
0,69,0,4
0,78,0,4
0,69,43,50
0,69,0,4
0,57,0,10
0,52,0,4
0,61,0,8
0,69,31,52
0,57,72,0
0,69,0,4
0,57,0,74
0,69,0,14
0,59,80,4
0,59,88,0
0,67,82,0
0,55,84,0
0,69,31,0
0,50,84,0
0,69,0,4
0,69,31,92
0,69,0,4
0,69,43,48
0,69,0,4
0,69,31,92
0,55,0,2
0,69,0,2
0,59,0,2
0,50,0,0
0,50,94,90
0,59,90,0
0,55,104,0
0,69,31,0
0,69,0,4
0,59,0,60
0,69,31,32
0,59,82,0
0,69,0,4
0,50,0,62
0,55,0,6
0,59,0,14
0,59,0,2
0,75,68,8
0,52,82,0
0,69,43,0
0,54,50,0
0,54,0,4
0,69,0,0
0,75,0,0
0,43,0,20
0,75,68,72
0,69,31,0
0,69,0,4
0,75,0,0
0,52,0,38
0,67,0,12
0,43,104,4
0,57,96,0
0,52,94,0
0,69,72,0
0,61,90,0
0,69,31,0
0,52,90,0
0,87,100,0
0,87,0,4
0,69,0,0
0,61,62,92
0,69,31,0
0,69,0,4
0,61,0,0
0,62,54,48
0,69,43,0
0,69,0,4
0,62,0,0
0,57,0,24
0,61,0,6
0,52,0,4
0,69,31,58
0,63,58,0
0,63,0,4
0,69,0,0
0,57,98,92
0,61,96,0
0,52,86,0
0,69,31,0
0,69,0,2
0,69,31,92
0,69,0,4
0,57,0,82
0,69,43,10
0,69,0,4
0,61,0,0
0,52,0,2
0,52,0,24
0,69,31,66
0,69,0,4
0,69,0,88
0,55,88,4
0,69,31,0
0,59,90,0
0,67,72,0
0,50,86,0
0,69,0,4
0,69,31,92
0,69,0,4
0,69,43,48
0,69,0,4
0,55,0,62
0,59,0,2
0,50,0,2
0,69,31,26
0,49,94,0
0,69,0,4
0,59,92,0
0,55,90,0
0,69,31,0
0,50,88,0
0,69,0,2
0,69,31,0
0,69,0,4
0,50,0,66
0,55,0,12
0,75,68,14
0,54,50,0
0,69,43,0
0,59,0,2
0,54,0,2
0,75,0,0
0,69,0,0
0,43,0,26
0,87,74,66
0,69,31,0
0,75,68,0
0,75,0,4
0,69,0,0
0,87,0,0
0,49,0,4
0,45,78,24
0,67,0,44
0,69,62,4
0,31,72,0
0,43,98,0
0,52,90,0
0,87,100,0
0,47,78,0
0,69,31,0
0,61,90,0
0,57,98,0
0,69,0,4
0,45,0,0
0,87,0,0
0,61,56,92
0,76,37,0
0,69,31,0
0,69,0,4
0,76,0,0
0,61,0,0
0,60,36,92
0,69,43,0
0,76,52,0
0,76,0,4
0,69,0,0
0,60,0,0
0,57,0,56
0,61,0,2
0,52,0,4
0,62,44,30
0,69,31,0
0,69,0,4
0,62,0,0
0,61,86,92
0,57,90,0
0,77,47,0
0,52,88,0
0,69,31,0
0,69,0,4
0,77,0,0
0,69,31,92
0,69,0,4
0,57,0,60
0,61,0,10
0,52,0,2
0,69,43,20
0,69,0,4
0,69,31,92
0,69,0,4
0,69,0,44
0,50,90,4
0,55,86,0
0,67,58,0
0,59,90,0
0,69,31,0
0,69,0,4
0,69,31,92
0,69,0,4
0,69,43,48
0,69,0,4
0,59,0,60
0,50,0,8
0,55,0,0
0,57,92,0
0,69,31,0
0,69,0,4
0,57,0,54
0,59,92,38
0,69,31,0
0,50,90,0
0,55,92,0
0,62,108,0
0,69,0,4
0,69,31,92
0,69,0,4
0,50,0,34
0,55,0,8
0,59,0,8
0,69,43,42
0,54,50,0
0,75,68,0
0,75,0,4
0,54,0,0
0,69,0,0
0,62,0,22
0,43,0,8
0,69,31,62
0,75,68,0
0,61,102,0
0,75,0,4
0,69,0,0
0,31,0,2
0,47,0,10
0,61,0,6
0,67,0,26
0,43,98,0
0,57,98,0
0,61,100,0
0,69,31,0
0,61,96,0
0,52,86,0
0,87,100,0
0,69,62,0
0,31,66,0
0,87,0,4
0,69,0,0
0,69,31,92
0,61,62,0
0,61,0,4
0,69,0,0
0,57,0,60
0,61,0,6
0,52,0,2
0,69,43,24
0,62,54,0
0,62,0,4
0,69,0,0
0,69,31,92
0,63,58,0
0,63,0,4
0,69,0,0
0,61,0,34
0,69,0,2
0,59,82,12
0,55,84,0
0,59,92,0
0,50,78,0
0,67,78,0
0,69,31,0
0,69,0,4
0,69,31,92
0,69,0,4
0,69,43,92
0,69,0,4
0,59,0,38
0,55,0,0
0,50,0,2
0,69,31,52
0,69,0,4
0,59,0,14
0,59,84,78
0,50,82,0
0,69,31,0
0,55,86,0
0,69,0,4
0,69,31,0
0,69,0,4
0,69,43,92
0,69,0,4
0,59,0,10
0,55,0,6
0,50,0,2
0,69,31,74
0,69,0,4
0,59,90,48
0,55,88,0
0,50,86,0
0,69,31,0
0,69,0,4
0,69,31,48
0,69,0,4
0,50,0,26
0,55,0,10
0,59,0,10
0,62,108,46
0,69,43,0
0,54,50,0
0,75,68,0
0,43,0,2
0,54,0,2
0,69,0,0
0,75,0,0
0,62,0,66
0,64,96,26
0,87,74,0
0,69,31,0
0,75,68,0
0,75,0,4
0,69,0,0
0,87,0,0
0,64,0,50
0,31,0,30
0,67,0,8
0,52,88,4
0,61,100,0
0,69,74,0
0,87,100,0
0,57,102,0
0,43,102,0
0,69,31,0
0,61,92,0
0,69,0,4
0,87,0,0
0,76,37,92
0,69,31,0
0,61,56,0
0,61,0,4
0,69,0,0
0,76,0,0
0,57,0,84
0,69,43,8
0,60,36,0
0,76,52,0
0,61,0,2
0,69,0,2
0,52,0,0
0,76,0,0
0,60,0,0
0,69,31,92
0,62,44,0
0,62,0,4
0,69,0,0
0,69,0,68
0,61,0,10
0,59,92,14
0,55,84,0
0,67,74,0
0,59,86,0
0,50,72,0
0,77,47,0
0,69,31,0
0,69,0,2
0,77,0,0
0,69,31,92
0,69,0,4
0,69,43,48
0,69,0,4
0,55,0,62
0,50,0,6
0,59,0,0
0,69,31,24
0,69,0,4
0,50,74,92
0,69,31,0
0,59,86,0
0,55,84,0
0,69,0,4
0,59,0,86
0,69,31,6
0,69,0,4
0,69,43,48
0,69,0,4
0,59,0,18
0,55,0,6
0,50,0,2
0,69,31,66
0,69,0,4
0,50,90,48
0,55,86,0
0,69,31,0
0,59,86,0
0,69,0,4
0,69,31,48
0,69,0,4
0,59,0,6
0,55,0,2
0,43,0,2
0,50,0,10
0,75,68,0
0,59,100,0
0,54,50,0
0,69,43,0
0,69,0,4
0,54,0,0
0,75,0,0
0,59,0,58
0,75,68,0
0,54,96,0
0,69,31,0
0,69,0,4
0,75,0,0
0,54,0,62
0,67,0,8
0,64,0,0
0,62,0,6
0,57,0,2
0,55,0,10
0,57,92,4
0,57,102,0
0,66,94,0
0,50,76,0
0,57,92,0
0,87,100,0
0,54,82,0
0,38,88,0
0,62,96,0
0,69,31,0
0,69,0,4
0,87,0,0
0,38,110,4
0,59,0,2
0,61,62,86
0,69,31,0
0,69,0,4
0,61,0,0
0,57,0,42
0,69,43,6
0,62,54,0
0,62,0,4
0,69,0,0
0,54,0,0
0,50,0,10
0,63,58,82
0,69,31,0
0,69,0,4
0,63,0,0
0,54,68,92
0,57,88,0
0,50,70,0
0,69,31,0
0,69,0,4
0,69,31,92
0,69,0,2
0,69,43,92
0,69,0,4
0,57,0,10
0,57,0,34
0,50,0,4
0,54,0,0
0,69,31,44
0,69,0,4
0,38,0,0
0,45,96,10
0,57,86,82
0,69,31,0
0,54,70,0
0,50,72,0
0,69,0,4
0,52,92,12
0,45,0,8
0,69,31,12
0,69,0,2
0,69,43,16
0,69,0,4
0,57,0,40
0,54,0,2
0,50,0,8
0,38,0,34
0,69,31,8
0,69,0,4
0,66,0,88
0,67,96,4
0,38,98,0
0,69,31,0
0,69,0,4
0,50,76,92
0,69,31,0
0,62,92,0
0,54,84,0
0,69,0,4
0,75,68,92
0,54,50,0
0,69,43,0
0,69,0,2
0,54,0,0
0,75,0,0
0,62,0,44
0,54,0,28
0,50,0,2
0,38,0,8
0,87,74,10
0,75,68,0
0,69,31,0
0,69,0,4
