track,note,velocity,time
1,67,127,3072
1,67,0,16
1,66,127,8
1,66,0,16
1,62,127,8
1,62,0,16
1,64,127,8
1,64,0,23
1,67,127,1
1,67,0,16
1,66,127,8
1,66,0,32
1,62,127,16
1,62,0,32
1,64,127,16
1,64,0,48
1,67,127,120
1,67,0,16
1,67,127,8
1,67,0,16
1,69,127,8
1,69,0,16
1,67,127,8
1,67,0,32
1,66,127,16
1,66,0,32
1,62,127,16
1,62,0,32
1,64,127,16
1,64,0,48
1,67,127,120
1,67,0,16
1,66,127,8
1,66,0,16
1,62,127,8
1,62,0,16
1,64,127,8
1,64,0,23
1,67,127,1
1,67,0,16
1,66,127,8
1,66,0,32
1,62,127,16
1,62,0,32
1,64,127,16
1,64,0,48
1,57,127,96
1,57,0,16
1,62,127,8
1,62,0,32
1,62,127,16
1,62,0,32
1,62,127,16
1,62,0,16
1,59,127,8
1,59,0,48
1,62,127,24
1,62,0,32
1,64,127,16
1,64,0,16
1,64,127,8
1,64,0,88
1,67,127,1568
1,67,0,16
1,66,127,8
1,66,0,16
1,62,127,8
1,62,0,16
1,64,127,8
1,64,0,23
1,67,127,1
1,67,0,16
1,66,127,8
1,66,0,32
1,62,127,16
1,62,0,32
1,64,127,16
1,64,0,48
1,67,127,120
1,67,0,16
1,67,127,8
1,67,0,16
1,69,127,8
1,69,0,16
1,67,127,8
1,67,0,32
1,66,127,16
1,66,0,32
1,62,127,16
1,62,0,32
1,64,127,16
1,64,0,48
1,67,127,120
1,67,0,16
1,66,127,8
1,66,0,16
1,62,127,8
1,62,0,16
1,64,127,8
1,64,0,23
1,67,127,1
1,67,0,16
1,66,127,8
1,66,0,32
1,62,127,16
1,62,0,32
1,64,127,16
1,64,0,48
1,57,127,96
1,57,0,16
1,62,127,8
1,62,0,32
1,62,127,16
1,62,0,32
1,62,127,16
1,62,0,16
1,59,127,8
1,59,0,48
1,62,127,24
1,62,0,32
1,64,127,16
1,64,0,16
1,64,127,8
1,64,0,88
1,66,127,7640
1,66,0,16
1,66,127,8
1,66,0,16
1,62,127,8
1,62,0,16
1,67,127,8
1,67,0,16
1,67,127,8
1,67,0,32
1,67,127,16
1,67,0,47
1,64,127,1
1,64,0,16
1,67,127,8
1,67,0,16
1,62,127,8
1,62,0,16
1,66,127,8
1,66,0,32
1,62,127,16
1,62,0,16
1,66,127,8
1,66,0,32
1,62,127,16
1,62,0,16
1,66,127,8
1,66,0,32
1,67,127,64
1,67,0,16
1,64,127,8
1,64,0,16
1,67,127,8
1,67,0,32
1,64,127,16
1,64,0,16
1,67,127,8
1,67,0,32
1,62,127,16
1,62,0,23
1,64,127,1
1,64,0,32
1,67,127,40
1,67,0,16
1,67,127,8
1,67,0,16
1,62,127,8
1,62,0,16
1,67,127,8
1,67,0,32
1,67,127,16
1,67,0,16
1,62,127,8
1,62,0,16
1,67,127,8
1,67,0,32
1,67,127,16
1,67,0,16
1,69,127,8
1,69,0,32
1,67,127,16
1,67,0,16
1,66,127,8
1,66,0,16
1,66,127,8
1,59,127,96
1,66,0,0
1,59,0,16
1,64,127,8
1,64,0,16
1,64,127,8
1,64,0,23
1,62,127,1
1,62,0,16
1,64,127,8
1,64,0,47
1,62,127,1
1,62,0,16
1,64,127,8
1,64,0,16
1,62,127,8
1,62,0,16
1,64,127,8
1,64,0,23
1,62,127,1
1,62,0,16
1,62,127,8
1,62,0,16
1,64,127,8
1,64,0,47
1,62,127,1
1,62,0,16
1,64,127,8
1,64,0,16
1,62,127,8
1,62,0,16
1,67,127,8
1,67,0,16
1,67,127,8
1,67,0,32
1,67,127,16
1,67,0,48
1,69,127,24
1,69,0,32
1,67,127,16
1,67,0,16
1,66,127,8
1,66,0,32
1,66,127,16
1,66,0,32
1,66,127,16
1,66,0,16
1,66,127,8
1,66,0,16
1,62,127,8
1,62,0,16
1,64,127,8
1,64,0,16
1,64,127,8
1,64,0,16
1,62,127,8
1,62,0,16
1,64,127,8
1,64,0,47
1,62,127,1
1,62,0,16
1,64,127,8
1,64,0,16
1,62,127,8
1,62,0,16
1,64,127,8
1,64,0,32
1,62,127,16
1,62,0,16
1,64,127,8
1,64,0,48
1,64,127,24
1,64,0,16
1,62,127,8
1,62,0,16
1,67,127,8
1,67,0,32
1,67,127,16
1,67,0,32
1,67,127,16
1,67,0,16
1,62,127,8
1,62,0,16
1,69,127,8
1,69,0,16
1,62,127,8
1,62,0,16
1,66,127,8
1,66,0,16
1,64,127,8
1,64,0,16
1,62,127,8
1,62,0,16
1,66,127,8
1,66,0,48
1,66,127,48
1,66,0,16
1,67,127,8
1,67,0,16
1,64,127,8
1,64,0,16
1,64,127,8
1,64,0,16
1,62,127,8
1,62,0,16
1,64,127,8
1,64,0,16
1,64,127,8
1,64,0,16
1,64,127,8
1,64,0,16
1,62,127,8
1,62,0,16
1,64,127,8
1,64,0,16
1,64,127,8
1,64,0,32
1,64,127,16
1,64,0,23
1,62,127,1
1,62,0,16
1,62,127,8
1,62,0,32
1,67,127,6184
1,67,0,16
1,66,127,8
1,66,0,16
1,62,127,8
1,62,0,16
1,64,127,8
1,64,0,23
1,67,127,1
1,67,0,16
1,66,127,8
1,66,0,32
1,62,127,16
1,62,0,32
1,64,127,16
1,64,0,48
1,67,127,120
1,67,0,16
1,67,127,8
1,67,0,16
1,69,127,8
1,69,0,16
1,67,127,8
1,67,0,32
1,66,127,16
1,66,0,32
1,62,127,16
1,62,0,32
1,64,127,16
1,64,0,48
1,67,127,120
1,67,0,16
1,66,127,8
1,66,0,16
1,62,127,8
1,62,0,16
1,64,127,8
1,64,0,23
1,67,127,1
1,67,0,16
1,66,127,8
1,66,0,32
1,62,127,16
1,62,0,32
1,64,127,16
1,64,0,48
1,55,127,96
1,55,0,16
1,62,127,8
1,62,0,32
1,62,127,16
1,62,0,32
1,62,127,16
1,62,0,16
1,59,127,8
1,59,0,48
1,62,127,24
1,62,0,32
1,64,127,16
1,64,0,16
1,64,127,8
1,64,0,48
1,67,127,72
1,67,0,16
1,66,127,8
1,66,0,16
1,62,127,8
1,62,0,16
1,64,127,8
1,64,0,23
1,67,127,1
1,67,0,16
1,66,127,8
1,66,0,32
1,62,127,16
1,62,0,32
1,64,127,16
1,64,0,48
1,67,127,120
1,67,0,16
1,67,127,8
1,67,0,16
1,69,127,8
1,69,0,16
1,67,127,8
1,67,0,32
1,66,127,16
1,66,0,16
1,66,127,8
1,66,0,16
1,62,127,8
1,62,0,32
1,64,127,16
1,64,0,48
1,67,127,120
1,67,0,16
1,66,127,8
1,66,0,16
1,62,127,8
1,62,0,16
1,64,127,8
1,64,0,23
1,67,127,1
1,67,0,16
1,66,127,8
1,66,0,32
1,62,127,16
1,62,0,32
1,64,127,16
1,64,0,48
1,55,127,96
1,55,0,16
1,62,127,8
1,62,0,32
1,62,127,16
1,62,0,32
1,62,127,16
1,62,0,32
1,59,127,16
1,59,0,16
1,59,127,8
1,59,0,23
1,62,127,1
1,62,0,32
1,64,127,16
1,64,0,16
1,64,127,8
1,64,0,88
1,64,48,25568
1,64,0,23
1,62,48,1
1,62,0,23
1,59,48,1
1,59,0,11
1,57,48,1
1,57,0,11
1,57,48,1
1,57,0,23
1,57,48,1
1,57,0,47
1,59,48,1
1,59,0,15
1,57,48,1
1,57,0,15
1,55,48,1
1,55,0,15
2,83,127,8304
2,83,0,16
2,81,127,8
2,81,0,23
2,79,127,1
2,79,0,23
2,79,127,25
2,79,0,16
2,81,127,8
2,81,0,23
2,83,127,1
2,83,0,64
2,62,127,296
2,62,0,16
2,83,127,8
2,83,0,16
2,83,127,8
2,83,0,32
2,81,127,16
2,81,0,23
2,83,127,1
2,83,0,32
2,86,127,16
2,86,0,16
2,83,127,8
2,83,0,23
2,81,127,1
2,81,0,32
2,81,127,16
2,81,0,16
2,81,127,8
2,81,0,48
2,81,127,24
2,81,0,16
2,79,127,8
2,79,0,16
2,81,127,8
2,81,0,23
2,79,127,1
2,79,0,16
2,79,127,8
2,79,0,16
2,81,127,8
2,81,0,23
2,83,127,1
2,83,0,32
2,83,127,16
2,83,0,32
2,81,127,16
2,81,0,16
2,79,127,8
2,79,0,32
2,81,127,16
2,81,0,23
2,83,127,1
2,83,0,32
2,76,127,16
2,76,0,16
2,74,127,8
2,74,0,16
2,83,127,8
2,83,0,16
2,83,127,8
2,83,0,32
2,81,127,16
2,81,0,23
2,83,127,1
2,83,0,32
2,83,127,16
2,83,0,16
2,86,127,8
2,86,0,16
2,83,127,8
2,83,0,16
2,81,127,8
2,81,0,32
2,79,127,16
2,79,0,23
2,81,127,1
2,81,0,32
2,81,127,40
2,81,0,16
2,81,127,8
2,81,0,23
2,79,127,1
2,79,0,16
2,79,127,8
2,79,0,32
2,83,127,16
2,83,0,32
2,83,127,16
2,83,0,32
2,81,127,16
2,81,0,32
2,79,127,16
2,79,0,16
2,81,127,8
2,81,0,23
2,83,127,1
2,83,0,32
2,67,127,40
2,67,0,16
2,83,127,8
2,83,0,16
2,83,127,8
2,83,0,32
2,81,127,16
2,81,0,23
2,83,127,1
2,83,0,32
2,86,127,16
2,86,0,32
2,83,127,16
2,83,0,23
2,81,127,1
2,81,0,16
2,81,127,8
2,81,0,16
2,81,127,8
2,81,0,32
2,81,127,40
2,81,0,16
2,79,127,8
2,79,0,16
2,81,127,8
2,81,0,23
2,79,127,1
2,79,0,16
2,79,127,8
2,79,0,16
2,81,127,8
2,81,0,23
2,83,127,1
2,83,0,32
2,83,127,16
2,83,0,16
2,83,127,8
2,83,0,16
2,81,127,8
2,81,0,16
2,79,127,8
2,79,0,32
2,81,127,16
2,81,0,23
2,83,127,1
2,83,0,32
2,64,127,40
2,64,0,16
2,83,127,8
2,83,0,32
2,83,127,16
2,83,0,32
2,83,127,16
2,83,0,32
2,86,127,16
2,86,0,16
2,83,127,8
2,83,0,23
2,81,127,1
2,81,0,32
2,81,127,16
2,81,0,16
2,81,127,8
2,81,0,16
2,79,127,8
2,79,0,16
2,81,127,8
2,81,0,32
2,79,127,16
2,79,0,23
2,81,127,1
2,81,0,641
2,83,127,6367
2,83,0,16
2,83,127,8
2,83,0,32
2,81,127,16
2,81,0,47
2,79,127,1
2,79,0,16
2,81,127,8
2,81,0,32
2,81,127,16
2,81,0,16
2,83,127,8
2,83,0,32
2,81,127,16
2,81,0,23
2,79,127,1
2,79,0,23
2,76,127,1
2,76,0,48
2,67,127,384
2,67,0,16
2,83,127,8
2,83,0,23
2,81,127,1
2,81,0,16
2,79,127,8
2,79,0,16
2,81,127,8
2,81,0,23
2,80,127,1
2,80,0,32
2,81,127,16
2,81,0,16
2,79,127,8
2,79,0,16
2,81,127,8
2,81,0,16
2,81,127,8
2,81,0,16
2,83,127,8
2,83,0,16
2,81,127,8
2,81,0,23
2,79,127,1
2,79,0,23
2,76,127,1
2,76,0,48
2,79,127,384
2,79,0,16
2,83,127,8
2,83,0,16
2,83,127,8
2,83,0,32
2,86,127,16
2,86,0,32
2,83,127,16
2,83,0,16
2,86,127,8
2,86,0,16
2,83,127,8
2,83,0,16
2,86,127,8
2,86,0,16
2,83,127,8
2,83,0,16
2,81,127,8
2,81,0,16
2,79,127,8
2,79,0,16
2,81,127,56
2,81,0,16
2,79,127,8
2,79,0,16
2,81,127,8
2,81,0,32
2,83,127,16
2,83,0,16
2,79,127,8
2,79,0,44
2,83,127,12
2,83,0,31
2,83,127,1
2,83,0,31
2,79,127,1
2,79,0,32
2,83,127,160
2,83,0,16
2,83,127,8
2,83,0,32
2,81,127,16
2,81,0,47
2,79,127,1
2,79,0,16
2,81,127,8
2,81,0,32
2,81,127,16
2,81,0,16
2,83,127,8
2,83,0,32
2,81,127,16
2,81,0,23
2,79,127,1
2,79,0,23
2,76,127,1
2,76,0,48
2,83,127,7080
2,83,0,16
2,81,127,8
2,81,0,23
2,79,127,1
2,79,0,23
2,79,127,25
2,79,0,16
2,81,127,8
2,81,0,23
2,83,127,1
2,83,0,64
2,67,127,296
2,67,0,16
2,83,127,8
2,83,0,16
2,83,127,8
2,83,0,32
2,83,127,16
2,83,0,48
2,86,127,24
2,86,0,16
2,83,127,8
2,83,0,23
2,81,127,1
2,81,0,32
2,81,127,16
2,81,0,16
2,81,127,8
2,81,0,32
2,79,127,16
2,79,0,16
2,81,127,8
2,81,0,16
2,79,127,8
2,79,0,16
2,81,127,8
2,81,0,23
2,79,127,1
2,79,0,16
2,79,127,8
2,79,0,16
2,81,127,8
2,81,0,23
2,83,127,1
2,83,0,32
2,83,127,16
2,83,0,16
2,83,127,8
2,83,0,16
2,81,127,8
2,81,0,23
2,79,127,1
2,79,0,16
2,79,127,8
2,79,0,16
2,83,127,8
2,83,0,48
2,76,127,24
2,76,0,16
2,72,127,8
2,72,0,16
2,83,127,8
2,83,0,16
2,83,127,8
2,83,0,32
2,81,127,16
2,81,0,23
2,83,127,1
2,83,0,32
2,86,127,16
2,86,0,32
2,83,127,16
2,83,0,16
2,81,127,8
2,81,0,32
2,81,127,16
2,81,0,48
2,81,127,48
2,81,0,16
2,81,127,8
2,81,0,23
2,79,127,1
2,79,0,16
2,79,127,8
2,79,0,32
2,83,127,16
2,83,0,32
2,83,127,16
2,83,0,32
2,81,127,16
2,81,0,23
2,79,127,1
2,79,0,16
2,79,127,8
2,79,0,16
2,81,127,8
2,81,0,23
2,83,127,1
2,83,0,32
2,67,127,40
2,67,127,0
2,67,0,16
2,67,0,7
2,81,127,1
2,81,0,16
2,83,127,8
2,83,0,32
2,81,127,16
2,81,0,23
2,83,127,1
2,83,0,32
2,83,127,16
2,83,0,16
2,86,127,8
2,86,0,16
2,83,127,8
2,83,0,23
2,81,127,1
2,81,0,16
2,81,127,8
2,81,0,16
2,81,127,8
2,81,0,48
2,81,127,24
2,81,0,32
2,81,127,16
2,81,0,16
2,81,127,8
2,81,0,16
2,79,127,8
2,79,0,16
2,81,127,8
2,81,0,23
2,83,127,1
2,83,0,23
2,86,127,1
2,86,0,16
2,83,127,8
2,83,0,32
2,79,127,16
2,79,0,32
2,79,127,16
2,79,0,16
2,81,127,8
2,81,0,23
2,83,127,1
2,83,0,32
2,67,127,40
2,67,0,16
2,83,127,8
2,83,0,32
2,83,127,16
2,83,0,32
2,83,127,16
2,83,0,32
2,86,127,16
2,86,0,16
2,81,127,8
2,81,0,48
2,81,127,24
2,81,0,16
2,81,127,8
2,81,0,16
2,79,127,8
2,79,0,16
2,81,127,8
2,81,0,32
2,79,127,16
2,79,0,23
2,81,127,1
2,81,0,641
2,83,127,4447
2,83,0,16
2,83,127,8
2,83,0,32
2,81,127,16
2,81,0,47
2,79,127,1
2,79,0,16
2,81,127,8
2,81,0,32
2,81,127,16
2,81,0,16
2,83,127,8
2,83,0,32
2,81,127,16
2,81,0,23
2,79,127,1
2,79,0,23
2,76,127,1
2,76,0,48
2,67,127,384
2,67,0,16
2,83,127,8
2,83,0,23
2,81,127,1
2,81,0,16
2,79,127,8
2,79,0,16
2,81,127,8
2,81,0,23
2,80,127,1
2,80,0,32
2,81,127,16
2,81,0,16
2,79,127,8
2,79,0,16
2,81,127,8
2,81,0,16
2,81,127,8
2,81,0,16
2,83,127,8
2,83,0,16
2,81,127,8
2,81,0,23
2,79,127,1
2,79,0,23
2,76,127,1
2,76,0,48
2,79,127,384
2,79,0,16
2,83,127,8
2,83,0,16
2,83,127,8
2,83,0,32
2,86,127,16
2,86,0,32
2,83,127,16
2,83,0,16
2,86,127,8
2,86,0,16
2,83,127,8
2,83,0,16
2,86,127,8
2,86,0,16
2,83,127,8
2,83,0,16
2,81,127,8
2,81,0,16
2,79,127,8
2,79,0,16
2,81,127,56
2,81,0,16
2,79,127,8
2,79,0,16
2,81,127,8
2,81,0,32
2,83,127,16
2,83,0,16
2,79,127,8
2,79,0,45
2,83,127,3
2,83,0,21
2,83,127,11
2,83,0,21
2,79,127,19
2,79,0,32
2,83,127,160
2,83,0,16
2,83,127,8
2,83,0,32
2,81,127,16
2,81,0,47
