track,note,velocity,time
1,64,64,3072
1,64,0,16
1,67,64,8
1,67,0,32
1,71,64,16
1,71,0,32
1,66,64,16
1,66,0,16
1,67,64,8
1,67,0,32
1,66,64,16
1,66,0,16
1,64,64,8
1,64,0,48
1,67,64,120
1,67,0,16
1,67,64,8
1,67,0,16
1,64,64,8
1,64,0,16
1,67,64,8
1,67,0,32
1,64,64,16
1,64,0,16
1,67,64,8
1,67,0,32
1,64,64,16
1,64,0,64
1,64,64,104
1,64,0,16
1,76,64,8
1,76,0,23
1,74,64,1
1,74,0,47
1,76,64,1
1,76,0,39
1,69,64,1
1,69,0,15
1,69,64,1
1,69,0,15
1,71,64,1
1,71,0,47
1,69,64,1
1,69,0,23
1,67,64,1
1,67,0,47
1,69,64,1
1,69,0,47
1,67,64,1
1,67,0,23
1,69,64,1
1,69,0,47
1,69,64,1
1,69,0,15
1,69,64,1
1,69,0,15
1,69,64,1
1,69,0,15
1,67,64,1
1,67,0,23
1,71,64,1
1,71,0,47
1,64,64,1
1,64,0,23
1,67,64,1
1,67,0,47
1,64,64,97
1,64,0,95
1,64,64,1465
1,64,0,23
1,64,64,1
1,64,0,47
1,64,64,1
1,64,0,16
1,64,64,8
1,64,0,23
1,67,64,1
1,67,0,23
1,71,64,1
1,71,0,32
1,66,64,16
1,66,0,16
1,67,64,8
1,67,0,32
1,66,64,16
1,66,0,16
1,64,64,8
1,64,0,48
1,67,64,120
1,67,0,16
1,67,64,8
1,67,0,16
1,64,64,8
1,64,0,16
1,67,64,8
1,67,0,32
1,64,64,16
1,64,0,16
1,67,64,8
1,67,0,32
1,64,64,16
1,64,0,64
1,76,64,128
1,76,0,23
1,74,64,1
1,74,0,23
1,74,64,1
1,74,0,23
1,76,64,1
1,76,0,47
1,69,64,1
1,69,0,23
1,71,64,1
1,71,0,23
1,71,64,1
1,71,0,23
1,69,64,1
1,69,0,23
1,67,64,1
1,67,0,47
1,69,64,1
1,69,0,47
1,69,64,1
1,69,0,47
1,67,64,1
1,67,0,23
1,69,64,1
1,69,0,47
1,67,64,1
1,67,0,47
1,71,64,1
1,71,0,47
1,64,64,1
1,64,0,23
1,67,64,1
1,67,0,95
1,67,64,169
1,67,0,71
1,69,64,1
1,69,0,71
1,71,64,1
1,71,0,67
1,69,64,1
1,69,0,71
1,67,64,1
1,67,0,47
1,72,64,49
1,72,0,71
1,74,64,1
1,74,0,71
1,74,64,1
1,74,0,47
1,72,64,1
1,72,0,119
1,74,64,49
1,74,0,71
1,76,64,1
1,76,0,71
1,78,64,1
1,78,0,95
1,74,64,1
1,74,0,83
1,74,64,49
1,74,0,71
1,76,64,1
1,76,0,71
1,78,64,1
1,78,0,63
1,76,64,1
1,76,0,71
1,74,64,1
1,74,0,23
1,76,64,1
1,76,0,647
1,71,64,1
1,71,0,63
1,71,64,1
1,71,0,63
1,67,64,1
1,64,48,24
1,67,0,0
1,64,0,47
1,62,64,121
1,62,0,23
1,62,64,1
1,62,0,47
1,62,64,1
1,62,0,23
1,62,64,1
1,62,0,23
1,62,64,1
1,62,0,23
1,64,64,1
1,64,0,71
1,69,64,313
1,69,0,23
1,71,64,1
1,71,0,23
1,71,64,1
1,71,0,23
1,71,64,1
1,71,0,23
1,69,64,1
1,69,0,23
1,71,64,1
1,71,0,23
1,71,64,1
1,71,0,23
1,71,64,1
1,71,0,23
1,69,64,1
1,69,0,23
1,71,64,1
1,71,0,23
1,71,64,1
1,71,0,23
1,71,64,1
1,71,0,23
1,71,64,1
1,71,0,23
1,71,64,1
1,71,0,23
1,71,64,1
1,71,0,23
1,71,64,1
1,71,0,23
1,69,64,1
1,69,0,23
1,69,64,1
1,69,0,23
1,69,64,1
1,69,0,23
1,69,64,1
1,69,0,47
1,69,64,1
1,69,0,47
1,67,64,1
1,67,0,23
1,67,64,1
1,64,44,8
1,67,0,1
1,64,0,86
1,69,64,73
1,69,0,23
1,71,64,1
1,71,0,47
1,71,64,1
1,71,0,47
1,75,64,1
1,75,0,23
1,75,64,1
1,75,0,23
1,76,64,1
1,76,0,23
1,78,64,1
1,78,0,47
1,78,64,1
1,78,0,23
1,78,64,1
1,78,0,23
1,78,64,1
1,78,0,23
1,75,64,1
1,75,0,23
1,71,64,1
1,71,0,23
1,71,64,1
1,71,0,23
1,71,64,1
1,71,0,23
1,73,64,1
1,73,0,23
1,73,64,1
1,73,0,23
1,73,64,1
1,73,0,23
1,73,64,1
1,73,0,23
1,73,64,1
1,73,0,47
1,76,64,1
1,76,0,23
1,71,64,1
1,71,0,71
1,69,64,73
1,69,0,23
1,71,64,1
1,71,0,23
1,71,64,1
1,71,0,23
1,71,64,1
1,71,0,23
1,69,64,1
1,69,0,23
1,71,64,1
1,71,0,23
1,71,64,1
1,71,0,23
1,71,64,1
1,71,0,23
1,69,64,1
1,69,0,23
1,71,64,1
1,71,0,23
1,71,64,1
1,71,0,23
1,71,64,1
1,71,0,23
1,71,64,1
1,71,0,23
1,71,64,1
1,71,0,23
1,71,64,1
1,71,0,23
1,71,64,1
1,71,0,23
1,69,64,1
1,69,0,23
1,69,64,1
1,69,0,23
1,69,64,1
1,69,0,23
1,69,64,1
1,69,0,47
1,69,64,1
1,69,0,47
1,67,64,1
1,67,0,23
1,67,64,1
1,64,44,8
1,67,0,1
1,64,0,86
1,69,64,73
1,69,0,23
1,71,64,1
1,71,0,47
1,71,64,1
1,71,0,47
1,75,64,1
1,75,0,23
1,75,64,1
1,75,0,23
1,76,64,1
1,76,0,23
1,78,64,1
1,78,0,47
1,78,64,1
1,78,0,23
1,78,64,1
1,78,0,23
1,78,64,1
1,78,0,23
1,75,64,1
1,75,0,23
1,71,64,1
1,71,0,23
1,71,64,1
1,71,0,23
1,71,64,1
1,71,0,23
1,73,64,1
1,73,0,23
1,73,64,1
1,73,0,23
1,73,64,1
1,73,0,23
1,73,64,1
1,73,0,23
1,73,64,1
1,73,0,47
1,76,64,1
1,76,0,23
1,71,64,1
1,71,0,71
1,67,64,72
1,67,0,71
1,69,64,1
1,69,0,71
1,71,64,1
1,71,0,67
1,69,64,1
1,69,0,71
1,67,64,1
1,67,0,47
1,72,64,49
1,72,0,71
1,74,64,1
1,74,0,71
1,74,64,1
1,74,0,47
1,72,64,1
1,72,0,119
1,74,64,49
1,74,0,71
1,76,64,1
1,76,0,71
1,78,64,1
1,78,0,95
1,74,64,1
1,74,0,83
1,74,64,49
1,74,0,71
1,76,64,1
1,76,0,71
1,78,64,1
1,78,0,63
1,76,64,1
1,76,0,71
1,74,64,1
1,74,0,23
1,76,64,1
1,76,0,647
1,71,64,1
1,71,0,63
1,71,64,1
1,71,0,63
1,67,64,1
1,64,48,24
1,67,0,0
1,64,0,47
1,62,64,121
1,62,0,23
1,62,64,1
1,62,0,47
1,62,64,1
1,62,0,23
1,62,64,1
1,62,0,23
1,62,64,1
1,62,0,23
1,64,64,1
1,64,0,71
1,64,64,6865
1,64,0,23
1,64,64,1
1,64,0,23
1,67,64,1
1,67,0,23
1,71,64,1
1,71,0,47
1,67,64,1
1,67,0,23
1,66,64,1
1,66,0,23
1,67,64,1
1,67,0,23
1,66,64,1
1,66,0,23
1,64,64,1
1,64,0,71
1,64,64,73
1,64,0,23
1,67,64,1
1,67,0,23
1,67,64,1
1,67,0,23
1,64,64,1
1,64,0,23
1,67,64,1
1,67,0,47
1,67,64,1
1,67,0,71
1,64,64,1
1,64,0,95
1,64,64,73
1,64,0,23
1,74,64,1
1,74,0,23
1,74,64,1
1,74,0,47
1,74,64,1
1,74,0,71
1,70,64,1
1,70,0,23
1,71,64,1
1,71,0,23
1,69,64,1
1,69,0,47
1,69,64,1
1,69,0,23
1,67,64,1
1,67,0,23
1,69,64,1
1,69,0,23
1,67,64,1
1,67,0,23
1,69,64,1
1,69,0,23
1,67,64,1
1,67,0,23
1,69,64,1
1,69,0,23
1,69,64,1
1,69,0,23
1,69,64,1
1,69,0,47
1,71,64,1
1,71,0,47
1,71,64,1
1,71,0,23
1,66,64,1
1,66,0,47
1,69,64,72
1,69,0,23
1,71,64,1
1,71,0,23
1,71,64,1
1,71,0,23
1,71,64,1
1,71,0,23
1,69,64,1
1,69,0,23
1,71,64,1
1,71,0,23
1,71,64,1
1,71,0,23
1,71,64,1
1,71,0,23
1,69,64,1
1,69,0,23
1,71,64,1
1,71,0,23
1,71,64,1
1,71,0,23
1,71,64,1
1,71,0,23
1,71,64,1
1,71,0,23
1,71,64,1
1,71,0,23
1,71,64,1
1,71,0,23
1,71,64,1
1,71,0,23
1,69,64,1
1,69,0,23
1,69,64,1
1,69,0,23
1,69,64,1
1,69,0,23
1,69,64,1
1,69,0,47
1,69,64,1
1,69,0,47
1,67,64,1
1,67,0,23
1,67,64,1
1,64,44,8
1,67,0,1
1,64,0,86
1,69,64,73
1,69,0,23
1,71,64,1
1,71,0,47
1,71,64,1
1,71,0,47
1,75,64,1
1,75,0,23
1,75,64,1
1,75,0,23
1,76,64,1
1,76,0,23
1,78,64,1
1,78,0,47
1,78,64,1
1,78,0,23
1,78,64,1
1,78,0,23
1,78,64,1
1,78,0,23
1,75,64,1
1,75,0,23
1,71,64,1
1,71,0,23
1,71,64,1
1,71,0,23
1,71,64,1
1,71,0,23
1,73,64,1
1,73,0,23
1,73,64,1
1,73,0,23
1,73,64,1
1,73,0,23
1,73,64,1
1,73,0,23
1,73,64,1
1,73,0,47
1,76,64,1
1,76,0,23
1,71,64,1
1,71,0,71
1,69,64,73
1,69,0,23
1,71,64,1
1,71,0,23
1,71,64,1
1,71,0,23
1,71,64,1
1,71,0,23
1,69,64,1
1,69,0,23
1,71,64,1
1,71,0,23
1,71,64,1
1,71,0,23
1,71,64,1
1,71,0,23
1,69,64,1
1,69,0,23
1,71,64,1
1,71,0,23
1,71,64,1
1,71,0,23
1,71,64,1
1,71,0,23
1,71,64,1
1,71,0,23
1,71,64,1
1,71,0,23
1,71,64,1
1,71,0,23
1,71,64,1
1,71,0,23
1,69,64,1
1,69,0,23
1,69,64,1
1,69,0,23
1,69,64,1
1,69,0,23
1,69,64,1
1,69,0,47
1,69,64,1
1,69,0,47
1,67,64,1
1,67,0,23
1,67,64,1
1,64,44,8
1,67,0,1
1,64,0,86
1,69,64,73
1,69,0,23
1,71,64,1
1,71,0,47
1,71,64,1
1,71,0,47
1,75,64,1
1,75,0,23
1,75,64,1
1,75,0,23
1,76,64,1
1,76,0,23
1,78,64,1
1,78,0,47
1,78,64,1
1,78,0,23
1,78,64,1
1,78,0,23
1,78,64,1
1,78,0,23
1,75,64,1
1,75,0,23
1,71,64,1
1,71,0,23
1,71,64,1
1,71,0,23
1,71,64,1
1,71,0,23
1,73,64,1
1,73,0,23
1,73,64,1
1,73,0,23
1,73,64,1
1,73,0,23
1,73,64,1
1,73,0,23
1,73,64,1
1,73,0,47
1,76,64,1
1,76,0,23
1,71,64,1
1,71,0,71
1,67,64,72
1,67,0,71
1,69,64,1
1,69,0,71
1,71,64,1
1,71,0,67
1,69,64,1
1,69,0,71
1,67,64,1
1,67,0,47
1,72,64,49
1,72,0,71
1,74,64,1
1,74,0,71
1,74,64,1
1,74,0,47
1,72,64,1
1,72,0,119
1,74,64,49
1,74,0,71
1,76,64,1
1,76,0,71
1,78,64,1
1,78,0,95
1,74,64,1
1,74,0,83
1,74,64,49
1,74,0,71
1,76,64,1
1,76,0,71
1,78,64,1
1,78,0,63
1,76,64,1
1,76,0,71
1,74,64,1
1,74,0,23
1,76,64,1
1,76,0,647
1,71,64,1
1,71,0,63
1,71,64,1
1,71,0,63
1,67,64,1
1,64,48,24
1,67,0,0
1,64,0,47
1,62,64,121
1,62,0,23
1,62,64,1
1,62,0,47
1,62,64,1
1,62,0,23
1,62,64,1
1,62,0,23
1,62,64,1
1,62,0,23
1,64,64,1
1,64,0,71
1,74,64,1873
1,74,0,23
1,76,64,1
1,76,0,23
1,76,64,1
1,76,0,23
1,76,64,1
1,76,0,23
1,79,64,1
1,79,0,23
1,76,64,1
1,76,0,23
1,76,64,1
1,76,0,23
1,76,64,1
1,76,0,23
1,74,64,1
1,74,0,23
1,76,64,1
1,76,0,23
1,76,64,1
1,76,0,23
1,76,64,1
1,76,0,23
1,79,64,1
1,79,0,23
1,76,64,1
1,76,0,23
1,76,64,1
1,76,0,23
1,76,64,1
1,76,0,23
1,76,64,25
1,76,0,23
1,83,64,1
1,83,0,23
1,81,64,1
1,81,0,23
1,83,64,1
1,83,0,23
1,83,64,1
1,83,0,23
1,81,64,1
1,81,0,23
1,83,64,1
1,83,0,119
1,79,64,73
1,79,0,23
1,81,64,1
1,81,0,23
1,81,64,1
1,81,0,23
1,81,64,1
1,81,0,47
1,81,64,1
1,81,0,23
1,81,64,1
1,81,0,23
1,81,64,1
1,81,0,23
1,79,64,1
1,79,0,23
1,83,64,1
1,83,0,23
1,83,64,1
1,83,0,23
1,81,64,1
1,81,0,23
1,79,64,1
1,79,0,23
1,81,64,1
1,81,0,23
1,79,64,1
1,79,0,23
1,81,64,1
1,81,0,23
1,79,64,1
1,79,0,23
1,83,64,25
1,83,0,23
1,81,64,1
1,81,0,23
1,79,64,1
1,79,0,23
1,81,64,1
1,81,0,47
1,74,64,97
1,74,0,47
1,76,64,1
1,76,0,191
1,76,16,1
1,76,0,7
1,64,16,41
1,64,0,7
2,40,64,0
2,28,64,0
2,40,0,16
2,43,64,8
2,43,0,16
2,44,64,8
2,44,0,16
2,47,64,8
2,47,0,16
2,45,64,8
2,45,0,16
2,40,64,8
2,40,0,16
2,43,64,8
2,43,0,16
2,44,64,8
2,44,0,16
2,47,64,8
2,40,64,0
2,40,0,16
2,47,0,0
2,47,64,8
2,40,64,0
2,40,0,16
2,47,0,0
2,43,64,8
2,43,0,16
2,28,0,1
2,44,64,7
2,44,0,16
2,45,64,8
2,52,64,0
2,52,0,64
2,45,0,0
2,62,64,32
2,38,64,0
2,62,0,16
2,61,64,8
2,61,0,16
2,59,64,8
2,59,0,16
2,57,64,8
2,57,0,16
2,55,64,8
2,55,0,32
2,52,64,16
2,52,0,16
2,50,64,8
2,50,0,16
2,47,64,8
2,47,0,16
2,45,64,8
2,45,0,16
2,43,64,8
2,43,0,16
2,44,64,8
2,44,0,16
2,38,0,7
2,52,64,1
2,47,64,0
2,40,64,0
2,40,0,64
2,47,0,0
2,52,0,0
2,40,64,32
2,28,64,0
2,40,0,16
2,43,64,8
2,43,0,16
2,44,64,8
2,44,0,16
2,47,64,8
2,47,0,16
2,45,64,8
2,45,0,16
2,40,64,8
2,40,0,16
2,43,64,8
2,43,0,16
2,44,64,8
2,44,0,16
2,47,64,8
2,40,64,0
2,40,0,16
2,47,0,0
2,47,64,8
2,40,64,0
2,40,0,16
2,47,0,0
2,43,64,8
2,43,0,16
2,28,0,1
2,44,64,7
2,44,0,16
2,45,64,8
2,52,64,0
2,52,0,64
2,45,0,0
2,62,64,32
2,57,64,0
2,50,64,0
2,38,64,0
2,38,0,48
2,62,0,0
2,57,0,0
2,50,0,0
2,57,64,24
2,52,64,0
2,45,64,0
2,33,64,0
2,33,0,48
2,57,0,0
2,52,0,0
2,45,0,0
2,59,64,24
2,54,64,0
2,47,64,0
2,35,64,0
2,35,0,64
2,59,0,0
2,54,0,0
2,47,0,0
2,55,64,32
2,43,64,0
2,31,64,0
2,31,0,96
2,43,0,0
2,55,0,0
2,40,64,48
2,28,64,0
2,28,0,16
2,40,0,0
2,43,64,8
2,31,64,0
2,31,0,16
2,43,0,0
2,44,64,8
2,32,64,0
2,32,0,16
2,44,0,0
2,47,64,8
2,35,64,0
2,35,0,16
2,47,0,0
2,45,64,8
2,33,64,0
2,33,0,16
2,45,0,0
2,40,64,8
2,28,64,0
2,28,0,16
2,40,0,0
2,43,64,8
2,31,64,0
2,31,0,16
2,43,0,0
2,44,64,8
2,32,64,0
2,32,0,16
2,44,0,0
2,40,64,8
2,28,64,0
2,28,0,32
2,40,0,0
2,43,64,16
2,31,64,0
