track,note,velocity,time
0,40,108,475
0,40,120,2
0,40,114,33
0,40,122,2
0,36,110,80
0,42,118,1
0,28,112,1
0,52,96,0
0,47,114,0
0,40,104,0
0,76,104,0
0,40,106,1
0,59,84,0
0,47,104,0
0,52,18,0
0,36,110,1
0,44,96,0
0,40,106,1
0,47,96,0
0,28,104,0
0,83,100,0
0,52,74,1
0,28,114,1
0,42,98,0
0,40,96,1
0,47,98,0
0,52,86,0
0,40,116,0
0,88,98,0
0,40,94,0
0,83,102,0
0,44,86,0
0,40,108,1
0,47,96,0
0,52,74,0
0,28,122,0
0,52,104,0
0,47,104,0
0,59,98,0
0,36,104,0
0,42,112,41
0,76,92,0
0,44,90,7
0,83,94,0
0,36,110,1
0,40,104,2
0,88,106,0
0,47,92,1
0,52,78,0
0,40,120,0
0,42,102,0
0,83,92,10
0,44,88,1
0,40,72,1
0,76,92,13
0,47,120,1
0,59,102,0
0,35,122,0
0,36,104,0
0,42,106,0
0,54,104,1
0,47,108,0
0,59,100,0
0,54,82,1
0,42,34,0
0,36,108,3
0,44,96,0
0,83,100,0
0,47,112,3
0,59,74,0
0,40,116,0
0,42,104,0
0,88,98,0
0,54,92,1
0,83,102,12
0,41,30,0
0,44,88,0
0,45,108,1
0,52,100,0
0,57,94,0
0,36,104,0
0,33,120,1
0,52,104,0
0,57,104,0
0,45,104,1
0,42,102,41
0,76,92,0
0,44,84,7
0,83,94,0
0,40,110,0
0,33,118,2
0,88,106,0
0,52,92,1
0,36,110,0
0,47,118,0
0,47,96,18
0,83,92,0
0,35,108,1
0,45,114,0
0,45,112,1
0,76,92,1
0,47,94,1
0,40,100,0
0,52,70,0
0,52,90,0
0,40,114,0
0,47,106,0
0,36,102,0
0,42,108,0
0,28,104,1
0,59,28,0
0,44,82,2
0,28,86,0
0,36,104,0
0,83,100,0
0,40,102,1
0,47,94,3
0,40,100,0
0,28,100,0
0,42,106,0
0,40,118,0
0,88,98,0
0,83,102,2
0,47,102,1
0,40,112,0
0,52,78,1
0,28,120,0
0,36,102,0
0,44,76,0
0,52,102,1
0,40,100,0
0,47,110,0
0,76,92,41
0,42,94,1
0,36,110,7
0,44,70,0
0,83,94,0
0,40,116,1
0,42,100,0
0,88,106,0
0,52,94,1
0,47,88,0
0,83,92,0
0,44,80,1
0,47,110,15
0,35,122,0
0,36,98,0
0,76,92,0
0,54,102,1
0,59,104,0
0,59,98,0
0,47,110,0
0,54,94,0
0,42,104,0
0,44,78,1
0,36,106,1
0,83,100,1
0,40,118,1
0,42,102,0
0,47,108,1
0,59,94,0
0,88,98,0
0,54,88,1
0,44,84,9
0,83,102,0
0,36,94,1
0,45,104,1
0,52,96,0
0,57,86,0
0,33,122,0
0,45,80,0
0,52,108,1
0,57,104,0
0,40,116,42
0,42,106,0
0,76,92,0
0,36,110,0
0,40,106,0
0,83,94,0
0,40,116,19
0,45,100,3
0,52,104,0
0,33,118,0
0,88,106,0
0,57,78,1
0,42,100,0
0,40,118,18
0,83,92,0
0,35,106,1
0,40,118,0
0,44,86,0
0,68,120,1
0,71,90,0
0,76,92,1
0,47,92,1
0,52,90,0
0,40,74,0
0,28,106,0
0,68,120,0
0,52,92,0
0,47,106,0
0,40,112,0
0,42,110,0
0,36,112,0
0,59,12,1
0,28,90,1
0,36,110,0
0,44,88,0
0,47,60,1
0,83,100,0
0,40,82,1
0,52,66,1
0,47,106,0
0,40,108,0
0,28,106,0
0,68,122,0
0,40,116,0
0,42,100,0
0,88,98,0
0,83,102,0
0,47,96,0
0,28,118,0
0,68,120,0
0,36,104,0
0,44,90,0
0,40,100,1
0,47,104,0
0,40,112,0
0,52,98,0
0,59,72,0
0,76,92,41
0,42,100,1
0,44,88,7
0,83,94,0
0,68,106,1
0,36,110,0
0,68,118,2
0,88,106,0
0,47,88,1
0,40,100,0
0,52,82,0
0,40,120,0
0,42,110,0
0,83,92,0
0,68,106,1
0,44,78,1
0,69,104,9
0,76,92,0
0,47,112,1
0,35,122,0
0,36,104,0
0,42,108,0
0,47,116,1
0,54,96,0
0,59,102,0
0,54,86,1
0,59,14,0
0,68,112,2
0,36,108,0
0,44,88,0
0,83,100,0
0,66,106,2
0,47,112,1
0,59,86,0
0,40,116,0
0,88,98,0
0,42,110,1
0,83,102,11
0,33,120,0
0,64,94,0
0,45,108,1
0,52,102,0
0,36,104,0
0,44,86,0
0,57,92,1
0,45,102,0
0,52,110,0
0,57,108,0
0,76,92,41
0,42,104,1
0,36,110,1
0,83,94,0
0,44,86,1
0,40,120,2
0,88,106,0
0,52,90,1
0,45,98,0
0,57,74,0
0,33,120,0
0,42,100,0
0,83,92,10
0,68,110,0
0,44,100,0
0,35,104,1
0,71,104,0
0,76,92,0
0,47,98,1
0,68,120,0
0,52,88,0
0,40,108,0
0,47,90,0
0,36,112,0
0,42,114,0
0,52,70,1
0,40,96,0
0,28,90,0
0,59,12,0
0,36,110,2
0,44,88,0
0,40,98,0
0,28,84,0
0,83,100,0
0,47,96,1
0,40,104,3
0,28,104,0
0,68,110,0
0,40,116,0
0,42,108,0
0,88,98,0
0,83,102,1
0,40,98,1
0,28,118,0
0,68,116,0
0,36,104,0
0,44,86,0
0,47,100,1
0,52,96,0
0,40,104,0
0,76,92,41
0,42,108,1
0,83,94,7
0,68,108,1
0,44,88,0
0,36,110,0
0,68,112,1
0,88,106,0
0,47,88,1
0,40,98,0
0,40,120,0
0,42,106,0
0,52,80,1
0,83,92,3
0,68,104,1
0,44,102,0
0,35,122,13
0,76,92,0
0,69,104,1
0,36,104,0
0,42,110,0
0,59,94,1
0,47,104,0
0,47,120,0
0,59,104,0
0,54,84,1
0,68,112,2
0,36,108,1
0,44,86,0
0,83,100,0
0,47,112,2
0,66,96,0
0,59,90,1
0,40,116,0
0,42,106,0
0,88,98,0
0,54,82,1
0,83,102,0
0,64,74,1
0,44,96,0
0,45,102,1
0,33,116,0
0,36,104,0
0,57,92,1
0,52,90,0
0,45,106,0
0,52,104,0
0,57,104,0
0,42,112,41
0,76,92,0
0,36,110,0
0,44,88,0
0,83,94,0
0,45,106,7
0,52,102,0
0,57,94,0
0,33,122,0
0,40,120,0
0,88,106,0
0,42,96,1
0,83,92,0
0,35,114,1
0,68,106,0
0,71,104,1
0,44,94,0
0,76,92,1
0,47,92,1
0,40,104,0
0,28,98,0
0,68,112,0
0,40,106,0
0,47,98,0
0,52,102,0
0,36,112,0
0,42,106,0
0,52,92,1
0,59,58,0
0,36,110,0
0,44,88,0
0,47,102,1
0,52,76,0
0,28,76,0
0,83,100,0
0,68,104,0
0,47,100,1
0,52,72,0
0,40,102,0
0,28,102,0
0,40,116,0
0,42,110,0
0,88,98,0
0,83,102,0
0,40,102,1
0,52,80,0
0,47,92,0
0,28,114,0
0,68,114,0
0,36,104,0
0,44,94,0
0,47,112,1
0,40,106,0
0,52,102,0
0,59,96,0
0,76,92,41
0,42,104,1
0,83,94,7
0,68,104,1
0,36,110,0
0,44,88,0
0,88,106,1
0,47,102,1
0,52,76,0
0,68,110,0
0,40,120,0
0,40,94,1
0,42,114,0
0,83,92,1
0,44,80,1
0,68,100,2
0,76,92,7
0,47,106,1
0,54,102,0
0,59,90,0
0,35,118,0
0,69,102,0
0,36,104,0
0,42,112,0
0,54,106,1
0,47,116,0
0,44,88,2
0,68,112,1
0,36,108,0
0,83,100,0
0,66,86,1
0,47,116,2
0,59,90,0
0,40,116,0
0,42,114,0
0,88,98,0
0,54,88,1
0,64,88,7
0,83,102,0
0,44,88,0
0,52,100,1
0,45,100,0
0,57,100,0
0,33,118,0
0,36,104,0
0,45,114,1
0,52,106,0
0,57,100,1
0,42,112,41
0,76,92,0
0,36,110,0
0,44,98,0
0,83,94,0
0,66,114,2
0,52,92,1
0,45,102,0
0,33,122,0
0,40,120,0
0,42,110,0
0,88,106,0
0,83,92,0
0,64,88,1
0,44,98,0
0,35,106,1
0,68,120,2
0,76,92,0
0,52,96,1
0,28,94,0
0,40,102,0
0,47,106,0
0,36,100,0
0,42,110,0
0,40,86,1
0,47,104,2
0,40,96,1
0,47,86,0
0,28,86,0
0,44,88,0
0,36,104,0
0,83,100,0
0,47,84,1
0,40,100,0
0,40,102,1
0,47,98,0
0,28,110,0
0,40,114,0
0,42,116,0
0,88,98,0
0,40,104,1
0,47,100,0
0,52,14,0
0,83,102,0
0,28,84,1
0,40,98,1
0,47,88,0
0,44,92,0
0,40,100,1
0,47,88,0
0,76,92,1
0,40,76,1
0,52,44,0
0,28,98,0
0,36,96,0
0,42,112,0
0,47,98,1
0,40,106,0
0,47,94,0
0,28,90,2
0,83,94,0
0,40,86,1
0,47,88,0
0,40,104,0
0,36,96,0
0,44,90,0
0,47,100,1
0,47,90,1
0,40,114,0
0,88,106,0
0,52,74,1
0,28,114,0
0,40,102,0
0,42,112,0
0,40,78,1
0,47,102,0
0,83,92,1
0,40,94,1
0,47,96,0
0,28,86,0
0,40,104,0
0,47,110,0
0,44,88,0
0,76,92,1
0,47,110,1
0,52,88,0
0,40,76,0
0,28,112,0
0,40,106,0
0,47,104,0
0,36,104,0
0,42,112,0
0,40,96,2
0,47,102,0
0,36,108,0
0,40,104,1
0,47,96,0
0,44,92,0
0,83,100,0
0,28,88,1
0,40,102,1
0,47,94,0
0,40,110,0
0,52,54,1
0,28,114,0
0,47,110,0
0,40,106,0
0,42,112,0
0,88,98,0
0,83,102,0
0,47,98,2
0,40,98,0
0,28,92,0
0,40,106,0
0,47,108,0
0,44,94,0
0,76,92,0
0,47,100,1
0,28,116,0
0,47,110,0
0,40,108,0
0,36,104,0
0,42,114,0
0,47,106,2
0,40,106,0
0,64,102,0
0,36,104,0
0,83,94,0
0,40,110,1
0,47,106,0
0,44,92,0
0,28,104,1
0,66,112,0
0,40,114,0
0,88,106,0
0,40,108,1
0,47,98,0
0,28,110,0
0,40,102,0
0,47,100,0
0,42,114,0
0,68,108,0
0,83,92,0
0,40,98,1
0,47,84,0
0,40,104,0
0,28,114,1
0,47,102,0
0,44,94,0
0,76,92,0
0,30,112,1
0,18,82,0
0,90,122,0
0,85,98,0
0,42,78,0
0,49,46,0
0,51,94,0
0,81,112,0
0,69,108,3
0,42,70,2
0,49,48,0
0,30,106,18
0,18,76,0
0,51,94,24
0,30,108,0
0,18,78,0
0,30,120,8
0,18,90,0
0,51,78,0
0,37,90,1
0,25,60,0
0,80,118,0
0,68,120,0
0,85,110,1
0,76,104,0
0,37,78,26
0,25,48,0
0,51,90,23
0,37,110,2
0,25,80,0
0,37,108,24
0,25,78,0
0,38,106,1
0,26,76,0
0,86,102,0
0,66,118,0
0,51,88,0
0,81,102,1
0,78,112,0
0,38,86,26
0,26,56,0
0,38,94,24
0,26,64,0
0,51,82,0
0,38,104,26
0,26,74,0
0,76,104,0
0,85,112,0
0,81,86,0
0,51,92,0
0,33,108,1
0,21,78,0
0,61,116,0
0,33,90,25
0,21,60,0
0,51,88,24
0,33,98,1
0,21,68,0
0,63,112,0
0,33,96,13
0,21,66,0
0,51,88,0
0,37,110,1
0,25,80,0
0,85,104,0
0,80,112,1
0,76,104,0
0,64,100,0
0,37,72,25
0,25,42,0
0,63,90,1
0,61,76,24
0,51,92,0
0,37,106,1
0,25,76,0
0,37,108,25
0,25,78,0
0,64,104,1
0,32,102,0
0,20,72,0
0,51,98,0
0,84,96,1
0,80,102,1
0,75,96,0
0,32,104,25
0,20,74,0
0,40,108,1
0,32,112,25
0,20,82,0
0,51,108,1
0,40,114,1
0,49,114,19
0,88,108,1
0,28,118,1
0,16,88,0
0,83,112,0
0,80,116,0
0,47,122,0
0,40,120,0
0,52,106,0
0,36,114,0
0,41,104,0
0,40,106,1
0,47,102,0
0,52,86,1
0,36,112,40
0,49,122,0
0,35,122,1
0,23,92,0
0,83,114,0
0,78,118,0
0,75,122,0
0,41,100,0
0,54,110,1
0,47,116,0
0,59,106,0
0,54,108,0
0,47,108,0
0,51,102,42
0,40,116,89
0,51,102,0
0,64,106,41
0,45,82,1
0,45,116,17
0,66,110,18
0,45,120,0
0,51,92,0
0,68,110,41
0,45,118,1
0,69,108,1
0,85,102,0
0,81,104,0
0,90,112,0
0,51,90,0
0,30,114,1
0,18,84,0
0,30,96,25
0,18,66,0
0,51,86,24
0,30,104,1
0,18,74,0
0,30,100,22
0,18,70,0
0,51,86,46
0,80,112,0
0,76,92,0
0,68,122,0
0,37,110,1
0,25,80,0
0,37,90,25
0,25,60,0
0,51,88,23
0,37,108,2
0,25,78,0
0,37,104,24
0,25,74,0
0,51,92,0
0,38,106,1
0,26,76,0
0,86,94,0
0,81,98,1
0,78,114,0
0,66,122,0
0,38,94,26
0,26,64,0
0,51,88,23
0,38,94,3
0,26,64,0
0,38,106,24
0,26,76,0
0,51,82,18
0,61,104,0
0,33,108,1
0,21,78,0
0,76,98,0
0,85,116,0
0,81,100,0
0,33,82,25
0,21,52,0
0,51,94,23
0,63,114,1
0,33,90,1
0,21,60,0
0,33,98,21
0,21,68,0
0,51,86,0
0,37,114,1
0,25,84,0
0,64,104,0
0,85,108,1
0,80,114,0
0,76,96,1
0,63,102,25
0,37,100,1
0,25,70,0
0,51,86,23
0,37,106,1
0,25,76,0
0,61,76,0
0,37,108,24
0,25,78,0
0,64,108,1
0,40,114,1
0,32,110,1
0,20,80,0
0,84,100,1
0,80,104,0
0,51,90,0
0,75,106,1
0,47,108,0
0,32,110,26
0,20,80,0
0,45,112,0
0,32,110,24
0,20,80,0
0,51,112,0
0,43,116,1
0,28,118,1
0,16,88,0
0,80,116,0
0,47,106,0
0,49,116,0
0,47,108,1
0,52,96,0
0,40,114,0
0,88,116,0
0,83,98,0
0,64,104,0
0,40,112,0
0,52,98,0
0,36,118,0
0,41,96,0
0,49,120,28
0,47,106,1
0,54,104,0
0,59,110,0
0,35,122,0
0,23,94,0
0,75,118,0
0,83,108,0
0,78,116,0
0,36,114,0
0,41,98,0
0,59,108,1
0,47,104,0
0,54,106,0
0,59,106,0
0,40,108,42
0,51,98,0
0,47,98,42
0,45,108,42
0,51,98,0
0,43,108,22
0,41,112,1
0,51,110,0
0,36,116,3
0,49,118,0
0,47,102,1
0,40,110,0
0,52,92,0
0,57,14,0
0,28,118,0
0,16,88,0
0,88,118,0
0,83,112,0
0,80,118,0
0,40,106,0
0,52,82,0
0,47,100,0
0,41,102,0
0,68,122,1
0,49,120,39
0,41,98,1
0,35,122,1
0,23,94,0
0,83,112,0
0,78,118,0
0,75,120,0
0,54,102,0
0,47,104,0
0,36,112,0
0,47,114,1
0,54,104,0
0,59,106,0
0,66,122,0
0,59,100,0
0,51,108,40
0,40,118,2
0,83,100,0
0,85,100,2
0,47,118,2
0,83,92,1
0,82,106,18
0,40,112,4
0,51,106,0
0,83,94,1
0,36,86,2
0,85,104,1
0,40,112,3
0,83,92,1
0,40,106,18
0,82,102,0
0,64,110,2
0,40,118,1
0,83,92,0
0,85,108,7
0,40,112,1
0,64,86,1
0,45,120,0
0,83,100,0
0,45,116,4
0,82,110,0
0,47,106,1
0,52,94,0
0,59,96,0
0,40,116,0
0,28,118,0
0,64,82,0
0,47,110,0
0,52,106,0
0,59,102,0
0,36,112,0
0,88,112,1
0,42,116,2
0,64,78,3
0,47,82,1
0,36,108,0
0,44,78,0
0,76,92,0
0,28,90,1
0,28,94,2
0,64,92,0
0,47,72,0
0,52,62,0
0,40,120,0
0,42,112,0
0,76,86,0
0,47,92,1
0,64,96,2
0,44,86,0
0,88,112,0
0,52,106,1
0,47,114,0
0,59,104,0
0,28,88,0
0,47,108,0
0,52,102,0
0,36,106,0
0,59,102,1
0,76,92,0
0,28,92,0
0,42,116,0
0,47,94,1
0,52,54,0
0,47,68,0
0,52,76,0
0,76,86,0
0,28,98,1
0,44,94,0
0,47,98,1
0,52,68,0
0,47,58,0
0,36,112,0
0,47,108,1
0,28,106,0
0,76,92,0
0,52,110,1
0,59,102,0
0,52,100,0
0,59,104,0
0,40,120,0
