track,note,velocity,time
1,58,127,1
1,58,0,120
1,58,127,119
1,58,0,120
1,58,100,120
1,58,0,2400
1,58,127,0
1,58,0,155
1,58,127,85
1,58,0,162
1,58,127,78
1,58,0,155
1,58,127,85
1,58,0,162
1,58,100,78
1,56,127,2880
1,56,0,120
1,58,0,113
1,58,127,7
1,58,0,162
1,58,127,78
1,56,127,240
1,56,0,120
1,56,127,120
1,56,0,120
1,58,0,120
1,58,127,0
1,53,127,240
1,53,0,120
1,53,127,120
1,53,0,120
1,58,0,120
1,58,127,0
1,51,127,240
1,51,0,120
1,51,127,120
1,51,0,120
1,58,0,120
1,58,127,0
1,49,127,240
1,49,0,120
1,46,127,360
1,46,0,120
1,56,127,360
1,56,0,120
1,58,0,120
1,58,127,0
1,58,0,240
1,58,127,0
1,56,127,240
1,56,0,120
1,56,127,120
1,56,0,120
1,58,0,120
1,58,127,0
1,53,127,240
1,53,0,120
1,53,127,120
1,53,0,120
1,58,0,120
1,58,127,0
1,51,127,240
1,51,0,120
1,51,127,120
1,51,0,120
1,58,0,120
1,58,127,0
1,49,127,240
1,49,0,120
1,46,127,360
1,46,0,120
1,56,127,360
1,56,0,120
1,58,0,120
1,58,127,0
1,58,0,240
1,58,127,0
1,56,127,240
1,56,0,120
1,56,127,120
1,56,0,120
1,58,0,120
1,58,127,0
1,53,127,240
1,53,0,120
1,53,127,120
1,53,0,120
1,58,0,120
1,58,127,0
1,51,127,240
1,51,0,120
1,51,127,120
1,51,0,120
1,58,0,120
1,58,127,0
1,49,127,240
1,49,0,120
1,46,127,360
1,46,0,120
1,56,127,360
1,56,0,120
1,58,0,120
1,58,127,0
1,58,0,240
1,58,127,0
1,56,127,240
1,56,0,120
1,56,127,120
1,56,0,120
1,58,0,120
1,58,127,0
1,53,127,240
1,53,0,120
1,53,127,120
1,53,0,120
1,58,0,120
1,58,127,0
1,51,127,240
1,51,0,120
1,51,127,120
1,51,0,120
1,58,0,120
1,58,127,0
1,49,127,240
1,49,0,120
1,46,127,360
1,46,0,120
1,56,127,360
1,56,0,120
1,58,0,120
1,58,127,0
1,58,0,240
1,58,127,0
1,56,127,240
1,56,0,120
1,56,127,120
1,56,0,120
1,58,0,120
1,58,127,0
1,53,127,240
1,53,0,120
1,53,127,120
1,53,0,120
1,58,0,120
1,58,127,0
1,51,127,240
1,51,0,120
1,51,127,120
1,51,0,120
1,58,0,120
1,58,127,0
1,49,127,240
1,49,0,120
1,46,127,360
1,46,0,120
1,56,127,360
1,56,0,120
1,58,0,106
1,58,127,14
1,58,0,240
1,58,127,0
1,56,127,240
1,56,0,120
1,56,127,120
1,56,0,120
1,58,0,120
1,58,127,0
1,53,127,240
1,53,0,120
1,53,127,120
1,53,0,120
1,58,0,120
1,58,127,0
1,51,127,240
1,51,0,120
1,51,127,120
1,51,0,120
1,58,0,120
1,58,127,0
1,49,127,240
1,49,0,120
1,46,127,360
1,46,0,120
1,56,127,360
1,56,0,120
1,58,0,120
1,58,127,0
1,58,0,240
1,58,127,0
1,56,127,240
1,56,0,120
1,56,127,120
1,56,0,120
1,58,0,120
1,58,127,0
1,53,127,240
1,53,0,120
1,53,127,120
1,53,0,120
1,58,0,120
1,58,127,0
1,51,127,240
1,51,0,120
1,51,127,120
1,51,0,120
1,58,0,120
1,58,127,0
1,49,127,240
1,49,0,120
1,46,127,360
1,46,0,120
1,56,127,360
1,56,0,120
1,58,0,120
1,58,127,0
1,58,0,240
1,58,127,0
1,56,127,240
1,56,0,120
1,56,127,120
1,56,0,120
1,58,0,120
1,58,127,0
1,53,127,240
1,53,0,120
1,53,127,120
1,53,0,120
1,58,0,120
1,58,127,0
1,51,127,240
1,51,0,120
1,51,127,120
1,51,0,120
1,58,0,120
1,58,127,0
1,49,127,240
1,49,0,120
1,46,127,360
1,46,0,120
1,56,127,360
1,56,0,120
1,58,127,120
1,58,0,13
1,58,0,227
1,58,127,0
1,56,127,240
1,56,0,120
1,56,127,120
1,56,0,120
1,58,0,120
1,58,127,0
1,53,127,240
1,53,0,120
1,53,127,120
1,53,0,120
1,58,0,120
1,58,127,0
1,51,127,240
1,51,0,120
1,51,127,120
1,51,0,120
1,58,0,120
1,58,127,0
1,49,127,240
1,49,0,120
1,46,127,360
1,46,0,120
1,58,0,367
2,58,87,696
2,58,0,240
2,58,87,0
2,58,0,240
2,58,87,0
2,58,0,2880
2,58,97,0
2,58,0,240
2,58,97,0
2,58,0,240
2,58,87,0
2,56,127,2407
2,58,0,6
2,56,0,234
2,58,115,0
2,58,0,240
2,58,115,0
2,56,127,240
2,56,0,240
2,56,127,0
2,58,0,240
2,58,115,0
2,56,0,240
2,53,127,0
2,53,0,240
2,53,127,0
2,58,0,240
2,58,115,0
2,53,0,240
2,51,127,0
2,51,0,240
2,51,127,0
2,58,0,240
2,58,115,0
2,51,0,240
2,49,127,0
2,49,0,480
2,46,127,0
2,56,127,480
2,58,0,7
2,56,0,233
2,58,115,0
2,46,0,117
2,58,0,123
2,58,115,0
2,56,127,240
2,56,0,240
2,56,127,0
2,58,0,240
2,58,115,0
2,56,0,240
2,53,127,0
2,53,0,240
2,53,127,0
2,58,0,240
2,58,115,0
2,53,0,240
2,51,127,0
2,51,0,240
2,51,127,0
2,58,0,240
2,58,115,0
2,51,0,240
2,49,127,0
2,49,0,480
2,46,127,0
2,56,127,480
2,58,0,7
2,56,0,233
2,58,115,0
2,46,0,103
2,58,0,137
2,58,115,0
2,56,127,240
2,56,0,240
2,56,127,0
2,58,0,240
2,58,115,0
2,56,0,240
2,53,127,0
2,53,0,240
2,53,127,0
2,58,0,240
2,58,115,0
2,53,0,240
2,51,127,0
2,51,0,240
2,51,127,0
2,58,0,240
2,58,115,0
2,51,0,240
2,49,127,0
2,49,0,480
2,46,127,0
2,56,127,480
2,58,0,7
2,56,0,233
2,58,115,0
2,46,0,103
2,58,0,137
2,58,115,0
2,56,127,240
2,56,0,240
2,56,127,0
2,58,0,240
2,58,115,0
2,56,0,240
2,53,127,0
2,53,0,240
2,53,127,0
2,58,0,240
2,58,115,0
2,53,0,240
2,51,127,0
2,51,0,240
2,51,127,0
2,58,0,240
2,58,115,0
2,51,0,240
2,49,127,0
2,49,0,480
2,46,127,0
2,56,127,480
2,58,0,7
2,56,0,233
2,58,115,0
2,46,0,103
2,58,0,137
2,58,115,0
2,56,127,240
2,56,0,240
2,56,127,0
2,58,0,240
2,58,115,0
2,56,0,240
2,53,127,0
2,53,0,240
2,53,127,0
2,58,0,240
2,58,115,0
2,53,0,240
2,51,127,0
2,51,0,240
2,51,127,0
2,58,0,240
2,58,115,0
2,51,0,240
2,49,127,0
2,49,0,480
2,46,127,0
2,56,127,480
2,58,0,7
2,56,0,233
2,58,115,0
2,46,0,103
2,58,0,137
2,58,115,0
2,56,127,240
2,56,0,240
2,56,127,0
2,58,0,240
2,58,115,0
2,56,0,240
2,53,127,0
2,53,0,240
2,53,127,0
2,58,0,240
2,58,115,0
2,53,0,240
2,51,127,0
2,51,0,240
2,51,127,0
2,58,0,240
2,58,115,0
2,51,0,240
2,49,127,0
2,49,0,480
2,46,127,0
2,56,127,480
2,58,0,7
2,56,0,233
2,58,115,0
2,46,0,103
2,58,0,137
2,58,115,0
2,56,127,240
2,56,0,240
2,56,127,0
2,58,0,240
2,58,115,0
2,56,0,240
2,53,127,0
2,53,0,240
2,53,127,0
2,58,0,240
2,58,115,0
2,53,0,240
2,51,127,0
2,51,0,240
2,51,127,0
2,58,0,240
2,58,115,0
2,51,0,240
2,49,127,0
2,49,0,480
2,46,127,0
2,56,127,480
2,58,0,7
2,56,0,233
2,58,115,0
2,46,0,103
2,58,0,137
2,58,115,0
2,56,127,240
2,56,0,240
2,56,127,0
2,58,0,240
2,58,115,0
2,56,0,240
2,53,127,0
2,53,0,240
2,53,127,0
2,58,0,240
2,58,115,0
2,53,0,240
2,51,127,0
2,51,0,240
2,51,127,0
2,58,0,240
2,58,115,0
2,51,0,240
2,49,127,0
2,49,0,480
2,46,127,0
2,56,127,480
2,58,0,7
2,56,0,233
2,58,115,0
2,46,0,103
2,58,0,137
2,58,115,0
2,56,127,240
2,56,0,240
2,56,127,0
2,58,0,240
2,58,115,0
2,56,0,240
2,53,127,0
2,53,0,240
2,53,127,0
2,58,0,240
2,58,115,0
2,53,0,240
2,51,127,0
2,51,0,240
2,51,127,0
2,58,0,240
2,58,115,0
2,51,0,240
2,49,127,0
2,49,0,480
2,46,127,0
2,58,0,487
2,46,0,336
3,58,87,1314
3,58,0,240
3,58,87,0
3,58,77,229
3,58,0,11
3,58,0,2389
3,58,87,11
3,58,0,240
3,58,87,0
3,58,0,240
3,58,87,0
3,58,0,240
3,58,87,0
3,58,0,240
3,58,57,0
3,58,0,1453
3,56,117,1
3,56,0,240
3,58,87,0
3,58,0,240
3,58,87,0
3,56,117,240
3,56,0,240
3,56,117,0
3,58,0,240
3,58,87,0
3,56,0,240
3,53,117,0
3,53,0,240
3,53,117,0
3,58,0,240
3,58,87,0
3,53,0,240
3,51,117,0
3,51,0,240
3,51,117,0
3,58,0,240
3,58,87,0
3,51,0,240
3,49,117,0
3,49,0,480
3,46,117,0
3,56,117,480
3,58,0,7
3,56,0,233
3,58,87,0
3,46,0,228
3,58,0,12
3,58,87,0
3,56,117,240
3,56,0,240
3,56,117,0
3,58,0,240
3,58,87,0
3,56,0,240
3,53,117,0
3,53,0,240
3,53,117,0
3,58,0,240
3,58,87,0
3,53,0,240
3,51,117,0
3,51,0,240
3,51,117,0
3,58,0,240
3,58,87,0
3,51,0,240
3,49,117,0
3,49,0,480
3,46,117,0
3,56,117,480
3,58,0,7
3,46,0,187
3,56,0,46
3,58,87,0
3,58,0,240
3,58,87,0
3,56,117,240
3,56,0,240
3,56,117,0
3,58,0,240
3,58,87,0
3,56,0,240
3,53,117,0
3,53,0,240
3,53,117,0
3,58,0,240
3,58,87,0
3,53,0,240
3,51,117,0
3,51,0,240
3,51,117,0
3,58,0,240
3,58,87,0
3,51,0,240
3,49,117,0
3,49,0,480
3,46,117,0
3,56,117,480
3,58,0,7
3,46,0,187
3,56,0,46
3,58,87,0
3,58,0,240
3,58,87,0
3,56,117,240
3,56,0,240
3,56,117,0
3,58,0,240
3,58,87,0
3,56,0,240
3,53,117,0
3,53,0,240
3,53,117,0
3,58,0,240
3,58,87,0
3,53,0,240
3,51,117,0
3,51,0,240
3,51,117,0
3,58,0,240
3,58,87,0
3,51,0,240
3,49,117,0
3,49,0,480
3,46,117,0
3,56,117,480
3,58,0,7
3,46,0,187
3,56,0,46
3,58,87,0
3,58,0,240
3,58,87,0
3,56,117,240
3,56,0,240
3,56,117,0
3,58,0,240
3,58,87,0
3,56,0,240
3,53,117,0
3,53,0,240
3,53,117,0
3,58,0,240
3,58,87,0
3,53,0,240
3,51,117,0
3,51,0,240
3,51,117,0
3,58,0,240
3,58,87,0
3,51,0,240
3,49,117,0
3,49,0,480
3,46,117,0
3,56,117,480
3,58,0,7
3,46,0,187
3,56,0,46
3,58,87,0
3,58,0,240
3,58,87,0
3,56,117,240
3,56,0,240
3,56,117,0
3,58,0,240
3,58,87,0
3,56,0,240
3,53,117,0
3,53,0,240
3,53,117,0
3,58,0,240
3,58,87,0
3,53,0,240
3,51,117,0
3,51,0,240
3,51,117,0
3,58,0,240
3,58,87,0
3,51,0,240
3,49,117,0
3,49,0,480
3,46,117,0
3,56,117,480
3,58,0,7
3,46,0,187
3,56,0,46
3,58,87,0
3,58,0,240
3,58,87,0
3,56,117,240
3,56,0,240
3,56,117,0
3,58,0,240
3,58,87,0
3,56,0,240
3,53,117,0
3,53,0,240
3,53,117,0
3,58,0,240
3,58,87,0
3,53,0,240
3,51,117,0
3,51,0,240
3,51,117,0
3,58,0,240
3,58,87,0
3,51,0,240
3,49,117,0
3,49,0,480
3,46,117,0
3,56,117,480
3,58,0,7
3,46,0,187
3,56,0,46
3,58,87,0
3,58,0,240
3,58,87,0
3,56,117,240
3,56,0,240
3,56,117,0
3,58,0,240
3,58,87,0
3,56,0,240
3,53,117,0
3,53,0,240
3,53,117,0
3,58,0,240
3,58,87,0
3,53,0,240
3,51,117,0
3,51,0,240
3,51,117,0
3,58,0,240
3,58,87,0
3,51,0,240
3,49,117,0
3,49,0,480
3,46,117,0
3,56,117,480
3,58,0,7
3,46,0,187
3,56,0,46
3,58,87,0
3,58,0,240
3,58,87,0
3,56,117,240
3,56,0,240
3,56,117,0
3,58,0,240
3,58,87,0
3,56,0,240
3,53,117,0
3,53,0,240
3,53,117,0
3,58,0,240
3,58,87,0
3,53,0,240
3,51,117,0
3,51,0,240
3,51,117,0
3,58,0,240
3,58,87,0
3,51,0,240
3,49,117,0
3,49,0,480
3,46,117,0
3,58,0,487
3,46,0,187
4,35,115,14400
4,49,115,0
4,49,0,240
4,35,0,0
4,49,62,240
4,49,0,30
4,49,62,210
4,49,0,240
4,49,62,0
4,49,0,30
4,49,62,210
4,49,0,240
4,49,62,0
4,49,0,30
4,49,62,210
4,49,0,240
4,49,62,0
4,49,0,30
4,49,62,210
4,49,0,240
4,49,62,0
4,49,0,30
4,49,62,210
4,49,0,240
4,49,62,0
4,49,0,30
4,49,62,450
4,49,0,240
4,35,115,240
4,49,115,0
4,49,0,240
4,35,0,0
4,49,62,240
4,49,0,30
4,49,62,210
4,49,0,240
4,49,62,0
4,49,0,30
4,49,62,210
4,49,0,240
4,49,62,0
4,49,0,30
4,49,62,210
4,49,0,240
4,49,62,0
4,49,0,30
4,49,62,210
4,49,0,240
4,49,62,0
4,49,0,30
4,49,62,210
4,49,0,240
4,49,62,0
4,49,0,30
4,49,62,450
4,49,0,240
4,35,115,240
4,49,115,0
4,49,0,240
4,35,0,0
4,49,62,240
4,49,0,30
4,49,62,210
4,49,0,240
4,49,62,0
4,49,0,30
4,49,62,210
4,49,0,240
4,49,62,0
4,49,0,30
4,49,62,210
4,49,0,240
4,49,62,0
4,49,0,30
4,49,62,210
4,49,0,240
4,49,62,0
4,49,0,30
4,49,62,210
4,49,0,240
4,49,62,0
4,49,0,30
4,49,62,450
4,49,0,240
4,35,115,240
4,49,115,0
4,49,0,240
4,35,0,0
4,49,62,240
4,49,0,30
4,49,62,210
4,49,0,240
4,49,62,0
4,49,0,30
4,49,62,210
4,49,0,240
4,49,62,0
4,49,0,30
4,49,62,210
4,49,0,240
4,49,62,0
4,49,0,30
4,49,62,210
4,49,0,240
4,49,62,0
4,49,0,30
4,49,62,210
4,49,0,240
4,49,62,0
4,49,0,30
4,49,62,450
4,49,0,240
4,36,115,240
4,49,115,0
4,36,0,120
4,49,0,120
4,49,82,0
4,49,0,240
4,49,82,0
4,49,0,240
4,49,82,0
4,49,0,240
4,49,82,0
4,49,0,240
4,49,82,0
4,49,0,240
4,49,82,0
4,49,0,240
4,49,82,0
4,49,0,240
4,49,82,0
4,49,0,240
4,49,82,0
4,49,0,240
4,49,82,0
4,49,0,240
4,49,82,0
4,49,0,240
4,49,82,0
4,49,0,240
4,49,82,240
4,49,0,240
4,36,115,240
4,49,115,0
4,36,0,120
4,49,0,120
4,49,82,0
4,49,0,240
4,49,82,0
4,49,0,240
4,49,82,0
4,49,0,240
4,49,82,0
4,49,0,240
4,49,82,0
4,49,0,240
4,49,82,0
4,49,0,240
4,49,82,0
4,49,0,240
4,49,82,0
4,49,0,240
4,49,82,0
4,49,0,240
4,49,82,0
4,49,0,240
4,49,82,0
4,49,0,240
4,49,82,0
4,49,0,240
4,49,82,240
4,49,0,240
4,36,115,240
4,49,115,0
4,36,0,120
4,49,0,120
4,49,82,0
4,49,0,240
4,49,82,0
4,49,0,240
4,49,82,0
4,49,0,240
4,49,82,0
4,49,0,240
4,49,82,0
4,49,0,240
4,49,82,0
4,49,0,240
4,49,82,0
4,49,0,240
4,49,82,0
4,49,0,240
4,49,82,0
4,49,0,240
4,49,82,0
4,49,0,240
4,49,82,0
4,49,0,240
4,49,82,0
4,49,0,240
