track,note,velocity,time
1,52,100,0
1,52,0,24
1,52,100,0
1,52,0,30
1,52,100,0
1,52,0,30
1,52,100,0
1,52,0,30
1,52,100,0
1,52,0,30
1,52,100,0
1,52,0,30
1,52,100,0
1,52,0,30
1,52,100,0
1,52,0,30
1,52,100,0
1,52,0,30
1,52,100,0
1,52,0,30
1,52,100,0
1,52,0,30
1,52,100,0
1,52,0,30
1,52,100,0
1,52,0,30
1,52,100,0
1,52,0,30
1,52,100,0
1,52,0,30
1,52,100,0
1,52,0,30
1,52,100,0
1,52,0,30
1,52,100,0
1,52,0,30
1,52,100,0
1,52,0,30
1,52,100,0
1,52,0,30
1,52,100,0
1,52,0,30
1,52,100,0
1,52,0,30
1,52,100,0
1,52,0,30
1,52,100,0
1,52,0,30
1,52,100,0
1,52,0,30
1,52,100,0
1,52,0,30
1,52,100,0
1,52,0,30
1,52,100,0
1,52,0,30
1,52,100,0
1,52,0,30
1,52,100,0
1,52,0,30
1,52,100,0
1,52,0,30
1,52,100,0
1,52,0,30
1,69,100,2
1,78,100,0
1,73,100,0
1,73,0,535
1,78,0,0
1,69,0,0
1,73,90,0
1,69,90,0
1,78,90,0
1,78,0,60
1,69,0,0
1,73,0,0
1,73,90,0
1,78,90,0
1,69,90,0
1,69,0,60
1,78,0,0
1,73,0,0
1,69,90,0
1,78,90,0
1,73,90,0
1,73,0,60
1,78,0,0
1,69,0,0
1,73,91,0
1,78,91,0
1,69,91,0
1,69,0,60
1,78,0,0
1,73,0,0
1,73,91,0
1,69,91,0
1,78,91,0
1,78,0,60
1,69,0,0
1,73,0,0
1,69,92,0
1,78,92,0
1,73,92,0
1,73,0,60
1,78,0,0
1,69,0,0
1,78,92,0
1,69,92,0
1,73,92,0
1,73,0,60
1,69,0,0
1,78,0,0
1,73,92,0
1,69,92,0
1,78,92,0
1,78,0,60
1,69,0,0
1,73,0,0
1,78,93,0
1,69,93,0
1,73,93,0
1,73,0,60
1,69,0,0
1,78,0,0
1,73,93,0
1,69,93,0
1,78,93,0
1,78,0,60
1,69,0,0
1,73,0,0
1,73,94,0
1,78,94,0
1,69,94,0
1,69,0,60
1,78,0,0
1,73,0,0
1,69,94,0
1,78,94,0
1,73,94,0
1,73,0,60
1,78,0,0
1,69,0,0
1,69,95,0
1,78,95,0
1,73,95,0
1,73,0,60
1,78,0,0
1,69,0,0
1,69,95,0
1,73,95,0
1,78,95,0
1,78,0,60
1,73,0,0
1,69,0,0
1,73,95,0
1,78,95,0
1,69,95,0
1,69,0,60
1,78,0,0
1,73,0,0
1,69,96,0
1,78,96,0
1,73,96,0
1,73,0,60
1,78,0,0
1,69,0,0
1,73,96,0
1,69,96,0
1,78,96,0
1,78,0,60
1,69,0,0
1,73,0,0
1,78,97,0
1,73,97,0
1,69,97,0
1,69,0,60
1,73,0,0
1,78,0,0
1,69,97,0
1,73,97,0
1,78,97,0
1,78,0,60
1,73,0,0
1,69,0,0
1,69,97,0
1,78,97,0
1,73,97,0
1,73,0,60
1,78,0,0
1,69,0,0
1,73,98,0
1,69,98,0
1,78,98,0
1,78,0,60
1,69,0,0
1,73,0,0
1,73,98,0
1,69,98,0
1,78,98,0
1,78,0,60
1,69,0,0
1,73,0,0
1,78,99,0
1,69,99,0
1,73,99,0
1,73,0,60
1,69,0,0
1,78,0,0
1,73,99,0
1,69,99,0
1,78,99,0
1,78,0,60
1,69,0,0
1,73,0,0
1,73,100,0
1,69,100,0
1,78,100,0
1,78,0,60
1,69,0,0
1,73,0,0
1,78,100,0
1,69,127,0
1,73,100,0
1,73,0,24
1,78,0,0
1,69,0,60
1,66,100,0
1,69,100,0
1,69,0,3
1,66,0,0
1,71,127,0
1,71,0,2
1,66,127,0
1,66,0,60
1,73,127,0
1,69,127,0
1,69,0,5
1,73,0,0
1,66,127,0
1,69,127,0
1,69,0,5
1,66,0,0
1,64,127,0
1,64,0,8
1,67,127,0
1,71,127,0
1,71,0,2
1,67,0,0
1,71,127,0
1,75,127,0
1,75,0,64
1,71,0,0
1,66,127,0
1,66,0,60
1,69,127,0
1,73,127,0
1,73,0,10
1,69,0,0
1,66,127,0
1,69,127,0
1,69,0,2
1,66,0,0
1,64,127,0
1,64,0,35
1,71,127,0
1,67,127,0
1,67,0,10
1,71,0,0
1,75,127,0
1,71,127,0
1,71,0,4
1,75,0,0
1,66,127,0
1,66,0,13
1,69,127,0
1,73,127,0
1,73,0,10
1,69,0,0
1,69,127,0
1,69,0,20
1,75,127,2
1,71,127,0
1,71,0,5
1,75,0,0
1,66,127,0
1,66,0,20
1,73,127,0
1,69,127,0
1,69,0,10
1,73,0,0
1,69,127,0
1,69,0,5
1,66,127,0
1,69,127,0
1,69,0,3
1,66,0,0
1,64,127,0
1,64,0,7
1,71,127,0
1,67,127,0
1,67,0,15
1,71,0,0
1,69,127,0
1,69,0,30
1,66,127,15
1,69,127,0
1,69,0,20
1,66,0,0
1,64,127,0
1,64,0,40
1,67,127,0
1,71,127,0
1,71,0,50
1,67,0,0
1,69,127,0
1,69,0,15
1,71,127,30
1,75,127,0
1,75,0,3
1,71,0,0
1,66,127,0
1,66,0,30
1,73,127,0
1,69,127,0
1,69,0,5
1,73,0,0
1,69,127,0
1,69,0,5
1,75,127,5
1,71,127,0
1,71,0,3
1,75,0,0
1,66,127,0
1,66,0,5
1,73,127,0
1,69,127,0
1,69,0,10
1,73,0,0
1,69,127,0
1,69,0,5
1,66,127,3
1,69,127,0
1,69,0,4
1,66,0,0
1,64,127,0
1,64,0,10
1,71,127,0
1,67,127,0
1,67,0,15
1,71,0,0
1,64,127,0
1,64,0,5
1,71,127,0
1,67,127,0
1,67,0,10
1,71,0,0
1,64,127,0
1,64,0,5
1,71,127,0
1,67,127,0
1,67,0,20
1,71,0,0
1,64,127,0
1,64,0,5
1,67,127,0
1,71,127,0
1,71,0,25
1,67,0,0
1,64,127,0
1,64,0,20
1,71,127,0
1,67,127,0
1,67,0,3
1,71,0,0
1,42,110,5760
1,54,110,0
1,49,110,0
1,49,0,1680
1,54,0,0
1,42,0,0
1,51,110,120
1,48,110,0
1,41,110,0
1,41,0,120
1,48,0,0
1,51,0,0
1,52,110,0
1,40,110,0
1,47,110,0
1,47,0,360
1,40,0,0
1,52,0,0
1,64,120,60
1,59,120,0
1,59,0,480
1,64,0,0
1,57,110,0
1,45,110,0
1,52,110,0
1,52,0,60
1,45,0,0
1,57,0,0
1,42,110,0
1,49,110,0
1,54,110,0
1,54,0,540
1,49,0,0
1,42,0,0
1,57,120,0
1,52,120,0
1,52,0,60
1,57,0,0
1,54,120,0
1,59,120,0
1,59,0,60
1,54,0,0
1,57,120,0
1,52,120,0
1,52,0,60
1,57,0,0
1,59,120,0
1,54,120,0
1,54,0,60
1,59,0,0
1,52,120,0
1,57,120,0
1,57,0,60
1,52,0,0
1,49,120,0
1,54,120,0
1,54,0,60
1,49,0,0
1,52,120,0
1,47,120,0
1,47,0,4
1,52,0,0
1,49,120,0
1,54,120,0
1,42,120,0
1,42,0,4
1,54,0,0
1,49,0,0
1,54,120,0
1,42,120,0
1,49,120,0
1,49,0,57
1,42,0,0
1,54,0,0
1,42,120,60
1,54,120,0
1,49,120,0
1,49,0,10
1,54,0,0
1,42,0,0
1,42,120,50
1,49,120,0
1,54,120,0
1,54,0,60
1,49,0,0
1,42,0,0
1,49,120,60
1,54,120,0
1,42,120,0
1,42,0,120
1,54,0,0
1,49,0,0
1,52,120,0
1,57,120,0
1,57,0,60
1,52,0,0
1,59,120,0
1,54,120,0
1,54,0,60
1,59,0,0
1,57,120,0
1,52,120,0
1,52,0,60
1,57,0,0
1,54,120,0
1,59,120,0
1,59,0,60
1,54,0,0
1,57,120,0
1,52,120,0
1,52,0,60
1,57,0,0
1,49,120,0
1,54,120,0
1,54,0,60
1,49,0,0
1,47,120,0
1,52,120,0
1,52,0,60
1,47,0,0
1,49,120,0
1,54,120,0
1,42,120,0
1,42,0,17
1,54,0,0
1,49,0,0
1,42,120,0
1,54,120,0
1,49,120,0
1,49,0,57
1,54,0,0
1,42,0,0
1,42,120,60
1,54,120,0
1,49,120,0
1,49,0,10
1,54,0,0
1,42,0,0
1,54,120,50
1,42,120,0
1,49,120,0
1,49,0,60
1,42,0,0
1,54,0,0
1,42,120,60
1,54,120,0
1,49,120,0
1,49,0,120
1,54,0,0
1,42,0,0
1,57,120,0
1,52,120,0
1,52,0,60
1,57,0,0
1,54,120,0
1,59,120,0
1,59,0,60
1,54,0,0
1,52,120,0
1,57,120,0
1,57,0,60
1,52,0,0
1,59,120,0
1,54,120,0
1,54,0,60
1,59,0,0
1,57,120,0
1,52,120,0
1,52,0,60
1,57,0,0
1,49,120,0
1,54,120,0
1,54,0,60
1,49,0,0
1,47,120,0
1,52,120,0
1,52,0,60
1,47,0,0
1,40,120,0
1,40,0,34
1,52,120,0
1,47,120,0
1,47,0,60
1,52,0,0
1,47,120,60
1,52,120,0
1,52,0,60
1,47,0,0
1,50,120,0
1,50,0,120
1,49,120,0
1,49,0,120
1,57,120,0
1,52,120,0
1,52,0,60
1,57,0,0
1,59,120,0
1,54,120,0
1,54,0,60
1,59,0,0
1,57,120,0
1,52,120,0
1,52,0,60
1,57,0,0
1,59,120,0
1,54,120,0
1,54,0,60
1,59,0,0
1,52,120,0
1,57,120,0
1,57,0,60
1,52,0,0
1,54,120,0
1,49,120,0
1,49,0,60
1,54,0,0
1,47,120,0
1,52,120,0
1,52,0,60
1,47,0,0
1,54,120,0
1,42,120,0
1,49,120,0
1,49,0,120
1,42,0,0
1,54,0,0
1,54,120,0
1,42,120,0
1,49,120,0
1,49,0,60
1,42,0,0
1,54,0,0
1,49,120,60
1,54,120,0
1,42,120,0
1,42,0,10
1,54,0,0
1,49,0,0
1,49,120,50
1,42,120,0
1,54,120,0
1,54,0,60
1,42,0,0
1,49,0,0
1,49,120,60
1,42,120,0
1,54,120,0
1,54,0,120
1,42,0,0
1,49,0,0
1,57,120,0
1,52,120,0
1,52,0,60
1,57,0,0
1,59,120,0
1,54,120,0
1,54,0,60
1,59,0,0
1,52,120,0
1,57,120,0
1,57,0,60
1,52,0,0
1,54,120,0
1,59,120,0
1,59,0,60
1,54,0,0
1,57,120,0
1,52,120,0
1,52,0,60
1,57,0,0
1,54,120,0
1,49,120,0
1,49,0,60
1,54,0,0
1,52,120,0
1,47,120,0
1,47,0,60
1,52,0,0
1,45,100,0
1,45,0,60
1,52,100,0
1,52,0,60
1,57,100,0
1,57,0,360
1,47,100,0
1,47,0,60
1,54,100,0
1,54,0,60
1,59,100,0
1,59,0,360
1,42,100,0
1,42,0,60
1,49,100,0
1,49,0,60
1,54,100,0
1,54,0,840
1,45,100,0
1,45,0,60
1,52,100,0
1,52,0,60
1,57,100,0
1,57,0,360
1,47,100,0
1,47,0,60
1,54,100,0
1,54,0,60
1,59,100,0
1,59,0,360
1,42,100,0
1,42,0,60
1,49,100,0
1,49,0,60
1,54,100,0
1,54,0,360
1,49,100,60
1,54,100,0
1,42,100,0
1,42,0,60
1,54,0,0
1,49,0,0
1,49,100,60
1,42,100,0
1,54,100,0
1,54,0,10
1,42,0,0
1,49,0,0
1,49,100,50
1,42,100,0
1,54,100,0
1,54,0,120
1,42,0,0
1,49,0,0
1,42,100,0
1,54,100,0
1,49,100,0
1,49,0,60
1,54,0,0
1,42,0,0
1,49,100,0
1,42,100,0
1,54,100,0
1,54,0,10
1,42,0,0
1,49,0,0
1,45,100,50
1,45,0,240
1,45,100,0
1,45,0,60
1,45,100,0
1,45,0,60
1,45,100,0
1,45,0,60
1,45,100,0
1,45,0,60
1,47,100,0
1,47,0,60
1,54,100,0
1,54,0,60
1,59,100,0
1,59,0,360
1,42,120,0
1,54,120,0
1,49,120,0
1,49,0,10
1,54,0,0
1,42,0,0
1,49,120,50
1,54,120,0
1,42,120,0
1,42,0,10
1,54,0,0
1,49,0,0
1,42,120,50
1,49,120,0
1,54,120,0
1,54,0,60
1,49,0,0
1,42,0,0
1,49,120,0
1,54,120,0
1,42,120,0
1,42,0,10
1,54,0,0
1,49,0,0
1,54,120,50
1,42,120,0
1,49,120,0
1,49,0,10
1,42,0,0
1,54,0,0
1,49,120,50
1,54,120,0
1,42,120,0
1,42,0,60
1,54,0,0
1,49,0,0
1,42,120,0
1,49,120,0
1,54,120,0
1,54,0,10
1,49,0,0
1,42,0,0
1,49,120,50
1,42,120,0
1,54,120,0
1,54,0,10
1,42,0,0
1,49,0,0
1,54,120,50
1,42,120,0
1,49,120,0
1,49,0,60
1,42,0,0
1,54,0,0
1,42,120,0
1,49,120,0
1,54,120,0
1,54,0,10
1,49,0,0
1,42,0,0
1,54,120,50
1,42,120,0
1,49,120,0
1,49,0,10
1,42,0,0
1,54,0,0
1,54,120,50
1,49,120,0
1,42,120,0
1,42,0,180
1,49,0,0
1,54,0,0
1,54,100,0
1,49,100,0
1,42,100,0
1,42,0,10
1,49,0,0
1,54,0,0
1,42,100,50
1,49,100,0
1,54,100,0
1,54,0,10
1,49,0,0
1,42,0,0
1,45,100,50
1,45,0,60
1,52,100,0
1,52,0,60
1,57,100,0
1,57,0,360
1,47,100,0
1,47,0,60
1,54,100,0
1,54,0,60
1,59,100,0
1,59,0,360
1,42,100,0
1,49,100,0
1,54,100,0
1,54,0,360
1,49,0,0
1,42,0,0
1,52,100,180
1,57,100,0
1,57,0,60
1,52,0,0
1,59,100,0
1,54,100,0
1,54,0,60
1,59,0,0
1,52,100,0
1,57,100,0
1,57,0,60
1,52,0,0
1,54,100,0
1,59,100,0
1,59,0,60
1,54,0,0
1,52,100,0
1,57,100,0
1,57,0,60
1,52,0,0
1,49,100,0
1,54,100,0
1,54,0,60
1,49,0,0
1,47,100,0
1,52,100,0
1,52,0,60
1,47,0,0
1,69,127,1200
1,69,0,4
1,76,127,47
1,76,0,4
1,73,127,0
1,73,0,40
1,66,127,0
1,66,0,40
1,69,127,0
1,69,0,40
1,76,127,0
1,76,0,360
1,78,127,0
1,78,0,40
1,76,127,0
1,76,0,40
1,73,127,0
1,73,0,40
1,81,127,0
1,81,0,97
1,81,127,0
1,81,0,120
1,78,127,0
1,78,0,40
1,76,127,0
1,76,0,40
1,73,127,0
1,73,0,40
1,81,127,0
1,81,0,60
1,80,127,0
1,80,0,147
1,78,127,0
1,78,0,30
1,76,127,0
1,76,0,30
1,73,127,0
1,73,0,30
1,71,127,0
1,71,0,30
1,73,127,0
1,73,0,30
1,71,127,0
1,71,0,30
1,69,127,0
1,69,0,30
1,49,100,0
1,54,100,0
1,42,100,0
1,42,0,1680
1,54,0,0
1,49,0,0
1,51,100,120
1,41,100,0
1,48,100,0
1,48,0,120
1,41,0,0
1,51,0,0
1,47,100,0
1,40,100,0
1,52,100,0
1,52,0,360
1,40,0,0
1,47,0,0
1,59,100,60
1,64,100,0
1,64,0,480
1,59,0,0
1,52,100,0
1,45,100,0
1,57,100,0
1,57,0,60
1,45,0,0
1,52,0,0
1,42,100,0
1,54,100,0
1,49,100,0
1,49,0,540
1,54,0,0
1,42,0,0
1,57,100,0
1,52,100,0
1,52,0,60
1,57,0,0
1,54,100,0
1,59,100,0
1,59,0,60
1,54,0,0
1,52,100,0
1,57,100,0
1,57,0,60
1,52,0,0
1,59,100,0
1,54,100,0
1,54,0,60
1,59,0,0
1,57,100,0
1,52,100,0
1,52,0,60
1,57,0,0
1,54,100,0
1,49,100,0
1,49,0,60
1,54,0,0
1,52,100,0
1,47,100,0
1,47,0,60
1,52,0,0
1,49,100,0
1,54,100,0
1,42,100,0
1,42,0,120
1,54,0,0
1,49,0,0
1,49,100,0
1,42,100,0
1,54,100,0
1,54,0,60
1,42,0,0
1,49,0,0
1,42,100,60
1,54,100,0
1,49,100,0
1,49,0,10
1,54,0,0
1,42,0,0
1,42,100,50
1,49,100,0
1,54,100,0
1,54,0,60
1,49,0,0
1,42,0,0
1,49,100,60
1,54,100,0
1,42,100,0
1,42,0,120
