track,note,velocity,time
1,50,127,0
1,50,0,28
1,50,127,2
1,50,0,28
1,50,127,2
1,50,0,28
1,48,127,2
1,48,0,28
1,50,127,2
1,50,0,28
1,48,127,2
1,48,0,28
1,45,127,2
1,45,0,28
1,50,127,2
1,50,0,28
1,45,127,2
1,45,0,28
1,43,127,2
1,43,0,28
1,50,127,2
1,50,0,28
1,43,127,2
1,43,0,28
1,41,127,2
1,41,0,28
1,50,127,2
1,50,0,28
1,38,127,2
1,38,0,28
1,50,127,2
1,50,0,28
1,50,127,2
1,50,0,28
1,50,127,2
1,50,0,28
1,50,127,2
1,50,0,28
1,48,127,2
1,48,0,28
1,50,127,2
1,50,0,28
1,48,127,2
1,48,0,28
1,45,127,2
1,45,0,28
1,50,127,2
1,50,0,28
1,45,127,2
1,45,0,28
1,43,127,2
1,43,0,28
1,50,127,2
1,50,0,28
1,43,127,2
1,43,0,28
1,41,127,2
1,41,0,28
1,50,127,2
1,50,0,28
1,38,127,2
1,38,0,28
1,50,127,2
1,50,0,28
1,50,127,2
1,50,0,28
1,50,127,2
1,50,0,28
1,50,127,2
1,50,0,28
1,48,127,2
1,48,0,28
1,50,127,2
1,50,0,28
1,48,127,2
1,48,0,28
1,45,127,2
1,45,0,28
1,50,127,2
1,50,0,28
1,45,127,2
1,45,0,28
1,43,127,2
1,43,0,28
1,50,127,2
1,50,0,28
1,43,127,2
1,43,0,28
1,41,127,2
1,41,0,28
1,50,127,2
1,50,0,28
1,38,127,2
1,38,0,28
1,50,127,2
1,50,0,28
1,50,127,2
1,50,0,28
1,50,127,2
1,50,0,28
1,50,127,2
1,50,0,28
1,48,127,2
1,48,0,28
1,50,127,2
1,50,0,28
1,48,127,2
1,48,0,28
1,45,127,2
1,45,0,28
1,50,127,2
1,50,0,28
1,45,127,2
1,45,0,28
1,43,127,2
1,43,0,28
1,50,127,2
1,50,0,28
1,43,127,2
1,43,0,28
1,41,127,2
1,41,0,28
1,50,127,2
1,50,0,28
1,38,127,2
1,38,0,28
1,50,127,2
1,50,0,28
1,50,127,2
1,50,0,28
1,50,127,2
1,50,0,28
1,50,127,2
1,50,0,28
1,48,127,2
1,48,0,28
1,50,127,2
1,50,0,28
1,48,127,2
1,48,0,28
1,45,127,2
1,45,0,28
1,50,127,2
1,50,0,28
1,45,127,2
1,45,0,28
1,43,127,2
1,43,0,28
1,50,127,2
1,50,0,28
1,43,127,2
1,43,0,28
1,41,127,2
1,41,0,28
1,50,127,2
1,50,0,28
1,38,127,2
1,38,0,28
1,50,127,2
1,50,0,28
1,50,127,2
1,50,0,28
1,50,127,2
1,50,0,28
1,50,127,2
1,50,0,28
1,48,127,2
1,48,0,28
1,50,127,2
1,50,0,28
1,48,127,2
1,48,0,28
1,45,127,2
1,45,0,28
1,50,127,2
1,50,0,28
1,45,127,2
1,45,0,28
1,43,127,2
1,43,0,28
1,50,127,2
1,50,0,28
1,43,127,2
1,43,0,28
1,41,127,2
1,41,0,28
1,50,127,2
1,50,0,28
1,38,127,2
1,38,0,28
1,50,127,2
1,50,0,28
1,50,127,2
1,50,0,28
1,50,127,2
1,50,0,28
1,50,127,2
1,50,0,28
1,48,127,2
1,48,0,28
1,48,127,2
1,48,0,28
1,48,127,2
1,48,0,28
1,45,127,2
1,45,0,28
1,45,127,2
1,45,0,28
1,45,127,2
1,45,0,28
1,43,127,2
1,43,0,28
1,43,127,2
1,43,0,28
1,43,127,2
1,43,0,28
1,41,127,2
1,41,0,28
1,41,127,2
1,41,0,28
1,38,127,2
1,38,0,28
1,36,127,2
1,36,0,28
1,50,127,2
1,50,0,28
1,50,127,2
1,50,0,28
1,50,127,2
1,50,0,28
1,48,127,2
1,48,0,28
1,48,127,2
1,48,0,28
1,48,127,2
1,48,0,28
1,45,127,2
1,45,0,28
1,45,127,2
1,45,0,28
1,45,127,2
1,45,0,28
1,43,127,2
1,43,0,28
1,43,127,2
1,43,0,28
1,43,127,2
1,43,0,28
1,41,127,2
1,41,0,28
1,41,127,2
1,41,0,28
1,38,127,2
1,38,0,28
1,36,127,2
1,36,0,28
1,50,127,2
1,50,0,28
1,50,127,2
1,50,0,28
1,50,127,2
1,50,0,28
1,48,127,2
1,48,0,28
1,48,127,2
1,48,0,28
1,48,127,2
1,48,0,28
1,45,127,2
1,45,0,28
1,45,127,2
1,45,0,28
1,45,127,2
1,45,0,28
1,43,127,2
1,43,0,28
1,43,127,2
1,43,0,28
1,43,127,2
1,43,0,28
1,41,127,2
1,41,0,28
1,41,127,2
1,41,0,28
1,38,127,2
1,38,0,28
1,36,127,2
1,36,0,28
1,41,127,2
1,48,127,0
1,53,127,0
1,53,0,238
1,48,0,0
1,41,0,0
1,55,127,2
1,50,127,0
1,48,127,0
1,45,127,0
1,36,127,0
1,36,0,238
1,48,0,0
1,55,0,0
1,50,0,0
1,45,0,0
1,38,127,2
1,45,127,0
1,50,127,0
1,50,0,58
1,45,0,0
1,38,0,0
1,38,127,2
1,45,127,0
1,50,127,0
1,50,0,58
1,45,0,0
1,38,0,0
1,38,127,2
1,45,127,0
1,50,127,0
1,50,0,58
1,45,0,0
1,38,0,0
1,38,127,2
1,45,127,0
1,50,127,0
1,50,0,58
1,45,0,0
1,38,0,0
1,38,127,2
1,45,127,0
1,50,127,0
1,50,0,58
1,45,0,0
1,38,0,0
1,38,127,2
1,45,127,0
1,50,127,0
1,50,0,58
1,45,0,0
1,38,0,0
1,38,127,2
1,45,127,0
1,50,127,0
1,50,0,58
1,45,0,0
1,38,0,0
1,38,127,2
1,45,127,0
1,50,127,0
1,50,0,58
1,45,0,0
1,38,0,0
1,38,127,2
1,45,127,0
1,50,127,0
1,50,0,58
1,45,0,0
1,38,0,0
1,38,127,2
1,45,127,0
1,50,127,0
1,50,0,58
1,45,0,0
1,38,0,0
1,38,127,2
1,45,127,0
1,50,127,0
1,50,0,58
1,45,0,0
1,38,0,0
1,38,127,2
1,45,127,0
1,50,127,0
1,50,0,58
1,45,0,0
1,38,0,0
1,38,127,2
1,45,127,0
1,50,127,0
1,50,0,118
1,45,0,0
1,38,0,0
1,50,127,2
1,45,127,0
1,38,127,0
1,38,0,118
1,45,0,0
1,50,0,0
1,36,127,2
1,43,127,0
1,48,127,0
1,48,0,118
1,43,0,0
1,36,0,0
1,35,127,2
1,35,127,15
1,35,0,28
1,35,0,15
1,36,127,2
1,43,127,0
1,48,127,0
1,48,0,28
1,43,0,0
1,36,0,0
1,36,127,2
1,43,127,0
1,48,127,0
1,48,0,58
1,43,0,0
1,36,0,0
1,47,127,2
1,41,127,0
1,41,0,28
1,47,0,0
1,35,127,2
1,35,0,58
1,33,127,2
1,33,0,58
1,36,127,2
1,36,0,58
1,36,127,2
1,43,127,0
1,48,127,0
1,48,0,58
1,43,0,0
1,36,0,0
1,36,127,2
1,43,127,0
1,48,127,0
1,48,0,28
1,43,0,0
1,36,0,0
1,36,127,2
1,43,127,0
1,48,127,0
1,48,0,28
1,43,0,0
1,36,0,0
1,35,127,2
1,35,127,15
1,35,0,28
1,35,0,15
1,36,127,2
1,43,127,0
1,48,127,0
1,48,0,28
1,43,0,0
1,36,0,0
1,36,127,2
1,43,127,0
1,48,127,0
1,48,0,58
1,43,0,0
1,36,0,0
1,47,127,2
1,41,127,0
1,41,0,28
1,47,0,0
1,35,127,2
1,35,0,58
1,33,127,2
1,33,0,58
1,36,127,2
1,36,0,58
1,36,127,2
1,43,127,0
1,48,127,0
1,48,0,58
1,43,0,0
1,36,0,0
1,36,127,2
1,43,127,0
1,48,127,0
1,48,0,28
1,43,0,0
1,36,0,0
1,36,127,2
1,43,127,0
1,48,127,0
1,48,0,28
1,43,0,0
1,36,0,0
1,35,127,2
1,35,127,15
1,35,0,28
1,35,0,15
1,36,127,2
1,43,127,0
1,48,127,0
1,48,0,28
1,43,0,0
1,36,0,0
1,36,127,2
1,43,127,0
1,48,127,0
1,48,0,58
1,43,0,0
1,36,0,0
1,47,127,2
1,41,127,0
1,41,0,28
1,47,0,0
1,35,127,2
1,35,0,58
1,33,127,2
1,33,0,58
1,36,127,2
1,36,0,58
1,36,127,2
1,43,127,0
1,48,127,0
1,48,0,58
1,43,0,0
1,36,0,0
1,36,127,2
1,36,0,58
1,36,127,2
1,43,127,0
1,48,127,0
1,48,0,28
1,43,0,0
1,36,0,0
1,55,127,32
1,55,0,28
1,60,127,2
1,60,0,148
1,52,127,2
1,48,127,30
1,52,0,13
1,48,0,15
1,45,127,2
1,45,0,58
1,36,127,2
1,36,0,58
1,36,127,2
1,36,0,58
1,35,127,2
1,35,127,30
1,35,0,58
1,35,0,0
1,36,127,2
1,36,0,58
1,36,127,2
1,36,0,28
1,35,127,2
1,35,0,58
1,33,127,2
1,33,0,58
1,31,127,2
1,31,0,28
1,31,127,2
1,31,0,28
1,36,127,2
1,36,0,28
1,36,127,2
1,36,0,28
1,36,127,2
1,36,0,58
1,35,127,2
1,35,127,15
1,35,0,28
1,35,0,15
1,36,127,2
1,36,0,88
1,36,127,2
1,36,0,28
1,35,127,2
1,35,0,58
1,33,127,2
1,33,0,58
1,31,127,2
1,31,0,28
1,31,127,2
1,31,0,28
1,36,127,2
1,36,0,28
1,36,127,2
1,36,0,28
1,36,127,2
1,36,0,58
1,35,127,2
1,35,127,15
1,35,0,28
1,35,0,15
1,36,127,2
1,36,0,88
1,36,127,2
1,36,0,28
1,35,127,2
1,35,0,58
1,33,127,2
1,33,0,58
1,31,127,2
1,31,0,28
1,31,127,2
1,31,0,28
1,36,127,2
1,36,0,28
1,36,127,2
1,36,0,28
1,36,127,2
1,36,0,58
1,35,127,2
1,35,127,15
1,35,0,28
1,35,0,15
1,36,127,2
1,36,0,88
1,36,127,2
1,36,0,28
1,35,127,2
1,35,0,58
1,36,127,2
1,36,0,58
1,41,127,2
1,48,127,0
1,53,127,0
1,43,127,30
1,50,127,0
1,55,127,0
1,53,0,13
1,41,0,0
1,48,0,0
1,43,0,15
1,50,0,0
1,55,0,0
1,43,127,2
1,50,127,0
1,55,127,0
1,43,0,28
1,55,127,2
1,55,0,28
1,50,0,0
1,50,127,2
1,43,127,0
1,55,0,28
1,55,127,2
1,43,0,28
1,50,0,0
1,41,127,2
1,48,127,0
1,55,0,28
1,53,127,2
1,48,0,28
1,41,0,0
1,41,127,2
1,48,127,0
1,48,0,28
1,41,0,0
1,53,0,0
1,55,127,2
1,50,127,0
1,43,127,0
1,43,0,58
1,50,0,0
1,55,0,0
1,43,127,2
1,50,127,0
1,55,127,0
1,55,0,28
1,50,0,0
1,43,0,0
1,41,127,2
1,48,127,0
1,48,0,58
1,41,0,0
1,47,127,2
1,41,127,0
1,41,0,58
1,47,0,0
1,45,127,2
1,38,127,0
1,38,0,58
1,45,0,0
1,43,127,2
1,50,127,0
1,55,127,0
1,43,0,28
1,55,127,2
1,55,0,28
1,50,0,0
1,50,127,2
1,43,127,0
1,55,0,28
1,55,127,2
1,43,0,28
1,50,0,0
1,41,127,2
1,48,127,0
1,55,0,28
1,53,127,2
1,48,0,28
1,41,0,0
1,41,127,2
1,48,127,0
1,48,0,28
1,41,0,0
1,53,0,0
1,55,127,2
1,50,127,0
1,43,127,0
1,43,0,58
1,50,0,0
1,55,0,0
1,43,127,2
1,50,127,0
1,55,127,0
1,55,0,28
1,50,0,0
1,43,0,0
1,41,127,2
1,48,127,0
1,48,0,58
1,41,0,0
1,47,127,2
1,41,127,0
1,41,0,58
1,47,0,0
1,45,127,2
1,38,127,0
1,38,0,58
1,45,0,0
1,43,127,2
1,50,127,0
1,55,127,0
1,43,0,28
1,55,127,2
1,55,0,28
1,50,0,0
1,50,127,2
1,43,127,0
1,55,0,28
1,55,127,2
1,43,0,28
1,50,0,0
1,41,127,2
1,48,127,0
1,55,0,28
1,53,127,2
1,48,0,28
1,41,0,0
1,41,127,2
1,48,127,0
1,48,0,28
1,41,0,0
1,53,0,0
1,55,127,2
1,50,127,0
1,43,127,0
1,43,0,58
1,50,0,0
1,55,0,0
1,43,127,2
1,50,127,0
1,55,127,0
1,55,0,28
1,50,0,0
1,43,0,0
1,41,127,2
1,48,127,0
1,48,0,58
1,41,0,0
1,47,127,2
1,41,127,0
1,41,0,58
1,47,0,0
1,45,127,2
1,38,127,0
1,38,0,58
1,45,0,0
1,43,127,2
1,50,127,0
1,55,127,0
1,55,0,58
1,50,0,0
1,43,0,0
1,50,127,2
1,43,127,0
1,55,127,0
1,55,0,58
1,43,0,0
1,50,0,0
1,41,127,2
1,48,127,0
1,53,127,0
1,53,0,58
1,48,0,0
1,41,0,0
1,41,127,2
1,48,127,0
1,53,127,0
1,53,0,28
1,48,0,0
1,41,0,0
1,55,127,2
1,50,127,0
1,43,127,0
1,43,0,58
1,50,0,0
1,55,0,0
1,43,127,2
1,50,127,0
1,55,127,0
1,55,0,28
1,50,0,0
1,43,0,0
1,41,127,2
1,48,127,0
1,48,0,58
1,41,0,0
1,43,127,2
1,50,127,0
1,50,0,58
1,43,0,0
1,36,127,2
1,36,0,58
1,40,127,2
1,47,127,0
1,52,127,0
1,38,127,120
1,47,0,118
1,40,0,0
1,36,127,2
1,35,127,120
1,52,0,43
1,38,0,25
1,36,0,50
1,35,0,0
1,41,127,2
1,48,127,0
1,53,127,0
1,41,127,120
1,41,0,118
1,53,0,0
1,48,0,0
1,38,127,2
1,41,0,118
1,36,127,2
1,36,0,118
1,38,0,0
1,43,127,2
1,50,127,0
1,55,127,0
1,55,0,58
1,50,0,0
1,43,0,0
1,43,127,2
1,50,127,0
1,55,127,0
1,55,0,58
1,50,0,0
1,43,0,0
1,41,127,2
1,41,0,58
1,38,127,2
1,38,0,28
1,38,127,2
1,38,0,58
1,36,127,2
1,36,0,28
1,36,127,2
1,36,0,58
1,35,127,2
1,35,0,58
1,31,127,2
1,31,0,58
1,43,127,2
1,43,0,58
1,43,127,2
1,41,127,60
1,43,0,28
1,41,0,30
1,38,127,2
1,38,0,28
1,38,127,2
1,36,127,60
1,36,0,28
1,38,0,0
1,36,127,2
1,36,0,58
1,35,127,2
1,35,0,58
1,31,127,2
1,31,0,58
1,43,127,2
1,43,0,58
1,43,127,2
1,41,127,60
1,43,0,28
1,41,0,30
1,38,127,2
1,38,0,28
1,38,127,2
1,36,127,60
1,36,0,28
1,38,0,0
1,36,127,2
1,36,0,58
1,35,127,2
1,35,0,58
1,31,127,2
1,31,0,58
1,43,127,2
1,43,0,88
1,41,127,2
1,41,0,88
1,38,127,2
1,38,0,118
1,36,127,2
1,36,0,58
1,35,127,2
1,35,0,58
1,35,127,2
1,35,0,58
1,36,127,2
1,36,0,58
1,36,127,2
1,36,0,58
1,35,127,2
1,35,127,30
1,35,0,58
1,35,0,0
1,36,127,2
1,36,0,58
1,36,127,2
1,36,0,28
1,35,127,2
1,35,0,58
1,33,127,2
1,33,0,58
1,31,127,2
1,31,0,28
1,31,127,2
1,31,0,28
1,36,127,2
1,36,0,28
1,36,127,2
1,36,0,28
1,36,127,2
1,36,0,58
1,35,127,2
1,35,127,15
1,35,0,28
1,35,0,15
1,36,127,2
1,36,0,88
1,36,127,2
1,36,0,28
1,35,127,2
1,35,0,58
1,33,127,2
1,33,0,58
1,31,127,2
1,31,0,28
1,31,127,2
1,31,0,28
1,36,127,2
1,36,0,28
1,36,127,2
1,36,0,28
1,36,127,2
1,36,0,58
1,35,127,2
1,35,127,15
1,35,0,28
1,35,0,15
1,36,127,2
1,36,0,88
1,36,127,2
1,36,0,28
1,35,127,2
1,35,0,58
1,33,127,2
1,33,0,58
1,31,127,2
1,31,0,28
1,31,127,2
1,31,0,28
1,36,127,2
1,36,0,28
1,36,127,2
1,36,0,28
1,36,127,2
1,36,0,58
1,35,127,2
1,35,127,15
1,35,0,28
1,35,0,15
1,36,127,2
1,36,0,88
1,36,127,2
1,36,0,28
1,35,127,2
1,35,0,58
1,36,127,2
1,36,0,58
1,41,127,2
1,48,127,0
1,53,127,0
1,43,127,30
