track,note,velocity,time
1,73,95,10080
1,73,0,47
1,69,95,1
1,69,0,47
1,73,95,1
1,73,0,47
1,73,95,1
1,73,0,47
1,71,95,1
1,71,0,23
1,69,95,1
1,69,0,71
1,76,95,1
1,76,0,95
1,73,95,0
1,73,0,0
1,72,95,240
1,72,0,47
1,72,95,1
1,72,0,47
1,72,95,1
1,72,0,47
1,71,95,1
1,71,0,47
1,69,95,1
1,69,0,47
1,72,95,0
1,72,0,91
1,71,95,1
1,71,0,143
1,69,95,0
1,69,0,91
1,71,95,0
1,71,0,47
1,71,95,49
1,71,0,95
1,71,95,1
1,71,0,95
1,69,95,1
1,69,0,47
1,67,95,0
1,67,0,143
1,70,95,193
1,70,0,95
1,69,95,1
1,69,0,47
1,69,95,1
1,69,0,143
1,69,95,144
1,69,0,47
1,69,95,1
1,69,0,23
1,69,95,1
1,69,0,71
1,69,95,1
1,69,0,47
1,67,95,1
1,67,0,23
1,65,95,1
1,65,0,71
1,72,95,1
1,72,0,95
1,69,95,0
1,69,0,0
1,68,95,240
1,68,0,47
1,68,95,1
1,68,0,47
1,68,95,1
1,68,0,47
1,68,95,1
1,68,0,47
1,72,95,1
1,72,0,47
1,68,95,1
1,68,0,95
1,67,95,1
1,67,0,143
1,80,95,144
1,80,0,143
1,80,95,1
1,80,0,47
1,80,95,1
1,80,0,95
1,79,95,0
1,79,0,91
1,79,95,1
1,79,0,95
1,77,95,1
1,77,0,47
1,75,95,0
1,75,0,143
1,79,95,193
1,79,0,95
1,79,95,1
1,79,0,47
1,76,95,0
1,76,0,0
1,77,95,96
1,77,0,47
1,77,95,1
1,77,0,47
1,77,95,1
1,77,0,47
1,76,95,1
1,76,0,47
1,74,95,1
1,74,0,23
1,74,95,1
1,74,0,71
1,77,95,1
1,77,0,47
1,76,95,1
1,76,0,47
1,74,95,1
1,74,0,47
1,81,95,0
1,81,0,91
1,81,95,1
1,81,0,47
1,81,95,1
1,81,0,47
1,81,95,1
1,81,0,95
1,79,95,1
1,79,0,47
1,79,95,1
1,79,0,47
1,79,95,1
1,79,0,95
1,77,95,1
1,77,0,47
1,79,95,1
1,79,0,47
1,81,95,1
1,81,0,47
1,81,95,1
1,81,0,47
1,79,95,1
1,79,0,47
1,77,95,1
1,77,0,47
1,79,95,1
1,79,0,95
1,77,95,1
1,77,0,47
1,81,95,1
1,81,0,47
1,81,95,1
1,81,0,95
1,79,95,1
1,79,0,95
1,79,95,1
1,79,0,95
1,77,95,1
1,77,0,47
1,81,95,1
1,81,0,47
1,81,95,1
1,81,0,95
1,79,95,1
1,79,0,95
1,79,95,1
1,79,0,95
1,77,95,1
1,77,0,95
1,82,95,241
1,82,0,47
1,82,95,1
1,82,0,95
1,81,95,0
1,81,0,91
1,81,95,1
1,81,0,95
1,79,95,1
1,79,0,47
1,77,95,0
1,77,0,95
1,81,95,241
1,81,0,95
1,81,95,1
1,81,0,47
1,79,95,0
1,79,0,0
1,76,48,0
1,76,0,191
1,79,95,49
1,79,0,47
1,79,95,1
1,79,0,47
1,79,95,1
1,79,0,47
1,79,95,1
1,79,0,47
1,78,95,1
1,78,0,47
1,76,95,1
1,76,0,47
1,79,95,1
1,79,0,47
1,76,95,0
1,76,0,47
1,83,95,0
1,83,0,91
1,83,95,1
1,83,0,47
1,83,95,1
1,83,0,47
1,83,95,1
1,83,0,47
1,83,95,1
1,83,0,47
1,81,95,1
1,81,0,47
1,81,95,1
1,81,0,95
1,79,95,1
1,79,0,47
1,83,95,0
1,83,0,43
1,83,95,1
1,83,0,47
1,83,95,1
1,83,0,47
1,83,95,1
1,83,0,47
1,81,95,1
1,81,0,47
1,81,95,1
1,81,0,47
1,81,95,1
1,81,0,71
1,82,95,0
1,82,0,95
1,82,95,1
1,82,0,47
1,81,95,0
1,81,0,95
1,81,95,1
1,81,0,47
1,79,95,0
1,79,0,47
1,83,95,49
1,83,0,47
1,81,95,0
1,81,0,95
1,81,95,1
1,81,0,47
1,79,95,0
1,79,0,95
1,73,24,145
1,73,0,0
1,83,95,0
1,83,0,44
1,83,95,1
1,83,0,47
1,83,95,1
1,83,0,47
1,83,95,1
1,83,0,95
1,82,95,1
1,82,0,143
1,78,95,1
1,78,0,47
1,78,95,1
1,78,0,143
1,83,95,145
1,83,0,47
1,83,95,1
1,83,0,47
1,83,95,1
1,83,0,47
1,83,95,1
1,83,0,47
1,85,95,1
1,85,0,95
1,84,95,0
1,84,0,0
1,81,48,0
1,81,0,47
1,81,95,1
1,81,0,47
1,86,95,1
1,86,0,95
1,81,95,1
1,81,0,47
1,81,95,1
1,81,0,47
1,79,95,1
1,79,0,0
1,81,95,0
1,81,0,47
1,81,95,1
1,81,0,47
1,81,95,1
1,81,0,47
1,81,95,1
1,81,0,47
1,79,95,1
1,79,0,95
1,78,95,0
1,78,0,47
1,74,95,0
1,74,0,47
1,76,95,1
1,76,0,143
1,79,95,1
1,79,0,47
1,74,48,0
1,79,95,0
1,74,0,0
1,79,0,44
1,79,95,1
1,79,0,47
1,79,95,1
1,79,0,47
1,78,95,1
1,78,0,47
1,76,95,1
1,76,0,47
1,76,95,1
1,76,0,47
1,74,95,0
1,74,0,47
1,74,95,1
1,74,0,95
1,73,95,1
1,73,0,47
1,72,95,145
1,72,0,47
1,72,95,1
1,72,0,47
1,71,95,1
1,71,0,47
1,76,95,1
1,76,0,47
1,76,95,1
1,76,0,47
1,79,95,1
1,79,0,32
1,78,95,16
1,78,0,32
1,88,95,64
1,88,0,32
1,87,95,26
1,87,0,70
1,88,95,16
1,88,0,32
1,87,95,16
1,87,0,32
1,87,95,16
1,87,0,335
1,85,95,96
1,85,0,48
1,85,95,0
1,85,0,83
1,81,95,0
1,81,0,0
1,84,95,5424
1,84,0,47
1,81,95,0
1,81,0,47
1,81,95,1
1,81,0,47
1,79,95,1
1,79,0,47
1,76,95,1
1,76,0,47
1,81,95,1
1,81,0,95
1,79,95,1
1,79,0,47
1,77,95,1
1,77,0,47
1,81,95,0
1,81,0,91
1,81,95,49
1,81,0,47
1,79,95,1
1,79,0,47
1,84,95,1
1,84,0,95
1,81,95,1
1,81,0,47
1,81,95,1
1,81,0,47
1,79,95,48
1,79,0,47
1,84,95,0
1,84,0,91
1,81,95,1
1,81,0,47
1,79,95,1
1,79,0,47
1,81,95,1
1,81,0,95
1,79,95,1
1,79,0,47
1,84,95,1
1,84,0,47
1,83,95,1
1,83,0,95
1,81,95,1
1,81,0,47
1,83,95,1
1,83,0,47
1,82,95,1
1,82,0,47
1,83,95,1
1,83,0,47
1,82,95,1
1,82,0,47
1,83,95,1
1,83,0,47
1,82,95,1
1,82,0,47
1,83,95,1
1,83,0,47
1,82,95,1
1,82,0,47
1,86,95,1
1,86,0,32
1,85,95,16
1,85,0,32
1,86,95,0
1,86,0,0
1,81,48,6240
1,86,95,3
1,81,0,0
1,86,0,572
1,86,95,1
1,86,0,47
1,88,95,0
1,88,0,91
1,86,95,49
1,86,0,95
1,83,95,0
1,83,0,431
1,81,95,48
1,81,0,47
1,83,95,1
1,83,0,95
1,81,95,1
1,81,0,47
1,83,95,1
1,83,0,23
1,81,95,1
1,81,0,47
1,83,95,1
1,83,0,71
1,83,95,1
1,83,0,47
1,78,95,49
1,78,0,23
1,85,95,1
1,85,0,71
1,78,95,1
1,78,0,47
1,78,95,1
1,78,0,47
1,78,95,1
1,78,0,47
1,81,95,1
1,81,0,47
1,81,95,1
1,81,0,47
1,81,95,1
1,81,0,47
1,81,95,1
1,81,0,95
1,78,95,1
1,78,0,47
1,80,95,1
1,80,0,47
1,78,95,1
1,78,0,23
1,78,95,1
1,78,0,71
1,73,95,1
1,73,0,47
1,78,95,1
1,78,0,47
1,78,95,1
1,78,0,47
1,81,95,1
1,81,0,47
1,78,95,1
1,78,0,47
1,78,95,1
1,78,0,47
1,76,95,1
1,76,0,47
1,78,95,1
1,78,0,47
1,76,95,1
1,76,0,47
1,78,95,1
1,78,0,47
1,77,95,0
1,77,0,0
1,74,48,0
1,74,0,47
1,74,95,1
1,74,0,95
1,74,95,49
1,79,95,3
1,74,0,0
1,79,0,44
1,79,95,1
1,79,0,47
1,78,95,1
1,78,0,47
1,74,95,0
1,74,0,95
1,74,95,1
1,74,0,47
1,76,95,1
1,76,0,47
1,78,95,1
1,78,0,47
1,76,95,0
1,76,0,287
1,78,95,0
1,78,0,43
1,76,95,1
1,76,0,47
1,74,95,1
1,74,0,47
1,76,95,0
1,76,0,143
1,76,48,49
1,76,0,47
1,76,48,1
1,76,0,143
1,76,48,1
1,76,0,95
1,73,48,6049
1,73,0,47
1,73,48,1
1,73,0,47
1,73,48,1
1,73,0,23
1,73,48,1
1,73,0,71
1,73,48,1
1,73,0,47
1,71,48,1
1,71,0,47
1,69,48,1
1,69,0,95
1,71,48,1
1,71,0,95
1,73,48,1
1,73,0,47
1,69,48,1
1,69,0,191
1,69,48,433
1,69,0,47
1,69,48,1
1,69,0,47
1,69,48,1
1,69,0,47
1,66,48,1
1,66,0,47
1,69,48,1
1,69,0,47
1,69,48,1
1,69,0,47
1,66,48,1
1,66,0,47
1,71,48,49
1,71,0,95
1,73,48,0
1,73,0,43
1,69,48,1
1,69,0,191
1,69,48,385
1,69,0,47
1,73,48,1
1,73,0,47
1,73,48,1
1,73,0,47
1,73,48,1
1,73,0,47
1,73,48,1
1,73,0,95
1,71,48,1
1,71,0,47
1,69,48,1
1,69,0,47
1,66,48,1
1,66,0,47
1,71,48,1
1,71,0,95
1,73,48,1
1,73,0,95
1,69,48,1
1,69,0,143
1,69,48,337
1,69,0,47
1,66,48,1
1,66,0,47
1,68,48,0
1,68,0,23
1,69,48,0
1,69,0,119
1,68,48,0
1,68,0,0
1,66,48,0
1,66,0,95
1,71,48,1
1,71,0,95
1,73,48,1
1,73,0,95
1,69,48,1
1,69,0,143
1,69,48,385
1,69,0,47
1,73,48,1
1,73,0,47
1,73,48,1
1,73,0,47
1,73,48,1
1,73,0,47
1,73,48,1
1,73,0,95
1,71,48,1
1,71,0,47
1,69,48,1
1,69,0,47
1,66,48,1
1,66,0,47
1,71,48,1
1,71,0,47
1,71,48,1
1,71,0,47
1,73,48,1
1,73,0,47
1,69,48,1
1,69,0,143
1,66,48,433
1,66,0,47
1,66,48,1
1,66,0,95
1,69,48,1
1,69,0,47
1,69,48,1
1,69,0,95
1,66,48,1
1,66,0,47
1,64,48,1
1,64,0,47
1,69,48,1
1,69,0,95
1,73,48,0
1,73,0,47
1,69,48,1
1,69,0,143
1,73,48,481
1,73,0,47
1,73,48,1
1,73,0,47
1,73,48,1
1,73,0,47
1,73,48,1
1,73,0,95
1,71,48,1
1,71,0,47
1,69,48,1
1,69,0,47
1,71,48,1
1,71,0,143
1,73,48,1
1,73,0,47
1,69,48,1
1,69,0,143
1,26,48,433
1,26,0,47
1,28,48,1
1,28,0,47
1,26,48,1
1,26,0,47
1,28,48,1
1,28,0,47
1,26,48,1
1,26,0,47
1,28,48,1
1,28,0,47
1,26,48,1
1,26,0,47
1,25,48,1
1,25,0,47
1,28,48,1
1,28,0,47
1,24,48,1
1,24,0,47
1,71,72,1681
1,71,0,191
1,69,95,28944
1,69,0,47
1,73,95,1
1,73,0,47
1,73,95,1
1,73,0,47
1,73,95,1
1,73,0,47
1,73,95,1
1,73,0,47
1,71,95,1
1,71,0,47
1,69,95,1
1,69,0,47
1,76,95,1
1,76,0,95
1,73,95,0
1,73,0,0
1,72,95,144
1,72,0,47
1,72,95,1
1,72,0,47
1,72,95,1
1,72,0,47
1,72,95,1
1,72,0,47
1,72,95,1
1,72,0,47
1,71,95,1
1,71,0,47
1,69,95,1
1,69,0,47
1,72,95,0
1,72,0,91
1,71,95,1
1,71,0,143
1,71,95,240
1,71,0,47
1,69,95,0
1,69,0,47
1,67,95,0
1,67,0,47
1,74,95,1
1,74,0,95
1,71,95,1
1,71,0,47
1,71,95,1
1,71,0,47
1,76,95,1
1,76,0,47
1,74,95,0
1,74,0,95
1,70,95,49
1,70,0,47
1,70,95,1
1,70,0,47
1,70,95,1
1,70,0,47
1,70,95,1
1,70,0,47
1,69,95,1
1,69,0,47
1,67,95,1
1,67,0,47
1,69,95,0
1,69,0,94
1,65,95,144
1,65,0,47
1,86,95,1
1,86,0,47
1,81,95,1
1,81,0,47
1,81,95,1
1,81,0,47
1,77,95,0
1,77,0,47
1,81,95,0
1,81,0,91
1,79,95,1
1,79,0,47
1,77,95,1
1,77,0,47
1,81,95,0
1,81,0,139
1,77,95,1
1,77,0,47
1,83,95,0
1,83,0,139
1,81,95,0
1,81,0,47
1,81,95,1
1,81,0,95
1,79,95,1
1,79,0,47
1,76,95,1
1,76,0,47
1,83,95,0
1,83,0,47
1,81,95,0
1,81,0,47
1,81,95,1
1,81,0,47
1,86,95,96
1,86,0,47
1,85,95,1
1,85,0,47
1,86,95,1
1,86,0,47
1,85,95,1
1,85,0,47
1,86,95,1
1,85,95,24
1,86,0,8
1,85,0,39
1,86,95,1
1,86,0,71
1,88,95,1
1,88,0,47
1,88,95,1
1,88,0,47
1,87,95,1
1,87,0,47
1,88,95,1
1,88,0,23
1,87,95,1
1,87,0,47
1,88,95,1
1,88,0,0
1,81,95,0
1,81,0,23
1,83,95,1
1,83,0,23
1,81,95,1
1,81,0,23
1,83,95,1
1,83,0,47
1,83,95,0
1,83,0,47
1,83,95,0
1,83,0,16
1,83,95,8
1,83,0,23
1,81,95,1
1,81,0,47
1,79,95,1
1,79,0,47
1,81,95,1
1,81,0,143
1,81,95,1
1,81,0,47
1,81,95,0
1,81,0,47
1,79,95,0
1,79,0,16
1,79,95,8
1,79,0,23
1,78,95,1
1,78,0,95
1,76,95,0
1,76,0,47
1,76,95,0
1,76,0,31
1,74,95,1
1,74,0,31
1,76,95,1
1,76,0,31
1,74,95,2
1,74,0,95
1,78,95,48
1,78,0,47
1,78,95,1
1,78,0,47
1,74,95,1
1,74,0,143
1,76,95,1
1,76,0,23
1,74,95,1
1,74,0,23
1,78,95,0
1,78,0,139
1,79,95,1
1,79,0,71
1,76,95,0
1,76,0,47
1,74,95,1
1,74,0,47
1,76,95,1
1,76,0,47
1,74,95,1
1,74,0,47
1,78,95,1
1,78,0,95
1,78,95,1
1,78,0,95
1,76,95,1
1,76,0,47
1,74,95,0
1,74,0,47
1,76,95,0
1,76,0,191
1,86,95,49
1,86,0,47
1,81,95,1
1,81,0,47
1,76,95,1
1,76,0,47
1,76,95,1
1,76,0,47
1,74,95,1
1,74,0,47
1,76,95,1
1,76,0,23
1,74,95,1
1,74,0,23
1,76,95,1
1,76,0,95
1,74,95,1
1,74,0,47
1,76,95,1
1,76,0,23
1,74,95,1
1,74,0,47
1,79,95,1
1,79,0,71
1,79,95,1
1,79,0,47
1,79,95,1
1,79,0,23
1,79,95,1
1,79,0,23
1,81,95,0
1,81,0,47
1,81,95,1
1,81,0,47
1,79,95,1
1,79,0,47
1,81,95,1
1,81,0,47
1,79,95,1
1,79,0,47
1,81,95,1
1,81,0,47
1,79,95,1
1,79,0,23
1,81,95,1
1,81,0,71
1,79,95,1
1,79,0,47
1,81,95,1
1,81,0,23
1,79,95,1
1,79,0,47
1,83,95,1
1,83,0,71
1,83,95,1
1,83,0,47
1,83,95,1
1,83,0,47
1,83,95,1
1,83,0,23
1,79,95,1
1,79,0,71
1,83,95,49
1,83,0,23
1,79,95,1
1,79,0,23
1,83,95,1
1,83,0,95
1,81,95,1
1,81,0,47
1,81,95,1
1,81,0,47
1,79,95,1
1,79,0,23
1,79,95,1
1,79,0,71
1,76,95,1
1,76,0,47
1,76,95,1
1,76,0,47
1,74,95,1
1,74,0,47
1,79,95,1
1,79,0,47
1,74,95,1
1,74,0,47
1,74,95,1
1,74,0,23
1,71,95,1
1,71,0,47
1,74,95,1
1,74,0,119
1,83,95,49
1,83,0,47
1,83,95,1
1,83,0,23
1,81,95,1
1,81,0,71
1,81,95,1
1,81,0,47
1,79,95,1
1,79,0,16
