track,note,velocity,time
1,64,121,5984
1,62,121,64
1,62,121,336
1,62,121,320
1,64,109,48
1,67,112,64
1,62,118,1648
1,62,121,336
1,62,125,336
1,64,98,48
1,67,115,160
1,64,127,1584
1,64,121,320
1,64,121,368
1,62,115,80
1,64,121,112
1,64,115,1456
1,62,112,64
1,62,112,304
1,62,118,336
1,64,107,64
1,67,109,64
1,59,94,864
1,62,94,48
1,57,102,64
1,59,112,144
1,57,109,272
1,55,94,64
1,57,102,288
1,59,94,352
1,43,97,544
1,46,97,496
1,47,97,16
1,50,97,48
1,52,97,128
1,50,97,64
1,43,97,16
1,46,97,496
1,47,97,16
1,50,97,48
1,52,97,128
1,50,97,64
1,43,97,16
1,46,97,496
1,47,97,16
1,50,97,48
1,52,97,128
1,50,97,64
1,43,97,16
1,46,97,496
1,47,97,16
1,50,97,48
1,52,97,128
1,50,97,64
1,48,97,16
1,51,97,496
1,52,97,32
1,55,97,16
1,57,97,0
1,55,97,48
1,48,97,64
1,51,97,496
1,52,97,32
1,55,97,16
1,57,97,0
1,55,97,48
1,43,97,64
1,46,97,496
1,47,97,16
1,50,97,48
1,52,97,128
1,50,97,64
1,43,97,16
1,46,97,496
1,47,97,16
1,50,97,48
1,52,97,128
1,50,97,64
1,57,97,16
1,60,97,0
1,64,97,0
1,54,97,272
1,57,97,0
1,62,97,0
1,43,97,128
1,46,97,544
1,47,97,0
1,50,97,0
1,52,97,16
1,50,97,0
1,43,97,16
1,46,97,528
1,47,97,16
1,50,97,256
1,52,97,16
1,52,97,192
1,55,97,0
1,48,97,0
1,54,97,144
1,50,97,0
1,57,97,0
1,55,97,384
1,60,97,0
1,64,97,0
1,62,97,208
1,57,97,0
1,54,97,0
1,43,97,272
1,46,97,528
1,47,97,128
1,50,97,240
1,52,97,0
1,50,97,256
1,43,97,16
1,46,97,496
1,47,97,0
1,50,97,256
1,52,97,16
1,50,97,32
1,43,97,1744
1,59,97,0
1,55,97,0
1,62,97,0
1,62,97,176
1,59,97,0
1,55,97,0
1,43,97,0
1,43,97,2304
1,55,97,0
1,59,97,0
1,62,97,0
1,62,97,176
1,55,97,0
1,59,97,0
1,43,97,0
1,64,97,2272
1,60,97,0
1,55,97,0
1,48,97,0
1,60,97,176
1,64,97,0
1,55,97,0
1,48,97,0
1,62,97,2288
1,59,97,0
1,55,97,0
1,43,97,0
1,62,97,176
1,59,97,0
1,55,97,0
1,43,97,0
1,64,97,576
1,57,97,0
1,60,97,0
1,45,97,0
1,62,97,128
1,57,97,0
1,54,97,0
1,43,97,176
1,55,97,256
1,60,97,128
1,64,97,0
1,59,97,112
1,55,97,0
1,62,97,0
1,55,97,112
1,64,97,0
1,60,97,0
1,50,97,16
1,55,97,64
1,62,97,0
1,59,97,0
1,50,97,32
1,55,97,48
1,60,97,0
1,64,97,0
1,50,97,0
1,55,97,32
1,59,97,0
1,62,97,0
1,50,97,32
1,64,97,128
1,60,97,0
1,55,97,0
1,43,97,80
1,55,97,256
1,60,97,128
1,64,97,0
1,50,97,0
1,55,97,64
1,59,97,0
1,62,97,0
1,50,97,16
1,55,97,32
1,60,97,0
1,64,97,64
1,43,97,48
1,55,97,128
1,59,97,0
1,62,97,0
1,50,97,48
1,55,97,32
1,60,97,0
1,64,97,0
1,43,97,16
1,59,97,128
1,55,97,0
1,62,97,0
1,50,97,16
1,64,97,16
1,60,97,0
1,55,97,0
1,43,97,16
1,55,97,128
1,50,97,0
1,50,97,224
1,64,97,64
1,60,97,0
1,55,97,0
1,50,97,32
1,55,97,16
1,59,97,0
1,62,97,0
1,43,97,16
1,64,97,128
1,60,97,0
1,55,97,0
1,50,97,16
1,59,97,16
1,62,97,0
1,55,97,0
1,43,97,32
1,64,97,128
1,60,97,0
1,55,97,0
1,50,97,0
1,62,97,16
1,55,97,0
1,59,97,0
1,43,97,0
1,55,97,0
1,64,97,0
1,60,97,0
1,48,97,160
1,55,97,256
1,60,97,0
1,64,97,32
1,67,97,0
1,60,97,0
1,67,97,144
1,64,97,0
1,60,97,0
1,55,97,16
1,69,97,0
1,60,97,0
1,65,97,0
1,48,97,32
1,60,97,112
1,67,97,0
1,64,97,0
1,55,97,256
1,60,97,32
1,65,97,0
1,69,97,0
1,48,97,32
1,64,97,0
1,60,97,0
1,67,97,0
1,55,97,0
1,69,97,80
1,60,97,0
1,65,97,0
1,67,97,0
1,50,97,32
1,43,97,32
1,50,97,256
1,55,97,32
1,60,97,0
1,64,97,0
1,50,97,0
1,59,97,0
1,55,97,0
1,62,97,0
1,43,97,16
1,64,97,128
1,60,97,0
1,55,97,0
1,50,97,16
1,55,97,16
1,62,97,0
1,65,97,0
1,43,97,32
1,60,97,96
1,64,97,0
1,55,97,0
1,50,97,0
1,55,97,16
1,62,97,0
1,59,97,0
1,50,97,0
1,64,97,128
1,60,97,0
1,55,97,0
1,45,97,128
1,60,97,0
1,64,97,0
1,57,97,0
1,57,97,608
1,62,97,0
1,54,97,0
1,43,97,720
1,55,97,224
1,60,97,128
1,64,97,0
1,55,97,160
1,59,97,0
1,62,97,0
1,55,97,112
1,60,97,0
1,64,97,0
1,55,97,144
1,62,97,0
1,65,97,0
1,55,97,112
1,60,97,0
1,64,97,0
1,55,97,80
1,59,97,0
1,62,97,0
1,64,97,0
1,55,97,0
1,60,97,0
1,48,97,128
1,55,97,0
1,60,97,64
1,64,97,0
1,64,97,224
1,67,97,0
1,60,97,0
1,66,97,448
1,57,97,0
1,69,97,0
1,62,97,0
1,50,97,64
1,67,97,816
1,60,97,0
1,64,97,0
1,48,97,0
1,66,97,976
1,69,97,0
1,57,97,0
1,62,97,0
1,50,97,0
1,67,97,64
1,67,97,80
1,67,97,64
1,67,97,80
1,67,97,64
1,67,97,80
1,67,97,64
1,67,97,64
1,67,97,64
1,67,97,48
1,67,97,64
1,67,97,64
1,67,97,48
1,64,97,1424
1,57,97,0
1,60,97,0
1,45,97,0
1,62,97,336
1,54,97,0
1,57,97,0
1,62,97,176
1,55,97,0
1,59,97,0
1,43,97,0
1,57,97,240
1,64,97,0
1,60,97,0
1,45,97,0
1,54,97,336
1,62,97,0
1,57,97,0
1,62,97,192
1,59,97,0
1,55,97,0
1,43,97,0
1,59,97,112
1,62,97,0
1,43,97,0
1,53,97,0
1,60,97,336
1,64,97,0
1,67,97,0
1,48,97,0
1,55,97,0
1,54,97,144
1,62,97,0
1,57,97,0
1,64,97,288
1,67,97,0
1,60,97,0
1,48,97,0
1,55,97,64
1,69,97,208
1,66,97,0
1,62,97,0
1,57,97,64
1,50,97,0
1,67,97,368
1,67,97,80
1,67,97,64
1,67,97,80
1,67,97,64
1,67,97,64
1,67,97,64
1,67,97,64
1,67,97,64
1,67,97,64
1,67,97,64
1,67,97,48
1,67,97,64
1,67,97,64
1,67,97,64
1,67,97,48
1,67,97,80
1,67,97,80
1,67,97,80
1,67,97,64
1,67,97,64
1,67,97,64
1,67,97,64
1,67,97,48
1,62,97,64
1,59,97,0
1,55,97,0
1,43,97,0
1,50,97,256
1,55,97,0
1,60,97,0
1,64,97,0
1,43,97,32
1,55,97,16
1,59,97,0
1,62,97,0
1,50,97,32
1,55,97,16
1,64,97,0
1,60,97,0
1,43,97,16
1,59,97,16
1,55,97,0
1,62,97,0
1,50,97,32
1,64,97,32
1,55,97,0
1,60,97,0
1,43,97,16
1,55,97,32
1,59,97,0
1,62,97,0
1,50,97,32
1,64,97,16
1,55,97,0
1,60,97,0
1,43,97,48
1,59,97,0
1,62,97,0
1,55,97,0
1,43,97,16
1,64,97,16
1,60,97,0
1,55,97,0
1,43,97,0
1,59,97,0
1,62,97,0
1,55,97,0
1,43,97,16
1,55,97,128
1,60,97,0
1,64,97,0
1,43,97,32
1,55,97,16
1,65,97,0
1,62,97,0
1,43,97,16
1,64,97,128
1,60,97,0
1,55,97,0
1,43,97,0
1,59,97,16
1,55,97,0
1,62,97,0
1,43,97,0
1,60,97,0
1,55,97,0
1,64,97,0
1,48,97,32
1,64,97,128
1,60,97,0
1,67,97,0
1,55,97,0
1,60,97,32
1,69,97,0
1,65,97,64
1,55,97,0
1,60,97,48
1,67,97,0
1,64,97,64
1,48,97,16
1,60,97,16
1,65,97,0
1,69,97,0
1,55,97,16
1,64,97,48
1,60,97,0
1,67,97,0
1,48,97,48
1,69,97,16
1,60,97,0
1,65,97,0
1,55,97,16
1,60,97,48
1,64,97,0
1,67,97,0
1,48,97,0
1,69,97,16
1,60,97,0
1,65,97,0
1,50,97,48
1,48,97,0
1,59,97,32
1,55,97,0
1,62,97,0
1,43,97,16
1,64,97,32
1,55,97,0
1,60,97,0
1,43,97,32
1,62,97,16
1,59,97,0
1,55,97,0
1,43,97,32
1,64,97,16
1,60,97,0
1,55,97,0
1,43,97,32
1,55,97,16
1,65,97,0
1,62,97,0
1,43,97,16
1,64,97,32
1,60,97,0
1,55,97,0
1,43,97,32
1,55,97,0
1,59,97,0
1,62,97,0
1,43,97,0
1,64,97,128
1,60,97,0
1,55,97,0
1,60,97,144
1,57,97,0
1,64,97,0
1,45,97,0
1,62,97,400
1,57,97,0
1,54,97,0
1,59,97,144
1,62,97,0
1,55,97,0
1,43,97,0
1,50,97,256
1,64,97,0
1,55,97,0
1,60,97,0
1,43,97,32
1,55,97,128
1,59,97,0
1,62,97,0
1,50,97,16
1,64,97,16
1,60,97,0
1,55,97,0
1,43,97,32
1,59,97,128
1,62,97,0
1,53,97,0
1,50,97,0
1,62,97,64
1,59,97,0
1,53,97,0
1,50,97,16
1,62,97,32
1,59,97,0
1,53,97,0
1,50,97,16
1,62,97,0
1,53,97,0
1,59,97,0
1,61,97,144
1,64,97,0
1,57,97,0
1,52,97,0
1,45,97,0
1,64,97,1536
1,61,97,0
1,57,97,0
1,52,97,0
1,45,97,0
1,64,97,160
1,61,97,0
1,52,97,0
1,57,97,0
1,45,97,0
1,64,97,2272
1,61,97,0
1,57,97,0
1,52,97,0
1,45,97,0
1,52,97,176
1,64,97,0
1,61,97,0
1,57,97,0
1,45,97,0
1,38,97,2256
1,54,97,0
1,57,97,0
1,62,97,0
1,38,97,112
1,54,97,0
1,57,97,0
1,62,97,0
1,61,97,2320
1,57,97,0
1,52,97,0
1,45,97,0
1,64,97,0
1,64,97,176
1,61,97,0
1,52,97,0
1,57,97,0
1,45,97,0
1,47,97,560
1,66,97,0
1,59,97,0
1,62,97,0
1,56,97,272
1,64,97,0
1,59,97,0
1,52,97,192
1,64,97,0
1,57,97,0
1,45,97,0
1,61,97,0
1,57,97,384
1,50,97,0
1,66,97,0
1,62,97,0
1,69,97,0
1,64,97,160
1,52,97,0
1,68,97,0
1,59,97,0
1,71,97,0
1,50,97,144
1,66,97,0
1,69,97,0
1,62,97,0
1,57,97,0
1,59,97,160
1,52,97,0
1,64,97,0
1,68,97,0
1,71,97,0
1,69,97,320
1,69,97,80
1,69,97,80
1,69,97,80
1,69,97,64
1,69,97,80
1,69,97,64
1,69,97,64
1,69,97,64
1,69,97,64
1,69,97,64
1,69,97,48
1,69,97,32
1,62,97,1424
1,59,97,0
1,66,97,0
1,47,97,0
1,64,97,304
1,56,97,0
1,59,97,0
1,64,97,208
1,57,97,0
1,61,97,0
1,52,97,0
1,45,97,0
1,62,97,352
1,59,97,0
1,66,97,0
1,47,97,0
1,64,97,304
1,56,97,0
1,59,97,0
1,64,97,208
1,57,97,0
1,61,97,0
1,52,97,0
1,45,97,0
1,62,97,352
1,59,97,0
1,66,97,0
1,47,97,0
1,64,97,304
1,56,97,0
1,59,97,0
1,64,97,208
1,57,97,0
1,61,97,0
1,52,97,0
1,45,97,0
1,62,97,352
1,59,97,0
1,66,97,0
1,47,97,0
1,64,97,304
1,56,97,0
1,59,97,0
1,64,97,208
1,57,97,0
1,61,97,0
1,52,97,0
1,45,97,0
1,66,97,352
1,69,97,0
1,62,97,0
1,57,97,0
1,50,97,0
1,68,97,112
1,71,97,0
1,64,97,0
1,59,97,0
1,52,97,0
1,69,97,128
1,62,97,0
1,66,97,0
1,57,97,0
1,50,97,0
1,64,97,144
1,71,97,0
1,52,97,0
1,59,97,0
1,68,97,0
1,69,97,240
1,69,97,80
1,69,97,64
1,69,97,80
1,69,97,80
1,69,97,96
1,69,97,64
1,69,97,80
1,69,97,64
1,69,97,128
1,69,97,64
1,69,97,80
1,69,97,48
2,45,107,18432
2,43,77,0
2,42,79,96
2,40,88,16
2,38,88,48
2,36,79,16
2,35,77,32
2,33,88,32
2,31,88,80
2,28,88,80
2,26,96,32
2,28,79,48
2,31,96,80
2,40,107,0
2,38,88,64
2,40,88,16
2,31,96,128
2,28,107,64
2,26,96,32
2,28,107,32
2,31,88,96
2,40,88,0
2,38,79,48
2,40,88,16
2,31,79,32
2,28,88,48
2,26,68,48
2,28,88,48
2,31,79,48
2,31,77,112
2,33,96,80
2,35,88,80
2,36,72,112
2,36,77,80
2,36,68,80
2,36,79,96
2,31,88,80
2,36,79,0
2,36,79,128
2,36,79,96
2,36,79,128
2,31,88,80
2,28,88,80
2,26,96,48
2,28,96,64
2,31,88,80
2,31,79,112
2,31,68,80
2,31,79,96
2,31,88,160
2,45,88,16
2,43,96,48
2,42,96,96
2,40,96,32
2,38,79,80
2,36,88,32
2,35,79,384
2,33,88,32
2,31,88,80
2,28,96,32
2,26,96,32
2,28,96,48
2,31,107,64
2,40,88,16
2,38,107,80
2,40,96,16
2,36,107,112
2,36,96,128
2,36,96,144
2,31,107,64
2,36,107,48
2,31,121,64
2,38,121,48
2,38,96,128
2,38,96,144
2,33,121,64
2,38,107,48
2,33,121,48
2,36,96,48
2,36,107,128
2,36,88,144
2,31,121,48
2,36,96,48
2,31,121,32
2,38,121,48
2,38,107,144
2,38,107,176
2,33,107,64
2,38,121,48
2,33,121,96
2,43,96,48
2,40,107,80
2,38,96,64
2,40,121,64
2,43,96,96
2,40,107,48
2,38,121,64
2,40,107,64
2,31,121,96
2,31,127,1456
2,31,107,192
2,31,121,2272
2,31,121,128
2,36,107,2192
2,36,96,128
2,31,121,2288
2,31,121,128
2,45,107,480
2,43,96,96
2,42,88,112
2,40,96,80
2,38,79,128
2,36,77,112
2,35,79,112
2,33,79,112
2,31,79,128
2,28,107,64
2,26,121,64
2,28,96,64
2,31,96,48
2,40,96,16
2,38,96,64
2,40,88,64
2,31,88,112
2,28,88,64
2,26,88,64
2,28,88,96
2,31,88,80
2,40,88,64
2,38,88,64
2,40,88,96
2,31,88,80
2,28,79,48
2,26,96,96
2,28,88,64
2,31,96,80
2,40,96,80
2,38,79,32
2,40,88,64
2,36,96,64
2,36,77,112
2,36,77,112
2,31,88,32
2,36,88,32
2,31,77,48
2,36,88,32
2,36,88,128
2,36,88,112
2,36,88,144
2,31,79,160
2,28,79,80
2,26,77,64
2,28,77,48
2,31,88,96
2,40,96,96
2,38,88,32
2,40,88,64
2,45,88,176
2,43,96,80
2,42,88,96
2,40,96,48
2,38,77,48
2,36,77,48
2,35,79,48
2,33,96,64
2,31,77,128
2,28,79,80
2,26,77,80
2,28,88,80
2,31,88,80
2,40,88,96
2,38,88,16
2,40,88,384
2,36,88,112
2,36,79,128
2,36,79,144
2,31,88,32
2,36,79,32
2,31,96,0
2,38,79,16
2,38,88,128
2,38,79,144
2,33,96,32
2,38,77,16
2,33,107,16
2,36,96,32
2,36,79,128
2,36,88,144
2,31,88,16
2,36,88,32
2,31,88,32
2,38,88,48
2,38,88,144
2,38,88,160
2,33,96,32
2,38,88,32
2,33,60,32
2,31,96,80
2,28,96,96
2,26,88,48
2,28,96,48
2,31,121,112
2,45,88,1280
2,43,96,80
2,42,88,96
2,40,96,48
2,38,77,48
2,36,77,48
2,35,79,48
2,33,96,64
2,31,77,128
2,28,79,80
2,26,77,80
2,28,88,80
2,31,88,80
2,40,88,96
2,38,88,16
2,40,88,384
2,45,88,112
2,43,96,80
2,42,88,96
2,40,96,48
2,38,77,48
2,36,77,48
2,35,79,48
2,33,96,64
2,31,77,128
2,28,79,80
2,26,77,80
