track,note,velocity,time
2,62,79,12
2,62,0,8
2,67,79,4
2,67,0,8
2,71,79,4
2,71,0,8
2,74,79,4
2,74,0,32
2,76,79,16
2,76,0,8
2,78,79,4
2,78,0,24
2,76,79,12
2,76,0,32
2,74,79,40
2,74,0,8
2,72,79,4
2,72,0,8
2,71,79,4
2,71,0,8
2,72,79,4
2,72,0,8
2,71,79,4
2,71,0,12
2,69,79,0
2,69,0,8
2,62,79,112
2,62,0,8
2,67,79,4
2,67,0,8
2,71,79,4
2,71,0,8
2,74,79,4
2,74,0,32
2,74,79,16
2,74,0,8
2,76,79,4
2,76,0,8
2,78,79,4
2,78,0,16
2,76,79,8
2,76,0,32
2,62,79,220
2,62,0,8
2,67,79,4
2,67,0,8
2,71,79,4
2,71,0,8
2,74,79,4
2,74,0,8
2,74,79,4
2,74,0,16
2,74,79,8
2,74,0,12
2,76,79,0
2,76,0,16
2,78,79,8
2,78,0,16
2,79,79,8
2,79,0,24
2,76,79,12
2,76,0,8
2,76,79,4
2,76,0,11
2,74,79,5
2,74,0,11
2,79,79,5
2,79,0,11
2,76,79,5
2,76,0,32
2,81,79,16
2,81,0,16
2,79,79,8
2,79,0,16
2,78,79,8
2,78,0,16
2,79,79,8
2,79,0,16
2,81,79,8
2,81,0,16
2,74,79,8
2,74,0,56
2,62,79,148
2,62,0,8
2,76,79,4
2,76,0,8
2,74,79,4
2,74,0,8
2,70,79,4
2,70,0,16
2,69,79,8
2,69,0,12
2,67,79,0
2,67,0,24
2,76,79,156
2,76,0,8
2,74,79,4
2,74,0,8
2,70,79,4
2,70,0,16
2,69,79,8
2,69,0,12
2,67,79,0
2,67,0,24
2,76,79,108
2,76,0,8
2,74,79,4
2,74,0,8
2,70,79,4
2,70,0,16
2,69,79,8
2,69,0,12
2,67,79,0
2,67,0,24
2,76,79,108
2,76,0,8
2,74,79,4
2,74,0,8
2,70,79,4
2,70,0,16
2,69,79,8
2,69,0,12
2,67,79,0
2,67,0,28
2,64,79,848
2,64,0,8
2,64,79,4
2,64,0,8
2,67,79,4
2,67,0,16
2,70,79,8
2,70,0,24
2,70,79,12
2,70,0,8
2,67,79,4
2,67,0,16
2,64,79,8
2,64,0,16
2,59,79,56
2,59,0,7
2,59,79,5
2,59,0,7
2,62,79,5
2,62,0,7
2,59,79,5
2,59,0,7
2,65,79,5
2,65,0,13
2,64,79,11
2,64,0,7
2,62,79,5
2,62,0,19
2,62,79,5
2,62,0,7
2,62,79,5
2,62,0,7
2,62,79,5
2,62,0,7
2,60,79,5
2,60,0,7
2,59,79,5
2,59,0,14
2,57,79,10
2,57,0,40
2,62,79,80
2,62,0,7
2,62,79,5
2,62,0,7
2,62,79,5
2,62,0,7
2,64,79,5
2,64,0,8
2,67,79,4
2,67,0,8
2,67,79,4
2,67,0,8
2,64,79,4
2,64,0,8
2,67,79,4
2,67,0,8
2,64,79,4
2,64,0,8
2,72,79,4
2,72,0,247
2,62,79,444
2,62,0,8
2,67,79,4
2,67,0,8
2,71,79,4
2,71,0,8
2,74,79,4
2,74,0,32
2,74,79,16
2,74,0,8
2,76,79,4
2,76,0,8
2,78,79,4
2,78,0,16
2,76,79,8
2,76,0,32
2,62,79,220
2,62,0,8
2,67,79,4
2,67,0,8
2,71,79,4
2,71,0,8
2,74,79,4
2,74,0,8
2,74,79,4
2,74,0,16
2,74,79,8
2,74,0,12
2,76,79,0
2,76,0,16
2,78,79,8
2,78,0,16
2,79,79,8
2,79,0,24
2,76,79,12
2,76,0,8
2,76,79,4
2,76,0,11
2,74,79,5
2,74,0,11
2,79,79,5
2,79,0,11
2,76,79,5
2,76,0,32
2,81,79,16
2,81,0,16
2,79,79,8
2,79,0,16
2,78,79,8
2,78,0,16
2,79,79,8
2,79,0,16
2,81,79,8
2,81,0,16
2,74,79,8
2,74,0,56
2,62,79,148
2,62,0,8
2,76,79,4
2,76,0,8
2,74,79,4
2,74,0,8
2,70,79,4
2,70,0,16
2,69,79,8
2,69,0,12
2,67,79,0
2,67,0,24
2,76,79,156
2,76,0,8
2,74,79,4
2,74,0,8
2,70,79,4
2,70,0,16
2,69,79,8
2,69,0,12
2,67,79,0
2,67,0,24
2,76,79,108
2,76,0,8
2,74,79,4
2,74,0,8
2,70,79,4
2,70,0,16
2,69,79,8
2,69,0,12
2,67,79,0
2,67,0,24
2,76,79,108
2,76,0,8
2,74,79,4
2,74,0,8
2,70,79,4
2,70,0,16
2,69,79,8
2,69,0,12
2,67,79,0
2,67,0,28
3,62,79,12
3,62,0,8
3,67,79,4
3,67,0,8
3,71,79,4
3,71,0,8
3,71,79,4
3,66,79,0
3,74,79,0
3,66,0,32
3,71,0,0
3,74,0,0
3,66,79,16
3,71,79,0
3,76,79,0
3,76,0,8
3,78,79,4
3,66,0,20
3,71,0,0
3,78,0,4
3,72,79,12
3,67,79,0
3,76,79,0
3,67,0,32
3,72,0,0
3,76,0,0
3,60,79,16
3,71,79,0
3,74,79,24
3,60,0,8
3,71,0,0
3,74,0,0
3,72,79,4
3,72,0,8
3,66,79,4
3,60,79,0
3,71,79,0
3,71,0,8
3,72,79,4
3,72,0,8
3,71,79,4
3,60,0,8
3,66,0,0
3,71,0,0
3,69,79,4
3,69,0,8
3,60,79,4
3,63,79,0
3,60,0,32
3,63,0,0
3,59,79,16
3,62,79,0
3,59,0,32
3,62,0,0
3,62,79,28
3,62,0,8
3,67,79,4
3,67,0,8
3,71,79,4
3,71,0,8
3,71,79,4
3,66,79,0
3,74,79,0
3,66,0,32
3,71,0,0
3,74,0,0
3,71,79,16
3,66,79,0
3,74,79,0
3,66,0,8
3,71,0,0
3,74,0,0
3,76,79,4
3,76,0,8
3,78,79,4
3,78,0,16
3,72,79,8
3,67,79,0
3,76,79,0
3,67,0,32
3,72,0,0
3,76,0,0
3,76,79,28
3,72,79,0
3,83,79,0
3,72,0,8
3,76,0,0
3,83,0,0
3,76,79,4
3,72,79,0
3,83,79,0
3,72,0,8
3,76,0,0
3,83,0,0
3,76,79,4
3,72,79,0
3,83,79,0
3,72,0,8
3,76,0,0
3,83,0,0
3,76,79,4
3,72,79,0
3,83,79,0
3,72,0,8
3,76,0,0
3,83,0,0
3,76,79,4
3,72,79,0
3,79,79,0
3,72,0,8
3,76,0,0
3,79,0,0
3,76,79,4
3,72,79,0
3,79,79,0
3,72,0,8
3,76,0,0
3,79,0,0
3,76,79,4
3,72,79,0
3,79,79,0
3,72,0,8
3,76,0,0
3,79,0,0
3,75,79,4
3,72,79,0
3,79,79,0
3,72,0,8
3,75,0,0
3,79,0,0
3,72,79,4
3,75,79,0
3,72,0,8
3,75,0,0
3,72,79,4
3,75,79,0
3,72,0,8
3,75,0,0
3,72,79,4
3,75,79,0
3,72,0,8
3,75,0,0
3,72,79,4
3,75,79,0
3,72,0,16
3,75,0,8
3,71,79,0
3,74,79,0
3,71,0,16
3,74,0,0
3,62,79,20
3,62,0,8
3,67,79,4
3,67,0,8
3,71,79,4
3,71,0,8
3,71,79,4
3,66,79,0
3,74,79,0
3,66,0,8
3,71,0,0
3,74,0,0
3,71,79,4
3,66,79,0
3,74,79,0
3,66,0,16
3,71,0,0
3,74,0,0
3,71,79,8
3,66,79,0
3,74,79,0
3,74,0,12
3,76,79,0
3,76,0,16
3,78,79,8
3,66,0,8
3,71,0,0
3,78,0,8
3,76,79,8
3,67,79,0
3,79,79,0
3,67,0,24
3,76,0,0
3,79,0,0
3,72,79,12
3,76,79,0
3,72,0,8
3,76,0,0
3,72,79,4
3,76,79,0
3,72,0,11
3,76,0,0
3,74,79,5
3,74,0,11
3,79,79,5
3,79,0,11
3,69,79,5
3,73,79,0
3,76,79,0
3,69,0,32
3,73,0,0
3,76,0,0
3,73,79,16
3,69,79,0
3,81,79,0
3,69,0,16
3,73,0,0
3,81,0,0
3,79,79,8
3,79,0,16
3,74,79,8
3,69,79,0
3,78,79,0
3,69,0,16
3,74,0,0
3,78,0,0
3,79,79,8
3,79,0,16
3,81,79,8
3,81,0,16
3,69,95,8
3,66,95,0
3,74,95,0
3,66,0,56
3,69,0,0
3,74,0,0
3,70,79,64
3,74,79,0
3,70,0,8
3,74,0,0
3,72,79,4
3,76,79,0
3,72,0,8
3,76,0,0
3,74,79,4
3,77,79,0
3,74,0,48
3,77,0,0
3,62,79,12
3,62,0,8
3,72,79,4
3,76,79,0
3,72,0,8
3,76,0,0
3,70,79,4
3,74,79,0
3,70,0,8
3,74,0,0
3,70,79,4
3,70,0,16
3,69,79,8
3,69,0,8
3,67,79,4
3,67,0,24
3,59,95,12
3,62,95,0
3,59,0,32
3,62,0,0
3,60,95,40
3,64,95,0
3,60,0,56
3,64,0,0
3,72,79,16
3,76,79,0
3,72,0,8
3,76,0,0
3,70,79,4
3,74,79,0
3,70,0,8
3,74,0,0
3,67,79,4
3,70,79,0
3,67,0,16
3,70,0,0
3,61,95,8
3,59,95,0
3,69,79,0
3,69,0,8
3,67,79,4
3,59,0,20
3,61,0,0
3,67,0,4
3,67,95,36
3,62,95,0
3,71,95,0
3,62,0,56
3,67,0,0
3,71,0,0
3,76,79,16
3,76,0,8
3,74,79,4
3,74,0,8
3,70,79,4
3,70,0,16
3,62,95,8
3,59,95,0
3,69,79,0
3,69,0,8
3,67,79,4
3,59,0,20
3,62,0,0
3,67,0,4
3,60,95,36
3,64,95,0
3,76,79,72
3,76,0,8
3,74,79,4
3,74,0,8
3,70,79,4
3,70,0,16
3,69,79,8
3,69,0,8
3,67,79,4
3,60,0,20
3,64,0,0
3,67,0,8
3,67,111,32
3,79,111,0
3,67,0,8
3,79,0,0
3,69,111,4
3,81,111,0
3,69,0,8
3,81,0,0
3,70,111,4
3,82,111,0
3,70,0,16
3,82,0,0
3,62,111,32
3,74,111,0
3,62,0,8
3,74,0,0
3,64,111,4
3,76,111,0
3,64,0,8
3,76,0,0
3,65,111,4
3,77,111,0
3,65,0,32
3,77,0,0
3,60,111,16
3,72,111,0
3,60,0,8
3,72,0,0
3,58,111,4
3,70,111,0
3,58,0,8
3,70,0,0
3,67,111,4
3,67,0,16
3,67,111,8
3,79,111,0
3,67,0,8
3,79,0,0
3,69,111,4
3,81,111,0
3,69,0,8
3,81,0,0
3,70,111,4
3,82,111,0
3,70,0,16
3,82,0,0
3,62,111,20
3,74,111,0
3,62,0,8
3,74,0,0
3,64,111,4
3,76,111,0
3,64,0,8
3,76,0,0
3,65,111,4
3,77,111,0
3,65,0,20
3,77,0,0
3,60,111,4
3,72,111,0
3,60,0,16
3,72,0,0
3,58,111,8
3,70,111,0
3,58,0,44
3,70,0,0
3,67,111,16
3,79,111,0
3,67,0,8
3,79,0,0
3,69,111,4
3,81,111,0
3,69,0,8
3,81,0,0
3,70,111,4
3,82,111,0
3,70,0,16
3,82,0,0
3,62,111,32
3,74,111,0
3,62,0,8
3,74,0,0
3,64,111,4
3,76,111,0
3,64,0,8
3,76,0,0
3,65,111,4
3,77,111,0
3,65,0,32
3,77,0,0
3,60,111,16
3,72,111,0
3,60,0,8
3,72,0,0
3,58,111,4
3,70,111,0
3,58,0,8
3,70,0,0
3,67,111,4
3,67,0,16
3,67,111,8
3,79,111,0
3,67,0,8
3,79,0,0
3,69,111,4
3,81,111,0
3,69,0,8
3,81,0,0
3,70,111,4
3,82,111,0
3,70,0,16
3,82,0,0
3,62,111,20
3,74,111,0
3,62,0,8
3,74,0,0
3,64,111,4
3,76,111,0
3,64,0,8
3,76,0,0
3,65,111,4
3,77,111,0
3,65,0,20
3,77,0,0
3,60,111,4
3,72,111,0
3,60,0,16
3,72,0,0
3,58,111,8
3,70,111,0
3,58,0,44
3,70,0,0
3,70,79,64
3,67,79,0
3,76,79,0
3,67,0,8
3,70,0,0
3,76,0,0
3,70,79,4
3,67,79,0
3,76,79,0
3,67,0,8
3,70,0,0
3,76,0,0
3,76,79,4
3,70,79,0
3,79,79,0
3,70,0,16
3,76,0,0
3,79,0,0
3,76,79,8
3,74,79,0
3,82,79,0
3,74,0,24
3,76,0,0
3,82,0,0
3,76,79,12
3,74,79,0
3,82,79,0
3,74,0,8
3,76,0,0
3,82,0,0
3,76,79,4
3,70,79,0
3,79,79,0
3,70,0,16
3,76,0,0
3,79,0,0
3,70,79,8
3,67,79,0
3,76,79,0
3,67,0,16
3,70,0,0
3,76,0,0
3,67,79,56
3,65,79,0
3,71,79,0
3,65,0,7
3,67,0,0
3,71,0,0
3,67,79,5
3,65,79,0
3,71,79,0
3,65,0,7
3,67,0,0
3,71,0,0
3,71,79,5
3,65,79,0
3,74,79,0
3,65,0,7
3,71,0,0
3,74,0,0
3,67,79,5
3,65,79,0
3,71,79,0
3,65,0,7
3,67,0,0
3,71,0,0
3,71,79,5
3,69,79,0
3,77,79,0
3,69,0,14
3,71,0,0
3,77,0,0
3,71,79,10
3,67,79,0
3,76,79,0
3,67,0,7
3,71,0,0
3,76,0,0
3,71,79,5
3,65,79,0
3,74,79,0
3,65,0,19
3,71,0,0
3,74,0,0
3,71,79,5
3,65,79,0
3,74,79,0
3,65,0,7
3,71,0,0
3,74,0,0
3,71,79,5
3,65,79,0
3,74,79,0
3,65,0,7
3,71,0,0
3,74,0,0
3,72,79,5
3,65,79,0
3,74,79,0
3,65,0,7
3,72,0,0
3,74,0,0
3,66,79,5
3,64,79,0
3,72,79,0
3,64,0,7
3,66,0,0
3,72,0,0
3,66,79,5
3,62,79,0
3,71,79,0
3,62,0,14
3,66,0,0
3,71,0,0
3,66,79,10
3,60,79,0
3,69,79,0
3,60,0,40
3,66,0,0
3,69,0,0
3,72,79,80
3,74,79,0
3,72,0,7
3,74,0,0
3,72,79,5
3,74,79,0
3,72,0,7
3,74,0,0
3,72,79,5
3,74,79,0
3,72,0,7
3,74,0,0
3,71,79,5
3,76,79,0
3,71,0,8
3,76,0,0
3,76,79,4
3,79,79,0
3,76,0,8
3,79,0,0
3,76,79,4
3,79,79,0
3,76,0,8
3,79,0,0
3,71,79,4
3,76,79,0
3,71,0,8
3,76,0,0
3,76,79,4
3,79,79,0
3,76,0,8
3,79,0,0
3,76,79,4
3,76,0,8
3,81,95,4
3,77,95,0
3,72,95,0
3,84,95,0
3,72,0,247
3,77,0,0
3,81,0,0
3,84,0,0
3,67,111,65
3,79,111,0
3,67,0,8
3,79,0,0
3,69,111,4
3,81,111,0
3,69,0,8
3,81,0,0
3,70,111,4
3,82,111,0
3,70,0,16
3,82,0,0
3,62,111,32
3,74,111,0
3,62,0,8
3,74,0,0
3,64,111,4
3,76,111,0
3,64,0,8
3,76,0,0
3,65,111,4
3,77,111,0
3,65,0,32
3,77,0,0
3,60,111,16
3,72,111,0
3,60,0,8
3,72,0,0
3,58,111,4
3,70,111,0
3,58,0,8
3,70,0,0
3,67,111,4
3,67,0,16
3,67,111,8
3,79,111,0
3,67,0,8
3,79,0,0
3,69,111,4
3,81,111,0
3,69,0,8
3,81,0,0
3,70,111,4
3,82,111,0
3,70,0,16
3,82,0,0
3,62,111,20
3,74,111,0
3,62,0,8
3,74,0,0
3,64,111,4
3,76,111,0
3,64,0,8
3,76,0,0
3,65,111,4
3,77,111,0
3,65,0,20
3,77,0,0
3,60,111,4
3,72,111,0
3,60,0,16
3,72,0,0
3,58,111,8
3,70,111,0
3,58,0,44
3,70,0,0
3,67,111,16
3,79,111,0
3,67,0,8
3,79,0,0
3,69,111,4
3,81,111,0
3,69,0,8
3,81,0,0
3,70,111,4
3,82,111,0
3,70,0,16
3,82,0,0
3,62,111,32
3,74,111,0
3,62,0,8
3,74,0,0
3,64,111,4
3,76,111,0
3,64,0,8
3,76,0,0
3,65,111,4
3,77,111,0
3,65,0,32
3,77,0,0
3,60,111,16
3,72,111,0
3,60,0,8
3,72,0,0
3,58,111,4
3,70,111,0
3,58,0,8
3,70,0,0
3,67,111,4
3,67,0,16
3,67,111,8
3,79,111,0
3,67,0,8
3,79,0,0
3,69,111,4
3,81,111,0
3,69,0,8
3,81,0,0
