track,note,velocity,time
1,61,64,0
1,73,64,0
1,68,64,0
1,66,64,0
1,78,64,0
1,68,64,0
1,77,64,0
1,68,64,0
1,61,64,0
1,73,64,0
1,68,64,0
1,66,64,0
1,78,64,0
1,68,64,0
1,77,64,0
1,68,64,0
1,63,64,0
1,73,64,0
1,68,64,0
1,66,64,0
1,78,64,0
1,68,64,0
1,77,64,0
1,68,64,0
1,63,64,0
1,73,64,0
1,68,64,0
1,66,64,0
1,78,64,0
1,68,64,0
1,77,64,0
1,68,64,0
1,66,64,0
1,73,64,0
1,68,64,0
1,66,64,0
1,78,64,0
1,68,64,0
1,77,64,0
1,68,64,0
1,66,64,0
1,73,64,0
1,68,64,0
1,66,64,0
1,78,64,0
1,68,64,0
1,77,64,0
1,68,64,0
1,61,64,0
1,73,64,0
1,68,64,0
1,66,64,0
1,78,64,0
1,68,64,0
1,77,64,0
1,68,64,0
1,61,64,0
1,73,64,0
1,68,64,0
1,66,64,0
1,78,64,0
1,68,64,0
1,77,64,0
1,68,64,0
1,61,64,0
1,73,64,0
1,68,64,0
1,66,64,0
1,78,64,0
1,68,64,0
1,77,64,0
1,68,64,0
1,61,64,0
1,73,64,0
1,68,64,0
1,66,64,0
1,78,64,0
1,68,64,0
1,77,64,0
1,68,64,0
1,63,64,0
1,73,64,0
1,68,64,0
1,66,64,0
1,78,64,0
1,68,64,0
1,77,64,0
1,68,64,0
1,63,64,0
1,73,64,0
1,68,64,0
1,66,64,0
1,78,64,0
1,68,64,0
1,77,64,0
1,68,64,0
1,66,64,0
1,73,64,0
1,68,64,0
1,66,64,0
1,78,64,0
1,68,64,0
1,77,64,0
1,68,64,0
1,66,64,0
1,73,64,0
1,68,64,0
1,66,64,0
1,78,64,0
1,68,64,0
1,77,64,0
1,68,64,0
1,61,64,0
1,73,64,0
1,68,64,0
1,66,64,0
1,78,64,0
1,68,64,0
1,77,64,0
1,68,64,0
1,61,64,0
1,73,64,0
1,68,64,0
1,66,64,0
1,78,64,0
1,68,64,0
1,77,64,0
1,68,64,0
1,61,64,0
1,73,64,0
1,68,64,0
1,66,64,0
1,78,64,0
1,68,64,0
1,77,64,0
1,68,64,0
1,61,64,0
1,73,64,0
1,68,64,0
1,66,64,0
1,78,64,0
1,68,64,0
1,77,64,0
1,68,64,0
1,63,64,0
1,73,64,0
1,68,64,0
1,66,64,0
1,78,64,0
1,68,64,0
1,77,64,0
1,68,64,0
1,63,64,0
1,73,64,0
1,68,64,0
1,66,64,0
1,78,64,0
1,68,64,0
1,77,64,0
1,68,64,0
1,66,64,0
1,73,64,0
1,68,64,0
1,66,64,0
1,78,64,0
1,68,64,0
1,77,64,0
1,68,64,0
1,66,64,0
1,73,64,0
1,68,64,0
1,66,64,0
1,78,64,0
1,68,64,0
1,77,64,0
1,68,64,0
1,75,64,0
1,68,64,0
1,73,64,0
1,68,64,0
1,78,64,0
1,68,64,0
1,80,64,0
1,68,64,0
1,82,64,0
1,68,64,0
1,80,64,0
1,68,64,0
1,78,64,0
1,68,64,0
1,73,64,0
1,68,64,0
1,80,64,0
1,77,64,0
1,68,64,0
1,72,78,11520
1,72,78,0
1,68,78,0
1,63,78,0
1,73,78,0
1,68,78,0
1,71,78,0
1,68,78,0
1,71,78,0
1,71,78,0
1,66,78,0
1,63,78,0
1,75,78,0
1,66,78,0
1,73,78,0
1,66,78,0
1,61,78,0
1,73,78,0
1,68,78,0
1,66,78,0
1,78,78,0
1,68,78,0
1,77,78,0
1,68,78,0
1,61,78,0
1,73,78,0
1,68,78,0
1,66,78,0
1,78,78,0
1,68,78,0
1,77,78,0
1,68,78,0
1,72,78,0
1,72,78,0
1,68,78,0
1,63,78,0
1,73,78,0
1,68,78,0
1,71,78,0
1,68,78,0
1,71,78,0
1,71,78,0
1,66,78,0
1,63,78,0
1,75,78,0
1,66,78,0
1,73,78,0
1,66,78,0
1,68,78,0
1,68,78,0
1,73,78,0
1,75,78,0
1,80,78,0
1,78,64,0
1,77,64,0
1,80,64,0
1,78,64,0
1,77,64,0
1,80,64,0
1,78,64,0
1,75,64,0
1,80,64,0
1,78,64,0
1,75,64,0
1,80,64,0
1,78,64,0
1,80,64,0
1,80,64,0
1,78,64,0
1,80,64,0
1,85,64,0
1,85,64,0
1,75,64,0
1,80,64,0
1,77,64,0
1,68,64,0
1,72,78,11520
1,72,78,0
1,68,78,0
1,63,78,0
1,73,78,0
1,68,78,0
1,71,78,0
1,68,78,0
1,71,78,0
1,71,78,0
1,66,78,0
1,63,78,0
1,75,78,0
1,66,78,0
1,73,78,0
1,66,78,0
1,61,78,0
1,73,78,0
1,68,78,0
1,66,78,0
1,78,78,0
1,68,78,0
1,77,78,0
1,68,78,0
1,61,78,0
1,73,78,0
1,68,78,0
1,66,78,0
1,78,78,0
1,68,78,0
1,77,78,0
1,68,78,0
1,72,78,0
1,72,78,0
1,68,78,0
1,63,78,0
1,73,78,0
1,68,78,0
1,71,78,0
1,68,78,0
1,71,78,0
1,71,78,0
1,66,78,0
1,63,78,0
1,75,78,0
1,66,78,0
1,73,78,0
1,66,78,0
1,68,78,0
1,68,78,0
1,73,78,0
1,75,78,0
1,80,78,0
1,78,64,0
1,77,64,0
1,80,64,0
1,78,64,0
1,77,64,0
1,80,64,0
1,78,64,0
1,75,64,0
1,80,64,0
1,78,64,0
1,75,64,0
1,80,64,0
1,80,64,0
1,77,64,0
1,68,64,0
1,72,78,11520
1,72,78,0
1,68,78,0
1,63,78,0
1,73,78,0
1,68,78,0
1,71,78,0
1,68,78,0
1,71,78,0
1,71,78,0
1,66,78,0
1,63,78,0
1,75,78,0
1,66,78,0
1,73,78,0
1,66,78,0
1,61,78,0
1,73,78,0
1,68,78,0
1,66,78,0
1,78,78,0
1,68,78,0
1,77,78,0
1,68,78,0
1,61,78,0
1,73,78,0
1,68,78,0
1,66,78,0
1,78,78,0
1,68,78,0
1,77,78,0
1,68,78,0
1,72,78,0
1,72,78,0
1,68,78,0
1,63,78,0
1,73,78,0
1,68,78,0
1,71,78,0
1,68,78,0
1,71,78,0
1,71,78,0
1,66,78,0
1,63,78,0
1,75,78,0
1,66,78,0
1,73,78,0
1,66,78,0
1,68,78,0
1,68,78,0
1,73,78,0
1,75,78,0
1,80,78,0
1,78,64,0
1,77,64,0
1,80,64,0
1,78,64,0
1,77,64,0
1,80,64,0
1,78,64,0
1,75,64,0
1,80,64,0
1,78,64,0
1,75,64,0
1,80,64,0
2,65,64,6144
2,61,64,0
2,56,64,0
2,49,64,0
2,65,64,0
2,61,64,0
2,56,64,0
2,49,64,0
2,49,64,0
2,56,64,0
2,61,64,0
2,65,64,0
2,66,64,0
2,61,64,0
2,56,64,0
2,49,64,0
2,65,64,0
2,65,64,0
2,66,64,0
2,56,64,0
2,61,64,0
2,65,64,0
2,56,64,0
2,61,64,0
2,56,64,0
2,49,64,0
2,63,64,0
2,59,64,0
2,54,64,0
2,51,64,0
2,47,64,0
2,61,64,0
2,63,64,0
2,59,64,0
2,54,64,0
2,51,64,0
2,47,64,0
2,61,64,0
2,54,64,0
2,51,64,0
2,47,64,0
2,59,64,0
2,54,64,0
2,59,64,0
2,54,64,0
2,61,64,0
2,54,64,0
2,49,64,0
2,46,64,0
2,66,64,0
2,54,64,0
2,54,64,0
2,49,64,0
2,46,64,0
2,66,64,0
2,58,64,0
2,61,64,0
2,56,64,0
2,49,64,0
2,61,64,0
2,56,64,0
2,49,64,0
2,61,64,0
2,56,64,0
2,49,64,0
2,61,64,0
2,56,64,0
2,49,64,0
2,61,64,0
2,56,64,0
2,49,64,0
2,61,64,0
2,56,64,0
2,49,64,0
2,61,64,0
2,56,64,0
2,49,64,0
2,66,64,0
2,61,64,0
2,56,64,0
2,49,64,0
2,65,64,0
2,61,64,0
2,56,64,0
2,49,64,0
2,63,64,0
2,61,64,0
2,56,64,0
2,49,64,0
2,61,64,0
2,56,64,0
2,49,64,0
2,65,64,0
2,63,64,0
2,61,64,0
2,56,64,0
2,49,64,0
2,65,64,0
2,61,64,0
2,56,64,0
2,49,64,0
2,65,64,0
2,61,64,0
2,56,64,0
2,49,64,0
2,49,64,0
2,56,64,0
2,61,64,0
2,65,64,0
2,66,64,0
2,61,64,0
2,56,64,0
2,49,64,0
2,65,64,0
2,65,64,0
2,66,64,0
2,56,64,0
2,61,64,0
2,65,64,0
2,56,64,0
2,61,64,0
2,56,64,0
2,49,64,0
2,63,64,0
2,59,64,0
2,54,64,0
2,51,64,0
2,47,64,0
2,61,64,0
2,63,64,0
2,59,64,0
2,54,64,0
2,51,64,0
2,47,64,0
2,61,64,0
2,54,64,0
2,51,64,0
2,47,64,0
2,59,64,0
2,54,64,0
2,59,64,0
2,54,64,0
2,61,64,0
2,54,64,0
2,49,64,0
2,46,64,0
2,66,64,0
2,54,64,0
2,54,64,0
2,49,64,0
2,46,64,0
2,66,64,0
2,58,64,0
2,61,64,0
2,56,64,0
2,49,64,0
2,61,64,0
2,56,64,0
2,49,64,0
2,61,64,0
2,56,64,0
2,49,64,0
2,61,64,0
2,56,64,0
2,49,64,0
2,61,64,0
2,56,64,0
2,49,64,0
2,61,64,0
2,56,64,0
2,49,64,0
2,61,64,0
2,56,64,0
2,49,64,0
2,66,64,0
2,61,64,0
2,56,64,0
2,49,64,0
2,65,64,0
2,61,64,0
2,56,64,0
2,49,64,0
2,63,64,0
2,61,64,0
2,56,64,0
2,49,64,0
2,61,64,0
2,56,64,0
2,49,64,0
2,65,64,0
2,63,64,0
2,61,64,0
2,56,64,0
2,49,64,0
2,65,64,0
2,61,64,0
2,56,64,0
2,49,64,0
2,65,64,0
2,61,64,0
2,56,64,0
2,49,64,0
2,49,64,0
2,56,64,0
2,61,64,0
2,65,64,0
2,66,64,0
2,61,64,0
2,56,64,0
2,49,64,0
2,65,64,0
2,65,64,0
2,66,64,0
2,56,64,0
2,61,64,0
2,65,64,0
2,56,64,0
2,61,64,0
2,56,64,0
2,49,64,0
2,63,64,0
2,59,64,0
2,54,64,0
2,51,64,0
2,47,64,0
2,61,64,0
2,63,64,0
2,59,64,0
2,54,64,0
2,51,64,0
2,47,64,0
2,61,64,0
2,54,64,0
2,51,64,0
2,47,64,0
2,59,64,0
2,54,64,0
2,59,64,0
2,54,64,0
2,61,64,0
2,54,64,0
2,49,64,0
2,46,64,0
2,66,64,0
2,54,64,0
2,54,64,0
2,49,64,0
2,46,64,0
2,66,64,0
2,58,64,0
2,61,64,0
2,56,64,0
2,49,64,0
2,61,64,0
2,56,64,0
2,49,64,0
2,61,64,0
2,56,64,0
2,49,64,0
2,61,64,0
2,56,64,0
2,49,64,0
2,61,64,0
2,56,64,0
2,49,64,0
2,61,64,0
2,56,64,0
2,49,64,0
2,61,64,0
2,56,64,0
2,49,64,0
2,66,64,0
2,61,64,0
2,56,64,0
2,49,64,0
2,65,64,0
2,61,64,0
2,56,64,0
2,49,64,0
2,63,64,0
2,61,64,0
2,56,64,0
2,49,64,0
2,61,64,0
2,56,64,0
2,49,64,0
2,65,64,0
2,63,64,0
2,61,64,0
2,56,64,0
2,49,64,0
2,65,64,0
2,61,64,0
2,56,64,0
2,49,64,0
2,65,64,0
2,61,64,0
2,56,64,0
2,49,64,0
2,49,64,0
2,56,64,0
2,61,64,0
2,65,64,0
2,66,64,0
2,61,64,0
2,56,64,0
2,49,64,0
2,65,64,0
2,65,64,0
2,66,64,0
2,56,64,0
2,61,64,0
2,65,64,0
2,56,64,0
2,61,64,0
2,56,64,0
2,49,64,0
2,63,64,0
2,59,64,0
2,54,64,0
2,51,64,0
2,47,64,0
2,61,64,0
2,63,64,0
2,59,64,0
2,54,64,0
2,51,64,0
2,47,64,0
2,61,64,0
2,54,64,0
2,51,64,0
2,47,64,0
2,59,64,0
2,54,64,0
2,59,64,0
2,54,64,0
2,61,64,0
2,54,64,0
2,49,64,0
2,46,64,0
2,66,64,0
2,54,64,0
2,54,64,0
2,49,64,0
2,46,64,0
2,66,64,0
2,58,64,0
2,61,64,0
2,56,64,0
2,49,64,0
2,61,64,0
2,56,64,0
2,49,64,0
2,61,64,0
2,56,64,0
2,49,64,0
2,61,64,0
2,56,64,0
2,49,64,0
2,61,64,0
2,56,64,0
2,49,64,0
2,61,64,0
2,56,64,0
2,49,64,0
2,61,64,0
2,56,64,0
2,49,64,0
2,66,78,0
2,61,78,0
2,56,78,0
2,61,78,0
2,56,78,0
2,65,78,0
2,61,78,0
2,56,78,0
2,49,78,0
2,44,78,0
2,44,78,96
2,44,78,0
2,46,78,0
2,46,78,0
2,47,78,0
2,47,78,96
2,49,78,0
2,49,78,96
2,49,78,0
2,49,78,96
2,49,78,0
2,49,78,0
2,49,78,0
2,49,78,0
2,44,78,0
2,44,78,96
2,44,78,0
2,46,78,0
2,46,78,0
2,47,78,0
2,47,78,96
2,49,78,0
2,49,78,96
2,49,78,0
2,49,78,96
2,49,78,0
2,49,78,0
2,49,78,0
2,49,78,0
2,65,64,0
2,61,64,0
2,56,64,0
2,49,64,0
2,65,64,0
2,61,64,0
2,56,64,0
2,49,64,0
2,49,64,0
2,56,64,0
2,61,64,0
2,65,64,0
2,66,64,0
2,61,64,0
2,56,64,0
2,49,64,0
2,65,64,0
2,65,64,0
2,66,64,0
2,56,64,0
2,61,64,0
2,65,64,0
2,56,64,0
2,61,64,0
2,56,64,0
2,49,64,0
2,63,64,0
2,59,64,0
2,54,64,0
2,51,64,0
2,47,64,0
2,61,64,0
2,63,64,0
2,59,64,0
2,54,64,0
2,51,64,0
2,47,64,0
2,61,64,0
2,54,64,0
2,51,64,0
2,47,64,0
2,59,64,0
2,54,64,0
2,59,64,0
2,54,64,0
2,61,64,0
2,54,64,0
2,49,64,0
2,46,64,0
2,66,64,0
2,54,64,0
2,54,64,0
2,49,64,0
2,46,64,0
2,66,64,0
2,58,64,0
2,61,64,0
2,56,64,0
2,49,64,0
2,61,64,0
2,56,64,0
2,49,64,0
2,61,64,0
2,56,64,0
2,49,64,0
2,61,64,0
2,56,64,0
2,49,64,0
2,61,64,0
2,56,64,0
2,49,64,0
2,61,64,0
2,56,64,0
2,49,64,0
2,61,64,0
2,56,64,0
2,49,64,0
2,66,64,0
2,61,64,0
2,56,64,0
2,49,64,0
2,65,64,0
2,61,64,0
2,56,64,0
2,49,64,0
2,63,64,0
2,61,64,0
2,56,64,0
2,49,64,0
2,61,64,0
2,56,64,0
2,49,64,0
2,65,64,0
2,63,64,0
2,61,64,0
2,56,64,0
2,49,64,0
2,65,64,0
2,61,64,0
2,56,64,0
2,49,64,0
2,65,64,0
2,61,64,0
2,56,64,0
2,49,64,0
2,49,64,0
2,56,64,0
2,61,64,0
2,65,64,0
2,66,64,0
2,61,64,0
2,56,64,0
2,49,64,0
2,65,64,0
2,65,64,0
2,66,64,0
2,56,64,0
2,61,64,0
2,65,64,0
2,56,64,0
2,61,64,0
2,56,64,0
2,49,64,0
2,63,64,0
2,59,64,0
2,54,64,0
2,51,64,0
2,47,64,0
2,61,64,0
2,63,64,0
2,59,64,0
2,54,64,0
2,51,64,0
2,47,64,0
2,61,64,0
2,54,64,0
2,51,64,0
2,47,64,0
2,59,64,0
2,54,64,0
2,59,64,0
2,54,64,0
2,61,64,0
2,54,64,0
2,49,64,0
2,46,64,0
2,66,64,0
2,54,64,0
2,54,64,0
2,49,64,0
2,46,64,0
2,66,64,0
2,58,64,0
2,61,64,0
2,56,64,0
2,49,64,0
2,61,64,0
2,56,64,0
2,49,64,0
2,61,64,0
2,56,64,0
2,49,64,0
2,61,64,0
2,56,64,0
2,49,64,0
2,61,64,0
2,56,64,0
2,49,64,0
2,61,64,0
2,56,64,0
2,49,64,0
2,61,64,0
2,56,64,0
2,49,64,0
2,66,64,0
2,61,64,0
2,56,64,0
2,49,64,0
2,65,64,0
2,61,64,0
2,56,64,0
2,49,64,0
2,63,64,0
2,61,64,0
2,56,64,0
2,49,64,0
2,61,64,0
2,56,64,0
2,49,64,0
