track,note,velocity,time
1,79,50,2208
1,79,0,94
1,83,50,2
1,83,0,574
1,81,50,2
1,81,0,94
1,79,50,2
1,79,50,96
1,79,0,2
1,81,50,382
1,79,0,2
1,81,0,92
1,83,50,2
1,83,0,286
1,81,50,2
1,81,0,190
1,79,50,2
1,79,0,94
1,76,50,2
1,76,0,94
1,76,50,2
1,76,0,382
1,83,50,386
1,83,0,94
1,81,50,2
1,81,0,94
1,79,50,2
1,79,0,94
1,81,50,2
1,81,0,94
1,81,50,2
1,81,0,574
1,78,50,2
1,78,0,190
1,76,50,2
1,76,0,190
1,74,50,2
1,74,0,382
1,79,50,386
1,79,0,190
1,79,50,2
1,79,0,94
1,81,50,2
1,81,0,190
1,83,50,98
1,83,0,190
1,86,50,2
1,86,0,94
1,83,50,2
1,83,0,94
1,83,50,2
1,83,0,94
1,81,50,2
1,81,0,94
1,79,50,2
1,79,0,190
1,83,50,194
1,83,0,94
1,81,50,2
1,81,0,94
1,83,50,2
1,83,0,190
1,81,50,2
1,81,0,94
1,79,50,2
1,79,0,94
1,79,50,2
1,79,0,574
1,81,50,386
1,81,0,94
1,79,50,2
1,79,0,94
1,81,50,2
1,81,0,94
1,79,50,2
1,79,0,94
1,76,50,2
1,76,0,94
1,81,50,2
1,81,0,94
1,81,50,2
1,81,0,94
1,79,50,2
1,79,0,94
1,76,50,2
1,76,0,94
1,81,50,2
1,81,0,94
1,81,50,2
1,81,0,190
1,83,50,2
1,83,0,190
1,78,50,2
1,78,0,574
1,76,50,2
1,76,0,94
1,74,50,2
1,74,0,94
1,74,50,2
1,74,0,574
1,79,50,482
1,79,0,94
1,81,50,2
1,81,0,94
1,79,50,2
1,79,0,190
1,83,50,2
1,83,0,94
1,81,50,2
1,81,0,94
1,79,50,2
1,79,0,286
1,79,50,2
1,79,0,190
1,84,50,386
1,84,0,94
1,83,50,2
1,83,0,94
1,81,50,2
1,81,0,190
1,79,50,2
1,79,0,94
1,76,50,2
1,76,0,94
1,76,50,2
1,76,0,190
1,79,50,2
1,79,0,94
1,79,50,2
1,79,0,94
1,81,50,2
1,81,0,94
1,79,50,2
1,79,0,94
1,76,50,2
1,76,0,190
1,72,50,194
1,72,0,190
1,76,50,2
1,76,0,94
1,79,50,2
1,79,0,190
1,76,50,2
1,76,0,94
1,76,50,2
1,76,0,190
1,74,50,2
1,74,0,190
1,67,50,2
1,67,0,190
1,79,50,2
1,79,0,190
1,78,50,2
1,78,0,382
1,79,50,2
1,79,0,382
1,81,50,2
1,81,0,574
1,67,50,0
1,67,0,94
1,67,50,2
1,67,0,94
1,67,50,2
1,67,0,190
1,67,50,2
1,67,0,94
1,67,50,2
1,67,0,94
1,69,50,2
1,69,0,94
1,69,50,2
1,69,0,94
1,71,50,2
1,71,0,94
1,67,50,2
1,67,0,94
1,67,50,2
1,67,0,190
1,62,50,290
1,62,0,94
1,71,50,2
1,71,0,94
1,71,50,2
1,71,0,94
1,71,50,2
1,71,0,94
1,69,50,2
1,69,0,94
1,67,50,2
1,67,0,94
1,67,50,2
1,67,0,94
1,67,50,2
1,67,0,190
1,69,50,770
1,69,0,94
1,69,50,2
1,69,0,94
1,69,50,2
1,69,0,190
1,69,50,2
1,69,0,94
1,71,50,2
1,71,0,94
1,71,50,2
1,71,0,94
1,69,50,2
1,69,0,190
1,69,50,2
1,69,0,94
1,69,50,2
1,69,0,94
1,69,50,2
1,69,0,190
1,66,50,2
1,66,0,94
1,66,50,2
1,66,0,94
1,64,50,2
1,64,0,94
1,62,50,2
1,62,0,382
1,67,50,1154
1,67,0,94
1,67,50,2
1,67,0,94
1,67,50,2
1,67,0,190
1,67,50,2
1,67,0,94
1,67,50,2
1,67,0,94
1,69,50,2
1,69,0,94
1,69,50,2
1,69,0,94
1,71,50,2
1,71,0,94
1,67,50,2
1,67,0,94
1,67,50,2
1,67,0,190
1,69,50,2
1,69,0,94
1,67,50,2
1,67,0,94
1,71,50,194
1,71,0,94
1,71,50,2
1,71,0,94
1,71,50,2
1,71,0,94
1,69,50,2
1,69,0,94
1,67,50,2
1,67,0,94
1,67,50,2
1,67,0,94
1,67,50,2
1,67,0,382
1,57,50,674
1,57,0,94
1,69,50,2
1,69,0,94
1,69,50,2
1,69,0,190
1,71,50,2
1,71,0,94
1,71,50,2
1,71,0,94
1,69,50,2
1,69,0,190
1,69,50,2
1,69,0,94
1,69,50,2
1,69,0,94
1,69,50,2
1,69,0,190
1,66,50,2
1,66,0,94
1,66,50,2
1,66,0,94
1,64,50,2
1,64,0,94
1,62,50,2
1,62,0,382
1,72,50,1154
1,72,0,190
1,72,50,2
1,72,0,94
1,72,50,2
1,72,0,94
1,74,50,2
1,74,0,190
1,67,50,2
1,67,0,94
1,67,50,2
1,67,0,190
1,67,50,2
1,67,0,94
1,67,50,2
1,67,0,190
1,67,50,2
1,67,0,94
1,64,50,2
1,64,0,94
1,72,50,2
1,72,0,190
1,72,50,2
1,72,0,94
1,72,50,2
1,72,0,94
1,72,50,2
1,72,0,94
1,71,50,2
1,71,0,190
1,64,50,2
1,64,0,94
1,64,50,2
1,64,0,190
1,72,50,578
1,72,0,190
1,72,50,2
1,72,0,94
1,72,50,2
1,72,0,94
1,72,50,2
1,72,0,94
1,72,50,2
1,72,0,286
1,72,50,2
1,72,0,190
1,71,50,2
1,71,0,94
1,69,50,2
1,69,0,94
1,67,50,2
1,67,0,94
1,67,50,2
1,67,0,190
1,71,50,2
1,71,0,94
1,71,50,2
1,71,0,94
1,69,50,2
1,69,0,286
1,72,50,1346
1,72,0,190
1,72,50,2
1,72,0,94
1,72,50,2
1,72,0,94
1,74,50,2
1,74,0,190
1,67,50,2
1,67,0,94
1,67,50,2
1,67,0,190
1,67,50,2
1,67,0,190
1,67,50,2
1,67,0,94
1,67,50,2
1,67,0,94
1,64,50,2
1,64,0,94
1,72,50,2
1,72,0,190
1,72,50,2
1,72,0,94
1,72,50,2
1,72,0,94
1,72,50,2
1,72,0,94
1,71,50,2
1,71,0,190
1,64,50,2
1,64,0,94
1,64,50,2
1,64,0,190
1,72,50,578
1,72,0,190
1,72,50,2
1,72,0,94
1,72,50,2
1,72,0,94
1,72,50,2
1,72,0,94
1,72,50,2
1,72,0,190
1,72,50,2
1,72,0,94
1,72,50,2
1,72,0,94
1,71,50,2
1,71,0,190
1,69,50,2
1,69,0,94
1,67,50,2
1,67,0,94
1,67,50,2
1,67,0,190
1,71,50,2
1,71,0,94
1,71,50,2
1,71,0,94
1,69,50,2
1,69,0,286
1,79,50,866
1,79,0,286
1,79,50,2
1,79,0,382
1,81,50,290
1,81,0,94
1,81,50,2
1,81,0,94
1,81,50,2
1,81,0,286
1,74,50,770
1,74,0,382
1,74,50,2
1,74,0,382
1,74,50,2
1,74,0,126
1,71,50,2
1,71,0,126
1,71,50,2
1,71,0,126
1,71,50,2
1,71,0,190
1,69,50,2
1,69,0,382
1,67,50,0
1,67,0,94
1,67,50,2
1,67,0,94
1,67,50,2
1,67,0,190
1,67,50,2
1,67,0,94
1,67,50,2
1,67,0,94
1,69,50,2
1,69,0,94
1,69,50,2
1,69,0,94
1,71,50,2
1,71,0,94
1,67,50,2
1,67,0,94
1,67,50,2
1,67,0,190
1,62,50,290
1,62,0,94
1,71,50,2
1,71,0,94
1,71,50,2
1,71,0,94
1,71,50,2
1,71,0,94
1,69,50,2
1,69,0,94
1,67,50,2
1,67,0,94
1,67,50,2
1,67,0,94
1,67,50,2
1,67,0,190
1,69,50,770
1,69,0,94
1,69,50,2
1,69,0,94
1,69,50,2
1,69,0,190
1,69,50,2
1,69,0,94
1,71,50,2
1,71,0,94
1,71,50,2
1,71,0,94
1,69,50,2
1,69,0,190
1,69,50,2
1,69,0,94
1,69,50,2
1,69,0,94
1,69,50,2
1,69,0,190
1,66,50,2
1,66,0,94
1,66,50,2
1,66,0,94
1,64,50,2
1,64,0,94
1,62,50,2
1,62,0,382
1,67,50,1154
1,67,0,94
1,67,50,2
1,67,0,94
1,67,50,2
1,67,0,190
1,67,50,2
1,67,0,94
1,67,50,2
1,67,0,94
1,69,50,2
1,69,0,94
1,69,50,2
1,69,0,94
1,71,50,2
1,71,0,94
1,67,50,2
1,67,0,94
1,67,50,2
1,67,0,190
1,69,50,2
1,69,0,94
1,67,50,2
1,67,0,94
1,71,50,194
1,71,0,94
1,71,50,2
1,71,0,94
1,71,50,2
1,71,0,94
1,69,50,2
1,69,0,94
1,67,50,2
1,67,0,94
1,67,50,2
1,67,0,94
1,67,50,2
1,67,0,382
1,57,50,674
1,57,0,94
1,69,50,2
1,69,0,94
1,69,50,2
1,69,0,190
1,71,50,2
1,71,0,94
1,71,50,2
1,71,0,94
1,69,50,2
1,69,0,190
1,69,50,2
1,69,0,94
1,69,50,2
1,69,0,94
1,69,50,2
1,69,0,190
1,66,50,2
1,66,0,94
1,66,50,2
1,66,0,94
1,64,50,2
1,64,0,94
1,62,50,2
1,62,0,382
1,72,50,1154
1,72,0,190
1,72,50,2
1,72,0,94
1,72,50,2
1,72,0,94
1,74,50,2
1,74,0,190
1,67,50,2
1,67,0,94
1,67,50,2
1,67,0,190
1,67,50,2
1,67,0,94
1,67,50,2
1,67,0,190
1,67,50,2
1,67,0,94
1,64,50,2
1,64,0,94
1,72,50,2
1,72,0,190
1,72,50,2
1,72,0,94
1,72,50,2
1,72,0,94
1,72,50,2
1,72,0,94
1,71,50,2
1,71,0,190
1,64,50,2
1,64,0,94
1,64,50,2
1,64,0,190
1,72,50,578
1,72,0,190
1,72,50,2
1,72,0,94
1,72,50,2
1,72,0,94
1,72,50,2
1,72,0,94
1,72,50,2
1,72,0,286
1,72,50,2
1,72,0,190
1,71,50,2
1,71,0,94
1,69,50,2
1,69,0,94
1,67,50,2
1,67,0,94
1,67,50,2
1,67,0,190
1,71,50,2
1,71,0,94
1,71,50,2
1,71,0,94
1,69,50,2
1,69,0,286
1,72,50,1346
1,72,0,190
1,72,50,2
1,72,0,94
1,72,50,2
1,72,0,94
1,74,50,2
1,74,0,190
1,67,50,2
1,67,0,94
1,67,50,2
1,67,0,190
1,67,50,2
1,67,0,190
1,67,50,2
1,67,0,94
1,67,50,2
1,67,0,94
1,64,50,2
1,64,0,94
1,72,50,2
1,72,0,190
1,72,50,2
1,72,0,94
1,72,50,2
1,72,0,94
1,72,50,2
1,72,0,94
1,71,50,2
1,71,0,190
1,64,50,2
1,64,0,190
1,64,50,2
1,64,0,94
1,72,50,578
1,72,0,190
1,72,50,2
1,72,0,94
1,72,50,2
1,72,0,94
1,72,50,2
1,72,0,94
1,72,50,2
1,72,0,190
1,72,50,2
1,72,0,94
1,72,50,2
1,72,0,94
1,71,50,2
1,71,0,190
1,69,50,2
1,69,0,94
1,67,50,2
1,67,0,94
1,67,50,2
1,67,0,190
1,71,50,2
1,71,0,94
1,71,50,2
1,71,0,94
1,69,50,2
1,69,0,286
1,79,50,866
1,79,0,286
1,79,50,2
1,79,0,382
1,81,50,290
1,81,0,94
1,81,50,2
1,81,0,94
1,81,50,2
1,81,0,286
1,74,50,770
1,74,0,382
1,74,50,2
1,74,0,382
1,74,50,2
1,74,0,126
1,71,50,2
1,71,0,126
1,71,50,2
1,71,0,126
1,71,50,2
1,71,0,190
1,69,50,2
1,69,0,382
1,62,50,3648
1,62,0,46
1,59,50,2
1,59,0,142
1,66,50,2
1,66,0,46
1,64,50,2
1,64,0,46
1,62,50,2
1,62,0,286
1,67,50,194
1,67,0,190
1,67,50,2
1,67,0,94
1,66,50,2
1,66,0,94
1,62,50,2
1,62,0,190
1,67,50,194
1,67,0,94
1,69,50,2
1,69,0,94
1,66,50,2
1,66,0,46
1,64,50,2
1,64,0,46
1,62,50,2
1,62,0,286
1,62,50,98
1,62,0,46
1,59,50,2
1,59,0,46
1,62,50,2
1,62,0,46
1,59,50,2
1,59,0,142
1,66,50,2
1,66,0,94
1,62,50,2
1,62,0,190
1,66,50,98
1,66,0,382
1,62,50,2
1,62,0,190
1,62,50,290
1,62,0,46
1,59,50,2
1,59,0,46
1,62,50,2
1,62,0,46
1,59,50,2
1,59,0,142
1,66,50,2
1,66,0,94
1,62,50,2
1,62,0,94
1,66,50,194
1,66,0,382
1,62,50,2
1,62,0,190
1,62,50,386
1,62,0,46
1,62,50,2
1,62,0,94
1,66,50,2
1,66,0,46
1,66,50,2
1,66,0,94
1,62,50,2
1,62,0,94
1,66,50,194
1,66,0,382
1,62,50,2
1,62,0,190
1,67,50,386
1,67,0,46
1,67,50,2
1,67,0,94
1,66,50,2
1,66,0,46
1,66,50,2
1,66,0,46
1,64,50,2
1,64,0,46
1,62,50,2
1,62,0,94
1,66,50,194
1,66,0,382
1,62,50,2
1,62,0,190
1,62,50,338
1,62,0,46
1,66,50,2
1,66,0,46
1,64,50,2
1,64,0,46
1,62,50,2
1,62,0,46
1,66,50,2
1,66,0,46
1,66,50,2
1,66,0,94
1,62,50,2
1,62,0,94
1,66,50,194
1,66,0,382
1,62,50,2
1,62,0,190
1,67,50,290
1,67,0,46
1,67,50,2
1,67,0,46
1,67,50,2
1,67,0,94
1,67,50,2
1,67,0,94
1,66,50,2
1,66,0,94
1,62,50,2
1,62,0,94
1,66,50,194
1,66,0,382
1,62,50,2
1,62,0,190
1,66,50,290
1,66,0,46
1,62,50,2
1,62,0,46
1,66,50,2
1,66,0,94
1,62,50,2
1,62,0,46
1,65,50,2
1,65,0,46
1,65,50,2
1,65,0,94
1,62,50,2
1,62,0,94
1,69,50,290
1,69,0,46
1,69,50,2
1,69,0,46
1,69,50,2
1,69,0,46
1,69,50,2
1,69,0,142
1,67,50,2
1,67,0,46
1,65,50,2
1,65,0,46
1,62,50,2
1,62,0,94
1,59,50,290
1,59,0,46
1,62,50,2
1,62,0,46
1,62,50,2
1,62,0,94
1,59,50,2
1,59,0,46
1,62,50,2
1,62,0,46
1,62,50,2
1,62,0,766
2,60,50,768
2,64,50,0
2,60,0,94
2,64,0,0
2,64,50,2
2,64,0,94
2,67,50,2
2,67,0,94
2,72,50,2
2,76,50,0
2,72,50,96
2,76,50,0
2,72,0,2
2,76,0,0
2,72,50,94
2,76,50,0
2,72,0,2
2,76,0,0
2,72,0,92
2,76,0,0
2,67,50,2
2,72,50,0
2,67,0,94
2,72,0,0
2,67,50,2
2,72,50,0
2,67,0,94
2,72,0,0
2,67,50,2
2,74,50,0
2,72,50,96
2,67,0,2
2,74,0,0
2,67,50,94
2,72,50,0
2,72,0,2
2,67,0,92
2,72,0,0
2,67,50,2
2,71,50,0
2,72,50,96
2,67,0,2
2,71,0,0
2,67,50,94
2,72,50,0
2,72,0,2
2,67,0,92
2,72,0,0
2,67,50,2
2,72,50,0
2,71,50,96
2,67,0,2
2,72,0,0
2,59,50,94
2,71,0,2
2,59,0,92
2,62,50,2
2,62,0,94
2,67,50,2
2,67,0,94
2,71,50,2
2,71,0,94
2,71,50,2
2,71,0,94
2,67,50,2
2,67,0,94
2,64,50,2
2,64,0,94
2,59,50,2
2,59,0,94
2,72,50,2
2,72,0,94
2,71,50,2
2,71,0,94
2,67,50,2
2,67,0,94
2,69,50,2
2,69,0,94
2,67,50,2
2,67,0,94
2,62,50,2
2,62,0,94
2,62,50,2
2,67,50,0
2,62,0,94
2,67,0,0
2,64,50,2
2,69,50,0
2,64,0,94
2,69,0,0
2,57,50,2
2,57,0,190
2,73,50,2
2,73,0,94
2,69,50,2
2,69,0,94
2,64,50,2
2,64,0,94
2,69,50,2
2,69,0,94
2,64,50,2
2,64,0,94
2,71,50,2
2,71,0,94
2,74,50,2
2,74,0,94
2,73,50,2
2,73,0,94
2,64,50,2
2,69,50,0
2,64,0,94
2,69,0,0
2,67,50,2
2,71,50,0
2,67,0,94
2,71,0,0
2,69,50,2
2,72,50,0
2,69,0,94
2,72,0,0
2,69,50,2
2,72,50,0
2,69,0,94
2,72,0,0
2,64,50,2
2,69,50,0
2,64,0,94
2,69,0,0
2,62,50,2
2,67,50,0
