track,note,velocity,time
1,69,100,13448
1,73,100,12
1,71,100,16
1,71,100,16
1,71,100,0
1,69,100,16
1,69,100,1168
1,73,100,4
1,71,100,16
1,71,100,16
1,71,100,12
1,69,100,12
1,76,100,1164
1,78,100,12
1,76,100,12
1,76,100,20
1,74,100,12
1,74,100,20
1,78,100,788
1,76,100,16
1,76,100,16
1,74,100,8
1,74,100,20
1,73,100,8
1,73,100,8
1,69,100,1160
1,73,100,32
1,71,100,16
1,71,100,8
1,71,100,24
1,69,100,8
1,76,100,1160
1,78,100,16
1,76,100,16
1,76,100,8
1,74,100,8
1,74,100,20
1,78,100,792
1,76,100,12
1,74,100,16
1,74,100,8
1,73,100,16
1,73,100,24
1,66,100,1352
1,69,100,8
1,69,100,16
1,69,100,8
1,71,100,20
1,66,100,20
1,69,100,16
1,69,100,584
1,71,100,20
1,71,100,12
1,69,100,8
1,71,100,12
1,69,100,20
1,71,100,12
1,73,100,12
1,66,100,596
1,69,100,16
1,69,100,16
1,71,100,16
1,71,100,16
1,66,100,8
1,69,100,12
1,66,100,404
1,73,100,8
1,71,100,24
1,71,100,776
1,73,100,20
1,71,100,8
1,69,100,4
1,69,100,1556
1,69,100,0
1,69,100,12
1,73,100,20
1,73,100,8
1,73,100,12
1,76,100,16
1,76,100,16
1,76,100,8
1,78,100,8
1,81,100,20
1,78,100,16
1,76,100,12
1,73,100,1160
1,71,100,8
1,69,100,8
1,69,100,12
1,69,100,12
1,73,100,12
1,73,100,20
1,73,100,8
1,76,100,20
1,76,100,180
1,76,100,20
1,78,100,16
1,81,100,8
1,81,100,8
1,78,100,24
1,78,100,1940
1,76,100,12
1,76,100,12
1,76,100,20
1,76,100,16
1,76,100,4
1,76,100,8
1,76,100,24
1,78,100,16
1,76,100,0
1,76,100,24
1,76,100,12
1,76,100,4
1,73,100,20
1,78,100,20
1,76,100,8
1,73,100,1172
1,71,100,12
1,69,100,16
1,69,100,24
1,69,100,8
1,73,100,16
1,73,100,8
1,73,100,24
1,76,100,4
1,76,100,12
1,76,100,16
1,78,100,20
1,81,100,12
1,81,100,20
1,78,100,28
1,69,100,1540
1,73,100,24
1,71,100,0
1,71,100,20
1,71,100,0
1,69,100,24
1,69,100,1164
1,73,100,16
1,71,100,12
1,71,100,8
1,71,100,16
1,69,100,8
1,76,100,1180
1,78,100,0
1,76,100,12
1,76,100,16
1,74,100,4
1,74,100,24
1,78,100,780
1,76,100,0
1,76,100,4
1,74,100,24
1,74,100,12
1,73,100,16
1,73,100,16
1,66,100,1360
1,73,100,16
1,71,100,24
1,71,100,12
1,71,100,8
1,69,100,28
1,69,100,1168
1,73,100,8
1,71,100,12
1,71,100,24
1,71,100,12
1,69,100,8
1,69,100,1160
1,69,100,24
1,69,100,16
1,69,100,8
1,71,100,12
1,66,100,12
1,69,100,16
1,69,100,596
1,71,100,12
1,71,100,20
1,69,100,0
1,71,100,8
1,69,100,8
1,71,100,16
1,73,100,16
1,66,100,592
1,69,100,12
1,69,100,24
1,71,100,16
1,71,100,20
1,66,100,8
1,69,100,12
1,66,100,404
1,73,100,24
1,71,100,12
1,71,100,764
1,73,100,20
1,71,100,8
1,69,100,16
1,69,100,1548
1,69,100,8
1,69,100,0
1,73,100,24
1,73,100,12
1,73,100,24
1,76,100,8
1,76,100,24
1,76,100,12
1,78,100,24
1,81,100,8
1,78,100,16
1,76,100,20
1,73,100,1160
1,71,100,20
1,69,100,12
1,69,100,12
1,69,100,20
1,73,100,372
1,73,100,28
1,73,100,12
1,76,100,16
1,76,100,8
1,76,100,12
1,78,100,16
1,81,100,16
1,81,100,8
1,78,100,20
1,78,100,1928
1,76,100,12
1,76,100,12
1,76,100,28
1,76,100,0
1,76,100,24
1,76,100,16
1,76,100,16
1,78,100,12
1,76,100,4
1,76,100,8
1,76,100,28
1,76,100,12
1,73,100,20
1,78,100,12
1,76,100,16
1,73,100,1176
1,71,100,0
1,69,100,16
1,69,100,16
1,69,100,12
1,73,100,20
1,73,100,8
1,73,100,24
1,76,100,4
1,76,100,20
1,76,100,16
1,78,100,8
1,81,100,12
1,81,100,24
1,78,100,4
1,69,100,1932
1,69,100,12
1,69,100,8
1,73,100,12
1,73,100,8
1,73,100,12
1,76,100,8
1,76,100,8
1,76,100,16
1,78,100,16
1,81,100,12
1,78,100,4
1,76,100,8
1,73,100,1164
1,71,100,16
1,69,100,20
1,69,100,8
1,69,100,20
1,73,100,16
1,73,100,8
1,73,100,4
1,76,100,8
1,76,100,12
1,76,100,0
1,78,100,20
1,81,100,20
1,81,100,12
1,78,100,8
1,78,100,1944
1,76,100,16
1,76,100,4
1,76,100,12
1,76,100,16
1,76,100,8
1,76,100,20
1,76,100,8
1,78,100,4
1,76,100,16
1,76,100,20
1,76,100,8
1,76,100,20
1,73,100,4
1,78,100,12
1,76,100,8
1,73,100,1168
1,71,100,0
1,69,100,12
1,69,100,20
1,69,100,16
1,73,100,8
1,73,100,20
1,73,100,4
1,76,100,20
1,76,100,8
1,76,100,12
1,78,100,8
1,81,100,12
1,81,100,20
1,78,100,12
1,69,100,1536
1,73,100,16
1,71,100,8
1,71,100,12
1,71,100,8
1,69,100,12
1,69,100,1180
1,73,100,12
1,71,100,16
1,71,100,20
1,71,100,16
1,69,100,4
1,76,100,1168
1,78,100,12
1,76,100,16
1,76,100,12
1,74,100,20
1,74,100,0
1,78,100,776
1,76,100,16
1,76,100,12
1,74,100,28
1,74,100,12
1,73,100,4
1,73,100,20
1,66,100,1156
1,73,100,16
1,71,100,8
1,71,100,20
1,71,100,20
1,69,100,0
1,69,100,1164
1,73,100,16
1,71,100,12
1,71,100,12
1,71,100,16
1,69,100,12
1,69,100,1168
1,69,100,4
1,69,100,12
1,69,100,20
1,71,100,20
1,66,100,0
1,69,100,20
1,69,100,592
1,71,100,180
1,71,100,12
1,69,100,24
1,71,100,0
1,69,100,4
1,71,100,20
1,73,100,8
1,66,100,596
1,69,100,12
1,69,100,180
1,71,100,24
1,71,100,4
1,66,100,24
1,69,100,0
1,66,100,408
1,73,100,0
1,71,100,20
1,71,100,772
1,73,100,8
1,71,100,16
1,69,100,8
1,69,100,1560
1,69,100,8
1,69,100,24
1,73,100,12
1,73,100,16
1,73,100,4
1,76,100,12
1,76,100,24
1,76,100,12
1,78,100,20
1,81,100,4
1,78,100,28
1,76,100,0
1,73,100,1176
1,71,100,12
1,69,100,8
1,69,100,16
1,69,100,16
1,73,100,0
1,73,100,28
1,73,100,8
1,76,100,16
1,76,100,12
1,76,100,20
1,78,100,12
1,81,100,20
1,81,100,8
1,78,100,8
1,78,100,1928
1,76,100,24
1,76,100,4
1,76,100,12
1,76,100,16
1,76,100,12
1,76,100,4
1,76,100,16
1,78,100,20
1,76,100,20
1,76,100,8
1,76,100,0
1,76,100,20
1,73,100,16
1,78,100,16
1,76,100,4
1,73,100,1160
1,71,100,20
1,69,100,8
1,69,100,28
1,69,100,20
1,73,100,16
1,73,100,4
1,73,100,12
1,76,100,4
1,76,100,16
1,76,100,0
1,78,100,12
1,81,100,4
1,81,100,24
1,78,100,16
1,69,100,1540
1,73,100,16
1,71,100,16
1,71,100,28
1,71,100,8
1,69,100,12
1,69,100,1176
1,73,100,8
1,71,100,20
1,71,100,24
1,71,100,8
1,69,100,12
1,76,100,1164
1,78,100,4
1,76,100,8
1,76,100,8
1,74,100,8
1,74,100,12
1,78,100,784
1,76,100,4
1,76,100,12
1,74,100,8
1,74,100,8
1,73,100,4
1,73,100,12
1,66,100,1368
1,73,100,0
1,71,100,16
1,71,100,12
1,71,100,16
1,69,100,20
1,69,100,1156
1,73,100,16
1,71,100,16
1,71,100,0
1,71,100,16
1,69,100,16
1,69,100,1168
1,69,100,0
1,69,100,28
1,69,100,0
1,71,100,12
1,66,100,20
1,69,100,20
1,69,100,600
1,71,100,16
1,71,100,4
1,69,100,24
1,71,100,4
1,69,100,20
1,71,100,8
1,73,100,0
1,66,100,596
1,69,100,8
1,69,100,12
1,71,100,12
1,71,100,8
1,66,100,20
1,69,100,4
1,69,100,24
1,66,100,392
1,73,100,8
1,71,100,16
1,71,100,784
1,73,100,372
1,71,100,20
1,69,100,16
1,78,100,13844
1,76,100,16
1,76,100,8
1,76,100,16
1,76,100,12
1,76,100,24
1,76,100,16
1,76,100,8
1,78,100,16
1,76,100,12
1,76,100,24
1,76,100,8
1,76,100,20
1,73,100,8
1,78,100,12
1,76,100,16
1,73,100,1156
1,71,100,12
1,69,100,16
1,69,100,16
1,69,100,8
1,73,100,20
1,73,100,24
1,73,100,8
1,76,100,8
1,76,100,12
1,76,100,12
1,78,100,12
1,81,100,8
1,81,100,20
1,78,100,16
1,69,100,1548
1,73,100,16
1,71,100,8
1,71,100,20
1,71,100,24
1,69,100,12
1,69,100,1156
1,73,100,16
1,71,100,8
1,71,100,16
1,71,100,20
1,69,100,16
1,76,100,1160
1,78,100,28
1,76,100,12
1,76,100,12
1,74,100,8
1,74,100,16
1,78,100,776
1,76,100,20
1,76,100,8
1,74,100,24
1,74,100,16
1,73,100,16
1,73,100,16
2,73,90,1536
2,71,90,20
2,69,90,16
2,73,90,4
2,73,90,20
2,69,90,16
2,73,90,20
2,71,90,8
2,69,90,0
2,69,90,5768
2,73,90,8
2,71,90,8
2,71,90,8
2,71,90,24
2,69,90,12
2,69,90,1164
2,73,90,8
2,71,90,16
2,71,90,16
2,71,90,24
2,69,90,20
2,76,90,1160
2,78,90,12
2,76,90,4
2,76,90,12
2,74,90,28
2,74,90,0
2,78,90,788
2,76,90,8
2,76,90,20
2,74,90,8
2,74,90,4
2,73,90,32
2,73,90,4
2,69,90,1160
2,73,90,8
2,71,90,20
2,71,90,12
2,71,90,12
2,69,90,12
2,76,90,1172
2,78,90,16
2,76,90,4
2,76,90,8
2,74,90,24
2,74,90,0
2,78,90,788
2,76,90,24
2,74,90,0
2,74,90,20
2,73,90,12
2,73,90,20
2,66,90,1352
2,69,90,20
2,69,90,12
2,69,90,12
2,71,90,28
2,66,90,4
2,69,90,24
2,69,90,580
2,71,90,28
2,71,90,0
2,69,90,24
2,71,90,8
2,69,90,12
2,71,90,20
2,73,90,12
2,66,90,596
2,69,90,0
2,69,90,16
2,71,90,4
2,71,90,12
2,66,90,12
2,69,90,24
2,66,90,396
2,73,90,8
2,71,90,4
2,71,90,776
2,73,90,20
2,71,90,4
2,69,90,24
2,69,90,1540
2,69,90,4
2,69,90,16
2,73,90,8
2,73,90,16
2,73,90,16
2,76,90,8
2,76,90,12
2,76,90,16
2,78,90,8
2,81,90,12
2,78,90,16
2,76,90,4
2,73,90,1172
2,71,90,24
2,69,90,12
2,69,90,4
2,69,90,20
2,73,90,20
2,73,90,8
2,73,90,16
2,76,90,12
2,76,90,16
2,76,90,12
2,78,90,0
2,81,90,16
2,81,90,28
2,78,90,8
2,78,90,1944
2,76,90,4
2,76,90,12
2,76,90,8
2,76,90,12
2,76,90,16
2,76,90,8
2,76,90,16
2,78,90,8
2,76,90,20
2,76,90,20
2,76,90,20
2,76,90,8
2,73,90,20
2,78,90,28
2,76,90,12
2,73,90,1168
2,71,90,12
2,69,90,24
2,69,90,12
2,69,90,8
2,73,90,4
2,73,90,8
2,73,90,20
2,76,90,0
2,76,90,24
2,76,90,16
2,78,90,8
2,81,90,24
2,81,90,4
2,78,90,8
2,69,90,1556
2,73,90,24
2,71,90,4
2,71,90,16
2,71,90,16
2,69,90,8
2,69,90,1172
2,73,90,16
2,71,90,16
2,71,90,4
2,71,90,20
2,69,90,20
2,76,90,1156
2,78,90,24
2,76,90,12
2,76,90,12
2,74,90,8
2,74,90,4
2,78,90,780
2,76,90,16
2,76,90,16
2,74,90,28
2,74,90,4
2,73,90,16
2,73,90,8
2,66,90,1368
2,73,90,180
2,71,90,24
2,71,90,8
2,71,90,20
2,69,90,8
2,69,90,1156
2,73,90,12
2,71,90,20
2,71,90,4
2,71,90,20
2,69,90,0
2,69,90,1176
2,69,90,24
2,69,90,0
2,69,90,20
2,71,90,20
2,66,90,12
2,69,90,24
2,69,90,580
2,71,90,20
2,71,90,0
2,69,90,12
2,71,90,12
2,69,90,8
2,71,90,12
2,73,90,28
2,66,90,584
2,69,90,16
2,69,90,12
2,71,90,8
2,71,90,24
2,66,90,12
2,69,90,12
2,66,90,384
2,73,90,12
2,71,90,12
2,71,90,776
2,73,90,24
2,71,90,0
2,69,90,12
2,69,90,1548
2,69,90,24
2,69,90,12
2,73,90,8
2,73,90,8
2,73,90,24
2,76,90,8
2,76,90,16
2,76,90,12
2,78,90,20
2,81,90,4
2,78,90,16
2,76,90,16
2,73,90,1164
2,71,90,12
2,69,90,8
2,69,90,16
2,69,90,16
2,73,90,4
2,73,90,16
2,73,90,20
2,76,90,12
2,76,90,16
2,76,90,180
2,78,90,20
2,81,90,12
2,81,90,8
2,78,90,20
2,78,90,1928
2,76,90,12
2,76,90,12
2,76,90,16
2,76,90,0
2,76,90,16
2,76,90,8
2,76,90,16
2,78,90,16
2,76,90,16
2,76,90,0
2,76,90,16
2,76,90,16
2,73,90,8
2,78,90,4
2,76,90,12
2,73,90,1164
2,71,90,8
2,69,90,24
2,69,90,8
2,69,90,8
2,73,90,12
2,73,90,0
2,73,90,16
2,76,90,28
2,76,90,16
2,76,90,20
2,78,90,16
2,81,90,16
2,81,90,4
2,78,90,12
2,69,90,1924
2,69,90,12
2,69,90,16
2,73,90,8
2,73,90,0
2,73,90,4
2,76,90,24
2,76,90,16
2,76,90,12
2,78,90,12
2,81,90,4
2,78,90,20
2,76,90,12
2,73,90,1164
2,71,90,20
2,69,90,16
2,69,90,24
2,69,90,8
2,73,90,24
2,73,90,20
2,73,90,4
2,76,90,8
2,76,90,12
2,76,90,16
2,78,90,16
2,81,90,16
2,81,90,8
2,78,90,28
2,78,90,1940
2,76,90,180
2,76,90,24
2,76,90,4
2,76,90,4
2,76,90,24
2,76,90,4
2,76,90,16
2,78,90,0
2,76,90,8
2,76,90,16
2,76,90,20
2,76,90,12
2,73,90,0
2,78,90,20
2,76,90,4
2,73,90,1172
2,71,90,372
2,69,90,20
2,69,90,8
2,69,90,12
2,73,90,16
2,73,90,16
2,73,90,16
2,76,90,8
2,76,90,24
2,76,90,4
2,78,90,16
2,81,90,20
2,81,90,8
2,78,90,20
2,69,90,1540
2,73,90,16
2,71,90,24
2,71,90,20
2,71,90,16
2,69,90,12
2,69,90,1156
2,73,90,16
2,71,90,24
2,71,90,8
2,71,90,4
2,69,90,24
2,76,90,1160
2,78,90,24
2,76,90,12
2,76,90,16
2,74,90,12
2,74,90,20
2,78,90,776
2,76,90,24
2,76,90,8
2,74,90,0
2,74,90,8
2,73,90,24
2,73,90,4
2,66,90,1160
2,73,90,24
2,71,90,8
2,71,90,20
2,71,90,8
2,69,90,20
2,69,90,1176
2,73,90,4
2,71,90,8
2,71,90,12
2,71,90,8
2,69,90,16
2,69,90,1168
2,69,90,20
2,69,90,12
2,69,90,12
2,71,90,24
2,66,90,12
2,69,90,12
2,69,90,584
2,71,90,20
2,71,90,16
2,69,90,16
2,71,90,4
2,69,90,0
2,71,90,24
2,73,90,16
2,66,90,592
2,69,90,0
2,69,90,12
2,71,90,16
2,71,90,16
2,66,90,16
2,69,90,12
2,66,90,400
2,73,90,4
2,71,90,20
2,71,90,784
2,73,90,372
2,71,90,20
2,69,90,20
2,69,90,1540
2,69,90,12
2,69,90,28
2,73,90,4
2,73,90,12
2,73,90,16
2,76,90,8
2,76,90,12
2,76,90,4
2,78,90,28
2,81,90,0
2,78,90,12
2,76,90,16
2,73,90,1152
2,71,90,24
2,69,90,4
2,69,90,16
2,69,90,8
2,73,90,20
2,73,90,8
2,73,90,12
2,76,90,8
2,76,90,20
2,76,90,16
2,78,90,16
2,81,90,12
2,81,90,24
2,78,90,4
2,78,90,1928
2,76,90,12
2,76,90,8
2,76,90,28
2,76,90,8
2,76,90,8
2,76,90,24
2,76,90,4
2,78,90,28
2,76,90,16
2,76,90,0
2,76,90,24
2,76,90,16
2,73,90,8
2,78,90,16
2,76,90,12
2,73,90,1164
2,71,90,8
2,69,90,28
