track,note,velocity,time
2,79,50,2208
2,83,50,2
2,81,50,2
2,79,50,2
2,79,50,96
2,81,50,382
2,83,50,2
2,81,50,2
2,79,50,2
2,76,50,2
2,76,50,2
2,83,50,386
2,81,50,2
2,79,50,2
2,81,50,2
2,81,50,2
2,78,50,2
2,76,50,2
2,74,50,2
2,79,50,386
2,79,50,2
2,81,50,2
2,83,50,98
2,86,50,2
2,83,50,2
2,83,50,2
2,81,50,2
2,79,50,2
2,83,50,194
2,81,50,2
2,83,50,2
2,81,50,2
2,79,50,2
2,79,50,2
2,81,50,386
2,79,50,2
2,81,50,2
2,79,50,2
2,76,50,2
2,81,50,2
2,81,50,2
2,79,50,2
2,76,50,2
2,81,50,2
2,81,50,2
2,83,50,2
2,78,50,2
2,76,50,2
2,74,50,2
2,74,50,2
2,79,50,482
2,81,50,2
2,79,50,2
2,83,50,2
2,81,50,2
2,79,50,2
2,79,50,2
2,84,50,386
2,83,50,2
2,81,50,2
2,79,50,2
2,76,50,2
2,76,50,2
2,79,50,2
2,79,50,2
2,81,50,2
2,79,50,2
2,76,50,2
2,72,50,194
2,76,50,2
2,79,50,2
2,76,50,2
2,76,50,2
2,74,50,2
2,67,50,2
2,79,50,2
2,78,50,2
2,79,50,2
2,81,50,2
2,67,50,0
2,67,50,2
2,67,50,2
2,67,50,2
2,67,50,2
2,69,50,2
2,69,50,2
2,71,50,2
2,67,50,2
2,67,50,2
2,62,50,290
2,71,50,2
2,71,50,2
2,71,50,2
2,69,50,2
2,67,50,2
2,67,50,2
2,67,50,2
2,69,50,770
2,69,50,2
2,69,50,2
2,69,50,2
2,71,50,2
2,71,50,2
2,69,50,2
2,69,50,2
2,69,50,2
2,69,50,2
2,66,50,2
2,66,50,2
2,64,50,2
2,62,50,2
2,67,50,1154
2,67,50,2
2,67,50,2
2,67,50,2
2,67,50,2
2,69,50,2
2,69,50,2
2,71,50,2
2,67,50,2
2,67,50,2
2,69,50,2
2,67,50,2
2,71,50,194
2,71,50,2
2,71,50,2
2,69,50,2
2,67,50,2
2,67,50,2
2,67,50,2
2,57,50,674
2,69,50,2
2,69,50,2
2,71,50,2
2,71,50,2
2,69,50,2
2,69,50,2
2,69,50,2
2,69,50,2
2,66,50,2
2,66,50,2
2,64,50,2
2,62,50,2
2,72,50,1154
2,72,50,2
2,72,50,2
2,74,50,2
2,67,50,2
2,67,50,2
2,67,50,2
2,67,50,2
2,67,50,2
2,64,50,2
2,72,50,2
2,72,50,2
2,72,50,2
2,72,50,2
2,71,50,2
2,64,50,2
2,64,50,2
2,72,50,578
2,72,50,2
2,72,50,2
2,72,50,2
2,72,50,2
2,72,50,2
2,71,50,2
2,69,50,2
2,67,50,2
2,67,50,2
2,71,50,2
2,71,50,2
2,69,50,2
2,72,50,1346
2,72,50,2
2,72,50,2
2,74,50,2
2,67,50,2
2,67,50,2
2,67,50,2
2,67,50,2
2,67,50,2
2,64,50,2
2,72,50,2
2,72,50,2
2,72,50,2
2,72,50,2
2,71,50,2
2,64,50,2
2,64,50,2
2,72,50,578
2,72,50,2
2,72,50,2
2,72,50,2
2,72,50,2
2,72,50,2
2,72,50,2
2,71,50,2
2,69,50,2
2,67,50,2
2,67,50,2
2,71,50,2
2,71,50,2
2,69,50,2
2,79,50,866
2,79,50,2
2,81,50,290
2,81,50,2
2,81,50,2
2,74,50,770
2,74,50,2
2,74,50,2
2,71,50,2
2,71,50,2
2,71,50,2
2,69,50,2
2,67,50,0
2,67,50,2
2,67,50,2
2,67,50,2
2,67,50,2
2,69,50,2
2,69,50,2
2,71,50,2
2,67,50,2
2,67,50,2
2,62,50,290
2,71,50,2
2,71,50,2
2,71,50,2
2,69,50,2
2,67,50,2
2,67,50,2
2,67,50,2
2,69,50,770
2,69,50,2
2,69,50,2
2,69,50,2
2,71,50,2
2,71,50,2
2,69,50,2
2,69,50,2
2,69,50,2
2,69,50,2
2,66,50,2
2,66,50,2
2,64,50,2
2,62,50,2
2,67,50,1154
2,67,50,2
2,67,50,2
2,67,50,2
2,67,50,2
2,69,50,2
2,69,50,2
2,71,50,2
2,67,50,2
2,67,50,2
2,69,50,2
2,67,50,2
2,71,50,194
2,71,50,2
2,71,50,2
2,69,50,2
2,67,50,2
2,67,50,2
2,67,50,2
2,57,50,674
2,69,50,2
2,69,50,2
2,71,50,2
2,71,50,2
2,69,50,2
2,69,50,2
2,69,50,2
2,69,50,2
2,66,50,2
2,66,50,2
2,64,50,2
2,62,50,2
2,72,50,1154
2,72,50,2
2,72,50,2
2,74,50,2
2,67,50,2
2,67,50,2
2,67,50,2
2,67,50,2
2,67,50,2
2,64,50,2
2,72,50,2
2,72,50,2
2,72,50,2
2,72,50,2
2,71,50,2
2,64,50,2
2,64,50,2
2,72,50,578
2,72,50,2
2,72,50,2
2,72,50,2
2,72,50,2
2,72,50,2
2,71,50,2
2,69,50,2
2,67,50,2
2,67,50,2
2,71,50,2
2,71,50,2
2,69,50,2
2,72,50,1346
2,72,50,2
2,72,50,2
2,74,50,2
2,67,50,2
2,67,50,2
2,67,50,2
2,67,50,2
2,67,50,2
2,64,50,2
2,72,50,2
2,72,50,2
2,72,50,2
2,72,50,2
2,71,50,2
2,64,50,2
2,64,50,2
2,72,50,578
2,72,50,2
2,72,50,2
2,72,50,2
2,72,50,2
2,72,50,2
2,72,50,2
2,71,50,2
2,69,50,2
2,67,50,2
2,67,50,2
2,71,50,2
2,71,50,2
2,69,50,2
2,79,50,866
2,79,50,2
2,81,50,290
2,81,50,2
2,81,50,2
2,74,50,770
2,74,50,2
2,74,50,2
2,71,50,2
2,71,50,2
2,71,50,2
2,69,50,2
2,62,50,22274
2,59,50,2
2,66,50,2
2,64,50,2
2,62,50,2
2,67,50,194
2,67,50,2
2,66,50,2
2,62,50,2
2,67,50,194
2,69,50,2
2,66,50,2
2,64,50,2
2,62,50,2
2,62,50,98
2,59,50,2
2,62,50,2
2,59,50,2
2,66,50,2
2,62,50,2
2,66,50,98
2,62,50,2
2,62,50,290
2,59,50,2
2,62,50,2
2,59,50,2
2,66,50,2
2,62,50,2
2,66,50,194
2,62,50,2
2,62,50,386
2,62,50,2
2,66,50,2
2,66,50,2
2,62,50,2
2,66,50,194
2,62,50,2
2,67,50,386
2,67,50,2
2,66,50,2
2,66,50,2
2,64,50,2
2,62,50,2
2,66,50,194
2,62,50,2
2,62,50,338
2,66,50,2
2,64,50,2
2,62,50,2
2,66,50,2
2,66,50,2
2,62,50,2
2,66,50,194
2,62,50,2
2,67,50,290
2,67,50,2
2,67,50,2
2,67,50,2
2,66,50,2
2,62,50,2
2,66,50,194
2,62,50,2
2,66,50,290
2,62,50,2
2,66,50,2
2,62,50,2
2,65,50,2
2,65,50,2
2,62,50,2
2,69,50,290
2,69,50,2
2,69,50,2
2,69,50,2
2,67,50,2
2,65,50,2
2,62,50,2
2,59,50,290
2,62,50,2
2,62,50,2
2,59,50,2
2,62,50,2
2,62,50,2
3,60,50,768
3,64,50,0
3,64,50,2
3,67,50,2
3,72,50,2
3,76,50,0
3,72,50,96
3,76,50,0
3,72,50,94
3,76,50,0
3,67,50,2
3,72,50,0
3,67,50,2
3,72,50,0
3,67,50,2
3,74,50,0
3,72,50,96
3,67,50,94
3,72,50,0
3,67,50,2
3,71,50,0
3,72,50,96
3,67,50,94
3,72,50,0
3,67,50,2
3,72,50,0
3,71,50,96
3,59,50,94
3,62,50,2
3,67,50,2
3,71,50,2
3,71,50,2
3,67,50,2
3,64,50,2
3,59,50,2
3,72,50,2
3,71,50,2
3,67,50,2
3,69,50,2
3,67,50,2
3,62,50,2
3,62,50,2
3,67,50,0
3,64,50,2
3,69,50,0
3,57,50,2
3,73,50,2
3,69,50,2
3,64,50,2
3,69,50,2
3,64,50,2
3,71,50,2
3,74,50,2
3,73,50,2
3,64,50,2
3,69,50,0
3,67,50,2
3,71,50,0
3,69,50,2
3,72,50,0
3,69,50,2
3,72,50,0
3,64,50,2
3,69,50,0
3,62,50,2
3,67,50,0
3,74,50,2
3,78,50,0
3,74,50,2
3,78,50,2
3,74,50,2
3,78,50,2
3,78,50,2
3,74,50,2
3,74,50,2
3,74,50,2
3,79,50,0
3,78,50,2
3,74,50,2
3,78,50,0
3,74,50,2
3,76,50,0
3,74,50,2
3,76,50,0
3,74,50,2
3,78,50,0
3,74,50,2
3,79,50,2
3,79,50,2
3,79,50,2
3,81,50,2
3,83,50,2
3,86,50,2
3,81,50,2
3,81,50,2
3,79,50,2
3,81,50,2
3,79,50,2
3,81,50,2
3,83,50,2
3,84,50,2
3,85,50,2
3,86,50,2
3,81,50,2
3,79,50,2
3,79,50,2
3,81,50,2
3,76,50,2
3,81,50,2
3,74,50,2
3,83,50,0
3,75,50,2
3,84,50,0
3,76,50,2
3,85,50,0
3,78,50,194
3,87,50,2
3,76,50,98
3,84,50,2
3,74,50,98
3,83,50,2
3,79,50,2
3,74,50,2
3,74,50,2
3,83,50,0
3,72,50,2
3,81,50,0
3,72,50,2
3,81,50,0
3,60,50,2
3,64,50,0
3,67,50,2
3,72,50,2
3,76,50,2
3,74,50,2
3,72,50,2
3,64,50,2
3,67,50,2
3,55,50,2
3,59,50,2
3,62,50,2
3,67,50,2
3,67,50,2
3,62,50,2
3,59,50,2
3,55,50,2
3,60,50,2
3,64,50,2
3,67,50,2
3,72,50,2
3,67,50,2
3,64,50,2
3,55,50,2
3,54,50,2
3,52,50,2
3,59,50,2
3,64,50,2
3,71,50,2
3,71,50,2
3,60,50,2
3,64,50,2
3,67,50,2
3,72,50,2
3,67,50,2
3,64,50,2
3,60,50,2
3,59,50,2
3,55,50,2
3,59,50,0
3,59,50,2
3,62,50,2
3,67,50,2
3,71,50,2
3,67,50,2
3,62,50,2
3,69,50,2
3,74,50,0
3,78,50,2
3,78,50,2
3,78,50,2
3,60,50,2
3,64,50,2
3,67,50,2
3,72,50,2
3,72,50,2
3,67,50,2
3,72,50,0
3,67,50,2
3,72,50,0
3,67,50,2
3,72,50,0
3,67,50,2
3,74,50,0
3,72,50,2
3,60,50,2
3,71,50,2
3,71,50,2
3,72,50,2
3,67,50,2
3,60,50,2
3,59,50,2
3,59,50,2
3,57,50,2
3,55,50,2
3,59,50,2
3,62,50,0
3,57,50,2
3,67,50,2
3,62,50,2
3,64,50,2
3,62,50,2
3,67,50,0
3,57,50,2
3,64,50,0
3,69,50,2
3,73,50,2
3,81,50,2
3,74,50,2
3,72,50,2
3,64,50,2
3,71,50,2
3,71,50,2
3,57,50,2
3,72,50,0
3,60,50,2
3,61,50,2
3,62,50,2
3,62,50,2
3,62,50,2
3,66,50,2
3,69,50,2
3,69,50,98
3,71,50,2
3,69,50,2
3,66,50,2
3,57,50,2
3,60,50,2
3,64,50,2
3,67,50,2
3,72,50,2
3,72,50,2
3,67,50,2
3,72,50,0
3,67,50,2
3,72,50,0
3,67,50,2
3,72,50,0
3,67,50,2
3,74,50,0
3,72,50,2
3,60,50,2
3,71,50,2
3,71,50,2
3,72,50,2
3,67,50,2
3,60,50,2
3,59,50,2
3,59,50,2
3,57,50,2
3,55,50,2
3,59,50,2
3,62,50,0
3,57,50,2
3,67,50,2
3,62,50,2
3,64,50,2
3,62,50,2
3,67,50,0
3,57,50,2
3,64,50,0
3,69,50,2
3,73,50,2
3,81,50,2
3,74,50,2
3,72,50,2
3,64,50,2
3,71,50,2
3,71,50,2
3,57,50,2
3,72,50,0
3,60,50,2
3,61,50,2
3,62,50,2
3,62,50,2
3,62,50,2
3,66,50,2
3,69,50,2
3,69,50,98
3,71,50,2
3,69,50,2
3,66,50,2
3,57,50,2
3,67,50,2
3,72,50,0
3,67,50,2
3,72,50,0
3,67,50,2
3,74,50,0
3,74,50,2
3,71,50,2
3,74,50,2
3,79,50,2
3,74,50,2
3,67,50,2
3,71,50,2
3,64,50,2
3,67,50,0
3,67,50,2
3,72,50,0
3,55,50,2
3,54,50,2
3,52,50,2
3,64,50,2
3,71,50,2
3,76,50,2
3,71,50,2
3,67,50,2
3,64,50,2
3,67,50,2
3,60,50,2
3,64,50,0
3,67,50,2
3,60,50,2
3,64,50,0
3,72,50,2
3,76,50,0
3,72,50,2
3,76,50,0
3,67,50,2
3,72,50,0
3,67,50,2
3,72,50,0
3,67,50,2
3,71,50,0
3,67,50,2
3,62,50,2
3,67,50,2
3,67,50,2
3,62,50,2
3,59,50,2
3,67,50,2
3,71,50,0
3,74,50,2
3,78,50,0
3,74,50,2
3,78,50,0
3,69,50,2
3,74,50,0
3,74,50,2
3,76,50,0
3,74,50,2
3,78,50,0
3,74,50,2
3,79,50,0
3,69,50,2
3,74,50,0
3,74,50,2
3,78,50,0
3,69,50,2
3,74,50,0
3,74,50,2
3,76,50,0
3,69,50,2
3,74,50,0
3,74,50,2
3,78,50,0
3,69,50,2
3,74,50,0
3,67,50,2
3,71,50,0
3,67,50,2
3,72,50,0
3,67,50,2
3,72,50,0
3,67,50,2
3,74,50,0
3,74,50,2
3,71,50,2
3,74,50,2
3,79,50,2
3,74,50,2
3,67,50,2
3,71,50,2
3,64,50,2
3,67,50,0
3,67,50,2
3,72,50,0
3,55,50,2
3,54,50,2
3,52,50,2
3,64,50,2
3,71,50,2
3,76,50,2
3,71,50,2
3,67,50,2
3,64,50,2
3,67,50,2
3,74,50,1538
3,78,50,0
3,74,50,2
3,78,50,0
3,74,50,2
3,78,50,0
3,74,50,2
3,78,50,0
3,74,50,2
3,78,50,0
3,74,50,2
3,78,50,0
3,74,50,2
3,78,50,0
3,73,50,482
3,76,50,0
3,78,50,2
3,81,50,0
3,86,50,2
3,86,50,2
3,74,50,98
3,81,50,2
3,90,50,2
3,90,50,2
3,81,50,2
3,90,50,2
3,90,50,2
3,81,50,2
3,90,50,2
3,81,50,2
3,90,50,2
3,81,50,2
3,90,50,2
3,60,50,2
3,64,50,2
3,67,50,2
3,72,50,2
3,72,50,2
3,67,50,2
3,72,50,0
3,67,50,2
3,72,50,0
3,67,50,2
3,72,50,0
3,67,50,2
3,74,50,0
3,72,50,2
3,60,50,2
3,71,50,2
3,71,50,2
3,72,50,2
3,67,50,2
3,60,50,2
3,59,50,2
3,59,50,2
3,57,50,2
3,55,50,2
3,59,50,2
3,62,50,0
3,57,50,2
3,67,50,2
3,62,50,2
3,64,50,2
3,62,50,2
3,67,50,0
3,57,50,2
3,64,50,0
3,69,50,2
3,73,50,2
3,81,50,2
3,74,50,2
3,72,50,2
3,64,50,2
3,71,50,2
3,71,50,2
3,57,50,2
3,72,50,0
3,60,50,2
3,61,50,2
3,62,50,2
3,62,50,2
3,62,50,2
3,66,50,2
3,69,50,2
3,69,50,98
3,71,50,2
3,69,50,2
3,66,50,2
3,57,50,2
3,61,50,2
3,64,50,2
3,67,50,2
3,72,50,2
3,72,50,2
3,67,50,2
3,72,50,0
3,67,50,2
3,72,50,0
3,67,50,2
3,72,50,0
3,67,50,2
3,74,50,0
3,72,50,2
3,60,50,2
3,71,50,2
3,71,50,2
3,72,50,2
3,67,50,2
3,60,50,2
3,59,50,2
3,59,50,2
3,57,50,2
3,55,50,2
3,59,50,2
3,62,50,0
3,57,50,2
3,67,50,2
3,62,50,2
3,64,50,2
3,62,50,2
3,67,50,0
3,57,50,2
3,64,50,0
3,69,50,2
3,73,50,2
3,81,50,2
3,74,50,2
3,72,50,2
3,64,50,2
3,71,50,2
3,71,50,2
3,57,50,2
3,72,50,0
3,60,50,2
3,61,50,2
3,62,50,2
3,62,50,2
3,62,50,2
3,66,50,2
3,69,50,2
3,69,50,98
3,71,50,2
3,69,50,2
3,66,50,2
3,57,50,2
3,67,50,2
3,72,50,0
3,67,50,2
3,72,50,0
3,67,50,2
3,74,50,0
3,74,50,2
3,71,50,2
3,74,50,2
3,79,50,2
3,74,50,2
3,67,50,2
3,71,50,2
3,64,50,2
3,67,50,0
3,67,50,2
3,72,50,0
3,55,50,2
3,54,50,2
3,52,50,2
3,64,50,2
3,71,50,2
3,76,50,2
