track,note,velocity,time
1,67,84,13422
1,70,84,0
1,72,84,0
1,75,84,0
1,68,84,2980
1,72,84,0
1,75,84,0
1,77,84,0
1,68,84,2980
1,72,84,0
1,75,84,0
1,77,84,0
1,67,84,2980
1,70,84,0
1,72,84,0
1,75,84,0
1,72,84,2980
1,60,84,0
1,68,84,0
1,63,84,0
1,75,84,0
1,72,84,484
1,84,84,100
1,82,84,100
1,79,84,100
1,75,84,100
1,77,84,100
1,70,84,0
1,74,84,0
1,62,84,0
1,65,84,0
1,77,84,0
1,77,84,100
1,79,84,100
1,72,84,1060
1,60,84,0
1,63,84,0
1,68,84,0
1,75,84,0
1,72,84,484
1,84,84,100
1,82,84,100
1,79,84,100
1,75,84,100
1,77,84,100
1,70,84,0
1,77,84,0
1,74,84,0
1,62,84,0
1,65,84,0
1,77,84,0
1,77,84,484
1,79,84,196
1,75,84,4
1,72,84,100
1,72,84,292
1,68,84,0
1,75,84,0
1,60,84,0
1,63,84,0
1,72,84,484
1,84,84,100
1,82,84,100
1,79,84,100
1,75,84,100
1,77,84,100
1,62,84,0
1,65,84,0
1,70,84,0
1,74,84,0
1,77,84,0
1,77,84,100
1,79,84,100
1,72,84,1060
1,60,84,0
1,63,84,0
1,68,84,0
1,75,84,0
1,72,84,484
1,84,84,100
1,82,84,100
1,79,84,100
1,75,84,100
1,77,84,100
1,67,84,0
1,77,84,0
1,55,84,0
1,77,84,580
1,79,84,100
1,75,84,4
1,72,84,100
1,67,84,0
1,72,84,16
1,70,84,0
1,72,84,0
1,75,84,0
1,68,84,64
1,72,84,0
1,75,84,0
1,77,84,0
1,72,84,0
1,77,84,0
1,72,84,0
1,75,84,0
1,68,84,0
1,77,84,0
1,72,84,48
1,70,84,0
1,72,84,0
1,67,84,0
1,75,84,0
1,70,84,0
1,72,84,16
1,67,84,0
1,75,84,0
1,72,84,48
1,68,84,0
1,75,84,0
1,77,84,0
1,72,84,0
1,77,84,0
1,68,84,3024
1,72,84,0
1,75,84,0
1,77,84,0
1,72,84,48
1,67,84,0
1,70,84,0
1,72,84,16
1,75,84,0
1,68,84,0
1,72,84,0
1,75,84,0
1,60,84,0
1,63,84,0
1,72,84,484
1,84,84,100
1,82,84,100
1,79,84,100
1,75,84,100
1,77,84,100
1,70,84,0
1,74,84,0
1,77,84,0
1,62,84,0
1,65,84,0
1,77,84,100
1,79,84,100
1,60,84,1060
1,68,84,0
1,72,84,0
1,75,84,0
1,63,84,0
1,72,84,484
1,84,84,100
1,82,84,100
1,79,84,100
1,75,84,100
1,77,84,100
1,62,84,0
1,77,84,0
1,65,84,0
1,70,84,0
1,74,84,0
1,77,84,0
1,77,84,484
1,79,84,196
1,75,84,4
1,72,84,100
1,68,84,292
1,72,84,0
1,60,84,0
1,63,84,0
1,75,84,0
1,72,84,484
1,84,84,100
1,82,84,100
1,79,84,100
1,75,84,100
1,77,84,100
1,70,84,0
1,74,84,0
1,62,84,0
1,65,84,0
1,77,84,0
1,77,84,100
1,79,84,100
1,68,84,1060
1,72,84,0
1,60,84,0
1,63,84,0
1,75,84,0
1,72,84,484
1,84,84,100
1,82,84,100
1,79,84,100
1,75,84,100
1,77,84,100
1,67,84,0
1,55,84,0
1,77,84,0
1,77,84,640
1,79,84,176
1,75,84,48
1,72,84,128
1,72,84,0
1,72,84,0
1,67,84,0
1,70,84,15
1,75,84,0
1,72,84,64
1,68,84,0
1,75,84,0
1,77,84,0
1,72,84,0
1,77,84,0
1,72,84,0
1,68,84,0
1,75,84,0
1,77,84,0
1,72,84,64
1,70,84,16
1,72,84,0
1,67,84,0
1,75,84,0
1,84,84,0
1,82,84,128
1,79,84,144
1,75,84,128
1,77,84,64
1,79,84,144
1,75,84,32
1,72,84,0
1,72,84,0
1,72,84,0
1,67,84,0
1,70,84,15
1,75,84,0
1,72,84,64
1,68,84,0
1,75,84,0
1,77,84,0
1,72,84,0
1,77,84,0
1,72,84,0
1,68,84,0
1,75,84,0
1,77,84,0
1,72,84,64
1,70,84,16
1,72,84,0
1,67,84,0
1,75,84,0
1,84,84,1504
1,82,84,128
1,79,84,144
1,75,84,128
1,77,84,64
1,79,84,144
1,75,84,32
1,72,84,0
1,70,84,48
1,72,84,0
1,72,84,0
1,67,84,15
1,75,84,0
1,68,84,64
1,72,84,0
1,72,84,0
1,75,84,15
1,77,84,0
1,77,84,0
1,72,84,0
1,75,84,0
1,68,84,16
1,70,84,32
1,72,84,16
1,67,84,0
1,75,84,0
1,72,84,2992
1,72,84,176
1,75,84,176
1,72,84,64
1,79,84,448
1,82,84,256
1,84,84,80
1,84,84,160
1,72,84,16
1,67,84,0
1,70,84,0
1,75,84,0
2,36,94,1134
2,36,94,132
2,36,94,132
2,36,94,132
2,36,94,132
2,34,94,68
2,34,94,4
2,34,94,132
2,31,94,64
2,34,94,68
2,36,94,4
2,34,94,132
2,36,94,132
2,36,94,132
2,36,94,132
2,34,94,68
2,34,94,4
2,34,94,132
2,31,94,64
2,34,94,68
2,36,94,4
2,36,94,132
2,36,94,132
2,36,94,132
2,36,94,132
2,34,94,68
2,34,94,4
2,34,94,132
2,31,94,64
2,34,94,68
2,36,94,4
2,34,94,132
2,36,94,132
2,36,94,132
2,36,94,132
2,34,94,68
2,34,94,4
2,34,94,132
2,31,94,64
2,34,94,68
2,36,94,4
2,36,94,132
2,36,94,132
2,36,94,132
2,36,94,132
2,34,94,68
2,34,94,4
2,34,94,132
2,31,94,64
2,34,94,68
2,36,94,4
2,34,94,132
2,36,94,132
2,36,94,132
2,36,94,132
2,34,94,68
2,34,94,4
2,34,94,132
2,31,94,64
2,34,94,68
2,36,94,4
2,36,94,132
2,36,94,132
2,36,94,132
2,36,94,132
2,34,94,68
2,34,94,4
2,34,94,132
2,31,94,0
2,34,94,68
2,36,94,4
2,34,94,132
2,36,94,132
2,36,94,132
2,36,94,132
2,34,94,68
2,34,94,4
2,34,94,132
2,31,94,64
2,34,94,68
2,36,94,4
2,36,94,132
2,36,94,132
2,36,94,132
2,36,94,132
2,34,94,68
2,34,94,4
2,34,94,132
2,31,94,64
2,34,94,68
2,36,94,4
2,34,94,132
2,36,94,132
2,36,94,132
2,36,94,132
2,34,94,68
2,34,94,4
2,34,94,132
2,31,94,64
2,34,94,68
2,36,94,4
2,36,94,132
2,36,94,132
2,36,94,132
2,36,94,132
2,34,94,68
2,34,94,4
2,34,94,132
2,31,94,64
2,34,94,68
2,36,94,4
2,36,94,68
2,34,94,4
2,36,94,132
2,36,94,132
2,36,94,132
2,34,94,68
2,34,94,4
2,34,94,132
2,31,94,64
2,34,94,68
2,36,94,4
2,36,94,132
2,36,94,132
2,36,94,132
2,36,94,132
2,34,94,68
2,34,94,4
2,34,94,132
2,31,94,64
2,34,94,68
2,36,94,4
2,34,94,132
2,36,94,132
2,36,94,132
2,36,94,132
2,34,94,68
2,34,94,4
2,34,94,132
2,31,94,64
2,34,94,68
2,36,94,4
2,36,94,132
2,36,94,132
2,36,94,132
2,36,94,132
2,34,94,68
2,34,94,4
2,34,94,132
2,31,94,64
2,34,94,68
2,36,94,4
2,36,94,0
2,36,94,132
2,36,94,132
2,36,94,132
2,36,94,132
2,34,94,68
2,34,94,4
2,34,94,132
2,34,94,132
2,36,94,0
2,32,94,4
2,32,94,64
2,39,94,0
2,41,94,132
2,41,94,132
2,43,94,64
2,41,94,0
2,39,94,0
2,34,94,0
2,31,94,384
2,34,94,0
2,34,94,132
2,34,94,4
2,36,94,132
2,34,94,0
2,32,94,256
2,39,94,0
2,41,94,0
2,41,94,132
2,43,94,64
2,41,94,0
2,39,94,0
2,34,94,64
2,31,94,448
2,34,94,4
2,34,94,196
2,34,94,4
2,36,94,132
2,34,94,0
2,32,94,256
2,39,94,0
2,41,94,0
2,41,94,132
2,43,94,64
2,41,94,0
2,39,94,0
2,34,94,64
2,31,94,448
2,34,94,4
2,34,94,196
2,34,94,4
2,36,94,132
2,34,94,64
2,32,94,256
2,39,94,0
2,41,94,64
2,41,94,132
2,43,94,64
2,41,94,0
2,39,94,0
2,31,94,64
2,31,94,448
2,31,94,260
2,31,94,4
2,34,94,132
2,31,94,64
2,34,94,68
2,36,94,4
2,36,94,63
2,36,94,68
2,36,94,132
2,36,94,132
2,36,94,132
2,34,94,68
2,34,94,4
2,34,94,132
2,31,94,64
2,34,94,0
2,36,94,4
2,34,94,132
2,36,94,132
2,36,94,132
2,36,94,132
2,34,94,68
2,34,94,4
2,34,94,132
2,31,94,64
2,34,94,68
2,36,94,4
2,36,94,132
2,36,94,132
2,36,94,132
2,36,94,132
2,34,94,68
2,34,94,4
2,34,94,132
2,31,94,64
2,34,94,0
2,36,94,4
2,34,94,132
2,36,94,132
2,36,94,132
2,36,94,132
2,34,94,68
2,34,94,4
2,34,94,132
2,31,94,64
2,34,94,68
2,36,94,4
2,36,94,132
2,36,94,132
2,36,94,132
2,36,94,132
2,34,94,68
2,34,94,4
2,34,94,132
2,31,94,64
2,34,94,68
2,36,94,4
2,34,94,132
2,36,94,132
2,36,94,132
2,36,94,132
2,34,94,68
2,34,94,4
2,34,94,132
2,31,94,64
2,34,94,68
2,36,94,4
2,36,94,132
2,36,94,132
2,36,94,132
2,36,94,132
2,34,94,68
2,34,94,4
2,34,94,132
2,31,94,64
2,34,94,68
2,36,94,4
2,36,94,132
2,36,94,132
2,36,94,132
2,36,94,132
2,34,94,68
2,34,94,4
2,34,94,132
2,31,94,64
2,34,94,68
2,36,94,4
2,36,94,132
2,36,94,132
2,36,94,132
2,36,94,132
2,34,94,68
2,34,94,4
2,34,94,132
2,31,94,64
2,34,94,68
2,36,94,4
2,34,94,132
2,36,94,132
2,36,94,132
2,36,94,132
2,34,94,68
2,34,94,4
2,34,94,132
2,31,94,64
2,34,94,68
2,36,94,4
2,36,94,132
2,36,94,132
2,36,94,132
2,36,94,132
2,34,94,68
2,34,94,4
2,34,94,132
2,31,94,64
2,34,94,68
2,36,94,4
2,34,94,132
2,36,94,132
2,36,94,132
2,36,94,132
2,34,94,68
2,34,94,4
2,34,94,132
2,31,94,64
2,34,94,68
2,36,94,4
2,36,94,132
2,36,94,132
2,36,94,132
2,36,94,132
2,34,94,68
2,34,94,4
2,34,94,132
2,31,94,64
2,34,94,68
2,36,94,4
2,34,94,132
2,36,94,132
2,36,94,132
2,36,94,132
2,34,94,68
2,34,94,4
2,34,94,132
2,31,94,64
2,34,94,0
2,36,94,4
2,36,94,132
2,36,94,132
2,36,94,132
2,36,94,132
2,34,94,68
2,34,94,4
2,34,94,132
2,31,94,64
2,34,94,68
2,36,94,4
2,34,94,132
2,36,94,132
2,36,94,132
2,36,94,132
2,34,94,68
2,34,94,4
2,34,94,132
2,34,94,132
2,36,94,0
2,32,94,4
2,32,94,132
2,39,94,64
2,41,94,0
2,41,94,132
2,43,94,0
2,41,94,0
2,39,94,0
2,34,94,0
2,34,94,448
2,31,94,260
2,34,94,4
2,36,94,132
2,34,94,0
2,32,94,64
2,32,94,132
2,39,94,0
2,41,94,0
2,41,94,132
2,43,94,0
2,41,94,0
2,39,94,0
2,34,94,64
2,34,94,448
2,31,94,260
2,34,94,4
2,31,94,68
2,36,94,4
2,34,94,0
2,32,94,256
2,39,94,0
2,41,94,0
2,41,94,132
2,43,94,0
2,41,94,0
2,39,94,0
2,34,94,64
2,34,94,512
2,31,94,196
2,34,94,4
2,36,94,132
2,34,94,0
2,32,94,256
2,39,94,0
2,41,94,0
2,41,94,132
2,43,94,64
2,41,94,0
2,39,94,64
2,31,94,64
2,31,94,384
2,31,94,196
2,31,94,4
2,31,94,132
2,34,94,0
2,31,94,64
2,36,94,64
2,36,94,0
2,36,94,64
2,36,94,132
2,36,94,132
2,36,94,132
2,34,94,68
2,34,94,4
2,34,94,132
2,31,94,64
2,34,94,68
2,36,94,4
2,34,94,132
2,36,94,132
2,36,94,132
2,36,94,132
2,34,94,68
2,34,94,4
2,34,94,132
2,31,94,64
2,34,94,68
2,36,94,4
2,36,94,132
2,36,94,132
2,36,94,132
2,36,94,132
2,34,94,68
2,34,94,4
2,34,94,132
2,31,94,64
2,34,94,68
2,36,94,4
2,34,94,132
2,36,94,132
2,36,94,132
2,36,94,132
2,34,94,68
2,34,94,4
2,34,94,132
2,31,94,64
2,34,94,68
2,36,94,4
2,36,94,132
2,36,94,132
2,36,94,132
2,36,94,132
2,34,94,68
2,34,94,4
2,34,94,132
2,31,94,64
2,34,94,68
2,36,94,4
2,34,94,132
2,36,94,132
2,36,94,132
2,36,94,132
2,34,94,68
2,34,94,4
2,34,94,132
2,31,94,64
2,34,94,68
2,36,94,4
2,36,94,132
2,36,94,132
2,36,94,132
2,36,94,132
2,34,94,68
2,34,94,4
2,34,94,132
2,31,94,0
2,34,94,68
2,36,94,4
2,34,94,132
2,36,94,132
2,36,94,132
2,36,94,132
2,34,94,68
2,34,94,4
2,34,94,132
2,31,94,64
2,34,94,68
2,36,94,4
2,36,94,0
2,36,94,132
2,36,94,132
2,36,94,132
2,36,94,132
2,34,94,68
2,34,94,4
2,34,94,132
2,31,94,64
2,34,94,68
2,36,94,4
2,34,94,132
2,36,94,132
2,36,94,132
2,36,94,132
2,34,94,68
2,34,94,4
2,34,94,132
2,31,94,64
2,34,94,68
2,36,94,4
2,36,94,132
2,36,94,132
2,36,94,132
2,36,94,132
2,34,94,68
2,34,94,4
2,34,94,132
2,31,94,64
2,34,94,68
2,36,94,4
2,34,94,132
2,36,94,132
2,36,94,132
2,36,94,132
2,34,94,68
2,34,94,4
2,34,94,132
2,31,94,64
2,34,94,68
2,36,94,4
2,36,94,132
2,36,94,132
2,36,94,132
2,36,94,132
2,34,94,68
2,34,94,4
2,34,94,132
2,31,94,64
2,34,94,68
2,36,94,4
2,34,94,132
2,36,94,132
2,36,94,132
2,36,94,132
2,34,94,68
2,34,94,4
2,34,94,132
2,31,94,64
2,34,94,68
2,36,94,4
2,36,94,132
2,36,94,132
2,36,94,132
2,36,94,132
2,34,94,68
2,34,94,4
2,34,94,132
2,31,94,0
2,34,94,68
2,36,94,4
2,34,94,132
2,36,94,132
2,36,94,132
2,36,94,132
2,34,94,68
2,34,94,4
2,34,94,132
2,31,94,64
2,34,94,68
2,36,94,4
2,36,94,0
2,36,94,64
2,36,94,132
2,36,94,132
2,36,94,132
2,34,94,68
2,34,94,4
2,34,94,132
2,31,94,64
2,34,94,68
2,36,94,4
2,34,94,132
2,36,94,132
2,36,94,132
2,36,94,132
2,34,94,68
2,34,94,4
2,34,94,132
2,31,94,64
2,34,94,68
2,36,94,4
2,36,94,132
2,36,94,132
2,36,94,132
2,36,94,132
2,34,94,68
2,34,94,4
2,34,94,132
2,31,94,64
2,34,94,68
2,36,94,4
2,34,94,132
2,36,94,132
2,36,94,132
2,36,94,132
2,34,94,68
2,34,94,4
2,34,94,132
2,31,94,64
2,34,94,68
2,36,94,4
2,36,94,132
2,36,94,132
2,36,94,132
2,36,94,132
2,34,94,68
2,34,94,4
2,34,94,132
2,31,94,64
2,34,94,68
2,36,94,4
2,34,94,132
2,36,94,132
2,36,94,132
2,36,94,132
2,34,94,68
2,34,94,4
2,34,94,132
2,31,94,64
2,34,94,68
2,36,94,4
2,36,94,132
2,36,94,132
2,36,94,132
2,36,94,132
2,34,94,68
2,34,94,4
2,34,94,132
2,31,94,0
2,34,94,68
2,36,94,4
2,34,94,132
2,36,94,132
2,36,94,132
2,36,94,132
2,34,94,68
2,34,94,4
2,34,94,132
2,31,94,64
2,34,94,68
2,36,94,4
2,36,94,0
2,36,94,132
2,36,94,132
2,36,94,132
2,36,94,132
2,34,94,68
2,34,94,4
2,34,94,132
2,31,94,64
2,34,94,68
2,36,94,4
2,34,94,132
2,36,94,132
2,36,94,132
2,36,94,132
2,34,94,68
2,34,94,4
2,34,94,132
2,31,94,64
2,34,94,68
2,36,94,4
2,36,94,132
2,36,94,132
2,36,94,132
2,36,94,132
2,34,94,68
2,34,94,4
2,34,94,132
2,31,94,64
