track,note,velocity,time
1,76,114,13422
1,81,114,0
1,84,114,0
1,79,114,0
1,76,114,32
1,81,114,0
1,84,114,0
1,78,114,0
1,67,114,1024
1,69,114,0
1,76,114,16
1,79,114,0
1,81,114,0
1,84,114,0
1,76,114,64
1,78,114,16
1,81,114,0
1,84,114,0
1,78,114,224
1,76,114,16
1,84,114,0
1,81,114,0
1,78,114,512
1,76,114,16
1,81,114,0
1,84,114,0
1,76,114,32
1,81,114,0
1,84,114,0
1,79,114,32
1,79,114,128
1,81,114,0
1,76,114,0
1,84,114,0
1,76,114,1200
1,79,114,16
1,81,114,32
1,79,114,0
1,81,114,64
1,57,114,1024
1,59,114,0
1,60,114,32
1,62,114,0
1,64,114,0
1,65,114,32
1,67,114,0
1,76,114,16
1,79,114,0
1,81,114,0
1,84,114,0
1,76,114,48
1,78,114,0
1,81,114,0
1,84,114,0
1,67,114,1008
1,69,114,96
1,76,114,32
1,79,114,0
1,81,114,0
1,84,114,0
1,76,114,64
1,81,114,0
1,84,114,0
1,78,114,0
1,78,114,224
1,84,114,0
1,76,114,16
1,81,114,0
1,78,114,512
1,76,114,0
1,81,114,0
1,84,114,0
1,81,114,32
1,76,114,0
1,79,114,16
1,84,114,0
1,76,114,128
1,79,114,0
1,81,114,0
1,84,114,0
1,79,114,960
1,76,114,0
1,81,114,0
1,84,114,0
1,76,114,1120
1,69,114,0
1,72,114,0
1,69,114,64
1,72,114,0
1,76,114,0
1,76,114,48
1,69,114,16
1,72,114,0
1,76,114,16
1,72,114,16
1,69,114,0
1,72,114,128
1,77,114,0
1,69,114,16
1,69,114,128
1,72,114,0
1,77,114,0
1,69,114,528
1,74,114,0
1,65,114,0
1,69,114,64
1,74,114,0
1,65,114,0
1,69,114,48
1,74,114,0
1,65,114,0
1,74,114,16
1,69,114,0
1,65,114,16
1,76,114,112
1,71,114,16
1,72,114,0
1,69,114,160
1,72,114,0
1,65,114,0
1,74,114,528
1,72,114,128
1,74,114,832
1,74,114,320
1,72,114,80
1,76,114,800
1,79,114,0
1,81,114,0
1,84,114,0
1,76,114,0
1,69,114,15
1,72,114,0
1,69,114,0
1,72,114,0
1,76,114,0
1,76,114,64
1,69,114,0
1,72,114,0
1,76,114,32
1,72,114,0
1,69,114,16
1,72,114,144
1,77,114,16
1,69,114,0
1,72,114,144
1,77,114,0
1,69,114,0
1,69,114,512
1,74,114,0
1,65,114,0
1,69,114,64
1,74,114,0
1,65,114,0
1,69,114,48
1,74,114,0
1,65,114,0
1,74,114,32
1,69,114,0
1,65,114,16
1,76,114,128
1,71,114,16
1,72,114,0
1,72,114,160
1,65,114,0
1,69,114,0
1,74,114,576
1,72,114,64
1,74,114,848
1,74,114,304
1,72,114,80
1,48,114,464
1,50,114,16
1,52,114,16
1,53,114,0
1,55,114,0
1,57,114,0
1,59,114,32
1,60,114,0
1,62,114,0
1,64,114,0
1,76,114,32
1,79,114,0
1,81,114,0
1,84,114,0
1,55,114,2512
1,57,114,16
1,59,114,0
1,60,114,48
1,62,114,32
1,64,114,32
1,65,114,48
1,67,114,32
1,69,114,0
1,76,114,16
1,79,114,0
1,81,114,16
1,84,114,0
1,76,114,640
1,71,114,16
1,79,114,48
1,74,114,0
1,81,114,0
1,76,114,16
1,77,114,0
1,84,114,16
1,81,114,0
1,76,114,0
1,79,114,512
1,76,114,16
1,81,114,0
1,77,114,32
1,81,114,96
1,77,114,16
1,57,114,3520
1,59,114,0
1,60,114,32
1,62,114,32
1,64,114,32
1,65,114,48
1,67,114,32
1,76,114,16
1,79,114,0
1,81,114,16
1,84,114,0
1,76,114,560
1,71,114,16
1,74,114,48
1,79,114,0
1,81,114,96
1,76,114,0
1,77,114,16
1,84,114,16
1,76,114,0
1,81,114,16
1,76,114,512
1,79,114,16
1,77,114,16
1,81,114,16
1,81,114,128
1,77,114,0
1,69,114,25280
1,72,114,0
1,76,114,0
1,69,114,48
1,72,114,0
1,76,114,0
1,69,114,16
1,72,114,0
1,72,114,144
1,69,114,0
1,77,114,0
1,72,114,128
1,69,114,16
1,77,114,0
1,69,114,512
1,65,114,16
1,74,114,0
1,69,114,64
1,74,114,0
1,65,114,0
1,69,114,64
1,74,114,0
1,65,114,16
1,69,114,32
1,74,114,0
1,65,114,16
1,76,114,144
1,72,114,16
1,71,114,0
1,72,114,160
1,65,114,0
1,69,114,0
1,74,114,496
1,72,114,112
1,74,114,832
1,74,114,304
1,72,114,32
1,76,114,800
1,81,114,0
1,79,114,0
1,84,114,0
1,72,114,0
1,76,114,0
1,69,114,0
1,76,114,0
1,69,114,16
1,72,114,0
1,69,114,16
1,72,114,0
1,76,114,0
1,76,114,16
1,72,114,16
1,72,114,128
1,69,114,16
1,77,114,0
1,72,114,144
1,69,114,0
1,77,114,16
1,69,114,528
1,74,114,0
1,65,114,0
1,69,114,64
1,74,114,0
1,65,114,0
1,69,114,64
1,74,114,0
1,65,114,0
1,74,114,32
1,69,114,0
1,65,114,16
1,76,114,144
1,72,114,16
1,71,114,0
1,65,114,160
1,69,114,0
1,72,114,0
1,74,114,576
1,72,114,0
1,74,114,816
1,74,114,320
1,72,114,112
1,52,114,544
1,53,114,16
1,55,114,0
1,57,114,32
1,59,114,32
1,60,114,0
1,72,114,32
1,76,114,0
1,69,114,0
1,76,114,64
1,69,114,0
1,72,114,0
1,76,114,64
1,69,114,0
1,72,114,0
1,72,114,16
1,72,114,128
1,69,114,0
1,77,114,0
1,69,114,144
1,72,114,0
1,77,114,0
1,69,114,528
1,74,114,0
1,65,114,0
1,69,114,48
1,74,114,0
1,65,114,16
1,69,114,48
1,74,114,0
1,65,114,0
1,69,114,32
1,74,114,0
1,65,114,16
1,76,114,128
1,72,114,0
1,69,114,176
1,72,114,0
1,65,114,16
1,74,114,608
1,72,114,0
1,74,114,816
1,74,114,320
1,72,114,112
1,69,114,816
1,72,114,0
1,76,114,0
1,76,114,64
1,69,114,0
1,72,114,16
1,69,114,48
1,76,114,0
1,72,114,0
1,76,114,32
1,72,114,16
1,69,114,0
1,72,114,128
1,69,114,16
1,77,114,0
1,72,114,128
1,77,114,0
1,69,114,16
1,65,114,544
1,69,114,0
1,74,114,0
1,69,114,64
1,74,114,0
1,65,114,0
1,69,114,48
1,74,114,16
1,65,114,0
1,69,114,16
1,74,114,0
1,65,114,16
1,76,114,128
1,71,114,16
1,72,114,0
1,69,114,176
1,72,114,0
1,65,114,0
1,74,114,592
1,72,114,112
1,74,114,832
1,74,114,304
1,74,114,16
1,72,114,16
1,50,114,448
1,52,114,0
1,53,114,32
1,55,114,0
1,57,114,32
1,59,114,0
1,60,114,0
1,62,114,32
1,64,114,16
1,65,114,16
1,67,114,16
1,76,114,15
1,79,114,0
1,81,114,0
1,84,114,0
1,55,114,2720
1,53,114,0
1,57,114,15
1,59,114,32
1,60,114,0
1,62,114,32
1,64,114,32
1,65,114,32
1,67,114,32
1,69,114,16
1,71,114,16
1,76,114,0
1,81,114,0
1,84,114,0
1,79,114,0
1,76,114,560
1,71,114,16
1,79,114,48
1,74,114,0
1,81,114,64
1,76,114,0
1,84,114,0
1,77,114,16
1,81,114,240
1,76,114,0
1,74,114,512
1,79,114,16
1,76,114,32
1,81,114,16
1,76,114,112
1,81,114,0
1,53,114,3488
1,55,114,0
1,57,114,0
1,59,114,32
1,60,114,48
1,62,114,32
1,64,114,32
1,65,114,32
1,67,114,16
1,69,114,0
1,76,114,0
1,79,114,0
1,81,114,0
1,84,114,0
1,71,114,576
1,76,114,16
1,74,114,48
1,79,114,0
1,81,114,80
1,76,114,0
1,84,114,0
1,77,114,16
1,81,114,0
1,76,114,16
1,74,114,512
1,79,114,16
1,76,114,32
1,81,114,0
1,81,114,128
1,76,114,0
1,69,114,24976
1,72,114,64
1,76,114,0
1,69,114,0
1,69,114,48
1,72,114,0
1,76,114,16
1,76,114,16
1,72,114,0
1,69,114,16
1,72,114,144
1,69,114,0
1,77,114,0
1,69,114,128
1,72,114,0
1,77,114,16
1,69,114,528
1,74,114,0
1,65,114,16
1,69,114,48
1,74,114,0
1,65,114,0
1,69,114,48
1,74,114,0
1,65,114,16
1,69,114,32
1,74,114,0
1,65,114,16
1,72,114,128
1,76,114,0
1,77,114,0
1,69,114,160
1,72,114,0
1,65,114,0
1,74,114,560
1,72,114,0
1,74,114,832
1,74,114,336
1,72,114,112
1,50,114,496
1,52,114,0
1,53,114,0
1,55,114,32
1,57,114,32
1,59,114,32
1,60,114,16
1,62,114,0
1,76,114,16
1,69,114,0
1,72,114,0
1,69,114,64
1,72,114,0
1,76,114,0
1,76,114,48
1,69,114,0
1,72,114,0
1,76,114,32
1,69,114,0
1,72,114,0
1,72,114,160
1,77,114,0
1,69,114,0
1,72,114,144
1,77,114,0
1,69,114,0
1,69,114,544
1,74,114,0
1,65,114,0
1,69,114,48
1,74,114,0
1,65,114,0
1,69,114,48
1,74,114,0
1,65,114,16
1,69,114,32
1,74,114,0
1,65,114,16
1,76,114,128
1,72,114,16
1,69,114,160
1,65,114,16
1,72,114,0
1,74,114,528
1,72,114,112
1,74,114,816
1,74,114,320
1,72,114,96
1,75,114,25408
1,76,114,255
1,69,114,0
1,72,114,0
1,72,114,48
1,76,114,0
1,69,114,16
1,72,114,32
1,69,114,0
1,72,114,160
1,69,114,0
1,77,114,0
1,72,114,144
1,77,114,0
1,69,114,0
1,69,114,528
1,65,114,0
1,74,114,0
1,69,114,64
1,65,114,0
1,74,114,0
1,69,114,64
1,74,114,0
1,65,114,16
1,69,114,32
1,74,114,0
1,65,114,0
1,76,114,160
1,72,114,0
1,67,114,16
1,72,114,160
1,69,114,0
1,65,114,16
1,74,114,544
1,72,114,16
1,74,114,784
1,74,114,336
1,72,114,64
1,72,114,800
1,76,114,0
1,69,114,16
1,69,114,64
1,76,114,0
1,72,114,16
1,72,114,48
1,76,114,0
1,69,114,0
1,76,114,16
1,72,114,0
1,69,114,16
1,72,114,144
1,69,114,0
1,77,114,0
1,72,114,160
1,77,114,0
1,69,114,0
1,69,114,528
1,74,114,0
1,65,114,0
1,65,114,64
1,69,114,0
1,74,114,0
1,69,114,64
1,74,114,0
1,65,114,0
1,69,114,32
1,74,114,0
1,65,114,0
1,72,114,160
1,76,114,0
1,69,114,160
1,72,114,0
1,65,114,0
1,74,114,576
1,72,114,112
1,74,114,816
1,74,114,320
1,74,114,32
1,72,114,0
1,76,114,816
1,69,114,0
1,72,114,0
1,72,114,64
1,76,114,0
1,69,114,0
1,69,114,64
1,76,114,0
1,72,114,0
1,76,114,16
1,72,114,16
1,69,114,0
1,72,114,144
1,77,114,0
1,69,114,0
1,69,114,160
1,72,114,0
1,77,114,0
1,69,114,512
1,65,114,16
1,74,114,0
1,69,114,64
1,74,114,0
1,65,114,0
1,69,114,48
1,74,114,16
1,65,114,0
1,69,114,32
1,74,114,0
1,65,114,0
1,76,114,144
1,71,114,0
1,72,114,0
1,69,114,160
1,72,114,0
1,65,114,16
1,74,114,640
1,72,114,112
1,74,114,800
1,74,114,304
1,72,114,48
1,50,114,448
1,52,114,0
1,53,114,32
1,55,114,32
1,57,114,0
1,59,114,32
1,60,114,32
1,62,114,0
1,69,114,32
1,76,114,0
1,72,114,0
1,76,114,64
1,72,114,16
1,69,114,0
1,72,114,48
1,76,114,0
1,69,114,0
1,76,114,16
1,72,114,16
1,69,114,16
1,69,114,144
1,72,114,0
1,77,114,0
1,72,114,144
1,77,114,0
1,69,114,0
1,69,114,112
1,74,114,0
1,65,114,0
1,69,114,48
1,74,114,0
1,65,114,0
1,69,114,48
1,74,114,0
1,65,114,0
1,74,114,48
1,69,114,0
1,65,114,0
1,76,114,128
1,72,114,0
1,71,114,0
1,72,114,144
1,69,114,16
1,65,114,0
1,74,114,592
1,72,114,32
1,74,114,832
1,74,114,304
1,72,114,112
1,57,114,1008
1,69,114,16
1,60,114,128
1,72,114,16
1,57,114,16
1,69,114,32
1,60,114,96
1,72,114,32
1,64,114,112
1,76,114,16
1,60,114,48
1,72,114,16
1,76,114,112
1,64,114,0
1,67,114,128
1,79,114,16
1,64,114,48
1,76,114,0
1,67,114,96
1,79,114,16
1,71,114,96
1,83,114,32
1,69,114,16
1,81,114,0
1,67,114,16
1,52,114,16
1,53,114,0
1,55,114,16
1,57,114,16
1,59,114,16
1,60,114,16
1,62,114,0
1,64,114,0
1,65,114,32
1,67,114,16
1,69,114,16
1,81,114,0
1,79,114,0
1,84,114,0
1,79,114,0
1,81,114,0
1,84,114,0
1,76,114,0
2,74,127,52222
2,76,127,128
2,77,127,128
2,76,127,320
2,72,127,336
2,71,127,1872
2,72,127,128
2,74,127,128
2,72,127,352
2,69,127,336
2,67,127,1872
2,69,127,128
2,71,127,128
2,69,127,352
2,64,127,320
2,74,127,4960
2,76,127,128
2,77,127,128
2,76,127,320
2,72,127,336
2,71,127,1872
2,72,127,128
2,74,127,128
2,72,127,352
2,69,127,336
2,67,127,1872
2,69,127,128
2,71,127,128
2,69,127,352
2,64,127,320
2,81,127,3024
2,64,127,2832
2,69,127,0
2,76,127,3040
2,81,127,224
2,76,127,3120
2,81,127,0
2,76,127,15568
2,74,127,1872
2,76,127,128
2,77,127,128
2,76,127,304
2,72,127,352
2,71,127,1872
2,72,127,112
2,74,127,144
2,72,127,320
2,69,127,320
2,67,127,1904
2,69,127,128
2,71,127,128
2,69,127,304
2,64,127,336
2,64,127,2656
2,76,127,336
2,74,127,1888
2,76,127,144
2,77,127,128
2,76,127,336
2,72,127,320
2,71,127,1872
2,72,127,128
2,74,127,128
2,72,127,336
2,69,127,336
2,67,127,1856
2,69,127,144
2,71,127,144
2,69,127,336
2,64,127,336
2,81,127,3024
2,64,127,2864
2,69,127,16
2,76,127,3152
2,74,127,1888
2,76,127,128
2,77,127,112
2,76,127,304
2,72,127,352
2,71,127,1856
2,72,127,112
2,74,127,128
2,72,127,336
2,69,127,336
2,67,127,1872
2,69,127,128
2,71,127,128
2,69,127,320
2,64,127,336
2,64,127,2624
2,76,127,336
2,74,127,1872
2,76,127,128
2,77,127,112
2,76,127,320
2,72,127,320
2,71,127,1872
2,72,127,128
2,74,127,144
2,72,127,320
2,69,127,304
2,67,127,1856
2,69,127,144
2,71,127,128
2,69,127,320
2,64,127,336
2,81,127,3008
2,76,127,2784
2,81,127,16
2,76,127,2848
2,81,127,0
2,76,127,2832
2,81,127,0
3,57,104,0
3,64,104,0
3,60,104,0
3,60,104,128
3,65,104,0
3,57,104,0
3,60,104,0
3,65,104,0
3,57,104,0
3,77,104,368
3,79,104,64
3,81,104,64
3,62,104,0
3,59,104,0
3,55,104,0
3,59,104,0
3,62,104,0
3,55,104,0
3,79,104,64
3,64,104,64
3,60,104,0
3,76,104,0
3,57,104,0
3,60,104,0
3,64,104,0
3,57,104,0
3,74,104,80
3,76,104,32
3,62,104,48
3,77,104,0
3,55,104,0
3,59,104,0
3,59,104,0
3,55,104,0
3,62,104,0
3,76,104,64
3,72,104,64
3,60,104,16
3,65,104,0
3,60,104,0
3,65,104,0
3,57,104,0
3,57,104,0
3,57,104,16
3,60,104,32
3,65,104,96
3,71,104,112
3,72,104,32
3,74,104,64
3,72,104,0
3,71,104,64
3,64,104,0
3,59,104,0
3,57,104,16
3,59,104,352
3,56,104,0
3,64,104,0
3,57,104,304
3,60,104,0
3,64,104,0
3,60,104,144
3,65,104,0
3,57,104,0
3,77,104,368
3,79,104,64
3,81,104,32
3,59,104,32
3,62,104,0
3,55,104,16
3,79,104,48
3,64,104,48
3,76,104,0
3,57,104,0
3,60,104,0
3,74,104,112
3,76,104,48
3,77,104,48
3,55,104,16
3,59,104,0
3,62,104,0
3,76,104,32
3,72,104,64
3,60,104,0
3,57,104,16
3,65,104,0
3,71,104,16
3,57,104,48
3,72,104,0
3,60,104,16
3,65,104,48
3,74,104,16
3,72,104,64
3,71,104,64
3,59,104,0
3,64,104,0
3,57,104,0
3,71,104,144
3,72,104,16
3,59,104,80
3,64,104,0
3,56,104,0
3,71,104,16
3,69,104,112
3,72,104,0
3,76,104,0
