track,note,velocity,time
1,55,101,10188
1,55,115,68
1,52,98,212
1,52,86,20
1,55,104,708
1,53,104,764
1,53,125,1304
1,53,120,72
1,52,114,12
1,52,122,40
1,40,122,20
1,52,122,0
1,49,106,200
1,55,115,1620
1,55,115,92
1,52,112,172
1,45,124,776
1,45,121,88
1,45,121,52
1,53,120,4
1,52,109,2068
1,53,110,32
1,53,110,72
1,52,104,16
1,52,109,36
1,40,114,192
1,48,120,36
1,45,96,4
1,45,106,32
1,60,104,1120
1,60,110,52
1,60,98,16
1,60,97,860
1,62,101,20
1,60,93,0
1,62,96,140
1,60,101,12
1,59,101,8
1,59,98,8
1,57,112,148
1,53,93,344
1,53,97,28
1,57,112,408
1,57,104,48
1,57,112,60
1,57,98,44
1,55,115,52
1,53,110,16
1,53,118,76
1,55,105,260
1,52,100,108
1,49,95,16
1,45,96,4
1,55,97,16
1,52,99,12
1,58,110,380
1,57,104,544
1,57,109,64
1,53,115,8
1,53,110,40
1,53,110,40
1,52,112,1676
1,53,123,44
1,52,109,36
1,52,112,60
1,52,112,56
1,60,115,1672
1,57,110,28
2,40,11,756
2,38,58,36
2,42,59,400
2,38,37,200
2,40,11,16
2,38,63,68
2,44,50,20
2,40,26,232
2,38,48,16
2,44,50,36
2,38,43,40
2,40,25,52
2,38,51,24
2,44,50,76
2,40,25,164
2,38,33,4
2,44,50,16
2,38,31,32
2,40,26,52
2,38,58,12
2,44,50,36
2,40,37,124
2,38,42,28
2,44,50,20
2,38,52,4
2,40,38,56
2,38,63,12
2,44,50,16
2,81,32,816
2,81,28,60
2,81,22,96
2,44,38,1104
2,44,36,224
2,38,54,0
2,44,35,236
2,38,72,192
2,44,38,0
2,44,36,244
2,44,40,108
2,38,81,0
2,44,38,248
2,44,44,172
2,38,85,0
2,44,38,228
2,44,36,148
2,38,54,0
2,44,35,236
2,38,72,192
2,44,38,0
2,44,36,244
2,44,40,108
2,38,81,0
2,44,38,248
2,44,44,172
2,38,85,0
2,44,28,228
2,44,26,148
2,38,44,0
2,44,25,236
2,38,62,192
2,44,28,0
2,44,26,244
2,44,30,108
2,38,71,0
2,44,28,248
2,44,34,172
2,38,75,0
2,44,28,228
2,44,26,148
2,38,44,0
2,44,25,236
2,38,62,192
2,44,28,0
2,44,36,244
2,44,40,108
2,38,81,0
2,44,38,248
2,44,44,172
2,38,85,0
2,44,38,228
2,44,36,148
2,38,54,0
2,44,35,236
2,38,72,192
2,44,38,0
2,44,36,244
2,44,40,108
2,38,81,0
2,44,38,248
2,44,44,172
2,38,85,0
2,44,30,228
2,44,28,148
2,38,46,0
2,44,27,236
2,38,64,192
2,44,30,0
2,44,28,244
2,44,32,108
2,38,73,0
2,44,38,248
2,44,44,172
2,38,85,0
2,44,38,228
2,44,36,148
2,38,54,0
2,44,35,236
2,38,72,192
2,44,38,0
2,44,36,244
2,44,40,108
2,38,81,0
2,44,28,248
2,44,34,172
2,38,75,0
2,44,28,228
2,44,26,148
2,38,44,0
2,44,25,236
2,38,62,192
2,44,28,0
2,44,36,244
2,44,40,108
2,38,81,0
2,44,38,248
2,44,44,172
2,38,85,0
2,44,38,228
2,44,36,148
2,38,54,0
2,44,35,236
2,38,72,192
2,44,38,0
2,44,36,244
2,44,40,108
2,38,81,0
2,44,38,248
2,44,44,172
2,38,85,0
2,44,38,228
2,44,36,148
2,38,54,0
2,44,35,236
2,38,72,192
2,44,38,0
2,44,36,244
2,44,40,108
2,38,81,0
2,44,38,248
2,44,44,172
2,38,85,0
2,44,38,228
2,44,36,148
2,38,54,0
2,44,35,236
2,38,72,192
2,44,38,0
2,44,36,244
2,44,40,108
2,38,81,0
2,44,38,248
2,44,44,172
2,38,85,0
2,44,36,1300
2,44,40,232
2,38,81,0
2,44,38,248
2,44,44,172
2,38,85,0
2,44,45,228
2,44,43,148
2,38,61,0
2,44,42,236
2,38,79,192
2,44,45,0
2,44,43,244
2,44,47,108
2,38,88,0
2,44,45,248
2,44,51,172
2,38,92,0
2,44,45,228
2,44,43,148
2,38,61,0
2,44,42,236
2,38,79,192
2,44,45,0
2,44,43,244
2,44,47,108
2,38,88,0
2,44,45,248
2,44,51,172
2,38,92,0
2,44,45,228
2,44,43,148
2,38,61,0
3,33,84,804
3,40,64,156
3,45,70,88
3,40,64,88
3,33,66,152
3,40,74,56
3,29,77,164
3,36,64,76
3,41,69,72
3,29,72,116
3,40,82,432
3,40,75,136
3,36,71,172
3,36,75,164
3,36,71,172
3,35,85,144
3,35,87,140
3,35,80,176
3,28,97,108
3,33,87,432
3,40,75,28
3,33,83,772
3,40,83,8
3,33,87,380
3,26,74,12
3,33,75,8
3,26,66,0
3,33,95,744
3,28,87,12
3,35,75,24
3,40,73,644
3,28,55,8
3,35,79,772
3,33,79,756
3,40,69,740
3,33,92,4
3,40,83,748
3,45,66,368
3,33,77,16
3,40,83,768
3,33,85,764
3,40,81,756
3,33,85,0
3,26,83,28
3,33,71,12
3,38,66,16
3,26,75,12
3,33,95,20
3,26,83,24
3,28,92,8
3,35,83,12
3,28,77,12
3,35,85,16
3,28,75,8
3,33,77,0
3,40,73,752
3,33,92,12
3,40,79,748
3,33,77,0
3,38,85,88
3,38,75,104
3,38,74,116
3,38,74,112
3,38,72,128
3,38,81,84
3,31,73,60
3,35,75,728
3,38,81,392
3,31,73,396
3,38,83,736
3,31,65,4
3,29,86,0
3,29,67,92
3,36,70,388
3,29,63,8
3,29,75,660
3,28,72,24
3,33,98,2304
3,33,90,100
3,40,80,12
3,33,95,8
3,40,80,772
3,33,100,0
3,26,90,12
3,33,90,8
3,38,72,0
3,26,78,140
3,33,90,28
3,26,93,16
3,28,95,20
4,57,64,768
4,60,75,16
4,64,74,56
4,65,85,500
4,60,75,0
4,60,56,96
4,66,88,4
4,60,66,484
4,67,98,4
4,55,51,44
4,56,62,12
4,60,49,16
4,63,33,20
4,70,40,0
4,72,53,36
4,75,27,20
4,79,54,16
4,63,77,228
4,60,75,0
4,56,61,4
4,60,75,304
4,56,59,4
4,64,81,4
4,56,59,248
4,60,75,8
4,65,75,32
4,71,98,908
4,76,101,4
4,71,98,88
4,76,98,0
4,71,101,132
4,76,98,0
5,55,12,40760
5,57,39,28
5,60,31,20
5,62,54,20
5,53,28,172
5,55,51,20
5,60,43,24
5,57,39,4
6,76,79,7184
6,69,56,4
6,64,79,12
6,52,98,0
6,59,77,8
6,64,77,128
6,52,93,0
6,76,64,4
6,69,54,4
6,59,91,4
6,76,75,96
6,69,60,0
6,48,77,8
6,64,75,16
6,58,80,0
6,48,86,112
6,64,68,4
6,76,69,4
6,69,51,4
6,58,74,4
6,48,90,128
6,76,75,4
6,69,57,4
6,58,80,0
6,64,79,4
6,47,91,88
6,69,54,4
6,76,68,4
6,64,68,0
6,57,79,4
6,47,86,128
6,76,60,4
6,69,52,0
6,64,75,0
6,57,86,8
6,64,68,104
6,47,89,4
6,69,64,4
6,76,73,0
6,57,77,12
6,46,74,80
6,64,73,4
6,68,68,0
6,76,75,4
6,56,77,12
6,76,84,16132
6,74,62,100
6,69,66,80
6,65,78,8
6,76,77,12
6,74,71,20
6,76,79,16
6,74,77,0
6,69,75,96
6,65,78,60
6,76,87,4
6,74,87,16
6,69,69,172
6,62,60,20
6,68,74,4
6,69,83,924
6,71,79,116
6,72,83,4
6,71,77,88
6,69,81,4
6,68,70,8
6,83,75,964
6,81,62,84
6,76,60,72
6,73,69,4
6,83,59,20
6,81,75,596
6,83,89,32
6,81,83,100
6,76,81,72
6,73,79,4
6,71,65,8
6,69,77,8
6,64,77,32
6,61,92,20
6,59,87,40
6,61,74,196
6,64,72,168
6,76,66,4
6,57,33,11160
6,61,51,4
6,64,57,4
6,63,54,4
6,60,68,4
6,62,65,120
6,59,68,0
6,61,49,4
6,58,79,16
6,59,60,0
6,62,61,12
6,60,56,0
6,63,52,8
6,64,44,8
6,61,68,12
6,67,58,12
6,64,66,4
6,65,58,24
6,62,63,4
6,64,61,12
6,64,72,0
6,65,50,8
6,62,48,8
6,64,72,4
6,64,54,8
6,62,68,4
6,65,58,4
6,64,50,12
6,64,63,12
6,59,57,4
6,59,83,8
6,52,56,4
6,64,60,0
7,60,71,864
7,57,89,0
7,64,89,0
7,65,99,8
7,63,77,16
7,66,83,0
7,67,99,8
7,64,75,12
7,53,90,580
7,62,71,8
7,60,53,8
7,63,90,4
7,64,91,4
7,65,99,0
7,52,108,336
7,64,114,0
7,52,108,76
7,64,106,0
7,52,103,104
7,64,108,0
7,64,106,112
7,52,103,4
7,52,106,120
7,64,108,0
7,52,108,116
7,64,106,4
7,52,98,112
7,64,101,0
7,64,98,136
7,52,96,12
7,52,81,120
7,64,91,4
7,64,61,468
7,65,66,36
7,64,64,8
7,61,65,264
7,57,61,344
7,62,74,92
7,88,75,380
7,86,61,88
7,81,75,64
7,77,80,44
7,88,77,0
7,86,89,28
7,88,84,8
7,86,69,112
7,81,71,80
7,77,75,20
7,88,77,80
7,86,102,8
7,81,63,200
7,74,99,0
7,80,75,12
7,59,56,16
7,81,92,872
7,83,77,136
7,84,86,0
7,83,65,144
7,81,81,68
7,80,79,8
7,57,54,100
7,83,75,376
7,81,62,84
7,76,60,76
7,73,69,4
7,83,59,20
7,81,75,600
7,83,89,32
7,81,83,104
7,76,81,0
7,73,79,4
7,71,65,4
7,69,77,4
7,64,77,32
7,61,92,24
7,59,87,36
7,61,74,196
7,64,72,168
7,76,66,4
7,57,41,11152
7,61,59,4
7,60,61,8
7,59,90,152
7,58,96,116
7,59,76,0
7,60,94,104
7,61,63,16
7,64,63,704
7,65,77,36
7,62,17,68
7,64,84,12
7,65,85,372
7,64,78,372
7,62,69,384
7,64,76,28
7,59,79,4
7,52,79,24
7,45,79,1048
7,64,86,364
7,66,91,8
7,67,97,16
7,41,104,36
7,62,104,368
7,64,96,12
7,65,104,0
7,40,98,48
7,59,98,204
7,59,109,84
7,45,91,12
7,61,59,8
7,57,33,8
8,55,83,10428
8,54,95,16
8,53,58,8
8,52,95,116
8,53,73,108
8,54,83,4
8,55,58,8
8,55,87,20
8,57,66,32
8,59,87,0
8,60,83,384
8,59,85,12
8,58,83,0
8,59,70,8
8,56,74,404
8,52,64,312
8,54,73,0
8,56,71,384
8,54,85,356
8,52,69,0
8,54,75,0
8,52,83,140
8,53,83,908
8,54,57,8
8,55,99,132
8,54,85,0
8,53,75,4
8,52,75,12
8,55,77,4
8,50,66,20
8,52,75,752
8,53,75,772
8,52,67,0
8,51,65,376
8,52,72,20
8,56,59,32
8,57,74,0
8,56,70,8
8,52,62,316
8,54,71,1144
8,56,83,388
8,54,65,360
8,52,63,0
8,54,74,360
9,84,47,41768
9,81,44,48
9,84,58,148
9,81,80,164
9,84,83,160
9,77,61,24
9,86,99,0
9,86,77,8
9,62,52,248
9,86,59,4
9,86,59,0
9,83,95,184
9,83,95,0
9,59,60,8
9,82,88,108
9,82,88,0
9,58,73,12
9,80,97,144
9,80,97,0
9,56,81,4
9,77,120,176
9,77,120,0
9,53,105,4
9,76,102,0
9,76,102,0
9,52,83,4
9,74,92,172
9,74,92,0
9,50,79,8
9,47,89,184
9,71,112,4
9,71,112,0
9,64,79,11828
9,66,59,20
9,67,54,4
9,62,71,508
9,64,79,20
9,65,89,12
9,64,50,260
9,64,54,144
10,61,59,10444
10,62,62,912
10,63,58,84
10,64,72,4
10,63,67,124
10,62,52,16
10,61,75,12
10,64,69,8
10,62,57,20
10,64,70,20
10,65,59,8
10,64,79,28
10,62,72,20
10,59,60,32
10,64,62,32
10,61,60,12
10,61,52,16
10,61,73,84
10,62,53,0
10,64,77,40
10,63,39,8
10,62,56,96
10,61,56,8
10,61,56,10424
10,62,52,16
10,64,56,132
10,62,53,4
10,61,43,12
10,76,50,22940
10,78,79,4
10,79,61,380
10,74,14,476
10,76,73,4
10,77,59,8
10,71,53,320
10,71,41,160
11,60,67,35016
11,64,59,0
11,50,62,608
11,54,79,168
11,52,74,8
11,49,72,8
11,50,70,0
11,54,83,24
11,52,53,104
11,49,66,12
11,50,72,108
11,52,83,80
11,64,79,12
11,59,77,16
11,57,41,16336
11,52,46,4
11,65,70,168
11,69,76,0
12,83,100,4
12,81,87,40
12,76,67,88
12,72,91,0
12,83,97,0
12,81,90,136
12,83,97,100
12,81,90,88
12,76,85,76
12,72,91,56
12,83,95,40
12,81,92,36
12,76,85,12
12,72,84,8
12,79,95,396
12,77,76,80
12,72,78,92
12,67,73,72
12,79,93,16
12,77,82,28
12,79,99,60
12,77,89,88
12,72,89,92
12,67,78,76
12,79,95,8
12,77,103,36
12,72,89,24
12,68,94,12
12,76,94,32
12,76,104,5628
12,74,95,96
12,69,97,88
12,65,86,64
12,76,95,16
12,74,97,0
12,76,102,16
12,74,83,88
12,69,92,76
12,65,70,72
12,76,99,68
12,74,97,528
12,69,83,8
12,62,87,196
12,67,31,164
12,68,89,4
12,68,89,148
12,69,75,16
12,72,95,32
12,71,77,140
12,69,77,104
12,68,65,16
12,71,97,4
12,69,82,60
12,64,82,56
12,61,92,80
12,71,97,8
12,69,102,616
12,71,99,84
12,69,85,88
12,64,79,60
12,61,99,28
12,71,92,12
12,76,95,8
12,73,98,172
12,67,56,12
12,64,74,20
12,63,63,4
12,66,77,4
12,62,70,0
12,65,83,8
12,61,83,12
12,64,65,4
12,65,65,116
12,62,74,4
12,66,51,4
12,63,67,4
12,67,63,12
12,64,72,0
12,63,65,8
12,66,72,8
12,64,58,16
12,67,56,4
12,65,73,12
12,62,62,8
12,64,62,4
12,61,75,0
12,63,39,8
12,60,59,0
12,62,71,4
12,59,79,0
12,63,59,0
12,60,57,4
12,61,77,8
12,64,44,4
12,65,46,20
12,62,66,16
12,59,74,12
12,62,69,12
12,76,88,18956
12,74,83,92
12,69,86,80
12,65,77,56
12,76,93,12
12,74,93,0
12,76,93,8
12,74,83,92
12,69,86,56
12,65,74,32
12,76,98,48
12,74,100,544
12,69,90,156
12,62,90,172
12,65,87,16
12,79,96,40
12,76,95,76
12,72,77,52
12,69,90,72
12,67,100,28
12,64,86,92
12,62,78,0
12,50,74,8
12,64,86,100
12,67,104,20
12,52,88,4
12,72,75,32
12,76,95,12
12,72,60,0
12,84,42,64
12,83,98,476
12,81,93,76
12,76,93,60
12,73,93,76
12,83,104,96
12,81,93,436
12,76,76,52
12,73,83,72
12,77,101,100
12,76,83,96
12,74,73,0
12,77,110,68
12,76,98,28
12,74,91,16
12,69,93,28
12,65,115,104
12,64,83,4
12,65,93,4
12,64,54,44
12,65,67,28
12,64,76,4
12,65,72,28
12,64,69,0
12,65,70,36
12,64,54,0
12,65,64,32
12,64,61,4
12,65,64,28
12,64,53,0
12,65,70,36
12,64,58,4
12,65,61,24
12,64,65,4
12,65,70,28
12,64,73,4
12,65,64,28
12,64,65,4
12,65,51,28
12,64,50,0
12,65,54,28
12,64,67,0
12,65,64,36
12,64,61,4
12,65,61,28
12,64,58,4
12,65,59,20
12,64,54,40
12,65,54,24
12,64,47,8
12,65,59,20
12,64,58,36
12,64,59,32
12,65,25,32
13,60,70,35024
13,64,69,4
13,54,74,0
13,62,92,128
13,74,121,8
13,60,73,4
13,72,115,16
13,56,102,20
13,68,114,8
13,67,54,220
13,71,69,4
13,64,70,0
13,62,48,4
13,55,83,0
13,65,86,696
13,60,73,0
13,69,92,4
13,62,87,4
13,60,120,180
13,57,117,0
13,60,117,188
13,57,125,0
13,60,120,188
13,62,125,36
13,72,86,4
13,65,70,0
13,69,87,4
13,74,97,0
13,60,68,10564
13,53,100,8
13,65,108,16
13,60,100,0
13,56,93,28
13,64,98,0
13,52,80,8
13,64,76,12
13,62,105,4
13,64,103,20
13,67,108,28
13,72,94,40
13,76,98,32
13,45,73,60
13,41,93,16
13,40,98,8
13,65,104,372
13,64,79,48
13,65,89,0
13,64,88,0
13,65,87,36
13,64,11,32
13,65,72,24
13,64,86,0
13,65,72,24
13,64,14,28
13,65,87,28
13,64,14,28
13,65,83,24
13,64,29,20
13,65,83,24
