track,note,velocity,time
2,37,81,1
2,37,56,9
2,44,73,36
2,37,78,0
2,44,85,11
2,32,80,244
2,37,82,174
2,37,60,12
2,44,83,16
2,37,75,384
2,44,83,22
2,44,83,1
2,37,79,192
2,37,50,44
2,44,75,9
2,37,75,384
2,44,71,44
2,37,75,244
2,39,79,4
2,44,85,75
2,39,87,69
2,32,87,90
2,44,87,37
2,37,79,65
2,44,83,100
2,37,75,53
2,44,79,85
2,37,79,38
2,39,85,63
2,39,87,84
2,32,83,68
2,44,79,82
2,37,90,81
2,44,75,61
2,37,87,49
2,44,83,73
2,37,90,59
2,39,92,55
2,39,92,20
2,44,92,10
2,32,87,30
2,37,96,10
2,44,78,10
2,37,99,11
2,34,88,10
2,39,94,10
2,39,87,70
2,32,87,19
2,44,87,7
2,37,92,6
2,44,94,384
2,37,87,381
2,44,87,39
2,37,90,6
2,39,96,3
2,39,92,85
2,44,83,16
2,32,87,32
2,44,83,244
2,37,83,10
2,44,79,15
2,37,79,71
2,44,83,68
2,44,79,36
2,42,82,69
2,49,83,47
2,42,87,64
2,42,79,90
2,44,75,55
2,37,82,61
2,44,87,52
2,37,75,102
2,44,87,61
2,37,85,48
2,36,83,68
2,36,83,63
2,29,92,16
2,41,87,31
2,33,79,436
2,34,83,31
2,38,90,43
2,38,87,71
2,39,92,73
2,39,87,92
2,32,92,96
2,32,87,69
2,36,83,13
2,37,79,38
2,44,79,384
2,44,65,52
2,37,78,52
2,44,92,34
2,38,87,22
2,39,75,31
2,39,79,66
2,46,73,42
2,46,75,72
2,44,79,43
2,44,83,63
2,39,79,47
2,39,63,16
2,44,79,2
2,44,68,7
2,37,82,9
2,37,79,59
2,44,79,2
2,44,92,54
2,38,83,46
2,39,85,1
2,40,87,11
2,41,87,2
2,42,96,16
2,41,79,24
2,39,87,4
2,37,79,11
2,30,87,16
2,36,85,192
2,37,82,4
2,42,87,2
2,41,87,12
2,41,92,49
2,40,92,35
2,38,96,61
2,39,96,17
2,43,96,244
2,44,75,3
2,45,79,16
2,46,75,23
2,44,82,192
2,41,83,187
2,34,87,20
2,39,92,10
2,43,79,192
2,44,79,12
2,38,87,28
2,37,90,13
2,32,79,10
2,34,92,192
2,37,83,9
2,40,92,192
2,40,87,57
2,37,83,43
2,38,92,21
2,39,87,17
2,43,87,192
2,44,90,25
2,46,87,51
2,39,83,23
2,39,87,47
2,38,92,46
2,38,92,63
2,37,82,46
2,37,75,47
2,43,71,7
2,44,83,4
2,43,79,3
2,44,87,26
2,44,92,71
2,37,83,42
2,37,87,59
2,30,87,51
2,30,90,63
2,37,90,0
2,41,96,4
2,42,79,16
2,42,85,64
2,35,73,16
2,36,87,12
2,37,82,29
2,32,90,26
2,34,75,7
2,37,90,8
2,35,78,14
2,35,87,67
2,34,75,21
2,38,97,0
2,39,87,0
2,39,83,65
2,33,75,52
2,32,75,19
2,32,83,48
2,36,87,11
2,37,80,0
2,37,92,59
2,44,80,192
2,44,85,60
2,49,83,10
2,49,92,72
2,42,73,20
2,44,82,20
2,32,79,54
2,37,80,50
2,37,92,59
2,44,80,192
2,44,85,60
2,49,83,10
2,49,92,72
2,42,53,20
2,44,82,10
2,32,79,54
2,37,80,16
2,37,92,59
2,44,80,192
2,44,85,60
2,49,83,10
2,49,92,72
2,42,67,20
2,44,82,20
2,32,79,54
2,37,80,50
2,37,92,59
2,44,80,0
2,44,85,60
2,49,83,10
2,49,92,72
2,42,65,20
2,44,82,12
2,32,79,54
2,39,75,50
2,39,92,69
2,44,79,31
2,44,90,57
2,39,85,44
2,39,92,63
2,32,78,39
2,44,87,22
2,37,87,43
2,37,92,63
2,44,82,25
2,44,87,53
2,44,62,10
2,37,82,30
2,37,90,40
2,44,82,18
2,49,78,16
2,42,85,46
2,42,87,62
2,49,92,37
2,37,92,31
2,42,80,11
2,43,90,46
2,44,87,17
2,44,92,70
2,37,87,46
2,37,92,62
2,44,79,33
2,44,87,73
2,49,80,51
2,43,94,38
2,44,75,35
2,49,78,30
2,48,87,37
2,43,87,29
2,39,78,29
2,36,90,48
2,29,82,57
2,36,92,27
2,41,82,19
2,41,96,52
2,33,87,47
2,34,87,56
2,41,92,14
2,43,92,46
2,46,79,53
2,45,90,27
2,46,83,27
2,38,97,63
2,39,82,34
2,39,87,54
2,34,78,19
2,34,87,61
2,44,79,33
2,44,83,51
2,39,75,29
2,44,92,28
2,37,79,45
2,37,79,57
2,44,71,1
2,44,87,64
2,37,75,41
2,37,75,44
2,44,83,33
2,38,87,49
2,39,68,28
2,41,97,41
2,42,75,39
2,43,99,38
2,44,73,31
2,44,92,60
2,39,80,24
2,38,94,27
2,37,79,22
2,43,92,3
2,44,71,16
2,48,90,25
2,49,78,26
2,37,87,49
2,44,78,14
2,37,94,32
2,42,92,0
2,42,83,54
2,49,82,13
2,49,83,66
2,42,80,16
2,42,94,48
2,49,82,12
2,42,90,47
2,41,79,13
2,41,96,77
2,40,73,0
2,40,90,38
2,39,104,23
2,43,92,5
2,44,83,1
2,45,87,51
2,46,78,51
2,44,92,22
2,41,79,37
2,34,83,34
2,39,83,20
2,43,92,17
2,44,83,41
2,38,94,46
2,37,83,37
2,32,94,69
2,34,83,5
2,37,92,21
2,40,87,16
2,40,92,87
2,37,83,30
2,38,87,55
2,39,92,12
2,43,92,26
2,44,75,29
2,46,80,49
2,46,73,16
2,39,67,18
2,39,92,42
2,38,73,26
2,38,99,76
2,37,83,43
2,41,94,11
2,42,75,16
2,43,92,26
2,44,82,39
2,44,90,60
2,37,79,32
2,37,97,56
2,30,79,45
2,33,79,29
2,34,75,13
2,41,87,37
2,42,83,192
2,42,83,69
2,35,83,54
2,36,83,50
2,37,92,46
2,32,97,14
2,34,83,16
2,35,94,51
2,34,106,4
2,39,81,766
2,42,76,22
2,32,71,10
2,34,66,192
2,37,66,181
2,36,66,0
2,34,71,384
2,32,81,1
2,39,71,4
2,42,71,32
2,32,76,34
2,34,76,11
2,49,80,63
2,48,84,31
2,46,74,6
2,44,78,90
2,41,95,25
2,39,82,63
2,37,88,3
3,61,61,0
3,58,44,0
3,56,46,15
3,62,70,10
3,65,74,44
3,67,82,68
3,58,53,0
3,68,86,1
3,56,56,3
3,70,77,8
3,55,60,7
3,72,82,26
3,56,76,11
3,73,72,70
3,58,56,0
3,70,84,8
3,61,82,12
3,54,46,6
3,62,82,11
3,56,46,4
3,63,72,10
3,74,86,0
3,79,87,4
3,81,89,6
3,79,79,250
3,84,94,14
3,82,84,7
3,73,89,20
3,68,77,2
3,44,33,1
3,51,39,0
3,56,39,0
3,49,39,9
3,53,39,1
3,45,32,6
3,50,49,88
3,54,39,1
3,51,39,0
3,53,45,32
3,56,42,3
3,60,57,19
3,52,49,6
3,59,52,27
3,51,49,27
3,58,50,4
3,63,54,236
3,64,64,181
3,82,76,56
3,80,78,168
3,82,76,74
3,83,81,42
3,70,85,99
3,85,85,1
3,87,84,766
3,69,84,3
3,89,83,718
3,68,83,1
3,65,89,0
3,68,89,0
3,73,32,16
3,65,68,0
3,80,89,1
3,77,89,0
3,89,74,12
3,92,71,3
3,75,79,10
3,80,79,10
3,77,79,0
3,80,79,12
3,77,79,3
3,75,79,1
3,75,79,29
3,81,79,0
3,78,79,2
3,75,79,15
3,77,79,4
3,80,79,2
3,75,79,31
3,79,79,0
3,84,79,0
3,74,79,22
3,81,79,1
3,77,79,2
3,82,79,273
3,73,79,41
3,78,79,2
3,75,79,2
3,80,79,3
3,85,79,2
3,80,79,8
3,77,79,3
3,75,79,0
3,44,33,1
3,51,39,0
3,56,39,0
3,49,39,8
3,53,39,1
3,45,32,6
3,54,39,26
3,51,39,0
3,53,45,32
3,56,42,3
3,60,57,19
3,52,49,6
3,59,52,27
3,51,49,27
3,58,50,4
3,63,54,236
3,64,64,181
3,82,76,56
3,80,78,168
3,82,76,74
3,83,81,42
3,70,85,99
3,85,85,1
3,87,84,766
3,69,84,3
3,89,83,718
3,68,83,1
3,67,46,6
3,70,55,7
3,53,47,10
3,59,44,0
3,62,30,2
4,68,58,4877
4,68,64,0
4,70,62,3
4,70,62,62
4,73,75,821
4,70,71,100
4,68,47,71
4,65,58,13
4,68,60,1025
4,68,62,26
4,70,66,39
4,70,66,53
4,68,77,806
4,65,54,233
4,63,50,57
4,65,66,14
4,65,50,49
4,65,50,42
4,66,71,1061
4,66,62,57
4,66,58,71
4,66,66,46
4,65,58,14
4,65,62,43
4,65,66,55
4,60,58,36
4,61,54,34
4,61,37,60
4,58,50,759
4,58,58,63
4,58,35,59
4,56,58,724
4,56,50,58
4,56,35,57
4,56,50,75
4,68,62,595
4,68,62,29
4,70,71,12
4,70,66,30
4,73,71,688
4,70,62,123
4,68,50,67
4,65,66,5
4,68,28,932
4,69,66,38
4,69,35,33
4,69,62,33
4,69,66,26
4,69,50,33
4,69,35,41
4,69,47,32
4,66,87,186
4,66,66,69
4,67,58,69
4,68,50,8
4,69,76,20
4,64,50,32
4,65,54,2
4,65,62,719
4,65,62,49
4,65,40,44
4,65,50,42
4,65,62,33
4,65,47,40
4,65,54,39
4,65,66,186
4,63,76,31
4,62,62,11
4,61,62,73
4,62,66,72
4,62,62,23
4,62,32,605
4,62,54,19
4,63,62,43
4,63,43,64
4,63,47,859
4,63,19,48
4,63,30,34
4,61,62,123
4,61,62,477
4,61,58,0
4,63,70,0
4,63,62,66
4,63,64,20
4,63,76,73
4,63,57,37
4,63,81,23
4,63,57,73
4,63,64,40
4,63,91,16
4,65,50,54
4,66,68,6
4,68,76,20
4,68,49,14
4,68,62,17
4,68,86,58
4,70,47,11
4,65,76,14
4,68,81,18
4,68,85,268
4,66,73,130
4,65,64,51
4,68,97,33
4,65,76,265
4,63,68,2
4,66,86,186
4,66,57,23
4,66,86,30
4,66,91,71
4,65,60,28
4,66,91,14
4,68,91,42
4,68,81,65
4,68,81,21
4,68,97,33
4,68,72,70
4,68,97,14
4,68,102,18
4,77,99,446
4,73,99,74
4,77,84,100
4,73,84,174
4,73,84,39
4,73,80,71
4,73,74,36
4,72,84,10
4,72,80,38
4,72,83,27
4,72,80,41
4,68,61,11
4,73,95,406
4,75,89,43
4,72,84,130
4,68,72,64
4,68,65,42
4,72,82,64
4,72,84,64
4,68,80,72
4,65,72,96
4,68,89,21
4,65,78,127
4,68,71,1
4,68,89,39
4,68,91,587
4,68,80,19
4,70,91,52
4,70,97,46
4,70,86,22
4,72,78,229
4,73,82,16
4,75,96,18
4,75,91,26
4,75,101,39
4,75,107,52
4,73,107,25
4,72,104,54
4,70,107,42
4,68,104,217
4,61,102,24
4,63,97,37
4,65,100,58
4,68,107,46
4,56,74,335
4,56,72,20
4,65,72,0
4,65,75,53
4,61,50,755
4,61,60,48
4,61,68,59
4,61,55,33
4,63,52,17858
4,63,54,20
4,63,66,73
4,63,47,37
4,63,71,23
4,63,47,73
4,63,54,40
4,63,81,16
4,65,40,54
4,66,58,6
4,68,66,20
4,68,39,14
4,68,52,17
4,68,76,58
4,70,37,11
4,65,66,14
4,68,71,18
4,68,87,268
4,66,40,130
4,65,54,51
4,68,87,33
4,65,66,265
4,63,58,2
4,66,76,186
4,66,47,23
4,66,76,30
4,66,81,76
4,65,17,27
4,66,81,16
4,68,81,36
4,68,71,65
4,68,71,21
4,68,87,33
4,68,62,70
4,68,87,14
4,68,92,18
4,77,81,446
4,73,81,74
4,77,66,98
4,73,66,168
4,73,66,17
4,73,62,77
4,73,56,32
4,72,66,36
4,72,62,12
4,72,65,53
4,72,62,14
4,68,43,10
4,73,62,406
4,75,71,41
4,72,66,160
4,68,54,64
4,68,47,19
4,72,64,59
4,72,66,64
4,68,62,69
4,65,54,105
4,68,71,42
4,65,43,100
4,68,62,28
4,68,71,15
4,68,81,612
4,68,76,29
4,70,81,52
4,70,87,46
4,70,76,22
4,72,58,229
4,73,62,16
4,75,76,18
4,75,71,26
4,75,81,39
4,75,87,52
4,73,87,25
4,72,66,54
4,70,71,42
4,68,81,217
4,61,87,24
4,63,87,37
4,65,75,58
4,68,87,46
4,57,64,203
4,58,62,24
4,65,58,0
4,61,40,259
4,60,62,282
4,61,43,143
4,61,54,51
4,61,40,46
4,57,58,410
4,58,58,37
4,65,66,124
4,65,62,37
4,65,62,268
4,56,35,37
4,61,47,5
4,61,40,58
5,60,106,0
5,63,116,0
5,61,92,76
5,66,92,0
5,65,68,52
5,60,81,0
5,59,81,19
5,64,81,0
5,63,115,0
5,58,110,0
5,61,92,74
5,66,92,0
5,60,78,52
5,65,78,0
5,59,85,18
5,64,85,0
5,58,99,52
5,63,99,0
5,80,112,474
5,79,98,54
5,79,110,99
5,79,110,85
5,77,103,136
5,58,67,94
5,61,77,1
5,63,77,1
5,66,78,0
5,66,78,351
5,63,77,0
5,61,77,0
5,58,67,0
5,58,77,262
5,63,85,0
5,61,77,0
5,66,87,0
5,58,67,312
5,61,77,1
5,65,77,1
5,68,78,0
5,68,78,351
5,65,77,0
5,61,77,0
5,58,67,0
5,65,79,297
5,61,79,0
5,58,79,0
5,68,84,0
5,58,67,1136
5,61,77,1
5,65,77,1
5,68,78,0
5,68,78,351
5,65,77,0
5,61,77,0
5,58,67,0
5,65,79,297
5,61,79,0
5,58,79,0
5,68,84,0
5,58,67,5246
5,61,77,1
5,65,77,1
5,68,78,0
5,68,78,351
5,65,77,0
5,61,77,0
5,58,67,0
5,65,79,297
5,61,79,0
5,58,79,0
5,68,84,0
5,61,55,0
5,63,61,0
5,58,55,0
5,66,58,0
5,66,58,155
5,58,55,0
5,63,61,0
5,61,55,0
5,66,58,155
5,58,55,0
5,63,61,0
5,61,55,0
5,61,71,679
5,63,71,0
5,66,75,0
5,58,65,0
5,61,55,20
5,63,61,0
5,58,55,0
5,66,58,0
5,66,58,3
5,58,55,0
5,63,61,0
5,61,55,0
5,68,76,155
5,60,73,0
5,65,79,0
5,63,73,0
5,68,76,155
5,60,73,0
5,65,79,0
5,63,73,0
5,68,76,155
5,59,73,0
5,64,79,0
5,62,73,0
5,61,84,4
5,63,83,0
5,58,83,0
5,68,90,0
5,58,80,167
5,63,80,0
5,61,80,0
5,68,80,0
5,68,73,160
5,63,73,0
5,61,73,0
5,58,73,0
5,60,78,4
5,56,69,0
5,63,69,0
5,68,71,0
5,60,88,147
5,56,73,0
5,63,89,0
5,68,91,0
5,70,113,76
5,66,113,0
5,73,113,0
5,70,87,133
5,66,110,0
5,70,110,0
5,73,114,0
5,66,117,76
5,69,117,0
5,75,117,0
5,73,100,138
5,66,123,52
5,75,123,0
5,69,123,0
5,77,127,76
5,68,127,0
5,73,127,0
5,76,98,0
5,75,95,3
5,74,93,18
5,73,81,10
5,61,55,0
5,63,61,0
5,58,55,0
5,66,58,0
5,66,58,155
5,58,55,0
5,63,61,0
5,61,55,0
5,66,58,155
5,58,55,0
5,63,61,0
5,61,55,0
5,61,71,679
5,63,71,0
5,66,75,0
5,58,65,0
5,61,55,20
5,63,61,0
5,58,55,0
5,66,58,0
5,66,58,3
5,58,55,0
5,63,61,0
5,61,55,0
5,68,76,155
5,60,73,0
5,65,79,0
5,63,73,0
5,68,76,146
5,60,73,0
5,65,79,0
5,63,73,0
5,68,76,146
5,59,73,0
5,64,79,0
5,62,73,0
5,73,84,4
5,63,83,0
5,58,83,0
5,68,90,0
5,58,88,151
5,63,88,0
5,73,88,0
5,68,88,0
5,68,86,146
5,63,86,0
5,73,86,0
5,58,86,0
5,75,90,0
5,56,90,0
5,63,90,0
5,68,90,0
5,75,99,138
5,56,99,0
5,63,99,0
5,68,99,0
5,68,122,81
5,77,122,0
5,73,122,0
5,73,122,324
5,68,122,1
5,77,116,0
5,68,122,343
5,77,122,0
5,73,117,0
5,76,122,327
5,72,117,0
5,68,117,0
5,75,101,327
5,65,101,0
5,68,122,0
5,68,122,350
5,65,111,0
5,73,117,0
5,75,111,336
5,68,122,0
5,65,117,0
5,65,117,339
5,73,117,0
5,68,127,0
5,68,122,177
5,66,111,0
