track,note,velocity,time
1,70,115,2810
1,70,0,85
1,70,115,58
1,70,0,77
1,70,112,66
1,70,0,1119
1,68,120,8
1,68,0,116
1,67,117,20
1,67,0,103
1,66,115,34
1,66,0,96
1,67,117,20
1,67,0,1203
1,70,124,45
1,70,0,97
1,70,124,59
1,70,0,70
1,70,120,47
1,70,0,331
1,70,116,58
1,70,0,90
1,70,116,46
1,70,0,77
1,70,116,53
1,70,0,71
1,70,122,59
1,70,0,96
1,68,110,21
1,68,0,90
1,68,109,40
1,68,0,84
1,68,112,46
1,68,0,102
1,67,111,27
1,67,0,109
1,66,116,33
1,66,0,91
1,67,119,26
1,67,0,1157
1,67,125,77
1,67,0,101
1,67,125,71
1,67,0,650
1,67,118,52
1,67,0,86
1,66,116,8
1,66,0,614
1,66,118,57
1,66,0,160
1,65,108,27
1,65,0,160
1,65,118,44
1,65,0,123
1,65,111,64
1,65,0,141
1,65,108,58
1,65,0,59
1,65,101,26
1,65,0,72
1,65,101,27
1,65,0,71
1,64,119,27
1,64,0,103
1,63,118,77
1,63,0,242
1,62,114,33
1,62,0,172
1,60,118,40
1,60,0,84
1,59,111,27
1,59,0,129
1,58,120,38
1,58,0,830
1,70,114,120
1,70,0,104
1,70,101,58
1,70,0,97
1,70,95,52
1,70,0,1145
1,70,127,102
1,70,0,72
1,70,127,71
1,70,0,74
1,70,126,77
1,70,0,1
1,68,116,1
1,68,0,108
1,67,116,21
1,67,0,96
1,66,116,20
1,66,0,90
1,67,116,8
1,67,0,8
1,70,124,14
1,70,0,90
1,70,122,51
1,70,0,91
1,70,118,45
1,70,0,122
1,70,103,33
1,70,0,84
1,70,118,39
1,70,0,90
1,70,101,32
1,70,0,104
1,70,102,32
1,70,0,103
1,70,105,33
1,70,0,84
1,71,108,39
1,71,0,97
1,72,105,14
1,72,0,96
1,70,110,20
1,70,0,78
1,68,115,52
1,68,0,115
1,67,115,20
1,67,0,103
1,66,115,27
1,66,0,116
1,67,117,8
1,67,0,1219
1,66,120,7
1,66,0,84
1,67,115,8
1,67,0,71
1,67,110,27
1,67,0,79
1,67,109,32
1,67,0,351
1,67,121,20
1,67,0,78
1,67,109,27
1,67,0,77
1,67,109,27
1,67,0,58
1,67,105,27
1,67,0,72
1,66,112,26
1,66,0,514
1,66,116,64
1,66,0,191
1,65,117,1
1,65,0,160
1,65,117,52
1,65,0,109
1,65,111,71
1,65,0,135
1,65,107,57
1,65,0,148
1,65,107,32
1,65,0,78
1,64,118,26
1,64,0,129
1,63,115,64
1,63,0,128
1,62,113,65
1,62,0,248
1,60,125,32
1,60,0,97
1,59,115,27
1,59,0,116
1,58,120,39
1,58,0,832
1,70,108,134
1,70,0,91
1,70,96,64
1,70,0,72
1,70,92,71
1,67,101,1033
1,70,0,1
1,68,103,39
1,67,0,1
1,69,116,28
1,68,0,8
1,70,104,26
1,69,0,15
1,70,0,128
1,70,114,33
1,70,0,192
1,73,120,61
1,73,0,1101
1,70,122,27
1,70,0,115
1,68,120,27
1,68,0,103
1,66,120,7
1,66,0,104
1,70,126,14
1,70,0,248
1,70,124,52
1,70,0,128
1,70,127,58
1,70,0,2
1,70,122,32
1,70,0,60
1,70,115,39
1,70,0,71
1,73,120,33
1,73,0,104
1,75,120,32
1,75,0,110
1,73,122,32
1,73,0,85
1,75,124,32
1,75,0,129
1,73,122,39
1,73,0,92
1,75,120,19
1,75,0,116
1,73,115,71
1,73,0,115
1,70,126,64
1,70,0,154
1,68,122,27
1,68,0,134
1,66,118,20
1,66,0,103
1,70,124,33
1,70,0,166
1,70,114,39
1,70,0,65
1,70,116,39
1,70,0,955
1,69,113,8
1,69,0,27
1,68,112,1
1,67,105,40
1,68,0,0
1,67,0,85
1,67,122,20
1,67,0,79
1,67,114,26
1,67,0,143
1,67,119,52
1,67,0,125
1,67,121,70
1,67,0,135
1,67,118,51
1,67,0,73
1,66,120,20
1,66,0,519
1,66,122,59
1,66,0,122
1,66,120,64
1,66,0,90
1,65,113,14
1,65,0,135
1,65,121,45
1,65,0,129
1,65,118,70
1,65,0,147
1,65,119,40
1,65,0,128
1,65,124,71
1,65,0,90
1,64,113,20
1,64,0,122
1,63,122,58
1,63,0,103
1,74,121,90
1,74,0,71
1,73,122,27
1,73,0,77
1,72,116,33
1,72,0,330
1,70,122,26
1,70,0,96
1,70,124,78
1,70,0,78
1,70,118,45
1,70,0,524
1,75,120,64
1,75,0,135
1,75,118,58
1,75,0,123
1,75,120,64
1,75,0,1150
1,79,103,260
1,80,108,33
1,79,0,8
1,81,110,19
1,80,0,9
1,82,111,39
1,81,0,8
1,82,0,1135
1,80,122,14
1,82,108,34
1,80,0,7
1,80,108,33
1,82,0,21
1,80,0,39
1,79,113,21
1,79,0,86
1,78,106,67
1,78,0,117
1,79,120,1
1,79,0,1145
1,82,126,2
1,82,0,33
1,82,122,65
1,82,0,96
1,82,122,46
1,82,0,116
1,82,118,44
1,82,0,79
1,82,116,20
1,82,0,109
1,82,127,77
1,82,0,97
1,82,127,102
1,82,0,154
1,80,124,39
1,80,0,78
1,82,118,20
1,82,0,59
1,80,122,20
1,80,0,72
1,82,120,27
1,82,0,77
1,80,120,20
1,80,0,66
1,78,116,26
1,78,0,78
1,78,112,20
1,78,0,72
1,79,117,14
1,79,0,78
1,79,114,26
1,79,0,69
1,79,113,20
1,79,0,63
1,78,116,39
1,79,115,14
1,78,0,27
1,79,0,908
1,78,124,20
1,78,0,142
1,79,125,39
1,72,120,567
1,79,0,0
1,72,0,91
1,75,115,14
1,75,0,72
1,79,114,14
1,79,0,71
1,78,122,33
1,78,0,439
1,78,124,64
1,78,0,116
1,78,120,58
1,77,118,110
1,78,0,0
1,77,0,113
1,77,127,70
1,77,0,110
1,77,124,77
1,77,0,262
1,77,111,32
1,77,0,59
1,77,111,32
1,77,0,67
1,76,127,40
1,76,0,117
1,75,126,71
1,75,0,103
1,74,122,77
1,74,0,243
1,72,121,53
1,72,0,74
1,71,119,33
1,71,0,116
1,70,124,58
1,70,0,782
1,70,109,64
1,70,0,21
1,82,116,8
1,82,0,112
1,70,116,26
1,70,0,21
1,82,120,1
1,82,0,92
1,70,118,26
1,70,0,33
1,82,118,1
1,82,0,1246
1,82,124,84
1,82,0,90
1,82,122,96
1,82,0,1214
1,80,122,13
1,80,0,103
1,82,109,8
1,80,110,39
1,82,0,8
1,80,0,40
1,79,108,1
1,79,0,83
1,78,114,21
1,78,0,59
1,79,121,33
1,79,0,689
1,79,109,45
1,79,0,72
1,82,111,26
1,82,0,72
1,87,122,45
1,87,0,66
1,82,115,96
1,82,0,77
1,87,118,39
1,87,0,97
1,82,118,96
1,82,0,59
1,87,118,33
1,87,0,78
1,82,116,102
1,82,0,84
1,83,116,21
1,83,0,71
1,84,111,13
1,84,0,85
1,82,112,13
1,82,0,79
1,80,111,13
1,80,0,91
1,79,109,13
1,79,0,78
1,78,118,21
1,78,0,84
1,79,122,7
1,79,0,1194
1,79,124,71
1,79,0,80
1,78,120,8
1,78,0,71
1,79,120,21
1,79,0,92
1,79,110,14
1,79,0,131
1,79,119,52
1,79,0,86
1,78,112,1
1,78,0,78
1,79,118,19
1,79,0,72
1,79,113,26
1,79,0,74
1,79,111,27
1,79,0,55
1,79,113,38
1,79,0,67
1,78,120,26
1,78,0,103
1,78,124,83
1,78,0,481
1,79,113,0
1,79,0,47
1,78,112,7
1,78,0,52
1,77,114,8
1,77,0,129
1,77,122,45
1,77,0,122
1,77,122,77
1,77,0,135
1,77,120,64
1,77,0,128
1,77,124,58
1,77,0,77
1,76,121,33
1,76,0,109
1,75,124,71
1,75,0,102
1,74,124,84
1,74,0,254
1,72,127,45
1,72,0,78
1,71,117,26
1,71,0,110
1,70,124,63
1,70,0,951
1,82,122,20
1,82,0,104
1,82,120,58
1,82,0,84
1,82,120,52
1,82,0,1017
1,82,126,83
1,82,0,110
1,82,124,58
1,82,0,109
1,83,113,14
1,83,0,46
1,84,113,0
1,85,120,41
1,84,0,14
1,85,0,1117
1,85,97,19
1,82,111,28
1,85,0,8
1,82,0,134
1,80,120,8
1,80,0,115
1,78,122,8
1,78,0,110
1,82,124,26
1,82,0,305
1,82,115,39
1,82,0,91
1,82,122,51
1,82,0,727
1,78,111,14
1,80,114,20
1,78,0,14
1,82,111,21
1,80,0,14
1,82,0,84
1,82,118,46
1,82,0,70
1,85,124,40
1,85,0,110
1,87,122,32
1,87,0,103
1,85,127,33
1,85,0,85
1,87,122,32
1,87,0,129
1,85,126,59
1,85,0,78
1,87,116,26
1,87,0,97
1,85,118,83
1,85,0,110
1,82,118,83
1,82,0,142
1,80,122,39
1,80,0,72
1,79,109,26
1,79,0,46
1,78,118,15
1,78,0,96
1,80,115,27
1,80,0,40
1,82,89,13
1,82,0,1233
1,82,122,70
1,82,0,91
1,81,113,8
1,81,0,71
1,80,115,20
1,80,0,79
1,79,103,20
1,79,0,84
1,79,119,14
1,79,0,85
1,79,105,13
1,79,0,78
1,79,121,20
1,79,0,91
1,79,127,96
1,79,0,87
1,78,118,14
1,78,0,97
1,78,126,102
1,78,0,400
1,78,120,58
1,78,0,104
1,79,111,14
1,78,99,39
1,79,0,1
1,77,103,40
1,78,0,1
1,77,0,78
1,77,122,21
1,77,0,83
1,77,111,15
1,77,0,65
1,77,122,14
1,77,0,78
1,77,113,26
1,77,0,68
1,77,124,26
1,77,0,68
1,77,111,27
1,77,0,73
1,77,114,19
1,77,0,65
1,77,122,38
1,77,0,82
1,76,119,20
1,76,0,97
1,75,120,70
1,75,0,104
1,86,121,89
1,86,0,73
1,85,124,26
1,85,0,78
1,84,121,33
1,84,0,142
1,82,126,58
1,82,0,84
1,82,124,65
1,82,0,85
1,82,124,44
1,82,0,772
1,87,122,102
1,87,0,84
1,87,122,58
1,87,0,61
1,87,122,58
1,87,0,83
1,69,90,329
1,70,105,46
1,69,0,21
1,69,115,1287
1,70,0,8
1,68,110,26
1,69,0,8
1,68,0,147
1,67,108,7
1,66,110,135
1,67,0,8
1,67,103,108
1,66,0,28
1,68,96,1
1,67,0,8
1,69,111,2
1,68,0,8
1,70,106,20
1,69,0,21
1,70,0,84
1,70,111,32
1,70,0,97
1,70,115,26
1,70,0,103
1,70,97,33
1,70,0,91
1,70,99,32
1,70,0,90
1,70,103,33
1,70,0,103
1,70,100,33
1,70,0,89
1,70,106,40
1,70,0,84
1,70,106,39
1,70,0,97
1,68,114,13
1,68,0,97
1,68,115,39
1,68,0,91
1,68,109,32
1,68,0,110
1,67,106,26
1,67,0,112
1,66,111,20
1,66,0,109
1,67,108,8
1,67,0,1315
1,66,115,20
1,66,0,90
1,67,108,7
1,67,0,292
1,67,120,14
1,67,0,78
1,67,109,13
1,67,0,110
1,67,122,76
1,67,0,160
1,66,118,40
1,66,0,518
1,66,122,64
1,66,0,116
1,66,118,58
1,66,0,90
1,65,108,14
1,65,0,191
1,65,121,9
1,65,0,78
1,65,107,13
1,65,0,71
1,65,118,21
1,65,0,78
1,65,100,19
1,65,0,256
1,65,119,26
1,65,0,84
1,64,109,20
1,64,0,116
1,63,124,64
1,63,0,267
1,62,118,14
1,62,0,159
1,60,109,46
1,60,0,78
1,59,108,32
1,59,0,116
1,58,122,64
1,58,0,919
1,70,116,65
1,70,0,62
1,70,111,77
1,70,0,85
1,70,111,58
1,70,0,1169
1,70,98,46
1,70,0,71
1,75,114,33
1,75,0,79
1,70,103,26
1,70,0,91
1,70,106,96
1,70,0,716
1,70,92,70
1,70,0,78
1,75,105,21
1,75,0,71
1,68,109,14
1,68,0,66
1,67,96,39
1,67,0,72
1,66,106,13
1,66,0,78
1,66,99,21
1,66,0,71
1,67,113,7
1,67,0,1334
1,70,116,20
1,70,0,65
1,75,114,21
1,75,0,71
1,70,116,26
1,70,0,66
1,70,110,39
1,70,0,116
1,70,122,71
1,70,0,104
1,70,118,89
1,70,0,122
1,70,116,77
1,70,0,79
1,71,106,20
1,71,0,71
1,72,111,27
1,72,0,78
1,70,115,27
1,70,0,103
1,68,124,77
1,68,0,110
1,67,119,70
1,67,0,90
1,66,109,14
1,66,0,91
1,67,122,8
1,67,0,1333
1,67,127,14
1,67,0,96
1,67,127,77
1,67,0,81
1,67,108,20
1,67,0,132
1,67,125,78
1,67,0,80
1,67,112,14
1,67,0,78
1,67,108,13
1,67,0,79
1,67,118,14
1,67,0,110
1,66,118,108
1,66,0,607
1,66,114,45
1,66,0,116
1,68,111,1
1,66,98,34
1,68,0,0
1,65,105,28
1,66,0,8
1,65,0,146
1,65,122,39
1,65,0,135
1,65,118,70
1,65,0,129
1,65,107,58
1,65,0,59
1,65,108,26
1,65,0,59
1,65,112,33
1,65,0,75
1,64,125,39
1,64,0,109
1,63,122,78
1,63,0,102
1,62,122,91
1,62,0,242
1,60,127,32
1,60,0,85
1,59,116,26
1,59,0,116
1,58,124,58
1,58,0,876
1,70,111,108
1,70,0,91
1,70,103,52
1,70,0,97
1,70,101,39
1,70,0,1171
1,70,124,70
1,70,0,97
1,70,122,52
1,70,0,59
1,73,124,45
1,73,0,64
1,70,112,14
1,70,0,41
1,73,105,0
1,70,103,40
1,73,0,14
1,70,0,52
1,68,122,14
1,68,0,122
1,66,116,7
1,66,0,115
1,70,120,15
1,70,0,2
1,70,115,1
1,70,0,122
1,70,120,51
1,70,0,841
1,70,122,44
1,70,0,59
1,70,101,26
1,70,0,66
1,73,122,46
1,73,0,96
1,75,116,20
1,75,0,102
1,73,124,58
1,73,0,84
1,75,118,20
1,75,0,129
1,73,124,64
1,73,0,91
1,75,116,20
1,75,0,90
1,73,116,77
1,73,0,103
1,70,118,77
1,70,0,134
1,68,124,58
1,68,0,104
1,66,114,1
1,66,0,90
1,70,124,21
1,70,0,254
1,70,112,33
1,70,0,52
1,70,126,128
1,70,0,834
1,67,120,46
1,67,0,85
1,67,125,84
1,67,0,265
1,67,120,39
1,67,0,99
1,67,125,89
1,67,0,130
1,67,125,64
1,67,0,118
1,66,120,71
1,66,0,154
1,66,108,33
1,66,0,135
1,66,122,158
1,66,0,110
1,66,120,71
1,66,0,91
1,65,111,19
1,65,0,129
1,65,124,52
1,65,0,121
1,65,114,71
1,65,0,128
1,65,119,64
1,65,0,110
1,65,124,83
1,65,0,84
1,64,113,21
1,64,0,102
1,63,120,58
1,63,0,109
1,74,115,90
1,74,0,72
1,73,118,26
1,73,0,84
1,72,112,33
1,72,0,160
1,70,124,46
1,70,0,90
1,70,120,52
1,70,0,84
1,70,124,96
1,70,0,609
1,75,120,103
1,75,0,109
1,75,120,52
1,75,0,98
1,75,122,58
1,75,0,1697
2,41,91,3072
2,41,0,256
2,41,93,32
2,41,0,44
2,47,98,52
2,47,0,238
2,41,90,50
2,41,0,41
2,34,94,55
2,34,0,246
2,40,93,42
2,40,0,46
2,41,91,50
2,41,0,217
2,34,88,71
2,34,0,43
2,39,98,53
2,39,0,216
2,46,89,72
2,46,0,52
2,51,91,44
2,51,0,257
2,46,87,31
2,46,0,43
2,39,92,53
2,39,0,270
2,45,94,18
2,45,0,41
2,46,95,55
2,46,0,144
2,34,98,48
2,34,0,144
2,41,98,48
2,41,0,248
2,47,88,40
2,47,0,41
2,47,99,55
2,47,0,248
2,35,86,40
2,35,0,46
2,34,100,50
2,34,0,240
2,41,90,48
2,41,0,51
2,41,91,45
2,41,0,224
2,34,93,64
2,34,0,48
2,51,93,48
2,51,0,273
2,45,95,15
2,45,0,46
2,46,94,50
2,46,0,262
2,38,89,26
2,38,0,43
2,39,93,53
2,39,0,203
2,46,94,85
2,46,0,51
2,46,92,45
2,46,0,278
2,32,95,10
2,32,0,40
2,33,92,56
2,33,0,230
2,39,89,58
2,39,0,51
2,39,100,45
2,39,0,246
2,27,87,42
2,27,0,54
2,44,94,42
2,44,0,254
2,51,87,34
2,51,0,49
2,51,95,47
2,51,0,252
2,44,86,36
2,44,0,52
2,43,93,44
2,43,0,270
2,43,91,18
2,43,0,51
2,50,96,45
2,50,0,248
2,43,88,40
2,43,0,46
