track,note,velocity,time
1,35,103,24
1,59,90,0
1,54,90,144
1,42,104,48
1,47,75,48
1,59,90,0
1,54,90,192
1,42,96,49
1,59,90,0
1,35,114,66
1,59,90,0
1,54,90,35
1,42,104,38
1,47,75,48
1,59,90,0
1,54,90,192
1,42,96,45
1,59,90,0
1,28,94,12
1,59,90,0
1,54,90,136
1,40,104,48
1,47,75,48
1,59,90,0
1,54,90,192
1,40,104,36
1,59,90,0
1,28,121,61
1,59,90,0
1,54,90,144
1,40,104,11
1,47,75,48
1,59,90,0
1,54,90,192
1,40,96,30
1,59,90,0
1,35,103,37
1,59,90,0
1,54,90,71
1,42,104,48
1,47,75,48
1,59,90,0
1,54,90,192
1,42,96,49
1,59,90,0
1,35,114,66
1,59,90,0
1,54,90,35
1,42,104,38
1,47,75,48
1,59,90,0
1,54,90,192
1,42,96,45
1,59,90,0
1,28,121,12
1,59,90,0
1,54,90,136
1,40,96,48
1,40,75,48
1,59,90,0
1,54,90,192
1,40,112,37
1,59,90,0
1,28,121,48
1,59,90,0
1,54,90,144
1,40,96,48
1,40,75,48
1,59,90,0
1,54,90,192
1,40,89,33
1,59,90,0
1,35,103,107
1,59,90,0
1,54,90,124
1,42,84,48
1,47,75,48
1,59,90,0
1,54,90,192
1,42,89,16
1,59,90,0
1,35,121,44
1,59,90,0
1,54,90,144
1,42,96,16
1,47,75,48
1,47,104,48
1,59,90,0
1,54,90,144
1,42,96,27
1,59,90,0
1,28,94,52
1,59,90,0
1,54,90,140
1,40,104,48
1,47,75,48
1,59,90,0
1,54,90,192
1,40,104,36
1,59,90,0
1,28,121,61
1,59,90,0
1,54,90,144
1,40,104,11
1,47,75,48
1,59,90,0
1,54,90,192
1,40,96,30
1,59,90,0
1,35,103,37
1,59,90,0
1,54,90,71
1,42,104,48
1,47,75,48
1,59,90,0
1,54,90,192
1,42,96,49
1,59,90,0
1,35,114,66
1,59,90,0
1,54,90,35
1,42,104,38
1,47,75,48
1,59,90,0
1,54,90,192
1,42,96,45
1,59,90,0
1,28,121,12
1,59,90,0
1,54,90,136
1,40,96,48
1,40,75,48
1,59,90,0
1,54,90,192
1,40,112,37
1,59,90,0
1,28,121,48
1,59,90,0
1,56,90,144
1,40,96,48
1,40,75,48
1,59,90,0
1,56,90,192
1,40,89,33
1,59,90,0
1,30,121,107
1,61,90,0
1,58,90,124
1,42,96,48
1,42,75,48
1,61,90,0
1,58,90,192
1,42,89,33
1,61,90,32
1,30,121,68
1,61,90,0
1,58,90,124
1,42,96,48
1,42,75,48
1,61,90,0
1,58,90,192
1,42,89,33
1,61,90,0
1,35,103,0
1,59,90,0
1,54,90,144
1,42,84,48
1,47,75,48
1,59,90,0
1,54,90,192
1,42,89,16
1,59,90,0
1,35,121,44
1,59,90,0
1,54,90,144
1,42,96,16
1,47,75,48
1,47,104,48
1,59,90,0
1,54,90,144
1,42,96,27
1,59,90,0
1,37,103,52
1,61,90,0
1,56,90,140
1,44,84,48
1,49,75,48
1,61,90,0
1,56,90,192
1,44,89,16
1,61,90,0
1,37,121,44
1,61,90,0
1,47,55,144
1,44,96,16
1,49,75,48
1,49,104,0
1,61,90,0
1,47,55,144
1,44,96,27
1,61,90,0
1,30,94,52
1,66,90,0
1,54,90,140
1,42,104,48
1,49,75,48
1,66,90,0
1,54,90,192
1,42,104,36
1,66,90,0
1,30,121,61
1,54,90,0
1,66,90,0
1,42,104,11
1,49,75,48
1,59,90,48
1,54,90,192
1,42,96,30
1,61,90,0
1,47,98,48311
1,71,85,0
1,66,85,144
1,54,79,48
1,59,70,48
1,71,85,0
1,66,85,192
1,54,84,16
1,71,85,0
1,47,116,44
1,71,85,0
1,66,85,144
1,54,91,16
1,59,70,48
1,59,99,48
1,71,85,0
1,66,85,144
1,54,91,27
1,71,85,0
1,40,89,52
1,71,85,0
1,66,85,140
1,52,99,48
1,59,70,48
1,71,85,0
1,66,85,192
1,52,99,36
1,71,85,0
1,40,116,61
1,71,85,0
1,66,85,144
1,52,99,11
1,59,70,48
1,71,85,0
1,66,85,192
1,52,91,30
1,71,85,0
1,47,98,37
1,71,85,0
1,66,85,71
1,54,99,48
1,59,70,48
1,71,85,0
1,66,85,192
1,54,91,49
1,71,85,0
1,47,109,66
1,71,85,0
1,66,85,35
1,54,99,38
1,59,70,48
1,71,85,0
1,66,85,192
1,54,91,45
1,71,85,0
1,40,116,12
1,71,85,0
1,66,85,136
1,52,91,48
1,52,70,48
1,71,85,0
1,66,85,192
1,52,107,37
1,71,85,0
1,28,121,0
1,59,90,0
1,56,90,144
1,40,96,48
1,40,75,48
1,59,90,0
1,56,90,192
1,40,89,33
1,59,90,0
1,30,121,107
1,61,90,0
1,58,90,124
1,42,96,48
1,42,75,48
1,61,90,0
1,58,90,192
1,42,89,33
1,61,90,32
1,30,121,68
1,61,90,0
1,58,90,124
1,42,96,48
1,42,75,48
1,61,90,0
1,58,90,192
1,42,89,33
1,61,90,0
1,35,103,0
1,59,90,0
1,54,90,144
1,42,84,48
1,47,75,48
1,59,90,0
1,54,90,192
1,42,89,16
1,59,90,0
1,35,121,44
1,59,90,0
1,54,90,144
1,42,96,16
1,47,75,48
1,47,104,48
1,59,90,0
1,54,90,144
1,42,96,27
1,59,90,0
1,37,103,52
1,61,90,0
1,56,90,140
1,44,84,48
1,49,75,48
1,61,90,0
1,56,90,192
1,44,89,16
1,61,90,0
1,37,121,44
1,61,90,0
1,47,55,144
1,44,96,16
1,49,75,48
1,49,104,0
1,61,90,0
1,47,55,144
1,44,96,27
1,61,90,0
1,30,94,52
1,66,90,0
1,54,90,140
1,42,104,48
1,49,75,48
1,66,90,0
1,54,90,192
1,42,104,36
1,66,90,0
2,35,114,0
2,28,114,9
2,28,114,25
2,35,114,2
2,35,114,34
2,28,114,30
2,28,114,15
2,30,114,6
2,32,114,21
2,35,114,14
2,28,114,24
2,35,114,7
2,28,114,21
2,28,114,7
2,30,114,0
2,30,114,16
2,30,114,12
2,35,114,3
2,35,114,17
2,37,114,0
2,37,114,5
2,37,114,23
2,30,114,7
2,30,114,14
2,30,114,6
2,32,114,15
2,35,114,13
2,28,114,18
2,28,114,38
2,30,114,672
2,32,114,21
2,35,114,15
2,35,114,22
2,35,114,9
2,28,114,14
2,28,114,16
2,30,114,2
2,32,114,8
2,35,114,2
2,28,114,18
2,28,114,38
2,30,114,672
2,32,114,21
2,35,114,15
2,35,114,22
2,35,114,9
2,28,114,14
2,28,114,50
2,30,114,48
2,32,114,192
2,30,114,6
2,28,114,21
2,28,114,8
2,23,114,2
2,28,114,8
2,23,114,8
2,30,114,9
2,30,114,7
2,28,114,5
2,27,114,1
2,30,114,0
2,27,114,6
2,32,114,48
2,20,114,14
2,32,114,9
2,30,114,8
2,32,114,20
2,30,114,16
2,28,114,0
2,28,114,26
2,27,114,7
2,28,114,16
2,28,114,29
2,27,114,6
2,25,114,15
2,30,114,58
2,30,114,15
2,30,114,28
2,30,121,17
2,30,121,288
2,30,121,5
2,30,121,15
2,30,121,39
2,30,121,28
2,30,121,144
2,30,121,62
2,30,121,0
2,30,121,38
2,30,121,21
2,30,121,105
2,30,121,22
2,32,121,48
2,32,121,62
2,32,121,24
2,31,121,4
2,30,121,48
2,30,121,59
2,30,121,46
2,28,121,113
2,28,121,40
2,28,121,15
2,28,121,26
2,28,121,19
2,27,121,81
2,27,121,18
2,27,121,50
2,27,121,34
2,30,121,21
2,27,121,5
2,32,121,28
2,32,121,88
2,27,121,336
2,30,121,16
2,27,121,15
2,32,121,19
2,32,121,48
2,27,121,4
2,27,121,52
2,25,121,10
2,25,121,56
2,32,121,41
2,25,121,8
2,25,121,42
2,25,121,27
2,28,121,10
2,25,121,18
2,30,121,10
2,30,121,52
2,30,121,40
2,23,121,9
2,23,121,40
2,23,121,432
2,28,121,17
2,28,121,112
2,28,121,27
2,33,121,9
2,33,121,60
2,28,121,3
2,30,121,9
2,33,121,10
2,33,121,70
2,32,121,24
2,32,121,65
2,32,121,56
2,27,121,8
2,31,121,48
2,31,121,66
2,30,121,480
2,30,121,46
2,30,121,432
2,30,121,45
2,30,121,32
2,30,121,0
2,35,114,384
2,28,114,18
2,28,114,38
2,30,114,672
2,32,114,21
2,35,114,15
2,35,114,22
2,35,114,9
2,28,114,14
2,28,114,16
2,30,114,2
2,32,114,8
2,35,114,2
2,28,114,18
2,28,114,38
2,30,114,672
2,32,114,21
2,35,114,15
2,35,114,22
2,35,114,9
2,28,114,14
2,28,114,768
2,30,114,0
2,30,114,31
2,30,114,12
2,35,114,3
2,35,114,768
2,37,114,0
2,37,114,5
2,37,114,35
2,30,114,7
2,30,121,26
2,32,121,3
2,37,114,13
2,30,114,18
2,30,114,38
2,32,114,672
2,34,114,21
2,37,114,15
2,37,114,22
2,37,114,9
2,30,114,14
2,30,114,50
2,32,114,48
2,34,114,192
2,32,114,13
2,30,114,28
2,30,114,22
2,25,114,2
2,30,114,8
2,25,114,8
2,32,114,48
2,32,114,102
2,30,114,5
2,29,114,768
2,45,114,0
2,29,114,6
2,34,114,48
2,22,114,278
2,34,114,9
2,32,114,8
2,34,114,20
2,32,114,48
2,30,114,0
2,30,114,26
2,29,114,41
2,30,114,53
2,30,114,29
2,29,114,54
2,27,114,768
2,32,121,92
2,32,121,75
2,27,121,7
2,27,121,19
2,32,121,48
2,25,121,9
2,25,121,40
2,24,121,384
2,34,121,6
2,34,121,62
2,34,121,24
2,33,121,4
2,32,121,48
2,32,121,59
2,32,121,46
2,30,121,113
2,30,121,40
2,30,121,15
2,30,121,26
2,30,121,19
2,29,121,81
2,29,121,18
2,29,121,50
2,29,121,34
2,32,121,21
2,29,121,5
2,34,121,28
2,34,121,88
2,29,121,336
2,32,121,16
2,29,121,15
2,34,121,19
2,34,121,48
2,29,121,4
2,29,121,52
2,27,121,10
2,27,121,56
2,34,121,41
2,27,121,8
2,27,121,42
2,27,121,27
2,30,121,10
2,27,121,18
2,32,121,10
2,32,121,52
2,32,121,40
2,25,121,9
2,25,121,40
2,25,121,432
2,30,121,17
2,30,121,112
2,30,121,27
2,35,121,9
2,35,121,60
2,30,121,3
2,32,121,9
2,35,121,10
2,35,121,70
2,33,121,24
2,33,121,66
2,32,121,480
2,32,121,46
2,32,121,432
2,25,121,45
2,25,121,86
2,37,121,288
2,39,121,8
2,37,121,48
2,25,121,133
2,29,121,320
2,30,121,9
2,30,121,48
2,25,121,11
2,30,121,251
2,32,121,23
2,25,121,11
2,25,121,60
2,37,121,384
2,39,121,46
2,37,121,25
2,25,121,17
2,29,121,2
2,30,121,6
2,30,121,34
2,25,121,6
2,30,121,192
2,32,121,29
2,25,121,12
2,25,121,86
2,37,121,384
2,39,121,8
2,37,121,48
2,25,121,133
2,29,121,320
2,30,121,9
2,30,121,48
2,25,121,11
2,30,121,251
2,32,121,23
2,25,121,11
2,25,121,60
2,37,121,384
2,39,121,46
2,37,121,25
2,25,121,17
2,29,121,2
2,30,121,6
2,30,121,34
2,25,121,6
2,30,121,192
2,32,121,29
2,37,121,12
2,25,121,0
3,76,91,772
3,75,84,88
3,71,91,93
3,66,82,0
3,76,89,464
3,75,86,95
3,71,89,76
3,66,91,72
3,66,95,29
3,71,95,103
3,71,95,24
3,71,95,28
3,76,91,94
3,75,86,90
3,71,95,87
3,66,95,0
3,76,91,485
3,75,89,90
3,71,95,90
3,66,95,0
3,66,86,31
3,71,89,105
3,71,91,27
3,71,91,36
3,73,121,221
3,73,82,59
3,73,84,41
3,73,69,32
3,73,113,50
3,75,101,2
3,76,101,4
3,80,101,8
3,78,101,279
3,77,113,89
3,77,53,69
3,77,74,40
3,77,79,41
3,77,95,42
3,77,89,30
3,77,89,34
3,80,101,0
3,78,101,253
3,76,95,6148
3,75,89,3
3,71,89,90
3,66,95,4
3,66,84,26
3,76,89,4
3,75,84,7
3,78,91,10
3,71,106,7
3,66,95,5
3,71,89,60
3,71,89,26
3,71,101,26
3,66,86,828
3,66,91,37
3,76,91,94
3,75,101,96
3,71,91,87
3,66,101,92
3,76,101,3
3,75,101,6
3,78,91,2
3,71,101,6
3,66,91,5
3,71,91,70
3,71,89,18
3,71,106,34
3,75,121,890
3,75,86,64
3,75,101,46
3,75,86,49
3,75,101,40
3,80,101,10
3,75,101,0
3,75,113,28
3,73,106,3
3,73,121,67
3,73,74,30
3,73,101,44
3,73,86,41
3,73,113,48
3,78,106,4
3,73,106,2
3,73,121,47
3,75,72,1
3,73,95,43
3,71,113,6
3,71,95,489
3,71,77,44
3,71,95,46
3,71,101,47
3,70,113,7
3,71,106,141
3,73,106,2
3,78,86,23
3,80,121,4
3,83,91,58
3,82,106,87
3,80,101,0
3,78,113,1
3,76,106,4
3,78,113,5
3,71,106,682
3,76,113,5
3,70,91,6
3,75,127,2215
3,80,121,8
3,75,121,8
3,73,127,6
3,80,121,4
3,73,113,88
3,73,121,40
3,70,113,2
3,73,113,103
3,71,95,0
3,73,121,0
3,75,113,4
3,71,113,120
3,75,113,366
3,75,127,275
3,75,127,59
3,80,127,3
3,75,121,65
3,73,127,0
3,78,127,370
3,76,121,249
3,75,127,9
3,73,121,4
3,71,121,5
3,71,86,32
3,71,106,47
3,71,106,57
3,71,121,49
3,73,121,9
3,75,121,7
3,76,113,6
3,73,113,0
3,73,91,62
3,73,101,69
3,73,106,43
3,73,113,53
3,74,101,6
3,76,113,6
3,73,121,9
3,75,106,31
3,76,113,111
3,73,121,6
3,71,121,7
3,70,101,1
3,71,101,2
3,76,86,4234
3,75,84,78
3,71,95,61
3,66,95,98
3,66,86,70
3,66,82,21
3,76,101,1
3,75,84,0
3,75,86,26
3,78,95,2
3,71,101,7
3,66,95,1
3,71,106,56
3,71,91,26
3,71,113,32
3,76,121,843
3,75,86,7
3,75,101,30
3,78,91,6
3,80,28,11
3,71,95,118
3,66,101,21
3,66,89,27
3,66,48,17
3,76,113,32
3,75,91,1
3,75,106,26
3,71,106,15
3,66,113,2
3,66,106,39
3,71,113,6
3,71,89,24
3,71,106,30
3,73,121,462
3,73,79,56
3,73,89,37
3,73,101,44
3,73,113,50
3,73,106,34
3,73,113,45
3,73,91,30
3,76,121,9
3,75,121,5
3,77,121,162
3,77,82,78
3,77,86,18
3,77,91,34
3,77,113,47
3,77,106,29
3,77,106,34
3,80,95,11
3,78,121,179
3,66,127,760
3,65,91,118
3,65,101,37
3,65,113,34
3,66,127,20
3,65,91,94
3,65,113,39
3,65,113,35
3,78,127,3
3,77,113,142
3,75,106,1
3,75,127,41
3,73,121,7
3,77,121,3578
3,77,113,48
3,77,113,36
3,77,113,44
3,75,101,4
3,73,113,125
3,77,121,2
3,75,121,6
3,75,127,196
3,75,106,61
3,75,89,37
3,75,106,43
3,75,106,44
3,80,113,2
3,75,95,7
3,75,121,56
3,72,106,156
3,77,121,61
3,73,127,542
3,70,86,2
3,73,101,166
3,73,106,44
3,73,106,39
3,72,113,7
3,73,113,152
3,75,121,44
3,80,121,25
3,77,121,292
3,66,106,1060
3,66,113,46
3,66,113,42
3,66,113,53
3,63,113,6
3,66,121,14
3,65,95,2
3,75,113,6237
3,75,113,44
3,73,106,2
3,75,101,5
3,73,106,49
3,75,106,9
3,73,106,101
3,72,121,32
3,75,113,320
3,75,113,43
3,75,113,38
3,77,113,20
3,77,121,36
3,77,121,36
3,77,113,34
3,77,113,33
3,75,95,9
3,73,121,2
3,77,127,426
3,70,101,399
3,77,28,320
3,77,113,563
3,75,121,9
3,68,121,6
4,54,69,822
4,56,91,24
4,47,91,21
4,54,73,0
4,59,57,0
4,59,64,26
4,54,64,0
4,47,40,0
4,47,67,67
4,59,60,0
4,54,73,0
4,59,6,70
4,47,55,0
4,59,69,36
4,54,69,0
4,47,107,0
4,47,79,117
4,48,47,0
4,59,79,0
4,54,79,0
4,47,27,46
4,47,99,36
4,47,79,24
4,54,79,28
4,56,64,8
4,47,52,0
4,59,62,18
4,47,107,0
4,59,64,20
4,54,73,0
4,47,67,0
