track,note,velocity,time
1,66,119,0
1,62,119,0
1,57,119,0
1,57,0,646
1,62,0,6
1,66,0,2
1,57,119,18
1,66,119,0
1,62,119,0
1,62,119,96
1,67,119,0
1,59,119,0
1,57,0,2
1,66,0,0
1,62,0,0
1,67,0,614
1,59,0,0
1,62,0,2
1,67,119,54
1,59,119,0
1,62,119,0
1,67,0,72
1,59,0,0
1,62,0,0
1,66,119,24
1,62,119,0
1,57,119,0
1,57,0,646
1,62,0,6
1,66,0,2
1,57,119,18
1,66,119,0
1,62,119,0
1,62,119,96
1,67,119,0
1,59,119,0
1,57,0,2
1,66,0,0
1,62,0,0
1,67,0,614
1,59,0,0
1,62,0,2
1,67,119,54
1,59,119,0
1,62,119,0
1,67,0,72
1,59,0,0
1,62,0,0
1,66,119,24
1,62,119,0
1,57,119,0
1,57,0,646
1,62,0,6
1,66,0,2
1,57,119,18
1,66,119,0
1,62,119,0
1,62,119,96
1,67,119,0
1,59,119,0
1,57,0,2
1,66,0,0
1,62,0,0
1,67,0,614
1,59,0,0
1,62,0,2
1,67,119,54
1,59,119,0
1,62,119,0
1,67,0,72
1,59,0,0
1,62,0,0
1,66,119,24
1,62,119,0
1,57,119,0
1,57,0,646
1,62,0,6
1,66,0,2
1,57,119,18
1,66,119,0
1,62,119,0
1,62,119,96
1,67,119,0
1,59,119,0
1,57,0,2
1,66,0,0
1,62,0,0
1,67,0,614
1,59,0,0
1,62,0,2
1,67,119,54
1,59,119,0
1,62,119,0
1,67,0,72
1,59,0,0
1,62,0,0
1,66,119,24
1,62,119,0
1,69,119,0
1,66,0,698
1,69,0,0
1,62,0,14
1,70,119,56
1,65,119,0
1,62,119,0
1,62,0,456
1,65,0,8
1,70,0,4
1,60,119,12
1,67,119,0
1,64,119,0
1,64,0,254
1,60,0,4
1,67,0,0
1,66,119,30
1,62,119,0
1,69,119,0
1,69,0,734
1,62,0,10
1,66,0,2
1,66,119,22
1,62,119,0
1,59,119,0
1,59,0,710
1,62,0,20
1,66,0,2
1,66,119,36
1,62,119,0
1,69,119,0
1,69,0,722
1,66,0,2
1,62,0,8
1,67,119,36
1,64,119,0
1,71,119,0
1,67,0,718
1,71,0,2
1,64,0,6
1,66,119,42
1,61,119,0
1,69,119,0
1,69,0,362
1,66,0,16
1,61,0,4
1,66,119,2
1,69,119,0
1,62,119,0
1,62,0,152
1,69,0,4
1,66,0,4
1,61,119,32
1,66,119,0
1,69,119,0
1,69,0,176
1,61,0,4
1,66,0,6
1,60,119,6
1,59,119,0
1,64,119,0
1,67,119,0
1,60,0,60
1,59,0,686
1,64,0,0
1,67,0,4
1,66,119,18
1,61,119,0
1,69,119,0
1,69,0,668
1,61,0,2
1,66,0,2
1,66,119,96
1,61,119,0
1,69,119,0
1,61,0,100
1,69,0,2
1,66,0,6
1,59,119,36
1,64,119,0
1,67,119,0
1,59,0,236
1,64,0,4
1,67,0,0
1,66,119,0
1,61,119,0
1,69,119,0
1,69,0,106
1,61,0,2
1,66,0,6
1,64,119,30
1,59,119,0
1,67,119,0
1,59,0,240
1,66,119,0
1,61,119,0
1,69,119,0
1,64,0,4
1,67,0,2
1,61,0,104
1,69,0,0
1,66,0,6
1,59,119,28
1,64,119,0
1,67,119,0
1,59,0,222
1,64,0,2
1,67,0,0
1,66,119,16
1,69,119,0
1,61,119,0
1,61,0,104
1,66,0,8
1,69,0,0
1,59,119,32
1,64,119,0
1,67,119,0
1,59,0,228
1,64,0,2
1,67,0,0
1,66,119,10
1,69,119,0
1,62,119,0
1,62,0,348
1,69,0,4
1,66,0,10
1,66,119,22
1,70,119,0
1,62,119,0
1,70,0,234
1,62,0,10
1,66,0,8
1,71,119,36
1,66,119,0
1,62,119,0
1,71,0,364
1,62,0,4
1,66,0,4
1,70,119,12
1,66,119,0
1,62,119,0
1,70,0,418
1,62,0,6
1,66,0,10
1,67,119,46
1,62,119,0
1,71,119,0
1,71,0,352
1,67,0,2
1,62,0,0
1,69,119,30
1,66,119,0
1,62,119,0
1,62,0,334
1,69,0,4
1,66,0,4
1,64,119,42
1,67,119,0
1,71,119,0
1,71,0,248
1,64,0,8
1,67,0,0
1,61,119,32
1,64,119,0
1,69,119,0
1,61,0,864
1,69,0,4
1,64,0,4
1,62,119,1144
1,59,119,0
1,67,119,0
1,59,0,742
1,62,0,4
1,67,0,2
1,57,119,20
1,61,119,0
1,64,119,0
1,61,0,728
1,57,0,2
1,64,0,12
1,59,119,26
1,62,119,0
1,67,119,0
1,67,0,738
1,59,0,4
1,62,0,8
1,57,119,18
1,61,119,0
1,64,119,0
1,57,0,664
1,61,0,2
1,64,0,2
1,66,119,100
1,62,119,0
1,57,119,0
1,57,0,646
1,62,0,6
1,66,0,2
1,57,119,18
1,66,119,0
1,62,119,0
1,62,119,96
1,67,119,0
1,59,119,0
1,57,0,2
1,66,0,0
1,62,0,0
1,67,0,614
1,59,0,0
1,62,0,2
1,67,119,54
1,59,119,0
1,62,119,0
1,67,0,72
1,59,0,0
1,62,0,0
1,66,119,24
1,62,119,0
1,57,119,0
1,57,0,646
1,62,0,6
1,66,0,2
1,57,119,18
1,66,119,0
1,62,119,0
1,62,119,96
1,67,119,0
1,59,119,0
1,57,0,2
1,66,0,0
1,62,0,0
1,67,0,614
1,59,0,0
1,62,0,2
1,67,119,54
1,59,119,0
1,62,119,0
1,67,0,72
1,59,0,0
1,62,0,0
1,66,119,24
1,62,119,0
1,69,119,0
1,66,0,698
1,69,0,0
1,62,0,14
1,70,119,56
1,65,119,0
1,62,119,0
1,62,0,456
1,65,0,8
1,70,0,4
1,60,119,12
1,67,119,0
1,64,119,0
1,64,0,254
1,60,0,4
1,67,0,0
1,66,119,30
1,62,119,0
1,69,119,0
1,69,0,734
1,62,0,10
1,66,0,2
1,66,119,22
1,62,119,0
1,59,119,0
1,59,0,710
1,62,0,20
1,66,0,2
1,66,119,36
1,62,119,0
1,69,119,0
1,69,0,722
1,66,0,2
1,62,0,8
1,67,119,36
1,64,119,0
1,71,119,0
1,67,0,718
1,71,0,2
1,64,0,6
1,66,119,42
1,61,119,0
1,69,119,0
1,69,0,362
1,66,0,16
1,61,0,4
1,66,119,2
1,69,119,0
1,62,119,0
1,62,0,152
1,69,0,4
1,66,0,4
1,61,119,32
1,66,119,0
1,69,119,0
1,69,0,176
1,61,0,4
1,66,0,6
1,60,119,6
1,59,119,0
1,64,119,0
1,67,119,0
1,60,0,60
1,59,0,686
1,64,0,0
1,67,0,4
1,66,119,18
1,61,119,0
1,69,119,0
1,69,0,668
1,61,0,2
1,66,0,2
1,66,119,96
1,61,119,0
1,69,119,0
1,61,0,100
1,69,0,2
1,66,0,6
1,59,119,36
1,64,119,0
1,67,119,0
1,59,0,236
1,64,0,4
1,67,0,0
1,66,119,0
1,61,119,0
1,69,119,0
1,69,0,106
1,61,0,2
1,66,0,6
1,64,119,30
1,59,119,0
1,67,119,0
1,59,0,240
1,66,119,0
1,61,119,0
1,69,119,0
1,64,0,4
1,67,0,2
1,61,0,104
1,69,0,0
1,66,0,6
1,59,119,28
1,64,119,0
1,67,119,0
1,59,0,222
1,64,0,2
1,67,0,0
1,66,119,16
1,69,119,0
1,61,119,0
1,61,0,104
1,66,0,8
1,69,0,0
1,59,119,32
1,64,119,0
1,67,119,0
1,59,0,228
1,64,0,2
1,67,0,0
1,66,119,10
1,69,119,0
1,62,119,0
1,62,0,348
1,69,0,4
1,66,0,10
1,66,119,22
1,70,119,0
1,62,119,0
1,70,0,234
1,62,0,10
1,66,0,8
1,71,119,36
1,66,119,0
1,62,119,0
1,71,0,364
1,62,0,4
1,66,0,4
1,70,119,12
1,66,119,0
1,62,119,0
1,70,0,418
1,62,0,6
1,66,0,10
1,67,119,46
1,62,119,0
1,71,119,0
1,71,0,352
1,67,0,2
1,62,0,0
1,69,119,30
1,66,119,0
1,62,119,0
1,62,0,334
1,69,0,4
1,66,0,4
1,64,119,42
1,67,119,0
1,71,119,0
1,71,0,248
1,64,0,8
1,67,0,0
1,61,119,32
1,64,119,0
1,69,119,0
1,61,0,864
1,69,0,4
1,64,0,4
1,62,119,1144
1,59,119,0
1,67,119,0
1,59,0,742
1,62,0,4
1,67,0,2
1,57,119,20
1,61,119,0
1,64,119,0
1,61,0,728
1,57,0,2
1,64,0,12
1,59,119,26
1,62,119,0
1,67,119,0
1,67,0,738
1,59,0,4
1,62,0,8
1,57,119,18
1,61,119,0
1,64,119,0
1,57,0,664
1,61,0,2
1,64,0,2
1,66,119,100
1,62,119,0
1,57,119,0
1,57,0,646
1,62,0,6
1,66,0,2
1,57,119,18
1,66,119,0
1,62,119,0
1,62,119,96
1,67,119,0
1,59,119,0
1,57,0,2
1,66,0,0
1,62,0,0
1,67,0,614
1,59,0,0
1,62,0,2
1,67,119,54
1,59,119,0
1,62,119,0
1,67,0,72
1,59,0,0
1,62,0,0
1,66,119,24
1,62,119,0
1,57,119,0
1,57,0,646
1,62,0,6
1,66,0,2
1,57,119,18
1,66,119,0
1,62,119,0
1,62,119,96
1,67,119,0
1,59,119,0
1,57,0,2
1,66,0,0
1,62,0,0
1,67,0,614
1,59,0,0
1,62,0,2
1,67,119,54
1,59,119,0
1,62,119,0
1,67,0,72
1,59,0,0
1,62,0,0
1,66,119,24
1,62,119,0
1,57,119,0
1,57,0,646
1,62,0,6
1,66,0,2
1,57,119,18
1,66,119,0
1,62,119,0
1,62,119,96
1,67,119,0
1,59,119,0
1,57,0,2
1,66,0,0
1,62,0,0
1,67,0,614
1,59,0,0
1,62,0,2
1,67,119,54
1,59,119,0
1,62,119,0
1,67,0,72
1,59,0,0
1,62,0,0
1,66,119,24
1,62,119,0
1,57,119,0
1,57,0,646
1,62,0,6
1,66,0,2
1,57,119,18
1,66,119,0
1,62,119,0
1,62,119,96
1,67,119,0
1,59,119,0
1,57,0,2
1,66,0,0
1,62,0,0
1,67,0,614
1,59,0,0
1,62,0,2
1,67,119,54
1,59,119,0
1,62,119,0
1,67,0,72
1,59,0,0
1,62,0,0
1,66,119,24
1,62,119,0
1,57,119,0
1,57,0,646
1,62,0,6
1,66,0,2
1,57,119,18
1,66,119,0
1,62,119,0
1,62,119,96
1,67,119,0
1,59,119,0
1,57,0,2
1,66,0,0
1,62,0,0
1,67,0,614
1,59,0,0
1,62,0,2
1,67,119,54
1,59,119,0
1,62,119,0
1,67,0,72
1,59,0,0
1,62,0,0
1,66,119,24
1,62,119,0
1,57,119,0
1,57,0,646
1,62,0,6
1,66,0,2
1,57,119,18
1,66,119,0
1,62,119,0
1,62,119,96
1,67,119,0
1,59,119,0
1,57,0,2
1,66,0,0
1,62,0,0
1,67,0,614
1,59,0,0
1,62,0,2
1,67,119,54
1,59,119,0
1,62,119,0
1,67,0,72
1,59,0,0
1,62,0,0
1,66,119,24
1,62,119,0
1,57,119,0
1,57,0,646
1,62,0,6
1,66,0,2
1,57,119,18
1,66,119,0
1,62,119,0
1,62,119,96
1,67,119,0
1,59,119,0
1,57,0,2
1,66,0,0
1,62,0,0
1,67,0,614
1,59,0,0
1,62,0,2
1,67,119,54
1,59,119,0
1,62,119,0
1,67,0,72
1,59,0,0
1,62,0,0
1,66,119,24
1,62,119,0
1,57,119,0
1,57,0,646
1,62,0,6
1,66,0,2
1,57,119,18
1,66,119,0
1,62,119,0
1,62,119,96
1,67,119,0
1,59,119,0
1,57,0,2
1,66,0,0
1,62,0,0
1,67,0,614
1,59,0,0
1,62,0,2
1,67,119,54
1,59,119,0
1,62,119,0
1,67,0,72
1,59,0,0
1,62,0,0
1,66,119,24
1,62,119,0
1,69,119,0
1,66,0,698
1,69,0,0
1,62,0,14
1,70,119,56
1,65,119,0
1,62,119,0
1,62,0,456
1,65,0,8
1,70,0,4
1,60,119,12
1,67,119,0
1,64,119,0
1,64,0,254
1,60,0,4
1,67,0,0
1,62,119,30
1,57,119,0
1,54,119,0
1,62,0,712
1,57,0,2
1,54,0,2
2,66,119,0
2,62,119,0
2,69,119,0
2,69,0,114
2,62,0,4
2,66,0,2
2,66,119,24
2,69,119,0
2,62,119,0
2,62,0,26
2,66,0,2
2,69,0,0
2,66,119,20
2,69,119,0
2,62,119,0
2,62,0,30
2,66,0,2
2,69,0,0
2,66,119,160
2,62,119,0
2,69,119,0
2,62,0,104
2,69,0,0
2,66,0,4
2,66,119,36
2,69,119,0
2,62,119,0
2,69,0,20
2,66,0,4
2,62,0,0
2,66,119,24
2,62,119,0
2,69,119,0
2,62,0,30
2,69,0,2
2,66,0,4
2,67,119,156
2,62,119,0
2,71,119,0
2,62,0,104
2,71,0,4
2,67,0,6
2,67,119,30
2,62,119,0
2,71,119,0
2,71,0,18
2,67,0,8
2,62,0,2
2,67,119,20
2,62,119,0
2,71,119,0
2,71,0,30
2,62,0,2
2,67,0,4
2,67,119,156
2,62,119,0
2,71,119,0
2,62,0,110
2,71,0,0
2,67,0,4
2,67,119,30
2,71,119,0
2,62,119,0
2,67,0,20
2,71,0,2
2,62,0,0
2,67,119,26
2,71,119,0
2,62,119,0
2,62,0,32
2,67,0,2
2,71,0,2
2,66,119,156
2,62,119,0
2,69,119,0
2,69,0,114
2,62,0,4
2,66,0,2
2,66,119,24
2,69,119,0
2,62,119,0
2,62,0,26
2,66,0,2
2,69,0,0
2,66,119,20
2,69,119,0
2,62,119,0
2,62,0,30
2,66,0,2
2,69,0,0
2,66,119,160
2,62,119,0
2,69,119,0
2,62,0,104
2,69,0,0
2,66,0,4
2,66,119,36
2,69,119,0
2,62,119,0
2,69,0,20
2,66,0,4
2,62,0,0
2,66,119,24
2,62,119,0
2,69,119,0
2,62,0,30
2,69,0,2
2,66,0,4
2,67,119,156
2,62,119,0
2,71,119,0
2,62,0,104
2,71,0,4
2,67,0,6
2,67,119,30
2,62,119,0
2,71,119,0
2,71,0,18
2,67,0,8
2,62,0,2
2,67,119,20
2,62,119,0
2,71,119,0
2,71,0,30
2,62,0,2
2,67,0,4
2,67,119,156
2,62,119,0
2,71,119,0
2,62,0,110
2,71,0,0
2,67,0,4
2,67,119,30
2,71,119,0
2,62,119,0
2,67,0,20
2,71,0,2
2,62,0,0
2,67,119,26
2,71,119,0
2,62,119,0
2,62,0,32
2,67,0,2
2,71,0,2
2,66,119,156
2,62,119,0
2,69,119,0
2,69,0,114
2,62,0,4
2,66,0,2
2,66,119,24
2,69,119,0
2,62,119,0
2,62,0,26
2,66,0,2
2,69,0,0
2,66,119,20
2,69,119,0
2,62,119,0
2,62,0,30
2,66,0,2
2,69,0,0
2,66,119,160
2,62,119,0
2,69,119,0
2,62,0,104
2,69,0,0
2,66,0,4
2,66,119,36
2,69,119,0
2,62,119,0
2,69,0,20
2,66,0,4
2,62,0,0
2,66,119,24
2,62,119,0
2,69,119,0
2,62,0,30
2,69,0,2
2,66,0,4
2,67,119,156
2,62,119,0
2,71,119,0
2,62,0,104
2,71,0,4
2,67,0,6
2,67,119,30
2,62,119,0
2,71,119,0
2,71,0,18
2,67,0,8
2,62,0,2
2,67,119,20
2,62,119,0
2,71,119,0
2,71,0,30
2,62,0,2
2,67,0,4
2,67,119,156
2,62,119,0
2,71,119,0
2,62,0,110
2,71,0,0
2,67,0,4
2,67,119,30
2,71,119,0
2,62,119,0
2,67,0,20
2,71,0,2
2,62,0,0
2,67,119,26
2,71,119,0
2,62,119,0
2,62,0,32
2,67,0,2
2,71,0,2
2,66,119,156
2,62,119,0
2,69,119,0
2,69,0,114
2,62,0,4
2,66,0,2
2,66,119,24
2,69,119,0
2,62,119,0
2,62,0,26
2,66,0,2
2,69,0,0
2,66,119,20
2,69,119,0
2,62,119,0
2,62,0,30
2,66,0,2
2,69,0,0
2,66,119,160
2,62,119,0
2,69,119,0
2,62,0,104
2,69,0,0
2,66,0,4
2,66,119,36
2,69,119,0
2,62,119,0
2,69,0,20
2,66,0,4
2,62,0,0
2,66,119,24
2,62,119,0
2,69,119,0
2,62,0,30
2,69,0,2
2,66,0,4
