track,note,velocity,time
1,94,88,1404
1,82,86,8
1,57,57,296
1,66,58,0
1,60,51,0
1,46,32,4
1,34,35,8
1,63,42,0
1,57,50,236
1,54,53,4
1,63,53,4
1,60,49,0
1,46,65,204
1,34,38,8
1,56,82,4
1,60,78,8
1,66,84,0
1,63,71,8
1,34,52,8
1,57,72,0
1,63,61,132
1,66,69,0
1,57,63,0
1,60,61,4
1,34,32,48
1,65,53,124
1,56,60,12
1,59,44,0
1,62,32,8
1,55,55,0
1,63,56,4
1,58,52,8
1,65,52,12
1,63,49,8
1,46,44,0
1,54,63,20
1,57,40,20
1,60,54,0
1,34,37,4
1,34,61,4
1,82,88,48
1,94,91,8
1,57,60,268
1,63,54,4
1,66,62,4
1,34,47,0
1,60,53,4
1,46,43,0
1,54,49,256
1,63,54,0
1,57,46,8
1,60,45,0
1,46,59,52
1,34,35,8
1,56,86,16
1,66,84,0
1,60,80,4
1,63,75,0
1,34,53,20
1,57,64,8
1,63,64,204
1,66,73,4
1,57,71,0
1,60,69,4
1,34,29,40
1,65,57,8
1,56,50,12
1,62,27,8
1,59,29,4
1,55,58,28
1,63,56,4
1,58,53,4
1,65,39,28
1,64,42,20
1,63,49,8
1,46,42,0
1,54,53,20
1,57,46,0
1,60,54,8
1,34,42,8
1,34,58,0
1,94,82,68
1,106,80,8
1,104,56,20
1,66,67,272
1,63,61,0
1,46,49,8
1,57,56,0
1,60,49,0
1,34,52,4
1,63,48,240
1,60,37,4
1,57,52,0
1,54,49,8
1,46,63,32
1,34,51,20
1,56,86,8
1,66,84,0
1,63,74,8
1,60,83,0
1,34,61,4
1,57,71,8
1,66,70,204
1,63,68,8
1,57,70,0
1,60,67,8
1,34,38,28
1,65,57,152
1,56,64,4
1,59,25,28
1,63,61,44
1,55,62,0
1,58,61,4
1,34,32,8
1,65,58,8
1,63,47,8
1,57,52,44
1,34,52,8
1,54,57,0
1,60,48,0
1,53,74,0
1,46,71,0
1,55,69,4
1,63,74,0
1,58,69,4
1,39,63,0
1,61,68,8
1,87,63,636
1,74,55,4
1,72,59,0
1,82,61,4
1,84,54,4
1,79,49,0
1,87,66,556
1,74,56,4
1,72,56,0
1,84,50,8
1,78,56,0
1,81,48,8
1,87,67,484
1,84,59,0
1,77,55,8
1,80,60,8
1,74,46,0
1,72,48,0
1,38,59,256
1,45,61,72
1,54,46,24
1,94,72,76
1,39,56,12
1,46,58,8
1,55,51,8
1,94,68,8
1,87,76,0
1,91,75,0
1,99,81,0
1,94,71,88
1,86,73,0
1,98,78,4
1,91,65,0
1,67,55,4
1,63,48,8
1,58,36,8
1,82,73,0
1,60,13,4
1,94,35,0
1,91,87,136
1,86,80,8
1,79,80,0
1,83,82,8
1,35,61,0
1,63,33,8
1,67,63,0
1,59,56,4
1,56,52,0
1,62,56,8
1,91,72,88
1,79,62,8
1,86,69,0
1,83,63,0
1,34,59,8
1,46,47,4
1,82,74,16
1,94,72,0
1,91,78,68
1,65,58,4
1,61,57,4
1,58,54,4
1,56,55,8
1,94,65,4
1,82,61,8
1,91,37,8
1,89,18,4
1,91,67,76
1,88,75,0
1,39,49,0
1,91,71,92
1,82,72,0
1,94,74,0
1,88,70,0
1,64,63,4
1,61,59,4
1,55,57,8
1,91,78,96
1,53,57,8
1,51,54,0
1,44,60,4
1,60,53,0
1,94,70,88
1,91,61,8
1,82,68,0
1,89,44,12
1,65,60,8
1,63,58,0
1,60,52,4
1,56,48,8
1,87,62,0
1,78,65,8
1,84,56,0
1,91,58,8
1,89,29,16
1,79,49,8
1,48,49,0
1,39,59,4
1,84,62,8
1,75,69,0
1,87,69,4
1,53,51,4
1,82,69,0
1,44,73,28
1,54,70,4
1,60,62,0
1,84,66,8
1,87,71,60
1,53,70,16
1,43,71,4
1,59,66,8
1,83,75,8
1,77,66,0
1,89,74,4
1,87,59,8
1,59,56,4
1,53,53,4
1,63,60,4
1,83,58,8
1,77,56,0
1,89,58,8
1,53,74,56
1,84,83,4
1,91,94,8
1,79,87,0
1,44,71,8
1,87,85,0
1,60,77,4
1,80,64,28
1,92,57,12
1,81,65,0
1,93,78,8
1,94,80,0
1,82,79,0
1,44,89,156
1,37,81,8
1,91,89,4
1,79,83,0
1,87,77,0
1,83,81,8
1,53,55,8
1,59,71,0
1,63,62,8
1,36,83,16
1,48,86,4
1,41,39,20
1,44,22,16
1,91,79,28
1,79,71,0
1,82,74,8
1,86,68,0
1,80,78,96
1,92,80,8
1,52,63,0
1,58,78,4
1,63,71,8
1,94,74,8
1,82,72,0
1,41,76,0
1,57,75,8
1,51,73,0
1,91,79,4
1,79,71,4
1,87,70,8
1,84,70,0
1,29,85,8
1,87,87,4
1,99,94,4
1,94,78,0
1,91,75,4
1,67,57,4
1,63,60,4
1,57,55,0
1,84,69,8
1,91,68,0
1,87,70,68
1,41,74,12
1,51,62,0
1,78,73,20
1,90,75,0
1,85,63,0
1,57,67,0
1,55,27,8
1,56,79,116
1,53,68,0
1,60,75,0
1,46,69,4
1,87,58,16
1,77,74,4
1,84,70,0
1,89,79,0
1,46,53,96
1,34,51,4
1,56,72,4
1,60,64,0
1,66,65,4
1,63,57,0
1,57,54,16
1,60,49,220
1,57,53,8
1,54,49,0
1,63,51,4
1,46,61,156
1,34,54,80
1,56,86,88
1,63,71,0
1,66,84,8
1,60,78,0
1,57,67,0
1,34,30,4
1,66,70,228
1,57,67,4
1,63,69,0
1,60,63,8
1,34,44,0
1,65,60,8
1,56,67,12
1,59,45,4
1,34,57,4
1,55,54,28
1,63,54,0
1,58,49,8
1,61,23,4
1,65,58,20
1,63,51,28
1,38,54,0
1,45,47,12
1,57,64,0
1,60,58,16
1,54,49,0
1,46,33,116
1,39,63,4
1,55,70,0
1,87,83,4
1,91,81,0
1,99,89,4
1,94,84,0
1,86,73,76
1,98,76,0
1,91,72,4
1,94,71,0
1,67,60,0
1,63,58,0
1,58,59,0
1,60,40,12
1,82,77,0
1,94,65,0
1,47,61,4
1,35,64,8
1,85,89,28
1,79,83,0
1,82,86,0
1,91,92,0
1,86,72,0
1,83,63,16
1,56,76,8
1,67,73,0
1,62,67,4
1,79,42,8
1,59,47,8
1,91,76,52
1,79,62,0
1,86,69,8
1,83,41,8
1,49,61,8
1,34,62,12
1,82,68,24
1,94,67,4
1,91,78,112
1,65,61,0
1,61,54,4
1,58,52,8
1,56,54,0
1,94,71,8
1,82,57,12
1,89,37,8
1,91,14,0
1,91,69,76
1,88,70,0
1,39,59,4
1,55,47,4
1,82,72,0
1,94,77,0
1,88,72,0
1,91,67,4
1,61,62,4
1,64,62,0
1,55,48,4
1,53,60,8
1,44,59,8
1,60,59,4
1,82,73,116
1,94,74,0
1,91,65,4
1,89,51,0
1,63,60,0
1,60,51,8
1,56,52,0
1,87,65,20
1,84,65,8
1,78,56,0
1,91,69,8
1,79,60,8
1,48,59,4
1,39,59,0
1,53,54,0
1,87,69,8
1,82,70,0
1,75,57,4
1,84,25,16
1,44,72,12
1,54,69,8
1,60,66,8
1,84,65,8
1,87,73,68
1,53,64,8
1,43,75,4
1,59,74,4
1,83,82,4
1,89,84,0
1,77,71,4
1,87,66,0
1,85,21,36
1,53,54,8
1,59,58,4
1,63,54,4
1,77,62,0
1,83,61,0
1,89,65,0
1,53,66,36
1,60,78,8
1,84,73,0
1,79,75,8
1,91,81,0
1,87,73,8
1,44,72,0
1,50,26,8
1,48,21,0
1,80,66,48
1,92,61,4
1,90,19,20
1,81,67,56
1,93,79,8
1,94,77,4
1,82,76,0
1,37,78,8
1,44,85,4
1,91,78,0
1,79,73,0
1,87,70,0
1,83,72,0
1,59,70,180
1,63,66,0
1,53,60,4
1,36,81,4
1,48,76,12
1,91,75,8
1,86,58,4
1,79,56,0
1,82,58,4
1,52,47,116
1,58,72,8
1,80,72,8
1,63,66,0
1,92,78,0
1,94,78,28
1,82,70,8
1,35,76,8
1,47,70,4
1,79,80,8
1,91,81,0
1,87,74,8
1,85,73,0
1,57,63,104
1,63,81,12
1,68,80,8
1,87,95,0
1,99,96,8
1,88,52,20
1,100,48,8
1,67,77,60
1,62,73,0
1,56,72,8
1,58,69,0
1,87,66,116
1,34,55,0
1,78,59,4
1,85,55,4
1,90,54,8
1,46,28,0
1,46,54,40
1,79,49,40
1,87,60,0
1,82,51,8
1,84,45,8
1,46,46,0
1,61,10,16
1,34,54,0
1,56,62,0
1,66,67,4
1,60,60,4
1,63,53,0
1,57,36,32
1,60,49,208
1,57,55,4
1,54,56,0
1,63,55,4
1,46,72,20
1,34,65,4
1,56,84,0
1,63,61,0
1,34,72,8
1,66,86,0
1,60,78,4
1,57,61,16
1,63,74,220
1,66,73,0
1,57,63,8
1,60,60,4
1,34,35,0
1,46,47,12
1,65,62,0
1,56,69,0
1,62,32,0
1,34,34,12
1,59,31,4
1,45,48,32
1,33,51,0
1,55,50,0
1,63,51,12
1,58,38,0
1,61,41,0
1,65,55,4
1,63,53,28
1,45,58,8
1,54,64,0
1,38,51,4
1,57,71,0
1,60,62,4
1,62,62,4
1,52,65,4
1,43,69,0
1,58,88,4
1,86,73,88
1,74,65,0
1,79,66,0
1,82,61,8
1,64,42,4
1,67,57,4
1,58,43,8
1,76,61,0
1,79,60,8
1,88,75,0
1,82,59,0
1,76,57,88
1,88,57,8
1,79,53,0
1,82,65,4
1,86,54,8
1,40,69,4
1,55,60,0
1,78,63,4
1,82,60,4
1,90,54,4
1,90,72,60
1,78,72,8
1,46,68,12
1,82,46,0
1,87,26,8
1,56,75,0
1,62,60,0
1,82,63,4
1,86,74,4
1,79,70,0
1,91,81,8
1,79,74,60
1,91,76,8
1,82,72,0
1,86,66,0
1,45,70,0
1,55,59,4
1,54,32,8
1,61,73,0
1,94,84,0
1,82,77,0
1,87,69,4
1,85,70,4
1,61,60,0
1,55,54,8
1,91,66,4
1,85,60,8
1,79,37,0
1,87,44,4
1,77,40,4
1,87,60,56
1,84,69,4
1,90,76,0
1,93,83,4
1,81,67,4
1,38,58,8
1,60,77,4
1,64,75,8
1,54,74,8
1,56,68,4
1,58,48,0
1,74,70,76
1,78,72,0
1,84,64,4
1,81,65,4
1,86,67,4
1,43,68,4
1,52,63,4
1,58,76,0
1,79,69,8
1,91,75,8
1,86,70,4
1,82,72,0
1,93,75,88
1,81,60,0
1,64,61,0
1,62,41,0
1,58,60,4
1,82,77,4
1,94,77,0
1,51,63,100
1,39,67,8
1,38,70,4
1,50,69,4
1,85,80,0
1,90,75,8
1,93,60,0
1,97,80,4
1,94,43,8
1,90,68,8
1,93,45,0
1,86,76,4
1,98,78,0
1,51,67,108
1,42,80,8
1,57,72,0
1,81,67,4
1,93,76,0
1,85,47,4
1,90,27,0
1,82,74,4
1,94,78,4
1,90,57,0
1,53,66,116
1,43,62,4
1,49,53,4
1,78,80,8
1,59,66,8
1,90,76,0
1,85,42,4
1,82,65,0
1,79,69,4
1,82,58,0
1,91,75,0
1,86,72,4
1,56,69,0
1,59,67,0
1,65,61,8
1,64,33,0
1,49,56,8
1,87,87,4
1,99,77,0
1,94,54,0
1,97,55,4
1,91,35,4
1,86,72,8
1,97,66,0
1,85,87,8
1,92,80,0
1,94,80,0
1,58,57,0
1,54,58,4
1,48,61,8
1,64,59,4
1,84,67,0
1,80,73,84
1,92,68,8
1,90,43,12
1,52,1,4
1,58,75,0
1,42,73,4
1,75,74,0
1,87,67,4
1,73,78,0
1,85,77,0
1,48,61,4
1,41,68,0
1,56,71,0
1,51,63,0
1,80,66,4
1,77,73,4
1,72,73,0
1,84,73,4
1,72,70,56
1,84,70,4
1,77,69,8
1,80,67,0
1,56,67,8
1,65,55,0
1,63,58,4
1,60,62,4
1,74,71,0
1,77,63,4
1,86,82,4
1,80,66,0
1,80,67,40
1,77,63,8
1,51,52,0
1,86,74,0
1,74,61,4
1,42,41,4
1,38,69,4
1,50,59,12
1,80,68,4
1,76,63,8
1,88,78,0
1,80,69,40
1,76,68,8
1,88,74,0
1,65,72,4
1,60,59,0
1,54,70,0
1,58,57,0
1,56,52,4
1,84,79,0
1,77,85,0
1,89,86,0
1,80,75,8
1,53,77,0
1,59,81,0
1,43,80,4
1,87,73,8
1,83,78,0
1,80,78,4
1,92,87,4
1,53,55,4
1,59,63,0
1,63,63,8
1,83,76,0
1,82,73,4
1,92,75,0
1,87,56,0
1,58,68,4
1,52,57,0
1,62,67,8
1,86,74,8
1,88,74,0
1,91,75,4
1,82,72,4
1,79,73,0
1,49,70,8
1,37,59,12
1,36,74,20
1,48,70,0
1,42,79,4
1,30,83,8
1,41,93,60
1,29,91,8
1,84,69,136
1,89,82,0
1,77,68,8
1,81,55,4
1,79,31,0
1,79,71,0
1,91,76,0
1,89,34,28
1,80,76,76
1,92,80,0
1,94,77,128
1,82,82,0
1,58,75,8
1,67,85,8
1,63,77,0
1,56,76,4
1,60,73,0
1,92,43,8
1,84,70,24
1,92,78,204
1,84,57,0
1,59,67,0
1,62,75,4
1,67,78,0
1,56,72,0
1,91,79,0
1,95,83,4
1,86,84,4
1,98,92,4
1,58,16,0
1,46,96,152
1,34,86,0
1,91,81,20
1,86,80,0
1,94,80,4
1,83,69,4
1,46,87,28
1,83,81,68
1,86,82,0
1,91,78,16
1,79,70,8
1,46,82,20
1,34,75,8
1,82,38,4
1,79,74,8
1,83,76,0
1,86,74,8
1,74,67,48
1,46,77,80
1,39,77,8
1,55,77,0
1,53,60,12
1,90,49,8
1,94,37,8
1,94,80,40
1,87,83,0
1,99,85,4
1,91,68,4
1,86,82,84
1,91,79,0
1,94,82,8
1,98,87,0
1,63,67,0
1,67,66,4
1,58,67,4
1,60,46,0
1,82,74,4
1,94,67,0
1,46,79,4
1,34,76,8
1,47,72,8
1,35,72,4
1,85,87,28
1,79,80,0
1,82,84,8
1,91,89,0
1,86,77,12
1,83,74,4
1,59,66,8
1,63,34,0
1,62,64,0
1,67,68,8
1,56,69,0
1,79,38,4
1,79,68,48
1,86,68,4
1,91,71,4
1,83,55,4
1,34,61,4
1,82,65,20
1,94,71,8
1,91,71,100
1,65,61,4
1,61,54,0
1,56,55,8
1,58,48,0
1,94,68,8
1,89,41,4
1,82,50,8
1,91,9,8
1,91,68,84
1,88,72,8
1,49,56,0
1,39,57,8
1,55,41,4
1,91,75,96
1,82,68,0
1,94,74,0
1,88,70,0
1,61,62,0
1,64,58,4
1,55,51,4
1,91,75,48
1,53,60,4
1,44,56,0
1,60,56,4
1,91,51,8
1,94,77,8
1,82,77,0
1,89,73,4
1,63,60,8
1,56,54,4
1,60,29,16
1,84,85,8
1,87,77,0
1,90,94,0
1,78,86,0
1,77,55,0
1,89,59,0
1,88,45,4
1,87,87,60
1,75,78,0
1,85,41,0
1,82,38,8
1,48,59,4
1,39,60,4
1,53,56,0
1,75,81,4
1,87,85,0
1,84,67,8
1,80,55,8
1,44,76,76
1,54,78,0
1,60,74,0
1,84,66,16
1,87,76,16
1,53,68,0
1,43,71,8
1,59,72,4
1,83,75,8
1,89,77,8
1,77,70,0
1,87,60,0
1,53,49,0
1,43,58,8
1,59,65,8
1,83,60,4
1,77,56,4
1,89,63,4
1,53,74,4
1,84,73,0
1,87,71,0
1,79,77,0
1,91,78,8
1,60,77,4
1,44,56,0
1,48,36,0
1,59,23,0
1,80,67,40
1,92,67,8
1,90,20,24
1,81,72,0
1,93,83,8
1,94,78,20
1,82,76,0
1,37,81,0
1,44,79,8
1,91,79,4
1,79,77,4
1,87,74,8
1,83,78,0
1,59,67,204
1,53,61,0
1,63,66,8
1,36,78,16
1,48,84,0
1,86,54,8
1,82,61,0
1,91,67,8
1,79,51,0
1,80,75,116
1,92,81,0
1,52,50,8
1,58,72,8
1,63,71,4
1,82,76,16
1,94,75,0
1,47,58,8
1,35,82,8
1,87,67,8
1,79,83,0
1,91,79,0
1,85,78,0
1,89,68,4
1,57,70,176
1,63,87,8
1,68,83,8
1,87,98,0
1,99,102,4
1,58,72,56
1,67,74,4
1,56,72,8
