track,note,velocity,time
1,43,43,1508
1,59,60,144
1,61,54,0
1,66,56,4
1,64,51,4
1,57,52,4
1,52,49,0
1,50,47,4
1,66,59,140
1,59,52,0
1,61,51,8
1,50,49,0
1,64,53,8
1,57,49,0
1,52,45,0
1,57,62,124
1,52,52,0
1,66,63,4
1,50,49,4
1,59,58,0
1,61,57,4
1,64,58,0
1,57,36,8
1,50,55,0
1,64,33,0
1,66,50,4
1,59,43,0
1,52,45,0
1,61,38,0
1,67,58,4
1,60,57,4
1,63,52,0
1,58,48,0
1,65,50,0
1,44,43,0
1,53,48,0
1,51,48,4
1,43,48,4
1,59,57,124
1,66,57,0
1,50,49,0
1,61,55,8
1,57,61,0
1,64,55,0
1,52,53,4
1,69,52,0
1,59,56,132
1,66,50,4
1,64,51,4
1,61,52,4
1,69,55,0
1,52,42,0
1,50,40,8
1,57,59,0
1,52,56,136
1,57,61,0
1,69,56,4
1,61,59,4
1,59,65,0
1,66,58,0
1,50,51,8
1,64,54,0
1,50,61,8
1,52,55,0
1,69,60,4
1,57,45,0
1,66,36,4
1,61,39,0
1,59,50,0
1,64,46,0
1,44,47,0
1,51,43,0
1,58,50,0
1,53,46,4
1,60,50,4
1,63,50,0
1,70,63,4
1,65,45,0
1,43,48,0
1,71,64,128
1,61,54,8
1,59,46,0
1,50,49,4
1,57,58,0
1,66,52,4
1,52,51,4
1,61,54,132
1,71,55,0
1,57,56,4
1,59,53,4
1,52,38,4
1,50,44,0
1,66,50,8
1,52,57,120
1,61,62,8
1,57,61,0
1,66,62,4
1,71,66,4
1,50,54,0
1,59,65,8
1,59,57,8
1,71,55,0
1,61,52,0
1,57,31,4
1,66,47,4
1,50,54,0
1,52,40,4
1,51,56,8
1,44,65,8
1,53,61,4
1,58,71,4
1,67,59,0
1,60,66,0
1,72,63,0
1,65,61,4
1,43,58,0
1,61,67,100
1,69,63,8
1,64,63,0
1,73,71,8
1,57,60,0
1,50,51,4
1,52,51,0
1,61,69,144
1,73,73,0
1,64,62,4
1,57,60,4
1,69,61,0
1,52,51,0
1,50,47,8
1,69,60,68
1,57,69,0
1,43,45,8
1,52,53,0
1,61,70,0
1,50,60,4
1,64,65,4
1,73,72,4
1,57,46,28
1,43,46,8
1,73,68,0
1,61,59,0
1,64,51,0
1,44,59,8
1,60,70,4
1,65,56,0
1,74,71,8
1,70,60,0
1,51,60,0
1,53,59,8
1,58,67,0
1,43,47,0
1,62,61,0
1,50,51,4
1,55,57,8
1,59,41,8
1,60,37,20
1,52,37,28
1,64,57,4
1,66,65,44
1,54,51,0
1,59,50,36
1,62,53,0
1,67,59,4
1,55,42,0
1,40,45,8
1,52,46,8
1,57,57,84
1,69,60,4
1,43,67,28
1,71,65,20
1,59,52,8
1,72,74,4
1,42,65,4
1,57,61,20
1,52,56,8
1,60,45,4
1,64,35,8
1,64,57,16
1,52,44,24
1,58,38,4
1,61,39,8
1,34,48,0
1,63,60,20
1,51,49,8
1,35,44,8
1,60,38,12
1,57,45,0
1,72,70,8
1,66,53,0
1,63,63,4
1,57,50,4
1,60,39,4
1,39,54,48
1,71,69,12
1,59,58,4
1,40,48,4
1,67,62,44
1,62,45,4
1,50,68,40
1,62,68,0
1,55,56,16
1,59,54,0
1,34,53,8
1,33,54,8
1,49,70,4
1,61,74,4
1,54,57,4
1,58,62,8
1,45,42,128
1,55,28,0
1,54,63,48
1,39,50,8
1,57,67,12
1,69,77,0
1,53,66,8
1,38,59,0
1,60,59,0
1,65,49,4
1,38,36,0
1,60,74,4
1,48,68,4
1,50,51,4
1,53,44,4
1,48,1,4
1,44,41,20
1,32,27,20
1,59,73,4
1,47,69,0
1,31,54,4
1,43,16,20
1,56,61,0
1,53,56,4
1,53,69,4
1,43,60,8
1,36,61,0
1,43,53,4
1,59,65,0
1,57,71,4
1,52,71,4
1,62,64,4
1,64,65,0
1,67,73,4
1,42,50,4
1,56,67,4
1,51,59,0
1,59,56,0
1,60,68,12
1,43,51,0
1,57,63,4
1,52,36,4
1,53,42,0
1,47,62,4
1,62,67,4
1,53,50,8
1,56,62,0
1,58,62,56
1,63,64,4
1,48,62,4
1,55,49,4
1,65,68,0
1,50,60,4
1,58,70,8
1,63,64,0
1,67,71,8
1,36,62,0
1,51,52,8
1,75,89,8
1,58,76,4
1,42,65,4
1,74,75,8
1,41,70,4
1,63,66,112
1,67,57,8
1,58,68,12
1,72,69,0
1,57,41,48
1,63,59,8
1,66,59,4
1,65,69,4
1,46,59,4
1,60,62,16
1,62,54,12
1,57,56,0
1,74,71,0
1,58,74,0
1,64,22,56
1,67,56,8
1,72,74,8
1,41,59,0
1,66,58,124
1,57,62,8
1,63,54,4
1,70,60,8
1,41,48,12
1,65,48,52
1,55,46,0
1,61,51,12
1,65,66,8
1,46,57,0
1,56,64,88
1,61,62,0
1,40,49,0
1,73,78,4
1,56,48,4
1,66,55,84
1,62,33,20
1,56,52,12
1,39,55,8
1,72,65,0
1,65,58,0
1,61,56,0
1,39,49,0
1,70,61,0
1,55,49,4
1,64,44,4
1,61,38,8
1,45,52,44
1,47,62,4
1,48,62,4
1,63,74,4
1,56,70,0
1,53,66,0
1,49,63,4
1,58,57,4
1,55,49,8
1,65,60,0
1,60,54,0
1,51,62,8
1,67,60,4
1,61,60,8
1,68,58,8
1,39,57,0
1,58,35,8
1,53,51,0
1,70,67,16
1,60,58,4
1,55,47,0
1,63,49,8
1,56,61,0
1,62,60,4
1,65,56,0
1,72,60,4
1,55,51,4
1,45,47,4
1,67,63,4
1,64,70,4
1,74,75,8
1,60,73,0
1,72,69,8
1,74,77,4
1,72,79,56
1,71,71,12
1,50,64,0
1,64,65,8
1,60,55,4
1,72,72,4
1,71,79,72
1,69,71,4
1,58,60,36
1,66,72,0
1,48,66,0
1,78,74,4
1,63,73,4
1,75,60,0
1,73,37,0
1,57,59,4
1,62,71,4
1,74,68,8
1,47,61,0
1,62,64,8
1,57,65,0
1,64,75,4
1,47,56,0
1,62,58,4
1,64,68,8
1,56,70,8
1,60,70,4
1,46,72,4
1,65,73,8
1,62,75,68
1,62,83,152
1,62,77,128
1,60,44,4
1,55,59,28
1,63,67,4
1,39,51,0
1,46,51,4
1,62,69,52
1,62,77,96
1,60,40,16
1,55,70,76
1,39,63,4
1,46,62,8
1,51,62,16
1,60,63,0
1,44,60,4
1,62,60,104
1,70,70,8
1,65,52,8
1,74,60,0
1,60,67,8
1,44,57,0
1,51,63,8
1,59,57,0
1,82,69,4
1,74,57,0
1,49,30,0
1,77,63,8
1,86,60,8
1,84,20,4
1,43,77,8
1,50,85,0
1,59,65,96
1,55,58,8
1,62,46,4
1,60,39,28
1,59,34,32
1,64,64,16
1,62,18,4
1,59,66,32
1,66,70,0
1,62,54,8
1,38,58,16
1,64,54,0
1,62,60,8
1,67,57,0
1,59,47,4
1,60,44,8
1,69,70,8
1,62,36,0
1,43,60,4
1,71,75,36
1,42,73,4
1,64,68,96
1,60,69,0
1,68,68,0
1,72,77,4
1,52,54,12
1,58,60,0
1,74,75,8
1,62,67,8
1,63,80,28
1,72,63,0
1,69,63,8
1,75,78,0
1,68,32,0
1,47,55,0
1,78,74,24
1,66,72,4
1,57,58,104
1,69,68,8
1,60,57,4
1,81,61,8
1,83,40,8
1,72,65,40
1,84,72,0
1,76,56,8
1,83,45,8
1,74,54,4
1,40,65,20
1,55,67,0
1,47,55,0
1,83,79,4
1,79,66,8
1,71,60,0
1,76,63,8
1,82,67,0
1,70,68,0
1,59,59,4
1,62,55,8
1,55,51,0
1,79,68,0
1,83,82,0
1,75,69,4
1,71,72,4
1,33,67,12
1,70,77,44
1,80,34,24
1,69,58,12
1,68,73,4
1,61,69,0
1,55,54,0
1,67,62,0
1,66,73,20
1,53,73,4
1,45,60,4
1,64,73,0
1,38,63,0
1,65,78,32
1,69,66,0
1,72,51,4
1,53,66,8
1,64,73,4
1,60,77,4
1,57,69,0
1,75,75,0
1,76,77,4
1,79,77,16
1,81,56,0
1,53,66,20
1,59,63,4
1,43,63,8
1,76,81,0
1,75,89,68
1,76,67,20
1,71,76,0
1,67,58,20
1,53,67,16
1,63,70,56
1,59,63,20
1,55,69,16
1,52,66,68
1,43,55,8
1,62,87,4
1,59,83,0
1,36,54,4
1,59,74,8
1,62,71,8
1,60,69,28
1,57,62,0
1,43,61,4
1,55,19,20
1,57,71,12
1,60,66,8
1,55,67,4
1,59,67,8
1,53,63,4
1,43,38,8
1,60,55,64
1,57,52,4
1,59,63,40
1,62,61,0
1,43,47,24
1,63,74,4
1,60,60,0
1,62,73,8
1,65,71,0
1,60,58,8
1,51,73,0
1,63,77,8
1,67,75,4
1,36,27,12
1,60,60,40
1,63,54,0
1,65,61,0
1,62,57,8
1,63,73,20
1,67,71,4
1,58,79,8
1,52,63,4
1,42,69,0
1,65,78,48
1,69,80,8
1,65,57,12
1,70,77,8
1,67,69,0
1,51,68,16
1,57,69,0
1,41,57,12
1,69,74,0
1,72,74,0
1,70,77,4
1,74,72,4
1,72,79,48
1,75,81,0
1,74,78,8
1,57,76,0
1,41,73,8
1,51,71,0
1,77,77,0
1,75,85,32
1,72,79,0
1,46,71,4
1,74,60,0
1,70,74,8
1,53,57,4
1,62,62,8
1,72,59,16
1,75,62,8
1,74,75,0
1,77,75,8
1,75,77,60
1,79,77,8
1,77,14,0
1,41,62,0
1,81,77,12
1,77,60,0
1,79,80,32
1,82,82,8
1,54,75,4
1,60,74,4
1,45,70,0
1,84,81,16
1,81,71,4
1,85,80,8
1,82,76,0
1,61,80,4
1,56,72,4
1,87,81,8
1,84,73,0
1,46,70,0
1,82,73,0
1,85,77,8
1,61,77,68
1,84,76,8
1,46,73,0
1,56,68,4
1,80,67,0
1,82,79,24
1,79,71,0
1,55,60,8
1,78,79,4
1,75,74,0
1,45,53,0
1,61,73,8
1,73,72,60
1,76,71,0
1,55,63,80
1,45,63,0
1,72,72,4
1,75,75,4
1,61,71,0
1,73,73,4
1,70,63,0
1,44,71,16
1,60,70,8
1,55,67,4
1,68,69,4
1,72,73,0
1,63,56,148
1,70,80,8
1,67,63,0
1,68,77,0
1,39,54,48
1,72,59,4
1,75,63,4
1,55,60,0
1,44,69,4
1,60,67,4
1,79,80,4
1,81,63,12
1,82,88,56
1,80,76,84
1,75,73,36
1,55,33,8
1,45,54,4
1,60,59,0
1,76,67,20
1,79,81,4
1,83,82,60
1,55,74,20
1,60,75,0
1,64,75,4
1,57,67,4
1,86,86,8
1,82,77,32
1,83,82,12
1,86,79,8
1,50,63,8
1,82,77,8
1,83,61,8
1,86,80,72
1,82,80,8
1,83,71,20
1,48,67,40
1,57,61,4
1,86,80,4
1,63,64,0
1,82,77,48
1,83,78,0
1,86,80,0
1,57,62,8
1,62,73,0
1,47,67,4
1,81,71,8
1,56,41,8
1,83,79,8
1,81,78,68
1,79,73,48
1,78,77,40
1,57,57,8
1,62,60,0
1,79,57,20
1,86,98,12
1,56,68,20
1,84,79,8
1,62,67,0
1,46,53,8
1,79,67,20
1,77,55,16
1,74,74,76
1,56,69,16
1,62,62,4
1,72,60,12
1,74,80,24
1,77,80,12
1,46,68,68
1,39,67,8
1,55,69,0
1,74,84,8
1,70,74,28
1,67,62,12
1,65,75,80
1,46,54,8
1,55,60,0
1,63,66,32
1,74,86,0
1,62,74,0
1,38,80,48
1,45,83,8
1,74,88,4
1,86,101,4
1,54,64,40
1,60,60,8
1,43,56,96
1,74,99,8
1,86,98,0
1,84,62,12
1,50,68,116
1,59,73,0
1,71,83,68
1,69,66,8
1,67,58,24
1,69,85,20
1,54,54,84
1,60,49,0
1,45,41,12
1,71,68,84
1,62,70,8
1,59,59,56
1,43,59,0
1,52,52,4
1,52,50,4
1,57,63,8
1,42,51,0
1,62,77,184
1,60,68,48
1,52,57,0
1,57,61,8
1,65,83,48
1,63,60,4
1,68,77,12
1,66,72,40
1,57,62,4
1,51,66,4
1,47,59,8
1,71,92,4
1,69,80,24
1,67,71,16
1,69,67,8
1,67,67,28
1,40,63,24
1,50,49,0
1,55,67,4
1,66,80,4
1,49,27,20
1,67,70,28
1,71,65,20
1,69,68,4
1,74,67,0
1,62,71,20
1,64,76,8
1,55,68,0
1,59,66,8
1,79,64,20
1,83,57,4
1,81,53,0
1,79,39,4
1,86,79,8
1,89,93,28
1,33,75,4
1,85,81,12
1,82,80,20
1,77,62,0
1,73,79,12
1,70,78,8
1,55,66,0
1,61,69,0
1,65,48,0
1,64,59,20
1,61,54,8
1,58,74,0
1,53,69,4
1,45,73,20
1,38,69,0
1,53,69,0
1,64,65,32
1,69,68,4
1,72,72,4
1,76,87,0
1,60,80,4
1,54,78,4
1,74,71,52
1,72,79,4
1,71,73,4
1,72,66,8
1,71,73,8
1,53,69,8
1,59,65,4
1,68,73,76
1,66,84,8
1,53,60,4
1,43,44,4
1,65,61,4
1,64,80,4
1,52,74,8
1,36,54,4
1,38,39,0
1,67,85,76
1,62,69,8
1,55,56,40
1,36,48,20
1,62,78,16
1,60,75,48
1,53,63,20
1,59,63,12
1,60,64,64
1,65,83,8
1,63,66,20
1,53,60,0
1,43,52,0
1,62,63,4
1,63,78,8
1,51,66,28
1,36,59,8
1,67,63,32
1,70,60,12
1,74,57,16
1,72,44,12
1,79,74,8
1,63,75,0
1,55,66,4
1,60,67,4
1,74,60,0
1,82,88,0
1,86,84,16
1,72,69,20
1,84,81,8
1,41,67,28
1,57,74,8
1,51,62,0
1,74,88,8
1,86,95,0
1,72,55,28
1,84,50,8
1,67,73,56
1,63,74,4
1,57,69,4
1,60,69,4
1,74,75,8
1,86,84,0
1,84,74,8
1,72,70,8
1,77,73,4
1,65,72,4
1,70,68,0
1,74,65,8
1,53,49,12
1,46,48,0
1,62,44,8
1,67,64,8
1,62,66,4
1,53,64,4
1,55,66,0
1,58,72,4
1,69,77,0
1,70,74,8
1,69,75,32
1,72,84,8
1,29,52,8
1,69,75,8
1,70,83,8
1,72,80,24
1,73,81,56
1,75,71,0
1,45,67,0
1,54,74,4
1,60,70,0
1,77,71,0
1,80,68,0
1,84,66,12
1,83,76,8
1,61,83,8
1,56,75,4
1,46,72,8
1,87,76,0
1,85,85,104
1,84,77,80
1,85,77,12
1,84,70,16
1,82,74,8
1,62,78,4
1,52,70,8
1,78,76,4
1,81,57,8
1,79,51,8
1,78,88,20
1,76,73,8
1,45,54,44
1,61,68,8
1,75,74,0
1,77,68,16
1,75,77,8
1,73,76,4
1,72,69,0
1,51,63,48
1,60,70,4
1,44,60,4
1,82,76,8
1,79,70,0
1,85,83,108
1,39,51,28
1,84,73,0
1,80,78,124
1,44,64,56
1,77,66,0
1,60,49,8
1,75,71,68
1,74,64,12
1,75,75,64
1,45,68,0
1,60,50,8
1,59,38,24
1,76,73,20
1,83,90,28
1,55,66,68
1,64,63,8
1,60,66,0
1,81,66,28
1,79,61,4
1,76,61,68
1,72,48,60
1,78,53,44
1,77,60,3
1,48,54,8
1,63,70,8
1,76,59,4
1,81,77,40
1,78,74,4
1,57,65,56
1,69,70,68
1,81,77,4
1,78,66,12
1,57,57,32
1,62,69,0
1,66,74,8
1,78,74,0
1,47,45,8
1,69,71,76
1,81,75,0
1,78,73,136
1,66,72,0
1,69,62,12
1,81,61,8
1,67,60,0
1,79,70,4
1,57,57,48
1,47,49,8
1,62,70,8
1,48,44,4
1,65,52,12
1,70,77,132
1,62,70,16
1,56,62,0
1,46,53,12
1,65,64,12
1,70,77,96
1,62,70,4
1,56,68,0
1,46,49,12
1,60,27,8
1,64,68,0
1,71,76,40
1,55,54,12
1,60,70,0
1,45,54,8
1,64,64,16
1,71,68,24
1,55,60,28
1,45,62,8
1,60,71,4
1,54,42,4
1,62,55,4
1,74,75,20
1,54,70,8
1,60,77,0
1,44,60,0
1,86,82,8
1,54,48,0
1,85,77,4
1,86,76,4
1,88,82,4
1,50,74,4
1,43,70,0
1,86,59,32
1,84,67,24
1,83,78,12
1,82,76,0
1,51,73,28
