track,note,velocity,time
1,46,74,16
1,56,43,234
1,63,70,0
1,53,46,0
1,60,50,8
1,63,40,46
1,60,43,8
1,56,42,0
1,53,42,12
1,60,56,130
1,53,61,2
1,56,54,0
1,63,69,0
1,63,70,56
1,53,54,0
1,60,58,0
1,56,50,2
1,56,56,24
1,63,61,0
1,53,55,8
1,60,51,0
1,67,80,186
1,62,62,2
1,58,51,8
1,55,46,0
1,39,42,72
1,44,74,40
1,45,63,16
1,61,65,0
1,55,50,10
1,44,54,122
1,60,63,0
1,55,54,2
1,51,61,0
1,60,62,24
1,58,68,14
1,43,53,0
1,53,61,0
1,53,63,160
1,63,95,2
1,63,84,60
1,42,54,22
1,51,63,2
1,63,73,0
1,61,60,0
1,57,56,8
1,63,73,144
1,58,60,186
1,51,54,0
1,56,53,2
1,41,45,78
1,51,61,252
1,56,49,0
1,70,64,16
1,58,53,0
1,53,56,10
1,43,56,0
1,65,61,2
1,58,57,86
1,72,44,14
1,51,57,10
1,60,44,0
1,56,49,0
1,68,64,0
1,41,47,0
1,63,54,14
1,63,80,24
1,63,70,78
1,56,42,8
1,63,68,194
1,63,73,74
1,60,62,8
1,56,65,0
1,53,62,0
1,46,63,10
1,63,80,174
1,70,79,172
1,65,76,10
1,61,60,0
1,46,61,16
1,63,70,152
1,48,56,8
1,60,53,0
1,55,63,0
1,61,46,240
1,65,63,10
1,49,57,2
1,56,51,10
1,66,65,234
1,60,46,0
1,50,55,8
1,54,58,2
1,61,56,8
1,67,66,0
1,55,55,8
1,51,54,2
1,72,70,224
1,61,54,8
1,65,66,0
1,68,69,0
1,56,61,0
1,46,68,12
1,72,70,254
1,55,59,8
1,67,62,0
1,61,50,0
1,64,66,2
1,45,49,8
1,72,70,24
1,55,54,16
1,58,56,6
1,75,80,0
1,44,54,2
1,67,68,10
1,63,53,0
1,51,63,2
1,72,70,32
1,70,70,0
1,51,54,0
1,68,73,190
1,64,64,128
1,70,80,0
1,52,53,0
1,58,53,2
1,36,58,6
1,52,46,152
1,67,76,46
1,56,40,6
1,65,70,2
1,41,44,8
1,63,53,2
1,60,49,0
1,51,47,0
1,56,61,120
1,63,68,0
1,60,53,10
1,53,60,0
1,63,48,76
1,56,44,10
1,60,44,0
1,53,30,10
1,63,73,120
1,60,66,0
1,53,70,8
1,56,74,0
1,60,55,62
1,63,63,0
1,56,54,0
1,53,48,8
1,34,65,84
1,56,56,138
1,63,63,2
1,53,49,8
1,60,52,0
1,58,49,172
1,62,60,0
1,67,65,8
1,53,45,0
1,39,53,70
1,51,84,168
1,55,57,48
1,45,64,0
1,61,68,0
1,60,52,46
1,44,57,0
1,55,40,10
1,51,61,282
1,43,63,30
1,63,86,180
1,60,77,0
1,55,84,8
1,58,84,0
1,51,43,56
1,55,33,18
1,58,39,0
1,60,36,0
1,63,25,0
1,55,71,128
1,58,76,0
1,63,65,0
1,60,46,10
1,42,60,86
1,63,50,8
1,57,53,0
1,51,48,0
1,61,53,8
1,63,57,246
1,57,63,0
1,51,57,0
1,61,47,0
1,58,65,2
1,56,53,6
1,51,68,2
1,41,45,48
1,43,54,8
1,44,53,356
1,45,53,0
1,50,31,40
1,46,73,0
1,53,62,0
1,63,84,214
1,56,79,0
1,53,73,8
1,60,66,0
1,34,58,32
1,63,48,8
1,56,53,2
1,53,52,8
1,60,42,0
1,60,36,54
1,63,50,0
1,56,50,2
1,53,48,0
1,60,42,6
1,56,54,0
1,63,61,2
1,53,53,8
1,56,60,92
1,63,68,2
1,60,54,0
1,53,57,0
1,70,69,192
1,61,64,10
1,56,45,0
1,65,62,0
1,34,64,42
1,46,69,276
1,36,64,10
1,37,57,0
1,38,65,20
1,39,70,40
1,61,73,220
1,72,70,0
1,69,68,0
1,67,76,8
1,64,79,0
1,51,65,30
1,61,57,92
1,64,63,2
1,72,70,0
1,69,47,0
1,67,55,0
1,61,53,256
1,72,70,0
1,67,62,8
1,69,39,0
1,64,65,0
1,75,73,14
1,70,79,2
1,44,63,10
1,58,63,0
1,63,69,0
1,51,68,0
1,67,74,0
1,72,70,2
1,70,70,18
1,68,70,16
1,70,76,24
1,60,62,0
1,56,65,0
1,51,70,0
1,67,74,0
1,63,79,2
1,41,60,8
1,59,64,54
1,56,56,0
1,67,57,0
1,64,55,0
1,62,65,0
1,46,63,10
1,60,53,198
1,63,58,0
1,58,47,0
1,55,44,6
1,46,68,0
1,39,74,376
1,48,77,208
1,49,84,8
1,50,84,16
1,60,73,124
1,67,77,0
1,55,73,0
1,63,79,0
1,60,63,192
1,57,64,0
1,66,65,0
1,38,65,0
1,69,69,0
1,63,68,2
1,58,63,142
1,70,74,0
1,62,76,12
1,65,71,0
1,43,59,62
1,53,53,0
1,58,79,220
1,67,63,0
1,74,73,172
1,60,64,6
1,67,76,2
1,55,68,46
1,45,64,8
1,72,44,6
1,60,45,10
1,66,68,0
1,44,57,0
1,54,68,2
1,70,64,6
1,62,53,10
1,53,54,0
1,65,59,0
1,43,51,0
1,67,54,18
1,58,56,0
1,67,69,186
1,74,64,0
1,60,49,10
1,55,62,38
1,45,60,8
1,60,82,8
1,72,54,16
1,54,76,10
1,66,80,0
1,70,74,54
1,67,70,16
1,53,58,0
1,43,54,0
1,62,71,10
1,58,60,2
1,61,69,202
1,41,55,8
1,57,54,0
1,67,65,2
1,51,61,0
1,62,68,8
1,67,64,196
1,40,58,0
1,58,53,0
1,55,46,6
1,62,65,2
1,46,46,24
1,65,64,0
1,55,61,156
1,62,68,0
1,60,58,8
1,50,60,46
1,49,65,8
1,58,65,0
1,50,64,10
1,60,62,0
1,54,64,0
1,38,76,272
1,67,79,8
1,55,74,0
1,60,76,2
1,63,79,0
1,57,55,30
1,69,73,2
1,53,59,8
1,70,74,0
1,58,63,0
1,43,60,8
1,62,73,0
1,65,65,2
1,58,76,144
1,67,74,92
1,55,55,22
1,74,73,0
1,67,74,0
1,45,53,8
1,62,62,0
1,72,40,130
1,54,70,8
1,66,69,0
1,60,45,10
1,70,64,8
1,53,59,0
1,43,56,0
1,62,64,0
1,65,60,0
1,67,74,0
1,58,61,18
1,56,61,204
1,65,65,0
1,72,70,0
1,61,56,0
1,46,69,0
1,72,70,172
1,55,62,10
1,64,68,0
1,61,54,0
1,52,53,0
1,67,59,8
1,47,71,216
1,48,55,20
1,63,64,0
1,55,55,0
1,58,60,2
1,65,70,8
1,55,56,0
1,56,65,42
1,51,69,114
1,57,61,2
1,41,55,364
1,60,63,204
1,56,64,0
1,63,73,0
1,53,64,2
1,46,80,0
1,63,80,174
1,60,65,8
1,53,82,0
1,56,84,2
1,60,46,16
1,63,46,0
1,56,47,10
1,53,40,0
1,63,54,70
1,56,46,8
1,60,40,0
1,53,53,0
1,34,76,10
1,63,39,56
1,60,41,2
1,56,39,8
1,53,39,0
1,60,47,250
1,56,50,0
1,63,57,0
1,53,49,8
1,67,69,84
1,63,51,0
1,59,54,0
1,55,39,10
1,61,53,0
1,45,57,10
1,61,69,0
1,55,64,0
1,67,71,0
1,58,56,166
1,60,70,8
1,44,50,0
1,51,63,0
1,56,63,130
1,58,68,14
1,55,58,10
1,43,53,0
1,53,57,0
1,63,92,144
1,63,79,50
1,63,74,120
1,63,68,70
1,51,64,6
1,42,68,2
1,57,62,0
1,61,69,0
1,63,73,32
1,51,60,224
1,58,56,0
1,56,53,0
1,41,52,78
1,51,69,256
1,56,56,0
1,58,79,176
1,70,74,132
1,65,74,10
1,53,58,0
1,43,53,12
1,58,53,48
1,58,63,22
1,70,63,8
1,68,63,2
1,46,63,0
1,63,56,0
1,60,44,12
1,63,79,48
1,63,65,78
1,63,65,160
1,56,61,84
1,63,70,2
1,51,74,0
1,53,59,8
1,60,61,0
1,63,68,18
1,65,68,174
1,72,80,0
1,61,65,2
1,68,65,0
1,56,49,34
1,46,56,12
1,34,53,56
1,46,79,264
1,36,59,18
1,37,53,0
1,38,57,16
1,39,70,84
1,75,76,236
1,68,79,10
1,72,46,0
1,61,86,0
1,45,63,16
1,61,68,0
1,55,73,2
1,75,74,0
1,66,74,8
1,71,69,0
1,75,65,10
1,58,70,172
1,75,80,0
1,67,84,8
1,63,73,0
1,44,69,0
1,51,73,0
1,72,70,62
1,70,70,48
1,68,70,84
1,46,73,16
1,56,70,0
1,67,79,8
1,62,76,0
1,70,74,12
1,58,84,6
1,67,74,0
1,56,73,10
1,47,74,10
1,59,86,2
1,58,76,8
1,63,76,0
1,48,71,8
1,55,63,2
1,46,53,16
1,45,82,0
1,44,86,120
1,70,80,236
1,59,77,8
1,63,84,0
1,65,77,2
1,68,76,32
1,62,74,114
1,67,76,0
1,58,79,0
1,65,66,8
1,39,53,64
1,68,80,0
1,67,80,182
1,58,69,0
1,61,65,0
1,64,64,8
1,40,57,56
1,70,70,64
1,52,48,8
1,65,55,38
1,63,54,0
1,56,45,0
1,60,49,2
1,41,46,46
1,53,64,276
1,45,68,2
1,67,57,0
1,59,65,0
1,64,54,8
1,56,53,2
1,62,62,0
1,46,61,12
1,34,60,8
1,63,80,98
1,39,65,0
1,60,76,152
1,44,80,0
1,55,76,0
1,60,61,158
1,44,68,8
1,55,56,2
1,43,49,26
1,58,57,0
1,53,31,18
1,39,50,16
1,56,53,16
1,51,51,0
1,41,48,2
1,58,54,2
1,51,53,0
1,39,61,0
1,55,54,8
1,56,64,16
1,63,73,0
1,53,63,0
1,60,64,0
1,34,64,8
1,46,68,2
1,65,76,284
1,60,61,10
1,63,65,0
1,56,65,2
1,67,68,0
1,68,80,86
1,70,70,180
1,60,57,0
1,65,66,8
1,39,64,54
1,60,63,126
1,55,62,78
1,70,70,84
1,65,74,6
1,72,53,38
1,51,65,20
1,58,64,0
1,70,65,10
1,74,66,0
1,44,61,0
1,65,77,2
1,60,62,12
1,56,79,162
1,77,76,76
1,65,79,8
1,74,69,52
1,70,63,8
1,58,46,0
1,53,57,2
1,65,55,0
1,43,38,8
1,58,42,48
1,74,74,0
1,70,88,24
1,51,56,38
1,57,46,8
1,42,58,0
1,69,70,0
1,57,65,40
1,75,65,8
1,63,74,10
1,69,68,24
1,51,54,14
1,41,48,10
1,68,65,0
1,56,42,0
1,60,56,186
1,56,53,8
1,63,29,10
1,72,48,84
1,75,65,10
1,77,65,6
1,69,55,0
1,47,62,10
1,57,57,2
1,63,45,0
1,73,27,20
1,57,60,0
1,75,63,202
1,72,40,8
1,68,64,0
1,46,65,0
1,63,45,2
1,58,54,0
1,58,84,272
1,63,84,194
1,63,84,70
1,46,76,6
1,56,74,0
1,60,66,12
1,65,74,30
1,34,79,238
1,67,71,0
1,68,80,60
1,70,64,194
1,56,53,10
1,65,65,0
1,61,50,2
1,46,64,0
1,61,68,34
1,75,57,322
1,72,35,8
1,63,51,8
1,70,53,0
1,48,53,0
1,67,59,0
1,58,46,14
1,63,68,56
1,77,74,8
1,46,65,0
1,68,76,2
1,61,60,0
1,56,63,0
1,73,74,0
1,75,73,42
1,73,60,24
1,72,70,172
1,55,65,8
1,69,65,0
1,61,68,0
1,64,54,0
1,73,84,214
1,58,53,292
1,75,70,0
1,68,64,2
1,65,50,10
1,51,56,0
1,44,48,2
1,72,70,56
1,70,70,8
1,68,70,190
1,52,54,108
1,63,80,0
1,58,50,0
1,70,68,0
1,64,66,8
1,67,61,40
1,63,54,188
1,56,39,8
1,60,51,0
1,65,53,2
1,46,63,0
1,34,70,228
1,60,52,46
1,53,54,10
1,63,57,0
1,56,50,0
1,60,49,210
1,56,50,2
1,63,54,0
1,53,48,0
1,56,60,200
1,63,60,10
1,53,54,0
1,60,48,0
1,67,77,144
1,33,56,14
1,61,60,14
1,55,56,8
1,59,61,0
1,45,61,64
1,44,64,8
1,63,64,0
1,60,57,10
1,55,52,0
1,51,64,40
1,63,65,90
1,43,54,0
1,53,50,10
1,58,53,0
1,55,42,0
1,58,53,174
1,75,86,202
1,42,53,46
1,51,68,16
1,57,63,8
1,63,53,10
1,66,76,0
1,71,70,18
1,69,52,2
1,75,70,8
1,75,74,10
1,51,29,8
1,70,61,210
1,60,42,16
1,63,53,0
1,67,34,8
1,51,51,58
1,41,44,0
1,56,39,0
1,60,59,168
1,63,68,198
1,56,53,8
1,64,69,2
1,60,50,8
1,46,64,0
1,56,44,128
1,58,51,216
1,60,39,8
1,62,59,0
1,50,55,0
1,65,62,0
1,58,58,40
1,45,63,178
1,63,73,0
1,56,61,10
1,53,62,0
1,60,57,0
1,46,68,2
1,63,64,116
1,70,64,194
1,61,54,8
1,68,51,0
1,65,53,10
1,46,49,24
1,48,61,32
1,49,53,358
1,50,66,48
1,51,70,0
1,72,54,242
1,69,64,2
1,61,73,8
1,64,77,0
1,67,73,2
1,55,71,230
1,72,56,0
1,61,70,10
1,67,74,0
1,45,62,2
1,63,84,0
1,72,55,86
1,75,79,172
1,58,73,8
1,63,79,0
1,44,68,12
1,67,77,0
1,51,68,0
1,72,64,30
1,70,60,24
1,68,84,16
1,56,63,6
1,67,77,10
1,46,64,0
1,70,76,2
1,62,69,0
1,67,64,26
1,46,74,194
1,63,68,8
1,39,50,362
1,58,64,0
1,60,55,10
1,53,58,0
1,49,74,150
1,50,79,26
1,55,64,0
1,67,70,0
1,60,61,0
1,63,68,2
1,57,59,246
1,69,59,0
1,60,56,0
1,66,53,10
1,63,54,2
1,67,65,104
1,62,73,0
1,70,64,0
1,58,64,2
1,43,53,6
1,53,62,0
1,58,73,0
1,67,77,204
1,60,49,76
1,55,55,10
1,74,74,0
1,45,45,0
1,67,82,2
1,62,66,8
1,72,44,128
1,66,70,6
1,60,47,10
1,54,70,0
1,53,43,16
1,43,51,0
1,70,61,0
1,65,57,8
1,62,53,0
1,67,49,0
1,58,54,8
1,60,66,218
1,74,74,0
1,67,79,0
1,55,66,8
1,45,62,0
1,72,56,140
1,54,79,0
1,66,84,8
1,70,73,28
1,53,69,142
1,67,71,46
1,58,64,0
1,62,71,2
1,43,74,16
1,58,61,38
1,67,64,8
1,62,64,0
1,42,79,10
1,41,71,44
1,58,65,106
1,40,76,0
1,67,69,0
1,55,57,0
1,62,66,0
1,65,64,64
1,62,64,54
1,60,53,0
1,55,54,2
1,38,43,70
1,48,73,212
1,49,58,34
1,50,63,16
1,58,65,0
1,54,60,0
1,38,54,234
1,67,76,76
1,69,77,44
1,70,80,8
1,58,61,0
1,53,65,0
1,43,53,0
1,62,84,10
1,67,65,24
1,58,54,10
1,67,84,196
1,55,71,0
1,74,77,0
1,60,71,0
1,45,73,8
1,66,84,94
1,72,56,0
1,54,95,10
1,43,60,294
1,70,70,0
1,53,64,0
1,65,71,10
1,62,71,0
1,67,74,256
1,58,64,8
1,72,53,210
1,61,70,10
1,65,71,0
1,46,69,0
1,56,60,0
1,68,70,0
1,72,49,40
1,55,64,0
1,64,76,8
1,61,63,2
1,46,42,180
1,48,66,54
1,65,63,6
1,58,65,2
1,55,57,12
1,63,54,0
1,57,71,40
1,41,57,228
1,56,64,220
1,53,66,10
1,60,64,0
1,46,80,0
1,34,73,68
1,63,86,18
1,56,86,8
1,60,73,0
1,53,86,2
1,60,46,70
1,53,56,0
1,63,63,2
1,56,50,0
1,63,64,14
1,60,49,2
1,56,54,0
1,53,50,10
1,60,46,46
1,53,62,2
1,56,64,0
1,63,61,0
1,64,56,8
1,61,44,0
1,67,63,0
1,59,59,0
1,55,56,2
1,33,45,64
1,45,63,276
1,63,63,6
1,51,69,10
1,60,53,0
1,55,46,0
1,44,64,134
1,43,65,8
1,58,69,0
1,72,51,0
1,75,76,0
1,63,80,0
1,70,74,10
1,67,74,0
1,51,68,0
1,75,80,180
1,51,69,60
1,75,79,0
1,57,54,8
1,63,79,0
1,72,53,0
1,42,68,0
1,69,68,2
1,75,69,32
1,51,54,18
1,70,47,180
1,68,49,10
1,63,42,8
1,60,24,0
1,51,51,38
1,41,39,12
1,56,42,0
1,51,49,8
1,58,53,298
1,43,44,0
1,62,63,10
1,50,51,0
1,53,48,2
1,50,54,8
