track,note,velocity,time
1,35,122,4968
1,49,81,0
1,42,64,214
1,42,110,166
1,40,122,0
1,40,90,214
1,42,81,0
1,35,90,166
1,42,71,0
1,42,71,214
1,42,126,166
1,40,122,0
1,42,64,214
1,35,122,166
1,42,110,0
1,42,50,214
1,40,122,166
1,42,110,0
1,40,122,214
1,42,110,0
1,42,93,166
1,35,105,0
1,42,64,214
1,40,127,166
1,42,126,0
1,42,71,214
1,42,110,166
1,35,122,0
1,42,71,214
1,40,127,166
1,42,110,0
1,40,122,214
1,42,110,0
1,35,122,166
1,42,93,0
1,42,64,214
1,40,122,166
1,42,126,0
1,42,71,214
1,35,122,166
1,42,110,0
1,42,64,214
1,40,122,166
1,42,110,0
1,40,127,214
1,42,110,0
1,35,122,166
1,42,64,0
1,42,58,214
1,40,127,166
1,42,110,0
1,42,71,214
1,35,122,166
1,42,81,0
1,42,64,214
1,42,110,166
1,40,122,0
1,40,90,214
1,42,81,0
1,35,90,166
1,42,71,0
1,42,71,214
1,42,126,166
1,40,122,0
1,42,64,214
1,35,122,166
1,42,110,0
1,42,50,214
1,40,122,166
1,42,110,0
1,40,122,214
1,42,110,0
1,42,93,166
1,35,105,0
1,42,64,214
1,40,127,166
1,42,126,0
1,42,71,214
1,42,110,166
1,35,122,0
1,42,71,214
1,40,127,166
1,42,110,0
1,40,122,214
1,42,110,0
1,35,122,166
1,42,93,0
1,42,64,214
1,40,122,166
1,42,126,0
1,42,71,214
1,35,122,166
1,42,110,0
1,42,64,214
1,40,122,166
1,42,110,0
1,40,127,214
1,42,110,0
1,35,122,166
1,42,64,0
1,42,58,214
1,40,127,166
1,42,110,0
1,42,71,214
1,35,122,166
1,42,81,0
1,42,64,214
1,42,110,166
1,40,122,0
1,40,90,214
1,42,81,0
1,35,90,166
1,42,71,0
1,42,71,214
1,42,126,166
1,40,122,0
1,42,64,214
1,35,122,166
1,42,110,0
1,42,50,214
1,40,122,166
1,42,110,0
1,40,122,214
1,42,110,0
1,42,93,166
1,35,105,0
1,42,64,214
1,40,127,166
1,42,126,0
1,42,71,214
1,42,110,166
1,35,122,0
1,42,71,214
1,40,127,166
1,42,110,0
1,40,122,214
1,42,110,0
1,35,122,166
1,42,93,0
1,42,64,214
1,40,122,166
1,42,126,0
1,42,71,214
1,35,122,166
1,42,110,0
1,42,64,214
1,40,122,166
1,42,110,0
1,40,127,214
1,42,110,0
1,35,122,166
1,42,64,0
1,42,58,214
1,40,127,166
1,42,110,0
1,42,71,214
1,35,122,166
1,42,81,0
1,42,64,214
1,42,110,166
1,40,122,0
1,40,90,214
1,42,81,0
1,35,90,166
1,42,71,0
1,42,71,214
1,42,126,166
1,40,122,0
1,42,64,214
1,35,122,166
1,42,110,0
1,42,50,214
1,40,122,166
1,42,110,0
1,40,122,214
1,42,110,0
1,42,93,166
1,35,105,0
1,42,64,214
1,40,127,166
1,42,126,0
1,42,71,214
1,42,110,166
1,35,122,0
1,42,71,214
1,40,127,166
1,42,110,0
1,40,122,214
1,42,110,0
1,35,122,166
1,42,93,0
1,42,64,214
1,40,122,166
1,42,126,0
1,42,71,214
1,42,110,166
1,35,122,0
1,40,57,254
1,42,71,0
1,42,110,126
1,40,122,0
1,42,58,254
1,42,110,126
1,40,62,254
1,42,93,0
1,40,127,126
1,42,110,0
1,42,64,254
1,40,78,0
1,35,122,126
1,49,81,0
1,42,64,214
1,42,110,166
1,40,122,0
1,40,90,214
1,42,81,0
1,35,90,166
1,42,71,0
1,42,71,214
1,42,126,166
1,40,122,0
1,42,64,214
1,35,122,166
1,42,110,0
1,42,50,214
1,40,122,166
1,42,110,0
1,40,122,214
1,42,110,0
1,42,93,166
1,35,105,0
1,42,64,214
1,40,127,166
1,42,126,0
1,42,71,214
1,42,110,166
1,35,122,0
1,42,71,214
1,40,127,166
1,42,110,0
1,40,122,214
1,42,110,0
1,35,122,166
1,42,93,0
1,42,64,214
1,40,122,166
1,42,126,0
1,42,71,214
1,35,122,166
1,42,110,0
1,42,64,214
1,40,122,166
1,42,110,0
1,40,127,214
1,42,110,0
1,35,122,166
1,42,64,0
1,42,58,214
1,40,127,166
1,42,110,0
1,42,71,214
1,35,122,166
1,42,81,0
1,42,64,214
1,42,110,166
1,40,122,0
1,40,90,214
1,42,81,0
1,35,90,166
1,42,71,0
1,42,71,214
1,42,126,166
1,40,122,0
1,42,64,214
1,35,122,166
1,42,110,0
1,42,50,214
1,40,122,166
1,42,110,0
1,40,122,214
1,42,110,0
1,42,93,166
1,35,105,0
1,42,64,214
1,40,127,166
1,42,126,0
1,42,71,214
1,42,110,166
1,35,122,0
1,42,71,214
1,40,127,166
1,42,110,0
1,40,122,214
1,42,110,0
1,35,122,166
1,42,93,0
1,42,64,214
1,40,122,166
1,42,126,0
1,42,71,214
1,35,122,166
1,42,110,0
1,42,64,214
1,40,122,166
1,42,110,0
1,40,127,214
1,42,110,0
1,35,122,166
1,42,64,0
1,42,58,214
1,40,127,166
1,42,110,0
1,42,71,214
1,35,122,166
1,42,81,0
1,42,64,214
1,42,110,166
1,40,122,0
1,40,90,214
1,42,81,0
1,35,90,166
1,42,71,0
1,42,71,214
1,42,126,166
1,40,122,0
1,42,64,214
1,35,122,166
1,42,110,0
1,42,50,214
1,40,122,166
1,42,110,0
1,40,122,214
1,42,110,0
1,42,93,166
1,35,105,0
1,42,64,214
1,40,127,166
1,42,126,0
1,42,71,214
1,42,110,166
1,35,122,0
1,42,71,214
1,40,127,166
1,42,110,0
1,40,122,214
1,42,110,0
1,35,122,166
1,42,93,0
1,42,64,214
1,40,122,166
1,42,126,0
1,42,71,214
1,35,122,166
1,42,110,0
1,42,64,214
1,40,122,166
1,42,110,0
1,40,70,214
1,42,70,0
1,40,83,58
1,40,92,42
1,35,105,62
1,40,67,222
1,40,82,58
1,40,93,42
1,35,100,54
1,40,97,222
1,40,108,58
1,40,116,42
1,35,120,54
1,49,120,0
1,42,64,214
1,42,110,166
1,40,122,0
1,40,90,214
1,42,81,0
1,35,90,166
1,42,71,0
1,42,71,214
1,42,126,166
1,40,122,0
1,42,64,214
1,35,122,166
1,42,110,0
1,42,50,214
1,40,122,166
1,42,110,0
1,40,122,214
1,42,110,0
1,42,93,166
1,35,105,0
1,42,64,214
1,40,127,166
1,42,126,0
1,42,71,214
1,42,110,166
1,35,122,0
1,42,71,214
1,40,127,166
1,42,110,0
1,40,122,214
1,42,110,0
1,35,122,166
1,42,93,0
1,42,64,214
1,40,122,166
1,42,126,0
1,42,71,214
1,42,110,166
1,35,122,0
1,40,57,254
1,42,71,0
1,42,110,126
1,40,122,0
1,42,58,254
1,42,110,126
1,40,62,254
1,42,93,0
1,40,127,126
1,42,110,0
1,42,64,254
1,40,78,0
1,35,122,126
1,49,81,0
1,42,64,214
1,42,110,166
1,40,122,0
1,40,90,214
1,42,81,0
1,35,90,166
1,42,71,0
1,42,71,214
1,42,126,166
1,40,122,0
1,42,64,214
1,35,122,166
1,42,110,0
1,42,50,214
1,40,122,166
1,42,110,0
1,40,122,214
1,42,110,0
1,42,93,166
1,35,105,0
1,42,64,214
1,40,127,166
1,42,126,0
1,42,71,214
1,42,110,166
1,35,122,0
1,42,71,214
1,40,127,166
1,42,110,0
1,40,122,214
1,42,110,0
1,35,122,166
1,42,93,0
1,42,64,214
1,40,122,166
1,42,126,0
1,42,71,214
1,35,122,166
1,42,110,0
1,42,64,214
1,40,122,166
1,42,110,0
1,40,127,214
1,42,110,0
1,35,122,166
1,42,64,0
1,42,58,214
1,40,127,166
1,42,110,0
1,42,71,214
1,35,122,166
1,42,81,0
1,42,64,214
1,42,110,166
1,40,122,0
1,40,90,214
1,42,81,0
1,35,90,166
1,42,71,0
1,42,71,214
1,42,126,166
1,40,122,0
1,42,64,214
1,35,122,166
1,42,110,0
1,42,50,214
1,40,122,166
1,42,110,0
1,40,122,214
1,42,110,0
1,42,93,166
1,35,105,0
1,42,64,214
1,40,127,166
1,42,126,0
1,42,71,214
1,35,127,166
1,42,126,0
1,42,71,382
1,42,54,382
1,42,64,382
1,42,64,382
1,42,71,382
1,42,81,382
1,40,122,254
1,35,122,126
1,40,127,0
1,40,122,254
1,35,122,126
1,49,81,0
1,42,64,214
1,42,110,166
1,40,122,0
1,40,90,214
1,42,81,0
1,35,90,166
1,42,71,0
1,42,71,214
1,42,126,166
1,40,122,0
1,42,64,214
1,35,122,166
1,42,110,0
1,42,50,214
1,40,122,166
1,42,110,0
1,40,122,214
1,42,110,0
1,42,93,166
1,35,105,0
1,42,64,214
1,40,127,166
1,42,126,0
1,42,71,214
1,42,110,166
1,35,122,0
1,42,71,214
1,40,127,166
1,42,110,0
1,40,122,214
1,42,110,0
1,35,122,166
1,42,93,0
1,42,64,214
1,40,122,166
1,42,126,0
1,42,71,214
1,35,122,166
1,42,110,0
1,42,64,214
1,40,122,166
1,42,110,0
1,40,127,214
1,42,110,0
1,35,122,166
1,42,64,0
1,42,58,214
1,40,127,166
1,42,110,0
1,42,71,214
1,35,122,166
1,49,81,0
1,42,64,214
1,42,110,166
1,40,122,0
1,40,90,214
1,42,81,0
1,35,90,166
1,42,71,0
1,42,71,214
1,42,126,166
1,40,122,0
1,42,64,214
1,35,122,166
1,42,110,0
1,42,50,214
1,40,122,166
1,42,110,0
1,40,122,214
1,42,110,0
1,42,93,166
1,35,105,0
1,42,64,214
1,40,127,166
1,42,126,0
1,42,71,214
1,42,110,166
1,35,122,0
1,42,71,214
1,40,127,166
1,42,110,0
1,40,122,214
1,42,110,0
1,35,122,166
1,42,93,0
1,42,64,214
1,40,122,166
1,42,126,0
1,42,71,214
1,35,122,166
1,42,110,0
1,42,64,214
1,40,122,166
1,42,110,0
1,40,127,214
1,42,110,0
1,35,122,166
1,42,64,0
1,42,58,214
1,40,127,166
1,42,110,0
1,42,71,214
1,35,122,166
1,42,81,0
1,42,64,214
1,42,110,166
1,40,122,0
1,40,90,214
1,42,81,0
1,35,90,166
1,42,71,0
1,42,71,214
1,42,126,166
1,40,122,0
1,42,64,214
1,35,122,166
1,42,110,0
1,42,50,214
1,40,122,166
1,42,110,0
1,40,122,214
1,42,110,0
1,42,93,166
1,35,105,0
1,42,64,214
1,40,127,166
1,42,126,0
1,42,71,214
1,42,110,166
1,35,122,0
1,42,71,214
1,40,127,166
1,42,110,0
1,40,122,214
1,42,110,0
1,35,122,166
1,42,93,0
1,42,64,214
1,40,122,166
1,42,126,0
1,42,71,214
1,35,122,166
1,42,110,0
1,42,64,214
1,40,122,166
1,42,110,0
1,40,127,214
1,42,110,0
1,35,122,166
1,42,64,0
1,42,58,214
1,40,127,166
1,42,110,0
1,42,71,214
1,35,122,166
1,42,81,0
1,42,64,214
1,42,110,166
1,40,122,0
1,40,90,214
1,42,81,0
1,35,90,166
1,42,71,0
1,42,71,214
1,42,126,166
1,40,122,0
1,42,64,214
1,35,122,166
1,42,110,0
1,42,50,214
1,40,122,166
1,42,110,0
1,40,122,214
1,42,110,0
1,42,93,166
1,35,105,0
1,42,64,214
1,40,127,166
1,42,126,0
1,42,71,214
1,42,110,166
1,35,122,0
1,42,71,214
1,40,127,166
1,42,110,0
1,40,122,214
1,42,110,0
1,35,122,166
1,42,93,0
1,42,64,214
1,40,122,166
1,42,126,0
1,42,71,214
1,35,122,166
1,42,110,0
1,42,64,214
1,40,122,166
1,42,110,0
1,40,70,214
1,42,70,0
1,40,83,58
1,40,92,42
1,35,105,62
1,40,67,222
1,40,82,58
1,40,93,42
1,35,100,54
1,40,97,222
1,40,108,58
1,40,116,42
1,35,120,54
1,49,120,0
1,42,64,214
1,42,110,166
1,40,122,0
1,40,90,214
1,42,81,0
1,35,90,166
1,42,71,0
1,42,71,214
1,42,126,166
1,40,122,0
1,42,64,214
1,35,122,166
1,42,110,0
1,42,50,214
1,40,122,166
1,42,110,0
1,40,122,214
1,42,110,0
1,42,93,166
1,35,105,0
1,42,64,214
1,40,127,166
1,42,126,0
1,42,71,214
1,42,110,166
1,35,122,0
1,42,71,214
1,40,127,166
1,42,110,0
1,40,122,214
1,42,110,0
1,35,122,166
1,42,93,0
1,42,64,214
1,40,122,166
1,42,126,0
1,42,71,214
1,42,110,166
1,35,122,0
1,40,57,254
1,42,71,0
1,42,110,126
1,40,122,0
1,42,58,254
1,42,110,126
1,40,62,254
1,42,93,0
1,40,127,126
1,42,110,0
1,42,64,254
1,40,78,0
1,35,122,126
1,49,81,0
1,42,64,214
1,42,110,166
1,40,122,0
1,40,90,214
1,42,81,0
1,35,90,166
1,42,71,0
1,42,71,214
1,42,126,166
1,40,122,0
1,42,64,214
1,35,122,166
1,42,110,0
1,42,50,214
1,40,122,166
1,42,110,0
1,40,122,214
1,42,110,0
1,42,93,166
1,35,105,0
1,42,64,214
1,40,127,166
1,42,126,0
1,42,71,214
1,42,110,166
1,35,122,0
1,42,71,214
1,40,127,166
1,42,110,0
1,40,122,214
1,42,110,0
1,35,122,166
1,42,93,0
1,42,64,214
1,40,122,166
1,42,126,0
1,42,71,214
1,35,122,166
1,42,110,0
1,42,64,214
1,40,122,166
1,42,110,0
1,40,127,214
1,42,110,0
1,35,122,166
1,42,64,0
1,42,58,214
1,40,127,166
1,42,110,0
1,42,71,214
1,35,122,166
1,42,81,0
1,42,64,214
1,42,110,166
1,40,122,0
1,40,90,214
1,42,81,0
1,35,90,166
1,42,71,0
1,42,71,214
1,42,126,166
1,40,122,0
1,42,64,214
1,35,122,166
1,42,110,0
1,42,50,214
1,40,122,166
1,42,110,0
1,40,122,214
1,42,110,0
1,42,93,166
1,35,105,0
1,42,64,214
1,40,127,166
1,42,126,0
1,42,71,214
1,35,127,166
1,42,126,0
1,42,71,382
1,42,54,382
1,42,64,382
1,42,64,382
1,42,71,382
1,42,81,382
1,40,122,254
1,35,122,126
1,40,127,0
1,40,122,254
1,35,122,126
1,49,81,0
1,42,64,214
1,42,110,166
1,40,122,0
1,40,90,214
1,42,81,0
1,35,90,166
1,42,71,0
1,42,71,214
1,42,126,166
1,40,122,0
1,42,64,214
1,35,122,166
1,42,110,0
1,42,50,214
1,40,122,166
1,42,110,0
1,40,122,214
1,42,110,0
1,42,93,166
1,35,105,0
1,42,64,214
1,40,127,166
1,42,126,0
1,42,71,214
1,42,110,166
1,35,122,0
1,42,71,214
1,40,127,166
1,42,110,0
1,40,122,214
1,42,110,0
1,35,122,166
1,42,93,0
1,42,64,214
1,40,122,166
1,42,126,0
1,42,71,214
1,35,122,166
1,42,110,0
1,42,64,214
1,40,122,166
1,42,110,0
1,40,127,214
1,42,110,0
1,35,122,166
1,42,64,0
1,42,58,214
1,40,127,166
1,42,110,0
1,42,71,214
1,35,122,166
1,49,81,0
1,42,64,214
1,42,110,166
1,40,122,0
1,40,90,214
1,42,81,0
1,35,90,166
1,42,71,0
1,42,71,214
1,42,126,166
1,40,122,0
1,42,64,214
1,35,122,166
1,42,110,0
1,42,50,214
1,40,122,166
1,42,110,0
1,40,122,214
1,42,110,0
1,42,93,166
1,35,105,0
1,42,64,214
1,40,127,166
1,42,126,0
1,42,71,214
1,42,110,166
1,35,122,0
1,42,71,214
1,40,127,166
1,42,110,0
1,40,122,214
1,42,110,0
1,35,122,166
1,42,93,0
1,42,64,214
1,40,122,166
1,42,126,0
1,42,71,214
1,35,122,166
1,42,110,0
1,42,64,214
1,40,122,166
1,42,110,0
1,40,127,214
1,42,110,0
1,35,122,166
1,42,64,0
1,42,58,214
1,40,127,166
1,42,110,0
1,42,71,214
1,35,122,166
1,42,81,0
1,42,64,214
1,42,110,166
1,40,122,0
1,40,90,214
1,42,81,0
1,35,90,166
1,42,71,0
1,42,71,214
1,42,126,166
1,40,122,0
1,42,64,214
1,35,122,166
1,42,110,0
1,42,50,214
1,40,122,166
1,42,110,0
1,40,122,214
1,42,110,0
1,42,93,166
1,35,105,0
1,42,64,214
1,40,127,166
1,42,126,0
1,42,71,214
1,42,110,166
1,35,122,0
1,42,71,214
