track,note,velocity,time
1,36,127,9226
1,40,127,0
1,31,127,372
1,33,127,0
1,36,127,16
1,40,127,2
1,31,127,20
1,33,127,20
1,36,127,2
1,40,127,0
1,31,127,20
1,33,127,2
1,36,127,22
1,33,127,0
1,31,127,374
1,40,127,20
1,29,127,18
1,32,127,2
1,33,127,4
1,36,127,16
1,39,127,20
1,38,127,2
1,36,127,18
1,33,127,0
1,36,127,20
1,34,127,0
1,33,127,2
1,31,127,2
1,36,127,0
1,34,127,370
1,33,127,16
1,31,127,368
1,31,127,18
1,35,127,6
1,38,127,0
1,37,127,14
1,36,127,0
1,34,127,0
1,33,127,6
1,32,127,0
1,36,127,0
1,34,127,0
1,33,127,18
1,31,127,16
1,31,127,18
1,29,127,382
1,40,127,4
1,38,127,0
1,36,127,18
1,40,127,364
1,31,127,2
1,33,127,18
1,36,127,8
1,40,127,0
1,31,127,14
1,33,127,20
1,36,127,22
1,40,127,2
1,31,127,16
1,33,127,18
1,36,127,16
1,34,127,0
1,33,127,0
1,32,127,18
1,29,127,0
1,33,127,0
1,36,127,2
1,39,127,2
1,38,127,2
1,41,127,2
1,36,127,18
1,33,127,20
1,36,127,0
1,34,127,380
1,31,127,0
1,39,127,16
1,40,127,22
1,36,127,362
1,34,127,0
1,33,127,16
1,32,127,256
1,31,127,16
1,35,127,0
1,38,127,16
1,31,127,22
1,30,127,236
1,29,127,18
1,33,127,388
1,36,127,0
1,34,127,0
1,33,127,258
1,31,127,16
1,30,127,368
1,29,127,16
1,40,127,0
1,39,127,238
1,31,127,22
1,33,127,2
1,34,127,0
1,35,127,16
1,36,127,36
1,34,127,364
1,33,127,0
1,31,127,16
1,29,127,4
1,40,127,0
1,39,127,4
1,38,127,16
1,37,127,244
1,36,127,0
1,36,127,6
1,40,127,292
1,31,127,0
1,33,127,18
1,40,127,18
1,38,127,0
1,36,127,22
1,33,127,0
1,31,127,254
1,39,127,22
1,33,127,0
1,32,127,0
1,29,127,0
1,39,127,24
1,38,127,2
1,29,127,0
1,33,127,22
1,29,127,80
1,36,127,18
1,34,127,0
1,33,127,18
1,32,127,2
1,35,127,240
1,36,127,18
1,34,127,2
1,33,127,4
1,32,127,2
1,31,127,16
1,35,127,2
1,38,127,4
1,31,127,0
1,29,127,22
1,33,127,0
1,36,127,16
1,33,127,18
1,36,127,0
1,34,127,2
1,33,127,0
1,32,127,16
1,31,127,0
1,29,127,0
1,40,127,2
1,38,127,22
1,36,127,2
1,67,111,0
1,76,103,0
1,34,127,108
1,76,107,16
1,67,107,0
1,33,127,26
1,31,127,0
1,76,103,0
1,67,87,0
1,67,103,110
1,76,99,2
1,36,127,2
1,34,127,338
1,33,127,18
1,31,127,2
1,76,111,4
1,36,127,18
1,67,107,0
1,39,127,146
1,40,127,0
1,76,111,0
1,67,107,0
1,31,127,2
1,76,99,0
1,67,99,0
1,76,99,96
1,67,103,0
1,36,127,6
1,34,127,2
1,33,127,368
1,31,127,20
1,67,107,0
1,75,111,4
1,29,127,18
1,32,127,160
1,33,127,16
1,75,111,0
1,67,103,0
1,67,91,62
1,36,127,0
1,75,103,0
1,67,95,78
1,75,107,20
1,39,127,6
1,29,127,0
1,33,127,2
1,32,127,18
1,76,107,0
1,67,107,0
1,31,127,30
1,29,127,182
1,76,107,0
1,67,103,0
1,40,127,18
1,67,87,48
1,38,127,16
1,76,99,0
1,76,115,96
1,67,107,0
1,36,127,18
1,40,127,356
1,31,127,6
1,36,127,2
1,74,111,6
1,79,103,0
1,31,127,14
1,29,127,364
1,38,127,2
1,29,127,0
1,73,107,0
1,78,91,0
1,77,107,6
1,29,127,16
1,72,91,0
1,39,127,364
1,38,127,0
1,37,127,18
1,70,111,0
1,75,99,0
1,67,95,14
1,36,127,2
1,72,107,0
1,40,127,322
1,31,127,18
1,33,127,22
1,31,127,0
1,35,127,0
1,38,127,2
1,29,127,2
1,36,127,0
1,40,127,0
1,31,127,0
1,33,127,0
1,36,127,0
1,40,127,0
1,31,127,0
1,33,127,2
1,36,127,0
1,40,127,0
1,31,127,0
1,33,127,0
1,36,127,24
1,34,127,2
1,33,127,18
1,31,127,2
1,29,127,2
1,33,127,0
1,36,127,16
1,39,127,16
1,29,127,18
1,33,127,366
1,29,127,18
1,33,127,368
1,29,127,256
1,36,127,24
1,34,127,0
1,33,127,16
1,31,127,2
1,36,127,6
1,34,127,2
1,33,127,16
1,31,127,4
1,31,127,0
1,35,127,0
1,38,127,0
1,31,127,4
1,30,127,252
1,29,127,30
1,33,127,370
1,36,127,4
1,29,127,4
1,33,127,236
1,36,127,0
1,40,127,0
1,31,127,16
1,33,127,14
1,36,127,20
1,33,127,0
1,31,127,18
1,40,127,18
1,36,127,20
1,40,127,2
1,31,127,22
1,33,127,16
1,36,127,22
1,40,127,0
1,31,127,20
1,33,127,4
1,36,127,4
1,40,127,0
1,31,127,16
1,33,127,0
1,36,127,20
1,34,127,0
1,33,127,0
1,32,127,14
1,29,127,0
1,33,127,2
1,36,127,22
1,39,127,0
1,38,127,20
1,41,127,366
1,36,127,16
1,33,127,20
1,36,127,40
1,34,127,342
1,31,127,18
1,39,127,18
1,40,127,20
1,36,127,0
1,34,127,368
1,33,127,16
1,32,127,258
1,31,127,18
1,35,127,382
1,38,127,0
1,31,127,2
1,30,127,258
1,29,127,16
1,33,127,388
1,36,127,4
1,34,127,2
1,33,127,254
1,31,127,14
1,30,127,0
1,29,127,14
1,40,127,16
1,39,127,256
1,31,127,112
1,33,127,2
1,34,127,16
1,35,127,0
1,76,103,0
1,67,107,0
1,36,127,22
1,40,127,0
1,31,127,16
1,76,103,0
1,67,103,0
1,67,95,64
1,76,83,2
1,33,127,0
1,76,99,96
1,67,67,0
1,36,127,0
1,33,127,364
1,31,127,0
1,40,127,18
1,67,107,16
1,36,127,2
1,76,103,0
1,40,127,0
1,67,103,370
1,76,107,0
1,31,127,6
1,67,95,2
1,76,91,4
1,33,127,10
1,67,99,80
1,76,103,4
1,34,127,16
1,33,127,346
1,31,127,0
1,40,127,16
1,67,107,2
1,75,111,2
1,29,127,12
1,33,127,158
1,67,99,366
1,36,127,2
1,75,103,0
1,75,95,94
1,67,99,0
1,29,127,2
1,75,95,126
1,67,87,0
1,39,127,4
1,29,127,336
1,32,127,2
1,33,127,18
1,36,127,18
1,67,103,0
1,76,107,0
1,34,127,160
1,33,127,0
1,76,107,0
1,67,107,0
1,67,103,4
1,31,127,14
1,76,103,0
1,67,103,80
1,76,99,2
1,40,127,0
1,31,127,2
1,40,127,0
1,39,127,18
1,79,99,2
1,74,107,0
1,38,127,30
1,31,127,2
1,35,127,18
1,38,127,4
1,72,105,18
1,29,127,2
1,77,51,0
1,32,127,350
1,33,127,0
1,36,127,6
1,67,111,18
1,36,127,12
1,34,127,354
1,33,127,16
1,32,127,16
1,31,127,16
1,29,127,2
1,40,127,18
1,39,127,372
1,76,107,16
1,67,99,0
1,36,127,18
1,67,103,368
1,76,107,16
1,36,127,2
1,76,103,68
1,67,103,0
1,67,95,78
1,76,103,2
1,36,127,16
1,67,107,1280
1,76,111,2
1,36,127,6
1,76,103,368
1,67,99,0
1,36,127,20
1,67,95,4
1,76,103,16
1,67,103,80
1,36,127,2
1,76,103,0
1,29,127,1296
1,75,103,0
1,67,103,0
1,67,103,384
1,75,111,2
1,29,127,2
1,75,107,0
1,67,99,0
1,67,103,94
1,75,107,2
1,29,127,14
1,36,127,1280
1,67,107,0
1,76,111,0
1,36,127,368
1,76,107,0
1,67,103,0
1,67,75,78
1,76,99,4
1,67,107,98
1,36,127,2
1,76,111,0
1,83,95,1298
1,31,127,2
1,74,91,0
1,81,47,68
1,72,59,0
1,71,71,2
1,29,127,4
1,67,103,32
1,76,35,2
1,36,127,4
1,36,127,192
1,76,111,0
1,67,103,0
1,34,127,2
1,33,127,0
1,76,103,0
1,67,99,0
1,67,99,2
1,76,103,2
1,31,127,4
1,76,91,92
1,67,91,0
1,36,127,2
1,34,127,2
1,33,127,18
1,31,127,18
1,67,103,2
1,76,107,2
1,36,127,14
1,39,127,166
1,67,99,0
1,76,107,0
1,40,127,20
1,67,71,52
1,31,127,0
1,76,103,0
1,76,103,98
1,67,103,0
1,36,127,0
1,34,127,6
1,33,127,2
1,31,127,38
1,67,107,4
1,75,111,2
1,29,127,30
1,32,127,6
1,67,103,0
1,75,111,6
1,33,127,16
1,67,91,66
1,75,99,2
1,36,127,4
1,75,103,130
1,67,103,0
1,39,127,2
1,29,127,0
1,33,127,16
1,32,127,20
1,67,107,6
1,76,111,0
1,31,127,12
1,29,127,174
1,67,107,4
1,76,103,2
1,40,127,4
1,67,91,70
1,38,127,0
1,76,99,0
1,76,103,110
1,67,107,16
1,36,127,2
1,40,127,2
1,31,127,0
1,36,127,4
1,79,99,0
1,74,111,6
1,31,127,14
1,35,127,372
1,38,127,12
1,31,127,14
1,30,127,0
1,72,111,100
1,77,67,0
1,29,127,46
1,36,127,4228
1,39,127,994
1,40,127,158
1,31,127,162
1,33,127,16
1,34,127,174
1,36,127,16
1,38,127,32
1,39,127,18
1,40,127,142
1,43,127,130
1,45,127,192
1,46,127,34
1,48,127,50
1,45,127,334
1,43,127,98
1,40,127,48
1,39,127,208
1,38,127,16
1,36,127,270
1,34,127,224
1,33,127,256
1,31,127,32
1,39,127,80
1,40,127,16
1,36,127,336
1,82,111,64
1,79,115,0
2,72,127,9226
2,84,127,0
2,55,127,2418
2,43,127,2
2,57,127,34
2,45,127,2
2,48,127,48
2,60,127,2
2,72,127,18
2,84,127,16
2,43,127,2398
2,55,127,16
2,45,127,48
2,57,127,0
2,47,127,32
2,48,127,0
2,60,127,0
2,67,127,146
2,55,127,0
2,67,127,224
2,55,127,0
2,67,127,224
2,55,127,0
2,75,127,402
2,63,127,0
2,76,127,0
2,64,127,20
2,75,127,128
2,63,127,0
2,76,127,18
2,64,127,18
2,63,127,118
2,75,127,2
2,76,127,16
2,64,127,22
2,75,127,94
2,63,127,0
2,64,127,208
2,76,127,0
2,60,127,14
2,72,127,0
2,72,127,2928
2,84,127,0
2,75,127,5482
2,76,127,18
2,84,127,384
2,72,127,0
2,79,127,2382
2,84,127,450
2,72,127,0
2,70,127,3216
2,58,127,0
2,71,127,128
2,59,127,0
2,55,127,36
2,67,127,0
2,56,127,178
2,68,127,16
2,69,127,132
2,57,127,0
2,65,127,64
2,53,127,0
2,60,127,16
2,72,127,0
2,84,127,2882
2,72,127,4
2,84,127,5490
2,72,127,16
2,72,127,372
2,84,127,0
2,55,127,6018
2,67,127,12
2,53,127,20
2,65,127,2
2,60,127,272
2,72,127,16
2,60,127,226
2,72,127,0
2,69,127,526
2,57,127,0
2,67,127,48
2,55,127,0
2,72,127,290
2,60,127,4
2,60,127,274
2,72,127,16
2,57,127,520
2,69,127,0
2,67,127,16
2,55,127,0
2,60,127,34
2,72,127,0
2,72,127,176
2,60,127,0
2,72,127,192
2,60,127,0
2,72,127,730
2,60,127,14
2,60,127,224
2,72,127,2
2,69,127,146
2,57,127,0
2,55,127,18
2,67,127,2
2,60,127,38
2,72,127,0
2,72,127,144
2,60,127,2
2,72,127,162
2,60,127,0
2,72,127,802
2,60,127,0
2,72,127,212
2,60,127,0
2,69,127,526
2,57,127,0
2,55,127,34
2,67,127,2
2,72,127,54
2,60,127,0
2,72,127,174
2,60,127,0
2,60,127,176
2,72,127,0
2,72,127,798
2,60,127,18
2,60,127,208
2,72,127,20
2,69,127,512
2,57,127,0
2,55,127,16
2,67,127,18
2,60,127,52
2,72,127,0
2,60,127,162
2,72,127,2
2,72,127,174
2,60,127,0
2,72,127,864
2,60,127,2
2,60,127,224
2,72,127,2
2,71,127,0
2,69,127,484
2,57,127,0
2,67,127,34
2,67,127,80
2,55,127,0
2,68,127,1132
2,54,127,0
2,69,127,34
2,53,127,0
2,72,127,350
2,60,127,0
2,60,127,240
2,71,127,2
2,72,127,4
2,57,127,366
2,69,127,2
2,67,127,16
2,55,127,0
2,60,127,288
2,72,127,0
2,72,127,228
2,60,127,0
2,69,127,514
2,57,127,0
2,55,127,2
2,67,127,18
2,72,127,18
2,60,127,0
2,72,127,18238
2,84,127,0
2,75,127,5472
2,76,127,14
2,84,127,384
2,72,127,0
2,79,127,2368
2,84,127,454
2,72,127,0
2,70,127,3216
2,58,127,0
2,71,127,130
2,59,127,0
2,67,127,36
2,55,127,12
2,56,127,190
2,68,127,4
2,69,127,124
2,57,127,2
2,65,127,48
2,53,127,0
2,60,127,14
2,72,127,2
2,84,127,2880
2,72,127,22
2,60,127,0
2,72,127,5970
2,60,127,0
2,84,127,0
2,55,127,5984
2,79,127,0
2,67,127,0
2,72,127,2884
2,84,127,0
2,60,127,0
2,60,127,2866
2,48,127,0
2,43,127,926
2,53,127,20
2,55,127,2
2,45,127,0
2,57,127,0
2,48,127,212
2,60,127,2
2,43,127,994
2,55,127,4
2,57,127,32
2,45,127,0
2,48,127,270
2,60,127,0
2,55,127,864
2,43,127,2
2,45,127,50
2,57,127,2
2,60,127,270
2,48,127,0
2,55,127,896
2,43,127,0
2,57,127,2
2,45,127,0
2,62,127,292
2,50,127,0
2,60,127,38
2,48,127,2
2,55,127,34
2,43,127,0
2,45,127,18
2,57,127,12
2,60,127,260
2,48,127,2
2,67,127,354
2,72,127,0
2,70,127,0
2,60,127,6
2,60,127,34
2,72,127,0
2,72,127,180
2,60,127,0
2,72,127,192
2,60,127,0
2,60,127,740
2,72,127,0
2,60,127,206
2,72,127,16
2,69,127,162
2,57,127,0
2,55,127,18
2,67,127,2
2,60,127,34
2,72,127,0
2,72,127,146
2,60,127,2
2,60,127,144
2,72,127,0
2,72,127,802
2,60,127,0
2,72,127,208
2,60,127,0
2,69,127,530
2,57,127,0
2,67,127,32
2,55,127,0
2,72,127,52
2,60,127,0
2,72,127,176
2,60,127,0
2,72,127,176
2,60,127,18
2,72,127,800
2,60,127,0
2,72,127,224
2,60,127,0
2,57,127,518
2,69,127,0
2,67,127,32
2,55,127,0
2,72,127,50
2,60,127,0
2,72,127,160
2,60,127,0
2,60,127,182
2,72,127,2
2,72,127,852
2,60,127,16
2,71,127,238
2,72,127,0
2,60,127,0
2,57,127,494
2,69,127,2
2,67,127,34
2,55,127,82
2,67,127,30
2,79,127,60
2,72,127,0
2,53,127,20
2,75,127,0
2,60,127,4324
2,48,127,14
2,72,127,1072
2,79,127,16
2,60,127,2
2,82,127,0
2,48,127,30
3,36,115,3082
3,55,71,80
3,48,79,0
3,52,103,18
3,40,115,32
3,55,71,46
3,52,91,0
3,48,87,0
3,43,115,34
3,48,91,30
3,52,91,2
3,55,71,0
3,45,107,50
3,48,67,48
3,52,95,2
3,55,55,14
3,43,111,64
3,52,99,62
3,48,95,0
3,55,63,14
3,45,111,30
3,52,95,34
3,48,71,0
3,55,67,14
3,43,111,46
3,48,71,0
3,52,95,0
3,55,63,16
3,45,103,62
3,48,115,240
3,52,115,16
3,55,115,2
3,36,99,2
3,52,87,34
3,48,79,16
3,55,71,0
3,40,115,46
3,48,79,64
3,52,99,16
3,55,71,2
3,43,103,34
3,48,67,64
3,55,67,2
3,52,87,0
3,45,107,62
3,55,71,46
3,48,75,18
3,52,79,2
3,43,107,64
3,55,71,48
3,52,79,0
3,48,87,0
3,45,103,46
3,52,79,80
3,48,79,0
3,55,55,2
3,43,103,34
3,48,75,258
3,52,71,2
3,55,59,14
3,45,103,46
3,48,95,64
3,55,95,16
3,52,107,0
3,48,111,32
3,55,111,20
3,57,111,12
3,60,91,2
3,59,71,0
3,48,111,32
3,60,63,66
3,57,99,0
3,55,79,0
3,48,107,48
3,57,103,20
3,55,99,2
3,60,71,10
3,59,43,0
3,48,107,64
3,55,95,20
3,60,71,16
3,52,79,2
3,48,111,50
3,55,91,36
3,60,63,12
3,52,95,0
3,48,103,64
3,52,75,80
3,60,71,0
3,55,99,0
3,48,103,52
3,52,79,98
3,55,95,0
3,60,59,0
3,48,99,52
3,55,99,70
3,52,71,2
3,60,63,0
3,48,99,48
