track,note,velocity,time
1,41,89,1920
1,41,0,120
1,41,89,360
1,41,0,120
1,36,97,360
1,36,0,52
1,36,94,28
1,31,77,80
1,36,0,3
1,31,0,36
1,33,71,1
1,36,94,40
1,33,0,18
1,36,0,37
1,36,94,25
1,36,0,77
1,33,81,3
1,31,90,40
1,33,0,6
1,31,0,39
1,36,101,0
1,36,0,62
1,36,97,13
1,36,0,71
1,31,81,9
1,31,0,37
1,33,81,3
1,33,0,35
1,36,101,5
1,36,0,64
1,36,97,16
1,36,0,68
1,33,90,12
1,33,0,28
1,31,63,12
1,31,0,36
1,41,90,4
1,41,0,54
1,41,94,26
1,41,0,67
1,36,81,13
1,36,0,31
1,38,56,9
1,38,0,36
1,41,87,4
1,41,0,50
1,41,90,30
1,41,0,45
1,43,97,0
1,41,94,35
1,43,0,4
1,41,0,31
1,38,39,5
1,38,0,43
1,41,105,0
1,41,0,53
1,41,101,24
1,41,0,80
1,36,81,0
1,36,0,37
1,38,60,3
1,38,0,42
1,41,94,0
1,41,0,64
1,41,84,14
1,41,0,56
1,36,84,24
1,36,0,32
1,38,68,8
1,38,0,37
1,36,97,3
1,36,0,51
1,36,97,29
1,36,0,72
1,31,74,8
1,31,0,34
1,33,52,6
1,33,0,40
1,36,90,0
1,36,0,62
1,36,90,18
1,36,0,64
1,31,87,16
1,31,0,35
1,33,63,5
1,33,0,36
1,36,101,4
1,36,0,46
1,36,101,34
1,36,0,71
1,31,90,9
1,31,0,35
1,33,60,5
1,36,97,40
1,33,0,13
1,36,0,31
1,36,90,36
1,36,0,32
1,38,97,8
1,36,87,40
1,38,0,2
1,36,0,38
1,33,77,0
1,33,0,28
1,41,101,12
1,41,0,55
1,41,101,25
1,41,0,69
1,38,84,11
1,36,71,40
1,38,0,19
1,36,0,16
1,41,97,5
1,41,0,56
1,41,94,24
1,41,0,65
1,38,84,15
1,38,0,33
1,36,84,7
1,38,21,0
1,38,0,9
1,36,0,24
1,41,97,7
1,41,0,52
1,41,94,28
1,36,77,80
1,41,0,3
1,36,0,36
1,38,71,1
1,41,94,40
1,38,0,18
1,41,0,37
1,41,94,25
1,41,0,77
1,38,81,3
1,36,90,40
1,38,0,6
1,36,0,34
1,34,97,0
1,34,0,52
1,34,94,28
1,29,77,80
1,34,0,3
1,29,0,36
1,31,71,1
1,34,94,40
1,31,0,18
1,34,0,37
1,34,94,25
1,34,0,77
1,31,81,3
1,29,90,40
1,31,0,6
1,29,0,39
1,34,101,0
1,34,0,62
1,34,97,13
1,34,0,71
1,29,81,9
1,29,0,37
1,31,81,3
1,31,0,35
1,34,101,5
1,34,0,64
1,34,97,16
1,34,0,68
1,31,90,12
1,31,0,28
1,29,63,12
1,29,0,36
1,41,90,4
1,41,0,54
1,41,94,26
1,41,0,67
1,36,81,13
1,36,0,31
1,38,56,9
1,38,0,36
1,41,87,4
1,41,0,50
1,41,90,30
1,41,0,45
1,43,97,0
1,41,94,35
1,43,0,4
1,41,0,31
1,38,39,5
1,38,0,43
1,41,105,0
1,41,0,53
1,41,101,24
1,41,0,80
1,36,81,0
1,36,0,37
1,38,60,3
1,38,0,42
1,41,94,0
1,41,0,64
1,41,84,14
1,41,0,56
1,36,84,24
1,36,0,32
1,38,68,8
1,38,0,37
1,36,101,3
1,36,0,55
1,36,101,25
1,36,0,69
1,33,84,11
1,31,71,40
1,33,0,19
1,31,0,16
1,36,97,5
1,36,0,56
1,36,94,24
1,36,0,65
1,33,84,15
1,33,0,33
1,31,84,7
1,33,21,0
1,33,0,9
1,31,0,24
1,36,101,7
1,36,0,58
1,36,97,22
1,36,0,65
1,31,74,15
1,31,0,37
1,33,74,3
1,33,0,42
1,36,101,0
1,36,0,48
1,36,90,30
1,36,0,76
1,31,68,4
1,31,0,32
1,33,87,8
1,33,0,36
1,41,84,4
1,41,0,51
1,41,84,29
1,41,0,76
1,36,84,4
1,36,0,27
1,38,84,13
1,38,0,29
1,41,84,11
1,41,0,42
1,41,84,38
1,41,0,77
1,36,84,3
1,36,0,24
1,38,84,16
1,38,0,30
1,41,89,10
1,41,0,120
1,36,101,360
1,36,0,55
1,36,101,25
1,36,0,69
1,33,84,11
1,31,71,40
1,33,0,19
1,31,0,16
1,36,97,5
1,36,0,56
1,36,94,24
1,36,0,65
1,33,84,15
1,33,0,33
1,31,84,7
1,33,21,0
1,33,0,9
1,31,0,24
1,36,101,7
1,36,0,58
1,36,97,22
1,36,0,65
1,31,74,15
1,31,0,37
1,33,74,3
1,33,0,42
1,36,101,0
1,36,0,48
1,36,90,30
1,36,0,76
1,31,68,4
1,31,0,32
1,33,87,8
1,33,0,36
1,41,84,4
1,41,0,51
1,41,84,29
1,41,0,76
1,36,84,4
1,36,0,27
1,38,84,13
1,38,0,29
1,41,84,11
1,41,0,42
1,41,84,38
1,41,0,77
1,36,84,3
1,36,0,24
1,38,84,16
1,38,0,30
1,41,84,10
1,41,0,58
1,41,84,22
1,41,0,73
1,36,84,7
1,36,0,21
1,38,84,19
1,38,0,24
1,41,84,16
1,41,0,49
1,41,84,31
1,41,0,22
1,43,84,18
1,43,0,36
1,41,84,4
1,41,0,29
1,38,84,11
1,38,0,33
1,36,97,7
1,36,0,51
1,36,97,29
1,36,0,72
1,31,74,8
1,31,0,34
1,33,52,6
1,33,0,40
1,36,90,0
1,36,0,62
1,36,90,18
1,36,0,64
1,31,87,16
1,31,0,35
1,33,63,5
1,33,0,36
1,36,101,4
1,36,0,46
1,36,101,34
1,36,0,71
1,31,90,9
1,31,0,35
1,33,60,5
1,36,97,40
1,33,0,13
1,36,0,31
1,36,90,36
1,36,0,32
1,38,97,8
1,36,87,40
1,38,0,2
1,36,0,38
1,33,77,0
1,33,0,28
1,41,97,12
1,41,0,51
1,41,97,29
1,41,0,72
1,36,74,8
1,36,0,34
1,38,52,6
1,38,0,40
1,41,90,0
1,41,0,62
1,41,90,18
1,41,0,64
1,36,87,16
1,36,0,35
1,38,63,5
1,38,0,36
1,41,94,4
1,41,0,52
1,41,101,28
1,41,0,62
1,36,68,18
1,36,0,38
1,38,60,2
1,41,87,40
1,38,0,4
1,41,0,56
1,41,94,20
1,41,0,70
1,36,60,10
1,36,0,40
1,38,65,0
1,38,0,36
1,34,90,4
1,34,0,54
1,34,94,26
1,34,0,67
1,29,81,13
1,29,0,31
1,31,56,9
1,31,0,36
1,34,87,4
1,34,0,50
1,34,90,30
1,34,0,45
1,36,97,0
1,34,94,35
1,36,0,4
1,34,0,31
1,31,39,5
1,31,0,43
1,34,105,0
1,34,0,53
1,34,101,24
1,34,0,80
1,29,81,0
1,29,0,37
1,31,60,3
1,31,0,42
1,34,94,0
1,34,0,64
1,34,84,14
1,34,0,56
1,29,84,24
1,29,0,32
1,31,68,8
1,31,0,37
1,41,84,3
1,41,0,51
1,41,84,29
1,41,0,76
1,36,84,4
1,36,0,27
1,38,84,13
1,38,0,29
1,41,84,11
1,41,0,42
1,41,84,38
1,41,0,77
1,36,84,3
1,36,0,24
1,38,84,16
1,38,0,30
1,41,84,10
1,41,0,58
1,41,84,22
1,41,0,73
1,36,84,7
1,36,0,21
1,38,84,19
1,38,0,24
1,41,84,16
1,41,0,49
1,41,84,31
1,41,0,22
1,43,84,18
1,43,0,36
1,41,84,4
1,41,0,29
1,38,84,11
1,38,0,33
1,36,97,7
1,36,0,52
1,36,94,28
1,31,77,80
1,36,0,3
1,31,0,36
1,33,71,1
1,36,94,40
1,33,0,18
1,36,0,37
1,36,94,25
1,36,0,77
1,33,81,3
1,31,90,40
1,33,0,6
1,31,0,39
1,36,101,0
1,36,0,62
1,36,97,13
1,36,0,71
1,31,81,9
1,31,0,37
1,33,81,3
1,33,0,35
1,36,101,5
1,36,0,64
1,36,97,16
1,36,0,68
1,33,90,12
1,33,0,28
1,31,63,12
1,31,0,36
1,41,89,4
1,41,0,120
1,41,89,360
1,41,0,120
1,36,101,360
1,36,0,55
1,36,101,25
1,36,0,69
1,33,84,11
1,31,71,40
1,33,0,19
1,31,0,16
1,36,97,5
1,36,0,56
1,36,94,24
1,36,0,65
1,33,84,15
1,33,0,33
1,31,84,7
1,33,21,0
1,33,0,9
1,31,0,24
1,36,101,7
1,36,0,58
1,36,97,22
1,36,0,65
1,31,74,15
1,31,0,37
1,33,74,3
1,33,0,42
1,36,101,0
1,36,0,48
1,36,90,30
1,36,0,76
1,31,68,4
1,31,0,32
1,33,87,8
1,33,0,36
1,41,94,4
1,41,0,52
1,41,101,28
1,41,0,62
1,36,68,18
1,36,0,38
1,38,60,2
1,41,87,40
1,38,0,4
1,41,0,56
1,41,94,20
1,41,0,70
1,36,60,10
1,36,0,40
1,38,65,0
1,38,0,36
1,41,101,4
1,41,0,56
1,41,97,24
1,41,0,74
1,36,74,6
1,36,0,36
1,38,43,4
1,41,94,40
1,38,0,9
1,41,0,29
1,41,97,42
1,41,0,42
1,36,77,0
1,36,0,38
1,38,65,0
1,38,0,44
1,43,105,0
1,43,0,36
1,36,84,0
1,36,0,51
1,36,84,29
1,36,0,76
1,31,84,4
1,31,0,27
1,33,84,13
1,33,0,29
1,36,84,11
1,36,0,42
1,36,84,38
1,36,0,77
1,31,84,3
1,31,0,24
1,33,84,16
1,33,0,30
1,36,84,10
1,36,0,58
1,36,84,22
1,36,0,73
1,31,84,7
1,31,0,21
1,33,84,19
1,33,0,24
1,36,84,16
1,36,0,49
1,36,84,31
1,36,0,22
1,38,84,18
1,38,0,36
1,36,84,4
1,36,0,29
1,33,84,11
1,33,0,33
1,41,97,7
1,41,0,52
1,41,94,28
1,36,77,80
1,41,0,3
1,36,0,36
1,38,71,1
1,41,94,40
1,38,0,18
1,41,0,37
1,41,94,25
1,41,0,77
1,38,81,3
1,36,90,40
1,38,0,6
1,36,0,34
1,41,97,0
1,41,0,51
1,41,97,29
1,41,0,72
1,36,74,8
1,36,0,34
1,38,52,6
1,38,0,40
1,41,90,0
1,41,0,62
1,41,90,18
1,41,0,64
1,36,87,16
1,36,0,35
1,38,63,5
1,38,0,36
1,34,101,4
1,34,0,55
1,34,101,25
1,34,0,69
1,31,84,11
1,29,71,40
1,31,0,19
1,29,0,16
1,34,97,5
1,34,0,56
1,34,94,24
1,34,0,65
1,31,84,15
1,31,0,33
1,29,84,7
1,31,21,0
1,31,0,9
1,29,0,24
1,34,101,7
1,34,0,58
1,34,97,22
1,34,0,65
1,29,74,15
1,29,0,37
1,31,74,3
1,31,0,42
1,34,101,0
1,34,0,48
1,34,90,30
1,34,0,76
1,29,68,4
1,29,0,32
1,31,87,8
1,31,0,36
1,41,84,4
1,41,0,43
1,41,84,37
1,41,0,60
1,36,84,20
1,36,0,40
1,38,84,0
1,38,0,39
1,41,84,1
1,41,0,42
1,41,84,38
1,41,0,62
1,36,84,18
1,36,0,40
1,38,84,0
1,38,0,38
1,41,84,2
1,41,0,47
1,41,84,33
1,41,0,47
1,36,84,33
1,36,0,39
1,38,84,1
1,38,0,33
1,41,84,7
1,41,0,41
1,41,84,39
1,41,0,45
1,36,84,35
1,36,0,40
1,38,84,0
1,38,0,32
1,36,90,8
1,36,0,54
1,36,94,26
1,36,0,67
1,31,81,13
1,31,0,31
1,33,56,9
1,33,0,36
1,36,87,4
1,36,0,50
1,36,90,30
1,36,0,45
1,38,97,0
1,36,94,35
1,38,0,4
1,36,0,31
1,33,39,5
1,33,0,43
1,36,105,0
1,36,0,53
1,36,101,24
1,36,0,80
1,31,81,0
1,31,0,37
1,33,60,3
1,33,0,42
1,36,94,0
1,36,0,64
1,36,84,14
1,36,0,56
1,31,84,24
1,31,0,32
1,33,68,8
1,33,0,37
1,41,97,3
1,41,0,52
1,41,94,28
1,36,77,80
1,41,0,3
1,36,0,36
1,38,71,1
1,41,94,40
1,38,0,18
1,41,0,37
1,41,94,25
1,41,0,77
1,38,81,3
1,36,90,40
1,38,0,6
1,36,0,34
1,41,89,0
1,41,0,120
1,36,97,360
1,36,0,52
1,36,94,28
1,31,77,80
1,36,0,3
1,31,0,36
1,33,71,1
1,36,94,40
1,33,0,18
1,36,0,37
1,36,94,25
1,36,0,77
1,33,81,3
1,31,90,40
1,33,0,6
1,31,0,39
1,36,101,0
1,36,0,62
1,36,97,13
1,36,0,71
1,31,81,9
1,31,0,37
1,33,81,3
1,33,0,35
1,36,101,5
1,36,0,64
1,36,97,16
1,36,0,68
1,33,90,12
1,33,0,28
1,31,63,12
1,31,0,36
1,41,101,4
1,41,0,55
1,41,101,25
1,41,0,69
1,38,84,11
1,36,71,40
1,38,0,19
1,36,0,16
1,41,97,5
1,41,0,56
1,41,94,24
1,41,0,65
1,38,84,15
1,38,0,33
1,36,84,7
1,38,21,0
1,38,0,9
1,36,0,24
1,41,101,7
1,41,0,58
1,41,97,22
1,41,0,65
1,36,74,15
1,36,0,37
1,38,74,3
1,38,0,42
1,41,101,0
1,41,0,48
1,41,90,30
1,41,0,76
1,36,68,4
1,36,0,32
1,38,87,8
1,38,0,36
1,36,97,4
1,36,0,51
1,36,97,29
1,36,0,72
1,31,74,8
1,31,0,34
1,33,52,6
1,33,0,40
1,36,90,0
1,36,0,62
1,36,90,18
1,36,0,64
1,31,87,16
1,31,0,35
1,33,63,5
1,33,0,36
1,36,101,4
1,36,0,46
1,36,101,34
1,36,0,71
1,31,90,9
1,31,0,35
1,33,60,5
1,36,97,40
1,33,0,13
1,36,0,31
1,36,90,36
1,36,0,32
1,38,97,8
1,36,87,40
1,38,0,2
1,36,0,38
1,33,77,0
1,33,0,28
1,41,84,12
1,41,0,51
1,41,84,29
1,41,0,76
1,36,84,4
1,36,0,27
1,38,84,13
1,38,0,29
1,41,84,11
1,41,0,42
1,41,84,38
1,41,0,77
1,36,84,3
1,36,0,24
1,38,84,16
1,38,0,30
1,41,90,10
1,41,0,54
1,41,94,26
1,41,0,67
1,36,81,13
1,36,0,31
1,38,56,9
1,38,0,36
1,41,87,4
1,41,0,50
1,41,90,30
1,41,0,45
1,43,97,0
1,41,94,35
1,43,0,4
1,41,0,31
1,38,39,5
1,38,0,40
1,34,94,0
1,34,0,52
1,34,101,28
1,34,0,62
1,29,68,18
1,29,0,38
1,31,60,2
1,34,87,40
1,31,0,4
1,34,0,56
1,34,94,20
1,34,0,70
1,29,60,10
1,29,0,40
1,31,65,0
1,31,0,36
1,34,101,4
1,34,0,56
1,34,97,24
1,34,0,74
1,29,74,6
1,29,0,36
1,31,43,4
1,34,94,40
1,31,0,9
1,34,0,29
1,34,97,42
1,34,0,42
1,29,77,0
1,29,0,38
1,31,65,0
1,31,0,44
1,36,105,0
1,36,0,36
1,41,97,0
1,41,0,51
1,41,97,29
1,41,0,72
1,36,74,8
1,36,0,34
1,38,52,6
1,38,0,40
1,41,90,0
1,41,0,62
1,41,90,18
1,41,0,64
1,36,87,16
1,36,0,35
1,38,63,5
1,38,0,36
1,41,101,4
1,41,0,46
1,41,101,34
1,41,0,71
1,36,90,9
1,36,0,35
1,38,60,5
1,41,97,40
1,38,0,13
1,41,0,31
1,41,90,36
1,41,0,32
1,43,97,8
1,41,87,40
1,43,0,2
1,41,0,38
1,38,77,0
1,38,0,28
1,36,84,12
1,36,0,43
1,36,84,37
1,36,0,60
1,31,84,20
1,31,0,40
1,33,84,0
1,33,0,39
1,36,84,1
1,36,0,42
1,36,84,38
1,36,0,62
1,31,84,18
1,31,0,40
1,33,84,0
1,33,0,38
1,36,84,2
1,36,0,47
1,36,84,33
1,36,0,47
1,31,84,33
1,31,0,39
1,33,84,1
1,33,0,33
1,36,84,7
1,36,0,41
1,36,84,39
1,36,0,45
1,31,84,35
1,31,0,40
1,33,84,0
1,33,0,32
1,41,89,8
1,41,0,120
1,41,89,360
1,41,0,120
1,36,94,360
1,36,0,52
1,36,101,28
1,36,0,62
1,31,68,18
1,31,0,38
1,33,60,2
1,36,87,40
1,33,0,4
1,36,0,56
1,36,94,20
1,36,0,70
1,31,60,10
1,31,0,40
1,33,65,0
1,33,0,36
