track,note,velocity,time
1,55,127,0
1,50,127,0
1,43,127,0
1,55,127,68
1,55,127,10
1,43,127,0
1,52,127,0
1,55,127,52
1,55,127,40
1,50,127,0
1,43,127,0
1,55,127,46
1,55,127,20
1,52,127,0
1,43,127,0
1,55,127,58
1,55,127,42
1,50,127,0
1,43,127,0
1,55,127,46
1,55,127,36
1,52,127,0
1,43,127,0
1,55,127,58
1,55,127,64
1,43,127,0
1,50,127,0
1,55,127,62
1,55,127,40
1,52,127,0
1,43,127,0
1,55,127,58
1,55,127,42
1,50,127,0
1,43,127,0
1,55,127,68
1,55,127,10
1,43,127,0
1,52,127,0
1,55,127,52
1,55,127,40
1,50,127,0
1,43,127,0
1,55,127,46
1,55,127,20
1,52,127,0
1,43,127,0
1,55,127,58
1,55,127,42
1,50,127,0
1,43,127,0
1,55,127,46
1,55,127,36
1,52,127,0
1,43,127,0
1,55,127,58
1,55,127,64
1,43,127,0
1,50,127,0
1,55,127,62
1,55,127,40
1,52,127,0
1,43,127,0
1,55,127,58
1,43,127,42
1,58,127,38
1,55,127,2
1,62,127,0
1,59,127,0
1,43,127,56
1,50,127,54
1,46,127,116
1,64,127,22
1,60,127,2
1,55,127,0
1,47,127,8
1,50,127,0
1,50,127,24
1,58,127,24
1,62,127,0
1,55,127,8
1,59,127,0
1,43,127,106
1,50,127,0
1,52,127,20
1,64,127,24
1,60,127,4
1,55,127,0
1,50,127,14
1,50,127,4
1,43,127,58
1,58,127,24
1,62,127,0
1,55,127,8
1,59,127,44
1,43,127,4
1,50,127,10
1,46,127,14
1,64,127,18
1,55,127,0
1,47,127,14
1,50,127,4
1,50,127,24
1,58,127,12
1,62,127,6
1,55,127,0
1,59,127,0
1,43,127,14
1,50,127,0
1,52,127,20
1,64,127,12
1,55,127,0
1,50,127,8
1,50,127,6
1,43,127,58
1,55,127,12
1,62,127,0
1,58,127,0
1,59,127,4
1,43,127,0
1,50,127,4
1,46,127,26
1,64,127,16
1,55,127,0
1,47,127,4
1,50,127,4
1,50,127,32
1,62,127,16
1,55,127,0
1,58,127,6
1,59,127,0
1,43,127,0
1,50,127,6
1,52,127,40
1,64,127,24
1,55,127,0
1,50,127,10
1,50,127,14
1,43,127,36
1,55,127,18
1,62,127,0
1,58,127,4
1,59,127,4
1,43,127,16
1,50,127,12
1,46,127,26
1,55,127,0
1,64,127,0
1,47,127,168
1,50,127,6
1,50,127,36
1,62,127,16
1,55,127,6
1,58,127,0
1,59,127,14
1,43,127,14
1,50,127,8
1,52,127,40
1,55,127,18
1,64,127,4
1,50,127,30
1,50,127,8
1,43,127,8
1,43,127,62
1,46,127,192
1,47,127,14
1,50,127,16
1,43,127,8
1,52,127,42
1,50,127,192
1,43,127,42
1,43,127,68
1,46,127,192
1,47,127,24
1,50,127,32
1,43,127,14
1,52,127,46
1,50,127,16
1,43,127,24
1,43,127,74
1,46,127,192
1,47,127,4
1,50,127,14
1,43,127,4
1,52,127,48
1,50,127,10
1,43,127,24
1,43,127,74
1,46,127,192
1,47,127,10
1,50,127,8
1,43,127,192
1,52,127,46
1,50,127,192
1,36,127,46
1,36,127,46
1,39,127,20
1,40,127,192
1,43,127,30
1,36,127,192
1,45,127,24
1,43,127,10
1,36,127,26
1,36,127,68
1,39,127,0
1,40,127,32
1,43,127,0
1,36,127,192
1,45,127,36
1,43,127,0
1,43,127,46
1,43,127,78
1,46,127,192
1,47,127,20
1,50,127,56
1,43,127,192
1,52,127,24
1,50,127,16
1,43,127,36
1,43,127,80
1,46,127,192
1,47,127,10
1,50,127,24
1,43,127,192
1,52,127,52
1,50,127,0
1,38,127,48
1,38,127,74
1,41,127,20
1,42,127,192
1,45,127,184
1,38,127,174
1,47,127,32
1,45,127,192
1,36,127,24
1,36,127,62
1,39,127,192
1,40,127,160
1,43,127,164
1,36,127,138
1,45,127,64
1,43,127,192
1,43,127,24
1,43,127,72
1,46,127,192
1,47,127,8
1,50,127,32
1,43,127,192
1,52,127,90
1,50,127,10
1,43,127,40
1,43,127,78
1,46,127,192
1,47,127,16
1,50,127,40
1,43,127,192
1,52,127,58
1,50,127,16
1,43,127,24
1,43,127,62
1,46,127,192
1,47,127,14
1,50,127,16
1,43,127,8
1,52,127,42
1,50,127,192
1,43,127,42
1,43,127,68
1,46,127,192
1,47,127,24
1,50,127,32
1,43,127,14
1,52,127,46
1,50,127,16
1,43,127,24
1,43,127,74
1,46,127,192
1,47,127,4
1,50,127,14
1,43,127,4
1,52,127,48
1,50,127,10
1,43,127,24
1,43,127,74
1,46,127,192
1,47,127,10
1,50,127,8
1,43,127,192
1,52,127,46
1,50,127,192
1,36,127,46
1,36,127,46
1,39,127,20
1,40,127,192
1,43,127,30
1,36,127,192
1,45,127,24
1,43,127,10
1,36,127,26
1,36,127,68
1,39,127,0
1,40,127,32
1,43,127,0
1,36,127,192
1,45,127,36
1,43,127,0
1,43,127,46
1,43,127,78
1,46,127,192
1,47,127,20
1,50,127,56
1,43,127,192
1,52,127,24
1,50,127,16
1,43,127,36
1,43,127,80
1,46,127,192
1,47,127,10
1,50,127,24
1,43,127,192
1,52,127,52
1,50,127,0
1,38,127,48
1,38,127,74
1,41,127,20
1,42,127,192
1,45,127,184
1,38,127,174
1,47,127,32
1,45,127,192
1,36,127,24
1,36,127,62
1,39,127,192
1,40,127,160
1,43,127,164
1,36,127,138
1,45,127,64
1,43,127,192
1,43,127,24
1,43,127,72
1,46,127,192
1,47,127,8
1,50,127,32
1,43,127,192
1,52,127,90
1,50,127,10
1,43,127,40
1,43,127,78
1,46,127,192
1,47,127,16
1,50,127,40
1,43,127,192
1,52,127,58
1,50,127,16
1,43,127,24
1,43,127,62
1,46,127,192
1,47,127,14
1,50,127,16
1,43,127,8
1,52,127,42
1,50,127,192
1,43,127,42
1,43,127,68
1,46,127,192
1,47,127,24
1,50,127,32
1,43,127,14
1,52,127,46
1,50,127,16
1,43,127,24
1,43,127,74
1,46,127,192
1,47,127,4
1,50,127,14
1,43,127,4
1,52,127,48
1,50,127,10
1,43,127,24
1,43,127,74
1,46,127,192
1,47,127,10
1,50,127,8
1,43,127,192
1,52,127,46
1,50,127,192
1,36,127,46
1,36,127,46
1,39,127,20
1,40,127,192
1,43,127,30
1,36,127,192
1,45,127,24
1,43,127,10
1,36,127,26
1,36,127,68
1,39,127,0
1,40,127,32
1,43,127,0
1,36,127,192
1,45,127,36
1,43,127,0
1,43,127,46
1,43,127,78
1,46,127,192
1,47,127,20
1,50,127,56
1,43,127,192
1,52,127,24
1,50,127,16
1,43,127,36
1,43,127,80
1,46,127,192
1,47,127,10
1,50,127,24
1,43,127,192
1,52,127,52
1,50,127,0
1,38,127,48
1,38,127,74
1,41,127,20
1,42,127,192
1,45,127,184
1,38,127,174
1,47,127,32
1,45,127,192
1,36,127,24
1,36,127,62
1,39,127,192
1,40,127,160
1,43,127,164
1,36,127,138
1,45,127,64
1,43,127,192
1,43,127,24
1,43,127,72
1,46,127,192
1,47,127,8
1,50,127,32
1,43,127,192
1,52,127,90
1,50,127,10
1,43,127,40
1,43,127,78
1,46,127,192
1,47,127,16
1,50,127,40
1,43,127,192
1,52,127,58
1,50,127,16
1,43,127,8
1,43,127,62
1,46,127,192
1,47,127,14
1,50,127,16
1,43,127,8
1,52,127,42
1,50,127,192
1,43,127,42
1,43,127,68
1,46,127,192
1,47,127,24
1,50,127,32
1,43,127,14
1,52,127,46
1,50,127,16
1,43,127,24
1,43,127,74
1,46,127,192
1,47,127,4
1,50,127,14
1,43,127,4
1,52,127,48
1,50,127,10
1,43,127,24
1,43,127,74
1,46,127,192
1,47,127,10
1,50,127,8
1,43,127,192
1,52,127,46
1,50,127,192
1,36,127,46
1,36,127,46
1,39,127,20
1,40,127,192
1,43,127,30
1,36,127,192
1,45,127,24
1,43,127,10
1,36,127,26
1,36,127,68
1,39,127,0
1,40,127,32
1,43,127,0
1,36,127,192
1,45,127,36
1,43,127,0
1,43,127,46
1,43,127,78
1,46,127,192
1,47,127,20
1,50,127,56
1,43,127,192
1,52,127,24
1,50,127,16
1,43,127,36
1,43,127,80
1,46,127,192
1,47,127,10
1,50,127,24
1,43,127,192
1,52,127,52
1,50,127,0
1,38,127,48
1,38,127,74
1,41,127,20
1,42,127,192
1,45,127,184
1,38,127,174
1,47,127,32
1,45,127,192
1,36,127,24
1,36,127,62
1,39,127,192
1,40,127,160
1,43,127,164
1,36,127,138
1,45,127,64
1,43,127,192
1,43,127,24
1,43,127,72
1,46,127,192
1,47,127,8
1,50,127,32
1,43,127,192
1,52,127,90
1,50,127,10
1,43,127,40
1,43,127,78
1,46,127,192
1,47,127,16
1,50,127,40
1,43,127,192
1,52,127,58
1,50,127,16
1,43,127,24
1,43,127,62
1,46,127,192
1,47,127,14
1,50,127,16
1,43,127,8
1,52,127,42
1,50,127,192
1,43,127,42
1,43,127,68
1,46,127,192
1,47,127,24
1,50,127,32
1,43,127,14
1,52,127,46
1,50,127,16
1,43,127,24
1,43,127,74
1,46,127,192
1,47,127,4
1,50,127,14
1,43,127,4
1,52,127,48
1,50,127,10
1,43,127,24
1,43,127,74
1,46,127,192
1,47,127,10
1,50,127,8
1,43,127,192
1,52,127,46
1,50,127,192
1,36,127,46
1,36,127,46
1,39,127,20
1,40,127,192
1,43,127,30
1,36,127,192
1,45,127,24
1,43,127,10
1,36,127,26
1,36,127,68
1,39,127,0
1,40,127,32
1,43,127,0
1,36,127,192
1,45,127,36
1,43,127,0
1,43,127,46
1,43,127,78
1,46,127,192
1,47,127,20
1,50,127,56
1,43,127,192
1,52,127,24
1,50,127,16
1,43,127,36
1,43,127,80
1,46,127,192
1,47,127,10
1,50,127,24
1,43,127,192
1,52,127,52
1,50,127,0
1,38,127,48
1,38,127,74
1,41,127,20
1,42,127,192
1,45,127,184
1,38,127,174
1,47,127,32
1,45,127,192
1,36,127,24
1,36,127,62
1,39,127,192
1,40,127,160
1,43,127,164
1,36,127,138
1,45,127,64
1,43,127,192
1,43,127,24
1,43,127,72
1,46,127,192
1,47,127,8
1,50,127,32
1,43,127,192
1,52,127,90
1,50,127,10
1,43,127,40
1,43,127,78
1,46,127,192
1,47,127,16
1,50,127,40
1,43,127,192
1,52,127,58
1,50,127,16
1,43,127,24
1,43,127,62
1,46,127,192
1,47,127,14
1,50,127,16
1,43,127,8
1,52,127,42
1,50,127,192
1,43,127,42
1,43,127,68
1,46,127,192
1,47,127,24
1,50,127,32
1,43,127,14
1,52,127,46
1,50,127,16
1,43,127,24
1,43,127,74
1,46,127,192
1,47,127,4
1,50,127,14
1,43,127,4
1,52,127,48
1,50,127,10
1,43,127,24
1,43,127,74
1,46,127,192
1,47,127,10
1,50,127,8
1,43,127,192
1,52,127,46
1,50,127,192
1,36,127,46
1,36,127,46
1,39,127,20
1,40,127,192
1,43,127,30
1,36,127,192
1,45,127,24
1,43,127,10
1,36,127,26
1,36,127,68
1,39,127,0
1,40,127,32
1,43,127,0
1,36,127,192
1,45,127,36
1,43,127,0
1,43,127,46
1,43,127,78
1,46,127,192
1,47,127,20
1,50,127,56
1,43,127,192
1,52,127,24
1,50,127,16
1,43,127,36
1,43,127,80
1,46,127,192
1,47,127,10
1,50,127,24
1,43,127,192
1,52,127,52
1,50,127,0
1,38,127,48
1,38,127,74
1,41,127,20
1,42,127,192
1,45,127,184
1,38,127,174
1,47,127,32
1,45,127,192
1,36,127,24
1,36,127,62
1,39,127,192
1,40,127,160
1,43,127,164
1,36,127,138
1,45,127,64
1,43,127,192
1,43,127,24
1,43,127,72
1,46,127,192
1,47,127,8
1,50,127,32
1,43,127,192
1,52,127,90
1,50,127,10
1,43,127,40
1,43,127,78
1,46,127,192
1,47,127,16
1,50,127,40
1,43,127,192
1,52,127,58
1,50,127,16
1,43,127,24
1,43,127,62
1,46,127,192
1,47,127,14
1,50,127,16
1,43,127,8
1,52,127,42
1,50,127,192
1,43,127,42
1,43,127,68
1,46,127,192
1,47,127,24
1,50,127,32
1,43,127,14
1,52,127,46
1,50,127,16
1,43,127,24
1,43,127,74
1,46,127,192
1,47,127,4
1,50,127,14
1,43,127,4
1,52,127,48
1,50,127,10
1,43,127,24
1,43,127,74
1,46,127,192
1,47,127,10
1,50,127,8
1,43,127,192
1,52,127,46
1,50,127,192
1,36,127,46
1,36,127,46
1,39,127,20
1,40,127,192
1,43,127,30
1,36,127,192
1,45,127,24
1,43,127,10
1,36,127,26
1,36,127,68
1,39,127,0
1,40,127,32
1,43,127,0
1,36,127,192
1,45,127,36
1,43,127,0
1,43,127,46
1,43,127,78
1,46,127,192
1,47,127,20
1,50,127,56
1,43,127,192
1,52,127,24
1,50,127,16
1,43,127,36
1,43,127,80
1,46,127,192
1,47,127,10
1,50,127,24
1,43,127,192
1,52,127,52
1,50,127,0
1,38,127,48
1,38,127,74
1,41,127,20
1,42,127,192
1,45,127,184
1,38,127,174
1,47,127,32
1,45,127,192
1,36,127,24
1,36,127,62
1,39,127,192
1,40,127,160
1,43,127,164
1,36,127,138
1,45,127,64
1,43,127,192
1,43,127,24
1,43,127,72
1,46,127,192
1,47,127,8
1,50,127,32
1,43,127,192
1,52,127,90
1,50,127,10
1,43,127,40
1,43,127,78
1,46,127,192
1,47,127,16
1,50,127,40
1,43,127,192
1,52,127,58
1,50,127,16
1,43,127,24
1,43,127,62
1,46,127,192
1,47,127,14
1,50,127,16
1,43,127,8
1,52,127,42
1,50,127,192
1,43,127,42
1,43,127,68
1,46,127,192
1,47,127,24
1,50,127,32
1,43,127,14
1,52,127,46
1,50,127,16
1,43,127,24
1,43,127,74
1,46,127,192
1,47,127,4
1,50,127,14
1,43,127,4
1,52,127,48
1,50,127,10
1,43,127,24
1,43,127,74
1,46,127,192
1,47,127,10
1,50,127,8
1,43,127,192
1,52,127,46
1,50,127,192
1,36,127,46
1,36,127,46
1,39,127,20
1,40,127,192
1,43,127,30
1,36,127,192
1,45,127,24
1,43,127,10
1,36,127,26
1,36,127,68
1,39,127,0
1,40,127,32
1,43,127,0
1,36,127,192
1,45,127,36
1,43,127,0
1,43,127,46
1,43,127,78
1,46,127,192
1,47,127,20
1,50,127,56
1,43,127,192
1,52,127,24
1,50,127,16
1,43,127,36
1,43,127,80
1,46,127,192
1,47,127,10
1,50,127,24
1,43,127,192
1,52,127,52
1,50,127,0
1,38,127,48
1,38,127,74
1,41,127,20
1,42,127,192
1,45,127,184
1,38,127,174
1,47,127,32
1,45,127,192
1,36,127,24
1,36,127,62
1,39,127,192
1,40,127,160
1,43,127,164
1,36,127,138
1,45,127,64
1,43,127,192
1,31,127,24
1,31,127,3268
2,93,127,5874
2,95,127,4
2,91,127,10
2,89,127,22
2,93,127,16
2,88,127,0
2,86,127,10
2,84,127,6
2,83,127,8
2,81,127,6
2,79,127,4
2,77,127,0
2,76,127,8
2,74,127,10
2,81,127,2
2,72,127,4
2,71,127,6
2,69,127,4
2,67,127,6
2,65,127,6
2,64,127,10
2,62,127,0
2,60,127,12
2,59,127,0
2,57,127,10
2,55,127,4
2,59,127,6312
2,62,127,6
2,55,127,6
2,64,127,0
2,67,127,4
2,62,127,512
2,58,127,0
2,64,127,122
2,60,127,4
2,62,127,74
2,58,127,6
2,59,127,6
2,55,127,176
2,52,127,112
2,50,127,36
2,62,127,140
2,55,127,6
2,52,127,18
2,70,127,444
2,69,127,6
2,74,127,0
2,74,127,400
2,70,127,4
2,71,127,52
2,67,127,70
2,64,127,48
2,62,127,40
2,79,127,338
2,74,127,48
2,79,127,354
2,73,127,8
2,74,127,0
2,72,127,36
2,70,127,54
2,74,127,314
2,63,127,2
2,67,127,0
2,60,127,0
2,69,127,4
2,70,127,0
2,64,127,16
2,55,127,12
2,60,127,64
2,69,127,4
2,55,127,14
2,60,127,70
2,67,127,0
2,63,127,0
2,55,127,52
2,69,127,60
2,60,127,8
2,55,127,0
2,60,127,74
2,67,127,0
2,63,127,6
2,64,127,0
2,55,127,0
2,60,127,42
