track,note,velocity,time
1,31,117,1776
1,33,116,52
1,35,116,84
1,36,118,58
1,36,117,2290
1,38,117,50
1,40,117,50
1,41,118,66
1,40,118,2212
1,41,116,0
1,42,119,38
1,43,118,10
1,43,118,716
1,43,118,82
1,42,120,192
1,41,119,34
1,31,118,696
1,33,119,0
1,35,117,4
1,36,121,2
1,36,103,2868
1,40,99,20
1,43,99,6
1,45,101,6
1,36,99,6
1,40,101,6
1,43,99,6
1,45,99,6
1,29,102,62
1,33,104,16
1,36,100,6
1,38,103,6
1,29,99,6
1,33,102,6
1,36,99,6
1,38,102,6
1,31,103,26
1,35,101,22
1,38,102,6
1,40,101,8
1,29,100,6
1,33,102,6
1,36,101,6
1,38,102,6
1,36,97,6
1,29,102,2666
1,33,104,16
1,36,100,6
1,38,103,6
1,29,99,6
1,33,102,6
1,36,99,6
1,38,102,6
1,36,103,26
1,40,99,20
1,43,99,6
1,45,101,6
1,36,99,6
1,40,101,6
1,43,99,6
1,45,99,6
1,29,102,62
1,33,104,16
1,36,100,6
1,38,103,6
1,29,99,6
1,33,102,6
1,36,99,6
1,38,102,6
1,31,103,26
1,31,105,2134
1,31,107,72
1,31,105,78
1,31,108,66
1,31,107,774
1,31,108,84
1,31,102,54
1,31,109,68
1,31,108,802
1,31,102,62
1,31,108,60
1,31,109,62
1,31,103,1500
1,31,103,170
1,31,103,110
1,31,104,158
1,36,103,14
1,40,99,20
1,43,99,6
1,45,101,6
1,36,99,6
1,40,101,6
1,43,99,6
1,45,99,6
1,29,102,62
1,33,104,16
1,36,100,6
1,38,103,6
1,29,99,6
1,33,102,6
1,36,99,6
1,38,102,6
1,31,103,26
1,35,101,22
1,38,102,6
1,40,101,8
1,29,100,6
1,33,102,6
1,36,101,6
1,38,102,6
1,36,97,6
1,36,103,2666
1,40,99,20
1,43,99,6
1,45,101,6
1,36,99,6
1,40,101,6
1,43,99,6
1,45,99,6
1,29,102,62
1,33,104,16
1,36,100,6
1,38,103,6
1,29,99,6
1,33,102,6
1,36,99,6
1,38,102,6
1,31,103,26
1,35,101,22
1,38,102,6
1,40,101,8
1,29,100,6
1,33,102,6
1,36,101,6
1,38,102,6
1,36,103,6
1,40,99,20
1,43,99,6
1,45,101,6
1,36,99,6
1,40,101,6
1,43,99,6
1,45,99,6
1,36,103,62
1,40,99,20
1,43,99,6
1,45,101,6
1,36,99,6
1,40,101,6
1,43,99,6
1,45,99,6
1,29,102,62
1,33,104,16
1,36,100,6
1,38,103,6
1,29,99,6
1,33,102,6
1,36,99,6
1,38,102,6
1,31,103,26
1,35,101,22
1,38,102,6
1,40,101,8
1,29,100,6
1,33,102,6
1,36,101,6
1,38,102,6
1,36,103,6
1,40,99,20
1,43,99,6
1,45,101,6
1,36,99,6
1,40,101,6
1,43,99,6
1,45,99,6
1,29,102,62
1,33,104,16
1,36,100,6
1,38,103,6
1,29,99,6
1,33,102,6
1,36,99,6
1,38,102,6
1,36,103,26
1,40,99,20
1,43,99,6
1,45,101,6
1,36,99,6
1,40,101,6
1,43,99,6
1,45,99,6
1,29,102,62
1,33,104,16
1,36,100,6
1,38,103,6
1,29,99,6
1,33,102,6
1,36,99,6
1,38,102,6
1,31,103,26
1,31,105,2134
1,31,107,72
1,31,105,78
1,31,108,66
1,31,107,774
1,31,108,84
1,31,102,54
1,31,109,68
1,31,108,802
1,31,102,62
1,31,108,60
1,31,109,62
1,31,103,1500
1,31,103,170
1,31,103,110
1,31,104,158
1,36,103,14
1,40,99,20
1,43,99,6
1,45,101,6
1,36,99,6
1,40,101,6
1,43,99,6
1,45,99,6
1,29,102,62
1,33,104,16
1,36,100,6
1,38,103,6
1,29,99,6
1,33,102,6
1,36,99,6
1,38,102,6
1,31,103,26
1,35,101,22
1,38,102,6
1,40,101,8
1,29,100,6
1,33,102,6
1,36,101,6
1,38,102,6
1,36,97,6
1,36,114,2090
1,36,116,82
1,36,117,90
1,36,118,88
2,43,109,1760
2,31,109,0
2,33,111,22
2,45,109,0
2,47,115,26
2,35,115,0
2,36,119,28
2,48,113,0
2,36,110,2264
2,48,110,0
2,38,110,28
2,50,110,0
2,52,110,8
2,40,110,0
2,53,111,12
2,41,111,0
2,52,111,2212
2,40,111,0
2,41,109,6
2,53,109,0
2,42,112,38
2,54,112,0
2,43,111,10
2,55,111,0
2,43,111,716
2,55,111,0
2,43,111,82
2,55,111,0
2,54,113,6
2,42,113,0
2,41,112,34
2,53,112,0
2,43,111,696
2,31,111,0
2,45,112,6
2,33,112,0
2,35,110,6
2,47,110,0
2,48,114,6
2,36,114,0
2,36,104,2868
2,36,108,38
2,40,106,6
2,36,100,20
2,43,102,6
2,36,100,6
2,45,102,6
2,43,98,18
2,36,108,6
2,36,110,42
2,40,108,8
2,36,110,58
2,43,104,6
2,36,102,18
2,45,105,6
2,43,103,42
2,41,104,18
2,41,100,36
2,45,102,6
2,41,108,8
2,48,104,6
2,41,102,6
2,50,104,6
2,48,100,50
2,41,108,18
2,41,106,34
2,45,104,38
2,41,104,30
2,48,102,6
2,41,102,36
2,50,104,6
2,48,101,30
2,43,100,18
2,43,106,36
2,47,102,34
2,43,100,6
2,50,102,14
2,43,98,18
2,52,100,6
2,50,96,6
2,41,102,30
2,41,104,32
2,45,100,28
2,41,98,26
2,48,100,22
2,41,100,50
2,50,104,6
2,48,98,6
2,36,102,20
2,41,104,2790
2,41,100,36
2,45,102,6
2,41,108,8
2,48,104,6
2,41,102,6
2,50,104,6
2,48,100,50
2,41,108,18
2,41,106,34
2,45,104,38
2,41,104,30
2,48,102,6
2,41,102,36
2,50,104,6
2,48,101,30
2,36,104,18
2,36,108,38
2,40,106,6
2,36,100,20
2,43,102,6
2,36,100,6
2,45,102,6
2,43,98,18
2,36,108,6
2,36,110,42
2,40,108,8
2,36,110,58
2,43,104,6
2,36,102,18
2,45,105,6
2,43,103,42
2,41,104,18
2,41,100,36
2,45,102,6
2,41,108,8
2,48,104,6
2,41,102,6
2,50,104,6
2,48,100,50
2,41,108,18
2,41,106,34
2,45,104,38
2,41,104,30
2,48,102,6
2,41,102,36
2,50,104,6
2,48,101,30
2,43,100,18
2,43,90,2308
2,43,92,72
2,43,90,78
2,43,93,66
2,43,92,774
2,43,93,84
2,43,87,54
2,43,94,68
2,43,93,802
2,43,87,62
2,43,93,60
2,43,94,62
2,36,104,2844
2,36,108,38
2,40,106,6
2,36,100,20
2,43,102,6
2,36,100,6
2,45,102,6
2,43,98,18
2,36,108,6
2,36,110,42
2,40,108,8
2,36,110,58
2,43,104,6
2,36,102,18
2,45,105,6
2,43,103,42
2,41,104,18
2,41,100,36
2,45,102,6
2,41,108,8
2,48,104,6
2,41,102,6
2,50,104,6
2,48,100,50
2,41,108,18
2,41,106,34
2,45,104,38
2,41,104,30
2,48,102,6
2,41,102,36
2,50,104,6
2,48,101,30
2,43,100,18
2,43,106,36
2,47,102,34
2,43,100,6
2,50,102,14
2,43,98,18
2,52,100,6
2,50,96,6
2,41,102,30
2,41,104,32
2,45,100,28
2,41,98,26
2,48,100,22
2,41,100,50
2,50,104,6
2,48,98,6
2,36,102,20
2,36,104,2790
2,36,108,38
2,40,106,6
2,36,100,20
2,43,102,6
2,36,100,6
2,45,102,6
2,43,98,18
2,36,108,6
2,36,110,42
2,40,108,8
2,36,110,58
2,43,104,6
2,36,102,18
2,45,105,6
2,43,103,42
2,41,104,18
2,41,100,36
2,45,102,6
2,41,108,8
2,48,104,6
2,41,102,6
2,50,104,6
2,48,100,50
2,41,108,18
2,41,106,34
2,45,104,38
2,41,104,30
2,48,102,6
2,41,102,36
2,50,104,6
2,48,101,30
2,43,100,18
2,43,106,36
2,47,102,34
2,43,100,6
2,50,102,14
2,43,98,18
2,52,100,6
2,50,96,6
2,41,102,30
2,41,104,32
2,45,100,28
2,41,98,26
2,48,100,22
2,41,100,50
2,50,104,6
2,48,98,6
2,36,104,20
2,36,108,38
2,40,106,6
2,36,100,20
2,43,102,6
2,36,100,6
2,45,102,6
2,43,98,18
2,36,108,6
2,36,110,42
2,40,108,8
2,36,110,58
2,43,104,6
2,36,102,18
2,45,105,6
2,43,103,42
2,36,104,18
2,36,108,38
2,40,106,6
2,36,100,20
2,43,102,6
2,36,100,6
2,45,102,6
2,43,98,18
2,36,108,6
2,36,110,42
2,40,108,8
2,36,110,58
2,46,104,6
2,46,102,18
2,48,105,6
2,48,103,42
2,41,104,18
2,41,100,36
2,45,102,6
2,48,108,8
2,51,104,6
2,51,102,6
2,50,104,6
2,51,100,50
2,41,108,18
2,41,106,34
2,45,104,38
2,48,104,30
2,51,102,6
2,51,102,36
2,53,104,6
2,51,101,30
2,43,100,18
2,43,106,36
2,47,102,34
2,50,100,6
2,53,102,14
2,53,98,18
2,55,100,6
2,53,96,6
2,41,102,30
2,41,104,32
2,45,100,28
2,48,98,26
2,51,100,22
2,51,100,50
2,48,104,6
2,45,98,6
2,36,104,20
2,36,108,38
2,40,106,6
2,36,100,20
2,43,102,6
2,36,100,6
2,45,102,6
2,43,98,18
2,36,108,6
2,36,110,42
2,40,108,8
2,36,110,58
2,43,104,6
2,36,102,18
2,45,105,6
2,43,103,42
2,41,104,18
2,41,100,36
2,45,102,6
2,41,108,8
2,48,104,6
2,41,102,6
2,50,104,6
2,48,100,50
2,41,108,18
2,41,106,34
2,45,104,38
2,41,104,30
2,48,102,6
2,41,102,36
2,50,104,6
2,48,101,30
2,36,104,18
2,36,108,38
2,40,106,6
2,36,100,20
2,43,102,6
2,36,100,6
2,45,102,6
2,43,98,18
2,36,108,6
2,36,110,42
2,40,108,8
2,36,110,58
2,43,104,6
2,36,102,18
2,45,105,6
2,43,103,42
2,41,104,18
2,41,100,36
2,45,102,6
2,41,108,8
2,48,104,6
2,41,102,6
2,50,104,6
2,48,100,50
2,41,108,18
2,41,106,34
2,45,104,38
2,41,104,30
2,48,102,6
2,41,102,36
2,50,104,6
2,48,101,30
2,43,100,18
2,43,90,2308
2,43,92,72
2,43,90,78
2,43,93,66
2,43,92,774
2,43,93,84
2,43,87,54
2,43,94,68
2,43,93,802
2,43,87,62
2,43,93,60
2,43,94,62
2,36,104,2844
2,36,108,38
2,40,106,6
2,36,100,20
2,43,102,6
2,36,100,6
2,45,102,6
2,43,98,18
2,36,108,6
2,36,110,42
2,40,108,8
2,36,110,58
2,43,104,6
2,36,102,18
2,45,105,6
2,43,103,42
2,41,104,18
2,41,100,36
2,45,102,6
2,41,108,8
2,48,104,6
2,41,102,6
2,50,104,6
2,48,100,50
2,41,108,18
2,41,106,34
2,45,104,38
2,41,104,30
2,48,102,6
2,41,102,36
2,50,104,6
2,48,101,30
2,43,100,18
2,43,106,36
2,47,102,34
2,43,100,6
2,50,102,14
2,43,98,18
2,52,100,6
2,50,96,6
2,41,102,30
2,41,104,32
2,45,100,28
2,41,98,26
2,48,100,22
2,41,100,50
2,50,104,6
2,48,98,6
2,36,102,20
3,75,115,2
3,75,115,86
3,75,116,96
3,75,114,124
3,75,110,140
3,75,114,88
3,75,115,120
3,75,111,112
3,75,114,120
3,75,115,132
3,75,109,586
3,75,113,128
3,72,109,18
3,75,113,126
3,72,110,38
3,70,107,6
3,72,109,48
3,70,111,8
3,74,113,598
3,74,114,108
3,74,113,110
3,74,116,124
3,69,105,562
3,72,112,62
3,72,100,52
3,69,115,90
3,75,104,362
3,75,109,76
3,70,109,92
3,72,109,142
3,72,107,158
3,84,113,22
3,72,110,204
3,72,109,176
3,72,109,126
3,75,113,710
3,75,113,92
3,75,113,114
3,75,115,124
3,75,114,128
3,75,115,112
3,75,115,110
3,75,115,70
3,75,115,72
3,75,116,138
3,72,109,636
3,75,114,58
3,72,109,6
3,75,113,70
3,72,109,60
3,84,115,6
3,70,113,106
3,70,107,108
3,72,111,98
3,75,109,36
3,74,109,536
3,74,106,122
3,74,110,132
3,74,111,140
3,69,105,482
3,72,106,50
3,72,110,98
3,69,105,116
3,75,108,378
3,75,110,88
3,70,107,62
3,70,106,82
3,72,110,90
3,72,96,68
3,72,108,100
3,84,114,24
3,72,106,120
3,72,106,226
3,72,107,80
3,77,112,680
3,77,111,178
3,77,110,126
3,77,104,84
3,72,109,12
3,72,110,706
3,84,113,6
3,77,113,786
3,72,105,158
3,75,105,84
3,75,105,90
3,74,116,60
3,74,110,52
3,74,113,102
3,74,111,114
3,74,115,104
3,74,111,82
3,74,113,92
3,79,112,66
3,71,107,96
3,74,106,6
3,67,104,106
3,79,115,848
3,74,111,130
3,79,116,834
3,74,115,4
3,74,112,486
3,74,109,54
3,74,110,76
3,74,110,52
3,74,109,86
3,74,110,56
3,74,110,62
3,74,112,42
3,81,113,4
3,81,112,2
3,81,117,4
3,81,117,12
3,74,115,310
3,76,113,46
3,76,107,68
3,76,110,80
3,76,112,82
3,76,114,92
3,76,115,92
3,76,114,92
3,76,108,78
3,76,106,68
3,67,112,58
3,72,114,802
3,75,117,20
3,72,113,6
3,75,116,88
3,72,115,2
3,72,113,12
3,72,112,0
3,75,114,6
3,74,109,460
3,74,114,56
3,74,110,58
3,74,106,70
3,69,100,612
3,72,105,54
3,72,108,64
3,72,109,46
3,72,104,56
3,75,109,308
3,70,103,22
3,72,107,44
3,72,109,70
3,72,109,50
3,72,109,56
3,72,107,70
3,84,112,54
3,72,106,188
3,72,104,134
3,72,102,100
3,79,112,114
3,77,113,722
3,77,114,158
3,77,116,96
3,77,109,64
3,72,110,3604
3,84,113,6
3,79,113,786
3,75,105,158
3,77,105,84
3,79,105,90
3,74,116,60
3,74,110,52
3,74,113,102
3,74,111,114
3,74,115,104
3,74,111,82
3,74,113,92
3,79,112,66
3,71,107,96
3,74,106,6
3,67,104,106
3,79,115,848
3,74,111,130
3,79,116,834
3,74,115,4
3,74,112,486
3,74,109,54
3,74,110,76
3,74,110,52
3,74,109,86
3,74,110,56
3,74,110,62
3,74,112,42
3,81,113,4
3,81,112,2
3,81,117,4
3,81,117,12
3,81,115,310
3,81,113,46
3,81,107,68
3,81,110,80
3,79,112,82
3,79,114,92
3,74,115,92
3,76,114,92
3,76,108,78
3,76,106,68
3,67,112,58
3,72,113,770
3,81,116,6
3,72,115,2
3,72,113,12
3,72,112,0
3,75,114,6
3,74,109,460
3,74,114,56
3,74,110,58
3,74,106,70
3,69,100,612
3,72,105,54
3,72,108,64
3,72,109,46
3,72,104,56
3,75,109,308
3,70,103,22
3,72,107,44
3,72,109,70
3,72,109,50
3,72,109,56
3,72,107,70
3,84,112,54
3,72,106,188
3,72,104,134
3,72,102,100
4,75,94,14004
4,76,94,0
4,72,90,4
4,79,93,0
4,75,94,66
4,72,90,10
4,76,94,4
4,79,94,2
4,75,94,80
4,72,94,12
4,79,92,2
4,76,93,2
4,79,94,90
4,72,95,0
4,76,96,0
4,72,76,2
4,77,96,134
4,81,96,0
4,75,93,66
4,78,92,0
4,79,92,4
4,76,93,0
4,72,92,220
4,81,96,116
4,77,98,0
4,75,94,78
4,78,94,0
4,76,94,160
4,79,93,0
4,72,93,204
4,79,87,258
4,72,85,2
4,76,78,30
4,101,90,308
4,103,63,8
4,100,70,8
4,98,62,20
4,96,62,8
4,95,52,0
4,93,62,4
4,91,66,0
4,89,64,0
4,88,65,6
4,86,62,8
4,84,61,4
4,83,59,4
4,81,58,12
4,79,62,14
4,77,61,8
4,76,58,20
4,79,77,188
4,75,74,4
4,72,73,2
4,69,67,6
4,79,78,322
4,72,75,4
4,75,72,2
4,67,73,2
4,69,74,4
4,72,67,494
4,84,75,150
4,72,67,56
4,84,75,20
4,72,49,22
4,84,75,32
4,72,59,6
4,84,73,24
4,72,59,24
4,84,69,32
4,72,59,24
4,105,64,92
4,103,69,6
4,101,67,16
4,100,64,2
4,98,66,4
4,96,65,14
4,95,69,16
4,93,69,14
4,91,65,18
4,89,63,18
4,88,63,16
4,86,66,10
4,84,63,12
4,83,63,10
4,81,59,12
4,79,58,8
4,77,57,8
4,76,51,16
4,74,60,16
4,65,79,272
4,59,79,2
4,62,75,2
