track,note,velocity,time
1,66,124,16712
1,68,119,328
1,66,119,104
1,68,124,280
1,66,124,288
1,68,119,288
1,66,119,128
1,68,119,296
1,66,124,312
1,66,119,3368
1,68,114,112
1,66,114,112
1,68,119,120
1,66,114,272
1,68,119,112
1,66,119,112
1,68,119,280
1,66,119,120
1,68,119,280
1,66,124,304
1,66,119,3024
1,68,119,304
1,66,124,96
1,68,119,280
1,66,119,112
1,68,119,296
1,66,114,288
1,68,114,120
1,66,119,112
1,68,119,288
1,66,124,288
1,66,119,3008
1,68,119,112
1,66,119,104
1,68,119,104
1,66,114,296
1,68,119,104
1,66,119,296
1,68,124,296
1,66,119,296
1,68,124,248
1,66,119,288
1,68,124,112
1,66,119,120
1,68,124,272
1,66,119,312
1,68,119,304
1,66,119,104
1,68,124,104
1,66,119,1456
1,66,119,1456
1,66,119,672
1,66,119,672
1,66,119,512
1,68,119,112
1,66,119,104
1,68,119,104
1,66,119,96
1,68,124,288
1,66,119,1272
1,66,119,1464
1,66,119,1256
1,68,124,120
1,66,119,1256
1,68,124,112
1,66,119,1248
1,68,119,120
1,66,114,1232
1,68,119,120
1,66,119,1216
1,68,119,128
1,66,119,1080
1,68,119,120
1,66,124,96
1,66,119,1416
1,66,119,1440
1,66,124,720
1,66,119,680
1,66,124,7600
1,68,124,472
1,66,119,304
1,68,119,296
1,66,124,288
1,68,124,136
1,66,119,296
1,68,119,328
1,66,124,3336
1,68,119,488
1,66,119,312
1,68,114,120
1,66,119,104
1,68,114,320
1,66,119,104
1,68,119,312
1,66,119,304
1,66,119,3352
1,68,119,488
1,66,114,328
1,68,114,128
1,66,114,104
1,68,119,304
1,66,114,112
1,68,124,304
1,66,124,328
1,68,114,3368
1,70,124,96
1,68,124,304
1,70,119,288
1,68,119,296
1,70,119,112
1,68,119,280
1,70,124,288
1,68,119,312
1,70,124,296
1,68,124,312
1,70,124,320
1,68,124,280
1,70,124,112
1,68,124,112
1,68,119,1448
1,68,114,1432
1,68,114,688
1,68,114,688
1,68,114,528
1,70,109,112
1,68,119,112
1,70,119,112
1,68,119,88
1,70,126,304
1,68,119,1296
1,70,119,1432
1,68,119,1264
1,70,119,120
1,68,119,1240
1,70,124,128
1,68,124,1240
1,70,119,120
1,68,119,1240
1,70,119,128
1,68,119,1256
1,70,114,112
1,68,119,1072
1,70,119,112
1,68,124,96
1,68,124,1432
1,68,119,1440
1,68,124,696
1,68,119,680
1,58,119,680
1,68,119,18216
1,70,114,320
1,68,114,96
1,70,114,104
1,68,119,104
1,70,114,272
1,68,119,112
1,70,114,296
1,68,119,304
1,70,119,304
1,68,109,688
1,70,114,120
1,68,114,104
1,70,119,112
1,68,119,280
1,70,119,128
1,68,119,280
1,70,119,296
1,68,119,304
1,68,119,296
1,70,119,304
1,68,119,104
1,70,114,112
1,68,119,104
1,70,119,280
1,68,114,112
1,70,124,304
1,68,119,280
1,70,119,304
1,68,114,688
1,70,114,112
1,68,114,112
1,70,114,112
1,68,114,264
1,70,114,128
1,68,119,304
1,70,119,304
1,68,114,296
1,68,114,680
1,70,119,104
1,68,119,104
1,68,119,1440
1,68,119,1488
1,68,114,648
1,68,114,704
1,68,124,664
1,68,126,4024
1,68,119,1192
1,68,124,1448
1,68,119,1224
1,70,124,128
1,68,119,1240
1,70,119,120
1,68,119,1264
1,70,119,120
1,68,124,1240
1,70,119,120
1,68,124,1256
1,70,119,120
1,68,119,1048
1,70,119,112
1,68,119,104
1,68,119,1408
1,68,119,1440
1,68,114,696
1,68,119,688
1,68,124,696
1,68,124,472
1,70,119,128
1,68,124,1280
1,70,119,120
1,68,119,1224
1,70,119,128
1,68,119,1232
1,70,119,120
1,68,124,1248
1,70,124,120
1,68,119,1248
1,70,114,120
1,68,119,1264
1,70,119,120
1,68,124,1232
1,70,119,120
1,68,119,1080
1,70,119,104
1,68,119,104
1,68,119,1456
1,68,119,1440
1,68,119,696
1,68,124,704
1,68,124,656
2,28,127,2928
2,28,127,80
2,28,127,80
2,28,127,56
2,28,126,72
2,28,127,80
2,28,127,80
2,28,127,80
2,28,127,96
2,28,127,64
2,28,127,80
2,28,127,64
2,28,127,80
2,28,126,80
2,28,127,96
2,28,126,88
2,28,126,104
2,28,127,88
2,28,127,96
2,28,127,88
2,28,126,112
2,28,126,96
2,28,126,104
2,28,127,96
2,28,126,96
2,28,127,104
2,28,126,88
2,28,127,104
2,28,127,88
2,28,127,80
2,28,127,96
2,28,127,80
2,28,127,96
2,28,127,96
2,28,127,88
2,28,127,88
2,28,127,96
2,28,127,96
2,28,127,96
2,28,127,96
2,28,127,80
2,28,127,80
2,28,127,80
2,28,127,88
2,28,127,96
2,28,127,96
2,28,127,88
2,28,127,96
2,28,126,104
2,28,127,96
2,28,127,104
2,28,127,96
2,28,127,104
2,28,126,104
2,28,126,104
2,28,126,96
2,28,127,96
2,28,127,80
2,28,127,88
2,28,126,80
2,28,127,80
2,28,127,80
2,28,127,80
2,28,127,88
2,28,127,72
2,28,127,88
2,28,127,72
2,28,126,80
2,28,127,80
2,28,127,80
2,28,127,88
2,28,127,104
2,28,127,96
2,28,127,88
2,28,127,96
2,28,126,104
2,28,126,112
2,28,127,96
2,28,127,104
2,28,127,104
2,28,126,104
2,28,127,88
2,28,127,88
2,28,127,96
2,28,127,104
2,28,127,80
2,28,127,88
2,28,127,96
2,28,127,96
2,28,126,88
2,28,127,88
2,28,127,88
2,28,127,80
2,28,127,88
2,28,127,112
2,28,127,120
2,28,127,112
2,28,127,112
2,28,127,112
2,28,126,104
2,28,126,96
2,28,127,88
2,28,127,80
2,28,127,80
2,28,127,80
2,28,127,80
2,28,127,88
2,28,127,88
2,28,126,88
2,28,127,88
2,28,127,88
2,28,127,88
2,28,126,96
2,28,127,96
2,28,127,104
2,28,127,96
2,28,127,80
2,28,127,80
2,28,127,88
2,28,127,96
2,28,126,96
2,28,127,88
2,28,127,88
2,28,127,88
2,28,127,88
2,28,127,96
2,28,127,88
2,28,127,88
2,28,127,88
2,28,127,88
2,28,126,88
2,28,127,88
2,28,127,88
2,28,127,80
2,28,126,80
2,28,127,88
2,28,127,80
2,28,127,104
2,28,127,112
2,28,127,104
2,28,127,112
2,28,127,96
2,28,126,112
2,28,127,96
2,28,127,88
2,28,127,88
2,28,127,104
2,28,127,104
2,28,127,104
2,28,127,104
2,28,127,112
2,28,127,96
2,28,127,96
2,28,126,80
2,28,126,80
2,28,127,80
2,28,127,80
2,28,127,104
2,28,127,96
2,28,127,104
2,28,127,104
2,28,127,64
2,28,126,88
2,28,127,88
2,28,127,112
2,28,127,104
2,28,126,96
2,28,127,72
2,28,127,88
2,28,127,64
2,30,127,80
2,30,127,96
2,31,127,80
2,31,127,96
2,32,127,88
2,32,127,104
2,33,127,96
2,33,127,96
2,33,127,104
2,33,127,104
2,33,127,104
2,33,127,112
2,33,127,96
2,35,127,80
2,35,127,16
2,33,127,64
2,34,127,24
2,35,127,72
2,35,126,72
2,35,126,96
2,35,127,104
2,35,127,96
2,35,127,96
2,33,127,72
2,34,127,88
2,35,127,80
2,35,126,80
2,35,127,104
2,35,127,96
2,35,127,88
2,35,127,96
2,33,127,80
2,34,127,80
2,35,126,80
2,35,127,80
2,33,127,72
2,34,127,64
2,35,127,80
2,35,127,80
2,33,127,72
2,34,127,72
2,35,126,64
2,35,127,80
2,33,127,64
2,34,126,64
2,35,127,64
2,28,127,56
2,28,127,96
2,28,127,96
2,28,127,88
2,28,127,88
2,28,127,88
2,28,127,104
2,28,127,96
2,28,127,104
2,28,127,96
2,28,127,96
2,28,127,96
2,28,126,104
2,28,126,88
2,28,127,104
2,28,126,104
2,28,127,104
2,28,127,112
2,28,127,104
2,28,126,104
2,28,127,112
2,28,127,112
2,28,127,104
2,28,127,112
2,28,127,104
2,28,127,104
2,28,127,88
2,28,127,96
2,28,127,104
2,28,126,96
2,28,127,88
2,28,126,96
2,33,127,120
2,33,127,88
2,33,127,88
2,33,127,72
2,33,126,80
2,33,126,88
2,33,127,96
2,33,127,88
2,33,127,96
2,33,127,96
2,33,127,112
2,33,127,112
2,33,126,112
2,33,127,120
2,33,127,104
2,33,127,96
2,33,127,104
2,33,126,96
2,33,126,96
2,33,127,96
2,33,127,96
2,33,127,104
2,33,127,96
2,33,127,120
2,33,127,120
2,33,127,112
2,33,126,120
2,33,126,104
2,33,127,104
2,33,127,104
2,33,127,96
2,35,126,88
2,35,127,40
2,33,127,64
2,34,126,32
2,35,127,72
2,35,127,72
2,35,127,96
2,35,127,88
2,35,127,96
2,35,127,96
2,33,127,64
2,34,127,96
2,35,127,80
2,35,127,88
2,35,126,96
2,35,127,96
2,35,126,88
2,35,127,96
2,33,127,72
2,34,127,80
2,35,126,80
2,35,127,80
2,33,127,80
2,34,127,64
2,35,126,88
2,35,127,88
2,33,127,64
2,34,126,72
2,35,126,72
2,35,127,88
2,33,127,64
2,34,127,64
2,35,127,64
2,28,127,64
2,28,127,96
2,28,127,104
2,28,127,88
2,28,127,96
2,28,127,88
2,28,127,96
2,28,127,80
2,28,127,80
2,28,126,80
2,28,127,88
2,28,127,80
2,28,127,80
2,28,126,88
2,28,127,88
2,28,126,64
2,28,127,80
2,28,126,96
2,28,127,88
2,28,126,80
2,28,127,80
2,28,127,80
2,28,127,104
2,28,126,88
2,28,127,96
2,28,127,88
2,28,127,104
2,28,127,88
2,28,127,96
2,28,127,96
2,28,126,88
2,28,126,96
2,28,127,96
2,28,127,96
2,28,127,104
2,28,127,104
2,28,127,96
2,28,126,104
2,28,127,104
2,28,127,96
2,28,127,96
2,28,126,96
2,28,127,104
2,28,127,104
2,28,126,96
2,28,127,104
2,28,127,104
2,28,127,96
2,28,127,96
2,28,127,88
2,28,127,104
2,28,127,96
2,28,127,96
2,33,126,104
2,33,126,88
2,33,127,72
2,28,127,88
2,28,127,80
2,28,127,88
2,28,127,96
2,28,127,96
2,28,127,80
2,28,127,96
2,28,127,80
2,28,127,104
2,28,127,88
2,28,127,96
2,28,127,88
2,28,127,88
2,28,127,96
2,28,127,96
2,28,127,88
2,28,127,88
2,28,127,80
2,28,127,88
2,28,126,80
2,28,127,96
2,28,127,88
2,28,127,96
2,28,127,80
2,28,127,88
2,28,127,88
2,28,127,80
2,28,127,96
2,28,127,104
2,33,127,88
2,33,127,96
2,33,127,88
2,28,127,88
2,28,127,80
2,28,127,80
2,28,127,80
2,28,127,96
2,28,126,80
2,28,127,88
2,28,127,88
2,28,126,96
2,28,127,88
2,28,126,96
2,28,126,96
2,28,127,104
2,28,127,96
2,28,127,96
2,28,127,112
2,28,127,96
2,28,126,96
2,28,127,96
2,28,127,88
2,28,127,88
2,28,127,80
2,28,127,96
2,28,127,88
2,28,126,88
2,28,126,88
2,28,126,104
2,28,127,104
2,28,127,88
2,33,127,96
2,33,127,72
2,33,127,80
2,28,127,80
2,28,126,80
2,28,127,80
2,28,126,72
2,28,127,80
2,28,127,80
2,28,127,88
2,28,127,96
2,28,127,88
2,28,127,64
2,28,127,80
2,28,126,96
2,28,127,104
2,28,127,96
2,28,127,96
2,28,127,80
2,28,126,88
2,28,127,64
2,30,127,80
2,30,127,104
2,31,126,80
2,31,126,96
2,32,127,80
2,32,127,96
2,33,127,104
2,33,127,96
2,31,127,96
2,31,127,96
2,30,126,112
2,30,127,112
2,28,127,96
2,28,127,80
2,35,127,8
2,33,127,64
2,34,126,32
2,35,126,72
2,35,126,72
2,35,127,104
2,35,126,96
2,35,127,104
2,35,126,96
2,33,127,64
2,34,127,80
2,35,127,80
2,35,127,80
2,35,126,104
2,35,127,96
2,35,126,88
2,35,127,104
2,33,127,80
2,34,127,80
2,35,127,80
2,35,126,80
2,33,127,72
2,34,127,64
2,35,127,88
2,35,126,80
2,33,127,72
2,34,127,72
2,35,127,64
2,35,127,80
2,33,127,64
2,34,127,56
2,35,126,64
2,28,127,56
2,28,127,32
2,40,127,32
2,40,127,40
2,38,127,32
2,38,127,32
2,40,127,32
2,40,127,40
2,28,127,32
2,28,127,32
2,40,127,32
2,40,127,32
2,38,127,32
2,38,127,32
2,40,127,32
2,40,127,32
2,28,127,32
2,28,127,32
2,40,127,32
2,40,127,40
2,38,127,32
2,38,127,32
2,40,127,32
2,40,127,40
2,28,127,32
2,28,127,32
2,40,127,40
2,40,127,32
2,38,127,32
2,38,127,32
2,40,127,32
2,40,127,32
2,33,126,40
2,33,127,40
2,45,127,32
2,45,126,32
2,43,127,32
2,43,127,32
2,45,127,32
2,45,127,32
2,33,127,32
2,33,126,32
2,45,126,32
2,45,127,32
2,43,127,32
2,43,127,32
2,45,127,32
2,45,127,32
2,33,127,32
2,33,127,32
2,45,127,32
2,45,126,32
2,43,127,32
2,43,127,32
2,45,127,32
2,45,127,32
2,33,127,32
2,33,126,32
2,45,127,32
2,45,127,32
2,43,127,32
2,43,127,32
2,45,127,32
2,45,127,32
2,35,127,32
2,33,127,64
2,34,127,24
2,35,126,72
2,35,127,72
2,35,127,96
2,35,127,88
2,35,127,96
2,35,127,96
2,33,127,64
2,34,127,88
2,35,127,80
2,35,127,88
2,35,127,96
2,35,127,96
2,35,127,88
2,35,126,96
2,33,127,72
2,34,126,80
2,35,127,80
2,35,127,72
2,33,127,72
2,34,127,64
2,35,127,88
2,35,127,80
2,33,127,64
2,34,127,72
2,35,127,64
2,35,127,80
2,33,126,64
2,34,127,56
2,35,127,64
2,28,127,72
2,28,127,5648
2,40,126,160
2,38,127,184
2,35,127,144
2,33,127,24
2,28,127,1280
2,40,127,304
2,38,127,200
2,35,127,216
2,33,127,184
2,28,126,1304
2,40,127,288
2,38,126,192
2,35,127,176
2,33,126,16
2,28,127,1312
2,40,127,344
2,38,127,200
2,35,127,176
2,33,126,0
2,28,127,1312
2,40,127,160
2,38,127,184
2,35,127,152
2,33,127,24
2,28,127,1288
2,40,127,304
2,38,127,184
2,35,127,208
2,33,127,200
2,28,127,1304
2,40,126,288
2,38,127,192
2,35,127,184
2,33,127,8
2,28,127,1320
2,40,127,344
2,38,127,200
2,35,127,176
2,33,127,0
2,30,127,744
2,33,127,184
2,34,127,144
2,35,127,32
2,35,127,64
2,35,127,72
2,35,127,64
2,35,127,72
2,35,127,48
2,35,127,88
2,35,127,72
2,35,127,80
2,33,127,64
2,34,127,80
2,35,126,80
2,35,127,88
2,35,127,96
2,35,127,104
2,35,127,96
2,35,127,96
2,33,127,72
2,34,127,80
2,35,127,80
2,35,127,72
2,33,127,64
2,34,127,64
2,35,127,80
2,35,126,80
2,33,127,64
2,34,127,72
2,35,127,64
2,35,127,88
2,33,127,64
2,34,126,64
2,35,127,64
2,28,127,1976
2,28,127,96
2,28,126,72
2,28,127,72
2,28,127,56
2,28,127,56
2,28,127,40
2,40,127,32
2,40,127,32
2,38,127,40
2,38,127,32
2,40,127,32
2,40,127,40
2,28,127,32
2,28,127,40
2,40,127,32
2,40,126,32
2,38,127,40
2,38,126,32
2,40,127,32
2,40,127,32
2,28,127,32
2,28,127,40
2,40,127,40
2,40,127,32
2,38,127,32
2,38,127,32
2,40,127,32
2,40,127,40
2,28,127,32
2,28,127,40
2,40,127,32
2,40,127,32
2,38,127,32
2,38,127,32
2,40,127,32
2,40,127,32
2,33,127,32
2,33,127,32
2,45,127,32
2,45,127,32
2,43,127,32
2,43,127,32
2,45,127,40
2,45,127,40
2,33,127,40
2,33,127,40
2,45,127,32
2,45,127,32
2,43,127,32
2,43,126,32
2,45,127,32
2,45,126,32
2,33,127,40
2,33,127,32
2,45,127,32
2,45,127,32
2,43,127,32
2,43,127,32
2,45,126,32
2,45,127,40
2,33,127,32
2,33,127,32
2,45,127,32
2,45,127,32
2,43,126,32
2,43,127,32
2,45,126,32
2,45,127,32
2,35,127,32
2,33,127,64
2,34,126,32
2,35,127,80
2,35,127,72
2,35,127,104
2,35,127,88
2,35,127,96
2,35,126,88
2,33,127,80
2,34,127,88
2,35,127,80
2,35,127,88
2,35,126,104
2,35,127,88
2,35,127,88
2,35,126,96
2,33,127,72
2,34,127,80
2,35,127,80
2,35,127,80
2,33,127,64
2,34,127,64
