track,note,velocity,time
1,35,96,1862
1,35,89,32
1,38,93,10
1,40,86,190
1,42,83,168
1,42,89,32
1,40,87,190
1,38,88,186
1,35,90,150
1,35,92,32
1,38,100,6
1,40,92,192
1,42,85,182
1,42,85,32
1,40,94,32
1,38,93,192
1,35,99,8
1,35,96,36
1,38,99,16
1,40,86,192
1,42,91,164
1,42,89,32
1,40,92,22
1,38,97,188
1,35,99,178
1,35,97,36
1,38,104,30
1,40,92,190
1,42,87,8
1,42,93,30
1,40,92,36
1,38,97,188
1,35,97,18
1,35,92,32
1,38,99,32
1,40,89,190
1,42,85,10
1,42,91,32
1,40,92,32
1,38,88,190
1,35,96,172
1,35,90,32
1,38,97,32
1,40,94,30
1,42,89,30
1,42,87,34
1,40,87,32
1,38,90,190
1,40,97,182
1,40,86,32
1,40,96,32
1,40,84,32
1,40,97,32
1,40,85,32
1,40,92,32
1,40,89,32
1,38,100,8
1,38,84,32
1,38,99,32
1,38,99,32
1,38,96,30
1,38,104,34
1,38,104,38
1,38,97,30
1,35,100,28
1,35,89,32
1,38,92,22
1,40,81,188
1,42,87,172
1,42,87,34
1,40,93,30
1,38,90,186
1,35,97,178
1,35,96,32
1,38,90,30
1,40,92,194
1,42,87,176
1,42,83,30
1,40,92,34
1,38,96,188
1,38,93,36
1,38,84,28
1,38,100,32
1,38,83,32
1,38,94,36
1,38,84,28
1,38,97,32
1,38,86,32
1,40,99,36
1,40,90,32
1,40,93,28
1,40,90,32
1,40,90,32
1,40,89,32
1,40,99,32
1,40,86,32
1,35,99,34
1,35,76,96
1,35,99,102
1,35,74,76
1,35,84,92
1,35,81,82
1,35,89,90
1,35,80,74
1,35,92,96
1,35,80,76
1,35,93,96
1,35,76,90
1,35,96,118
1,35,80,88
1,35,97,104
1,35,84,92
1,35,86,104
1,35,74,92
1,35,94,114
1,35,76,94
1,35,86,104
1,35,78,88
1,35,93,102
1,35,74,92
1,35,94,102
1,35,86,90
1,35,85,100
1,35,76,92
1,35,89,106
1,35,76,82
1,35,92,114
1,35,83,90
1,35,83,86
1,35,79,94
1,35,90,112
1,35,80,90
1,35,93,104
1,35,81,108
1,35,89,112
1,35,85,94
1,35,89,102
1,35,80,90
1,35,96,106
1,35,87,92
1,35,93,104
1,35,90,102
1,35,89,102
1,35,92,90
1,33,89,88
1,33,79,78
1,33,90,102
1,33,78,90
1,33,90,106
1,33,80,86
1,33,88,104
1,33,87,90
1,28,105,36
1,28,89,72
1,28,93,90
1,28,89,90
1,28,94,72
1,28,89,92
1,28,94,100
1,28,93,96
1,35,92,62
1,35,80,80
1,35,90,94
1,35,86,90
1,35,90,92
1,35,80,88
1,35,96,106
1,35,85,88
1,35,90,108
1,35,81,88
1,35,96,108
1,35,88,92
1,35,94,104
1,35,84,100
1,35,92,96
1,35,87,86
1,33,94,68
1,33,73,80
1,33,96,96
1,33,80,100
1,33,92,100
1,33,80,88
1,33,89,112
1,33,92,92
1,28,99,66
1,28,92,92
1,28,97,100
1,28,86,90
1,28,94,92
1,28,90,90
1,28,100,94
1,28,99,78
1,35,99,62
1,35,83,92
1,35,94,84
1,35,83,92
1,35,93,102
1,35,79,88
1,35,94,116
1,35,89,94
1,35,92,104
1,35,90,92
1,35,93,102
1,35,90,92
1,35,96,116
1,35,92,90
1,35,97,98
1,35,93,106
1,33,94,84
1,33,88,94
1,33,97,118
1,33,90,104
1,33,94,114
1,33,87,88
1,33,99,120
1,33,93,98
1,33,96,94
1,33,92,88
1,33,100,108
1,33,92,102
1,33,96,116
1,33,93,104
1,33,97,104
1,33,84,80
1,35,99,32
1,35,86,86
1,35,96,90
1,35,90,84
1,35,97,104
1,35,89,92
1,35,97,104
1,35,96,102
1,35,99,100
1,35,97,96
1,35,99,116
1,35,99,94
1,35,102,116
1,35,97,98
1,35,105,106
1,35,96,84
1,33,105,24
1,33,84,90
1,33,96,90
1,33,83,80
1,33,96,104
1,33,84,88
1,33,89,104
1,33,96,106
1,28,105,34
1,28,94,70
1,28,97,78
1,28,96,78
1,28,97,96
1,28,93,76
1,28,102,90
1,28,96,92
1,35,97,32
1,35,89,92
1,35,102,96
1,35,86,90
1,35,99,114
1,35,92,90
1,35,97,104
1,35,87,104
1,35,99,110
1,35,83,88
1,35,97,106
1,35,89,90
1,35,97,106
1,35,89,92
1,35,94,90
1,35,99,92
1,40,102,188
1,40,99,86
1,40,100,96
1,40,93,88
1,40,102,106
1,40,93,78
1,40,100,106
1,40,93,98
1,38,100,24
1,38,94,80
1,38,100,92
1,38,93,76
1,38,100,102
1,38,102,96
1,38,100,86
1,38,102,82
1,35,97,38
1,35,80,90
1,35,99,94
1,35,79,104
1,35,96,116
1,35,96,88
1,35,84,82
1,35,82,92
1,35,100,102
1,35,80,86
1,35,94,106
1,35,85,90
1,35,99,106
1,35,88,82
1,35,93,94
1,35,88,88
1,40,102,6
1,40,96,88
1,40,102,92
1,40,97,94
1,40,100,92
1,40,102,76
1,40,102,94
1,40,99,76
1,38,105,34
1,35,105,226
1,35,88,82
1,35,104,100
1,35,84,74
1,35,96,94
1,35,89,76
1,35,97,106
1,35,94,92
1,35,97,104
1,35,89,100
1,35,94,90
1,35,89,92
1,35,92,92
1,35,88,90
1,35,96,92
1,35,93,88
1,35,94,104
1,35,85,90
1,35,97,114
1,35,87,90
1,35,99,116
1,35,89,94
1,35,96,112
1,35,90,90
1,35,97,104
1,35,93,102
1,35,97,94
1,35,88,104
1,35,96,102
1,35,90,100
1,35,97,116
1,35,93,98
1,33,105,106
1,33,83,104
1,33,104,112
1,33,88,102
1,33,100,106
1,33,90,102
1,33,94,104
1,33,94,88
1,28,100,82
1,28,82,74
1,28,100,96
1,28,86,80
1,28,90,90
1,28,84,92
1,28,94,92
1,28,94,82
1,35,97,56
1,35,85,100
1,35,97,102
1,35,86,92
1,35,96,114
1,35,90,88
1,35,96,104
1,35,90,96
1,35,92,104
1,35,87,90
1,35,93,104
1,35,90,104
1,35,93,102
1,35,89,104
1,35,96,114
1,35,92,88
1,33,97,104
1,33,82,92
1,33,90,114
1,33,84,104
1,33,94,96
1,33,83,78
1,33,92,92
1,33,93,102
1,28,99,92
1,28,82,70
1,28,92,92
1,28,87,90
1,28,96,90
1,28,89,90
1,28,97,86
1,28,99,90
1,35,99,44
1,35,82,90
1,35,96,96
1,35,92,104
1,35,96,112
1,35,88,102
1,35,99,120
1,35,97,104
1,35,96,106
1,35,94,100
1,35,97,108
1,35,94,98
1,35,97,104
1,35,96,100
1,35,97,102
1,35,100,94
1,33,97,100
1,33,90,92
1,33,104,102
1,33,90,96
1,33,102,104
1,33,92,92
1,33,102,104
1,33,94,84
1,33,97,102
1,33,93,104
1,33,100,102
1,33,92,102
1,33,102,118
1,33,96,102
1,33,104,104
1,33,96,102
1,35,100,82
1,35,90,104
1,35,96,118
1,35,92,90
1,35,97,114
1,35,87,90
1,35,102,116
1,35,97,92
1,35,104,106
1,35,99,100
1,35,102,112
1,35,97,92
1,35,105,104
1,35,99,88
1,35,99,90
1,35,92,80
1,33,105,30
1,33,83,80
1,33,94,92
1,33,85,88
1,33,94,102
1,33,83,92
1,33,94,98
1,33,96,90
1,28,105,70
1,28,92,72
1,28,99,90
1,28,97,82
1,28,102,92
1,28,99,92
1,28,102,90
1,28,100,100
1,35,105,44
1,35,90,82
1,35,105,106
1,35,86,90
1,35,102,116
1,35,99,102
1,35,99,90
1,35,94,104
1,35,105,102
1,35,92,92
1,35,105,112
1,35,99,106
1,35,99,90
1,35,90,88
1,35,99,92
1,35,99,92
1,40,105,192
1,40,96,78
1,40,105,108
1,40,96,86
1,40,104,106
1,40,99,86
1,40,104,84
1,40,99,102
1,38,99,36
1,38,93,90
1,38,105,94
1,38,97,88
1,38,105,116
1,38,104,104
1,38,105,100
1,38,100,96
1,35,97,16
1,35,84,80
1,35,105,106
1,35,87,98
1,35,92,126
1,35,100,104
1,35,90,90
1,35,88,96
1,35,105,118
1,35,80,94
1,35,94,116
1,35,102,102
1,35,99,102
1,35,90,88
1,35,104,106
1,35,102,104
1,40,105,28
1,40,94,80
1,40,105,92
1,40,93,90
1,40,105,82
1,40,99,76
1,40,105,84
1,40,96,88
1,38,105,38
1,35,105,242
1,35,85,104
1,35,105,108
1,35,84,92
1,35,96,106
1,35,94,88
1,35,99,94
1,35,92,104
1,35,97,102
1,35,89,96
1,35,104,116
1,35,89,104
1,35,99,104
1,35,94,102
1,35,105,102
1,35,92,84
1,35,105,108
1,35,94,92
1,35,104,104
1,35,97,104
1,35,97,102
1,35,96,104
1,35,104,104
1,35,96,104
1,35,102,104
1,35,93,100
1,35,105,108
1,35,96,92
1,35,99,102
1,35,97,88
1,35,99,104
1,35,94,102
1,35,105,96
1,35,100,88
1,38,105,26
1,40,92,192
1,42,87,20
1,42,100,90
1,40,99,32
1,38,99,186
1,35,96,4
1,35,100,76
1,38,105,38
1,40,96,194
1,42,91,6
1,42,95,106
1,40,93,32
1,38,100,0
1,40,102,20
1,40,89,94
1,40,105,104
1,40,92,80
1,40,102,104
1,40,97,92
1,40,104,102
1,40,99,102
1,38,105,32
1,38,92,92
1,38,105,104
1,38,102,104
1,38,100,104
1,38,104,104
1,38,102,102
1,38,104,104
1,35,104,46
1,35,100,78
1,38,105,42
1,40,96,190
1,42,91,12
1,42,91,78
1,40,96,46
1,38,100,192
1,35,97,4
1,35,97,68
1,38,104,50
1,40,99,192
1,42,93,16
1,42,98,108
1,40,92,44
1,38,102,6
1,38,97,62
1,38,93,84
1,38,105,100
1,38,90,78
1,38,102,96
1,38,92,90
1,38,104,102
1,38,97,90
1,40,104,46
1,40,99,86
1,40,105,90
1,40,99,90
1,40,104,104
1,40,100,92
1,40,105,104
1,40,99,102
1,35,105,54
1,35,94,96
1,35,99,100
1,35,94,90
1,35,97,92
1,35,87,90
1,35,96,106
1,35,92,82
1,35,96,110
1,35,90,90
1,35,99,104
1,35,93,90
1,35,96,94
1,35,93,90
1,35,96,98
1,35,97,94
1,28,100,62
1,28,92,60
1,28,99,90
1,28,93,88
1,28,100,104
1,28,90,90
1,28,100,102
1,28,94,90
1,28,100,92
1,28,94,88
1,28,99,94
1,28,90,92
1,28,100,102
1,28,93,90
1,28,100,106
1,28,99,102
1,35,105,22
1,35,88,98
1,35,104,106
1,35,88,102
1,35,94,104
1,35,90,92
1,35,99,114
1,35,92,92
1,35,99,106
1,35,92,88
1,35,99,106
1,35,93,102
1,35,100,118
1,35,97,90
1,35,102,104
1,35,100,92
1,38,102,26
1,38,92,78
1,38,102,90
1,38,97,78
1,38,102,98
1,38,102,92
1,38,104,92
1,38,100,92
1,40,105,82
1,40,93,88
1,40,105,92
1,40,100,88
1,40,105,116
1,40,100,90
1,40,105,108
1,40,99,104
1,35,104,32
1,35,86,88
1,35,96,92
1,35,90,92
1,35,100,116
1,35,86,100
1,35,104,122
1,35,89,102
1,35,102,114
1,35,88,104
1,35,105,108
1,35,96,96
1,35,105,96
1,35,102,88
1,35,105,108
1,35,102,88
1,33,105,90
1,33,84,88
1,33,105,106
1,33,87,86
1,33,97,90
1,33,84,82
1,33,96,92
1,33,97,90
1,28,99,56
1,28,93,80
1,28,96,88
1,28,94,78
1,28,97,98
1,28,90,90
1,28,99,96
1,28,100,112
1,35,99,60
1,35,87,100
1,35,100,100
1,35,78,96
1,35,96,104
1,35,99,92
1,35,93,88
1,35,82,92
1,35,100,116
1,35,79,96
1,35,97,112
1,35,80,80
1,35,97,106
1,35,82,88
1,35,96,102
1,35,89,86
1,35,96,106
1,35,81,104
1,35,96,100
1,35,88,90
1,35,94,104
1,35,88,90
1,35,96,106
1,35,92,104
1,35,96,116
1,35,85,102
1,35,94,114
1,35,87,102
1,35,96,104
1,35,89,102
1,35,97,114
1,35,92,88
1,35,97,106
1,35,88,104
1,35,99,114
1,35,88,104
1,35,99,104
1,35,92,88
1,35,99,102
1,35,89,92
1,35,99,106
1,35,89,102
1,35,99,116
1,35,89,102
1,35,97,124
1,35,88,94
1,35,96,114
1,35,87,104
1,35,97,102
1,35,90,102
1,35,96,90
1,35,94,106
1,35,96,112
1,35,96,106
1,35,99,100
1,35,94,94
1,35,100,112
1,35,93,94
1,35,99,114
1,35,94,86
1,35,102,118
1,35,94,104
1,35,100,102
1,35,96,94
1,35,102,114
1,35,89,90
1,35,104,120
1,35,89,112
1,35,97,112
1,35,92,94
1,35,102,116
1,35,88,104
1,35,102,128
1,35,87,104
1,35,100,124
1,35,89,104
1,35,99,126
1,35,89,90
1,35,97,116
1,35,92,94
1,35,104,104
1,35,94,92
1,35,97,108
1,35,96,104
1,35,100,114
1,35,93,100
1,35,100,120
1,35,96,98
1,35,100,108
1,35,94,90
1,35,100,102
1,35,97,102
1,35,102,114
1,35,96,104
1,35,102,116
1,35,96,96
1,35,100,106
1,35,96,112
1,35,102,104
1,35,94,102
1,35,102,112
1,35,96,94
1,35,104,102
1,35,92,102
1,35,105,116
1,35,92,98
1,35,102,106
1,35,97,100
1,35,102,106
1,35,97,100
1,35,100,108
1,35,96,88
1,35,105,108
1,35,99,104
1,35,99,100
1,35,99,102
1,35,104,110
1,35,97,108
1,35,102,98
1,35,97,94
1,35,105,102
1,35,96,90
1,35,105,102
1,35,99,92
1,35,100,104
1,35,97,102
1,35,99,92
1,35,102,104
1,40,105,22
1,40,100,84
1,40,105,104
1,40,99,90
1,40,102,102
1,40,99,100
1,40,104,106
1,40,97,104
1,38,104,68
1,38,97,98
1,38,105,104
1,38,104,90
1,38,105,104
1,38,105,106
1,38,105,102
1,38,99,88
1,35,102,50
1,35,86,90
1,35,102,104
1,35,88,88
1,35,104,102
1,35,96,92
1,35,102,104
1,35,88,92
1,35,105,120
1,35,96,98
1,35,105,108
1,35,97,88
1,35,104,106
1,35,100,88
1,35,105,104
1,35,100,94
1,38,105,10
1,38,102,92
1,38,105,104
1,38,100,94
1,38,104,98
1,38,102,94
1,38,105,100
1,38,96,90
1,40,105,70
1,40,97,100
1,40,105,102
1,40,102,92
1,40,105,102
1,40,100,88
1,40,105,96
1,40,105,98
1,35,100,66
1,35,80,78
1,35,105,108
1,35,85,86
1,35,105,116
1,35,99,88
1,35,99,94
1,35,92,100
1,35,104,108
1,35,92,90
1,35,105,116
1,35,96,100
1,35,105,104
1,35,99,100
1,35,104,104
1,35,104,90
1,40,104,52
1,40,100,74
1,40,105,94
1,40,96,90
1,40,105,104
1,40,99,92
1,40,105,94
1,40,94,90
1,38,105,46
1,38,97,92
1,38,105,118
1,38,105,102
1,38,105,102
1,38,105,102
1,38,105,102
1,38,105,94
1,35,102,64
1,35,89,80
1,35,105,102
1,35,89,88
1,35,102,108
1,35,94,88
1,35,104,94
1,35,97,90
1,35,105,104
1,35,99,92
1,35,104,104
1,35,104,102
1,35,105,102
1,35,99,92
1,35,105,104
1,35,104,102
1,40,105,54
1,40,100,82
1,40,105,100
1,40,99,86
1,40,105,106
1,40,102,88
1,40,105,104
1,40,100,98
1,38,104,20
1,38,99,82
1,38,105,116
1,38,105,104
1,38,105,102
1,38,104,102
1,38,105,102
1,38,105,102
1,35,100,44
1,35,88,80
1,35,104,106
1,35,85,90
1,35,104,116
1,35,94,102
1,35,96,102
1,35,96,98
1,35,100,108
1,35,87,88
1,35,100,102
1,35,97,96
1,35,102,94
1,35,96,90
1,35,102,100
1,35,97,94
1,40,105,40
1,40,100,84
1,40,102,90
1,40,92,84
1,40,102,100
1,40,100,92
1,40,100,90
1,40,96,88
1,38,102,68
1,33,74,166
1,33,76,94
1,33,99,78
1,33,105,90
1,33,105,102
1,35,105,46
2,47,95,7956
2,54,87,0
2,52,97,96
2,59,97,0
2,50,88,0
2,57,95,0
2,66,90,576
2,62,102,0
2,66,99,226
2,62,105,0
2,62,105,214
2,66,98,0
2,47,95,0
2,54,98,0
2,57,97,96
2,50,90,0
2,52,88,0
2,59,102,0
2,62,105,576
2,62,105,206
2,62,105,184
2,47,90,0
2,54,94,0
