track,note,velocity,time
1,29,99,18226
1,29,0,94
1,29,101,194
1,29,0,104
1,29,107,184
1,41,91,0
1,29,0,108
1,41,0,20
1,68,105,544
1,72,103,0
1,63,105,0
1,29,91,192
1,68,0,8
1,63,0,6
1,72,0,12
1,29,0,50
1,67,105,20
1,70,98,0
1,62,105,0
1,62,0,54
1,70,0,4
1,67,0,2
1,60,101,132
1,65,110,0
1,68,75,0
1,68,0,16
1,60,0,36
1,65,0,6
1,62,110,134
1,67,103,0
1,67,0,50
1,62,0,20
1,65,114,122
1,60,111,0
1,60,0,90
1,65,0,4
1,67,113,98
1,62,106,0
1,67,0,66
1,62,0,22
1,65,120,104
1,60,114,0
1,65,0,86
1,60,0,2
1,41,83,104
1,41,0,46
1,67,113,50
1,62,100,0
1,62,0,96
1,67,0,0
1,41,95,96
1,56,108,0
1,60,113,0
1,65,111,0
1,60,0,64
1,65,0,2
1,56,0,12
1,41,0,14
1,41,109,196
1,53,100,0
1,41,0,168
1,53,0,10
1,39,110,14
1,51,90,0
1,51,0,68
1,39,0,2
1,53,113,122
1,41,113,0
1,53,0,92
1,41,0,8
1,36,96,380
1,48,83,0
1,48,0,42
1,36,0,16
1,50,84,38
1,38,93,0
1,50,0,54
1,38,0,12
1,53,103,30
1,41,95,0
1,53,0,70
1,41,0,6
1,53,105,116
1,41,98,0
1,41,0,80
1,53,0,30
1,38,73,82
1,38,0,28
1,53,113,68
1,41,100,0
1,41,0,174
1,53,0,6
1,50,93,12
1,38,98,0
1,38,0,50
1,50,0,6
1,43,114,136
1,55,111,0
1,43,0,90
1,41,91,6
1,53,95,0
1,55,0,12
1,53,0,40
1,41,0,4
1,53,106,232
1,41,116,0
1,41,0,66
1,53,0,0
1,50,80,126
1,38,97,0
1,38,0,40
1,50,0,8
1,53,97,48
1,41,113,0
1,53,0,66
1,41,0,14
1,41,106,112
1,53,101,0
1,41,0,64
1,53,0,4
1,38,90,124
1,38,0,28
1,53,105,68
1,41,114,0
1,41,0,144
1,53,0,26
1,50,88,22
1,38,103,0
1,38,0,62
1,50,0,12
1,41,113,118
1,53,110,0
1,53,0,94
1,41,0,6
1,53,103,572
1,41,98,0
1,53,0,56
1,41,0,4
1,41,98,132
1,53,91,0
1,41,0,54
1,53,0,2
1,38,100,40
1,50,79,0
1,50,0,52
1,38,0,0
1,41,110,140
1,53,109,0
1,53,0,74
1,41,0,22
1,38,103,96
1,38,0,52
1,68,107,140
1,72,103,0
1,63,102,0
1,63,0,110
1,68,0,18
1,72,0,12
1,68,107,52
1,72,106,0
1,63,102,0
1,68,0,88
1,72,0,12
1,63,0,2
1,70,105,90
1,67,111,0
1,62,110,0
1,70,0,166
1,67,0,8
1,62,0,2
1,41,92,16
1,41,0,42
1,65,111,54
1,60,102,0
1,65,0,42
1,60,0,4
1,41,95,146
1,56,108,0
1,60,113,0
1,65,111,0
1,60,0,64
1,65,0,2
1,56,0,12
1,41,0,14
1,41,109,196
1,53,100,0
1,41,0,168
1,53,0,10
1,39,110,14
1,51,90,0
1,51,0,68
1,39,0,2
1,53,113,122
1,41,113,0
1,53,0,92
1,41,0,8
1,36,96,380
1,48,83,0
1,48,0,42
1,36,0,16
1,50,84,38
1,38,93,0
1,50,0,54
1,38,0,12
1,53,103,30
1,41,95,0
1,53,0,70
1,41,0,6
1,53,105,116
1,41,98,0
1,41,0,80
1,53,0,30
1,38,73,82
1,38,0,28
1,53,113,68
1,41,100,0
1,41,0,174
1,53,0,6
1,50,93,12
1,38,98,0
1,38,0,50
1,50,0,6
1,43,114,136
1,55,111,0
1,43,0,90
1,41,91,6
1,53,95,0
1,55,0,12
1,53,0,40
1,41,0,4
1,53,106,232
1,41,116,0
1,41,0,66
1,53,0,0
1,50,80,126
1,38,97,0
1,38,0,40
1,50,0,8
1,53,97,48
1,41,113,0
1,53,0,66
1,41,0,14
1,41,106,112
1,53,101,0
1,41,0,64
1,53,0,4
1,38,90,124
1,38,0,28
1,53,105,68
1,41,114,0
1,41,0,144
1,53,0,26
1,50,88,22
1,38,103,0
1,38,0,62
1,50,0,12
1,41,113,118
1,53,110,0
1,53,0,94
1,41,0,6
1,53,103,572
1,41,98,0
1,53,0,56
1,41,0,4
1,41,98,132
1,53,91,0
1,41,0,54
1,53,0,2
1,38,100,40
1,50,79,0
1,50,0,52
1,38,0,0
1,41,110,140
1,53,109,0
1,53,0,74
1,41,0,22
1,38,103,96
1,38,0,52
1,68,107,140
1,72,103,0
1,63,102,0
1,63,0,110
1,68,0,18
1,72,0,12
1,68,107,52
1,72,106,0
1,63,102,0
1,68,0,88
1,72,0,12
1,63,0,2
1,70,105,90
1,67,111,0
1,62,110,0
1,70,0,166
1,67,0,8
1,62,0,2
1,41,92,16
1,41,0,42
1,65,111,54
1,60,102,0
1,65,0,42
1,60,0,4
1,41,106,50
1,63,96,0
1,56,108,0
1,65,110,0
1,60,111,0
1,29,91,192
1,41,0,100
1,29,0,8
1,56,0,50
1,56,50,34
1,29,101,128
1,41,100,0
1,41,0,64
1,29,0,12
1,41,105,180
1,29,109,0
1,41,0,72
1,29,0,18
1,65,0,540
1,60,0,6
1,56,0,2
1,63,0,2
1,63,82,64
1,56,83,0
1,65,84,0
1,60,91,0
1,41,81,192
1,29,100,64
1,41,0,46
1,29,0,28
1,56,0,114
1,56,77,4
1,29,93,128
1,41,89,0
1,41,0,64
1,29,0,6
1,29,105,186
1,41,103,0
1,41,0,74
1,29,0,8
1,63,0,536
1,65,0,8
1,60,0,4
1,56,0,20
1,56,112,118
1,65,110,0
1,60,107,0
1,61,104,0
1,34,117,0
1,34,0,102
1,34,104,90
1,34,0,110
1,56,0,20
1,56,76,62
1,34,107,128
1,34,0,70
1,60,0,52
1,58,77,134
1,34,110,0
1,56,0,332
1,56,75,52
1,58,0,36
1,65,0,76
1,61,0,18
1,56,0,26
1,56,82,36
1,60,109,0
1,34,0,106
1,34,91,86
1,34,0,114
1,61,95,14
1,34,97,64
1,60,0,126
1,56,0,28
1,58,110,38
1,56,104,0
1,65,109,0
1,61,102,0
1,61,0,2
1,34,0,88
1,34,80,102
1,34,0,54
1,34,115,138
1,34,0,150
1,32,110,234
1,32,0,264
1,65,0,26
1,58,0,12
1,56,0,4
1,61,0,2
1,65,107,76
1,56,101,0
1,61,104,0
1,58,105,0
1,30,112,0
1,30,0,114
1,30,112,78
1,30,0,106
1,56,0,34
1,56,71,52
1,30,121,128
1,30,0,68
1,30,121,188
1,30,0,78
1,56,0,262
1,65,0,6
1,58,0,4
1,61,0,4
1,56,84,30
1,61,95,0
1,58,88,0
1,42,78,192
1,56,0,56
1,58,0,8
1,61,0,10
1,42,0,38
1,61,98,16
1,56,100,0
1,58,101,0
1,65,103,0
1,42,88,192
1,42,0,64
1,30,102,0
1,30,0,76
1,30,97,244
1,42,87,0
1,42,0,68
1,30,0,8
1,42,96,180
1,30,101,0
1,42,0,68
1,30,0,26
1,34,98,290
1,65,0,200
1,58,0,26
1,56,0,4
1,61,0,12
1,34,0,108
1,58,98,34
1,35,114,0
1,63,92,0
1,61,102,0
1,66,101,0
1,35,0,96
1,35,120,96
1,35,0,72
1,35,107,248
1,35,0,54
1,35,120,202
1,35,0,68
1,61,0,214
1,63,0,6
1,66,0,6
1,58,0,4
1,58,86,86
1,63,97,0
1,58,0,70
1,63,0,12
1,61,105,110
1,56,94,0
1,56,0,64
1,61,0,26
1,63,79,38
1,58,100,0
1,35,91,192
1,35,0,42
1,36,98,214
1,35,100,0
1,36,0,62
1,35,0,158
1,66,85,100
1,35,109,64
1,66,0,80
1,58,0,48
1,63,0,42
1,63,91,22
1,58,91,0
1,66,88,0
1,35,0,124
1,34,104,68
1,58,0,50
1,34,0,50
1,66,0,6
1,58,85,22
1,63,0,40
1,34,107,24
1,58,0,12
1,34,0,104
1,59,110,76
1,32,115,0
1,54,91,0
1,63,105,0
1,32,0,84
1,32,112,108
1,32,0,82
1,54,0,54
1,54,75,56
1,54,0,128
1,32,119,0
1,54,81,64
1,32,0,8
1,32,117,184
1,59,0,316
1,63,0,4
1,54,0,8
1,63,78,56
1,59,85,0
1,54,79,0
1,54,0,280
1,59,0,4
1,63,0,2
1,54,90,34
1,63,95,0
1,59,103,0
1,32,0,8
1,32,87,56
1,32,0,36
1,32,110,156
1,32,0,66
1,32,113,254
1,32,0,64
1,32,119,192
1,32,0,72
1,59,0,584
1,54,0,40
1,63,0,14
1,30,115,58
1,56,97,0
1,61,107,0
1,58,105,0
1,30,0,90
1,30,108,102
1,30,0,72
1,30,110,248
1,30,0,58
1,56,0,142
1,58,0,16
1,61,0,6
1,30,97,34
1,54,100,0
1,61,98,0
1,58,96,0
1,30,0,130
1,42,100,254
1,42,0,190
1,42,101,130
1,42,0,48
1,42,95,144
1,42,0,62
1,30,94,2
1,30,0,60
1,30,104,260
1,30,0,72
1,30,107,184
1,30,0,96
1,54,0,384
1,58,0,18
1,61,0,40
1,28,106,230
1,56,108,0
1,59,120,0
1,64,105,0
1,28,0,176
1,40,97,16
1,40,0,82
1,40,107,238
1,40,0,84
1,28,110,172
1,28,0,102
1,40,101,282
1,40,0,208
1,40,105,112
1,40,0,58
1,40,99,134
1,40,0,54
1,28,90,10
1,28,0,76
1,40,92,116
1,40,0,42
1,56,0,18
1,59,0,14
1,64,0,4
1,64,83,50
1,56,77,0
1,59,91,0
1,59,0,58
1,56,0,4
1,28,97,2
1,64,0,32
1,56,87,160
1,59,103,0
1,64,97,0
1,28,0,46
1,59,0,574
1,56,0,58
1,64,0,0
1,58,110,90
1,55,120,0
1,63,110,0
1,39,113,0
1,39,0,98
1,39,107,94
1,39,0,82
1,39,101,238
1,39,0,44
1,39,117,212
1,39,0,86
1,55,81,298
1,55,0,4
1,39,81,188
1,39,0,30
1,55,0,4
1,58,0,22
1,63,0,16
1,55,91,56
1,58,87,0
1,63,95,0
1,39,104,256
1,39,0,60
1,55,0,82
1,55,77,50
1,39,87,128
1,55,0,14
1,55,80,50
1,39,0,8
1,58,0,30
1,63,0,40
1,55,0,18
1,43,113,96
1,53,105,0
1,61,113,0
1,58,108,0
1,53,0,330
1,61,0,14
1,43,0,2
1,58,0,10
1,52,109,28
1,60,113,0
1,58,100,0
1,36,109,0
1,52,0,288
1,60,0,2
1,58,0,2
1,36,0,6
1,41,106,86
1,63,96,0
1,56,108,0
1,65,110,0
1,60,111,0
1,29,91,192
1,41,0,100
1,29,0,8
1,56,0,50
1,56,50,34
1,29,101,128
1,41,100,0
1,41,0,64
1,29,0,12
1,41,105,180
1,29,109,0
1,41,0,72
1,29,0,18
1,65,0,540
1,60,0,6
1,56,0,2
1,63,0,2
1,63,82,64
1,56,83,0
1,65,84,0
1,60,91,0
1,41,81,192
1,29,100,64
1,41,0,46
1,29,0,28
1,56,0,114
1,56,77,4
1,29,93,128
1,41,89,0
1,41,0,64
1,29,0,6
1,29,105,186
1,41,103,0
1,41,0,74
1,29,0,8
1,63,0,536
1,65,0,8
1,60,0,4
1,56,0,20
1,56,112,118
1,65,110,0
1,60,107,0
1,61,104,0
1,34,117,0
1,34,0,102
1,34,104,90
1,34,0,110
1,56,0,20
1,56,76,62
1,34,107,128
1,34,0,70
1,60,0,52
1,58,77,134
1,34,110,0
1,56,0,332
1,56,75,52
1,58,0,36
1,65,0,76
1,61,0,18
1,56,0,26
1,56,82,36
1,60,109,0
1,34,0,106
1,34,91,86
1,34,0,114
1,61,95,14
1,34,97,64
1,60,0,126
1,56,0,28
1,58,110,38
1,56,104,0
1,65,109,0
1,61,102,0
1,61,0,2
1,34,0,88
1,34,80,102
1,34,0,54
1,34,115,138
1,34,0,150
1,32,110,234
1,32,0,264
1,65,0,26
1,58,0,12
1,56,0,4
1,61,0,2
1,65,107,76
1,56,101,0
1,61,104,0
1,58,105,0
1,30,112,0
1,30,0,114
1,30,112,78
1,30,0,106
1,56,0,34
1,56,71,52
1,30,121,128
1,30,0,68
1,30,121,188
1,30,0,78
1,56,0,262
1,65,0,6
1,58,0,4
1,61,0,4
1,56,84,30
1,61,95,0
1,58,88,0
1,42,78,192
1,56,0,56
1,58,0,8
1,61,0,10
1,42,0,38
1,61,98,16
1,56,100,0
1,58,101,0
1,65,103,0
1,42,88,192
1,42,0,64
1,30,102,0
1,30,0,76
1,30,97,244
1,42,87,0
1,42,0,68
1,30,0,8
1,42,96,180
1,30,101,0
1,42,0,68
1,30,0,26
1,34,98,290
1,65,0,200
1,58,0,26
1,56,0,4
1,61,0,12
1,34,0,108
1,58,98,34
1,35,114,0
1,63,92,0
1,61,102,0
1,66,101,0
1,35,0,96
1,35,120,96
1,35,0,72
1,35,107,248
1,35,0,54
1,35,120,202
1,35,0,68
1,61,0,214
1,63,0,6
1,66,0,6
1,58,0,4
1,58,86,86
1,63,97,0
1,58,0,70
1,63,0,12
1,61,105,110
1,56,94,0
1,56,0,64
1,61,0,26
1,63,79,38
1,58,100,0
1,35,91,192
1,35,0,42
1,36,98,214
1,35,100,0
1,36,0,62
1,35,0,158
1,66,85,100
1,35,109,64
1,66,0,80
1,58,0,48
1,63,0,42
1,63,91,22
1,58,91,0
1,66,88,0
1,35,0,124
1,34,104,68
1,58,0,50
1,34,0,50
1,66,0,6
1,58,85,22
1,63,0,40
1,34,107,24
1,58,0,12
1,34,0,104
1,59,110,76
1,32,115,0
1,54,91,0
1,63,105,0
1,32,0,84
1,32,112,108
1,32,0,82
1,54,0,54
1,54,75,56
1,54,0,128
1,32,119,0
1,54,81,64
1,32,0,8
1,32,117,184
1,59,0,316
1,63,0,4
1,54,0,8
1,63,78,56
1,59,85,0
1,54,79,0
1,54,0,280
1,59,0,4
1,63,0,2
1,54,90,34
1,63,95,0
1,59,103,0
1,32,0,8
1,32,87,56
1,32,0,36
1,32,110,156
1,32,0,66
1,32,113,254
1,32,0,64
1,32,119,192
1,32,0,72
1,59,0,584
1,54,0,40
1,63,0,14
1,30,115,58
1,56,97,0
1,61,107,0
1,58,105,0
1,30,0,90
1,30,108,102
1,30,0,72
1,30,110,248
1,30,0,58
1,56,0,142
1,58,0,16
1,61,0,6
1,30,97,34
1,54,100,0
1,61,98,0
1,58,96,0
1,30,0,130
1,42,100,254
1,42,0,190
1,42,101,130
1,42,0,48
1,42,95,144
1,42,0,62
1,30,94,2
1,30,0,60
1,30,104,260
1,30,0,72
1,30,107,184
1,30,0,96
1,54,0,384
1,58,0,18
1,61,0,40
1,28,106,230
1,56,108,0
1,59,120,0
1,64,105,0
1,28,0,176
1,40,97,16
1,40,0,82
1,40,107,238
1,40,0,84
1,28,110,172
1,28,0,102
1,40,101,282
1,40,0,208
1,40,105,112
1,40,0,58
1,40,99,134
1,40,0,54
1,28,90,10
1,28,0,76
1,40,92,116
1,40,0,42
1,56,0,18
1,59,0,14
1,64,0,4
1,64,83,50
1,56,77,0
1,59,91,0
1,59,0,58
1,56,0,4
1,28,97,2
1,64,0,32
1,56,87,160
1,59,103,0
1,64,97,0
1,28,0,46
1,59,0,574
1,56,0,58
1,64,0,0
1,58,110,90
1,55,120,0
1,63,110,0
1,39,113,0
1,39,0,98
1,39,107,94
1,39,0,82
1,39,101,238
1,39,0,44
1,39,117,212
1,39,0,86
1,55,0,302
1,39,81,188
1,39,0,30
1,58,0,26
1,63,0,16
1,63,95,56
1,39,82,162
1,58,83,0
1,55,87,0
1,63,86,0
1,27,87,192
1,55,0,28
1,39,0,2
1,55,76,98
1,39,100,64
1,63,0,78
1,55,0,12
1,55,65,16
1,39,0,40
1,27,0,26
1,58,0,6
1,63,0,16
1,55,0,8
1,39,100,96
1,39,0,140
1,27,90,52
1,51,102,128
1,63,98,0
1,39,102,40
1,51,0,142
1,27,0,6
1,63,0,2
1,39,0,0
1,32,123,42
1,60,109,0
1,63,102,0
1,55,103,0
1,60,0,148
1,55,0,10
1,53,87,34
1,58,95,0
1,53,0,60
1,58,0,14
1,63,0,6
1,63,98,90
1,60,113,0
1,55,111,0
