track,note,velocity,time
1,60,34,0
1,60,0,228
1,60,35,12
1,60,0,228
1,60,37,12
1,60,0,228
1,60,38,12
1,60,0,228
1,60,39,12
1,60,0,228
1,60,41,12
1,60,0,228
1,60,43,12
1,60,0,228
1,60,45,12
1,60,0,228
1,60,47,12
1,60,0,228
1,60,47,12
1,60,0,228
1,60,45,12
1,60,0,228
1,60,40,12
1,60,0,228
1,61,48,12
1,61,0,228
1,67,55,12
1,61,42,0
1,61,0,228
1,67,0,0
1,72,57,12
1,61,44,0
1,61,0,228
1,72,0,0
1,73,59,12
1,61,45,0
1,61,0,228
1,73,0,0
1,65,56,12
1,61,43,0
1,61,0,228
1,65,0,0
1,67,55,12
1,61,42,0
1,61,0,228
1,67,0,0
1,70,61,12
1,60,26,240
1,66,31,0
1,66,0,228
1,60,0,0
1,60,26,12
1,66,31,0
1,66,0,228
1,60,0,0
1,70,0,12
1,68,52,0
1,60,30,0
1,66,36,0
1,66,0,228
1,60,0,0
1,66,31,12
1,60,26,0
1,60,0,228
1,66,0,0
1,66,31,12
1,60,26,0
1,60,0,228
1,66,0,0
1,68,0,252
1,73,59,0
1,68,45,0
1,68,0,228
1,73,0,0
1,79,63,12
1,68,49,0
1,68,0,228
1,79,0,0
1,82,68,12
1,68,52,0
1,68,0,228
1,82,0,0
1,80,61,12
1,68,47,0
1,68,0,228
1,80,0,0
1,77,61,12
1,68,47,0
1,68,0,228
1,77,0,0
1,75,71,12
1,63,42,240
1,70,50,0
1,70,0,228
1,63,0,0
1,63,42,12
1,70,50,0
1,70,0,228
1,63,0,0
1,75,0,12
1,77,69,0
1,73,50,240
1,65,42,0
1,65,0,228
1,73,0,0
1,73,48,12
1,65,40,0
1,65,0,228
1,73,0,0
1,77,0,252
1,70,59,0
1,70,0,228
1,75,63,12
1,63,49,0
1,70,49,0
1,70,0,228
1,63,0,0
1,75,0,0
1,79,64,12
1,70,52,0
1,70,0,228
1,79,0,0
1,77,61,12
1,70,47,0
1,70,0,228
1,77,0,0
1,73,61,12
1,70,47,0
1,70,0,228
1,73,0,0
1,72,70,12
1,63,37,240
1,69,45,0
1,69,0,228
1,63,0,0
1,63,37,12
1,69,45,0
1,69,0,228
1,63,0,0
1,72,0,12
1,73,58,0
1,68,35,240
1,61,29,0
1,61,0,228
1,68,0,0
1,68,34,12
1,61,28,0
1,61,0,228
1,68,0,0
1,73,0,252
1,68,50,0
1,61,41,0
1,61,0,228
1,68,0,0
1,67,41,12
1,61,34,0
1,70,53,0
1,70,0,228
1,61,0,0
1,67,0,0
1,73,57,12
1,73,0,228
1,68,39,12
1,60,33,0
1,72,51,0
1,72,0,228
1,60,0,0
1,68,0,0
1,68,46,12
1,60,29,0
1,65,35,0
1,65,0,228
1,60,0,0
1,68,0,0
1,70,55,12
1,58,34,240
1,67,40,0
1,67,0,228
1,58,0,0
1,58,33,12
1,67,39,0
1,67,0,228
1,58,0,0
1,58,34,12
1,67,40,0
1,67,0,228
1,58,0,0
1,58,32,12
1,67,38,0
1,67,0,228
1,58,0,0
1,58,32,12
1,67,38,0
1,67,0,228
1,58,0,0
1,61,64,12
1,61,0,228
1,70,0,12
1,67,68,0
1,61,52,0
1,61,0,228
1,67,0,0
1,61,54,12
1,67,54,0
1,72,70,0
1,72,0,228
1,67,0,0
1,61,0,0
1,73,72,12
1,67,55,0
1,61,55,0
1,61,0,228
1,67,0,0
1,73,0,0
1,65,69,12
1,61,53,0
1,61,0,228
1,65,0,0
1,67,68,12
1,61,52,0
1,61,0,228
1,67,0,0
1,70,72,12
1,60,37,240
1,66,44,0
1,66,0,228
1,60,0,0
1,60,37,12
1,66,44,0
1,66,0,228
1,60,0,0
1,70,0,12
1,68,73,0
1,60,43,0
1,66,52,0
1,66,0,228
1,60,0,0
1,66,44,12
1,60,37,0
1,60,0,228
1,66,0,0
1,66,44,12
1,60,37,0
1,60,0,228
1,66,0,0
1,68,0,252
1,73,72,0
1,68,55,0
1,68,0,228
1,73,0,0
1,68,50,12
1,73,59,0
1,79,75,0
1,79,0,228
1,73,0,0
1,68,0,0
1,73,62,12
1,82,80,0
1,68,52,0
1,68,0,228
1,82,0,0
1,73,0,0
1,73,57,12
1,80,75,0
1,68,48,0
1,68,0,228
1,80,0,0
1,73,0,0
1,68,48,12
1,73,57,0
1,77,75,0
1,77,0,228
1,73,0,0
1,68,0,0
1,75,88,12
1,70,65,240
1,63,54,0
1,63,0,228
1,70,0,0
1,70,65,12
1,63,54,0
1,63,0,228
1,70,0,0
1,75,0,12
1,77,84,0
1,65,54,240
1,73,65,0
1,73,0,228
1,65,0,0
1,65,52,12
1,73,62,0
1,73,0,228
1,65,0,0
1,77,0,252
1,70,72,0
1,70,0,228
1,70,59,12
1,63,51,0
1,75,75,0
1,75,0,228
1,63,0,0
1,70,0,0
1,70,64,12
1,79,80,0
1,79,0,228
1,70,0,0
1,70,57,12
1,77,75,0
1,77,0,228
1,70,0,0
1,63,51,12
1,73,75,0
1,70,57,0
1,70,0,228
1,73,0,0
1,63,0,0
1,72,81,12
1,63,49,240
1,69,58,0
1,69,0,228
1,63,0,0
1,63,49,12
1,69,58,0
1,69,0,228
1,63,0,0
1,72,0,12
1,73,81,0
1,68,56,240
1,61,47,0
1,61,0,228
1,68,0,0
1,68,53,12
1,61,44,0
1,61,0,228
1,68,0,0
1,73,0,252
1,61,64,0
1,61,0,228
1,61,45,12
1,68,68,0
1,68,0,228
1,61,0,0
1,72,57,12
1,72,0,228
1,67,43,12
1,61,35,0
1,70,57,0
1,61,0,228
1,67,0,0
1,61,28,12
1,67,34,0
1,70,0,120
1,68,51,0
1,67,0,108
1,61,0,0
1,68,0,12
1,68,56,0
1,60,39,240
1,60,0,228
1,60,38,12
1,60,0,228
1,60,39,12
1,60,0,228
1,60,37,12
1,60,0,228
1,60,37,12
1,60,0,228
1,68,0,12
1,68,52,0
1,56,26,240
1,62,34,0
1,62,0,228
1,56,0,0
1,56,26,12
1,62,34,0
1,62,0,228
1,56,0,0
1,68,0,12
1,68,51,0
1,56,26,0
1,62,34,0
1,62,0,228
1,56,0,0
1,68,0,0
1,62,34,12
1,56,26,0
1,66,49,0
1,66,0,228
1,56,0,0
1,62,0,0
1,56,22,12
1,64,49,0
1,62,28,0
1,62,0,228
1,64,0,0
1,56,0,0
1,73,62,12
1,61,40,240
1,69,48,0
1,69,0,228
1,61,0,0
1,61,42,12
1,69,50,0
1,69,0,228
1,61,0,0
1,61,44,12
1,69,53,0
1,69,0,228
1,61,0,0
1,61,47,12
1,69,56,0
1,69,0,228
1,61,0,0
1,61,49,12
1,69,59,0
1,69,0,228
1,61,0,0
1,73,0,12
1,73,79,0
1,68,51,240
1,61,39,0
1,61,0,228
1,68,0,0
1,60,33,12
1,72,67,0
1,68,42,0
1,68,0,228
1,72,0,0
1,60,0,0
1,73,0,12
1,60,39,0
1,72,70,0
1,68,48,0
1,68,0,228
1,72,0,0
1,60,0,0
1,70,69,12
1,60,49,0
1,60,0,228
1,70,0,0
1,68,70,12
1,60,39,0
1,60,0,228
1,68,0,0
1,76,72,12
1,64,44,240
1,73,52,0
1,73,0,228
1,64,0,0
1,64,45,12
1,73,54,0
1,73,0,228
1,64,0,0
1,64,47,12
1,73,58,0
1,73,0,228
1,64,0,0
1,64,52,12
1,73,61,0
1,73,0,228
1,64,0,0
1,64,54,12
1,72,64,0
1,72,0,228
1,64,0,0
1,76,0,12
1,76,82,0
1,71,53,240
1,64,40,0
1,64,0,228
1,71,0,0
1,71,53,12
1,75,75,0
1,75,0,228
1,71,0,0
1,76,0,12
1,75,80,0
1,71,53,0
1,71,0,228
1,75,0,0
1,73,77,12
1,71,53,0
1,71,0,228
1,73,0,0
1,71,77,12
1,71,0,228
1,80,84,12
1,74,56,240
1,68,42,0
1,68,0,228
1,74,0,0
1,80,0,12
1,74,57,0
1,80,73,0
1,68,46,0
1,68,0,228
1,80,0,0
1,74,0,0
1,80,77,12
1,80,0,228
1,75,46,12
1,67,45,0
1,79,70,0
1,79,0,228
1,67,0,0
1,75,0,0
1,67,47,12
1,75,68,0
1,75,0,228
1,67,0,0
1,78,61,12
1,72,39,240
1,66,30,0
1,66,0,228
1,72,0,0
1,78,0,12
1,72,45,0
1,66,36,0
1,78,55,0
1,78,0,228
1,66,0,0
1,72,0,0
1,78,59,12
1,78,0,228
1,73,36,12
1,65,36,0
1,77,54,0
1,77,0,228
1,65,0,0
1,73,0,0
1,65,36,12
1,73,52,0
1,73,0,228
1,65,0,0
1,76,58,12
1,76,0,228
1,63,28,12
1,75,53,0
1,70,35,0
1,70,0,228
1,75,0,0
1,63,0,0
1,64,35,12
1,76,53,0
1,70,44,0
1,70,0,228
1,76,0,0
1,64,0,0
1,80,56,12
1,68,36,240
1,76,36,0
1,76,0,228
1,68,0,0
1,80,0,12
1,78,52,0
1,71,44,0
1,66,36,0
1,66,0,228
1,71,0,0
1,78,0,0
1,76,55,12
1,64,29,240
1,71,35,0
1,71,0,228
1,64,0,0
1,64,30,12
1,71,36,0
1,71,0,228
1,64,0,0
1,64,31,12
1,71,37,0
1,71,0,228
1,64,0,0
1,64,32,12
1,71,39,0
1,71,0,228
1,64,0,0
1,64,33,12
1,71,40,0
1,71,0,228
1,64,0,0
1,76,0,252
1,76,60,0
1,72,46,0
1,64,46,0
1,64,0,228
1,72,0,0
1,76,0,0
1,63,44,12
1,75,57,0
1,72,44,0
1,72,0,228
1,75,0,0
1,63,0,0
1,66,50,12
1,78,64,0
1,72,50,0
1,72,0,228
1,78,0,0
1,66,0,0
1,64,45,12
1,72,45,0
1,76,58,0
1,76,0,228
1,72,0,0
1,64,0,0
1,64,45,12
1,72,59,0
1,72,0,228
1,64,0,0
1,76,62,12
1,71,39,240
1,64,33,0
1,64,0,228
1,71,0,0
1,71,40,12
1,64,34,0
1,64,0,228
1,71,0,0
1,71,42,12
1,64,35,0
1,64,0,228
1,71,0,0
1,71,44,12
1,64,36,0
1,64,0,228
1,71,0,0
1,71,45,12
1,64,37,0
1,64,0,228
1,71,0,0
1,76,0,252
1,64,46,0
1,72,46,0
1,76,60,0
1,76,0,228
1,72,0,0
1,64,0,0
1,72,44,12
1,75,57,0
1,63,44,0
1,63,0,228
1,75,0,0
1,72,0,0
1,72,50,12
1,66,50,0
1,78,64,0
1,78,0,228
1,66,0,0
1,72,0,0
1,72,45,12
1,76,58,0
1,64,45,0
1,64,0,228
1,76,0,0
1,72,0,0
1,72,59,12
1,64,45,0
1,64,0,228
1,72,0,0
1,76,62,12
1,64,33,240
1,71,39,0
1,71,0,228
1,64,0,0
1,64,34,12
1,71,40,0
1,71,0,228
1,64,0,0
1,64,35,12
1,71,42,0
1,71,0,228
1,64,0,0
1,64,36,12
1,71,44,0
1,71,0,228
1,64,0,0
1,64,37,12
1,71,45,0
1,71,0,228
1,64,0,0
1,64,35,12
1,71,42,0
1,71,0,228
1,64,0,0
1,64,33,12
1,71,39,0
1,71,0,228
1,64,0,0
1,64,35,12
1,71,41,0
1,71,0,228
1,64,0,0
1,76,0,12
1,71,49,0
1,75,64,0
1,63,40,0
1,63,0,228
1,71,0,0
1,71,51,12
1,63,43,0
1,63,0,228
1,71,0,0
1,75,0,12
1,63,45,0
1,75,67,0
1,71,54,0
1,71,0,228
1,75,0,0
1,63,0,0
1,71,51,12
1,75,71,0
1,63,42,0
1,63,0,228
1,71,0,0
1,71,48,12
1,63,40,0
1,63,0,228
1,71,0,0
1,71,50,12
1,63,42,0
1,63,0,228
1,71,0,0
1,71,53,12
1,63,44,0
1,63,0,228
1,71,0,0
1,71,56,12
1,63,47,0
1,63,0,228
1,71,0,0
1,71,59,12
1,63,49,0
1,63,0,228
1,71,0,0
1,75,0,12
1,62,39,0
1,74,78,0
1,71,56,0
1,71,0,228
1,62,0,0
1,71,60,12
1,68,60,0
1,62,51,0
1,62,0,228
1,68,0,0
1,71,0,0
1,62,53,12
1,68,63,0
1,71,63,0
1,71,0,228
1,68,0,0
1,62,0,0
1,68,67,12
1,71,67,0
1,62,56,0
1,62,0,228
1,71,0,0
1,68,0,0
1,62,59,12
1,68,69,0
1,71,69,0
1,71,0,228
1,68,0,0
1,62,0,0
1,71,73,12
1,68,73,0
1,62,61,0
1,62,0,228
1,68,0,0
1,71,0,0
1,74,0,12
1,67,81,0
1,61,74,0
1,61,0,228
1,67,0,0
1,67,78,12
1,61,59,0
1,61,0,228
1,67,0,0
1,67,62,12
1,72,80,0
1,61,62,0
1,61,0,228
1,72,0,0
1,67,0,0
1,61,63,12
1,67,63,0
1,73,82,0
1,73,0,228
1,67,0,0
1,61,0,0
1,61,60,12
1,65,79,0
1,65,0,228
1,61,0,0
1,61,59,12
1,67,78,0
1,67,0,228
1,61,0,0
1,70,86,12
1,66,50,240
1,60,42,0
1,60,0,228
1,66,0,0
1,66,50,12
1,60,42,0
1,60,0,228
1,66,0,0
1,70,0,12
1,66,59,0
1,60,49,0
1,68,84,0
1,60,0,228
1,66,0,0
1,60,42,12
1,66,50,0
1,66,0,228
1,60,0,0
1,60,42,12
1,66,50,0
1,66,0,228
1,60,0,0
1,68,0,252
1,68,63,0
1,73,82,0
1,73,0,228
1,68,0,0
1,73,67,12
1,79,86,0
1,68,57,0
1,68,0,228
1,79,0,0
1,73,0,0
1,68,59,12
1,73,71,0
1,82,91,0
1,82,0,228
1,73,0,0
1,68,0,0
1,80,86,12
1,73,65,0
1,68,55,0
1,68,0,228
1,73,0,0
1,80,0,0
1,68,55,12
1,73,65,0
1,77,86,0
1,77,0,228
1,73,0,0
1,68,0,0
1,75,101,12
1,70,74,240
1,63,62,0
1,63,0,228
1,70,0,0
1,70,74,12
1,63,62,0
1,63,0,228
1,70,0,0
1,75,0,12
1,77,96,0
1,65,62,240
1,73,74,0
1,73,0,228
1,65,0,0
1,65,59,12
1,73,71,0
1,73,0,228
1,65,0,0
1,77,0,252
1,70,82,0
1,70,0,228
1,70,67,12
1,63,58,0
1,75,86,0
1,75,0,228
1,63,0,0
1,70,0,0
1,70,69,12
1,79,89,0
1,79,0,228
1,70,0,0
1,70,65,12
1,77,86,0
1,77,0,228
1,70,0,0
1,73,86,12
1,63,38,0
1,70,65,0
1,70,0,228
1,63,0,0
1,73,0,0
1,72,96,12
1,63,56,240
1,69,66,0
1,69,0,228
1,63,0,0
1,63,56,12
1,69,66,0
1,69,0,228
1,63,0,0
1,72,0,12
1,73,95,0
1,68,64,240
1,61,54,0
1,61,0,228
1,68,0,0
1,68,61,12
1,61,50,0
1,61,0,228
1,68,0,0
1,73,0,252
1,68,66,0
1,61,54,0
1,61,0,228
1,68,0,0
1,61,45,12
1,67,45,0
1,70,69,0
1,70,0,228
1,67,0,0
1,61,0,0
1,61,54,12
1,73,69,0
1,68,54,0
1,68,0,228
1,73,0,0
1,61,0,0
1,68,52,12
1,60,43,0
1,72,69,0
1,72,0,228
1,60,0,0
1,68,0,0
1,65,46,12
1,68,61,0
1,60,37,0
1,60,0,228
1,68,0,0
1,65,0,0
1,70,70,12
1,58,37,240
1,67,43,0
1,67,0,228
1,58,0,0
1,58,36,12
1,67,42,0
1,67,0,228
1,58,0,0
1,58,37,12
1,67,43,0
1,67,0,228
1,58,0,0
1,58,33,12
1,67,39,0
1,67,0,228
1,58,0,0
1,58,31,12
1,67,37,0
1,67,0,228
1,58,0,0
1,70,0,12
1,71,52,0
1,66,34,240
1,59,26,0
1,59,0,228
1,66,0,0
1,66,34,12
1,59,26,0
1,71,0,120
1,71,34,0
1,71,0,60
1,73,34,0
1,59,0,48
1,66,0,0
1,73,0,12
1,66,34,0
1,59,26,0
1,71,51,0
1,71,0,228
1,59,0,0
1,66,0,0
1,70,49,12
1,58,26,0
1,66,34,0
1,66,0,228
1,58,0,0
1,70,0,0
1,66,28,12
1,59,22,0
1,71,49,0
1,71,0,228
1,59,0,0
1,66,0,0
1,73,52,12
1,68,33,240
1,61,28,0
1,61,0,228
