track,note,velocity,time
1,63,110,780
1,63,0,11
1,63,99,19
1,63,0,15
1,68,115,15
1,68,0,300
1,63,117,0
1,63,0,16
1,63,101,15
1,63,0,15
1,63,101,14
1,63,0,27
1,60,86,11
1,60,0,21
1,63,115,19
1,63,0,17
1,63,115,20
1,63,0,20
1,60,101,19
1,60,0,19
1,63,119,19
1,63,0,33
1,68,117,22
1,68,0,153
1,68,93,28
1,68,0,38
1,63,119,16
1,63,0,33
1,63,119,43
1,63,0,40
1,60,112,6
1,60,0,32
1,60,119,49
1,60,0,39
1,56,127,3
1,56,0,349
1,72,125,738
1,72,0,59
1,73,125,1
1,73,0,60
1,75,80,0
1,75,0,20
1,77,80,0
1,77,0,20
1,75,80,0
1,75,0,20
1,73,78,0
1,73,0,60
1,72,125,0
1,72,0,120
1,70,125,0
1,70,0,120
1,66,125,0
1,66,0,60
1,66,125,0
1,68,125,172
1,66,0,7
1,70,125,55
1,68,0,2
1,70,0,63
1,68,125,2
1,68,0,110
1,63,125,3
1,63,0,59
1,63,125,13
1,63,0,170
1,68,125,4
1,68,0,59
1,63,125,1
1,63,0,59
1,66,125,1
1,66,0,190
1,72,125,92
1,72,0,60
1,73,125,0
1,73,0,60
1,75,81,0
1,75,0,20
1,77,81,0
1,77,0,20
1,75,81,0
1,75,0,20
1,73,81,0
1,73,0,60
1,72,125,0
1,72,0,119
1,70,125,1
1,70,0,119
1,66,125,1
1,66,0,60
1,66,125,0
1,66,0,180
1,68,125,0
1,68,0,60
1,70,125,0
1,70,0,60
1,68,125,0
1,68,0,178
1,68,125,2
1,68,0,59
1,67,125,1
1,67,0,59
1,65,125,1
1,65,0,60
1,67,125,0
1,68,125,115
1,67,0,5
1,68,0,574
1,72,125,84
1,72,0,59
1,73,125,1
1,73,0,60
1,75,79,0
1,75,0,20
1,77,80,0
1,77,0,20
1,75,80,0
1,75,0,20
1,73,80,0
1,73,0,60
1,72,125,0
1,72,0,120
1,70,125,0
1,70,0,120
1,66,125,0
1,66,0,60
1,66,125,0
1,68,125,172
1,66,0,7
1,70,125,55
1,68,0,2
1,70,0,63
1,68,125,2
1,68,0,110
1,63,125,3
1,63,0,59
1,63,125,13
1,63,0,170
1,68,125,4
1,68,0,59
1,63,125,1
1,63,0,59
1,66,125,1
1,66,0,190
1,72,125,92
1,72,0,60
1,73,125,0
1,73,0,60
1,75,79,0
1,75,0,20
1,77,79,0
1,77,0,20
1,75,79,0
1,75,0,20
1,73,78,0
1,73,0,60
1,72,125,0
1,72,0,119
1,70,125,1
1,70,0,119
1,66,125,1
1,66,0,60
1,66,125,0
1,66,0,180
1,68,125,0
1,68,0,60
1,70,125,0
1,70,0,60
1,68,125,0
1,68,0,178
1,68,125,2
1,68,0,59
1,67,125,1
1,67,0,59
1,65,125,1
1,65,0,60
1,67,125,0
1,68,125,115
1,67,0,5
1,68,0,2
1,68,125,120
1,68,0,59
1,67,125,1
1,67,0,59
1,65,125,1
1,65,0,59
1,67,125,1
1,67,0,120
1,68,125,0
1,68,0,439
1,65,125,2861
1,65,0,180
1,65,125,0
1,65,0,59
1,65,125,1
1,65,0,59
1,65,125,1
1,65,0,59
1,67,125,1
1,67,0,59
1,68,125,1
1,68,0,59
1,70,125,1
1,70,0,14
1,72,125,62
1,72,0,59
1,73,125,1
1,73,0,60
1,75,78,0
1,75,0,20
1,77,78,0
1,77,0,20
1,75,78,0
1,75,0,20
1,73,78,0
1,73,0,60
1,72,125,0
1,72,0,120
1,70,125,0
1,70,0,120
1,66,125,0
1,66,0,60
1,66,125,0
1,68,125,172
1,66,0,7
1,70,125,55
1,68,0,2
1,70,0,63
1,68,125,2
1,68,0,110
1,63,125,3
1,63,0,59
1,63,125,13
1,63,0,170
1,68,125,4
1,68,0,59
1,63,125,1
1,63,0,59
1,66,125,1
1,66,0,190
1,72,125,92
1,72,0,60
1,73,125,0
1,73,0,60
1,75,80,0
1,75,0,20
1,77,79,0
1,77,0,20
1,75,77,0
1,75,0,20
1,73,77,0
1,73,0,60
1,72,125,0
1,72,0,119
1,70,125,1
1,70,0,119
1,66,125,1
1,66,0,60
1,66,125,0
1,66,0,180
1,68,125,0
1,68,0,60
1,70,125,0
1,70,0,60
1,68,125,0
1,68,0,178
1,68,125,2
1,68,0,59
1,67,125,1
1,67,0,59
1,65,125,1
1,65,0,60
1,67,125,0
1,68,125,115
1,67,0,5
1,68,0,260
1,68,125,55
1,68,0,59
1,67,126,1
1,67,0,59
1,65,126,1
1,65,0,59
1,67,126,1
1,67,0,120
1,68,126,0
1,68,0,232
1,65,126,3183
1,65,0,180
1,65,126,0
1,65,0,59
1,65,126,1
1,65,0,59
1,65,126,1
1,65,0,59
1,67,126,1
1,67,0,59
1,68,126,1
1,68,0,59
1,70,126,1
1,70,0,10
1,71,126,1
1,71,0,39
1,73,126,63
1,73,0,59
1,74,126,1
1,74,0,60
1,76,78,0
1,76,0,20
1,78,77,0
1,78,0,20
1,76,79,0
1,76,0,20
1,74,76,0
1,74,0,60
1,73,126,0
1,73,0,120
1,71,126,0
1,71,0,120
1,67,126,0
1,67,0,60
1,67,126,0
1,67,0,121
1,73,126,65
1,73,0,59
1,74,126,1
1,74,0,60
1,76,80,0
1,76,0,20
1,78,78,0
1,78,0,20
1,76,77,0
1,76,0,20
1,74,76,0
1,74,0,60
1,73,126,0
1,73,0,120
1,71,126,0
1,71,0,120
1,67,126,0
1,67,0,30
1,67,126,0
1,67,0,32
1,73,126,30
1,73,0,49
1,74,126,1
1,74,0,31
1,76,79,0
1,76,0,20
1,78,78,0
1,78,0,20
1,76,78,0
1,76,0,15
1,74,78,0
1,74,0,15
1,73,126,0
1,73,0,45
1,71,126,0
1,71,0,15
1,67,126,0
1,67,0,20
1,67,126,0
1,67,0,7
1,73,126,30
1,73,0,9
1,74,126,1
1,74,0,30
1,76,78,0
1,76,0,20
1,78,78,0
1,78,0,20
1,76,77,0
1,76,0,10
1,74,75,0
1,74,0,60
1,73,126,0
1,73,0,30
1,71,126,0
1,71,0,1
1,67,126,0
1,67,0,44
1,67,126,0
1,67,0,12
1,73,126,29
1,73,0,29
1,74,126,1
1,74,0,60
1,76,78,0
1,76,0,20
1,78,78,0
1,78,0,20
1,76,77,0
1,76,0,20
1,74,74,0
1,74,0,15
1,73,126,0
1,73,0,105
2,53,125,13040
2,53,125,20
2,53,0,100
2,49,125,0
2,53,0,20
2,49,125,0
2,49,0,100
2,48,125,0
2,49,0,20
2,48,125,0
2,48,0,39
2,46,125,1
2,48,0,19
2,46,125,1
2,46,0,39
2,44,125,1
2,46,0,19
2,44,125,1
2,44,0,100
2,39,125,0
2,44,0,20
2,39,125,0
2,39,0,459
2,39,125,1
2,39,0,19
2,39,125,1
2,39,0,100
2,42,125,0
2,39,0,20
2,42,125,0
2,42,0,160
2,44,125,0
2,42,0,20
2,44,125,0
2,44,0,39
2,39,125,1
2,44,0,19
2,39,125,1
2,39,0,460
2,39,0,20
2,53,125,100
2,53,125,20
2,53,0,100
2,49,125,0
2,53,0,20
2,49,125,0
2,49,0,100
2,48,125,0
2,49,0,20
2,48,125,0
2,48,0,39
2,46,125,1
2,48,0,19
2,46,125,1
2,46,0,39
2,44,125,1
2,46,0,19
2,44,125,1
2,44,0,100
2,39,125,0
2,44,0,20
2,39,125,0
2,39,0,340
2,39,0,20
2,53,126,6820
2,53,126,20
2,53,0,100
2,49,126,0
2,53,0,20
2,49,126,0
2,49,0,100
2,48,126,0
2,49,0,20
2,48,126,0
2,48,0,39
2,46,126,1
2,48,0,19
2,46,126,1
2,46,0,39
2,44,126,1
2,46,0,19
2,44,126,1
2,44,0,100
2,39,126,0
2,44,0,20
2,39,126,0
2,39,0,460
2,39,126,0
2,39,0,20
2,39,126,0
2,39,0,100
2,42,126,0
2,39,0,20
2,42,126,0
2,42,0,160
2,44,126,0
2,42,0,20
2,44,126,0
2,44,0,39
2,39,126,1
2,44,0,19
2,39,126,1
2,39,0,460
2,39,0,20
2,53,126,100
2,53,126,20
2,53,0,100
2,49,126,0
2,53,0,20
2,49,126,0
2,49,0,100
2,48,126,0
2,49,0,20
2,48,126,0
2,48,0,39
2,46,126,1
2,48,0,19
2,46,126,1
2,46,0,39
2,44,126,1
2,46,0,19
2,44,126,1
2,44,0,100
2,39,126,0
2,44,0,20
2,39,126,0
2,39,0,340
2,39,0,20
3,44,93,2400
3,56,95,120
3,60,99,5
3,63,99,5
3,60,0,49
3,56,0,0
3,56,94,1
3,63,0,1
3,60,99,4
3,63,95,5
3,63,0,170
3,44,0,0
3,56,0,0
3,60,0,0
3,56,90,0
3,60,99,5
3,63,105,5
3,63,0,110
3,60,0,0
3,56,0,0
3,44,93,0
3,56,95,120
3,60,99,5
3,63,99,5
3,60,0,49
3,56,0,0
3,56,94,1
3,63,0,1
3,60,99,4
3,63,95,5
3,63,0,170
3,44,0,0
3,56,0,0
3,60,0,0
3,56,90,0
3,60,99,5
3,63,105,5
3,63,0,110
3,60,0,0
3,56,0,0
3,44,93,0
3,56,95,120
3,60,99,5
3,63,99,5
3,60,0,49
3,56,0,0
3,56,94,1
3,63,0,1
3,60,99,4
3,63,95,5
3,63,0,170
3,44,0,0
3,56,0,0
3,60,0,0
3,56,90,0
3,60,99,5
3,63,105,5
3,63,0,110
3,60,0,0
3,56,0,0
3,42,93,0
3,54,95,120
3,58,99,5
3,61,99,5
3,58,0,49
3,54,0,0
3,54,94,1
3,61,0,1
3,58,99,4
3,61,95,5
3,61,0,170
3,42,0,0
3,54,0,0
3,58,0,0
3,54,90,0
3,58,99,5
3,61,105,5
3,61,0,110
3,58,0,0
3,54,0,0
3,44,93,0
3,56,95,120
3,60,99,5
3,63,99,5
3,60,0,49
3,56,0,0
3,56,94,1
3,63,0,1
3,60,99,4
3,63,95,5
3,63,0,170
3,44,0,0
3,56,0,0
3,60,0,0
3,56,90,0
3,60,99,5
3,63,105,5
3,63,0,110
3,60,0,0
3,56,0,0
3,42,93,0
3,54,95,120
3,58,99,5
3,61,99,5
3,58,0,49
3,54,0,0
3,54,94,1
3,61,0,1
3,58,99,4
3,61,95,5
3,61,0,170
3,42,0,0
3,54,0,0
3,58,0,0
3,54,90,0
3,58,99,5
3,61,105,5
3,61,0,110
3,58,0,0
3,54,0,0
3,44,93,0
3,56,95,120
3,60,99,5
3,63,99,5
3,60,0,49
3,56,0,0
3,56,94,1
3,63,0,1
3,60,99,4
3,63,95,5
3,63,0,170
3,44,0,0
3,56,0,0
3,60,0,0
3,56,90,0
3,60,99,5
3,63,105,5
3,63,0,110
3,60,0,0
3,56,0,0
3,42,93,0
3,54,95,120
3,58,99,5
3,61,99,5
3,58,0,49
3,54,0,0
3,54,94,1
3,61,0,1
3,58,99,4
3,61,95,5
3,61,0,170
3,42,0,0
3,54,0,0
3,58,0,0
3,54,90,0
3,58,99,5
3,61,105,5
3,61,0,110
3,58,0,0
3,54,0,0
3,40,70,0
3,40,0,119
3,52,77,1
3,56,94,5
3,59,73,5
3,56,0,109
3,52,0,0
3,59,0,1
3,39,89,0
3,39,0,119
3,51,101,1
3,55,97,5
3,58,93,5
3,58,0,109
3,55,0,0
3,51,0,0
3,44,85,1
3,44,0,119
3,56,101,1
3,60,99,5
3,63,104,5
3,63,0,109
3,60,0,0
3,56,0,0
3,41,93,1
3,41,0,119
3,56,94,1
3,60,94,5
3,65,74,5
3,65,0,109
3,60,0,0
3,56,0,0
3,37,105,1
3,37,0,119
3,56,99,1
3,61,95,5
3,65,81,5
3,65,0,109
3,61,0,0
3,56,0,0
3,39,115,1
3,39,0,60
3,39,105,0
3,39,0,59
3,41,112,1
3,41,0,59
3,43,105,1
3,43,0,59
3,44,93,1
3,56,95,120
3,60,99,5
3,63,99,5
3,60,0,49
3,56,0,0
3,56,94,1
3,63,0,1
3,60,99,4
3,63,95,5
3,63,0,170
3,44,0,0
3,56,0,0
3,60,0,0
3,56,90,0
3,60,99,5
3,63,105,5
3,63,0,110
3,60,0,0
3,56,0,0
3,42,93,0
3,54,95,120
3,58,99,5
3,61,99,5
3,58,0,49
3,54,0,0
3,54,94,1
3,61,0,1
3,58,99,4
3,61,95,5
3,61,0,170
3,42,0,0
3,54,0,0
3,58,0,0
3,54,90,0
3,58,99,5
3,61,105,5
3,61,0,110
3,58,0,0
3,54,0,0
3,44,93,0
3,56,95,120
3,60,99,5
3,63,99,5
3,60,0,49
3,56,0,0
3,56,94,1
3,63,0,1
3,60,99,4
3,63,95,5
3,63,0,170
3,44,0,0
3,56,0,0
3,60,0,0
3,56,90,0
3,60,99,5
3,63,105,5
3,63,0,110
3,60,0,0
3,56,0,0
3,42,93,0
3,54,95,120
3,58,99,5
3,61,99,5
3,58,0,49
3,54,0,0
3,54,94,1
3,61,0,1
3,58,99,4
3,61,95,5
3,61,0,170
3,42,0,0
3,54,0,0
3,58,0,0
3,54,90,0
3,58,99,5
3,61,105,5
3,61,0,110
3,58,0,0
3,54,0,0
3,44,93,0
3,56,95,120
3,60,99,5
3,63,99,5
3,60,0,49
3,56,0,0
3,56,94,1
3,63,0,1
3,60,99,4
3,63,95,5
3,63,0,170
3,44,0,0
3,56,0,0
3,60,0,0
3,56,90,0
3,60,99,5
3,63,105,5
3,63,0,110
3,60,0,0
3,56,0,0
3,42,93,0
3,54,95,120
3,58,99,5
3,61,99,5
3,58,0,49
3,54,0,0
3,54,94,1
3,61,0,1
3,58,99,4
3,61,95,5
3,61,0,170
3,42,0,0
3,54,0,0
3,58,0,0
3,54,90,0
3,58,99,5
3,61,105,5
3,61,0,110
3,58,0,0
3,54,0,0
3,40,70,0
3,40,0,119
3,52,77,1
3,56,94,5
3,59,73,5
3,56,0,109
3,52,0,0
3,59,0,1
3,39,89,0
3,39,0,119
3,51,101,1
3,55,97,5
3,58,93,5
3,58,0,109
3,55,0,0
3,51,0,0
3,44,85,1
3,44,0,119
3,56,101,1
3,60,99,5
3,63,104,5
3,63,0,109
3,60,0,0
3,56,0,0
3,41,93,1
3,41,0,119
3,56,94,1
3,60,94,5
3,65,74,5
3,65,0,109
3,60,0,0
3,56,0,0
3,37,105,1
3,37,0,119
3,56,99,1
3,61,95,5
3,65,81,5
3,65,0,109
3,61,0,0
3,56,0,0
3,39,115,1
3,39,0,60
3,39,105,0
3,39,0,59
3,41,112,1
3,41,0,59
3,43,105,1
3,43,0,59
3,44,104,1
3,56,105,120
3,60,112,5
3,63,110,5
3,63,0,109
3,60,0,0
3,56,0,0
3,44,0,1
3,37,84,0
3,37,0,119
3,56,107,1
3,61,99,5
3,65,85,5
3,65,0,109
3,61,0,0
3,56,0,0
3,44,112,1
3,56,104,120
3,60,110,5
3,63,104,5
3,60,0,109
3,44,0,1
3,56,0,0
3,63,0,0
3,44,101,0
3,60,112,0
3,60,0,59
3,44,0,0
3,42,84,1
3,58,105,0
3,58,0,59
3,42,0,0
3,41,89,1
3,56,99,0
3,56,0,59
3,41,0,0
3,39,89,1
3,54,104,0
3,54,0,59
3,39,0,0
3,37,80,1
3,53,115,0
3,53,0,119
3,37,0,1
3,53,80,0
3,56,86,5
3,61,70,5
3,61,0,110
3,56,0,0
3,53,0,0
3,37,80,0
3,37,0,120
3,53,89,0
3,56,104,5
3,61,81,5
3,61,0,110
3,56,0,0
3,53,0,0
3,44,105,0
3,44,0,120
3,56,99,0
3,60,105,5
3,63,90,5
3,63,0,109
3,60,0,1
3,56,0,0
3,44,112,0
3,44,0,120
3,56,99,0
3,60,99,5
3,63,80,5
3,63,0,110
3,60,0,0
3,56,0,0
3,42,107,0
3,42,0,120
3,54,84,0
3,58,101,5
3,61,95,5
3,61,0,110
3,58,0,0
3,54,0,0
3,42,104,0
3,42,0,120
3,54,101,0
3,58,107,5
3,61,105,5
3,58,0,109
3,61,0,1
3,54,0,0
3,44,112,0
3,44,0,120
3,56,99,0
3,60,105,5
3,63,110,5
3,63,0,109
3,60,0,0
3,56,0,1
3,44,105,0
3,60,104,0
