track,note,velocity,time
1,65,81,9124
1,65,0,272
1,65,89,44
1,65,0,296
1,65,89,4
1,65,0,256
1,65,76,56
1,65,0,840
1,65,98,328
1,65,0,136
1,70,94,24
1,70,0,240
1,58,89,240
1,58,0,236
1,61,110,244
1,61,0,244
1,63,101,76
1,63,0,192
1,63,119,8
1,63,0,1012
1,65,115,504
1,65,0,256
1,65,86,64
1,65,0,332
1,65,98,4
1,65,0,260
1,65,86,56
1,65,0,896
1,65,105,360
1,65,0,120
1,65,99,40
1,65,0,264
1,65,104,220
1,65,0,260
1,67,79,224
1,67,0,276
1,69,91,36
1,69,0,252
1,70,105,396
1,70,0,240
1,73,89,80
1,73,0,168
1,73,105,12
1,73,0,532
1,71,69,4
1,71,0,244
1,73,93,72
1,73,0,180
1,73,105,12
1,73,0,444
1,71,100,60
1,71,0,224
1,75,93,252
1,75,0,264
1,73,99,216
1,73,0,236
1,71,87,84
1,71,0,344
1,73,104,304
1,73,0,240
1,75,99,236
1,75,0,260
1,77,104,216
1,77,0,260
1,75,86,60
1,75,0,320
1,63,105,328
1,63,0,252
1,65,104,68
1,65,0,152
1,65,115,12
1,65,0,284
1,63,98,52
1,63,0,216
1,68,95,96
1,68,0,956
1,65,85,332
1,65,0,152
1,70,73,12
1,70,0,164
1,61,123,152
1,61,0,4
1,61,95,304
1,61,0,4
1,68,99,0
1,68,0,752
1,66,94,340
1,70,104,160
1,66,0,4
1,70,0,208
1,61,94,268
1,61,0,208
1,63,95,272
1,63,0,276
1,61,89,44
1,61,0,136
1,63,101,16
1,63,0,272
1,65,81,696
1,65,0,272
1,65,89,44
1,65,0,296
1,65,89,4
1,65,0,256
1,65,76,56
1,65,0,840
1,65,98,328
1,65,0,136
1,70,94,24
1,70,0,240
1,58,89,240
1,58,0,236
1,61,110,244
1,61,0,244
1,63,101,76
1,63,0,192
1,63,119,8
1,63,0,1012
1,65,115,504
1,65,0,256
1,65,86,64
1,65,0,332
1,65,98,4
1,65,0,260
1,65,86,56
1,65,0,896
1,65,105,360
1,65,0,120
1,65,99,40
1,65,0,264
1,65,104,220
1,65,0,260
1,67,79,224
1,67,0,276
1,69,91,36
1,69,0,252
1,70,105,396
1,70,0,240
1,73,89,80
1,73,0,168
1,73,105,12
1,73,0,532
1,71,69,4
1,71,0,244
1,73,93,72
1,73,0,180
1,73,105,12
1,73,0,444
1,71,100,60
1,71,0,224
1,75,93,252
1,75,0,264
1,73,99,216
1,73,0,236
1,71,87,84
1,71,0,344
1,73,104,304
1,73,0,240
1,75,99,236
1,75,0,260
1,77,104,216
1,77,0,260
1,75,86,60
1,75,0,320
1,63,105,328
1,63,0,252
1,65,104,68
1,65,0,152
1,65,115,12
1,65,0,284
1,63,98,52
1,63,0,216
1,68,95,96
1,68,0,956
1,65,85,332
1,65,0,152
1,70,73,12
1,70,0,164
1,61,123,152
1,61,0,4
1,61,95,304
1,61,0,4
1,68,99,0
1,68,0,752
1,66,94,340
1,70,104,160
1,66,0,4
1,70,0,208
1,61,94,268
1,61,0,208
1,63,95,272
1,63,0,276
1,61,89,44
1,61,0,136
1,63,101,16
1,63,0,272
1,65,112,696
1,65,0,308
1,65,98,12
1,65,0,292
1,65,94,0
1,65,0,316
1,65,104,12
1,65,0,1020
1,65,112,560
1,65,0,308
1,65,98,12
1,65,0,292
1,65,94,0
1,65,0,316
1,65,104,12
1,65,0,1020
1,65,101,552
1,65,0,316
1,65,98,12
1,65,0,340
1,67,89,0
1,67,0,300
1,68,94,8
1,68,0,804
1,67,87,0
1,67,0,316
1,65,90,4
1,65,0,580
1,70,84,0
1,70,0,400
1,67,90,80
1,67,0,284
1,63,95,4
1,63,0,544
1,56,84,2136
1,56,0,280
1,66,80,184
1,65,80,320
1,66,0,12
1,65,0,312
1,63,73,0
1,63,0,300
1,65,95,168
1,65,0,160
1,63,95,0
1,63,0,8
1,61,104,0
1,61,0,892
1,65,81,484
1,65,0,272
1,65,89,44
1,65,0,296
1,65,89,4
1,65,0,256
1,65,76,56
1,65,0,840
1,65,98,328
1,65,0,136
1,70,94,24
1,70,0,240
1,58,89,240
1,58,0,236
1,61,110,244
1,61,0,244
1,63,101,76
1,63,0,192
1,63,119,8
1,63,0,1012
1,65,115,504
1,65,0,256
1,65,86,64
1,65,0,332
1,65,98,4
1,65,0,260
1,65,86,56
1,65,0,896
1,65,105,360
1,65,0,120
1,65,99,40
1,65,0,264
1,65,104,220
1,65,0,260
1,67,79,224
1,67,0,276
1,69,91,36
1,69,0,252
1,70,105,396
1,70,0,240
1,73,89,80
1,73,0,168
1,73,105,12
1,73,0,532
1,71,69,4
1,71,0,244
1,73,93,72
1,73,0,180
1,73,105,12
1,73,0,444
1,71,100,60
1,71,0,224
1,75,93,252
1,75,0,264
1,73,99,216
1,73,0,236
1,71,87,84
1,71,0,344
1,73,104,304
1,73,0,240
1,75,99,236
1,75,0,260
1,77,104,216
1,77,0,260
1,75,86,60
1,75,0,320
1,63,105,328
1,63,0,252
1,65,104,68
1,65,0,152
1,65,115,12
1,65,0,284
1,63,98,52
1,63,0,216
1,68,95,96
1,68,0,956
1,65,85,332
1,65,0,152
1,70,73,12
1,70,0,164
1,61,123,152
1,61,0,4
1,61,95,304
1,61,0,4
1,68,99,0
1,68,0,752
1,66,94,340
1,70,104,160
1,66,0,4
1,70,0,208
1,61,94,268
1,61,0,208
1,63,95,272
1,63,0,276
1,61,89,44
1,61,0,136
1,63,101,16
1,63,0,272
1,65,112,696
1,65,0,308
1,65,98,12
1,65,0,292
1,65,94,0
1,65,0,316
1,65,104,12
1,65,0,1020
1,65,112,560
1,65,0,308
1,65,98,12
1,65,0,292
1,65,94,0
1,65,0,316
1,65,104,12
1,65,0,1020
1,65,101,552
1,65,0,316
1,65,98,12
1,65,0,340
1,67,89,0
1,67,0,300
1,68,94,8
1,68,0,804
1,67,87,0
1,67,0,316
1,65,90,4
1,65,0,580
1,70,84,0
1,70,0,400
1,67,90,80
1,67,0,284
1,63,95,4
1,63,0,544
1,56,84,2136
1,56,0,280
1,66,80,184
1,65,80,320
1,66,0,12
1,65,0,312
1,63,73,0
1,63,0,300
1,65,95,168
1,65,0,160
1,63,95,0
1,63,0,8
1,61,104,0
1,61,0,892
1,65,81,484
1,65,0,272
1,65,89,44
1,65,0,296
1,65,89,4
1,65,0,256
1,65,76,56
1,65,0,840
1,65,98,328
1,65,0,136
1,70,94,24
1,70,0,240
1,58,89,240
1,58,0,236
1,61,110,244
1,61,0,244
1,63,101,76
1,63,0,192
1,63,119,8
1,63,0,1012
1,65,115,56
1,65,0,40
1,65,86,44
1,65,0,16
1,65,98,4
1,65,0,8
1,65,86,56
1,65,0,44
1,65,105,16
1,65,0,60
1,65,99,40
1,65,0,32
1,65,104,44
1,65,0,32
1,67,79,48
1,67,0,52
1,69,91,28
1,69,0,12
1,70,105,4
1,70,0,32
1,73,89,52
1,73,0,12
1,73,105,12
1,73,0,532
2,56,99,70564
2,56,0,308
2,56,101,12
2,56,0,628
2,56,95,12
2,56,0,308
2,58,99,8
2,58,0,1768
2,56,105,796
2,56,0,308
2,56,98,12
2,56,0,628
2,56,94,12
2,56,0,308
2,58,99,12
2,58,0,1764
2,56,89,788
2,56,0,316
2,56,84,12
2,56,0,628
2,58,85,12
2,58,0,308
2,58,94,12
2,55,85,3036
2,58,0,4
2,55,0,956
2,56,93,0
2,56,0,680
2,56,112,284
2,56,0,312
2,56,95,8
2,56,0,308
2,55,80,4
2,55,0,320
2,54,105,0
2,54,0,940
2,56,99,36028
2,56,0,308
2,56,101,12
2,56,0,628
2,56,95,12
2,56,0,308
2,58,99,8
2,58,0,1768
2,56,105,796
2,56,0,308
2,56,98,12
2,56,0,628
2,56,94,12
2,56,0,308
2,58,99,12
2,58,0,1764
2,56,89,788
2,56,0,316
2,56,84,12
2,56,0,628
2,58,85,12
2,58,0,308
2,58,94,12
2,55,85,3036
2,58,0,4
2,55,0,956
2,56,93,0
2,56,0,680
2,56,112,284
2,56,0,312
2,56,95,8
2,56,0,308
2,55,80,4
2,55,0,320
2,54,105,0
2,54,0,940
3,37,127,964
3,65,78,476
3,61,84,0
3,56,81,4
3,56,0,308
3,61,0,0
3,65,0,0
3,61,78,8
3,65,71,0
3,56,71,4
3,65,0,632
3,61,0,0
3,56,0,4
3,61,81,4
3,56,73,0
3,65,77,0
3,65,0,304
3,56,0,4
3,61,0,0
3,61,84,12
3,56,84,0
3,65,80,0
3,37,0,148
3,61,0,4
3,56,0,4
3,65,0,0
3,42,115,0
3,58,98,476
3,61,104,0
3,65,107,0
3,65,0,312
3,61,0,0
3,58,0,0
3,65,78,8
3,61,86,0
3,58,77,0
3,58,0,476
3,61,0,0
3,65,0,0
3,56,99,4
3,65,94,4
3,61,98,0
3,61,0,156
3,65,0,0
3,56,0,0
3,58,99,0
3,61,99,0
3,65,107,0
3,65,0,300
3,61,0,0
3,58,0,0
3,42,0,20
3,44,94,0
3,44,0,160
3,37,127,8
3,65,78,476
3,61,84,0
3,56,81,4
3,56,0,308
3,61,0,0
3,65,0,0
3,61,78,8
3,65,71,0
3,56,71,4
3,65,0,632
3,61,0,0
3,56,0,4
3,61,81,4
3,56,73,0
3,65,77,0
3,65,0,304
3,56,0,4
3,61,0,0
3,61,84,12
3,56,84,0
3,65,80,0
3,37,0,148
3,61,0,4
3,56,0,4
3,65,0,0
3,42,115,0
3,58,98,476
3,61,104,0
3,65,107,0
3,65,0,312
3,61,0,0
3,58,0,0
3,65,78,8
3,61,86,0
3,58,77,0
3,58,0,476
3,61,0,0
3,65,0,0
3,56,99,4
3,65,94,4
3,61,98,0
3,61,0,156
3,65,0,0
3,56,0,0
3,58,99,0
3,61,99,0
3,65,107,0
3,65,0,300
3,61,0,0
3,58,0,0
3,42,0,20
3,44,94,0
3,44,0,160
3,37,65,0
3,61,73,480
3,60,76,0
3,65,80,4
3,56,90,0
3,56,0,308
3,60,0,0
3,65,0,0
3,61,0,0
3,65,84,12
3,61,73,0
3,60,76,0
3,56,85,0
3,56,0,628
3,61,0,0
3,60,0,0
3,65,0,0
3,65,77,12
3,61,68,0
3,60,70,0
3,56,84,0
3,60,0,156
3,61,0,0
3,65,0,8
3,56,0,136
3,61,89,12
3,65,90,0
3,58,101,0
3,37,0,164
3,42,67,0
3,58,0,472
3,65,0,0
3,61,0,8
3,61,84,4
3,65,85,0
3,58,84,0
3,58,0,300
3,65,0,0
3,61,0,0
3,58,84,12
3,61,93,0
3,65,99,0
3,65,0,472
3,61,0,0
3,58,0,4
3,56,85,4
3,61,94,0
3,65,98,0
3,65,0,160
3,61,0,0
3,56,0,4
3,61,95,4
3,65,99,0
3,58,105,0
3,58,0,304
3,65,0,0
3,61,0,0
3,61,68,12
3,65,68,0
3,58,65,0
3,58,0,120
3,65,0,0
3,61,0,0
3,42,0,40
3,42,73,0
3,61,65,484
3,58,64,0
3,65,56,0
3,65,0,300
3,61,0,0
3,58,0,4
3,61,71,8
3,65,66,4
3,58,77,0
3,58,0,472
3,65,0,0
3,61,0,0
3,61,76,12
3,56,89,0
3,65,59,0
3,65,0,152
3,56,0,0
3,61,0,0
3,61,78,8
3,58,82,0
3,65,73,0
3,65,0,300
3,58,0,0
3,61,0,4
3,61,84,8
3,58,89,0
3,65,76,0
3,65,0,156
3,58,0,4
3,61,0,0
3,42,0,4
3,47,87,4
3,63,99,476
3,58,84,4
3,59,81,0
3,59,0,304
3,58,0,0
3,63,0,0
3,58,82,8
3,63,86,0
3,59,78,0
3,59,0,468
3,58,0,0
3,63,0,4
3,63,78,8
3,56,77,0
3,59,72,0
3,59,0,160
3,56,0,0
3,63,0,0
3,59,97,4
3,63,105,0
3,58,101,4
3,58,0,308
3,47,0,0
3,59,0,0
3,63,0,0
3,44,115,8
3,44,0,152
3,37,65,8
3,61,73,480
3,60,76,0
3,65,80,4
3,56,90,0
3,56,0,308
3,60,0,0
3,65,0,0
3,61,0,0
3,65,84,12
3,61,73,0
3,60,76,0
3,56,85,0
3,56,0,628
3,61,0,0
3,60,0,0
3,65,0,0
3,65,77,12
3,61,68,0
3,60,70,0
3,56,84,0
3,60,0,156
3,61,0,0
3,65,0,8
3,56,0,136
3,61,89,12
3,65,90,0
3,58,101,0
3,37,0,164
3,42,67,0
3,58,0,472
3,65,0,0
3,61,0,8
3,61,84,4
3,65,85,0
3,58,84,0
3,58,0,300
3,65,0,0
3,61,0,0
3,58,84,12
3,61,93,0
3,65,99,0
3,65,0,472
3,61,0,0
3,58,0,4
3,56,85,4
3,61,94,0
3,65,98,0
3,65,0,160
3,61,0,0
3,56,0,4
3,61,95,4
3,65,99,0
3,58,105,0
3,58,0,304
3,42,0,0
3,61,0,0
3,65,0,0
3,42,89,12
3,41,105,120
3,42,0,36
3,65,85,4
3,60,94,0
3,58,89,0
3,58,0,472
3,60,0,0
3,65,0,0
3,60,94,8
3,58,94,0
3,65,94,0
3,65,0,464
3,58,0,0
3,60,0,4
3,60,95,12
3,65,93,4
3,57,93,0
3,57,0,468
3,65,0,0
3,60,0,0
3,60,82,12
3,57,80,0
3,65,93,0
3,41,0,140
3,53,85,172
3,60,0,124
3,65,0,24
3,57,0,0
3,53,0,12
3,58,89,8
3,65,82,0
3,61,85,0
3,46,112,0
3,61,0,308
3,58,0,0
3,65,0,0
3,61,98,4
3,58,84,4
3,65,81,0
3,61,0,456
3,65,0,4
3,58,0,0
3,58,99,16
3,61,105,0
3,65,86,0
3,56,94,480
3,58,0,4
3,65,0,4
3,61,0,0
3,56,0,152
3,65,80,0
3,58,84,0
3,61,90,0
3,46,0,232
3,61,0,84
3,58,0,4
3,46,112,0
3,65,0,4
3,46,0,104
3,63,90,56
3,56,80,0
3,59,73,0
3,44,105,0
3,59,0,480
3,63,0,0
3,56,0,0
3,59,83,0
3,63,99,0
3,56,82,0
3,56,0,480
3,63,0,0
3,59,0,0
3,63,93,0
3,59,85,0
3,56,76,0
3,56,0,480
3,59,0,0
3,63,0,0
3,63,89,0
3,59,85,0
3,56,78,0
3,44,0,176
3,44,101,148
3,44,0,140
3,56,0,16
3,59,0,0
3,63,0,0
3,66,65,0
3,61,81,0
3,56,73,0
3,37,99,0
3,56,0,480
3,66,0,0
3,61,0,0
3,66,80,0
3,61,89,0
3,56,80,0
3,56,0,480
3,61,0,0
3,66,0,0
3,65,80,0
3,56,90,0
3,61,95,0
3,61,0,480
3,56,0,0
3,65,0,0
3,56,94,0
3,61,95,0
3,65,84,0
3,37,0,344
3,56,0,136
3,61,0,0
3,65,0,0
3,58,95,4
3,61,95,0
3,65,89,0
3,65,0,432
3,58,0,0
3,61,0,4
3,61,99,44
3,65,89,0
3,58,99,0
3,58,0,308
3,65,0,4
3,61,0,0
3,42,82,8
3,42,0,120
3,58,101,40
3,65,95,0
3,61,105,0
3,65,0,252
3,61,0,4
3,58,0,0
3,61,99,56
3,65,90,0
3,58,99,4
3,65,0,440
3,58,0,8
3,61,0,24
3,42,84,12
3,42,0,112
3,61,84,40
3,66,76,0
3,57,82,0
3,66,0,400
3,57,0,8
3,61,0,8
3,61,86,64
3,66,80,0
3,57,81,0
3,57,0,320
3,66,0,0
3,61,0,8
3,42,95,0
3,42,0,124
3,66,90,28
3,61,105,0
3,57,97,4
3,66,0,244
3,57,0,28
3,61,0,12
3,61,86,40
3,57,68,0
3,66,89,0
3,42,82,476
3,66,0,4
3,57,0,0
3,61,0,4
3,42,0,140
3,65,80,16
3,60,99,4
3,56,98,0
3,53,105,4
3,56,0,400
3,65,0,0
3,60,0,4
3,60,90,48
3,56,90,0
3,65,84,0
3,65,0,388
3,56,0,8
3,60,0,8
3,60,105,84
3,56,105,0
3,65,99,0
3,51,93,320
3,53,0,28
3,65,0,8
3,60,0,0
3,56,0,0
3,51,0,120
3,56,105,8
3,65,105,0
3,60,117,0
3,53,112,0
3,60,0,264
3,56,0,0
3,65,0,0
3,53,0,20
3,53,119,36
3,53,0,148
3,65,76,16
3,58,82,0
