track,note,velocity,time
4,38,120,64
4,33,124,128
4,31,120,124
4,28,123,4
4,28,123,136
4,28,123,0
4,28,121,128
4,28,121,8
4,28,121,132
4,28,120,8
4,28,124,128
4,28,121,8
4,28,123,128
4,28,123,8
4,28,122,132
4,28,122,8
4,28,120,128
4,33,122,0
4,28,121,0
4,31,121,128
4,28,123,8
4,28,124,128
4,28,124,8
4,28,123,132
4,28,123,8
4,28,123,128
4,28,120,0
4,28,122,136
4,28,120,4
4,28,120,128
4,28,121,0
4,28,123,128
4,28,121,0
4,28,124,132
4,28,121,0
4,26,124,4
4,31,121,4
4,28,124,0
4,28,122,132
4,28,120,8
4,28,120,128
4,28,122,0
4,28,122,128
4,28,124,0
4,28,122,132
4,28,124,8
4,28,123,132
4,28,123,8
4,28,124,132
4,28,120,0
4,28,120,128
4,33,123,0
4,28,121,0
4,31,124,128
4,28,123,0
4,28,121,132
4,28,120,0
4,28,123,132
4,28,122,0
4,28,120,128
4,28,122,0
4,28,124,132
4,28,120,0
4,28,124,128
4,43,124,0
4,38,122,4
4,28,123,0
4,42,123,0
4,37,120,4
4,28,122,4
4,38,124,0
4,35,121,0
4,38,120,128
4,28,121,8
4,28,124,128
4,28,122,8
4,28,121,132
4,28,123,0
4,28,122,132
4,28,121,8
4,28,123,128
4,28,123,0
4,28,120,128
4,28,123,0
4,28,123,152
4,28,122,8
4,28,123,128
4,33,121,0
4,28,124,4
4,31,124,4
4,28,124,0
4,28,122,128
4,28,124,8
4,28,124,128
4,28,124,8
4,28,120,128
4,28,124,8
4,28,123,128
4,28,120,0
4,28,122,128
4,28,124,8
4,28,123,128
4,28,124,0
4,28,120,128
4,26,122,0
4,28,121,4
4,31,124,4
4,28,120,8
4,28,124,132
4,28,122,0
4,28,122,132
4,28,123,0
4,28,122,132
4,28,121,0
4,28,120,128
4,28,120,0
4,28,121,128
4,28,124,0
4,28,124,132
4,28,120,0
4,28,121,128
4,33,122,0
4,28,122,4
4,31,123,128
4,28,124,8
4,28,122,128
4,28,120,0
4,28,123,132
4,28,123,0
4,28,120,128
4,28,122,8
4,28,124,132
4,28,122,8
4,28,121,132
4,28,124,0
4,28,122,132
4,28,122,0
4,28,122,128
4,31,123,0
4,33,124,4
4,34,120,4
4,35,123,8
4,35,121,128
4,35,124,0
4,35,123,128
4,35,122,0
4,35,120,132
4,35,122,4
4,35,120,128
4,33,124,0
4,33,120,132
4,33,122,0
4,33,122,128
4,33,120,0
4,33,121,128
4,33,120,0
4,33,121,128
4,31,121,8
4,31,120,128
4,31,123,8
4,31,121,136
4,31,123,4
4,31,124,128
4,31,122,0
4,31,122,132
4,38,121,4
4,38,123,128
4,38,124,0
4,38,122,128
4,38,123,0
4,28,120,20
4,35,124,36
4,31,122,8
4,33,122,12
4,33,124,136
4,33,120,0
4,33,122,128
4,33,121,8
4,33,121,132
4,33,121,0
4,33,123,132
4,38,121,0
4,38,122,128
4,38,124,8
4,38,122,132
4,38,123,8
4,38,121,128
4,38,120,0
4,35,124,72
4,33,121,4
4,33,121,128
4,33,120,8
4,33,121,132
4,33,120,0
4,33,121,128
4,33,124,8
4,33,122,132
4,29,120,4
4,29,122,132
4,29,124,8
4,29,122,128
4,36,124,0
4,36,120,128
4,36,121,0
4,35,123,0
4,31,122,0
4,33,121,12
4,33,120,128
4,33,120,0
4,33,122,128
4,33,121,0
4,33,121,128
4,33,124,8
4,33,123,132
4,38,123,4
4,38,120,132
4,38,124,0
4,38,124,128
4,38,121,0
4,38,123,128
4,38,120,0
4,38,120,132
4,36,122,4
4,35,124,4
4,28,122,8
4,28,122,128
4,28,123,0
4,28,123,128
4,28,122,0
4,28,120,128
4,28,124,0
4,28,120,132
4,28,124,0
4,28,122,132
4,28,123,0
4,28,120,128
4,28,123,0
4,28,123,128
4,33,122,8
4,28,122,0
4,31,123,128
4,28,120,0
4,28,121,128
4,28,124,0
4,28,121,128
4,28,123,0
4,28,121,128
4,28,121,0
4,28,123,128
4,28,124,0
4,28,122,132
4,43,121,0
4,38,120,4
4,28,124,128
4,42,124,0
4,37,122,0
4,28,122,128
4,38,123,0
4,35,120,0
4,38,123,0
4,28,120,4
4,28,122,128
4,28,121,0
4,28,120,128
4,28,124,0
4,28,124,128
4,28,123,8
4,28,122,128
4,28,121,0
4,28,123,132
4,28,122,4
4,28,124,128
4,28,122,8
4,28,123,128
4,33,120,0
4,28,124,0
4,31,122,0
4,28,120,8
4,28,122,128
4,28,122,0
4,28,120,128
4,28,121,0
4,28,122,132
4,28,121,0
4,28,121,128
4,28,120,8
4,28,120,128
4,28,124,8
4,28,120,128
4,28,121,0
4,28,121,128
4,26,120,0
4,28,120,4
4,31,124,128
4,28,120,8
4,28,122,128
4,28,122,0
4,28,122,132
4,28,121,8
4,28,122,128
4,28,123,8
4,28,123,128
4,28,121,8
4,28,123,128
4,28,123,8
4,28,121,128
4,28,124,0
4,28,124,128
4,33,122,8
4,28,123,0
4,31,120,4
4,28,120,0
4,28,121,128
4,28,124,0
4,28,122,128
4,28,122,8
4,28,121,128
4,28,120,0
4,28,121,128
4,28,120,0
4,28,124,128
4,28,121,8
4,28,121,128
4,28,124,0
4,28,120,132
4,31,122,0
4,33,124,4
4,34,124,0
4,35,120,4
4,35,121,128
4,35,121,0
4,35,121,252
4,35,120,0
4,35,120,132
4,35,122,8
4,35,124,132
4,33,122,8
4,33,123,132
4,33,122,8
4,33,120,128
4,33,124,0
4,33,122,128
4,33,121,0
4,33,124,128
4,31,122,8
4,31,122,128
4,31,123,0
4,31,123,132
4,31,120,4
4,31,120,132
4,31,122,4
4,31,121,140
4,38,124,8
4,38,122,132
4,38,120,0
4,38,121,132
4,38,123,0
4,28,122,252
4,35,120,36
4,31,123,128
4,33,124,4
4,33,120,136
4,33,124,0
4,33,123,120
4,33,120,0
4,33,121,132
4,33,123,0
4,33,122,136
4,38,120,4
4,38,123,128
4,38,124,0
4,38,123,128
4,38,121,8
4,38,120,128
4,38,122,8
4,35,120,128
4,33,120,0
4,33,121,128
4,33,122,8
4,33,120,128
4,33,122,0
4,33,123,132
4,33,122,8
4,33,122,128
4,29,121,0
4,29,123,128
4,29,124,0
4,29,121,128
4,36,124,0
4,36,122,132
4,36,120,4
4,35,120,4
4,31,120,4
4,33,124,8
4,33,124,132
4,33,120,0
4,33,121,132
4,33,123,4
4,33,120,128
4,33,123,0
4,33,124,128
4,38,120,8
4,38,120,132
4,38,124,0
4,38,123,128
4,38,123,0
4,38,122,128
4,38,123,0
4,38,121,132
4,36,124,8
4,36,122,128
4,36,121,8
4,36,124,128
4,35,124,0
4,35,121,128
4,35,123,8
4,35,122,128
4,28,124,8
4,28,121,132
4,28,120,0
4,28,121,128
4,28,123,0
4,28,122,128
4,28,124,0
4,28,124,128
4,28,122,8
4,28,120,128
4,28,122,8
4,28,122,128
4,26,121,0
4,28,122,0
4,31,122,4
4,28,120,8
4,35,124,0
4,31,124,128
4,33,121,4
4,33,122,128
4,33,124,0
4,33,122,128
4,33,124,0
4,33,120,128
4,33,120,0
4,33,120,128
4,35,121,0
4,35,120,132
4,35,120,8
4,35,120,128
4,35,121,0
4,35,122,128
4,35,123,0
4,35,121,132
4,28,122,8
4,28,122,132
4,28,122,0
4,28,124,128
4,28,121,0
4,28,123,128
4,28,122,8
4,26,123,0
4,31,120,128
4,28,122,0
4,28,124,128
4,28,121,0
4,28,121,132
4,28,123,0
4,28,124,128
4,26,122,0
4,28,122,0
4,31,123,8
4,33,123,4
4,33,120,128
4,33,124,8
4,33,124,128
4,33,123,0
4,33,123,128
4,33,121,0
4,31,124,132
4,29,124,4
4,29,122,128
4,29,120,8
4,29,123,132
4,29,121,0
4,29,121,136
4,29,120,4
4,29,122,128
4,36,120,0
4,40,121,4
4,38,122,20
4,36,121,36
4,35,120,8
4,35,123,0
4,28,123,8
4,28,124,128
4,28,122,0
4,28,123,132
4,28,123,0
4,28,124,128
4,28,124,0
4,28,124,128
4,28,121,0
4,28,123,132
4,28,122,8
4,28,124,132
4,28,122,0
4,28,124,132
4,33,124,4
4,28,120,4
4,31,120,128
4,28,124,0
4,28,122,128
4,28,120,0
4,28,121,128
4,28,121,0
4,28,121,132
4,28,123,0
4,28,122,128
4,28,123,0
4,28,120,128
4,28,123,0
4,28,121,132
4,28,121,4
4,28,124,128
4,26,124,0
4,28,124,0
4,31,122,8
4,28,123,12
4,28,122,128
4,28,121,8
4,28,121,128
4,28,123,8
4,28,124,128
4,28,120,8
4,28,123,128
4,28,124,8
4,28,124,128
4,28,124,0
4,28,121,132
4,28,120,8
4,28,121,132
4,33,121,0
4,28,120,4
4,31,121,0
4,28,124,12
4,28,124,128
4,28,122,0
4,28,122,128
4,28,124,0
4,28,120,128
4,28,120,0
4,28,123,128
4,28,121,4
4,28,120,128
4,28,124,0
4,28,124,132
4,26,122,0
4,28,120,48
4,35,123,48
4,31,122,12
4,33,124,104
4,33,123,128
4,33,123,0
4,33,121,128
4,33,122,0
4,33,123,128
4,33,124,0
4,33,124,128
4,38,124,0
4,38,122,128
4,38,121,8
4,38,121,128
4,38,120,0
4,38,121,132
4,38,124,4
4,38,122,128
4,33,123,12
4,33,121,128
4,33,121,0
4,33,123,128
4,33,123,0
4,33,123,128
4,35,121,0
4,33,120,0
4,31,122,4
4,29,120,0
4,29,120,128
4,29,123,0
4,29,121,128
4,36,120,0
4,36,123,132
4,36,123,0
4,35,122,4
4,33,121,0
4,33,123,0
4,33,121,128
4,33,123,0
4,33,121,128
4,33,121,0
4,33,120,132
4,33,122,0
4,33,124,128
4,38,120,0
4,38,122,132
4,38,123,0
4,38,124,128
4,38,121,0
4,38,122,132
4,38,120,0
4,38,121,132
4,36,121,8
4,36,120,132
4,36,120,8
4,36,124,132
4,35,124,0
4,35,124,128
4,35,124,0
4,35,124,132
4,28,121,0
4,28,121,132
4,28,120,8
4,28,122,132
4,31,120,8
4,28,121,0
4,31,124,128
4,28,121,0
4,35,121,0
4,31,124,4
4,33,122,4
4,33,124,136
4,33,122,0
4,33,123,132
4,33,124,0
4,33,122,132
4,33,124,8
4,33,122,132
4,38,124,0
4,38,122,128
4,38,123,0
4,38,123,128
4,38,121,8
4,38,120,128
4,38,122,8
4,38,120,128
4,33,124,0
4,33,121,132
4,33,123,0
4,33,121,128
4,33,124,8
4,33,124,128
4,35,123,8
4,33,123,0
4,31,121,4
4,29,123,8
4,29,121,128
4,29,123,8
4,29,121,128
4,36,122,0
4,36,122,128
4,36,122,0
4,35,123,0
4,33,124,128
4,33,121,4
4,33,121,128
4,33,123,0
4,33,121,128
4,33,120,0
4,33,124,128
4,33,124,0
4,33,124,128
4,38,120,0
4,38,122,128
4,38,123,8
4,38,123,128
4,38,120,8
4,38,124,132
4,38,121,8
4,38,121,132
4,36,122,4
4,35,123,52
4,35,120,392
4,28,121,56
4,28,121,128
4,28,122,0
4,28,122,136
4,28,121,8
4,28,122,128
4,28,121,8
4,28,121,132
4,28,120,12
4,28,124,136
4,28,121,8
4,28,122,128
4,28,124,8
4,28,122,132
4,33,124,8
4,28,121,4
4,31,122,0
4,28,123,8
4,28,123,128
4,28,121,0
4,28,122,128
4,28,120,0
4,28,120,128
4,28,120,0
4,28,121,128
4,28,121,0
4,28,120,128
4,28,121,0
4,28,123,132
4,28,124,0
4,28,121,128
4,26,123,8
4,28,120,0
4,31,123,128
4,28,123,0
4,28,123,132
4,28,120,0
4,28,124,128
4,28,122,0
4,28,121,128
4,28,121,0
4,28,123,132
4,28,124,8
4,28,123,128
4,28,122,0
4,28,123,256
4,28,120,0
4,28,121,128
4,33,120,0
4,28,124,4
4,31,124,128
4,28,122,8
4,28,120,132
4,28,121,0
4,28,124,128
4,28,124,0
4,28,120,136
4,28,122,8
4,28,123,128
4,28,123,8
4,28,120,128
4,28,123,0
4,28,123,128
4,35,122,0
4,40,121,0
4,33,124,4
4,31,124,8
4,35,120,0
4,26,123,8
4,28,123,4
4,28,122,132
4,28,124,0
4,28,124,128
4,28,123,0
4,28,122,128
4,28,121,0
4,28,121,132
4,28,122,8
4,28,124,128
4,28,124,0
4,28,120,132
4,28,121,0
4,28,120,128
4,33,120,0
4,28,121,4
4,31,123,128
4,28,121,8
4,28,121,132
4,28,124,0
4,28,123,128
4,28,122,0
4,28,121,136
4,28,124,8
4,28,123,128
4,28,120,8
4,28,123,128
4,28,124,0
4,28,124,128
4,35,121,0
4,40,122,0
4,33,121,4
4,31,121,8
4,35,123,0
4,26,123,8
4,28,122,4
4,28,123,132
4,28,122,0
4,28,122,128
4,28,120,0
4,28,124,128
4,28,120,0
4,28,124,132
4,28,124,8
4,28,122,128
4,28,121,0
4,28,121,132
4,28,121,0
4,28,123,128
4,33,122,0
4,28,124,4
4,31,124,128
4,28,121,8
4,28,121,132
4,28,122,0
4,28,123,128
4,28,121,0
4,28,124,136
4,28,124,8
4,28,121,128
4,28,121,8
4,28,122,128
4,28,120,0
4,28,120,128
4,35,122,0
4,40,122,0
4,33,123,4
4,31,123,8
4,35,122,0
4,26,120,8
4,28,124,4
4,28,120,132
4,28,122,0
4,28,123,128
4,28,122,0
4,28,120,128
4,28,121,0
4,28,120,132
4,28,120,8
4,28,120,128
4,28,121,0
4,28,124,132
4,28,121,0
4,28,121,128
4,33,121,0
4,28,120,4
4,31,120,128
4,28,121,8
4,28,123,132
4,28,121,0
4,28,123,128
4,28,122,0
4,28,121,136
4,28,121,8
4,28,122,128
4,28,120,8
4,28,120,128
4,28,121,0
4,28,123,128
4,35,123,0
4,40,122,0
4,33,124,4
4,31,123,8
4,35,120,0
4,26,124,8
4,28,121,4
4,28,121,132
4,28,121,0
4,28,123,128
4,28,123,0
4,28,120,128
4,28,121,0
4,28,120,132
4,28,124,8
4,28,124,128
4,28,121,0
4,28,120,132
4,28,122,0
4,28,124,128
4,33,121,0
4,28,120,4
4,31,123,128
4,28,121,8
4,28,122,132
4,28,123,0
4,28,124,128
4,28,123,0
4,28,121,136
4,28,123,8
4,28,121,128
4,28,120,8
4,28,124,128
4,28,123,0
4,28,123,128
4,35,124,0
4,40,124,0
4,33,124,4
4,31,120,8
4,35,124,0
4,26,121,8
4,28,123,120
5,69,82,154960
5,74,89,0
5,79,94,0
5,71,78,668
5,76,91,4
5,81,87,0
5,69,82,3744
5,74,89,0
5,79,94,0
5,71,78,668
5,76,91,4
5,81,87,0
5,69,82,3744
5,74,89,0
5,79,94,0
5,71,78,668
5,76,91,4
5,81,87,0
5,69,82,24
5,74,89,0
5,79,94,0
6,76,49,10676
6,69,61,32
6,70,58,32
6,69,61,0
6,67,61,12
6,69,61,116
6,70,61,0
6,69,61,32
6,67,61,0
6,64,61,0
6,76,67,11520
6,78,56,0
6,71,25,4
6,71,31,24
6,78,50,0
6,75,50,4
6,74,56,20
6,76,67,0
6,81,64,0
6,73,55,32
6,76,56,0
6,81,54,4
6,72,64,28
6,77,57,0
6,79,61,0
6,71,49,32
6,74,51,0
6,77,41,0
6,79,54,0
6,81,61,32
6,79,64,0
6,74,55,0
6,81,61,32
6,78,64,0
6,74,55,0
6,72,86,32
6,64,86,0
6,69,86,0
6,74,64,100
6,66,66,2
6,64,82,52
6,72,85,0
6,69,73,0
6,72,80,36
6,65,80,0
6,69,80,0
6,67,74,3
6,64,74,0
6,72,74,0
6,72,86,48
6,64,86,0
6,69,86,0
6,66,71,36
6,74,71,0
6,69,71,0
6,76,80,2016
6,70,88,1868
6,71,79,8
6,69,43,52
6,69,64,4
6,67,88,108
6,70,77,12
6,67,80,72
6,64,77,132
6,69,88,1120
6,67,69,112
6,69,61,104
6,64,80,88
6,71,107,5752
6,74,99,688
6,76,68,80
6,76,67,4628
6,78,56,0
6,71,25,4
6,71,31,24
6,78,50,0
6,75,50,4
6,74,56,20
6,76,67,0
6,81,64,0
6,73,55,32
6,76,56,0
6,81,54,4
6,72,64,28
6,77,57,0
6,79,61,0
6,71,49,32
6,74,51,0
6,77,41,0
6,79,54,0
