track,note,velocity,time
1,49,127,768
1,44,127,128
1,42,127,92
1,39,127,112
1,39,127,148
1,39,127,40
1,39,127,142
1,39,127,32
1,39,127,148
1,39,127,38
1,39,127,138
1,39,127,40
1,39,127,142
1,39,127,36
1,39,127,150
1,39,127,48
1,39,127,164
1,39,127,46
1,39,127,164
1,39,127,46
1,39,127,140
1,39,127,38
1,39,127,148
1,39,127,40
1,39,127,158
1,39,127,42
1,39,127,152
1,39,127,46
1,39,127,148
1,39,127,56
1,39,127,154
1,39,127,54
1,39,127,144
1,37,127,10
1,39,127,34
1,42,127,6
1,39,127,26
1,39,127,152
1,39,127,60
1,39,127,160
1,39,127,52
1,39,127,156
1,39,127,58
1,39,127,160
1,39,127,58
1,39,127,156
1,39,127,54
1,39,127,166
1,39,127,70
1,39,127,154
1,37,127,30
1,39,127,30
1,42,127,128
1,39,127,6
1,39,127,150
1,39,127,58
1,39,127,148
1,39,127,44
1,39,127,146
1,39,127,36
1,39,127,150
1,39,127,22
1,39,127,122
1,54,127,40
1,49,127,128
1,44,127,106
1,53,127,126
1,48,127,122
1,41,127,108
1,49,127,120
1,46,127,112
1,49,127,104
1,39,127,2
1,39,127,136
1,39,127,48
1,39,127,160
1,39,127,54
1,39,127,156
1,39,127,40
1,39,127,148
1,39,127,50
1,39,127,166
1,39,127,46
1,39,127,166
1,39,127,58
1,39,127,186
1,44,127,16
1,39,127,14
1,42,127,12
1,39,127,128
1,39,127,166
1,39,127,42
1,39,127,160
1,39,127,48
1,39,127,170
1,39,127,52
1,39,127,166
1,39,127,46
1,39,127,174
1,39,127,48
1,39,127,172
1,39,127,46
1,39,127,166
1,37,127,30
1,39,127,128
1,42,127,120
1,39,127,0
1,39,127,156
1,39,127,36
1,39,127,172
1,39,127,52
1,39,127,170
1,39,127,50
1,39,127,144
1,39,127,40
1,39,127,178
1,39,127,48
1,39,127,172
1,39,127,38
1,39,127,182
1,44,127,24
1,39,127,28
1,42,127,128
1,39,127,120
1,39,127,178
1,39,127,56
1,39,127,164
1,39,127,58
1,39,127,132
1,39,127,48
1,39,127,134
1,39,127,60
1,39,127,160
1,39,127,62
1,39,127,144
1,39,127,58
1,39,127,172
1,42,127,128
1,44,127,118
1,45,127,100
1,46,127,2
1,46,127,120
1,46,127,46
1,46,127,146
1,46,127,38
1,46,127,144
1,46,127,46
1,46,127,144
1,44,127,32
1,44,127,152
1,44,127,40
1,44,127,146
1,44,127,40
1,44,127,154
1,44,127,42
1,44,127,152
1,42,127,36
1,42,127,156
1,42,127,54
1,42,127,164
1,42,127,48
1,42,127,156
1,42,127,64
1,42,127,134
1,49,127,48
1,49,127,188
1,49,127,70
1,49,127,168
1,49,127,82
1,37,127,30
1,42,127,16
1,46,127,128
1,42,127,6
1,44,127,4
1,44,127,146
1,44,127,60
1,44,127,152
1,44,127,56
1,44,127,146
1,44,127,58
1,44,127,138
1,49,127,26
1,49,127,164
1,49,127,60
1,49,127,160
1,49,127,72
1,49,127,172
1,49,127,32
1,46,127,146
1,44,127,10
1,44,127,150
1,44,127,62
1,44,127,158
1,44,127,64
1,44,127,170
1,44,127,68
1,42,127,144
1,40,127,56
1,40,127,172
1,40,127,54
1,40,127,174
1,47,127,56
1,47,127,166
1,47,127,64
1,46,127,4
1,42,127,2
1,44,127,6
1,44,127,150
1,44,127,64
1,44,127,160
1,44,127,64
1,44,127,176
1,44,127,64
1,44,127,178
1,49,127,66
1,49,127,186
1,49,127,68
1,49,127,166
1,49,127,76
1,49,127,172
1,49,127,80
1,49,127,178
1,47,127,58
1,46,127,2
1,39,127,18
1,39,127,142
1,39,127,60
1,39,127,164
1,39,127,62
1,39,127,162
1,39,127,68
1,39,127,160
1,39,127,60
1,39,127,144
1,39,127,66
1,39,127,164
1,39,127,68
1,39,127,172
1,44,127,46
1,39,127,16
1,42,127,20
1,39,127,14
1,39,127,176
1,39,127,58
1,39,127,188
1,39,127,66
1,39,127,176
1,39,127,64
1,39,127,164
1,39,127,72
1,39,127,166
1,54,127,50
1,49,110,128
1,44,127,124
1,53,127,126
1,48,127,120
1,41,121,106
1,49,127,0
1,46,127,128
1,49,127,116
1,39,127,106
1,39,127,136
1,39,127,48
1,39,127,160
1,39,127,54
1,39,127,156
1,39,127,40
1,39,127,148
1,39,127,50
1,39,127,166
1,39,127,46
1,39,127,166
1,39,127,58
1,39,127,186
1,44,127,16
1,39,127,14
1,42,127,12
1,39,127,128
1,39,127,166
1,39,127,42
1,39,127,160
1,39,127,48
1,39,127,170
1,39,127,52
1,39,127,166
1,39,127,46
1,39,127,174
1,39,127,48
1,39,127,172
1,39,127,46
1,39,127,166
1,37,127,30
1,39,127,128
1,42,127,120
1,39,127,0
1,39,127,156
1,39,127,36
1,39,127,172
1,39,127,52
1,39,127,170
1,39,127,50
1,39,127,144
1,39,127,40
1,39,127,178
1,39,127,48
1,39,127,172
1,39,127,38
1,39,127,182
1,44,127,24
1,39,127,28
1,42,127,128
1,39,127,120
1,39,127,178
1,39,127,56
1,39,127,164
1,39,127,58
1,39,127,132
1,39,127,48
1,39,127,134
1,39,127,60
1,39,127,160
1,39,127,62
1,39,127,144
1,39,127,58
1,39,127,172
1,42,127,128
1,44,127,118
1,45,127,100
1,46,127,2
1,46,127,120
1,46,127,46
1,46,127,146
1,46,127,38
1,46,127,144
1,46,127,46
1,46,127,144
1,44,127,32
1,44,127,152
1,44,127,40
1,44,127,146
1,44,127,40
1,44,127,154
1,44,127,42
1,44,127,152
1,42,127,36
1,42,127,156
1,42,127,54
1,42,127,164
1,42,127,48
1,42,127,156
1,42,127,64
1,42,127,134
1,49,127,48
1,49,127,188
1,49,127,70
1,49,127,168
1,49,127,82
1,37,127,30
1,42,127,16
1,46,127,128
1,42,127,6
1,44,127,4
1,44,127,146
1,44,127,60
1,44,127,152
1,44,127,56
1,44,127,146
1,44,127,58
1,44,127,138
1,49,127,26
1,49,127,164
1,49,127,60
1,49,127,160
1,49,127,72
1,49,127,172
1,49,127,32
1,46,127,146
1,44,127,10
1,44,127,150
1,44,127,62
1,44,127,158
1,44,127,64
1,44,127,170
1,44,127,68
1,42,127,144
1,40,127,56
1,40,127,172
1,40,127,54
1,40,127,174
1,47,127,56
1,47,127,166
1,47,127,64
1,46,127,4
1,42,127,2
1,44,127,6
1,44,127,150
1,44,127,64
1,44,127,160
1,44,127,64
1,44,127,176
1,44,127,64
1,44,127,178
1,49,127,66
1,49,127,186
1,49,127,68
1,49,127,166
1,49,127,76
1,49,127,172
1,49,127,80
1,49,127,178
1,47,127,58
1,47,127,132
1,47,127,50
1,47,127,140
1,46,127,34
1,46,127,134
1,46,127,60
1,46,127,152
1,39,127,74
1,39,127,180
1,39,127,66
1,39,127,146
1,39,127,60
1,39,127,162
1,39,127,60
1,39,127,166
1,39,127,66
1,39,127,170
1,39,127,60
1,39,127,136
1,39,127,78
1,42,127,142
1,39,127,4
1,44,127,128
1,39,127,122
1,44,127,14
1,44,127,120
1,44,127,48
1,44,127,160
1,44,127,44
1,44,127,144
1,44,127,48
1,44,127,168
1,46,127,48
1,46,127,160
1,46,127,54
1,46,127,148
1,46,127,54
1,46,127,158
1,46,127,54
1,46,127,160
1,39,127,60
1,39,127,184
1,39,127,64
1,39,127,164
1,39,127,60
1,39,127,178
1,37,127,2
1,39,127,10
1,42,127,0
1,39,127,12
1,39,127,166
1,39,127,54
1,39,127,174
1,39,127,58
1,39,127,172
1,42,127,22
1,39,127,2
1,42,127,128
1,44,127,4
1,44,127,158
1,44,127,52
1,44,127,186
1,44,127,54
1,44,127,188
1,44,127,56
1,42,127,196
1,40,127,64
1,40,127,172
1,40,127,58
1,40,127,156
1,40,127,48
1,40,127,172
1,40,127,52
1,40,127,174
1,47,127,56
1,51,127,4
1,49,127,134
1,47,127,218
1,46,127,236
1,39,127,410
1,39,127,160
1,39,127,54
1,39,127,166
1,39,127,54
1,39,127,166
1,39,127,52
1,39,127,170
1,39,127,56
1,39,127,162
1,39,127,56
1,39,127,166
1,39,127,54
1,39,127,168
1,44,127,16
1,39,127,128
1,42,127,4
1,39,127,12
1,39,127,160
1,39,127,62
1,39,127,158
1,39,127,54
1,39,127,166
1,39,127,56
1,39,127,182
1,39,127,58
1,39,127,172
1,39,127,52
1,39,127,188
1,39,127,52
1,39,127,182
1,37,127,8
1,39,127,2
1,42,127,128
1,39,127,120
1,39,127,154
1,39,127,56
1,39,127,184
1,39,127,58
1,39,127,176
1,39,127,58
1,39,127,170
1,39,127,56
1,39,127,168
1,39,127,50
1,39,127,182
1,39,127,60
1,39,127,182
1,44,127,18
1,39,127,12
1,42,127,18
1,39,127,128
1,39,127,172
1,39,127,64
1,39,127,176
1,39,127,68
1,39,127,170
1,39,127,68
1,39,127,174
1,39,127,74
1,39,127,186
1,39,127,72
1,39,127,178
1,37,127,64
1,39,127,20
1,42,127,128
1,39,127,116
1,42,127,124
1,44,127,118
1,44,127,146
1,44,127,60
1,44,127,152
1,44,127,56
1,44,127,146
1,44,127,58
1,44,127,138
1,49,127,26
1,49,127,164
1,49,127,60
1,49,127,160
1,49,127,72
1,49,127,172
1,49,127,32
1,49,127,146
1,44,127,10
1,44,127,150
1,44,127,62
1,44,127,158
1,44,127,64
1,44,127,170
1,46,127,68
1,44,127,4
1,42,127,2
1,40,127,6
1,40,127,172
1,40,127,54
1,40,127,174
1,47,127,56
1,47,127,166
1,47,127,64
1,46,127,4
1,42,127,2
1,44,127,6
1,44,127,150
1,44,127,64
1,44,127,160
1,44,127,64
1,44,127,176
1,44,127,64
1,44,127,178
1,49,127,66
1,49,127,186
1,49,127,68
1,49,127,166
1,49,127,76
1,49,127,172
1,49,127,80
1,49,127,178
1,47,127,58
1,47,127,132
1,47,127,50
1,47,127,140
1,46,127,34
1,46,127,134
1,46,127,60
1,46,127,152
1,39,127,74
1,39,127,180
1,39,127,66
1,39,127,146
1,37,127,60
1,39,127,128
1,42,127,122
1,39,127,14
1,46,127,128
1,42,127,122
1,44,127,14
1,44,127,146
1,44,127,60
1,44,127,152
1,44,127,56
1,44,127,146
1,44,127,58
1,44,127,138
1,49,127,26
1,49,127,164
1,49,127,60
1,49,127,160
1,49,127,72
1,49,127,172
1,49,127,32
1,49,127,2
1,49,127,6
1,44,127,10
1,44,127,150
1,44,127,62
1,44,127,158
1,44,127,64
1,44,127,170
1,46,127,68
1,44,127,4
1,42,127,2
1,40,127,6
1,40,127,172
1,40,127,54
1,40,127,174
1,47,127,56
1,47,127,166
1,47,127,64
1,46,127,4
1,42,127,2
1,44,127,6
1,44,127,150
1,44,127,64
1,44,127,160
1,44,127,64
1,44,127,176
1,44,127,64
1,44,127,178
1,49,127,66
1,49,127,186
1,49,127,68
1,49,127,166
1,49,127,76
1,49,127,172
1,49,127,80
1,49,127,178
1,47,127,58
1,46,127,2
1,46,127,12
1,42,127,14
1,39,127,36
1,39,127,152
1,39,127,62
1,39,127,166
1,39,127,46
1,39,127,154
1,39,127,54
1,39,127,154
1,39,127,52
1,39,127,162
1,39,127,52
1,39,127,184
1,39,127,60
1,39,127,178
1,44,127,18
1,39,127,128
1,42,127,14
1,39,127,12
1,39,127,172
1,39,127,52
1,39,127,150
1,39,127,60
1,39,127,146
1,39,127,58
1,39,127,160
1,39,127,62
1,39,127,170
1,39,127,62
1,39,127,180
1,39,127,66
1,39,127,156
1,37,127,26
1,39,127,2
1,42,127,128
1,39,127,8
1,39,127,164
1,39,127,54
1,39,127,176
1,39,127,46
1,39,127,182
1,39,127,36
1,39,127,166
1,39,127,56
1,39,127,182
1,39,127,60
1,39,127,176
1,39,127,60
1,39,127,182
1,44,127,14
1,39,127,10
1,42,127,14
1,39,127,6
1,39,127,166
1,39,127,66
1,39,127,168
1,39,127,62
1,39,127,162
1,39,127,58
1,39,127,192
1,39,127,54
1,39,127,150
1,39,127,38
1,39,127,162
1,46,127,30
1,51,127,6
1,44,127,4
1,42,127,4
1,46,114,6
1,37,127,0
1,39,127,2
1,39,127,152
1,39,127,62
1,39,127,166
1,39,127,46
1,39,127,154
1,39,127,54
1,39,127,154
1,39,127,52
1,39,127,162
1,39,127,52
1,39,127,184
1,39,127,60
1,39,127,178
1,44,127,18
1,39,127,128
1,42,127,14
1,39,127,12
1,39,127,172
1,39,127,52
1,39,127,150
1,39,127,60
1,39,127,146
1,39,127,58
1,39,127,160
1,39,127,62
1,39,127,170
1,39,127,62
1,39,127,180
1,39,127,66
1,39,127,156
1,37,127,26
1,39,127,2
1,42,127,128
1,39,127,8
1,39,127,164
1,39,127,54
1,39,127,176
1,39,127,46
1,39,127,182
1,39,127,36
1,39,127,166
1,39,127,56
1,39,127,182
1,39,127,60
1,39,127,176
1,39,127,60
1,39,127,182
1,44,127,14
1,39,127,10
1,42,127,14
1,39,127,6
1,39,127,166
1,39,127,66
1,39,127,168
1,39,127,62
1,39,127,162
1,39,127,58
1,39,127,192
1,39,127,54
1,39,127,122
1,54,127,40
1,49,127,128
1,44,127,106
1,53,127,126
1,48,127,122
1,41,127,108
1,49,127,120
1,46,127,112
1,49,127,104
1,39,127,2
1,39,127,152
1,39,127,62
1,39,127,166
1,39,127,46
1,39,127,154
1,39,127,54
1,39,127,154
1,39,127,52
1,39,127,162
1,39,127,52
1,39,127,184
1,39,127,60
1,39,127,178
1,44,127,18
1,39,127,128
1,42,127,14
1,39,127,12
1,39,127,172
1,39,127,52
1,39,127,150
1,39,127,60
1,39,127,146
1,39,127,58
1,39,127,160
1,39,127,62
1,39,127,170
1,39,127,62
1,39,127,180
1,39,127,66
1,39,127,156
1,37,127,26
1,39,127,2
1,42,127,128
1,39,127,8
1,39,127,164
1,39,127,54
1,39,127,176
1,39,127,46
1,39,127,182
1,39,127,36
1,39,127,166
1,39,127,56
1,39,127,182
1,39,127,60
1,39,127,176
1,39,127,60
1,39,127,182
1,44,127,14
1,39,127,10
1,42,127,14
1,39,127,6
1,39,127,166
1,39,127,66
1,39,127,168
1,39,127,62
1,39,127,162
1,39,127,58
1,39,127,192
1,49,127,54
1,54,127,14
1,49,127,128
1,54,127,24
1,49,127,12
1,53,127,2
1,48,127,128
1,53,127,12
1,48,127,6
1,51,127,26
1,46,127,128
1,44,127,12
2,68,127,376
2,73,102,66
2,68,112,100
2,71,112,118
2,68,107,116
2,66,104,102
2,63,121,120
2,68,70,2004
2,73,84,6
2,70,79,124
2,75,86,2
2,70,79,36
2,75,77,2
2,70,80,28
2,75,80,2
2,70,97,8
2,73,68,126
2,75,62,4
2,75,65,48
2,69,70,2286
2,70,52,16
2,68,73,36
2,66,65,138
2,63,70,4
2,63,68,56
2,75,58,8854
2,73,113,6
2,66,73,88
2,75,81,6112
2,70,69,128
2,75,81,120
2,70,68,106
2,75,79,106
2,70,63,98
2,74,81,26
2,73,89,134
2,75,72,128
2,73,79,112
2,73,68,74
2,80,67,4
2,73,77,128
2,72,79,128
2,71,86,156
2,73,75,128
2,71,81,100
2,71,79,66
2,78,68,128
2,71,77,120
2,70,77,128
2,75,89,110
2,73,65,128
2,68,69,128
2,75,74,90
2,73,69,72
2,68,70,82
2,73,75,96
2,44,34,164
2,51,36,0
2,44,32,182
2,51,36,0
2,44,36,80
2,51,28,0
2,44,36,188
2,51,28,0
2,44,36,76
2,51,19,0
2,44,34,190
2,51,28,0
2,44,36,82
2,51,34,0
2,44,34,204
2,51,25,0
2,49,30,88
2,56,25,0
2,49,30,196
2,56,22,0
2,49,34,76
2,56,34,0
2,49,32,184
2,56,32,0
2,49,34,80
2,56,32,0
2,49,30,184
2,56,30,0
2,49,36,86
2,56,34,0
2,49,36,180
2,56,32,0
2,44,42,76
2,51,25,0
2,44,36,176
2,51,32,0
2,44,32,80
2,51,28,0
2,44,32,176
2,51,27,0
2,44,32,78
2,51,25,0
2,44,36,182
2,51,32,0
2,44,39,78
2,51,28,0
2,44,42,182
2,51,28,0
2,40,39,72
2,47,34,0
2,40,30,172
2,47,32,0
2,40,34,64
