track,note,velocity,time
1,55,72,4376
1,62,73,196
1,64,65,8
1,67,70,168
1,74,85,192
1,76,77,28
1,76,77,372
1,79,74,4
1,76,76,152
1,81,75,12
1,76,82,224
1,79,77,8
1,76,78,164
1,81,74,4
1,78,77,204
1,81,81,0
1,78,81,216
1,83,78,388
1,78,76,556
1,81,82,16
1,78,81,132
1,83,82,8
1,83,97,180
1,83,89,60
1,88,87,8
1,86,92,12
1,83,89,132
1,83,89,76
1,88,82,12
1,86,85,20
1,69,71,56
1,62,67,0
1,65,78,0
1,64,75,4
1,69,58,100
1,62,63,0
1,65,70,0
1,64,68,0
1,60,88,132
1,62,91,188
1,57,79,4
1,65,91,192
1,67,92,0
1,67,92,24
1,69,84,4
1,60,78,308
1,62,84,192
1,57,81,12
1,65,89,192
1,67,90,4
1,67,96,52
1,69,85,384
1,73,89,416
1,71,83,12
1,69,91,84
1,69,89,28
1,66,93,92
1,69,88,244
1,71,79,372
1,73,86,420
1,71,84,220
1,69,79,16
1,69,95,48
1,66,95,384
1,69,89,20
1,71,90,4
1,64,75,12
1,61,55,4
1,64,86,64
1,61,69,4
1,64,74,104
1,61,56,0
1,64,67,96
1,61,45,4
1,64,74,84
1,61,59,4
1,64,76,92
1,61,70,0
1,64,75,96
1,61,63,0
1,64,72,52
1,61,61,0
1,58,93,272
1,55,71,4
1,62,97,8
1,65,95,160
1,64,102,8
1,60,97,196
1,55,97,24
1,59,92,44
1,63,86,8
1,65,104,12
1,68,98,200
1,67,104,8
1,65,91,4
1,65,97,20
1,70,99,200
1,63,93,8
1,74,100,188
1,77,97,572
1,76,104,0
1,72,103,192
1,67,97,8
1,71,96,140
1,75,94,20
1,77,107,96
1,80,99,180
1,79,95,376
1,77,86,8
1,82,83,196
1,55,79,584
1,56,65,0
1,60,78,4
1,60,78,340
1,56,65,0
1,55,79,0
1,67,98,276
1,68,91,8
1,66,100,256
1,68,96,4
1,68,97,128
1,70,99,16
1,70,106,124
1,72,103,4
1,79,109,348
1,80,100,384
1,78,106,308
1,80,100,12
1,80,105,80
1,82,95,8
1,82,106,460
1,84,104,388
1,72,97,168
1,82,106,8
1,60,99,576
1,59,104,20
1,58,104,8
1,56,83,4
1,72,94,308
1,82,104,8
1,60,99,68
1,59,105,16
1,58,99,0
1,56,84,8
1,63,93,8932
1,58,89,8
1,63,94,4
1,67,97,0
1,63,89,152
1,75,100,0
1,77,89,56
1,75,86,20
1,70,81,4
1,72,85,248
1,70,84,12
1,68,81,8
1,70,79,192
1,63,83,20
1,68,93,960
1,65,85,0
1,63,79,16
1,65,80,196
1,63,86,12
1,58,82,12
1,63,93,384
1,67,85,188
1,63,81,12
1,75,95,0
1,77,85,964
1,75,80,20
1,70,76,0
1,72,91,356
1,74,89,20
1,75,90,8
1,75,89,24
1,82,73,8
1,79,93,0
1,77,82,16
1,75,74,4
1,75,83,36
1,72,91,60
1,74,93,8
1,75,91,0
1,75,79,36
1,82,80,12
1,79,91,0
1,77,85,4
1,75,76,4
1,75,76,48
1,69,68,16
1,66,68,4
1,62,68,0
1,74,77,128
1,86,89,4
1,74,86,0
1,84,89,4
1,86,92,4
1,71,59,168
1,74,68,0
1,83,94,0
1,84,95,180
1,83,95,20
1,74,86,8
1,81,89,384
1,78,76,8
1,83,94,24
1,79,95,4
1,76,91,112
1,83,95,0
1,76,68,188
1,72,75,0
1,79,94,0
1,76,84,8
1,83,89,196
1,78,70,0
1,88,97,0
1,86,95,216
1,81,90,0
1,86,84,8
1,62,84,64
1,74,97,4
1,62,87,8
1,72,95,0
1,74,94,752
1,71,100,396
1,72,92,0
1,71,92,32
1,62,95,4
1,81,58,68
1,78,70,4
1,69,91,12
1,71,93,200
1,67,100,8
1,79,79,0
1,76,63,8
1,64,100,64
1,71,98,4
1,76,70,36
1,72,78,4
1,67,100,0
1,64,98,0
1,71,96,572
1,78,56,36
1,76,100,20
1,74,96,76
1,69,89,8
1,84,71,188
1,74,94,0
1,72,55,28
1,76,74,0
1,78,76,104
1,74,63,4
1,71,75,4
1,74,84,4
1,62,96,1916
1,76,84,368
1,72,72,4
1,64,99,4
1,76,106,4
1,74,102,44
1,72,109,8
1,71,100,20
1,69,100,196
1,71,60,0
1,79,80,4
1,71,104,8
1,64,100,12
1,78,70,116
1,69,107,0
1,71,108,364
1,64,100,8
1,69,106,0
1,71,99,368
1,62,93,0
1,74,104,4
1,71,63,4
1,62,94,756
1,76,77,116
1,72,101,8
1,74,102,200
1,71,102,4
1,74,74,12
1,72,106,184
1,71,102,184
1,62,97,0
1,81,78,376
1,69,93,4
1,78,72,0
1,76,94,16344
1,78,104,388
1,78,98,44
1,81,73,4
1,78,103,432
1,83,97,4
1,83,102,136
1,85,101,100
1,69,109,96
1,78,112,0
1,73,106,32
1,85,110,0
1,85,106,120
1,87,108,388
1,85,106,148
1,87,107,392
2,36,65,2632
2,55,45,4
2,48,48,0
2,48,43,288
2,55,44,0
2,45,54,20
2,52,64,0
2,52,52,300
2,45,49,0
2,48,58,12
2,55,51,0
2,48,50,296
2,55,50,0
2,45,51,4
2,52,51,0
2,38,54,16
2,45,46,0
2,38,55,316
2,45,54,0
2,42,57,4
2,35,61,0
2,42,51,300
2,35,53,0
2,38,53,16
2,45,53,0
2,38,49,292
2,45,49,4
2,42,48,24
2,35,51,0
2,47,54,16
2,40,64,0
2,54,61,172
2,56,55,380
2,47,49,12
2,40,45,0
2,54,42,232
2,56,50,4
2,50,76,16
2,45,98,0
2,38,104,0
2,38,98,136
2,45,93,0
2,45,79,296
2,38,77,0
2,45,77,60
2,38,73,0
2,45,96,52
2,38,87,0
2,50,88,424
2,38,102,0
2,45,97,0
2,45,91,124
2,38,112,0
2,45,81,312
2,38,85,0
2,45,75,64
2,38,86,0
2,45,85,56
2,38,100,0
2,41,60,588
2,48,58,28
2,53,61,20
2,34,61,12
2,41,60,36
2,46,62,24
2,41,66,4
2,48,56,40
2,53,63,40
2,34,59,4
2,41,62,48
2,46,65,24
2,45,61,8
2,52,69,52
2,61,65,192
2,38,61,16
2,45,57,92
2,54,58,180
2,45,58,16
2,52,66,32
2,61,54,192
2,38,50,16
2,45,48,68
2,54,49,48
2,52,48,12
2,45,48,4
2,45,48,76
2,52,47,4
2,52,50,160
2,45,48,8
2,45,48,184
2,52,50,0
2,45,48,236
2,52,49,0
2,45,49,104
2,52,50,0
2,52,52,124
2,45,42,0
2,45,50,168
2,52,55,0
2,39,70,16
2,46,72,0
2,39,71,200
2,39,66,184
2,39,71,252
2,43,78,8
2,48,79,0
2,36,79,0
2,36,75,184
2,36,72,184
2,36,79,224
2,56,77,12
2,51,81,0
2,44,75,0
2,44,77,216
2,44,71,196
2,44,79,176
2,46,63,8
2,53,75,0
2,46,77,184
2,46,69,184
2,46,68,184
2,39,72,8
2,46,74,100
2,55,93,168
2,51,76,28
2,46,70,16
2,36,82,16
2,43,75,152
2,52,90,184
2,48,75,384
2,43,75,296
2,44,84,8
2,51,70,116
2,59,73,184
2,56,86,84
2,51,83,384
2,46,80,16
2,53,78,4
2,62,75,196
2,58,71,376
2,53,74,0
2,46,74,16
2,53,70,0
2,62,79,12
2,41,98,308
2,41,114,88
2,48,106,4
2,41,99,0
2,48,106,204
2,41,97,4
2,48,110,132
2,41,119,0
2,48,95,328
2,41,93,0
2,48,95,316
2,41,101,0
2,48,94,4
2,41,96,0
2,48,95,68
2,41,107,0
2,41,115,64
2,48,109,0
2,41,94,352
2,48,96,0
2,48,84,56
2,41,108,0
2,41,112,72
2,48,106,0
2,48,107,64
2,41,115,0
2,41,114,56
2,48,112,0
2,41,102,16
2,48,100,0
2,41,103,188
2,48,106,4
2,48,115,108
2,41,100,0
2,41,83,304
2,48,90,0
2,48,91,188
2,41,87,0
2,48,97,16
2,41,95,0
2,41,91,48
2,48,88,0
2,41,113,56
2,48,105,0
2,48,86,336
2,41,89,0
2,41,87,48
2,48,95,0
2,48,105,56
2,41,112,0
2,41,99,48
2,48,79,0
2,41,98,56
2,48,97,0
2,41,87,524
2,48,85,0
2,53,84,4
2,41,88,176
2,41,84,180
2,41,88,184
2,42,89,8
2,47,88,0
2,35,94,0
2,35,85,168
2,35,85,196
2,35,82,168
2,54,93,16
2,49,88,0
2,42,93,0
2,42,82,152
2,42,87,188
2,42,81,216
2,41,86,4
2,46,74,0
2,34,89,0
2,34,83,16
2,34,81,180
2,34,81,200
2,48,91,12
2,53,86,0
2,41,87,0
2,41,86,180
2,41,86,180
2,41,82,188
2,42,82,16
2,47,84,0
2,35,93,4
2,35,86,196
2,35,87,176
2,35,81,184
2,54,93,16
2,42,93,0
2,49,82,0
2,42,81,192
2,42,85,192
2,42,80,208
2,41,92,32
2,46,86,0
2,34,90,0
2,34,83,208
2,34,88,192
2,34,87,88
2,53,89,12
2,48,91,0
2,41,83,0
2,41,86,200
2,41,87,192
2,41,86,232
2,42,79,16
2,47,77,0
2,35,78,0
2,35,85,176
2,35,86,168
2,35,84,164
2,53,93,16
2,48,90,0
2,41,92,0
2,41,86,204
2,41,82,192
2,41,88,224
2,42,87,20
2,35,84,0
2,47,80,0
2,35,84,172
2,35,89,176
2,35,89,204
2,46,86,16
2,39,81,0
2,39,88,188
2,39,83,216
2,39,87,200
2,36,98,16
2,43,96,0
2,48,90,0
2,36,81,184
2,36,80,180
2,36,83,208
2,39,81,0
2,46,75,120
2,55,95,180
2,51,76,16
2,46,78,364
2,36,85,8
2,43,81,92
2,52,85,152
2,48,91,48
2,43,77,84
2,39,79,8
2,46,87,16
2,55,88,196
2,51,84,32
2,46,83,272
2,39,83,16
2,46,73,12
2,55,84,4
2,51,81,16
2,39,65,16
2,46,65,96
2,55,67,188
2,51,63,40
2,46,61,384
2,36,67,16
2,43,60,44
2,51,64,204
2,50,66,104
2,51,69,44
2,44,63,4
2,51,61,116
2,60,76,168
2,56,69,8
2,51,58,0
2,46,64,16
2,56,59,84
2,62,68,160
2,50,64,312
2,48,70,20
2,46,59,32
2,44,65,8
2,51,63,12
2,60,69,196
2,56,63,20
2,51,58,0
2,39,61,8
2,46,58,0
2,55,79,196
2,51,77,336
2,46,66,20
2,41,72,8
2,48,75,88
2,56,65,16
2,53,67,20
2,48,68,32
2,46,74,16
2,56,68,80
2,62,64,188
2,50,63,256
2,48,62,20
2,46,70,44
2,39,68,8
2,46,55,68
2,55,62,180
2,51,65,180
2,46,69,28
2,36,63,8
2,43,65,108
2,51,79,192
2,50,73,156
2,51,65,24
2,44,74,16
2,51,69,120
2,60,73,180
2,56,67,384
2,51,66,8
2,46,44,16
2,56,62,140
2,62,80,172
2,50,70,224
2,48,78,16
2,46,63,36
2,44,64,8
2,51,66,20
2,60,64,196
2,56,64,8
2,51,68,384
2,39,65,40
2,46,66,156
2,55,69,164
2,51,55,184
2,46,67,212
2,41,63,16
2,48,70,104
2,56,68,12
2,46,71,16
2,39,69,16
2,46,63,52
2,55,62,188
2,51,58,20
2,46,56,72
2,44,55,8
2,51,59,76
2,60,59,172
2,56,57,48
2,51,54,32
2,39,59,8
2,46,52,52
2,55,57,164
2,51,52,32
2,46,48,24
2,41,55,4
2,48,57,20
2,56,53,196
2,46,57,16
2,51,57,8
2,58,54,44
2,63,63,148
2,38,59,16
2,45,57,76
2,54,58,136
2,38,63,16
2,45,59,100
2,54,57,164
2,43,59,16
2,50,53,112
2,59,66,28
2,62,70,132
2,59,68,24
2,57,59,20
2,59,70,44
2,36,55,12
2,43,67,76
2,52,70,28
2,55,64,156
2,57,63,80
2,52,65,28
2,55,62,16
2,43,60,56
2,50,64,124
2,59,64,24
2,62,61,96
2,59,60,28
2,57,64,24
2,59,66,40
2,38,61,48
2,45,60,148
2,54,63,76
2,57,63,176
2,59,56,28
2,54,50,28
2,57,58,20
2,36,58,12
2,43,59,68
2,52,55,24
2,55,58,140
2,57,63,40
2,52,62,24
2,55,56,20
2,45,60,12
2,52,56,76
2,60,59,24
2,64,54,148
2,66,58,44
2,60,65,20
2,64,60,48
2,38,63,16
2,45,58,72
2,54,61,44
2,57,66,160
2,59,54,32
2,54,60,28
2,57,65,68
2,38,60,8
2,45,55,36
2,54,58,92
2,57,55,132
2,59,55,40
2,54,53,48
2,57,55,180
2,43,68,8
2,50,65,20
2,59,64,60
2,62,55,116
2,59,59,44
2,57,64,24
2,59,68,52
2,36,67,8
2,43,67,80
2,52,72,32
2,55,68,148
2,57,71,76
2,52,68,16
2,55,60,52
2,43,61,16
2,50,55,72
2,59,55,24
2,62,63,128
2,59,61,48
2,57,59,28
2,59,54,136
2,38,67,8
2,45,57,92
2,54,60,52
2,57,54,152
2,59,52,80
2,54,60,32
2,57,57,40
2,36,63,16
2,43,55,32
2,52,54,20
2,55,52,136
2,57,55,16
2,52,68,24
2,55,60,44
2,45,57,16
2,52,62,92
2,60,69,24
2,64,73,132
2,66,70,80
2,60,64,20
2,64,65,0
2,38,62,8
2,45,59,84
2,54,64,0
2,57,57,144
2,59,54,80
2,54,60,20
2,57,60,8
2,38,64,8
2,45,56,76
2,54,60,76
2,57,62,164
2,59,56,36
2,54,67,36
2,57,55,44
2,45,58,204
2,52,58,156
2,60,58,124
2,57,59,16
2,38,60,196
2,45,53,0
2,54,52,20
2,50,55,36
2,43,57,192
2,50,54,168
2,59,64,44
2,55,67,20
2,43,61,208
2,50,52,188
2,59,62,52
2,55,63,24
2,45,63,16
2,52,60,112
2,60,57,28
2,57,60,8
2,40,64,4
2,47,67,104
2,55,68,4
2,52,60,24
2,47,60,16
2,57,66,120
2,62,63,108
2,54,61,40
2,38,63,8
2,45,53,52
2,54,60,68
2,57,55,140
2,52,62,64
2,54,61,72
2,43,64,8
2,50,64,64
2,59,64,68
2,62,66,120
2,59,68,36
2,57,52,32
2,59,61,40
2,36,60,8
2,43,67,40
2,52,66,64
2,55,64,152
2,57,66,16
2,52,59,40
2,55,58,40
2,43,60,16
2,50,53,92
2,59,56,76
2,62,53,108
2,59,52,36
2,57,52,32
2,59,61,32
2,38,63,28
2,45,54,172
2,54,60,88
2,57,52,140
2,59,65,16
2,54,63,32
2,57,62,16
2,36,62,4
2,43,66,112
2,52,52,36
2,55,57,148
2,57,53,52
2,52,57,28
2,55,55,36
2,45,63,32
2,52,53,132
2,60,66,68
2,64,54,156
2,66,56,52
2,60,56,24
2,62,55,28
2,43,60,4
2,50,52,104
2,59,55,36
2,62,52,72
2,59,59,28
2,57,58,60
2,59,60,48
2,47,60,8
2,54,55,40
2,62,57,60
2,43,55,64
2,50,57,144
2,59,59,56
2,62,52,152
2,59,53,4
2,57,53,24
2,59,59,40
2,47,60,44
2,54,52,60
2,62,56,32
2,38,63,12
2,45,53,56
2,54,65,136
2,57,65,64
2,54,60,24
2,52,54,0
2,38,63,8
2,45,61,172
2,54,66,172
2,57,65,44
2,54,64,88
2,52,61,0
2,38,91,8
2,45,87,140
2,42,91,16
2,49,87,140
2,35,94,8
2,42,81,52
2,47,82,212
2,33,97,8
2,40,95,68
2,45,90,216
2,38,95,8
2,45,87,40
2,54,88,184
2,50,84,0
2,57,89,0
2,42,89,8
2,49,86,84
2,61,84,184
2,57,82,0
2,54,81,0
2,35,101,8
2,42,98,88
2,59,90,176
2,54,93,0
2,51,94,4
2,33,113,8
2,40,112,8
2,52,100,176
2,57,94,0
2,61,105,0
2,38,91,8
2,45,101,12
2,54,105,384
2,42,86,16
2,49,84,252
2,61,98,384
2,35,91,8
2,61,108,124
2,63,106,384
2,33,99,28
2,61,109,264
2,63,98,384
2,38,99,8
2,45,82,40
2,54,82,172
2,42,91,16
2,49,85,132
2,57,83,152
2,54,80,8
2,35,108,8
2,42,91,4
2,59,86,148
2,54,85,0
2,51,86,0
2,33,120,8
2,40,118,4
2,57,92,156
2,52,102,0
2,49,89,0
2,35,105,16
2,42,96,116
2,47,86,192
2,33,93,8
2,40,85,44
2,45,84,204
2,35,65,16
2,42,60,96
2,51,61,176
2,35,65,8
2,42,61,20
2,51,58,184
