track,note,velocity,time
1.0,64.0,82.0,1884.0
1.0,61.0,76.0,4.0
1.0,66.0,72.0,4.0
1.0,57.0,67.0,0.0
1.0,64.0,63.0,4.0
1.0,61.0,49.0,0.0
1.0,66.0,63.0,8.0
1.0,57.0,41.0,0.0
1.0,64.0,55.0,8.0
1.0,61.0,34.0,0.0
1.0,76.0,87.0,4.0
1.0,66.0,63.0,20.0
1.0,57.0,55.0,0.0
1.0,64.0,87.0,172.0
1.0,76.0,93.0,24.0
1.0,74.0,91.0,16.0
1.0,69.0,73.0,16.0
1.0,71.0,82.0,192.0
1.0,64.0,71.0,180.0
1.0,61.0,57.0,4.0
1.0,76.0,80.0,0.0
1.0,57.0,54.0,20.0
1.0,66.0,73.0,4.0
1.0,62.0,95.0,176.0
1.0,76.0,97.0,24.0
1.0,74.0,89.0,8.0
1.0,69.0,79.0,12.0
1.0,71.0,89.0,12.0
1.0,71.0,86.0,20.0
1.0,68.0,69.0,4.0
1.0,64.0,73.0,380.0
1.0,80.0,92.0,576.0
1.0,72.0,73.0,4.0
1.0,69.0,41.0,0.0
1.0,84.0,97.0,4.0
1.0,83.0,97.0,16.0
1.0,76.0,93.0,212.0
1.0,69.0,46.0,4.0
1.0,65.0,66.0,0.0
1.0,86.0,95.0,4.0
1.0,88.0,91.0,12.0
1.0,76.0,86.0,0.0
1.0,71.0,66.0,196.0
1.0,68.0,59.0,0.0
1.0,81.0,95.0,0.0
1.0,80.0,89.0,44.0
1.0,68.0,48.0,4.0
1.0,78.0,82.0,264.0
1.0,64.0,69.0,4.0
1.0,61.0,65.0,4.0
1.0,76.0,95.0,0.0
1.0,57.0,67.0,28.0
1.0,66.0,70.0,4.0
1.0,64.0,91.0,188.0
1.0,76.0,94.0,0.0
1.0,74.0,95.0,188.0
1.0,69.0,84.0,8.0
1.0,71.0,85.0,12.0
1.0,64.0,63.0,192.0
1.0,61.0,46.0,4.0
1.0,76.0,91.0,4.0
1.0,66.0,64.0,8.0
1.0,57.0,46.0,0.0
1.0,64.0,81.0,40.0
1.0,76.0,90.0,8.0
1.0,74.0,89.0,12.0
1.0,69.0,89.0,4.0
1.0,71.0,84.0,192.0
1.0,71.0,93.0,36.0
1.0,64.0,93.0,384.0
1.0,80.0,94.0,572.0
1.0,69.0,62.0,64.0
1.0,72.0,71.0,0.0
1.0,84.0,101.0,16.0
1.0,83.0,97.0,20.0
1.0,76.0,95.0,572.0
1.0,69.0,67.0,40.0
1.0,65.0,67.0,4.0
1.0,86.0,100.0,0.0
1.0,88.0,91.0,44.0
1.0,76.0,95.0,572.0
1.0,71.0,56.0,20.0
1.0,68.0,58.0,4.0
1.0,81.0,104.0,4.0
1.0,80.0,93.0,0.0
1.0,81.0,91.0,380.0
1.0,64.0,68.0,80.0
1.0,61.0,54.0,4.0
1.0,81.0,75.0,0.0
1.0,66.0,62.0,12.0
1.0,57.0,47.0,4.0
1.0,64.0,61.0,4.0
1.0,61.0,48.0,4.0
1.0,57.0,56.0,940.0
1.0,66.0,64.0,4.0
1.0,64.0,70.0,16.0
1.0,61.0,56.0,4.0
1.0,69.0,73.0,0.0
1.0,64.0,71.0,80.0
1.0,61.0,48.0,4.0
1.0,69.0,77.0,16.0
1.0,81.0,99.0,192.0
1.0,78.0,95.0,184.0
1.0,81.0,97.0,0.0
1.0,83.0,78.0,188.0
1.0,69.0,91.0,248.0
1.0,81.0,94.0,192.0
1.0,78.0,90.0,4.0
1.0,81.0,87.0,192.0
1.0,83.0,76.0,188.0
1.0,69.0,90.0,264.0
1.0,81.0,103.0,192.0
1.0,78.0,88.0,8.0
1.0,81.0,91.0,192.0
1.0,83.0,85.0,188.0
1.0,69.0,80.0,256.0
1.0,81.0,92.0,12.0
1.0,78.0,80.0,8.0
1.0,81.0,81.0,152.0
1.0,83.0,74.0,12.0
1.0,81.0,85.0,12.0
1.0,93.0,94.0,8.0
1.0,90.0,86.0,16.0
1.0,93.0,89.0,16.0
1.0,95.0,81.0,12.0
1.0,81.0,84.0,252.0
1.0,93.0,95.0,0.0
1.0,90.0,78.0,8.0
1.0,93.0,81.0,0.0
1.0,95.0,69.0,0.0
1.0,81.0,81.0,256.0
1.0,93.0,89.0,192.0
1.0,90.0,80.0,16.0
1.0,93.0,81.0,196.0
1.0,95.0,77.0,4.0
1.0,81.0,78.0,264.0
1.0,93.0,85.0,8.0
1.0,90.0,76.0,4.0
1.0,93.0,72.0,192.0
1.0,95.0,66.0,8.0
1.0,69.0,80.0,288.0
1.0,81.0,86.0,4.0
1.0,83.0,87.0,16.0
1.0,81.0,91.0,4.0
1.0,69.0,81.0,572.0
1.0,81.0,88.0,184.0
1.0,83.0,89.0,160.0
1.0,81.0,87.0,12.0
1.0,69.0,79.0,32.0
1.0,81.0,89.0,192.0
1.0,83.0,86.0,0.0
1.0,81.0,85.0,16.0
1.0,69.0,78.0,576.0
1.0,81.0,77.0,164.0
1.0,83.0,76.0,24.0
1.0,81.0,79.0,4.0
2.0,45.0,40.0,1864.0
2.0,52.0,47.0,144.0
2.0,61.0,47.0,116.0
2.0,45.0,39.0,328.0
2.0,38.0,47.0,8.0
2.0,45.0,46.0,72.0
2.0,54.0,51.0,60.0
2.0,45.0,41.0,12.0
2.0,52.0,42.0,84.0
2.0,61.0,45.0,112.0
2.0,45.0,39.0,324.0
2.0,38.0,43.0,12.0
2.0,45.0,42.0,56.0
2.0,54.0,46.0,132.0
2.0,45.0,47.0,16.0
2.0,52.0,44.0,88.0
2.0,61.0,41.0,196.0
2.0,45.0,39.0,40.0
2.0,38.0,47.0,20.0
2.0,45.0,39.0,92.0
2.0,54.0,53.0,200.0
2.0,45.0,42.0,8.0
2.0,52.0,44.0,48.0
2.0,61.0,49.0,196.0
2.0,45.0,41.0,132.0
2.0,38.0,46.0,16.0
2.0,45.0,37.0,108.0
2.0,54.0,51.0,188.0
2.0,40.0,47.0,12.0
2.0,47.0,46.0,92.0
2.0,56.0,50.0,132.0
2.0,40.0,46.0,196.0
2.0,45.0,48.0,4.0
2.0,52.0,54.0,108.0
2.0,60.0,63.0,132.0
2.0,38.0,49.0,4.0
2.0,45.0,53.0,112.0
2.0,53.0,56.0,196.0
2.0,38.0,51.0,324.0
2.0,40.0,51.0,12.0
2.0,47.0,53.0,84.0
2.0,56.0,53.0,196.0
2.0,45.0,60.0,20.0
2.0,52.0,53.0,100.0
2.0,61.0,67.0,136.0
2.0,45.0,56.0,100.0
2.0,38.0,55.0,12.0
2.0,45.0,49.0,148.0
2.0,54.0,59.0,188.0
2.0,45.0,58.0,16.0
2.0,52.0,55.0,96.0
2.0,61.0,61.0,124.0
2.0,45.0,51.0,200.0
2.0,38.0,55.0,16.0
2.0,45.0,52.0,144.0
2.0,54.0,53.0,196.0
2.0,40.0,59.0,8.0
2.0,47.0,53.0,0.0
2.0,56.0,60.0,200.0
2.0,40.0,51.0,232.0
2.0,45.0,59.0,12.0
2.0,52.0,51.0,84.0
2.0,60.0,58.0,196.0
2.0,38.0,52.0,12.0
2.0,45.0,57.0,128.0
2.0,53.0,58.0,96.0
2.0,38.0,56.0,316.0
2.0,40.0,53.0,28.0
2.0,47.0,50.0,96.0
2.0,56.0,54.0,196.0
2.0,45.0,59.0,28.0
2.0,52.0,57.0,112.0
2.0,61.0,54.0,60.0
2.0,45.0,54.0,84.0
2.0,38.0,51.0,8.0
2.0,45.0,47.0,72.0
2.0,54.0,46.0,28.0
2.0,45.0,54.0,8.0
2.0,52.0,46.0,88.0
2.0,61.0,54.0,164.0
2.0,45.0,48.0,168.0
2.0,38.0,49.0,8.0
2.0,45.0,42.0,40.0
2.0,54.0,41.0,36.0
2.0,45.0,47.0,8.0
2.0,52.0,51.0,108.0
2.0,61.0,53.0,148.0
2.0,52.0,43.0,324.0
2.0,45.0,48.0,24.0
2.0,52.0,43.0,88.0
2.0,61.0,44.0,16.0
2.0,45.0,41.0,24.0
2.0,52.0,46.0,92.0
2.0,61.0,43.0,152.0
2.0,52.0,45.0,328.0
2.0,45.0,45.0,12.0
2.0,52.0,46.0,16.0
2.0,61.0,41.0,20.0
2.0,50.0,45.0,24.0
2.0,57.0,47.0,272.0
2.0,66.0,39.0,96.0
2.0,50.0,45.0,8.0
2.0,57.0,46.0,248.0
2.0,66.0,46.0,288.0
2.0,52.0,44.0,4.0
2.0,59.0,41.0,236.0
2.0,67.0,41.0,384.0
2.0,52.0,47.0,8.0
2.0,59.0,41.0,220.0
2.0,67.0,48.0,384.0
2.0,50.0,48.0,8.0
2.0,57.0,38.0,220.0
2.0,66.0,45.0,384.0
2.0,50.0,40.0,24.0
2.0,57.0,39.0,292.0
2.0,66.0,41.0,384.0
2.0,52.0,48.0,24.0
2.0,59.0,42.0,300.0
2.0,67.0,41.0,240.0
2.0,52.0,46.0,20.0
2.0,59.0,43.0,304.0
2.0,67.0,54.0,328.0
2.0,50.0,49.0,8.0
2.0,57.0,43.0,320.0
2.0,66.0,48.0,384.0
2.0,50.0,47.0,16.0
2.0,57.0,47.0,312.0
2.0,66.0,54.0,384.0
2.0,52.0,49.0,12.0
2.0,59.0,48.0,280.0
2.0,67.0,51.0,168.0
2.0,52.0,47.0,20.0
2.0,59.0,47.0,312.0
2.0,67.0,48.0,252.0
2.0,50.0,49.0,24.0
2.0,57.0,43.0,316.0
2.0,66.0,47.0,384.0
2.0,50.0,54.0,24.0
2.0,57.0,47.0,308.0
2.0,66.0,51.0,384.0
2.0,52.0,51.0,20.0
2.0,59.0,46.0,300.0
2.0,67.0,47.0,176.0
2.0,52.0,49.0,8.0
2.0,59.0,41.0,308.0
2.0,67.0,48.0,192.0
2.0,50.0,49.0,8.0
2.0,57.0,41.0,80.0
2.0,57.0,39.0,104.0
2.0,62.0,47.0,32.0
2.0,66.0,49.0,32.0
2.0,38.0,46.0,24.0
3.0,64.0,46.0,1844.0
3.0,61.0,42.0,4.0
3.0,66.0,57.0,8.0
3.0,57.0,52.0,0.0
3.0,61.0,48.0,12.0
3.0,64.0,50.0,0.0
3.0,66.0,57.0,16.0
3.0,57.0,43.0,0.0
3.0,76.0,72.0,20.0
3.0,64.0,65.0,208.0
3.0,76.0,72.0,168.0
3.0,74.0,68.0,168.0
3.0,69.0,64.0,128.0
3.0,71.0,70.0,152.0
3.0,76.0,71.0,8.0
3.0,64.0,63.0,136.0
3.0,76.0,68.0,176.0
3.0,74.0,67.0,180.0
3.0,69.0,70.0,148.0
3.0,71.0,78.0,164.0
3.0,64.0,49.0,8.0
3.0,68.0,65.0,20.0
3.0,71.0,71.0,36.0
3.0,64.0,57.0,184.0
3.0,80.0,70.0,380.0
3.0,76.0,61.0,8.0
3.0,81.0,70.0,36.0
3.0,84.0,82.0,24.0
3.0,83.0,82.0,32.0
3.0,76.0,71.0,172.0
3.0,77.0,56.0,8.0
3.0,81.0,75.0,28.0
3.0,86.0,82.0,32.0
3.0,88.0,84.0,4.0
3.0,76.0,68.0,300.0
3.0,71.0,50.0,8.0
3.0,76.0,67.0,32.0
3.0,81.0,77.0,36.0
3.0,80.0,70.0,280.0
3.0,78.0,63.0,152.0
3.0,76.0,77.0,20.0
3.0,73.0,66.0,0.0
3.0,66.0,58.0,12.0
3.0,57.0,47.0,0.0
3.0,64.0,65.0,60.0
3.0,76.0,74.0,8.0
3.0,74.0,66.0,188.0
3.0,69.0,61.0,124.0
3.0,71.0,72.0,4.0
3.0,76.0,75.0,16.0
3.0,73.0,64.0,0.0
3.0,66.0,57.0,16.0
3.0,57.0,49.0,0.0
3.0,64.0,66.0,60.0
3.0,76.0,71.0,32.0
3.0,74.0,68.0,192.0
3.0,69.0,63.0,144.0
3.0,71.0,63.0,168.0
3.0,64.0,53.0,8.0
3.0,68.0,63.0,28.0
3.0,71.0,68.0,28.0
3.0,64.0,64.0,8.0
3.0,80.0,65.0,432.0
3.0,76.0,65.0,8.0
3.0,81.0,70.0,32.0
3.0,84.0,77.0,28.0
3.0,83.0,78.0,24.0
3.0,76.0,61.0,184.0
3.0,77.0,56.0,8.0
3.0,81.0,72.0,28.0
3.0,86.0,82.0,28.0
3.0,88.0,78.0,8.0
3.0,76.0,67.0,240.0
3.0,71.0,54.0,8.0
3.0,76.0,66.0,20.0
3.0,81.0,77.0,40.0
3.0,80.0,70.0,292.0
3.0,81.0,61.0,360.0
3.0,69.0,48.0,8.0
3.0,73.0,57.0,32.0
3.0,76.0,54.0,32.0
3.0,81.0,75.0,32.0
3.0,78.0,49.0,8.0
3.0,69.0,51.0,0.0
3.0,73.0,46.0,8.0
3.0,76.0,46.0,4.0
3.0,78.0,48.0,12.0
3.0,69.0,38.0,0.0
3.0,61.0,42.0,16.0
3.0,64.0,40.0,0.0
3.0,69.0,59.0,0.0
3.0,69.0,70.0,8.0
3.0,69.0,77.0,352.0
3.0,73.0,68.0,8.0
3.0,66.0,51.0,0.0
3.0,71.0,66.0,8.0
3.0,71.0,70.0,320.0
3.0,73.0,63.0,20.0
3.0,67.0,50.0,0.0
3.0,69.0,57.0,8.0
3.0,66.0,45.0,0.0
3.0,62.0,36.0,0.0
3.0,69.0,67.0,348.0
3.0,73.0,66.0,8.0
3.0,62.0,25.0,4.0
3.0,66.0,27.0,0.0
3.0,69.0,38.0,12.0
3.0,81.0,61.0,156.0
3.0,78.0,63.0,0.0
3.0,81.0,71.0,8.0
3.0,83.0,68.0,12.0
3.0,71.0,70.0,24.0
3.0,67.0,48.0,0.0
3.0,64.0,31.0,4.0
3.0,71.0,65.0,236.0
3.0,73.0,67.0,20.0
3.0,64.0,32.0,0.0
3.0,67.0,32.0,16.0
3.0,69.0,48.0,12.0
3.0,81.0,66.0,144.0
3.0,78.0,67.0,0.0
3.0,81.0,68.0,196.0
3.0,83.0,70.0,16.0
3.0,69.0,70.0,12.0
3.0,62.0,43.0,0.0
3.0,66.0,47.0,0.0
3.0,81.0,57.0,248.0
3.0,78.0,53.0,16.0
3.0,69.0,72.0,188.0
3.0,81.0,68.0,4.0
3.0,83.0,65.0,12.0
3.0,73.0,68.0,16.0
3.0,66.0,59.0,4.0
3.0,62.0,48.0,0.0
3.0,81.0,58.0,284.0
3.0,78.0,66.0,188.0
3.0,81.0,72.0,196.0
3.0,83.0,74.0,12.0
3.0,71.0,71.0,16.0
3.0,64.0,52.0,0.0
3.0,67.0,30.0,0.0
3.0,69.0,64.0,92.0
3.0,81.0,61.0,128.0
3.0,78.0,65.0,0.0
3.0,81.0,74.0,16.0
3.0,71.0,75.0,0.0
3.0,83.0,66.0,0.0
3.0,73.0,72.0,20.0
3.0,64.0,51.0,0.0
3.0,67.0,44.0,0.0
3.0,69.0,63.0,8.0
3.0,81.0,65.0,176.0
3.0,78.0,63.0,188.0
3.0,81.0,65.0,192.0
3.0,83.0,64.0,8.0
3.0,69.0,60.0,28.0
3.0,66.0,55.0,0.0
3.0,69.0,41.0,52.0
3.0,81.0,67.0,192.0
3.0,83.0,66.0,112.0
3.0,69.0,66.0,28.0
3.0,81.0,66.0,0.0
3.0,73.0,71.0,24.0
3.0,62.0,40.0,0.0
3.0,66.0,44.0,0.0
3.0,69.0,57.0,20.0
3.0,81.0,65.0,172.0
3.0,83.0,57.0,4.0
3.0,81.0,57.0,196.0
3.0,71.0,68.0,20.0
3.0,67.0,43.0,0.0
3.0,64.0,38.0,0.0
3.0,69.0,53.0,4.0
3.0,81.0,63.0,164.0
3.0,83.0,57.0,12.0
3.0,71.0,71.0,8.0
3.0,81.0,70.0,4.0
3.0,73.0,65.0,8.0
3.0,64.0,44.0,0.0
3.0,67.0,64.0,0.0
3.0,69.0,59.0,0.0
3.0,81.0,60.0,180.0
3.0,83.0,54.0,4.0
3.0,81.0,64.0,200.0
3.0,78.0,48.0,8.0
3.0,74.0,42.0,0.0
3.0,69.0,37.0,0.0
4.0,38.0,89.0,2984.0
4.0,45.0,91.0,8.0
4.0,45.0,91.0,40.0
4.0,38.0,93.0,388.0
4.0,45.0,96.0,4.0
4.0,45.0,95.0,76.0
4.0,38.0,95.0,12.0
4.0,45.0,96.0,12.0
4.0,45.0,89.0,88.0
4.0,38.0,97.0,8.0
4.0,40.0,104.0,16.0
4.0,40.0,100.0,76.0
4.0,45.0,104.0,4.0
4.0,38.0,109.0,20.0
4.0,38.0,111.0,60.0
4.0,40.0,105.0,396.0
4.0,45.0,98.0,4.0
4.0,45.0,95.0,68.0
4.0,38.0,98.0,0.0
4.0,45.0,99.0,16.0
4.0,45.0,95.0,72.0
4.0,38.0,104.0,392.0
4.0,40.0,103.0,0.0
4.0,40.0,104.0,64.0
4.0,45.0,103.0,384.0
4.0,38.0,108.0,8.0
4.0,38.0,103.0,24.0
4.0,40.0,103.0,32.0
4.0,45.0,103.0,1156.0
4.0,45.0,104.0,80.0
4.0,38.0,110.0,0.0
4.0,45.0,101.0,12.0
4.0,45.0,99.0,64.0
4.0,38.0,109.0,396.0
4.0,45.0,106.0,0.0
4.0,40.0,110.0,772.0
4.0,45.0,102.0,24.0
4.0,45.0,105.0,60.0
4.0,40.0,103.0,768.0
4.0,45.0,100.0,376.0
4.0,57.0,78.0,16.0
4.0,50.0,78.0,0.0
4.0,57.0,78.0,44.0
4.0,50.0,79.0,0.0
4.0,57.0,87.0,48.0
4.0,50.0,87.0,4.0
4.0,59.0,85.0,52.0
4.0,52.0,87.0,4.0
4.0,59.0,82.0,52.0
4.0,52.0,80.0,4.0
4.0,57.0,84.0,8.0
4.0,50.0,84.0,4.0
4.0,50.0,82.0,28.0
4.0,57.0,92.0,0.0
4.0,50.0,91.0,56.0
4.0,57.0,88.0,0.0
4.0,59.0,85.0,112.0
4.0,52.0,87.0,4.0
4.0,59.0,71.0,36.0
4.0,57.0,80.0,12.0
4.0,50.0,86.0,0.0
4.0,57.0,86.0,20.0
4.0,50.0,76.0,4.0
4.0,59.0,83.0,164.0
4.0,52.0,85.0,0.0
4.0,59.0,81.0,40.0
4.0,52.0,89.0,0.0
4.0,59.0,79.0,56.0
4.0,52.0,83.0,4.0
4.0,50.0,78.0,296.0
4.0,57.0,81.0,0.0
4.0,50.0,73.0,40.0
4.0,57.0,77.0,60.0
4.0,50.0,74.0,4.0
4.0,59.0,82.0,4.0
4.0,52.0,86.0,0.0
4.0,59.0,66.0,28.0
4.0,52.0,88.0,0.0
4.0,59.0,90.0,48.0
4.0,52.0,87.0,0.0
4.0,57.0,78.0,124.0
4.0,50.0,77.0,0.0
5.0,69.0,88.0,34064.0
5.0,69.0,92.0,28.0
5.0,73.0,84.0,24.0
5.0,71.0,88.0,16.0
5.0,71.0,91.0,84.0
5.0,73.0,83.0,372.0
5.0,69.0,94.0,16.0
5.0,69.0,84.0,88.0
5.0,73.0,91.0,20.0
5.0,71.0,92.0,40.0
5.0,71.0,87.0,96.0
5.0,73.0,79.0,4.0
5.0,69.0,84.0,12.0
5.0,69.0,82.0,88.0
5.0,73.0,81.0,12.0
5.0,71.0,89.0,20.0
5.0,71.0,81.0,20.0
5.0,73.0,92.0,12.0
5.0,69.0,87.0,8.0
5.0,69.0,87.0,72.0
5.0,73.0,86.0,4.0
5.0,71.0,87.0,0.0
5.0,71.0,89.0,20.0
5.0,73.0,79.0,360.0
6.0,45.0,91.0,1780.0
6.0,52.0,83.0,196.0
6.0,61.0,77.0,24.0
6.0,45.0,80.0,8.0
6.0,38.0,91.0,20.0
6.0,45.0,82.0,0.0
6.0,54.0,73.0,0.0
6.0,45.0,88.0,432.0
6.0,52.0,74.0,188.0
6.0,61.0,73.0,12.0
6.0,45.0,81.0,384.0
6.0,38.0,91.0,32.0
6.0,45.0,81.0,0.0
6.0,54.0,74.0,16.0
6.0,45.0,91.0,320.0
6.0,52.0,78.0,8.0
6.0,61.0,75.0,24.0
6.0,45.0,76.0,384.0
6.0,38.0,90.0,36.0
6.0,45.0,81.0,28.0
6.0,54.0,77.0,4.0
6.0,45.0,78.0,328.0
6.0,52.0,77.0,36.0
6.0,61.0,61.0,40.0
6.0,45.0,81.0,32.0
6.0,38.0,85.0,56.0
6.0,45.0,66.0,32.0
6.0,54.0,72.0,204.0
6.0,40.0,83.0,256.0
6.0,47.0,71.0,48.0
6.0,56.0,73.0,28.0
6.0,40.0,91.0,68.0
6.0,45.0,87.0,96.0
6.0,52.0,82.0,8.0
6.0,60.0,81.0,28.0
6.0,38.0,93.0,492.0
6.0,45.0,82.0,20.0
6.0,53.0,81.0,52.0
6.0,38.0,95.0,80.0
6.0,40.0,97.0,124.0
6.0,50.0,84.0,28.0
6.0,56.0,77.0,48.0
6.0,45.0,87.0,556.0
6.0,52.0,89.0,28.0
6.0,61.0,67.0,24.0
6.0,52.0,73.0,52.0
6.0,38.0,100.0,188.0
6.0,45.0,76.0,8.0
6.0,54.0,67.0,48.0
6.0,45.0,83.0,528.0
6.0,52.0,85.0,28.0
6.0,61.0,70.0,16.0
6.0,45.0,86.0,88.0
6.0,38.0,95.0,212.0
6.0,45.0,79.0,20.0
6.0,54.0,73.0,52.0
6.0,40.0,91.0,108.0
6.0,47.0,75.0,44.0
6.0,56.0,78.0,52.0
6.0,40.0,87.0,20.0
6.0,45.0,87.0,112.0
6.0,52.0,79.0,28.0
6.0,60.0,71.0,16.0
6.0,38.0,98.0,568.0
6.0,45.0,78.0,12.0
6.0,53.0,78.0,32.0
6.0,38.0,93.0,76.0
6.0,40.0,84.0,156.0
6.0,50.0,87.0,4.0
6.0,56.0,60.0,32.0
6.0,45.0,89.0,380.0
6.0,52.0,70.0,8.0
6.0,61.0,68.0,32.0
6.0,45.0,80.0,40.0
6.0,38.0,92.0,64.0
6.0,45.0,75.0,20.0
6.0,54.0,77.0,12.0
6.0,45.0,88.0,360.0
6.0,52.0,72.0,12.0
6.0,61.0,66.0,36.0
6.0,45.0,81.0,56.0
6.0,38.0,92.0,92.0
6.0,45.0,79.0,24.0
6.0,54.0,70.0,116.0
6.0,45.0,93.0,616.0
6.0,52.0,79.0,24.0
6.0,61.0,72.0,32.0
6.0,52.0,74.0,52.0
6.0,45.0,89.0,8.0
6.0,52.0,75.0,4.0
6.0,61.0,60.0,28.0
6.0,45.0,87.0,476.0
6.0,52.0,78.0,24.0
6.0,61.0,70.0,28.0
6.0,52.0,79.0,108.0
6.0,45.0,87.0,388.0
6.0,52.0,69.0,40.0
6.0,61.0,74.0,16.0
6.0,50.0,87.0,224.0
6.0,57.0,73.0,152.0
6.0,66.0,76.0,92.0
6.0,50.0,80.0,64.0
6.0,57.0,75.0,232.0
6.0,66.0,74.0,16.0
6.0,52.0,82.0,24.0
6.0,59.0,78.0,28.0
6.0,67.0,79.0,12.0
6.0,52.0,79.0,168.0
6.0,59.0,72.0,396.0
6.0,50.0,87.0,388.0
6.0,57.0,71.0,188.0
6.0,66.0,69.0,176.0
6.0,50.0,78.0,36.0
6.0,57.0,77.0,56.0
6.0,66.0,72.0,8.0
6.0,52.0,81.0,12.0
6.0,59.0,72.0,124.0
6.0,67.0,65.0,68.0
6.0,52.0,74.0,380.0
6.0,59.0,78.0,24.0
6.0,67.0,68.0,16.0
6.0,50.0,81.0,16.0
6.0,57.0,77.0,60.0
6.0,66.0,64.0,20.0
6.0,50.0,84.0,8.0
6.0,57.0,77.0,8.0
6.0,66.0,70.0,32.0
6.0,59.0,81.0,680.0
6.0,67.0,70.0,20.0
6.0,52.0,77.0,12.0
6.0,59.0,77.0,0.0
6.0,67.0,66.0,12.0
6.0,50.0,84.0,8.0
6.0,57.0,73.0,376.0
6.0,66.0,71.0,16.0
6.0,50.0,81.0,384.0
6.0,57.0,84.0,376.0
6.0,66.0,71.0,32.0
6.0,52.0,84.0,376.0
6.0,59.0,75.0,4.0
6.0,67.0,71.0,20.0
6.0,52.0,77.0,380.0
6.0,59.0,69.0,376.0
6.0,67.0,59.0,36.0
6.0,50.0,69.0,188.0
6.0,57.0,77.0,4.0
7.0,69.0,78.0,380.0
7.0,66.0,77.0,0.0
7.0,62.0,62.0,12.0
7.0,69.0,83.0,20.0
7.0,66.0,74.0,0.0
7.0,62.0,73.0,48.0
7.0,66.0,57.0,24.0
7.0,62.0,87.0,0.0
7.0,73.0,95.0,4.0
7.0,71.0,91.0,176.0
7.0,64.0,81.0,4.0
7.0,67.0,86.0,0.0
7.0,71.0,79.0,44.0
7.0,67.0,82.0,0.0
7.0,64.0,79.0,4.0
7.0,67.0,61.0,28.0
7.0,73.0,91.0,0.0
7.0,64.0,73.0,4.0
7.0,69.0,90.0,248.0
7.0,62.0,83.0,0.0
7.0,66.0,88.0,0.0
7.0,66.0,76.0,48.0
7.0,69.0,82.0,0.0
7.0,62.0,78.0,0.0
7.0,73.0,96.0,12.0
7.0,62.0,75.0,4.0
7.0,67.0,88.0,152.0
7.0,71.0,87.0,4.0
7.0,64.0,85.0,4.0
7.0,67.0,73.0,40.0
7.0,71.0,91.0,4.0
7.0,64.0,75.0,0.0
7.0,73.0,94.0,380.0
7.0,62.0,82.0,248.0
7.0,66.0,92.0,4.0
7.0,69.0,85.0,0.0
7.0,66.0,75.0,52.0
7.0,69.0,90.0,0.0
7.0,62.0,81.0,4.0
7.0,73.0,94.0,180.0
7.0,71.0,87.0,168.0
7.0,67.0,83.0,0.0
7.0,64.0,85.0,0.0
7.0,71.0,87.0,20.0
7.0,67.0,86.0,4.0
7.0,64.0,75.0,4.0
7.0,73.0,94.0,100.0
7.0,62.0,83.0,152.0
7.0,69.0,83.0,0.0
7.0,66.0,93.0,4.0
7.0,69.0,76.0,40.0
7.0,66.0,83.0,4.0
7.0,62.0,74.0,0.0
7.0,66.0,60.0,32.0
7.0,73.0,90.0,0.0
7.0,62.0,75.0,4.0
7.0,67.0,82.0,48.0
7.0,71.0,91.0,0.0
7.0,64.0,84.0,4.0
7.0,67.0,77.0,44.0
7.0,71.0,80.0,0.0
7.0,64.0,71.0,4.0
7.0,73.0,85.0,60.0
7.0,64.0,62.0,4.0
7.0,69.0,78.0,228.0
7.0,66.0,81.0,0.0
7.0,62.0,73.0,0.0
0.0,0.0,0.0,0.0
0.0,0.0,0.0,0.0
0.0,0.0,0.0,0.0
0.0,0.0,0.0,0.0
0.0,0.0,0.0,0.0
0.0,0.0,0.0,0.0
0.0,0.0,0.0,0.0
0.0,0.0,0.0,0.0
0.0,0.0,0.0,0.0
0.0,0.0,0.0,0.0
0.0,0.0,0.0,0.0
0.0,0.0,0.0,0.0
0.0,0.0,0.0,0.0
0.0,0.0,0.0,0.0
0.0,0.0,0.0,0.0
0.0,0.0,0.0,0.0
0.0,0.0,0.0,0.0
0.0,0.0,0.0,0.0
0.0,0.0,0.0,0.0
0.0,0.0,0.0,0.0
0.0,0.0,0.0,0.0
0.0,0.0,0.0,0.0
0.0,0.0,0.0,0.0
0.0,0.0,0.0,0.0
0.0,0.0,0.0,0.0
0.0,0.0,0.0,0.0
0.0,0.0,0.0,0.0
0.0,0.0,0.0,0.0
0.0,0.0,0.0,0.0
0.0,0.0,0.0,0.0
0.0,0.0,0.0,0.0
0.0,0.0,0.0,0.0
0.0,0.0,0.0,0.0
0.0,0.0,0.0,0.0
0.0,0.0,0.0,0.0
0.0,0.0,0.0,0.0
0.0,0.0,0.0,0.0
0.0,0.0,0.0,0.0
0.0,0.0,0.0,0.0
0.0,0.0,0.0,0.0
0.0,0.0,0.0,0.0
0.0,0.0,0.0,0.0
0.0,0.0,0.0,0.0
0.0,0.0,0.0,0.0
0.0,0.0,0.0,0.0
0.0,0.0,0.0,0.0
0.0,0.0,0.0,0.0
0.0,0.0,0.0,0.0
0.0,0.0,0.0,0.0
0.0,0.0,0.0,0.0
0.0,0.0,0.0,0.0
0.0,0.0,0.0,0.0
0.0,0.0,0.0,0.0
0.0,0.0,0.0,0.0
0.0,0.0,0.0,0.0
0.0,0.0,0.0,0.0
0.0,0.0,0.0,0.0
0.0,0.0,0.0,0.0
0.0,0.0,0.0,0.0
0.0,0.0,0.0,0.0
0.0,0.0,0.0,0.0
0.0,0.0,0.0,0.0
0.0,0.0,0.0,0.0
0.0,0.0,0.0,0.0
0.0,0.0,0.0,0.0
0.0,0.0,0.0,0.0
0.0,0.0,0.0,0.0
0.0,0.0,0.0,0.0
0.0,0.0,0.0,0.0
0.0,0.0,0.0,0.0
0.0,0.0,0.0,0.0
0.0,0.0,0.0,0.0
0.0,0.0,0.0,0.0
0.0,0.0,0.0,0.0
0.0,0.0,0.0,0.0
0.0,0.0,0.0,0.0
0.0,0.0,0.0,0.0
0.0,0.0,0.0,0.0
0.0,0.0,0.0,0.0
0.0,0.0,0.0,0.0
0.0,0.0,0.0,0.0
0.0,0.0,0.0,0.0
0.0,0.0,0.0,0.0
0.0,0.0,0.0,0.0
0.0,0.0,0.0,0.0
0.0,0.0,0.0,0.0
0.0,0.0,0.0,0.0
0.0,0.0,0.0,0.0
0.0,0.0,0.0,0.0
0.0,0.0,0.0,0.0
0.0,0.0,0.0,0.0
0.0,0.0,0.0,0.0
0.0,0.0,0.0,0.0
0.0,0.0,0.0,0.0
0.0,0.0,0.0,0.0
0.0,0.0,0.0,0.0
0.0,0.0,0.0,0.0
0.0,0.0,0.0,0.0
0.0,0.0,0.0,0.0
0.0,0.0,0.0,0.0
0.0,0.0,0.0,0.0
0.0,0.0,0.0,0.0
0.0,0.0,0.0,0.0
0.0,0.0,0.0,0.0
0.0,0.0,0.0,0.0
0.0,0.0,0.0,0.0
0.0,0.0,0.0,0.0
0.0,0.0,0.0,0.0
0.0,0.0,0.0,0.0
0.0,0.0,0.0,0.0
0.0,0.0,0.0,0.0
0.0,0.0,0.0,0.0
0.0,0.0,0.0,0.0
0.0,0.0,0.0,0.0
0.0,0.0,0.0,0.0
0.0,0.0,0.0,0.0
0.0,0.0,0.0,0.0
0.0,0.0,0.0,0.0
0.0,0.0,0.0,0.0
0.0,0.0,0.0,0.0
0.0,0.0,0.0,0.0
0.0,0.0,0.0,0.0
0.0,0.0,0.0,0.0
0.0,0.0,0.0,0.0
0.0,0.0,0.0,0.0
0.0,0.0,0.0,0.0
0.0,0.0,0.0,0.0
0.0,0.0,0.0,0.0
0.0,0.0,0.0,0.0
0.0,0.0,0.0,0.0
0.0,0.0,0.0,0.0
0.0,0.0,0.0,0.0
0.0,0.0,0.0,0.0
0.0,0.0,0.0,0.0
0.0,0.0,0.0,0.0
0.0,0.0,0.0,0.0
0.0,0.0,0.0,0.0
0.0,0.0,0.0,0.0
0.0,0.0,0.0,0.0
0.0,0.0,0.0,0.0
0.0,0.0,0.0,0.0
0.0,0.0,0.0,0.0
0.0,0.0,0.0,0.0
0.0,0.0,0.0,0.0
0.0,0.0,0.0,0.0
0.0,0.0,0.0,0.0
0.0,0.0,0.0,0.0
0.0,0.0,0.0,0.0
0.0,0.0,0.0,0.0
0.0,0.0,0.0,0.0
0.0,0.0,0.0,0.0
0.0,0.0,0.0,0.0
0.0,0.0,0.0,0.0
0.0,0.0,0.0,0.0
0.0,0.0,0.0,0.0
0.0,0.0,0.0,0.0
0.0,0.0,0.0,0.0
0.0,0.0,0.0,0.0
0.0,0.0,0.0,0.0
0.0,0.0,0.0,0.0
0.0,0.0,0.0,0.0
0.0,0.0,0.0,0.0
0.0,0.0,0.0,0.0
0.0,0.0,0.0,0.0
0.0,0.0,0.0,0.0
0.0,0.0,0.0,0.0
0.0,0.0,0.0,0.0
0.0,0.0,0.0,0.0
0.0,0.0,0.0,0.0
0.0,0.0,0.0,0.0
0.0,0.0,0.0,0.0
0.0,0.0,0.0,0.0
0.0,0.0,0.0,0.0
0.0,0.0,0.0,0.0
0.0,0.0,0.0,0.0
0.0,0.0,0.0,0.0
0.0,0.0,0.0,0.0
0.0,0.0,0.0,0.0
0.0,0.0,0.0,0.0
0.0,0.0,0.0,0.0
0.0,0.0,0.0,0.0
0.0,0.0,0.0,0.0
0.0,0.0,0.0,0.0
0.0,0.0,0.0,0.0
0.0,0.0,0.0,0.0
0.0,0.0,0.0,0.0
