track,note,velocity,time
2,35,104,1344
2,35,123,84
2,35,120,202
2,35,120,194
2,35,120,172
2,35,120,184
2,35,120,186
2,35,120,170
2,35,117,176
2,35,120,190
2,35,117,190
2,35,117,182
2,35,120,168
2,35,123,174
2,35,120,176
2,35,117,178
2,35,120,172
2,35,127,44
2,35,123,96
2,35,120,202
2,35,120,194
2,35,120,172
2,35,120,184
2,35,120,186
2,35,120,170
2,35,117,176
2,35,120,190
2,35,117,190
2,35,117,182
2,35,120,168
2,35,123,174
2,35,120,176
2,35,117,178
2,35,120,172
2,35,127,44
2,35,123,96
2,35,120,202
2,35,120,194
2,35,120,172
2,35,120,184
2,35,120,186
2,35,120,170
2,35,117,176
2,35,120,190
2,35,117,190
2,35,117,182
2,35,120,168
2,35,123,174
2,35,120,176
2,35,117,178
2,35,120,172
2,35,127,44
2,35,123,96
2,35,120,202
2,35,120,194
2,35,120,172
2,35,120,184
2,35,120,186
2,35,120,170
2,35,117,176
2,35,120,190
2,35,117,190
2,35,117,182
2,35,120,168
2,35,123,174
2,35,120,176
2,35,117,178
2,35,120,172
2,35,127,44
2,35,123,96
2,35,120,202
2,35,120,194
2,35,120,172
2,35,120,184
2,35,120,186
2,35,120,170
2,35,117,176
2,35,120,190
2,35,117,190
2,35,117,182
2,35,120,168
2,35,123,174
2,35,89,16
2,35,120,192
2,35,76,32
2,35,117,192
2,35,73,16
2,35,120,192
2,35,70,0
2,35,127,0
2,35,123,96
2,35,120,202
2,35,120,194
2,35,120,172
2,35,120,184
2,35,120,186
2,35,120,170
2,35,117,176
2,35,120,190
2,35,117,190
2,35,117,182
2,35,120,168
2,35,123,174
2,35,120,176
2,35,117,178
2,35,120,172
2,35,127,44
2,35,123,96
2,35,120,202
2,35,120,194
2,35,120,172
2,35,120,184
2,35,120,186
2,35,120,170
2,35,117,176
2,35,120,190
2,35,117,190
2,35,117,182
2,35,120,168
2,35,123,174
2,35,120,176
2,35,117,178
2,35,120,172
2,35,127,44
2,35,123,96
2,35,120,202
2,35,120,194
2,35,120,172
2,35,120,184
2,35,120,186
2,35,120,170
2,35,117,176
2,35,120,190
2,35,117,190
2,35,117,182
2,35,120,168
2,35,123,174
2,35,120,176
2,35,117,178
2,35,120,172
2,35,127,44
2,35,123,96
2,35,120,202
2,35,120,194
2,35,120,172
2,35,120,184
2,35,120,186
2,35,120,170
2,35,117,176
2,35,120,190
2,35,117,190
2,35,117,182
2,35,120,168
2,35,123,174
2,35,120,176
2,35,117,178
2,35,120,172
2,35,123,236
2,35,120,176
2,35,117,178
2,35,104,364
2,35,123,84
2,35,120,202
2,35,120,194
2,35,120,172
2,35,120,184
2,35,120,186
2,35,120,170
2,35,117,176
2,35,120,190
2,35,117,190
2,35,117,182
2,35,120,168
2,35,123,174
2,35,120,176
2,35,117,178
2,35,120,172
2,35,127,44
2,35,123,96
2,35,120,202
2,35,120,194
2,35,120,172
2,35,120,184
2,35,120,186
2,35,120,170
2,35,117,176
2,35,120,190
2,35,117,190
2,35,117,182
2,35,120,168
2,35,123,174
2,35,120,176
2,35,117,178
2,35,120,172
2,35,127,44
2,35,123,96
2,35,120,202
2,35,120,194
2,35,120,172
2,35,120,184
2,35,120,186
2,35,120,170
2,35,117,176
2,35,120,190
2,35,117,190
2,35,117,182
2,35,120,168
2,35,123,174
2,35,120,176
2,35,117,178
2,35,120,172
2,35,127,44
2,35,123,96
2,35,120,202
2,35,120,194
2,35,120,172
2,35,120,184
2,35,120,186
2,35,120,170
2,35,117,176
2,35,120,190
2,35,117,190
2,35,117,182
2,35,120,168
2,35,123,174
2,35,120,176
2,35,117,178
2,35,120,172
2,35,127,44
2,35,123,96
2,35,120,202
2,35,120,194
2,35,120,172
2,35,120,184
2,35,120,186
2,35,120,170
2,35,117,176
2,35,120,190
2,35,117,190
2,35,117,182
2,35,120,168
2,35,123,174
2,35,120,176
2,35,117,178
2,35,120,172
2,35,127,44
2,35,123,96
2,35,120,202
2,35,120,194
2,35,120,172
2,35,120,184
2,35,120,186
2,35,120,170
2,35,117,176
2,35,120,190
2,35,117,190
2,35,117,182
2,35,120,168
2,35,123,174
2,35,120,176
2,35,117,178
2,35,120,172
2,35,127,44
2,35,123,96
2,35,120,202
2,35,120,194
2,35,120,172
2,35,120,184
2,35,120,186
2,35,120,170
2,35,117,176
2,35,120,190
2,35,117,190
2,35,117,182
2,35,120,168
2,35,123,174
2,35,120,176
2,35,117,178
2,35,120,172
2,35,127,44
2,35,123,96
2,35,120,202
2,35,120,194
2,35,120,172
2,35,120,184
2,35,120,186
2,35,120,170
2,35,117,176
2,35,120,190
2,35,117,190
2,35,117,182
2,35,120,168
2,35,123,174
2,35,120,176
2,35,117,178
2,35,120,172
2,35,127,44
2,35,123,96
2,35,120,202
2,35,120,194
2,35,120,172
2,35,120,184
2,35,120,186
2,35,120,170
2,35,117,176
2,35,120,190
2,35,117,190
2,35,117,182
2,35,120,168
2,35,123,174
2,35,120,176
2,35,117,178
2,35,120,172
2,35,127,44
2,35,123,96
2,35,120,202
2,35,120,194
2,35,120,172
2,35,120,184
2,35,120,186
2,35,120,170
2,35,117,176
2,35,120,190
2,35,117,190
2,35,117,182
2,35,120,168
2,35,123,174
2,35,120,176
2,35,117,178
2,35,120,172
2,35,127,44
2,35,123,96
2,35,120,202
2,35,120,194
2,35,120,172
2,35,120,184
2,35,120,186
2,35,120,170
2,35,117,176
2,35,120,190
2,35,117,190
2,35,117,182
2,35,120,168
2,35,123,174
2,35,120,176
2,35,117,178
2,35,120,172
2,35,127,44
2,35,123,96
2,35,120,202
2,35,120,194
2,35,120,172
2,35,120,184
2,35,120,186
2,35,120,170
2,35,117,176
2,35,120,190
2,35,117,190
2,35,117,182
2,35,120,168
2,35,123,174
2,35,120,176
2,35,117,178
2,35,120,172
2,35,127,44
2,35,123,96
2,35,120,202
2,35,120,194
2,35,120,172
2,35,120,184
2,35,120,186
2,35,120,170
2,35,117,176
2,35,120,190
2,35,117,190
2,35,117,182
2,35,120,168
2,35,123,174
2,35,120,176
2,35,117,178
2,35,120,172
2,35,127,44
2,35,123,96
2,35,120,202
2,35,120,194
2,35,120,172
2,35,120,184
2,35,120,186
2,35,120,170
2,35,117,176
2,35,120,190
2,35,117,190
2,35,117,182
2,35,120,168
2,35,123,174
2,35,120,176
2,35,117,178
2,35,120,172
2,35,127,44
2,35,123,96
2,35,120,202
2,35,120,194
2,35,120,172
2,35,120,184
2,35,120,186
2,35,120,170
2,35,117,176
2,35,120,190
2,35,117,190
2,35,117,182
2,35,120,168
2,35,123,174
2,35,120,176
2,35,117,178
2,35,120,172
2,35,127,44
2,35,123,96
2,35,120,202
2,35,120,194
2,35,120,172
2,35,120,184
2,35,120,186
2,35,120,170
2,35,117,176
2,35,120,190
2,35,117,190
2,35,117,182
2,35,120,168
2,35,123,174
2,35,120,176
2,35,117,178
2,35,120,172
2,35,127,44
2,35,123,96
2,35,120,202
2,35,120,194
2,35,120,172
2,35,120,184
2,35,120,186
2,35,120,170
2,35,117,176
2,35,120,190
2,35,117,190
2,35,117,182
2,35,120,168
2,35,123,174
2,35,120,176
2,35,117,178
2,35,120,172
2,35,127,44
2,35,123,96
2,35,120,202
2,35,120,194
2,35,120,172
2,35,120,184
2,35,120,186
2,35,120,170
2,35,117,176
2,35,120,190
2,35,117,190
2,35,117,182
2,35,120,168
2,35,123,174
2,35,120,176
2,35,117,178
2,35,120,172
2,35,123,236
2,35,120,176
2,35,117,178
2,35,104,364
2,35,123,84
2,35,120,202
2,35,120,194
2,35,120,172
2,35,120,184
2,35,120,186
2,35,120,170
2,35,117,176
2,35,120,190
2,35,117,190
2,35,117,182
2,35,120,168
2,35,123,174
2,35,120,176
2,35,117,178
2,35,120,172
2,35,127,44
2,35,123,96
2,35,120,202
2,35,120,194
2,35,120,172
2,35,120,184
2,35,120,186
2,35,120,170
2,35,117,176
2,35,120,190
2,35,117,190
2,35,117,182
2,35,120,168
2,35,123,174
2,35,120,176
2,35,117,178
2,35,120,172
2,35,127,44
2,35,123,96
2,35,120,202
2,35,120,194
2,35,120,172
2,35,120,184
2,35,120,186
2,35,120,170
2,35,117,176
2,35,120,190
2,35,117,190
2,35,117,182
2,35,120,168
2,35,123,174
2,35,120,176
2,35,117,178
2,35,120,172
2,35,127,44
2,35,123,96
2,35,120,202
2,35,120,194
2,35,120,172
2,35,120,184
2,35,120,186
2,35,120,170
2,35,117,176
2,35,120,190
2,35,117,190
2,35,117,182
2,35,120,168
2,35,123,174
2,35,120,176
2,35,117,178
2,35,120,172
2,35,127,44
2,35,123,96
2,35,120,202
2,35,120,194
2,35,120,172
2,35,120,184
2,35,120,186
2,35,120,170
2,35,117,176
2,35,120,190
2,35,117,190
2,35,117,182
2,35,120,168
2,35,94,174
2,35,60,722
2,35,75,118
2,35,83,116
2,35,104,54
3,38,113,1344
3,38,76,6032
3,38,113,50498
3,38,86,1424
3,38,82,2968
3,38,78,2942
3,38,66,2926
3,38,57,2950
3,38,55,2960
3,38,66,2928
3,38,71,2958
3,38,113,1416
3,38,99,18216
3,38,92,6064
3,38,86,1422
3,38,82,2968
3,38,78,2942
3,38,66,2926
3,38,57,2950
3,38,55,2960
3,38,66,2954
3,38,71,2936
3,38,78,836
3,38,90,216
3,38,113,216
3,38,92,24360
3,38,113,13710
3,38,86,1424
3,38,82,2968
3,38,78,2942
3,38,66,2926
3,38,57,2950
3,38,55,2960
3,38,66,2928
3,38,71,2958
3,38,113,1416
3,38,93,5160
3,38,96,40
3,38,71,480
3,38,101,46
4,57,49,1536
4,55,49,0
4,57,73,5248
4,55,125,24402
4,49,60,0
4,55,120,26168
4,57,34,23676
4,55,34,0
4,52,92,12078
4,55,86,0
4,57,72,5098
4,49,71,6084
4,57,66,0
4,57,68,24450
4,55,68,0
4,52,92,12078
4,55,86,0
4,49,71,11242
4,57,66,0
4,57,34,38274
4,55,34,0
4,57,49,192
4,55,49,0
4,55,97,5248
5,37,71,1536
5,37,66,204
5,37,60,210
5,37,69,128
5,37,79,198
5,37,54,198
5,37,79,126
5,37,75,210
5,37,44,212
5,37,73,130
5,37,68,194
5,37,45,206
5,37,71,154
5,37,66,204
5,37,60,210
5,37,69,128
5,37,79,198
5,37,54,198
5,37,79,126
5,37,75,210
5,37,44,212
5,37,73,130
5,37,68,194
5,37,45,206
5,37,71,154
5,37,66,204
5,37,60,210
5,37,69,128
5,37,79,198
5,37,54,198
5,37,79,126
5,37,75,210
5,37,44,212
5,37,73,130
5,37,68,194
5,37,45,206
5,37,71,154
5,37,66,204
5,37,60,210
5,37,69,128
5,37,79,198
5,37,54,198
5,37,79,126
5,37,75,210
5,37,44,212
5,37,73,130
5,37,68,194
5,37,45,206
5,37,71,154
5,37,66,204
5,37,60,210
5,37,69,128
5,37,79,198
5,37,54,198
5,37,79,126
5,37,75,210
5,37,44,212
5,37,73,130
5,37,68,194
5,37,45,206
5,37,71,154
5,37,66,204
5,37,60,210
5,37,69,128
5,37,79,198
5,37,54,198
5,37,79,126
5,37,75,210
5,37,44,212
5,37,73,130
5,37,68,194
5,37,45,206
5,37,71,154
5,37,66,204
5,37,60,210
5,37,69,128
5,37,79,198
5,37,54,198
5,37,79,126
5,37,75,210
5,37,44,212
5,37,73,130
5,37,68,194
5,37,45,206
5,37,71,154
5,37,66,204
5,37,60,210
5,37,69,128
5,37,79,198
5,37,54,198
5,37,79,126
5,37,75,210
5,37,44,212
5,37,73,130
5,37,68,194
5,37,45,206
5,37,71,154
5,37,66,204
5,37,60,210
5,37,69,128
5,37,79,198
5,37,54,198
5,37,79,126
5,37,75,210
5,37,44,212
5,37,73,130
5,37,68,194
5,37,45,206
5,37,71,154
5,37,66,204
5,37,60,210
5,37,69,128
5,37,79,198
5,37,54,198
5,37,79,126
5,37,75,210
5,37,44,212
5,37,73,130
5,37,68,194
5,37,45,206
5,37,71,154
5,37,66,204
5,37,60,210
5,37,69,128
5,37,79,198
5,37,54,198
5,37,79,126
5,37,75,210
5,37,44,212
5,37,73,130
5,37,68,194
5,37,45,206
5,37,71,154
5,37,66,204
5,37,60,210
5,37,69,128
5,37,79,198
5,37,54,198
5,37,79,126
5,37,75,210
5,37,44,212
5,37,73,130
5,37,68,194
5,37,45,206
5,37,71,154
5,37,66,204
5,37,60,210
5,37,69,128
5,37,79,198
5,37,54,198
5,37,79,126
5,37,75,210
5,37,44,212
5,37,73,130
5,37,68,194
5,37,45,206
5,37,71,154
5,37,66,204
5,37,60,210
5,37,69,128
5,37,79,198
5,37,54,198
5,37,79,126
5,37,75,210
5,37,44,212
5,37,73,130
5,37,68,194
5,37,45,206
5,37,71,154
5,37,66,204
5,37,60,210
5,37,69,128
5,37,79,198
5,37,54,198
5,37,79,126
5,37,75,210
5,37,44,212
5,37,73,130
5,37,68,194
5,37,45,206
5,37,71,154
5,37,66,204
5,37,60,210
5,37,69,128
5,37,79,198
5,37,54,198
5,37,79,126
5,37,75,210
5,37,44,212
5,37,73,130
5,37,68,194
5,37,45,206
5,37,71,154
5,37,66,204
5,37,60,210
5,37,69,128
5,37,79,198
5,37,54,198
5,37,79,126
5,37,75,210
5,37,44,212
5,37,73,130
5,37,68,194
5,37,45,206
5,37,71,154
5,37,66,204
5,37,60,210
5,37,69,128
5,37,79,198
5,37,54,198
5,37,79,126
5,37,75,210
5,37,44,212
5,37,73,130
5,37,68,194
5,37,45,206
5,37,79,154
5,37,75,210
5,37,44,212
5,37,71,898
5,37,66,204
5,37,60,210
5,37,69,128
5,37,79,198
5,37,54,198
5,37,79,126
5,37,75,210
5,37,44,212
5,37,73,130
5,37,68,194
5,37,45,206
5,37,71,154
5,37,66,204
5,37,60,210
5,37,69,128
5,37,79,198
5,37,54,198
5,37,79,126
5,37,75,210
5,37,44,212
5,37,73,130
5,37,68,194
5,37,45,206
5,37,71,154
5,37,66,204
5,37,60,210
5,37,69,128
5,37,79,198
5,37,54,198
5,37,79,126
5,37,75,210
5,37,44,212
5,37,73,130
5,37,68,194
5,37,45,206
5,37,71,154
5,37,66,204
5,37,60,210
5,37,69,128
5,37,79,198
5,37,54,198
5,37,79,126
5,37,75,210
5,37,44,212
5,37,73,130
5,37,68,194
5,37,45,206
5,37,71,154
5,37,66,204
5,37,60,210
5,37,69,128
5,37,79,198
5,37,54,198
5,37,79,126
5,37,75,210
5,37,44,212
5,37,73,130
5,37,68,194
5,37,45,206
5,37,71,154
5,37,66,204
5,37,60,210
5,37,69,128
5,37,79,198
5,37,54,198
5,37,79,126
5,37,75,210
5,37,44,212
5,37,73,130
5,37,68,194
5,37,45,206
5,37,71,154
5,37,66,204
5,37,60,210
5,37,69,128
5,37,79,198
5,37,54,198
5,37,79,126
5,37,75,210
5,37,44,212
5,37,73,130
5,37,68,194
5,37,45,206
5,37,71,154
5,37,66,204
5,37,60,210
5,37,69,128
5,37,79,198
5,37,54,198
5,37,79,126
5,37,75,210
5,37,44,212
5,37,73,130
5,37,68,194
5,37,45,206
5,37,71,154
5,37,66,204
5,37,60,210
5,37,69,128
5,37,79,198
5,37,54,198
5,37,79,126
5,37,75,210
5,37,44,212
5,37,73,130
5,37,68,194
5,37,45,206
5,37,71,154
5,37,66,204
5,37,60,210
5,37,69,128
5,37,79,198
5,37,54,198
5,37,79,126
5,37,75,210
5,37,44,212
5,37,73,130
5,37,68,194
5,37,45,206
5,37,71,154
5,37,66,204
5,37,60,210
5,37,69,128
5,37,79,198
5,37,54,198
5,37,79,126
5,37,75,210
5,37,44,212
5,37,73,130
5,37,68,194
5,37,45,206
5,37,71,154
5,37,66,204
5,37,60,210
5,37,69,128
5,37,79,198
5,37,54,198
5,37,79,126
5,37,75,210
5,37,44,212
5,37,73,130
5,37,68,194
5,37,45,206
5,37,71,154
5,37,66,204
5,37,60,210
5,37,69,128
5,37,79,198
5,37,54,198
5,37,79,126
5,37,75,210
5,37,44,212
5,37,73,130
5,37,68,194
5,37,45,206
5,37,71,154
5,37,66,204
5,37,60,210
5,37,69,128
5,37,79,198
5,37,54,198
