track,note,velocity,time
1,39,69,2656
1,27,64,0
1,39,85,56
1,27,71,0
1,79,54,48
1,71,57,0
1,67,43,4
1,63,53,0
1,56,45,0
1,39,70,376
1,78,53,0
1,70,28,0
1,73,64,4
1,58,47,4
1,39,73,384
1,79,67,0
1,63,38,0
1,71,67,4
1,67,39,4
1,56,48,0
1,39,79,368
1,63,31,24
1,78,50,4
1,73,70,0
1,58,58,4
1,70,35,4
1,39,64,368
1,79,53,0
1,71,65,4
1,67,31,4
1,56,41,4
1,63,19,0
1,39,48,756
1,27,45,4
1,39,49,84
1,27,39,0
1,71,68,56
1,79,68,0
1,63,52,4
1,67,48,0
1,56,52,0
1,27,60,752
1,39,60,0
1,39,54,60
1,27,44,4
1,39,63,4
1,54,72,12
1,51,68,0
1,46,63,4
1,58,89,572
1,63,92,0
1,66,99,388
1,65,89,176
1,51,77,4
1,59,72,4
1,56,64,8
1,70,92,4
1,70,98,40
1,71,94,200
1,73,65,376
1,51,57,208
1,46,41,4
1,39,78,8
1,54,95,20
1,58,91,560
1,63,95,204
1,66,96,12
1,65,89,196
1,51,58,36
1,59,62,0
1,56,49,0
1,70,94,4
1,70,88,72
1,71,89,200
1,73,75,368
1,39,72,4
1,78,66,4
1,75,65,0
1,70,45,8
1,75,78,72
1,78,79,0
1,80,87,4
1,77,83,4
1,79,91,112
1,75,83,4
1,78,91,180
1,75,75,4
1,80,84,768
1,77,75,4
1,79,83,8
1,75,84,4
1,55,73,188
1,51,69,0
1,55,77,228
1,51,76,0
1,81,101,6716
1,69,82,0
1,74,97,4
1,81,100,60
1,74,96,4
1,69,82,0
1,81,97,60
1,74,95,4
1,69,75,4
1,74,97,128
1,81,97,0
1,69,81,4
1,81,97,76
1,74,97,0
1,69,76,0
1,74,100,224
1,81,100,0
1,69,84,0
1,74,97,80
1,81,97,0
1,69,78,0
1,81,92,76
1,74,93,0
1,69,73,0
1,81,97,136
1,74,99,0
1,69,78,0
1,74,86,88
1,81,92,0
1,69,73,4
1,81,92,168
1,93,97,4
1,93,94,72
1,81,86,0
1,93,95,200
1,81,88,0
1,93,94,100
1,81,82,4
1,45,49,20
1,40,68,0
1,33,52,0
1,76,91,64
1,74,91,24
1,76,89,20
1,74,90,20
1,76,85,12
1,81,105,12
1,33,74,0
1,76,86,0
1,74,83,12
1,76,78,16
1,74,73,12
1,33,71,0
1,81,92,68
1,83,106,8
1,81,91,12
1,83,95,16
1,33,77,4
1,83,101,124
1,81,87,8
1,83,107,12
1,53,61,12
1,38,83,0
1,46,54,0
1,76,95,60
1,74,100,8
1,76,100,8
1,74,101,8
1,76,100,12
1,82,96,8
1,38,76,0
1,76,92,4
1,74,91,16
1,76,92,8
1,74,87,0
1,38,82,24
1,84,73,44
1,86,102,8
1,84,95,12
1,86,104,8
1,38,76,0
1,86,99,128
1,84,97,8
1,86,89,12
1,33,67,0
1,40,77,4
1,45,64,0
1,76,104,48
1,74,103,12
1,76,107,12
1,74,103,12
1,76,104,4
1,81,107,12
1,33,69,0
1,76,99,12
1,74,99,8
1,76,98,16
1,74,95,12
1,33,80,0
1,81,105,64
1,83,107,12
1,81,97,12
1,83,103,16
1,33,75,24
1,83,100,112
1,81,101,0
1,83,97,0
1,53,70,4
1,46,62,0
1,38,64,0
1,76,103,60
1,74,107,12
1,76,105,12
1,74,101,12
1,76,97,12
1,38,85,8
1,82,101,4
1,76,99,8
1,74,101,8
1,76,99,12
1,74,101,16
1,38,87,0
1,84,103,60
1,86,106,12
1,84,102,8
1,86,108,8
1,38,79,4
1,86,113,128
1,84,101,8
1,86,107,20
1,33,74,12
1,45,73,0
1,40,81,4
1,33,94,20
1,33,87,60
1,69,96,64
1,71,106,20
1,69,89,8
1,71,95,8
1,33,81,48
1,71,100,128
1,69,97,4
1,71,88,0
1,53,83,4
1,46,79,0
1,38,90,4
1,38,95,28
1,38,88,32
1,38,90,40
1,53,83,12
1,47,84,0
1,40,81,0
1,40,99,12
1,40,89,28
1,69,101,64
1,71,108,4
1,69,97,0
1,71,94,0
1,40,83,36
1,76,105,124
1,74,101,4
1,76,102,64
1,53,75,8
1,47,71,0
1,40,82,4
1,76,106,60
1,74,109,0
1,76,112,0
1,74,107,0
1,76,103,0
1,83,113,16
1,40,88,0
1,76,107,4
1,74,105,64
1,76,103,0
1,74,101,68
1,40,91,24
1,81,111,64
1,83,108,0
1,81,100,0
1,83,98,0
1,40,90,20
1,88,108,128
1,86,102,4
1,88,105,0
1,45,89,8
1,40,92,4
1,33,87,0
1,33,99,40
1,33,90,40
1,69,95,68
1,71,108,64
1,69,92,0
1,71,95,4
1,33,91,36
1,71,105,116
1,69,101,4
1,71,101,0
1,53,81,4
1,46,79,0
1,38,90,4
1,38,99,16
1,38,98,28
1,38,104,20
1,53,80,16
1,47,75,0
1,40,87,0
1,40,94,24
1,40,83,36
1,69,103,72
1,71,107,0
1,69,89,4
1,71,103,0
1,40,97,28
1,76,108,116
1,74,105,8
1,76,103,0
1,53,70,12
1,47,68,0
1,40,83,4
1,76,106,56
1,74,107,0
1,76,109,0
1,74,109,68
1,76,110,56
1,40,95,24
1,83,114,0
1,76,109,0
1,74,109,0
1,76,105,4
1,74,103,8
1,40,95,16
1,81,111,64
1,83,110,0
1,81,101,4
1,83,101,64
1,40,92,12
1,88,114,136
1,86,100,4
1,88,100,4
1,40,85,0
1,33,83,0
1,45,85,4
1,83,96,0
1,71,88,0
1,76,88,0
2,27,40,2632
2,39,40,0
2,39,40,8
2,27,40,0
2,56,28,32
2,63,52,28
2,39,47,132
2,58,47,8
2,63,60,28
2,39,56,280
2,63,47,24
2,56,45,4
2,39,67,228
2,58,40,24
2,63,32,0
2,39,54,232
2,56,45,8
2,63,45,60
2,27,42,632
2,27,37,128
2,56,54,60
2,63,46,44
2,27,33,360
2,27,31,156
2,39,38,196
2,51,32,4
2,46,44,0
2,56,50,8
2,51,46,0
2,59,44,0
2,51,62,192
2,39,61,0
2,46,52,0
2,59,70,4
2,56,68,0
2,51,63,4
2,39,32,188
2,51,36,0
2,46,44,4
2,39,84,20
2,46,77,0
2,51,93,0
2,58,91,204
2,54,86,0
2,51,79,0
2,58,98,108
2,54,84,0
2,51,82,4
2,56,101,8
2,49,96,0
2,53,109,0
2,37,94,88
2,49,78,0
2,44,66,4
2,37,100,60
2,49,85,0
2,44,88,0
2,49,115,48
2,37,127,0
2,44,108,0
2,37,109,124
2,49,112,0
2,44,105,0
2,48,117,8
2,36,114,0
2,43,109,0
2,39,86,8
2,51,90,0
2,46,77,0
2,58,71,204
2,54,69,8
2,51,53,8
2,58,87,124
2,54,75,0
2,51,70,4
2,56,102,20
2,53,114,0
2,49,97,0
2,49,81,84
2,37,97,0
2,44,73,0
2,49,96,40
2,37,97,0
2,44,90,0
2,49,94,44
2,37,98,0
2,44,85,0
2,37,117,124
2,49,109,0
2,44,93,0
2,48,115,8
2,43,113,0
2,36,113,0
2,43,69,12
2,36,86,0
2,36,69,184
2,36,57,128
2,36,68,260
2,36,58,52
2,36,75,84
2,36,77,280
2,43,70,4
2,36,67,176
2,36,54,124
2,36,50,296
2,36,48,64
2,36,37,104
2,58,59,716
2,57,79,0
2,51,51,0
2,58,78,232
2,51,68,0
2,57,78,0
2,58,49,232
2,57,54,0
2,51,42,0
2,58,83,196
2,51,84,0
2,57,87,0
2,58,55,244
2,51,65,0
2,57,69,4
2,58,87,348
2,51,86,0
2,57,81,0
2,58,82,260
2,57,92,0
2,51,82,0
2,58,44,240
2,51,50,0
2,57,48,0
2,58,77,188
2,51,81,0
2,57,71,4
2,58,63,232
2,57,60,0
2,51,51,0
2,70,107,392
2,69,113,0
2,63,94,0
2,70,98,224
2,69,100,0
2,63,92,0
2,70,68,240
2,69,62,4
2,63,50,0
2,70,104,184
2,63,100,4
2,69,102,0
2,70,79,228
2,63,73,0
2,69,77,0
2,70,101,376
2,69,95,0
2,63,86,0
2,70,84,240
2,63,71,0
2,69,71,0
2,70,65,252
2,69,64,0
2,63,33,0
2,70,109,196
2,63,105,0
2,69,101,0
2,70,50,224
2,69,56,0
2,63,67,0
2,82,107,356
2,81,121,0
2,75,97,0
2,82,108,248
2,81,116,0
2,75,91,0
2,82,115,296
2,81,121,0
2,75,94,0
2,82,115,252
2,81,121,4
2,75,96,0
2,45,44,24
2,33,48,0
2,40,52,0
2,33,52,112
2,33,81,128
2,33,73,124
2,38,56,0
2,46,53,28
2,53,67,20
2,38,73,148
2,38,83,136
2,38,92,128
2,33,97,4
2,45,78,0
2,40,89,0
2,33,96,176
2,33,99,136
2,33,98,128
2,38,75,4
2,46,72,20
2,53,84,24
2,38,87,200
2,38,97,128
2,38,90,116
2,45,111,8
2,40,117,0
2,33,127,0
2,33,127,128
2,33,127,164
2,33,123,132
2,38,99,4
2,46,85,12
2,53,115,36
2,38,120,164
2,38,117,188
2,38,120,200
2,40,106,0
2,47,78,32
2,53,125,16
2,40,107,164
2,40,100,216
2,40,114,12
2,40,101,4
2,47,80,16
2,53,124,32
2,40,121,164
2,40,127,160
2,40,118,148
2,45,127,4
2,40,127,0
2,33,127,0
2,33,127,176
2,33,127,172
2,33,107,132
2,38,106,4
2,46,70,32
2,53,117,24
2,38,127,180
2,38,116,220
2,38,120,236
2,40,95,4
2,47,80,20
2,53,117,28
2,40,103,188
2,40,108,220
2,40,117,216
2,40,105,4
2,47,96,8
2,53,126,28
2,40,115,160
2,40,127,156
2,40,127,172
2,40,76,8
2,33,121,4
2,45,112,0
3,63,72,2612
3,58,54,0
3,63,72,4
3,67,81,8
3,63,55,4
3,75,80,4
3,77,80,0
3,75,68,0
3,70,62,8
3,72,72,0
3,70,57,556
3,68,59,8
3,70,68,24
3,63,55,4
3,68,79,0
3,65,54,568
3,63,49,8
3,65,54,8
3,63,87,192
3,75,67,192
3,87,71,0
3,58,68,188
3,63,90,80
3,67,101,0
3,70,67,188
3,63,83,0
3,72,72,0
3,75,101,0
3,72,77,196
3,80,86,188
3,77,91,184
3,75,65,8
3,70,71,0
3,74,67,192
3,77,67,0
3,72,88,0
3,75,68,188
3,87,84,4
3,74,75,188
3,75,73,8
3,75,72,0
3,82,56,196
3,82,58,0
3,91,60,0
3,79,96,0
3,72,67,188
3,82,74,4
3,77,60,180
3,75,44,88
3,75,65,0
3,77,59,188
3,79,68,16
3,60,86,0
3,63,57,196
3,75,65,188
3,62,60,176
3,63,73,76
3,63,65,0
3,70,60,192
3,79,75,0
3,70,55,0
3,67,75,0
3,60,57,176
3,70,52,16
3,65,46,180
3,63,58,76
3,63,64,0
3,65,30,188
3,67,47,8
3,67,30,8
3,71,61,28
3,79,82,4
3,70,68,168
3,70,76,64
3,75,88,24
3,75,80,208
3,73,81,16
3,75,79,196
3,70,49,368
3,70,57,16
3,74,61,36
3,78,75,36
3,70,67,152
3,70,68,60
3,77,98,48
3,75,79,384
3,78,85,180
3,80,83,0
3,79,72,8
3,67,48,0
3,71,64,0
3,58,53,220
3,58,55,64
3,63,75,36
3,63,81,208
3,61,76,184
3,63,71,4
3,58,51,384
3,70,38,20
3,78,55,0
3,74,53,0
3,58,69,192
3,58,61,80
3,65,86,52
3,63,83,144
3,66,77,4
3,68,77,196
3,67,39,24
3,71,68,40
3,79,79,52
3,67,44,136
3,71,63,24
3,79,73,48
3,54,65,8
3,58,61,0
3,63,73,40
3,66,80,264
3,65,86,172
3,70,94,8
3,63,81,0
3,70,69,100
3,71,76,12
3,73,40,12
3,54,75,192
3,58,66,92
3,63,73,192
3,66,83,28
3,65,86,16
3,70,79,8
3,63,79,0
3,70,76,88
3,71,79,8
3,73,45,4
3,66,55,192
3,75,64,0
3,78,79,0
3,70,54,0
3,65,76,180
3,65,77,48
3,70,81,80
3,63,79,0
3,68,66,4
3,73,64,4
3,70,46,24
3,66,105,20
3,70,94,0
3,75,95,4
3,78,117,0
3,80,120,8
3,68,108,0
3,77,119,0
3,73,98,0
3,91,126,8
3,79,117,0
3,87,127,0
3,84,127,0
3,67,98,88
3,77,124,200
3,78,123,12
3,66,116,0
3,75,111,0
3,70,91,0
3,80,122,16
3,68,119,4
3,77,110,0
3,73,90,0
3,91,124,8
3,79,125,0
3,87,102,0
3,84,124,0
3,67,82,96
3,77,118,188
3,48,32,8
3,51,52,0
3,55,87,4
3,55,83,208
3,51,67,0
3,48,29,0
3,69,108,564
3,62,86,0
3,69,96,192
3,62,96,0
3,69,72,204
3,62,52,0
3,69,121,344
3,62,108,4
3,69,103,216
3,62,74,0
3,69,120,300
3,62,100,0
3,69,115,236
3,62,100,0
3,69,102,220
3,62,82,0
3,69,115,192
3,62,98,0
3,69,88,200
3,62,69,0
3,81,127,392
3,74,116,0
3,81,127,208
3,74,115,0
3,81,111,224
3,74,87,0
3,81,127,184
3,74,116,0
3,81,112,204
3,74,90,0
3,81,127,356
3,74,113,0
3,81,125,208
3,74,98,0
3,81,101,216
3,74,77,0
3,81,127,192
3,74,118,4
3,81,104,208
3,74,65,0
3,93,127,384
3,86,126,4
3,93,127,232
3,86,126,0
3,93,127,192
3,86,127,0
3,93,127,244
3,86,127,0
3,76,38,88
3,74,37,0
3,76,45,0
3,74,48,0
3,76,56,0
3,81,77,0
3,76,62,0
3,74,54,0
3,76,56,0
3,74,50,0
3,81,71,64
3,83,70,0
3,81,78,0
3,83,87,0
3,83,59,64
3,81,62,0
3,83,66,0
3,76,52,68
3,74,52,60
3,76,52,0
3,74,55,0
3,76,61,0
3,82,69,0
3,76,43,0
3,74,52,0
3,76,54,0
3,74,51,0
3,84,72,64
3,86,77,0
3,84,86,0
3,86,94,0
3,86,69,64
3,84,83,0
3,86,74,0
3,76,80,68
3,74,68,60
3,76,66,0
3,74,74,0
3,76,83,0
3,81,99,0
3,76,85,0
3,74,73,0
3,76,80,0
3,74,71,0
3,81,80,64
3,83,87,0
3,81,95,0
3,83,73,0
3,83,84,64
3,81,96,0
3,83,90,0
3,76,71,68
3,74,66,60
3,76,69,0
3,74,72,0
3,76,76,0
3,82,91,0
3,76,80,0
3,74,71,0
3,76,78,0
3,74,79,0
3,84,95,64
3,86,100,0
3,84,105,0
3,86,107,0
3,86,92,64
3,84,91,0
3,86,103,0
3,52,123,0
3,59,127,0
3,57,93,0
3,64,116,0
3,69,102,64
3,71,101,0
3,69,113,0
3,71,119,0
3,71,96,64
3,69,102,0
3,71,100,0
3,58,114,0
3,65,127,0
3,70,127,0
3,71,119,0
3,63,118,0
3,64,84,0
3,59,89,0
3,69,91,64
3,71,88,0
3,69,90,0
3,71,92,0
3,76,91,64
3,74,86,0
3,76,96,0
3,76,96,64
3,74,84,0
3,76,91,0
3,74,98,0
3,76,102,0
3,83,127,0
3,76,100,0
3,74,102,0
3,76,109,0
3,74,102,0
3,81,116,64
3,83,125,0
3,81,118,0
3,83,102,0
3,88,120,64
3,86,113,0
3,88,123,0
3,52,127,4
3,59,127,380
3,57,85,0
3,64,121,0
3,69,103,64
3,71,106,0
3,69,102,0
3,71,121,0
3,71,94,64
3,69,98,0
3,71,99,0
3,58,127,384
3,65,127,0
3,70,127,0
3,71,127,0
3,63,127,0
3,64,86,0
3,59,101,0
3,69,95,64
3,71,87,0
3,69,95,0
3,71,101,0
3,76,99,64
3,74,97,0
3,76,99,0
3,76,100,64
3,74,91,0
3,76,108,0
3,74,106,0
3,76,111,0
3,83,127,0
3,76,108,0
3,74,98,0
3,76,102,0
3,74,100,0
3,81,117,64
3,83,127,0
3,81,123,0
3,83,127,0
3,88,122,64
3,86,121,0
3,88,123,0
3,71,116,92
3,76,112,16
3,83,127,0
4,60,90,14880
4,62,92,572
4,63,93,0
4,63,94,24
4,70,91,8
4,67,89,0
4,65,83,4
4,63,86,8
4,63,72,32
4,58,97,6712
4,58,85,56
4,63,103,28
4,63,105,56
4,61,88,68
4,63,97,0
4,58,88,4
4,58,93,328
4,58,63,40
4,65,97,8
4,63,94,4
4,66,95,0
4,68,95,8
4,62,91,21680
4,58,85,0
