track,note,velocity,time
0,67,51,0
0,39,61,0
0,51,56,20
0,67,54,24
0,70,87,24
0,79,93,16
0,75,89,0
0,68,56,0
0,39,70,0
0,63,49,0
0,51,55,2
0,63,79,18
0,72,78,0
0,68,87,24
0,75,99,2
0,51,63,4
0,39,41,16
0,65,78,4
0,72,87,0
0,39,85,0
0,74,83,0
0,70,71,4
0,77,93,10
0,65,69,0
0,70,45,0
0,51,40,0
0,74,90,34
0,70,89,0
0,62,83,0
0,51,53,0
0,39,61,14
0,39,89,0
0,68,99,0
0,60,89,0
0,63,69,2
0,72,85,6
0,68,98,10
0,60,82,0
0,51,43,4
0,60,89,8
0,39,77,0
0,51,59,24
0,63,60,0
0,58,37,0
0,67,53,0
0,39,114,0
0,58,72,0
0,39,90,0
0,63,89,0
0,55,78,0
0,51,58,4
0,67,95,14
0,58,48,0
0,65,73,0
0,58,66,0
0,67,66,0
0,67,86,2
0,51,66,0
0,65,92,0
0,55,51,0
0,67,87,2
0,58,75,0
0,39,68,2
0,63,86,0
0,60,41,8
0,56,45,0
0,63,53,0
0,67,100,0
0,67,76,0
0,44,109,0
0,44,95,0
0,60,72,0
0,56,72,0
0,67,97,0
0,60,58,20
0,63,81,8
0,60,22,0
0,56,65,8
0,60,42,2
0,60,80,0
0,63,68,0
0,44,65,0
0,63,86,0
0,60,59,0
0,67,66,0
0,44,63,0
0,53,52,0
0,58,39,0
0,62,59,0
0,58,78,0
0,65,83,0
0,50,82,0
0,38,106,0
0,65,100,4
0,53,58,0
0,65,105,14
0,58,75,0
0,38,79,2
0,38,106,2
0,70,105,0
0,53,68,0
0,62,75,0
0,41,106,0
0,65,103,0
0,50,66,0
0,58,71,0
0,42,107,0
0,38,72,0
0,58,30,0
0,62,31,0
0,67,60,0
0,67,108,0
0,43,97,0
0,62,86,0
0,55,78,0
0,43,110,0
0,55,51,0
0,67,86,8
0,62,85,0
0,65,93,0
0,62,42,0
0,55,71,0
0,67,61,4
0,43,76,0
0,62,86,0
0,55,61,0
0,63,53,0
0,60,38,0
0,48,85,0
0,63,88,0
0,55,59,0
0,62,77,0
0,36,111,0
0,60,79,10
0,60,95,0
0,36,83,0
0,63,106,0
0,48,64,0
0,43,100,4
0,63,100,0
0,60,80,0
0,55,64,0
0,60,87,0
0,36,69,0
0,63,95,0
0,48,103,0
0,60,44,0
0,63,111,0
0,67,79,0
0,60,33,0
0,63,66,0
0,58,40,0
0,67,77,0
0,60,94,0
0,34,91,0
0,34,115,0
0,46,68,0
0,55,58,2
0,62,110,12
0,63,94,0
0,60,86,0
0,72,58,0
0,63,96,0
0,55,75,0
0,67,53,22
0,46,87,0
0,60,70,0
0,63,70,8
0,33,107,0
0,63,69,0
0,60,53,0
0,57,6,0
0,45,91,0
0,60,88,0
0,67,80,0
0,63,116,6
0,55,58,0
0,67,106,2
0,60,86,0
0,45,92,2
0,60,31,2
0,63,108,0
0,55,79,0
0,63,95,0
0,33,105,2
0,63,61,0
0,60,66,0
0,63,80,10
0,65,107,4
0,32,111,0
0,63,79,0
0,56,68,0
0,63,94,0
0,56,78,0
0,44,96,0
0,60,76,0
0,63,86,0
0,56,58,12
0,60,85,8
0,56,30,0
0,60,98,4
0,44,71,0
0,63,73,2
0,56,63,0
0,60,55,14
0,63,76,10
0,34,108,8
0,58,44,0
0,55,33,0
0,63,53,0
0,63,92,0
0,46,84,0
0,55,70,0
0,58,63,0
0,60,85,0
0,55,41,0
0,63,103,8
0,58,67,0
0,58,62,8
0,67,71,0
0,63,103,0
0,55,69,0
0,58,44,0
0,34,105,0
0,58,83,0
0,63,48,0
0,63,97,2
0,63,90,0
0,34,111,0
0,67,96,0
0,46,98,0
0,53,75,0
0,62,77,0
0,58,25,0
0,62,58,0
0,65,86,0
0,58,57,0
0,63,99,6
0,58,96,0
0,65,91,0
0,41,94,2
0,70,65,0
0,65,104,0
0,53,68,0
0,62,31,0
0,58,90,0
0,46,112,0
0,62,88,2
0,46,63,0
0,67,69,0
0,59,27,0
0,62,23,0
0,55,89,0
0,47,94,0
0,35,111,0
0,67,112,0
0,67,87,0
0,59,79,0
0,35,74,0
0,71,111,0
0,47,75,0
0,35,110,20
0,59,56,0
0,67,84,0
0,62,86,0
0,74,89,0
0,67,45,0
0,43,107,4
0,62,61,0
0,67,87,0
0,67,81,10
0,47,90,0
0,36,114,0
0,65,102,0
0,63,75,0
0,55,49,0
0,48,94,0
0,72,84,0
0,63,84,0
0,63,95,0
0,60,74,22
0,60,79,4
0,67,83,0
0,60,89,0
0,63,76,24
0,60,49,0
0,55,77,0
0,67,60,20
0,48,83,0
0,60,86,0
0,63,54,6
0,39,113,0
0,55,43,0
0,58,80,0
0,55,73,0
0,63,90,0
0,39,99,0
0,58,59,0
0,63,72,0
0,63,99,2
0,51,83,0
0,63,115,6
0,58,62,0
0,63,66,8
0,58,37,2
0,67,104,0
0,70,100,0
0,58,92,0
0,63,90,0
0,39,107,2
0,63,58,0
0,70,109,0
0,51,77,0
0,51,69,12
0,41,111,0
0,60,53,0
0,72,110,0
0,41,94,0
0,60,88,0
0,68,95,0
0,63,94,0
0,63,67,0
0,60,67,14
0,72,86,10
0,63,87,0
0,67,107,6
0,53,85,0
0,60,36,0
0,65,78,0
0,60,72,0
0,63,42,0
0,63,86,0
0,41,73,0
0,63,79,0
0,29,108,0
0,68,75,4
0,63,101,0
0,60,85,0
0,56,76,0
0,44,95,0
0,56,47,0
0,60,61,0
0,63,70,0
0,32,107,0
0,60,86,10
0,56,76,0
0,63,110,2
0,60,81,0
0,63,80,6
0,56,60,0
0,60,38,2
0,63,113,0
0,60,75,0
0,63,64,4
0,44,100,0
0,56,66,0
0,60,66,10
0,34,113,0
0,53,53,0
0,58,70,0
0,65,107,0
0,62,94,0
0,53,83,0
0,46,100,0
0,58,79,0
0,53,69,4
0,62,48,12
0,58,76,0
0,46,92,0
0,53,35,2
0,58,95,0
0,65,85,0
0,58,45,0
0,62,64,0
0,62,56,0
0,53,64,0
0,34,114,0
0,53,50,0
0,58,53,0
0,63,102,0
0,58,88,0
0,46,99,0
0,53,86,0
0,63,77,0
0,53,40,0
0,53,19,16
0,62,53,0
0,58,28,0
0,53,85,0
0,63,101,0
0,58,79,0
0,62,94,0
0,53,49,0
0,53,70,0
0,58,49,0
0,58,90,0
0,34,112,0
0,62,25,0
0,62,92,0
0,39,71,0
0,46,75,0
0,55,80,0
0,67,66,0
0,58,26,0
0,63,44,0
0,67,63,0
0,58,54,0
0,63,51,0
0,39,60,0
0,39,112,0
0,51,58,0
0,79,103,0
0,58,45,0
0,67,66,0
0,58,51,0
0,77,89,0
0,63,56,0
0,79,103,0
0,63,68,0
0,70,69,0
0,55,41,0
0,77,91,0
0,58,74,0
0,39,94,0
0,58,48,0
0,79,103,0
0,67,73,0
0,63,58,6
0,70,75,0
0,51,46,0
0,48,68,0
0,44,76,0
0,44,107,0
0,79,102,0
0,67,66,0
0,60,63,0
0,72,83,0
0,56,80,0
0,63,84,0
0,79,102,0
0,63,72,0
0,67,72,4
0,60,65,0
0,75,80,0
0,67,73,0
0,44,56,0
0,56,34,10
0,79,78,0
0,72,53,0
0,60,36,4
0,75,80,0
0,56,59,0
0,63,35,0
0,44,76,0
0,46,59,0
0,53,83,0
0,38,55,0
0,38,108,0
0,62,52,0
0,65,72,0
0,77,86,0
0,65,77,0
0,50,78,0
0,70,75,0
0,77,100,0
0,74,70,0
0,65,69,12
0,58,57,0
0,77,102,0
0,62,77,0
0,65,83,8
0,58,34,2
0,82,106,0
0,70,93,0
0,38,103,2
0,62,35,0
0,77,102,0
0,74,87,0
0,65,84,0
0,50,58,0
0,58,39,4
0,67,74,0
0,55,80,0
0,50,56,0
0,43,64,0
0,43,104,0
0,79,104,0
0,55,52,0
0,62,66,0
0,62,76,0
0,70,83,0
0,55,63,0
0,43,58,0
0,62,58,0
0,62,63,4
0,55,34,0
0,74,78,0
0,67,80,0
0,53,84,2
0,43,105,0
0,77,89,0
0,55,71,0
0,67,67,0
0,38,95,0
0,70,89,0
0,62,71,0
0,74,89,0
0,55,38,0
0,43,102,0
0,67,76,0
0,43,51,0
0,74,89,10
0,62,52,0
0,70,83,0
0,36,110,0
0,75,90,0
0,48,62,0
0,51,70,0
0,55,85,0
0,55,43,0
0,63,73,0
0,72,91,0
0,48,82,0
0,63,94,0
0,67,82,0
0,63,88,0
0,67,59,0
0,60,55,0
0,55,66,0
0,60,85,4
0,36,111,8
0,75,108,0
0,55,35,0
0,63,94,0
0,72,94,0
0,60,33,0
0,48,53,0
0,67,57,0
0,75,101,0
0,63,75,0
0,72,82,0
0,63,84,0
0,34,107,0
0,60,70,0
0,67,74,0
0,60,68,0
0,46,96,0
0,67,80,0
0,63,84,0
0,55,69,0
0,74,95,24
0,67,74,0
0,60,74,0
0,75,102,0
0,67,69,0
0,46,84,0
0,55,49,0
0,34,111,6
0,75,104,0
0,55,43,0
0,79,106,0
0,72,83,0
0,60,38,6
0,55,54,0
0,63,59,14
0,72,98,0
0,67,61,0
0,55,72,0
0,45,84,0
0,33,109,0
0,60,67,0
0,75,102,0
0,45,69,0
0,67,73,0
0,55,64,0
0,75,94,6
0,72,66,0
0,63,71,0
0,67,48,2
0,60,53,0
0,79,110,0
0,67,91,0
0,33,108,2
0,60,64,0
0,75,112,0
0,60,83,0
0,63,63,0
0,63,80,0
0,67,75,6
0,32,111,0
0,77,112,0
0,63,80,0
0,60,70,0
0,44,72,0
0,63,88,0
0,56,70,0
0,53,60,0
0,44,76,0
0,63,102,0
0,75,88,0
0,60,61,0
0,63,69,0
0,56,49,0
0,63,78,0
0,60,40,0
0,72,98,2
0,53,68,0
0,32,108,0
0,60,44,0
0,75,76,0
0,60,65,0
0,63,60,2
0,68,93,0
0,60,66,0
0,63,82,0
0,60,34,2
0,44,64,0
0,34,115,0
0,67,93,0
0,63,75,0
0,58,67,0
0,55,76,0
0,63,87,0
0,58,79,0
0,67,50,0
0,58,56,0
0,43,63,0
0,72,97,0
0,58,73,0
0,67,53,0
0,58,41,0
0,75,93,0
0,63,92,0
0,55,76,0
0,55,32,0
0,75,86,0
0,70,82,0
0,63,82,0
0,58,60,0
0,75,98,0
0,58,69,0
0,63,72,6
0,63,81,0
0,34,119,0
0,62,84,0
0,53,72,0
0,58,70,0
0,77,88,0
0,63,65,0
0,58,55,0
0,46,91,0
0,70,17,0
0,65,80,0
0,62,72,0
0,75,92,0
0,53,61,0
0,58,81,6
0,62,71,16
0,58,52,0
0,70,87,0
0,62,90,0
0,58,87,0
0,41,98,0
0,75,111,0
0,53,50,0
0,62,96,0
0,46,108,0
0,77,100,0
0,58,53,0
0,46,83,0
0,65,72,0
0,62,63,0
0,70,90,0
0,62,86,0
0,55,72,0
0,62,89,0
0,35,110,0
0,47,88,0
0,67,96,0
0,67,68,0
0,59,46,0
0,62,89,0
0,55,74,0
0,79,106,8
0,59,66,0
0,55,50,2
0,62,68,0
0,83,108,0
0,62,67,0
0,67,76,0
0,47,84,0
0,47,77,0
0,35,112,0
0,55,68,0
0,79,97,0
0,74,96,0
0,67,83,0
0,43,104,2
0,59,41,0
0,55,65,0
0,77,99,2
0,62,74,0
0,79,100,0
0,67,79,0
0,74,56,0
0,36,115,0
0,75,106,0
0,60,85,0
0,51,69,0
0,48,68,0
0,55,52,0
0,67,63,0
0,60,69,0
0,48,90,0
0,75,98,0
0,72,73,0
0,72,73,0
0,55,59,0
0,63,77,0
0,55,42,0
0,72,87,0
0,67,79,0
0,60,80,0
0,55,43,0
0,63,87,0
0,60,61,0
0,67,80,0
0,55,16,0
0,63,64,0
0,72,68,0
0,39,113,0
0,67,71,0
0,58,71,0
0,67,84,0
0,63,85,0
0,51,97,0
0,39,68,0
0,51,69,0
0,46,76,0
0,55,80,0
0,75,97,0
0,58,88,0
0,58,54,0
0,67,65,0
0,75,106,0
0,63,93,0
0,51,87,0
0,58,75,0
0,79,104,0
0,67,90,0
0,58,80,0
0,63,81,0
0,39,107,0
0,63,84,0
0,82,113,0
0,51,61,0
0,63,94,8
0,56,84,0
0,60,85,0
0,56,90,0
0,51,71,0
0,48,57,0
0,41,63,0
0,41,111,0
0,63,81,0
0,56,71,0
0,84,101,0
0,41,84,0
0,56,63,0
0,60,49,0
0,60,76,0
0,63,58,8
0,68,95,0
0,63,95,0
0,60,77,0
0,79,109,0
0,53,81,0
0,56,52,4
0,77,76,0
0,60,79,0
0,60,74,0
0,75,93,0
0,63,91,0
0,29,108,0
0,68,95,0
0,60,96,0
0,44,99,0
0,56,76,0
0,51,70,0
0,44,77,0
0,60,81,0
0,63,89,0
0,56,72,0
0,32,108,0
0,72,99,0
0,56,48,0
0,56,55,0
0,75,93,0
0,60,83,0
0,63,98,0
0,60,63,0
0,44,87,0
0,75,99,4
0,63,76,0
0,56,72,0
0,56,80,0
0,60,43,4
0,60,56,0
0,56,54,0
0,63,75,0
0,75,99,0
0,39,111,0
0,58,77,0
0,51,67,0
0,55,71,0
0,39,76,0
0,63,76,0
0,39,89,0
0,67,79,0
0,58,85,0
0,55,57,0
0,58,65,0
0,51,70,0
0,58,39,0
0,55,70,0
0,63,88,0
0,55,56,0
0,58,89,0
0,39,102,2
0,58,67,0
0,63,80,0
0,55,74,2
0,63,65,0
0,55,58,0
0,39,67,0
0,34,103,0
0,58,52,0
0,58,37,0
0,39,105,0
0,68,80,0
0,60,61,0
0,56,96,0
0,39,100,0
0,63,97,0
0,63,64,16
0,56,74,0
0,39,103,0
0,63,101,0
0,58,48,0
0,67,80,0
0,58,64,0
0,43,109,0
0,51,64,0
0,63,68,0
0,55,52,0
0,39,107,0
0,58,75,0
0,58,75,0
0,63,52,0
0,63,80,0
0,38,108,0
0,58,73,0
0,65,78,0
0,70,90,0
0,50,83,0
0,65,61,0
0,62,71,0
0,65,52,0
0,62,41,0
0,70,63,0
0,79,98,0
0,62,37,0
0,65,54,0
0,82,108,0
0,53,66,0
0,70,61,0
0,58,48,0
0,50,56,0
0,79,101,6
0,62,72,0
0,65,79,0
0,38,106,2
0,82,105,0
0,58,67,0
0,70,71,0
0,50,45,0
0,53,73,2
0,72,88,0
0,67,63,0
0,63,63,0
0,36,110,0
0,84,106,0
0,67,58,0
0,72,64,0
0,63,56,0
0,55,66,0
0,63,86,0
0,48,84,0
0,63,60,0
0,82,105,0
0,55,53,0
0,67,69,0
0,79,96,0
0,60,80,0
0,75,95,0
0,67,78,0
0,67,93,8
0,60,75,0
0,77,90,2
0,60,60,0
0,63,98,0
0,75,94,0
0,63,80,0
0,48,84,0
0,67,70,0
0,72,78,6
0,41,109,0
0,72,58,0
0,63,55,0
0,68,72,0
0,60,88,0
0,53,80,0
0,68,87,0
0,63,83,0
0,72,87,0
0,56,67,16
0,63,66,0
0,72,106,10
0,63,83,0
0,68,80,0
0,41,78,4
0,75,97,2
0,56,71,0
0,63,72,0
0,72,64,0
0,43,107,0
0,72,87,0
0,60,61,0
0,53,63,0
0,79,110,0
0,56,56,0
0,68,87,0
0,60,41,0
0,44,107,0
0,51,86,0
0,44,87,0
0,77,87,0
0,56,51,0
0,63,85,0
0,63,48,0
0,75,93,0
0,75,81,0
0,68,58,0
0,56,86,0
0,56,79,0
0,68,69,0
0,63,98,0
0,44,102,0
0,60,43,0
0,44,58,0
0,68,77,0
0,63,71,0
0,72,74,0
0,38,111,0
0,62,78,0
0,50,88,0
0,70,84,0
0,65,69,0
0,62,49,0
0,65,56,0
0,70,65,0
0,79,107,20
0,53,53,0
0,62,58,0
0,82,98,0
0,58,83,0
0,65,75,0
0,50,63,8
0,53,68,10
0,70,64,0
0,62,70,0
0,82,108,6
0,58,80,0
0,50,77,0
0,70,14,0
0,72,65,10
0,63,61,0
0,36,111,0
0,84,112,0
0,60,83,0
0,67,65,0
0,63,44,0
0,60,59,0
0,48,82,0
0,82,91,0
0,63,67,0
0,51,63,0
0,67,61,0
0,55,65,8
0,75,95,0
