track,note,velocity,time
0,31,32,0
0,31,32,80
0,42,80,95
0,35,112,0
0,73,83,45
0,71,118,0
0,67,122,0
0,42,48,3
0,42,32,23
0,72,99,7
0,42,80,4
0,74,110,16
0,67,99,0
0,42,48,2
0,41,60,0
0,42,32,22
0,50,127,8
0,55,127,1
0,59,127,1
0,55,110,1
0,50,102,0
0,59,115,1
0,67,127,0
0,42,80,2
0,35,112,0
0,31,116,0
0,50,88,33
0,55,88,1
0,59,88,1
0,67,88,1
0,42,48,0
0,42,32,22
0,50,127,16
0,55,127,1
0,59,127,1
0,67,127,1
0,38,112,2
0,42,80,1
0,50,123,15
0,55,123,1
0,59,123,1
0,67,123,1
0,42,48,2
0,35,49,0
0,31,101,0
0,42,32,12
0,42,80,22
0,35,112,0
0,31,114,1
0,50,116,12
0,55,116,1
0,59,116,1
0,71,106,1
0,67,106,0
0,67,116,0
0,42,48,4
0,47,28,17
0,42,32,0
0,50,125,5
0,55,125,1
0,59,125,1
0,67,80,1
0,72,88,0
0,67,125,0
0,47,60,3
0,38,112,0
0,38,109,0
0,42,80,0
0,50,118,9
0,55,118,1
0,59,118,1
0,55,94,1
0,59,89,0
0,50,95,1
0,74,106,0
0,67,100,1
0,67,118,0
0,42,48,1
0,47,60,0
0,42,32,13
0,50,127,5
0,55,127,1
0,59,127,1
0,67,127,1
0,42,80,3
0,35,112,0
0,31,112,0
0,42,48,38
0,42,32,23
0,50,121,16
0,55,121,1
0,59,121,1
0,67,121,1
0,38,112,3
0,42,80,0
0,50,123,14
0,55,123,1
0,59,123,1
0,67,123,1
0,42,48,2
0,35,49,0
0,31,105,0
0,42,32,2
0,71,103,11
0,67,97,0
0,55,93,1
0,59,84,0
0,50,96,0
0,42,80,1
0,35,112,0
0,31,109,1
0,50,118,7
0,55,118,1
0,59,118,1
0,72,103,1
0,67,91,0
0,67,118,1
0,42,48,3
0,45,28,16
0,42,32,0
0,50,127,3
0,55,127,1
0,59,127,1
0,67,127,1
0,47,44,3
0,38,112,0
0,38,114,0
0,42,80,1
0,50,117,19
0,55,117,1
0,59,117,1
0,67,117,1
0,42,48,3
0,41,60,0
0,42,32,10
0,52,123,1
0,55,123,1
0,60,123,1
0,64,113,1
0,67,103,0
0,60,87,1
0,52,83,0
0,55,72,1
0,64,123,0
0,42,80,1
0,35,112,0
0,36,105,0
0,42,48,40
0,42,32,23
0,52,123,16
0,55,123,1
0,60,123,1
0,64,123,1
0,38,112,3
0,42,80,1
0,52,127,17
0,55,127,1
0,60,127,1
0,64,127,1
0,42,48,3
0,35,49,0
0,36,107,0
0,42,32,10
0,42,80,23
0,35,112,0
0,36,104,0
0,52,113,30
0,55,113,1
0,60,113,1
0,64,90,1
0,64,113,0
0,42,48,4
0,47,28,4
0,42,32,0
0,52,125,0
0,55,125,1
0,60,125,1
0,64,106,1
0,69,115,0
0,64,125,1
0,47,60,2
0,38,112,0
0,31,105,0
0,42,80,1
0,52,118,10
0,55,118,1
0,60,118,1
0,67,108,1
0,64,102,0
0,64,118,1
0,42,48,2
0,47,60,0
0,42,32,13
0,52,123,10
0,55,123,1
0,60,123,1
0,55,99,1
0,52,89,0
0,60,95,1
0,64,123,0
0,42,80,1
0,35,112,0
0,36,104,1
0,42,48,37
0,42,32,23
0,52,120,16
0,55,120,1
0,60,120,1
0,64,120,1
0,38,112,3
0,42,80,0
0,52,112,20
0,55,112,1
0,60,112,1
0,64,75,1
0,67,88,0
0,64,112,1
0,42,48,2
0,35,49,0
0,36,102,0
0,42,32,1
0,64,97,20
0,71,104,0
0,42,80,2
0,35,112,0
0,36,104,0
0,52,116,41
0,55,116,1
0,60,116,1
0,64,116,1
0,42,48,4
0,45,28,13
0,42,32,0
0,52,127,2
0,55,127,1
0,60,127,1
0,71,107,1
0,64,107,0
0,64,127,1
0,47,44,2
0,38,112,0
0,31,100,0
0,42,80,1
0,52,125,9
0,55,125,1
0,60,125,1
0,64,125,2
0,42,48,2
0,41,60,0
0,42,32,2
0,50,127,4
0,54,127,1
0,57,127,1
0,66,104,1
0,71,98,0
0,54,86,1
0,50,89,0
0,59,74,0
0,62,127,1
0,42,80,0
0,35,112,0
0,38,114,0
0,42,48,41
0,42,32,23
0,50,127,13
0,54,127,1
0,57,127,1
0,69,108,1
0,66,105,0
0,62,127,0
0,38,112,3
0,42,80,0
0,50,121,15
0,54,121,1
0,57,121,1
0,69,110,1
0,66,105,0
0,62,121,0
0,42,48,2
0,35,49,0
0,38,102,0
0,42,32,9
0,50,75,18
0,54,75,1
0,57,75,1
0,62,75,1
0,42,80,2
0,35,112,0
0,38,111,0
0,50,117,39
0,54,117,1
0,57,117,1
0,62,117,1
0,42,48,4
0,47,28,8
0,42,32,1
0,50,127,1
0,54,127,1
0,57,127,1
0,57,48,1
0,62,127,0
0,47,60,3
0,38,112,0
0,33,107,1
0,42,80,0
0,50,121,4
0,54,121,1
0,57,121,1
0,57,96,1
0,54,85,0
0,50,96,1
0,66,99,0
0,69,100,1
0,62,121,0
0,42,48,0
0,47,60,1
0,42,32,3
0,50,127,14
0,54,127,1
0,57,127,1
0,54,87,0
0,71,100,1
0,66,95,1
0,50,100,0
0,57,91,0
0,62,127,1
0,42,80,0
0,35,112,0
0,38,116,0
0,42,48,40
0,42,32,2
0,50,127,16
0,54,127,1
0,57,127,1
0,69,102,1
0,66,88,0
0,62,127,1
0,38,112,2
0,42,80,0
0,50,116,20
0,54,116,1
0,57,116,1
0,62,116,1
0,42,48,2
0,35,49,0
0,38,116,1
0,42,32,1
0,54,93,21
0,69,104,0
0,66,102,1
0,50,100,0
0,57,95,0
0,42,80,1
0,35,112,0
0,38,109,0
0,50,118,41
0,54,118,1
0,57,118,1
0,62,118,1
0,42,48,4
0,45,28,9
0,42,32,0
0,50,120,0
0,54,120,1
0,57,120,1
0,69,103,1
0,66,99,0
0,62,120,1
0,47,44,2
0,38,112,0
0,33,109,1
0,42,80,0
0,50,117,3
0,54,117,1
0,57,117,1
0,67,110,1
0,62,107,0
0,62,117,1
0,42,48,1
0,41,60,0
0,42,32,19
0,50,127,5
0,55,127,0
0,59,127,1
0,55,99,1
0,59,108,0
0,50,98,1
0,67,127,0
0,42,80,2
0,35,112,0
0,31,114,0
0,42,48,40
0,42,32,23
0,50,127,16
0,55,127,1
0,59,127,1
0,67,127,1
0,38,112,3
0,42,80,0
0,50,127,17
0,55,127,1
0,59,127,1
0,62,95,1
0,67,108,0
0,67,127,1
0,42,48,1
0,35,49,0
0,31,109,0
0,42,32,11
0,42,80,23
0,35,112,0
0,31,112,1
0,50,117,39
0,55,117,1
0,59,117,1
0,62,84,1
0,67,117,0
0,42,48,4
0,47,28,5
0,42,32,0
0,50,127,17
0,55,127,1
0,59,127,0
0,62,107,1
0,69,117,0
0,67,127,1
0,47,60,2
0,38,112,0
0,38,114,0
0,42,80,1
0,50,120,17
0,55,120,1
0,59,120,1
0,62,89,1
0,67,106,0
0,67,120,1
0,42,48,1
0,47,60,0
0,42,32,11
0,50,127,8
0,55,127,1
0,59,127,1
0,55,104,1
0,59,115,0
0,50,107,1
0,67,127,0
0,42,80,2
0,35,112,0
0,31,111,0
0,50,82,32
0,55,82,1
0,59,82,1
0,67,82,1
0,42,48,0
0,42,32,23
0,50,125,16
0,55,125,1
0,59,125,1
0,67,125,1
0,38,112,3
0,42,80,0
0,50,125,20
0,55,125,1
0,59,125,1
0,67,125,1
0,42,48,2
0,35,49,0
0,31,111,0
0,42,32,14
0,42,80,23
0,35,112,0
0,50,116,6
0,55,116,1
0,59,116,1
0,67,102,1
0,55,100,0
0,62,98,1
0,59,98,0
0,50,96,0
0,67,116,1
0,31,107,1
0,42,48,1
0,45,28,7
0,42,32,0
0,50,117,16
0,55,117,1
0,59,117,1
0,67,117,1
0,47,44,3
0,38,112,0
0,38,105,1
0,42,80,0
0,50,121,16
0,55,121,1
0,59,121,1
0,67,121,1
0,42,48,3
0,41,60,0
0,42,32,15
0,50,127,7
0,55,127,1
0,59,127,1
0,67,127,2
0,42,80,2
0,35,112,0
0,49,64,0
0,50,76,0
0,59,73,1
0,55,84,0
0,67,92,0
0,62,85,1
0,31,109,0
0,62,126,1
0,67,126,0
0,71,126,1
0,50,82,31
0,55,82,1
0,59,82,1
0,67,82,1
0,42,48,0
0,42,32,22
0,50,127,16
0,55,127,1
0,59,127,1
0,67,127,1
0,38,112,3
0,42,80,0
0,50,127,19
0,55,127,1
0,59,127,1
0,62,96,1
0,67,99,0
0,71,86,1
0,67,127,0
0,42,48,2
0,35,49,0
0,31,102,0
0,42,32,12
0,50,85,18
0,55,85,1
0,59,85,1
0,67,85,1
0,42,80,2
0,35,112,0
0,31,111,0
0,50,125,39
0,55,125,1
0,59,125,1
0,62,71,1
0,67,125,0
0,42,48,4
0,47,28,2
0,42,32,1
0,50,127,14
0,55,127,1
0,59,127,1
0,67,81,1
0,64,83,0
0,71,72,1
0,67,127,0
0,47,60,2
0,38,112,0
0,38,102,0
0,42,80,1
0,50,121,19
0,55,121,1
0,59,121,1
0,62,91,1
0,67,89,0
0,71,83,1
0,67,121,0
0,42,48,2
0,47,60,0
0,42,32,2
0,50,127,3
0,55,127,1
0,59,127,1
0,55,82,0
0,50,83,1
0,59,83,0
0,67,127,1
0,42,80,1
0,35,112,0
0,31,109,0
0,42,48,39
0,42,32,23
0,50,123,16
0,55,123,1
0,59,123,1
0,67,123,1
0,38,112,3
0,42,80,0
0,50,125,17
0,55,125,1
0,59,125,1
0,55,82,1
0,59,76,0
0,50,77,1
0,67,125,0
0,42,48,2
0,35,49,0
0,31,98,0
0,42,32,13
0,42,80,23
0,35,112,0
0,31,114,1
0,50,118,41
0,55,118,1
0,59,118,1
0,67,118,1
0,42,48,4
0,45,28,3
0,42,32,0
0,50,125,8
0,55,125,1
0,59,125,1
0,71,74,1
0,67,85,0
0,64,96,1
0,67,125,0
0,47,44,2
0,38,112,0
0,38,111,0
0,42,80,1
0,50,127,8
0,55,127,1
0,59,127,1
0,67,127,2
0,42,48,0
0,41,60,0
0,42,32,0
0,52,116,7
0,55,116,1
0,60,116,1
0,64,85,1
0,60,96,0
0,72,88,1
0,55,85,0
0,52,79,1
0,67,89,0
0,64,116,0
0,42,80,1
0,35,112,0
0,36,101,1
0,72,126,0
0,64,126,1
0,67,126,0
0,42,48,39
0,42,32,23
0,52,127,16
0,55,127,1
0,60,127,1
0,64,127,1
0,38,112,3
0,42,80,0
0,52,123,13
0,55,123,1
0,60,123,1
0,55,85,1
0,52,77,0
0,67,89,1
0,60,86,0
0,72,76,1
0,64,82,0
0,64,123,1
0,42,48,0
0,35,49,0
0,36,100,0
0,42,32,9
0,52,76,18
0,55,76,1
0,60,76,1
0,64,76,1
0,42,80,2
0,35,112,0
0,36,100,0
0,52,121,31
0,55,121,1
0,60,121,1
0,64,77,1
0,64,121,0
0,42,48,4
0,47,28,1
0,42,32,1
0,52,127,1
0,55,127,1
0,60,127,1
0,64,95,1
0,69,106,0
0,72,83,1
0,64,127,0
0,47,60,2
0,38,112,0
0,31,107,1
0,42,80,0
0,52,120,16
0,55,120,1
0,60,120,1
0,67,104,1
0,72,86,0
0,64,97,1
0,64,120,0
0,42,48,1
0,47,60,0
0,42,32,12
0,52,118,12
0,55,118,1
0,60,118,1
0,55,82,1
0,60,73,0
0,52,76,1
0,64,118,0
0,42,80,1
0,35,112,0
0,36,102,1
0,52,87,32
0,55,87,1
0,60,87,1
0,64,87,1
0,42,48,0
0,42,32,21
0,52,118,16
0,55,118,1
0,60,118,1
0,64,118,1
0,38,112,0
0,42,80,0
0,52,127,15
0,55,127,1
0,60,127,1
0,55,80,0
0,52,73,1
0,60,73,1
0,64,127,0
0,42,48,1
0,35,49,0
0,36,105,0
0,42,32,11
0,52,84,18
0,55,84,1
0,60,84,1
0,64,84,1
0,42,80,2
0,35,112,0
0,36,116,0
0,52,120,7
0,55,120,0
0,60,120,0
0,64,69,1
0,64,120,1
0,42,48,6
0,45,28,16
0,42,32,1
0,52,127,8
0,55,127,1
0,60,127,1
0,67,73,1
0,72,73,0
0,64,86,1
0,69,92,0
0,64,127,1
0,47,44,1
0,38,112,0
0,31,109,0
0,42,80,1
0,52,127,9
0,55,127,1
0,60,127,1
0,64,127,1
0,42,48,2
0,41,60,0
0,42,32,1
0,50,127,7
0,54,127,1
0,57,127,1
0,54,83,1
0,69,95,0
0,62,93,1
0,57,85,0
0,50,85,1
0,66,96,0
0,62,127,1
0,42,80,0
0,35,112,0
0,38,118,0
0,69,126,0
0,62,126,1
0,66,126,0
0,42,48,40
0,42,32,23
0,50,127,16
0,54,127,1
0,57,127,1
0,62,127,1
0,38,112,3
0,42,80,0
0,50,127,9
0,54,127,1
0,57,127,1
0,69,88,1
0,54,87,0
0,62,84,1
0,66,84,0
0,50,92,0
0,57,85,1
0,62,127,0
0,42,48,1
0,35,49,0
0,38,111,1
0,42,32,10
0,42,80,21
0,35,112,0
0,38,111,0
0,50,121,41
0,54,121,1
0,57,121,1
0,62,85,1
0,62,121,0
0,42,48,4
0,47,28,9
0,42,32,1
0,50,127,4
0,54,127,1
0,57,127,0
0,62,87,1
0,71,85,0
0,66,87,1
0,62,127,0
0,47,60,2
0,38,112,0
0,33,105,0
0,42,80,1
0,50,125,0
0,54,125,1
0,57,125,1
0,62,102,1
0,66,103,0
0,69,104,1
0,62,125,0
0,42,48,1
0,47,60,0
0,35,111,0
0,42,32,4
0,50,127,18
0,54,127,1
0,57,127,1
0,50,92,1
0,54,90,0
0,57,89,1
0,62,127,0
0,42,80,2
0,35,112,0
0,38,116,0
0,50,75,32
0,54,75,1
0,57,75,1
0,62,75,0
0,42,48,0
0,42,32,24
0,50,127,15
0,54,127,1
0,57,127,1
0,62,127,1
0,38,112,3
0,42,80,0
0,50,127,17
0,54,127,1
0,57,127,1
0,54,84,1
0,57,84,0
0,50,87,1
0,62,127,0
0,42,48,1
0,35,49,0
0,38,107,0
0,42,32,11
0,42,80,23
0,35,112,0
0,38,121,0
0,50,118,3
0,54,118,1
0,57,118,1
0,62,77,0
0,62,118,1
0,42,48,4
0,45,28,8
0,42,32,0
0,50,118,4
0,54,118,1
0,57,118,1
0,62,92,1
0,66,82,0
0,71,80,1
0,62,118,0
0,47,44,2
0,38,112,0
0,33,104,0
0,42,80,1
0,50,127,4
0,54,127,1
0,57,127,1
0,62,127,0
0,42,48,1
0,41,60,0
0,38,107,0
0,42,32,1
0,52,127,7
0,55,127,1
0,60,127,1
0,55,93,1
0,72,97,0
0,67,99,1
0,60,100,0
0,64,100,1
0,52,79,0
0,64,127,1
0,42,80,0
0,35,112,0
0,36,104,1
0,72,126,0
0,67,126,1
0,64,126,0
0,42,48,40
0,42,32,0
0,52,127,1
0,55,127,1
0,60,127,1
0,67,88,1
0,72,78,0
0,64,96,1
0,64,127,0
0,38,112,2
0,36,102,0
0,42,80,1
0,50,118,4
0,55,118,1
0,59,118,1
0,62,99,1
0,67,96,1
0,50,93,0
0,59,85,0
0,71,97,1
0,55,86,0
0,67,118,1
0,42,48,0
0,35,49,0
0,31,111,0
0,42,32,13
0,42,80,23
0,35,112,0
0,62,126,11
0,71,126,0
0,50,118,6
0,55,118,1
0,59,118,1
0,55,75,1
0,50,79,0
0,59,70,1
0,67,118,0
0,42,48,3
0,47,28,5
0,42,32,0
0,50,127,8
0,55,127,1
0,59,127,1
0,71,77,1
0,67,83,0
0,64,88,1
0,67,127,0
0,47,60,2
0,38,112,0
0,38,109,0
0,42,80,1
0,50,123,11
0,55,123,1
0,59,123,1
0,62,88,1
0,71,79,0
0,67,87,1
0,67,123,0
0,42,48,2
0,47,60,0
0,42,32,13
0,50,125,18
0,55,125,0
0,59,125,1
0,67,125,1
0,42,80,3
0,35,112,0
0,31,112,0
0,42,48,38
0,42,32,23
0,50,127,16
0,55,127,1
0,59,127,1
0,67,127,1
0,38,112,2
0,42,80,0
0,50,127,15
0,55,127,1
