track,note,velocity,time
1,67,118,1035
1,72,112,12
1,48,127,6
1,76,127,3
1,67,126,16
1,71,127,1
1,74,127,0
1,72,116,7
1,69,127,1
1,48,127,3
1,62,120,6
1,52,127,1
1,67,127,4
1,71,122,13
1,72,114,8
1,67,107,0
1,62,114,2
1,62,120,4
1,67,124,0
1,71,122,0
1,52,127,2
1,48,120,47
1,60,107,5
1,65,122,15
1,53,127,7
1,69,120,8
1,53,97,1
1,53,102,1
1,60,127,3
1,65,127,46
1,65,122,23
1,60,127,0
1,67,118,6
1,69,127,7
1,52,116,7
1,67,114,22
1,65,126,20
1,50,108,3
1,55,124,31
1,48,127,0
1,60,127,1
1,64,120,1
1,64,112,7
1,72,127,1
1,76,127,3
1,48,127,38
1,62,127,6
1,67,126,2
1,52,127,4
1,71,114,3
1,72,127,4
1,69,124,2
1,52,127,5
1,67,124,1
1,71,120,1
1,48,127,45
1,60,105,7
1,65,105,10
1,53,120,1
1,69,126,4
1,53,92,1
1,57,104,8
1,60,106,14
1,60,114,6
1,57,107,4
1,65,126,1
1,53,102,1
1,65,114,1
1,60,116,8
1,65,127,1
1,53,127,0
1,60,127,2
1,57,122,1
1,52,127,45
1,50,124,1
1,65,127,0
1,60,127,0
1,57,126,0
1,55,110,0
1,59,116,1
1,62,118,0
1,71,114,0
1,67,126,0
1,50,93,239
1,43,110,39
1,62,107,16
1,67,101,49
1,62,124,8
1,59,122,0
1,67,127,0
1,71,127,2
1,50,71,0
1,52,104,1
1,59,118,3
1,71,120,0
1,64,127,1
1,67,124,0
1,52,120,15
1,59,94,3
1,64,127,26
1,67,126,1
1,55,127,1
1,59,73,26
1,48,124,5
1,69,112,31
1,60,122,0
1,65,120,1
1,53,126,1
1,67,126,11
1,64,127,0
1,52,116,4
1,65,112,37
1,50,127,6
1,60,126,5
1,67,127,0
1,64,127,0
1,48,108,0
1,52,95,0
1,60,75,6
1,60,32,3
1,65,127,0
1,69,127,0
1,48,114,1
1,53,114,0
1,60,62,16
1,67,116,11
1,48,97,0
1,52,97,0
1,64,127,0
1,60,73,34
1,65,127,48
1,69,127,0
1,48,122,0
1,53,110,0
1,60,90,46
1,52,106,18
1,48,110,0
1,64,122,0
1,67,107,0
1,60,92,12
1,65,127,6
1,69,127,0
1,60,118,0
1,48,108,0
1,53,102,0
1,60,56,69
1,67,122,21
1,64,126,0
1,48,97,0
1,52,104,0
1,67,127,1
1,60,127,0
1,64,127,0
1,48,126,0
1,52,114,0
1,67,120,1
1,48,127,0
1,52,124,0
1,60,124,1
1,64,127,0
1,59,110,0
1,62,120,0
1,71,122,0
1,67,127,0
1,55,116,0
1,59,70,30
1,62,90,37
1,67,105,1
1,50,95,0
1,59,118,44
1,71,127,0
1,43,106,0
1,59,94,26
1,62,107,32
1,50,106,1
1,67,103,30
1,48,112,1
1,59,107,0
1,62,39,0
1,66,114,0
1,47,112,0
1,59,112,17
1,62,110,26
1,66,107,1
1,47,108,0
1,60,112,6
1,69,127,0
1,65,127,0
1,53,104,0
1,60,126,8
1,69,127,0
1,65,127,0
1,65,116,10
1,53,104,17
1,60,126,20
1,64,127,0
1,67,127,0
1,48,120,0
1,52,104,0
1,60,69,43
1,69,127,24
1,60,124,0
1,65,127,0
1,53,106,1
1,48,114,0
1,60,73,22
1,64,127,15
1,67,127,0
1,48,114,0
1,52,108,0
1,60,67,34
1,53,104,48
1,48,102,0
1,69,127,0
1,65,127,0
1,60,36,1
1,67,127,14
1,64,127,0
1,48,108,0
1,52,104,0
1,60,79,35
1,65,127,48
1,69,127,0
1,53,95,0
1,48,110,0
1,60,56,43
1,48,26,10
1,52,108,0
1,60,120,1
1,67,127,0
1,64,127,0
1,60,127,1
1,67,127,0
1,64,127,0
1,48,118,0
1,52,114,0
1,48,118,1
1,52,116,0
1,60,127,0
1,67,127,0
1,64,127,0
1,71,107,0
1,62,118,0
1,59,118,0
1,43,114,0
1,59,105,34
1,62,103,43
1,67,75,6
1,43,95,0
1,62,124,5
1,67,127,0
1,71,126,0
1,59,120,0
1,43,108,0
1,59,81,28
1,62,124,21
1,67,127,0
1,71,127,0
1,43,114,0
1,45,126,34
1,59,99,0
1,47,114,33
1,66,97,0
1,63,97,0
1,69,110,0
1,63,92,37
1,47,93,13
1,47,116,3
1,63,32,2
1,66,94,0
1,69,120,0
1,59,114,144
1,66,94,25
1,63,90,0
1,47,124,0
1,59,120,27
1,67,114,16
1,64,124,1
1,59,116,0
1,52,108,0
1,59,51,20
1,59,116,37
1,59,127,17
1,67,127,0
1,64,127,0
1,52,104,12
1,59,97,1
1,50,120,13
1,59,112,0
1,65,116,0
1,62,126,0
1,59,107,9
1,59,127,18
1,62,127,0
1,67,127,0
1,65,127,0
1,50,127,0
1,59,90,6
1,60,124,26
1,64,127,0
1,55,116,0
1,48,112,0
1,55,86,21
1,60,81,40
1,55,112,16
1,48,120,17
1,55,127,0
1,60,127,1
1,64,127,0
1,64,127,9
1,60,127,0
1,48,124,0
1,48,124,2
1,64,127,0
1,60,127,0
1,43,104,1
1,67,103,0
1,62,116,0
1,59,110,0
1,55,105,0
1,55,97,19
1,59,90,26
1,38,89,46
1,62,101,1
1,59,112,11
1,62,116,0
1,55,105,0
1,43,104,0
1,67,127,0
1,59,127,12
1,55,120,0
1,62,127,0
1,55,101,7
1,43,127,18
1,59,120,0
1,62,118,0
1,55,97,14
1,45,26,2
1,64,122,17
1,69,97,0
1,60,114,0
1,57,110,0
1,45,116,0
1,57,112,19
1,60,116,10
1,64,110,48
1,45,110,0
1,60,120,14
1,57,99,1
1,69,127,0
1,65,127,0
1,41,100,0
1,60,112,9
1,65,127,0
1,69,126,0
1,41,120,0
1,57,114,1
1,43,104,3
1,67,116,1
1,62,120,0
1,59,120,0
1,55,120,0
1,55,105,28
1,59,90,30
1,43,89,21
1,62,86,0
1,43,106,4
1,59,105,1
1,62,23,0
1,55,105,0
1,67,124,0
1,55,86,42
1,60,127,5
1,64,127,0
1,43,106,0
1,55,92,17
1,43,127,1
1,59,107,41
1,67,90,0
1,62,112,0
1,55,99,72
1,59,105,32
1,62,94,12
1,43,104,0
1,60,127,20
1,67,116,0
1,64,127,0
1,45,127,0
1,47,127,5
1,62,127,1
1,65,127,0
1,59,124,0
1,67,114,1
1,64,124,0
1,60,120,0
1,48,126,0
1,55,110,0
1,52,93,1
1,55,110,0
1,60,120,1
1,55,127,0
1,64,116,37
1,48,114,0
1,59,124,6
1,67,116,0
1,47,127,0
1,62,116,0
1,55,120,0
1,50,93,1
1,55,103,0
1,59,97,1
1,55,116,0
1,47,112,3
1,65,120,23
1,69,110,0
1,57,110,0
1,60,110,0
1,53,89,0
1,41,95,0
1,48,106,0
1,57,112,0
1,60,94,31
1,53,108,0
1,65,73,39
1,41,97,0
1,60,126,12
1,57,126,0
1,53,112,0
1,65,124,0
1,60,116,6
1,65,116,0
1,69,118,0
1,52,110,0
1,60,116,1
1,57,118,0
1,65,126,0
1,50,102,0
1,72,124,3
1,67,124,0
1,64,127,0
1,60,122,0
1,48,91,0
1,36,93,1
1,67,90,15
1,60,110,5
1,43,110,0
1,64,107,37
1,40,127,0
1,67,110,14
1,41,127,0
1,71,81,15
1,67,107,0
1,59,101,0
1,62,105,0
1,43,127,0
1,62,110,15
1,67,110,0
1,59,107,0
1,50,116,0
1,43,100,34
1,62,88,0
1,42,87,41
1,41,108,29
1,69,105,0
1,60,110,0
1,57,110,0
1,65,122,0
1,65,107,21
1,60,79,0
1,57,120,31
1,53,110,0
1,60,103,27
1,65,97,27
1,41,97,0
1,72,120,9
1,60,103,0
1,64,122,0
1,67,73,0
1,48,114,0
1,67,84,20
1,64,120,7
1,72,103,0
1,67,114,0
1,60,116,0
1,40,120,0
1,60,107,15
1,64,114,1
1,43,114,0
1,67,110,20
1,62,105,16
1,71,77,0
1,59,103,0
1,67,110,0
1,43,116,0
1,67,120,19
1,59,114,40
1,38,55,1
1,62,60,32
1,38,108,18
1,67,81,1
1,59,114,33
1,71,124,0
1,43,118,0
1,62,103,14
1,67,120,0
1,38,118,0
1,59,79,39
1,62,103,7
1,43,100,0
1,44,124,2
1,67,114,1
1,69,107,27
1,64,124,0
1,60,114,0
1,57,110,0
1,45,110,0
1,60,114,21
1,57,103,0
1,64,110,0
1,57,99,25
1,48,120,0
1,60,73,25
1,38,84,0
1,40,112,28
1,64,92,1
1,60,105,4
1,40,122,0
1,64,99,0
1,55,114,0
1,67,116,0
1,40,104,16
1,64,105,1
1,55,90,21
1,40,108,27
1,60,120,1
1,64,75,0
1,64,120,30
1,57,36,19
1,60,94,0
1,65,114,0
1,41,114,0
1,69,81,0
1,69,110,18
1,57,97,0
1,60,99,0
1,65,116,0
1,41,127,0
1,57,60,1
1,60,114,12
1,65,97,5
1,41,106,1
1,69,116,15
1,57,107,0
1,41,127,0
1,60,116,11
1,69,29,0
1,65,124,0
1,57,105,0
1,41,118,0
1,57,84,16
1,41,124,21
1,60,107,0
1,65,114,3
1,69,84,13
1,66,88,0
1,62,103,0
1,57,90,0
1,42,120,0
1,57,110,10
1,62,116,0
1,66,99,0
1,69,114,0
1,42,82,0
1,57,105,3
1,42,91,0
1,42,87,16
1,62,105,0
1,66,73,48
1,38,102,0
1,57,94,29
1,69,122,0
1,42,97,0
1,42,87,20
1,62,124,9
1,66,114,0
1,57,126,0
1,42,97,0
1,42,102,0
1,57,97,0
1,42,102,0
1,69,103,11
1,65,114,0
1,60,114,0
1,57,105,0
1,41,120,0
1,57,101,33
1,60,77,2
1,43,87,0
1,45,118,19
1,65,86,1
1,43,116,26
1,69,103,1
1,57,103,0
1,69,107,12
1,57,114,0
1,60,120,0
1,65,122,0
1,43,104,28
1,69,105,9
1,60,114,0
1,65,124,0
1,57,112,0
1,36,102,50
1,55,86,0
1,64,112,0
1,60,110,0
1,67,103,135
1,72,95,3
1,76,118,4
1,72,110,6
1,38,106,4
1,67,108,4
1,40,127,8
1,71,127,6
1,74,127,0
1,67,126,0
1,71,122,1
1,40,116,0
1,67,122,1
1,64,127,0
1,36,100,45
1,60,90,21
1,65,112,5
1,41,110,1
1,69,127,1
1,53,92,0
1,53,114,1
1,57,116,24
1,60,79,10
1,41,97,0
1,41,102,9
1,53,110,1
1,57,99,0
1,60,112,48
1,41,91,10
1,53,99,1
1,57,107,0
1,41,127,1
1,53,122,0
1,57,124,0
1,36,95,1
1,53,126,4
1,57,127,0
1,55,110,0
1,59,116,1
1,62,118,0
1,71,114,0
1,67,126,0
1,50,93,239
1,43,110,39
1,62,107,18
1,67,101,48
1,71,127,8
1,67,127,0
1,62,124,1
1,59,122,0
1,50,71,1
1,52,104,1
1,59,118,3
1,71,120,0
1,64,127,1
1,67,124,0
1,52,120,15
1,59,94,3
1,64,127,27
1,67,126,1
1,55,127,0
1,59,73,26
1,48,124,5
1,69,112,31
1,60,122,0
1,65,120,1
1,53,126,1
1,67,126,13
1,64,127,0
1,52,116,2
1,65,112,39
1,50,127,4
1,60,126,5
1,67,127,0
1,64,127,0
1,48,108,0
1,52,95,0
1,60,75,6
1,60,32,3
1,65,127,0
1,69,127,0
1,48,114,1
1,53,114,0
1,60,62,16
1,67,116,11
1,48,97,0
1,52,97,0
1,64,127,0
1,60,73,34
1,65,127,48
1,69,127,0
1,48,122,0
1,53,110,0
1,60,90,46
1,52,106,18
1,48,110,0
1,64,122,0
1,67,107,0
1,60,92,12
1,65,127,6
1,69,127,0
1,60,118,0
1,48,108,0
1,53,102,0
1,60,56,69
1,67,122,21
1,64,126,0
1,48,97,0
1,52,104,0
1,67,127,1
1,60,127,0
1,64,127,0
1,48,126,0
1,52,114,0
1,67,120,1
1,48,127,0
1,52,124,0
1,60,124,1
1,64,127,0
1,59,110,0
1,62,120,0
1,71,122,0
1,67,127,0
1,55,116,0
1,59,70,30
1,62,90,37
1,67,105,1
1,50,95,0
1,59,118,44
1,71,127,0
1,43,106,0
1,59,94,26
1,62,107,32
1,50,106,1
1,67,103,30
1,48,112,1
1,59,107,0
1,62,39,0
1,66,114,0
1,47,112,0
1,59,112,17
1,62,110,26
1,66,107,1
1,47,108,0
1,60,112,6
1,69,127,0
1,65,127,0
1,53,104,0
1,60,126,8
1,69,127,0
1,65,127,0
1,65,116,10
1,53,104,17
1,60,126,20
1,64,127,0
1,67,127,0
1,48,120,0
1,52,104,0
1,60,69,43
1,69,127,24
1,60,124,0
1,65,127,0
1,53,106,1
1,48,114,0
1,60,73,22
1,64,127,15
1,67,127,0
1,48,114,0
1,52,108,0
1,60,67,34
1,53,104,48
1,48,102,0
1,69,127,0
1,65,127,0
1,60,36,1
1,67,127,14
1,64,127,0
1,48,108,0
1,52,104,0
1,60,79,35
1,65,127,48
1,69,127,0
1,53,95,0
1,48,110,0
1,60,56,43
1,48,26,10
1,52,108,0
1,60,120,1
1,67,127,0
1,64,127,0
1,60,127,1
1,67,127,0
1,64,127,0
1,48,118,0
1,48,118,1
1,60,127,0
1,67,127,0
1,64,127,0
1,71,107,0
1,62,118,0
1,59,118,0
1,43,114,0
1,59,105,34
1,62,103,43
1,67,75,6
1,43,95,0
1,62,124,5
1,67,127,0
1,71,126,0
1,59,120,0
1,43,108,0
1,59,81,28
1,62,124,21
1,67,127,0
1,71,127,0
1,43,114,0
1,45,126,34
1,59,99,0
1,47,114,33
1,66,97,0
1,63,97,0
1,69,110,0
1,59,114,30
1,63,92,37
1,66,88,12
1,47,93,1
1,63,32,4
1,66,94,0
1,59,120,0
1,69,120,0
1,47,116,0
1,59,114,19
1,66,94,25
1,63,90,0
1,47,124,0
1,59,120,27
1,67,114,16
1,64,124,1
1,59,116,0
1,52,108,0
1,59,51,20
1,59,116,37
1,59,127,17
1,67,127,0
1,64,127,0
1,52,104,12
1,59,97,1
1,50,120,13
1,59,112,0
1,65,116,0
1,62,126,0
1,59,107,9
1,59,127,18
1,62,127,0
1,67,127,0
1,65,127,0
1,50,127,0
1,59,90,6
1,60,124,26
1,64,127,0
1,55,116,0
1,48,112,0
1,55,86,21
1,60,81,40
1,55,112,16
1,48,120,17
1,55,127,0
1,60,127,1
1,64,127,0
1,64,127,9
1,60,127,0
1,48,124,0
1,48,124,2
1,64,127,0
1,60,127,0
1,43,104,1
1,67,103,0
1,62,116,0
1,59,110,0
1,55,105,0
1,55,97,19
1,59,90,26
1,38,89,46
1,62,101,1
1,59,112,11
1,62,116,0
1,55,105,0
1,43,104,0
1,67,127,0
1,59,127,12
1,55,120,0
1,62,127,0
1,55,101,7
1,43,127,18
1,59,120,0
1,62,118,0
1,55,97,14
1,45,26,2
1,64,122,17
1,69,97,0
1,60,114,0
1,57,110,0
1,45,116,0
1,57,112,19
1,60,116,10
1,64,110,48
1,45,110,0
1,60,120,14
1,57,99,1
1,69,127,0
1,65,127,0
1,41,100,0
1,60,112,9
1,65,127,0
1,69,126,0
1,41,120,0
1,57,114,1
1,43,104,3
1,67,116,1
1,62,120,0
1,59,120,0
1,55,120,0
1,55,105,28
1,59,90,30
1,43,89,21
1,62,86,0
1,43,106,4
1,59,105,1
1,62,23,0
1,55,105,0
1,67,124,0
1,55,86,42
1,60,127,5
1,64,127,0
1,43,106,0
1,55,92,17
1,43,127,1
1,59,107,41
1,67,90,0
1,62,112,0
1,55,99,72
1,59,105,32
1,62,94,12
1,43,104,0
1,60,127,20
1,67,116,0
1,64,127,0
1,45,127,0
1,47,127,5
1,62,127,1
1,65,127,0
1,59,124,0
1,67,114,1
1,64,124,0
1,60,120,0
1,48,126,0
1,55,110,0
1,52,93,1
1,55,110,0
1,60,120,1
1,55,127,0
1,64,116,37
1,48,114,0
1,59,124,6
1,67,116,0
1,47,127,0
1,62,116,0
1,55,120,0
1,50,93,1
1,55,103,0
1,59,97,1
1,55,116,0
1,47,112,3
1,65,120,23
1,69,110,0
1,57,110,0
1,60,110,0
1,53,89,0
1,41,95,0
1,48,106,0
1,57,112,0
1,60,94,31
1,53,108,0
1,65,73,39
