track,note,velocity,time
1,1,1,0
1,71,127,64512
1,71,127,92
1,69,127,192
1,67,127,156
1,69,126,172
1,64,126,188
1,71,127,180
1,71,127,108
1,69,127,44
1,67,127,8
1,69,127,32
1,64,127,28
1,72,127,352
1,72,127,112
1,71,127,192
1,69,127,180
1,72,127,180
1,69,127,184
1,71,127,49552
1,71,127,100
1,69,127,192
1,67,127,144
1,69,118,176
1,64,127,184
1,71,127,144
1,71,127,80
1,69,124,48
1,67,124,8
1,69,118,192
1,64,127,188
1,72,127,176
1,72,127,112
1,71,121,68
1,69,118,20
1,72,123,20
1,69,124,48
1,71,127,50308
1,71,127,148
1,69,126,192
1,67,127,144
1,69,121,0
1,64,124,192
1,71,127,280
1,71,124,108
1,69,126,192
1,67,127,156
1,69,119,188
1,64,126,188
1,72,126,232
1,72,127,100
1,71,116,28
1,69,116,192
1,72,116,184
1,69,116,12
1,71,126,1528
1,71,126,100
1,69,119,0
1,67,123,0
1,69,116,192
1,64,117,188
1,71,127,128
1,71,127,92
1,69,124,36
1,67,124,20
1,69,114,4
1,64,117,12
1,72,117,96
1,72,117,76
1,71,112,44
1,69,113,16
1,72,121,16
1,69,124,52
2,1,1,0
2,74,86,3268
2,79,83,0
2,71,80,0
2,74,78,112
2,71,74,0
2,79,79,0
2,74,71,116
2,79,71,0
2,71,66,0
2,74,73,120
2,79,72,0
2,71,69,0
2,79,80,124
2,74,81,0
2,71,76,0
2,71,78,136
2,74,83,0
2,79,82,0
2,71,79,124
2,74,83,0
2,79,82,0
2,74,81,108
2,79,79,0
2,71,75,0
2,79,78,100
2,76,78,0
2,71,77,0
2,71,84,100
2,79,86,0
2,74,91,0
2,75,97,104
2,79,91,0
2,71,86,0
2,79,82,268
2,71,85,0
2,76,83,0
2,71,82,104
2,79,84,0
2,76,85,0
2,76,83,100
2,79,82,0
2,71,78,0
2,76,82,112
2,79,81,0
2,71,79,0
2,76,92,108
2,71,86,0
2,79,86,0
2,76,86,116
2,79,82,0
2,71,78,0
2,76,87,96
2,71,81,0
2,79,84,0
2,76,82,100
2,79,82,0
2,71,77,0
2,76,79,112
2,81,83,0
2,71,66,0
2,76,87,88
2,71,80,0
2,79,89,0
2,71,84,128
2,76,92,4
2,79,86,0
2,72,84,256
2,76,89,0
2,79,89,0
2,76,81,100
2,79,82,0
2,72,78,0
2,76,82,116
2,79,80,0
2,72,78,0
2,76,86,120
2,79,84,0
2,72,82,0
2,76,89,112
2,79,89,0
2,72,86,0
2,76,86,120
2,79,84,0
2,72,82,0
2,76,86,124
2,79,86,0
2,72,83,0
2,76,84,112
2,79,86,0
2,72,82,0
2,81,84,112
2,76,84,0
2,72,82,0
2,72,84,64
2,76,85,0
2,79,85,0
2,76,92,124
2,79,91,4
2,72,84,0
2,69,86,240
2,74,83,0
2,78,93,0
2,78,88,100
2,69,83,0
2,74,82,0
2,69,78,100
2,78,89,0
2,74,77,0
2,74,81,124
2,78,90,0
2,69,82,0
2,78,95,120
2,69,87,0
2,74,89,0
2,78,87,116
2,74,82,0
2,69,82,0
2,78,89,124
2,69,82,0
2,74,83,0
2,69,79,112
2,78,88,0
2,74,79,0
2,78,89,112
2,71,80,0
2,74,84,0
2,78,90,100
2,74,85,0
2,69,86,0
2,78,91,120
2,69,86,0
2,74,85,0
2,74,82,264
2,71,75,0
2,79,79,0
2,71,78,112
2,74,80,4
2,79,80,0
2,71,74,112
2,74,77,0
2,79,77,0
2,74,82,112
2,71,77,0
2,79,81,0
2,79,81,136
2,74,82,0
2,71,79,0
2,71,72,124
2,74,79,0
2,79,80,0
2,74,82,136
2,71,76,0
2,79,80,4
2,74,86,124
2,71,81,0
2,79,84,0
2,71,77,88
2,79,80,0
2,76,77,4
2,74,85,92
2,79,82,0
2,71,78,0
2,71,78,104
2,74,86,0
2,79,87,0
2,74,89,228
2,78,91,0
2,71,82,0
2,78,85,128
2,71,80,0
2,74,86,0
2,78,85,108
2,74,83,0
2,71,73,0
2,78,87,124
2,74,84,0
2,71,78,4
2,78,91,128
2,74,92,0
2,71,84,0
2,78,83,100
2,71,71,0
2,74,80,0
2,78,90,132
2,71,82,0
2,74,89,4
2,78,88,96
2,74,91,0
2,71,83,0
2,78,85,100
2,76,86,4
2,71,81,0
2,78,88,64
2,71,80,0
2,74,89,0
2,71,79,92
2,74,89,0
2,78,89,0
2,76,83,244
2,72,82,0
2,79,83,0
2,76,79,112
2,72,78,0
2,79,78,4
2,76,80,108
2,72,81,0
2,79,78,0
2,72,81,128
2,76,79,0
2,79,82,0
2,72,87,112
2,79,87,0
2,76,82,0
2,72,82,128
2,76,79,0
2,67,80,0
2,72,84,108
2,76,82,0
2,67,86,4
2,76,77,112
2,67,78,0
2,72,78,0
2,76,86,124
2,69,92,0
2,72,92,4
2,72,83,64
2,76,78,0
2,67,87,0
2,67,84,124
2,72,85,0
2,76,85,0
2,78,91,264
2,74,92,0
2,69,87,0
2,78,87,108
2,69,84,4
2,74,89,0
2,78,87,96
2,74,89,0
2,69,86,0
2,69,85,100
2,78,89,4
2,74,91,0
2,78,89,100
2,74,91,0
2,69,85,0
2,78,84,108
2,74,84,0
2,69,79,0
2,78,88,120
2,69,82,0
2,74,86,0
2,78,87,108
2,74,89,0
2,69,83,0
2,78,88,112
2,71,82,0
2,74,91,0
2,78,85,100
2,74,89,0
2,69,87,4
2,69,87,140
2,78,91,0
2,74,89,0
2,74,91,124
2,71,85,0
2,79,87,0
2,74,89,124
2,79,83,0
2,71,84,0
2,79,83,120
2,71,84,0
2,74,83,4
2,71,82,136
2,74,84,0
2,79,82,0
2,71,82,124
2,74,84,4
2,79,81,0
2,71,80,132
2,74,81,0
2,79,79,0
2,71,71,136
2,74,72,0
2,79,72,0
2,71,80,128
2,74,82,0
2,79,79,0
2,71,82,128
2,74,83,4
2,79,81,0
2,74,87,120
2,79,82,0
2,71,83,0
2,76,86,132
2,71,87,4
2,79,87,0
2,74,91,108
2,71,85,0
2,79,85,0
2,74,81,112
2,71,73,0
2,79,76,0
2,71,81,124
2,74,84,0
2,79,83,0
2,71,83,120
2,74,89,0
2,79,86,0
2,71,81,124
2,79,89,0
2,74,85,0
2,78,87,108
2,74,87,0
2,71,83,0
2,74,86,112
2,71,76,0
2,78,87,0
2,78,90,112
2,74,91,0
2,71,84,0
2,78,89,108
2,74,91,0
2,71,82,0
2,78,90,120
2,71,83,4
2,74,91,0
2,78,90,120
2,74,91,0
2,71,81,0
2,78,85,116
2,74,84,0
2,71,74,0
2,78,90,112
2,71,82,0
2,74,91,0
2,71,81,120
2,78,87,0
2,74,86,4
2,78,88,120
2,71,82,0
2,74,89,4
2,78,95,112
2,71,87,0
2,76,92,4
2,74,91,64
2,71,84,0
2,78,93,0
2,74,85,96
2,78,87,0
2,71,72,0
2,78,85,108
2,74,83,0
2,71,74,0
2,78,90,112
2,74,89,0
2,71,77,0
2,78,88,100
2,74,82,0
2,71,71,0
2,72,83,108
2,79,86,0
2,76,83,0
2,76,86,116
2,79,84,0
2,72,82,0
2,76,87,124
2,79,86,4
2,72,84,0
2,76,85,112
2,79,82,0
2,72,80,0
2,79,82,108
2,76,86,4
2,72,81,0
2,76,87,124
2,79,83,0
2,72,82,0
2,76,78,108
2,79,78,0
2,72,73,0
2,76,75,108
2,79,75,0
2,72,72,0
2,76,79,116
2,79,78,4
2,72,78,0
2,79,82,96
2,72,80,0
2,76,76,0
2,76,68,120
2,72,80,4
2,67,83,0
2,76,85,108
2,72,85,0
2,67,85,0
2,76,84,124
2,72,84,0
2,67,83,0
2,76,82,96
2,72,82,0
2,67,77,0
2,67,84,112
2,76,87,0
2,72,85,0
2,76,83,108
2,72,84,0
2,67,80,0
2,78,89,120
2,74,79,0
2,69,80,0
2,78,88,112
2,69,81,0
2,74,80,0
2,74,81,124
2,78,85,0
2,69,83,4
2,78,89,120
2,74,82,0
2,69,83,0
2,78,87,128
2,69,80,0
2,74,85,0
2,74,89,112
2,69,81,0
2,78,88,0
2,74,86,124
2,69,80,0
2,78,84,0
2,74,87,108
2,78,84,0
2,69,81,0
2,78,89,108
2,69,82,0
2,74,92,4
2,74,91,120
2,78,88,0
2,69,81,0
2,78,84,124
2,71,84,0
2,74,89,4
2,74,92,108
2,78,90,0
2,69,94,0
2,74,94,76
2,78,91,0
2,69,89,0
2,76,84,424
2,71,87,0
2,67,85,0
2,71,82,100
2,67,79,0
2,76,82,0
2,66,85,88
2,74,80,0
2,69,83,0
2,67,87,72
2,76,87,4
2,71,85,0
2,74,85,240
2,69,84,0
2,66,88,0
2,67,91,96
2,71,94,0
2,76,92,0
2,69,86,176
2,66,93,4
2,74,86,0
2,67,92,100
2,71,94,4
2,76,94,0
2,66,90,212
2,74,87,0
2,69,87,4
2,71,104,104
2,76,99,0
2,67,101,0
2,69,104,172
2,83,114,0
2,83,110,88
2,81,98,188
2,79,110,156
2,81,96,176
2,76,96,0
2,83,103,176
2,83,106,108
2,81,101,44
2,79,106,8
2,81,103,32
2,76,106,32
2,84,127,348
2,84,127,112
2,83,110,192
2,81,101,180
2,84,124,180
2,81,110,184
2,79,87,400
2,74,91,0
2,71,86,0
2,71,69,112
2,79,71,0
2,74,75,0
2,71,84,132
2,74,89,0
2,79,86,0
2,71,70,116
2,74,75,0
2,79,76,0
2,71,82,132
2,74,84,4
2,79,82,0
2,74,77,116
2,71,72,0
2,79,73,4
2,71,71,136
2,79,65,4
2,74,76,124
2,79,75,0
2,71,73,0
2,74,79,120
2,71,75,0
2,79,73,4
2,74,74,120
2,71,70,4
2,79,67,0
2,71,83,124
2,79,83,0
2,76,86,0
2,74,85,80
2,71,82,0
2,79,82,0
2,79,71,112
2,74,74,0
2,71,69,0
2,74,83,120
2,71,77,0
2,79,81,0
2,71,79,132
2,74,83,0
2,79,82,0
2,79,80,124
2,74,76,0
2,71,71,0
2,74,86,108
2,71,80,0
2,78,90,0
2,78,79,116
2,71,72,0
2,74,79,0
2,78,78,120
2,71,71,0
2,74,79,0
2,78,71,108
2,71,66,0
2,74,69,0
2,78,70,124
2,74,70,0
2,71,65,0
2,74,70,124
2,71,64,0
2,78,71,0
2,74,72,128
2,78,73,0
2,71,64,0
2,78,76,112
2,74,77,0
2,71,69,0
2,78,77,128
2,74,76,0
2,71,66,0
2,74,75,112
2,78,76,0
2,71,66,0
2,74,71,128
2,78,72,0
2,71,62,0
2,78,77,128
2,74,79,0
2,71,70,0
2,78,72,116
2,74,71,0
2,71,62,0
2,71,66,124
2,74,77,0
2,78,75,0
2,78,73,124
2,74,71,0
2,71,63,0
2,74,75,128
2,78,76,0
2,71,64,0
2,72,86,136
2,76,82,0
2,67,82,0
2,76,78,112
2,72,82,0
2,67,79,0
2,72,76,112
2,76,74,0
2,67,73,0
2,76,71,112
2,72,76,0
2,67,71,0
2,72,78,124
2,67,71,4
2,76,74,0
2,76,69,108
2,67,69,4
2,72,71,0
2,76,72,128
2,72,75,4
2,67,69,0
2,76,73,112
2,72,76,0
2,67,71,0
2,76,70,112
2,72,73,0
2,67,69,4
2,76,73,100
2,72,77,0
2,67,74,0
2,76,69,100
2,72,69,0
2,67,64,0
2,72,75,108
2,76,73,0
2,67,68,0
2,76,73,116
2,72,71,0
2,67,65,0
2,76,72,116
2,72,74,0
2,67,69,0
2,76,71,112
2,72,72,0
2,67,65,4
2,72,76,108
2,76,72,0
2,67,68,0
2,69,78,124
2,78,87,0
2,74,80,4
2,74,76,108
2,69,69,0
2,78,75,0
2,74,71,128
2,78,70,0
2,69,66,0
2,74,72,128
2,78,68,0
2,69,63,0
2,69,75,120
2,78,79,0
2,74,81,4
2,74,69,124
2,69,62,0
2,78,66,0
2,74,77,124
2,78,75,0
2,69,67,0
2,74,71,112
2,78,68,0
2,69,63,0
2,78,80,136
2,74,82,0
2,69,71,0
2,74,79,120
2,78,76,4
2,69,65,0
2,78,81,116
2,74,87,0
2,71,80,0
2,74,86,100
2,78,81,0
2,69,82,0
2,74,61,88
2,69,58,0
2,78,70,0
2,74,77,124
2,78,76,0
2,69,66,0
2,74,69,124
2,78,71,0
2,69,62,0
2,74,71,116
2,78,72,0
2,69,61,0
2,74,79,124
2,79,78,0
2,71,70,0
2,79,75,112
2,74,78,0
2,71,71,0
2,71,77,120
2,74,82,0
2,79,81,0
2,71,71,108
2,74,76,0
2,79,75,4
2,74,84,128
2,71,77,0
2,79,78,0
2,74,77,124
2,79,71,0
2,71,69,4
2,74,80,116
2,71,73,0
2,79,78,0
2,71,73,128
2,74,82,0
2,79,79,4
2,74,81,116
2,79,79,0
2,71,74,4
2,74,81,112
2,79,78,0
2,71,71,0
2,79,78,108
2,74,77,0
2,71,71,4
2,79,79,120
2,74,82,0
2,71,75,0
2,79,79,128
2,71,71,0
2,74,77,0
2,74,80,108
2,79,81,0
2,71,71,4
2,79,82,116
2,71,74,0
2,74,78,0
2,79,82,112
2,74,81,0
2,71,75,0
2,74,82,112
2,71,74,0
2,78,87,0
2,78,87,124
2,74,80,0
2,71,70,0
2,78,88,124
2,74,81,0
2,71,76,0
2,74,74,124
2,71,65,0
2,71,71,128
2,78,79,4
2,74,80,0
2,74,79,120
2,71,67,4
2,78,77,0
2,78,83,124
2,74,84,4
2,71,73,0
2,74,81,112
2,71,69,4
2,78,80,0
2,74,82,140
2,78,81,4
2,71,70,0
2,74,79,108
2,71,69,0
2,78,78,0
2,74,78,128
2,78,78,4
2,71,69,0
2,71,72,128
2,74,82,0
2,78,81,0
2,74,80,128
2,78,80,0
2,71,71,0
2,78,81,116
2,74,79,0
2,71,68,0
2,74,79,100
2,71,69,0
2,78,80,0
2,74,80,116
2,71,67,0
2,78,79,0
2,76,83,120
2,72,81,0
2,67,84,0
2,67,80,100
2,72,78,0
2,76,80,0
2,67,82,124
2,76,82,0
2,72,75,0
2,76,84,108
2,67,82,0
2,72,78,0
2,67,82,124
2,76,83,0
2,72,79,4
2,67,81,108
2,76,82,4
2,72,78,0
2,67,80,112
2,76,83,0
2,72,78,4
2,67,80,112
2,76,83,0
2,72,77,0
2,72,81,112
2,76,85,0
2,67,82,4
2,67,78,124
2,76,81,0
2,72,75,0
2,67,83,120
2,72,75,0
2,76,80,0
2,67,82,120
2,72,77,0
2,76,83,0
2,67,79,112
2,76,78,0
2,72,70,0
2,76,82,112
2,72,75,0
2,67,82,0
2,67,81,124
2,76,82,0
2,72,75,0
2,67,77,112
2,76,82,0
2,72,76,0
2,74,86,124
2,78,82,0
2,69,81,0
2,74,84,128
2,78,78,0
2,69,77,0
2,69,82,128
2,74,83,0
2,78,80,0
2,69,74,112
2,74,78,0
2,78,75,0
2,69,82,124
2,74,85,4
2,78,80,0
2,74,82,112
2,69,77,0
2,78,76,0
2,69,80,120
2,74,82,0
2,78,79,4
2,69,79,112
2,74,82,0
2,78,79,0
2,69,75,124
2,74,83,0
2,78,78,4
2,69,74,108
2,74,83,0
2,78,79,0
2,69,76,112
2,74,82,0
2,78,78,0
2,78,81,112
2,69,76,0
2,74,83,0
2,69,76,108
2,78,82,0
2,74,84,0
2,69,75,112
2,74,82,0
2,78,79,0
2,69,76,120
2,78,84,0
2,74,83,0
2,69,75,120
2,74,80,4
2,78,76,0
2,67,112,516
2,71,101,0
2,76,87,0
2,69,83,128
2,66,95,0
2,74,83,0
2,67,92,88
2,71,89,4
2,76,84,0
2,74,80,176
2,66,89,4
2,69,79,0
2,67,89,112
2,76,84,0
2,71,87,0
2,74,84,156
2,69,83,0
2,66,97,0
2,67,91,100
2,71,86,0
2,76,86,0
2,74,84,136
2,69,85,4
2,66,89,0
2,67,83,108
2,76,79,0
2,71,81,0
2,66,88,88
2,69,75,0
2,74,77,0
2,69,87,108
2,83,114,18964
2,83,110,88
2,81,98,188
2,79,110,156
2,81,96,176
2,76,96,0
2,83,103,176
2,83,106,108
2,81,101,44
2,79,106,8
2,81,103,32
2,76,106,32
2,84,127,348
2,84,127,112
2,83,110,192
2,81,101,180
2,84,124,180
