track,note,velocity,time
1,62,117,96
1,67,117,0
1,59,109,0
1,62,109,38
1,66,117,0
1,59,103,0
1,64,117,58
1,60,106,0
1,67,103,0
1,61,112,72
1,64,109,0
1,67,103,0
1,60,106,0
1,67,112,0
1,62,109,0
1,62,117,1
1,59,109,0
1,67,117,0
1,66,117,65
1,62,117,0
1,59,97,0
1,60,109,66
1,64,112,0
1,67,109,0
1,69,112,7
1,65,103,0
1,60,97,0
1,64,112,4
1,67,106,0
1,60,103,0
1,62,117,50
1,59,109,0
1,67,109,0
1,60,109,2
1,64,109,0
1,55,103,0
1,62,109,1
1,59,100,0
1,55,97,0
1,62,112,2
1,57,100,0
1,66,109,0
1,79,81,64
1,78,88,12
1,74,92,11
1,69,92,2
1,67,97,14
1,66,95,5
1,62,92,6
1,57,92,24
1,62,90,23
1,67,109,2
1,57,100,0
1,62,106,0
1,57,106,16
1,66,112,0
1,60,109,0
1,62,117,5
1,67,117,0
1,59,106,0
1,64,117,3
1,60,109,0
1,67,112,0
1,62,117,7
1,67,109,0
1,59,97,0
1,64,117,6
1,67,106,0
1,60,106,0
1,74,109,6
1,69,109,0
1,65,103,0
1,72,112,23
1,67,106,0
1,64,103,0
1,65,109,2
1,69,109,0
1,60,103,0
1,64,112,2
1,67,106,0
1,60,106,0
1,67,112,3
1,62,117,0
1,59,106,0
1,72,106,0
1,67,106,0
1,64,103,0
1,67,112,21
1,62,106,0
1,71,112,0
1,69,112,7
1,64,109,0
1,60,103,0
1,67,112,1
1,62,117,0
1,59,106,0
1,66,109,3
1,57,109,0
1,62,112,0
1,67,109,2
1,71,109,0
1,62,112,0
1,66,112,19
1,62,106,0
1,69,109,0
1,62,109,5
1,67,109,0
1,59,97,0
1,66,106,22
1,62,109,0
1,57,100,0
1,67,112,64
1,62,117,0
1,59,117,0
1,67,117,6
1,72,112,0
1,64,109,0
1,71,112,10
1,67,109,0
1,62,103,0
1,67,109,1
1,64,117,0
1,60,112,0
1,74,117,2
1,69,112,0
1,65,109,0
1,67,109,1
1,64,109,0
1,72,112,0
1,67,112,84
1,62,117,0
1,59,103,0
1,67,117,8
1,72,112,0
1,64,112,0
1,67,109,2
1,71,112,0
1,62,112,0
1,66,109,3
1,57,109,0
1,62,112,0
1,79,60,87
1,78,66,13
1,74,92,9
1,69,95,24
1,67,100,13
1,66,95,3
1,62,95,8
1,57,92,24
1,62,92,0
1,71,117,1
1,62,112,0
1,67,109,0
1,69,109,18
1,66,112,0
1,62,109,0
1,67,112,75
1,62,117,0
1,59,109,0
1,72,109,6
1,67,117,0
1,64,117,0
1,67,112,0
1,71,109,0
1,62,112,0
1,67,112,3
1,60,117,0
1,64,117,0
1,65,109,3
1,74,117,0
1,69,112,0
1,64,112,24
1,67,117,0
1,72,117,0
1,67,117,1
1,62,117,0
1,59,112,0
1,72,109,95
1,67,112,0
1,64,109,0
1,67,112,20
1,62,112,0
1,71,109,0
1,62,112,88
1,66,112,0
1,57,109,0
1,64,117,1
1,59,112,0
1,67,106,0
1,66,117,0
1,62,117,0
1,69,109,0
1,59,112,0
1,62,117,0
1,67,112,0
1,71,117,86
1,66,112,0
1,62,112,0
1,66,117,55
1,69,106,0
1,62,112,0
1,67,109,76
1,60,112,0
1,64,117,0
1,61,117,60
1,64,112,0
1,67,106,0
1,67,117,0
1,60,112,0
1,62,112,0
1,62,117,1
1,59,109,0
1,67,117,0
1,66,117,65
1,62,117,0
1,59,97,0
1,60,109,66
1,64,112,0
1,67,109,0
1,69,112,7
1,65,103,0
1,60,97,0
1,64,112,4
1,67,106,0
1,60,103,0
1,62,117,50
1,59,109,0
1,67,109,0
1,60,109,2
1,64,109,0
1,55,103,0
1,62,109,1
1,59,100,0
1,55,97,0
1,62,112,2
1,57,100,0
1,66,109,0
1,79,81,64
1,78,88,12
1,74,92,11
1,69,92,2
1,67,97,14
1,66,95,5
1,62,92,6
1,57,92,24
1,62,90,23
1,67,109,2
1,57,100,0
1,62,106,0
1,57,106,16
1,66,112,0
1,60,109,0
1,62,117,5
1,67,117,0
1,59,106,0
1,64,117,3
1,60,109,0
1,67,112,0
1,62,117,7
1,67,109,0
1,59,97,0
1,64,117,6
1,67,106,0
1,60,106,0
1,74,109,6
1,69,109,0
1,65,103,0
1,72,112,23
1,67,106,0
1,64,103,0
1,65,109,2
1,69,109,0
1,60,103,0
1,64,112,2
1,67,106,0
1,60,106,0
1,67,112,3
1,62,117,0
1,59,106,0
1,72,106,0
1,67,106,0
1,64,103,0
1,67,112,21
1,62,106,0
1,71,112,0
1,69,112,7
1,64,109,0
1,60,103,0
1,67,112,1
1,62,117,0
1,59,106,0
1,66,109,3
1,57,109,0
1,62,112,0
1,67,109,2
1,71,109,0
1,62,112,0
1,66,112,19
1,62,106,0
1,69,109,0
1,62,109,5
1,67,109,0
1,59,97,0
1,66,106,22
1,62,109,0
1,57,100,0
1,67,112,64
1,62,117,0
1,59,117,0
1,67,117,6
1,72,112,0
1,64,109,0
1,71,112,10
1,67,109,0
1,62,103,0
1,67,109,1
1,64,117,0
1,60,112,0
1,74,117,2
1,69,112,0
1,65,109,0
1,67,109,1
1,64,109,0
1,72,112,0
1,67,112,84
1,62,117,0
1,59,103,0
1,67,117,8
1,72,112,0
1,64,112,0
1,67,109,2
1,71,112,0
1,62,112,0
1,62,112,3
1,66,112,0
1,57,109,0
1,64,117,1
1,59,112,0
1,67,106,0
1,66,117,0
1,62,117,0
1,69,109,0
1,59,112,0
1,62,117,0
1,67,112,0
1,67,112,86
1,71,109,0
1,62,112,0
1,67,112,3
1,60,117,0
1,64,117,0
1,65,109,3
1,74,117,0
1,69,112,0
1,64,112,24
1,67,117,0
1,72,117,0
1,67,117,1
1,62,117,0
1,59,112,0
1,72,109,95
1,67,112,0
1,64,109,0
1,67,112,20
1,62,112,0
1,71,109,0
1,62,112,88
1,66,112,0
1,57,109,0
1,64,117,1
1,59,112,0
1,67,106,0
1,66,117,0
1,62,117,0
1,69,109,0
1,59,112,0
1,62,117,0
1,67,112,0
1,71,117,86
1,66,112,0
1,62,112,0
1,66,117,55
1,69,106,0
1,62,112,0
1,67,109,76
1,60,112,0
1,64,117,0
1,61,117,60
1,64,112,0
1,67,106,0
1,67,117,0
1,60,112,0
1,62,112,0
1,62,117,1
1,67,112,0
1,59,100,0
1,66,106,171
1,74,112,0
1,71,106,0
1,66,109,58
1,69,117,0
1,74,117,0
1,67,117,1
1,72,117,0
1,64,109,0
1,72,117,56
1,64,112,0
1,67,117,0
1,65,117,60
1,69,109,0
1,60,112,0
1,67,112,0
1,64,117,0
1,60,109,0
1,67,117,5
1,71,109,0
1,62,117,0
1,74,112,72
1,69,117,0
1,71,97,21
1,67,106,20
1,69,112,2
1,60,117,0
1,65,109,0
1,72,106,73
1,67,117,0
1,69,100,17
1,65,103,20
1,65,117,3
1,69,117,0
1,60,117,0
1,60,109,29
1,65,103,24
1,69,106,24
1,62,103,30
1,70,112,0
1,65,106,0
1,62,109,14
1,65,103,24
1,70,112,14
1,58,106,1
1,67,106,0
1,63,97,0
1,58,109,0
1,63,109,0
1,55,109,0
1,65,103,3
1,62,109,0
1,58,106,0
1,63,109,67
1,67,109,0
1,58,112,0
1,65,117,2
1,60,117,0
1,68,117,0
1,67,112,3
1,63,117,0
1,60,112,0
1,62,112,3
1,59,117,0
1,65,112,0
1,63,117,74
1,67,112,0
1,60,109,0
1,67,117,51
1,62,117,0
1,60,112,0
1,60,112,2
1,67,117,0
1,63,117,0
1,63,117,7
1,60,109,0
1,67,112,0
1,60,112,4
1,56,106,0
1,65,109,0
1,63,117,64
1,56,100,0
1,60,112,0
1,60,117,1
1,62,117,0
1,67,109,0
1,67,117,78
1,71,117,0
1,62,112,0
1,66,117,5
1,62,112,0
1,69,112,0
1,67,109,0
1,64,117,0
1,60,112,0
1,74,117,2
1,69,112,0
1,65,109,0
1,67,109,1
1,64,109,0
1,72,112,0
1,67,112,84
1,62,117,0
1,59,103,0
1,67,117,8
1,72,112,0
1,64,112,0
1,67,109,2
1,71,112,0
1,62,112,0
1,66,109,3
1,57,109,0
1,62,112,0
1,79,60,87
1,78,66,13
1,74,92,9
1,69,95,24
1,67,100,13
1,66,95,3
1,62,95,8
1,57,92,24
1,62,92,0
1,71,117,1
1,62,112,0
1,67,109,0
1,69,109,18
1,66,112,0
1,62,109,0
1,67,112,75
1,62,117,0
1,59,109,0
1,72,109,6
1,67,117,0
1,64,117,0
1,67,112,0
1,71,109,0
1,62,112,0
1,64,117,3
1,60,117,0
1,67,109,0
1,77,117,157
1,72,112,0
1,69,106,0
1,76,112,30
1,72,112,0
1,67,106,0
1,77,112,39
1,72,117,0
1,69,109,0
1,72,117,18
1,67,109,0
1,76,109,0
1,67,112,4
1,62,117,0
1,59,100,0
1,72,117,89
1,67,106,0
1,76,109,0
1,71,109,31
1,74,103,0
1,67,100,0
1,72,117,50
1,67,103,0
1,76,103,0
1,74,117,3
1,67,97,0
1,71,109,0
1,66,112,5
1,57,109,0
1,62,117,0
1,79,64,81
1,78,75,14
1,74,92,10
1,69,92,24
1,67,103,14
1,66,95,3
1,62,95,5
1,67,117,3
1,64,117,0
1,59,109,0
1,62,117,0
1,69,117,0
1,66,117,0
1,59,112,1
1,62,117,0
1,67,109,0
1,66,112,90
1,62,109,0
1,59,97,0
1,66,117,117
1,62,109,0
1,69,109,0
1,67,112,64
1,64,117,0
1,60,112,0
1,64,112,0
1,67,109,0
1,60,109,0
1,67,117,8
1,64,109,0
1,72,109,0
1,72,117,70
1,67,109,0
1,76,112,0
1,59,112,8
1,62,117,0
1,67,109,0
1,66,112,90
1,62,109,0
1,59,97,0
1,66,117,117
1,62,109,0
1,69,109,0
1,67,112,64
1,64,117,0
1,60,112,0
1,64,112,0
1,67,109,0
1,60,109,0
1,67,117,8
1,64,109,0
1,72,109,0
1,72,117,70
1,67,109,0
1,76,112,0
1,59,112,8
1,62,117,0
1,67,109,0
1,66,112,90
1,62,109,0
1,59,97,0
1,66,117,117
1,62,109,0
1,69,109,0
1,67,112,64
1,64,117,0
1,60,112,0
1,64,112,0
1,67,109,0
1,60,109,0
1,67,117,8
1,64,109,0
1,72,109,0
1,72,117,70
1,67,109,0
1,76,112,0
1,59,112,8
1,62,117,0
1,67,109,0
1,66,112,90
1,62,109,0
1,59,97,0
1,66,117,117
1,62,109,0
1,69,109,0
1,67,112,64
1,64,117,0
1,60,112,0
1,64,112,0
1,67,109,0
1,60,109,0
1,67,117,8
1,64,109,0
1,72,109,0
1,72,117,70
1,67,109,0
1,76,112,0
1,62,117,8
1,59,117,0
1,67,112,0
2,31,104,96
2,31,104,13
2,33,104,168
2,35,104,22
2,35,104,20
2,31,104,9
2,33,99,12
2,35,99,8
2,36,99,13
2,36,104,17
2,37,104,2
2,38,104,192
2,31,99,5
2,33,104,168
2,35,104,2
2,36,99,1
2,36,104,22
2,31,99,144
2,33,99,19
2,36,104,22
2,36,104,20
2,31,104,7
2,31,104,26
2,31,104,15
2,31,104,34
2,35,98,15
2,36,104,8
2,38,104,4
2,38,104,23
2,31,104,1
2,33,93,8
2,38,99,8
2,38,104,16
2,31,104,7
2,31,104,15
2,38,96,3
2,40,99,1
2,43,99,24
2,35,104,0
2,35,104,11
2,36,104,5
2,36,99,25
2,31,99,144
2,33,99,20
2,36,104,1
2,36,104,20
2,40,99,3
2,43,104,7
2,45,90,6
2,43,104,3
2,43,104,3
2,38,99,168
2,31,104,23
2,31,104,18
2,31,104,23
2,35,99,144
2,36,104,8
2,38,104,0
2,38,104,22
2,38,104,18
2,38,104,18
2,35,104,144
2,33,96,3
2,31,104,0
2,31,104,16
2,31,99,22
2,31,104,22
2,35,104,0
2,36,104,6
2,36,104,25
2,36,99,22
2,36,104,32
2,35,104,144
2,33,93,7
2,31,104,0
2,31,104,24
2,36,99,0
2,40,90,7
2,43,96,2
2,43,96,12
2,40,87,6
2,38,96,1
2,35,93,2
2,33,90,5
2,31,99,1
2,33,104,1
2,31,104,7
2,38,99,0
2,38,104,24
2,33,99,144
2,35,104,19
2,38,104,3
2,38,104,32
2,35,99,144
2,33,96,3
2,31,104,0
2,31,104,26
2,31,104,21
2,35,104,3
2,47,104,48
2,35,99,1
2,38,104,3
2,50,104,48
2,38,104,6
2,36,104,0
2,36,104,26
2,38,104,3
2,40,104,0
2,43,96,24
2,40,84,1
2,43,99,2
2,43,90,10
2,45,87,3
2,48,99,24
2,48,90,21
2,50,90,2
2,48,99,24
2,43,104,18
2,40,104,1
2,43,104,0
2,43,104,24
2,38,99,144
2,40,99,2
2,31,104,2
2,31,104,28
2,35,99,144
2,36,104,21
2,38,104,0
2,38,104,34
2,28,104,96
2,30,99,93
2,30,99,26
2,42,104,0
2,31,99,3
2,43,104,6
2,31,53,7
2,43,99,18
2,31,49,6
2,43,104,18
2,31,99,5
2,31,104,14
2,35,104,9
2,35,104,21
2,33,96,144
2,35,104,20
2,36,96,1
2,36,104,28
2,37,104,1
2,38,104,2
2,35,104,144
2,33,104,23
2,31,99,0
2,33,104,168
2,35,104,2
2,36,99,1
2,36,104,22
2,31,99,144
2,33,99,19
2,36,104,22
2,36,104,20
2,31,104,7
2,31,104,26
2,31,104,15
2,31,104,34
2,35,98,15
2,36,104,8
2,38,104,4
2,38,104,23
2,31,104,1
2,33,93,8
2,38,99,8
2,38,104,16
2,31,104,7
2,31,104,15
2,38,96,3
2,40,99,1
2,43,99,24
2,35,104,0
2,35,104,11
2,36,104,5
2,36,99,25
2,31,99,144
2,33,99,20
2,36,104,1
2,36,104,20
2,40,99,3
2,43,104,7
2,45,90,6
2,43,104,3
2,43,104,3
2,38,99,168
2,31,104,23
2,31,104,18
2,31,104,23
2,35,99,144
2,36,104,8
2,38,104,0
2,38,104,22
2,38,104,18
2,38,104,18
2,35,104,144
2,33,96,3
2,31,104,0
2,31,104,16
2,31,99,22
2,31,104,22
2,35,104,0
2,36,104,6
2,36,104,25
2,36,99,22
2,36,104,32
2,35,104,144
2,33,93,7
2,31,104,0
2,31,104,24
2,36,99,0
2,40,90,7
2,43,96,2
2,43,96,12
2,40,87,6
2,38,96,1
2,35,93,2
2,33,90,5
2,31,99,1
2,33,104,1
2,31,104,7
2,38,104,0
2,38,104,34
2,28,104,96
2,30,99,93
2,30,99,26
2,42,104,0
2,31,99,3
2,43,104,6
2,31,53,7
2,43,99,18
2,31,49,6
2,43,104,18
2,31,99,5
2,31,104,14
2,31,104,9
2,35,104,3
2,47,104,48
2,35,99,1
2,38,104,3
2,50,104,48
2,38,104,6
2,36,104,0
2,36,104,26
2,38,104,3
2,40,104,0
2,43,96,24
2,40,84,1
2,43,99,2
2,43,90,10
2,45,87,3
2,48,99,24
2,48,90,21
2,50,90,2
2,48,99,24
2,43,104,18
2,40,104,1
2,43,104,0
2,43,104,24
2,38,99,144
2,40,99,2
2,31,104,2
2,31,104,28
2,35,99,144
2,36,104,21
2,38,104,0
2,38,104,34
2,28,104,96
2,30,99,93
2,30,99,26
2,42,104,0
2,31,99,3
2,43,104,6
2,31,53,7
2,43,99,18
2,31,49,6
2,43,104,18
2,31,99,5
2,31,104,14
2,35,104,9
2,35,104,21
2,33,96,144
2,35,104,20
2,36,96,1
2,36,104,28
2,37,104,1
2,38,104,2
2,35,104,144
2,33,104,23
2,31,104,0
2,43,104,2
2,31,96,1
2,47,104,8
2,31,68,5
2,47,96,15
2,45,93,24
2,43,82,18
2,38,90,2
2,40,84,4
2,38,90,1
2,36,104,5
2,35,104,0
2,35,104,26
2,33,96,2
2,35,104,0
2,36,104,0
2,36,104,26
2,36,104,22
2,36,104,30
2,31,99,144
2,33,104,0
2,36,104,0
2,36,104,20
2,38,99,6
2,40,84,0
2,38,99,3
2,35,104,0
2,35,104,33
2,47,104,72
2,35,57,7
2,47,104,18
2,35,96,6
2,47,104,7
2,33,104,5
2,33,104,19
2,33,104,25
2,34,99,2
2,39,104,8
2,39,104,24
