track,note,velocity,time
1,54,88,284
1,50,75,0
1,57,75,0
1,54,71,3
1,57,79,0
1,50,71,0
1,57,75,14
1,54,75,0
1,50,71,0
1,59,88,9
1,55,88,0
1,50,79,0
1,55,88,1
1,59,88,9
1,60,97,18
1,55,79,0
1,52,75,0
1,60,88,17
1,55,88,0
1,52,88,0
1,60,79,3
1,55,88,0
1,52,88,0
1,60,88,22
1,55,88,0
1,52,79,0
1,59,79,12
1,55,97,0
1,50,88,0
1,57,88,96
1,57,88,12
1,50,88,0
1,54,97,0
1,57,88,6
1,54,97,0
1,50,88,0
1,57,88,4
1,54,79,0
1,50,75,0
1,55,97,10
1,50,88,0
1,59,88,0
1,55,88,18
1,57,79,21
1,59,79,24
1,55,88,8
1,52,79,0
1,60,79,0
1,60,75,7
1,52,88,0
1,55,88,0
1,60,88,6
1,52,79,0
1,55,79,0
1,60,79,13
1,55,88,0
1,52,79,0
1,55,88,9
1,59,88,0
1,50,88,0
1,62,88,11
1,55,88,0
1,57,75,24
1,57,79,1
1,54,88,0
1,50,79,0
1,50,75,7
1,57,79,9
1,54,79,14
1,57,88,0
1,50,75,0
1,50,88,8
1,55,106,0
1,59,97,0
1,57,88,8
1,50,79,0
1,54,106,0
1,50,97,18
1,57,97,20
1,50,88,12
1,59,97,0
1,55,97,0
1,60,97,8
1,50,88,0
1,55,97,0
1,59,97,5
1,50,88,0
1,55,88,0
1,60,79,9
1,55,88,0
1,52,79,0
1,52,75,0
1,55,79,24
1,52,88,3
1,60,88,0
1,52,97,6
1,60,97,0
1,52,79,23
1,55,88,5
1,60,97,24
1,55,88,11
1,59,79,0
1,50,88,0
1,57,97,10
1,55,106,0
1,50,79,0
1,54,106,11
1,50,88,0
1,57,97,0
1,50,88,21
1,55,97,0
1,59,97,0
1,57,79,1
1,54,88,0
1,50,79,0
1,50,75,7
1,57,79,9
1,54,79,14
1,57,88,0
1,50,75,0
1,50,88,7
1,55,106,0
1,59,97,0
1,57,88,8
1,50,79,0
1,54,106,0
1,50,97,18
1,57,97,15
1,50,88,12
1,59,97,0
1,55,97,0
1,60,97,8
1,50,88,0
1,55,97,0
1,59,97,5
1,50,88,0
1,55,88,0
1,60,79,9
1,55,88,0
1,52,79,0
1,52,75,0
1,55,79,24
1,52,88,3
1,60,88,0
1,52,97,6
1,60,97,0
1,52,79,23
1,55,88,5
1,60,97,24
1,62,97,1
1,57,88,0
1,59,71,5
1,57,97,14
1,55,88,4
1,62,79,10
1,54,106,0
1,57,88,0
1,54,88,6
1,57,79,9
1,64,88,10
1,60,97,0
1,55,97,0
1,62,97,13
1,59,97,0
1,55,88,0
1,62,88,26
1,66,79,0
1,57,75,0
1,69,75,0
1,69,88,12
1,64,88,0
1,61,88,0
1,57,79,0
1,54,75,12
1,62,88,0
1,59,79,0
1,64,79,1
1,55,75,0
1,60,88,0
1,62,88,7
1,66,79,0
1,57,79,0
1,64,79,5
1,68,79,0
1,59,71,0
1,64,88,14
1,60,79,0
1,55,79,0
1,55,79,9
1,62,75,0
1,59,79,0
1,57,88,25
1,62,88,0
1,54,79,0
1,50,97,72
1,54,88,17
1,57,88,12
1,62,88,47
1,50,97,9
1,54,97,37
1,62,88,25
1,57,75,8
1,54,88,24
1,57,79,4597
1,54,88,0
1,50,79,0
1,50,75,7
1,57,79,9
1,54,79,14
1,57,88,0
1,50,75,0
1,50,88,8
1,55,106,0
1,59,97,0
1,57,88,8
1,50,79,0
1,54,106,0
1,50,97,18
1,57,97,20
1,50,88,12
1,59,97,0
1,55,97,0
1,60,97,8
1,50,88,0
1,55,97,0
1,59,97,5
1,50,88,0
1,55,88,0
1,60,79,9
1,55,88,0
1,52,79,0
1,52,75,0
1,55,79,24
1,52,88,3
1,60,88,0
1,52,97,6
1,60,97,0
1,52,79,23
1,55,88,5
1,60,97,24
1,55,88,11
1,59,79,0
1,50,88,0
1,57,97,10
1,55,106,0
1,50,79,0
1,54,106,11
1,50,88,0
1,57,97,0
1,50,88,21
1,55,97,0
1,59,97,0
1,57,79,1
1,54,88,0
1,50,79,0
1,50,75,7
1,57,79,9
1,54,79,14
1,57,88,0
1,50,75,0
1,50,88,7
1,55,106,0
1,59,97,0
1,57,88,8
1,50,79,0
1,54,106,0
1,50,97,18
1,57,97,15
1,50,88,12
1,59,97,0
1,55,97,0
1,60,97,8
1,50,88,0
1,55,97,0
1,59,97,5
1,50,88,0
1,55,88,0
1,60,79,9
1,55,88,0
1,52,79,0
1,52,75,0
1,55,79,24
1,52,88,3
1,60,88,0
1,52,97,6
1,60,97,0
1,52,79,23
1,55,88,5
1,60,97,24
1,62,97,1
1,57,88,0
1,59,71,5
1,57,97,14
1,55,88,4
1,62,79,10
1,54,106,0
1,57,88,0
1,54,88,6
1,57,79,9
1,64,88,10
1,60,97,0
1,55,97,0
1,62,97,13
1,59,97,0
1,55,88,0
1,62,88,26
1,66,79,0
1,57,75,0
1,69,75,0
1,69,88,12
1,64,88,0
1,61,88,0
1,57,79,0
1,54,75,12
1,62,88,0
1,59,79,0
1,64,79,1
1,55,75,0
1,60,88,0
1,62,88,7
1,66,79,0
1,57,79,0
1,64,79,5
1,68,79,0
1,59,71,0
1,64,88,14
1,60,79,0
1,55,79,0
1,55,79,9
1,62,75,0
1,59,79,0
1,57,88,25
1,62,88,0
1,54,79,0
1,50,97,72
1,54,88,17
1,57,88,12
1,62,88,47
1,50,97,9
1,54,97,37
1,62,88,25
1,57,75,8
1,54,88,24
1,57,75,4597
1,62,79,0
1,65,88,0
1,57,67,7
1,62,79,4
1,65,79,23
1,55,59,26
1,59,67,0
1,62,67,0
1,59,71,16
1,55,79,0
1,62,79,17
1,64,71,32
1,55,71,0
1,60,75,0
1,55,71,1
1,60,79,0
1,64,71,18
1,67,88,20
1,60,75,48
1,64,79,48
1,55,75,48
1,57,71,0
1,62,79,0
1,65,75,0
1,57,75,6
1,62,88,14
1,65,75,17
1,62,79,5
1,57,71,11
1,62,79,28
1,65,79,17
1,63,75,59
1,66,75,0
1,59,59,0
1,57,67,0
1,57,75,2
1,59,79,0
1,63,97,29
1,59,79,54
1,64,88,0
1,68,75,0
1,59,79,10
1,64,75,16
1,68,97,24
1,64,79,48
1,59,75,13
1,68,97,36
2,38,71,279
2,31,84,9
2,33,84,13
2,35,75,6
2,36,84,9
2,36,75,15
2,31,75,9
2,38,84,13
2,31,84,11
2,36,93,11
2,28,75,18
2,30,84,17
2,31,75,9
2,38,75,20
2,38,71,22
2,38,84,17
2,33,71,17
2,38,75,14
2,38,71,17
2,31,93,15
2,36,84,16
2,36,84,21
2,36,67,22
2,35,93,14
2,35,71,18
2,38,93,10
2,30,84,16
2,33,75,13
2,38,93,8
2,38,84,26
2,38,84,14
2,38,84,11
2,38,75,18
2,31,75,10
2,36,75,22
2,31,84,16
2,36,84,14
2,35,84,23
2,35,75,21
2,38,84,11
2,31,93,20
2,31,93,20
2,31,93,15
2,31,84,12
2,33,84,18
2,33,84,16
2,33,84,25
2,33,84,15
2,35,102,22
2,36,75,10
2,38,84,13
2,28,84,9
2,36,93,15
2,35,84,14
2,38,84,18
2,38,93,14
2,35,84,7
2,33,84,9
2,30,75,8
2,28,93,6
2,28,75,17
2,29,93,12
2,34,93,9
2,36,84,18
2,36,84,18
2,35,84,11
2,32,84,9
2,29,93,14
2,29,93,19
2,28,84,6
2,29,84,9
2,34,93,10
2,36,75,14
2,36,84,17
2,31,84,14
2,35,84,11
2,35,75,17
2,32,84,9
2,29,84,20
2,31,83,12
2,33,93,12
2,33,84,20
2,31,93,7
2,29,84,13
2,31,84,22
2,33,84,10
2,33,91,12
2,31,91,18
2,38,75,0
2,38,71,22
2,38,84,17
2,33,71,17
2,38,75,14
2,38,71,17
2,31,93,15
2,36,84,16
2,36,84,21
2,36,67,22
2,35,93,14
2,35,71,18
2,38,93,10
2,30,84,16
2,33,75,13
2,38,93,8
2,38,84,26
2,38,84,14
2,38,84,11
2,38,75,18
2,31,75,10
2,36,75,22
2,31,84,16
2,36,84,14
2,35,84,23
2,35,75,21
2,38,84,11
2,31,93,20
2,31,93,20
2,31,93,15
2,31,84,12
2,33,84,18
2,33,84,16
2,33,84,25
2,33,84,15
2,35,102,22
2,36,75,10
2,38,84,13
2,28,84,9
2,36,93,15
2,35,84,14
2,38,84,18
2,38,93,14
2,35,84,7
2,33,84,9
2,30,75,8
2,28,93,6
2,28,75,17
2,29,93,12
2,34,93,9
2,36,84,18
2,36,84,18
2,35,84,11
2,32,84,9
2,29,93,14
2,29,93,19
2,28,84,6
2,29,84,9
2,34,93,10
2,36,75,14
2,36,84,17
2,31,84,14
2,35,84,11
2,35,75,17
2,32,84,9
2,29,84,20
2,31,83,12
2,33,84,12
2,33,84,28
2,33,67,7
2,33,84,25
2,31,84,6
2,29,75,15
2,31,84,19
2,33,84,18
2,33,75,22
2,40,75,7
2,45,84,9
2,33,75,2
2,38,84,1
2,31,75,17
2,36,75,17
2,33,71,19
2,38,84,11
2,33,71,16
2,35,84,11
2,28,84,12
2,32,63,10
2,33,75,11
2,29,84,10
2,29,63,16
2,34,83,11
2,36,81,11
2,31,75,22
2,36,84,9
2,31,75,15
2,35,84,9
2,38,75,10
2,32,75,19
2,28,84,14
2,29,84,15
2,29,75,18
2,29,93,15
2,41,75,96
2,28,84,1
2,29,84,5
2,31,75,10
2,29,71,4
2,34,84,6
2,34,71,18
2,36,84,10
2,31,75,22
2,36,75,7
2,31,75,13
2,35,84,9
2,35,75,25
2,32,84,8
2,32,84,23
2,29,83,12
2,31,93,28
2,33,83,9
2,31,81,19
2,29,83,16
2,31,83,18
2,33,75,22
2,29,84,10
2,29,63,16
2,34,83,11
2,36,81,11
2,31,75,22
2,36,84,9
2,31,75,15
2,35,84,9
2,38,75,3
2,32,75,4
2,28,84,14
2,29,84,15
2,29,75,18
2,29,93,15
2,41,75,96
2,28,84,1
2,29,84,5
2,31,75,10
2,29,71,4
2,34,84,6
2,34,71,18
2,36,84,10
2,31,75,22
2,36,75,7
2,31,75,13
2,35,84,9
2,35,75,25
2,32,84,8
2,32,84,23
2,29,83,12
2,31,93,12
2,33,84,10
2,33,84,17
2,33,84,13
2,33,75,13
2,31,84,12
2,31,93,13
2,29,93,11
2,29,75,18
2,31,93,10
2,31,84,23
2,33,84,11
2,33,84,22
2,33,84,19
2,31,84,7
2,31,84,14
2,29,93,9
2,33,84,3
2,36,75,8
2,38,75,9
2,31,84,2
2,35,84,4
2,38,75,10
2,40,85,10
2,38,84,24
2,35,93,8
2,33,84,12
2,33,93,26
2,33,75,19
2,31,84,9
2,31,84,15
2,29,84,10
2,29,75,21
2,31,84,8
2,31,75,13
2,33,84,9
2,33,75,23
2,33,75,21
2,31,75,10
2,31,84,15
2,29,84,8
2,29,67,21
2,31,75,10
2,33,75,20
3,57,65,7018
3,61,69,23
3,64,78,24
3,61,57,17
3,57,69,21
3,57,69,5
3,62,69,24
3,65,78,24
3,62,65,15
3,57,69,21
3,56,69,11
3,62,78,24
3,65,78,24
3,62,65,15
3,56,69,12
3,55,69,8
3,60,69,24
3,64,69,24
3,60,69,16
3,55,69,5
3,55,69,3
3,60,65,24
3,64,78,24
3,60,61,33
3,55,69,21
3,53,69,12
3,59,61,24
3,62,69,24
3,59,78,15
3,53,69,15
3,56,69,5
3,62,78,24
3,64,69,24
3,62,69,46
3,59,69,24
3,57,78,16
3,60,65,24
3,65,69,24
3,60,65,23
3,57,61,11
3,57,69,26
3,60,69,3
3,65,69,24
3,60,69,35
3,57,69,13
3,57,78,15
3,61,65,24
3,64,78,24
3,61,69,1
3,57,78,24
3,57,69,2
3,62,78,24
3,65,78,24
3,62,65,43
3,57,78,21
3,56,65,1
3,62,57,24
3,65,78,24
3,62,61,40
3,56,69,21
3,55,61,15
3,60,69,22
3,64,69,24
3,60,57,11
3,55,65,13
3,55,65,19
3,60,65,3
3,64,78,24
3,60,69,32
3,55,65,13
3,53,78,12
3,59,65,24
3,62,78,24
3,59,69,5
3,53,53,24
3,56,57,18
3,62,65,24
3,64,69,24
3,62,69,41
3,59,61,24
3,57,69,17
3,60,65,24
3,65,69,24
3,60,69,21
3,57,69,21
3,59,69,12
3,62,61,24
3,67,61,24
3,62,65,34
3,59,69,18
3,57,78,6
3,60,69,24
3,64,78,9
3,60,61,43
3,57,61,24
3,57,69,12
3,60,65,24
3,57,57,19
3,60,69,20
3,59,69,8
3,55,61,1
3,59,78,1
3,57,65,8
3,60,57,24
3,65,69,24
3,60,65,39
3,57,61,18
3,59,57,12
3,62,65,24
3,67,65,24
3,62,69,23
3,59,78,13
3,57,78,16
3,60,69,24
3,64,69,24
3,60,78,7
3,57,78,24
3,57,69,4
3,60,69,10
3,64,78,24
3,62,69,12
3,59,69,0
3,55,69,0
3,57,65,5208
3,61,69,24
3,64,78,24
3,61,57,17
3,57,69,21
3,57,69,5
3,62,69,24
3,65,78,24
3,62,65,15
3,57,69,21
3,56,69,11
3,62,78,24
3,65,78,24
3,62,65,15
3,56,69,12
3,55,69,8
3,60,69,24
3,64,69,24
3,60,69,16
3,55,69,5
3,55,69,3
3,60,65,24
3,64,78,24
3,60,61,33
3,55,69,21
3,53,69,12
3,59,61,24
3,62,69,24
3,59,78,15
3,53,69,15
3,56,69,5
3,62,78,24
3,64,69,24
3,62,69,46
3,59,69,24
3,57,78,16
3,60,65,24
3,65,69,24
3,60,65,23
3,57,61,11
3,57,69,26
3,60,69,3
3,65,69,24
3,60,69,35
3,57,69,13
3,57,78,15
3,61,65,24
3,64,78,24
3,61,69,1
3,57,78,24
3,57,69,2
3,62,78,24
3,65,78,24
3,62,65,43
3,57,78,21
3,56,65,1
3,62,57,24
3,65,78,24
3,62,61,40
3,56,69,21
3,55,61,15
3,60,69,22
3,64,69,24
3,60,57,11
3,55,65,13
3,55,65,19
3,60,65,3
3,64,78,24
3,60,69,32
3,55,65,13
3,53,78,12
3,59,65,24
3,62,78,24
3,59,69,5
3,53,53,24
3,56,57,18
3,62,65,24
3,64,69,24
3,62,69,41
3,59,61,24
3,57,69,17
3,60,65,24
3,65,69,24
3,60,69,21
3,57,69,21
3,59,69,12
3,62,61,24
3,67,61,24
3,62,65,34
3,59,69,18
3,57,78,6
3,60,69,24
3,64,78,9
3,60,61,43
3,57,61,24
3,57,69,12
3,60,65,24
3,57,57,19
3,60,69,20
3,59,69,8
3,55,61,1
3,59,78,1
3,57,65,8
3,60,57,24
3,65,69,24
3,60,65,39
3,57,61,18
3,59,57,12
3,62,65,24
3,67,65,24
3,62,69,23
3,59,78,13
3,57,61,16
3,60,65,24
3,64,65,24
3,60,65,17
3,57,61,15
3,57,65,20
3,60,69,15
3,64,69,24
3,60,65,17
3,57,61,19
3,64,61,1469
3,64,78,11
3,64,78,9
3,64,78,9
3,64,78,10
3,64,78,10
3,62,78,6
3,62,78,16
3,61,96,4
3,57,69,3
3,61,78,0
3,64,69,23
3,69,78,5
3,64,69,23
3,61,78,1
3,57,69,1
3,62,87,2
3,64,78,26
3,65,61,22
3,67,78,6
3,67,65,9
3,65,78,4
3,64,65,0
3,65,87,3
3,64,78,0
3,62,96,13
3,60,69,1
3,58,69,4
3,60,78,4
3,58,87,2
3,57,78,3
3,53,78,6
3,53,69,11
3,55,87,9
3,55,69,12
3,54,69,18
3,53,78,0
3,52,69,7
3,55,87,14
3,60,78,4
3,67,78,10
3,64,78,3
3,67,87,10
3,72,87,6
3,71,41,8
3,72,78,0
3,71,61,1
3,69,78,5
3,71,87,8
3,69,96,5
3,68,96,3
3,64,69,2
3,68,87,4
3,71,78,4
3,76,78,12
3,76,96,9
3,74,96,6
3,74,87,13
3,72,69,9
3,74,57,2
3,72,49,0
3,71,69,4
3,72,87,2
3,69,87,2
3,69,87,7
3,69,78,7
3,69,87,10
3,69,53,17
3,73,57,1
3,73,69,14
3,69,65,0
3,73,78,9
3,69,69,1
3,73,87,11
3,69,69,0
3,74,61,18
3,71,45,1
