track,note,velocity,time
1,49,88,668
1,56,88,0
1,65,88,0
1,56,89,1
1,65,113,1
1,61,113,47
1,56,113,47
1,53,88,95
1,60,88,0
1,65,88,0
1,56,89,140
1,60,113,1
1,56,113,47
1,53,113,1
1,54,88,95
1,58,88,0
1,61,88,0
1,54,89,1
1,61,113,1
1,61,104,1
1,61,104,1
1,54,113,96
1,56,113,44
1,58,113,1
1,61,113,95
1,49,88,143
1,56,88,0
1,65,88,0
1,56,89,1
1,65,113,1
1,61,113,47
1,56,113,47
1,53,88,95
1,60,88,0
1,65,88,0
1,56,89,140
1,60,113,1
1,56,113,47
1,53,113,1
1,54,88,95
1,58,88,0
1,61,88,0
1,54,89,1
1,61,113,1
1,61,104,1
1,61,104,1
1,54,113,96
1,56,113,44
1,58,113,1
1,61,113,95
1,56,88,143
1,53,88,0
1,56,73,1
1,53,73,0
1,53,73,1
1,56,73,0
1,54,88,144
1,58,88,0
1,61,88,0
1,61,73,1
1,58,73,0
1,61,73,1
1,58,73,0
1,54,88,1
1,58,73,1
1,54,73,0
1,61,73,1
1,58,73,0
1,60,88,142
1,56,88,0
1,51,88,0
1,51,73,1
1,56,73,1
1,60,73,1
1,61,88,94
1,56,88,0
1,53,88,0
1,65,73,1
1,61,73,0
1,56,73,1
1,53,73,0
1,61,73,1
1,53,73,0
1,54,88,94
1,58,88,0
1,54,73,1
1,58,73,1
1,61,73,1
1,58,73,0
1,54,88,96
1,61,73,142
1,58,73,0
1,61,73,1
1,58,73,0
1,60,88,144
1,56,88,0
1,51,88,0
1,60,73,1
1,56,73,0
1,61,88,144
1,58,88,0
1,53,88,0
1,61,73,1
1,58,73,0
1,65,73,1
1,61,73,0
1,54,88,142
1,58,88,0
1,61,73,1
1,58,73,0
1,63,88,240
1,60,88,0
1,56,88,0
1,51,73,140
1,48,73,0
1,51,73,1
1,48,73,0
1,51,73,1
1,48,73,0
1,51,73,1
1,48,73,0
1,51,73,1
1,48,73,0
1,65,88,144
1,61,88,0
1,58,88,0
1,58,73,1
1,49,73,0
1,58,73,1
1,49,73,0
1,54,88,1
1,61,88,0
1,58,73,1
1,54,73,0
1,58,73,1
1,54,73,0
1,60,88,144
1,56,88,0
1,51,88,0
1,51,73,1
1,48,73,0
1,51,73,1
1,48,73,0
1,51,73,1
1,48,73,0
1,56,73,1
1,60,73,1
1,56,73,0
1,60,73,1
1,63,73,0
1,61,88,142
1,56,88,0
1,53,88,0
1,56,73,1
1,53,73,0
1,56,73,1
1,53,73,0
1,54,88,1
1,58,88,0
1,61,88,0
1,58,73,1
1,54,73,0
1,58,73,1
1,54,73,0
1,61,88,1
1,58,73,142
1,54,73,0
1,58,73,1
1,54,73,0
1,60,88,144
1,56,88,0
1,51,88,0
1,56,73,1
1,48,73,0
1,56,73,1
1,61,88,142
1,53,88,0
1,56,73,1
1,53,73,0
1,56,73,1
1,53,73,0
1,54,88,1
1,58,88,0
1,61,88,0
1,58,73,1
1,54,73,0
1,58,73,1
1,54,73,0
1,60,88,144
1,56,88,0
1,51,88,0
1,51,73,1
1,48,73,0
1,51,73,1
1,48,73,0
1,51,73,142
1,48,73,0
1,51,73,1
1,48,73,0
1,61,88,1
1,56,88,0
1,53,88,0
1,61,73,1
1,53,73,0
1,56,73,1
1,53,73,0
1,61,73,1
1,53,73,0
1,56,73,92
1,53,73,0
1,53,73,1
1,49,73,0
1,53,73,1
1,56,73,0
1,61,88,140
1,58,88,0
1,54,88,0
1,61,73,1
1,58,73,0
1,58,73,1
1,54,73,0
1,61,73,1
1,58,73,0
1,58,73,92
1,54,73,0
1,54,73,1
1,49,73,0
1,54,73,1
1,58,73,0
1,56,88,140
1,60,88,0
1,51,88,0
1,60,73,1
1,56,73,0
1,56,73,1
1,51,73,0
1,60,73,1
1,51,73,0
1,56,73,92
1,51,73,0
1,51,73,1
1,48,73,0
1,51,73,1
1,56,73,0
1,61,88,140
1,53,88,0
1,61,73,1
1,53,73,0
1,56,73,1
1,53,73,0
1,61,73,1
1,53,73,0
1,56,73,92
1,53,73,0
1,53,73,1
1,49,73,0
1,53,73,1
1,56,73,0
1,61,88,140
1,61,73,1
1,53,73,0
1,56,73,1
1,53,73,0
1,61,73,1
1,53,73,0
1,56,73,92
1,53,73,0
1,53,73,1
1,49,73,0
1,53,73,1
1,56,73,0
1,61,88,140
1,58,88,0
1,54,88,0
1,61,73,1
1,58,73,0
1,58,73,1
1,54,73,0
1,61,73,1
1,58,73,0
1,58,73,92
1,54,73,0
1,54,73,1
1,49,73,0
1,54,73,1
1,58,73,0
1,63,88,140
1,53,88,0
1,56,88,0
1,60,88,0
1,63,88,1
1,61,88,0
1,58,88,0
1,54,88,0
1,63,88,1
1,60,88,0
1,56,88,0
1,49,88,1
1,56,88,0
1,65,88,0
1,56,89,1
1,65,113,1
1,61,113,47
1,56,113,47
1,53,88,95
1,60,88,0
1,65,88,0
1,56,89,140
1,60,113,1
1,56,113,47
1,53,113,1
1,54,88,95
1,58,88,0
1,61,88,0
1,54,89,1
1,61,113,1
1,61,104,1
1,61,104,1
1,54,113,96
1,56,113,44
1,58,113,1
1,61,113,95
1,56,88,143
1,53,88,0
1,56,73,1
1,53,73,0
1,53,73,1
1,56,73,0
1,54,88,144
1,58,88,0
1,61,88,0
1,61,73,1
1,58,73,0
1,61,73,1
1,58,73,0
1,54,88,1
1,58,73,1
1,54,73,0
1,61,73,1
1,58,73,0
1,60,88,142
1,56,88,0
1,51,88,0
1,51,73,1
1,56,73,1
1,60,73,1
1,61,88,94
1,56,88,0
1,53,88,0
1,65,73,1
1,61,73,0
1,56,73,1
1,53,73,0
1,61,73,1
1,53,73,0
1,54,88,94
1,58,88,0
1,54,73,1
1,58,73,1
1,61,73,1
1,58,73,0
1,54,88,96
1,61,73,142
1,58,73,0
1,61,73,1
1,58,73,0
1,60,88,144
1,56,88,0
1,51,88,0
1,60,73,1
1,56,73,0
1,61,88,144
1,58,88,0
1,53,88,0
1,61,73,1
1,58,73,0
1,65,73,1
1,61,73,0
1,54,88,142
1,58,88,0
1,61,73,1
1,58,73,0
1,63,88,240
1,60,88,0
1,56,88,0
1,51,73,140
1,48,73,0
1,51,73,1
1,48,73,0
1,51,73,1
1,48,73,0
1,51,73,1
1,48,73,0
1,51,73,1
1,48,73,0
1,65,88,144
1,61,88,0
1,58,88,0
1,58,73,1
1,49,73,0
1,58,73,1
1,49,73,0
1,54,88,1
1,61,88,0
1,58,73,1
1,54,73,0
1,58,73,1
1,54,73,0
1,60,88,144
1,56,88,0
1,51,88,0
1,51,73,1
1,48,73,0
1,51,73,1
1,48,73,0
1,51,73,1
1,48,73,0
1,56,73,1
1,60,73,1
1,56,73,0
1,60,73,1
1,63,73,0
1,61,88,142
1,56,88,0
1,53,88,0
1,56,73,1
1,53,73,0
1,56,73,1
1,53,73,0
1,54,88,1
1,58,88,0
1,61,88,0
1,58,73,1
1,54,73,0
1,58,73,1
1,54,73,0
1,61,88,1
1,58,73,142
1,54,73,0
1,58,73,1
1,54,73,0
1,60,88,144
1,56,88,0
1,51,88,0
1,56,73,1
1,48,73,0
1,56,73,1
1,61,88,142
1,53,88,0
1,56,73,1
1,53,73,0
1,56,73,1
1,53,73,0
1,54,88,1
1,58,88,0
1,61,88,0
1,58,73,1
1,54,73,0
1,58,73,1
1,54,73,0
1,60,88,144
1,56,88,0
1,51,88,0
1,51,73,1
1,48,73,0
1,51,73,1
1,48,73,0
1,51,73,142
1,48,73,0
1,51,73,1
1,48,73,0
1,61,88,1
1,56,88,0
1,53,88,0
1,61,73,1
1,53,73,0
1,56,73,1
1,53,73,0
1,61,73,1
1,53,73,0
1,56,73,92
1,53,73,0
1,53,73,1
1,49,73,0
1,53,73,1
1,56,73,0
1,61,88,140
1,58,88,0
1,54,88,0
1,61,73,1
1,58,73,0
1,58,73,1
1,54,73,0
1,61,73,1
1,58,73,0
1,58,73,92
1,54,73,0
1,54,73,1
1,49,73,0
1,54,73,1
1,58,73,0
1,56,88,140
1,60,88,0
1,51,88,0
1,60,73,1
1,56,73,0
1,56,73,1
1,51,73,0
1,60,73,1
1,51,73,0
1,56,73,92
1,51,73,0
1,51,73,1
1,48,73,0
1,51,73,1
1,56,73,0
1,61,88,140
1,53,88,0
1,61,73,1
1,53,73,0
1,56,73,1
1,53,73,0
1,61,73,1
1,53,73,0
1,56,73,92
1,53,73,0
1,53,73,1
1,49,73,0
1,53,73,1
1,56,73,0
1,61,88,140
1,61,73,1
1,53,73,0
1,56,73,1
1,53,73,0
1,61,73,1
1,53,73,0
1,56,73,92
1,53,73,0
1,53,73,1
1,49,73,0
1,53,73,1
1,56,73,0
1,61,88,140
1,58,88,0
1,54,88,0
1,61,73,1
1,58,73,0
1,58,73,1
1,54,73,0
1,61,73,1
1,58,73,0
1,58,73,92
1,54,73,0
1,54,73,1
1,49,73,0
1,54,73,1
1,58,73,0
1,63,88,140
1,53,88,0
1,56,88,0
1,60,88,0
1,63,88,1
1,61,88,0
1,58,88,0
1,54,88,0
1,63,88,1
1,60,88,0
1,56,88,0
1,49,88,1
1,56,88,0
1,65,88,0
1,56,89,1
1,65,113,1
1,61,113,47
1,56,113,47
1,53,88,95
1,60,88,0
1,65,88,0
1,56,89,140
1,60,113,1
1,56,113,47
1,53,113,1
1,54,88,95
1,58,88,0
1,61,88,0
1,54,89,1
1,61,113,1
1,61,104,1
1,61,104,1
1,54,113,96
1,56,113,44
1,58,113,1
1,61,113,95
1,56,88,143
1,53,88,0
1,54,88,383
1,58,88,0
1,61,88,0
1,63,88,1
1,58,88,0
1,54,88,0
1,60,88,1
1,56,88,0
1,63,88,0
1,61,88,1
1,56,88,0
1,53,88,0
1,54,88,1
1,58,88,0
1,61,88,0
1,63,88,1
1,58,88,0
1,54,88,0
1,60,88,1
1,56,88,0
1,63,88,0
1,61,88,1
1,56,88,0
1,53,88,0
1,56,73,1
1,53,73,0
1,56,73,1
1,53,73,0
1,54,88,1
1,58,88,0
1,61,88,0
1,58,73,1
1,54,73,0
1,58,73,1
1,54,73,0
1,61,88,1
1,58,73,142
1,54,73,0
1,58,73,1
1,54,73,0
1,60,88,144
1,56,88,0
1,51,88,0
1,56,73,1
1,48,73,0
1,56,73,1
1,61,88,142
1,53,88,0
1,56,73,1
1,53,73,0
1,56,73,1
1,53,73,0
1,54,88,1
1,58,88,0
1,61,88,0
1,58,73,1
1,54,73,0
1,58,73,1
1,54,73,0
1,60,88,144
1,56,88,0
1,51,88,0
1,51,73,1
1,48,73,0
1,51,73,1
1,48,73,0
1,51,73,142
1,48,73,0
1,51,73,1
1,48,73,0
1,61,88,1
1,56,88,0
1,53,88,0
1,61,73,1
1,53,73,0
1,56,73,1
1,53,73,0
1,61,73,1
1,53,73,0
1,56,73,92
1,53,73,0
1,53,73,1
1,49,73,0
1,53,73,1
1,56,73,0
1,61,88,140
1,58,88,0
1,54,88,0
1,61,73,1
1,58,73,0
1,58,73,1
1,54,73,0
1,61,73,1
1,58,73,0
1,58,73,92
1,54,73,0
1,54,73,1
1,49,73,0
1,54,73,1
1,58,73,0
1,56,88,140
1,60,88,0
1,51,88,0
1,60,73,1
1,56,73,0
1,56,73,1
1,51,73,0
1,60,73,1
1,51,73,0
1,56,73,92
1,51,73,0
1,51,73,1
1,48,73,0
1,51,73,1
1,56,73,0
1,61,88,140
1,53,88,0
1,61,73,1
1,53,73,0
1,56,73,1
1,53,73,0
1,61,73,1
1,53,73,0
1,56,73,92
1,53,73,0
1,53,73,1
1,49,73,0
1,53,73,1
1,56,73,0
1,61,88,140
1,61,73,1
1,53,73,0
1,56,73,1
1,53,73,0
1,61,73,1
1,53,73,0
1,56,73,92
1,53,73,0
1,53,73,1
1,49,73,0
1,53,73,1
1,56,73,0
1,61,88,140
1,58,88,0
1,54,88,0
1,61,73,1
1,58,73,0
1,58,73,1
1,54,73,0
1,61,73,1
1,58,73,0
1,58,73,92
1,54,73,0
1,54,73,1
1,49,73,0
1,54,73,1
1,58,73,0
1,63,88,140
1,53,88,0
1,56,88,0
1,60,88,0
1,63,88,1
1,61,88,0
1,58,88,0
1,54,88,0
1,63,88,1
1,60,88,0
1,56,88,0
1,61,88,1
1,56,88,0
1,53,88,0
1,54,88,1
1,58,88,0
1,61,88,0
1,63,88,1
1,58,88,0
1,54,88,0
1,60,88,1
1,56,88,0
1,63,88,0
1,61,88,1
1,56,88,0
1,53,88,0
1,54,88,1
1,58,88,0
1,61,88,0
1,63,88,1
1,58,88,0
1,54,88,0
1,60,88,1
1,56,88,0
1,63,88,0
1,49,88,1
1,56,88,0
1,65,88,0
1,56,89,1
1,65,113,1
1,61,113,47
1,56,113,47
1,53,88,95
1,60,88,0
1,65,88,0
1,56,89,140
1,60,113,1
1,56,113,47
1,53,113,1
1,54,88,95
1,58,88,0
1,61,88,0
1,54,89,1
1,61,113,1
1,61,104,1
1,61,104,1
1,54,113,96
1,56,113,44
1,58,113,1
1,61,113,95
1,56,88,143
1,53,88,0
2,37,103,663
2,29,103,3
2,29,103,3
2,30,103,3
2,30,103,3
2,30,103,3
2,30,103,3
2,42,103,3
2,37,103,3
2,29,103,3
2,29,103,3
2,30,103,3
2,30,103,3
2,30,103,3
2,30,103,3
2,37,103,3
2,30,103,3
2,37,103,3
2,38,103,3
2,39,103,3
2,39,103,3
2,44,103,3
2,32,103,3
2,37,103,3
2,32,103,3
2,30,103,3
2,39,103,3
2,44,103,3
2,44,103,3
2,44,103,3
2,32,103,3
2,34,103,3
2,30,103,3
2,30,103,3
2,30,103,3
2,32,103,3
2,32,103,3
2,32,103,3
2,32,103,3
2,32,103,3
2,32,103,3
2,32,103,3
2,33,103,3
2,34,103,3
2,34,103,3
2,34,103,3
2,34,103,3
2,30,103,3
2,30,103,3
2,30,103,3
2,32,103,3
2,32,103,3
2,32,103,3
2,39,103,3
2,44,103,3
2,32,103,3
2,34,103,3
2,36,103,3
2,37,103,3
2,37,103,3
2,32,103,3
2,30,103,3
2,39,103,3
2,39,103,3
2,39,103,3
2,42,103,3
2,44,103,3
2,32,103,3
2,32,103,3
2,32,103,3
2,32,103,3
2,37,103,3
2,30,103,3
2,32,103,3
2,32,103,3
2,32,103,3
2,32,103,3
2,32,103,3
2,32,103,3
2,32,103,3
2,32,103,3
2,37,103,3
2,37,103,3
2,37,103,3
2,32,103,3
2,37,103,3
2,37,103,3
2,37,103,3
2,37,103,3
2,32,103,3
2,30,103,3
2,30,103,3
2,30,103,3
2,30,103,3
2,30,103,3
2,30,103,3
2,30,103,3
2,30,103,3
2,30,103,3
2,31,103,3
2,32,103,3
2,32,103,3
2,32,103,3
2,32,103,3
2,32,103,3
2,32,103,3
2,32,103,3
2,32,103,3
2,32,103,3
2,37,103,3
2,37,103,3
2,37,103,3
2,32,103,3
2,37,103,3
2,37,103,3
2,37,103,3
2,37,103,3
2,32,103,3
2,37,103,3
2,37,103,3
2,37,103,3
2,37,103,3
2,37,103,3
2,37,103,3
2,37,103,3
2,37,103,3
2,37,103,3
2,37,103,3
2,37,103,3
2,37,103,3
2,37,103,3
2,29,103,3
2,29,103,3
2,29,103,3
2,30,103,3
2,32,103,3
2,32,103,3
2,37,103,3
2,29,103,3
2,29,103,3
2,30,103,3
2,30,103,3
2,30,103,3
2,30,103,3
2,42,103,3
2,37,103,3
2,30,103,3
2,37,103,3
2,38,103,3
2,39,103,3
2,39,103,3
2,44,103,3
2,32,103,3
2,37,103,3
2,32,103,3
2,30,103,3
2,39,103,3
2,44,103,3
2,44,103,3
2,44,103,3
2,32,103,3
2,34,103,3
2,30,103,3
2,30,103,3
2,30,103,3
2,32,103,3
2,32,103,3
2,32,103,3
2,32,103,3
2,32,103,3
2,32,103,3
2,32,103,3
2,33,103,3
2,34,103,3
2,34,103,3
2,34,103,3
2,34,103,3
2,30,103,3
2,30,103,3
2,30,103,3
2,32,103,3
2,32,103,3
2,32,103,3
2,39,103,3
2,44,103,3
