track,note,velocity,time
1,60,65,2160
1,64,62,0
1,64,0,677
1,60,0,6
1,60,70,85
1,64,64,0
1,60,0,351
1,64,0,9
1,62,93,24
1,64,78,192
1,62,0,4
1,64,0,186
1,62,84,2
1,60,88,72
1,62,0,8
1,60,0,12
1,60,83,172
1,55,78,0
1,52,53,0
1,60,0,81
1,55,0,29
1,52,0,11
1,52,76,1
1,55,84,0
1,55,0,71
1,52,0,30
1,60,70,2
1,64,72,0
1,60,0,740
1,64,0,12
1,57,75,16
1,60,77,0
1,60,0,322
1,57,0,1
1,55,76,8
1,60,84,0
1,60,0,51
1,55,0,21
1,53,71,280
1,57,71,0
1,62,78,0
1,62,0,565
1,57,0,11
1,53,0,24
1,60,76,1
1,57,68,0
1,57,0,183
1,60,0,21
1,62,76,8
1,59,75,0
1,62,0,285
1,50,72,98
1,55,86,0
1,59,0,10
1,55,0,210
1,53,76,68
1,50,0,173
1,53,0,21
1,55,80,21
1,52,72,0
1,52,0,41
1,55,0,2
1,60,77,12
1,57,68,0
1,57,0,106
1,60,0,8
1,57,76,80
1,60,79,0
1,57,0,128
1,60,0,19
1,55,83,162
1,60,82,0
1,60,0,249
1,55,0,21
1,57,89,167
1,53,72,0
1,62,76,376
1,57,0,48
1,53,0,8
1,62,0,8
1,57,75,116
1,60,73,0
1,57,0,211
1,57,18,61
1,60,0,287
1,57,0,40
1,62,80,40
1,59,72,0
1,59,0,28
1,62,0,7
1,67,72,278
1,71,75,0
1,71,0,212
1,67,0,13
1,67,71,63
1,65,62,0
1,67,0,254
1,65,0,3
1,55,96,3
1,60,61,32
1,62,85,96
1,60,0,8
1,62,0,96
1,55,0,11
1,59,83,77
1,55,78,0
1,55,0,751
1,59,0,1
1,55,78,776
1,50,63,0
1,50,0,47
1,55,0,1
1,60,77,348
1,65,81,0
1,65,0,216
1,69,90,11
1,60,0,250
1,69,0,8
1,60,68,167
1,64,70,48
1,67,76,48
1,64,0,4
1,60,0,378
1,67,0,9
1,60,68,89
1,64,70,0
1,67,67,0
1,64,0,56
1,67,0,2
1,60,0,5
1,57,63,410
1,60,70,0
1,65,63,0
1,65,0,87
1,57,0,0
1,60,0,3
1,55,71,100
1,60,71,0
1,60,0,54
1,55,0,22
1,52,77,208
1,60,83,0
1,55,86,0
1,55,0,40
1,52,0,4
1,60,0,6
1,64,117,15
1,60,89,384
1,64,0,4
1,62,88,11
1,60,0,4
1,62,0,3
1,55,104,2
1,55,0,333
1,55,80,3
1,52,72,0
1,52,0,41
1,55,0,2
1,60,77,12
1,57,68,0
1,57,0,106
1,60,0,8
1,57,76,80
1,60,79,0
1,57,0,128
1,60,0,19
1,55,83,162
1,60,82,0
1,60,0,249
1,55,0,21
1,57,89,167
1,53,72,0
1,62,76,376
1,57,0,48
1,53,0,8
1,62,0,8
1,57,75,116
1,60,73,0
1,57,0,211
1,57,18,61
1,60,0,287
1,57,0,40
1,62,80,40
1,59,72,0
1,59,0,28
1,62,0,7
1,67,72,278
1,71,75,0
1,71,0,212
1,67,0,13
1,67,71,63
1,65,62,0
1,67,0,254
1,65,0,3
1,55,96,3
1,60,61,32
1,62,85,96
1,60,0,8
1,62,0,96
1,55,0,11
1,59,83,77
1,55,78,0
1,55,0,751
1,59,0,1
1,55,78,776
1,50,63,0
1,50,0,47
1,55,0,1
1,60,77,348
1,65,81,0
1,65,0,216
1,69,90,11
1,60,0,250
1,69,0,8
1,60,68,167
1,64,70,48
1,67,76,48
1,64,0,4
1,60,0,378
1,67,0,9
1,60,68,89
1,64,70,0
1,67,67,0
1,64,0,56
1,67,0,2
1,60,0,5
2,36,64,2160
2,36,0,184
2,36,56,8
2,36,0,176
2,36,76,16
2,29,73,384
2,36,0,5
2,29,0,367
2,31,72,12
2,31,0,345
2,31,78,39
2,24,63,384
2,31,0,5
2,24,0,347
2,24,72,32
2,36,64,192
2,24,0,2
2,24,73,190
2,36,0,18
2,24,0,314
2,24,70,52
2,33,52,384
2,24,0,17
2,33,0,149
2,33,41,26
2,33,0,142
2,33,39,50
2,33,0,172
2,33,41,20
2,29,82,192
2,33,0,8
2,29,0,344
2,29,73,32
2,24,75,384
2,29,0,14
2,24,0,346
2,24,78,24
2,26,70,384
2,24,0,8
2,26,0,354
2,26,70,22
2,26,0,379
2,33,53,5
2,33,0,355
2,33,61,29
2,33,0,380
2,31,72,4
2,31,0,363
2,31,75,21
2,31,0,352
2,31,80,32
2,31,0,371
2,31,50,13
2,31,0,172
2,31,60,20
2,24,72,192
2,31,0,1
2,24,0,336
2,24,70,47
2,24,0,382
2,33,60,2
2,33,0,348
2,33,61,36
2,29,80,384
2,33,0,4
2,29,0,152
2,29,70,36
2,29,0,170
2,29,78,22
2,29,0,382
2,24,80,2
2,24,0,372
2,24,76,12
2,24,0,379
2,26,66,5
2,26,0,355
2,26,64,29
2,33,62,384
2,26,0,8
2,33,0,353
2,33,61,23
2,31,73,384
2,33,0,12
2,31,0,337
2,31,80,35
2,31,0,337
2,31,60,47
2,31,0,178
2,31,73,14
2,31,0,179
2,31,62,13
2,31,0,379
2,24,72,5
2,24,0,350
2,24,69,34
2,35,65,384
2,24,0,10
2,35,0,340
2,35,56,34
2,33,72,384
2,35,0,14
2,33,0,318
2,33,72,52
2,33,0,368
2,31,75,16
2,31,0,355
2,31,68,29
2,31,0,372
2,29,75,12
2,29,0,370
2,29,62,14
2,29,0,375
2,36,58,9
2,36,0,178
2,36,56,14
2,33,63,192
2,36,0,9
2,33,0,164
2,33,64,19
2,31,80,192
2,33,0,9
2,31,0,354
2,31,76,21
2,31,0,361
2,31,73,23
2,31,0,365
2,31,78,19
2,31,0,379
2,36,78,5
2,36,0,364
2,36,63,20
2,35,66,192
2,36,0,10
2,35,0,176
2,33,75,6
2,33,0,368
2,29,60,16
2,31,76,384
2,29,0,9
2,31,0,374
2,24,72,1
2,31,60,0
2,31,0,1
2,24,0,336
2,24,70,47
2,24,0,382
2,33,60,2
2,33,0,348
2,33,61,36
2,29,80,384
2,33,0,4
2,29,0,152
2,29,70,36
2,29,0,170
2,29,78,22
2,29,0,382
2,24,80,2
2,24,0,372
2,24,76,12
2,24,0,379
2,26,66,5
2,26,0,355
2,26,64,29
2,33,62,384
2,26,0,8
2,33,0,353
2,33,61,23
2,31,73,384
2,33,0,12
2,31,0,337
2,31,80,35
2,31,0,337
2,31,60,47
2,31,0,178
2,31,73,14
2,31,0,179
2,31,62,13
2,31,0,379
2,24,72,5
2,24,0,350
2,24,69,34
2,35,65,384
2,24,0,10
2,35,0,340
2,35,56,34
2,33,72,384
2,35,0,14
2,33,0,318
2,33,72,52
2,33,0,368
2,31,75,16
2,31,0,355
2,31,68,29
2,31,0,372
2,29,75,12
2,29,0,370
2,29,62,14
2,29,0,375
2,36,58,9
2,36,0,178
2,36,56,14
2,33,63,192
2,36,0,9
2,33,0,164
2,33,64,19
2,31,80,192
2,33,0,9
2,31,0,354
2,31,76,21
2,31,0,361
2,31,73,23
2,31,0,365
2,31,78,19
2,31,0,379
2,36,78,5
2,36,0,364
2,36,63,20
2,35,66,192
2,36,0,10
2,35,0,42
3,79,72,23520
3,84,75,48
3,79,0,12
3,84,0,29
3,86,75,7
3,86,0,40
3,88,99,8
3,88,0,188
3,86,104,4
3,86,0,188
3,88,110,4
3,84,78,384
3,88,0,3
3,86,76,189
3,84,0,9
3,86,0,175
3,79,78,8
3,72,74,192
3,79,0,3
3,72,0,36
4,64,70,2160
4,60,65,0
4,55,73,0
4,48,68,0
4,64,0,342
4,60,0,8
4,55,0,38
4,60,94,4
4,64,73,96
4,60,0,12
4,64,0,8
4,60,80,76
4,64,72,0
4,41,85,0
4,57,75,0
4,48,0,0
4,64,0,204
4,52,70,20
4,60,0,0
4,57,0,9
4,57,87,39
4,60,87,48
4,57,0,9
4,52,0,23
4,60,0,11
4,62,58,2
4,43,52,0
4,60,60,0
4,57,67,0
4,53,68,0
4,41,0,0
4,62,0,84
4,57,0,50
4,57,44,47
4,64,78,0
4,64,0,63
4,53,0,17
4,57,0,5
4,43,0,43
4,60,0,8
4,55,67,56
4,59,71,0
4,62,55,0
4,43,67,0
4,62,0,181
4,60,82,11
4,59,0,3
4,55,0,7
4,60,0,43
4,43,0,13
4,36,58,11
4,48,62,0
4,52,61,0
4,55,71,0
4,60,66,0
4,55,0,159
4,52,0,15
4,60,0,0
4,36,0,170
4,48,0,40
4,36,58,46
4,48,73,0
4,55,79,0
4,52,72,0
4,62,70,0
4,60,80,46
4,62,0,9
4,60,0,18
4,60,72,21
4,48,0,380
4,36,0,27
4,55,0,87
4,52,0,22
4,60,0,0
4,45,71,156
4,60,71,0
4,64,73,0
4,52,58,96
4,72,78,96
4,57,72,0
4,72,0,28
4,64,0,9
4,60,0,2
4,60,58,57
4,71,71,0
4,60,0,27
4,71,0,109
4,57,0,24
4,52,0,172
4,45,0,71
4,64,75,29
4,64,0,18
4,48,73,10
4,57,61,0
4,60,64,0
4,67,76,0
4,41,54,0
4,67,0,18
4,60,0,2
4,57,0,4
4,65,86,24
4,60,69,0
4,57,57,0
4,60,0,15
4,57,0,5
4,65,0,5
4,53,60,23
4,60,69,0
4,57,62,0
4,65,79,0
4,53,0,166
4,65,0,97
4,60,0,22
4,64,65,3
4,62,73,48
4,64,0,12
4,62,0,69
4,57,0,22
4,62,77,41
4,62,0,40
4,60,72,8
4,60,0,41
4,64,82,7
4,48,0,8
4,41,0,7
4,60,79,53
4,36,51,0
4,55,71,0
4,64,0,0
4,60,0,90
4,43,73,6
4,55,0,19
4,48,73,77
4,52,68,48
4,55,87,48
4,48,0,177
4,52,0,55
4,48,73,8
4,52,83,48
4,55,0,1
4,57,82,47
4,60,100,48
4,57,0,7
4,48,0,51
4,52,0,0
4,36,0,0
4,60,0,3
4,43,0,3
4,57,52,32
4,53,68,0
4,62,64,0
4,38,68,0
4,62,0,136
4,57,0,3
4,53,0,9
4,62,85,44
4,57,79,0
4,57,0,46
4,64,77,2
4,62,0,8
4,64,0,14
4,65,94,26
4,65,0,40
4,64,85,344
4,38,0,13
4,62,82,35
4,64,0,1
4,62,0,5
4,57,64,3
4,60,67,0
4,33,68,0
4,60,0,72
4,60,72,24
4,57,0,17
4,60,0,11
4,60,85,68
4,60,0,10
4,72,91,38
4,72,0,46
4,71,79,2
4,71,0,29
4,33,0,365
4,43,62,38
4,59,65,0
4,62,72,0
4,69,70,0
4,31,60,0
4,69,0,75
4,67,64,16
4,43,0,140
4,59,0,24
4,67,0,24
4,43,52,4
4,62,0,12
4,59,43,36
4,62,86,48
4,67,82,0
4,43,0,65
4,67,0,2
4,62,0,4
4,59,0,19
4,43,73,102
4,55,73,96
4,55,0,30
4,55,79,18
4,43,0,45
4,43,53,3
4,55,52,0
4,62,61,0
4,67,62,0
4,50,61,0
4,55,0,0
4,31,0,0
4,62,0,143
4,67,0,10
4,62,70,28
4,69,76,0
4,71,84,96
4,69,0,10
4,55,0,150
4,55,71,128
4,71,0,25
4,62,0,7
4,62,65,112
4,55,0,38
4,62,0,3
4,43,0,3
4,50,0,2
4,43,70,1
4,55,75,0
4,48,68,0
4,52,68,0
4,62,80,0
4,36,62,0
4,62,0,34
4,60,82,62
4,55,0,8
4,52,0,4
4,60,0,16
4,64,51,164
4,67,72,48
4,76,96,48
4,67,0,8
4,76,0,7
4,64,0,1
4,36,0,80
4,48,0,5
4,43,0,39
4,60,59,36
4,45,67,0
4,64,53,0
4,52,68,96
4,72,94,96
4,57,82,0
4,72,0,36
4,71,81,60
4,69,67,48
4,71,0,48
4,57,0,132
4,64,0,33
4,69,0,107
4,60,0,20
4,60,80,44
4,45,0,0
4,52,0,32
4,60,0,6
4,53,76,2
4,60,76,0
4,57,72,0
4,41,76,0
4,48,73,0
4,67,73,0
4,65,62,96
4,67,0,9
4,60,0,25
4,57,0,4
4,65,0,15
4,65,79,139
4,65,0,87
4,67,92,9
4,67,0,128
4,65,69,16
4,65,0,16
4,65,85,32
4,65,0,40
4,67,73,8
4,67,0,45
4,64,91,3
4,41,0,17
4,48,0,23
4,53,0,6
4,64,0,18
4,60,75,16
4,36,68,0
4,55,70,0
4,43,70,80
4,48,67,96
4,48,0,15
4,55,0,35
4,60,0,29
4,52,48,17
4,55,64,192
4,60,88,96
4,52,0,0
4,62,82,96
4,60,0,8
4,43,0,44
4,55,0,28
4,62,0,2
4,36,0,1
4,53,68,13
4,57,79,0
4,38,77,0
4,62,75,96
4,45,65,96
4,50,75,48
4,53,0,10
4,62,0,7
4,57,0,11
4,53,67,20
4,62,73,0
4,57,68,0
4,65,88,240
4,62,0,0
4,57,0,20
4,62,66,28
4,65,0,33
4,57,64,111
4,62,0,21
4,53,0,4
4,57,0,5
4,50,0,1
4,38,0,7
4,45,0,1
4,45,76,2
4,60,65,0
4,57,62,0
4,60,0,174
4,57,0,3
4,72,87,282
4,71,79,96
4,72,0,7
4,69,79,89
4,71,0,10
4,45,0,68
4,62,74,7
4,59,67,0
4,69,67,0
4,43,70,0
4,69,0,0
4,69,0,93
4,50,52,3
4,67,64,0
4,59,0,189
4,55,62,3
4,67,0,36
4,62,0,11
4,59,49,1
4,62,70,48
4,55,0,190
4,67,75,98
4,59,0,28
4,62,0,11
4,67,0,5
4,55,72,4
4,50,0,1
4,55,0,39
4,43,77,8
4,71,82,0
4,67,71,0
4,43,0,0
4,50,76,79
4,71,0,86
4,55,76,10
4,72,73,0
4,67,0,27
4,55,0,2
4,72,0,10
4,65,79,57
4,72,81,0
4,67,84,0
4,57,76,336
4,65,0,5
4,72,0,5
4,67,0,3
4,72,98,35
4,72,0,44
4,74,94,4
4,57,0,37
4,67,85,11
4,48,86,0
4,72,94,0
4,77,94,0
4,43,0,0
4,74,0,0
4,50,0,0
4,77,0,86
4,76,73,10
4,55,76,0
4,76,0,48
4,72,0,3
4,67,0,8
4,60,86,37
4,72,98,0
4,67,82,0
4,76,96,0
4,55,0,3
4,72,0,20
4,76,0,21
4,72,80,4
4,72,0,18
4,67,0,18
4,67,76,12
4,72,100,0
4,60,0,69
4,55,79,171
4,72,0,36
4,67,0,8
4,60,91,4
4,67,81,48
4,72,91,48
4,74,82,48
4,72,0,4
4,60,0,4
4,55,0,5
4,67,0,1
4,48,0,1
4,74,0,4
4,67,92,2
4,76,103,0
4,71,97,0
4,47,87,0
4,76,0,78
4,55,77,18
4,74,76,0
4,71,0,16
4,67,0,30
4,74,0,10
4,59,89,40
4,71,94,0
4,67,91,0
4,74,92,0
4,55,0,6
4,71,0,4
4,67,0,7
4,74,0,0
4,62,83,31
4,62,0,6
4,62,103,42
4,59,0,136
4,55,85,56
4,62,0,17
4,59,82,31
4,62,85,48
4,74,97,48
4,71,67,48
4,74,0,12
4,71,0,36
4,62,0,6
4,55,0,6
4,59,0,11
4,47,0,9
4,64,84,4
4,69,86,0
4,74,96,0
4,45,85,0
4,74,0,74
4,52,76,13
4,72,75,0
4,69,0,39
4,72,0,19
4,64,0,10
4,69,81,28
4,64,81,0
4,57,88,0
4,72,92,0
4,52,0,4
4,69,0,9
4,64,0,1
4,72,0,27
4,64,73,7
4,64,0,19
4,64,96,29
4,57,0,39
4,64,0,138
4,52,79,15
4,57,76,48
4,60,82,48
4,64,82,48
4,72,80,48
4,72,0,35
4,64,0,25
4,60,0,4
4,57,0,16
4,52,0,2
4,45,0,5
4,71,92,5
4,43,82,0
4,62,73,0
4,50,67,83
4,55,80,96
4,50,0,5
4,62,0,15
4,71,0,16
4,62,77,12
4,69,82,48
4,50,79,48
4,69,0,46
4,71,94,2
4,55,0,4
4,50,0,132
4,55,76,8
4,71,0,4
4,62,0,10
4,72,96,34
4,71,73,48
4,72,0,16
4,69,82,32
4,71,0,0
4,69,0,42
4,67,78,6
4,43,0,29
4,55,0,4
4,67,0,8
4,60,83,5
4,65,91,0
4,71,96,0
4,41,85,0
4,48,84,96
4,53,79,48
4,65,0,12
4,60,0,10
4,71,0,20
4,60,82,6
