track,note,velocity,time
1,65,80,284
1,58,84,0
1,55,91,0
1,62,88,0
1,43,84,0
1,58,66,13
1,55,68,0
1,65,59,0
1,62,75,0
1,50,74,0
1,65,75,22
1,58,80,0
1,55,80,0
1,53,86,0
1,62,88,0
1,58,63,6
1,55,63,0
1,65,50,0
1,62,71,0
1,50,71,0
1,65,70,9
1,58,73,0
1,53,90,0
1,55,83,0
1,62,82,0
1,55,68,1
1,53,83,3
1,65,76,14
1,58,88,0
1,62,88,0
1,65,61,22
1,58,80,0
1,55,75,0
1,62,80,0
1,50,75,4
1,58,84,4
1,65,80,0
1,43,90,0
1,55,87,0
1,62,87,0
1,58,71,28
1,50,88,0
1,62,74,0
1,65,54,0
1,55,63,0
1,65,77,31
1,58,77,0
1,55,86,0
1,62,87,0
1,53,97,0
1,58,68,8
1,62,74,0
1,65,56,0
1,55,69,0
1,50,76,6
1,65,72,12
1,58,78,0
1,52,100,0
1,55,88,0
1,62,85,0
1,55,71,5
1,52,79,10
1,65,83,11
1,55,102,0
1,58,95,0
1,62,89,0
1,58,69,34
1,62,75,0
1,55,76,0
1,65,64,0
1,48,78,9
1,65,83,2
1,57,89,0
1,53,93,0
1,55,86,0
1,60,87,0
1,41,79,0
1,57,68,22
1,65,49,0
1,55,62,0
1,60,70,0
1,48,65,7
1,57,80,11
1,65,75,0
1,60,83,0
1,55,77,0
1,53,83,0
1,57,73,16
1,65,40,0
1,55,74,0
1,60,80,0
1,53,86,0
1,48,75,6
1,53,79,2
1,58,94,0
1,65,84,0
1,55,91,0
1,60,90,0
1,53,76,6
1,58,97,16
1,55,97,0
1,65,89,0
1,60,90,0
1,53,95,2
1,65,74,11
1,57,98,0
1,55,90,5
1,53,94,11
1,46,75,0
1,55,78,14
1,58,107,0
1,63,85,0
1,65,84,0
1,39,87,0
1,55,74,2
1,46,66,0
1,63,77,1
1,65,77,0
1,58,101,0
1,55,90,0
1,51,78,8
1,65,83,18
1,63,76,0
1,58,105,0
1,55,102,0
1,51,77,0
1,55,80,14
1,46,74,0
1,38,90,5
1,58,80,0
1,65,73,0
1,53,107,0
1,62,93,0
1,65,71,3
1,53,84,0
1,58,73,0
1,50,71,0
1,62,84,0
1,65,72,25
1,58,78,0
1,53,91,0
1,50,88,0
1,62,86,0
1,65,67,19
1,58,67,0
1,53,95,0
1,50,83,0
1,62,88,0
1,48,74,4
1,65,76,1
1,57,79,0
1,55,78,0
1,41,93,0
1,60,90,0
1,53,72,0
1,57,76,12
1,65,66,0
1,55,66,0
1,60,74,0
1,65,90,32
1,58,91,0
1,55,97,0
1,60,91,0
1,53,61,3
1,58,82,17
1,65,79,0
1,55,93,0
1,60,86,0
1,53,90,3
1,57,83,11
1,55,88,24
1,65,81,11
1,57,94,0
1,55,94,0
1,60,90,0
1,53,61,4
1,57,102,17
1,65,93,0
1,55,84,0
1,60,85,0
1,53,78,3
1,50,69,8
1,55,76,0
1,58,79,3
1,65,79,0
1,43,79,0
1,62,86,0
1,58,59,12
1,55,67,0
1,50,53,0
1,62,59,0
1,65,46,0
1,65,78,25
1,58,87,0
1,55,93,0
1,62,90,0
1,53,90,0
1,50,75,12
1,58,58,0
1,55,51,0
1,62,59,0
1,65,36,0
1,52,87,3
1,58,84,0
1,55,91,0
1,65,80,0
1,62,91,0
1,55,65,4
1,52,73,8
1,55,95,24
1,65,84,0
1,58,101,0
1,62,85,0
1,55,77,10
1,48,75,9
1,65,80,1
1,57,83,0
1,55,83,0
1,60,90,0
1,41,78,0
1,65,22,16
1,57,70,0
1,55,46,0
1,48,71,0
1,60,66,0
1,65,76,26
1,57,82,0
1,55,84,0
1,60,86,0
1,53,76,2
1,58,87,9
1,55,102,0
1,65,93,0
1,60,96,0
1,53,84,24
1,55,72,2
1,58,56,6
1,65,95,7
1,58,97,0
1,55,105,0
1,60,105,0
1,53,95,3
1,57,97,8
1,55,90,2
1,48,80,8
1,53,80,0
1,39,95,7
1,65,95,0
1,55,95,0
1,58,95,0
1,63,95,0
1,55,74,6
1,46,65,0
1,65,80,10
1,58,107,0
1,55,93,0
1,63,73,0
1,51,87,3
1,63,72,14
1,65,83,0
1,58,77,0
1,55,84,0
1,46,62,2
1,53,90,11
1,58,85,2
1,65,82,0
1,62,90,0
1,38,95,0
1,50,105,21
1,62,101,24
1,70,101,0
1,65,101,0
1,50,62,12
1,50,98,17
1,58,91,12
1,53,108,0
1,62,101,0
1,50,73,2
1,58,85,5
1,55,87,0
1,64,90,0
1,36,90,0
1,60,90,0
1,55,58,14
1,48,104,0
1,55,107,16
1,58,107,0
1,64,107,0
1,60,107,0
1,55,94,8
1,48,80,0
1,55,104,4
1,58,104,0
1,65,104,0
1,62,104,0
1,36,87,0
1,55,56,24
1,58,106,4
1,55,106,0
1,48,106,0
1,64,106,0
1,60,106,0
1,55,93,27
1,55,108,4
1,58,108,0
1,62,108,0
1,65,108,0
1,48,98,16
1,55,98,4
1,58,97,0
1,63,109,0
1,63,95,60
1,58,87,0
1,67,97,0
1,65,80,9
1,58,92,31
1,67,101,0
1,63,95,0
1,58,81,41
1,63,80,0
1,55,89,0
1,58,76,43
1,55,86,0
1,58,87,2
1,62,91,0
1,53,80,0
1,55,104,30
1,58,95,0
1,63,89,0
1,53,88,2
1,58,85,0
1,62,97,0
1,58,68,24
1,53,59,0
1,62,70,0
1,55,85,19
1,58,85,0
1,63,85,0
1,62,88,16
1,58,76,0
1,53,80,0
1,60,98,18
1,53,88,0
1,57,93,0
1,58,97,5
1,53,97,0
1,62,100,0
1,57,90,1
1,53,83,0
1,60,98,0
1,57,78,32
1,53,67,0
1,60,89,0
1,58,91,9
1,62,94,0
1,53,81,0
1,53,59,4
1,60,81,1
1,57,76,0
1,58,99,4
1,63,91,0
1,55,90,0
1,63,84,9
1,60,96,0
1,56,103,0
1,58,87,9
1,53,84,0
1,62,98,0
1,63,95,5
1,58,92,0
1,55,90,0
1,58,94,6
1,62,100,0
1,53,90,0
1,58,91,1
1,53,83,0
1,60,90,0
1,58,87,49
1,60,97,0
1,53,85,0
1,60,90,5
1,57,89,0
1,53,84,0
1,60,97,1
1,53,93,0
1,57,97,0
1,58,97,5
1,53,90,0
1,62,91,0
1,63,92,8
1,58,94,0
1,55,94,0
1,58,99,1
1,53,89,0
1,62,90,0
1,58,97,34
1,53,94,0
1,62,91,0
1,53,60,31
1,53,94,16
1,58,109,0
1,53,68,34
1,62,98,2
1,55,93,1
1,53,91,0
1,58,92,0
1,62,96,46
1,58,88,1
1,53,89,0
1,55,93,0
1,63,88,2
1,60,101,0
1,56,105,0
1,63,95,1
1,58,105,0
1,55,104,0
1,58,97,5
1,62,90,0
1,53,104,0
1,58,95,1
1,63,103,0
1,55,102,0
1,63,99,7
1,58,95,0
1,55,100,0
1,53,72,27
1,58,103,4
1,62,90,0
1,53,108,0
1,53,77,23
1,58,91,0
1,65,75,3
1,58,83,0
1,62,89,0
1,55,86,1
1,58,59,14
1,65,65,0
1,62,77,0
1,55,64,0
1,65,81,23
1,58,89,0
1,62,95,0
1,55,90,0
1,58,70,18
1,65,60,0
1,55,67,0
1,62,83,0
1,65,76,22
1,58,87,0
1,55,84,1
1,62,94,0
1,65,38,10
1,58,60,0
1,62,64,1
1,55,58,0
1,65,74,27
1,58,85,0
1,55,90,1
1,62,101,0
1,62,77,18
1,58,68,0
1,65,47,0
1,55,64,1
1,57,85,5
1,65,78,0
1,55,81,1
1,60,84,0
1,57,70,21
1,60,68,0
1,55,50,0
1,65,89,32
1,57,97,0
1,55,87,0
1,60,90,1
1,57,80,29
1,60,76,0
1,55,74,0
1,58,95,4
1,65,90,0
1,55,90,0
1,60,90,0
1,58,101,19
1,65,90,0
1,55,100,0
1,60,98,0
1,65,75,25
1,57,98,1
1,55,86,2
1,53,83,11
1,55,75,4
1,58,111,0
1,65,90,0
1,63,89,0
1,55,61,3
1,65,87,15
1,63,76,0
1,58,99,0
1,55,96,0
1,58,105,33
1,63,84,0
1,55,100,0
1,65,90,0
1,55,61,7
1,65,74,2
1,58,78,0
1,62,94,1
1,53,101,0
1,53,74,4
1,58,101,18
1,65,83,0
1,53,114,0
1,62,89,0
1,65,78,25
1,58,82,0
1,62,89,0
1,53,91,0
1,53,71,2
1,65,79,1
1,57,87,0
1,55,91,0
1,60,93,0
1,55,63,2
1,65,85,40
1,57,95,0
1,55,83,0
1,60,98,0
1,55,61,7
1,65,68,15
1,58,82,0
1,60,80,2
1,55,68,0
1,65,67,18
1,58,80,0
1,60,83,0
1,55,81,0
1,58,107,24
1,65,89,0
1,55,104,1
1,60,101,0
1,57,84,24
1,55,74,3
1,53,70,4
1,58,109,16
1,55,79,0
1,65,82,0
1,62,88,0
1,65,46,9
1,58,67,0
1,62,71,0
1,55,60,1
1,65,89,33
1,58,107,0
1,55,96,0
1,62,101,0
1,58,66,20
1,65,46,0
1,62,62,1
1,55,70,0
1,60,82,1
1,58,68,0
1,64,98,0
1,55,90,0
1,58,64,15
1,64,54,0
1,60,59,0
1,55,66,0
1,64,94,32
1,58,109,0
1,55,98,0
1,60,98,0
1,58,63,21
1,64,75,0
1,55,62,1
1,60,83,0
1,57,101,6
1,65,90,0
1,55,94,0
1,60,97,0
1,60,57,15
1,55,44,0
1,57,57,0
1,65,91,33
1,55,94,0
1,57,100,0
1,60,91,0
1,55,53,0
1,55,80,40
1,55,96,12
1,65,78,0
1,58,95,0
1,60,95,0
1,65,87,18
1,58,87,0
1,55,91,0
1,60,90,0
1,65,79,24
1,57,105,0
1,55,74,4
1,53,66,5
1,65,102,4
1,55,102,0
1,58,102,0
1,63,102,0
1,55,62,6
1,58,103,14
1,65,80,0
1,55,97,0
1,63,75,0
1,58,99,34
1,63,99,0
1,55,99,0
1,65,99,1
1,55,74,3
1,65,75,4
1,58,85,1
1,53,108,1
1,62,90,0
1,58,59,9
1,65,54,0
1,53,68,0
1,62,72,1
1,58,111,39
1,53,116,0
1,65,97,0
1,62,97,0
1,53,93,1
1,58,94,0
1,53,112,0
1,65,98,0
1,60,96,1
1,53,70,7
1,58,55,0
1,65,39,0
1,58,111,30
1,53,114,0
1,65,100,0
1,60,101,0
1,65,41,15
1,53,91,0
1,58,71,0
1,60,80,0
1,55,66,3
1,55,108,5
1,64,96,0
1,58,114,0
1,60,101,0
1,55,82,3
1,60,46,2
1,58,107,30
1,64,107,1
1,55,107,0
1,60,107,0
1,64,70,23
1,58,70,0
1,60,72,0
1,55,82,0
1,55,98,12
1,58,97,0
1,63,109,0
1,63,95,60
1,58,87,0
1,67,97,0
1,65,80,9
1,58,92,31
1,67,101,0
1,63,95,0
1,58,81,41
1,63,80,0
1,55,89,0
1,58,76,43
1,55,86,0
1,58,87,2
1,62,91,0
1,53,80,0
1,55,104,30
1,58,95,0
1,63,89,0
1,53,88,2
1,58,85,0
1,62,97,0
1,58,68,24
1,53,59,0
1,62,70,0
1,55,85,19
1,58,85,0
1,63,85,0
1,62,88,16
1,58,76,0
1,53,80,0
1,60,98,18
1,53,88,0
1,57,93,0
1,58,97,5
1,53,97,0
1,62,100,0
1,57,90,1
1,53,83,0
1,60,98,0
1,57,78,32
1,53,67,0
1,60,89,0
1,58,91,9
1,62,94,0
1,53,81,0
1,53,59,4
1,60,81,1
1,57,76,0
1,58,99,4
1,63,91,0
1,55,90,0
1,63,84,9
1,60,96,0
1,56,103,0
1,58,87,9
1,53,84,0
1,62,98,0
1,63,95,5
1,58,92,0
1,55,90,0
1,58,94,6
1,62,100,0
1,53,90,0
1,58,91,1
1,53,83,0
1,60,90,0
1,58,87,49
1,60,97,0
1,53,85,0
1,60,90,5
1,57,89,0
1,53,84,0
1,60,97,1
1,53,93,0
1,57,97,0
1,58,97,5
1,53,90,0
1,62,91,0
1,63,92,8
1,58,94,0
1,55,94,0
1,58,99,1
1,53,89,0
1,62,90,0
1,58,97,34
1,53,94,0
1,62,91,0
1,53,60,31
1,53,94,16
1,58,109,0
1,53,68,34
1,62,98,2
1,55,93,1
1,53,91,0
1,58,92,0
1,58,88,7
1,53,89,0
1,55,93,0
1,62,96,4
1,63,88,3
1,60,101,0
1,56,105,0
1,63,95,8
1,58,105,0
1,55,104,0
1,58,97,8
1,62,90,0
1,53,104,0
1,58,95,72
1,63,103,0
1,55,102,0
1,63,99,33
1,58,95,0
1,55,100,0
1,53,72,27
1,58,103,4
1,62,90,0
1,53,108,0
1,53,77,23
1,58,91,0
1,55,98,3
1,58,97,0
1,63,109,0
1,63,95,60
1,58,87,0
1,67,97,0
1,65,80,9
1,58,92,31
1,67,101,0
1,63,95,0
1,58,81,41
1,63,80,0
1,55,89,0
1,58,76,43
1,55,86,0
1,58,87,2
1,62,91,0
1,53,80,0
1,55,104,30
1,58,95,0
1,63,89,0
1,53,88,2
1,58,85,0
1,62,97,0
1,58,68,24
1,53,59,0
1,62,70,0
1,55,85,19
1,58,85,0
1,63,85,0
1,62,88,16
1,58,76,0
1,53,80,0
1,60,98,18
1,53,88,0
1,57,93,0
1,58,97,5
1,53,97,0
1,62,100,0
1,57,90,1
1,53,83,0
1,60,98,0
1,57,78,32
1,53,67,0
1,60,89,0
1,58,91,9
1,62,94,0
1,53,81,0
1,53,59,4
1,60,81,1
1,57,76,0
1,58,99,4
1,63,91,0
1,55,90,0
1,63,84,9
1,60,96,0
1,56,103,0
1,58,87,9
1,53,84,0
1,62,98,0
1,63,95,5
1,58,92,0
1,55,90,0
1,58,94,6
1,62,100,0
1,53,90,0
1,58,91,1
1,53,83,0
1,60,90,0
1,58,87,49
1,60,97,0
1,53,85,0
1,60,90,5
1,57,89,0
1,53,84,0
1,60,97,1
1,53,93,0
1,57,97,0
1,58,97,5
1,53,90,0
1,62,91,0
1,63,92,8
1,58,94,0
1,55,94,0
1,58,99,1
1,53,89,0
1,62,90,0
1,58,97,34
1,53,94,0
1,62,91,0
1,53,60,31
1,53,94,16
1,58,109,0
1,53,68,34
1,62,98,2
1,55,93,1
1,53,91,0
1,58,92,0
1,62,96,46
1,58,88,1
1,53,89,0
1,55,93,0
1,63,88,2
1,60,101,0
1,56,105,0
1,63,95,1
1,58,105,0
1,55,104,0
1,58,97,5
1,62,90,0
1,53,104,0
1,58,95,1
1,63,103,0
1,55,102,0
1,63,99,7
1,58,95,0
1,55,100,0
1,53,72,27
1,58,103,4
1,62,90,0
1,53,108,0
1,53,77,23
1,58,91,0
2,39,98,3734
2,39,88,22
2,39,92,25
2,39,100,26
2,39,91,10
2,39,108,10
2,39,91,25
2,41,102,11
2,41,93,16
2,41,98,45
2,34,94,7
2,34,74,27
2,34,104,15
2,34,104,11
2,41,95,12
2,29,95,1
2,29,78,17
2,29,82,18
2,29,93,16
2,36,87,10
2,41,80,1
2,36,73,3
2,41,92,1
2,39,92,1
2,32,86,25
2,32,80,37
2,34,94,1
2,41,105,67
2,36,81,27
2,29,90,2
2,29,85,13
2,29,92,13
2,29,92,22
2,33,83,1
2,34,102,3
2,34,98,28
2,34,82,29
2,34,79,13
2,34,92,11
2,32,84,7
2,31,90,1
2,31,70,24
2,31,79,17
2,31,77,14
2,31,83,18
2,32,88,1
2,39,79,9
2,39,82,15
2,39,84,5
2,34,94,4
2,43,94,17
2,43,87,53
2,48,93,35
2,43,71,1
2,36,85,1
2,36,95,18
2,36,87,42
2,29,87,11
2,29,79,29
2,29,99,16
2,41,102,22
2,41,97,11
2,36,80,1
2,41,105,38
2,36,86,33
2,29,72,5
2,36,73,1
2,39,89,1
2,51,89,17
2,51,84,39
2,50,73,1
2,46,62,1
2,50,81,1
2,50,82,31
2,50,84,38
2,41,82,21
2,41,99,28
2,41,101,59
2,41,105,37
2,36,80,6
2,29,91,35
2,36,81,1
2,41,101,2
2,43,101,19
2,43,98,33
2,38,87,35
2,43,88,4
2,48,88,1
2,43,87,6
2,36,85,1
2,36,94,21
2,36,83,39
2,41,101,4
2,41,107,38
2,29,95,61
2,36,77,3
2,41,101,1
2,41,98,52
