track,note,velocity,time
2,36,119,1244
2,36,109,32
2,36,118,16
2,36,109,20
2,31,87,288
2,36,119,68
2,36,96,44
2,36,106,16
2,36,119,20
2,36,109,32
2,36,118,16
2,36,109,20
2,31,87,288
2,36,119,68
2,36,96,44
2,36,106,16
2,36,119,20
2,36,109,32
2,36,118,16
2,36,109,20
2,31,87,288
2,36,119,68
2,36,96,44
2,36,106,16
2,36,119,20
2,36,109,32
2,36,118,16
2,36,109,20
2,31,87,288
2,36,119,68
2,36,96,44
2,36,106,16
2,36,119,20
2,36,109,32
2,36,118,16
2,36,109,20
2,31,87,288
2,36,119,68
2,36,96,44
2,36,106,16
2,36,119,20
2,36,109,32
2,36,118,16
2,36,109,20
2,31,87,288
2,35,119,0
2,35,109,12
2,35,119,24
2,35,109,20
2,34,119,20
2,34,119,28
2,34,119,32
2,34,115,28
2,27,119,384
2,27,106,16
2,27,119,36
2,27,119,20
2,27,119,28
2,27,119,28
2,27,119,16
2,27,113,16
2,29,119,0
2,29,119,20
2,29,99,20
2,29,103,32
2,34,119,4
2,34,119,40
2,34,119,36
2,41,106,576
2,48,87,0
2,46,119,96
2,41,91,4
2,46,119,0
2,33,119,0
2,33,82,16
2,33,119,24
2,34,119,36
2,34,119,32
2,34,82,24
2,34,119,20
2,34,119,20
2,34,119,24
2,32,119,384
2,32,119,36
2,31,119,32
2,31,119,24
2,26,109,4
2,33,119,96
2,35,119,360
2,36,119,8
2,36,119,40
2,38,119,384
2,29,119,372
2,29,119,32
2,29,119,36
2,29,118,20
2,29,99,20
2,29,118,8
2,34,119,8
2,34,119,104
2,34,119,116
2,34,119,28
2,30,119,384
2,30,119,92
2,30,119,108
2,31,119,12
2,31,87,32
2,31,119,28
2,34,94,12
2,38,119,96
2,43,119,0
2,41,119,12
2,41,112,44
2,29,94,0
2,29,119,20
2,30,119,12
2,30,119,136
2,30,119,124
2,37,119,0
2,44,119,0
2,42,119,96
2,41,119,380
2,41,119,76
2,41,119,104
2,34,103,36
2,34,89,36
2,46,119,192
2,41,94,244
2,46,119,80
2,39,119,0
2,34,119,16
2,34,76,20
2,39,119,96
2,34,82,176
2,39,103,76
2,38,115,88
2,34,115,8
2,38,118,96
2,36,119,4
2,36,119,108
2,36,119,108
2,36,119,32
2,29,119,384
2,29,119,112
2,29,119,116
2,34,119,768
2,34,119,72
2,34,119,96
2,41,94,192
2,46,82,68
2,34,119,64
2,34,106,32
2,34,119,92
2,34,119,104
2,43,119,2120
2,50,109,96
2,48,94,88
2,43,99,664
2,36,119,64
2,35,119,1528
2,55,119,760
2,50,119,364
2,46,119,4
2,39,119,16
2,46,119,1344
2,39,119,168
2,39,119,84
2,39,119,116
2,39,119,72
2,41,76,96
2,43,119,32
2,39,74,72
2,41,109,0
2,53,119,28
2,53,118,104
2,45,74,16
2,46,118,96
2,50,99,0
2,43,99,96
2,41,76,72
2,34,119,0
2,34,118,56
2,34,119,28
2,34,119,32
2,29,119,0
2,34,119,96
2,43,119,8
2,46,74,96
2,51,99,68
2,51,112,36
2,46,94,96
2,33,119,368
2,33,82,16
2,33,119,24
2,34,119,36
2,34,119,152
2,34,119,124
2,41,106,12
2,48,103,96
2,46,87,16
2,46,87,68
2,34,119,8
2,33,82,96
2,32,119,4
2,32,119,112
2,32,119,32
2,32,119,212
2,31,119,192
2,31,119,32
2,26,109,4
2,33,119,96
2,35,119,360
2,36,119,8
2,36,119,120
2,36,119,116
2,36,119,36
2,38,74,96
2,39,106,4
2,36,119,192
2,39,84,72
2,29,119,4
2,29,119,32
2,29,119,36
2,29,118,20
2,29,99,20
2,29,118,8
2,34,119,8
2,34,119,104
2,34,119,116
2,34,119,28
2,30,119,384
2,30,119,92
2,30,119,108
2,31,119,12
2,31,87,32
2,31,119,28
2,34,94,12
2,38,119,96
2,43,119,0
2,41,119,12
2,41,112,44
2,29,94,0
2,29,119,20
2,30,119,12
2,30,119,136
2,30,119,124
2,37,119,0
2,44,119,0
2,42,119,96
2,37,119,0
2,29,119,0
2,29,112,84
2,29,119,108
2,29,94,24
2,29,89,24
2,31,119,8
2,29,119,192
2,34,119,0
2,34,119,76
2,34,119,100
2,36,119,92
2,38,103,100
2,34,99,100
2,41,91,96
2,39,119,88
2,34,119,16
2,34,76,20
2,39,119,96
2,34,82,176
2,39,103,76
2,38,115,88
2,34,115,8
2,38,118,96
2,36,119,4
2,36,119,28
2,36,119,76
2,36,119,108
2,36,119,124
2,38,112,4
2,43,91,96
2,41,119,92
2,29,119,380
2,29,119,24
2,29,119,92
2,29,119,120
2,29,94,16
2,29,119,20
2,34,119,4
2,34,119,56
2,34,119,100
2,46,119,92
2,48,89,288
2,48,84,8
2,50,119,192
2,48,89,4
2,46,112,192
2,43,89,68
2,46,82,88
2,36,119,172
2,36,119,100
2,36,112,108
2,36,119,88
2,31,112,84
2,31,119,112
2,36,119,24
2,36,119,116
2,36,119,124
2,52,119,384
2,47,119,32
2,35,119,24
2,35,119,120
2,34,119,4
2,46,119,4
2,27,119,8
2,39,119,16
2,39,112,24
2,46,49,0
2,51,119,96
2,46,49,168
2,39,115,36
2,34,119,4
2,39,119,96
2,39,119,20
2,41,76,96
2,43,87,68
2,39,68,80
2,41,119,68
2,41,109,48
2,33,119,384
2,36,84,24
2,41,119,84
2,36,87,88
2,34,119,8
2,34,119,104
2,34,119,116
2,34,119,28
2,30,119,384
2,30,119,92
2,30,119,108
2,31,119,12
2,31,87,32
2,31,119,28
2,34,94,12
2,38,119,96
2,43,119,0
2,41,119,12
2,41,112,44
2,29,94,0
2,29,119,20
2,30,119,12
2,30,115,100
2,30,119,100
2,37,76,96
2,44,119,64
2,37,65,0
2,42,119,96
2,37,61,76
2,30,119,28
2,30,91,20
2,29,119,8
2,29,119,104
2,29,119,112
2,36,119,384
2,34,119,4
2,50,119,192
2,29,89,280
2,31,94,40
2,33,89,72
2,34,91,4
2,34,87,24
2,41,76,96
2,46,119,32
2,34,119,168
2,39,119,160
2,39,119,112
2,39,119,116
2,51,106,288
2,50,112,76
2,46,119,4
2,43,94,96
2,50,84,0
2,48,119,0
2,36,119,88
2,36,119,116
2,46,119,576
2,43,112,72
2,29,119,68
2,29,119,92
2,29,119,104
2,29,119,28
2,34,119,8
2,34,119,104
2,34,119,116
2,34,119,28
2,30,119,384
2,30,119,92
2,30,119,108
2,31,119,12
2,31,87,32
2,31,119,28
2,34,94,12
2,38,119,96
2,43,119,0
2,41,119,12
2,41,112,44
2,29,94,0
2,29,119,20
2,30,119,12
2,30,115,100
2,30,119,100
2,37,76,96
2,44,119,64
2,37,65,0
2,42,119,96
2,37,61,76
2,30,119,28
2,30,91,20
2,29,119,8
2,29,119,104
2,29,119,112
2,36,119,384
2,34,119,4
2,50,119,192
2,29,89,280
2,31,94,40
2,33,89,72
2,34,91,4
2,34,87,24
2,41,76,96
2,46,119,32
2,34,119,168
2,39,119,160
2,39,119,112
2,39,119,116
2,51,106,288
2,50,112,76
2,46,119,4
2,43,94,96
2,50,84,0
2,48,119,0
2,36,119,88
2,36,119,116
2,46,119,576
2,43,112,72
2,29,119,68
2,29,119,92
2,29,119,104
2,29,119,28
2,34,119,8
2,41,119,12
2,50,119,96
2,41,119,272
2,46,119,64
2,41,119,68
2,46,103,48
2,34,119,0
2,42,68,672
2,45,103,88
2,42,82,276
2,34,106,40
2,39,119,4
2,34,119,0
2,39,119,96
2,38,119,0
2,36,119,384
2,36,89,28
2,29,119,96
2,29,119,32
2,34,115,384
2,34,119,48
2,34,109,8
2,53,119,96
2,50,103,184
2,34,119,4
2,34,119,104
2,34,119,128
2,48,119,384
2,46,119,188
2,39,119,0
2,51,119,0
2,53,94,96
2,51,119,92
2,39,119,4
2,38,112,384
2,36,119,56
2,36,119,36
2,38,68,96
2,39,82,84
2,43,112,4
2,41,112,96
2,41,119,48
2,38,103,96
2,36,103,168
2,34,115,188
2,34,119,48
2,34,109,8
2,53,119,96
2,50,103,184
2,34,119,4
2,34,119,104
2,34,119,128
2,48,119,384
2,46,119,188
2,39,119,0
2,51,119,0
2,53,94,96
2,51,119,92
2,39,119,4
2,38,112,384
2,36,119,56
2,36,119,36
2,38,68,96
2,39,82,84
2,43,112,4
2,41,112,96
2,41,119,48
2,38,103,96
2,36,103,168
2,34,119,188
2,41,119,12
2,50,119,96
2,41,119,272
2,46,119,64
2,41,119,68
2,46,103,48
2,34,119,0
2,42,68,672
2,45,103,88
2,42,82,276
2,34,106,40
2,39,119,4
2,34,119,0
2,39,119,96
2,38,119,0
2,36,119,384
2,36,89,28
2,29,119,96
2,29,119,32
2,34,119,384
2,41,119,12
2,50,119,96
2,41,119,272
2,46,119,64
2,41,119,68
2,46,103,48
2,34,119,0
2,42,68,672
2,45,103,88
2,42,82,276
2,34,106,40
2,39,119,4
2,34,119,0
2,39,119,96
2,38,119,0
2,36,119,384
2,36,89,28
2,29,119,96
2,29,119,32
2,34,115,384
2,34,119,48
2,34,109,8
2,53,119,96
2,50,103,184
2,34,119,4
2,34,119,104
2,34,119,128
2,48,119,384
2,46,119,188
2,39,119,0
2,51,119,0
2,53,94,96
2,51,119,92
2,39,119,4
2,38,112,384
2,36,119,56
2,36,119,36
2,38,68,96
2,39,82,84
2,43,112,4
2,41,112,96
2,41,119,48
2,38,103,96
2,36,103,168
2,34,115,188
2,34,119,48
2,34,109,8
2,53,119,96
2,50,103,184
2,34,119,4
2,34,119,104
2,34,119,128
2,48,119,384
2,46,119,188
2,39,119,0
2,51,119,0
2,53,94,96
2,51,119,92
2,39,119,4
2,38,112,384
2,36,119,56
2,36,119,36
2,38,68,96
2,39,82,84
2,43,112,4
2,41,112,96
2,41,119,48
2,38,103,96
2,36,103,168
2,34,119,188
2,41,119,12
2,50,119,96
2,41,119,272
2,46,119,64
2,41,119,68
2,46,103,48
2,34,119,0
2,42,68,672
2,45,103,88
2,42,82,276
2,34,106,40
2,39,119,4
2,34,119,0
2,39,119,96
2,38,119,0
2,36,119,384
2,36,89,28
2,29,119,96
2,29,119,32
2,39,119,384
2,39,119,68
2,41,119,20
2,34,119,24
3,79,127,3740
3,67,104,192
3,60,93,4
3,67,96,1916
3,72,83,96
3,74,90,64
3,79,124,48
3,74,93,64
3,79,93,76
3,74,90,60
3,78,70,0
3,69,70,0
3,57,90,0
3,69,74,0
3,54,46,0
3,74,65,0
3,66,53,0
3,72,78,44
3,67,96,0
3,64,61,0
3,52,74,0
3,60,90,44
3,67,70,92
3,72,99,96
3,74,93,96
3,79,112,96
3,78,127,192
3,62,86,368
3,69,104,384
3,57,83,4
3,54,61,336
3,66,107,0
3,64,101,44
3,52,86,0
3,55,49,380
3,60,61,384
3,55,99,40
3,60,109,60
3,62,109,20
3,64,109,100
3,67,107,52
3,55,124,5648
3,62,99,100
3,67,101,96
3,55,109,20
3,62,114,0
3,55,119,104
3,58,123,96
3,65,124,192
3,63,119,0
3,58,124,0
3,67,101,0
3,67,114,64
3,65,119,0
3,60,96,4
3,65,114,48
3,60,93,0
3,53,101,4
3,46,116,0
3,62,127,0
3,58,127,0
3,53,124,0
3,34,96,0
3,53,124,28
3,62,127,0
3,58,127,0
3,34,109,0
3,63,127,28
3,58,127,0
3,55,99,0
3,34,121,0
3,46,119,0
3,65,127,28
3,63,127,0
3,58,127,0
3,46,101,0
3,34,96,0
3,65,127,28
3,45,101,0
3,60,119,0
3,57,119,0
3,33,116,0
3,33,99,24
3,45,107,0
3,60,112,0
3,57,119,0
3,65,127,0
3,58,127,8
3,62,107,4
3,46,107,0
3,34,93,0
3,34,107,48
3,58,127,0
3,62,127,0
3,65,127,0
3,46,109,0
3,32,127,28
3,44,127,0
3,56,127,0
3,60,127,0
3,65,127,0
3,32,112,12
3,44,127,24
3,60,119,8
3,56,127,0
3,65,127,0
3,32,127,0
3,55,114,20
3,65,127,0
3,59,127,0
3,43,99,0
3,31,121,0
3,31,114,40
3,57,109,20
3,33,119,0
3,60,116,0
3,65,127,0
3,45,90,0
3,65,127,0
3,62,116,0
3,59,127,0
3,47,99,0
3,35,124,0
3,55,114,36
3,63,116,0
3,60,127,4
3,36,101,0
3,48,112,0
3,36,114,20
3,55,107,28
3,63,127,0
3,60,127,0
3,48,124,0
3,65,112,0
3,62,127,0
3,58,127,4
3,38,107,0
3,50,96,0
3,60,127,16
3,57,114,0
3,65,127,0
3,29,107,0
3,41,112,0
3,29,109,60
3,41,124,4
3,57,112,96
3,60,127,0
3,65,127,0
3,29,127,28
3,53,127,12
3,65,127,0
3,60,119,0
3,41,114,4
3,29,114,0
3,53,114,0
3,62,127,0
3,58,127,0
3,46,127,0
3,46,116,32
3,53,109,20
3,62,127,0
3,58,127,0
3,46,127,0
3,58,127,28
3,53,119,0
3,62,119,0
3,46,127,68
3,55,109,72
3,42,127,28
3,54,127,4
3,62,127,0
3,57,121,0
3,42,124,20
3,54,119,44
3,57,127,8
3,62,127,0
3,54,127,4
3,42,127,52
3,62,127,16
3,57,127,0
3,54,127,0
3,42,127,68
3,55,107,8
3,58,127,0
3,62,127,0
3,43,127,4
3,43,127,56
3,55,114,64
3,55,114,32
3,58,127,0
3,62,127,0
3,58,127,32
3,55,104,0
3,62,127,0
3,43,124,56
3,58,127,8
3,53,114,0
3,62,127,0
3,41,107,4
3,41,127,24
3,58,127,20
3,41,127,0
3,62,124,0
3,53,107,0
3,55,127,68
3,58,127,64
3,58,127,24
3,67,127,0
3,42,127,20
3,58,127,0
3,61,127,0
3,66,127,0
3,42,127,36
3,54,127,4
3,66,127,84
3,61,127,0
3,58,127,0
3,42,70,36
3,42,127,140
3,58,127,16
3,65,127,0
3,41,127,0
3,62,127,0
3,53,90,0
3,53,93,328
3,41,127,52
3,41,127,20
3,65,127,0
3,58,127,0
3,62,124,0
3,41,127,24
3,58,127,24
3,62,127,0
3,53,127,0
3,41,127,20
3,56,124,12
3,62,127,0
3,53,127,0
3,34,127,0
3,46,127,376
3,34,127,32
3,46,127,48
3,56,127,0
3,62,126,0
3,53,124,0
3,62,127,20
3,56,127,0
3,53,127,0
3,34,109,0
3,34,99,16
3,63,127,12
3,58,127,0
3,39,127,0
3,55,119,0
3,51,127,380
3,58,127,28
3,63,127,0
3,55,127,0
3,39,127,4
3,58,127,28
3,53,114,0
3,62,127,0
3,38,124,0
3,36,127,36
3,63,127,0
3,60,127,0
3,55,121,0
3,36,109,20
3,48,127,188
3,36,124,24
3,63,127,48
3,60,127,0
3,55,124,0
3,36,109,28
3,58,127,28
3,63,127,0
3,41,127,0
3,55,127,0
3,29,127,576
3,58,127,36
3,63,127,0
3,53,127,0
3,41,119,0
3,53,127,0
3,58,127,0
3,62,127,0
3,34,121,0
3,46,124,0
3,34,104,0
3,34,127,48
3,65,127,108
3,70,127,96
3,72,114,96
3,34,86,24
3,65,109,0
3,72,127,0
3,70,127,4
3,74,104,0
3,65,127,20
3,70,119,96
3,72,124,100
3,70,124,4
3,65,112,0
3,46,74,0
3,34,93,0
3,74,126,0
3,55,127,5772
3,67,116,96
3,62,124,96
3,67,101,0
3,55,109,0
3,62,114,0
3,55,109,100
3,58,113,96
3,65,114,192
3,63,119,24
3,58,124,0
3,67,101,0
3,67,114,64
3,65,119,0
3,60,96,4
3,65,114,48
3,60,93,0
3,53,101,4
3,46,116,0
3,62,127,0
3,58,127,0
3,53,124,0
3,34,96,0
3,53,124,28
3,62,127,0
3,58,127,0
3,34,109,0
3,63,127,28
3,58,127,0
3,55,99,0
3,34,121,0
3,46,119,0
3,65,127,28
3,63,127,0
3,58,127,0
3,46,101,0
3,34,96,0
3,65,127,28
3,45,101,0
3,60,119,0
3,57,119,0
3,33,116,0
3,33,99,24
3,45,107,0
3,60,112,0
3,57,119,0
3,65,127,0
3,58,127,8
3,62,107,4
3,46,107,0
3,34,93,0
3,34,107,48
3,58,127,0
3,62,127,0
3,65,127,0
3,46,109,0
3,32,127,28
3,44,127,0
3,56,127,0
3,60,127,0
3,65,127,0
3,32,112,12
