track,note,velocity,time
3,77,45,16367
3,74,58,56
3,72,52,32
3,70,73,6
3,65,43,14
3,67,40,5
3,58,56,40
3,65,42,601
3,74,52,96
3,72,55,39
3,65,40,0
3,43,53,0
3,69,62,0
3,62,56,373
3,67,61,0
3,70,52,0
3,55,34,2
3,75,55,339
3,70,48,0
3,67,51,0
3,51,41,0
3,63,30,0
3,58,45,9
3,63,38,177
3,67,28,72
3,74,58,0
3,58,11,44
3,63,27,66
3,67,57,0
3,67,45,343
3,70,46,0
3,75,50,0
3,48,45,0
3,60,45,52
3,79,62,140
3,60,35,515
3,53,51,19
3,70,48,0
3,72,53,0
3,77,58,0
3,60,45,244
3,65,40,10
3,72,42,192
3,69,51,0
3,65,23,151
3,60,24,170
3,60,26,33
3,53,56,10
3,67,64,45
3,70,62,25
3,75,60,31
3,60,48,1
3,67,45,19
3,70,42,15
3,53,47,148
3,69,50,0
3,77,56,0
3,72,47,28
3,60,53,17
3,84,57,24
3,46,45,25
3,62,57,0
3,72,66,0
3,65,63,0
3,58,46,17
3,62,52,133
3,72,57,69
3,46,29,141
3,65,61,0
3,70,47,0
3,62,53,0
3,58,32,31
3,62,61,22
3,58,34,87
3,65,47,0
3,62,55,12
3,46,43,0
3,72,66,0
3,65,63,0
3,58,43,8
3,62,58,112
3,58,25,76
3,65,34,0
3,65,46,53
3,74,62,0
3,58,24,142
3,46,28,75
3,43,53,27
3,74,58,0
3,69,57,0
3,70,45,0
3,55,35,5
3,43,33,190
3,55,42,120
3,70,34,16
3,67,62,0
3,55,28,74
3,62,34,192
3,55,42,143
3,50,35,35
3,65,61,38
3,43,58,0
3,60,67,0
3,69,66,0
3,55,23,74
3,65,67,132
3,72,66,0
3,55,23,113
3,43,50,61
3,67,63,0
3,62,63,0
3,70,56,0
3,55,41,14
3,62,53,122
3,55,20,44
3,51,45,146
3,70,53,0
3,67,62,0
3,63,57,0
3,58,38,39
3,63,67,99
3,58,34,89
3,67,60,1
3,70,48,0
3,63,48,0
3,58,24,195
3,74,55,163
3,75,43,96
3,48,51,72
3,70,43,0
3,60,41,67
3,60,32,37
3,72,63,44
3,60,25,192
3,67,56,114
3,53,51,472
3,65,67,0
3,69,67,0
3,60,58,71
3,65,76,133
3,69,82,43
3,65,82,0
3,70,87,82
3,67,84,0
3,53,56,0
3,60,48,103
3,67,66,155
3,67,64,123
3,70,68,0
3,53,58,123
3,69,76,0
3,72,71,0
3,60,43,2
3,60,52,80
3,77,57,88
3,69,68,0
3,53,11,148
3,84,53,0
3,77,62,0
3,60,41,154
3,89,64,192
3,77,60,0
3,46,57,332
3,74,57,0
3,65,69,0
3,72,66,0
3,58,57,6
3,65,61,9
3,72,52,68
3,70,64,51
3,58,52,303
3,62,21,144
3,58,51,155
3,72,66,0
3,65,61,0
3,62,61,0
3,62,52,15
3,65,57,62
3,72,66,28
3,62,8,32
3,74,62,41
3,58,33,343
3,72,58,350
3,65,55,0
3,69,57,0
3,43,53,0
3,55,56,95
3,65,52,142
3,69,40,16
3,72,51,0
3,70,51,156
3,43,47,0
3,62,55,0
3,67,57,0
3,55,43,53
3,62,64,98
3,55,47,107
3,67,32,0
3,62,25,0
3,70,28,0
3,43,55,122
3,72,57,0
3,65,62,0
3,69,60,0
3,55,53,9
3,65,56,145
3,72,55,112
3,69,58,0
3,65,55,0
3,43,52,139
3,67,53,0
3,62,55,0
3,70,55,0
3,55,45,14
3,62,20,68
3,62,66,33
3,74,63,0
3,67,21,42
3,63,55,156
3,70,52,0
3,51,55,0
3,67,55,0
3,58,55,35
3,63,53,99
3,58,38,30
3,67,56,41
3,70,46,0
3,63,67,0
3,62,56,27
3,60,67,38
3,63,62,0
3,67,60,0
3,48,60,0
3,60,71,20
3,60,64,17
3,41,53,0
3,70,60,0
3,63,61,0
3,53,27,74
3,60,64,145
3,63,62,0
3,69,63,0
3,53,40,4
3,41,35,18
3,63,62,0
3,53,26,0
3,60,62,0
3,70,62,0
3,53,35,12
3,72,67,192
3,67,46,292
3,46,57,0
3,70,56,0
3,58,53,140
3,65,67,167
3,70,66,107
3,58,28,0
3,58,34,108
3,65,42,151
3,46,3,4
3,65,47,96
3,70,43,0
3,58,13,0
3,58,82,33
3,67,62,0
3,63,62,0
3,53,68,0
3,58,76,153
3,63,61,0
3,67,64,0
3,53,76,0
3,67,64,115
3,63,62,0
3,58,69,0
3,70,61,0
3,69,60,267
3,72,63,0
3,65,53,0
3,77,58,128
3,77,45,257
3,74,58,40
3,70,73,6
3,72,52,0
3,58,56,40
3,67,40,0
3,65,43,0
3,65,42,544
3,74,52,96
3,72,55,39
3,65,40,0
3,43,53,0
3,69,62,0
3,62,56,373
3,67,61,0
3,70,52,0
3,55,34,2
3,75,55,339
3,70,48,0
3,67,51,0
3,51,41,0
3,63,30,0
3,58,45,9
3,63,38,177
3,67,28,72
3,74,58,0
3,58,11,44
3,63,27,66
3,67,57,0
3,67,45,343
3,70,46,0
3,75,50,0
3,48,45,0
3,60,45,52
3,79,62,140
3,60,35,515
3,53,51,19
3,70,48,0
3,72,53,0
3,77,58,0
3,60,45,244
3,65,40,10
3,72,42,192
3,69,51,0
3,65,23,151
3,60,24,170
3,60,26,33
3,53,56,10
3,67,64,45
3,70,62,25
3,75,60,31
3,60,48,1
3,67,45,19
3,70,42,15
3,53,47,148
3,69,50,0
3,77,56,0
3,72,47,28
3,60,53,17
3,84,57,24
3,46,45,25
3,62,57,0
3,72,66,0
3,65,63,0
3,58,46,17
3,62,52,133
3,72,57,69
3,46,29,141
3,65,61,0
3,70,47,0
3,62,53,0
3,58,32,31
3,62,61,22
3,58,34,87
3,65,47,0
3,62,55,12
3,46,43,0
3,72,66,0
3,65,63,0
3,58,43,8
3,62,58,112
3,58,25,76
3,65,34,0
3,65,46,53
3,74,62,0
3,58,24,142
3,46,28,75
3,43,53,27
3,74,58,0
3,69,57,0
3,70,45,0
3,55,35,5
3,43,33,190
3,55,42,120
3,70,34,16
3,67,62,0
3,55,28,74
3,62,34,192
3,55,42,143
3,50,35,35
3,65,61,38
3,43,58,0
3,60,67,0
3,69,66,0
3,55,23,74
3,65,67,132
3,72,66,0
3,55,23,113
3,43,50,61
3,67,63,0
3,62,63,0
3,70,56,0
3,55,41,14
3,62,53,122
3,55,20,44
3,51,45,146
3,70,53,0
3,67,62,0
3,63,57,0
3,58,38,39
3,63,67,99
3,58,34,89
3,67,60,1
3,70,48,0
3,63,48,0
3,58,24,195
3,74,55,163
3,75,43,96
3,48,51,72
3,70,43,0
3,60,41,67
3,60,32,37
3,72,63,44
3,60,25,192
3,67,56,114
3,53,51,472
3,65,67,0
3,69,67,0
3,60,58,71
3,65,76,133
3,69,82,43
3,65,82,0
3,70,87,82
3,67,84,0
3,53,56,0
3,60,48,103
3,67,66,155
3,67,64,123
3,70,68,0
3,53,58,123
3,69,76,0
3,72,71,0
3,60,43,2
3,60,52,80
3,77,57,88
3,69,68,0
3,53,11,148
3,84,53,0
3,77,62,0
3,60,41,154
3,89,64,192
3,77,60,0
3,46,57,332
3,74,57,0
3,65,69,0
3,72,66,0
3,58,57,6
3,65,61,9
3,72,52,68
3,70,64,51
3,58,52,303
3,62,21,144
3,58,51,155
3,72,66,0
3,65,61,0
3,62,61,0
3,62,52,15
3,65,57,62
3,72,66,28
3,62,8,32
3,74,62,41
3,58,33,343
3,72,58,350
3,65,55,0
3,69,57,0
3,43,53,0
3,55,56,95
3,65,52,142
3,69,40,16
3,72,51,0
3,70,51,156
3,43,47,0
3,62,55,0
3,67,57,0
3,55,43,53
3,62,64,98
3,55,47,107
3,67,32,0
3,62,25,0
3,70,28,0
3,43,55,122
3,72,57,0
3,65,62,0
3,69,60,0
3,55,53,9
3,65,56,145
3,72,55,112
3,69,58,0
3,65,55,0
3,43,52,139
3,67,53,0
3,62,55,0
3,70,55,0
3,55,45,14
3,62,20,68
3,62,66,33
3,74,63,0
3,67,21,42
3,63,55,156
3,70,52,0
3,51,55,0
3,67,55,0
3,58,55,35
3,63,53,99
3,58,38,30
3,67,56,41
3,70,46,0
3,63,67,0
3,62,56,27
3,60,67,38
3,63,62,0
3,67,60,0
3,48,60,0
3,60,71,20
3,60,64,17
3,41,53,0
3,70,60,0
3,63,61,0
3,53,27,74
3,60,64,145
3,63,62,0
3,69,63,0
3,53,40,4
3,41,35,18
3,63,62,0
3,53,26,0
3,60,62,0
3,70,62,0
3,53,35,12
3,72,67,192
3,67,46,292
3,46,57,0
3,70,56,0
3,58,53,140
3,65,67,167
3,70,66,107
3,58,28,0
3,58,34,108
3,65,42,151
3,46,3,4
3,65,47,96
3,70,43,0
3,58,13,0
3,65,76,33
3,72,66,0
3,69,66,0
3,43,66,0
3,55,64,0
3,65,79,135
3,69,76,0
3,72,73,0
3,43,71,0
3,55,68,0
3,43,68,39
3,71,91,0
3,74,76,0
3,65,99,0
3,55,73,0
3,48,45,54
3,64,57,0
3,67,63,0
3,74,66,0
3,60,46,17
3,64,52,133
3,74,57,69
3,48,29,141
3,64,53,0
3,67,61,0
3,72,47,0
3,60,32,31
3,64,61,22
3,60,34,87
3,67,47,0
3,48,43,12
3,64,55,0
3,67,63,0
3,74,66,0
3,60,43,8
3,64,58,112
3,60,25,76
3,67,34,0
3,67,46,53
3,76,62,0
3,60,24,142
3,48,28,75
3,45,53,27
3,71,57,0
3,72,45,0
3,76,58,0
3,57,35,5
3,45,33,190
3,57,42,120
3,69,62,16
3,72,34,0
3,57,28,74
3,64,34,192
3,57,42,143
3,52,35,35
3,45,58,38
3,62,67,0
3,67,61,0
3,71,66,0
3,57,23,74
3,67,67,132
3,74,66,0
3,57,23,113
3,45,50,61
3,64,63,0
3,69,63,0
3,72,56,0
3,57,41,14
3,64,53,122
3,57,20,44
3,53,45,146
3,65,57,0
3,69,62,0
3,72,53,0
3,60,38,39
3,65,67,99
3,60,34,89
3,65,48,1
3,69,60,0
3,72,48,0
3,60,24,195
3,76,55,163
3,77,43,96
3,50,51,72
3,72,43,0
3,62,41,67
3,62,32,37
3,74,63,44
3,62,25,192
3,69,56,114
3,55,51,472
3,67,67,0
3,71,67,0
3,62,58,71
3,67,76,133
3,67,82,43
3,71,82,0
3,55,56,82
3,69,84,0
3,72,87,0
3,62,48,103
3,69,66,155
3,69,64,123
3,72,68,0
3,55,58,123
3,71,76,0
3,74,71,0
3,62,43,2
3,62,52,80
3,71,68,88
3,79,57,0
3,55,11,148
3,79,62,0
3,86,53,0
3,62,41,154
3,79,60,192
3,91,64,0
3,67,60,113
3,74,64,3
3,64,53,4
3,60,51,5
3,64,33,155
3,67,55,97
3,74,48,8
3,60,55,149
3,72,62,4
3,67,56,5
3,64,53,4
3,67,57,586
3,74,51,4
3,64,45,4
3,60,43,5
3,76,50,718
3,64,64,366
3,72,64,322
3,69,64,4
3,64,46,331
3,72,60,16
3,67,57,5
3,64,53,4
3,76,46,430
3,84,52,5
3,79,52,8
3,69,57,7
3,65,55,4
3,72,52,4
3,65,82,20
3,64,57,100
3,62,69,3
3,65,55,79
3,72,55,4
3,62,55,5
3,69,48,3
3,69,60,305
3,72,57,4
3,65,52,4
3,65,53,238
3,71,60,4
3,67,56,26
3,64,45,4
3,72,55,3
3,60,43,504
3,64,53,730
3,67,50,4
3,74,55,4
3,71,57,755
3,64,56,3
3,65,57,9
3,69,57,3
3,65,53,399
3,72,56,4
3,65,60,675
3,62,53,3
3,69,57,5
3,65,56,730
3,69,61,4
3,72,62,5
3,71,50,205
3,65,42,5
3,74,42,4
3,64,57,364
3,74,58,4
3,67,58,5
3,72,55,366
3,64,43,7
3,67,47,4
3,76,55,729
3,64,26,752
3,72,51,14
3,69,53,3
3,65,45,5
3,69,50,577
3,65,46,4
3,60,42,4
3,64,56,337
3,69,55,4
3,65,62,339
3,62,56,5
3,69,57,5
3,72,62,589
3,65,55,4
3,69,58,4
3,65,55,214
3,71,58,4
3,64,57,6
3,72,64,4
3,67,58,4
3,64,56,2897
3,72,57,4
3,67,53,4
4,41,79,16271
4,36,67,0
4,31,76,0
4,34,87,0
4,34,91,96
4,34,87,96
4,33,84,0
4,31,91,0
4,31,82,96
4,31,87,96
4,39,87,0
4,39,91,192
4,39,84,96
4,36,82,0
4,36,87,96
4,36,87,192
4,41,84,0
4,41,76,192
4,36,73,0
4,41,82,0
4,41,87,96
4,41,79,96
4,39,68,0
4,36,64,0
4,38,56,0
4,34,84,0
4,34,91,96
4,34,87,96
4,34,95,192
4,34,95,192
4,34,99,96
4,31,99,96
4,31,87,96
4,31,95,96
4,31,103,96
4,31,95,96
4,31,87,96
4,31,91,96
4,39,84,0
4,39,91,96
4,39,87,96
4,39,84,96
4,38,79,0
4,36,87,0
4,36,95,96
4,36,91,96
4,36,87,96
4,41,84,0
4,41,82,96
4,41,79,96
4,36,82,0
4,38,73,0
4,41,84,0
4,41,79,0
4,41,73,96
4,41,60,0
4,43,42,0
4,41,87,0
4,41,84,96
4,38,71,0
4,36,68,0
4,38,79,0
4,34,103,0
4,34,91,96
4,34,99,96
4,41,82,0
4,31,79,0
4,34,84,0
4,34,91,96
4,34,95,96
4,31,111,0
4,31,87,96
4,31,107,96
4,43,73,0
4,31,87,0
4,31,87,96
4,31,84,96
4,43,76,0
4,41,79,0
4,39,95,0
4,39,99,96
4,38,87,0
4,36,99,0
4,36,91,96
4,41,82,0
4,41,82,96
4,41,87,96
4,41,71,96
4,38,73,0
4,36,79,0
4,38,76,0
4,34,99,0
4,34,95,96
4,34,91,96
4,39,82,96
4,40,64,0
4,41,79,0
4,53,63,0
4,53,56,192
4,41,71,0
4,34,87,0
4,34,91,96
4,34,87,96
4,33,84,0
4,31,91,0
4,31,82,96
4,31,87,96
4,39,87,0
4,39,91,192
4,39,84,96
4,36,82,0
4,36,87,96
4,36,87,192
4,41,84,0
4,41,76,192
4,36,73,0
4,41,82,0
4,41,87,96
4,41,79,96
4,39,68,0
4,36,64,0
4,38,56,0
4,34,84,0
4,34,91,96
4,34,87,96
4,34,95,192
4,34,95,192
4,34,99,96
4,31,99,96
4,31,87,96
4,31,95,96
4,31,103,96
4,31,95,96
4,31,87,96
4,31,91,96
4,39,84,0
4,39,91,96
4,39,87,96
4,39,84,96
4,38,79,0
4,36,87,0
4,36,95,96
4,36,91,96
4,36,87,96
4,41,84,0
4,41,82,96
4,41,79,96
4,36,82,0
4,38,73,0
4,41,84,0
4,41,79,96
4,41,73,96
4,41,60,0
4,43,42,0
4,41,87,0
4,41,84,96
4,38,71,0
4,36,68,0
4,38,79,0
4,34,103,0
4,34,91,96
4,34,99,96
4,41,82,0
4,31,79,0
4,34,84,0
4,34,91,96
4,34,95,96
4,31,111,0
4,31,87,96
4,31,107,96
4,43,73,0
4,31,87,0
4,31,87,96
4,31,84,96
4,43,76,0
4,41,79,0
4,39,95,0
4,39,99,96
4,38,87,0
4,36,99,0
4,36,91,96
4,41,82,0
4,41,82,0
4,41,87,96
4,41,71,96
4,38,73,0
4,36,79,0
4,38,76,0
4,34,99,0
4,34,95,96
4,34,91,96
4,41,79,192
4,42,67,0
4,43,66,0
4,31,107,96
4,31,103,96
4,31,87,96
4,31,87,96
4,33,67,0
4,36,79,0
4,38,79,0
4,36,84,0
4,36,91,96
4,36,87,96
4,36,95,192
4,36,95,192
4,36,99,96
4,33,99,96
4,33,87,96
4,33,95,96
4,33,103,96
4,33,95,96
4,33,87,96
4,33,91,96
4,41,84,0
4,41,91,96
4,41,87,96
4,41,84,96
4,40,79,0
4,38,87,0
4,38,95,96
4,38,91,96
4,38,87,96
4,43,84,0
4,43,82,96
4,43,79,96
4,38,82,0
4,40,73,0
4,43,84,0
4,43,79,96
4,43,73,96
4,43,60,0
4,45,42,0
4,43,87,0
4,43,84,96
4,40,71,0
4,31,87,11
4,33,79,92
4,36,76,85
4,36,73,96
4,36,95,0
4,36,107,96
4,40,84,0
4,52,73,0
4,45,82,0
4,45,73,96
4,40,67,0
4,45,69,0
