track,note,velocity,time
1,64,103,284
1,24,113,0
1,60,105,0
1,67,95,0
1,27,109,34
1,28,115,5
1,58,94,0
1,67,95,0
1,62,107,0
1,55,91,30
1,56,96,8
1,29,107,6
1,57,112,0
1,65,114,7
1,41,103,21
1,65,101,6
1,29,120,0
1,53,113,0
1,30,106,38
1,63,103,3
1,31,115,3
1,64,93,0
1,67,87,0
1,53,97,0
1,55,99,0
1,43,87,36
1,65,99,9
1,62,105,0
1,31,118,0
1,55,107,0
1,53,110,0
1,43,99,40
1,55,103,9
1,60,104,0
1,52,95,0
1,36,94,1
1,48,86,157
1,52,85,0
1,55,83,0
1,24,90,0
1,60,86,0
1,67,91,218
1,59,91,0
1,62,91,0
1,35,91,0
1,47,91,0
1,57,85,45
1,67,85,0
1,60,85,0
1,64,85,0
1,33,85,0
1,45,85,0
1,34,89,4
1,62,89,0
1,65,89,0
1,58,89,0
1,46,89,0
1,62,84,0
1,58,84,0
1,55,86,35
1,56,84,8
1,29,110,0
1,57,91,2
1,65,113,14
1,41,91,2
1,53,63,2
1,65,120,14
1,41,88,0
1,60,80,4
1,61,67,0
1,24,99,0
1,62,85,0
1,55,103,9
1,60,103,0
1,64,113,0
1,48,103,0
1,57,76,115
1,60,97,8
1,65,102,0
1,57,73,0
1,65,101,7
1,60,80,0
1,57,84,3
1,65,97,10
1,60,97,0
1,57,76,2
1,65,99,7
1,60,93,0
1,43,97,8
1,55,101,4
1,64,97,0
1,60,103,0
1,24,118,0
1,35,99,261
1,59,91,0
1,47,90,0
1,62,87,1
1,35,107,13
1,47,99,0
1,62,99,0
1,59,105,0
1,33,101,8
1,45,99,1
1,60,93,0
1,57,99,0
1,34,89,4
1,62,89,0
1,65,89,0
1,58,89,0
1,46,89,0
1,62,84,0
1,58,84,0
1,55,86,36
1,56,84,8
1,29,110,0
1,57,91,2
1,65,113,14
1,41,91,2
1,53,63,1
1,65,111,14
1,41,88,0
1,60,80,4
1,61,67,0
1,24,99,0
1,62,85,1
1,55,103,9
1,60,103,0
1,64,103,0
1,48,103,0
1,36,101,42
1,60,115,0
1,24,115,0
1,55,97,0
1,64,99,0
1,36,103,0
1,24,110,3
1,36,103,1
1,24,107,1
1,36,91,26
1,25,109,5
1,37,103,6
1,26,105,0
1,38,99,26
1,27,112,7
1,55,101,0
1,58,103,0
1,63,109,0
1,58,94,26
1,63,100,0
1,55,88,0
1,39,112,0
1,27,92,29
1,27,112,16
1,27,71,13
1,39,109,0
1,58,90,0
1,63,94,0
1,55,85,0
1,27,112,19
1,39,103,12
1,27,106,0
1,58,106,0
1,63,106,0
1,55,99,0
1,63,70,10
1,58,72,0
1,55,66,0
1,39,97,2
1,60,105,12
1,65,110,0
1,57,101,0
1,41,105,0
1,29,118,0
1,60,120,18
1,57,103,0
1,65,115,0
1,41,118,0
1,41,115,8
1,29,113,1
1,65,87,0
1,60,103,0
1,57,91,0
1,41,107,0
1,29,110,13
1,41,118,6
1,65,103,0
1,60,118,0
1,57,103,0
1,57,91,10
1,60,105,0
1,65,107,0
1,41,97,8
1,63,97,12
1,54,106,0
1,60,110,0
1,58,90,0
1,32,120,0
1,58,100,20
1,63,103,0
1,60,115,0
1,54,109,0
1,44,120,0
1,32,86,28
1,32,109,15
1,54,103,15
1,58,100,0
1,63,94,0
1,60,107,0
1,44,120,0
1,32,90,0
1,32,116,27
1,58,112,11
1,63,100,0
1,54,116,0
1,60,120,0
1,32,103,0
1,44,116,0
1,44,59,19
1,32,67,0
1,58,118,4
1,53,110,1
1,62,115,0
1,43,120,0
1,31,107,0
1,58,110,20
1,62,105,0
1,53,101,1
1,67,80,0
1,70,96,41
1,67,93,16
1,65,91,12
1,62,93,4
1,62,93,12
1,61,100,0
1,67,99,1
1,61,80,0
1,60,88,19
1,58,106,7
1,60,105,8
1,55,103,0
1,52,118,0
1,24,113,0
1,36,107,0
1,58,109,40
1,62,103,0
1,53,93,0
1,46,109,0
1,34,120,0
1,60,107,22
1,63,88,0
1,56,109,0
1,32,116,0
1,44,120,0
1,39,116,22
1,58,116,0
1,27,116,0
1,55,95,0
1,63,106,0
1,55,110,36
1,36,120,0
1,64,105,0
1,60,120,0
1,24,115,0
1,36,88,10
1,68,100,10
1,72,120,2
1,69,115,0
1,65,113,0
1,64,110,3
1,67,115,0
1,72,73,1
1,24,110,0
1,63,107,9
1,67,100,2
1,64,107,0
1,36,107,1
1,63,112,7
1,67,101,0
1,36,90,1
1,62,114,13
1,60,115,13
1,67,97,0
1,36,107,0
1,24,115,0
1,52,113,2
1,55,110,0
1,60,115,0
1,28,120,47
1,62,101,24
1,58,103,0
1,57,105,0
1,52,115,0
1,40,90,13
1,29,120,14
1,56,103,22
1,65,103,2
1,57,105,0
1,41,99,2
1,65,120,18
1,57,120,0
1,30,116,31
1,31,118,13
1,63,100,2
1,67,120,2
1,64,120,0
1,63,116,14
1,67,110,0
1,67,77,3
1,62,97,0
1,67,107,18
1,64,105,0
1,60,120,0
1,24,118,19
1,36,115,0
1,36,107,1
1,64,107,14
1,60,115,0
1,55,91,0
1,60,120,9
1,54,112,0
1,55,73,0
1,55,84,1
1,55,71,10
1,60,70,0
1,24,115,24
1,36,120,0
1,60,118,43
1,55,118,0
1,28,120,20
1,55,118,24
1,60,118,0
1,40,103,2
1,29,120,14
1,60,107,24
1,57,101,0
1,53,120,0
1,41,105,30
1,57,120,18
1,60,120,0
1,53,120,0
1,30,120,38
1,31,110,12
1,67,120,48
1,63,120,0
1,64,115,0
1,43,110,8
1,67,110,0
1,63,116,0
1,67,65,6
1,62,90,0
1,67,118,13
1,60,120,0
1,24,120,12
1,66,120,48
1,72,120,0
1,36,42,0
1,67,84,0
1,60,101,24
1,72,120,8
1,67,120,0
1,72,87,3
1,67,105,0
1,24,120,2
1,67,120,47
1,63,120,0
1,64,73,24
1,36,84,0
1,67,103,4
1,63,116,0
1,28,115,0
1,62,103,2
1,67,80,0
1,60,105,0
1,60,115,6
1,67,105,0
1,29,120,3
1,65,118,24
1,60,120,0
1,57,120,0
1,41,110,30
1,65,120,18
1,60,120,0
1,57,120,0
1,30,120,38
1,31,120,12
1,43,113,72
1,60,120,17
1,54,120,0
1,55,72,6
1,60,115,8
1,55,107,0
1,60,99,6
1,55,118,0
1,24,115,23
1,36,120,0
1,60,120,48
1,54,120,0
1,55,90,0
1,60,79,8
1,54,112,0
1,53,109,1
1,52,120,10
1,60,118,0
1,24,118,24
1,60,110,10
1,52,115,0
1,55,118,0
1,36,101,2
1,28,120,15
1,55,110,24
1,52,105,0
1,60,113,0
1,40,103,22
1,29,120,14
1,53,120,24
1,57,120,0
1,60,120,0
1,41,105,14
1,29,68,0
1,60,118,14
1,57,120,0
1,53,120,0
1,30,120,14
1,42,65,0
1,31,120,12
1,63,120,46
1,67,120,2
1,64,120,0
1,31,110,18
1,43,118,0
1,67,113,0
1,63,120,0
1,31,113,7
1,43,120,0
1,67,113,0
1,62,110,0
1,64,120,25
1,67,120,0
1,60,120,0
1,24,120,0
1,36,115,0
1,55,97,45
1,72,84,0
1,67,83,0
1,64,79,0
1,72,69,0
1,57,91,0
1,65,73,1
1,69,81,0
1,72,88,13
1,70,74,0
1,67,91,0
1,58,82,0
1,58,94,17
1,67,79,1
1,70,64,0
1,72,71,1
1,58,97,13
1,70,67,2
1,67,84,0
1,72,85,0
1,57,78,15
1,72,69,0
1,65,76,0
1,69,79,0
1,65,79,11
1,72,79,0
1,69,81,0
1,57,83,0
1,55,79,12
1,72,66,2
1,67,72,0
1,64,56,0
1,55,77,11
1,67,76,0
1,72,72,0
1,64,67,0
1,55,85,14
1,72,78,2
1,64,68,0
1,67,80,0
1,72,66,6
1,65,81,0
1,69,87,0
1,57,88,0
1,72,77,13
1,67,85,0
1,70,68,0
1,58,82,0
1,58,84,7
1,72,66,1
1,67,83,0
1,70,72,0
1,72,83,11
1,70,74,0
1,67,93,0
1,58,82,0
1,57,84,8
1,72,63,2
1,65,70,0
1,69,72,0
1,57,88,14
1,65,77,1
1,69,90,0
1,72,83,0
1,57,81,11
1,65,72,2
1,72,67,0
1,69,73,0
1,72,79,11
1,65,79,0
1,69,87,0
1,57,97,0
1,57,85,15
1,69,77,1
1,72,73,0
1,65,78,0
1,72,83,13
1,69,85,0
1,65,79,0
1,57,91,0
1,36,99,13
1,24,101,0
1,72,91,2
1,67,91,0
1,64,87,0
1,55,88,0
1,36,74,9
1,64,101,22
1,60,120,0
1,55,103,0
1,24,97,12
1,36,95,7
1,60,27,0
1,55,24,0
1,64,55,2
1,60,83,14
1,55,73,0
1,36,77,2
1,60,118,13
1,57,107,0
1,65,115,0
1,65,99,13
1,57,99,0
1,60,107,0
1,55,99,6
1,60,113,1
1,64,103,0
1,36,107,0
1,24,99,0
1,36,64,4
1,64,101,24
1,60,105,0
1,55,91,0
1,55,85,22
1,36,99,14
1,24,103,5
1,64,103,16
1,60,110,0
1,55,99,0
1,55,63,7
1,36,110,0
1,63,120,0
1,55,57,4
1,62,107,0
1,60,90,5
1,36,97,16
1,55,90,0
1,33,107,2
1,45,115,72
1,57,110,21
1,55,110,0
1,60,113,0
1,45,80,0
1,34,106,5
1,58,106,0
1,62,105,0
1,53,81,0
1,60,115,1
1,57,115,0
1,29,110,0
1,53,107,0
1,41,118,0
1,52,83,8
1,55,93,0
1,24,113,0
1,60,95,0
1,36,110,0
1,36,85,0
1,55,101,24
1,60,105,0
1,52,95,0
1,52,81,13
1,36,110,0
1,24,115,8
1,65,101,17
1,57,97,0
1,60,107,0
1,65,91,7
1,60,97,0
1,57,87,0
1,36,83,24
1,55,78,8
1,60,99,0
1,64,90,1
1,55,73,10
1,36,95,0
1,24,99,1
1,60,107,1
1,64,97,0
1,55,97,0
1,36,93,6
1,64,95,23
1,60,103,0
1,55,101,0
1,36,97,21
1,55,76,1
1,24,105,5
1,64,97,36
1,60,107,0
1,55,91,0
1,63,112,7
1,55,78,0
1,36,103,2
1,55,73,9
1,62,105,0
1,60,107,1
1,55,95,19
1,33,113,8
1,45,113,72
1,60,113,20
1,57,99,0
1,55,90,0
1,55,65,5
1,34,109,3
1,58,97,0
1,46,109,0
1,53,105,0
1,62,103,0
1,60,105,1
1,29,99,0
1,53,103,0
1,41,103,0
1,57,107,0
1,52,97,13
1,55,93,0
1,60,99,0
1,36,93,0
1,24,110,0
1,52,71,23
1,36,115,5
1,57,90,5
1,65,101,0
1,60,101,0
1,65,107,9
1,60,115,0
1,57,101,0
1,36,85,14
1,60,101,7
1,65,103,0
1,57,93,1
1,60,115,7
1,55,105,0
1,64,105,0
1,36,99,5
1,27,100,5
1,39,109,0
1,58,109,0
1,63,106,0
1,55,93,0
1,39,84,6
1,55,79,0
1,27,109,0
1,58,103,0
1,63,106,0
1,55,69,16
1,62,55,5
1,39,66,1
1,55,83,11
1,63,112,0
1,58,106,0
1,27,116,30
1,39,109,0
1,63,88,21
1,58,90,0
1,55,83,0
1,63,74,7
1,58,82,0
1,55,70,0
1,39,103,17
1,27,80,0
1,29,101,1
1,57,93,0
1,60,110,0
1,65,110,0
1,41,105,0
1,29,101,10
1,65,115,1
1,57,103,0
1,60,118,0
1,29,105,0
1,41,113,0
1,57,84,19
1,29,105,13
1,60,99,9
1,29,120,0
1,41,115,0
1,57,85,0
1,65,99,0
1,29,118,16
1,41,113,0
1,57,99,24
1,65,115,0
1,60,118,0
1,29,99,9
1,65,90,0
1,60,99,0
1,57,79,0
1,41,74,1
1,41,101,6
1,44,106,6
1,54,94,0
1,60,88,0
1,32,112,0
1,58,77,0
1,63,84,2
1,44,109,30
1,63,94,0
1,54,100,0
1,58,94,0
1,60,105,0
1,32,116,0
1,32,120,9
1,63,90,17
1,58,97,0
1,54,103,0
1,60,110,0
1,32,120,3
1,44,120,0
1,58,100,49
1,54,94,0
1,63,84,0
1,60,110,0
1,32,100,30
1,44,103,0
1,54,109,24
1,58,116,0
1,63,97,0
1,60,120,0
1,44,100,4
1,32,103,0
1,55,93,12
1,62,107,0
1,31,107,0
1,58,100,0
1,43,118,0
1,62,116,15
1,70,116,5
1,69,115,7
1,67,105,6
1,62,73,9
1,60,110,5
1,67,118,4
1,57,101,1
1,58,120,6
1,36,91,27
1,67,101,0
1,48,107,0
1,64,101,0
1,60,113,0
1,65,103,13
1,46,100,1
1,58,106,0
1,34,116,0
1,62,105,0
1,63,94,45
1,56,103,0
1,65,103,0
1,60,103,0
1,44,109,0
1,32,109,0
1,58,100,1
1,67,110,0
1,63,94,0
1,27,109,0
1,39,120,0
1,60,110,0
1,24,115,5
1,36,110,0
1,67,113,0
1,64,105,0
1,60,118,0
1,55,115,0
1,24,110,1
1,63,103,6
1,64,113,3
1,67,113,0
1,36,110,0
1,67,91,1
1,63,106,0
1,67,77,8
1,62,99,0
1,67,95,3
1,60,110,0
1,36,87,26
1,60,110,16
1,55,107,2
1,24,105,0
1,52,113,0
1,36,47,23
1,52,120,3
1,60,120,0
1,55,120,0
1,36,88,0
1,28,115,16
1,52,113,12
1,55,113,0
1,60,118,0
1,28,97,0
1,40,103,0
1,40,62,13
1,60,101,2
1,52,105,0
1,55,113,0
1,29,115,3
1,57,120,11
1,53,107,0
1,60,120,0
1,29,103,0
1,41,115,0
1,29,103,18
1,41,120,17
1,29,120,0
1,53,115,0
1,57,120,1
1,60,118,0
1,53,110,14
1,57,118,0
1,60,118,0
1,29,63,5
1,41,97,0
1,31,120,9
1,66,120,4
1,67,110,2
1,72,120,0
1,43,118,0
1,31,93,1
1,38,57,1
1,72,107,14
1,66,109,0
1,68,64,0
1,72,79,5
1,65,105,0
1,43,83,0
1,72,118,6
1,64,113,0
1,24,115,24
1,68,120,12
1,69,120,3
1,36,99,0
1,67,120,1
1,36,110,2
1,63,120,13
1,64,80,24
1,55,113,8
1,57,97,17
1,36,110,0
1,24,110,9
1,60,118,0
1,52,103,20
1,55,113,0
1,60,110,0
1,36,103,0
1,28,115,13
1,52,113,9
1,60,118,0
1,55,115,0
1,28,105,0
1,40,120,0
1,52,99,11
1,40,74,0
1,55,103,0
1,60,103,0
1,29,115,1
1,57,115,8
1,53,107,0
1,60,118,0
1,29,95,0
1,41,110,0
1,29,101,18
1,29,118,17
1,41,120,0
1,53,103,0
1,57,120,0
1,60,120,0
1,57,107,13
1,53,99,0
1,60,105,0
1,41,91,12
1,29,83,0
1,31,120,1
1,54,120,5
1,55,107,2
1,60,120,0
1,31,105,0
1,43,110,2
1,43,118,11
1,54,120,0
1,31,105,0
1,60,118,0
1,60,101,5
1,53,103,1
1,60,113,13
1,52,120,0
1,24,120,1
1,66,120,9
1,74,99,0
1,72,110,0
1,36,105,2
1,67,81,3
1,60,118,3
1,72,32,1
1,36,101,1
1,72,120,10
1,66,112,0
1,24,115,1
1,67,91,1
1,60,103,24
1,72,80,5
1,64,95,0
1,36,103,0
1,67,99,0
1,60,52,0
1,24,120,3
1,67,17,2
1,72,103,17
1,64,103,0
1,67,110,0
1,60,120,0
1,36,103,24
1,28,120,13
1,28,103,10
1,60,120,0
1,72,105,0
1,67,110,0
1,64,120,0
1,40,115,0
1,60,107,13
1,64,107,0
1,67,97,0
1,40,103,2
1,29,115,11
1,29,93,9
1,65,115,0
1,69,105,0
1,60,115,0
1,41,118,0
1,29,101,21
1,69,110,18
1,65,120,0
1,60,115,0
1,41,118,0
1,29,115,0
1,69,101,10
1,65,113,0
1,60,113,0
1,29,70,10
1,41,107,0
1,31,120,9
1,66,120,7
1,67,113,2
1,72,120,0
1,64,105,0
1,43,107,2
1,31,113,0
1,37,64,0
1,66,97,11
1,63,92,0
1,72,95,0
1,43,113,0
1,31,115,0
1,37,52,2
1,31,77,5
1,72,93,0
1,62,103,2
1,43,91,0
1,65,101,0
1,72,110,10
1,67,110,0
1,64,107,0
1,24,118,23
1,68,120,8
1,64,113,1
1,69,118,0
1,36,110,0
1,64,80,4
1,67,101,0
1,36,101,0
1,63,120,8
1,24,103,0
