track,note,velocity,time
1,1,1,0
1,1,0,0
1,72,127,379
1,67,127,0
1,76,127,0
1,48,116,2
1,48,0,364
1,48,101,20
1,76,0,13
1,72,0,3
1,67,0,0
1,76,123,35
1,72,126,0
1,67,127,0
1,77,126,46
1,76,0,8
1,48,0,11
1,72,0,9
1,67,0,1
1,77,0,0
1,48,97,18
1,72,127,3
1,79,127,3
1,67,123,0
1,76,116,1
1,76,0,69
1,79,0,0
1,67,0,0
1,72,0,0
1,76,126,20
1,67,127,0
1,72,102,5
1,72,0,8
1,48,0,8
1,67,0,14
1,48,106,13
1,72,116,1
1,67,119,0
1,76,0,37
1,72,0,3
1,67,0,3
1,67,126,49
1,76,119,0
1,71,123,0
1,47,104,3
1,48,0,2
1,47,0,108
1,67,0,1
1,71,0,0
1,76,0,4
1,74,114,27
1,71,116,0
1,67,115,0
1,47,104,2
1,47,0,226
1,47,99,14
1,67,0,9
1,74,0,3
1,71,0,0
1,71,118,35
1,67,119,0
1,74,121,0
1,76,109,46
1,74,0,11
1,47,0,1
1,71,0,9
1,67,0,0
1,76,0,3
1,77,127,27
1,71,127,0
1,47,110,0
1,67,127,1
1,67,0,71
1,77,0,0
1,71,0,3
1,76,119,18
1,71,123,0
1,67,123,0
1,47,0,21
1,76,0,21
1,74,115,6
1,47,115,3
1,71,0,43
1,67,0,5
1,74,0,3
1,47,0,21
1,70,125,16
1,65,123,0
1,74,123,0
1,46,103,8
1,46,0,116
1,46,99,28
1,46,0,126
1,46,85,18
1,46,0,62
1,46,111,34
1,65,0,11
1,70,0,6
1,74,0,0
1,70,125,34
1,65,121,1
1,74,118,0
1,74,0,44
1,76,112,2
1,46,0,13
1,70,0,7
1,65,0,0
1,76,0,0
1,46,91,26
1,77,127,1
1,65,124,0
1,70,125,0
1,76,104,6
1,76,0,2
1,65,0,61
1,70,0,0
1,77,0,0
1,70,125,26
1,76,127,0
1,65,126,0
1,46,0,14
1,74,119,34
1,46,109,0
1,76,0,7
1,65,0,54
1,74,0,3
1,70,0,0
1,46,0,27
1,70,120,2
1,74,118,0
1,65,114,0
1,41,103,3
1,41,0,103
1,70,0,2
1,65,0,3
1,74,0,3
1,41,87,33
1,69,108,1
1,72,108,0
1,65,103,0
1,65,0,254
1,69,0,2
1,72,0,3
1,41,0,109
1,81,124,14
1,48,97,1
1,77,123,3
1,72,118,0
1,69,118,0
1,77,0,26
1,81,0,0
1,72,0,1
1,69,0,3
1,48,0,4
1,48,105,11
1,72,116,2
1,77,127,0
1,69,121,0
1,81,127,1
1,48,0,62
1,69,0,1
1,72,0,2
1,81,0,3
1,77,0,1
1,48,92,24
1,77,127,3
1,72,118,0
1,81,126,0
1,69,126,1
1,77,0,30
1,81,0,2
1,72,0,3
1,69,0,6
1,48,0,3
1,48,111,48
1,76,121,4
1,67,124,0
1,72,119,1
1,48,0,343
1,48,89,36
1,76,0,5
1,67,0,0
1,72,0,4
1,76,123,36
1,72,126,0
1,67,124,0
1,76,0,46
1,77,111,1
1,48,0,12
1,72,0,4
1,67,0,5
1,77,0,1
1,76,121,28
1,72,118,0
1,79,127,0
1,67,116,1
1,48,91,1
1,67,0,64
1,79,0,0
1,76,0,3
1,72,0,0
1,76,121,24
1,72,114,0
1,67,119,0
1,48,0,18
1,72,0,16
1,72,113,13
1,48,109,6
1,76,0,29
1,72,0,2
1,67,0,8
1,48,0,23
1,67,121,24
1,71,121,0
1,76,117,0
1,47,104,10
1,47,0,102
1,67,0,5
1,71,0,0
1,76,0,3
1,47,92,10
1,74,107,20
1,71,111,0
1,67,108,0
1,47,0,203
1,47,101,41
1,67,0,6
1,74,0,5
1,71,0,0
1,71,121,36
1,74,119,1
1,67,119,0
1,76,111,48
1,74,0,8
1,47,0,3
1,71,0,7
1,67,0,0
1,76,0,6
1,77,127,23
1,67,127,0
1,71,126,0
1,47,106,1
1,67,0,64
1,77,0,0
1,71,0,3
1,67,121,25
1,71,121,0
1,76,117,0
1,47,0,18
1,76,0,27
1,74,113,2
1,47,107,5
1,74,0,42
1,67,0,0
1,71,0,0
1,47,0,21
1,70,127,21
1,74,126,0
1,65,119,0
1,46,97,12
1,46,0,112
1,46,84,32
1,46,0,226
1,65,0,9
1,74,0,0
1,70,0,3
1,46,105,2
1,70,127,46
1,65,124,0
1,74,124,0
1,74,0,48
1,76,109,2
1,46,0,11
1,70,0,7
1,65,0,0
1,76,0,4
1,46,121,26
1,70,125,1
1,65,121,0
1,77,127,0
1,65,0,61
1,77,0,3
1,70,0,0
1,70,120,28
1,76,123,0
1,65,114,0
1,46,0,29
1,74,115,21
1,46,101,1
1,76,0,6
1,74,0,52
1,65,0,0
1,70,0,0
1,46,0,29
1,65,115,6
1,70,121,0
1,74,118,1
1,41,106,2
1,70,0,104
1,65,0,0
1,74,0,3
1,41,0,6
1,69,110,31
1,72,110,0
1,41,82,0
1,65,101,1
1,41,0,213
1,41,78,26
1,41,0,110
1,41,80,34
1,65,0,40
1,69,0,14
1,72,0,6
1,67,127,159
1,41,0,9
1,72,126,4
1,76,123,4
1,48,123,5
1,67,0,25
1,72,0,1
1,76,0,3
1,76,111,16
1,72,115,0
1,67,115,0
1,72,0,22
1,67,0,3
1,76,0,0
1,76,113,23
1,72,112,0
1,67,113,0
1,67,0,24
1,72,0,0
1,76,0,3
1,48,0,9
1,48,94,15
1,65,118,0
1,69,119,0
1,74,118,1
1,74,0,21
1,69,0,0
1,65,0,1
1,74,114,74
1,69,117,0
1,65,116,0
1,48,0,28
1,57,110,19
1,55,98,47
1,57,0,6
1,65,0,15
1,69,0,0
1,74,0,3
1,55,0,23
1,48,95,2
1,72,113,1
1,64,112,0
1,67,117,0
1,48,0,105
1,48,89,37
1,48,0,143
1,43,94,1
1,67,0,8
1,64,0,2
1,72,0,5
1,43,0,32
1,45,94,1
1,67,126,32
1,45,0,10
1,72,119,1
1,48,118,6
1,76,121,1
1,72,0,26
1,67,0,0
1,76,0,4
1,67,117,13
1,72,117,0
1,76,117,5
1,76,0,20
1,72,0,0
1,67,0,3
1,67,116,22
1,76,119,0
1,72,113,0
1,48,0,10
1,72,0,12
1,76,0,1
1,67,0,0
1,48,95,27
1,69,119,0
1,65,117,0
1,74,118,0
1,65,0,26
1,74,0,1
1,69,0,0
1,74,118,70
1,69,121,0
1,65,118,0
1,57,113,47
1,48,0,3
1,57,0,42
1,55,97,2
1,69,0,6
1,65,0,5
1,74,0,8
1,55,0,27
1,67,115,1
1,64,110,0
1,72,102,0
1,48,88,2
1,48,0,109
1,48,85,34
1,48,0,26
1,48,92,23
1,72,0,119
1,64,0,2
1,67,0,6
1,41,100,65
1,72,112,0
1,69,118,0
1,65,115,0
1,48,0,3
1,69,0,18
1,65,0,1
1,72,0,3
1,65,114,22
1,69,124,0
1,72,118,1
1,65,0,18
1,69,0,1
1,72,0,3
1,69,123,26
1,72,123,0
1,65,119,0
1,41,0,6
1,65,0,21
1,72,0,0
1,69,0,3
1,41,89,18
1,71,115,2
1,67,126,0
1,62,121,0
1,41,0,18
1,62,0,4
1,67,0,0
1,71,0,3
1,41,91,21
1,71,121,48
1,67,127,0
1,62,119,1
1,41,0,56
1,41,82,38
1,41,0,10
1,67,0,3
1,62,0,7
1,71,0,5
1,69,110,22
1,65,113,0
1,60,112,0
1,41,93,2
1,41,0,135
1,48,105,9
1,69,0,69
1,65,0,5
1,67,123,19
1,60,0,10
1,67,0,19
1,65,118,22
1,62,118,0
1,60,114,0
1,69,117,1
1,60,0,40
1,62,0,1
1,65,0,3
1,43,94,2
1,69,0,3
1,48,0,7
1,43,0,11
1,45,107,3
1,72,117,5
1,74,123,10
1,45,0,4
1,72,0,4
1,48,115,2
1,76,114,2
1,72,107,7
1,74,0,5
1,72,0,4
1,76,0,90
1,48,0,12
1,48,95,24
1,67,114,1
1,72,112,0
1,64,107,0
1,48,0,164
1,48,81,26
1,48,0,16
1,48,96,33
1,48,0,102
1,48,87,41
1,48,0,22
1,48,93,27
1,64,0,71
1,67,0,0
1,72,0,6
1,45,87,19
1,48,0,2
1,45,0,44
1,43,83,1
1,67,127,26
1,72,124,17
1,76,114,3
1,43,0,0
1,48,113,3
1,72,0,22
1,67,0,4
1,76,0,2
1,67,119,19
1,76,117,1
1,72,117,0
1,72,0,19
1,76,0,3
1,67,0,0
1,67,117,23
1,72,115,0
1,76,117,5
1,48,0,5
1,67,0,14
1,72,0,0
1,76,0,0
1,69,118,23
1,74,117,0
1,48,86,4
1,65,116,1
1,65,0,17
1,69,0,0
1,48,0,1
1,74,0,0
1,48,104,29
1,69,115,48
1,74,115,0
1,65,113,0
1,48,0,43
1,57,106,5
1,57,0,43
1,55,94,4
1,69,0,19
1,65,0,3
1,74,0,0
1,72,114,24
1,67,124,0
1,64,116,1
1,48,94,1
1,55,0,9
1,48,0,97
1,48,84,39
1,48,0,22
1,48,106,26
1,57,101,95
1,48,0,1
1,64,0,2
1,67,0,3
1,72,0,3
1,57,0,37
1,55,88,2
1,67,121,23
1,72,124,13
1,76,123,7
1,48,106,6
1,55,0,2
1,76,0,26
1,67,0,0
1,72,0,0
1,72,117,17
1,67,117,0
1,76,119,1
1,67,0,21
1,76,0,3
1,72,0,0
1,67,116,24
1,76,117,0
1,72,113,1
1,48,0,10
1,67,0,11
1,72,0,0
1,76,0,3
1,48,92,25
1,74,117,0
1,69,117,0
1,65,117,1
1,48,0,15
1,74,0,5
1,69,0,0
1,65,0,1
1,48,104,26
1,69,121,46
1,74,118,0
1,65,118,1
1,48,0,45
1,57,92,4
1,57,0,46
1,69,0,1
1,55,89,1
1,74,0,8
1,65,0,2
1,72,117,33
1,67,126,0
1,64,117,1
1,48,113,4
1,55,0,2
1,48,0,106
1,48,88,36
1,48,0,16
1,48,113,32
1,64,0,111
1,72,0,0
1,67,0,3
1,48,0,75
1,41,106,3
1,69,127,2
1,72,119,0
1,65,127,0
1,65,0,19
1,69,0,2
1,72,0,1
1,65,118,24
1,69,127,0
1,72,119,1
1,69,0,19
1,65,0,0
1,72,0,3
1,65,121,26
1,69,127,0
1,72,123,1
1,41,0,3
1,65,0,18
1,69,0,3
1,72,0,0
1,41,91,22
1,71,123,4
1,67,127,1
1,62,121,0
1,41,0,11
1,67,0,4
1,71,0,3
1,62,0,0
1,41,99,25
1,71,117,49
1,67,127,1
1,62,118,0
1,41,0,101
1,62,0,20
1,67,0,3
1,71,0,0
1,41,99,18
1,69,117,1
1,60,124,0
1,65,127,0
1,41,0,101
1,41,98,41
1,41,0,42
1,48,106,7
1,69,0,22
1,48,0,4
1,65,0,8
1,67,119,10
1,48,89,4
1,60,0,6
1,67,0,18
1,60,126,22
1,69,123,0
1,65,126,0
1,60,0,25
1,48,0,3
1,65,0,2
1,69,0,5
1,48,87,14
1,48,0,25
1,72,101,2
1,74,116,11
1,72,0,8
1,48,108,3
1,76,119,2
1,74,0,8
1,76,0,84
1,48,0,21
1,64,112,27
1,67,119,0
1,72,116,1
1,48,83,1
1,48,0,23
1,48,94,25
1,48,0,126
1,48,84,17
1,48,0,19
1,48,93,30
1,64,0,6
1,67,0,0
1,72,0,3
1,64,127,38
1,60,124,1
1,55,119,0
1,65,99,43
1,64,0,4
1,48,0,6
1,55,0,5
1,60,0,0
1,65,0,3
1,67,127,33
1,55,123,0
1,60,121,0
1,48,81,2
1,48,0,18
1,48,99,29
1,64,99,50
1,60,0,7
1,60,104,37
1,55,0,19
1,48,0,1
1,67,0,2
1,60,0,3
1,64,0,3
1,48,92,22
1,67,126,47
1,70,120,0
1,79,121,0
1,48,0,0
1,74,123,1
1,46,119,1
1,74,0,25
1,70,0,0
1,67,0,3
1,79,0,1
1,67,118,18
1,70,117,1
1,79,124,0
1,74,116,0
1,74,0,20
1,70,0,0
1,67,0,0
1,79,0,1
1,46,0,22
1,67,119,3
1,79,114,4
1,70,119,0
1,74,115,0
1,74,0,14
1,70,0,0
1,79,0,3
1,67,0,0
1,67,124,29
1,79,123,0
1,70,127,0
1,74,124,0
1,46,108,0
1,46,0,8
1,46,114,40
1,70,0,24
1,74,0,0
1,67,0,0
1,79,0,3
1,70,100,16
1,74,107,0
1,77,97,5
1,67,101,0
1,77,0,9
1,74,0,0
1,70,0,0
1,67,0,6
1,70,99,30
1,74,105,0
1,77,109,0
1,67,103,1
1,74,0,14
1,70,0,0
1,67,0,1
1,77,0,0
1,46,0,12
1,67,127,20
1,53,72,2
1,52,74,1
1,77,115,0
1,70,127,0
1,74,127,0
1,52,0,12
1,53,0,29
1,46,113,7
1,46,0,28
1,46,105,19
1,46,0,49
1,46,114,48
1,46,0,14
1,46,117,34
1,77,0,1
1,74,0,0
1,70,0,8
1,67,0,5
1,77,113,31
1,70,115,0
1,67,115,1
1,74,115,0
1,46,0,85
1,77,0,10
1,53,107,2
1,74,0,1
1,70,0,0
1,67,0,17
1,53,0,30
1,45,106,1
1,69,121,1
1,74,124,0
1,79,127,1
1,79,0,30
1,74,0,0
1,69,0,0
1,74,115,15
1,69,110,1
1,79,119,0
1,79,0,17
1,69,0,0
1,74,0,0
1,74,118,32
1,79,121,0
1,69,108,0
1,45,0,11
1,74,0,4
1,79,0,0
1,69,0,0
1,45,105,32
1,79,127,2
1,74,127,0
1,69,126,0
1,45,0,17
1,45,110,29
1,79,0,24
1,69,0,0
1,74,0,3
1,69,98,17
1,74,104,0
1,77,106,0
1,77,0,18
1,74,0,0
1,69,0,0
1,45,0,26
1,74,118,8
1,77,114,0
1,52,99,0
1,69,108,0
1,69,0,14
1,77,0,0
1,74,0,1
1,77,121,31
1,74,126,0
1,45,88,1
1,69,118,4
1,52,0,2
1,45,0,11
1,45,106,32
1,77,0,65
1,74,0,2
1,69,0,6
1,45,0,34
1,57,114,33
1,64,116,4
1,62,115,0
1,45,104,0
1,45,0,21
1,45,106,27
1,57,0,11
1,62,0,3
1,64,0,3
1,57,118,26
1,65,123,0
1,62,115,1
1,45,0,64
1,62,0,30
1,65,0,3
1,45,95,3
1,57,0,3
1,45,0,7
1,45,125,38
1,73,127,1
1,76,124,0
1,69,126,0
1,79,127,0
1,69,0,28
1,76,0,0
1,73,0,0
1,79,0,1
1,73,123,17
1,79,127,1
1,76,121,0
1,69,118,0
1,73,0,15
1,76,0,1
1,69,0,3
1,79,0,0
1,73,122,27
1,79,123,0
1,76,116,1
1,69,118,0
1,45,0,10
1,76,0,4
1,73,0,0
1,69,0,0
1,79,0,1
1,69,123,32
1,73,125,0
1,76,119,1
1,79,127,0
1,52,99,1
1,52,0,20
1,57,103,28
1,57,0,15
1,69,0,12
1,73,0,3
1,76,0,0
1,79,0,0
1,57,113,17
1,77,126,3
1,73,127,0
1,69,126,1
1,69,0,77
1,73,0,1
1,77,0,0
1,57,0,10
1,73,127,3
1,76,126,0
1,67,127,0
1,69,127,2
1,52,86,0
1,52,0,15
1,45,110,33
1,67,0,21
1,69,0,0
1,73,0,3
1,76,0,0
1,73,127,23
1,76,124,1
1,69,127,0
1,67,127,0
1,76,0,44
1,77,126,2
1,45,0,5
1,67,0,3
1,69,0,0
1,73,0,3
1,77,0,19
1,45,109,20
1,73,127,1
1,79,127,0
1,69,127,0
1,76,127,0
1,45,0,13
1,45,110,34
1,45,0,14
1,79,0,7
1,76,0,9
1,45,108,18
1,77,127,1
1,73,0,18
1,69,0,8
1,77,0,7
1,73,127,14
1,76,123,0
1,67,124,0
1,69,124,6
1,45,0,0
1,69,0,36
1,67,0,1
1,73,0,2
1,45,110,2
1,76,0,1
1,69,121,31
1,45,0,3
1,74,123,8
1,50,113,6
1,79,127,1
1,79,0,39
1,74,0,5
1,77,111,3
1,74,109,0
1,74,0,37
1,77,0,0
1,69,0,0
1,50,0,8
1,76,118,4
1,74,123,0
1,69,124,1
1,69,0,27
1,74,0,2
1,76,0,0
1,77,121,15
1,69,127,0
1,74,127,0
1,50,101,2
1,50,0,10
1,50,103,38
1,50,0,14
1,50,107,33
1,50,0,56
1,74,0,14
