track,note,velocity,time
0,42,127,0
0,42,65,72
0,42,65,72
0,42,65,72
0,31,82,72
0,55,50,0
0,67,62,0
0,74,66,0
0,55,70,0
0,36,70,1
0,67,59,0
0,70,32,0
0,55,73,0
0,67,51,18
0,62,61,48
0,44,105,0
0,31,60,22
0,67,69,0
0,36,50,3
0,55,49,29
0,67,63,0
0,70,69,0
0,67,42,0
0,31,72,1
0,36,89,2
0,70,57,21
0,67,42,1
0,44,116,0
0,74,80,1
0,70,54,0
0,67,30,1
0,70,59,0
0,51,45,0
0,67,48,28
0,36,87,4
0,76,71,0
0,67,52,0
0,72,68,0
0,72,39,0
0,60,55,0
0,48,59,0
0,51,72,0
0,55,82,2
0,36,89,0
0,76,49,1
0,60,59,10
0,44,107,0
0,60,61,45
0,48,52,1
0,36,60,0
0,64,59,28
0,48,52,3
0,60,38,1
0,36,93,0
0,67,54,7
0,44,100,1
0,52,54,1
0,51,35,0
0,53,72,2
0,53,49,1
0,69,61,0
0,65,44,1
0,51,80,0
0,29,85,1
0,69,50,0
0,77,58,0
0,36,91,0
0,69,69,16
0,65,39,2
0,60,62,3
0,44,100,3
0,29,59,15
0,69,66,0
0,36,70,0
0,65,49,1
0,75,41,3
0,65,49,10
0,29,72,1
0,53,54,1
0,72,81,0
0,69,39,0
0,65,38,1
0,69,55,0
0,36,93,0
0,72,75,42
0,65,49,1
0,69,60,0
0,69,59,0
0,51,42,0
0,33,72,2
0,44,110,0
0,65,73,10
0,74,86,0
0,70,54,1
0,70,54,4
0,74,60,2
0,65,52,2
0,46,64,7
0,58,50,1
0,51,78,0
0,36,91,0
0,34,85,1
0,53,80,1
0,58,72,3
0,44,113,0
0,46,57,0
0,58,56,0
0,36,85,1
0,62,55,0
0,58,57,3
0,46,60,0
0,36,95,0
0,51,37,1
0,65,54,0
0,44,107,0
0,59,91,12
0,63,66,3
0,75,43,0
0,70,49,1
0,67,52,0
0,72,59,0
0,51,74,1
0,36,91,1
0,55,74,0
0,36,107,0
0,51,62,1
0,67,74,0
0,63,46,1
0,63,57,3
0,67,65,0
0,60,53,11
0,44,119,3
0,70,76,44
0,67,71,0
0,36,87,1
0,63,46,39
0,51,63,2
0,36,102,2
0,70,69,28
0,67,69,0
0,36,74,18
0,70,78,0
0,67,56,0
0,67,49,1
0,51,36,1
0,44,119,0
0,70,69,13
0,72,78,0
0,64,46,0
0,51,30,3
0,67,58,3
0,55,89,1
0,76,62,1
0,36,76,1
0,60,49,0
0,48,68,0
0,51,51,2
0,36,110,0
0,60,72,2
0,44,116,1
0,48,46,23
0,60,28,0
0,36,59,1
0,36,91,1
0,70,81,3
0,64,59,0
0,48,49,1
0,64,54,0
0,36,74,1
0,60,39,0
0,36,107,1
0,67,71,4
0,64,49,1
0,44,113,4
0,67,55,1
0,31,89,1
0,51,38,0
0,77,51,8
0,69,68,0
0,59,91,2
0,29,89,1
0,65,81,2
0,53,85,0
0,53,62,1
0,36,107,2
0,65,73,25
0,65,80,29
0,51,37,0
0,44,119,1
0,60,60,1
0,29,53,2
0,65,62,0
0,69,70,0
0,36,91,0
0,59,105,1
0,53,65,13
0,65,60,0
0,29,85,1
0,36,105,0
0,65,78,24
0,51,48,2
0,77,93,27
0,65,64,1
0,69,54,0
0,69,63,0
0,59,105,0
0,72,73,1
0,44,102,1
0,36,85,0
0,53,82,22
0,53,70,1
0,41,73,0
0,29,68,1
0,36,110,3
0,60,60,13
0,44,107,5
0,75,72,14
0,29,52,2
0,55,70,2
0,43,62,0
0,74,70,23
0,65,55,2
0,33,74,2
0,45,58,1
0,57,65,0
0,72,61,1
0,70,59,4
0,44,58,1
0,56,51,0
0,36,110,0
0,69,59,1
0,44,78,0
0,32,76,1
0,69,72,18
0,59,57,3
0,74,74,2
0,70,62,1
0,31,91,0
0,67,72,0
0,55,89,1
0,55,61,2
0,82,83,0
0,70,62,0
0,51,110,0
0,36,110,0
0,43,62,1
0,74,79,0
0,74,49,1
0,82,86,24
0,70,53,1
0,74,73,0
0,82,83,24
0,70,59,1
0,74,74,0
0,62,59,0
0,44,91,3
0,82,91,29
0,70,71,0
0,36,89,0
0,74,77,0
0,31,54,1
0,67,52,5
0,55,63,2
0,43,66,0
0,36,110,0
0,31,72,3
0,70,70,28
0,74,85,0
0,51,18,7
0,70,54,0
0,74,82,1
0,38,72,1
0,70,23,0
0,44,102,2
0,51,53,0
0,74,81,11
0,70,50,1
0,51,42,1
0,70,23,0
0,72,46,4
0,67,59,1
0,76,55,1
0,55,50,1
0,55,89,1
0,36,76,1
0,48,34,0
0,52,58,0
0,36,107,0
0,51,93,2
0,70,62,6
0,76,87,0
0,60,68,44
0,44,89,2
0,36,61,18
0,36,91,2
0,48,32,1
0,52,32,0
0,55,65,1
0,64,64,21
0,36,78,1
0,36,110,3
0,55,45,2
0,52,37,1
0,48,28,0
0,67,66,5
0,31,78,0
0,51,44,0
0,44,98,1
0,51,53,6
0,67,71,2
0,69,61,4
0,59,110,0
0,29,76,1
0,65,59,0
0,53,87,0
0,36,110,0
0,41,61,0
0,53,50,1
0,69,76,0
0,65,51,1
0,77,74,1
0,69,73,5
0,65,27,2
0,60,68,25
0,44,87,0
0,69,72,1
0,65,57,0
0,36,89,14
0,72,77,1
0,65,72,0
0,29,76,1
0,69,67,0
0,51,51,30
0,57,69,1
0,65,49,1
0,29,76,1
0,36,107,1
0,45,6,1
0,72,79,24
0,65,70,1
0,69,67,0
0,33,61,8
0,69,66,1
0,44,100,1
0,74,85,1
0,70,67,0
0,65,72,0
0,74,49,1
0,70,56,1
0,65,58,1
0,58,64,1
0,46,66,0
0,53,87,1
0,34,80,1
0,51,66,0
0,36,110,1
0,50,32,2
0,53,32,0
0,58,68,1
0,44,105,0
0,58,55,17
0,46,50,1
0,34,64,1
0,36,100,0
0,53,36,1
0,50,32,1
0,67,70,2
0,62,80,3
0,58,50,1
0,46,51,0
0,36,110,0
0,51,44,0
0,34,78,1
0,53,50,0
0,50,64,0
0,44,116,0
0,67,89,2
0,59,60,0
0,31,66,7
0,63,79,4
0,75,57,1
0,27,70,1
0,67,53,0
0,70,55,1
0,58,89,0
0,36,113,0
0,51,60,1
0,63,60,0
0,51,82,0
0,67,72,1
0,63,74,34
0,44,107,2
0,67,78,1
0,63,63,0
0,36,91,1
0,34,66,2
0,63,53,1
0,67,63,0
0,70,64,0
0,51,33,1
0,39,49,0
0,36,113,0
0,67,76,1
0,51,56,1
0,59,76,0
0,70,68,25
0,67,64,1
0,63,48,0
0,34,64,25
0,70,70,0
0,70,65,1
0,67,71,0
0,44,100,0
0,63,53,1
0,51,29,0
0,70,65,27
0,63,33,2
0,67,32,2
0,76,66,1
0,70,59,2
0,72,52,3
0,60,87,0
0,72,87,0
0,36,91,1
0,48,60,0
0,70,70,0
0,72,80,0
0,64,70,0
0,51,51,1
0,60,44,1
0,36,107,1
0,70,74,39
0,74,87,0
0,64,62,0
0,67,89,1
0,44,100,0
0,72,74,11
0,70,52,0
0,64,62,0
0,51,51,0
0,36,98,1
0,36,57,1
0,51,61,18
0,31,74,0
0,48,64,0
0,60,61,0
0,64,74,1
0,36,113,1
0,67,77,28
0,64,59,1
0,36,62,6
0,60,70,1
0,44,110,3
0,64,77,9
0,77,78,1
0,65,76,2
0,51,64,0
0,29,76,1
0,53,87,1
0,41,47,1
0,36,113,0
0,53,40,1
0,65,84,0
0,60,59,0
0,57,65,0
0,57,80,44
0,65,66,1
0,60,68,0
0,57,52,0
0,44,113,0
0,65,78,12
0,36,93,0
0,29,61,1
0,57,65,0
0,60,64,0
0,51,50,0
0,76,63,13
0,60,74,9
0,52,62,1
0,40,69,0
0,36,113,0
0,51,72,0
0,28,80,2
0,67,82,18
0,64,87,18
0,44,107,1
0,64,76,1
0,60,49,1
0,57,51,0
0,28,89,1
0,65,70,0
0,77,60,1
0,65,95,8
0,65,92,0
0,26,82,2
0,38,59,0
0,51,70,0
0,36,119,1
0,50,6,2
0,69,79,16
0,65,72,1
0,38,119,0
0,60,89,42
0,44,119,2
0,38,127,0
0,45,81,4
0,51,40,18
0,36,112,2
0,26,70,1
0,45,95,0
0,43,78,20
0,57,87,17
0,65,89,1
0,57,74,0
0,48,63,1
0,36,70,0
0,69,116,0
0,36,89,0
0,24,72,1
0,41,89,0
0,41,100,21
0,38,127,21
0,51,66,14
0,69,67,1
0,72,83,0
0,65,67,1
0,53,85,0
0,69,113,0
0,24,72,1
0,72,116,0
0,44,119,1
0,38,127,1
0,45,92,0
0,36,92,0
0,41,108,3
0,68,107,2
0,73,72,1
0,68,70,1
0,77,68,2
0,51,100,1
0,36,127,0
0,55,91,1
0,37,80,1
0,85,97,0
0,73,83,0
0,49,89,0
0,56,48,3
0,49,49,0
0,53,23,0
0,77,127,1
0,56,80,2
0,51,42,15
0,39,113,1
0,38,113,1
0,44,116,0
0,61,80,3
0,36,87,8
0,37,89,3
0,49,53,1
0,56,49,1
0,53,62,0
0,56,80,0
0,51,116,13
0,36,127,0
0,65,102,2
0,32,74,0
0,56,47,1
0,53,44,0
0,49,44,0
0,77,82,0
0,73,57,0
0,61,70,5
0,80,107,4
0,38,127,1
0,51,51,0
0,39,127,1
0,56,72,1
0,44,113,0
0,37,100,1
0,36,21,0
0,61,62,24
0,79,95,25
0,51,89,2
0,51,113,0
0,79,91,0
0,36,127,0
0,39,93,1
0,79,78,0
0,58,51,1
0,75,70,0
0,70,107,0
0,55,58,1
0,51,48,0
0,75,80,14
0,70,82,1
0,58,74,1
0,36,76,24
0,63,66,8
0,38,127,0
0,39,127,1
0,44,119,1
0,51,52,0
0,58,72,10
0,36,91,0
0,58,39,1
0,39,85,1
0,55,50,0
0,51,42,0
0,51,116,27
0,67,110,1
0,58,50,1
0,34,72,1
0,55,63,0
0,36,127,0
0,51,51,1
0,63,87,3
0,55,52,1
0,58,52,0
0,51,36,1
0,39,60,7
0,58,72,1
0,51,64,0
0,55,59,1
0,58,56,0
0,38,127,0
0,51,51,1
0,39,127,0
0,44,102,0
0,58,65,20
0,55,54,1
0,51,39,1
0,63,52,1
0,75,100,1
0,80,100,1
0,80,127,0
0,72,107,1
0,51,60,1
0,32,74,1
0,84,93,0
0,75,77,0
0,56,87,0
0,51,116,0
0,60,54,1
0,36,127,0
0,56,54,2
0,32,43,3
0,63,60,4
0,51,54,0
0,68,70,1
0,44,107,2
0,38,127,0
0,39,127,1
0,82,79,1
0,73,55,0
0,63,74,0
0,39,58,2
0,79,91,0
0,70,113,2
0,75,91,1
0,36,95,0
0,56,45,3
0,51,57,0
0,77,91,0
0,80,86,0
0,51,113,0
0,44,89,1
0,60,34,0
0,68,107,1
0,72,116,1
0,72,38,1
0,72,91,0
0,36,127,1
0,39,51,2
0,68,53,1
0,75,91,4
0,51,57,4
0,70,65,2
0,79,75,1
0,67,110,0
0,72,91,1
0,63,68,0
0,38,122,0
0,39,119,1
0,44,78,0
0,32,61,1
0,68,80,0
0,77,82,2
0,68,80,0
0,73,89,0
0,68,53,1
0,49,62,0
0,51,113,0
0,56,55,1
0,49,60,0
0,53,62,0
0,65,107,0
0,36,127,0
0,77,119,1
0,37,89,1
0,56,80,23
0,61,107,5
0,51,55,1
0,38,122,1
0,44,91,0
0,39,119,0
0,49,33,42
0,56,54,0
0,53,54,0
0,37,57,2
0,36,93,0
0,56,48,1
0,56,60,2
0,56,56,2
0,65,105,0
0,32,66,1
0,53,62,0
0,49,36,0
0,51,100,0
0,36,127,1
0,56,44,27
0,49,33,1
0,53,47,1
0,61,72,2
0,37,59,7
0,38,127,2
0,60,58,1
0,48,81,0
0,44,102,0
0,39,122,0
0,51,55,1
0,56,68,1
0,61,59,7
0,73,66,6
0,68,66,3
0,77,85,3
0,51,113,0
0,49,85,1
0,36,127,1
0,34,91,1
0,46,62,0
0,85,98,0
0,58,48,1
0,73,75,0
0,77,84,0
0,82,84,0
0,73,110,2
0,77,107,1
0,56,57,7
0,36,74,23
0,44,89,13
0,51,50,0
0,39,127,0
0,38,127,1
0,61,105,1
0,58,62,31
0,46,63,0
0,56,60,0
0,36,93,0
0,34,68,3
0,56,70,2
0,65,100,24
0,51,116,0
0,73,67,0
0,77,84,0
0,36,127,0
0,46,69,1
0,58,54,0
0,34,66,1
0,61,44,6
0,80,87,2
0,51,50,0
0,56,64,1
0,44,98,0
0,38,122,0
0,39,127,0
0,34,66,1
0,61,64,8
0,67,110,0
0,79,93,3
0,72,72,1
0,76,95,0
0,52,113,0
0,36,78,1
0,79,81,1
0,76,70,0
0,72,72,1
0,76,75,0
0,48,93,0
0,36,122,0
0,48,54,1
0,55,50,0
0,52,59,1
0,55,85,3
0,44,87,3
0,60,95,1
0,51,21,0
0,38,127,0
0,39,127,1
0,55,56,5
0,52,53,0
0,48,42,1
0,34,53,2
0,55,91,0
0,36,116,0
0,31,60,3
0,55,51,0
0,51,110,0
0,52,49,1
0,48,51,0
0,45,119,0
0,64,95,1
0,45,100,11
0,45,127,6
0,34,58,1
0,60,95,0
0,36,125,0
0,36,127,16
0,57,111,6
0,72,86,1
0,44,100,0
0,55,91,1
0,43,127,0
0,36,91,0
0,38,32,0
0,43,89,0
0,60,107,3
0,41,106,1
0,38,106,2
0,38,119,4
0,38,127,1
0,65,95,3
0,53,42,1
0,72,78,0
0,77,78,0
0,69,66,0
0,36,127,0
0,41,53,1
0,77,113,1
0,29,95,1
0,69,98,0
0,65,107,0
0,60,105,0
0,65,113,0
0,49,127,0
0,77,81,4
0,72,78,1
0,69,65,0
0,65,93,0
0,51,43,1
0,53,93,3
0,44,105,0
0,38,127,0
0,39,127,0
0,41,75,30
0,53,73,0
0,36,95,0
0,29,95,1
0,60,87,0
0,77,92,0
0,69,74,0
0,41,63,1
0,53,57,0
0,65,91,1
0,36,127,0
0,41,89,2
0,51,116,0
0,72,87,27
0,60,93,0
0,29,87,0
0,51,58,9
0,69,74,1
0,38,127,0
0,44,116,0
0,55,64,1
0,43,71,0
0,39,127,0
0,53,95,1
0,31,93,1
0,32,89,1
0,65,91,0
0,61,80,2
0,51,127,2
0,36,127,0
0,45,55,1
0,73,81,0
0,67,79,0
0,76,86,0
0,33,100,1
0,57,49,0
0,64,107,0
0,57,98,0
0,61,85,14
0,44,107,0
0,51,61,0
0,38,127,0
0,64,102,1
0,39,127,0
0,45,60,22
0,57,60,0
0,51,55,1
0,36,107,0
0,33,91,2
0,61,87,0
0,69,116,1
0,36,127,0
0,51,119,1
0,57,62,1
0,45,63,0
0,40,91,1
0,64,105,0
0,61,82,12
0,44,100,0
0,51,66,0
0,33,93,1
0,38,127,0
0,39,127,0
0,73,75,1
0,67,55,1
0,64,74,22
0,51,66,1
0,73,79,1
0,67,57,1
0,62,31,0
0,65,95,1
0,70,87,1
0,36,122,0
0,51,74,1
0,58,93,1
0,34,105,1
0,46,63,1
0,58,62,0
0,74,89,0
0,65,71,1
0,70,63,0
0,62,78,17
0,74,86,4
0,70,57,1
0,65,58,1
0,65,91,0
0,51,60,1
0,38,127,0
0,44,100,0
0,39,127,0
0,62,95,32
0,51,49,1
0,34,78,1
0,36,105,0
0,58,52,2
0,46,51,0
0,73,78,0
0,67,102,10
0,70,110,2
0,36,127,0
0,51,116,1
0,34,89,2
0,74,91,0
0,58,50,1
0,46,52,0
0,65,61,0
0,65,72,22
0,70,69,0
0,38,127,12
0,62,87,1
0,39,127,0
0,51,53,1
0,65,77,1
0,34,95,1
0,44,110,0
0,65,78,7
0,51,87,3
0,69,78,1
0,65,74,1
0,60,59,3
0,65,72,0
0,69,93,1
0,36,127,6
0,29,91,1
0,53,87,0
0,51,110,0
0,41,51,2
0,53,57,0
0,60,89,20
0,36,76,27
0,65,78,15
0,38,127,0
0,39,127,1
0,51,74,0
0,44,113,0
0,36,107,41
0,60,87,1
0,43,62,1
0,55,54,0
0,51,98,0
0,63,116,3
0,52,68,2
0,36,127,0
0,41,84,2
0,53,71,0
0,29,93,1
0,65,80,22
