track,note,velocity,time
1,67,123,384
1,65,87,192
1,67,107,190
1,69,107,190
1,65,123,190
1,60,95,190
1,72,79,190
1,70,87,190
1,69,91,190
1,65,115,190
1,67,95,190
1,69,111,190
1,67,75,190
1,60,91,94
1,62,103,96
1,65,107,94
1,65,127,94
1,60,91,94
1,62,87,94
1,65,95,94
1,65,111,94
1,60,111,94
1,62,91,94
1,60,115,94
1,72,95,94
1,67,103,766
1,60,83,190
1,62,87,190
1,65,103,190
1,65,107,190
1,67,87,190
1,65,115,384
1,67,103,190
1,69,79,190
1,69,87,190
1,72,107,382
1,70,83,190
1,69,107,190
1,65,111,190
1,67,99,190
1,69,75,190
1,67,95,190
1,60,107,94
1,62,107,96
1,65,99,94
1,65,83,94
1,60,95,94
1,62,95,94
1,65,91,94
1,65,95,94
1,60,115,94
1,62,91,94
1,60,83,94
1,72,107,94
1,67,115,766
1,60,107,190
1,62,103,190
1,65,95,190
1,72,91,190
1,69,95,190
1,69,103,384
1,70,103,190
1,69,99,190
1,65,91,190
1,69,115,574
1,69,95,382
1,70,95,190
1,69,95,190
1,65,103,190
1,65,95,190
1,72,107,190
1,70,91,190
1,69,103,190
1,65,59,190
1,67,111,190
1,69,79,190
1,65,107,382
1,72,95,190
1,70,99,190
1,69,103,190
1,65,95,190
1,67,99,190
1,65,87,190
1,65,91,382
1,67,71,190
1,65,91,382
1,69,95,2110
1,67,103,190
1,69,87,190
1,67,87,190
1,69,91,190
1,69,87,766
1,67,95,190
1,69,99,190
1,67,107,574
1,60,91,94
1,62,111,96
1,60,103,94
1,62,91,94
1,65,75,190
1,67,99,190
1,65,99,190
1,70,95,190
1,69,103,382
1,65,103,190
1,65,95,190
1,69,99,958
1,67,87,190
1,69,103,190
1,67,87,190
1,69,115,190
1,69,107,766
1,67,107,190
1,69,95,190
1,67,79,190
1,60,65,94
1,62,99,96
1,60,91,94
1,62,107,94
1,65,91,190
1,67,107,190
1,65,83,190
1,70,107,190
1,69,103,382
1,65,87,190
1,69,99,382
1,69,91,382
1,70,87,190
1,69,103,190
1,65,99,190
1,69,119,574
1,69,83,190
1,69,99,190
1,70,103,190
1,69,83,190
1,65,95,190
1,65,91,190
1,72,111,190
1,70,87,190
1,69,99,190
1,65,71,190
1,67,95,190
1,69,87,190
1,65,95,382
1,72,103,190
1,70,111,190
1,69,99,190
1,65,95,190
1,67,103,190
1,65,83,190
1,67,79,382
1,65,95,190
1,72,76,766
1,60,102,958
1,62,82,190
1,64,107,190
1,65,71,190
1,67,99,190
1,69,75,190
1,70,95,190
1,69,99,190
1,69,111,384
1,70,91,190
1,69,103,190
1,65,83,190
1,69,83,574
1,69,99,382
1,70,95,190
1,69,91,190
1,65,103,190
1,65,95,190
1,72,107,190
1,70,111,190
1,69,99,190
1,65,79,190
1,67,79,190
1,69,107,190
1,65,103,382
1,72,75,190
1,70,107,190
1,69,103,190
1,65,87,190
1,67,111,190
1,65,111,190
1,65,99,382
1,67,99,190
1,65,85,190
1,65,68,382
1,67,79,190
1,69,88,382
1,67,123,766
1,65,87,190
1,67,107,190
1,69,107,190
1,65,123,190
1,60,95,190
1,72,79,190
1,70,87,190
1,69,91,190
1,65,115,190
1,67,95,190
1,69,111,190
1,67,75,190
1,60,91,94
1,62,103,96
1,65,107,94
1,65,127,94
1,60,91,94
1,62,87,94
1,65,95,94
1,65,111,94
1,60,111,94
1,62,91,94
1,60,115,94
1,72,95,94
1,67,103,766
1,60,83,190
1,62,87,190
1,65,103,190
1,65,107,190
1,67,87,190
1,65,115,384
1,67,103,190
1,69,79,190
1,69,87,190
1,72,107,382
1,70,83,190
1,69,107,190
1,65,111,190
1,67,99,190
1,69,75,190
1,67,95,190
1,60,107,94
1,62,107,96
1,65,99,94
1,65,83,94
1,60,95,94
1,62,95,94
1,65,91,94
1,65,95,94
1,60,115,94
1,62,91,94
1,60,83,94
1,72,107,94
1,67,115,766
1,60,107,190
1,62,103,190
1,65,95,190
1,72,91,190
1,69,95,190
1,69,103,384
1,70,103,190
1,69,99,190
1,65,91,190
1,69,115,574
1,69,95,382
1,70,95,190
1,69,95,190
1,65,103,190
1,65,95,190
1,72,107,190
1,70,91,190
1,69,103,190
1,65,59,190
1,67,111,190
1,69,79,190
1,65,107,382
1,72,95,190
1,70,99,190
1,69,103,190
1,65,95,190
1,67,99,190
1,65,87,190
1,65,91,382
1,67,71,190
1,65,91,382
1,69,95,2110
1,67,103,190
1,69,87,190
1,67,87,190
1,69,91,190
1,69,87,766
1,67,95,190
1,69,99,190
1,67,107,574
1,60,91,94
1,62,111,96
1,60,103,94
1,62,91,94
1,65,75,190
1,67,99,190
1,65,99,190
1,70,95,190
1,69,103,382
1,65,103,190
1,65,95,190
1,69,99,958
1,67,87,190
1,69,103,190
1,67,87,190
1,69,115,190
1,69,107,766
1,67,107,190
1,69,95,190
1,67,79,190
1,60,99,94
1,62,95,96
1,60,95,94
1,62,107,94
1,65,91,190
1,67,107,190
1,65,83,190
1,70,107,190
1,69,103,382
1,65,87,190
1,69,99,382
1,69,91,382
1,70,87,190
1,69,103,190
1,65,99,190
1,69,119,574
1,69,83,190
1,69,99,190
1,70,103,190
1,69,83,190
1,65,95,190
1,65,91,190
1,72,111,190
1,70,87,190
1,69,99,190
1,65,71,190
1,67,95,190
1,69,87,190
1,65,95,382
1,72,103,190
1,70,111,190
1,69,99,190
1,65,95,190
1,67,103,190
1,65,83,190
1,67,79,382
1,65,95,190
1,72,75,766
1,60,107,958
1,62,99,190
1,64,107,190
1,65,71,190
1,67,99,190
1,69,75,190
1,70,95,190
1,69,99,190
1,69,111,384
1,70,91,190
1,69,103,190
1,65,83,190
1,69,83,574
1,69,99,382
1,70,95,190
1,69,91,190
1,65,103,190
1,65,95,190
1,72,107,190
1,70,111,190
1,69,99,190
1,65,79,190
1,67,79,190
1,69,107,190
1,65,103,382
1,72,75,190
1,70,107,190
1,69,103,190
1,65,87,190
1,67,111,190
1,65,111,190
1,65,99,382
1,67,99,190
1,65,91,190
1,77,95,574
1,72,107,0
1,69,111,0
2,41,89,0
2,41,87,142
2,41,86,46
2,41,80,142
2,50,101,46
2,50,75,142
2,50,95,46
2,50,91,142
2,48,103,46
2,48,93,142
2,48,99,46
2,48,76,142
2,46,103,46
2,46,93,142
2,45,86,46
2,45,89,142
2,43,87,46
2,43,75,142
2,43,87,46
2,43,80,142
2,41,91,46
2,41,94,142
2,41,86,46
2,41,89,142
2,50,101,46
2,50,82,142
2,50,86,46
2,50,93,142
2,48,102,46
2,48,79,142
2,48,100,46
2,48,76,142
2,46,86,46
2,46,86,142
2,45,103,46
2,45,91,142
2,43,99,46
2,43,81,142
2,48,101,46
2,48,79,142
2,41,85,46
2,41,86,142
2,48,99,46
2,48,81,142
2,41,94,46
2,41,85,142
2,41,94,46
2,41,77,142
2,46,100,46
2,46,91,142
2,45,100,46
2,45,76,142
2,46,101,46
2,46,86,142
2,45,103,46
2,44,94,94
2,43,90,94
2,43,82,142
2,50,104,46
2,50,85,142
2,41,92,46
2,41,93,142
2,48,95,46
2,48,78,142
2,50,85,46
2,50,75,142
2,45,94,46
2,45,92,142
2,45,88,46
2,45,85,142
2,46,99,46
2,46,102,94
2,45,86,94
2,45,76,142
2,46,87,46
2,46,75,142
2,41,89,46
2,41,88,142
2,48,90,46
2,48,85,142
2,50,88,46
2,50,79,142
2,45,88,46
2,45,81,142
2,45,95,46
2,45,75,142
2,46,104,46
2,46,91,94
2,45,98,94
2,45,80,142
2,46,103,46
2,46,89,142
2,41,98,46
2,41,81,142
2,48,103,46
2,48,78,142
2,41,86,46
2,41,94,142
2,48,85,46
2,48,80,142
2,46,102,46
2,46,76,142
2,45,89,46
2,45,83,142
2,46,102,46
2,46,75,142
2,45,99,46
2,45,94,94
2,46,93,94
2,46,80,142
2,48,98,46
2,48,90,142
2,48,92,46
2,48,76,142
2,55,95,46
2,55,91,142
2,41,99,46
2,41,91,142
2,48,88,46
2,48,83,142
2,41,85,46
2,41,82,142
2,43,98,46
2,45,87,94
2,46,103,94
2,46,81,142
2,45,94,46
2,45,86,142
2,46,89,46
2,46,84,142
2,45,92,46
2,45,82,142
2,43,87,46
2,43,92,142
2,41,93,46
2,41,90,142
2,41,89,46
2,41,87,142
2,41,86,46
2,41,80,142
2,50,101,46
2,50,75,142
2,50,95,46
2,50,91,142
2,48,103,46
2,48,93,142
2,48,99,46
2,48,76,142
2,46,103,46
2,46,93,142
2,45,86,46
2,45,89,142
2,43,87,46
2,43,75,142
2,43,87,46
2,43,80,142
2,41,91,46
2,41,94,142
2,41,86,46
2,41,89,142
2,50,101,46
2,50,82,142
2,50,86,46
2,50,93,142
2,48,102,46
2,48,79,142
2,48,100,46
2,48,76,142
2,46,86,46
2,46,86,142
2,45,103,46
2,45,91,142
2,43,99,46
2,43,81,142
2,48,101,46
2,48,79,142
2,41,85,46
2,41,86,142
2,48,99,46
2,48,81,142
2,41,94,46
2,41,85,142
2,41,94,46
2,41,77,142
2,46,100,46
2,46,91,142
2,45,100,46
2,45,76,142
2,46,101,46
2,46,86,142
2,45,103,46
2,44,94,94
2,43,90,94
2,43,82,142
2,50,104,46
2,50,85,142
2,41,92,46
2,41,93,142
2,48,95,46
2,48,78,142
2,50,85,46
2,50,75,142
2,45,94,46
2,45,92,142
2,45,88,46
2,45,85,142
2,46,99,46
2,46,102,94
2,45,86,94
2,45,76,142
2,46,87,46
2,46,75,142
2,41,89,46
2,41,88,142
2,48,90,46
2,48,85,142
2,50,88,46
2,50,79,142
2,45,88,46
2,45,81,142
2,45,95,46
2,45,75,142
2,46,104,46
2,46,91,94
2,45,98,94
2,45,80,142
2,46,103,46
2,46,89,142
2,41,98,46
2,41,81,142
2,48,103,46
2,48,78,142
2,41,86,46
2,41,94,142
2,48,85,46
2,48,80,142
2,46,102,46
2,46,76,142
2,45,89,46
2,45,83,142
2,46,102,46
2,46,75,142
2,45,99,46
2,45,94,94
2,46,93,94
2,46,80,142
2,48,98,46
2,48,90,142
2,48,92,46
2,48,76,142
2,55,95,46
2,55,91,142
2,41,99,46
2,41,91,142
2,48,88,46
2,48,83,142
2,41,85,46
2,41,82,142
2,43,98,46
2,45,87,94
2,46,103,94
2,46,81,142
2,45,94,46
2,45,86,142
2,46,89,46
2,46,84,142
2,45,92,46
2,45,82,142
2,43,87,46
2,43,92,142
2,41,93,46
2,41,90,142
2,41,101,46
2,41,87,142
2,41,88,46
2,41,84,142
3,41,95,0
3,41,103,0
3,38,103,0
3,38,107,0
3,48,99,0
3,48,95,0
3,46,91,0
3,45,99,0
3,43,99,0
3,43,95,0
3,41,99,0
3,41,103,0
3,41,103,0
3,38,111,0
3,38,91,0
3,38,103,0
3,48,87,0
3,48,99,0
3,46,71,0
3,46,99,0
3,45,91,0
3,43,103,0
3,43,107,0
3,36,111,0
3,41,99,0
3,41,99,0
3,41,111,0
3,41,95,0
3,41,75,0
3,41,103,0
3,46,75,0
3,46,107,0
3,45,91,0
3,46,115,0
3,46,79,0
3,45,107,0
3,43,99,0
3,43,95,0
3,43,107,0
3,41,71,0
3,41,83,0
3,41,107,0
3,38,99,0
3,38,87,0
3,38,115,0
3,45,95,0
3,45,67,0
3,46,87,0
3,45,87,0
3,45,91,0
3,46,107,0
3,41,95,0
3,41,107,0
3,41,87,0
3,38,67,0
3,38,99,0
3,38,87,0
3,45,95,0
3,45,99,0
3,46,83,0
3,45,103,0
3,45,83,0
3,46,115,0
3,41,111,0
3,41,87,0
3,41,71,0
3,41,79,0
3,41,103,0
3,41,99,0
3,46,79,0
3,46,83,0
3,45,55,0
3,46,87,0
3,46,95,0
3,45,87,0
3,43,71,0
3,43,107,0
3,48,87,0
3,48,83,0
3,36,55,0
3,41,83,0
3,41,107,0
3,41,79,0
3,41,103,0
3,41,91,0
3,41,83,0
3,46,95,0
3,46,79,0
3,45,83,0
3,46,87,0
3,46,87,0
3,45,103,0
3,43,87,0
3,43,75,0
3,41,103,0
3,41,95,0
3,41,103,0
3,38,103,0
3,38,107,0
3,48,99,0
3,48,95,0
3,46,91,0
3,45,99,0
3,43,99,0
3,43,95,0
3,41,99,0
3,41,103,0
3,41,103,0
3,38,111,0
3,38,91,0
3,38,103,0
3,48,87,0
3,48,99,0
3,46,71,0
3,46,99,0
3,45,91,0
3,43,103,0
3,43,107,0
3,36,111,0
3,41,99,0
3,41,99,0
3,41,111,0
3,41,95,0
3,41,75,0
3,41,103,0
3,46,75,0
3,46,107,0
3,45,91,0
3,46,115,0
3,46,79,0
3,45,107,0
3,43,99,0
3,43,95,0
3,43,107,0
3,41,71,0
3,41,83,0
3,41,107,0
3,38,99,0
3,38,87,0
3,38,115,0
3,45,95,0
3,45,67,0
3,46,87,0
3,45,87,0
3,45,91,0
3,46,107,0
3,41,95,0
3,41,107,0
3,41,87,0
3,38,67,0
3,38,99,0
3,38,87,0
3,45,95,0
3,45,99,0
3,46,83,0
3,45,103,0
3,45,83,0
3,46,115,0
3,41,111,0
3,41,87,0
3,41,71,0
3,41,79,0
3,41,103,0
3,41,99,0
3,46,79,0
3,46,83,0
3,45,55,0
3,46,87,0
3,46,95,0
3,45,87,0
3,43,71,0
3,43,107,0
3,48,87,0
3,48,83,0
3,36,55,0
3,41,83,0
3,41,107,0
3,41,79,0
3,41,103,0
3,41,91,0
3,41,83,0
3,46,95,0
3,46,79,0
3,45,83,0
3,46,87,0
3,46,87,0
3,45,103,0
3,43,87,0
3,43,75,0
3,41,103,0
3,41,99,0
4,65,72,192
4,60,72,0
4,57,72,0
4,53,76,128
4,65,72,96
4,60,72,0
4,57,72,0
4,65,72,0
4,62,72,0
4,57,72,0
4,64,72,96
4,60,72,0
4,55,72,0
4,64,82,388
4,60,82,0
4,55,82,0
4,65,72,128
4,62,72,0
4,58,72,0
4,64,72,128
4,60,72,0
4,57,72,0
4,62,72,128
4,58,72,0
4,55,72,0
4,55,71,196
4,62,82,96
4,58,82,0
4,55,82,0
4,65,72,0
4,60,72,0
4,57,72,0
4,65,72,96
4,62,72,0
4,57,72,0
4,50,69,196
4,65,82,96
4,62,82,0
4,57,82,0
4,64,72,128
4,60,72,0
4,55,72,0
4,64,72,196
4,60,72,0
4,55,72,0
4,46,72,128
4,46,66,96
4,65,72,96
4,62,72,0
4,58,72,0
4,64,72,288
4,60,72,0
4,57,72,0
4,62,72,96
4,58,72,0
4,55,72,0
4,64,72,128
4,60,72,0
4,55,72,0
4,65,72,896
4,60,72,0
4,57,72,0
4,65,76,32
4,60,76,0
4,57,76,0
4,65,72,192
4,60,72,0
4,57,72,0
4,46,60,0
4,65,72,96
4,62,72,0
4,58,72,0
4,64,72,96
4,60,72,0
4,57,72,0
4,65,72,128
4,62,72,0
4,58,72,0
4,64,72,128
4,60,72,0
4,57,72,0
4,62,72,128
4,58,72,0
4,55,72,0
4,62,72,196
4,58,72,0
4,55,72,0
4,65,72,320
4,60,72,0
4,57,72,0
4,65,72,196
4,60,72,0
4,57,72,0
4,62,72,128
4,65,72,0
4,62,72,0
4,57,72,0
4,64,72,96
4,60,72,0
4,57,72,0
4,65,72,128
4,62,72,0
4,58,72,0
4,64,72,128
4,60,72,0
4,57,72,0
4,65,72,128
4,62,72,0
4,58,72,0
4,65,72,320
4,60,72,0
4,57,72,0
4,53,76,128
4,65,72,96
4,60,72,0
4,57,72,0
4,65,72,96
4,62,72,0
4,57,72,0
4,50,68,196
4,65,82,96
4,62,82,0
4,57,82,0
4,64,72,128
4,60,72,0
4,57,72,0
4,65,72,320
4,62,72,0
4,58,72,0
4,64,72,288
4,60,72,0
4,57,72,0
4,62,72,96
4,58,72,0
4,53,72,0
4,65,72,896
4,60,72,0
4,57,72,0
4,65,76,32
4,60,76,0
4,57,76,0
4,65,72,192
4,60,72,0
4,57,72,0
4,62,72,0
4,58,72,0
4,53,72,0
4,64,72,128
4,60,72,0
4,57,72,0
4,65,72,128
4,62,72,0
4,58,72,0
