track,note,velocity,time
1,62,127,0
1,69,127,252
1,62,127,48
1,69,127,26
1,62,127,748
1,69,127,0
1,64,127,78
1,69,127,10
1,66,127,64
1,62,127,124
1,69,127,0
1,62,127,60
1,69,127,4
1,71,127,592
1,62,127,22
1,69,127,0
1,64,127,64
1,69,127,10
1,66,127,72
1,64,127,66
1,69,127,10
1,62,127,14
1,67,127,106
1,74,127,4
1,67,127,64
1,74,127,2
1,76,127,656
1,67,127,64
1,74,127,0
1,73,127,748
1,69,127,4
1,67,127,366
1,71,127,0
1,62,127,336
1,69,127,0
1,62,127,64
1,69,127,10
1,64,127,60
1,69,127,6
1,66,127,112
1,64,127,22
1,71,127,4
1,62,127,368
1,69,127,0
1,62,127,44
1,69,127,10
1,64,127,166
1,66,127,64
1,69,127,0
1,64,127,16
1,57,127,10
1,62,127,144
1,69,127,2
1,64,127,86
1,69,127,6
1,66,127,88
1,62,127,144
1,69,127,0
1,62,127,58
1,69,127,14
1,71,127,620
1,62,127,16
1,69,127,0
1,64,127,64
1,69,127,0
1,66,127,56
1,64,127,74
1,69,127,4
1,69,127,68
1,62,127,10
1,74,127,36
1,67,127,2
1,67,127,60
1,74,127,10
1,76,127,638
1,67,127,72
1,74,127,10
1,73,127,762
1,69,127,10
1,67,127,336
1,71,127,20
1,62,127,310
1,69,127,6
1,64,127,762
1,73,127,0
1,66,127,342
1,74,127,0
1,67,127,8
1,76,127,0
1,78,127,1150
1,69,127,6
1,69,127,60
1,78,127,0
1,76,127,212
1,67,127,4
1,66,127,100
1,74,127,6
1,62,127,34
1,69,127,4
1,69,127,72
1,74,127,0
1,78,127,64
1,74,127,102
1,81,127,0
1,74,127,48
1,81,127,0
1,83,127,70
1,81,127,26
1,74,127,0
1,81,127,78
1,76,127,2
1,78,127,34
1,81,127,32
1,76,127,4
1,81,127,24
1,74,127,12
1,67,127,70
1,71,127,48
1,67,127,4
1,74,127,16
1,76,127,380
1,67,127,28
1,74,127,4
1,78,127,46
1,69,127,16
1,81,127,0
1,74,127,0
1,74,127,86
1,81,127,0
1,74,127,58
1,81,127,0
1,83,127,38
1,81,127,30
1,74,127,2
1,76,127,48
1,81,127,4
1,78,127,48
1,79,127,10
1,76,127,10
1,81,127,80
1,74,127,0
1,79,127,0
1,78,127,18
1,76,127,20
1,71,127,0
1,69,127,0
1,76,127,78
1,71,127,2
1,73,127,330
1,71,127,144
1,76,127,12
1,69,127,16
1,74,127,0
1,78,127,374
1,81,127,46
1,74,127,8
1,76,127,804
1,78,127,52
1,81,127,2
1,76,127,144
1,83,127,0
1,74,127,4
1,81,127,368
1,78,127,346
1,69,127,0
1,76,127,166
1,69,127,58
1,74,127,26
1,71,127,374
1,67,127,0
1,74,127,52
1,67,127,10
1,76,127,368
1,74,127,54
1,67,127,10
1,73,127,772
1,69,127,10
1,67,127,10
1,71,127,4
1,62,127,324
1,69,127,22
1,64,127,758
1,73,127,4
1,74,127,320
1,66,127,16
1,67,127,318
1,76,127,0
1,69,127,1098
1,78,127,0
1,69,127,74
1,78,127,2
1,67,127,244
1,76,127,6
1,66,127,6
1,74,127,30
1,62,127,49048
1,69,127,10
1,66,127,32
1,74,127,10
1,78,127,50
1,69,127,10
1,74,127,26
1,81,127,0
1,74,127,62
1,81,127,0
1,83,127,80
1,81,127,24
1,74,127,0
1,81,127,42
1,76,127,0
1,78,127,18
1,81,127,18
1,76,127,8
1,81,127,24
1,74,127,14
1,71,127,406
1,67,127,0
1,74,127,36
1,67,127,0
1,76,127,400
1,74,127,48
1,67,127,6
1,69,127,10
1,78,127,0
1,81,127,16
1,74,127,2
1,81,127,42
1,74,127,6
1,83,127,360
1,81,127,28
1,74,127,8
1,76,127,44
1,81,127,0
1,78,127,62
1,76,127,28
1,79,127,0
1,78,127,336
1,74,127,16
1,69,127,26
1,76,127,0
1,76,127,144
1,71,127,6
1,73,127,26
1,71,127,96
1,69,127,2
1,76,127,0
1,74,127,212
1,81,127,2
1,76,127,32
1,81,127,6
1,78,127,52
1,74,127,64
1,81,127,0
1,83,127,30
1,74,127,2
1,81,127,0
1,74,127,8
1,81,127,20
1,76,127,0
1,78,127,48
1,79,127,296
1,76,127,0
1,78,127,322
1,74,127,16
1,67,127,0
1,71,127,0
1,74,127,42
1,67,127,0
1,76,127,376
1,74,127,50
1,67,127,4
1,73,127,736
1,69,127,0
1,71,127,344
1,67,127,2
1,66,127,350
1,69,127,0
1,64,127,714
1,73,127,12
1,66,127,340
1,74,127,2
1,76,127,376
1,67,127,2
1,78,127,1132
1,69,127,4
1,76,127,10
1,78,127,46
1,69,127,10
1,76,127,188
1,67,127,10
1,66,127,6
1,74,127,26
1,78,127,90
1,74,127,0
1,81,127,50
1,74,127,14
1,85,127,80
1,76,127,6
1,78,127,64
1,86,127,16
2,50,127,0
2,57,127,102
2,62,127,96
2,66,127,128
2,50,127,106
2,50,127,1416
2,66,127,206
2,62,127,146
2,57,127,4
2,66,127,0
2,45,127,66
2,66,127,204
2,62,127,144
2,57,127,0
2,66,127,230
2,50,127,88
2,66,127,228
2,57,127,144
2,62,127,0
2,66,127,186
2,40,127,0
2,66,127,160
2,42,127,18
2,62,127,0
2,57,127,4
2,66,127,118
2,43,127,26
2,67,127,190
2,50,127,146
2,59,127,14
2,55,127,4
2,47,127,2
2,67,127,0
2,47,127,32
2,67,127,238
2,59,127,122
2,55,127,0
2,50,127,6
2,67,127,72
2,43,127,36
2,67,127,230
2,47,127,150
2,50,127,4
2,55,127,0
2,59,127,8
2,67,127,6
2,50,127,54
2,67,127,32
2,55,127,152
2,50,127,4
2,59,127,0
2,67,127,96
2,50,127,54
2,57,127,42
2,66,127,182
2,57,127,84
2,62,127,0
2,66,127,222
2,45,127,24
2,66,127,214
2,57,127,162
2,62,127,0
2,66,127,198
2,50,127,48
2,66,127,244
2,57,127,140
2,62,127,4
2,66,127,222
2,42,127,76
2,66,127,136
2,43,127,52
2,57,127,0
2,62,127,2
2,45,127,72
2,67,127,198
2,57,127,138
2,61,127,0
2,67,127,238
2,52,127,22
2,67,127,270
2,61,127,124
2,57,127,0
2,67,127,256
2,45,127,10
2,67,127,256
2,61,127,130
2,57,127,4
2,67,127,218
2,47,127,28
2,67,127,208
2,49,127,90
2,61,127,2
2,57,127,0
2,67,127,26
2,50,127,68
2,66,127,174
2,57,127,144
2,62,127,0
2,66,127,214
2,45,127,12
2,66,127,250
2,57,127,132
2,62,127,2
2,66,127,224
2,50,127,46
2,66,127,242
2,57,127,4
2,62,127,0
2,66,127,86
2,40,127,58
2,66,127,170
2,42,127,16
2,57,127,0
2,62,127,0
2,66,127,110
2,43,127,22
2,55,127,16
2,59,127,20
2,67,127,18
2,47,127,80
2,59,127,4
2,55,127,0
2,67,127,66
2,50,127,56
2,67,127,118
2,50,127,140
2,55,127,0
2,59,127,0
2,67,127,0
2,43,127,42
2,67,127,250
2,55,127,150
2,59,127,0
2,67,127,0
2,47,127,18
2,67,127,74
2,50,127,146
2,55,127,0
2,59,127,8
2,67,127,92
2,50,127,94
2,66,127,166
2,62,127,2
2,57,127,4
2,66,127,234
2,50,127,10
2,66,127,230
2,57,127,148
2,62,127,4
2,66,127,192
2,45,127,58
2,67,127,166
2,61,127,144
2,57,127,2
2,67,127,234
2,52,127,20
2,67,127,46
2,61,127,122
2,57,127,6
2,67,127,22
2,50,127,62
2,66,127,168
2,57,127,0
2,62,127,4
2,66,127,290
2,40,127,30
2,66,127,122
2,42,127,4
2,45,127,0
2,62,127,0
2,57,127,4
2,47,127,50
2,66,127,4
2,52,127,32
2,50,127,4
2,57,127,2
2,66,127,154
2,57,127,16
2,62,127,0
2,66,127,212
2,45,127,6
2,66,127,172
2,57,127,158
2,62,127,0
2,66,127,214
2,50,127,24
2,66,127,238
2,57,127,144
2,62,127,6
2,66,127,230
2,45,127,14
2,66,127,244
2,57,127,136
2,62,127,0
2,66,127,204
2,50,127,22
2,66,127,260
2,62,127,140
2,57,127,0
2,66,127,184
2,45,127,0
2,66,127,160
2,60,127,164
2,57,127,0
2,66,127,194
2,43,127,38
2,67,127,166
2,47,127,140
2,50,127,0
2,55,127,4
2,59,127,0
2,67,127,2
2,43,127,30
2,55,127,10
2,59,127,18
2,67,127,62
2,47,127,16
2,50,127,0
2,59,127,10
2,55,127,2
2,67,127,20
2,43,127,22
2,67,127,230
2,50,127,80
2,55,127,0
2,59,127,0
2,47,127,2
2,67,127,42
2,43,127,32
2,67,127,212
2,50,127,58
2,47,127,4
2,59,127,16
2,55,127,0
2,67,127,0
2,50,127,60
2,66,127,170
2,57,127,146
2,62,127,0
2,66,127,216
2,45,127,26
2,66,127,248
2,57,127,136
2,62,127,0
2,66,127,212
2,50,127,16
2,66,127,266
2,57,127,134
2,62,127,0
2,66,127,198
2,42,127,14
2,66,127,124
2,57,127,86
2,62,127,0
2,43,127,4
2,66,127,130
2,45,127,36
2,67,127,182
2,61,127,160
2,57,127,0
2,67,127,78
2,52,127,128
2,67,127,176
2,61,127,4
2,57,127,2
2,67,127,84
2,45,127,22
2,67,127,220
2,61,127,158
2,57,127,6
2,67,127,218
2,47,127,12
2,67,127,140
2,61,127,28
2,49,127,4
2,57,127,2
2,67,127,144
2,50,127,58
2,66,127,134
2,57,127,156
2,62,127,4
2,66,127,2
2,40,127,6
2,57,127,38
2,42,127,34
2,66,127,24
2,45,127,46
2,57,127,0
2,62,127,0
2,47,127,96
2,66,127,0
2,50,127,12
2,66,127,184
2,62,127,136
2,57,127,4
2,66,127,204
2,45,127,78
2,66,127,210
2,57,127,154
2,60,127,0
2,66,127,102
2,43,127,64
2,55,127,22
2,59,127,12
2,67,127,26
2,59,127,162
2,55,127,6
2,67,127,64
2,50,127,32
2,47,127,18
2,67,127,80
2,59,127,128
2,55,127,0
2,50,127,0
2,67,127,56
2,43,127,134
2,67,127,246
2,50,127,138
2,47,127,4
2,59,127,6
2,55,127,0
2,67,127,10
2,43,127,138
2,55,127,6
2,67,127,106
2,50,127,36
2,59,127,2
2,47,127,8
2,55,127,12
2,67,127,82
2,50,127,70
2,66,127,182
2,57,127,164
2,62,127,0
2,66,127,218
2,45,127,14
2,66,127,224
2,50,127,10
2,57,127,0
2,62,127,0
2,66,127,10
2,45,127,42
2,57,127,48
2,67,127,152
2,61,127,144
2,57,127,0
2,52,127,0
2,67,127,22
2,45,127,16
2,67,127,154
2,45,127,10
2,61,127,6
2,57,127,0
2,67,127,16
2,50,127,64
2,66,127,176
2,57,127,154
2,62,127,0
2,66,127,204
2,40,127,96
2,42,127,86
2,66,127,8
2,57,127,24
2,45,127,14
2,47,127,4
2,66,127,0
2,50,127,54
2,66,127,128
2,57,127,154
2,62,127,4
2,66,127,240
2,45,127,46
2,66,127,230
2,57,127,154
2,62,127,4
2,66,127,4
2,50,127,32
2,66,127,114
2,57,127,132
2,62,127,0
2,66,127,224
2,45,127,0
2,66,127,150
2,57,127,144
2,62,127,0
2,66,127,102
2,50,127,54
2,66,127,230
2,62,127,78
2,57,127,2
2,66,127,184
2,40,127,38
2,66,127,168
2,42,127,12
2,60,127,4
2,57,127,2
2,66,127,112
2,43,127,24
2,67,127,188
2,47,127,158
2,59,127,0
2,55,127,0
2,67,127,26
2,50,127,22
2,67,127,22
2,50,127,150
2,47,127,0
2,55,127,22
2,59,127,0
2,67,127,30
2,43,127,38
2,67,127,240
2,47,127,16
2,50,127,0
2,55,127,10
2,59,127,0
2,67,127,58
2,43,127,32
2,67,127,236
2,47,127,138
2,50,127,0
2,55,127,0
2,59,127,0
2,67,127,10
2,50,127,68
2,66,127,160
2,57,127,154
2,62,127,2
2,66,127,220
2,45,127,16
2,66,127,216
2,57,127,160
2,62,127,2
2,66,127,204
2,50,127,20
2,66,127,240
2,57,127,154
2,62,127,0
2,66,127,68
2,42,127,64
2,66,127,130
2,43,127,54
2,62,127,0
2,57,127,20
2,66,127,4
2,45,127,68
2,67,127,188
2,61,127,148
2,57,127,0
2,67,127,208
2,52,127,12
2,67,127,250
2,61,127,4
2,57,127,6
2,67,127,230
2,45,127,96
2,67,127,216
2,61,127,144
2,57,127,4
2,67,127,204
2,47,127,60
2,67,127,184
2,61,127,70
2,49,127,0
2,57,127,4
2,50,127,84
2,66,127,192
2,57,127,144
2,62,127,6
2,66,127,216
2,45,127,86
2,66,127,236
2,57,127,144
2,62,127,4
2,66,127,198
2,50,127,22
2,66,127,250
2,57,127,144
2,62,127,0
2,66,127,202
2,40,127,118
2,66,127,104
2,42,127,4
2,57,127,6
2,62,127,0
2,66,127,116
2,43,127,32
2,67,127,178
2,47,127,142
2,50,127,2
2,59,127,8
2,55,127,2
2,67,127,58
2,43,127,132
2,67,127,222
2,50,127,36
2,55,127,4
2,59,127,4
2,67,127,18
2,43,127,18
2,67,127,244
2,50,127,16
2,47,127,6
2,59,127,0
2,55,127,2
2,67,127,42
2,50,127,58
2,67,127,144
2,43,127,10
2,55,127,28
2,59,127,4
2,67,127,86
2,50,127,54
2,66,127,186
2,57,127,144
2,62,127,2
2,66,127,224
2,45,127,2
2,66,127,230
2,50,127,54
2,57,127,0
2,62,127,0
2,66,127,70
2,45,127,28
2,67,127,174
2,61,127,144
2,57,127,2
2,67,127,210
2,52,127,90
2,67,127,124
2,45,127,106
2,57,127,6
2,61,127,0
2,67,127,214
2,50,127,56
2,66,127,218
2,57,127,146
2,62,127,4
2,66,127,204
2,40,127,114
2,42,127,68
2,66,127,2
2,57,127,26
2,62,127,32
2,45,127,48
2,66,127,100
2,47,127,0
2,50,127,34
2,66,127,228
2,62,127,140
2,57,127,0
2,66,127,200
2,45,127,26
2,66,127,16
2,62,127,160
2,57,127,0
2,66,127,14
2,50,127,54
2,66,127,160
2,57,127,156
2,62,127,0
2,66,127,228
2,45,127,6
2,66,127,206
2,62,127,140
2,57,127,4
2,66,127,176
2,50,127,64
2,66,127,180
2,62,127,144
2,57,127,0
2,66,127,198
2,40,127,30
2,66,127,160
2,60,127,44
2,42,127,4
2,57,127,0
2,66,127,88
2,43,127,22
2,67,127,192
2,47,127,132
2,50,127,0
2,55,127,12
2,59,127,0
2,67,127,32
2,50,127,26
2,67,127,240
2,59,127,50
2,47,127,6
2,55,127,0
2,67,127,42
2,43,127,46
2,67,127,242
2,50,127,142
2,55,127,2
2,59,127,0
2,67,127,66
2,43,127,32
2,67,127,68
2,59,127,136
2,50,127,2
2,55,127,0
2,67,127,80
2,50,127,38
2,66,127,188
2,57,127,160
2,62,127,4
2,66,127,218
2,45,127,12
2,66,127,178
2,57,127,142
2,62,127,2
2,66,127,214
2,50,127,28
2,66,127,156
2,57,127,158
2,62,127,0
2,66,127,208
2,50,127,78
2,66,127,244
2,57,127,150
2,62,127,0
2,66,127,44
2,45,127,38
2,67,127,180
2,61,127,136
2,57,127,8
2,67,127,202
2,52,127,32
2,67,127,234
2,61,127,0
2,57,127,0
2,67,127,248
2,45,127,0
2,67,127,260
2,61,127,2
2,57,127,4
2,67,127,234
2,47,127,90
2,67,127,162
2,61,127,42
2,49,127,2
2,57,127,4
2,67,127,0
2,50,127,34
2,66,127,144
2,57,127,154
2,62,127,4
2,66,127,210
2,40,127,66
2,66,127,62
2,42,127,2
2,45,127,48
2,66,127,204
2,47,127,0
2,50,127,10
2,66,127,164
2,57,127,144
2,62,127,4
2,66,127,214
2,50,127,0
2,66,127,256
2,60,127,136
2,57,127,0
2,66,127,194
2,43,127,18
2,67,127,166
2,59,127,146
2,50,127,4
2,55,127,6
2,67,127,164
2,47,127,36
2,67,127,128
2,50,127,156
2,59,127,10
2,55,127,6
2,67,127,42
2,43,127,42
2,67,127,214
2,59,127,158
2,55,127,6
2,50,127,6
2,67,127,24
2,43,127,10
2,67,127,216
2,59,127,174
2,50,127,10
2,55,127,0
2,67,127,64
2,50,127,64
2,66,127,172
2,57,127,122
2,62,127,22
2,66,127,200
2,50,127,0
2,66,127,248
2,57,127,138
2,62,127,4
2,66,127,218
2,45,127,38
