track,note,velocity,time
0,42,110,912
0,42,0,48
0,42,90,60
0,42,0,46
0,42,90,184
0,42,0,52
0,42,90,332
0,42,0,52
0,56,66,332
0,59,63,192
0,63,66,192
0,59,0,46
0,59,62,146
0,63,0,16
0,68,67,176
0,59,0,12
0,63,61,180
0,59,61,192
0,63,0,20
0,63,63,172
0,59,0,24
0,56,0,46
0,56,67,122
0,68,0,22
0,63,0,12
0,59,68,158
0,63,67,192
0,59,0,112
0,59,68,80
0,63,0,26
0,68,63,166
0,63,66,192
0,59,0,24
0,59,68,168
0,63,0,28
0,68,0,4
0,63,67,160
0,56,0,62
0,68,73,0
0,56,73,0
0,59,0,6
0,63,0,18
0,59,57,168
0,63,68,192
0,59,0,74
0,68,0,50
0,68,66,0
0,59,62,0
0,63,0,24
0,68,59,168
0,63,68,18
0,59,68,2
0,68,0,14
0,63,0,10
0,63,66,32
0,56,68,14
0,63,0,4
0,59,0,26
0,59,66,162
0,63,68,192
0,59,0,42
0,59,67,150
0,63,0,24
0,71,82,0
0,68,68,0
0,71,0,190
0,70,71,0
0,59,0,0
0,59,47,0
0,63,71,0
0,56,0,128
0,59,0,8
0,70,0,54
0,68,73,0
0,56,71,0
0,68,0,188
0,66,67,0
0,59,71,0
0,56,0,168
0,63,0,12
0,68,0,0
0,59,0,6
0,66,0,2
0,70,66,0
0,54,74,0
0,58,78,192
0,66,64,192
0,70,0,180
0,63,67,0
0,63,71,0
0,63,0,68
0,63,61,0
0,70,71,0
0,66,0,52
0,66,62,28
0,63,66,2
0,66,62,100
0,54,66,60
0,58,73,192
0,66,0,34
0,70,0,0
0,63,0,8
0,66,62,150
0,63,66,192
0,71,84,0
0,68,68,0
0,66,0,32
0,71,0,158
0,70,68,0
0,66,62,0
0,63,0,48
0,70,0,142
0,68,74,0
0,63,71,0
0,66,0,46
0,68,0,144
0,66,71,0
0,66,62,0
0,66,0,94
0,68,67,0
0,54,0,14
0,58,0,0
0,63,0,78
0,52,74,4
0,66,0,12
0,68,0,6
0,56,71,28
0,59,64,2
0,63,68,14
0,68,78,192
0,63,0,26
0,63,71,30
0,52,66,26
0,59,57,0
0,64,61,0
0,68,66,0
0,68,0,84
0,52,0,104
0,51,60,4
0,63,57,0
0,64,0,30
0,59,0,96
0,63,0,20
0,68,0,4
0,51,0,42
0,49,63,0
0,56,67,192
0,61,78,0
0,64,67,192
0,64,80,0
0,68,71,0
0,64,0,50
0,64,74,0
0,64,0,38
0,64,80,0
0,71,76,0
0,68,0,14
0,64,0,176
0,63,74,0
0,68,67,0
0,64,0,2
0,64,61,190
0,61,0,58
0,63,0,132
0,61,74,0
0,61,57,0
0,56,0,36
0,49,0,46
0,61,0,12
0,59,71,0
0,64,0,66
0,71,0,10
0,68,0,12
0,59,0,6
0,61,0,0
0,63,73,0
0,47,70,0
0,54,74,192
0,61,71,0
0,63,64,192
0,61,0,60
0,66,66,132
0,71,71,192
0,66,0,18
0,66,68,174
0,63,0,110
0,63,67,82
0,61,60,192
0,63,0,18
0,54,0,54
0,66,0,40
0,54,63,80
0,63,67,0
0,66,63,0
0,61,0,42
0,61,58,150
0,63,0,8
0,66,0,34
0,63,0,84
0,63,66,66
0,71,0,34
0,47,0,90
0,54,0,56
0,66,60,12
0,66,0,134
0,61,0,10
0,63,0,0
0,39,62,0
0,61,80,0
0,51,62,0
0,58,60,0
0,61,66,0
0,63,58,0
0,68,73,0
0,61,0,190
0,63,78,0
0,63,0,94
0,61,78,0
0,39,0,68
0,68,0,24
0,61,0,2
0,43,58,0
0,51,74,0
0,55,96,0
0,61,83,0
0,63,89,0
0,70,83,0
0,59,82,0
0,55,59,0
0,70,73,0
0,59,0,190
0,58,78,0
0,55,0,64
0,58,0,26
0,51,0,6
0,63,0,4
0,55,0,0
0,61,0,2
0,70,0,2
0,51,0,0
0,70,0,36
0,63,0,14
0,61,0,6
0,58,0,20
0,44,61,0
0,51,65,0
0,56,74,0
0,59,83,0
0,63,75,0
0,68,69,0
0,68,74,0
0,59,43,0
0,63,48,0
0,68,57,0
0,56,74,0
0,43,0,22
0,59,82,170
0,63,74,192
0,44,0,136
0,44,52,56
0,68,68,0
0,63,0,26
0,44,0,50
0,59,0,110
0,44,50,6
0,71,78,0
0,68,0,74
0,68,68,118
0,63,71,192
0,68,0,54
0,51,0,64
0,56,0,22
0,59,0,44
0,51,79,8
0,68,66,0
0,63,0,4
0,68,0,10
0,56,83,82
0,68,0,8
0,44,0,8
0,56,0,10
0,44,56,70
0,63,89,0
0,56,73,0
0,63,0,34
0,71,0,6
0,68,0,16
0,68,72,136
0,59,85,0
0,63,80,192
0,59,0,62
0,44,0,60
0,44,54,0
0,68,82,0
0,59,80,0
0,63,0,66
0,44,0,20
0,68,0,8
0,70,80,0
0,70,0,94
0,44,36,0
0,71,88,0
0,68,80,0
0,59,0,76
0,71,0,114
0,70,82,0
0,63,82,0
0,70,0,190
0,68,82,0
0,59,78,0
0,56,0,42
0,68,0,138
0,66,80,0
0,56,67,0
0,51,0,28
0,56,0,36
0,68,0,26
0,63,0,2
0,63,0,4
0,59,0,12
0,68,0,2
0,59,0,6
0,44,0,22
0,66,0,38
0,42,59,16
0,51,74,0
0,63,55,0
0,66,51,0
0,70,63,0
0,54,80,0
0,56,0,18
0,63,0,16
0,68,0,16
0,58,78,46
0,63,84,0
0,70,88,0
0,58,82,0
0,66,74,96
0,75,78,96
0,66,74,0
0,42,0,124
0,70,0,66
0,42,61,2
0,63,80,0
0,63,78,0
0,42,0,58
0,63,0,36
0,61,80,0
0,61,0,94
0,42,54,0
0,63,80,0
0,70,74,0
0,66,0,28
0,66,68,164
0,63,0,8
0,51,59,184
0,63,68,0
0,66,0,32
0,51,0,142
0,53,64,18
0,66,59,0
0,54,0,62
0,58,0,34
0,70,0,2
0,66,0,6
0,63,0,10
0,42,0,4
0,53,0,50
0,42,60,24
0,58,58,0
0,63,53,0
0,66,64,0
0,54,63,0
0,54,78,0
0,66,0,40
0,63,0,6
0,70,0,6
0,58,88,140
0,75,0,120
0,66,0,6
0,63,0,8
0,51,0,48
0,58,0,8
0,66,74,2
0,42,0,148
0,63,0,20
0,42,60,0
0,71,98,0
0,63,74,0
0,42,0,88
0,59,87,8
0,63,78,0
0,42,49,96
0,70,73,0
0,66,0,124
0,71,0,60
0,63,0,4
0,70,88,0
0,66,78,0
0,59,0,20
0,63,0,10
0,58,84,66
0,61,84,0
0,66,69,0
0,66,0,10
0,63,0,4
0,58,0,24
0,70,0,56
0,68,88,0
0,58,61,0
0,63,54,0
0,68,62,0
0,63,73,0
0,66,0,34
0,68,0,156
0,66,80,0
0,66,61,0
0,54,0,38
0,58,0,6
0,66,0,50
0,68,91,0
0,63,0,16
0,68,0,8
0,58,0,14
0,54,0,0
0,42,0,20
0,66,0,10
0,61,0,10
0,40,62,18
0,52,81,0
0,56,76,0
0,63,87,0
0,68,87,0
0,59,62,0
0,63,60,0
0,68,58,0
0,56,66,0
0,70,0,0
0,52,82,0
0,58,0,6
0,63,0,8
0,66,0,0
0,56,80,178
0,59,85,192
0,40,0,162
0,68,0,24
0,40,58,6
0,63,62,0
0,68,73,0
0,63,0,78
0,68,0,0
0,52,0,4
0,52,0,2
0,56,0,22
0,40,0,4
0,63,0,16
0,68,0,4
0,56,0,12
0,59,0,2
0,40,65,0
0,52,84,0
0,58,87,0
0,61,91,0
0,68,91,0
0,68,91,0
0,58,67,0
0,61,60,0
0,66,60,0
0,58,64,0
0,52,82,0
0,56,0,24
0,59,0,0
0,68,0,10
0,63,0,14
0,68,0,142
0,66,82,0
0,58,80,0
0,68,0,132
0,61,0,4
0,52,0,14
0,58,0,4
0,66,0,34
0,52,74,0
0,58,76,0
0,61,84,0
0,66,74,0
0,64,88,0
0,61,74,0
0,64,0,190
0,68,91,0
0,66,63,0
0,70,68,0
0,52,0,28
0,68,0,66
0,66,91,0
0,66,0,10
0,52,0,4
0,61,0,4
0,58,0,10
0,66,0,6
0,61,0,4
0,58,0,20
0,40,0,16
0,39,64,22
0,54,76,0
0,58,87,0
0,61,91,0
0,70,87,0
0,58,66,0
0,63,73,0
0,66,71,0
0,51,78,0
0,66,0,22
0,58,0,6
0,70,0,4
0,61,0,4
0,58,82,156
0,61,74,192
0,66,0,116
0,39,0,18
0,51,0,30
0,39,59,0
0,66,95,0
0,66,66,0
0,70,68,0
0,61,0,58
0,70,0,2
0,54,0,20
0,63,0,10
0,58,0,8
0,66,0,4
0,58,0,38
0,44,51,52
0,56,78,0
0,59,87,0
0,63,84,0
0,71,91,0
0,59,68,0
0,63,63,0
0,68,62,0
0,59,68,0
0,56,80,0
0,39,0,6
0,58,0,18
0,61,0,0
0,58,0,2
0,66,0,2
0,70,0,2
0,66,0,160
0,64,95,0
0,59,88,0
0,64,0,180
0,63,95,0
0,63,80,0
0,44,0,124
0,63,0,66
0,44,52,0
0,66,80,0
0,68,66,0
0,71,73,0
0,68,0,84
0,66,0,10
0,64,91,0
0,63,0,4
0,59,0,8
0,59,0,8
0,63,0,2
0,56,0,8
0,71,0,4
0,59,0,20
0,56,0,22
0,71,0,18
0,37,91,2
0,52,91,0
0,59,68,0
0,64,57,0
0,68,61,0
0,61,66,0
0,52,71,0
0,44,0,6
0,63,0,2
0,68,0,4
0,59,0,4
0,56,91,176
0,59,76,0
0,59,84,192
0,64,100,0
0,61,71,0
0,64,0,190
0,68,91,0
0,63,95,0
0,64,80,0
0,63,0,76
0,64,95,0
0,71,88,96
0,64,0,190
0,71,91,0
0,63,95,0
0,68,68,0
0,64,0,12
0,63,0,178
0,73,84,0
0,61,95,0
0,64,67,0
0,71,0,20
0,61,0,36
0,61,0,134
0,59,88,0
0,61,63,0
0,52,0,52
0,64,0,20
0,68,0,8
0,59,0,14
0,63,88,0
0,59,0,6
0,52,0,10
0,64,0,10
0,37,0,2
0,61,0,4
0,56,0,16
0,59,0,8
0,68,0,14
0,73,0,14
0,35,57,12
0,54,91,0
0,59,67,0
0,63,58,0
0,66,57,0
0,59,63,0
0,63,59,0
0,64,0,0
0,54,80,0
0,71,0,6
0,61,0,14
0,68,0,4
0,59,0,28
0,59,100,140
0,61,91,0
0,66,87,192
0,63,80,0
0,61,0,30
0,71,94,162
0,66,68,0
0,73,84,192
0,71,82,0
0,66,0,10
0,71,0,28
0,75,78,154
0,66,73,0
0,63,0,24
0,73,0,10
0,73,78,158
0,63,80,0
0,75,0,24
0,63,0,70
0,64,82,2
0,71,0,60
0,64,0,34
0,71,91,2
0,63,80,0
0,61,78,0
0,63,0,26
0,66,0,2
0,73,0,8
0,63,0,58
0,61,80,2
0,66,0,28
0,63,0,2
0,59,0,14
0,61,0,50
0,78,91,2
0,59,88,0
0,59,95,0
0,63,71,0
0,66,71,0
0,47,80,0
0,47,80,0
0,66,68,0
0,61,0,12
0,63,78,180
0,61,78,192
0,63,0,30
0,54,0,118
0,59,0,42
0,54,87,2
0,59,78,0
0,61,0,36
0,66,0,6
0,71,0,38
0,59,100,16
0,66,0,18
0,78,0,4
0,59,0,64
0,66,91,10
0,59,80,0
0,61,73,0
0,66,71,0
0,71,94,96
0,35,0,44
0,35,64,52
0,73,84,0
0,63,80,0
0,68,104,0
0,61,0,24
0,71,0,40
0,75,78,32
0,73,0,26
0,35,0,70
0,37,95,0
0,73,87,0
0,66,73,0
0,66,0,60
0,71,88,4
0,59,0,28
0,71,84,4
0,66,0,10
0,71,0,22
0,78,71,0
0,73,0,6
0,54,0,36
0,47,0,8
0,37,0,2
0,35,52,12
0,66,87,0
0,83,76,0
0,66,0,22
0,59,0,2
0,63,0,2
0,59,0,2
0,71,0,8
0,63,0,6
0,66,0,0
0,59,0,8
0,63,0,6
0,85,68,8
0,78,0,6
0,47,0,10
0,54,0,8
0,59,0,12
0,83,0,4
0,66,0,16
0,90,80,8
0,75,0,6
0,85,0,6
0,68,0,18
0,35,0,28
0,35,67,0
0,57,67,0
0,40,71,0
0,56,105,0
0,68,75,0
0,59,70,0
0,63,53,0
0,68,60,0
0,52,59,0
0,63,57,0
0,68,58,0
0,52,82,0
0,68,82,0
0,68,66,0
0,71,76,0
0,87,78,0
0,90,0,26
0,59,100,70
0,68,91,96
0,56,68,0
0,63,82,0
0,71,91,96
0,80,105,96
0,59,85,0
0,40,0,154
0,68,0,24
0,40,58,0
0,59,80,0
0,68,0,72
0,63,0,12
0,40,0,18
0,87,0,56
0,59,0,2
0,71,0,26
0,68,0,0
0,40,68,0
0,59,83,0
0,71,74,0
0,68,74,192
0,66,60,192
0,71,0,6
0,68,0,2
0,80,0,8
0,68,0,2
0,71,0,48
0,57,0,4
0,35,0,34
0,66,0,0
0,71,91,88
0,75,76,0
0,68,91,0
0,59,0,54
0,56,0,8
0,68,0,26
0,70,76,8
0,73,70,0
0,66,92,0
0,75,0,8
0,71,0,10
0,40,0,42
0,70,0,20
0,73,0,6
0,66,0,8
0,40,68,2
0,56,76,0
0,59,84,0
0,71,94,0
0,75,78,0
0,52,0,0
0,52,83,0
0,68,94,0
0,56,0,16
0,59,0,12
0,56,64,164
0,59,0,72
0,59,78,120
0,40,0,130
0,40,65,0
0,68,77,0
0,63,66,0
0,75,0,12
0,71,0,2
0,68,0,58
0,59,0,10
0,56,0,0
0,40,0,8
0,70,77,0
0,63,0,52
0,70,0,8
0,40,64,0
0,56,78,0
0,59,81,0
0,63,91,0
0,71,100,0
0,71,83,0
0,61,74,0
0,71,0,182
0,63,77,0
0,63,78,0
0,61,0,18
0,59,0,58
0,54,85,116
0,83,43,0
0,59,74,0
0,63,0,24
0,83,0,38
0,54,0,0
0,63,0,70
0,52,0,26
0,71,0,30
0,63,77,0
0,63,73,0
0,56,0,4
0,63,0,16
0,59,0,4
0,56,0,18
0,63,0,40
0,68,0,2
0,68,73,0
0,63,0,2
0,68,0,6
0,59,0,0
0,63,0,10
0,68,0,20
0,52,0,2
0,59,0,0
0,68,0,4
0,63,0,44
0,39,57,8
0,54,91,0
0,66,87,0
0,73,91,0
0,68,83,0
0,58,73,0
0,61,67,0
0,66,58,0
0,51,56,0
0,63,51,0
0,66,57,0
0,51,78,0
0,61,78,0
0,66,67,0
0,40,0,28
0,68,0,162
0,58,91,0
0,70,75,0
0,54,67,0
0,70,0,94
0,66,69,2
0,73,0,90
0,61,100,6
0,70,91,0
0,58,74,0
0,66,0,12
0,61,0,116
0,39,0,30
0,39,61,34
0,66,87,0
0,61,80,0
0,66,0,2
0,39,0,78
0,39,62,112
0,66,82,0
0,70,91,192
0,66,0,12
0,30,66,180
0,66,78,0
0,61,0,16
0,39,0,2
0,61,67,174
0,61,0,10
0,54,0,4
0,51,0,8
0,54,0,10
0,66,0,2
0,70,0,2
0,58,0,4
0,58,0,12
0,66,0,36
0,66,0,12
0,61,0,16
0,70,0,16
0,58,0,2
0,61,0,0
0,51,0,22
0,66,0,20
0,63,0,4
0,30,0,8
0,32,74,4
0,56,100,0
0,59,68,0
0,63,61,0
0,68,60,0
0,56,46,0
0,59,39,0
0,56,78,0
0,71,82,0
0,59,105,192
0,59,74,0
0,63,100,192
0,68,78,0
0,71,0,16
0,32,0,138
0,32,68,0
0,68,87,0
0,68,84,0
0,63,68,0
0,68,0,64
0,68,0,28
0,70,73,4
0,32,0,50
0,70,0,38
0,32,74,0
0,71,94,0
0,75,100,0
0,71,88,0
0,66,74,0
0,71,0,174
0,70,75,0
0,68,88,0
0,66,0,18
0,56,0,46
0,70,0,118
0,54,77,0
0,83,35,0
0,35,61,0
0,73,75,0
0,56,82,0
0,32,0,18
0,59,0,12
0,35,0,146
0,73,0,14
0,37,88,0
0,71,73,0
0,59,95,0
0,56,0,16
0,38,68,2
0,54,100,0
0,66,83,0
0,62,64,0
0,66,63,0
0,69,65,0
0,57,58,0
0,62,55,0
0,54,95,0
0,63,0,12
0,68,0,18
0,56,0,8
0,57,94,96
0,57,95,0
0,66,105,192
0,69,88,0
0,38,0,156
0,38,58,36
