track,note,velocity,time
1,68,67,2672
1,72,51,0
1,72,58,136
1,68,58,0
1,68,62,136
1,72,68,0
1,68,61,132
1,72,65,0
1,72,60,132
1,68,56,0
1,68,52,132
1,72,58,0
1,72,61,136
1,68,55,0
1,68,49,128
1,72,57,0
1,72,64,140
1,68,60,0
1,68,54,132
1,72,59,0
1,68,56,132
1,72,56,0
1,68,59,136
1,72,62,0
1,68,66,136
1,72,66,0
1,68,61,136
1,72,64,0
1,68,61,136
1,72,64,0
1,72,61,136
1,68,56,4
1,72,62,136
1,68,58,0
1,68,58,140
1,72,60,0
1,68,57,144
1,72,56,0
1,68,58,140
1,72,62,0
1,72,57,140
1,68,53,0
1,68,54,136
1,72,56,0
1,72,60,144
1,68,56,0
1,68,54,148
1,72,57,0
1,68,55,140
1,72,60,0
1,68,48,136
1,72,54,0
1,68,58,140
1,72,59,4
1,68,61,140
1,72,62,0
1,68,58,144
1,72,61,0
1,68,58,136
1,72,62,0
1,68,58,152
1,72,62,0
1,68,59,140
1,72,64,0
1,68,61,140
1,72,65,0
1,68,58,132
1,72,60,0
1,68,51,136
1,72,54,0
1,68,59,136
1,72,62,0
1,68,58,140
1,72,64,0
1,68,58,140
1,72,61,0
1,68,56,136
1,72,60,0
1,68,56,140
1,72,61,0
1,68,61,144
1,72,65,0
1,68,53,140
1,72,57,0
1,68,57,144
1,72,60,0
1,68,53,144
1,72,59,0
1,68,59,132
1,72,61,4
1,68,52,136
1,72,57,0
1,68,54,128
1,72,58,4
1,68,58,136
1,72,62,0
1,70,65,128
1,67,60,0
1,70,58,136
1,67,55,0
1,70,59,140
1,67,55,0
1,70,59,136
1,67,55,0
1,70,60,140
1,67,59,0
1,70,62,136
1,67,54,0
1,70,57,140
1,67,58,0
1,70,58,140
1,67,55,0
1,70,58,136
1,67,54,0
1,70,61,136
1,67,58,0
1,70,56,136
1,67,54,0
1,70,60,140
1,67,53,0
1,70,60,140
1,67,58,0
1,70,57,144
1,67,55,0
1,70,58,144
1,67,58,0
1,70,60,140
1,67,58,0
1,68,67,148
1,72,51,0
1,72,58,136
1,68,58,0
1,68,62,136
1,72,68,0
1,68,61,132
1,72,65,0
1,72,60,132
1,68,56,0
1,68,52,132
1,72,58,0
1,72,61,136
1,68,55,0
1,68,49,128
1,72,57,0
1,72,64,140
1,68,60,0
1,68,54,132
1,72,59,0
1,68,56,132
1,72,60,0
1,68,59,136
1,72,62,0
1,68,66,136
1,72,66,0
1,68,61,136
1,72,64,0
1,68,61,136
1,72,64,0
1,72,61,136
1,68,56,4
1,72,62,136
1,68,58,0
1,68,58,140
1,72,60,0
1,68,57,144
1,72,56,0
1,68,58,140
1,72,62,0
1,72,57,140
1,68,53,0
1,68,54,136
1,72,56,0
1,72,60,144
1,68,56,0
1,68,54,148
1,72,57,0
1,68,55,140
1,72,60,0
1,68,48,136
1,72,54,0
1,68,58,140
1,72,59,4
1,68,61,140
1,72,62,0
1,68,58,144
1,72,61,0
1,68,58,136
1,72,62,0
1,68,58,152
1,72,62,0
1,68,59,140
1,72,64,0
1,68,61,140
1,73,65,0
1,73,60,132
1,68,58,0
1,73,54,136
1,68,51,0
1,73,62,136
1,68,59,0
1,73,64,140
1,68,58,0
1,73,61,140
1,68,58,0
1,73,60,136
1,68,56,0
1,73,61,140
1,68,56,0
1,68,61,144
1,72,65,0
1,68,53,140
1,72,57,0
1,68,57,144
1,72,60,0
1,68,53,144
1,72,59,0
1,68,59,132
1,72,61,4
1,68,52,136
1,72,57,0
1,68,54,128
1,72,58,4
1,68,58,136
1,72,62,0
1,70,65,128
1,67,60,0
1,70,58,136
1,67,55,0
1,70,59,140
1,67,55,0
1,70,59,136
1,67,55,0
1,70,60,140
1,67,59,0
1,70,62,136
1,67,54,0
1,70,57,140
1,67,58,0
1,70,58,140
1,67,55,0
1,70,58,136
1,67,54,0
1,70,61,136
1,67,58,0
1,70,56,136
1,67,54,0
1,70,60,140
1,67,53,0
1,70,60,140
1,67,58,0
1,70,57,144
1,67,55,0
1,70,58,144
1,67,58,0
1,70,60,140
1,67,58,0
1,68,85,148
1,72,79,0
1,68,77,140
1,72,70,0
1,68,84,148
1,72,80,0
1,68,84,124
1,72,78,0
1,68,87,100
1,72,84,0
1,72,86,120
1,68,87,4
1,72,84,136
1,68,84,0
1,72,83,128
1,68,84,0
1,72,83,128
1,68,89,0
1,68,78,124
1,72,78,0
1,68,79,124
1,72,85,0
1,68,85,128
1,72,84,0
1,72,84,116
1,68,87,0
1,72,81,116
1,68,82,0
1,72,76,112
1,68,70,0
1,72,73,108
1,68,71,0
1,73,84,116
1,68,91,0
1,73,79,128
1,68,93,0
1,73,77,136
1,68,87,0
1,73,67,136
1,68,78,0
1,68,93,144
1,73,78,0
1,73,71,128
1,68,89,0
1,73,77,136
1,68,89,0
1,73,73,136
1,68,89,0
1,73,70,136
1,68,85,0
1,73,61,128
1,68,72,0
1,68,79,120
1,73,68,0
1,73,71,136
1,68,84,0
1,73,74,132
1,68,89,0
1,73,78,132
1,68,89,0
1,68,95,132
1,73,75,0
1,73,82,120
1,68,93,0
1,70,91,128
1,73,87,0
1,73,91,128
1,70,93,0
1,73,89,128
1,70,93,0
1,73,82,140
1,70,84,0
1,70,82,140
1,73,78,0
1,70,73,128
1,73,68,0
1,70,81,136
1,73,77,0
1,70,81,136
1,73,71,0
1,73,75,144
1,70,79,0
1,70,77,120
1,73,71,0
1,70,79,120
1,73,73,0
1,70,74,140
1,73,65,0
1,70,91,148
1,73,85,0
1,70,82,144
1,73,77,0
1,70,72,144
1,73,67,0
1,70,84,140
1,73,78,0
1,75,78,132
1,70,89,0
1,75,73,124
1,70,84,0
1,70,91,124
1,75,87,0
1,75,81,140
1,70,91,0
1,75,82,136
1,70,87,0
1,70,84,124
1,75,81,0
1,70,87,128
1,75,82,0
1,70,78,128
1,75,71,0
1,75,81,120
1,70,89,0
1,70,82,124
1,75,71,0
1,70,82,128
1,75,72,0
1,75,71,128
1,70,78,0
1,75,79,136
1,70,87,0
1,75,72,124
1,70,82,0
1,75,73,120
1,70,84,0
1,67,61,12
1,75,79,132
1,70,89,0
1,67,68,12
1,68,67,140
1,72,51,0
1,72,58,136
1,68,58,0
1,68,62,136
1,72,68,0
1,68,61,132
1,72,65,0
1,72,60,132
1,68,56,0
1,68,52,132
1,72,58,0
1,72,61,136
1,68,55,0
1,68,49,128
1,72,57,0
1,72,64,140
1,68,60,0
1,68,54,132
1,72,59,0
1,68,56,132
1,72,60,0
1,68,59,136
1,72,62,0
1,68,66,136
1,72,66,0
1,68,61,136
1,72,64,0
1,68,61,136
1,72,64,0
1,72,61,136
1,68,56,4
1,72,62,136
1,68,58,0
1,68,58,140
1,72,60,0
1,68,57,144
1,72,56,0
1,68,58,140
1,72,62,0
1,72,57,140
1,68,53,0
1,68,54,136
1,72,56,0
1,72,60,144
1,68,56,0
1,68,54,148
1,72,57,0
1,68,55,140
1,72,60,0
1,68,48,136
1,72,54,0
1,68,58,140
1,72,59,4
1,68,61,140
1,72,62,0
1,68,58,144
1,72,61,0
1,68,58,136
1,72,62,0
1,68,58,152
1,72,62,0
1,68,59,140
1,72,64,0
1,68,61,140
1,72,65,0
1,68,58,132
1,72,60,0
1,68,51,136
1,72,54,0
1,68,59,136
1,72,62,0
1,68,58,140
1,72,64,0
1,68,58,140
1,72,61,0
1,68,56,136
1,72,60,0
1,68,56,140
1,72,61,0
1,68,61,144
1,72,65,0
1,68,53,140
1,72,57,0
1,68,57,144
1,72,60,0
1,68,53,144
1,72,59,0
1,68,59,132
1,72,61,4
1,68,52,136
1,72,57,0
1,68,54,128
1,72,58,4
1,68,58,136
1,72,62,0
1,70,65,128
1,67,60,0
1,70,58,136
1,67,55,0
1,70,59,140
1,67,55,0
1,70,59,136
1,67,55,0
1,70,60,140
1,67,59,0
1,70,62,136
1,67,54,0
1,70,57,140
1,67,58,0
1,70,58,140
1,67,55,0
1,70,58,136
1,67,54,0
1,70,61,136
1,67,58,0
1,70,56,136
1,67,54,0
1,70,60,140
1,67,53,0
1,70,60,140
1,67,58,0
1,70,57,144
1,67,55,0
1,70,58,144
1,67,58,0
1,70,60,140
1,67,58,0
1,68,67,148
1,72,51,0
1,72,58,136
1,68,58,0
1,68,62,136
1,72,68,0
1,68,61,132
1,72,65,0
1,72,60,132
1,68,56,0
1,68,52,132
1,72,58,0
1,72,61,136
1,68,55,0
1,68,49,128
1,72,57,0
1,72,64,140
1,68,60,0
1,68,54,132
1,72,59,0
1,68,56,132
1,72,60,0
1,68,59,136
1,72,62,0
1,68,66,136
1,72,66,0
1,68,61,136
1,72,64,0
1,68,61,136
1,72,64,0
1,72,61,136
1,68,56,4
1,72,62,136
1,68,58,0
1,68,58,140
1,72,60,0
1,68,57,144
1,72,56,0
1,68,58,140
1,72,62,0
1,72,57,140
1,68,53,0
1,68,54,136
1,72,56,0
1,72,60,144
1,68,56,0
1,68,54,148
1,72,57,0
1,68,55,140
1,72,60,0
1,68,48,136
1,72,54,0
1,68,58,140
1,72,59,4
1,68,61,140
1,72,62,0
1,68,58,144
1,72,61,0
1,68,58,136
1,72,62,0
1,68,58,152
1,72,62,0
1,68,59,140
1,72,64,0
1,68,61,140
1,73,65,0
1,73,60,132
1,68,58,0
1,73,54,136
1,68,51,0
1,73,62,136
1,68,59,0
1,73,64,140
1,68,58,0
1,73,61,140
1,68,58,0
1,73,60,136
1,68,56,0
1,73,61,140
1,68,56,0
1,68,61,144
1,72,65,0
1,68,53,140
1,72,57,0
1,68,57,144
1,72,60,0
1,68,53,144
1,72,59,0
1,68,59,132
1,72,61,4
1,68,52,136
1,72,57,0
1,68,54,128
1,72,58,4
1,68,58,136
1,72,62,0
1,70,65,128
1,67,60,0
1,70,58,136
1,67,55,0
1,70,59,140
1,67,55,0
1,70,59,136
1,67,55,0
1,70,60,140
1,67,59,0
1,70,62,136
1,67,54,0
1,70,57,140
1,67,58,0
1,70,58,140
1,67,55,0
1,70,58,136
1,67,54,0
1,70,61,136
1,67,58,0
1,70,56,136
1,67,54,0
1,70,60,140
1,67,53,0
1,70,60,140
1,67,58,0
1,70,57,144
1,67,55,0
1,70,58,144
1,67,58,0
1,70,60,140
1,67,58,0
2,32,78,2668
2,32,67,5564
2,32,72,5160
2,29,79,2040
2,37,64,2204
2,36,75,672
2,27,88,628
2,32,127,1976
2,32,110,24
2,32,125,460
2,32,125,392
2,32,127,108
2,32,113,24
2,32,127,520
2,25,127,592
2,25,110,20
2,25,127,504
2,25,127,420
2,25,127,128
2,25,107,28
2,25,113,508
2,36,120,128
2,34,122,44
2,32,113,8
2,34,127,12
2,34,118,28
2,34,126,488
2,34,110,372
2,34,127,104
2,34,105,28
2,34,122,520
2,27,127,528
2,27,113,32
2,27,127,512
2,27,119,360
2,27,127,124
2,27,113,32
2,32,127,1260
2,32,103,32
2,32,120,476
2,32,116,352
2,32,90,24
2,32,127,28
2,32,107,32
2,32,120,508
2,29,93,292
2,27,109,24
2,29,127,20
2,29,121,24
2,29,106,492
2,29,103,320
2,29,127,104
2,29,107,28
2,29,100,496
2,32,127,468
2,32,105,32
2,32,119,468
2,32,103,384
2,32,126,100
2,32,119,32
2,32,103,448
2,27,127,440
2,27,118,32
2,27,105,200
2,27,113,96
2,27,110,28
2,27,93,220
2,27,126,116
2,27,108,32
2,27,119,408
2,32,127,568
2,32,110,32
2,32,116,492
2,32,110,384
2,32,127,96
2,32,120,36
2,32,110,492
2,31,106,324
2,27,105,32
2,29,127,32
2,29,115,28
2,29,100,476
2,29,94,280
2,29,87,32
2,29,127,32
2,29,115,24
2,29,103,512
2,25,125,484
2,25,113,36
2,25,113,380
2,25,105,276
2,36,126,80
2,36,118,36
2,36,100,456
2,27,126,480
2,27,114,28
2,27,110,448
2,27,105,220
2,27,127,108
2,27,116,32
2,27,127,464
2,32,127,540
2,32,116,32
2,32,127,448
2,32,119,272
2,32,127,88
2,32,122,28
2,32,118,488
2,25,127,464
2,25,119,32
2,25,127,436
2,25,122,316
2,24,106,20
2,25,127,28
2,25,125,32
2,25,127,444
2,36,125,152
2,34,127,188
2,34,116,36
2,34,110,468
2,34,122,324
2,32,93,4
2,34,127,24
2,34,113,28
2,34,122,500
2,27,127,532
2,27,117,36
2,27,124,436
2,27,110,316
2,27,127,92
2,27,117,28
2,27,127,436
2,32,127,504
2,32,127,32
2,32,127,452
2,32,127,280
2,32,127,96
2,32,122,32
2,32,127,456
2,25,127,488
2,25,122,32
2,25,127,420
2,25,122,328
2,25,127,104
2,25,122,28
2,25,127,416
2,32,108,16
2,37,116,16
2,36,127,20
2,34,127,176
2,34,122,24
2,34,126,384
2,34,97,288
2,32,105,0
2,27,127,12
2,27,113,20
2,25,122,360
2,27,127,88
2,25,120,48
2,27,111,12
2,32,127,8
2,32,113,32
2,32,127,412
2,32,113,172
2,32,127,80
2,32,116,36
2,32,126,376
2,25,127,372
2,25,119,36
2,27,112,488
2,27,116,256
2,32,127,72
2,32,118,28
2,32,116,460
2,25,127,484
2,25,119,32
2,25,119,236
2,27,127,92
2,27,110,316
2,27,113,32
2,29,127,32
2,29,116,32
2,29,111,276
2,29,127,80
2,27,126,156
2,25,127,156
2,25,116,32
2,25,116,292
2,27,126,104
2,27,113,228
2,32,127,104
2,32,118,32
2,32,105,232
2,32,127,116
2,32,117,32
2,25,127,388
2,25,121,32
2,25,125,400
2,25,125,316
2,27,127,100
2,27,127,32
2,25,127,328
2,25,127,28
2,27,127,36
2,27,127,28
2,27,127,528
2,27,127,28
2,25,127,316
2,25,122,32
2,27,127,32
2,27,127,32
2,32,127,516
2,32,127,32
2,32,127,480
2,32,127,324
2,32,127,88
2,32,119,32
2,32,127,480
2,25,127,476
2,25,121,28
2,25,127,440
2,25,119,296
2,25,127,108
2,25,122,32
2,25,125,232
2,37,127,48
2,36,125,8
2,34,119,20
2,32,109,4
2,34,127,8
2,34,107,24
2,34,127,472
2,34,101,292
2,34,127,128
2,34,105,28
2,34,119,436
2,27,127,476
2,27,119,36
2,27,125,388
2,27,119,244
2,27,127,104
2,27,119,24
2,27,127,420
2,32,127,508
2,32,127,32
2,32,127,480
2,32,127,324
2,32,125,88
2,32,119,32
2,32,122,480
2,25,127,472
2,25,127,32
2,25,127,440
2,25,119,296
2,25,127,108
2,25,127,32
2,25,127,232
2,37,127,48
2,36,122,8
2,34,113,20
2,32,107,4
2,34,127,8
2,34,127,24
2,34,116,472
2,34,115,292
2,27,127,132
2,27,122,32
2,25,127,456
2,32,127,464
2,32,127,32
2,32,127,428
2,32,127,268
2,32,127,136
2,32,127,524
2,32,127,156
2,32,127,124
2,32,110,520
2,32,116,404
2,32,127,88
2,32,120,36
2,32,127,488
2,25,127,528
2,25,124,32
2,25,127,424
2,25,116,276
2,25,127,92
2,25,127,32
2,25,127,372
2,37,127,120
2,36,125,4
2,34,113,16
2,32,104,8
2,34,127,16
2,34,116,448
2,34,118,292
2,27,127,76
2,27,125,32
2,25,125,428
2,32,127,432
2,32,121,32
2,32,122,448
2,32,110,316
2,32,126,76
2,32,123,32
2,32,116,444
2,32,127,404
2,32,121,36
2,32,122,464
2,32,119,336
2,32,127,132
2,32,116,24
2,32,110,500
2,32,127,152
2,32,110,36
2,32,107,80
2,32,107,224
2,32,116,64
2,32,107,28
2,32,113,128
2,32,126,164
2,32,99,36
2,32,110,212
2,32,116,120
2,32,126,96
2,32,110,32
2,32,113,340
2,32,125,248
2,32,103,20
2,32,110,56
2,32,101,60
2,32,126,40
2,32,114,28
2,32,110,68
2,32,97,136
3,60,50,2632
3,56,44,44
3,60,49,52
3,56,37,44
3,60,44,52
3,56,36,40
3,60,49,60
3,56,34,40
3,60,50,52
3,56,43,36
3,60,46,44
3,56,37,36
3,60,49,48
3,56,36,44
3,60,45,56
3,56,33,48
3,60,50,68
3,56,44,44
3,60,49,52
3,56,37,44
3,60,44,52
3,56,36,40
3,60,49,60
3,56,34,40
