track,note,velocity,time
4,72,93,837
4,72,0,99
4,75,92,34
4,75,0,162
4,75,94,54
4,75,0,378
4,73,94,17
4,73,0,130
4,72,84,6
4,72,0,94
4,73,94,65
4,73,0,62
4,75,101,1
4,75,0,149
4,75,92,44
4,75,0,352
4,75,80,2199
4,75,0,107
4,75,90,34
4,75,0,178
4,75,82,40
4,75,0,347
4,80,96,25
4,80,0,451
4,77,90,35
4,77,0,87
4,75,78,13
4,75,0,47
4,77,80,10
4,77,0,658
4,77,87,855
4,77,0,100
4,77,83,36
4,77,0,178
4,77,80,36
4,77,0,133
4,79,90,19
4,79,0,189
4,79,97,49
4,79,0,61
4,80,88,17
4,80,0,361
4,75,96,32
4,75,0,136
4,72,67,23
4,72,0,121
4,75,94,9
4,75,0,540
4,72,93,1784
4,72,0,75
4,75,92,34
4,75,0,196
4,75,88,48
4,75,0,354
4,73,96,33
4,73,0,154
4,72,78,3
4,72,0,127
4,70,94,26
4,70,0,1028
4,72,84,1770
4,72,0,86
4,75,92,42
4,75,0,160
4,75,86,67
4,75,0,372
4,73,94,12
4,73,0,156
4,72,82,14
4,72,0,120
4,75,96,49
4,77,93,59
4,75,0,3
4,77,0,206
4,77,93,41
4,77,0,99
4,75,86,10
4,75,0,652
4,75,82,1698
4,75,0,112
4,75,92,59
4,75,0,187
4,75,88,48
4,75,0,272
4,80,92,53
4,80,0,377
4,79,102,33
4,79,0,89
4,77,48,9
4,77,0,80
4,75,90,11
4,75,0,54
4,77,87,31
4,77,0,832
4,77,87,868
4,77,0,74
4,77,90,57
4,77,0,131
4,77,79,26
4,77,0,222
4,79,94,23
4,79,0,233
4,79,84,47
4,79,0,40
4,80,92,11
4,80,0,19
4,80,96,36
4,80,0,168
4,75,90,15
4,75,0,69
4,77,91,20
4,77,0,457
4,75,90,625
4,75,0,64
4,77,95,11
4,77,0,154
4,79,87,20
4,79,0,132
4,80,98,65
4,80,0,226
4,75,94,39
4,75,0,319
4,80,101,738
4,80,0,265
4,80,88,54
4,80,0,47
4,82,96,5
4,82,0,196
4,82,92,56
4,82,0,1524
4,75,98,1161
4,75,0,156
4,80,101,94
4,80,0,198
4,82,103,45
4,82,0,408
4,85,103,45
4,85,0,468
4,84,103,20
4,84,0,576
4,80,94,1849
4,80,0,144
4,80,98,70
4,80,0,238
4,82,94,19
4,82,0,220
4,84,102,25
4,84,0,86
4,79,91,141
4,80,80,29
4,79,0,14
4,79,91,335
4,80,0,2
4,79,0,74
4,77,88,15
4,77,0,950
4,80,84,1591
4,80,0,54
4,80,96,72
4,80,0,210
4,82,101,25
4,82,0,235
4,84,100,26
4,84,0,56
4,85,96,151
4,85,0,487
4,77,84,1
4,77,0,108
4,75,84,1
4,75,0,88
4,77,95,22
4,77,0,507
4,80,103,1674
4,80,0,77
4,80,90,43
4,80,0,74
4,80,94,45
4,80,0,208
4,82,98,21
4,82,0,166
4,82,98,61
4,82,0,55
4,84,105,4
4,84,0,154
4,84,106,49
4,85,66,367
4,84,0,2
4,84,102,57
4,85,0,10
4,82,96,62
4,84,0,15
4,82,0,701
4,75,107,1916
4,75,0,183
4,75,90,47
4,75,0,110
4,73,101,18
4,73,0,200
4,72,100,44
4,72,0,160
4,75,107,72
4,75,0,348
4,77,102,27
4,77,0,124
4,77,103,68
4,75,98,52
4,77,0,15
4,75,0,494
4,75,107,1503
4,75,0,131
4,75,107,121
4,75,0,625
4,75,103,86
4,75,0,62
4,77,88,15
4,80,69,68
4,77,0,9
4,80,0,66
4,82,86,3
4,84,103,83
4,82,0,8
4,84,0,721
4,82,92,10
4,82,0,75
4,84,97,6
4,82,88,64
4,84,0,13
4,80,98,62
4,82,0,9
4,77,82,66
4,80,0,1
4,75,80,81
4,77,0,1
4,77,103,71
4,75,0,1
4,77,0,525
4,75,90,3
4,77,77,119
4,75,0,11
4,82,98,98
4,77,0,1
4,80,88,112
4,82,0,2
4,80,0,367
4,77,107,501
4,77,0,167
4,77,103,79
4,77,0,132
4,79,105,4
4,79,0,308
4,79,91,50
4,80,92,37
4,79,0,12
4,80,0,122
4,80,107,73
4,80,0,214
4,75,90,16
4,75,0,69
4,77,74,9
4,77,0,491
4,77,107,374
4,77,0,208
4,79,105,29
4,79,0,212
4,80,96,19
4,80,0,212
4,82,101,34
4,80,92,70
4,82,0,19
4,77,84,50
4,80,0,12
4,75,101,68
4,77,0,3
4,75,0,738
4,80,107,497
4,80,0,204
4,82,106,14
4,82,0,434
4,80,101,51
4,82,96,34
4,80,0,7
4,82,0,1371
4,75,107,1005
4,75,0,186
4,80,106,40
4,80,0,201
4,82,107,48
4,82,0,382
4,84,106,90
4,85,80,42
4,84,0,6
4,85,0,414
4,84,107,42
4,84,0,899
4,80,107,1493
4,80,0,146
4,80,107,99
4,80,0,246
4,82,96,7
4,82,0,166
4,82,96,54
4,84,103,49
4,82,0,5
4,84,0,140
4,80,106,66
4,80,0,596
4,79,97,9
4,79,0,65
4,77,95,14
4,77,0,761
4,80,106,1408
4,80,0,94
4,80,107,151
4,80,0,229
4,82,94,9
4,82,0,238
4,84,105,12
4,84,0,74
4,85,106,163
4,85,0,482
4,77,94,10
4,77,0,114
4,75,94,5
4,77,71,85
4,75,0,2
4,77,0,557
4,80,107,1175
4,80,0,120
4,80,107,103
4,80,0,67
4,80,94,34
4,80,0,90
4,80,98,31
4,80,0,172
4,80,106,58
4,80,0,216
4,82,103,20
4,82,0,155
4,82,103,84
4,84,100,40
4,82,0,12
4,84,0,101
4,84,107,106
4,85,80,419
4,84,0,9
4,84,90,35
4,85,0,4
4,82,103,51
4,84,0,16
4,82,0,891
4,75,107,1451
4,75,0,151
4,87,107,75
4,85,90,12
4,85,0,9
4,86,79,319
4,87,0,19
4,85,96,19
4,86,0,20
4,84,70,13
4,85,0,21
4,82,107,51
4,84,0,14
4,82,0,168
4,82,107,58
4,82,0,200
4,84,107,53
4,84,0,399
4,82,98,17
4,84,107,65
4,82,0,9
4,82,103,59
4,84,0,11
4,80,96,56
4,82,0,9
4,80,0,1201
4,80,107,577
4,80,0,85
4,80,107,134
4,80,0,137
4,80,107,108
4,80,0,251
4,82,98,4
4,82,0,224
4,84,100,24
4,84,0,81
4,80,107,154
4,79,88,649
4,80,0,12
4,80,92,61
4,79,0,15
4,79,94,101
4,80,0,17
4,79,0,69
4,77,82,6
4,77,0,751
4,80,107,1184
4,80,0,94
4,80,107,163
4,80,0,231
4,82,103,1
4,82,0,216
4,84,95,29
4,84,0,112
4,84,98,106
4,84,0,32
4,85,101,5
4,85,0,367
4,85,101,92
4,85,0,96
4,85,107,136
4,85,0,100
4,85,101,140
4,85,0,111
4,85,107,138
4,85,0,215
4,84,107,27
4,84,0,230
4,82,107,12
4,82,0,39
4,82,107,200
4,82,0,605
4,75,107,352
4,75,0,42
4,75,96,63
4,75,0,61
4,80,107,61
4,80,0,64
4,80,101,51
4,80,0,183
4,80,107,67
4,80,0,180
4,80,107,177
4,80,0,1321
4,80,103,3475
4,80,0,227
4,79,107,20
4,79,0,167
4,79,106,66
4,80,106,278
4,79,0,7
4,80,0,191
4,82,98,16
4,82,0,147
4,82,107,87
4,84,102,39
4,82,0,5
4,84,0,325
4,82,98,21
4,84,95,75
4,82,0,18
4,84,0,91
4,82,107,8
4,82,0,94
4,80,106,28
4,80,0,765
4,80,106,1169
4,80,0,72
4,79,106,161
4,79,0,607
4,77,102,3
4,77,0,76
4,77,94,42
4,77,0,109
4,75,96,8
4,75,0,77
4,77,102,52
4,77,0,1512
4,80,106,1109
4,80,0,249
4,79,103,9
4,79,0,164
4,79,107,73
4,79,0,230
4,80,107,19
4,80,0,213
4,82,88,6
4,82,0,127
4,85,106,129
4,87,98,33
4,85,0,6
4,87,0,360
4,84,107,81
4,84,0,344
4,82,106,12
4,82,0,44
4,84,107,70
4,84,0,58
4,82,107,2
4,82,0,49
4,80,101,11
4,80,0,364
4,82,98,6
4,84,97,88
4,82,0,6
4,82,107,99
4,84,0,16
4,82,0,140
4,80,106,838
4,80,0,118
4,80,107,134
4,80,0,233
4,82,92,12
4,82,0,81
4,82,106,146
4,82,0,49
4,84,100,3
4,84,0,82
4,82,107,118
4,82,0,2790
4,75,107,74
4,75,0,192
4,80,107,73
4,80,0,221
4,82,101,30
4,82,0,400
4,85,107,70
4,85,0,460
4,84,105,33
4,84,0,778
4,80,106,1599
4,80,0,125
4,80,107,118
4,80,0,215
4,82,101,24
4,82,0,149
4,84,105,88
4,84,0,70
4,79,106,145
4,80,80,27
4,79,0,16
4,80,0,346
4,79,88,1
4,79,0,69
4,77,86,24
4,77,0,778
4,80,107,1644
4,80,0,166
4,80,107,87
4,80,0,215
4,82,106,14
4,82,0,200
4,84,107,36
4,84,0,93
4,84,103,126
4,84,0,37
4,85,98,2
4,85,0,442
4,77,98,18
4,77,0,85
4,75,80,12
4,75,0,96
4,77,95,28
4,76,98,2
4,76,0,57
4,77,0,742
4,80,107,1254
4,80,0,47
4,80,103,63
4,80,0,90
4,77,100,21
4,77,0,79
4,80,106,54
4,80,0,217
4,82,106,30
4,82,0,121
4,82,103,107
4,84,103,42
4,82,0,2
4,84,0,119
4,84,107,91
4,85,69,377
4,84,0,3
4,84,95,49
4,85,0,16
4,82,103,54
4,84,0,15
4,82,0,1502
4,75,107,867
4,75,0,197
4,87,107,46
4,86,52,345
4,87,0,10
4,85,82,16
4,86,0,22
4,84,79,18
4,85,0,17
4,84,0,48
4,82,103,4
4,82,0,171
4,82,107,65
4,82,0,197
4,84,107,43
4,84,0,442
4,84,106,48
4,82,103,54
4,84,0,13
4,80,96,43
4,82,0,16
4,80,0,1304
4,80,107,723
4,80,0,86
4,77,95,16
4,77,0,125
4,80,106,11
4,80,0,145
4,82,107,86
4,82,0,431
4,84,106,27
4,82,98,62
4,84,0,18
4,80,96,42
4,82,0,20
4,80,0,53
4,77,105,14
4,77,0,1033
4,80,107,1674
4,80,0,154
4,80,107,95
4,80,0,215
4,82,96,24
4,82,0,220
4,84,106,25
4,84,0,147
4,84,106,79
4,84,0,47
4,85,96,8
4,85,0,289
4,85,106,129
4,85,0,138
4,85,106,100
4,85,0,123
4,85,101,104
4,85,0,122
4,85,107,120
4,85,0,220
4,84,107,38
4,84,0,226
4,82,107,19
4,82,0,63
4,82,107,181
4,82,0,558
4,75,107,384
4,75,0,39
4,75,92,67
4,75,0,48
4,80,103,78
4,80,0,57
4,80,101,62
4,80,0,61
4,80,106,66
4,80,0,192
4,80,103,42
4,80,0,216
4,87,98,26
4,87,0,3369
4,84,103,15
4,83,93,5
4,83,0,37
4,82,80,571
4,84,0,2
4,84,93,68
4,82,0,19
4,82,72,27
4,84,0,13
4,80,80,51
4,82,0,5
4,80,0,2653
4,75,90,13
4,75,0,96
4,80,101,10
4,80,0,227
4,82,101,26
4,82,0,125
4,82,103,103
4,82,0,57
4,84,103,3
4,84,0,100
4,82,107,97
4,83,84,404
4,82,0,19
4,82,72,30
4,83,0,1
4,80,55,48
4,82,0,23
4,80,0,2626
4,80,86,318
4,84,82,1
4,80,0,20
4,84,0,1
4,87,86,105
4,84,95,2
4,84,0,17
4,87,0,5
4,87,64,100
4,84,86,3
4,84,0,14
4,87,0,4
4,87,71,100
4,84,88,4
4,84,0,13
4,87,0,4
4,84,97,103
4,87,88,0
4,84,0,197
4,87,0,3
4,84,47,27
4,80,62,2
4,84,0,31
4,80,0,12
4,85,84,88
4,82,86,2
4,85,0,493
4,82,0,16
4,87,94,50
4,84,93,5
4,84,0,21
4,87,0,11
4,84,91,89
4,80,74,4
4,80,0,975
4,84,0,1
4,75,101,812
4,75,0,42
4,80,84,91
4,80,0,33
4,80,82,88
4,80,0,24
4,80,71,109
4,80,0,20
4,80,78,106
4,80,0,329
4,82,96,45
4,82,0,41
4,82,94,80
4,82,0,217
4,83,67,3
4,83,0,54
4,82,72,2
4,82,0,38
4,80,80,16
4,80,0,1575
5,44,118,32640
5,44,0,119
5,44,105,1
5,44,0,119
5,44,118,721
5,44,0,200
5,44,110,520
5,44,0,119
5,44,118,121
5,44,0,119
5,44,105,1
5,44,0,119
5,44,118,721
5,44,0,200
5,37,118,760
5,37,0,119
5,37,105,1
5,37,0,119
5,37,118,721
5,37,0,200
5,36,110,520
5,36,0,119
5,36,105,1
5,36,0,119
5,37,118,1
5,37,0,119
5,37,105,1
5,37,0,119
5,37,118,721
5,37,0,359
5,36,105,1
5,36,0,359
5,44,110,1
5,44,0,119
5,46,118,121
5,46,0,119
5,46,105,1
5,46,0,119
5,46,118,721
5,46,0,200
5,46,110,520
5,46,0,119
5,46,118,121
5,46,0,119
5,46,105,1
5,46,0,119
5,46,118,721
5,46,0,200
5,39,118,760
5,39,0,119
5,39,105,1
5,39,0,119
5,39,105,601
5,39,0,119
5,39,118,1
5,39,0,119
5,39,110,601
5,39,0,119
5,39,118,121
5,39,0,119
5,39,105,1
5,39,0,119
5,39,105,601
5,39,0,119
5,39,118,1
5,39,0,119
5,44,118,841
5,44,0,119
5,44,105,1
5,44,0,119
5,44,105,601
5,44,0,119
5,44,118,1
5,44,0,119
5,44,110,601
5,44,0,119
5,44,118,121
5,44,0,119
5,44,105,1
5,44,0,119
5,44,105,601
5,44,0,119
5,44,118,1
5,44,0,119
5,44,110,601
5,44,0,119
5,39,105,1
5,39,0,119
5,41,118,1
5,41,0,119
5,41,105,1
5,41,0,119
5,41,105,601
5,41,0,119
5,41,118,1
5,41,0,119
5,39,110,601
5,39,0,239
5,41,118,1
5,41,0,119
5,41,105,1
5,41,0,119
5,41,118,721
5,41,0,119
5,37,118,841
5,37,0,119
5,37,105,1
5,37,0,119
5,37,105,601
5,37,0,119
5,37,118,1
5,37,0,119
5,37,110,601
5,37,0,239
5,36,118,1
5,36,0,119
5,36,105,1
5,36,0,119
5,36,105,601
5,36,0,119
5,36,118,1
5,36,0,119
5,46,118,841
5,46,0,119
5,39,105,1
5,39,0,119
5,39,105,601
5,39,0,119
5,39,118,1
5,39,0,200
5,39,118,760
5,39,0,119
5,39,105,1
5,39,0,119
5,39,105,601
5,39,0,119
5,39,118,1
5,39,0,200
5,44,118,760
5,44,0,119
5,44,105,1
5,44,0,119
5,44,118,721
5,44,0,200
5,44,110,520
5,44,0,119
5,44,118,121
5,44,0,119
5,44,105,1
5,44,0,119
5,44,118,721
5,44,0,119
5,37,118,841
5,37,0,119
5,37,105,1
5,37,0,119
5,37,118,721
5,37,0,200
5,37,110,520
5,37,0,119
5,37,105,1
5,37,0,119
5,37,118,1
5,37,0,119
5,37,105,1
5,37,0,119
5,37,125,721
5,37,0,239
5,46,118,721
5,46,0,119
5,46,105,1
5,46,0,119
5,46,118,721
5,46,0,119
5,46,110,601
5,46,0,119
5,44,105,1
5,44,0,119
5,46,118,1
5,46,0,119
5,46,105,1
5,46,0,119
5,46,118,721
5,46,0,239
5,39,118,721
5,39,0,119
5,39,105,1
5,39,0,119
5,39,118,721
5,39,0,119
5,39,110,601
5,39,0,119
5,39,105,1
5,39,0,119
5,39,118,1
5,39,0,119
5,39,105,1
5,39,0,119
5,39,118,721
5,39,0,200
5,44,118,760
5,44,0,119
5,44,105,1
5,44,0,119
5,44,118,721
5,44,0,200
5,44,110,520
5,44,0,119
5,44,118,121
5,44,0,119
5,44,105,1
5,44,0,119
5,44,118,721
5,44,0,200
5,37,118,760
5,37,0,119
5,37,105,1
5,37,0,119
5,37,118,721
5,37,0,200
5,37,110,520
5,37,0,119
5,37,118,121
5,37,0,119
5,37,105,1
5,37,0,119
5,37,118,721
5,37,0,119
5,44,105,1
5,44,0,119
5,49,110,1
5,49,0,119
5,48,105,1
5,48,0,119
5,46,118,481
5,46,0,119
5,46,105,1
5,46,0,119
5,46,118,721
5,46,0,200
5,46,110,520
5,46,0,119
5,44,105,1
5,44,0,119
5,39,118,1
5,39,0,119
5,39,105,1
5,39,0,119
5,39,118,721
5,39,0,200
5,41,110,520
5,41,0,119
5,39,105,1
5,39,0,119
5,44,118,1
5,44,0,119
5,44,105,1
5,44,0,119
