track,note,velocity,time
3,53,72,1341
3,65,89,0
3,60,88,0
3,53,0,65
3,65,0,19
3,53,75,12
3,60,0,16
3,53,0,64
3,60,77,16
3,65,80,0
3,65,0,73
3,60,0,21
3,53,65,2
3,53,0,86
3,65,74,10
3,60,81,0
3,65,0,69
3,60,0,16
3,53,65,11
3,53,0,65
3,65,83,31
3,60,83,0
3,65,0,45
3,60,0,16
3,53,82,35
3,53,0,39
3,60,86,57
3,65,88,0
3,53,79,0
3,41,85,0
3,29,99,0
3,53,0,59
3,65,0,28
3,53,80,9
3,60,0,3
3,65,93,93
3,60,86,0
3,53,0,80
3,65,0,15
3,53,88,1
3,60,0,20
3,65,86,76
3,60,82,0
3,53,0,70
3,65,0,22
3,53,82,4
3,60,0,18
3,60,82,78
3,65,85,0
3,53,0,72
3,53,89,24
3,60,0,66
3,65,0,1
3,53,0,5
3,41,0,2
3,29,0,0
3,41,93,0
3,57,88,0
3,53,82,0
3,60,91,0
3,53,0,21
3,53,67,8
3,57,0,23
3,60,0,7
3,53,0,41
3,65,80,25
3,60,84,0
3,65,0,78
3,60,0,10
3,53,67,8
3,53,0,80
3,65,80,16
3,60,80,0
3,65,0,82
3,60,0,13
3,53,61,1
3,53,0,37
3,57,81,59
3,60,81,0
3,57,0,85
3,60,0,1
3,53,72,10
3,41,0,12
3,53,0,10
3,55,85,1
3,61,87,0
3,58,84,0
3,41,91,0
3,55,0,51
3,55,78,18
3,61,0,28
3,58,0,1
3,55,0,16
3,65,91,51
3,58,87,0
3,61,91,0
3,65,0,78
3,58,0,6
3,61,0,0
3,55,72,12
3,55,0,30
3,53,85,66
3,57,92,0
3,60,92,0
3,53,0,31
3,53,65,27
3,57,0,32
3,60,0,4
3,41,0,8
3,53,0,6
3,60,85,46
3,57,87,0
3,65,87,0
3,57,0,27
3,60,0,3
3,65,0,9
3,57,64,57
3,57,0,50
3,51,101,46
3,60,93,0
3,57,88,0
3,67,99,0
3,57,0,4
3,57,78,18
3,60,0,12
3,67,0,7
3,57,0,38
3,60,92,39
3,67,96,0
3,67,0,81
3,60,0,2
3,51,0,7
3,57,81,6
3,57,0,25
3,60,87,13
3,66,87,0
3,50,96,0
3,57,76,60
3,66,0,12
3,60,0,2
3,57,0,38
3,66,91,44
3,60,91,0
3,57,80,4
3,57,0,75
3,60,0,2
3,66,0,1
3,50,0,2
3,62,87,16
3,67,91,0
3,43,87,0
3,58,82,0
3,58,0,30
3,62,0,23
3,58,68,6
3,67,0,2
3,58,0,44
3,67,94,50
3,62,97,0
3,58,82,0
3,43,0,16
3,58,0,39
3,62,0,36
3,67,0,2
3,58,65,3
3,43,70,0
3,43,0,24
3,58,0,7
3,45,59,17
3,45,0,14
3,65,91,34
3,58,85,0
3,46,94,0
3,61,88,0
3,58,0,12
3,58,70,32
3,61,0,5
3,65,0,6
3,58,0,33
3,65,85,52
3,61,73,0
3,61,0,67
3,65,0,1
3,58,51,28
3,46,0,3
3,58,0,15
3,45,91,0
3,53,75,0
3,65,86,0
3,60,85,0
3,53,0,21
3,65,0,17
3,53,66,6
3,60,0,22
3,53,0,50
3,65,93,24
3,60,88,0
3,65,0,78
3,45,0,11
3,60,0,0
3,53,73,7
3,53,0,27
3,58,77,12
3,53,82,0
3,61,87,0
3,43,88,0
3,43,0,53
3,53,0,4
3,53,71,15
3,61,0,12
3,58,0,4
3,53,0,16
3,58,77,64
3,40,91,0
3,67,78,0
3,60,83,0
3,58,0,189
3,40,0,1
3,67,0,0
3,60,0,1
3,41,93,1
3,57,88,0
3,53,82,0
3,60,91,0
3,53,0,21
3,53,67,8
3,57,0,23
3,60,0,7
3,53,0,41
3,65,80,25
3,60,84,0
3,65,0,78
3,60,0,10
3,53,67,8
3,53,0,80
3,65,80,16
3,60,80,0
3,65,0,82
3,60,0,13
3,53,61,1
3,53,0,37
3,57,81,59
3,60,81,0
3,57,0,85
3,60,0,1
3,53,72,10
3,41,0,12
3,53,0,10
3,55,85,1
3,61,87,0
3,58,84,0
3,41,91,0
3,55,0,51
3,55,78,18
3,61,0,28
3,58,0,1
3,55,0,16
3,65,91,51
3,58,87,0
3,61,91,0
3,65,0,78
3,58,0,6
3,61,0,0
3,55,72,12
3,55,0,30
3,53,85,66
3,57,92,0
3,60,92,0
3,53,0,31
3,53,65,27
3,57,0,32
3,60,0,4
3,41,0,8
3,53,0,6
3,60,85,46
3,57,87,0
3,65,87,0
3,57,0,27
3,60,0,3
3,65,0,9
3,57,64,57
3,57,0,50
3,51,101,46
3,60,93,0
3,57,88,0
3,67,99,0
3,57,0,4
3,57,78,18
3,60,0,12
3,67,0,7
3,57,0,38
3,60,92,39
3,67,96,0
3,67,0,81
3,60,0,2
3,51,0,7
3,57,81,6
3,57,0,25
3,60,87,13
3,66,87,0
3,50,96,0
3,57,76,60
3,66,0,12
3,60,0,2
3,57,0,38
3,66,91,44
3,60,91,0
3,57,80,4
3,57,0,75
3,60,0,2
3,66,0,1
3,50,0,2
3,62,87,16
3,67,91,0
3,43,87,0
3,58,82,0
3,58,0,30
3,62,0,23
3,58,68,6
3,67,0,2
3,58,0,44
3,67,94,50
3,62,97,0
3,58,82,0
3,43,0,16
3,58,0,39
3,62,0,36
3,67,0,2
3,58,65,3
3,43,70,0
3,43,0,24
3,58,0,7
3,45,59,17
3,45,0,14
3,65,91,34
3,58,85,0
3,46,94,0
3,61,88,0
3,58,0,12
3,58,70,32
3,61,0,5
3,65,0,6
3,58,0,33
3,65,85,52
3,61,73,0
3,61,0,67
3,65,0,1
3,58,51,28
3,46,0,3
3,58,0,15
3,53,87,0
3,57,88,0
3,60,91,0
3,45,103,0
3,53,0,25
3,57,0,2
3,60,0,6
3,65,88,111
3,75,95,0
3,72,93,0
3,65,0,73
3,45,0,16
3,65,68,7
3,72,0,6
3,75,0,2
3,65,0,21
3,66,94,1
3,50,96,0
3,74,100,0
3,66,0,26
3,74,0,17
3,66,69,2
3,66,0,35
3,72,110,61
3,72,0,42
3,50,0,14
3,62,44,40
3,62,0,36
3,65,98,60
3,67,98,0
3,43,109,0
3,62,94,0
3,71,95,0
3,62,0,29
3,62,73,18
3,65,0,9
3,67,0,0
3,71,0,11
3,62,0,12
3,43,0,4
3,49,94,0
3,70,87,0
3,67,106,0
3,65,94,0
3,49,0,31
3,65,0,0
3,61,82,25
3,67,0,53
3,70,0,2
3,61,0,17
3,48,87,24
3,60,97,0
3,70,94,0
3,67,95,0
3,60,0,71
3,60,87,16
3,70,0,84
3,67,0,0
3,70,87,12
3,67,91,0
3,70,0,96
3,69,87,0
3,48,0,96
3,60,0,0
3,67,0,0
3,69,0,0
3,29,113,0
3,57,123,0
3,53,120,0
3,60,118,0
3,41,113,0
3,53,0,13
3,53,87,17
3,57,0,16
3,60,0,10
3,53,0,14
3,60,114,56
3,57,118,0
3,53,110,0
3,29,0,43
3,41,0,6
3,53,0,32
3,41,96,15
3,29,101,0
3,53,81,0
3,29,0,65
3,41,0,4
3,60,0,1
3,57,0,0
3,53,0,2
3,53,105,7
3,57,107,0
3,60,107,0
3,41,105,0
3,29,109,0
3,53,0,7
3,53,82,10
3,57,0,55
3,53,0,1
3,60,0,1
3,53,110,39
3,60,113,0
3,57,118,0
3,29,0,6
3,41,0,8
3,53,0,54
3,53,85,28
3,57,0,7
3,60,0,1
3,53,0,10
3,57,111,10
3,60,107,0
3,64,102,0
3,45,107,0
3,33,102,0
3,57,0,13
3,57,86,10
3,60,0,51
3,64,0,1
3,57,0,2
3,57,107,42
3,64,111,0
3,60,111,0
3,33,0,34
3,45,0,7
3,33,99,55
3,45,99,0
3,60,0,59
3,33,0,0
3,57,0,1
3,64,0,1
3,45,0,4
3,64,106,9
3,60,109,0
3,57,107,0
3,33,102,0
3,45,106,0
3,57,0,19
3,57,77,5
3,57,0,56
3,60,0,2
3,64,0,3
3,60,111,35
3,57,107,0
3,64,109,0
3,57,0,63
3,33,0,33
3,57,74,0
3,60,0,6
3,64,0,1
3,45,0,3
3,57,0,22
3,60,106,37
3,55,109,0
3,27,90,0
3,63,105,0
3,39,96,0
3,60,0,58
3,63,0,9
3,55,0,2
3,27,0,37
3,55,114,14
3,60,110,0
3,63,107,0
3,39,0,4
3,63,0,84
3,60,0,4
3,55,0,1
3,39,87,3
3,39,0,29
3,60,103,11
3,62,106,0
3,54,101,0
3,38,114,0
3,26,109,0
3,54,0,81
3,54,79,14
3,60,0,25
3,62,0,1
3,54,0,26
3,26,0,3
3,38,0,10
3,60,102,31
3,54,102,0
3,62,107,0
3,54,0,61
3,62,0,10
3,54,87,25
3,60,0,6
3,54,0,14
3,50,102,16
3,43,113,0
3,58,105,0
3,55,109,0
3,50,0,14
3,50,81,20
3,55,0,14
3,58,0,6
3,50,0,20
3,43,0,26
3,58,101,30
3,55,105,0
3,55,0,37
3,58,0,2
3,41,60,57
3,43,68,0
3,41,0,9
3,43,0,6
3,55,105,10
3,61,112,0
3,58,115,0
3,46,113,0
3,55,0,31
3,46,0,22
3,55,90,3
3,61,0,7
3,58,0,0
3,55,0,14
3,48,113,9
3,60,110,0
3,52,103,0
3,58,105,0
3,58,0,85
3,58,95,11
3,58,0,71
3,48,0,2
3,52,0,1
3,60,0,1
3,29,113,21
3,57,123,0
3,53,120,0
3,60,118,0
3,41,113,0
3,53,0,13
3,53,87,17
3,57,0,16
3,60,0,10
3,53,0,14
3,60,114,56
3,57,118,0
3,53,110,0
3,29,0,43
3,41,0,6
3,53,0,32
3,41,96,15
3,29,101,0
3,53,81,0
3,29,0,65
3,41,0,4
3,60,0,1
3,57,0,0
3,53,0,2
3,53,105,7
3,57,107,0
3,60,107,0
3,41,105,0
3,29,109,0
3,53,0,7
3,53,82,10
3,57,0,55
3,53,0,1
3,60,0,1
3,53,110,39
3,60,113,0
3,57,118,0
3,29,0,6
3,41,0,8
3,53,0,54
3,53,85,28
3,57,0,7
3,60,0,1
3,53,0,10
3,57,111,10
3,60,107,0
3,64,102,0
3,45,107,0
3,33,102,0
3,57,0,13
3,57,86,10
3,60,0,51
3,64,0,1
3,57,0,2
3,57,107,42
3,64,111,0
3,60,111,0
3,33,0,34
3,45,0,7
3,33,99,55
3,45,99,0
3,60,0,59
3,33,0,0
3,57,0,1
3,64,0,1
3,45,0,4
3,64,106,9
3,60,109,0
3,57,107,0
3,33,102,0
3,45,106,0
3,57,0,19
3,57,77,5
3,57,0,56
3,60,0,2
3,64,0,3
3,60,111,35
3,57,107,0
3,64,109,0
3,57,0,63
3,33,0,33
3,57,74,0
3,60,0,6
3,64,0,1
3,45,0,3
3,57,0,22
3,60,106,37
3,55,109,0
3,27,90,0
3,63,105,0
3,39,96,0
3,60,0,58
3,63,0,9
3,55,0,2
3,27,0,37
3,55,114,14
3,60,110,0
3,63,107,0
3,39,0,4
3,63,0,84
3,60,0,4
3,55,0,1
3,39,87,3
3,39,0,29
3,60,103,11
3,62,106,0
3,54,101,0
3,38,114,0
3,26,109,0
3,54,0,81
3,54,79,14
3,60,0,25
3,62,0,1
3,54,0,26
3,26,0,3
3,38,0,10
3,60,102,31
3,54,102,0
3,62,107,0
3,54,0,61
3,62,0,10
3,54,87,25
3,60,0,6
3,54,0,14
3,50,102,16
3,43,113,0
3,58,105,0
3,55,109,0
3,50,0,14
3,50,81,20
3,55,0,14
3,58,0,6
3,50,0,20
3,43,0,26
3,58,101,30
3,55,105,0
3,55,0,37
3,58,0,2
3,41,60,57
3,43,68,0
3,41,0,9
3,43,0,6
3,55,105,10
3,61,112,0
3,58,115,0
3,46,113,0
3,55,0,31
3,46,0,22
3,55,90,3
3,61,0,7
3,58,0,0
3,55,0,14
3,48,113,9
3,60,110,0
3,52,103,0
3,58,105,0
3,58,0,85
3,58,95,11
3,58,0,71
3,48,0,2
3,52,0,1
3,60,0,1
3,41,93,21
3,57,88,0
3,53,82,0
3,60,91,0
3,53,0,21
3,53,67,8
3,57,0,23
3,60,0,7
3,53,0,41
3,65,80,25
3,60,84,0
3,65,0,78
3,60,0,10
3,53,67,8
3,53,0,80
3,65,80,16
3,60,80,0
3,65,0,82
3,60,0,13
3,53,61,1
3,53,0,37
3,57,81,59
3,60,81,0
3,57,0,85
3,60,0,1
3,53,72,10
3,41,0,12
3,53,0,10
3,55,85,1
3,61,87,0
3,58,84,0
3,41,91,0
3,55,0,51
3,55,78,18
3,61,0,28
3,58,0,1
3,55,0,16
3,65,91,51
3,58,87,0
3,61,91,0
3,65,0,78
3,58,0,6
3,61,0,0
3,55,72,12
3,55,0,30
3,53,85,66
3,57,92,0
3,60,92,0
3,53,0,31
3,53,65,27
3,57,0,32
3,60,0,4
3,41,0,8
3,53,0,6
3,60,85,46
3,57,87,0
3,65,87,0
3,57,0,27
3,60,0,3
3,65,0,9
3,57,64,57
3,57,0,50
3,51,101,46
3,60,93,0
3,57,88,0
3,67,99,0
3,57,0,4
3,57,78,18
3,60,0,12
3,67,0,7
3,57,0,38
3,60,92,39
3,67,96,0
3,67,0,81
3,60,0,2
3,51,0,7
3,57,81,6
3,57,0,25
3,60,87,13
3,66,87,0
3,50,96,0
3,57,76,60
3,66,0,12
3,60,0,2
3,57,0,38
3,66,91,44
3,60,91,0
3,57,80,4
3,57,0,75
3,60,0,2
3,66,0,1
3,50,0,2
3,62,87,16
3,67,91,0
3,43,87,0
3,58,82,0
3,58,0,30
3,62,0,23
3,58,68,6
3,67,0,2
3,58,0,44
3,67,94,50
3,62,97,0
3,58,82,0
3,43,0,16
3,58,0,39
3,62,0,36
3,67,0,2
3,58,65,3
3,43,70,0
3,43,0,24
3,58,0,7
3,45,59,17
3,45,0,14
3,65,91,34
3,58,85,0
3,46,94,0
3,61,88,0
3,58,0,12
3,58,70,32
3,61,0,5
3,65,0,6
3,58,0,33
3,65,85,52
3,61,73,0
3,61,0,67
3,65,0,1
3,58,51,28
3,46,0,3
3,58,0,15
3,45,91,0
3,53,75,0
3,65,86,0
3,60,85,0
3,53,0,21
3,65,0,17
3,53,66,6
3,60,0,22
3,53,0,50
3,65,93,24
3,60,88,0
3,65,0,78
3,45,0,11
3,60,0,0
3,53,73,7
3,53,0,27
3,58,77,12
3,53,82,0
3,61,87,0
3,43,88,0
3,43,0,53
3,53,0,4
3,53,71,15
3,61,0,12
3,58,0,4
3,53,0,16
3,58,77,64
3,40,91,0
3,67,78,0
3,60,83,0
3,58,0,189
3,40,0,1
3,67,0,0
3,60,0,1
3,41,93,1
3,57,88,0
3,53,82,0
3,60,91,0
3,53,0,21
3,53,67,8
3,57,0,23
3,60,0,7
3,53,0,41
3,65,80,25
3,60,84,0
3,65,0,78
3,60,0,10
3,53,67,8
3,53,0,80
3,65,80,16
3,60,80,0
3,65,0,82
3,60,0,13
3,53,61,1
3,53,0,37
3,57,81,59
3,60,81,0
3,57,0,85
3,60,0,1
3,53,72,10
3,41,0,12
3,53,0,10
3,55,85,1
3,61,87,0
3,58,84,0
3,41,91,0
3,55,0,51
3,55,78,18
3,61,0,28
3,58,0,1
3,55,0,16
3,65,91,51
3,58,87,0
3,61,91,0
3,65,0,78
3,58,0,6
3,61,0,0
3,55,72,12
3,55,0,30
3,53,85,66
3,57,92,0
3,60,92,0
3,53,0,31
3,53,65,27
3,57,0,32
3,60,0,4
3,41,0,8
3,53,0,6
3,60,85,46
3,57,87,0
3,65,87,0
3,57,0,27
3,60,0,3
3,65,0,9
3,57,64,57
3,57,0,50
3,51,101,46
3,60,93,0
3,57,88,0
3,67,99,0
3,57,0,4
3,57,78,18
3,60,0,12
3,67,0,7
3,57,0,38
3,60,92,39
3,67,96,0
3,67,0,81
3,60,0,2
3,51,0,7
3,57,81,6
3,57,0,25
3,60,87,13
3,66,87,0
3,50,96,0
3,57,76,60
3,66,0,12
3,60,0,2
3,57,0,38
3,66,91,44
3,60,91,0
3,57,80,4
3,57,0,75
3,60,0,2
3,66,0,1
3,50,0,2
3,62,87,16
3,67,91,0
3,43,87,0
3,58,82,0
