track,note,velocity,time
3,60,89,10308
3,65,92,4
3,60,0,240
3,65,0,16
3,67,90,0
3,62,96,4
3,62,0,912
3,67,0,4
3,65,109,5580
3,67,117,268
3,74,102,272
3,62,109,260
3,67,0,1244
3,65,0,4
3,74,0,0
3,62,0,4
3,70,107,28
3,67,105,0
3,63,93,0
3,39,83,8
3,67,0,640
3,63,0,24
3,70,0,8
3,39,0,52
3,46,98,36
3,65,95,0
3,62,105,0
3,58,100,4
3,58,0,660
3,65,0,16
3,62,0,4
3,46,0,48
3,65,96,24
3,41,75,0
3,69,92,0
3,60,71,4
3,69,0,688
3,60,0,0
3,65,0,28
3,41,0,32
3,62,100,28
3,58,95,4
3,43,98,0
3,67,95,0
3,62,0,488
3,62,100,12
3,58,0,204
3,43,0,8
3,67,0,4
3,62,0,36
3,55,78,4
3,63,93,0
3,58,95,0
3,39,93,0
3,58,0,704
3,63,0,16
3,55,0,12
3,39,0,24
3,65,83,4
3,62,90,0
3,58,90,4
3,46,90,4
3,58,0,640
3,62,0,8
3,65,0,8
3,46,0,88
3,65,75,16
3,69,68,0
3,60,78,4
3,41,79,0
3,60,0,572
3,65,0,56
3,60,57,24
3,65,78,36
3,69,0,4
3,67,93,16
3,41,0,24
3,72,79,16
3,36,90,8
3,65,0,1548
3,67,0,0
3,72,0,0
3,60,0,4
3,36,0,0
3,79,119,0
3,86,85,248
3,79,0,840
3,86,0,8
3,81,102,76
3,74,95,240
3,74,0,1020
3,72,95,0
3,67,95,512
3,81,0,88
3,67,0,552
3,65,114,0
3,72,0,128
3,65,0,0
3,67,117,0
3,67,0,128
3,62,76,3980
3,62,0,108
3,65,98,12
3,67,111,120
3,65,0,16
3,67,0,96
3,70,121,12
3,70,0,124
3,67,111,8
3,67,0,500
3,72,98,512
3,77,115,0
3,77,0,108
3,72,0,28
3,72,98,136
3,77,111,0
3,77,0,208
3,72,0,4
3,79,111,32
3,74,107,4
3,74,0,108
3,79,0,4
3,43,78,3096
3,60,88,256
3,65,100,0
3,65,0,116
3,60,0,4
3,55,56,8
3,55,0,68
3,60,88,60
3,65,93,0
3,65,0,96
3,60,0,12
3,55,59,20
3,60,90,128
3,65,98,0
3,65,0,212
3,60,0,8
3,62,93,36
3,67,86,0
3,43,0,604
3,55,0,120
3,43,93,44
3,67,0,68
3,62,0,32
3,65,89,28
3,60,89,0
3,60,0,108
3,65,0,4
3,67,81,16
3,62,85,0
3,62,0,28
3,67,0,4
3,55,62,96
3,77,115,144
3,74,119,0
3,73,98,128
3,74,0,8
3,77,0,24
3,72,85,80
3,73,0,16
3,72,0,32
3,70,127,84
3,67,109,132
3,70,0,8
3,67,0,112
3,65,89,0
3,43,0,72
3,55,0,28
3,65,0,28
3,74,115,4620
3,77,107,0
3,73,93,124
3,74,0,12
3,77,0,16
3,72,86,84
3,73,0,8
3,72,0,44
3,70,125,84
3,70,0,112
3,67,89,12
3,67,0,92
3,70,127,40
3,70,0,432
3,67,115,60
3,67,0,120
3,65,98,12
3,65,0,104
3,62,95,20
3,62,0,148
3,70,107,8
3,67,105,0
3,63,93,0
3,39,83,8
3,67,0,640
3,63,0,24
3,70,0,8
3,39,0,52
3,46,98,36
3,65,95,0
3,62,105,0
3,58,100,4
3,58,0,660
3,65,0,16
3,62,0,4
3,46,0,48
3,65,96,24
3,41,75,0
3,69,92,0
3,60,71,4
3,69,0,688
3,60,0,0
3,65,0,28
3,41,0,32
3,62,100,28
3,58,95,4
3,43,98,0
3,67,95,0
3,62,0,488
3,62,100,12
3,58,0,204
3,43,0,8
3,67,0,4
3,62,0,36
3,55,78,4
3,63,93,0
3,58,95,0
3,39,93,0
3,58,0,704
3,63,0,16
3,55,0,12
3,39,0,24
3,65,83,4
3,62,90,0
3,58,90,4
3,46,90,4
3,58,0,640
3,62,0,8
3,65,0,8
3,46,0,88
3,65,75,16
3,69,68,0
3,60,78,4
3,41,79,0
3,60,0,572
3,65,0,56
3,60,57,24
3,65,78,36
3,69,0,4
3,67,93,16
3,41,0,24
3,72,79,16
3,36,90,8
3,65,0,1548
3,67,0,0
3,72,0,0
3,60,0,4
3,36,0,0
3,84,119,256
3,91,105,248
3,84,0,840
3,91,0,8
3,89,92,308
3,86,90,136
3,89,0,20
3,86,0,92
3,84,113,12
3,86,107,124
3,84,0,8
3,86,0,112
3,79,123,8
3,79,0,264
3,77,111,16
3,77,0,464
3,72,125,664
3,74,119,128
3,72,0,28
3,74,0,92
3,62,109,12
3,67,113,0
3,62,0,1096
3,67,0,0
3,65,105,696
3,65,0,108
3,67,107,20
3,67,0,100
3,70,119,28
3,70,0,112
3,67,109,16
3,62,95,256
3,67,0,20
3,62,0,100
3,65,113,8
3,65,0,108
3,70,127,20
3,70,0,120
3,67,123,8
3,65,117,128
3,67,0,4
3,70,107,132
3,67,105,0
3,63,93,0
3,65,0,8
3,39,83,0
3,67,0,640
3,63,0,24
3,70,0,8
3,39,0,52
3,46,98,36
3,65,95,0
3,62,105,0
3,58,100,4
3,58,0,660
3,65,0,16
3,62,0,4
3,46,0,48
3,65,96,24
3,41,75,0
3,69,92,0
3,60,71,4
3,69,0,688
3,60,0,0
3,65,0,28
3,41,0,32
3,62,100,28
3,58,95,4
3,43,98,0
3,67,95,0
3,62,0,488
3,62,100,12
3,58,0,204
3,43,0,8
3,67,0,4
3,62,0,36
3,70,107,12
3,67,105,0
3,63,93,0
3,39,83,8
3,67,0,640
3,63,0,24
3,70,0,8
3,39,0,52
3,46,98,36
3,65,95,0
3,62,105,0
3,58,100,4
3,58,0,660
3,65,0,16
3,62,0,4
3,46,0,48
3,65,96,24
3,41,75,0
3,69,92,0
3,60,71,4
3,69,0,688
3,60,0,0
3,65,0,28
3,41,0,32
3,62,100,28
3,58,95,4
3,43,98,0
3,67,95,0
3,62,0,488
3,62,100,12
3,58,0,204
3,43,0,8
3,67,0,4
3,62,0,36
3,70,107,12
3,67,105,0
3,63,93,0
3,39,83,8
3,67,0,640
3,63,0,24
3,70,0,8
3,39,0,52
3,46,98,36
3,65,95,0
3,62,105,0
3,58,100,4
3,58,0,660
3,65,0,16
3,62,0,4
3,46,0,48
3,65,96,24
3,41,75,0
3,69,92,0
3,60,71,4
3,69,0,688
3,60,0,0
3,65,0,28
3,41,0,32
3,62,100,28
3,58,95,4
3,43,98,0
3,67,95,0
3,62,0,488
3,62,100,12
3,58,0,204
3,43,0,8
3,67,0,4
3,62,0,36
3,55,78,4
3,63,93,0
3,58,95,0
3,39,93,0
3,58,0,704
3,63,0,16
3,55,0,12
3,39,0,24
3,65,83,4
3,62,90,0
3,58,90,4
3,46,90,4
3,58,0,640
3,62,0,8
3,65,0,8
3,46,0,88
3,65,75,16
3,69,68,0
3,60,78,4
3,41,79,0
3,60,0,572
3,65,0,56
3,60,57,24
3,65,78,36
3,69,0,4
3,67,93,16
3,41,0,24
3,72,79,16
3,36,90,8
3,65,0,1548
3,67,0,0
3,72,0,0
3,60,0,4
3,36,0,0
3,84,119,256
3,91,105,248
3,84,0,840
3,91,0,8
3,89,92,308
3,86,90,136
3,89,0,20
3,86,0,92
3,84,113,12
3,86,107,124
3,84,0,8
3,86,0,112
3,79,123,8
3,79,0,264
3,77,111,16
3,77,0,464
3,82,119,276
3,77,119,4
3,79,109,132
3,77,0,12
3,82,0,8
3,79,0,52
3,77,113,68
3,72,109,0
3,72,0,232
3,74,119,16
3,77,0,8
3,74,0,92
3,67,107,24
3,62,83,4
3,67,0,960
3,62,0,52
3,67,79,0
3,67,0,80
3,70,127,52
3,70,0,96
3,67,115,24
3,67,0,116
3,62,123,12
3,62,0,124
3,68,121,16
3,63,111,4
3,63,0,1332
3,68,0,4
3,80,50,132
3,80,0,24
3,92,69,24
3,92,0,20
3,80,57,32
3,80,0,32
3,92,85,20
3,92,0,24
3,80,79,12
3,80,0,36
3,92,113,12
3,92,0,28
3,80,83,16
3,80,0,36
3,92,113,8
3,92,0,32
3,80,80,8
3,80,0,36
3,92,119,12
3,92,0,32
3,80,79,4
3,80,0,40
3,92,119,8
3,92,0,32
3,80,74,12
3,80,0,32
3,92,123,4
3,92,0,40
3,80,105,8
3,80,0,64
3,75,66,4860
3,78,68,8
3,75,0,28
3,78,0,8
3,75,80,84
3,78,78,0
3,75,0,80
3,78,0,4
3,78,119,44
3,75,119,0
3,75,0,88
3,78,0,4
3,75,111,28
3,78,102,4
3,75,0,80
3,78,0,12
3,78,119,44
3,75,125,0
3,75,0,92
3,78,0,4
3,78,121,44
3,75,125,0
3,75,0,84
3,78,0,4
3,75,121,36
3,78,113,0
3,75,0,76
3,78,0,4
3,78,119,40
3,75,123,0
3,75,0,88
3,78,0,8
3,75,119,36
3,78,115,0
3,75,0,84
3,78,0,12
3,75,111,20
3,78,107,0
3,75,0,88
3,78,0,8
3,78,113,36
3,75,119,0
3,75,0,88
3,78,0,8
3,75,121,40
3,78,117,4
3,74,93,116
3,75,0,12
3,78,0,8
3,73,125,112
3,74,0,20
3,73,0,76
3,71,109,32
3,71,0,112
3,68,113,16
3,68,0,76
3,71,121,56
3,71,0,236
3,68,127,16
3,68,0,244
3,66,117,8
3,66,0,220
3,71,107,180
3,68,105,0
3,64,93,0
3,40,83,8
3,68,0,640
3,64,0,24
3,71,0,8
3,40,0,52
3,47,98,36
3,66,95,0
3,63,105,0
3,59,100,4
3,59,0,660
3,66,0,16
3,63,0,4
3,47,0,48
3,66,96,24
3,42,75,0
3,70,92,0
3,61,71,4
3,70,0,688
3,61,0,0
3,66,0,28
3,42,0,32
3,63,100,28
3,44,98,4
3,59,95,0
3,68,95,0
3,63,0,488
3,63,100,12
3,59,0,204
3,44,0,8
3,68,0,4
3,63,0,36
3,40,93,4
3,56,78,0
3,59,95,0
3,64,93,0
3,59,0,704
3,64,0,16
3,56,0,12
3,40,0,24
3,66,83,4
3,63,90,0
3,59,90,4
3,47,90,4
3,59,0,640
3,63,0,8
3,66,0,8
3,47,0,88
3,42,79,20
3,66,90,4
3,61,90,0
3,54,90,0
3,61,0,572
3,66,0,60
3,61,57,16
3,66,78,36
3,54,0,8
3,68,93,12
3,42,0,24
3,73,79,16
3,37,90,8
3,66,0,1548
3,68,0,0
3,73,0,0
3,61,0,4
3,37,0,0
3,85,119,256
3,92,105,248
3,85,0,840
3,92,0,8
3,90,92,308
3,87,90,136
3,90,0,20
3,87,0,92
3,85,113,12
3,87,107,124
3,85,0,8
3,87,0,112
3,80,123,8
3,80,0,264
3,78,111,16
3,78,0,464
3,73,125,664
3,75,119,128
3,73,0,28
3,75,0,92
3,56,105,12
3,68,105,0
3,54,121,128
3,66,121,0
3,56,0,4
3,68,0,0
3,54,0,96
3,66,0,0
3,56,111,28
3,68,111,0
3,56,0,112
3,68,0,0
3,59,114,16
3,71,114,0
3,59,0,128
3,71,0,0
3,56,117,0
3,68,117,0
3,61,117,128
3,73,117,0
3,56,0,12
3,68,0,0
3,59,117,116
3,71,117,0
3,61,0,12
3,73,0,0
3,61,117,116
3,73,117,0
3,59,0,12
3,71,0,0
3,62,117,116
3,74,117,0
3,61,0,12
3,73,0,0
3,63,117,116
3,75,117,0
3,62,0,12
3,74,0,0
3,66,117,116
3,78,117,0
3,63,0,12
3,75,0,0
3,63,117,116
3,75,117,0
3,66,0,12
3,78,0,0
3,71,107,124
3,68,105,0
3,64,93,0
3,63,0,4
3,75,0,0
3,40,83,4
3,68,0,640
3,64,0,24
3,71,0,8
3,40,0,52
3,47,98,36
3,66,95,0
3,63,105,0
3,59,100,4
3,59,0,660
3,66,0,16
3,63,0,4
3,47,0,48
3,66,96,24
3,42,75,0
3,70,92,0
3,61,71,4
3,70,0,688
3,61,0,0
3,66,0,28
3,42,0,32
3,63,100,28
3,44,98,4
3,59,95,0
3,68,95,0
3,63,0,488
3,63,100,12
3,59,0,204
3,44,0,8
3,68,0,4
3,63,0,36
3,71,107,12
3,68,105,0
3,64,93,0
3,40,83,8
3,68,0,640
3,64,0,24
3,71,0,8
3,40,0,52
3,47,98,36
3,66,95,0
3,63,105,0
3,59,100,4
3,59,0,660
3,66,0,16
3,63,0,4
3,47,0,48
3,66,96,24
3,42,75,0
3,70,92,0
3,61,71,4
3,70,0,688
3,61,0,0
3,66,0,28
3,42,0,32
3,63,100,28
3,44,98,4
3,59,95,0
3,68,95,0
3,63,0,488
3,63,100,12
3,59,0,204
3,44,0,8
3,68,0,4
3,63,0,36
3,71,107,12
3,68,105,0
3,64,93,0
3,40,83,8
3,68,0,640
3,64,0,24
3,71,0,8
3,40,0,52
3,47,98,36
3,66,95,0
3,63,105,0
3,59,100,4
3,59,0,660
3,66,0,16
3,63,0,4
3,47,0,48
3,66,96,24
3,42,75,0
3,70,92,0
3,61,71,4
3,70,0,688
3,61,0,0
3,66,0,28
3,42,0,32
3,63,100,28
3,44,98,4
3,59,95,0
3,68,95,0
3,63,0,488
3,63,100,12
3,59,0,204
3,44,0,8
3,68,0,4
3,63,0,36
3,68,78,4
3,40,93,0
3,56,78,0
3,59,95,0
3,64,93,0
3,68,0,128
3,40,0,0
3,56,0,0
3,59,0,0
3,64,0,0
3,59,90,640
3,63,90,0
3,66,83,0
3,47,90,0
3,59,0,128
3,63,0,0
3,66,0,0
3,47,0,0
3,47,90,128
3,59,90,0
3,63,90,0
3,66,83,0
3,47,0,128
3,59,0,0
3,63,0,0
3,66,0,0
3,66,75,376
3,70,68,0
3,61,78,4
3,42,79,0
3,61,0,572
3,66,0,56
3,61,57,24
3,66,78,36
3,70,0,4
3,68,93,16
3,42,0,24
3,73,79,16
3,37,90,8
3,66,0,524
3,68,0,0
3,73,0,0
3,61,0,4
3,68,125,0
3,73,113,0
3,66,121,0
3,66,0,216
3,68,0,4
3,73,0,4
3,68,117,32
3,65,98,0
3,73,102,0
3,68,0,632
3,65,0,4
3,73,0,12
3,37,0,120
3,78,127,144
3,80,121,112
3,73,119,120
3,75,107,128
3,68,107,132
3,66,107,260
3,68,0,624
3,73,0,8
3,75,0,0
3,78,0,4
3,66,0,4
3,80,0,12
3,90,92,112
3,87,90,136
3,90,0,20
3,87,0,92
3,85,113,12
3,87,107,124
3,85,0,8
3,87,0,112
3,80,123,8
3,80,0,264
3,78,111,16
3,78,0,464
3,83,119,276
3,78,119,4
3,80,109,132
3,78,0,12
3,83,0,8
3,80,0,52
3,73,109,68
3,78,113,0
3,73,0,232
3,75,119,16
3,78,0,8
3,75,0,92
3,68,121,24
3,63,111,4
3,63,0,1332
3,68,0,4
3,80,50,132
3,80,0,24
3,92,69,24
3,92,0,20
3,80,57,32
3,80,0,32
3,92,85,20
3,92,0,24
3,80,79,12
3,80,0,36
3,92,113,12
3,92,0,28
3,80,83,16
3,80,0,36
3,92,113,8
3,92,0,32
3,80,80,8
3,80,0,36
3,92,119,12
3,92,0,32
3,80,79,4
3,80,0,40
3,92,119,8
3,92,0,32
3,80,74,12
3,80,0,32
3,92,123,4
3,92,0,40
3,80,105,8
3,80,0,64
3,68,121,1668
3,63,111,4
3,63,0,1332
3,68,0,4
3,78,117,1732
3,74,95,0
3,75,115,0
3,74,0,32
3,75,0,196
3,78,0,16
3,78,111,12
3,75,119,0
3,75,0,72
3,78,0,4
3,75,79,176
3,75,0,48
3,78,90,72
3,78,0,32
3,80,127,112
3,80,0,220
3,78,127,28
3,78,0,312
3,78,115,64
3,78,0,80
3,74,102,52
3,78,127,0
3,75,127,4
3,74,0,40
3,75,0,180
3,78,0,12
3,78,111,28
3,75,119,0
3,75,0,208
3,75,89,52
3,78,0,8
3,75,0,44
3,78,113,76
3,78,0,44
3,80,127,80
3,78,75,112
3,80,0,16
3,78,0,96
3,75,115,24
3,75,0,60
3,73,127,64
3,74,49,20
3,73,0,52
3,73,98,56
3,74,0,16
3,73,0,88
3,71,102,20
3,71,0,128
3,68,125,8
3,68,121,8
3,63,111,4
3,68,0,732
3,68,0,32
3,63,0,0
4,31,105,752
4,31,0,160
4,31,93,96
4,31,0,108
4,31,87,20
4,31,0,148
