track,note,velocity,time
1,75,116,3078
1,75,0,34
1,77,113,12
1,77,0,33
1,78,119,19
1,78,0,77
1,78,103,13
1,78,0,31
1,78,124,19
1,78,0,14
1,78,115,18
1,78,0,34
1,80,116,14
1,80,0,33
1,78,114,13
1,78,0,34
1,77,118,18
1,77,0,15
1,75,113,12
1,75,0,35
1,77,116,12
1,77,0,44
1,78,127,18
1,78,0,116
1,77,113,17
1,77,0,36
1,78,115,14
1,78,0,33
1,80,114,13
1,80,0,35
1,75,120,10
1,75,0,15
1,75,118,101
1,75,0,38
1,77,117,10
1,77,0,44
1,78,120,3
1,78,0,83
1,78,104,15
1,78,0,26
1,78,119,20
1,78,0,11
1,78,118,21
1,78,0,41
1,82,116,11
1,82,0,77
1,80,120,14
1,80,0,202
1,77,116,35
1,77,0,33
1,73,119,20
1,70,121,140
1,73,0,2
1,70,0,22
1,75,116,122
1,75,0,34
1,77,113,12
1,77,0,33
1,78,119,19
1,78,0,77
1,78,103,13
1,78,0,31
1,78,124,19
1,78,0,14
1,78,115,18
1,78,0,34
1,80,116,14
1,80,0,33
1,78,114,13
1,78,0,34
1,77,118,18
1,77,0,15
1,75,113,12
1,75,0,35
1,77,116,12
1,77,0,44
1,78,127,18
1,78,0,116
1,77,113,17
1,77,0,36
1,78,115,14
1,78,0,33
1,80,114,13
1,80,0,35
1,75,120,10
1,75,0,15
1,75,118,101
1,75,0,38
1,77,117,10
1,77,0,44
1,78,120,3
1,78,0,83
1,78,104,15
1,78,0,26
1,78,119,20
1,78,0,11
1,78,118,21
1,78,0,41
1,82,116,11
1,82,0,77
1,80,120,14
1,80,0,202
1,77,116,35
1,77,0,33
1,73,119,20
1,70,121,140
1,73,0,2
1,70,0,22
1,75,116,122
1,75,0,34
1,77,113,12
1,77,0,33
1,78,119,19
1,78,0,77
1,78,103,13
1,78,0,31
1,78,124,19
1,78,0,14
1,78,115,18
1,78,0,34
1,80,116,14
1,80,0,33
1,78,114,13
1,78,0,34
1,77,118,18
1,77,0,15
1,75,113,12
1,75,0,35
1,77,116,12
1,77,0,44
1,78,127,18
1,78,0,116
1,77,113,17
1,77,0,36
1,78,115,14
1,78,0,33
1,80,114,13
1,80,0,35
1,75,120,10
1,75,0,15
1,75,118,101
1,75,0,38
1,77,117,10
1,77,0,44
1,78,120,3
1,78,0,83
1,78,104,15
1,78,0,26
1,78,119,20
1,78,0,11
1,78,118,21
1,78,0,41
1,82,116,11
1,82,0,77
1,80,120,14
1,80,0,202
1,77,116,35
1,77,0,33
1,73,119,20
1,70,121,140
1,73,0,2
1,70,0,22
1,75,116,122
1,75,0,34
1,77,113,12
1,77,0,33
1,78,119,19
1,78,0,77
1,78,103,13
1,78,0,31
1,78,124,19
1,78,0,14
1,78,115,18
1,78,0,34
1,80,116,14
1,80,0,33
1,78,114,13
1,78,0,34
1,77,118,18
1,77,0,15
1,75,113,12
1,75,0,35
1,77,116,12
1,77,0,44
1,78,127,18
1,78,0,116
1,77,113,17
1,77,0,36
1,78,115,14
1,78,0,33
1,80,114,13
1,80,0,35
1,75,120,10
1,75,0,15
1,75,118,101
1,75,0,38
1,77,117,10
1,77,0,44
1,78,123,5
1,78,0,72
1,78,100,18
1,78,0,25
1,78,119,22
1,78,0,12
1,78,114,17
1,78,0,48
1,80,120,21
1,80,0,45
1,80,124,19
1,80,0,16
1,82,120,14
1,82,0,12
1,80,119,330
1,80,0,32
1,82,118,16
1,82,0,31
1,83,121,23
1,83,0,24
1,83,120,18
1,83,0,18
1,83,111,20
1,83,0,23
1,83,118,26
1,82,116,46
1,83,0,6
1,82,0,15
1,82,125,24
1,80,119,150
1,82,0,0
1,80,0,90
1,78,115,4
1,78,0,15
1,80,114,9
1,80,0,17
1,82,119,9
1,82,0,116
1,82,119,26
1,80,115,56
1,82,0,9
1,78,118,28
1,80,0,7
1,78,0,9
1,80,120,109
1,80,0,29
1,82,115,13
1,82,0,25
1,83,121,26
1,83,0,24
1,83,124,31
1,83,0,147
1,83,106,32
1,85,112,53
1,83,0,9
1,85,0,22
1,80,121,17
1,80,0,26
1,80,124,24
1,80,0,0
1,80,123,26
1,80,0,59
1,85,127,33
1,85,0,6
1,80,124,301
1,80,0,33
1,82,125,14
1,82,0,33
1,83,127,26
1,83,0,78
1,83,120,56
1,83,0,172
1,83,117,26
1,85,119,45
1,83,0,0
1,85,0,32
1,87,115,13
1,87,0,21
1,85,127,26
1,85,0,18
1,83,116,8
1,83,0,60
1,85,123,23
1,85,0,33
1,87,113,10
1,87,0,27
1,85,110,5
1,85,0,23
1,83,116,10
1,83,0,32
1,85,110,8
1,85,0,26
1,83,98,4
1,83,0,29
1,82,107,3
1,82,0,28
1,83,103,2
1,83,0,24
1,82,105,6
1,82,0,26
1,80,110,4
1,80,0,23
1,82,110,10
1,82,0,24
1,80,106,5
1,78,119,28
1,80,0,0
1,78,0,7
1,75,120,86
1,75,0,38
1,77,113,7
1,77,0,30
1,78,121,17
1,78,0,117
1,78,121,27
1,78,0,157
1,80,120,28
1,78,118,38
1,80,0,3
1,78,0,20
1,78,120,22
1,78,0,38
1,77,116,1
1,77,0,23
1,77,114,13
1,77,0,280
1,75,125,14
1,75,0,44
1,75,116,100
1,75,0,34
1,77,113,12
1,77,0,33
1,78,119,19
1,78,0,77
1,78,103,13
1,78,0,31
1,78,124,19
1,78,0,14
1,78,115,18
1,78,0,34
1,80,116,14
1,80,0,33
1,78,114,13
1,78,0,34
1,77,118,18
1,77,0,15
1,75,113,12
1,75,0,35
1,77,116,12
1,77,0,44
1,78,127,18
1,78,0,116
1,77,113,17
1,77,0,36
1,78,115,14
1,78,0,33
1,80,114,13
1,80,0,35
1,75,120,10
1,75,0,15
1,75,118,101
1,75,0,38
1,77,117,10
1,77,0,44
1,78,120,3
1,78,0,83
1,78,104,15
1,78,0,26
1,78,119,20
1,78,0,11
1,78,118,21
1,78,0,41
1,82,116,11
1,82,0,77
1,80,120,14
1,80,0,202
1,77,116,35
1,77,0,33
1,73,119,20
1,70,121,140
1,73,0,2
1,70,0,22
1,75,116,122
1,75,0,34
1,77,113,12
1,77,0,33
1,78,119,19
1,78,0,77
1,78,103,13
1,78,0,31
1,78,124,19
1,78,0,14
1,78,115,18
1,78,0,34
1,80,116,14
1,80,0,33
1,78,114,13
1,78,0,34
1,77,118,18
1,77,0,15
1,75,113,12
1,75,0,35
1,77,116,12
1,77,0,44
1,78,127,18
1,78,0,116
1,77,113,17
1,77,0,36
1,78,115,14
1,78,0,33
1,80,114,13
1,80,0,35
1,75,120,10
1,75,0,15
1,75,118,101
1,75,0,38
1,77,117,10
1,77,0,44
1,78,123,5
1,78,0,72
1,78,100,18
1,78,0,25
1,78,119,22
1,78,0,12
1,78,114,17
1,78,0,48
1,80,120,21
1,80,0,45
1,80,124,19
1,80,0,16
1,82,120,14
1,82,0,12
1,80,119,330
1,80,0,32
1,82,118,16
1,82,0,31
1,83,121,23
1,83,0,24
1,83,120,18
1,83,0,18
1,83,111,20
1,83,0,23
1,83,118,26
1,82,116,46
1,83,0,6
1,82,0,15
1,82,125,24
1,80,119,150
1,82,0,0
1,80,0,90
1,78,115,4
1,78,0,15
1,80,114,9
1,80,0,17
1,82,119,9
1,82,0,116
1,82,119,26
1,80,115,56
1,82,0,9
1,78,118,28
1,80,0,7
1,78,0,9
1,80,120,109
1,80,0,29
1,82,115,13
1,82,0,25
1,83,121,26
1,83,0,24
1,83,124,31
1,83,0,147
1,83,106,32
1,85,112,53
1,83,0,9
1,85,0,22
1,80,121,17
1,80,0,26
1,80,124,24
1,80,0,0
1,80,123,26
1,80,0,59
1,85,127,33
1,85,0,6
1,80,124,301
1,80,0,33
1,82,125,14
1,82,0,33
1,83,127,26
1,83,0,78
1,83,120,56
1,83,0,172
1,83,117,26
1,85,119,45
1,83,0,0
1,85,0,32
1,87,115,13
1,87,0,21
1,85,127,26
1,85,0,18
1,83,116,8
1,83,0,60
1,85,123,23
1,85,0,33
1,87,113,10
1,87,0,27
1,85,110,5
1,85,0,23
1,83,116,10
1,83,0,32
1,85,110,8
1,85,0,26
1,83,98,4
1,83,0,29
1,82,107,3
1,82,0,28
1,83,103,2
1,83,0,24
1,82,105,6
1,82,0,26
1,80,110,4
1,80,0,23
1,82,110,10
1,82,0,24
1,80,106,5
1,78,119,28
1,80,0,0
1,78,0,7
1,75,120,86
1,75,0,38
1,77,113,7
1,77,0,30
1,78,121,17
1,78,0,117
1,78,121,27
1,78,0,157
1,80,120,28
1,78,118,38
1,80,0,3
1,78,0,20
1,78,120,22
1,78,0,38
1,77,116,1
1,77,0,23
1,77,114,13
1,77,0,280
1,75,125,14
1,75,0,81
1,80,121,95
1,80,0,28
1,82,113,15
1,82,0,25
1,83,126,27
1,83,0,102
1,83,124,36
1,83,0,173
1,83,111,22
1,83,0,30
1,83,107,19
1,83,0,24
1,85,114,8
1,85,0,19
1,87,116,11
1,87,0,19
1,85,121,12
1,85,0,20
1,83,108,12
1,83,0,28
1,83,112,25
1,83,0,26
1,85,100,13
1,85,0,21
1,83,84,10
1,83,0,27
1,82,107,7
1,82,0,28
1,83,106,2
1,83,0,22
1,82,107,6
1,82,0,23
1,80,108,8
1,80,0,25
1,82,100,8
1,82,0,22
1,80,107,8
1,80,0,23
1,78,115,9
1,78,0,34
1,80,109,8
1,78,124,56
1,80,0,3
1,78,0,20
1,75,119,35
1,75,0,35
1,77,107,8
1,77,0,31
1,78,124,19
1,78,0,116
1,78,121,28
1,80,114,194
1,78,0,0
1,78,110,47
1,80,0,5
1,78,0,18
1,78,116,26
1,77,114,47
1,78,0,1
1,75,123,185
1,77,0,0
1,75,0,0
1,75,118,6242
1,75,0,34
1,77,112,12
1,77,0,29
1,78,120,22
1,78,0,116
1,78,116,28
1,78,0,18
1,78,115,21
1,80,107,49
1,78,0,2
1,78,110,43
1,80,0,4
1,77,111,41
1,78,0,2
1,77,0,8
1,75,99,4
1,77,102,42
1,75,0,1
1,77,0,43
1,78,119,4
1,78,0,92
1,77,73,4
1,77,0,14
1,78,120,34
1,80,110,102
1,78,0,3
1,75,119,92
1,80,0,0
1,75,0,35
1,75,95,22
1,77,93,45
1,75,0,4
1,77,0,39
1,78,116,6
1,78,0,109
1,78,116,29
1,78,0,173
1,78,116,34
1,78,0,70
1,82,118,3
1,82,0,63
1,80,107,3
1,80,0,46
1,80,115,24
1,80,0,24
1,77,109,1
1,73,118,135
1,77,0,10
1,70,113,229
1,73,0,2
1,70,0,1
2,42,114,9494
2,35,120,0
2,55,105,0
2,55,0,32
2,35,0,0
2,42,0,0
2,42,114,160
2,42,0,32
2,42,114,160
2,42,0,32
2,42,114,160
2,42,0,32
2,42,114,160
2,35,120,0
2,35,0,32
2,42,0,0
2,42,114,160
2,42,0,32
2,42,114,160
2,42,0,32
2,42,114,160
2,42,0,32
2,35,120,64
2,35,0,32
2,42,114,64
2,35,120,0
2,35,0,32
2,42,0,0
2,42,114,160
2,42,0,32
2,42,114,160
2,35,120,0
2,35,0,32
2,42,0,0
2,42,114,160
2,42,0,32
2,42,114,160
2,35,120,0
2,35,0,32
2,42,0,0
2,42,114,160
2,42,0,32
2,42,114,160
2,35,120,0
2,35,0,32
2,42,0,0
2,35,120,112
2,35,0,32
2,35,120,16
2,46,114,0
2,46,0,32
2,35,0,0
2,42,114,160
2,35,120,0
2,35,0,32
2,42,0,0
2,42,114,160
2,42,0,32
2,42,114,160
2,42,0,32
2,42,114,160
2,42,0,32
2,42,114,160
2,35,120,0
2,35,0,32
2,42,0,0
2,42,114,160
2,42,0,32
2,42,114,160
2,42,0,32
2,42,114,160
2,42,0,32
2,35,120,64
2,35,0,32
2,42,114,64
2,35,120,0
2,35,0,32
2,42,0,0
2,42,114,160
2,42,0,32
2,42,114,160
2,35,120,0
2,35,0,32
2,42,0,0
2,42,114,160
2,42,0,32
2,42,114,160
2,35,120,0
2,35,0,32
2,42,0,0
2,42,114,160
2,38,120,0
2,38,0,32
2,42,0,0
2,35,90,112
2,35,0,32
2,42,114,16
2,35,120,0
2,35,0,32
2,42,0,0
2,38,120,16
2,38,0,32
2,35,120,16
2,35,0,32
2,35,120,16
2,35,0,32
2,46,114,16
2,38,120,0
2,38,0,32
2,46,0,0
2,47,100,64
2,44,120,0
2,44,0,32
2,47,0,0
2,43,100,16
2,43,0,32
2,42,114,16
2,35,120,0
2,49,105,0
2,49,0,32
2,35,0,0
2,42,0,0
2,42,56,16
2,81,67,0
2,81,0,24
2,42,0,8
2,42,114,16
2,54,114,0
2,54,0,28
2,42,0,4
2,42,56,16
2,70,86,0
2,80,40,0
2,80,0,16
2,70,0,11
2,42,0,5
2,42,114,16
2,38,120,0
2,80,77,0
2,80,0,17
2,38,0,15
2,42,0,0
2,46,114,16
2,46,0,32
2,42,114,16
2,54,108,0
2,54,0,24
2,42,0,8
2,42,56,16
2,35,120,0
2,81,88,0
2,81,0,27
2,35,0,5
2,42,0,0
2,42,114,16
2,35,120,0
2,35,0,32
2,42,0,0
2,42,56,16
2,80,63,0
2,80,0,14
2,42,0,18
2,42,114,16
2,54,107,0
2,80,52,0
2,80,0,15
2,54,0,8
2,42,0,9
2,42,56,16
2,70,82,0
2,82,49,24
2,70,0,2
2,42,0,6
2,82,0,13
2,42,114,3
2,38,120,0
2,35,120,0
2,35,0,32
2,38,0,0
2,42,0,0
2,42,56,16
2,81,57,0
2,81,0,15
2,42,0,17
2,42,114,16
2,54,108,0
2,54,0,23
2,42,0,9
2,42,56,16
2,80,66,0
2,80,0,14
2,42,0,18
2,42,114,16
2,35,120,0
2,35,0,32
2,42,0,0
2,42,56,16
2,81,67,0
2,81,0,24
2,42,0,8
2,42,114,16
2,54,114,0
2,54,0,28
2,42,0,4
2,42,56,16
2,70,86,0
2,80,40,0
2,80,0,16
2,70,0,11
2,42,0,5
2,42,114,16
2,38,120,0
2,80,77,0
2,80,0,17
2,38,0,15
2,42,0,0
2,42,54,16
2,42,0,32
2,42,114,16
2,54,108,0
2,54,0,24
2,42,0,8
2,42,56,16
2,35,120,0
2,81,88,0
2,81,0,27
2,35,0,5
2,42,0,0
2,42,114,16
2,35,120,0
2,35,0,32
2,42,0,0
2,42,56,16
2,80,63,0
2,80,0,14
2,42,0,18
2,42,114,16
2,54,107,0
2,80,52,0
2,80,0,15
2,54,0,8
2,42,0,9
2,42,56,16
2,70,82,0
2,82,49,24
2,70,0,2
2,42,0,6
2,82,0,13
2,42,114,3
2,38,120,0
2,35,120,0
2,35,0,32
2,38,0,0
2,42,0,0
2,42,56,16
2,81,57,0
2,81,0,15
2,42,0,17
2,42,114,16
2,54,108,0
2,54,0,23
2,42,0,9
2,42,56,16
2,80,66,0
2,80,0,14
2,42,0,18
2,42,114,16
2,35,120,0
2,35,0,32
2,42,0,0
2,42,56,16
2,81,67,0
2,81,0,24
2,42,0,8
2,42,114,16
2,54,114,0
2,54,0,28
2,42,0,4
2,42,56,16
2,70,86,0
2,80,40,0
2,80,0,16
2,70,0,11
2,42,0,5
2,42,114,16
2,38,120,0
2,80,77,0
2,80,0,17
2,38,0,15
2,42,0,0
2,46,114,16
2,46,0,32
2,42,114,16
2,54,108,0
2,54,0,24
2,42,0,8
2,42,56,16
2,35,120,0
2,81,88,0
2,81,0,27
2,35,0,5
2,42,0,0
2,42,114,16
2,35,120,0
2,35,0,32
2,42,0,0
2,42,56,16
2,80,63,0
2,80,0,14
2,42,0,18
2,42,114,16
2,54,107,0
2,80,52,0
2,80,0,15
2,54,0,8
2,42,0,9
2,42,56,16
2,70,82,0
2,82,49,24
2,70,0,2
2,42,0,6
2,82,0,13
2,42,114,3
2,38,120,0
2,35,120,0
2,35,0,32
2,38,0,0
2,42,0,0
2,42,56,16
2,81,57,0
2,81,0,15
2,42,0,17
2,42,114,16
2,54,108,0
2,54,0,23
2,42,0,9
2,42,56,16
2,80,66,0
2,80,0,14
2,42,0,18
2,42,114,16
2,35,120,0
