track,note,velocity,time
0.0,75.0,127.0,0.0
0.0,77.0,127.0,4.0
0.0,79.0,127.0,8.0
0.0,39.0,127.0,0.0
0.0,58.0,127.0,0.0
0.0,63.0,127.0,0.0
0.0,67.0,127.0,0.0
0.0,67.0,127.0,0.0
0.0,67.0,127.0,0.0
0.0,36.0,127.0,0.0
0.0,49.0,87.0,0.0
0.0,42.0,127.0,0.0
0.0,42.0,127.0,152.0
0.0,39.0,127.0,88.0
0.0,36.0,87.0,0.0
0.0,63.0,127.0,0.0
0.0,42.0,127.0,0.0
0.0,36.0,127.0,8.0
0.0,39.0,127.0,0.0
0.0,42.0,127.0,0.0
0.0,75.0,127.0,4.0
0.0,34.0,127.0,0.0
0.0,70.0,127.0,0.0
0.0,36.0,87.0,0.0
0.0,64.0,127.0,0.0
0.0,74.0,127.0,0.0
0.0,42.0,127.0,0.0
0.0,75.0,127.0,4.0
0.0,39.0,127.0,0.0
0.0,36.0,127.0,0.0
0.0,42.0,127.0,0.0
0.0,42.0,127.0,4.0
0.0,39.0,127.0,88.0
0.0,36.0,87.0,0.0
0.0,76.0,127.0,0.0
0.0,42.0,127.0,0.0
0.0,36.0,127.0,8.0
0.0,39.0,127.0,0.0
0.0,42.0,127.0,0.0
0.0,34.0,127.0,152.0
0.0,36.0,87.0,0.0
0.0,64.0,127.0,0.0
0.0,42.0,127.0,0.0
0.0,39.0,127.0,28.0
0.0,36.0,127.0,0.0
0.0,42.0,127.0,0.0
0.0,42.0,127.0,4.0
0.0,39.0,127.0,88.0
0.0,36.0,87.0,0.0
0.0,63.0,127.0,0.0
0.0,42.0,127.0,0.0
0.0,36.0,127.0,8.0
0.0,39.0,127.0,0.0
0.0,42.0,127.0,0.0
0.0,34.0,127.0,152.0
0.0,36.0,87.0,0.0
0.0,64.0,127.0,0.0
0.0,42.0,127.0,0.0
0.0,39.0,127.0,156.0
0.0,36.0,127.0,0.0
0.0,42.0,127.0,0.0
0.0,42.0,127.0,24.0
0.0,39.0,127.0,88.0
0.0,36.0,87.0,0.0
0.0,76.0,127.0,0.0
0.0,42.0,127.0,0.0
0.0,75.0,127.0,8.0
0.0,65.0,127.0,0.0
0.0,36.0,127.0,0.0
0.0,39.0,127.0,0.0
0.0,42.0,127.0,0.0
0.0,77.0,127.0,8.0
0.0,34.0,127.0,0.0
0.0,36.0,87.0,0.0
0.0,64.0,127.0,0.0
0.0,42.0,127.0,0.0
0.0,79.0,127.0,4.0
0.0,36.0,127.0,0.0
0.0,60.0,127.0,0.0
0.0,63.0,127.0,0.0
0.0,67.0,127.0,0.0
0.0,60.0,127.0,0.0
0.0,63.0,127.0,0.0
0.0,36.0,127.0,0.0
0.0,42.0,127.0,0.0
0.0,63.0,127.0,40.0
0.0,42.0,127.0,0.0
0.0,36.0,127.0,84.0
0.0,36.0,87.0,0.0
0.0,63.0,127.0,0.0
0.0,42.0,127.0,0.0
0.0,67.0,127.0,8.0
0.0,36.0,127.0,0.0
0.0,39.0,127.0,0.0
0.0,42.0,127.0,0.0
0.0,75.0,127.0,8.0
0.0,31.0,127.0,0.0
0.0,72.0,127.0,0.0
0.0,36.0,87.0,0.0
0.0,64.0,127.0,0.0
0.0,74.0,127.0,0.0
0.0,42.0,127.0,0.0
0.0,75.0,127.0,0.0
0.0,36.0,127.0,0.0
0.0,36.0,127.0,0.0
0.0,42.0,127.0,0.0
0.0,42.0,127.0,48.0
0.0,36.0,127.0,84.0
0.0,36.0,87.0,0.0
0.0,76.0,127.0,0.0
0.0,42.0,127.0,0.0
0.0,36.0,127.0,8.0
0.0,39.0,127.0,0.0
0.0,42.0,127.0,0.0
0.0,31.0,127.0,156.0
0.0,36.0,87.0,0.0
0.0,64.0,127.0,0.0
0.0,42.0,127.0,0.0
0.0,36.0,127.0,0.0
0.0,36.0,127.0,0.0
0.0,42.0,127.0,0.0
0.0,42.0,127.0,60.0
0.0,36.0,127.0,88.0
0.0,36.0,87.0,0.0
0.0,63.0,127.0,0.0
0.0,42.0,127.0,0.0
0.0,36.0,127.0,4.0
0.0,39.0,127.0,0.0
0.0,42.0,127.0,0.0
0.0,31.0,127.0,156.0
0.0,36.0,87.0,0.0
0.0,64.0,127.0,0.0
0.0,42.0,127.0,0.0
0.0,36.0,127.0,152.0
0.0,36.0,127.0,0.0
0.0,42.0,127.0,0.0
0.0,42.0,127.0,84.0
0.0,36.0,127.0,88.0
0.0,36.0,87.0,0.0
0.0,76.0,127.0,0.0
0.0,42.0,127.0,0.0
0.0,75.0,127.0,4.0
0.0,62.0,127.0,0.0
0.0,36.0,127.0,0.0
0.0,39.0,127.0,0.0
0.0,42.0,127.0,0.0
0.0,82.0,127.0,8.0
0.0,31.0,127.0,0.0
0.0,36.0,87.0,0.0
0.0,64.0,127.0,0.0
0.0,42.0,127.0,0.0
0.0,82.0,127.0,0.0
0.0,32.0,127.0,0.0
0.0,56.0,127.0,0.0
0.0,60.0,127.0,0.0
0.0,63.0,127.0,0.0
0.0,56.0,127.0,0.0
0.0,60.0,127.0,0.0
0.0,36.0,127.0,0.0
0.0,42.0,127.0,0.0
0.0,60.0,127.0,44.0
0.0,42.0,127.0,0.0
0.0,32.0,127.0,88.0
0.0,36.0,87.0,0.0
0.0,63.0,127.0,0.0
0.0,42.0,127.0,0.0
0.0,63.0,127.0,0.0
0.0,36.0,127.0,0.0
0.0,39.0,127.0,0.0
0.0,42.0,127.0,0.0
0.0,75.0,127.0,4.0
0.0,27.0,127.0,0.0
0.0,70.0,127.0,0.0
0.0,36.0,87.0,0.0
0.0,64.0,127.0,0.0
0.0,74.0,127.0,0.0
0.0,42.0,127.0,0.0
0.0,75.0,127.0,8.0
0.0,32.0,127.0,0.0
0.0,36.0,127.0,0.0
0.0,42.0,127.0,0.0
0.0,42.0,127.0,12.0
0.0,32.0,127.0,88.0
0.0,36.0,87.0,0.0
0.0,76.0,127.0,0.0
0.0,42.0,127.0,0.0
0.0,36.0,127.0,8.0
0.0,39.0,127.0,0.0
0.0,42.0,127.0,0.0
0.0,77.0,127.0,152.0
0.0,32.0,127.0,0.0
0.0,36.0,87.0,0.0
0.0,64.0,127.0,0.0
0.0,42.0,127.0,0.0
0.0,79.0,127.0,4.0
0.0,34.0,127.0,0.0
0.0,58.0,127.0,0.0
0.0,62.0,127.0,0.0
0.0,65.0,127.0,0.0
0.0,58.0,127.0,0.0
0.0,58.0,127.0,0.0
0.0,36.0,127.0,0.0
0.0,42.0,127.0,0.0
0.0,42.0,127.0,12.0
0.0,34.0,127.0,88.0
0.0,36.0,87.0,0.0
0.0,63.0,127.0,0.0
0.0,42.0,127.0,0.0
0.0,36.0,127.0,8.0
0.0,39.0,127.0,0.0
0.0,42.0,127.0,0.0
0.0,77.0,127.0,4.0
0.0,29.0,127.0,0.0
0.0,70.0,127.0,0.0
0.0,36.0,87.0,0.0
0.0,64.0,127.0,0.0
0.0,42.0,127.0,0.0
0.0,34.0,127.0,20.0
0.0,36.0,127.0,0.0
0.0,42.0,127.0,0.0
0.0,42.0,127.0,8.0
0.0,34.0,127.0,88.0
0.0,36.0,87.0,0.0
0.0,76.0,127.0,0.0
0.0,42.0,127.0,0.0
0.0,77.0,127.0,8.0
0.0,36.0,127.0,0.0
0.0,39.0,127.0,0.0
0.0,42.0,127.0,0.0
0.0,75.0,127.0,4.0
0.0,29.0,127.0,0.0
0.0,36.0,87.0,0.0
0.0,64.0,127.0,0.0
0.0,42.0,127.0,0.0
0.0,79.0,127.0,4.0
0.0,39.0,127.0,0.0
0.0,58.0,127.0,0.0
0.0,63.0,127.0,0.0
0.0,67.0,127.0,0.0
0.0,67.0,127.0,0.0
0.0,67.0,127.0,0.0
0.0,36.0,127.0,0.0
0.0,42.0,127.0,0.0
0.0,42.0,127.0,156.0
0.0,39.0,127.0,84.0
0.0,36.0,87.0,0.0
0.0,63.0,127.0,0.0
0.0,42.0,127.0,0.0
0.0,36.0,127.0,8.0
0.0,39.0,127.0,0.0
0.0,42.0,127.0,0.0
0.0,34.0,127.0,156.0
0.0,70.0,127.0,0.0
0.0,36.0,87.0,0.0
0.0,64.0,127.0,0.0
0.0,74.0,127.0,0.0
0.0,42.0,127.0,0.0
0.0,39.0,127.0,0.0
0.0,36.0,127.0,0.0
0.0,42.0,127.0,0.0
0.0,42.0,127.0,8.0
0.0,39.0,127.0,84.0
0.0,36.0,87.0,0.0
0.0,76.0,127.0,0.0
0.0,42.0,127.0,0.0
0.0,36.0,127.0,8.0
0.0,39.0,127.0,0.0
0.0,42.0,127.0,0.0
0.0,34.0,127.0,156.0
0.0,36.0,87.0,0.0
0.0,64.0,127.0,0.0
0.0,42.0,127.0,0.0
0.0,39.0,127.0,24.0
0.0,36.0,127.0,0.0
0.0,42.0,127.0,0.0
0.0,42.0,127.0,20.0
0.0,39.0,127.0,88.0
0.0,36.0,87.0,0.0
0.0,63.0,127.0,0.0
0.0,42.0,127.0,0.0
0.0,36.0,127.0,4.0
0.0,39.0,127.0,0.0
0.0,42.0,127.0,0.0
0.0,34.0,127.0,156.0
0.0,36.0,87.0,0.0
0.0,64.0,127.0,0.0
0.0,42.0,127.0,0.0
0.0,39.0,127.0,152.0
0.0,36.0,127.0,0.0
0.0,42.0,127.0,0.0
0.0,42.0,127.0,28.0
0.0,39.0,127.0,88.0
0.0,36.0,87.0,0.0
0.0,76.0,127.0,0.0
0.0,42.0,127.0,0.0
0.0,75.0,127.0,4.0
0.0,65.0,127.0,0.0
0.0,36.0,127.0,0.0
0.0,39.0,127.0,0.0
0.0,42.0,127.0,0.0
0.0,77.0,127.0,8.0
0.0,34.0,127.0,0.0
0.0,36.0,87.0,0.0
0.0,64.0,127.0,0.0
0.0,42.0,127.0,0.0
0.0,79.0,127.0,4.0
0.0,36.0,127.0,0.0
0.0,60.0,127.0,0.0
0.0,63.0,127.0,0.0
0.0,67.0,127.0,0.0
0.0,60.0,127.0,0.0
0.0,63.0,127.0,0.0
0.0,36.0,127.0,0.0
0.0,42.0,127.0,0.0
0.0,63.0,127.0,40.0
0.0,42.0,127.0,0.0
0.0,36.0,127.0,88.0
0.0,36.0,87.0,0.0
0.0,63.0,127.0,0.0
0.0,42.0,127.0,0.0
0.0,67.0,127.0,8.0
0.0,36.0,127.0,0.0
0.0,39.0,127.0,0.0
0.0,42.0,127.0,0.0
0.0,75.0,127.0,8.0
0.0,31.0,127.0,0.0
0.0,72.0,127.0,0.0
0.0,36.0,87.0,0.0
0.0,64.0,127.0,0.0
0.0,74.0,127.0,0.0
0.0,42.0,127.0,0.0
0.0,75.0,127.0,4.0
0.0,36.0,127.0,0.0
0.0,36.0,127.0,0.0
0.0,42.0,127.0,0.0
0.0,42.0,127.0,44.0
0.0,36.0,127.0,88.0
0.0,36.0,87.0,0.0
0.0,76.0,127.0,0.0
0.0,42.0,127.0,0.0
0.0,36.0,127.0,8.0
0.0,39.0,127.0,0.0
0.0,42.0,127.0,0.0
0.0,31.0,127.0,152.0
0.0,36.0,87.0,0.0
0.0,64.0,127.0,0.0
0.0,42.0,127.0,0.0
0.0,36.0,127.0,0.0
0.0,36.0,127.0,0.0
0.0,42.0,127.0,0.0
0.0,42.0,127.0,4.0
0.0,36.0,127.0,88.0
0.0,36.0,87.0,0.0
0.0,63.0,127.0,0.0
0.0,42.0,127.0,0.0
0.0,36.0,127.0,8.0
0.0,39.0,127.0,0.0
0.0,42.0,127.0,0.0
0.0,31.0,127.0,152.0
0.0,36.0,87.0,0.0
0.0,64.0,127.0,0.0
0.0,42.0,127.0,0.0
0.0,36.0,127.0,156.0
0.0,36.0,127.0,0.0
0.0,42.0,127.0,0.0
0.0,42.0,127.0,80.0
0.0,36.0,127.0,88.0
0.0,36.0,87.0,0.0
0.0,76.0,127.0,0.0
0.0,42.0,127.0,0.0
0.0,75.0,127.0,8.0
0.0,62.0,127.0,0.0
0.0,36.0,127.0,0.0
0.0,39.0,127.0,0.0
0.0,42.0,127.0,0.0
0.0,82.0,127.0,4.0
0.0,31.0,127.0,0.0
0.0,36.0,87.0,0.0
0.0,64.0,127.0,0.0
0.0,42.0,127.0,0.0
0.0,82.0,127.0,8.0
0.0,32.0,127.0,0.0
0.0,56.0,127.0,0.0
0.0,60.0,127.0,0.0
0.0,63.0,127.0,0.0
0.0,56.0,127.0,0.0
0.0,60.0,127.0,0.0
0.0,36.0,127.0,0.0
0.0,42.0,127.0,0.0
0.0,60.0,127.0,44.0
0.0,42.0,127.0,0.0
0.0,32.0,127.0,88.0
0.0,36.0,87.0,0.0
0.0,63.0,127.0,0.0
0.0,42.0,127.0,0.0
0.0,63.0,127.0,0.0
0.0,36.0,127.0,0.0
0.0,39.0,127.0,0.0
0.0,42.0,127.0,0.0
0.0,75.0,127.0,8.0
0.0,27.0,127.0,0.0
0.0,70.0,127.0,0.0
0.0,36.0,87.0,0.0
0.0,64.0,127.0,0.0
0.0,74.0,127.0,0.0
0.0,42.0,127.0,0.0
0.0,75.0,127.0,4.0
0.0,32.0,127.0,0.0
0.0,36.0,127.0,0.0
0.0,42.0,127.0,0.0
0.0,42.0,127.0,16.0
0.0,32.0,127.0,84.0
0.0,36.0,87.0,0.0
0.0,76.0,127.0,0.0
0.0,42.0,127.0,0.0
0.0,36.0,127.0,8.0
0.0,39.0,127.0,0.0
0.0,42.0,127.0,0.0
0.0,77.0,127.0,8.0
0.0,32.0,127.0,0.0
0.0,36.0,87.0,0.0
0.0,64.0,127.0,0.0
0.0,42.0,127.0,0.0
0.0,79.0,127.0,4.0
0.0,34.0,127.0,0.0
0.0,58.0,127.0,0.0
0.0,62.0,127.0,0.0
0.0,65.0,127.0,0.0
0.0,58.0,127.0,0.0
0.0,58.0,127.0,0.0
0.0,36.0,127.0,0.0
0.0,42.0,127.0,0.0
0.0,42.0,127.0,16.0
0.0,34.0,127.0,84.0
0.0,36.0,87.0,0.0
0.0,63.0,127.0,0.0
0.0,42.0,127.0,0.0
0.0,36.0,127.0,8.0
0.0,39.0,127.0,0.0
0.0,42.0,127.0,0.0
0.0,77.0,127.0,8.0
0.0,29.0,127.0,0.0
0.0,70.0,127.0,0.0
0.0,36.0,87.0,0.0
0.0,64.0,127.0,0.0
0.0,42.0,127.0,0.0
0.0,34.0,127.0,16.0
0.0,36.0,127.0,0.0
0.0,42.0,127.0,0.0
0.0,42.0,127.0,8.0
0.0,34.0,127.0,88.0
0.0,36.0,87.0,0.0
0.0,76.0,127.0,0.0
0.0,42.0,127.0,0.0
0.0,77.0,127.0,4.0
0.0,36.0,127.0,0.0
0.0,39.0,127.0,0.0
0.0,42.0,127.0,0.0
0.0,75.0,127.0,8.0
0.0,29.0,127.0,0.0
0.0,36.0,87.0,0.0
0.0,64.0,127.0,0.0
0.0,42.0,127.0,0.0
0.0,79.0,127.0,0.0
0.0,39.0,127.0,0.0
0.0,58.0,127.0,0.0
0.0,63.0,127.0,0.0
0.0,67.0,127.0,0.0
0.0,67.0,127.0,0.0
0.0,67.0,127.0,0.0
0.0,36.0,127.0,0.0
0.0,49.0,87.0,0.0
0.0,42.0,127.0,0.0
0.0,42.0,127.0,156.0
0.0,39.0,127.0,88.0
0.0,36.0,87.0,0.0
0.0,63.0,127.0,0.0
0.0,42.0,127.0,0.0
0.0,36.0,127.0,4.0
0.0,39.0,127.0,0.0
0.0,42.0,127.0,0.0
0.0,75.0,127.0,8.0
0.0,34.0,127.0,0.0
0.0,70.0,127.0,0.0
0.0,36.0,87.0,0.0
0.0,64.0,127.0,0.0
0.0,74.0,127.0,0.0
0.0,42.0,127.0,0.0
0.0,75.0,127.0,4.0
0.0,39.0,127.0,0.0
0.0,36.0,127.0,0.0
0.0,42.0,127.0,0.0
0.0,42.0,127.0,4.0
0.0,39.0,127.0,88.0
0.0,36.0,87.0,0.0
0.0,76.0,127.0,0.0
0.0,42.0,127.0,0.0
0.0,36.0,127.0,8.0
0.0,39.0,127.0,0.0
0.0,42.0,127.0,0.0
0.0,34.0,127.0,152.0
0.0,36.0,87.0,0.0
0.0,64.0,127.0,0.0
0.0,42.0,127.0,0.0
0.0,39.0,127.0,28.0
0.0,36.0,127.0,0.0
0.0,42.0,127.0,0.0
0.0,42.0,127.0,4.0
0.0,39.0,127.0,88.0
0.0,36.0,87.0,0.0
0.0,63.0,127.0,0.0
0.0,42.0,127.0,0.0
0.0,36.0,127.0,8.0
0.0,39.0,127.0,0.0
0.0,42.0,127.0,0.0
0.0,34.0,127.0,152.0
0.0,36.0,87.0,0.0
0.0,64.0,127.0,0.0
0.0,42.0,127.0,0.0
0.0,39.0,127.0,156.0
0.0,36.0,127.0,0.0
0.0,42.0,127.0,0.0
0.0,42.0,127.0,24.0
0.0,39.0,127.0,88.0
0.0,36.0,87.0,0.0
0.0,76.0,127.0,0.0
0.0,42.0,127.0,0.0
0.0,75.0,127.0,8.0
0.0,65.0,127.0,0.0
0.0,36.0,127.0,0.0
0.0,39.0,127.0,0.0
0.0,42.0,127.0,0.0
0.0,77.0,127.0,4.0
0.0,34.0,127.0,0.0
0.0,36.0,87.0,0.0
0.0,64.0,127.0,0.0
0.0,42.0,127.0,0.0
0.0,79.0,127.0,8.0
0.0,36.0,127.0,0.0
0.0,60.0,127.0,0.0
0.0,63.0,127.0,0.0
0.0,67.0,127.0,0.0
0.0,60.0,127.0,0.0
0.0,63.0,127.0,0.0
0.0,36.0,127.0,0.0
0.0,42.0,127.0,0.0
0.0,63.0,127.0,36.0
0.0,42.0,127.0,0.0
0.0,36.0,127.0,88.0
0.0,36.0,87.0,0.0
0.0,63.0,127.0,0.0
0.0,42.0,127.0,0.0
0.0,67.0,127.0,8.0
0.0,36.0,127.0,0.0
0.0,39.0,127.0,0.0
0.0,42.0,127.0,0.0
0.0,75.0,127.0,4.0
0.0,31.0,127.0,0.0
0.0,72.0,127.0,0.0
0.0,36.0,87.0,0.0
0.0,64.0,127.0,0.0
0.0,74.0,127.0,0.0
0.0,42.0,127.0,0.0
0.0,75.0,127.0,4.0
0.0,36.0,127.0,0.0
0.0,36.0,127.0,0.0
0.0,42.0,127.0,0.0
0.0,42.0,127.0,48.0
0.0,36.0,127.0,84.0
0.0,36.0,87.0,0.0
0.0,76.0,127.0,0.0
0.0,42.0,127.0,0.0
0.0,36.0,127.0,8.0
0.0,39.0,127.0,0.0
0.0,42.0,127.0,0.0
0.0,31.0,127.0,156.0
0.0,36.0,87.0,0.0
0.0,64.0,127.0,0.0
0.0,42.0,127.0,0.0
0.0,36.0,127.0,0.0
0.0,36.0,127.0,0.0
0.0,42.0,127.0,0.0
0.0,42.0,127.0,60.0
0.0,36.0,127.0,84.0
0.0,36.0,87.0,0.0
0.0,63.0,127.0,0.0
0.0,42.0,127.0,0.0
0.0,36.0,127.0,8.0
0.0,39.0,127.0,0.0
0.0,42.0,127.0,0.0
0.0,31.0,127.0,156.0
0.0,36.0,87.0,0.0
0.0,64.0,127.0,0.0
0.0,42.0,127.0,0.0
0.0,36.0,127.0,152.0
0.0,36.0,127.0,0.0
0.0,42.0,127.0,0.0
0.0,42.0,127.0,84.0
0.0,36.0,127.0,88.0
0.0,36.0,87.0,0.0
0.0,76.0,127.0,0.0
0.0,42.0,127.0,0.0
0.0,75.0,127.0,4.0
0.0,62.0,127.0,0.0
0.0,36.0,127.0,0.0
0.0,39.0,127.0,0.0
0.0,42.0,127.0,0.0
0.0,82.0,127.0,8.0
0.0,31.0,127.0,0.0
0.0,36.0,87.0,0.0
0.0,64.0,127.0,0.0
0.0,42.0,127.0,0.0
0.0,82.0,127.0,4.0
0.0,32.0,127.0,0.0
0.0,56.0,127.0,0.0
0.0,60.0,127.0,0.0
0.0,63.0,127.0,0.0
0.0,56.0,127.0,0.0
0.0,60.0,127.0,0.0
0.0,36.0,127.0,0.0
0.0,42.0,127.0,0.0
0.0,60.0,127.0,48.0
0.0,42.0,127.0,0.0
0.0,32.0,127.0,88.0
0.0,36.0,87.0,0.0
0.0,63.0,127.0,0.0
0.0,42.0,127.0,0.0
0.0,63.0,127.0,4.0
0.0,36.0,127.0,0.0
0.0,39.0,127.0,0.0
0.0,42.0,127.0,0.0
0.0,75.0,127.0,8.0
0.0,27.0,127.0,0.0
0.0,70.0,127.0,0.0
0.0,36.0,87.0,0.0
0.0,64.0,127.0,0.0
0.0,74.0,127.0,0.0
0.0,42.0,127.0,0.0
0.0,75.0,127.0,4.0
0.0,32.0,127.0,0.0
0.0,36.0,127.0,0.0
0.0,42.0,127.0,0.0
0.0,42.0,127.0,16.0
0.0,32.0,127.0,88.0
0.0,36.0,87.0,0.0
0.0,76.0,127.0,0.0
0.0,42.0,127.0,0.0
0.0,36.0,127.0,8.0
0.0,39.0,127.0,0.0
0.0,42.0,127.0,0.0
0.0,77.0,127.0,152.0
0.0,32.0,127.0,0.0
0.0,36.0,87.0,0.0
0.0,64.0,127.0,0.0
0.0,42.0,127.0,0.0
0.0,79.0,127.0,8.0
0.0,34.0,127.0,0.0
0.0,58.0,127.0,0.0
0.0,62.0,127.0,0.0
0.0,65.0,127.0,0.0
0.0,58.0,127.0,0.0
0.0,58.0,127.0,0.0
0.0,36.0,127.0,0.0
0.0,42.0,127.0,0.0
0.0,42.0,127.0,12.0
0.0,34.0,127.0,88.0
0.0,36.0,87.0,0.0
0.0,63.0,127.0,0.0
0.0,42.0,127.0,0.0
0.0,36.0,127.0,8.0
0.0,39.0,127.0,0.0
0.0,42.0,127.0,0.0
0.0,77.0,127.0,4.0
0.0,29.0,127.0,0.0
0.0,70.0,127.0,0.0
0.0,36.0,87.0,0.0
0.0,64.0,127.0,0.0
0.0,42.0,127.0,0.0
0.0,34.0,127.0,20.0
0.0,36.0,127.0,0.0
0.0,42.0,127.0,0.0
0.0,42.0,127.0,8.0
0.0,34.0,127.0,88.0
0.0,36.0,87.0,0.0
0.0,76.0,127.0,0.0
0.0,42.0,127.0,0.0
0.0,77.0,127.0,8.0
0.0,36.0,127.0,0.0
0.0,39.0,127.0,0.0
0.0,42.0,127.0,0.0
0.0,75.0,127.0,4.0
0.0,29.0,127.0,0.0
0.0,36.0,87.0,0.0
0.0,64.0,127.0,0.0
0.0,42.0,127.0,0.0
0.0,79.0,127.0,4.0
0.0,39.0,127.0,0.0
0.0,58.0,127.0,0.0
0.0,63.0,127.0,0.0
0.0,67.0,127.0,0.0
0.0,67.0,127.0,0.0
0.0,67.0,127.0,0.0
0.0,36.0,127.0,0.0
0.0,42.0,127.0,0.0
0.0,42.0,127.0,152.0
0.0,39.0,127.0,88.0
0.0,36.0,87.0,0.0
0.0,63.0,127.0,0.0
0.0,42.0,127.0,0.0
0.0,36.0,127.0,8.0
0.0,39.0,127.0,0.0
0.0,42.0,127.0,0.0
0.0,34.0,127.0,152.0
0.0,70.0,127.0,0.0
0.0,36.0,87.0,0.0
0.0,64.0,127.0,0.0
0.0,74.0,127.0,0.0
0.0,42.0,127.0,0.0
0.0,39.0,127.0,4.0
0.0,36.0,127.0,0.0
0.0,42.0,127.0,0.0
0.0,42.0,127.0,4.0
0.0,39.0,127.0,88.0
0.0,36.0,87.0,0.0
0.0,76.0,127.0,0.0
0.0,42.0,127.0,0.0
0.0,36.0,127.0,8.0
0.0,39.0,127.0,0.0
0.0,42.0,127.0,0.0
0.0,34.0,127.0,156.0
0.0,36.0,87.0,0.0
0.0,64.0,127.0,0.0
0.0,42.0,127.0,0.0
0.0,39.0,127.0,24.0
0.0,36.0,127.0,0.0
0.0,42.0,127.0,0.0
0.0,42.0,127.0,20.0
0.0,39.0,127.0,84.0
0.0,36.0,87.0,0.0
0.0,63.0,127.0,0.0
0.0,42.0,127.0,0.0
0.0,36.0,127.0,8.0
0.0,39.0,127.0,0.0
0.0,42.0,127.0,0.0
0.0,34.0,127.0,156.0
0.0,36.0,87.0,0.0
0.0,64.0,127.0,0.0
0.0,42.0,127.0,0.0
0.0,39.0,127.0,152.0
0.0,36.0,127.0,0.0
0.0,42.0,127.0,0.0
0.0,42.0,127.0,28.0
0.0,39.0,127.0,84.0
0.0,36.0,87.0,0.0
0.0,76.0,127.0,0.0
0.0,42.0,127.0,0.0
0.0,75.0,127.0,8.0
0.0,65.0,127.0,0.0
0.0,36.0,127.0,0.0
0.0,39.0,127.0,0.0
0.0,42.0,127.0,0.0
0.0,77.0,127.0,8.0
0.0,34.0,127.0,0.0
0.0,36.0,87.0,0.0
0.0,64.0,127.0,0.0
0.0,42.0,127.0,0.0
0.0,79.0,127.0,4.0
0.0,36.0,127.0,0.0
0.0,60.0,127.0,0.0
0.0,63.0,127.0,0.0
0.0,67.0,127.0,0.0
0.0,60.0,127.0,0.0
0.0,63.0,127.0,0.0
0.0,36.0,127.0,0.0
0.0,42.0,127.0,0.0
0.0,63.0,127.0,40.0
0.0,42.0,127.0,0.0
0.0,36.0,127.0,88.0
0.0,36.0,87.0,0.0
0.0,63.0,127.0,0.0
0.0,42.0,127.0,0.0
0.0,67.0,127.0,4.0
0.0,36.0,127.0,0.0
0.0,39.0,127.0,0.0
0.0,42.0,127.0,0.0
0.0,75.0,127.0,8.0
0.0,31.0,127.0,0.0
0.0,72.0,127.0,0.0
0.0,36.0,87.0,0.0
0.0,64.0,127.0,0.0
0.0,74.0,127.0,0.0
0.0,42.0,127.0,0.0
0.0,75.0,127.0,0.0
0.0,36.0,127.0,0.0
0.0,36.0,127.0,0.0
0.0,42.0,127.0,0.0
0.0,42.0,127.0,48.0
0.0,36.0,127.0,88.0
0.0,36.0,87.0,0.0
0.0,76.0,127.0,0.0
0.0,42.0,127.0,0.0
0.0,36.0,127.0,4.0
0.0,39.0,127.0,0.0
0.0,42.0,127.0,0.0
0.0,31.0,127.0,156.0
0.0,36.0,87.0,0.0
0.0,64.0,127.0,0.0
0.0,42.0,127.0,0.0
0.0,36.0,127.0,4.0
0.0,36.0,127.0,0.0
0.0,42.0,127.0,0.0
0.0,42.0,127.0,8.0
0.0,36.0,127.0,88.0
0.0,36.0,87.0,0.0
0.0,63.0,127.0,0.0
0.0,42.0,127.0,0.0
0.0,36.0,127.0,8.0
0.0,39.0,127.0,0.0
0.0,42.0,127.0,0.0
0.0,31.0,127.0,152.0
0.0,36.0,87.0,0.0
0.0,64.0,127.0,0.0
0.0,42.0,127.0,0.0
0.0,36.0,127.0,156.0
0.0,36.0,127.0,0.0
0.0,42.0,127.0,0.0
0.0,42.0,127.0,80.0
0.0,36.0,127.0,88.0
0.0,36.0,87.0,0.0
0.0,76.0,127.0,0.0
0.0,42.0,127.0,0.0
0.0,75.0,127.0,8.0
0.0,62.0,127.0,0.0
0.0,36.0,127.0,0.0
0.0,39.0,127.0,0.0
0.0,42.0,127.0,0.0
0.0,82.0,127.0,4.0
0.0,31.0,127.0,0.0
0.0,36.0,87.0,0.0
0.0,64.0,127.0,0.0
0.0,42.0,127.0,0.0
0.0,82.0,127.0,8.0
0.0,32.0,127.0,0.0
0.0,56.0,127.0,0.0
0.0,60.0,127.0,0.0
0.0,63.0,127.0,0.0
0.0,56.0,127.0,0.0
0.0,60.0,127.0,0.0
0.0,36.0,127.0,0.0
0.0,42.0,127.0,0.0
0.0,60.0,127.0,44.0
0.0,42.0,127.0,0.0
0.0,32.0,127.0,88.0
0.0,36.0,87.0,0.0
0.0,63.0,127.0,0.0
0.0,42.0,127.0,0.0
0.0,63.0,127.0,0.0
0.0,36.0,127.0,0.0
0.0,39.0,127.0,0.0
0.0,42.0,127.0,0.0
0.0,75.0,127.0,4.0
0.0,27.0,127.0,0.0
0.0,70.0,127.0,0.0
0.0,36.0,87.0,0.0
0.0,64.0,127.0,0.0
0.0,74.0,127.0,0.0
0.0,42.0,127.0,0.0
0.0,75.0,127.0,8.0
0.0,32.0,127.0,0.0
0.0,36.0,127.0,0.0
0.0,42.0,127.0,0.0
0.0,42.0,127.0,12.0
0.0,32.0,127.0,88.0
0.0,36.0,87.0,0.0
0.0,76.0,127.0,0.0
0.0,42.0,127.0,0.0
0.0,36.0,127.0,8.0
0.0,39.0,127.0,0.0
0.0,42.0,127.0,0.0
0.0,77.0,127.0,4.0
0.0,32.0,127.0,0.0
0.0,36.0,87.0,0.0
0.0,64.0,127.0,0.0
0.0,42.0,127.0,0.0
0.0,79.0,127.0,4.0
0.0,34.0,127.0,0.0
0.0,58.0,127.0,0.0
0.0,62.0,127.0,0.0
0.0,65.0,127.0,0.0
0.0,58.0,127.0,0.0
0.0,58.0,127.0,0.0
0.0,36.0,127.0,0.0
0.0,42.0,127.0,0.0
0.0,42.0,127.0,16.0
0.0,34.0,127.0,84.0
0.0,36.0,87.0,0.0
0.0,63.0,127.0,0.0
0.0,42.0,127.0,0.0
0.0,36.0,127.0,8.0
0.0,39.0,127.0,0.0
0.0,42.0,127.0,0.0
0.0,77.0,127.0,8.0
0.0,29.0,127.0,0.0
0.0,70.0,127.0,0.0
0.0,36.0,87.0,0.0
0.0,64.0,127.0,0.0
0.0,42.0,127.0,0.0
0.0,34.0,127.0,16.0
0.0,36.0,127.0,0.0
0.0,42.0,127.0,0.0
0.0,42.0,127.0,8.0
0.0,34.0,127.0,84.0
0.0,36.0,87.0,0.0
0.0,76.0,127.0,0.0
0.0,42.0,127.0,0.0
0.0,77.0,127.0,8.0
0.0,36.0,127.0,0.0
0.0,39.0,127.0,0.0
0.0,42.0,127.0,0.0
0.0,75.0,127.0,8.0
0.0,29.0,127.0,0.0
0.0,36.0,87.0,0.0
0.0,64.0,127.0,0.0
0.0,42.0,127.0,0.0
0.0,0.0,0.0,0.0
0.0,0.0,0.0,0.0
0.0,0.0,0.0,0.0
0.0,0.0,0.0,0.0
0.0,0.0,0.0,0.0
0.0,0.0,0.0,0.0
0.0,0.0,0.0,0.0
0.0,0.0,0.0,0.0
0.0,0.0,0.0,0.0
0.0,0.0,0.0,0.0
0.0,0.0,0.0,0.0
0.0,0.0,0.0,0.0
0.0,0.0,0.0,0.0
0.0,0.0,0.0,0.0
0.0,0.0,0.0,0.0
0.0,0.0,0.0,0.0
0.0,0.0,0.0,0.0
0.0,0.0,0.0,0.0
0.0,0.0,0.0,0.0
0.0,0.0,0.0,0.0
0.0,0.0,0.0,0.0
0.0,0.0,0.0,0.0
0.0,0.0,0.0,0.0
0.0,0.0,0.0,0.0
0.0,0.0,0.0,0.0
0.0,0.0,0.0,0.0
0.0,0.0,0.0,0.0
0.0,0.0,0.0,0.0
0.0,0.0,0.0,0.0
0.0,0.0,0.0,0.0
0.0,0.0,0.0,0.0
0.0,0.0,0.0,0.0
0.0,0.0,0.0,0.0
0.0,0.0,0.0,0.0
0.0,0.0,0.0,0.0
0.0,0.0,0.0,0.0
0.0,0.0,0.0,0.0
0.0,0.0,0.0,0.0
0.0,0.0,0.0,0.0
0.0,0.0,0.0,0.0
0.0,0.0,0.0,0.0
0.0,0.0,0.0,0.0
0.0,0.0,0.0,0.0
0.0,0.0,0.0,0.0
0.0,0.0,0.0,0.0
0.0,0.0,0.0,0.0
0.0,0.0,0.0,0.0
0.0,0.0,0.0,0.0
0.0,0.0,0.0,0.0
0.0,0.0,0.0,0.0
0.0,0.0,0.0,0.0
0.0,0.0,0.0,0.0
0.0,0.0,0.0,0.0
0.0,0.0,0.0,0.0
0.0,0.0,0.0,0.0
0.0,0.0,0.0,0.0
0.0,0.0,0.0,0.0
0.0,0.0,0.0,0.0
0.0,0.0,0.0,0.0
0.0,0.0,0.0,0.0
0.0,0.0,0.0,0.0
0.0,0.0,0.0,0.0
0.0,0.0,0.0,0.0
0.0,0.0,0.0,0.0
0.0,0.0,0.0,0.0
0.0,0.0,0.0,0.0
0.0,0.0,0.0,0.0
0.0,0.0,0.0,0.0
0.0,0.0,0.0,0.0
0.0,0.0,0.0,0.0
0.0,0.0,0.0,0.0
0.0,0.0,0.0,0.0
0.0,0.0,0.0,0.0
0.0,0.0,0.0,0.0
0.0,0.0,0.0,0.0
0.0,0.0,0.0,0.0
