track,note,velocity,time
1,57,116,0
1,69,116,192
1,64,116,192
1,57,116,2
1,68,116,2
1,66,116,2
1,64,116,2
1,57,116,2
1,54,116,2
1,69,116,192
1,64,116,192
1,57,116,2
1,68,116,2
1,66,116,2
1,64,116,2
1,57,116,2
1,56,116,2
1,68,116,192
1,64,116,192
1,61,116,2
1,66,116,2
1,64,116,2
1,61,116,2
1,68,116,2
1,52,116,2
1,68,116,0
1,64,116,192
1,59,116,2
1,66,116,2
1,64,116,2
1,59,116,2
1,66,116,2
1,57,116,98
1,69,116,0
1,64,116,192
1,57,116,2
1,68,116,2
1,66,116,2
1,64,116,2
1,57,116,2
1,54,116,2
1,69,116,192
1,64,116,192
1,57,116,2
1,68,116,2
1,66,116,2
1,64,116,2
1,57,116,2
1,56,116,2
1,68,116,192
1,64,116,192
1,61,116,2
1,66,116,2
1,64,116,2
1,61,116,2
1,68,116,2
1,52,116,2
1,68,116,0
1,64,116,192
1,59,116,2
1,66,116,2
1,64,116,2
1,68,116,2
1,64,116,2
1,69,116,18626
1,64,116,192
1,61,116,192
1,56,116,2
1,69,116,192
1,64,116,192
1,61,116,192
1,69,116,194
1,64,116,192
1,61,116,192
1,52,116,2
1,68,116,192
1,64,116,192
1,61,116,192
1,57,104,2
1,62,104,0
1,50,104,2
1,57,104,0
1,62,104,0
1,50,104,2
1,57,104,0
1,62,104,0
1,57,104,2
1,62,104,0
1,50,104,0
1,69,116,2
1,64,116,0
1,69,116,50
1,64,116,0
1,69,116,50
1,64,116,0
1,69,116,50
1,64,116,0
1,69,98,50
1,62,116,0
1,69,93,50
1,62,116,0
1,69,88,2
1,61,116,0
1,69,116,18626
1,64,116,192
1,61,116,192
1,56,116,2
1,69,116,192
1,64,116,192
1,61,116,192
1,69,116,194
1,64,116,192
1,61,116,192
1,52,116,2
1,68,116,192
1,64,116,192
1,61,116,192
1,57,104,2
1,62,104,0
1,50,104,2
1,57,104,0
1,62,104,0
1,50,104,2
1,57,104,0
1,62,104,0
1,57,104,2
1,62,104,0
1,50,104,0
1,69,116,2
1,64,116,0
1,69,116,50
1,64,116,0
1,69,116,50
1,64,116,0
1,69,116,50
1,64,116,0
1,69,98,50
1,62,116,0
1,69,93,50
1,62,116,0
1,69,88,2
1,61,116,0
1,69,116,194
1,64,116,192
1,61,116,192
1,56,116,2
1,69,116,192
1,64,116,192
1,61,116,192
1,69,116,194
1,64,116,192
1,61,116,192
1,52,116,2
1,68,116,192
1,64,116,192
1,61,116,192
1,57,104,2
1,62,104,0
1,50,104,2
1,57,104,0
1,62,104,0
1,50,104,2
1,57,104,0
1,62,104,0
1,57,104,2
1,62,104,0
1,50,104,0
1,69,116,2
1,64,116,0
1,69,116,50
1,64,116,0
1,69,116,50
1,64,116,0
1,69,116,50
1,64,116,0
1,69,98,50
1,62,116,0
1,69,93,50
1,62,116,0
1,69,88,2
1,61,116,0
1,57,116,36866
1,69,116,192
1,64,116,192
1,57,116,2
1,68,116,2
1,66,116,2
1,64,116,2
1,57,116,2
1,54,116,2
1,69,116,192
1,64,116,192
1,57,116,2
1,68,116,2
1,66,116,2
1,64,116,2
1,57,116,2
1,56,116,2
1,68,116,192
1,64,116,192
1,61,116,2
1,66,116,2
1,64,116,2
1,61,116,2
1,68,116,2
1,52,116,2
1,59,116,0
1,64,116,0
1,68,116,0
1,69,116,7874
1,64,116,192
1,61,116,192
1,56,116,2
1,69,116,192
1,64,116,192
1,61,116,192
1,69,116,194
1,64,116,192
1,61,116,192
1,52,116,2
1,68,116,192
1,64,116,192
1,61,116,192
1,57,104,2
1,62,104,0
1,50,104,2
1,57,104,0
1,62,104,0
1,50,104,2
1,57,104,0
1,62,104,0
1,57,104,2
1,62,104,0
1,50,104,0
1,69,116,2
1,64,116,0
1,69,116,50
1,64,116,0
1,69,116,50
1,64,116,0
1,69,116,50
1,64,116,0
1,69,98,50
1,62,116,0
1,69,93,50
1,62,116,0
1,69,88,2
1,61,116,0
1,69,116,194
1,64,116,192
1,61,116,192
1,56,116,2
1,69,116,192
1,64,116,192
1,61,116,192
1,69,116,194
1,64,116,192
1,61,116,192
1,52,116,2
1,68,116,192
1,64,116,192
1,61,116,192
1,57,104,2
1,62,104,0
1,50,104,2
1,57,104,0
1,62,104,0
1,50,104,2
1,57,104,0
1,62,104,0
1,57,104,2
1,62,104,0
1,50,104,0
1,69,116,2
1,64,116,0
1,69,116,50
1,64,116,0
1,69,116,50
1,64,116,0
1,69,116,50
1,64,116,0
1,69,98,50
1,62,116,0
1,69,93,50
1,62,116,0
1,69,88,2
1,61,116,0
1,69,116,194
1,64,116,192
1,61,116,192
1,56,116,2
1,69,116,192
1,64,116,192
1,61,116,192
1,69,116,194
1,64,116,192
1,61,116,192
1,52,116,2
1,68,116,192
1,64,116,192
1,61,116,192
1,57,104,2
1,62,104,0
1,50,104,2
1,57,104,0
1,62,104,0
1,50,104,2
1,57,104,0
1,62,104,0
1,57,104,2
1,62,104,0
1,50,104,0
1,69,116,2
1,64,116,0
1,69,116,50
1,64,116,0
1,69,116,50
1,64,116,0
1,69,116,50
1,64,116,0
1,69,98,50
1,62,116,0
1,69,93,50
1,62,116,0
1,69,88,2
1,61,116,0
2,57,111,0
2,54,111,4
2,56,111,4
2,52,111,4
2,40,111,4
2,45,111,0
2,45,111,4
2,45,111,4
2,49,111,0
2,52,111,4
2,49,111,4
2,47,111,4
2,49,111,4
2,52,111,4
2,52,111,196
2,33,123,4
2,33,123,4
2,33,123,100
2,32,123,4
2,30,123,4
2,30,123,4
2,30,123,100
2,33,123,4
2,37,123,0
2,37,123,100
2,37,123,4
2,37,123,100
2,28,123,4
2,28,123,100
2,28,123,100
2,28,123,100
2,33,123,4
2,33,123,4
2,33,123,100
2,32,123,4
2,30,123,4
2,30,123,4
2,30,123,100
2,33,123,4
2,37,123,0
2,37,123,100
2,37,123,4
2,37,123,100
2,40,123,4
2,28,123,4
2,49,123,4
2,47,123,4
2,45,123,4
2,44,123,4
2,38,123,4
2,38,123,4
2,38,123,4
2,38,123,4
2,40,123,4
2,47,123,4
2,49,123,4
2,47,123,4
2,45,123,4
2,44,123,4
2,38,123,4
2,38,123,4
2,38,123,4
2,38,123,4
2,40,123,4
2,30,123,4
2,33,123,4
2,35,123,4
2,45,123,196
2,45,123,4
2,44,123,4
2,42,123,4
2,42,123,4
2,40,123,4
2,40,123,4
2,38,123,4
2,38,123,100
2,26,123,4
2,38,123,4
2,33,123,4
2,38,123,4
2,38,123,100
2,35,123,4
2,33,123,388
2,33,123,4
2,33,123,100
2,32,123,4
2,30,123,4
2,30,123,4
2,30,123,100
2,33,123,4
2,37,123,0
2,37,123,100
2,37,123,4
2,37,123,100
2,28,123,4
2,28,123,100
2,28,123,100
2,28,123,100
2,33,123,4
2,33,123,4
2,33,123,100
2,32,123,4
2,30,123,4
2,30,123,4
2,30,123,100
2,33,123,4
2,37,123,0
2,37,123,100
2,37,123,4
2,37,123,100
2,40,123,4
2,47,123,4
2,49,123,4
2,47,123,4
2,45,123,4
2,44,123,4
2,26,123,4
2,38,123,0
2,38,123,4
2,38,123,4
2,38,123,4
2,40,123,4
2,47,123,4
2,49,123,4
2,47,123,4
2,45,123,4
2,44,123,4
2,38,123,4
2,38,123,4
2,38,123,4
2,38,123,4
2,40,123,4
2,30,123,4
2,33,123,4
2,35,123,4
2,45,123,292
2,45,123,4
2,44,123,4
2,44,123,4
2,42,123,4
2,42,123,4
2,40,123,4
2,40,123,4
2,38,123,4
2,38,123,4
2,33,123,4
2,33,123,4
2,38,123,4
2,38,123,100
2,35,123,4
2,42,123,4
2,44,123,4
2,45,123,4
2,45,123,4
2,44,123,4
2,44,123,4
2,42,123,4
2,42,123,4
2,40,123,4
2,40,123,4
2,38,123,4
2,38,123,4
2,38,123,4
2,38,123,4
2,38,123,4
2,38,123,4
2,37,123,4
2,40,123,4
2,44,123,4
2,45,123,4
2,44,123,4
2,40,123,4
2,33,123,4
2,33,123,4
2,33,123,4
2,33,123,4
2,33,123,4
2,35,123,4
2,38,123,4
2,38,123,4
2,38,123,4
2,38,123,4
2,38,123,4
2,38,123,4
2,35,123,4
2,35,123,4
2,35,123,4
2,35,123,4
2,35,123,4
2,37,123,4
2,40,123,4
2,40,123,4
2,44,123,4
2,45,123,4
2,44,123,4
2,40,123,4
2,33,123,4
2,33,123,4
2,33,123,4
2,33,123,100
2,37,90,4
2,38,90,4
2,39,90,4
2,40,123,4
2,42,123,4
2,43,127,4
2,43,127,4
2,42,127,4
2,38,127,4
2,40,127,4
2,42,127,4
2,33,123,4
2,33,123,4
2,33,123,100
2,33,123,4
2,32,123,4
2,30,123,4
2,30,123,4
2,30,123,100
2,33,123,4
2,37,123,0
2,37,123,100
2,37,123,4
2,37,123,100
2,40,123,4
2,40,123,100
2,40,123,4
2,37,123,4
2,40,123,4
2,33,123,4
2,33,123,4
2,33,123,100
2,32,123,4
2,30,123,4
2,30,123,4
2,30,123,100
2,33,123,4
2,37,123,0
2,37,123,100
2,37,123,4
2,37,123,100
2,40,123,4
2,40,123,100
2,40,123,100
2,37,123,4
2,35,123,4
2,38,123,4
2,38,123,4
2,38,123,4
2,38,123,4
2,40,123,4
2,40,123,4
2,40,123,4
2,40,123,4
2,38,123,4
2,38,123,4
2,38,123,4
2,38,123,4
2,40,123,4
2,40,123,4
2,42,123,4
2,42,123,4
2,44,123,4
2,44,123,4
2,44,123,4
2,44,123,4
2,33,123,4
2,37,123,4
2,40,123,4
2,45,111,4
2,42,111,4
2,47,111,4
2,45,111,4
2,47,111,4
2,49,111,4
2,40,111,4
2,38,123,1540
2,38,123,4
2,38,123,100
2,38,123,4
2,40,123,100
2,40,123,4
2,40,123,100
2,42,123,4
2,42,123,4
2,42,123,4
2,42,123,4
2,44,123,4
2,44,123,4
2,44,123,100
2,44,123,4
2,45,123,4
2,45,123,4
2,44,123,4
2,44,123,4
2,42,123,4
2,42,123,4
2,40,123,4
2,40,123,4
2,38,123,4
2,38,123,4
2,33,123,4
2,33,123,4
2,38,123,4
2,38,123,100
2,35,123,4
2,42,123,4
2,44,123,4
2,45,123,4
2,45,123,4
2,44,123,4
2,44,123,4
2,42,123,4
2,42,123,4
2,40,123,4
2,40,123,4
2,38,123,4
2,38,123,4
2,33,123,4
2,33,123,4
2,38,123,4
2,38,123,100
2,35,123,4
2,42,123,4
2,44,123,4
2,45,123,4
2,45,123,4
2,44,123,4
2,44,123,4
2,42,123,4
2,42,123,4
2,40,123,4
2,40,123,4
2,38,123,4
2,40,123,4
2,45,123,0
2,45,123,4
2,50,123,0
2,50,123,4
2,50,123,4
2,47,123,4
2,45,123,4
2,45,123,4
2,42,123,4
2,40,123,4
2,33,123,0
2,33,123,4
2,33,123,100
2,32,123,4
2,30,123,4
2,30,123,4
2,30,123,100
2,33,123,4
2,37,123,0
2,37,123,100
2,37,123,4
2,40,123,4
2,37,123,4
2,28,123,4
2,28,123,100
2,37,123,0
2,35,123,4
2,33,123,4
2,30,123,4
2,33,123,4
2,33,123,4
2,33,123,100
2,32,123,4
2,30,123,4
2,30,123,4
2,30,123,100
2,33,123,4
2,37,123,0
2,37,123,100
2,37,123,4
2,40,123,4
2,37,123,4
2,28,123,4
2,40,123,100
2,49,123,0
2,47,123,4
2,45,123,4
2,42,123,4
2,33,123,4
2,33,123,4
2,33,123,100
2,32,123,4
2,30,123,4
2,30,123,4
2,30,123,100
2,33,123,4
2,37,123,0
2,37,123,100
2,37,123,4
2,40,123,4
2,37,123,4
2,28,123,4
2,40,123,100
2,49,123,0
2,47,123,4
2,45,123,4
2,42,123,4
2,33,123,4
2,33,123,4
2,33,123,100
2,32,123,4
2,30,123,4
2,30,123,4
2,30,123,100
2,33,123,4
2,37,123,0
2,37,123,100
2,37,123,4
2,37,123,4
2,40,123,4
2,52,123,4
2,47,123,4
2,40,123,4
2,40,123,4
2,40,123,4
2,40,123,4
2,45,123,4
2,45,123,4
2,44,123,4
2,44,123,4
2,42,123,4
2,42,123,4
2,40,123,4
2,35,123,4
2,37,123,4
2,37,123,4
2,37,123,4
2,37,123,4
2,40,123,4
2,37,123,4
2,40,123,4
2,37,123,4
2,35,123,4
2,45,123,4
2,45,123,4
2,44,123,4
2,44,123,4
2,42,123,4
2,42,123,4
2,40,123,4
2,35,123,4
2,37,123,4
2,37,123,4
2,37,123,4
2,37,123,4
2,40,123,4
2,37,123,4
2,40,123,4
2,37,123,4
2,35,123,4
2,33,123,4
2,45,123,4
2,45,123,4
2,44,123,4
2,44,123,4
2,42,123,4
2,42,123,4
2,40,123,4
2,35,123,4
2,37,123,4
2,37,123,4
2,37,123,4
2,37,123,4
2,40,123,4
2,37,123,4
2,40,123,4
2,37,123,4
2,35,123,4
2,28,123,4
2,33,123,4
3,57,116,0
3,69,116,192
3,64,116,192
3,57,116,192
3,68,116,4
3,66,116,4
3,64,116,0
3,57,116,4
3,54,116,4
3,69,116,192
3,64,116,192
3,57,116,192
3,68,116,4
3,66,116,4
3,64,116,4
3,57,116,4
3,56,116,4
3,68,116,192
3,64,116,192
3,61,116,192
3,68,116,4
3,64,116,4
3,61,116,4
3,68,116,4
3,52,116,4
3,68,116,192
3,64,116,192
3,59,116,4
3,66,116,4
3,64,116,4
3,59,116,4
3,66,116,192
3,57,116,4
3,69,116,192
3,64,116,192
3,57,116,192
3,68,116,4
3,66,116,4
3,64,116,0
3,57,116,4
3,54,116,4
3,69,116,192
3,64,116,192
3,57,116,192
3,68,116,4
3,66,116,4
3,64,116,4
3,57,116,4
3,56,116,4
3,68,116,192
3,64,116,192
3,61,116,192
3,68,116,4
3,64,116,4
3,61,116,4
3,68,116,4
3,52,116,4
3,68,116,192
3,64,116,192
3,59,116,4
3,52,116,4
3,57,116,0
3,52,116,4
3,59,116,0
3,45,116,0
3,52,116,32
3,57,116,0
3,64,116,16
3,69,116,16
3,42,116,78
3,49,116,32
3,54,116,32
3,57,116,16
3,64,116,16
3,69,116,544
3,49,116,110
3,56,116,32
3,59,116,32
3,59,116,36
3,64,116,192
3,68,116,0
3,52,116,80
3,59,116,32
3,64,116,32
3,68,116,32
3,59,116,90
3,68,116,68
3,64,116,100
3,59,116,90
3,45,116,46
3,52,116,16
3,61,116,26
3,57,116,32
3,69,116,520
3,64,116,394
3,61,116,114
3,69,116,140
3,54,116,20
3,49,116,32
3,57,116,32
3,69,116,82
3,64,116,130
3,61,116,196
3,56,116,24
3,59,116,24
3,64,116,32
3,68,116,32
3,59,116,86
3,68,116,96
3,64,116,102
3,59,116,134
3,52,116,30
3,56,116,8
3,59,116,32
3,64,116,16
3,68,116,16
3,64,116,12
3,68,116,0
3,61,116,0
3,59,116,4
3,57,116,4
3,56,116,4
3,50,116,4
3,57,116,384
3,62,116,192
3,62,116,4
3,52,116,384
3,59,116,4
3,68,116,0
3,64,116,0
3,61,116,4
3,59,116,4
3,57,116,4
3,56,116,4
3,50,116,4
3,57,116,192
3,62,116,192
3,69,116,192
3,62,116,4
3,69,116,192
3,59,107,4
3,68,107,0
3,64,107,0
3,52,107,0
3,59,107,4
3,68,107,0
3,64,107,0
3,59,107,4
3,68,107,0
3,64,107,0
3,52,107,0
3,59,107,4
3,68,107,0
3,64,107,0
3,52,107,4
3,57,107,4
3,64,107,0
3,69,107,0
3,69,107,4
3,56,116,4
3,69,116,192
3,64,116,192
3,61,116,192
3,54,116,4
3,69,116,192
3,64,116,192
3,61,116,192
3,52,116,4
3,68,116,192
3,64,116,192
3,59,116,192
3,50,107,4
3,57,107,0
3,62,107,192
3,69,107,0
3,50,107,100
3,57,107,0
3,62,107,100
3,69,107,0
3,50,107,4
3,57,107,0
3,69,107,0
3,62,107,0
3,57,116,0
3,64,116,0
3,57,116,52
3,64,116,0
3,57,116,52
3,64,116,0
3,57,116,52
3,64,116,0
3,57,116,52
3,62,116,0
3,57,116,4
3,62,116,0
3,57,116,4
3,61,116,0
3,45,116,0
3,52,116,16
