track,note,velocity,time
5,81,48,21304
5,81,67,4560
5,81,57,1596
5,54,70,148
5,81,62,0
5,81,64,432
5,81,64,470
5,54,69,384
5,81,71,352
5,81,67,480
5,54,69,1596
5,81,57,0
5,54,58,146
5,81,62,0
5,81,64,432
5,54,74,384
5,81,64,404
5,54,84,384
5,81,71,352
5,81,67,480
5,81,57,1596
5,54,70,148
5,81,62,0
5,81,64,432
5,81,64,470
5,54,69,384
5,81,71,352
5,81,67,480
5,54,69,1596
5,81,57,0
5,54,58,146
5,81,62,0
5,81,64,432
5,54,74,384
5,81,64,404
5,54,84,384
5,81,71,352
5,81,67,480
5,81,57,1596
5,54,70,148
5,81,62,0
5,81,64,432
5,81,64,470
5,54,69,384
5,81,71,352
5,81,67,480
5,54,69,1596
5,81,57,0
5,54,58,146
5,81,62,0
5,81,64,432
5,54,74,384
5,81,64,404
5,54,84,384
5,81,71,352
5,81,67,480
5,81,57,1596
5,54,70,148
5,81,62,0
5,81,64,432
5,81,64,470
5,40,104,192
5,40,114,138
5,54,69,0
5,40,114,114
5,81,71,86
5,51,68,26
5,59,64,18
5,51,74,8
5,59,79,40
5,43,91,34
5,51,72,2
5,59,85,8
5,51,74,28
5,45,78,0
5,59,103,22
5,36,107,36
5,49,81,0
5,57,81,0
5,81,67,336
5,37,120,94
5,36,75,532
5,36,91,138
5,81,57,150
5,40,113,148
5,54,70,0
5,81,62,0
5,36,102,48
5,81,64,320
5,37,117,384
5,36,71,534
5,36,102,86
5,81,64,302
5,40,117,384
5,54,69,0
5,81,71,338
5,36,97,96
5,81,67,324
5,37,120,252
5,36,78,532
5,36,107,140
5,54,69,460
5,81,57,0
5,40,117,146
5,54,58,0
5,81,62,0
5,36,102,48
5,81,64,304
5,37,120,384
5,54,74,0
5,36,84,530
5,36,113,20
5,40,67,180
5,81,64,0
5,40,117,130
5,40,117,140
5,54,84,0
5,43,107,338
5,81,71,0
5,36,113,96
5,49,97,0
5,81,67,342
5,37,120,252
5,36,81,534
5,36,113,134
5,81,57,522
5,40,113,148
5,54,70,0
5,81,62,0
5,36,117,48
5,81,64,328
5,37,120,384
5,36,88,532
5,36,107,86
5,81,64,384
5,40,117,142
5,54,69,0
5,81,71,340
5,36,107,96
5,81,67,326
5,37,120,252
5,36,81,532
5,36,117,142
5,54,69,576
5,81,57,0
5,40,117,134
5,54,58,0
5,81,62,0
5,36,78,526
5,36,113,48
5,81,64,384
5,37,120,62
5,54,74,0
5,36,71,532
5,36,102,20
5,40,117,138
5,81,64,144
5,40,117,192
5,54,84,144
5,48,113,160
5,45,102,148
5,81,71,0
5,47,117,58
5,36,107,96
5,49,81,0
5,57,81,0
5,81,67,336
5,37,120,94
5,36,75,532
5,36,91,138
5,81,57,150
5,40,113,148
5,54,70,0
5,81,62,0
5,36,102,48
5,81,64,320
5,37,117,384
5,36,71,534
5,36,102,86
5,81,64,302
5,40,117,384
5,54,69,0
5,81,71,338
5,36,107,96
5,81,67,384
5,37,120,94
5,36,75,532
5,36,91,138
5,81,57,150
5,40,113,148
5,54,70,0
5,81,62,0
5,36,102,48
5,81,64,320
5,37,117,384
5,36,71,534
5,36,102,86
5,81,64,302
5,40,117,384
5,54,69,0
5,81,71,338
5,36,107,96
5,81,67,384
5,37,120,94
5,36,75,532
5,36,91,138
5,81,57,150
5,40,113,148
5,54,70,0
5,81,62,0
5,36,102,48
5,81,64,320
5,37,117,384
5,36,71,534
5,36,102,86
5,81,64,302
5,40,117,384
5,54,69,0
5,81,71,338
5,36,107,96
5,81,67,384
5,37,120,94
5,36,75,532
5,36,91,138
5,81,57,150
5,40,113,148
5,54,70,0
5,81,62,0
5,36,102,48
5,81,64,320
5,37,117,384
5,36,71,534
5,36,102,86
5,40,108,110
5,40,114,140
5,81,64,0
5,40,98,142
5,40,89,58
5,54,69,32
5,48,118,160
5,47,108,154
5,81,71,0
5,45,89,112
5,45,79,8
5,36,91,46
5,49,91,0
5,57,85,0
5,51,55,384
5,81,67,0
5,59,67,60
5,51,58,312
5,36,71,324
5,51,46,0
5,36,88,118
5,51,53,0
5,59,58,318
5,51,52,50
5,81,57,0
5,54,70,132
5,81,62,0
5,51,54,6
5,36,95,48
5,51,52,0
5,51,51,326
5,81,64,0
5,59,63,116
5,51,52,278
5,36,78,122
5,51,48,0
5,36,95,86
5,51,51,0
5,59,60,316
5,81,64,0
5,51,54,104
5,36,95,90
5,54,69,0
5,51,52,160
5,81,71,146
5,36,91,96
5,51,53,0
5,59,54,312
5,81,67,0
5,51,53,60
5,51,50,332
5,36,80,98
5,51,42,0
5,36,88,122
5,51,52,0
5,59,53,316
5,51,46,102
5,54,69,0
5,81,57,0
5,54,58,132
5,81,62,0
5,51,52,192
5,51,51,318
5,36,95,48
5,51,57,0
5,59,56,310
5,81,64,0
5,51,54,108
5,54,74,130
5,51,56,192
5,36,91,72
5,51,49,0
5,36,120,212
5,49,104,0
5,52,98,0
5,57,95,0
5,48,110,330
5,45,110,150
5,49,109,0
5,52,104,0
5,55,104,0
5,47,116,128
5,43,105,154
5,45,94,144
5,45,87,94
5,36,120,48
5,45,109,0
5,49,104,0
5,52,95,0
5,40,120,714
5,36,87,576
5,36,105,136
5,40,123,40
5,36,110,768
5,40,116,158
5,36,116,764
5,40,116,22
5,36,94,576
5,36,116,140
5,40,120,230
5,36,116,768
5,40,116,4
5,36,105,576
5,36,116,134
5,40,120,160
5,36,76,554
5,36,120,134
5,36,76,34
5,36,84,106
5,36,84,32
5,40,120,106
5,43,105,204
5,45,105,144
5,45,91,94
5,36,123,54
5,49,120,0
5,40,116,726
5,36,120,768
5,40,120,150
5,36,110,576
5,36,120,134
5,40,120,142
5,36,91,556
5,36,120,142
5,36,116,300
5,40,123,110
5,40,120,124
5,40,100,126
5,40,74,94
5,36,120,52
5,52,116,0
5,57,105,0
5,40,120,718
5,36,94,576
5,36,120,140
5,40,120,122
5,36,123,704
5,40,120,150
5,36,91,524
5,36,123,152
5,40,56,92
5,40,91,168
5,40,120,140
5,43,100,146
5,47,100,62
5,45,100,42
5,47,94,58
5,45,110,44
5,48,100,50
5,43,110,42
5,48,105,56
5,35,119,52
5,49,104,0
5,55,104,0
5,37,119,720
5,35,56,530
5,35,68,136
5,37,115,668
5,35,83,722
5,37,112,690
5,35,58,530
5,35,97,132
5,37,115,564
5,35,97,716
5,37,115,700
5,35,68,528
5,35,97,132
5,37,115,680
5,35,97,718
5,37,112,696
5,35,61,526
5,35,102,136
5,37,115,608
5,35,86,3792
5,49,68,0
5,55,62,0
6,49,80,912
6,52,78,0
6,56,81,192
6,63,86,192
6,64,91,192
6,63,77,6
6,47,80,98
6,54,84,0
6,59,84,186
6,63,83,192
6,64,86,192
6,63,83,16
6,45,80,80
6,52,84,0
6,57,84,186
6,63,81,192
6,64,90,192
6,63,78,338
6,47,87,30
6,54,84,0
6,59,93,184
6,63,88,192
6,64,91,192
6,63,87,376
6,49,80,136
6,52,78,0
6,56,81,192
6,63,86,192
6,64,91,192
6,63,77,6
6,47,80,98
6,54,84,0
6,59,84,186
6,63,83,192
6,64,86,192
6,63,83,16
6,45,80,80
6,52,84,0
6,57,84,186
6,63,81,192
6,64,90,192
6,63,78,338
6,47,87,30
6,54,84,0
6,59,93,184
6,63,88,192
6,64,91,192
6,63,87,376
6,40,88,136
6,56,93,0
6,47,88,192
6,59,87,0
6,52,79,192
6,64,98,0
6,66,100,192
6,68,100,80
6,47,84,32
6,54,94,0
6,59,83,192
6,66,84,192
6,64,96,192
6,63,93,82
6,45,90,52
6,52,94,0
6,57,87,192
6,61,91,192
6,63,94,192
6,64,88,16
6,47,90,82
6,56,102,0
6,59,94,192
6,64,94,192
6,68,102,192
6,47,90,2
6,66,100,0
6,63,93,192
6,59,93,192
6,54,84,192
6,40,88,66
6,56,94,0
6,59,94,182
6,64,86,192
6,66,98,192
6,68,93,100
6,47,91,40
6,54,94,0
6,59,94,188
6,64,94,384
6,63,93,38
6,66,102,192
6,45,93,44
6,57,98,0
6,61,76,0
6,59,90,172
6,61,98,192
6,64,96,174
6,61,86,336
6,52,90,310
6,57,90,0
6,64,102,0
6,66,102,192
6,68,102,14
6,45,100,138
6,69,102,0
6,71,98,190
6,73,111,192
6,75,102,38
6,40,88,152
6,47,102,0
6,68,108,0
6,76,111,0
6,56,91,12
6,64,87,0
6,71,93,0
6,64,94,14
6,68,86,0
6,47,100,34
6,54,87,192
6,63,93,0
6,57,82,192
6,71,100,0
6,64,93,192
6,66,91,66
6,45,98,198
6,52,93,6
6,59,108,0
6,57,84,192
6,61,100,0
6,64,98,156
6,71,93,384
6,47,108,2
6,56,102,142
6,59,105,192
6,64,96,192
6,68,93,0
6,47,98,2
6,54,98,180
6,59,108,0
6,63,102,192
6,66,100,192
6,40,105,32
6,59,105,0
6,56,100,164
6,64,102,0
6,68,111,192
6,66,94,78
6,64,94,54
6,47,102,4
6,54,102,192
6,57,100,192
6,64,102,192
6,68,100,0
6,64,105,4
6,71,93,0
6,45,100,96
6,59,105,0
6,52,91,160
6,61,100,0
6,57,84,192
6,64,100,0
6,71,102,192
6,59,108,184
6,61,102,100
6,69,111,158
6,64,100,36
6,61,100,182
6,59,102,100
6,57,91,2
6,61,100,0
6,64,102,188
6,45,93,104
6,69,102,0
6,49,94,84
6,52,93,0
6,56,108,192
6,63,100,192
6,64,102,192
6,63,91,16
6,47,93,108
6,54,98,0
6,59,96,180
6,63,100,192
6,64,94,192
6,63,98,378
6,45,96,44
6,52,94,0
6,57,100,186
6,63,102,192
6,64,102,192
6,63,100,32
6,61,102,46
6,59,98,180
6,47,98,0
6,54,102,0
6,59,108,190
6,63,102,192
6,64,102,192
6,63,98,22
6,49,94,44
6,52,98,0
6,56,108,192
6,63,98,192
6,64,102,192
6,63,98,350
6,61,100,158
6,47,98,140
6,54,111,0
6,59,105,186
6,63,102,192
6,64,108,192
6,63,98,20
6,45,102,44
6,52,88,0
6,57,98,144
6,63,108,192
6,64,108,192
6,63,100,12
6,45,96,86
6,52,100,32
6,57,105,192
6,63,115,192
6,61,111,192
6,57,80,20
6,52,88,192
6,57,93,124
6,49,111,30
6,52,100,0
6,56,111,164
6,61,108,192
6,63,108,192
6,64,98,358
6,47,102,20
6,54,111,0
6,59,105,192
6,61,108,192
6,64,102,2
6,63,98,52
6,45,108,30
6,52,108,192
6,57,108,192
6,59,115,192
6,61,108,384
6,47,102,32
6,54,111,0
6,59,108,192
6,63,111,192
6,64,108,192
6,63,100,38
6,49,108,20
6,52,115,0
6,56,98,192
6,63,108,192
6,64,105,192
6,63,98,350
6,44,108,182
6,56,102,0
6,59,105,158
6,63,102,192
6,64,108,192
6,63,87,66
6,66,108,0
6,45,94,24
6,52,94,192
6,57,102,192
6,63,108,0
6,61,100,192
6,64,98,0
6,57,82,20
6,63,100,0
6,47,105,64
6,56,108,0
6,59,111,0
6,52,100,192
6,56,108,174
6,64,115,168
6,47,105,114
6,63,111,0
6,59,111,190
6,54,100,192
6,66,102,166
6,49,80,0
6,52,78,0
6,56,81,192
6,63,86,192
6,64,91,192
6,63,77,6
6,47,80,98
6,54,84,0
6,59,84,186
6,63,83,192
6,64,86,192
6,63,83,16
6,45,80,80
6,52,84,0
6,57,84,186
6,63,81,192
6,64,90,192
6,63,78,338
6,47,87,30
6,54,84,0
6,59,93,184
6,63,88,192
6,64,91,192
6,63,87,376
6,40,88,136
6,56,93,0
6,47,88,192
6,59,87,0
6,52,79,192
6,64,98,0
6,66,100,192
6,68,100,80
6,47,84,32
6,54,94,0
6,59,83,192
6,66,84,192
6,64,96,192
6,63,93,82
6,45,90,52
6,52,94,0
6,57,87,192
6,61,91,192
6,63,94,192
6,64,88,16
6,47,90,82
6,56,102,0
6,59,94,192
6,64,94,192
6,68,102,192
6,47,90,2
6,66,100,0
6,63,93,192
6,59,93,192
6,54,84,192
6,40,88,66
6,56,94,0
6,59,94,182
6,64,86,192
6,66,98,192
6,68,93,100
6,47,91,40
6,54,94,0
6,59,94,188
6,64,94,384
6,63,93,38
6,66,102,192
6,45,93,44
6,57,98,0
6,61,76,0
6,59,90,172
6,61,98,192
6,64,96,174
6,61,86,336
6,52,90,310
6,57,90,0
6,64,102,0
6,66,102,192
6,68,102,14
6,45,100,138
6,69,102,0
6,71,98,190
6,73,111,192
6,75,102,38
6,56,88,152
6,59,96,0
6,64,105,0
6,68,111,0
6,76,115,0
6,56,102,48
6,68,102,0
6,64,100,192
6,59,102,384
6,47,98,66
6,54,108,192
6,59,105,192
6,64,108,192
6,66,111,40
6,45,108,8
6,52,96,158
6,59,111,192
6,63,111,192
6,64,111,82
6,47,111,12
6,52,105,178
6,59,111,192
6,68,111,192
6,47,111,2
6,54,108,156
6,59,108,192
6,66,111,24
6,49,100,38
6,56,111,184
6,59,105,192
6,66,111,192
6,68,115,66
6,44,111,16
6,51,98,192
6,59,111,192
6,71,108,192
6,66,115,192
6,59,105,106
6,66,102,14
6,71,105,192
6,45,108,12
6,52,102,164
6,59,115,0
6,71,96,192
6,66,102,192
6,64,111,192
6,59,111,150
6,71,111,136
6,66,102,192
6,52,98,94
6,64,105,6
6,59,111,192
6,71,115,14
6,66,98,192
6,64,102,192
6,59,100,188
6,49,94,138
6,52,93,0
6,56,108,192
6,63,100,192
6,64,102,192
6,63,91,16
6,47,93,108
6,54,98,0
6,59,96,180
6,63,100,192
6,64,94,192
6,63,98,378
6,45,96,44
6,52,94,0
6,57,100,186
6,63,102,192
6,64,102,192
6,63,100,32
6,61,102,46
6,59,98,180
6,47,98,0
6,54,102,0
6,59,108,190
6,63,102,192
6,64,102,192
6,63,98,22
6,49,94,44
6,52,98,0
6,56,108,192
6,63,98,192
6,64,102,192
6,63,98,350
6,61,100,158
6,47,98,140
6,54,111,0
6,59,105,186
6,63,102,192
6,64,108,192
6,63,98,20
6,45,102,44
6,52,88,0
6,57,98,144
6,63,108,192
6,64,108,192
6,63,100,12
6,45,96,86
6,52,100,32
6,57,105,192
6,63,115,192
6,61,111,192
6,57,80,20
6,52,88,192
6,57,93,124
6,49,111,30
6,52,100,0
6,56,111,164
6,61,108,192
6,63,108,192
6,64,98,358
6,47,102,20
6,54,111,0
6,59,105,192
6,61,108,192
6,64,102,2
6,63,98,52
6,45,108,30
6,52,108,192
6,57,108,192
6,59,115,192
6,61,108,384
6,47,102,32
6,54,111,0
6,59,108,192
6,63,111,192
6,64,108,192
6,63,100,38
6,49,108,20
6,52,115,0
6,56,98,192
6,63,108,192
6,64,105,192
6,63,98,350
6,44,108,182
6,56,102,0
6,59,105,158
6,63,102,192
6,64,108,192
6,63,87,66
6,66,108,0
6,45,94,24
6,52,94,192
6,57,102,192
6,63,108,0
6,61,100,192
6,64,98,0
6,57,82,20
6,63,100,0
6,47,105,64
6,56,108,0
6,59,111,0
6,52,100,192
6,56,108,174
6,64,115,168
6,47,105,114
6,63,111,0
6,59,111,190
6,54,100,192
6,66,102,166
6,49,80,0
6,52,78,0
6,56,81,192
6,63,86,192
6,64,91,192
6,63,77,6
6,47,80,98
6,54,84,0
6,59,84,186
6,63,83,192
6,64,86,192
6,63,83,16
6,45,80,80
6,52,84,0
6,57,84,186
6,63,81,192
6,64,90,192
6,63,78,338
6,47,87,30
6,54,84,0
6,59,93,184
6,63,88,192
6,64,91,192
6,63,87,376
6,49,80,136
6,52,78,0
6,56,81,192
6,63,86,192
6,64,91,192
6,63,77,6
6,47,80,98
6,54,84,0
6,59,84,186
6,63,83,192
6,64,86,192
6,63,83,16
6,45,80,80
6,52,84,0
6,57,84,186
6,63,81,192
6,64,90,192
6,63,78,338
6,51,100,184
6,56,115,0
6,61,108,192
6,66,102,192
6,51,102,26
6,56,98,0
6,60,105,192
6,66,100,184
6,68,115,92
6,41,93,18
6,48,94,0
6,53,94,0
6,56,108,0
6,60,100,0
6,65,93,0
6,56,111,18
6,60,96,72
6,65,100,192
6,68,115,26
6,65,98,142
6,51,102,94
6,55,90,0
