track,note,velocity,time
3,72,56,184
3,75,65,31
3,72,0,2
3,75,0,49
3,75,80,12
3,73,69,108
3,75,0,5
3,72,78,24
3,73,0,3
3,75,63,39
3,72,0,1
3,75,0,70
3,75,87,8
3,75,0,588
3,75,100,21
3,75,0,23
3,75,84,11
3,75,0,49
3,75,90,12
3,80,85,91
3,75,0,3
3,79,103,51
3,80,0,6
3,79,0,35
3,77,92,6
3,77,0,673
3,77,92,3
3,77,0,23
3,77,85,8
3,77,0,49
3,77,84,11
3,79,64,88
3,77,0,7
3,80,103,37
3,79,0,4
3,75,80,51
3,80,0,5
3,72,49,64
3,75,0,1
3,75,84,30
3,72,0,5
3,75,0,560
3,75,94,16
3,75,0,22
3,75,82,13
3,75,0,47
3,75,72,8
3,73,78,83
3,75,0,4
3,72,77,47
3,73,0,4
3,70,72,60
3,72,0,3
3,70,0,657
3,70,65,10
3,75,87,34
3,70,0,4
3,75,0,50
3,75,78,11
3,73,94,96
3,75,0,5
3,72,100,34
3,73,0,7
3,77,68,67
3,72,0,7
3,75,97,46
3,77,0,4
3,75,0,588
3,75,84,11
3,75,0,27
3,75,85,10
3,75,0,48
3,75,90,12
3,80,90,85
3,75,0,6
3,79,92,57
3,80,0,5
3,77,80,67
3,79,0,4
3,77,0,625
3,77,78,13
3,77,0,24
3,77,100,13
3,77,0,62
3,77,106,13
3,79,92,72
3,77,0,5
3,80,77,31
3,79,0,3
3,80,0,31
3,80,94,13
3,75,80,88
3,80,0,3
3,77,106,39
3,75,0,6
3,79,92,254
3,77,0,3
3,80,100,41
3,79,0,6
3,80,0,33
3,80,97,8
3,75,106,80
3,80,0,4
3,80,110,221
3,75,0,9
3,82,122,85
3,80,0,2
3,82,0,63
3,82,127,13
3,82,0,670
3,75,106,1
3,80,127,57
3,75,0,4
3,82,127,60
3,80,0,5
3,82,0,108
3,85,127,0
3,84,127,124
3,85,0,7
3,84,0,586
3,80,127,2
3,80,0,45
3,80,127,13
3,82,127,89
3,80,0,6
3,84,127,61
3,82,0,6
3,80,127,51
3,84,0,6
3,79,127,63
3,80,0,7
3,79,0,27
3,77,92,0
3,77,0,579
3,80,127,7
3,80,0,47
3,80,127,14
3,82,127,61
3,80,0,6
3,84,127,53
3,82,0,8
3,84,0,52
3,85,127,0
3,77,90,124
3,85,0,1
3,77,0,39
3,77,110,20
3,77,0,464
3,77,113,42
3,77,0,16
3,77,106,11
3,80,106,64
3,77,0,6
3,82,127,52
3,80,0,6
3,84,127,51
3,82,0,6
3,84,0,42
3,84,122,10
3,85,100,93
3,84,0,4
3,84,97,10
3,85,0,8
3,82,118,7
3,84,0,6
3,82,0,553
3,75,94,106
3,75,0,53
3,75,100,18
3,73,122,82
3,75,0,6
3,72,97,36
3,73,0,2
3,77,97,50
3,72,0,2
3,77,0,38
3,75,97,8
3,75,0,649
3,75,113,15
3,75,0,55
3,75,103,14
3,80,127,82
3,75,0,6
3,79,127,51
3,80,0,6
3,77,113,31
3,79,0,3
3,72,113,54
3,77,0,3
3,70,113,19
3,72,0,8
3,68,113,16
3,70,0,6
3,68,0,24
3,70,113,0
3,70,0,30
3,72,113,2
3,72,0,330
3,77,113,222
3,77,0,57
3,77,127,14
3,79,127,74
3,77,0,7
3,80,110,41
3,79,0,8
3,75,113,39
3,80,0,6
3,75,0,51
3,72,100,3
3,75,127,30
3,72,0,8
3,72,127,45
3,75,0,7
3,72,0,34
3,75,127,16
3,75,0,376
3,72,127,82
3,73,103,24
3,72,0,6
3,75,127,25
3,73,0,4
3,75,0,91
3,75,113,10
3,75,0,54
3,75,100,9
3,70,97,58
3,75,0,3
3,70,0,30
3,70,103,10
3,72,127,640
3,73,103,26
3,72,0,6
3,75,110,27
3,73,0,5
3,70,0,7
3,75,0,71
3,75,110,12
3,75,0,54
3,72,118,11
3,77,106,54
3,72,0,4
3,75,127,78
3,77,0,13
3,75,0,551
3,75,118,40
3,80,127,57
3,75,0,5
3,80,0,69
3,80,127,15
3,82,127,65
3,80,0,6
3,84,127,36
3,82,0,5
3,84,0,20
3,84,127,12
3,82,94,151
3,84,0,10
3,80,127,2
3,82,0,4
3,82,106,13
3,80,0,3
3,80,127,25
3,82,0,6
3,77,110,24
3,80,0,3
3,77,0,416
3,77,78,16
3,77,0,15
3,77,80,12
3,80,118,32
3,77,0,5
3,80,0,62
3,80,127,13
3,82,118,76
3,80,0,8
3,84,118,29
3,82,0,13
3,80,127,36
3,84,0,1
3,75,110,58
3,80,0,3
3,77,127,26
3,75,0,4
3,79,127,291
3,77,0,6
3,80,127,38
3,79,0,6
3,80,0,32
3,80,113,10
3,80,0,74
3,75,127,2
3,80,127,225
3,75,0,8
3,82,127,83
3,80,0,3
3,82,0,65
3,82,127,17
3,82,0,642
3,75,127,20
3,80,127,63
3,75,0,7
3,82,127,54
3,80,0,3
3,85,127,112
3,82,0,1
3,84,127,111
3,85,0,45
3,84,0,403
3,80,127,165
3,80,0,13
3,80,118,13
3,80,0,17
3,80,127,16
3,82,127,58
3,80,0,6
3,84,127,56
3,82,0,7
3,84,0,54
3,80,127,0
3,79,69,66
3,80,0,4
3,80,106,11
3,79,0,2
3,79,106,11
3,80,0,4
3,77,127,12
3,79,0,1
3,77,0,554
3,80,127,48
3,80,0,48
3,80,127,16
3,82,127,61
3,80,0,3
3,84,127,54
3,82,0,7
3,84,0,51
3,85,127,3
3,85,0,118
3,77,127,0
3,77,0,45
3,77,127,13
3,77,0,443
3,77,77,71
3,77,0,16
3,77,106,14
3,77,0,57
3,80,127,4
3,82,127,63
3,80,0,2
3,82,0,54
3,84,127,0
3,84,0,50
3,84,127,13
3,85,97,91
3,84,0,3
3,84,106,9
3,85,0,6
3,82,127,9
3,84,0,4
3,82,0,547
3,75,127,17
3,75,0,17
3,75,127,12
3,75,0,60
3,87,127,3
3,84,127,91
3,87,0,3
3,82,127,81
3,84,0,2
3,84,127,56
3,82,0,6
3,82,127,176
3,84,0,5
3,82,0,39
3,82,103,10
3,82,0,15
3,84,127,0
3,82,110,12
3,84,0,5
3,80,127,9
3,82,0,3
3,80,0,372
3,80,127,18
3,80,0,14
3,80,127,13
3,80,0,14
3,80,127,16
3,82,127,65
3,80,0,7
3,82,0,51
3,84,127,0
3,80,127,61
3,84,0,2
3,79,106,112
3,80,0,3
3,80,103,11
3,79,0,2
3,79,84,10
3,80,0,4
3,77,122,10
3,79,0,1
3,80,127,557
3,77,0,7
3,80,0,34
3,80,127,19
3,82,127,61
3,80,0,4
3,84,127,54
3,82,0,7
3,84,0,52
3,85,122,2
3,85,0,113
3,85,118,16
3,85,0,37
3,85,110,17
3,85,0,38
3,85,127,22
3,85,0,38
3,87,113,21
3,84,127,58
3,87,0,9
3,84,0,55
3,84,127,2
3,82,127,60
3,84,0,5
3,82,0,227
3,75,127,7
3,75,0,18
3,75,113,12
3,75,0,32
3,80,127,2
3,80,0,73
3,80,127,15
3,80,0,16
3,80,127,13
3,80,0,41
3,80,127,16
3,80,0,653
3,80,118,515
3,80,0,14
3,80,106,13
3,80,0,63
3,79,118,0
3,79,0,48
3,79,97,13
3,80,127,56
3,79,0,6
3,82,110,53
3,80,0,5
3,84,113,61
3,82,0,5
3,82,113,123
3,84,0,6
3,84,84,30
3,82,0,3
3,82,87,9
3,84,0,8
3,80,122,7
3,82,0,3
3,80,0,289
3,80,106,148
3,80,0,15
3,80,110,13
3,79,118,63
3,80,0,5
3,77,127,148
3,79,0,4
3,75,84,44
3,77,0,7
3,77,113,29
3,75,0,6
3,77,0,382
3,80,113,240
3,80,0,14
3,80,113,14
3,80,0,55
3,79,127,9
3,79,0,44
3,79,118,14
3,80,127,58
3,79,0,5
3,82,127,58
3,80,0,3
3,82,0,52
3,87,127,6
3,84,127,122
3,87,0,4
3,82,122,83
3,84,0,7
3,82,0,12
3,82,127,12
3,84,127,118
3,82,0,1
3,82,92,13
3,84,0,4
3,80,118,11
3,82,0,2
3,80,0,240
3,80,127,31
3,80,0,38
3,80,127,20
3,82,127,59
3,80,0,5
3,84,127,63
3,82,0,5
3,82,127,52
3,84,0,2
3,75,110,720
3,82,0,2
3,80,127,58
3,75,0,6
3,82,127,54
3,80,0,8
3,82,0,109
3,85,127,0
3,84,127,127
3,85,0,5
3,84,0,564
3,80,127,22
3,80,0,41
3,80,127,18
3,82,127,85
3,80,0,7
3,84,127,53
3,82,0,6
3,80,127,91
3,84,0,2
3,79,64,50
3,80,0,6
3,80,90,10
3,79,0,1
3,79,106,12
3,80,0,4
3,79,0,14
3,77,127,0
3,80,127,561
3,77,0,6
3,80,0,44
3,80,113,14
3,82,127,57
3,80,0,7
3,84,127,51
3,82,0,5
3,85,127,57
3,84,0,5
3,85,0,116
3,77,127,0
3,77,0,45
3,77,113,10
3,80,127,514
3,77,0,6
3,80,0,10
3,80,106,13
3,80,0,17
3,80,103,10
3,80,0,17
3,80,127,13
3,82,127,62
3,80,0,7
3,84,127,54
3,82,0,3
3,84,0,45
3,84,127,13
3,85,87,90
3,84,0,2
3,84,127,12
3,85,0,7
3,82,127,7
3,84,0,6
3,82,0,592
3,75,127,6
3,87,127,58
3,75,0,1
3,84,127,87
3,87,0,5
3,82,127,84
3,84,0,5
3,84,127,58
3,82,0,7
3,82,127,121
3,84,0,5
3,84,94,20
3,82,0,3
3,82,97,8
3,84,0,8
3,80,127,4
3,82,0,4
3,80,0,449
3,80,110,13
3,80,0,14
3,80,118,10
3,80,0,47
3,80,127,10
3,82,127,61
3,80,0,4
3,84,127,57
3,82,0,5
3,80,127,53
3,84,0,4
3,79,97,80
3,80,0,7
3,79,0,8
3,80,106,0
3,79,100,9
3,80,0,7
3,77,127,3
3,79,0,5
3,77,0,587
3,80,127,4
3,80,0,43
3,80,127,17
3,82,127,61
3,80,0,7
3,82,0,50
3,84,127,1
3,85,127,64
3,84,0,6
3,85,0,102
3,85,118,15
3,85,0,39
3,85,127,15
3,85,0,40
3,85,122,20
3,85,0,40
3,87,118,20
3,84,127,64
3,87,0,7
3,84,127,49
3,84,0,5
3,82,127,58
3,84,0,6
3,75,127,235
3,82,0,2
3,75,0,17
3,75,100,11
3,80,127,34
3,75,0,3
3,80,0,70
3,80,127,17
3,80,0,12
3,80,127,13
3,80,0,47
3,80,127,14
3,87,127,715
3,80,0,7
3,87,0,12
3,87,127,12
3,84,127,122
3,87,0,6
3,82,127,54
3,84,0,4
3,84,127,57
3,82,0,4
3,82,65,37
3,84,0,5
3,82,0,8
3,84,64,0
3,82,90,10
3,84,0,5
3,80,122,12
3,82,0,1
3,87,106,602
3,87,0,65
3,80,0,2
3,84,127,0
3,82,127,85
3,84,0,4
3,80,127,54
3,82,0,6
3,77,127,82
3,80,0,3
3,80,127,92
3,77,0,5
3,80,0,551
3,80,127,17
3,80,0,45
3,80,127,16
3,82,127,61
3,80,0,5
3,84,127,54
3,82,0,3
3,85,127,60
3,84,0,4
3,85,0,101
3,85,122,13
3,85,0,37
3,85,106,18
3,85,0,41
3,85,122,19
3,85,0,40
3,87,122,22
3,84,127,60
3,87,0,10
3,84,0,49
3,84,127,2
3,82,127,60
3,84,0,4
3,82,0,206
3,80,118,4
3,80,0,16
3,80,118,12
3,80,0,49
3,80,127,12
3,80,0,47
3,80,127,16
3,80,0,40
3,80,127,20
3,80,0,49
3,87,127,6
3,84,127,1735
3,87,0,2
3,82,127,91
3,84,0,4
3,80,110,84
3,82,0,4
3,82,103,54
3,80,0,10
3,82,0,5
3,84,94,0
3,82,94,17
3,84,0,6
3,80,92,11
3,82,0,5
3,80,0,909
4,82,60,450
4,82,0,60
4,82,60,60
4,82,0,60
4,82,60,60
4,82,0,60
4,82,60,60
4,82,0,60
4,82,60,60
4,82,0,60
4,82,60,60
4,82,0,60
4,82,60,60
4,82,0,60
4,82,60,60
4,82,0,60
4,82,60,60
4,82,0,60
4,82,60,60
4,82,0,60
4,82,60,60
4,82,0,60
4,82,60,60
4,82,0,60
4,82,60,60
4,82,0,60
4,82,60,60
4,82,0,60
4,82,60,60
4,82,0,60
4,82,60,60
4,82,0,60
4,82,60,60
4,82,0,60
4,82,60,60
4,82,0,60
4,82,60,60
4,82,0,60
4,82,60,60
4,82,0,60
4,82,60,60
4,82,0,60
4,82,60,60
4,82,0,60
4,82,60,60
4,82,0,60
4,82,60,60
4,82,0,60
4,82,60,60
4,82,0,60
4,82,60,60
4,82,0,60
4,82,60,60
4,82,0,60
4,82,60,60
4,82,0,60
4,82,60,60
4,82,0,60
4,82,60,60
4,82,0,60
4,82,60,60
4,82,0,60
4,82,60,60
4,82,0,60
4,82,60,60
4,82,0,60
4,82,60,60
4,82,0,60
4,82,60,60
4,82,0,60
4,82,60,60
4,82,0,60
4,82,60,60
4,82,0,60
4,82,60,60
4,82,0,60
4,82,60,60
4,82,0,60
4,82,60,60
4,82,0,60
4,82,60,60
4,82,0,60
4,82,60,60
4,82,0,60
4,82,60,60
4,82,0,60
4,82,60,60
4,82,0,60
4,82,60,60
4,82,0,60
4,82,60,60
4,82,0,60
4,82,60,60
4,82,0,60
4,82,60,60
4,82,0,60
4,82,60,60
4,82,0,60
4,82,60,60
4,82,0,60
4,82,60,60
4,82,0,60
4,82,60,60
4,82,0,60
4,82,60,60
4,82,0,60
4,82,60,60
4,82,0,60
4,82,60,60
4,82,0,60
4,82,60,60
4,82,0,60
4,82,60,60
4,82,0,60
4,82,60,60
4,82,0,60
4,82,60,60
4,82,0,60
4,82,60,60
4,82,0,60
4,82,60,60
4,82,0,60
4,82,60,60
4,82,0,60
4,82,60,60
4,82,0,60
4,82,60,60
4,82,0,60
4,82,60,60
4,82,0,60
4,82,60,60
4,82,0,60
4,82,60,60
4,82,0,60
4,82,60,60
4,82,0,60
4,82,60,60
4,82,0,60
4,82,60,60
4,82,0,60
4,82,60,60
4,82,0,60
4,82,60,60
4,82,0,60
4,82,60,60
4,82,0,60
4,82,60,60
4,82,0,60
4,82,60,60
4,82,0,60
4,82,60,60
4,82,0,60
4,82,60,60
4,82,0,60
4,82,60,60
4,82,0,60
4,82,60,60
4,82,0,60
4,82,60,60
4,82,0,60
4,82,60,60
4,82,0,60
4,82,60,60
4,82,0,60
4,82,60,60
4,82,0,60
4,82,60,60
4,82,0,60
4,82,60,60
4,82,0,60
4,82,60,60
4,82,0,60
4,82,60,60
4,82,0,60
4,82,60,60
4,82,0,60
4,82,60,60
4,82,0,60
4,82,60,60
4,82,0,60
4,82,60,60
4,82,0,60
4,82,60,60
4,82,0,60
4,82,60,60
4,82,0,60
4,82,60,60
4,82,0,60
4,82,60,60
4,82,0,60
4,82,60,60
4,82,0,60
4,82,60,60
4,82,0,60
4,82,60,60
4,82,0,60
4,82,60,60
4,82,0,60
4,82,60,60
4,82,0,60
4,82,60,60
4,82,0,60
4,82,60,60
4,82,0,60
4,82,60,60
4,82,0,60
4,82,60,60
4,82,0,60
4,82,60,60
4,82,0,60
4,82,60,60
4,82,0,60
4,82,60,60
4,82,0,60
4,82,60,60
4,82,0,60
4,82,60,60
4,82,0,60
4,82,60,60
4,82,0,60
4,82,60,60
4,82,0,60
4,82,60,60
4,82,0,60
4,82,60,60
4,82,0,60
4,82,60,60
4,82,0,60
4,82,60,60
4,82,0,60
4,82,60,60
4,82,0,60
4,82,60,60
4,82,0,60
4,82,60,60
4,82,0,60
4,82,60,60
4,82,0,60
4,82,60,60
4,82,0,60
4,82,60,60
4,82,0,60
4,82,60,60
4,82,0,60
4,82,60,60
4,82,0,60
4,82,60,60
4,82,0,60
4,82,60,60
4,82,0,60
4,82,60,60
4,82,0,60
4,82,60,60
4,82,0,60
4,82,60,60
4,82,0,60
4,82,60,60
4,82,0,60
4,82,60,60
4,82,0,60
4,82,60,60
4,82,0,60
4,82,60,60
4,82,0,60
4,82,60,60
4,82,0,60
4,82,60,60
4,82,0,60
4,82,60,60
4,82,0,60
4,82,60,60
4,82,0,60
4,82,60,60
4,82,0,60
4,82,60,60
4,82,0,60
