track,note,velocity,time
1,57,72,2674
1,69,89,0
1,64,88,0
1,57,0,130
1,69,0,38
1,57,75,24
1,64,0,32
1,57,0,128
1,64,77,32
1,69,80,0
1,69,0,146
1,64,0,42
1,57,65,4
1,57,0,172
1,69,74,20
1,64,81,0
1,69,0,138
1,64,0,32
1,57,65,22
1,57,0,130
1,69,83,62
1,64,83,0
1,69,0,90
1,64,0,32
1,57,82,70
1,57,0,78
1,64,86,114
1,69,88,0
1,57,79,0
1,45,85,0
1,33,99,0
1,57,0,118
1,69,0,56
1,57,80,18
1,64,0,6
1,69,93,186
1,64,86,0
1,57,0,160
1,69,0,30
1,57,88,2
1,64,0,40
1,69,86,152
1,64,82,0
1,57,0,140
1,69,0,44
1,57,82,8
1,64,0,36
1,64,82,156
1,69,85,0
1,57,0,144
1,57,89,48
1,64,0,132
1,69,0,2
1,57,0,10
1,33,0,4
1,45,0,0
1,45,93,0
1,61,88,0
1,57,82,0
1,64,91,0
1,57,0,42
1,57,67,16
1,61,0,46
1,64,0,14
1,57,0,82
1,69,80,50
1,64,84,0
1,69,0,156
1,64,0,20
1,57,67,16
1,57,0,160
1,69,80,32
1,64,80,0
1,69,0,164
1,64,0,26
1,57,61,2
1,57,0,74
1,61,81,118
1,64,81,0
1,61,0,170
1,64,0,2
1,57,72,20
1,45,0,24
1,57,0,20
1,59,85,2
1,65,87,0
1,62,84,0
1,45,91,0
1,59,0,102
1,59,78,36
1,65,0,56
1,62,0,2
1,59,0,32
1,69,91,102
1,62,87,0
1,65,91,0
1,69,0,156
1,65,0,12
1,62,0,0
1,59,72,24
1,59,0,60
1,57,85,132
1,61,92,0
1,64,92,0
1,57,0,62
1,57,65,54
1,61,0,64
1,64,0,8
1,45,0,16
1,57,0,12
1,64,85,92
1,61,87,0
1,69,87,0
1,61,0,54
1,64,0,6
1,69,0,18
1,61,64,114
1,61,0,100
1,55,101,92
1,64,93,0
1,61,88,0
1,71,99,0
1,61,0,8
1,61,78,36
1,64,0,24
1,71,0,14
1,61,0,76
1,64,92,78
1,71,96,0
1,71,0,162
1,64,0,4
1,55,0,14
1,61,81,12
1,61,0,50
1,64,87,26
1,70,87,0
1,54,96,0
1,61,76,120
1,70,0,24
1,64,0,4
1,61,0,76
1,70,91,88
1,64,91,0
1,61,80,8
1,61,0,150
1,64,0,4
1,70,0,2
1,54,0,4
1,66,87,32
1,71,91,0
1,47,87,0
1,62,82,0
1,62,0,60
1,66,0,46
1,62,68,12
1,71,0,4
1,62,0,88
1,71,94,100
1,66,97,0
1,62,82,0
1,47,0,32
1,62,0,78
1,66,0,72
1,71,0,4
1,62,65,6
1,47,70,0
1,47,0,48
1,62,0,14
1,49,59,34
1,49,0,28
1,69,91,68
1,62,85,0
1,50,94,0
1,65,88,0
1,62,0,24
1,62,70,64
1,65,0,10
1,69,0,12
1,62,0,66
1,69,85,104
1,65,73,0
1,65,0,134
1,69,0,2
1,62,51,56
1,50,0,6
1,62,0,30
1,49,91,0
1,57,75,0
1,69,86,0
1,64,85,0
1,57,0,42
1,69,0,34
1,57,66,12
1,64,0,44
1,57,0,100
1,69,93,48
1,64,88,0
1,69,0,156
1,64,0,22
1,49,0,0
1,57,73,14
1,57,0,54
1,62,77,24
1,57,82,0
1,65,87,0
1,47,88,0
1,47,0,106
1,57,0,8
1,57,71,30
1,65,0,24
1,62,0,8
1,57,0,32
1,62,77,128
1,44,91,0
1,71,78,0
1,64,83,0
1,62,0,378
1,44,0,2
1,71,0,0
1,64,0,2
1,45,93,2
1,61,88,0
1,57,82,0
1,64,91,0
1,57,0,42
1,57,67,16
1,61,0,46
1,64,0,14
1,57,0,82
1,69,80,50
1,64,84,0
1,69,0,156
1,64,0,20
1,57,67,16
1,57,0,160
1,69,80,32
1,64,80,0
1,69,0,164
1,64,0,26
1,57,61,2
1,57,0,74
1,61,81,118
1,64,81,0
1,61,0,170
1,64,0,2
1,57,72,20
1,45,0,24
1,57,0,20
1,59,85,2
1,65,87,0
1,62,84,0
1,45,91,0
1,59,0,102
1,59,78,36
1,65,0,56
1,62,0,2
1,59,0,32
1,69,91,102
1,62,87,0
1,65,91,0
1,69,0,156
1,65,0,12
1,62,0,0
1,59,72,24
1,59,0,60
1,57,85,132
1,61,92,0
1,64,92,0
1,57,0,62
1,57,65,54
1,61,0,64
1,64,0,8
1,45,0,16
1,57,0,12
1,64,85,92
1,61,87,0
1,69,87,0
1,61,0,54
1,64,0,6
1,69,0,18
1,61,64,114
1,61,0,100
1,55,101,92
1,64,93,0
1,61,88,0
1,71,99,0
1,61,0,8
1,61,78,36
1,64,0,24
1,71,0,14
1,61,0,76
1,64,92,78
1,71,96,0
1,71,0,162
1,64,0,4
1,55,0,14
1,61,81,12
1,61,0,50
1,64,87,26
1,70,87,0
1,54,96,0
1,61,76,120
1,70,0,24
1,64,0,4
1,61,0,76
1,70,91,88
1,64,91,0
1,61,80,8
1,61,0,150
1,64,0,4
1,70,0,2
1,54,0,4
1,66,87,32
1,71,91,0
1,47,87,0
1,62,82,0
1,62,0,60
1,66,0,46
1,62,68,12
1,71,0,4
1,62,0,88
1,71,94,100
1,66,97,0
1,62,82,0
1,47,0,32
1,62,0,78
1,66,0,72
1,71,0,4
1,62,65,6
1,47,70,0
1,47,0,48
1,62,0,14
1,49,59,34
1,49,0,28
1,69,91,68
1,62,85,0
1,50,94,0
1,65,88,0
1,62,0,24
1,62,70,64
1,65,0,10
1,69,0,12
1,62,0,66
1,69,85,104
1,65,73,0
1,65,0,134
1,69,0,2
1,62,51,56
1,50,0,6
1,62,0,30
1,57,87,0
1,61,88,0
1,64,91,0
1,49,103,0
1,57,0,50
1,61,0,4
1,64,0,12
1,69,88,222
1,79,95,0
1,76,93,0
1,69,0,146
1,49,0,32
1,69,68,14
1,76,0,12
1,79,0,4
1,69,0,42
1,70,94,2
1,54,96,0
1,78,100,0
1,70,0,52
1,78,0,34
1,70,69,4
1,70,0,70
1,76,110,122
1,76,0,84
1,54,0,28
1,66,44,80
1,66,0,72
1,69,98,120
1,71,98,0
1,47,109,0
1,66,94,0
1,75,95,0
1,66,0,58
1,66,73,36
1,71,0,18
1,69,0,0
1,75,0,22
1,66,0,24
1,47,0,8
1,53,94,0
1,74,87,0
1,71,106,0
1,69,94,0
1,69,0,62
1,53,0,0
1,65,82,50
1,71,0,106
1,74,0,4
1,65,0,34
1,52,87,48
1,64,97,0
1,74,94,0
1,71,95,0
1,64,0,142
1,64,87,32
1,71,0,168
1,74,0,0
1,74,87,24
1,71,91,0
1,74,0,192
1,73,87,0
1,73,0,192
1,71,0,0
1,52,0,0
1,64,0,0
1,33,113,0
1,61,123,0
1,57,120,0
1,64,118,0
1,45,113,0
1,57,0,26
1,57,87,34
1,61,0,32
1,64,0,20
1,57,0,28
1,64,114,112
1,61,118,0
1,57,110,0
1,33,0,86
1,45,0,12
1,57,0,64
1,45,96,30
1,33,101,0
1,57,81,0
1,33,0,130
1,45,0,8
1,61,0,2
1,64,0,0
1,57,0,4
1,57,105,14
1,61,107,0
1,64,107,0
1,45,105,0
1,33,109,0
1,57,0,14
1,57,82,20
1,61,0,110
1,57,0,2
1,64,0,2
1,57,110,78
1,64,113,0
1,61,118,0
1,33,0,12
1,45,0,16
1,57,0,108
1,57,85,56
1,61,0,14
1,64,0,2
1,57,0,20
1,61,111,20
1,64,107,0
1,68,102,0
1,49,107,0
1,37,102,0
1,61,0,26
1,61,86,20
1,64,0,102
1,68,0,2
1,61,0,4
1,61,107,84
1,68,111,0
1,64,111,0
1,37,0,68
1,49,0,14
1,37,99,110
1,49,99,0
1,37,0,118
1,64,0,0
1,61,0,2
1,68,0,2
1,49,0,8
1,68,106,18
1,64,109,0
1,61,107,0
1,37,102,0
1,49,106,0
1,61,0,38
1,61,77,10
1,61,0,112
1,64,0,4
1,68,0,6
1,64,111,70
1,61,107,0
1,68,109,0
1,61,0,126
1,37,0,66
1,61,74,0
1,64,0,12
1,68,0,2
1,49,0,6
1,61,0,44
1,64,106,74
1,59,109,0
1,31,90,0
1,67,105,0
1,43,96,0
1,64,0,116
1,67,0,18
1,59,0,4
1,31,0,74
1,59,114,28
1,64,110,0
1,67,107,0
1,43,0,8
1,67,0,168
1,64,0,8
1,59,0,2
1,43,87,6
1,43,0,58
1,64,103,22
1,66,106,0
1,58,101,0
1,42,114,0
1,30,109,0
1,58,0,162
1,58,79,28
1,64,0,50
1,66,0,2
1,58,0,52
1,30,0,6
1,42,0,20
1,64,102,62
1,58,102,0
1,66,107,0
1,58,0,122
1,66,0,20
1,58,87,50
1,64,0,12
1,58,0,28
1,54,102,32
1,47,113,0
1,62,105,0
1,59,109,0
1,54,0,28
1,54,81,40
1,59,0,28
1,62,0,12
1,54,0,40
1,47,0,52
1,62,101,60
1,59,105,0
1,59,0,74
1,62,0,4
1,45,60,114
1,47,68,0
1,45,0,18
1,47,0,12
1,59,105,20
1,65,112,0
1,62,115,0
1,50,113,0
1,59,0,62
1,50,0,44
1,59,90,6
1,62,0,14
1,65,0,0
1,59,0,28
1,52,113,18
1,64,110,0
1,56,103,0
1,62,105,0
1,62,0,170
1,62,95,22
1,62,0,142
1,52,0,4
1,56,0,2
1,64,0,2
1,33,113,42
1,61,123,0
1,57,120,0
1,64,118,0
1,45,113,0
1,57,0,26
1,57,87,34
1,61,0,32
1,64,0,20
1,57,0,28
1,64,114,112
1,61,118,0
1,57,110,0
1,33,0,86
1,45,0,12
1,57,0,64
1,45,96,30
1,33,101,0
1,57,81,0
1,33,0,130
1,45,0,8
1,61,0,2
1,64,0,0
1,57,0,4
1,57,105,14
1,61,107,0
1,64,107,0
1,45,105,0
1,33,109,0
1,57,0,14
1,57,82,20
1,61,0,110
1,57,0,2
1,64,0,2
1,57,110,78
1,64,113,0
1,61,118,0
1,33,0,12
1,45,0,16
1,57,0,108
1,57,85,56
1,61,0,14
1,64,0,2
1,57,0,20
1,61,111,20
1,64,107,0
1,68,102,0
1,49,107,0
1,37,102,0
1,61,0,26
1,61,86,20
1,64,0,102
1,68,0,2
1,61,0,4
1,61,107,84
1,68,111,0
1,64,111,0
1,37,0,68
1,49,0,14
1,37,99,110
1,49,99,0
1,37,0,118
1,64,0,0
1,61,0,2
1,68,0,2
1,49,0,8
1,68,106,18
1,64,109,0
1,61,107,0
1,37,102,0
1,49,106,0
1,61,0,38
1,61,77,10
1,61,0,112
1,64,0,4
1,68,0,6
1,64,111,70
1,61,107,0
1,68,109,0
1,61,0,126
1,37,0,66
1,61,74,0
1,64,0,12
1,68,0,2
1,49,0,6
1,61,0,44
1,64,106,74
1,59,109,0
1,31,90,0
1,67,105,0
1,43,96,0
1,64,0,116
1,67,0,18
1,59,0,4
1,31,0,74
1,59,114,28
1,64,110,0
1,67,107,0
1,43,0,8
1,67,0,168
1,64,0,8
1,59,0,2
1,43,87,6
1,43,0,58
1,64,103,22
1,66,106,0
1,58,101,0
1,42,114,0
1,30,109,0
1,58,0,162
1,58,79,28
1,64,0,50
1,66,0,2
1,58,0,52
1,30,0,6
1,42,0,20
1,64,102,62
1,58,102,0
1,66,107,0
1,58,0,122
1,66,0,20
1,58,87,50
1,64,0,12
1,58,0,28
1,54,102,32
1,47,113,0
1,62,105,0
1,59,109,0
1,54,0,28
1,54,81,40
1,59,0,28
1,62,0,12
1,54,0,40
1,47,0,52
1,62,101,60
1,59,105,0
1,59,0,74
1,62,0,4
1,45,60,114
1,47,68,0
1,45,0,18
1,47,0,12
1,59,105,20
1,65,112,0
1,62,115,0
1,50,113,0
1,59,0,62
1,50,0,44
1,59,90,6
1,62,0,14
1,65,0,0
1,59,0,28
1,52,113,18
1,64,110,0
1,56,103,0
1,62,105,0
1,62,0,170
1,62,95,22
1,62,0,142
1,52,0,4
1,56,0,2
1,64,0,2
1,45,93,42
1,61,88,0
1,57,82,0
1,64,91,0
1,57,0,42
1,57,67,16
1,61,0,46
1,64,0,14
1,57,0,82
1,69,80,50
1,64,84,0
1,69,0,156
1,64,0,20
1,57,67,16
1,57,0,160
1,69,80,32
1,64,80,0
1,69,0,164
1,64,0,26
1,57,61,2
1,57,0,74
1,61,81,118
1,64,81,0
1,61,0,170
1,64,0,2
1,57,72,20
1,45,0,24
1,57,0,20
1,59,85,2
1,65,87,0
1,62,84,0
1,45,91,0
1,59,0,102
1,59,78,36
1,65,0,56
1,62,0,2
1,59,0,32
1,69,91,102
1,62,87,0
1,65,91,0
1,69,0,156
1,65,0,12
1,62,0,0
1,59,72,24
1,59,0,60
1,57,85,132
1,61,92,0
1,64,92,0
1,57,0,62
1,57,65,54
1,61,0,64
1,64,0,8
1,45,0,16
1,57,0,12
1,64,85,92
1,61,87,0
1,69,87,0
1,61,0,54
1,64,0,6
1,69,0,18
1,61,64,114
1,61,0,100
1,55,101,92
1,64,93,0
1,61,88,0
1,71,99,0
1,61,0,8
1,61,78,36
1,64,0,24
1,71,0,14
1,61,0,76
1,64,92,78
1,71,96,0
1,71,0,162
1,64,0,4
1,55,0,14
1,61,81,12
1,61,0,50
1,64,87,26
1,70,87,0
1,54,96,0
1,61,76,120
1,70,0,24
1,64,0,4
1,61,0,76
1,70,91,88
1,64,91,0
1,61,80,8
1,61,0,150
1,64,0,4
1,70,0,2
1,54,0,4
1,66,87,32
1,71,91,0
1,47,87,0
1,62,82,0
1,62,0,60
1,66,0,46
1,62,68,12
1,71,0,4
1,62,0,88
1,71,94,100
1,66,97,0
1,62,82,0
1,47,0,32
1,62,0,78
1,66,0,72
1,71,0,4
1,62,65,6
1,47,70,0
1,47,0,48
1,62,0,14
1,49,59,34
1,49,0,28
1,69,91,68
1,62,85,0
1,50,94,0
1,65,88,0
1,62,0,24
1,62,70,64
1,65,0,10
1,69,0,12
1,62,0,66
1,69,85,104
1,65,73,0
1,65,0,134
1,69,0,2
1,62,51,56
1,50,0,6
1,62,0,30
1,49,91,0
1,57,75,0
1,69,86,0
1,64,85,0
1,57,0,42
1,69,0,34
1,57,66,12
1,64,0,44
1,57,0,100
1,69,93,48
1,64,88,0
1,69,0,156
1,64,0,22
1,49,0,0
1,57,73,14
1,57,0,54
1,62,77,24
1,57,82,0
1,65,87,0
1,47,88,0
1,47,0,106
1,57,0,8
1,57,71,30
1,65,0,24
1,62,0,8
1,57,0,32
1,62,77,128
1,44,91,0
1,71,78,0
1,64,83,0
1,62,0,378
1,44,0,2
1,71,0,0
1,64,0,2
1,45,93,2
1,61,88,0
1,57,82,0
1,64,91,0
1,57,0,42
1,57,67,16
1,61,0,46
1,64,0,14
1,57,0,82
1,69,80,50
1,64,84,0
1,69,0,156
1,64,0,20
1,57,67,16
1,57,0,160
1,69,80,32
1,64,80,0
1,69,0,164
1,64,0,26
1,57,61,2
1,57,0,74
1,61,81,118
1,64,81,0
1,61,0,170
1,64,0,2
1,57,72,20
1,45,0,24
1,57,0,20
1,59,85,2
1,65,87,0
1,62,84,0
1,45,91,0
1,59,0,102
1,59,78,36
1,65,0,56
1,62,0,2
1,59,0,32
1,69,91,102
1,62,87,0
1,65,91,0
1,69,0,156
1,65,0,12
1,62,0,0
1,59,72,24
1,59,0,60
1,57,85,132
1,61,92,0
1,64,92,0
1,57,0,62
1,57,65,54
1,61,0,64
1,64,0,8
1,45,0,16
1,57,0,12
1,64,85,92
1,61,87,0
1,69,87,0
1,61,0,54
1,64,0,6
1,69,0,18
1,61,64,114
1,61,0,100
1,55,101,92
1,64,93,0
1,61,88,0
1,71,99,0
1,61,0,8
1,61,78,36
1,64,0,24
1,71,0,14
1,61,0,76
1,64,92,78
1,71,96,0
1,71,0,162
1,64,0,4
1,55,0,14
1,61,81,12
1,61,0,50
1,64,87,26
1,70,87,0
1,54,96,0
1,61,76,120
1,70,0,24
1,64,0,4
1,61,0,76
1,70,91,88
1,64,91,0
1,61,80,8
1,61,0,150
1,64,0,4
1,70,0,2
1,54,0,4
1,66,87,32
1,71,91,0
1,47,87,0
1,62,82,0
