track,note,velocity,time
3,65,61,2820
3,65,0,60
3,70,72,0
3,70,0,60
3,70,81,0
3,70,0,60
3,69,71,0
3,69,0,60
3,67,66,0
3,67,0,60
3,69,77,0
3,69,0,120
3,67,66,0
3,67,0,60
3,65,48,0
3,65,0,60
3,67,75,0
3,67,0,60
3,65,58,0
3,65,0,60
3,63,78,0
3,63,0,120
3,65,80,0
3,65,0,180
3,58,80,0
3,58,0,60
3,63,87,0
3,63,0,60
3,65,71,0
3,65,0,60
3,67,68,0
3,67,0,60
3,63,73,0
3,63,0,60
3,65,72,0
3,65,0,60
3,62,80,0
3,62,0,60
3,60,72,0
3,60,0,60
3,58,71,0
3,58,0,60
3,63,71,0
3,63,0,120
3,62,68,0
3,62,0,120
3,60,60,0
3,60,0,179
3,62,58,1
3,62,0,60
3,62,80,0
3,62,0,60
3,57,64,0
3,57,0,60
3,62,64,0
3,62,0,60
3,60,62,0
3,60,0,60
3,58,75,0
3,58,0,159
3,65,69,21
3,65,0,59
3,65,69,1
3,65,0,59
3,60,72,1
3,60,0,60
3,65,75,0
3,65,0,60
3,63,83,0
3,63,0,60
3,62,71,0
3,62,0,180
3,62,66,0
3,62,0,60
3,61,74,0
3,61,0,60
3,64,75,0
3,64,0,60
3,67,78,0
3,67,0,60
3,70,73,0
3,70,0,60
3,69,78,0
3,69,0,60
3,67,73,0
3,67,0,60
3,65,73,0
3,65,0,60
3,65,66,0
3,65,0,60
3,67,73,0
3,67,0,120
3,69,64,0
3,69,0,119
3,69,64,1
3,69,0,479
3,65,56,661
3,65,0,60
3,70,89,0
3,70,0,60
3,70,93,0
3,70,0,60
3,69,78,0
3,69,0,60
3,67,73,0
3,67,0,60
3,69,73,0
3,69,0,120
3,67,75,0
3,67,0,60
3,65,71,0
3,65,0,60
3,67,71,0
3,67,0,60
3,65,62,0
3,65,0,60
3,63,81,0
3,63,0,120
3,65,71,0
3,65,0,180
3,58,58,0
3,58,0,60
3,63,90,0
3,63,0,60
3,65,81,0
3,65,0,60
3,67,71,0
3,67,0,60
3,63,67,0
3,63,0,60
3,65,74,0
3,65,0,60
3,62,67,0
3,62,0,60
3,60,80,0
3,60,0,60
3,58,51,0
3,58,0,60
3,63,82,0
3,63,0,120
3,62,71,0
3,62,0,120
3,60,64,0
3,60,0,120
3,62,70,60
3,62,0,60
3,62,82,0
3,62,0,60
3,57,60,0
3,57,0,60
3,62,64,0
3,62,0,60
3,60,74,0
3,60,0,60
3,58,78,0
3,58,0,179
3,65,74,1
3,65,0,59
3,65,82,1
3,65,0,60
3,60,77,0
3,60,0,60
3,65,80,0
3,65,0,60
3,63,85,0
3,63,0,60
3,62,76,0
3,62,0,180
3,62,67,0
3,62,0,60
3,61,80,0
3,61,0,60
3,64,77,0
3,64,0,60
3,67,82,0
3,67,0,60
3,70,81,0
3,70,0,60
3,69,81,0
3,69,0,60
3,67,75,0
3,67,0,60
3,65,71,0
3,65,0,60
3,65,70,0
3,65,0,60
3,67,77,0
3,67,0,120
3,69,78,0
3,69,0,119
3,69,78,1
3,69,0,719
3,65,85,251
3,67,86,110
3,65,0,3
3,67,0,54
3,69,86,3
3,69,0,57
3,70,93,3
3,70,0,338
3,70,95,22
3,70,0,119
3,69,81,1
3,69,0,106
3,62,73,14
3,62,0,124
3,65,80,116
3,65,0,119
3,70,87,1
3,70,0,79
3,67,78,1
3,67,0,75
3,65,73,5
3,63,80,260
3,63,0,57
3,65,0,2
3,65,80,1
3,65,0,239
3,58,80,241
3,58,0,48
3,70,90,12
3,70,0,57
3,67,93,3
3,67,0,57
3,65,73,3
3,65,0,173
3,63,85,7
3,63,0,57
3,65,83,3
3,65,0,156
3,62,75,24
3,62,0,57
3,58,72,3
3,58,0,57
3,58,80,183
3,58,0,59
3,55,80,1
3,55,0,57
3,58,80,3
3,58,0,57
3,60,80,3
3,60,0,216
3,62,80,24
3,62,0,57
3,60,80,3
3,60,0,299
3,65,80,1
3,65,0,113
3,67,80,7
3,67,0,57
3,69,80,3
3,69,0,57
3,70,93,3
3,70,0,358
3,70,95,2
3,70,0,118
3,69,81,4
3,69,0,106
3,62,73,8
3,62,0,359
3,58,80,5
3,58,0,75
3,70,87,5
3,70,0,75
3,67,78,5
3,67,0,75
3,65,73,5
3,65,0,113
3,63,80,7
3,63,0,57
3,65,80,3
3,65,0,299
3,58,80,181
3,58,0,57
3,70,90,3
3,70,0,79
3,67,93,1
3,67,0,78
3,65,73,2
3,63,85,140
3,63,0,57
3,65,0,2
3,65,83,1
3,65,0,216
3,62,75,24
3,62,0,57
3,58,72,3
3,58,0,57
3,53,82,183
3,53,0,59
3,63,80,1
3,63,0,96
3,62,80,24
3,62,0,96
3,60,80,24
3,60,0,96
3,58,80,24
3,58,0,359
3,65,80,661
3,65,0,48
3,70,72,12
3,70,0,60
3,70,81,0
3,70,0,60
3,69,71,0
3,69,0,60
3,67,66,0
3,67,0,60
3,69,77,0
3,69,0,120
3,67,66,0
3,67,0,60
3,65,48,0
3,65,0,60
3,67,75,0
3,67,0,60
3,65,58,0
3,65,0,60
3,63,78,0
3,63,0,120
3,65,80,0
3,65,0,180
3,58,80,0
3,58,0,60
3,63,87,0
3,63,0,60
3,65,71,0
3,65,0,60
3,67,68,0
3,67,0,60
3,63,73,0
3,63,0,60
3,65,72,0
3,65,0,60
3,62,80,0
3,62,0,60
3,60,72,0
3,60,0,60
3,58,71,0
3,58,0,60
3,63,71,0
3,63,0,120
3,62,68,0
3,62,0,120
3,60,60,0
3,60,0,120
3,62,58,60
3,62,0,60
3,62,80,0
3,62,0,60
3,57,64,0
3,57,0,60
3,62,64,0
3,62,0,60
3,60,62,0
3,60,0,60
3,58,75,0
3,58,0,180
3,65,69,0
3,65,0,59
3,65,69,1
3,65,0,59
3,60,72,1
3,60,0,60
3,65,75,0
3,65,0,60
3,63,83,0
3,63,0,60
3,62,71,0
3,62,0,180
3,62,66,0
3,62,0,60
3,61,74,0
3,61,0,60
3,64,75,0
3,64,0,60
3,67,78,0
3,67,0,60
3,70,73,0
3,70,0,60
3,69,78,0
3,69,0,60
3,67,73,0
3,67,0,60
3,65,73,0
3,65,0,60
3,65,66,0
3,65,0,60
3,67,73,0
3,67,0,120
3,69,64,0
3,69,0,119
3,69,64,1
3,69,0,479
3,65,56,661
3,65,0,60
3,74,89,0
3,74,0,60
3,74,93,0
3,74,0,60
3,72,78,0
3,72,0,60
3,70,73,0
3,70,0,60
3,72,73,0
3,72,0,120
3,70,75,0
3,70,0,60
3,69,71,0
3,69,0,60
3,70,71,0
3,70,0,60
3,69,62,0
3,69,0,60
3,67,81,0
3,67,0,120
3,65,71,0
3,65,0,180
3,58,58,0
3,58,0,60
3,63,90,0
3,63,0,60
3,65,81,0
3,65,0,60
3,67,71,0
3,67,0,60
3,63,67,0
3,63,0,60
3,65,74,0
3,65,0,60
3,62,67,0
3,62,0,60
3,60,80,0
3,60,0,60
3,58,51,0
3,58,0,60
3,63,82,0
3,63,0,120
3,62,71,0
3,62,0,120
3,60,64,0
3,60,0,120
3,62,70,60
3,62,0,60
3,62,82,0
3,62,0,60
3,57,60,0
3,57,0,60
3,62,64,0
3,62,0,60
3,60,74,0
3,60,0,60
3,58,78,0
3,58,0,180
3,65,74,0
3,65,0,59
3,65,74,1
3,65,0,59
3,60,77,1
3,60,0,60
3,65,80,0
3,65,0,60
3,63,85,0
3,63,0,60
3,62,76,0
3,62,0,180
3,62,67,0
3,62,0,60
3,61,80,0
3,61,0,60
3,64,77,0
3,64,0,60
3,67,82,0
3,67,0,60
3,70,81,0
3,70,0,60
3,69,81,0
3,69,0,60
3,67,75,0
3,67,0,60
3,65,71,0
3,65,0,60
3,65,70,0
3,65,0,60
3,67,77,0
3,67,0,120
3,69,78,0
3,69,0,119
3,69,78,1
3,69,0,719
3,65,85,251
3,67,86,110
3,65,0,3
3,67,0,54
3,69,86,3
3,69,0,57
3,70,80,3
3,70,0,359
3,70,95,1
3,70,0,119
3,69,81,1
3,69,0,106
3,62,73,14
3,62,0,119
3,65,80,121
3,65,0,119
3,70,87,1
3,70,0,75
3,67,78,5
3,67,0,75
3,65,73,5
3,65,0,249
3,63,80,11
3,63,0,57
3,65,80,3
3,65,0,192
3,58,80,288
3,58,0,48
3,70,90,12
3,70,0,57
3,67,93,3
3,67,0,57
3,65,73,3
3,65,0,173
3,63,85,7
3,63,0,57
3,65,83,3
3,65,0,156
3,62,75,24
3,62,0,57
3,58,72,3
3,58,0,57
3,58,100,123
3,58,0,120
3,55,80,0
3,55,0,57
3,58,80,3
3,58,0,57
3,60,80,3
3,60,0,216
3,62,80,24
3,62,0,57
3,60,80,3
3,60,0,252
3,65,80,48
3,65,0,113
3,67,80,7
3,67,0,57
3,69,80,3
3,69,0,57
3,70,93,3
3,70,0,358
3,70,95,2
3,70,0,118
3,69,81,4
3,69,0,106
3,62,73,8
3,62,0,225
3,58,80,139
3,58,0,75
3,70,87,5
3,70,0,75
3,67,78,5
3,67,0,75
3,65,73,5
3,65,0,113
3,63,80,7
3,63,0,57
3,65,80,3
3,65,0,252
3,58,80,228
3,58,0,57
3,70,90,3
3,70,0,78
3,67,93,2
3,67,0,78
3,65,73,2
3,65,0,137
3,63,85,3
3,63,0,57
3,65,83,3
3,65,0,216
3,62,75,24
3,62,0,57
3,58,72,3
3,58,0,57
3,53,82,183
3,53,0,59
3,63,80,1
3,63,0,96
3,62,80,24
3,62,0,96
3,60,80,24
3,60,0,96
3,58,80,24
3,58,0,312
3,65,80,48
3,65,0,113
3,67,80,7
3,67,0,57
3,69,80,3
3,69,0,57
3,70,80,3
3,70,0,288
3,72,80,72
3,72,0,96
3,69,80,24
3,69,0,48
3,67,71,12
3,67,0,48
3,65,63,12
3,65,0,312
3,70,87,48
3,70,0,57
3,67,78,3
3,67,0,57
3,65,73,3
3,65,0,216
3,63,80,24
3,63,0,119
3,65,80,1
3,65,0,239
3,58,80,181
3,58,0,59
3,70,90,1
3,70,0,78
3,67,93,2
3,67,0,78
3,65,73,2
3,65,0,119
3,63,85,21
3,63,0,59
3,65,83,1
3,65,0,239
3,62,75,1
3,62,0,59
3,58,72,1
3,58,0,59
3,58,82,121
3,58,0,119
3,55,80,1
3,55,0,113
3,58,80,7
3,58,0,57
3,60,80,3
3,60,0,173
3,62,80,7
3,62,0,113
3,60,80,7
3,60,0,192
3,65,80,48
3,65,0,64
3,67,80,16
3,67,0,64
3,69,80,16
3,69,0,64
3,70,93,16
3,70,0,299
3,74,95,1
3,74,0,179
3,69,81,3
3,69,0,338
3,58,83,20
3,58,0,119
3,67,87,1
3,67,0,119
3,67,78,1
3,67,0,57
3,69,73,3
3,69,0,179
3,70,80,1
3,70,0,57
3,70,80,3
3,70,0,299
3,58,80,121
3,58,0,119
3,67,90,1
3,67,0,57
3,67,93,3
3,67,0,276
3,65,73,24
3,65,0,57
3,63,85,3
3,63,0,57
3,65,83,3
3,65,0,113
3,70,75,7
3,70,0,57
3,70,72,3
3,70,0,57
3,53,82,123
3,53,0,119
3,62,80,1
3,62,0,57
3,62,80,3
3,62,0,57
3,60,80,3
3,60,0,289
3,58,80,11
3,58,0,85
3,58,80,5
3,58,0,450
4,62,48,0
4,62,0,79
4,67,54,1
4,67,0,79
4,69,56,1
4,69,0,79
4,43,60,1
4,55,60,0
4,62,60,0
4,70,80,0
4,62,0,159
4,62,53,1
4,62,0,79
4,70,0,0
4,55,0,0
4,43,0,0
4,70,60,1
4,43,52,0
4,55,52,0
4,62,52,0
4,62,0,239
4,70,0,0
4,43,0,0
4,55,0,0
4,69,52,1
4,41,52,0
4,53,52,0
4,62,52,0
4,62,0,239
4,53,0,0
4,69,0,0
4,53,52,1
4,62,80,0
4,62,0,79
4,65,80,1
4,65,0,79
4,62,80,1
4,62,0,79
4,53,0,0
4,41,0,0
4,51,40,1
4,67,40,0
4,58,40,0
4,39,40,0
4,58,0,159
4,58,70,1
4,58,0,79
4,67,0,0
4,58,70,1
4,63,70,0
4,63,0,239
4,39,0,0
4,51,0,0
4,58,0,0
4,41,48,1
4,53,48,0
4,65,48,0
4,60,48,0
4,58,48,0
4,58,0,239
4,57,33,1
4,57,0,239
4,60,0,0
4,41,0,0
4,53,0,0
4,65,0,0
4,70,49,1
4,67,49,0
4,62,49,0
4,55,49,0
4,55,0,240
4,70,0,0
4,67,0,0
4,62,0,0
4,69,48,0
4,65,48,0
4,62,48,0
4,53,48,0
4,53,0,240
4,69,0,0
4,65,0,0
4,62,0,0
4,67,42,0
4,63,42,0
4,51,42,0
4,51,0,240
4,63,0,0
4,67,0,0
4,65,42,0
4,62,42,0
4,58,42,0
4,50,42,0
4,50,0,240
4,65,0,0
4,62,0,0
4,58,0,0
4,67,42,0
4,63,42,0
4,58,42,0
4,48,42,0
4,48,0,240
4,67,0,0
4,63,0,0
4,58,0,0
4,65,42,0
4,62,42,0
4,58,42,0
4,50,42,0
4,50,0,240
4,65,0,0
4,62,0,0
4,58,0,0
4,67,42,0
4,63,42,0
4,58,42,0
4,51,42,0
4,51,0,240
4,67,0,0
4,63,0,0
4,58,0,0
4,60,42,0
4,69,42,0
4,65,42,0
4,53,42,0
4,53,0,240
4,60,0,0
4,69,0,0
4,65,0,0
4,69,42,0
4,62,42,0
4,42,42,0
4,57,42,0
4,57,0,240
4,69,0,0
4,62,0,0
4,42,0,0
4,67,42,0
4,62,42,0
4,43,42,0
4,58,42,0
4,58,0,240
4,67,0,0
4,62,0,0
4,43,0,0
4,57,41,0
4,60,41,0
4,65,41,0
4,45,41,0
4,45,0,240
4,57,0,0
4,60,0,0
4,65,0,0
4,58,48,0
4,62,48,0
4,65,48,0
4,46,48,0
4,46,0,240
4,58,0,0
4,62,0,0
4,65,0,0
4,64,53,0
4,49,53,0
4,57,53,0
4,57,0,240
4,49,0,0
4,64,0,0
4,65,58,0
4,57,58,0
4,62,58,0
4,50,58,0
4,50,0,240
4,65,0,0
4,57,0,0
4,62,0,0
4,67,67,0
4,60,67,0
4,52,67,0
4,52,0,240
4,60,0,0
4,67,0,0
4,60,57,0
4,69,57,0
4,53,57,0
4,60,0,119
4,60,72,0
4,69,0,79
4,65,80,1
4,65,0,79
4,67,86,1
4,67,0,159
4,69,91,1
4,69,0,159
4,70,79,1
4,70,0,199
4,72,74,1
4,72,0,239
4,60,0,0
4,53,0,0
4,70,62,0
4,67,62,0
4,62,62,0
4,55,62,0
4,55,0,240
4,70,0,0
4,67,0,0
4,62,0,0
4,69,62,0
4,65,62,0
4,62,62,0
4,53,62,0
4,53,0,240
4,69,0,0
4,65,0,0
4,62,0,0
4,67,62,0
4,63,62,0
4,51,62,0
4,51,0,240
4,63,0,0
4,67,0,0
4,65,62,0
4,62,62,0
4,58,62,0
4,50,62,0
4,50,0,240
4,65,0,0
4,62,0,0
4,58,0,0
4,67,59,0
4,63,59,0
4,58,59,0
4,48,59,0
4,48,0,240
4,67,0,0
4,63,0,0
4,58,0,0
4,65,59,0
4,62,59,0
4,58,59,0
4,50,59,0
4,50,0,240
4,65,0,0
4,62,0,0
4,58,0,0
4,67,57,0
4,63,57,0
4,58,57,0
4,51,57,0
4,51,0,240
4,67,0,0
4,63,0,0
4,58,0,0
4,60,57,0
4,69,57,0
4,65,57,0
4,53,57,0
4,53,0,240
4,60,0,0
4,69,0,0
4,65,0,0
4,69,65,0
4,62,65,0
4,42,65,0
4,57,65,0
4,57,0,240
4,69,0,0
4,62,0,0
4,42,0,0
4,67,65,0
4,62,65,0
4,43,65,0
4,58,65,0
4,58,0,240
4,67,0,0
4,62,0,0
4,43,0,0
4,57,65,0
4,60,65,0
4,65,65,0
4,45,65,0
4,45,0,240
4,57,0,0
4,60,0,0
4,65,0,0
4,58,65,0
4,62,65,0
4,65,65,0
4,46,65,0
4,46,0,240
4,58,0,0
4,62,0,0
4,65,0,0
4,64,65,0
4,49,65,0
4,57,65,0
4,57,0,240
4,49,0,0
4,64,0,0
