track,note,velocity,time
0,60,85,1384
0,63,100,192
0,63,104,146
0,61,101,264
0,60,91,8
0,32,115,192
0,60,99,0
0,63,103,0
0,63,88,0
0,68,89,0
0,72,83,0
0,80,58,0
0,82,61,0
0,56,99,88
0,63,84,0
0,68,80,0
0,72,81,0
0,60,99,76
0,63,103,0
0,63,86,0
0,68,85,0
0,72,83,0
0,82,25,0
0,56,99,104
0,63,81,0
0,68,78,0
0,72,79,0
0,60,99,156
0,63,85,0
0,68,84,0
0,72,80,0
0,82,53,0
0,56,99,76
0,63,83,0
0,68,79,0
0,72,80,0
0,60,99,156
0,63,84,0
0,68,80,0
0,72,80,0
0,56,99,158
0,63,83,0
0,68,82,0
0,72,80,0
0,60,99,158
0,63,85,0
0,68,82,0
0,72,80,0
0,82,61,0
0,56,99,88
0,63,85,0
0,68,83,0
0,72,81,0
0,60,99,160
0,63,85,0
0,68,82,0
0,72,79,0
0,82,25,0
0,56,99,104
0,63,83,0
0,68,80,0
0,72,78,0
0,60,99,160
0,63,85,0
0,68,82,0
0,72,78,0
0,82,53,0
0,56,99,76
0,63,84,0
0,68,80,0
0,72,78,0
0,60,99,160
0,63,85,0
0,68,80,0
0,72,78,0
0,56,99,160
0,63,84,0
0,68,79,0
0,72,79,0
0,60,99,162
0,63,85,0
0,68,80,0
0,72,79,0
0,82,61,0
0,56,99,88
0,63,81,0
0,68,78,0
0,72,79,0
0,60,99,30
0,63,85,0
0,68,80,0
0,72,79,0
0,82,25,0
0,56,99,104
0,63,84,0
0,68,79,0
0,72,79,0
0,60,99,162
0,63,86,0
0,68,79,0
0,72,77,0
0,82,53,0
0,56,99,76
0,63,85,0
0,68,80,0
0,72,79,0
0,60,99,160
0,63,85,0
0,68,80,0
0,72,79,0
0,56,99,158
0,63,96,0
0,63,85,0
0,68,81,0
0,72,78,0
0,60,99,162
0,63,85,0
0,68,78,0
0,72,78,0
0,82,61,0
0,56,99,82
0,63,107,0
0,63,85,0
0,68,80,0
0,72,78,0
0,60,99,162
0,63,85,0
0,68,80,0
0,72,78,0
0,82,25,0
0,56,99,104
0,63,86,0
0,68,81,0
0,72,79,0
0,60,99,72
0,63,85,0
0,68,107,0
0,68,81,0
0,72,79,0
0,82,53,0
0,56,99,76
0,63,85,0
0,68,81,0
0,72,79,0
0,60,99,160
0,63,85,0
0,68,82,0
0,72,79,0
0,56,99,158
0,63,83,0
0,68,82,0
0,72,79,0
0,60,99,164
0,65,86,0
0,68,90,0
0,72,83,0
0,77,58,0
0,82,61,0
0,56,99,88
0,65,79,0
0,68,82,0
0,72,77,0
0,67,86,48
0,60,99,96
0,65,77,0
0,68,82,0
0,72,77,0
0,82,25,0
0,56,99,104
0,65,79,0
0,68,85,0
0,72,78,0
0,65,106,16
0,60,99,96
0,65,81,0
0,68,87,0
0,72,79,0
0,82,53,0
0,56,99,76
0,65,80,0
0,68,86,0
0,72,78,0
0,60,99,160
0,65,79,0
0,68,85,0
0,72,77,0
0,56,99,158
0,65,79,0
0,68,86,0
0,72,79,0
0,60,99,158
0,65,80,0
0,68,87,0
0,72,78,0
0,82,61,0
0,56,99,88
0,65,77,0
0,68,85,0
0,72,77,0
0,60,99,158
0,65,80,0
0,68,86,0
0,72,77,0
0,82,25,0
0,56,99,104
0,65,77,0
0,68,84,0
0,72,76,0
0,60,99,158
0,65,80,0
0,68,86,0
0,72,77,0
0,82,53,0
0,56,99,76
0,65,79,0
0,68,86,0
0,72,77,0
0,60,99,160
0,65,80,0
0,68,85,0
0,72,77,0
0,56,99,158
0,65,79,0
0,68,85,0
0,72,76,0
0,60,99,158
0,65,79,0
0,68,88,0
0,72,78,0
0,82,61,0
0,56,99,88
0,65,79,0
0,68,85,0
0,72,77,0
0,60,99,156
0,65,76,0
0,68,83,0
0,72,78,0
0,82,25,0
0,56,99,104
0,65,79,0
0,68,84,0
0,72,78,0
0,60,99,160
0,65,78,0
0,68,83,0
0,72,76,0
0,82,53,0
0,56,99,76
0,65,78,0
0,68,85,0
0,72,76,0
0,60,99,160
0,65,78,0
0,68,84,0
0,72,76,0
0,56,99,160
0,65,93,0
0,65,78,0
0,68,85,0
0,72,77,0
0,60,99,86
0,65,88,0
0,65,79,0
0,68,85,0
0,72,77,0
0,82,61,0
0,56,99,88
0,65,90,0
0,65,78,0
0,68,84,0
0,72,76,0
0,60,99,158
0,65,78,0
0,68,85,0
0,72,77,0
0,82,25,0
0,56,99,104
0,65,78,0
0,68,85,0
0,72,77,0
0,60,99,154
0,65,79,0
0,67,96,0
0,68,85,0
0,72,77,0
0,82,53,0
0,87,58,0
0,56,99,76
0,65,78,0
0,68,86,0
0,72,78,0
0,60,99,158
0,65,79,0
0,68,85,0
0,72,78,0
0,56,99,160
0,65,81,0
0,68,86,0
0,72,83,0
0,32,115,162
0,60,99,0
0,63,90,0
0,68,90,0
0,72,84,0
0,82,61,0
0,84,58,0
0,68,96,56
0,56,99,88
0,63,85,0
0,68,78,0
0,72,80,0
0,60,99,18
0,63,85,0
0,68,81,0
0,72,81,0
0,82,25,0
0,63,98,8
0,56,99,96
0,63,84,0
0,68,78,0
0,72,81,0
0,60,99,0
0,63,85,0
0,68,81,0
0,72,83,0
0,82,53,0
0,60,103,60
0,56,99,76
0,63,86,0
0,68,87,0
0,72,82,0
0,60,99,156
0,63,83,0
0,68,78,0
0,72,80,0
0,63,102,22
0,56,99,96
0,63,83,0
0,68,79,0
0,72,79,0
0,60,99,156
0,63,85,0
0,68,82,0
0,72,79,0
0,82,61,0
0,56,99,88
0,63,85,0
0,68,79,0
0,72,79,0
0,60,99,158
0,63,85,0
0,68,83,0
0,72,79,0
0,82,25,0
0,56,99,104
0,63,84,0
0,68,83,0
0,72,79,0
0,60,99,160
0,63,84,0
0,68,80,0
0,72,78,0
0,82,53,0
0,56,99,76
0,63,84,0
0,68,78,0
0,72,79,0
0,60,99,162
0,63,83,0
0,68,80,0
0,72,79,0
0,56,99,164
0,63,85,0
0,68,80,0
0,72,78,0
0,60,99,164
0,63,85,0
0,68,82,0
0,72,79,0
0,82,61,0
0,56,99,88
0,63,85,0
0,68,78,0
0,72,78,0
0,60,99,162
0,63,85,0
0,68,82,0
0,72,78,0
0,82,25,0
0,56,99,26
0,63,85,0
0,68,78,0
0,72,78,0
0,60,99,160
0,63,87,0
0,68,83,0
0,72,79,0
0,82,53,0
0,56,99,76
0,63,85,0
0,68,80,0
0,72,78,0
0,60,99,160
0,63,85,0
0,68,82,0
0,72,79,0
0,56,99,160
0,60,95,0
0,63,85,0
0,68,82,0
0,72,79,0
0,60,99,36
0,63,100,0
0,63,84,0
0,68,80,0
0,72,78,0
0,82,61,0
0,56,99,22
0,63,85,0
0,68,87,0
0,72,80,0
0,63,92,66
0,60,99,96
0,63,85,0
0,68,84,0
0,72,80,0
0,82,25,0
0,56,99,104
0,63,81,0
0,68,79,0
0,72,79,0
0,60,99,162
0,63,83,0
0,68,81,0
0,72,81,0
0,82,53,0
0,56,99,62
0,63,84,0
0,68,85,0
0,72,83,0
0,60,99,158
0,61,96,0
0,63,83,0
0,68,82,0
0,72,84,0
0,56,99,158
0,63,82,0
0,68,79,0
0,72,81,0
0,60,97,54
0,58,99,4
0,63,87,0
0,67,84,0
0,70,83,0
0,79,58,0
0,82,58,0
0,82,61,0
0,55,99,88
0,58,100,0
0,63,76,0
0,67,80,0
0,70,78,0
0,58,99,162
0,63,84,0
0,67,84,0
0,70,79,0
0,82,25,0
0,55,99,104
0,63,85,0
0,67,84,0
0,70,80,0
0,58,99,158
0,63,84,0
0,67,85,0
0,70,81,0
0,82,53,0
0,55,99,76
0,63,84,0
0,67,84,0
0,70,77,0
0,58,99,162
0,63,80,0
0,67,82,0
0,70,75,0
0,55,99,158
0,63,82,0
0,67,83,0
0,70,80,0
0,58,99,156
0,63,83,0
0,67,83,0
0,70,78,0
0,82,61,0
0,55,99,88
0,63,84,0
0,67,84,0
0,70,80,0
0,58,99,156
0,63,84,0
0,67,84,0
0,70,80,0
0,82,25,0
0,55,99,104
0,63,83,0
0,67,84,0
0,70,79,0
0,58,99,160
0,63,83,0
0,67,84,0
0,70,80,0
0,82,53,0
0,55,99,76
0,63,82,0
0,67,84,0
0,70,78,0
0,58,99,162
0,63,84,0
0,67,83,0
0,70,78,0
0,55,99,158
0,63,82,0
0,67,85,0
0,70,78,0
0,58,99,164
0,63,79,0
0,67,83,0
0,70,78,0
0,82,61,0
0,55,99,88
0,63,83,0
0,67,84,0
0,70,78,0
0,58,99,160
0,63,83,0
0,67,84,0
0,70,78,0
0,82,25,0
0,55,99,104
0,63,85,0
0,67,86,0
0,70,81,0
0,58,99,160
0,63,83,0
0,67,84,0
0,70,79,0
0,82,53,0
0,55,99,76
0,63,83,0
0,67,84,0
0,70,80,0
0,58,99,160
0,63,85,0
0,67,86,0
0,70,80,0
0,55,99,162
0,60,99,0
0,63,82,0
0,67,85,0
0,70,80,0
0,58,99,164
0,63,100,0
0,63,85,0
0,67,84,0
0,70,82,0
0,82,61,0
0,55,99,88
0,63,83,0
0,67,84,0
0,70,79,0
0,58,99,154
0,63,94,0
0,63,82,0
0,63,127,0
0,67,84,0
0,70,78,0
0,82,25,0
0,55,99,104
0,63,84,0
0,67,84,0
0,70,81,0
0,58,99,56
0,62,127,0
0,63,82,0
0,67,84,0
0,70,80,0
0,82,53,0
0,55,99,76
0,63,83,0
0,67,85,0
0,70,82,0
0,58,99,160
0,61,97,0
0,63,83,0
0,67,84,0
0,70,82,0
0,55,99,132
0,63,86,0
0,67,84,0
0,70,82,0
0,60,90,54
0,32,127,14
0,56,94,0
0,60,99,0
0,63,88,0
0,68,89,0
0,72,83,0
0,80,58,0
0,82,61,0
0,56,99,88
0,63,84,0
0,68,80,0
0,72,81,0
0,65,98,60
0,58,105,32
0,60,99,0
0,63,86,0
0,68,85,0
0,72,83,0
0,82,25,0
0,56,99,104
0,63,81,0
0,68,78,0
0,72,79,0
0,63,103,60
0,58,100,32
0,60,99,0
0,63,85,0
0,68,84,0
0,72,80,0
0,82,53,0
0,56,99,76
0,63,83,0
0,68,79,0
0,72,80,0
0,60,92,32
0,60,99,0
0,63,84,0
0,68,80,0
0,72,80,0
0,56,99,158
0,63,83,0
0,68,82,0
0,72,80,0
0,60,100,80
0,60,99,0
0,63,85,0
0,68,82,0
0,72,80,0
0,82,61,0
0,56,99,88
0,63,85,0
0,68,83,0
0,72,81,0
0,60,99,160
0,63,85,0
0,68,82,0
0,72,79,0
0,82,25,0
0,56,99,104
0,63,83,0
0,68,80,0
0,72,78,0
0,60,99,160
0,63,85,0
0,68,82,0
0,72,78,0
0,82,53,0
0,56,99,76
0,63,84,0
0,68,80,0
0,72,78,0
0,60,99,160
0,63,85,0
0,68,80,0
0,72,78,0
0,56,99,160
0,63,84,0
0,68,79,0
0,72,79,0
0,56,82,32
0,60,99,0
0,63,85,0
0,68,80,0
0,72,79,0
0,82,61,0
0,56,99,88
0,63,81,0
0,68,78,0
0,72,79,0
0,58,101,32
0,60,99,0
0,63,85,0
0,68,80,0
0,72,79,0
0,82,25,0
0,56,99,104
0,63,84,0
0,68,79,0
0,72,79,0
0,58,97,32
0,60,99,0
0,63,86,0
0,68,79,0
0,72,77,0
0,82,53,0
0,56,99,76
0,63,85,0
0,68,80,0
0,72,79,0
0,60,96,32
0,60,99,0
0,63,85,0
0,68,80,0
0,72,79,0
0,63,94,62
0,56,99,96
0,63,85,0
0,68,81,0
0,72,78,0
0,60,103,126
0,60,99,0
0,63,119,0
0,63,85,0
0,68,78,0
0,72,78,0
0,82,61,0
0,56,99,88
0,63,85,0
0,68,80,0
0,72,78,0
0,60,99,162
0,63,85,0
0,68,80,0
0,72,78,0
0,82,25,0
0,56,99,62
0,63,107,0
0,63,86,0
0,68,81,0
0,72,79,0
0,60,99,158
0,63,85,0
0,68,81,0
0,72,79,0
0,82,53,0
0,56,99,76
0,63,85,0
0,68,115,0
0,68,81,0
0,72,79,0
0,60,99,160
0,63,85,0
0,68,82,0
0,72,79,0
0,56,99,158
0,63,83,0
0,68,82,0
0,72,79,0
0,67,93,38
0,29,111,32
0,60,99,0
0,65,86,0
0,68,99,0
0,68,90,0
0,72,83,0
0,77,58,0
0,82,61,0
0,56,99,88
0,65,79,0
0,68,82,0
0,72,77,0
0,65,108,62
0,60,99,32
0,65,77,0
0,67,100,0
0,68,82,0
0,72,77,0
0,82,25,0
0,56,99,90
0,65,79,0
0,68,85,0
0,72,78,0
0,60,99,158
0,65,81,0
0,67,92,0
0,68,87,0
0,72,79,0
0,82,53,0
0,56,99,76
0,65,80,0
0,68,86,0
0,72,78,0
0,60,99,32
0,65,92,0
0,65,79,0
0,68,85,0
0,72,77,0
0,56,99,158
0,65,79,0
0,68,86,0
0,72,79,0
0,60,99,58
0,65,96,0
0,65,80,0
0,68,87,0
0,72,78,0
0,82,61,0
0,56,99,88
0,65,77,0
0,68,85,0
0,72,77,0
0,60,99,158
0,65,80,0
0,68,86,0
0,72,77,0
0,82,25,0
0,56,99,104
0,65,77,0
0,68,84,0
0,72,76,0
0,60,99,158
0,65,80,0
0,68,86,0
0,72,77,0
0,82,53,0
0,56,99,76
0,65,79,0
0,68,86,0
0,72,77,0
0,60,99,160
0,65,80,0
0,68,85,0
0,72,77,0
0,56,99,158
0,65,79,0
0,68,85,0
0,72,76,0
0,60,99,32
0,65,79,0
0,68,98,0
0,68,88,0
0,72,78,0
0,82,61,0
0,56,99,88
0,65,79,0
0,68,85,0
0,72,77,0
0,60,99,32
0,65,76,0
0,67,99,0
0,68,83,0
0,72,78,0
0,82,25,0
0,56,99,68
0,65,79,0
0,68,84,0
0,72,78,0
0,60,99,86
0,65,78,0
0,67,91,0
0,68,83,0
0,72,76,0
0,82,53,0
0,56,99,76
0,65,78,0
0,68,85,0
0,72,76,0
0,60,99,32
0,65,92,0
0,65,78,0
0,68,84,0
0,72,76,0
0,56,99,160
0,65,83,0
0,65,78,0
0,68,85,0
0,72,77,0
0,60,99,54
0,65,96,0
0,65,79,0
0,68,85,0
0,72,77,0
0,82,61,0
0,65,103,64
0,56,99,88
0,65,78,0
0,68,84,0
0,72,76,0
0,60,99,158
0,65,78,0
0,68,85,0
0,72,77,0
0,82,25,0
0,56,99,52
0,65,86,0
0,65,78,0
0,68,85,0
0,72,77,0
0,60,99,158
0,65,79,0
0,68,85,0
0,72,77,0
0,82,53,0
0,87,58,0
0,56,99,64
0,65,78,0
0,67,108,0
0,68,86,0
0,72,78,0
0,60,99,158
0,65,79,0
0,68,85,0
0,72,78,0
0,56,99,56
0,65,81,0
0,68,89,0
0,68,86,0
0,72,83,0
0,37,89,32
0,61,86,0
0,61,99,0
0,65,90,0
0,68,90,0
0,73,84,0
0,82,61,0
0,85,58,0
0,68,119,62
0,56,99,88
0,65,85,0
0,68,78,0
0,73,80,0
0,61,99,32
0,63,105,0
0,65,85,0
0,68,81,0
0,73,81,0
0,82,25,0
0,56,99,76
0,63,104,0
0,65,84,0
0,68,78,0
0,73,81,0
0,61,99,36
0,63,97,0
0,65,85,0
0,68,81,0
0,73,83,0
0,82,53,0
0,56,99,76
0,65,86,0
0,68,87,0
0,73,82,0
0,61,99,32
0,65,103,0
0,65,83,0
0,68,78,0
0,73,80,0
0,56,99,156
0,65,83,0
0,68,79,0
0,73,79,0
0,61,99,114
0,65,102,0
0,65,85,0
0,68,82,0
0,73,79,0
0,82,61,0
0,56,99,88
0,65,85,0
0,68,79,0
0,73,79,0
0,61,99,158
0,65,85,0
0,68,83,0
0,73,79,0
0,82,25,0
0,56,99,104
0,65,84,0
0,68,83,0
0,73,79,0
0,61,99,160
0,65,84,0
0,67,117,0
0,68,80,0
0,73,78,0
0,82,53,0
0,56,99,76
0,65,84,0
0,68,78,0
0,73,79,0
0,61,99,14
0,65,83,0
0,68,89,0
0,68,80,0
0,73,79,0
0,56,99,164
0,65,85,0
0,68,80,0
0,73,78,0
