track,note,velocity,time
0,59,46,135
0,59,0,4
0,51,45,12
0,51,0,4
0,37,113,12
0,53,62,0
0,56,63,0
0,61,63,0
0,56,73,0
0,61,76,0
0,65,76,0
0,59,52,4
0,59,0,4
0,56,73,262
0,56,0,111
0,61,72,3
0,63,71,3
0,49,57,3
0,56,0,32
0,61,0,0
0,65,0,4
0,63,0,25
0,65,72,3
0,56,68,32
0,49,0,93
0,53,0,0
0,56,0,0
0,65,0,0
0,49,70,3
0,54,62,0
0,57,62,0
0,65,73,0
0,57,76,0
0,56,0,9
0,61,68,87
0,65,0,93
0,66,72,3
0,68,76,0
0,57,39,4
0,61,0,92
0,61,40,4
0,68,0,92
0,68,48,4
0,66,0,93
0,65,71,3
0,65,0,93
0,66,71,3
0,68,0,63
0,63,86,9
0,68,66,6
0,57,0,14
0,61,0,0
0,49,0,1
0,54,0,0
0,57,0,0
0,66,0,0
0,53,60,3
0,56,63,0
0,68,71,0
0,65,83,3
0,63,0,33
0,49,48,60
0,49,0,93
0,51,68,3
0,51,0,93
0,53,48,1
0,63,84,7
0,68,84,0
0,65,80,48
0,63,0,7
0,63,84,41
0,61,84,48
0,68,0,7
0,63,0,25
0,53,0,11
0,51,48,5
0,56,88,0
0,51,0,45
0,53,56,3
0,53,0,45
0,53,0,0
0,56,0,0
0,54,60,3
0,54,61,0
0,57,62,0
0,68,0,93
0,66,71,3
0,65,0,28
0,61,0,16
0,56,0,43
0,66,0,6
0,65,70,1
0,49,60,0
0,63,70,0
0,65,68,3
0,68,93,0
0,73,108,0
0,75,102,0
0,77,109,0
0,77,108,0
0,65,0,8
0,37,94,3
0,68,51,0
0,56,75,0
0,61,71,0
0,65,70,0
0,56,78,0
0,61,71,0
0,65,74,0
0,56,38,20
0,61,43,53
0,68,0,93
0,68,52,3
0,56,0,189
0,56,36,3
0,61,0,93
0,56,0,0
0,61,0,0
0,65,0,0
0,61,48,3
0,56,81,0
0,61,77,0
0,65,77,0
0,61,0,63
0,56,0,3
0,65,0,2
0,73,107,0
0,68,0,5
0,68,52,3
0,73,0,35
0,75,103,0
0,75,0,42
0,77,108,0
0,37,0,3
0,56,0,0
0,61,0,0
0,65,0,0
0,49,74,3
0,57,79,0
0,61,79,0
0,63,74,0
0,57,75,0
0,61,72,0
0,63,74,0
0,77,0,83
0,78,100,0
0,56,0,7
0,56,36,3
0,78,0,40
0,77,101,0
0,61,0,50
0,61,45,3
0,77,0,82
0,78,93,0
0,68,0,8
0,68,52,3
0,78,0,40
0,77,97,0
0,56,0,146
0,77,0,1
0,56,38,2
0,78,104,0
0,78,0,92
0,61,0,0
0,77,96,0
0,61,53,0
0,77,0,61
0,75,96,0
0,63,38,32
0,75,0,29
0,73,96,0
0,63,0,34
0,57,0,4
0,61,0,0
0,63,83,3
0,68,80,8
0,73,0,9
0,77,96,0
0,68,0,0
0,57,0,0
0,61,0,0
0,63,0,0
0,37,106,3
0,65,55,0
0,56,80,0
0,61,79,0
0,65,78,0
0,61,79,0
0,65,61,1
0,61,0,17
0,63,0,24
0,63,0,17
0,56,0,34
0,56,34,3
0,77,0,53
0,61,47,43
0,68,53,96
0,56,0,189
0,56,39,0
0,61,46,3
0,37,0,45
0,49,57,3
0,73,97,0
0,68,0,3
0,68,53,3
0,73,0,40
0,75,96,0
0,75,0,42
0,68,0,2
0,61,0,1
0,77,93,0
0,49,0,1
0,56,0,0
0,61,0,0
0,65,0,0
0,65,0,0
0,49,70,3
0,57,77,0
0,61,81,0
0,63,79,0
0,57,73,0
0,61,72,0
0,63,74,0
0,77,0,42
0,78,91,0
0,78,0,48
0,56,0,0
0,77,87,0
0,56,41,0
0,77,0,48
0,78,95,0
0,61,0,42
0,61,45,3
0,65,0,32
0,78,0,60
0,68,0,1
0,77,90,2
0,68,51,1
0,77,0,49
0,80,98,0
0,56,0,137
0,56,37,3
0,80,0,19
0,78,97,0
0,61,0,71
0,78,0,1
0,61,48,2
0,77,96,0
0,77,0,55
0,75,94,0
0,63,36,22
0,75,0,36
0,73,94,0
0,61,0,2
0,56,0,22
0,63,0,19
0,49,0,2
0,68,0,0
0,57,0,0
0,61,0,0
0,63,0,0
0,57,0,0
0,61,0,0
0,63,0,0
0,46,84,3
0,65,38,0
0,58,78,0
0,61,82,0
0,65,78,0
0,58,74,0
0,61,74,0
0,65,74,0
0,70,74,0
0,73,0,6
0,77,97,0
0,77,0,66
0,53,34,8
0,77,93,0
0,56,36,84
0,77,0,16
0,61,53,80
0,65,0,93
0,58,0,0
0,65,53,3
0,58,55,0
0,60,39,84
0,53,0,9
0,61,0,0
0,61,55,8
0,60,0,28
0,56,0,60
0,65,0,0
0,56,50,3
0,65,54,0
0,77,100,0
0,77,0,45
0,58,0,0
0,75,98,0
0,53,44,0
0,58,56,0
0,75,0,45
0,73,94,0
0,46,0,45
0,65,0,0
0,56,0,0
0,58,0,0
0,61,0,0
0,65,0,0
0,61,0,0
0,70,0,0
0,65,0,0
0,58,0,0
0,39,82,3
0,58,79,0
0,61,80,0
0,66,79,0
0,58,59,0
0,63,83,0
0,68,83,0
0,73,0,1
0,61,0,1
0,75,88,0
0,58,54,92
0,66,76,0
0,75,0,51
0,53,0,42
0,61,59,3
0,61,68,0
0,63,0,8
0,58,0,82
0,66,67,6
0,58,64,0
0,56,26,81
0,58,0,12
0,61,0,0
0,58,49,3
0,61,50,0
0,56,0,18
0,77,103,0
0,56,37,3
0,61,80,1
0,66,84,3
0,35,113,3
0,47,70,0
0,63,59,0
0,59,78,0
0,63,82,0
0,66,79,0
0,63,76,9
0,61,47,77
0,61,68,0
0,63,0,12
0,59,76,81
0,59,49,3
0,61,0,4
0,61,0,33
0,77,0,31
0,75,75,0
0,61,41,25
0,54,58,0
0,59,0,16
0,63,0,4
0,66,55,76
0,61,0,21
0,61,37,0
0,75,0,12
0,44,46,3
0,59,27,0
0,61,0,40
0,61,37,56
0,54,0,38
0,66,0,37
0,61,0,17
0,44,0,1
0,47,0,0
0,59,0,0
0,63,0,0
0,66,0,0
0,44,82,3
0,44,90,0
0,61,51,0
0,61,78,0
0,44,76,0
0,59,0,3
0,66,0,1
0,51,72,92
0,68,81,96
0,58,48,0
0,61,68,96
0,58,0,16
0,61,0,74
0,56,41,6
0,60,40,0
0,56,79,0
0,56,64,0
0,60,64,0
0,61,0,12
0,73,94,0
0,37,96,0
0,37,0,4
0,73,0,37
0,75,96,0
0,75,0,35
0,77,101,0
0,46,57,0
0,46,0,4
0,77,0,26
0,77,96,0
0,51,0,14
0,44,0,2
0,60,0,16
0,56,0,6
0,56,0,1
0,60,0,0
0,44,0,1
0,44,0,0
0,61,0,0
0,68,0,0
0,56,0,0
0,37,111,3
0,56,46,0
0,61,49,0
0,65,48,0
0,35,93,0
0,42,83,0
0,61,61,0
0,56,81,0
0,61,85,0
0,65,83,0
0,65,80,0
0,35,0,4
0,42,0,0
0,42,56,92
0,56,46,0
0,56,77,0
0,42,0,4
0,77,0,17
0,61,0,72
0,65,0,1
0,37,107,2
0,42,74,0
0,61,52,0
0,61,79,0
0,37,0,4
0,42,0,0
0,42,45,92
0,68,61,0
0,63,80,0
0,42,0,4
0,37,0,41
0,37,67,3
0,35,44,0
0,35,0,4
0,63,0,25
0,63,81,5
0,61,0,4
0,61,0,7
0,56,0,0
0,35,74,3
0,42,83,0
0,61,62,0
0,56,67,0
0,61,77,0
0,65,80,0
0,35,0,4
0,42,0,0
0,63,0,15
0,37,0,38
0,56,0,36
0,37,109,3
0,35,82,0
0,42,56,0
0,56,41,0
0,35,0,4
0,42,0,0
0,61,0,89
0,37,107,3
0,42,73,0
0,61,53,0
0,37,0,4
0,42,0,0
0,73,111,0
0,73,0,41
0,75,96,0
0,37,0,2
0,68,0,0
0,56,0,2
0,32,109,1
0,42,45,0
0,68,61,0
0,56,74,0
0,61,0,2
0,65,0,0
0,42,0,2
0,56,0,0
0,65,0,3
0,61,0,25
0,75,0,3
0,77,103,0
0,56,0,3
0,32,0,44
0,56,0,0
0,61,0,0
0,65,0,0
0,77,0,0
0,61,0,0
0,37,109,0
0,57,47,0
0,61,51,0
0,66,50,0
0,78,107,0
0,35,94,0
0,42,83,0
0,61,61,0
0,57,80,0
0,61,84,0
0,66,81,0
0,57,76,0
0,35,0,4
0,42,0,0
0,78,0,71
0,56,0,18
0,68,0,0
0,42,56,3
0,57,46,0
0,61,73,0
0,78,102,0
0,42,0,3
0,78,0,41
0,77,91,0
0,77,0,43
0,61,0,2
0,78,101,0
0,37,107,2
0,42,74,0
0,61,52,0
0,66,75,0
0,37,0,4
0,42,0,0
0,78,0,37
0,77,91,0
0,57,0,23
0,77,0,23
0,78,98,0
0,42,45,2
0,68,61,0
0,73,83,0
0,57,73,0
0,42,0,4
0,78,0,34
0,77,91,0
0,35,44,6
0,35,0,4
0,77,0,38
0,61,0,3
0,78,104,0
0,35,74,0
0,42,83,0
0,61,62,0
0,35,0,4
0,42,0,0
0,61,0,46
0,78,0,32
0,77,91,0
0,57,0,3
0,35,82,3
0,42,56,0
0,57,41,0
0,61,72,0
0,35,0,4
0,42,0,0
0,66,0,13
0,77,0,29
0,75,100,0
0,37,107,47
0,42,73,0
0,66,64,0
0,69,81,0
0,66,79,0
0,37,0,4
0,42,0,0
0,75,0,37
0,73,91,0
0,57,0,1
0,57,0,37
0,66,0,2
0,61,0,6
0,37,0,3
0,68,0,0
0,61,0,0
0,32,109,3
0,46,56,0
0,61,49,0
0,57,71,0
0,46,0,4
0,73,0,1
0,66,0,45
0,32,0,43
0,57,0,0
0,61,0,0
0,66,0,0
0,73,0,0
0,61,0,0
0,57,0,0
0,37,111,0
0,56,46,0
0,61,49,0
0,65,48,0
0,77,94,0
0,35,93,0
0,42,83,0
0,61,61,0
0,56,79,0
0,61,81,0
0,65,81,0
0,68,81,0
0,65,79,0
0,69,0,2
0,35,0,2
0,42,0,0
0,61,0,44
0,57,0,45
0,66,0,0
0,42,56,3
0,56,46,0
0,56,77,0
0,42,0,4
0,77,0,65
0,61,0,24
0,37,107,3
0,42,74,0
0,61,52,0
0,61,77,0
0,37,0,4
0,42,0,0
0,65,0,17
0,68,0,53
0,42,45,22
0,68,61,0
0,63,76,0
0,42,0,4
0,56,0,24
0,37,0,17
0,37,67,3
0,35,44,0
0,35,0,4
0,61,0,30
0,61,0,11
0,35,74,3
0,42,83,0
0,61,62,0
0,56,74,0
0,35,0,4
0,42,0,0
0,37,0,53
0,56,0,36
0,63,0,0
0,37,109,3
0,35,82,0
0,42,56,0
0,56,41,0
0,61,73,0
0,35,0,4
0,42,0,0
0,61,0,89
0,37,107,3
0,42,73,0
0,61,53,0
0,65,78,0
0,37,0,4
0,42,0,0
0,37,0,89
0,68,0,0
0,75,101,0
0,32,109,2
0,42,45,0
0,68,61,0
0,42,0,4
0,75,0,37
0,77,103,0
0,56,0,38
0,77,0,7
0,32,0,1
0,56,0,0
0,61,0,0
0,65,0,0
0,61,0,0
0,56,0,0
0,61,0,0
0,65,0,0
0,37,109,3
0,57,47,0
0,61,51,0
0,66,50,0
0,35,94,0
0,42,83,0
0,61,61,0
0,57,84,0
0,61,84,0
0,66,82,0
0,57,74,0
0,78,109,0
0,35,0,0
0,42,0,0
0,61,0,27
0,65,0,31
0,78,0,26
0,77,95,0
0,56,0,2
0,68,0,0
0,42,56,3
0,57,46,0
0,61,65,0
0,42,0,4
0,77,0,45
0,78,109,0
0,61,0,41
0,37,107,3
0,42,74,0
0,61,52,0
0,66,77,0
0,37,0,4
0,42,0,0
0,77,97,0
0,42,45,2
0,66,61,0
0,57,74,0
0,42,0,4
0,35,44,44
0,77,0,3
0,35,0,1
0,80,103,0
0,61,0,39
0,35,74,3
0,42,83,0
0,61,62,0
0,68,80,0
0,35,0,4
0,42,0,0
0,80,0,54
0,78,104,0
0,57,0,9
0,57,0,23
0,35,82,3
0,42,56,0
0,57,41,0
0,57,72,0
0,35,0,4
0,42,0,0
0,78,0,18
0,77,97,0
0,66,0,11
0,66,0,52
0,77,0,3
0,37,107,0
0,42,73,0
0,63,64,0
0,66,76,0
0,37,0,4
0,42,0,0
0,75,102,0
0,68,0,18
0,75,0,52
0,73,90,0
0,37,0,7
0,61,0,0
0,32,109,3
0,46,56,0
0,61,49,0
0,46,0,4
0,73,0,54
0,57,0,1
0,61,0,2
0,66,0,2
0,77,96,0
0,57,0,14
0,61,0,0
0,66,0,0
0,32,0,12
0,57,0,0
0,61,0,0
0,66,0,0
0,63,0,0
0,61,0,0
0,34,109,3
0,58,49,0
0,61,51,0
0,65,49,0
0,35,93,0
0,42,83,0
0,65,61,0
0,58,86,0
0,61,85,0
0,65,86,0
0,61,75,0
0,65,78,0
0,70,76,0
0,35,0,4
0,42,0,0
0,57,0,89
0,42,56,3
0,58,46,0
0,53,75,0
0,42,0,4
0,77,0,48
0,37,107,44
0,42,74,0
0,61,52,0
0,58,72,0
0,37,0,4
0,42,0,0
0,61,0,19
0,70,0,13
0,65,0,47
0,65,0,10
0,42,45,3
0,65,61,0
0,61,73,0
0,42,0,4
0,53,0,10
0,35,44,34
0,35,0,4
0,34,0,41
0,58,0,0
0,46,77,0
0,35,74,0
0,42,83,0
0,70,62,0
0,58,83,0
0,65,79,0
0,35,0,4
0,42,0,0
0,58,0,15
0,35,82,3
0,42,56,0
0,65,41,0
0,35,0,4
0,42,0,0
0,61,0,89
0,37,107,3
0,42,73,0
0,61,53,0
0,37,0,4
0,42,0,0
0,75,99,0
0,58,0,2
0,42,45,3
0,58,42,0
0,70,84,0
0,73,84,0
0,73,98,0
0,32,109,1
0,56,50,0
0,63,52,0
0,68,45,0
0,72,50,0
0,35,94,0
0,42,83,0
0,60,53,0
0,56,80,0
0,63,83,0
0,68,87,0
0,72,87,0
0,65,75,0
0,68,78,0
0,35,0,4
0,42,0,0
0,75,97,0
0,65,0,88
0,58,0,0
0,42,56,3
0,65,46,0
0,60,77,0
0,42,0,4
0,65,0,76
0,75,0,6
0,68,0,5
0,37,107,5
0,42,74,0
0,68,64,0
0,75,74,0
0,65,78,0
0,37,0,4
0,42,0,0
0,35,44,92
0,42,45,0
0,72,46,0
0,68,81,0
0,35,0,4
0,42,0,0
0,68,0,60
0,72,0,0
0,32,0,29
0,68,0,0
0,44,74,0
0,35,74,0
0,42,83,0
0,68,52,0
0,72,81,0
0,35,0,4
0,42,0,0
0,77,123,0
0,65,0,1
0,63,0,0
0,35,82,3
0,42,56,0
0,65,46,0
0,63,85,0
0,35,0,4
0,42,0,0
0,37,107,3
0,42,73,0
0,60,64,0
0,68,85,0
0,37,0,4
0,42,0,0
0,46,56,3
0,56,49,0
0,63,82,0
0,30,113,1
0,54,50,0
0,61,50,0
0,66,50,0
0,68,50,0
0,70,50,0
0,35,93,0
0,42,83,0
0,61,66,0
0,54,82,0
0,61,83,0
0,66,79,0
0,70,81,0
0,66,79,0
0,68,81,0
0,73,82,0
0,77,0,2
0,35,0,2
0,42,0,0
0,80,109,0
0,80,0,84
0,77,110,0
0,42,56,1
0,66,63,0
0,56,73,0
0,42,0,4
0,77,0,37
0,75,105,0
0,37,107,2
0,42,74,0
0,68,66,0
0,61,69,0
0,37,0,4
0,42,0,0
0,66,0,19
0,61,0,70
0,35,44,3
0,42,45,0
0,73,62,0
0,61,82,0
0,66,78,0
0,35,0,4
0,42,0,0
0,61,0,11
0,30,0,78
0,68,0,0
0,66,0,0
0,70,0,0
0,30,108,3
0,35,74,0
0,42,83,0
0,68,64,0
0,63,80,0
0,68,82,0
0,61,74,0
0,75,0,2
0,35,0,2
0,42,0,0
0,30,100,3
0,35,82,0
0,42,56,0
0,66,63,0
0,61,84,0
0,56,72,0
0,35,0,4
0,42,0,0
0,61,0,23
0,30,0,66
0,61,0,0
0,63,0,0
0,68,0,0
0,30,107,3
0,35,82,0
0,42,73,0
0,61,62,0
0,66,84,0
0,61,73,0
0,35,0,4
0,42,0,0
0,68,0,41
0,68,0,13
