track,note,velocity,time
1,35,98,384
1,37,99,4
1,35,98,4
1,33,98,4
1,26,96,4
1,26,96,4
1,26,96,4
1,26,96,4
1,28,97,4
1,28,97,4
1,28,96,4
1,28,97,4
1,30,99,4
1,30,97,4
1,30,97,4
1,30,98,4
1,28,96,4
1,28,96,4
1,35,97,4
1,37,99,4
1,35,96,4
1,33,98,4
1,26,97,4
1,26,95,4
1,26,96,4
1,26,96,4
1,28,97,4
1,28,97,4
1,28,97,4
1,28,96,4
1,30,99,4
1,30,99,4
1,30,98,4
1,30,98,4
1,28,97,4
1,28,97,4
1,28,96,4
1,28,97,4
1,26,97,4
1,26,96,4
1,26,96,4
1,26,96,4
1,28,96,4
1,28,97,4
1,28,96,4
1,28,96,4
1,30,99,4
1,30,98,4
1,30,99,4
1,30,97,4
1,28,97,4
1,28,96,4
1,28,96,4
1,28,97,4
1,26,96,4
1,26,96,4
1,26,96,4
1,26,97,4
1,28,96,4
1,28,96,4
1,28,96,4
1,28,96,4
1,30,98,4
1,30,97,4
1,30,97,4
1,30,97,4
1,28,97,4
1,28,97,4
1,28,96,4
1,28,96,4
1,26,97,4
1,26,96,4
1,26,96,4
1,26,96,4
1,28,96,4
1,28,97,4
1,28,96,4
1,28,96,4
1,30,99,4
1,30,98,4
1,30,99,4
1,30,97,4
1,28,97,4
1,28,96,4
1,28,96,4
1,28,97,4
1,26,96,4
1,26,96,4
1,26,96,4
1,26,97,4
1,28,96,4
1,28,96,4
1,28,96,4
1,28,96,4
1,30,98,4
1,30,97,4
1,30,97,4
1,30,97,4
1,28,97,4
1,28,97,4
1,28,96,4
1,28,96,4
1,33,114,4
1,33,101,196
1,28,94,4
1,30,118,4
1,33,109,4
1,30,114,4
1,26,98,4
1,26,109,4
1,25,114,4
1,26,109,4
1,33,114,196
1,33,101,196
1,28,94,4
1,30,118,4
1,33,109,4
1,30,114,4
1,26,98,4
1,26,109,4
1,25,114,4
1,26,109,4
1,30,114,196
1,30,109,4
1,30,105,196
1,30,94,4
1,30,90,4
1,28,94,4
1,28,90,4
1,28,94,196
1,28,94,4
1,28,62,4
1,26,118,4
1,26,94,4
1,26,81,4
1,26,81,4
1,26,90,4
1,26,98,4
1,26,72,192
1,38,109,0
1,26,90,4
1,38,109,4
1,26,105,4
1,26,97,4
1,26,96,4
1,26,96,4
1,26,96,4
1,28,96,4
1,28,97,4
1,28,96,4
1,28,96,4
1,30,99,4
1,30,98,4
1,30,99,4
1,30,97,4
1,28,97,4
1,28,96,4
1,28,96,4
1,28,97,4
1,26,96,4
1,26,96,4
1,26,96,4
1,26,97,4
1,28,96,4
1,28,96,4
1,28,96,4
1,28,96,4
1,30,98,4
1,30,97,4
1,30,97,4
1,30,97,4
1,28,97,4
1,28,97,4
1,28,96,4
1,28,96,4
1,26,97,4
1,26,96,4
1,26,96,4
1,26,96,4
1,28,96,4
1,28,97,4
1,28,96,4
1,28,96,4
1,30,99,4
1,30,98,4
1,30,99,4
1,30,97,4
1,28,97,4
1,28,96,4
1,28,96,4
1,28,97,4
1,26,96,4
1,26,96,4
1,26,96,4
1,26,97,4
1,28,96,4
1,28,96,4
1,28,96,4
1,28,96,4
1,30,98,4
1,30,97,4
1,30,97,4
1,30,97,4
1,28,97,4
1,28,97,4
1,28,96,4
1,28,96,4
1,26,97,4
1,26,96,4
1,26,96,4
1,26,96,4
1,28,96,4
1,28,97,4
1,28,96,4
1,28,96,4
1,30,99,4
1,30,98,4
1,30,99,4
1,30,97,4
1,28,97,4
1,28,96,4
1,28,96,4
1,28,97,4
1,26,96,4
1,26,96,4
1,26,96,4
1,26,97,4
1,28,96,4
1,28,96,4
1,28,96,4
1,28,96,4
1,30,98,4
1,30,97,4
1,30,97,4
1,30,97,4
1,28,97,4
1,28,97,4
1,28,96,4
1,28,96,4
1,33,114,4
1,33,101,196
1,28,94,4
1,30,118,4
1,33,109,4
1,30,114,4
1,26,98,4
1,26,109,4
1,25,114,4
1,26,109,4
1,33,114,196
1,33,101,196
1,28,94,4
1,30,118,4
1,33,109,4
1,30,114,4
1,26,98,4
1,26,109,4
1,25,114,4
1,26,109,4
1,30,114,196
1,30,109,4
1,30,105,196
1,30,94,4
1,30,90,4
1,28,94,4
1,28,90,4
1,28,94,196
1,28,94,4
1,28,62,4
1,26,118,4
1,26,94,4
1,26,81,4
1,26,81,4
1,26,90,4
1,26,98,4
1,26,72,4
1,26,109,4
1,26,90,4
1,26,109,4
1,26,105,4
1,26,97,4
1,26,96,4
1,26,96,4
1,26,96,4
1,28,96,4
1,28,97,4
1,28,96,4
1,28,96,4
1,30,99,4
1,30,98,4
1,30,99,4
1,30,97,4
1,28,97,4
1,28,96,4
1,28,96,4
1,28,97,4
1,26,96,4
1,26,96,4
1,26,96,4
1,26,97,4
1,28,96,4
1,28,96,4
1,28,96,4
1,28,96,4
1,30,98,4
1,30,97,4
1,30,97,4
1,30,97,4
1,28,97,4
1,28,97,4
1,28,96,4
1,28,96,4
1,26,97,4
1,26,96,4
1,26,96,4
1,26,96,4
1,28,96,4
1,28,97,4
1,28,96,4
1,28,96,4
1,30,99,4
1,30,98,4
1,30,99,4
1,30,97,4
1,28,97,4
1,28,96,4
1,28,96,4
1,28,97,4
1,26,96,4
1,26,96,4
1,26,96,4
1,26,97,4
1,28,96,4
1,28,96,4
1,28,96,4
1,28,96,4
1,30,98,4
1,30,97,4
1,30,97,4
1,30,97,4
1,28,97,4
1,28,97,4
1,28,96,4
1,28,96,4
1,33,114,4
1,33,101,196
1,28,94,4
1,30,118,4
1,33,109,4
1,30,114,4
1,26,98,4
1,26,109,4
1,25,114,4
1,26,109,4
1,33,114,196
1,33,101,196
1,28,94,4
1,30,118,4
1,33,109,4
1,30,114,4
1,26,98,4
1,26,109,4
1,25,114,4
1,26,109,4
1,30,114,196
1,30,109,4
1,30,105,196
1,30,94,4
1,30,90,4
1,28,94,4
1,28,90,4
1,28,94,196
1,28,94,4
1,28,62,4
1,26,118,4
1,26,94,4
1,26,81,4
1,26,81,4
1,26,90,4
1,26,98,4
1,26,72,192
1,38,109,0
1,26,90,4
1,38,109,4
1,26,105,4
1,26,97,4
1,26,96,4
1,26,96,4
1,26,96,4
1,28,96,4
1,28,97,4
1,28,96,4
1,28,96,4
1,30,99,4
1,30,98,4
1,30,99,4
1,30,97,4
1,28,97,4
1,28,96,4
1,28,96,4
1,28,97,4
1,26,96,4
1,26,96,4
1,26,96,4
1,26,97,4
1,28,96,4
1,28,96,4
1,28,96,4
1,28,96,4
1,30,98,4
1,30,97,4
1,30,97,4
1,30,97,4
1,28,97,4
1,28,97,4
1,28,96,4
1,28,96,4
1,26,97,4
1,26,96,4
1,26,96,4
1,26,96,4
1,28,96,4
1,28,97,4
1,28,96,4
1,28,96,4
1,30,99,4
1,30,98,4
1,30,99,4
1,30,97,4
1,28,97,4
1,28,96,4
1,28,96,4
1,28,97,4
1,26,96,4
1,26,96,4
1,26,96,4
1,26,97,4
1,28,96,4
1,28,96,4
1,28,96,4
1,28,96,4
1,30,98,4
1,30,97,4
1,30,97,4
1,30,97,4
1,28,97,4
1,28,97,4
1,28,96,4
1,28,96,4
1,26,97,4
1,26,96,4
1,26,96,4
1,26,96,4
1,28,96,4
1,28,97,4
1,28,96,4
1,28,96,4
1,30,99,4
1,30,98,4
1,30,99,4
1,30,97,4
1,28,97,4
1,28,96,4
1,28,96,4
1,28,97,4
1,26,96,4
1,26,96,4
1,26,96,4
1,26,97,4
1,28,96,4
1,28,96,4
1,28,96,4
1,28,96,4
1,30,98,4
1,30,97,4
1,30,97,4
1,30,97,4
1,28,97,4
1,28,97,4
1,28,96,4
1,28,96,4
1,33,114,4
1,33,101,196
1,28,94,4
1,30,118,4
1,33,109,4
1,30,114,4
1,26,98,4
1,26,109,4
1,25,114,4
1,26,109,4
1,33,114,196
1,33,101,196
1,28,94,4
1,30,118,4
1,33,109,4
1,30,114,4
1,26,98,4
1,26,109,4
1,25,114,4
1,26,109,4
1,30,114,196
1,30,109,4
1,30,105,196
1,30,94,4
1,30,90,4
1,28,94,4
1,28,90,4
1,28,94,196
1,28,94,4
1,28,62,4
1,26,118,4
1,26,94,4
1,26,81,4
1,26,81,4
1,26,90,4
1,26,98,4
1,26,72,192
1,38,109,0
1,26,90,4
1,38,109,4
1,26,105,4
1,26,97,4
1,26,96,4
1,26,96,4
1,26,96,4
1,28,96,4
1,28,97,4
1,28,96,4
1,28,96,4
1,30,99,4
1,30,98,4
1,30,99,4
1,30,97,4
1,28,97,4
1,28,96,4
1,28,96,4
1,28,97,4
1,26,96,4
1,26,96,4
1,26,96,4
1,26,97,4
1,28,96,4
1,28,96,4
1,28,96,4
1,28,96,4
1,30,98,4
1,30,97,4
1,30,97,4
1,30,97,4
1,28,97,4
1,28,97,4
1,28,96,4
1,28,96,4
1,26,97,4
1,26,96,4
1,26,96,4
1,26,96,4
1,28,96,4
1,28,97,4
1,28,96,4
1,28,96,4
1,30,99,4
1,30,98,4
1,30,99,4
1,30,97,4
1,28,97,4
1,28,96,4
1,28,96,4
1,28,97,4
1,26,96,4
1,26,96,4
1,26,96,4
1,26,97,4
1,28,96,4
1,28,96,4
1,28,96,4
1,28,96,4
1,30,98,4
1,30,97,4
1,30,97,4
1,30,97,4
1,28,97,4
1,28,97,4
1,35,96,4
1,37,96,4
1,35,96,4
1,33,96,4
1,26,97,4
2,50,80,13440
2,57,80,192
2,62,80,4
2,57,80,192
2,64,80,4
2,52,80,4
2,64,80,192
2,59,80,4
2,54,80,388
2,57,80,4
2,54,80,192
2,61,80,4
2,52,80,4
2,64,80,192
2,59,80,4
2,50,80,196
2,57,80,192
2,62,80,4
2,57,80,192
2,64,80,4
2,52,80,4
2,64,80,192
2,59,80,4
2,54,80,388
2,57,80,4
2,54,80,192
2,61,80,4
2,52,80,4
2,64,80,192
2,59,80,4
2,50,80,24772
2,57,80,192
2,62,80,4
2,57,80,192
2,64,80,4
2,52,80,4
2,64,80,192
2,59,80,4
2,54,80,388
2,57,80,4
2,54,80,192
2,61,80,4
2,52,80,4
2,64,80,192
2,59,80,4
2,50,80,196
2,57,80,192
2,62,80,4
2,57,80,192
2,64,80,4
2,52,80,4
2,64,80,192
2,59,80,4
2,54,80,388
2,57,80,4
2,54,80,192
2,61,80,4
2,52,80,4
2,64,80,192
2,59,80,4
2,50,80,196
2,57,80,192
2,62,80,4
2,57,80,192
2,64,80,4
2,52,80,4
2,64,80,192
2,59,80,4
2,54,80,388
2,57,80,4
2,54,80,192
2,61,80,4
2,52,80,4
2,64,80,192
2,59,80,4
2,50,80,196
2,57,80,192
2,62,80,4
2,57,80,192
2,64,80,4
2,52,80,4
2,64,80,192
2,59,80,4
2,54,80,388
2,57,80,4
2,54,80,192
2,61,80,4
2,52,80,4
2,64,80,192
2,59,80,4
2,50,80,61636
2,57,80,192
2,62,80,4
2,57,80,192
2,64,80,4
2,52,80,4
2,64,80,192
2,59,80,4
2,54,80,388
2,57,80,4
2,54,80,192
2,61,80,4
2,52,80,4
2,64,80,192
2,59,80,4
2,50,80,196
2,57,80,192
2,62,80,4
2,57,80,192
2,64,80,4
2,52,80,4
2,64,80,192
2,59,80,4
2,54,80,388
2,57,80,4
2,54,80,192
2,61,80,4
2,52,80,4
2,64,80,192
2,59,80,4
2,50,80,196
2,57,80,192
2,62,80,4
2,57,80,192
2,64,80,4
2,52,80,4
2,64,80,192
2,59,80,4
2,54,80,388
2,57,80,4
2,54,80,192
2,61,80,4
2,52,80,4
2,64,80,192
2,59,80,4
2,50,80,196
2,57,80,192
2,62,80,4
2,57,80,192
2,64,80,4
2,52,80,4
2,64,80,192
2,59,80,4
2,54,80,388
2,57,80,4
2,54,80,192
2,61,80,4
2,52,80,4
2,64,80,192
2,59,80,4
2,50,80,24772
2,57,80,192
2,62,80,4
2,57,80,192
2,64,80,4
2,52,80,4
2,64,80,192
2,59,80,4
2,54,80,388
2,57,80,4
2,54,80,192
2,61,80,4
2,52,80,4
2,64,80,192
2,59,80,4
2,50,80,196
2,57,80,192
2,62,80,4
2,57,80,192
2,64,80,4
2,52,80,4
2,64,80,192
2,59,80,4
2,54,80,388
2,57,80,4
2,54,80,192
2,61,80,4
2,52,80,4
2,64,80,192
2,59,80,4
3,47,90,384
3,49,84,4
3,47,69,4
3,45,87,4
3,50,86,4
3,45,82,0
3,57,70,384
3,54,76,0
3,47,84,4
3,52,84,0
3,59,70,576
3,56,76,0
3,54,87,4
3,49,85,0
3,61,70,384
3,57,76,0
3,52,84,4
3,47,83,0
3,59,70,576
3,56,76,0
3,50,86,4
3,45,82,0
3,57,70,384
3,54,76,0
3,47,84,4
3,52,84,0
3,59,70,576
3,56,76,0
3,54,87,4
3,49,85,0
3,61,70,384
3,57,76,0
3,52,84,4
3,47,83,0
3,59,70,576
3,56,76,0
3,50,74,4
3,45,68,0
3,50,76,138
3,45,70,0
3,50,75,142
3,45,69,0
3,50,75,138
3,45,70,0
3,50,75,138
3,45,70,0
3,50,75,142
3,45,69,0
3,50,77,142
3,45,72,0
3,52,73,128
3,47,74,0
3,45,73,0
3,47,63,356
3,52,63,0
3,52,69,152
3,52,70,154
3,47,62,0
3,52,74,148
3,47,69,0
3,52,74,142
3,47,72,0
3,47,72,142
3,52,73,0
3,49,76,122
3,49,70,142
3,54,67,0
3,54,73,152
3,49,76,0
3,54,73,132
3,49,77,0
3,54,72,128
3,49,76,0
3,49,79,138
3,54,75,0
3,49,79,132
3,54,73,0
3,47,73,120
3,52,75,0
3,49,71,0
3,52,63,304
3,52,64,168
3,52,72,168
3,47,65,0
3,52,73,148
3,47,68,0
3,52,75,144
3,47,69,0
3,52,74,142
3,47,70,0
3,50,76,138
3,45,74,0
3,50,73,138
3,50,74,154
3,45,69,0
3,50,75,144
3,45,70,0
3,50,76,142
3,45,72,0
3,50,76,136
3,45,70,0
3,50,77,142
3,45,73,0
3,52,76,132
3,47,73,0
3,52,70,260
3,52,73,352
3,47,69,0
3,52,73,142
3,47,69,0
3,52,73,136
3,47,69,0
3,47,71,138
3,52,74,0
3,54,79,122
3,49,73,0
3,49,70,138
3,54,73,142
3,49,74,0
3,49,74,122
3,54,71,0
3,49,75,128
3,54,73,0
3,49,74,132
3,54,73,0
3,49,76,136
3,54,73,0
3,47,72,126
3,52,74,0
3,52,71,324
3,47,65,0
3,52,70,154
3,47,63,0
3,52,71,154
3,47,62,0
3,52,72,144
3,47,62,0
3,52,72,144
3,47,65,0
3,52,73,144
3,47,68,0
3,50,86,142
3,45,82,0
3,57,70,384
3,54,76,0
3,47,84,4
3,52,84,0
3,59,70,576
3,56,76,0
3,54,87,4
3,49,85,0
3,61,70,384
3,57,76,0
3,52,84,4
3,47,83,0
3,59,70,576
3,56,76,0
3,50,86,4
3,45,82,0
3,57,70,384
3,54,76,0
3,47,84,4
3,52,84,0
3,59,70,576
3,56,76,0
3,54,87,4
3,49,85,0
3,61,70,384
3,57,76,0
3,52,84,4
3,47,83,0
3,59,70,576
3,56,76,0
3,69,70,4
3,57,70,0
3,68,70,4
3,56,70,0
3,66,70,4
3,54,70,0
3,64,70,196
3,52,70,0
3,66,70,4
3,54,70,0
3,64,70,4
3,52,70,0
3,62,70,4
3,50,70,0
3,61,70,4
3,49,70,0
3,59,70,196
3,47,70,0
3,61,70,4
3,49,70,0
3,69,70,4
3,57,70,0
3,71,70,4
3,59,70,0
3,69,70,4
3,57,70,0
3,50,74,12292
3,45,68,0
3,50,76,138
3,45,70,0
3,50,75,142
3,45,69,0
3,50,75,138
3,45,70,0
3,50,75,138
3,45,70,0
3,50,75,142
3,45,69,0
3,50,77,142
3,45,72,0
3,52,73,128
3,47,74,0
3,45,73,0
3,47,63,356
3,52,63,0
3,52,69,152
3,52,70,154
3,47,62,0
3,52,74,148
3,47,69,0
3,52,74,142
3,47,72,0
3,47,72,142
3,52,73,0
3,49,76,122
3,49,70,142
3,54,67,0
3,54,73,152
