track,note,velocity,time
3,70,100,4560
3,70,0,59
3,70,100,1
3,70,0,59
3,69,100,1
3,69,0,118
3,67,100,4
3,65,100,58
3,67,0,1
3,65,0,117
3,67,100,2
3,67,0,118
3,62,100,2
3,62,0,59
3,65,100,1
3,65,0,59
3,67,100,1
3,67,0,118
3,65,105,5
3,65,0,67
3,65,109,49
3,65,0,110
3,62,113,9
3,62,0,96
3,60,107,26
3,60,0,112
3,58,111,4
3,58,0,191
3,70,100,353
3,70,0,59
3,70,100,1
3,70,0,59
3,69,100,1
3,69,0,59
3,67,100,1
3,67,0,59
3,65,100,1
3,65,0,59
3,67,100,1
3,67,0,59
3,65,100,3
3,67,100,58
3,65,0,1
3,67,0,58
3,62,100,121
3,62,0,59
3,63,100,1
3,63,0,59
3,65,100,1
3,65,0,59
3,65,100,1
3,65,0,59
3,67,100,1
3,67,0,59
3,65,100,1
3,65,0,59
3,65,100,1
3,65,0,118
3,67,100,2
3,67,0,59
3,70,100,1
3,70,0,59
3,70,100,1
3,70,0,59
3,70,100,1
3,70,0,59
3,65,100,3
3,67,100,58
3,65,0,1
3,67,0,177
3,70,100,362
3,70,0,59
3,69,100,1
3,69,0,59
3,69,100,1
3,69,0,59
3,67,100,1
3,67,0,118
3,67,100,2
3,67,0,59
3,65,100,3
3,67,100,58
3,65,0,1
3,67,0,58
3,62,100,123
3,62,0,55
3,63,100,2
3,63,0,57
3,65,100,4
3,65,0,58
3,67,100,1
3,67,0,118
3,65,100,63
3,65,0,50
3,65,100,8
3,65,0,55
3,62,100,66
3,62,0,142
3,62,100,38
3,62,0,29
3,60,100,1
3,60,0,24
3,58,100,5
3,58,0,118
3,58,100,364
3,58,0,59
3,67,100,1
3,67,0,59
3,70,100,1
3,70,0,59
3,70,100,1
3,70,0,59
3,67,100,1
3,67,0,59
3,70,100,1
3,70,0,118
3,72,100,4
3,72,0,118
3,67,100,0
3,67,0,59
3,67,100,1
3,67,0,59
3,65,100,1
3,65,0,118
3,65,100,62
3,65,0,59
3,67,100,1
3,67,0,59
3,65,100,1
3,65,0,57
3,65,100,3
3,65,0,59
3,67,100,3
3,67,0,178
3,70,100,60
3,70,0,59
3,74,100,1
3,74,0,59
3,75,100,1
3,75,0,59
3,74,100,1
3,74,0,59
3,70,100,1
3,70,0,59
3,67,100,1
3,67,0,118
3,65,100,2
3,65,0,59
3,72,100,1
3,72,0,480
3,74,100,0
3,74,0,29
3,72,100,1
3,72,0,29
3,70,100,1
3,70,0,118
3,70,100,182
3,70,0,118
3,70,100,2
3,70,0,59
3,72,100,1
3,72,0,59
3,67,100,1
3,67,0,59
3,67,100,1
3,67,0,59
3,65,100,1
3,65,0,59
3,65,100,1
3,65,0,118
3,74,100,62
3,74,0,59
3,72,100,1
3,72,0,59
3,72,100,1
3,72,0,59
3,70,100,1
3,70,0,59
3,70,100,1
3,70,0,118
3,62,100,2
3,62,0,59
3,67,100,1
3,67,0,59
3,69,100,1
3,69,0,59
3,70,100,3
3,70,0,118
3,69,100,3
3,69,0,59
3,67,100,0
3,67,0,55
3,67,100,5
3,67,0,118
3,65,100,0
3,65,0,59
3,62,100,1
3,62,0,178
3,72,100,64
3,72,0,237
3,74,100,1
3,74,0,29
3,72,100,1
3,72,0,29
3,70,100,4
3,70,0,237
3,72,100,242
3,72,0,57
3,72,100,1
3,72,0,59
3,72,100,1
3,72,0,59
3,70,100,1
3,70,0,59
3,74,100,1
3,74,0,59
3,67,100,1
3,67,0,59
3,67,100,1
3,67,0,59
3,70,100,3
3,70,0,116
3,72,100,2
3,72,0,59
3,72,100,361
3,72,0,59
3,72,100,1
3,72,0,59
3,72,100,1
3,72,0,59
3,70,100,3
3,74,100,58
3,70,0,1
3,74,0,58
3,67,100,1
3,67,0,59
3,67,100,1
3,67,0,59
3,65,100,3
3,65,0,118
3,67,100,0
3,67,0,59
3,62,100,661
3,62,0,59
3,67,100,1
3,67,0,59
3,69,100,1
3,69,0,59
3,70,100,3
3,70,0,115
3,69,100,5
3,69,0,59
3,67,100,1
3,67,0,59
3,67,100,1
3,67,0,118
3,65,100,2
3,65,0,59
3,62,100,1
3,62,0,178
3,74,100,64
3,74,0,237
3,70,100,61
3,70,0,237
3,74,100,63
3,74,0,118
3,75,100,2
3,75,0,59
3,74,100,1
3,74,0,59
3,74,100,1
3,74,0,59
3,72,100,1
3,72,0,59
3,72,100,1
3,72,0,118
3,70,100,2
3,70,0,59
3,74,100,1
3,74,0,118
3,62,100,302
3,62,0,59
3,70,100,3
3,70,0,115
3,69,100,3
3,69,0,59
3,69,100,1
3,69,0,59
3,70,100,1
3,70,0,59
3,69,100,1
3,69,0,59
3,67,100,1
3,67,0,59
3,65,100,1
3,65,0,59
3,67,100,1
3,67,0,356
3,70,100,1204
3,70,0,237
3,70,100,3
3,70,0,59
3,70,100,1
3,70,0,59
3,69,100,1
3,69,0,118
3,67,100,2
3,67,0,59
3,65,100,1
3,65,0,59
3,62,100,1
3,62,0,59
3,65,100,1
3,65,0,118
3,62,100,2
3,62,0,59
3,60,100,1
3,60,0,118
3,60,100,2
3,60,0,59
3,58,100,1
3,58,0,178
3,65,100,302
3,65,0,59
3,70,100,1
3,70,0,118
3,70,100,2
3,70,0,59
3,67,100,1
3,67,0,59
3,70,100,1
3,70,0,59
3,72,100,1
3,72,0,118
3,67,100,2
3,67,0,59
3,67,100,1
3,67,0,120
3,62,100,0
3,62,0,59
3,63,100,1
3,63,0,59
3,65,100,1
3,65,0,59
3,67,100,1
3,67,0,59
3,65,100,1
3,65,0,118
3,65,100,2
3,65,0,59
3,67,100,1
3,67,0,118
3,70,100,2
3,70,0,118
3,72,100,2
3,72,0,118
3,74,100,2
3,74,0,59
3,75,100,361
3,75,0,118
3,74,100,2
3,74,0,118
3,72,100,2
3,72,0,59
3,70,100,1
3,70,0,118
3,72,100,2
3,72,0,59
3,70,100,1
3,70,0,59
3,74,100,1
3,74,0,178
3,72,100,62
3,72,0,59
3,70,100,1
3,70,0,59
3,69,100,1
3,69,0,59
3,67,100,1
3,67,0,118
3,65,100,2
3,65,0,59
3,62,100,1
3,62,0,59
3,65,100,1
3,65,0,118
3,67,100,2
3,67,0,59
3,60,100,1
3,60,0,118
3,58,100,2
3,58,0,178
3,58,100,302
3,58,0,59
3,67,100,1
3,67,0,118
3,67,100,2
3,67,0,118
3,70,100,2
3,70,0,59
3,72,100,1
3,72,0,118
3,67,100,2
3,67,0,118
3,65,100,2
3,65,0,118
3,67,100,2
3,67,0,59
3,67,100,121
3,67,0,59
3,65,100,1
3,65,0,59
3,65,100,1
3,65,0,118
3,67,100,2
3,67,0,118
3,70,100,62
3,70,0,59
3,74,100,1
3,74,0,59
3,75,100,1
3,75,0,59
3,74,100,1
3,74,0,59
3,70,100,1
3,70,0,59
3,67,100,1
3,67,0,118
3,65,100,2
3,65,0,59
3,72,100,1
3,72,0,480
3,74,100,0
3,74,0,29
3,72,100,1
3,72,0,29
3,70,100,1
3,70,0,118
3,70,100,182
3,70,0,118
3,70,100,2
3,70,0,59
3,72,100,1
3,72,0,59
3,67,100,1
3,67,0,59
3,67,100,1
3,67,0,59
3,65,100,1
3,65,0,59
3,65,100,1
3,65,0,118
3,74,100,62
3,74,0,59
3,72,100,1
3,72,0,59
3,72,100,1
3,72,0,59
3,70,100,1
3,70,0,59
3,70,100,1
3,70,0,118
3,62,100,2
3,62,0,59
3,67,100,1
3,67,0,59
3,69,100,1
3,69,0,59
3,70,100,1
3,70,0,118
3,69,100,2
3,69,0,59
3,67,100,1
3,67,0,59
3,67,100,1
3,67,0,118
3,65,100,2
3,65,0,59
3,62,100,1
3,62,0,178
3,72,100,62
3,72,0,237
3,74,100,3
3,74,0,29
3,72,100,1
3,72,0,29
3,70,100,1
3,70,0,237
3,72,100,243
3,72,0,59
3,72,100,1
3,72,0,59
3,72,100,1
3,72,0,59
3,70,100,1
3,70,0,59
3,74,100,1
3,74,0,59
3,67,100,1
3,67,0,59
3,67,100,1
3,67,0,59
3,70,100,1
3,70,0,118
3,72,100,2
3,72,0,59
3,72,100,361
3,72,0,59
3,72,100,1
3,72,0,59
3,72,100,1
3,72,0,59
3,70,100,1
3,70,0,59
3,74,100,1
3,74,0,59
3,67,100,1
3,67,0,59
3,67,100,1
3,67,0,59
3,65,100,1
3,65,0,118
3,67,100,2
3,67,0,59
3,62,100,661
3,62,0,59
3,67,100,1
3,67,0,59
3,69,100,1
3,69,0,59
3,70,100,1
3,70,0,118
3,69,100,2
3,69,0,59
3,67,100,1
3,67,0,59
3,67,100,1
3,67,0,118
3,65,100,2
3,65,0,59
3,62,100,1
3,62,0,178
3,74,100,62
3,74,0,237
3,70,100,63
3,70,0,237
3,74,100,63
3,74,0,118
3,75,100,2
3,75,0,59
3,74,100,1
3,74,0,59
3,74,100,1
3,74,0,59
3,72,100,1
3,72,0,59
3,72,100,1
3,72,0,118
3,70,100,2
3,70,0,59
3,74,100,1
3,74,0,118
3,62,100,302
3,62,0,59
3,70,100,1
3,70,0,118
3,69,100,2
3,69,0,59
3,69,100,1
3,69,0,59
3,70,100,1
3,70,0,59
3,69,100,1
3,69,0,59
3,67,100,1
3,67,0,59
3,65,100,1
3,65,0,59
3,67,100,1
3,67,0,356
3,70,100,784
3,70,0,59
3,70,100,1
3,70,0,59
3,70,100,1
3,70,0,59
3,69,100,1
3,69,0,59
3,67,100,1
3,67,0,59
3,65,100,1
3,65,0,59
3,62,100,1
3,62,0,59
3,65,100,1
3,65,0,118
3,67,100,2
3,67,0,118
3,67,100,2
3,67,0,118
3,69,100,182
3,69,0,59
3,69,100,1
3,69,0,59
3,70,100,1
3,70,0,59
3,69,100,1
3,69,0,59
3,67,100,1
3,67,0,59
3,65,100,1
3,65,0,118
3,65,100,2
3,65,0,118
3,67,100,2
3,67,0,59
3,67,100,1
3,67,0,59
3,69,100,301
3,69,0,59
3,69,100,1
3,69,0,59
3,70,100,1
3,70,0,59
3,72,100,1
3,72,0,178
3,65,100,2
3,65,0,59
3,65,100,1
3,65,0,118
3,67,100,2
3,67,0,118
3,67,100,2
3,67,0,118
3,69,100,122
3,69,0,59
3,69,100,1
3,69,0,59
3,69,100,1
3,69,0,59
3,70,100,1
3,70,0,59
3,69,100,1
3,69,0,118
3,65,100,2
3,65,0,118
3,72,100,3842
3,72,0,59
3,72,100,1
3,72,0,59
3,70,100,1
3,70,0,59
3,70,100,1
3,70,0,118
3,62,100,2
3,62,0,59
3,67,100,1
3,67,0,59
3,69,100,1
3,69,0,59
3,70,100,1
3,70,0,118
3,69,100,2
3,69,0,59
3,67,100,1
3,67,0,59
3,67,100,1
3,67,0,118
3,65,100,2
3,65,0,59
3,62,100,1
3,62,0,178
3,72,100,62
3,72,0,237
3,74,100,3
3,74,0,29
3,72,100,1
3,72,0,29
3,70,100,1
3,70,0,237
3,72,100,243
3,72,0,59
3,72,100,1
3,72,0,59
3,72,100,1
3,72,0,59
3,70,100,1
3,70,0,59
3,74,100,1
3,74,0,59
3,67,100,1
3,67,0,59
3,67,100,1
3,67,0,59
3,70,100,1
3,70,0,118
3,72,100,2
3,72,0,59
3,72,100,361
3,72,0,59
3,72,100,1
3,72,0,59
3,72,100,1
3,72,0,59
3,70,100,1
3,70,0,59
3,74,100,1
3,74,0,59
3,67,100,1
3,67,0,59
3,67,100,1
3,67,0,59
3,65,100,1
3,65,0,118
3,67,100,2
3,67,0,59
3,62,100,661
3,62,0,59
3,67,100,1
3,67,0,59
3,69,100,1
3,69,0,59
3,70,100,1
3,70,0,118
3,69,100,2
3,69,0,59
3,67,100,1
3,67,0,59
3,67,100,1
3,67,0,118
3,65,100,2
3,65,0,59
3,62,100,1
3,62,0,178
3,74,100,62
3,74,0,237
3,70,100,63
3,70,0,237
3,74,100,63
3,74,0,118
3,75,100,2
3,75,0,59
3,74,100,1
3,74,0,59
3,74,100,1
3,74,0,59
3,72,100,1
3,72,0,59
3,72,100,1
3,72,0,118
3,70,100,2
3,70,0,59
3,74,100,1
3,74,0,6
3,62,100,8
3,62,0,7
3,70,100,1
3,70,0,28
3,69,100,2
3,69,0,29
3,69,100,1
3,69,0,22
3,70,100,1
3,70,0,22
3,69,100,1
3,69,0,14
3,67,100,1
3,67,0,14
3,65,100,1
3,65,0,7
3,67,100,1
3,67,0,19
3,72,100,8
3,72,0,7
3,72,100,1
3,72,0,29
3,70,100,1
3,70,0,29
3,70,100,1
3,70,0,21
3,62,100,2
3,62,0,22
3,67,100,1
3,67,0,14
3,69,100,1
3,69,0,14
3,70,100,1
3,70,0,6
3,69,100,2
3,69,0,7
3,67,100,1
3,67,0,29
3,67,100,1
3,67,0,21
3,65,100,2
3,65,0,22
3,62,100,1
3,62,0,13
3,72,100,8
3,72,0,27
3,74,100,3
3,74,0,22
3,72,100,1
3,72,0,22
3,70,100,1
3,70,0,5
4,45,111,296
4,45,0,30
4,38,121,24
4,38,0,4
4,38,122,2
4,38,0,30
4,35,110,53
4,42,109,0
4,49,67,0
4,64,29,0
4,49,0,16
4,64,0,13
4,42,0,1
4,35,0,0
4,42,108,30
4,64,29,0
4,64,0,29
4,42,0,1
4,38,107,30
4,42,110,0
4,62,32,0
4,54,127,0
4,54,0,29
4,62,0,0
4,42,0,1
4,38,0,0
4,35,111,30
4,42,104,0
4,64,29,0
4,64,0,29
4,42,0,1
4,35,0,0
4,35,111,30
4,42,110,0
4,64,31,0
4,64,0,29
4,42,0,1
4,35,0,0
4,42,106,30
4,64,36,0
4,64,0,29
4,42,0,1
4,38,114,30
4,42,113,0
4,62,47,0
4,54,127,0
4,54,0,29
4,62,0,0
4,42,0,1
4,38,0,0
4,42,112,30
4,64,43,0
4,64,0,29
4,42,0,1
4,35,111,30
4,42,115,0
4,64,43,0
4,64,0,29
4,42,0,1
4,35,0,0
4,42,115,30
4,64,29,0
4,64,0,29
4,42,0,1
4,38,104,30
4,42,110,0
4,62,40,0
4,54,127,0
4,54,0,29
4,62,0,0
4,42,0,1
4,38,0,0
4,35,109,30
4,42,110,0
4,64,41,0
4,64,0,29
4,42,0,1
4,35,0,0
4,35,117,30
4,42,113,0
4,64,46,0
4,64,0,29
4,42,0,1
4,35,0,0
4,42,118,30
4,64,42,0
4,64,0,29
4,42,0,1
4,38,111,30
4,42,110,0
4,62,41,0
4,54,127,0
4,54,0,29
4,62,0,0
4,42,0,1
4,38,0,0
4,46,107,30
4,64,39,0
4,64,0,29
4,46,0,1
4,35,110,30
4,42,109,0
4,64,29,0
4,64,0,29
4,42,0,1
4,35,0,0
4,42,108,30
4,64,29,0
4,64,0,29
4,42,0,1
4,38,107,30
4,42,110,0
4,62,32,0
4,54,127,0
4,54,0,29
4,62,0,0
4,42,0,1
4,38,0,0
4,35,111,30
4,42,104,0
4,64,29,0
4,64,0,29
4,42,0,1
4,35,0,0
4,35,111,30
4,42,110,0
4,64,31,0
4,64,0,29
4,42,0,1
4,35,0,0
4,42,106,30
4,64,36,0
4,64,0,29
4,42,0,1
4,38,114,30
4,42,113,0
4,62,47,0
4,54,127,0
4,54,0,29
4,62,0,0
4,42,0,1
4,38,0,0
4,42,112,30
4,64,43,0
4,64,0,29
4,42,0,1
4,35,111,30
4,42,115,0
4,64,43,0
4,64,0,29
4,42,0,1
4,35,0,0
4,42,115,30
4,64,29,0
4,64,0,29
4,42,0,1
4,38,104,30
4,42,110,0
4,62,40,0
4,54,127,0
4,54,0,29
4,62,0,0
4,42,0,1
4,38,0,0
4,35,109,30
4,42,110,0
4,64,41,0
4,64,0,29
4,42,0,1
4,35,0,0
4,35,117,30
4,42,113,0
4,64,46,0
4,64,0,29
4,42,0,1
4,35,0,0
4,42,118,30
4,64,42,0
4,48,119,0
4,48,0,13
4,64,0,16
4,42,0,1
4,38,111,30
4,42,110,0
4,62,41,0
4,54,127,0
4,45,91,0
4,45,0,17
4,62,0,12
4,54,0,0
4,42,0,1
4,38,0,0
4,46,107,30
4,64,39,0
