track,note,velocity,time
1,36,93,3072
1,36,93,8
1,36,93,0
1,28,93,184
1,28,93,0
1,28,93,8
1,28,93,0
1,28,93,184
1,29,93,0
1,29,93,8
1,29,93,0
1,31,93,184
1,31,93,0
1,31,93,8
1,35,93,0
1,35,93,184
1,36,93,0
1,36,93,8
1,36,93,0
1,28,93,184
1,28,93,0
1,28,93,8
1,28,93,0
1,28,93,184
1,29,93,0
1,29,93,8
1,29,93,0
1,31,93,184
1,31,93,0
1,31,93,8
1,35,93,0
1,35,93,184
1,36,93,0
1,36,93,8
1,36,93,0
1,28,93,184
1,28,93,0
1,28,93,8
1,28,93,0
1,28,93,184
1,29,93,0
1,29,93,8
1,29,93,0
1,31,93,184
1,31,106,0
1,36,73,576
1,48,73,8
1,46,73,0
1,48,73,184
1,39,73,0
1,39,73,292
1,41,73,184
1,41,73,112
1,41,73,276
1,29,73,8
1,41,73,8
1,31,73,0
1,43,73,184
1,36,73,0
1,48,73,8
1,46,73,0
1,48,73,184
1,39,73,0
1,39,73,292
1,41,73,184
1,41,73,16
1,41,73,276
1,29,89,0
1,31,89,112
1,36,73,96
1,48,73,8
1,46,73,0
1,48,73,184
1,39,73,0
1,39,73,292
1,41,73,184
1,41,73,112
1,41,73,276
1,29,73,0
1,41,73,8
1,31,73,0
1,43,73,184
1,36,73,0
1,48,73,8
1,46,73,0
1,48,73,184
1,39,73,0
1,39,73,288
1,41,73,184
1,41,73,112
1,41,73,276
1,29,73,0
1,41,73,8
1,31,73,0
1,36,73,172
1,48,73,8
1,46,73,0
1,48,73,184
1,39,73,0
1,39,73,292
1,41,73,184
1,41,73,112
1,41,73,276
1,29,73,0
1,41,73,8
1,31,73,0
1,43,73,184
1,36,73,0
1,48,73,8
1,46,73,0
1,48,73,184
1,39,73,0
1,39,73,292
1,41,73,184
1,41,73,112
1,41,73,276
1,34,73,0
1,29,73,200
1,36,73,184
1,48,73,8
1,46,73,0
1,48,73,184
1,39,73,0
1,39,73,280
1,41,73,184
1,41,73,112
1,29,73,468
1,41,73,8
1,31,73,0
1,43,73,184
1,36,73,0
1,48,73,8
1,46,73,0
1,48,73,184
1,39,73,0
1,39,73,284
1,41,73,184
1,41,73,112
1,41,73,276
1,29,73,0
1,41,73,8
1,31,73,0
1,43,73,184
1,36,73,0
1,48,73,8
1,46,73,0
1,48,73,184
1,39,73,0
1,39,73,292
1,41,73,184
1,41,73,112
1,41,73,276
1,29,73,0
1,41,73,8
1,31,73,0
1,36,73,96
1,48,73,8
1,46,73,0
1,48,73,184
1,39,73,0
1,39,73,276
1,41,73,184
1,41,73,112
1,41,73,276
1,29,73,0
1,41,73,8
1,31,73,0
1,43,73,184
1,36,73,0
1,48,73,8
1,46,73,0
1,48,73,184
1,39,73,0
1,39,73,292
1,41,73,184
1,41,73,112
1,41,73,276
1,29,73,0
1,29,73,8
1,31,73,92
1,31,73,84
1,36,73,92
1,36,73,100
1,36,73,92
1,28,73,84
1,28,73,92
1,28,73,100
1,28,73,92
1,28,73,84
1,29,73,92
1,29,73,100
1,29,73,92
1,31,73,84
1,31,73,92
1,31,73,100
1,35,73,92
1,35,73,84
1,36,73,92
1,36,73,100
1,36,73,92
1,28,73,84
1,28,73,92
1,28,73,100
1,28,73,92
1,28,73,84
1,29,73,92
1,29,73,100
1,29,73,92
1,31,73,84
1,31,73,92
1,31,73,100
1,35,73,92
1,35,73,84
1,36,73,92
1,36,73,100
1,36,73,92
1,28,73,84
1,28,73,92
1,28,73,100
1,28,73,92
1,28,73,84
1,29,73,92
1,29,73,100
1,29,73,92
1,31,73,84
1,31,73,92
1,31,73,100
1,31,73,92
1,33,73,84
1,34,73,92
1,34,73,100
1,34,73,92
1,34,73,84
1,29,73,92
1,29,73,100
1,29,73,92
1,29,73,84
1,31,76,92
1,31,81,112
1,31,86,84
1,31,95,92
1,31,103,100
1,31,106,92
1,31,110,84
1,43,106,92
1,34,73,1244
1,36,73,0
1,48,73,8
1,46,73,0
1,48,73,184
1,39,73,0
1,39,73,292
1,41,73,184
1,41,73,16
1,41,73,276
1,29,73,0
1,41,73,8
1,31,73,0
1,43,73,184
1,36,73,0
1,48,73,8
1,46,73,0
1,48,73,184
1,39,73,0
1,39,73,292
1,41,73,184
1,41,73,112
1,41,73,276
1,29,106,92
1,31,106,112
1,36,73,96
1,48,73,8
1,46,73,0
1,48,73,184
1,39,73,0
1,39,73,280
1,41,73,184
1,41,73,112
1,41,73,276
1,29,73,0
1,41,73,8
1,31,73,0
1,43,73,184
1,36,73,0
1,48,73,8
1,46,73,0
1,48,73,184
1,39,73,0
1,39,73,292
1,41,73,184
1,41,73,112
1,41,73,276
1,29,73,0
1,41,73,8
1,31,73,0
1,36,73,96
1,48,73,8
1,46,73,0
1,48,73,184
1,39,73,0
1,39,73,276
1,41,73,184
1,41,73,112
1,41,73,276
1,29,73,0
1,41,73,8
1,31,73,0
1,43,73,184
1,36,73,0
1,48,73,8
1,46,73,0
1,48,73,184
1,39,73,0
1,39,73,292
1,41,73,184
1,41,73,112
1,41,73,276
1,29,73,0
1,29,73,8
1,31,73,92
1,31,73,84
1,36,73,92
1,36,73,100
1,36,73,92
1,28,73,84
1,28,73,92
1,28,73,100
1,28,73,92
1,28,73,84
1,29,73,92
1,29,73,100
1,29,73,92
1,31,73,84
1,31,73,92
1,31,73,100
1,35,73,92
1,35,73,84
1,36,73,92
1,36,73,100
1,36,73,92
1,28,73,84
1,28,73,92
1,28,73,100
1,28,73,92
1,28,73,84
1,29,73,92
1,29,73,100
1,29,73,92
1,31,73,84
1,31,73,92
1,31,73,100
1,35,73,92
1,35,73,84
1,36,73,92
1,36,73,100
1,36,73,92
1,28,73,84
1,28,73,92
1,28,73,100
1,28,73,92
1,28,73,84
1,29,73,92
1,29,73,100
1,29,73,92
1,31,73,84
1,31,73,92
1,31,73,100
1,33,73,92
1,33,73,84
1,34,73,92
1,34,73,100
1,34,73,92
1,34,73,84
1,29,73,92
1,29,73,100
1,29,73,92
1,29,73,84
1,31,77,92
1,31,79,112
1,31,86,84
1,31,93,92
1,31,100,100
1,31,103,92
1,31,106,84
1,39,88,92
1,39,73,100
1,39,73,92
1,39,73,84
1,39,73,92
1,39,73,100
1,39,73,92
1,39,73,84
1,38,73,92
1,38,73,100
1,38,73,92
1,38,73,84
1,38,73,92
1,38,73,100
1,38,73,92
1,38,73,84
1,36,73,92
1,36,73,100
1,36,73,92
1,36,73,84
1,36,73,92
1,36,73,100
1,36,73,92
1,36,73,84
1,29,73,92
1,29,73,100
1,29,73,92
1,29,73,84
1,29,73,92
1,29,73,100
1,29,73,92
1,29,73,84
1,32,73,92
1,32,73,100
1,32,73,92
1,32,73,84
1,32,73,92
1,32,73,100
1,32,73,92
1,32,73,84
1,31,73,92
1,31,73,100
1,31,73,92
1,31,73,84
1,31,73,92
1,31,73,100
1,31,73,92
1,31,73,84
1,29,73,92
1,29,73,100
1,29,73,92
1,29,73,84
1,29,73,92
1,29,73,100
1,29,73,92
1,29,73,84
1,31,73,92
1,31,73,100
1,31,73,92
1,31,73,84
1,31,73,92
1,31,73,100
1,31,73,92
1,31,73,84
1,32,73,92
1,32,73,100
1,32,73,92
1,32,73,84
1,32,73,92
1,32,73,100
1,32,73,92
1,32,73,84
1,31,93,92
1,31,101,112
1,31,106,96
1,31,106,112
1,43,106,96
1,34,73,1152
1,36,73,0
1,48,73,8
1,46,73,0
1,48,73,184
1,39,73,0
1,39,73,292
1,41,73,184
1,41,73,112
1,41,73,276
1,29,73,0
1,41,73,16
1,31,73,0
1,43,73,0
1,36,73,0
1,48,73,8
1,46,73,0
1,48,73,184
1,39,73,0
1,39,73,292
1,41,73,184
1,41,73,112
1,41,73,276
1,29,73,0
1,41,73,8
1,31,73,0
1,43,73,184
1,36,73,0
1,48,73,8
1,46,73,0
1,48,73,184
1,39,73,0
1,39,73,292
1,41,73,184
1,41,73,112
1,41,73,276
1,29,73,92
1,31,73,200
1,36,73,184
1,48,73,8
1,46,73,0
1,48,73,184
1,39,73,0
1,39,73,292
1,41,73,184
1,41,73,112
1,41,73,276
1,29,73,0
1,41,73,8
1,31,73,0
1,43,73,184
1,36,73,0
1,48,73,8
1,46,73,0
1,48,73,184
1,39,73,0
1,39,73,292
1,41,73,184
1,41,73,16
1,41,73,276
1,29,73,0
1,41,73,8
1,31,73,0
1,43,73,184
1,36,73,0
1,48,73,8
1,46,73,0
1,48,73,184
1,39,73,0
1,39,73,292
1,41,73,184
1,41,73,16
1,41,73,276
1,29,73,0
1,41,73,8
1,31,73,0
1,43,73,184
1,36,73,0
1,48,73,8
1,46,73,0
1,48,73,184
1,39,73,0
1,39,73,292
1,41,73,184
1,41,73,16
1,41,73,276
1,29,73,0
1,41,73,8
1,31,73,0
1,43,73,184
1,36,73,0
1,48,73,8
1,46,73,0
1,48,73,184
1,39,73,0
1,39,73,292
1,41,73,184
1,41,73,112
1,41,73,276
1,29,73,0
1,41,73,8
1,31,73,0
1,43,73,184
1,36,73,0
1,48,73,8
1,46,73,0
1,48,73,184
1,39,73,0
1,39,73,292
1,41,73,184
1,41,73,16
1,41,73,276
1,29,73,0
1,41,73,8
1,31,73,0
1,43,73,184
1,36,73,0
1,48,73,8
1,46,73,0
1,48,73,184
1,39,73,0
1,39,73,292
1,41,73,184
1,41,73,16
1,41,73,276
1,29,73,0
1,41,73,8
1,31,73,0
1,43,73,184
1,36,73,0
1,48,73,8
1,46,73,0
1,48,73,184
1,39,73,0
1,39,73,292
1,41,73,184
1,41,73,16
1,41,73,276
1,29,73,0
1,41,73,8
1,31,73,0
1,43,73,184
1,36,73,0
1,48,73,8
1,46,73,0
1,48,73,184
1,39,73,0
1,39,73,292
1,41,73,184
1,41,73,16
1,41,73,276
1,29,73,0
1,41,73,8
1,31,73,0
1,43,73,184
1,36,73,0
1,48,73,8
1,46,73,0
1,48,73,184
1,39,73,0
1,39,73,292
1,41,73,184
1,41,73,16
1,41,73,276
1,29,73,0
1,41,73,8
1,31,73,0
1,43,73,184
1,36,73,0
1,48,73,8
1,46,73,0
1,48,73,184
1,39,73,0
1,39,73,292
1,41,73,184
1,41,73,112
1,41,73,276
1,29,73,0
1,41,73,8
1,31,73,0
1,43,73,184
1,36,73,0
1,48,73,8
1,46,73,0
1,48,73,184
1,39,73,0
1,39,73,292
1,41,73,184
1,41,73,112
1,41,73,276
1,29,73,0
1,29,73,100
1,31,73,0
1,31,73,84
1,36,73,92
1,36,73,100
1,36,73,92
1,28,73,84
1,28,73,92
1,28,73,100
1,28,73,92
1,28,73,84
1,29,73,92
1,29,73,100
1,29,73,92
1,31,73,84
1,31,73,92
1,31,73,100
1,35,73,92
1,35,73,84
1,36,73,92
1,36,73,100
1,36,73,92
1,28,73,84
1,28,73,92
1,28,73,100
1,28,73,92
1,28,73,84
1,29,73,92
1,29,73,100
1,29,73,92
1,31,73,84
1,31,73,92
1,31,73,100
1,35,73,92
1,35,73,84
1,36,73,92
1,36,73,100
1,36,73,92
1,28,73,84
1,28,73,92
1,28,73,100
1,28,73,92
1,28,73,84
1,29,73,92
1,29,73,100
1,29,73,92
1,31,73,84
1,31,73,92
1,31,73,100
1,35,73,92
1,35,73,84
1,36,73,92
1,36,73,100
1,36,73,92
1,28,73,84
1,28,73,92
1,28,73,100
1,28,73,92
1,28,73,84
1,29,73,92
1,29,73,100
1,29,73,92
1,31,73,84
1,31,73,92
1,31,73,100
1,35,73,92
1,35,73,84
1,36,73,92
1,36,73,100
1,36,73,92
1,28,73,84
1,28,73,92
1,28,73,100
1,28,73,92
1,28,73,84
1,29,73,92
1,29,73,100
1,29,73,92
1,31,73,84
1,31,73,92
1,31,73,100
1,35,73,92
1,35,73,84
1,36,73,92
1,36,73,100
1,36,73,92
1,28,73,84
1,28,73,92
1,28,73,100
1,28,73,92
1,28,73,84
1,29,73,92
1,29,73,100
1,29,73,92
1,31,73,84
1,31,73,92
1,31,73,100
1,35,73,92
1,35,73,84
1,36,73,92
1,36,73,100
1,36,73,92
1,28,73,84
1,28,73,92
1,28,73,100
1,28,73,92
1,28,73,84
1,29,73,92
1,29,73,100
1,29,73,92
1,31,73,84
1,31,73,92
1,31,73,100
1,35,73,92
1,35,73,84
1,36,73,92
1,36,73,100
1,36,73,92
1,28,73,84
1,28,73,92
1,28,73,100
1,28,73,92
1,28,73,84
1,29,73,92
1,29,73,100
1,29,73,92
1,31,73,84
1,31,73,92
1,31,73,100
1,35,73,92
1,35,73,84
1,36,73,92
1,36,73,100
1,36,73,92
1,28,73,84
1,28,73,92
1,28,73,100
1,28,73,92
1,28,73,84
1,29,73,92
1,29,73,100
1,29,73,92
1,31,73,84
1,31,73,92
1,31,73,100
1,35,73,92
1,35,73,84
1,36,73,92
1,36,73,100
1,36,73,92
1,28,73,84
1,28,73,92
1,28,73,100
1,28,73,92
1,28,73,84
1,29,73,92
1,29,73,100
1,29,73,92
1,31,73,84
1,31,73,92
1,31,73,100
1,35,73,92
1,35,73,84
1,36,73,92
1,36,73,100
1,36,73,92
1,28,73,84
1,28,73,92
1,28,73,100
1,28,73,92
1,28,73,84
1,29,73,92
1,29,73,100
1,29,73,92
1,31,73,84
1,31,73,92
1,31,73,100
1,35,73,92
1,35,73,84
1,36,73,92
1,36,73,100
1,36,73,92
1,28,73,84
1,28,73,92
1,28,73,100
1,28,73,92
1,28,73,84
1,29,73,92
1,29,73,100
1,29,73,92
1,31,73,84
1,31,73,92
1,31,73,100
1,35,73,92
1,35,73,84
1,36,79,92
2,77,93,116724
2,77,93,1240
2,77,93,4
2,75,93,22
2,72,93,2
2,60,93,432
2,60,93,450
2,60,93,72
2,58,93,82
2,55,93,0
2,54,93,124
2,53,93,0
2,51,93,118
2,48,93,58
2,53,93,32
2,55,93,898
2,58,93,96
2,60,93,24
2,60,93,64
2,55,93,12
2,58,93,96
2,60,93,102
2,60,93,114
2,58,93,260
2,60,93,2
2,65,93,874
2,67,93,20
2,72,93,4
2,70,93,4
2,67,93,4
2,66,93,4
2,72,93,4
2,66,93,4
2,63,93,0
2,60,93,4
2,63,93,4
2,60,93,4
2,58,93,4
2,60,93,12
2,58,93,4
2,55,93,4
2,53,93,4
2,54,93,4
2,60,93,4
2,53,93,4
2,54,93,4
2,55,93,4
2,58,93,12
2,55,93,4
2,58,93,4
2,60,93,12
2,58,93,4
2,60,93,4
2,63,93,36
2,65,93,44
2,65,93,16
2,63,93,44
2,65,93,28
2,66,93,4
2,65,93,0
2,63,93,16
2,60,93,442
2,63,93,6
2,65,93,20
2,65,93,2
2,65,93,4
2,65,93,4
2,65,93,4
2,65,93,4
2,63,93,54
2,60,93,70
2,67,93,242
2,67,93,288
2,60,93,82
2,63,93,86
2,65,93,24
2,67,93,92
2,65,93,70
2,63,93,30
2,60,93,102
2,67,93,656
2,72,93,0
2,65,93,0
2,65,93,144
2,66,93,350
2,72,93,0
2,67,93,0
2,65,93,12
2,66,93,174
2,72,93,0
2,67,93,0
2,65,93,162
2,63,93,52
2,60,93,0
2,66,93,484
2,72,93,14
2,67,93,14
2,65,93,0
2,66,93,174
2,72,93,16
2,67,93,0
2,65,93,2
2,66,93,172
2,72,93,16
2,67,93,0
2,65,93,14
2,66,93,52
2,72,93,16
2,67,93,14
2,65,93,14
2,66,93,172
2,72,93,0
2,67,93,0
2,65,93,0
2,63,93,172
2,60,93,12
2,66,93,346
2,67,93,4
2,72,93,2
2,67,93,96
2,72,93,0
2,66,93,0
2,67,93,6
2,72,93,0
2,67,93,60
2,72,93,16
2,66,93,14
2,67,93,4
2,72,93,0
2,67,93,104
2,72,93,0
2,66,93,176
2,67,93,2
2,72,93,2
2,67,93,82
2,72,93,0
2,66,93,22
2,67,93,6
2,72,93,0
2,67,93,70
2,72,93,2
2,66,93,42
2,67,93,4
2,72,93,0
2,67,93,74
2,72,93,0
2,66,93,0
2,67,93,4
2,72,93,0
2,72,93,62
2,67,93,2
2,66,93,30
