track,note,velocity,time
3,45,78,0
3,52,62,48
3,57,65,48
3,59,78,48
3,57,0,3
3,59,0,93
3,57,68,0
3,57,0,46
3,64,82,2
3,52,0,385
3,45,0,3
3,64,0,9
3,42,83,0
3,49,62,48
3,57,69,48
3,59,86,0
3,57,0,3
3,59,0,89
3,57,71,4
3,64,87,48
3,57,0,1
3,49,0,232
3,42,0,7
3,64,0,154
3,38,87,0
3,45,63,48
3,54,56,48
3,59,74,48
3,59,0,91
3,57,87,0
3,38,0,41
3,45,0,26
3,57,0,2
3,54,0,2
3,40,89,0
3,57,65,96
3,56,78,48
3,57,0,2
3,40,0,57
3,56,0,23
3,45,82,0
3,52,64,48
3,57,63,48
3,59,76,48
3,57,0,3
3,57,56,48
3,59,0,2
3,61,78,46
3,52,0,252
3,45,0,3
3,61,0,98
3,57,0,2
3,42,85,0
3,49,56,48
3,57,62,48
3,59,78,0
3,57,0,2
3,57,49,94
3,59,0,2
3,64,84,46
3,49,0,246
3,42,0,4
3,64,0,125
3,57,0,3
3,38,82,0
3,45,66,0
3,54,71,0
3,59,72,48
3,59,0,87
3,57,88,9
3,38,0,40
3,57,0,21
3,45,0,3
3,54,0,3
3,40,85,0
3,57,72,96
3,56,79,48
3,57,0,8
3,40,0,52
3,56,0,6
3,45,85,0
3,52,56,48
3,57,61,48
3,59,81,0
3,57,0,6
3,57,65,90
3,59,0,1
3,64,91,47
3,52,0,128
3,45,0,4
3,32,70,0
3,44,68,0
3,44,0,1
3,64,0,3
3,32,0,1
3,57,0,6
3,42,68,0
3,30,78,0
3,52,56,48
3,57,76,0
3,52,0,3
3,59,82,45
3,57,0,2
3,59,0,92
3,57,66,2
3,30,0,35
3,64,85,13
3,57,0,6
3,42,0,247
3,64,0,142
3,38,76,85
3,45,59,0
3,54,61,0
3,59,80,48
3,57,83,0
3,59,0,2
3,38,0,52
3,57,0,12
3,45,0,3
3,54,0,2
3,40,88,0
3,57,67,96
3,56,83,48
3,57,0,6
3,40,0,102
3,56,0,7
3,45,82,0
3,52,64,48
3,57,64,48
3,59,72,48
3,57,0,2
3,57,64,94
3,59,0,7
3,64,86,41
3,45,0,117
3,52,0,5
3,64,0,144
3,57,0,1
3,42,74,0
3,49,44,0
3,57,62,48
3,59,73,48
3,57,0,4
3,57,56,92
3,59,0,12
3,42,0,14
3,49,0,12
3,64,89,10
3,57,0,4
3,64,0,46
3,42,43,46
3,49,47,48
3,54,60,48
3,57,85,48
3,42,0,59
3,49,0,1
3,57,0,47
3,54,0,8
3,38,78,0
3,45,59,48
3,54,62,48
3,59,77,0
3,57,87,96
3,59,0,3
3,38,0,67
3,45,0,9
3,54,0,12
3,57,0,1
3,40,74,0
3,47,34,48
3,57,80,48
3,56,86,48
3,57,0,6
3,40,0,62
3,47,0,8
3,56,0,19
3,42,70,0
3,49,53,48
3,57,70,0
3,61,86,48
3,57,0,12
3,49,0,12
3,61,0,23
3,49,49,49
3,57,92,48
3,49,0,191
3,42,0,2
3,57,0,120
3,38,78,0
3,45,61,48
3,50,60,0
3,50,0,48
3,54,78,0
3,54,0,43
3,50,87,53
3,50,0,250
3,50,89,86
3,45,0,38
3,50,0,4
3,38,0,9
3,47,69,0
3,50,59,48
3,54,71,48
3,57,90,48
3,50,0,103
3,47,0,8
3,57,0,0
3,54,0,1
3,47,43,80
3,47,0,75
3,57,91,69
3,57,0,36
3,28,74,0
3,40,69,0
3,57,66,192
3,57,0,94
3,52,74,0
3,56,77,0
3,28,0,80
3,40,0,5
3,52,0,48
3,56,0,6
3,45,79,0
3,52,62,48
3,57,62,0
3,59,75,48
3,57,0,9
3,57,55,87
3,59,0,8
3,64,88,40
3,57,0,2
3,52,0,81
3,52,46,61
3,57,59,48
3,64,0,12
3,59,57,36
3,61,76,96
3,45,0,20
3,52,0,1
3,57,0,36
3,59,0,2
3,61,0,6
3,42,81,0
3,49,55,48
3,57,67,0
3,59,76,48
3,57,0,7
3,57,58,89
3,59,0,6
3,64,91,42
3,57,0,7
3,49,0,63
3,64,0,1
3,49,34,73
3,54,50,48
3,57,73,48
3,49,0,98
3,42,0,18
3,57,0,20
3,54,0,3
3,38,84,0
3,45,66,48
3,54,59,0
3,59,78,48
3,59,0,59
3,57,88,37
3,38,0,43
3,54,0,11
3,57,0,5
3,45,0,6
3,40,73,0
3,52,57,48
3,57,71,0
3,56,81,0
3,57,0,7
3,40,0,88
3,52,0,21
3,56,0,4
3,42,79,0
3,66,76,0
3,73,82,0
3,70,103,0
3,42,0,87
3,49,63,9
3,49,0,37
3,54,64,11
3,54,0,23
3,49,64,25
3,49,0,36
3,58,70,12
3,73,0,2
3,70,0,5
3,66,0,5
3,58,0,25
3,54,79,11
3,54,0,29
3,66,92,67
3,61,70,48
3,66,0,1
3,61,0,36
3,54,67,11
3,54,0,27
3,61,93,21
3,61,0,49
3,54,85,95
3,54,0,12
3,66,78,0
3,62,84,0
3,57,79,0
3,38,69,0
3,57,0,17
3,66,0,4
3,62,0,1
3,57,72,26
3,62,86,48
3,57,0,12
3,62,0,55
3,57,80,29
3,57,0,12
3,38,0,10
3,54,66,26
3,54,0,12
3,40,79,0
3,64,80,0
3,56,78,0
3,59,87,0
3,40,0,90
3,40,82,54
3,64,0,101
3,56,0,1
3,59,0,4
3,40,0,5
3,42,69,0
3,58,78,0
3,61,78,0
3,54,64,0
3,42,0,38
3,54,0,19
3,58,0,1
3,61,0,4
3,49,37,34
3,54,61,48
3,49,0,1
3,54,0,47
3,49,52,0
3,58,86,48
3,49,0,6
3,54,67,42
3,58,0,3
3,54,0,31
3,66,85,62
3,61,78,48
3,66,0,5
3,61,0,43
3,54,51,0
3,54,0,46
3,61,92,2
3,54,77,144
3,61,0,8
3,54,0,19
3,47,74,0
3,54,58,48
3,59,61,48
3,59,0,44
3,61,78,4
3,61,0,62
3,59,55,34
3,66,79,48
3,59,0,7
3,54,0,42
3,47,0,3
3,66,0,73
3,47,51,19
3,54,53,48
3,59,69,48
3,59,0,46
3,63,87,50
3,47,0,21
3,54,0,6
3,63,0,11
3,44,73,0
3,54,52,0
3,59,56,48
3,59,0,48
3,61,86,0
3,61,0,68
3,59,30,28
3,66,80,48
3,59,0,3
3,44,0,96
3,54,0,2
3,66,0,13
3,44,54,30
3,54,49,48
3,59,68,48
3,63,81,48
3,59,0,4
3,54,0,16
3,59,68,28
3,59,0,45
3,54,60,3
3,44,0,10
3,54,0,19
3,63,0,1
3,40,85,0
3,52,57,0
3,56,55,48
3,59,83,48
3,56,0,7
3,52,0,9
3,52,35,80
3,56,74,48
3,59,0,6
3,40,0,3
3,52,0,3
3,56,0,23
3,42,75,0
3,54,63,0
3,59,82,48
3,58,83,48
3,59,0,6
3,54,0,15
3,58,0,110
3,54,52,13
3,42,0,11
3,54,0,11
3,47,82,0
3,54,59,48
3,59,61,0
3,61,87,48
3,59,0,4
3,59,48,92
3,61,0,1
3,63,75,47
3,66,73,0
3,59,0,10
3,47,0,89
3,54,0,14
3,47,58,31
3,66,0,46
3,54,56,2
3,63,0,25
3,59,54,23
3,63,71,48
3,59,0,48
3,66,85,0
3,63,0,7
3,47,0,27
3,63,66,14
3,54,0,11
3,66,0,0
3,59,63,37
3,63,0,11
3,59,0,34
3,44,70,0
3,54,59,0
3,59,64,48
3,61,78,48
3,59,0,7
3,59,63,89
3,61,0,5
3,66,86,43
3,59,0,6
3,44,0,108
3,54,0,2
3,66,0,19
3,44,52,9
3,54,59,48
3,59,68,48
3,59,0,75
3,61,88,21
3,54,0,42
3,44,0,1
3,61,0,20
3,40,78,0
3,52,45,0
3,56,55,48
3,59,85,48
3,56,0,9
3,52,0,16
3,52,42,71
3,40,0,48
3,56,77,0
3,59,0,4
3,52,0,14
3,56,0,24
3,42,75,0
3,54,61,0
3,59,72,48
3,58,79,48
3,59,0,5
3,54,0,79
3,54,62,60
3,54,0,27
3,42,0,1
3,58,0,11
3,44,78,57
3,51,54,0
3,56,56,48
3,59,87,48
3,56,0,6
3,51,0,72
3,59,0,18
3,56,32,0
3,63,81,48
3,56,0,21
3,63,0,101
3,56,41,22
3,59,63,48
3,63,78,48
3,56,0,8
3,44,0,81
3,59,0,17
3,63,0,14
3,56,50,24
3,56,0,35
3,40,86,0
3,52,54,0
3,56,58,48
3,59,86,48
3,56,0,6
3,52,0,18
3,52,31,72
3,59,0,28
3,64,88,20
3,52,0,18
3,64,0,113
3,52,25,13
3,56,55,48
3,59,82,48
3,56,0,3
3,52,0,4
3,52,30,89
3,40,0,34
3,52,0,12
3,56,71,2
3,59,0,6
3,56,0,26
3,37,78,0
3,49,46,0
3,56,55,48
3,61,78,48
3,49,0,29
3,56,0,34
3,49,26,33
3,61,0,4
3,64,87,44
3,49,0,108
3,64,0,17
3,49,50,19
3,56,58,48
3,61,70,48
3,56,0,37
3,64,81,11
3,49,0,8
3,61,0,3
3,49,42,37
3,37,0,42
3,56,67,6
3,64,0,7
3,49,0,12
3,56,0,20
3,42,75,0
3,49,44,0
3,54,38,48
3,59,69,48
3,59,0,149
3,42,0,6
3,49,0,0
3,54,0,0
3,42,41,0
3,58,73,0
3,54,63,0
3,42,0,97
3,54,0,5
3,58,0,1
3,47,82,89
3,54,58,0
3,59,58,48
3,61,79,48
3,59,0,3
3,59,49,93
3,61,0,7
3,66,79,41
3,59,0,10
3,47,0,190
3,54,0,7
3,66,0,12
3,46,80,0
3,46,0,37
3,44,74,0
3,54,55,0
3,59,55,48
3,61,79,48
3,59,0,7
3,59,58,89
3,61,0,4
3,66,78,44
3,59,0,9
3,44,0,354
3,54,0,10
3,66,0,13
3,42,73,46
3,42,0,20
3,40,87,0
3,52,63,0
3,56,62,48
3,59,83,48
3,56,0,18
3,52,0,10
3,52,37,68
3,56,61,48
3,40,0,7
3,52,0,23
3,64,69,18
3,59,0,37
3,56,0,6
3,64,0,2
3,42,81,0
3,54,66,0
3,58,48,48
3,61,70,48
3,54,0,34
3,54,53,62
3,66,78,48
3,42,0,7
3,54,0,20
3,58,0,5
3,61,0,1
3,66,0,2
3,44,81,0
3,51,59,48
3,56,70,48
3,56,0,54
3,56,48,42
3,63,95,48
3,56,0,1
3,56,62,47
3,51,0,17
3,56,0,22
3,51,66,9
3,63,0,1
3,56,53,47
3,56,0,47
3,63,103,1
3,51,0,5
3,56,48,43
3,56,0,46
3,51,68,2
3,63,0,23
3,56,66,25
3,56,0,46
3,63,91,2
3,44,0,14
3,51,0,8
3,56,67,26
3,56,0,11
3,40,81,0
3,56,73,0
3,63,0,5
3,59,63,48
3,64,84,48
3,56,0,43
3,52,42,5
3,64,0,21
3,59,0,27
3,56,59,0
3,40,0,36
3,59,82,12
3,52,0,8
3,56,0,12
3,59,0,30
3,42,87,0
3,54,61,0
3,58,70,48
3,61,81,48
3,54,0,10
3,54,60,86
3,42,0,12
3,66,76,36
3,58,0,26
3,54,0,5
3,61,0,2
3,66,0,9
3,44,85,0
3,51,63,48
3,56,64,48
3,56,0,53
3,56,51,43
3,63,95,48
3,56,0,1
3,51,0,21
3,56,40,26
3,56,0,42
3,51,63,6
3,63,0,17
3,56,55,31
3,56,0,45
3,63,103,3
3,51,0,47
3,56,43,1
3,56,0,37
3,51,70,11
3,63,0,1
3,56,59,47
3,63,93,48
3,56,0,2
3,44,0,18
3,51,0,3
3,56,62,25
3,56,0,13
3,40,72,0
3,63,0,5
3,52,62,43
3,56,68,48
3,52,0,9
3,52,51,87
3,56,0,17
3,64,94,31
3,40,0,9
3,52,0,14
3,64,0,21
3,42,79,0
3,54,48,48
3,58,63,48
3,54,0,18
3,58,0,75
3,54,49,3
3,61,88,48
3,42,0,20
3,54,0,12
3,61,0,9
3,44,86,0
3,56,57,48
3,63,76,48
3,56,0,15
3,63,0,56
3,56,36,25
3,56,0,48
3,63,85,0
3,56,64,48
3,63,0,2
3,51,60,46
3,56,0,3
3,56,58,45
3,51,0,13
3,63,79,35
3,56,0,2
3,56,46,46
3,63,0,3
3,56,0,44
3,51,30,1
3,56,58,48
3,44,0,47
3,56,0,1
3,63,78,0
3,51,0,15
3,63,0,31
3,56,63,2
3,56,0,37
3,44,81,11
3,56,50,48
3,59,69,48
3,56,0,17
3,56,53,79
3,63,78,48
3,44,0,374
3,59,0,21
3,63,0,4
3,56,0,1
3,40,72,0
3,52,47,0
3,56,61,48
3,59,74,48
3,52,0,41
3,56,0,8
3,56,34,47
3,64,82,48
3,40,0,302
3,64,0,14
3,56,0,6
3,59,0,3
3,39,78,0
3,39,0,46
3,37,76,0
3,49,52,0
3,56,56,48
3,61,79,48
3,56,0,27
3,49,0,12
3,49,35,57
3,64,85,48
3,61,0,1
3,49,0,43
3,64,0,83
3,56,34,17
3,61,64,48
3,64,85,48
3,56,0,3
3,61,0,2
3,56,65,43
3,64,0,32
3,61,70,16
3,37,0,9
3,64,74,39
3,56,0,10
3,61,0,22
3,49,37,16
3,64,0,11
3,49,0,3
3,42,80,0
3,49,43,0
3,54,57,48
3,58,80,48
3,54,0,7
3,49,0,76
3,58,0,13
3,61,62,0
3,58,60,144
3,54,59,0
3,42,0,215
3,58,0,35
3,61,0,4
3,54,0,1
3,47,74,0
3,54,58,48
3,59,57,48
3,59,0,42
3,61,82,6
3,61,0,66
3,59,55,30
3,59,0,48
3,66,65,0
3,63,80,0
3,54,0,224
3,54,28,64
3,47,0,21
3,46,78,75
3,66,0,9
3,63,0,9
3,54,0,10
3,46,0,3
3,44,76,0
3,54,58,0
3,59,57,48
3,61,82,48
3,59,0,7
3,61,0,58
3,59,63,31
3,66,73,48
3,63,81,0
3,59,0,2
3,54,0,68
3,54,48,74
3,66,0,13
3,63,0,1
3,59,58,34
3,61,68,48
3,59,0,2
3,44,0,66
3,61,0,22
3,54,0,7
3,42,66,95
3,42,0,16
3,40,89,0
3,52,64,0
3,56,58,48
3,59,78,48
3,56,0,27
3,52,0,8
3,52,41,61
3,40,0,27
3,64,82,21
3,52,0,9
3,59,0,4
3,64,0,25
3,42,75,0
3,54,45,0
3,58,61,48
3,61,72,48
3,66,64,96
3,54,0,49
3,42,0,0
3,58,0,1
3,66,0,6
3,61,0,4
3,44,81,0
3,63,78,0
3,56,78,0
3,60,87,0
3,60,0,963
3,56,0,3
3,63,0,1
3,44,0,3
4,45,85,12288
4,45,0,750
4,42,91,18
4,38,100,768
4,42,0,6
4,38,0,376
4,40,98,2
4,42,99,384
4,40,0,6
4,42,0,632
4,42,98,34
4,38,98,96
4,42,0,10
4,38,0,355
4,40,93,19
4,40,0,188
4,28,100,4
4,30,105,192
4,28,0,10
4,30,0,361
4,30,100,13
4,42,97,288
4,30,0,4
4,35,91,92
4,42,0,3
4,34,93,573
4,35,0,4
4,34,0,182
4,32,96,6
4,32,0,693
4,30,88,27
4,30,0,22
4,28,98,26
4,30,98,384
4,28,0,2
4,30,0,259
4,30,98,27
4,35,101,96
4,30,0,2
4,34,92,574
4,35,0,2
4,34,0,187
4,32,98,3
4,32,0,694
4,30,88,26
4,30,0,30
4,28,97,18
4,30,98,384
4,28,0,3
4,30,0,255
4,30,98,30
4,30,0,79
4,32,98,17
4,32,0,628
4,32,98,44
4,32,0,80
4,28,94,16
4,40,89,672
4,28,0,4
4,37,93,92
4,40,0,1
4,37,0,645
4,37,90,26
4,37,0,93
4,30,101,3
4,42,93,384
4,30,0,5
4,35,96,379
4,42,0,1
4,34,99,575
4,35,0,10
4,32,96,182
4,34,0,1
4,32,0,699
4,30,90,20
4,30,0,26
4,28,102,22
4,30,101,384
4,28,0,6
4,30,0,362
4,32,100,16
4,32,0,114
4,32,102,30
4,32,0,408
4,36,86,24
4,36,0,55
4,37,97,9
4,37,0,47
4,39,87,17
4,39,0,47
4,28,109,17
4,28,0,368
4,30,98,16
4,30,0,299
4,32,94,37
4,32,0,17
4,32,99,31
4,32,0,529
4,44,95,47
4,44,0,54
4,39,95,10
4,39,0,59
4,44,86,5
4,44,0,55
4,28,102,9
4,28,0,363
