track,note,velocity,time
2,35,76,3072
2,35,76,1104
2,35,76,1872
2,35,76,1104
2,35,76,1872
2,35,76,1104
2,35,76,1872
2,35,76,1104
2,35,76,1872
2,35,76,1104
2,35,76,1872
2,35,76,1104
2,35,76,1872
2,35,76,1104
2,35,76,1296
2,35,76,528
2,35,76,1104
2,35,76,1872
2,35,76,1104
2,35,76,1872
2,35,76,1104
2,35,76,1872
2,35,56,912
2,35,76,144
2,35,76,336
2,35,76,1488
2,35,76,1104
2,35,76,1872
2,35,76,1104
2,35,76,1872
2,35,76,1104
2,35,76,1872
2,35,76,1104
2,35,76,1872
2,35,76,1104
2,35,76,1872
2,35,76,1104
2,35,76,1872
2,35,76,3024
2,35,76,1104
2,35,76,1872
2,35,56,912
2,35,76,144
2,35,76,336
2,35,76,1488
2,35,76,528
2,35,76,528
2,35,76,1872
2,35,76,528
2,35,76,1296
2,35,76,1104
2,35,76,528
2,35,76,528
2,35,56,1680
2,35,76,144
2,35,76,528
2,35,76,1296
2,35,76,1104
2,35,76,528
2,35,76,528
2,35,76,1872
2,35,76,528
2,35,76,1296
2,35,76,1104
2,35,76,528
2,35,76,528
2,35,76,1488
2,35,76,336
2,35,76,1104
2,35,76,1872
2,35,76,528
2,35,76,528
2,35,76,1872
2,35,76,528
2,35,76,528
2,35,76,720
2,35,76,1104
2,35,56,912
2,35,76,144
2,35,76,336
2,35,56,1296
2,35,76,144
2,35,76,528
2,35,76,528
2,35,76,1872
2,35,76,528
2,35,76,528
2,35,76,1872
2,35,76,528
2,35,76,528
2,35,76,1872
2,35,76,528
2,35,76,528
2,35,56,1296
2,35,76,144
2,35,76,336
2,35,76,528
2,35,76,528
2,35,76,1872
2,35,76,528
2,35,76,528
2,35,76,1872
2,35,76,528
2,35,76,528
2,35,56,912
2,35,76,144
2,35,76,720
2,35,76,528
2,35,76,528
2,35,76,336
2,35,56,528
2,35,76,912
2,35,66,1104
2,35,76,336
2,35,76,1488
2,35,55,912
2,35,66,144
2,35,76,336
2,35,66,1104
2,35,76,336
2,35,66,1104
2,35,76,336
2,35,76,1488
2,35,55,912
2,35,66,144
2,35,76,336
2,35,66,720
2,35,76,720
2,35,66,1104
2,35,76,336
2,35,76,1488
2,35,66,1104
2,35,76,336
2,35,76,1488
2,35,66,1104
2,35,76,336
2,35,76,1488
2,35,76,3024
2,35,76,528
2,35,76,528
2,35,76,1872
2,35,76,528
2,35,76,528
2,35,76,1872
2,35,76,528
2,35,76,528
2,35,76,1872
2,35,76,528
2,35,76,528
2,35,76,1296
2,35,76,528
2,35,76,528
2,35,76,528
2,35,76,1872
2,35,76,528
2,35,76,528
2,35,76,1872
2,35,76,528
2,35,76,528
2,35,76,1872
2,35,76,528
2,35,76,528
2,35,76,1872
2,35,76,528
2,35,76,528
2,35,76,1872
2,35,76,528
2,35,76,528
2,35,76,1872
2,35,76,528
2,35,76,528
2,35,76,1872
2,35,76,528
2,35,76,528
2,35,66,912
2,35,76,336
2,35,76,528
2,35,76,528
2,35,76,528
2,35,76,1872
2,35,76,528
2,35,76,528
2,35,76,1872
2,35,76,528
2,35,76,528
2,35,76,1872
2,35,76,528
2,35,76,528
2,35,76,1872
3,38,91,5376
3,38,91,3024
3,38,91,3024
3,38,91,3024
3,38,91,3024
3,38,91,3024
3,38,91,3024
3,38,91,3024
3,38,91,3024
3,38,91,3024
3,38,91,3024
3,38,91,528
3,38,91,2448
3,38,91,3024
3,38,91,3024
3,38,91,3024
3,38,91,3024
3,38,91,3024
3,38,91,3024
3,38,91,3024
3,38,91,3024
3,38,91,3024
3,38,91,3024
3,38,91,3024
3,38,91,3024
3,38,91,3024
3,38,91,3024
3,38,91,3024
3,38,81,528
3,38,91,2448
3,38,91,3024
3,38,81,528
3,38,91,2448
3,38,91,3024
3,38,91,21456
3,38,91,73680
3,38,91,3024
4,42,82,3072
4,42,30,144
4,42,69,144
4,42,25,144
4,42,82,144
4,42,78,144
4,42,24,144
4,42,35,144
4,42,82,144
4,42,37,144
4,42,23,144
4,42,82,144
4,42,24,144
4,42,24,336
4,42,58,144
4,42,82,144
4,42,30,144
4,42,69,144
4,42,25,144
4,42,82,144
4,42,78,144
4,42,24,144
4,42,35,144
4,42,82,144
4,42,37,144
4,42,23,144
4,42,82,144
4,42,24,144
4,42,24,336
4,42,68,144
4,42,82,144
4,42,30,144
4,42,69,144
4,42,25,144
4,42,82,144
4,42,78,144
4,42,24,144
4,42,35,144
4,42,82,144
4,42,37,144
4,42,23,144
4,42,82,144
4,42,24,144
4,42,31,528
4,42,82,144
4,42,30,144
4,42,69,144
4,42,25,144
4,42,82,144
4,42,78,144
4,42,24,144
4,42,52,144
4,42,82,144
4,42,37,144
4,42,75,336
4,42,24,144
4,42,84,336
4,42,58,144
4,42,82,144
4,42,30,144
4,42,69,144
4,42,25,144
4,42,82,144
4,42,78,144
4,42,24,144
4,42,35,144
4,42,82,144
4,42,37,144
4,42,23,144
4,42,82,144
4,42,24,144
4,42,24,336
4,42,58,144
4,42,82,144
4,42,30,144
4,42,69,144
4,42,25,144
4,42,82,144
4,42,78,144
4,42,24,144
4,42,35,144
4,42,82,144
4,42,37,144
4,42,23,144
4,42,82,144
4,42,24,144
4,42,24,336
4,42,68,144
4,42,82,144
4,42,30,144
4,42,69,144
4,42,25,144
4,42,82,144
4,42,78,144
4,42,24,144
4,42,35,144
4,42,82,144
4,42,37,144
4,42,23,144
4,42,82,144
4,42,24,144
4,42,31,528
4,42,82,144
4,42,30,144
4,42,69,144
4,42,25,144
4,42,82,144
4,42,78,144
4,42,24,144
4,42,52,144
4,42,82,144
4,42,37,144
4,42,75,336
4,42,24,144
4,42,84,336
4,42,58,144
4,42,82,144
4,42,30,144
4,42,69,144
4,42,25,144
4,42,82,144
4,42,78,144
4,42,24,144
4,42,35,144
4,42,82,144
4,42,37,144
4,42,23,144
4,42,82,144
4,42,24,144
4,42,24,336
4,42,58,144
4,42,82,144
4,42,30,144
4,42,69,144
4,42,25,144
4,42,82,144
4,42,78,144
4,42,24,144
4,42,35,144
4,42,82,144
4,42,37,144
4,42,23,144
4,42,82,144
4,42,24,144
4,42,24,336
4,42,68,144
4,42,82,144
4,42,30,144
4,42,69,144
4,42,25,144
4,42,82,144
4,42,78,144
4,42,24,144
4,42,35,144
4,42,82,144
4,42,37,144
4,42,23,144
4,42,82,144
4,42,24,144
4,42,31,528
4,42,82,144
4,42,30,144
4,42,69,144
4,42,25,144
4,42,82,144
4,42,78,144
4,42,24,144
4,42,52,144
4,42,82,144
4,42,37,144
4,42,75,336
4,42,24,144
4,42,84,336
4,42,58,144
4,42,82,144
4,42,30,144
4,42,69,144
4,42,25,144
4,42,82,144
4,42,78,144
4,42,24,144
4,42,35,144
4,42,82,144
4,42,37,144
4,42,23,144
4,42,82,144
4,42,24,144
4,42,24,336
4,42,58,144
4,42,82,144
4,42,30,144
4,42,69,144
4,42,25,144
4,42,82,144
4,42,78,144
4,42,24,144
4,42,35,144
4,42,82,144
4,42,37,144
4,42,23,144
4,42,82,144
4,42,24,144
4,42,24,336
4,42,68,144
4,42,82,144
4,42,30,144
4,42,69,144
4,42,25,144
4,42,82,144
4,42,78,144
4,42,24,144
4,42,35,144
4,42,82,144
4,42,37,144
4,42,23,144
4,42,82,144
4,42,24,144
4,42,31,528
4,42,82,144
4,42,30,144
4,42,69,144
4,42,25,144
4,42,82,144
4,42,78,144
4,42,24,144
4,42,52,144
4,42,82,144
4,42,37,144
4,42,75,336
4,42,24,144
4,42,84,336
4,42,58,144
4,42,82,144
4,42,30,144
4,42,69,144
4,42,25,144
4,42,82,144
4,42,78,144
4,42,24,144
4,42,35,144
4,42,82,144
4,42,37,144
4,42,23,144
4,42,82,144
4,42,24,144
4,42,24,336
4,42,58,144
4,42,82,144
4,42,30,144
4,42,69,144
4,42,25,144
4,42,82,144
4,42,78,144
4,42,24,144
4,42,35,144
4,42,82,144
4,42,37,144
4,42,23,144
4,42,82,144
4,42,24,144
4,42,24,336
4,42,68,144
4,42,82,144
4,42,30,144
4,42,69,144
4,42,25,144
4,42,82,144
4,42,78,144
4,42,24,144
4,42,35,144
4,42,82,144
4,42,37,144
4,42,23,144
4,42,82,144
4,42,24,144
4,42,31,528
4,42,82,144
4,42,30,144
4,42,69,144
4,42,25,144
4,42,82,144
4,42,78,144
4,42,24,144
4,42,52,144
4,42,82,144
4,42,37,144
4,42,75,336
4,42,24,144
4,42,84,336
4,42,58,144
4,42,82,144
4,42,30,144
4,42,69,144
4,42,25,144
4,42,82,144
4,42,78,144
4,42,24,144
4,42,35,144
4,42,82,144
4,42,37,144
4,42,23,144
4,42,82,144
4,42,24,144
4,42,24,336
4,42,58,144
4,42,82,144
4,42,30,144
4,42,69,144
4,42,25,144
4,42,82,144
4,42,78,144
4,42,24,144
4,42,35,144
4,42,82,144
4,42,37,144
4,42,23,144
4,42,82,144
4,42,24,144
4,42,24,336
4,42,68,144
4,42,82,144
4,42,30,144
4,42,69,144
4,42,25,144
4,42,82,144
4,42,78,144
4,42,24,144
4,42,35,144
4,42,82,144
4,42,37,144
4,42,23,144
4,42,82,144
4,42,24,144
4,42,31,528
4,42,82,144
4,42,30,144
4,42,69,144
4,42,25,144
4,42,82,144
4,42,78,144
4,42,24,144
4,42,52,144
4,42,82,144
4,42,37,144
4,42,75,336
4,42,24,144
4,42,84,336
4,42,58,144
4,42,82,144
4,42,30,144
4,42,69,144
4,42,25,144
4,42,82,144
4,42,78,144
4,42,24,144
4,42,35,144
4,42,82,144
4,42,37,144
4,42,23,144
4,42,82,144
4,42,24,144
4,42,24,336
4,42,58,144
4,42,82,144
4,42,30,144
4,42,69,144
4,42,25,144
4,42,82,144
4,42,78,144
4,42,24,144
4,42,35,144
4,42,82,144
4,42,37,144
4,42,23,144
4,42,82,144
4,42,24,144
4,42,24,336
4,42,68,144
4,42,82,144
4,42,30,144
4,42,69,144
4,42,25,144
4,42,82,144
4,42,78,144
4,42,24,144
4,42,35,144
4,42,82,144
4,42,37,144
4,42,23,144
4,42,82,144
4,42,24,144
4,42,31,528
4,42,82,144
4,42,30,144
4,42,69,144
4,42,25,144
4,42,82,144
4,42,78,144
4,42,24,144
4,42,52,144
4,42,82,144
4,42,37,144
4,42,75,336
4,42,24,144
4,42,84,336
4,42,58,144
4,42,82,144
4,42,30,144
4,42,69,144
4,42,25,144
4,42,82,144
4,42,78,144
4,42,24,144
4,42,35,144
4,42,82,144
4,42,37,144
4,42,23,144
4,42,82,144
4,42,24,144
4,42,24,336
4,42,58,144
4,42,82,144
4,42,30,144
4,42,69,144
4,42,25,144
4,42,82,144
4,42,78,144
4,42,24,144
4,42,35,144
4,42,82,144
4,42,37,144
4,42,23,144
4,42,82,144
4,42,24,144
4,42,24,336
4,42,68,144
4,42,82,144
4,42,30,144
4,42,69,144
4,42,25,144
4,42,82,144
4,42,78,144
4,42,24,144
4,42,35,144
4,42,82,144
4,42,37,144
4,42,23,144
4,42,82,144
4,42,24,144
4,42,31,528
4,42,82,144
4,42,30,144
4,42,69,144
4,42,25,144
4,42,82,144
4,42,78,144
4,42,24,144
4,42,52,144
4,42,82,144
4,42,37,144
4,42,75,336
4,42,24,144
4,42,84,336
4,42,58,144
4,42,82,144
4,42,30,144
4,42,69,144
4,42,25,144
4,42,82,144
4,42,78,144
4,42,24,144
4,42,35,144
4,42,82,144
4,42,37,144
4,42,23,144
4,42,82,144
4,42,24,144
4,42,24,336
4,42,58,144
4,42,82,144
4,42,30,144
4,42,69,144
4,42,25,144
4,42,82,144
4,42,78,144
4,42,24,144
4,42,35,144
4,42,82,144
4,42,37,144
4,42,23,144
4,42,82,144
4,42,24,144
4,42,24,336
4,42,68,144
4,42,82,144
4,42,30,144
4,42,69,144
4,42,25,144
4,42,82,144
4,42,78,144
4,42,24,144
4,42,35,144
4,42,82,144
4,42,37,144
4,42,23,144
4,42,82,144
4,42,24,144
4,42,31,528
4,42,82,144
4,42,30,144
4,42,69,144
4,42,25,144
4,42,82,144
4,42,78,144
4,42,24,144
4,42,52,144
4,42,82,144
4,42,37,144
4,42,75,336
4,42,24,144
4,42,84,336
4,42,58,144
4,42,82,144
4,42,30,144
4,42,69,144
4,42,25,144
4,42,82,144
4,42,78,144
4,42,24,144
4,42,35,144
4,42,82,144
4,42,37,144
4,42,23,144
4,42,82,144
4,42,24,144
4,42,24,336
4,42,58,144
4,42,82,144
4,42,30,144
4,42,69,144
4,42,25,144
4,42,82,144
4,42,78,144
4,42,24,144
4,42,35,144
4,42,82,144
4,42,37,144
4,42,23,144
4,42,82,144
4,42,24,144
4,42,24,336
4,42,68,144
4,42,82,144
4,42,30,144
4,42,69,144
4,42,25,144
4,42,82,144
4,42,78,144
4,42,24,144
4,42,35,144
4,42,82,144
4,42,37,144
4,42,23,144
4,42,82,144
4,42,24,144
4,42,31,528
4,42,82,144
4,42,30,144
4,42,69,144
4,42,25,144
4,42,82,144
4,42,78,144
4,42,24,144
4,42,52,144
4,42,82,144
4,42,37,144
4,42,75,336
4,42,24,144
4,42,84,336
4,42,58,144
4,42,82,144
4,42,30,144
4,42,69,144
4,42,25,144
4,42,82,144
4,42,78,144
4,42,24,144
4,42,35,144
4,42,82,144
4,42,37,144
4,42,23,144
4,42,82,144
4,42,24,144
4,42,24,336
4,42,58,144
4,42,82,144
4,42,30,144
4,42,69,144
4,42,25,144
4,42,82,144
4,42,78,144
4,42,24,144
4,42,35,144
4,42,82,144
4,42,37,144
4,42,23,144
4,42,82,144
4,42,24,144
4,42,24,336
4,42,68,144
4,42,82,144
4,42,30,144
4,42,69,144
4,42,25,144
4,42,82,144
4,42,78,144
4,42,24,144
4,42,35,144
4,42,82,144
4,42,37,144
4,42,23,144
4,42,82,144
4,42,24,144
4,42,31,528
4,42,82,144
4,42,30,144
4,42,69,144
4,42,25,144
4,42,82,144
4,42,78,144
4,42,24,144
4,42,52,144
4,42,82,144
4,42,37,144
4,42,75,336
4,42,24,144
4,42,84,336
4,42,58,144
4,42,82,144
4,42,30,144
4,42,69,144
4,42,25,144
4,42,82,144
4,42,78,144
4,42,24,144
4,42,35,144
4,42,82,144
4,42,37,144
4,42,23,144
4,42,82,144
4,42,24,144
4,42,24,336
4,42,58,144
4,42,82,144
4,42,30,144
4,42,69,144
4,42,25,144
4,42,82,144
4,42,78,144
4,42,24,144
4,42,35,144
4,42,82,144
4,42,37,144
4,42,23,144
4,42,82,144
4,42,24,144
4,42,24,336
4,42,68,144
4,42,82,144
4,42,82,3024
4,42,30,144
4,42,69,144
4,42,25,144
4,42,82,144
4,42,78,144
4,42,24,144
4,42,52,144
4,42,82,144
4,42,37,144
4,42,75,336
4,42,24,144
4,42,84,336
4,42,58,144
4,42,82,144
4,42,30,144
4,42,69,144
4,42,25,144
4,42,82,144
4,42,78,144
4,42,24,144
4,42,35,144
4,42,82,144
4,42,37,144
4,42,23,144
4,42,82,144
4,42,24,144
4,42,24,336
4,42,58,144
4,42,82,144
4,42,30,144
4,42,69,144
4,42,25,144
4,42,82,144
4,42,78,144
4,42,24,144
4,42,35,144
4,42,82,144
4,42,37,144
4,42,23,144
4,42,82,144
4,42,24,144
4,42,24,336
4,42,68,144
4,42,82,144
4,42,30,144
4,42,69,144
4,42,25,144
4,42,82,144
4,42,78,144
4,42,24,144
4,42,35,144
4,42,82,144
4,42,37,144
4,42,23,144
4,42,82,144
4,42,24,144
4,42,31,528
4,42,82,144
4,42,30,144
4,42,69,144
4,42,25,144
4,42,82,144
4,42,78,144
4,42,24,144
4,42,52,144
4,42,82,144
4,42,37,144
4,42,75,336
4,42,24,144
4,42,84,336
4,42,58,144
4,42,82,144
4,42,30,144
4,42,69,144
4,42,25,144
4,42,82,144
4,42,78,144
4,42,24,144
4,42,35,144
4,42,82,144
4,42,37,144
4,42,23,144
4,42,82,144
4,42,24,144
4,42,24,336
4,42,58,144
4,42,82,144
4,42,30,144
4,42,69,144
4,42,25,144
4,42,82,144
4,42,78,144
4,42,24,144
4,42,35,144
4,42,82,144
4,42,37,144
4,42,23,144
4,42,82,144
4,42,24,144
4,42,24,336
4,42,68,144
4,42,82,144
4,42,30,144
4,42,69,144
