track,note,velocity,time
0,36,70,124
0,60,70,0
0,64,70,0
0,67,70,0
0,64,90,0
0,76,90,0
0,48,90,0
0,60,90,0
0,64,90,0
0,52,90,84
0,64,0,105
0,76,0,14
0,64,0,0
0,84,90,1
0,72,90,0
0,55,90,0
0,72,90,0
0,60,0,136
0,72,0,96
0,84,0,0
0,72,0,0
0,72,90,8
0,84,90,0
0,72,90,0
0,60,90,0
0,60,0,74
0,52,0,8
0,67,0,36
0,64,0,0
0,60,0,0
0,52,90,2
0,55,0,20
0,72,0,90
0,84,0,8
0,72,0,0
0,64,90,2
0,76,90,0
0,64,90,0
0,60,90,0
0,36,0,118
0,55,90,2
0,60,0,21
0,48,0,13
0,36,70,1
0,60,70,0
0,65,70,0
0,69,70,0
0,65,90,0
0,77,90,0
0,48,90,0
0,60,90,0
0,65,90,0
0,52,0,17
0,53,90,61
0,72,90,1
0,84,90,0
0,57,90,0
0,72,90,0
0,65,90,0
0,65,0,287
0,60,0,24
0,72,0,164
0,69,0,3
0,36,0,0
0,60,0,0
0,65,0,0
0,60,90,2
0,72,90,0
0,60,90,0
0,72,0,2
0,84,0,0
0,57,0,73
0,48,0,5
0,53,0,1
0,74,90,39
0,62,90,0
0,62,90,0
0,60,0,19
0,72,0,0
0,60,0,0
0,62,0,67
0,74,0,21
0,62,0,0
0,36,70,9
0,60,70,0
0,64,70,0
0,67,70,0
0,64,90,0
0,76,90,0
0,48,90,0
0,64,90,0
0,60,90,0
0,52,90,41
0,79,90,9
0,67,90,0
0,67,90,0
0,76,0,10
0,64,0,0
0,64,0,0
0,67,0,212
0,79,0,8
0,67,0,0
0,79,90,10
0,67,90,0
0,67,90,0
0,67,0,118
0,36,0,120
0,60,0,0
0,64,0,0
0,72,90,2
0,60,90,0
0,60,90,0
0,67,0,1
0,79,0,0
0,67,0,15
0,53,90,1
0,57,90,0
0,48,90,0
0,60,90,0
0,36,70,10
0,60,70,0
0,65,70,0
0,69,70,0
0,72,90,10
0,60,90,0
0,77,90,162
0,65,90,0
0,65,90,0
0,60,0,37
0,60,0,20
0,72,0,0
0,60,90,2
0,48,90,0
0,48,90,0
0,57,0,21
0,53,0,9
0,77,0,1
0,65,0,0
0,62,90,89
0,50,90,0
0,50,90,0
0,60,0,20
0,48,0,0
0,48,0,0
0,65,0,74
0,36,70,1
0,64,70,0
0,67,70,0
0,60,70,0
0,48,127,0
0,52,90,0
0,64,90,0
0,48,90,0
0,52,90,0
0,60,90,0
0,67,90,131
0,55,90,0
0,55,90,0
0,64,0,13
0,52,0,0
0,60,0,123
0,60,90,104
0,72,90,0
0,60,90,0
0,67,0,6
0,55,0,0
0,52,0,50
0,60,0,62
0,67,0,0
0,64,0,0
0,52,90,2
0,60,0,88
0,60,0,28
0,72,0,0
0,36,0,2
0,55,0,1
0,64,90,1
0,76,90,0
0,64,90,0
0,60,90,0
0,55,90,120
0,60,0,21
0,48,0,13
0,45,70,4
0,62,70,0
0,65,70,0
0,69,70,0
0,45,127,0
0,65,90,0
0,77,90,0
0,48,90,0
0,60,90,0
0,65,90,0
0,53,90,61
0,86,90,22
0,74,90,0
0,57,90,0
0,74,90,0
0,65,90,0
0,77,0,6
0,65,0,0
0,65,0,281
0,60,0,24
0,86,0,157
0,74,0,0
0,69,0,10
0,65,0,0
0,62,0,0
0,72,90,2
0,60,90,0
0,60,90,0
0,74,0,16
0,57,0,59
0,48,0,5
0,53,0,1
0,45,0,37
0,74,90,2
0,62,90,0
0,62,90,0
0,60,0,19
0,72,0,0
0,60,0,0
0,62,0,67
0,45,0,23
0,52,90,3
0,40,90,1
0,40,70,0
0,64,70,0
0,60,70,0
0,67,70,0
0,52,127,0
0,64,90,0
0,76,90,0
0,64,90,0
0,64,90,0
0,60,90,1
0,67,90,3
0,72,90,2
0,84,90,0
0,72,90,0
0,60,90,0
0,76,0,10
0,64,0,0
0,64,0,0
0,64,0,8
0,67,0,2
0,60,0,56
0,40,0,42
0,72,0,92
0,84,0,0
0,72,0,9
0,45,70,21
0,60,70,0
0,64,70,0
0,69,70,0
0,45,127,0
0,72,90,0
0,84,90,0
0,72,90,0
0,64,90,1
0,45,90,1
0,57,90,0
0,60,90,1
0,67,90,1
0,52,0,2
0,76,90,2
0,60,90,0
0,64,90,0
0,84,0,7
0,72,0,0
0,64,90,4
0,64,0,5
0,72,0,8
0,60,0,19
0,64,0,173
0,43,90,1
0,64,0,5
0,57,70,5
0,60,70,0
0,65,70,0
0,43,70,0
0,43,127,0
0,65,90,0
0,55,90,0
0,65,90,0
0,60,90,0
0,57,90,0
0,77,90,0
0,45,0,1
0,79,91,228
0,67,92,0
0,67,90,0
0,65,0,47
0,77,0,11
0,59,73,2
0,62,71,0
0,67,72,0
0,43,90,0
0,62,90,0
0,59,90,0
0,55,90,0
0,60,0,4
0,65,0,1
0,55,0,8
0,43,70,227
0,43,0,358
0,43,70,122
0,59,0,240
0,67,0,0
0,62,0,0
0,59,0,1
0,62,0,0
0,43,0,4
0,43,0,2
0,67,0,6
0,55,0,0
0,67,0,11
0,43,0,170
0,79,0,31
0,48,80,0
0,64,92,0
0,67,70,0
0,62,92,0
0,55,87,0
0,60,90,0
0,76,90,0
0,79,90,0
0,74,90,0
0,67,90,0
0,55,90,0
0,62,90,0
0,64,90,0
0,55,87,48
0,67,90,0
0,62,0,37
0,74,0,0
0,67,0,4
0,79,0,0
0,64,0,2
0,76,0,0
0,62,74,77
0,74,90,0
0,55,0,112
0,67,0,0
0,67,52,8
0,79,90,0
0,64,0,0
0,62,0,0
0,55,0,0
0,52,74,21
0,64,78,0
0,60,78,0
0,57,70,0
0,64,90,0
0,76,90,0
0,72,90,0
0,69,90,0
0,53,85,0
0,69,85,0
0,60,85,0
0,64,85,0
0,67,85,0
0,60,74,66
0,64,74,0
0,57,34,0
0,72,90,0
0,76,90,0
0,69,90,0
0,60,85,0
0,57,0,24
0,69,0,0
0,60,0,176
0,57,66,40
0,69,90,0
0,64,75,0
0,64,0,5
0,76,0,0
0,52,0,7
0,64,0,0
0,60,0,7
0,72,0,0
0,57,0,24
0,69,0,0
0,64,0,157
0,43,74,40
0,50,82,0
0,59,74,0
0,57,78,0
0,62,78,0
0,55,90,0
0,62,90,0
0,71,90,0
0,69,90,0
0,74,90,0
0,69,85,0
0,55,85,0
0,59,85,0
0,62,85,0
0,62,66,18
0,59,78,0
0,57,60,0
0,50,54,0
0,74,90,0
0,71,90,0
0,69,90,0
0,62,90,0
0,55,85,0
0,50,0,175
0,62,0,0
0,55,0,25
0,57,0,13
0,69,0,0
0,59,0,3
0,71,0,0
0,62,0,7
0,74,0,0
0,50,52,17
0,62,90,0
0,59,75,0
0,43,0,18
0,55,0,0
0,50,0,41
0,62,0,0
0,59,0,141
0,44,74,40
0,59,74,0
0,56,70,0
0,52,66,0
0,56,90,0
0,71,90,0
0,68,90,0
0,64,90,0
0,52,85,0
0,68,85,0
0,59,85,0
0,62,85,0
0,64,85,0
0,52,48,40
0,64,90,0
0,56,0,48
0,68,0,0
0,59,0,20
0,71,0,0
0,56,82,172
0,64,87,0
0,68,90,0
0,76,90,0
0,59,85,0
0,64,0,174
0,76,0,0
0,44,0,16
0,56,0,0
0,59,0,10
0,56,0,32
0,68,0,0
0,62,78,8
0,74,90,0
0,62,75,0
0,52,0,16
0,64,0,0
0,62,0,48
0,74,0,0
0,62,0,136
0,45,70,40
0,59,74,0
0,64,66,0
0,52,70,0
0,57,90,0
0,71,90,0
0,76,90,0
0,64,90,0
0,45,85,0
0,71,85,0
0,60,85,0
0,64,85,0
0,67,85,0
0,59,66,73
0,64,44,0
0,52,48,0
0,71,90,0
0,76,90,0
0,64,90,0
0,60,85,0
0,52,0,128
0,64,0,0
0,60,0,72
0,64,0,38
0,76,0,0
0,52,56,2
0,64,90,0
0,64,75,0
0,59,0,10
0,45,0,0
0,71,0,0
0,57,0,0
0,52,0,118
0,64,0,0
0,64,0,72
0,52,66,2
0,64,54,0
0,60,66,0
0,57,66,0
0,45,70,0
0,64,90,0
0,76,90,0
0,72,90,0
0,69,90,0
0,57,90,0
0,69,85,0
0,57,85,0
0,60,85,0
0,64,85,0
0,64,66,80
0,60,74,0
0,55,82,0
0,43,78,0
0,52,66,0
0,76,90,0
0,72,90,0
0,67,90,0
0,55,90,0
0,64,90,0
0,67,85,0
0,55,85,0
0,60,85,0
0,64,85,0
0,52,82,74
0,64,90,0
0,43,0,27
0,55,0,0
0,55,0,4
0,67,0,0
0,60,0,22
0,72,0,0
0,64,0,12
0,76,0,0
0,52,0,15
0,64,0,0
0,64,0,80
0,67,0,0
0,55,0,0
0,60,0,0
0,41,66,12
0,57,82,0
0,60,78,0
0,53,66,0
0,53,90,0
0,69,90,0
0,72,90,0
0,65,90,0
0,65,85,0
0,60,85,0
0,57,85,0
0,53,75,40
0,53,0,240
0,57,80,0
0,64,70,240
0,76,90,0
0,57,0,0
0,60,75,0
0,53,0,37
0,65,0,0
0,60,0,6
0,72,0,0
0,57,0,29
0,69,0,0
0,64,0,54
0,76,0,0
0,41,0,99
0,53,0,0
0,52,74,15
0,64,70,0
0,60,78,0
0,55,78,0
0,64,90,0
0,76,90,0
0,72,90,0
0,67,90,0
0,60,0,0
0,64,85,0
0,60,85,0
0,55,85,0
0,64,95,40
0,55,0,49
0,67,0,0
0,55,60,71
0,67,90,0
0,64,0,0
0,60,85,0
0,60,0,25
0,72,0,0
0,64,0,16
0,76,0,0
0,55,0,31
0,67,0,0
0,60,0,48
0,55,85,0
0,52,0,100
0,64,0,0
0,57,78,20
0,60,87,0
0,45,82,0
0,64,74,0
0,69,90,0
0,72,90,0
0,57,90,0
0,76,90,0
0,55,0,0
0,57,85,0
0,60,85,0
0,64,85,0
0,53,78,170
0,65,90,0
0,64,0,8
0,76,0,0
0,45,0,6
0,57,0,0
0,60,0,1
0,72,0,0
0,57,0,16
0,69,0,0
0,53,0,42
0,65,0,0
0,64,0,87
0,60,0,0
0,57,0,0
0,41,90,5
0,53,65,0
0,57,65,0
0,60,65,0
0,41,90,0
0,55,92,0
0,57,82,0
0,60,87,0
0,53,78,0
0,55,90,0
0,69,90,0
0,72,90,0
0,65,90,0
0,55,85,0
0,57,85,0
0,60,85,0
0,65,85,0
0,57,78,94
0,60,66,0
0,53,60,0
0,69,90,0
0,72,90,0
0,65,90,0
0,53,0,146
0,65,0,0
0,53,60,94
0,65,90,0
0,60,0,1
0,72,0,0
0,57,0,16
0,69,0,0
0,65,0,103
0,55,0,0
0,57,0,0
0,60,0,0
0,57,78,120
0,60,78,0
0,69,90,0
0,72,90,0
0,53,0,69
0,65,0,0
0,53,66,291
0,65,90,0
0,60,0,2
0,72,0,0
0,57,0,3
0,69,0,0
0,57,78,115
0,69,90,0
0,60,0,34
0,57,0,18
0,53,0,12
0,55,0,1
0,55,0,0
0,55,87,55
0,55,90,0
0,53,0,84
0,65,0,0
0,53,60,36
0,65,90,0
0,57,0,21
0,69,0,0
0,55,0,2
0,55,0,0
0,57,52,97
0,60,78,0
0,69,90,0
0,72,90,0
0,53,0,10
0,65,0,0
0,60,0,31
0,72,0,0
0,57,0,11
0,69,0,0
0,41,0,66
0,41,0,0
0,36,90,2
0,62,65,0
0,55,65,0
0,64,65,0
0,67,65,0
0,36,90,0
0,48,74,0
0,67,82,0
0,55,70,0
0,64,78,0
0,62,78,0
0,60,90,0
0,79,90,0
0,67,90,0
0,76,90,0
0,74,90,0
0,48,90,0
0,67,90,0
0,55,90,0
0,62,90,0
0,64,90,0
0,35,64,0
0,62,63,72
0,64,82,0
0,67,78,0
0,55,66,0
0,74,90,0
0,76,90,0
0,79,90,0
0,67,90,0
0,42,70,0
0,37,74,0
0,67,0,142
0,64,0,1
0,55,0,11
0,67,0,0
0,55,0,1
0,62,0,4
0,55,58,81
0,67,90,0
0,37,0,0
0,42,0,0
0,67,0,3
0,79,0,0
0,64,0,1
0,76,0,0
0,62,0,7
0,74,0,0
0,55,0,52
0,67,0,0
0,64,0,57
0,55,0,0
0,48,0,0
0,67,0,0
0,62,0,0
0,36,0,118
0,36,0,0
0,41,90,2
0,57,65,0
0,60,65,0
0,64,65,0
0,41,90,0
0,52,74,0
0,60,74,0
0,64,78,0
0,57,82,0
0,64,90,0
0,72,90,0
0,76,90,0
0,69,90,0
0,69,90,0
0,60,90,0
0,64,90,0
0,67,90,0
0,35,64,0
0,42,70,0
0,48,0,5
0,60,0,0
0,57,54,45
0,69,90,0
0,42,0,0
0,35,0,0
0,64,0,34
0,76,0,0
0,60,0,10
0,72,0,0
0,64,0,176
0,60,0,15
0,60,78,5
0,64,63,0
0,72,90,0
0,76,90,0
0,37,74,0
0,42,70,0
0,57,0,11
0,57,0,102
0,69,0,0
0,52,0,26
0,64,0,0
0,57,63,101
0,69,90,0
0,42,0,0
0,37,0,0
0,35,64,0
0,64,0,14
0,76,0,0
0,60,0,8
0,72,0,0
0,57,0,14
0,69,0,0
0,67,0,84
0,69,0,0
0,60,0,0
0,64,0,0
0,35,0,0
0,41,0,118
0,41,0,0
0,43,90,2
0,55,65,0
0,57,65,0
0,62,65,0
0,43,90,0
0,43,87,0
0,50,78,0
0,57,70,0
0,59,78,0
0,62,46,0
0,55,90,0
0,62,90,0
0,69,90,0
0,71,90,0
0,74,90,0
0,69,85,0
0,55,85,0
0,59,85,0
0,62,85,0
0,35,64,0
0,62,63,35
0,57,60,0
0,50,56,0
0,59,60,0
0,74,90,0
0,69,90,0
0,62,90,0
0,71,90,0
0,55,85,0
0,42,70,0
0,37,74,0
0,62,0,76
0,57,0,4
0,55,0,5
0,59,0,88
0,50,0,0
0,71,0,0
0,62,0,0
0,57,0,3
0,69,0,0
0,62,0,11
0,74,0,0
0,55,0,13
0,50,78,40
0,62,90,0
0,59,75,0
0,37,0,0
0,42,0,0
0,43,0,43
0,55,0,0
0,50,0,34
0,62,0,0
0,59,0,123
0,44,90,2
0,59,65,0
0,62,65,0
0,56,65,0
0,64,65,0
0,44,90,0
0,44,74,0
0,59,78,0
0,56,78,0
0,52,78,0
0,56,90,0
0,71,90,0
0,68,90,0
0,64,90,0
0,64,85,0
0,62,85,0
0,59,85,0
0,68,85,0
0,35,64,0
0,42,70,0
0,52,85,40
0,42,0,0
0,35,0,0
0,56,0,107
0,68,0,0
0,59,0,10
0,71,0,0
0,52,66,3
0,64,90,0
0,64,102,120
0,76,90,0
0,52,0,0
0,59,75,0
0,37,74,0
0,42,70,0
0,52,0,62
0,64,0,0
0,64,0,34
0,56,0,0
0,62,0,10
0,59,0,0
0,52,60,14
0,64,90,0
0,64,0,28
0,76,0,0
0,56,82,92
0,68,90,0
0,59,0,0
0,64,80,0
0,62,80,0
0,59,80,0
0,68,80,0
0,42,0,0
0,37,0,0
0,35,64,0
0,44,0,14
0,56,0,0
0,62,66,106
0,74,90,0
0,35,0,0
0,56,0,37
0,68,0,0
0,52,0,8
0,64,0,0
0,62,0,18
0,74,0,0
0,68,0,17
0,64,0,0
0,62,0,0
0,59,0,0
0,44,0,38
0,44,0,0
0,45,90,2
0,52,65,0
0,59,65,0
0,60,65,0
0,45,90,0
0,45,78,0
0,59,70,0
0,64,82,0
0,52,78,0
0,60,78,0
0,57,90,0
0,71,90,0
0,76,90,0
0,64,90,0
0,72,90,0
0,71,85,0
0,60,85,0
0,64,85,0
0,67,85,0
0,35,64,0
0,59,74,93
0,64,66,0
0,60,74,0
0,52,63,0
0,71,90,0
0,76,90,0
0,72,90,0
0,64,90,0
0,60,85,0
0,42,70,0
0,37,74,0
0,52,0,170
0,64,0,0
0,60,0,30
0,60,0,7
0,59,0,9
0,52,0,23
0,52,60,1
0,64,90,0
0,64,75,0
0,37,0,0
0,42,0,0
0,64,0,200
0,52,65,4
0,57,65,0
0,60,65,0
0,60,74,0
0,57,66,0
0,64,70,0
0,45,70,0
0,52,66,0
0,72,90,0
0,69,90,0
0,76,90,0
0,57,90,0
0,64,90,0
