track,note,velocity,time
0,42,63,0
0,42,62,0
0,42,62,0
0,42,61,0
0,53,72,0
0,65,89,0
0,60,88,0
0,53,75,24
0,60,77,0
0,65,80,0
0,53,65,0
0,65,74,0
0,60,81,0
0,53,65,22
0,65,83,0
0,60,83,0
0,53,82,70
0,60,86,0
0,65,88,0
0,53,79,0
0,41,85,0
0,29,99,0
0,53,80,0
0,65,93,0
0,60,86,0
0,53,88,2
0,65,86,0
0,60,82,0
0,53,82,0
0,60,82,156
0,65,85,0
0,53,89,48
0,41,93,0
0,57,88,0
0,53,82,0
0,60,91,0
0,55,97,0
0,57,94,0
0,53,67,0
0,57,95,0
0,57,106,0
0,65,80,2
0,60,84,0
0,53,67,16
0,65,80,32
0,60,80,0
0,53,61,2
0,57,81,118
0,60,81,0
0,48,80,0
0,53,72,0
0,57,100,0
0,57,100,0
0,55,85,0
0,61,87,0
0,58,84,0
0,41,91,0
0,57,103,0
0,55,78,0
0,58,95,0
0,55,105,0
0,65,91,18
0,58,87,0
0,61,91,0
0,55,72,0
0,53,96,0
0,57,105,0
0,53,85,16
0,57,92,0
0,60,92,0
0,53,65,16
0,60,85,92
0,57,87,0
0,65,87,0
0,57,64,114
0,51,101,92
0,60,93,0
0,57,88,0
0,67,99,0
0,57,78,36
0,60,92,78
0,67,96,0
0,48,82,0
0,57,81,0
0,57,100,0
0,57,99,0
0,60,87,0
0,66,87,0
0,50,96,0
0,57,103,0
0,57,76,0
0,58,92,0
0,55,105,0
0,66,91,16
0,60,91,0
0,57,80,0
0,54,95,0
0,55,106,0
0,62,87,32
0,67,91,0
0,43,87,0
0,58,82,0
0,58,68,4
0,67,94,100
0,62,97,0
0,58,82,0
0,58,65,6
0,43,70,0
0,45,59,34
0,65,91,68
0,58,85,0
0,46,94,0
0,61,88,0
0,58,70,0
0,57,108,0
0,53,101,0
0,65,85,2
0,61,73,0
0,58,51,0
0,52,94,0
0,53,99,0
0,45,91,0
0,53,75,0
0,65,86,0
0,60,85,0
0,53,66,6
0,65,93,48
0,60,88,0
0,53,73,14
0,58,77,0
0,53,82,0
0,61,87,0
0,43,88,0
0,53,71,30
0,58,77,0
0,40,91,0
0,67,78,0
0,60,83,0
0,41,93,0
0,57,88,0
0,53,82,0
0,60,91,0
0,55,97,0
0,57,94,0
0,53,67,0
0,57,95,0
0,57,106,0
0,65,80,2
0,60,84,0
0,53,67,16
0,29,107,96
0,53,90,0
0,41,90,0
0,60,90,0
0,57,90,0
0,65,80,24
0,60,80,0
0,29,114,0
0,53,90,0
0,60,90,0
0,57,90,0
0,41,90,0
0,53,61,2
0,57,81,118
0,60,81,0
0,48,80,0
0,53,72,0
0,57,100,0
0,57,100,0
0,55,85,0
0,61,87,0
0,58,84,0
0,41,91,0
0,57,103,0
0,61,90,0
0,58,90,0
0,55,78,0
0,58,95,0
0,55,105,0
0,65,91,10
0,58,87,0
0,61,91,0
0,55,72,0
0,53,96,0
0,57,105,0
0,53,85,16
0,57,92,0
0,60,92,0
0,60,90,0
0,57,90,0
0,53,65,10
0,60,85,92
0,57,87,0
0,65,87,0
0,57,64,114
0,51,101,4
0,60,93,0
0,57,88,0
0,67,99,0
0,39,107,0
0,57,90,0
0,55,90,0
0,60,90,0
0,39,90,0
0,57,78,36
0,60,92,78
0,67,96,0
0,48,82,0
0,57,81,0
0,57,100,0
0,57,99,0
0,60,87,0
0,66,87,0
0,50,96,0
0,38,103,0
0,57,103,0
0,57,90,0
0,54,90,0
0,60,90,0
0,38,90,0
0,57,76,0
0,58,92,0
0,55,105,0
0,66,91,10
0,60,91,0
0,57,80,0
0,54,95,0
0,55,106,0
0,62,87,14
0,67,91,0
0,43,87,0
0,58,82,0
0,43,98,0
0,55,90,0
0,53,90,0
0,58,90,0
0,43,90,0
0,58,68,4
0,67,94,100
0,62,97,0
0,58,82,0
0,58,65,6
0,43,70,0
0,45,59,12
0,45,76,0
0,65,91,4
0,58,85,0
0,46,94,0
0,61,88,0
0,46,86,0
0,61,90,0
0,55,90,0
0,58,90,0
0,46,90,0
0,58,70,0
0,57,108,0
0,53,101,0
0,65,85,10
0,61,73,0
0,58,51,0
0,52,94,0
0,53,99,0
0,53,87,0
0,57,88,0
0,60,91,0
0,45,103,0
0,45,90,0
0,65,90,0
0,53,90,0
0,60,90,0
0,65,88,126
0,75,95,0
0,72,93,0
0,65,68,14
0,66,94,2
0,50,96,0
0,74,100,0
0,66,69,4
0,72,110,122
0,62,44,80
0,65,98,120
0,67,98,0
0,43,109,0
0,62,94,0
0,71,95,0
0,62,73,36
0,49,94,0
0,70,87,0
0,67,106,0
0,65,94,0
0,61,82,50
0,48,87,48
0,60,97,0
0,70,94,0
0,67,95,0
0,60,87,32
0,45,101,0
0,48,99,0
0,48,90,84
0,45,99,0
0,70,87,24
0,67,91,0
0,41,70,96
0,45,81,0
0,69,87,0
0,45,102,0
0,41,113,0
0,29,113,0
0,57,123,0
0,53,120,0
0,60,118,0
0,41,113,0
0,29,127,0
0,41,90,0
0,57,90,0
0,48,90,0
0,49,96,0
0,35,120,0
0,53,87,0
0,60,111,0
0,42,68,0
0,60,114,24
0,57,118,0
0,53,110,0
0,38,123,0
0,42,101,0
0,41,96,0
0,29,101,0
0,53,81,0
0,29,109,0
0,67,113,0
0,42,70,0
0,35,75,26
0,53,105,14
0,57,107,0
0,60,107,0
0,41,105,0
0,29,109,0
0,29,127,0
0,42,96,0
0,35,127,0
0,53,82,0
0,69,112,0
0,42,62,0
0,53,110,78
0,60,113,0
0,57,118,0
0,42,108,0
0,38,125,0
0,53,85,0
0,29,107,0
0,60,109,0
0,35,89,0
0,42,70,0
0,31,106,14
0,57,111,20
0,60,107,0
0,64,102,0
0,45,107,0
0,33,102,0
0,33,118,0
0,52,90,0
0,45,90,0
0,60,90,0
0,42,101,0
0,35,123,0
0,57,86,20
0,42,59,0
0,57,107,84
0,64,111,0
0,60,111,0
0,42,108,0
0,38,127,0
0,33,99,28
0,45,99,0
0,33,113,0
0,42,66,0
0,58,92,0
0,35,81,0
0,64,106,0
0,60,109,0
0,57,107,0
0,33,102,0
0,45,106,0
0,33,121,0
0,57,110,0
0,42,98,0
0,35,125,0
0,58,104,0
0,57,77,0
0,60,111,0
0,42,62,0
0,60,111,6
0,57,107,0
0,64,109,0
0,38,127,0
0,42,108,0
0,57,74,0
0,36,91,0
0,35,76,0
0,42,77,0
0,38,98,10
0,60,106,20
0,55,109,0
0,27,90,0
0,63,105,0
0,39,96,0
0,39,115,0
0,51,90,0
0,67,90,0
0,60,90,0
0,42,98,0
0,35,127,0
0,60,112,0
0,42,59,0
0,55,114,8
0,60,110,0
0,63,107,0
0,42,105,0
0,38,125,0
0,39,87,0
0,39,97,0
0,67,113,0
0,42,61,0
0,35,78,38
0,60,103,6
0,62,106,0
0,54,101,0
0,38,114,0
0,26,109,0
0,38,110,0
0,50,90,0
0,60,90,0
0,66,90,0
0,35,125,0
0,42,110,0
0,54,79,0
0,69,112,0
0,42,40,0
0,60,102,12
0,54,102,0
0,62,107,0
0,38,127,0
0,42,115,0
0,54,87,0
0,58,109,0
0,42,71,0
0,35,76,0
0,50,102,18
0,43,113,0
0,58,105,0
0,55,109,0
0,43,120,0
0,58,90,0
0,43,90,0
0,65,90,0
0,42,105,0
0,35,125,0
0,50,81,28
0,42,48,0
0,58,101,28
0,55,105,0
0,38,127,0
0,42,97,0
0,57,108,0
0,41,60,28
0,43,68,0
0,43,95,0
0,42,67,0
0,45,100,0
0,55,98,0
0,35,92,0
0,55,105,0
0,61,112,0
0,58,115,0
0,46,113,0
0,46,110,0
0,55,111,0
0,61,90,0
0,46,90,0
0,55,90,0
0,35,121,0
0,46,100,0
0,55,90,6
0,38,70,0
0,38,127,22
0,48,113,6
0,60,110,0
0,52,103,0
0,58,105,0
0,48,103,0
0,52,90,0
0,67,90,0
0,60,90,0
0,35,95,0
0,48,84,84
0,58,95,18
0,36,110,0
0,45,127,0
0,35,87,42
0,29,113,40
0,57,123,0
0,53,120,0
0,60,118,0
0,41,113,0
0,29,127,0
0,41,103,0
0,41,90,0
0,57,90,0
0,48,90,0
0,49,96,0
0,35,120,0
0,48,111,84
0,53,87,0
0,55,123,0
0,60,111,0
0,42,68,0
0,57,114,16
0,60,114,24
0,57,118,0
0,53,110,0
0,60,127,0
0,38,123,0
0,42,101,0
0,54,115,0
0,41,96,0
0,29,101,0
0,53,81,0
0,29,109,0
0,67,113,0
0,42,70,0
0,35,75,26
0,53,105,14
0,57,107,0
0,60,107,0
0,41,105,0
0,29,109,0
0,29,127,0
0,42,96,0
0,35,127,0
0,53,82,0
0,69,112,0
0,42,62,0
0,53,110,78
0,60,113,0
0,57,118,0
0,42,108,0
0,38,125,0
0,54,115,0
0,53,85,0
0,29,107,0
0,60,109,0
0,35,89,0
0,42,70,0
0,31,106,14
0,57,111,20
0,60,107,0
0,64,102,0
0,45,107,0
0,33,102,0
0,33,118,0
0,45,110,0
0,52,90,0
0,45,90,0
0,60,90,0
0,42,101,0
0,35,123,0
0,52,125,30
0,57,86,20
0,55,123,0
0,42,59,0
0,67,114,84
0,57,107,84
0,64,111,0
0,60,111,0
0,64,105,0
0,42,108,0
0,38,127,0
0,54,115,0
0,33,99,28
0,45,99,0
0,33,113,0
0,42,66,0
0,58,92,0
0,35,81,0
0,64,106,0
0,60,109,0
0,57,107,0
0,33,102,0
0,45,106,0
0,33,121,0
0,57,110,0
0,42,98,0
0,35,125,0
0,58,104,0
0,57,77,0
0,60,111,0
0,42,62,0
0,60,111,6
0,57,107,0
0,64,109,0
0,38,127,0
0,42,108,0
0,54,119,0
0,57,74,0
0,36,91,0
0,35,76,0
0,42,77,0
0,38,98,6
0,60,106,20
0,55,109,0
0,27,90,0
0,63,105,0
0,39,96,0
0,39,115,0
0,51,113,0
0,51,90,0
0,67,90,0
0,60,90,0
0,42,98,0
0,35,127,0
0,55,116,84
0,60,103,0
0,60,112,0
0,42,59,0
0,67,116,6
0,55,114,8
0,60,110,0
0,63,107,0
0,42,105,0
0,38,125,0
0,54,113,0
0,39,87,0
0,39,97,0
0,67,113,0
0,42,61,0
0,35,78,38
0,60,103,6
0,62,106,0
0,54,101,0
0,38,114,0
0,26,109,0
0,38,110,0
0,50,113,0
0,50,90,0
0,60,90,0
0,66,90,0
0,35,125,0
0,42,110,0
0,54,107,12
0,54,79,0
0,60,98,0
0,69,112,0
0,42,40,0
0,66,108,42
0,60,102,12
0,54,102,0
0,62,107,0
0,38,127,0
0,42,115,0
0,54,115,0
0,54,87,0
0,58,109,0
0,42,71,0
0,35,76,0
0,50,102,14
0,43,113,0
0,58,105,0
0,55,109,0
0,43,125,0
0,43,111,0
0,58,90,0
0,43,90,0
0,65,90,0
0,42,88,0
0,35,118,0
0,50,107,14
0,50,81,28
0,53,101,0
0,42,38,0
0,58,115,16
0,58,101,28
0,55,105,0
0,42,100,0
0,38,116,0
0,54,112,0
0,57,108,0
0,41,60,28
0,43,68,0
0,42,71,0
0,55,98,0
0,35,86,0
0,55,105,0
0,61,112,0
0,58,115,0
0,46,113,0
0,37,115,0
0,55,101,0
0,61,101,0
0,55,111,0
0,61,90,0
0,46,90,0
0,55,90,0
0,38,102,0
0,35,109,0
0,38,82,0
0,55,90,6
0,38,116,0
0,48,113,0
0,60,110,0
0,52,103,0
0,58,105,0
0,36,125,0
0,52,89,0
0,60,89,0
0,52,90,0
0,67,90,0
0,60,90,0
0,35,94,0
0,48,84,0
0,54,115,0
0,48,102,84
0,58,95,22
0,48,123,0
0,41,93,0
0,57,88,0
0,53,82,0
0,60,91,0
0,29,127,0
0,55,97,0
0,41,116,0
0,57,114,0
0,48,102,0
0,49,92,0
0,35,121,0
0,57,94,0
0,53,67,0
0,57,95,0
0,42,63,0
0,57,106,0
0,65,80,2
0,60,84,0
0,38,121,0
0,42,97,0
0,53,67,16
0,29,111,0
0,42,70,0
0,35,78,84
0,65,80,32
0,60,80,0
0,29,127,0
0,72,80,0
0,35,127,0
0,42,110,0
0,53,61,2
0,42,69,0
0,57,81,26
0,60,81,0
0,65,80,0
0,38,127,0
0,42,108,0
0,48,80,0
0,53,72,0
0,57,100,0
0,35,63,0
0,42,68,0
0,57,100,0
0,55,85,0
0,61,87,0
0,58,84,0
0,41,91,0
0,57,103,0
0,49,105,0
0,58,90,0
0,73,80,0
0,35,123,0
0,42,101,0
0,55,78,0
0,58,95,0
0,42,64,0
0,55,105,0
0,65,91,24
0,58,87,0
0,61,91,0
0,42,112,0
0,38,125,0
0,55,72,0
0,53,96,0
0,42,70,0
0,29,91,0
0,57,105,0
0,35,61,0
0,53,85,16
0,57,92,0
0,60,92,0
0,29,121,0
0,41,105,0
0,57,105,0
0,48,109,0
0,72,80,0
0,35,121,0
0,42,100,0
0,53,65,4
0,42,67,0
0,60,85,14
0,57,87,0
0,65,87,0
0,77,80,0
0,38,123,0
0,42,110,0
0,57,64,34
0,36,102,0
0,35,91,0
0,42,68,0
0,41,105,12
0,51,101,4
0,60,93,0
0,57,88,0
0,67,99,0
0,39,115,0
0,55,105,0
0,60,107,0
0,51,108,0
0,84,80,0
0,42,98,0
0,35,123,0
0,57,78,36
0,42,64,0
0,60,92,78
0,67,96,0
0,42,107,0
0,38,123,0
0,48,82,0
0,57,81,0
0,39,108,0
0,57,100,0
0,42,87,0
0,57,99,0
0,35,66,0
0,60,87,0
0,66,87,0
0,50,96,0
0,38,118,0
0,57,103,0
0,54,95,0
0,50,101,0
0,42,105,0
0,35,123,0
0,57,76,0
0,58,92,0
0,42,61,0
0,55,105,0
0,66,91,6
0,60,91,0
0,38,125,0
0,42,112,0
0,57,80,0
0,54,95,0
0,35,76,0
0,42,64,0
0,55,106,0
0,62,87,6
0,67,91,0
0,43,87,0
0,58,82,0
0,43,113,0
0,62,101,0
0,55,91,0
0,58,98,0
0,43,103,0
0,82,80,0
0,35,125,0
0,42,91,0
0,58,68,4
0,42,68,0
0,67,94,100
0,62,97,0
0,58,82,0
0,42,105,0
0,38,127,0
0,58,65,6
0,43,70,0
0,42,78,0
0,45,59,10
0,45,98,0
0,35,82,0
0,65,91,4
0,58,85,0
0,46,94,0
0,61,88,0
0,46,101,0
0,58,89,0
0,61,94,0
0,55,91,0
0,46,98,0
0,35,121,0
0,42,102,0
0,58,70,0
0,57,108,0
0,42,66,0
0,53,101,0
0,65,85,10
0,61,73,0
0,38,125,0
0,42,104,0
0,58,51,0
0,52,94,0
0,42,61,0
0,53,99,0
0,45,91,0
0,53,75,0
0,65,86,0
0,60,85,0
0,45,109,0
0,53,91,0
0,45,110,0
0,60,93,0
0,84,80,0
0,35,121,0
0,42,96,0
0,53,66,8
0,42,66,0
0,65,93,48
0,60,88,0
0,42,100,0
0,38,123,0
0,53,73,14
0,42,77,0
0,35,83,42
0,58,77,12
0,53,82,0
0,61,87,0
0,43,88,0
0,43,107,0
0,53,103,0
0,58,105,0
0,43,111,0
0,85,80,0
0,49,81,0
0,35,120,0
0,53,71,30
0,38,100,0
0,58,77,20
0,40,91,0
0,67,78,0
0,60,83,0
0,40,102,0
0,58,107,0
0,52,100,0
0,84,80,0
0,46,107,0
0,35,118,0
0,40,83,84
0,48,96,0
0,45,120,84
0,35,70,84
0,41,93,2
0,57,88,0
0,53,82,0
0,60,91,0
0,41,123,0
0,57,90,0
0,60,90,0
0,41,90,0
0,53,90,0
0,69,112,0
0,49,90,0
0,35,121,0
0,69,120,4
0,72,95,4
0,72,103,16
0,53,67,14
0,69,106,0
0,51,51,0
0,69,114,4
0,79,108,16
0,79,116,16
0,65,80,2
0,60,84,0
0,53,101,0
0,38,118,0
0,53,67,16
0,53,72,0
0,29,120,12
0,35,94,0
0,65,80,16
0,60,80,0
0,29,123,0
0,53,90,0
0,60,90,0
0,57,90,0
0,41,90,0
0,35,123,0
0,53,91,0
0,53,61,2
0,53,68,0
0,57,81,118
0,60,81,0
0,53,91,0
0,38,120,0
