track,note,velocity,time
4,74,127,248
4,74,0,201
4,75,97,0
4,75,0,17
4,74,121,0
4,72,107,22
4,74,0,9
4,72,0,392
4,64,116,155
4,67,103,58
4,64,0,7
4,64,89,220
4,62,103,29
4,64,0,10
4,67,0,10
4,62,0,3
4,62,112,8
4,60,96,24
4,62,0,6
4,60,0,377
4,60,116,634
4,60,0,29
4,60,126,31
4,60,0,29
4,63,127,1
4,63,0,59
4,67,127,31
4,67,0,149
4,63,111,121
4,63,0,59
4,67,127,1
4,67,0,29
4,65,127,31
4,65,0,149
4,68,127,121
4,68,0,29
4,68,103,31
4,68,0,29
4,68,127,1
4,68,0,59
4,70,127,1
4,70,0,59
4,67,127,31
4,67,0,59
4,65,116,1
4,65,0,29
4,63,76,1
4,63,0,59
4,67,127,1
4,67,0,59
4,67,127,1
4,67,0,89
4,65,110,1
4,65,0,299
4,60,127,181
4,60,0,29
4,60,127,1
4,60,0,59
4,60,127,1
4,60,0,29
4,63,127,31
4,63,0,59
4,67,127,31
4,67,0,119
4,60,112,121
4,60,0,29
4,63,126,1
4,63,0,59
4,67,127,1
4,67,0,29
4,65,126,31
4,65,0,209
4,67,126,31
4,67,0,29
4,68,127,1
4,68,0,29
4,68,112,31
4,68,0,29
4,68,127,1
4,68,0,59
4,70,123,1
4,70,0,29
4,67,127,31
4,67,0,89
4,65,125,1
4,65,0,29
4,63,123,31
4,63,0,59
4,67,121,1
4,67,0,59
4,67,127,1
4,67,0,89
4,65,95,1
4,65,0,269
4,67,127,181
4,67,0,29
4,67,127,31
4,67,0,29
4,67,95,1
4,67,0,29
4,67,118,1
4,67,0,29
4,67,116,1
4,67,0,29
4,67,127,1
4,67,0,59
4,67,127,1
4,67,0,29
4,64,127,31
4,64,0,59
4,67,127,1
4,67,0,89
4,67,127,31
4,67,0,29
4,67,127,31
4,67,0,29
4,68,127,1
4,68,0,29
4,68,127,1
4,68,0,29
4,68,105,1
4,68,0,29
4,68,127,1
4,68,0,59
4,70,127,1
4,70,0,29
4,67,127,31
4,67,0,59
4,65,125,1
4,65,0,29
4,67,127,1
4,67,0,89
4,64,121,1
4,64,0,29
4,64,127,31
4,64,0,59
4,67,127,1
4,67,0,29
4,74,127,1
4,74,0,89
4,72,118,1
4,72,0,29
4,72,127,31
4,72,0,59
4,74,118,1
4,74,0,29
4,76,123,1
4,74,99,120
4,74,0,29
4,72,116,1
4,76,0,59
4,72,0,181
4,67,115,30
4,67,0,29
4,69,115,1
4,69,0,29
4,67,127,1
4,67,0,89
4,67,123,1
4,67,0,29
4,67,127,31
4,67,0,29
4,67,125,1
4,67,0,29
4,67,118,1
4,67,0,29
4,67,118,1
4,67,0,29
4,67,127,1
4,67,0,59
4,67,118,1
4,67,0,29
4,64,127,31
4,64,0,59
4,67,127,1
4,67,0,89
4,67,127,31
4,67,0,29
4,67,127,31
4,67,0,29
4,68,123,1
4,68,0,29
4,68,127,1
4,68,0,29
4,68,121,1
4,68,0,29
4,68,127,1
4,68,0,59
4,70,127,1
4,70,0,29
4,67,127,31
4,67,0,59
4,65,97,1
4,65,0,29
4,67,127,1
4,67,0,119
4,64,127,31
4,64,0,59
4,67,127,1
4,67,0,29
4,74,127,1
4,74,0,89
4,72,115,1
4,72,0,29
4,72,127,1
4,72,0,59
4,74,127,31
4,74,0,29
4,76,127,31
4,74,113,92
4,76,0,3
4,72,112,25
4,74,0,8
4,72,0,352
4,60,127,537
4,60,0,34
4,60,127,26
4,60,0,43
4,60,127,15
4,60,0,15
4,63,127,18
4,63,0,83
4,67,127,13
4,67,0,21
4,63,118,0
4,63,0,29
4,60,127,82
4,60,0,35
4,63,127,22
4,63,0,51
4,67,121,7
4,67,0,25
4,65,127,11
4,65,0,151
4,67,115,85
4,67,0,12
4,68,127,18
4,68,0,46
4,68,117,10
4,68,0,12
4,68,127,19
4,68,0,58
4,70,121,9
4,70,0,24
4,65,116,28
4,67,127,1
4,65,0,11
4,67,0,78
4,65,126,2
4,63,126,60
4,65,0,5
4,63,0,57
4,67,117,0
4,67,0,15
4,67,127,39
4,67,0,93
4,65,110,0
4,65,0,2
4,60,107,62
4,60,0,10
4,60,127,46
4,60,0,47
4,60,123,11
4,60,0,29
4,63,125,0
4,63,0,92
4,67,118,4
4,65,76,110
4,67,0,1
4,65,0,3
4,70,99,69
4,70,0,25
4,67,127,28
4,65,126,8
4,67,0,3
4,65,0,35
4,63,110,23
4,65,86,29
4,63,0,3
4,65,0,21
4,65,126,15
4,65,0,177
4,67,121,59
4,67,0,12
4,68,127,14
4,68,0,37
4,68,103,16
4,68,0,9
4,68,127,26
4,68,0,42
4,70,127,16
4,70,0,61
4,65,88,6
4,67,127,0
4,65,0,6
4,67,0,78
4,65,127,3
4,65,0,31
4,63,115,36
4,67,127,35
4,63,0,2
4,67,0,103
4,67,127,27
4,67,0,52
4,72,127,10
4,72,0,37
4,74,122,0
4,74,0,34
4,74,127,12
4,69,127,149
4,74,0,8
4,71,121,1
4,69,0,9
4,71,0,53
4,69,92,6
4,69,0,21
4,67,86,6
4,67,0,13
4,67,127,17
4,67,127,62
4,67,0,25
4,67,127,33
4,67,0,18
4,67,126,11
4,67,0,15
4,67,127,9
4,67,0,15
4,67,0,11
4,67,127,2
4,67,0,14
4,67,127,20
4,67,0,52
4,67,127,15
4,67,0,21
4,64,127,32
4,64,0,55
4,67,127,1
4,67,0,85
4,67,127,41
4,67,0,29
4,67,127,31
4,67,0,29
4,68,127,1
4,68,0,29
4,68,127,1
4,68,0,29
4,68,105,1
4,68,0,29
4,68,127,1
4,68,0,59
4,70,127,1
4,70,0,29
4,67,127,31
4,67,0,59
4,65,125,1
4,65,0,29
4,67,127,1
4,67,0,89
4,64,121,1
4,64,0,29
4,64,127,31
4,64,0,59
4,67,127,1
4,67,0,29
4,74,127,1
4,74,0,89
4,72,118,1
4,72,0,29
4,72,127,31
4,72,0,59
4,74,118,1
4,74,0,29
4,76,123,1
4,74,99,120
4,74,0,29
4,72,116,1
4,76,0,59
4,72,0,181
4,67,115,30
4,67,0,29
4,69,115,1
4,69,0,29
4,67,127,1
4,67,0,89
4,67,123,1
4,67,0,29
4,67,127,31
4,67,0,29
4,67,125,1
4,67,0,29
4,67,118,1
4,67,0,29
4,67,118,1
4,67,0,29
4,67,127,1
4,67,0,59
4,67,118,1
4,67,0,29
4,64,127,31
4,64,0,59
4,67,127,1
4,67,0,89
4,67,127,31
4,67,0,29
4,67,127,31
4,67,0,29
4,68,123,1
4,68,0,29
4,68,127,1
4,68,0,29
4,68,121,1
4,68,0,29
4,68,127,1
4,68,0,59
4,70,127,1
4,70,0,29
4,67,127,31
4,67,0,59
4,65,97,1
4,65,0,29
4,67,127,1
4,67,0,119
4,64,127,31
4,64,0,59
4,67,127,1
4,67,0,29
4,74,127,1
4,74,0,89
4,72,115,1
4,72,0,29
4,72,127,1
4,72,0,59
4,74,127,31
4,74,0,29
4,76,127,31
4,74,113,92
4,76,0,3
4,72,112,25
4,74,0,8
4,72,0,352
4,60,126,535
4,60,0,54
4,60,127,13
4,60,0,37
4,60,123,17
4,60,0,25
4,63,127,11
4,63,0,92
4,67,127,2
4,67,0,159
4,67,127,14
4,67,0,51
4,65,121,3
4,63,117,32
4,65,0,3
4,63,0,84
4,67,127,3
4,67,0,42
4,67,127,21
4,67,0,237
4,67,127,9
4,67,0,86
4,67,127,9
4,67,0,83
4,68,126,1
4,68,0,63
4,65,127,0
4,65,0,61
4,63,91,1
4,63,0,24
4,63,85,4
4,58,116,92
4,63,0,7
4,67,127,53
4,58,0,1
4,67,0,476
4,67,127,51
4,67,0,32
4,67,127,29
4,67,0,53
4,65,115,7
4,65,0,20
4,65,127,15
4,65,0,85
4,63,121,8
4,63,0,71
4,65,126,47
4,67,125,30
4,65,0,4
4,68,127,32
4,67,0,1
4,67,118,159
4,68,0,7
4,67,0,35
4,67,127,8
4,67,0,91
4,65,127,0
4,65,0,199
4,70,127,32
4,70,0,31
4,70,127,28
4,70,0,53
4,67,127,3
4,67,0,36
4,72,127,3
4,72,0,83
4,70,127,0
4,70,0,237
4,67,123,3
4,67,0,53
4,72,127,9
4,72,0,56
4,74,115,5
4,74,0,20
4,74,127,11
4,71,127,156
4,74,0,7
4,69,107,53
4,71,0,4
4,69,0,24
4,67,105,3
4,67,0,299
4,72,127,3562
4,72,0,53
4,72,127,7
4,70,118,30
4,72,0,4
4,70,0,50
4,70,127,6
4,70,0,42
4,67,127,18
4,69,127,60
4,67,0,5
4,72,121,25
4,69,0,1
4,72,0,20
4,72,127,9
4,72,0,1
4,67,127,65
4,67,0,29
4,67,127,31
4,67,0,29
4,67,95,1
4,67,0,29
4,67,118,1
4,67,0,29
4,67,116,1
4,67,0,29
4,67,127,1
4,67,0,59
4,67,127,1
4,67,0,29
4,64,127,31
4,64,0,59
4,67,127,1
4,67,0,89
4,67,127,31
4,67,0,29
4,67,127,31
4,67,0,29
4,68,127,1
4,68,0,29
4,68,127,1
4,68,0,29
4,68,105,1
4,68,0,29
4,68,127,1
4,68,0,59
4,70,127,1
4,70,0,29
4,67,127,31
4,67,0,59
4,65,125,1
4,65,0,29
4,67,127,1
4,67,0,89
4,64,121,1
4,64,0,29
4,64,127,31
4,64,0,59
4,67,127,1
4,67,0,29
4,74,127,1
4,74,0,89
4,72,118,1
4,72,0,29
4,72,127,31
4,72,0,59
4,74,118,1
4,74,0,29
4,76,123,1
4,74,99,120
4,74,0,29
4,72,116,1
4,76,0,59
4,72,0,181
4,67,115,30
4,67,0,29
4,69,115,1
4,69,0,29
4,67,127,1
4,67,0,89
4,67,123,1
4,67,0,29
4,67,127,31
4,67,0,29
4,67,125,1
4,67,0,29
4,67,118,1
4,67,0,29
4,67,118,1
4,67,0,29
4,67,127,1
4,67,0,59
4,67,118,1
4,67,0,29
4,64,127,31
4,64,0,59
4,67,127,1
4,67,0,89
4,67,127,31
4,67,0,29
4,67,127,31
4,67,0,29
4,68,123,1
4,68,0,29
4,68,127,1
4,68,0,29
4,68,121,1
4,68,0,29
4,68,127,1
4,68,0,59
4,70,127,1
4,70,0,29
4,67,127,31
4,67,0,59
4,65,97,1
4,65,0,29
4,67,127,1
4,67,0,119
4,64,127,31
4,64,0,59
4,67,127,1
4,67,0,29
4,74,127,1
4,74,0,89
4,72,115,1
4,72,0,29
4,72,127,1
4,72,0,59
4,74,127,31
4,74,0,29
4,76,127,31
4,74,113,92
4,76,0,3
4,72,112,25
4,74,0,8
4,72,0,352
4,60,127,537
4,60,0,34
4,60,127,26
4,60,0,43
4,60,127,15
4,60,0,15
4,63,127,18
4,63,0,83
4,67,127,13
4,67,0,21
4,63,118,0
4,63,0,29
4,60,127,82
4,60,0,35
4,63,127,22
4,63,0,51
4,67,121,7
4,67,0,25
4,65,127,11
4,65,0,151
4,67,115,85
4,67,0,12
4,68,127,18
4,68,0,46
4,68,117,10
4,68,0,12
4,68,127,19
4,68,0,58
4,70,121,9
4,70,0,24
4,65,116,28
4,67,127,1
4,65,0,11
4,67,0,78
4,65,126,2
4,63,126,60
4,65,0,5
4,63,0,57
4,67,117,0
4,67,0,15
4,67,127,39
4,67,0,93
4,65,110,0
4,65,0,2
4,60,107,62
4,60,0,10
4,60,127,46
4,60,0,47
4,60,123,11
4,60,0,29
4,63,125,0
4,63,0,92
4,67,118,4
4,65,76,110
4,67,0,1
4,65,0,3
4,70,99,69
4,70,0,25
4,67,127,28
4,65,126,8
4,67,0,3
4,65,0,35
4,63,110,23
4,65,86,29
4,63,0,3
4,65,0,21
4,65,126,15
4,65,0,177
4,67,121,59
4,67,0,12
4,68,127,14
4,68,0,37
4,68,103,16
4,68,0,9
4,68,127,26
4,68,0,42
4,70,127,16
4,70,0,61
4,65,88,6
4,67,127,0
4,65,0,6
4,67,0,78
4,65,127,3
4,65,0,31
4,63,115,36
4,67,127,35
4,63,0,2
4,67,0,103
4,67,127,27
4,67,0,52
4,72,127,10
4,72,0,37
4,74,122,0
4,74,0,34
4,74,127,12
4,69,127,149
4,74,0,8
4,71,121,1
4,69,0,9
4,71,0,53
4,69,92,6
4,69,0,21
4,67,86,6
4,67,0,13
4,67,127,17
4,67,127,62
4,67,0,25
4,67,127,33
4,67,0,18
4,67,126,11
4,67,0,15
4,67,127,9
4,67,0,15
4,67,0,11
4,67,127,2
4,67,0,14
4,67,127,20
4,67,0,52
4,67,127,15
4,67,0,21
4,64,127,32
4,64,0,55
4,67,127,1
4,67,0,85
4,67,127,41
4,67,0,29
4,67,127,31
4,67,0,29
4,68,127,1
4,68,0,29
4,68,127,1
4,68,0,29
4,68,105,1
4,68,0,29
4,68,127,1
4,68,0,59
4,70,127,1
4,70,0,29
4,67,127,31
4,67,0,59
4,65,125,1
4,65,0,29
4,67,127,1
4,67,0,89
4,64,121,1
4,64,0,29
4,64,127,31
4,64,0,59
4,67,127,1
4,67,0,29
4,74,127,1
4,74,0,89
4,72,118,1
4,72,0,29
4,72,127,31
4,72,0,59
4,74,118,1
4,74,0,29
4,76,123,1
4,74,99,120
4,74,0,29
4,72,116,1
4,76,0,59
4,72,0,181
4,67,115,30
4,67,0,29
4,69,115,1
4,69,0,29
4,67,127,1
4,67,0,89
4,67,123,1
4,67,0,29
4,67,127,31
4,67,0,29
4,67,125,1
4,67,0,29
4,67,118,1
4,67,0,29
4,67,118,1
4,67,0,29
4,67,127,1
4,67,0,59
4,67,118,1
4,67,0,29
4,64,127,31
4,64,0,59
4,67,127,1
4,67,0,89
4,67,127,31
4,67,0,29
4,67,127,31
4,67,0,29
4,68,123,1
4,68,0,29
4,68,127,1
4,68,0,29
4,68,121,1
4,68,0,29
4,68,127,1
4,68,0,59
4,70,127,1
4,70,0,29
4,67,127,31
4,67,0,59
4,65,97,1
4,65,0,29
4,67,127,1
4,67,0,119
4,64,127,31
4,64,0,59
4,67,127,1
4,67,0,29
4,74,127,1
4,74,0,89
4,72,115,1
4,72,0,29
4,72,127,1
4,72,0,59
4,74,127,31
4,74,0,29
4,76,127,31
4,74,113,92
4,76,0,3
4,72,112,25
4,74,0,8
4,72,0,352
4,60,126,535
4,60,0,54
4,60,127,13
4,60,0,37
4,60,123,17
4,60,0,25
4,63,127,11
4,63,0,92
4,67,127,2
4,67,0,159
4,67,127,14
4,67,0,51
4,65,121,3
4,63,117,32
4,65,0,3
4,63,0,84
4,67,127,3
4,67,0,42
4,67,127,21
4,67,0,237
4,67,127,9
4,67,0,86
4,67,127,9
4,67,0,83
4,68,126,1
4,68,0,63
4,65,127,0
4,65,0,61
4,63,91,1
4,63,0,24
4,63,85,4
4,58,116,92
4,63,0,7
4,67,127,53
4,58,0,1
4,67,0,476
4,67,127,51
4,67,0,32
4,67,127,29
4,67,0,53
4,65,115,7
4,65,0,20
4,65,127,15
4,65,0,85
4,63,121,8
4,63,0,71
4,65,126,47
4,67,125,30
4,65,0,4
4,68,127,32
4,67,0,1
4,67,118,159
4,68,0,7
4,67,0,35
4,67,127,8
4,67,0,91
4,65,127,0
4,65,0,199
4,70,127,32
4,70,0,31
4,70,127,28
4,70,0,53
4,67,127,3
4,67,0,36
4,72,127,3
4,72,0,83
4,70,127,0
4,70,0,237
4,67,123,3
4,67,0,53
4,72,127,9
4,72,0,56
4,74,115,5
4,74,0,20
4,74,127,11
4,71,127,156
4,74,0,7
4,69,107,53
4,71,0,4
4,69,0,24
4,67,105,3
4,67,127,24
4,67,127,62
4,67,0,25
4,67,127,33
4,67,0,18
4,67,126,11
4,67,0,15
4,67,127,9
4,67,0,15
4,67,0,11
4,67,127,2
4,67,0,14
4,67,127,20
4,67,0,40
4,67,0,12
4,67,127,15
4,67,0,21
4,64,127,32
4,64,0,55
4,67,127,1
4,67,0,85
4,67,127,41
4,67,0,29
4,67,127,31
4,67,0,29
4,68,127,1
4,68,0,29
4,68,127,1
4,68,0,29
4,68,105,1
4,68,0,29
4,68,127,1
4,68,0,59
4,70,127,1
4,70,0,29
