track,note,velocity,time
0,72,110,0
0,58,110,0
0,58,110,0
0,74,110,1
0,62,110,0
0,74,0,59
0,62,0,0
0,74,110,1
0,65,110,0
0,74,0,59
0,65,0,0
0,74,110,1
0,62,110,0
0,74,0,29
0,74,110,1
0,58,0,0
0,62,0,29
0,57,110,1
0,57,110,0
0,57,0,59
0,62,110,1
0,62,0,59
0,65,110,1
0,74,0,40
0,65,0,19
0,74,110,1
0,62,110,0
0,74,0,29
0,77,110,1
0,57,0,0
0,77,0,29
0,62,0,0
0,77,110,1
0,55,110,0
0,55,110,0
0,77,0,59
0,55,0,0
0,79,110,1
0,58,110,0
0,79,0,59
0,58,0,0
0,79,110,1
0,62,110,0
0,79,0,59
0,62,0,0
0,79,110,1
0,58,110,0
0,79,0,29
0,79,110,1
0,55,0,0
0,58,0,29
0,53,110,1
0,53,110,0
0,79,0,30
0,77,110,0
0,53,0,29
0,77,0,1
0,74,110,0
0,58,110,0
0,74,0,59
0,58,0,0
0,62,110,1
0,62,0,59
0,74,110,1
0,58,110,0
0,74,0,29
0,77,110,1
0,53,0,0
0,77,0,29
0,58,0,0
0,77,110,1
0,51,110,0
0,51,110,0
0,77,0,59
0,51,0,0
0,79,110,1
0,55,110,0
0,79,0,29
0,79,110,1
0,79,0,29
0,55,0,0
0,79,110,1
0,58,110,0
0,79,0,59
0,58,0,0
0,79,110,1
0,55,110,0
0,79,0,29
0,79,110,1
0,51,0,0
0,55,0,29
0,50,110,1
0,50,110,0
0,79,0,59
0,50,0,0
0,77,110,1
0,55,110,0
0,77,0,59
0,55,0,0
0,58,110,1
0,58,0,59
0,77,110,1
0,55,110,0
0,77,0,29
0,75,110,1
0,50,0,0
0,75,0,29
0,55,0,0
0,75,110,1
0,48,110,0
0,48,110,0
0,75,0,59
0,48,0,0
0,74,110,1
0,51,110,0
0,74,0,59
0,51,0,0
0,74,110,1
0,55,110,0
0,74,0,29
0,72,110,1
0,55,0,29
0,51,110,1
0,48,0,30
0,72,0,29
0,51,0,0
0,72,110,1
0,46,110,0
0,46,110,0
0,46,0,59
0,51,110,1
0,72,0,40
0,51,0,19
0,55,110,1
0,55,0,59
0,70,110,1
0,51,110,0
0,70,0,29
0,70,110,1
0,46,0,0
0,70,0,29
0,51,0,0
0,70,110,1
0,53,110,0
0,53,110,0
0,70,0,59
0,53,0,0
0,72,110,1
0,57,110,0
0,72,0,29
0,72,110,1
0,72,0,29
0,57,0,0
0,72,110,1
0,60,110,0
0,72,0,59
0,60,0,0
0,72,110,1
0,57,110,0
0,72,0,29
0,72,110,1
0,53,0,0
0,57,0,29
0,51,110,1
0,51,110,0
0,51,0,59
0,55,110,1
0,55,0,59
0,58,110,1
0,72,0,40
0,58,0,19
0,74,110,1
0,55,110,0
0,74,0,29
0,75,110,1
0,51,0,0
0,75,0,29
0,55,0,0
0,75,110,1
0,50,110,0
0,50,110,0
0,75,0,59
0,50,0,0
0,77,110,1
0,53,110,0
0,77,0,59
0,53,0,0
0,77,110,1
0,58,110,0
0,77,0,29
0,77,110,1
0,58,0,29
0,53,110,1
0,50,0,30
0,77,0,29
0,53,0,0
0,70,110,1
0,51,110,0
0,51,110,0
0,51,0,59
0,55,110,1
0,70,0,40
0,55,0,19
0,58,110,1
0,58,0,59
0,70,110,1
0,55,110,0
0,51,0,30
0,70,0,29
0,55,0,0
0,75,110,1
0,48,110,0
0,48,110,0
0,75,0,59
0,48,0,0
0,74,110,1
0,51,110,0
0,51,0,59
0,55,110,1
0,74,0,59
0,55,0,0
0,72,110,1
0,51,110,0
0,72,0,29
0,70,110,1
0,48,0,0
0,70,0,29
0,51,0,0
0,75,110,1
0,46,110,0
0,46,110,0
0,75,0,59
0,46,0,0
0,74,110,1
0,51,110,0
0,51,0,59
0,55,110,1
0,74,0,29
0,72,110,1
0,72,0,29
0,55,0,0
0,70,110,1
0,51,110,0
0,70,0,29
0,70,110,1
0,46,0,0
0,51,0,29
0,41,110,1
0,53,110,0
0,70,0,59
0,72,110,1
0,72,0,59
0,72,110,1
0,72,0,59
0,72,110,1
0,72,0,29
0,65,110,1
0,72,110,0
0,41,0,0
0,53,0,0
0,43,110,30
0,57,110,0
0,72,0,59
0,65,0,0
0,65,110,1
0,65,0,59
0,74,110,1
0,74,0,29
0,72,110,1
0,72,0,29
0,72,110,1
0,43,0,30
0,57,0,0
0,72,0,29
0,70,110,1
0,46,110,0
0,50,110,0
0,46,0,160
0,46,110,20
0,70,0,30
0,50,0,0
0,46,0,29
0,65,110,1
0,70,110,0
0,74,110,0
0,45,110,0
0,57,110,0
0,74,0,100
0,70,0,0
0,65,0,0
0,65,110,20
0,70,110,0
0,74,110,0
0,45,0,40
0,45,110,20
0,57,0,30
0,74,0,10
0,70,0,0
0,65,0,0
0,45,0,19
0,67,110,1
0,70,110,0
0,74,110,0
0,43,110,0
0,43,110,0
0,74,0,100
0,70,0,0
0,67,0,0
0,67,110,20
0,70,110,0
0,74,110,0
0,43,0,40
0,43,110,20
0,43,0,30
0,74,0,10
0,70,0,0
0,67,0,0
0,43,0,19
0,67,110,1
0,70,110,0
0,75,110,0
0,51,110,0
0,51,110,0
0,75,0,100
0,70,0,0
0,67,0,0
0,51,0,0
0,51,0,0
0,70,110,20
0,53,110,0
0,53,110,0
0,70,0,59
0,72,110,1
0,53,0,40
0,53,0,0
0,72,0,19
0,72,110,1
0,58,110,0
0,58,110,0
0,72,0,59
0,58,0,0
0,74,110,1
0,62,110,0
0,74,0,59
0,62,0,0
0,74,110,1
0,65,110,0
0,74,0,59
0,65,0,0
0,74,110,1
0,62,110,0
0,74,0,29
0,74,110,1
0,58,0,0
0,62,0,29
0,57,110,1
0,57,110,0
0,57,0,59
0,62,110,1
0,62,0,59
0,65,110,1
0,74,0,40
0,65,0,19
0,74,110,1
0,62,110,0
0,74,0,29
0,77,110,1
0,57,0,0
0,77,0,29
0,62,0,0
0,77,110,1
0,55,110,0
0,55,110,0
0,77,0,59
0,55,0,0
0,79,110,1
0,58,110,0
0,79,0,59
0,58,0,0
0,79,110,1
0,62,110,0
0,79,0,59
0,62,0,0
0,79,110,1
0,58,110,0
0,79,0,29
0,79,110,1
0,55,0,0
0,58,0,29
0,53,110,1
0,53,110,0
0,79,0,30
0,77,110,0
0,53,0,29
0,77,0,1
0,74,110,0
0,58,110,0
0,74,0,59
0,58,0,0
0,62,110,1
0,62,0,59
0,74,110,1
0,58,110,0
0,74,0,29
0,77,110,1
0,53,0,0
0,77,0,29
0,58,0,0
0,77,110,1
0,51,110,0
0,51,110,0
0,77,0,59
0,51,0,0
0,79,110,1
0,55,110,0
0,79,0,29
0,79,110,1
0,79,0,29
0,55,0,0
0,79,110,1
0,58,110,0
0,79,0,59
0,58,0,0
0,79,110,1
0,55,110,0
0,79,0,29
0,79,110,1
0,51,0,0
0,55,0,29
0,50,110,1
0,50,110,0
0,79,0,59
0,50,0,0
0,77,110,1
0,55,110,0
0,77,0,59
0,55,0,0
0,58,110,1
0,58,0,59
0,77,110,1
0,55,110,0
0,77,0,29
0,75,110,1
0,50,0,0
0,75,0,29
0,55,0,0
0,75,110,1
0,48,110,0
0,48,110,0
0,75,0,59
0,48,0,0
0,74,110,1
0,51,110,0
0,74,0,59
0,51,0,0
0,74,110,1
0,55,110,0
0,74,0,29
0,72,110,1
0,55,0,29
0,51,110,1
0,48,0,30
0,72,0,29
0,51,0,0
0,72,110,1
0,46,110,0
0,46,110,0
0,46,0,59
0,51,110,1
0,72,0,40
0,51,0,19
0,55,110,1
0,55,0,59
0,70,110,1
0,51,110,0
0,70,0,29
0,70,110,1
0,46,0,0
0,70,0,29
0,51,0,0
0,70,110,1
0,53,110,0
0,53,110,0
0,70,0,59
0,53,0,0
0,72,110,1
0,57,110,0
0,72,0,29
0,72,110,1
0,72,0,29
0,57,0,0
0,72,110,1
0,60,110,0
0,72,0,59
0,60,0,0
0,72,110,1
0,57,110,0
0,72,0,29
0,72,110,1
0,53,0,0
0,57,0,29
0,51,110,1
0,51,110,0
0,51,0,59
0,55,110,1
0,55,0,59
0,58,110,1
0,72,0,40
0,58,0,19
0,74,110,1
0,55,110,0
0,74,0,29
0,75,110,1
0,51,0,0
0,75,0,29
0,55,0,0
0,75,110,1
0,50,110,0
0,50,110,0
0,75,0,59
0,50,0,0
0,77,110,1
0,53,110,0
0,77,0,59
0,53,0,0
0,77,110,1
0,58,110,0
0,77,0,29
0,77,110,1
0,58,0,29
0,53,110,1
0,50,0,30
0,77,0,29
0,53,0,0
0,70,110,1
0,51,110,0
0,51,110,0
0,51,0,59
0,55,110,1
0,70,0,40
0,55,0,19
0,58,110,1
0,58,0,59
0,70,110,1
0,55,110,0
0,51,0,30
0,70,0,29
0,55,0,0
0,75,110,1
0,48,110,0
0,48,110,0
0,75,0,59
0,48,0,0
0,74,110,1
0,51,110,0
0,51,0,59
0,55,110,1
0,74,0,59
0,55,0,0
0,72,110,1
0,51,110,0
0,72,0,29
0,70,110,1
0,48,0,0
0,70,0,29
0,51,0,0
0,75,110,1
0,46,110,0
0,46,110,0
0,75,0,59
0,46,0,0
0,74,110,1
0,51,110,0
0,51,0,59
0,55,110,1
0,74,0,29
0,72,110,1
0,72,0,29
0,55,0,0
0,70,110,1
0,51,110,0
0,70,0,29
0,70,110,1
0,46,0,0
0,51,0,29
0,41,110,1
0,53,110,0
0,70,0,59
0,72,110,1
0,72,0,59
0,72,110,1
0,72,0,59
0,72,110,1
0,72,0,29
0,65,110,1
0,72,110,0
0,41,0,0
0,53,0,0
0,43,110,30
0,57,110,0
0,72,0,59
0,65,0,0
0,65,110,1
0,65,0,59
0,74,110,1
0,74,0,29
0,72,110,1
0,72,0,29
0,72,110,1
0,43,0,30
0,57,0,0
0,72,0,29
0,70,110,1
0,46,110,0
0,65,110,0
0,70,110,0
0,74,110,0
0,46,0,160
0,46,110,20
0,70,0,30
0,74,0,0
0,70,0,0
0,65,0,0
0,46,0,29
0,65,110,1
0,70,110,0
0,74,110,0
0,45,110,0
0,57,110,0
0,65,110,0
0,70,110,0
0,74,110,0
0,74,0,89
0,70,0,0
0,65,0,0
0,65,110,1
0,65,0,29
0,74,110,1
0,74,0,29
0,72,110,1
0,45,0,10
0,72,0,19
0,72,110,1
0,45,110,0
0,72,0,30
0,70,110,0
0,74,0,0
0,57,0,0
0,65,0,0
0,70,0,0
0,70,0,29
0,45,0,0
0,62,110,1
0,67,110,0
0,70,110,0
0,43,110,0
0,62,110,0
0,67,110,0
0,70,110,0
0,70,0,120
0,67,0,0
0,62,0,0
0,72,110,0
0,72,0,30
0,70,110,0
0,43,0,10
0,70,0,20
0,67,110,0
0,43,110,0
0,70,0,30
0,67,0,0
0,62,0,0
0,67,0,29
0,43,0,0
0,41,110,1
0,53,110,0
0,62,110,0
0,67,110,0
0,70,110,0
0,74,110,90
0,74,0,29
0,75,110,1
0,75,0,29
0,74,110,1
0,74,0,29
0,74,110,1
0,74,0,30
0,72,110,0
0,41,0,0
0,70,0,0
0,53,0,0
0,62,0,0
0,67,0,0
0,72,0,29
0,72,110,1
0,36,110,0
0,60,110,0
0,63,110,0
0,67,110,0
0,36,0,160
0,36,110,20
0,72,0,30
0,67,0,0
0,63,0,0
0,60,0,0
0,36,0,29
0,34,110,1
0,58,110,0
0,60,110,0
0,63,110,0
0,67,110,0
0,72,110,90
0,72,0,29
0,67,110,1
0,75,110,0
0,75,0,29
0,67,0,0
0,67,110,1
0,75,110,0
0,75,0,29
0,67,0,0
0,74,110,1
0,74,0,30
0,72,110,0
0,34,0,0
0,67,0,0
0,58,0,0
0,60,0,0
0,63,0,0
0,72,0,29
0,65,110,1
0,70,110,0
0,72,110,0
0,41,110,0
0,65,110,0
0,70,110,0
0,72,110,0
0,41,0,160
0,41,110,20
0,72,0,30
0,70,0,0
0,65,0,0
0,72,0,0
0,70,0,0
0,65,0,0
0,41,0,29
0,41,110,1
0,65,110,0
0,69,110,0
0,72,110,0
0,72,110,90
0,41,0,10
0,72,0,19
0,74,110,1
0,41,110,0
0,74,0,29
0,72,110,1
0,72,0,29
0,72,110,1
0,72,0,30
0,70,110,0
0,72,0,0
0,69,0,0
0,65,0,0
0,41,0,10
0,70,0,19
0,62,110,0
0,70,110,0
0,46,110,0
0,62,110,0
0,65,110,0
0,70,110,0
0,46,0,100
0,46,110,20
0,46,0,59
0,46,110,1
0,70,0,30
0,62,0,0
0,70,0,0
0,65,0,0
0,62,0,0
0,46,0,29
0,65,110,0
0,69,110,0
0,72,110,0
0,41,110,0
0,77,110,0
0,72,0,100
0,69,0,0
0,65,0,0
0,65,110,20
0,69,110,0
0,72,110,0
0,41,0,40
0,41,110,20
0,77,0,30
0,72,0,10
0,69,0,0
0,65,0,0
0,41,0,19
0,65,110,1
0,69,110,0
0,72,110,0
0,39,110,0
0,75,110,0
0,72,0,100
0,69,0,0
0,65,0,0
0,65,110,20
0,69,110,0
0,72,110,0
0,39,0,40
0,39,110,20
0,75,0,30
0,72,0,10
0,69,0,0
0,65,0,0
0,39,0,19
0,65,110,1
0,70,110,0
0,74,110,0
0,46,110,0
0,82,110,0
0,74,0,100
0,70,0,0
0,65,0,0
0,65,110,20
0,70,110,0
0,74,110,0
0,46,0,40
0,46,110,20
0,82,0,30
0,74,0,10
0,70,0,0
0,65,0,0
0,46,0,19
0,65,110,1
0,70,110,0
0,74,110,0
0,45,110,0
0,81,110,0
0,74,0,100
0,70,0,0
0,65,0,0
0,65,110,20
0,70,110,0
0,74,110,0
0,45,0,40
0,45,110,20
0,81,0,30
0,74,0,10
0,70,0,0
0,65,0,0
0,45,0,19
0,67,110,1
0,70,110,0
0,74,110,0
0,43,110,0
0,79,110,0
0,74,0,100
0,70,0,0
0,67,0,0
0,67,110,20
0,70,110,0
0,74,110,0
0,43,0,40
0,43,110,20
0,79,0,30
0,74,0,10
0,70,0,0
0,67,0,0
0,43,0,19
0,67,110,1
0,70,110,0
0,74,110,0
0,41,110,0
0,77,110,0
0,74,0,100
0,70,0,0
0,67,0,0
0,41,0,60
0,62,110,20
0,41,110,0
0,62,0,29
0,65,110,1
0,77,0,0
0,65,0,29
0,41,0,0
0,58,110,0
0,65,110,0
0,39,110,0
0,75,110,0
0,65,0,59
0,58,0,0
0,67,110,1
0,67,0,59
0,58,110,1
0,67,110,0
0,39,0,40
0,67,0,19
0,58,0,0
0,65,110,1
0,39,110,0
0,65,0,29
0,58,110,1
0,67,110,0
0,75,0,0
0,39,0,29
0,50,110,1
0,74,110,0
0,67,0,100
0,58,0,0
0,50,0,60
0,67,110,20
0,50,110,0
0,67,0,29
0,70,110,1
0,74,0,0
0,70,0,29
0,50,0,0
0,63,110,1
0,70,110,0
0,48,110,0
0,72,110,0
0,70,0,59
0,63,0,0
0,72,110,1
0,72,0,59
0,63,110,1
0,72,110,0
0,48,0,40
0,72,0,19
0,63,0,0
0,70,110,1
0,48,110,0
0,72,0,30
0,70,0,29
0,48,0,0
0,63,110,1
0,72,110,0
0,46,110,0
0,70,110,0
0,72,0,30
0,63,0,0
0,70,110,0
0,70,0,30
0,67,110,0
0,67,0,59
0,46,0,41
0,67,110,20
0,46,110,0
0,67,0,29
0,70,110,1
0,70,0,0
0,70,0,29
0,46,0,0
0,63,110,1
0,70,110,0
0,44,110,0
0,68,110,0
0,70,0,59
0,63,0,0
0,72,110,1
0,72,0,29
0,63,110,1
0,72,110,0
0,44,0,70
0,72,0,19
0,63,0,0
0,72,110,1
0,44,110,0
0,68,0,30
0,72,0,29
0,44,0,0
0,63,110,1
0,72,110,0
0,43,110,0
0,67,110,0
0,72,0,59
0,63,0,0
0,70,110,1
0,70,0,59
0,70,110,1
0,43,0,40
0,70,0,19
0,68,110,1
0,43,110,0
0,68,0,29
0,68,110,1
0,67,0,0
0,68,0,29
0,43,0,0
0,60,110,1
0,68,110,0
0,41,110,0
0,65,110,0
0,68,0,59
0,60,0,0
0,67,110,1
0,67,0,29
