track,note,velocity,time
0,56,106,0
0,68,106,0
0,61,120,0
0,73,120,0
0,61,120,0
0,73,120,0
0,25,98,22
0,61,103,0
0,25,108,0
0,56,83,0
0,53,100,0
0,37,108,0
0,61,120,0
0,36,127,0
0,57,61,0
0,73,120,0
0,58,110,0
0,82,83,0
0,70,110,0
0,61,120,0
0,73,120,0
0,37,127,59
0,58,110,0
0,70,110,0
0,25,98,15
0,37,108,0
0,25,108,0
0,61,120,0
0,36,127,0
0,73,120,0
0,82,83,17
0,53,86,79
0,56,65,0
0,56,106,0
0,68,106,0
0,56,65,21
0,61,100,0
0,61,120,0
0,82,83,0
0,73,120,0
0,37,127,14
0,38,127,1
0,63,110,0
0,61,120,0
0,41,127,0
0,73,120,0
0,45,122,16
0,30,108,4
0,58,103,0
0,30,98,0
0,61,87,0
0,42,108,0
0,54,84,0
0,61,120,0
0,36,127,0
0,73,120,0
0,61,120,0
0,82,83,0
0,73,120,0
0,58,110,0
0,70,110,0
0,37,127,10
0,61,120,0
0,73,120,0
0,82,83,2
0,58,110,0
0,70,110,0
0,30,98,10
0,42,108,0
0,30,108,0
0,61,120,0
0,36,127,0
0,73,120,0
0,82,83,18
0,58,61,0
0,54,58,0
0,58,106,0
0,70,106,0
0,61,103,0
0,54,54,0
0,82,83,0
0,61,120,0
0,73,120,0
0,37,127,23
0,38,127,1
0,63,107,0
0,43,117,0
0,63,120,0
0,75,120,0
0,48,112,14
0,63,119,0
0,75,119,0
0,58,79,26
0,65,98,0
0,34,98,1
0,61,109,0
0,56,59,0
0,34,108,0
0,46,108,0
0,36,127,0
0,63,116,0
0,75,116,0
0,82,83,0
0,63,106,0
0,75,106,0
0,37,127,20
0,63,120,0
0,75,120,0
0,61,110,0
0,73,110,0
0,34,98,13
0,46,108,0
0,34,108,0
0,36,127,0
0,61,120,0
0,73,120,0
0,82,83,40
0,56,106,0
0,68,106,0
0,65,86,30
0,63,120,0
0,82,83,0
0,75,120,0
0,37,127,29
0,38,127,1
0,65,94,14
0,56,65,0
0,64,120,0
0,76,120,0
0,63,120,0
0,75,120,0
0,44,108,3
0,32,108,0
0,61,79,0
0,32,98,1
0,54,68,0
0,65,72,0
0,58,103,0
0,36,127,0
0,63,110,0
0,82,83,0
0,75,110,0
0,63,120,0
0,75,120,0
0,37,127,59
0,82,83,6
0,61,110,0
0,73,110,0
0,61,120,0
0,73,120,0
0,44,108,1
0,32,98,1
0,63,72,0
0,32,108,0
0,36,127,0
0,82,83,1
0,65,120,0
0,77,120,0
0,61,85,7
0,82,83,0
0,66,120,0
0,78,120,0
0,37,127,17
0,38,127,1
0,43,115,4
0,63,84,0
0,61,61,0
0,66,120,0
0,78,120,0
0,65,120,0
0,41,126,0
0,77,120,0
0,66,120,0
0,78,120,0
0,41,108,45
0,60,95,0
0,29,108,0
0,68,66,0
0,56,62,0
0,29,98,1
0,63,95,0
0,36,127,0
0,82,83,0
0,66,110,0
0,78,110,0
0,66,120,0
0,78,120,0
0,37,127,56
0,66,110,0
0,78,110,0
0,41,108,18
0,29,108,0
0,29,98,0
0,66,120,0
0,36,127,0
0,78,120,0
0,82,83,13
0,56,59,20
0,68,120,0
0,80,120,0
0,60,94,9
0,68,120,0
0,82,83,0
0,80,120,0
0,37,127,37
0,38,127,1
0,63,88,0
0,68,120,0
0,41,111,0
0,80,120,0
0,47,117,20
0,68,120,0
0,80,120,0
0,30,98,1
0,58,67,0
0,65,102,0
0,42,108,0
0,61,101,1
0,68,63,0
0,30,108,0
0,36,127,0
0,68,110,0
0,82,83,0
0,80,110,0
0,68,120,0
0,80,120,0
0,37,127,59
0,82,83,10
0,68,120,0
0,80,120,0
0,30,108,6
0,42,108,0
0,30,98,0
0,63,120,0
0,36,127,0
0,75,120,0
0,82,83,65
0,58,93,71
0,82,83,0
0,37,127,37
0,38,127,1
0,61,110,13
0,63,120,0
0,43,123,0
0,75,120,0
0,45,117,3
0,41,102,19
0,32,98,17
0,61,84,0
0,63,69,0
0,44,108,0
0,54,59,0
0,58,84,0
0,32,108,0
0,63,120,0
0,36,127,0
0,75,120,0
0,63,110,0
0,82,83,0
0,75,110,0
0,63,120,0
0,75,120,0
0,37,127,59
0,61,110,0
0,73,110,0
0,32,98,0
0,44,108,0
0,32,108,0
0,61,120,0
0,36,127,0
0,73,120,0
0,82,83,71
0,58,106,0
0,70,106,0
0,61,120,0
0,82,83,0
0,73,120,0
0,37,127,6
0,38,127,0
0,58,93,13
0,54,72,0
0,63,89,0
0,32,108,0
0,44,108,0
0,61,95,0
0,63,110,0
0,36,127,0
0,75,110,0
0,32,98,2
0,35,108,15
0,47,108,0
0,68,68,0
0,63,110,0
0,61,73,0
0,35,98,0
0,66,110,0
0,66,120,0
0,36,127,0
0,78,120,0
0,66,117,0
0,82,83,0
0,78,117,0
0,66,116,0
0,78,116,0
0,37,127,2
0,82,83,18
0,66,110,0
0,78,110,0
0,34,98,1
0,68,65,0
0,61,62,0
0,34,108,0
0,65,110,0
0,58,69,0
0,46,108,0
0,66,120,0
0,36,127,0
0,78,120,0
0,82,83,23
0,66,116,0
0,78,116,0
0,66,112,0
0,82,83,0
0,78,112,0
0,37,127,9
0,38,127,1
0,43,117,2
0,48,118,4
0,54,83,27
0,56,89,16
0,58,97,14
0,27,98,0
0,27,108,0
0,39,108,0
0,66,120,0
0,36,127,0
0,78,120,0
0,61,102,11
0,64,120,0
0,82,83,0
0,76,120,0
0,63,120,0
0,75,120,0
0,37,127,38
0,64,110,0
0,76,110,0
0,27,98,2
0,39,108,0
0,27,108,0
0,63,120,0
0,36,127,0
0,75,120,0
0,82,83,75
0,54,73,17
0,56,93,21
0,82,83,1
0,37,127,37
0,38,127,1
0,58,110,13
0,41,116,1
0,45,108,1
0,42,108,2
0,61,110,0
0,54,66,0
0,57,110,0
0,30,98,0
0,30,108,0
0,64,93,0
0,66,120,0
0,36,127,0
0,78,120,0
0,66,116,0
0,82,83,0
0,78,116,0
0,63,116,0
0,75,116,0
0,37,127,9
0,82,83,1
0,63,110,0
0,75,110,0
0,30,98,12
0,42,108,0
0,30,108,0
0,54,59,0
0,63,120,0
0,36,127,0
0,75,120,0
0,82,83,5
0,63,112,0
0,75,112,0
0,66,120,0
0,82,83,0
0,78,120,0
0,54,88,37
0,37,127,0
0,38,127,1
0,64,89,14
0,61,110,0
0,57,105,0
0,43,123,0
0,45,112,5
0,41,102,0
0,70,120,0
0,82,120,0
0,61,107,2
0,32,98,1
0,54,79,0
0,63,80,0
0,44,108,0
0,58,109,0
0,32,108,0
0,36,127,0
0,70,110,0
0,82,110,0
0,82,83,0
0,70,120,0
0,82,120,0
0,37,127,6
0,54,80,2
0,36,127,1
0,32,98,9
0,44,108,0
0,32,108,0
0,36,112,0
0,32,108,38
0,32,98,1
0,68,110,0
0,44,108,0
0,36,127,0
0,82,83,0
0,56,106,0
0,68,106,0
0,61,120,0
0,73,120,0
0,37,127,59
0,38,127,1
0,61,120,0
0,36,127,0
0,73,120,0
0,38,127,2
0,37,127,0
0,53,100,12
0,56,83,0
0,37,108,0
0,61,103,0
0,65,52,0
0,25,98,0
0,25,108,0
0,68,52,0
0,61,124,0
0,80,40,0
0,57,87,0
0,36,127,0
0,73,124,0
0,61,116,0
0,82,83,0
0,73,116,0
0,61,120,0
0,73,120,0
0,37,127,10
0,58,110,0
0,70,110,0
0,65,60,2
0,25,98,0
0,37,108,0
0,25,108,0
0,68,60,0
0,61,119,0
0,36,127,0
0,73,119,0
0,82,83,3
0,56,110,0
0,68,110,0
0,56,65,2
0,53,86,0
0,61,124,0
0,73,124,0
0,56,65,1
0,61,100,1
0,82,83,0
0,37,127,2
0,38,127,0
0,61,124,0
0,73,124,0
0,63,110,3
0,41,127,0
0,45,122,2
0,58,103,0
0,70,52,0
0,66,52,0
0,61,124,0
0,73,124,0
0,30,98,1
0,30,108,0
0,61,87,0
0,42,108,0
0,54,84,0
0,80,40,0
0,36,127,0
0,82,83,0
0,61,124,0
0,73,124,0
0,58,114,0
0,70,114,0
0,37,127,0
0,61,124,0
0,73,124,0
0,82,83,3
0,58,114,0
0,70,114,0
0,30,98,2
0,30,108,0
0,42,108,0
0,66,60,0
0,70,60,0
0,36,127,0
0,61,124,0
0,73,124,0
0,82,83,3
0,54,58,2
0,58,61,0
0,58,114,0
0,70,114,0
0,61,103,0
0,54,54,0
0,61,124,0
0,82,83,0
0,73,124,0
0,37,127,2
0,38,127,1
0,63,107,2
0,63,124,0
0,43,117,0
0,75,124,0
0,48,112,0
0,63,124,0
0,75,124,0
0,65,98,12
0,61,109,0
0,56,59,0
0,73,52,0
0,34,98,1
0,46,108,0
0,34,108,0
0,58,79,0
0,70,52,0
0,80,40,0
0,36,127,0
0,63,114,0
0,82,83,0
0,75,114,0
0,63,114,0
0,75,114,0
0,37,127,10
0,63,124,0
0,75,124,0
0,61,114,0
0,73,114,0
0,46,108,2
0,34,98,0
0,34,108,0
0,70,60,0
0,73,60,0
0,61,124,0
0,36,127,0
0,73,124,0
0,82,83,3
0,56,114,0
0,68,114,0
0,65,86,9
0,63,124,0
0,82,83,0
0,75,124,0
0,37,127,2
0,38,127,1
0,56,65,3
0,65,94,0
0,43,123,0
0,45,117,2
0,64,124,0
0,76,124,0
0,41,102,3
0,63,124,0
0,75,124,0
0,32,98,3
0,65,72,0
0,58,103,0
0,54,68,0
0,73,60,0
0,68,60,0
0,61,79,1
0,32,108,0
0,44,108,0
0,80,1,0
0,36,127,0
0,68,51,5
0,63,120,0
0,82,83,0
0,75,120,0
0,63,120,0
0,75,120,0
0,37,127,10
0,82,83,5
0,61,110,0
0,73,110,0
0,63,72,2
0,32,98,0
0,32,108,0
0,44,108,0
0,61,124,0
0,36,127,0
0,73,124,0
0,72,60,1
0,82,83,0
0,65,120,0
0,77,120,0
0,61,94,0
0,82,83,0
0,68,120,0
0,80,120,0
0,37,127,0
0,38,127,1
0,63,92,1
0,61,67,0
0,68,120,0
0,80,120,0
0,48,59,2
0,68,120,0
0,80,120,0
0,29,98,1
0,68,63,0
0,41,108,0
0,63,92,0
0,41,79,0
0,60,92,1
0,29,108,0
0,56,61,0
0,65,52,0
0,68,52,0
0,36,127,0
0,56,48,0
0,60,59,0
0,82,83,0
0,68,120,0
0,80,120,0
0,65,74,10
0,65,110,0
0,77,110,0
0,37,127,3
0,68,120,0
0,80,120,0
0,56,48,0
0,65,110,0
0,77,110,0
0,29,98,3
0,41,108,0
0,29,108,0
0,68,60,0
0,65,60,0
0,60,73,0
0,36,127,0
0,68,120,0
0,80,120,0
0,48,80,3
0,41,80,0
0,82,83,1
0,56,59,0
0,48,79,0
0,68,116,0
0,80,116,0
0,60,94,0
0,53,80,0
0,82,83,0
0,70,116,0
0,82,116,0
0,37,127,2
0,38,127,1
0,48,82,13
0,63,98,0
0,41,111,0
0,72,116,0
0,84,116,0
0,41,80,2
0,47,117,0
0,72,116,0
0,84,116,0
0,65,110,1
0,30,95,0
0,58,79,0
0,68,69,0
0,42,75,0
0,61,110,0
0,54,47,0
0,42,82,0
0,30,85,1
0,65,52,0
0,70,52,0
0,36,127,0
0,58,56,5
0,61,59,0
0,82,83,0
0,72,116,0
0,84,116,0
0,65,69,2
0,70,116,0
0,82,116,0
0,37,127,3
0,82,83,5
0,58,48,0
0,68,106,0
0,80,106,0
0,63,103,5
0,68,62,0
0,47,93,0
0,58,62,0
0,35,81,0
0,61,98,0
0,35,91,0
0,66,52,0
0,63,71,0
0,36,127,0
0,68,116,0
0,80,116,0
0,47,86,16
0,82,83,1
0,54,81,6
0,58,87,16
0,82,83,1
0,37,127,31
0,38,127,0
0,58,60,1
0,54,81,0
0,34,76,0
0,46,80,0
0,34,75,0
0,63,124,0
0,43,117,0
0,75,124,0
0,47,87,14
0,48,112,0
0,32,90,5
0,32,100,0
0,61,100,0
0,58,107,0
0,63,80,0
0,68,52,0
0,63,52,0
0,44,79,0
0,44,84,0
0,54,88,0
0,63,124,0
0,36,127,0
0,75,124,0
0,54,45,1
0,58,55,11
0,63,114,0
0,82,83,0
0,75,114,0
0,63,120,0
0,61,71,0
0,75,120,0
0,37,127,1
0,61,114,0
0,58,37,0
0,73,114,0
0,44,80,3
0,32,95,0
0,32,105,0
0,61,116,0
0,63,60,0
0,36,127,0
0,73,116,0
0,44,79,17
0,82,83,0
0,54,62,0
0,56,110,0
0,51,72,0
0,68,110,0
0,61,80,6
0,54,76,0
0,61,124,0
0,82,83,0
0,73,124,0
0,37,127,14
0,38,127,0
0,51,77,13
0,54,100,0
0,63,124,0
0,43,123,0
0,36,127,0
0,75,124,0
0,44,84,10
0,45,117,0
0,41,102,17
0,25,95,1
0,37,102,0
0,61,110,0
0,53,109,0
0,61,45,0
0,65,45,0
0,56,110,1
0,25,105,0
0,37,56,0
0,25,112,0
0,36,127,0
0,63,116,0
0,75,116,0
0,53,56,0
0,37,81,0
0,82,83,0
0,56,73,5
0,49,93,0
0,63,118,0
0,75,118,0
0,37,127,4
0,82,83,5
0,53,57,0
0,53,91,9
0,25,92,1
0,37,102,0
0,25,102,0
0,61,73,0
0,36,127,0
0,82,83,5
0,56,31,1
0,56,106,0
0,53,18,1
0,63,49,9
0,61,109,0
0,56,62,1
0,82,83,0
0,37,127,1
0,66,109,1
0,38,127,0
0,61,110,2
0,61,51,0
0,65,111,0
0,43,117,0
0,53,98,4
0,63,110,0
0,48,118,0
0,56,47,0
0,61,109,0
0,32,70,6
0,58,103,0
0,63,59,0
0,66,45,0
0,63,111,0
0,32,80,1
0,44,91,0
0,54,74,0
0,61,76,0
0,36,127,0
0,32,103,0
0,54,43,7
0,56,101,0
0,58,54,6
0,58,87,0
0,82,83,0
0,63,54,1
0,63,113,0
0,54,93,12
0,37,127,0
0,54,29,8
0,58,92,1
0,36,106,0
0,32,84,1
0,44,80,0
0,61,106,0
0,32,94,1
0,61,47,0
0,36,127,0
0,68,80,7
0,32,65,1
0,32,75,0
0,44,66,0
0,82,83,0
0,36,127,0
0,63,79,4
0,63,33,11
0,56,110,0
0,68,110,0
0,61,75,4
0,61,124,0
0,82,83,0
0,73,124,0
0,37,127,34
0,36,127,1
0,38,127,0
0,43,117,7
0,61,124,0
0,73,124,0
0,63,66,2
0,48,118,4
0,25,99,3
0,44,124,0
0,65,62,0
0,25,109,0
0,37,109,0
0,61,124,0
0,53,38,0
0,36,127,0
0,68,62,0
0,73,124,0
0,56,45,10
0,61,46,1
0,70,104,2
0,56,46,4
0,61,58,0
0,56,58,0
0,42,80,0
0,61,56,7
0,56,48,0
0,58,114,0
0,61,58,0
0,44,80,0
0,68,62,0
0,65,62,0
0,70,114,0
0,61,62,3
0,56,62,0
0,25,99,2
0,37,109,0
0,25,109,0
0,63,73,0
0,42,80,0
0,61,124,0
0,56,58,0
0,61,58,0
0,36,127,0
0,73,124,0
0,37,127,4
0,68,62,0
0,65,62,0
0,44,127,0
0,61,54,5
0,56,42,0
0,61,53,6
0,61,58,0
0,58,114,0
0,56,58,0
0,42,80,0
0,70,114,0
0,61,62,9
0,56,60,0
0,56,43,6
0,68,62,0
0,65,62,0
0,25,99,0
0,37,109,0
0,25,109,0
0,61,124,0
0,44,80,0
0,36,127,0
0,73,124,0
0,61,58,29
0,42,80,0
0,56,58,1
0,70,119,10
0,65,62,0
0,44,124,0
0,68,62,0
0,56,58,8
0,61,58,1
0,42,80,0
0,44,80,0
0,65,62,0
0,56,110,0
0,68,62,0
0,68,110,0
0,61,58,0
0,61,124,0
0,56,58,0
0,42,80,0
0,73,124,0
0,37,127,0
0,65,62,0
0,44,127,0
0,38,127,0
0,68,62,0
0,56,58,7
0,61,58,0
0,61,124,0
0,42,80,0
0,41,127,0
0,73,124,0
0,45,122,0
0,44,80,0
0,65,62,0
0,68,62,1
0,42,80,7
0,56,58,0
0,61,58,0
0,30,109,3
0,42,109,0
0,54,42,0
0,44,124,0
0,66,62,0
0,30,99,0
0,61,124,0
