track,note,velocity,time
2,36,73,1912
2,36,63,1312
2,36,73,160
2,36,63,1312
2,36,73,160
2,36,63,1312
2,36,73,160
2,36,63,1312
2,36,73,160
2,36,63,1312
2,36,73,160
2,36,63,1312
2,36,73,160
2,36,63,1312
2,36,73,160
2,36,63,1312
2,36,73,160
2,36,63,1312
2,36,73,160
2,36,63,1312
2,36,73,160
2,36,63,1312
2,36,73,160
2,36,63,1312
2,36,73,160
2,36,63,1312
2,36,73,160
2,36,63,1312
2,36,73,160
2,36,63,1312
2,36,73,160
2,36,63,1312
2,36,73,160
2,36,63,1312
2,36,73,160
2,36,63,1312
2,36,73,160
2,36,63,1312
2,36,73,160
2,36,63,1312
2,36,73,160
2,36,63,1312
2,36,73,160
2,36,63,1312
2,36,73,160
2,36,63,1312
2,36,73,160
2,36,63,1312
2,36,73,160
2,36,63,1312
2,36,73,160
2,36,63,1312
2,36,73,160
2,36,63,1312
2,36,73,160
2,36,63,1312
2,36,73,160
2,36,63,1312
2,36,73,160
2,36,63,1312
2,35,73,160
2,35,73,256
2,35,73,220
2,35,73,260
2,35,73,26
2,35,73,538
2,35,73,256
2,35,73,220
2,35,73,260
2,35,73,26
2,35,73,538
2,35,73,256
2,35,73,220
2,35,73,260
2,35,73,26
2,35,73,538
2,35,73,256
2,35,73,220
2,35,73,260
2,35,73,26
2,35,73,538
2,35,73,256
2,35,73,220
2,35,73,260
2,35,73,26
2,35,73,538
2,35,73,256
2,35,73,220
2,35,73,260
2,35,73,26
2,35,73,538
2,35,73,256
2,35,73,220
2,35,73,260
2,35,73,26
2,35,73,538
2,35,73,256
2,35,73,220
2,35,73,260
2,35,73,26
2,35,73,538
2,35,73,256
2,35,73,220
2,35,73,260
2,35,73,26
2,35,73,538
2,35,73,256
2,35,73,220
2,35,73,260
2,35,73,26
2,35,73,538
2,35,73,256
2,35,73,220
2,35,73,260
2,35,73,26
2,35,73,538
2,35,73,256
2,35,73,220
2,35,73,260
2,35,73,26
2,35,73,538
2,35,73,256
2,35,73,220
2,35,73,260
2,35,73,26
2,35,73,538
2,35,73,256
2,35,73,220
2,35,73,260
2,35,73,26
2,35,73,538
2,35,73,256
2,35,73,220
2,35,73,260
2,35,73,26
2,35,73,538
2,35,73,256
2,35,73,220
2,35,73,260
2,35,73,26
2,35,73,538
2,35,73,256
2,35,73,220
2,35,73,260
2,35,73,26
2,35,73,538
2,35,73,256
2,35,73,220
2,35,73,260
2,35,73,26
2,35,73,538
2,35,73,256
2,35,73,220
2,35,73,260
2,35,73,26
2,35,73,538
2,35,73,256
2,35,73,220
2,35,73,260
2,35,73,26
2,35,73,538
2,35,73,256
2,35,73,220
2,35,73,260
2,35,73,26
2,35,73,538
2,35,73,256
2,35,73,220
2,35,73,260
2,35,73,26
2,35,73,538
2,35,73,256
2,35,73,220
2,35,73,260
2,35,73,26
2,35,73,538
2,35,73,256
2,35,73,220
2,35,73,260
2,35,73,26
2,35,73,538
2,35,73,256
2,35,73,220
2,35,73,260
2,35,73,26
2,35,73,538
2,35,73,256
2,35,73,220
2,35,73,260
2,35,73,26
2,35,73,538
2,35,73,256
2,35,73,220
2,35,73,260
2,35,73,26
2,35,73,538
2,35,73,256
2,35,73,220
2,35,73,260
2,35,73,26
2,35,73,538
2,35,73,256
2,35,73,220
2,35,73,260
2,35,73,26
2,35,73,538
2,35,73,256
2,35,73,220
2,35,73,260
2,35,73,26
2,35,73,538
2,35,73,256
2,35,73,220
2,35,73,260
2,35,73,26
2,35,73,538
2,35,73,256
2,35,73,220
2,35,73,260
2,35,73,26
2,35,73,538
2,35,73,256
2,35,73,220
2,35,73,260
2,35,73,26
2,35,73,538
2,35,73,256
2,35,73,220
2,35,73,260
2,35,73,26
2,35,73,538
2,35,73,256
2,35,73,220
2,35,73,260
2,35,73,26
2,35,73,538
2,35,73,256
2,35,73,220
2,35,73,260
2,35,73,26
2,35,73,538
2,35,73,256
2,35,73,220
2,35,73,260
2,35,73,26
2,35,73,538
2,35,73,256
2,35,73,220
2,35,73,260
2,35,73,26
2,35,73,538
2,35,73,256
2,35,73,220
2,35,73,260
2,35,73,26
2,35,73,538
2,35,73,256
2,35,73,220
2,35,73,260
2,35,73,26
2,35,73,538
2,35,73,256
2,35,73,220
2,35,73,260
2,35,73,26
2,35,73,538
2,35,73,256
2,35,73,220
2,35,73,260
2,35,73,26
2,35,73,538
2,35,73,256
2,35,73,220
2,35,73,260
2,35,73,26
2,35,73,538
2,35,73,256
2,35,73,220
2,35,73,260
2,35,73,26
2,35,73,538
2,35,73,256
2,35,73,220
2,35,73,260
2,35,73,26
2,35,73,538
2,35,73,256
2,35,73,220
2,35,73,260
2,35,73,26
2,35,73,538
2,35,73,256
2,35,73,220
2,35,73,260
2,35,73,26
2,35,73,538
2,35,73,256
2,35,73,220
2,35,73,260
2,35,73,26
2,35,73,538
2,35,73,256
2,35,73,220
2,35,73,260
2,35,73,26
2,35,73,538
2,35,73,256
2,35,73,220
2,35,73,260
2,35,73,26
2,35,73,538
2,35,73,256
2,35,73,220
2,35,73,260
2,35,73,26
2,35,73,538
2,35,73,256
2,35,73,220
2,35,73,260
2,35,73,26
2,35,73,538
2,35,73,256
2,35,73,220
2,35,73,260
2,35,73,26
2,35,73,538
2,35,73,256
2,35,73,220
2,35,73,260
2,35,73,26
2,35,73,538
2,35,73,256
2,35,73,220
2,35,73,260
2,35,73,26
2,35,73,538
2,35,73,256
2,35,73,220
2,35,73,260
2,35,73,26
2,35,73,538
2,35,73,256
2,35,73,220
2,35,73,260
2,35,73,26
2,35,73,538
2,35,73,256
2,35,73,220
2,35,73,260
2,35,73,26
2,35,73,538
2,35,73,256
2,35,73,220
2,35,73,260
2,35,73,26
2,35,73,538
2,35,73,256
2,35,73,220
2,35,73,260
2,35,73,26
2,35,73,538
2,35,73,256
2,35,73,220
2,35,73,260
2,35,73,26
2,35,73,538
2,35,73,256
2,35,73,220
2,35,73,260
2,35,73,26
3,38,60,2484
3,38,60,1534
3,38,60,1534
3,38,60,1534
3,38,60,1534
3,38,60,1534
3,38,60,1534
3,38,60,1534
3,38,60,1534
3,38,60,1534
3,38,60,1534
3,38,60,1534
3,38,60,1534
3,38,60,1534
3,38,60,1534
3,38,60,1534
3,38,60,1534
3,38,60,1534
3,38,60,1534
3,38,60,1534
3,38,60,1534
3,38,60,1534
3,38,60,1534
3,38,60,1534
3,38,60,1534
3,38,60,1534
3,38,60,1534
3,38,60,1534
3,38,60,1534
3,38,60,1534
4,40,57,49446
4,40,65,142
4,40,57,1290
4,40,57,984
4,40,57,452
4,40,65,142
4,40,57,1290
4,40,57,1486
4,40,65,142
4,40,57,1290
4,40,57,984
4,40,57,452
4,40,65,142
4,40,57,1290
4,40,57,1486
4,40,65,142
4,40,57,1290
4,40,57,984
4,40,57,452
4,40,65,142
4,40,57,1290
4,40,57,1486
4,40,65,142
4,40,57,1290
4,40,57,984
4,40,57,452
4,40,65,142
4,40,57,1290
4,40,57,1486
4,40,65,142
4,40,57,1290
4,40,57,984
4,40,57,452
4,40,65,142
4,40,57,1290
4,40,57,1486
4,40,65,142
4,40,57,1290
4,40,57,984
4,40,57,452
4,40,65,142
4,40,57,1290
4,40,57,1486
4,40,65,142
4,40,57,1290
4,40,57,984
4,40,57,452
4,40,65,142
4,40,57,1290
4,40,57,1486
4,40,65,142
4,40,57,1290
4,40,57,984
4,40,57,452
4,40,65,142
4,40,57,1290
4,40,57,1486
4,40,65,142
4,40,65,404
4,40,75,64
4,40,65,138
4,40,57,522
4,40,57,984
4,40,57,452
4,40,65,142
4,40,57,1290
4,40,57,1486
4,40,65,142
4,40,57,1290
4,40,57,984
4,40,57,452
4,40,65,142
4,40,57,1290
4,40,57,1486
4,40,65,142
4,40,57,522
4,40,65,142
4,40,56,138
4,40,57,330
4,40,57,984
4,40,57,452
4,40,65,142
4,40,57,1290
4,40,57,1486
4,40,65,142
4,40,55,1098
4,40,61,138
4,40,57,984
4,40,57,452
4,40,65,142
4,40,57,1290
4,40,57,1486
4,40,65,142
4,40,55,404
4,40,65,138
4,40,57,640
4,40,57,984
4,40,57,452
4,40,65,142
4,40,57,1290
4,40,57,1486
4,40,65,142
4,40,57,1290
4,40,57,984
4,40,57,452
4,40,65,142
4,40,57,1290
4,40,57,1486
4,40,65,142
4,40,57,1290
4,40,57,984
4,40,57,452
4,40,65,142
4,40,57,1290
4,40,57,1486
4,40,65,142
4,40,57,1290
5,48,64,4396
5,41,60,258
5,48,64,2536
5,41,60,258
5,48,64,2536
5,41,60,258
5,48,64,2536
5,41,60,258
5,48,64,2536
5,41,60,258
5,48,64,2536
5,41,60,258
5,48,64,2536
5,41,60,258
5,48,64,2536
5,41,60,258
5,48,64,2536
5,41,60,258
5,48,64,2536
5,41,60,258
5,48,64,2536
5,41,60,258
5,48,64,2536
5,41,60,258
5,48,64,2536
5,41,60,258
5,48,64,2536
5,41,60,258
5,48,64,2536
5,41,60,258
6,82,68,4200
6,82,68,2984
6,82,68,2984
6,82,68,2984
6,82,68,2984
6,82,68,2984
6,82,68,2984
6,82,68,2984
6,82,68,2984
6,82,68,2984
6,82,68,2984
6,82,68,2984
6,82,68,2984
6,82,68,2984
6,82,68,2984
6,82,51,872
6,82,51,332
6,82,51,332
6,82,51,332
6,82,51,332
6,82,51,332
6,82,51,332
6,82,51,332
6,82,51,332
6,82,51,332
6,82,51,332
6,82,51,332
6,82,51,332
6,82,51,332
6,82,51,332
6,82,51,332
6,82,51,332
6,82,51,332
6,82,51,332
6,82,51,332
6,82,51,332
6,82,51,332
6,82,51,332
6,82,51,332
6,82,51,332
6,82,51,332
6,82,51,332
6,82,51,332
6,82,51,332
6,82,51,332
6,82,51,332
6,82,51,332
6,82,51,332
6,82,51,332
6,82,51,332
6,82,51,332
6,82,51,332
6,82,51,332
6,82,51,332
6,82,51,332
6,82,51,332
6,82,51,332
6,82,51,332
6,82,51,332
6,82,51,332
6,82,51,332
6,82,51,332
6,82,51,332
6,82,51,332
6,82,51,332
6,82,51,332
6,82,51,332
6,82,51,332
6,82,51,332
6,82,51,332
6,82,51,332
6,82,51,332
6,82,51,332
6,82,51,332
6,82,51,332
6,82,51,332
6,82,51,332
6,82,51,332
6,82,51,332
6,82,51,332
6,82,51,332
6,82,51,332
6,82,51,332
6,82,51,332
6,82,51,332
6,82,51,332
6,82,51,332
6,82,51,332
6,82,51,332
6,82,51,332
6,82,51,332
6,82,51,332
6,82,51,332
6,82,51,332
6,82,51,332
6,82,51,332
6,82,51,332
6,82,51,332
6,82,51,332
6,82,51,332
6,82,51,332
6,82,51,332
6,82,51,332
6,82,51,332
6,82,51,332
6,82,51,332
6,82,51,332
6,82,51,332
6,82,51,332
6,82,51,332
6,82,51,332
6,82,51,332
6,82,51,332
6,82,51,332
6,82,51,332
6,82,51,332
6,82,51,332
6,82,51,332
6,82,51,332
6,82,51,332
6,82,51,332
6,82,51,332
6,82,51,332
6,82,51,332
6,82,51,332
6,82,51,332
6,82,51,332
6,82,51,332
6,82,51,332
6,82,51,332
6,82,51,332
6,82,51,332
6,82,51,332
6,82,51,332
6,82,51,332
6,82,51,332
6,82,51,332
6,82,51,332
6,82,51,332
6,82,51,332
6,82,51,332
6,82,51,332
6,82,51,332
6,82,51,332
6,82,51,332
6,82,51,332
6,82,51,332
6,82,51,332
6,82,51,332
6,82,51,332
6,82,51,332
6,82,51,332
6,82,51,332
6,82,51,332
6,82,51,332
6,82,51,332
6,82,51,332
6,82,51,332
6,82,51,332
6,82,51,332
6,82,51,332
6,82,51,332
6,82,51,332
6,82,51,332
6,82,51,332
6,82,51,332
6,82,51,332
6,82,51,332
6,82,51,332
6,82,51,332
6,82,51,332
6,82,51,332
6,82,51,332
6,82,51,332
6,82,51,332
6,82,51,332
6,82,51,332
6,82,51,332
6,82,51,332
6,82,51,332
6,82,51,332
6,82,51,332
6,82,51,332
6,82,51,332
6,82,51,332
6,82,51,332
6,82,51,332
6,82,51,332
6,82,51,332
6,82,51,332
6,82,51,332
6,82,51,332
6,82,51,332
6,82,51,332
6,82,51,332
6,82,51,332
6,82,51,332
6,82,51,332
6,82,51,332
6,82,51,332
6,82,51,332
6,82,51,332
6,82,51,332
6,82,51,332
6,82,51,332
6,82,51,332
6,82,51,332
6,82,51,332
6,82,51,332
6,82,51,332
6,82,51,332
6,82,51,332
6,82,51,332
6,82,51,332
6,82,51,332
6,82,51,332
6,82,51,332
6,82,51,332
6,82,51,332
6,82,51,332
6,82,51,332
6,82,51,332
6,82,51,332
6,82,51,332
6,82,51,332
6,82,51,332
6,82,51,332
6,82,51,332
6,82,51,332
6,82,51,332
6,82,51,332
6,82,51,332
6,82,51,332
6,82,51,332
6,82,51,332
6,82,51,332
6,82,51,332
6,82,51,332
6,82,51,332
6,82,51,332
6,82,51,332
6,82,51,332
6,82,51,332
6,82,51,332
6,82,51,332
6,82,51,332
6,82,51,332
6,82,51,332
6,82,51,332
6,82,51,332
6,82,51,332
6,82,51,332
6,82,51,332
6,82,51,332
6,82,51,332
6,82,51,332
6,82,51,332
6,82,51,332
6,82,51,332
6,82,51,332
6,82,51,332
6,82,51,332
6,82,51,332
7,70,51,47972
7,70,71,68
7,70,51,16
7,70,71,66
7,70,51,74
7,70,71,44
7,70,51,22
7,70,71,68
7,70,51,22
7,70,71,74
7,70,51,26
7,70,71,108
7,70,51,26
7,70,71,70
7,70,51,16
7,70,71,74
7,70,51,38
7,70,71,68
7,70,51,16
7,70,71,66
7,70,51,74
7,70,71,44
7,70,51,22
7,70,71,68
7,70,51,22
7,70,71,74
7,70,51,26
7,70,71,108
7,70,51,26
7,70,71,70
7,70,51,16
7,70,71,74
7,70,51,38
7,70,71,68
7,70,51,16
7,70,71,66
7,70,51,74
7,70,71,44
7,70,51,22
7,70,71,68
7,70,51,22
7,70,71,74
7,70,51,26
7,70,71,108
7,70,51,26
7,70,71,70
7,70,51,16
7,70,71,74
7,70,51,38
7,70,71,68
7,70,51,16
7,70,71,66
7,70,51,74
7,70,71,44
7,70,51,22
7,70,71,68
7,70,51,22
7,70,71,74
7,70,51,26
7,70,71,108
7,70,51,26
7,70,71,70
7,70,51,16
7,70,71,74
7,70,51,38
7,70,71,68
7,70,51,16
7,70,71,66
7,70,51,74
7,70,71,44
7,70,51,22
7,70,71,68
7,70,51,22
7,70,71,74
7,70,51,26
7,70,71,108
7,70,51,26
7,70,71,70
7,70,51,16
7,70,71,74
7,70,51,38
7,70,71,68
7,70,51,16
7,70,71,66
7,70,51,74
7,70,71,44
7,70,51,22
7,70,71,68
7,70,51,22
7,70,71,74
7,70,51,26
7,70,71,108
7,70,51,26
7,70,71,70
7,70,51,16
7,70,71,74
7,70,51,38
7,70,71,68
7,70,51,16
7,70,71,66
7,70,51,74
7,70,71,44
7,70,51,22
7,70,71,68
7,70,51,22
7,70,71,74
7,70,51,26
7,70,71,108
7,70,51,26
7,70,71,70
7,70,51,16
7,70,71,74
7,70,51,38
7,70,71,68
7,70,51,16
7,70,71,66
7,70,51,74
7,70,71,44
7,70,51,22
7,70,71,68
7,70,51,22
7,70,71,74
7,70,51,26
7,70,71,108
7,70,51,26
7,70,71,70
7,70,51,16
7,70,71,74
7,70,51,38
7,70,71,68
7,70,51,16
7,70,71,66
7,70,51,74
7,70,71,44
7,70,51,22
7,70,71,68
7,70,51,22
7,70,71,74
7,70,51,26
7,70,71,108
7,70,51,26
7,70,71,70
7,70,51,16
7,70,71,74
7,70,51,38
7,70,71,68
7,70,51,16
7,70,71,66
7,70,51,74
7,70,71,44
7,70,51,22
7,70,71,68
7,70,51,22
7,70,71,74
7,70,51,26
7,70,71,108
7,70,51,26
7,70,71,70
7,70,51,16
7,70,71,74
7,70,51,38
7,70,71,68
7,70,51,16
7,70,71,66
7,70,51,74
7,70,71,44
7,70,51,22
7,70,71,68
7,70,51,22
7,70,71,74
7,70,51,26
7,70,71,108
7,70,51,26
7,70,71,70
7,70,51,16
7,70,71,74
7,70,51,38
7,70,71,68
7,70,51,16
7,70,71,66
7,70,51,74
7,70,71,44
7,70,51,22
7,70,71,68
7,70,51,22
7,70,71,74
7,70,51,26
7,70,71,108
7,70,51,26
7,70,71,70
