track,note,velocity,time
3,39,113,5165
3,39,0,122
3,39,116,115
3,39,0,230
3,35,113,491
3,35,0,138
3,35,115,103
3,35,0,209
3,30,110,508
3,30,0,101
3,30,113,140
3,30,0,220
3,25,108,498
3,25,0,96
3,25,112,147
3,25,0,245
3,25,115,117
3,25,0,240
3,27,113,118
3,27,0,138
3,27,112,105
3,27,0,245
3,35,112,471
3,35,0,105
3,35,113,135
3,35,0,297
3,30,111,425
3,30,0,95
3,30,114,147
3,30,0,351
3,30,120,248
3,30,0,15
3,25,113,104
3,25,0,267
3,37,116,93
3,25,115,361
3,37,0,1
3,39,101,239
3,25,0,4
3,39,0,119
3,39,96,123
3,39,0,120
3,51,83,3114
3,51,0,65
3,49,82,53
3,49,0,92
3,39,84,147
3,39,0,101
3,39,85,142
3,39,0,91
3,39,101,3509
3,39,0,123
3,39,96,123
3,39,0,120
3,51,82,3114
3,51,0,65
3,49,83,53
3,49,0,92
3,39,85,147
3,39,0,101
3,39,84,142
3,39,0,91
3,39,94,1588
3,39,0,142
3,39,93,98
3,39,0,228
3,37,94,492
3,37,0,142
3,37,93,99
3,37,0,205
3,27,113,515
3,27,0,122
3,27,116,115
3,27,0,230
3,35,113,491
3,35,0,138
3,35,114,103
3,35,0,209
3,30,110,508
3,30,0,101
3,30,113,140
3,30,0,220
3,25,109,498
3,25,0,96
3,25,112,147
3,25,0,245
3,25,114,117
3,25,0,240
3,27,113,118
3,27,0,138
3,27,113,105
3,27,0,245
3,35,112,471
3,35,0,105
3,35,112,135
3,35,0,297
3,30,111,425
3,30,0,95
3,30,114,147
3,30,0,351
3,30,121,248
3,30,0,15
3,25,113,104
3,25,0,213
3,25,110,28
3,25,0,241
3,25,121,119
3,25,0,14
3,25,114,106
3,27,112,240
3,25,0,4
3,27,0,118
3,27,117,115
3,27,0,230
3,35,113,491
3,35,0,138
3,35,114,103
3,35,0,209
3,30,110,508
3,30,0,101
3,30,113,140
3,30,0,220
3,25,109,498
3,25,0,96
3,25,112,147
3,25,0,245
3,25,114,117
3,25,0,240
3,35,113,118
3,35,0,138
3,35,112,105
3,35,0,245
3,35,109,471
3,35,0,105
3,35,111,135
3,35,0,297
3,39,108,426
3,39,0,331
3,27,105,29
3,27,0,221
3,37,104,138
3,37,0,786
3,37,104,175
3,37,0,240
3,39,113,0
3,39,0,122
3,39,117,115
3,39,0,230
3,35,112,491
3,35,0,138
3,35,114,103
3,35,0,209
3,30,111,508
3,30,0,101
3,30,113,140
3,30,0,220
3,25,108,498
3,25,0,96
3,25,112,147
3,25,0,245
3,25,115,117
3,25,0,240
3,27,112,118
3,27,0,138
3,27,113,105
3,27,0,245
3,35,113,471
3,35,0,105
3,35,112,135
3,35,0,297
3,30,111,425
3,30,0,95
3,30,114,147
3,30,0,351
3,30,120,248
3,30,0,15
3,25,113,104
3,25,0,267
3,37,117,93
3,25,114,361
3,37,0,1
3,39,112,239
3,25,0,4
3,39,0,118
3,39,117,115
3,39,0,230
3,35,113,491
3,35,0,138
3,35,114,103
3,35,0,209
3,30,110,508
3,30,0,101
3,30,113,140
3,30,0,220
3,37,108,503
3,37,0,95
3,25,113,143
3,25,0,245
3,25,111,117
3,25,0,25
3,37,114,95
3,32,113,238
3,37,0,2
3,32,0,136
3,32,112,105
3,32,0,245
3,27,110,234
3,27,0,120
3,32,113,117
3,32,0,105
3,32,113,135
3,32,0,297
3,27,110,186
3,27,0,120
3,32,110,119
3,32,0,95
3,32,115,147
3,32,0,351
3,27,121,248
3,27,0,14
3,32,112,105
3,32,0,220
3,32,120,21
3,32,0,14
3,32,117,105
3,32,0,225
3,32,120,16
3,32,0,14
3,32,115,106
3,35,113,240
3,32,0,1
3,35,0,121
3,35,116,115
3,35,0,230
3,30,113,491
3,30,0,138
3,30,114,103
3,30,0,209
3,37,110,508
3,37,0,101
3,37,113,140
3,37,0,220
3,27,109,498
3,27,0,96
3,27,112,147
3,27,0,245
3,25,114,117
3,25,0,240
3,35,113,118
3,35,0,138
3,35,113,105
3,35,0,245
3,30,112,471
3,30,0,105
3,30,112,135
3,30,0,297
3,30,111,186
3,30,0,120
3,37,116,119
3,37,0,95
3,37,117,147
3,37,0,351
3,30,121,248
3,30,0,15
3,25,112,104
3,25,0,267
3,37,117,93
3,25,114,361
3,37,0,1
3,35,112,239
3,25,0,4
3,35,0,118
3,35,117,115
3,35,0,230
3,30,113,491
3,30,0,138
3,30,114,103
3,30,0,209
3,37,110,508
3,37,0,101
3,37,113,140
3,37,0,220
3,27,109,498
3,27,0,96
3,27,112,147
3,27,0,245
3,25,106,117
3,25,0,240
3,35,93,118
3,35,0,485
3,34,88,474
3,34,0,485
3,37,93,477
3,37,0,95
3,37,93,147
3,37,0,351
3,37,120,248
3,37,0,15
3,25,113,104
3,32,120,241
3,25,0,2
3,32,0,12
3,25,116,105
3,25,0,222
3,25,121,19
3,25,0,14
3,25,115,106
3,27,112,240
3,25,0,4
3,27,0,101
3,27,112,136
3,27,0,245
3,35,113,474
3,35,0,105
3,35,113,132
3,35,0,297
3,30,110,425
3,30,0,95
3,30,114,147
3,30,0,351
3,30,121,248
3,30,0,15
3,25,112,104
3,25,0,267
3,37,117,93
3,25,115,361
3,37,0,1
3,39,112,239
3,25,0,4
3,39,0,118
3,39,117,115
3,39,0,230
3,35,112,491
3,35,0,138
3,35,114,103
3,35,0,209
3,30,111,508
3,30,0,101
3,30,113,140
3,30,0,220
3,37,108,503
3,37,0,95
3,25,112,143
3,25,0,245
3,25,111,117
3,25,0,25
3,37,115,95
3,37,0,240
3,27,112,0
3,27,0,122
3,27,116,115
3,27,0,230
3,35,113,491
3,35,0,138
3,35,114,103
3,35,0,209
3,30,111,508
3,30,0,101
3,30,113,140
3,30,0,220
3,25,108,498
3,25,0,96
3,25,113,147
3,25,0,245
3,25,114,117
3,25,0,240
3,27,112,118
3,27,0,138
3,27,113,105
3,27,0,245
3,35,113,471
3,35,0,105
3,35,112,135
3,35,0,297
3,30,110,425
3,30,0,95
3,30,115,147
3,30,0,351
3,30,121,248
3,30,0,15
3,25,112,104
3,25,0,213
3,25,110,28
3,25,0,241
3,34,121,119
3,34,0,14
3,34,114,106
3,27,113,240
3,34,0,4
3,27,0,118
3,27,117,115
3,27,0,230
3,35,112,491
3,35,0,138
3,35,115,103
3,35,0,209
3,30,110,508
3,30,0,101
3,30,112,140
3,30,0,220
3,25,109,498
3,25,0,96
3,25,113,147
3,25,0,245
3,25,114,117
3,25,0,240
3,35,112,118
3,35,0,138
3,35,113,105
3,35,0,245
3,35,109,471
3,35,0,105
3,35,110,135
3,35,0,297
3,39,108,426
3,39,0,331
3,27,105,29
3,27,0,221
3,37,104,138
3,37,0,430
3,37,107,52
3,37,0,315
3,37,109,34
3,37,0,325
3,39,108,45
3,39,0,122
3,39,109,115
3,39,0,230
3,35,112,491
3,35,0,138
3,35,114,103
3,35,0,209
3,30,111,508
3,30,0,101
3,30,113,140
3,30,0,220
3,25,108,498
3,25,0,96
3,25,112,147
3,25,0,245
3,25,115,117
3,25,0,240
3,27,113,118
3,27,0,138
3,27,112,105
3,27,0,245
3,35,112,471
3,35,0,105
3,35,113,135
3,35,0,297
3,30,110,425
3,30,0,95
3,30,115,147
3,30,0,351
3,30,121,248
3,30,0,15
3,25,112,104
3,25,0,267
3,37,117,93
3,25,114,361
3,37,0,1
3,39,112,239
3,25,0,4
3,39,0,118
3,39,117,115
3,39,0,230
3,35,113,491
3,35,0,138
3,35,114,103
3,35,0,209
3,30,110,508
3,30,0,101
3,30,113,140
3,30,0,220
3,37,109,503
3,37,0,95
3,25,112,143
3,25,0,245
3,25,110,117
3,25,0,25
3,37,115,95
3,32,112,238
3,37,0,2
3,32,0,136
3,32,113,105
3,32,0,245
3,27,111,234
3,27,0,120
3,32,112,117
3,32,0,105
3,32,113,135
3,32,0,297
3,27,110,186
3,27,0,120
3,32,110,119
3,32,0,95
3,32,115,147
3,32,0,351
3,27,121,248
3,27,0,14
3,32,112,105
3,32,0,220
3,32,120,21
3,32,0,14
3,32,117,105
3,32,0,225
3,32,121,16
3,32,0,14
3,32,114,106
3,32,0,241
3,25,120,7319
3,25,0,14
3,32,115,106
3,32,0,120
3,34,114,0
3,34,0,120
3,35,113,0
3,35,0,122
3,35,117,115
3,35,0,230
3,30,112,491
3,30,0,138
3,30,115,103
3,30,0,209
3,37,110,508
3,37,0,101
3,37,112,140
3,37,0,220
3,27,109,498
3,27,0,96
3,27,113,147
3,27,0,245
3,25,106,117
3,25,0,240
3,35,92,118
3,35,0,485
3,34,89,474
3,34,0,485
3,34,93,477
3,34,0,95
3,34,92,147
3,34,0,351
3,34,120,248
3,34,0,15
3,34,113,104
3,34,0,223
3,34,120,18
3,34,0,14
3,34,117,105
3,34,0,222
3,34,121,19
3,34,0,14
3,34,114,106
3,35,113,240
3,34,0,4
3,35,0,118
3,35,116,115
3,35,0,230
3,30,112,491
3,30,0,138
3,30,115,103
3,30,0,209
3,37,111,508
3,37,0,101
3,37,112,140
3,37,0,220
3,27,108,498
3,27,0,96
3,27,113,147
3,27,0,245
3,25,107,117
3,25,0,240
3,35,112,120
3,35,0,122
3,35,116,115
3,35,0,230
3,30,111,373
3,30,0,15
3,30,112,103
3,30,0,138
3,30,115,103
3,30,0,209
3,37,111,392
3,37,0,15
3,37,110,101
3,37,0,101
3,37,113,140
3,37,0,220
3,25,110,383
3,25,0,15
3,25,108,105
3,25,0,95
3,25,113,143
3,25,0,245
3,25,107,117
3,25,0,212
3,25,110,28
3,25,0,92
3,35,112,28
3,35,0,122
3,35,117,115
3,35,0,230
3,30,113,491
3,30,0,138
3,30,114,103
3,30,0,209
3,37,110,508
3,37,0,101
3,37,113,140
3,37,0,220
3,27,108,498
3,27,0,96
3,27,113,147
3,27,0,245
3,25,107,117
3,25,0,240
3,35,112,120
3,35,0,122
3,35,117,115
3,35,0,230
3,30,110,373
3,30,0,15
3,30,112,103
3,30,0,138
3,30,115,103
3,30,0,209
3,37,111,392
3,37,0,15
3,37,110,101
3,37,0,101
3,37,112,140
3,37,0,220
3,25,111,383
3,25,0,15
3,25,109,105
3,25,0,95
3,25,112,143
3,25,0,245
3,25,106,117
3,25,0,212
3,25,111,28
3,25,0,92
3,25,104,39
3,24,41,1124
3,24,0,192
3,25,0,212
3,39,105,7
3,27,112,374
3,39,0,1
3,27,0,104
3,27,113,136
3,27,0,245
3,35,112,474
3,35,0,105
3,35,112,132
3,35,0,297
3,30,111,425
3,30,0,95
3,30,115,147
3,30,0,351
3,30,120,248
3,30,0,15
3,25,112,104
3,25,0,267
3,37,117,93
3,25,115,361
3,37,0,1
3,39,112,239
3,25,0,4
3,39,0,118
3,39,116,115
3,39,0,230
3,35,113,491
3,35,0,138
3,35,114,103
3,35,0,209
3,30,111,508
3,30,0,101
3,30,113,140
3,30,0,220
3,37,108,503
3,37,0,95
3,25,113,143
3,25,0,245
3,25,110,117
3,25,0,25
3,37,114,95
3,37,0,240
3,27,113,0
3,27,0,105
3,27,113,136
3,27,0,245
3,35,112,474
3,35,0,105
3,35,112,132
3,35,0,297
3,30,111,425
3,30,0,95
3,30,115,147
3,30,0,351
3,30,120,248
3,30,0,15
3,25,112,104
3,25,0,267
3,37,117,93
3,25,114,361
3,37,0,1
3,39,113,239
3,25,0,4
3,39,0,118
3,39,117,115
3,39,0,230
3,35,112,491
3,35,0,138
3,35,115,103
3,35,0,209
3,30,110,508
3,30,0,101
3,30,112,140
3,30,0,220
3,37,109,503
3,37,0,95
3,25,113,143
3,25,0,245
3,25,110,117
3,25,0,25
3,37,114,95
3,37,0,240
3,27,113,0
3,27,0,105
3,27,113,136
3,27,0,245
3,35,112,474
3,35,0,105
3,35,112,132
3,35,0,297
3,30,111,425
3,30,0,95
3,30,114,147
3,30,0,351
3,30,121,248
3,30,0,15
3,25,113,104
3,25,0,267
3,37,116,93
3,25,115,361
3,37,0,1
3,39,112,239
3,25,0,4
3,39,0,118
3,39,116,115
3,39,0,230
3,35,113,491
3,35,0,138
3,35,115,103
3,35,0,209
3,30,110,508
3,30,0,101
3,30,112,140
3,30,0,220
3,37,109,503
3,37,0,95
3,25,113,143
3,25,0,245
3,25,110,117
3,25,0,25
3,37,114,95
3,37,0,240
3,27,113,0
3,27,0,105
3,27,112,136
3,27,0,245
3,35,113,474
3,35,0,105
3,35,113,132
3,35,0,297
3,30,110,425
3,30,0,95
3,30,115,147
3,30,0,351
3,30,120,248
3,30,0,15
3,25,112,104
3,25,0,267
3,37,117,93
3,25,115,361
3,37,0,1
3,39,112,239
3,25,0,4
3,39,0,118
3,39,116,115
3,39,0,230
3,35,113,491
3,35,115,103
3,30,110,116
3,30,112,117
3,37,109,120
3,25,112,118
3,25,111,117
3,37,115,95
3,27,114,0
3,29,99,13436
3,27,82,2
4,47,89,1171
4,54,100,40
4,59,103,35
4,61,105,33
4,66,108,39
4,47,0,780
4,54,0,33
4,46,85,30
4,59,0,5
4,61,0,30
4,54,92,5
4,66,0,22
4,58,90,7
4,61,91,32
4,66,85,21
4,66,0,915
4,61,0,0
4,46,0,0
4,54,0,0
4,58,0,0
4,49,88,21
4,61,88,0
4,65,109,0
4,56,73,151
4,61,0,51
4,66,98,70
4,65,0,2
4,61,64,117
4,56,0,107
4,56,97,132
4,65,84,2
4,66,0,25
4,66,105,94
4,56,77,50
4,65,76,121
4,66,0,2
4,66,85,91
4,65,0,72
4,49,84,47
4,46,76,27
4,51,95,0
4,66,0,1
4,51,0,94
4,46,0,10
4,46,77,135
4,51,76,0
4,54,90,240
4,58,95,0
4,63,91,0
4,46,0,114
4,51,0,6
4,54,0,107
4,58,0,0
4,63,0,0
4,51,80,13
4,54,80,0
4,58,81,0
4,63,80,0
4,63,0,107
4,58,0,0
4,54,0,0
4,54,69,13
4,58,69,0
4,63,68,0
4,54,0,107
4,63,0,0
4,58,0,0
4,51,0,13
4,47,97,0
4,54,76,0
4,54,0,92
4,47,0,19
4,47,100,129
4,54,87,0
4,54,0,170
4,47,0,45
4,47,77,20
4,54,90,5
4,59,90,0
4,63,91,0
4,59,0,227
4,54,0,0
4,63,0,0
4,54,81,13
4,59,80,0
4,63,80,0
4,47,0,102
4,59,0,5
4,54,0,0
4,63,0,0
4,47,93,10
4,54,92,3
4,59,93,0
4,63,93,0
4,54,0,120
4,59,0,0
4,63,0,0
4,42,68,0
4,49,83,0
4,47,0,7
4,49,0,185
4,42,0,30
4,42,82,18
4,49,100,0
4,54,87,240
4,58,87,0
4,61,90,0
4,66,86,0
4,49,0,37
4,42,0,0
4,61,0,190
4,58,0,0
4,66,0,0
4,58,81,13
4,61,81,0
4,66,70,0
4,66,0,107
4,61,0,0
4,58,0,0
4,58,88,13
4,61,89,0
4,66,88,0
4,54,0,107
4,61,0,0
4,58,0,0
4,66,0,0
4,44,73,13
4,49,77,0
4,49,0,96
4,44,0,111
4,44,76,33
4,49,83,0
4,56,68,240
4,61,80,0
4,65,95,0
4,44,0,80
4,49,0,30
4,61,0,117
4,56,0,0
4,65,0,0
4,49,79,13
4,56,36,0
4,61,60,0
4,65,73,0
4,56,0,107
4,65,0,0
4,61,0,0
4,56,77,13
4,61,82,0
4,65,100,0
4,49,0,115
4,56,0,5
4,61,0,0
4,65,0,0
4,46,77,0
4,51,94,0
4,51,0,95
4,46,0,10
4,46,77,135
4,51,77,0
4,54,90,240
4,58,95,0
4,63,90,0
4,46,0,114
4,51,0,6
4,54,0,107
4,58,0,0
4,63,0,0
4,51,80,13
4,54,81,0
4,58,81,0
4,63,80,0
4,63,0,107
4,58,0,0
4,54,0,0
4,54,68,13
4,58,69,0
4,63,69,0
4,54,0,107
4,63,0,0
4,58,0,0
4,51,0,13
4,47,96,0
4,54,76,0
4,54,0,92
4,47,0,19
4,47,101,129
4,54,86,0
4,54,0,170
4,47,0,45
4,47,77,20
4,54,91,5
4,59,90,0
4,63,91,0
4,59,0,227
4,54,0,0
4,63,0,0
