track,note,velocity,time
0,40,55,135
0,68,102,0
0,47,61,9
0,69,99,0
0,56,31,5
0,71,106,0
0,47,59,69
0,73,116,0
0,68,47,3
0,64,46,5
0,48,85,5
0,64,58,2
0,68,59,3
0,48,60,0
0,64,99,0
0,68,91,0
0,66,51,21
0,63,49,1
0,66,55,2
0,63,54,3
0,48,64,8
0,63,98,0
0,66,93,0
0,49,45,29
0,64,98,0
0,56,34,18
0,66,107,0
0,61,48,2
0,68,109,0
0,56,75,7
0,64,110,0
0,61,30,126
0,66,42,1
0,54,65,25
0,46,58,2
0,61,82,0
0,46,49,0
0,61,60,0
0,66,84,0
0,66,75,2
0,61,75,0
0,54,41,0
0,47,49,19
0,64,96,0
0,68,88,0
0,56,51,9
0,69,97,0
0,59,80,5
0,71,96,0
0,73,101,7
0,59,81,2
0,56,82,1
0,47,48,3
0,63,75,2
0,47,66,3
0,59,87,0
0,68,87,0
0,56,36,1
0,59,48,2
0,63,64,5
0,57,63,1
0,54,74,5
0,61,60,3
0,57,49,2
0,57,77,2
0,66,88,0
0,54,45,5
0,61,68,159
0,56,65,230
0,52,80,2
0,56,20,3
0,59,55,0
0,52,42,0
0,40,67,0
0,56,75,0
0,64,80,0
0,40,73,3
0,47,80,154
0,56,89,224
0,59,81,19
0,64,84,8
0,59,83,10
0,52,68,0
0,59,79,0
0,64,92,0
0,68,73,0
0,71,80,28
0,71,77,52
0,59,63,10
0,71,85,44
0,59,88,5
0,64,97,0
0,68,92,0
0,51,86,4
0,71,80,57
0,71,85,54
0,49,87,4
0,64,101,0
0,69,92,0
0,69,80,5
0,57,48,8
0,69,76,46
0,64,89,5
0,69,85,0
0,57,44,42
0,68,79,22
0,47,68,3
0,59,67,0
0,64,88,0
0,69,97,0
0,66,79,24
0,66,74,47
0,59,71,2
0,66,74,48
0,59,74,5
0,63,87,0
0,69,88,0
0,59,96,3
0,64,77,1
0,68,75,9
0,52,79,90
0,59,75,0
0,64,92,0
0,68,92,0
0,59,79,12
0,59,79,5
0,64,96,0
0,68,86,0
0,59,85,5
0,59,80,9
0,42,68,15
0,44,87,5
0,59,85,0
0,66,100,0
0,71,76,16
0,71,77,33
0,59,89,35
0,71,78,48
0,59,92,5
0,64,100,0
0,71,85,0
0,76,75,0
0,63,79,8
0,71,77,33
0,45,70,0
0,59,96,0
0,64,81,0
0,69,74,10
0,69,75,2
0,57,97,5
0,64,92,94
0,68,78,35
0,46,74,2
0,54,89,0
0,61,74,0
0,66,83,0
0,66,78,18
0,66,77,41
0,68,75,32
0,64,80,15
0,66,78,34
0,35,63,5
0,47,54,0
0,57,65,0
0,64,96,0
0,57,76,7
0,63,107,5
0,68,75,187
0,71,97,22
0,69,75,38
0,71,96,69
0,71,80,0
0,59,85,1
0,59,69,0
0,40,66,0
0,59,92,0
0,66,83,0
0,68,97,0
0,71,74,20
0,71,76,1
0,47,64,7
0,71,77,30
0,56,88,4
0,64,101,0
0,71,80,6
0,51,74,8
0,71,77,5
0,49,89,3
0,57,81,0
0,64,100,0
0,69,89,0
0,69,77,12
0,57,54,5
0,69,76,3
0,57,50,5
0,64,93,0
0,69,89,0
0,57,70,128
0,69,77,7
0,69,74,15
0,35,76,5
0,59,97,0
0,64,97,0
0,69,92,0
0,71,76,30
0,71,75,2
0,47,62,82
0,59,65,0
0,66,75,9
0,59,76,5
0,63,107,0
0,69,97,0
0,64,74,17
0,59,70,0
0,68,78,44
0,40,71,5
0,59,76,0
0,64,76,0
0,68,117,0
0,69,113,55
0,44,88,5
0,71,116,0
0,64,75,5
0,64,119,5
0,64,75,5
0,45,79,2
0,64,74,0
0,69,84,0
0,73,83,0
0,69,76,22
0,69,74,37
0,52,60,10
0,69,75,28
0,61,69,5
0,69,72,49
0,69,85,9
0,71,75,47
0,47,64,120
0,59,77,0
0,64,96,0
0,68,82,0
0,68,71,38
0,66,58,25
0,64,53,26
0,52,59,8
0,64,77,0
0,56,36,5
0,71,92,0
0,64,66,172
0,64,70,0
0,47,83,0
0,66,75,7
0,66,69,1
0,57,75,5
0,66,68,10
0,71,66,2
0,66,88,3
0,61,74,9
0,64,64,4
0,64,71,10
0,40,55,0
0,68,102,0
0,47,61,4
0,69,99,0
0,68,50,4
0,76,67,4
0,56,31,4
0,71,106,0
0,47,59,69
0,73,116,0
0,76,111,5
0,80,110,0
0,48,60,0
0,64,99,0
0,68,91,0
0,75,59,10
0,75,107,5
0,78,107,0
0,48,64,0
0,63,98,0
0,66,93,0
0,49,45,4
0,64,98,0
0,61,54,1
0,56,54,1
0,64,67,1
0,56,34,7
0,66,107,0
0,61,48,2
0,68,109,0
0,68,59,1
0,73,64,1
0,64,68,2
0,56,75,9
0,64,110,0
0,66,69,132
0,61,58,10
0,78,102,4
0,46,49,0
0,61,60,0
0,66,84,0
0,54,67,58
0,66,59,3
0,73,103,4
0,61,55,0
0,73,67,0
0,61,46,177
0,64,66,59
0,59,65,9
0,47,48,5
0,64,97,0
0,68,89,0
0,66,54,23
0,56,50,9
0,69,96,0
0,68,58,197
0,59,81,5
0,71,96,0
0,73,101,13
0,59,116,100
0,47,67,5
0,59,86,0
0,68,87,0
0,80,51,1
0,63,64,108
0,57,24,138
0,78,42,5
0,57,76,5
0,66,89,0
0,57,110,1
0,59,91,150
0,61,69,9
0,59,92,38
0,76,43,0
0,40,80,0
0,59,92,0
0,66,97,0
0,68,97,0
0,56,111,3
0,71,88,24
0,71,87,43
0,47,64,74
0,71,92,43
0,52,45,76
0,59,46,2
0,68,75,1
0,59,77,1
0,52,74,4
0,59,101,0
0,64,96,0
0,68,97,0
0,52,68,1
0,66,68,41
0,71,87,7
0,51,69,7
0,51,46,5
0,51,75,7
0,71,89,37
0,64,69,6
0,49,68,3
0,57,68,1
0,49,47,0
0,57,46,0
0,37,64,9
0,57,89,0
0,64,100,0
0,69,84,0
0,69,88,25
0,69,87,1
0,49,69,5
0,57,89,5
0,64,92,0
0,69,80,0
0,69,86,13
0,49,43,42
0,57,57,0
0,68,88,30
0,59,73,3
0,51,68,2
0,35,70,3
0,59,88,0
0,64,101,0
0,69,88,0
0,66,87,7
0,47,47,5
0,66,87,46
0,69,67,54
0,47,63,33
0,66,88,37
0,66,67,155
0,59,89,5
0,63,96,0
0,69,93,0
0,68,58,37
0,68,88,7
0,47,58,13
0,68,87,40
0,52,67,27
0,56,37,11
0,52,46,6
0,40,92,7
0,59,89,0
0,66,83,0
0,68,88,0
0,68,83,5
0,47,66,117
0,52,75,5
0,59,93,0
0,64,106,0
0,68,96,0
0,59,88,174
0,28,93,15
0,40,80,0
0,30,69,0
0,42,83,0
0,59,82,12
0,66,65,5
0,32,88,0
0,44,97,0
0,59,92,0
0,66,88,0
0,71,93,0
0,59,58,0
0,44,64,2
0,66,76,1
0,71,44,2
0,44,55,1
0,52,61,1
0,71,89,13
0,71,90,13
0,71,93,0
0,44,59,30
0,64,65,2
0,59,96,3
0,64,96,0
0,71,97,0
0,64,80,2
0,63,65,12
0,76,87,4
0,63,70,9
0,44,75,0
0,59,84,0
0,71,88,31
0,61,30,23
0,52,61,0
0,45,61,4
0,64,62,1
0,45,76,4
0,59,89,0
0,61,96,0
0,64,107,0
0,69,87,34
0,69,84,44
0,52,81,20
0,69,50,38
0,61,80,4
0,57,2,3
0,57,74,2
0,61,97,0
0,64,96,0
0,69,82,78
0,45,38,14
0,68,81,33
0,66,69,9
0,58,68,1
0,61,60,17
0,66,55,2
0,46,65,1
0,34,75,3
0,54,97,0
0,61,96,0
0,66,88,0
0,66,83,2
0,66,80,38
0,46,65,19
0,54,59,0
0,68,84,4
0,73,65,179
0,73,88,5
0,64,81,20
0,64,87,4
0,64,58,3
0,46,54,15
0,66,83,0
0,66,87,34
0,59,58,100
0,66,65,0
0,35,74,5
0,57,85,0
0,61,75,0
0,64,96,0
0,57,12,1
0,47,64,1
0,66,90,36
0,47,85,49
0,63,36,29
0,63,47,8
0,59,56,1
0,57,84,0
0,59,88,0
0,63,89,0
0,47,71,57
0,68,86,31
0,71,92,23
0,69,92,25
0,69,87,3
0,64,68,5
0,59,59,3
0,68,69,1
0,40,64,9
0,56,47,1
0,40,51,5
0,64,50,1
0,40,81,7
0,59,89,0
0,66,88,0
0,68,88,0
0,71,90,3
0,47,89,25
0,71,91,3
0,52,92,8
0,71,89,31
0,56,93,2
0,59,97,5
0,64,104,70
0,71,68,39
0,71,82,2
0,71,89,45
0,71,89,55
0,63,86,32
0,49,47,7
0,59,52,1
0,49,59,2
0,37,78,28
0,64,89,0
0,71,85,0
0,69,88,23
0,49,86,5
0,69,88,5
0,64,104,5
0,69,105,0
0,49,73,5
0,57,55,1
0,69,70,1
0,57,50,5
0,57,92,0
0,49,72,5
0,69,87,5
0,64,111,65
0,69,87,32
0,47,62,0
0,59,65,3
0,47,49,1
0,71,86,2
0,47,66,5
0,59,85,0
0,64,97,0
0,66,82,0
0,47,63,37
0,71,86,5
0,66,87,20
0,59,92,0
0,47,74,23
0,63,68,11
0,63,53,9
0,59,85,5
0,63,97,0
0,66,88,0
0,64,87,19
0,59,88,0
0,68,90,41
0,40,71,10
0,64,71,1
0,68,72,1
0,40,52,3
0,59,52,0
0,64,53,2
0,40,85,3
0,59,93,0
0,64,106,0
0,68,88,0
0,42,89,88
0,44,49,3
0,44,75,9
0,59,68,0
0,44,96,5
0,59,87,0
0,64,71,0
0,71,108,0
0,64,90,49
0,64,117,14
0,64,85,49
0,61,60,14
0,57,61,4
0,64,61,1
0,57,50,9
0,61,50,1
0,64,51,0
0,45,50,3
0,45,66,4
0,64,88,0
0,73,93,0
0,69,88,18
0,69,89,49
0,52,87,60
0,69,89,20
0,61,86,5
0,64,86,0
0,69,86,40
0,69,101,33
0,71,85,44
0,59,64,0
0,56,62,0
0,56,51,3
0,47,51,1
0,59,50,0
0,47,75,8
0,59,80,0
0,64,96,0
0,68,101,0
0,71,84,13
0,68,86,60
0,59,78,8
0,66,87,26
0,64,85,27
0,64,93,5
0,64,84,60
0,64,87,7
0,64,80,22
0,66,51,21
0,61,59,0
0,66,61,2
0,57,58,1
0,57,50,1
0,61,50,0
0,47,66,7
0,57,75,0
0,61,86,0
0,66,86,0
0,66,83,12
0,66,83,26
0,57,83,67
0,66,80,35
0,61,73,5
0,66,80,22
0,64,84,6
0,64,81,45
0,64,51,44
0,59,51,4
0,56,50,3
0,64,58,4
0,56,37,2
0,59,54,1
0,40,50,1
0,40,74,3
0,56,87,0
0,59,89,0
0,64,88,0
0,57,79,27
0,47,70,120
0,56,83,105
0,59,100,5
0,64,97,110
0,68,101,120
0,61,88,105
0,71,92,15
0,41,85,0
0,41,117,0
0,61,59,0
0,68,74,0
0,35,77,0
0,51,73,0
0,41,93,0
0,53,80,0
0,61,120,0
0,68,111,0
0,73,101,0
0,41,61,0
0,56,61,0
0,61,60,0
0,73,93,1
0,73,89,8
0,73,88,33
0,41,84,7
0,53,44,80
0,51,72,5
0,61,121,0
0,68,101,0
0,73,100,0
0,35,64,52
0,41,66,0
0,73,91,0
0,73,92,43
0,40,117,100
0,40,60,7
0,40,78,0
0,35,81,0
0,51,73,0
0,40,93,0
0,52,96,0
0,61,93,0
0,68,93,0
0,73,100,0
0,73,92,10
0,73,91,1
0,40,55,5
0,52,68,5
0,73,82,2
0,51,73,5
0,61,110,0
0,68,93,0
0,73,93,0
0,40,78,5
0,39,106,33
0,39,81,0
0,63,61,0
0,51,72,0
0,39,92,0
0,51,87,0
0,61,121,0
0,68,92,0
0,73,92,0
0,39,61,0
0,56,60,2
0,61,65,2
0,73,97,1
0,73,98,36
0,39,87,7
0,51,80,42
0,73,94,6
0,80,75,86
0,51,73,5
0,61,111,0
0,68,111,0
0,73,110,0
0,73,97,16
0,39,79,3
0,73,93,45
0,79,85,11
0,55,65,0
0,67,66,1
0,39,79,8
0,51,72,0
0,39,92,0
0,51,110,0
0,61,127,0
0,67,115,0
0,39,80,23
0,72,96,2
0,51,72,24
0,72,98,18
0,82,88,56
0,70,59,8
0,53,73,5
0,61,111,0
0,67,111,0
0,70,99,25
0,51,74,55
0,72,98,8
0,63,60,3
0,44,107,2
0,60,61,3
0,58,64,0
0,32,100,3
0,63,64,0
0,51,72,0
0,32,112,0
0,44,113,0
0,60,112,0
0,63,113,0
0,70,113,0
0,44,86,15
0,72,99,26
0,72,99,48
0,80,82,29
0,68,80,5
0,51,73,0
0,60,101,0
0,63,120,0
0,68,110,0
0,72,94,18
0,44,43,24
0,60,79,0
0,72,97,15
0,72,98,59
0,75,81,5
0,63,80,3
0,56,64,0
0,43,111,16
0,43,93,7
0,51,73,0
0,43,104,0
0,55,96,0
0,60,97,0
0,63,121,0
0,68,120,0
0,72,98,50
0,43,84,5
0,72,99,21
0,55,55,99
0,70,99,25
0,72,79,45
0,84,72,1
0,68,65,0
0,51,72,2
0,60,100,0
0,63,111,0
0,68,111,0
0,68,94,31
0,43,74,33
0,60,75,0
0,55,62,77
0,72,98,2
0,82,73,2
0,70,74,3
0,42,96,12
0,42,88,3
0,63,67,0
0,53,72,0
0,42,112,0
0,54,113,0
0,60,113,0
0,63,112,0
0,68,112,0
0,68,61,10
0,63,60,1
0,60,64,3
0,72,99,26
0,72,99,62
0,42,63,25
0,72,98,47
0,54,55,17
0,72,65,33
0,80,79,13
0,68,75,5
0,51,72,14
0,60,100,0
0,63,100,0
0,68,111,0
0,72,98,21
0,42,68,44
0,72,103,6
0,63,72,12
0,75,72,0
0,42,90,2
0,51,73,0
0,42,113,0
0,54,113,0
0,60,112,0
0,63,113,0
0,68,112,0
0,70,98,20
0,42,62,0
0,84,73,16
0,72,81,0
0,63,68,5
0,53,73,0
0,54,101,0
0,60,101,0
0,63,110,0
0,68,100,0
0,68,97,2
0,70,97,40
0,54,79,0
0,60,33,0
0,82,80,3
0,41,116,3
0,70,83,0
0,41,97,3
0,62,68,0
0,53,73,0
0,41,108,0
0,53,108,0
0,62,109,0
0,65,108,0
0,70,109,0
0,68,61,3
0,70,60,3
0,62,60,1
0,41,65,6
0,41,81,34
0,53,92,120
0,51,73,5
0,62,111,0
0,65,110,0
0,70,110,0
0,80,82,22
0,68,81,1
0,53,97,140
0,61,60,147
0,73,81,1
0,61,80,3
0,40,97,4
0,40,67,1
0,40,99,0
0,61,67,0
0,47,105,0
0,51,72,0
0,40,101,0
0,52,110,0
0,61,110,0
0,64,97,0
0,68,93,0
0,40,62,7
0,45,101,113
0,52,96,0
0,82,80,3
0,70,80,2
0,45,110,2
0,53,72,0
0,61,101,0
0,64,104,0
0,68,101,0
0,70,87,0
0,28,108,9
0,68,108,0
0,59,61,0
0,64,61,0
0,68,80,0
0,35,127,0
0,42,115,0
0,49,65,0
0,40,88,0
0,52,93,0
0,56,106,0
0,59,106,0
0,64,101,0
0,56,71,0
0,59,70,0
0,64,71,0
0,42,76,2
0,40,85,0
0,52,88,70
0,40,113,5
0,42,115,0
0,56,96,0
0,59,107,0
0,64,111,0
0,28,108,20
0,68,107,0
0,35,110,0
0,42,77,0
0,56,68,0
0,30,109,0
0,57,70,0
0,63,71,0
0,35,127,0
0,42,114,0
0,30,82,0
0,42,97,0
0,57,92,0
0,59,107,0
0,63,97,0
0,57,70,0
0,59,70,0
0,63,71,0
0,69,106,0
0,42,77,3
0,30,82,0
0,68,104,18
0,42,75,70
0,40,112,5
0,42,114,0
0,57,96,0
0,59,100,0
0,63,89,0
0,69,105,5
0,66,105,15
0,42,76,4
0,42,89,0
0,32,107,0
0,59,71,0
0,66,70,0
0,35,126,0
0,42,115,0
0,32,88,0
0,44,96,0
0,59,111,0
0,66,107,0
0,71,100,0
0,56,71,0
0,59,70,0
0,66,70,0
0,71,104,2
0,42,77,22
0,32,68,0
0,44,89,14
0,64,70,5
0,40,113,0
0,42,114,0
0,59,100,0
0,64,123,0
0,71,111,0
0,64,71,0
0,32,104,38
0,35,110,0
0,42,76,0
0,44,82,0
0,59,101,0
0,71,102,2
