track,note,velocity,time
3,25,98,1888
3,25,0,565
3,25,98,155
3,25,0,1080
3,30,98,122
3,30,0,569
3,30,98,150
3,30,0,1080
3,34,98,122
3,34,0,574
3,34,98,144
3,34,0,1080
3,32,98,122
3,32,0,561
3,32,98,159
3,32,0,1080
3,29,98,119
3,29,0,546
3,29,98,175
3,29,0,1080
3,30,98,118
3,30,0,565
3,30,98,157
3,30,0,1080
3,32,98,117
3,32,0,579
3,32,98,143
3,32,0,746
3,32,98,109
3,32,0,314
3,35,98,31
3,35,0,475
3,34,98,243
3,34,0,1080
3,27,98,123
3,27,0,600
3,27,98,117
3,27,0,1080
3,30,98,123
3,30,0,561
3,30,98,156
3,30,0,1080
3,32,98,122
3,32,0,508
3,32,98,212
3,32,0,148
3,32,98,93
3,32,0,917
3,25,98,43
3,25,0,565
3,25,98,154
3,25,0,1080
3,30,98,120
3,30,0,569
3,30,98,150
3,30,0,1080
3,34,98,122
3,34,0,574
3,34,98,145
3,34,0,1080
3,32,98,118
3,32,0,561
3,32,98,162
3,32,0,1080
3,29,98,118
3,29,0,546
3,29,98,173
3,29,0,1080
3,30,85,122
3,30,0,572
3,35,81,148
3,35,0,775
3,34,76,65
3,34,0,348
3,32,90,11
3,32,0,518
3,32,95,204
3,32,0,1080
3,25,95,118
3,25,0,601
3,25,92,121
3,25,0,1080
3,32,70,117
3,32,0,557
3,32,84,163
3,32,0,226
3,32,65,16
3,32,0,862
3,25,99,97
3,25,0,232
3,25,99,128
3,25,0,184
3,25,99,178
3,25,0,1080
3,30,99,119
3,30,0,225
3,30,99,136
3,30,0,674
3,30,99,164
3,30,0,598
3,34,99,124
3,34,0,215
3,34,99,142
3,34,0,198
3,34,99,165
3,34,0,1080
3,32,99,118
3,32,0,239
3,32,99,123
3,32,0,690
3,32,99,148
3,32,0,567
3,29,99,155
3,29,0,190
3,29,99,167
3,29,0,176
3,29,99,187
3,29,0,780
3,41,99,58
3,36,99,121
3,41,0,21
3,29,99,99
3,36,0,22
3,30,99,99
3,29,0,34
3,30,0,218
3,30,99,105
3,30,0,722
3,30,99,119
3,30,0,252
3,30,99,109
3,30,0,256
3,32,99,105
3,32,0,240
3,32,99,119
3,32,0,176
3,32,99,185
3,32,0,1006
3,34,99,73
3,35,99,118
3,34,0,6
3,35,0,702
3,34,99,12
3,34,0,826
3,32,99,15
3,32,0,121
3,30,99,1
3,29,99,119
3,30,0,25
3,27,99,94
3,29,0,4
3,27,0,273
3,27,99,83
3,27,0,263
3,27,99,99
3,27,0,1016
3,29,99,63
3,30,99,119
3,29,0,19
3,30,0,286
3,30,99,57
3,30,0,218
3,30,99,141
3,30,0,364
3,30,99,115
3,30,0,386
3,30,99,93
3,30,0,119
3,31,99,2
3,32,99,122
3,31,0,2
3,32,0,645
3,32,99,72
3,32,0,202
3,32,99,37
3,32,0,429
3,32,99,52
3,32,0,429
3,25,99,51
3,25,0,300
3,25,99,59
3,25,0,300
3,25,99,62
3,25,0,1032
3,30,99,167
3,30,0,300
3,30,99,59
3,30,0,300
3,30,99,62
3,30,0,920
3,32,99,37
3,34,99,242
3,32,0,58
3,34,0,242
3,34,99,59
3,34,0,300
3,34,99,62
3,34,0,808
3,46,91,31
3,41,85,118
3,46,0,21
3,34,80,100
3,41,0,23
3,32,99,98
3,34,0,1
3,32,0,299
3,32,99,59
3,32,0,300
3,32,99,62
3,32,0,1032
3,30,80,45
3,29,99,122
3,30,0,42
3,29,0,258
3,29,99,59
3,29,0,300
3,29,99,62
3,29,0,1032
3,30,99,167
3,30,0,300
3,30,99,59
3,30,0,300
3,35,99,62
3,35,0,1032
3,32,99,167
3,32,0,300
3,32,99,59
3,32,0,300
3,32,99,62
3,32,0,1032
3,25,95,168
3,25,0,300
3,25,95,59
3,25,0,300
3,25,92,61
3,25,0,1080
3,33,102,117
3,33,0,559
3,33,85,163
3,33,0,165
3,33,99,76
3,33,0,829
3,34,109,129
3,34,0,566
3,34,102,155
3,34,0,159
3,34,95,79
3,34,0,856
3,33,102,104
3,33,0,559
3,33,85,163
3,33,0,165
3,33,99,76
3,33,0,829
3,34,102,130
3,34,0,579
3,34,109,141
3,34,0,149
3,34,114,90
3,34,0,431
3,34,92,50
3,32,88,118
3,34,0,27
3,30,92,96
3,32,0,5
3,29,93,113
3,30,0,27
3,27,102,94
3,29,0,16
3,27,0,473
3,27,78,109
3,27,0,69
3,27,78,51
3,27,0,210
3,27,105,31
3,27,0,569
3,27,102,151
3,27,0,210
3,29,95,29
3,29,0,569
3,29,85,154
3,29,0,210
3,29,102,29
3,29,0,585
3,29,105,133
3,29,0,210
3,32,109,30
3,32,0,639
3,32,109,82
3,32,0,170
3,32,102,71
3,32,0,608
3,32,95,113
3,32,0,210
3,32,92,30
3,32,0,1891
3,25,99,28
3,25,0,232
3,25,99,127
3,25,0,184
3,25,99,175
3,25,0,1080
3,30,99,121
3,30,0,225
3,30,99,136
3,30,0,674
3,30,99,165
3,30,0,598
3,34,99,124
3,34,0,215
3,34,99,142
3,34,0,198
3,34,99,165
3,34,0,1080
3,32,99,119
3,32,0,239
3,32,99,120
3,32,0,690
3,32,99,149
3,32,0,567
3,29,99,153
3,29,0,190
3,29,99,172
3,29,0,176
3,29,99,182
3,29,0,780
3,41,99,63
3,36,99,118
3,41,0,24
3,29,99,97
3,36,0,46
3,30,99,75
3,29,0,34
3,30,0,218
3,30,99,108
3,30,0,290
3,35,99,68
3,35,0,1154
3,32,99,45
3,32,0,232
3,32,99,130
3,32,0,184
3,32,99,177
3,32,0,1080
3,25,99,119
3,25,0,252
3,25,99,108
3,34,99,359
3,25,0,3
3,34,0,1175
3,27,99,24
3,27,0,232
3,27,99,125
3,27,0,184
3,27,99,176
3,27,0,1080
3,32,99,120
3,32,0,225
3,32,99,137
3,32,0,674
3,32,99,164
3,32,0,598
3,36,99,125
3,36,0,215
3,36,99,143
3,36,0,198
3,36,99,163
3,36,0,1080
3,34,99,120
3,34,0,239
3,34,99,121
3,34,0,690
3,34,99,149
3,34,0,567
3,31,99,152
3,31,0,190
3,31,99,172
3,31,0,176
3,31,99,184
3,31,0,780
3,43,83,60
3,38,83,118
3,43,0,24
3,31,99,98
3,38,0,45
3,32,99,74
3,31,0,36
3,32,0,216
3,32,99,107
3,37,83,361
3,32,0,1
3,37,0,1141
3,34,99,57
3,34,0,232
3,34,99,129
3,34,0,184
3,34,99,177
3,34,0,1080
3,27,99,118
3,27,0,232
3,27,99,130
3,27,0,184
3,27,99,177
3,27,0,1080
3,34,52,120
3,34,0,3324
3,27,84,34
3,27,0,6
4,53,90,1888
4,25,98,1
4,56,73,0
4,61,93,0
4,37,98,2
4,25,0,494
4,37,0,27
4,37,98,127
4,25,98,0
4,61,0,306
4,56,0,6
4,53,0,11
4,53,76,157
4,56,55,3
4,56,0,75
4,56,55,42
4,61,90,1
4,56,0,39
4,61,0,41
4,53,0,11
4,63,100,151
4,25,0,40
4,37,0,39
4,63,0,7
4,30,98,7
4,58,93,0
4,61,77,2
4,42,98,1
4,54,74,0
4,30,0,393
4,42,0,26
4,42,98,125
4,30,98,0
4,58,0,293
4,61,0,8
4,54,0,55
4,54,48,126
4,58,51,0
4,58,0,45
4,54,0,2
4,61,93,73
4,54,44,1
4,54,0,64
4,61,0,7
4,63,97,168
4,63,0,47
4,30,0,4
4,42,0,24
4,65,88,283
4,58,69,1
4,34,98,1
4,56,49,0
4,61,99,0
4,46,98,1
4,34,0,379
4,46,0,13
4,46,98,131
4,34,98,3
4,56,0,470
4,61,0,18
4,58,0,49
4,65,0,1
4,65,76,60
4,65,0,61
4,65,84,180
4,56,55,1
4,65,0,42
4,56,0,17
4,46,0,3
4,34,0,5
4,61,69,5
4,44,98,1
4,32,98,0
4,65,62,1
4,54,58,0
4,58,93,1
4,32,0,393
4,65,0,24
4,44,0,3
4,44,98,132
4,63,62,1
4,32,98,1
4,58,0,365
4,61,0,21
4,63,0,197
4,61,75,15
4,61,0,178
4,63,74,63
4,61,51,1
4,61,0,51
4,54,0,2
4,63,0,1
4,44,0,28
4,32,0,6
4,29,98,269
4,68,56,0
4,56,52,0
4,41,98,1
4,60,85,0
4,63,85,2
4,29,0,361
4,41,0,23
4,41,98,151
4,29,98,1
4,56,0,439
4,56,49,41
4,63,0,2
4,60,0,1
4,68,0,93
4,60,84,23
4,63,78,243
4,60,0,19
4,29,0,6
4,41,0,11
4,56,0,7
4,63,0,19
4,42,98,2
4,65,92,1
4,58,57,0
4,30,98,2
4,61,91,0
4,68,53,0
4,30,0,388
4,42,0,13
4,30,98,139
4,42,98,1
4,65,0,33
4,61,0,394
4,58,0,20
4,68,0,13
4,58,83,141
4,61,100,238
4,58,0,47
4,61,0,10
4,30,0,33
4,42,0,25
4,44,98,245
4,58,74,0
4,54,49,0
4,63,59,1
4,61,74,0
4,32,98,1
4,32,0,354
4,44,0,15
4,32,98,127
4,44,98,0
4,32,0,692
4,44,0,14
4,61,0,14
4,54,0,3
4,58,0,5
4,63,0,12
4,58,83,98
4,54,62,0
4,63,79,1
4,44,98,1
4,32,98,0
4,61,85,0
4,44,0,55
4,58,0,4
4,32,0,11
4,54,0,4
4,61,0,7
4,63,0,14
4,61,63,262
4,35,98,1
4,47,98,0
4,68,58,0
4,63,100,0
4,66,100,1
4,66,0,235
4,63,0,1
4,61,0,5
4,68,0,20
4,47,0,8
4,35,0,0
4,68,55,244
4,61,52,0
4,34,98,1
4,65,100,0
4,58,59,0
4,46,98,1
4,65,0,454
4,61,0,19
4,68,0,9
4,58,0,23
4,46,0,43
4,34,0,12
4,54,73,377
4,56,79,32
4,58,87,29
4,27,98,1
4,39,98,1
4,61,92,22
4,27,0,503
4,39,0,13
4,39,98,106
4,27,98,1
4,54,0,395
4,58,0,52
4,54,63,34
4,56,0,12
4,61,0,63
4,56,83,43
4,58,100,240
4,56,0,32
4,54,0,29
4,58,0,2
4,27,0,9
4,39,0,22
4,57,100,265
4,54,56,0
4,42,98,1
4,61,100,0
4,30,98,2
4,64,83,0
4,30,0,251
4,61,0,12
4,57,0,9
4,42,0,1
4,54,0,4
4,64,0,19
4,42,98,111
4,30,98,1
4,54,49,2
4,54,0,121
4,54,78,597
4,64,79,121
4,61,100,0
4,57,95,1
4,57,0,40
4,61,0,14
4,64,0,3
4,54,0,4
4,30,0,48
4,42,0,17
4,61,97,232
4,44,98,1
4,63,70,0
4,54,69,0
4,32,98,1
4,58,99,0
4,32,0,337
4,44,0,16
4,54,0,10
4,54,70,64
4,61,0,33
4,63,0,66
4,58,0,5
4,54,0,17
4,44,98,0
4,32,98,0
4,32,0,148
4,44,0,15
4,32,98,75
4,44,98,2
4,68,100,0
4,68,0,93
4,32,0,73
4,44,0,20
4,37,98,44
4,61,93,0
4,53,90,1
4,56,73,0
4,25,98,1
4,25,0,495
4,37,0,23
4,37,98,133
4,25,98,0
4,61,0,302
4,56,0,7
4,53,0,12
4,56,55,157
4,53,76,1
4,56,0,74
4,56,55,44
4,61,90,3
4,56,0,37
4,61,0,43
4,53,0,11
4,63,100,148
4,25,0,44
4,37,0,39
4,63,0,3
4,58,93,7
4,42,98,2
4,30,98,0
4,61,77,0
4,54,74,1
4,30,0,395
4,42,0,23
4,42,98,126
4,30,98,0
4,58,0,293
4,61,0,8
4,54,0,55
4,54,48,124
4,58,51,3
4,54,0,44
4,58,0,1
4,61,93,75
4,54,44,0
4,54,0,64
4,61,0,8
4,63,97,166
4,63,0,47
4,30,0,5
4,42,0,24
4,56,49,283
4,61,99,1
4,65,88,0
4,46,98,1
4,34,98,1
4,58,69,0
4,34,0,380
4,46,0,11
4,46,98,133
4,34,98,2
4,56,0,468
4,61,0,19
4,65,0,52
4,58,0,0
4,65,76,59
4,65,0,61
4,56,55,180
4,65,84,1
4,65,0,43
4,56,0,15
4,46,0,5
4,34,0,4
4,58,93,5
4,65,62,0
4,54,58,0
4,32,98,2
4,61,69,0
4,44,98,1
4,32,0,394
4,44,0,28
4,65,0,18
4,63,62,112
4,44,98,2
4,32,98,0
4,58,0,362
4,61,0,26
4,61,84,212
4,63,0,7
4,61,0,171
4,63,82,59
4,61,57,3
4,61,0,51
4,54,0,0
4,63,0,1
4,44,0,32
4,32,0,4
4,41,98,269
4,63,82,0
4,68,53,1
4,29,98,1
4,60,82,0
4,56,51,0
4,29,0,363
4,41,0,20
4,41,98,152
4,29,98,1
4,56,0,441
4,63,0,38
4,56,49,0
4,60,0,5
4,68,0,93
4,60,84,24
4,63,88,240
4,60,0,22
4,29,0,4
4,41,0,11
4,56,0,6
4,63,0,19
4,42,65,2
4,61,100,0
4,30,85,1
4,65,100,0
4,58,69,0
4,68,59,0
4,65,0,156
4,61,0,12
4,68,0,32
4,30,0,18
4,58,0,4
4,42,0,17
4,68,52,306
4,63,93,0
4,47,83,1
4,58,52,0
4,35,81,1
4,61,88,0
4,58,0,557
4,63,0,34
4,35,0,29
4,61,0,19
4,47,0,5
4,58,50,31
4,46,70,1
4,34,65,1
4,68,0,37
4,34,0,5
4,46,0,17
4,58,0,67
4,63,70,231
4,58,97,0
4,32,90,1
4,61,90,0
4,44,74,2
4,54,78,0
4,58,0,305
4,61,0,9
4,63,0,16
4,32,0,25
4,54,0,18
4,44,0,11
4,44,70,172
4,32,95,2
4,54,52,480
4,61,70,119
4,61,0,68
4,54,0,97
4,54,90,77
4,44,0,97
4,32,0,29
4,54,0,17
4,61,100,214
4,53,99,0
4,37,92,1
4,25,95,2
4,56,100,0
4,25,0,453
4,37,0,22
4,37,92,96
4,25,92,1
4,56,0,334
4,61,0,6
4,53,0,1
4,53,8,139
4,56,52,119
4,53,0,198
4,61,100,40
4,56,0,86
4,61,0,12
4,53,88,25
4,25,0,33
4,37,0,8
4,53,0,4
4,63,49,192
4,58,93,1
4,32,70,1
4,44,81,1
4,54,64,0
4,61,66,0
4,32,0,393
4,44,0,23
4,44,70,138
4,32,84,2
4,44,0,171
4,32,0,7
4,68,70,60
4,44,56,3
4,32,65,0
4,68,0,170
4,63,0,318
4,58,0,0
4,61,0,7
4,54,0,19
4,44,0,20
4,32,0,4
4,25,99,54
4,37,99,0
4,25,0,232
4,37,0,2
4,25,99,125
4,37,99,0
4,37,0,176
4,25,0,8
4,37,99,177
4,25,99,1
4,25,0,1032
4,37,0,7
4,30,99,158
4,42,99,0
4,30,0,225
4,42,0,1
4,42,99,135
4,30,99,2
4,42,0,669
4,30,0,5
4,30,99,165
4,42,99,0
4,30,0,598
4,42,0,4
4,34,99,116
4,46,99,3
4,46,0,209
4,34,0,3
4,46,99,145
4,34,99,1
4,34,0,198
4,46,0,2
4,34,99,161
4,46,99,0
4,46,0,1011
4,34,0,11
4,44,99,176
4,32,99,0
4,32,0,239
4,44,0,0
4,32,99,121
4,44,99,3
4,32,0,687
4,44,0,7
4,32,99,144
4,44,99,2
4,44,0,539
4,32,0,26
4,29,99,153
4,41,99,1
4,29,0,189
4,41,0,14
4,29,99,155
4,41,99,1
4,29,0,175
4,41,0,21
4,41,99,164
4,29,99,1
4,41,0,774
4,29,0,6
4,41,99,61
4,36,99,118
4,41,0,24
4,29,99,95
4,36,0,48
4,30,99,72
4,42,99,2
4,29,0,33
4,30,0,217
4,42,0,1
4,42,99,110
4,30,99,0
4,30,0,722
4,42,0,5
4,30,99,112
4,42,99,0
4,30,0,252
4,42,0,8
4,42,99,98
4,30,99,1
4,30,0,256
4,42,0,7
4,32,99,97
4,44,99,0
4,32,0,240
4,44,0,9
4,32,99,110
4,44,99,3
4,32,0,173
4,44,0,23
4,32,99,162
4,44,99,1
4,32,0,1005
4,44,0,3
4,34,99,70
4,46,99,3
4,46,0,92
4,47,99,26
4,35,99,1
4,34,0,2
4,35,0,706
4,34,99,12
4,46,99,0
4,47,0,15
4,34,0,811
4,32,99,12
4,44,99,3
4,46,0,11
4,44,0,58
4,30,99,48
4,32,0,1
4,42,99,0
4,42,0,118
4,41,99,1
4,29,99,3
4,30,0,21
4,39,99,96
4,27,99,1
4,29,0,5
4,41,0,22
