track,note,velocity,time
4,28,127,60858
4,28,0,809
4,28,127,149
4,28,0,52
4,28,127,139
4,28,0,1056
4,26,127,96
4,26,0,838
4,26,127,124
4,26,0,120
4,26,116,72
4,26,0,907
4,28,127,245
4,28,0,828
4,28,107,128
4,28,0,96
4,24,127,100
4,24,0,442
4,26,127,132
4,26,0,448
4,28,127,131
4,28,0,761
4,28,113,195
4,28,0,152
4,35,127,41
4,35,0,142
4,28,127,49
4,28,0,620
4,26,127,149
4,31,127,193
4,26,0,16
4,31,0,764
4,26,127,176
4,26,0,146
4,31,127,49
4,31,0,777
4,31,127,176
4,31,0,139
4,26,127,63
4,26,0,882
4,26,127,75
4,26,0,140
4,38,127,46
4,38,0,708
4,26,127,61
4,26,0,382
4,33,127,9
4,33,0,794
4,28,127,161
4,33,127,198
4,28,0,11
4,33,0,580
4,33,127,168
4,33,0,153
4,31,127,42
4,31,0,177
4,28,127,20
4,28,0,776
4,23,127,181
4,23,0,152
4,28,127,45
4,28,0,562
4,26,127,198
4,26,0,162
4,26,127,34
4,26,0,82
4,31,127,115
4,31,0,746
4,31,127,207
4,31,0,88
4,31,127,108
4,31,0,589
4,31,127,179
4,31,0,147
4,33,127,47
4,33,0,135
4,26,127,53
4,26,0,776
4,26,127,176
4,26,0,100
4,26,127,103
4,26,0,645
4,26,127,307
4,26,0,118
4,24,127,81
4,24,0,799
4,31,127,159
4,31,0,105
4,36,127,87
4,36,0,625
4,24,127,143
4,24,0,148
4,26,127,48
4,26,0,134
4,31,127,59
4,31,0,802
4,31,127,151
4,31,0,147
4,30,127,46
4,30,0,152
4,31,127,40
4,31,0,141
4,33,127,48
4,33,0,132
4,26,127,60
4,26,0,139
4,26,127,56
4,26,0,142
4,26,127,49
4,26,0,136
4,28,127,60
4,28,0,818
4,28,127,139
4,28,0,156
4,28,127,41
4,28,0,807
4,28,127,149
4,28,0,154
4,26,127,40
4,26,0,798
4,26,127,159
4,26,0,172
4,26,127,28
4,26,0,768
4,26,127,179
4,26,0,187
4,28,127,10
4,28,0,795
4,28,127,164
4,28,0,158
4,24,127,39
4,24,0,487
4,26,127,85
4,26,0,438
4,28,127,139
4,28,0,753
4,28,127,198
4,28,0,177
4,28,127,25
4,28,0,272
4,38,127,106
4,38,0,172
4,40,127,22
4,40,0,153
4,33,127,39
4,33,0,149
4,31,127,44
4,31,0,153
4,28,127,51
4,28,0,748
4,28,127,198
4,28,0,167
4,28,127,31
4,28,0,718
4,28,127,234
4,28,0,172
4,36,127,24
4,36,0,813
4,36,127,146
4,36,0,178
4,36,127,19
4,36,0,621
4,36,127,144
4,36,0,149
4,35,127,42
4,35,0,167
4,31,127,25
4,31,0,837
4,31,127,129
4,31,0,166
4,26,127,28
4,26,0,875
4,26,127,77
4,26,0,168
4,28,127,32
4,28,0,888
4,28,127,72
4,28,0,141
4,28,127,50
4,28,0,508
4,26,127,67
4,26,0,144
4,26,127,47
4,26,0,145
4,26,127,46
4,26,0,178
4,31,127,22
4,31,0,735
4,26,127,214
4,26,0,146
4,31,127,53
4,31,0,568
4,31,115,187
4,31,0,164
4,33,127,30
4,33,0,147
4,26,127,48
4,26,0,786
4,26,127,168
4,26,0,99
4,26,127,99
4,26,0,610
4,26,127,159
4,26,0,133
4,28,127,59
4,28,0,121
4,33,127,76
4,33,0,805
4,28,127,155
4,28,0,167
4,33,127,19
4,33,0,640
4,33,127,133
4,33,0,138
4,31,127,53
4,31,0,178
4,28,127,18
4,28,0,795
4,28,127,158
4,28,0,71
4,40,127,122
4,40,0,323
4,38,127,59
4,38,0,257
4,33,127,128
4,33,0,98
4,30,127,95
4,30,0,109
4,31,127,85
4,31,0,796
4,26,127,165
4,26,0,100
4,31,127,93
4,31,0,596
4,31,127,167
4,31,0,139
4,33,127,57
4,33,0,123
4,26,127,70
4,26,0,967
4,26,127,184
4,26,0,903
4,24,127,254
4,24,0,736
4,24,127,214
4,24,0,65
4,24,127,134
4,24,0,313
4,24,127,68
4,24,0,209
4,24,127,179
4,24,0,177
4,31,127,203
4,31,0,901
4,31,127,62
4,31,0,68
4,30,127,119
4,30,0,149
4,31,127,45
4,31,0,155
4,33,127,35
4,33,0,259
4,38,127,129
4,38,0,152
4,40,127,36
4,40,0,161
4,28,127,32
4,28,0,787
4,28,127,18
4,28,0,24
4,28,127,42
4,28,0,774
4,28,127,180
4,28,0,140
4,26,127,57
4,26,0,786
4,26,127,170
4,26,0,157
4,26,127,44
4,26,0,787
4,26,127,170
4,26,0,109
4,28,127,86
4,28,0,773
4,28,127,179
4,28,0,122
4,24,127,71
4,24,0,492
4,26,127,87
4,26,0,433
4,28,127,145
4,28,0,780
4,28,127,173
4,28,0,157
4,24,127,42
4,24,0,446
4,26,127,132
4,26,0,491
4,28,127,81
4,28,0,669
4,28,127,283
4,28,0,85
4,24,127,111
4,24,0,506
4,26,127,74
4,26,0,455
4,28,127,123
4,28,0,720
4,28,127,239
4,28,0,128
4,36,127,59
4,36,0,336
4,36,127,48
4,36,0,96
4,38,127,96
4,38,0,348
4,38,127,35
4,38,0,135
4,28,127,63
4,28,0,801
4,28,116,152
4,28,0,131
4,24,127,66
4,24,0,506
4,26,127,72
4,26,0,521
4,28,127,59
4,28,0,680
4,30,127,74
4,30,0,177
4,31,127,21
4,31,0,130
4,36,127,64
4,36,0,355
4,36,127,27
4,36,0,163
4,38,127,31
4,38,0,338
4,38,127,40
4,38,0,183
4,28,127,16
4,28,0,850
4,28,127,111
4,28,0,109
4,24,127,83
4,24,0,506
4,26,127,70
4,26,0,529
4,28,127,52
4,28,0,691
4,30,127,73
4,30,0,139
4,31,127,51
4,31,0,145
4,36,127,45
4,36,0,339
4,38,127,238
4,38,0,340
4,38,127,42
4,38,0,140
4,28,127,56
4,28,0,874
4,28,127,87
4,28,0,140
4,24,127,50
4,24,0,523
4,26,127,59
4,26,0,480
4,28,127,88
4,28,0,733
4,30,127,35
4,30,0,168
4,31,127,26
4,31,0,116
4,36,127,73
4,36,0,324
4,36,127,65
4,36,0,135
4,38,127,52
4,38,0,334
4,38,127,46
4,38,0,168
5,74,89,0
5,78,127,0
5,74,0,10
5,78,0,5
5,40,94,1
5,40,0,1437
5,47,91,5763
5,52,107,22
5,55,74,20
5,64,94,20
5,59,61,4
5,64,0,3272
5,55,0,16
5,59,0,7
5,52,0,52
5,47,0,13
5,59,127,24
5,64,127,4
5,67,105,5
5,40,107,0
5,59,0,2
5,64,0,0
5,67,0,0
5,40,0,13
5,48,101,1
5,48,0,21
5,62,107,99
5,74,107,3
5,69,75,4
5,62,0,23
5,74,0,4
5,69,0,20
5,76,107,0
5,76,0,11
5,40,87,0
5,40,0,17
5,62,107,1
5,66,100,1
5,50,106,3
5,57,107,0
5,62,0,10
5,66,0,5
5,57,0,1
5,52,107,7
5,59,106,2
5,64,107,2
5,67,74,11
5,50,0,1
5,52,0,13
5,67,0,24
5,64,0,5
5,59,0,10
5,69,107,0
5,69,0,150
6,71,0,4725
6,71,0,113
6,74,0,101
6,76,0,160
6,74,0,9
6,76,0,71
6,76,0,162
6,76,0,138
6,79,0,73
6,79,0,105
6,76,0,0
6,76,0,1008
6,79,0,542
6,79,0,43
6,79,0,138
6,79,0,411
6,78,0,17
6,78,0,60
6,78,0,45
6,78,0,1005
6,74,0,488
6,76,0,121
6,74,0,5
6,76,0,111
6,76,0,95
6,76,0,156
6,79,0,167
6,76,0,158
6,79,0,13
6,76,0,822
6,76,0,750
6,76,0,44
6,76,0,155
6,76,0,82
6,76,0,30
6,76,0,104
6,76,0,216
6,76,0,474
6,76,0,1104
6,76,0,41
6,76,0,132
6,76,0,200
6,76,0,37
6,76,0,67
6,79,0,249
6,79,0,100
6,76,0,88
6,76,0,547
6,79,0,831
6,79,0,38
6,79,0,171
6,78,0,341
6,79,0,9
6,78,0,45
6,78,0,102
6,76,0,226
6,78,0,20
6,74,0,51
6,76,0,1
6,74,0,216
6,76,0,1258
6,76,0,39
6,76,0,142
6,76,0,174
6,76,0,21
6,76,0,59
6,79,0,133
6,79,0,95
6,76,0,19
6,76,0,817
6,74,0,793
6,74,0,213
6,76,0,15
6,76,0,63
6,76,0,103
6,76,0,64
6,76,0,50
6,76,0,739
6,76,0,1074
6,76,0,75
6,79,0,106
6,79,0,164
6,81,0,101
6,81,0,36
6,83,0,89
6,81,0,121
6,83,0,27
6,79,0,48
6,81,0,25
6,79,0,664
6,83,0,802
6,80,0,7
6,78,0,3
6,78,0,10
6,80,0,2
6,83,0,349
6,81,0,57
6,81,0,37
6,81,0,126
6,78,0,200
6,81,0,14
6,76,0,36
6,78,0,27
6,74,0,60
6,76,0,21
6,74,0,401
6,81,0,1008
6,81,0,185
6,81,0,42
6,81,0,50
6,83,0,104
6,83,0,64
6,83,0,83
6,81,0,60
6,83,0,32
6,81,0,473
6,83,0,807
6,83,0,64
6,81,0,2
6,81,0,64
6,81,0,91
6,79,0,51
6,81,0,21
6,79,0,171
6,76,0,1097
6,76,0,43
6,79,0,22
6,79,0,381
6,81,0,27
6,81,0,46
6,83,0,64
6,83,0,909
6,79,0,817
6,79,0,58
6,83,0,0
6,81,0,316
6,83,0,8
6,81,0,35
6,78,0,8
6,78,0,617
6,81,0,69
6,81,0,29
6,81,0,108
6,79,0,238
6,81,0,9
6,79,0,28
6,76,0,7
6,76,0,638
6,76,0,12
6,76,0,269
6,79,0,119
6,79,0,20
6,79,0,91
6,79,0,963
6,76,0,852
6,76,0,33
6,76,0,132
6,76,0,197
6,76,0,37
6,76,0,38
6,79,0,127
6,79,0,109
6,76,0,22
6,76,0,1078
6,79,0,475
6,79,0,373
6,78,0,33
6,78,0,41
6,78,0,182
6,76,0,70
6,78,0,28
6,74,0,35
6,76,0,27
6,74,0,1013
6,74,0,542
6,74,0,70
6,76,0,17
6,76,0,78
6,76,0,3
6,76,0,217
6,79,0,213
6,79,0,96
6,76,0,15
6,76,0,1013
6,74,0,592
6,74,0,45
6,76,0,129
6,76,0,52
6,76,0,32
6,76,0,656
6,76,0,10247
6,76,0,41
6,76,0,132
6,76,0,200
6,76,0,37
6,76,0,67
6,79,0,249
6,79,0,100
6,76,0,88
6,76,0,547
6,79,0,831
6,79,0,38
6,79,0,171
6,78,0,341
6,79,0,9
6,78,0,45
6,78,0,102
6,76,0,226
6,78,0,20
6,74,0,51
6,76,0,1
6,74,0,216
6,76,0,1258
6,76,0,39
6,76,0,142
6,76,0,174
6,76,0,21
6,76,0,59
6,79,0,133
6,79,0,95
6,76,0,19
6,76,0,817
6,74,0,793
6,74,0,213
6,76,0,15
6,76,0,63
6,76,0,103
6,76,0,64
6,76,0,50
6,76,0,739
6,76,0,1074
6,76,0,75
6,79,0,106
6,79,0,164
6,81,0,101
6,81,0,36
6,83,0,89
6,81,0,121
6,83,0,27
6,79,0,48
6,81,0,25
6,79,0,664
6,83,0,802
6,80,0,7
6,78,0,3
6,78,0,10
6,80,0,2
6,83,0,349
6,81,0,57
6,81,0,37
6,81,0,126
6,78,0,200
6,81,0,14
6,76,0,36
6,78,0,27
6,74,0,60
6,76,0,21
6,74,0,401
6,81,0,1008
6,81,0,185
6,81,0,42
6,81,0,50
6,83,0,104
6,83,0,64
6,83,0,83
6,81,0,51
6,83,0,32
6,81,0,473
6,83,0,807
6,83,0,72
6,81,0,2
6,81,0,64
6,81,0,91
6,79,0,51
6,81,0,21
6,79,0,171
6,76,0,1097
6,76,0,43
6,79,0,22
6,79,0,381
6,81,0,27
6,81,0,46
6,83,0,64
6,83,0,909
6,79,0,817
6,79,0,58
6,83,0,0
6,81,0,316
6,83,0,8
6,81,0,35
6,78,0,8
6,78,0,617
6,81,0,69
6,81,0,29
6,81,0,108
6,79,0,238
6,81,0,9
6,79,0,28
6,76,0,7
6,76,0,638
6,76,0,12
6,76,0,269
6,79,0,119
6,79,0,20
6,79,0,91
6,79,0,963
6,76,0,852
6,76,0,33
6,76,0,132
6,76,0,197
6,76,0,37
6,76,0,38
6,79,0,127
6,79,0,109
6,76,0,22
6,76,0,1078
6,79,0,475
6,79,0,373
6,78,0,33
6,78,0,41
6,78,0,182
6,76,0,70
6,78,0,28
6,74,0,35
6,76,0,27
6,74,0,1013
6,74,0,542
6,74,0,70
6,76,0,17
6,76,0,78
6,76,0,3
6,76,0,217
6,79,0,213
6,79,0,96
6,76,0,15
6,76,0,1013
6,74,0,592
6,74,0,45
6,76,0,129
6,76,0,52
6,76,0,42
6,76,0,647
6,76,0,10414
6,76,0,75
6,79,0,106
6,79,0,164
6,81,0,101
6,81,0,36
6,83,0,89
6,81,0,121
6,83,0,27
6,79,0,48
6,81,0,25
6,79,0,664
6,83,0,802
6,80,0,7
6,78,0,3
6,78,0,10
6,80,0,2
6,83,0,349
6,81,0,57
6,81,0,37
6,81,0,126
6,78,0,200
6,81,0,14
6,76,0,36
6,78,0,27
6,74,0,60
6,76,0,21
6,74,0,401
6,81,0,1008
6,81,0,185
6,81,0,42
6,81,0,50
6,83,0,104
6,83,0,64
6,83,0,83
6,81,0,51
6,83,0,32
6,81,0,473
6,83,0,807
6,83,0,72
6,81,0,2
6,81,0,64
6,81,0,91
6,79,0,61
6,81,0,21
6,79,0,171
6,76,0,1097
6,76,0,43
6,79,0,22
6,79,0,381
6,81,0,27
6,81,0,46
6,83,0,64
6,83,0,909
6,79,0,817
6,79,0,58
6,83,0,0
6,81,0,316
6,83,0,8
6,81,0,35
6,78,0,8
6,78,0,617
6,81,0,69
6,81,0,29
6,81,0,108
6,79,0,238
6,81,0,9
6,79,0,28
6,76,0,7
6,76,0,638
6,76,0,12
6,76,0,269
6,79,0,119
6,79,0,20
6,79,0,91
6,79,0,963
6,76,0,852
6,76,0,33
6,76,0,132
6,76,0,197
6,76,0,37
6,76,0,38
6,79,0,127
6,79,0,109
6,76,0,22
6,76,0,1078
6,79,0,475
6,79,0,373
6,78,0,33
6,78,0,41
6,78,0,182
6,76,0,70
6,78,0,28
6,74,0,35
6,76,0,27
6,74,0,1013
6,74,0,542
6,74,0,70
6,76,0,17
6,76,0,78
6,76,0,3
6,76,0,217
6,79,0,213
6,79,0,96
6,76,0,15
6,76,0,1013
6,74,0,592
6,74,0,45
6,76,0,129
6,76,0,52
6,76,0,42
6,76,0,647
6,71,0,15
6,71,0,93
6,69,0,0
6,69,0,122
6,69,0,2043
6,69,0,37
6,67,0,22
6,67,0,54
6,69,0,31
6,69,0,188
6,62,0,1292
6,62,0,40
6,64,0,146
6,64,0,34
6,64,0,163
6,64,0,208
6,67,0,1721
6,67,0,66
6,66,0,10
6,66,0,240
6,66,0,71
6,66,0,64
6,64,0,111
6,64,0,225
6,62,0,1700
6,62,0,39
6,64,0,156
6,64,0,45
6,64,0,150
6,64,0,189
6,64,0,3137
6,64,0,50
6,64,0,10
6,67,0,1
6,64,0,27
6,66,0,45
6,67,0,21
6,66,0,271
6,62,0,13
6,62,0,53
6,66,0,11
6,64,0,57
6,66,0,20
6,64,0,298
6,67,0,1799
6,67,0,45
6,69,0,39
6,67,0,13
6,67,0,2
6,69,0,333
6,67,0,55
6,67,0,44
6,67,0,35
6,67,0,247
7,78,71,948
7,74,67,1
7,69,77,2
7,81,76,278
7,69,0,19
7,74,0,232
7,83,70,32
7,71,69,2
7,76,65,5
7,88,70,724
7,79,66,4
7,78,0,13
7,90,93,513
7,86,58,1
7,76,0,918
7,81,0,2
7,71,0,17
7,79,0,205
7,88,0,1031
7,83,0,37
7,86,0,26
7,90,0,6
7,59,60,535
7,64,70,2
7,40,67,1
7,67,94,1
7,67,0,2219
7,59,0,31
7,66,58,22
7,38,63,3
7,62,70,5
7,64,0,2
7,57,60,3
7,40,0,19
7,57,0,2235
7,66,0,39
7,40,63,12
7,64,93,3
7,59,69,17
7,67,100,0
7,38,0,22
7,62,0,5
7,59,0,1023
7,67,0,6
7,64,0,31
7,36,59,8
7,60,104,31
7,55,95,0
7,64,102,3
7,40,0,5
7,55,0,481
7,60,0,10
7,64,0,7
7,38,55,34
7,36,0,33
7,57,87,24
