track,note,velocity,time
2,36,70,860
2,60,70,0
2,64,70,0
2,67,70,0
2,67,0,562
2,64,0,0
2,60,0,0
2,36,0,240
2,36,70,122
2,60,70,0
2,65,70,0
2,69,70,0
2,69,0,535
2,36,0,0
2,60,0,0
2,65,0,0
2,36,70,242
2,60,70,0
2,64,70,0
2,67,70,0
2,67,0,440
2,36,0,120
2,60,0,0
2,64,0,0
2,36,70,242
2,60,70,0
2,65,70,0
2,69,70,0
2,69,0,163
2,65,0,0
2,60,0,120
2,36,0,0
2,36,70,242
2,64,70,0
2,67,70,0
2,60,70,0
2,60,0,489
2,67,0,0
2,64,0,0
2,36,0,120
2,45,70,242
2,62,70,0
2,65,70,0
2,69,70,0
2,69,0,566
2,65,0,0
2,62,0,0
2,45,0,120
2,40,70,5
2,64,70,0
2,60,70,0
2,67,70,0
2,67,0,152
2,60,0,0
2,64,0,0
2,40,0,120
2,45,70,122
2,60,70,0
2,64,70,0
2,69,70,0
2,69,0,138
2,45,0,0
2,60,0,0
2,64,0,0
2,57,70,242
2,60,70,0
2,65,70,0
2,43,70,0
2,43,0,707
2,57,0,0
2,60,0,0
2,65,0,0
2,59,73,2
2,62,71,0
2,67,72,0
2,43,70,240
2,43,0,358
2,43,70,122
2,59,0,240
2,67,0,0
2,62,0,0
2,43,0,5
2,41,90,7915
2,53,65,0
2,57,65,0
2,60,65,0
2,60,0,1333
2,57,0,18
2,53,0,12
2,41,0,414
2,36,90,2
2,62,65,0
2,55,65,0
2,64,65,0
2,67,65,0
2,67,0,516
2,64,0,1
2,55,0,12
2,62,0,4
2,36,0,319
2,41,90,2
2,57,65,0
2,60,65,0
2,64,65,0
2,64,0,334
2,60,0,15
2,57,0,16
2,41,0,467
2,43,90,2
2,55,65,0
2,57,65,0
2,62,65,0
2,62,0,439
2,57,0,4
2,55,0,5
2,43,0,393
2,44,90,2
2,59,65,0
2,62,65,0
2,56,65,0
2,64,65,0
2,64,0,438
2,56,0,0
2,62,0,10
2,59,0,0
2,44,0,372
2,45,90,2
2,52,65,0
2,59,65,0
2,60,65,0
2,60,0,559
2,59,0,9
2,52,0,23
2,52,65,241
2,57,65,0
2,60,65,0
2,60,0,227
2,57,0,25
2,52,0,6
2,45,0,115
2,43,90,2
2,55,65,0
2,52,65,0
2,60,65,0
2,60,0,204
2,52,0,0
2,55,0,19
2,43,0,134
2,41,90,2
2,53,65,0
2,57,65,0
2,60,65,0
2,60,0,580
2,57,0,6
2,53,0,22
2,41,0,247
2,40,90,2
2,52,65,0
2,55,65,0
2,60,65,0
2,60,0,228
2,55,0,4
2,52,0,3
2,40,0,136
2,45,90,2
2,57,65,0
2,52,65,0
2,60,65,0
2,60,0,110
2,52,0,15
2,57,0,4
2,45,0,258
2,60,65,2
2,53,65,0
2,57,65,0
2,43,90,0
2,43,0,1678
2,57,0,16
2,53,0,5
2,60,0,1
2,50,65,544
2,72,65,0
2,69,65,0
2,74,65,0
2,65,65,0
2,65,0,808
2,74,0,14
2,69,0,13
2,72,0,10
2,50,0,2
2,71,65,89
2,67,65,0
2,74,65,0
2,43,65,0
2,43,0,290
2,74,0,2
2,67,0,1
2,71,0,11
2,74,65,29
2,41,65,0
2,71,65,0
2,67,65,0
2,67,0,116
2,71,0,11
2,41,0,6
2,74,0,0
2,67,65,237
2,71,65,0
2,64,65,0
2,52,65,0
2,52,0,489
2,64,0,11
2,71,0,9
2,67,0,13
2,45,65,333
2,69,65,0
2,72,65,0
2,64,65,0
2,64,0,476
2,72,0,13
2,69,0,23
2,45,0,82
2,50,65,247
2,65,65,0
2,74,65,0
2,69,65,0
2,69,0,562
2,74,0,4
2,65,0,70
2,50,0,11
2,52,65,177
2,64,65,0
2,71,65,0
2,67,65,0
2,67,0,503
2,71,0,9
2,64,0,36
2,52,0,23
2,43,65,2
2,65,65,0
2,60,65,0
2,69,65,0
2,69,0,613
2,60,0,3
2,65,0,14
2,43,0,44
2,43,65,197
2,67,65,0
2,71,65,0
2,62,65,0
2,62,0,569
2,71,0,5
2,67,0,12
2,43,0,40
2,67,65,215
2,64,65,0
2,72,65,0
2,48,65,0
2,48,0,4
2,67,0,0
2,64,0,0
2,72,0,0
2,53,65,0
2,64,65,0
2,72,65,0
2,69,65,0
2,76,65,0
2,76,0,1551
2,69,0,0
2,53,0,120
2,64,0,0
2,72,0,0
2,67,65,242
2,52,65,0
2,74,65,0
2,64,65,0
2,62,65,0
2,71,65,0
2,71,0,574
2,52,0,0
2,74,0,0
2,67,0,0
2,62,0,0
2,64,0,0
2,69,65,242
2,72,65,0
2,57,65,0
2,67,65,0
2,64,65,0
2,64,0,590
2,57,0,0
2,69,0,0
2,72,0,0
2,67,0,0
2,65,65,242
2,74,65,0
2,69,65,0
2,72,65,0
2,50,65,0
2,50,0,608
2,69,0,0
2,72,0,0
2,74,0,120
2,65,0,0
2,69,65,122
2,65,65,0
2,72,65,0
2,55,65,0
2,43,65,0
2,43,0,607
2,72,0,0
2,69,0,0
2,65,0,0
2,55,0,0
2,48,65,242
2,67,65,0
2,72,65,0
2,64,65,0
2,60,65,0
2,60,0,1160
2,72,0,120
2,64,0,0
2,67,0,0
2,48,0,120
2,76,65,362
2,72,65,0
2,69,65,0
2,64,65,0
2,53,65,0
2,53,0,1326
2,69,0,0
2,76,0,0
2,72,0,0
2,64,0,0
2,52,65,482
2,67,65,0
2,74,65,0
2,71,65,0
2,62,65,0
2,64,65,0
2,64,0,474
2,71,0,0
2,62,0,0
2,52,0,120
2,74,0,0
2,67,0,0
2,64,65,242
2,57,65,0
2,69,65,0
2,72,65,0
2,67,65,110
2,67,0,118
2,67,65,122
2,67,0,358
2,72,0,0
2,64,0,0
2,57,0,0
2,69,0,0
2,50,65,122
2,65,65,0
2,72,65,0
2,69,65,0
2,69,0,591
2,50,0,0
2,65,0,0
2,72,0,0
2,52,65,242
2,67,65,0
2,71,65,0
2,64,65,0
2,62,65,0
2,62,0,610
2,71,0,0
2,64,0,0
2,67,0,0
2,52,0,120
2,53,65,122
2,72,65,0
2,69,65,0
2,64,65,0
2,64,0,482
2,69,0,0
2,72,0,120
2,53,0,0
2,72,65,242
2,69,65,0
2,55,65,0
2,65,65,0
2,60,65,0
2,60,0,483
2,55,0,0
2,65,0,0
2,69,0,120
2,72,0,0
2,48,65,242
2,67,65,0
2,64,65,0
2,72,65,0
2,60,65,0
2,60,0,766
2,64,0,0
2,48,0,0
2,67,0,0
2,72,0,0
2,72,65,122
2,65,65,0
2,69,65,0
2,60,65,0
2,48,65,0
2,48,0,133
2,69,0,0
2,60,0,0
2,65,0,0
2,72,0,120
2,60,65,122
2,67,65,0
2,71,65,0
2,74,65,0
2,48,65,0
2,48,0,151
2,71,0,0
2,60,0,0
2,67,0,0
2,74,0,0
2,72,65,242
2,67,65,0
2,60,65,0
2,48,65,0
2,76,65,0
2,76,0,262
2,60,0,120
2,72,0,0
2,67,0,0
2,48,0,0
2,71,65,482
2,66,65,0
2,59,65,0
2,62,65,0
2,47,65,0
2,47,0,509
2,59,0,0
2,62,0,0
2,66,0,0
2,71,0,120
2,68,65,242
2,71,65,0
2,75,65,0
2,52,65,0
2,59,65,0
2,64,65,0
2,64,0,1455
2,71,0,0
2,75,0,0
2,68,0,0
2,59,0,0
2,52,0,0
2,61,64,362
2,51,66,0
2,73,65,0
2,66,64,0
2,58,65,0
2,70,65,0
2,70,0,548
2,58,0,43
2,66,0,7
2,73,0,92
2,51,0,21
2,61,0,63
2,71,65,94
2,63,67,0
2,59,64,0
2,75,65,0
2,56,66,0
2,66,65,0
2,66,0,97
2,63,0,0
2,59,0,0
2,71,0,0
2,56,0,0
2,75,0,0
2,68,65,1
2,71,65,0
2,64,65,0
2,61,65,0
2,73,67,0
2,49,65,0
2,54,65,960
2,42,65,0
2,64,65,0
2,68,65,0
2,71,65,0
2,71,0,5
2,49,0,0
2,68,0,7
2,73,0,0
2,64,0,7
2,61,0,21
2,71,0,375
2,64,0,0
2,68,0,0
2,42,0,0
2,54,0,0
2,63,65,362
2,47,65,0
2,66,65,0
2,71,65,0
2,59,65,0
2,59,0,1180
2,66,0,120
2,71,0,0
2,47,0,0
2,63,0,120
2,63,65,362
2,68,65,0
2,71,65,0
2,40,65,0
2,52,65,0
2,52,0,1444
2,40,0,0
2,71,0,240
2,68,0,120
2,63,0,0
2,63,65,2
2,70,65,0
2,66,65,0
2,51,65,0
2,39,65,0
2,39,0,469
2,51,0,0
2,66,0,120
2,70,0,0
2,63,0,120
2,56,65,122
2,68,65,0
2,66,65,0
2,71,65,0
2,44,65,0
2,63,65,0
2,63,0,336
2,71,0,0
2,66,0,0
2,44,0,0
2,68,0,120
2,56,0,120
2,68,65,242
2,73,65,0
2,61,65,0
2,64,65,0
2,49,65,0
2,49,0,248
2,64,0,0
2,61,0,120
2,73,0,120
2,68,0,0
2,51,65,362
2,70,65,0
2,66,65,0
2,75,65,0
2,58,65,0
2,63,65,0
2,63,0,493
2,70,0,0
2,66,0,0
2,51,0,0
2,58,0,0
2,75,0,0
2,61,65,362
2,49,65,0
2,68,65,0
2,73,65,0
2,64,65,0
2,64,0,379
2,68,0,120
2,61,0,0
2,49,0,0
2,73,0,0
2,51,65,362
2,63,65,0
2,66,65,0
2,75,65,0
2,73,65,0
2,70,65,0
2,70,0,478
2,73,0,0
2,66,0,120
2,51,0,0
2,63,0,0
2,75,0,0
2,61,65,242
2,73,65,0
2,71,65,0
2,49,65,0
2,68,65,0
2,64,65,0
2,64,0,345
2,73,0,120
2,71,0,0
2,61,0,0
2,68,0,0
2,49,0,0
2,75,65,362
2,73,65,0
2,51,65,0
2,66,65,0
2,63,65,0
2,70,65,0
2,70,0,358
2,63,0,0
2,51,0,120
2,75,0,0
2,73,0,0
2,66,0,0
2,52,65,9
2,68,65,0
2,64,65,0
2,75,65,0
2,71,65,0
2,71,0,518
2,64,0,0
2,52,0,0
2,68,0,0
2,75,0,0
2,42,65,1
2,54,65,0
2,68,65,0
2,71,65,0
2,64,65,0
2,64,0,170
2,68,0,0
2,71,0,0
2,54,0,120
2,42,0,0
2,66,65,122
2,54,65,0
2,73,65,0
2,42,65,0
2,70,65,0
2,70,0,149
2,73,0,0
2,66,0,0
2,54,0,0
2,42,0,0
2,63,65,242
2,71,65,0
2,66,65,0
2,47,65,0
2,59,65,0
2,59,0,378
2,66,0,120
2,63,0,0
2,71,0,0
2,47,0,0
2,68,65,362
2,71,65,0
2,56,65,0
2,64,65,0
2,44,65,0
2,44,0,487
2,56,0,0
2,68,0,0
2,71,0,0
2,64,0,0
2,63,65,362
2,71,65,0
2,47,65,0
2,66,65,0
2,59,65,0
2,59,0,478
2,47,0,0
2,63,0,0
2,71,0,0
2,66,0,0
2,71,65,362
2,68,65,0
2,64,65,0
2,44,65,0
2,56,65,0
2,56,0,366
2,44,0,0
2,71,0,120
2,68,0,0
2,64,0,0
2,63,65,362
2,71,65,0
2,66,65,0
2,47,65,0
2,59,65,0
2,59,0,382
2,47,0,0
2,63,0,120
2,71,0,0
2,66,0,0
2,42,65,6
2,54,65,0
2,68,65,0
2,64,65,0
2,71,65,0
2,71,0,169
2,68,0,0
2,42,0,0
2,54,0,0
2,64,0,0
2,66,68,242
2,54,67,0
2,70,66,0
2,42,69,0
2,73,69,0
2,73,0,219
2,42,0,0
2,66,0,9
2,54,0,0
2,70,0,0
2,66,71,228
2,63,71,0
2,71,71,0
2,75,71,0
2,47,65,0
2,47,0,896
2,71,0,0
2,66,0,0
2,63,0,0
2,75,0,0
3,48,127,4596
3,48,0,956
3,45,127,4
3,45,0,949
3,52,127,11
3,45,127,480
3,52,0,12
3,43,127,468
3,45,0,12
3,43,0,1675
3,41,90,7913
3,41,0,1918
3,36,90,2
3,36,0,958
3,41,90,2
3,41,0,958
3,43,90,2
3,43,0,958
3,44,90,2
3,44,0,958
3,45,90,2
3,45,0,1438
3,43,90,2
3,43,0,478
3,41,90,2
3,41,0,958
3,40,90,2
3,40,0,478
3,45,90,2
3,45,0,478
3,43,90,2
3,43,0,1665
3,38,90,512
3,38,0,956
3,43,90,4
3,43,0,480
3,41,90,0
3,41,0,466
3,40,90,14
3,45,90,960
3,40,0,11
3,45,0,931
3,38,90,18
3,40,90,960
3,38,0,4
3,40,0,945
3,43,90,11
3,43,90,960
3,43,0,130
3,43,0,812
3,36,90,18
3,36,0,949
3,36,90,11
3,36,0,942
3,55,86,0
3,60,86,0
3,36,86,0
3,36,0,195
3,48,127,233
3,60,0,7
3,55,0,7
3,47,127,226
3,48,0,15
3,44,70,17
3,36,70,9
3,48,70,0
3,47,0,9
3,38,70,7
3,50,70,0
3,48,0,21
3,36,0,0
3,40,70,11
3,52,70,0
3,41,70,18
3,53,70,0
3,50,0,7
3,38,0,0
3,42,70,21
3,54,70,0
3,52,0,24
3,40,0,0
3,41,0,23
3,53,0,0
3,42,0,7
3,54,0,0
3,46,70,4
3,58,70,0
3,47,70,32
3,59,70,0
3,58,0,19
3,46,0,0
3,48,70,4
3,60,70,0
3,50,70,15
3,62,70,0
3,59,0,9
3,47,0,0
3,52,70,19
3,64,70,0
3,60,0,1
3,48,0,0
3,53,70,6
3,65,70,0
3,50,0,7
3,62,0,0
3,55,70,21
3,67,70,0
3,52,0,5
3,64,0,0
3,53,0,6
3,65,0,0
3,57,70,9
3,69,70,0
3,59,70,7
3,71,70,0
3,55,0,9
3,67,0,0
3,60,70,5
3,72,70,0
3,69,0,14
3,57,0,0
3,61,70,4
3,73,70,0
3,59,0,2
3,71,0,0
3,62,70,3
3,74,70,0
3,61,0,8
3,73,0,0
3,60,0,4
3,72,0,0
3,64,70,17
3,76,70,0
3,62,0,6
3,74,0,0
3,65,70,11
3,77,70,0
3,76,0,21
3,64,0,0
3,67,72,0
3,77,0,22
3,65,0,0
3,44,0,19
3,67,0,14
3,41,90,0
3,41,0,879
3,41,90,32
3,41,0,935
3,40,90,25
3,45,90,960
3,40,0,4
3,45,0,938
3,38,90,18
3,43,90,960
3,38,0,11
3,43,0,924
3,36,90,25
3,36,0,942
3,36,90,18
3,36,0,935
3,41,90,25
3,41,0,935
3,41,90,25
3,41,0,942
3,40,90,18
3,40,0,956
3,45,90,4
3,45,0,949
3,38,90,11
3,38,0,949
3,40,90,11
3,40,0,949
3,41,90,11
3,43,90,960
3,41,0,4
3,43,0,938
3,36,90,18
3,36,90,960
3,36,0,18
3,48,90,462
3,36,0,14
3,48,0,452
3,36,90,0
3,55,86,0
3,60,86,0
3,36,86,0
3,36,0,195
3,48,112,233
3,60,0,7
3,55,0,7
3,36,0,222
3,47,118,4
3,35,90,0
3,48,0,15
3,47,79,17
3,36,70,9
3,48,70,0
3,47,0,9
3,38,70,7
3,50,70,0
3,36,0,21
3,48,0,0
3,40,70,11
3,52,70,0
3,41,70,18
3,53,70,0
3,38,0,7
3,50,0,0
3,42,70,21
3,54,70,0
3,40,0,24
3,52,0,0
3,41,0,23
3,53,0,0
3,42,0,7
3,54,0,0
3,46,70,4
3,58,70,0
3,47,70,32
3,59,70,0
3,58,0,19
3,46,0,0
3,48,70,4
3,60,70,0
3,50,70,15
3,62,70,0
3,47,0,9
3,59,0,0
3,52,70,19
3,64,70,0
3,48,0,1
3,60,0,0
3,53,70,6
3,65,70,0
3,50,0,7
3,62,0,0
3,55,70,21
3,67,70,0
3,52,0,5
3,64,0,0
3,53,0,6
3,65,0,0
3,57,70,9
3,69,70,0
3,59,70,7
3,71,70,0
3,55,0,9
3,67,0,0
3,60,70,5
3,72,70,0
3,57,0,14
3,69,0,0
3,61,70,4
3,73,70,0
3,59,0,2
3,71,0,0
3,62,70,3
3,74,70,0
3,73,0,8
3,61,0,0
3,72,0,4
3,60,0,0
3,64,70,17
3,76,70,0
3,62,0,6
3,74,0,0
3,65,70,11
3,77,70,0
3,64,0,21
3,76,0,0
3,65,0,22
3,77,0,0
3,35,0,15
3,47,0,1
3,40,90,14
3,40,0,928
3,40,90,32
3,40,0,942
