track,note,velocity,time
3,41,79,17568
3,41,0,382
3,40,79,2
3,40,0,382
3,39,82,2
3,39,0,382
3,39,78,2
3,44,82,2
3,44,0,382
3,43,85,2
3,43,0,382
3,42,81,2
3,42,0,766
3,41,78,2
3,41,0,382
3,39,80,2
3,39,0,382
3,28,92,2
3,28,0,247
3,28,95,41
3,28,0,95
3,30,95,1
3,30,0,383
3,32,101,1
3,32,0,265
3,32,96,23
3,37,100,1
3,37,0,381
3,30,112,3
3,30,0,265
3,30,102,23
3,30,0,70
3,30,109,26
3,30,0,181
3,37,122,11
3,36,101,6
3,36,0,254
3,36,114,34
3,35,109,1
3,35,0,372
3,28,109,12
3,28,0,267
3,28,79,21
3,28,0,95
3,30,116,1
3,30,0,383
3,32,107,1
3,32,0,268
3,32,81,20
3,32,0,95
3,37,105,1
3,37,94,1
3,37,0,1
3,30,95,47
3,30,0,47
3,23,107,1
3,23,0,268
3,23,84,20
3,23,0,95
3,28,87,1
3,28,0,368
3,34,96,16
3,34,0,238
3,37,84,2
3,37,0,47
3,46,99,1
3,46,0,95
3,45,104,1
3,45,0,359
3,44,112,25
3,44,0,191
3,40,79,1
3,40,0,191
3,30,91,1
3,30,0,383
3,32,102,1
3,32,0,383
3,37,103,1
3,37,0,382
3,30,96,2
3,30,0,335
3,37,74,1
3,37,0,45
3,42,109,3
3,42,0,191
3,30,90,1
3,30,0,185
3,23,95,7
3,23,0,335
3,30,57,1
3,30,0,47
3,35,110,1
3,35,0,191
3,23,104,1
3,28,99,11
3,28,0,260
3,28,79,28
3,28,0,95
3,30,108,1
3,30,0,383
3,32,95,1
3,32,0,272
3,32,58,16
3,32,0,90
3,33,85,6
3,40,64,1
3,33,53,1
3,33,0,385
3,35,77,2879
3,35,0,190
3,28,87,2
3,28,0,382
3,37,86,2
3,37,0,379
3,35,89,5
3,35,74,17
3,35,0,95
3,28,71,1
3,28,0,286
3,30,55,2
3,30,0,49
3,32,93,47
3,32,0,282
3,32,77,6
3,32,0,94
3,33,89,2
3,33,0,383
3,34,91,1
3,34,0,253
3,34,78,35
3,35,80,1
3,35,0,186
3,35,80,6
3,35,0,183
3,28,90,9
3,28,0,280
3,28,73,8
3,28,0,90
3,37,77,6
3,35,80,1
3,35,0,270
3,35,64,18
3,35,0,76
3,28,79,20
3,32,90,3
3,32,0,191
3,33,80,1
3,33,0,277
3,33,73,11
3,33,0,95
3,35,78,1
3,23,75,22
3,23,0,377
3,28,81,7
3,29,102,14
3,29,0,258
3,29,91,30
3,29,0,94
3,28,104,2
3,40,82,2
3,40,0,190
3,39,85,2
3,39,72,13
3,32,92,15
3,32,0,274
3,32,76,14
3,32,0,94
3,31,83,2
3,31,0,383
3,30,97,1
3,30,0,334
3,36,62,2
3,36,0,47
3,42,93,1
3,42,0,383
3,41,77,1
3,41,0,383
3,39,102,1
3,39,0,359
3,28,93,25
3,28,0,247
3,28,97,41
3,28,0,95
3,30,90,1
3,30,0,383
3,32,97,1
3,32,0,265
3,32,97,23
3,37,102,1
3,37,0,381
3,30,114,3
3,30,0,265
3,30,101,23
3,30,0,70
3,30,108,26
3,30,0,181
3,37,119,11
3,36,106,6
3,36,0,254
3,36,114,34
3,35,109,1
3,35,0,372
3,28,104,12
3,28,0,267
3,28,79,21
3,28,0,95
3,30,114,1
3,30,0,383
3,32,109,1
3,32,0,268
3,32,86,20
3,32,0,95
3,37,106,1
3,37,90,1
3,37,0,1
3,30,97,47
3,30,0,47
3,23,104,1
3,23,0,268
3,23,88,20
3,23,0,95
3,28,88,1
3,28,0,368
3,34,93,16
3,34,0,238
3,37,81,2
3,37,0,47
3,46,97,1
3,46,0,95
3,45,103,1
3,45,0,190
3,33,100,2
3,33,0,190
3,32,117,2
3,32,0,190
3,28,81,2
3,28,0,190
3,30,98,2
3,30,0,383
3,32,97,1
3,32,0,383
3,37,105,1
3,37,0,382
3,30,94,2
3,30,0,335
3,37,71,1
3,37,0,45
3,42,109,3
3,42,0,191
3,30,89,1
3,30,0,185
3,23,93,7
3,23,0,335
3,30,52,1
3,30,0,47
3,35,104,1
3,35,0,191
3,23,104,1
3,28,102,11
3,28,0,260
3,28,82,28
3,28,0,95
3,30,107,1
3,30,0,383
3,32,100,1
3,32,0,272
3,32,59,16
3,32,0,90
3,33,84,6
3,40,68,1
3,33,54,1
3,33,0,385
3,28,114,767
3,28,0,382
3,30,97,2
3,30,0,383
3,32,95,1
3,32,0,383
3,37,102,1
3,37,0,382
3,30,95,2
3,30,0,335
3,37,69,1
3,37,0,45
3,42,110,3
3,42,0,191
3,30,89,1
3,30,0,185
3,23,96,7
3,23,0,335
3,30,53,1
3,30,0,47
3,35,103,1
3,35,0,191
3,23,108,1
3,28,99,11
3,28,0,260
3,28,83,28
3,28,0,95
3,30,104,1
3,30,0,383
3,32,96,1
3,32,0,272
3,32,65,16
3,32,0,90
3,33,81,6
3,40,67,1
3,33,52,1
3,33,0,385
4,48,72,720
4,54,64,0
4,64,60,0
4,63,71,120
4,64,0,10
4,63,0,143
4,54,0,23
4,48,0,3
4,46,69,409
4,54,54,0
4,61,67,0
4,61,0,226
4,46,0,4
4,54,0,2
4,47,76,476
4,51,74,0
4,56,71,0
4,54,73,192
4,56,0,3
4,40,62,17
4,47,54,0
4,52,69,0
4,56,45,0
4,71,69,780
4,71,68,1764
4,40,80,0
4,47,78,0
4,56,83,0
4,64,81,192
4,68,63,96
4,76,66,0
4,80,66,0
4,60,74,2
4,66,41,2
4,75,55,0
4,78,58,0
4,61,54,36
4,64,55,0
4,68,62,0
4,73,69,13
4,64,0,157
4,61,0,23
4,58,67,12
4,66,52,0
4,47,63,108
4,52,86,0
4,56,66,0
4,54,84,2
4,56,0,94
4,52,61,2
4,56,67,0
4,54,0,5
4,56,0,176
4,47,0,2
4,52,0,2
4,47,69,7
4,51,64,0
4,56,64,0
4,54,64,192
4,56,0,3
4,47,0,158
4,51,0,13
4,54,0,1
4,40,71,17
4,52,69,0
4,56,75,0
4,59,61,192
4,68,63,0
4,49,64,2
4,64,65,0
4,69,64,0
4,49,0,290
4,69,0,0
4,64,0,1
4,47,60,12
4,52,70,0
4,54,66,0
4,51,59,192
4,52,0,1
4,54,0,12
4,47,0,22
4,40,67,58
4,47,49,0
4,54,53,0
4,56,60,0
4,52,64,175
4,54,0,1
4,40,0,168
4,47,0,0
4,52,0,4
4,56,0,0
4,44,61,19
4,52,72,0
4,59,72,0
4,64,75,192
4,63,61,96
4,64,0,3
4,44,0,72
4,45,72,21
4,61,71,0
4,63,0,5
4,57,62,12
4,52,0,163
4,45,0,2
4,61,0,3
4,57,0,4
4,46,63,20
4,54,69,0
4,61,73,0
4,66,63,192
4,46,0,109
4,66,0,3
4,54,0,3
4,61,0,11
4,47,65,3
4,52,66,0
4,61,75,0
4,52,0,190
4,51,64,2
4,59,74,0
4,61,0,7
4,59,0,178
4,51,0,3
4,47,0,2
4,40,74,2
4,47,71,0
4,52,71,0
4,56,75,0
4,64,77,78
4,64,0,42
4,63,75,6
4,40,0,38
4,47,0,8
4,63,0,0
4,45,73,2
4,59,73,0
4,61,75,0
4,56,0,1
4,59,0,93
4,57,81,2
4,57,0,283
4,45,0,1
4,47,58,4
4,54,67,0
4,59,69,0
4,64,70,0
4,61,0,4
4,52,0,1
4,64,0,173
4,63,61,14
4,40,61,50
4,52,51,0
4,64,69,0
4,40,0,184
4,52,0,0
4,64,0,0
4,44,60,2
4,52,50,0
4,59,73,0
4,44,0,190
4,52,0,0
4,59,0,0
4,45,61,2
4,52,57,0
4,61,52,0
4,64,54,0
4,52,0,104
4,64,0,0
4,61,0,1
4,45,0,1
4,47,49,26
4,52,52,0
4,59,48,0
4,68,48,0
4,59,0,136
4,68,0,0
4,52,0,1
4,47,0,3
4,47,43,8
4,51,50,0
4,57,50,0
4,66,45,0
4,40,71,0
4,47,66,0
4,56,70,0
4,64,72,0
4,41,69,2
4,53,60,0
4,61,59,0
4,65,62,0
4,68,69,0
4,40,0,10
4,53,0,79
4,41,0,6
4,65,0,156
4,40,69,22
4,52,65,0
4,64,74,0
4,52,0,83
4,40,0,7
4,64,0,40
4,39,70,26
4,51,67,0
4,63,70,0
4,67,69,9
4,75,69,0
4,63,0,32
4,67,0,1
4,75,0,0
4,39,0,6
4,51,0,2
4,82,67,73
4,44,72,19
4,51,69,0
4,56,72,0
4,60,68,0
4,63,66,0
4,82,0,190
4,80,61,2
4,56,0,179
4,44,0,1
4,43,74,12
4,55,42,0
4,75,53,0
4,84,65,178
4,75,0,9
4,43,0,153
4,55,0,14
4,84,0,14
4,42,70,2
4,54,40,0
4,82,60,0
4,82,0,190
4,80,59,2
4,80,0,190
4,75,52,2
4,84,64,192
4,75,0,9
4,84,0,181
4,41,63,2
4,56,71,0
4,62,73,0
4,70,64,0
4,82,63,0
4,51,0,2
4,60,0,0
4,54,0,2
4,63,0,0
4,42,0,2
4,82,0,184
4,80,59,2
4,56,0,157
4,41,0,3
4,39,9,1
4,51,42,0
4,56,73,0
4,58,61,0
4,73,55,0
4,56,0,190
4,55,74,2
4,40,64,2
4,47,73,0
4,56,63,0
4,59,75,0
4,64,73,0
4,71,61,0
4,42,43,2
4,49,39,0
4,57,67,0
4,64,0,190
4,63,55,2
4,42,0,190
4,57,0,0
4,63,0,0
4,49,0,1
4,44,56,1
4,52,71,0
4,59,74,0
4,66,72,0
4,64,76,192
4,66,0,6
4,44,0,184
4,59,0,0
4,64,0,0
4,49,73,2
4,56,67,0
4,63,68,0
4,66,69,0
4,63,0,186
4,64,66,2
4,68,55,0
4,66,0,6
4,42,63,2
4,49,65,0
4,54,56,0
4,57,64,0
4,64,68,0
4,69,58,0
4,57,0,66
4,64,0,3
4,69,0,1
4,42,0,13
4,49,0,2
4,54,0,1
4,36,63,19
4,48,65,0
4,54,60,0
4,57,73,0
4,66,72,79
4,35,67,2
4,47,65,0
4,64,68,0
4,63,59,2
4,40,59,2
4,47,74,0
4,56,66,0
4,59,68,0
4,64,69,0
4,71,60,0
4,42,38,2
4,49,41,0
4,57,71,0
4,64,0,190
4,63,62,2
4,42,0,190
4,57,0,0
4,63,0,0
4,49,0,1
4,44,56,1
4,52,68,0
4,59,71,0
4,64,73,0
4,44,0,382
4,64,0,0
4,71,0,0
4,49,59,2
4,56,66,0
4,66,72,0
4,52,0,4
4,59,0,186
4,64,79,2
4,66,0,6
4,47,69,2
4,54,76,0
4,62,91,0
4,66,72,0
4,74,71,0
4,56,0,4
4,78,76,188
4,66,0,11
4,62,0,172
4,54,0,2
4,74,0,1
4,52,66,2
4,59,67,0
4,64,67,0
4,66,89,0
4,71,71,0
4,66,0,190
4,68,89,2
4,76,71,0
4,46,57,1
4,54,70,0
4,61,84,0
4,70,74,0
4,78,68,0
4,85,64,0
4,52,0,4
4,76,0,1
4,64,0,1
4,78,0,280
4,85,0,0
4,76,85,2
4,46,0,94
4,54,0,0
4,61,0,0
4,70,0,0
4,76,0,0
4,54,60,2
4,64,86,0
4,69,85,0
4,78,84,0
4,84,86,0
4,78,0,190
4,84,0,0
4,72,83,2
4,83,90,0
4,83,0,94
4,81,87,2
4,44,57,2
4,47,73,0
4,56,68,0
4,59,74,0
4,64,70,0
4,71,58,0
4,80,65,0
4,44,0,190
4,80,0,0
4,40,59,2
4,42,38,2
4,49,41,0
4,57,70,0
4,64,0,190
4,63,61,2
4,42,0,190
4,57,0,0
4,63,0,0
4,49,0,1
4,44,56,1
4,52,67,0
4,59,74,0
4,66,70,0
4,64,76,192
4,66,0,6
4,44,0,184
4,59,0,0
4,64,0,0
4,49,68,2
4,56,67,0
4,63,71,0
4,66,71,0
4,52,0,4
4,63,0,186
4,64,70,2
4,68,61,0
4,66,0,6
4,49,0,184
4,56,0,0
4,64,0,0
4,68,0,0
4,71,0,0
4,42,62,2
4,49,66,0
4,57,64,0
4,66,65,0
4,81,61,0
4,57,0,66
4,66,0,3
4,81,0,1
4,42,0,13
4,49,0,2
4,85,58,336
4,47,72,19
4,54,71,0
4,64,68,0
4,69,67,0
4,85,0,190
4,83,60,2
4,64,0,190
4,63,68,2
4,83,0,190
4,81,62,2
4,47,0,190
4,54,0,0
4,63,0,0
4,69,0,0
4,81,0,0
4,40,59,2
4,47,70,0
4,56,67,0
4,64,73,0
4,71,75,0
4,80,63,0
4,80,0,286
4,83,58,2
4,42,37,2
4,49,41,0
4,57,69,0
4,69,69,0
4,64,0,190
4,63,57,2
4,83,0,94
4,87,62,2
4,42,0,94
4,57,0,0
4,63,0,0
4,69,0,0
4,87,0,0
4,49,0,1
4,44,58,1
4,52,67,0
4,59,77,0
4,66,71,0
4,76,64,0
4,88,62,0
4,64,79,192
4,66,0,6
4,44,0,184
4,59,0,0
4,64,0,0
4,76,0,0
4,88,0,0
4,52,0,1
4,45,66,1
4,52,68,0
4,61,67,0
4,69,66,0
4,76,73,0
4,85,57,0
4,52,0,4
4,47,67,98
4,56,71,0
4,64,71,0
4,56,0,271
4,64,0,2
4,47,0,3
4,40,108,12
4,47,104,0
4,56,104,0
4,56,0,111
4,40,0,4
4,47,0,0
4,48,82,13
4,54,88,0
4,64,84,0
4,63,81,120
4,64,0,10
4,63,0,143
4,54,0,23
4,48,0,3
4,56,71,25
4,64,70,0
4,49,74,3
4,46,71,2
4,54,72,0
4,61,72,0
4,61,0,226
4,46,0,4
4,54,0,2
4,47,74,92
4,56,73,0
4,64,71,0
4,47,75,2
4,51,73,0
4,56,74,0
4,54,74,192
4,56,0,3
4,47,0,158
4,51,0,13
4,54,0,1
4,40,60,3089
4,47,78,0
4,56,78,0
4,40,0,361
4,56,0,6
4,47,0,3
4,49,58,14
4,52,73,0
4,57,82,0
4,52,0,338
4,57,0,14
4,49,0,5
4,47,81,27
4,54,84,0
4,59,88,0
4,47,0,190
4,59,0,0
4,66,89,2
4,66,0,94
4,69,91,2
4,69,0,2
4,52,77,2
4,59,75,0
4,68,88,0
4,68,0,190
4,64,87,2
4,52,0,190
4,59,0,0
4,64,0,0
4,45,78,2
4,52,76,0
4,61,75,0
4,52,0,197
4,61,0,3
4,45,0,3
4,47,73,19
4,56,62,0
4,64,80,0
4,56,0,119
4,54,63,13
4,63,61,2
4,40,72,17
4,47,70,0
4,56,66,0
4,64,80,0
4,40,0,131
4,47,0,0
4,56,0,0
4,64,0,10
4,41,66,33
4,53,57,0
4,61,60,0
4,65,62,0
4,68,69,0
4,53,0,79
4,41,0,6
4,65,0,156
4,40,66,22
4,52,65,0
4,64,71,0
4,52,0,83
4,40,0,7
4,64,0,40
4,39,68,26
4,51,67,0
4,63,65,0
4,67,67,9
4,75,73,0
4,63,0,32
4,67,0,1
4,75,0,0
4,39,0,6
4,51,0,2
4,82,68,73
4,44,72,19
4,51,68,0
4,56,69,0
4,60,72,0
4,63,68,0
4,82,0,190
4,80,66,2
4,56,0,179
4,44,0,1
4,43,71,12
4,55,39,0
4,75,50,0
4,84,68,178
4,75,0,9
4,43,0,153
4,55,0,14
4,84,0,14
4,42,71,2
4,54,40,0
4,82,67,0
4,82,0,190
4,80,55,2
4,80,0,190
4,75,55,2
4,84,66,192
4,75,0,9
4,84,0,181
4,41,63,2
4,56,69,0
4,62,75,0
4,70,70,0
4,82,62,0
4,51,0,2
4,60,0,0
4,54,0,2
4,63,0,0
4,42,0,2
4,82,0,184
4,80,56,2
4,56,0,157
4,41,0,3
4,39,13,1
4,51,42,0
4,56,72,0
4,58,65,0
4,73,62,0
4,56,0,190
4,55,70,2
4,40,61,2
4,47,72,0
4,56,62,0
4,59,74,0
4,64,69,0
4,71,56,0
4,42,37,2
4,49,42,0
4,57,68,0
4,64,0,190
4,63,57,2
4,42,0,190
4,57,0,0
4,63,0,0
4,49,0,1
4,44,52,1
4,52,70,0
4,59,72,0
4,66,74,0
4,64,77,192
4,66,0,6
4,44,0,184
4,59,0,0
4,64,0,0
4,49,69,2
4,56,67,0
4,63,74,0
4,66,67,0
4,63,0,186
