track,note,velocity,time
3,26,73,3260
3,57,79,0
3,38,79,1
3,62,84,1
3,66,100,2
3,62,0,67
3,66,0,1
3,57,0,4
3,38,0,4
3,26,0,7
3,57,53,577
3,57,0,75
3,62,89,116
3,62,0,43
3,26,66,533
3,38,73,3
3,61,79,2
3,64,77,2
3,57,77,1
3,61,0,46
3,64,0,6
3,57,0,1
3,26,0,18
3,38,0,5
3,57,58,549
3,57,0,64
3,61,90,124
3,61,0,60
3,47,67,50
3,35,66,1
3,59,64,8
3,62,74,1
3,66,79,1
3,62,0,104
3,59,0,3
3,66,0,7
3,35,0,1
3,47,0,12
3,64,82,813
3,67,71,1
3,64,0,42
3,67,0,11
3,47,61,482
3,35,60,1
3,59,74,5
3,66,80,0
3,62,79,2
3,62,0,12
3,59,0,8
3,35,0,8
3,47,0,1
3,66,0,3
3,37,77,34
3,57,79,2
3,49,77,1
3,64,84,1
3,61,90,2
3,64,0,96
3,57,0,9
3,61,0,1
3,49,0,24
3,37,0,4
3,57,79,8
3,26,73,0
3,38,79,1
3,62,84,1
3,66,100,2
3,62,0,67
3,66,0,1
3,57,0,4
3,38,0,4
3,26,0,7
3,57,53,577
3,57,0,75
3,62,89,116
3,62,0,43
3,26,66,533
3,38,73,3
3,61,79,2
3,64,77,2
3,57,77,1
3,61,0,46
3,64,0,6
3,57,0,1
3,26,0,18
3,38,0,5
3,57,58,548
3,57,0,64
3,61,90,126
3,61,0,60
3,35,67,39
3,47,73,5
3,59,70,8
3,66,87,1
3,62,79,1
3,35,0,131
3,62,0,9
3,59,0,15
3,66,0,1
3,47,0,2
3,35,66,1284
3,47,75,3
3,35,0,66
3,47,0,2
3,59,43,699
3,59,0,77
3,62,55,120
3,62,0,32
3,31,66,11
3,43,77,3
3,59,73,5
3,62,75,4
3,67,73,2
3,62,0,102
3,59,0,1
3,67,0,11
3,31,0,5
3,43,0,5
3,38,78,31
3,50,78,10
3,62,74,1
3,67,78,1
3,57,63,2
3,62,0,92
3,57,0,10
3,67,0,1
3,38,0,6
3,50,0,5
3,66,79,376
3,66,0,54
3,69,61,694
3,69,0,56
3,40,72,17
3,64,67,11
3,59,51,3
3,67,63,1
3,64,0,3
3,59,0,9
3,67,0,4
3,40,0,32
3,59,31,395
3,64,54,2
3,67,53,1
3,64,0,62
3,59,0,2
3,67,0,7
3,40,61,294
3,67,58,12
3,59,44,1
3,64,61,4
3,64,0,43
3,59,0,9
3,67,0,5
3,40,0,16
3,40,85,307
3,40,0,68
3,45,59,11
3,57,67,11
3,67,67,5
3,64,61,1
3,67,0,56
3,64,0,7
3,57,0,5
3,45,0,5
3,45,46,400
3,45,0,48
3,57,56,176
3,57,0,69
3,62,84,120
3,62,0,34
3,38,75,67
3,62,79,2
3,57,72,1
3,66,80,2
3,50,87,1
3,62,0,39
3,66,0,13
3,57,0,1
3,38,0,1
3,50,0,5
3,64,67,1366
3,57,59,2
3,61,74,1
3,50,72,1
3,38,68,2
3,38,0,51
3,64,0,2
3,61,0,2
3,57,0,4
3,50,0,5
3,35,61,12
3,47,65,5
3,66,75,6
3,59,61,1
3,62,65,3
3,62,0,68
3,59,0,6
3,66,0,4
3,35,0,1
3,47,0,10
3,43,63,43
3,67,77,9
3,59,61,2
3,62,74,1
3,55,67,1
3,62,0,109
3,67,0,4
3,59,0,7
3,43,0,11
3,55,0,12
3,33,75,55
3,45,91,5
3,57,79,12
3,62,81,1
3,64,74,1
3,62,0,21
3,64,0,1
3,57,0,4
3,45,0,24
3,33,0,8
3,40,67,8
3,52,70,0
3,59,67,2
3,64,71,1
3,68,71,4
3,64,0,115
3,68,0,1
3,59,0,3
3,40,0,13
3,52,0,2
3,47,62,46
3,54,55,7
3,66,63,2
3,59,63,1
3,63,63,2
3,66,0,174
3,47,0,9
3,59,0,1
3,63,0,11
3,54,0,11
3,59,40,527
3,59,0,155
3,63,64,64
3,63,0,183
3,66,61,4
3,66,0,110
3,66,55,2
3,57,56,2
3,49,55,1
3,54,59,3
3,61,59,1
3,61,0,68
3,66,0,3
3,57,0,7
3,54,0,16
3,49,0,5
3,45,57,8
3,52,63,9
3,64,55,1
3,57,56,1
3,61,63,2
3,61,0,71
3,57,0,16
3,64,0,5
3,52,0,21
3,45,0,12
3,47,63,19
3,54,71,3
3,64,71,4
3,66,71,2
3,59,71,3
3,59,0,90
3,64,0,5
3,47,0,4
3,54,0,5
3,66,0,3
3,52,71,34
3,40,67,0
3,59,63,2
3,64,63,1
3,68,63,4
3,64,0,115
3,68,0,1
3,59,0,3
3,40,0,13
3,52,0,2
3,47,63,46
3,54,63,7
3,66,63,2
3,59,63,1
3,63,63,2
3,66,0,174
3,47,0,9
3,59,0,1
3,63,0,11
3,54,0,11
3,59,63,527
3,59,0,155
3,63,63,64
3,63,0,183
3,66,63,4
3,66,0,110
3,66,63,2
3,57,63,2
3,49,63,1
3,54,63,3
3,61,63,1
3,61,0,68
3,66,0,3
3,57,0,7
3,54,0,16
3,49,0,5
3,45,55,8
3,52,51,9
3,64,47,1
3,57,47,1
3,61,63,2
3,61,0,71
3,57,0,16
3,64,0,5
3,52,0,21
3,45,0,12
3,47,63,19
3,54,63,3
3,64,63,4
3,66,63,2
3,59,63,3
3,59,0,90
3,64,0,5
3,47,0,4
3,54,0,5
3,66,0,3
3,48,63,24
3,36,63,2
3,64,63,7
3,62,63,1
3,60,63,2
3,67,55,1
3,62,0,55
3,64,0,6
3,67,0,9
3,60,0,9
3,36,0,47
3,48,0,0
3,64,51,787
3,67,51,2
3,62,51,2
3,60,51,2
3,62,0,37
3,64,0,1
3,67,0,1
3,60,0,3
3,62,51,343
3,60,51,2
3,67,51,1
3,64,47,2
3,62,0,58
3,64,0,1
3,67,0,1
3,60,0,1
3,67,54,119
3,64,51,2
3,62,47,1
3,60,44,6
3,62,0,50
3,64,0,2
3,60,0,6
3,67,0,3
3,67,59,700
3,67,0,66
3,38,59,84
3,57,59,1
3,50,59,2
3,62,59,1
3,67,59,2
3,62,0,61
3,57,0,1
3,67,0,2
3,50,0,4
3,38,0,6
3,67,59,479
3,57,55,0
3,62,55,2
3,62,0,51
3,57,0,13
3,67,0,3
3,38,55,87
3,50,55,6
3,38,0,74
3,50,0,7
3,57,55,123
3,67,55,2
3,62,51,1
3,62,0,42
3,57,0,4
3,67,0,1
3,38,47,126
3,50,47,1
3,38,0,43
3,50,0,11
3,67,47,162
3,62,47,0
3,57,47,5
3,62,0,18
3,67,0,3
3,57,0,3
3,57,47,26
3,69,47,1
3,62,47,1
3,66,55,1
3,38,51,2
3,50,51,1
3,62,0,58
3,69,0,9
3,66,0,6
3,57,0,7
3,50,0,16
3,38,0,7
3,62,95,25
3,57,93,2
3,66,100,1
3,50,87,1
3,62,0,207
3,57,0,12
3,50,0,2
3,66,0,10
3,45,79,1168
3,57,71,1
3,64,79,1
3,61,80,1
3,61,0,90
3,57,0,7
3,64,0,1
3,45,0,20
3,47,90,1216
3,59,73,2
3,62,77,2
3,66,82,1
3,47,0,149
3,62,0,28
3,59,0,10
3,66,0,2
3,67,75,619
3,67,0,58
3,62,75,490
3,66,71,2
3,59,67,1
3,47,99,1
3,47,0,81
3,59,0,1
3,62,0,1
3,66,0,16
3,45,90,940
3,64,71,6
3,57,65,1
3,61,71,1
3,57,0,120
3,61,0,4
3,64,0,0
3,45,0,15
3,50,79,25
3,66,72,5
3,62,69,1
3,57,67,1
3,62,0,72
3,57,0,11
3,66,0,9
3,50,0,12
3,45,71,1334
3,64,69,2
3,57,62,2
3,61,71,2
3,61,0,120
3,57,0,7
3,45,0,5
3,64,0,1
3,47,87,1288
3,66,74,6
3,62,73,1
3,59,69,1
3,47,0,85
3,59,0,5
3,62,0,1
3,66,0,24
3,67,73,883
3,67,0,61
3,66,68,329
3,59,65,1
3,62,69,1
3,47,90,2
3,62,0,29
3,47,0,16
3,59,0,1
3,66,0,4
3,47,75,944
3,66,70,4
3,59,53,1
3,62,62,3
3,62,0,79
3,66,0,2
3,59,0,1
3,47,0,11
3,43,84,38
3,67,79,6
3,62,81,3
3,59,77,0
3,62,0,91
3,67,0,2
3,59,0,3
3,43,0,10
3,59,73,1329
3,42,84,2
3,62,80,1
3,66,86,1
3,59,0,67
3,66,0,6
3,62,0,1
3,42,0,17
3,52,87,1329
3,55,67,1
3,64,79,1
3,59,75,2
3,59,0,111
3,55,0,1
3,64,0,5
3,52,0,11
3,62,77,60
3,57,73,0
3,55,79,2
3,52,79,1
3,57,0,89
3,55,0,1
3,62,0,3
3,52,0,1
3,62,79,101
3,57,84,1
3,54,67,1
3,62,0,119
3,57,0,1
3,54,0,2
3,62,73,970
3,57,73,2
3,54,68,1
3,62,0,32
3,57,0,4
3,54,0,21
3,54,80,168
3,61,97,1
3,57,84,1
3,57,0,57
3,61,0,3
3,54,0,7
3,61,82,953
3,57,79,1
3,54,71,1
3,57,0,57
3,61,0,2
3,54,0,1
3,59,93,34
3,54,70,1
3,62,77,1
3,62,0,102
3,59,0,4
3,54,0,7
3,55,75,54
3,59,84,1
3,62,79,1
3,55,0,67
3,59,0,1
3,62,0,14
3,57,71,569
3,64,81,1
3,61,88,1
3,61,0,73
3,64,0,1
3,57,0,5
3,40,53,69
3,52,69,5
3,68,97,2
3,59,59,1
3,64,54,1
3,64,0,78
3,59,0,11
3,68,0,14
3,40,0,26
3,52,0,9
3,68,72,1003
3,64,48,2
3,59,34,1
3,64,0,38
3,59,0,5
3,68,0,12
3,54,55,33
3,47,77,3
3,59,73,1
3,66,78,1
3,64,61,1
3,64,0,119
3,59,0,1
3,47,0,5
3,66,0,3
3,54,0,8
3,59,47,945
3,54,42,1
3,66,44,3
3,64,46,1
3,59,0,45
3,64,0,6
3,66,0,13
3,54,0,3
3,42,51,31
3,57,45,2
3,54,53,1
3,66,61,5
3,61,60,1
3,61,0,138
3,57,0,8
3,66,0,1
3,42,0,16
3,54,0,10
3,45,58,22
3,57,71,6
3,64,81,1
3,61,84,2
3,52,62,2
3,64,0,77
3,61,0,2
3,57,0,5
3,45,0,1
3,52,0,2
3,47,54,60
3,59,62,0
3,71,75,2
3,66,72,2
3,63,65,1
3,63,0,101
3,66,0,2
3,71,0,6
3,59,0,4
3,47,0,7
3,40,34,78
3,52,54,14
3,59,64,7
3,68,100,1
3,64,62,2
3,59,0,61
3,64,0,1
3,68,0,6
3,52,0,5
3,40,0,6
3,40,42,933
3,52,53,7
3,68,80,12
3,64,48,3
3,59,44,1
3,52,0,70
3,64,0,1
3,59,0,1
3,40,0,5
3,68,0,3
3,47,81,2
3,59,75,3
3,63,72,1
3,66,71,1
3,47,0,107
3,66,0,8
3,59,0,3
3,63,0,1
3,57,41,34
3,54,60,1
3,61,60,1
3,66,63,2
3,61,0,85
3,57,0,5
3,66,0,2
3,54,0,21
3,57,57,122
3,64,67,2
3,45,81,0
3,61,77,2
3,57,0,46
3,61,0,8
3,64,0,6
3,45,0,2
3,59,53,603
3,63,60,1
3,47,51,1
3,66,61,1
3,59,0,75
3,63,0,9
3,66,0,4
3,47,0,6
3,40,53,77
3,52,58,6
3,64,65,2
3,68,100,2
3,59,69,2
3,59,0,73
3,64,0,13
3,68,0,5
3,40,0,11
3,52,0,9
3,63,68,1279
3,35,53,2
3,66,67,1
3,47,61,1
3,59,47,3
3,59,0,54
3,47,0,6
3,35,0,1
3,66,0,6
3,63,0,1
3,54,66,416
3,57,59,1
3,66,78,2
3,61,66,1
3,61,0,97
3,66,0,3
3,57,0,2
3,54,0,6
3,57,71,47
3,64,84,1
3,61,75,1
3,61,0,118
3,64,0,5
3,57,0,6
3,64,90,4
3,59,81,4
3,54,78,0
3,64,0,382
3,63,86,2
3,63,0,311
3,59,0,1
3,54,0,3
3,68,107,64
3,59,69,2
3,64,69,2
3,40,54,1
3,52,61,1
3,68,0,95
3,64,0,1
3,59,0,5
3,52,0,8
3,40,0,5
3,63,71,1330
3,66,74,1
3,47,54,1
3,59,55,3
3,35,50,1
3,59,0,19
3,47,0,13
3,63,0,0
3,35,0,3
3,66,0,2
3,54,63,59
3,57,65,3
3,61,80,4
3,66,86,1
3,57,0,106
3,61,0,2
3,66,0,6
3,54,0,29
3,57,67,76
3,52,81,1
3,61,86,2
3,64,87,1
3,61,0,76
3,57,0,2
3,64,0,7
3,52,0,27
3,54,68,53
3,66,71,2
3,63,74,2
3,59,67,1
3,59,0,50
3,66,0,6
3,63,0,11
3,54,0,15
3,67,87,90
3,64,87,1
3,60,77,1
3,64,0,153
3,60,0,2
3,67,0,3
3,67,87,49
3,64,84,2
3,60,70,1
3,60,0,143
3,64,0,7
3,67,0,3
3,60,66,46
3,64,79,2
3,67,81,1
3,67,0,268
3,64,0,1
3,60,0,7
3,60,50,45
3,64,77,1
3,67,77,2
3,60,0,65
3,67,0,12
3,64,0,5
3,69,73,42
3,62,61,7
3,66,72,2
3,66,0,201
3,69,0,9
3,62,0,29
3,62,75,159
3,69,81,3
3,66,84,2
3,66,0,140
3,62,0,35
3,69,0,1
3,62,71,92
3,69,75,2
3,66,71,5
3,66,0,161
3,62,0,4
3,69,0,16
3,62,62,65
3,69,67,1
3,66,78,4
3,66,0,139
3,62,0,2
3,69,0,9
3,67,75,31
3,59,77,1
3,62,81,1
3,67,0,57
3,62,0,1
3,59,0,17
3,59,69,340
3,67,77,1
3,62,73,2
3,67,0,113
3,59,0,17
3,62,0,13
3,59,42,158
3,67,54,0
3,62,41,2
3,59,0,92
3,67,0,2
3,62,0,10
3,62,93,94
3,59,90,0
3,67,93,2
3,59,0,85
3,62,0,1
3,67,0,5
3,62,73,63
3,69,79,1
3,66,90,1
3,66,0,119
3,62,0,1
3,69,0,8
3,62,75,1
3,69,75,1
3,66,71,2
3,66,0,105
3,62,0,5
3,69,0,1
3,62,84,200
3,69,90,1
3,66,78,4
3,66,0,70
3,62,0,8
3,69,0,20
3,69,84,74
3,64,90,2
3,60,82,1
3,64,0,32
3,69,0,2
3,60,0,18
3,69,64,822
3,64,53,1
3,60,50,1
3,69,0,124
3,60,0,10
3,64,0,18
3,69,84,43
3,64,90,1
3,60,86,1
3,69,0,57
3,64,0,7
3,60,0,1
3,67,87,22
3,60,80,2
3,64,99,2
3,64,0,57
3,67,0,3
3,60,0,17
3,67,87,585
3,57,87,1
3,62,84,2
3,67,0,90
3,66,64,8
3,62,0,256
3,66,0,11
3,57,0,0
3,71,81,148
3,62,81,2
3,67,84,1
3,62,0,67
3,67,0,2
3,71,0,3
3,71,79,18
3,67,77,3
3,62,84,1
3,67,0,95
3,71,0,13
3,62,0,6
3,62,77,199
3,66,92,4
3,69,81,0
3,69,0,73
3,62,0,1
3,66,0,2
3,60,82,61
3,64,87,2
3,71,96,2
3,69,79,339
3,71,0,34
3,60,0,917
3,64,0,9
3,69,0,6
3,60,74,220
3,67,87,1
3,64,84,2
3,67,0,600
3,60,0,6
3,64,0,15
3,67,93,130
3,62,87,1
3,57,93,1
3,67,0,391
3,66,92,1
3,66,0,288
3,62,0,3
3,57,0,6
3,67,75,95
3,59,77,1
3,62,81,1
3,67,0,57
3,62,0,1
3,59,0,17
3,59,69,340
3,67,77,1
3,62,73,2
3,67,0,113
3,59,0,17
3,62,0,13
3,59,42,158
3,67,54,0
3,62,41,2
3,59,0,92
3,67,0,2
3,62,0,10
3,62,93,94
3,59,90,0
3,67,93,2
3,59,0,85
3,62,0,1
3,67,0,5
3,62,73,63
3,69,79,1
3,66,90,1
3,66,0,119
3,62,0,1
3,69,0,8
3,62,75,1
3,69,75,1
3,66,71,2
3,66,0,105
3,62,0,5
3,69,0,1
3,62,84,200
3,69,90,1
3,66,78,4
3,66,0,70
3,62,0,8
3,69,0,20
3,69,84,74
3,64,90,2
3,60,82,1
3,64,0,32
3,69,0,2
3,60,0,18
3,69,64,822
3,64,53,1
3,60,50,1
3,69,0,124
3,60,0,10
3,64,0,18
3,69,84,43
3,64,90,1
3,60,86,1
3,69,0,57
3,64,0,7
3,60,0,1
