track,note,velocity,time
0,42,66,16
0,42,0,4
0,42,66,128
0,42,0,4
0,42,66,380
0,42,0,4
0,42,66,380
0,42,0,4
0,70,108,376
0,74,123,0
0,65,108,4
0,58,99,1
0,58,62,0
0,70,72,91
0,70,99,0
0,74,113,0
0,65,99,4
0,65,67,96
0,58,0,84
0,57,99,7
0,58,0,1
0,58,60,0
0,72,123,2
0,74,0,11
0,70,0,85
0,70,72,0
0,72,113,0
0,58,99,2
0,57,0,1
0,74,123,0
0,74,0,8
0,72,0,11
0,65,0,71
0,65,65,0
0,74,113,6
0,72,0,19
0,75,123,72
0,60,99,4
0,58,0,0
0,58,59,0
0,58,0,9
0,74,0,3
0,75,113,80
0,70,0,5
0,70,68,0
0,74,0,11
0,70,0,39
0,65,0,22
0,70,108,20
0,65,108,1
0,62,99,2
0,65,0,0
0,65,60,0
0,77,123,1
0,60,0,11
0,75,0,7
0,70,0,32
0,65,0,22
0,70,0,19
0,70,73,0
0,70,99,1
0,65,99,1
0,77,113,3
0,75,0,18
0,65,0,78
0,65,61,0
0,58,0,95
0,58,54,0
0,70,0,94
0,70,73,0
0,65,0,95
0,65,63,0
0,58,0,100
0,58,58,0
0,70,0,96
0,70,73,0
0,70,0,30
0,65,0,4
0,77,0,29
0,62,0,2
0,70,123,1
0,55,99,0
0,63,108,1
0,58,0,0
0,58,48,0
0,70,0,29
0,65,0,4
0,77,0,29
0,70,0,29
0,70,71,0
0,70,113,4
0,63,99,1
0,65,0,96
0,65,65,0
0,55,0,80
0,53,99,11
0,58,0,4
0,58,54,0
0,70,0,1
0,69,123,0
0,53,0,90
0,55,99,5
0,70,123,0
0,70,0,0
0,70,75,0
0,70,0,1
0,69,113,0
0,69,0,22
0,65,0,68
0,65,71,0
0,70,113,5
0,69,0,23
0,55,0,62
0,57,99,5
0,58,0,0
0,58,54,0
0,72,123,1
0,70,0,28
0,72,113,68
0,70,0,5
0,70,71,0
0,70,0,23
0,63,0,49
0,74,123,18
0,58,99,6
0,65,108,2
0,65,0,0
0,65,63,0
0,57,0,1
0,72,0,15
0,63,0,54
0,70,0,18
0,70,69,0
0,74,113,0
0,65,99,8
0,72,0,16
0,65,0,73
0,65,63,0
0,70,0,104
0,70,44,0
0,65,0,85
0,50,99,3
0,65,0,0
0,65,72,0
0,65,123,8
0,58,0,7
0,74,0,5
0,65,0,73
0,58,0,10
0,58,48,0
0,65,113,1
0,74,0,12
0,70,0,76
0,70,69,0
0,65,0,100
0,65,60,0
0,50,0,74
0,65,0,18
0,58,108,0
0,67,123,0
0,58,57,1
0,39,57,0
0,27,95,1
0,67,57,2
0,58,0,2
0,58,48,0
0,51,99,1
0,65,0,89
0,58,99,0
0,67,113,0
0,70,0,3
0,70,63,0
0,65,0,92
0,65,71,0
0,67,0,98
0,65,123,3
0,58,0,2
0,58,48,0
0,67,0,91
0,70,0,3
0,70,69,0
0,65,113,0
0,67,123,2
0,65,0,27
0,65,0,69
0,65,60,0
0,67,113,0
0,65,0,27
0,69,123,66
0,70,0,5
0,70,60,0
0,67,0,11
0,65,0,80
0,65,72,0
0,69,113,0
0,67,0,16
0,27,0,73
0,60,108,3
0,28,96,1
0,60,63,0
0,70,123,4
0,58,0,1
0,58,63,0
0,52,99,1
0,51,0,1
0,55,63,1
0,40,63,0
0,69,0,10
0,39,0,2
0,58,0,0
0,67,0,6
0,58,0,17
0,60,99,52
0,70,0,5
0,70,69,0
0,70,113,0
0,69,0,14
0,58,0,25
0,65,0,56
0,65,75,0
0,58,0,96
0,58,54,0
0,70,0,94
0,70,63,0
0,65,0,102
0,65,59,0
0,70,0,93
0,70,63,0
0,72,123,2
0,70,0,22
0,65,0,72
0,65,70,0
0,72,113,2
0,70,0,22
0,72,0,64
0,53,99,7
0,72,123,1
0,65,63,0
0,41,63,0
0,63,108,1
0,58,63,0
0,58,0,1
0,60,71,0
0,60,0,0
0,70,108,2
0,29,88,2
0,28,0,3
0,60,0,2
0,40,0,2
0,55,0,0
0,52,0,13
0,72,0,62
0,70,0,3
0,72,49,0
0,72,113,5
0,63,99,1
0,70,99,3
0,60,0,7
0,65,0,87
0,65,57,0
0,60,0,97
0,60,65,0
0,72,0,93
0,72,72,0
0,65,0,99
0,65,61,0
0,60,0,93
0,60,66,0
0,72,0,97
0,72,73,0
0,57,63,92
0,69,108,2
0,65,0,4
0,65,62,0
0,70,0,15
0,58,0,39
0,72,0,38
0,72,65,0
0,69,99,0
0,70,0,19
0,65,69,0
0,67,67,0
0,62,30,0
0,68,59,7
0,63,34,0
0,62,0,14
0,67,0,0
0,69,56,4
0,64,33,0
0,63,0,11
0,68,0,0
0,70,52,1
0,65,31,0
0,64,0,12
0,69,0,0
0,71,50,13
0,66,30,0
0,72,52,18
0,67,31,0
0,70,107,37
0,74,121,0
0,57,0,1
0,65,107,3
0,58,98,1
0,69,0,3
0,29,0,9
0,41,0,17
0,65,0,0
0,72,0,18
0,63,0,3
0,67,0,1
0,72,0,0
0,70,91,40
0,74,103,0
0,65,91,4
0,58,0,452
0,74,0,21
0,75,121,3
0,60,98,4
0,74,0,89
0,75,103,3
0,70,0,55
0,65,0,22
0,70,107,20
0,65,107,1
0,62,98,2
0,77,121,1
0,60,0,11
0,75,0,7
0,70,0,32
0,65,0,22
0,70,91,20
0,65,91,1
0,77,103,3
0,75,0,18
0,70,0,588
0,65,0,4
0,77,0,29
0,62,0,2
0,70,121,31
0,55,98,0
0,63,107,1
0,70,0,29
0,65,0,4
0,77,0,29
0,70,103,33
0,63,91,1
0,55,0,448
0,70,0,16
0,57,98,9
0,72,121,1
0,70,0,86
0,72,103,10
0,63,0,77
0,74,121,18
0,58,98,6
0,65,107,2
0,57,0,1
0,72,0,15
0,63,0,54
0,74,103,18
0,65,91,8
0,72,0,16
0,65,0,262
0,50,98,3
0,65,121,8
0,58,0,7
0,74,0,5
0,65,0,73
0,65,103,11
0,74,0,12
0,50,0,250
0,65,0,18
0,58,107,0
0,67,121,0
0,51,98,7
0,65,0,89
0,58,91,0
0,67,103,0
0,67,0,475
0,69,121,8
0,67,0,88
0,69,103,8
0,60,107,92
0,70,121,5
0,52,98,2
0,51,0,1
0,69,0,11
0,58,0,25
0,60,91,52
0,70,103,5
0,69,0,14
0,58,0,25
0,72,121,443
0,70,0,22
0,72,103,74
0,70,0,22
0,72,0,64
0,53,98,3
0,70,107,4
0,65,107,4
0,74,121,1
0,60,0,7
0,52,0,15
0,72,0,62
0,70,91,7
0,65,91,4
0,74,103,1
0,60,0,7
0,70,0,645
0,74,0,4
0,53,0,7
0,72,121,5
0,69,107,4
0,53,98,2
0,70,0,74
0,74,0,4
0,72,103,12
0,69,91,4
0,65,0,619
0,69,0,27
0,53,0,1
0,72,0,1
0,70,107,16
0,74,121,0
0,65,107,4
0,58,98,1
0,65,0,46
0,69,0,27
0,72,0,2
0,70,91,16
0,74,103,0
0,65,91,4
0,58,0,452
0,74,0,21
0,75,121,3
0,60,98,4
0,74,0,89
0,75,103,3
0,70,0,55
0,65,0,22
0,70,107,20
0,65,107,1
0,62,98,2
0,77,121,1
0,60,0,11
0,75,0,7
0,70,0,32
0,65,0,22
0,70,91,20
0,65,91,1
0,77,103,3
0,75,0,18
0,70,0,588
0,65,0,4
0,77,0,29
0,62,0,2
0,70,121,31
0,55,98,0
0,63,107,1
0,70,0,29
0,65,0,4
0,77,0,29
0,70,103,33
0,63,91,1
0,55,0,448
0,70,0,16
0,57,98,9
0,72,121,1
0,70,0,86
0,72,103,10
0,63,0,77
0,74,121,18
0,58,98,6
0,65,107,2
0,57,0,1
0,72,0,15
0,63,0,54
0,74,103,18
0,65,91,8
0,72,0,16
0,65,0,262
0,50,98,3
0,65,121,8
0,58,0,7
0,74,0,5
0,65,0,73
0,65,103,11
0,74,0,12
0,50,0,250
0,65,0,18
0,58,107,0
0,67,121,0
0,51,98,7
0,65,0,89
0,58,91,0
0,67,103,0
0,67,0,475
0,69,121,8
0,67,0,88
0,69,103,8
0,60,107,92
0,70,121,5
0,52,98,2
0,51,0,1
0,69,0,11
0,58,0,25
0,60,91,52
0,70,103,5
0,69,0,14
0,58,0,25
0,72,121,443
0,70,0,22
0,72,103,74
0,70,0,22
0,72,0,64
0,53,98,3
0,70,107,4
0,65,107,4
0,74,121,1
0,60,0,7
0,52,0,15
0,72,0,62
0,70,91,7
0,65,91,4
0,74,103,1
0,60,0,7
0,70,0,645
0,74,0,4
0,53,0,7
0,72,121,5
0,69,107,4
0,53,98,2
0,70,0,74
0,74,0,4
0,72,103,12
0,69,91,4
0,65,0,619
0,69,0,27
0,53,0,1
0,72,0,1
0,36,83,17
0,63,115,0
0,48,115,2
0,55,115,1
0,58,115,3
0,36,59,5
0,35,68,0
0,65,0,39
0,85,40,118
0,85,89,8
0,85,0,16
0,85,0,8
0,36,0,97
0,82,116,63
0,36,83,2
0,75,116,0
0,36,59,6
0,35,68,0
0,82,0,31
0,75,0,2
0,35,0,39
0,36,0,0
0,70,116,107
0,79,116,7
0,70,0,36
0,79,0,6
0,64,62,156
0,77,71,2
0,64,0,46
0,85,40,19
0,85,89,8
0,85,0,16
0,85,0,8
0,36,0,103
0,36,80,60
0,61,61,5
0,61,0,36
0,65,115,3
0,62,115,0
0,38,81,2
0,50,115,1
0,58,115,0
0,36,59,4
0,35,68,0
0,85,40,81
0,85,89,3
0,74,116,34
0,38,80,2
0,82,116,0
0,36,59,5
0,35,68,0
0,70,116,31
0,55,116,1
0,43,80,3
0,77,116,0
0,38,0,4
0,41,55,5
0,85,40,0
0,31,81,2
0,77,0,3
0,48,56,0
0,85,89,0
0,85,0,16
0,85,0,8
0,43,0,20
0,48,0,22
0,72,74,19
0,45,54,12
0,70,63,29
0,72,0,15
0,31,0,57
0,72,73,5
0,70,0,4
0,32,83,6
0,68,115,0
0,63,115,2
0,56,115,1
0,72,115,1
0,36,59,0
0,35,68,0
0,35,0,72
0,36,0,0
0,85,40,12
0,85,89,6
0,85,0,16
0,58,115,18
0,36,59,12
0,35,68,0
0,63,115,8
0,32,80,2
0,60,115,2
0,70,115,0
0,67,115,3
0,58,0,1
0,64,61,19
0,72,76,7
0,85,40,2
0,55,115,1
0,31,81,1
0,85,89,6
0,32,0,13
0,85,0,3
0,85,0,8
0,55,0,104
0,61,66,64
0,61,0,44
0,70,64,47
0,72,0,18
0,72,70,19
0,31,0,11
0,53,115,8
0,70,0,0
0,72,115,2
0,70,115,2
0,29,84,1
0,63,115,2
0,36,59,5
0,35,68,0
0,85,40,8
0,85,89,0
0,63,115,7
0,69,115,1
0,72,115,0
0,41,84,3
0,36,59,2
0,35,68,0
0,43,60,19
0,85,46,20
0,48,74,8
0,85,102,0
0,70,73,27
0,41,0,5
0,29,0,9
0,65,62,22
0,62,65,28
0,72,0,5
0,62,104,5
0,70,104,0
0,46,64,0
0,34,93,1
0,46,104,0
0,58,65,1
0,53,104,1
0,62,64,1
0,36,76,5
0,35,87,0
0,70,0,84
0,70,73,0
0,70,57,12
0,35,0,9
0,36,0,0
0,65,62,0
0,42,79,8
0,42,0,68
0,58,0,16
0,58,54,0
0,70,57,12
0,70,0,48
0,70,0,38
0,70,73,0
0,85,46,2
0,37,38,0
0,46,74,2
0,85,102,6
0,37,85,0
0,37,0,16
0,85,0,0
0,37,0,8
0,85,0,0
0,65,0,59
0,65,62,0
0,34,0,17
0,46,0,17
0,53,0,5
0,53,104,61
0,58,0,1
0,58,59,0
0,34,92,1
0,46,104,1
0,36,63,6
0,35,72,0
0,35,0,52
0,36,0,0
0,62,0,18
0,70,0,19
0,70,73,0
0,70,0,39
0,62,0,20
0,48,104,32
0,63,104,0
0,63,64,0
0,55,104,2
0,48,64,1
0,36,95,1
0,58,0,0
0,58,55,0
0,70,104,2
0,53,0,2
0,34,0,3
0,46,0,0
0,36,76,1
0,35,87,0
0,62,0,12
0,46,0,3
0,35,0,52
0,36,0,0
0,46,0,5
0,70,0,12
0,70,73,0
0,70,57,12
0,70,0,67
0,65,0,22
0,65,62,0
0,42,79,7
0,42,0,75
0,58,0,13
0,58,65,0
0,70,57,8
0,70,0,53
0,70,0,33
0,70,73,0
0,46,74,2
0,85,46,0
0,37,38,0
0,85,102,8
0,37,85,0
0,37,0,16
0,85,0,0
0,37,0,8
0,85,0,0
0,65,0,61
0,65,62,0
0,48,0,14
0,55,0,8
0,36,0,9
0,48,104,64
0,36,92,1
0,55,104,4
0,70,0,0
0,70,73,0
0,42,60,7
0,42,0,58
0,70,0,77
0,63,0,31
0,38,94,13
0,65,104,0
0,50,104,4
0,58,104,1
0,58,0,1
0,58,64,0
0,65,64,0
0,70,104,1
0,36,0,2
0,50,64,0
0,63,0,2
0,48,0,2
0,36,76,0
0,35,87,0
0,48,0,11
0,55,0,3
0,46,0,66
0,70,0,10
0,70,73,0
0,70,57,6
0,35,0,9
0,36,0,0
0,70,0,51
0,65,0,25
0,65,62,0
0,42,79,11
0,42,0,65
0,58,0,25
0,58,51,0
0,70,57,6
0,70,0,44
0,46,74,40
0,85,46,4
0,37,38,0
0,70,0,1
0,70,73,0
0,85,102,7
0,37,85,0
0,37,0,16
0,85,0,0
0,37,0,8
0,85,0,0
0,38,0,55
0,65,0,10
0,65,62,0
0,50,0,32
0,58,0,11
0,38,95,48
0,58,104,0
0,58,0,0
0,58,65,0
0,50,104,4
0,36,63,8
0,35,72,0
0,35,0,52
0,36,0,0
0,70,0,31
0,70,73,0
0,70,0,53
0,58,0,43
0,67,104,1
0,51,104,0
0,58,104,3
0,70,104,1
0,58,0,1
0,58,46,0
0,51,64,1
0,38,0,1
0,65,0,0
0,67,64,0
0,39,92,1
0,36,76,4
0,35,87,0
0,50,0,13
0,65,0,3
0,50,0,11
0,35,0,40
0,36,0,0
0,46,0,7
0,70,0,17
0,70,73,0
0,70,57,5
0,70,0,67
0,65,0,16
0,65,62,0
0,42,79,13
0,42,0,68
0,58,0,16
0,58,59,0
0,70,57,12
0,70,0,48
0,46,74,36
0,85,46,4
0,37,38,0
0,70,0,4
0,70,73,0
0,85,102,4
0,37,85,0
0,37,0,16
0,85,0,0
0,37,0,8
0,85,0,0
0,51,0,50
0,58,0,6
0,65,0,4
0,65,62,0
0,39,0,33
0,51,104,63
0,39,94,1
0,58,104,6
0,58,0,0
0,58,59,0
0,42,60,5
0,42,0,58
0,65,0,26
0,65,61,0
0,67,0,21
0,70,0,10
0,58,0,44
0,53,64,20
0,53,104,4
0,41,95,1
0,58,104,0
0,70,0,0
0,70,73,0
0,62,64,1
0,62,104,2
0,70,104,1
0,36,76,4
0,35,87,0
0,39,0,1
0,51,0,5
0,67,0,46
0,51,0,19
0,46,0,1
0,65,0,18
0,65,62,0
0,70,57,6
0,35,0,9
0,36,0,0
0,70,0,47
0,70,0,31
0,70,73,0
0,42,79,9
0,42,0,66
0,65,0,17
0,65,62,0
0,70,57,13
0,70,0,48
0,46,74,40
0,85,46,0
0,37,38,0
0,58,0,2
0,58,62,0
0,85,102,6
0,37,85,0
0,37,0,16
0,85,0,0
0,37,0,8
0,85,0,0
0,70,0,64
0,70,73,0
0,53,0,8
0,58,0,6
0,41,0,56
0,53,104,26
0,58,104,1
0,41,94,1
0,65,0,0
0,65,62,0
0,36,63,6
0,35,72,0
0,35,0,52
0,36,0,0
0,58,0,40
0,58,55,0
0,62,0,20
0,70,0,3
0,41,0,42
0,53,0,7
0,62,0,8
0,63,104,10
0,70,0,1
0,70,73,0
0,60,64,0
0,70,104,1
0,60,104,1
0,58,0,1
0,53,104,0
0,41,92,2
0,36,76,4
0,35,87,0
0,46,0,40
0,35,0,27
0,36,0,0
0,65,0,22
0,65,62,0
0,70,57,7
0,70,0,61
0,70,0,27
0,70,73,0
0,42,79,8
0,42,0,63
0,65,0,24
0,65,49,0
0,70,57,9
0,70,0,44
0,53,0,38
0,29,94,2
0,69,104,0
0,58,0,3
0,58,65,0
0,41,74,0
0,85,46,1
0,37,38,0
