track,note,velocity,time
0,50,77,0
0,74,82,238
0,71,103,1
0,71,83,3
0,86,86,9
0,74,101,9
0,86,79,0
0,71,117,0
0,71,90,1
0,71,101,10
0,74,106,0
0,86,72,2
0,71,117,6
0,86,80,13
0,71,110,1
0,74,107,5
0,71,116,4
0,71,123,7
0,71,119,4
0,74,106,2
0,86,83,1
0,69,94,9
0,72,101,1
0,69,110,0
0,84,92,4
0,38,91,0
0,72,100,2
0,76,100,0
0,72,111,1
0,88,107,5
0,50,101,15
0,50,71,8
0,62,95,2
0,64,94,51
0,60,94,2
0,57,100,4
0,50,101,2
0,66,95,5
0,60,87,3
0,50,77,1
0,38,77,1
0,69,101,1
0,38,100,3
0,59,71,0
0,67,94,301
0,71,86,4
0,79,92,3
0,79,94,4
0,79,101,1
0,79,107,1
0,71,106,10
0,79,106,6
0,79,117,1
0,71,117,1
0,79,106,14
0,71,116,6
0,79,117,0
0,71,122,4
0,62,86,6
0,50,94,4
0,79,111,2
0,79,116,1
0,78,111,0
0,78,107,5
0,74,117,6
0,72,102,0
0,81,116,3
0,50,91,1
0,50,100,2
0,81,106,3
0,57,89,471
0,64,101,6
0,64,87,1
0,60,91,226
0,57,64,5
0,52,90,5
0,57,110,4
0,57,94,8
0,54,82,2
0,57,95,2
0,54,83,2
0,57,106,1
0,52,91,15
0,69,107,4
0,69,76,2
0,69,117,1
0,69,91,0
0,69,122,16
0,69,101,3
0,57,70,2
0,69,111,0
0,69,122,8
0,52,64,10
0,69,110,6
0,69,117,2
0,64,76,4
0,66,102,0
0,66,101,1
0,63,95,2
0,54,79,2
0,63,82,1
0,71,110,1
0,47,83,1
0,71,107,2
0,47,68,204
0,59,95,3
0,56,105,40
0,57,104,4
0,59,105,0
0,52,95,0
0,59,82,0
0,64,90,0
0,68,77,0
0,61,105,160
0,58,104,153
0,59,105,22
0,68,100,18
0,64,107,5
0,59,91,74
0,56,104,163
0,57,104,35
0,63,90,3
0,66,83,3
0,59,105,5
0,51,68,0
0,61,105,159
0,58,104,14
0,59,104,160
0,59,100,21
0,66,111,53
0,59,105,160
0,59,105,37
0,48,75,9
0,67,100,5
0,60,104,1
0,60,106,0
0,60,104,80
0,55,91,14
0,60,105,80
0,57,107,11
0,69,90,5
0,62,104,1
0,50,74,3
0,62,105,85
0,62,101,24
0,60,105,80
0,43,82,4
0,62,87,0
0,67,83,2
0,60,104,5
0,60,90,0
0,59,105,22
0,59,77,2
0,45,106,59
0,59,104,167
0,60,104,33
0,54,66,3
0,62,83,4
0,62,105,3
0,59,87,1
0,47,90,5
0,64,105,154
0,61,104,148
0,62,104,0
0,66,86,18
0,59,95,6
0,64,105,215
0,66,105,18
0,62,91,6
0,67,104,3
0,40,90,6
0,55,86,0
0,69,104,10
0,66,105,4
0,67,104,79
0,60,91,21
0,66,105,222
0,64,105,49
0,57,106,2
0,42,69,1
0,64,104,6
0,64,111,2
0,62,105,30
0,57,86,30
0,62,104,53
0,64,104,15
0,62,95,3
0,62,105,33
0,57,90,9
0,60,105,5
0,55,100,7
0,43,91,5
0,60,104,1
0,60,107,7
0,67,100,40
0,47,86,4
0,66,95,3
0,59,104,2
0,64,95,5
0,71,94,0
0,63,94,2
0,59,105,37
0,59,105,68
0,52,77,12
0,67,90,1
0,59,104,0
0,40,106,0
0,59,83,0
0,67,91,0
0,59,83,2
0,60,104,12
0,57,105,20
0,59,104,16
0,67,119,10
0,60,83,0
0,60,118,4
0,62,105,20
0,60,105,0
0,51,75,4
0,59,58,2
0,66,90,0
0,59,86,0
0,60,104,3
0,66,82,0
0,39,101,1
0,59,105,22
0,57,104,37
0,59,104,160
0,60,87,9
0,60,82,1
0,66,83,2
0,59,110,27
0,59,76,0
0,59,105,154
0,59,105,80
0,60,100,3
0,60,83,0
0,48,101,1
0,40,111,0
0,60,104,4
0,67,107,2
0,67,94,4
0,62,104,42
0,59,105,15
0,60,105,72
0,69,100,11
0,62,100,2
0,69,101,0
0,62,104,0
0,42,110,0
0,57,86,0
0,50,83,1
0,60,104,30
0,43,91,7
0,60,105,6
0,62,82,3
0,43,77,2
0,67,77,0
0,57,77,0
0,60,86,2
0,59,104,0
0,71,95,0
0,59,75,3
0,67,76,1
0,62,64,1
0,55,76,7
0,45,95,6
0,45,100,15
0,59,105,151
0,60,105,39
0,62,77,3
0,62,100,0
0,62,87,3
0,47,82,0
0,62,104,4
0,59,62,0
0,47,100,4
0,66,71,3
0,64,105,44
0,61,104,17
0,62,104,24
0,66,107,3
0,59,106,1
0,62,110,3
0,66,90,8
0,67,105,164
0,67,105,64
0,40,95,4
0,67,104,1
0,52,77,1
0,62,94,2
0,67,91,0
0,62,91,0
0,67,95,2
0,69,104,35
0,66,105,20
0,67,105,3
0,60,101,7
0,60,90,1
0,67,100,4
0,66,104,191
0,67,104,29
0,54,91,7
0,42,111,3
0,71,105,5
0,69,100,1
0,69,94,2
0,64,90,5
0,69,104,0
0,67,105,0
0,69,105,0
0,62,90,3
0,62,110,11
0,69,119,56
0,67,104,160
0,69,105,43
0,55,107,10
0,65,95,3
0,62,106,2
0,72,104,0
0,65,110,0
0,69,79,2
0,43,111,0
0,69,119,2
0,72,111,1
0,71,104,9
0,69,105,33
0,74,106,10
0,67,111,2
0,71,101,1
0,62,106,1
0,43,5,2
0,71,105,0
0,71,106,2
0,57,5,0
0,62,100,4
0,43,12,0
0,49,7,3
0,57,12,36
0,43,19,0
0,49,14,49
0,43,27,0
0,57,21,44
0,43,35,0
0,43,40,0
0,49,21,5
0,69,104,0
0,43,49,0
0,57,28,3
0,43,55,0
0,49,26,1
0,57,35,40
0,43,62,0
0,49,33,48
0,43,71,0
0,43,76,0
0,57,43,2
0,67,104,23
0,49,41,18
0,43,84,0
0,43,93,0
0,57,50,5
0,43,99,0
0,49,46,0
0,57,59,42
0,43,106,0
0,49,55,29
0,43,112,0
0,57,70,1
0,76,105,0
0,48,95,0
0,55,110,0
0,60,119,0
0,64,111,0
0,40,118,0
0,64,118,0
0,79,118,0
0,52,107,10
0,55,82,10
0,64,111,10
0,60,110,1
0,55,106,5
0,60,101,2
0,59,94,0
0,55,95,1
0,71,111,6
0,43,100,2
0,67,91,5
0,57,101,1
0,41,118,2
0,60,111,1
0,53,110,1
0,69,94,1
0,65,110,2
0,72,110,0
0,76,105,228
0,43,107,1
0,55,101,2
0,74,111,4
0,74,104,0
0,59,95,1
0,62,111,1
0,67,106,2
0,71,101,0
0,72,104,47
0,71,105,65
0,74,104,5
0,60,110,2
0,64,110,0
0,76,110,2
0,48,101,5
0,64,118,0
0,48,91,1
0,67,105,0
0,40,110,0
0,59,118,1
0,67,100,12
0,52,107,0
0,67,110,0
0,60,107,1
0,53,101,1
0,53,119,2
0,41,101,4
0,67,111,3
0,67,119,1
0,65,118,6
0,65,106,2
0,55,77,1
0,69,118,2
0,55,119,3
0,69,110,1
0,43,110,4
0,62,106,2
0,67,110,2
0,67,100,6
0,60,119,1
0,48,91,1
0,48,111,3
0,64,107,1
0,76,111,4
0,67,107,3
0,64,105,713
0,64,118,0
0,64,104,9
0,63,105,47
0,72,106,20
0,64,104,5
0,67,118,4
0,67,104,10
0,41,100,2
0,60,110,0
0,65,119,1
0,65,105,0
0,41,83,0
0,57,110,1
0,72,111,0
0,77,111,25
0,65,105,242
0,43,101,13
0,59,110,3
0,65,104,2
0,59,118,5
0,62,126,0
0,62,106,1
0,43,107,2
0,65,118,0
0,77,118,3
0,64,104,34
0,65,105,9
0,43,119,0
0,43,107,6
0,74,119,2
0,62,105,8
0,45,119,2
0,45,111,2
0,58,110,0
0,67,107,3
0,67,104,0
0,46,110,0
0,62,110,3
0,58,118,0
0,46,119,3
0,74,111,3
0,62,100,464
0,62,119,3
0,79,106,5
0,65,111,13
0,65,95,0
0,77,110,4
0,67,106,1
0,79,111,2
0,43,110,2
0,67,95,0
0,43,100,5
0,58,90,0
0,65,90,0
0,77,107,1
0,60,91,1
0,48,111,0
0,62,101,5
0,62,110,0
0,48,95,1
0,60,106,1
0,64,90,3
0,76,111,3
0,60,100,1
0,67,104,239
0,58,111,2
0,43,5,3
0,67,105,0
0,62,94,0
0,65,94,0
0,57,5,5
0,74,110,1
0,43,12,0
0,49,7,5
0,57,12,38
0,43,19,0
0,67,104,0
0,49,14,44
0,43,27,0
0,57,20,34
0,43,35,0
0,67,105,0
0,49,20,47
0,43,41,0
0,43,48,0
0,57,29,0
0,43,54,0
0,49,26,2
0,60,101,5
0,57,110,6
0,72,111,1
0,43,63,0
0,57,35,0
0,64,101,3
0,43,70,0
0,49,33,3
0,57,42,38
0,43,77,0
0,49,41,44
0,43,85,0
0,43,92,0
0,69,105,0
0,57,50,1
0,43,99,0
0,49,46,5
0,43,106,0
0,57,59,4
0,43,112,0
0,49,54,4
0,72,117,6
0,57,126,0
0,69,106,0
0,60,126,1
0,69,104,0
0,65,107,0
0,57,71,5
0,53,107,2
0,57,109,0
0,41,100,0
0,72,111,4
0,72,103,0
0,81,110,1
0,57,111,1
0,81,111,7
0,69,105,283
0,65,126,32
0,69,104,2
0,69,104,22
0,69,105,109
0,62,111,27
0,71,105,120
0,59,100,2
0,71,86,0
0,68,110,0
0,52,74,0
0,64,110,2
0,71,104,1
0,40,101,0
0,76,107,1
0,56,118,0
0,76,111,0
0,76,99,2
0,83,110,6
0,59,101,3
0,83,106,3
0,76,104,231
0,76,105,125
0,68,127,4
0,76,105,30
0,76,104,47
0,71,110,83
0,74,104,154
0,76,118,1
0,84,98,0
0,57,76,2
0,64,107,0
0,45,106,0
0,60,95,3
0,81,91,2
0,74,105,1
0,57,119,1
0,72,111,1
0,69,106,3
0,69,107,2
0,72,104,0
0,84,111,3
0,72,105,202
0,43,107,1
0,53,118,2
0,65,100,0
0,72,105,2
0,69,106,1
0,72,101,0
0,55,90,7
0,72,104,32
0,72,105,40
0,64,107,3
0,76,107,0
0,52,118,3
0,79,119,4
0,79,98,4
0,76,104,60
0,78,92,0
0,42,94,1
0,50,101,0
0,57,101,0
0,66,111,2
0,74,104,0
0,62,110,0
0,50,111,0
0,81,118,0
0,69,110,0
0,81,99,0
0,62,119,3
0,72,105,0
0,72,105,94
0,64,126,7
0,64,101,3
0,72,104,2
0,71,104,42
0,72,105,38
0,66,110,15
0,72,118,0
0,52,119,6
0,69,105,20
0,48,75,3
0,84,118,1
0,67,111,0
0,67,104,0
0,72,116,0
0,60,108,3
0,79,117,0
0,43,101,1
0,60,100,0
0,52,119,0
0,64,104,329
0,64,105,20
0,64,126,3
0,64,104,82
0,64,105,69
0,67,118,11
0,67,105,55
0,72,95,0
0,62,101,5
0,62,104,0
0,50,90,7
0,53,100,0
0,62,105,160
0,62,104,40
0,62,104,0
0,62,105,3
0,60,105,20
0,60,104,0
0,36,111,0
0,79,101,0
0,55,119,0
0,67,91,56
0,76,81,4
0,79,90,3
0,76,107,9
0,67,94,8
0,79,110,9
0,76,116,10
0,67,118,3
0,79,117,8
0,77,127,4
0,67,119,2
0,74,126,5
0,67,118,11
0,74,126,9
0,77,123,6
0,76,127,25
0,65,119,2
0,72,126,6
0,77,98,5
0,57,106,2
0,41,110,2
0,81,111,9
0,69,119,1
0,77,106,62
0,59,100,13
0,76,101,114
0,74,106,6
0,60,107,9
0,62,101,228
0,72,91,47
0,71,101,8
0,64,110,3
0,65,94,232
0,69,100,16
0,67,111,0
0,43,107,1
0,67,100,15
0,76,76,465
0,64,82,10
0,72,101,2
0,72,106,12
0,64,101,5
0,76,99,1
0,64,110,1
0,76,111,2
0,72,100,2
0,72,100,3
0,72,107,17
0,64,110,1
0,76,110,0
0,64,111,0
0,76,117,11
0,67,95,3
0,72,110,3
0,62,111,27
0,74,122,3
0,65,118,1
0,72,91,1
0,72,95,10
0,45,100,1
0,72,101,0
0,57,100,1
0,77,110,4
0,47,86,2
0,76,103,0
0,56,91,1
0,71,86,0
0,64,100,3
0,71,87,2
0,75,99,5
0,63,77,4
0,56,104,0
0,57,105,4
0,40,101,0
0,59,105,0
0,52,107,0
0,64,110,0
0,71,110,0
0,40,101,0
0,52,100,0
0,64,94,0
0,71,101,0
0,71,90,0
0,83,98,0
0,61,104,40
0,58,104,20
0,59,105,22
0,59,119,11
0,47,100,0
0,64,126,10
0,52,101,7
0,56,104,153
0,57,105,35
0,51,107,1
0,39,90,1
0,66,111,1
0,66,95,1
0,39,90,2
0,59,105,0
0,54,101,3
0,59,110,1
0,61,104,155
0,58,105,14
0,59,104,160
0,66,127,12
0,54,100,5
0,59,104,166
0,59,105,37
0,72,110,1
0,67,118,2
0,60,101,0
0,67,100,1
0,40,101,2
0,60,105,0
0,40,100,3
0,52,91,3
0,62,104,0
0,60,95,81
0,59,104,0
0,69,110,2
0,42,91,0
0,60,105,0
0,54,82,4
0,42,91,4
0,62,105,0
0,62,100,3
0,62,91,7
0,74,107,8
0,60,104,0
0,43,90,4
0,60,104,0
0,55,65,0
0,60,100,0
0,60,94,0
0,67,94,5
0,69,101,0
0,43,101,1
0,59,105,22
0,59,65,2
0,59,91,0
0,67,90,2
0,33,107,7
0,45,106,7
0,59,104,153
0,60,105,33
0,47,94,0
0,47,94,1
0,62,94,1
0,66,95,4
0,35,110,1
0,62,105,0
0,59,101,0
0,64,104,156
0,61,105,148
0,62,104,0
0,54,95,4
0,59,91,2
0,69,119,2
0,66,118,6
0,59,100,1
0,62,100,10
0,64,104,164
0,66,105,18
0,40,106,4
0,67,105,0
0,62,107,0
0,67,106,0
0,67,94,0
0,40,111,1
0,52,90,2
0,62,100,0
0,64,101,0
0,69,104,10
0,66,104,4
0,67,105,5
0,60,119,7
0,67,119,0
0,60,101,1
0,66,105,206
0,64,104,49
0,69,118,1
0,64,107,1
0,42,107,1
0,64,104,0
0,69,100,0
0,42,111,1
0,54,86,2
0,64,119,0
0,64,100,0
0,62,105,30
0,62,104,53
0,69,111,1
0,62,101,1
0,62,110,0
0,64,105,4
0,62,101,0
0,62,105,33
0,60,104,5
0,72,106,1
0,60,106,2
0,55,91,4
0,43,107,3
0,60,105,0
0,43,106,0
0,60,100,2
0,67,94,1
0,67,106,2
0,59,91,9
0,71,107,0
0,47,107,4
0,66,111,1
0,71,119,1
0,47,106,0
0,59,104,0
0,63,119,6
0,63,90,0
0,47,110,2
0,66,100,5
0,59,104,52
0,59,105,68
0,67,101,2
0,47,111,2
0,67,107,0
0,55,118,0
0,83,99,1
0,28,100,0
0,59,105,0
0,52,94,0
0,71,110,3
0,79,99,0
0,71,100,4
0,60,104,12
0,57,104,20
0,66,100,0
0,69,101,1
0,66,91,3
0,78,92,2
0,59,105,0
0,69,111,2
0,81,110,1
0,79,103,17
0,71,111,1
0,83,116,2
0,67,118,1
0,71,110,1
0,67,94,1
0,62,105,20
0,84,111,0
0,72,110,1
0,81,107,1
0,69,119,2
0,69,95,3
0,72,111,0
0,60,104,0
0,81,98,0
0,47,106,2
0,78,91,1
0,27,101,1
0,60,104,0
0,66,110,0
0,66,87,2
0,51,86,1
0,69,111,2
0,59,110,0
0,69,111,5
0,59,105,22
0,57,104,20
0,64,95,5
0,64,94,1
0,67,91,1
0,59,105,4
0,67,110,0
0,66,90,15
0,69,91,3
0,69,111,2
0,66,90,6
0,67,95,8
0,54,110,6
0,71,111,1
0,59,105,40
0,59,104,80
0,67,111,0
0,55,106,2
0,28,101,5
0,60,105,0
0,60,101,0
0,52,118,1
0,67,107,2
0,55,106,1
0,60,110,0
0,64,119,1
0,62,104,42
0,59,104,15
0,60,105,97
0,54,110,2
0,62,107,1
0,57,90,1
0,57,101,0
0,69,106,0
0,30,100,0
0,62,105,0
0,69,100,5
0,62,110,1
0,60,104,30
0,55,107,6
0,50,106,2
0,31,106,2
0,60,104,0
0,60,107,5
0,60,111,3
0,59,105,10
0,59,101,5
0,57,107,0
0,50,107,4
0,47,110,1
0,55,100,1
0,55,106,2
0,59,110,4
0,50,100,14
0,59,105,161
0,60,104,39
0,54,110,1
