track,note,velocity,time
0,52,57,905
0,78,71,7
0,74,67,1
0,78,61,0
0,69,77,2
0,74,56,1
0,69,58,0
0,79,86,1
0,76,61,0
0,71,60,1
0,83,53,1
0,83,85,20
0,81,76,33
0,69,0,19
0,90,119,12
0,76,48,3
0,79,62,15
0,71,55,1
0,83,70,11
0,71,69,2
0,74,0,2
0,76,65,3
0,95,114,4
0,88,112,3
0,88,70,6
0,79,66,4
0,90,93,30
0,86,58,1
0,64,79,53
0,71,65,11
0,76,85,1
0,76,0,8
0,81,0,2
0,100,102,28
0,91,100,1
0,95,110,1
0,71,70,12
0,79,0,17
0,67,53,12
0,71,55,0
0,74,57,0
0,76,70,13
0,76,74,0
0,79,107,0
0,95,0,1
0,91,0,0
0,100,0,0
0,59,60,2
0,67,0,0
0,64,70,2
0,40,67,1
0,67,94,1
0,64,0,1
0,76,0,0
0,71,0,7
0,76,102,0
0,76,0,1008
0,79,97,0
0,83,110,34
0,79,0,9
0,79,107,0
0,74,59,4
0,78,39,3
0,79,0,1
0,76,0,0
0,69,46,3
0,79,0,7
0,78,77,0
0,66,58,9
0,38,63,3
0,62,70,5
0,64,0,2
0,69,64,1
0,57,60,2
0,74,61,0
0,78,65,2
0,40,0,17
0,78,0,13
0,78,77,0
0,74,125,3
0,74,64,0
0,76,78,0
0,74,0,5
0,76,78,0
0,79,107,0
0,78,0,10
0,74,0,4
0,76,20,9
0,57,0,6
0,79,58,9
0,71,57,13
0,66,0,17
0,40,63,12
0,64,93,3
0,76,41,13
0,71,35,0
0,79,75,1
0,59,69,3
0,67,100,0
0,38,0,22
0,74,0,4
0,62,0,1
0,76,75,0
0,79,0,13
0,76,0,822
0,74,0,85
0,76,114,11
0,72,53,4
0,36,59,1
0,67,70,4
0,72,41,16
0,60,104,11
0,55,95,0
0,64,102,3
0,76,80,0
0,78,39,1
0,74,35,1
0,74,114,1
0,38,55,3
0,78,53,1
0,36,0,11
0,79,0,2
0,69,47,0
0,69,65,0
0,74,65,7
0,57,87,2
0,66,104,6
0,62,104,0
0,76,94,0
0,76,0,82
0,76,80,30
0,76,0,104
0,74,0,3
0,71,106,11
0,76,38,4
0,66,0,1
0,79,54,2
0,76,49,2
0,40,70,3
0,59,67,6
0,67,96,0
0,64,68,2
0,76,90,0
0,74,0,0
0,71,47,3
0,78,0,5
0,79,85,8
0,74,0,1
0,71,61,2
0,76,117,4
0,88,98,13
0,91,98,4
0,95,95,1
0,76,64,0
0,76,84,0
0,76,87,0
0,79,107,0
0,67,86,11
0,71,104,0
0,76,105,0
0,71,45,0
0,76,53,0
0,79,81,0
0,88,0,1
0,95,0,0
0,91,0,0
0,79,0,0
0,71,0,0
0,76,0,0
0,79,0,78
0,76,78,2
0,64,58,12
0,64,46,15
0,62,71,18
0,83,66,7
0,79,127,11
0,85,78,26
0,63,83,5
0,64,76,7
0,79,107,0
0,64,86,31
0,71,90,1
0,67,91,0
0,79,107,0
0,64,85,39
0,64,0,24
0,78,58,0
0,79,0,9
0,63,78,4
0,78,95,0
0,67,0,4
0,79,0,9
0,64,0,6
0,69,94,3
0,66,121,1
0,79,0,1
0,74,104,3
0,71,0,13
0,76,0,1
0,69,51,4
0,78,47,4
0,38,106,2
0,74,61,4
0,71,0,1
0,69,73,13
0,66,79,3
0,78,47,0
0,62,74,4
0,81,38,8
0,74,38,10
0,76,65,0
0,74,80,0
0,76,0,1
0,64,58,49
0,64,46,14
0,62,71,17
0,78,113,13
0,74,97,5
0,66,0,9
0,86,55,20
0,76,78,3
0,76,0,24
0,63,83,22
0,64,76,24
0,64,0,24
0,76,78,0
0,76,84,0
0,64,85,2
0,76,40,0
0,63,78,2
0,76,33,22
0,38,0,7
0,59,80,11
0,71,95,2
0,62,0,1
0,64,100,0
0,40,108,1
0,74,0,2
0,67,87,0
0,79,80,4
0,71,60,1
0,69,0,5
0,79,107,0
0,66,0,1
0,88,114,3
0,91,127,0
0,95,126,0
0,76,60,1
0,79,68,1
0,71,45,5
0,76,90,5
0,64,58,12
0,100,120,0
0,103,112,0
0,64,46,15
0,62,71,18
0,62,0,23
0,96,106,10
0,72,60,3
0,67,61,3
0,60,87,5
0,64,94,2
0,67,87,1
0,36,127,7
0,40,0,3
0,85,78,11
0,72,52,5
0,63,83,58
0,64,76,6
0,78,52,7
0,100,0,3
0,96,0,2
0,62,86,5
0,66,95,1
0,69,97,3
0,74,97,0
0,69,63,3
0,38,104,5
0,74,58,7
0,78,50,0
0,76,0,8
0,74,55,9
0,81,55,4
0,79,0,3
0,64,85,3
0,74,0,3
0,76,70,0
0,64,0,6
0,76,66,4
0,63,78,2
0,76,106,0
0,40,102,10
0,81,0,1
0,38,0,4
0,95,90,3
0,103,104,1
0,79,88,0
0,76,28,1
0,100,106,1
0,71,62,17
0,76,44,0
0,67,83,2
0,79,69,1
0,64,78,1
0,59,81,1
0,71,86,1
0,71,44,8
0,64,58,11
0,64,0,24
0,64,46,69
0,62,71,18
0,76,78,31
0,63,83,13
0,64,76,6
0,76,100,0
0,79,107,0
0,64,85,12
0,64,0,24
0,100,0,34
0,95,0,3
0,103,0,4
0,79,0,87
0,63,78,20
0,63,0,23
0,81,80,0
0,86,79,13
0,79,62,2
0,83,70,0
0,81,0,21
0,59,0,17
0,67,0,16
0,64,0,1
0,83,107,0
0,79,0,1
0,67,80,8
0,71,80,0
0,62,71,0
0,43,90,0
0,64,66,0
0,79,76,0
0,71,0,1
0,76,0,0
0,71,53,0
0,74,68,3
0,64,0,18
0,79,67,10
0,86,59,0
0,83,51,12
0,81,70,68
0,83,0,27
0,79,97,0
0,63,77,4
0,64,81,1
0,64,75,2
0,63,76,5
0,63,0,24
0,62,86,15
0,62,0,24
0,63,84,41
0,63,0,24
0,64,90,2
0,83,107,0
0,80,74,7
0,78,65,3
0,78,0,10
0,80,0,2
0,64,75,6
0,81,80,0
0,63,92,5
0,81,49,28
0,83,0,3
0,71,0,11
0,78,50,2
0,78,47,2
0,83,0,1
0,81,107,6
0,62,84,2
0,79,0,0
0,66,91,4
0,69,97,1
0,69,68,0
0,86,94,8
0,81,97,1
0,93,102,1
0,38,108,1
0,64,66,12
0,78,77,3
0,81,0,14
0,63,77,11
0,76,72,0
0,63,0,0
0,74,80,0
0,64,81,19
0,91,127,1
0,64,75,28
0,64,0,23
0,63,76,51
0,63,0,24
0,90,127,26
0,91,0,24
0,62,86,19
0,76,63,0
0,76,0,23
0,62,0,1
0,63,84,21
0,64,90,2
0,64,0,24
0,81,102,0
0,64,75,40
0,81,0,2
0,64,0,21
0,81,95,0
0,63,92,92
0,83,107,0
0,83,107,0
0,86,0,18
0,78,0,2
0,69,0,2
0,78,0,1
0,74,0,1
0,64,100,1
0,60,88,0
0,69,100,2
0,81,97,0
0,38,0,1
0,45,110,2
0,84,95,3
0,88,106,1
0,76,58,1
0,84,64,3
0,72,56,2
0,64,66,1
0,81,70,0
0,76,62,0
0,64,0,22
0,63,77,11
0,64,81,0
0,81,92,14
0,64,75,19
0,64,0,23
0,63,76,36
0,63,0,24
0,93,117,126
0,62,86,6
0,63,84,3
0,64,90,1
0,64,0,24
0,83,107,0
0,64,75,22
0,81,107,0
0,63,92,17
0,63,0,23
0,81,0,24
0,60,0,86
0,69,0,2
0,64,0,2
0,81,107,0
0,59,80,4
0,64,87,1
0,67,75,1
0,72,0,2
0,83,61,4
0,88,0,3
0,81,0,6
0,79,106,4
0,88,95,4
0,95,81,1
0,40,112,2
0,64,66,0
0,91,127,1
0,71,60,0
0,79,78,8
0,81,0,6
0,64,0,1
0,45,0,3
0,63,77,10
0,64,81,0
0,64,0,23
0,79,107,0
0,81,0,21
0,64,75,18
0,64,0,23
0,63,76,0
0,63,0,24
0,91,0,55
0,88,0,20
0,88,100,73
0,91,127,1
0,83,94,1
0,62,86,18
0,76,63,0
0,63,84,57
0,63,0,24
0,64,90,1
0,93,80,12
0,90,110,4
0,86,95,0
0,79,0,4
0,42,116,5
0,78,55,0
0,81,40,1
0,62,94,1
0,74,60,3
0,78,60,0
0,69,104,2
0,66,97,1
0,76,107,0
0,40,0,8
0,81,70,6
0,74,77,9
0,79,107,0
0,64,75,4
0,63,92,0
0,81,107,0
0,69,0,4
0,62,0,0
0,83,98,0
0,43,102,1
0,86,106,0
0,83,102,0
0,91,127,0
0,64,66,0
0,74,56,0
0,79,73,0
0,83,56,0
0,62,91,1
0,83,65,0
0,79,83,1
0,71,90,1
0,67,91,0
0,74,60,3
0,64,0,16
0,63,77,11
0,70,87,17
0,64,81,1
0,70,47,5
0,64,75,2
0,63,76,5
0,63,0,24
0,98,122,17
0,91,127,1
0,93,114,1
0,62,86,15
0,63,84,41
0,63,0,24
0,70,87,1
0,64,90,2
0,86,77,1
0,70,47,2
0,79,107,0
0,83,100,0
0,64,75,6
0,81,107,0
0,83,0,8
0,63,92,4
0,98,110,2
0,90,113,0
0,93,106,2
0,69,70,1
0,74,62,0
0,90,59,3
0,78,93,0
0,79,0,1
0,83,0,1
0,81,60,1
0,86,66,1
0,66,95,1
0,71,0,4
0,78,57,0
0,38,112,11
0,64,66,1
0,79,0,4
0,81,47,7
0,67,0,1
0,64,0,8
0,63,77,11
0,70,87,16
0,64,81,1
0,70,47,3
0,64,75,16
0,63,76,51
0,63,0,24
0,62,86,69
0,76,63,0
0,76,0,23
0,62,0,1
0,63,84,21
0,70,87,2
0,64,90,2
0,70,0,14
0,64,0,10
0,81,107,0
0,70,47,9
0,81,0,20
0,70,0,3
0,81,107,0
0,64,75,40
0,64,0,23
0,79,107,0
0,81,0,9
0,63,92,16
0,76,107,0
0,90,0,12
0,81,0,3
0,98,112,3
0,91,127,1
0,88,106,1
0,74,0,1
0,36,127,10
0,76,64,7
0,60,71,5
0,64,86,1
0,67,80,1
0,72,60,1
0,79,85,1
0,84,64,3
0,72,53,3
0,79,98,2
0,38,0,1
0,64,66,23
0,81,0,10
0,64,0,12
0,63,77,11
0,70,87,15
0,64,81,0
0,70,47,5
0,64,75,0
0,64,0,23
0,63,76,41
0,63,0,24
0,93,117,12
0,62,86,2
0,63,84,3
0,70,87,7
0,64,90,1
0,70,0,14
0,76,100,7
0,70,47,0
0,64,75,22
0,79,107,0
0,86,0,0
0,63,92,1
0,72,0,1
0,79,0,16
0,63,0,6
0,79,107,0
0,59,66,9
0,62,80,7
0,43,98,2
0,36,0,1
0,71,60,15
0,74,71,1
0,86,110,5
0,95,117,2
0,91,127,1
0,64,66,3
0,76,0,1
0,63,77,10
0,70,87,15
0,64,81,0
0,70,0,20
0,64,0,3
0,70,47,24
0,64,75,18
0,64,0,23
0,63,76,17
0,81,110,3
0,86,112,1
0,90,123,0
0,66,77,0
0,57,73,2
0,78,64,11
0,38,112,4
0,69,66,4
0,62,86,6
0,76,63,0
0,74,89,0
0,78,127,0
0,63,84,42
0,63,0,24
0,70,87,1
0,64,90,1
0,70,47,5
0,76,100,0
0,76,107,0
0,64,75,4
0,63,92,0
0,76,88,0
0,79,107,0
0,59,88,0
0,64,98,0
0,67,88,0
0,40,74,0
0,83,110,0
0,88,122,0
0,91,127,0
0,95,114,0
0,64,66,0
0,61,127,0
0,76,70,0
0,79,84,0
0,71,59,0
0,88,91,0
0,40,94,1
0,76,102,0
0,90,78,7
0,63,77,5
0,88,0,11
0,63,0,13
0,70,87,8
0,64,81,1
0,91,90,2
0,70,47,9
0,93,95,0
0,64,75,4
0,91,84,4
0,90,104,3
0,63,76,4
0,62,86,4
0,88,95,0
0,62,0,24
0,63,84,7
0,90,87,0
0,88,0,10
0,63,0,14
0,70,87,2
0,91,95,2
0,64,90,7
0,70,0,14
0,64,0,10
0,79,107,0
0,91,0,43
0,70,47,3
0,93,88,4
0,91,78,0
0,64,75,7
0,78,107,0
0,95,0,5
0,91,0,4
0,90,110,8
0,63,92,9
0,78,0,10
0,91,0,8
0,63,0,5
0,66,79,0
0,62,88,1
0,57,92,3
0,74,70,7
0,78,68,3
0,69,61,3
0,38,98,4
0,90,0,1
0,86,88,4
0,78,107,2
0,64,66,1
0,64,0,22
0,40,0,15
0,76,92,0
0,78,0,28
0,74,83,0
0,76,0,27
0,88,92,24
0,63,77,8
0,86,0,3
0,63,0,21
0,90,91,161
0,70,87,2
0,64,81,3
0,88,0,1
0,70,0,19
0,64,0,3
0,90,0,152
0,70,47,12
0,91,91,2
0,70,0,21
0,90,104,170
0,64,75,3
0,91,0,12
0,64,0,11
0,88,86,167
0,63,76,5
0,90,0,19
0,63,0,5
0,86,98,18
0,93,117,5
0,88,100,0
0,88,0,0
0,86,80,1
0,62,86,6
0,76,63,0
0,88,88,6
0,63,84,7
0,86,0,12
0,90,84,5
0,70,87,10
0,64,90,3
0,74,98,0
0,98,112,0
0,70,47,4
0,86,0,2
0,91,88,2
0,90,0,1
0,70,0,18
0,76,91,0
0,76,87,0
0,64,75,8
0,90,107,3
0,64,0,20
0,91,0,6
0,63,92,12
0,86,84,0
0,90,0,1
0,63,0,22
0,79,81,29
0,59,100,1
0,64,97,0
0,76,56,0
0,67,100,1
0,71,54,2
0,86,97,1
0,93,106,6
0,88,110,1
0,88,91,11
0,64,66,2
0,40,100,4
0,79,107,0
0,86,0,2
0,38,0,11
0,76,106,0
0,63,77,4
0,90,91,1
0,88,0,9
0,70,87,18
0,90,0,2
0,64,81,1
0,91,92,2
0,70,47,2
0,93,80,11
0,95,117,4
0,70,0,8
0,86,0,6
0,91,83,55
0,64,75,3
0,90,104,9
0,63,76,7
0,60,95,8
0,36,127,3
0,72,75,4
0,76,0,1
0,90,0,1
0,88,97,9
0,40,0,4
0,62,86,4
0,88,0,16
0,93,0,2
0,95,0,4
0,62,0,2
0,90,95,7
0,63,84,5
0,88,0,17
0,63,0,7
0,91,94,31
0,70,87,1
0,90,0,3
0,64,90,6
0,70,0,14
0,64,0,10
0,62,79,8
0,69,97,1
0,66,93,1
0,38,83,7
0,76,0,12
0,69,59,2
0,78,64,12
0,91,0,3
0,74,65,5
0,36,0,6
0,70,47,1
0,93,94,2
0,74,94,0
0,70,0,19
0,74,0,26
0,76,100,0
0,93,0,6
0,91,85,1
0,64,75,10
0,64,0,23
0,76,0,12
0,76,104,0
0,63,92,31
0,90,107,1
0,63,0,22
0,88,100,2
0,67,76,1
0,91,127,0
0,64,81,3
0,59,83,0
0,40,106,0
0,95,110,0
0,76,72,1
0,79,94,4
0,71,66,1
0,90,0,5
0,88,91,0
0,36,63,1
0,64,66,0
0,90,89,16
0,63,77,4
0,88,0,8
0,70,87,18
0,64,81,3
0,91,95,2
0,70,47,7
0,93,90,2
0,70,0,11
0,91,86,17
0,93,0,1
0,64,75,4
0,64,0,23
0,90,107,67
0,63,76,5
0,47,91,4
0,100,117,0
0,52,107,1
0,88,100,4
0,62,86,5
0,76,63,0
0,55,74,10
0,76,0,12
0,62,0,1
0,64,94,7
0,59,61,4
0,90,89,14
0,63,84,5
0,88,0,7
0,91,92,29
0,70,87,2
0,90,0,7
0,64,90,2
0,70,0,14
0,64,0,10
0,70,47,57
0,91,0,2
0,93,92,3
0,69,112,14
0,91,85,3
0,64,75,4
0,93,0,10
0,71,114,16
0,71,0,50
0,74,127,1
0,90,110,13
0,63,92,3
0,76,127,12
0,67,97,17
0,59,94,0
0,64,102,0
0,40,110,0
0,55,74,0
0,64,85,0
0,59,84,0
0,64,66,0
0,88,97,6
0,64,0,16
0,63,77,24
0,90,107,2
0,63,0,22
0,70,87,10
0,64,81,3
0,91,97,3
0,70,0,17
0,64,0,3
0,91,0,155
0,70,47,9
0,93,95,5
0,70,0,18
0,64,75,18
0,91,94,3
0,90,113,10
0,63,76,1
0,63,0,24
0,88,102,13
0,62,86,7
0,90,95,22
0,63,84,6
0,63,0,24
0,90,0,139
0,91,94,24
0,70,87,3
0,64,90,9
0,70,0,14
0,64,0,10
0,91,0,141
0,70,47,16
0,93,90,4
0,70,0,19
0,74,114,5
0,91,85,20
0,64,75,6
0,93,0,4
