track,note,velocity,time
4,69,100,8256
4,69,100,4
4,69,100,4
4,69,100,4
4,69,100,52
4,67,100,4
4,65,100,4
4,58,100,4
4,67,100,196
4,67,100,4
4,67,100,868
4,67,100,4
4,67,100,4
4,67,100,4
4,67,100,4
4,64,100,4
4,62,100,36
4,60,100,4
4,60,100,148
4,67,100,4
4,65,100,4
4,62,100,676
4,69,100,4
4,69,100,4
4,69,100,4
4,69,100,4
4,67,100,196
4,65,100,4
4,58,100,4
4,67,100,36
4,67,100,4
4,60,100,676
4,67,100,4
4,67,100,4
4,67,100,4
4,67,100,4
4,64,100,196
4,64,100,4
4,62,100,4
4,60,100,4
4,62,100,4
4,62,100,4
4,62,100,1444
4,62,100,4
4,64,100,4
4,65,100,4
4,69,100,4
4,67,100,4
4,62,100,1348
4,62,100,4
4,64,100,4
4,64,100,4
4,65,100,4
4,69,100,4
4,70,100,100
4,70,100,4
4,70,100,292
4,69,100,4
4,65,100,4
4,65,100,4
4,62,100,4
4,69,100,4
4,67,100,4
4,70,100,964
4,69,100,4
4,65,100,100
4,65,100,4
4,72,100,4
4,72,100,4
4,64,100,196
4,62,100,4
4,70,100,1156
4,69,100,4
4,65,100,4
4,65,100,4
4,65,100,4
4,62,100,4
4,69,100,4
4,67,100,4
4,67,100,964
4,67,100,4
4,69,100,4
4,67,100,4
4,65,100,4
4,62,100,4
4,65,100,4
4,62,100,388
4,65,100,4
4,60,100,388
4,60,100,4
4,67,100,4
4,65,100,4
4,62,100,1732
4,62,100,4
4,65,100,4
4,69,100,4
4,67,100,4
4,65,100,4
4,67,100,4
4,69,100,4
4,69,100,4
4,69,100,4
4,67,100,4
4,65,100,4
4,58,100,4
4,67,100,4
4,67,100,4
4,67,100,964
4,67,100,4
4,67,100,4
4,67,100,4
4,67,100,4
4,67,100,4
4,64,100,4
4,62,100,4
4,60,100,4
4,67,100,4
4,65,100,4
4,69,100,484
4,69,100,4
4,69,100,4
4,69,100,4
4,69,100,4
4,69,100,4
4,69,100,4
4,69,100,4
4,69,100,4
4,69,100,4
4,74,100,4
4,77,100,4
4,69,100,4
4,69,100,4
4,65,100,4
4,67,100,868
4,67,100,4
4,67,100,4
4,67,100,4
4,67,100,4
4,67,100,4
4,67,100,4
4,64,100,4
4,62,100,4
4,60,100,4
4,67,100,4
4,65,100,4
4,62,100,1300
4,62,100,4
4,62,100,4
4,64,100,4
4,65,100,4
4,69,100,4
4,67,100,4
4,62,100,1348
4,62,100,4
4,64,100,4
4,64,100,4
4,65,100,4
4,69,100,4
4,70,100,4
4,70,100,4
4,70,100,260
4,69,100,4
4,65,100,4
4,65,100,4
4,62,100,4
4,69,100,4
4,67,100,4
4,70,100,964
4,69,100,4
4,65,100,4
4,65,100,4
4,72,100,4
4,72,100,4
4,64,100,196
4,62,100,4
4,70,100,772
4,69,100,4
4,65,100,4
4,65,100,4
4,65,100,4
4,62,100,4
4,69,100,4
4,67,100,4
4,67,100,868
4,67,100,4
4,69,100,4
4,70,100,4
4,69,100,4
4,65,100,4
4,62,100,580
4,65,100,4
4,62,100,196
4,62,100,4
4,65,100,4
4,69,100,4
4,74,100,6484
4,72,100,4
4,70,100,4
4,69,100,4
4,69,100,4
4,67,100,4
4,70,100,4
4,69,100,4
4,67,100,4
4,70,100,1252
4,69,100,4
4,70,100,4
4,69,100,4
4,70,100,4
4,70,100,4
4,67,100,4
4,77,100,1060
4,72,100,4
4,74,100,4
4,72,100,4
4,72,100,4
4,69,100,384
4,65,100,4
4,74,100,436
4,72,100,4
4,71,100,4
4,72,100,4
4,70,100,388
4,69,100,4
4,65,100,4
4,65,100,4
4,72,100,4
4,72,100,4
4,64,100,4
4,62,100,4
4,72,100,4
4,74,100,4
4,72,100,4
4,75,100,4
4,74,100,4
4,72,100,4
4,70,100,100
4,69,100,4
4,65,100,4
4,65,100,4
4,65,100,4
4,62,100,4
4,69,100,4
4,67,100,4
4,69,100,4
4,67,100,868
4,67,100,4
4,69,100,4
4,70,100,4
4,69,100,4
4,65,100,4
4,65,100,628
4,65,100,4
4,70,100,388
4,70,100,4
4,72,100,4
4,72,100,4
4,67,100,2500
4,67,100,4
4,69,100,4
4,70,100,4
4,69,100,4
4,70,100,388
4,69,100,4
4,65,100,4
4,65,100,4
4,65,100,4
4,65,100,4
4,62,100,4
4,69,100,4
4,67,100,4
4,67,100,32
4,67,100,4
4,69,100,4
4,70,100,4
4,69,100,4
4,65,100,4
5,57,81,1536
5,60,81,0
5,65,81,0
5,58,78,4
5,62,78,0
5,67,78,0
5,57,81,4
5,60,81,0
5,65,81,0
5,58,78,4
5,62,78,0
5,67,78,0
5,57,78,4
5,62,78,0
5,65,78,0
5,58,81,4
5,62,81,0
5,67,81,0
5,60,80,4
5,64,80,0
5,67,80,0
5,52,77,4
5,57,77,0
5,60,77,0
5,53,77,4
5,58,77,0
5,62,77,0
5,57,77,4
5,62,77,0
5,65,77,0
5,58,77,4
5,62,77,0
5,67,77,0
5,60,77,4
5,64,77,0
5,67,77,0
5,52,77,4
5,57,77,0
5,60,77,0
5,53,77,4
5,58,77,0
5,62,77,0
5,55,77,4
5,58,77,0
5,62,77,0
5,55,77,4
5,60,77,0
5,64,77,0
5,55,77,4
5,58,77,0
5,62,77,0
5,55,77,4
5,60,77,0
5,64,77,0
5,53,100,4
5,57,100,0
5,60,100,0
5,53,100,4
5,58,100,0
5,62,100,0
5,55,100,4
5,60,100,0
5,64,100,0
5,53,100,4
5,57,100,0
5,60,100,0
5,52,100,4
5,53,100,4
5,58,100,0
5,62,100,0
5,55,100,4
5,60,100,0
5,64,100,0
5,53,100,4
5,57,100,0
5,58,100,4
5,62,100,0
5,55,100,4
5,60,100,0
5,64,100,0
5,58,100,4
5,62,100,0
5,53,100,4
5,53,100,4
5,57,100,0
5,60,100,0
5,55,100,4
5,58,100,0
5,62,100,0
5,53,100,4
5,57,100,0
5,62,100,0
5,55,100,4
5,58,100,0
5,62,100,0
5,55,100,4
5,60,100,0
5,64,100,0
5,52,100,4
5,57,100,0
5,60,100,0
5,53,100,4
5,58,100,0
5,62,100,0
5,53,100,4
5,57,100,0
5,62,100,0
5,55,100,4
5,58,100,0
5,62,100,0
5,55,100,4
5,60,100,0
5,64,100,0
5,52,100,4
5,57,100,0
5,60,100,0
5,53,100,4
5,58,100,0
5,62,100,0
5,55,100,4
5,58,100,0
5,62,100,0
5,55,100,4
5,60,100,0
5,64,100,0
5,55,100,4
5,58,100,0
5,62,100,0
5,55,100,4
5,60,100,0
5,64,100,0
5,57,100,4
5,60,100,0
5,65,100,0
5,58,100,4
5,62,100,0
5,65,100,0
5,55,100,4
5,60,100,0
5,64,100,0
5,57,100,4
5,60,100,0
5,65,100,0
5,57,100,4
5,60,100,0
5,64,100,0
5,58,100,4
5,62,100,0
5,65,100,0
5,60,100,4
5,64,100,0
5,67,100,0
5,57,100,4
5,60,100,0
5,65,100,0
5,62,100,4
5,58,100,0
5,65,100,0
5,60,100,4
5,64,100,0
5,67,100,0
5,55,100,4
5,58,100,0
5,62,100,0
5,53,100,4
5,58,100,0
5,62,100,0
5,57,100,4
5,53,100,0
5,62,100,0
5,55,100,4
5,58,100,0
5,62,100,0
5,53,100,4
5,57,100,0
5,62,100,0
5,55,100,4
5,58,100,0
5,62,100,0
5,55,100,4
5,58,100,0
5,62,100,0
5,53,100,4
5,58,100,0
5,62,100,0
5,52,100,4
5,55,100,0
5,60,100,0
5,55,100,4
5,58,100,0
5,62,100,0
5,53,100,4
5,58,100,0
5,62,100,0
5,64,100,4
5,60,100,0
5,67,100,0
5,60,105,4612
5,65,105,0
5,69,105,0
5,57,110,4
5,60,110,0
5,64,110,0
5,58,104,4
5,62,104,0
5,65,104,0
5,60,110,4
5,64,110,0
5,67,110,0
5,60,106,4
5,65,106,0
5,69,106,0
5,58,105,4
5,62,105,0
5,65,105,0
5,60,104,4
5,64,104,0
5,67,104,0
5,58,106,4
5,62,106,0
5,67,100,0
5,58,106,4
5,62,106,0
5,65,106,0
5,60,106,4
5,65,106,0
5,69,106,0
5,58,106,4
5,62,106,0
5,65,106,0
5,60,106,4
5,64,106,0
5,67,106,0
5,60,106,4
5,65,106,0
5,69,106,0
5,57,106,4
5,60,106,0
5,64,106,0
5,58,106,4
5,62,106,0
5,65,106,0
5,67,106,4
5,64,106,0
5,60,106,0
5,69,106,4
5,60,106,0
5,65,106,0
5,58,106,4
5,62,106,0
5,65,106,0
5,60,106,4
5,64,106,0
5,67,106,0
5,55,106,4
5,58,106,0
5,62,106,0
6,67,100,384
6,81,88,768
6,81,88,4
6,81,88,4
6,79,63,4
6,77,88,4
6,77,74,4
6,53,100,3840
6,55,100,4
6,52,100,4
6,50,100,4
6,60,100,4676
6,60,100,1152
6,57,100,4
6,60,100,4
6,69,113,1159
7,72,81,10368
7,74,78,4
7,77,78,4
7,76,75,4
7,79,75,0
7,72,81,4996
7,74,78,4
7,77,78,4
7,76,75,4
7,79,75,0
8,36,100,25152
8,38,100,4
8,40,100,4
8,41,100,4
8,33,100,4
8,34,100,4
8,36,100,4
8,36,100,4
8,38,100,4
8,40,100,4
8,41,100,4
8,41,100,4
8,33,100,4
8,34,100,4
8,34,100,4
8,36,100,4
8,41,100,4
8,33,100,4
8,34,100,4
8,38,100,4
8,36,100,4
8,36,100,4
8,36,100,4
8,31,100,4
8,31,100,4
8,31,100,4
8,33,100,4
8,34,100,4
8,34,100,4
8,34,100,4
8,41,100,388
8,41,100,4
8,36,100,4
8,41,100,4
8,43,100,4
8,43,100,4
8,45,100,4
8,43,100,4
8,41,100,4
8,38,100,4
8,36,100,4
8,34,100,4
8,33,100,4
8,38,108,4
8,33,108,4
8,38,104,4
8,38,107,100
8,33,107,4
8,31,107,4
8,31,107,4
8,31,107,4
8,38,107,4
8,36,107,4
8,36,107,4
8,31,107,4
8,36,107,4
8,36,107,4
8,36,107,4
8,34,107,4
8,33,107,4
8,33,107,4
8,34,107,4
8,38,107,4
8,33,107,100
8,38,107,4
8,38,107,4
8,33,107,4
8,31,107,4
8,31,107,4
8,31,107,4
8,31,107,4
8,38,107,4
8,36,107,4
8,31,107,100
8,36,107,4
8,36,107,4
8,36,107,4
8,34,107,4
8,33,107,4
8,33,107,4
8,34,107,4
8,34,107,4
8,33,107,4
8,31,107,4
8,31,107,4
8,31,107,4
8,38,107,4
8,36,107,4
8,36,107,4
8,36,107,4
8,40,107,196
8,41,107,4
8,43,100,4
8,38,100,100
8,43,100,4
8,43,100,100
8,38,100,4
8,36,100,4
8,36,100,4
8,38,100,4
8,40,100,4
8,41,100,4
8,33,100,4
8,34,100,4
8,38,100,4
8,36,100,4
8,36,100,4
8,38,100,4
8,40,100,4
8,41,100,4
8,41,100,4
8,33,100,4
8,33,100,4
8,34,100,4
8,34,100,4
8,38,100,4
8,36,100,4
8,36,100,4
8,43,100,4
8,43,100,4
8,41,100,4
8,33,100,4
8,34,100,4
8,38,100,4
8,36,100,4
8,36,100,4
8,36,100,4
8,34,100,4
8,33,100,4
8,31,100,4
8,31,100,4
8,31,100,4
8,33,100,4
8,34,100,4
8,34,100,4
8,34,100,4
8,36,100,4
8,38,100,4
8,33,100,4
8,38,100,4
8,38,100,100
8,33,100,4
8,31,100,4
8,31,100,4
8,31,100,4
8,36,100,4
8,38,100,4
8,38,100,4
8,33,100,4
8,38,100,4
8,38,100,100
8,38,100,100
8,45,100,4
8,43,100,4
8,38,100,4
8,43,100,4
8,33,100,4
8,31,100,4
8,33,100,4
8,34,100,4
8,36,100,4
8,31,100,100
8,36,100,4
8,36,100,100
8,34,108,4
8,33,108,4
8,31,100,4
8,33,100,4
8,34,100,4
8,38,100,4
8,36,100,4
8,36,100,820
8,38,100,48
8,36,100,4
8,41,117,4516
8,41,117,4
8,33,117,4
8,33,117,4
8,34,117,4
8,34,117,4
8,36,117,4
8,36,117,4
8,43,117,4
8,41,117,4
8,33,117,4
8,34,117,4
8,38,117,4
8,36,117,4
8,31,117,4
8,36,117,4
8,36,117,52
8,33,117,4
8,31,117,4
8,31,117,4
8,31,117,4
8,33,117,4
8,34,117,4
8,34,117,4
8,34,117,4
8,36,117,4
8,38,117,4
8,41,117,4
8,33,117,100
8,34,117,4
8,34,117,4
8,38,117,4
8,36,117,4
8,36,117,4
8,38,117,4
8,40,117,4
8,41,117,4
8,36,117,4
8,34,117,4
8,33,117,4
8,33,117,4
8,34,117,4
8,38,117,4
8,36,117,4
8,43,117,4
8,41,117,4
8,33,117,16
8,34,117,4
8,34,117,26
8,38,117,4
8,36,117,4
8,31,117,4
8,36,117,4
8,33,117,4
8,31,117,4
8,31,117,4
8,31,117,4
9,55,100,19968
9,58,100,0
9,62,100,0
9,55,100,4
9,60,100,0
9,64,100,0
9,58,100,4
9,62,100,0
9,65,100,0
9,60,100,4
9,64,100,0
9,67,100,0
9,65,100,4
9,77,100,0
9,72,100,4
9,84,100,0
9,65,100,2682
9,77,100,0
9,72,100,4
9,84,100,0
9,70,100,4
9,74,100,0
9,79,100,0
9,72,100,4
9,77,100,0
9,70,100,0
9,74,100,0
9,62,100,15367
9,65,100,0
9,70,100,0
9,64,100,4
9,67,100,0
9,72,100,0
9,74,100,4
9,65,100,0
9,70,100,0
9,67,100,4
9,72,100,0
9,76,100,0
9,69,100,4
9,72,100,0
9,77,100,0
9,81,81,27652
9,69,81,0
9,70,81,4
9,82,81,0
9,69,78,4
9,81,78,0
9,69,78,4
9,81,78,0
9,65,78,4
9,77,78,0
9,72,80,4
9,84,80,0
9,70,80,4
9,82,80,0
9,65,79,4
9,77,79,0
9,69,80,4
9,81,80,0
9,67,80,4
9,79,80,0
9,69,82,4
9,81,82,0
9,70,82,4
9,82,82,0
9,72,84,4
9,84,84,0
9,65,82,4
9,77,82,0
9,72,82,4
9,84,82,0
9,70,82,4
9,82,82,0
10,62,84,41472
10,65,84,0
10,69,84,0
10,58,100,4
10,62,100,0
10,67,100,0
10,60,100,4
10,64,100,0
10,67,100,0
10,58,100,4
10,62,100,0
10,65,100,0
10,62,100,4
10,65,100,0
10,69,100,0
10,58,100,4
10,62,100,0
10,67,100,0
10,60,100,4
10,64,100,0
10,67,100,0
10,57,100,4
10,60,100,0
10,64,100,0
10,58,100,4
10,62,100,0
10,65,100,0
10,60,113,5812
10,64,113,0
10,70,113,0
10,60,113,4
10,65,113,0
10,69,113,0
10,57,113,4
10,60,113,0
10,65,113,0
10,57,113,4
10,60,113,0
10,65,113,0
10,53,113,4
10,58,113,0
10,62,113,0
10,62,113,4
10,65,113,0
10,69,113,0
10,60,113,4
10,64,113,0
10,67,113,0
10,60,113,4
10,64,113,0
10,69,113,0
10,60,113,964
10,64,113,0
10,70,113,0
10,60,113,4
10,65,113,0
10,69,113,0
10,57,113,4
10,60,113,0
10,65,113,0
10,57,113,4
10,60,113,0
10,65,113,0
10,64,113,4
10,69,113,0
10,72,113,0
10,64,113,4
10,72,113,0
10,69,113,0
10,57,113,196
10,60,113,0
10,64,113,0
10,53,113,4
10,58,113,0
10,62,113,0
10,60,113,628
10,64,113,0
10,70,113,0
10,60,113,4
10,65,113,0
10,69,113,0
10,57,113,4
10,60,113,0
10,65,113,0
10,57,113,4
10,60,113,0
10,65,113,0
10,57,113,4
10,60,113,0
10,65,113,0
10,53,113,4
10,58,113,0
10,62,113,0
10,69,113,4
10,65,113,0
10,62,113,0
10,60,113,4
10,64,113,0
10,67,113,0
10,60,113,868
10,64,113,0
10,67,113,0
10,60,113,4
10,64,113,0
10,67,113,0
10,64,113,4
10,60,113,0
10,69,113,0
10,62,113,4
10,65,113,0
10,70,113,0
10,62,113,4
10,65,113,0
10,69,113,0
10,55,113,4
10,58,113,0
10,62,113,0
10,55,113,580
10,58,113,0
10,62,113,0
10,58,113,4
10,62,113,0
10,65,113,0
11,76,100,28032
11,64,100,0
11,77,100,4
11,65,100,0
11,79,100,4
11,67,100,0
11,81,100,4
11,69,100,0
11,60,100,1060
11,72,100,0
11,77,100,4
11,65,100,0
