track,note,velocity,time
1,26,113,15838
1,26,0,60
1,26,73,60
1,26,0,29
1,26,107,31
1,26,0,29
1,26,87,61
1,26,0,29
1,26,93,1
1,26,0,60
1,31,111,0
1,31,0,120
1,33,97,0
1,33,0,60
1,33,81,30
1,33,0,29
1,33,107,61
1,33,0,29
1,33,90,61
1,33,0,29
1,30,84,1
1,30,0,60
1,33,103,0
1,33,0,120
1,35,97,0
1,35,0,60
1,35,87,30
1,35,0,29
1,35,105,61
1,35,0,29
1,35,90,61
1,35,0,29
1,30,72,1
1,30,0,60
1,33,99,0
1,33,0,120
1,35,92,0
1,35,0,60
1,35,89,30
1,35,0,29
1,35,103,61
1,35,0,29
1,35,86,61
1,35,0,29
1,30,100,1
1,30,0,60
1,33,103,0
1,33,0,120
1,26,107,0
1,26,0,60
1,26,82,30
1,26,0,29
1,26,101,61
1,26,0,29
1,26,90,61
1,26,0,14
1,26,93,16
1,26,0,60
1,31,97,0
1,31,0,120
1,33,95,0
1,33,0,60
1,33,90,30
1,33,0,29
1,33,105,61
1,33,0,29
1,33,86,61
1,33,0,29
1,30,87,1
1,30,0,60
1,33,107,0
1,33,0,120
1,35,92,0
1,35,0,74
1,35,90,16
1,35,0,29
1,35,101,61
1,35,0,29
1,35,86,61
1,35,0,29
1,30,84,1
1,30,0,60
1,33,107,0
1,33,0,120
1,35,97,0
1,35,0,60
1,35,103,30
1,35,0,29
1,35,103,61
1,35,0,29
1,35,82,61
1,35,0,29
1,30,91,1
1,30,0,60
1,33,109,0
1,33,0,120
1,31,101,0
1,31,0,60
1,31,103,30
1,31,0,29
1,31,105,61
1,31,0,29
1,31,80,61
1,31,0,29
1,31,57,1
1,31,0,29
1,31,105,31
1,31,0,120
1,26,101,0
1,26,0,60
1,26,76,30
1,26,0,29
1,26,99,61
1,26,0,29
1,26,51,61
1,26,0,29
1,26,93,1
1,26,0,29
1,26,97,31
1,26,0,120
1,28,95,0
1,28,0,60
1,28,82,30
1,28,0,29
1,28,99,61
1,28,0,29
1,28,85,61
1,28,0,29
1,31,97,61
1,31,0,120
1,33,93,0
1,33,0,60
1,33,68,30
1,33,0,29
1,33,103,61
1,33,0,29
1,33,86,61
1,33,0,29
1,30,83,1
1,30,0,60
1,33,107,0
1,33,0,120
1,26,105,0
1,26,0,60
1,26,92,30
1,26,0,29
1,26,101,61
1,26,0,29
1,26,83,61
1,26,0,29
1,31,95,61
1,31,0,120
1,30,103,0
1,30,0,60
1,30,80,30
1,30,0,29
1,30,105,61
1,30,0,29
1,30,89,61
1,30,0,29
1,30,84,1
1,30,0,60
1,33,107,0
1,33,0,120
1,35,89,0
1,35,0,90
1,35,89,0
1,35,0,29
1,35,107,61
1,35,0,29
1,35,81,61
1,35,0,29
1,30,92,1
1,30,0,60
1,33,109,0
1,33,0,120
1,31,99,0
1,31,0,60
1,31,92,30
1,31,0,29
1,31,86,61
1,31,0,60
1,33,101,0
1,33,0,60
1,33,71,30
1,33,0,29
1,33,99,1
1,33,0,120
1,28,117,0
1,28,0,60
1,28,93,60
1,28,0,29
1,28,117,31
1,28,0,60
1,28,105,30
1,28,0,29
1,28,68,31
1,28,0,29
1,28,111,1
1,28,0,60
1,33,107,0
1,33,0,60
1,35,111,0
1,35,0,60
1,35,105,30
1,35,0,29
1,35,107,61
1,35,0,29
1,35,101,61
1,35,0,29
1,35,55,31
1,35,0,29
1,35,95,1
1,35,0,60
1,28,113,0
1,28,0,60
1,30,117,0
1,30,0,60
1,30,98,30
1,30,0,29
1,30,117,61
1,30,0,29
1,30,98,61
1,30,0,29
1,30,91,31
1,30,0,29
1,28,103,1
1,28,0,60
1,30,98,0
1,30,0,60
1,33,115,0
1,33,0,60
1,33,111,30
1,33,0,29
1,33,99,61
1,33,0,60
1,35,111,0
1,35,0,60
1,35,101,30
1,35,0,29
1,35,87,66
1,35,0,54
1,28,109,1
1,28,0,60
1,28,89,30
1,28,0,29
1,28,109,61
1,28,0,29
1,28,97,61
1,28,0,29
1,28,72,31
1,28,0,29
1,28,95,1
1,28,0,60
1,33,101,0
1,33,0,60
1,35,115,0
1,35,0,60
1,35,101,30
1,35,0,29
1,35,105,61
1,35,0,29
1,35,93,61
1,35,0,29
1,35,109,61
1,35,0,60
1,28,105,0
1,28,0,60
1,30,119,0
1,30,0,49
1,30,102,41
1,30,0,29
1,30,115,61
1,30,0,29
1,30,91,61
1,30,0,29
1,30,85,31
1,30,0,29
1,30,119,1
1,30,0,120
1,33,113,0
1,33,0,60
1,33,103,30
1,33,0,29
1,33,95,61
1,33,0,60
1,35,111,0
1,35,0,240
1,28,117,0
1,28,0,60
1,28,93,60
1,28,0,29
1,28,117,31
1,28,0,60
1,28,105,30
1,28,0,29
1,28,68,31
1,28,0,29
1,28,111,1
1,28,0,60
1,33,107,0
1,33,0,60
1,35,111,0
1,35,0,60
1,35,105,30
1,35,0,29
1,35,107,61
1,35,0,29
1,35,101,61
1,35,0,29
1,35,55,31
1,35,0,29
1,35,95,1
1,35,0,60
1,28,113,0
1,28,0,60
1,30,117,0
1,30,0,60
1,30,98,30
1,30,0,29
1,30,117,61
1,30,0,29
1,30,98,61
1,30,0,29
1,30,91,31
1,30,0,29
1,28,103,1
1,28,0,60
1,30,98,0
1,30,0,60
1,33,115,0
1,33,0,60
1,33,111,30
1,33,0,29
1,33,99,61
1,33,0,60
1,35,111,0
1,35,0,60
1,35,101,30
1,35,0,29
1,35,87,66
1,28,109,55
1,35,0,4
1,28,0,56
1,28,89,30
1,28,0,29
1,28,109,61
1,28,0,29
1,28,97,61
1,28,0,29
1,28,72,31
1,28,0,29
1,28,95,1
1,28,0,60
1,33,101,0
1,33,0,60
1,35,115,0
1,35,0,60
1,35,101,30
1,35,0,29
1,35,105,61
1,35,0,29
1,35,93,61
1,35,0,29
1,35,109,61
1,35,0,60
1,28,105,0
1,28,0,60
1,30,119,0
1,30,0,59
1,30,102,31
1,30,0,29
1,30,115,61
1,30,0,29
1,30,91,61
1,30,0,29
1,30,85,31
1,30,0,29
1,30,119,1
1,30,0,120
1,33,113,0
1,33,0,60
1,33,103,30
1,33,0,29
1,33,95,61
1,33,0,60
1,35,111,0
1,35,0,240
1,36,111,0
1,36,0,60
1,36,76,30
1,36,0,29
1,36,111,61
1,36,0,29
1,36,101,61
1,36,0,29
1,33,107,1
1,33,0,29
1,36,121,31
1,36,0,60
1,33,66,0
1,33,0,60
1,38,111,0
1,38,0,60
1,38,82,30
1,38,0,29
1,38,117,61
1,38,0,29
1,38,95,61
1,38,0,29
1,33,101,1
1,33,0,29
1,35,115,31
1,35,0,60
1,36,101,0
1,36,0,60
1,31,117,0
1,31,0,60
1,31,93,30
1,31,0,29
1,31,117,61
1,31,0,60
1,31,105,30
1,31,0,29
1,31,68,31
1,31,0,29
1,31,111,1
1,31,0,60
1,36,107,0
1,36,0,60
1,38,111,0
1,38,0,60
1,38,105,30
1,38,0,29
1,38,107,61
1,38,0,29
1,38,101,61
1,38,0,29
1,38,55,31
1,38,0,29
1,38,95,1
1,38,0,60
1,31,113,0
1,31,0,60
1,33,117,0
1,33,0,60
1,33,98,30
1,33,0,29
1,33,117,61
1,33,0,29
1,33,98,61
1,33,0,29
1,33,91,31
1,33,0,29
1,31,103,1
1,31,0,60
1,33,98,0
1,33,0,60
1,36,115,0
1,36,0,60
1,36,111,30
1,36,0,29
1,36,99,61
1,36,0,60
1,38,111,0
1,38,0,60
1,38,101,30
1,38,0,29
1,38,87,66
1,38,0,44
1,31,109,11
1,31,0,60
1,31,89,30
1,31,0,29
1,31,109,61
1,31,0,29
1,31,97,61
1,31,0,29
1,31,72,31
1,31,0,29
1,31,95,1
1,31,0,60
1,36,101,0
1,36,0,60
1,38,115,0
1,38,0,60
1,38,101,30
1,38,0,29
1,38,105,61
1,38,0,29
1,38,93,61
1,38,0,29
1,38,109,61
1,38,0,60
1,31,105,0
1,31,0,60
1,33,119,0
1,33,0,74
1,33,102,16
1,33,0,29
1,33,115,61
1,33,0,29
1,33,91,61
1,33,0,29
1,33,85,31
1,33,0,29
1,33,119,1
1,33,0,120
1,36,113,0
1,36,0,60
1,36,103,30
1,36,0,29
1,36,95,61
1,36,0,60
1,38,111,0
1,38,0,240
1,31,117,0
1,31,0,60
1,31,93,35
1,31,0,29
1,31,117,56
1,31,0,60
1,31,105,30
1,31,0,29
1,31,68,31
1,31,0,29
1,31,111,1
1,31,0,60
1,36,107,0
1,36,0,60
1,38,111,0
1,38,0,60
1,38,105,30
1,38,0,29
1,38,107,61
1,38,0,29
1,38,101,61
1,38,0,29
1,38,55,31
1,38,0,29
1,38,95,1
1,38,0,60
1,31,113,0
1,31,0,60
1,33,117,0
1,33,0,60
1,33,98,30
1,33,0,29
1,33,117,61
1,33,0,29
1,33,98,61
1,33,0,29
1,33,91,31
1,33,0,29
1,31,103,1
1,31,0,60
1,33,98,0
1,33,0,60
1,36,115,0
1,36,0,60
1,36,111,30
1,36,0,29
1,36,99,61
1,36,0,60
1,38,111,0
1,38,0,60
1,38,101,30
1,38,0,29
1,38,87,66
1,38,0,54
1,31,109,1
1,31,0,60
1,31,89,30
1,31,0,29
1,31,109,61
1,31,0,29
1,31,97,61
1,31,0,29
1,31,72,31
1,31,0,29
1,31,95,1
1,31,0,60
1,36,101,0
1,36,0,60
1,38,115,0
1,38,0,60
1,38,101,30
1,38,0,29
1,38,105,61
1,38,0,29
1,38,93,61
1,38,0,29
1,38,109,61
1,38,0,60
1,31,105,0
1,31,0,60
1,33,119,0
1,33,0,90
1,33,102,0
1,33,0,29
1,33,115,61
1,33,0,29
1,33,91,61
1,33,0,29
1,33,85,31
1,33,0,29
1,33,119,1
1,33,0,120
1,36,113,0
1,36,0,60
1,36,103,30
1,36,0,29
1,36,95,61
1,36,0,60
1,38,111,0
1,38,0,240
1,31,117,0
1,31,0,60
1,31,93,30
1,31,0,29
1,31,117,61
1,31,0,60
1,31,105,30
1,31,0,29
1,31,68,31
1,31,0,29
1,31,111,1
1,31,0,60
1,36,107,0
1,36,0,60
1,38,111,0
1,38,0,60
1,38,105,30
1,38,0,29
1,38,107,61
1,38,0,29
1,38,101,61
1,38,0,29
1,38,55,31
1,38,0,29
1,38,95,1
1,38,0,60
1,31,113,0
1,31,0,60
1,33,117,0
1,33,0,60
1,33,98,30
1,33,0,29
1,33,117,61
1,33,0,29
1,33,98,61
1,33,0,29
1,33,91,31
1,33,0,29
1,31,103,1
1,31,0,60
1,33,98,0
1,33,0,60
1,36,115,0
1,36,0,60
1,36,111,30
1,36,0,29
1,36,99,61
1,36,0,60
1,38,111,0
1,38,0,60
1,38,101,30
1,38,0,29
1,38,87,66
1,38,0,44
1,31,109,11
1,31,0,60
1,31,89,30
1,31,0,29
1,31,109,61
1,31,0,29
1,31,97,61
1,31,0,29
1,31,72,31
1,31,0,29
1,31,95,1
1,31,0,60
1,36,101,0
1,36,0,60
1,38,115,0
1,38,0,60
1,38,101,30
1,38,0,29
1,38,105,61
1,38,0,29
1,38,93,61
1,38,0,29
1,38,109,61
1,38,0,60
1,31,105,0
1,31,0,60
1,33,119,0
1,33,0,74
1,33,102,16
1,33,0,29
1,33,115,61
1,33,0,29
1,33,91,61
1,33,0,29
1,33,85,31
1,33,0,29
1,33,119,1
1,33,0,120
1,36,113,0
1,36,0,60
1,36,103,30
1,36,0,29
1,36,95,61
1,36,0,60
1,38,111,0
1,38,0,240
1,31,117,0
1,31,0,60
1,31,93,35
1,31,0,29
1,31,117,56
1,31,0,60
1,31,105,30
1,31,0,29
1,31,68,31
1,31,0,29
1,31,111,1
1,31,0,60
1,36,107,0
1,36,0,60
1,38,111,0
1,38,0,60
1,38,105,30
1,38,0,29
1,38,107,61
1,38,0,29
1,38,101,61
1,38,0,29
1,38,55,31
1,38,0,29
1,38,95,1
1,38,0,60
1,31,113,0
1,31,0,60
1,33,117,0
1,33,0,60
1,33,98,5
1,33,0,29
1,33,117,40
1,33,0,19
1,33,98,61
1,33,0,29
1,33,91,0
1,33,0,29
1,31,103,1
1,31,0,60
1,33,98,0
1,33,0,10
1,36,115,0
1,36,0,41
1,36,111,1
1,36,0,29
1,36,99,1
1,36,0,30
1,38,111,0
1,38,0,60
1,38,101,30
1,38,0,4
1,38,87,0
1,38,0,54
1,31,109,1
1,31,0,41
1,31,89,30
1,31,0,14
1,31,109,20
1,31,0,24
1,31,97,10
1,31,0,29
1,31,72,31
1,31,0,29
1,31,95,1
1,31,0,5
1,36,101,0
1,36,0,30
1,38,115,0
1,38,0,1
1,38,101,30
1,38,0,9
1,38,105,30
1,38,0,14
1,38,93,50
1,38,0,19
1,38,109,5
1,38,0,30
1,31,105,0
1,31,0,35
1,33,119,0
1,33,0,15
1,33,102,0
1,33,0,14
1,33,115,0
1,33,0,9
1,33,91,20
1,33,0,29
1,33,85,10
1,33,0,29
1,33,119,0
1,33,0,25
1,36,113,0
1,36,0,10
1,36,103,5
1,36,0,4
1,36,95,0
1,36,0,21
1,38,111,0
1,38,0,11
2,64,81,10078
2,59,87,0
2,68,92,0
2,64,81,0
2,59,87,0
2,68,92,0
2,59,0,450
2,59,0,0
2,64,0,30
2,64,0,0
2,68,0,0
2,68,0,0
2,59,80,0
2,66,91,0
2,63,91,0
2,59,80,0
2,66,91,0
2,63,91,0
2,59,0,420
2,59,0,0
2,66,0,30
2,66,0,0
2,63,0,30
2,63,0,0
2,61,86,0
2,66,87,0
2,57,68,0
2,61,86,0
2,66,87,0
2,57,68,0
2,57,0,420
2,61,0,0
2,57,0,0
2,61,0,0
2,66,0,60
2,66,0,0
2,61,87,0
2,64,73,0
2,57,78,0
2,61,87,0
2,64,73,0
2,57,78,0
2,57,0,180
2,57,0,0
2,61,0,60
2,61,0,0
2,64,0,0
2,64,0,0
2,59,52,0
2,66,77,0
2,63,86,0
2,59,52,0
2,66,77,0
2,63,86,0
2,63,0,180
2,66,0,0
2,63,0,0
2,59,0,0
2,66,0,0
2,59,0,0
2,68,94,60
2,64,87,0
2,59,83,0
2,68,94,0
2,64,87,0
2,59,83,0
2,59,0,420
2,59,0,0
2,68,0,60
2,68,0,0
2,64,0,0
2,64,0,0
2,66,86,0
2,59,75,0
2,63,94,0
2,66,86,0
2,59,75,0
2,63,94,0
2,59,0,450
2,66,0,0
2,59,0,0
2,66,0,0
2,63,0,30
2,63,0,0
2,57,77,0
2,61,83,0
2,66,89,0
2,57,77,0
2,61,83,0
2,66,89,0
2,61,0,420
2,57,0,0
2,61,0,0
2,57,0,0
2,66,0,60
2,66,0,0
2,64,85,0
2,61,87,0
2,57,83,0
2,64,85,0
2,61,87,0
2,57,83,0
2,57,0,210
2,64,0,0
2,57,0,0
2,64,0,0
2,61,0,30
2,61,0,0
2,59,62,0
2,63,85,0
2,66,83,0
2,59,62,0
2,63,85,0
2,66,83,0
2,66,0,180
2,59,0,0
2,66,0,0
2,59,0,0
2,63,0,30
2,63,0,0
2,64,89,30
2,60,90,0
2,67,97,0
2,64,89,0
2,60,90,0
2,67,97,0
2,60,0,900
2,60,0,0
2,64,0,60
2,64,0,0
2,67,0,0
2,67,0,0
2,66,84,0
2,62,81,0
2,69,81,0
2,66,84,0
2,62,81,0
2,69,81,0
2,69,0,870
2,62,0,0
2,69,0,0
2,66,0,0
2,62,0,0
2,66,0,0
2,64,81,7770
2,59,87,0
2,68,92,0
2,64,81,0
2,59,87,0
2,68,92,0
2,59,0,450
2,59,0,0
2,64,0,30
2,64,0,0
2,68,0,0
2,68,0,0
2,59,80,0
2,66,91,0
2,63,91,0
2,59,80,0
2,66,91,0
2,63,91,0
2,59,0,420
2,59,0,0
2,66,0,30
2,66,0,0
2,63,0,30
2,63,0,0
2,61,86,0
2,66,87,0
2,57,68,0
2,61,86,0
2,66,87,0
2,57,68,0
2,57,0,420
2,61,0,0
2,57,0,0
2,61,0,0
2,66,0,60
2,66,0,0
2,61,87,0
2,64,73,0
2,57,78,0
2,61,87,0
