track,note,velocity,time
1,71,82,960
1,72,106,180
1,71,0,12
1,72,0,168
1,74,97,0
1,74,0,89
1,74,98,31
1,76,98,180
1,74,0,25
1,76,0,266
1,69,81,129
1,71,97,60
1,69,0,1
1,71,0,179
1,72,106,0
1,72,0,92
1,72,102,28
1,74,81,180
1,72,0,3
1,74,0,280
1,71,96,137
1,69,88,60
1,71,0,1
1,69,0,113
1,67,103,6
1,67,0,141
1,71,100,159
1,69,93,60
1,71,0,3
1,69,0,111
1,67,97,6
1,67,0,163
1,71,102,132
1,71,0,95
1,71,96,29
1,76,100,61
1,71,0,17
1,76,0,162
1,76,81,1
1,76,0,58
1,79,102,2
1,79,0,75
1,79,93,44
1,79,0,135
1,81,108,46
1,81,0,89
1,83,96,34
1,83,0,81
1,83,86,37
1,83,0,40
1,83,97,21
1,83,0,73
1,83,87,39
1,83,0,112
1,84,111,74
1,83,88,107
1,84,0,4
1,81,100,61
1,83,0,1
1,81,0,89
1,83,106,16
1,83,0,109
1,81,96,93
1,79,91,95
1,81,0,24
1,79,0,32
1,79,106,17
1,79,0,84
1,79,92,34
1,79,0,124
1,81,112,2
1,81,0,446
1,71,82,102
1,72,106,180
1,71,0,12
1,72,0,168
1,74,97,0
1,74,0,89
1,74,98,31
1,76,98,180
1,74,0,25
1,76,0,266
1,69,81,129
1,71,97,60
1,69,0,1
1,71,0,179
1,72,106,0
1,72,0,92
1,72,102,28
1,74,81,180
1,72,0,3
1,74,0,280
1,71,96,137
1,69,88,60
1,71,0,1
1,69,0,113
1,67,103,6
1,67,0,141
1,71,100,159
1,69,93,60
1,71,0,3
1,69,0,111
1,67,97,6
1,67,0,163
1,71,102,132
1,71,0,95
1,71,96,29
1,76,100,61
1,71,0,17
1,76,0,162
1,76,81,1
1,76,0,58
1,79,102,2
1,79,0,75
1,79,93,44
1,79,0,135
1,81,108,46
1,81,0,89
1,83,96,34
1,83,0,81
1,83,86,37
1,83,0,40
1,83,97,21
1,83,0,73
1,83,87,39
1,83,0,112
1,84,111,74
1,84,0,111
1,83,88,9
1,81,100,60
1,83,0,6
1,81,0,84
1,83,106,30
1,83,0,109
1,81,96,71
1,79,91,95
1,81,0,24
1,79,0,32
1,79,106,17
1,79,0,84
1,79,92,34
1,79,0,118
1,81,111,12
1,81,0,359
1,79,102,5
1,79,0,56
1,81,108,4
1,79,91,60
1,81,0,5
1,79,0,513
1,71,114,1462
1,74,97,120
1,71,0,6
1,74,0,37
1,74,96,17
1,74,0,92
1,79,112,28
1,79,0,85
1,79,91,35
1,79,0,114
1,81,96,6
1,81,0,81
1,81,79,39
1,81,0,179
1,71,106,121
1,74,88,120
1,71,0,11
1,74,0,35
1,74,97,14
1,74,0,86
1,79,91,34
1,79,0,93
1,79,91,27
1,86,112,120
1,79,0,10
1,86,0,70
1,86,92,40
1,86,0,170
1,84,102,10
1,84,0,53
1,84,103,7
1,83,100,120
1,84,0,1
1,83,0,186
1,83,88,113
1,83,0,41
1,83,91,19
1,83,0,98
1,81,86,22
1,81,0,309
1,84,81,231
1,84,0,52
1,84,106,8
1,84,0,38
1,84,112,22
1,84,0,88
1,84,96,32
1,84,0,60
1,83,108,0
1,83,0,82
1,81,102,38
1,81,0,72
1,83,87,48
1,83,0,75
1,81,103,45
1,81,0,56
1,79,111,4
1,79,0,63
1,71,112,57
1,71,0,107
1,74,106,6
1,74,0,52
1,74,85,17
1,74,0,84
1,79,93,22
1,79,0,76
1,79,87,44
1,79,0,103
1,81,102,28
1,81,0,66
1,81,98,47
1,81,0,191
1,71,97,117
1,74,92,108
1,71,0,25
1,74,0,12
1,74,96,25
1,74,0,117
1,79,91,22
1,79,0,83
1,79,87,31
1,79,0,122
1,86,92,10
1,86,0,75
1,86,82,36
1,86,0,131
1,84,106,51
1,84,0,47
1,84,100,17
1,84,0,105
1,83,74,6
1,83,0,198
1,83,100,99
1,83,0,52
1,83,75,14
1,83,0,116
1,81,93,0
1,81,0,236
1,84,127,308
1,84,0,46
1,84,106,13
1,84,0,32
1,84,127,33
1,84,0,76
1,84,112,41
1,84,0,38
1,83,106,17
1,83,0,102
1,81,112,16
1,81,0,70
1,83,112,46
1,83,0,90
1,83,106,24
1,83,0,187
1,81,80,2
1,81,0,47
1,79,86,4
1,79,0,206
1,71,117,1664
1,72,112,188
1,71,0,8
1,74,97,175
1,72,0,8
1,74,0,64
1,74,106,38
1,76,93,181
1,74,0,8
1,76,0,297
1,69,93,115
1,69,0,62
1,71,80,1
1,72,92,180
1,71,0,13
1,72,0,71
1,72,93,25
1,74,88,174
1,72,0,1
1,74,0,359
1,71,86,62
1,71,0,58
1,69,91,6
1,69,0,89
1,67,100,37
1,67,0,176
1,71,124,120
1,71,0,45
1,69,111,16
1,69,0,83
1,67,111,42
1,67,0,161
1,71,91,137
1,71,0,74
1,71,127,43
1,71,0,52
1,76,100,10
1,76,0,180
1,76,87,7
1,76,0,50
1,79,97,10
1,79,0,69
1,79,111,45
1,79,0,180
1,81,106,57
1,81,0,43
1,83,108,12
1,83,0,78
1,83,98,38
1,83,0,35
1,83,106,25
1,83,0,85
1,83,97,30
1,83,0,30
1,83,106,30
1,83,0,36
1,84,100,25
1,84,0,168
1,83,103,15
1,83,0,52
1,81,116,12
1,81,0,123
1,83,112,126
1,83,0,60
1,81,110,6
1,81,0,90
1,79,114,11
1,79,0,40
1,79,117,27
1,79,0,63
1,79,118,62
1,79,0,102
1,81,112,15
1,81,0,357
1,79,116,0
1,81,116,68
1,79,0,8
1,79,116,48
1,81,0,3
1,79,0,537
1,71,118,1443
1,74,100,117
1,71,0,13
1,74,0,41
1,74,96,19
1,74,0,88
1,79,111,15
1,79,0,84
1,79,98,36
1,79,0,118
1,81,93,12
1,81,0,75
1,81,112,36
1,81,0,157
1,71,111,14
1,74,91,111
1,71,0,29
1,74,0,16
1,74,72,23
1,74,0,111
1,79,97,3
1,79,0,78
1,79,74,47
1,79,0,82
1,86,84,47
1,86,0,72
1,86,87,36
1,86,0,137
1,84,91,47
1,84,0,43
1,84,100,16
1,84,0,102
1,83,81,11
1,83,0,178
1,83,100,113
1,83,0,53
1,83,82,13
1,83,0,103
1,81,91,20
1,81,0,381
1,84,118,179
1,84,0,39
1,84,106,21
1,84,0,38
1,84,112,24
1,84,0,82
1,84,98,33
1,84,0,60
1,83,97,4
1,83,0,101
1,81,87,20
1,81,0,89
1,83,102,24
1,83,0,96
1,81,97,30
1,79,96,51
1,81,0,6
1,79,0,50
1,71,114,65
1,74,103,114
1,71,0,13
1,74,0,19
1,74,106,25
1,74,0,100
1,79,91,18
1,79,0,82
1,79,102,46
1,79,0,112
1,81,117,11
1,81,0,63
1,81,106,51
1,81,0,182
1,71,117,114
1,74,103,121
1,71,0,20
1,74,0,16
1,74,96,19
1,74,0,120
1,79,74,6
1,79,0,87
1,79,92,36
1,79,0,111
1,86,92,19
1,86,0,73
1,86,97,34
1,86,0,136
1,84,112,45
1,84,0,44
1,84,100,17
1,84,0,107
1,83,91,14
1,83,0,201
1,83,118,85
1,83,0,58
1,83,98,15
1,83,0,99
1,81,103,26
1,81,0,313
1,84,117,217
1,84,0,47
1,84,106,19
1,84,0,43
1,84,111,20
1,84,0,76
1,84,100,41
1,83,112,66
1,84,0,1
1,83,0,101
1,81,108,11
1,81,0,81
1,83,118,37
1,83,0,71
1,83,91,47
1,81,106,188
1,83,0,4
1,79,111,58
1,81,0,6
1,79,0,837
1,71,127,1022
1,74,102,118
1,71,0,9
1,74,0,35
1,74,117,21
1,74,0,103
1,79,102,9
1,79,0,84
1,79,118,36
1,79,0,119
1,81,118,5
1,81,0,71
1,81,127,35
1,81,0,195
1,71,118,111
1,71,0,95
1,74,93,17
1,74,0,44
1,74,118,29
1,74,0,115
1,79,126,3
1,79,0,81
1,79,102,36
1,86,98,120
1,79,0,2
1,86,0,74
1,86,102,42
1,86,0,171
1,84,112,10
1,84,0,46
1,84,108,18
1,84,0,109
1,83,108,7
1,83,0,216
1,83,127,70
1,83,0,51
1,83,102,17
1,83,0,102
1,81,126,12
1,81,0,507
1,84,118,46
1,84,0,60
1,84,118,0
1,84,0,60
1,84,127,9
1,84,0,83
1,84,96,22
1,84,0,67
1,83,111,4
1,83,0,116
1,81,102,6
1,81,0,115
1,83,98,13
1,83,0,104
1,81,112,12
1,79,100,52
1,81,0,12
1,79,0,61
1,71,121,49
1,74,106,118
1,71,0,12
1,74,0,23
1,74,98,32
1,79,100,116
1,74,0,11
1,79,0,61
1,79,85,40
1,79,0,124
1,81,103,7
1,81,0,73
1,81,96,36
1,81,0,201
1,71,114,101
1,74,106,116
1,71,0,17
1,74,0,24
1,74,112,27
1,74,0,107
1,79,118,12
1,79,0,84
1,79,87,34
1,79,0,117
1,86,87,12
1,86,0,77
1,86,100,33
1,86,0,127
1,84,126,43
1,84,0,49
1,84,103,21
1,84,0,108
1,83,102,22
1,83,0,156
1,83,112,126
1,83,0,56
1,83,98,15
1,83,0,92
1,81,100,30
1,81,0,316
1,84,127,224
1,84,0,44
1,84,98,18
1,84,0,39
1,84,106,18
1,84,0,85
1,84,102,36
1,83,124,67
1,84,0,12
1,83,0,91
1,81,85,1
1,81,0,103
1,83,111,20
1,83,0,81
1,83,93,31
1,81,80,190
1,83,0,12
1,79,80,44
1,81,0,8
1,81,98,405
1,79,0,7
1,83,85,476
1,81,0,10
1,86,82,477
1,83,0,2
1,84,93,229
1,86,0,7
1,84,0,227
1,83,80,15
1,81,70,309
1,83,0,39
1,79,64,13
1,81,0,14
1,81,86,105
1,79,0,8
1,83,68,297
1,81,0,7
1,81,89,44
1,83,0,9
1,81,0,112
1,79,94,3
1,76,73,353
1,79,0,7
1,76,0,112
1,74,80,0
1,74,0,481
1,79,104,3
1,81,84,490
1,79,0,8
1,81,0,472
1,83,81,1
1,86,66,473
1,83,0,14
1,84,83,235
1,86,0,6
1,83,83,211
1,84,0,7
1,81,76,306
1,83,0,10
1,79,65,44
1,81,0,11
1,81,81,112
1,79,0,9
1,81,0,286
1,83,72,1
1,81,76,63
1,83,0,7
1,81,0,108
1,79,75,5
1,79,0,360
1,76,63,3
1,76,0,118
1,74,59,3
1,74,0,384
2,74,49,18838
2,79,49,0
2,79,0,60
2,74,0,0
2,74,49,0
2,79,49,0
2,79,0,120
2,74,0,0
2,74,49,0
2,79,49,0
2,79,0,187
2,74,0,0
2,79,49,113
2,74,49,0
2,74,0,60
2,79,0,0
2,79,49,0
2,74,49,0
2,74,0,120
2,79,0,0
2,78,49,0
2,74,49,0
2,74,0,309
2,78,0,0
2,74,49,2871
2,79,49,0
2,79,0,60
2,74,0,0
2,74,49,0
2,79,49,0
2,79,0,120
2,74,0,0
2,74,49,0
2,79,49,0
2,79,0,187
2,74,0,0
2,79,49,113
2,74,49,0
2,74,0,60
2,79,0,0
2,79,49,0
2,74,49,0
2,74,0,120
2,79,0,0
2,78,49,0
2,74,49,0
2,74,0,309
2,78,0,0
2,74,49,12471
2,79,49,0
2,79,0,60
2,74,0,0
2,74,49,0
2,79,49,0
2,79,0,120
2,74,0,0
2,74,49,0
2,79,49,0
2,79,0,187
2,74,0,0
2,79,49,113
2,74,49,0
2,74,0,60
2,79,0,0
2,79,49,0
2,74,49,0
2,74,0,120
2,79,0,0
2,78,49,0
2,74,49,0
2,74,0,309
2,78,0,0
2,74,49,2871
2,79,49,0
2,79,0,60
2,74,0,0
2,74,49,0
2,79,49,0
2,79,0,120
2,74,0,0
2,74,49,0
2,79,49,0
2,79,0,187
2,74,0,0
2,79,49,113
2,74,49,0
2,74,0,60
2,79,0,0
2,79,49,0
2,74,49,0
2,74,0,120
2,79,0,0
2,78,49,0
2,74,49,0
2,74,0,309
2,78,0,0
2,74,49,4791
2,79,49,0
2,79,0,60
2,74,0,0
2,74,49,0
2,79,49,0
2,79,0,120
2,74,0,0
2,74,49,0
2,79,49,0
2,79,0,187
2,74,0,0
2,79,49,113
2,74,49,0
2,74,0,60
2,79,0,0
2,79,49,0
2,74,49,0
2,74,0,120
2,79,0,0
2,78,49,0
2,74,49,0
2,74,0,309
2,78,0,0
2,74,49,2871
2,79,49,0
2,79,0,60
2,74,0,0
2,74,49,0
2,79,49,0
2,79,0,120
2,74,0,0
2,74,49,0
2,79,49,0
2,79,0,187
2,74,0,0
2,79,49,113
2,74,49,0
2,74,0,60
2,79,0,0
2,79,49,0
2,74,49,0
2,74,0,120
2,79,0,0
2,78,49,0
2,74,49,0
2,74,0,309
2,78,0,0
3,43,54,972
3,50,57,60
3,55,64,60
3,60,80,60
3,59,46,180
3,60,0,9
3,43,0,19
3,50,0,6
3,55,0,17
3,59,0,65
3,55,70,124
3,57,65,60
3,55,0,154
3,59,68,26
3,57,0,16
3,59,0,67
3,43,65,37
3,50,70,60
3,55,46,60
3,60,84,60
3,50,0,94
3,43,0,14
3,55,0,16
3,59,73,56
3,60,0,8
3,59,0,52
3,55,61,180
3,57,82,60
3,55,0,21
3,59,81,159
3,57,0,8
3,62,15,52
3,59,0,15
3,62,0,38
3,71,79,0
3,71,0,59
3,62,40,1
3,62,0,59
3,67,43,1
3,67,0,59
3,72,73,1
3,72,0,59
3,62,45,1
3,62,0,59
3,67,45,1
3,67,0,59
3,74,73,1
3,74,0,59
3,74,70,61
3,74,0,60
3,64,49,0
3,64,0,60
3,67,49,0
3,67,0,60
3,72,70,0
3,72,0,60
3,71,56,60
3,71,0,60
3,69,56,0
3,69,0,60
3,67,56,0
3,67,0,60
3,69,73,0
3,69,0,59
3,62,44,1
3,62,0,59
3,66,44,1
3,66,0,59
3,71,73,1
3,71,0,59
3,62,37,1
3,62,0,59
3,66,37,1
3,66,0,59
3,72,73,1
3,72,0,59
3,66,73,1
3,66,0,59
3,72,73,1
3,72,0,59
3,62,56,1
3,62,0,59
3,67,56,1
3,67,0,59
3,74,66,1
3,74,0,59
3,69,73,61
3,69,0,59
3,67,73,1
3,67,0,59
3,66,95,1
3,66,0,59
3,67,84,1
3,67,0,59
3,59,73,1
3,59,0,59
3,64,73,1
3,64,0,59
3,71,73,1
3,71,0,59
3,69,73,61
3,69,0,59
3,67,73,1
3,67,0,59
3,66,73,1
3,66,0,59
3,67,73,1
3,67,0,59
3,59,73,1
3,59,0,59
3,63,73,1
3,63,0,59
3,71,73,1
3,71,0,59
3,69,73,61
3,69,0,59
3,67,73,1
3,67,0,59
3,66,73,1
3,66,0,59
3,67,73,1
3,67,0,59
3,59,73,1
3,59,0,59
3,62,73,1
3,62,0,59
3,67,73,1
3,67,0,59
3,69,73,61
3,69,0,59
3,67,73,1
3,67,0,59
3,66,73,1
3,66,0,59
3,67,73,1
3,67,0,59
3,63,73,1
3,63,0,59
3,67,73,1
3,67,0,59
3,71,73,1
3,71,0,59
3,69,73,61
3,69,0,59
3,67,73,1
3,67,0,59
3,66,73,1
3,66,0,59
3,67,73,1
3,67,0,59
3,59,56,1
3,59,0,59
3,62,56,1
3,62,0,59
3,67,56,1
3,67,0,59
3,69,56,61
3,69,0,59
3,67,56,1
3,67,0,59
3,66,56,1
3,66,0,59
3,67,56,1
3,67,0,59
3,63,56,1
3,63,0,59
3,67,56,1
3,67,0,59
3,71,56,1
3,71,0,59
3,69,56,61
3,69,0,59
3,67,56,1
3,67,0,59
3,66,56,1
3,66,0,59
3,67,56,1
3,67,0,59
3,59,56,1
3,59,0,59
3,64,56,1
3,64,0,59
3,67,56,1
3,67,0,59
3,65,73,241
3,65,0,59
3,71,79,421
3,71,0,59
3,62,40,1
3,62,0,59
3,67,43,1
3,67,0,59
3,72,73,1
3,72,0,59
3,62,45,1
3,62,0,59
3,67,45,1
3,67,0,59
3,74,73,1
3,74,0,59
3,74,70,61
3,74,0,60
3,64,49,0
3,64,0,60
3,67,49,0
3,67,0,60
3,72,70,0
3,72,0,60
3,71,56,60
3,71,0,60
3,69,56,0
3,69,0,60
3,67,56,0
3,67,0,60
3,69,73,0
3,69,0,59
3,62,44,1
3,62,0,59
