track,note,velocity,time
3,55,67,4260
3,55,0,51
3,59,93,2
3,62,91,61
3,59,0,6
3,62,0,41
3,62,91,16
3,62,0,42
3,62,75,17
3,62,0,290
3,64,83,1
3,64,0,56
3,62,77,9
3,62,0,42
3,62,77,19
3,62,0,40
3,62,75,21
3,64,91,188
3,62,0,9
3,66,77,46
3,64,0,4
3,66,0,43
3,67,97,10
3,67,0,58
3,66,107,0
3,64,83,60
3,66,0,1
3,64,0,41
3,64,91,21
3,64,0,121
3,67,77,0
3,67,0,117
3,59,71,1
3,62,79,124
3,59,0,14
3,62,0,37
3,59,73,4
3,59,0,45
3,59,79,17
3,64,93,178
3,59,0,2
3,64,0,53
3,66,77,3
3,67,93,61
3,66,0,4
3,67,0,57
3,66,33,0
3,66,0,55
3,64,91,0
3,64,0,41
3,64,93,24
3,67,79,115
3,64,0,3
3,59,75,124
3,67,0,4
3,62,79,124
3,59,0,6
3,62,0,40
3,59,75,1
3,59,0,46
3,59,71,19
3,62,77,182
3,59,0,9
3,62,0,49
3,59,67,4
3,57,73,113
3,59,0,4
3,57,0,326
3,62,103,518
3,62,0,56
3,64,83,1
3,62,87,60
3,64,0,2
3,62,0,39
3,62,91,20
3,62,0,52
3,64,87,7
3,64,0,119
3,62,79,1
3,62,0,103
3,62,83,17
3,59,87,55
3,62,0,2
3,62,91,65
3,59,0,7
3,64,91,50
3,62,0,2
3,64,0,51
3,62,93,8
3,62,0,146
3,64,91,42
3,66,103,60
3,64,0,3
3,66,0,49
3,67,97,4
3,66,87,58
3,67,0,7
3,64,91,48
3,66,0,2
3,64,0,44
3,64,87,21
3,67,91,119
3,64,0,2
3,67,0,115
3,59,73,2
3,62,93,120
3,59,0,7
3,62,0,43
3,59,77,12
3,59,0,175
3,64,107,64
3,66,91,55
3,64,0,5
3,67,107,52
3,66,0,5
3,66,93,51
3,67,0,9
3,66,0,48
3,64,118,0
3,64,0,47
3,64,103,18
3,67,91,115
3,64,0,9
3,67,0,108
3,69,97,5
3,71,107,129
3,69,0,7
3,71,0,102
3,67,87,7
3,67,0,234
3,64,107,2
3,69,97,64
3,64,0,15
3,71,93,101
3,69,0,4
3,67,91,59
3,71,0,1
3,67,0,182
3,64,91,0
3,64,0,61
3,69,107,0
3,69,0,293
3,67,107,489
3,69,91,77
3,67,0,1
3,69,0,73
3,67,75,0
3,67,0,81
3,71,91,2
3,71,0,602
3,67,87,5
3,67,0,49
3,67,91,13
3,69,91,118
3,67,0,2
3,66,77,113
3,69,0,2
3,66,0,124
3,62,87,2
3,62,0,114
3,64,97,0
3,67,93,118
3,64,0,7
3,69,93,115
3,67,0,8
3,71,87,120
3,69,0,1
3,71,0,107
3,67,75,5
3,69,91,118
3,67,0,5
3,67,83,45
3,69,0,1
3,67,0,64
3,71,87,5
3,74,57,232
3,71,0,18
3,71,61,39
3,74,0,6
3,71,0,283
3,67,97,86
3,67,0,91
3,67,93,25
3,69,91,116
3,67,0,4
3,66,75,49
3,69,0,8
3,62,73,134
3,66,0,4
3,64,93,102
3,62,0,3
3,64,0,240
3,69,115,0
3,71,103,126
3,69,0,1
3,71,0,113
3,67,103,4
3,69,91,117
3,67,0,5
3,69,0,49
3,67,91,0
3,67,0,63
3,71,91,6
3,71,0,455
3,66,97,393
3,66,0,88
3,66,107,22
3,67,93,128
3,66,0,7
3,67,0,80
3,67,115,15
3,69,107,125
3,67,0,1
3,71,118,118
3,69,0,4
3,72,97,125
3,71,0,3
3,71,93,18
3,72,0,12
3,69,93,8
3,71,0,2
3,69,0,296
3,66,107,74
3,66,0,103
3,67,97,8
3,67,0,52
3,67,107,16
3,69,103,118
3,67,0,3
3,71,97,124
3,69,0,2
3,71,0,110
3,71,93,16
3,71,0,105
3,74,91,4
3,74,0,109
3,67,103,6
3,67,0,114
3,67,107,20
3,67,0,40
3,66,107,17
3,66,0,112
3,67,91,2
3,67,0,51
3,67,97,15
3,69,97,172
3,67,0,5
3,69,0,36
3,71,107,22
3,72,91,124
3,71,0,2
3,71,115,14
3,72,0,8
3,69,103,10
3,71,0,2
3,67,91,73
3,69,0,11
3,66,77,131
3,67,0,6
3,69,91,44
3,66,0,5
3,67,97,62
3,69,0,3
3,67,0,671
3,55,91,1241
3,55,0,49
3,59,73,4
3,62,93,61
3,59,0,5
3,62,0,40
3,62,93,17
3,62,0,42
3,62,93,16
3,64,91,296
3,62,0,1
3,64,0,59
3,62,87,3
3,64,91,55
3,62,0,3
3,62,91,54
3,64,0,3
3,64,107,193
3,62,0,12
3,64,0,6
3,64,91,13
3,66,121,25
3,64,0,3
3,67,103,50
3,66,0,6
3,66,107,51
3,67,0,6
3,64,93,50
3,66,0,3
3,64,0,45
3,64,93,18
3,67,83,117
3,64,0,7
3,59,91,123
3,67,0,1
3,59,0,112
3,62,79,4
3,59,87,64
3,62,0,1
3,59,0,189
3,64,121,50
3,66,115,57
3,64,0,3
3,67,103,55
3,66,0,3
3,66,115,57
3,67,0,10
3,64,118,44
3,66,0,1
3,64,0,49
3,64,107,14
3,67,115,121
3,64,0,12
3,67,0,101
3,69,103,7
3,71,107,121
3,69,0,5
3,71,0,108
3,67,97,3
3,67,0,239
3,64,93,1
3,64,0,61
3,69,118,26
3,69,0,56
3,69,118,13
3,69,0,63
3,71,67,1
3,67,107,88
3,71,0,4
3,67,0,172
3,64,83,1
3,64,0,52
3,69,103,6
3,67,122,248
3,69,0,6
3,67,0,66
3,69,121,6
3,69,0,63
3,67,115,3
3,67,0,79
3,71,121,6
3,71,0,595
3,67,118,8
3,67,0,49
3,67,115,14
3,69,115,114
3,67,0,2
3,66,115,122
3,69,0,3
3,66,0,119
3,62,107,0
3,64,93,118
3,62,0,4
3,67,93,114
3,64,0,8
3,69,107,112
3,67,0,10
3,71,93,123
3,69,0,3
3,71,0,108
3,67,115,2
3,69,97,198
3,67,0,6
3,67,107,29
3,69,0,8
3,67,0,32
3,71,103,11
3,74,103,361
3,71,0,19
3,71,91,34
3,74,0,5
3,71,0,167
3,67,115,35
3,67,0,52
3,67,115,14
3,67,0,104
3,69,97,5
3,66,115,113
3,69,0,2
3,66,0,124
3,62,115,2
3,62,0,107
3,64,103,3
3,64,0,235
3,69,121,9
3,69,0,122
3,71,103,5
3,71,0,108
3,67,107,6
3,69,107,126
3,67,0,4
3,69,0,43
3,67,107,0
3,67,0,59
3,71,107,11
3,71,0,472
3,67,97,426
3,67,0,100
3,67,97,15
3,67,0,49
3,67,118,14
3,67,0,93
3,67,115,17
3,69,118,137
3,67,0,1
3,71,107,108
3,69,0,2
3,72,93,130
3,71,0,2
3,71,97,21
3,72,0,6
3,69,103,14
3,71,0,16
3,69,0,341
3,66,118,19
3,66,0,45
3,67,107,12
3,67,0,104
3,67,118,18
3,69,118,124
3,67,0,4
3,69,0,108
3,71,121,9
3,71,0,108
3,71,118,17
3,71,0,99
3,74,118,4
3,74,0,100
3,67,97,2
3,67,0,197
3,66,115,4
3,66,0,59
3,67,103,3
3,67,0,97
3,67,97,23
3,69,103,122
3,67,0,9
3,69,0,115
3,71,103,2
3,69,103,104
3,71,0,1
3,69,0,12
3,71,93,2
3,69,93,8
3,71,0,12
3,69,0,77
3,67,107,6
3,66,87,133
3,67,0,9
3,69,87,44
3,66,0,1
3,67,91,63
3,69,0,1
3,67,0,463
3,66,115,1453
3,66,0,40
3,66,73,14
3,66,0,122
3,67,118,2
3,67,0,45
3,67,118,16
3,74,103,113
3,67,0,1
3,71,118,121
3,74,0,5
3,72,115,120
3,71,0,4
3,71,118,20
3,72,0,5
3,71,0,13
3,69,115,1
3,69,0,243
3,67,125,77
3,67,0,47
3,76,121,8
3,76,0,53
3,74,122,8
3,74,0,47
3,72,121,8
3,72,0,55
3,71,121,8
3,71,0,168
3,72,121,9
3,72,0,52
3,71,118,5
3,71,0,174
3,71,118,15
3,71,0,36
3,71,115,13
3,71,0,30
3,64,115,2
3,64,0,20
3,67,121,10
3,67,122,190
3,67,0,4
3,67,0,37
3,66,121,20
3,66,0,96
3,67,121,16
3,67,0,50
3,67,122,18
3,69,121,127
3,67,0,6
3,69,0,98
3,72,121,3
3,71,118,119
3,72,0,2
3,71,0,12
3,72,93,1
3,71,118,10
3,72,0,3
3,69,107,16
3,71,0,14
3,67,107,65
3,69,0,3
3,66,107,127
3,67,0,12
3,66,0,34
3,69,115,5
3,67,118,66
3,69,0,3
3,67,0,10
3,69,115,4
3,67,107,10
3,69,0,10
3,76,103,556
3,67,0,24
3,74,97,43
3,76,0,10
3,72,93,28
3,74,0,6
3,71,103,36
3,72,0,3
3,71,0,270
3,67,93,186
3,66,91,229
3,67,0,11
3,64,87,19
3,66,0,10
3,62,75,17
3,64,0,1
3,62,0,361
3,64,97,77
3,64,0,20
3,67,107,38
3,67,0,28
3,64,107,31
3,64,0,17
3,67,91,13
3,67,0,37
3,67,83,39
3,67,0,29
3,64,83,5
3,62,75,36
3,64,0,4
3,62,0,315
3,67,107,56
3,67,0,49
3,69,87,7
3,69,0,204
3,67,65,3
3,67,0,32
3,71,77,16
3,69,91,672
3,71,0,7
3,69,0,8
3,67,53,2
3,69,93,10
3,67,0,1
3,67,55,20
3,69,0,7
3,67,0,226
3,69,75,0
3,69,0,48
3,67,83,7
3,66,79,235
3,67,0,2
3,66,0,68
3,67,63,3
3,69,69,72
3,67,0,1
3,67,79,55
3,69,0,1
3,67,0,12
3,69,71,5
3,67,71,9
3,69,0,14
3,67,0,755
4,55,67,4260
4,55,0,51
4,59,93,2
4,62,91,61
4,59,0,6
4,62,0,41
4,62,91,16
4,62,0,42
4,62,75,17
4,62,0,290
4,64,83,1
4,64,0,56
4,62,77,9
4,62,0,42
4,62,77,19
4,62,0,40
4,62,75,21
4,64,91,188
4,62,0,9
4,66,77,46
4,64,0,4
4,66,0,43
4,67,97,10
4,67,0,58
4,66,107,0
4,64,83,60
4,66,0,1
4,64,0,41
4,64,91,21
4,64,0,121
4,67,77,0
4,67,0,117
4,59,71,1
4,62,79,124
4,59,0,14
4,62,0,37
4,59,73,4
4,59,0,45
4,59,79,17
4,64,93,178
4,59,0,2
4,64,0,53
4,66,77,3
4,67,93,61
4,66,0,4
4,67,0,57
4,66,33,0
4,66,0,55
4,64,91,0
4,64,0,41
4,64,93,24
4,67,79,115
4,64,0,3
4,59,75,124
4,67,0,4
4,62,79,124
4,59,0,6
4,62,0,40
4,59,75,1
4,59,0,46
4,59,71,19
4,62,77,182
4,59,0,9
4,62,0,49
4,59,67,4
4,57,73,113
4,59,0,4
4,57,0,326
4,62,103,518
4,62,0,56
4,64,83,1
4,62,87,60
4,64,0,2
4,62,0,39
4,62,91,20
4,62,0,52
4,64,87,7
4,64,0,119
4,62,79,1
4,62,0,103
4,62,83,17
4,59,87,55
4,62,0,2
4,62,91,65
4,59,0,7
4,64,91,50
4,62,0,2
4,64,0,51
4,62,93,8
4,62,0,146
4,64,91,42
4,66,103,60
4,64,0,3
4,66,0,49
4,67,97,4
4,66,87,58
4,67,0,7
4,64,91,48
4,66,0,2
4,64,0,44
4,64,87,21
4,67,91,119
4,64,0,2
4,67,0,115
4,59,73,2
4,62,93,120
4,59,0,7
4,62,0,43
4,59,77,12
4,59,0,175
4,64,107,64
4,66,91,55
4,64,0,5
4,67,107,52
4,66,0,5
4,66,93,51
4,67,0,9
4,66,0,48
4,64,118,0
4,64,0,47
4,64,103,18
4,67,91,115
4,64,0,9
4,67,0,108
4,69,97,5
4,71,107,129
4,69,0,7
4,71,0,102
4,67,87,7
4,67,0,234
4,64,107,2
4,69,97,64
4,64,0,15
4,71,93,101
4,69,0,4
4,67,91,59
4,71,0,1
4,67,0,182
4,64,91,0
4,64,0,61
4,69,107,0
4,69,0,293
4,67,107,489
4,69,91,77
4,67,0,1
4,69,0,73
4,67,75,0
4,67,0,81
4,71,91,2
4,71,0,602
4,67,87,5
4,67,0,49
4,67,91,13
4,69,91,118
4,67,0,2
4,66,77,113
4,69,0,2
4,66,0,124
4,62,87,2
4,62,0,114
4,64,97,0
4,67,93,118
4,64,0,7
4,69,93,115
4,67,0,8
4,71,87,120
4,69,0,1
4,71,0,107
4,67,75,5
4,69,91,118
4,67,0,5
4,67,83,45
4,69,0,1
4,67,0,64
4,71,87,5
4,74,57,232
4,71,0,18
4,71,61,39
4,74,0,6
4,71,0,283
4,67,97,86
4,67,0,91
4,67,93,25
4,69,91,116
4,67,0,4
4,66,75,49
4,69,0,8
4,62,73,134
4,66,0,4
4,64,93,102
4,62,0,3
4,64,0,240
4,69,115,0
4,71,103,126
4,69,0,1
4,71,0,113
4,67,103,4
4,69,91,117
4,67,0,5
4,69,0,49
4,67,91,0
4,67,0,63
4,71,91,6
4,71,0,455
4,66,97,393
4,66,0,88
4,66,107,22
4,67,93,128
4,66,0,7
4,67,0,80
4,67,115,15
4,69,107,125
4,67,0,1
4,71,118,118
4,69,0,4
4,72,97,125
4,71,0,3
4,71,93,18
4,72,0,12
4,69,93,8
4,71,0,2
4,69,0,296
4,66,107,74
4,66,0,103
4,67,97,8
4,67,0,52
4,67,107,16
4,69,103,118
4,67,0,3
4,71,97,124
4,69,0,2
4,71,0,110
4,71,93,16
4,71,0,105
4,74,91,4
4,74,0,109
4,67,103,6
4,67,0,114
4,67,107,20
4,67,0,40
4,66,107,17
4,66,0,112
4,67,91,2
4,67,0,51
4,67,97,15
4,69,97,172
4,67,0,5
4,69,0,36
4,71,107,22
4,72,91,124
4,71,0,2
4,71,115,14
4,72,0,8
4,69,103,10
4,71,0,2
4,67,91,73
4,69,0,11
4,66,77,131
4,67,0,6
4,69,91,44
4,66,0,5
4,67,97,62
4,69,0,3
4,67,0,671
4,55,91,1241
4,55,0,49
4,59,73,4
4,62,93,61
4,59,0,5
4,62,0,40
4,62,93,17
4,62,0,42
4,62,93,16
4,64,91,296
4,62,0,1
4,64,0,59
4,62,87,3
4,64,91,55
4,62,0,3
4,62,91,54
4,64,0,3
4,64,107,193
4,62,0,12
4,64,0,6
4,64,91,13
4,66,121,25
4,64,0,3
4,67,103,50
4,66,0,6
4,66,107,51
4,67,0,6
4,64,93,50
4,66,0,3
4,64,0,45
4,64,93,18
4,67,83,117
4,64,0,7
4,59,91,123
4,67,0,1
4,59,0,112
4,62,79,4
4,59,87,64
4,62,0,1
4,59,0,189
4,64,121,50
4,66,115,57
4,64,0,3
4,67,103,55
4,66,0,3
4,66,115,57
4,67,0,10
4,64,118,44
4,66,0,1
4,64,0,49
4,64,107,14
4,67,115,121
4,64,0,12
4,67,0,101
4,69,103,7
4,71,107,121
4,69,0,5
4,71,0,108
4,67,97,3
4,67,0,239
4,64,93,1
4,64,0,61
4,69,118,26
4,69,0,56
4,69,118,13
4,69,0,63
4,71,67,1
4,67,107,88
4,71,0,4
4,67,0,172
4,64,83,1
4,64,0,52
4,69,103,6
4,67,122,248
4,69,0,6
4,67,0,66
4,69,121,6
4,69,0,63
4,67,115,3
4,67,0,79
4,71,121,6
4,71,0,595
4,67,118,8
4,67,0,49
4,67,115,14
4,69,115,114
4,67,0,2
4,66,115,122
4,69,0,3
4,66,0,119
4,62,107,0
4,64,93,118
4,62,0,4
4,67,93,114
4,64,0,8
4,69,107,112
4,67,0,10
4,71,93,123
4,69,0,3
4,71,0,108
4,67,115,2
4,69,97,198
4,67,0,6
4,67,107,29
4,69,0,8
4,67,0,32
4,71,103,11
4,74,103,361
4,71,0,19
4,71,91,34
4,74,0,5
4,71,0,167
4,67,115,35
4,67,0,52
4,67,115,14
4,67,0,104
4,69,97,5
4,66,115,113
4,69,0,2
4,66,0,124
4,62,115,2
4,62,0,107
4,64,103,3
4,64,0,235
4,69,121,9
4,69,0,122
4,71,103,5
4,71,0,108
4,67,107,6
4,69,107,126
4,67,0,4
4,69,0,43
4,67,107,0
4,67,0,59
4,71,107,11
4,71,0,472
4,67,97,426
4,67,0,100
4,67,97,15
4,67,0,49
4,67,118,14
4,67,0,93
4,67,115,17
4,69,118,137
