track,note,velocity,time
1,41,61,1090
1,57,73,11
1,65,73,2
1,60,73,1
1,43,61,756
1,58,73,9
1,67,73,1
1,62,73,1
1,41,61,709
1,57,73,11
1,65,73,2
1,60,73,1
1,43,61,722
1,58,73,9
1,67,73,1
1,62,73,1
1,50,61,709
1,57,73,7
1,65,73,2
1,62,73,1
1,43,61,722
1,58,73,6
1,67,73,1
1,62,73,1
1,48,61,709
1,64,73,7
1,67,73,2
1,60,73,1
1,45,61,0
1,57,73,4
1,64,73,1
1,60,73,1
1,46,61,342
1,58,73,9
1,65,73,1
1,62,73,1
1,50,61,7
1,57,73,6
1,65,73,2
1,62,73,1
1,43,61,722
1,58,73,6
1,67,73,1
1,62,73,1
1,48,61,709
1,64,73,7
1,67,73,2
1,60,73,1
1,45,61,0
1,57,73,4
1,64,73,1
1,60,73,1
1,46,61,342
1,58,73,9
1,65,73,1
1,62,73,1
1,43,61,4
1,58,73,9
1,67,73,2
1,62,73,1
1,48,61,722
1,60,73,7
1,67,73,1
1,64,73,1
1,43,61,709
1,58,73,11
1,65,73,2
1,62,73,1
1,48,61,722
1,60,73,9
1,67,73,1
1,64,73,1
1,50,61,346
1,52,61,174
1,41,61,4
1,60,73,11
1,65,73,2
1,69,73,1
1,46,61,3
1,72,73,1
1,62,73,8
1,70,73,1
1,65,73,1
1,48,61,334
1,64,73,7
1,72,73,2
1,67,73,1
1,50,61,358
1,52,61,168
1,53,61,170
1,60,73,11
1,65,73,2
1,69,73,1
1,45,61,2
1,60,73,6
1,69,73,1
1,64,73,1
1,46,61,345
1,62,73,11
1,65,73,2
1,70,73,1
1,64,73,346
1,72,73,1
1,67,73,1
1,48,61,10
1,41,61,338
1,60,73,11
1,65,73,2
1,69,73,1
1,46,61,3
1,72,73,1
1,62,73,8
1,70,73,1
1,65,73,1
1,50,61,164
1,48,61,148
1,64,73,7
1,72,73,2
1,67,73,1
1,43,61,719
1,62,73,5
1,67,73,2
1,70,73,1
1,45,61,186
1,46,61,0
1,62,73,10
1,72,73,1
1,65,73,1
1,70,73,1
1,41,61,3
1,57,73,11
1,65,73,2
1,60,73,1
1,43,61,729
1,58,73,9
1,67,73,1
1,62,73,1
1,50,61,6
1,57,73,11
1,65,73,2
1,62,73,1
1,43,61,722
1,58,73,6
1,67,73,1
1,62,73,1
1,48,61,709
1,64,73,7
1,67,73,2
1,60,73,1
1,45,61,0
1,57,73,4
1,64,73,1
1,60,73,1
1,67,73,7
1,46,61,345
1,58,73,9
1,65,73,1
1,62,73,1
1,50,61,7
1,57,73,6
1,65,73,2
1,62,73,1
1,43,61,722
1,58,73,6
1,67,73,1
1,62,73,1
1,48,61,709
1,64,73,7
1,67,73,2
1,60,73,1
1,45,61,0
1,57,73,4
1,64,73,1
1,67,73,0
1,60,73,1
1,46,61,345
1,58,73,9
1,65,73,1
1,62,73,1
1,43,61,4
1,70,73,9
1,67,73,2
1,62,73,1
1,48,61,722
1,72,73,7
1,67,73,1
1,64,73,1
1,43,61,2
1,70,73,11
1,65,73,2
1,74,73,1
1,48,61,722
1,72,73,9
1,67,73,1
1,76,73,1
1,50,61,346
1,52,61,174
1,41,61,160
1,60,73,11
1,65,73,2
1,69,73,1
1,46,61,3
1,72,73,1
1,62,73,8
1,70,73,1
1,65,73,1
1,50,61,164
1,48,61,158
1,64,73,7
1,72,73,2
1,67,73,1
1,50,61,358
1,52,61,168
1,53,61,170
1,60,73,11
1,65,73,2
1,69,73,1
1,45,61,2
1,60,73,6
1,69,73,1
1,72,73,0
1,64,73,1
1,46,61,345
1,62,73,11
1,65,73,2
1,70,73,1
1,64,73,346
1,72,73,1
1,67,73,1
1,48,61,10
1,55,61,168
1,41,61,140
1,60,73,11
1,65,73,2
1,69,73,1
1,46,61,3
1,72,73,1
1,62,73,8
1,70,73,1
1,65,73,1
1,50,61,164
1,48,61,148
1,64,73,7
1,72,73,2
1,67,73,1
1,43,61,719
1,62,73,5
1,67,73,2
1,70,73,1
1,65,73,537
1,69,73,2
1,60,73,1
1,45,61,7
1,46,61,139
1,62,73,0
1,72,73,1
1,65,73,1
1,70,73,1
1,50,61,3
1,69,73,11
1,65,73,2
1,62,73,1
1,43,61,729
1,70,73,6
1,67,73,1
1,62,73,1
1,50,61,709
1,65,73,7
1,69,73,2
1,62,73,1
1,43,61,5
1,67,73,10
1,62,73,1
1,70,73,7
1,43,61,2
1,58,73,11
1,67,73,2
1,62,73,1
1,45,61,285
1,65,73,82
1,46,61,13
1,48,61,348
1,60,73,6
1,67,73,1
1,64,73,1
1,43,61,5
1,72,73,3
1,69,73,2
1,65,73,0
1,45,61,262
1,70,73,84
1,67,73,1
1,62,73,1
1,46,61,1
1,62,73,10
1,74,73,2
1,65,73,6
1,50,61,1
1,69,73,0
1,48,61,149
1,67,73,10
1,72,73,0
1,64,73,1
1,53,61,2200
1,60,73,11
1,65,73,2
1,69,73,1
1,45,61,2
1,60,73,6
1,72,73,1
1,69,73,0
1,64,73,1
1,46,61,345
1,62,73,11
1,65,73,2
1,70,73,1
1,64,73,346
1,72,73,1
1,67,73,1
1,48,61,10
1,55,61,168
1,41,61,140
1,60,73,11
1,65,73,2
1,69,73,1
1,46,61,3
1,72,73,1
1,62,73,8
1,70,73,1
1,65,73,1
1,50,61,164
1,48,61,148
1,64,73,7
1,72,73,2
1,67,73,1
1,43,61,719
1,62,73,5
1,67,73,2
1,70,73,1
1,65,73,4
1,69,73,2
1,60,73,1
1,45,61,7
1,46,61,49
1,62,73,0
1,72,73,1
1,65,73,1
1,70,73,1
1,41,61,3
1,60,73,8
1,65,73,2
1,69,73,1
1,46,61,3
1,72,73,1
1,62,73,8
1,70,73,1
1,65,73,1
1,50,61,82
1,48,61,48
1,64,73,7
1,72,73,2
1,67,73,1
1,50,61,15
1,52,61,35
1,53,61,37
1,60,73,5
1,65,73,2
1,69,73,1
1,45,61,2
1,60,73,4
1,69,73,1
1,72,73,0
1,64,73,1
1,46,61,3
1,62,73,11
1,65,73,2
1,70,73,1
1,64,73,5
1,72,73,1
1,67,73,1
1,48,61,10
1,55,61,9
1,41,61,10
1,60,73,11
1,65,73,2
1,69,73,1
1,46,61,3
1,72,73,1
1,62,73,8
1,70,73,1
1,65,73,1
1,50,61,20
1,48,61,25
1,64,73,7
1,72,73,2
1,67,73,1
1,43,61,68
1,62,73,3
1,67,73,2
1,70,73,1
1,65,73,40
1,69,73,2
1,60,73,1
1,45,61,6
1,46,61,2
1,62,73,0
1,72,73,1
1,65,73,1
1,70,73,1
2,36,93,13134
2,38,93,36
2,40,93,39
2,41,93,39
2,33,93,35
2,34,93,21
2,36,93,24
2,36,93,35
2,38,93,21
2,40,93,39
2,41,93,39
2,41,93,35
2,33,93,21
2,34,93,24
2,34,93,35
2,36,93,21
2,41,93,24
2,33,93,35
2,34,93,21
2,38,93,22
2,36,93,35
2,36,93,35
2,36,93,21
2,31,93,41
2,31,93,35
2,31,93,21
2,33,93,22
2,34,93,35
2,41,93,38
2,33,93,35
2,36,83,10
2,41,93,4
2,43,93,24
2,43,93,41
2,38,100,31
2,38,100,34
2,33,89,38
2,38,100,3
2,38,100,11
2,33,100,22
2,31,100,11
2,31,100,34
2,26,89,38
2,31,100,3
2,38,100,18
2,36,100,11
2,36,100,34
2,31,89,38
2,36,100,3
2,36,100,11
2,36,100,22
2,34,100,11
2,33,100,7
2,33,100,35
2,34,100,11
2,38,100,34
2,38,100,34
2,33,89,38
2,38,100,3
2,38,100,62
2,33,100,22
2,31,100,11
2,31,100,34
2,31,100,21
2,31,100,18
2,38,100,16
2,36,100,6
2,36,100,34
2,31,89,38
2,36,100,3
2,36,100,11
2,36,100,22
2,34,100,11
2,33,100,7
2,33,100,35
2,34,100,11
2,34,100,28
2,33,100,17
2,31,100,6
2,31,100,34
2,31,100,21
2,38,100,22
2,36,100,26
2,36,100,34
2,36,100,21
2,40,100,35
2,41,100,13
2,43,100,9
2,38,89,42
2,43,100,3
2,43,100,78
2,38,100,22
2,36,100,21
2,36,100,35
2,38,100,11
2,40,100,32
2,41,100,32
2,33,100,34
2,34,100,17
2,38,100,22
2,36,100,27
2,36,100,34
2,38,100,16
2,40,100,22
2,41,100,27
2,41,100,34
2,33,100,17
2,33,100,35
2,34,100,21
2,34,91,35
2,38,100,15
2,36,100,8
2,43,100,28
2,41,100,32
2,33,100,34
2,34,100,17
2,38,100,22
2,36,100,27
2,36,100,34
2,36,100,21
2,36,82,36
2,38,100,16
2,31,100,8
2,31,100,34
2,31,100,17
2,33,100,22
2,34,100,22
2,34,100,35
2,34,100,17
2,38,100,34
2,38,100,34
2,33,89,38
2,38,100,3
2,38,100,75
2,33,100,22
2,31,100,19
2,31,100,34
2,31,100,21
2,33,91,18
2,38,100,9
2,38,100,14
2,38,100,34
2,33,89,18
2,38,100,3
2,38,100,76
2,41,100,22
2,45,100,11
2,43,100,7
2,38,100,43
2,43,100,10
2,35,89,22
2,31,100,21
2,33,100,34
2,34,100,21
2,34,100,43
2,36,100,13
2,36,100,34
2,31,89,38
2,36,100,3
2,36,100,76
2,34,100,22
2,33,100,16
2,31,100,6
2,31,100,20
2,31,89,11
2,33,100,21
2,34,100,21
2,38,100,27
2,36,100,22
2,36,100,35
2,36,100,17
2,48,100,28
2,50,100,11
2,36,100,6
2,41,100,2276
2,41,100,34
2,33,100,17
2,33,100,35
2,34,100,21
2,34,100,35
2,36,100,21
2,43,100,28
2,41,100,32
2,33,100,34
2,34,100,17
2,38,100,22
2,36,100,27
2,36,100,34
2,31,100,16
2,36,100,6
2,36,100,73
2,34,98,30
2,33,100,16
2,31,100,8
2,31,100,34
2,31,100,10
2,33,100,22
2,34,100,22
2,34,100,35
2,34,100,12
2,34,100,14
2,36,97,16
2,41,100,5
2,41,82,3
2,33,100,37
2,34,100,11
2,34,100,3
2,38,100,34
2,36,100,19
2,36,100,24
2,38,100,16
2,40,100,22
2,41,100,27
2,36,100,34
2,34,100,17
2,33,100,9
2,33,100,35
2,34,100,7
2,38,100,1
2,36,100,28
2,43,100,26
2,41,100,32
2,41,100,12
2,33,91,3
2,34,100,10
2,34,100,59
2,38,100,16
2,36,100,8
2,36,100,34
2,31,91,21
2,36,100,9
2,34,82,11
2,33,100,16
2,31,100,8
2,31,100,34
2,31,100,17
2,33,100,15
2,34,100,22
2,34,100,13
2,34,100,17
3,29,102,1316
3,29,93,265
3,29,93,76
3,31,102,361
3,31,93,265
3,31,93,76
3,29,102,361
3,29,93,265
3,29,93,76
3,31,102,361
3,31,93,265
3,31,93,76
3,26,102,361
3,26,93,265
3,26,93,76
3,31,102,361
3,31,93,265
3,31,93,76
3,24,102,361
3,24,93,265
3,24,93,76
3,33,102,361
3,33,93,265
3,34,93,76
3,26,102,361
3,26,93,265
3,26,93,76
3,31,102,361
3,31,93,265
3,31,93,76
3,24,102,361
3,24,93,265
3,24,93,76
3,33,102,361
3,33,93,265
3,34,93,76
3,31,102,361
3,31,93,265
3,31,93,76
3,36,102,361
3,36,93,265
3,36,93,76
3,31,102,361
3,31,93,265
3,31,93,76
3,36,102,361
4,69,93,4659
4,69,82,12
4,69,91,12
4,69,84,8
4,69,100,15
4,67,82,13
4,65,82,9
4,58,101,16
4,67,90,6
4,67,90,18
4,67,64,306
4,67,82,13
4,67,91,16
4,67,100,13
4,67,82,0
4,67,91,19
4,62,81,12
4,62,95,12
4,60,93,10
4,60,60,19
4,67,91,6
4,65,82,16
4,69,64,216
4,69,91,11
4,69,91,12
4,69,87,12
4,69,91,15
4,67,73,16
4,65,73,9
4,58,87,11
4,67,82,21
4,67,91,18
4,67,64,193
4,67,91,11
4,67,82,13
4,67,100,12
4,67,91,12
4,62,73,14
4,62,95,12
4,60,98,10
4,62,87,9
4,62,91,13
4,62,60,532
4,62,91,12
4,64,98,8
4,65,91,13
4,69,100,13
4,67,90,6
4,67,100,17
4,62,73,474
4,62,91,12
4,64,95,14
4,65,100,19
4,69,100,24
4,70,95,76
4,70,107,18
4,70,104,42
4,69,100,15
4,65,91,6
4,65,91,19
4,62,95,14
4,69,98,14
4,67,100,51
4,70,98,286
4,69,100,27
4,65,73,5
4,65,91,3
4,72,91,23
4,72,100,18
4,64,91,35
4,62,91,18
4,70,91,182
4,69,100,18
4,65,72,3
4,65,91,21
4,62,73,16
4,60,78,18
4,62,101,11
4,69,91,3
4,67,92,25
4,67,81,195
4,67,100,11
4,69,72,8
4,67,100,9
4,65,64,20
4,62,73,1
4,65,91,1
4,64,100,22
4,65,100,12
4,60,95,179
4,60,81,12
4,67,90,5
4,68,69,1
4,67,73,15
4,65,98,21
4,65,82,13
4,69,93,1127
4,69,82,12
4,69,91,12
4,69,84,8
4,69,100,15
4,67,82,13
4,65,82,9
4,58,101,16
4,67,90,6
4,67,90,18
4,67,64,306
4,67,82,13
4,67,91,16
4,67,100,13
4,67,82,10
4,67,91,19
4,62,81,12
4,62,95,12
4,60,93,10
4,60,60,19
4,67,91,6
4,65,82,16
4,69,64,216
4,69,91,11
4,69,91,12
4,69,87,12
4,69,91,15
4,67,73,16
4,65,73,9
4,58,87,11
4,67,82,21
4,67,91,18
4,67,64,193
4,67,91,11
4,67,82,13
4,67,100,12
4,67,91,12
4,62,73,14
4,62,95,12
4,60,98,10
4,62,87,9
4,62,91,13
4,62,60,532
4,62,91,12
4,64,98,8
4,65,91,13
4,69,100,13
4,67,90,6
4,67,100,17
4,62,73,474
4,62,91,12
4,64,95,14
4,65,100,19
4,69,100,24
4,70,95,76
4,70,107,18
4,70,104,37
4,69,100,15
4,65,91,12
4,65,91,19
4,62,95,14
4,69,98,14
4,67,100,51
4,70,98,286
4,69,100,27
4,65,73,7
4,65,91,3
4,72,91,23
4,72,100,18
4,64,91,35
4,62,91,18
4,70,91,182
4,69,100,18
4,65,72,5
4,65,91,21
4,62,73,16
4,60,78,18
4,62,101,11
4,69,91,3
4,67,92,25
4,67,81,195
4,67,100,11
4,69,72,12
4,67,100,9
4,65,64,20
4,62,73,1
4,65,91,1
4,64,100,22
4,65,100,12
4,62,95,185
4,62,81,12
4,65,90,4
4,69,98,16
4,74,100,3356
4,72,82,7
4,72,100,18
4,69,100,15
4,69,107,13
4,70,64,4
4,69,78,22
4,67,101,1
4,72,98,22
4,72,91,52
4,72,100,49
4,69,74,0
4,65,74,0
4,74,66,7
4,67,40,0
4,70,40,0
4,72,78,19
4,65,52,0
4,69,52,0
4,62,61,13
4,67,61,0
4,70,87,0
4,69,82,2
4,69,93,6
4,69,109,14
4,69,100,18
4,70,56,4
4,69,73,14
4,67,98,12
4,77,100,486
4,74,91,8
4,72,91,5
4,70,104,13
4,69,100,15
4,65,91,6
4,65,91,19
4,62,95,14
4,69,98,14
4,67,100,51
4,75,101,85
4,74,100,13
4,72,100,14
4,72,100,15
4,70,98,45
4,69,100,27
4,65,73,5
4,65,91,3
4,72,91,23
4,72,100,18
4,64,91,35
4,62,91,18
4,70,91,182
4,69,100,18
4,65,72,3
4,65,91,21
4,62,73,16
4,60,78,18
4,62,101,11
4,69,91,3
4,67,92,25
4,67,81,195
4,67,100,11
4,69,72,8
4,67,100,9
4,65,64,20
4,62,73,1
4,65,91,1
4,64,100,16
4,65,100,12
4,70,104,26
4,69,100,13
4,65,91,6
4,65,91,19
4,62,95,14
4,69,98,14
4,67,100,51
4,70,98,45
4,69,100,27
4,65,73,2
4,65,91,10
4,72,91,23
4,72,100,18
4,64,91,34
4,62,91,7
4,70,91,17
4,69,100,18
4,65,72,0
4,65,91,21
4,62,73,8
4,60,78,18
4,62,101,11
4,69,91,3
4,67,92,13
4,67,81,28
4,67,100,11
4,69,72,6
4,67,100,9
4,65,64,20
4,62,73,1
4,65,91,1
4,64,100,8
4,65,100,12
5,41,61,1266
5,57,73,11
5,65,73,2
5,60,73,1
5,43,61,756
5,58,73,9
5,67,73,1
5,62,73,1
5,41,61,709
5,57,73,11
5,65,73,2
5,60,73,1
5,43,61,722
5,58,73,9
