track,note,velocity,time
0,1,1,0
0,1,1,0
0,69,94,0
0,76,98,4
0,73,93,0
0,64,91,0
0,57,93,0
0,69,94,8
0,73,100,0
0,76,87,4
0,64,88,204
0,69,96,0
0,73,103,0
0,76,100,4
0,57,94,0
0,73,97,24
0,69,90,0
0,76,87,4
0,57,83,212
0,66,98,4
0,78,103,0
0,69,100,0
0,73,100,0
0,73,100,32
0,78,91,0
0,69,84,16
0,78,65,0
0,73,80,0
0,69,71,0
0,78,48,44
0,73,64,0
0,73,103,156
0,69,97,0
0,64,91,4
0,57,93,0
0,76,99,0
0,73,101,52
0,69,88,20
0,76,84,0
0,64,86,192
0,73,106,0
0,69,98,0
0,76,100,4
0,57,93,0
0,73,100,20
0,76,86,4
0,69,85,0
0,64,79,200
0,73,92,0
0,57,85,4
0,76,89,0
0,69,85,0
0,73,94,16
0,69,83,4
0,76,81,24
0,57,88,72
0,66,100,4
0,73,98,0
0,69,95,0
0,78,103,0
0,78,99,24
0,73,107,0
0,69,82,16
0,73,99,60
0,78,91,0
0,69,80,32
0,78,82,0
0,73,89,0
0,69,78,16
0,78,83,84
0,73,89,0
0,69,87,56
0,73,101,48
0,76,95,0
0,73,103,24
0,76,97,0
0,69,98,0
0,57,89,0
0,64,87,0
0,69,96,208
0,73,114,4
0,76,94,0
0,73,104,4
0,69,96,0
0,64,91,4
0,76,104,0
0,57,96,0
0,57,79,172
0,66,108,4
0,73,95,0
0,69,97,0
0,78,102,0
0,73,105,16
0,78,99,0
0,69,81,32
0,78,86,4
0,73,95,24
0,69,82,16
0,78,86,16
0,73,91,0
0,76,96,148
0,64,89,4
0,57,85,0
0,73,100,0
0,69,95,0
0,73,98,16
0,76,88,0
0,69,93,4
0,64,89,192
0,73,101,0
0,69,96,4
0,57,98,0
0,76,99,0
0,69,95,4
0,73,105,0
0,76,88,32
0,73,92,136
0,57,75,8
0,64,71,4
0,73,89,0
0,76,90,0
0,69,81,0
0,76,80,12
0,69,83,28
0,69,88,88
0,78,103,4
0,73,97,0
0,57,82,0
0,66,96,0
0,73,114,12
0,78,100,20
0,69,85,32
0,78,89,24
0,73,88,0
0,38,127,16
0,57,91,4
0,78,100,0
0,66,102,0
0,69,94,0
0,73,98,0
0,38,127,16
0,69,76,4
0,78,89,12
0,73,88,0
0,38,127,4
0,69,60,16
0,78,74,72
0,73,75,24
0,38,127,8
0,73,74,4
0,69,60,0
0,76,107,0
0,73,120,0
0,36,127,20
0,42,81,4
0,33,127,0
0,76,96,0
0,73,101,0
0,49,83,4
0,73,99,0
0,64,90,0
0,69,95,0
0,57,87,0
0,61,87,0
0,57,79,0
0,69,114,4
0,69,101,4
0,76,81,4
0,42,36,4
0,76,110,140
0,73,120,0
0,69,117,4
0,38,127,8
0,42,66,4
0,69,104,0
0,73,106,0
0,76,107,0
0,64,93,0
0,69,92,4
0,57,96,0
0,73,105,4
0,76,86,24
0,36,127,8
0,42,60,0
0,73,120,104
0,78,118,0
0,42,66,4
0,36,127,4
0,28,127,0
0,69,117,0
0,57,83,0
0,69,97,4
0,73,106,0
0,78,108,0
0,66,104,0
0,73,103,8
0,78,99,4
0,69,84,8
0,42,49,4
0,38,127,136
0,42,63,0
0,69,72,4
0,78,90,0
0,66,79,0
0,73,74,0
0,44,57,124
0,73,104,0
0,69,97,4
0,76,99,0
0,57,85,0
0,64,87,0
0,69,90,4
0,36,127,4
0,42,68,4
0,33,127,0
0,76,117,4
0,73,127,4
0,69,119,0
0,73,99,8
0,76,82,0
0,42,45,36
0,69,99,4
0,64,88,0
0,73,104,0
0,76,105,0
0,57,87,0
0,69,93,8
0,76,87,4
0,73,99,0
0,73,116,8
0,76,108,8
0,69,114,0
0,42,63,4
0,38,127,4
0,42,56,108
0,36,127,0
0,33,127,4
0,64,82,0
0,73,96,0
0,76,97,0
0,69,91,0
0,57,79,4
0,78,118,8
0,73,120,4
0,69,119,0
0,73,110,4
0,78,98,4
0,69,93,0
0,73,92,16
0,78,81,0
0,42,68,4
0,36,127,4
0,28,127,0
0,57,93,0
0,78,103,0
0,69,94,4
0,66,100,0
0,73,97,0
0,69,81,16
0,73,84,12
0,42,44,4
0,78,76,20
0,69,82,20
0,38,127,20
0,42,66,4
0,69,72,0
0,73,87,4
0,78,77,0
0,42,45,84
0,28,127,0
0,73,90,4
0,69,81,0
0,76,76,0
0,57,72,0
0,76,104,64
0,69,112,0
0,73,114,0
0,69,94,4
0,36,127,4
0,42,66,4
0,33,127,0
0,76,104,0
0,69,102,0
0,73,106,0
0,64,94,4
0,57,94,0
0,73,107,12
0,76,90,0
0,42,45,4
0,69,101,132
0,38,127,4
0,42,64,4
0,57,97,0
0,76,112,0
0,64,89,0
0,73,108,0
0,69,104,0
0,76,107,4
0,73,120,0
0,69,112,0
0,73,100,16
0,76,90,4
0,42,51,12
0,36,127,4
0,78,114,124
0,73,118,0
0,42,70,4
0,36,127,0
0,28,127,4
0,57,88,0
0,73,104,0
0,69,99,0
0,66,103,4
0,78,113,0
0,69,93,16
0,78,99,4
0,73,101,0
0,69,112,4
0,42,49,20
0,38,127,84
0,42,70,0
0,69,82,4
0,42,45,72
0,64,67,4
0,69,75,0
0,69,96,120
0,73,95,4
0,76,112,0
0,73,123,4
0,69,110,0
0,42,66,4
0,36,127,0
0,33,127,0
0,64,82,0
0,69,100,0
0,73,103,4
0,76,104,0
0,57,89,0
0,76,83,16
0,69,92,56
0,42,48,8
0,64,95,0
0,57,97,4
0,69,102,0
0,76,112,0
0,73,108,0
0,73,112,8
0,69,110,0
0,73,100,4
0,76,88,0
0,76,107,0
0,38,127,12
0,42,64,0
0,73,118,100
0,42,61,8
0,36,127,4
0,33,127,0
0,78,106,0
0,57,95,0
0,66,110,0
0,73,103,4
0,69,105,0
0,73,107,8
0,78,99,4
0,78,113,0
0,69,117,0
0,69,92,8
0,78,79,0
0,73,91,0
0,36,127,12
0,42,68,4
0,28,127,0
0,69,79,12
0,73,84,0
0,78,80,4
0,38,127,8
0,78,87,4
0,69,78,0
0,73,79,0
0,66,63,0
0,38,127,20
0,69,80,8
0,78,86,0
0,73,92,0
0,38,127,28
0,73,104,4
0,78,108,0
0,69,100,0
0,66,96,0
0,57,86,0
0,38,127,20
0,76,127,0
0,42,70,4
0,36,127,0
0,33,127,0
0,69,92,0
0,73,91,4
0,64,87,0
0,76,88,0
0,57,88,0
0,49,74,8
0,73,94,4
0,76,82,4
0,69,82,0
0,42,48,36
0,38,127,140
0,42,63,0
0,64,87,4
0,57,88,0
0,73,108,0
0,69,100,0
0,76,104,0
0,69,81,16
0,73,93,0
0,76,81,4
0,42,49,20
0,36,127,4
0,33,127,0
0,42,66,72
0,36,127,4
0,28,127,0
0,73,100,0
0,57,81,0
0,66,101,0
0,69,102,4
0,78,106,0
0,73,97,4
0,78,89,20
0,69,78,16
0,78,57,0
0,73,65,4
0,42,49,4
0,38,127,112
0,42,68,4
0,42,37,56
0,28,127,4
0,36,127,92
0,42,64,0
0,33,127,0
0,64,83,0
0,57,86,0
0,73,102,4
0,69,97,0
0,76,91,0
0,73,85,8
0,76,75,0
0,69,83,28
0,42,38,68
0,69,94,4
0,73,100,0
0,76,99,0
0,64,85,0
0,57,90,0
0,73,88,8
0,76,75,20
0,69,85,4
0,38,127,16
0,42,68,4
0,42,54,84
0,36,127,0
0,33,127,4
0,57,83,0
0,73,100,0
0,78,103,0
0,69,99,4
0,66,100,0
0,78,97,4
0,73,95,4
0,69,84,8
0,78,69,8
0,73,82,4
0,42,70,4
0,36,127,0
0,28,127,0
0,69,69,16
0,73,62,28
0,73,127,20
0,42,53,4
0,78,103,0
0,66,95,0
0,69,96,0
0,73,96,0
0,57,88,4
0,38,127,52
0,42,73,4
0,42,49,36
0,62,67,12
0,56,70,20
0,59,70,4
0,74,127,4
0,36,127,8
0,42,70,0
0,35,127,0
0,68,88,0
0,76,91,0
0,56,98,4
0,64,94,0
0,71,95,0
0,74,96,0
0,68,87,4
0,76,85,4
0,74,86,0
0,42,47,4
0,71,127,56
0,38,127,0
0,42,68,4
0,76,87,0
0,68,89,0
0,71,94,0
0,64,94,0
0,56,102,4
0,74,92,0
0,68,90,20
0,76,86,4
0,74,86,0
0,74,114,0
0,76,110,4
0,68,127,0
0,42,53,8
0,36,127,0
0,42,73,116
0,36,127,0
0,28,127,0
0,56,97,0
0,68,96,0
0,78,103,4
0,66,104,0
0,71,99,0
0,78,97,8
0,74,93,4
0,68,120,4
0,78,123,4
0,74,119,0
0,68,86,24
0,74,78,12
0,78,85,0
0,42,45,0
0,68,75,16
0,74,73,60
0,78,76,0
0,38,127,24
0,42,77,0
0,42,44,72
0,36,127,120
0,42,68,0
0,35,127,0
0,56,101,0
0,64,97,0
0,68,96,4
0,71,100,0
0,76,95,0
0,68,127,4
0,74,114,0
0,76,108,4
0,76,95,8
0,74,92,4
0,68,92,0
0,42,49,40
0,76,93,4
0,68,84,0
0,56,101,0
0,64,89,0
0,71,100,0
0,68,88,4
0,74,88,4
0,76,89,4
0,68,108,24
0,74,106,4
0,76,103,0
0,38,127,4
0,42,63,4
0,36,127,96
0,42,58,0
0,35,127,4
0,78,103,0
0,71,99,0
0,68,94,0
0,56,97,4
0,66,108,0
0,74,96,12
0,78,97,0
0,68,123,16
0,74,115,4
0,78,114,0
0,68,91,8
0,74,77,0
0,78,82,0
0,36,127,4
0,42,64,4
0,28,127,0
0,68,72,52
0,74,68,32
0,78,75,0
0,42,54,32
0,56,98,4
0,66,103,0
0,71,99,0
0,68,88,0
0,78,104,0
0,38,127,12
0,42,70,4
0,42,49,12
0,28,127,4
0,56,62,0
0,68,79,0
0,74,127,44
0,68,99,24
0,36,127,4
0,42,70,4
0,35,127,0
0,68,97,0
0,56,95,0
0,76,95,4
0,71,97,0
0,64,97,0
0,74,94,12
0,76,92,4
0,42,43,0
0,38,127,140
0,42,70,4
0,64,92,0
0,56,103,0
0,68,95,0
0,76,95,0
0,68,94,4
0,71,98,0
0,74,92,4
0,76,91,0
0,42,57,12
0,36,127,4
0,42,70,116
0,36,127,4
0,28,127,0
0,56,90,0
0,66,117,0
0,68,92,0
0,71,97,4
0,78,98,0
0,74,92,4
0,78,90,4
0,68,86,0
0,74,74,4
0,78,77,4
0,42,50,16
0,68,71,20
0,74,55,12
0,38,127,24
0,42,73,4
0,42,44,56
0,36,127,136
0,42,66,4
0,35,127,0
0,68,91,0
0,68,91,4
0,64,95,0
0,76,91,0
0,56,102,0
0,71,95,0
0,74,88,20
0,76,86,0
0,42,43,72
0,76,86,4
0,56,101,0
0,68,85,0
0,71,97,0
0,64,88,0
0,74,85,12
0,76,85,4
0,68,87,0
0,38,127,16
0,42,68,0
0,42,61,96
0,36,127,0
0,35,127,4
0,56,96,0
0,68,95,0
0,71,102,0
0,78,104,0
0,66,106,4
0,74,95,12
0,78,95,4
0,68,82,24
0,74,69,8
0,78,78,4
0,36,127,0
0,42,70,0
0,28,127,0
0,68,67,8
0,74,70,28
0,78,75,24
0,42,52,4
0,56,97,4
0,68,97,0
0,78,106,0
0,66,104,0
0,71,102,0
0,76,127,8
0,38,127,16
0,42,73,4
0,42,53,8
0,68,90,4
0,71,68,0
0,57,71,12
0,61,76,20
0,73,92,4
0,69,92,0
0,36,127,4
0,76,81,0
0,42,68,4
0,33,127,0
0,57,91,0
0,73,93,0
0,73,127,4
0,64,95,0
0,69,100,0
0,76,95,0
0,76,92,44
0,73,91,0
0,69,94,4
0,42,51,16
0,69,127,84
0,38,127,12
0,42,70,4
0,76,107,0
0,73,118,0
0,69,112,0
0,69,107,0
0,69,97,4
0,57,98,0
0,73,117,0
0,64,88,0
0,76,112,0
0,73,88,4
0,76,89,0
0,36,127,0
0,42,57,0
0,33,127,4
0,73,110,92
0,78,99,4
0,36,127,8
0,42,73,0
0,28,127,0
0,57,91,0
0,69,109,0
0,78,116,4
0,73,106,0
0,78,113,0
0,66,104,0
0,73,118,4
0,69,115,0
0,69,92,16
0,73,76,24
0,78,77,0
0,42,49,8
0,69,74,12
0,73,66,44
0,78,73,4
0,42,70,44
0,38,127,0
0,42,45,68
0,28,127,4
0,73,72,0
0,36,127,92
0,42,70,0
0,33,127,0
0,73,103,0
0,64,90,0
0,73,123,4
0,69,110,0
0,69,99,0
0,57,96,0
0,76,100,0
0,73,83,4
0,76,85,0
0,76,110,0
0,69,85,4
0,42,48,52
0,64,90,4
0,57,96,0
0,69,100,0
0,73,106,0
0,76,105,0
0,73,87,20
0,76,89,4
0,69,86,0
0,73,116,4
0,76,109,4
0,69,117,0
0,38,127,0
0,42,68,0
0,36,127,92
0,42,63,0
0,33,127,4
0,57,93,0
0,73,102,0
0,78,108,0
0,69,105,4
0,66,113,0
0,73,116,8
0,78,116,4
0,73,105,12
0,78,105,4
0,69,114,12
0,69,80,8
0,73,75,12
0,36,127,8
0,42,68,4
0,28,127,0
0,78,78,4
0,73,61,92
0,38,127,4
0,66,108,4
0,69,105,0
0,78,110,0
0,73,106,0
0,57,98,0
0,78,62,20
0,38,127,16
0,69,77,8
0,73,82,4
0,78,86,4
0,38,127,16
0,38,127,120
0,28,127,4
0,69,84,0
0,76,127,80
0,36,127,24
0,42,68,4
0,33,127,0
0,64,89,0
0,57,90,0
0,49,74,4
0,69,104,0
0,73,108,0
0,76,105,0
0,73,88,4
0,76,85,4
0,69,94,24
0,42,45,24
0,38,127,136
0,42,70,0
0,64,85,4
0,73,106,0
0,69,100,0
0,76,105,0
0,57,94,4
0,76,82,4
0,69,93,4
0,73,83,0
0,42,56,12
0,36,127,0
0,33,127,0
0,42,66,88
0,36,127,4
0,28,127,0
0,73,106,0
0,57,80,0
0,66,97,4
0,78,106,0
0,69,104,0
0,73,94,8
0,78,93,4
0,69,87,24
0,73,64,12
0,78,71,0
0,42,52,4
0,38,127,132
0,42,70,4
0,69,82,0
0,73,73,0
0,42,41,92
0,28,127,4
0,69,78,0
0,42,68,88
0,36,127,4
0,33,127,0
0,69,89,0
0,64,88,0
0,57,87,4
0,76,97,0
0,73,94,0
0,73,86,4
0,76,87,4
0,69,89,0
0,42,44,64
0,57,88,4
0,64,84,0
0,69,93,0
0,76,99,0
0,73,101,0
0,76,80,4
0,73,82,0
0,69,87,24
0,38,127,12
0,42,64,4
0,42,58,108
0,36,127,0
0,33,127,4
0,57,88,0
0,66,100,0
0,73,101,0
0,78,108,0
0,69,100,4
0,78,100,24
0,73,101,4
0,69,87,4
0,42,73,16
0,36,127,4
0,73,79,0
0,78,82,0
0,28,127,0
0,42,51,96
0,57,91,4
0,66,100,0
0,69,97,0
0,78,104,0
0,73,103,0
0,73,127,16
0,38,127,4
0,42,66,4
0,44,49,96
0,69,68,0
0,74,127,4
0,76,85,12
0,42,62,8
0,36,127,0
0,35,127,0
0,64,93,0
0,74,85,4
0,68,96,0
0,56,101,0
0,76,86,0
0,74,93,0
0,71,95,0
0,68,92,4
0,62,66,0
0,59,71,4
0,56,71,0
0,42,52,0
0,71,127,16
0,38,127,4
0,42,70,4
0,56,104,0
0,71,93,0
0,76,88,0
0,68,94,0
0,64,95,4
0,74,94,0
0,68,95,8
0,76,86,4
0,74,86,0
0,42,53,8
0,36,127,0
0,35,127,4
0,74,90,68
0,68,90,0
0,36,127,4
0,42,68,4
0,28,127,0
0,56,93,0
0,68,94,0
0,66,104,4
0,78,101,0
0,71,98,0
0,78,91,24
0,42,52,12
0,38,127,120
0,42,70,4
0,42,54,52
0,36,127,140
0,42,66,0
0,35,127,0
0,68,93,0
0,64,95,0
0,76,95,4
0,56,103,0
0,71,99,0
0,76,81,12
0,74,80,4
0,68,81,0
0,42,53,24
0,76,92,4
0,56,95,0
0,68,92,0
0,64,82,0
0,71,100,0
0,74,73,24
0,68,81,4
0,76,76,0
0,38,127,52
0,42,66,0
0,71,127,72
0,36,127,40
0,42,61,0
0,35,127,4
0,56,92,0
0,66,104,0
0,78,102,4
0,71,98,0
0,68,93,0
